,start,end,pitch,velocity
0,20.487196816666664,20.758977724999998,66.0,99.0
1,20.721827816666664,21.001429758333334,69.0,74.0
2,20.956458816666665,21.220418691666666,66.0,76.0
3,21.191089816666665,22.70837028333333,69.0,88.0
4,23.302768816666667,23.492428874999998,62.0,102.0
5,23.537399816666664,23.738791425,64.0,90.0
6,24.006661816666664,24.19827713333333,66.0,107.0
7,24.475923816666665,25.740975958333333,64.0,88.0
8,27.995388816666665,28.253482916666666,71.0,117.0
9,28.230019816666665,28.343424799999998,69.0,77.0
10,28.464650816666666,28.617160966666667,69.0,82.0
11,28.699281816666666,28.857657741666664,66.0,99.0
12,28.933912816666666,29.688642533333333,69.0,93.0
13,29.872436816666664,30.118799366666664,71.0,112.0
14,30.107067816666664,30.361251399999997,69.0,88.0
15,30.576329816666664,30.7601241,66.0,89.0
16,30.810960816666665,31.11402585833333,69.0,88.0
17,31.045591816666665,32.54723021666666,66.0,75.0
18,34.09579481666667,34.20528928333333,69.0,102.0
19,34.33042581666667,34.42818873333333,69.0,97.0
20,34.56505681666666,34.8661666,71.0,117.0
21,35.03431881666666,35.13794750833333,71.0,95.0
22,35.26894981666666,35.37257850833333,71.0,92.0
23,35.50358081666666,35.830108958333334,71.0,122.0
24,35.97284281666666,36.10188986666667,73.0,112.0
25,36.20747381666666,37.15381885,74.0,90.0
26,37.849890816666665,38.04541665,71.0,102.0
27,38.084521816666665,38.244853,74.0,92.0
28,38.319152816666666,38.52836545833333,71.0,102.0
29,38.553783816666666,38.86858040833333,69.0,83.0
30,38.788414816666666,38.86858040833333,69.0,100.0
31,39.02304581666667,39.154048124999996,69.0,90.0
32,39.25767681666667,39.52750246666667,69.0,102.0
33,39.72693881666667,39.89900155,71.0,99.0
34,39.96156981666667,40.52859473333333,69.0,102.0
35,41.60398681666666,41.709570766666666,66.0,127.0
36,41.83861781666666,41.94811228333333,66.0,95.0
37,42.07324881666666,42.43106109166666,66.0,122.0
38,42.54251081666666,42.612900116666665,64.0,82.0
39,42.77714181666666,44.04414921666667,64.0,100.0
40,44.888820816666666,45.42651685833333,71.0,127.0
41,45.358082816666666,45.618132175,69.0,96.0
42,45.82734481666667,46.292696299999996,66.0,117.0
43,46.29660681666667,47.375909416666666,64.0,97.0
44,50.285333816666665,50.38896250833333,57.0,112.0
45,50.519964816666665,50.791745725,66.0,99.0
46,50.754595816666665,51.03419775833333,69.0,74.0
47,50.989226816666665,51.25318669166666,66.0,76.0
48,51.223857816666666,52.74113828333333,69.0,88.0
49,53.10090581666667,53.290565875,57.0,100.0
50,53.33553681666666,53.525196875,62.0,102.0
51,53.57016781666666,53.771559425,64.0,90.0
52,53.80479881666666,54.00227990833333,64.0,102.0
53,54.03942981666666,54.23104513333333,66.0,107.0
54,54.50869181666666,55.773743958333334,64.0,88.0
55,57.793525816666666,57.981230616666664,71.0,112.0
56,58.028156816666666,58.28625091666667,71.0,117.0
57,58.262787816666666,58.417253224999996,69.0,102.0
58,58.497418816666666,58.651884224999996,66.0,107.0
59,58.73204981666667,59.48677953333333,69.0,93.0
60,59.67057381666666,59.83872603333333,69.0,76.0
61,59.90520481666666,60.323630099999995,71.0,107.0
62,60.60909781666666,60.77138425833333,69.0,97.0
63,60.84372881666666,61.049030941666665,66.0,99.0
64,61.31299081666666,61.45181415833333,69.0,112.0
65,61.54762181666666,62.66211906666666,66.0,112.0
66,64.12856281666666,64.23805728333333,69.0,102.0
67,64.36319381666667,64.46095673333333,69.0,97.0
68,64.59782481666666,64.8989346,71.0,117.0
69,65.06708681666666,65.17071550833333,71.0,95.0
70,65.30171781666667,65.40534650833332,71.0,92.0
71,65.77097981666667,65.99192400833333,71.0,127.0
72,66.24024181666667,66.35560205833333,73.0,102.0
73,66.47487281666666,67.32932070833333,74.0,99.0
74,67.88265881666666,68.07818465,71.0,102.0
75,68.11728981666667,68.277621,74.0,92.0
76,68.35192081666666,68.56113345833333,71.0,102.0
77,68.82118281666666,68.94045357499999,69.0,100.0
78,69.05581381666666,69.18681612499999,69.0,90.0
79,69.29044481666666,69.56027046666667,69.0,102.0
80,69.75970681666666,69.90048541666667,66.0,112.0
81,69.99433781666666,70.91330923333334,74.0,102.0
82,71.63675481666667,71.709099375,69.0,93.0
83,71.87138581666666,71.99456709166667,69.0,100.0
84,72.10601681666667,72.40517134166666,71.0,122.0
85,72.57527881666667,72.67890750833332,71.0,97.0
86,72.80990981666666,72.91353850833333,71.0,96.0
87,73.04454081666667,73.23615613333332,71.0,122.0
88,73.51380281666667,73.67608925833333,73.0,117.0
89,73.74843381666666,74.325235025,74.0,117.0
90,74.92158881666667,75.22465385833333,71.0,117.0
91,75.39085081666666,75.46515063333332,74.0,117.0
92,75.62548181666666,77.38912483333333,76.0,117.0
93,78.67568481666666,78.93377891666667,69.0,112.0
94,78.91031581666667,79.15276784999999,71.0,122.0
95,79.37957781666667,79.53208796666667,74.0,117.0
96,80.08347081666666,80.17536795833333,76.0,122.0
97,79.61420881666666,80.21838364166666,78.0,127.0
98,80.31810181666667,80.4080437,76.0,112.0
99,80.55273281666666,80.78736381666667,76.0,122.0
100,81.02199481666666,81.13148928333332,74.0,122.0
101,81.25662581666666,81.97029510833333,76.0,127.0
102,83.13367381666666,83.20406311666666,74.0,97.0
103,83.36830481666667,83.763267,78.0,127.0
104,83.83756681666667,84.13476608333333,76.0,122.0
105,84.30682881666667,84.6079386,76.0,127.0
106,84.77609081666667,84.88949579999999,74.0,122.0
107,85.01072181666666,85.64422551666667,74.0,127.0
108,86.65313881666667,86.72939389166666,74.0,112.0
109,86.88776981666666,87.12240081666667,76.0,122.0
110,87.12240081666667,87.24949260833333,78.0,99.0
111,87.35703181666666,87.45674999166667,78.0,107.0
112,87.59166281666666,87.69138099166666,78.0,122.0
113,87.82629381666666,87.9162357,78.0,122.0
114,88.06092481666666,88.33075046666666,78.0,127.0
115,88.53018681666666,88.67878644999999,76.0,127.0
116,88.76481781666666,88.87040176666666,74.0,97.0
117,88.99944881666666,89.37290315833333,76.0,122.0
118,89.70334181666666,89.79132844166666,69.0,96.0
119,89.93797281666666,90.10612503333333,69.0,97.0
120,90.17260381666667,90.29774035,71.0,107.0
121,90.40723481666666,90.58907384166666,74.0,107.0
122,90.64186581666667,90.74549450833332,76.0,127.0
123,90.87649681666666,91.1072173,78.0,127.0
124,91.11112781666667,91.29883261666666,76.0,112.0
125,91.34575881666666,91.42396914999999,74.0,99.0
126,91.58038981666667,91.67228695833333,74.0,127.0
127,91.81502081666666,92.02423345833333,74.0,127.0
128,92.04965181666667,92.28232755833334,71.0,112.0
129,92.51891381666667,92.64209509166666,74.0,102.0
130,92.75354481666666,93.213030525,76.0,127.0
131,93.69206881666666,93.88759465,69.0,112.0
132,93.92669981666666,94.10267306666667,71.0,117.0
133,94.39596181666666,94.50350102499999,74.0,117.0
134,94.63059281666666,94.97080776666667,78.0,127.0
135,95.09985481666666,95.1897967,76.0,117.0
136,95.33448581666666,95.44398028333333,76.0,112.0
137,95.56911681666666,95.75682161666666,76.0,122.0
138,96.03837881666666,96.122454925,74.0,127.0
139,96.27300981666666,96.58585115,76.0,127.0
140,96.74227181666666,97.28974414999999,78.0,127.0
141,98.15005781666666,98.26932857499999,74.0,112.0
142,98.38468881666667,98.65451446666667,78.0,127.0
143,98.85395081666667,99.04947664999999,81.0,122.0
144,99.32321281666667,99.465946675,78.0,127.0
145,99.55784381666666,99.71426448333332,76.0,112.0
146,99.79247481666667,99.86286411666666,74.0,117.0
147,100.02710581666666,100.67038580833332,74.0,127.0
148,101.66952281666666,101.77510676666667,74.0,112.0
149,101.90415381666666,101.98040889166666,76.0,112.0
150,102.13878481666666,102.23263721666666,78.0,127.0
151,102.37341581666666,102.457491925,78.0,99.0
152,102.60804681666666,102.6979887,78.0,112.0
153,102.84267781666667,102.92284340833334,78.0,122.0
154,103.07730881666666,103.231774225,78.0,127.0
155,103.31193981666667,103.46444996666666,76.0,122.0
156,103.78120181666667,103.89460679999999,74.0,112.0
157,104.01583281666666,104.5281105,76.0,127.0
158,104.71972581666667,104.81748873333333,69.0,99.0
159,104.95435681666666,105.11664325833333,69.0,112.0
160,105.18898781666667,105.34149796666667,71.0,107.0
161,105.42361881666666,105.58199474166666,74.0,117.0
162,105.65824981666667,105.76578902499999,76.0,127.0
163,105.89288081666666,105.99650950833333,78.0,127.0
164,106.12751181666667,106.287843,76.0,127.0
165,106.36214281666666,106.44035314999999,74.0,97.0
166,106.59677381666665,106.868554725,74.0,127.0
167,107.06603581666666,107.50401368333333,74.0,122.0
168,108.23919081666666,108.33499847499999,74.0,122.0
169,108.47382181666666,108.5637637,74.0,107.0
170,108.70845281666666,108.96654691666666,74.0,122.0
171,109.17771481666666,109.30480660833332,71.0,117.0
172,109.41234581666666,110.89052111666666,76.0,127.0
173,111.99328681666667,112.1066918,69.0,96.0
174,112.22791781666666,112.33350176666666,69.0,92.0
175,112.46254881666665,112.66394042499999,78.0,127.0
176,112.69717981666666,112.88683987499999,76.0,117.0
177,113.16644181666666,113.41280436666666,74.0,117.0
178,113.63570381666666,113.79603499999999,71.0,112.0
179,113.87033481666666,114.294625875,76.0,112.0
180,114.57422781666666,116.36133393333333,74.0,117.0
181,144.13773381666667,144.22572044166665,57.0,107.0
182,144.37236481666665,144.644145725,66.0,99.0
183,144.60699581666665,144.88659775833332,69.0,74.0
184,144.84162681666666,145.10558669166667,66.0,76.0
185,145.07625781666667,146.59353828333332,69.0,88.0
186,146.95330581666667,147.142965875,57.0,100.0
187,147.18793681666665,147.377596875,62.0,102.0
188,147.42256781666666,147.62395942499998,64.0,90.0
189,147.65719881666666,147.85467990833334,64.0,102.0
190,147.89182981666667,148.08344513333333,66.0,107.0
191,148.36109181666666,149.62614395833333,64.0,88.0
192,151.64592581666665,151.83363061666665,71.0,112.0
193,151.88055681666665,152.13865091666665,71.0,117.0
194,152.11518781666666,152.26965322499998,69.0,102.0
195,152.34981881666667,152.504284225,66.0,107.0
196,152.58444981666665,153.33917953333332,69.0,93.0
197,153.52297381666665,153.69112603333332,69.0,76.0
198,153.75760481666666,154.17798535833333,71.0,107.0
199,154.46149781666665,154.62378425833333,69.0,97.0
200,154.69612881666666,154.90143094166666,66.0,99.0
201,155.16539081666667,155.30421415833334,69.0,112.0
202,155.40002181666665,156.51451906666665,66.0,112.0
203,157.98096281666665,158.09045728333334,69.0,102.0
204,158.21559381666665,158.31335673333334,69.0,97.0
205,158.45022481666666,158.75133459999998,71.0,117.0
206,158.91948681666665,159.02311550833332,71.0,95.0
207,159.15411781666666,159.25774650833333,71.0,92.0
208,159.62337981666667,159.84432400833333,71.0,127.0
209,160.09264181666666,160.20800205833334,73.0,102.0
210,160.32727281666666,161.18172070833333,74.0,99.0
211,161.73505881666665,161.93058465,71.0,102.0
212,161.96968981666666,162.130021,74.0,92.0
213,162.20432081666667,162.41353345833332,71.0,102.0
214,162.67358281666665,162.79285357499998,69.0,100.0
215,162.90821381666666,163.039216125,69.0,90.0
216,163.14284481666667,163.41267046666667,69.0,102.0
217,163.61210681666665,163.75288541666666,66.0,112.0
218,163.84673781666666,164.76570923333333,74.0,102.0
219,165.48915481666666,165.56149937499998,69.0,93.0
220,165.72378581666666,165.84696709166667,69.0,100.0
221,165.95841681666667,166.25757134166665,71.0,122.0
222,166.42767881666666,166.53130750833333,71.0,97.0
223,166.66230981666666,166.76593850833333,71.0,96.0
224,166.89694081666667,167.08855613333333,71.0,122.0
225,167.36620281666666,167.52848925833334,73.0,117.0
226,167.60083381666666,168.177635025,74.0,117.0
227,168.77398881666664,169.07705385833333,71.0,117.0
228,169.24325081666666,169.31755063333333,74.0,117.0
229,169.47788181666667,171.24152483333333,76.0,117.0
230,172.52808481666665,172.78617891666667,69.0,112.0
231,172.76271581666666,173.00516785,71.0,122.0
232,173.23197781666667,173.38448796666665,74.0,117.0
233,173.93587081666666,174.02776795833333,76.0,122.0
234,173.46660881666665,174.07078364166665,78.0,127.0
235,174.17050181666667,174.2604437,76.0,112.0
236,174.40513281666665,174.63976381666666,76.0,122.0
237,174.87439481666667,174.98388928333333,74.0,122.0
238,175.10902581666664,175.82269510833333,76.0,127.0
239,176.98607381666665,177.05646311666666,74.0,97.0
240,177.22070481666665,177.615667,78.0,127.0
241,177.68996681666667,177.98716608333334,76.0,122.0
242,178.15922881666665,178.4603386,76.0,127.0
243,178.62849081666667,178.74189579999998,74.0,122.0
244,178.86312181666665,179.49662551666665,74.0,127.0
245,180.50553881666667,180.58179389166665,74.0,112.0
246,180.74016981666665,180.97480081666666,76.0,122.0
247,180.97480081666666,181.10189260833332,78.0,99.0
248,181.20943181666667,181.30914999166666,78.0,107.0
249,181.44406281666664,181.54378099166667,78.0,122.0
250,181.67869381666665,181.7686357,78.0,122.0
251,181.91332481666666,182.18315046666666,78.0,127.0
252,182.38258681666665,182.53118644999998,76.0,127.0
253,182.61721781666665,182.72280176666666,74.0,97.0
254,182.85184881666666,183.22530315833333,76.0,122.0
255,183.55574181666665,183.64372844166667,69.0,96.0
256,183.79037281666666,183.95852503333333,69.0,97.0
257,184.02500381666667,184.15014035,71.0,107.0
258,184.25963481666665,184.44147384166666,74.0,107.0
259,184.49426581666665,184.59789450833333,76.0,127.0
260,184.72889681666666,184.9596173,78.0,127.0
261,184.96352781666667,185.15123261666665,76.0,112.0
262,185.19815881666665,185.27636915,74.0,99.0
263,185.43278981666666,185.52468695833332,74.0,127.0
264,185.66742081666666,185.87663345833332,74.0,127.0
265,185.90205181666667,186.13472755833334,71.0,112.0
266,186.37131381666666,186.49449509166666,74.0,102.0
267,186.60594481666666,187.06543052499998,76.0,127.0
268,187.54446881666667,187.73999465,69.0,112.0
269,187.77909981666664,187.95507306666667,71.0,117.0
270,188.24836181666666,188.35590102499998,74.0,117.0
271,188.48299281666667,188.82320776666666,78.0,127.0
272,188.95225481666665,189.0421967,76.0,117.0
273,189.18688581666666,189.29638028333332,76.0,112.0
274,189.42151681666667,189.60922161666664,76.0,122.0
275,189.89077881666665,189.974854925,74.0,127.0
276,190.12540981666666,190.43825114999999,76.0,127.0
277,190.59467181666665,191.14214414999998,78.0,127.0
278,192.00245781666666,192.121728575,74.0,112.0
279,192.23708881666667,192.50691446666667,78.0,127.0
280,192.70635081666666,192.90187665,81.0,122.0
281,193.17561281666667,193.318346675,78.0,127.0
282,193.41024381666665,193.5666644833333,76.0,112.0
283,193.64487481666666,193.71526411666665,74.0,117.0
284,193.87950581666666,194.5227858083333,74.0,127.0
285,195.52192281666666,195.62750676666667,74.0,112.0
286,195.75655381666667,195.83280889166664,76.0,112.0
287,195.99118481666665,196.08503721666665,78.0,127.0
288,196.22581581666665,196.309891925,78.0,99.0
289,196.46044681666666,196.55038869999998,78.0,112.0
290,196.69507781666667,196.77524340833332,78.0,122.0
291,196.92970881666665,197.084174225,78.0,127.0
292,197.16433981666665,197.31684996666667,76.0,122.0
293,197.63360181666667,197.74700679999998,74.0,112.0
294,197.86823281666665,198.38051049999999,76.0,127.0
295,198.57212581666667,198.66988873333332,69.0,99.0
296,198.80675681666665,198.96904325833333,69.0,112.0
297,199.04138781666666,199.19389796666667,71.0,107.0
298,199.27601881666666,199.43439474166667,74.0,117.0
299,199.51064981666667,199.618189025,76.0,127.0
300,199.74528081666665,199.84890950833332,78.0,127.0
301,199.97991181666666,200.140243,76.0,127.0
302,200.21454281666666,200.29275314999998,74.0,97.0
303,200.44917381666664,200.72095472499998,74.0,127.0
304,200.91843581666666,201.35641368333333,74.0,122.0
305,202.09159081666667,202.18739847499998,74.0,122.0
306,202.32622181666665,202.4161637,74.0,107.0
307,202.56085281666665,202.81894691666665,74.0,122.0
308,203.03011481666667,203.15720660833333,71.0,117.0
309,203.26474581666665,204.74292111666665,76.0,127.0
310,205.84568681666667,205.95909179999998,69.0,96.0
311,206.08031781666665,206.18590176666666,69.0,92.0
312,206.31494881666666,206.51634042499998,78.0,127.0
313,206.54957981666666,206.73923987499998,76.0,117.0
314,207.01884181666665,207.26520436666667,74.0,117.0
315,207.48810381666667,207.64843499999998,71.0,112.0
316,207.72273481666664,208.147025875,76.0,112.0
317,208.42662781666667,209.13052081666666,74.0,117.0
318,210.06904481666666,210.235241775,81.0,127.0
319,210.38188614999999,210.54221733333333,76.0,117.0
320,210.6947274833333,210.80031143333332,74.0,100.0
321,211.00756881666666,211.36733635,76.0,127.0
322,211.47683081666665,211.56286218333332,76.0,102.0
323,211.71146181666666,211.97542169166667,76.0,127.0
324,212.41535481666665,212.51702824999998,74.0,122.0
325,212.64998581666666,213.31672890833332,76.0,127.0
326,214.52703381666666,214.59742311666665,74.0,97.0
327,214.76166481666667,215.156627,78.0,127.0
328,215.23092681666665,215.52812608333332,76.0,122.0
329,215.70018881666667,216.00129859999998,76.0,127.0
330,216.16945081666665,216.2828558,74.0,122.0
331,216.40408181666666,217.03758551666667,74.0,127.0
332,218.04649881666666,218.12275389166666,74.0,112.0
333,218.28112981666666,218.51576081666667,76.0,122.0
334,218.51576081666667,218.64285260833333,78.0,99.0
335,218.75039181666665,218.85010999166667,78.0,107.0
336,218.98502281666666,219.08474099166665,78.0,122.0
337,219.21965381666666,219.3095957,78.0,122.0
338,219.45428481666664,219.72411046666664,78.0,127.0
339,219.92354681666666,220.07214645,76.0,127.0
340,220.15817781666667,220.26376176666665,74.0,97.0
341,220.39280881666664,220.76626315833332,76.0,122.0
342,221.09670181666667,221.18468844166665,69.0,96.0
343,221.33133281666665,221.49948503333331,69.0,97.0
344,221.56596381666665,221.69110035,71.0,107.0
345,221.80059481666666,221.98243384166665,74.0,107.0
346,222.03522581666667,222.1388545083333,76.0,127.0
347,222.26985681666665,222.5005773,78.0,127.0
348,222.50448781666665,222.69219261666666,76.0,112.0
349,222.73911881666666,222.81732914999998,74.0,99.0
350,222.97374981666667,223.06564695833333,74.0,127.0
351,223.20838081666665,223.41759345833333,74.0,127.0
352,223.44301181666665,223.67568755833332,71.0,112.0
353,223.91227381666667,224.03545509166665,74.0,102.0
354,224.14690481666665,224.606390525,76.0,127.0
355,225.08542881666665,225.28095464999998,69.0,112.0
356,225.32005981666666,225.49603306666666,71.0,117.0
357,225.78932181666664,225.896861025,74.0,117.0
358,226.02395281666665,226.36416776666667,78.0,127.0
359,226.49321481666667,226.5831567,76.0,117.0
360,226.72784581666664,226.83734028333333,76.0,112.0
361,226.96247681666665,227.15018161666666,76.0,122.0
362,227.43173881666667,227.515814925,74.0,127.0
363,227.66636981666664,227.97921115,76.0,127.0
364,228.13563181666666,228.68310415,78.0,127.0
365,229.54341781666665,229.66268857499998,74.0,112.0
366,229.77804881666665,230.04787446666666,78.0,127.0
367,230.24731081666667,230.44283664999998,81.0,122.0
368,230.71657281666666,230.859306675,78.0,127.0
369,230.95120381666666,231.10762448333332,76.0,112.0
370,231.18583481666664,231.25622411666666,74.0,117.0
371,231.42046581666665,232.06374580833332,74.0,127.0
372,233.06288281666664,233.16846676666665,74.0,112.0
373,233.29751381666665,233.37376889166666,76.0,112.0
374,233.53214481666666,233.62599721666666,78.0,127.0
375,233.76677581666667,233.850851925,78.0,99.0
376,234.00140681666664,234.0913487,78.0,112.0
377,234.23603781666665,234.3162034083333,78.0,122.0
378,234.47066881666666,234.62513422499998,78.0,127.0
379,234.70529981666667,234.85780996666665,76.0,122.0
380,235.17456181666665,235.2879668,74.0,112.0
381,235.40919281666666,235.9214705,76.0,127.0
382,236.11308581666665,236.21084873333334,69.0,99.0
383,236.34771681666666,236.5100032583333,69.0,112.0
384,236.58234781666667,236.73485796666665,71.0,107.0
385,236.81697881666665,236.97535474166665,74.0,117.0
386,237.05160981666666,237.15914902499998,76.0,127.0
387,237.28624081666666,237.38986950833333,78.0,127.0
388,237.52087181666664,237.68120299999998,76.0,127.0
389,237.75550281666665,237.83371315,74.0,97.0
390,237.99013381666666,238.261914725,74.0,127.0
391,238.45939581666664,238.8973736833333,74.0,122.0
392,239.63255081666665,239.728358475,74.0,122.0
393,239.86718181666666,239.95712369999998,74.0,107.0
394,240.10181281666667,240.35990691666666,74.0,122.0
395,240.57107481666665,240.6981666083333,71.0,117.0
396,240.80570581666666,242.28388111666666,76.0,127.0
397,243.38664681666666,243.5000518,69.0,96.0
398,243.62127781666666,243.72686176666664,69.0,92.0
399,243.85590881666664,244.057300425,78.0,127.0
400,244.09053981666665,244.280199875,76.0,117.0
401,244.55980181666666,244.80616436666665,74.0,117.0
402,245.02906381666665,245.189395,71.0,112.0
403,245.26369481666666,245.68798587499998,76.0,112.0
404,245.96758781666665,246.67148081666664,74.0,117.0
