,start,end,pitch,velocity
0,4.450167966666666,5.058253308333333,62.0,127.0
1,4.461899516666667,5.069984858333333,66.0,127.0
2,4.471675808333333,5.0797611499999995,69.0,127.0
3,5.261600175,5.699578041666666,66.0,127.0
4,5.2518238833333335,5.711309591666667,62.0,127.0
5,5.261600175,5.721085883333333,69.0,127.0
6,5.934209041666667,7.4593105416666665,62.0,127.0
7,5.934209041666667,7.545341908333333,67.0,127.0
8,5.934209041666667,7.545341908333333,71.0,127.0
9,8.7517363,9.256192949999999,74.0,117.0
10,8.519060558333333,9.520152825,69.0,106.0
11,9.064577633333332,9.522108083333332,76.0,127.0
12,8.294205849999999,9.529929116666667,62.0,120.0
13,9.500600241666666,10.310077191666666,74.0,127.0
14,9.958130691666666,10.396108558333333,79.0,127.0
15,10.460632083333333,10.832131166666667,78.0,127.0
16,10.908386241666665,11.246645933333333,76.0,127.0
17,11.375692983333332,11.821491883333334,74.0,127.0
18,12.312261724999999,13.868647358333332,69.0,108.0
19,12.099138566666666,13.880378908333332,62.0,121.0
20,12.515608591666666,13.890155199999999,74.0,118.0
21,12.779568466666666,13.899931491666665,76.0,127.0
22,13.905797266666665,14.161936108333332,73.0,115.0
23,14.140428266666666,15.6264246,61.0,127.0
24,14.631198108333333,15.645977183333333,73.0,108.0
25,14.365282975,15.667485025,69.0,108.0
26,15.739829583333332,17.245378499999998,64.0,96.0
27,15.82586095,17.28839418333333,69.0,127.0
28,15.890384475,17.298170475,73.0,127.0
29,19.548672816666667,20.064861016666665,62.0,53.0
30,19.548672816666667,20.113742475,69.0,52.0
31,19.548672816666667,20.156758158333332,66.0,57.0
32,20.017934816666667,20.7413804,57.0,40.0
33,20.487196816666664,20.96427985,62.0,67.0
34,20.487196816666664,21.026848116666667,69.0,66.0
35,20.487196816666664,21.044445441666667,66.0,68.0
36,20.956458816666665,21.95168530833333,57.0,34.0
37,21.425720816666665,21.967327375,62.0,62.0
38,21.425720816666665,21.994700991666665,66.0,63.0
39,21.425720816666665,22.000566766666665,69.0,65.0
40,19.548672816666667,22.356423783333334,50.0,73.0
41,22.364244816666666,22.915627666666666,66.0,81.0
42,22.364244816666666,22.915627666666666,69.0,67.0
43,22.833506816666667,22.96646438333333,62.0,59.0
44,23.302768816666667,23.807225466666665,61.0,78.0
45,23.302768816666667,23.811135983333333,64.0,70.0
46,23.302768816666667,23.8854358,57.0,73.0
47,23.772030816666664,24.31559263333333,52.0,42.0
48,24.241292816666665,24.75552575833333,57.0,66.0
49,24.241292816666665,24.75552575833333,64.0,67.0
50,24.241292816666665,24.786809891666664,61.0,63.0
51,24.710554816666665,25.482881858333332,52.0,40.0
52,25.179816816666666,25.746841733333333,61.0,67.0
53,25.179816816666666,25.748796991666666,57.0,65.0
54,25.179816816666666,25.756618024999998,64.0,68.0
55,25.649078816666666,26.270850966666664,52.0,34.0
56,23.302768816666667,26.4429137,45.0,71.0
57,26.118340816666667,26.634529016666665,61.0,117.0
58,26.118340816666667,26.659947374999998,64.0,88.0
59,26.587602816666667,27.097925241666665,57.0,85.0
60,27.056864816666664,27.219151258333333,59.0,86.0
61,27.056864816666664,27.234793325,62.0,81.0
62,27.995388816666665,28.196780425,55.0,58.0
63,27.995388816666665,28.196780425,62.0,49.0
64,27.056864816666664,28.314095925,43.0,79.0
65,27.526126816666665,28.376664191666666,50.0,44.0
66,27.995388816666665,28.433366683333333,71.0,89.0
67,27.995388816666665,28.435321941666665,67.0,90.0
68,28.933912816666666,29.444235241666664,57.0,86.0
69,28.933912816666666,29.465743083333333,64.0,74.0
70,28.933912816666666,29.749255541666667,61.0,86.0
71,29.403174816666667,29.95846818333333,52.0,42.0
72,28.933912816666666,29.983886541666664,45.0,65.0
73,29.872436816666664,30.386669758333333,64.0,88.0
74,30.341698816666664,30.679958508333332,57.0,66.0
75,29.872436816666664,30.693645316666665,61.0,117.0
76,30.810960816666665,30.908723733333332,38.0,67.0
77,30.810960816666665,31.14726525,57.0,89.0
78,30.810960816666665,31.248938683333332,62.0,81.0
79,30.810960816666665,31.305641174999998,66.0,72.0
80,31.749484816666666,32.208970525,62.0,71.0
81,31.749484816666666,32.21288104166666,66.0,64.0
82,31.749484816666666,32.2148363,69.0,66.0
83,31.749484816666666,32.887445166666666,57.0,45.0
84,32.68800881666667,33.23939166666666,62.0,83.0
85,32.68800881666667,33.241346924999995,69.0,89.0
86,32.68800881666667,33.25894425,66.0,99.0
87,33.39190181666667,33.4818437,69.0,54.0
88,33.39190181666667,33.55418825833333,66.0,63.0
89,33.15727081666667,33.675414275,57.0,65.0
90,32.218746816666666,33.966747766666664,54.0,33.0
91,31.749484816666666,34.00780819166666,50.0,46.0
92,33.86116381666667,34.01758448333333,57.0,90.0
93,33.62653281666667,34.15249730833333,66.0,127.0
94,33.62653281666667,34.213110316666665,69.0,107.0
95,34.09579481666667,34.45165183333333,62.0,107.0
96,34.56505681666666,35.10275285833333,71.0,78.0
97,34.56505681666666,35.104708116666664,67.0,76.0
98,34.56505681666666,35.153589575,62.0,83.0
99,35.50358081666666,35.75971965833333,62.0,86.0
100,35.50358081666666,35.7812275,67.0,93.0
101,35.50358081666666,35.80078008333333,71.0,89.0
102,35.97284281666666,36.64740694166667,55.0,68.0
103,36.442104816666664,36.925053625,67.0,71.0
104,36.442104816666664,36.925053625,71.0,68.0
105,36.442104816666664,36.958293016666666,62.0,72.0
106,36.911366816666664,37.43928656666667,55.0,57.0
107,35.03431881666666,37.45101811666667,50.0,30.0
108,34.56505681666666,37.74235160833333,43.0,85.0
109,37.615259816666665,37.76776996666666,50.0,64.0
110,37.380628816666665,37.873353916666666,67.0,112.0
111,37.380628816666665,37.90268279166666,71.0,99.0
112,37.849890816666665,37.906593308333335,62.0,85.0
113,38.319152816666666,38.86271463333333,73.0,73.0
114,38.319152816666666,38.87444618333333,69.0,75.0
115,38.319152816666666,39.06997201666667,66.0,81.0
116,38.788414816666666,39.51968143333333,54.0,65.0
117,39.25767681666667,39.699565199999995,73.0,82.0
118,39.25767681666667,39.73084933333333,69.0,79.0
119,39.25767681666667,39.801238633333334,66.0,75.0
120,39.72693881666667,40.34088993333333,54.0,51.0
121,40.19620081666667,40.759315216666664,66.0,70.0
122,40.19620081666667,40.77495728333333,73.0,88.0
123,40.19620081666667,40.784733575,69.0,89.0
124,40.90009381666666,41.19338256666666,66.0,85.0
125,40.66546281666667,41.20902463333333,54.0,61.0
126,40.90009381666666,41.47102925,49.0,17.0
127,41.36935581666666,41.54337380833333,54.0,86.0
128,38.319152816666666,41.574657941666665,42.0,88.0
129,41.13472481666666,41.60398681666666,69.0,64.0
130,41.83861781666666,42.063472524999995,69.0,49.0
131,41.13472481666666,42.10062243333333,73.0,127.0
132,41.60398681666666,42.10257769166667,66.0,93.0
133,43.011772816666664,43.576842475,71.0,74.0
134,43.011772816666664,43.60226083333333,67.0,79.0
135,43.011772816666664,43.62572393333333,64.0,82.0
136,43.481034816666664,44.12040429166667,52.0,35.0
137,43.950296816666665,44.54078483333333,71.0,65.0
138,43.950296816666665,44.55838215833333,64.0,69.0
139,43.950296816666665,44.58771103333333,67.0,71.0
140,44.419558816666665,44.976807441666665,52.0,39.0
141,42.54251081666666,45.346351266666666,47.0,49.0
142,42.07324881666666,45.358082816666666,40.0,77.0
143,44.888820816666666,45.365903849999995,67.0,99.0
144,44.888820816666666,45.367859108333334,71.0,96.0
145,45.358082816666666,45.4245616,64.0,83.0
146,45.123451816666666,45.4949509,52.0,72.0
147,45.82734481666667,46.302472591666664,61.0,92.0
148,45.82734481666667,46.43543015833333,64.0,77.0
149,45.82734481666667,46.607492891666666,57.0,88.0
150,46.29660681666667,46.920334225,52.0,51.0
151,46.76586881666667,47.3016096,61.0,85.0
152,46.76586881666667,47.354401575,64.0,69.0
153,47.46976181666666,47.63400351666667,57.0,34.0
154,47.23513081666666,47.829529349999994,52.0,49.0
155,47.70439281666666,48.68788775833333,57.0,88.0
156,45.82734481666667,48.8501742,45.0,85.0
157,47.70439281666666,49.583396074999996,61.0,99.0
158,49.11217881666666,49.595127624999996,57.0,73.0
159,47.70439281666666,49.606859175,64.0,86.0
160,50.050702816666664,50.67247496666666,45.0,72.0
161,50.519964816666665,51.0791687,50.0,70.0
162,49.581440816666664,51.34899435,38.0,72.0
163,50.989226816666665,51.56407276666666,45.0,40.0
164,50.519964816666665,52.222994825,66.0,93.0
165,50.519964816666665,52.316847225,62.0,82.0
166,51.458488816666666,52.75873560833333,38.0,64.0
167,51.927750816666666,52.803706549999994,45.0,45.0
168,52.39701281666667,53.040292808333334,50.0,85.0
169,52.39701281666667,53.364865691666665,62.0,69.0
170,52.39701281666667,53.36682095,66.0,112.0
171,52.86627481666667,53.419612924999996,57.0,62.0
172,53.80479881666666,54.53215491666666,52.0,42.0
173,53.33553681666666,55.120687675,45.0,82.0
174,54.74332281666666,55.136329741666664,52.0,19.0
175,54.74332281666666,55.55866554166666,57.0,74.0
176,54.27406081666666,55.795251799999996,64.0,71.0
177,54.27406081666666,55.82653593333333,61.0,90.0
178,55.68184681666666,56.28993215833333,52.0,58.0
179,56.385739816666664,56.62623659166666,52.0,62.0
180,55.21258481666666,56.70053640833333,45.0,70.0
181,56.620370816666664,57.09745385,61.0,100.0
182,56.151108816666664,57.115051175,64.0,102.0
183,56.855001816666665,57.14242479166666,57.0,78.0
184,58.028156816666666,58.335132375,55.0,79.0
185,57.089632816666665,58.757468175,43.0,78.0
186,57.558894816666665,58.968636075,50.0,45.0
187,58.497418816666666,58.99992020833333,62.0,68.0
188,58.028156816666666,59.007741241666665,67.0,90.0
189,59.43594281666666,60.130059525,52.0,58.0
190,58.96668081666667,60.264972349999994,45.0,76.0
191,59.90520481666666,60.859370883333334,61.0,99.0
192,59.90520481666666,60.873057691666666,64.0,90.0
193,60.37446681666666,60.939536475,57.0,72.0
194,61.31299081666666,61.86241840833333,45.0,63.0
195,61.78225281666666,62.34341195833333,50.0,79.0
196,61.78225281666666,62.58977450833333,62.0,95.0
197,62.25151481666666,62.88306325833333,45.0,61.0
198,62.720776816666664,63.391430424999996,66.0,93.0
199,62.720776816666664,63.54394057499999,62.0,88.0
200,62.720776816666664,63.73360063333333,50.0,69.0
201,60.84372881666666,64.06599455,38.0,82.0
202,63.190038816666664,64.08750239166666,45.0,47.0
203,63.893931816666665,64.51961448333333,50.0,88.0
204,64.12856281666666,64.5939143,57.0,90.0
205,63.659300816666665,64.59782481666666,62.0,102.0
206,63.659300816666665,64.623243175,66.0,122.0
207,65.06708681666666,65.66539586666666,50.0,59.0
208,65.53634881666666,65.98019245833333,55.0,78.0
209,64.59782481666666,66.26370491666667,43.0,93.0
210,66.00561081666666,66.48464910833333,50.0,72.0
211,65.53634881666666,67.25306563333334,71.0,93.0
212,66.24024181666667,67.25697615,62.0,86.0
213,65.53634881666666,67.26088666666666,67.0,96.0
214,67.41339681666666,67.5268018,62.0,63.0
215,66.94413481666666,67.53462283333333,50.0,38.0
216,67.41339681666666,67.92176398333334,55.0,90.0
217,66.47487281666666,67.95304811666666,43.0,88.0
218,67.88265881666666,67.9960638,50.0,62.0
219,68.11728981666667,68.38320494999999,62.0,81.0
220,67.41339681666666,68.38711546666666,67.0,99.0
221,67.41339681666666,68.40666805,71.0,97.0
222,68.82118281666666,69.35301308333332,54.0,78.0
223,68.35192081666666,69.57786779166666,42.0,107.0
224,69.52507581666666,69.714735875,54.0,93.0
225,69.75970681666666,70.19377416666666,57.0,96.0
226,69.29044481666666,70.20941623333333,61.0,127.0
227,69.29044481666666,70.30913440833334,66.0,127.0
228,70.69823081666667,71.39625804166667,54.0,88.0
229,70.22896881666667,71.6093812,47.0,85.0
230,71.16749281666667,72.10992733333333,62.0,100.0
231,71.16749281666667,72.119703625,66.0,107.0
232,71.63675481666667,72.14512198333333,59.0,90.0
233,72.57527881666667,73.21660355,50.0,61.0
234,72.10601681666667,73.42190567499999,43.0,89.0
235,73.04454081666667,73.57832634166667,62.0,100.0
236,73.04454081666667,73.58223685833333,59.0,102.0
237,73.51380281666667,73.68391029166666,55.0,86.0
238,73.98306481666667,74.46014785,62.0,72.0
239,73.98306481666667,74.79840754166666,59.0,81.0
240,73.98306481666667,74.81013909166667,56.0,89.0
241,73.98306481666667,74.82969167499999,52.0,93.0
242,74.92158881666667,74.9646045,62.0,66.0
243,73.98306481666667,75.07018845,44.0,78.0
244,75.39085081666666,75.75257360833334,52.0,76.0
245,74.92158881666667,75.815141875,56.0,107.0
246,74.92158881666667,75.83469445833333,59.0,88.0
247,76.32937481666666,76.9355049,52.0,96.0
248,76.79863681666666,77.25225675,62.0,112.0
249,75.86011281666666,77.61397954166667,45.0,92.0
250,77.26789881666666,77.656995225,64.0,96.0
251,77.03326781666667,77.70392142499999,52.0,97.0
252,77.73716081666666,78.13407825833333,57.0,97.0
253,77.73716081666666,78.13407825833333,61.0,127.0
254,77.73716081666666,78.14385455,64.0,93.0
255,77.73716081666666,78.15363084166667,45.0,93.0
256,78.67568481666666,78.90249478333332,52.0,78.0
257,78.67568481666666,78.96506305,45.0,92.0
258,78.67568481666666,79.070647,64.0,90.0
259,78.67568481666666,79.07260225833333,57.0,97.0
260,78.67568481666666,79.11366268333333,61.0,102.0
261,79.61420881666666,80.11866546666667,57.0,100.0
262,79.61420881666666,80.13626279166667,62.0,100.0
263,79.61420881666666,80.14212856666666,66.0,107.0
264,80.08347081666666,80.61530108333334,50.0,99.0
265,80.31810181666667,80.61725634166666,57.0,117.0
266,79.61420881666666,80.965292325,38.0,81.0
267,79.84883981666667,81.000486975,45.0,83.0
268,80.55273281666666,81.07087627499999,62.0,97.0
269,80.78736381666667,81.23316271666667,50.0,107.0
270,81.02199481666666,81.50103310833333,57.0,100.0
271,81.25662581666666,81.504943625,62.0,100.0
272,80.55273281666666,81.52449620833333,66.0,127.0
273,81.96051881666666,82.42782555833332,57.0,102.0
274,81.72588781666666,82.57055941666667,52.0,77.0
275,82.19514981666666,82.7543537,64.0,92.0
276,81.49125681666666,83.06328451666667,45.0,86.0
277,82.66441181666666,83.32137861666666,52.0,79.0
278,82.89904281666666,83.3409312,69.0,93.0
279,82.42978081666666,83.36634955833333,73.0,127.0
280,83.13367381666666,83.41718627499999,64.0,97.0
281,83.83756681666667,84.31464985,59.0,96.0
282,84.07219781666666,84.62749118333333,62.0,92.0
283,84.54145981666666,84.69788048333334,59.0,92.0
284,83.60293581666666,84.72720935833333,54.0,95.0
285,83.36830481666667,84.77413555833333,47.0,81.0
286,84.77609081666667,85.09284266666667,66.0,122.0
287,84.30682881666667,85.22580023333333,71.0,102.0
288,85.01072181666666,85.25317385,62.0,100.0
289,85.71461481666667,86.033321925,55.0,99.0
290,85.47998381666666,86.31878964166667,50.0,78.0
291,85.94924581666666,86.47129979166667,62.0,99.0
292,86.41850781666666,86.59448106666666,50.0,95.0
293,85.24535281666667,86.63358623333333,43.0,74.0
294,86.65313881666667,87.06374306666666,67.0,99.0
295,86.18387681666667,87.10284823333333,71.0,127.0
296,86.88776981666666,87.15759546666666,62.0,102.0
297,87.59166281666666,88.11176153333334,50.0,88.0
298,87.82629381666666,88.39527399166666,57.0,99.0
299,87.12240081666667,88.42264760833334,38.0,86.0
300,87.35703181666666,88.45197648333333,45.0,53.0
301,88.29555581666666,88.61817344166666,50.0,82.0
302,88.06092481666666,88.92123848333333,66.0,127.0
303,88.53018681666666,88.95252261666666,62.0,99.0
304,88.76481781666666,89.071793375,57.0,107.0
305,89.70334181666666,89.90668868333333,61.0,102.0
306,89.23407981666666,90.0044516,52.0,69.0
307,89.46871081666666,90.04355676666667,57.0,83.0
308,90.17260381666667,90.39354800833333,52.0,82.0
309,88.99944881666666,90.41896636666667,45.0,83.0
310,90.40723481666666,90.86867578333333,61.0,122.0
311,89.93797281666666,90.88822836666667,64.0,99.0
312,90.64186581666667,90.89409414166666,57.0,107.0
313,91.34575881666666,91.90887321666666,55.0,90.0
314,91.58038981666667,91.91669424999999,62.0,89.0
315,92.04965181666667,92.23149084166666,55.0,96.0
316,91.81502081666666,92.36640366666666,67.0,92.0
317,90.87649681666666,92.60494518333333,43.0,88.0
318,92.28428281666666,92.73008171666666,62.0,100.0
319,91.11112781666667,92.75941059166666,50.0,68.0
320,92.51891381666667,92.77114214166666,67.0,102.0
321,91.81502081666666,92.778963175,71.0,100.0
322,93.22280681666666,93.45157204166667,57.0,97.0
323,93.45743781666667,93.694024075,61.0,122.0
324,92.98817581666667,93.82111586666666,52.0,81.0
325,93.92669981666666,94.104628325,52.0,96.0
326,92.75354481666666,94.14959926666666,45.0,82.0
327,94.16133081666666,94.56802454999999,61.0,127.0
328,93.69206881666666,94.6032192,64.0,102.0
329,94.39596181666666,94.6970716,57.0,90.0
330,95.09985481666666,95.66296921666667,50.0,95.0
331,95.33448581666666,95.86631608333333,57.0,96.0
332,94.63059281666666,96.04424459166667,38.0,89.0
333,94.86522381666666,96.07943924166666,45.0,82.0
334,95.80374781666666,96.18502319166666,50.0,93.0
335,95.56911681666666,96.3629517,66.0,127.0
336,96.03837881666666,96.368817475,62.0,102.0
337,96.27300981666666,96.56629856666666,57.0,117.0
338,96.97690281666667,97.25650475833334,57.0,93.0
339,97.21153381666666,97.40119387499999,61.0,122.0
340,96.74227181666666,97.55956979999999,52.0,64.0
341,96.50764081666667,98.222402375,45.0,78.0
342,97.68079581666666,98.28497064166666,52.0,102.0
343,97.44616481666667,98.36122571666667,64.0,102.0
344,97.91542681666667,98.36709149166666,61.0,99.0
345,98.15005781666666,98.37882304166666,57.0,95.0
346,98.85395081666667,99.38773634166667,59.0,92.0
347,99.08858181666666,99.65365147499999,62.0,99.0
348,99.55784381666666,99.73186180833333,59.0,99.0
349,98.61931981666666,99.77683275,54.0,92.0
350,98.38468881666667,99.80420636666666,47.0,74.0
351,99.79247481666667,100.20112380833334,66.0,112.0
352,99.32321281666667,100.27737888333333,71.0,102.0
353,100.02710581666666,100.287155175,62.0,93.0
354,100.73099881666666,101.28629218333333,55.0,97.0
355,101.43489181666666,101.62650713333333,55.0,102.0
356,100.96562981666666,101.636283425,62.0,93.0
357,100.49636781666666,101.68125436666666,50.0,68.0
358,100.26173681666666,101.71644901666666,43.0,77.0
359,101.66952281666666,102.01364828333332,67.0,102.0
360,101.20026081666666,102.06057448333333,71.0,127.0
361,101.90415381666666,102.19353205,62.0,107.0
362,102.60804681666666,103.15942966666667,50.0,92.0
363,102.84267781666667,103.36473179166666,57.0,92.0
364,102.13878481666666,103.42143428333333,38.0,77.0
365,102.37341581666666,103.45076315833333,45.0,77.0
366,103.31193981666667,103.56221288333333,50.0,88.0
367,103.54657081666666,103.95717506666666,62.0,99.0
368,103.07730881666666,103.970861875,66.0,127.0
369,103.78120181666667,104.00019075,57.0,97.0
370,104.48509481666666,104.80575718333333,57.0,100.0
371,104.25046381666667,105.08926964166666,52.0,78.0
372,104.71972581666667,105.25937711666666,64.0,95.0
373,105.18898781666667,105.44512665833332,52.0,86.0
374,104.01583281666666,105.49791863333333,45.0,90.0
375,104.95435681666666,105.83226780833333,73.0,127.0
376,105.42361881666666,105.83422306666667,69.0,92.0
377,105.65824981666667,105.93394124166666,64.0,96.0
378,106.36214281666666,106.89983885833333,55.0,93.0
379,106.59677381666665,107.04648323333333,62.0,89.0
380,107.06603581666666,107.30066681666666,55.0,95.0
381,105.89288081666666,107.58808979166666,43.0,66.0
382,106.12751181666667,107.80121295,50.0,64.0
383,106.83140481666666,107.91852845,71.0,117.0
384,107.30066681666666,107.95763361666666,67.0,99.0
385,107.53529781666666,108.29198279166665,62.0,107.0
386,108.23919081666666,108.75928953333333,55.0,95.0
387,108.94308381666666,109.1503412,55.0,99.0
388,108.47382181666666,109.26765669999999,62.0,93.0
389,107.76992881666666,109.51597450833333,43.0,88.0
390,108.00455981666666,109.59809535833332,50.0,63.0
391,108.70845281666666,109.61764794166666,71.0,127.0
392,109.17771481666666,109.6196032,67.0,96.0
393,109.41234581666666,109.69585827499999,62.0,99.0
394,110.11623881666667,110.36651188333333,57.0,96.0
395,110.35086981666666,110.56790349166666,61.0,117.0
396,109.88160781666666,110.669576925,52.0,77.0
397,110.58550081666667,111.15252573333333,64.0,97.0
398,109.64697681666667,111.38129095833332,45.0,88.0
399,111.28939381666666,111.43994870833333,64.0,86.0
400,111.05476281666667,111.44190396666666,61.0,127.0
401,111.52402481666667,111.98742104166666,57.0,100.0
402,111.52402481666667,112.00110785,61.0,95.0
403,110.82013181666666,112.01479465833333,52.0,93.0
404,111.52402481666667,112.02066043333333,64.0,93.0
405,111.52402481666667,112.04998930833332,45.0,86.0
406,113.40107281666666,114.00524764166666,66.0,102.0
407,113.40107281666666,114.04044229166666,62.0,102.0
408,113.40107281666666,114.20468399166666,57.0,96.0
409,114.10496581666666,114.57422781666666,50.0,53.0
410,114.33959681666666,114.90271121666666,62.0,102.0
411,114.33959681666666,114.91053224999999,57.0,97.0
412,114.33959681666666,114.92617431666666,66.0,107.0
413,115.04348981666666,115.12365540833333,66.0,36.0
414,115.04348981666666,115.17058160833332,62.0,63.0
415,115.04348981666666,115.17253686666666,57.0,58.0
416,114.80885881666666,115.36219692499999,50.0,69.0
417,115.27812081666666,115.61051473333333,57.0,97.0
418,115.27812081666666,115.85296676666667,62.0,127.0
419,115.27812081666666,115.86274305833332,66.0,122.0
420,115.98201381666667,116.11106086666666,66.0,73.0
421,115.74738281666666,116.11497138333333,57.0,61.0
422,115.98201381666667,116.124747675,62.0,75.0
423,115.51275181666666,116.324184025,50.0,96.0
424,116.21664481666666,116.52753089166666,57.0,95.0
425,116.21664481666666,116.54903873333333,66.0,127.0
426,116.21664481666666,116.55294925,62.0,122.0
427,113.40107281666666,116.60183070833332,38.0,92.0
428,113.87033481666666,116.6350701,45.0,48.0
429,116.45127581666667,116.72305672499999,50.0,99.0
430,116.68590681666666,116.83646170833333,57.0,107.0
431,116.68590681666666,116.83646170833333,62.0,127.0
432,116.68590681666666,116.83646170833333,66.0,122.0
433,116.92053781666667,117.10237684166665,57.0,102.0
434,116.92053781666667,117.110197875,62.0,112.0
435,116.92053781666667,117.14343726666667,66.0,117.0
436,117.15516881666666,117.52666789999999,62.0,107.0
437,117.15516881666666,117.52862315833333,66.0,107.0
438,117.15516881666666,117.54622048333333,59.0,93.0
439,117.15516881666666,117.92554059999999,47.0,100.0
440,117.62443081666666,117.94118266666666,59.0,86.0
441,117.62443081666666,117.94118266666666,66.0,93.0
442,117.62443081666666,117.95682473333333,62.0,86.0
443,117.62443081666666,117.96855628333333,54.0,66.0
444,118.09369281666666,118.37916053333333,59.0,100.0
445,118.09369281666666,118.41631044166667,62.0,117.0
446,118.09369281666666,118.41631044166667,66.0,117.0
447,118.09369281666666,118.85233305,47.0,81.0
448,118.09369281666666,118.88166192499999,54.0,102.0
449,118.56295481666666,118.88752769999999,62.0,99.0
450,118.56295481666666,118.88752769999999,66.0,99.0
451,118.56295481666666,118.89534873333332,59.0,88.0
452,119.03221681666666,119.4037159,64.0,83.0
453,119.03221681666666,119.40567115833333,57.0,90.0
454,119.03221681666666,119.41544744999999,61.0,117.0
455,119.50147881666666,119.83778325,57.0,85.0
456,119.50147881666666,119.84364902499999,61.0,102.0
457,119.50147881666666,119.84364902499999,64.0,85.0
458,119.03221681666666,119.855380575,45.0,90.0
459,119.97074081666666,120.30704524999999,57.0,96.0
460,119.97074081666666,120.32073205833333,64.0,97.0
461,119.97074081666666,120.324642575,61.0,127.0
462,119.97074081666666,120.38525558333333,45.0,97.0
463,120.44000281666666,120.52212366666666,61.0,122.0
464,120.44000281666666,120.53972099166666,57.0,95.0
465,120.44000281666666,120.54558676666666,64.0,83.0
466,120.90926481666666,121.04808815833333,59.0,99.0
467,120.90926481666666,121.06177496666666,55.0,107.0
468,120.90926481666666,121.08328280833332,62.0,100.0
469,120.90926481666666,121.59556049166666,43.0,97.0
470,121.84778881666666,121.90058079166666,43.0,45.0
471,121.84778881666666,121.92208863333333,50.0,68.0
472,121.84778881666666,121.92208863333333,67.0,95.0
473,121.84778881666666,121.93773069999999,55.0,88.0
474,121.84778881666666,121.93968595833333,62.0,92.0
475,121.84778881666666,121.93968595833333,71.0,90.0
476,122.31705081666667,123.574281925,71.0,97.0
477,122.31705081666667,123.5801477,62.0,102.0
478,122.31705081666667,123.58796873333333,67.0,102.0
479,122.31705081666667,123.75612095,55.0,100.0
480,122.31705081666667,124.08069383333333,43.0,77.0
481,122.31705081666667,124.10024641666666,50.0,82.0
482,123.72483681666667,124.16672519999999,67.0,127.0
483,123.72483681666667,124.19605407499999,71.0,127.0
484,123.95946781666666,124.24102501666665,55.0,102.0
485,124.19409881666667,124.26253285833333,62.0,107.0
486,125.13262281666665,125.37116433333333,59.0,102.0
487,125.36725381666666,125.55495861666667,62.0,97.0
488,124.66336081666667,125.627303175,47.0,96.0
489,124.89799181666666,125.65467679166666,54.0,99.0
490,125.60188481666665,125.99684699999999,62.0,65.0
491,125.60188481666665,126.00271277499999,66.0,127.0
492,125.83651581666666,126.27058316666665,54.0,100.0
493,125.83651581666666,126.28818049166667,47.0,66.0
494,126.07114681666665,126.45437745,62.0,117.0
495,126.07114681666665,126.48175106666666,66.0,127.0
496,126.30577781666666,126.58537975833333,59.0,99.0
497,126.77503981666666,127.52976953333332,52.0,107.0
498,127.00967081666666,127.55323263333332,57.0,90.0
499,127.71356381666666,127.87780551666665,52.0,112.0
500,126.54040881666666,127.90126861666666,45.0,96.0
501,127.24430181666666,127.98338946666667,61.0,117.0
502,127.94819481666666,128.23561779166667,57.0,107.0
503,127.47893281666666,128.33338070833332,64.0,107.0
504,128.18282581666665,128.372485875,61.0,127.0
505,128.41745681666666,128.57387748333332,59.0,127.0
506,128.88671881666667,129.31687565,55.0,107.0
507,129.12134981666665,129.4693858,62.0,88.0
508,128.65208781666666,129.52804355,50.0,92.0
509,129.35598081666666,129.69424050833334,71.0,107.0
510,129.35598081666666,129.70010628333333,67.0,117.0
511,129.59061181666667,129.83110859166666,55.0,100.0
512,129.82524281666667,129.97775296666666,67.0,127.0
513,128.41745681666666,130.11266579166667,43.0,88.0
514,129.82524281666667,130.12830785833333,71.0,127.0
515,130.05987381666665,130.17523405833333,62.0,102.0
516,130.05987381666665,130.21042870833332,67.0,52.0
517,129.59061181666667,130.27886275,50.0,35.0
518,130.29450481666666,130.683601225,69.0,107.0
519,130.29450481666666,130.89085860833333,64.0,99.0
520,130.76376681666667,131.0414135,57.0,127.0
521,130.99839781666665,131.14504219166665,64.0,88.0
522,130.52913581666667,131.34447854166666,52.0,89.0
523,131.46765981666667,131.60061738333332,52.0,122.0
524,130.29450481666666,131.64949884166666,45.0,96.0
525,131.23302881666666,131.70815659166666,73.0,127.0
526,131.23302881666666,131.73748546666667,69.0,127.0
527,131.70229081666665,131.95256388333334,64.0,122.0
528,131.93692181666665,132.06596886666665,66.0,85.0
529,132.17155281666666,132.72880144166666,57.0,99.0
530,132.17155281666666,132.77181712499998,62.0,100.0
531,132.87544581666666,132.94779037499998,62.0,42.0
532,132.87544581666666,133.06706113333334,57.0,95.0
533,132.64081481666665,133.18046611666665,50.0,107.0
534,132.40618381666667,133.45615754166667,45.0,89.0
535,132.17155281666666,133.45811279999998,38.0,95.0
536,133.34470781666667,133.593025625,50.0,102.0
537,133.11007681666666,133.628220275,66.0,127.0
538,133.57933881666665,133.83547765833333,62.0,99.0
539,133.81396981666666,134.3027844,57.0,93.0
540,134.04860081666666,134.59802840833333,61.0,127.0
541,134.75249381666666,134.91673551666665,61.0,107.0
542,134.51786281666665,134.94801965,57.0,96.0
543,134.28323181666667,135.02622998333334,54.0,99.0
544,134.04860081666666,135.37231070833332,42.0,127.0
545,135.22175581666667,135.39381855,54.0,102.0
546,134.98712481666666,135.434878975,66.0,127.0
547,134.98712481666666,135.47202888333334,61.0,117.0
548,135.45638681666665,135.74772030833333,57.0,117.0
549,135.92564881666667,136.20525075833334,43.0,65.0
550,135.92564881666667,136.21698230833331,55.0,117.0
551,135.92564881666667,136.22284808333333,50.0,83.0
552,135.92564881666667,136.256087475,62.0,95.0
553,135.92564881666667,136.25804273333333,67.0,95.0
554,135.92564881666667,136.26586376666666,71.0,82.0
555,136.39491081666665,136.5083158,43.0,70.0
556,136.39491081666665,136.5083158,50.0,93.0
557,136.39491081666665,136.52982364166667,55.0,96.0
558,136.39491081666665,136.53568941666666,67.0,99.0
559,136.39491081666665,136.54351044999999,62.0,96.0
560,136.39491081666665,136.56892880833334,71.0,90.0
561,137.33343481666665,142.55984034166667,55.0,95.0
562,137.33343481666665,143.048654925,50.0,79.0
563,137.33343481666665,143.06429699166665,62.0,90.0
564,137.33343481666665,143.095581125,43.0,71.0
565,137.33343481666665,143.10340215833332,67.0,96.0
566,137.33343481666665,143.13468629166667,71.0,89.0
567,143.90310281666666,144.52487496666666,45.0,72.0
568,144.37236481666665,144.93156869999999,50.0,70.0
569,143.43384081666667,145.20139435,38.0,72.0
570,144.84162681666666,145.41647276666666,45.0,40.0
571,144.37236481666665,146.075394825,66.0,93.0
572,144.37236481666665,146.169247225,62.0,82.0
573,145.31088881666665,146.6111356083333,38.0,64.0
574,145.78015081666666,146.65610655,45.0,45.0
575,146.24941281666665,146.89269280833332,50.0,85.0
576,146.24941281666665,147.21726569166665,62.0,69.0
577,146.24941281666665,147.21922095,66.0,112.0
578,146.71867481666666,147.27201292499998,57.0,62.0
579,147.65719881666666,148.38455491666667,52.0,42.0
580,147.18793681666665,148.973087675,45.0,82.0
581,148.59572281666667,148.98872974166665,52.0,19.0
582,148.59572281666667,149.41106554166666,57.0,74.0
583,148.12646081666665,149.6476518,64.0,71.0
584,148.12646081666665,149.67893593333332,61.0,90.0
585,149.53424681666667,150.14233215833332,52.0,58.0
586,150.23813981666666,150.47863659166666,52.0,62.0
587,149.06498481666665,150.55293640833332,45.0,70.0
588,150.47277081666667,150.94985384999998,61.0,100.0
589,150.00350881666665,150.96745117499998,64.0,102.0
590,150.70740181666665,150.99482479166667,57.0,78.0
591,151.88055681666665,152.187532375,55.0,79.0
592,150.94203281666665,152.609868175,43.0,78.0
593,151.41129481666667,152.821036075,50.0,45.0
594,152.34981881666667,152.85232020833334,62.0,68.0
595,151.88055681666665,152.86014124166667,67.0,90.0
596,153.28834281666667,153.982459525,52.0,58.0
597,152.81908081666666,154.11737234999998,45.0,76.0
598,153.75760481666666,154.71177088333332,61.0,99.0
599,153.75760481666666,154.72545769166666,64.0,90.0
600,154.22686681666667,154.791936475,57.0,72.0
601,155.16539081666667,155.71481840833331,45.0,63.0
602,155.63465281666666,156.19581195833334,50.0,79.0
603,155.63465281666666,156.44217450833332,62.0,95.0
604,156.10391481666667,156.73546325833334,45.0,61.0
605,156.57317681666666,157.243830425,66.0,93.0
606,156.57317681666666,157.39634057499998,62.0,88.0
607,156.57317681666666,157.58600063333333,50.0,69.0
608,154.69612881666666,157.91839455,38.0,82.0
609,157.04243881666665,157.93990239166666,45.0,47.0
610,157.74633181666667,158.37201448333332,50.0,88.0
611,157.98096281666665,158.44631429999998,57.0,90.0
612,157.51170081666666,158.45022481666666,62.0,102.0
613,157.51170081666666,158.475643175,66.0,122.0
614,158.91948681666665,159.51779586666666,50.0,59.0
615,159.38874881666666,159.83259245833332,55.0,78.0
616,158.45022481666666,160.11610491666667,43.0,93.0
617,159.85801081666665,160.33704910833333,50.0,72.0
618,159.38874881666666,161.10546563333332,71.0,93.0
619,160.09264181666666,161.10937615,62.0,86.0
620,159.38874881666666,161.11328666666665,67.0,96.0
621,161.26579681666666,161.3792018,62.0,63.0
622,160.79653481666665,161.38702283333333,50.0,38.0
623,161.26579681666666,161.77416398333332,55.0,90.0
624,160.32727281666666,161.80544811666667,43.0,88.0
625,161.73505881666665,161.8484638,50.0,62.0
626,161.96968981666666,162.23560494999998,62.0,81.0
627,161.26579681666666,162.23951546666666,67.0,99.0
628,161.26579681666666,162.25906805,71.0,97.0
629,162.67358281666665,163.20541308333333,54.0,78.0
630,162.20432081666667,163.43026779166667,42.0,107.0
631,163.37747581666665,163.567135875,54.0,93.0
632,163.61210681666665,164.04617416666665,57.0,96.0
633,163.14284481666667,164.06181623333333,61.0,127.0
634,163.14284481666667,164.16153440833332,66.0,127.0
635,164.55063081666665,165.24865804166666,54.0,88.0
636,164.08136881666667,165.4617812,47.0,85.0
637,165.01989281666667,165.96232733333332,62.0,100.0
638,165.01989281666667,165.972103625,66.0,107.0
639,165.48915481666666,165.9975219833333,59.0,90.0
640,166.42767881666666,167.06900355,50.0,61.0
641,165.95841681666667,167.274305675,43.0,89.0
642,166.89694081666667,167.43072634166666,62.0,100.0
643,166.89694081666667,167.43463685833333,59.0,102.0
644,167.36620281666666,167.53631029166667,55.0,86.0
645,167.83546481666667,168.31254785,62.0,72.0
646,167.83546481666667,168.65080754166667,59.0,81.0
647,167.83546481666667,168.66253909166664,56.0,89.0
648,167.83546481666667,168.68209167499998,52.0,93.0
649,168.77398881666664,168.8170045,62.0,66.0
650,167.83546481666667,168.92258844999998,44.0,78.0
651,169.24325081666666,169.60497360833332,52.0,76.0
652,168.77398881666664,169.66754187499998,56.0,107.0
653,168.77398881666664,169.68709445833332,59.0,88.0
654,170.18177481666666,170.7879049,52.0,96.0
655,170.65103681666665,171.10465675,62.0,112.0
656,169.71251281666665,171.46637954166667,45.0,92.0
657,171.12029881666666,171.509395225,64.0,96.0
658,170.88566781666665,171.556321425,52.0,97.0
659,171.58956081666665,171.98647825833334,57.0,97.0
660,171.58956081666665,171.98647825833334,61.0,127.0
661,171.58956081666665,171.99625455,64.0,93.0
662,171.58956081666665,172.00603084166667,45.0,93.0
663,172.52808481666665,172.75489478333333,52.0,78.0
664,172.52808481666665,172.81746305,45.0,92.0
665,172.52808481666665,172.923047,64.0,90.0
666,172.52808481666665,172.92500225833334,57.0,97.0
667,172.52808481666665,172.96606268333332,61.0,102.0
668,173.46660881666665,173.97106546666666,57.0,100.0
669,173.46660881666665,173.98866279166666,62.0,100.0
670,173.46660881666665,173.99452856666665,66.0,107.0
671,173.93587081666666,174.46770108333334,50.0,99.0
672,174.17050181666667,174.46965634166665,57.0,117.0
673,173.46660881666665,174.817692325,38.0,81.0
674,173.70123981666666,174.852886975,45.0,83.0
675,174.40513281666665,174.92327627499998,62.0,97.0
676,174.63976381666666,175.08556271666666,50.0,107.0
677,174.87439481666667,175.35343310833332,57.0,100.0
678,175.10902581666664,175.357343625,62.0,100.0
679,174.40513281666665,175.37689620833333,66.0,127.0
680,175.81291881666667,176.2802255583333,57.0,102.0
681,175.57828781666666,176.42295941666666,52.0,77.0
682,176.04754981666665,176.60675369999998,64.0,92.0
683,175.34365681666665,176.91568451666666,45.0,86.0
684,176.51681181666666,177.17377861666665,52.0,79.0
685,176.75144281666667,177.1933312,69.0,93.0
686,176.28218081666665,177.21874955833331,73.0,127.0
687,176.98607381666665,177.269586275,64.0,97.0
688,177.68996681666667,178.16704984999998,59.0,96.0
689,177.92459781666665,178.47989118333334,62.0,92.0
690,178.39385981666666,178.55028048333332,59.0,92.0
691,177.45533581666666,178.57960935833333,54.0,95.0
692,177.22070481666665,178.62653555833333,47.0,81.0
693,178.62849081666667,178.94524266666664,66.0,122.0
694,178.15922881666665,179.07820023333332,71.0,102.0
695,178.86312181666665,179.10557384999998,62.0,100.0
696,179.56701481666667,179.88572192499998,55.0,99.0
697,179.33238381666666,180.17118964166667,50.0,78.0
698,179.80164581666665,180.32369979166666,62.0,99.0
699,180.27090781666666,180.44688106666666,50.0,95.0
700,179.09775281666666,180.48598623333334,43.0,74.0
701,180.50553881666667,180.91614306666665,67.0,99.0
702,180.03627681666666,180.95524823333332,71.0,127.0
703,180.74016981666665,181.00999546666665,62.0,102.0
704,181.44406281666664,181.9641615333333,50.0,88.0
705,181.67869381666665,182.24767399166666,57.0,99.0
706,180.97480081666666,182.27504760833332,38.0,86.0
707,181.20943181666667,182.30437648333333,45.0,53.0
708,182.14795581666667,182.47057344166666,50.0,82.0
709,181.91332481666666,182.77363848333331,66.0,127.0
710,182.38258681666665,182.80492261666666,62.0,99.0
711,182.61721781666665,182.924193375,57.0,107.0
712,183.55574181666665,183.75908868333332,61.0,102.0
713,183.08647981666667,183.8568516,52.0,69.0
714,183.32111081666665,183.89595676666667,57.0,83.0
715,184.02500381666667,184.24594800833333,52.0,82.0
716,182.85184881666666,184.27136636666665,45.0,83.0
717,184.25963481666665,184.72107578333333,61.0,122.0
718,183.79037281666666,184.74062836666667,64.0,99.0
719,184.49426581666665,184.74649414166666,57.0,107.0
720,185.19815881666665,185.76127321666667,55.0,90.0
721,185.43278981666666,185.76909425,62.0,89.0
722,185.90205181666667,186.08389084166666,55.0,96.0
723,185.66742081666666,186.21880366666664,67.0,92.0
724,184.72889681666666,186.45734518333333,43.0,88.0
725,186.13668281666665,186.58248171666665,62.0,100.0
726,184.96352781666667,186.61181059166665,50.0,68.0
727,186.37131381666666,186.62354214166666,67.0,102.0
728,185.66742081666666,186.631363175,71.0,100.0
729,187.07520681666665,187.30397204166667,57.0,97.0
730,187.30983781666666,187.546424075,61.0,122.0
731,186.84057581666667,187.67351586666666,52.0,81.0
732,187.77909981666664,187.95702832499998,52.0,96.0
733,186.60594481666666,188.00199926666664,45.0,82.0
734,188.01373081666665,188.42042454999998,61.0,127.0
735,187.54446881666667,188.4556192,64.0,102.0
736,188.24836181666666,188.5494716,57.0,90.0
737,188.95225481666665,189.51536921666667,50.0,95.0
738,189.18688581666666,189.71871608333333,57.0,96.0
739,188.48299281666667,189.89664459166667,38.0,89.0
740,188.71762381666665,189.93183924166667,45.0,82.0
741,189.65614781666665,190.03742319166665,50.0,93.0
742,189.42151681666667,190.21535169999999,66.0,127.0
743,189.89077881666665,190.221217475,62.0,102.0
744,190.12540981666666,190.41869856666665,57.0,117.0
745,190.82930281666665,191.10890475833332,57.0,93.0
746,191.06393381666666,191.25359387499998,61.0,122.0
747,190.59467181666665,191.41196979999998,52.0,64.0
748,190.36004081666667,192.074802375,45.0,78.0
749,191.53319581666665,192.13737064166665,52.0,102.0
750,191.29856481666667,192.21362571666666,64.0,102.0
751,191.76782681666666,192.21949149166664,61.0,99.0
752,192.00245781666666,192.23122304166665,57.0,95.0
753,192.70635081666666,193.24013634166667,59.0,92.0
754,192.94098181666666,193.506051475,62.0,99.0
755,193.41024381666665,193.58426180833334,59.0,99.0
756,192.47171981666665,193.62923275,54.0,92.0
757,192.23708881666667,193.65660636666667,47.0,74.0
758,193.64487481666666,194.05352380833332,66.0,112.0
759,193.17561281666667,194.12977888333333,71.0,102.0
760,193.87950581666666,194.139555175,62.0,93.0
761,194.58339881666666,195.13869218333332,55.0,97.0
762,195.28729181666665,195.47890713333334,55.0,102.0
763,194.81802981666667,195.48868342499998,62.0,93.0
764,194.34876781666665,195.53365436666667,50.0,68.0
765,194.11413681666664,195.56884901666666,43.0,77.0
766,195.52192281666666,195.86604828333333,67.0,102.0
767,195.05266081666664,195.91297448333333,71.0,127.0
768,195.75655381666667,196.04593205,62.0,107.0
769,196.46044681666666,197.01182966666667,50.0,92.0
770,196.69507781666667,197.21713179166665,57.0,92.0
771,195.99118481666665,197.27383428333331,38.0,77.0
772,196.22581581666665,197.30316315833332,45.0,77.0
773,197.16433981666665,197.41461288333332,50.0,88.0
774,197.39897081666666,197.80957506666667,62.0,99.0
775,196.92970881666665,197.823261875,66.0,127.0
776,197.63360181666667,197.85259075,57.0,97.0
777,198.33749481666666,198.65815718333332,57.0,100.0
778,198.10286381666666,198.94166964166666,52.0,78.0
779,198.57212581666667,199.11177711666664,64.0,95.0
780,199.04138781666666,199.2975266583333,52.0,86.0
781,197.86823281666665,199.35031863333333,45.0,90.0
782,198.80675681666665,199.68466780833333,73.0,127.0
783,199.27601881666666,199.68662306666667,69.0,92.0
784,199.51064981666667,199.78634124166666,64.0,96.0
785,200.21454281666666,200.75223885833333,55.0,93.0
786,200.44917381666664,200.89888323333332,62.0,89.0
787,200.91843581666666,201.15306681666667,55.0,95.0
788,199.74528081666665,201.44048979166666,43.0,66.0
789,199.97991181666666,201.65361295,50.0,64.0
790,200.68380481666665,201.77092844999999,71.0,117.0
791,201.15306681666667,201.81003361666666,67.0,99.0
792,201.38769781666664,202.14438279166666,62.0,107.0
793,202.09159081666667,202.61168953333333,55.0,95.0
794,202.79548381666666,203.0027412,55.0,99.0
795,202.32622181666665,203.1200567,62.0,93.0
796,201.62232881666665,203.36837450833332,43.0,88.0
797,201.85695981666666,203.4504953583333,50.0,63.0
798,202.56085281666665,203.47004794166665,71.0,127.0
799,203.03011481666667,203.4720032,67.0,96.0
800,203.26474581666665,203.548258275,62.0,99.0
801,203.96863881666667,204.21891188333333,57.0,96.0
802,204.20326981666665,204.42030349166666,61.0,117.0
803,203.73400781666666,204.521976925,52.0,77.0
804,204.43790081666666,205.00492573333332,64.0,97.0
805,203.49937681666665,205.2336909583333,45.0,88.0
806,205.14179381666665,205.29234870833332,64.0,86.0
807,204.90716281666667,205.29430396666666,61.0,127.0
808,205.37642481666666,205.83982104166665,57.0,100.0
809,205.37642481666666,205.85350785,61.0,95.0
810,204.67253181666666,205.86719465833332,52.0,93.0
811,205.37642481666666,205.87306043333334,64.0,93.0
812,205.37642481666666,205.9023893083333,45.0,86.0
813,207.25347281666666,207.85764764166666,66.0,102.0
814,207.25347281666666,207.89284229166665,62.0,102.0
815,207.25347281666666,208.05708399166664,57.0,96.0
816,207.95736581666665,208.42662781666667,50.0,53.0
817,208.19199681666666,208.75511121666665,62.0,102.0
818,208.19199681666666,208.76293224999998,57.0,97.0
819,208.19199681666666,208.77857431666666,66.0,107.0
820,208.89588981666665,208.97605540833334,66.0,36.0
821,208.89588981666665,209.0229816083333,62.0,63.0
822,208.89588981666665,209.02493686666665,57.0,58.0
823,207.25347281666666,209.13052081666666,38.0,92.0
824,207.72273481666664,209.13052081666666,45.0,48.0
825,208.66125881666665,209.13052081666666,50.0,69.0
826,209.13052081666666,209.34950974999998,52.0,82.0
827,209.13052081666666,209.35928604166665,57.0,96.0
828,209.13052081666666,209.36319655833333,61.0,127.0
829,209.13052081666666,209.36906233333332,64.0,96.0
830,209.13052081666666,209.378838625,45.0,88.0
831,209.44336214999998,209.601738075,52.0,78.0
832,209.44336214999998,209.60564859166666,57.0,93.0
833,209.44336214999998,209.625201175,45.0,74.0
834,209.44336214999998,209.62911169166665,61.0,102.0
835,209.44336214999998,209.64084324166666,64.0,90.0
836,209.75620348333334,209.883295275,52.0,86.0
837,209.75620348333334,209.90675837499998,45.0,78.0
838,209.75620348333334,209.90871363333332,57.0,95.0
839,209.75620348333334,209.918489925,61.0,107.0
840,209.75620348333334,209.918489925,64.0,86.0
841,210.06904481666666,210.21373393333332,52.0,92.0
842,210.06904481666666,210.23719703333333,57.0,95.0
843,210.06904481666666,210.26457065,45.0,93.0
844,210.06904481666666,210.282167975,61.0,112.0
845,210.06904481666666,210.28803374999998,64.0,93.0
846,210.38188614999999,210.54417259166667,52.0,92.0
847,210.38188614999999,210.5656804333333,57.0,92.0
848,210.38188614999999,210.56763569166665,45.0,96.0
849,210.38188614999999,210.5813225,61.0,102.0
850,210.38188614999999,210.5832777583333,64.0,83.0
851,210.6947274833333,210.98215045833334,61.0,127.0
852,210.6947274833333,210.99974778333333,57.0,102.0
853,210.6947274833333,211.00365829999998,45.0,95.0
854,210.6947274833333,211.00756881666666,52.0,97.0
855,210.6947274833333,211.01930036666667,64.0,97.0
856,211.47683081666665,211.98519798333334,50.0,100.0
857,211.71146181666666,212.1905001083333,57.0,100.0
858,211.24219981666667,212.30390509166665,45.0,95.0
859,211.00756881666666,212.32150241666665,38.0,96.0
860,212.18072381666667,212.49943092499998,50.0,112.0
861,211.94609281666666,212.65389633333334,66.0,127.0
862,212.41535481666665,212.87288526666666,62.0,100.0
863,212.64998581666666,212.89634836666664,57.0,102.0
864,213.35387881666665,213.53571784166667,57.0,107.0
865,213.58850981666666,213.80749874999998,61.0,127.0
866,213.11924781666664,213.91894847499998,52.0,89.0
867,212.88461681666666,214.56222846666665,45.0,93.0
868,214.05777181666664,214.66194664166665,52.0,117.0
869,214.29240281666665,214.687365,61.0,127.0
870,213.82314081666667,214.69518603333333,64.0,112.0
871,214.52703381666666,214.79099369166664,57.0,102.0
872,215.23092681666665,215.47337885,59.0,97.0
873,215.46555781666666,215.7197414,62.0,122.0
874,214.99629581666665,215.79404121666667,54.0,112.0
875,215.93481981666665,216.08732996666666,54.0,99.0
876,214.76166481666667,216.14794297499998,47.0,97.0
877,215.70018881666667,216.488157925,66.0,127.0
878,216.16945081666665,216.55659196666664,62.0,100.0
879,216.40408181666666,216.59960765,59.0,100.0
880,217.10797481666665,217.64762611666666,55.0,100.0
881,217.34260581666666,217.74147851666666,62.0,93.0
882,217.81186781666665,217.972199,55.0,102.0
883,216.87334381666665,218.0152146833333,50.0,79.0
884,216.63871281666667,218.036722525,43.0,89.0
885,218.04649881666666,218.42972945,67.0,112.0
886,217.57723681666667,218.44928203333333,71.0,127.0
887,218.28112981666666,218.54508969166665,62.0,112.0
888,218.98502281666666,219.45624007499998,50.0,107.0
889,219.21965381666666,219.72411046666664,57.0,117.0
890,218.75039181666665,219.78667873333333,45.0,89.0
891,218.51576081666667,219.7984102833333,38.0,81.0
892,219.68891581666665,219.95874146666665,50.0,100.0
893,219.45428481666664,220.17186462499998,66.0,127.0
894,219.92354681666666,220.29700115833333,62.0,102.0
895,220.15817781666667,220.42213769166665,57.0,107.0
896,220.86207081666666,221.11429914166666,57.0,107.0
897,221.09670181666667,221.31569075,61.0,127.0
898,220.62743981666665,221.44278254166665,52.0,66.0
899,221.56596381666665,221.72433974166665,52.0,112.0
900,220.39280881666664,221.76344490833333,45.0,78.0
901,221.80059481666666,222.25421475,61.0,112.0
902,221.33133281666665,222.26985681666665,64.0,100.0
903,222.03522581666667,222.28158836666665,57.0,93.0
904,222.73911881666666,223.2826806333333,55.0,112.0
905,222.97374981666667,223.43128026666665,62.0,99.0
906,223.44301181666665,223.73043479166665,55.0,102.0
907,222.26985681666665,223.94551320833332,43.0,82.0
908,223.67764281666666,224.02567879999998,67.0,107.0
909,223.20838081666665,224.08629180833333,71.0,122.0
910,222.50448781666665,224.11171016666665,50.0,83.0
911,223.91227381666667,224.21533885833333,62.0,100.0
912,224.61616681666666,224.90358979166666,57.0,112.0
913,224.85079781666664,225.15972863333332,64.0,96.0
914,224.38153581666666,225.20469957499998,52.0,102.0
915,225.32005981666666,225.480391,52.0,112.0
916,224.14690481666665,225.54882504166665,45.0,97.0
917,225.08542881666665,225.61139330833333,69.0,90.0
918,225.08542881666665,226.03177384999998,73.0,127.0
919,225.78932181666664,226.0435054,69.0,117.0
920,225.55469081666666,226.10411840833333,64.0,102.0
921,226.49321481666667,227.03091085833333,50.0,100.0
922,226.72784581666664,227.17168945833333,57.0,99.0
923,226.02395281666665,227.33202064166665,38.0,78.0
924,226.25858381666666,227.35548374166666,45.0,82.0
925,227.19710781666666,227.62530939166666,50.0,102.0
926,226.96247681666665,227.83256677499998,66.0,127.0
927,227.43173881666667,227.88535875,62.0,93.0
928,227.66636981666664,227.94206124166666,57.0,112.0
929,228.37026281666667,228.61271485,57.0,100.0
930,228.60489381666665,228.83952481666665,61.0,122.0
931,228.13563181666666,228.95097454166665,52.0,78.0
932,229.07415581666666,229.36744456666665,52.0,127.0
933,227.90100081666665,229.369399825,45.0,90.0
934,229.30878681666667,229.71157003333332,61.0,122.0
935,228.83952481666665,229.7291673583333,64.0,112.0
936,229.54341781666665,229.75849623333332,57.0,107.0
937,230.24731081666667,230.46825500833333,59.0,102.0
938,230.48194181666665,230.75567798333333,62.0,97.0
939,230.01267981666666,230.82020150833333,54.0,96.0
940,230.95120381666666,231.09589293333332,54.0,117.0
941,229.77804881666665,231.10371396666665,47.0,102.0
942,230.71657281666666,231.54364709166666,66.0,127.0
943,231.18583481666664,231.61990216666666,62.0,107.0
944,231.42046581666665,231.6707388833333,59.0,107.0
945,232.12435881666664,232.642502275,55.0,112.0
946,232.35898981666665,232.65423382499998,62.0,99.0
947,232.82825181666666,233.05115126666666,55.0,102.0
948,231.88972781666666,233.13131685833332,50.0,90.0
949,232.59362081666666,233.1371826333333,67.0,100.0
950,231.65509681666666,233.16455624999998,43.0,89.0
951,233.29751381666665,233.50281594166665,67.0,117.0
952,232.59362081666666,233.5047712,71.0,112.0
953,233.06288281666664,233.5829815333333,62.0,127.0
954,234.00140681666664,234.55278966666665,50.0,97.0
955,234.23603781666665,234.81870479999998,57.0,107.0
956,233.53214481666666,234.85389945,38.0,88.0
957,233.76677581666667,234.9027809083333,45.0,78.0
958,234.70529981666667,235.00445434166664,50.0,100.0
959,234.93993081666665,235.30751938333333,62.0,102.0
960,234.47066881666666,235.32511670833333,66.0,127.0
961,235.17456181666665,235.399416525,57.0,112.0
962,235.87845481666665,236.10722004166666,57.0,99.0
963,236.11308581666665,236.30665639166665,61.0,117.0
964,235.64382381666667,236.45721128333332,52.0,78.0
965,236.58234781666667,236.82675510833332,52.0,100.0
966,235.40919281666666,236.8599945,45.0,82.0
967,236.81697881666665,237.18847789999998,61.0,127.0
968,236.34771681666666,237.22562780833331,64.0,112.0
969,237.05160981666666,237.2432251333333,57.0,112.0
970,237.75550281666665,238.26973575833333,55.0,100.0
971,237.99013381666666,238.578666575,62.0,93.0
972,238.69402681666665,239.01859969999998,67.0,102.0
973,237.28624081666666,239.03228650833333,43.0,96.0
974,238.22476481666666,239.03228650833333,71.0,117.0
975,238.45939581666664,239.06943641666666,55.0,96.0
976,238.92865781666666,239.09289951666665,62.0,96.0
977,237.52087181666664,239.17697562499998,50.0,89.0
978,239.16328881666666,240.00404989999998,71.0,100.0
979,239.16328881666666,240.00600515833332,67.0,107.0
980,239.16328881666666,240.01969196666664,62.0,99.0
981,239.16328881666666,240.174157375,55.0,100.0
982,239.16328881666666,240.20348625,43.0,79.0
983,239.86718181666666,240.23672564166665,50.0,42.0
984,240.10181281666667,240.33448855833333,62.0,117.0
985,240.10181281666667,240.65319566666665,67.0,127.0
986,240.33644381666664,240.68839031666664,55.0,122.0
987,240.33644381666664,240.90933450833333,43.0,62.0
988,240.57107481666665,240.94843967499997,62.0,112.0
989,240.10181281666667,241.00514216666664,71.0,112.0
990,240.80570581666666,241.02078423333333,67.0,127.0
991,240.33644381666664,241.02469474999998,50.0,79.0
992,241.50959881666665,241.76769291666665,57.0,107.0
993,241.74422981666666,241.94757668333332,61.0,107.0
994,241.27496781666665,242.02578701666667,52.0,92.0
995,241.97886081666667,242.51264634166665,64.0,99.0
996,241.04033681666667,242.62409606666665,45.0,99.0
997,242.44812281666665,242.82744293333332,61.0,127.0
998,242.21349181666665,242.83721922499998,52.0,102.0
999,242.68275381666666,242.83721922499998,64.0,88.0
1000,242.91738481666667,243.165702625,52.0,107.0
1001,242.91738481666667,243.17547891666666,45.0,96.0
1002,242.91738481666667,243.18525520833333,64.0,127.0
1003,242.91738481666667,243.18916572499998,57.0,117.0
1004,242.91738481666667,243.18916572499998,61.0,127.0
1005,244.79443281666664,245.48072849166667,66.0,75.0
1006,244.79443281666664,245.50810210833333,62.0,83.0
1007,244.79443281666664,245.5843571833333,57.0,82.0
1008,245.49832581666666,245.85809335,50.0,88.0
1009,245.73295681666664,246.27651863333332,66.0,127.0
1010,245.73295681666664,246.30780276666667,62.0,112.0
1011,246.20221881666666,246.74969115,50.0,86.0
1012,246.43684981666667,247.10945868333332,57.0,81.0
1013,246.43684981666667,247.2385057333333,62.0,96.0
1014,246.43684981666667,247.35191071666665,66.0,95.0
1015,247.37537381666667,247.45553940833332,62.0,23.0
1016,247.37537381666667,247.59827326666667,57.0,89.0
1017,246.90611181666665,247.6197811083333,50.0,79.0
1018,247.84463581666665,248.08904310833333,50.0,95.0
1019,247.61000481666665,248.17116395833332,62.0,100.0
1020,247.61000481666665,248.18289550833333,66.0,127.0
1021,244.79443281666664,248.30216626666666,38.0,97.0
1022,248.31389781666667,248.47618425833332,62.0,33.0
1023,248.07926681666666,248.59545501666665,57.0,93.0
1024,245.26369481666666,248.61696285833332,45.0,42.0
1025,249.01779081666666,249.65324977499998,45.0,50.0
1026,249.48705281666665,250.72082082499998,50.0,47.0
1027,249.48705281666665,251.19594859999998,66.0,96.0
1028,250.42557681666665,251.24678531666666,62.0,74.0
1029,250.89483881666666,251.44035589166666,50.0,47.0
1030,248.54852881666665,251.84313910833333,38.0,86.0
1031,249.95631481666666,251.84704962499998,45.0,41.0
1032,251.59873181666666,251.86269169166667,50.0,73.0
1033,251.36410081666665,251.93503625,62.0,99.0
1034,251.83336281666666,252.3006695583333,57.0,102.0
1035,252.06799381666664,252.30262481666665,62.0,66.0
1036,251.36410081666665,252.30262481666665,66.0,107.0
1037,252.30262481666665,252.80512620833332,42.0,97.0
1038,252.30262481666665,252.8109919833333,54.0,90.0
1039,252.30262481666665,252.82467879166666,57.0,97.0
1040,252.30262481666665,252.82663405,66.0,102.0
1041,252.30262481666665,252.82858930833333,61.0,122.0
1042,253.00651781666664,253.35650905833333,42.0,100.0
1043,253.00651781666664,253.37606164166667,66.0,107.0
1044,253.00651781666664,253.37997215833332,61.0,127.0
1045,253.00651781666664,253.38192741666666,54.0,95.0
1046,253.00651781666664,253.47186929999998,57.0,95.0
1047,253.71041081666667,256.93072129166666,55.0,102.0
1048,253.71041081666667,256.94831861666665,59.0,99.0
1049,253.71041081666667,256.9991553333333,62.0,97.0
1050,253.71041081666667,257.0226184333333,50.0,78.0
1051,253.71041081666667,257.079320925,43.0,71.0
1052,258.328731,258.7647536083333,74.0,76.0
1053,258.24465489166664,258.97787676666667,69.0,40.0
1054,258.053039575,258.99547409166667,62.0,59.0
1055,258.1273393916667,259.0111161583333,66.0,49.0
1056,259.15971579166666,259.5038412583333,62.0,66.0
1057,259.34742059166666,259.53903590833335,66.0,44.0
1058,259.53512539166667,259.57423055833334,69.0,54.0
1059,259.72478545,260.059134625,74.0,42.0
1060,259.92617705833334,260.13147918333334,78.0,54.0
1061,260.12170289166664,260.19404744999997,81.0,59.0
1062,258.95050315,261.30658944166663,50.0,77.0
1063,258.69631956666666,261.33005254166665,45.0,56.0
1064,260.56359127499996,261.3320078,90.0,56.0
1065,260.7767144333333,261.337873575,93.0,65.0
1066,260.34069182499996,261.33982883333334,86.0,59.0
1067,260.93704561666664,261.3417840916667,98.0,75.0
1068,258.2563864416667,261.36720245,38.0,61.0
