,start,end,pitch,velocity
0,29.410536639583334,29.689733270833333,74.0,93.0
1,29.848492139583335,30.198856539583335,74.0,91.0
2,30.286447639583333,30.57294352916667,67.0,84.0
3,30.724403139583334,31.532796,67.0,84.0
4,31.600314139583332,31.906882989583334,69.0,84.0
5,32.03826963958333,32.59848771666667,71.0,83.0
6,32.914180639583336,33.19155245625,74.0,89.0
7,33.35213613958334,33.67512832083333,74.0,89.0
8,33.79009163958333,34.10213493333333,67.0,86.0
9,34.22804713958333,34.54921450625,67.0,84.0
10,34.66600263958333,34.78279077291667,69.0,85.0
11,34.88498038958333,35.0254911125,71.0,83.0
12,35.103958139583334,35.23534478958334,69.0,87.0
13,35.322935889583334,35.4743955,67.0,84.0
14,35.541913639583335,36.11125578958333,62.0,88.0
15,36.41782463958334,36.693371641666666,74.0,83.0
16,36.85578013958333,37.175122691666665,74.0,89.0
17,37.29373563958333,37.61125337708334,67.0,84.0
18,37.73169113958333,38.52731029791667,67.0,86.0
19,38.607602139583335,39.005411718750004,69.0,83.0
20,39.045557639583336,39.70249088958333,71.0,84.0
21,39.92146863958333,40.583876333333336,71.0,86.0
22,40.79737963958333,40.92329184583333,69.0,88.0
23,41.016357389583334,41.14226959583333,71.0,84.0
24,41.235335139583334,41.41416696875,72.0,86.0
25,41.454312889583335,41.651392864583336,71.0,82.0
26,41.673290639583335,41.892268389583336,69.0,84.0
27,41.892268389583336,42.04737762916667,72.0,80.0
28,42.111246139583336,42.291902783333335,71.0,83.0
29,42.33022388958334,42.46161053958333,69.0,84.0
30,42.54920163958334,42.96343455,67.0,84.0
31,42.98715713958333,43.3028500625,64.0,88.0
32,43.42511263958333,43.71343334375,67.0,85.0
33,43.86306813958333,44.27365142083333,67.0,85.0
34,44.301023639583335,44.592993972916666,71.0,84.0
35,44.738979139583336,45.04007354583334,72.0,83.0
36,45.17693463958334,45.46890497291667,71.0,86.0
37,45.61489013958334,45.943356764583335,69.0,86.0
38,46.05284563958333,46.182407475,67.0,84.0
39,46.27182338958333,46.4123341125,69.0,86.0
40,46.49080113958333,46.62583741875,71.0,83.0
41,46.928756639583334,47.15503364791667,71.0,83.0
42,47.366712139583335,47.60576285,71.0,83.0
43,47.804667639583336,48.04371835,71.0,85.0
44,48.24262313958334,48.34481275625,69.0,88.0
45,48.46160088958334,48.58386346666667,71.0,86.0
46,48.68057863958333,49.03459266875,69.0,91.0
47,49.11853413958333,49.71524850833333,67.0,83.0
48,49.994445139583334,50.37765620208334,62.0,85.0
49,50.432400639583335,50.72437097291667,67.0,82.0
50,50.870356139583336,51.21342128125,67.0,83.0
51,51.30831163958334,51.647727152083334,71.0,84.0
52,51.74626713958333,52.07290895,72.0,84.0
53,52.18422263958333,52.50721482083333,71.0,84.0
54,52.62217813958333,52.965243281250004,69.0,87.0
55,53.060133639583334,53.23166621041667,67.0,81.0
56,53.279111389583335,53.425096556250004,69.0,86.0
57,53.498089139583335,53.81925650625,71.0,84.0
58,53.936044639583336,54.24443830416667,71.0,83.0
59,54.37400013958334,54.69516750625,71.0,84.0
60,54.81195563958333,55.13494782083333,71.0,84.0
61,55.24991113958333,55.405020379166665,69.0,83.0
62,55.46888888958333,55.6093996125,71.0,83.0
63,55.68786663958333,56.030931781250004,69.0,86.0
64,56.125822139583335,56.744434283333334,67.0,86.0
65,56.782755389583336,57.0218061,66.0,78.0
66,57.00173313958334,57.12217090208333,67.0,83.0
67,57.22071088958334,57.33567420833334,67.0,77.0
68,57.43968863958334,57.54552788541667,67.0,82.0
69,57.65866638958333,57.81925007291667,67.0,83.0
70,57.87764413958333,58.03640300833334,66.0,91.0
71,58.09662188958333,58.34844630208333,67.0,83.0
72,58.53457738958333,58.857569570833334,67.0,82.0
73,58.972532889583334,59.08932102291667,67.0,80.0
74,59.191510639583335,59.31559803125,67.0,83.0
75,59.410488389583335,59.567422443750004,67.0,83.0
76,59.629466139583336,59.797349081250005,66.0,87.0
77,59.848443889583336,60.10756756041667,67.0,82.0
78,60.28639938958334,60.634938975000004,67.0,80.0
79,60.72435488958333,60.857566354166664,67.0,78.0
80,60.94333263958333,61.054646329166665,67.0,78.0
81,61.16231038958333,61.317419629166665,67.0,82.0
82,61.38128813958333,61.54917108125,66.0,83.0
83,61.60026588958333,61.861214375,67.0,83.0
84,62.038221389583335,62.363038385416665,67.0,84.0
85,62.476176889583336,62.5947898375,67.0,80.0
86,62.695154639583336,62.810117958333336,67.0,82.0
87,62.91413238958334,63.05829274166667,67.0,83.0
88,63.13311013958334,63.35208788958334,74.0,88.0
89,63.35208788958334,63.54004379166667,74.0,84.0
90,63.79004338958333,63.923254854166665,74.0,93.0
91,64.22799888958333,64.32106443333333,74.0,84.0
92,64.44697663958334,64.53456773958334,74.0,84.0
93,64.66595438958333,64.76996882083334,74.0,83.0
94,64.88493213958334,65.03639175,74.0,91.0
95,65.10390988958333,65.42325244166666,74.0,86.0
96,65.54186538958334,65.64770463541667,74.0,86.0
97,65.97982088958334,66.08383532083333,74.0,86.0
98,66.19879863958333,66.30281307083334,74.0,86.0
99,66.41777638958334,66.51266674791667,74.0,84.0
100,66.63675413958333,66.83383411458334,74.0,87.0
101,66.85573188958334,66.99076816875,72.0,84.0
102,67.07470963958333,67.25171665416667,72.0,82.0
103,67.29368738958334,69.08383049583334,71.0,86.0
104,70.14039813958334,70.31922996875001,69.0,83.0
105,70.35937588958333,70.49258735416667,67.0,74.0
106,70.57835363958334,70.73346287916667,66.0,84.0
107,70.79733138958333,70.96886396041667,67.0,78.0
108,71.01630913958333,71.3757976125,64.0,89.0
109,71.45426463958333,71.79003052291667,66.0,84.0
110,71.89222013958333,72.23528528125,67.0,84.0
111,72.33017563958333,72.65316782083333,74.0,87.0
112,72.76813113958333,73.13674368541666,72.0,83.0
113,73.20608663958333,73.60389621875,71.0,82.0
114,73.64404213958333,73.97615839375,67.0,83.0
115,74.08199763958334,76.18783366875,67.0,82.0
116,76.27177513958334,76.38673845833334,67.0,87.0
117,76.49075288958333,76.58199361875,67.0,72.0
118,76.70973063958334,76.80827062708333,67.0,81.0
119,76.92870838958333,77.07286874166667,67.0,81.0
120,77.14768613958333,77.47615276458333,71.0,86.0
121,77.58564163958333,77.934181225,67.0,84.0
122,78.02359713958333,78.4049833875,64.0,89.0
123,78.46155263958333,78.88308480833334,66.0,84.0
124,78.89950813958333,79.30644179166667,67.0,84.0
125,79.33746363958333,79.69512729791667,74.0,89.0
126,79.77541913958333,80.2662942625,72.0,82.0
127,80.21337463958334,80.6714031,71.0,83.0
128,80.65133013958334,81.08198638125,67.0,82.0
129,81.08928563958334,83.35935498125001,69.0,83.0
130,85.02677175833334,85.48462005833333,71.0,85.0
131,85.46281775833333,85.913398625,69.0,85.0
132,85.89886375833333,86.37851435833333,72.0,82.0
133,86.33490975833334,86.88905155,71.0,83.0
134,87.20700175833333,87.62124545833333,67.0,84.0
135,87.64304775833334,87.97189911666666,74.0,89.0
136,88.07909375833334,88.42429684166667,78.0,85.0
137,88.51513975833333,88.86397655833333,79.0,86.0
138,88.95118575833334,89.27276968333334,78.0,88.0
139,89.38723175833334,89.7124494,74.0,85.0
140,89.82327775833333,90.46281189166668,67.0,96.0
141,90.69536975833334,91.069642575,67.0,88.0
142,91.13141575833333,91.45299968333333,76.0,83.0
143,91.56746175833334,92.12342040833333,76.0,86.0
144,92.43955375833333,92.78845420833333,76.0,84.0
145,92.87604530833333,93.19903748958333,74.0,88.0
146,93.31400080833333,93.86144518333333,74.0,93.0
147,94.18991180833333,94.52932732083333,74.0,93.0
148,94.62786730833334,94.96180837708333,72.0,84.0
149,95.06582280833334,95.38516536041666,71.0,84.0
150,95.50377830833334,95.87056603958334,69.0,86.0
151,95.94173380833334,96.28114932083334,71.0,86.0
152,96.37968930833334,96.744652225,72.0,86.0
153,96.81764480833334,98.35048905833334,71.0,85.0
154,99.00742230833333,99.35778670833334,71.0,91.0
155,99.44537780833333,99.79756702291667,73.0,86.0
156,99.88333330833333,100.24647141041667,75.0,88.0
157,100.32128880833334,101.04391538333334,71.0,93.0
158,101.19719980833334,101.52749124791667,73.0,89.0
159,101.63515530833334,101.91435193958334,75.0,87.0
160,102.07311080833334,102.41617595,78.0,93.0
161,102.51106630833334,103.06580994166667,81.0,83.0
162,102.94902180833333,103.31763435416667,78.0,82.0
163,103.38697730833334,103.82493280833333,79.0,83.0
164,103.82493280833333,105.1643467125,79.0,84.0
165,105.57675480833333,105.89974698958333,79.0,83.0
166,106.01471030833333,106.32857841666667,79.0,84.0
167,106.45266580833334,106.77565798958334,74.0,89.0
168,106.89062130833334,107.20996386041666,74.0,93.0
169,107.32857680833334,107.6825908375,76.0,89.0
170,107.76653230833334,108.10047337708333,74.0,87.0
171,108.20448780833334,108.569450725,72.0,88.0
172,108.64244330833334,108.99098289375,69.0,84.0
173,109.08039880833334,109.42346395,71.0,83.0
174,109.51835430833333,109.91068944375,72.0,83.0
175,109.95630980833333,110.34134568541667,74.0,84.0
176,110.39426530833333,110.80667340416667,76.0,83.0
177,110.83222080833333,111.25192816250001,67.0,85.0
178,111.27017630833333,112.22455433541667,76.0,89.0
179,112.14608730833334,112.88513721458334,78.0,84.0
180,113.02199830833334,113.48185158333334,71.0,85.0
181,113.45995380833334,113.912507825,69.0,85.0
182,113.89790930833334,114.37966035833334,72.0,82.0
183,114.33586480833333,114.89243325625,71.0,83.0
184,115.21177580833333,115.62783353333333,67.0,84.0
185,115.64973130833334,115.98002274791666,74.0,89.0
186,116.08768680833333,116.43440157916666,78.0,85.0
187,116.52564230833333,116.87600670833334,79.0,86.0
188,116.96359780833333,117.28658998958333,78.0,88.0
189,117.40155330833333,117.72819511875,74.0,85.0
190,117.83950880833333,118.48184354166668,67.0,96.0
191,118.71541980833334,119.0913316125,67.0,88.0
192,119.15337530833334,119.47636748958334,76.0,83.0
193,119.59133080833334,120.14972407083334,76.0,86.0
194,120.46724180833334,120.81760620833333,76.0,84.0
195,120.90519730833333,121.22818948958334,74.0,88.0
196,121.34315280833334,121.89059718333334,74.0,93.0
197,122.21906380833333,122.55847932083333,74.0,93.0
198,122.65701930833333,122.99096037708334,72.0,84.0
199,123.09497480833333,123.41431736041667,71.0,84.0
200,123.53293030833333,123.89971803958333,69.0,86.0
201,123.97088580833334,124.31030132083333,71.0,86.0
202,124.40884130833334,124.773804225,72.0,86.0
203,124.84679680833334,126.37964105833333,71.0,85.0
204,127.03657430833334,127.38693870833333,71.0,91.0
205,127.47452980833333,127.82671902291668,73.0,86.0
206,127.91248530833334,128.27562341041667,75.0,88.0
207,128.35044080833333,129.07306738333335,71.0,93.0
208,129.22635180833333,129.55664324791667,73.0,89.0
209,129.66430730833332,129.94350393958334,75.0,87.0
210,130.10226280833334,130.44532795,78.0,93.0
211,130.54021830833335,131.09496194166667,81.0,83.0
212,130.97817380833334,131.34678635416668,78.0,82.0
213,131.41612930833332,131.85408480833334,79.0,83.0
214,131.85408480833334,133.1934987125,79.0,84.0
215,133.60590680833334,133.92889898958333,79.0,83.0
216,134.04386230833333,134.35773041666667,79.0,84.0
217,134.48181780833335,134.80480998958333,74.0,89.0
218,134.91977330833333,135.23911586041666,74.0,93.0
219,135.35772880833332,135.7117428375,76.0,89.0
220,135.79568430833334,136.12962537708333,74.0,87.0
221,136.23363980833335,136.598602725,72.0,88.0
222,136.67159530833334,137.02013489375,64.0,84.0
223,137.10955080833332,137.45261595,66.0,83.0
224,137.54750630833334,137.93984144375,67.0,83.0
225,137.98546180833333,138.37049768541667,69.0,84.0
226,138.42341730833334,138.83582540416666,71.0,83.0
227,138.86137280833333,139.51830605833334,69.0,85.0
228,139.95626155833332,140.24823189166668,62.0,80.0
229,140.17523930833335,140.583997775,71.0,85.0
230,140.61319480833333,142.88143933541667,67.0,82.0
231,154.82928790833333,155.06764295416667,66.0,78.0
232,155.04762840833334,155.16771568333334,67.0,83.0
233,155.26596890833335,155.38059767083334,67.0,77.0
234,155.48430940833333,155.58984065,67.0,82.0
235,155.70264990833334,155.862766275,67.0,83.0
236,155.92099040833335,156.07928727083333,66.0,91.0
237,156.13933090833333,156.39042248333334,67.0,83.0
238,156.57601190833333,156.89806414583333,67.0,82.0
239,157.01269290833335,157.129141175,67.0,80.0
240,157.23103340833333,157.3547596916667,67.0,83.0
241,157.44937390833334,157.60585126666666,67.0,83.0
242,157.66771440833335,157.83510879166667,66.0,87.0
243,157.88605490833334,158.1444245,67.0,82.0
244,158.32273590833333,158.67026120416668,67.0,80.0
245,158.75941690833335,158.8922407125,67.0,78.0
246,158.97775740833333,159.0887471625,67.0,78.0
247,159.19609790833334,159.3507557625,67.0,82.0
248,159.41443840833335,159.58183279166667,66.0,83.0
249,159.63277890833334,159.89296800416668,67.0,83.0
250,160.06945990833333,160.39333165,67.0,84.0
251,160.50614090833335,160.62440867916666,67.0,80.0
252,160.72448140833333,160.83911017083335,67.0,82.0
253,160.94282190833334,161.0865627375,67.0,83.0
254,161.16116240833335,161.37950290833334,74.0,88.0
255,161.37950290833334,161.56691183750002,74.0,84.0
256,161.81618390833333,161.94900771250002,74.0,93.0
257,162.25286490833335,162.34565962083335,74.0,84.0
258,162.47120540833333,162.55854160833334,74.0,84.0
259,162.68954590833334,162.79325764583334,74.0,83.0
260,162.90788640833335,163.0589052541667,74.0,91.0
261,163.12622690833334,163.44464013750002,74.0,86.0
262,163.56290790833333,163.66843915,74.0,86.0
263,163.99958890833335,164.10330064583334,74.0,86.0
264,164.21792940833333,164.32164114583333,74.0,86.0
265,164.43626990833334,164.530884125,74.0,84.0
266,164.65461040833333,164.85111685833334,74.0,87.0
267,164.87295090833334,165.0075942166667,72.0,84.0
268,165.09129140833335,165.26783659375,72.0,82.0
269,165.30993028333333,167.10531765208333,71.0,86.0
270,168.16498053333333,168.34433625416668,69.0,83.0
271,168.38459978333333,168.51820149374998,67.0,74.0
272,168.60421903333332,168.75978266875,66.0,84.0
273,168.82383828333334,168.9958733625,67.0,78.0
274,169.04345753333334,169.40399913541665,64.0,89.0
275,169.48269603333333,169.81944555,66.0,84.0
276,169.92193453333334,170.26600469166667,67.0,84.0
277,170.36117303333333,170.68511142708334,74.0,87.0
278,170.80041153333332,171.1701039375,72.0,83.0
279,171.23965003333333,171.63862500416667,71.0,82.0
280,171.67888853333332,172.01197772916666,67.0,83.0
281,172.11812703333334,174.23013215416665,67.0,82.0
282,174.75355803333332,175.08298690833334,74.0,86.0
283,175.19279653333334,175.54235717291667,71.0,84.0
284,175.63203503333332,175.98159567291665,69.0,84.0
285,176.07127353333334,176.45377706041666,64.0,89.0
286,176.51051203333333,176.93327908958332,66.0,84.0
287,176.94975053333334,177.35787630625,67.0,84.0
288,177.38898903333333,177.747700475,74.0,89.0
289,177.82822753333332,178.32054068541666,72.0,82.0
290,178.26746603333333,178.72683629791666,71.0,83.0
291,178.70670453333332,179.13862239166667,67.0,82.0
292,179.14594303333334,181.4196849625,69.0,83.0
293,183.08980354583335,183.54898692083336,71.0,85.0
294,183.52712104583335,183.97901579583336,69.0,85.0
295,183.96443854583336,184.44548779583334,72.0,82.0
296,184.40175604583334,184.95751370208336,71.0,83.0
297,185.27639104583335,185.69184267083335,67.0,84.0
298,185.71370854583336,186.04351882708335,74.0,89.0
299,186.15102604583336,186.49723573333335,78.0,85.0
300,186.58834354583334,186.93819754583336,79.0,86.0
301,187.02566104583335,187.34818270208336,78.0,88.0
302,187.46297854583335,187.78914451458334,74.0,85.0
303,187.90029604583336,188.54169504583336,67.0,96.0
304,188.77493104583334,189.15029523333334,67.0,88.0
305,189.21224854583335,189.53477020208334,76.0,83.0
306,189.64956604583335,190.20714585833335,76.0,86.0
307,190.52420104583337,190.87405504583336,76.0,84.0
308,190.96151854583334,191.28404020208336,74.0,88.0
309,191.39883604583335,191.94548292083334,74.0,93.0
310,192.27347104583336,192.61239210833335,74.0,93.0
311,192.71078854583334,193.04424313958336,72.0,84.0
312,193.14810604583334,193.46698338958336,71.0,84.0
313,193.58542354583335,193.95167695208335,69.0,86.0
314,194.02274104583336,194.36166210833335,71.0,86.0
315,194.46005854583336,194.82448979583336,72.0,86.0
316,194.89737604583334,196.42798729583336,71.0,85.0
317,197.08396354583334,197.43381754583336,71.0,91.0
318,197.52128104583335,197.87295720208334,73.0,86.0
319,197.95859854583335,198.32120763958335,75.0,88.0
320,198.39591604583336,199.11748992083335,71.0,93.0
321,199.27055104583334,199.60036132708336,73.0,89.0
322,199.70786854583335,199.98665845208336,75.0,87.0
323,200.14518604583336,200.48775142083335,78.0,93.0
324,200.58250354583336,201.13643904583336,81.0,83.0
325,201.01982104583334,201.38789660833334,78.0,82.0
326,201.45713854583335,201.89445604583335,79.0,83.0
327,201.89445604583335,203.23191873333334,79.0,84.0
328,203.64372604583335,203.96624770208336,79.0,83.0
329,204.08104354583335,204.39445442083334,79.0,84.0
330,204.51836104583336,204.84088270208335,74.0,89.0
331,204.95567854583334,205.27455588958335,74.0,93.0
332,205.39299604583334,205.74649435833334,76.0,89.0
333,205.83031354583335,206.16376813958334,74.0,87.0
334,206.26763104583335,206.63206229583335,72.0,88.0
335,206.70494854583336,207.05298038958335,69.0,84.0
336,207.14226604583337,207.48483142083336,71.0,83.0
337,207.57958354583334,207.97134713958334,72.0,83.0
338,208.01690104583335,208.40137601458335,74.0,84.0
339,208.45421854583336,208.86602585833336,76.0,83.0
340,208.89153604583336,209.31063198333334,67.0,85.0
341,209.32885354583334,210.28184126458336,76.0,89.0
342,210.20348854583335,210.94146182708334,78.0,84.0
343,211.07812354583336,211.53730692083334,71.0,85.0
344,211.51544104583334,211.96733579583335,69.0,85.0
345,211.95275854583335,212.43380779583336,72.0,82.0
346,212.39007604583335,212.94583370208335,71.0,83.0
347,213.26471104583334,213.68016267083334,67.0,84.0
348,213.70202854583334,214.03183882708336,74.0,89.0
349,214.13934604583335,214.48555573333334,78.0,85.0
350,214.57666354583336,214.92651754583335,79.0,86.0
351,215.01398104583336,215.33650270208335,78.0,88.0
352,215.45129854583337,215.77746451458336,74.0,85.0
353,215.88861604583334,216.53001504583335,67.0,96.0
354,216.76325104583336,217.13861523333335,67.0,88.0
355,217.20056854583333,217.52309020208335,76.0,83.0
356,217.63788604583334,218.19546585833336,76.0,86.0
357,218.51252104583335,218.86237504583335,76.0,84.0
358,218.94983854583336,219.27236020208335,74.0,88.0
359,219.38715604583336,219.93380292083336,74.0,93.0
360,220.26179104583335,220.60071210833337,74.0,93.0
361,220.69910854583335,221.03256313958335,72.0,84.0
362,221.13642604583336,221.45530338958335,71.0,84.0
363,221.57374354583334,221.93999695208333,69.0,86.0
364,222.01106104583334,222.34998210833334,71.0,86.0
365,222.44837854583335,222.81280979583335,72.0,86.0
366,222.88569604583336,224.41630729583335,71.0,85.0
367,225.07228354583336,225.42213754583335,71.0,91.0
368,225.50960104583334,225.86127720208336,73.0,86.0
369,225.94691854583334,226.30952763958334,75.0,88.0
370,226.38423604583335,227.10580992083334,71.0,93.0
371,227.25887104583336,227.58868132708335,73.0,89.0
372,227.69618854583337,227.97497845208335,75.0,87.0
373,228.13350604583334,228.47607142083336,78.0,93.0
374,228.57082354583335,229.12475904583334,81.0,83.0
375,229.00814104583336,229.37621660833335,78.0,82.0
376,229.44545854583336,229.88277604583334,79.0,83.0
377,229.88277604583334,231.22023873333336,79.0,84.0
378,231.63204604583336,231.95456770208335,79.0,83.0
379,232.06936354583334,232.38277442083336,79.0,84.0
380,232.5067076916667,232.83017261041667,74.0,89.0
381,232.94530419166668,233.26511413958335,74.0,93.0
382,233.38390069166667,233.73843286250002,76.0,89.0
383,233.82249719166668,234.15692702291668,74.0,87.0
384,234.26109369166667,234.626590775,72.0,88.0
385,234.6996901916667,235.04873990625,64.0,84.0
386,235.13828669166668,235.48185395000002,66.0,83.0
387,235.57688319166667,235.96979255625,67.0,83.0
388,236.01547969166668,236.40107911458335,69.0,84.0
389,236.45407619166667,236.86708789583335,71.0,83.0
390,236.8926726916667,237.5505674416667,69.0,85.0
391,237.98916394166667,238.28156160833333,62.0,80.0
392,238.20846219166668,238.61781892500002,71.0,85.0
393,238.64705869166667,240.91862306458336,67.0,82.0
