,start,end,pitch,velocity
0,0.9434291395833333,2.4507259854166668,67.0,72.0
1,0.9434291395833333,2.461674872916667,64.0,76.0
2,2.695251139583333,3.9744461625,60.0,71.0
3,2.695251139583333,4.277365383333334,64.0,72.0
4,4.447073139583334,5.759114825,62.0,73.0
5,4.447073139583334,5.779187785416667,67.0,70.0
6,6.198895139583334,6.854003575,67.0,67.0
7,6.198895139583334,6.943419489583333,55.0,67.0
8,6.198895139583334,6.9707917083333335,71.0,68.0
9,7.074806139583333,7.760936422916667,66.0,67.0
10,7.074806139583333,7.864950854166667,69.0,74.0
11,7.950717139583333,9.490860647916668,52.0,76.0
12,7.950717139583333,9.571152489583334,67.0,71.0
13,7.950717139583333,9.70618876875,64.0,68.0
14,9.702539139583333,10.967135645833334,60.0,66.0
15,9.702539139583333,11.145967475,67.0,65.0
16,9.702539139583333,11.264580422916668,48.0,68.0
17,11.454361139583334,12.76092838125,62.0,59.0
18,11.454361139583334,12.790125414583333,67.0,64.0
19,11.454361139583334,12.819322447916667,55.0,67.0
20,13.206183139583334,13.912386383333333,67.0,70.0
21,13.206183139583334,13.914211197916666,71.0,66.0
22,13.206183139583334,13.94340823125,62.0,65.0
23,13.206183139583334,13.983554152083334,55.0,70.0
24,14.082094139583333,14.863114781250001,54.0,73.0
25,14.082094139583333,14.863114781250001,66.0,66.0
26,14.082094139583333,14.868589225000001,69.0,74.0
27,15.395960639583334,16.060193147916667,52.0,78.0
28,15.176982889583334,16.270046825,47.0,64.0
29,14.958005139583333,16.401433475,40.0,83.0
30,15.614938389583333,16.68610455,59.0,76.0
31,16.052893889583334,16.841213789583335,64.0,82.0
32,17.147782639583333,17.32478965416667,55.0,75.0
33,17.366760389583334,17.596687027083334,55.0,55.0
34,17.366760389583334,17.700701458333334,60.0,66.0
35,18.023693639583335,18.08208770625,55.0,66.0
36,16.709827139583332,18.32296323125,48.0,87.0
37,16.928804889583333,18.359459522916666,52.0,72.0
38,18.242671389583332,18.485371729166665,55.0,72.0
39,18.023693639583335,18.527342464583334,64.0,82.0
40,18.023693639583335,18.534641722916668,60.0,76.0
41,18.899604639583334,19.0182175875,55.0,74.0
42,18.680626889583333,19.63682973125,50.0,73.0
43,19.118582389583334,19.835734520833334,59.0,83.0
44,19.118582389583334,20.02004079375,62.0,83.0
45,18.461649139583333,20.043763383333335,43.0,81.0
46,19.775515639583332,20.089383747916667,50.0,75.0
47,19.994493389583333,20.478069254166666,55.0,82.0
48,20.213471139583334,20.821134395833333,59.0,82.0
49,20.213471139583334,20.921499197916667,43.0,82.0
50,20.213471139583334,20.956170675,62.0,79.0
51,20.870404389583335,21.00544066875,55.0,74.0
52,20.651426639583335,21.0547106625,50.0,59.0
53,21.089382139583332,21.3831772875,54.0,71.0
54,21.089382139583332,21.605804666666668,57.0,73.0
55,21.089382139583332,21.6678483625,42.0,76.0
56,21.308359889583333,21.68427169375,50.0,74.0
57,21.527337639583333,21.833906489583335,54.0,69.0
58,21.746315389583334,22.140475339583332,57.0,72.0
59,22.403248639583335,22.726240820833333,52.0,61.0
60,22.184270889583335,23.215291129166665,47.0,68.0
61,22.622226389583332,23.355801852083335,55.0,78.0
62,21.965293139583334,23.468940356250002,40.0,85.0
63,23.279159639583334,23.492662945833334,47.0,72.0
64,22.622226389583332,23.78645809375,64.0,74.0
65,23.498137389583334,23.79740698125,52.0,72.0
66,23.936092889583335,24.762733895833335,43.0,70.0
67,24.155070639583332,24.950689797916667,48.0,77.0
68,23.717115139583335,25.06747793125,36.0,77.0
69,25.030981639583334,25.228061614583332,43.0,70.0
70,24.374048389583333,25.405068629166667,52.0,82.0
71,24.374048389583333,25.419667145833333,55.0,81.0
72,25.249959389583335,25.443389735416666,48.0,77.0
73,24.374048389583333,25.605798233333335,64.0,80.0
74,25.687914889583332,26.461636272916667,50.0,71.0
75,25.906892639583333,26.762730679166665,55.0,74.0
76,26.125870389583334,26.872219554166666,59.0,83.0
77,26.125870389583334,26.947036952083334,62.0,83.0
78,25.468937139583335,27.02002953541667,43.0,83.0
79,26.782803639583335,27.074773972916667,50.0,70.0
80,27.001781389583332,27.538276877083334,55.0,77.0
81,27.220759139583333,27.7663787,59.0,77.0
82,27.220759139583333,27.797400547916666,43.0,83.0
83,27.658714639583334,27.877692389583334,55.0,76.0
84,27.439736889583333,28.08207162291667,50.0,73.0
85,28.096670139583335,28.399589360416666,54.0,71.0
86,28.096670139583335,28.600318964583334,57.0,71.0
87,28.534625639583332,28.926960775,54.0,72.0
88,28.096670139583335,28.93243521875,42.0,78.0
89,28.315647889583335,28.939734477083334,50.0,75.0
90,28.753603389583333,28.950683364583334,57.0,73.0
91,28.972581139583333,29.26455147291667,52.0,77.0
92,28.972581139583333,29.311996652083334,55.0,77.0
93,28.972581139583333,30.124039141666668,40.0,82.0
94,29.848492139583335,30.2298783875,59.0,82.0
95,29.848492139583335,30.244476904166667,64.0,88.0
96,30.505425389583333,30.861264233333333,60.0,69.0
97,30.505425389583333,30.94703051875,64.0,84.0
98,31.162358639583335,31.487175635416666,60.0,82.0
99,30.943380889583334,31.578416364583333,55.0,67.0
100,30.724403139583334,31.644109689583335,48.0,84.0
101,31.600314139583332,31.7627226375,60.0,82.0
102,31.600314139583332,31.832065591666666,64.0,84.0
103,31.600314139583332,31.895934102083334,67.0,82.0
104,32.476225139583335,32.936078414583335,59.0,75.0
105,32.476225139583335,33.01637025625,55.0,75.0
106,32.914180639583336,33.5145446375,50.0,54.0
107,33.35213613958334,33.5473913,55.0,81.0
108,33.35213613958334,33.565639445833334,59.0,84.0
109,33.35213613958334,33.59666129375,62.0,83.0
110,32.476225139583335,34.034616793750004,43.0,81.0
111,34.00906938958333,34.39593008125,55.0,83.0
112,34.00906938958333,34.42512711458333,59.0,86.0
113,34.00906938958333,34.42695192916667,62.0,84.0
114,34.66600263958333,34.91052779375,55.0,84.0
115,34.22804713958333,34.94337445625,43.0,79.0
116,34.44702488958333,34.97439630416667,50.0,70.0
117,35.103958139583334,35.95249692083333,50.0,75.0
118,35.103958139583334,35.979869139583336,42.0,81.0
119,35.541913639583335,35.979869139583336,54.0,72.0
120,35.103958139583334,35.979869139583336,62.0,74.0
121,35.979869139583336,36.27183947291667,52.0,77.0
122,35.979869139583336,36.63680238958334,64.0,77.0
123,35.979869139583336,37.13132714166667,40.0,82.0
124,36.85578013958333,37.237166387500004,59.0,82.0
125,36.85578013958333,37.25176490416667,64.0,88.0
126,37.51271338958333,37.86855223333333,60.0,69.0
127,37.51271338958333,37.95431851875,64.0,84.0
128,38.169646639583334,38.494463635416665,60.0,82.0
129,37.95066888958333,38.585704364583336,55.0,67.0
130,37.73169113958333,38.651397689583334,48.0,84.0
131,38.607602139583335,38.7700106375,60.0,82.0
132,38.607602139583335,38.839353591666665,64.0,84.0
133,38.607602139583335,38.90322210208333,67.0,82.0
134,39.48351313958334,39.94336641458334,59.0,75.0
135,39.48351313958334,40.02365825625,55.0,75.0
136,39.92146863958333,40.5218326375,50.0,54.0
137,40.35942413958333,40.554679300000004,55.0,81.0
138,40.35942413958333,40.572927445833336,59.0,84.0
139,40.35942413958333,40.60394929375,62.0,83.0
140,39.48351313958334,41.04190479375,43.0,81.0
141,41.016357389583334,41.40321808125,55.0,83.0
142,41.016357389583334,41.432415114583335,59.0,86.0
143,41.016357389583334,41.434239929166665,62.0,84.0
144,41.673290639583335,41.91781579375,55.0,84.0
145,41.235335139583334,41.95066245625,43.0,79.0
146,41.454312889583335,41.98168430416667,50.0,70.0
147,42.111246139583336,42.33022388958334,54.0,74.0
148,42.111246139583336,42.54920163958334,50.0,75.0
149,42.111246139583336,42.98715713958333,42.0,81.0
150,42.33022388958334,42.98715713958333,57.0,71.0
151,42.54920163958334,42.98715713958333,62.0,72.0
152,42.98715713958333,43.27912747291667,52.0,77.0
153,42.98715713958333,43.326572652083335,55.0,77.0
154,42.98715713958333,44.13861514166667,40.0,82.0
155,43.86306813958333,44.2444543875,59.0,82.0
156,43.86306813958333,44.259052904166666,64.0,88.0
157,44.520001389583335,44.875840233333335,60.0,69.0
158,44.520001389583335,44.96160651875,64.0,84.0
159,45.17693463958334,45.50175163541667,60.0,82.0
160,44.957956889583336,45.59299236458333,55.0,67.0
161,44.738979139583336,45.658685689583336,48.0,84.0
162,45.61489013958334,45.7772986375,60.0,82.0
163,45.61489013958334,45.84664159166667,64.0,84.0
164,45.61489013958334,45.910510102083336,67.0,82.0
165,46.49080113958333,46.95065441458333,59.0,75.0
166,46.49080113958333,47.03094625625,55.0,75.0
167,46.928756639583334,47.5291206375,50.0,54.0
168,47.366712139583335,47.5619673,55.0,81.0
169,47.366712139583335,47.58021544583333,59.0,84.0
170,47.366712139583335,47.61123729375,62.0,83.0
171,46.49080113958333,48.04919279375,43.0,81.0
172,48.023645389583336,48.41050608125,55.0,83.0
173,48.023645389583336,48.43970311458333,59.0,86.0
174,48.023645389583336,48.44152792916667,62.0,84.0
175,48.68057863958333,48.925103793750004,55.0,84.0
176,48.24262313958334,48.95795045625,43.0,79.0
177,48.46160088958334,48.988972304166666,50.0,70.0
178,49.11853413958333,49.96707292083333,50.0,75.0
179,49.11853413958333,49.994445139583334,42.0,81.0
180,49.55648963958333,49.994445139583334,54.0,72.0
181,49.11853413958333,49.994445139583334,57.0,74.0
182,49.994445139583334,50.286415472916666,52.0,77.0
183,49.994445139583334,50.651378389583336,64.0,77.0
184,49.994445139583334,51.145903141666665,40.0,82.0
185,50.870356139583336,51.2517423875,59.0,82.0
186,50.870356139583336,51.26634090416667,64.0,88.0
187,51.52728938958334,51.88312823333334,60.0,69.0
188,51.52728938958334,51.96889451875,64.0,84.0
189,52.18422263958333,52.50903963541667,60.0,82.0
190,51.96524488958333,52.600280364583334,55.0,67.0
191,51.74626713958333,52.66597368958333,48.0,84.0
192,52.62217813958333,52.7845866375,60.0,82.0
193,52.62217813958333,52.85392959166667,64.0,84.0
194,52.62217813958333,52.91779810208333,67.0,82.0
195,53.498089139583335,53.957942414583336,59.0,75.0
196,53.498089139583335,54.03823425625,55.0,75.0
197,53.936044639583336,54.5364086375,50.0,54.0
198,54.37400013958334,54.5692553,55.0,81.0
199,54.37400013958334,54.587503445833335,59.0,84.0
200,54.37400013958334,54.618525293750004,62.0,83.0
201,53.498089139583335,55.05648079375,43.0,81.0
202,55.03093338958333,55.41779408125,55.0,83.0
203,55.03093338958333,55.446991114583334,59.0,86.0
204,55.03093338958333,55.44881592916667,62.0,84.0
205,55.68786663958333,55.93239179375,55.0,84.0
206,55.24991113958333,55.96523845625,43.0,79.0
207,55.46888888958333,55.99626030416667,50.0,70.0
208,56.125822139583335,56.344799889583335,54.0,74.0
209,56.125822139583335,56.563777639583336,50.0,75.0
210,56.125822139583335,57.00173313958334,42.0,81.0
211,56.344799889583335,57.00173313958334,57.0,71.0
212,56.563777639583336,57.00173313958334,62.0,72.0
213,57.00173313958334,57.4926082625,64.0,83.0
214,57.00173313958334,57.5145060375,67.0,82.0
215,57.43968863958334,57.72983415833333,59.0,83.0
216,57.65866638958333,58.05647596875,67.0,84.0
217,57.65866638958333,58.071074485416666,64.0,84.0
218,57.22071088958334,58.22253409583333,47.0,72.0
219,57.00173313958334,58.25355594375,40.0,78.0
220,58.31559963958333,58.607569972916664,64.0,83.0
221,58.31559963958333,58.64589107916667,67.0,78.0
222,58.53457738958333,58.76632884166667,59.0,83.0
223,58.753555139583334,59.14224064583333,64.0,82.0
224,58.753555139583334,59.15136471875,67.0,83.0
225,59.191510639583335,59.31194840208333,60.0,82.0
226,59.410488389583335,59.452459125000004,64.0,83.0
227,58.972532889583334,59.569247258333334,55.0,70.0
228,59.410488389583335,59.88494018125,60.0,84.0
229,59.410488389583335,59.89588906875,67.0,83.0
230,59.629466139583336,60.050998308333334,55.0,53.0
231,58.753555139583334,60.12581570625,48.0,84.0
232,60.06742163958334,60.375815304166665,64.0,86.0
233,60.06742163958334,60.37764011875,67.0,82.0
234,60.28639938958334,60.49807788125,60.0,78.0
235,60.50537713958334,61.012675593750004,67.0,82.0
236,60.94333263958333,61.06924484583333,59.0,80.0
237,61.16231038958333,61.4561055375,62.0,86.0
238,61.16231038958333,61.45975516666667,59.0,82.0
239,61.16231038958333,61.58201774375,67.0,83.0
240,60.72435488958333,62.100265085416666,50.0,73.0
241,61.819243639583334,62.12763730416667,62.0,83.0
242,61.819243639583334,62.12763730416667,67.0,82.0
243,60.50537713958334,62.13676137708333,43.0,83.0
244,62.038221389583335,62.17143285416667,59.0,81.0
245,62.257199139583335,62.738950189583335,62.0,84.0
246,62.257199139583335,62.76449759375,67.0,82.0
247,62.257199139583335,62.80829314375,43.0,83.0
248,62.695154639583336,62.84843906458333,59.0,84.0
249,62.476176889583336,63.096613847916664,50.0,71.0
250,63.13311013958334,63.31924122708333,62.0,83.0
251,63.13311013958334,63.521795645833336,66.0,80.0
252,63.13311013958334,63.61486118958334,42.0,77.0
253,63.35208788958334,63.73894858125,50.0,69.0
254,63.57106563958333,63.83383893958334,62.0,83.0
255,63.79004338958333,63.9305541125,66.0,88.0
256,64.00902113958334,64.4998962625,64.0,83.0
257,64.00902113958334,64.5217940375,67.0,82.0
258,64.44697663958334,64.73712215833334,59.0,83.0
259,64.66595438958333,65.06376396875,67.0,84.0
260,64.66595438958333,65.07836248541666,64.0,84.0
261,64.22799888958333,65.22982209583333,47.0,72.0
262,64.00902113958334,65.26084394375,40.0,78.0
263,65.32288763958333,65.61485797291667,64.0,83.0
264,65.32288763958333,65.65317907916666,67.0,78.0
265,65.54186538958334,65.77361684166667,59.0,83.0
266,65.76084313958333,66.14952864583333,64.0,82.0
267,65.76084313958333,66.15865271875,67.0,83.0
268,66.19879863958333,66.31923640208333,60.0,82.0
269,66.41777638958334,66.459747125,64.0,83.0
270,65.97982088958334,66.57653525833334,55.0,70.0
271,66.41777638958334,66.89222818125,60.0,84.0
272,66.41777638958334,66.90317706875,67.0,83.0
273,66.63675413958333,67.05828630833334,55.0,53.0
274,65.76084313958333,67.13310370625,48.0,84.0
275,67.07470963958333,67.38310330416667,64.0,86.0
276,67.07470963958333,67.38492811875,67.0,82.0
277,67.29368738958334,67.50536588125,60.0,78.0
278,67.51266513958333,68.01996359375,67.0,82.0
279,67.95062063958333,68.07653284583334,59.0,80.0
280,68.16959838958333,68.4633935375,62.0,86.0
281,68.16959838958333,68.46704316666667,59.0,82.0
282,68.16959838958333,68.58930574375,67.0,83.0
283,67.73164288958334,69.10755308541667,50.0,73.0
284,68.82653163958334,69.13492530416667,62.0,83.0
285,68.82653163958334,69.13492530416667,67.0,82.0
286,67.51266513958333,69.14404937708333,43.0,83.0
287,69.04550938958333,69.17872085416667,59.0,81.0
288,69.26448713958334,69.74623818958334,62.0,84.0
289,69.26448713958334,69.77178559375,67.0,82.0
290,69.26448713958334,69.81558114375,43.0,83.0
291,69.70244263958334,69.85572706458333,59.0,84.0
292,69.48346488958333,70.10390184791667,50.0,71.0
293,70.14039813958334,70.32652922708334,62.0,83.0
294,70.14039813958334,70.52908364583334,66.0,80.0
295,70.14039813958334,70.62214918958334,42.0,77.0
296,70.35937588958333,70.74623658125,50.0,69.0
297,70.57835363958334,70.84112693958333,62.0,83.0
298,70.79733138958333,70.93784211250001,66.0,88.0
299,71.01630913958333,71.5071842625,64.0,83.0
300,71.01630913958333,71.5290820375,67.0,82.0
301,71.45426463958333,71.74441015833334,59.0,83.0
302,71.67324238958334,72.07105196875,67.0,84.0
303,71.67324238958334,72.08565048541666,64.0,84.0
304,71.23528688958334,72.23711009583333,47.0,72.0
305,71.01630913958333,72.26813194375,40.0,78.0
306,72.33017563958333,72.62214597291667,64.0,83.0
307,72.33017563958333,72.66046707916666,67.0,78.0
308,72.54915338958334,72.78090484166667,59.0,83.0
309,72.76813113958333,73.15681664583333,64.0,82.0
310,72.76813113958333,73.16594071875001,67.0,83.0
311,73.20608663958333,73.32652440208334,60.0,82.0
312,73.42506438958334,73.467035125,64.0,83.0
313,72.98710888958334,73.58382325833334,55.0,70.0
314,73.42506438958334,73.89951618125001,60.0,84.0
315,73.42506438958334,73.91046506875,67.0,83.0
316,73.64404213958333,74.06557430833334,55.0,53.0
317,72.76813113958333,74.14039170625,48.0,84.0
318,74.08199763958334,74.39039130416667,64.0,86.0
319,74.08199763958334,74.39221611875,67.0,82.0
320,74.30097538958333,74.51265388125,60.0,78.0
321,74.51995313958334,75.02725159375,67.0,82.0
322,74.95790863958334,75.08382084583333,59.0,80.0
323,75.17688638958333,75.4706815375,62.0,86.0
324,75.17688638958333,75.47433116666667,59.0,82.0
325,75.17688638958333,75.59659374375,67.0,83.0
326,74.73893088958333,76.11484108541667,50.0,73.0
327,75.83381963958334,76.14221330416667,62.0,83.0
328,75.83381963958334,76.14221330416667,67.0,82.0
329,74.51995313958334,76.15133737708334,43.0,83.0
330,76.05279738958333,76.18600885416667,59.0,81.0
331,76.27177513958334,76.75352618958334,62.0,84.0
332,76.27177513958334,76.77907359375,67.0,82.0
333,76.27177513958334,76.82286914375,43.0,83.0
334,76.70973063958334,76.86301506458334,59.0,84.0
335,76.49075288958333,77.11118984791666,50.0,71.0
336,77.14768613958333,77.33381722708333,62.0,83.0
337,77.14768613958333,77.53637164583334,66.0,80.0
338,77.14768613958333,77.62943718958333,42.0,77.0
339,77.36666388958334,77.75352458125,50.0,69.0
340,77.58564163958333,77.84841493958334,62.0,83.0
341,77.80461938958334,77.9451301125,66.0,88.0
342,78.02359713958333,78.5144722625,64.0,83.0
343,78.02359713958333,78.5363700375,67.0,82.0
344,78.46155263958333,78.75169815833334,59.0,83.0
345,78.68053038958334,79.07833996875,67.0,84.0
346,78.68053038958334,79.09293848541667,64.0,84.0
347,78.24257488958334,79.24439809583333,47.0,72.0
348,78.02359713958333,79.27541994375,40.0,78.0
349,79.33746363958333,79.62943397291667,64.0,83.0
350,79.33746363958333,79.66775507916667,67.0,78.0
351,79.55644138958334,79.78819284166667,59.0,83.0
352,79.77541913958333,80.16410464583333,64.0,82.0
353,79.77541913958333,80.17322871875,67.0,83.0
354,80.21337463958334,80.33381240208334,60.0,82.0
355,80.43235238958333,80.474323125,64.0,83.0
356,79.99439688958333,80.59111125833333,55.0,70.0
357,80.43235238958333,80.90680418125,60.0,84.0
358,80.43235238958333,80.91775306875,67.0,83.0
359,80.65133013958334,81.07286230833334,55.0,53.0
360,79.77541913958333,81.14767970625,48.0,84.0
361,81.08928563958334,81.39767930416667,64.0,86.0
362,81.08928563958334,81.39950411875,67.0,82.0
363,81.30826338958333,81.51994188125,60.0,78.0
364,81.52724113958334,81.79731369791666,57.0,78.0
365,81.52724113958334,81.87943035416667,66.0,79.0
366,81.96519663958334,82.09110884583333,57.0,81.0
367,82.18417438958333,82.59293285625,57.0,84.0
368,82.18417438958333,82.70424654583333,66.0,84.0
369,82.84110763958334,82.94694688541666,57.0,83.0
370,82.84110763958334,82.99804169375,66.0,84.0
371,81.52724113958334,83.17139907916666,38.0,88.0
372,81.74621888958333,83.17504870833334,45.0,73.0
373,83.06008538958334,83.42504830625,57.0,83.0
374,83.06008538958334,83.57468310208334,66.0,69.0
375,83.71701863958333,83.85205491875,57.0,83.0
376,83.93599638958334,84.19283378333334,57.0,82.0
377,83.93599638958334,84.19465064166667,62.0,85.0
378,83.49804088958334,84.52531885833334,45.0,76.0
379,84.37270275833333,84.68883610833333,57.0,84.0
380,84.80874875833334,85.05584149166667,57.0,82.0
381,84.37270275833333,85.09762923333334,66.0,84.0
382,84.59072575833333,85.11034724166667,45.0,78.0
383,83.27906313958333,85.15758555833334,38.0,84.0
384,85.02677175833334,85.29566679166668,55.0,77.0
385,85.02677175833334,85.29748365,62.0,83.0
386,85.46281775833333,85.60998328333334,55.0,81.0
387,85.68084075833333,86.142322775,55.0,84.0
388,85.68084075833333,86.153223925,62.0,86.0
389,85.24479475833334,86.60380479166668,50.0,72.0
390,85.02677175833334,86.6165228,43.0,83.0
391,86.55293275833334,87.00896420000001,55.0,87.0
392,86.33490975833334,87.06528680833334,67.0,76.0
393,86.33490975833334,87.27967609166667,62.0,83.0
394,87.20700175833333,87.31237954166667,55.0,83.0
395,86.98897875833333,87.57400714166667,50.0,73.0
396,87.42502475833334,87.7284401,55.0,84.0
397,86.77095575833334,87.98280026666667,43.0,82.0
398,87.42502475833334,88.398860825,62.0,84.0
399,88.07909375833334,88.41339569166666,42.0,85.0
400,87.86107075833334,88.41884626666666,50.0,79.0
401,88.29711675833333,88.60416581666667,55.0,89.0
402,88.95118575833334,89.38359804166667,52.0,83.0
403,89.16920875833334,89.61797276666667,64.0,83.0
404,89.16920875833334,89.65430993333334,59.0,83.0
405,89.16920875833334,89.65612679166667,55.0,84.0
406,88.51513975833333,90.08672221666667,40.0,91.0
407,88.73316275833334,90.088539075,47.0,73.0
408,89.82327775833333,90.12305938333334,64.0,84.0
409,90.04130075833334,90.39558813333333,52.0,83.0
410,89.82327775833333,90.4319253,59.0,83.0
411,89.82327775833333,90.44646016666667,55.0,83.0
412,90.69536975833334,90.79348010833334,52.0,69.0
413,90.91339275833333,91.07872686666667,52.0,78.0
414,90.91339275833333,91.44391539166666,55.0,82.0
415,90.91339275833333,91.46026711666667,62.0,83.0
416,90.47734675833334,91.55474375,47.0,73.0
417,90.25932375833334,91.571095475,40.0,84.0
418,91.56746175833334,91.91629855833334,62.0,86.0
419,92.00350775833334,92.2851208,55.0,76.0
420,92.00350775833334,92.49224265000001,60.0,77.0
421,92.43955375833333,92.56491698333333,55.0,78.0
422,92.65757675833333,92.73025109166667,55.0,71.0
423,92.87604530833333,93.09502305833334,64.0,84.0
424,92.65757675833333,93.18261415833334,60.0,85.0
425,92.22153075833333,93.20998637708334,52.0,75.0
426,92.00350775833334,93.25195711250001,48.0,88.0
427,93.31400080833333,93.5804237375,60.0,85.0
428,93.53297855833334,93.61692002916666,55.0,75.0
429,93.31400080833333,93.67166446666667,64.0,83.0
430,93.75195630833333,94.00743035,57.0,74.0
431,93.75195630833333,94.10779515208334,62.0,82.0
432,94.18991180833333,94.33042253125001,57.0,80.0
433,94.40888955833333,94.81034876666666,57.0,79.0
434,94.40888955833333,94.83224654166666,62.0,82.0
435,93.97093405833334,94.94538504583333,45.0,69.0
436,93.75195630833333,94.98918059583333,38.0,85.0
437,95.06582280833334,95.33954499583334,66.0,84.0
438,95.06582280833334,95.35231869791667,62.0,83.0
439,95.28480055833333,95.36326758541666,57.0,75.0
440,95.50377830833334,95.78662456875,55.0,82.0
441,95.50377830833334,95.86509159583333,59.0,81.0
442,95.94173380833334,96.02567527916666,55.0,70.0
443,96.16071155833333,96.43625856041666,62.0,83.0
444,96.16071155833333,96.47457966666667,55.0,83.0
445,96.59866705833333,96.79574703333333,55.0,83.0
446,96.59866705833333,96.90158627916666,59.0,85.0
447,97.03662255833333,97.12056402916667,55.0,69.0
448,95.50377830833334,97.16618439375,43.0,83.0
449,95.72275605833333,97.17713328125001,50.0,72.0
450,97.25560030833333,97.50377509166667,55.0,82.0
451,97.25560030833333,97.54757064166667,62.0,81.0
452,97.69355580833333,97.81034394166667,55.0,74.0
453,97.91253355833334,98.19355500416667,55.0,83.0
454,97.47457805833334,98.25559870000001,50.0,73.0
455,97.91253355833334,98.30486869375,59.0,89.0
456,97.25560030833333,98.44172978750001,43.0,83.0
457,98.35048905833334,98.52384644375,50.0,82.0
458,98.56946680833333,98.70085345833334,55.0,93.0
459,99.00742230833333,99.22822487291667,59.0,84.0
460,99.00742230833333,99.33588893333334,63.0,82.0
461,99.44537780833333,99.55486668333333,59.0,82.0
462,99.66435555833334,100.28661733125,59.0,83.0
463,99.66435555833334,100.33953695416668,63.0,85.0
464,99.66435555833334,100.39245657708334,66.0,79.0
465,99.00742230833333,100.51471915416667,47.0,84.0
466,100.32128880833334,100.66070432083333,54.0,76.0
467,100.54026655833333,100.9818716875,59.0,93.0
468,100.75924430833334,101.07858686041666,63.0,87.0
469,100.75924430833334,101.255593875,66.0,83.0
470,101.19719980833334,101.31946238541667,59.0,82.0
471,100.97822205833333,101.54391457916667,54.0,71.0
472,101.41617755833333,101.71909677916666,59.0,79.0
473,101.41617755833333,101.79026454791666,71.0,82.0
474,101.41617755833333,101.94719860208333,63.0,76.0
475,101.63515530833334,101.95814748958334,54.0,65.0
476,101.41617755833333,101.97092119166666,66.0,74.0
477,101.85413305833333,102.04938821875,59.0,82.0
478,100.75924430833334,102.1096071,47.0,87.0
479,102.07311080833334,102.3833292875,63.0,74.0
480,102.29208855833333,102.46544594375,59.0,79.0
481,102.07311080833334,102.58405889166667,69.0,83.0
482,102.51106630833334,102.9088758875,67.0,75.0
483,102.94902180833333,103.06033549791667,64.0,78.0
484,102.73004405833333,103.62967764791667,47.0,77.0
485,103.16799955833334,103.83223206666666,64.0,85.0
486,102.51106630833334,103.96544353125,40.0,84.0
487,103.16799955833334,103.99464056458334,67.0,83.0
488,104.04391055833334,104.17529720833333,64.0,82.0
489,103.82493280833333,104.26288830833333,47.0,85.0
490,104.26288830833333,104.54755938333334,62.0,76.0
491,104.26288830833333,104.77383639166666,67.0,82.0
492,104.70084380833333,104.82128157083334,62.0,87.0
493,104.48186605833334,105.42894482708334,45.0,77.0
494,104.91982155833334,105.58770369583334,62.0,88.0
495,104.91982155833334,105.69536775625001,67.0,83.0
496,104.26288830833333,105.7008422,38.0,87.0
497,105.57675480833333,105.81033107500001,45.0,80.0
498,105.79573255833333,105.83222885,67.0,49.0
499,105.79573255833333,106.06215548750001,62.0,84.0
500,106.45266580833334,106.76105947291667,60.0,74.0
501,106.67164355833333,107.19354052916667,62.0,85.0
502,107.10959905833333,107.45813864375,64.0,83.0
503,106.01471030833333,107.70996305625,48.0,87.0
504,106.23368805833334,107.72456157291667,55.0,72.0
505,106.01471030833333,107.82675118958333,36.0,70.0
506,107.54755455833333,108.25740743125,67.0,75.0
507,108.20448780833334,108.33587445833334,60.0,79.0
508,107.98551005833333,108.51288147291666,55.0,74.0
509,108.42346555833333,108.7665307,60.0,86.0
510,108.42346555833333,108.99280770833333,67.0,84.0
511,109.08039880833334,109.20631101458333,60.0,82.0
512,107.76653230833334,109.29390211458333,48.0,83.0
513,108.64244330833334,109.3796684,55.0,80.0
514,109.29937655833334,109.4672595,60.0,76.0
515,109.08039880833334,109.49098208958333,36.0,75.0
516,109.08039880833334,109.52382875208333,64.0,84.0
517,109.51835430833333,109.98733165625,57.0,82.0
518,109.51835430833333,110.09682053125,62.0,83.0
519,110.17528755833334,110.5730971375,57.0,87.0
520,109.95630980833333,110.6935349,45.0,77.0
521,109.51835430833333,110.71725748958333,38.0,86.0
522,110.83222080833333,110.92711116666666,57.0,49.0
523,110.61324305833334,110.9563082,62.0,86.0
524,110.61324305833334,110.98003078958334,66.0,93.0
525,111.05119855833334,111.34134407708333,57.0,83.0
526,111.27017630833333,111.4928036875,62.0,85.0
527,111.27017630833333,111.591343675,66.0,82.0
528,111.70813180833333,111.80667179583334,62.0,91.0
529,111.48915405833333,112.04207287708334,57.0,76.0
530,111.92710955833334,112.20083174583334,62.0,86.0
531,111.92710955833334,112.20265656041667,66.0,84.0
532,111.92710955833334,112.22637915,69.0,86.0
533,112.14608730833334,112.43258319791667,57.0,79.0
534,112.36506505833333,112.59134206666667,62.0,84.0
535,112.36506505833333,112.9380568375,66.0,83.0
536,111.27017630833333,112.95630498333334,50.0,83.0
537,112.36506505833333,112.98732683125,69.0,83.0
538,112.58404280833334,113.00922460625,57.0,75.0
539,112.80302055833333,113.01652386458333,62.0,81.0
540,112.36506505833333,113.02199830833334,74.0,84.0
541,113.02199830833334,113.29207086666668,55.0,77.0
542,113.02199830833334,113.29389568125,62.0,83.0
543,113.45995380833334,113.60776378958333,55.0,81.0
544,113.67893155833333,114.1424344625,55.0,84.0
545,113.67893155833333,114.15338335,62.0,86.0
546,113.24097605833333,114.60593736666667,50.0,72.0
547,113.02199830833334,114.61871106875,43.0,83.0
548,114.55484255833333,115.01287101875,55.0,87.0
549,114.33586480833333,115.06944027083334,67.0,76.0
550,114.33586480833333,115.28476839166666,62.0,83.0
551,115.21177580833333,115.31761505416667,55.0,83.0
552,114.99279805833334,115.58038835416667,50.0,73.0
553,115.43075355833334,115.73549759375,55.0,84.0
554,114.77382030833334,115.99097163541667,43.0,82.0
555,115.43075355833334,116.408854175,62.0,84.0
556,116.08768680833333,116.42345269166667,42.0,85.0
557,115.86870905833334,116.42892713541667,50.0,79.0
558,116.30666455833334,116.61505822291667,55.0,89.0
559,116.96359780833333,117.39790367916666,52.0,83.0
560,117.18257555833334,117.63330476041666,64.0,83.0
561,117.18257555833334,117.66980105208333,59.0,83.0
562,117.18257555833334,117.67162586666667,55.0,84.0
563,116.52564230833333,118.10410692291667,40.0,91.0
564,116.74462005833334,118.1059317375,47.0,73.0
565,117.83950880833333,118.14060321458334,64.0,84.0
566,118.05848655833333,118.41432540208334,52.0,83.0
567,117.83950880833333,118.45082169375,59.0,83.0
568,117.83950880833333,118.46542021041667,55.0,83.0
569,118.71541980833334,118.81395979583334,52.0,69.0
570,118.93439755833333,119.10045568541668,52.0,78.0
571,118.93439755833333,119.46724341666666,55.0,82.0
572,118.93439755833333,119.48366674791667,62.0,83.0
573,118.49644205833334,119.57855710625,47.0,73.0
574,118.27746430833334,119.5949804375,40.0,84.0
575,119.59133080833334,119.94169520833333,62.0,86.0
576,120.02928630833334,120.31213256875,55.0,76.0
577,120.02928630833334,120.52016143125,60.0,77.0
578,120.46724180833334,120.59315401458333,55.0,78.0
579,120.68621955833333,120.75921214166667,55.0,71.0
580,120.68621955833333,121.21176615833333,60.0,85.0
581,120.68621955833333,121.23366393333333,64.0,84.0
582,120.24826405833333,121.23913837708334,52.0,75.0
583,120.02928630833334,121.2811091125,48.0,88.0
584,121.34315280833334,121.6095757375,60.0,85.0
585,121.56213055833334,121.64607202916667,55.0,75.0
586,121.34315280833334,121.70081646666667,64.0,83.0
587,121.78110830833333,122.03658235,57.0,74.0
588,121.78110830833333,122.13694715208334,62.0,82.0
589,122.21906380833333,122.35957453125,57.0,80.0
590,122.43804155833334,122.83950076666667,57.0,79.0
591,122.43804155833334,122.86139854166667,62.0,82.0
592,122.00008605833334,122.97453704583333,45.0,69.0
593,121.78110830833333,123.01833259583333,38.0,85.0
594,123.09497480833333,123.36869699583333,66.0,84.0
595,123.09497480833333,123.38147069791667,62.0,83.0
596,123.31395255833334,123.39241958541666,57.0,75.0
597,123.53293030833333,123.81577656875001,55.0,82.0
598,123.53293030833333,123.89424359583333,59.0,81.0
599,123.97088580833334,124.05482727916667,55.0,70.0
600,124.18986355833334,124.46541056041667,62.0,83.0
601,124.18986355833334,124.50373166666667,55.0,83.0
602,124.62781905833333,124.82489903333334,55.0,83.0
603,124.62781905833333,124.93073827916666,59.0,85.0
604,125.06577455833335,125.14971602916667,55.0,69.0
605,123.53293030833333,125.19533639375001,43.0,83.0
606,123.75190805833333,125.20628528125,50.0,72.0
607,125.28475230833334,125.53292709166666,55.0,82.0
608,125.28475230833334,125.57672264166666,62.0,81.0
609,125.72270780833333,125.83949594166667,55.0,74.0
610,125.94168555833333,126.22270700416667,55.0,83.0
611,125.50373005833333,126.2847507,50.0,73.0
612,125.94168555833333,126.33402069375,59.0,89.0
613,125.28475230833334,126.4708817875,43.0,83.0
614,126.37964105833333,126.55299844375,50.0,82.0
615,126.59861880833333,126.73000545833334,55.0,93.0
616,127.03657430833334,127.25737687291667,59.0,84.0
617,127.03657430833334,127.36504093333333,63.0,82.0
618,127.47452980833333,127.58401868333334,59.0,82.0
619,127.69350755833334,128.31576933125,59.0,83.0
620,127.69350755833334,128.36868895416666,63.0,85.0
621,127.69350755833334,128.42160857708333,66.0,79.0
622,127.03657430833334,128.54387115416665,47.0,84.0
623,128.35044080833333,128.68985632083334,54.0,76.0
624,128.56941855833333,129.0110236875,59.0,93.0
625,128.78839630833335,129.10773886041667,63.0,87.0
626,128.78839630833335,129.284745875,66.0,83.0
627,129.22635180833333,129.34861438541668,59.0,82.0
628,129.00737405833334,129.57306657916666,54.0,71.0
629,129.44532955833333,129.74824877916666,59.0,79.0
630,129.44532955833333,129.81941654791666,71.0,82.0
631,129.44532955833333,129.97635060208333,63.0,76.0
632,129.66430730833332,129.98729948958334,54.0,65.0
633,129.44532955833333,130.00007319166667,66.0,74.0
634,129.88328505833334,130.07854021875,59.0,82.0
635,128.78839630833335,130.13875910000002,47.0,87.0
636,130.10226280833334,130.4124812875,63.0,74.0
637,130.32124055833333,130.49459794375,59.0,79.0
638,130.10226280833334,130.61321089166665,69.0,83.0
639,130.54021830833335,130.9380278875,67.0,75.0
640,130.97817380833334,131.08948749791668,64.0,78.0
641,130.75919605833334,131.65882964791666,47.0,77.0
642,131.19715155833333,131.86138406666666,64.0,85.0
643,130.54021830833335,131.99459553125,40.0,84.0
644,131.19715155833333,132.02379256458335,67.0,83.0
645,132.07306255833333,132.20444920833333,64.0,82.0
646,131.85408480833334,132.29204030833333,47.0,85.0
647,132.29204030833333,132.57671138333333,62.0,76.0
648,132.29204030833333,132.80298839166667,67.0,82.0
649,132.72999580833334,132.85043357083333,62.0,87.0
650,132.51101805833332,133.45809682708335,45.0,77.0
651,132.94897355833334,133.61685569583335,62.0,88.0
652,132.94897355833334,133.72451975625,67.0,83.0
653,132.29204030833333,133.7299942,38.0,87.0
654,133.60590680833334,133.839483075,45.0,80.0
655,133.82488455833334,133.86138085,67.0,49.0
656,133.82488455833334,134.0913074875,62.0,84.0
657,134.48181780833335,134.79021147291667,60.0,74.0
658,134.70079555833334,135.22269252916666,62.0,85.0
659,135.13875105833333,135.48729064375,64.0,83.0
660,134.04386230833333,135.73911505625,48.0,87.0
661,134.26284005833332,135.75371357291667,55.0,72.0
662,134.04386230833333,135.85590318958333,36.0,70.0
663,135.57670655833334,136.28655943125,67.0,75.0
664,136.23363980833335,136.36502645833332,60.0,79.0
665,136.01466205833333,136.54203347291667,55.0,74.0
666,136.45261755833334,136.7956827,60.0,86.0
667,136.45261755833334,137.02195970833333,67.0,84.0
668,137.10955080833332,137.23546301458333,60.0,82.0
669,135.79568430833334,137.32305411458333,48.0,83.0
670,136.67159530833334,137.4088204,55.0,80.0
671,137.32852855833335,137.4964115,60.0,76.0
672,137.10955080833332,137.52013408958334,36.0,75.0
673,137.10955080833332,137.55298075208333,64.0,84.0
674,137.54750630833334,138.01648365625,57.0,82.0
675,137.54750630833334,138.12597253125,62.0,83.0
676,138.20443955833332,138.6022491375,57.0,87.0
677,137.98546180833333,138.72268689999999,45.0,77.0
678,137.54750630833334,138.74640948958333,38.0,86.0
679,138.86137280833333,138.95626316666667,57.0,49.0
680,138.64239505833334,138.9854602,62.0,86.0
681,138.64239505833334,139.00918278958335,66.0,93.0
682,139.08035055833335,139.37049607708335,57.0,83.0
683,139.29932830833334,139.5219556875,62.0,85.0
684,139.29932830833334,139.620495675,66.0,82.0
685,139.73728380833333,139.83582379583333,62.0,91.0
686,139.51830605833334,140.07122487708335,57.0,76.0
687,139.95626155833332,140.22998374583335,62.0,86.0
688,139.95626155833332,140.23180856041665,66.0,84.0
689,139.95626155833332,140.25553115,69.0,86.0
690,140.17523930833335,140.46173519791665,57.0,79.0
691,140.39421705833334,140.62049406666665,62.0,84.0
692,140.39421705833334,140.9672088375,66.0,83.0
693,139.29932830833334,140.98545698333334,50.0,83.0
694,140.39421705833334,141.01647883125,69.0,83.0
695,140.61319480833333,141.03837660625,57.0,75.0
696,140.83217255833333,141.04567586458333,62.0,81.0
697,140.39421705833334,141.05115030833332,74.0,84.0
698,141.05115030833332,141.58582098125,62.0,82.0
699,141.05115030833332,141.58947061041667,67.0,73.0
700,141.70808355833333,142.19165942291667,62.0,81.0
701,141.70808355833333,142.20990756875,67.0,82.0
702,141.48910580833333,142.25735274791668,55.0,84.0
703,141.27012805833334,142.58946900208332,50.0,73.0
704,141.05115030833332,142.6095419625,43.0,82.0
705,142.36501680833334,142.67523528750002,67.0,81.0
706,142.58399455833333,142.8942130375,55.0,81.0
707,142.36501680833334,143.29384743125001,62.0,79.0
708,142.80297230833332,143.31939483541666,67.0,81.0
709,143.24092780833334,143.56391998958333,55.0,82.0
710,143.45990555833333,143.77924811041666,62.0,82.0
711,143.45990555833333,143.79384662708333,67.0,82.0
712,143.89786105833332,144.25734953125,67.0,82.0
713,143.02195005833335,144.27194804791668,50.0,74.0
714,142.80297230833332,144.45077987708333,43.0,84.0
715,144.11683880833334,144.54384542083335,55.0,82.0
716,144.55479430833333,144.99274980833334,67.0,80.0
717,144.99274980833334,145.65880713125,55.0,83.0
718,145.21172755833334,145.68070490625,67.0,86.0
719,145.64968305833332,145.93070450416667,60.0,78.0
720,144.55479430833333,146.16063114166667,48.0,83.0
721,144.77377205833335,146.17158002916668,52.0,66.0
722,145.86866080833335,146.49092258125,55.0,84.0
723,146.08763855833334,146.79749143125,60.0,83.0
724,146.08763855833334,146.81026513333333,67.0,82.0
725,146.96354955833334,147.30114025625,60.0,85.0
726,146.96354955833334,147.30478988541665,67.0,83.0
727,146.74457180833332,147.46902319791667,55.0,82.0
728,146.30661630833333,147.6460302125,48.0,91.0
729,146.52559405833333,147.854059075,52.0,74.0
730,147.40150505833333,147.854059075,60.0,82.0
731,147.40150505833333,147.95989832083333,67.0,81.0
732,148.05843830833334,148.31573716458334,57.0,77.0
733,148.05843830833334,148.57303602083334,60.0,79.0
734,148.49639380833332,148.66427675,57.0,69.0
735,148.71537155833335,149.05600118750002,57.0,75.0
736,148.71537155833335,149.05964019583334,64.0,82.0
737,148.71537155833335,149.06873771666667,60.0,76.0
738,149.15243490833333,149.32710730833335,64.0,84.0
739,149.15243490833333,149.37077540833334,57.0,80.0
740,149.15243490833333,149.45993111250002,60.0,83.0
741,148.27741605833333,149.67099359583335,52.0,75.0
742,148.05843830833334,149.67645210833334,45.0,82.0
743,149.80745640833334,150.08947955416667,60.0,80.0
744,149.80745640833334,150.098577075,64.0,74.0
745,149.80745640833334,150.11131360416667,67.0,75.0
746,150.24413740833333,150.38605873333333,57.0,76.0
747,150.02579690833335,150.60257972916668,52.0,77.0
748,150.46247790833334,150.73540353333334,57.0,74.0
749,150.46247790833334,150.76633510416667,64.0,84.0
750,150.46247790833334,150.7699741125,60.0,82.0
751,150.89915890833333,150.96102205,57.0,78.0
752,150.68081840833335,151.0228851916667,52.0,77.0
753,149.80745640833334,151.16662602083335,45.0,83.0
754,150.89915890833333,151.19573808750002,60.0,88.0
755,150.89915890833333,151.25760122916668,64.0,88.0
756,151.55418040833334,151.78343793333335,55.0,77.0
757,151.55418040833334,152.0308905,60.0,79.0
758,152.20920190833334,152.52943464166668,67.0,82.0
759,151.99086140833333,152.53671265833333,55.0,77.0
760,152.20920190833334,152.56218571666668,60.0,82.0
761,151.55418040833334,152.66043894166668,48.0,83.0
762,152.64588290833333,152.69319001666668,55.0,72.0
763,151.77252090833335,152.7022875375,52.0,78.0
764,152.64588290833333,152.9206280375,60.0,83.0
765,152.64588290833333,153.23904126666667,67.0,80.0
766,153.30090440833334,153.4464647416667,57.0,82.0
767,153.30090440833334,153.74850243333333,66.0,82.0
768,153.51924490833335,153.81946309583333,57.0,71.0
769,153.73758540833333,153.875867725,62.0,73.0
770,153.95592590833334,154.21247599583333,57.0,73.0
771,153.95592590833334,154.25068558333334,62.0,82.0
772,153.95592590833334,155.08947700416667,66.0,81.0
773,154.39260690833333,155.09311601250002,62.0,82.0
774,154.61094740833335,155.11495006250001,57.0,75.0
775,153.30090440833334,155.120408575,50.0,91.0
776,155.04762840833334,155.5370750291667,64.0,83.0
777,155.04762840833334,155.55890907916668,67.0,82.0
778,155.48430940833333,155.77361057083334,59.0,83.0
779,155.70264990833334,156.09930181666667,67.0,84.0
780,155.70264990833334,156.11385785000002,64.0,84.0
781,155.26596890833335,156.26487669583335,47.0,72.0
782,155.04762840833334,156.29580826666668,40.0,78.0
783,156.35767140833335,156.64879207500002,64.0,83.0
784,156.35767140833335,156.6870016625,67.0,78.0
785,156.57601190833333,156.8070889375,59.0,83.0
786,156.79435240833334,157.18190679583333,64.0,82.0
787,156.79435240833334,157.19100431666666,67.0,83.0
788,157.23103340833333,157.35112068333333,60.0,82.0
789,157.44937390833334,157.49122250416667,64.0,83.0
790,157.01269290833335,157.60767077083335,55.0,70.0
791,157.44937390833334,157.92244499166668,60.0,84.0
792,157.44937390833334,157.93336201666668,67.0,83.0
793,157.66771440833335,158.08801987083334,55.0,53.0
794,156.79435240833334,158.1626195416667,48.0,84.0
795,158.10439540833335,158.4118916125,64.0,86.0
796,158.10439540833335,158.41371111666666,67.0,82.0
797,158.32273590833333,158.53379839166666,60.0,78.0
798,158.54107640833334,159.04689856666667,67.0,82.0
799,158.97775740833333,159.10330319583335,59.0,80.0
800,159.19609790833334,159.48903807916668,62.0,86.0
801,159.19609790833334,159.4926770875,59.0,82.0
802,159.19609790833334,159.61458386666666,67.0,83.0
803,158.75941690833335,160.13132305000002,50.0,73.0
804,159.85111940833335,160.1586156125,62.0,83.0
805,159.85111940833335,160.1586156125,67.0,82.0
806,158.54107640833334,160.16771313333334,43.0,83.0
807,160.06945990833333,160.20228371250002,59.0,81.0
808,160.28780040833334,160.76814950833335,62.0,84.0
809,160.28780040833334,160.79362256666667,67.0,82.0
810,160.28780040833334,160.83729066666666,43.0,83.0
811,160.72448140833333,160.87731975833333,59.0,84.0
812,160.50614090833335,161.124772325,50.0,71.0
813,161.16116240833335,161.34675183333334,62.0,83.0
814,161.16116240833335,161.54871679583334,66.0,80.0
815,161.16116240833335,161.64151150833334,42.0,77.0
816,161.37950290833334,161.76523779166666,50.0,69.0
817,161.59784340833335,161.85985200833335,62.0,83.0
818,161.81618390833333,161.95628572916667,66.0,88.0
819,162.03452440833334,162.52397102916666,64.0,83.0
820,162.03452440833334,162.54580507916668,67.0,82.0
821,162.47120540833333,162.76050657083334,59.0,83.0
822,162.68954590833334,163.08619781666667,67.0,84.0
823,162.68954590833334,163.10075385000002,64.0,84.0
824,162.25286490833335,163.25177269583335,47.0,72.0
825,162.03452440833334,163.28270426666668,40.0,78.0
826,163.34456740833335,163.63568807500002,64.0,83.0
827,163.34456740833335,163.6738976625,67.0,78.0
828,163.56290790833333,163.7939849375,59.0,83.0
829,163.78124840833334,164.16880279583333,64.0,82.0
830,163.78124840833334,164.17790031666667,67.0,83.0
831,164.21792940833333,164.33801668333334,60.0,82.0
832,164.43626990833334,164.47811850416667,64.0,83.0
833,163.99958890833335,164.59456677083335,55.0,70.0
834,164.43626990833334,164.90934099166668,60.0,84.0
835,164.43626990833334,164.92025801666668,67.0,83.0
836,164.65461040833333,165.07491587083334,55.0,53.0
837,163.78124840833334,165.1495155416667,48.0,84.0
838,165.09129140833335,165.39960814375,64.0,86.0
839,165.09129140833335,165.40143830416667,67.0,82.0
840,165.30993028333333,165.52222889166666,60.0,78.0
841,165.52954953333332,166.03833412916666,67.0,82.0
842,165.96878803333334,166.09506910208333,59.0,80.0
843,166.18840728333333,166.48306311041665,62.0,86.0
844,166.18840728333333,166.48672343125,59.0,82.0
845,166.18840728333333,166.60934417916667,67.0,83.0
846,165.74916878333332,167.1291097375,50.0,73.0
847,166.84726503333334,167.15656214375,62.0,83.0
848,166.84726503333334,167.15656214375,67.0,82.0
849,165.52954953333332,167.16571294583332,43.0,83.0
850,167.06688428333334,167.20048599375,59.0,81.0
851,167.28650353333333,167.76966588333332,62.0,84.0
852,167.28650353333333,167.79528812916666,67.0,82.0
853,167.28650353333333,167.83921197916666,43.0,83.0
854,167.72574203333332,167.87947550833334,59.0,84.0
855,167.50612278333332,168.128377325,50.0,71.0
856,168.16498053333333,168.35165689583334,62.0,83.0
857,168.16498053333333,168.55480470208335,66.0,80.0
858,168.16498053333333,168.64814288333332,42.0,77.0
859,168.38459978333333,168.77259379166665,50.0,69.0
860,168.60421903333332,168.86776213333334,62.0,83.0
861,168.82383828333334,168.96476063541667,66.0,88.0
862,169.04345753333334,169.53577068541665,64.0,83.0
863,169.04345753333334,169.55773261041668,67.0,82.0
864,169.48269603333333,169.77369153958333,59.0,83.0
865,169.70231528333332,170.10129025416666,67.0,84.0
866,169.70231528333332,170.1159315375,64.0,84.0
867,169.26307678333333,170.26783485208333,47.0,72.0
868,169.04345753333334,170.29894757916665,40.0,78.0
869,170.36117303333333,170.6539987,64.0,83.0
870,170.36117303333333,170.69243206875,67.0,78.0
871,170.58079228333332,170.81322265625,59.0,83.0
872,170.80041153333332,171.19023570208333,64.0,82.0
873,170.80041153333332,171.19938650416665,67.0,83.0
874,171.23965003333333,171.36044062083334,60.0,82.0
875,171.45926928333333,171.50136297291667,64.0,83.0
876,171.02003078333334,171.61849323958333,55.0,70.0
877,171.45926928333333,171.93511099166668,60.0,84.0
878,171.45926928333333,171.94609195416666,67.0,83.0
879,171.67888853333332,172.10165558958334,55.0,53.0
880,170.80041153333332,172.17669216666667,48.0,84.0
881,172.11812703333334,172.42742414375,64.0,86.0
882,172.11812703333334,172.42925430416668,67.0,82.0
883,172.33774628333333,172.55004489166666,60.0,78.0
884,172.55736553333332,173.06615012916666,67.0,82.0
885,172.99660403333334,173.12288510208333,59.0,80.0
886,173.21622328333333,173.51087911041665,62.0,86.0
887,173.21622328333333,173.51453943125,59.0,82.0
888,173.21622328333333,173.63716017916667,67.0,83.0
889,172.77698478333332,174.1569257375,50.0,73.0
890,173.87508103333334,174.18437814375,62.0,83.0
891,173.87508103333334,174.18437814375,67.0,82.0
892,172.55736553333332,174.19352894583332,43.0,83.0
893,174.09470028333334,174.22830199375,59.0,81.0
894,174.31431953333333,174.79748188333332,62.0,84.0
895,174.31431953333333,174.82310412916667,67.0,82.0
896,174.31431953333333,174.86702797916666,43.0,83.0
897,174.75355803333332,174.90729150833334,59.0,84.0
898,174.53393878333333,175.156193325,50.0,71.0
899,175.19279653333334,175.37947289583332,62.0,83.0
900,175.19279653333334,175.58262070208332,66.0,80.0
901,175.19279653333334,175.67595888333332,42.0,77.0
902,175.41241578333333,175.80040979166665,50.0,69.0
903,175.63203503333332,175.89557813333334,62.0,83.0
904,175.85165428333332,175.99257663541667,66.0,88.0
905,176.07127353333334,176.56358668541665,64.0,83.0
906,176.07127353333334,176.58554861041665,67.0,82.0
907,176.51051203333333,176.80150753958333,59.0,83.0
908,176.73013128333332,177.12910625416666,67.0,84.0
909,176.73013128333332,177.1437475375,64.0,84.0
910,176.29089278333333,177.29565085208333,47.0,72.0
911,176.07127353333334,177.32676357916665,40.0,78.0
912,177.38898903333333,177.6818147,64.0,83.0
913,177.38898903333333,177.72024806875,67.0,78.0
914,177.60860828333333,177.84103865625,59.0,83.0
915,177.82822753333332,178.21805170208333,64.0,82.0
916,177.82822753333332,178.22720250416666,67.0,83.0
917,178.26746603333333,178.38825662083332,60.0,82.0
918,178.48708528333333,178.52917897291667,64.0,83.0
919,178.04784678333334,178.64630923958333,55.0,70.0
920,178.48708528333333,178.96292699166668,60.0,84.0
921,178.48708528333333,178.97390795416666,67.0,83.0
922,178.70670453333332,179.12947158958332,55.0,53.0
923,177.82822753333332,179.20450816666667,48.0,84.0
924,179.14594303333334,179.45524014375,64.0,86.0
925,179.14594303333334,179.45707030416668,67.0,82.0
926,179.36556228333333,179.57786089166666,60.0,78.0
927,179.58518153333333,179.85604527499999,57.0,78.0
928,179.58518153333333,179.93840249375,66.0,79.0
929,180.02442003333334,180.15070110208333,57.0,81.0
930,180.24403928333334,180.6532628375,57.0,84.0
931,180.24403928333334,180.76457652708334,66.0,84.0
932,180.90143762083335,181.00727686666667,57.0,83.0
933,180.90143762083335,181.05837167500002,66.0,84.0
934,179.58518153333333,181.23172906041668,38.0,88.0
935,179.80480078333332,181.23537868958334,45.0,73.0
936,181.12041537083334,181.4853782875,57.0,83.0
937,181.12041537083334,181.63501308333335,66.0,69.0
938,181.77734862083335,181.9123849,57.0,83.0
939,181.99632637083334,182.25343382708334,57.0,82.0
940,181.99632637083334,182.25525598333334,62.0,85.0
941,181.55837087083333,182.58688842083336,45.0,76.0
942,182.43382729583334,182.75088248333336,57.0,84.0
943,182.87114479583335,183.11895804583335,57.0,82.0
944,182.43382729583334,183.16086763958336,66.0,84.0
945,182.65248604583334,183.17362273333336,45.0,78.0
946,181.33939312083334,183.22099879583334,38.0,84.0
947,183.08980354583335,183.35948267083336,55.0,77.0
948,183.08980354583335,183.36130482708336,62.0,83.0
949,183.52712104583335,183.67471570208335,55.0,81.0
950,183.74577979583336,184.20860748333334,55.0,84.0
951,183.74577979583336,184.21954042083334,62.0,86.0
952,183.30846229583335,184.67143517083335,50.0,72.0
953,183.08980354583335,184.68419026458335,43.0,83.0
954,184.62041479583334,185.07777601458335,55.0,87.0
955,184.40175604583334,185.13426285833336,67.0,76.0
956,184.40175604583334,185.34927729583336,62.0,83.0
957,185.27639104583335,185.38207610833337,55.0,83.0
958,185.05773229583335,185.64446660833335,50.0,73.0
959,185.49504979583335,185.79934988958334,55.0,84.0
960,184.83907354583334,186.05445176458335,43.0,82.0
961,185.49504979583335,186.47172554583335,62.0,84.0
962,186.15102604583336,186.48630279583335,42.0,85.0
963,185.93236729583336,186.49176926458335,50.0,79.0
964,186.36968479583336,186.67762920208335,55.0,89.0
965,187.02566104583335,187.45933423333335,52.0,83.0
966,187.24431979583335,187.69439238958336,64.0,83.0
967,187.24431979583335,187.73083551458336,59.0,83.0
968,187.24431979583335,187.73265767083336,55.0,84.0
969,186.58834354583334,188.16450870208334,40.0,91.0
970,186.80700229583334,188.16633085833334,47.0,73.0
971,187.90029604583336,188.20095182708334,64.0,84.0
972,188.11895479583336,188.47427526458335,52.0,83.0
973,187.90029604583336,188.51071838958336,59.0,83.0
974,187.90029604583336,188.52529563958336,55.0,83.0
975,188.77493104583334,188.87332748333336,52.0,69.0
976,188.99358979583334,189.15940601458334,52.0,78.0
977,188.99358979583334,189.52565942083336,55.0,82.0
978,188.99358979583334,189.54205882708334,62.0,83.0
979,188.55627229583334,189.63681095208335,47.0,73.0
980,188.33761354583336,189.65321035833335,40.0,84.0
981,189.64956604583335,189.99942004583335,62.0,86.0
982,190.08688354583336,190.36931776458334,55.0,76.0
983,190.08688354583336,190.57704357708334,60.0,77.0
984,190.52420104583337,190.64992982708335,55.0,78.0
985,190.74285979583334,190.81574604583335,55.0,71.0
986,190.74285979583334,191.26764079583336,60.0,85.0
987,190.74285979583334,191.28950667083336,64.0,84.0
988,190.30554229583336,191.29497313958336,52.0,75.0
989,190.08688354583336,191.33688273333334,48.0,88.0
990,191.39883604583335,191.66487085833336,60.0,85.0
991,191.61749479583335,191.70131398333336,55.0,75.0
992,191.39883604583335,191.75597867083334,64.0,83.0
993,191.83615354583335,192.09125542083336,57.0,74.0
994,191.83615354583335,192.19147401458335,62.0,82.0
995,192.27347104583336,192.41377707708335,57.0,80.0
996,192.49212979583336,192.89300417083336,57.0,79.0
997,192.49212979583336,192.91487004583334,62.0,82.0
998,192.05481229583336,193.02784373333336,45.0,69.0
999,191.83615354583335,193.07157548333336,38.0,85.0
1000,193.14810604583334,193.42142948333336,66.0,84.0
1001,193.14810604583334,193.43418457708336,62.0,83.0
1002,193.36676479583335,193.44511751458336,57.0,75.0
1003,193.58542354583335,193.86785776458336,55.0,82.0
1004,193.58542354583335,193.94621048333335,59.0,81.0
1005,194.02274104583336,194.10656023333334,55.0,70.0
1006,194.24139979583336,194.51654538958334,62.0,83.0
1007,194.24139979583336,194.55481067083335,55.0,83.0
1008,194.67871729583334,194.87551017083337,55.0,83.0
1009,194.67871729583334,194.98119523333335,59.0,85.0
1010,195.11603479583334,195.19985398333336,55.0,69.0
1011,193.58542354583335,195.24540788958336,43.0,83.0
1012,193.80408229583335,195.25634082708336,50.0,72.0
1013,195.33469354583335,195.58250679583335,55.0,82.0
1014,195.33469354583335,195.62623854583336,62.0,81.0
1015,195.77201104583335,195.88862904583334,55.0,74.0
1016,195.99066979583336,196.27128185833334,55.0,83.0
1017,195.55335229583335,196.33323517083335,50.0,73.0
1018,195.99066979583336,196.38243338958335,59.0,89.0
1019,195.33469354583335,196.51909510833335,43.0,83.0
1020,196.42798729583336,196.60109213958336,50.0,82.0
1021,196.64664604583336,196.77784129583335,55.0,93.0
1022,197.08396354583334,197.30444445208335,59.0,84.0
1023,197.08396354583334,197.41195167083336,63.0,82.0
1024,197.52128104583335,197.63061042083336,59.0,82.0
1025,197.73993979583335,198.36129507708335,59.0,83.0
1026,197.73993979583335,198.41413760833336,63.0,85.0
1027,197.73993979583335,198.46698013958334,66.0,79.0
1028,197.08396354583334,198.58906460833336,47.0,84.0
1029,198.39591604583336,198.73483710833335,54.0,76.0
1030,198.61457479583336,199.05553660833334,59.0,93.0
1031,198.83323354583337,199.15211088958335,63.0,87.0
1032,198.83323354583337,199.32886004583335,66.0,83.0
1033,199.27055104583334,199.39263551458336,59.0,82.0
1034,199.05189229583334,199.61676073333336,54.0,71.0
1035,199.48920979583335,199.79168773333336,59.0,79.0
1036,199.48920979583335,199.86275182708334,71.0,82.0
1037,199.48920979583335,200.01945726458337,63.0,76.0
1038,199.70786854583335,200.03039020208334,54.0,65.0
1039,199.48920979583335,200.04314529583334,66.0,74.0
1040,199.92652729583335,200.12149801458335,59.0,82.0
1041,198.83323354583337,200.18162917083336,47.0,87.0
1042,200.14518604583336,200.45495260833334,63.0,74.0
1043,200.36384479583336,200.53694963958336,59.0,79.0
1044,200.14518604583336,200.65538979583334,69.0,83.0
1045,200.58250354583336,200.97973360833336,67.0,75.0
1046,201.01982104583334,201.13097257708336,64.0,78.0
1047,200.80116229583336,201.69948532708335,47.0,77.0
1048,201.23847979583334,201.90174467083335,64.0,85.0
1049,200.58250354583336,202.03476207708334,40.0,84.0
1050,201.23847979583334,202.06391657708335,67.0,83.0
1051,202.11311479583335,202.24431004583334,64.0,82.0
1052,201.89445604583335,202.33177354583336,47.0,85.0
1053,202.33177354583336,202.61602992083334,62.0,76.0
1054,202.33177354583336,202.84197729583335,67.0,82.0
1055,202.76909104583336,202.88935335833335,62.0,87.0
1056,202.55043229583336,203.49613138958335,45.0,77.0
1057,202.98774979583334,203.65465898333335,62.0,88.0
1058,202.98774979583334,203.76216620208334,67.0,83.0
1059,202.33177354583336,203.76763267083334,38.0,87.0
1060,203.64372604583335,203.87696204583335,45.0,80.0
1061,203.86238479583335,203.89882792083336,67.0,49.0
1062,203.86238479583335,204.12841960833336,62.0,84.0
1063,204.51836104583336,204.82630545208335,60.0,74.0
1064,204.73701979583336,205.25815648333335,62.0,85.0
1065,205.17433729583334,205.52236913958336,64.0,83.0
1066,204.08104354583335,205.77382670208334,48.0,87.0
1067,204.29970229583336,205.78840395208334,55.0,72.0
1068,204.08104354583335,205.89044470208336,36.0,70.0
1069,205.61165479583335,206.32047357708336,67.0,75.0
1070,206.26763104583335,206.39882629583335,60.0,79.0
1071,206.04897229583335,206.57557545208334,55.0,74.0
1072,206.48628979583336,206.82885517083335,60.0,86.0
1073,206.48628979583336,207.05480254583335,67.0,84.0
1074,207.14226604583337,207.26799482708336,60.0,82.0
1075,205.83031354583335,207.35545832708334,48.0,83.0
1076,206.70494854583336,207.44109967083335,55.0,80.0
1077,207.36092479583334,207.52856317083337,60.0,76.0
1078,207.14226604583337,207.55225120208334,36.0,75.0
1079,207.14226604583337,207.58505001458335,64.0,84.0
1080,207.57958354583334,208.04787770208335,57.0,82.0
1081,207.57958354583334,208.15720707708334,62.0,83.0
1082,208.23555979583335,208.63278985833335,57.0,87.0
1083,208.01690104583335,208.75305217083334,45.0,77.0
1084,207.57958354583334,208.77674020208335,38.0,86.0
1085,208.89153604583336,208.98628817083335,57.0,49.0
1086,208.67287729583336,209.01544267083335,62.0,86.0
1087,208.67287729583336,209.03913070208336,66.0,93.0
1088,209.11019479583337,209.39991763958335,57.0,83.0
1089,209.32885354583334,209.55115660833334,62.0,85.0
1090,209.32885354583334,209.64955304583336,66.0,82.0
1091,209.76617104583335,209.86456748333336,62.0,91.0
1092,209.54751229583334,210.09962563958334,57.0,76.0
1093,209.98482979583335,210.25815323333336,62.0,86.0
1094,209.98482979583335,210.25997538958336,66.0,84.0
1095,209.98482979583335,210.28366342083336,69.0,86.0
1096,210.20348854583335,210.48956707708334,57.0,79.0
1097,210.42214729583335,210.64809467083336,62.0,84.0
1098,210.42214729583335,210.99430435833335,66.0,83.0
1099,209.32885354583334,211.01252592083335,50.0,83.0
1100,210.42214729583335,211.04350257708336,69.0,83.0
1101,210.64080604583336,211.06536845208336,57.0,75.0
1102,210.85946479583336,211.07265707708336,62.0,81.0
1103,210.42214729583335,211.07812354583336,74.0,84.0
1104,211.07812354583336,211.34780267083335,55.0,77.0
1105,211.07812354583336,211.34962482708335,62.0,83.0
1106,211.51544104583334,211.66303570208336,55.0,81.0
1107,211.73409979583334,212.19692748333335,55.0,84.0
1108,211.73409979583334,212.20786042083336,62.0,86.0
1109,211.29678229583334,212.65975517083336,50.0,72.0
1110,211.07812354583336,212.67251026458337,43.0,83.0
1111,212.60873479583336,213.06609601458337,55.0,87.0
1112,212.39007604583335,213.12258285833335,67.0,76.0
1113,212.39007604583335,213.33759729583335,62.0,83.0
1114,213.26471104583334,213.37039610833335,55.0,83.0
1115,213.04605229583336,213.63278660833336,50.0,73.0
1116,213.48336979583334,213.78766988958336,55.0,84.0
1117,212.82739354583336,214.04277176458334,43.0,82.0
1118,213.48336979583334,214.46004554583334,62.0,84.0
1119,214.13934604583335,214.47462279583334,42.0,85.0
1120,213.92068729583335,214.48008926458334,50.0,79.0
1121,214.35800479583335,214.66594920208337,55.0,89.0
1122,215.01398104583336,215.44765423333337,52.0,83.0
1123,215.23263979583334,215.68271238958334,64.0,83.0
1124,215.23263979583334,215.71915551458335,59.0,83.0
1125,215.23263979583334,215.72097767083335,55.0,84.0
1126,214.57666354583336,216.15282870208335,40.0,91.0
1127,214.79532229583336,216.15465085833335,47.0,73.0
1128,215.88861604583334,216.18927182708336,64.0,84.0
1129,216.10727479583335,216.46259526458334,52.0,83.0
1130,215.88861604583334,216.49903838958335,59.0,83.0
1131,215.88861604583334,216.51361563958335,55.0,83.0
1132,216.76325104583336,216.86164748333334,52.0,69.0
1133,216.98190979583336,217.14772601458336,52.0,78.0
1134,216.98190979583336,217.51397942083335,55.0,82.0
1135,216.98190979583336,217.53037882708335,62.0,83.0
1136,216.54459229583335,217.62513095208334,47.0,73.0
1137,216.32593354583335,217.64153035833334,40.0,84.0
1138,217.63788604583334,217.98774004583333,62.0,86.0
1139,218.07520354583335,218.35763776458336,55.0,76.0
1140,218.07520354583335,218.56536357708336,60.0,77.0
1141,218.51252104583335,218.63824982708334,55.0,78.0
1142,218.73117979583336,218.80406604583334,55.0,71.0
1143,218.73117979583336,219.25596079583335,60.0,85.0
1144,218.73117979583336,219.27782667083335,64.0,84.0
1145,218.29386229583335,219.28329313958335,52.0,75.0
1146,218.07520354583335,219.32520273333336,48.0,88.0
1147,219.38715604583336,219.65319085833335,60.0,85.0
1148,219.60581479583334,219.68963398333335,55.0,75.0
1149,219.38715604583336,219.74429867083336,64.0,83.0
1150,219.82447354583334,220.07957542083335,57.0,74.0
1151,219.82447354583334,220.17979401458336,62.0,82.0
1152,220.26179104583335,220.40209707708334,57.0,80.0
1153,220.48044979583335,220.88132417083335,57.0,79.0
1154,220.48044979583335,220.90319004583336,62.0,82.0
1155,220.04313229583335,221.01616373333334,45.0,69.0
1156,219.82447354583334,221.05989548333335,38.0,85.0
1157,221.13642604583336,221.40974948333334,66.0,84.0
1158,221.13642604583336,221.42250457708334,62.0,83.0
1159,221.35508479583336,221.43343751458335,57.0,75.0
1160,221.57374354583334,221.85617776458335,55.0,82.0
1161,221.57374354583334,221.93453048333336,59.0,81.0
1162,222.01106104583334,222.09488023333336,55.0,70.0
1163,222.22971979583335,222.50486538958336,62.0,83.0
1164,222.22971979583335,222.54313067083336,55.0,83.0
1165,222.66703729583335,222.86383017083335,55.0,83.0
1166,222.66703729583335,222.96951523333337,59.0,85.0
1167,223.10435479583336,223.18817398333334,55.0,69.0
1168,221.57374354583334,223.23372788958335,43.0,83.0
1169,221.79240229583334,223.24466082708335,50.0,72.0
1170,223.32301354583336,223.57082679583334,55.0,82.0
1171,223.32301354583336,223.61455854583335,62.0,81.0
1172,223.76033104583337,223.87694904583336,55.0,74.0
1173,223.97898979583334,224.25960185833335,55.0,83.0
1174,223.54167229583334,224.32155517083334,50.0,73.0
1175,223.97898979583334,224.37075338958334,59.0,89.0
1176,223.32301354583336,224.50741510833336,43.0,83.0
1177,224.41630729583335,224.58941213958335,50.0,82.0
1178,224.63496604583335,224.76616129583334,55.0,93.0
1179,225.07228354583336,225.29276445208336,59.0,84.0
1180,225.07228354583336,225.40027167083335,63.0,82.0
1181,225.50960104583334,225.61893042083335,59.0,82.0
1182,225.72825979583337,226.34961507708334,59.0,83.0
1183,225.72825979583337,226.40245760833335,63.0,85.0
1184,225.72825979583337,226.45530013958336,66.0,79.0
1185,225.07228354583336,226.57738460833335,47.0,84.0
1186,226.38423604583335,226.72315710833334,54.0,76.0
1187,226.60289479583335,227.04385660833336,59.0,93.0
1188,226.82155354583335,227.14043088958334,63.0,87.0
1189,226.82155354583335,227.31718004583337,66.0,83.0
1190,227.25887104583336,227.38095551458335,59.0,82.0
1191,227.04021229583336,227.60508073333335,54.0,71.0
1192,227.47752979583333,227.78000773333335,59.0,79.0
1193,227.47752979583333,227.85107182708336,71.0,82.0
1194,227.47752979583333,228.00777726458335,63.0,76.0
1195,227.69618854583337,228.01871020208335,54.0,65.0
1196,227.47752979583333,228.03146529583336,66.0,74.0
1197,227.91484729583334,228.10981801458337,59.0,82.0
1198,226.82155354583335,228.16994917083335,47.0,87.0
1199,228.13350604583334,228.44327260833336,63.0,74.0
1200,228.35216479583335,228.52526963958334,59.0,79.0
1201,228.13350604583334,228.64370979583336,69.0,83.0
1202,228.57082354583335,228.96805360833335,67.0,75.0
1203,229.00814104583336,229.11929257708334,64.0,78.0
1204,228.78948229583335,229.68780532708337,47.0,77.0
1205,229.22679979583336,229.89006467083334,64.0,85.0
1206,228.57082354583335,230.02308207708336,40.0,84.0
1207,229.22679979583336,230.05223657708336,67.0,83.0
1208,230.10143479583334,230.23263004583336,64.0,82.0
1209,229.88277604583334,230.32009354583334,47.0,85.0
1210,230.32009354583334,230.60434992083336,62.0,76.0
1211,230.32009354583334,230.83029729583336,67.0,82.0
1212,230.75741104583335,230.87767335833337,62.0,87.0
1213,230.53875229583335,231.48445138958334,45.0,77.0
1214,230.97606979583335,231.64297898333336,62.0,88.0
1215,230.97606979583335,231.75048620208335,67.0,83.0
1216,230.32009354583334,231.75595267083335,38.0,87.0
1217,231.63204604583336,231.86528204583334,45.0,80.0
1218,231.85070479583334,231.88714792083334,67.0,49.0
1219,231.85070479583334,232.11673960833335,62.0,84.0
1220,232.5067076916667,232.81555272708334,60.0,74.0
1221,232.72600594166667,233.24866677083335,62.0,85.0
1222,233.1646024416667,233.51365215625,64.0,83.0
1223,232.06936354583334,233.76584514375,48.0,87.0
1224,232.28802229583334,233.78046502708335,55.0,72.0
1225,232.06936354583334,233.88280421041668,36.0,70.0
1226,233.60319894166668,234.31409076875002,67.0,75.0
1227,234.26109369166667,234.39267264166668,60.0,79.0
1228,234.04179544166666,234.56993872708335,55.0,74.0
1229,234.48039194166668,234.82395920000002,60.0,86.0
1230,234.48039194166668,235.05056739166668,67.0,84.0
1231,235.13828669166668,235.26438318541668,60.0,82.0
1232,233.82249719166668,235.35210248541668,48.0,83.0
1233,234.6996901916667,235.4379943,55.0,80.0
1234,235.3575849416667,235.52571360000002,60.0,76.0
1235,235.13828669166668,235.5494709104167,36.0,75.0
1236,235.13828669166668,235.58236564791667,64.0,84.0
1237,235.57688319166667,236.04654694375,57.0,82.0
1238,235.57688319166667,236.15619606875,62.0,83.0
1239,236.2347779416667,236.63316976250002,57.0,87.0
1240,236.01547969166668,236.7537838,45.0,77.0
1241,235.57688319166667,236.77754111041668,38.0,86.0
1242,236.8926726916667,236.98770193333334,57.0,49.0
1243,236.67337444166668,237.01694170000002,62.0,86.0
1244,236.67337444166668,237.0406990104167,66.0,93.0
1245,237.11197094166667,237.4025411229167,57.0,83.0
1246,237.33126919166668,237.55422241250002,62.0,85.0
1247,237.33126919166668,237.652906625,66.0,82.0
1248,237.76986569166667,237.86854990416668,62.0,91.0
1249,237.5505674416667,238.1042955229167,57.0,76.0
1250,237.98916394166667,238.26328675416667,62.0,86.0
1251,237.98916394166667,238.26511423958334,66.0,84.0
1252,237.98916394166667,238.28887155,69.0,86.0
1253,238.20846219166668,238.49537740208334,57.0,79.0
1254,238.4277604416667,238.65436863333335,62.0,84.0
1255,238.4277604416667,239.00159086250002,66.0,83.0
1256,237.33126919166668,239.0198657166667,50.0,83.0
1257,238.4277604416667,239.05093296875,69.0,83.0
1258,238.64705869166667,239.07286279375,57.0,75.0
1259,238.86635694166668,239.08017273541668,62.0,81.0
1260,238.4277604416667,239.0856551916667,74.0,84.0
1261,239.0856551916667,239.62110841875003,62.0,82.0
1262,239.0856551916667,239.62476338958334,67.0,73.0
1263,239.74354994166669,240.22783357708335,62.0,81.0
1264,239.74354994166669,240.24610843125,67.0,82.0
1265,239.52425169166668,240.29362305208335,55.0,84.0
1266,239.30495344166667,240.62622539791667,50.0,73.0
1267,239.0856551916667,240.6463277375,43.0,82.0
1268,240.40144469166668,240.7121172125,67.0,81.0
1269,240.6207429416667,240.9314154625,55.0,81.0
1270,240.40144469166668,241.33163476875,62.0,79.0
1271,240.84004119166667,241.35721956458335,67.0,81.0
1272,241.2786376916667,241.6021026104167,55.0,82.0
1273,241.49793594166667,241.81774588958334,62.0,82.0
1274,241.49793594166667,241.8323657729167,67.0,82.0
1275,241.93653244166669,242.29654706875002,67.0,82.0
1276,241.05933944166668,242.31116695208334,50.0,74.0
1277,240.84004119166667,242.49026052291669,43.0,84.0
1278,242.15583069166667,242.58346227916667,55.0,82.0
1279,242.59442719166668,243.03302369166667,67.0,80.0
1280,243.03302369166667,243.70005586875,55.0,83.0
1281,243.25232194166668,243.72198569375,67.0,86.0
1282,243.69091844166667,243.97235119583334,60.0,78.0
1283,242.59442719166668,244.20261435833334,48.0,83.0
1284,242.8137254416667,244.21357927083335,52.0,66.0
1285,243.91021669166668,244.53338921875002,55.0,84.0
1286,244.12951494166668,244.84040676875,60.0,83.0
1287,244.12951494166668,244.85319916666668,67.0,82.0
1288,245.0067079416667,245.34479274375002,60.0,85.0
1289,245.0067079416667,245.34844771458336,67.0,83.0
1290,244.78740969166668,245.51292140208335,55.0,82.0
1291,244.3488131916667,245.69018748750003,48.0,91.0
1292,244.56811144166667,245.89852082500002,52.0,74.0
1293,245.44530444166668,245.89852082500002,60.0,82.0
1294,245.44530444166668,246.0045149791667,67.0,81.0
1295,246.10319919166668,246.36087463541668,57.0,77.0
1296,246.10319919166668,246.61855007916668,60.0,79.0
1297,246.5417956916667,246.70992435000002,57.0,69.0
1298,246.76109394166667,247.10283371458334,57.0,75.0
1299,246.76109394166667,247.10648868541668,64.0,82.0
1300,246.76109394166667,247.11562611250002,60.0,76.0
1301,247.1996904416667,247.37512904166667,64.0,84.0
1302,247.1996904416667,247.41898869166667,57.0,80.0
1303,247.1996904416667,247.50853547708334,60.0,83.0
1304,246.32249744166668,247.72052378541667,52.0,75.0
1305,246.10319919166668,247.72600624166668,45.0,82.0
1306,247.8575851916667,248.14084543125,60.0,80.0
1307,247.8575851916667,248.14998285833335,64.0,74.0
1308,247.8575851916667,248.16277525625,67.0,75.0
1309,248.29618169166667,248.4387255541667,57.0,76.0
1310,248.07688344166667,248.65619631875,52.0,77.0
1311,248.51547994166668,248.78960275416668,57.0,74.0
1312,248.51547994166668,248.82067000625003,64.0,84.0
1313,248.51547994166668,248.82432497708334,60.0,82.0
1314,248.95407644166667,249.01621094583334,57.0,78.0
1315,248.7347781916667,249.07834545000003,52.0,77.0
1316,247.8575851916667,249.2227167979167,45.0,83.0
1317,248.95407644166667,249.25195656458334,60.0,88.0
1318,248.95407644166667,249.31409106875,64.0,88.0
1319,249.61197119166667,249.8422343541667,55.0,77.0
1320,249.61197119166667,250.09077237083335,60.0,79.0
1321,250.2698659416667,250.591503375,67.0,82.0
1322,250.05056769166669,250.59881331666668,55.0,77.0
1323,250.2698659416667,250.62439811250002,60.0,82.0
1324,249.61197119166667,250.723082325,48.0,83.0
1325,250.70846244166668,250.75597706250002,55.0,72.0
1326,249.83126944166668,250.76511448958334,52.0,78.0
1327,250.70846244166668,250.98441273958335,60.0,83.0
1328,250.70846244166668,251.30422268750002,67.0,80.0
1329,251.36635719166668,251.512556025,57.0,82.0
1330,251.36635719166668,251.81591860416668,66.0,82.0
1331,251.5856554416667,251.8871905354167,57.0,71.0
1332,251.8049536916667,251.94384258333335,62.0,73.0
1333,252.02425194166668,252.28192738541668,57.0,73.0
1334,252.02425194166668,252.32030457916667,62.0,82.0
1335,252.02425194166668,253.16277535625002,66.0,81.0
1336,252.46284844166667,253.16643032708333,62.0,82.0
1337,253.1207431916667,253.16643032708333,62.0,82.0
1338,252.68214669166667,253.18836015208336,57.0,75.0
1339,251.36635719166668,253.19384260833334,50.0,91.0
1340,253.1207431916667,253.65985138958334,67.0,73.0
1341,253.7786379416667,254.26292157708335,62.0,81.0
1342,253.7786379416667,254.28119643125,67.0,82.0
1343,253.55933969166668,254.32871105208335,55.0,84.0
1344,253.34004144166667,254.66131339791667,50.0,73.0
1345,253.1207431916667,254.6814157375,43.0,82.0
1346,254.43653269166668,254.7472052125,67.0,81.0
1347,254.6558309416667,254.96650346250001,55.0,81.0
1348,254.43653269166668,255.36672276875,62.0,79.0
1349,254.87512919166667,255.39230756458335,67.0,81.0
1350,255.3137256916667,255.63719061041667,55.0,82.0
1351,255.53302394166667,255.85283388958334,62.0,82.0
1352,255.53302394166667,255.8674537729167,67.0,82.0
1353,255.9716204416667,256.33163506875,67.0,82.0
1354,255.09442744166668,256.34625495208337,50.0,74.0
1355,254.87512919166667,256.52534852291666,43.0,84.0
1356,256.1909186916667,256.6185502791667,55.0,82.0
1357,256.62951519166666,257.0681116916667,67.0,80.0
1358,257.0681116916667,257.73514386875,55.0,83.0
1359,257.2874099416667,257.75707369375004,67.0,86.0
1360,257.7260064416667,258.00743919583334,60.0,78.0
1361,256.62951519166666,258.23770235833337,48.0,83.0
1362,256.84881344166666,258.2486672708333,52.0,66.0
1363,257.9453046916667,258.56847721875,55.0,84.0
1364,258.16460294166666,258.87549476875,60.0,83.0
1365,258.16460294166666,258.88828716666666,67.0,82.0
1366,259.0417959416667,259.37988074375,60.0,85.0
1367,259.0417959416667,259.38353571458333,67.0,83.0
1368,258.8224976916667,259.5480094020833,55.0,82.0
1369,258.38390119166667,259.7252754875,48.0,91.0
1370,258.6031994416667,259.933608825,52.0,74.0
1371,259.4803924416667,259.933608825,60.0,82.0
1372,259.4803924416667,260.03960297916666,67.0,81.0
1373,260.1382871916667,260.3959626354167,57.0,77.0
1374,260.1382871916667,260.6536380791667,60.0,79.0
1375,260.5768836916667,260.74501235,57.0,69.0
1376,260.7961819416667,261.13792171458334,57.0,75.0
1377,260.7961819416667,261.1415766854167,64.0,82.0
1378,260.7961819416667,261.1507141125,60.0,76.0
1379,261.23477844166666,261.41021704166667,64.0,84.0
1380,261.23477844166666,261.45407669166667,57.0,80.0
1381,261.23477844166666,261.5436234770834,60.0,83.0
1382,260.3575854416667,261.7556117854167,52.0,75.0
1383,260.1382871916667,261.7610942416667,45.0,82.0
1384,261.8926731916667,262.17593343125003,60.0,80.0
1385,261.8926731916667,262.18507085833335,64.0,74.0
1386,261.8926731916667,262.19786325625,67.0,75.0
1387,262.3312696916667,262.47381355416667,57.0,76.0
1388,262.1119714416667,262.69128431875004,52.0,77.0
1389,262.55056794166666,262.8246907541667,57.0,74.0
1390,262.55056794166666,262.85575800625,64.0,84.0
1391,262.55056794166666,262.85941297708337,60.0,82.0
1392,262.9891644416667,263.05129894583337,57.0,78.0
1393,262.76986619166667,263.11343345,52.0,77.0
1394,261.8926731916667,263.25780479791666,45.0,83.0
1395,262.9891644416667,263.28704456458337,60.0,88.0
1396,262.9891644416667,263.34917906875,64.0,88.0
1397,263.6470591916667,263.87732235416667,55.0,77.0
1398,263.6470591916667,264.1258603708333,60.0,79.0
1399,264.30495394166667,264.62659137500003,67.0,82.0
1400,264.08565569166666,264.63390131666665,55.0,77.0
1401,264.30495394166667,264.6594861125,60.0,82.0
1402,263.6470591916667,264.75817032500004,48.0,83.0
1403,264.7435504416667,264.7910650625,55.0,72.0
1404,263.8663574416667,264.80020248958334,52.0,78.0
1405,264.7435504416667,265.01950073958335,60.0,83.0
1406,264.7435504416667,265.3393106875,67.0,80.0
1407,265.40144519166665,265.547644025,57.0,82.0
1408,265.40144519166665,265.8510066041667,66.0,82.0
1409,265.62074344166666,265.9222785354167,57.0,71.0
1410,265.84004169166667,265.97893058333335,62.0,73.0
1411,266.0593399416667,266.31701538541665,57.0,73.0
1412,266.0593399416667,266.3553925791667,62.0,82.0
1413,266.0593399416667,267.19786335625,66.0,81.0
1414,266.4979364416667,267.20151832708336,62.0,82.0
1415,266.7172346916667,267.22344815208334,57.0,75.0
1416,265.40144519166665,267.22893060833337,50.0,91.0
