,start,end,pitch,velocity
0,21.771535758333336,22.288776758333334,67.0,119.0
1,22.288776758333334,22.547397258333334,72.0,113.0
2,22.547397258333334,22.806017758333333,69.0,114.0
3,22.806017758333333,23.3211035875,67.0,117.0
4,23.323258758333335,23.840499758333333,67.0,117.0
5,23.840499758333333,24.099120258333333,64.0,113.0
6,24.099120258333333,24.357740758333335,67.0,108.0
7,24.357740758333335,24.616361258333335,69.0,114.0
8,24.616361258333335,24.874981758333334,72.0,100.0
9,24.874981758333334,25.390067587500003,67.0,119.0
10,25.392222758333336,25.909463758333334,67.0,117.0
11,25.909463758333334,26.426704758333333,69.0,117.0
12,26.426704758333333,26.685325258333336,67.0,94.0
13,26.685325258333336,26.943945758333335,64.0,100.0
14,26.943945758333335,27.4590315875,62.0,114.0
15,27.461186758333334,27.978427758333336,62.0,113.0
16,27.978427758333336,28.495668758333334,64.0,114.0
17,28.495668758333334,28.754289258333333,67.0,108.0
18,28.754289258333333,29.012909758333336,64.0,110.0
19,29.012909758333336,29.530150758333335,62.0,113.0
20,29.530150758333335,30.047391758333333,60.0,116.0
21,30.015064195833336,30.532305195833334,69.0,116.0
22,30.532305195833334,31.049546195833333,67.0,119.0
23,31.049546195833333,31.566787195833335,69.0,119.0
24,31.566787195833335,32.08402819583333,67.0,116.0
25,32.08402819583333,32.60126919583333,64.0,114.0
26,32.60126919583333,33.11851019583334,69.0,116.0
27,33.11851019583334,34.150837025,67.0,119.0
28,34.152992195833335,34.409457525,67.0,116.0
29,34.411612695833334,34.67023319583333,67.0,110.0
30,34.67023319583333,34.92885369583333,64.0,114.0
31,34.92885369583333,35.18747419583333,62.0,108.0
32,35.18747419583333,36.219801025,60.0,104.0
33,36.221956195833336,36.478421525,60.0,108.0
34,36.480576695833335,36.739197195833334,60.0,102.0
35,36.739197195833334,36.997817695833334,62.0,107.0
36,36.997817695833334,37.25643819583333,64.0,113.0
37,37.25643819583333,38.32324775833334,60.0,113.0
38,46.46979350833333,46.98703450833334,67.0,119.0
39,46.98703450833334,47.24565500833334,72.0,113.0
40,47.24565500833334,47.504275508333336,69.0,114.0
41,47.504275508333336,48.0193613375,67.0,117.0
42,48.021516508333335,48.53875750833333,67.0,117.0
43,48.53875750833333,48.79737800833333,64.0,113.0
44,48.79737800833333,49.05599850833334,67.0,108.0
45,49.05599850833334,49.31461900833334,69.0,114.0
46,49.31461900833334,49.57323950833334,72.0,100.0
47,49.57323950833334,50.0883253375,67.0,119.0
48,50.090480508333336,50.607721508333334,67.0,117.0
49,50.607721508333334,51.12496250833333,69.0,117.0
50,51.12496250833333,51.38358300833333,67.0,94.0
51,51.38358300833333,51.64220350833334,64.0,100.0
52,51.64220350833334,52.1572893375,62.0,114.0
53,52.15944450833334,52.676685508333335,62.0,113.0
54,52.676685508333335,53.193926508333334,64.0,114.0
55,53.193926508333334,53.45254700833333,67.0,108.0
56,53.45254700833333,53.71116750833333,64.0,110.0
57,53.71116750833333,54.22840850833334,62.0,113.0
58,54.22840850833334,54.74564950833334,60.0,116.0
59,54.74564950833334,55.262890508333335,69.0,116.0
60,55.262890508333335,55.780131508333334,67.0,119.0
61,55.780131508333334,56.29737250833333,69.0,119.0
62,56.29737250833333,56.81461350833334,67.0,116.0
63,56.81461350833334,57.331854508333336,64.0,114.0
64,57.331854508333336,57.849095508333335,69.0,116.0
65,57.849095508333335,58.881422337500005,67.0,119.0
66,58.88357750833334,59.140042837500005,67.0,116.0
67,59.14219800833334,59.40081850833334,67.0,110.0
68,59.40081850833334,59.65943900833334,64.0,114.0
69,59.65943900833334,59.918059508333336,62.0,108.0
70,59.918059508333336,60.9503863375,60.0,104.0
71,60.95254150833333,61.209006837500006,60.0,108.0
72,61.21116200833334,61.46978250833334,60.0,102.0
73,61.46978250833334,61.72840300833334,62.0,107.0
74,61.72840300833334,61.98702350833334,64.0,113.0
75,61.98702350833334,63.15081575833334,60.0,113.0
76,71.29736150833334,71.81460250833334,67.0,119.0
77,71.81460250833334,72.07322300833333,72.0,113.0
78,72.07322300833333,72.33184350833334,69.0,114.0
79,72.33184350833334,72.8469293375,67.0,117.0
80,72.84908450833333,73.36632550833333,67.0,117.0
81,73.36632550833333,73.62494600833334,64.0,113.0
82,73.62494600833334,73.88356650833333,67.0,108.0
83,73.88356650833333,74.14218700833334,69.0,114.0
84,74.14218700833334,74.40080750833333,72.0,100.0
85,74.40080750833333,74.91589333750001,67.0,119.0
86,74.91804850833334,75.43528950833334,67.0,117.0
87,75.43528950833334,75.95253050833334,69.0,117.0
88,75.95253050833334,76.21115100833333,67.0,94.0
89,76.21115100833333,76.46977150833334,64.0,100.0
90,76.46977150833334,76.9848573375,62.0,114.0
91,76.98701250833334,77.50425350833333,62.0,113.0
92,77.50425350833333,78.02149450833333,64.0,114.0
93,78.02149450833333,78.28011500833334,67.0,108.0
94,78.28011500833334,78.53873550833333,64.0,110.0
95,78.53873550833333,79.05597650833333,62.0,113.0
96,79.05597650833333,79.44390725833334,60.0,116.0
97,79.63787263333333,80.15511363333334,69.0,116.0
98,80.15511363333334,80.67235463333334,67.0,119.0
99,80.67235463333334,81.18959563333334,69.0,119.0
100,81.18959563333334,81.70683663333334,67.0,116.0
101,81.70683663333334,82.22407763333334,64.0,114.0
102,82.22407763333334,82.74131863333334,69.0,116.0
103,82.74131863333334,83.7736454625,67.0,119.0
104,83.77580063333333,84.0322659625,67.0,116.0
105,84.03442113333334,84.29304163333333,67.0,110.0
106,84.29304163333333,84.55166213333334,64.0,114.0
107,84.55166213333334,84.81028263333333,62.0,108.0
108,84.81028263333333,85.84260946250001,60.0,104.0
109,85.84476463333334,86.1012299625,60.0,108.0
110,86.10338513333333,86.36200563333334,60.0,102.0
111,86.36200563333334,86.62062613333333,62.0,107.0
112,86.62062613333333,86.87924663333334,64.0,113.0
113,86.87924663333334,87.97838375833334,60.0,113.0
114,96.25423975833334,96.77148075833334,67.0,119.0
115,96.77148075833334,97.03010125833333,72.0,113.0
116,97.03010125833333,97.28872175833334,69.0,114.0
117,97.28872175833334,97.8038075875,67.0,117.0
118,97.80596275833334,98.32320375833334,67.0,117.0
119,98.32320375833334,98.58182425833334,64.0,113.0
120,98.58182425833334,98.84044475833333,67.0,108.0
121,98.84044475833333,99.09906525833334,69.0,114.0
122,99.09906525833334,99.35768575833333,72.0,100.0
123,99.35768575833333,99.8727715875,67.0,119.0
124,99.87492675833333,100.39216775833334,67.0,117.0
125,100.39216775833334,100.90940875833334,69.0,117.0
126,100.90940875833334,101.16802925833333,67.0,94.0
127,101.16802925833333,101.42664975833334,64.0,100.0
128,101.42664975833334,101.9417355875,62.0,114.0
129,101.94389075833334,102.46113175833334,62.0,113.0
130,102.46113175833334,102.97837275833334,64.0,114.0
131,102.97837275833334,103.23699325833334,67.0,108.0
132,103.23699325833334,103.49561375833333,64.0,110.0
133,103.49561375833333,104.01285475833333,62.0,113.0
134,104.01285475833333,104.53009575833333,60.0,116.0
135,104.56242332083333,105.07966432083333,69.0,116.0
136,105.07966432083333,105.59690532083334,67.0,119.0
137,105.59690532083334,106.11414632083334,69.0,119.0
138,106.11414632083334,106.63138732083334,67.0,116.0
139,106.63138732083334,107.14862832083334,64.0,114.0
140,107.14862832083334,107.66586932083334,69.0,116.0
141,107.66586932083334,108.69819615,67.0,119.0
142,108.70035132083333,108.95681665000001,67.0,116.0
143,108.95897182083334,109.21759232083333,67.0,110.0
144,109.21759232083333,109.47621282083334,64.0,114.0
145,109.47621282083334,109.73483332083333,62.0,108.0
146,109.73483332083333,110.73698775833334,60.0,104.0
147,110.83397044583334,111.090435775,60.0,108.0
148,111.09259094583334,111.35121144583334,60.0,102.0
149,111.35121144583334,111.60983194583333,62.0,107.0
150,111.60983194583333,111.86845244583334,64.0,113.0
151,111.86845244583334,112.80595175833334,60.0,113.0
