,start,end,pitch,velocity
0,19.466779281250002,19.615009104166667,69.0,90.0
1,19.73226553125,19.935804989583335,71.0,88.0
2,19.997751781250003,20.433591708333335,73.0,87.0
3,20.52872428125,20.9070421875,69.0,91.0
4,21.05969678125,21.522085333333333,71.0,92.0
5,21.59066928125,21.741111489583336,69.0,90.0
6,21.85615553125,22.263234447916666,66.0,89.0
7,22.38712803125,23.11721521875,71.0,88.0
8,23.71455928125,24.126062968750002,69.0,88.0
9,24.24553178125,24.579601979166668,69.0,90.0
10,24.776504281250002,25.143760260416666,66.0,90.0
11,25.30747678125,25.767652947916666,64.0,93.0
12,25.83844928125,26.033139197916668,73.0,85.0
13,26.103935531250002,27.249951177083336,73.0,88.0
14,27.96233928125,28.12163103125,69.0,86.0
15,28.22782553125,28.41587829166667,71.0,86.0
16,28.49331178125,28.882691614583333,73.0,88.0
17,29.02428428125,29.380478333333336,69.0,91.0
18,29.55525678125,29.986671937500002,71.0,90.0
19,30.086229281250002,30.223397177083335,73.0,89.0
20,30.35171553125,31.064103635416668,66.0,90.0
21,31.14817428125,31.362775666666668,66.0,87.0
22,31.413660531250002,31.612775218750002,68.0,90.0
23,31.67914678125,32.06188945833333,69.0,87.0
24,32.21011928125,32.35171194791667,69.0,88.0
25,32.475605531250004,33.132684000000005,69.0,90.0
26,33.27206428125,33.79197485416667,71.0,88.0
27,33.80303678125,35.01099921875,71.0,93.0
28,36.45789928125,36.60612910416667,69.0,90.0
29,36.72338553125,36.926924989583334,71.0,88.0
30,36.988871781250005,37.424711708333334,73.0,87.0
31,37.51984428125,37.8981621875,69.0,91.0
32,38.05081678125,38.51320533333333,71.0,92.0
33,38.58178928125,38.732231489583334,69.0,90.0
34,38.84727553125,39.25435444791667,66.0,89.0
35,39.37824803125,40.10833521875,71.0,88.0
36,40.70567928125,41.11718296875,69.0,88.0
37,41.23665178125,41.57072197916667,69.0,90.0
38,41.76762428125,42.134880260416665,66.0,90.0
39,42.298596781250005,42.75877294791667,64.0,93.0
40,42.82956928125,43.02425919791667,73.0,85.0
41,43.095055531250004,44.241071177083334,73.0,88.0
42,44.953459281250005,45.11275103125,69.0,86.0
43,45.21894553125,45.40699829166667,71.0,86.0
44,45.48443178125,45.87381161458333,73.0,88.0
45,46.01540428125,46.37159833333334,69.0,91.0
46,46.546376781250004,46.9777919375,71.0,90.0
47,47.07734928125,47.21451717708334,69.0,89.0
48,47.34283553125,48.05522363541667,71.0,90.0
49,48.13929428125,48.67026678125,66.0,87.0
50,49.201239281250004,49.46672553125,64.0,90.0
51,49.73221178125,50.163626937500005,64.0,95.0
52,50.263184281250005,50.52867053125,71.0,88.0
53,50.52867053125,51.59061553125,71.0,89.0
54,51.856101781250004,51.99769444791667,69.0,93.0
55,52.12158803125,52.24990638541667,71.0,88.0
56,52.38707428125,52.58618896875,73.0,93.0
57,52.65256053125,52.818489437500006,69.0,89.0
58,52.918046781250005,55.01760054166667,73.0,92.0
59,55.04193678125,55.99547489583333,71.0,91.0
60,56.10388178125,56.254323989583334,69.0,88.0
61,56.369368031250005,56.54857125,71.0,92.0
62,56.63485428125,56.82511942708334,73.0,93.0
63,56.90034053125,57.04857035416667,69.0,92.0
64,57.165826781250004,57.57511808333334,73.0,92.0
65,57.69679928125,57.85609103125,73.0,95.0
66,57.962285531250004,58.32954151041667,73.0,90.0
67,58.49325803125,58.911398875,80.0,90.0
68,59.024230531250005,59.559627802083334,80.0,93.0
69,60.35166178125,60.530865000000006,78.0,97.0
70,60.617148031250004,60.73882922916667,80.0,93.0
71,60.882634281250006,61.075111812500005,81.0,89.0
72,61.14812053125,61.29413796875,80.0,93.0
73,61.41360678125,62.068472864583335,81.0,92.0
74,62.21006553125,62.88926785416667,81.0,95.0
75,63.00652428125,63.159178875,74.0,93.0
76,63.272010531250004,64.27643351041667,74.0,102.0
77,64.59944178125001,64.74103444791668,76.0,93.0
78,64.86492803125,65.07289226041667,73.0,86.0
79,65.13041428125,65.29855557291667,69.0,88.0
80,65.39590053125,65.58616567708333,71.0,87.0
81,65.66138678125,66.32289002083334,73.0,88.0
82,66.45784553125,67.15695932291666,73.0,91.0
83,67.25430428125,67.40253410416668,71.0,93.0
84,67.51979053125001,68.2166919375,71.0,93.0
85,68.31624928125001,68.74323966666667,76.0,100.0
86,68.84722178125,69.2255396875,76.0,91.0
87,69.37819428125,69.75872457291666,78.0,97.0
88,69.90916678125001,70.30518377083334,76.0,93.0
89,70.44013928125,70.58836910416667,69.0,92.0
90,70.70562553125,71.40031455208333,73.0,93.0
91,71.50208428125,71.69013704166667,74.0,97.0
92,71.76757053125,72.40031276041667,71.0,95.0
93,72.56402928125,72.99101966666667,76.0,90.0
94,73.09500178125,73.47110730208334,76.0,95.0
95,73.62597428125001,74.03969035416667,78.0,90.0
96,74.15694678125,74.55296377083333,76.0,90.0
97,74.68791928125,74.88703396875,64.0,92.0
98,74.95340553125,75.62154592708333,66.0,87.0
99,75.74986428125,75.8892445625,68.0,91.0
100,76.01535053125001,76.65472991666667,69.0,87.0
101,76.81180928125,77.21888819791667,76.0,90.0
102,77.34278178125,77.72994922916666,76.0,93.0
103,77.87375428125,78.28968273958334,78.0,95.0
104,78.40472678125,78.81180569791667,76.0,90.0
105,78.93569928125001,79.09277864583333,69.0,91.0
106,79.20118553125,80.01313097916668,69.0,91.0
107,80.52861678125001,80.92242138541667,76.0,93.0
108,81.05958928125,81.22109341666668,69.0,88.0
109,81.32507553125001,81.7299420625,69.0,92.0
110,81.85604803125,82.2609145625,71.0,90.0
111,82.38702053125,84.78745870833333,73.0,91.0
112,85.30736928125,85.73435966666668,76.0,100.0
113,85.83834178125001,86.2166596875,76.0,91.0
114,86.36931428125,86.74984457291667,78.0,97.0
115,86.90028678125,87.29630377083333,76.0,93.0
116,87.43125928125001,87.57948910416667,69.0,92.0
117,87.69674553125,88.39143455208334,73.0,93.0
118,88.49320428125,88.68125704166667,74.0,97.0
119,88.75869053125,89.39143276041668,71.0,95.0
120,89.55514928125001,89.98213966666667,76.0,90.0
121,90.08612178125,90.46222730208333,76.0,95.0
122,90.61709428125,91.03081035416668,78.0,90.0
123,91.14806678125001,91.54408377083334,80.0,90.0
124,91.67903928125,91.87815396875,81.0,92.0
125,91.94452553125001,92.61266592708334,83.0,87.0
126,92.74098428125001,92.8803645625,80.0,91.0
127,93.00647053125,93.64584991666668,81.0,87.0
128,94.86487428125001,95.28080273958334,78.0,95.0
129,95.39584678125,95.80391794791666,76.0,90.0
130,95.92847303125,96.08639108333333,69.0,91.0
131,96.19537678125,96.9975735125,69.0,91.0
132,96.9975735125,97.14712700416666,69.0,87.0
133,97.26543051249999,97.42391257083332,71.0,85.0
134,97.5332875125,97.92391230416666,74.0,90.0
135,98.0690015125,98.26542997916665,73.0,87.0
136,98.33685851249999,99.05784027083332,69.0,91.0
137,99.14042951249999,99.68730422083333,71.0,90.0
138,99.67614351249999,101.51850770416667,69.0,89.0
139,117.16747093749998,117.31570076041665,69.0,90.0
140,117.43295718749998,117.63649664583332,71.0,88.0
141,117.69844343749999,118.13428336458333,73.0,87.0
142,118.2294159375,118.60773384374998,69.0,91.0
143,118.76038843749998,119.22277698958332,71.0,92.0
144,119.29136093749999,119.44180314583332,69.0,90.0
145,119.55684718749998,119.96392610416666,66.0,89.0
146,120.08781968749999,120.81790687499999,71.0,88.0
147,121.41525093749999,121.82675462499999,69.0,88.0
148,121.94622343749998,122.28029363541665,69.0,90.0
149,122.47719593749999,122.84445191666666,66.0,90.0
150,123.00816843749999,123.46834460416666,64.0,93.0
151,123.53914093749998,123.73383085416665,73.0,85.0
152,123.80462718749999,124.95064283333332,73.0,88.0
153,125.66303093749998,125.82232268749999,69.0,86.0
154,125.92851718749999,126.11656994791666,71.0,86.0
155,126.19400343749999,126.58338327083332,73.0,88.0
156,126.72497593749999,127.08116998958332,69.0,91.0
157,127.25594843749998,127.68736359374999,71.0,90.0
158,127.78692093749999,127.92408883333331,73.0,89.0
159,128.0524071875,128.76479529166664,66.0,90.0
160,128.8488659375,129.06346732291667,66.0,87.0
161,129.11435218749997,129.313466875,68.0,90.0
162,129.37983843749998,129.76258111458333,69.0,87.0
163,129.91081093749997,130.05240360416664,69.0,88.0
164,130.17629718749998,130.83337565624998,69.0,90.0
165,130.97275593749998,131.49266651041665,71.0,88.0
166,131.5037284375,132.711690875,71.0,93.0
167,134.15859093749998,134.30682076041666,69.0,90.0
168,134.4240771875,134.6276166458333,71.0,88.0
169,134.6895634375,135.12540336458332,73.0,87.0
170,135.2205359375,135.59885384375,69.0,91.0
171,135.75150843749998,136.21389698958333,71.0,92.0
172,136.2824809375,136.4329231458333,69.0,90.0
173,136.54796718749998,136.95504610416666,66.0,89.0
174,137.0789396875,137.80902687499997,71.0,88.0
175,138.4063709375,138.817874625,69.0,88.0
176,138.93734343749998,139.27141363541665,69.0,90.0
177,139.4683159375,139.83557191666665,66.0,90.0
178,139.99928843749998,140.45946460416667,64.0,93.0
179,140.53026093749997,140.72495085416665,73.0,85.0
180,140.79574718749998,141.9417628333333,73.0,88.0
181,142.6541509375,142.8134426875,69.0,86.0
182,142.91963718749997,143.10768994791664,71.0,86.0
183,143.18512343749998,143.57450327083333,73.0,88.0
184,143.71609593749997,144.0722899895833,69.0,91.0
185,144.2470684375,144.67848359375,71.0,90.0
186,144.77804093749998,144.9152088333333,69.0,89.0
187,145.0435271875,145.75591529166667,71.0,90.0
188,145.8399859375,146.37095843749998,66.0,87.0
189,146.9019309375,147.16741718749998,64.0,90.0
190,147.4329034375,147.86431859375,64.0,95.0
191,147.96387593749998,148.2293621875,71.0,88.0
192,148.2293621875,149.2913071875,71.0,89.0
193,149.5567934375,149.69838610416664,69.0,93.0
194,149.8222796875,149.95059804166664,71.0,88.0
195,150.0877659375,150.28688062499998,73.0,93.0
196,150.3532521875,150.51918109374998,69.0,89.0
197,150.61873843749999,152.71829219791664,73.0,92.0
198,152.7426284375,153.69616655208333,71.0,91.0
199,153.80457343749998,153.95501564583333,69.0,88.0
200,154.0700596875,154.24926290624998,71.0,92.0
201,154.3355459375,154.52581108333334,73.0,93.0
202,154.60103218749998,154.74926201041666,69.0,92.0
203,154.8665184375,155.27580973958334,73.0,92.0
204,155.39749093749998,155.5567826875,73.0,95.0
205,155.6629771875,156.03023316666665,73.0,90.0
206,156.19394968749998,156.61209053124998,80.0,90.0
207,156.7249221875,157.26031945833333,80.0,93.0
208,158.0523534375,158.23155665624998,78.0,97.0
209,158.3178396875,158.43952088541664,80.0,93.0
210,158.58332593749998,158.77580346874998,81.0,89.0
211,158.8488121875,158.994829625,80.0,93.0
212,159.1142984375,159.76916452083333,81.0,92.0
213,159.9107571875,160.58995951041666,81.0,95.0
214,160.7072159375,160.85987053124998,74.0,93.0
215,160.97270218749998,161.97712516666667,74.0,102.0
216,162.3001334375,162.44172610416666,76.0,93.0
217,162.56561968749998,162.77358391666667,73.0,86.0
218,162.83110593749998,162.99924722916666,69.0,88.0
219,163.0965921875,163.28685733333333,71.0,87.0
220,163.36207843749997,164.0235816770833,73.0,88.0
221,164.15853718749997,164.85765097916666,73.0,91.0
222,164.95499593749997,165.10322576041665,71.0,93.0
223,165.22048218749998,165.91738359375,71.0,93.0
224,166.01694093749998,166.44393132291665,76.0,100.0
225,166.54791343749997,166.92623134374998,76.0,91.0
226,167.0788859375,167.45941622916666,78.0,97.0
227,167.60985843749998,168.0058754270833,76.0,93.0
228,168.1408309375,168.28906076041665,69.0,92.0
229,168.40631718749998,169.10100620833333,73.0,93.0
230,169.20277593749998,169.39082869791665,74.0,97.0
231,169.4682621875,170.10100441666665,71.0,95.0
232,170.2647209375,170.69171132291666,76.0,90.0
233,170.7956934375,171.1717989583333,76.0,95.0
234,171.3266659375,171.74038201041665,78.0,90.0
235,171.8576384375,172.25365542708332,76.0,90.0
236,172.3886109375,172.587725625,64.0,92.0
237,172.65409718749999,173.32223758333333,66.0,87.0
238,173.45055593749998,173.58993621874998,68.0,91.0
239,173.7160421875,174.35542157291667,69.0,87.0
240,174.5125009375,174.91957985416667,76.0,90.0
241,175.04347343749998,175.43064088541666,76.0,93.0
242,175.5744459375,175.99037439583333,78.0,95.0
243,176.1054184375,176.51249735416667,76.0,90.0
244,176.63639093749998,176.79347030208334,69.0,91.0
245,176.9018771875,177.71382263541665,69.0,91.0
246,178.22930843749998,178.62311304166667,76.0,93.0
247,178.7602809375,178.92178507291666,69.0,88.0
248,179.02576718749998,179.43063371875,69.0,92.0
249,179.5567396875,179.96160621874998,71.0,90.0
250,180.0877121875,182.4881503645833,73.0,91.0
251,183.00806093749998,183.43505132291665,76.0,100.0
252,183.5390334375,183.91735134375,76.0,91.0
253,184.07000593749999,184.45053622916666,78.0,97.0
254,184.60097843749998,184.99699542708333,76.0,93.0
255,185.1319509375,185.28018076041667,69.0,92.0
256,185.39743718749997,186.09212620833333,73.0,93.0
257,186.19389593749997,186.38194869791664,74.0,97.0
258,186.45938218749998,187.09212441666665,71.0,95.0
259,187.25584093749998,187.68283132291666,76.0,90.0
260,187.78681343749997,188.1629189583333,76.0,95.0
261,188.3177859375,188.73150201041665,78.0,90.0
262,188.8487584375,189.2447754270833,80.0,90.0
263,189.37973093749997,189.57884562499999,81.0,92.0
264,189.6452171875,190.31335758333333,83.0,87.0
265,190.4416759375,190.58105621875,80.0,91.0
266,190.7071621875,191.34654157291664,81.0,87.0
267,192.56556593749997,192.98149439583332,78.0,95.0
268,193.0965384375,193.50361735416664,76.0,90.0
269,193.6275109375,193.7845903020833,69.0,91.0
270,193.8929971875,194.6894559375,69.0,91.0
271,194.6894559375,194.83768576041666,69.0,87.0
272,194.9549421875,195.11202155208332,71.0,85.0
273,195.2204284375,195.60759588541666,74.0,90.0
274,195.7514009375,195.94609085416664,73.0,87.0
275,196.0168871875,196.73148767708332,69.0,91.0
276,196.8133459375,197.3553803645833,71.0,90.0
277,197.3443184375,199.18502310416665,69.0,89.0
278,215.3442861875,215.65402014583333,73.0,92.0
279,215.75800226041667,216.00136465625,73.0,97.0
280,216.10313438541664,216.35534632291666,76.0,95.0
281,216.46375320833334,216.7159651458333,76.0,93.0
282,216.81994726041665,217.08100873958332,76.0,93.0
283,217.1805660833333,217.37746838541665,81.0,90.0
284,217.48366288541666,217.74914913541664,81.0,97.0
285,217.8442817083333,218.12967942708332,81.0,88.0
286,218.224812,218.48587347916666,83.0,92.0
287,218.5832184375,218.98808496875,85.0,97.0
288,219.11419093749998,219.26684553125,85.0,95.0
289,219.3796771875,220.0876405208333,85.0,95.0
290,220.1761359375,220.30666667708334,83.0,90.0
291,220.4416221875,221.384098375,83.0,97.0
292,221.7690534375,222.13852180208332,80.0,97.0
293,222.30002593749998,222.76020210416664,81.0,92.0
294,222.8309984375,223.22480304166666,83.0,93.0
295,223.3619709375,223.52568745833332,80.0,89.0
296,223.6274571875,224.31329666666664,76.0,93.0
297,224.4239159375,224.56108383333333,83.0,88.0
298,224.68940218749998,225.39736552083332,83.0,91.0
299,225.48586093749998,226.32435501041664,81.0,87.0
300,226.5478059375,226.9725839375,78.0,91.0
301,227.07877843749998,227.46594588541666,76.0,93.0
302,227.6097509375,227.77789222916664,69.0,90.0
303,227.87523718749998,228.50134226041666,69.0,90.0
304,228.67169593749998,228.8309876875,69.0,92.0
305,228.93718218749999,229.08762439583333,71.0,87.0
306,229.2026684375,229.58983588541668,74.0,95.0
307,229.73364093749998,230.19381710416667,73.0,88.0
308,230.26461343749997,230.73806391666665,69.0,92.0
309,230.7955859375,231.27788595833334,71.0,92.0
310,231.3265584375,233.4548732083333,69.0,97.0
