,start,end,pitch,velocity
0,2.47565928125,3.87609925,61.0,81.0
1,1.9446867812500002,4.004417604166667,50.0,87.0
2,2.74114553125,4.028753843750001,66.0,86.0
3,2.21017303125,4.037603385416666,57.0,80.0
4,4.33406303125,6.1415819166666665,56.0,74.0
5,4.59954928125,6.15264384375,59.0,81.0
6,4.86503553125,6.154856229166667,64.0,86.0
7,4.06857678125,6.19246678125,50.0,90.0
8,6.457953031250001,8.219011822916666,56.0,77.0
9,6.19246678125,8.221224208333334,49.0,87.0
10,6.72343928125,8.245560447916667,59.0,86.0
11,6.9889255312500005,8.287595770833335,64.0,92.0
12,8.84732928125,9.188036635416667,54.0,74.0
13,9.11281553125,9.727858677083333,56.0,86.0
14,9.64378803125,10.451308708333334,57.0,84.0
15,10.289804572916667,10.451308708333334,57.0,74.0
16,8.581843031250001,10.48006971875,49.0,62.0
17,8.31635678125,10.484494489583334,42.0,88.0
18,8.31635678125,10.495556416666668,64.0,88.0
19,10.35396375,10.99113075,62.0,83.0
20,10.41369815625,11.298652322916666,66.0,80.0
21,11.179183510416667,12.4247565,61.0,89.0
22,10.907060104166668,12.460154666666668,57.0,84.0
23,11.716793166666667,12.47121659375,62.0,75.0
24,10.641573854166667,12.488915677083334,54.0,77.0
25,10.384937145833334,12.504402375,47.0,87.0
26,12.451305125000001,14.639354302083333,60.0,74.0
27,12.530951,14.645991458333334,65.0,82.0
28,12.561924395833334,14.650416229166668,69.0,82.0
29,12.493340447916667,14.676964854166668,50.0,88.0
30,15.1459905625,15.486697916666667,59.0,76.0
31,14.891566239583334,15.907051145833334,52.0,79.0
32,14.637141916666668,15.929175,45.0,88.0
33,15.407052041666667,15.955723625000001,61.0,80.0
34,15.92253784375,16.19466125,64.0,86.0
35,15.940236927083333,16.203510791666666,57.0,76.0
36,16.6327135625,18.787576958333332,57.0,67.0
37,16.75881953125,18.79863888541667,45.0,75.0
38,16.683598427083336,18.79863888541667,61.0,72.0
39,16.749969989583334,18.8097008125,64.0,68.0
40,16.77430622916667,18.82961228125,69.0,74.0
41,18.93580678125,19.464566895833332,64.0,86.0
42,18.93580678125,19.564124239583332,57.0,77.0
43,19.997751781250003,20.592883458333333,61.0,88.0
44,18.93580678125,20.705715114583334,45.0,87.0
45,20.52872428125,20.72783896875,57.0,84.0
46,19.466779281250002,20.9335908125,52.0,67.0
47,19.997751781250003,21.148192197916668,64.0,88.0
48,21.05969678125,21.827394520833334,59.0,75.0
49,21.05969678125,21.83181929166667,63.0,79.0
50,22.121641781250002,22.336243166666666,59.0,87.0
51,22.121641781250002,22.44022528125,63.0,95.0
52,21.05969678125,22.468986291666667,47.0,74.0
53,23.18358678125,23.453497802083334,57.0,82.0
54,23.18358678125,23.829603322916668,65.0,86.0
55,23.71455928125,24.353938666666668,57.0,79.0
56,23.18358678125,24.409248302083334,50.0,82.0
57,24.24553178125,24.475619864583333,62.0,87.0
58,24.24553178125,24.626062072916667,65.0,82.0
59,25.30747678125,25.517653395833335,61.0,83.0
60,25.30747678125,25.878272218750002,45.0,85.0
61,25.30747678125,26.13933369791667,64.0,87.0
62,26.36942178125,26.63712041666667,44.0,80.0
63,26.36942178125,26.652607114583333,59.0,86.0
64,26.36942178125,26.699067208333336,56.0,72.0
65,26.36942178125,26.876058041666667,64.0,88.0
66,27.431366781250002,28.0486223125,61.0,80.0
67,27.431366781250002,28.391542052083334,57.0,76.0
68,28.49331178125,28.548621416666666,57.0,65.0
69,27.431366781250002,28.58844435416667,42.0,79.0
70,27.96233928125,28.623842520833335,49.0,70.0
71,28.49331178125,29.079593916666667,61.0,95.0
72,29.02428428125,29.234460895833333,57.0,87.0
73,28.49331178125,29.294195302083335,66.0,91.0
74,29.55525678125,30.435786177083333,62.0,78.0
75,29.55525678125,30.44684810416667,59.0,80.0
76,29.55525678125,30.95569675,47.0,82.0
77,30.61720178125,30.99773207291667,59.0,89.0
78,30.61720178125,31.305253645833336,62.0,90.0
79,31.67914678125,32.66587067708333,62.0,78.0
80,32.74109178125,33.318524375,59.0,91.0
81,32.21011928125,33.39595786458334,47.0,73.0
82,31.67914678125,33.579585854166666,40.0,88.0
83,33.27206428125,33.74108998958334,62.0,93.0
84,33.80303678125,34.130469822916666,59.0,85.0
85,33.80303678125,34.21011569791667,64.0,85.0
86,34.59949553125,34.75878728125,64.0,85.0
87,34.86498178125,35.121618489583334,68.0,88.0
88,34.334009281250005,35.35391895833334,47.0,64.0
89,33.80303678125,35.38489235416667,40.0,89.0
90,35.130468031250004,35.435777218750005,69.0,81.0
91,35.39595428125,35.7211749375,71.0,87.0
92,35.92692678125,36.42250111458333,64.0,87.0
93,35.92692678125,36.685774979166666,57.0,76.0
94,36.988871781250005,37.2078979375,57.0,86.0
95,36.988871781250005,37.55966721875,61.0,87.0
96,35.92692678125,37.69241034375,45.0,88.0
97,37.51984428125,37.69241034375,57.0,80.0
98,36.45789928125,37.827365854166665,52.0,74.0
99,36.988871781250005,37.842852552083336,64.0,88.0
100,38.05081678125,38.67249708333333,63.0,81.0
101,38.05081678125,38.785328739583335,59.0,81.0
102,38.58178928125,39.27426591666667,54.0,66.0
103,38.05081678125,39.43134528125,47.0,86.0
104,39.11276178125,39.442407208333336,63.0,91.0
105,39.11276178125,39.44904436458334,66.0,88.0
106,40.17470678125,40.796387083333336,65.0,84.0
107,40.17470678125,40.8185109375,62.0,86.0
108,40.70567928125,41.37160729166667,57.0,84.0
109,41.23665178125,41.56629720833333,62.0,88.0
110,41.23665178125,41.836208229166665,65.0,88.0
111,40.17470678125,42.01983621875,50.0,84.0
112,41.76762428125,42.097269708333336,59.0,85.0
113,42.03311053125,42.35611880208334,61.0,72.0
114,42.298596781250005,42.83178166666667,57.0,75.0
115,42.298596781250005,42.98443626041667,45.0,87.0
116,42.82956928125,43.55744408333334,52.0,78.0
117,43.36054178125,43.76319592708334,56.0,80.0
118,43.36054178125,43.92691244791667,59.0,86.0
119,43.36054178125,43.97558492708333,44.0,85.0
120,43.891514281250004,44.02868217708333,56.0,82.0
121,44.42248678125,45.1193881875,61.0,80.0
122,44.42248678125,45.53531664583333,57.0,79.0
123,44.953459281250005,45.5574405,49.0,69.0
124,44.42248678125,45.5707148125,42.0,86.0
125,45.48443178125,46.26319144791667,61.0,97.0
126,46.01540428125,46.28531530208333,57.0,91.0
127,45.48443178125,46.444607052083335,66.0,92.0
128,46.546376781250004,47.123809375,66.0,75.0
129,46.546376781250004,47.13044653125,59.0,85.0
130,46.546376781250004,47.15920754166667,63.0,75.0
131,47.608321781250005,47.84062225,59.0,86.0
132,47.07734928125,47.97557776041667,54.0,69.0
133,47.608321781250005,48.199028687500004,63.0,88.0
134,46.546376781250004,48.205665843750005,47.0,89.0
135,47.608321781250005,48.504337875000004,66.0,87.0
136,48.13929428125,48.56407228125,59.0,85.0
137,48.67026678125,49.502123697916666,56.0,82.0
138,48.67026678125,49.557433333333336,59.0,80.0
139,48.67026678125,49.601681041666666,52.0,81.0
140,49.73221178125,50.207874645833336,52.0,62.0
141,49.73221178125,50.28973290625,59.0,87.0
142,49.201239281250004,50.42026364583334,47.0,80.0
143,50.263184281250005,50.453449427083335,56.0,87.0
144,48.67026678125,50.47999805208334,40.0,91.0
145,50.79415678125,51.2786691875,64.0,87.0
146,50.79415678125,51.32955405208334,52.0,87.0
147,51.32512928125,52.0485793125,47.0,72.0
148,50.79415678125,52.108313718750004,40.0,92.0
149,51.856101781250004,52.853887604166665,52.0,95.0
150,51.856101781250004,52.860524760416666,56.0,100.0
151,51.856101781250004,52.8715866875,59.0,93.0
152,51.856101781250004,52.88264861458334,64.0,87.0
153,52.918046781250005,53.176895875,59.0,87.0
154,52.918046781250005,53.614948187500005,66.0,81.0
155,53.44901928125,53.78087709375,59.0,76.0
156,53.714505531250005,53.8273371875,62.0,77.0
157,53.97999178125,54.12379683333334,59.0,90.0
158,53.97999178125,54.269814270833336,62.0,91.0
159,52.918046781250005,54.2786638125,44.0,92.0
160,53.97999178125,54.570698687500006,66.0,92.0
161,54.24547803125,54.670256031250005,59.0,86.0
162,54.510964281250004,54.814061083333335,62.0,78.0
163,54.77645053125,55.30742303125,66.0,80.0
164,55.572909281250006,55.7521125,65.0,78.0
165,55.572909281250006,55.955651958333334,61.0,87.0
166,55.83839553125,55.955651958333334,61.0,85.0
167,55.30742303125,56.24104967708334,56.0,86.0
168,56.10388178125,56.24104967708334,56.0,77.0
169,55.04193678125,56.55520840625,49.0,95.0
170,55.83839553125,56.575119875000006,68.0,92.0
171,56.10388178125,56.74104878125,65.0,87.0
172,56.63485428125,57.12157907291667,61.0,87.0
173,57.165826781250004,57.75432130208333,61.0,87.0
174,57.165826781250004,57.765383229166666,66.0,86.0
175,57.69679928125,58.0485685625,57.0,77.0
176,57.962285531250004,58.1016658125,61.0,66.0
177,57.43131303125,58.34281582291667,49.0,67.0
178,58.227771781250006,58.570691520833336,57.0,88.0
179,57.165826781250004,58.58617821875,42.0,95.0
180,58.49325803125,58.7388328125,49.0,72.0
181,58.227771781250006,58.80741676041667,61.0,100.0
182,58.227771781250006,58.8450273125,66.0,87.0
183,58.75874428125,59.00210667708333,57.0,87.0
184,59.28971678125,59.59502596875,59.0,86.0
185,59.28971678125,59.820689281250004,68.0,80.0
186,59.820689281250004,60.172458562500005,59.0,82.0
187,59.55520303125,60.19015764583334,47.0,77.0
188,60.08617553125,60.420245729166666,64.0,87.0
189,60.617148031250004,60.767590239583335,59.0,88.0
190,60.35166178125,60.80298840625,47.0,74.0
191,59.28971678125,60.829537031250005,40.0,91.0
192,60.617148031250004,60.960067770833334,64.0,92.0
193,60.617148031250004,61.28307604166667,68.0,89.0
194,60.882634281250006,61.34502283333334,59.0,88.0
195,61.14812053125,61.411394395833334,64.0,83.0
196,61.679093031250005,62.25873801041667,54.0,74.0
197,61.94457928125,62.56404719791667,59.0,92.0
198,62.21006553125,62.76979904166667,62.0,86.0
199,62.74103803125,62.920241250000004,59.0,85.0
200,63.00652428125,63.10165685416667,62.0,70.0
201,62.475551781250005,63.170240802083335,54.0,85.0
202,61.41360678125,63.185727500000006,47.0,91.0
203,63.537496781250006,64.09944267708333,59.0,81.0
204,63.537496781250006,64.43572526041667,62.0,81.0
205,63.537496781250006,64.45563672916667,66.0,76.0
206,64.59944178125001,64.65917618750001,66.0,67.0
207,64.59944178125001,64.71669820833334,62.0,65.0
208,64.33395553125,64.76315830208334,59.0,77.0
209,64.06846928125,64.93129959375,54.0,70.0
210,63.537496781250006,65.22112208333334,47.0,87.0
211,64.59944178125001,65.41138722916666,71.0,87.0
212,64.86492803125,65.57731613541667,66.0,92.0
213,65.13041428125,65.62377622916667,59.0,95.0
214,65.39590053125,65.76758128125,62.0,81.0
215,66.19235928125,66.58616388541667,52.0,87.0
216,66.45784553125,66.7299689375,57.0,88.0
217,65.92687303125,66.76536710416667,47.0,86.0
218,66.72333178125,67.02642858333334,59.0,93.0
219,66.98881803125,67.29191483333334,52.0,91.0
220,65.66138678125,67.56625062500001,40.0,92.0
221,67.25430428125,67.66359558333333,47.0,90.0
222,67.51979053125001,67.68129466666667,52.0,88.0
223,67.78527678125,68.0839488125,52.0,89.0
224,67.78527678125,68.13925844791667,56.0,75.0
225,67.78527678125,68.40916946875001,64.0,88.0
226,68.31624928125001,68.44899240625,52.0,85.0
227,68.05076303125,68.72554058333334,47.0,86.0
228,68.58173553125,69.23438922916667,52.0,103.0
229,68.84722178125,69.26093785416667,47.0,89.0
230,69.11270803125001,69.40031813541667,56.0,88.0
231,67.78527678125,69.40695529166666,40.0,95.0
232,68.58173553125,69.477751625,59.0,90.0
233,69.37819428125,69.75651218750001,52.0,103.0
234,69.64368053125,69.94456494791667,64.0,91.0
235,69.90916678125001,70.0219984375,38.0,90.0
236,69.90916678125001,70.39146680208334,66.0,88.0
237,69.90916678125001,70.4069535,62.0,87.0
238,70.70562553125,70.84721819791667,62.0,90.0
239,70.44013928125,71.06403196875,57.0,87.0
240,70.17465303125,71.13261591666667,50.0,87.0
241,70.97111178125,71.32951821875,62.0,95.0
242,71.23659803125,71.40473932291667,57.0,80.0
243,70.97111178125,71.52199575,66.0,97.0
244,70.97111178125,71.57730538541666,69.0,95.0
245,71.50208428125,71.82288016666666,62.0,86.0
246,71.76757053125,71.98880907291667,66.0,88.0
247,72.03305678125,72.3317288125,64.0,89.0
248,72.03305678125,72.38040129166667,68.0,89.0
249,72.56402928125,72.70562194791667,64.0,88.0
250,72.82951553125,72.9556215,68.0,89.0
251,72.29854303125,73.22332013541667,47.0,77.0
252,73.09500178125,73.40031096875,64.0,95.0
253,73.09500178125,73.64588575,68.0,103.0
254,73.09500178125,73.698983,71.0,93.0
255,72.03305678125,73.70783254166668,40.0,90.0
256,73.36048803125,73.70783254166668,47.0,84.0
257,73.62597428125001,74.05075228125,64.0,97.0
258,73.89146053125,74.26314128125,68.0,91.0
259,74.68791928125,74.86712250000001,61.0,80.0
260,74.42243303125001,75.08393627083333,56.0,81.0
261,74.95340553125,75.34721013541667,68.0,90.0
262,74.95340553125,75.36269683333333,61.0,90.0
263,74.15694678125,75.46667894791668,49.0,100.0
264,75.21889178125001,75.53526289583334,56.0,88.0
265,75.48437803125,75.64366978125,61.0,91.0
266,75.48437803125,75.8095986875,64.0,95.0
267,75.48437803125,75.81623584375001,68.0,77.0
268,75.74986428125,75.87597025000001,61.0,92.0
269,76.28083678125,76.592783125,57.0,90.0
270,76.28083678125,76.82508359375001,61.0,89.0
271,76.81180928125,77.13260516666666,57.0,86.0
272,77.07729553125,77.17021571875,61.0,93.0
273,76.54632303125,77.42021527083334,49.0,76.0
274,77.34278178125,77.63039188541667,57.0,93.0
275,76.28083678125,77.65915289583333,42.0,93.0
276,77.34278178125,77.72552445833334,61.0,107.0
277,77.60826803125,77.78083409375,49.0,87.0
278,77.34278178125,77.78747125000001,66.0,100.0
279,77.87375428125,78.18348823958334,57.0,88.0
280,78.13924053125,78.23437310416666,61.0,90.0
281,78.40472678125,78.73215982291667,59.0,88.0
282,78.40472678125,79.0219823125,62.0,88.0
283,78.93569928125001,79.10384057291667,57.0,81.0
284,78.67021303125,79.31180480208333,54.0,76.0
285,79.20118553125,79.56844151041668,57.0,95.0
286,79.20118553125,79.6060520625,62.0,93.0
287,79.73215803125001,79.8184410625,62.0,79.0
288,79.46667178125,79.82950298958333,54.0,86.0
289,78.40472678125,79.9511841875,47.0,92.0
290,79.73215803125001,80.30074108333334,66.0,92.0
291,79.99764428125,80.39808604166667,57.0,88.0
292,80.26313053125,80.51976723958333,62.0,89.0
293,80.52861678125001,80.81843927083334,62.0,87.0
294,80.52861678125001,80.87817367708334,65.0,95.0
295,80.52861678125001,81.04631496875,71.0,88.0
296,80.52861678125001,81.318438375,38.0,92.0
297,80.79410303125,81.33834984375001,45.0,78.0
298,81.05958928125,81.39144709375,62.0,88.0
299,81.59056178125,81.88702142708334,73.0,97.0
300,81.32507553125001,82.11710951041667,71.0,87.0
301,81.59056178125,82.27197648958334,40.0,97.0
302,81.85604803125,82.28082603125,47.0,88.0
303,82.12153428125,82.327286125,64.0,97.0
304,81.85604803125,82.38702053125,69.0,84.0
305,82.38702053125,82.69675448958334,71.0,89.0
306,82.65250678125,83.18347928125,73.0,88.0
307,83.18347928125,83.31622240625,57.0,89.0
308,82.91799303125,83.47551415625,52.0,88.0
309,83.44896553125,83.85161967708333,59.0,102.0
310,83.71445178125,84.05294675,52.0,87.0
311,83.97993803125,84.17905271875,57.0,89.0
312,83.97993803125,84.19011464583333,61.0,93.0
313,82.65250678125,84.27861006250001,45.0,92.0
314,84.51091053125,84.60825548958334,57.0,80.0
315,84.77639678125,85.13259083333334,59.0,87.0
316,84.77639678125,85.29188258333333,62.0,91.0
317,84.77639678125,85.56843076041667,47.0,89.0
318,85.30736928125,85.66798810416667,59.0,91.0
319,85.57285553125,85.72993489583334,62.0,86.0
320,85.83834178125001,86.15913766666667,61.0,91.0
321,85.83834178125001,86.25205785416667,64.0,91.0
322,86.36931428125,86.47993355208334,61.0,95.0
323,86.63480053125001,86.90249916666667,61.0,79.0
324,85.83834178125001,86.91577347916667,49.0,88.0
325,86.10382803125,86.92462302083334,56.0,86.0
326,86.63480053125001,86.93568494791667,64.0,89.0
327,86.90028678125,87.0131184375,38.0,90.0
328,86.90028678125,87.38258680208334,66.0,88.0
329,86.90028678125,87.39807350000001,62.0,87.0
330,87.69674553125,87.83833819791667,62.0,90.0
331,87.43125928125001,88.05515196875001,57.0,87.0
332,87.16577303125,88.12373591666667,50.0,87.0
333,87.96223178125,88.32063821875,62.0,95.0
334,88.22771803125,88.39585932291666,57.0,80.0
335,87.96223178125,88.51311575,66.0,97.0
336,87.96223178125,88.56842538541667,69.0,95.0
337,88.49320428125,88.81400016666667,62.0,86.0
338,88.75869053125,88.97992907291668,66.0,88.0
339,89.02417678125,89.3228488125,64.0,89.0
340,89.02417678125,89.37152129166667,68.0,89.0
341,89.55514928125001,89.69674194791666,64.0,88.0
342,89.82063553125,89.9467415,68.0,89.0
343,89.28966303125,90.21444013541667,47.0,77.0
344,90.08612178125,90.39143096875,64.0,95.0
345,90.08612178125,90.63700575,68.0,103.0
346,90.08612178125,90.69010300000001,71.0,93.0
347,89.02417678125,90.69895254166667,40.0,90.0
348,90.35160803125001,90.69895254166667,47.0,84.0
349,90.61709428125,91.04187228125001,64.0,97.0
350,90.88258053125,91.25426128125001,68.0,91.0
351,91.67903928125,91.8582425,61.0,80.0
352,91.41355303125,92.07505627083334,56.0,81.0
353,91.94452553125001,92.33833013541667,68.0,90.0
354,91.94452553125001,92.35381683333334,61.0,90.0
355,91.14806678125001,92.45779894791667,49.0,100.0
356,92.21001178125,92.52638289583334,56.0,88.0
357,92.47549803125,92.63478978125,61.0,91.0
358,92.47549803125,92.80071868750001,64.0,95.0
359,92.47549803125,92.80735584375,68.0,77.0
360,92.74098428125001,92.86709025,61.0,92.0
361,93.27195678125,93.583903125,57.0,90.0
362,93.27195678125,93.81620359375,61.0,89.0
363,93.80292928125,94.12372516666667,57.0,86.0
364,94.06841553125,94.16133571875001,61.0,93.0
365,93.53744303125,94.41133527083333,49.0,76.0
366,94.33390178125,94.62151188541667,57.0,93.0
367,93.27195678125,94.65027289583334,42.0,93.0
368,94.33390178125,94.71664445833333,61.0,107.0
369,94.59938803125,94.77195409375,49.0,87.0
370,94.33390178125,94.77859125,66.0,100.0
371,94.86487428125001,95.17460823958334,57.0,88.0
372,95.13036053125,95.22549310416667,61.0,90.0
373,95.39584678125,95.72384682291667,59.0,88.0
374,95.39584678125,96.01521675,62.0,88.0
375,95.92847303125,96.09751207291667,57.0,81.0
376,95.66156928125,96.30658667708333,54.0,76.0
377,96.19537678125,96.56459363541667,57.0,95.0
378,96.19537678125,96.6024844375,62.0,93.0
379,96.72971651249999,96.81677003749999,62.0,79.0
380,96.46228053125,96.82793074583333,54.0,86.0
381,95.39584678125,96.95069853749999,47.0,92.0
382,96.72971651249999,97.30337692083333,66.0,92.0
383,96.9975735125,97.40159115416665,57.0,88.0
384,97.26543051249999,97.52435894583333,62.0,89.0
385,97.5332875125,97.87926947083332,59.0,89.0
386,97.5332875125,98.0623050875,64.0,91.0
387,98.0690015125,98.42167989583332,59.0,82.0
388,98.33685851249999,98.45292987916666,64.0,87.0
389,97.80114451249999,98.67391190416666,47.0,78.0
390,98.6047155125,98.95516175416665,59.0,90.0
391,98.87257251249999,99.18060806249999,47.0,86.0
392,97.5332875125,99.18730448749999,40.0,93.0
393,98.6047155125,99.18730448749999,64.0,95.0
394,98.6047155125,99.25203659583333,71.0,90.0
395,99.14042951249999,99.66051852083332,59.0,89.0
396,99.4082865125,99.6962327875,71.0,88.0
397,99.67614351249999,100.19992599583333,61.0,87.0
398,99.67614351249999,100.22426223541666,57.0,79.0
399,99.67614351249999,100.25744801666666,64.0,87.0
400,100.2087755375,100.83045583958334,52.0,86.0
401,100.7397480375,101.07603062083334,57.0,87.0
402,100.7397480375,101.31718063125,61.0,95.0
403,100.7397480375,101.34594164166667,64.0,91.0
404,99.67614351249999,101.61364027708333,45.0,87.0
405,101.0052342875,101.62470220416667,52.0,81.0
406,101.2707205375,101.6424012875,57.0,82.0
407,101.8016930375,102.32602838125,61.0,80.0
408,101.8016930375,102.32824076666667,57.0,82.0
409,102.33266553749999,102.9698325375,52.0,75.0
410,101.8016930375,103.16231006875,45.0,87.0
411,102.8636380375,103.21983208958333,57.0,87.0
412,103.12912428749999,103.28620365208333,52.0,87.0
413,102.8636380375,103.32823897499999,61.0,93.0
414,102.8636380375,103.39018576666666,64.0,92.0
415,103.3946105375,103.74416743333333,45.0,87.0
416,103.92558303749999,104.44991838125,59.0,84.0
417,103.92558303749999,104.46982985,63.0,85.0
418,104.4565555375,105.186642725,54.0,71.0
419,104.9875280375,105.25522667291666,63.0,88.0
420,104.9875280375,105.27513814166666,66.0,86.0
421,104.9875280375,105.29726199583332,59.0,86.0
422,103.92558303749999,105.88133174583334,47.0,88.0
423,105.5185005375,106.0096501,54.0,68.0
424,106.0494730375,106.56053406875,59.0,82.0
425,106.0494730375,106.57823315208333,63.0,82.0
426,106.0494730375,106.620268475,66.0,77.0
427,106.5804455375,107.23309923541666,54.0,74.0
428,106.0494730375,107.38354144374999,47.0,87.0
429,107.1114180375,107.64454832291666,63.0,90.0
430,107.1114180375,107.82091515625,59.0,87.0
431,107.1114180375,107.82091515625,66.0,87.0
432,107.1114180375,107.92893984166666,69.0,86.0
433,107.64234373749998,108.06121496666665,47.0,87.0
434,108.17144423749998,109.05107381874998,59.0,86.0
435,108.17144423749998,109.05768757499999,62.0,80.0
436,108.17144423749998,109.52946885416665,47.0,89.0
437,108.7005447375,109.53167343958333,54.0,64.0
438,109.75874573749999,110.15557111249998,47.0,89.0
439,109.2296452375,110.19525364999998,59.0,95.0
440,109.2296452375,110.20186740624999,62.0,93.0
441,110.28784623749999,110.96024478958333,59.0,88.0
442,110.28784623749999,111.16747581874999,62.0,88.0
443,110.81694673749999,111.51580031458332,54.0,73.0
444,110.28784623749999,111.65909836666665,47.0,90.0
445,111.34604723749999,111.95010364166666,66.0,82.0
446,111.34604723749999,111.96333115416665,62.0,87.0
447,111.34604723749999,111.99199076458332,69.0,87.0
448,111.34604723749999,112.00521827708333,59.0,88.0
449,112.40424823749998,113.06782844791665,64.0,87.0
450,112.40424823749998,113.17364854791666,57.0,80.0
451,113.4624492375,113.72038573124999,61.0,88.0
452,113.4624492375,114.05327812916666,57.0,87.0
453,112.93334873749998,114.24728164583333,52.0,79.0
454,112.40424823749998,114.32003296458332,45.0,87.0
455,113.9915497375,114.56915111666666,59.0,90.0
456,114.52065023749999,115.08502410416665,64.0,81.0
457,114.52065023749999,115.15336625208332,52.0,82.0
458,115.04975073749999,115.80592353541665,47.0,77.0
459,114.52065023749999,115.85883358541666,40.0,90.0
460,115.57885123749999,116.41659369583333,52.0,86.0
461,115.57885123749999,116.41659369583333,56.0,82.0
462,116.63705223749999,117.16525855208332,64.0,86.0
463,116.63705223749999,117.26481589583332,57.0,77.0
464,117.69844343749999,118.29357511458332,61.0,88.0
465,116.63705223749999,118.40640677083331,45.0,87.0
466,118.2294159375,118.428530625,57.0,84.0
467,117.16747093749998,118.63428246874999,52.0,67.0
468,117.69844343749999,118.84888385416666,64.0,88.0
469,118.76038843749998,119.52808617708332,59.0,75.0
470,118.76038843749998,119.53251094791665,63.0,79.0
471,119.82233343749999,120.03693482291665,59.0,87.0
472,119.82233343749999,120.14091693749998,63.0,95.0
473,118.76038843749998,120.16967794791665,47.0,74.0
474,120.88427843749999,121.15418945833332,57.0,82.0
475,120.88427843749999,121.53029497916665,65.0,86.0
476,121.41525093749999,122.05463032291665,57.0,79.0
477,120.88427843749999,122.10993995833331,50.0,82.0
478,121.94622343749998,122.17631152083332,62.0,87.0
479,121.94622343749998,122.32675372916665,65.0,82.0
480,123.00816843749999,123.21834505208332,61.0,83.0
481,123.00816843749999,123.57896387499999,45.0,85.0
482,123.00816843749999,123.84002535416666,64.0,87.0
483,124.07011343749998,124.33781207291665,44.0,80.0
484,124.07011343749998,124.35329877083332,59.0,86.0
485,124.07011343749998,124.39975886458332,56.0,72.0
486,124.07011343749998,124.57674969791665,64.0,88.0
487,125.13205843749999,125.74931396874999,61.0,80.0
488,125.13205843749999,126.09223370833332,57.0,76.0
489,126.19400343749999,126.24931307291665,57.0,65.0
490,125.13205843749999,126.28913601041666,42.0,79.0
491,125.66303093749998,126.32453417708332,49.0,70.0
492,126.19400343749999,126.78028557291665,61.0,95.0
493,126.72497593749999,126.93515255208332,57.0,87.0
494,126.19400343749999,126.99488695833332,66.0,91.0
495,127.25594843749998,128.13647783333332,62.0,78.0
496,127.25594843749998,128.14753976041666,59.0,80.0
497,127.25594843749998,128.65638840625,47.0,82.0
498,128.31789343749998,128.69842372916665,59.0,89.0
499,128.31789343749998,129.00594530208332,62.0,90.0
500,129.37983843749998,130.36656233333332,62.0,78.0
501,130.4417834375,131.01921603124998,59.0,91.0
502,129.91081093749997,131.09664952083332,47.0,73.0
503,129.37983843749998,131.28027751041665,40.0,88.0
504,130.97275593749998,131.44178164583332,62.0,93.0
505,131.5037284375,131.83116147916667,59.0,85.0
506,131.5037284375,131.91080735416665,64.0,85.0
507,132.3001871875,132.4594789375,64.0,85.0
508,132.56567343749998,132.8223101458333,68.0,88.0
509,132.0347009375,133.0546106145833,47.0,64.0
510,131.5037284375,133.08558401041665,40.0,89.0
511,132.8311596875,133.136468875,69.0,81.0
512,133.0966459375,133.42186659375,71.0,87.0
513,133.6276184375,134.12319277083333,64.0,87.0
514,133.6276184375,134.38646663541664,57.0,76.0
515,134.6895634375,134.90858959374998,57.0,86.0
516,134.6895634375,135.26035887499998,61.0,87.0
517,133.6276184375,135.393102,45.0,88.0
518,135.2205359375,135.393102,57.0,80.0
519,134.15859093749998,135.52805751041666,52.0,74.0
520,134.6895634375,135.54354420833332,64.0,88.0
521,135.75150843749998,136.37318873958333,63.0,81.0
522,135.75150843749998,136.48602039583332,59.0,81.0
523,136.2824809375,136.97495757291665,54.0,66.0
524,135.75150843749998,137.13203693749998,47.0,86.0
525,136.8134534375,137.14309886458332,63.0,91.0
526,136.8134534375,137.14973602083333,66.0,88.0
527,137.8753984375,138.49707873958332,65.0,84.0
528,137.8753984375,138.51920259374998,62.0,86.0
529,138.4063709375,139.07229894791666,57.0,84.0
530,138.93734343749998,139.2669888645833,62.0,88.0
531,138.93734343749998,139.53689988541666,65.0,88.0
532,137.8753984375,139.720527875,50.0,84.0
533,139.4683159375,139.79796136458333,59.0,85.0
534,139.73380218749998,140.05681045833333,61.0,72.0
535,139.99928843749998,140.53247332291664,57.0,75.0
536,139.99928843749998,140.68512791666666,45.0,87.0
537,140.53026093749997,141.2581357395833,52.0,78.0
538,141.0612334375,141.46388758333333,56.0,80.0
539,141.0612334375,141.62760410416666,59.0,86.0
540,141.0612334375,141.67627658333333,44.0,85.0
541,141.59220593749998,141.7293738333333,56.0,82.0
542,142.12317843749997,142.82007984375,61.0,80.0
543,142.12317843749997,143.23600830208332,57.0,79.0
544,142.6541509375,143.25813215624999,49.0,69.0
545,142.12317843749997,143.27140646875,42.0,86.0
546,143.18512343749998,143.96388310416665,61.0,97.0
547,143.71609593749997,143.98600695833332,57.0,91.0
548,143.18512343749998,144.1452987083333,66.0,92.0
549,144.2470684375,144.82450103124998,66.0,75.0
550,144.2470684375,144.8311381875,59.0,85.0
551,144.2470684375,144.85989919791666,63.0,75.0
552,145.3090134375,145.54131390625,59.0,86.0
553,144.77804093749998,145.67626941666666,54.0,69.0
554,145.3090134375,145.89972034374998,63.0,88.0
555,144.2470684375,145.90635749999998,47.0,89.0
556,145.3090134375,146.20502953124998,66.0,87.0
557,145.8399859375,146.2647639375,59.0,85.0
558,146.37095843749998,147.20281535416666,56.0,82.0
559,146.37095843749998,147.25812498958334,59.0,80.0
560,146.37095843749998,147.30237269791667,52.0,81.0
561,147.4329034375,147.90856630208333,52.0,62.0
562,147.4329034375,147.99042456249998,59.0,87.0
563,146.9019309375,148.12095530208333,47.0,80.0
564,147.96387593749998,148.15414108333331,56.0,87.0
565,146.37095843749998,148.18068970833332,40.0,91.0
566,148.4948484375,148.97936084375,64.0,87.0
567,148.4948484375,149.03024570833333,52.0,87.0
568,149.0258209375,149.74927096874998,47.0,72.0
569,148.4948484375,149.809005375,40.0,92.0
570,149.5567934375,150.55457926041666,52.0,95.0
571,149.5567934375,150.56121641666664,56.0,100.0
572,149.5567934375,150.57227834374999,59.0,93.0
573,149.5567934375,150.58334027083333,64.0,87.0
574,150.61873843749999,150.87758753125,59.0,87.0
575,150.61873843749999,151.31563984374998,66.0,81.0
576,151.1497109375,151.48156874999998,59.0,76.0
577,151.41519718749998,151.52802884374998,62.0,77.0
578,151.6806834375,151.82448848958333,59.0,90.0
579,151.6806834375,151.9705059270833,62.0,91.0
580,150.61873843749999,151.97935546875,44.0,92.0
581,151.6806834375,152.27139034375,66.0,92.0
582,151.9461696875,152.37094768749998,59.0,86.0
583,152.21165593749998,152.51475273958332,62.0,78.0
584,152.4771421875,153.00811468749998,66.0,80.0
585,153.2736009375,153.45280415624998,65.0,78.0
586,153.2736009375,153.6563436145833,61.0,87.0
587,153.5390871875,153.6563436145833,61.0,85.0
588,153.00811468749998,153.9417413333333,56.0,86.0
589,153.80457343749998,153.9417413333333,56.0,77.0
590,152.7426284375,154.2559000625,49.0,95.0
591,153.5390871875,154.27581153124999,68.0,92.0
592,153.80457343749998,154.4417404375,65.0,87.0
593,154.3355459375,154.82227072916666,61.0,87.0
594,154.8665184375,155.45501295833333,61.0,87.0
595,154.8665184375,155.46607488541665,66.0,86.0
596,155.39749093749998,155.74926021874998,57.0,77.0
597,155.6629771875,155.80235746875,61.0,66.0
598,155.1320046875,156.04350747916666,49.0,67.0
599,155.9284634375,156.27138317708332,57.0,88.0
600,154.8665184375,156.28686987499998,42.0,95.0
601,156.19394968749998,156.43952446875,49.0,72.0
602,155.9284634375,156.50810841666666,61.0,100.0
603,155.9284634375,156.54571896874998,66.0,87.0
604,156.4594359375,156.7027983333333,57.0,87.0
605,156.99040843749998,157.29571762499998,59.0,86.0
606,156.99040843749998,157.5213809375,68.0,80.0
607,157.5213809375,157.87315021875,59.0,82.0
608,157.2558946875,157.89084930208332,47.0,77.0
609,157.78686718749998,158.12093738541665,64.0,87.0
610,158.3178396875,158.46828189583331,59.0,88.0
611,158.0523534375,158.5036800625,47.0,74.0
612,156.99040843749998,158.53022868749997,40.0,91.0
613,158.3178396875,158.66075942708332,64.0,92.0
614,158.3178396875,158.98376769791665,68.0,89.0
615,158.58332593749998,159.0457144895833,59.0,88.0
616,158.8488121875,159.11208605208333,64.0,83.0
617,159.37978468749998,159.95942966666667,54.0,74.0
618,159.6452709375,160.26473885416664,59.0,92.0
619,159.9107571875,160.47049069791666,62.0,86.0
620,160.4417296875,160.62093290625,59.0,85.0
621,160.7072159375,160.80234851041666,62.0,70.0
622,160.17624343749998,160.87093245833333,54.0,85.0
623,159.1142984375,160.88641915624999,47.0,91.0
624,161.23818843749999,161.80013433333332,59.0,81.0
625,161.23818843749999,162.13641691666666,62.0,81.0
626,161.23818843749999,162.15632838541666,66.0,76.0
627,162.3001334375,162.35986784374998,66.0,67.0
628,162.3001334375,162.41738986458333,62.0,65.0
629,162.03464718749998,162.46384995833333,59.0,77.0
630,161.76916093749998,162.63199125,54.0,70.0
631,161.23818843749999,162.9218137395833,47.0,87.0
632,162.3001334375,163.11207888541665,71.0,87.0
633,162.56561968749998,163.27800779166665,66.0,92.0
634,162.83110593749998,163.32446788541665,59.0,95.0
635,163.0965921875,163.4682729375,62.0,81.0
636,163.8930509375,164.28685554166665,52.0,87.0
637,164.15853718749997,164.43066059375,57.0,88.0
638,163.62756468749998,164.46605876041667,47.0,86.0
639,164.42402343749998,164.72712023958331,59.0,93.0
640,164.6895096875,164.99260648958332,52.0,91.0
641,163.36207843749997,165.26694228124998,40.0,92.0
642,164.95499593749997,165.36428723958332,47.0,90.0
643,165.22048218749998,165.38198632291665,52.0,88.0
644,165.4859684375,165.78464046874998,52.0,89.0
645,165.4859684375,165.83995010416666,56.0,75.0
646,165.4859684375,166.10986112499998,64.0,88.0
647,166.01694093749998,166.1496840625,52.0,85.0
648,165.75145468749997,166.42623223958333,47.0,86.0
649,166.2824271875,166.93508088541665,52.0,103.0
650,166.54791343749997,166.96162951041666,47.0,89.0
651,166.81339968749998,167.10100979166666,56.0,88.0
652,165.4859684375,167.10764694791666,40.0,95.0
653,166.2824271875,167.17844328125,59.0,90.0
654,167.0788859375,167.45720384375,52.0,103.0
655,167.34437218749997,167.64525660416666,64.0,91.0
656,167.60985843749998,167.72269009374997,38.0,90.0
657,167.60985843749998,168.09215845833333,66.0,88.0
658,167.60985843749998,168.10764515625,62.0,87.0
659,168.40631718749998,168.54790985416665,62.0,90.0
660,168.1408309375,168.764723625,57.0,87.0
661,167.8753446875,168.83330757291665,50.0,87.0
662,168.6718034375,169.030209875,62.0,95.0
663,168.9372896875,169.10543097916667,57.0,80.0
664,168.6718034375,169.22268740624997,66.0,97.0
665,168.6718034375,169.27799704166665,69.0,95.0
666,169.20277593749998,169.52357182291667,62.0,86.0
667,169.4682621875,169.68950072916664,66.0,88.0
668,169.7337484375,170.03242046875,64.0,89.0
669,169.7337484375,170.08109294791666,68.0,89.0
670,170.2647209375,170.40631360416666,64.0,88.0
671,170.5302071875,170.65631315624998,68.0,89.0
672,169.99923468749998,170.92401179166666,47.0,77.0
673,170.7956934375,171.10100262499998,64.0,95.0
674,170.7956934375,171.34657740625,68.0,103.0
675,170.7956934375,171.39967465625,71.0,93.0
676,169.7337484375,171.40852419791665,40.0,90.0
677,171.0611796875,171.40852419791665,47.0,84.0
678,171.3266659375,171.75144393749997,64.0,97.0
679,171.5921521875,171.9638329375,68.0,91.0
680,172.3886109375,172.56781415625,61.0,80.0
681,172.1231246875,172.7846279270833,56.0,81.0
682,172.65409718749999,173.04790179166665,68.0,90.0
683,172.65409718749999,173.06338848958333,61.0,90.0
684,171.8576384375,173.16737060416665,49.0,100.0
685,172.9195834375,173.2359545520833,56.0,88.0
686,173.1850696875,173.3443614375,61.0,91.0
687,173.1850696875,173.51029034375,64.0,95.0
688,173.1850696875,173.51692749999998,68.0,77.0
689,173.45055593749998,173.57666190625,61.0,92.0
690,173.9815284375,174.29347478124998,57.0,90.0
691,173.9815284375,174.52577524999998,61.0,89.0
692,174.5125009375,174.83329682291665,57.0,86.0
693,174.7779871875,174.870907375,61.0,93.0
694,174.24701468749998,175.12090692708333,49.0,76.0
695,175.04347343749998,175.33108354166666,57.0,93.0
696,173.9815284375,175.35984455208333,42.0,93.0
697,175.04347343749998,175.42621611458333,61.0,107.0
698,175.3089596875,175.48152575,49.0,87.0
699,175.04347343749998,175.48816290624998,66.0,100.0
700,175.5744459375,175.8841798958333,57.0,88.0
701,175.83993218749998,175.93506476041665,61.0,90.0
702,176.1054184375,176.43285147916666,59.0,88.0
703,176.1054184375,176.72267396874997,62.0,88.0
704,176.63639093749998,176.80453222916665,57.0,81.0
705,176.3709046875,177.01249645833332,54.0,76.0
706,176.9018771875,177.26913316666665,57.0,95.0
707,176.9018771875,177.30674371875,62.0,93.0
708,177.43284968749998,177.51913271874997,62.0,79.0
709,177.1673634375,177.53019464583332,54.0,86.0
710,176.1054184375,177.65187584375,47.0,92.0
711,177.43284968749998,178.00143273958332,66.0,92.0
712,177.6983359375,178.09877769791666,57.0,88.0
713,177.9638221875,178.22045889583333,62.0,89.0
714,178.22930843749998,178.51913092708332,62.0,87.0
715,178.22930843749998,178.5788653333333,65.0,95.0
716,178.22930843749998,178.74700662499998,71.0,88.0
717,178.22930843749998,179.01913003124997,38.0,92.0
718,178.4947946875,179.0390415,45.0,78.0
719,178.7602809375,179.09213875,62.0,88.0
720,179.2912534375,179.5877130833333,73.0,97.0
721,179.02576718749998,179.81780116666664,71.0,87.0
722,179.2912534375,179.97266814583332,40.0,97.0
723,179.5567396875,179.9815176875,47.0,88.0
724,179.82222593749998,180.02797778125,64.0,97.0
725,179.5567396875,180.0877121875,69.0,84.0
726,180.0877121875,180.39744614583333,71.0,89.0
727,180.3531984375,180.8841709375,73.0,88.0
728,180.8841709375,181.0169140625,57.0,89.0
729,180.61868468749998,181.17620581249997,52.0,88.0
730,181.1496571875,181.5523113333333,59.0,102.0
731,181.41514343749998,181.75363840625,52.0,87.0
732,181.6806296875,181.87974437499997,57.0,89.0
733,181.6806296875,181.89080630208332,61.0,93.0
734,180.3531984375,181.97930171874998,45.0,92.0
735,182.21160218749998,182.30894714583332,57.0,80.0
736,182.4770884375,182.83328248958333,59.0,87.0
737,182.4770884375,182.99257423958332,62.0,91.0
738,182.4770884375,183.26912241666668,47.0,89.0
739,183.00806093749998,183.36867976041665,59.0,91.0
740,183.2735471875,183.4306265520833,62.0,86.0
741,183.5390334375,183.85982932291665,61.0,91.0
742,183.5390334375,183.95274951041665,64.0,91.0
743,184.07000593749999,184.1806252083333,61.0,95.0
744,184.3354921875,184.60319082291664,61.0,79.0
745,183.5390334375,184.61646513541666,49.0,88.0
746,183.80451968749998,184.62531467708334,56.0,86.0
747,184.3354921875,184.63637660416666,64.0,89.0
748,184.60097843749998,184.71381009375,38.0,90.0
749,184.60097843749998,185.08327845833333,66.0,88.0
750,184.60097843749998,185.09876515624998,62.0,87.0
751,185.39743718749997,185.53902985416664,62.0,90.0
752,185.1319509375,185.75584362499998,57.0,87.0
753,184.86646468749998,185.82442757291665,50.0,87.0
754,185.66292343749998,186.021329875,62.0,95.0
755,185.9284096875,186.09655097916664,57.0,80.0
756,185.66292343749998,186.21380740625,66.0,97.0
757,185.66292343749998,186.26911704166668,69.0,95.0
758,186.19389593749997,186.51469182291666,62.0,86.0
759,186.45938218749998,186.68062072916666,66.0,88.0
760,186.7248684375,187.02354046874999,64.0,89.0
761,186.7248684375,187.07221294791665,68.0,89.0
762,187.25584093749998,187.39743360416665,64.0,88.0
763,187.5213271875,187.64743315624997,68.0,89.0
764,186.99035468749997,187.91513179166665,47.0,77.0
765,187.78681343749997,188.092122625,64.0,95.0
766,187.78681343749997,188.33769740625,68.0,103.0
767,187.78681343749997,188.39079465625,71.0,93.0
768,186.7248684375,188.39964419791664,40.0,90.0
769,188.0522996875,188.39964419791664,47.0,84.0
770,188.3177859375,188.7425639375,64.0,97.0
771,188.58327218749997,188.9549529375,68.0,91.0
772,189.37973093749997,189.55893415625,61.0,80.0
773,189.1142446875,189.77574792708333,56.0,81.0
774,189.6452171875,190.03902179166664,68.0,90.0
775,189.6452171875,190.05450848958333,61.0,90.0
776,188.8487584375,190.15849060416667,49.0,100.0
777,189.9107034375,190.2270745520833,56.0,88.0
778,190.17618968749997,190.3354814375,61.0,91.0
779,190.17618968749997,190.50141034375,64.0,95.0
780,190.17618968749997,190.50804749999998,68.0,77.0
781,190.4416759375,190.56778190625,61.0,92.0
782,190.97264843749997,191.28459478125,57.0,90.0
783,190.97264843749997,191.51689525,61.0,89.0
784,191.5036209375,191.82441682291665,57.0,86.0
785,191.76910718749997,191.86202737499997,61.0,93.0
786,191.2381346875,192.11202692708332,49.0,76.0
787,192.0345934375,192.32220354166665,57.0,93.0
788,190.97264843749997,192.35096455208333,42.0,93.0
789,192.0345934375,192.41733611458332,61.0,107.0
790,192.3000796875,192.47264574999997,49.0,87.0
791,192.0345934375,192.47928290624998,66.0,100.0
792,192.56556593749997,192.87529989583334,57.0,88.0
793,192.8310521875,192.92618476041667,61.0,90.0
794,193.0965384375,193.42397147916665,59.0,88.0
795,193.0965384375,193.71379396875,62.0,88.0
796,193.6275109375,193.79565222916665,57.0,81.0
797,193.3620246875,194.00361645833334,54.0,76.0
798,193.8929971875,194.26025316666664,57.0,95.0
799,193.8929971875,194.29786371875,62.0,93.0
800,194.4239696875,194.51025271875,62.0,79.0
801,194.1584834375,194.52131464583334,54.0,86.0
802,193.0965384375,194.64299584375,47.0,92.0
803,194.4239696875,194.99255273958332,66.0,92.0
804,194.6894559375,195.08989769791665,57.0,88.0
805,194.9549421875,195.21157889583333,62.0,89.0
806,195.2204284375,195.56334817708333,59.0,89.0
807,195.2204284375,195.74476378125,64.0,91.0
808,195.7514009375,196.10095783333333,59.0,82.0
809,196.0168871875,196.13193122916664,64.0,87.0
810,195.48591468749999,196.35095738541668,47.0,78.0
811,196.28237343749998,196.62971794791667,59.0,90.0
812,196.5478596875,196.853168875,47.0,86.0
813,195.2204284375,196.85980603125,40.0,93.0
814,196.28237343749998,196.85980603125,64.0,95.0
815,196.28237343749998,196.92396520833333,71.0,90.0
816,196.8133459375,197.32883173958334,59.0,89.0
817,197.07883218749998,197.36422990625,71.0,88.0
818,197.3443184375,197.60095514583332,57.0,87.0
819,197.3443184375,197.60095514583332,61.0,92.0
820,197.3443184375,197.60537991666666,64.0,92.0
821,197.6098046875,198.01024644791664,52.0,83.0
822,197.87529093749998,198.14741434374997,57.0,92.0
823,198.1407771875,198.48369692708332,52.0,88.0
824,198.4062634375,198.67396207291665,57.0,97.0
825,198.4062634375,198.7159973958333,59.0,102.0
826,198.9372359375,199.09431530208332,57.0,90.0
827,198.67174968749998,199.0965276875,52.0,92.0
828,197.3443184375,199.31112907291666,45.0,90.0
829,199.2027221875,199.38192540625,61.0,100.0
830,199.46820843749998,199.82882726041666,57.0,87.0
831,199.46820843749998,199.85095111458332,61.0,86.0
832,199.46820843749998,199.91289790625,64.0,90.0
833,199.9991809375,200.36643691666666,57.0,90.0
834,199.7336946875,200.38413599999998,52.0,84.0
835,199.46820843749998,200.4018350833333,45.0,92.0
836,200.26466718749998,200.42174655208333,61.0,97.0
837,200.5301534375,200.86201125,61.0,91.0
838,200.5301534375,200.87971033333332,57.0,89.0
839,200.5301534375,200.9018341875,64.0,92.0
840,200.5301534375,201.51466494791666,45.0,93.0
841,201.06112593749998,201.57882412499998,57.0,80.0
842,201.06112593749998,201.60979752083333,64.0,87.0
843,201.5920984375,201.70493009375,38.0,90.0
844,201.5920984375,202.07439845833332,66.0,88.0
845,201.5920984375,202.08988515624998,62.0,87.0
846,202.3885571875,202.53014985416667,62.0,90.0
847,202.1230709375,202.74696362499998,57.0,87.0
848,201.85758468749998,202.81554757291667,50.0,87.0
849,202.65404343749998,203.012449875,62.0,95.0
850,202.9195296875,203.08767097916666,57.0,80.0
851,202.65404343749998,203.20492740625,66.0,97.0
852,202.65404343749998,203.26023704166664,69.0,95.0
853,203.1850159375,203.50581182291666,62.0,86.0
854,203.45050218749998,203.67174072916666,66.0,88.0
855,203.7159884375,204.01466046874998,64.0,89.0
856,203.7159884375,204.06333294791665,68.0,89.0
857,204.24696093749998,204.38855360416665,64.0,88.0
858,204.5124471875,204.63855315625,68.0,89.0
859,203.9814746875,204.90625179166665,47.0,77.0
860,204.7779334375,205.083242625,64.0,95.0
861,204.7779334375,205.32881740624998,68.0,103.0
862,204.7779334375,205.38191465625,71.0,93.0
863,203.7159884375,205.39076419791667,40.0,90.0
864,205.04341968749998,205.39076419791667,47.0,84.0
865,205.3089059375,205.7336839375,64.0,97.0
866,205.5743921875,205.9460729375,68.0,91.0
867,206.3708509375,206.55005415624998,61.0,80.0
868,206.10536468749999,206.76686792708333,56.0,81.0
869,206.63633718749998,207.03014179166667,68.0,90.0
870,206.63633718749998,207.04562848958332,61.0,90.0
871,205.83987843749998,207.14961060416664,49.0,100.0
872,206.90182343749998,207.21819455208333,56.0,88.0
873,207.1673096875,207.3266014375,61.0,91.0
874,207.1673096875,207.49253034375,64.0,95.0
875,207.1673096875,207.4991675,68.0,77.0
876,207.43279593749998,207.55890190625,61.0,92.0
877,207.9637684375,208.27571478124997,57.0,90.0
878,207.9637684375,208.50801524999997,61.0,89.0
879,208.49474093749998,208.81553682291667,57.0,86.0
880,208.7602271875,208.853147375,61.0,93.0
881,208.22925468749997,209.10314692708334,49.0,76.0
882,209.02571343749997,209.31332354166665,57.0,93.0
883,207.9637684375,209.34208455208332,42.0,93.0
884,209.02571343749997,209.40845611458332,61.0,107.0
885,209.2911996875,209.46376575,49.0,87.0
886,209.02571343749997,209.47040290625,66.0,100.0
887,209.5566859375,209.8664198958333,57.0,88.0
888,209.82217218749997,209.91730476041664,61.0,90.0
889,210.0876584375,210.41509147916668,59.0,88.0
890,210.0876584375,210.70491396875,62.0,88.0
891,210.61863093749997,210.78677222916667,57.0,81.0
892,210.3531446875,210.9947364583333,54.0,76.0
893,210.8841171875,211.25137316666667,57.0,95.0
894,210.8841171875,211.28898371875,62.0,93.0
895,211.41508968749997,211.50137271875,62.0,79.0
896,211.1496034375,211.5124346458333,54.0,86.0
897,210.0876584375,211.63411584375,47.0,92.0
898,211.41508968749997,211.9836727395833,66.0,92.0
899,211.6805759375,212.08101769791665,57.0,88.0
900,211.9460621875,212.20269889583332,62.0,89.0
901,212.21154843749997,212.55446817708332,59.0,89.0
902,212.21154843749997,212.73588378124998,64.0,91.0
903,212.7425209375,213.09207783333332,59.0,82.0
904,213.00800718749997,213.12305122916666,64.0,87.0
905,212.4770346875,213.34207738541664,47.0,78.0
906,213.2734934375,213.62083794791664,59.0,90.0
907,213.5389796875,213.844288875,47.0,86.0
908,212.21154843749997,213.85092603124997,40.0,93.0
909,213.2734934375,213.85092603124997,64.0,95.0
910,213.2734934375,213.91508520833332,71.0,90.0
911,213.80446593749997,214.3199517395833,59.0,89.0
912,214.0699521875,214.35534990624998,71.0,88.0
913,214.3354384375,214.59207514583332,57.0,87.0
914,214.3354384375,214.59207514583332,61.0,92.0
915,214.3354384375,214.59649991666666,64.0,92.0
916,214.60092468749997,215.00136644791667,52.0,83.0
917,214.8664109375,215.13853434375,57.0,92.0
918,215.1318971875,215.47481692708334,52.0,88.0
919,215.3973834375,215.66508207291668,57.0,97.0
920,215.3973834375,215.70711739583334,59.0,102.0
921,215.9283559375,216.08543530208334,57.0,90.0
922,215.6628696875,216.0876476875,52.0,92.0
923,214.3354384375,216.30224907291665,45.0,90.0
924,216.1938421875,216.37304540625,61.0,100.0
925,216.4593284375,216.8044605625,59.0,89.0
926,216.4593284375,217.00578763541665,62.0,95.0
927,216.4593284375,217.25357480208334,47.0,87.0
928,216.7248146875,217.38189315625,54.0,82.0
929,216.9903009375,217.39074269791666,59.0,93.0
930,217.2557871875,217.42835325,62.0,90.0
931,217.52127343749999,218.09428126041666,64.0,91.0
932,218.0522459375,218.20047576041665,61.0,102.0
933,218.31773218749998,218.6097670625,61.0,90.0
934,218.31773218749998,218.62525376041665,64.0,95.0
935,217.7867596875,218.6805633958333,56.0,87.0
936,217.52127343749999,218.68277578124997,49.0,92.0
937,218.5832184375,218.69605009375,38.0,90.0
938,218.5832184375,219.06551845833332,66.0,88.0
939,218.5832184375,219.08100515625,62.0,87.0
940,219.3796771875,219.52126985416666,62.0,90.0
941,219.11419093749998,219.738083625,57.0,87.0
942,218.8487046875,219.80666757291664,50.0,87.0
943,219.6451634375,220.00356987499998,62.0,95.0
944,219.91064968749998,220.07879097916666,57.0,80.0
945,219.6451634375,220.19604740625,66.0,97.0
946,219.6451634375,220.25135704166667,69.0,95.0
947,220.1761359375,220.49693182291665,62.0,86.0
948,220.4416221875,220.66286072916665,66.0,88.0
949,220.70710843749998,221.00578046875,64.0,89.0
950,220.70710843749998,221.05445294791667,68.0,89.0
951,221.2380809375,221.37967360416667,64.0,88.0
952,221.50356718749998,221.62967315625,68.0,89.0
953,220.9725946875,221.89737179166667,47.0,77.0
954,221.7690534375,222.074362625,64.0,95.0
955,221.7690534375,222.31993740625,68.0,103.0
956,221.7690534375,222.37303465624998,71.0,93.0
957,220.70710843749998,222.38188419791666,40.0,90.0
958,222.0345396875,222.38188419791666,47.0,84.0
959,222.30002593749998,222.72480393749998,64.0,97.0
960,222.5655121875,222.9371929375,68.0,91.0
961,223.3619709375,223.54117415625,61.0,80.0
962,223.09648468749998,223.75798792708332,56.0,81.0
963,223.6274571875,224.02126179166666,68.0,90.0
964,223.6274571875,224.03674848958332,61.0,90.0
965,222.8309984375,224.14073060416666,49.0,100.0
966,223.89294343749998,224.20931455208333,56.0,88.0
967,224.1584296875,224.31772143749998,61.0,91.0
968,224.1584296875,224.48365034374999,64.0,95.0
969,224.1584296875,224.4902875,68.0,77.0
970,224.4239159375,224.55002190624998,61.0,92.0
971,224.9548884375,225.26683478125,57.0,90.0
972,224.9548884375,225.49913525,61.0,89.0
973,225.48586093749998,225.80665682291664,57.0,86.0
974,225.7513471875,225.844267375,61.0,93.0
975,225.2203746875,226.0942669270833,49.0,76.0
976,226.0168334375,226.30444354166667,57.0,93.0
977,224.9548884375,226.33320455208332,42.0,93.0
978,226.0168334375,226.39957611458334,61.0,107.0
979,226.28231968749998,226.45488575,49.0,87.0
980,226.0168334375,226.46152290625,66.0,100.0
981,226.5478059375,226.85753989583333,57.0,88.0
982,226.8132921875,226.90842476041666,61.0,90.0
983,227.07877843749998,227.40621147916664,59.0,88.0
984,227.07877843749998,227.69603396875,62.0,88.0
985,227.6097509375,227.77789222916664,57.0,81.0
986,227.3442646875,227.98585645833333,54.0,76.0
987,227.87523718749998,228.24249316666666,57.0,95.0
988,227.87523718749998,228.28010371874998,62.0,93.0
989,228.4062096875,228.49249271875,62.0,79.0
990,228.1407234375,228.50355464583333,54.0,86.0
991,227.07877843749998,228.62523584374998,47.0,92.0
992,228.4062096875,228.97479273958334,66.0,92.0
993,228.67169593749998,229.07213769791667,57.0,88.0
994,228.93718218749999,229.19381889583332,62.0,89.0
995,229.2026684375,229.54558817708332,59.0,89.0
996,229.2026684375,229.72700378125,64.0,91.0
997,229.73364093749998,230.08319783333332,59.0,82.0
998,229.9991271875,230.11417122916666,64.0,87.0
999,229.46815468749998,230.33319738541667,47.0,78.0
1000,230.26461343749997,230.61195794791666,59.0,90.0
1001,230.53009968749998,230.83540887499998,47.0,86.0
1002,229.2026684375,230.84204603125,40.0,93.0
1003,230.26461343749997,230.84204603125,64.0,95.0
1004,230.26461343749997,230.90620520833332,71.0,90.0
1005,230.7955859375,231.31107173958333,59.0,89.0
1006,231.06107218749997,231.34646990624998,71.0,88.0
1007,231.3265584375,231.84646901041666,57.0,86.0
1008,231.3265584375,231.85974332291664,69.0,82.0
1009,231.3265584375,231.86416809374998,61.0,86.0
1010,232.1230171875,232.24027361458332,57.0,79.0
1011,231.85753093749997,232.52124656249998,52.0,86.0
1012,232.3885034375,232.94823694791666,57.0,93.0
1013,232.3885034375,233.065493375,61.0,100.0
1014,232.3885034375,233.09867915625,64.0,95.0
1015,232.9194759375,233.30221861458332,52.0,75.0
1016,233.1849621875,233.304431,57.0,75.0
1017,231.3265584375,233.33540439583334,45.0,87.0
1018,233.45044843749997,233.9814209375,57.0,88.0
1019,233.45044843749997,234.11416406249998,61.0,87.0
1020,234.24690718749997,234.3796503125,57.0,66.0
1021,233.9814209375,234.64734894791667,52.0,74.0
1022,233.45044843749997,234.89292372916665,45.0,89.0
1023,234.5123934375,235.09867557291665,61.0,97.0
1024,234.5123934375,235.295577875,64.0,95.0
1025,234.5123934375,235.31327695833332,57.0,92.0
1026,235.04336593749997,235.32876365624998,45.0,89.0
1027,235.5743384375,235.78009028125,38.0,88.0
1028,235.5743384375,236.41504489583332,62.0,86.0
1029,235.5743384375,236.4548678333333,65.0,86.0
1030,236.6362834375,236.94822978125,62.0,88.0
1031,236.6362834375,236.95265455208335,65.0,88.0
1032,237.1672559375,237.53229953124998,62.0,89.0
1033,237.4327421875,237.58760916666665,65.0,78.0
1034,236.9017696875,237.99911285416664,57.0,79.0
1035,237.6982284375,238.27123626041666,62.0,88.0
1036,237.6982284375,238.30442204166667,65.0,88.0
1037,237.6982284375,238.33097066666664,69.0,91.0
1038,238.4946871875,238.59645691666665,62.0,78.0
1039,238.2292009375,238.86415555208333,57.0,75.0
1040,238.7601734375,239.07875693749997,62.0,88.0
1041,238.7601734375,239.08760647916665,74.0,87.0
1042,238.7601734375,239.10309317708334,69.0,88.0
1043,238.7601734375,239.11636748958333,65.0,93.0
1044,236.6362834375,239.12742941666664,50.0,86.0
1045,239.0256596875,239.20707529166665,57.0,87.0
1046,239.2911459375,239.41946429166666,62.0,88.0
1047,239.8221184375,240.2203478125,61.0,84.0
1048,239.8221184375,240.42831204166666,57.0,86.0
1049,240.35309093749999,240.63848865625,59.0,87.0
1050,240.6185771875,240.75574508333332,61.0,92.0
1051,240.0876046875,240.98804555208332,52.0,81.0
1052,240.8840634375,241.11857629166667,61.0,88.0
1053,240.8840634375,241.14291253124998,57.0,87.0
1054,240.8840634375,241.18052308333333,64.0,92.0
1055,239.8221184375,241.75795567708332,45.0,89.0
1056,241.4150359375,241.75795567708332,57.0,86.0
1057,241.14954968749998,241.78450430208332,52.0,87.0
1058,241.6805221875,241.8663625625,64.0,86.0
1059,241.94600843749998,242.50352956249998,69.0,87.0
1060,241.94600843749998,242.50574194791665,61.0,73.0
1061,241.94600843749998,242.52786580208334,57.0,79.0
1062,241.94600843749998,242.61414883333333,64.0,86.0
1063,242.74246718749998,242.89733416666667,57.0,79.0
1064,242.4769809375,243.19600619791666,52.0,84.0
1065,243.0079534375,243.21813005208332,57.0,92.0
1066,241.94600843749998,243.32211216666667,45.0,91.0
1067,243.0079534375,243.36414748958333,61.0,95.0
1068,243.0079534375,243.50131538541666,64.0,95.0
1069,243.0079534375,243.54998786458333,69.0,86.0
1070,243.53892593749998,243.79998741666665,61.0,90.0
1071,243.2734396875,243.83317319791666,57.0,83.0
1072,244.0698984375,244.14954431249998,38.0,95.0
1073,244.0698984375,244.31768560416666,57.0,85.0
1074,244.0698984375,244.43272964583332,62.0,87.0
1075,244.33538468749998,244.69821589583333,50.0,82.0
1076,244.6008709375,244.74246360416666,57.0,82.0
1077,244.8663571875,245.20927692708332,62.0,91.0
1078,245.13184343749998,245.54998428125,69.0,87.0
1079,245.3973296875,245.70706364583333,62.0,79.0
1080,246.15617788541667,248.26236880208333,38.0,92.0
1081,246.20485036458334,248.49466927083333,74.0,90.0
1082,246.14069118749998,248.94378351041667,69.0,71.0
1083,246.05219577083332,248.994668375,62.0,74.0
1084,249.80661382291666,250.25794044791667,59.0,80.0
1085,249.9902418125,250.33537393749998,61.0,81.0
1086,250.23139182291666,250.52342669791665,64.0,78.0
1087,250.45484274999998,250.799974875,57.0,61.0
1088,251.04333727083332,251.2645758125,57.0,66.0
1089,250.72696615625,251.357496,69.0,71.0
1090,251.994663,252.11855658333332,69.0,54.0
1091,252.10306988541666,252.21811392708332,81.0,81.0
1092,249.61634867708332,252.67607770833334,52.0,78.0
1093,249.42387114583332,252.70041394791667,45.0,86.0
