,start,end,pitch,velocity
0,25.340625000000003,25.582812500000003,69.0,84.0
1,25.715625000000003,26.021875,69.0,83.0
2,26.090625000000003,26.431250000000002,69.0,85.0
3,26.465625000000003,26.8578125,67.0,82.0
4,26.840625000000003,28.028125000000003,65.0,83.0
5,28.340625000000003,28.621875000000003,64.0,83.0
6,28.715625000000003,28.9921875,62.0,83.0
7,29.090625000000003,29.418750000000003,64.0,82.0
8,29.465625000000003,29.8359375,60.0,74.0
9,29.840625000000003,30.9921875,62.0,71.0
10,31.340625000000003,31.6171875,65.0,83.0
11,31.715625000000003,31.9921875,65.0,85.0
12,32.090625,32.396875,65.0,87.0
13,32.465625,32.7515625,62.0,87.0
14,32.840625,33.584375,72.0,86.0
15,33.590625,33.978125,69.0,79.0
16,33.965625,34.35625,67.0,78.0
17,34.340625,36.651562500000004,69.0,83.0
18,37.340625,37.698437500000004,69.0,84.0
19,37.715625,37.9921875,74.0,87.0
20,38.090625,38.3296875,74.0,89.0
21,38.465625,38.803125,72.0,79.0
22,38.840625,39.978125000000006,69.0,85.0
23,39.965625,40.378125000000004,67.0,75.0
24,40.340625,40.621875,65.0,79.0
25,40.715625,41.048437500000006,65.0,80.0
26,41.090625,41.453125,62.0,85.0
27,41.465625,41.8828125,60.0,83.0
28,41.840625,43.1609375,57.0,83.0
29,43.340625,43.728125000000006,57.0,84.0
30,43.715625,44.081250000000004,60.0,84.0
31,44.090625,44.501562500000006,62.0,84.0
32,44.465625,44.885937500000004,69.0,87.0
33,44.840625,45.2265625,67.0,83.0
34,45.215625,45.6140625,65.0,83.0
35,45.590625,46.025000000000006,62.0,84.0
36,45.965625,46.3515625,60.0,84.0
37,46.340625,49.0703125,62.0,83.0
38,49.340625,49.5828125,69.0,84.0
39,49.715625,50.021875,69.0,83.0
40,50.090625,50.431250000000006,69.0,85.0
41,50.465625,50.8578125,67.0,82.0
42,50.840625,52.028125,65.0,83.0
43,52.340625,52.621875,64.0,83.0
44,52.715625,52.9921875,62.0,83.0
45,53.090625,53.41875,64.0,82.0
46,53.465625,53.8359375,60.0,74.0
47,53.840625,54.9921875,62.0,71.0
48,55.340625,55.6171875,65.0,83.0
49,55.715625,55.9921875,65.0,85.0
50,56.090625,56.396875,65.0,87.0
51,56.465625,56.751562500000006,62.0,87.0
52,56.840625,57.584375,72.0,86.0
53,57.590625,57.978125000000006,69.0,79.0
54,57.965625,58.35625,67.0,78.0
55,58.340625,60.651562500000004,69.0,83.0
56,61.340625,61.698437500000004,69.0,84.0
57,61.715625,61.9921875,74.0,87.0
58,62.090625,62.329687500000006,74.0,89.0
59,62.465625,62.803125,72.0,79.0
60,62.840625,63.978125000000006,69.0,85.0
61,63.965625,64.378125,67.0,75.0
62,64.340625,64.621875,65.0,79.0
63,64.715625,65.0484375,65.0,80.0
64,65.090625,65.453125,62.0,85.0
65,65.465625,65.8828125,60.0,83.0
66,65.840625,67.1609375,57.0,83.0
67,67.340625,67.728125,57.0,84.0
68,67.715625,68.08125,60.0,84.0
69,68.090625,68.5015625,62.0,84.0
70,68.465625,68.8859375,69.0,87.0
71,68.840625,69.2265625,67.0,83.0
72,69.215625,69.6140625,65.0,83.0
73,69.590625,70.025,62.0,84.0
74,69.965625,70.3515625,60.0,84.0
75,70.340625,72.215625,62.0,83.0
76,72.590625,72.9,69.0,89.0
77,72.965625,73.3296875,72.0,89.0
78,73.340625,73.8125,74.0,89.0
79,73.903125,74.3640625,74.0,94.0
80,74.465625,74.8671875,77.0,83.0
81,74.840625,75.2359375,76.0,88.0
82,75.215625,75.5015625,74.0,94.0
83,75.590625,75.95156250000001,74.0,92.0
84,75.965625,76.371875,72.0,84.0
85,76.340625,78.390625,74.0,92.0
86,78.590625,78.9,69.0,89.0
87,78.965625,79.3296875,72.0,89.0
88,79.340625,79.8125,74.0,89.0
89,79.903125,80.3640625,74.0,94.0
90,80.465625,80.8671875,77.0,83.0
91,80.840625,81.2359375,76.0,88.0
92,81.215625,81.5015625,74.0,94.0
93,81.590625,81.95156250000001,74.0,92.0
94,81.965625,82.371875,72.0,84.0
95,82.340625,84.390625,69.0,92.0
96,84.590625,84.90468750000001,69.0,94.0
97,84.965625,85.24062500000001,72.0,87.0
98,85.340625,85.8484375,74.0,86.0
99,85.903125,86.42500000000001,74.0,89.0
100,86.465625,86.85000000000001,72.0,89.0
101,86.840625,87.1453125,69.0,87.0
102,87.215625,87.4859375,62.0,87.0
103,87.590625,87.97187500000001,65.0,84.0
104,87.965625,88.38125000000001,69.0,85.0
105,88.340625,90.2828125,67.0,83.0
106,90.590625,90.87343750000001,62.0,84.0
107,90.965625,91.35781250000001,65.0,85.0
108,91.340625,91.59687500000001,67.0,81.0
109,91.715625,91.99062500000001,67.0,79.0
110,92.090625,92.41718750000001,67.0,84.0
111,92.465625,92.871875,69.0,83.0
112,92.840625,93.1921875,72.0,85.0
113,93.215625,93.62031250000001,69.0,84.0
114,93.590625,93.95156250000001,72.0,83.0
115,93.965625,94.39687500000001,67.0,82.0
116,94.340625,96.421875,69.0,84.0
117,96.590625,96.9,69.0,89.0
118,96.965625,97.3296875,72.0,89.0
119,97.340625,97.8125,74.0,89.0
120,97.903125,98.3640625,74.0,94.0
121,98.465625,98.8671875,77.0,83.0
122,98.840625,99.2359375,76.0,88.0
123,99.215625,99.5015625,74.0,94.0
124,99.590625,99.95156250000001,74.0,92.0
125,99.965625,100.371875,72.0,84.0
126,100.340625,102.390625,74.0,92.0
127,102.590625,102.9,69.0,89.0
128,102.965625,103.3296875,72.0,89.0
129,103.340625,103.8125,74.0,89.0
130,103.903125,104.3640625,74.0,94.0
131,104.465625,104.8671875,77.0,83.0
132,104.840625,105.2359375,76.0,88.0
133,105.215625,105.5015625,74.0,94.0
134,105.590625,105.95156250000001,74.0,92.0
135,105.965625,106.371875,72.0,84.0
136,106.340625,108.390625,69.0,92.0
137,109.340625,109.69375000000001,69.0,87.0
138,109.715625,110.009375,74.0,85.0
139,110.090625,110.4140625,74.0,88.0
140,110.465625,110.76875000000001,69.0,84.0
141,110.840625,112.10000000000001,67.0,84.0
142,112.340625,112.6265625,69.0,85.0
143,112.715625,112.996875,72.0,85.0
144,113.090625,113.40937500000001,72.0,84.0
145,113.465625,113.8328125,69.0,84.0
146,113.840625,115.1578125,65.0,83.0
147,115.340625,115.58906250000001,64.0,89.0
148,115.715625,115.9421875,64.0,88.0
149,116.090625,116.3875,64.0,90.0
150,116.465625,116.8765625,72.0,87.0
151,116.840625,117.2578125,69.0,87.0
152,117.215625,117.60625,67.0,84.0
153,117.590625,117.759375,65.0,84.0
154,117.778125,118.0015625,67.0,83.0
155,117.965625,118.1875,65.0,82.0
156,118.153125,118.36562500000001,64.0,85.0
157,118.340625,121.1640625,62.0,86.0
158,145.34062500000002,145.58281250000002,69.0,84.0
159,145.71562500000002,146.021875,69.0,83.0
160,146.09062500000002,146.43125,69.0,85.0
161,146.46562500000002,146.8578125,67.0,82.0
162,146.84062500000002,148.02812500000002,65.0,83.0
163,148.34062500000002,148.62187500000002,64.0,83.0
164,148.71562500000002,148.9921875,62.0,83.0
165,149.09062500000002,149.41875000000002,64.0,82.0
166,149.46562500000002,149.8359375,60.0,74.0
167,149.84062500000002,150.9921875,62.0,71.0
168,151.34062500000002,151.6171875,65.0,83.0
169,151.71562500000002,151.9921875,65.0,85.0
170,152.09062500000002,152.396875,65.0,87.0
171,152.46562500000002,152.7515625,62.0,87.0
172,152.84062500000002,153.584375,72.0,86.0
173,153.59062500000002,153.978125,69.0,79.0
174,153.96562500000002,154.35625000000002,67.0,78.0
175,154.34062500000002,156.6515625,69.0,83.0
176,157.34062500000002,157.6984375,69.0,84.0
177,157.71562500000002,157.9921875,74.0,87.0
178,158.09062500000002,158.3296875,74.0,89.0
179,158.46562500000002,158.80312500000002,72.0,79.0
180,158.84062500000002,159.978125,69.0,85.0
181,159.96562500000002,160.378125,67.0,75.0
182,160.34062500000002,160.62187500000002,65.0,79.0
183,160.71562500000002,161.0484375,65.0,80.0
184,161.09062500000002,161.453125,62.0,85.0
185,161.46562500000002,161.8828125,60.0,83.0
186,161.84062500000002,163.16093750000002,57.0,83.0
187,163.34062500000002,163.728125,57.0,84.0
188,163.71562500000002,164.08125,60.0,84.0
189,164.09062500000002,164.5015625,62.0,84.0
190,164.46562500000002,164.8859375,69.0,87.0
191,164.84062500000002,165.2265625,67.0,83.0
192,165.21562500000002,165.61406250000002,65.0,83.0
193,165.59062500000002,166.025,62.0,84.0
194,165.96562500000002,166.3515625,60.0,84.0
195,166.34062500000002,168.21562500000002,62.0,83.0
196,168.59062500000002,168.9,69.0,89.0
197,168.96562500000002,169.3296875,72.0,89.0
198,169.34062500000002,169.8125,74.0,89.0
199,169.90312500000002,170.36406250000002,74.0,94.0
200,170.46562500000002,170.8671875,77.0,83.0
201,170.84062500000002,171.2359375,76.0,88.0
202,171.21562500000002,171.5015625,74.0,94.0
203,171.59062500000002,171.95156250000002,74.0,92.0
204,171.96562500000002,172.37187500000002,72.0,84.0
205,172.34062500000002,174.390625,74.0,92.0
206,174.59062500000002,174.9,69.0,89.0
207,174.96562500000002,175.3296875,72.0,89.0
208,175.34062500000002,175.8125,74.0,89.0
209,175.90312500000002,176.36406250000002,74.0,94.0
210,176.46562500000002,176.8671875,77.0,83.0
211,176.84062500000002,177.2359375,76.0,88.0
212,177.21562500000002,177.5015625,74.0,94.0
213,177.59062500000002,177.95156250000002,74.0,92.0
214,177.96562500000002,178.37187500000002,72.0,84.0
215,178.34062500000002,180.390625,69.0,92.0
216,180.59062500000002,180.90468750000002,69.0,94.0
217,180.96562500000002,181.24062500000002,72.0,87.0
218,181.34062500000002,181.84843750000002,74.0,86.0
219,181.90312500000002,182.425,74.0,89.0
220,182.46562500000002,182.85000000000002,72.0,89.0
221,182.84062500000002,183.14531250000002,69.0,87.0
222,183.21562500000002,183.4859375,62.0,87.0
223,183.59062500000002,183.971875,65.0,84.0
224,183.96562500000002,184.38125000000002,69.0,85.0
225,184.34062500000002,186.2828125,67.0,83.0
226,186.59062500000002,186.87343750000002,62.0,84.0
227,186.96562500000002,187.35781250000002,65.0,85.0
228,187.34062500000002,187.596875,67.0,81.0
229,187.71562500000002,187.99062500000002,67.0,79.0
230,188.09062500000002,188.4171875,67.0,84.0
231,188.46562500000002,188.87187500000002,69.0,83.0
232,188.84062500000002,189.19218750000002,72.0,85.0
233,189.21562500000002,189.6203125,69.0,84.0
234,189.59062500000002,189.95156250000002,72.0,83.0
235,189.96562500000002,190.39687500000002,67.0,82.0
236,190.34062500000002,192.421875,69.0,84.0
237,192.59062500000002,192.9,69.0,89.0
238,192.96562500000002,193.3296875,72.0,89.0
239,193.34062500000002,193.8125,74.0,89.0
240,193.90312500000002,194.36406250000002,74.0,94.0
241,194.46562500000002,194.8671875,77.0,83.0
242,194.84062500000002,195.2359375,76.0,88.0
243,195.21562500000002,195.5015625,74.0,94.0
244,195.59062500000002,195.95156250000002,74.0,92.0
245,195.96562500000002,196.37187500000002,72.0,84.0
246,196.34062500000002,198.390625,74.0,92.0
247,198.59062500000002,198.9,69.0,89.0
248,198.96562500000002,199.3296875,72.0,89.0
249,199.34062500000002,199.8125,74.0,89.0
250,199.90312500000002,200.36406250000002,74.0,94.0
251,200.46562500000002,200.8671875,77.0,83.0
252,200.84062500000002,201.2359375,76.0,88.0
253,201.21562500000002,201.5015625,74.0,94.0
254,201.59062500000002,201.95156250000002,74.0,92.0
255,201.96562500000002,202.37187500000002,72.0,84.0
256,202.34062500000002,204.390625,69.0,92.0
257,205.34062500000002,205.69375000000002,69.0,87.0
258,205.71562500000002,206.009375,74.0,85.0
259,206.09062500000002,206.4140625,74.0,88.0
260,206.46562500000002,206.76875,69.0,84.0
261,206.84062500000002,208.10000000000002,67.0,84.0
262,208.34062500000002,208.6265625,69.0,85.0
263,208.71562500000002,208.99687500000002,72.0,85.0
264,209.09062500000002,209.409375,72.0,84.0
265,209.46562500000002,209.83281250000002,69.0,84.0
266,209.84062500000002,211.1578125,65.0,83.0
267,211.34062500000002,211.5890625,64.0,89.0
268,211.71562500000002,211.94218750000002,64.0,88.0
269,212.09062500000002,212.38750000000002,64.0,90.0
270,212.46562500000002,212.8765625,72.0,87.0
271,212.84062500000002,213.2578125,69.0,87.0
272,213.21562500000002,213.60625000000002,67.0,84.0
273,213.59062500000002,213.759375,65.0,84.0
274,213.77812500000002,214.0015625,67.0,83.0
275,213.96562500000002,214.1875,65.0,82.0
276,214.15312500000002,214.36562500000002,64.0,85.0
277,214.34062500000002,217.1640625,62.0,86.0
278,219.59062500000002,219.9,70.0,89.0
279,219.96562500000002,220.3296875,73.0,89.0
280,220.34062500000002,220.8125,75.0,89.0
281,220.90312500000002,221.36406250000002,75.0,94.0
282,221.46562500000002,221.8671875,78.0,83.0
283,221.84062500000002,222.2359375,77.0,88.0
284,222.21562500000002,222.5015625,75.0,94.0
285,222.59062500000002,222.95156250000002,75.0,92.0
286,222.96562500000002,223.37187500000002,73.0,84.0
287,223.34062500000002,225.390625,75.0,92.0
288,225.59062500000002,225.9,70.0,89.0
289,225.96562500000002,226.3296875,73.0,89.0
290,226.34062500000002,226.8125,75.0,89.0
291,226.90312500000002,227.36406250000002,75.0,94.0
292,227.46562500000002,227.8671875,78.0,83.0
293,227.84062500000002,228.2359375,77.0,88.0
294,228.21562500000002,228.5015625,75.0,94.0
295,228.59062500000002,228.95156250000002,75.0,92.0
296,228.96562500000002,229.37187500000002,73.0,84.0
297,229.34062500000002,231.390625,70.0,92.0
298,231.59062500000002,231.90468750000002,70.0,94.0
299,231.96562500000002,232.24062500000002,73.0,87.0
300,232.34062500000002,232.84843750000002,75.0,86.0
301,232.90312500000002,233.425,75.0,89.0
302,233.46562500000002,233.85000000000002,73.0,89.0
303,233.84062500000002,234.14531250000002,70.0,87.0
304,234.21562500000002,234.4859375,63.0,87.0
305,234.59062500000002,234.971875,66.0,84.0
306,234.96562500000002,235.38125000000002,70.0,85.0
307,235.34062500000002,237.2828125,68.0,83.0
308,237.59062500000002,237.87343750000002,63.0,84.0
309,237.96562500000002,238.35781250000002,66.0,85.0
310,238.34062500000002,238.596875,68.0,81.0
311,238.71562500000002,238.99062500000002,68.0,79.0
312,239.09062500000002,239.4171875,68.0,84.0
313,239.46562500000002,239.87187500000002,70.0,83.0
314,239.84062500000002,240.19218750000002,73.0,85.0
315,240.21562500000002,240.6203125,70.0,84.0
316,240.59062500000002,240.95156250000002,73.0,83.0
317,240.96562500000002,241.39687500000002,68.0,82.0
318,241.34062500000002,243.421875,70.0,84.0
319,243.59062500000002,243.9,70.0,89.0
320,243.96562500000002,244.3296875,73.0,89.0
321,244.34062500000002,244.8125,75.0,89.0
322,244.90312500000002,245.36406250000002,75.0,94.0
323,245.46562500000002,245.8671875,78.0,83.0
324,245.84062500000002,246.2359375,77.0,88.0
325,246.21562500000002,246.5015625,75.0,94.0
326,246.59062500000002,246.95156250000002,75.0,92.0
327,246.96562500000002,247.37187500000002,73.0,84.0
328,247.34062500000002,249.390625,75.0,92.0
329,249.59062500000002,249.9,70.0,89.0
330,249.96562500000002,250.3296875,73.0,89.0
331,250.34062500000002,250.8125,75.0,89.0
332,250.90312500000002,251.36406250000002,75.0,94.0
333,251.46562500000002,251.8671875,78.0,83.0
334,251.84062500000002,252.2359375,77.0,88.0
335,252.21562500000002,252.5015625,75.0,94.0
336,252.59062500000002,252.95156250000002,75.0,92.0
337,252.96562500000002,253.37187500000002,73.0,84.0
338,253.34062500000002,255.390625,70.0,92.0
339,256.340625,256.69375,70.0,87.0
340,256.715625,257.00937500000003,75.0,85.0
341,257.090625,257.4140625,75.0,88.0
342,257.465625,257.76875,70.0,84.0
343,257.840625,259.1,68.0,84.0
344,259.340625,259.62656250000003,70.0,85.0
345,259.715625,259.996875,73.0,85.0
346,260.090625,260.409375,73.0,84.0
347,260.465625,260.8328125,70.0,84.0
348,260.840625,262.15781250000003,66.0,83.0
349,262.340625,262.5890625,65.0,89.0
350,262.715625,262.9421875,65.0,88.0
351,263.090625,263.3875,65.0,90.0
352,263.465625,263.87656250000003,73.0,87.0
353,263.840625,264.2578125,70.0,87.0
354,264.215625,264.60625,68.0,84.0
355,264.590625,264.75937500000003,66.0,84.0
356,264.778125,265.00156250000003,68.0,83.0
357,264.965625,265.1875,66.0,82.0
358,265.153125,265.365625,65.0,85.0
359,265.340625,268.1640625,63.0,86.0
360,268.35625,268.659375,65.0,84.0
361,268.74375000000003,269.06406250000003,65.0,84.0
362,269.18906250000003,269.66875,65.0,87.0
363,269.6640625,270.2921875,73.0,86.0
364,270.2078125,271.0609375,70.0,92.0
365,271.0046875,271.659375,68.0,85.0
366,271.6390625,271.984375,65.0,73.0
367,271.9265625,272.284375,63.0,87.0
368,272.2546875,273.2234375,61.0,79.0
369,273.1703125,277.8,63.0,83.0
