,start,end,pitch,velocity
0,16.407126450000003,16.732126125,72.0,100.0
1,16.83569745,16.971411600000003,72.0,101.0
2,17.049982950000004,17.174982825,72.0,103.0
3,17.264268450000003,17.571411,72.0,98.0
4,17.69283945,18.044624812500004,67.0,100.0
5,18.121410450000003,19.278552150000003,70.0,101.0
6,19.835694450000002,20.0874799125,72.0,98.0
7,20.264265450000003,20.3839081875,72.0,101.0
8,20.478550950000002,20.596407975,72.0,99.0
9,20.69283645,20.996407575000003,72.0,94.0
10,21.121407450000003,21.412478587500004,67.0,100.0
11,21.54997845,22.512477487500004,63.0,105.0
12,23.264262450000004,23.478547950000003,65.0,108.0
13,23.692833450000002,23.8017619125,65.0,95.0
14,23.907118950000005,24.424975575000005,65.0,103.0
15,24.54997545,24.855332287500005,67.0,98.0
16,24.978546450000003,25.292831850000002,70.0,98.0
17,25.407117450000005,25.517831625000003,70.0,96.0
18,25.621402950000004,26.233902337500002,70.0,98.0
19,26.264259450000004,26.478544950000003,67.0,94.0
20,26.478544950000003,26.692830450000002,70.0,99.0
21,26.692830450000002,27.121401450000004,72.0,96.0
22,27.121401450000004,27.235687050000003,72.0,94.0
23,27.335686950000003,27.444615412500003,72.0,98.0
24,27.549972450000002,27.933900637500003,72.0,98.0
25,27.978543450000004,28.335685950000002,70.0,105.0
26,28.407114450000005,29.773184512500006,67.0,101.0
27,30.121398450000004,30.419612437500003,72.0,100.0
28,30.549969450000003,30.676755037500005,72.0,97.0
29,30.764254950000005,30.880326262500002,72.0,98.0
30,30.978540450000004,31.335682950000002,72.0,103.0
31,31.407111450000006,31.730325412500004,67.0,96.0
32,31.835682450000004,33.096395475,70.0,94.0
33,33.54996645000001,33.8142519,72.0,98.0
34,33.978537450000005,34.12496587500001,72.0,96.0
35,34.19282295000001,34.29282285000001,72.0,95.0
36,34.40710845,34.703536725000006,72.0,100.0
37,34.83567945000001,35.139250575000005,67.0,98.0
38,35.264250450000006,36.78746321250001,63.0,84.0
39,36.978534450000005,37.2571056,65.0,105.0
40,37.40710545,37.53567675000001,65.0,96.0
41,37.621390950000006,37.919604937500004,65.0,101.0
42,38.049961950000004,38.149961850000004,65.0,101.0
43,38.264247450000006,38.38924732500001,65.0,97.0
44,38.47853295,38.599961400000005,67.0,95.0
45,38.692818450000004,39.0088895625,70.0,98.0
46,39.12138945,39.335674950000005,67.0,90.0
47,39.335674950000005,39.54996045000001,70.0,93.0
48,39.54996045000001,40.241031187500006,63.0,101.0
49,40.407102450000004,43.35531378750001,60.0,103.0
50,43.83567045000001,44.160670125,72.0,100.0
51,44.26424145000001,44.399955600000006,72.0,101.0
52,44.47852695,44.603526825,72.0,103.0
53,44.692812450000005,44.99995500000001,72.0,98.0
54,45.12138345,45.473168812500006,67.0,100.0
55,45.54995445000001,46.707096150000005,70.0,101.0
56,47.26423845000001,47.5160239125,72.0,98.0
57,47.692809450000006,47.81245218750001,72.0,101.0
58,47.90709495000001,48.02495197500001,72.0,99.0
59,48.121380450000004,48.42495157500001,72.0,94.0
60,48.54995145000001,48.84102258750001,67.0,100.0
61,48.97852245000001,49.94102148750001,63.0,105.0
62,50.692806450000006,50.90709195000001,65.0,108.0
63,51.121377450000004,51.23030591250001,65.0,95.0
64,51.33566295000001,51.85351957500001,65.0,103.0
65,51.97851945000001,52.28387628750001,67.0,98.0
66,52.407090450000005,52.72137585000001,70.0,98.0
67,52.83566145,52.94637562500001,70.0,96.0
68,53.049946950000006,53.66244633750001,70.0,98.0
69,53.69280345000001,53.90708895000001,67.0,94.0
70,53.90708895000001,54.121374450000005,70.0,99.0
71,54.121374450000005,54.54994545000001,72.0,96.0
72,54.54994545000001,54.664231050000005,72.0,94.0
73,54.764230950000005,54.87315941250001,72.0,98.0
74,54.97851645000001,55.362444637500005,72.0,98.0
75,55.407087450000006,55.76422995000001,70.0,105.0
76,55.835658450000004,57.201728512500004,67.0,101.0
77,57.54994245000001,57.84815643750001,72.0,100.0
78,57.97851345000001,58.10529903750001,72.0,97.0
79,58.19279895000001,58.30887026250001,72.0,98.0
80,58.407084450000006,58.76422695000001,72.0,103.0
81,58.835655450000004,59.15886941250001,67.0,96.0
82,59.26422645000001,60.52493947500001,70.0,94.0
83,60.97851045000001,61.24279590000001,72.0,98.0
84,61.40708145000001,61.55350987500001,72.0,96.0
85,61.62136695000001,61.72136685000001,72.0,95.0
86,61.835652450000005,62.13208072500001,72.0,100.0
87,62.26422345000001,62.56779457500001,67.0,98.0
88,62.69279445000001,64.2160072125,63.0,84.0
89,64.40707845000001,64.6856496,65.0,105.0
90,64.83564945,64.96422075000001,65.0,96.0
91,65.04993495000001,65.34814893750001,65.0,101.0
92,65.47850595000001,65.57850585000001,65.0,101.0
93,65.69279145000002,65.817791325,65.0,97.0
94,65.90707695,66.02850540000001,67.0,95.0
95,66.12136245,66.4374335625,70.0,98.0
96,66.76421895000001,66.97850445,67.0,90.0
97,66.97850445,67.19278995,70.0,93.0
98,67.40707545000001,67.617789525,75.0,100.0
99,67.62136095000001,67.83743216250001,74.0,108.0
100,67.83564645000001,67.98207487500001,72.0,100.0
101,68.04993195000002,68.23207462500001,74.0,105.0
102,68.26421745,71.02492897500001,72.0,101.0
103,74.69278245000001,75.13385343750001,79.0,101.0
104,75.33563895,75.46242453750001,79.0,98.0
105,75.54992445,75.65885291250001,79.0,101.0
106,75.76420995000001,75.88385268750001,79.0,95.0
107,75.97849545000001,76.08206677500002,79.0,99.0
108,76.19278095000001,76.31956653750001,79.0,98.0
109,76.40706645000002,76.72313756250001,77.0,103.0
110,76.83563745000001,76.93563735000001,79.0,101.0
111,77.04992295000001,77.15349427500001,77.0,97.0
112,77.26420845000001,77.7267079875,75.0,98.0
113,78.12135045000001,78.44099298750001,77.0,96.0
114,78.54992145000001,78.65884991250002,77.0,100.0
115,78.76420695000002,78.867778275,79.0,101.0
116,78.97849245,79.29277785000001,70.0,103.0
117,79.40706345000001,79.50527763750001,67.0,101.0
118,79.62134895000001,79.753491675,70.0,99.0
119,79.83563445000001,81.074918925,72.0,96.0
120,81.54991845,82.06241793750002,79.0,96.0
121,82.19277495000001,82.31241768750002,79.0,98.0
122,82.40706045000002,82.5267031875,79.0,96.0
123,82.62134595,82.73920297500001,79.0,95.0
124,82.83563145000001,82.95348847500001,79.0,96.0
125,83.04991695000001,83.182059675,79.0,95.0
126,83.26420245000001,83.57313071250002,77.0,98.0
127,83.69277345,83.817773325,79.0,100.0
128,83.90705895,84.00170171250001,77.0,96.0
129,84.12134445000001,84.76420095000002,75.0,95.0
130,84.97848645,85.33741466250001,67.0,99.0
131,85.40705745000001,85.54991445000002,70.0,105.0
132,85.62134295000001,85.77312851250001,72.0,96.0
133,85.83562845000002,85.939199775,75.0,101.0
134,86.04991395000002,86.23205662500001,77.0,96.0
135,86.26419945,86.46241353750001,75.0,105.0
136,86.47848495000001,86.58919912500001,72.0,97.0
137,86.69277045000001,88.07669763750002,72.0,101.0
138,88.40705445000002,88.51776862500002,77.0,100.0
139,88.62133995,88.73026841250001,77.0,98.0
140,88.83562545000001,88.94455391250001,77.0,101.0
141,89.04991095000001,89.17491082500001,77.0,96.0
142,89.26419645000001,89.38383918750002,77.0,95.0
143,89.47848195000002,89.57669613750001,77.0,96.0
144,89.69276745,89.80883876250002,77.0,93.0
145,89.90705295000001,90.02669568750001,79.0,98.0
146,90.12133845000001,90.403481025,75.0,98.0
147,90.54990945000002,91.43740856250001,72.0,101.0
148,91.83562245000002,91.95883661250001,77.0,95.0
149,92.04990795,92.15883641250001,77.0,95.0
150,92.26419345000001,92.38383618750001,77.0,96.0
151,92.47847895000001,92.59812168750001,77.0,99.0
152,92.69276445000001,92.82133575000002,79.0,101.0
153,92.90704995000002,93.01954983750001,77.0,105.0
154,93.12133545000002,93.26776387500001,75.0,99.0
155,93.33562095,93.43919227500001,77.0,98.0
156,93.54990645000001,94.90347652500002,79.0,101.0
157,95.26419045000002,95.36419035000002,77.0,98.0
158,95.47847595000002,95.57847585000002,77.0,96.0
159,95.69276145,95.79276135,77.0,94.0
160,95.90704695000001,96.01061827500001,77.0,96.0
161,96.12133245000001,96.22490377500002,77.0,97.0
162,96.33561795000001,96.43561785000001,77.0,95.0
163,96.54990345000002,96.66418905000002,77.0,96.0
164,96.76418895000002,96.87311741250001,79.0,101.0
165,96.97847445000001,97.28025986250002,70.0,103.0
166,97.40704545000001,98.14454471250001,67.0,98.0
167,98.26418745000001,98.57311571250001,77.0,99.0
168,98.69275845000001,98.89097253750002,75.0,105.0
169,98.90704395000002,99.03740096250002,74.0,100.0
170,99.12132945000002,101.9481123375,72.0,99.0
171,129.54987045000001,129.87487012500003,72.0,100.0
172,129.97844145000002,130.1141556,72.0,101.0
173,130.19272695,130.31772682500002,72.0,103.0
174,130.40701245000002,130.714155,72.0,98.0
175,130.83558345000003,131.1873688125,67.0,100.0
176,131.26415445,132.42129615000002,70.0,101.0
177,132.97843845000003,133.2302239125,72.0,98.0
178,133.40700945,133.52665218750002,72.0,101.0
179,133.62129495000002,133.73915197500003,72.0,99.0
180,133.83558045,134.13915157500003,72.0,94.0
181,134.26415145,134.55522258750003,67.0,100.0
182,134.69272245000002,135.65522148750003,63.0,105.0
183,136.40700645,136.62129195000003,65.0,108.0
184,136.83557745000002,136.9445059125,65.0,95.0
185,137.04986295,137.567719575,65.0,103.0
186,137.69271945000003,137.99807628750003,67.0,98.0
187,138.12129045000003,138.43557585000002,70.0,98.0
188,138.54986145,138.660575625,70.0,96.0
189,138.76414695000003,139.3766463375,70.0,98.0
190,139.40700345000002,139.62128895,67.0,94.0
191,139.62128895,139.83557445000002,70.0,99.0
192,139.83557445000002,140.26414545000003,72.0,96.0
193,140.26414545000003,140.37843105000002,72.0,94.0
194,140.47843095000002,140.5873594125,72.0,98.0
195,140.69271645,141.0766446375,72.0,98.0
196,141.12128745,141.47842995000002,70.0,105.0
197,141.54985845000002,142.91592851250002,67.0,101.0
198,143.26414245,143.56235643750003,72.0,100.0
199,143.69271345,143.8194990375,72.0,97.0
200,143.90699895000003,144.02307026250003,72.0,98.0
201,144.12128445000002,144.47842695000003,72.0,103.0
202,144.54985545000002,144.87306941250003,67.0,96.0
203,144.97842645000003,146.23913947500003,70.0,94.0
204,146.69271045000002,146.9569959,72.0,98.0
205,147.12128145000003,147.267709875,72.0,96.0
206,147.33556695000001,147.43556685000001,72.0,95.0
207,147.54985245000003,147.846280725,72.0,100.0
208,147.97842345,148.28199457500003,67.0,98.0
209,148.40699445,149.93020721250002,63.0,84.0
210,150.12127845,150.3998496,65.0,105.0
211,150.54984945,150.67842075000002,65.0,96.0
212,150.76413495000003,151.06234893750002,65.0,101.0
213,151.19270595000003,151.29270585000003,65.0,101.0
214,151.40699145000002,151.531991325,65.0,97.0
215,151.62127695,151.74270540000003,67.0,95.0
216,151.83556245000003,152.15163356250002,70.0,98.0
217,152.26413345000003,152.47841895000002,67.0,90.0
218,152.47841895000002,152.69270445,70.0,93.0
219,152.69270445,153.38377518750002,63.0,101.0
220,153.54984645000002,156.49805778750002,60.0,103.0
221,156.97841445000003,157.30341412500002,72.0,100.0
222,157.40698545,157.54269960000002,72.0,101.0
223,157.62127095000002,157.746270825,72.0,103.0
224,157.83555645,158.14269900000002,72.0,98.0
225,158.26412745000002,158.61591281250003,67.0,100.0
226,158.69269845000002,159.84984015000003,70.0,101.0
227,160.40698245000002,160.65876791250002,72.0,98.0
228,160.83555345000002,160.9551961875,72.0,101.0
229,161.04983895,161.16769597500002,72.0,99.0
230,161.26412445000003,161.56769557500002,72.0,94.0
231,161.69269545000003,161.9837665875,67.0,100.0
232,162.12126645,163.08376548750002,63.0,105.0
233,163.83555045000003,164.04983595000002,65.0,108.0
234,164.26412145000003,164.37304991250002,65.0,95.0
235,164.47840695000002,164.99626357500003,65.0,103.0
236,165.12126345000001,165.42662028750001,67.0,98.0
237,165.54983445000002,165.86411985,70.0,98.0
238,165.97840545000003,166.08911962500002,70.0,96.0
239,166.19269095,166.80519033750002,70.0,98.0
240,166.83554745000004,167.04983295000002,67.0,94.0
241,167.04983295000002,167.26411845,70.0,99.0
242,167.26411845,167.69268945000002,72.0,96.0
243,167.69268945000002,167.80697505000003,72.0,94.0
244,167.90697495000003,168.01590341250002,72.0,98.0
245,168.12126045000002,168.50518863750003,72.0,98.0
246,168.54983145000003,168.90697395,70.0,105.0
247,168.97840245000003,170.34447251250003,67.0,101.0
248,170.69268645000002,170.99090043750002,72.0,100.0
249,171.12125745000003,171.24804303750003,72.0,97.0
250,171.33554295000002,171.45161426250002,72.0,98.0
251,171.54982845000004,171.90697095000002,72.0,103.0
252,171.97839945,172.30161341250002,67.0,96.0
253,172.40697045000002,173.66768347500002,70.0,94.0
254,174.12125445,174.38553990000003,72.0,98.0
255,174.54982545000001,174.69625387500002,72.0,96.0
256,174.76411095000003,174.86411085000003,72.0,95.0
257,174.97839645000002,175.27482472500003,72.0,100.0
258,175.40696745000002,175.71053857500002,67.0,98.0
259,175.83553845000003,177.3587512125,63.0,84.0
260,177.54982245000002,177.82839360000003,65.0,105.0
261,177.97839345000003,178.10696475000003,65.0,96.0
262,178.19267895000002,178.49089293750004,65.0,101.0
263,178.62124995000002,178.72124985000002,65.0,101.0
264,178.83553545000004,178.96053532500002,65.0,97.0
265,179.04982095000003,179.17124940000002,67.0,95.0
266,179.26410645,179.5801775625,70.0,98.0
267,179.90696295000004,180.12124845000002,67.0,90.0
268,180.12124845000002,180.33553395,70.0,93.0
269,180.54981945000003,180.76053352500003,75.0,100.0
270,180.76410495000002,180.98017616250002,74.0,108.0
271,180.97839045000003,181.12481887500002,72.0,100.0
272,181.19267595000002,181.37481862500002,74.0,105.0
273,181.40696145,184.16767297500002,72.0,101.0
274,187.83552645000003,188.27659743750002,79.0,101.0
275,188.47838295000003,188.60516853750002,79.0,98.0
276,188.69266845,188.80159691250003,79.0,101.0
277,188.90695395000003,189.02659668750002,79.0,95.0
278,189.12123945000002,189.22481077500004,79.0,99.0
279,189.33552495000004,189.46231053750003,79.0,98.0
280,189.54981045000002,189.86588156250002,77.0,103.0
281,189.97838145000003,190.07838135000003,79.0,101.0
282,190.19266695000002,190.29623827500004,77.0,97.0
283,190.40695245000003,190.8694519875,75.0,98.0
284,191.26409445000002,191.58373698750003,77.0,96.0
285,191.69266545000002,191.80159391250004,77.0,100.0
286,191.90695095000004,192.01052227500003,79.0,101.0
287,192.12123645000003,192.43552185000001,70.0,103.0
288,192.54980745000003,192.64802163750002,67.0,101.0
289,192.76409295000002,192.896235675,70.0,99.0
290,192.97837845000004,194.217662925,72.0,96.0
291,194.69266245000003,195.20516193750004,79.0,96.0
292,195.33551895000002,195.45516168750004,79.0,98.0
293,195.54980445000004,195.66944718750003,79.0,96.0
294,195.76408995000003,195.88194697500003,79.0,95.0
295,195.97837545000002,196.09623247500002,79.0,96.0
296,196.19266095000003,196.32480367500003,79.0,95.0
297,196.40694645000002,196.71587471250004,77.0,98.0
298,196.83551745000003,196.960517325,79.0,100.0
299,197.04980295000001,197.14444571250002,77.0,96.0
300,197.26408845000003,197.90694495000002,75.0,95.0
301,198.12123045,198.48015866250003,67.0,99.0
302,198.54980145000002,198.69265845000004,70.0,105.0
303,198.76408695000003,198.91587251250002,72.0,96.0
304,198.97837245000002,199.081943775,75.0,101.0
305,199.19265795000004,199.37480062500003,77.0,96.0
306,199.40694345000003,199.60515753750002,75.0,105.0
307,199.62122895000002,199.73194312500002,72.0,97.0
308,199.83551445000003,201.21944163750004,72.0,101.0
309,201.54979845000003,201.66051262500002,77.0,100.0
310,201.76408395,201.87301241250003,77.0,98.0
311,201.97836945000003,202.08729791250002,77.0,101.0
312,202.19265495000002,202.31765482500003,77.0,96.0
313,202.40694045000004,202.52658318750002,77.0,95.0
314,202.62122595000002,202.71944013750002,77.0,96.0
315,202.83551145,202.95158276250004,77.0,93.0
316,203.04979695000003,203.16943968750002,79.0,98.0
317,203.26408245000002,203.546225025,75.0,98.0
318,203.69265345000002,204.58015256250002,72.0,101.0
319,204.97836645000004,205.10158061250002,77.0,95.0
320,205.19265195000003,205.30158041250002,77.0,95.0
321,205.40693745000002,205.52658018750003,77.0,96.0
322,205.62122295000003,205.74086568750002,77.0,99.0
323,205.83550845000002,205.96407975000002,79.0,101.0
324,206.04979395000004,206.16229383750002,77.0,105.0
325,206.26407945000003,206.41050787500004,75.0,99.0
326,206.47836495,206.58193627500003,77.0,98.0
327,206.69265045000003,208.04622052500002,79.0,101.0
328,208.40693445000002,208.50693435000002,77.0,98.0
329,208.62121995000004,208.72121985000004,77.0,96.0
330,208.83550545000003,208.93550535000003,77.0,94.0
331,209.04979095000002,209.15336227500003,77.0,96.0
332,209.26407645000003,209.36764777500002,77.0,97.0
333,209.47836195000002,209.57836185000002,77.0,95.0
334,209.69264745000004,209.80693305000003,77.0,96.0
335,209.90693295000003,210.01586141250002,79.0,101.0
336,210.12121845000001,210.42300386250002,70.0,103.0
337,210.54978945000002,211.28728871250001,67.0,98.0
338,211.40693145000003,211.71585971250002,77.0,99.0
339,211.83550245000004,212.03371653750003,75.0,105.0
340,212.04978795000002,212.18014496250004,74.0,100.0
341,212.26407345000004,215.0908563375,72.0,99.0
342,215.26407045000002,215.70514143750003,79.0,101.0
343,215.90692695000004,216.03371253750004,79.0,98.0
344,216.12121245000003,216.23014091250002,79.0,101.0
345,216.33549795000002,216.45514068750003,79.0,95.0
346,216.54978345000004,216.65335477500003,79.0,99.0
347,216.76406895000002,216.89085453750002,79.0,98.0
348,216.97835445000004,217.29442556250004,77.0,103.0
349,217.40692545000002,217.50692535000002,79.0,101.0
350,217.62121095000003,217.72478227500002,77.0,97.0
351,217.83549645000002,218.29799598750003,75.0,98.0
352,218.69263845000003,219.01228098750002,77.0,96.0
353,219.12120945000004,219.23013791250003,77.0,100.0
354,219.33549495000003,219.43906627500002,79.0,101.0
355,219.54978045000004,219.86406585000003,70.0,103.0
356,219.97835145000002,220.07656563750004,67.0,101.0
357,220.19263695000004,220.32477967500003,70.0,99.0
358,220.40692245000002,221.64620692500003,72.0,96.0
359,222.12120645000002,222.63370593750003,79.0,96.0
360,222.76406295000004,222.88370568750003,79.0,98.0
361,222.97834845000003,223.09799118750004,79.0,96.0
362,223.19263395000002,223.31049097500002,79.0,95.0
363,223.40691945000003,223.52477647500004,79.0,96.0
364,223.62120495000002,223.75334767500004,79.0,95.0
365,223.83549045000004,224.14441871250003,77.0,98.0
366,224.26406145000004,224.38906132500003,79.0,100.0
367,224.47834695000003,224.57298971250003,77.0,96.0
368,224.69263245000002,225.33548895000004,75.0,95.0
369,225.54977445000003,225.90870266250002,67.0,99.0
370,225.97834545000003,226.12120245000003,70.0,105.0
371,226.19263095000002,226.34441651250003,72.0,96.0
372,226.40691645000004,226.51048777500003,75.0,101.0
373,226.62120195000003,226.80334462500002,77.0,96.0
374,226.83548745000002,227.03370153750004,75.0,105.0
375,227.04977295000003,227.16048712500003,72.0,97.0
376,227.26405845000002,228.64798563750003,72.0,101.0
377,228.97834245000004,229.08905662500004,77.0,100.0
378,229.19262795000003,229.30155641250002,77.0,98.0
379,229.40691345000002,229.51584191250004,77.0,101.0
380,229.62119895000004,229.74619882500002,77.0,96.0
381,229.83548445000002,229.95512718750004,77.0,95.0
382,230.04976995000004,230.14798413750003,77.0,96.0
383,230.26405545000003,230.38012676250003,77.0,93.0
384,230.47834095000002,230.59798368750003,79.0,98.0
385,230.69262645000003,230.97476902500003,75.0,98.0
386,231.12119745000004,232.00869656250003,72.0,101.0
387,232.40691045000003,232.53012461250003,77.0,95.0
388,232.62119595000004,232.73012441250003,77.0,95.0
389,232.83548145000003,232.95512418750002,77.0,96.0
390,233.04976695000002,233.16940968750004,77.0,99.0
391,233.26405245000004,233.39262375000004,79.0,101.0
392,233.47833795000003,233.59083783750003,77.0,105.0
393,233.69262345000004,233.83905187500002,75.0,99.0
394,233.90690895000003,234.01048027500002,77.0,98.0
395,234.12119445000002,235.47476452500004,79.0,101.0
396,235.83547845000004,235.93547835000004,77.0,98.0
397,236.04976395000003,236.14976385000003,77.0,96.0
398,236.26404945000004,236.36404935000004,77.0,94.0
399,236.47833495000003,236.58190627500002,77.0,96.0
400,236.69262045000002,236.79619177500004,77.0,97.0
401,236.90690595000004,237.00690585000004,77.0,95.0
402,237.12119145000003,237.23547705000004,77.0,96.0
403,237.33547695000004,237.44440541250003,79.0,101.0
404,237.54976245000003,237.85154786250004,70.0,103.0
405,237.97833345000004,238.71583271250003,67.0,98.0
406,238.83547545000002,239.14440371250004,77.0,99.0
407,239.26404645000002,239.46226053750004,75.0,105.0
408,239.47833195000004,239.60868896250003,74.0,100.0
409,239.69261745000003,242.51940033750003,72.0,99.0
