,start,end,pitch,velocity
0,2.6767830375000004,2.7767829375,44.0,112.0
1,2.6267830875000002,2.8178543250000003,72.0,106.0
2,2.4964260750000005,3.2517824625000005,68.0,100.0
3,3.1214254500000003,3.3732109125000003,56.0,92.0
4,2.6714259000000005,3.4553536875000006,75.0,101.0
5,3.3357109500000006,3.6678534750000007,63.0,112.0
6,3.5499964500000005,3.8017819125000005,68.0,120.0
7,3.7642819500000004,3.9267817875000004,75.0,114.0
8,4.407138450000001,4.87856655,67.0,109.0
9,4.407138450000001,4.966066462500001,74.0,115.0
10,5.04999495,5.201780512500001,67.0,110.0
11,4.83570945,5.519637337500001,50.0,97.0
12,4.407138450000001,5.555351587500001,43.0,103.0
13,5.478565950000001,5.730351412500001,70.0,112.0
14,5.478565950000001,5.758922812500001,67.0,112.0
15,6.121422450000001,6.546422025000001,65.0,114.0
16,6.5499934500000005,6.860707425000001,60.0,106.0
17,6.7642789500000005,7.0535643750000006,65.0,125.0
18,6.978564450000001,7.224992775000001,60.0,103.0
19,6.121422450000001,7.251778462500001,53.0,111.0
20,7.121421450000001,7.717849425000001,77.0,110.0
21,7.192849950000001,7.803563625000001,65.0,113.0
22,8.264277450000002,8.410705875000001,63.0,120.0
23,8.04999195,8.589277125,58.0,109.0
24,8.47856295,8.701777012500001,70.0,117.0
25,8.47856295,8.757134100000002,63.0,108.0
26,7.835706450000001,8.776776937500001,51.0,115.0
27,8.692848450000001,8.955348187500002,58.0,102.0
28,8.90713395,9.0946337625,63.0,117.0
29,8.90713395,9.430347712500001,67.0,112.0
30,9.335704950000002,9.514276200000001,63.0,113.0
31,9.97856145,10.485703800000001,56.0,125.0
32,10.192846950000002,10.510703775000001,60.0,114.0
33,9.549990450000001,10.737489262500002,44.0,118.0
34,9.764275950000002,10.792846350000001,51.0,107.0
35,10.621417950000001,10.84998915,56.0,104.0
36,10.621417950000001,10.910703375,63.0,112.0
37,10.621417950000001,10.919631937500002,60.0,114.0
38,10.621417950000001,10.960703325,68.0,113.0
39,11.264274450000002,11.374988625000002,43.0,112.0
40,11.264274450000002,11.5017742125,55.0,116.0
41,11.264274450000002,11.546417025000002,58.0,111.0
42,11.90713095,12.319630537500002,62.0,114.0
43,12.121416450000002,12.367844775000002,67.0,122.0
44,11.692845450000002,12.374987625000001,55.0,103.0
45,12.335701950000002,12.685701600000002,79.0,113.0
46,12.549987450000001,12.774987225000002,67.0,111.0
47,12.978558450000001,13.064272650000001,36.0,111.0
48,12.978558450000001,13.357129500000001,72.0,111.0
49,12.978558450000001,13.389272325000002,67.0,112.0
50,13.621414950000002,14.044628812500003,55.0,116.0
51,13.835700450000001,14.107128750000001,60.0,122.0
52,14.049985950000002,14.269628587500002,63.0,117.0
53,13.407129450000001,14.566056862500002,48.0,103.0
54,14.264271450000003,14.567842575000002,55.0,99.0
55,14.478556950000002,14.623199662500001,60.0,112.0
56,14.692842450000002,15.367841775000002,63.0,104.0
57,14.692842450000002,15.412484587500002,67.0,107.0
58,14.692842450000002,15.469627387500003,60.0,103.0
59,15.549984450000002,15.582127275000001,60.0,92.0
60,14.692842450000002,16.335697950000004,48.0,111.0
61,15.549984450000002,16.3589122125,63.0,109.0
62,15.978555450000002,16.378555050000003,60.0,104.0
63,15.549984450000002,16.39284075,67.0,112.0
64,15.549984450000002,16.399983600000002,72.0,111.0
65,16.621411950000002,17.017840125000003,60.0,74.0
66,16.407126450000003,17.689268025000004,48.0,100.0
67,17.264268450000003,17.767839375,63.0,99.0
68,17.69283945,17.996410575000002,55.0,98.0
69,18.121410450000003,18.835695450000003,58.0,89.0
70,18.121410450000003,19.007123850000003,55.0,90.0
71,18.121410450000003,19.294623562500004,43.0,92.0
72,18.549981450000004,19.3553377875,50.0,82.0
73,18.978552450000002,19.382123475000004,62.0,96.0
74,19.407123450000004,19.848194437500002,55.0,103.0
75,19.835694450000002,20.685693600000004,60.0,89.0
76,19.835694450000002,20.8267648875,44.0,90.0
77,20.264265450000003,20.969621887500004,51.0,87.0
78,20.69283645,21.166050262500004,58.0,98.0
79,21.121407450000003,21.266050162500004,63.0,95.0
80,21.54997845,22.426763287500002,60.0,88.0
81,21.54997845,22.4731918125,44.0,92.0
82,21.978549450000003,22.557120300000005,51.0,87.0
83,22.407120450000004,22.7571201,56.0,96.0
84,22.835691450000002,23.22140535,60.0,100.0
85,23.264262450000004,24.162475837500004,62.0,95.0
86,23.692833450000002,24.237475762500004,53.0,87.0
87,24.121404450000004,25.017832125,58.0,98.0
88,24.54997545,25.212474787500003,53.0,83.0
89,24.978546450000003,25.60711725,65.0,95.0
90,25.835688450000003,26.041045387500002,58.0,96.0
91,23.264262450000004,26.110688175000003,46.0,89.0
92,25.407117450000005,26.167830975000005,53.0,83.0
93,25.835688450000003,26.305330837500005,62.0,95.0
94,26.264259450000004,26.358902212500002,58.0,100.0
95,26.692830450000002,27.353544075000002,53.0,85.0
96,27.121401450000004,27.687472312500002,48.0,94.0
97,26.692830450000002,27.758900812500002,41.0,95.0
98,27.549972450000002,27.869614987500004,53.0,95.0
99,27.549972450000002,27.903543525000003,60.0,94.0
100,27.978543450000004,28.160686125000005,41.0,95.0
101,28.407114450000005,29.092828050000005,55.0,92.0
102,28.407114450000005,29.094613762500003,62.0,93.0
103,29.264256450000005,29.483899087500003,55.0,99.0
104,29.692827450000003,30.067827075000004,55.0,100.0
105,29.264256450000005,30.107112750000002,67.0,94.0
106,28.835685450000003,30.108898462500004,50.0,94.0
107,28.407114450000005,30.141041287500006,43.0,95.0
108,30.121398450000004,30.610683675000004,60.0,95.0
109,30.549969450000003,31.096397475000003,55.0,94.0
110,30.978540450000004,31.426754287500003,63.0,97.0
111,30.121398450000004,31.442825700000004,48.0,94.0
112,31.407111450000006,31.501754212500003,60.0,87.0
113,31.835682450000004,32.426753287500006,62.0,93.0
114,32.69282445,32.92139565,55.0,95.0
115,32.264253450000005,32.982109875000006,50.0,86.0
116,31.835682450000004,33.042824100000004,43.0,93.0
117,32.69282445,33.0856812,58.0,99.0
118,32.69282445,33.137466862500006,62.0,96.0
119,33.12139545,33.489252225,55.0,95.0
120,33.54996645000001,34.4124655875,60.0,94.0
121,33.54996645000001,34.58567970000001,44.0,95.0
122,33.978537450000005,34.596393975000005,51.0,84.0
123,34.40710845,35.010679275,56.0,100.0
124,34.83567945000001,35.164250550000006,44.0,87.0
125,35.264250450000006,35.5285359,56.0,86.0
126,35.264250450000006,35.57675013750001,60.0,90.0
127,35.264250450000006,36.289249425,44.0,96.0
128,35.692821450000004,36.385677900000005,51.0,77.0
129,36.12139245,36.41960643750001,56.0,96.0
130,36.12139245,36.42496357500001,63.0,94.0
131,36.54996345000001,36.710677575000005,44.0,95.0
132,36.978534450000005,37.61603381250001,58.0,93.0
133,36.978534450000005,38.032104825000005,46.0,94.0
134,37.40710545,38.12139045000001,53.0,82.0
135,37.83567645000001,38.20889036250001,58.0,97.0
136,37.83567645000001,38.287461712500004,62.0,95.0
137,38.264247450000006,38.53567575,46.0,95.0
138,38.692818450000004,39.23746076250001,62.0,91.0
139,38.692818450000004,39.27496072500001,55.0,91.0
140,39.12138945,39.716031712500005,50.0,90.0
141,38.692818450000004,39.733888837500004,43.0,94.0
142,39.54996045000001,39.9017458125,58.0,96.0
143,39.54996045000001,39.9946028625,55.0,95.0
144,39.54996045000001,40.101745612500004,62.0,96.0
145,39.978531450000006,40.3124596875,43.0,94.0
146,40.407102450000004,40.676745037500005,55.0,93.0
147,40.407102450000004,40.917816225,60.0,92.0
148,40.83567345000001,41.25888731250001,55.0,95.0
149,41.26424445000001,41.65710120000001,63.0,103.0
150,41.692815450000005,41.955315187500005,55.0,95.0
151,40.407102450000004,41.9588866125,48.0,94.0
152,42.12138645,42.36781477500001,55.0,95.0
153,42.12138645,42.616028812500005,60.0,96.0
154,42.54995745000001,42.733885837500004,55.0,96.0
155,42.978528450000006,43.283885287500006,62.0,97.0
156,42.978528450000006,43.30531383750001,55.0,98.0
157,43.407099450000004,43.83567045000001,63.0,92.0
158,42.12138645,43.912456087500004,48.0,96.0
159,43.83567045000001,43.912456087500004,48.0,100.0
160,44.26424145000001,44.780312362500005,60.0,98.0
161,44.47852695,44.7910266375,63.0,109.0
162,44.049955950000005,45.06245493750001,55.0,85.0
163,44.90709795000001,45.28209757500001,67.0,96.0
164,45.12138345,45.360668925000006,60.0,93.0
165,45.764239950000004,46.346382225000006,50.0,86.0
166,46.19281095000001,46.462453537500004,58.0,95.0
167,45.97852545000001,46.47316781250001,55.0,96.0
168,46.407096450000004,46.712453287500004,50.0,71.0
169,45.54995445000001,46.72138185000001,43.0,95.0
170,46.62138195000001,46.8303103125,62.0,94.0
171,46.62138195000001,46.84638172500001,58.0,94.0
172,47.26423845000001,47.61959523750001,56.0,95.0
173,47.26423845000001,47.9088806625,60.0,94.0
174,47.90709495000001,48.25709460000001,56.0,99.0
175,48.335665950000006,48.56780857500001,63.0,102.0
176,47.26423845000001,48.65530848750001,44.0,95.0
177,48.54995145000001,48.78030836250001,56.0,97.0
178,47.692809450000006,48.80352262500001,51.0,86.0
179,48.97852245000001,49.157093700000004,56.0,91.0
180,48.97852245000001,49.201736512500005,60.0,94.0
181,49.62137895000001,49.86423585000001,56.0,96.0
182,49.407093450000005,49.957092900000006,51.0,85.0
183,48.97852245000001,50.10709275000001,44.0,107.0
184,50.049949950000006,50.21602121250001,51.0,93.0
185,49.83566445,50.21959263750001,63.0,109.0
186,50.26423545000001,50.510663775000005,56.0,98.0
187,50.478520950000004,50.598163687500005,63.0,94.0
188,50.692806450000006,51.208877362500004,62.0,96.0
189,51.121377450000004,51.46066282500001,53.0,92.0
190,51.33566295000001,51.46066282500001,53.0,88.0
191,51.33566295000001,51.651734062500005,58.0,95.0
192,50.692806450000006,52.182090675000005,46.0,95.0
193,51.764233950000005,52.30351912500001,58.0,99.0
194,51.764233950000005,52.32137625000001,62.0,96.0
195,52.407090450000005,53.10351832500001,58.0,86.0
196,52.407090450000005,53.11958973750001,62.0,93.0
197,53.26423245000001,53.53387503750001,58.0,100.0
198,52.407090450000005,53.55173216250001,46.0,89.0
199,53.26423245000001,53.603517825000004,62.0,98.0
200,53.478517950000004,53.716017712500005,53.0,87.0
201,53.69280345000001,53.778517650000005,62.0,80.0
202,53.69280345000001,53.94994605000001,58.0,96.0
203,53.90708895000001,54.164231550000004,62.0,93.0
204,54.54994545000001,55.09815918750001,53.0,95.0
205,54.764230950000005,55.12137345000001,60.0,100.0
206,54.33565995000001,55.224944775000004,48.0,88.0
207,54.121374450000005,55.27673043750001,41.0,98.0
208,55.19280195000001,55.407087450000006,53.0,95.0
209,55.19280195000001,55.444587412500006,60.0,95.0
210,55.19280195000001,55.507087350000006,65.0,94.0
211,55.835658450000004,56.27494372500001,55.0,93.0
212,55.835658450000004,56.53030061250001,62.0,94.0
213,56.478514950000005,56.610657675000006,55.0,98.0
214,56.26422945000001,56.703514725000005,50.0,84.0
215,56.69280045000001,56.96065732500001,55.0,104.0
216,55.835658450000004,56.97315731250001,43.0,94.0
217,56.69280045000001,56.98208587500001,67.0,95.0
218,56.69280045000001,57.01422870000001,62.0,97.0
219,56.90708595000001,57.03744296250001,50.0,94.0
220,57.121371450000005,57.233871337500005,55.0,104.0
221,57.54994245000001,58.044584812500005,63.0,94.0
222,57.54994245000001,58.06422765000001,60.0,93.0
223,57.97851345000001,58.27672743750001,55.0,88.0
224,58.19279895000001,58.57851285000001,67.0,93.0
225,58.407084450000006,58.69458416250001,55.0,88.0
226,57.54994245000001,58.75708410000001,48.0,96.0
227,58.62136995000001,58.85708400000001,63.0,98.0
228,58.835655450000004,58.95351247500001,60.0,94.0
229,59.26422645000001,59.73744026250001,58.0,96.0
230,59.69279745000001,59.85708300000001,55.0,102.0
231,59.478511950000005,59.978511450000006,50.0,92.0
232,59.90708295000001,60.17851125000001,62.0,106.0
233,59.26422645000001,60.42851100000001,43.0,100.0
234,60.121368450000006,60.476725237500006,50.0,92.0
235,60.33565395000001,60.57315371250001,58.0,105.0
236,60.54993945000001,60.68565360000001,55.0,100.0
237,60.97851045000001,61.63922407500001,60.0,99.0
238,61.62136695000001,61.93386663750001,56.0,115.0
239,60.97851045000001,62.15172356250001,44.0,101.0
240,62.04993795000001,62.160652125000006,56.0,100.0
241,61.40708145000001,62.20172351250001,51.0,93.0
242,62.04993795000001,62.558866012500005,60.0,100.0
243,62.69279445000001,63.16600826250001,56.0,99.0
244,62.69279445000001,63.36065092500001,60.0,99.0
245,63.33565095000001,63.682079175000005,56.0,103.0
246,63.76422195000001,63.79993620000001,56.0,96.0
247,62.69279445000001,63.962436037500005,44.0,105.0
248,63.121365450000006,63.99279315000001,51.0,89.0
249,63.76422195000001,64.0302931125,60.0,101.0
250,63.97850745000001,64.24279290000001,56.0,103.0
251,64.19279295000001,64.374935625,60.0,97.0
252,64.83564945,64.9660064625,58.0,108.0
253,65.04993495000001,65.0856492,58.0,85.0
254,64.62136395,65.17314911250001,53.0,88.0
255,64.40707845000001,65.45529168750001,46.0,106.0
256,65.26422045000001,65.48922022500001,53.0,98.0
257,65.04993495000001,65.49457736250001,62.0,106.0
258,65.47850595000001,65.7767199375,58.0,106.0
259,66.54993345000001,66.70707615,55.0,102.0
260,66.33564795000001,66.82136175000001,50.0,91.0
261,66.76421895000001,67.08921862500002,62.0,103.0
262,66.97850445,67.28028986250001,50.0,93.0
263,66.12136245,67.35528978750001,43.0,101.0
264,67.19278995,67.41957543750001,58.0,101.0
265,67.40707545000001,67.5231467625,55.0,103.0
266,67.83564645000001,68.33743166250001,60.0,102.0
267,68.26421745,68.59278855000001,55.0,95.0
268,68.47850295,68.74100268750001,62.0,101.0
269,68.69278845000001,68.94814533750001,55.0,93.0
270,68.90707395000001,69.06778807500001,63.0,116.0
271,69.12135945000001,69.34100208750002,55.0,92.0
272,67.83564645000001,69.3445735125,48.0,105.0
273,69.33564495,69.46600196250002,60.0,100.0
274,69.54993045,69.924930075,60.0,89.0
275,69.54993045,69.95885861250001,63.0,104.0
276,69.54993045,69.95885861250001,67.0,99.0
277,69.97850145000001,70.51242948750001,55.0,93.0
278,70.40707245000002,70.6052865375,60.0,106.0
279,70.40707245000002,70.65350077500001,72.0,101.0
280,70.62135795,70.93028621250001,55.0,98.0
281,69.54993045,70.93921477500001,48.0,105.0
282,70.83564345,71.12850030000001,60.0,100.0
283,71.04992895000001,71.18028596250001,63.0,99.0
284,71.26421445000001,71.52314276250002,60.0,102.0
285,71.26421445000001,71.70885686250001,63.0,108.0
286,71.69278545,71.8267138875,60.0,99.0
287,71.47849995000001,71.99635657500001,55.0,96.0
288,71.26421445000001,72.06064222500001,48.0,103.0
289,71.90707095,72.09992790000001,67.0,102.0
290,71.90707095,72.11064217500001,60.0,94.0
291,71.90707095,72.117785025,63.0,102.0
292,72.12135645000001,72.167784975,58.0,88.0
293,72.33564195000001,72.603498825,58.0,110.0
294,72.33564195000001,72.617784525,62.0,104.0
295,72.33564195000001,72.632070225,46.0,120.0
296,72.76421295000002,73.19635537500001,63.0,110.0
297,72.76421295000002,73.1981410875,60.0,99.0
298,72.76421295000002,73.2481410375,48.0,110.0
299,74.69278245000001,74.9052822375,60.0,103.0
300,74.69278245000001,74.95706790000001,63.0,102.0
301,74.90706795000001,75.11242488750001,55.0,101.0
302,75.12135345000002,75.26778187500001,60.0,95.0
303,75.33563895,75.44278170000001,55.0,91.0
304,75.54992445,75.68206717500001,55.0,112.0
305,75.54992445,75.82849560000001,63.0,115.0
306,75.76420995000001,75.88920982500001,55.0,101.0
307,74.69278245000001,75.9552811875,48.0,100.0
308,75.97849545000001,76.11956673750001,60.0,105.0
309,76.19278095000001,76.31242368750002,55.0,103.0
310,76.40706645000002,76.6267090875,55.0,107.0
311,76.40706645000002,76.89456596250001,62.0,108.0
312,76.40706645000002,76.94278020000002,43.0,103.0
313,76.83563745000001,77.132065725,55.0,103.0
314,77.26420845000001,77.61599381250001,56.0,105.0
315,77.26420845000001,77.73920797500001,44.0,108.0
316,77.26420845000001,77.74635082500001,60.0,107.0
317,77.69277945,77.96956488750001,51.0,102.0
318,77.90706495,78.01599341250001,56.0,115.0
319,78.12135045000001,78.34099308750001,58.0,110.0
320,78.54992145000001,78.68920702500002,58.0,110.0
321,78.33563595000001,79.06599236250001,53.0,100.0
322,78.12135045000001,79.10706375000001,46.0,107.0
323,78.97849245,79.16420655000002,58.0,122.0
324,78.97849245,79.24992075000002,62.0,112.0
325,79.19277795,79.34456351250002,53.0,102.0
326,79.40706345000001,79.64099178750001,58.0,115.0
327,79.62134895000001,79.7195631375,62.0,103.0
328,79.83563445000001,80.06420565,60.0,102.0
329,79.83563445000001,80.0945627625,63.0,117.0
330,80.04991995000002,80.3695624875,55.0,97.0
331,80.26420545,80.47849095000001,60.0,106.0
332,80.47849095000001,80.7302764125,55.0,96.0
333,79.83563445000001,80.79813348750001,48.0,108.0
334,80.69277645000001,80.89277625000001,67.0,105.0
335,80.69277645000001,80.89813338750001,60.0,103.0
336,80.90706195000001,81.00170471250001,48.0,80.0
337,80.90706195000001,81.0445618125,55.0,103.0
338,81.12134745000002,81.224918775,63.0,107.0
339,81.12134745000002,81.24099018750002,60.0,98.0
340,81.54991845,81.72491827500001,56.0,101.0
341,81.54991845,81.83741816250001,60.0,102.0
342,81.97848945000001,82.12848930000001,56.0,107.0
343,81.76420395000001,82.13741786250002,51.0,97.0
344,82.19277495000001,82.45527468750001,51.0,95.0
345,81.54991845,82.4659889625,44.0,107.0
346,82.40706045000002,82.59991740000001,56.0,115.0
347,82.40706045000002,82.67491732500001,60.0,112.0
348,82.62134595,82.76063152500001,51.0,103.0
349,82.83563145000001,82.882059975,60.0,71.0
350,82.83563145000001,83.07491692500001,56.0,110.0
351,83.04991695000001,83.18563110000001,60.0,108.0
352,83.26420245000001,83.49813078750002,55.0,103.0
353,83.26420245000001,83.59455926250001,58.0,115.0
354,83.69277345,83.97848745000002,55.0,107.0
355,83.47848795000002,84.03027311250001,50.0,103.0
356,83.26420245000001,84.04455881250001,43.0,103.0
357,84.12134445000001,84.62670108750001,41.0,104.0
358,84.12134445000001,84.73384383750002,53.0,108.0
359,84.54991545000001,84.75170096250001,48.0,96.0
360,84.97848645,85.24634332500001,63.0,98.0
361,84.97848645,85.41777172500001,67.0,96.0
362,85.40705745000001,85.67848575000001,63.0,103.0
363,85.62134295000001,85.75169996250001,67.0,99.0
364,85.19277195000001,85.96241403750001,46.0,89.0
365,85.83562845000002,86.0999139,70.0,110.0
366,84.97848645,86.10884246250001,39.0,106.0
367,85.83562845000002,86.13741386250001,63.0,110.0
368,86.04991395000002,86.1445567125,46.0,96.0
369,86.26419945,86.39277075000001,63.0,102.0
370,86.26419945,86.51598491250002,67.0,101.0
371,86.26419945,86.59812768750001,70.0,96.0
372,86.47848495000001,86.67848475000001,63.0,98.0
373,87.12134145000002,87.14634142500002,67.0,90.0
374,86.90705595000001,87.21419850000001,55.0,101.0
375,87.12134145000002,87.34991265000001,60.0,110.0
376,87.33562695,87.59991240000001,55.0,103.0
377,86.69277045000001,87.69276945000001,48.0,105.0
378,87.54991245000001,87.7409836875,63.0,118.0
379,87.54991245000001,87.75526938750001,60.0,105.0
380,87.54991245000001,87.78026936250001,67.0,103.0
381,87.76419795000001,87.99276915000002,55.0,102.0
382,87.76419795000001,88.05348337500001,48.0,80.0
383,87.97848345000001,88.09812618750001,60.0,105.0
384,87.97848345000001,88.19812608750001,63.0,106.0
385,88.19276895000002,88.38205447500002,60.0,110.0
386,88.40705445000002,88.76955408750001,72.0,103.0
387,88.40705445000002,88.78026836250001,69.0,103.0
388,88.40705445000002,88.78383978750001,65.0,101.0
389,89.04991095000001,89.16598226250001,65.0,104.0
390,88.83562545000001,89.31419640000001,48.0,97.0
391,89.26419645000001,89.52491047500001,65.0,118.0
392,88.40705445000002,89.58026756250001,41.0,105.0
393,89.26419645000001,89.59276755,72.0,104.0
394,89.47848195000002,89.62491037500001,48.0,107.0
395,89.69276745,89.96955288750002,65.0,108.0
396,89.90705295000001,90.02133855000001,72.0,101.0
397,90.12133845000001,90.57133800000001,68.0,104.0
398,90.12133845000001,90.58562370000001,72.0,103.0
399,90.12133845000001,90.63026651250001,44.0,106.0
400,90.54990945000002,90.8231234625,51.0,97.0
401,90.97848045,91.26776587500001,44.0,107.0
402,90.97848045,91.37848005000001,51.0,105.0
403,90.97848045,91.46419425,68.0,107.0
404,91.40705145000001,91.51062277500002,44.0,102.0
405,90.97848045,91.65347977500001,72.0,105.0
406,91.62133695000001,91.81240818750001,68.0,103.0
407,92.26419345000001,92.574907425,58.0,102.0
408,92.04990795,92.59812168750001,53.0,106.0
409,91.83562245000002,92.60169311250002,46.0,118.0
410,92.47847895000001,92.60347882500001,62.0,100.0
411,92.69276445000001,92.90883566250001,46.0,106.0
412,92.69276445000001,92.96240703750001,58.0,112.0
413,92.69276445000001,93.00347842500001,62.0,110.0
414,92.69276445000001,93.04097838750002,53.0,102.0
415,93.12133545000002,93.21954963750001,46.0,108.0
416,93.54990645000001,93.72847770000001,63.0,108.0
417,93.54990645000001,93.75347767500001,67.0,104.0
418,93.54990645000001,93.98919172500001,51.0,118.0
419,94.19276295000002,94.29990570000001,63.0,108.0
420,93.97847745000001,94.32847710000001,58.0,103.0
421,94.62133395000001,94.682048175,51.0,97.0
422,94.40704845000002,94.68919102500001,63.0,117.0
423,94.40704845000002,94.77490522500001,67.0,107.0
424,94.62133395000001,94.782048075,58.0,94.0
425,94.40704845000002,94.89454796250001,70.0,103.0
426,94.83561945000001,95.09633347500001,63.0,110.0
427,95.04990495000001,95.2374047625,70.0,106.0
428,95.47847595000002,95.84454701250002,50.0,105.0
429,95.69276145,96.00883256250002,55.0,122.0
430,95.90704695000001,96.01954683750002,58.0,97.0
431,95.26419045000002,96.48561780000001,43.0,105.0
432,96.12133245000001,96.53383203750002,55.0,107.0
433,96.12133245000001,96.53383203750002,58.0,108.0
434,96.12133245000001,96.56240343750001,62.0,108.0
435,96.54990345000002,96.82668888750001,50.0,103.0
436,96.76418895000002,96.83204602500001,62.0,88.0
437,96.54990345000002,96.84276030000001,43.0,75.0
438,96.76418895000002,96.92133165000001,55.0,101.0
439,96.97847445000001,97.48025966250002,58.0,96.0
440,96.97847445000001,97.62133095000002,62.0,102.0
441,96.97847445000001,97.71418800000001,55.0,101.0
442,97.83561645000002,97.86061642500002,55.0,82.0
443,97.40704545000001,98.03740196250001,50.0,97.0
444,97.83561645000002,98.24990175,58.0,103.0
445,96.97847445000001,98.25347317500001,43.0,105.0
446,97.83561645000002,98.29454456250001,62.0,102.0
447,98.26418745000001,98.35883021250001,55.0,107.0
448,97.83561645000002,98.39811588750001,67.0,101.0
449,98.69275845000001,99.11954373750001,63.0,102.0
450,98.69275845000001,99.28740071250002,60.0,103.0
451,99.12132945000002,99.61418610000001,55.0,97.0
452,99.54990045000001,99.81061447500001,63.0,110.0
453,99.54990045000001,99.84454301250001,67.0,106.0
454,99.97847145000001,100.04097138750001,67.0,71.0
455,99.76418595000001,100.04275710000002,55.0,102.0
456,98.69275845000001,100.19632837500001,48.0,107.0
457,99.97847145000001,100.23204262500002,60.0,104.0
458,100.19275695000002,100.23561405000001,67.0,84.0
459,100.19275695000002,100.29632827500001,63.0,107.0
460,100.40704245000002,100.96061332500001,72.0,102.0
461,100.40704245000002,100.99989900000001,60.0,97.0
462,100.40704245000002,101.00168471250001,63.0,97.0
463,101.26418445000002,101.53204132500001,60.0,99.0
464,100.83561345000001,101.69096973750001,55.0,89.0
465,100.40704245000002,102.05704080000001,48.0,108.0
466,101.69275545,102.12311216250001,60.0,90.0
467,101.26418445000002,102.13918357500002,63.0,101.0
468,101.26418445000002,102.16418355000002,67.0,100.0
469,102.12132645000001,103.01953983750002,68.0,90.0
470,102.54989745000002,103.23382533750001,51.0,88.0
471,102.97846845000001,103.47668223750001,56.0,106.0
472,103.40703945000001,103.74632482500002,60.0,96.0
473,103.83561045000002,104.38918132500001,63.0,91.0
474,103.83561045000002,104.47310981250001,68.0,95.0
475,103.83561045000002,104.54632402500002,56.0,99.0
476,102.12132645000001,104.68025246250001,44.0,100.0
477,104.69275245000001,104.860609425,60.0,97.0
478,104.69275245000001,104.89453796250001,63.0,97.0
479,104.69275245000001,104.90882366250001,56.0,98.0
480,105.54989445000001,106.16775097500002,58.0,95.0
481,105.54989445000001,106.49989350000001,55.0,96.0
482,106.83560745000001,107.04632152500001,58.0,98.0
483,106.40703645000002,107.09096433750001,62.0,96.0
484,106.83560745000001,107.11239288750001,55.0,43.0
485,107.26417845000002,107.41596401250001,58.0,86.0
486,105.97846545000002,107.53203532500001,50.0,87.0
487,107.26417845000002,107.97846345000002,62.0,92.0
488,107.26417845000002,107.99453486250002,67.0,88.0
489,107.26417845000002,108.00167771250001,55.0,93.0
490,107.69274945000001,108.22667748750001,50.0,89.0
491,105.54989445000001,108.42310586250001,43.0,96.0
492,108.12132045000001,108.50346292500001,55.0,91.0
493,108.12132045000001,108.51953433750002,58.0,97.0
494,108.12132045000001,108.52846290000001,62.0,96.0
495,108.97846245000001,109.08203377500001,41.0,96.0
496,108.97846245000001,109.28381928750001,53.0,97.0
497,110.26417545000001,110.59631797500002,65.0,104.0
498,109.83560445000002,110.92310336250002,60.0,100.0
499,110.69274645000002,111.32310296250002,65.0,95.0
500,110.69274645000002,111.58024556250001,72.0,96.0
501,109.40703345000001,111.62845980000002,53.0,90.0
502,111.12131745000002,111.65345977500002,60.0,82.0
503,111.54988845000001,111.71774542500002,65.0,100.0
504,112.40703045000001,112.52488747500001,39.0,96.0
505,112.40703045000001,112.83024431250001,63.0,90.0
506,112.40703045000001,112.86417285000002,67.0,93.0
507,113.69274345000001,113.96952888750002,63.0,101.0
508,112.83560145000001,114.25881431250002,51.0,84.0
509,113.26417245000002,114.28917142500002,58.0,96.0
510,114.12131445000001,114.86238513750001,63.0,99.0
511,114.12131445000001,114.91238508750001,70.0,95.0
512,114.54988545000002,115.33738466250001,51.0,85.0
513,114.97845645000001,115.56059872500002,67.0,96.0
514,114.97845645000001,115.75524138750002,63.0,98.0
515,114.97845645000001,115.82488417500001,70.0,96.0
516,115.40702745000002,115.89095553750002,58.0,98.0
517,115.83559845000002,116.24274090000002,60.0,95.0
518,115.83559845000002,116.27666943750002,67.0,94.0
519,116.47845495000001,116.50524063750001,67.0,77.0
520,116.26416945000001,116.52666918750002,55.0,94.0
521,116.47845495000001,116.78202607500002,60.0,119.0
522,116.69274045000002,116.94809733750002,55.0,94.0
523,116.90702595000002,117.13738286250002,60.0,100.0
524,116.90702595000002,117.18916852500001,64.0,104.0
525,115.83559845000002,117.31952553750001,48.0,100.0
526,116.90702595000002,117.36773977500002,67.0,98.0
527,117.33559695000001,117.46059682500001,60.0,94.0
528,117.12131145000002,117.67488232500001,55.0,93.0
529,117.54988245000001,117.94631062500001,59.0,98.0
530,117.54988245000001,118.27488172500001,67.0,94.0
531,117.97845345000002,118.29273885000002,55.0,95.0
532,118.19273895000002,118.49988150000001,59.0,99.0
533,118.40702445000001,118.69095273750001,55.0,90.0
534,118.62130995000001,118.84988115000002,59.0,97.0
535,118.62130995000001,118.92488107500002,62.0,99.0
536,117.54988245000001,119.10345232500002,47.0,96.0
537,118.83559545000001,119.12488087500002,55.0,93.0
538,118.62130995000001,119.21059507500001,67.0,94.0
539,119.26416645000002,119.77845165000002,60.0,94.0
540,119.26416645000002,119.97845145000002,69.0,88.0
541,119.69273745000001,120.05523708750002,57.0,93.0
542,119.90702295000001,120.12666558750001,60.0,94.0
543,120.33559395000002,120.47130810000002,57.0,97.0
544,120.33559395000002,120.80166491250002,60.0,98.0
545,119.26416645000002,120.81237918750001,45.0,97.0
546,120.33559395000002,120.81237918750001,69.0,94.0
547,120.76416495000002,120.86416485000001,57.0,95.0
548,120.97845045000001,121.40523573750002,55.0,98.0
549,120.97845045000001,121.44630712500002,59.0,96.0
550,121.40702145000002,121.66416405000001,50.0,95.0
551,121.62130695000002,121.93380663750001,55.0,99.0
552,121.62130695000002,121.93559235000002,62.0,96.0
553,121.62130695000002,121.93737806250002,59.0,99.0
554,121.83559245000002,122.13023501250001,50.0,93.0
555,120.97845045000001,122.18380638750001,43.0,92.0
556,122.04987795000001,122.19452066250001,55.0,102.0
557,122.04987795000001,122.31059197500002,59.0,104.0
558,122.04987795000001,122.32844910000001,62.0,98.0
559,122.26416345000001,122.35880621250001,43.0,63.0
560,122.26416345000001,122.56237743750002,50.0,94.0
561,122.69273445000002,123.12487687500001,53.0,93.0
562,122.69273445000002,123.39094803750001,60.0,92.0
563,123.12130545000002,123.39273375000002,48.0,95.0
564,123.33559095000001,123.64094778750001,53.0,102.0
565,123.54987645000001,123.82130475000001,48.0,96.0
566,123.76416195000002,124.02844740000002,53.0,102.0
567,122.69273445000002,124.09630447500001,41.0,97.0
568,123.97844745000002,124.18023296250001,48.0,99.0
569,123.76416195000002,124.26237573750002,60.0,104.0
570,123.76416195000002,124.28559000000001,65.0,96.0
571,124.19273295000002,124.32487567500002,53.0,104.0
572,124.40701845000001,124.87308941250002,58.0,96.0
573,124.40701845000001,124.88201797500001,55.0,98.0
574,124.83558945000001,125.07487492500002,50.0,93.0
575,125.04987495000002,125.34987465000002,58.0,109.0
576,125.04987495000002,125.36416035000002,55.0,99.0
577,125.04987495000002,125.36951748750002,62.0,102.0
578,124.40701845000001,125.55880301250002,43.0,100.0
579,125.26416045000002,125.55880301250002,50.0,97.0
580,125.47844595000002,125.66237433750001,55.0,104.0
581,125.47844595000002,125.69808858750001,58.0,107.0
582,125.47844595000002,125.73558855000002,62.0,97.0
583,125.47844595000002,125.75880281250002,67.0,95.0
584,125.69273145000001,125.80165991250001,43.0,95.0
585,126.12130245000002,126.31773082500001,55.0,107.0
586,126.12130245000002,126.38380218750001,60.0,96.0
587,126.54987345000002,126.80523033750002,55.0,91.0
588,126.76415895000002,127.06773007500001,60.0,107.0
589,127.19272995000001,127.47130110000002,67.0,96.0
590,127.40701545000002,127.52665818750002,63.0,94.0
591,126.97844445000001,127.56594386250002,55.0,88.0
592,126.12130245000002,127.67665803750002,48.0,102.0
593,127.62130095000002,127.71594371250002,60.0,93.0
594,127.83558645000002,128.382014475,72.0,93.0
595,127.83558645000002,128.43022871250002,67.0,94.0
596,127.83558645000002,128.45165726250002,63.0,92.0
597,127.83558645000002,128.52487147500003,60.0,92.0
598,128.69272845,128.77487122500003,60.0,86.0
599,128.26415745000003,128.84094258750002,55.0,81.0
600,127.83558645000002,129.353442075,48.0,99.0
601,128.69272845,129.5873704125,63.0,88.0
602,129.12129945,129.60165611250002,60.0,84.0
603,128.69272845,129.610584675,67.0,92.0
604,129.76415595,130.160584125,60.0,74.0
605,129.54987045000001,130.832012025,48.0,100.0
606,130.40701245000002,130.91058337500002,63.0,99.0
607,130.83558345000003,131.13915457500002,55.0,98.0
608,131.26415445,131.97843945000002,58.0,89.0
609,131.26415445,132.14986785000002,55.0,90.0
610,131.26415445,132.43736756250001,43.0,92.0
611,131.69272545,132.4980817875,50.0,82.0
612,132.12129645000002,132.524867475,62.0,96.0
613,132.54986745000002,132.9909384375,55.0,103.0
614,132.97843845000003,133.82843760000003,60.0,89.0
615,132.97843845000003,133.9695088875,44.0,90.0
616,133.40700945,134.1123658875,51.0,87.0
617,133.83558045,134.30879426250002,58.0,98.0
618,134.26415145,134.40879416250002,63.0,95.0
619,134.69272245000002,135.56950728750002,60.0,88.0
620,134.69272245000002,135.61593581250003,44.0,92.0
621,135.12129345000002,135.69986430000003,51.0,87.0
622,135.54986445000003,135.89986410000003,56.0,96.0
623,135.97843545,136.36414935000002,60.0,100.0
624,136.40700645,137.3052198375,62.0,95.0
625,136.83557745000002,137.38021976250002,53.0,87.0
626,137.26414845000002,138.160576125,58.0,98.0
627,137.69271945000003,138.3552187875,53.0,83.0
628,138.12129045000003,138.74986125,65.0,95.0
629,138.97843245,139.1837893875,58.0,96.0
630,136.40700645,139.25343217500003,46.0,89.0
631,138.54986145,139.310574975,53.0,83.0
632,138.97843245,139.44807483750003,62.0,95.0
633,139.40700345000002,139.50164621250002,58.0,100.0
634,139.83557445000002,140.49628807500002,53.0,85.0
635,140.26414545000003,140.83021631250003,48.0,94.0
636,139.83557445000002,140.90164481250002,41.0,95.0
637,140.69271645,141.01235898750002,53.0,95.0
638,140.69271645,141.04628752500003,60.0,94.0
639,141.12128745,141.303430125,41.0,95.0
640,141.54985845000002,142.23557205000003,55.0,92.0
641,141.54985845000002,142.2373577625,62.0,93.0
642,142.40700045000003,142.6266430875,55.0,99.0
643,142.83557145000003,143.21057107500002,55.0,100.0
644,142.40700045000003,143.24985675000002,67.0,94.0
645,141.97842945000002,143.25164246250003,50.0,94.0
646,141.54985845000002,143.28378528750002,43.0,95.0
647,143.26414245,143.753427675,60.0,95.0
648,143.69271345,144.23914147500003,55.0,94.0
649,144.12128445000002,144.5694982875,63.0,97.0
650,143.26414245,144.5855697,48.0,94.0
651,144.54985545000002,144.64449821250003,60.0,87.0
652,144.97842645000003,145.5694972875,62.0,93.0
653,145.83556845,146.06413965000002,55.0,95.0
654,145.40699745,146.124853875,50.0,86.0
655,144.97842645000003,146.1855681,43.0,93.0
656,145.83556845,146.22842520000003,58.0,99.0
657,145.83556845,146.2802108625,62.0,96.0
658,146.26413945000002,146.63199622500002,55.0,95.0
659,146.69271045000002,147.55520958750003,60.0,94.0
660,146.69271045000002,147.7284237,44.0,95.0
661,147.12128145000003,147.739137975,51.0,84.0
662,147.54985245000003,148.15342327500002,56.0,100.0
663,147.97842345,148.30699455,44.0,87.0
664,148.40699445,148.67127990000003,56.0,86.0
665,148.40699445,148.71949413750002,60.0,90.0
666,148.40699445,149.43199342500003,44.0,96.0
667,148.83556545000002,149.5284219,51.0,77.0
668,149.26413645000002,149.56235043750002,56.0,96.0
669,149.26413645000002,149.56770757500001,63.0,94.0
670,149.69270745000003,149.85342157500003,44.0,95.0
671,150.12127845,150.75877781250003,58.0,93.0
672,150.12127845,151.17484882500003,46.0,94.0
673,150.54984945,151.26413445000003,53.0,82.0
674,150.97842045000002,151.35163436250002,58.0,97.0
675,150.97842045000002,151.43020571250003,62.0,95.0
676,151.40699145000002,151.67841975000002,46.0,95.0
677,151.83556245000003,152.38020476250003,62.0,91.0
678,151.83556245000003,152.41770472500002,55.0,91.0
679,152.26413345000003,152.85877571250003,50.0,90.0
680,151.83556245000003,152.8766328375,43.0,94.0
681,152.69270445,153.04448981250002,58.0,96.0
682,152.69270445,153.1373468625,55.0,95.0
683,152.69270445,153.24448961250002,62.0,96.0
684,153.12127545,153.45520368750002,43.0,94.0
685,153.54984645000002,153.81948903750003,55.0,93.0
686,153.54984645000002,154.06056022500002,60.0,92.0
687,153.97841745000002,154.40163131250003,55.0,95.0
688,154.40698845000003,154.79984520000002,63.0,103.0
689,154.83555945000003,155.0980591875,55.0,95.0
690,153.54984645000002,155.10163061250003,48.0,94.0
691,155.26413045,155.51055877500002,55.0,95.0
692,155.26413045,155.7587728125,60.0,96.0
693,155.69270145000002,155.87662983750002,55.0,96.0
694,156.12127245000002,156.42662928750002,62.0,97.0
695,156.12127245000002,156.44805783750002,55.0,98.0
696,156.54984345000003,156.97841445000003,63.0,92.0
697,155.26413045,157.05520008750003,48.0,96.0
698,156.97841445000003,157.05520008750003,48.0,100.0
699,157.19269995000002,157.64269950000002,55.0,87.0
700,157.40698545,157.9016278125,60.0,100.0
701,157.62127095000002,157.917699225,63.0,109.0
702,157.83555645,158.23377033750003,55.0,90.0
703,158.04984195000003,158.35341307500002,60.0,89.0
704,158.04984195000003,158.73555555000002,63.0,102.0
705,158.04984195000003,158.8230554625,67.0,99.0
706,158.90698395,159.29091213750002,50.0,90.0
707,159.12126945000003,159.45519768750003,55.0,95.0
708,159.33555495000002,159.82126875000003,62.0,98.0
709,159.33555495000002,159.85519728750003,50.0,89.0
710,158.69269845000002,160.0337685375,43.0,96.0
711,159.76412595000002,160.04626852500002,58.0,100.0
712,159.97841145,160.36412535000002,55.0,94.0
713,160.40698245000002,161.05341037500003,60.0,93.0
714,160.83555345000002,161.1998388,51.0,96.0
715,160.40698245000002,161.3051958375,44.0,95.0
716,161.04983895,161.410552875,56.0,107.0
717,161.26412445000003,161.46769567500002,51.0,88.0
718,161.47840995,161.76769537500002,60.0,95.0
719,161.69269545000003,162.00876656250003,56.0,83.0
720,162.12126645,162.33198052500003,56.0,94.0
721,162.12126645,162.37840905000002,60.0,93.0
722,162.54983745,162.88555140000003,51.0,88.0
723,162.76412295000003,163.1266225875,56.0,100.0
724,162.12126645,163.17305111250002,44.0,95.0
725,162.97840845000002,163.25876531250003,51.0,93.0
726,163.19269395000003,163.45876511250003,63.0,100.0
727,163.40697945000002,163.57305071250002,56.0,97.0
728,163.83555045000003,164.28019286250003,58.0,84.0
729,163.83555045000003,164.45519268750002,62.0,93.0
730,164.47840695000002,164.7980494875,58.0,100.0
731,163.83555045000003,165.36233463750003,46.0,97.0
732,164.26412145000003,165.38019176250003,53.0,93.0
733,164.90697795000003,165.43554885000003,58.0,95.0
734,164.90697795000003,165.44626312500003,62.0,94.0
735,165.54983445000002,166.06411965,58.0,92.0
736,165.54983445000002,166.2480480375,62.0,96.0
737,166.19269095,166.70161901250003,58.0,96.0
738,165.97840545000003,166.97840445000003,53.0,94.0
739,165.54983445000002,167.15697570000003,46.0,96.0
740,166.83554745000004,167.23554705,58.0,93.0
741,166.62126195000002,167.29983270000002,65.0,94.0
742,167.26411845,167.5194753375,57.0,93.0
743,167.26411845,167.75876081250001,60.0,94.0
744,167.69268945000002,167.83197502500002,57.0,97.0
745,167.47840395000003,167.95161776250004,48.0,92.0
746,167.90697495000003,168.196260375,57.0,99.0
747,167.90697495000003,168.20161751250004,65.0,94.0
748,167.26411845,168.4016173125,41.0,94.0
749,168.12126045000002,168.41054587500003,48.0,94.0
750,168.33554595,168.55518858750003,60.0,95.0
751,168.33554595,168.574831425,57.0,96.0
752,168.76411695000002,168.88375968750003,55.0,74.0
753,168.97840245000003,169.24804503750002,55.0,92.0
754,168.97840245000003,169.4516162625,62.0,93.0
755,169.40697345,169.52661618750003,55.0,99.0
756,169.19268795000002,169.64447321250003,50.0,93.0
757,169.62125895000003,169.88554440000001,67.0,93.0
758,169.62125895000003,169.90875866250002,55.0,114.0
759,169.62125895000003,169.91411580000002,62.0,99.0
760,169.83554445000001,170.15875841250002,50.0,96.0
761,168.97840245000003,170.19268695000002,43.0,94.0
762,170.04982995000003,170.2016155125,55.0,97.0
763,170.04982995000003,170.38732961250003,62.0,98.0
764,170.26411545000002,170.63018651250002,55.0,102.0
765,171.12125745000003,171.29625727500002,60.0,100.0
766,170.90697195,171.39625717500002,55.0,86.0
767,171.33554295000002,171.40340002500002,60.0,82.0
768,171.33554295000002,171.69089973750002,67.0,94.0
769,171.54982845000004,171.93018521250002,55.0,93.0
770,170.69268645000002,172.017685125,48.0,97.0
771,171.76411395000002,172.04268510000003,63.0,110.0
772,171.97839945,172.40339902500003,60.0,98.0
773,172.62125595000003,173.01232698750002,50.0,89.0
774,172.83554145000002,173.039112675,58.0,95.0
775,173.04982695,173.34804093750003,55.0,114.0
776,173.26411245000003,173.55339787500003,50.0,91.0
777,173.47839795000002,173.75161196250002,58.0,97.0
778,173.47839795000002,173.82482617500003,62.0,96.0
779,173.69268345000003,173.89268325000003,50.0,89.0
780,172.40697045000002,173.95161176250002,43.0,96.0
781,174.12125445,174.2658971625,56.0,93.0
782,174.12125445,174.31411140000003,60.0,93.0
783,174.54982545000001,174.86411085000003,56.0,95.0
784,174.33553995000003,174.87482512500003,51.0,93.0
785,174.76411095000003,175.04089638750003,63.0,109.0
786,174.12125445,175.10339632500003,44.0,97.0
787,174.97839645000002,175.1873248125,51.0,91.0
788,175.19268195000004,175.260539025,56.0,81.0
789,175.19268195000004,175.65518148750002,60.0,94.0
790,175.62125295,175.7873242125,56.0,89.0
791,175.83553845000003,176.31053797500002,56.0,94.0
792,175.83553845000003,176.38375218750002,60.0,94.0
793,176.26410945000003,176.5873234125,51.0,87.0
794,175.83553845000003,176.77839465000002,44.0,100.0
795,176.47839495000002,176.80160891250003,56.0,102.0
796,176.69268045,176.953394475,51.0,89.0
797,176.90696595000003,177.053394375,56.0,97.0
798,176.90696595000003,177.13196572500001,63.0,95.0
799,177.54982245000002,177.98910772500003,58.0,95.0
800,177.54982245000002,178.1141076,62.0,94.0
801,177.97839345000003,178.37839305000003,53.0,89.0
802,178.19267895000002,178.49625007500003,58.0,107.0
803,177.54982245000002,178.70696415000003,46.0,99.0
804,178.40696445000003,178.73374983750003,53.0,75.0
805,178.62124995000002,178.87124970000002,58.0,100.0
806,178.83553545000004,178.96053532500002,46.0,96.0
807,179.04982095000003,179.10696375000003,58.0,75.0
808,178.62124995000002,179.12303516250003,65.0,95.0
809,179.04982095000003,179.70874886250002,62.0,93.0
810,179.47839195000003,179.93732006250002,50.0,93.0
811,179.69267745000002,180.18731981250002,55.0,97.0
812,179.90696295000004,180.18910552500003,58.0,107.0
813,180.12124845000002,180.38910532500003,50.0,96.0
814,179.26410645,180.4408909875,43.0,97.0
815,180.33553395,180.58017656250001,55.0,94.0
816,180.33553395,180.58017656250001,58.0,97.0
817,180.33553395,180.62303366250003,62.0,98.0
818,180.54981945000003,180.73731926250002,43.0,94.0
819,180.97839045000003,181.14267600000002,55.0,94.0
820,180.97839045000003,181.20517593750003,60.0,93.0
821,181.40696145,181.52660418750003,60.0,102.0
822,181.19267595000002,181.65874691250002,55.0,93.0
823,181.62124695000003,181.84267530000002,67.0,97.0
824,181.62124695000003,181.8516038625,60.0,99.0
825,181.83553245000002,182.12481787500002,55.0,85.0
826,182.04981795000003,182.27838915000004,63.0,98.0
827,182.04981795000003,182.27838915000004,67.0,96.0
828,182.04981795000003,182.28196057500003,60.0,96.0
829,180.97839045000003,182.32660338750003,48.0,100.0
830,182.26410345000002,182.34088908750002,55.0,84.0
831,182.47838895,182.53017461250002,48.0,84.0
832,182.69267445000003,182.86588856250003,62.0,91.0
833,182.69267445000003,182.90695995000002,60.0,93.0
834,182.69267445000003,182.94088848750002,63.0,98.0
835,182.69267445000003,183.19267395000003,72.0,93.0
836,183.12124545000003,183.23731676250003,60.0,94.0
837,182.90695995000002,183.39803088750003,55.0,94.0
838,183.33553095000002,183.639102075,63.0,100.0
839,183.33553095000002,183.64624492500002,67.0,99.0
840,183.33553095000002,183.64803063750003,60.0,98.0
841,183.54981645000004,183.86767327500002,55.0,89.0
842,182.69267445000003,183.88195897500003,48.0,98.0
843,183.76410195000003,183.91767322500002,60.0,100.0
844,183.76410195000003,184.22124435000003,63.0,109.0
845,183.76410195000003,184.2444586125,67.0,99.0
846,184.19267295000003,184.30695855000002,60.0,93.0
847,184.40695845000002,184.66588676250004,60.0,102.0
848,184.40695845000002,184.85160086250002,63.0,108.0
849,184.83552945000002,184.96945788750003,60.0,99.0
850,184.62124395000004,185.13910057500001,55.0,96.0
851,184.40695845000002,185.20338622500003,48.0,103.0
852,185.04981495,185.24267190000003,67.0,102.0
853,185.04981495,185.25338617500003,60.0,94.0
854,185.04981495,185.260529025,63.0,102.0
855,185.26410045000003,185.310528975,58.0,88.0
856,185.47838595000002,185.74624282500002,58.0,110.0
857,185.47838595000002,185.760528525,62.0,104.0
858,185.47838595000002,185.77481422500003,46.0,120.0
859,185.90695695000002,186.33909937500002,63.0,110.0
860,185.90695695000002,186.34088508750003,60.0,99.0
861,185.90695695000002,186.39088503750003,48.0,110.0
862,187.83552645000003,188.0480262375,60.0,103.0
863,187.83552645000003,188.09981190000002,63.0,102.0
864,188.04981195000002,188.25516888750002,55.0,101.0
865,188.26409745000004,188.41052587500002,60.0,95.0
866,188.47838295000003,188.58552570000003,55.0,91.0
867,188.69266845,188.82481117500004,55.0,112.0
868,188.69266845,188.97123960000002,63.0,115.0
869,188.90695395000003,189.03195382500002,55.0,101.0
870,187.83552645000003,189.0980251875,48.0,100.0
871,189.12123945000002,189.26231073750003,60.0,105.0
872,189.33552495000004,189.45516768750002,55.0,103.0
873,189.54981045000002,189.7694530875,55.0,107.0
874,189.54981045000002,190.03730996250002,62.0,108.0
875,189.54981045000002,190.08552420000004,43.0,103.0
876,189.97838145000003,190.274809725,55.0,103.0
877,190.40695245000003,190.75873781250002,56.0,105.0
878,190.40695245000003,190.88195197500002,44.0,108.0
879,190.40695245000003,190.88909482500003,60.0,107.0
880,190.83552345,191.11230888750003,51.0,102.0
881,191.04980895000003,191.15873741250002,56.0,115.0
882,191.26409445000002,191.48373708750003,58.0,110.0
883,191.69266545000002,191.83195102500002,58.0,110.0
884,191.47837995000003,192.20873636250002,53.0,100.0
885,191.26409445000002,192.24980775000003,46.0,107.0
886,192.12123645000003,192.30695055000004,58.0,122.0
887,192.12123645000003,192.39266475000002,62.0,112.0
888,192.33552195000001,192.48730751250002,53.0,102.0
889,192.54980745000003,192.78373578750004,58.0,115.0
890,192.76409295000002,192.86230713750004,62.0,103.0
891,192.97837845000004,193.20694965,60.0,102.0
892,192.97837845000004,193.23730676250003,63.0,117.0
893,193.19266395000002,193.5123064875,55.0,97.0
894,193.40694945,193.62123495000003,60.0,106.0
895,193.62123495000003,193.8730204125,55.0,96.0
896,192.97837845000004,193.94087748750002,48.0,108.0
897,193.83552045000002,194.03552025000002,67.0,105.0
898,193.83552045000002,194.04087738750002,60.0,103.0
899,194.04980595000004,194.14444871250004,48.0,80.0
900,194.04980595000004,194.18730581250003,55.0,103.0
901,194.26409145000002,194.367662775,63.0,107.0
902,194.26409145000002,194.38373418750004,60.0,98.0
903,194.69266245000003,194.86766227500001,56.0,101.0
904,194.69266245000003,194.98016216250002,60.0,102.0
905,195.12123345000003,195.27123330000003,56.0,107.0
906,194.90694795000002,195.28016186250002,51.0,97.0
907,195.33551895000002,195.59801868750003,51.0,95.0
908,194.69266245000003,195.60873296250003,44.0,107.0
909,195.54980445000004,195.74266140000003,56.0,115.0
910,195.54980445000004,195.81766132500002,60.0,112.0
911,195.76408995000003,195.90337552500003,51.0,103.0
912,195.97837545000002,196.02480397500003,60.0,71.0
913,195.97837545000002,196.21766092500002,56.0,110.0
914,196.19266095000003,196.32837510000002,60.0,108.0
915,196.40694645000002,196.64087478750002,55.0,103.0
916,196.40694645000002,196.73730326250003,58.0,115.0
917,196.83551745000003,197.12123145000004,55.0,107.0
918,196.62123195000004,197.17301711250002,50.0,103.0
919,196.40694645000002,197.18730281250004,43.0,103.0
920,197.26408845000003,197.76944508750003,41.0,104.0
921,197.26408845000003,197.87658783750004,53.0,108.0
922,197.69265945000004,197.89444496250002,48.0,96.0
923,198.12123045,198.38908732500002,63.0,98.0
924,198.12123045,198.56051572500002,67.0,96.0
925,198.54980145000002,198.82122975000001,63.0,103.0
926,198.76408695000003,198.89444396250002,67.0,99.0
927,198.33551595000003,199.10515803750002,46.0,89.0
928,198.97837245000002,199.24265790000004,70.0,110.0
929,198.12123045,199.25158646250003,39.0,106.0
930,198.97837245000002,199.28015786250003,63.0,110.0
931,199.19265795000004,199.2873007125,46.0,96.0
932,199.40694345000003,199.53551475000003,63.0,102.0
933,199.40694345000003,199.65872891250004,67.0,101.0
934,199.40694345000003,199.74087168750003,70.0,96.0
935,199.62122895000002,199.82122875000002,63.0,98.0
936,200.26408545000004,200.28908542500002,67.0,90.0
937,200.04979995000002,200.35694250000003,55.0,101.0
938,200.26408545000004,200.49265665000001,60.0,110.0
939,200.47837095000003,200.74265640000002,55.0,103.0
940,199.83551445000003,200.83551345000004,48.0,105.0
941,200.69265645000002,200.88372768750003,63.0,118.0
942,200.69265645000002,200.89801338750001,60.0,105.0
943,200.69265645000002,200.92301336250003,67.0,103.0
944,200.90694195000003,201.13551315000004,55.0,102.0
945,200.90694195000003,201.19622737500003,48.0,80.0
946,201.12122745000002,201.24087018750004,60.0,105.0
947,201.12122745000002,201.34087008750004,63.0,106.0
948,201.33551295000004,201.52479847500004,60.0,110.0
949,201.54979845000003,201.91229808750003,72.0,103.0
950,201.54979845000003,201.92301236250003,69.0,103.0
951,201.54979845000003,201.92658378750002,65.0,101.0
952,202.19265495000002,202.30872626250002,65.0,104.0
953,201.97836945000003,202.45694040000004,48.0,97.0
954,202.40694045000004,202.66765447500003,65.0,118.0
955,201.54979845000003,202.72301156250003,41.0,105.0
956,202.40694045000004,202.73551155,72.0,104.0
957,202.62122595000002,202.76765437500003,48.0,107.0
958,202.83551145,203.11229688750004,65.0,108.0
959,203.04979695000003,203.16408255000002,72.0,101.0
960,203.26408245000002,203.71408200000002,68.0,104.0
961,203.26408245000002,203.72836770000004,72.0,103.0
962,203.26408245000002,203.77301051250004,44.0,106.0
963,203.69265345000002,203.96586746250003,51.0,97.0
964,204.12122445000003,204.41050987500003,44.0,107.0
965,204.12122445000003,204.52122405000003,51.0,105.0
966,204.12122445000003,204.60693825,68.0,107.0
967,204.54979545000003,204.65336677500002,44.0,102.0
968,204.12122445000003,204.79622377500002,72.0,105.0
969,204.76408095000002,204.95515218750003,68.0,103.0
970,205.40693745000002,205.717651425,58.0,102.0
971,205.19265195000003,205.74086568750002,53.0,106.0
972,204.97836645000004,205.74443711250004,46.0,118.0
973,205.62122295000003,205.74622282500002,62.0,100.0
974,205.83550845000002,206.05157966250002,46.0,106.0
975,205.83550845000002,206.10515103750004,58.0,112.0
976,205.83550845000002,206.14622242500002,62.0,110.0
977,205.83550845000002,206.18372238750004,53.0,102.0
978,206.26407945000003,206.36229363750002,46.0,108.0
979,206.69265045000003,206.87122170000004,63.0,108.0
980,206.69265045000003,206.89622167500002,67.0,104.0
981,206.69265045000003,207.13193572500003,51.0,118.0
982,207.33550695000002,207.44264970000003,63.0,108.0
983,207.12122145000004,207.47122110000004,58.0,103.0
984,207.76407795000003,207.82479217500003,51.0,97.0
985,207.54979245000004,207.83193502500004,63.0,117.0
986,207.54979245000004,207.91764922500002,67.0,107.0
987,207.76407795000003,207.92479207500003,58.0,94.0
988,207.54979245000004,208.03729196250003,70.0,103.0
989,207.97836345000002,208.23907747500002,63.0,110.0
990,208.19264895000003,208.38014876250003,70.0,106.0
991,208.62121995000004,208.98729101250004,50.0,105.0
992,208.83550545000003,209.15157656250003,55.0,122.0
993,209.04979095000002,209.16229083750002,58.0,97.0
994,208.40693445000002,209.62836180000002,43.0,105.0
995,209.26407645000003,209.67657603750004,55.0,107.0
996,209.26407645000003,209.67657603750004,58.0,108.0
997,209.26407645000003,209.70514743750002,62.0,108.0
998,209.69264745000004,209.96943288750003,50.0,103.0
999,209.90693295000003,209.97479002500003,62.0,88.0
1000,209.69264745000004,209.98550430000003,43.0,75.0
1001,209.90693295000003,210.06407565000004,55.0,101.0
1002,210.12121845000001,210.62300366250003,58.0,96.0
1003,210.12121845000001,210.76407495000004,62.0,102.0
1004,210.12121845000001,210.85693200000003,55.0,101.0
1005,210.97836045000003,211.00336042500004,55.0,82.0
1006,210.54978945000002,211.18014596250003,50.0,97.0
1007,210.97836045000003,211.39264575,58.0,103.0
1008,210.12121845000001,211.39621717500003,43.0,105.0
1009,210.97836045000003,211.43728856250002,62.0,102.0
1010,211.40693145000003,211.50157421250003,55.0,107.0
1011,210.97836045000003,211.54085988750003,67.0,101.0
1012,211.83550245000004,212.26228773750003,63.0,102.0
1013,211.83550245000004,212.43014471250004,60.0,103.0
1014,212.26407345000004,212.75693010000003,55.0,97.0
1015,212.69264445000002,212.95335847500002,63.0,110.0
1016,212.69264445000002,212.98728701250002,67.0,106.0
1017,213.12121545000002,213.18371538750003,67.0,71.0
1018,212.90692995000003,213.18550110000004,55.0,102.0
1019,211.83550245000004,213.33907237500003,48.0,107.0
1020,213.12121545000002,213.37478662500004,60.0,104.0
1021,213.33550095000004,213.37835805000003,67.0,84.0
1022,213.33550095000004,213.43907227500003,63.0,107.0
1023,213.54978645000003,214.10335732500002,72.0,102.0
1024,213.54978645000003,214.14264300000002,60.0,97.0
1025,213.54978645000003,214.14442871250003,63.0,97.0
1026,214.40692845000004,214.67478532500002,60.0,99.0
1027,213.97835745000003,214.83371373750003,55.0,89.0
1028,213.54978645000003,215.19978480000003,48.0,108.0
1029,214.83549945000001,215.26585616250003,60.0,90.0
1030,215.26407045000002,215.26585616250003,60.0,103.0
1031,214.40692845000004,215.28192757500003,63.0,101.0
1032,215.26407045000002,215.28192757500003,63.0,102.0
1033,214.40692845000004,215.30692755000004,67.0,100.0
1034,215.47835595000004,215.68371288750004,55.0,101.0
1035,215.69264145000002,215.83906987500004,60.0,95.0
1036,215.90692695000004,216.01406970000002,55.0,91.0
1037,216.12121245000003,216.25335517500002,55.0,112.0
1038,216.12121245000003,216.39978360000003,63.0,115.0
1039,216.33549795000002,216.46049782500003,55.0,101.0
1040,215.26407045000002,216.52656918750003,48.0,100.0
1041,216.54978345000004,216.69085473750002,60.0,105.0
1042,216.76406895000002,216.88371168750004,55.0,103.0
1043,216.97835445000004,217.19799708750003,55.0,107.0
1044,216.97835445000004,217.46585396250003,62.0,108.0
1045,216.97835445000004,217.51406820000003,43.0,103.0
1046,217.40692545000002,217.70335372500003,55.0,103.0
1047,217.83549645000002,218.18728181250003,56.0,105.0
1048,217.83549645000002,218.31049597500004,44.0,108.0
1049,217.83549645000002,218.31763882500002,60.0,107.0
1050,218.26406745000003,218.54085288750002,51.0,102.0
1051,218.47835295000002,218.58728141250003,56.0,115.0
1052,218.69263845000003,218.91228108750002,58.0,110.0
1053,219.12120945000004,219.26049502500004,58.0,110.0
1054,218.90692395000002,219.63728036250004,53.0,100.0
1055,218.69263845000003,219.67835175000002,46.0,107.0
1056,219.54978045000004,219.73549455000003,58.0,122.0
1057,219.54978045000004,219.82120875000004,62.0,112.0
1058,219.76406595000003,219.91585151250004,53.0,102.0
1059,219.97835145000002,220.21227978750002,58.0,115.0
1060,220.19263695000004,220.29085113750003,62.0,103.0
1061,220.40692245000002,220.63549365000003,60.0,102.0
1062,220.40692245000002,220.66585076250004,63.0,117.0
1063,220.62120795000004,220.94085048750003,55.0,97.0
1064,220.83549345000003,221.04977895000002,60.0,106.0
1065,221.04977895000002,221.30156441250003,55.0,96.0
1066,220.40692245000002,221.36942148750003,48.0,108.0
1067,221.26406445000003,221.46406425000004,67.0,105.0
1068,221.26406445000003,221.46942138750003,60.0,103.0
1069,221.47834995000002,221.57299271250002,48.0,80.0
1070,221.47834995000002,221.61584981250002,55.0,103.0
1071,221.69263545000004,221.79620677500003,63.0,107.0
1072,221.69263545000004,221.81227818750003,60.0,98.0
1073,222.12120645000002,222.29620627500003,56.0,101.0
1074,222.12120645000002,222.40870616250004,60.0,102.0
1075,222.54977745000002,222.69977730000002,56.0,107.0
1076,222.33549195000003,222.70870586250004,51.0,97.0
1077,222.76406295000004,223.02656268750002,51.0,95.0
1078,222.12120645000002,223.03727696250002,44.0,107.0
1079,222.97834845000003,223.17120540000002,56.0,115.0
1080,222.97834845000003,223.24620532500003,60.0,112.0
1081,223.19263395000002,223.33191952500002,51.0,103.0
1082,223.40691945000003,223.45334797500004,60.0,71.0
1083,223.40691945000003,223.64620492500003,56.0,110.0
1084,223.62120495000002,223.75691910000003,60.0,108.0
1085,223.83549045000004,224.06941878750004,55.0,103.0
1086,223.83549045000004,224.16584726250002,58.0,115.0
1087,224.26406145000004,224.54977545000003,55.0,107.0
1088,224.04977595000003,224.60156111250004,50.0,103.0
1089,223.83549045000004,224.61584681250002,43.0,103.0
1090,224.69263245000002,225.19798908750002,41.0,104.0
1091,224.69263245000002,225.30513183750003,53.0,108.0
1092,225.12120345000002,225.32298896250003,48.0,96.0
1093,225.54977445000003,225.81763132500004,63.0,98.0
1094,225.54977445000003,225.98905972500003,67.0,96.0
1095,225.97834545000003,226.24977375000003,63.0,103.0
1096,226.19263095000002,226.32298796250004,67.0,99.0
1097,225.76405995000002,226.53370203750003,46.0,89.0
1098,226.40691645000004,226.67120190000003,70.0,110.0
1099,225.54977445000003,226.68013046250002,39.0,106.0
1100,226.40691645000004,226.70870186250002,63.0,110.0
1101,226.62120195000003,226.71584471250003,46.0,96.0
1102,226.83548745000002,226.96405875000002,63.0,102.0
1103,226.83548745000002,227.08727291250003,67.0,101.0
1104,226.83548745000002,227.16941568750002,70.0,96.0
1105,227.04977295000003,227.24977275000003,63.0,98.0
1106,227.69262945000003,227.71762942500004,67.0,90.0
1107,227.47834395000004,227.78548650000002,55.0,101.0
1108,227.69262945000003,227.92120065000003,60.0,110.0
1109,227.90691495000004,228.17120040000003,55.0,103.0
1110,227.26405845000002,228.26405745000002,48.0,105.0
1111,228.12120045000003,228.31227168750004,63.0,118.0
1112,228.12120045000003,228.32655738750003,60.0,105.0
1113,228.12120045000003,228.35155736250002,67.0,103.0
1114,228.33548595000002,228.56405715000002,55.0,102.0
1115,228.33548595000002,228.62477137500002,48.0,80.0
1116,228.54977145000004,228.66941418750002,60.0,105.0
1117,228.54977145000004,228.76941408750002,63.0,106.0
1118,228.76405695000003,228.95334247500003,60.0,110.0
1119,228.97834245000004,229.34084208750002,72.0,103.0
1120,228.97834245000004,229.35155636250002,69.0,103.0
1121,228.97834245000004,229.35512778750004,65.0,101.0
1122,229.62119895000004,229.73727026250003,65.0,104.0
1123,229.40691345000002,229.88548440000002,48.0,97.0
1124,229.83548445000002,230.09619847500002,65.0,118.0
1125,228.97834245000004,230.15155556250002,41.0,105.0
1126,229.83548445000002,230.16405555000003,72.0,104.0
1127,230.04976995000004,230.19619837500002,48.0,107.0
1128,230.26405545000003,230.54084088750002,65.0,108.0
1129,230.47834095000002,230.59262655000003,72.0,101.0
1130,230.69262645000003,231.14262600000004,68.0,104.0
1131,230.69262645000003,231.15691170000002,72.0,103.0
1132,230.69262645000003,231.20155451250002,44.0,106.0
1133,231.12119745000004,231.39441146250002,51.0,97.0
1134,231.54976845000002,231.83905387500002,44.0,107.0
1135,231.54976845000002,231.94976805000002,51.0,105.0
1136,231.54976845000002,232.03548225000003,68.0,107.0
1137,231.97833945000002,232.08191077500004,44.0,102.0
1138,231.54976845000002,232.22476777500003,72.0,105.0
1139,232.19262495000004,232.38369618750002,68.0,103.0
1140,232.83548145000003,233.14619542500003,58.0,102.0
1141,232.62119595000004,233.16940968750004,53.0,106.0
1142,232.40691045000003,233.17298111250003,46.0,118.0
1143,233.04976695000002,233.17476682500003,62.0,100.0
1144,233.26405245000004,233.48012366250003,46.0,106.0
1145,233.26405245000004,233.53369503750002,58.0,112.0
1146,233.26405245000004,233.57476642500004,62.0,110.0
1147,233.26405245000004,233.61226638750003,53.0,102.0
1148,233.69262345000004,233.79083763750003,46.0,108.0
1149,234.12119445000002,234.29976570000002,63.0,108.0
1150,234.12119445000002,234.32476567500004,67.0,104.0
1151,234.12119445000002,234.56047972500002,51.0,118.0
1152,234.76405095000004,234.87119370000002,63.0,108.0
1153,234.54976545000002,234.89976510000002,58.0,103.0
1154,235.19262195000002,235.25333617500004,51.0,97.0
1155,234.97833645000003,235.26047902500002,63.0,117.0
1156,234.97833645000003,235.34619322500004,67.0,107.0
1157,235.19262195000002,235.35333607500004,58.0,94.0
1158,234.97833645000003,235.46583596250002,70.0,103.0
1159,235.40690745000003,235.66762147500003,63.0,110.0
1160,235.62119295000002,235.80869276250004,70.0,106.0
1161,236.04976395000003,236.41583501250003,50.0,105.0
1162,236.26404945000004,236.58012056250004,55.0,122.0
1163,236.47833495000003,236.59083483750004,58.0,97.0
1164,235.83547845000004,237.05690580000004,43.0,105.0
1165,236.69262045000002,237.10512003750003,55.0,107.0
1166,236.69262045000002,237.10512003750003,58.0,108.0
1167,236.69262045000002,237.13369143750003,62.0,108.0
1168,237.12119145000003,237.39797688750002,50.0,103.0
1169,237.33547695000004,237.40333402500002,62.0,88.0
1170,237.12119145000003,237.41404830000002,43.0,75.0
1171,237.33547695000004,237.49261965000002,55.0,101.0
1172,237.54976245000003,238.05154766250004,58.0,96.0
1173,237.54976245000003,238.19261895000002,62.0,102.0
1174,237.54976245000003,238.28547600000005,55.0,101.0
1175,238.40690445000004,238.43190442500003,55.0,82.0
1176,237.97833345000004,238.60868996250002,50.0,97.0
1177,238.40690445000004,238.82118975000003,58.0,103.0
1178,237.54976245000003,238.82476117500002,43.0,105.0
1179,238.40690445000004,238.86583256250003,62.0,102.0
1180,238.83547545000002,238.93011821250002,55.0,107.0
1181,238.40690445000004,238.96940388750002,67.0,101.0
1182,239.26404645000002,240.16225983750005,68.0,90.0
1183,239.69261745000003,240.37654533750003,51.0,88.0
1184,240.12118845000003,240.61940223750003,56.0,106.0
1185,240.54975945000004,240.88904482500004,60.0,96.0
1186,240.97833045000004,241.53190132500004,63.0,91.0
1187,240.97833045000004,241.61582981250004,68.0,95.0
1188,240.97833045000004,241.68904402500004,56.0,99.0
1189,239.26404645000002,241.82297246250002,44.0,100.0
1190,241.83547245000003,242.00332942500003,60.0,97.0
1191,241.83547245000003,242.03725796250004,63.0,97.0
1192,241.83547245000003,242.05154366250002,56.0,98.0
1193,242.69261445000004,243.31047097500004,58.0,95.0
1194,242.69261445000004,243.64261350000004,55.0,96.0
1195,243.97832745000002,244.18904152500002,58.0,98.0
1196,243.54975645000002,244.23368433750002,62.0,96.0
1197,243.97832745000002,244.25511288750002,55.0,43.0
1198,244.40689845000003,244.55868401250004,58.0,86.0
1199,243.12118545000004,244.67475532500004,50.0,87.0
1200,244.40689845000003,245.12118345000002,62.0,92.0
1201,244.40689845000003,245.13725486250004,67.0,88.0
1202,244.40689845000003,245.14439771250002,55.0,93.0
1203,244.83546945000003,245.36939748750004,50.0,89.0
1204,242.69261445000004,245.56582586250002,43.0,96.0
1205,245.26404045000004,245.64618292500003,55.0,91.0
1206,245.26404045000004,245.66225433750003,58.0,97.0
1207,245.26404045000004,245.67118290000002,62.0,96.0
1208,246.09618247500003,247.06225293750003,60.0,97.0
1209,246.93725306250002,247.45153826250004,53.0,107.0
1210,246.09796818750004,247.47832395000003,41.0,94.0
1211,246.51582491250002,247.48010966250004,48.0,94.0
1212,247.35332407500005,247.80868076250005,60.0,91.0
1213,247.81403790000005,248.37118020000003,43.0,94.0
1214,248.27653743750002,248.43725156250002,50.0,88.0
1215,247.75153796250004,248.81939403750005,65.0,95.0
1216,249.48546480000005,249.82117875000003,70.0,94.0
1217,249.04975095000003,250.01760712500004,62.0,87.0
1218,248.79260835000002,250.08010706250002,55.0,94.0
1219,249.25153646250004,250.23724976250003,67.0,95.0
1220,249.70510743750003,250.41046387500003,74.0,93.0
1221,249.98546430000005,250.43010671250002,79.0,87.0
1222,251.04439181250004,251.34974865000004,55.0,92.0
1223,250.80867776250003,251.38546290000002,48.0,97.0
1224,251.22832020000004,251.45510568750004,60.0,86.0
1225,251.40689145000005,251.56403415000003,62.0,90.0
1226,251.54260560000003,251.64081978750002,63.0,94.0
1227,251.68903402500004,251.91224808750005,60.0,84.0
1228,251.84974815000004,251.96224803750005,67.0,86.0
1229,251.97831945000004,252.18367638750004,72.0,89.0
1230,252.14617642500002,252.30331912500003,79.0,86.0
1231,252.74260440000003,253.29974670000004,84.0,89.0
1232,252.95688990000002,253.38367518750005,91.0,83.0
1233,253.21760392500002,253.41046087500004,96.0,91.0
1234,252.34439051250004,255.19260195000004,72.0,92.0
1235,252.54260460000003,255.21760192500003,79.0,85.0
