,start,end,pitch,velocity
0,52.9791136875,53.2661504375,60.0,88.0
1,53.2568911875,53.444391,69.0,85.0
2,53.5346686875,53.69323334375,69.0,86.0
3,53.8124461875,54.016149687500004,69.0,88.0
4,54.0902236875,54.25341796875,67.0,85.0
5,54.3680011875,54.83443590625,69.0,88.0
6,54.9235561875,55.12841709375,67.0,85.0
7,55.201333687500004,55.44786121875,65.0,86.0
8,55.4791111875,56.5670730625,67.0,85.0
9,57.1457761875,57.40735,69.0,83.0
10,57.423553687500004,57.61221090625,67.0,80.0
11,57.7013311875,57.95480315625,67.0,85.0
12,57.9791086875,58.444386,65.0,85.0
13,58.5346636875,58.7013301875,67.0,79.0
14,58.8124411875,59.24994075,65.0,87.0
15,59.3679961875,59.5369775,57.0,76.0
16,59.645773687500004,59.8448475625,62.0,71.0
17,59.9235511875,61.060124125,60.0,85.0
18,62.1457711875,62.365678375,69.0,84.0
19,62.4235486875,62.612205906250004,72.0,83.0
20,62.7013261875,62.880724156250004,72.0,84.0
21,62.9791036875,63.1596590625,72.0,84.0
22,63.2568811875,63.43396434375,72.0,86.0
23,63.5346586875,64.03002856250001,72.0,90.0
24,64.3679911875,64.7800278125,74.0,88.0
25,64.9235461875,65.12146265625,69.0,86.0
26,65.20132368750001,65.36451796875001,67.0,84.0
27,65.4791011875,65.76961015625,65.0,84.0
28,65.7568786875,66.33673921875,62.0,84.0
29,66.5902111875,66.83210909375,65.0,85.0
30,66.8679886875,67.01034965625,67.0,85.0
31,67.1457661875,67.29738640625,67.0,84.0
32,67.4235436875,67.6110435,67.0,83.0
33,67.7013211875,68.12030225,69.0,87.0
34,68.2568761875,68.4605796875,67.0,80.0
35,68.5346536875,68.699005375,65.0,84.0
36,68.8124311875,70.64229046875,67.0,85.0
37,71.0346511875,71.222151,60.0,85.0
38,71.3124286875,71.47099334375,69.0,86.0
39,71.5902061875,71.7939096875,69.0,88.0
40,71.8679836875,72.03117796875,67.0,85.0
41,72.1457611875,72.61219590625,69.0,88.0
42,72.7013161875,72.90617709375,67.0,85.0
43,72.9790936875,73.22562121875,65.0,86.0
44,73.2568711875,74.3448330625,67.0,85.0
45,74.9235361875,75.18511,69.0,83.0
46,75.2013136875,75.38997090625,67.0,80.0
47,75.4790911875,75.73256315625,67.0,85.0
48,75.7568686875,76.222146,65.0,85.0
49,76.3124236875,76.4790901875,67.0,79.0
50,76.5902011875,77.02770075,65.0,87.0
51,77.1457561875,77.3147375,57.0,76.0
52,77.4235336875,77.62260756250001,62.0,71.0
53,77.7013111875,78.837884125,60.0,85.0
54,79.9235311875,80.143438375,69.0,84.0
55,80.2013086875,80.38996590625,72.0,83.0
56,80.4790861875,80.65848415625,72.0,84.0
57,80.7568636875,80.9374190625,72.0,84.0
58,81.0346411875,81.21172434375,72.0,86.0
59,81.3124186875,81.80778856250001,72.0,90.0
60,82.1457511875,82.5577878125,74.0,88.0
61,82.7013061875,82.89922265625,69.0,86.0
62,82.9790836875,83.14227796875,67.0,84.0
63,83.25686118750001,83.54737015625,65.0,84.0
64,83.5346386875,84.11449921875,62.0,84.0
65,84.3679711875,84.60986909375,65.0,85.0
66,84.6457486875,84.78810965625,67.0,85.0
67,84.9235261875,85.07514640625,67.0,84.0
68,85.2013036875,85.3888035,67.0,83.0
69,85.4790811875,85.89806225,69.0,87.0
70,86.0346361875,86.2383396875,67.0,80.0
71,86.3124136875,86.476765375,67.0,84.0
72,86.5901911875,88.42005046875,65.0,85.0
73,88.5346336875,88.72792053125,65.0,84.0
74,88.8124111875,88.9651888125,74.0,86.0
75,89.0901886875,89.504540125,74.0,95.0
76,89.6457436875,89.79967871875,72.0,86.0
77,89.9235211875,90.09134509375001,74.0,85.0
78,90.2012986875,90.36449296875,72.0,87.0
79,90.4790761875,90.76842775,72.0,90.0
80,91.0346311875,91.26264021875001,74.0,88.0
81,91.3124086875,91.458241875,72.0,86.0
82,91.5901861875,91.7938896875,72.0,90.0
83,91.8679636875,92.05430609375,69.0,88.0
84,92.14574118750001,92.8957404375,72.0,93.0
85,93.2568511875,93.45245284375,62.0,90.0
86,93.5346286875,93.94319309375,65.0,87.0
87,94.0901836875,94.2614798125,65.0,88.0
88,94.3679611875,94.51263696875,65.0,86.0
89,94.6457386875,94.83439590625,65.0,85.0
90,94.9235161875,95.22096959375,62.0,87.0
91,95.4790711875,95.71402465625,74.0,89.0
92,95.7568486875,95.90846890625001,72.0,85.0
93,96.0346261875,96.208237125,72.0,90.0
94,96.3124036875,96.52189421875,74.0,86.0
95,96.59018118750001,96.773051375,69.0,86.0
96,96.8679586875,97.48254140625001,67.0,85.0
97,97.7012911875,97.85291140625,77.0,88.0
98,97.9790686875,98.411938625,77.0,85.0
99,98.5346236875,98.7221235,74.0,88.0
100,98.8124011875,99.02189171875,74.0,90.0
101,99.0901786875,99.28346553125,72.0,86.0
102,99.3679561875,99.726752125,72.0,85.0
103,99.9235111875,100.13531653125,74.0,90.0
104,100.2012886875,100.347121875,72.0,86.0
105,100.4790661875,100.64689009375,72.0,87.0
106,100.7568436875,100.95476015625,74.0,86.0
107,101.03462118750001,101.726750125,69.0,85.0
108,102.1457311875,102.31355509375,62.0,88.0
109,102.4235086875,102.84133234375,65.0,85.0
110,102.9790636875,103.1966560625,62.0,90.0
111,103.2568411875,103.45707246875,62.0,91.0
112,103.5346186875,103.708229625,74.0,91.0
113,103.8123961875,104.00105340625,74.0,95.0
114,104.0901736875,104.28809015625001,72.0,86.0
115,104.3679511875,104.50105290625,74.0,91.0
116,104.6457286875,104.93160803125001,72.0,88.0
117,105.2012836875,105.38531128125,74.0,88.0
118,105.47906118750001,106.3123936875,72.0,86.0
119,106.3123936875,106.40151396875,60.0,91.0
120,106.4512824375,106.54503234375,60.0,84.0
121,106.5901711875,106.73600437500001,72.0,86.0
122,106.8679486875,107.21864278125,69.0,84.0
123,107.4235036875,107.518411,67.0,85.0
124,107.5623924375,107.65614234375,69.0,83.0
125,107.7012811875,107.94086428125,67.0,86.0
126,107.9790586875,108.32396575,65.0,86.0
127,108.5346136875,108.62373396875,60.0,91.0
128,108.6735024375,108.76725234375,60.0,84.0
129,108.8123911875,108.958224375,72.0,86.0
130,109.0901686875,109.44086278125,69.0,84.0
131,109.6457236875,109.74063100000001,67.0,85.0
132,109.7846124375,109.87836234375,69.0,83.0
133,109.92350118750001,110.16308428125001,67.0,86.0
134,110.20127868750001,110.54618575,65.0,86.0
135,110.7568336875,110.814704,60.0,87.0
136,110.8957224375,110.99641678125,60.0,87.0
137,111.0346111875,111.24410171875,74.0,87.0
138,111.3123886875,111.44896262500001,72.0,85.0
139,111.5901661875,111.76840675,72.0,86.0
140,111.8679436875,112.05197128125,69.0,86.0
141,112.1457211875,112.36447096875,74.0,89.0
142,112.4234986875,112.5901651875,72.0,85.0
143,112.7012761875,112.92002596875,72.0,84.0
144,112.9790536875,113.22558121875001,69.0,86.0
145,113.2568311875,113.47558096875,74.0,90.0
146,113.5346086875,113.9049786875,72.0,84.0
147,114.0901636875,114.28808015625,69.0,84.0
148,114.36794118750001,114.5901631875,74.0,90.0
149,114.64571868750001,115.0623849375,72.0,85.0
150,115.2012736875,115.4790511875,60.0,79.0
151,115.6179399375,117.0253459375,69.0,85.0
152,117.1457161875,117.35520671875,67.0,85.0
153,117.4234936875,117.65613234375,69.0,84.0
154,117.7012711875,117.98020609375,67.0,75.0
155,117.9790486875,119.4281213125,65.0,84.0
156,161.86789368750001,162.1549304375,60.0,88.0
157,162.1456711875,162.333171,69.0,85.0
158,162.4234486875,162.58201334375,69.0,86.0
159,162.7012261875,162.90492968750002,69.0,88.0
160,162.9790036875,163.14219796875,67.0,85.0
161,163.2567811875,163.72321590625,69.0,88.0
162,163.8123361875,164.01719709375,67.0,85.0
163,164.0901136875,164.33664121875,65.0,86.0
164,164.3678911875,165.4558530625,67.0,85.0
165,166.03455618750002,166.29613,69.0,83.0
166,166.3123336875,166.50099090625,67.0,80.0
167,166.5901111875,166.84358315625,67.0,85.0
168,166.8678886875,167.333166,65.0,85.0
169,167.4234436875,167.5901101875,67.0,79.0
170,167.7012211875,168.13872075,65.0,87.0
171,168.2567761875,168.4257575,57.0,76.0
172,168.5345536875,168.7336275625,62.0,71.0
173,168.8123311875,169.948904125,60.0,85.0
174,171.0345511875,171.254458375,69.0,84.0
175,171.3123286875,171.50098590625,72.0,83.0
176,171.5901061875,171.76950415625,72.0,84.0
177,171.8678836875,172.0484390625,72.0,84.0
178,172.1456611875,172.32274434375,72.0,86.0
179,172.4234386875,172.9188085625,72.0,90.0
180,173.2567711875,173.6688078125,74.0,88.0
181,173.8123261875,174.01024265625,69.0,86.0
182,174.0901036875,174.25329796875,67.0,84.0
183,174.3678811875,174.65839015625,65.0,84.0
184,174.6456586875,175.22551921875,62.0,84.0
185,175.47899118750001,175.72088909375,65.0,85.0
186,175.7567686875,175.89912965625,67.0,85.0
187,176.0345461875,176.18616640625,67.0,84.0
188,176.3123236875,176.4998235,67.0,83.0
189,176.5901011875,177.00908225,69.0,87.0
190,177.1456561875,177.3493596875,67.0,80.0
191,177.4234336875,177.587785375,65.0,84.0
192,177.7012111875,179.53107046875002,67.0,85.0
193,179.9234311875,180.110931,60.0,85.0
194,180.2012086875,180.35977334375,69.0,86.0
195,180.4789861875,180.68268968750002,69.0,88.0
196,180.7567636875,180.91995796875,67.0,85.0
197,181.0345411875,181.50097590625,69.0,88.0
198,181.5900961875,181.79495709375,67.0,85.0
199,181.8678736875,182.11440121875,65.0,86.0
200,182.1456511875,183.2336130625,67.0,85.0
201,183.81231618750002,184.07389,69.0,83.0
202,184.0900936875,184.27875090625,67.0,80.0
203,184.36787118750001,184.62134315625,67.0,85.0
204,184.6456486875,185.110926,65.0,85.0
205,185.2012036875,185.3678701875,67.0,79.0
206,185.4789811875,185.91648075,65.0,87.0
207,186.0345361875,186.2035175,57.0,76.0
208,186.3123136875,186.5113875625,62.0,71.0
209,186.5900911875,187.726664125,60.0,85.0
210,188.8123111875,189.032218375,69.0,84.0
211,189.0900886875,189.27874590625,72.0,83.0
212,189.3678661875,189.54726415625,72.0,84.0
213,189.6456436875,189.8261990625,72.0,84.0
214,189.9234211875,190.10050434375,72.0,86.0
215,190.2011986875,190.6965685625,72.0,90.0
216,191.0345311875,191.4465678125,74.0,88.0
217,191.5900861875,191.78800265625,69.0,86.0
218,191.8678636875,192.03105796875,67.0,84.0
219,192.1456411875,192.43615015625,65.0,84.0
220,192.4234186875,193.00327921875,62.0,84.0
221,193.25675118750002,193.49864909375,65.0,85.0
222,193.5345286875,193.67688965625,67.0,85.0
223,193.8123061875,193.96392640625,67.0,84.0
224,194.0900836875,194.2775835,67.0,83.0
225,194.3678611875,194.78684225,69.0,87.0
226,194.9234161875,195.1271196875,67.0,80.0
227,195.2011936875,195.365545375,67.0,84.0
228,195.4789711875,197.30883046875,65.0,85.0
229,197.42341368750002,197.61670053125,65.0,84.0
230,197.7011911875,197.8539688125,74.0,86.0
231,197.97896868750001,198.393320125,74.0,95.0
232,198.5345236875,198.68845871875,72.0,86.0
233,198.8123011875,198.98012509375,74.0,85.0
234,199.0900786875,199.25327296875,72.0,87.0
235,199.3678561875,199.65720775,72.0,90.0
236,199.9234111875,200.15142021875,74.0,88.0
237,200.2011886875,200.347021875,72.0,86.0
238,200.4789661875,200.6826696875,72.0,90.0
239,200.7567436875,200.94308609375,69.0,88.0
240,201.0345211875,201.7845204375,72.0,93.0
241,202.14563118750002,202.34123284375,62.0,90.0
242,202.4234086875,202.83197309375,65.0,87.0
243,202.9789636875,203.1502598125,65.0,88.0
244,203.2567411875,203.40141696875,65.0,86.0
245,203.5345186875,203.72317590625,65.0,85.0
246,203.8122961875,204.10974959375,62.0,87.0
247,204.3678511875,204.60280465625002,74.0,89.0
248,204.6456286875,204.79724890625,72.0,85.0
249,204.9234061875,205.097017125,72.0,90.0
250,205.2011836875,205.41067421875,74.0,86.0
251,205.4789611875,205.661831375,69.0,86.0
252,205.7567386875,206.37132140625,67.0,85.0
253,206.5900711875,206.74169140625,77.0,88.0
254,206.86784868750001,207.300718625,77.0,85.0
255,207.4234036875,207.6109035,74.0,88.0
256,207.7011811875,207.91067171875,74.0,90.0
257,207.9789586875,208.17224553125,72.0,86.0
258,208.2567361875,208.61553212500002,72.0,85.0
259,208.8122911875,209.02409653125,74.0,90.0
260,209.0900686875,209.235901875,72.0,86.0
261,209.3678461875,209.53567009375,72.0,87.0
262,209.6456236875,209.84354015625001,74.0,86.0
263,209.9234011875,210.615530125,69.0,85.0
264,211.03451118750002,211.20233509375,62.0,88.0
265,211.3122886875,211.73011234375,65.0,85.0
266,211.8678436875,212.0854360625,62.0,90.0
267,212.1456211875,212.34585246875,62.0,91.0
268,212.4233986875,212.597009625,74.0,91.0
269,212.7011761875,212.88983340625,74.0,95.0
270,212.9789536875,213.17687015625,72.0,86.0
271,213.2567311875,213.38983290625,74.0,91.0
272,213.5345086875,213.82038803125,72.0,88.0
273,214.0900636875,214.27409128125,74.0,88.0
274,214.3678411875,215.20117368750002,72.0,86.0
275,215.20117368750002,215.29029396875,60.0,91.0
276,215.3400624375,215.43381234375,60.0,84.0
277,215.4789511875,215.624784375,72.0,86.0
278,215.75672868750001,216.10742278125,69.0,84.0
279,216.3122836875,216.407191,67.0,85.0
280,216.4511724375,216.54492234375002,69.0,83.0
281,216.5900611875,216.82964428125,67.0,86.0
282,216.8678386875,217.21274575,65.0,86.0
283,217.4233936875,217.51251396875,60.0,91.0
284,217.56228243750002,217.65603234375,60.0,84.0
285,217.7011711875,217.847004375,72.0,86.0
286,217.9789486875,218.32964278125002,69.0,84.0
287,218.5345036875,218.629411,67.0,85.0
288,218.6733924375,218.76714234375,69.0,83.0
289,218.8122811875,219.05186428125,67.0,86.0
290,219.0900586875,219.43496575,65.0,86.0
291,219.6456136875,219.703484,60.0,87.0
292,219.7845024375,219.88519678125002,60.0,87.0
293,219.92339118750002,220.13288171875,74.0,87.0
294,220.2011686875,220.337742625,72.0,85.0
295,220.47894618750001,220.65718675,72.0,86.0
296,220.7567236875,220.94075128125002,69.0,86.0
297,221.0345011875,221.25325096875,74.0,89.0
298,221.3122786875,221.47894518750002,72.0,85.0
299,221.5900561875,221.80880596875,72.0,84.0
300,221.8678336875,222.11436121875,69.0,86.0
301,222.1456111875,222.36436096875,74.0,90.0
302,222.4233886875,222.7937586875,72.0,84.0
303,222.9789436875,223.17686015625,69.0,84.0
304,223.2567211875,223.4789431875,74.0,90.0
305,223.5344986875,223.9511649375,72.0,85.0
306,224.09005368750002,224.3678311875,60.0,79.0
307,224.5067199375,225.9141259375,69.0,85.0
308,226.0344961875,226.24398671875,67.0,85.0
309,226.3122736875,226.54491234375,69.0,84.0
310,226.5900511875,226.86898609375,67.0,75.0
311,226.8678286875,228.3169013125,65.0,84.0
312,228.5344936875,228.72778053125,65.0,84.0
313,228.81227118750002,228.96504881250002,74.0,86.0
314,229.0900486875,229.504400125,74.0,95.0
315,229.6456036875,229.79953871875,72.0,86.0
316,229.9233811875,230.09120509375,74.0,85.0
317,230.2011586875,230.36435296875,72.0,87.0
318,230.4789361875,230.76828775,72.0,90.0
319,231.0344911875,231.26250021875,74.0,88.0
320,231.3122686875,231.458101875,72.0,86.0
321,231.5900461875,231.7937496875,72.0,90.0
322,231.8678236875,232.05416609375,69.0,88.0
323,232.1456011875,232.8956004375,72.0,93.0
324,233.2567111875,233.45231284375,62.0,90.0
325,233.53448868750002,233.94305309375,65.0,87.0
326,234.0900436875,234.2613398125,65.0,88.0
327,234.3678211875,234.51249696875,65.0,86.0
328,234.6455986875,234.83425590625,65.0,85.0
329,234.9233761875,235.22082959375,62.0,87.0
330,235.4789311875,235.71388465625,74.0,89.0
331,235.7567086875,235.90832890625,72.0,85.0
332,236.0344861875,236.208097125,72.0,90.0
333,236.3122636875,236.52175421875,74.0,86.0
334,236.5900411875,236.772911375,69.0,86.0
335,236.8678186875,237.48240140625,67.0,85.0
336,237.70115118750002,237.85277140625,77.0,88.0
337,237.9789286875,238.41179862500002,77.0,85.0
338,238.5344836875,238.7219835,74.0,88.0
339,238.8122611875,239.02175171875,74.0,90.0
340,239.0900386875,239.28332553125,72.0,86.0
341,239.3678161875,239.726612125,72.0,85.0
342,239.9233711875,240.13517653125,74.0,90.0
343,240.2011486875,240.346981875,72.0,86.0
344,240.4789261875,240.64675009375,72.0,87.0
345,240.7567036875,240.95462015625,74.0,86.0
346,241.0344811875,241.726610125,69.0,85.0
347,242.1455911875,242.31341509375,62.0,88.0
348,242.42336868750002,242.84119234375,65.0,85.0
349,242.97892368750001,243.1965160625,62.0,90.0
350,243.2567011875,243.45693246875,62.0,91.0
351,243.5344786875,243.708089625,74.0,91.0
352,243.8122561875,244.00091340625,74.0,95.0
353,244.0900336875,244.28795015625,72.0,86.0
354,244.3678111875,244.50091290625,74.0,91.0
355,244.6455886875,244.93146803125,72.0,88.0
356,245.2011436875,245.38517128125,74.0,88.0
357,245.4789211875,246.3122536875,72.0,86.0
358,246.3122536875,246.40137396875,60.0,91.0
359,246.4511424375,246.54489234375,60.0,84.0
360,246.59003118750002,246.735864375,72.0,86.0
361,246.8678086875,247.21850278125,69.0,84.0
362,247.4233636875,247.518271,67.0,85.0
363,247.5622524375,247.65600234375,69.0,83.0
364,247.7011411875,247.94072428125,67.0,86.0
365,247.9789186875,248.32382575,65.0,86.0
366,248.5344736875,248.62359396875001,60.0,91.0
367,248.6733624375,248.76711234375,60.0,84.0
368,248.8122511875,248.958084375,72.0,86.0
369,249.0900286875,249.44072278125,69.0,84.0
370,249.6455836875,249.740491,67.0,85.0
371,249.7844724375,249.87822234375,69.0,83.0
372,249.9233611875,250.16294428125,67.0,86.0
373,250.2011386875,250.54604575,65.0,86.0
374,250.7566936875,250.814564,60.0,87.0
375,250.8955824375,250.99627678125,60.0,87.0
376,251.0344711875,251.24396171875,74.0,87.0
377,251.31224868750002,251.448822625,72.0,85.0
378,251.5900261875,251.76826675,72.0,86.0
379,251.86780368750001,252.05183128125,69.0,86.0
380,252.1455811875,252.36433096875,74.0,89.0
381,252.4233586875,252.5900251875,72.0,85.0
382,252.7011361875,252.91988596875,72.0,84.0
383,252.9789136875,253.22544121875,69.0,86.0
384,253.2566911875,253.47544096875,74.0,90.0
385,253.5344686875,253.9048386875,72.0,84.0
386,254.0900236875,254.28794015625002,69.0,84.0
387,254.3678011875,254.5900231875,74.0,90.0
388,254.6455786875,255.0622449375,72.0,85.0
389,255.2011336875,255.47891118750002,60.0,79.0
390,255.6177999375,257.0252059375,69.0,85.0
391,257.1455761875,257.35506671875,67.0,85.0
392,257.4233536875,257.65599234375003,69.0,84.0
393,257.7011311875,257.98006609375,67.0,75.0
394,257.9789086875,259.4279813125,65.0,84.0
