,start,end,pitch,velocity
0,13.2569311875,13.662023375,41.0,87.0
1,13.5347086875,14.012717468750001,57.0,85.0
2,13.5347086875,14.01734709375,53.0,84.0
3,13.5347086875,14.03123596875,60.0,86.0
4,13.8124861875,14.21410615625,41.0,85.0
5,14.0902636875,14.4467448125,60.0,86.0
6,14.0902636875,14.45484665625,57.0,87.0
7,14.0902636875,14.48030959375,53.0,85.0
8,14.3680411875,14.75808709375,41.0,84.0
9,14.6458186875,15.057855312500001,53.0,84.0
10,14.6458186875,15.057855312500001,60.0,85.0
11,14.9235961875,15.31132728125,41.0,85.0
12,15.2013736875,15.4606326875,53.0,86.0
13,15.2013736875,15.47567896875,60.0,87.0
14,15.4791511875,15.8402619375,48.0,93.0
15,15.7569286875,16.1782245625,60.0,87.0
16,15.7569286875,16.1828541875,64.0,89.0
17,15.7569286875,16.18401159375,55.0,86.0
18,16.0347061875,16.4097058125,48.0,90.0
19,16.3124836875,16.75114065625,60.0,86.0
20,16.3124836875,16.7522980625,64.0,87.0
21,16.3124836875,16.76502953125,55.0,86.0
22,16.5902611875,16.958316375,48.0,83.0
23,16.8680386875,17.25576978125,64.0,86.0
24,16.8680386875,17.25808459375,60.0,86.0
25,16.8680386875,17.265029031250002,55.0,85.0
26,17.1458161875,17.587945375,48.0,89.0
27,17.4235936875,17.69442675,60.0,85.0
28,17.4235936875,17.7337785625,64.0,85.0
29,17.4235936875,17.74419521875,55.0,85.0
30,17.7013711875,18.05669490625,41.0,85.0
31,17.9791486875,18.39928715625,60.0,85.0
32,17.9791486875,18.407389000000002,57.0,82.0
33,17.9791486875,18.41549084375,53.0,79.0
34,18.2569261875,18.6481295,41.0,83.0
35,18.5347036875,18.899286656250002,57.0,87.0
36,18.5347036875,18.9004440625,60.0,85.0
37,18.5347036875,18.912018125,53.0,84.0
38,18.8124811875,19.15623084375,41.0,85.0
39,19.0902586875,19.4837768125,57.0,85.0
40,19.0902586875,19.49650828125,60.0,81.0
41,19.0902586875,19.504610125,53.0,84.0
42,19.3680361875,19.784702437500002,41.0,84.0
43,19.6458136875,19.8865541875,57.0,85.0
44,19.6458136875,19.902757875,53.0,84.0
45,19.6458136875,19.91548934375,60.0,85.0
46,19.9235911875,20.37960925,48.0,88.0
47,20.2013686875,20.57521090625,60.0,85.0
48,20.2013686875,20.5763683125,55.0,84.0
49,20.2013686875,20.58331275,64.0,86.0
50,20.4791461875,20.8726643125,48.0,86.0
51,20.7569236875,21.17590475,64.0,85.0
52,20.7569236875,21.185164,60.0,84.0
53,20.7569236875,21.19442325,55.0,84.0
54,21.0347011875,21.4050711875,48.0,91.0
55,21.3124786875,21.680533875000002,64.0,86.0
56,21.3124786875,21.70020978125,60.0,86.0
57,21.3124786875,21.708311625,55.0,85.0
58,21.5902561875,22.06479275,48.0,88.0
59,21.8680336875,22.10993159375,64.0,86.0
60,21.8680336875,22.1134038125,60.0,86.0
61,21.8680336875,22.115718625,55.0,86.0
62,22.1458111875,22.550903375,41.0,86.0
63,22.4235886875,22.8217364375,57.0,86.0
64,22.4235886875,22.8333105,53.0,84.0
65,22.4235886875,22.83446790625,60.0,86.0
66,22.7013661875,23.111088,41.0,85.0
67,22.9791436875,23.24881934375,57.0,89.0
68,22.9791436875,23.25576378125,53.0,87.0
69,22.9791436875,23.28585634375,60.0,84.0
70,23.2569211875,23.62613378125,50.0,91.0
71,23.5346986875,23.9444205,62.0,84.0
72,23.5346986875,23.95367975,57.0,79.0
73,23.5346986875,23.9606241875,65.0,84.0
74,23.8124761875,24.23955909375,50.0,93.0
75,24.0902536875,24.34372565625,65.0,84.0
76,24.0902536875,24.347197875,62.0,85.0
77,24.0902536875,24.4143274375,57.0,84.0
78,24.3680311875,24.72566971875,43.0,85.0
79,24.6458086875,25.060160125,62.0,71.0
80,24.6458086875,25.06478975,55.0,79.0
81,24.6458086875,25.0717341875,58.0,78.0
82,24.9235861875,25.35066909375,43.0,86.0
83,25.2013636875,25.51039115625,58.0,86.0
84,25.2013636875,25.52428003125,62.0,86.0
85,25.2013636875,25.5300670625,55.0,85.0
86,25.4791411875,25.87613153125,43.0,85.0
87,25.7569186875,26.134233125,62.0,85.0
88,25.7569186875,26.14002015625,55.0,80.0
89,25.7569186875,26.1550664375,58.0,85.0
90,26.0346961875,26.49418646875,43.0,84.0
91,26.3124736875,26.592566,58.0,88.0
92,26.3124736875,26.6180289375,55.0,85.0
93,26.3124736875,26.62613078125,62.0,85.0
94,26.5902511875,26.90390828125,43.0,86.0
95,26.8680286875,27.19788946875,62.0,87.0
96,26.8680286875,27.208306125,55.0,86.0
97,26.8680286875,27.22103759375,58.0,91.0
98,27.1458061875,27.587935375,43.0,83.0
99,27.4235836875,27.666639,58.0,91.0
100,27.4235836875,27.69325934375,55.0,86.0
101,27.4235836875,27.69557415625,62.0,86.0
102,27.7013611875,28.0717311875,48.0,88.0
103,27.9791386875,28.34835128125,55.0,84.0
104,27.9791386875,28.349508687500002,64.0,85.0
105,27.9791386875,28.35529571875,60.0,84.0
106,28.2569161875,28.6689528125,48.0,87.0
107,28.5346936875,28.73492496875,64.0,87.0
108,28.5346936875,28.76270271875,60.0,86.0
109,28.5346936875,28.7939526875,55.0,85.0
110,28.8124711875,29.11223940625,60.0,84.0
111,28.8124711875,29.1226560625,64.0,85.0
112,28.8124711875,29.124970875,55.0,84.0
113,28.8124711875,29.1296005,48.0,90.0
114,29.9235811875,30.2036735,60.0,84.0
115,29.9235811875,30.20714571875,64.0,85.0
116,29.9235811875,30.211775343750002,55.0,84.0
117,29.9235811875,30.2615438125,48.0,86.0
118,31.0346911875,31.24418171875,64.0,86.0
119,31.0346911875,31.24881134375,55.0,85.0
120,31.0346911875,31.2522835625,60.0,85.0
121,31.0346911875,31.27427428125,48.0,93.0
122,31.5902461875,31.86686628125,60.0,84.0
123,31.5902461875,31.86918109375,64.0,85.0
124,31.5902461875,31.87149590625,55.0,85.0
125,31.5902461875,31.881912562500002,43.0,100.0
126,32.1458011875,32.466402718750004,64.0,86.0
127,32.1458011875,32.47566196875,55.0,85.0
128,32.1458011875,32.47797678125,60.0,85.0
129,32.1458011875,32.4883934375,48.0,101.0
130,32.701356187500004,33.0717261875,55.0,85.0
131,32.701356187500004,33.07519840625,64.0,86.0
132,32.701356187500004,33.097189125,60.0,86.0
133,32.701356187500004,33.1504298125,48.0,95.0
134,33.2569111875,33.629596,41.0,86.0
135,33.5346886875,33.8865401875,57.0,85.0
136,33.5346886875,33.89811425,60.0,85.0
137,33.5346886875,33.906216093750004,53.0,83.0
138,33.8124661875,34.18862321875,41.0,85.0
139,34.0902436875,34.49417846875,57.0,86.0
140,34.0902436875,34.50806734375,60.0,85.0
141,34.0902436875,34.5115395625,53.0,82.0
142,34.3680211875,34.7800578125,41.0,84.0
143,34.6457986875,35.04047421875,57.0,84.0
144,34.6457986875,35.04973346875,60.0,84.0
145,34.6457986875,35.05204828125,53.0,84.0
146,34.923576187500004,35.31593690625,41.0,84.0
147,35.2013536875,35.458297875,53.0,84.0
148,35.2013536875,35.45945528125,57.0,85.0
149,35.2013536875,35.518483,60.0,84.0
150,35.4791311875,35.86223265625,50.0,88.0
151,35.7569086875,36.22102859375,57.0,81.0
152,35.7569086875,36.22797303125,65.0,84.0
153,35.7569086875,36.229130437500004,62.0,85.0
154,36.0346861875,36.4374635625,50.0,95.0
155,36.3124636875,36.7337595625,65.0,86.0
156,36.3124636875,36.74649103125,57.0,83.0
157,36.3124636875,36.74649103125,62.0,86.0
158,36.5902411875,36.9444075,50.0,86.0
159,36.8680186875,37.26732384375,57.0,80.0
160,36.8680186875,37.26963865625,65.0,85.0
161,36.8680186875,37.2939441875,62.0,84.0
162,37.145796187500004,37.58908278125,50.0,89.0
163,37.4235736875,37.75574928125,57.0,81.0
164,37.4235736875,37.7569066875,65.0,80.0
165,37.4235736875,37.7661659375,62.0,81.0
166,37.7013511875,38.13769334375,45.0,84.0
167,37.9791286875,38.4004245625,60.0,83.0
168,37.9791286875,38.417785656250004,57.0,77.0
169,37.9791286875,38.4189430625,64.0,85.0
170,38.2569061875,38.63537803125,45.0,86.0
171,38.5346836875,38.791627875,64.0,86.0
172,38.5346836875,38.810146375,60.0,85.0
173,38.5346836875,38.86454446875,57.0,82.0
174,38.8124611875,39.20713671875,43.0,85.0
175,39.0902386875,39.49070125,55.0,80.0
176,39.0902386875,39.502275312500004,62.0,84.0
177,39.0902386875,39.504590125,58.0,78.0
178,39.368016187500004,39.7893120625,43.0,86.0
179,39.6457936875,39.925886,58.0,85.0
180,39.6457936875,39.9698674375,62.0,85.0
181,39.6457936875,39.97102484375,55.0,83.0
182,39.9235711875,40.3032004375,48.0,90.0
183,40.2013486875,40.597181625,64.0,89.0
184,40.2013486875,40.60528346875,55.0,84.0
185,40.2013486875,40.60528346875,60.0,85.0
186,40.4791261875,40.841394343750004,48.0,87.0
187,40.7569036875,41.1180144375,64.0,91.0
188,40.7569036875,41.134218125000004,60.0,90.0
189,40.7569036875,41.143477375,55.0,87.0
190,41.0346811875,41.39463453125,48.0,88.0
191,41.3124586875,41.70018978125,64.0,88.0
192,41.3124586875,41.71176384375,60.0,88.0
193,41.3124586875,41.72102309375,55.0,85.0
194,41.590236187500004,42.02426353125,48.0,93.0
195,41.8680136875,42.106439375,60.0,88.0
196,41.8680136875,42.1087541875,55.0,85.0
197,41.8680136875,42.11454121875,64.0,91.0
198,42.1457911875,42.4837538125,48.0,95.0
199,42.4235686875,42.84139234375,60.0,86.0
200,42.4235686875,42.84370715625,64.0,88.0
201,42.4235686875,42.84602196875,55.0,85.0
202,42.7013461875,43.0393088125,48.0,93.0
203,42.9791236875,43.3402344375,64.0,88.0
204,42.9791236875,43.347178875,60.0,86.0
205,42.9791236875,43.35065109375,55.0,86.0
206,43.2569011875,43.5994934375,48.0,91.0
207,43.5346786875,43.9073635,64.0,87.0
208,43.5346786875,43.9374560625,60.0,85.0
209,43.5346786875,43.94324309375,55.0,84.0
210,43.812456187500004,44.19440025,48.0,90.0
211,44.0902336875,44.42935371875,64.0,86.0
212,44.0902336875,44.4328259375,60.0,87.0
213,44.0902336875,44.43514075,55.0,84.0
214,44.3680111875,44.7106034375,48.0,93.0
215,44.6457886875,45.03814940625,64.0,89.0
216,44.6457886875,45.041621625,60.0,93.0
217,44.6457886875,45.0439364375,55.0,87.0
218,44.9235661875,45.24416771875,48.0,87.0
219,45.2013436875,45.32750096875,60.0,86.0
220,45.2013436875,45.3309731875,64.0,86.0
221,45.2013436875,45.333288,55.0,85.0
222,45.4791211875,45.583287750000004,60.0,85.0
223,45.4791211875,45.583287750000004,64.0,85.0
224,45.4791211875,45.58444515625,55.0,79.0
225,45.4791211875,45.606435875,48.0,91.0
226,45.7568986875,45.8680096875,60.0,85.0
227,45.7568986875,45.876111531250004,55.0,79.0
228,45.7568986875,45.8772689375,48.0,87.0
229,45.7568986875,45.87958375,64.0,86.0
230,46.034676187500004,46.143472375,60.0,85.0
231,46.034676187500004,46.148102,55.0,80.0
232,46.034676187500004,46.1504168125,64.0,87.0
233,46.034676187500004,46.15388903125,48.0,89.0
234,46.3124536875,46.421249875,60.0,86.0
235,46.3124536875,46.428194312500004,55.0,82.0
236,46.3124536875,46.44092578125,64.0,88.0
237,46.3124536875,46.4420831875,48.0,91.0
238,46.5902311875,47.1735639375,60.0,85.0
239,46.5902311875,47.17587875,64.0,86.0
240,46.5902311875,47.1781935625,55.0,83.0
241,46.5902311875,47.1874528125,48.0,89.0
242,47.4235636875,47.49879509375,55.0,74.0
243,47.4235636875,47.4999525,60.0,85.0
244,47.4235636875,47.4999525,64.0,84.0
245,47.4235636875,47.5068969375,48.0,80.0
246,47.5624524375,47.6272671875,60.0,85.0
247,47.5624524375,47.63536903125,48.0,85.0
248,47.5624524375,47.6411560625,55.0,77.0
249,47.5624524375,47.65157271875,64.0,86.0
250,47.7013411875,47.87842434375,48.0,91.0
251,47.7013411875,47.91777615625,60.0,87.0
252,47.7013411875,47.92240578125,55.0,81.0
253,47.7013411875,47.92935021875,64.0,85.0
254,48.5346736875,48.62032175,55.0,76.0
255,48.5346736875,48.62032175,60.0,80.0
256,48.5346736875,48.62032175,64.0,83.0
257,48.5346736875,48.64231246875,48.0,84.0
258,48.6735624375,48.8818955625,48.0,88.0
259,48.6735624375,48.90620109375,55.0,84.0
260,48.6735624375,48.9073585,60.0,81.0
261,48.6735624375,48.914302937500004,64.0,86.0
262,49.3680061875,49.606431875,55.0,82.0
263,49.3680061875,49.63536703125,67.0,78.0
264,49.3680061875,49.64925590625,43.0,85.0
265,49.9235611875,50.17587575,45.0,84.0
266,49.9235611875,50.1874498125,57.0,83.0
267,49.9235611875,50.20481090625,69.0,84.0
268,50.4791161875,50.75342146875,72.0,86.0
269,50.4791161875,50.76036590625,60.0,85.0
270,50.4791161875,50.76846775,48.0,84.0
271,51.0346711875,51.39230971875,48.0,76.0
272,51.0346711875,51.39925415625,36.0,77.0
273,51.3124486875,51.68166128125,64.0,85.0
274,51.3124486875,51.6851335,60.0,80.0
275,51.3124486875,51.69555015625,55.0,83.0
276,51.5902261875,51.928188812500004,48.0,82.0
277,51.5902261875,51.930503625,36.0,78.0
278,51.8680036875,52.0161516875,60.0,80.0
279,51.8680036875,52.0207813125,55.0,84.0
280,51.8680036875,52.0346701875,64.0,85.0
281,52.1457811875,52.4999475,48.0,75.0
282,52.1457811875,52.51036415625,36.0,73.0
283,52.4235586875,52.7892990625,64.0,85.0
284,52.4235586875,52.7985583125,60.0,84.0
285,52.4235586875,52.8078175625,55.0,85.0
286,52.7013361875,53.060132125,36.0,77.0
287,52.7013361875,53.08675246875,48.0,81.0
288,52.9791136875,53.12841909375,55.0,86.0
289,52.9791136875,53.134206125,60.0,86.0
290,52.9791136875,53.13883575,64.0,87.0
291,53.2568911875,53.66314078125,41.0,86.0
292,53.5346686875,53.824020250000004,57.0,84.0
293,53.5346686875,53.828649875,53.0,84.0
294,53.5346686875,53.84253875,60.0,85.0
295,53.8124461875,54.1735569375,41.0,85.0
296,54.0902236875,54.296242,57.0,84.0
297,54.0902236875,54.3147605,53.0,84.0
298,54.0902236875,54.32054753125,60.0,85.0
299,54.3680011875,54.73721378125,41.0,83.0
300,54.6457786875,54.98258390625,57.0,87.0
301,54.6457786875,54.98489871875,60.0,87.0
302,54.6457786875,54.995315375000004,53.0,86.0
303,54.9235561875,55.3448520625,41.0,84.0
304,55.201333687500004,55.42471309375,57.0,85.0
305,55.201333687500004,55.43628715625,53.0,81.0
306,55.201333687500004,55.45712046875,60.0,81.0
307,55.4791111875,55.83674971875,48.0,87.0
308,55.7568886875,56.0531846875,64.0,85.0
309,55.7568886875,56.06591615625,55.0,79.0
310,55.7568886875,56.06823096875,60.0,85.0
311,56.0346661875,56.33211959375,48.0,84.0
312,56.3124436875,56.49415646875,60.0,86.0
313,56.3124436875,56.502258312500004,55.0,84.0
314,56.3124436875,56.52772125,64.0,86.0
315,56.5902211875,56.9443875,48.0,79.0
316,56.8679986875,57.2337390625,64.0,87.0
317,56.8679986875,57.24184090625,55.0,86.0
318,56.8679986875,57.24184090625,60.0,87.0
319,57.1457761875,57.5670720625,48.0,85.0
320,57.423553687500004,57.58906278125,60.0,86.0
321,57.423553687500004,57.68397009375,55.0,84.0
322,57.423553687500004,57.9073495,64.0,87.0
323,57.7013311875,58.0392938125,41.0,84.0
324,57.9791086875,58.38767309375,57.0,80.0
325,57.9791086875,58.3888305,60.0,85.0
326,57.9791086875,58.3957749375,53.0,80.0
327,58.2568861875,58.63998765625,41.0,85.0
328,58.5346636875,58.740682,57.0,78.0
329,58.5346636875,58.74878384375,53.0,80.0
330,58.5346636875,58.75109865625,60.0,82.0
331,58.8124411875,59.208274125,41.0,77.0
332,59.0902186875,59.51035715625,53.0,84.0
333,59.0902186875,59.511514562500004,57.0,84.0
334,59.0902186875,59.51267196875,60.0,86.0
335,59.3679961875,59.770773562500004,41.0,80.0
336,59.645773687500004,59.85526421875,53.0,82.0
337,59.645773687500004,59.88998640625,60.0,85.0
338,59.645773687500004,59.89693084375,57.0,84.0
339,59.9235511875,60.3355878125,48.0,82.0
340,60.2013286875,60.63072640625,64.0,85.0
341,60.2013286875,60.63535603125,55.0,78.0
342,60.2013286875,60.6457726875,60.0,80.0
343,60.4791061875,60.9420686875,43.0,82.0
344,60.7568836875,61.1596610625,64.0,87.0
345,60.7568836875,61.171235125,55.0,86.0
346,60.7568836875,61.1781795625,60.0,87.0
347,61.0346611875,61.4466978125,48.0,84.0
348,61.3124386875,61.6781790625,64.0,86.0
349,61.3124386875,61.71290125,55.0,83.0
350,61.3124386875,61.71868828125,60.0,85.0
351,61.5902161875,61.976789875,48.0,83.0
352,61.867993687500004,62.0925305,64.0,77.0
353,61.867993687500004,62.13535453125,60.0,86.0
354,61.867993687500004,62.156187843750004,55.0,84.0
355,62.1457711875,62.516141187500004,41.0,84.0
356,62.4235486875,62.76961315625,60.0,77.0
357,62.4235486875,62.80549275,57.0,73.0
358,62.4235486875,62.80665015625,53.0,78.0
359,62.7013261875,63.060122125,41.0,85.0
360,62.9791036875,63.347158875,60.0,86.0
361,62.9791036875,63.370307000000004,57.0,84.0
362,62.9791036875,63.384195875,53.0,81.0
363,63.2568811875,63.57979753125,41.0,89.0
364,63.5346586875,63.85294540625,60.0,85.0
365,63.5346586875,63.8541028125,57.0,84.0
366,63.5346586875,63.86104725,53.0,84.0
367,63.8124361875,64.134195125,41.0,85.0
368,64.0902136875,64.2939171875,53.0,84.0
369,64.0902136875,64.3263245625,57.0,84.0
370,64.0902136875,64.33905603125,60.0,84.0
371,64.3679911875,64.73488896875,50.0,85.0
372,64.6457686875,65.0068794375,57.0,83.0
373,64.6457686875,65.01266646875,65.0,82.0
374,64.6457686875,65.023083125,62.0,86.0
375,64.9235461875,65.28812915625,50.0,74.0
376,65.20132368750001,65.53812890625,57.0,80.0
377,65.20132368750001,65.5485455625,62.0,85.0
378,65.20132368750001,65.54970296875,65.0,84.0
379,65.4791011875,65.8309526875,50.0,84.0
380,65.7568786875,66.12609128125,57.0,82.0
381,65.7568786875,66.1295635,62.0,85.0
382,65.7568786875,66.16081346875,65.0,84.0
383,66.0346561875,66.36104475,50.0,86.0
384,66.3124336875,66.55433159375,62.0,84.0
385,66.3124336875,66.60525746875,65.0,84.0
386,66.3124336875,66.6087296875,57.0,85.0
387,66.5902111875,66.98257190625,43.0,84.0
388,66.8679886875,67.25340496875,62.0,84.0
389,66.8679886875,67.2661364375,55.0,83.0
390,66.8679886875,67.2707660625,58.0,84.0
391,67.1457661875,67.49414546875,43.0,76.0
392,67.4235436875,67.6642841875,58.0,86.0
393,67.4235436875,67.69090453125,55.0,84.0
394,67.4235436875,67.76845075,62.0,85.0
395,67.7013211875,68.074006,41.0,81.0
396,67.9790986875,68.3679871875,53.0,85.0
397,67.9790986875,68.374931625,57.0,85.0
398,67.9790986875,68.39460753125,60.0,85.0
399,68.2568761875,68.671227625,41.0,84.0
400,68.5346536875,68.8170608125,57.0,85.0
401,68.5346536875,68.8309496875,53.0,84.0
402,68.5346536875,68.83905153125,60.0,89.0
403,68.8124311875,69.20247709375,48.0,89.0
404,69.0902086875,69.4999305,55.0,84.0
405,69.0902086875,69.518449,64.0,85.0
406,69.0902086875,69.52076381250001,60.0,90.0
407,69.3679861875,69.74993025,48.0,83.0
408,69.64576368750001,70.04854106250001,55.0,84.0
409,69.64576368750001,70.050855875,60.0,83.0
410,69.64576368750001,70.0554855,64.0,86.0
411,69.9235411875,70.30895746875,48.0,83.0
412,70.2013186875,70.36682778125,60.0,84.0
413,70.2013186875,70.3679851875,55.0,81.0
414,70.2013186875,70.37377221875,64.0,86.0
415,70.4790961875,70.999929,60.0,91.0
416,70.4790961875,71.00340121875,55.0,85.0
417,70.4790961875,71.01729009375,64.0,91.0
418,70.4790961875,71.0207623125,48.0,91.0
419,71.0346511875,71.44090078125001,41.0,86.0
420,71.3124286875,71.60178025,57.0,84.0
421,71.3124286875,71.606409875,53.0,84.0
422,71.3124286875,71.62029875,60.0,85.0
423,71.5902061875,71.9513169375,41.0,85.0
424,71.8679836875,72.07400200000001,57.0,84.0
425,71.8679836875,72.0925205,53.0,84.0
426,71.8679836875,72.09830753125,60.0,85.0
427,72.1457611875,72.51497378125,41.0,83.0
428,72.4235386875,72.76034390625,57.0,87.0
429,72.4235386875,72.76265871875,60.0,87.0
430,72.4235386875,72.773075375,53.0,86.0
431,72.7013161875,73.1226120625,41.0,84.0
432,72.9790936875,73.20247309375,57.0,85.0
433,72.9790936875,73.21404715625,53.0,81.0
434,72.9790936875,73.23488046875,60.0,81.0
435,73.2568711875,73.61450971875,48.0,87.0
436,73.5346486875,73.83094468750001,64.0,85.0
437,73.5346486875,73.84367615625,55.0,79.0
438,73.5346486875,73.84599096875,60.0,85.0
439,73.8124261875,74.10987959375,48.0,84.0
440,74.09020368750001,74.27191646875,60.0,86.0
441,74.09020368750001,74.2800183125,55.0,84.0
442,74.09020368750001,74.30548125,64.0,86.0
443,74.3679811875,74.7221475,48.0,79.0
444,74.6457586875,75.01149906250001,64.0,87.0
445,74.6457586875,75.01960090625,55.0,86.0
446,74.6457586875,75.01960090625,60.0,87.0
447,74.9235361875,75.3448320625,48.0,85.0
448,75.2013136875,75.36682278125001,60.0,86.0
449,75.2013136875,75.46173009375,55.0,84.0
450,75.2013136875,75.6851095,64.0,87.0
451,75.4790911875,75.8170538125,41.0,84.0
452,75.7568686875,76.16543309375,57.0,80.0
453,75.7568686875,76.1665905,60.0,85.0
454,75.7568686875,76.1735349375,53.0,80.0
455,76.0346461875,76.41774765625,41.0,85.0
456,76.3124236875,76.51844200000001,57.0,78.0
457,76.3124236875,76.52654384375,53.0,80.0
458,76.3124236875,76.52885865625,60.0,82.0
459,76.5902011875,76.986034125,41.0,77.0
460,76.8679786875,77.28811715625,53.0,84.0
461,76.8679786875,77.2892745625,57.0,84.0
462,76.8679786875,77.29043196875,60.0,86.0
463,77.1457561875,77.5485335625,41.0,80.0
464,77.4235336875,77.63302421875,53.0,82.0
465,77.4235336875,77.66774640625,60.0,85.0
466,77.4235336875,77.67469084375,57.0,84.0
467,77.7013111875,78.1133478125,48.0,82.0
468,77.9790886875,78.40848640625,64.0,85.0
469,77.9790886875,78.41311603125,55.0,78.0
470,77.9790886875,78.4235326875,60.0,80.0
471,78.2568661875,78.7198286875,43.0,82.0
472,78.53464368750001,78.93742106250001,64.0,87.0
473,78.53464368750001,78.948995125,55.0,86.0
474,78.53464368750001,78.9559395625,60.0,87.0
475,78.81242118750001,79.2244578125,48.0,84.0
476,79.0901986875,79.45593906250001,64.0,86.0
477,79.0901986875,79.49066125,55.0,83.0
478,79.0901986875,79.49644828125,60.0,85.0
479,79.3679761875,79.754549875,48.0,83.0
480,79.6457536875,79.8702905,64.0,77.0
481,79.6457536875,79.91311453125,60.0,86.0
482,79.6457536875,79.93394784375,55.0,84.0
483,79.9235311875,80.2939011875,41.0,84.0
484,80.2013086875,80.54737315625,60.0,77.0
485,80.2013086875,80.58325275,57.0,73.0
486,80.2013086875,80.58441015625,53.0,78.0
487,80.4790861875,80.83788212500001,41.0,85.0
488,80.7568636875,81.124918875,60.0,86.0
489,80.7568636875,81.148067,57.0,84.0
490,80.7568636875,81.161955875,53.0,81.0
491,81.0346411875,81.35755753125,41.0,89.0
492,81.3124186875,81.63070540625,60.0,85.0
493,81.3124186875,81.6318628125,57.0,84.0
494,81.3124186875,81.63880725,53.0,84.0
495,81.5901961875,81.911955125,41.0,85.0
496,81.8679736875,82.0716771875,53.0,84.0
497,81.8679736875,82.1040845625,57.0,84.0
498,81.8679736875,82.11681603125,60.0,84.0
499,82.1457511875,82.51264896875,50.0,85.0
500,82.4235286875,82.7846394375,57.0,83.0
501,82.4235286875,82.79042646875,65.0,82.0
502,82.4235286875,82.800843125,62.0,86.0
503,82.7013061875,83.06588915625,50.0,74.0
504,82.9790836875,83.31588890625,57.0,80.0
505,82.9790836875,83.3263055625,62.0,85.0
506,82.9790836875,83.32746296875,65.0,84.0
507,83.25686118750001,83.6087126875,50.0,84.0
508,83.5346386875,83.90385128125,57.0,82.0
509,83.5346386875,83.9073235,62.0,85.0
510,83.5346386875,83.93857346875001,65.0,84.0
511,83.8124161875,84.13880475,50.0,86.0
512,84.0901936875,84.33209159375001,62.0,84.0
513,84.0901936875,84.38301746875,65.0,84.0
514,84.0901936875,84.3864896875,57.0,85.0
515,84.3679711875,84.76033190625,43.0,84.0
516,84.6457486875,85.03116496875,62.0,84.0
517,84.6457486875,85.0438964375,55.0,83.0
518,84.6457486875,85.0485260625,58.0,84.0
519,84.9235261875,85.27190546875,43.0,76.0
520,85.2013036875,85.4420441875,58.0,86.0
521,85.2013036875,85.46866453125,55.0,84.0
522,85.2013036875,85.54621075,62.0,85.0
523,85.4790811875,85.8772289375,41.0,85.0
524,85.7568586875,86.04621025,57.0,84.0
525,85.7568586875,86.05894171875,60.0,85.0
526,85.7568586875,86.0763028125,53.0,82.0
527,86.0346361875,86.41079321875,36.0,86.0
528,86.3124136875,86.5948208125,48.0,84.0
529,86.3124136875,86.60986709375,52.0,84.0
530,86.3124136875,86.624913375,55.0,85.0
531,86.5901911875,86.97213525000001,41.0,86.0
532,86.8679686875,87.30894046875,53.0,84.0
533,86.8679686875,87.31125528125,57.0,85.0
534,86.8679686875,87.31819971875,60.0,87.0
535,87.1457461875,87.56704206250001,41.0,84.0
536,87.4235236875,87.86449546875001,53.0,80.0
537,87.4235236875,87.8702825,57.0,83.0
538,87.4235236875,87.874912125,60.0,86.0
539,87.70130118750001,88.1688933125,41.0,84.0
540,87.9790786875,88.439726375,57.0,81.0
541,87.9790786875,88.4420411875,53.0,83.0
542,87.9790786875,88.4420411875,60.0,85.0
543,88.2568561875,88.6642631875,41.0,86.0
544,88.5346336875,88.73023534375,53.0,85.0
545,88.5346336875,88.73486496875,57.0,88.0
546,88.5346336875,88.73717978125,60.0,86.0
547,88.8124111875,89.180466375,50.0,95.0
548,89.0901886875,89.49875309375,62.0,85.0
549,89.0901886875,89.51032715625,57.0,84.0
550,89.0901886875,89.51032715625,65.0,86.0
551,89.3679661875,89.7151880625,50.0,93.0
552,89.6457436875,90.023058125,62.0,89.0
553,89.6457436875,90.02768775,65.0,85.0
554,89.6457436875,90.032317375,57.0,83.0
555,89.9235211875,90.31356709375,50.0,88.0
556,90.2012986875,90.40615959375,62.0,89.0
557,90.2012986875,90.44782621875,57.0,85.0
558,90.2012986875,90.45477065625,65.0,86.0
559,90.4790761875,90.84828878125,48.0,87.0
560,90.7568536875,91.0554645,55.0,86.0
561,90.7568536875,91.06356634375,60.0,88.0
562,90.7568536875,91.0716681875,64.0,90.0
563,91.0346311875,91.38532528125,50.0,93.0
564,91.3124086875,91.73486196875,65.0,86.0
565,91.3124086875,91.7383341875,62.0,85.0
566,91.3124086875,91.74180640625,57.0,84.0
567,91.5901861875,91.97560246875,50.0,93.0
568,91.8679636875,92.10754678125001,65.0,86.0
569,91.8679636875,92.12606528125,62.0,88.0
570,91.8679636875,92.15615784375,57.0,85.0
571,92.14574118750001,92.49875009375,48.0,91.0
572,92.4235186875,92.847129375,64.0,90.0
573,92.4235186875,92.8540738125,60.0,88.0
574,92.4235186875,92.86217565625,55.0,86.0
575,92.7012961875,93.12837909375,48.0,93.0
576,92.9790736875,93.19550865625,55.0,86.0
577,92.9790736875,93.2105549375,64.0,90.0
578,92.9790736875,93.217499375,60.0,87.0
579,93.2568511875,93.6040730625,50.0,91.0
580,93.5346286875,93.9512949375,57.0,84.0
581,93.5346286875,93.958239375,62.0,86.0
582,93.5346286875,93.958239375,65.0,84.0
583,93.8124061875,94.1665725,50.0,91.0
584,94.0901836875,94.476757375,65.0,87.0
585,94.0901836875,94.48022959375,57.0,86.0
586,94.0901836875,94.48022959375,62.0,90.0
587,94.3679611875,94.7151830625,50.0,89.0
588,94.6457386875,95.02884015625,62.0,87.0
589,94.6457386875,95.03115496875,65.0,87.0
590,94.6457386875,95.03578459375,57.0,85.0
591,94.9235161875,95.291571375,50.0,89.0
592,95.2012936875,95.45708046875001,65.0,85.0
593,95.2012936875,95.46865453125,62.0,86.0
594,95.2012936875,95.513793375,57.0,84.0
595,95.4790711875,95.87606153125,43.0,86.0
596,95.7568486875,96.1596260625,55.0,85.0
597,95.7568486875,96.189718625,58.0,88.0
598,95.7568486875,96.189718625,62.0,87.0
599,96.0346261875,96.4628665,43.0,84.0
600,96.3124036875,96.58670896875,58.0,88.0
601,96.3124036875,96.59596821875,55.0,85.0
602,96.3124036875,96.61680153125,62.0,86.0
603,96.59018118750001,96.99064375,48.0,88.0
604,96.8679586875,97.26726384375,64.0,88.0
605,96.8679586875,97.2753656875,55.0,81.0
606,96.8679586875,97.27652309375,60.0,85.0
607,97.1457361875,97.65152271875,48.0,87.0
608,97.4235136875,97.65615234375,55.0,88.0
609,97.4235136875,97.65846715625,60.0,91.0
610,97.4235136875,97.67582825,64.0,93.0
611,97.7012911875,98.069346375,50.0,95.0
612,97.9790686875,98.38763309375,62.0,85.0
613,97.9790686875,98.39920715625,57.0,84.0
614,97.9790686875,98.39920715625,65.0,86.0
615,98.2568461875,98.6040680625,50.0,93.0
616,98.5346236875,98.911938125,62.0,89.0
617,98.5346236875,98.91656775,65.0,85.0
618,98.5346236875,98.921197375,57.0,83.0
619,98.8124011875,99.20244709375,50.0,88.0
620,99.0901786875,99.29503959375,62.0,89.0
621,99.0901786875,99.33670621875,57.0,85.0
622,99.0901786875,99.34365065625,65.0,86.0
623,99.3679561875,99.73716878125,48.0,87.0
624,99.6457336875,99.9443445,55.0,86.0
625,99.6457336875,99.95244634375,60.0,88.0
626,99.6457336875,99.9605481875,64.0,90.0
627,99.9235111875,100.27420528125,50.0,93.0
628,100.2012886875,100.62374196875,65.0,86.0
629,100.2012886875,100.6272141875,62.0,85.0
630,100.2012886875,100.63068640625,57.0,84.0
631,100.4790661875,100.86448246875,50.0,93.0
632,100.7568436875,100.99642678125001,65.0,86.0
633,100.7568436875,101.01494528125001,62.0,88.0
634,100.7568436875,101.04503784375,57.0,85.0
635,101.03462118750001,101.38763009375,48.0,91.0
636,101.3123986875,101.736009375,64.0,90.0
637,101.3123986875,101.7429538125,60.0,88.0
638,101.3123986875,101.75105565625,55.0,86.0
639,101.5901761875,102.01725909375,48.0,93.0
640,101.8679536875,102.08438865625,55.0,86.0
641,101.8679536875,102.0994349375,64.0,90.0
642,101.8679536875,102.106379375,60.0,87.0
643,102.1457311875,102.4929530625,50.0,91.0
644,102.4235086875,102.8401749375,57.0,84.0
645,102.4235086875,102.847119375,62.0,86.0
646,102.4235086875,102.847119375,65.0,84.0
647,102.7012861875,103.0554525,50.0,91.0
648,102.9790636875,103.365637375,65.0,87.0
649,102.9790636875,103.36910959375,57.0,86.0
650,102.9790636875,103.36910959375,62.0,90.0
651,103.2568411875,103.6040630625,50.0,89.0
652,103.5346186875,103.91772015625,62.0,87.0
653,103.5346186875,103.92003496875,65.0,87.0
654,103.5346186875,103.92466459375,57.0,85.0
655,103.8123961875,104.180451375,50.0,89.0
656,104.0901736875,104.34596046875001,65.0,85.0
657,104.0901736875,104.35753453125,62.0,86.0
658,104.0901736875,104.402673375,57.0,84.0
659,104.3679511875,104.76494153125,43.0,86.0
660,104.6457286875,105.0485060625,55.0,85.0
661,104.6457286875,105.078598625,58.0,88.0
662,104.6457286875,105.078598625,62.0,87.0
663,104.9235061875,105.3517465,43.0,84.0
664,105.2012836875,105.47558896875,58.0,88.0
665,105.2012836875,105.48484821875,55.0,85.0
666,105.2012836875,105.50568153125,62.0,86.0
667,105.47906118750001,105.87952375,48.0,88.0
668,105.75683868750001,106.15614384375,64.0,88.0
669,105.75683868750001,106.1642456875,55.0,81.0
670,105.75683868750001,106.16540309375,60.0,85.0
671,106.0346161875,106.54040271875,48.0,87.0
672,106.3123936875,106.54503234375,55.0,88.0
673,106.3123936875,106.54734715625,60.0,91.0
674,106.3123936875,106.56470825,64.0,93.0
675,106.5901711875,106.97211525,48.0,86.0
676,106.8679486875,107.2776705,64.0,87.0
677,106.8679486875,107.29966121875,60.0,85.0
678,106.8679486875,107.3077630625,55.0,85.0
679,107.1457261875,107.52419803125,48.0,87.0
680,107.4235036875,107.6549849375,64.0,86.0
681,107.4235036875,107.703596,60.0,86.0
682,107.4235036875,107.74989225,55.0,86.0
683,107.7012811875,108.07743821875,41.0,86.0
684,107.9790586875,108.41540084375,60.0,86.0
685,107.9790586875,108.42697490625,53.0,85.0
686,107.9790586875,108.430447125,57.0,84.0
687,108.2568361875,108.65729875,41.0,85.0
688,108.5346136875,108.7846134375,53.0,87.0
689,108.5346136875,108.7985023125,57.0,86.0
690,108.5346136875,108.8123911875,60.0,89.0
691,108.8123911875,109.217483375,48.0,91.0
692,109.0901686875,109.504520125,55.0,79.0
693,109.0901686875,109.5253534375,60.0,82.0
694,109.0901686875,109.541557125,64.0,82.0
695,109.3679461875,109.77188096875,48.0,87.0
696,109.6457236875,109.92928821875,55.0,85.0
697,109.6457236875,109.95706596875,64.0,85.0
698,109.6457236875,109.967482625,60.0,85.0
699,109.92350118750001,110.29965821875,41.0,84.0
700,110.20127868750001,110.62604678125,60.0,85.0
701,110.20127868750001,110.629519,57.0,80.0
702,110.20127868750001,110.63067640625,65.0,84.0
703,110.4790561875,110.8262780625,41.0,84.0
704,110.7568336875,111.004518625,60.0,85.0
705,110.7568336875,111.032296375,57.0,78.0
706,110.7568336875,111.032296375,65.0,84.0
707,111.0346111875,111.37141640625,50.0,86.0
708,111.3123886875,111.74178640625,62.0,84.0
709,111.3123886875,111.7475734375,57.0,80.0
710,111.3123886875,111.74873084375,65.0,84.0
711,111.5901661875,111.96748062500001,50.0,86.0
712,111.8679436875,112.134147125,65.0,85.0
713,111.8679436875,112.15729525,62.0,86.0
714,111.8679436875,112.17928596875001,57.0,83.0
715,112.1457211875,112.48947084375,48.0,90.0
716,112.4234986875,112.7846094375,64.0,85.0
717,112.4234986875,112.7984983125,55.0,79.0
718,112.4234986875,112.800813125,60.0,84.0
719,112.7012761875,113.14456278125,48.0,88.0
720,112.9790536875,113.2105349375,55.0,84.0
721,112.9790536875,113.21516456250001,64.0,86.0
722,112.9790536875,113.2244238125,60.0,85.0
723,113.2568311875,113.624886375,48.0,88.0
724,113.5346086875,113.921182375,64.0,85.0
725,113.5346086875,113.9373860625,55.0,84.0
726,113.5346086875,113.94317309375,60.0,82.0
727,113.8123861875,114.29270978125,48.0,87.0
728,114.0901636875,114.33206159375,55.0,85.0
729,114.0901636875,114.337848625,60.0,85.0
730,114.0901636875,114.3401634375,64.0,85.0
731,114.36794118750001,114.69432975000001,48.0,93.0
732,114.64571868750001,115.01030165625001,55.0,85.0
733,114.64571868750001,115.01261646875,60.0,85.0
734,114.64571868750001,115.01493128125,64.0,84.0
735,114.9234961875,115.3679401875,48.0,89.0
736,115.2012736875,115.48946784375,55.0,86.0
737,115.2012736875,115.4975696875,60.0,86.0
738,115.2012736875,115.4975696875,64.0,88.0
739,115.4790511875,115.851736,48.0,86.0
740,115.7568286875,116.1295135,64.0,88.0
741,115.7568286875,116.1318283125,60.0,84.0
742,115.7568286875,116.14455978125,55.0,84.0
743,116.0346061875,116.439698375,48.0,88.0
744,116.3123836875,116.740624,60.0,86.0
745,116.3123836875,116.74409621875,64.0,87.0
746,116.3123836875,116.74988325,55.0,85.0
747,116.5901611875,116.96863303125001,48.0,85.0
748,116.8679386875,117.2244198125,64.0,91.0
749,116.8679386875,117.235993875,60.0,88.0
750,116.8679386875,117.24409571875,55.0,85.0
751,117.1457161875,117.51608618750001,48.0,91.0
752,117.4234936875,117.6920119375,64.0,86.0
753,117.4234936875,117.70937303125,60.0,86.0
754,117.4234936875,117.75335446875,55.0,81.0
755,117.7012711875,118.10983559375,41.0,87.0
756,117.9790486875,118.4049741875,60.0,85.0
757,117.9790486875,118.41654825,57.0,86.0
758,117.9790486875,118.42812231250001,53.0,82.0
759,118.2568261875,118.65728875,41.0,85.0
760,118.5346036875,118.89687184375,57.0,86.0
761,118.5346036875,118.90150146875,60.0,89.0
762,118.5346036875,118.9188625625,53.0,84.0
763,118.8123811875,119.20011228125,41.0,85.0
764,119.09015868750001,119.50566753125,60.0,86.0
765,119.09015868750001,119.50798234375,57.0,87.0
766,119.09015868750001,119.51955640625,53.0,85.0
767,119.3679361875,119.82974128125001,41.0,85.0
768,119.6457136875,119.9072875,53.0,84.0
769,119.6457136875,119.91307453125,57.0,84.0
770,119.6457136875,119.92580600000001,60.0,85.0
771,119.9234911875,120.35057409375,41.0,88.0
772,120.2012686875,120.65497193750001,57.0,86.0
773,120.2012686875,120.65612934375,60.0,86.0
774,120.2012686875,120.65844415625,53.0,82.0
775,120.4790461875,120.88761059375,41.0,84.0
776,120.7568236875,121.04964746875,60.0,85.0
777,120.7568236875,121.069323375,57.0,84.0
778,120.7568236875,121.08321225,53.0,81.0
779,121.0346011875,121.41770265625,41.0,85.0
780,121.3123786875,121.439693375,57.0,84.0
781,121.3123786875,121.45705446875,53.0,84.0
782,121.3123786875,121.4697859375,60.0,88.0
783,121.5901561875,122.03112796875,41.0,84.0
784,121.8679336875,122.28112771875,60.0,86.0
785,121.8679336875,122.2984888125,57.0,83.0
786,121.8679336875,122.30543325000001,53.0,79.0
787,122.1457111875,122.5369145,41.0,85.0
788,122.4234886875,122.75103465625,60.0,84.0
789,122.4234886875,122.763766125,57.0,84.0
790,122.4234886875,122.7707105625,53.0,84.0
791,122.7012661875,123.069321375,41.0,85.0
792,122.9790436875,123.3262655625,60.0,85.0
793,122.9790436875,123.3401544375,53.0,85.0
794,122.9790436875,123.3401544375,57.0,85.0
795,123.53459868750001,123.6734874375,57.0,90.0
796,123.53459868750001,123.68621890625,53.0,86.0
797,123.53459868750001,123.7012651875,60.0,89.0
798,123.2568211875,123.71746887500001,41.0,84.0
799,123.8123761875,124.28807015625,41.0,85.0
800,124.0901536875,124.36908859375,53.0,84.0
801,124.0901536875,124.3818200625,57.0,86.0
802,124.0901536875,124.3957089375,60.0,86.0
803,124.3679311875,124.754504875,41.0,88.0
804,124.6457086875,125.02186571875,57.0,85.0
805,124.6457086875,125.02765275,60.0,86.0
806,124.6457086875,125.02881015625,53.0,84.0
807,124.9234861875,125.32510615625,41.0,86.0
808,125.2012636875,125.45473565625001,53.0,87.0
809,125.2012636875,125.458207875,57.0,85.0
810,125.2012636875,125.4744115625,60.0,89.0
811,125.4790411875,125.86908709375,48.0,88.0
812,125.7568186875,126.19547565625,60.0,86.0
813,125.7568186875,126.198947875,64.0,87.0
814,125.7568186875,126.2012626875,55.0,86.0
815,126.0345961875,126.41075321875,48.0,93.0
816,126.3123736875,126.518392,64.0,85.0
817,126.3123736875,126.53575309375,60.0,86.0
818,126.3123736875,126.5531141875,55.0,84.0
819,126.5901511875,126.92695640625,43.0,85.0
820,126.8679286875,127.21167834375,62.0,85.0
821,126.8679286875,127.21630796875,55.0,84.0
822,126.8679286875,127.217465375,58.0,85.0
823,127.1457061875,127.513761375,43.0,85.0
824,127.4234836875,127.67579825,62.0,85.0
825,127.4234836875,127.6873723125,58.0,85.0
826,127.4234836875,127.69547415625,55.0,84.0
827,127.7012611875,128.124871875,43.0,80.0
828,127.97903868750001,128.2892235625,62.0,85.0
829,127.97903868750001,128.300797625,55.0,85.0
830,127.97903868750001,128.3077420625,58.0,87.0
831,128.2568161875,128.6109825,43.0,85.0
832,128.5345936875,128.74408421875,55.0,80.0
833,128.5345936875,128.77070456250001,58.0,82.0
834,128.5345936875,128.78690825,62.0,85.0
835,128.8123711875,129.14454678125,46.0,89.0
836,129.0901486875,129.48945384375,62.0,84.0
837,129.0901486875,129.49408346875,58.0,84.0
838,129.3679261875,129.7568146875,46.0,85.0
839,129.6457036875,129.9095923125,58.0,86.0
840,129.6457036875,129.921166375,62.0,86.0
841,129.6457036875,129.948944125,65.0,83.0
842,129.9234811875,130.25102715625,46.0,84.0
843,130.2012586875,130.5484805625,58.0,88.0
844,130.2012586875,130.56121203125,62.0,88.0
845,130.2012586875,130.57278609375,65.0,85.0
846,130.47903618750001,130.8169988125,46.0,89.0
847,130.7568136875,130.9234801875,58.0,85.0
848,130.7568136875,130.9605171875,65.0,84.0
849,130.7568136875,130.98019309375,62.0,85.0
850,131.0345911875,131.3632945625,48.0,85.0
851,131.3123686875,131.66074796875,60.0,85.0
852,131.3123686875,131.66074796875,64.0,87.0
853,131.3123686875,131.67926646875,55.0,82.0
854,131.5901461875,131.921164375,48.0,86.0
855,131.8679236875,132.10982159375,55.0,84.0
856,131.8679236875,132.1132938125,60.0,85.0
857,131.8679236875,132.115608625,64.0,86.0
858,132.1457011875,132.52880265625,48.0,80.0
859,132.4234786875,132.84130234375002,55.0,86.0
860,132.4234786875,132.85982084375001,60.0,84.0
861,132.4234786875,132.87139490625,64.0,85.0
862,132.9790336875,133.19431125,55.0,87.0
863,132.9790336875,133.19546865625,64.0,91.0
864,132.9790336875,133.208200125,60.0,88.0
865,132.7012561875,133.22324640625,48.0,87.0
866,133.2568111875,133.65727375,41.0,86.0
867,133.5345886875,133.93620865625,57.0,85.0
868,133.5345886875,133.948940125,53.0,83.0
869,133.5345886875,133.9605141875,60.0,85.0
870,133.8123661875,134.189680625,41.0,85.0
871,134.0901436875,134.31931012500002,57.0,84.0
872,134.0901436875,134.32509715625,53.0,82.0
873,134.0901436875,134.34361565625,60.0,85.0
874,134.3679211875,134.80889296875,50.0,77.0
875,134.64569868750002,134.99639278125,62.0,86.0
876,134.64569868750002,135.0068094375,57.0,85.0
877,134.64569868750002,135.04037421875,65.0,86.0
878,134.9234761875,135.30426284375,50.0,88.0
879,135.2012536875,135.45356825,65.0,84.0
880,135.2012536875,135.45704046875,62.0,85.0
881,135.2012536875,135.47555896875,57.0,85.0
882,135.4790311875,135.85287340625,48.0,85.0
883,135.7568086875,136.1410675625,64.0,86.0
884,135.7568086875,136.152641625,60.0,84.0
885,135.7568086875,136.16190087500001,55.0,78.0
886,136.0345861875,136.495233875,48.0,88.0
887,136.3123636875,136.62254856250001,64.0,86.0
888,136.3123636875,136.63065040625,60.0,85.0
889,136.3123636875,136.63296521875,55.0,83.0
890,136.5901411875,136.9836593125,41.0,87.0
891,136.8679186875,137.28805715625,57.0,85.0
892,136.8679186875,137.300788625,53.0,84.0
893,136.8679186875,137.30426084375,60.0,85.0
894,137.1456961875,137.5021773125,41.0,85.0
895,137.4234736875,137.65379753125,53.0,83.0
896,137.4234736875,137.67463084375,57.0,84.0
897,137.4234736875,137.7058808125,60.0,85.0
898,137.7012511875,138.073936,43.0,84.0
899,137.9790286875,138.310046875,62.0,84.0
900,137.9790286875,138.31236168750002,55.0,81.0
901,137.9790286875,138.3216209375,58.0,85.0
902,138.2568061875,138.624861375,43.0,83.0
903,138.5345836875,138.78111121875,62.0,87.0
904,138.5345836875,138.8031019375,55.0,85.0
905,138.5345836875,138.8031019375,58.0,93.0
906,138.8123611875,139.19314784375,43.0,82.0
907,139.0901386875,139.4188420625,62.0,85.0
908,139.0901386875,139.41999946875,55.0,86.0
909,139.0901386875,139.4373605625,58.0,91.0
910,139.36791618750001,139.80425834375,43.0,85.0
911,139.6456936875,139.88296196875,55.0,86.0
912,139.6456936875,139.884119375,58.0,90.0
913,139.6456936875,139.89800825,62.0,86.0
914,139.9234711875,140.3355078125,48.0,88.0
915,140.2012486875,140.541526125,64.0,86.0
916,140.2012486875,140.55425759375,60.0,86.0
917,140.2012486875,140.5577298125,55.0,84.0
918,140.4790261875,140.81814621875,48.0,81.0
919,140.7568036875,141.13990515625,64.0,86.0
920,140.7568036875,141.1410625625,55.0,85.0
921,140.7568036875,141.14453478125,60.0,85.0
922,141.0345811875,141.3887475,48.0,89.0
923,141.3123586875,141.69430275,64.0,86.0
924,141.3123586875,141.708191625,60.0,85.0
925,141.3123586875,141.717450875,55.0,85.0
926,141.5901361875,142.05425609375,48.0,89.0
927,141.8679136875,142.12022825,55.0,85.0
928,141.8679136875,142.12370046875,64.0,87.0
929,141.8679136875,142.1294875,60.0,86.0
930,142.1456911875,142.54268153125,41.0,87.0
931,142.4234686875,142.79268128125,57.0,86.0
932,142.4234686875,142.79499609375,60.0,87.0
933,142.4234686875,142.79962571875,53.0,85.0
934,142.7012461875,143.0762458125,41.0,87.0
935,142.9790236875,143.18851421875002,53.0,86.0
936,142.9790236875,143.198930875,57.0,89.0
937,142.9790236875,143.22786603125,60.0,86.0
938,143.2568011875,143.615597125,50.0,91.0
939,143.53457868750002,143.91768015625001,57.0,80.0
940,143.53457868750002,143.92693940625,62.0,85.0
941,143.53457868750002,143.93156903125,65.0,85.0
942,143.8123561875,144.14453178125,50.0,87.0
943,144.0901336875,144.32161493750002,62.0,81.0
944,144.0901336875,144.328559375,65.0,84.0
945,144.0901336875,144.35286490625,57.0,85.0
946,144.3679111875,144.7151330625,48.0,87.0
947,144.6456886875,144.94082728125,64.0,86.0
948,144.6456886875,144.95355875,60.0,85.0
949,144.6456886875,144.9605031875,55.0,82.0
950,144.9234661875,145.29499359375,48.0,86.0
951,145.2012436875,145.58434515625,55.0,82.0
952,145.2012436875,145.592447,60.0,79.0
953,145.2012436875,145.606335875,64.0,84.0
954,145.4790211875,145.85517821875,48.0,85.0
955,145.7567986875,146.2197611875,64.0,86.0
956,145.7567986875,146.22554821875,60.0,85.0
957,145.7567986875,146.226705625,55.0,85.0
958,146.3123536875,146.52415903125,55.0,85.0
959,146.3123536875,146.52763125,64.0,86.0
960,146.3123536875,146.541520125,60.0,85.0
961,146.0345761875,146.55425159375,48.0,90.0
962,146.5901311875,146.94545490625,41.0,85.0
963,146.8679086875,147.20934353125,53.0,86.0
964,146.8679086875,147.2105009375,57.0,85.0
965,146.8679086875,147.21165834375,60.0,90.0
966,147.1456861875,147.4327229375,41.0,84.0
967,147.4234636875,147.70008378125002,53.0,85.0
968,147.4234636875,147.71397265625,57.0,87.0
969,147.4234636875,147.71397265625,60.0,86.0
970,147.7012411875,148.0623519375,50.0,91.0
971,147.9790186875,148.347073875,57.0,79.0
972,147.9790186875,148.34823128125,62.0,85.0
973,147.9790186875,148.3586479375,65.0,85.0
974,148.25679618750002,148.60054584375,50.0,90.0
975,148.5345736875,148.79961971875,65.0,86.0
976,148.5345736875,148.828554875,62.0,85.0
977,148.5345736875,148.8447585625,57.0,84.0
978,148.8123511875,149.14915640625,48.0,93.0
979,149.0901286875,149.384109875,64.0,91.0
980,149.0901286875,149.3864246875,60.0,90.0
981,149.0901286875,149.39221171875,55.0,87.0
982,149.3679061875,149.73248915625,48.0,88.0
983,149.6456836875,150.036887,55.0,86.0
984,149.6456836875,150.04035921875,60.0,88.0
985,149.6456836875,150.04961846875,64.0,85.0
986,149.9234611875,150.34128484375,48.0,77.0
987,150.2012386875,150.61906234375,60.0,88.0
988,150.2012386875,150.62021975,64.0,88.0
989,150.2012386875,150.6271641875,55.0,86.0
990,150.4790161875,150.939663875,48.0,90.0
991,150.7567936875,150.9512379375,55.0,85.0
992,150.7567936875,150.96165459375,60.0,88.0
993,150.7567936875,150.96859903125,64.0,86.0
994,151.0345711875,151.42461709375002,41.0,85.0
995,151.3123486875,151.71165384375,60.0,85.0
996,151.3123486875,151.71396865625,57.0,85.0
997,151.3123486875,151.7220705,53.0,84.0
998,151.5901261875,152.00910725,41.0,86.0
999,151.8679036875,152.28572734375,60.0,84.0
1000,151.8679036875,152.319292125,57.0,84.0
1001,151.8679036875,152.32392175,53.0,82.0
1002,152.1456811875,152.5530881875,41.0,84.0
1003,152.42345868750002,152.8331805,60.0,86.0
1004,152.42345868750002,152.8354953125,57.0,86.0
1005,152.42345868750002,152.84591196875,53.0,84.0
1006,152.7012361875,153.16304128125,41.0,85.0
1007,152.97901368750001,153.2336430625,53.0,83.0
1008,152.97901368750001,153.245217125,57.0,85.0
1009,152.97901368750001,153.27415228125,60.0,86.0
1010,153.2567911875,153.64915190625,48.0,90.0
1011,153.5345686875,153.995216375,55.0,84.0
1012,153.5345686875,153.99637378125,64.0,89.0
1013,153.5345686875,153.99868859375,60.0,89.0
1014,153.8123461875,154.20817912500002,48.0,93.0
1015,154.0901236875,154.54961396875,55.0,84.0
1016,154.0901236875,154.55424359375002,60.0,87.0
1017,154.0901236875,154.5577158125,64.0,89.0
1018,154.3679011875,154.75100265625,48.0,83.0
1019,154.6456786875,155.08317825,64.0,90.0
1020,154.6456786875,155.08665046875,60.0,89.0
1021,154.6456786875,155.09359490625,55.0,84.0
1022,154.9234561875,155.35285390625,48.0,85.0
1023,155.2012336875,155.44776121875,60.0,85.0
1024,155.2012336875,155.5067889375,55.0,84.0
1025,155.2012336875,155.5206778125,64.0,89.0
1026,155.4790111875,155.87600153125,50.0,85.0
1027,155.7567886875,156.22438081250002,62.0,86.0
1028,155.7567886875,156.23248265625,57.0,82.0
1029,155.7567886875,156.2382696875,65.0,86.0
1030,156.0345661875,156.3956769375,50.0,95.0
1031,156.3123436875,156.71396365625,65.0,86.0
1032,156.3123436875,156.72090809375,62.0,86.0
1033,156.3123436875,156.7290099375,57.0,85.0
1034,156.5901211875,156.939657875,50.0,91.0
1035,156.8678986875,157.296139,65.0,85.0
1036,156.8678986875,157.30192603125,57.0,84.0
1037,156.8678986875,157.30887046875,62.0,89.0
1038,157.14567618750002,157.53803690625,50.0,91.0
1039,157.4234536875,157.66072196875,62.0,87.0
1040,157.4234536875,157.73479596875,57.0,85.0
1041,157.4234536875,157.8702125,65.0,85.0
1042,157.7012311875,158.02877715625002,48.0,93.0
1043,157.9790086875,158.4095638125,64.0,89.0
1044,157.9790086875,158.41650825,60.0,86.0
1045,157.9790086875,158.4188230625,55.0,87.0
1046,158.2567861875,158.63988765625,48.0,93.0
1047,158.5345636875,158.92692440625,60.0,86.0
1048,158.5345636875,158.93039662500001,55.0,85.0
1049,158.5345636875,158.93155403125002,64.0,86.0
1050,158.8123411875,159.17692415625,48.0,86.0
1051,159.0901186875,159.51951640625,64.0,87.0
1052,159.0901186875,159.5253034375,60.0,86.0
1053,159.0901186875,159.53340528125,55.0,85.0
1054,159.3678961875,159.74868284375,48.0,93.0
1055,159.6456736875,160.04960846875,64.0,85.0
1056,159.6456736875,160.05655290625,60.0,85.0
1057,159.6456736875,160.06118253125,55.0,86.0
1058,159.9234511875,160.3123396875,48.0,93.0
1059,160.2012286875,160.615580125,64.0,86.0
1060,160.2012286875,160.62136715625,55.0,86.0
1061,160.2012286875,160.6225245625,60.0,86.0
1062,160.4790061875,160.865579875,48.0,89.0
1063,160.7567836875,160.93386684375,64.0,85.0
1064,160.7567836875,160.9373390625,55.0,85.0
1065,160.7567836875,160.9373390625,60.0,86.0
1066,161.0345611875,162.04034721875001,55.0,85.0
1067,161.0345611875,162.06118053125,64.0,87.0
1068,161.0345611875,162.06349534375,60.0,86.0
1069,161.0345611875,162.0901156875,48.0,95.0
1070,162.1456711875,162.55192078125,41.0,86.0
1071,162.4234486875,162.71280025000002,57.0,84.0
1072,162.4234486875,162.717429875,53.0,84.0
1073,162.4234486875,162.73131875,60.0,85.0
1074,162.7012261875,163.0623369375,41.0,85.0
1075,162.9790036875,163.185022,57.0,84.0
1076,162.9790036875,163.2035405,53.0,84.0
1077,162.9790036875,163.20932753125,60.0,85.0
1078,163.2567811875,163.62599378125,41.0,83.0
1079,163.5345586875,163.87136390625,57.0,87.0
1080,163.5345586875,163.87367871875,60.0,87.0
1081,163.5345586875,163.88409537500002,53.0,86.0
1082,163.8123361875,164.2336320625,41.0,84.0
1083,164.0901136875,164.31349309375,57.0,85.0
1084,164.0901136875,164.32506715625001,53.0,81.0
1085,164.0901136875,164.34590046875,60.0,81.0
1086,164.3678911875,164.72552971875,48.0,87.0
1087,164.6456686875,164.9419646875,64.0,85.0
1088,164.6456686875,164.95469615625,55.0,79.0
1089,164.6456686875,164.95701096875,60.0,85.0
1090,164.9234461875,165.22089959375,48.0,84.0
1091,165.2012236875,165.38293646875,60.0,86.0
1092,165.2012236875,165.3910383125,55.0,84.0
1093,165.2012236875,165.41650125,64.0,86.0
1094,165.4790011875,165.8331675,48.0,79.0
1095,165.7567786875,166.1225190625,64.0,87.0
1096,165.7567786875,166.13062090625002,55.0,86.0
1097,165.7567786875,166.13062090625002,60.0,87.0
1098,166.03455618750002,166.4558520625,48.0,85.0
1099,166.3123336875,166.47784278125,60.0,86.0
1100,166.3123336875,166.57275009375,55.0,84.0
1101,166.3123336875,166.7961295,64.0,87.0
1102,166.5901111875,166.9280738125,41.0,84.0
1103,166.8678886875,167.27645309375,57.0,80.0
1104,166.8678886875,167.2776105,60.0,85.0
1105,166.8678886875,167.2845549375,53.0,80.0
1106,167.1456661875,167.52876765625,41.0,85.0
1107,167.4234436875,167.629462,57.0,78.0
1108,167.4234436875,167.63756384375,53.0,80.0
1109,167.4234436875,167.63987865625,60.0,82.0
1110,167.7012211875,168.097054125,41.0,77.0
1111,167.9789986875,168.39913715625,53.0,84.0
1112,167.9789986875,168.4002945625,57.0,84.0
1113,167.9789986875,168.40145196875,60.0,86.0
1114,168.2567761875,168.6595535625,41.0,80.0
1115,168.5345536875,168.74404421875,53.0,82.0
1116,168.5345536875,168.77876640625,60.0,85.0
1117,168.5345536875,168.78571084375,57.0,84.0
1118,168.8123311875,169.2243678125,48.0,82.0
1119,169.0901086875,169.51950640625,64.0,85.0
1120,169.0901086875,169.52413603125,55.0,78.0
1121,169.0901086875,169.5345526875,60.0,80.0
1122,169.3678861875,169.8308486875,43.0,82.0
1123,169.6456636875,170.0484410625,64.0,87.0
1124,169.6456636875,170.060015125,55.0,86.0
1125,169.6456636875,170.0669595625,60.0,87.0
1126,169.9234411875,170.3354778125,48.0,84.0
1127,170.2012186875,170.5669590625,64.0,86.0
1128,170.2012186875,170.60168125,55.0,83.0
1129,170.2012186875,170.60746828125,60.0,85.0
1130,170.4789961875,170.865569875,48.0,83.0
1131,170.75677368750002,170.9813105,64.0,77.0
1132,170.75677368750002,171.02413453125,60.0,86.0
1133,170.75677368750002,171.04496784375002,55.0,84.0
1134,171.0345511875,171.4049211875,41.0,84.0
1135,171.3123286875,171.65839315625,60.0,77.0
1136,171.3123286875,171.69427275,57.0,73.0
1137,171.3123286875,171.69543015625,53.0,78.0
1138,171.5901061875,171.948902125,41.0,85.0
1139,171.8678836875,172.23593887500002,60.0,86.0
1140,171.8678836875,172.259087,57.0,84.0
1141,171.8678836875,172.27297587500001,53.0,81.0
1142,172.1456611875,172.46857753125,41.0,89.0
1143,172.4234386875,172.74172540625,60.0,85.0
1144,172.4234386875,172.7428828125,57.0,84.0
1145,172.4234386875,172.74982725,53.0,84.0
1146,172.7012161875,173.02297512500002,41.0,85.0
1147,172.9789936875,173.1826971875,53.0,84.0
1148,172.9789936875,173.2151045625,57.0,84.0
1149,172.9789936875,173.22783603125,60.0,84.0
1150,173.2567711875,173.62366896875,50.0,85.0
1151,173.5345486875,173.8956594375,57.0,83.0
1152,173.5345486875,173.90144646875,65.0,82.0
1153,173.5345486875,173.911863125,62.0,86.0
1154,173.8123261875,174.17690915625,50.0,74.0
1155,174.0901036875,174.42690890625,57.0,80.0
1156,174.0901036875,174.4373255625,62.0,85.0
1157,174.0901036875,174.43848296875,65.0,84.0
1158,174.3678811875,174.7197326875,50.0,84.0
1159,174.6456586875,175.01487128125,57.0,82.0
1160,174.6456586875,175.01834350000001,62.0,85.0
1161,174.6456586875,175.04959346875,65.0,84.0
1162,174.92343618750002,175.24982475000002,50.0,86.0
1163,175.2012136875,175.44311159375,62.0,84.0
1164,175.2012136875,175.49403746875,65.0,84.0
1165,175.2012136875,175.4975096875,57.0,85.0
1166,175.47899118750001,175.87135190625,43.0,84.0
1167,175.7567686875,176.14218496875,62.0,84.0
1168,175.7567686875,176.1549164375,55.0,83.0
1169,175.7567686875,176.1595460625,58.0,84.0
1170,176.0345461875,176.38292546875,43.0,76.0
1171,176.3123236875,176.5530641875,58.0,86.0
1172,176.3123236875,176.57968453125,55.0,84.0
1173,176.3123236875,176.65723075,62.0,85.0
1174,176.5901011875,176.962786,41.0,81.0
1175,176.8678786875,177.2567671875,53.0,85.0
1176,176.8678786875,177.263711625,57.0,85.0
1177,176.8678786875,177.28338753125,60.0,85.0
1178,177.1456561875,177.560007625,41.0,84.0
1179,177.4234336875,177.7058408125,57.0,85.0
1180,177.4234336875,177.7197296875,53.0,84.0
1181,177.4234336875,177.72783153125,60.0,89.0
1182,177.7012111875,178.09125709375002,48.0,89.0
1183,177.9789886875,178.3887105,55.0,84.0
1184,177.9789886875,178.407229,64.0,85.0
1185,177.9789886875,178.4095438125,60.0,90.0
1186,178.2567661875,178.63871025,48.0,83.0
1187,178.5345436875,178.9373210625,55.0,84.0
1188,178.5345436875,178.939635875,60.0,83.0
1189,178.5345436875,178.9442655,64.0,86.0
1190,178.8123211875,179.19773746875,48.0,83.0
1191,179.0900986875,179.25560778125,60.0,84.0
1192,179.0900986875,179.2567651875,55.0,81.0
1193,179.0900986875,179.26255221875,64.0,86.0
1194,179.3678761875,179.888709,60.0,91.0
1195,179.3678761875,179.89218121875,55.0,85.0
1196,179.3678761875,179.90607009375,64.0,91.0
1197,179.3678761875,179.9095423125,48.0,91.0
1198,179.9234311875,180.32968078125,41.0,86.0
1199,180.2012086875,180.49056025000002,57.0,84.0
1200,180.2012086875,180.495189875,53.0,84.0
1201,180.2012086875,180.50907875000001,60.0,85.0
1202,180.4789861875,180.8400969375,41.0,85.0
1203,180.7567636875,180.962782,57.0,84.0
1204,180.7567636875,180.9813005,53.0,84.0
1205,180.7567636875,180.98708753125,60.0,85.0
1206,181.0345411875,181.40375378125,41.0,83.0
1207,181.3123186875,181.64912390625,57.0,87.0
1208,181.3123186875,181.65143871875,60.0,87.0
1209,181.3123186875,181.66185537500002,53.0,86.0
1210,181.5900961875,182.0113920625,41.0,84.0
1211,181.8678736875,182.09125309375,57.0,85.0
1212,181.8678736875,182.10282715625002,53.0,81.0
1213,181.8678736875,182.12366046875,60.0,81.0
1214,182.1456511875,182.50328971875,48.0,87.0
1215,182.4234286875,182.7197246875,64.0,85.0
1216,182.4234286875,182.73245615625,55.0,79.0
1217,182.4234286875,182.73477096875,60.0,85.0
1218,182.7012061875,182.99865959375,48.0,84.0
1219,182.9789836875,183.16069646875,60.0,86.0
1220,182.9789836875,183.1687983125,55.0,84.0
1221,182.9789836875,183.19426125,64.0,86.0
1222,183.2567611875,183.6109275,48.0,79.0
1223,183.5345386875,183.9002790625,64.0,87.0
1224,183.5345386875,183.90838090625002,55.0,86.0
1225,183.5345386875,183.90838090625002,60.0,87.0
1226,183.81231618750002,184.23361206250001,48.0,85.0
1227,184.0900936875,184.25560278125,60.0,86.0
1228,184.0900936875,184.35051009375,55.0,84.0
1229,184.0900936875,184.5738895,64.0,87.0
1230,184.36787118750001,184.7058338125,41.0,84.0
1231,184.6456486875,185.05421309375,57.0,80.0
1232,184.6456486875,185.0553705,60.0,85.0
1233,184.6456486875,185.0623149375,53.0,80.0
1234,184.9234261875,185.30652765625,41.0,85.0
1235,185.2012036875,185.407222,57.0,78.0
1236,185.2012036875,185.41532384375,53.0,80.0
1237,185.2012036875,185.41763865625,60.0,82.0
1238,185.4789811875,185.874814125,41.0,77.0
1239,185.7567586875,186.17689715625,53.0,84.0
1240,185.7567586875,186.1780545625,57.0,84.0
1241,185.7567586875,186.17921196875,60.0,86.0
1242,186.0345361875,186.4373135625,41.0,80.0
1243,186.3123136875,186.52180421875,53.0,82.0
1244,186.3123136875,186.55652640625001,60.0,85.0
1245,186.3123136875,186.56347084375,57.0,84.0
1246,186.5900911875,187.0021278125,48.0,82.0
1247,186.8678686875,187.29726640625,64.0,85.0
1248,186.8678686875,187.30189603125,55.0,78.0
1249,186.8678686875,187.3123126875,60.0,80.0
1250,187.1456461875,187.6086086875,43.0,82.0
1251,187.4234236875,187.8262010625,64.0,87.0
1252,187.4234236875,187.837775125,55.0,86.0
1253,187.4234236875,187.8447195625,60.0,87.0
1254,187.7012011875,188.1132378125,48.0,84.0
1255,187.9789786875,188.3447190625,64.0,86.0
1256,187.9789786875,188.37944125,55.0,83.0
1257,187.9789786875,188.38522828125,60.0,85.0
1258,188.2567561875,188.643329875,48.0,83.0
1259,188.53453368750002,188.7590705,64.0,77.0
1260,188.53453368750002,188.80189453125,60.0,86.0
1261,188.53453368750002,188.82272784375002,55.0,84.0
1262,188.8123111875,189.1826811875,41.0,84.0
1263,189.0900886875,189.43615315625001,60.0,77.0
1264,189.0900886875,189.47203275,57.0,73.0
1265,189.0900886875,189.47319015625,53.0,78.0
1266,189.3678661875,189.726662125,41.0,85.0
1267,189.6456436875,190.013698875,60.0,86.0
1268,189.6456436875,190.036847,57.0,84.0
1269,189.6456436875,190.05073587500002,53.0,81.0
1270,189.9234211875,190.24633753125,41.0,89.0
1271,190.2011986875,190.51948540625,60.0,85.0
1272,190.2011986875,190.5206428125,57.0,84.0
1273,190.2011986875,190.52758725,53.0,84.0
1274,190.4789761875,190.800735125,41.0,85.0
1275,190.7567536875,190.9604571875,53.0,84.0
1276,190.7567536875,190.9928645625,57.0,84.0
1277,190.7567536875,191.00559603125,60.0,84.0
1278,191.0345311875,191.40142896875,50.0,85.0
1279,191.3123086875,191.6734194375,57.0,83.0
1280,191.3123086875,191.67920646875,65.0,82.0
1281,191.3123086875,191.689623125,62.0,86.0
1282,191.5900861875,191.95466915625,50.0,74.0
1283,191.8678636875,192.20466890625,57.0,80.0
1284,191.8678636875,192.2150855625,62.0,85.0
1285,191.8678636875,192.21624296875,65.0,84.0
1286,192.1456411875,192.4974926875,50.0,84.0
1287,192.4234186875,192.79263128125,57.0,82.0
1288,192.4234186875,192.79610350000002,62.0,85.0
1289,192.4234186875,192.82735346875,65.0,84.0
1290,192.7011961875,193.02758475,50.0,86.0
1291,192.9789736875,193.22087159375,62.0,84.0
1292,192.9789736875,193.27179746875,65.0,84.0
1293,192.9789736875,193.2752696875,57.0,85.0
1294,193.25675118750002,193.64911190625,43.0,84.0
1295,193.5345286875,193.91994496875,62.0,84.0
1296,193.5345286875,193.9326764375,55.0,83.0
1297,193.5345286875,193.9373060625,58.0,84.0
1298,193.8123061875,194.16068546875,43.0,76.0
1299,194.0900836875,194.3308241875,58.0,86.0
1300,194.0900836875,194.35744453125,55.0,84.0
1301,194.0900836875,194.43499075,62.0,85.0
1302,194.3678611875,194.7660089375,41.0,85.0
1303,194.6456386875,194.93499025,57.0,84.0
1304,194.6456386875,194.94772171875,60.0,85.0
1305,194.6456386875,194.96508281250001,53.0,82.0
1306,194.9234161875,195.29957321875,36.0,86.0
1307,195.2011936875,195.48360081250001,48.0,84.0
1308,195.2011936875,195.49864709375,52.0,84.0
1309,195.2011936875,195.513693375,55.0,85.0
1310,195.4789711875,195.86091525,41.0,86.0
1311,195.7567486875,196.19772046875,53.0,84.0
1312,195.7567486875,196.20003528125,57.0,85.0
1313,195.7567486875,196.20697971875,60.0,87.0
1314,196.0345261875,196.4558220625,41.0,84.0
1315,196.3123036875,196.75327546875,53.0,80.0
1316,196.3123036875,196.7590625,57.0,83.0
1317,196.3123036875,196.763692125,60.0,86.0
1318,196.5900811875,197.05767331250001,41.0,84.0
1319,196.8678586875,197.328506375,57.0,81.0
1320,196.8678586875,197.3308211875,53.0,83.0
1321,196.8678586875,197.3308211875,60.0,85.0
1322,197.1456361875,197.5530431875,41.0,86.0
1323,197.42341368750002,197.61901534375,53.0,85.0
1324,197.42341368750002,197.62364496875,57.0,88.0
1325,197.42341368750002,197.62595978125,60.0,86.0
1326,197.7011911875,198.069246375,50.0,95.0
1327,197.97896868750001,198.38753309375,62.0,85.0
1328,197.97896868750001,198.39910715625,57.0,84.0
1329,197.97896868750001,198.39910715625,65.0,86.0
1330,198.2567461875,198.6039680625,50.0,93.0
1331,198.5345236875,198.911838125,62.0,89.0
1332,198.5345236875,198.91646775,65.0,85.0
1333,198.5345236875,198.92109737500002,57.0,83.0
1334,198.8123011875,199.20234709375,50.0,88.0
1335,199.0900786875,199.29493959375,62.0,89.0
1336,199.0900786875,199.33660621875,57.0,85.0
1337,199.0900786875,199.34355065625002,65.0,86.0
1338,199.3678561875,199.73706878125,48.0,87.0
1339,199.6456336875,199.9442445,55.0,86.0
1340,199.6456336875,199.95234634375,60.0,88.0
1341,199.6456336875,199.9604481875,64.0,90.0
1342,199.9234111875,200.27410528125,50.0,93.0
1343,200.2011886875,200.62364196875,65.0,86.0
1344,200.2011886875,200.6271141875,62.0,85.0
1345,200.2011886875,200.63058640625,57.0,84.0
1346,200.4789661875,200.86438246875,50.0,93.0
1347,200.7567436875,200.99632678125,65.0,86.0
1348,200.7567436875,201.01484528125,62.0,88.0
1349,200.7567436875,201.04493784375,57.0,85.0
1350,201.0345211875,201.38753009375,48.0,91.0
1351,201.3122986875,201.735909375,64.0,90.0
1352,201.3122986875,201.74285381250002,60.0,88.0
1353,201.3122986875,201.75095565625,55.0,86.0
1354,201.5900761875,202.01715909375,48.0,93.0
1355,201.8678536875,202.08428865625,55.0,86.0
1356,201.8678536875,202.0993349375,64.0,90.0
1357,201.8678536875,202.106279375,60.0,87.0
1358,202.14563118750002,202.4928530625,50.0,91.0
1359,202.4234086875,202.8400749375,57.0,84.0
1360,202.4234086875,202.847019375,62.0,86.0
1361,202.4234086875,202.847019375,65.0,84.0
1362,202.7011861875,203.0553525,50.0,91.0
1363,202.9789636875,203.365537375,65.0,87.0
1364,202.9789636875,203.36900959375,57.0,86.0
1365,202.9789636875,203.36900959375,62.0,90.0
1366,203.2567411875,203.60396306250001,50.0,89.0
1367,203.5345186875,203.91762015625,62.0,87.0
1368,203.5345186875,203.91993496875,65.0,87.0
1369,203.5345186875,203.92456459375,57.0,85.0
1370,203.8122961875,204.18035137500001,50.0,89.0
1371,204.0900736875,204.34586046875,65.0,85.0
1372,204.0900736875,204.35743453125,62.0,86.0
1373,204.0900736875,204.402573375,57.0,84.0
1374,204.3678511875,204.76484153125,43.0,86.0
1375,204.6456286875,205.0484060625,55.0,85.0
1376,204.6456286875,205.078498625,58.0,88.0
1377,204.6456286875,205.078498625,62.0,87.0
1378,204.9234061875,205.35164650000002,43.0,84.0
1379,205.2011836875,205.47548896875,58.0,88.0
1380,205.2011836875,205.48474821875,55.0,85.0
1381,205.2011836875,205.50558153125002,62.0,86.0
1382,205.4789611875,205.87942375,48.0,88.0
1383,205.7567386875,206.15604384375,64.0,88.0
1384,205.7567386875,206.1641456875,55.0,81.0
1385,205.7567386875,206.16530309375,60.0,85.0
1386,206.0345161875,206.54030271875,48.0,87.0
1387,206.31229368750002,206.54493234375,55.0,88.0
1388,206.31229368750002,206.54724715625,60.0,91.0
1389,206.31229368750002,206.56460825,64.0,93.0
1390,206.5900711875,206.958126375,50.0,95.0
1391,206.86784868750001,207.27641309375,62.0,85.0
1392,206.86784868750001,207.28798715625,57.0,84.0
1393,206.86784868750001,207.28798715625,65.0,86.0
1394,207.1456261875,207.4928480625,50.0,93.0
1395,207.4234036875,207.800718125,62.0,89.0
1396,207.4234036875,207.80534775,65.0,85.0
1397,207.4234036875,207.80997737500002,57.0,83.0
1398,207.7011811875,208.09122709375,50.0,88.0
1399,207.9789586875,208.18381959375,62.0,89.0
1400,207.9789586875,208.22548621875,57.0,85.0
1401,207.9789586875,208.23243065625,65.0,86.0
1402,208.2567361875,208.62594878125,48.0,87.0
1403,208.5345136875,208.8331245,55.0,86.0
1404,208.5345136875,208.84122634375,60.0,88.0
1405,208.5345136875,208.8493281875,64.0,90.0
1406,208.8122911875,209.16298528125,50.0,93.0
1407,209.0900686875,209.51252196875,65.0,86.0
1408,209.0900686875,209.5159941875,62.0,85.0
1409,209.0900686875,209.51946640625,57.0,84.0
1410,209.3678461875,209.75326246875,50.0,93.0
1411,209.6456236875,209.88520678125,65.0,86.0
1412,209.6456236875,209.90372528125,62.0,88.0
1413,209.6456236875,209.93381784375,57.0,85.0
1414,209.9234011875,210.27641009375,48.0,91.0
1415,210.2011786875,210.624789375,64.0,90.0
1416,210.2011786875,210.63173381250002,60.0,88.0
1417,210.2011786875,210.63983565625,55.0,86.0
1418,210.4789561875,210.90603909375,48.0,93.0
1419,210.7567336875,210.97316865625,55.0,86.0
1420,210.7567336875,210.9882149375,64.0,90.0
1421,210.7567336875,210.99515937500001,60.0,87.0
1422,211.03451118750002,211.3817330625,50.0,91.0
1423,211.3122886875,211.7289549375,57.0,84.0
1424,211.3122886875,211.735899375,62.0,86.0
1425,211.3122886875,211.735899375,65.0,84.0
1426,211.5900661875,211.9442325,50.0,91.0
1427,211.8678436875,212.254417375,65.0,87.0
1428,211.8678436875,212.25788959375,57.0,86.0
1429,211.8678436875,212.25788959375,62.0,90.0
1430,212.1456211875,212.49284306250001,50.0,89.0
1431,212.4233986875,212.80650015625,62.0,87.0
1432,212.4233986875,212.80881496875,65.0,87.0
1433,212.4233986875,212.81344459375,57.0,85.0
1434,212.7011761875,213.06923137500002,50.0,89.0
1435,212.9789536875,213.23474046875,65.0,85.0
1436,212.9789536875,213.24631453125,62.0,86.0
1437,212.9789536875,213.291453375,57.0,84.0
1438,213.2567311875,213.65372153125,43.0,86.0
1439,213.5345086875,213.9372860625,55.0,85.0
1440,213.5345086875,213.967378625,58.0,88.0
1441,213.5345086875,213.967378625,62.0,87.0
1442,213.8122861875,214.24052650000002,43.0,84.0
1443,214.0900636875,214.36436896875,58.0,88.0
1444,214.0900636875,214.37362821875,55.0,85.0
1445,214.0900636875,214.39446153125002,62.0,86.0
1446,214.3678411875,214.76830375,48.0,88.0
1447,214.6456186875,215.04492384375,64.0,88.0
1448,214.6456186875,215.0530256875,55.0,81.0
1449,214.6456186875,215.05418309375,60.0,85.0
1450,214.9233961875,215.42918271875,48.0,87.0
1451,215.20117368750002,215.43381234375,55.0,88.0
1452,215.20117368750002,215.43612715625,60.0,91.0
1453,215.20117368750002,215.45348825,64.0,93.0
1454,215.4789511875,215.86089525,48.0,86.0
1455,215.75672868750001,216.1664505,64.0,87.0
1456,215.75672868750001,216.18844121875,60.0,85.0
1457,215.75672868750001,216.1965430625,55.0,85.0
1458,216.0345061875,216.41297803125,48.0,87.0
1459,216.3122836875,216.54376493750001,64.0,86.0
1460,216.3122836875,216.592376,60.0,86.0
1461,216.3122836875,216.63867225,55.0,86.0
1462,216.5900611875,216.96621821875002,41.0,86.0
1463,216.8678386875,217.30418084375,60.0,86.0
1464,216.8678386875,217.31575490625,53.0,85.0
1465,216.8678386875,217.319227125,57.0,84.0
1466,217.1456161875,217.54607875,41.0,85.0
1467,217.4233936875,217.6733934375,53.0,87.0
1468,217.4233936875,217.6872823125,57.0,86.0
1469,217.4233936875,217.7011711875,60.0,89.0
1470,217.7011711875,218.106263375,48.0,91.0
1471,217.9789486875,218.393300125,55.0,79.0
1472,217.9789486875,218.4141334375,60.0,82.0
1473,217.9789486875,218.430337125,64.0,82.0
1474,218.2567261875,218.66066096875,48.0,87.0
1475,218.5345036875,218.81806821875,55.0,85.0
1476,218.5345036875,218.84584596875,64.0,85.0
1477,218.5345036875,218.856262625,60.0,85.0
1478,218.8122811875,219.18843821875,41.0,84.0
1479,219.0900586875,219.51482678125,60.0,85.0
1480,219.0900586875,219.518299,57.0,80.0
1481,219.0900586875,219.51945640625001,65.0,84.0
1482,219.3678361875,219.7150580625,41.0,84.0
1483,219.6456136875,219.893298625,60.0,85.0
1484,219.6456136875,219.921076375,57.0,78.0
1485,219.6456136875,219.921076375,65.0,84.0
1486,219.92339118750002,220.26019640625,50.0,86.0
1487,220.2011686875,220.63056640625,62.0,84.0
1488,220.2011686875,220.6363534375,57.0,80.0
1489,220.2011686875,220.63751084375,65.0,84.0
1490,220.47894618750001,220.856260625,50.0,86.0
1491,220.7567236875,221.022927125,65.0,85.0
1492,220.7567236875,221.04607525,62.0,86.0
1493,220.7567236875,221.06806596875,57.0,83.0
1494,221.0345011875,221.37825084375,48.0,90.0
1495,221.3122786875,221.6733894375,64.0,85.0
1496,221.3122786875,221.6872783125,55.0,79.0
1497,221.3122786875,221.68959312500002,60.0,84.0
1498,221.5900561875,222.03334278125,48.0,88.0
1499,221.8678336875,222.0993149375,55.0,84.0
1500,221.8678336875,222.1039445625,64.0,86.0
1501,221.8678336875,222.1132038125,60.0,85.0
1502,222.1456111875,222.513666375,48.0,88.0
1503,222.4233886875,222.809962375,64.0,85.0
1504,222.4233886875,222.8261660625,55.0,84.0
1505,222.4233886875,222.83195309375,60.0,82.0
1506,222.7011661875,223.18148978125,48.0,87.0
1507,222.9789436875,223.22084159375,55.0,85.0
1508,222.9789436875,223.226628625,60.0,85.0
1509,222.9789436875,223.2289434375,64.0,85.0
1510,223.2567211875,223.58310975,48.0,93.0
1511,223.5344986875,223.89908165625,55.0,85.0
1512,223.5344986875,223.90139646875,60.0,85.0
1513,223.5344986875,223.90371128125,64.0,84.0
1514,223.8122761875,224.2567201875,48.0,89.0
1515,224.09005368750002,224.37824784375,55.0,86.0
1516,224.09005368750002,224.3863496875,60.0,86.0
1517,224.09005368750002,224.3863496875,64.0,88.0
1518,224.3678311875,224.740516,48.0,86.0
1519,224.64560868750002,225.0182935,64.0,88.0
1520,224.64560868750002,225.0206083125,60.0,84.0
1521,224.64560868750002,225.03333978125,55.0,84.0
1522,224.9233861875,225.328478375,48.0,88.0
1523,225.2011636875,225.629404,60.0,86.0
1524,225.2011636875,225.63287621875,64.0,87.0
1525,225.2011636875,225.63866325,55.0,85.0
1526,225.4789411875,225.85741303125,48.0,85.0
1527,225.7567186875,226.1131998125,64.0,91.0
1528,225.7567186875,226.12477387500002,60.0,88.0
1529,225.7567186875,226.13287571875,55.0,85.0
1530,226.0344961875,226.4048661875,48.0,91.0
1531,226.3122736875,226.5807919375,64.0,86.0
1532,226.3122736875,226.59815303125,60.0,86.0
1533,226.3122736875,226.64213446875002,55.0,81.0
1534,226.5900511875,226.99861559375,41.0,87.0
1535,226.8678286875,227.2937541875,60.0,85.0
1536,226.8678286875,227.30532825,57.0,86.0
1537,226.8678286875,227.3169023125,53.0,82.0
1538,227.1456061875,227.54606875,41.0,85.0
1539,227.4233836875,227.78565184375,57.0,86.0
1540,227.4233836875,227.79028146875,60.0,89.0
1541,227.4233836875,227.8076425625,53.0,84.0
1542,227.7011611875,228.08889228125,41.0,85.0
1543,227.9789386875,228.39444753125,60.0,86.0
1544,227.9789386875,228.39676234375,57.0,87.0
1545,227.9789386875,228.40833640625002,53.0,85.0
1546,228.2567161875,228.71852128125,41.0,85.0
1547,228.5344936875,228.7960675,53.0,84.0
1548,228.5344936875,228.80185453125,57.0,84.0
1549,228.5344936875,228.814586,60.0,85.0
1550,228.81227118750002,229.180326375,50.0,95.0
1551,229.0900486875,229.49861309375,62.0,85.0
1552,229.0900486875,229.51018715625,57.0,84.0
1553,229.0900486875,229.51018715625,65.0,86.0
1554,229.36782618750001,229.71504806250002,50.0,93.0
1555,229.6456036875,230.022918125,62.0,89.0
1556,229.6456036875,230.02754775,65.0,85.0
1557,229.6456036875,230.032177375,57.0,83.0
1558,229.9233811875,230.31342709375,50.0,88.0
1559,230.2011586875,230.40601959375002,62.0,89.0
1560,230.2011586875,230.44768621875,57.0,85.0
1561,230.2011586875,230.45463065625,65.0,86.0
1562,230.4789361875,230.84814878125,48.0,87.0
1563,230.7567136875,231.0553245,55.0,86.0
1564,230.7567136875,231.06342634375,60.0,88.0
1565,230.7567136875,231.0715281875,64.0,90.0
1566,231.0344911875,231.38518528125002,50.0,93.0
1567,231.3122686875,231.73472196875,65.0,86.0
1568,231.3122686875,231.7381941875,62.0,85.0
1569,231.3122686875,231.74166640625,57.0,84.0
1570,231.5900461875,231.97546246875,50.0,93.0
1571,231.8678236875,232.10740678125,65.0,86.0
1572,231.8678236875,232.12592528125,62.0,88.0
1573,231.8678236875,232.15601784375,57.0,85.0
1574,232.1456011875,232.49861009375002,48.0,91.0
1575,232.4233786875,232.846989375,64.0,90.0
1576,232.4233786875,232.8539338125,60.0,88.0
1577,232.4233786875,232.86203565625001,55.0,86.0
1578,232.7011561875,233.12823909375,48.0,93.0
1579,232.9789336875,233.19536865625,55.0,86.0
1580,232.9789336875,233.2104149375,64.0,90.0
1581,232.9789336875,233.217359375,60.0,87.0
1582,233.2567111875,233.6039330625,50.0,91.0
1583,233.53448868750002,233.9511549375,57.0,84.0
1584,233.53448868750002,233.958099375,62.0,86.0
1585,233.53448868750002,233.958099375,65.0,84.0
1586,233.8122661875,234.1664325,50.0,91.0
1587,234.0900436875,234.476617375,65.0,87.0
1588,234.0900436875,234.48008959375,57.0,86.0
1589,234.0900436875,234.48008959375,62.0,90.0
1590,234.3678211875,234.7150430625,50.0,89.0
1591,234.6455986875,235.02870015625,62.0,87.0
1592,234.6455986875,235.03101496875001,65.0,87.0
1593,234.6455986875,235.03564459375,57.0,85.0
1594,234.9233761875,235.291431375,50.0,89.0
1595,235.2011536875,235.45694046875,65.0,85.0
1596,235.2011536875,235.46851453125,62.0,86.0
1597,235.2011536875,235.513653375,57.0,84.0
1598,235.4789311875,235.87592153125001,43.0,86.0
1599,235.7567086875,236.1594860625,55.0,85.0
1600,235.7567086875,236.189578625,58.0,88.0
1601,235.7567086875,236.189578625,62.0,87.0
1602,236.0344861875,236.4627265,43.0,84.0
1603,236.3122636875,236.58656896875002,58.0,88.0
1604,236.3122636875,236.59582821875,55.0,85.0
1605,236.3122636875,236.61666153125,62.0,86.0
1606,236.5900411875,236.99050375000002,48.0,88.0
1607,236.8678186875,237.26712384375,64.0,88.0
1608,236.8678186875,237.2752256875,55.0,81.0
1609,236.8678186875,237.27638309375,60.0,85.0
1610,237.1455961875,237.65138271875,48.0,87.0
1611,237.4233736875,237.65601234375,55.0,88.0
1612,237.4233736875,237.65832715625,60.0,91.0
1613,237.4233736875,237.67568825,64.0,93.0
1614,237.70115118750002,238.069206375,50.0,95.0
1615,237.9789286875,238.38749309375,62.0,85.0
1616,237.9789286875,238.39906715625,57.0,84.0
1617,237.9789286875,238.39906715625,65.0,86.0
1618,238.25670618750001,238.6039280625,50.0,93.0
1619,238.5344836875,238.911798125,62.0,89.0
1620,238.5344836875,238.91642775,65.0,85.0
1621,238.5344836875,238.921057375,57.0,83.0
1622,238.8122611875,239.20230709375,50.0,88.0
1623,239.0900386875,239.29489959375002,62.0,89.0
1624,239.0900386875,239.33656621875,57.0,85.0
1625,239.0900386875,239.34351065625,65.0,86.0
1626,239.3678161875,239.73702878125,48.0,87.0
1627,239.6455936875,239.9442045,55.0,86.0
1628,239.6455936875,239.95230634375,60.0,88.0
1629,239.6455936875,239.9604081875,64.0,90.0
1630,239.9233711875,240.27406528125002,50.0,93.0
1631,240.2011486875,240.62360196875,65.0,86.0
1632,240.2011486875,240.6270741875,62.0,85.0
1633,240.2011486875,240.63054640625,57.0,84.0
1634,240.4789261875,240.86434246875,50.0,93.0
1635,240.7567036875,240.99628678125,65.0,86.0
1636,240.7567036875,241.01480528125,62.0,88.0
1637,240.7567036875,241.04489784375,57.0,85.0
1638,241.0344811875,241.38749009375002,48.0,91.0
1639,241.3122586875,241.735869375,64.0,90.0
1640,241.3122586875,241.7428138125,60.0,88.0
1641,241.3122586875,241.75091565625002,55.0,86.0
1642,241.5900361875,242.01711909375,48.0,93.0
1643,241.8678136875,242.08424865625,55.0,86.0
1644,241.8678136875,242.0992949375,64.0,90.0
1645,241.8678136875,242.106239375,60.0,87.0
1646,242.1455911875,242.4928130625,50.0,91.0
1647,242.42336868750002,242.8400349375,57.0,84.0
1648,242.42336868750002,242.846979375,62.0,86.0
1649,242.42336868750002,242.846979375,65.0,84.0
1650,242.7011461875,243.0553125,50.0,91.0
1651,242.97892368750001,243.365497375,65.0,87.0
1652,242.97892368750001,243.36896959375,57.0,86.0
1653,242.97892368750001,243.36896959375,62.0,90.0
1654,243.2567011875,243.6039230625,50.0,89.0
1655,243.5344786875,243.91758015625,62.0,87.0
1656,243.5344786875,243.91989496875001,65.0,87.0
1657,243.5344786875,243.92452459375,57.0,85.0
1658,243.8122561875,244.180311375,50.0,89.0
1659,244.0900336875,244.34582046875,65.0,85.0
1660,244.0900336875,244.35739453125,62.0,86.0
1661,244.0900336875,244.402533375,57.0,84.0
1662,244.3678111875,244.76480153125001,43.0,86.0
1663,244.6455886875,245.0483660625,55.0,85.0
1664,244.6455886875,245.078458625,58.0,88.0
1665,244.6455886875,245.078458625,62.0,87.0
1666,244.9233661875,245.3516065,43.0,84.0
1667,245.2011436875,245.47544896875002,58.0,88.0
1668,245.2011436875,245.48470821875,55.0,85.0
1669,245.2011436875,245.50554153125,62.0,86.0
1670,245.4789211875,245.87938375000002,48.0,88.0
1671,245.7566986875,246.15600384375,64.0,88.0
1672,245.7566986875,246.1641056875,55.0,81.0
1673,245.7566986875,246.16526309375,60.0,85.0
1674,246.0344761875,246.54026271875,48.0,87.0
1675,246.3122536875,246.54489234375,55.0,88.0
1676,246.3122536875,246.54720715625,60.0,91.0
1677,246.3122536875,246.56456825,64.0,93.0
1678,246.59003118750002,246.97197525,48.0,86.0
1679,246.8678086875,247.2775305,64.0,87.0
1680,246.8678086875,247.29952121875002,60.0,85.0
1681,246.8678086875,247.3076230625,55.0,85.0
1682,247.14558618750002,247.52405803125,48.0,87.0
1683,247.4233636875,247.6548449375,64.0,86.0
1684,247.4233636875,247.70345600000002,60.0,86.0
1685,247.4233636875,247.74975225,55.0,86.0
1686,247.7011411875,248.07729821875,41.0,86.0
1687,247.9789186875,248.41526084375,60.0,86.0
1688,247.9789186875,248.42683490625,53.0,85.0
1689,247.9789186875,248.430307125,57.0,84.0
1690,248.2566961875,248.65715875,41.0,85.0
1691,248.5344736875,248.7844734375,53.0,87.0
1692,248.5344736875,248.7983623125,57.0,86.0
1693,248.5344736875,248.8122511875,60.0,89.0
1694,248.8122511875,249.217343375,48.0,91.0
1695,249.0900286875,249.504380125,55.0,79.0
1696,249.0900286875,249.5252134375,60.0,82.0
1697,249.0900286875,249.541417125,64.0,82.0
1698,249.3678061875,249.77174096875,48.0,87.0
1699,249.6455836875,249.92914821875002,55.0,85.0
1700,249.6455836875,249.95692596875,64.0,85.0
1701,249.6455836875,249.96734262500001,60.0,85.0
1702,249.9233611875,250.29951821875,41.0,84.0
1703,250.2011386875,250.62590678125,60.0,85.0
1704,250.2011386875,250.629379,57.0,80.0
1705,250.2011386875,250.63053640625,65.0,84.0
1706,250.4789161875,250.8261380625,41.0,84.0
1707,250.7566936875,251.00437862500002,60.0,85.0
1708,250.7566936875,251.032156375,57.0,78.0
1709,250.7566936875,251.032156375,65.0,84.0
1710,251.0344711875,251.37127640625,50.0,86.0
1711,251.31224868750002,251.74164640625,62.0,84.0
1712,251.31224868750002,251.7474334375,57.0,80.0
1713,251.31224868750002,251.74859084375,65.0,84.0
1714,251.5900261875,251.967340625,50.0,86.0
1715,251.86780368750001,252.134007125,65.0,85.0
1716,251.86780368750001,252.15715525000002,62.0,86.0
1717,251.86780368750001,252.17914596875,57.0,83.0
1718,252.1455811875,252.48933084375,48.0,90.0
1719,252.4233586875,252.7844694375,64.0,85.0
1720,252.4233586875,252.7983583125,55.0,79.0
1721,252.4233586875,252.800673125,60.0,84.0
1722,252.7011361875,253.14442278125,48.0,88.0
1723,252.9789136875,253.2103949375,55.0,84.0
1724,252.9789136875,253.2150245625,64.0,86.0
1725,252.9789136875,253.2242838125,60.0,85.0
1726,253.2566911875,253.624746375,48.0,88.0
1727,253.5344686875,253.921042375,64.0,85.0
1728,253.5344686875,253.9372460625,55.0,84.0
1729,253.5344686875,253.94303309375002,60.0,82.0
1730,253.8122461875,254.29256978125,48.0,87.0
1731,254.0900236875,254.33192159375,55.0,85.0
1732,254.0900236875,254.337708625,60.0,85.0
1733,254.0900236875,254.3400234375,64.0,85.0
1734,254.3678011875,254.69418975,48.0,93.0
1735,254.6455786875,255.01016165625,55.0,85.0
1736,254.6455786875,255.01247646875,60.0,85.0
1737,254.6455786875,255.01479128125,64.0,84.0
1738,254.9233561875,255.3678001875,48.0,89.0
1739,255.2011336875,255.48932784375,55.0,86.0
1740,255.2011336875,255.49742968750002,60.0,86.0
1741,255.2011336875,255.49742968750002,64.0,88.0
1742,255.47891118750002,255.851596,48.0,86.0
1743,255.7566886875,256.1293735,64.0,88.0
1744,255.7566886875,256.1316883125,60.0,84.0
1745,255.7566886875,256.14441978125,55.0,84.0
1746,256.0344661875,256.439558375,48.0,88.0
1747,256.31224368750003,256.740484,60.0,86.0
1748,256.31224368750003,256.74395621875,64.0,87.0
1749,256.31224368750003,256.74974325,55.0,85.0
1750,256.5900211875,256.96849303125,48.0,85.0
1751,256.8677986875,257.2242798125,64.0,91.0
1752,256.8677986875,257.235853875,60.0,88.0
1753,256.8677986875,257.24395571875,55.0,85.0
1754,257.1455761875,257.5159461875,48.0,91.0
1755,257.4233536875,257.6918719375,64.0,86.0
1756,257.4233536875,257.70923303125,60.0,86.0
1757,257.4233536875,257.75321446875,55.0,81.0
1758,257.7011311875,258.10969559375,41.0,87.0
1759,257.9789086875,258.4048341875,60.0,85.0
1760,257.9789086875,258.41640825,57.0,86.0
1761,257.9789086875,258.4279823125,53.0,82.0
1762,258.2566861875,258.65714875,41.0,85.0
1763,258.5344636875,258.89673184375,57.0,86.0
1764,258.5344636875,258.90136146875,60.0,89.0
1765,258.5344636875,258.9187225625,53.0,84.0
1766,258.8122411875,259.19997228125,41.0,85.0
1767,259.0900186875,259.50552753125,60.0,86.0
1768,259.0900186875,259.50784234375,57.0,87.0
1769,259.0900186875,259.51941640625,53.0,85.0
1770,259.3677961875,259.82960128125,41.0,85.0
1771,259.6455736875,259.9071475,53.0,84.0
1772,259.6455736875,259.91293453125,57.0,84.0
1773,259.6455736875,259.925666,60.0,85.0
1774,259.92335118750003,260.33191559375,41.0,87.0
1775,260.2011286875,260.6270541875,60.0,85.0
1776,260.2011286875,260.63862825,57.0,86.0
1777,260.2011286875,260.6502023125,53.0,82.0
1778,260.4789061875,260.87936875,41.0,85.0
1779,260.7566836875,261.11895184375,57.0,86.0
1780,260.7566836875,261.12358146875,60.0,89.0
1781,260.7566836875,261.1409425625,53.0,84.0
1782,261.0344611875,261.42219228125,41.0,85.0
1783,261.3122386875,261.72774753125003,60.0,86.0
1784,261.3122386875,261.73006234375,57.0,87.0
1785,261.3122386875,261.74163640625,53.0,85.0
1786,261.5900161875,262.05182128125,41.0,85.0
1787,261.8677936875,262.1293675,53.0,84.0
1788,261.8677936875,262.13515453125,57.0,84.0
1789,261.8677936875,262.147886,60.0,85.0
1790,262.1455711875,262.55413559375,41.0,87.0
1791,262.4233486875,262.8492741875,60.0,85.0
1792,262.4233486875,262.86084825,57.0,86.0
1793,262.4233486875,262.8724223125,53.0,82.0
1794,262.7011261875,263.10158875,41.0,85.0
1795,262.9789036875,263.34117184375,57.0,86.0
1796,262.9789036875,263.34580146875,60.0,89.0
1797,262.9789036875,263.3631625625,53.0,84.0
1798,263.2566811875,263.64441228125,41.0,85.0
1799,263.5344586875,263.94996753125,60.0,86.0
1800,263.5344586875,263.95228234375,57.0,87.0
1801,263.5344586875,263.96385640625,53.0,85.0
1802,263.8122361875,264.27404128125,41.0,85.0
1803,264.0900136875,264.3515875,53.0,84.0
1804,264.0900136875,264.35737453125,57.0,84.0
1805,264.0900136875,264.370106,60.0,85.0
1806,264.3677911875,264.370106,60.0,84.0
1807,264.3677911875,264.66061496875,41.0,85.0
1808,264.3677911875,264.6687168125,57.0,81.0
1809,264.3677911875,264.7057538125,65.0,84.0
