,start,end,pitch,velocity
0,18.544645947916667,18.901788864583335,57.0,88.0
1,18.973217447916667,19.650003275,66.0,94.0
2,19.830360447916668,20.2392890875,66.0,94.0
3,20.25893194791667,20.575003429166667,62.0,83.0
4,20.687503447916665,21.017860645833334,64.0,90.0
5,21.116074947916665,21.50893215625,62.0,90.0
6,21.544646447916666,22.117860829166666,61.0,94.0
7,22.187503697916668,24.367861204166665,62.0,89.0
8,25.401789947916665,25.732147145833334,62.0,89.0
9,25.830361447916665,26.510718704166667,67.0,86.0
10,26.687504447916666,27.080361656250002,67.0,88.0
11,27.116075947916666,27.587504597916666,66.0,93.0
12,27.544647447916667,27.951790372916665,67.0,87.0
13,27.973218947916667,28.428576166666666,66.0,94.0
14,28.401790447916667,28.550004758333333,67.0,90.0
15,28.616076197916666,29.257147733333333,69.0,93.0
16,29.258933447916668,31.3714338,64.0,91.0
17,31.401790947916666,31.737505289583332,62.0,93.0
18,31.830362447916666,32.16250536041667,61.0,94.0
19,32.25893394791667,32.553576854166664,62.0,94.0
20,32.687505447916664,33.3428627,71.0,87.0
21,33.544648447916664,33.89464850625,71.0,95.0
22,33.97321994791667,34.14107711875,73.0,94.0
23,34.18750569791667,34.71072007083333,76.0,94.0
24,34.83036294791667,35.155363002083334,74.0,94.0
25,35.258934447916666,35.65000594166667,73.0,86.0
26,35.68750594791667,36.060720295833335,71.0,92.0
27,36.116077447916666,36.79822041875,69.0,82.0
28,36.97322044791667,37.12857761666667,69.0,91.0
29,37.18750619791667,37.66250627708333,71.0,90.0
30,37.83036344791667,38.164292075,66.0,88.0
31,38.258934947916664,38.72857788333334,62.0,93.0
32,38.68750644791667,39.107149375,61.0,81.0
33,39.116077947916665,39.542863733333334,62.0,92.0
34,39.54464944791667,40.180363839583336,69.0,88.0
35,41.04464969791667,41.16964971875,69.0,86.0
36,41.25893544791667,41.532149779166666,69.0,89.0
37,41.68750694791667,41.96607842291667,67.0,85.0
38,42.116078447916664,42.464292791666665,59.0,93.0
39,42.54464994791667,42.876792860416664,61.0,95.0
40,42.973221447916664,44.51072170416667,62.0,85.0
41,45.97322194791667,46.33036486458333,57.0,88.0
42,46.40179344791667,47.078579275,66.0,94.0
43,47.25893644791667,47.6678650875,66.0,94.0
44,47.687507947916664,48.00357942916666,62.0,83.0
45,48.11607944791667,48.44643664583333,64.0,90.0
46,48.544650947916665,48.93750815625,62.0,90.0
47,48.97322244791667,49.546436829166666,61.0,94.0
48,49.61607969791667,51.796437204166665,62.0,89.0
49,52.83036594791667,53.16072314583333,62.0,89.0
50,53.258937447916665,53.93929470416667,67.0,86.0
51,54.116080447916666,54.50893765625,67.0,88.0
52,54.54465194791667,55.01608059791667,66.0,93.0
53,54.973223447916666,55.38036637291667,67.0,87.0
54,55.40179494791667,55.857152166666665,66.0,94.0
55,55.83036644791667,55.97858075833334,67.0,90.0
56,56.04465219791667,56.68572373333333,69.0,93.0
57,56.68750944791667,58.8000098,64.0,91.0
58,58.830366947916666,59.16608128958333,62.0,93.0
59,59.25893844791667,59.591081360416666,61.0,94.0
60,59.687509947916666,59.982152854166664,62.0,94.0
61,60.11608144791667,60.7714387,71.0,87.0
62,60.973224447916664,61.32322450625,71.0,95.0
63,61.40179594791667,61.56965311875,73.0,94.0
64,61.61608169791667,62.13929607083333,76.0,94.0
65,62.25893894791667,62.58393900208333,74.0,94.0
66,62.687510447916665,63.07858194166667,73.0,86.0
67,63.11608194791667,63.489296295833334,71.0,92.0
68,63.544653447916666,64.22679641875,69.0,82.0
69,64.40179644791667,64.55715361666667,69.0,91.0
70,64.61608219791667,65.09108227708333,71.0,90.0
71,65.25893944791666,65.592868075,66.0,88.0
72,65.68751094791666,66.15715388333334,62.0,93.0
73,66.11608244791667,66.535725375,61.0,81.0
74,66.54465394791667,66.97143973333333,62.0,92.0
75,66.97322544791666,68.04108276875,69.0,88.0
76,68.47322569791666,68.59822571875,69.0,86.0
77,68.68751144791666,68.96072577916667,69.0,89.0
78,69.11608294791667,69.39465442291667,67.0,85.0
79,69.54465444791667,69.89286879166667,59.0,93.0
80,69.97322594791666,70.30536886041666,61.0,95.0
81,70.40179744791666,71.93929770416666,62.0,85.0
82,72.97322644791667,73.2535836375,71.0,94.0
83,73.40179794791666,73.7035837125,73.0,93.0
84,73.83036944791667,74.55358385416666,74.0,95.0
85,74.68751244791666,75.37679827708334,78.0,99.0
86,75.54465544791667,75.9535840875,76.0,97.0
87,76.40179844791666,76.7892985125,74.0,90.0
88,76.83036994791667,77.07144141666667,76.0,95.0
89,77.25894144791667,78.01965586041666,69.0,95.0
90,78.11608444791666,78.87679886041667,76.0,94.0
91,78.97322744791667,79.76251329375,74.0,95.0
92,79.83037044791666,80.19108479375,71.0,94.0
93,80.25894194791667,80.61072772083334,73.0,93.0
94,80.68751344791667,81.43394214375,74.0,97.0
95,81.54465644791667,82.38394230208333,78.0,98.0
96,82.40179944791667,83.23751387291667,76.0,95.0
97,83.25894244791667,84.00537114375,74.0,102.0
98,84.11608544791666,86.42858583333333,78.0,93.0
99,86.68751444791667,87.00537164375,71.0,94.0
100,87.11608594791667,87.45180028958333,73.0,93.0
101,87.54465744791666,88.30537186041667,74.0,95.0
102,88.40180044791667,89.10894342291667,78.0,96.0
103,89.25894344791666,89.96965785208333,76.0,94.0
104,90.11608644791667,90.40894363958333,81.0,95.0
105,90.54465794791666,90.84108656875,76.0,95.0
106,90.97322944791667,91.26787235416667,79.0,94.0
107,91.40180094791667,91.60001526666667,78.0,93.0
108,91.61608669791667,91.91965817708333,76.0,93.0
109,92.04465819791666,92.61430115,78.0,94.0
110,92.68751544791667,93.38572985,74.0,97.0
111,93.54465844791666,93.86965850208334,71.0,95.0
112,93.97322994791666,94.34823001041667,73.0,92.0
113,94.40180144791667,95.0678729875,74.0,94.0
114,95.25894444791666,96.11965887708334,78.0,93.0
115,96.11608744791667,96.8893018625,76.0,94.0
116,96.97323044791666,97.61251626875,74.0,95.0
117,97.83037344791667,100.24823099375,74.0,96.0
118,100.83037394791667,101.1964454375,57.0,99.0
119,101.25894544791667,101.93930270416666,66.0,90.0
120,102.11608844791667,102.41073135416667,66.0,94.0
121,102.54465994791667,102.6857314,66.0,86.0
122,102.75894569791667,102.89108857708334,62.0,91.0
123,102.97323144791666,103.28751721458333,64.0,93.0
124,103.40180294791666,103.55001725833333,66.0,92.0
125,103.61608869791667,103.75716015,67.0,89.0
126,103.83037444791667,104.17858879166667,66.0,95.0
127,104.25894594791667,104.678588875,61.0,97.0
128,104.68751744791666,105.57144616666666,62.0,89.0
129,107.68751794791666,108.02858943333334,62.0,94.0
130,108.11608944791666,108.8250181375,67.0,89.0
131,108.97323244791667,109.32501822083333,67.0,90.0
132,109.40180394791666,109.56608968958334,66.0,89.0
133,109.61608969791666,110.23573265833333,67.0,88.0
134,110.25894694791667,110.59466128958333,66.0,94.0
135,110.68751844791667,110.9893042125,67.0,86.0
136,111.11608994791666,111.54109001875,69.0,91.0
137,111.54466144791667,113.13037599791667,64.0,94.0
138,113.68751894791667,114.00180471458333,62.0,94.0
139,114.11609044791666,114.41430478333334,61.0,93.0
140,114.54466194791667,114.71073340416666,62.0,93.0
141,114.75894769791667,115.62680498541667,71.0,94.0
142,115.83037644791666,116.12680506875,71.0,94.0
143,116.25894794791667,116.38751939791666,73.0,88.0
144,116.47323369791667,117.00537664375,76.0,94.0
145,117.11609094791666,117.49644815416667,74.0,93.0
146,117.54466244791666,117.75537676875,73.0,94.0
147,117.75894819791667,118.39823401875,71.0,94.0
148,118.40180544791667,119.10001985,69.0,91.0
149,119.25894844791667,119.39109132708333,69.0,88.0
150,119.47323419791667,120.03930572083334,71.0,93.0
151,120.11609144791667,120.48394865208333,66.0,89.0
152,120.54466294791666,120.89109157708333,62.0,87.0
153,120.97323444791667,121.2857345,61.0,94.0
154,121.40180594791667,121.75894886458333,62.0,87.0
155,121.83037744791666,123.06073479583334,69.0,93.0
156,123.33037769791666,123.45359200416667,69.0,83.0
157,123.54466344791666,123.92323493958334,69.0,93.0
158,123.97323494791667,124.27323499791666,67.0,94.0
159,124.40180644791667,124.69466363958334,78.0,94.0
160,124.83037794791667,125.13930657083333,78.0,93.0
161,125.25894944791666,128.58395000208333,74.0,99.0
162,154.40181144791666,155.31966874375001,74.0,104.0
163,155.25895444791666,156.19109746041667,76.0,97.0
164,156.54466894791668,156.64109753541666,78.0,99.0
165,156.75895469791666,156.87145471666668,78.0,95.0
166,156.97324044791668,157.28395478541665,78.0,97.0
167,157.40181194791666,157.50359767916666,74.0,94.0
168,157.61609769791667,157.72681200208334,74.0,97.0
169,157.83038344791666,158.17145493333334,74.0,104.0
170,158.25895494791666,158.38038353958333,71.0,97.0
171,158.47324069791668,158.59109786041665,71.0,94.0
172,158.68752644791667,158.81609789791668,71.0,100.0
173,158.90181219791666,159.75538376875,78.0,95.0
174,159.97324094791668,160.07859810833332,76.0,94.0
175,160.18752669791667,160.307169575,76.0,94.0
176,160.40181244791665,160.71074107083334,76.0,98.0
177,160.83038394791666,160.94288396666667,76.0,93.0
178,161.04466969791667,161.16074114583333,76.0,88.0
179,161.25895544791666,161.47324119791668,76.0,89.0
180,161.68752694791667,161.83395554375,79.0,94.0
181,161.90181269791665,162.50181279791667,78.0,99.0
182,162.54466994791667,162.89645572083333,73.0,96.0
183,162.97324144791668,164.04109876875,74.0,98.0
184,164.04467019791667,164.16074164583333,71.0,95.0
185,164.25895594791666,164.41609883125,71.0,95.0
186,164.47324169791668,164.62681315208334,73.0,94.0
187,164.68752744791666,165.6535990375,74.0,97.0
188,165.75895619791666,165.86074192916666,71.0,98.0
189,165.97324194791668,166.11788482916666,71.0,94.0
190,166.18752769791666,166.3714563,74.0,94.0
191,166.40181344791668,166.69467063958334,78.0,98.0
192,166.83038494791666,167.08217070416666,76.0,89.0
193,167.25895644791666,167.60717079166668,76.0,94.0
194,167.68752794791666,167.89824226875,74.0,99.0
195,167.90181369791668,168.54109951875,78.0,95.0
196,168.54467094791667,168.84824242708333,76.0,93.0
197,168.97324244791668,169.30895678958333,76.0,95.0
198,169.40181394791668,169.69467113958333,74.0,99.0
199,169.83038544791665,170.1321712125,78.0,95.0
200,170.25895694791666,170.57324271458333,76.0,95.0
201,170.68752844791666,171.064314225,76.0,95.0
202,171.11609994791667,171.28752854791668,74.0,99.0
203,171.33038569791665,172.39824301875,76.0,95.0
204,172.40181444791668,172.6821716375,71.0,94.0
205,172.83038594791665,173.1321717125,73.0,93.0
206,173.25895744791666,173.98217185416667,74.0,95.0
207,174.11610044791666,174.80538627708333,78.0,99.0
208,174.97324344791667,175.3821720875,76.0,97.0
209,175.83038644791668,176.2178865125,74.0,90.0
210,176.25895794791666,176.50002941666668,76.0,95.0
211,176.68752944791666,177.44824386041665,69.0,95.0
212,177.54467244791667,178.30538686041666,76.0,94.0
213,178.40181544791668,179.19110129375,74.0,95.0
214,179.25895844791665,179.61967279375,71.0,94.0
215,179.68752994791666,180.03931572083334,73.0,93.0
216,180.11610144791666,180.86253014375,74.0,97.0
217,180.97324444791667,181.81253030208333,78.0,98.0
218,181.83038744791668,182.66610187291667,76.0,95.0
219,182.68753044791666,183.43395914375,74.0,102.0
220,183.54467344791667,185.85717383333332,78.0,93.0
221,186.11610244791666,186.43395964375,71.0,94.0
222,186.54467394791666,186.88038828958332,73.0,93.0
223,186.97324544791667,187.73395986041666,74.0,95.0
224,187.83038844791668,188.53753142291666,78.0,96.0
225,188.68753144791665,189.39824585208333,76.0,94.0
226,189.54467444791666,189.83753163958335,81.0,95.0
227,189.97324594791667,190.26967456875,76.0,95.0
228,190.40181744791667,190.69646035416667,79.0,94.0
229,190.83038894791667,191.02860326666666,78.0,93.0
230,191.04467469791666,191.34824617708333,76.0,93.0
231,191.47324619791667,192.04288915,78.0,94.0
232,192.11610344791666,192.81431785,74.0,97.0
233,192.97324644791667,193.29824650208334,71.0,95.0
234,193.40181794791667,193.77681801041666,73.0,92.0
235,193.83038944791667,194.4964609875,74.0,94.0
236,194.68753244791668,195.54824687708333,78.0,93.0
237,195.54467544791666,196.3178898625,76.0,94.0
238,196.40181844791667,197.04110426875,74.0,95.0
239,197.25896144791668,199.67681899375,74.0,96.0
240,200.25896194791667,200.61610486458332,57.0,88.0
241,200.68753344791668,201.364319275,66.0,94.0
242,201.54467644791666,201.9536050875,66.0,94.0
243,201.97324794791666,202.28931942916665,62.0,83.0
244,202.40181944791667,202.73217664583333,64.0,90.0
245,202.83039094791667,203.22324815625,62.0,90.0
246,203.25896244791667,203.83217682916666,61.0,94.0
247,203.90181969791666,206.08217720416667,62.0,89.0
248,207.11610594791668,207.44646314583332,62.0,89.0
249,207.54467744791665,208.22503470416666,67.0,86.0
250,208.40182044791666,208.79467765625,67.0,88.0
251,208.83039194791667,209.30182059791667,66.0,93.0
252,209.25896344791667,209.66610637291666,67.0,87.0
253,209.68753494791667,210.14289216666666,66.0,94.0
254,210.11610644791668,210.26432075833333,67.0,90.0
255,210.33039219791667,210.97146373333334,69.0,93.0
256,210.97324944791666,213.0857498,64.0,91.0
257,213.11610694791668,213.45182128958334,62.0,93.0
258,213.54467844791668,213.87682136041667,61.0,94.0
259,213.97324994791666,214.26789285416666,62.0,94.0
260,214.40182144791666,215.0571787,71.0,87.0
261,215.25896444791667,215.60896450625,71.0,95.0
262,215.68753594791667,215.85539311875,73.0,94.0
263,215.90182169791666,216.42503607083333,76.0,94.0
264,216.54467894791668,216.86967900208333,74.0,94.0
265,216.97325044791666,217.36432194166667,73.0,86.0
266,217.40182194791666,217.77503629583333,71.0,92.0
267,217.83039344791666,218.51253641875,69.0,82.0
268,218.68753644791667,218.84289361666666,69.0,91.0
269,218.90182219791666,219.37682227708333,71.0,90.0
270,219.54467944791668,219.878608075,66.0,88.0
271,219.97325094791665,220.44289388333334,62.0,93.0
272,220.40182244791666,220.821465375,61.0,81.0
273,220.83039394791666,221.25717973333334,62.0,92.0
274,221.25896544791667,222.32682276875,69.0,88.0
275,222.75896569791666,222.88396571875,69.0,86.0
276,222.97325144791668,223.24646577916667,69.0,89.0
277,223.40182294791666,223.68039442291666,67.0,85.0
278,223.83039444791666,224.17860879166668,59.0,93.0
279,224.25896594791666,224.59110886041665,61.0,95.0
280,224.68753744791667,226.22503770416668,62.0,85.0
281,226.83039494791666,227.16610928958335,62.0,93.0
282,227.25896644791666,227.59110936041668,61.0,94.0
283,227.68753794791667,227.98218085416667,62.0,94.0
284,228.11610944791667,228.7714667,71.0,87.0
285,228.97325244791668,229.32325250625001,71.0,95.0
286,229.40182394791665,229.56968111875,73.0,94.0
287,229.61610969791667,230.13932407083334,76.0,94.0
288,230.25896694791666,230.58396700208334,74.0,94.0
289,230.68753844791667,231.07860994166666,73.0,86.0
290,231.11610994791667,231.48932429583334,71.0,92.0
291,231.54468144791667,232.22682441875,69.0,82.0
292,232.40182444791668,232.55718161666667,69.0,91.0
293,232.61611019791667,233.09111027708335,71.0,90.0
294,233.25896744791666,233.592896075,66.0,88.0
295,233.68753894791666,234.15718188333332,62.0,93.0
296,234.11611044791667,234.535753375,61.0,81.0
297,234.54468194791667,234.97146773333333,62.0,92.0
298,234.97325344791668,236.04111076875,69.0,88.0
299,236.47325369791668,236.81968232708334,69.0,94.0
300,236.90182519791668,237.36253956041668,69.0,97.0
301,237.32861098333333,238.01611109791668,67.0,94.0
302,238.1143254,239.93932570416666,59.0,94.0
303,240.0107542875,241.0178973125,61.0,89.0
304,241.01611159791668,244.350040725,62.0,91.0
