,start,end,pitch,velocity
0,5.687500947916667,5.9875009979166665,62.0,85.0
1,5.901786697916667,6.382143920833333,64.0,93.0
2,5.258929447916667,6.807143991666667,50.0,94.0
3,5.473215197916667,6.853572570833333,57.0,80.0
4,6.3303581979166665,7.0375011729166665,66.0,86.0
5,6.973215447916667,7.69821556875,69.0,89.0
6,7.616072697916667,7.99821561875,62.0,87.0
7,8.044644197916666,8.339287104166667,66.0,96.0
8,6.973215447916667,8.36250139375,50.0,91.0
9,7.4017869479166665,8.766072889583333,57.0,64.0
10,8.687501447916667,9.32678726875,64.0,94.0
11,9.116072947916667,9.855358785416668,57.0,78.0
12,8.687501447916667,9.914287366666667,49.0,86.0
13,9.330358697916667,10.18393026875,64.0,86.0
14,9.758930197916667,10.39821601875,67.0,86.0
15,10.830358947916666,10.844644664583333,54.0,79.0
16,11.044644697916667,11.516073347916667,58.0,87.0
17,10.401787447916666,11.5607162125,42.0,89.0
18,10.616073197916666,11.562501927083334,49.0,76.0
19,11.473216197916667,11.762501960416667,61.0,91.0
20,12.116073447916667,12.585716383333333,59.0,75.0
21,12.116073447916667,12.817859279166667,62.0,71.0
22,12.544644947916666,13.185716483333334,54.0,72.0
23,12.758930697916666,13.214287916666667,59.0,89.0
24,12.116073447916667,13.32321650625,47.0,94.0
25,13.401787947916667,13.6821451375,59.0,86.0
26,13.187502197916666,13.689287995833334,66.0,95.0
27,13.616073697916667,14.125002354166666,62.0,84.0
28,14.258930947916667,14.553573854166666,57.0,84.0
29,14.473216697916667,14.878573908333333,62.0,89.0
30,14.901788197916666,15.169645385416667,64.0,89.0
31,14.044645197916667,15.17678824375,52.0,81.0
32,13.830359447916667,15.285716833333334,45.0,92.0
33,15.116073947916666,15.469645435416666,62.0,85.0
34,15.973216947916667,16.607145625,55.0,84.0
35,16.187502697916667,16.76250279375,58.0,85.0
36,15.758931197916667,17.058931414583334,50.0,79.0
37,15.544645447916666,17.096431420833333,43.0,92.0
38,16.616074197916667,17.216074297916666,62.0,89.0
39,17.044645697916668,17.24286001666667,55.0,86.0
40,16.830359947916666,17.4964314875,67.0,87.0
41,17.687502947916666,18.130360164583333,57.0,87.0
42,17.90178869791667,18.328574483333334,62.0,91.0
43,18.330360197916665,18.483931652083335,64.0,89.0
44,17.473217197916668,18.582145954166666,52.0,81.0
45,17.258931447916666,18.6857174,45.0,94.0
46,19.616074697916666,20.058931914583333,62.0,89.0
47,18.973217447916667,20.353574820833334,50.0,95.0
48,20.044646197916666,20.473217697916667,64.0,94.0
49,20.473217697916667,20.712503452083332,66.0,75.0
50,19.401788947916668,20.7535748875,57.0,78.0
51,20.687503447916665,20.93036063125,64.0,92.0
52,21.116074947916665,21.698217902083332,57.0,77.0
53,21.544646447916666,21.737503622916666,61.0,89.0
54,20.687503447916665,21.75536076875,49.0,86.0
55,21.544646447916666,21.89464650625,64.0,89.0
56,22.401789447916666,22.892860958333333,59.0,80.0
57,22.401789447916666,23.09464670625,62.0,85.0
58,22.830360947916667,23.478575341666666,54.0,79.0
59,23.044646697916665,23.521432491666665,59.0,93.0
60,22.401789447916666,23.583932502083332,47.0,89.0
61,23.473218197916665,23.64107536875,66.0,92.0
62,24.116075447916668,24.68928982916667,61.0,81.0
63,24.116075447916668,24.75536126875,64.0,81.0
64,24.116075447916668,24.83393271041667,57.0,80.0
65,24.544646947916668,25.246432779166668,52.0,75.0
66,24.97321844791667,25.3821470875,61.0,83.0
67,24.97321844791667,25.385718516666667,69.0,93.0
68,24.97321844791667,25.400004233333334,64.0,94.0
69,24.116075447916668,25.410718520833335,45.0,89.0
70,25.401789947916665,25.530361397916668,57.0,95.0
71,25.830361447916665,26.507147275,59.0,85.0
72,25.830361447916665,26.537504422916665,55.0,83.0
73,25.830361447916665,26.9035759125,43.0,93.0
74,26.258932947916666,26.916075914583335,50.0,85.0
75,26.473218697916668,26.99464735625,62.0,91.0
76,27.116075947916666,27.314290266666667,55.0,94.0
77,26.901790197916668,27.316075981250002,67.0,93.0
78,27.973218947916667,28.264290425,54.0,79.0
79,28.187504697916665,28.648219060416668,57.0,88.0
80,27.758933197916665,28.6607190625,49.0,81.0
81,27.544647447916667,28.667861920833335,42.0,94.0
82,28.616076197916666,28.80536194375,61.0,94.0
83,29.68750494791667,30.253576470833334,52.0,90.0
84,29.473219197916666,30.266076472916666,47.0,81.0
85,29.258933447916668,30.314290766666666,40.0,89.0
86,29.901790697916667,30.400005066666665,59.0,93.0
87,30.330362197916667,30.60536224375,64.0,97.0
88,30.544647947916665,30.6107193875,59.0,57.0
89,30.544647947916665,30.792862275,52.0,97.0
90,30.758933697916667,31.201790914583334,64.0,94.0
91,31.401790947916666,31.650005275,57.0,94.0
92,31.616076697916668,31.778576725,59.0,89.0
93,31.830362447916666,31.978576758333332,61.0,97.0
94,32.044648197916665,32.18750536458333,62.0,94.0
95,31.187505197916668,32.237505372916665,52.0,89.0
96,30.973219447916666,32.32857681666667,45.0,94.0
97,32.25893394791667,32.516076847916665,64.0,95.0
98,32.687505447916664,33.11250551875,62.0,84.0
99,32.687505447916664,33.31250555208333,67.0,84.0
100,33.33036269791667,33.86607707291667,62.0,89.0
101,33.758934197916666,34.050005675,67.0,81.0
102,33.11607694791667,34.2000057,50.0,79.0
103,33.97321994791667,34.257148566666665,71.0,89.0
104,32.687505447916664,34.294648572916664,43.0,93.0
105,34.18750569791667,34.32857715,62.0,71.0
106,34.83036294791667,35.478577341666664,57.0,89.0
107,35.044648697916664,35.562505927083336,61.0,100.0
108,34.61607719791667,35.68393451875,52.0,85.0
109,34.401791447916665,35.7107202375,45.0,94.0
110,35.47322019791667,35.816077397916665,69.0,95.0
111,35.68750594791667,35.9892917125,61.0,85.0
112,36.116077447916666,36.35536320208333,57.0,82.0
113,36.116077447916666,36.59822038541667,61.0,87.0
114,36.54464894791667,37.04643474583333,57.0,84.0
115,36.33036319791667,37.207149058333336,49.0,79.0
116,36.116077447916666,37.221434775,42.0,93.0
117,36.758934697916665,37.221434775,61.0,94.0
118,37.18750619791667,37.62322055625,66.0,95.0
119,37.401791947916664,37.66607770625,57.0,87.0
120,37.616077697916666,37.74822057708333,61.0,90.0
121,37.83036344791667,38.37143496666667,59.0,86.0
122,37.83036344791667,38.391077827083336,62.0,91.0
123,38.258934947916664,38.79107789375,54.0,76.0
124,38.68750644791667,38.86964933541667,59.0,88.0
125,37.83036344791667,38.93036363125,47.0,93.0
126,38.68750644791667,39.030363647916666,66.0,88.0
127,38.68750644791667,39.041077935416666,62.0,92.0
128,39.54464944791667,39.96072094583333,67.0,89.0
129,40.18750669791667,40.555363902083336,64.0,94.0
130,39.973220947916666,40.578578191666665,59.0,92.0
131,39.758935197916664,40.942863966666664,47.0,78.0
132,40.830363947916666,41.012506835416666,59.0,92.0
133,40.616078197916664,41.016078264583335,67.0,94.0
134,39.54464944791667,41.057149700000004,40.0,94.0
135,41.25893544791667,41.50536406041667,57.0,84.0
136,41.25893544791667,41.900006983333334,64.0,87.0
137,41.68750694791667,42.319649910416665,57.0,92.0
138,41.90179269791667,42.407149925,61.0,94.0
139,42.54464994791667,42.7607214125,57.0,93.0
140,41.473221197916665,42.8035785625,52.0,82.0
141,41.25893544791667,42.864292858333336,45.0,88.0
142,42.330364197916666,42.88215000416667,69.0,94.0
143,42.973221447916664,43.37679294375,59.0,88.0
144,42.973221447916664,43.43393581041666,62.0,90.0
145,42.973221447916664,43.59465012291667,67.0,91.0
146,43.61607869791667,43.735721575,59.0,94.0
147,43.830364447916665,44.064293058333334,62.0,86.0
148,43.830364447916665,44.09465020625,66.0,94.0
149,43.40179294791667,44.208935939583334,50.0,76.0
150,42.973221447916664,44.28393595208333,43.0,94.0
151,44.25893594791667,44.62322172291667,64.0,95.0
152,44.687507447916666,44.783936035416666,38.0,97.0
153,44.687507447916666,45.32500755416667,62.0,91.0
154,45.544650447916666,45.789293345833336,62.0,91.0
155,45.75893619791667,45.89643622083334,64.0,91.0
156,45.97322194791667,46.26607913958333,66.0,92.0
157,45.330364697916664,46.539293470833336,57.0,93.0
158,45.11607894791667,46.54822204375,50.0,93.0
159,46.40179344791667,46.54822204375,50.0,95.0
160,47.044650697916666,47.48750791458333,62.0,89.0
161,47.47322219791667,47.901793697916666,64.0,94.0
162,47.901793697916666,48.14107945208333,66.0,75.0
163,46.830364947916664,48.1821508875,57.0,78.0
164,48.11607944791667,48.35893663125,64.0,92.0
165,48.544650947916665,49.126793902083335,57.0,77.0
166,48.97322244791667,49.16607962291667,61.0,89.0
167,48.11607944791667,49.18393676875,49.0,86.0
168,48.97322244791667,49.32322250625,64.0,89.0
169,49.83036544791667,50.32143695833334,59.0,80.0
170,49.83036544791667,50.52322270625,62.0,85.0
171,50.258936947916666,50.90715134166667,54.0,79.0
172,50.47322269791667,50.950008491666665,59.0,93.0
173,49.83036544791667,51.012508502083335,47.0,89.0
174,50.901794197916665,51.06965136875,66.0,92.0
175,51.544651447916664,52.11786582916667,61.0,81.0
176,51.544651447916664,52.18393726875,64.0,81.0
177,51.544651447916664,52.26250871041667,57.0,80.0
178,51.97322294791667,52.67500877916667,52.0,75.0
179,52.401794447916664,52.8107230875,61.0,83.0
180,52.401794447916664,52.81429451666666,69.0,93.0
181,52.401794447916664,52.828580233333334,64.0,94.0
182,51.544651447916664,52.839294520833334,45.0,89.0
183,52.83036594791667,52.958937397916664,57.0,95.0
184,53.258937447916665,53.935723275,59.0,85.0
185,53.258937447916665,53.96608042291667,55.0,83.0
186,53.258937447916665,54.3321519125,43.0,93.0
187,53.68750894791667,54.34465191458333,50.0,85.0
188,53.901794697916664,54.42322335625,62.0,91.0
189,54.54465194791667,54.74286626666667,55.0,94.0
190,54.33036619791667,54.74465198125,67.0,93.0
191,55.40179494791667,55.692866425,54.0,79.0
192,55.616080697916665,56.076795060416664,57.0,88.0
193,55.18750919791667,56.0892950625,49.0,81.0
194,54.973223447916666,56.09643792083333,42.0,94.0
195,56.04465219791667,56.23393794375,61.0,94.0
196,57.116080947916664,57.68215247083333,52.0,90.0
197,56.90179519791667,57.694652472916665,47.0,81.0
198,56.68750944791667,57.742866766666666,40.0,89.0
199,57.330366697916666,57.828581066666665,59.0,93.0
200,57.75893819791667,58.03393824375,64.0,97.0
201,57.973223947916665,58.0392953875,59.0,57.0
202,57.973223947916665,58.221438275,52.0,97.0
203,58.18750969791667,58.630366914583334,64.0,94.0
204,58.830366947916666,59.078581275,57.0,94.0
205,59.04465269791667,59.207152725,59.0,89.0
206,59.25893844791667,59.40715275833333,61.0,97.0
207,59.473224197916664,59.61608136458333,62.0,94.0
208,58.616081197916664,59.666081372916665,52.0,89.0
209,58.40179544791667,59.75715281666667,45.0,94.0
210,59.687509947916666,59.944652847916664,64.0,95.0
211,60.11608144791667,60.54108151875,62.0,84.0
212,60.11608144791667,60.74108155208334,67.0,84.0
213,60.75893869791667,61.29465307291667,62.0,89.0
214,61.187510197916666,61.478581675,67.0,81.0
215,60.54465294791667,61.6285817,50.0,79.0
216,61.40179594791667,61.685724566666664,71.0,89.0
217,60.11608144791667,61.72322457291666,43.0,93.0
218,61.61608169791667,61.75715315,62.0,71.0
219,62.25893894791667,62.907153341666664,57.0,89.0
220,62.47322469791667,62.991081927083336,61.0,100.0
221,62.044653197916666,63.11251051875,52.0,85.0
222,61.830367447916665,63.1392962375,45.0,94.0
223,62.90179619791667,63.244653397916665,69.0,95.0
224,63.11608194791667,63.4178677125,61.0,85.0
225,63.544653447916666,63.78393920208333,57.0,82.0
226,63.544653447916666,64.02679638541667,61.0,87.0
227,63.97322494791667,64.47501074583333,57.0,84.0
228,63.75893919791667,64.63572505833334,49.0,79.0
229,63.544653447916666,64.650010775,42.0,93.0
230,64.18751069791666,64.650010775,61.0,94.0
231,64.61608219791667,65.05179655625,66.0,95.0
232,64.83036794791667,65.09465370625,57.0,87.0
233,65.04465369791667,65.17679657708334,61.0,90.0
234,65.25893944791666,65.80001096666666,59.0,86.0
235,65.25893944791666,65.81965382708333,62.0,91.0
236,65.68751094791666,66.21965389375,54.0,76.0
237,66.11608244791667,66.29822533541666,59.0,88.0
238,65.25893944791666,66.35893963125,47.0,93.0
239,66.11608244791667,66.45893964791667,66.0,88.0
240,66.11608244791667,66.46965393541667,62.0,92.0
241,66.97322544791666,67.38929694583334,67.0,89.0
242,67.61608269791667,67.98393990208334,64.0,94.0
243,67.40179694791667,68.00715419166667,59.0,92.0
244,67.18751119791666,68.37143996666667,47.0,78.0
245,68.25893994791667,68.44108283541667,59.0,92.0
246,68.04465419791667,68.44465426458333,67.0,94.0
247,66.97322544791666,68.4857257,40.0,94.0
248,68.68751144791666,68.93394006041666,57.0,84.0
249,68.68751144791666,69.32858298333333,64.0,87.0
250,69.11608294791667,69.74822591041666,57.0,92.0
251,69.33036869791667,69.835725925,61.0,94.0
252,69.97322594791666,70.1892974125,57.0,93.0
253,68.90179719791666,70.2321545625,52.0,82.0
254,68.68751144791666,70.29286885833334,45.0,88.0
255,69.75894019791667,70.31072600416667,69.0,94.0
256,70.40179744791666,70.60179748125,62.0,91.0
257,70.40179744791666,70.60358319583334,74.0,95.0
258,70.40179744791666,70.67144035,38.0,99.0
259,70.83036894791667,70.95715468333333,38.0,74.0
260,70.83036894791667,70.98036897291666,45.0,76.0
261,70.83036894791667,70.98572611666667,61.0,90.0
262,70.83036894791667,70.98929754583334,73.0,79.0
263,71.25894044791667,71.46251191041667,38.0,96.0
264,71.25894044791667,71.46251191041667,45.0,92.0
265,71.25894044791667,71.50001191666667,62.0,91.0
266,71.25894044791667,71.50358334583333,74.0,100.0
267,71.68751194791666,71.75179767291667,36.0,87.0
268,71.68751194791666,71.80179768125,64.0,95.0
269,71.68751194791666,71.81251196875,76.0,95.0
270,71.68751194791666,71.83215482916667,45.0,92.0
271,71.68751194791666,71.86251197708333,38.0,94.0
272,72.11608344791667,72.31429776666667,78.0,93.0
273,72.11608344791667,72.33394062708334,66.0,93.0
274,72.11608344791667,72.33929777083334,38.0,102.0
275,72.54465494791667,72.71251211875,45.0,90.0
276,72.54465494791667,72.71608354791667,38.0,94.0
277,72.54465494791667,72.74644069583333,67.0,93.0
278,72.54465494791667,72.77858355833334,79.0,93.0
279,72.97322644791667,73.11786932916667,81.0,97.0
280,72.97322644791667,73.15001219166666,69.0,100.0
281,72.97322644791667,73.20536934375001,45.0,96.0
282,72.97322644791667,73.20715505833333,38.0,100.0
283,73.40179794791666,73.51429796666666,45.0,93.0
284,73.40179794791666,73.53394082708333,38.0,95.0
285,73.40179794791666,73.58036940625,62.0,95.0
286,73.40179794791666,73.58394083541667,74.0,99.0
287,73.83036944791667,74.06429805833334,55.0,92.0
288,73.83036944791667,74.2821552375,67.0,90.0
289,74.25894094791667,74.5392981375,55.0,89.0
290,74.47322669791667,74.6571553,62.0,94.0
291,74.90179819791666,75.03751250625,55.0,94.0
292,74.90179819791666,75.150012525,67.0,93.0
293,74.04465519791667,75.33751255625,50.0,86.0
294,75.11608394791666,75.38929827916667,62.0,91.0
295,73.83036944791667,75.40536971041666,43.0,94.0
296,75.33036969791667,75.47144115,55.0,84.0
297,75.54465544791667,75.68929832916666,67.0,74.0
298,75.54465544791667,75.79822691875,55.0,94.0
299,75.54465544791667,75.99286980833334,62.0,93.0
300,75.97322694791667,76.28394128541667,55.0,89.0
301,76.18751269791667,76.47679846041666,62.0,89.0
302,76.61608419791666,76.73215564583333,55.0,91.0
303,75.75894119791667,76.74108421875,50.0,92.0
304,75.54465544791667,76.78394136875,43.0,91.0
305,76.61608419791666,76.80358422916667,62.0,94.0
306,76.61608419791666,76.85179852291667,67.0,90.0
307,77.25894144791667,77.4321557625,57.0,86.0
308,77.25894144791667,77.63394151041666,61.0,88.0
309,77.68751294791667,77.98572728333333,57.0,90.0
310,77.90179869791666,78.04287015,61.0,99.0
311,78.33037019791666,78.35894163125,61.0,93.0
312,77.25894144791667,78.40358449583333,42.0,94.0
313,77.47322719791667,78.42144164166666,49.0,83.0
314,78.33037019791666,78.47858450833333,57.0,93.0
315,78.54465594791667,78.707155975,57.0,81.0
316,78.33037019791666,78.82322742291667,66.0,96.0
317,78.97322744791667,79.48751324791667,59.0,88.0
318,78.97322744791667,79.49465610625,62.0,89.0
319,79.40179894791666,79.90358474583333,54.0,91.0
320,79.83037044791666,80.04108476875,59.0,94.0
321,79.83037044791666,80.078584775,62.0,97.0
322,78.97322744791667,80.12322763958333,47.0,94.0
323,80.04465619791667,80.17679907708333,54.0,94.0
324,79.83037044791666,80.17858479166667,66.0,95.0
325,80.25894194791667,80.55358485416667,59.0,95.0
326,80.47322769791667,80.58929914583334,62.0,81.0
327,80.68751344791667,80.892870625,59.0,88.0
328,80.68751344791667,81.0321563625,64.0,93.0
329,81.11608494791666,81.55537073541667,59.0,93.0
330,81.33037069791666,81.63394217708333,64.0,91.0
331,80.90179919791667,81.84465649791667,47.0,91.0
332,81.75894219791667,81.91251365208333,59.0,94.0
333,80.68751344791667,81.91787079583334,40.0,95.0
334,81.75894219791667,82.01965652708333,67.0,92.0
335,81.97322794791667,82.24465656458334,64.0,89.0
336,82.18751369791667,82.3714423,59.0,95.0
337,82.83037094791666,83.29108531041666,57.0,93.0
338,83.04465669791666,83.35179960625,61.0,97.0
339,83.47322819791667,83.62144250833333,62.0,93.0
340,82.61608519791666,83.82501397083334,52.0,86.0
341,83.68751394791667,83.86608540625,64.0,93.0
342,82.40179944791667,83.97144256666667,45.0,94.0
343,84.11608544791666,84.621442675,50.0,98.0
344,84.11608544791666,84.6321569625,66.0,96.0
345,84.54465694791666,84.99287130833333,54.0,97.0
346,84.75894269791667,85.06787132083333,57.0,93.0
347,84.97322844791667,85.12679990208333,50.0,95.0
348,85.18751419791667,85.26251421041667,57.0,86.0
349,85.18751419791667,85.47144281666667,62.0,97.0
350,85.61608569791667,85.72858571666667,57.0,90.0
351,85.18751419791667,85.74822857708334,66.0,95.0
352,85.83037144791666,86.09108577708334,57.0,88.0
353,85.83037144791666,86.31787152916667,60.0,93.0
354,85.83037144791666,86.34108581875,66.0,96.0
355,86.25894294791667,86.35001439166666,57.0,85.0
356,86.47322869791667,86.69465730625,57.0,94.0
357,86.47322869791667,86.70537159375,60.0,100.0
358,85.83037144791666,86.88394305208334,38.0,98.0
359,86.68751444791667,86.95180020625,45.0,94.0
360,86.47322869791667,86.9893002125,66.0,96.0
361,86.90180019791667,87.10180023125,57.0,97.0
362,87.11608594791667,87.23930025416666,62.0,82.0
363,87.54465744791666,87.79822891875,55.0,93.0
364,87.54465744791666,87.86251464375,59.0,94.0
365,87.97322894791667,88.10537182708333,55.0,94.0
366,87.75894319791666,88.24465756458333,50.0,93.0
367,88.18751469791667,88.48215760416667,55.0,94.0
368,88.18751469791667,88.4893004625,62.0,94.0
369,88.40180044791667,88.735729075,50.0,88.0
370,88.61608619791667,88.73751478958333,55.0,90.0
371,87.54465744791666,88.75894336458333,43.0,93.0
372,88.61608619791667,88.77144336666667,59.0,90.0
373,88.61608619791667,88.80537194375,62.0,93.0
374,89.25894344791666,89.48037205625,55.0,93.0
375,89.25894344791666,89.57858635833334,67.0,90.0
376,89.68751494791667,90.12680073541667,55.0,93.0
377,89.90180069791667,90.18394360208333,59.0,94.0
378,89.47322919791667,90.36787220416667,50.0,87.0
379,90.33037219791667,90.5678722375,55.0,94.0
380,89.25894344791666,90.60715795833333,43.0,94.0
381,90.33037219791667,90.6107293875,62.0,96.0
382,90.54465794791666,90.65001510833333,50.0,94.0
383,90.97322944791667,91.32322950625,57.0,87.0
384,90.97322944791667,91.435729525,61.0,86.0
385,91.40180094791667,91.75001529166667,49.0,81.0
386,90.97322944791667,91.88394388541667,42.0,104.0
387,91.61608669791667,91.93215817916666,57.0,93.0
388,91.83037244791667,91.97680104375,49.0,88.0
389,91.61608669791667,92.00537247708333,66.0,90.0
390,92.04465819791666,92.25537251875,61.0,110.0
391,92.25894394791666,92.40358682916667,57.0,94.0
392,92.68751544791667,92.93037263125,59.0,87.0
393,92.68751544791667,93.02680121875,62.0,90.0
394,93.33037269791667,93.3750155625,62.0,80.0
395,93.11608694791667,93.40180128125,59.0,95.0
396,93.33037269791667,93.55537273541667,66.0,100.0
397,92.90180119791667,93.77501562916666,54.0,88.0
398,92.68751544791667,93.91608708125,47.0,93.0
399,93.54465844791666,93.97858709166667,71.0,95.0
400,93.75894419791666,94.03572995833333,66.0,104.0
401,93.97322994791666,94.27680142708333,59.0,96.0
402,94.40180144791667,94.61430148333334,59.0,86.0
403,94.40180144791667,94.73037293125,64.0,92.0
404,94.83037294791667,95.15001585833333,59.0,93.0
405,95.04465869791667,95.30537302708333,64.0,95.0
406,94.61608719791667,95.4535873375,47.0,87.0
407,94.40180144791667,95.48751591458333,40.0,94.0
408,95.47323019791666,95.54287306666667,59.0,91.0
409,95.47323019791666,95.68037308958333,64.0,95.0
410,95.47323019791666,95.88930169583334,67.0,92.0
411,95.68751594791667,96.07323029791667,59.0,94.0
412,95.90180169791667,96.11251601875,64.0,89.0
413,96.54465894791667,96.85894471458333,57.0,93.0
414,96.33037319791667,96.878587575,52.0,87.0
415,96.75894469791666,96.89108757708334,61.0,94.0
416,96.11608744791667,96.9321590125,45.0,94.0
417,96.97323044791666,97.24287335,49.0,110.0
418,96.97323044791666,97.33573050833333,61.0,90.0
419,97.18751619791666,97.40894480625,52.0,94.0
420,97.40180194791667,97.72323057291666,57.0,94.0
421,97.61608769791667,97.75537343541667,61.0,95.0
422,97.83037344791667,98.30894495625,62.0,93.0
423,98.25894494791666,98.7107307375,55.0,95.0
424,98.47323069791666,98.76251646041666,58.0,95.0
425,98.90180219791667,99.08930222916666,55.0,89.0
426,98.04465919791667,99.20180224791666,50.0,84.0
427,98.90180219791667,99.24287368333333,58.0,89.0
428,98.90180219791667,99.24287368333333,62.0,93.0
429,97.83037344791667,99.2893022625,43.0,95.0
430,99.54465944791667,99.84287378333333,57.0,85.0
431,99.54465944791667,99.95894523125,62.0,88.0
432,99.54465944791667,101.20358829583333,50.0,93.0
433,100.40180244791667,101.22144544166667,62.0,91.0
434,100.83037394791667,101.23037401458333,57.0,85.0
435,100.40180244791667,101.23751687291667,66.0,82.0
436,101.90180269791666,102.34465991458333,62.0,89.0
437,101.25894544791667,102.63930282083334,50.0,95.0
438,102.33037419791667,102.75894569791667,64.0,94.0
439,102.75894569791667,102.99823145208333,66.0,75.0
440,101.68751694791666,103.0393028875,57.0,78.0
441,102.97323144791666,103.21608863125,64.0,92.0
442,103.40180294791666,103.98394590208333,57.0,77.0
443,103.83037444791667,104.02323162291667,61.0,89.0
444,102.97323144791666,104.04108876875,49.0,86.0
445,103.83037444791667,104.18037450625,64.0,89.0
446,104.68751744791666,105.17858895833334,59.0,80.0
447,104.68751744791666,105.38037470625,62.0,85.0
448,105.11608894791667,105.76430334166666,54.0,79.0
449,105.33037469791667,105.80716049166666,59.0,93.0
450,104.68751744791666,105.86966050208333,47.0,89.0
451,105.75894619791667,105.92680336875,66.0,92.0
452,106.40180344791666,106.97501782916666,61.0,81.0
453,106.40180344791666,107.04108926875,64.0,81.0
454,106.40180344791666,107.11966071041667,57.0,80.0
455,106.83037494791667,107.53216077916667,52.0,75.0
456,107.25894644791667,107.6678750875,61.0,83.0
457,107.25894644791667,107.67144651666666,69.0,93.0
458,107.25894644791667,107.68573223333334,64.0,94.0
459,106.40180344791666,107.69644652083333,45.0,89.0
460,107.68751794791666,107.81608939791667,57.0,95.0
461,108.11608944791666,108.792875275,59.0,85.0
462,108.11608944791666,108.82323242291666,55.0,83.0
463,108.11608944791666,109.1893039125,43.0,93.0
464,108.54466094791667,109.20180391458334,50.0,85.0
465,108.75894669791667,109.28037535625,62.0,91.0
466,109.40180394791666,109.60001826666667,55.0,94.0
467,109.18751819791667,109.60180398125,67.0,93.0
468,110.25894694791667,110.550018425,54.0,79.0
469,110.47323269791667,110.93394706041667,57.0,88.0
470,110.04466119791667,110.9464470625,49.0,81.0
471,109.83037544791667,110.95358992083334,42.0,94.0
472,110.90180419791666,111.09108994375,61.0,94.0
473,111.97323294791667,112.53930447083333,52.0,90.0
474,111.75894719791667,112.55180447291667,47.0,81.0
475,111.54466144791667,112.60001876666666,40.0,89.0
476,112.18751869791667,112.68573306666667,59.0,93.0
477,112.61609019791666,112.89109024375,64.0,97.0
478,112.83037594791666,112.8964473875,59.0,57.0
479,112.83037594791666,113.078590275,52.0,97.0
480,113.04466169791667,113.48751891458333,64.0,94.0
481,113.68751894791667,113.935733275,57.0,94.0
482,113.90180469791666,114.064304725,59.0,89.0
483,114.11609044791666,114.26430475833334,61.0,97.0
484,114.33037619791666,114.47323336458334,62.0,94.0
485,113.47323319791667,114.52323337291666,52.0,89.0
486,113.25894744791667,114.61430481666666,45.0,94.0
487,114.54466194791667,114.80180484791667,64.0,95.0
488,114.97323344791667,115.39823351875,62.0,84.0
489,114.97323344791667,115.59823355208333,67.0,84.0
490,115.61609069791666,116.15180507291667,62.0,89.0
491,116.04466219791667,116.335733675,67.0,81.0
492,115.40180494791667,116.4857337,50.0,79.0
493,116.25894794791667,116.54287656666666,71.0,89.0
494,114.97323344791667,116.58037657291666,43.0,93.0
495,116.47323369791667,116.61430515,62.0,71.0
496,117.11609094791666,117.76430534166667,57.0,89.0
497,117.33037669791666,117.84823392708333,61.0,100.0
498,116.90180519791667,117.96966251875,52.0,85.0
499,116.68751944791667,117.9964482375,45.0,94.0
500,117.75894819791667,118.10180539791666,69.0,95.0
501,117.97323394791667,118.2750197125,61.0,85.0
502,118.40180544791667,118.64109120208333,57.0,82.0
503,118.40180544791667,118.88394838541667,61.0,87.0
504,118.83037694791666,119.33216274583333,57.0,84.0
505,118.61609119791666,119.49287705833333,49.0,79.0
506,118.40180544791667,119.507162775,42.0,93.0
507,119.04466269791666,119.507162775,61.0,94.0
508,119.47323419791667,119.90894855625,66.0,95.0
509,119.68751994791667,119.95180570625,57.0,87.0
510,119.90180569791667,120.03394857708334,61.0,90.0
511,120.11609144791667,120.65716296666666,59.0,86.0
512,120.11609144791667,120.67680582708333,62.0,91.0
513,120.54466294791666,121.07680589375,54.0,76.0
514,120.97323444791667,121.15537733541667,59.0,88.0
515,120.11609144791667,121.21609163125,47.0,93.0
516,120.97323444791667,121.31609164791666,66.0,88.0
517,120.97323444791667,121.32680593541667,62.0,92.0
518,121.83037744791666,122.24644894583334,67.0,89.0
519,122.47323469791667,122.84109190208333,64.0,94.0
520,122.25894894791666,122.86430619166667,59.0,92.0
521,122.04466319791666,123.22859196666667,47.0,78.0
522,123.11609194791667,123.29823483541666,59.0,92.0
523,122.90180619791667,123.30180626458333,67.0,94.0
524,121.83037744791666,123.3428777,40.0,94.0
525,123.54466344791666,123.79109206041667,57.0,84.0
526,123.54466344791666,124.18573498333333,64.0,87.0
527,123.97323494791667,124.60537791041666,57.0,92.0
528,124.18752069791667,124.692877925,61.0,94.0
529,124.83037794791667,125.0464494125,57.0,93.0
530,123.75894919791666,125.0893065625,52.0,82.0
531,123.54466344791666,125.15002085833333,45.0,88.0
532,124.61609219791667,125.16787800416667,69.0,94.0
533,125.25894944791666,125.66252094375,59.0,88.0
534,125.25894944791666,125.71966381041666,62.0,90.0
535,125.25894944791666,125.88037812291667,67.0,91.0
536,125.90180669791667,126.021449575,59.0,94.0
537,126.11609244791667,126.35002105833334,62.0,86.0
538,126.11609244791667,126.38037820625,66.0,94.0
539,125.68752094791667,126.49466393958333,50.0,76.0
540,125.25894944791666,126.56966395208333,43.0,94.0
541,126.54466394791666,126.90894972291667,64.0,95.0
542,126.97323544791666,127.06966403541666,38.0,97.0
543,126.97323544791666,127.61073555416667,62.0,91.0
544,127.83037844791667,128.07502134583333,62.0,91.0
545,128.04466419791666,128.18216422083333,64.0,91.0
546,128.25894994791668,128.55180713958333,66.0,92.0
547,127.40180694791667,128.68395001875,50.0,93.0
548,127.61609269791667,128.68395001875,57.0,93.0
549,128.68752144791668,128.89466433958333,64.0,95.0
550,128.68752144791668,128.90716434166666,60.0,93.0
551,128.68752144791668,128.91609291458334,55.0,89.0
552,128.68752144791668,128.94287863333332,36.0,93.0
553,129.11609294791666,129.30537869375,36.0,80.0
554,129.11609294791666,129.34823584375,64.0,91.0
555,129.33037869791667,129.47145015,55.0,86.0
556,129.54466444791666,129.70895018958333,36.0,89.0
557,129.54466444791666,129.71252161875,60.0,94.0
558,129.54466444791666,129.7714502,64.0,99.0
559,129.75895019791668,129.84823592708332,55.0,80.0
560,129.97323594791666,130.16430740833334,60.0,92.0
561,130.18752169791668,130.28930742916666,55.0,93.0
562,130.40180744791667,130.54109318541666,60.0,94.0
563,130.40180744791667,130.59466462291667,64.0,95.0
564,130.40180744791667,130.64645034583333,36.0,92.0
565,130.61609319791665,130.69109321041665,55.0,84.0
566,130.83037894791667,131.09823613541667,60.0,85.0
567,131.04466469791666,131.16787900416668,55.0,88.0
568,131.25895044791667,131.39109332708333,36.0,92.0
569,131.25895044791667,131.39287904166667,60.0,98.0
570,131.25895044791667,131.45180762291668,64.0,102.0
571,131.47323619791666,131.62859336666668,55.0,94.0
572,131.68752194791668,131.86787912083332,60.0,96.0
573,131.90180769791667,131.97145056666668,55.0,89.0
574,132.11609344791665,132.32859348333332,66.0,80.0
575,132.11609344791665,132.34466491458335,62.0,86.0
576,132.33037919791667,132.47145065,59.0,85.0
577,132.54466494791666,132.72323640625,62.0,88.0
578,132.75895069791667,132.86073642916668,59.0,86.0
579,132.11609344791665,132.87680786041668,47.0,94.0
580,132.97323644791666,133.09466503958333,59.0,93.0
581,132.97323644791666,133.24823649375,62.0,95.0
582,132.97323644791666,133.26787935416667,66.0,93.0
583,133.18752219791668,133.30895078958332,59.0,89.0
584,132.97323644791666,133.50180796458332,54.0,93.0
585,132.97323644791666,133.5107365375,47.0,80.0
586,133.40180794791667,133.59287940833335,62.0,87.0
587,133.61609369791665,133.71787942916666,59.0,82.0
588,133.83037944791667,133.97323661458333,59.0,88.0
589,133.83037944791667,134.09823663541667,66.0,93.0
590,134.04466519791666,134.12502235416667,59.0,84.0
591,133.83037944791667,134.13573664166665,62.0,94.0
592,134.25895094791667,134.48930812916666,62.0,87.0
593,134.04466519791666,134.52680813541667,54.0,73.0
594,133.83037944791667,134.56787957083333,47.0,94.0
595,134.47323669791666,134.57323671458335,59.0,78.0
596,134.68752244791668,134.73930817083334,59.0,83.0
597,134.68752244791668,134.94466534791667,62.0,94.0
598,134.68752244791668,134.95537963541668,54.0,95.0
599,134.68752244791668,134.96609392291666,66.0,95.0
600,134.68752244791668,135.00895107291666,47.0,93.0
601,134.90180819791667,135.03395107708334,59.0,89.0
602,135.11609394791665,135.29823683541667,66.0,90.0
603,135.11609394791665,135.33573684166666,62.0,93.0
604,135.33037969791667,135.42502257083333,59.0,89.0
605,135.54466544791666,135.80537977708335,60.0,95.0
606,135.75895119791667,136.03395124375,57.0,92.0
607,135.54466544791666,136.2321655625,67.0,90.0
608,135.97323694791666,136.26252271041668,60.0,92.0
609,136.18752269791668,136.4678798875,57.0,94.0
610,136.40180844791666,136.65716563333334,60.0,98.0
611,135.97323694791666,136.75537993541667,52.0,87.0
612,136.61609419791668,136.84109423541668,57.0,95.0
613,136.83037994791667,136.99466568958334,60.0,94.0
614,135.54466544791666,137.02323712291667,45.0,92.0
615,136.40180844791666,137.09466570625,67.0,94.0
616,137.04466569791666,137.16609428958333,57.0,88.0
617,137.25895144791667,137.34109431875,57.0,70.0
618,137.25895144791667,137.4321657625,62.0,87.0
619,137.47323719791666,137.69645152083334,57.0,92.0
620,137.25895144791667,137.7535943875,66.0,95.0
621,137.68752294791668,137.93752298958333,60.0,89.0
622,137.25895144791667,138.00716585833334,50.0,93.0
623,137.90180869791666,138.00716585833334,57.0,87.0
624,138.11609444791668,138.17680874375,57.0,93.0
625,138.11609444791668,138.30716590833333,60.0,109.0
626,138.11609444791668,138.44466593125,66.0,98.0
627,138.33038019791667,138.51966594375,57.0,94.0
628,138.54466594791666,138.73395169375,60.0,94.0
629,138.11609444791668,138.76252312708334,50.0,100.0
630,138.75895169791667,138.85538028541666,57.0,95.0
631,138.97323744791666,139.18038033958334,55.0,93.0
632,138.97323744791666,139.21609463125,59.0,94.0
633,139.40180894791666,139.51609468125,55.0,94.0
634,139.83038044791667,139.89823760208333,55.0,93.0
635,139.83038044791667,139.90538046041667,62.0,94.0
636,139.83038044791667,139.907166175,59.0,97.0
637,139.18752319791668,139.91073760416666,50.0,86.0
638,138.97323744791666,140.00716619166667,43.0,95.0
639,140.04466619791665,140.20359479583334,62.0,100.0
640,140.04466619791665,140.22680908541668,59.0,102.0
641,140.04466619791665,140.24466623125,55.0,98.0
642,140.04466619791665,140.26609480625,67.0,95.0
643,140.25895194791667,140.36073767916668,50.0,93.0
644,140.47323769791666,140.50002341666666,59.0,72.0
645,140.47323769791666,140.53573770833333,62.0,82.0
646,140.47323769791666,140.77323774791665,55.0,95.0
647,140.90180919791666,141.03930922083333,62.0,93.0
648,140.90180919791666,141.05716636666668,59.0,93.0
649,140.90180919791666,141.09288065833334,67.0,89.0
650,141.33038069791667,141.35002355833333,59.0,70.0
651,141.33038069791667,141.35716641666667,62.0,71.0
652,141.33038069791667,141.43395214375,55.0,99.0
653,141.54466644791665,141.73395219375,55.0,97.0
654,141.54466644791665,141.75895219791667,62.0,102.0
655,141.54466644791665,141.76609505625,59.0,102.0
656,141.54466644791665,141.78038077291666,67.0,94.0
657,141.11609494791668,141.85180935625,43.0,94.0
658,141.75895219791667,142.11252368541668,50.0,93.0
659,141.97323794791666,142.23930942083334,55.0,94.0
660,142.18752369791667,142.27680942708332,62.0,89.0
661,142.18752369791667,142.30895228958335,59.0,94.0
662,142.40180944791666,142.56609518958334,58.0,86.0
663,142.40180944791666,142.57680947708334,62.0,93.0
664,142.40180944791666,142.63752377291667,65.0,94.0
665,142.83038094791667,143.078595275,53.0,76.0
666,143.04466669791665,143.142881,70.0,94.0
667,143.04466669791665,143.14466671458334,65.0,88.0
668,142.40180944791666,143.14645242916666,46.0,97.0
669,143.25895244791667,143.37323818125,46.0,91.0
670,143.25895244791667,143.41430961666666,70.0,100.0
671,143.25895244791667,143.44823819375,65.0,94.0
672,143.25895244791667,143.62859536666667,53.0,95.0
673,143.68752394791667,143.764309675,46.0,95.0
674,143.90180969791666,144.01609543125,60.0,94.0
675,144.11609544791668,144.31788119583334,60.0,96.0
676,144.11609544791668,144.34823834375,64.0,109.0
677,144.54466694791665,144.63038124791666,60.0,93.0
678,144.33038119791667,144.79823841875,55.0,90.0
679,144.75895269791667,144.97323844791666,64.0,107.0
680,144.75895269791667,144.98216702083334,60.0,98.0
681,144.75895269791667,144.99288130833332,67.0,96.0
682,144.11609544791668,145.2750242125,48.0,99.0
683,144.97323844791666,145.28038135625,55.0,95.0
684,145.18752419791667,145.31073850416666,60.0,94.0
685,145.18752419791667,145.51252425208332,64.0,100.0
686,145.18752419791667,145.69823856875,67.0,93.0
687,145.61609569791668,145.81609573125,60.0,102.0
688,146.25895294791667,146.35359582083333,53.0,99.0
689,146.04466719791668,146.54823871041665,48.0,92.0
690,146.47323869791666,146.635738725,57.0,97.0
691,146.47323869791666,146.63931015416668,53.0,97.0
692,146.47323869791666,146.6678815875,60.0,98.0
693,146.68752444791667,146.92859591666667,48.0,93.0
694,145.83038144791666,146.93931020416667,41.0,95.0
695,146.90181019791666,147.07681022708334,53.0,96.0
696,146.90181019791666,147.12681023541666,65.0,94.0
697,147.11609594791668,147.38573885,41.0,93.0
698,147.33038169791666,147.42681028541668,53.0,83.0
699,147.33038169791666,147.42681028541668,57.0,88.0
700,147.33038169791666,147.43038171458335,60.0,93.0
701,147.54466744791668,147.75181033958333,53.0,95.0
702,147.54466744791668,147.75359605416668,57.0,95.0
703,147.54466744791668,147.78573891666667,60.0,96.0
704,147.97323894791666,148.04823896041665,53.0,94.0
705,147.75895319791667,148.24823899375,48.0,94.0
706,148.18752469791667,148.37681044375,57.0,98.0
707,148.18752469791667,148.4035961625,65.0,94.0
708,148.18752469791667,148.41073902083335,53.0,95.0
709,147.54466744791668,148.67681049375,41.0,95.0
710,148.40181044791666,148.7035962125,48.0,94.0
711,148.61609619791668,148.7035962125,57.0,98.0
712,148.61609619791668,148.70538192708332,53.0,95.0
713,148.61609619791668,148.78573908333334,65.0,94.0
714,148.83038194791666,148.95716768333332,41.0,93.0
715,149.25895344791667,149.35716775,59.0,91.0
716,149.25895344791667,149.53395349375,67.0,90.0
717,149.47323919791666,149.59645350416667,59.0,89.0
718,149.68752494791667,149.80895353958334,64.0,95.0
719,149.90181069791666,149.97681071041666,59.0,93.0
720,150.11609644791668,150.22145360833332,59.0,98.0
721,150.11609644791668,150.23931075416667,64.0,109.0
722,150.11609644791668,150.32502505416667,47.0,94.0
723,150.11609644791668,150.32859648333334,67.0,100.0
724,149.25895344791667,150.36073934583334,40.0,95.0
725,150.33038219791666,150.43216792916667,59.0,92.0
726,150.54466794791668,150.65181082291667,64.0,94.0
727,150.75895369791667,150.83931085416665,59.0,93.0
728,150.97323944791665,151.06431089166668,59.0,96.0
729,150.97323944791665,151.18573948333332,67.0,95.0
730,151.18752519791667,151.34109665208334,59.0,94.0
731,151.40181094791666,151.6178824125,64.0,92.0
732,151.61609669791667,151.69466813958334,59.0,87.0
733,150.97323944791665,151.714311,40.0,98.0
734,151.83038244791666,151.93573960833334,59.0,91.0
735,151.83038244791666,152.06252534375,47.0,93.0
736,151.83038244791666,152.07323963125,64.0,100.0
737,151.83038244791666,152.08038248958334,40.0,97.0
738,152.04466819791668,152.20895393958332,59.0,94.0
739,152.25895394791667,152.39645397083333,64.0,93.0
740,152.68752544791667,152.85716833333333,64.0,92.0
741,152.68752544791667,152.98216835416667,69.0,93.0
742,153.33038269791666,153.41073985416668,64.0,95.0
743,153.11609694791667,153.80895420625,52.0,97.0
744,152.68752544791667,153.83216849583334,45.0,94.0
745,153.75895419791667,153.86966850208333,69.0,97.0
746,153.75895419791667,153.87502564583335,64.0,99.0
747,153.97323994791665,154.02681138541666,52.0,76.0
748,154.18752569791667,154.29466857291666,57.0,94.0
749,154.40181144791666,154.564311475,57.0,86.0
750,154.40181144791666,154.59288290833334,69.0,94.0
751,154.40181144791666,154.60002576666668,61.0,82.0
752,154.83038294791666,154.89109724375,57.0,86.0
753,154.61609719791667,155.09824013541666,52.0,92.0
754,155.04466869791668,155.22502587083332,61.0,96.0
755,155.04466869791668,155.24466873125,57.0,92.0
756,155.04466869791668,155.24824016041666,64.0,95.0
757,155.25895444791666,155.51252591875,52.0,93.0
758,154.40181144791666,155.5821687875,45.0,95.0
759,155.47324019791668,155.59824021875,57.0,93.0
760,155.68752594791667,156.07859744166666,57.0,81.0
761,155.47324019791668,156.12681173541668,61.0,100.0
762,155.47324019791668,156.150026025,64.0,98.0
763,155.47324019791668,156.17324031458332,69.0,93.0
764,156.11609744791667,156.30002605,62.0,86.0
765,156.11609744791667,156.30895462291667,59.0,87.0
766,156.11609744791667,156.32859748333334,66.0,81.0
767,156.54466894791668,156.61788324583333,62.0,91.0
768,156.54466894791668,156.63038324791665,59.0,88.0
769,156.54466894791668,156.63931182083334,66.0,88.0
770,156.11609744791667,156.835740425,47.0,95.0
771,156.97324044791668,157.04645474583333,62.0,96.0
772,156.97324044791668,157.05359760416667,59.0,96.0
773,156.97324044791668,157.07681189375,66.0,94.0
774,156.97324044791668,157.10181189791666,54.0,97.0
775,156.97324044791668,157.11609761458334,47.0,83.0
776,157.40181194791666,157.46252624375,59.0,69.0
777,157.40181194791666,157.478597675,62.0,82.0
778,157.40181194791666,157.50538339375,54.0,82.0
779,157.40181194791666,157.51609768125,66.0,81.0
780,157.40181194791666,157.58216912083333,47.0,83.0
781,157.83038344791666,158.03931205416666,62.0,95.0
782,157.83038344791666,158.04288348333333,59.0,94.0
783,157.83038344791666,158.06609777291666,66.0,93.0
784,158.25895494791666,158.3678835375,59.0,78.0
785,158.25895494791666,158.3678835375,62.0,81.0
786,157.83038344791666,158.37502639583334,47.0,94.0
787,158.25895494791666,158.37502639583334,66.0,82.0
788,158.68752644791667,158.81609789791668,59.0,95.0
789,158.68752644791667,158.8285979,62.0,94.0
790,158.68752644791667,158.84824076041667,66.0,93.0
791,158.9250264875,159.00181221458334,62.0,94.0
792,158.9250264875,159.02859793333334,59.0,94.0
793,158.9250264875,159.04466936458334,66.0,95.0
794,158.68752644791667,159.06609793958333,54.0,87.0
795,158.68752644791667,159.09824080208332,47.0,88.0
796,159.54466944791668,159.75181233958332,57.0,87.0
797,159.54466944791668,159.75716948333334,61.0,84.0
798,159.54466944791668,159.76966948541667,66.0,87.0
799,159.97324094791668,160.06966953541666,61.0,87.0
800,159.97324094791668,160.07859810833332,57.0,85.0
801,159.97324094791668,160.08931239583333,66.0,81.0
802,159.54466944791668,160.20359812916666,42.0,95.0
803,160.40181244791665,160.5321696125,57.0,94.0
804,160.40181244791665,160.53395532708333,61.0,98.0
805,160.40181244791665,160.53931247083332,42.0,94.0
806,160.40181244791665,160.5428839,49.0,82.0
807,160.40181244791665,160.56788390416668,66.0,89.0
808,160.83038394791666,160.93216967916666,57.0,77.0
809,160.83038394791666,160.95359825416668,61.0,85.0
810,160.83038394791666,160.96788397083333,66.0,80.0
811,161.25895544791666,161.46788405416666,57.0,84.0
812,161.25895544791666,161.49824120208334,61.0,93.0
813,161.25895544791666,161.51609834791665,66.0,86.0
814,161.68752694791667,161.84109840208333,57.0,86.0
815,161.68752694791667,161.85716983333333,61.0,91.0
816,161.68752694791667,161.88395555208334,66.0,86.0
817,161.25895544791666,161.88574126666666,42.0,86.0
818,162.11609844791667,162.19466988958334,57.0,84.0
819,162.11609844791667,162.21074132083334,61.0,91.0
820,162.11609844791667,162.21252703541666,66.0,85.0
821,162.11609844791667,162.23038418125,42.0,89.0
822,162.33038419791666,162.4178842125,42.0,95.0
823,162.33038419791666,162.43574135833333,61.0,102.0
824,162.33038419791666,162.46788422083333,66.0,97.0
825,162.33038419791666,162.47502707916667,57.0,93.0
826,162.97324144791668,163.16252719375,55.0,87.0
827,162.97324144791668,163.19645577083332,59.0,85.0
828,162.97324144791668,163.22859863333332,62.0,92.0
829,163.40181294791665,163.59824155208332,55.0,85.0
830,163.83038444791666,163.95359875416668,55.0,95.0
831,163.83038444791666,163.96431304166666,62.0,94.0
832,162.98217002083334,164.18931307916668,43.0,94.0
833,164.25895594791666,164.3250273875,55.0,85.0
834,164.25895594791666,164.33217024583334,59.0,93.0
835,164.25181308958332,164.39288454166666,43.0,100.0
836,164.47324169791668,164.54288456666666,55.0,80.0
837,164.44645597916667,164.63217029583333,45.0,100.0
838,164.68752744791666,164.99645607083335,65.0,94.0
839,164.68752744791666,164.99645607083335,70.0,87.0
840,164.69645602083332,164.99824178541667,46.0,94.0
841,164.68752744791666,165.00181321458334,62.0,94.0
842,165.11609894791667,165.32502755416667,62.0,89.0
843,165.11609894791667,165.33395612708333,65.0,88.0
844,165.12145609166666,165.33574184166667,69.0,87.0
845,165.11609894791667,165.35538470208334,45.0,84.0
846,165.54467044791667,165.89645622083333,43.0,99.0
847,165.54288473333332,166.24645627916667,67.0,87.0
848,165.5464561625,166.25002770833333,70.0,87.0
849,165.96609908958334,166.32859915,40.0,97.0
850,165.54467044791667,166.3393134375,58.0,86.0
851,165.54467044791667,166.34109915208333,62.0,91.0
852,166.40181344791668,166.8750278125,57.0,81.0
853,166.40181344791668,166.95181353958333,64.0,85.0
854,166.83038494791666,167.37502789583334,52.0,84.0
855,167.25895644791666,167.37502789583334,52.0,86.0
856,167.25895644791666,167.50538506041667,57.0,86.0
857,167.25895644791666,167.53574220833335,61.0,90.0
858,167.25895644791666,167.550027925,64.0,90.0
859,166.40181344791668,167.78574225,45.0,89.0
860,167.68752794791666,167.96074227916668,57.0,86.0
861,168.11609944791667,168.56967095208333,61.0,85.0
862,168.11609944791667,168.61609953125,57.0,84.0
863,168.11609944791667,168.63931382083334,64.0,85.0
864,168.97324244791668,169.20538534375,57.0,85.0
865,168.97324244791668,169.24645677916666,69.0,80.0
866,168.97324244791668,169.28931392916667,61.0,87.0
867,168.97324244791668,169.32502822083333,64.0,88.0
868,168.54467094791667,169.49109967708333,52.0,76.0
869,168.11609944791667,169.53931397083335,45.0,86.0
870,169.40181394791668,169.650028275,57.0,85.0
871,169.83038544791665,170.09467120625,61.0,77.0
872,169.83038544791665,170.09467120625,64.0,84.0
873,169.83038544791665,170.09824263541665,57.0,82.0
874,169.83038544791665,170.13574264166667,45.0,86.0
875,170.25895694791666,170.45717126666668,61.0,73.0
876,170.25895694791666,170.46609983958334,64.0,82.0
877,170.25181408958332,170.53038556458333,45.0,97.0
878,170.68752844791666,170.93395706041667,57.0,85.0
879,170.68038558958332,170.95181420625,45.0,97.0
880,170.68752844791666,171.18931424583334,61.0,85.0
881,170.68752844791666,171.20538567708334,64.0,86.0
882,171.10895708958333,171.38752856458333,45.0,97.0
883,171.54467144791667,171.80002863333334,57.0,85.0
884,171.54467144791667,171.96252866041667,69.0,77.0
885,171.54467144791667,172.05717153333333,61.0,79.0
886,171.54467144791667,172.08038582291667,64.0,84.0
887,171.54467144791667,172.61074305416668,45.0,85.0
888,172.40181444791668,173.07324313125,57.0,86.0
889,172.40181444791668,173.08395741875,61.0,88.0
890,172.40181444791668,173.09110027708334,64.0,85.0
891,172.40181444791668,173.09110027708334,69.0,81.0
892,173.25895744791666,173.80895753958333,62.0,87.0
893,173.25895744791666,173.84824326041667,55.0,89.0
894,173.68752894791666,174.22145760833334,50.0,75.0
895,174.11610044791666,174.34824334375,55.0,93.0
896,174.11610044791666,174.4393147875,59.0,96.0
897,174.11610044791666,174.58038623958333,62.0,92.0
898,174.54467194791667,174.80895770625,55.0,91.0
899,173.25895744791666,174.90002915,43.0,92.0
900,174.54467194791667,175.04467203125,50.0,87.0
901,174.97324344791667,175.29110064375,57.0,88.0
902,174.97324344791667,175.51967211041668,61.0,91.0
903,174.9750291625,175.521457825,64.0,91.0
904,175.40181494791668,175.67145785,57.0,82.0
905,175.83038644791668,176.01074362083332,57.0,89.0
906,174.97324344791667,176.2178865125,43.0,90.0
907,175.83038644791668,176.23395794375,64.0,89.0
908,175.83038644791668,176.25717223333334,61.0,89.0
909,176.25895794791666,176.53574370833334,57.0,83.0
910,176.68752944791666,177.10181523125,57.0,88.0
911,177.11610094791666,177.21610096458335,57.0,82.0
912,176.68752944791666,177.33574384166667,61.0,89.0
913,177.54467244791667,177.792886775,57.0,91.0
914,176.68752944791666,177.81074392083335,42.0,90.0
915,177.11610094791666,177.84110106875,49.0,77.0
916,177.54467244791667,177.91252965208332,61.0,95.0
917,177.97324394791667,178.11074397083334,57.0,92.0
918,177.54467244791667,178.24824399375,66.0,88.0
919,178.40181544791668,178.96967268541667,62.0,89.0
920,178.40181544791668,178.99645840416667,59.0,89.0
921,178.83038694791668,179.32145845833332,54.0,79.0
922,179.25895844791665,179.4857442,59.0,93.0
923,179.25895844791665,179.57860135833334,62.0,98.0
924,178.40181544791668,179.60002993333333,47.0,91.0
925,179.25895844791665,179.764315675,66.0,96.0
926,179.68752994791666,179.83752997291666,54.0,88.0
927,179.68752994791666,179.96074427916668,59.0,92.0
928,180.11610144791666,180.69467297291666,64.0,90.0
929,180.11610144791666,180.70895868958334,59.0,90.0
930,180.97324444791667,181.18217305416667,59.0,92.0
931,180.54467294791667,181.32503022083333,47.0,76.0
932,180.11610144791666,181.35717308333332,40.0,93.0
933,180.97324444791667,181.37324451458332,67.0,90.0
934,180.96788730416668,181.37681594375,64.0,97.0
935,181.40181594791667,181.47503024583332,59.0,88.0
936,181.83038744791668,182.207173225,57.0,83.0
937,181.83038744791668,182.33038753125,64.0,89.0
938,182.25895894791665,182.33931610416667,57.0,88.0
939,182.25895894791665,182.7321733125,52.0,81.0
940,182.68753044791666,182.7321733125,52.0,91.0
941,182.68753044791666,182.90538762708334,57.0,95.0
942,182.68753044791666,182.9678876375,61.0,96.0
943,181.83038744791668,183.021459075,45.0,91.0
944,183.11610194791666,183.25360197083333,61.0,90.0
945,183.11610194791666,183.43395914375,57.0,93.0
946,183.56074487916666,183.88038778958332,57.0,93.0
947,183.55360202083332,184.050030675,50.0,98.0
948,184.17503069583333,184.32860215,50.0,95.0
949,184.17503069583333,184.51967361041667,69.0,97.0
950,184.18038783958335,184.61431648333334,66.0,97.0
951,184.85538795208333,184.93038796458333,57.0,86.0
952,184.84824509375,185.1321737125,62.0,97.0
953,184.84824509375,185.17681657708334,66.0,95.0
954,185.25895944791668,185.51967377708334,57.0,88.0
955,185.25895944791668,185.74645952916666,60.0,93.0
956,185.25895944791668,185.76967381875,66.0,96.0
957,185.68753094791666,185.77860239166668,57.0,85.0
958,185.90181669791667,186.12324530625,57.0,94.0
959,185.90181669791667,186.13395959375,60.0,100.0
960,185.25895944791668,186.31253105208333,38.0,98.0
961,186.11610244791666,186.38038820625,45.0,94.0
962,185.90181669791667,186.4178882125,66.0,96.0
963,186.33038819791668,186.53038823125,57.0,97.0
964,186.54467394791666,186.66788825416666,62.0,82.0
965,186.97324544791667,187.63753127291668,62.0,85.0
966,186.97324544791667,187.6393169875,55.0,85.0
967,187.40181694791667,187.86253131041667,50.0,79.0
968,187.83038844791668,188.06431705833333,55.0,89.0
969,187.83038844791668,188.20538851041667,62.0,87.0
970,186.97324544791667,188.6250314375,43.0,89.0
971,188.25895994791668,188.83574575833333,50.0,88.0
972,188.68753144791665,189.1821743875,55.0,90.0
973,188.68753144791665,189.26610297291666,62.0,87.0
974,189.11074580416667,189.5036030125,50.0,97.0
975,188.68753144791665,189.8036030625,43.0,86.0
976,189.54467444791666,189.96610308958333,57.0,89.0
977,189.97324594791667,190.09824596875,57.0,86.0
978,189.54467444791666,190.15896026458333,61.0,88.0
979,189.97324594791667,190.17503169583333,43.0,88.0
980,190.40181744791667,190.69110321041666,61.0,81.0
981,190.40181744791667,190.79467465625,57.0,85.0
982,190.83038894791667,190.93753182291667,57.0,85.0
983,190.83038894791667,191.36253189375,49.0,78.0
984,191.25896044791668,191.36253189375,49.0,70.0
985,190.40181744791667,191.4964604875,42.0,94.0
986,191.25896044791668,191.54824621041666,57.0,87.0
987,191.25896044791668,191.58038907291666,61.0,92.0
988,191.68753194791665,191.7750319625,42.0,86.0
989,191.25896044791668,191.79467482291668,66.0,86.0
990,191.68753194791665,191.850031975,57.0,85.0
991,192.11610344791666,192.63396067708334,62.0,86.0
992,192.11610344791666,192.64646067916667,59.0,86.0
993,192.54467494791666,193.05896074791667,54.0,81.0
994,192.11610344791666,193.16074647916668,47.0,88.0
995,192.97324644791667,193.29824650208334,59.0,87.0
996,192.97324644791667,193.33217507916666,62.0,91.0
997,192.97324644791667,193.37503222916666,66.0,90.0
998,193.83038944791667,194.44467526458334,59.0,83.0
999,193.83038944791667,194.50538956041666,64.0,86.0
1000,194.68753244791668,194.94110391875,64.0,86.0
1001,194.68753244791668,194.94288963333332,67.0,85.0
1002,194.25896094791668,195.00896107291666,47.0,76.0
1003,194.68753244791668,195.03396107708335,59.0,94.0
1004,193.83038944791667,195.09288965833332,40.0,87.0
1005,195.54467544791666,196.17503269583332,67.0,85.0
1006,196.40181844791667,196.7464613625,57.0,79.0
1007,196.40181844791667,196.81967566041666,61.0,86.0
1008,196.40181844791667,196.85896138125,67.0,97.0
1009,195.97324694791666,197.01074712083334,52.0,82.0
1010,195.54467544791666,197.04824712708333,45.0,89.0
1011,196.83038994791667,197.12324713958333,57.0,79.0
1012,197.25896144791668,197.50003291666667,62.0,87.0
1013,197.25896144791668,197.75539010208334,67.0,86.0
1014,197.68753294791668,197.87681869375,62.0,84.0
1015,198.11610444791665,198.22324732291668,62.0,87.0
1016,197.25896144791668,198.35896163125,38.0,92.0
1017,198.11610444791665,198.40896163958334,67.0,88.0
1018,198.54467594791666,198.69110454375,62.0,91.0
1019,198.97324744791666,199.51253325208333,62.0,86.0
1020,198.97324744791666,199.56253326041667,66.0,88.0
1021,198.97324744791666,199.92146189166667,38.0,90.0
1022,199.83039044791667,200.10360477916666,62.0,80.0
1023,199.83039044791667,200.62860486666668,66.0,88.0
1024,200.25896194791667,200.64289058333333,62.0,79.0
1025,199.83039044791667,200.6571763,69.0,83.0
1026,201.33039069791667,201.77324791458332,62.0,89.0
1027,200.68753344791668,202.06789082083333,50.0,95.0
1028,201.75896219791667,202.18753369791668,64.0,94.0
1029,202.18753369791668,202.42681945208332,66.0,75.0
1030,201.11610494791665,202.4678908875,57.0,78.0
1031,202.40181944791667,202.64467663125,64.0,92.0
1032,202.83039094791667,203.41253390208334,57.0,77.0
1033,203.25896244791667,203.45181962291667,61.0,89.0
1034,202.40181944791667,203.46967676875,49.0,86.0
1035,203.25896244791667,203.60896250625,64.0,89.0
1036,204.11610544791668,204.60717695833333,59.0,80.0
1037,204.11610544791668,204.80896270625,62.0,85.0
1038,204.54467694791666,205.19289134166667,54.0,79.0
1039,204.75896269791667,205.23574849166667,59.0,93.0
1040,204.11610544791668,205.29824850208334,47.0,89.0
1041,205.18753419791668,205.35539136875,66.0,92.0
1042,205.83039144791667,206.40360582916668,61.0,81.0
1043,205.83039144791667,206.46967726875,64.0,81.0
1044,205.83039144791667,206.54824871041666,57.0,80.0
1045,206.25896294791667,206.96074877916666,52.0,75.0
1046,206.68753444791668,207.0964630875,61.0,83.0
1047,206.68753444791668,207.10003451666665,69.0,93.0
1048,206.68753444791668,207.11432023333333,64.0,94.0
1049,205.83039144791667,207.12503452083334,45.0,89.0
1050,207.11610594791668,207.24467739791666,57.0,95.0
1051,207.54467744791665,208.221463275,59.0,85.0
1052,207.54467744791665,208.25182042291667,55.0,83.0
1053,207.54467744791665,208.6178919125,43.0,93.0
1054,207.97324894791666,208.63039191458333,50.0,85.0
1055,208.18753469791667,208.70896335625,62.0,91.0
1056,208.83039194791667,209.02860626666666,55.0,94.0
1057,208.61610619791668,209.03039198125,67.0,93.0
1058,209.68753494791667,209.978606425,54.0,79.0
1059,209.90182069791666,210.36253506041666,57.0,88.0
1060,209.47324919791666,210.3750350625,49.0,81.0
1061,209.25896344791667,210.38217792083333,42.0,94.0
1062,210.33039219791667,210.51967794375,61.0,94.0
1063,211.40182094791666,211.96789247083333,52.0,90.0
1064,211.18753519791667,211.98039247291666,47.0,81.0
1065,210.97324944791666,212.02860676666666,40.0,89.0
1066,211.61610669791668,212.11432106666666,59.0,93.0
1067,212.04467819791665,212.31967824375,64.0,97.0
1068,212.25896394791667,212.507178275,52.0,97.0
1069,212.47324969791666,212.91610691458334,64.0,94.0
1070,213.11610694791668,213.364321275,57.0,94.0
1071,213.33039269791666,213.492892725,59.0,89.0
1072,213.54467844791668,213.69289275833333,61.0,97.0
1073,212.90182119791666,213.95182137291667,52.0,89.0
1074,212.68753544791667,214.04289281666667,45.0,94.0
1075,214.40182144791666,214.82682151875,62.0,84.0
1076,214.40182144791666,215.02682155208333,67.0,84.0
1077,215.04467869791668,215.58039307291668,62.0,89.0
1078,215.47325019791666,215.764321675,67.0,81.0
1079,214.83039294791666,215.9143217,50.0,79.0
1080,214.40182144791666,216.00896457291665,43.0,93.0
1081,215.90182169791666,216.04289315,62.0,71.0
1082,216.54467894791668,217.19289334166666,57.0,89.0
1083,216.75896469791667,217.27682192708335,61.0,100.0
1084,216.33039319791666,217.39825051875,52.0,85.0
1085,216.11610744791668,217.4250362375,45.0,94.0
1086,217.18753619791667,217.53039339791667,69.0,95.0
1087,217.40182194791666,217.7036077125,61.0,85.0
1088,217.83039344791666,218.06967920208334,57.0,82.0
1089,217.83039344791666,218.31253638541668,61.0,87.0
1090,218.25896494791667,218.76075074583332,57.0,84.0
1091,218.04467919791668,218.92146505833333,49.0,79.0
1092,217.83039344791666,218.935750775,42.0,93.0
1093,218.47325069791665,218.935750775,61.0,94.0
1094,218.90182219791666,219.33753655625,66.0,95.0
1095,219.11610794791667,219.38039370625,57.0,87.0
1096,219.33039369791666,219.46253657708334,61.0,90.0
1097,219.54467944791668,220.08575096666667,59.0,86.0
1098,219.54467944791668,220.10539382708333,62.0,91.0
1099,219.97325094791665,220.50539389375,54.0,76.0
1100,220.40182244791666,220.58396533541668,59.0,88.0
1101,219.54467944791668,220.64467963125,47.0,93.0
1102,220.40182244791666,220.74467964791666,66.0,88.0
1103,221.90182269791666,222.26967990208334,64.0,94.0
1104,221.68753694791667,222.29289419166668,59.0,92.0
1105,221.47325119791665,222.65717996666666,47.0,78.0
1106,222.54467994791668,222.72682283541667,59.0,92.0
1107,222.33039419791666,222.73039426458334,67.0,94.0
1108,221.25896544791667,222.7714657,40.0,94.0
1109,222.97325144791668,223.21968006041666,57.0,84.0
1110,222.97325144791668,223.61432298333332,64.0,87.0
1111,223.40182294791666,224.03396591041667,57.0,92.0
1112,223.61610869791667,224.121465925,61.0,94.0
1113,224.25896594791666,224.4750374125,57.0,93.0
1114,223.18753719791667,224.5178945625,52.0,82.0
1115,222.97325144791668,224.57860885833333,45.0,88.0
1116,224.04468019791668,224.59646600416667,69.0,94.0
1117,224.68753744791667,224.88753748125,62.0,91.0
1118,224.68753744791667,224.88932319583333,74.0,95.0
1119,224.68753744791667,224.95718035,38.0,99.0
1120,225.11610894791667,225.24289468333333,38.0,74.0
1121,225.11610894791667,225.26610897291667,45.0,76.0
1122,225.11610894791667,225.27146611666666,61.0,90.0
1123,225.11610894791667,225.27503754583333,73.0,79.0
1124,225.54468044791668,225.74825191041666,38.0,96.0
1125,225.54468044791668,225.74825191041666,45.0,92.0
1126,225.54468044791668,225.78575191666667,62.0,91.0
1127,225.54468044791668,225.78932334583334,74.0,100.0
1128,225.97325194791668,226.08753768125,64.0,95.0
1129,225.97325194791668,226.09825196875,76.0,95.0
1130,225.97325194791668,226.11789482916666,45.0,92.0
1131,225.97325194791668,226.14825197708333,38.0,94.0
1132,226.4036091625,226.56253776041666,45.0,97.0
1133,226.40182344791666,226.60003776666667,78.0,93.0
1134,226.40182344791666,226.61968062708334,66.0,93.0
1135,226.40182344791666,226.62503777083333,38.0,102.0
1136,226.62325205625,226.78753779791666,57.0,97.0
1137,226.83039494791666,226.99825211875,45.0,90.0
1138,226.83039494791666,227.00182354791667,38.0,94.0
1139,226.83039494791666,227.03218069583335,67.0,93.0
1140,226.83039494791666,227.06432355833334,79.0,93.0
1141,227.25896644791666,227.40360932916667,81.0,97.0
1142,227.25896644791666,227.43575219166667,69.0,100.0
1143,227.25896644791666,227.49110934375,45.0,96.0
1144,227.25896644791666,227.49289505833335,38.0,100.0
1145,227.68753794791667,227.80003796666668,45.0,93.0
1146,227.68753794791667,227.81968082708335,38.0,95.0
1147,227.68753794791667,227.86610940625,62.0,95.0
1148,227.68753794791667,227.86968083541666,74.0,99.0
1149,228.11610944791667,228.54110951875,62.0,84.0
1150,228.11610944791667,228.74110955208334,67.0,84.0
1151,228.75896669791666,229.29468107291666,62.0,89.0
1152,229.18753819791667,229.478609675,67.0,81.0
1153,228.54468094791667,229.6286097,50.0,79.0
1154,229.40182394791665,229.68575256666668,71.0,89.0
1155,228.11610944791667,229.72325257291666,43.0,93.0
1156,229.61610969791667,229.75718115,62.0,71.0
1157,230.25896694791666,230.90718134166667,57.0,89.0
1158,230.47325269791668,230.99110992708333,61.0,100.0
1159,230.04468119791667,231.11253851875,52.0,85.0
1160,229.83039544791666,231.1393242375,43.0,94.0
1161,230.90182419791665,231.24468139791668,69.0,95.0
1162,231.11610994791667,231.4178957125,61.0,85.0
1163,231.54468144791667,231.78396720208335,57.0,82.0
1164,231.54468144791667,232.02682438541666,61.0,87.0
1165,231.97325294791668,232.47503874583333,57.0,84.0
1166,231.75896719791666,232.63575305833334,49.0,79.0
1167,231.54468144791667,232.650038775,42.0,93.0
1168,232.18753869791666,232.650038775,61.0,94.0
1169,232.61611019791667,233.05182455625,66.0,95.0
1170,232.83039594791666,233.09468170625001,57.0,87.0
1171,233.04468169791667,233.17682457708332,61.0,90.0
1172,233.25896744791666,233.80003896666668,59.0,86.0
1173,233.25896744791666,233.81968182708334,62.0,91.0
1174,233.68753894791666,234.21968189375,54.0,76.0
1175,234.11611044791667,234.29825333541666,59.0,88.0
1176,233.25896744791666,234.35896763125,47.0,93.0
1177,234.11611044791667,234.45896764791667,66.0,88.0
1178,234.9321820125,235.55896783125,52.0,82.0
1179,234.98218202083333,235.86789645416667,55.0,82.0
1180,235.38575351666665,235.95718218333334,47.0,74.0
1181,235.04289631666666,235.9607536125,59.0,82.0
1182,235.01075345416666,236.01253933541668,40.0,94.0
1183,235.82861073333333,236.2286108,52.0,93.0
1184,237.12503952083333,238.35539686875,52.0,87.0
1185,236.81253946875,238.39825401875,45.0,93.0
1186,237.3750395625,239.21611129791665,57.0,76.0
1187,237.6107538875,239.22682558541666,61.0,84.0
1188,237.89646822083333,239.27861130833332,64.0,74.0
1189,238.27146828333332,239.31075417083332,69.0,68.0
1190,243.11611194791666,243.41611199791666,62.0,85.0
1191,243.33039769791668,243.81075492083335,64.0,93.0
1192,242.68754044791666,244.23575499166668,50.0,94.0
1193,242.90182619791668,244.28218357083333,57.0,80.0
1194,243.75896919791666,244.46611217291667,66.0,86.0
1195,244.40182644791668,245.12682656875,69.0,89.0
1196,245.04468369791667,245.42682661875,62.0,87.0
1197,245.47325519791667,245.76789810416668,66.0,96.0
1198,244.40182644791668,245.79111239375,50.0,91.0
1199,244.83039794791668,246.19468388958333,57.0,64.0
1200,246.11611244791666,246.75539826875,64.0,94.0
1201,246.54468394791667,247.28396978541667,57.0,78.0
1202,246.11611244791666,247.34289836666667,49.0,86.0
1203,246.75896969791665,247.61254126875,64.0,86.0
1204,247.18754119791666,247.82682701875,67.0,86.0
1205,248.25896994791665,248.27325566458333,54.0,79.0
1206,248.47325569791667,248.94468434791668,58.0,87.0
1207,247.83039844791668,248.9893272125,42.0,89.0
1208,248.04468419791667,248.99111292708332,49.0,76.0
1209,248.90182719791667,249.19111296041666,61.0,91.0
1210,249.54468444791667,250.01432738333332,59.0,75.0
1211,249.54468444791667,250.24647027916666,62.0,71.0
1212,249.97325594791667,250.61432748333334,54.0,72.0
1213,250.18754169791666,250.64289891666667,59.0,89.0
1214,249.54468444791667,250.75182750625,47.0,94.0
1215,250.83039894791668,251.1107561375,59.0,86.0
1216,250.61611319791666,251.11789899583334,66.0,95.0
1217,251.04468469791667,251.55361335416666,62.0,84.0
1218,251.68754194791666,251.98218485416666,57.0,84.0
1219,251.90182769791667,252.30718490833334,62.0,89.0
1220,252.33039919791668,252.59825638541668,64.0,89.0
1221,251.47325619791667,252.60539924375,52.0,81.0
1222,251.25897044791668,252.71432783333333,45.0,92.0
1223,252.54468494791666,252.89825643541667,62.0,85.0
1224,253.40182794791667,254.035756625,55.0,84.0
1225,253.61611369791666,254.19111379375,58.0,85.0
1226,253.18754219791666,254.48754241458334,50.0,79.0
1227,252.97325644791667,254.52504242083333,43.0,92.0
1228,254.04468519791666,254.64468529791668,62.0,89.0
1229,254.47325669791667,254.67147101666666,55.0,86.0
1230,254.25897094791668,254.9250424875,67.0,87.0
1231,255.11611394791666,255.55897116458334,57.0,87.0
1232,255.33039969791668,255.75718548333333,62.0,91.0
1233,255.75897119791668,255.91254265208335,64.0,89.0
1234,254.90182819791667,256.01075695416665,52.0,81.0
1235,254.68754244791666,256.1143284,45.0,94.0
1236,256.88397138541666,257.1125428520833,50.0,91.0
1237,257.12682856875,257.33754288958335,52.0,92.0
1238,257.38754289791666,257.5607572125,54.0,93.0
1239,257.71611438125,257.89825726875,57.0,85.0
1240,258.03575729166664,258.27504304583334,62.0,87.0
1241,258.40897163958334,258.5464716625,64.0,87.0
1242,258.80718599166664,259.0179003125,66.0,83.0
1243,258.82682885208334,259.0250431708333,62.0,79.0
1244,259.27861464166665,259.48040038958334,62.0,79.0
1245,259.27861464166665,259.48575753333336,69.0,68.0
1246,256.6214713416667,259.84825759375,45.0,78.0
1247,256.39825701875,259.9464718958333,38.0,94.0
1248,260.2964719541667,261.1196863770833,38.0,62.0
1249,260.42325768958335,261.16611495625,62.0,70.0
1250,260.44111483541667,261.16611495625,66.0,79.0
1251,260.60182914791665,261.16611495625,74.0,89.0
1252,260.53397199375,261.19111496041666,69.0,81.0
