,start,end,pitch,velocity
0,46.33893053333334,46.591048891666674,61.0,90.0
1,46.593167533333336,46.84740453333334,61.0,89.0
2,46.84740453333334,47.09952289166667,63.0,96.0
3,47.101641533333336,47.421556425000006,63.0,110.0
4,47.35587853333334,47.86223389166667,65.0,92.0
5,47.86435253333334,49.89612989166667,65.0,102.0
6,49.89824853333334,50.15036689166667,65.0,91.0
7,50.15248553333334,50.46180721666667,65.0,102.0
8,50.40672253333334,50.91519653333334,63.0,86.0
9,50.91519653333334,51.16943353333334,65.0,94.0
10,51.16943353333334,51.932144533333336,63.0,104.0
11,51.932144533333336,53.96392189166667,61.0,108.0
12,53.96604053333334,54.21815889166667,61.0,98.0
13,54.22027753333334,54.47451453333334,61.0,100.0
14,54.47451453333334,54.72875153333334,63.0,96.0
15,54.72875153333334,54.98298853333334,65.0,96.0
16,54.98298853333334,55.23722553333334,68.0,102.0
17,55.23722553333334,55.74569953333334,70.0,110.0
18,55.74569953333334,55.99993653333334,68.0,104.0
19,55.99993653333334,57.77747689166667,70.0,108.0
20,57.779595533333335,58.03171389166667,70.0,113.0
21,58.03383253333334,58.28595089166667,70.0,108.0
22,58.288069533333335,58.54018789166667,70.0,110.0
23,58.54230653333334,59.05078053333334,70.0,113.0
24,59.05078053333334,59.30501753333334,65.0,104.0
25,59.30501753333334,59.55925453333334,68.0,113.0
26,59.55925453333334,59.815610175,70.0,91.0
27,59.81349153333334,62.101624533333336,68.0,89.0
28,62.101624533333336,62.35374289166667,61.0,94.0
29,62.35586153333334,62.610098533333336,61.0,96.0
30,62.610098533333336,62.86433553333334,63.0,96.0
31,62.86433553333334,63.11857253333334,65.0,100.0
32,63.11857253333334,63.37280953333334,68.0,100.0
33,63.37280953333334,63.88128353333334,70.0,114.0
34,63.88128353333334,64.13552053333333,68.0,107.0
35,64.13552053333333,65.91306089166667,70.0,113.0
36,65.91517953333334,66.16729789166668,70.0,108.0
37,66.16941653333333,66.42153489166667,70.0,108.0
38,66.42365353333334,66.93212753333334,70.0,107.0
39,66.93212753333334,67.44060153333334,65.0,110.0
40,67.44060153333334,67.94907553333334,68.0,113.0
41,67.94907553333334,68.45754953333334,65.0,98.0
42,68.45754953333334,68.96602353333334,68.0,107.0
43,68.96602353333334,69.22026053333335,70.0,108.0
44,69.22026053333335,70.48932689166668,65.0,104.0
45,70.49144553333333,70.74356389166667,65.0,108.0
46,70.74568253333334,71.25415653333334,65.0,102.0
47,71.25415653333334,71.50839353333333,61.0,90.0
48,71.50839353333333,72.01686753333334,65.0,107.0
49,72.01686753333334,74.55923753333335,63.0,104.0
50,74.55923753333335,74.81135589166668,65.0,104.0
51,74.81347453333333,75.32194853333334,65.0,100.0
52,75.32194853333334,75.57618553333334,61.0,91.0
53,75.57618553333334,76.08465953333334,58.0,96.0
54,76.08465953333334,76.36008295,65.0,98.0
55,76.33889653333334,78.88126653333335,63.0,90.0
56,78.88126653333335,79.13338489166668,61.0,90.0
57,79.13550353333333,79.38974053333334,61.0,89.0
58,79.38974053333334,79.64185889166667,63.0,96.0
59,79.64397753333334,79.96389242500001,63.0,110.0
60,79.89821453333334,80.40456989166667,65.0,92.0
61,80.40668853333334,82.18422889166668,65.0,102.0
62,82.18634753333335,82.43846589166668,65.0,91.0
63,82.44058453333334,82.69270289166667,65.0,91.0
64,82.69482153333334,83.00414321666668,65.0,102.0
65,82.94905853333334,83.45753253333334,63.0,86.0
66,83.45753253333334,83.71176953333334,65.0,94.0
67,83.71176953333334,84.47448053333333,63.0,104.0
68,84.47448053333333,86.50625789166668,61.0,108.0
69,86.50837653333335,86.76049489166667,61.0,98.0
70,86.76261353333334,87.01685053333334,61.0,100.0
71,87.01685053333334,87.27108753333334,63.0,96.0
72,87.27108753333334,87.52532453333335,65.0,96.0
73,87.52532453333335,87.77956153333334,68.0,102.0
74,87.77956153333334,88.28803553333334,70.0,110.0
75,88.28803553333334,88.54227253333335,68.0,104.0
76,88.54227253333335,90.31981289166667,70.0,108.0
77,90.32193153333334,90.57404989166668,70.0,113.0
78,90.57616853333334,90.82828689166668,70.0,108.0
79,90.83040553333335,91.08252389166667,70.0,110.0
80,91.08464253333334,91.59311653333334,70.0,113.0
81,91.59311653333334,91.84735353333335,65.0,104.0
82,91.84735353333335,92.10159053333334,68.0,113.0
83,92.10159053333334,92.35794617500001,70.0,91.0
84,92.35582753333334,94.64396053333334,68.0,89.0
85,94.64396053333334,94.89607889166668,61.0,94.0
86,94.89819753333335,95.15243453333335,61.0,96.0
87,95.15243453333335,95.40667153333334,63.0,96.0
88,95.40667153333334,95.66090853333334,65.0,100.0
89,95.66090853333334,95.91514553333334,68.0,100.0
90,95.91514553333334,96.42361953333334,70.0,114.0
91,96.42361953333334,96.67785653333334,68.0,107.0
92,96.67785653333334,97.18633053333335,70.0,113.0
93,97.18633053333335,98.45751553333334,77.0,113.0
94,98.45751553333334,98.70963389166667,70.0,108.0
95,98.71175253333334,98.96387089166667,70.0,108.0
96,98.96598953333334,99.47234489166668,70.0,107.0
97,99.47446353333333,99.73293781666668,70.0,110.0
98,99.72870053333334,99.98717481666668,65.0,110.0
99,99.98293753333334,100.49141153333335,68.0,113.0
100,100.49141153333335,100.99988553333334,65.0,98.0
101,100.99988553333334,101.27530895000001,68.0,107.0
102,101.25412253333334,101.76259653333334,70.0,108.0
103,101.76259653333334,103.03378153333334,65.0,104.0
104,103.03378153333334,103.28801853333334,58.0,108.0
105,103.28801853333334,103.79437389166668,65.0,102.0
106,103.79649253333334,104.04861089166667,65.0,90.0
107,104.05072953333334,104.42996639166668,65.0,107.0
108,104.30496653333334,105.06555889166667,63.0,104.0
109,105.06767753333334,105.603693875,63.0,104.0
110,105.57615153333334,105.86640544166667,61.0,104.0
111,105.83038853333335,107.10157353333334,63.0,104.0
112,107.10157353333334,107.61004753333334,65.0,104.0
113,107.61004753333334,107.86428453333335,58.0,91.0
114,107.86428453333335,108.37275853333334,63.0,96.0
115,108.37275853333334,111.16936553333335,61.0,98.0
116,111.16936553333335,111.67783953333334,73.0,119.0
117,111.67783953333334,112.18631353333335,75.0,117.0
118,112.18631353333335,112.44055053333334,77.0,120.0
119,112.44055053333334,112.69266889166667,73.0,116.0
120,112.69478753333334,112.94902453333334,73.0,116.0
121,112.94902453333334,113.20114289166668,70.0,116.0
122,113.20326153333335,113.45749853333335,70.0,117.0
123,113.45749853333335,113.70961689166667,66.0,110.0
124,113.71173553333334,113.96597253333334,66.0,110.0
125,113.96597253333334,114.21809089166668,77.0,113.0
126,114.22020953333335,114.47444653333335,77.0,116.0
127,114.47444653333335,114.72868353333334,78.0,114.0
128,114.72868353333334,114.98292053333334,77.0,113.0
129,114.98292053333334,116.25198689166668,75.0,116.0
130,116.25410553333334,116.50834253333335,75.0,114.0
131,116.50834253333335,116.76046089166668,72.0,113.0
132,116.76257953333334,117.01681653333334,72.0,113.0
133,117.01681653333334,117.26893489166667,68.0,114.0
134,117.27105353333334,117.52529053333335,68.0,114.0
135,117.52529053333335,117.77740889166668,65.0,108.0
136,117.77952753333334,118.03376453333334,65.0,110.0
137,118.03376453333334,118.28588289166667,75.0,113.0
138,118.28800153333334,118.54223853333335,75.0,116.0
139,118.54223853333335,118.79647553333335,73.0,104.0
140,118.79647553333335,119.05071253333334,72.0,108.0
141,119.05071253333334,119.81130489166668,73.0,117.0
142,119.81342353333335,120.06766053333334,73.0,114.0
143,120.06766053333334,120.32189753333334,75.0,113.0
144,120.32189753333334,120.83037153333335,82.0,116.0
145,120.83037153333335,121.08248989166668,77.0,113.0
146,121.08460853333334,121.33884553333334,77.0,110.0
147,121.33884553333334,122.35579353333334,75.0,113.0
148,122.35579353333334,122.86426753333335,70.0,117.0
149,122.86426753333335,123.15028415833335,72.0,107.0
150,123.11850453333335,123.62697853333334,73.0,110.0
151,123.62697853333334,124.13545253333335,75.0,116.0
152,124.13545253333335,127.44053353333335,77.0,119.0
153,127.44053353333335,127.94900753333334,73.0,119.0
154,127.94900753333334,128.45748153333335,75.0,117.0
155,128.45748153333335,128.71171853333334,77.0,120.0
156,128.71171853333334,128.9638368916667,73.0,116.0
157,128.96595553333336,129.22019253333335,73.0,116.0
158,129.22019253333335,129.47231089166667,70.0,116.0
159,129.47442953333334,129.72866653333335,70.0,117.0
160,129.72866653333335,129.98078489166667,66.0,110.0
161,129.98290353333334,130.23714053333333,66.0,110.0
162,130.23714053333333,130.48925889166668,77.0,113.0
163,130.49137753333335,130.74561453333334,77.0,116.0
164,130.74561453333334,130.99985153333336,78.0,114.0
165,130.99985153333336,131.25408853333334,77.0,113.0
166,131.25408853333334,132.52315489166668,75.0,116.0
167,132.52527353333335,132.77951053333334,75.0,114.0
168,132.77951053333334,133.03162889166668,72.0,113.0
169,133.03374753333335,133.28798453333334,72.0,113.0
170,133.28798453333334,133.5401028916667,68.0,114.0
171,133.54222153333333,133.79645853333335,68.0,114.0
172,133.79645853333335,134.04857689166667,65.0,108.0
173,134.05069553333334,134.30493253333336,65.0,110.0
174,134.30493253333336,134.55705089166668,75.0,113.0
175,134.55916953333335,134.81340653333334,75.0,116.0
176,134.81340653333334,135.06764353333335,73.0,104.0
177,135.06764353333335,135.32188053333334,72.0,108.0
178,135.32188053333334,136.08247289166667,73.0,117.0
179,136.08459153333334,136.33882853333336,73.0,113.0
180,136.33882853333336,136.59306553333334,65.0,113.0
181,136.59306553333334,137.10153953333335,66.0,114.0
182,137.10153953333335,137.35365789166667,73.0,114.0
183,137.35577653333334,138.62484289166667,73.0,117.0
184,138.62696153333334,139.13543553333335,73.0,114.0
185,139.13543553333335,139.64390953333336,72.0,107.0
186,139.64390953333336,140.15238353333334,70.0,113.0
187,140.15238353333334,140.69899308333333,72.0,110.0
188,140.66085753333334,141.29433139166667,73.0,113.0
189,160.23710653333336,160.48922489166668,61.0,90.0
190,160.49134353333335,160.74558053333334,61.0,89.0
191,160.74558053333334,160.9976988916667,63.0,96.0
192,160.99981753333336,161.319732425,63.0,110.0
193,161.25405453333335,161.76040989166668,65.0,92.0
194,161.76252853333335,163.5400688916667,65.0,102.0
195,163.54218753333336,163.79430589166668,65.0,91.0
196,163.79642453333335,164.04854289166667,65.0,91.0
197,164.05066153333334,164.35998321666668,65.0,102.0
198,164.30489853333336,164.81337253333334,63.0,86.0
199,164.81337253333334,165.06760953333335,65.0,94.0
200,165.06760953333335,165.412948125,63.0,104.0
201,165.32184653333334,167.86209789166668,61.0,108.0
202,167.86421653333335,168.11633489166667,61.0,98.0
203,168.11845353333334,168.37269053333335,61.0,100.0
204,168.37269053333335,168.62692753333334,63.0,96.0
205,168.62692753333334,168.88116453333336,65.0,96.0
206,168.88116453333336,169.13540153333335,68.0,102.0
207,169.13540153333335,169.64387553333336,70.0,110.0
208,169.64387553333336,169.89811253333335,68.0,104.0
209,169.89811253333335,171.6756528916667,70.0,108.0
210,171.67777153333336,171.92988989166668,70.0,113.0
211,171.93200853333335,172.1841268916667,70.0,108.0
212,172.18624553333333,172.43836389166668,70.0,110.0
213,172.44048253333335,172.94895653333336,70.0,113.0
214,172.94895653333336,173.20319353333335,65.0,104.0
215,173.20319353333335,173.45743053333334,68.0,113.0
216,173.45743053333334,173.71378617500002,70.0,91.0
217,173.71166753333335,175.99980053333334,68.0,89.0
218,175.99980053333334,176.2519188916667,61.0,94.0
219,176.25403753333336,176.50827453333335,61.0,96.0
220,176.50827453333335,176.76251153333334,63.0,96.0
221,176.76251153333334,177.01674853333336,65.0,100.0
222,177.01674853333336,177.27098553333335,68.0,100.0
223,177.27098553333335,177.77945953333335,70.0,114.0
224,177.77945953333335,178.03369653333334,68.0,107.0
225,178.03369653333334,178.54217053333335,70.0,113.0
226,178.54217053333335,179.81335553333335,77.0,113.0
227,179.81335553333335,180.06547389166667,70.0,108.0
228,180.06759253333334,180.3197108916667,70.0,108.0
229,180.32182953333336,180.8281848916667,70.0,107.0
230,180.83030353333334,181.0887778166667,70.0,110.0
231,181.08454053333335,181.34301481666668,65.0,110.0
232,181.33877753333334,181.84725153333335,68.0,113.0
233,181.84725153333335,182.35572553333336,65.0,98.0
234,182.35572553333336,182.63114895,68.0,107.0
235,182.60996253333334,183.11843653333335,70.0,108.0
236,183.11843653333335,184.38962153333335,65.0,104.0
237,184.38962153333335,184.64385853333334,58.0,108.0
238,184.64385853333334,185.15021389166668,65.0,102.0
239,185.15233253333335,185.40445089166667,65.0,90.0
240,185.40656953333334,185.78580639166668,65.0,107.0
241,185.66080653333336,186.42139889166668,63.0,104.0
242,186.42351753333335,186.959533875,63.0,104.0
243,186.93199153333336,187.22224544166667,61.0,104.0
244,187.18622853333335,188.45741353333335,63.0,104.0
245,188.45741353333335,188.96588753333336,65.0,104.0
246,188.96588753333336,189.22012453333335,58.0,91.0
247,189.22012453333335,189.72859853333335,63.0,96.0
248,189.72859853333335,191.50825753333336,61.0,98.0
249,192.52520553333335,193.03367953333336,73.0,119.0
250,193.03367953333336,193.54215353333336,75.0,117.0
251,193.54215353333336,193.79639053333335,77.0,120.0
252,193.79639053333335,194.04850889166667,73.0,116.0
253,194.05062753333334,194.30486453333336,73.0,116.0
254,194.30486453333336,194.55698289166668,70.0,116.0
255,194.55910153333335,194.81333853333334,70.0,117.0
256,194.81333853333334,195.06545689166668,66.0,110.0
257,195.06757553333335,195.32181253333334,66.0,110.0
258,195.32181253333334,195.5739308916667,77.0,113.0
259,195.57604953333336,195.83028653333335,77.0,116.0
260,195.83028653333335,196.08452353333334,78.0,114.0
261,196.08452353333334,196.33876053333336,77.0,113.0
262,196.33876053333336,197.6078268916667,75.0,116.0
263,197.60994553333336,197.86418253333335,75.0,114.0
264,197.86418253333335,198.1163008916667,72.0,113.0
265,198.11841953333334,198.37265653333336,72.0,113.0
266,198.37265653333336,198.62477489166668,68.0,114.0
267,198.62689353333334,198.88113053333336,68.0,114.0
268,198.88113053333336,199.13324889166668,65.0,108.0
269,199.13536753333335,199.38960453333334,65.0,110.0
270,199.38960453333334,199.6417228916667,75.0,113.0
271,199.64384153333336,199.89807853333335,75.0,116.0
272,199.89807853333335,200.15231553333336,73.0,104.0
273,200.15231553333336,200.40655253333335,72.0,108.0
274,200.40655253333335,201.16714489166668,73.0,117.0
275,201.16926353333335,201.42350053333334,73.0,114.0
276,201.42350053333334,201.67773753333336,75.0,113.0
277,201.67773753333336,202.18621153333336,82.0,116.0
278,202.18621153333336,202.43832989166668,77.0,113.0
279,202.44044853333335,202.69468553333334,77.0,110.0
280,202.69468553333334,203.71163353333336,75.0,113.0
281,203.71163353333336,204.22010753333336,70.0,117.0
282,204.22010753333336,204.50612415833336,72.0,107.0
283,204.47434453333335,204.98281853333336,73.0,110.0
284,204.98281853333336,205.49129253333336,75.0,116.0
285,205.49129253333336,208.79637353333334,77.0,119.0
286,208.79637353333334,209.30484753333334,73.0,119.0
287,209.30484753333334,209.81332153333335,75.0,117.0
288,209.81332153333335,210.06755853333334,77.0,120.0
289,210.06755853333334,210.3196768916667,73.0,116.0
290,210.32179553333336,210.57603253333335,73.0,116.0
291,210.57603253333335,210.8281508916667,70.0,116.0
292,210.83026953333336,211.08450653333335,70.0,117.0
293,211.08450653333335,211.33662489166667,66.0,110.0
294,211.33874353333334,211.59298053333336,66.0,110.0
295,211.59298053333336,211.84509889166668,77.0,113.0
296,211.84721753333335,212.10145453333334,77.0,116.0
297,212.10145453333334,212.35569153333336,78.0,114.0
298,212.35569153333336,212.60992853333335,77.0,113.0
299,212.60992853333335,213.87899489166668,75.0,116.0
300,213.88111353333335,214.13535053333337,75.0,114.0
301,214.13535053333337,214.38746889166669,72.0,113.0
302,214.38958753333335,214.64382453333334,72.0,113.0
303,214.64382453333334,214.8959428916667,68.0,114.0
304,214.89806153333336,215.15229853333335,68.0,114.0
305,215.15229853333335,215.4044168916667,65.0,108.0
306,215.40653553333334,215.66077253333336,65.0,110.0
307,215.66077253333336,215.91289089166668,75.0,113.0
308,215.91500953333335,216.16924653333336,75.0,116.0
309,216.16924653333336,216.42348353333335,73.0,104.0
310,216.42348353333335,216.67772053333334,72.0,108.0
311,216.67772053333334,217.4383128916667,73.0,117.0
312,217.44043153333334,217.69466853333336,73.0,113.0
313,217.69466853333336,217.94890553333335,65.0,113.0
314,217.94890553333335,218.45737953333335,66.0,114.0
315,218.45737953333335,218.70949789166667,73.0,114.0
316,218.71161653333334,219.98068289166667,73.0,117.0
317,219.98280153333334,220.49127553333335,73.0,114.0
318,220.49127553333335,220.99974953333336,72.0,107.0
319,220.99974953333336,221.50822353333336,70.0,113.0
320,221.50822353333336,221.79847744166668,72.0,110.0
321,221.76246053333335,222.65017139166667,73.0,113.0
322,225.06754153333335,225.57601553333336,73.0,119.0
323,225.57601553333336,226.08448953333334,75.0,117.0
324,226.08448953333334,226.33872653333336,77.0,120.0
325,226.33872653333336,226.59084489166668,73.0,116.0
326,226.59296353333335,226.84720053333336,73.0,116.0
327,226.84720053333336,227.09931889166668,70.0,116.0
328,227.10143753333335,227.35567453333334,70.0,117.0
329,227.35567453333334,227.6077928916667,66.0,110.0
330,227.60991153333336,227.86414853333335,66.0,110.0
331,227.86414853333335,228.1162668916667,77.0,113.0
332,228.11838553333337,228.37262253333336,77.0,116.0
333,228.37262253333336,228.62685953333335,78.0,114.0
334,228.62685953333335,228.88109653333336,77.0,113.0
335,228.88109653333336,230.15228153333337,75.0,116.0
336,232.18617753333336,232.44041453333335,75.0,114.0
337,232.44041453333335,232.69253289166667,72.0,113.0
338,232.69465153333334,232.94888853333336,72.0,113.0
339,232.94888853333336,233.20100689166668,68.0,114.0
340,233.20312553333335,233.45736253333337,68.0,114.0
341,233.45736253333337,233.7094808916667,65.0,108.0
342,233.71159953333336,233.96583653333334,65.0,110.0
343,233.96583653333334,234.2179548916667,75.0,113.0
344,234.22007353333336,234.47431053333335,75.0,116.0
345,234.47431053333335,234.72854753333334,73.0,104.0
346,234.72854753333334,234.98278453333336,72.0,108.0
347,234.98278453333336,235.74337689166668,73.0,117.0
348,235.74549553333335,235.99973253333334,73.0,114.0
349,235.99973253333334,236.25396953333336,75.0,113.0
350,236.25396953333336,236.76244353333337,82.0,116.0
351,236.76244353333337,237.0145618916667,77.0,113.0
352,237.01668053333336,237.27091753333335,77.0,110.0
353,237.27091753333335,238.28786553333336,75.0,113.0
354,238.28786553333336,238.79633953333337,70.0,117.0
355,238.79633953333337,239.08235615833334,72.0,107.0
356,239.05057653333336,239.55905053333336,73.0,110.0
357,239.55905053333336,240.0654058916667,80.0,116.0
358,240.06752453333334,240.57599853333335,80.0,119.0
359,240.57599853333335,240.83023553333337,75.0,119.0
360,240.83023553333337,243.37260553333334,77.0,119.0
361,243.37260553333334,243.88107953333335,73.0,119.0
362,243.88107953333335,244.38955353333336,75.0,117.0
363,244.38955353333336,244.64379053333334,77.0,120.0
364,244.64379053333334,244.8959088916667,73.0,116.0
365,244.89802753333336,245.15226453333335,73.0,116.0
366,245.15226453333335,245.4043828916667,70.0,116.0
367,245.40650153333334,245.66073853333336,70.0,117.0
368,245.66073853333336,245.91285689166668,66.0,110.0
369,245.91497553333335,246.16921253333336,66.0,110.0
370,246.16921253333336,246.42133089166668,77.0,113.0
371,246.42344953333335,246.67768653333334,77.0,116.0
372,246.67768653333334,246.93192353333336,78.0,114.0
373,246.93192353333336,247.18616053333335,77.0,113.0
374,247.18616053333335,248.45522689166668,75.0,116.0
375,248.45734553333335,248.71158253333334,75.0,114.0
376,248.71158253333334,248.9637008916667,72.0,113.0
377,248.96581953333336,249.22005653333335,72.0,113.0
378,249.22005653333335,249.4721748916667,68.0,114.0
379,249.47429353333337,249.72853053333336,68.0,114.0
380,249.72853053333336,249.98064889166668,65.0,108.0
381,249.98276753333334,250.23700453333336,65.0,110.0
382,250.23700453333336,250.48912289166668,75.0,113.0
383,250.49124153333335,250.74547853333337,75.0,116.0
384,250.74547853333337,250.99971553333336,73.0,104.0
385,250.99971553333336,251.25395253333335,72.0,108.0
386,251.25395253333335,252.0145448916667,73.0,117.0
387,252.01666353333334,252.27090053333336,73.0,113.0
388,252.27090053333336,252.52513753333335,65.0,113.0
389,252.52513753333335,253.03361153333336,66.0,114.0
390,253.03361153333336,253.28572989166668,73.0,114.0
391,253.28784853333335,254.55691489166668,73.0,117.0
392,254.55903353333335,255.06750753333336,73.0,114.0
393,255.06750753333336,255.57598153333336,72.0,107.0
394,255.57598153333336,256.59292953333335,70.0,113.0
395,256.59292953333335,257.1014035333334,72.0,110.0
396,257.1014035333334,258.6268255333334,73.0,113.0
