,start,end,pitch,velocity
0,10.671875,10.923177083333332,70.0,92.0
1,10.984375,11.233072916666666,71.0,93.0
2,11.296875,11.779947916666666,73.0,94.0
3,11.921875,12.43359375,73.0,97.0
4,12.546875,12.751302083333332,73.0,99.0
5,12.859375,13.09765625,71.0,89.0
6,13.171875,13.37109375,70.0,93.0
7,13.484375,13.713541666666666,66.0,91.0
8,13.796875,14.305989583333332,68.0,94.0
9,14.421875,14.9765625,73.0,97.0
10,15.671875,15.873697916666666,66.0,89.0
11,15.984375,16.209635416666664,68.0,90.0
12,16.296875,16.798177083333332,70.0,88.0
13,16.921875,17.42578125,70.0,92.0
14,17.546875,17.77734375,71.0,89.0
15,17.859375,18.080729166666664,70.0,92.0
16,18.171875,18.44140625,68.0,90.0
17,18.484375,18.7421875,66.0,88.0
18,18.796875,19.35546875,65.0,94.0
19,19.421875,20.390625,70.0,92.0
20,20.671875,20.921875,70.0,91.0
21,20.984375,21.1796875,73.0,99.0
22,21.296875,21.760416666666664,75.0,93.0
23,21.921875,22.40234375,75.0,95.0
24,22.546875,22.760416666666664,80.0,93.0
25,22.859375,23.0859375,77.0,90.0
26,23.171875,23.390625,75.0,93.0
27,23.484375,23.697916666666664,73.0,95.0
28,23.796875,24.2890625,73.0,97.0
29,24.421875,24.858072916666664,78.0,91.0
30,25.046875,25.671875,66.0,89.0
31,25.671875,25.911458333333332,68.0,89.0
32,25.984375,26.21484375,70.0,92.0
33,26.296875,26.765625,71.0,90.0
34,26.921875,27.109375,71.0,90.0
35,27.234375,27.453125,73.0,102.0
36,27.546875,28.055989583333332,75.0,90.0
37,28.171875,28.713541666666664,73.0,99.0
38,28.796875,29.0234375,70.0,89.0
39,29.109375,30.151041666666664,68.0,90.0
40,30.671875,30.923177083333332,70.0,92.0
41,30.984375,31.233072916666664,71.0,93.0
42,31.296875,31.779947916666664,73.0,94.0
43,31.921875,32.43359375,73.0,97.0
44,32.546875,32.75130208333333,73.0,99.0
45,32.859375,33.09765625,71.0,89.0
46,33.171875,33.37109375,70.0,93.0
47,33.484375,33.713541666666664,66.0,91.0
48,33.796875,34.30598958333333,68.0,94.0
49,34.421875,34.9765625,73.0,97.0
50,35.671875,35.873697916666664,75.0,89.0
51,35.984375,36.209635416666664,77.0,90.0
52,36.296875,36.79817708333333,78.0,88.0
53,36.921875,37.42578125,78.0,92.0
54,37.546875,37.77734375,80.0,89.0
55,37.859375,38.080729166666664,78.0,92.0
56,38.171875,38.44140625,73.0,90.0
57,38.484375,38.7421875,70.0,88.0
58,38.796875,39.109375,75.0,94.0
59,39.109375,40.359375,73.0,92.0
60,40.671875,40.885416666666664,75.0,99.0
61,40.984375,41.21223958333333,77.0,90.0
62,41.296875,41.74609375,78.0,89.0
63,41.921875,42.44270833333333,78.0,90.0
64,42.546875,42.73958333333333,80.0,86.0
65,42.859375,43.12890625,78.0,93.0
66,43.171875,43.365885416666664,75.0,92.0
67,43.484375,43.713541666666664,78.0,92.0
68,43.796875,44.213541666666664,73.0,95.0
69,44.421875,44.858072916666664,78.0,91.0
70,45.046875,45.671875,66.0,89.0
71,45.671875,45.91145833333333,68.0,89.0
72,45.984375,46.21484375,70.0,92.0
73,46.296875,46.765625,71.0,90.0
74,46.921875,47.109375,71.0,90.0
75,47.234375,47.453125,73.0,102.0
76,47.546875,48.05598958333333,75.0,90.0
77,48.171875,48.416666666666664,77.0,92.0
78,48.484375,49.158854166666664,78.0,89.0
79,49.109375,50.34765625,80.0,90.0
80,50.671875,50.912760416666664,78.0,92.0
81,50.984375,51.213541666666664,80.0,95.0
82,51.296875,52.046875,82.0,92.0
83,52.234375,52.483072916666664,78.0,89.0
84,52.546875,52.787760416666664,73.0,104.0
85,52.859375,53.02083333333333,78.0,92.0
86,53.171875,53.4375,78.0,91.0
87,53.484375,54.03125,87.0,99.0
88,54.109375,54.703125,85.0,92.0
89,54.734375,54.9375,85.0,90.0
90,55.046875,55.25520833333333,85.0,92.0
91,55.359375,55.518229166666664,80.0,93.0
92,55.671875,55.881510416666664,80.0,92.0
93,55.984375,56.22005208333333,83.0,93.0
94,56.296875,56.510416666666664,82.0,90.0
95,56.609375,57.057291666666664,78.0,90.0
96,57.234375,57.45703125,70.0,97.0
97,57.546875,57.776041666666664,70.0,99.0
98,57.859375,58.061197916666664,78.0,90.0
99,58.171875,58.37630208333333,78.0,91.0
100,58.484375,58.697916666666664,77.0,91.0
101,58.796875,59.182291666666664,77.0,88.0
102,59.421875,59.6875,70.0,93.0
103,59.734375,60.27083333333333,73.0,93.0
104,60.359375,60.592447916666664,75.0,99.0
105,60.671875,60.921875,77.0,90.0
106,60.984375,61.197916666666664,78.0,92.0
107,61.296875,62.04817708333333,80.0,88.0
108,62.234375,62.48567708333333,78.0,90.0
109,62.546875,62.78645833333333,77.0,92.0
110,62.859375,63.09375,78.0,92.0
111,63.171875,63.42708333333333,80.0,95.0
112,63.484375,63.713541666666664,83.0,90.0
113,63.796875,64.36979166666666,82.0,89.0
114,64.421875,64.89322916666666,80.0,92.0
115,65.046875,65.546875,78.0,89.0
116,65.671875,65.86979166666666,75.0,95.0
117,65.984375,66.19270833333333,77.0,89.0
118,66.296875,66.85807291666666,78.0,90.0
119,66.921875,67.07552083333333,78.0,86.0
120,67.234375,67.40104166666666,78.0,85.0
121,67.546875,67.86979166666666,78.0,94.0
122,67.859375,68.015625,77.0,84.0
123,68.171875,68.37239583333333,77.0,90.0
124,68.484375,69.02473958333333,78.0,94.0
125,69.109375,70.203125,80.0,90.0
126,70.671875,70.91276041666666,78.0,92.0
127,70.984375,71.21354166666666,80.0,95.0
128,71.296875,72.046875,82.0,92.0
129,72.234375,72.48307291666666,78.0,89.0
130,72.546875,72.78776041666666,73.0,104.0
131,72.859375,73.02083333333333,78.0,92.0
132,73.171875,73.4375,78.0,91.0
133,73.484375,74.03125,87.0,99.0
134,74.109375,74.703125,85.0,92.0
135,74.734375,74.9375,85.0,90.0
136,75.046875,75.25520833333333,85.0,92.0
137,75.359375,75.51822916666666,80.0,93.0
138,75.671875,75.88151041666666,80.0,92.0
139,75.984375,76.22005208333333,83.0,93.0
140,76.296875,76.51041666666666,82.0,90.0
141,76.609375,77.05729166666666,78.0,90.0
142,77.234375,77.45703125,70.0,97.0
143,77.546875,77.77604166666666,70.0,99.0
144,77.859375,78.06119791666666,78.0,90.0
145,78.171875,78.37630208333333,78.0,91.0
146,78.484375,78.69791666666666,77.0,91.0
147,78.796875,79.18229166666666,75.0,88.0
148,79.421875,79.6875,70.0,93.0
149,79.734375,80.27083333333333,73.0,93.0
150,80.359375,80.59244791666666,75.0,99.0
151,80.671875,80.921875,77.0,90.0
152,80.984375,81.19791666666666,78.0,92.0
153,81.296875,82.04817708333333,80.0,88.0
154,82.234375,82.48567708333333,78.0,90.0
155,82.546875,82.78645833333333,77.0,92.0
156,82.859375,83.09375,78.0,92.0
157,83.171875,83.42708333333333,80.0,95.0
158,83.484375,83.71354166666666,83.0,90.0
159,83.796875,84.36979166666666,82.0,89.0
160,84.421875,84.89322916666666,80.0,92.0
161,85.046875,85.546875,78.0,89.0
162,85.671875,85.859375,80.0,95.0
163,85.984375,86.17708333333333,82.0,95.0
164,86.296875,86.78125,83.0,94.0
165,86.73307291666666,87.08463541666666,82.0,90.0
166,87.1953125,87.42057291666666,80.0,91.0
167,87.54036458333333,88.03515625,78.0,89.0
168,88.15234375,88.36848958333333,75.0,90.0
169,88.46744791666666,89.04166666666666,77.0,90.0
170,89.12369791666666,91.26953125,78.0,90.0
171,98.171875,98.42317708333333,70.0,92.0
172,98.484375,98.73307291666666,71.0,93.0
173,98.796875,99.27994791666666,73.0,94.0
174,99.421875,99.93359375,73.0,97.0
175,100.046875,100.25130208333333,73.0,99.0
176,100.359375,100.59765625,71.0,89.0
177,100.671875,100.87109375,70.0,93.0
178,100.984375,101.21354166666666,66.0,91.0
179,101.296875,101.80598958333333,68.0,94.0
180,101.921875,102.4765625,73.0,97.0
181,103.171875,103.37369791666666,75.0,89.0
182,103.484375,103.70963541666666,77.0,90.0
183,103.796875,104.29817708333333,78.0,88.0
184,104.421875,104.92578125,78.0,92.0
185,105.046875,105.27734375,80.0,89.0
186,105.359375,105.58072916666666,78.0,92.0
187,105.671875,105.94140625,73.0,90.0
188,105.984375,106.2421875,70.0,88.0
189,106.296875,106.609375,75.0,94.0
190,106.609375,107.859375,73.0,92.0
191,108.171875,108.38541666666666,75.0,99.0
192,108.484375,108.71223958333333,77.0,90.0
193,108.796875,109.24609375,78.0,89.0
194,109.421875,109.94270833333333,78.0,90.0
195,110.046875,110.23958333333333,80.0,86.0
196,110.359375,110.62890625,78.0,93.0
197,110.671875,110.86588541666666,75.0,92.0
198,110.984375,111.21354166666666,78.0,92.0
199,111.296875,111.71354166666666,73.0,95.0
200,111.921875,112.35807291666666,78.0,91.0
201,112.546875,113.171875,66.0,89.0
202,113.171875,113.41145833333333,68.0,89.0
203,113.484375,113.71484375,70.0,92.0
204,113.796875,114.265625,71.0,90.0
205,114.421875,114.609375,71.0,90.0
206,114.734375,114.953125,73.0,102.0
207,115.046875,115.55598958333333,75.0,90.0
208,115.671875,115.91666666666666,77.0,92.0
209,115.984375,116.65885416666666,78.0,89.0
210,116.609375,117.84765625,80.0,90.0
211,118.171875,118.41276041666666,78.0,92.0
212,118.484375,118.71354166666666,80.0,95.0
213,118.796875,119.546875,82.0,92.0
214,119.734375,119.98307291666666,78.0,89.0
215,120.046875,120.28776041666666,73.0,104.0
216,120.359375,120.52083333333333,78.0,92.0
217,120.671875,120.9375,78.0,91.0
218,120.984375,121.53125,87.0,99.0
219,121.609375,122.203125,85.0,92.0
220,122.234375,122.4375,85.0,90.0
221,122.546875,122.75520833333333,85.0,92.0
222,122.859375,123.01822916666666,80.0,93.0
223,123.171875,123.38151041666666,80.0,92.0
224,123.484375,123.72005208333333,83.0,93.0
225,123.796875,124.01041666666666,82.0,90.0
226,124.109375,124.55729166666666,78.0,90.0
227,124.734375,124.95703125,70.0,97.0
228,125.046875,125.27604166666666,70.0,99.0
229,125.359375,125.56119791666666,78.0,90.0
230,125.671875,125.87630208333333,78.0,91.0
231,125.984375,126.19791666666666,77.0,91.0
232,126.296875,126.68229166666666,77.0,88.0
233,126.921875,127.1875,70.0,93.0
234,127.234375,127.77083333333333,73.0,93.0
235,127.859375,128.09244791666666,75.0,99.0
236,128.171875,128.421875,77.0,90.0
237,128.484375,128.69791666666666,78.0,92.0
238,128.796875,129.54817708333331,80.0,88.0
239,129.734375,129.98567708333331,78.0,90.0
240,130.046875,130.28645833333331,77.0,92.0
241,130.359375,130.59375,78.0,92.0
242,130.671875,130.92708333333331,80.0,95.0
243,130.984375,131.21354166666666,83.0,90.0
244,131.296875,131.86979166666666,82.0,89.0
245,131.921875,132.39322916666666,80.0,92.0
246,132.546875,133.046875,78.0,89.0
247,133.171875,133.36979166666666,75.0,95.0
248,133.484375,133.69270833333331,77.0,89.0
249,133.796875,134.35807291666666,78.0,90.0
250,134.421875,134.57552083333331,78.0,86.0
251,134.734375,134.90104166666666,78.0,85.0
252,135.046875,135.36979166666666,78.0,94.0
253,135.359375,135.515625,77.0,84.0
254,135.671875,135.87239583333331,77.0,90.0
255,135.984375,136.52473958333331,78.0,94.0
256,136.609375,137.703125,80.0,90.0
257,138.171875,138.41276041666666,78.0,92.0
258,138.484375,138.71354166666666,80.0,95.0
259,138.796875,139.546875,82.0,92.0
260,139.734375,139.98307291666666,78.0,89.0
261,140.046875,140.28776041666666,73.0,104.0
262,140.359375,140.52083333333331,78.0,92.0
263,140.671875,140.9375,78.0,91.0
264,140.984375,141.53125,87.0,99.0
265,141.609375,142.203125,85.0,92.0
266,142.234375,142.4375,85.0,90.0
267,142.546875,142.75520833333331,85.0,92.0
268,142.859375,143.01822916666666,80.0,93.0
269,143.171875,143.38151041666666,80.0,92.0
270,143.484375,143.72005208333331,83.0,93.0
271,143.796875,144.01041666666666,82.0,90.0
272,144.109375,144.55729166666666,78.0,90.0
273,144.734375,144.95703125,70.0,97.0
274,145.046875,145.27604166666666,70.0,99.0
275,145.359375,145.56119791666666,78.0,90.0
276,145.671875,145.87630208333331,78.0,91.0
277,145.984375,146.19791666666666,77.0,91.0
278,146.296875,146.68229166666666,75.0,88.0
279,146.921875,147.1875,70.0,93.0
280,147.234375,147.77083333333331,73.0,93.0
281,147.859375,148.09244791666666,75.0,99.0
282,148.171875,148.421875,77.0,90.0
283,148.484375,148.69791666666666,78.0,92.0
284,148.796875,149.54817708333331,80.0,88.0
285,149.734375,149.98567708333331,78.0,90.0
286,150.046875,150.28645833333331,77.0,92.0
287,150.359375,150.59375,78.0,92.0
288,150.671875,150.92708333333331,80.0,95.0
289,150.984375,151.21354166666666,83.0,90.0
290,151.296875,151.86979166666666,82.0,89.0
291,151.921875,152.39322916666666,80.0,92.0
292,152.546875,153.046875,78.0,89.0
293,153.171875,153.359375,80.0,95.0
294,153.484375,153.67708333333331,82.0,95.0
295,153.796875,154.28125,83.0,94.0
296,154.23307291666666,154.58463541666666,82.0,90.0
297,154.6953125,154.92057291666666,80.0,91.0
298,155.04036458333331,155.53515625,78.0,89.0
299,155.65234375,155.86848958333331,75.0,90.0
300,155.96744791666666,156.54166666666666,77.0,90.0
301,156.62369791666666,158.76953125,78.0,90.0
302,175.671875,175.91276041666666,78.0,92.0
303,175.984375,176.21354166666666,80.0,95.0
304,176.296875,177.046875,82.0,92.0
305,177.234375,177.48307291666666,78.0,89.0
306,177.546875,177.78776041666666,73.0,104.0
307,177.859375,178.02083333333331,78.0,92.0
308,178.171875,178.4375,78.0,91.0
309,178.484375,179.03125,87.0,99.0
310,179.109375,179.703125,85.0,92.0
311,179.734375,179.9375,85.0,90.0
312,180.046875,180.25520833333331,85.0,92.0
313,180.359375,180.51822916666666,80.0,93.0
314,180.671875,180.88151041666666,80.0,92.0
315,180.984375,181.22005208333331,83.0,93.0
316,181.296875,181.51041666666666,82.0,90.0
317,181.609375,182.05729166666666,78.0,90.0
318,182.234375,182.45703125,70.0,97.0
319,182.546875,182.77604166666666,70.0,99.0
320,182.859375,183.06119791666666,78.0,90.0
321,183.171875,183.37630208333331,78.0,91.0
322,183.484375,183.69791666666666,77.0,91.0
323,183.796875,184.18229166666666,77.0,88.0
324,184.421875,184.6875,70.0,93.0
325,184.734375,185.27083333333331,73.0,93.0
326,185.359375,185.59244791666666,75.0,99.0
327,185.671875,185.921875,77.0,90.0
328,185.984375,186.19791666666666,78.0,92.0
329,186.296875,187.04817708333331,80.0,88.0
330,187.234375,187.48567708333331,78.0,90.0
331,187.546875,187.78645833333331,77.0,92.0
332,187.859375,188.09375,78.0,92.0
333,188.171875,188.42708333333331,80.0,95.0
334,188.484375,188.71354166666666,83.0,90.0
335,188.796875,189.36979166666666,82.0,89.0
336,189.421875,189.89322916666666,80.0,92.0
337,190.046875,190.546875,78.0,89.0
338,190.671875,190.86979166666666,75.0,95.0
339,190.984375,191.19270833333331,77.0,89.0
340,191.296875,191.85807291666666,78.0,90.0
341,191.921875,192.07552083333331,78.0,86.0
342,192.234375,192.40104166666666,78.0,85.0
343,192.546875,192.86979166666666,78.0,94.0
344,192.859375,193.015625,77.0,84.0
345,193.171875,193.37239583333331,77.0,90.0
346,193.484375,194.02473958333331,78.0,94.0
347,194.109375,195.203125,80.0,90.0
348,195.671875,195.91276041666666,78.0,92.0
349,195.984375,196.21354166666666,80.0,95.0
350,196.296875,197.046875,82.0,92.0
351,197.234375,197.48307291666666,78.0,89.0
352,197.546875,197.78776041666666,73.0,104.0
353,197.859375,198.02083333333331,78.0,92.0
354,198.171875,198.4375,78.0,91.0
355,198.484375,199.03125,87.0,99.0
356,199.109375,199.703125,85.0,92.0
357,199.734375,199.9375,85.0,90.0
358,200.046875,200.25520833333331,85.0,92.0
359,200.359375,200.51822916666666,80.0,93.0
360,200.671875,200.88151041666666,80.0,92.0
361,200.984375,201.22005208333331,83.0,93.0
362,201.296875,201.51041666666666,82.0,90.0
363,201.609375,202.05729166666666,78.0,90.0
364,202.234375,202.45703125,70.0,97.0
365,202.546875,202.77604166666666,70.0,99.0
366,202.859375,203.06119791666666,78.0,90.0
367,203.171875,203.37630208333331,78.0,91.0
368,203.484375,203.69791666666666,77.0,91.0
369,203.796875,204.18229166666666,75.0,88.0
370,204.421875,204.6875,70.0,93.0
371,204.734375,205.27083333333331,73.0,93.0
372,205.359375,205.59244791666666,75.0,99.0
373,205.671875,205.921875,77.0,90.0
374,205.984375,206.19791666666666,78.0,92.0
375,206.296875,207.04817708333331,80.0,88.0
376,207.234375,207.48567708333331,78.0,90.0
377,207.546875,207.78645833333331,77.0,92.0
378,207.859375,208.09375,78.0,92.0
379,208.171875,208.42708333333331,80.0,95.0
380,208.484375,208.71354166666666,83.0,90.0
381,208.796875,209.36979166666666,82.0,89.0
382,209.421875,209.89322916666666,80.0,92.0
383,210.046875,210.546875,78.0,89.0
384,210.671875,210.859375,80.0,95.0
385,210.984375,211.17708333333331,82.0,95.0
386,211.296875,211.78125,83.0,94.0
387,211.73307291666666,212.08463541666666,82.0,90.0
388,212.1953125,212.42057291666666,80.0,91.0
389,212.54036458333331,213.03515625,78.0,89.0
390,213.15234375,213.36848958333331,75.0,90.0
391,213.46744791666666,214.04166666666666,77.0,90.0
392,214.12369791666666,216.26953125,78.0,90.0
