,start,end,pitch,velocity
0,1.296875,1.84765625,61.0,81.0
1,1.296875,1.8528645833333333,66.0,80.0
2,1.921875,2.466145833333333,61.0,84.0
3,1.921875,2.481770833333333,66.0,86.0
4,2.546875,3.0729166666666665,61.0,79.0
5,2.546875,3.0807291666666665,66.0,76.0
6,3.171875,3.6471354166666665,61.0,82.0
7,3.171875,3.700520833333333,66.0,81.0
8,1.296875,3.751302083333333,54.0,85.0
9,3.796875,4.322916666666666,65.0,79.0
10,3.796875,4.330729166666666,61.0,79.0
11,4.421875,4.95703125,61.0,77.0
12,4.421875,4.97265625,65.0,77.0
13,5.046875,5.579427083333333,61.0,84.0
14,5.046875,5.58984375,65.0,82.0
15,5.671875,6.12890625,61.0,85.0
16,5.671875,6.18359375,65.0,82.0
17,3.796875,6.1875,49.0,77.0
18,6.296875,6.8359375,63.0,83.0
19,6.296875,6.85546875,66.0,80.0
20,6.921875,7.447916666666666,66.0,88.0
21,6.921875,7.453125,63.0,88.0
22,7.546875,8.07421875,66.0,84.0
23,7.546875,8.080729166666666,63.0,89.0
24,6.296875,8.376302083333332,51.0,86.0
25,8.171875,8.5390625,63.0,90.0
26,8.171875,8.557291666666666,66.0,85.0
27,8.796875,9.272135416666666,59.0,79.0
28,8.796875,9.298177083333332,54.0,78.0
29,9.421875,9.809895833333332,63.0,86.0
30,9.421875,9.854166666666666,59.0,82.0
31,9.734375,9.973958333333332,54.0,78.0
32,8.796875,10.782552083333332,47.0,85.0
33,10.046875,11.171875,54.0,84.0
34,10.046875,11.171875,59.0,79.0
35,10.046875,11.171875,63.0,88.0
36,11.296875,11.684895833333332,73.0,88.0
37,11.296875,11.694010416666666,66.0,77.0
38,11.296875,11.694010416666666,70.0,79.0
39,11.609375,11.979166666666666,61.0,78.0
40,11.921875,12.149739583333332,66.0,85.0
41,11.921875,12.240885416666666,73.0,90.0
42,11.921875,12.259114583333332,70.0,89.0
43,12.234375,12.58203125,61.0,76.0
44,12.546875,12.921875,66.0,79.0
45,12.546875,12.944010416666666,70.0,82.0
46,12.546875,12.944010416666666,73.0,88.0
47,11.296875,13.055989583333332,42.0,88.0
48,12.859375,13.229166666666666,61.0,76.0
49,13.171875,13.423177083333332,70.0,83.0
50,13.171875,13.4609375,66.0,87.0
51,13.171875,13.5859375,73.0,89.0
52,13.484375,13.893229166666666,61.0,84.0
53,13.796875,14.139322916666666,68.0,77.0
54,13.796875,14.16796875,65.0,68.0
55,13.796875,14.240885416666666,73.0,89.0
56,14.109375,14.473958333333332,61.0,80.0
57,14.421875,14.76171875,65.0,78.0
58,14.421875,14.78515625,68.0,79.0
59,14.421875,14.794270833333332,73.0,89.0
60,14.734375,15.037760416666666,61.0,73.0
61,15.046875,15.296875,65.0,80.0
62,15.046875,15.411458333333332,68.0,81.0
63,15.046875,15.427083333333332,73.0,90.0
64,13.796875,15.45703125,49.0,89.0
65,15.359375,15.572916666666666,61.0,76.0
66,15.671875,15.979166666666666,65.0,90.0
67,15.671875,16.028645833333332,73.0,91.0
68,15.671875,16.084635416666664,68.0,90.0
69,15.984375,16.126302083333332,61.0,83.0
70,16.296875,16.483072916666664,63.0,82.0
71,16.296875,16.725260416666664,66.0,77.0
72,16.296875,16.759114583333332,70.0,88.0
73,16.609375,16.953125,63.0,83.0
74,16.921875,17.263020833333332,66.0,84.0
75,16.921875,17.28125,70.0,88.0
76,17.234375,17.423177083333332,63.0,80.0
77,17.546875,17.645833333333332,63.0,84.0
78,16.296875,17.858072916666664,51.0,90.0
79,17.546875,17.953125,70.0,86.0
80,17.546875,17.9609375,66.0,83.0
81,17.859375,18.0234375,63.0,80.0
82,18.171875,18.428385416666664,66.0,87.0
83,18.171875,18.522135416666664,70.0,88.0
84,18.484375,18.583333333333332,63.0,82.0
85,18.796875,19.0,58.0,80.0
86,18.796875,19.22265625,65.0,79.0
87,18.796875,19.233072916666664,61.0,79.0
88,19.109375,19.299479166666664,58.0,81.0
89,19.421875,19.598958333333332,61.0,84.0
90,19.421875,19.640625,65.0,85.0
91,19.734375,19.88671875,58.0,78.0
92,20.046875,20.447916666666664,61.0,86.0
93,20.046875,20.451822916666664,65.0,81.0
94,20.359375,20.509114583333332,58.0,80.0
95,18.796875,20.614583333333332,46.0,85.0
96,20.671875,21.022135416666664,61.0,90.0
97,20.671875,21.061197916666664,65.0,90.0
98,20.984375,21.115885416666664,58.0,90.0
99,21.296875,21.479166666666664,59.0,88.0
100,21.296875,21.65234375,63.0,90.0
101,21.609375,21.84375,59.0,84.0
102,21.921875,22.298177083333332,66.0,88.0
103,21.921875,22.328125,63.0,90.0
104,22.234375,22.434895833333332,59.0,77.0
105,22.546875,22.880208333333332,66.0,86.0
106,22.546875,22.91015625,63.0,89.0
107,22.859375,23.022135416666664,59.0,83.0
108,21.296875,23.223958333333332,47.0,89.0
109,23.171875,23.2890625,59.0,88.0
110,23.171875,23.369791666666664,63.0,92.0
111,23.171875,23.384114583333332,66.0,85.0
112,23.484375,23.6796875,59.0,89.0
113,23.796875,23.9921875,58.0,86.0
114,23.796875,24.221354166666664,61.0,81.0
115,23.796875,24.263020833333332,65.0,84.0
116,24.109375,24.348958333333332,58.0,84.0
117,24.421875,24.708333333333332,61.0,87.0
118,24.421875,24.765625,65.0,88.0
119,23.796875,24.919270833333332,46.0,88.0
120,24.734375,25.106770833333332,58.0,88.0
121,25.046875,25.411458333333332,63.0,90.0
122,25.046875,25.432291666666664,66.0,86.0
123,25.046875,25.65625,51.0,85.0
124,25.359375,25.721354166666664,58.0,88.0
125,25.671875,26.018229166666664,63.0,90.0
126,25.671875,26.076822916666664,66.0,90.0
127,25.984375,26.12109375,58.0,94.0
128,26.296875,26.4765625,56.0,78.0
129,26.296875,26.735677083333332,63.0,88.0
130,26.296875,26.759114583333332,59.0,80.0
131,26.609375,26.899739583333332,56.0,70.0
132,26.921875,27.3125,59.0,86.0
133,26.921875,27.313802083333332,63.0,90.0
134,27.234375,27.54296875,56.0,75.0
135,27.546875,27.951822916666664,59.0,88.0
136,27.546875,27.9609375,63.0,89.0
137,27.859375,28.221354166666664,54.0,88.0
138,28.171875,28.372395833333332,59.0,89.0
139,26.296875,28.43359375,44.0,87.0
140,28.484375,28.5234375,59.0,48.0
141,28.171875,28.600260416666664,63.0,91.0
142,28.484375,28.631510416666664,54.0,88.0
143,28.796875,29.212239583333332,65.0,87.0
144,28.796875,29.233072916666664,61.0,88.0
145,29.109375,29.49609375,56.0,74.0
146,29.421875,29.803385416666664,61.0,84.0
147,29.421875,29.837239583333332,65.0,82.0
148,29.734375,30.08203125,56.0,87.0
149,30.046875,30.388020833333332,59.0,84.0
150,30.046875,30.47265625,65.0,89.0
151,30.359375,30.736979166666664,56.0,87.0
152,30.671875,31.087239583333332,65.0,93.0
153,30.671875,31.21875,61.0,89.0
154,30.984375,31.270833333333332,56.0,92.0
155,28.796875,31.321614583333332,49.0,89.0
156,31.296875,31.684895833333332,73.0,88.0
157,31.296875,31.694010416666664,66.0,77.0
158,31.296875,31.694010416666664,70.0,79.0
159,31.609375,31.979166666666664,61.0,78.0
160,31.921875,32.14973958333333,66.0,85.0
161,31.921875,32.240885416666664,73.0,90.0
162,31.921875,32.25911458333333,70.0,89.0
163,32.234375,32.58203125,61.0,76.0
164,32.546875,32.921875,66.0,79.0
165,32.546875,32.944010416666664,70.0,82.0
166,32.546875,32.944010416666664,73.0,88.0
167,31.296875,33.05598958333333,42.0,88.0
168,32.859375,33.229166666666664,61.0,76.0
169,33.171875,33.42317708333333,70.0,83.0
170,33.171875,33.4609375,66.0,87.0
171,33.171875,33.5859375,73.0,89.0
172,33.484375,33.893229166666664,61.0,84.0
173,33.796875,34.139322916666664,68.0,77.0
174,33.796875,34.16796875,65.0,68.0
175,33.796875,34.240885416666664,73.0,89.0
176,34.109375,34.47395833333333,61.0,80.0
177,34.421875,34.76171875,65.0,78.0
178,34.421875,34.78515625,68.0,79.0
179,34.421875,34.79427083333333,73.0,89.0
180,34.734375,35.037760416666664,61.0,73.0
181,35.046875,35.296875,65.0,80.0
182,35.046875,35.41145833333333,68.0,81.0
183,35.046875,35.42708333333333,73.0,90.0
184,33.796875,35.45703125,49.0,89.0
185,35.359375,35.572916666666664,61.0,76.0
186,35.671875,35.979166666666664,65.0,90.0
187,35.671875,36.02864583333333,73.0,91.0
188,35.671875,36.084635416666664,68.0,90.0
189,35.984375,36.12630208333333,61.0,83.0
190,36.296875,36.483072916666664,63.0,82.0
191,36.296875,36.725260416666664,66.0,77.0
192,36.296875,36.75911458333333,70.0,88.0
193,36.609375,36.953125,63.0,83.0
194,36.921875,37.26302083333333,66.0,84.0
195,36.921875,37.28125,70.0,88.0
196,37.234375,37.42317708333333,63.0,80.0
197,37.546875,37.64583333333333,63.0,84.0
198,36.296875,37.858072916666664,51.0,90.0
199,37.546875,37.953125,70.0,86.0
200,37.546875,37.9609375,66.0,83.0
201,37.859375,38.0234375,63.0,80.0
202,38.171875,38.428385416666664,66.0,87.0
203,38.171875,38.522135416666664,70.0,88.0
204,38.484375,38.58333333333333,63.0,82.0
205,38.796875,39.0,58.0,80.0
206,38.796875,39.22265625,65.0,79.0
207,38.796875,39.233072916666664,61.0,79.0
208,39.109375,39.299479166666664,58.0,81.0
209,39.421875,39.59895833333333,61.0,84.0
210,39.421875,39.640625,65.0,85.0
211,39.734375,39.88671875,58.0,78.0
212,40.046875,40.447916666666664,61.0,86.0
213,40.046875,40.451822916666664,65.0,81.0
214,40.359375,40.50911458333333,58.0,80.0
215,38.796875,40.61458333333333,46.0,85.0
216,40.671875,41.022135416666664,61.0,90.0
217,40.671875,41.061197916666664,65.0,90.0
218,40.984375,41.115885416666664,58.0,90.0
219,41.296875,41.479166666666664,59.0,88.0
220,41.296875,41.65234375,63.0,90.0
221,41.609375,41.84375,59.0,84.0
222,41.921875,42.29817708333333,66.0,88.0
223,41.921875,42.328125,63.0,90.0
224,42.234375,42.43489583333333,59.0,77.0
225,42.546875,42.88020833333333,66.0,86.0
226,42.546875,42.91015625,63.0,89.0
227,42.859375,43.022135416666664,59.0,83.0
228,41.296875,43.22395833333333,47.0,89.0
229,43.171875,43.2890625,59.0,88.0
230,43.171875,43.369791666666664,63.0,92.0
231,43.171875,43.38411458333333,66.0,85.0
232,43.484375,43.6796875,59.0,89.0
233,43.796875,43.9921875,58.0,86.0
234,43.796875,44.221354166666664,61.0,81.0
235,43.796875,44.26302083333333,65.0,84.0
236,44.109375,44.34895833333333,58.0,84.0
237,44.421875,44.70833333333333,61.0,87.0
238,44.421875,44.765625,65.0,88.0
239,43.796875,44.91927083333333,46.0,88.0
240,44.734375,45.10677083333333,58.0,88.0
241,45.046875,45.41145833333333,63.0,90.0
242,45.046875,45.432291666666664,66.0,86.0
243,45.046875,45.65625,51.0,85.0
244,45.359375,45.721354166666664,58.0,88.0
245,45.671875,46.018229166666664,63.0,90.0
246,45.671875,46.076822916666664,66.0,90.0
247,45.984375,46.12109375,58.0,94.0
248,46.296875,46.4765625,56.0,78.0
249,46.296875,46.73567708333333,63.0,88.0
250,46.296875,46.75911458333333,59.0,80.0
251,46.609375,46.89973958333333,56.0,70.0
252,46.921875,47.3125,59.0,86.0
253,46.921875,47.31380208333333,63.0,90.0
254,47.234375,47.54296875,56.0,75.0
255,47.546875,47.951822916666664,59.0,88.0
256,47.546875,47.9609375,63.0,89.0
257,47.859375,48.221354166666664,54.0,88.0
258,48.171875,48.37239583333333,59.0,89.0
259,46.296875,48.43359375,44.0,87.0
260,48.484375,48.5234375,59.0,48.0
261,48.171875,48.600260416666664,63.0,91.0
262,48.484375,48.631510416666664,54.0,88.0
263,48.796875,49.21223958333333,65.0,87.0
264,48.796875,49.233072916666664,61.0,88.0
265,49.109375,49.49609375,56.0,74.0
266,49.421875,49.803385416666664,61.0,84.0
267,49.421875,49.83723958333333,65.0,82.0
268,49.734375,50.08203125,56.0,87.0
269,50.046875,50.38802083333333,59.0,84.0
270,50.046875,50.47265625,65.0,89.0
271,50.359375,50.736979166666664,56.0,87.0
272,50.671875,51.08723958333333,65.0,93.0
273,50.671875,51.21875,61.0,89.0
274,50.984375,51.27083333333333,56.0,92.0
275,48.796875,51.32161458333333,49.0,89.0
276,51.296875,51.74348958333333,54.0,88.0
277,51.296875,51.98958333333333,61.0,87.0
278,51.609375,52.82161458333333,49.0,84.0
279,51.921875,53.09375,54.0,95.0
280,52.234375,53.19140625,66.0,88.0
281,52.234375,53.25911458333333,61.0,90.0
282,51.296875,53.260416666666664,42.0,90.0
283,53.171875,53.36067708333333,49.0,91.0
284,53.484375,53.60286458333333,54.0,95.0
285,53.796875,54.10546875,58.0,90.0
286,53.796875,54.34375,61.0,92.0
287,54.421875,54.635416666666664,56.0,93.0
288,54.109375,54.83723958333333,53.0,82.0
289,54.734375,55.408854166666664,65.0,91.0
290,54.734375,55.43880208333333,61.0,89.0
291,55.359375,55.56770833333333,53.0,88.0
292,53.796875,55.62630208333333,46.0,90.0
293,55.671875,55.75520833333333,58.0,84.0
294,55.671875,56.0390625,65.0,90.0
295,55.671875,56.04817708333333,61.0,91.0
296,55.984375,56.38802083333333,58.0,90.0
297,56.296875,56.89453125,63.0,84.0
298,56.296875,56.98177083333333,66.0,88.0
299,56.921875,57.0625,58.0,88.0
300,56.609375,57.38020833333333,46.0,79.0
301,57.234375,57.63020833333333,58.0,97.0
302,57.234375,57.93489583333333,66.0,95.0
303,57.859375,58.03125,58.0,88.0
304,56.296875,58.256510416666664,39.0,90.0
305,57.546875,58.28125,46.0,88.0
306,58.171875,58.32161458333333,58.0,89.0
307,58.171875,58.48046875,63.0,94.0
308,58.484375,58.7109375,58.0,86.0
309,58.796875,59.13020833333333,61.0,86.0
310,58.796875,59.28255208333333,65.0,84.0
311,59.421875,59.56770833333333,61.0,80.0
312,59.109375,59.5703125,56.0,87.0
313,59.734375,60.06380208333333,56.0,88.0
314,59.734375,60.40625,61.0,91.0
315,59.734375,60.45052083333333,65.0,93.0
316,60.359375,60.515625,56.0,82.0
317,58.796875,60.89192708333333,49.0,97.0
318,60.671875,60.908854166666664,56.0,89.0
319,60.671875,60.908854166666664,61.0,92.0
320,61.296875,61.48177083333333,54.0,88.0
321,61.296875,61.85677083333333,63.0,90.0
322,61.609375,62.022135416666664,54.0,90.0
323,61.921875,62.06380208333333,59.0,88.0
324,62.234375,62.436197916666664,54.0,89.0
325,62.234375,62.553385416666664,61.0,91.0
326,62.546875,62.77083333333333,59.0,83.0
327,62.859375,62.97005208333333,54.0,74.0
328,63.171875,63.365885416666664,54.0,90.0
329,61.296875,63.38411458333333,47.0,90.0
330,63.171875,63.44270833333333,63.0,93.0
331,63.796875,64.20052083333333,58.0,89.0
332,63.796875,64.23697916666666,61.0,89.0
333,64.421875,64.58854166666666,58.0,89.0
334,64.109375,64.60677083333333,53.0,76.0
335,64.421875,64.71875,61.0,89.0
336,63.796875,64.72786458333333,46.0,92.0
337,64.421875,64.77994791666666,65.0,85.0
338,64.734375,64.99739583333333,58.0,80.0
339,65.046875,65.09895833333333,58.0,78.0
340,65.359375,65.578125,58.0,90.0
341,65.046875,65.60286458333333,66.0,90.0
342,65.046875,65.80598958333333,51.0,91.0
343,65.671875,65.80859375,58.0,90.0
344,65.671875,65.9921875,63.0,94.0
345,65.984375,66.12630208333333,58.0,77.0
346,66.296875,66.69140625,56.0,88.0
347,66.296875,66.953125,59.0,89.0
348,66.921875,67.125,56.0,83.0
349,66.609375,67.55859375,51.0,86.0
350,67.234375,67.88671875,63.0,93.0
351,67.234375,67.89583333333333,59.0,94.0
352,67.234375,67.9140625,56.0,92.0
353,67.859375,68.1875,51.0,87.0
354,66.296875,68.21875,44.0,89.0
355,68.171875,68.3046875,56.0,90.0
356,68.171875,68.65494791666666,59.0,97.0
357,68.484375,68.68229166666666,56.0,86.0
358,68.796875,69.04036458333333,56.0,89.0
359,68.796875,69.07552083333333,61.0,92.0
360,69.421875,69.57682291666666,56.0,89.0
361,69.109375,69.84375,44.0,74.0
362,69.734375,69.93880208333333,56.0,91.0
363,69.734375,70.02213541666666,65.0,90.0
364,70.359375,70.640625,61.0,91.0
365,68.796875,70.95703125,37.0,93.0
366,70.046875,70.95703125,44.0,83.0
367,70.671875,71.14583333333333,65.0,95.0
368,71.296875,71.67708333333333,61.0,88.0
369,71.296875,71.77473958333333,66.0,84.0
370,71.921875,72.06119791666666,61.0,89.0
371,71.609375,72.36588541666666,49.0,81.0
372,72.234375,72.9296875,61.0,91.0
373,72.234375,72.98307291666666,66.0,89.0
374,72.234375,73.02213541666666,70.0,88.0
375,71.296875,73.18880208333333,42.0,89.0
376,72.859375,73.2734375,49.0,89.0
377,73.171875,73.578125,61.0,99.0
378,73.484375,73.59895833333333,66.0,92.0
379,73.796875,74.15234375,58.0,88.0
380,73.796875,74.59505208333333,65.0,89.0
381,74.421875,74.63541666666666,56.0,88.0
382,74.109375,75.01953125,53.0,88.0
383,74.734375,75.49479166666666,61.0,89.0
384,74.734375,75.54557291666666,65.0,91.0
385,75.359375,75.61588541666666,53.0,82.0
386,73.796875,75.703125,46.0,89.0
387,75.671875,75.703125,65.0,73.0
388,75.671875,76.08723958333333,58.0,97.0
389,75.984375,76.25130208333333,61.0,90.0
390,76.296875,76.71484375,63.0,86.0
391,76.921875,77.08072916666666,63.0,92.0
392,76.609375,77.6640625,46.0,89.0
393,77.234375,77.87630208333333,66.0,90.0
394,77.234375,77.89973958333333,63.0,94.0
395,76.296875,78.23828125,39.0,90.0
396,77.859375,78.2578125,46.0,77.0
397,78.171875,78.29166666666666,63.0,89.0
398,78.171875,78.47916666666666,70.0,90.0
399,78.171875,78.51432291666666,66.0,92.0
400,78.484375,78.55729166666666,63.0,76.0
401,78.796875,79.38541666666666,65.0,95.0
402,79.421875,79.59505208333333,56.0,95.0
403,79.109375,79.88411458333333,44.0,84.0
404,79.734375,80.11197916666666,61.0,95.0
405,79.734375,80.12760416666666,56.0,95.0
406,80.359375,80.39583333333333,56.0,73.0
407,80.046875,80.453125,44.0,86.0
408,78.796875,80.73177083333333,37.0,92.0
409,80.671875,80.83333333333333,44.0,87.0
410,80.359375,80.97135416666666,65.0,95.0
411,80.359375,81.04166666666666,61.0,95.0
412,80.984375,81.08463541666666,56.0,95.0
413,81.296875,81.64192708333333,59.0,89.0
414,81.296875,81.64322916666666,63.0,99.0
415,81.921875,82.06380208333333,59.0,91.0
416,81.609375,82.42708333333333,54.0,82.0
417,82.234375,82.66666666666666,59.0,99.0
418,82.234375,82.95182291666666,66.0,91.0
419,82.859375,82.98958333333333,59.0,89.0
420,83.171875,83.29817708333333,59.0,97.0
421,82.546875,83.34244791666666,54.0,89.0
422,81.296875,83.35807291666666,47.0,93.0
423,83.171875,83.43229166666666,63.0,109.0
424,83.484375,83.57942708333333,59.0,84.0
425,83.796875,84.14973958333333,56.0,90.0
426,83.796875,84.38541666666666,61.0,88.0
427,83.796875,84.45833333333333,65.0,81.0
428,84.109375,84.49869791666666,53.0,88.0
429,83.796875,84.50390625,46.0,89.0
430,84.421875,84.7890625,56.0,92.0
431,84.734375,84.98307291666666,61.0,93.0
432,85.046875,85.39322916666666,58.0,88.0
433,85.046875,85.72786458333333,66.0,86.0
434,85.359375,85.82161458333333,46.0,80.0
435,85.046875,85.859375,39.0,94.0
436,85.671875,86.046875,58.0,94.0
437,85.984375,86.06770833333333,63.0,93.0
438,86.296875,86.671875,54.0,92.0
439,86.296875,86.84244791666666,59.0,92.0
440,86.609375,86.98958333333333,51.0,89.0
441,86.296875,87.0234375,44.0,90.0
442,86.921875,87.2734375,54.0,94.0
443,87.234375,87.55989583333333,59.0,92.0
444,87.546875,87.88020833333333,61.0,88.0
445,87.546875,87.89973958333333,56.0,83.0
446,87.859375,88.25,44.0,76.0
447,87.546875,88.29427083333333,37.0,94.0
448,88.171875,88.38020833333333,56.0,89.0
449,88.796875,89.21223958333333,54.0,89.0
450,88.796875,89.296875,61.0,85.0
451,89.421875,89.59895833333333,54.0,84.0
452,89.109375,90.21223958333333,49.0,79.0
453,89.734375,90.69140625,54.0,86.0
454,89.734375,90.73046875,58.0,83.0
455,89.734375,90.74739583333333,61.0,87.0
456,88.796875,90.8203125,42.0,89.0
457,90.671875,90.85416666666666,49.0,79.0
458,90.984375,91.08333333333333,54.0,86.0
459,91.296875,91.57421875,56.0,80.0
460,91.296875,91.59375,61.0,87.0
461,91.921875,92.125,56.0,83.0
462,92.234375,92.84114583333333,65.0,89.0
463,92.234375,93.22395833333333,56.0,88.0
464,91.609375,93.36848958333333,44.0,73.0
465,91.296875,93.39713541666666,37.0,92.0
466,93.171875,93.51822916666666,66.0,90.0
467,93.484375,93.8671875,65.0,94.0
468,93.796875,94.17708333333333,63.0,88.0
469,94.421875,94.51171875,63.0,87.0
470,94.109375,95.37369791666666,58.0,87.0
471,94.734375,95.72526041666666,61.0,89.0
472,94.734375,95.81510416666666,66.0,86.0
473,93.796875,95.90234375,51.0,90.0
474,95.671875,95.921875,58.0,92.0
475,95.984375,96.15755208333333,61.0,83.0
476,96.296875,96.76822916666666,66.0,82.0
477,96.296875,96.76953125,59.0,88.0
478,96.921875,97.10026041666666,61.0,92.0
479,97.234375,97.40364583333333,59.0,84.0
480,96.609375,98.27734375,54.0,85.0
481,96.296875,98.28255208333333,47.0,91.0
482,97.234375,98.65104166666666,66.0,89.0
483,97.546875,98.65494791666666,59.0,82.0
484,98.796875,99.18489583333333,73.0,88.0
485,98.796875,99.19401041666666,66.0,77.0
486,98.796875,99.19401041666666,70.0,79.0
487,99.109375,99.47916666666666,61.0,78.0
488,99.421875,99.64973958333333,66.0,85.0
489,99.421875,99.74088541666666,73.0,90.0
490,99.421875,99.75911458333333,70.0,89.0
491,99.734375,100.08203125,61.0,76.0
492,100.046875,100.421875,66.0,79.0
493,100.046875,100.44401041666666,70.0,82.0
494,100.046875,100.44401041666666,73.0,88.0
495,98.796875,100.55598958333333,42.0,88.0
496,100.359375,100.72916666666666,61.0,76.0
497,100.671875,100.92317708333333,70.0,83.0
498,100.671875,100.9609375,66.0,87.0
499,100.671875,101.0859375,73.0,89.0
500,100.984375,101.39322916666666,61.0,84.0
501,101.296875,101.63932291666666,68.0,77.0
502,101.296875,101.66796875,65.0,68.0
503,101.296875,101.74088541666666,73.0,89.0
504,101.609375,101.97395833333333,61.0,80.0
505,101.921875,102.26171875,65.0,78.0
506,101.921875,102.28515625,68.0,79.0
507,101.921875,102.29427083333333,73.0,89.0
508,102.234375,102.53776041666666,61.0,73.0
509,102.546875,102.796875,65.0,80.0
510,102.546875,102.91145833333333,68.0,81.0
511,102.546875,102.92708333333333,73.0,90.0
512,101.296875,102.95703125,49.0,89.0
513,102.859375,103.07291666666666,61.0,76.0
514,103.171875,103.47916666666666,65.0,90.0
515,103.171875,103.52864583333333,73.0,91.0
516,103.171875,103.58463541666666,68.0,90.0
517,103.484375,103.62630208333333,61.0,83.0
518,103.796875,103.98307291666666,63.0,82.0
519,103.796875,104.22526041666666,66.0,77.0
520,103.796875,104.25911458333333,70.0,88.0
521,104.109375,104.453125,63.0,83.0
522,104.421875,104.76302083333333,66.0,84.0
523,104.421875,104.78125,70.0,88.0
524,104.734375,104.92317708333333,63.0,80.0
525,105.046875,105.14583333333333,63.0,84.0
526,103.796875,105.35807291666666,51.0,90.0
527,105.046875,105.453125,70.0,86.0
528,105.046875,105.4609375,66.0,83.0
529,105.359375,105.5234375,63.0,80.0
530,105.671875,105.92838541666666,66.0,87.0
531,105.671875,106.02213541666666,70.0,88.0
532,105.984375,106.08333333333333,63.0,82.0
533,106.296875,106.5,58.0,80.0
534,106.296875,106.72265625,65.0,79.0
535,106.296875,106.73307291666666,61.0,79.0
536,106.609375,106.79947916666666,58.0,81.0
537,106.921875,107.09895833333333,61.0,84.0
538,106.921875,107.140625,65.0,85.0
539,107.234375,107.38671875,58.0,78.0
540,107.546875,107.94791666666666,61.0,86.0
541,107.546875,107.95182291666666,65.0,81.0
542,107.859375,108.00911458333333,58.0,80.0
543,106.296875,108.11458333333333,46.0,85.0
544,108.171875,108.52213541666666,61.0,90.0
545,108.171875,108.56119791666666,65.0,90.0
546,108.484375,108.61588541666666,58.0,90.0
547,108.796875,108.97916666666666,59.0,88.0
548,108.796875,109.15234375,63.0,90.0
549,109.109375,109.34375,59.0,84.0
550,109.421875,109.79817708333333,66.0,88.0
551,109.421875,109.828125,63.0,90.0
552,109.734375,109.93489583333333,59.0,77.0
553,110.046875,110.38020833333333,66.0,86.0
554,110.046875,110.41015625,63.0,89.0
555,110.359375,110.52213541666666,59.0,83.0
556,108.796875,110.72395833333333,47.0,89.0
557,110.671875,110.7890625,59.0,88.0
558,110.671875,110.86979166666666,63.0,92.0
559,110.671875,110.88411458333333,66.0,85.0
560,110.984375,111.1796875,59.0,89.0
561,111.296875,111.4921875,58.0,86.0
562,111.296875,111.72135416666666,61.0,81.0
563,111.296875,111.76302083333333,65.0,84.0
564,111.609375,111.84895833333333,58.0,84.0
565,111.921875,112.20833333333333,61.0,87.0
566,111.921875,112.265625,65.0,88.0
567,111.296875,112.41927083333333,46.0,88.0
568,112.234375,112.60677083333333,58.0,88.0
569,112.546875,112.91145833333333,63.0,90.0
570,112.546875,112.93229166666666,66.0,86.0
571,112.546875,113.15625,51.0,85.0
572,112.859375,113.22135416666666,58.0,88.0
573,113.171875,113.51822916666666,63.0,90.0
574,113.171875,113.57682291666666,66.0,90.0
575,113.484375,113.62109375,58.0,94.0
576,113.796875,113.9765625,56.0,78.0
577,113.796875,114.23567708333333,63.0,88.0
578,113.796875,114.25911458333333,59.0,80.0
579,114.109375,114.39973958333333,56.0,70.0
580,114.421875,114.8125,59.0,86.0
581,114.421875,114.81380208333333,63.0,90.0
582,114.734375,115.04296875,56.0,75.0
583,115.046875,115.45182291666666,59.0,88.0
584,115.046875,115.4609375,63.0,89.0
585,115.359375,115.72135416666666,54.0,88.0
586,115.671875,115.87239583333333,59.0,89.0
587,113.796875,115.93359375,44.0,87.0
588,115.984375,116.0234375,59.0,48.0
589,115.671875,116.10026041666666,63.0,91.0
590,115.984375,116.13151041666666,54.0,88.0
591,116.296875,116.71223958333333,65.0,87.0
592,116.296875,116.73307291666666,61.0,88.0
593,116.609375,116.99609375,56.0,74.0
594,116.921875,117.30338541666666,61.0,84.0
595,116.921875,117.33723958333333,65.0,82.0
596,117.234375,117.58203125,56.0,87.0
597,117.546875,117.88802083333333,59.0,84.0
598,117.546875,117.97265625,65.0,89.0
599,117.859375,118.23697916666666,56.0,87.0
600,118.171875,118.58723958333333,65.0,93.0
601,118.171875,118.71875,61.0,89.0
602,118.484375,118.77083333333333,56.0,92.0
603,116.296875,118.82161458333333,49.0,89.0
604,118.796875,119.24348958333333,54.0,88.0
605,118.796875,119.48958333333333,61.0,87.0
606,119.109375,120.32161458333333,49.0,84.0
607,119.421875,120.59375,54.0,95.0
608,119.734375,120.69140625,66.0,88.0
609,119.734375,120.75911458333333,61.0,90.0
610,118.796875,120.76041666666666,42.0,90.0
611,120.671875,120.86067708333333,49.0,91.0
612,120.984375,121.10286458333333,54.0,95.0
613,121.296875,121.60546875,58.0,90.0
614,121.296875,121.84375,61.0,92.0
615,121.921875,122.13541666666666,56.0,93.0
616,121.609375,122.33723958333333,53.0,82.0
617,122.234375,122.90885416666666,65.0,91.0
618,122.234375,122.93880208333333,61.0,89.0
619,122.859375,123.06770833333333,53.0,88.0
620,121.296875,123.12630208333333,46.0,90.0
621,123.171875,123.25520833333333,58.0,84.0
622,123.171875,123.5390625,65.0,90.0
623,123.171875,123.54817708333333,61.0,91.0
624,123.484375,123.88802083333333,58.0,90.0
625,123.796875,124.39453125,63.0,84.0
626,123.796875,124.48177083333333,66.0,88.0
627,124.421875,124.5625,58.0,88.0
628,124.109375,124.88020833333333,46.0,79.0
629,124.734375,125.13020833333333,58.0,97.0
630,124.734375,125.43489583333333,66.0,95.0
631,125.359375,125.53125,58.0,88.0
632,123.796875,125.75651041666666,39.0,90.0
633,125.046875,125.78125,46.0,88.0
634,125.671875,125.82161458333333,58.0,89.0
635,125.671875,125.98046875,63.0,94.0
636,125.984375,126.2109375,58.0,86.0
637,126.296875,126.63020833333333,61.0,86.0
638,126.296875,126.78255208333333,65.0,84.0
639,126.921875,127.06770833333333,61.0,80.0
640,126.609375,127.0703125,56.0,87.0
641,127.234375,127.56380208333333,56.0,88.0
642,127.234375,127.90625,61.0,91.0
643,127.234375,127.95052083333333,65.0,93.0
644,127.859375,128.015625,56.0,82.0
645,126.296875,128.39192708333331,49.0,97.0
646,128.171875,128.40885416666666,56.0,89.0
647,128.171875,128.40885416666666,61.0,92.0
648,128.796875,128.98177083333331,54.0,88.0
649,128.796875,129.35677083333331,63.0,90.0
650,129.109375,129.52213541666666,54.0,90.0
651,129.421875,129.56380208333331,59.0,88.0
652,129.734375,129.93619791666666,54.0,89.0
653,129.734375,130.05338541666666,61.0,91.0
654,130.046875,130.27083333333331,59.0,83.0
655,130.359375,130.47005208333331,54.0,74.0
656,130.671875,130.86588541666666,54.0,90.0
657,128.796875,130.88411458333331,47.0,90.0
658,130.671875,130.94270833333331,63.0,93.0
659,131.296875,131.70052083333331,58.0,89.0
660,131.296875,131.73697916666666,61.0,89.0
661,131.921875,132.08854166666666,58.0,89.0
662,131.609375,132.10677083333331,53.0,76.0
663,131.921875,132.21875,61.0,89.0
664,131.296875,132.22786458333331,46.0,92.0
665,131.921875,132.27994791666666,65.0,85.0
666,132.234375,132.49739583333331,58.0,80.0
667,132.546875,132.59895833333331,58.0,78.0
668,132.859375,133.078125,58.0,90.0
669,132.546875,133.10286458333331,66.0,90.0
670,132.546875,133.30598958333331,51.0,91.0
671,133.171875,133.30859375,58.0,90.0
672,133.171875,133.4921875,63.0,94.0
673,133.484375,133.62630208333331,58.0,77.0
674,133.796875,134.19140625,56.0,88.0
675,133.796875,134.453125,59.0,89.0
676,134.421875,134.625,56.0,83.0
677,134.109375,135.05859375,51.0,86.0
678,134.734375,135.38671875,63.0,93.0
679,134.734375,135.39583333333331,59.0,94.0
680,134.734375,135.4140625,56.0,92.0
681,135.359375,135.6875,51.0,87.0
682,133.796875,135.71875,44.0,89.0
683,135.671875,135.8046875,56.0,90.0
684,135.671875,136.15494791666666,59.0,97.0
685,135.984375,136.18229166666666,56.0,86.0
686,136.296875,136.53125,56.0,82.0
687,136.296875,136.53255208333331,61.0,89.0
688,136.296875,136.54817708333331,65.0,81.0
689,136.609375,136.75260416666666,61.0,84.0
690,136.609375,136.7578125,56.0,77.0
691,136.296875,136.75911458333331,37.0,93.0
692,136.609375,136.77083333333331,65.0,79.0
693,136.921875,137.02083333333331,61.0,83.0
694,136.921875,137.03645833333331,37.0,90.0
695,136.921875,137.04036458333331,56.0,82.0
696,136.921875,137.06380208333331,65.0,83.0
697,137.234375,137.35026041666666,61.0,88.0
698,137.234375,137.36328125,56.0,88.0
699,137.234375,137.38802083333331,37.0,92.0
700,137.234375,137.39713541666666,65.0,86.0
701,137.546875,137.73567708333331,56.0,90.0
702,137.546875,137.73697916666666,61.0,94.0
703,137.546875,137.76692708333331,65.0,91.0
704,137.546875,137.79036458333331,37.0,99.0
705,138.796875,139.17708333333331,61.0,88.0
706,138.796875,139.27473958333331,66.0,84.0
707,139.421875,139.56119791666666,61.0,89.0
708,139.109375,139.86588541666666,49.0,81.0
709,139.734375,140.4296875,61.0,91.0
710,139.734375,140.48307291666666,66.0,89.0
711,139.734375,140.52213541666666,70.0,88.0
712,138.796875,140.68880208333331,42.0,89.0
713,140.359375,140.7734375,49.0,89.0
714,140.671875,141.078125,61.0,99.0
715,140.984375,141.09895833333331,66.0,92.0
716,141.296875,141.65234375,58.0,88.0
717,141.296875,142.09505208333331,65.0,89.0
718,141.921875,142.13541666666666,56.0,88.0
719,141.609375,142.51953125,53.0,88.0
720,142.234375,142.99479166666666,61.0,89.0
721,142.234375,143.04557291666666,65.0,91.0
722,142.859375,143.11588541666666,53.0,82.0
723,141.296875,143.203125,46.0,89.0
724,143.171875,143.203125,65.0,73.0
725,143.171875,143.58723958333331,58.0,97.0
726,143.484375,143.75130208333331,61.0,90.0
727,143.796875,144.21484375,63.0,86.0
728,144.421875,144.58072916666666,63.0,92.0
729,144.109375,145.1640625,46.0,89.0
730,144.734375,145.37630208333331,66.0,90.0
731,144.734375,145.39973958333331,63.0,94.0
732,143.796875,145.73828125,39.0,90.0
733,145.359375,145.7578125,46.0,77.0
734,145.671875,145.79166666666666,63.0,89.0
735,145.671875,145.97916666666666,70.0,90.0
736,145.671875,146.01432291666666,66.0,92.0
737,145.984375,146.05729166666666,63.0,76.0
738,146.296875,146.88541666666666,65.0,95.0
739,146.921875,147.09505208333331,56.0,95.0
740,146.609375,147.38411458333331,44.0,84.0
741,147.234375,147.61197916666666,61.0,95.0
742,147.234375,147.62760416666666,56.0,95.0
743,147.859375,147.89583333333331,56.0,73.0
744,147.546875,147.953125,44.0,86.0
745,146.296875,148.23177083333331,37.0,92.0
746,148.171875,148.33333333333331,44.0,87.0
747,147.859375,148.47135416666666,65.0,95.0
748,147.859375,148.54166666666666,61.0,95.0
749,148.484375,148.58463541666666,56.0,95.0
750,148.796875,149.14192708333331,59.0,89.0
751,148.796875,149.14322916666666,63.0,99.0
752,149.421875,149.56380208333331,59.0,91.0
753,149.109375,149.92708333333331,54.0,82.0
754,149.734375,150.16666666666666,59.0,99.0
755,149.734375,150.45182291666666,66.0,91.0
756,150.359375,150.48958333333331,59.0,89.0
757,150.671875,150.79817708333331,59.0,97.0
758,150.046875,150.84244791666666,54.0,89.0
759,148.796875,150.85807291666666,47.0,93.0
760,150.671875,150.93229166666666,63.0,109.0
761,150.984375,151.07942708333331,59.0,84.0
762,151.296875,151.64973958333331,56.0,90.0
763,151.296875,151.88541666666666,61.0,88.0
764,151.296875,151.95833333333331,65.0,81.0
765,151.609375,151.99869791666666,53.0,88.0
766,151.296875,152.00390625,46.0,89.0
767,151.921875,152.2890625,56.0,92.0
768,152.234375,152.48307291666666,61.0,93.0
769,152.546875,152.89322916666666,58.0,88.0
770,152.546875,153.22786458333331,66.0,86.0
771,152.859375,153.32161458333331,46.0,80.0
772,152.546875,153.359375,39.0,94.0
773,153.171875,153.546875,58.0,94.0
774,153.484375,153.56770833333331,63.0,93.0
775,153.796875,154.171875,54.0,92.0
776,153.796875,154.34244791666666,59.0,92.0
777,154.109375,154.48958333333331,51.0,89.0
778,153.796875,154.5234375,44.0,90.0
779,154.421875,154.7734375,54.0,94.0
780,154.734375,155.05989583333331,59.0,92.0
781,155.046875,155.38020833333331,61.0,88.0
782,155.046875,155.39973958333331,56.0,83.0
783,155.359375,155.75,44.0,76.0
784,155.046875,155.79427083333331,37.0,94.0
785,155.671875,155.88020833333331,56.0,89.0
786,156.296875,156.47395833333331,54.0,88.0
787,156.296875,156.72005208333331,63.0,89.0
788,156.296875,156.72135416666666,59.0,88.0
789,156.609375,156.8125,54.0,80.0
790,156.921875,157.29557291666666,63.0,89.0
791,156.921875,157.31901041666666,59.0,86.0
792,157.234375,157.42708333333331,54.0,87.0
793,157.546875,157.9609375,63.0,90.0
794,157.546875,157.9765625,59.0,89.0
795,157.859375,158.03125,54.0,82.0
796,158.171875,158.21354166666666,54.0,74.0
797,156.296875,158.39713541666666,47.0,93.0
798,158.171875,158.51953125,63.0,90.0
799,158.171875,158.53255208333331,59.0,90.0
800,158.484375,158.65885416666666,54.0,90.0
801,158.796875,159.27473958333331,58.0,73.0
802,158.796875,159.2890625,61.0,79.0
803,159.109375,159.48046875,54.0,80.0
804,159.421875,159.60677083333331,58.0,88.0
805,159.421875,159.77734375,61.0,88.0
806,159.734375,159.84895833333331,54.0,88.0
807,160.046875,160.20963541666666,58.0,88.0
808,160.046875,160.44921875,61.0,85.0
809,159.109375,160.45052083333331,49.0,79.0
810,158.796875,160.52734375,42.0,88.0
811,160.359375,160.56380208333331,54.0,82.0
812,160.671875,161.0,58.0,88.0
813,160.671875,161.02213541666666,61.0,88.0
814,160.984375,161.16536458333331,54.0,82.0
815,160.671875,161.1875,42.0,88.0
816,161.296875,161.67578125,63.0,90.0
817,161.296875,161.67708333333331,59.0,88.0
818,161.609375,161.77604166666666,54.0,82.0
819,161.921875,162.03776041666666,59.0,87.0
820,161.921875,162.05078125,63.0,89.0
821,162.234375,162.48177083333331,54.0,88.0
822,162.546875,162.9609375,59.0,92.0
823,162.546875,162.96484375,63.0,93.0
824,162.859375,163.09375,54.0,86.0
825,163.171875,163.52734375,59.0,89.0
826,161.296875,163.53385416666666,47.0,90.0
827,163.171875,163.54166666666666,63.0,93.0
828,163.484375,163.69140625,54.0,88.0
829,163.796875,164.22786458333331,58.0,82.0
830,163.796875,164.22786458333331,63.0,90.0
831,164.109375,164.51171875,54.0,87.0
832,164.421875,164.86458333333331,58.0,85.0
833,164.421875,164.86979166666666,63.0,92.0
834,164.734375,165.1015625,54.0,84.0
835,165.046875,165.4140625,63.0,90.0
836,165.046875,165.42447916666666,58.0,84.0
837,163.796875,165.44270833333331,39.0,93.0
838,165.359375,165.52604166666666,54.0,82.0
839,165.671875,165.9765625,58.0,89.0
840,165.671875,166.04427083333331,63.0,90.0
841,165.984375,166.21484375,54.0,88.0
842,166.296875,166.328125,54.0,62.0
843,166.296875,166.66796875,63.0,89.0
844,166.296875,166.67578125,59.0,88.0
845,166.609375,166.78515625,54.0,86.0
846,166.921875,167.02604166666666,54.0,83.0
847,166.921875,167.29817708333331,59.0,91.0
848,166.921875,167.31119791666666,63.0,91.0
849,166.296875,167.32552083333331,47.0,91.0
850,167.234375,167.609375,54.0,77.0
851,167.546875,167.66276041666666,47.0,89.0
852,167.546875,167.91145833333331,63.0,89.0
853,167.546875,167.92708333333331,59.0,88.0
854,167.859375,168.06901041666666,54.0,80.0
855,168.171875,168.484375,63.0,92.0
856,168.171875,168.52213541666666,59.0,93.0
857,168.484375,168.75911458333331,54.0,88.0
858,168.796875,169.19791666666666,63.0,89.0
859,168.796875,169.203125,58.0,87.0
860,169.109375,169.45572916666666,54.0,81.0
861,169.421875,169.56770833333331,58.0,86.0
862,169.421875,169.60416666666666,63.0,90.0
863,169.734375,169.79296875,58.0,35.0
864,168.796875,169.89583333333331,39.0,93.0
865,169.734375,169.94010416666666,54.0,85.0
866,170.046875,170.4609375,58.0,87.0
867,170.046875,170.46614583333331,63.0,89.0
868,170.359375,170.52604166666666,54.0,86.0
869,170.671875,170.72526041666666,54.0,85.0
870,170.046875,170.73697916666666,39.0,89.0
871,170.671875,171.00651041666666,58.0,97.0
872,170.671875,171.05598958333331,63.0,93.0
873,170.984375,171.13932291666666,54.0,89.0
874,171.296875,171.4765625,52.0,82.0
875,171.296875,171.69921875,56.0,80.0
876,171.296875,171.71744791666666,59.0,83.0
877,171.609375,171.81901041666666,52.0,88.0
878,171.921875,172.08854166666666,56.0,90.0
879,171.921875,172.11197916666666,59.0,90.0
880,172.234375,172.51692708333331,52.0,89.0
881,172.546875,172.859375,64.0,88.0
882,172.546875,172.89192708333331,56.0,84.0
883,172.546875,172.92578125,59.0,91.0
884,172.859375,173.05208333333331,52.0,92.0
885,173.171875,173.50520833333331,56.0,89.0
886,173.171875,173.53125,59.0,88.0
887,171.296875,173.66015625,40.0,89.0
888,173.484375,173.7578125,52.0,90.0
889,173.796875,174.15625,56.0,90.0
890,173.796875,174.17838541666666,59.0,89.0
891,174.109375,174.29166666666666,52.0,82.0
892,174.421875,174.56770833333331,56.0,88.0
893,174.421875,174.60546875,59.0,89.0
894,173.796875,174.93359375,40.0,89.0
895,174.734375,174.95442708333331,52.0,88.0
896,175.046875,175.41015625,56.0,88.0
897,175.046875,175.453125,59.0,88.0
898,175.359375,175.58463541666666,52.0,92.0
899,175.671875,176.24479166666666,56.0,93.0
900,175.984375,176.25,52.0,89.0
901,175.671875,176.2578125,59.0,95.0
902,175.671875,176.25911458333331,64.0,90.0
903,175.046875,176.27734375,40.0,89.0
904,176.609375,178.20572916666666,49.0,73.0
905,177.234375,178.3203125,54.0,64.0
906,176.296875,178.33463541666666,42.0,86.0
907,177.234375,178.91015625,66.0,87.0
908,178.484375,178.94921875,54.0,83.0
909,176.921875,178.96484375,61.0,85.0
910,179.421875,180.52083333333331,53.0,77.0
911,179.109375,180.84505208333331,49.0,58.0
912,178.796875,180.94661458333331,41.0,83.0
913,179.734375,181.50260416666666,61.0,90.0
914,180.984375,181.65494791666666,56.0,82.0
915,181.609375,183.0234375,46.0,71.0
916,181.921875,183.13151041666666,51.0,89.0
917,182.234375,183.33333333333331,54.0,83.0
918,181.296875,183.53385416666666,39.0,90.0
919,182.234375,183.54557291666666,58.0,86.0
920,183.171875,183.66015625,46.0,75.0
921,183.484375,183.93098958333331,51.0,92.0
922,184.421875,184.8125,56.0,82.0
923,184.109375,185.68489583333331,44.0,75.0
924,183.796875,185.73567708333331,37.0,90.0
925,185.359375,185.73958333333331,56.0,82.0
926,185.671875,185.77604166666666,49.0,76.0
927,184.734375,185.86588541666666,61.0,89.0
928,186.296875,186.49609375,54.0,83.0
929,186.296875,186.95442708333331,59.0,81.0
930,186.609375,186.99479166666666,54.0,88.0
931,186.921875,187.12630208333331,61.0,85.0
932,187.234375,187.96484375,63.0,88.0
933,187.859375,188.02083333333331,54.0,76.0
934,186.296875,188.28125,47.0,88.0
935,188.171875,188.3203125,54.0,89.0
936,188.171875,188.37760416666666,59.0,84.0
937,188.796875,189.25911458333331,58.0,83.0
938,189.109375,189.46354166666666,53.0,71.0
939,188.796875,189.50651041666666,61.0,84.0
940,188.796875,189.515625,46.0,89.0
941,189.421875,189.82421875,58.0,88.0
942,189.734375,190.0078125,61.0,85.0
943,190.046875,190.47005208333331,58.0,84.0
944,190.046875,190.48958333333331,63.0,88.0
945,190.359375,190.75,46.0,76.0
946,190.671875,190.80859375,58.0,85.0
947,190.046875,190.84244791666666,39.0,90.0
948,190.671875,190.94791666666666,63.0,89.0
949,190.671875,191.01041666666666,66.0,84.0
950,191.296875,191.72005208333331,56.0,75.0
951,191.296875,191.96484375,59.0,83.0
952,191.921875,192.19661458333331,54.0,91.0
953,192.234375,192.30729166666666,54.0,51.0
954,192.234375,192.9375,59.0,89.0
955,191.609375,193.11848958333331,51.0,83.0
956,191.296875,193.18359375,44.0,89.0
957,193.171875,193.58203125,59.0,89.0
958,193.484375,193.60677083333331,54.0,74.0
959,193.171875,193.64322916666666,63.0,93.0
960,193.796875,193.9921875,56.0,82.0
961,193.796875,194.00651041666666,61.0,82.0
962,193.796875,194.05208333333331,37.0,93.0
963,194.109375,194.23828125,56.0,89.0
964,194.109375,194.2421875,37.0,89.0
965,194.109375,194.2578125,61.0,90.0
966,194.421875,194.76692708333331,56.0,90.0
967,194.421875,194.89973958333331,61.0,102.0
968,194.734375,195.23828125,44.0,88.0
969,195.046875,195.54817708333331,65.0,95.0
970,195.046875,195.61067708333331,61.0,92.0
971,195.046875,195.61197916666666,56.0,93.0
972,195.359375,195.88671875,44.0,86.0
973,195.671875,196.20963541666666,56.0,99.0
974,195.671875,196.22135416666666,61.0,104.0
975,195.984375,196.26041666666666,44.0,86.0
976,194.421875,196.31380208333331,37.0,93.0
977,196.296875,196.67708333333331,61.0,88.0
978,196.296875,196.77473958333331,66.0,84.0
979,196.921875,197.06119791666666,61.0,89.0
980,196.609375,197.36588541666666,49.0,81.0
981,197.234375,197.9296875,61.0,91.0
982,197.234375,197.98307291666666,66.0,89.0
983,197.234375,198.02213541666666,70.0,88.0
984,196.296875,198.18880208333331,42.0,89.0
985,197.859375,198.2734375,49.0,89.0
986,198.171875,198.578125,61.0,99.0
987,198.484375,198.59895833333331,66.0,92.0
988,198.796875,199.15234375,58.0,88.0
989,198.796875,199.59505208333331,65.0,89.0
990,199.421875,199.63541666666666,56.0,88.0
991,199.109375,200.01953125,53.0,88.0
992,199.734375,200.49479166666666,61.0,89.0
993,199.734375,200.54557291666666,65.0,91.0
994,200.359375,200.61588541666666,53.0,82.0
995,198.796875,200.703125,46.0,89.0
996,200.671875,200.703125,65.0,73.0
997,200.671875,201.08723958333331,58.0,97.0
998,200.984375,201.25130208333331,61.0,90.0
999,201.296875,201.71484375,63.0,86.0
1000,201.921875,202.08072916666666,63.0,92.0
1001,201.609375,202.6640625,46.0,89.0
1002,202.234375,202.87630208333331,66.0,90.0
1003,202.234375,202.89973958333331,63.0,94.0
1004,201.296875,203.23828125,39.0,90.0
1005,202.859375,203.2578125,46.0,77.0
1006,203.171875,203.29166666666666,63.0,89.0
1007,203.171875,203.47916666666666,70.0,90.0
1008,203.171875,203.51432291666666,66.0,92.0
1009,203.484375,203.55729166666666,63.0,76.0
1010,203.796875,204.38541666666666,65.0,95.0
1011,204.421875,204.59505208333331,56.0,95.0
1012,204.109375,204.88411458333331,44.0,84.0
1013,204.734375,205.11197916666666,61.0,95.0
1014,204.734375,205.12760416666666,56.0,95.0
1015,205.359375,205.39583333333331,56.0,73.0
1016,205.046875,205.453125,44.0,86.0
1017,203.796875,205.73177083333331,37.0,92.0
1018,205.671875,205.83333333333331,44.0,87.0
1019,205.359375,205.97135416666666,65.0,95.0
1020,205.359375,206.04166666666666,61.0,95.0
1021,205.984375,206.08463541666666,56.0,95.0
1022,206.296875,206.64192708333331,59.0,89.0
1023,206.296875,206.64322916666666,63.0,99.0
1024,206.921875,207.06380208333331,59.0,91.0
1025,206.609375,207.42708333333331,54.0,82.0
1026,207.234375,207.66666666666666,59.0,99.0
1027,207.234375,207.95182291666666,66.0,91.0
1028,207.859375,207.98958333333331,59.0,89.0
1029,208.171875,208.29817708333331,59.0,97.0
1030,207.546875,208.34244791666666,54.0,89.0
1031,206.296875,208.35807291666666,47.0,93.0
1032,208.171875,208.43229166666666,63.0,109.0
1033,208.484375,208.57942708333331,59.0,84.0
1034,208.796875,209.14973958333331,56.0,90.0
1035,208.796875,209.38541666666666,61.0,88.0
1036,208.796875,209.45833333333331,65.0,81.0
1037,209.109375,209.49869791666666,53.0,88.0
1038,208.796875,209.50390625,46.0,89.0
1039,209.421875,209.7890625,56.0,92.0
1040,209.734375,209.98307291666666,61.0,93.0
1041,210.046875,210.39322916666666,58.0,88.0
1042,210.046875,210.72786458333331,66.0,86.0
1043,210.359375,210.82161458333331,46.0,80.0
1044,210.046875,210.859375,39.0,94.0
1045,210.671875,211.046875,58.0,94.0
1046,210.984375,211.06770833333331,63.0,93.0
1047,211.296875,211.671875,54.0,92.0
1048,211.296875,211.84244791666666,59.0,92.0
1049,211.609375,211.98958333333331,51.0,89.0
1050,211.296875,212.0234375,44.0,90.0
1051,211.921875,212.2734375,54.0,94.0
1052,212.234375,212.55989583333331,59.0,92.0
1053,212.546875,212.88020833333331,61.0,88.0
1054,212.546875,212.89973958333331,56.0,83.0
1055,212.859375,213.25,44.0,76.0
1056,212.546875,213.29427083333331,37.0,94.0
1057,213.171875,213.38020833333331,56.0,89.0
1058,213.796875,214.21223958333331,54.0,89.0
1059,213.796875,214.296875,61.0,85.0
1060,214.421875,214.59895833333331,54.0,84.0
1061,214.109375,215.21223958333331,49.0,79.0
1062,214.734375,215.69140625,54.0,86.0
1063,214.734375,215.73046875,58.0,83.0
1064,214.734375,215.74739583333331,61.0,87.0
1065,213.796875,215.8203125,42.0,89.0
1066,215.671875,215.85416666666666,49.0,79.0
1067,215.984375,216.08333333333331,54.0,86.0
1068,216.296875,216.57421875,56.0,80.0
1069,216.296875,216.59375,61.0,87.0
1070,216.921875,217.125,56.0,83.0
1071,217.234375,217.84114583333331,65.0,89.0
1072,217.234375,218.22395833333331,56.0,88.0
1073,216.609375,218.36848958333331,44.0,73.0
1074,216.296875,218.39713541666666,37.0,92.0
1075,218.171875,218.51822916666666,66.0,90.0
1076,218.484375,218.8671875,65.0,94.0
1077,218.796875,219.17708333333331,63.0,88.0
1078,219.421875,219.51171875,63.0,87.0
1079,219.109375,220.37369791666666,58.0,87.0
1080,219.734375,220.72526041666666,61.0,89.0
1081,219.734375,220.81510416666666,66.0,86.0
1082,218.796875,220.90234375,51.0,90.0
1083,220.671875,220.921875,58.0,92.0
1084,220.984375,221.15755208333331,61.0,83.0
1085,221.26822916666666,221.41145833333331,35.0,79.0
1086,221.27473958333331,221.44270833333331,54.0,83.0
1087,221.27604166666666,221.86328125,63.0,88.0
1088,221.57682291666666,221.96744791666666,54.0,80.0
1089,221.88932291666666,222.00390625,59.0,78.0
1090,222.203125,223.76692708333331,54.0,75.0
1091,222.19791666666666,224.1953125,59.0,77.0
1092,222.21354166666666,224.20442708333331,63.0,81.0
1093,223.75651041666666,224.21484375,66.0,76.0
1094,224.05078125,224.42317708333331,54.0,72.0
1095,224.39192708333331,224.76302083333331,66.0,82.0
1096,224.68489583333331,225.140625,54.0,75.0
1097,225.34765625,225.9140625,54.0,74.0
1098,225.72135416666666,226.87890625,59.0,69.0
1099,225.04947916666666,226.9765625,66.0,71.0
1100,226.140625,227.08723958333331,54.0,72.0
1101,223.76692708333331,229.26692708333331,47.0,80.0
