,start,end,pitch,velocity
0,3.2638885624999996,3.3379626291666664,36.0,47.0
1,3.4027774374999997,3.4907403916666664,48.0,32.0
2,3.585647789583333,3.6597218562499996,48.0,47.0
3,3.668981114583333,3.7407403666666665,36.0,75.0
4,3.745369995833333,3.8078699895833332,48.0,54.0
5,3.821758877083333,3.8726847979166665,36.0,79.0
6,3.884258870833333,3.9398144208333328,48.0,63.0
7,3.953703308333333,3.9976847854166664,36.0,75.0
8,4.0138884875,4.067129222916666,48.0,74.0
9,4.067129222916666,4.1180551437499995,36.0,81.0
10,4.138888475,4.189814395833333,48.0,74.0
11,4.192129210416666,4.236110687499999,36.0,85.0
12,4.2638884625,4.3101847541666665,48.0,79.0
13,4.3194440125,4.356481045833333,36.0,77.0
14,4.372684747916666,4.423610668749999,48.0,83.0
15,4.4305551125,4.47916621875,36.0,69.0
16,4.504629179166666,4.555555099999999,48.0,72.0
17,4.5439810270833325,4.608795835416666,36.0,83.0
18,4.620369908333333,4.668981014583333,48.0,80.0
19,4.6944439749999995,4.740740266666666,36.0,65.0
20,4.738425452083333,4.805555075,48.0,80.0
21,4.805555075,4.8472217375,36.0,79.0
22,4.865740254166666,4.916666175,48.0,87.0
23,4.925925433333333,4.967592095833333,36.0,77.0
24,4.983795797916666,5.057869864583333,48.0,87.0
25,5.053240235416666,5.094906897916666,36.0,65.0
26,5.115740229166666,5.206017997916666,48.0,95.0
27,5.247684660416666,5.307869839583333,48.0,75.0
28,5.164351335416666,5.349536502083333,36.0,77.0
29,5.388888349999999,5.85416608125,53.0,61.0
30,5.388888349999999,6.023147545833333,57.0,59.0
31,5.388888349999999,6.064814208333333,65.0,66.0
32,5.388888349999999,6.0740734666666665,60.0,65.0
33,6.222221599999999,6.525462310416666,53.0,36.0
34,5.388888349999999,6.696758589583332,41.0,63.0
35,6.4999993499999995,6.935184491666666,60.0,74.0
36,6.7777771,7.043980777083333,53.0,44.0
37,6.4999993499999995,7.120369658333333,57.0,83.0
38,6.4999993499999995,7.122684472916666,65.0,76.0
39,7.055554849999999,7.178240022916666,41.0,50.0
40,7.61111035,8.134258445833332,53.0,52.0
41,7.61111035,8.24305473125,57.0,59.0
42,7.61111035,8.342591758333333,65.0,58.0
43,7.61111035,8.368054718749999,60.0,68.0
44,8.4444436,8.766202827083333,53.0,63.0
45,7.61111035,9.013887987499999,41.0,62.0
46,8.999999099999998,9.21527685625,53.0,56.0
47,8.72222135,9.273147220833332,57.0,87.0
48,8.72222135,9.303239810416667,60.0,84.0
49,9.277776849999999,9.342591658333333,41.0,61.0
50,8.72222135,9.342591658333333,65.0,86.0
51,9.83333235,10.38888785,52.0,56.0
52,9.83333235,10.483795247916666,60.0,67.0
53,9.83333235,10.483795247916666,64.0,67.0
54,9.83333235,10.509258208333332,57.0,67.0
55,9.83333235,10.585647089583333,40.0,59.0
56,10.666665599999998,10.733795222916665,52.0,50.0
57,10.944443349999998,11.599535877083332,62.0,77.0
58,10.944443349999998,11.604165506249998,50.0,57.0
59,10.944443349999998,11.629628466666666,57.0,71.0
60,10.944443349999998,11.668980314583333,53.0,68.0
61,11.499998849999999,12.097221012499999,43.0,85.0
62,12.05555435,12.620369108333332,48.0,67.0
63,12.05555435,12.636572810416666,52.0,72.0
64,12.05555435,12.7638876125,60.0,74.0
65,12.05555435,12.79860983125,55.0,71.0
66,12.888887599999999,13.15972090625,48.0,40.0
67,12.05555435,13.32638755625,36.0,71.0
68,13.166665349999999,13.439813470833332,52.0,81.0
69,13.166665349999999,13.717591220833333,55.0,81.0
70,13.166665349999999,13.717591220833333,60.0,81.0
71,13.444443099999999,13.754628254166665,48.0,58.0
72,13.72222085,13.777776399999999,36.0,80.0
73,14.277776349999998,14.759257783333332,48.0,41.0
74,14.277776349999998,14.983794797916666,60.0,55.0
75,14.277776349999998,14.986109612499998,64.0,55.0
76,14.277776349999998,14.995368870833332,55.0,56.0
77,14.277776349999998,15.002313314583333,67.0,60.0
78,15.111109599999999,15.180554037499999,48.0,49.0
79,15.38888735,15.634257695833332,52.0,62.0
80,15.38888735,15.787035458333332,55.0,63.0
81,15.38888735,15.791665087499998,67.0,70.0
82,15.38888735,15.796294716666665,64.0,59.0
83,15.38888735,15.824072491666666,60.0,62.0
84,15.944442849999998,16.011572472916665,48.0,52.0
85,14.277776349999998,16.182868752083333,36.0,47.0
86,15.944442849999998,16.196757639583332,55.0,58.0
87,15.944442849999998,16.229165043749997,67.0,55.0
88,15.944442849999998,16.252313189583333,64.0,44.0
89,15.944442849999998,16.25925763333333,60.0,53.0
90,16.49999835,17.090276068749997,50.0,62.0
91,16.49999835,17.212961241666665,57.0,51.0
92,16.49999835,17.24305383125,65.0,66.0
93,16.49999835,17.261572347916665,62.0,50.0
94,17.333331599999998,17.61110935,50.0,45.0
95,16.49999835,17.63425749583333,38.0,67.0
96,17.61110935,17.63425749583333,38.0,61.0
97,17.61110935,17.738424152083333,50.0,51.0
98,17.61110935,17.957021208333334,65.0,66.0
99,17.61110935,17.957021208333334,65.0,68.0
100,17.61110935,17.982964593749998,57.0,61.0
101,17.61110935,17.982964593749998,57.0,61.0
102,17.61110935,17.982964593749998,62.0,63.0
103,17.61110935,17.982964593749998,62.0,67.0
104,18.17400225,18.256549385416665,57.0,77.0
105,17.8909835,18.291926729166665,50.0,59.0
106,18.17400225,18.291926729166665,50.0,67.0
107,18.17400225,18.291926729166665,65.0,76.0
108,18.17400225,18.310794645833333,62.0,75.0
109,18.740039749999998,19.322586677083333,43.0,69.0
110,18.740039749999998,19.471171520833334,59.0,62.0
111,18.740039749999998,19.4758885,55.0,53.0
112,18.740039749999998,19.487680947916665,62.0,59.0
113,19.589095999999998,19.90749209375,43.0,50.0
114,19.872114749999998,20.19874416875,55.0,79.0
115,19.872114749999998,20.31465325,62.0,79.0
116,19.872114749999998,20.369198700000002,59.0,79.0
117,20.151016900000002,20.469198691666666,43.0,53.0
118,20.42374415,20.5464714125,55.0,53.0
119,20.96919865,21.57033495625,48.0,38.0
120,20.96919865,21.699964572916667,60.0,47.0
121,20.96919865,21.716168275,55.0,40.0
122,20.96919865,21.75320530833333,64.0,46.0
123,21.7995016,22.06570527708333,48.0,41.0
124,20.96919865,22.220797854166666,36.0,42.0
125,22.07727935,22.57033485625,55.0,67.0
126,22.07727935,22.658297810416666,60.0,74.0
127,22.3550571,22.6745015125,48.0,53.0
128,22.07727935,22.676816327083333,64.0,72.0
129,22.63283485,22.683760770833334,36.0,62.0
130,23.18839035,23.609864658333333,53.0,34.0
131,23.18839035,23.869480008333333,57.0,51.0
132,23.18839035,23.895922312499998,60.0,52.0
133,23.18839035,23.912749233333333,65.0,51.0
134,23.758903099999998,24.054665172916668,53.0,35.0
135,23.18839035,24.394942916666665,48.0,43.0
136,24.32086885,24.648899122916667,53.0,38.0
137,24.5966264,24.6648082125,48.0,46.0
138,24.31623922083333,24.673899120833333,60.0,68.0
139,23.18839035,24.757990022916665,41.0,38.0
140,24.31623922083333,24.90799001041667,57.0,65.0
141,24.31623922083333,24.93071728125,65.0,66.0
142,25.41480815,25.921037058333333,53.0,31.0
143,25.41480815,26.131685185416668,57.0,43.0
144,25.41480815,26.167018854166667,60.0,50.0
145,25.41480815,26.178811302083332,65.0,43.0
146,26.247207500000002,26.52315078125,53.0,35.0
147,25.41480815,26.76371671875,41.0,38.0
148,26.813245000000002,27.09626375,53.0,43.0
149,26.530226250000002,27.148150520833333,57.0,77.0
150,27.09626375,27.164659947916668,41.0,57.0
151,26.530226250000002,27.164659947916668,60.0,72.0
152,26.530226250000002,27.171735416666667,65.0,73.0
153,27.66230125,28.193223575,50.0,44.0
154,27.66230125,28.327482820833335,57.0,47.0
155,27.66230125,28.355260595833336,62.0,53.0
156,27.66230125,28.38072355625,65.0,47.0
157,28.4987791,28.802019810416667,50.0,48.0
158,27.66230125,28.975630904166668,38.0,50.0
159,28.776556850000002,29.336741979166668,57.0,72.0
160,29.0543346,29.36451975416667,50.0,41.0
161,28.776556850000002,29.371464197916666,62.0,69.0
162,29.33211235,29.3876679,38.0,55.0
163,28.776556850000002,29.3876679,65.0,71.0
164,29.88766785,30.445538164583333,43.0,50.0
165,29.88766785,30.709427027083333,67.0,58.0
166,29.88766785,30.718686285416666,55.0,64.0
167,29.88766785,30.725630729166667,62.0,64.0
168,29.88766785,30.737204802083333,58.0,59.0
169,30.721001100000002,30.994149220833336,50.0,39.0
170,31.2765566,31.584426939583334,50.0,59.0
171,31.55433435,31.591371383333335,43.0,74.0
172,30.99877885,31.78813062291667,55.0,81.0
173,30.99877885,31.815908397916665,62.0,65.0
174,30.99877885,31.827482470833335,67.0,68.0
175,30.99877885,31.846000987500002,58.0,67.0
176,32.10988985,32.66544535,57.0,38.0
177,32.10988985,32.764982377083335,60.0,48.0
178,32.10988985,32.859889775,69.0,53.0
179,32.10988985,32.90850088125,64.0,50.0
180,32.9432231,33.2904452875,57.0,47.0
181,32.10988985,33.50572304375,45.0,44.0
182,33.22100085,33.8182230125,60.0,81.0
183,33.22100085,33.827482270833336,69.0,82.0
184,33.22100085,33.871463747916664,64.0,79.0
185,33.4987786,33.88998226458333,57.0,63.0
186,33.77655635,33.89692670833333,45.0,51.0
187,34.332111850000004,35.005722893750004,72.0,62.0
188,34.332111850000004,35.03350066875,60.0,51.0
189,34.332111850000004,35.05201918541667,67.0,51.0
190,34.332111850000004,35.06127844375,64.0,45.0
191,34.332111850000004,35.48720432708333,48.0,53.0
192,35.721000599999996,35.938593170833336,48.0,39.0
193,35.1654451,35.940907985416665,55.0,36.0
194,35.44322285,36.04738945625,72.0,79.0
195,35.44322285,36.07516723125,60.0,76.0
196,35.44322285,36.07516723125,67.0,68.0
197,35.44322285,36.079796860416664,64.0,63.0
198,36.55433385,37.026556025,55.0,44.0
199,36.55433385,37.239518966666665,59.0,56.0
200,36.55433385,37.26961155625,62.0,47.0
201,36.55433385,37.281185629166664,67.0,51.0
202,37.3876671,37.6515559625,55.0,39.0
203,36.55433385,37.822852241666666,43.0,41.0
204,37.66544485,38.28118552916666,59.0,72.0
205,37.66544485,38.31359293333333,67.0,67.0
206,36.55433385,38.31590774791667,50.0,43.0
207,37.9432226,38.32285219166667,55.0,53.0
208,37.66544485,38.33211145,62.0,65.0
209,38.22100035,38.350629966666666,43.0,56.0
210,38.77655585,39.311146875,55.0,39.0
211,38.77655585,39.488033593749996,60.0,44.0
212,38.77655585,39.52576942708333,67.0,53.0
213,38.77655585,39.56350526041666,64.0,46.0
214,39.6224675,39.877184375,55.0,36.0
215,38.77655585,40.14011230833333,48.0,50.0
216,40.1864086,40.5058530125,55.0,45.0
217,40.46418635,40.517427085416664,48.0,62.0
218,39.905486249999996,40.55214930416666,60.0,74.0
219,39.905486249999996,40.582241893749995,67.0,74.0
220,39.905486249999996,40.60076041041666,64.0,67.0
221,41.019741849999996,41.4225195875,53.0,45.0
222,41.019741849999996,41.8530751,60.0,59.0
223,41.019741849999996,41.855389914583334,57.0,51.0
224,41.019741849999996,41.86001954375,65.0,60.0
225,41.8530751,42.149371366666664,53.0,40.0
226,41.019741849999996,42.20955654583333,41.0,50.0
227,42.408630599999995,42.65400094583333,53.0,69.0
228,42.13085285,42.714186125,57.0,83.0
229,42.13085285,42.73733427083333,65.0,80.0
230,42.13085285,42.748908343749996,60.0,76.0
231,42.68640835,42.7558527875,41.0,67.0
232,43.24196385,43.76279713125,50.0,40.0
233,43.24196385,43.89937119166667,57.0,49.0
234,43.24196385,43.93177859583333,65.0,49.0
235,43.24196385,43.943352668749995,62.0,53.0
236,44.0752971,44.348445220833334,50.0,44.0
237,43.24196385,44.48964891041666,38.0,45.0
238,44.6308526,44.93177849583333,50.0,50.0
239,44.35307485,44.95261182708333,57.0,83.0
240,44.908630349999996,44.95955627083333,38.0,68.0
241,44.35307485,44.98733404583333,65.0,83.0
242,44.35307485,44.991963674999994,62.0,87.0
243,45.46418585,45.97575987291666,48.0,53.0
244,45.46418585,46.149370966666666,55.0,71.0
245,45.46418585,46.191037629166665,64.0,64.0
246,45.46418585,46.20261170208333,60.0,61.0
247,46.297519099999995,46.60770425416666,48.0,36.0
248,45.46418585,46.75353757291666,36.0,59.0
249,46.57529685,47.142426422916664,55.0,75.0
250,46.57529685,47.17020419791666,60.0,72.0
251,47.13085235,47.20261160208333,36.0,47.0
252,46.8530746,47.214185674999996,48.0,47.0
253,46.57529685,47.21650048958333,64.0,71.0
254,47.408630099999996,47.563722677083334,60.0,51.0
255,47.686407849999995,48.18872261458333,50.0,50.0
256,47.686407849999995,48.39705592708333,57.0,51.0
257,47.686407849999995,48.42714851666666,62.0,58.0
258,47.686407849999995,48.43409296041666,65.0,66.0
259,48.5197411,48.813722552083334,50.0,51.0
260,47.686407849999995,48.975759572916665,38.0,56.0
261,48.797518849999996,49.35307435,62.0,80.0
262,48.797518849999996,49.37622249583333,57.0,85.0
263,48.797518849999996,49.38548175416666,65.0,74.0
264,49.075296599999994,49.3947410125,50.0,68.0
265,49.35307435,49.39705582708333,38.0,69.0
266,49.90862985,50.46650016458333,46.0,72.0
267,49.90862985,50.61464829791666,62.0,72.0
268,49.90862985,50.62853718541666,58.0,71.0
269,49.90862985,50.63316681458333,53.0,62.0
270,49.90862985,50.63548162916666,65.0,76.0
271,50.74196309999999,51.04288899583333,46.0,36.0
272,49.90862985,51.128537135416664,34.0,69.0
273,51.2975186,51.51279635624999,46.0,47.0
274,51.575296349999995,51.621592641666666,34.0,62.0
275,51.01974085,51.672518562499995,53.0,77.0
276,51.01974085,51.69798152291666,58.0,81.0
277,51.01974085,51.70724078124999,62.0,72.0
278,51.01974085,51.73270374166666,65.0,83.0
279,52.13085185,52.65168513125,48.0,45.0
280,52.13085185,52.866962887499994,57.0,63.0
281,52.13085185,52.90862955,60.0,65.0
282,52.13085185,52.91094436458333,65.0,68.0
283,52.964185099999995,53.248907293749994,48.0,38.0
284,52.13085185,53.46418505,36.0,51.0
285,53.79751835,53.84381464166666,36.0,63.0
286,53.5197406,53.848444270833326,48.0,45.0
287,53.24196284999999,53.8530739,57.0,81.0
288,53.24196284999999,53.86233315833333,60.0,79.0
289,53.24196284999999,53.887796118749996,65.0,80.0
290,54.353073849999994,54.81603676666666,45.0,58.0
291,54.353073849999994,55.04983303958333,57.0,62.0
292,54.353073849999994,55.066036741666665,60.0,62.0
293,54.353073849999994,55.107703404166664,64.0,63.0
294,55.1864071,55.48733299583333,45.0,51.0
295,54.353073849999994,55.684092235416664,33.0,58.0
296,55.741962599999994,56.11001811874999,45.0,68.0
297,55.464184849999995,56.137795893749995,57.0,83.0
298,55.464184849999995,56.18177737083333,60.0,80.0
299,55.464184849999995,56.2002958875,64.0,79.0
300,56.01974034999999,56.309092172916664,33.0,76.0
301,56.2975181,56.34612920625,45.0,75.0
302,56.575295849999996,57.07529579999999,46.0,72.0
303,56.575295849999996,57.200295787499996,58.0,77.0
304,56.575295849999996,57.202610602083325,62.0,74.0
305,56.575295849999996,57.21649948958333,65.0,76.0
306,57.68640685,57.72344388333333,58.0,87.0
307,57.4086291,57.728073512499996,46.0,62.0
308,57.68640685,57.89936979166666,65.0,82.0
309,57.68640685,57.915573493749996,62.0,84.0
310,57.964184599999996,58.11927717708333,46.0,56.0
311,56.575295849999996,58.434091960416666,34.0,69.0
312,58.51974009999999,58.5614067625,46.0,68.0
313,58.241962349999994,58.65168453125,67.0,87.0
314,58.241962349999994,58.686406749999996,58.0,95.0
315,58.241962349999994,58.72344378333333,62.0,81.0
316,58.81140673749999,59.30144851041666,53.0,71.0
317,58.81140673749999,59.445316375,60.0,79.0
318,58.81140673749999,59.47597673958333,57.0,79.0
319,58.81140673749999,59.52314653124999,65.0,73.0
320,59.657580437499995,59.96654257291666,53.0,48.0
321,59.94059918749999,60.209467,67.0,93.0
322,59.94059918749999,60.24248585416666,57.0,84.0
323,59.94059918749999,60.26135377083333,60.0,84.0
324,60.223617937499995,60.572674395833324,53.0,50.0
325,58.81140673749999,60.57503288541666,41.0,72.0
326,60.50663668749999,60.75191960416666,57.0,71.0
327,60.50663668749999,60.754278093749996,69.0,76.0
328,60.50663668749999,60.756636583333325,60.0,62.0
329,61.07267418749999,61.577390958333325,53.0,48.0
330,61.07267418749999,61.72833429166666,60.0,56.0
331,61.07267418749999,61.76842861458333,57.0,61.0
332,61.07267418749999,61.841541791666664,65.0,58.0
333,61.921730437499996,62.25663595833333,53.0,71.0
334,62.20474918749999,62.44837245416666,67.0,90.0
335,62.20474918749999,62.506242818749996,57.0,90.0
336,62.20474918749999,62.50855763333333,60.0,84.0
337,61.07267418749999,62.53402059374999,41.0,49.0
338,62.7631872375,62.922909443749994,60.0,67.0
339,62.7631872375,62.98077980833333,57.0,84.0
340,62.7631872375,62.999298325,69.0,89.0
341,62.48540948749999,63.07105757708333,53.0,75.0
342,63.0409649875,63.10346498125,41.0,53.0
343,63.318742737499996,63.98309452291666,69.0,64.0
344,63.318742737499996,63.99003896666666,64.0,61.0
345,63.318742737499996,63.99466859583333,57.0,67.0
346,63.318742737499996,64.00392785416666,60.0,59.0
347,63.318742737499996,64.30253893541666,45.0,35.0
348,64.1520759875,64.57337224166666,52.0,67.0
349,64.4298537375,64.60115001666667,50.0,69.0
350,64.4298537375,64.71920556041667,69.0,87.0
351,64.4298537375,64.73309444791666,57.0,80.0
352,64.4298537375,64.7354092625,62.0,72.0
353,64.4298537375,64.74235370625,65.0,78.0
354,64.7076314875,65.00392775416667,50.0,68.0
355,64.4298537375,65.02244627083333,38.0,72.0
356,64.9854092375,65.24929809999999,55.0,85.0
357,64.9854092375,65.25392772916666,43.0,69.0
358,64.9854092375,65.25855735833333,59.0,76.0
359,64.9854092375,65.27476106041667,67.0,89.0
360,64.9854092375,65.29327957708333,62.0,47.0
361,65.54096473749999,66.06642764791667,48.0,61.0
362,65.54096473749999,66.18448319166666,55.0,81.0
363,65.54096473749999,66.23772392708332,67.0,89.0
364,65.54096473749999,66.27244614583333,60.0,72.0
365,65.54096473749999,66.28402021875,64.0,76.0
366,66.3742979875,66.67753869791666,48.0,44.0
367,65.54096473749999,66.93679793125,36.0,68.0
368,67.2076312375,67.26318678749999,36.0,51.0
369,66.9298534875,67.26318678749999,48.0,49.0
370,66.6520757375,67.26318678749999,55.0,90.0
371,66.6520757375,67.28402011874999,60.0,79.0
372,66.6520757375,67.2909645625,67.0,87.0
373,66.6520757375,67.30716826458332,64.0,79.0
374,67.76318673749999,68.18448299166666,48.0,43.0
375,67.76318673749999,68.50624221874999,55.0,64.0
376,67.76318673749999,68.50624221874999,60.0,58.0
377,67.76318673749999,68.57105702708333,64.0,61.0
378,68.59651998749999,68.96226069166666,48.0,47.0
379,68.8742977375,69.22383473958332,55.0,77.0
380,68.8742977375,69.22614955416667,67.0,74.0
381,68.8742977375,69.2492977,60.0,67.0
382,67.76318673749999,69.39976064791666,36.0,45.0
383,69.1520754875,69.50161248958332,48.0,68.0
384,69.4298532375,69.56411248333333,60.0,54.0
385,69.4298532375,69.58031618541666,55.0,71.0
386,69.4298532375,69.58494581458334,67.0,67.0
387,69.4298532375,69.59883470208332,64.0,64.0
388,69.9854087375,70.54096423749999,50.0,47.0
389,69.9854087375,70.58957534375,57.0,62.0
390,69.9854087375,70.65901978125,62.0,63.0
391,69.9854087375,70.67522348333333,65.0,66.0
392,70.81874198749999,71.16364936041666,50.0,51.0
393,69.9854087375,71.41364933541666,38.0,52.0
394,71.3742974875,71.68216782708333,50.0,55.0
395,71.6520752375,71.69605671458334,38.0,65.0
396,71.09651973749999,71.70300115833334,57.0,72.0
397,71.09651973749999,71.77013078124999,65.0,66.0
398,71.09651973749999,71.804853,62.0,77.0
399,72.2076307375,72.65670476666666,43.0,50.0
400,72.2076307375,72.79559364166666,55.0,63.0
401,72.2076307375,72.82337141666666,67.0,62.0
402,72.2076307375,72.86040845,62.0,59.0
403,72.2076307375,72.86503807916667,59.0,58.0
404,73.04096398749999,73.35809358541667,43.0,59.0
405,72.2076307375,73.51318616249999,31.0,51.0
406,73.31874173749999,73.61272318958333,67.0,76.0
407,73.31874173749999,73.6242972625,55.0,84.0
408,73.31874173749999,73.63818615,59.0,76.0
409,73.31874173749999,73.64976022291665,62.0,72.0
410,73.8742972375,74.04790833125,59.0,68.0
411,73.8742972375,74.08263054999999,67.0,75.0
412,73.8742972375,74.08957499374999,62.0,64.0
413,73.8742972375,74.09883425208332,55.0,84.0
414,73.59651948749999,74.18911202083333,43.0,61.0
415,74.1520749875,74.19142683541666,31.0,80.0
416,74.4298527375,74.67522308333332,55.0,50.0
417,74.4298527375,74.71457493125,60.0,53.0
418,74.7076304875,75.01781564166666,48.0,65.0
419,74.9854082375,75.26550080208332,55.0,90.0
420,74.9854082375,75.27938968958333,60.0,87.0
421,74.9854082375,75.28864894791666,62.0,85.0
422,74.4298527375,75.50392670416666,36.0,53.0
423,74.4298527375,75.50392670416666,36.0,68.0
424,75.2631859875,75.68679705625,48.0,85.0
425,75.5409637375,75.82568593124999,55.0,100.0
426,75.5409637375,75.82800074583332,60.0,90.0
427,75.5409637375,75.85114889166667,64.0,91.0
428,75.81874148749999,76.11040812499999,36.0,74.0
429,75.81874148749999,76.11040812499999,36.0,79.0
430,76.09651923749999,76.14744515833333,48.0,67.0
431,76.09651923749999,76.29790810624999,55.0,72.0
432,76.09651923749999,76.32568588125,67.0,86.0
433,76.09651923749999,76.34420439791666,60.0,75.0
434,76.09651923749999,76.3465192125,64.0,76.0
435,76.64281547916666,76.94142656041666,53.0,68.0
436,76.64281547916666,77.20068579375,65.0,71.0
437,76.64281547916666,77.23309319791666,60.0,74.0
438,76.64281547916666,77.24003764166666,69.0,73.0
439,76.64281547916666,77.28170430416667,72.0,83.0
440,77.47614872916667,77.54327835208333,69.0,51.0
441,77.19837097916667,77.78864869791666,53.0,41.0
442,77.75392647916667,77.82337091666666,69.0,44.0
443,77.75392647916667,78.16133384583333,72.0,92.0
444,77.75392647916667,78.21920421041666,65.0,66.0
445,77.75392647916667,78.24003754166667,60.0,77.0
446,76.64281547916666,78.33494493958332,41.0,72.0
447,78.03170422916666,78.36503752916666,53.0,58.0
448,78.30948197916666,78.41133382083333,65.0,22.0
449,78.03170422916666,78.41596344999999,69.0,71.0
450,78.30948197916666,78.46920418541666,60.0,68.0
451,78.30948197916666,78.47614862916666,72.0,61.0
452,78.86503747916666,79.03170412916666,53.0,69.0
453,78.86503747916666,79.24698188541666,69.0,73.0
454,79.14281522916666,79.42290779375,53.0,59.0
455,78.86503747916666,79.51781519166666,72.0,82.0
456,78.86503747916666,79.67059295416666,60.0,84.0
457,78.86503747916666,79.70300035833333,65.0,71.0
458,79.69837072916667,79.83957441874999,69.0,78.0
459,79.97614847916665,80.02707439999999,53.0,30.0
460,79.97614847916665,80.23077808333332,69.0,63.0
461,78.86503747916666,80.44605583958332,41.0,68.0
462,79.97614847916665,80.63355582083332,72.0,95.0
463,79.97614847916665,80.70068544374999,65.0,82.0
464,79.97614847916665,80.71920396041666,60.0,91.0
465,80.53170397916666,80.74235210625,69.0,92.0
466,80.25392622916667,80.77012988125,53.0,79.0
467,80.80948172916666,80.85577802083333,41.0,63.0
468,81.08725947916666,81.47614832916666,45.0,56.0
469,81.08725947916666,81.75624089374999,57.0,80.0
470,81.08725947916666,81.77475941041666,60.0,71.0
471,81.08725947916666,81.7909631125,64.0,68.0
472,81.08725947916666,81.7909631125,69.0,84.0
473,81.92059272916666,82.24235195624999,45.0,56.0
474,81.08725947916666,82.47833197916665,33.0,63.0
475,82.19837047916667,82.4877659375,64.0,77.0
476,82.19837047916667,82.49955838541666,69.0,84.0
477,82.19837047916667,82.52078479166666,60.0,81.0
478,82.19837047916667,82.52314328125,57.0,88.0
479,82.47833197916665,82.59153947916666,45.0,50.0
480,82.76135072916667,83.04672796874999,59.0,79.0
481,82.76135072916667,83.06323739583333,55.0,84.0
482,82.76135072916667,83.10569020833333,67.0,83.0
483,82.76135072916667,83.11040718749999,62.0,72.0
484,82.76135072916667,83.12927510416667,43.0,83.0
485,83.32738822916666,83.74012390624999,48.0,67.0
486,83.32738822916666,83.88399177083333,55.0,90.0
487,83.32738822916666,83.88870874999999,67.0,87.0
488,83.32738822916666,83.89342572916667,64.0,83.0
489,83.32738822916666,83.92172760416666,60.0,81.0
490,83.89342572916667,84.18823692708332,48.0,63.0
491,84.17644447916666,84.52078395833333,55.0,71.0
492,84.17644447916666,84.52314244791665,60.0,62.0
493,84.17644447916666,84.55851979166665,62.0,72.0
494,84.45946322916666,84.80511303749999,48.0,72.0
495,83.32738822916666,84.94863154166666,36.0,72.0
496,85.01807597916667,85.09909448958332,48.0,80.0
497,84.74029822916665,85.10603893333332,55.0,100.0
498,84.74029822916665,85.13150189375,60.0,87.0
499,84.74029822916665,85.13150189375,64.0,91.0
500,85.57363147916666,86.1106684625,48.0,35.0
501,85.57363147916666,86.30742770208333,55.0,51.0
502,85.57363147916666,86.31900177499999,60.0,53.0
503,85.57363147916666,86.31900177499999,64.0,63.0
504,86.40696472916666,86.67548322083333,48.0,50.0
505,85.57363147916666,86.96252022916666,36.0,53.0
506,86.68474247916666,87.24492760833333,55.0,77.0
507,87.24261279375,87.30742760208332,36.0,44.0
508,86.68474247916666,87.30742760208332,60.0,71.0
509,86.68474247916666,87.31205723125,64.0,74.0
510,86.96252022916666,87.35372389375,48.0,45.0
511,87.79816829375,88.40002008541666,50.0,39.0
512,87.79816829375,88.48798303958333,62.0,48.0
513,87.79816829375,88.52964970208333,57.0,45.0
514,87.79816829375,88.52964970208333,65.0,47.0
515,88.62918672916666,88.985668175,50.0,59.0
516,88.90696447916666,89.19631630208333,62.0,74.0
517,88.90696447916666,89.20094593124999,57.0,81.0
518,88.90696447916666,89.28196444166666,65.0,92.0
519,89.18474222916666,89.53196441666665,50.0,64.0
520,87.79816829375,89.6384458875,38.0,42.0
521,89.46251997916666,89.80048290833332,62.0,72.0
522,89.46251997916666,89.80279772291667,57.0,84.0
523,89.46251997916666,89.8051125375,67.0,80.0
524,89.74029772916666,89.819001425,50.0,56.0
525,90.01807547916665,90.46251987916666,43.0,67.0
526,90.01807547916665,90.60140875416666,55.0,75.0
527,90.01807547916665,90.61992727083333,67.0,73.0
528,90.01807547916665,90.65464948958333,62.0,67.0
529,90.01807547916665,90.66390874791666,59.0,69.0
530,90.85140872916666,91.15001981041667,43.0,63.0
531,91.12918647916666,91.4440012625,67.0,82.0
532,91.12918647916666,91.45326052083333,55.0,88.0
533,91.12918647916666,91.45557533541665,62.0,80.0
534,91.12918647916666,91.485667925,59.0,81.0
535,90.01807547916665,91.60835309791666,31.0,71.0
536,91.68474197916666,91.86529751666666,59.0,65.0
537,91.68474197916666,91.89770492083332,62.0,64.0
538,91.68474197916666,91.90233454999999,67.0,76.0
539,91.68474197916666,91.90927899375,55.0,77.0
540,91.40696422916666,91.97409380208333,43.0,83.0
541,91.96251972916666,92.00650120625,31.0,72.0
542,92.24029747916666,92.77964927708332,48.0,56.0
543,92.24029747916666,92.88150111875,67.0,63.0
544,92.24029747916666,92.89307519166667,55.0,69.0
545,92.24029747916666,92.89307519166667,64.0,69.0
546,92.24029747916666,92.89770482083333,60.0,65.0
547,93.07363072916667,93.49261216874999,48.0,65.0
548,92.24029747916666,93.73103807083332,36.0,53.0
549,93.35140847916666,93.93242693958332,55.0,91.0
550,93.35140847916666,93.9440010125,67.0,83.0
551,93.90696397916666,93.95557508541665,48.0,59.0
552,93.35140847916666,93.96251952916666,64.0,80.0
553,93.35140847916666,93.97640841666666,60.0,83.0
554,94.46251947916666,94.87455647499999,53.0,34.0
555,94.46251947916666,95.12455645,57.0,51.0
556,94.46251947916666,95.15001941041666,60.0,52.0
557,94.46251947916666,95.16622311249999,65.0,51.0
558,95.29585272916665,95.58520455208333,53.0,35.0
559,94.46251947916666,95.64770454583332,48.0,43.0
560,95.57363047916667,95.93474155416666,60.0,68.0
561,94.46251947916666,96.01576006458333,41.0,38.0
562,95.57363047916667,96.17316745625,57.0,65.0
563,95.85140822916667,96.18242671458333,53.0,38.0
564,96.12918597916666,96.19631560208333,48.0,46.0
565,95.57363047916667,96.19631560208333,65.0,66.0
566,96.68705629374999,97.1940006875,53.0,31.0
567,96.68705629374999,97.40464881458333,57.0,43.0
568,96.68705629374999,97.43937103333333,60.0,50.0
569,96.68705629374999,97.45094510624999,65.0,43.0
570,97.51807472916666,97.78890803541665,53.0,35.0
571,96.68705629374999,98.02501912291666,41.0,38.0
572,98.07363022916667,98.35140797916667,53.0,43.0
573,97.79585247916665,98.40233389999999,57.0,77.0
574,98.35140797916667,98.41853760208332,41.0,57.0
575,97.79585247916665,98.41853760208332,60.0,72.0
576,97.79585247916665,98.42548204583332,65.0,73.0
577,98.90696347916666,99.43474120416666,50.0,44.0
578,98.90696347916666,99.56900044999999,57.0,47.0
579,98.90696347916666,99.596778225,62.0,53.0
580,98.90696347916666,99.62224118541666,65.0,47.0
581,99.74029672916666,100.04353743958333,50.0,48.0
582,98.90696347916666,100.21784733333332,38.0,50.0
583,100.01807447916666,100.58577170833333,57.0,72.0
584,100.29803597916666,100.61407358333332,50.0,41.0
585,100.01807447916666,100.62114905208333,62.0,69.0
586,100.58105472916667,100.63765847916666,38.0,55.0
587,100.01807447916666,100.63765847916666,65.0,71.0
588,101.14709222916666,101.6871864625,43.0,56.0
589,101.14709222916666,101.91866792083333,67.0,61.0
590,101.14709222916666,101.93255680833333,55.0,57.0
591,101.14709222916666,101.93487162291666,62.0,58.0
592,101.14709222916666,101.95570495416666,58.0,59.0
593,101.98348272916667,102.30755677083333,50.0,40.0
594,102.53903822916666,102.83070486666666,50.0,46.0
595,102.81681597916666,102.86079745625,43.0,58.0
596,102.26126047916667,102.90246411874999,55.0,69.0
597,102.26126047916667,102.91635300624999,58.0,65.0
598,102.26126047916667,102.91635300624999,62.0,67.0
599,102.26126047916667,102.94413078125,67.0,63.0
600,103.37237147916666,103.92792697916666,57.0,38.0
601,103.37237147916666,104.02746400625,60.0,48.0
602,103.37237147916666,104.12237140416666,69.0,53.0
603,103.37237147916666,104.17098251041666,64.0,50.0
604,104.20570472916665,104.55292691666666,57.0,47.0
605,103.37237147916666,104.76820467291667,45.0,44.0
606,104.48348247916667,105.08070464166666,60.0,81.0
607,104.48348247916667,105.0899639,69.0,82.0
608,104.48348247916667,105.13394537708334,64.0,79.0
609,104.76126022916667,105.15246389375,57.0,63.0
610,105.03903797916666,105.1594083375,45.0,51.0
611,105.59459347916666,106.26820452291666,72.0,62.0
612,105.59459347916666,106.29598229791667,60.0,51.0
613,105.59459347916666,106.31450081458333,67.0,51.0
614,105.59459347916666,106.32376007291666,64.0,45.0
615,105.59459347916666,106.74968595624999,48.0,53.0
616,106.98348222916667,107.2010748,48.0,39.0
617,106.42792672916666,107.20338961458333,55.0,36.0
618,106.70570447916666,107.30987108541666,72.0,79.0
619,106.70570447916666,107.33764886041666,60.0,76.0
620,106.70570447916666,107.33764886041666,67.0,68.0
621,106.70570447916666,107.34227848958332,64.0,63.0
622,107.81681547916666,108.28903765416666,55.0,44.0
623,107.81681547916666,108.50200059583332,59.0,56.0
624,107.81681547916666,108.53209318541666,62.0,47.0
625,107.81681547916666,108.54366725833333,67.0,51.0
626,108.65014872916666,108.91403759166666,55.0,39.0
627,107.81681547916666,109.08533387083332,43.0,41.0
628,108.92792647916666,109.54366715833334,59.0,72.0
629,108.92792647916666,109.5760745625,67.0,67.0
630,107.81681547916666,109.57838937708333,50.0,43.0
631,109.20570422916666,109.58533382083333,55.0,53.0
632,108.92792647916666,109.59459307916666,62.0,65.0
633,109.48348197916667,109.61311159583333,43.0,56.0
634,110.03903747916667,110.58088214166666,55.0,39.0
635,110.03903747916667,110.76117057916666,60.0,44.0
636,110.03903747916667,110.79963211249999,67.0,53.0
637,110.03903747916667,110.83809364583333,64.0,46.0
638,110.89818979166665,111.15780514166666,55.0,36.0
639,110.03903747916667,111.42436493749999,48.0,50.0
640,111.47066122916665,111.79010564166666,55.0,45.0
641,111.74843897916666,111.80167971458333,48.0,62.0
642,111.18665129166666,111.83640193333332,60.0,74.0
643,111.18665129166666,111.86649452291665,67.0,74.0
644,111.18665129166666,111.88501303958333,64.0,67.0
645,112.30399447916666,112.70445740208332,53.0,45.0
646,112.30399447916666,113.13501291458333,60.0,59.0
647,112.30399447916666,113.13964254374999,57.0,51.0
648,112.30399447916666,113.14195735833333,65.0,60.0
649,113.13501291458333,113.43130918124999,53.0,40.0
650,112.30399447916666,113.493809175,41.0,50.0
651,113.69288322916665,113.93825357499999,53.0,69.0
652,113.41510547916666,113.99843875416666,57.0,83.0
653,113.41510547916666,114.02158689999999,65.0,80.0
654,113.41510547916666,114.03316097291666,60.0,76.0
655,113.97066097916665,114.04010541666666,41.0,67.0
656,114.52621647916666,115.04473494583333,50.0,40.0
657,114.52621647916666,115.18362382083332,57.0,49.0
658,114.52621647916666,115.216031225,65.0,49.0
659,114.52621647916666,115.22760529791665,62.0,53.0
660,115.35954972916666,115.63038303541666,50.0,44.0
661,114.52621647916666,115.77158672499999,38.0,45.0
662,115.91510522916666,116.21371631041666,50.0,50.0
663,115.63732747916666,116.23686445624999,57.0,83.0
664,116.19288297916665,116.24149408541666,38.0,68.0
665,115.63732747916666,116.271586675,65.0,83.0
666,115.63732747916666,116.27621630416665,62.0,87.0
667,116.74843847916665,117.25769768749998,48.0,53.0
668,116.74843847916665,117.43130878125,55.0,71.0
669,116.74843847916665,117.47297544374999,64.0,64.0
670,116.74843847916665,117.48454951666666,60.0,61.0
671,117.58177172916666,117.88964206874999,48.0,36.0
672,116.74843847916665,118.03779020208333,36.0,59.0
673,117.85954947916666,118.42436423749999,55.0,75.0
674,117.85954947916666,118.45445682708332,60.0,72.0
675,118.41510497916666,118.48454941666665,36.0,47.0
676,118.13732722916666,118.49843830416665,48.0,47.0
677,117.85954947916666,118.50075311875,64.0,71.0
678,118.69288272916666,118.84566049166666,60.0,51.0
679,118.97066047916665,119.47297524374999,50.0,50.0
680,118.97066047916665,119.67899374166666,57.0,51.0
681,118.97066047916665,119.71140114583332,62.0,58.0
682,118.97066047916665,119.71834558958332,65.0,66.0
683,119.80399372916666,120.09797518124999,50.0,51.0
684,118.97066047916665,120.25769738749999,38.0,56.0
685,120.08177147916666,120.63732697916666,62.0,80.0
686,120.08177147916666,120.65816031041666,57.0,85.0
687,120.08177147916666,120.66973438333332,65.0,74.0
688,120.35954922916666,120.67667882708332,50.0,68.0
689,120.63732697916666,120.68130845625,38.0,69.0
690,121.19288247916666,121.75075279375,46.0,72.0
691,121.19288247916666,121.89658611249999,62.0,72.0
692,121.19288247916666,121.91278981458332,58.0,71.0
693,121.19288247916666,121.91510462916666,53.0,62.0
694,121.19288247916666,121.91973425833332,65.0,76.0
695,122.02621572916665,122.327141625,46.0,36.0
696,121.19288247916666,122.41047495,34.0,69.0
697,122.58177122916666,122.79704898541665,46.0,47.0
698,122.85954897916666,122.90584527083332,34.0,62.0
699,122.30399347916665,122.95445637708332,53.0,77.0
700,122.30399347916665,122.98223415208332,58.0,81.0
701,122.30399347916665,122.98917859583332,62.0,72.0
702,122.30399347916665,123.01464155624998,65.0,83.0
703,123.41510447916666,123.93362294583332,48.0,45.0
704,123.41510447916666,124.15121551666665,57.0,63.0
705,123.41510447916666,124.19056736458333,60.0,65.0
706,123.41510447916666,124.19519699374999,65.0,68.0
707,124.24843772916665,124.53084510833332,48.0,38.0
708,123.41510447916666,124.74612286458333,36.0,51.0
709,125.08177097916666,125.12806727083333,36.0,63.0
710,124.80399322916665,125.13038208541666,48.0,45.0
711,124.52621547916665,125.13732652916666,57.0,81.0
712,124.52621547916665,125.14427097291666,60.0,79.0
713,124.52621547916665,125.17204874791666,65.0,80.0
714,125.63732647916666,126.10028939583333,45.0,58.0
715,125.63732647916666,126.33408566874999,57.0,62.0
716,125.63732647916666,126.35028937083332,60.0,62.0
717,125.63732647916666,126.38964121874999,64.0,63.0
718,126.47065972916666,126.77158562499999,45.0,51.0
719,125.63732647916666,126.96834486458333,33.0,58.0
720,127.02621522916665,127.39427074791666,45.0,68.0
721,126.74843747916665,127.42204852291665,57.0,83.0
722,126.74843747916665,127.46602999999999,60.0,80.0
723,126.74843747916665,127.48454851666665,64.0,79.0
724,127.30399297916665,127.5910299875,33.0,76.0
725,127.58177072916666,127.62806702083333,45.0,75.0
726,127.85954847916666,128.35954842916667,46.0,72.0
727,127.85954847916666,128.48454841666666,58.0,77.0
728,127.85954847916666,128.48686323125,62.0,74.0
729,127.85954847916666,128.50075211875,65.0,76.0
730,128.69288172916666,128.7299187625,58.0,87.0
731,128.41510397916664,128.73223357708332,46.0,62.0
732,128.69288172916666,128.90584467083332,65.0,82.0
733,128.69288172916666,128.91973355833332,62.0,84.0
734,128.97065947916667,129.12575205624998,46.0,56.0
735,129.53363972916665,129.57609254166664,46.0,68.0
736,129.25062097916665,129.6657151458333,67.0,87.0
737,129.25062097916665,129.70345097916666,58.0,95.0
738,127.85954847916666,129.7293943645833,34.0,69.0
739,129.25062097916665,129.7411868125,62.0,81.0
740,130.09967722916664,130.59024306249998,53.0,71.0
741,130.09967722916664,130.73646941666664,60.0,79.0
742,130.09967722916664,130.76477129166665,57.0,79.0
743,130.09967722916664,130.81429957291664,65.0,73.0
744,130.94873347916663,131.25533712499998,53.0,48.0
745,131.23175222916666,131.50062004166665,67.0,93.0
746,131.23175222916666,131.53363889583332,57.0,84.0
747,131.23175222916666,131.55014832291664,60.0,84.0
748,131.51477097916666,131.8638274375,53.0,50.0
749,130.09967722916664,131.8661859270833,41.0,72.0
750,131.79778972916665,132.04071415624998,57.0,71.0
751,131.79778972916665,132.04307264583332,69.0,76.0
752,131.79778972916665,132.04543113541664,60.0,62.0
753,132.36382722916665,132.86618551041664,53.0,48.0
754,132.36382722916665,133.01712884375,60.0,56.0
755,132.36382722916665,133.05958165624997,57.0,61.0
756,132.36382722916665,133.13269483333332,65.0,58.0
757,133.21288347916663,133.54778899999997,53.0,71.0
758,133.49590222916666,133.7411851458333,67.0,90.0
759,133.49590222916666,133.80014738541664,57.0,90.0
760,133.49590222916666,133.80250587499998,60.0,84.0
761,132.36382722916665,133.8260907708333,41.0,49.0
762,134.06193972916665,134.22467551041666,60.0,67.0
763,134.06193972916665,134.28127926041665,57.0,84.0
764,134.06193972916665,134.30250566666663,69.0,89.0
765,133.77892097916666,134.37561884374998,53.0,75.0
766,134.34495847916665,134.40863769791665,41.0,53.0
767,134.62797722916665,135.27744669374997,69.0,64.0
768,134.62797722916665,135.28414312499996,64.0,61.0
769,134.62797722916665,135.28637526874996,57.0,67.0
770,134.62797722916665,135.29530384374996,60.0,59.0
771,134.62797722916665,135.58325038749996,45.0,35.0
772,135.44039318749998,135.84664334999997,52.0,67.0
773,135.70825043749997,135.87342907499996,50.0,69.0
774,135.70825043749997,135.98503626249996,69.0,87.0
775,135.70825043749997,136.00066126874998,57.0,80.0
776,135.70825043749997,136.00289341249996,62.0,72.0
777,135.70825043749997,136.00958984374998,65.0,78.0
778,135.97610768749996,136.26182208749998,50.0,68.0
779,135.70825043749997,136.27967923749998,38.0,72.0
780,136.24396493749998,136.49842932499996,55.0,85.0
781,136.24396493749998,136.50289361249997,43.0,69.0
782,136.24396493749998,136.50735789999996,59.0,76.0
783,136.24396493749998,136.52298290624998,67.0,89.0
784,136.24396493749998,136.53860791249997,62.0,47.0
785,136.77967943749996,137.29274765208328,48.0,61.0
786,136.77967943749996,137.4086567333333,55.0,81.0
787,136.77967943749996,137.46092945624997,67.0,89.0
788,136.77967943749996,137.49502036249996,60.0,72.0
789,136.77967943749996,137.50638399791663,64.0,76.0
790,137.59502035416662,137.8927476020833,48.0,44.0
791,136.77967943749996,138.15933849999996,36.0,68.0
792,138.45183849999998,138.51183849999998,36.0,51.0
793,138.15183849999997,138.51183849999998,48.0,49.0
794,137.86774760416662,138.51183849999998,55.0,90.0
795,137.86774760416662,138.53183849999996,60.0,79.0
796,137.86774760416662,138.54183849999995,67.0,87.0
797,137.86774760416662,138.55933849999997,64.0,79.0
798,139.05183849999997,139.47683859999995,48.0,43.0
799,139.05183849999997,139.78487443749995,55.0,64.0
800,139.05183849999997,139.78487443749995,60.0,58.0
801,139.05183849999997,139.84960660624995,64.0,61.0
802,139.87416018749997,140.22683889999996,48.0,47.0
803,140.14201743749996,140.4834526666666,55.0,77.0
804,140.14201743749996,140.4880822958333,67.0,74.0
805,140.14201743749996,140.5089156270833,60.0,67.0
806,139.05183849999997,140.65937857499995,36.0,45.0
807,140.41400822916663,140.76354523124996,48.0,68.0
808,140.6917859791666,140.82604522499994,60.0,54.0
809,140.6917859791666,140.8422489270833,55.0,71.0
810,140.6917859791666,140.84687855624995,67.0,67.0
811,140.6917859791666,140.86076744374995,64.0,64.0
812,141.2473414791666,141.8005821645833,50.0,47.0
813,141.2473414791666,141.8515080854166,57.0,62.0
814,141.2473414791666,141.92095252291662,62.0,63.0
815,141.2473414791666,141.93715622499994,65.0,66.0
816,142.08067472916662,142.42326728749995,50.0,51.0
817,141.2473414791666,142.67614981249994,38.0,52.0
818,142.63841397916661,142.9497346041666,50.0,55.0
819,142.9214327291666,142.9638855416666,38.0,65.0
820,142.35845247916663,142.97331949999995,57.0,72.0
821,142.35845247916663,143.0417156979166,65.0,66.0
822,142.35845247916663,143.07473455208327,62.0,77.0
823,143.4874702291666,143.94265871874995,43.0,50.0
824,143.4874702291666,144.08652658333327,55.0,63.0
825,143.4874702291666,144.11246996874993,67.0,62.0
826,143.4874702291666,144.15020580208326,62.0,59.0
827,143.4874702291666,144.15728127083327,59.0,58.0
828,144.3365264791666,144.65963955208326,43.0,59.0
829,143.4874702291666,144.8164576791666,31.0,51.0
830,144.61954522916662,144.91418494374994,67.0,76.0
831,144.61954522916662,144.92327585208326,55.0,84.0
832,144.61954522916662,144.9369122145833,59.0,76.0
833,144.61954522916662,144.94827584999993,62.0,72.0
834,145.1710031041666,145.34145763541662,59.0,68.0
835,145.1710031041666,145.37327581458328,67.0,75.0
836,145.1710031041666,145.3823667229166,62.0,64.0
837,145.1710031041666,145.39145763124995,55.0,84.0
838,144.8982758541666,145.47782126041662,43.0,61.0
839,145.4437303541666,145.48236671458326,31.0,80.0
840,145.7164576041666,145.95888182499996,55.0,50.0
841,145.7164576041666,145.99591885833328,60.0,53.0
842,145.99128922916663,146.30147438333327,48.0,65.0
843,146.2690669791666,146.54915954374994,55.0,90.0
844,146.2690669791666,146.56073361666662,60.0,87.0
845,146.2690669791666,146.56999287499994,62.0,85.0
846,145.7164576041666,146.78527063124994,36.0,53.0
847,145.7164576041666,146.78527063124994,36.0,68.0
848,146.54684472916662,146.97045579791663,48.0,85.0
849,146.8246224791666,147.10934467291662,55.0,100.0
850,146.8246224791666,147.11165948749996,60.0,90.0
851,146.8246224791666,147.13480763333328,64.0,91.0
852,147.10240022916662,147.3917520520833,36.0,74.0
853,147.10240022916662,147.3917520520833,36.0,79.0
854,147.3801779791666,147.51212241041662,57.0,67.0
855,147.3801779791666,147.5792520333333,55.0,72.0
856,147.3801779791666,147.6070298083333,67.0,86.0
857,147.3801779791666,147.6278631395833,60.0,75.0
858,147.3801779791666,147.6301779541666,64.0,76.0
859,147.65795572916662,147.70656683541662,48.0,67.0
860,147.93573347916663,148.06073346666662,69.0,66.0
861,147.93573347916663,148.09777049999994,60.0,90.0
862,147.93573347916663,148.10240012916663,65.0,93.0
863,148.2135112291666,148.26906677916662,60.0,47.0
864,147.93573347916663,148.27369640833328,72.0,110.0
865,147.93573347916663,148.29915936874994,53.0,91.0
866,148.49128897916663,148.84777042499996,72.0,93.0
867,147.93573347916663,148.87091857083328,41.0,95.0
868,148.49128897916663,148.87554819999994,60.0,87.0
869,148.2135112291666,148.88480745833328,69.0,73.0
870,148.2135112291666,148.89406671666663,65.0,71.0
871,148.7690667291666,148.91721486249995,53.0,87.0
872,149.04684447916662,149.1787889104166,52.0,88.0
873,149.04684447916662,149.19962224166662,67.0,86.0
874,149.04684447916662,149.20888149999996,64.0,90.0
875,149.04684447916662,149.2875851958333,60.0,104.0
876,149.04684447916662,149.3500851895833,72.0,102.0
877,149.04684447916662,149.47739999166663,40.0,91.0
878,149.3246222291666,149.5537888729166,67.0,74.0
879,149.3246222291666,149.6857333041666,52.0,100.0
880,149.60239997916662,149.69499256249995,40.0,85.0
881,149.60239997916662,150.22508510208328,72.0,95.0
882,149.60239997916662,150.22739991666663,67.0,79.0
883,149.60239997916662,150.23665917499994,60.0,95.0
884,149.3246222291666,150.2459184333333,64.0,67.0
885,150.15795547916662,150.35471471874996,69.0,102.0
886,150.15795547916662,150.39869619583328,50.0,102.0
887,150.15795547916662,150.4403628583333,62.0,111.0
888,150.15795547916662,150.5190665541666,74.0,104.0
889,150.15795547916662,150.58619617708328,38.0,105.0
890,150.43573322916663,150.78064060208328,50.0,95.0
891,150.7135109791666,150.8153628208333,38.0,80.0
892,150.7135109791666,150.8153628208333,74.0,92.0
893,150.43573322916663,150.82693689374995,69.0,74.0
894,150.7135109791666,150.8500850395833,62.0,85.0
895,150.43573322916663,150.8871220729166,65.0,80.0
896,150.99128872916663,151.07693686874995,60.0,102.0
897,150.99128872916663,151.08388131249995,64.0,83.0
898,150.99128872916663,151.09082575624996,72.0,102.0
899,150.99128872916663,151.10934427291662,67.0,76.0
900,150.99128872916663,151.13480723333328,48.0,104.0
901,150.99128872916663,151.13943686249996,36.0,105.0
902,151.2690664791666,151.41027016874995,65.0,62.0
903,151.2690664791666,151.4125849833333,70.0,103.0
904,151.2690664791666,151.4334183145833,58.0,108.0
905,151.2690664791666,151.44499238749995,62.0,79.0
906,151.2690664791666,151.70425162083328,46.0,113.0
907,151.2690664791666,151.71814050833328,34.0,113.0
908,151.8246219791666,151.9681404833333,69.0,96.0
909,151.8246219791666,151.97971455624995,64.0,87.0
910,151.8246219791666,151.9889738145833,57.0,108.0
911,151.8246219791666,151.9912886291666,60.0,91.0
912,151.8246219791666,152.08619602708328,33.0,109.0
913,151.8246219791666,152.09545528541662,45.0,113.0
914,152.3778626645833,152.56999227499995,31.0,114.0
915,152.55378857291663,152.66027004374996,43.0,76.0
916,152.66952930208328,152.72739966666663,31.0,69.0
917,152.7459181833333,152.82693669374996,43.0,65.0
918,152.84777002499996,152.89869594583328,31.0,68.0
919,152.90332557499994,152.9635107541666,43.0,84.0
920,152.99360334374995,153.03989963541662,31.0,75.0
921,152.3986959958333,153.08388111249994,55.0,115.0
922,152.9611959395833,153.08388111249994,55.0,85.0
923,153.04452926458328,153.11165888749994,43.0,79.0
924,152.3778626645833,153.15332554999995,59.0,108.0
925,153.06999222499996,153.15332554999995,59.0,75.0
926,153.11628851666663,153.1579551791666,31.0,85.0
927,152.38943673749995,153.22276998749996,62.0,97.0
928,153.12554777499994,153.22276998749996,62.0,81.0
929,153.1834181395833,153.22971443124996,43.0,83.0
930,153.24360331874996,153.28526998124994,31.0,77.0
931,152.38249229374995,153.28758479583328,67.0,102.0
932,153.2065662854166,153.28758479583328,67.0,49.0
933,153.29684405416663,153.3848070083333,43.0,88.0
934,153.3709181208333,153.41258478333327,31.0,71.0
935,153.44267737291662,153.48202922083328,43.0,77.0
936,153.50054773749994,153.5398995854166,31.0,88.0
937,153.44267737291662,153.5723069895833,74.0,87.0
938,153.3732329354166,153.60008476458327,71.0,83.0
939,153.51212181041663,153.61860328124996,79.0,111.0
940,153.5537884729166,153.63480698333328,43.0,79.0
941,153.62554772499996,153.67184401666663,31.0,87.0
942,153.7042514208333,153.74360326874995,43.0,84.0
943,153.7598069708333,153.79915881874996,31.0,91.0
944,153.82230696458328,153.8848069583333,43.0,79.0
945,153.8986958458333,153.9426773229166,31.0,67.0
946,153.95193658124995,154.00517731666662,43.0,88.0
947,154.01443657499996,154.05610323749994,31.0,80.0
948,154.08156619791663,154.13943656249995,43.0,83.0
949,154.1440661916666,154.19036248333327,31.0,88.0
950,154.21582544374996,154.26443654999994,43.0,80.0
951,154.27832543749994,154.3176772854166,31.0,85.0
952,154.3454550604166,154.41952912708328,43.0,74.0
953,154.42878838541662,155.3037882979166,31.0,65.0
954,155.21119571458328,155.3037882979166,31.0,33.0
955,154.48665874999995,155.41026976874994,43.0,91.0
956,155.32925125833327,155.41026976874994,43.0,48.0
957,155.42184384166663,155.4889734645833,31.0,64.0
958,155.50054753749995,155.54915864374996,43.0,67.0
959,155.57462160416662,155.63017715416663,31.0,84.0
960,155.63249196874995,155.68110307499995,43.0,69.0
961,155.70425122083327,155.74360306874996,31.0,72.0
962,155.75054751249996,155.81304750624994,43.0,88.0
963,155.81304750624994,155.86165861249995,31.0,77.0
964,155.8871215729166,155.92415860624996,43.0,88.0
965,155.93341786458328,155.97045489791662,31.0,95.0
966,155.99360304374994,156.04221414999995,43.0,80.0
967,156.04915859374995,156.09082525624996,31.0,80.0
968,156.11860303124996,156.17184376666663,43.0,90.0
969,156.18341783958329,156.2204548729166,31.0,77.0
970,156.2412882041666,156.2760104229166,43.0,91.0
971,156.28526968124996,156.35239930416662,31.0,88.0
972,156.36165856249994,156.40101041041663,43.0,74.0
973,156.41721411249995,156.45888077499995,31.0,75.0
974,156.47276966249996,156.54221409999994,43.0,85.0
975,156.52832521249996,156.61860298124995,31.0,91.0
976,156.61165853749995,156.69267704791662,43.0,91.0
977,156.66952890208327,156.7806400020833,31.0,107.0
978,156.74128815416663,156.78526963124995,43.0,63.0
979,156.87091777083327,159.8732322854166,58.0,106.0
980,156.87323258541662,159.8848063583333,62.0,88.0
981,156.92184369166662,159.8871211729166,65.0,67.0
982,156.87091777083327,159.90332487499995,46.0,106.0
983,156.87091777083327,159.9079545041666,34.0,106.0
984,156.87091777083327,159.94962116666662,70.0,105.0
985,159.93110264999996,160.98665809999994,35.0,64.0
986,159.91721376249996,160.9889729145833,47.0,47.0
987,161.87091727083327,162.03758392083327,31.0,38.0
988,162.04221354999996,162.13712094791663,43.0,35.0
989,162.18804686874995,162.24823204791662,31.0,47.0
990,162.28295426666662,162.3431394458333,43.0,40.0
991,162.36165796249995,162.4218431416666,31.0,63.0
992,162.43573202916662,162.48897276458328,43.0,51.0
993,162.51212091041663,162.55610238749995,31.0,71.0
994,162.5607320166666,162.60008386458327,43.0,76.0
995,162.64638015624996,162.70193570624994,31.0,53.0
996,162.68341718958328,162.7459171833333,43.0,72.0
997,162.7875838458333,162.82925050833327,31.0,25.0
998,162.81767643541662,162.85239865416662,43.0,81.0
999,162.92878753541663,162.9843430854166,43.0,69.0
1000,162.88712087291663,163.05841715208328,31.0,39.0
1001,163.06073196666662,163.1023986291666,43.0,80.0
1002,163.1070282583333,163.1579541791666,31.0,72.0
1003,163.1625838083333,163.22045417291662,43.0,85.0
1004,163.21813935833327,163.28989861041663,31.0,75.0
1005,163.2945282395833,163.34776897499995,43.0,87.0
1006,163.3454541604166,163.39869489583327,31.0,71.0
1007,163.42184304166662,163.48665784999994,43.0,81.0
1008,163.5607319166666,163.60471339374996,43.0,77.0
1009,163.47971340624994,163.7111948645833,31.0,92.0
1010,163.65100968541662,163.72971338124995,43.0,58.0
1011,159.90332487499995,163.72971338124995,67.0,48.0
1012,159.91026931874995,163.75980597083327,59.0,50.0
1013,159.91721376249996,164.03526890624994,55.0,47.0
1014,159.90332487499995,164.06767631041663,62.0,51.0
1015,164.0723059395833,164.19499111249996,36.0,79.0
1016,164.19267629791662,164.2736948083333,48.0,55.0
1017,164.3014725833333,164.36165776249996,36.0,59.0
1018,164.37091702083328,164.43804664374994,48.0,71.0
1019,164.4542503458333,164.50980589583327,36.0,71.0
1020,164.5329540416666,164.59313922083328,48.0,75.0
1021,164.59545403541662,164.6556392145833,36.0,77.0
1022,164.67415773124995,164.75054661249996,48.0,80.0
1023,164.73665772499996,164.79328165624995,36.0,91.0
1024,164.8259739666666,164.87020473958327,48.0,68.0
1025,164.87405089374994,164.91635858958327,36.0,87.0
1026,164.93366628333328,164.99520474999994,48.0,74.0
1027,164.99135859583328,165.05482013958326,36.0,71.0
1028,165.0625124479166,165.1202047604166,48.0,84.0
1029,164.06767631041663,165.1663586104166,60.0,87.0
1030,164.0792503833333,165.1778970729166,64.0,80.0
1031,164.0792503833333,165.18751245833326,67.0,73.0
1032,164.0723059395833,165.2125124604166,72.0,80.0
1033,165.15097399374994,165.2240509229166,36.0,50.0
1034,165.19712784374994,165.26635861874993,48.0,69.0
1035,165.30674323749994,165.3682817041666,48.0,36.0
1036,165.27405092708327,165.39520478333327,36.0,59.0
1037,165.4259740166666,165.47020478958328,48.0,68.0
1038,165.47597402083326,165.51635863958327,36.0,87.0
1039,165.53366633333326,165.59520479999992,48.0,74.0
1040,165.5932817229166,165.6567432666666,36.0,71.0
1041,165.66443557499994,165.72212788749994,48.0,84.0
1042,165.75097404374992,165.8240509729166,36.0,50.0
1043,165.79905097083326,165.86635866874994,48.0,69.0
1044,165.90866636458327,165.97020483124993,48.0,36.0
1045,165.87405097708327,165.9971279104166,36.0,59.0
1046,166.23558946874994,166.40289717499994,46.0,97.0
1047,166.23558946874994,166.6432818104166,62.0,95.0
1048,166.23558946874994,166.6778971979166,65.0,92.0
1049,166.23558946874994,166.70866643124992,70.0,99.0
1050,166.4875125666666,166.92405106458327,46.0,79.0
1051,166.7932818229166,167.06635876874992,74.0,90.0
1052,166.79712797708328,167.0990510791666,62.0,95.0
1053,166.78558951458328,167.0990510791666,70.0,95.0
1054,166.23558946874994,167.10097415624995,34.0,99.0
1055,166.77789720624995,167.12020492708328,65.0,63.0
1056,167.0759741541666,167.27020493958327,46.0,106.0
1057,167.37405110208326,167.5144357291666,62.0,110.0
1058,167.37405110208326,167.53366649999992,65.0,96.0
1059,167.37405110208326,167.5671486562499,70.0,103.0
1060,167.37405110208326,167.57161294374993,74.0,106.0
1061,167.91089879374994,168.04705956249992,77.0,102.0
1062,167.91089879374994,168.05152384999994,65.0,110.0
1063,167.91536308124992,168.06268456874992,74.0,99.0
1064,167.91536308124992,168.09393458124993,70.0,107.0
1065,167.38366648749994,168.12964888124992,34.0,104.0
1066,167.62518439374992,168.13188102499993,46.0,95.0
1067,168.56268476874993,168.65833623541658,36.0,92.0
1068,168.65602142083324,168.7208362291666,48.0,81.0
1069,168.7277806729166,168.76944733541657,36.0,83.0
1070,168.55152404999993,168.83889177291658,72.0,110.0
1071,168.5470597624999,168.84352140208324,60.0,106.0
1072,168.80416955416658,168.85741028958324,48.0,69.0
1073,168.55152404999993,168.9037065812499,67.0,100.0
1074,168.85046584583324,168.9106510249999,36.0,74.0
1075,168.55152404999993,168.9384287999999,64.0,97.0
1076,168.9245399124999,168.97778064791657,48.0,81.0
1077,168.98241027708326,169.03565101249993,36.0,56.0
1078,169.04491027083324,169.1027806354166,48.0,80.0
1079,169.0958361916666,169.17916951666658,36.0,93.0
1080,169.17685470208326,169.23241025208324,48.0,74.0
1081,169.2995398749999,169.38055838541658,48.0,84.0
1082,169.42916949166658,169.4870398562499,48.0,87.0
1083,169.41528060416658,169.4870398562499,60.0,71.0
1084,169.52407688958326,169.60046577083324,64.0,39.0
1085,169.55185466458326,169.60972502916658,48.0,94.0
1086,169.57268799583326,169.61666947291658,67.0,62.0
1087,169.61666947291658,169.72101419166657,72.0,83.0
1088,169.6745398374999,169.74745649583323,48.0,84.0
1089,169.69768798333325,169.75707187916657,67.0,62.0
1090,169.73303342083324,169.78351418333324,64.0,65.0
1091,169.79312956666658,169.84841802083324,60.0,84.0
1092,169.8003411041666,169.8652449416666,48.0,94.0
1093,169.86764878749992,169.93255262499991,64.0,53.0
1094,169.85322571249992,169.93495647083324,67.0,78.0
1095,169.9157257041666,169.96380262083323,72.0,61.0
1096,169.92053339583325,170.00466799999992,48.0,102.0
1097,169.22315099374993,170.03591799583324,36.0,75.0
1098,170.0311103041666,170.08399491249992,72.0,54.0
1099,170.05995645416658,170.10322567916657,48.0,99.0
1100,170.0815910666666,170.15130259583324,76.0,71.0
1101,170.08399491249992,170.18014874583324,36.0,87.0
1102,170.1416872124999,170.20178335833324,79.0,66.0
1103,170.18014874583324,170.2282256624999,48.0,71.0
1104,170.21861027916657,170.2787064249999,36.0,79.0
1105,170.2330333541666,170.30995642083326,84.0,64.0
1106,170.2787064249999,170.3291871874999,79.0,71.0
1107,170.3075525749999,170.36043718333326,48.0,69.0
1108,170.31716795833324,170.36043718333326,76.0,73.0
1109,170.35562949166658,170.41572563749992,36.0,80.0
1110,170.37486025833326,170.43255255833324,72.0,84.0
1111,170.44216794166658,170.49024485833326,48.0,63.0
1112,170.45659101666658,170.50707177916658,76.0,57.0
1113,170.48543716666657,170.53111023749992,36.0,87.0
1114,170.4950525499999,170.57678330833323,79.0,82.0
1115,170.56236023333324,170.60082176666657,84.0,68.0
1116,170.56236023333324,170.61524484166657,48.0,64.0
1117,170.61524484166657,170.66572560416657,36.0,74.0
1118,170.66572560416657,170.70659098333326,84.0,75.0
1119,170.69216790833326,170.7402448249999,48.0,71.0
1120,170.73543713333325,170.7907255874999,36.0,84.0
1121,170.81476404583324,170.88857101666656,48.0,72.0
1122,170.77149482083325,170.9047747187499,88.0,47.0
1123,170.88162657291656,170.92792286458322,36.0,65.0
1124,170.85322557916658,170.96495989791657,91.0,79.0
1125,170.95107101041657,171.0992191437499,48.0,87.0
1126,170.95107101041657,171.1200524749999,96.0,116.0
1127,171.03208952083324,171.12468210416657,36.0,40.0
