,start,end,pitch,velocity
0,23.9318118,24.821016108333332,78.0,85.0
1,24.954538799999998,25.17044783333333,78.0,84.0
2,25.295447799999998,25.872152191666665,78.0,85.0
3,25.977265799999998,26.29118617083333,78.0,85.0
4,26.318174799999998,26.596583816666666,71.0,87.0
5,26.659083799999998,27.2002768375,74.0,89.0
6,27.340901799999997,27.637776720833333,76.0,89.0
7,27.681810799999997,27.977265266666667,74.0,99.0
8,28.022719799999997,29.071014974999997,71.0,89.0
9,29.3863558,29.632094370833332,83.0,87.0
10,29.7272648,30.268457837499998,83.0,85.0
11,30.4090828,30.642037283333334,85.0,87.0
12,30.7499918,30.9587985625,83.0,87.0
13,31.0909008,31.3295371,78.0,87.0
14,31.4318098,31.687491549999997,81.0,85.0
15,31.7727188,32.06959372083333,80.0,85.0
16,32.113627799999996,34.526979429166666,78.0,92.0
17,34.840899799999995,35.687490483333335,76.0,92.0
18,35.8636268,36.12072900416666,78.0,83.0
19,36.204535799999995,36.713058391666664,83.0,85.0
20,36.8863538,37.4701604625,83.0,86.0
21,37.5681718,37.82953536666667,78.0,83.0
22,37.9090808,38.13351255833333,79.0,83.0
23,38.2499898,38.53266017916666,78.0,84.0
24,38.5908988,38.8764100875,76.0,84.0
25,38.9318078,39.96873934166666,74.0,89.0
26,40.2954438,40.5042505625,76.0,84.0
27,40.6363528,40.85652319583333,76.0,85.0
28,40.9772618,41.205954920833335,76.0,85.0
29,41.3181708,41.59373890833333,78.0,84.0
30,41.6590798,41.90339791666666,69.0,85.0
31,41.9999888,42.28692054166667,71.0,83.0
32,42.3408978,42.60226136666667,76.0,90.0
33,42.6818068,42.977261266666666,73.0,79.0
34,43.0227158,45.490044687499996,71.0,81.0
35,45.7499878,46.63919210833333,78.0,85.0
36,46.772714799999996,46.98862383333333,78.0,84.0
37,47.1136238,47.690328191666666,78.0,85.0
38,47.7954418,48.10936217083333,78.0,85.0
39,48.136350799999995,48.41475981666667,71.0,87.0
40,48.4772598,49.0184528375,74.0,89.0
41,49.1590778,49.45595272083333,76.0,89.0
42,49.499986799999995,49.795441266666664,74.0,99.0
43,49.8408958,50.889190975,71.0,89.0
44,51.2045318,51.45027037083333,83.0,87.0
45,51.545440799999994,51.8863498,83.0,85.0
46,51.8863498,52.2272588,83.0,85.0
47,52.2272588,52.46021328333333,85.0,87.0
48,52.5681678,52.7769745625,83.0,87.0
49,52.9090768,53.1477131,78.0,87.0
50,53.2499858,53.50566755,81.0,85.0
51,53.5908948,53.88776972083333,80.0,85.0
52,53.9318038,56.34515542916667,78.0,92.0
53,56.6590758,57.50566648333333,76.0,92.0
54,57.6818028,57.938905004166664,78.0,83.0
55,58.022711799999996,58.531234391666665,83.0,85.0
56,58.704529799999996,59.2883364625,83.0,86.0
57,59.386347799999996,59.64771136666666,78.0,83.0
58,59.7272568,59.95168855833333,79.0,83.0
59,60.068165799999996,60.35083617916666,78.0,84.0
60,60.4090748,60.69555983749999,76.0,84.0
61,60.751274018749996,61.79412920624999,74.0,89.0
62,62.122700018749995,62.332699625,76.0,84.0
63,62.46555651874999,62.68698467499999,76.0,85.0
64,62.808413018749995,63.03841258749999,76.0,85.0
65,63.15126951874999,63.428411856249994,78.0,84.0
66,63.494126018749995,63.73983984374999,69.0,85.0
67,63.83698251874999,64.12555340624999,71.0,83.0
68,64.17983901874999,64.44269566874999,76.0,90.0
69,64.52269551875,64.81983781874999,73.0,79.0
70,64.86555201875,67.34697593749999,71.0,81.0
71,89.43007740416667,90.3192817125,78.0,85.0
72,90.45280440416667,90.6687134375,78.0,84.0
73,90.79371340416667,91.37041779583333,78.0,85.0
74,91.47553140416666,91.789451775,78.0,85.0
75,91.81644040416666,92.09484942083333,71.0,87.0
76,92.15734940416667,92.69854244166666,74.0,89.0
77,92.83916740416666,93.136042325,76.0,89.0
78,93.18007640416667,93.47553087083332,74.0,99.0
79,93.52098540416667,94.56928057916666,71.0,89.0
80,94.88462140416667,95.130359975,83.0,87.0
81,95.22553040416666,95.76672344166667,83.0,85.0
82,95.90734840416667,96.1403028875,85.0,87.0
83,96.24825740416667,96.45706416666667,83.0,87.0
84,96.58916640416666,96.82780270416666,78.0,87.0
85,96.93007540416667,97.18575715416667,81.0,85.0
86,97.27098440416667,97.567859325,80.0,85.0
87,97.61189340416666,100.02524503333333,78.0,92.0
88,100.33916540416666,101.1857560875,76.0,92.0
89,101.36189240416667,101.61899460833334,78.0,83.0
90,101.70280140416666,102.21132399583334,83.0,85.0
91,102.38461940416667,102.96842606666667,83.0,86.0
92,103.06643740416666,103.32780097083332,78.0,83.0
93,103.40734640416666,103.6317781625,79.0,83.0
94,103.74825540416666,104.03092578333333,78.0,84.0
95,104.08916440416667,104.37467569166665,76.0,84.0
96,104.43007340416666,105.46700494583334,74.0,89.0
97,105.79370940416666,106.00251616666667,76.0,84.0
98,106.13461840416667,106.3547888,76.0,85.0
99,106.47552740416666,106.704220525,76.0,85.0
100,106.81643640416667,107.0920045125,78.0,84.0
101,107.15734540416666,107.40166352083332,69.0,85.0
102,107.49825440416666,107.78518614583334,71.0,83.0
103,107.83916340416667,108.10052697083333,76.0,90.0
104,108.18007240416667,108.47552687083333,73.0,79.0
105,108.52098140416666,110.98831029166666,71.0,81.0
106,111.24825340416666,112.1374577125,78.0,85.0
107,112.27098040416666,112.4868894375,78.0,84.0
108,112.61188940416666,113.18859379583333,78.0,85.0
109,113.29370740416667,113.607627775,78.0,85.0
110,113.63461640416666,113.91302542083332,71.0,87.0
111,113.97552540416666,114.51671844166665,74.0,89.0
112,114.65734340416665,114.954218325,76.0,89.0
113,114.99825240416666,115.29370687083333,74.0,99.0
114,115.33916140416666,116.38745657916667,71.0,89.0
115,116.70279740416666,116.948535975,83.0,87.0
116,117.04370640416667,117.38461540416665,83.0,85.0
117,117.38461540416665,117.72552440416666,83.0,85.0
118,117.72552440416666,117.9584788875,85.0,87.0
119,118.06643340416666,118.27524016666666,83.0,87.0
120,118.40734240416666,118.64597870416667,78.0,87.0
121,118.74825140416667,119.00393315416666,81.0,85.0
122,119.08916040416666,119.386035325,80.0,85.0
123,119.43006940416666,121.84342103333333,78.0,92.0
124,122.15734140416666,123.0039320875,76.0,92.0
125,123.18006840416666,123.43717060833333,78.0,83.0
126,123.52097740416667,124.02949999583333,83.0,85.0
127,124.20279540416666,124.78660206666666,83.0,86.0
128,124.88461340416666,125.14597697083333,78.0,83.0
129,125.22552240416667,125.44995416249999,79.0,83.0
130,125.56643140416666,125.84910178333334,78.0,84.0
131,125.90734040416666,126.19285169166666,76.0,84.0
132,126.24824940416667,127.28518094583333,74.0,89.0
133,127.61188540416666,127.82069216666666,76.0,84.0
134,127.95279440416667,128.1729648,76.0,85.0
135,128.29370340416665,128.522396525,76.0,85.0
136,128.63461240416666,128.9101805125,78.0,84.0
137,128.97552140416667,129.21983952083332,69.0,85.0
138,129.31643040416665,129.60336214583333,71.0,83.0
139,129.65733940416666,129.91870297083332,76.0,90.0
140,129.99824840416665,130.29370287083333,73.0,79.0
141,130.33915740416666,132.80648629166666,71.0,81.0
142,154.88460540416668,155.7738097125,78.0,85.0
143,155.90733240416665,156.12324143749998,78.0,84.0
144,156.24824140416666,156.82494579583334,78.0,85.0
145,156.93005940416666,157.243979775,78.0,85.0
146,157.27096840416667,157.5493774208333,71.0,87.0
147,157.61187740416665,158.15307044166667,74.0,89.0
148,158.29369540416667,158.590570325,76.0,89.0
149,158.63460440416668,158.9300588708333,74.0,99.0
150,158.97551340416666,160.02380857916665,71.0,89.0
151,160.33914940416668,160.58488797500002,83.0,87.0
152,160.68005840416666,161.22125144166665,83.0,85.0
153,161.36187640416665,161.5948308875,85.0,87.0
154,161.70278540416666,161.91159216666665,83.0,87.0
155,162.04369440416667,162.28233070416667,78.0,87.0
156,162.38460340416665,162.64028515416666,81.0,85.0
157,162.72551240416666,163.022387325,80.0,85.0
158,163.06642140416665,165.47977303333334,78.0,92.0
159,165.79369340416667,166.6402840875,76.0,92.0
160,166.81642040416665,167.07352260833332,78.0,83.0
161,167.15732940416666,167.66585199583332,83.0,85.0
162,167.83914740416668,168.42295406666665,83.0,86.0
163,168.52096540416665,168.78232897083333,78.0,83.0
164,168.86187440416666,169.0863061625,79.0,83.0
165,169.20278340416667,169.48545378333333,78.0,84.0
166,169.54369240416668,169.82920369166666,76.0,84.0
167,169.88460140416666,170.92405658125003,74.0,89.0
168,171.25262739375,171.46262700000003,76.0,84.0
169,171.59548389375,171.81691205,76.0,85.0
170,171.93834039375002,172.16833996250003,76.0,85.0
171,172.28119689375,172.55833923125002,78.0,84.0
172,172.62405339375002,172.86976721875,69.0,85.0
173,172.96690989375003,173.25548078125001,71.0,83.0
174,173.30976639375,173.57262304375,76.0,90.0
175,173.65262289375002,173.94976519375,73.0,79.0
176,173.99547939375,176.4769033125,71.0,81.0
177,176.73833139375,177.63261543125,78.0,85.0
178,177.76690089375,177.98404334375002,78.0,84.0
179,178.10975739375002,178.68975630625002,78.0,85.0
180,178.79547039375,179.11118408750002,78.0,85.0
181,179.13832689375002,179.41832636875,71.0,87.0
182,179.48118339375003,180.02546808750003,74.0,89.0
183,180.16689639375002,180.46546726250003,76.0,89.0
184,180.50975289375,180.80689519375002,74.0,99.0
185,180.85260939375001,181.90689313125,71.0,89.0
186,182.22403539375003,182.4711777875,83.0,87.0
187,182.56689189375,182.90974839375002,83.0,85.0
188,182.90974839375002,183.25146073750003,83.0,85.0
189,183.25146073750003,183.48441522083334,85.0,87.0
190,183.5923697375,183.80117650000003,83.0,87.0
191,183.93327873750002,184.1719150375,78.0,87.0
192,184.2741877375,184.5298694875,81.0,85.0
193,184.6150967375,184.91197165833336,80.0,85.0
194,184.95600573750002,187.3693573666667,78.0,92.0
195,187.68327773750002,188.52986842083334,76.0,92.0
196,188.70600473750002,188.96310694166667,78.0,83.0
197,189.0469137375,189.55543632916667,83.0,85.0
198,189.72873173750003,190.31253840000002,83.0,86.0
199,190.41054973750002,190.67191330416668,78.0,83.0
200,190.7514587375,190.97589049583334,79.0,83.0
201,191.0923677375,191.37503811666667,78.0,84.0
202,191.43327673750002,191.718788025,76.0,84.0
203,191.7741857375,192.8111172791667,74.0,89.0
204,193.13782173750002,193.3466285,76.0,84.0
205,193.4787307375,193.69890113333335,76.0,85.0
206,193.8196397375,194.04833285833334,76.0,85.0
207,194.16054873750002,194.43611684583334,78.0,84.0
208,194.5014577375,194.74577585416668,69.0,85.0
209,194.84236673750002,195.1292984791667,71.0,83.0
210,195.18327573750003,195.44463930416669,76.0,90.0
211,195.5241847375,195.8196392041667,73.0,79.0
212,195.86509373750002,198.33242262500002,71.0,81.0
213,198.59236573750002,199.48157004583334,78.0,85.0
214,199.61509273750002,199.83100177083335,78.0,84.0
215,199.9560017375,200.53270612916668,78.0,85.0
216,200.63781973750002,200.95174010833335,78.0,85.0
217,200.9787287375,201.25713775416668,71.0,87.0
218,201.31963773750002,201.860830775,74.0,89.0
219,202.0014557375,202.29833065833336,76.0,89.0
220,202.34236473750002,202.63781920416668,74.0,99.0
221,202.6832737375,203.73156891250002,71.0,89.0
222,204.04690973750002,204.29264830833336,83.0,87.0
223,204.38781873750003,204.92901177500002,83.0,85.0
224,205.06963673750002,205.30259122083334,85.0,87.0
225,205.4105457375,205.61935250000002,83.0,87.0
226,205.7514547375,205.9900910375,78.0,87.0
227,206.09236373750002,206.3480454875,81.0,85.0
228,206.4332727375,206.73014765833335,80.0,85.0
229,206.77418173750002,209.18753336666668,78.0,92.0
230,209.50145373750001,210.34804442083333,76.0,92.0
231,210.52418073750002,210.7812829416667,78.0,83.0
232,210.8650897375,211.3736123291667,83.0,85.0
233,211.54690773750002,212.13071440000002,83.0,86.0
234,212.2287257375,212.49008930416667,78.0,83.0
235,212.56963473750002,212.79406649583333,79.0,83.0
236,212.9105437375,213.19321411666667,78.0,84.0
237,213.25145273750002,213.536964025,76.0,84.0
238,213.59236173750003,214.6292932791667,74.0,89.0
239,214.9559977375,215.1648045,76.0,84.0
240,215.29690673750002,215.51707713333334,76.0,85.0
241,215.6378157375,215.86650885833336,76.0,85.0
242,215.97872473750002,216.25429284583333,78.0,84.0
243,216.3196337375,216.56395185416667,69.0,85.0
244,216.6605427375,216.9474744791667,71.0,83.0
245,217.00145173750002,217.26281530416668,76.0,90.0
246,217.3423607375,217.63781520416669,73.0,79.0
247,217.6832697375,220.24325131458335,71.0,81.0
248,220.53394692708335,220.77336031458333,76.0,84.0
249,220.92684842708334,221.18730741458333,76.0,85.0
250,221.33385910208335,221.61144523958333,76.0,85.0
251,221.74765210208335,222.08213477708333,78.0,84.0
252,222.16144510208335,222.45799675208335,69.0,85.0
253,222.57523810208335,222.92351387708334,71.0,83.0
254,222.98903110208335,223.30627240208335,76.0,90.0
255,223.40282410208334,223.76144470208334,73.0,79.0
256,223.81661710208334,226.42401265208335,71.0,81.0
