,start,end,pitch,velocity
0,2.1136358,2.8508515125,62.0,79.0
1,2.4545448,2.8735787791666665,54.0,74.0
2,2.7954537999999998,3.305396845833333,59.0,84.0
3,2.9659082999999997,3.4559649875,54.0,63.0
4,3.4772718,4.249998866666666,59.0,78.0
5,3.4772718,4.309657941666667,62.0,74.0
6,4.159089799999999,4.335226116666666,54.0,71.0
7,3.4772718,4.383521558333333,66.0,78.0
8,2.1136358,4.4218738208333335,47.0,83.0
9,4.4999988,4.8110782625,59.0,83.0
10,4.8409078,5.566759879166667,61.0,77.0
11,5.1818168,5.636362133333333,49.0,66.0
12,5.5227258,6.090907466666667,57.0,84.0
13,6.2045438,6.372157391666667,57.0,58.0
14,5.8636348,6.5071005374999995,49.0,66.0
15,4.8409078,6.535509620833333,42.0,80.0
16,6.2045438,6.987214045833333,61.0,83.0
17,6.2045438,7.1207367375,66.0,78.0
18,6.8863617999999995,7.181816266666666,57.0,84.0
19,7.568179799999999,7.923293341666667,64.0,84.0
20,7.568179799999999,7.960225149999999,59.0,77.0
21,8.2499978,8.764202208333334,59.0,61.0
22,8.590906799999999,8.805395379166667,64.0,79.0
23,7.909088799999999,9.159088466666667,47.0,73.0
24,8.931815799999999,9.632099704166666,59.0,83.0
25,7.568179799999999,9.748576945833333,40.0,85.0
26,9.613633799999999,9.883520091666666,47.0,76.0
27,8.931815799999999,9.946020075,64.0,83.0
28,8.931815799999999,10.018463237499999,68.0,82.0
29,9.784088299999999,10.062497316666667,59.0,83.0
30,10.2954518,10.781247125,59.0,82.0
31,10.2954518,11.068178866666667,62.0,78.0
32,10.6363608,11.130678849999999,54.0,73.0
33,10.9772698,11.431815133333332,59.0,83.0
34,11.3181788,11.5014173875,62.0,77.0
35,11.6590878,12.082383141666666,59.0,83.0
36,11.9999968,12.296871720833332,54.0,70.0
37,11.6590878,12.308235354166666,66.0,84.0
38,11.6590878,12.380678516666666,62.0,78.0
39,10.2954518,12.386360333333332,47.0,84.0
40,12.3409058,12.661928441666666,59.0,83.0
41,13.0227238,13.732950883333332,64.0,84.0
42,13.7045418,14.167609858333332,59.0,84.0
43,14.0454508,14.244314383333332,64.0,83.0
44,13.3636328,14.565337025,47.0,74.0
45,14.5568143,14.565337025,47.0,70.0
46,14.3863598,14.887780120833332,59.0,80.0
47,14.3863598,15.055393712499999,67.0,83.0
48,13.0227238,15.274143654166666,40.0,85.0
49,15.238632299999999,15.365052720833333,59.0,75.0
50,15.068177799999999,15.384939079166665,64.0,84.0
51,15.749995799999999,16.2485752125,57.0,75.0
52,15.749995799999999,16.2613593,61.0,76.0
53,15.749995799999999,16.340904733333332,42.0,84.0
54,16.0909048,16.362211545833333,49.0,71.0
55,16.4318138,16.556813766666664,57.0,77.0
56,16.4318138,16.842325054166665,61.0,78.0
57,16.7727228,16.92613185,57.0,72.0
58,16.4318138,17.119313616666666,66.0,77.0
59,17.1136318,17.60794985,59.0,77.0
60,17.1136318,17.610790758333334,62.0,82.0
61,17.4545408,17.8977225,54.0,71.0
62,17.7954498,17.940336124999998,59.0,81.0
63,17.1136318,18.090904266666666,47.0,84.0
64,17.7954498,18.390620095833334,62.0,83.0
65,17.7954498,18.393461004166667,66.0,83.0
66,18.1363588,18.485790525,59.0,76.0
67,18.4772678,18.485790525,59.0,78.0
68,18.4772678,19.1633471625,64.0,84.0
69,18.8181768,19.249994866666665,47.0,79.0
70,18.4772678,19.25141532083333,40.0,85.0
71,19.1590858,19.582381141666666,59.0,90.0
72,19.4999948,19.883517425,64.0,88.0
73,19.8409038,20.622153591666667,66.0,84.0
74,20.1818128,20.813914904166666,49.0,82.0
75,19.8409038,20.828119445833334,42.0,77.0
76,20.5227218,20.9659035,57.0,83.0
77,20.8636308,21.0724375625,61.0,85.0
78,21.2045398,21.622153325,62.0,81.0
79,21.2045398,21.642039683333333,59.0,78.0
80,21.5454488,21.9843691375,54.0,75.0
81,21.8863578,22.25993724583333,59.0,83.0
82,22.2272668,22.67755077083333,54.0,72.0
83,22.5681758,23.025562041666667,59.0,83.0
84,22.5681758,23.038346129166666,62.0,83.0
85,22.5681758,23.536925541666665,66.0,83.0
86,21.2045398,23.882095904166665,47.0,83.0
87,22.9090848,23.882095904166665,54.0,65.0
88,23.2499938,23.899141354166666,59.0,78.0
89,23.9318118,24.406243491666665,59.0,79.0
90,23.9318118,24.66476615,62.0,81.0
91,24.2727208,24.771300212499998,54.0,72.0
92,24.6136298,25.041186504166667,59.0,87.0
93,24.954538799999998,25.41476595,54.0,70.0
94,25.295447799999998,26.034083966666664,59.0,81.0
95,25.295447799999998,26.061072595833334,62.0,77.0
96,23.9318118,26.336640704166665,47.0,83.0
97,25.977265799999998,26.389197508333332,54.0,62.0
98,25.295447799999998,26.57385655,66.0,72.0
99,26.318174799999998,26.575277004166665,59.0,67.0
100,26.659083799999998,27.10084504583333,59.0,79.0
101,26.659083799999998,27.44601540833333,62.0,77.0
102,26.999992799999998,27.457379041666666,54.0,63.0
103,27.340901799999997,27.754253962499998,59.0,85.0
104,27.681810799999997,28.071015241666665,54.0,65.0
105,28.022719799999997,28.326696991666665,66.0,83.0
106,28.363628799999997,28.663344629166666,54.0,70.0
107,28.022719799999997,28.688912804166666,59.0,78.0
108,26.659083799999998,28.883515024999998,47.0,84.0
109,28.704537799999997,29.085219516666665,62.0,79.0
110,29.0454468,29.20169675833333,61.0,88.0
111,29.3863558,29.818173866666665,55.0,84.0
112,29.3863558,30.079537433333332,59.0,84.0
113,29.7272648,30.275560108333334,50.0,76.0
114,29.3863558,30.323855549999998,43.0,77.0
115,30.0681738,30.5241395875,55.0,86.0
116,30.4090828,30.664764549999997,59.0,83.0
117,30.7499918,31.062491716666667,59.0,85.0
118,31.0909008,31.514196141666666,47.0,74.0
119,30.7499918,31.5894802125,40.0,85.0
120,31.4318098,31.9900482875,52.0,85.0
121,32.795445799999996,33.252832041666665,54.0,85.0
122,33.1363548,33.345161562499996,57.0,75.0
123,32.4545368,33.61220694583333,49.0,71.0
124,32.113627799999996,33.7159001,42.0,87.0
125,33.477263799999996,33.97442275833333,54.0,80.0
126,33.8181728,34.15766134583333,49.0,67.0
127,33.477263799999996,34.1718658875,57.0,83.0
128,33.477263799999996,34.2059567875,61.0,76.0
129,34.159081799999996,34.2741385875,54.0,85.0
130,34.840899799999995,35.06249065,59.0,79.0
131,34.840899799999995,35.2712974125,64.0,83.0
132,35.1818088,35.585217783333334,59.0,81.0
133,35.522717799999995,35.82243362916667,64.0,77.0
134,35.8636268,36.072433562499995,59.0,66.0
135,36.204535799999995,36.62925159583333,59.0,84.0
136,36.204535799999995,36.79544473333333,67.0,82.0
137,36.5454448,36.938910604166665,64.0,81.0
138,36.8863538,37.11930828333333,59.0,92.0
139,34.840899799999995,37.21589916666667,52.0,90.0
140,37.5681718,38.2968647875,61.0,85.0
141,37.5681718,38.57101244166667,42.0,77.0
142,37.9090808,38.578114712499996,49.0,54.0
143,38.2499898,38.660501054166666,57.0,89.0
144,38.5908988,38.7954442,61.0,87.0
145,38.9318078,38.9701600625,48.0,75.0
146,38.9318078,39.36930768333333,62.0,77.0
147,38.9318078,39.50993264583333,59.0,72.0
148,39.2727168,39.696012141666664,54.0,81.0
149,38.9318078,39.72584167916666,47.0,76.0
150,39.6136258,39.768455304166665,59.0,89.0
151,40.2954438,40.75283004166666,57.0,75.0
152,40.2954438,41.04828450833333,61.0,70.0
153,40.9772618,41.460216216666666,57.0,79.0
154,41.3181708,41.47442075833333,61.0,62.0
155,40.6363528,41.83947747916667,49.0,65.0
156,40.2954438,42.078113779166664,42.0,84.0
157,41.6590798,42.11362513333333,57.0,75.0
158,41.9999888,42.19885238333333,49.0,70.0
159,41.6590798,42.346579616666666,66.0,83.0
160,42.3408978,42.7158977,61.0,83.0
161,42.6818068,42.855102208333335,57.0,83.0
162,43.0227158,43.50709067083333,59.0,76.0
163,43.3636248,43.78407923333333,54.0,70.0
164,43.0227158,43.789761049999996,62.0,79.0
165,43.7045338,44.228681387499996,59.0,85.0
166,44.0454428,44.4332267875,54.0,73.0
167,44.3863518,44.6889085375,66.0,83.0
168,44.3863518,44.981522095833334,59.0,86.0
169,45.0681698,45.409078799999996,61.0,79.0
170,44.727260799999996,45.70879462916667,54.0,75.0
171,45.409078799999996,45.72726053333333,62.0,77.0
172,43.0227158,45.7499878,47.0,83.0
173,45.7499878,46.23010130833333,59.0,81.0
174,45.7499878,46.518453504166665,62.0,83.0
175,46.090896799999996,46.54544213333333,54.0,69.0
176,46.4318058,46.80822615416667,59.0,86.0
177,46.772714799999996,47.27697602916666,54.0,70.0
178,47.1136238,47.568169133333335,59.0,84.0
179,47.1136238,47.7741349875,66.0,83.0
180,47.7954418,48.20311214583333,62.0,74.0
181,47.454532799999996,48.20737350833333,54.0,68.0
182,45.7499878,48.230100775,47.0,83.0
183,48.136350799999995,48.950271037499995,59.0,75.0
184,48.818168799999995,49.2613505,54.0,62.0
185,48.4772598,49.36504365416666,62.0,81.0
186,49.1590778,49.4616345375,59.0,76.0
187,49.499986799999995,49.934645775,54.0,69.0
188,49.8408958,50.305384312499996,66.0,83.0
189,50.181804799999995,50.58379332916667,54.0,69.0
190,49.8408958,50.616463775,59.0,84.0
191,48.4772598,50.856520529166666,47.0,85.0
192,50.5227138,50.92896369166667,64.0,84.0
193,50.863622799999995,51.078111379166664,62.0,87.0
194,51.2045318,51.91902024583333,62.0,85.0
195,51.8863498,52.259929245833334,55.0,89.0
196,51.2045318,52.372145124999996,43.0,83.0
197,51.545440799999994,52.392031483333334,50.0,79.0
198,52.2272588,52.58237234166666,62.0,84.0
199,52.5681678,53.085213116666665,64.0,83.0
200,52.5681678,53.09941765833333,59.0,80.0
201,53.2499858,53.3650425875,59.0,82.0
202,52.9090768,53.38350849166667,47.0,75.0
203,52.5681678,53.409076666666664,40.0,88.0
204,53.420440299999996,53.542599358333334,59.0,82.0
205,53.2499858,53.57953116666666,64.0,85.0
206,53.2499858,53.633508424999995,68.0,84.0
207,53.9318038,54.39345140416666,57.0,76.0
208,54.2727128,54.7158945,49.0,70.0
209,53.9318038,54.7158945,61.0,78.0
210,54.6136218,54.98578079166666,57.0,85.0
211,54.9545308,55.37072387083333,49.0,65.0
212,55.2954398,55.73578059166667,66.0,80.0
213,55.2954398,55.75566695,57.0,85.0
214,53.9318038,55.957371441666666,42.0,85.0
215,55.6363488,55.9900418875,49.0,79.0
216,55.9772578,56.1434509375,57.0,85.0
217,55.9772578,56.37640542083333,61.0,89.0
218,56.3181668,56.480098575,57.0,84.0
219,56.6590758,57.09941659166667,59.0,80.0
220,56.6590758,57.32384835,64.0,83.0
221,57.340893799999996,57.758507325,59.0,92.0
222,57.6818028,57.81674594583333,64.0,92.0
223,56.9999848,58.0781095125,47.0,76.0
224,56.6590758,58.13208677083333,40.0,87.0
225,58.022711799999996,58.47583667916666,59.0,85.0
226,58.022711799999996,58.52839348333333,67.0,84.0
227,58.704529799999996,58.83521158333333,59.0,83.0
228,58.3636208,59.00140472083333,47.0,63.0
229,58.704529799999996,59.20168875833333,64.0,89.0
230,59.0454388,59.4076546125,59.0,84.0
231,59.386347799999996,60.13918850833333,42.0,94.0
232,59.7272568,60.18748395,49.0,73.0
233,60.068165799999996,60.27839301666666,57.0,84.0
234,60.068165799999996,60.464472512499995,61.0,86.0
235,60.4090748,60.595560025,57.0,83.0
236,60.068165799999996,60.74127403749999,66.0,77.0
237,60.751274018749996,61.27127304374999,59.0,80.0
238,60.751274018749996,61.27127304374999,62.0,80.0
239,61.09413051874999,61.53841539999999,54.0,71.0
240,61.436987018749996,61.55412965624999,59.0,77.0
241,60.751274018749996,61.68555798124999,47.0,84.0
242,61.436987018749996,62.0155573625,62.0,79.0
243,61.436987018749996,62.056985856249995,66.0,76.0
244,61.77984351874999,62.152699962499995,59.0,76.0
245,62.808413018749995,63.286983549999995,54.0,85.0
246,63.15126951874999,63.35984055624999,57.0,76.0
247,62.46555651874999,63.63126861874999,49.0,66.0
248,62.122700018749995,63.72126845,42.0,88.0
249,63.494126018749995,63.91412523125,61.0,80.0
250,63.83698251874999,64.02555359374999,49.0,77.0
251,63.494126018749995,64.04269641875,54.0,80.0
252,64.17983901874999,64.54126691249999,57.0,87.0
253,64.17983901874999,64.58983825,61.0,84.0
254,64.52269551875,64.63412388124999,54.0,84.0
255,64.86555201875,65.3184083125,59.0,79.0
256,65.20840851874999,65.6069792,54.0,70.0
257,64.86555201875,65.63126486875,62.0,83.0
258,65.55126501875,65.90269293124999,59.0,85.0
259,65.89412151875,66.34269210625,54.0,74.0
260,66.23697801875,66.5698345375,59.0,84.0
261,66.23697801875,66.60840589374999,62.0,84.0
262,66.23697801875,66.6612629375,66.0,84.0
263,66.75126276875,66.9098339,59.0,85.0
264,66.57983451874999,67.09697640625,54.0,80.0
265,66.92269101875,67.48840424375,59.0,77.0
266,66.92269101875,67.56554695624999,62.0,92.0
267,64.86555201875,67.5812612125,47.0,84.0
268,67.26554751875,67.5812612125,54.0,84.0
269,67.60840401875,68.0069747,62.0,79.0
270,67.60840401875,68.0612603125,55.0,79.0
271,67.95126051874999,68.40025346666667,50.0,77.0
272,68.29371940416667,68.62184431666667,55.0,89.0
273,68.29371940416667,68.66729885,59.0,89.0
274,67.60840401875,68.897412425,43.0,84.0
275,68.63462840416666,68.9101965125,50.0,82.0
276,68.80508290416667,69.02951466249999,55.0,87.0
277,69.31644640416667,69.596275875,55.0,87.0
278,69.48690090416666,69.6729804,59.0,89.0
279,69.14599190416666,69.7198553875,50.0,83.0
280,68.97553740416666,69.93434396666666,43.0,85.0
281,69.65735540416667,69.97411668333334,62.0,89.0
282,69.82780990416667,69.9797985,50.0,83.0
283,69.99826440416666,70.226957525,55.0,81.0
284,70.16871890416667,70.3675824875,59.0,84.0
285,70.33917340416666,70.67866194999999,61.0,84.0
286,71.02099140416667,71.42582084166666,57.0,79.0
287,71.02099140416667,71.44854810833333,66.0,86.0
288,70.33917340416666,71.5181503625,42.0,83.0
289,70.68008240416667,71.57922989166667,49.0,68.0
290,71.36190040416666,72.15451382916666,61.0,83.0
291,72.21417290416666,72.56076372083334,57.0,82.0
292,72.38462740416666,72.59059325833333,61.0,94.0
293,72.04371840416667,72.68434323333334,49.0,75.0
294,71.70280940416666,72.69428641249999,42.0,85.0
295,72.55508190416667,72.77241139166667,66.0,97.0
296,72.72553640416666,72.88462727083333,61.0,87.0
297,72.89599090416667,72.99542269583333,57.0,79.0
298,73.06644540416667,73.53235437083333,64.0,75.0
299,73.06644540416667,73.54371800416666,59.0,83.0
300,73.74826340416666,74.08775195,59.0,87.0
301,73.74826340416666,74.09769512916667,67.0,84.0
302,73.06644540416667,74.24826327083333,40.0,84.0
303,73.40735440416667,74.26388826666667,47.0,74.0
304,74.08917240416666,74.317865525,64.0,85.0
305,74.25962690416667,74.57212682083333,59.0,84.0
306,74.77099040416667,75.0891721375,59.0,89.0
307,74.94144490416666,75.10337667916666,64.0,90.0
308,74.60053590416666,75.28093344999999,47.0,77.0
309,75.11189940416666,75.29939935416667,67.0,92.0
310,74.43008140416666,75.32922889166666,40.0,87.0
311,75.28235390416667,75.44428567916667,64.0,84.0
312,75.45280840416666,75.5579220125,59.0,88.0
313,75.79371740416667,76.209910475,61.0,77.0
314,75.79371740416667,76.26388773333333,57.0,76.0
315,76.47553540416666,76.76530805416667,57.0,86.0
316,76.47553540416666,76.82922849166667,66.0,86.0
317,75.79371740416667,76.84201257916666,42.0,85.0
318,76.13462640416667,76.8448534875,49.0,65.0
319,76.81644440416666,76.99968299166666,61.0,85.0
320,76.98689890416667,77.12894432083333,57.0,85.0
321,77.32780790416666,77.54655784583333,59.0,83.0
322,77.49826240416667,77.68718280833333,62.0,83.0
323,77.66871690416667,77.83633049583332,59.0,87.0
324,77.83917140416666,78.153091775,54.0,84.0
325,77.15735340416666,78.20280767083332,47.0,86.0
326,78.00962590416667,78.31360309583333,59.0,89.0
327,78.18008040416666,78.42723942916666,66.0,83.0
328,78.52098940416667,78.71985298749999,59.0,83.0
329,78.52098940416667,78.91445520833334,64.0,83.0
330,78.86189840416667,79.00678472916667,59.0,86.0
331,78.52098940416667,79.2397392125,52.0,85.0
332,79.20280740416666,79.37468235833333,59.0,86.0
333,79.20280740416666,79.41161416666667,67.0,83.0
334,79.54371640416666,79.71559135833333,64.0,89.0
335,79.71417090416666,79.95138675,59.0,88.0
336,80.22553440416667,80.50252296666666,59.0,89.0
337,80.39598890416667,80.55223886249999,64.0,89.0
338,80.05507990416666,80.65309110833333,47.0,77.0
339,79.88462540416667,80.71701154583333,40.0,86.0
340,80.56644340416666,80.75820471666667,67.0,90.0
341,80.73689790416667,80.8888865,64.0,85.0
342,80.90735240416666,81.07496599583334,59.0,84.0
343,81.24826140416667,81.69428401249999,61.0,85.0
344,81.24826140416667,81.72269309583334,57.0,83.0
345,81.24826140416667,82.00678392916666,42.0,84.0
346,81.58917040416667,82.03235210416666,49.0,74.0
347,81.93007940416666,82.24968159166667,57.0,84.0
348,81.93007940416666,82.32638611666667,66.0,84.0
349,82.27098840416666,82.41303382083333,61.0,84.0
350,82.44144290416666,82.50962470416667,57.0,83.0
351,82.61189740416667,82.78377235833332,59.0,85.0
352,82.61189740416667,82.82070416666666,62.0,83.0
353,82.95280640416667,83.130363175,59.0,89.0
354,82.78235190416666,83.2028063375,54.0,86.0
355,82.61189740416667,83.4584880875,47.0,83.0
356,83.29371540416666,83.46985172083333,54.0,86.0
357,83.12326090416667,83.52809034166667,66.0,97.0
358,83.46416990416667,83.69854484166666,59.0,87.0
359,83.63462440416666,83.80081754166666,62.0,80.0
360,83.80507890416666,83.99399930833333,59.0,85.0
361,83.97553340416667,83.99399930833333,59.0,82.0
362,83.97553340416667,84.49541962916666,64.0,84.0
363,83.97553340416667,84.74826047083333,40.0,86.0
364,84.31644240416666,84.7539422875,47.0,75.0
365,84.65735140416666,84.86615816666666,64.0,92.0
366,84.48689690416666,84.89456725,59.0,83.0
367,84.82780590416667,85.04229448333334,67.0,82.0
368,84.99826040416667,85.36189667083333,64.0,84.0
369,85.68007840416666,86.130362375,49.0,71.0
370,85.33916940416667,86.14172600833334,42.0,87.0
371,86.02098740416666,86.4116123,61.0,84.0
372,86.36189640416666,86.53093045,57.0,84.0
373,86.70280540416667,87.19286209166667,59.0,81.0
374,86.70280540416667,87.37183931666667,62.0,79.0
375,87.04371440416666,87.49825973749999,54.0,67.0
376,87.38462340416666,87.72411195,66.0,88.0
377,86.70280540416667,87.98547551666667,47.0,83.0
378,87.72553240416667,88.00678232916667,54.0,75.0
379,88.06644140416667,88.482634475,59.0,85.0
380,88.06644140416667,88.75962303749999,62.0,85.0
381,88.74825940416666,89.38888423333333,59.0,81.0
382,88.40735040416666,89.41445240833333,54.0,71.0
383,88.06644140416667,89.41871377083334,47.0,84.0
384,89.43007740416667,89.90450909583333,59.0,79.0
385,89.43007740416667,90.16303175416667,62.0,81.0
386,89.77098640416666,90.26956581666667,54.0,72.0
387,90.11189540416666,90.53945210833334,59.0,87.0
388,90.45280440416667,90.91303155416666,54.0,70.0
389,90.79371340416667,91.53234957083333,59.0,81.0
390,90.79371340416667,91.5593382,62.0,77.0
391,89.43007740416667,91.83490630833333,47.0,83.0
392,91.47553140416666,91.8874631125,54.0,62.0
393,90.79371340416667,92.07212215416666,66.0,72.0
394,91.81644040416666,92.07354260833333,59.0,67.0
395,92.15734940416667,92.59911065,59.0,79.0
396,92.15734940416667,92.9442810125,62.0,77.0
397,92.49825840416666,92.95564464583333,54.0,63.0
398,92.83916740416666,93.25251956666666,59.0,85.0
399,93.18007640416667,93.56928084583333,54.0,65.0
400,93.52098540416667,93.82496259583333,66.0,83.0
401,93.86189440416666,94.16161023333333,54.0,70.0
402,93.52098540416667,94.18717840833332,59.0,78.0
403,92.15734940416667,94.38178062916666,47.0,84.0
404,94.20280340416666,94.58348512083333,62.0,79.0
405,94.54371240416666,94.6999623625,61.0,88.0
406,94.88462140416667,95.31643947083333,55.0,84.0
407,94.88462140416667,95.57780303749999,59.0,84.0
408,95.22553040416666,95.7738257125,50.0,76.0
409,94.88462140416667,95.82212115416667,43.0,77.0
410,95.56643940416666,96.02240519166666,55.0,86.0
411,95.90734840416667,96.16303015416666,59.0,83.0
412,96.24825740416667,96.56075732083333,59.0,85.0
413,96.58916640416666,97.01246174583333,47.0,74.0
414,96.24825740416667,97.08774581666667,40.0,85.0
415,96.93007540416667,97.48831389166666,52.0,85.0
416,98.29371140416666,98.75109764583333,54.0,85.0
417,98.63462040416667,98.84342716666666,57.0,75.0
418,97.95280240416666,99.11047255,49.0,71.0
419,97.61189340416666,99.21416570416666,42.0,87.0
420,98.97552940416666,99.4726883625,54.0,80.0
421,99.31643840416666,99.65592695,49.0,67.0
422,98.97552940416666,99.67013149166667,57.0,83.0
423,98.97552940416666,99.70422239166666,61.0,76.0
424,99.65734740416667,99.77240419166667,54.0,85.0
425,100.33916540416666,100.56075625416666,59.0,79.0
426,100.33916540416666,100.76956301666667,64.0,83.0
427,100.68007440416666,101.0834833875,59.0,81.0
428,101.02098340416666,101.32069923333333,64.0,77.0
429,101.36189240416667,101.57069916666666,59.0,66.0
430,101.70280140416666,102.1275172,59.0,84.0
431,101.70280140416666,102.29371033749999,67.0,82.0
432,102.04371040416666,102.43717620833333,64.0,81.0
433,102.38461940416667,102.61757388749999,59.0,92.0
434,100.33916540416666,102.71416477083332,52.0,90.0
435,103.06643740416666,103.79513039166666,61.0,85.0
436,103.06643740416666,104.06927804583333,42.0,77.0
437,103.40734640416666,104.07638031666667,49.0,54.0
438,103.74825540416666,104.15876665833332,57.0,89.0
439,104.08916440416667,104.29370980416667,61.0,87.0
440,104.43007340416666,104.46842566666666,48.0,75.0
441,104.43007340416666,104.8675732875,62.0,77.0
442,104.43007340416666,105.00819824999999,59.0,72.0
443,104.77098240416666,105.19427774583333,54.0,81.0
444,104.43007340416666,105.22410728333332,47.0,76.0
445,105.11189140416667,105.26672090833333,59.0,89.0
446,105.79370940416666,106.25109564583333,57.0,75.0
447,105.79370940416666,106.5465501125,61.0,70.0
448,106.47552740416666,106.95848182083333,57.0,79.0
449,106.81643640416667,106.9726863625,61.0,62.0
450,106.13461840416667,107.33774308333332,49.0,65.0
451,105.79370940416666,107.57637938333333,42.0,84.0
452,107.15734540416666,107.6118907375,57.0,75.0
453,107.49825440416666,107.6971179875,49.0,70.0
454,107.15734540416666,107.84484522083332,66.0,83.0
455,107.83916340416667,108.21416330416666,61.0,83.0
456,108.18007240416667,108.3533678125,57.0,83.0
457,108.52098140416666,109.005356275,59.0,76.0
458,108.86189040416667,109.2823448375,54.0,70.0
459,108.52098140416666,109.28802665416666,62.0,79.0
460,109.20279940416665,109.72694699166667,59.0,85.0
461,109.54370840416667,109.93149239166667,54.0,73.0
462,109.88461740416666,110.18717414166666,66.0,83.0
463,109.88461740416666,110.4797877,59.0,86.0
464,110.56643540416667,110.90734440416666,61.0,79.0
465,110.22552640416666,111.20706023333332,54.0,75.0
466,110.90734440416666,111.2255261375,62.0,77.0
467,108.52098140416666,111.24825340416666,47.0,83.0
468,111.24825340416666,111.7283669125,59.0,81.0
469,111.24825340416666,112.01671910833332,62.0,83.0
470,111.58916240416667,112.0437077375,54.0,69.0
471,111.93007140416665,112.30649175833332,59.0,86.0
472,112.27098040416666,112.77524163333334,54.0,70.0
473,112.61188940416666,113.0664347375,59.0,84.0
474,112.61188940416666,113.27240059166667,66.0,83.0
475,113.29370740416667,113.70137775,62.0,74.0
476,112.95279840416666,113.7056391125,54.0,68.0
477,111.24825340416666,113.72836637916666,47.0,83.0
478,113.63461640416666,114.44853664166666,59.0,75.0
479,114.31643440416667,114.75961610416667,54.0,62.0
480,113.97552540416666,114.86330925833333,62.0,81.0
481,114.65734340416665,114.95990014166667,59.0,76.0
482,114.99825240416666,115.43291137916665,54.0,69.0
483,115.33916140416666,115.80364991666667,66.0,83.0
484,115.68007040416666,116.08205893333333,54.0,69.0
485,115.33916140416666,116.11472937916666,59.0,84.0
486,113.97552540416666,116.35478613333333,47.0,85.0
487,116.02097940416667,116.42722929583333,64.0,84.0
488,116.36188840416666,116.57637698333333,62.0,87.0
489,116.70279740416666,117.41728585,62.0,85.0
490,117.38461540416665,117.75819485,55.0,89.0
491,116.70279740416666,117.87041072916666,43.0,83.0
492,117.04370640416667,117.89029708749999,50.0,79.0
493,117.72552440416666,118.08063794583333,62.0,84.0
494,118.06643340416666,118.58347872083333,64.0,83.0
495,118.06643340416666,118.5976832625,59.0,80.0
496,118.74825140416667,118.86330819166666,59.0,82.0
497,118.40734240416666,118.88177409583332,47.0,75.0
498,118.06643340416666,118.90734227083334,40.0,88.0
499,118.91870590416667,119.0408649625,59.0,82.0
500,118.74825140416667,119.07779677083333,64.0,85.0
501,118.74825140416667,119.13177402916666,68.0,84.0
502,119.43006940416666,119.89171700833333,57.0,76.0
503,119.77097840416667,120.21416010416667,49.0,70.0
504,119.43006940416666,120.21416010416667,61.0,78.0
505,120.11188740416667,120.48404639583333,57.0,85.0
506,120.45279640416666,120.86898947499999,49.0,65.0
507,120.79370540416667,121.23404619583333,66.0,80.0
508,120.79370540416667,121.25393255416665,57.0,85.0
509,119.43006940416666,121.45563704583333,42.0,85.0
510,121.13461440416665,121.48830749166666,49.0,79.0
511,121.47552340416667,121.64171654166665,57.0,85.0
512,121.47552340416667,121.874671025,61.0,89.0
513,121.81643240416666,121.97836417916666,57.0,84.0
514,122.15734140416666,122.59768219583333,59.0,80.0
515,122.15734140416666,122.82211395416667,64.0,83.0
516,122.83915940416667,123.25677292916666,59.0,92.0
517,123.18006840416666,123.31501155,64.0,92.0
518,122.49825040416667,123.57637511666667,47.0,76.0
519,122.15734140416666,123.630352375,40.0,87.0
520,123.52097740416667,123.97410228333334,59.0,85.0
521,123.52097740416667,124.0266590875,67.0,84.0
522,124.20279540416666,124.3334771875,59.0,83.0
523,123.86188640416665,124.499670325,47.0,63.0
524,124.20279540416666,124.6999543625,64.0,89.0
525,124.54370440416666,124.90592021666666,59.0,84.0
526,124.88461340416666,125.6374541125,42.0,94.0
527,125.22552240416667,125.68574955416666,49.0,73.0
528,125.56643140416666,125.77665862083333,57.0,84.0
529,125.56643140416666,125.96273811666666,61.0,86.0
530,125.90734040416666,126.09341989999999,57.0,83.0
531,125.56643140416666,126.238306225,66.0,77.0
532,126.24824940416667,126.76529472083334,59.0,80.0
533,126.24824940416667,126.76529472083334,62.0,80.0
534,126.58915840416665,127.03091964999999,54.0,71.0
535,126.93006740416666,127.04654464583334,59.0,77.0
536,126.24824940416667,127.17722642916667,47.0,84.0
537,126.93006740416666,127.50535134166665,62.0,79.0
538,126.93006740416666,127.54654451249999,66.0,76.0
539,127.27097640416666,127.64171494166666,59.0,76.0
540,128.29370340416665,128.76955555,54.0,85.0
541,128.63461240416666,128.8419987125,57.0,76.0
542,127.95279440416667,129.11188500416665,49.0,66.0
543,127.61188540416666,129.20137361666667,42.0,88.0
544,128.97552140416667,129.39313492916665,61.0,80.0
545,129.31643040416665,129.50393035416667,49.0,77.0
546,128.97552140416667,129.52097580416665,54.0,80.0
547,129.65733940416666,130.01671430833332,57.0,87.0
548,129.65733940416666,130.06500975,61.0,84.0
549,129.99824840416665,130.10904382916667,54.0,84.0
550,130.33915740416666,130.789441375,59.0,79.0
551,130.68006640416667,131.07637311666667,54.0,70.0
552,130.33915740416666,131.1005208375,62.0,83.0
553,131.02097540416668,131.37040712916667,59.0,85.0
554,131.36188440416666,131.80790701249998,54.0,74.0
555,131.70279340416667,132.03375922499998,59.0,84.0
556,131.70279340416667,132.0721114875,62.0,84.0
557,131.70279340416667,132.12466829166667,66.0,84.0
558,132.21415690416666,132.37182731666667,59.0,85.0
559,132.04370240416665,132.5579068125,54.0,80.0
560,132.38461140416666,132.94711125416666,59.0,77.0
561,132.38461140416666,133.02381577916668,62.0,92.0
562,130.33915740416666,133.039440775,47.0,84.0
563,132.72552040416667,133.039440775,54.0,84.0
564,133.06642940416666,133.80364511666664,62.0,79.0
565,133.40733840416667,133.8263723833333,54.0,74.0
566,133.74824740416665,134.25819045,59.0,84.0
567,133.91870190416665,134.40875859166667,54.0,63.0
568,134.43006540416667,135.20279247083334,59.0,78.0
569,134.43006540416667,135.26245154583333,62.0,74.0
570,135.11188340416666,135.28801972083335,54.0,71.0
571,134.43006540416667,135.3363151625,66.0,78.0
572,133.06642940416666,135.37466742499998,47.0,83.0
573,135.45279240416664,135.76387186666665,59.0,83.0
574,135.79370140416665,136.5195534833333,61.0,77.0
575,136.13461040416666,136.5891557375,49.0,66.0
576,136.47551940416668,137.04370107083332,57.0,84.0
577,137.15733740416667,137.32495099583332,57.0,58.0
578,136.81642840416666,137.45989414166667,49.0,66.0
579,135.79370140416665,137.48830322499998,42.0,80.0
580,137.15733740416667,137.94000764999998,61.0,83.0
581,137.15733740416667,138.07353034166667,66.0,78.0
582,137.83915540416666,138.13460987083334,57.0,84.0
583,138.52097340416668,138.87608694583332,64.0,84.0
584,138.52097340416668,138.91301875416667,59.0,77.0
585,139.20279140416665,139.7169958125,59.0,61.0
586,139.54370040416666,139.75818898333333,64.0,79.0
587,138.86188240416666,140.11188207083333,47.0,73.0
588,139.88460940416667,140.58489330833333,59.0,83.0
589,138.52097340416668,140.70137054999998,40.0,85.0
590,140.56642740416666,140.83631369583333,47.0,76.0
591,139.88460940416667,140.89881367916666,64.0,83.0
592,139.88460940416667,140.97125684166667,68.0,82.0
593,140.73688190416667,141.0152909208333,59.0,83.0
594,141.24824540416665,141.73404072916668,59.0,82.0
595,141.24824540416665,142.02097247083333,62.0,78.0
596,141.58915440416666,142.08347245416667,54.0,73.0
597,141.93006340416667,142.3846087375,59.0,83.0
598,142.27097240416666,142.45421099166666,62.0,77.0
599,142.61188140416667,143.03517674583333,59.0,83.0
600,142.95279040416665,143.249665325,54.0,70.0
601,142.61188140416667,143.26102895833333,66.0,84.0
602,142.61188140416667,143.33347212083333,62.0,78.0
603,141.24824540416665,143.3391539375,47.0,84.0
604,143.29369940416666,143.61472204583333,59.0,83.0
605,143.97551740416668,144.6857444875,64.0,84.0
606,144.65733540416664,145.1204034625,59.0,84.0
607,144.99824440416666,145.19710798749998,64.0,83.0
608,144.31642640416666,145.51813062916665,47.0,74.0
609,145.50960790416667,145.51813062916665,47.0,70.0
610,145.33915340416667,145.840573725,59.0,80.0
611,145.33915340416667,146.00818731666666,67.0,83.0
612,143.97551740416668,146.22693725833332,40.0,85.0
613,146.19142590416666,146.317846325,59.0,75.0
614,146.02097140416666,146.33773268333334,64.0,84.0
615,146.70278940416665,147.20136881666667,57.0,75.0
616,146.70278940416665,147.21415290416667,61.0,76.0
617,146.70278940416665,147.2936983375,42.0,84.0
618,147.04369840416666,147.31500515,49.0,71.0
619,147.38460740416667,147.50960737083332,57.0,77.0
620,147.38460740416667,147.7951186583333,61.0,78.0
621,147.72551640416665,147.87892545416668,57.0,72.0
622,147.38460740416667,148.07210722083335,66.0,77.0
623,148.06642540416667,148.56074345416664,59.0,77.0
624,148.06642540416667,148.5635843625,62.0,82.0
625,148.40733440416665,148.85051610416667,54.0,71.0
626,148.74824340416666,148.89312972916667,59.0,81.0
627,148.06642540416667,149.04369787083334,47.0,84.0
628,148.74824340416666,149.34341369999999,62.0,83.0
629,148.74824340416666,149.3462546083333,66.0,83.0
630,149.08915240416667,149.43858412916666,59.0,76.0
631,149.43006140416668,149.43858412916666,59.0,78.0
632,149.43006140416668,150.11614076666666,64.0,84.0
633,149.77097040416666,150.20278847083333,47.0,79.0
634,149.43006140416668,150.204208925,40.0,85.0
635,150.11187940416664,150.53517474583333,59.0,90.0
636,150.45278840416665,150.83631102916667,64.0,88.0
637,150.79369740416666,151.57494719583332,66.0,84.0
638,151.13460640416668,151.76670850833332,49.0,82.0
639,150.79369740416666,151.78091304999998,42.0,77.0
640,151.47551540416666,151.91869710416665,57.0,83.0
641,151.81642440416667,152.02523116666666,61.0,85.0
642,152.15733340416665,152.57494692916666,62.0,81.0
643,152.15733340416665,152.5948332875,59.0,78.0
644,152.49824240416666,152.93716274166667,54.0,75.0
645,152.83915140416667,153.21273085,59.0,83.0
646,153.18006040416668,153.630344375,54.0,72.0
647,153.52096940416666,153.97835564583335,59.0,83.0
648,153.52096940416666,153.99113973333334,62.0,83.0
649,153.52096940416666,154.48971914583333,66.0,83.0
650,152.15733340416665,154.83488950833333,47.0,83.0
651,153.86187840416665,154.83488950833333,54.0,65.0
652,154.20278740416666,154.85193495833335,59.0,78.0
653,154.88460540416668,155.35903709583334,59.0,79.0
654,154.88460540416668,155.61755975416668,62.0,81.0
655,155.22551440416666,155.72409381666665,54.0,72.0
656,155.56642340416664,155.99398010833335,59.0,87.0
657,155.90733240416665,156.36755955416666,54.0,70.0
658,156.24824140416666,156.98687757083331,59.0,81.0
659,156.24824140416666,157.0138662,62.0,77.0
660,154.88460540416668,157.28943430833334,47.0,83.0
661,156.93005940416666,157.3419911125,54.0,62.0
662,156.24824140416666,157.52665015416665,66.0,72.0
663,157.27096840416667,157.52807060833334,59.0,67.0
664,157.61187740416665,158.05363864999998,59.0,79.0
665,157.61187740416665,158.3988090125,62.0,77.0
666,157.95278640416666,158.4101726458333,54.0,63.0
667,158.29369540416667,158.70704756666666,59.0,85.0
668,158.63460440416668,159.02380884583334,54.0,65.0
669,158.97551340416666,159.27949059583332,66.0,83.0
670,159.31642240416664,159.61613823333334,54.0,70.0
671,158.97551340416666,159.64170640833333,59.0,78.0
672,157.61187740416665,159.83630862916667,47.0,84.0
673,159.65733140416665,160.03801312083334,62.0,79.0
674,159.99824040416667,160.15449036249998,61.0,88.0
675,160.33914940416668,160.77096747083334,55.0,84.0
676,160.33914940416668,161.0323310375,59.0,84.0
677,160.68005840416666,161.2283537125,50.0,76.0
678,160.33914940416668,161.27664915416665,43.0,77.0
679,161.02096740416664,161.47693319166666,55.0,86.0
680,161.36187640416665,161.61755815416666,59.0,83.0
681,161.70278540416666,162.01528532083333,59.0,85.0
682,162.04369440416667,162.46698974583333,47.0,74.0
683,161.70278540416666,162.54227381666666,40.0,85.0
684,162.38460340416665,162.94284189166666,52.0,85.0
685,163.74823940416667,164.20562564583332,54.0,85.0
686,164.08914840416668,164.29795516666667,57.0,75.0
687,163.40733040416666,164.56500054999998,49.0,71.0
688,163.06642140416665,164.66869370416666,42.0,87.0
689,164.43005740416666,164.9272163625,54.0,80.0
690,164.77096640416664,165.11045495,49.0,67.0
691,164.43005740416666,165.12465949166665,57.0,83.0
692,164.43005740416666,165.15875039166667,61.0,76.0
693,165.11187540416665,165.22693219166666,54.0,85.0
694,165.79369340416667,166.01528425416666,59.0,79.0
695,165.79369340416667,166.22409101666665,64.0,83.0
696,166.13460240416666,166.53801138749998,59.0,81.0
697,166.47551140416667,166.77522723333334,64.0,77.0
698,166.81642040416665,167.02522716666667,59.0,66.0
699,167.15732940416666,167.58204519999998,59.0,84.0
700,167.15732940416666,167.7482383375,67.0,82.0
701,167.49823840416667,167.89170420833332,64.0,81.0
702,167.83914740416668,168.0721018875,59.0,92.0
703,165.79369340416667,168.16869277083333,52.0,90.0
704,168.52096540416665,169.24965839166666,61.0,85.0
705,168.52096540416665,169.52380604583334,42.0,77.0
706,168.86187440416666,169.53090831666665,49.0,54.0
707,169.20278340416667,169.61329465833333,57.0,89.0
708,169.54369240416668,169.74823780416665,61.0,87.0
709,169.88460140416666,169.92295366666667,48.0,75.0
710,169.88460140416666,170.3221012875,62.0,77.0
711,169.88460140416666,170.46272625,59.0,72.0
712,170.22551040416664,170.64977138125002,54.0,81.0
713,169.88460140416666,170.67977132500002,47.0,76.0
714,170.56691439375,170.7226283875,59.0,89.0
715,171.25262739375,171.71262653125,57.0,75.0
716,171.25262739375,172.00976883125003,61.0,70.0
717,171.93834039375002,172.42405376875,57.0,79.0
718,172.28119689375,172.43833945625002,61.0,62.0
719,171.59548389375,172.80548162500003,49.0,65.0
720,171.25262739375,173.04548117500002,42.0,84.0
721,172.62405339375002,173.08119539375002,57.0,75.0
722,172.96690989375003,173.16690951875,49.0,70.0
723,172.62405339375002,173.31548066875,66.0,83.0
724,173.30976639375,173.68690854375,61.0,83.0
725,173.65262289375002,173.82690828125,57.0,83.0
726,173.99547939375,174.4826213375,59.0,76.0
727,174.33833589375,174.76119224375,54.0,70.0
728,173.99547939375,174.76690651875,62.0,79.0
729,174.68119239375002,175.20833426250002,59.0,85.0
730,175.02404889375,175.41404816250002,54.0,73.0
731,175.36690539375002,175.67119053750002,66.0,83.0
732,175.36690539375002,175.9654757,59.0,86.0
733,176.05261839375,176.39547489375002,61.0,79.0
734,175.70976189375003,176.69690290000003,54.0,75.0
735,176.39547489375002,176.71547429375002,62.0,77.0
736,173.99547939375,176.73833139375,47.0,83.0
737,176.73833139375,177.22118763125002,59.0,81.0
738,176.73833139375,177.51118708750002,62.0,83.0
739,177.08118789375,177.53832989375002,54.0,69.0
740,177.42404439375002,177.8026151125,59.0,86.0
741,177.76690089375,178.27404280000002,54.0,70.0
742,178.10975739375002,178.56689939375002,59.0,84.0
743,178.10975739375002,178.7740418625,66.0,83.0
744,178.79547039375,179.205469625,62.0,74.0
745,178.45261389375003,179.20975533125002,54.0,68.0
746,176.73833139375,179.23261243125,47.0,83.0
747,179.13832689375002,179.95689678750003,59.0,75.0
748,179.82403989375,180.26975334375,54.0,62.0
749,179.48118339375003,180.37403886250002,62.0,81.0
750,180.16689639375002,180.4711815375,59.0,76.0
751,180.50975289375,180.94689493125003,54.0,69.0
752,180.85260939375001,181.319751375,66.0,83.0
753,181.19546589375003,181.59975085000002,54.0,69.0
754,180.85260939375001,181.63260793125002,59.0,84.0
755,179.48118339375003,181.87403605000003,47.0,85.0
756,181.53832239375,181.94689305625002,64.0,84.0
757,181.88117889375002,182.09689277500001,62.0,87.0
758,182.22403539375003,182.94260547500002,62.0,85.0
759,182.90974839375002,183.28413118333336,55.0,89.0
760,182.22403539375003,183.3963470625,43.0,83.0
761,182.56689189375,183.41623342083335,50.0,79.0
762,183.25146073750003,183.6065742791667,62.0,84.0
763,183.5923697375,184.10941505416667,64.0,83.0
764,183.5923697375,184.12361959583333,59.0,80.0
765,184.2741877375,184.389244525,59.0,82.0
766,183.93327873750002,184.40771042916668,47.0,75.0
767,183.5923697375,184.43327860416667,40.0,88.0
768,184.4446422375,184.56680129583336,59.0,82.0
769,184.2741877375,184.60373310416668,64.0,85.0
770,184.2741877375,184.6577103625,68.0,84.0
771,184.95600573750002,185.4176533416667,57.0,76.0
772,185.2969147375,185.7400964375,49.0,70.0
773,184.95600573750002,185.7400964375,61.0,78.0
774,185.6378237375,186.00998272916667,57.0,85.0
775,185.97873273750002,186.39492580833334,49.0,65.0
776,186.3196417375,186.75998252916668,66.0,80.0
777,186.3196417375,186.77986888750002,57.0,85.0
778,184.95600573750002,186.9815733791667,42.0,85.0
779,186.66055073750002,187.01424382500002,49.0,79.0
780,187.0014597375,187.16765287500002,57.0,85.0
781,187.0014597375,187.40060735833336,61.0,89.0
782,187.3423687375,187.5043005125,57.0,84.0
783,187.68327773750002,188.1236185291667,59.0,80.0
784,187.68327773750002,188.3480502875,64.0,83.0
785,188.3650957375,188.78270926250002,59.0,92.0
786,188.70600473750002,188.84094788333334,64.0,92.0
787,188.0241867375,189.10231145,47.0,76.0
788,187.68327773750002,189.15628870833334,40.0,87.0
789,189.0469137375,189.50003861666667,59.0,85.0
790,189.0469137375,189.55259542083334,67.0,84.0
791,189.72873173750003,189.85941352083336,59.0,83.0
792,189.38782273750002,190.02560665833334,47.0,63.0
793,189.72873173750003,190.22589069583336,64.0,89.0
794,190.0696407375,190.43185655000002,59.0,84.0
795,190.41054973750002,191.16339044583336,42.0,94.0
796,190.7514587375,191.2116858875,49.0,73.0
797,191.0923677375,191.3025949541667,57.0,84.0
798,191.0923677375,191.48867445000002,61.0,86.0
799,191.43327673750002,191.61935623333335,57.0,83.0
800,191.0923677375,191.76424255833334,66.0,77.0
801,191.7741857375,192.29123105416667,59.0,80.0
802,191.7741857375,192.29123105416667,62.0,80.0
803,192.11509473750002,192.55685598333335,54.0,71.0
804,192.45600373750003,192.57248097916667,59.0,77.0
805,191.7741857375,192.7031627625,47.0,84.0
806,192.45600373750003,193.03128767500002,62.0,79.0
807,192.45600373750003,193.07248084583335,66.0,76.0
808,192.7969127375,193.16765127500003,59.0,76.0
809,193.8196397375,194.29549188333334,54.0,85.0
810,194.16054873750002,194.36793504583335,57.0,76.0
811,193.4787307375,194.63782133750001,49.0,66.0
812,193.13782173750002,194.72730995,42.0,88.0
813,194.5014577375,194.9190712625,61.0,80.0
814,194.84236673750002,195.0298666875,49.0,77.0
815,194.5014577375,195.04691213750002,54.0,80.0
816,195.18327573750003,195.54265064166668,57.0,87.0
817,195.18327573750003,195.59094608333334,61.0,84.0
818,195.5241847375,195.6349801625,54.0,84.0
819,195.86509373750002,196.31537770833336,59.0,79.0
820,196.2060027375,196.60230945,54.0,70.0
821,195.86509373750002,196.62645717083333,62.0,83.0
822,196.5469117375,196.8963434625,59.0,85.0
823,196.88782073750002,197.33384334583334,54.0,74.0
824,197.2287297375,197.55969555833335,59.0,84.0
825,197.2287297375,197.59804782083336,62.0,84.0
826,197.2287297375,197.650604625,66.0,84.0
827,197.74009323750002,197.89776365,59.0,85.0
828,197.56963873750001,198.08384314583336,54.0,80.0
829,197.91054773750002,198.47304758750002,59.0,77.0
830,197.91054773750002,198.54975211250002,62.0,92.0
831,195.86509373750002,198.56537710833334,47.0,84.0
832,198.2514567375,198.56537710833334,54.0,84.0
833,198.59236573750002,199.06679742916668,59.0,79.0
834,198.59236573750002,199.32532008750002,62.0,81.0
835,198.9332747375,199.43185415000002,54.0,72.0
836,199.2741837375,199.7017404416667,59.0,87.0
837,199.61509273750002,200.0753198875,54.0,70.0
838,199.9560017375,200.69463790416668,59.0,81.0
839,199.9560017375,200.72162653333334,62.0,77.0
840,198.59236573750002,200.99719464166668,47.0,83.0
841,200.63781973750002,201.04975144583335,54.0,62.0
842,199.9560017375,201.2344104875,66.0,72.0
843,200.9787287375,201.23583094166668,59.0,67.0
844,201.31963773750002,201.76139898333335,59.0,79.0
845,201.31963773750002,202.10656934583335,62.0,77.0
846,201.6605467375,202.11793297916668,54.0,63.0
847,202.0014557375,202.41480790000003,59.0,85.0
848,202.34236473750002,202.73156917916668,54.0,65.0
849,202.6832737375,202.9872509291667,66.0,83.0
850,203.0241827375,203.32389856666668,54.0,70.0
851,202.6832737375,203.34946674166667,59.0,78.0
852,201.31963773750002,203.5440689625,47.0,84.0
853,203.36509173750002,203.74577345416668,62.0,79.0
854,203.7060007375,203.86225069583335,61.0,88.0
855,204.04690973750002,204.47872780416668,55.0,84.0
856,204.04690973750002,204.74009137083334,59.0,84.0
857,204.38781873750003,204.93611404583334,50.0,76.0
858,204.04690973750002,204.98440948750002,43.0,77.0
859,204.7287277375,205.184693525,55.0,86.0
860,205.06963673750002,205.3253184875,59.0,83.0
861,205.4105457375,205.72304565416667,59.0,85.0
862,205.7514547375,206.17475007916667,47.0,74.0
863,205.4105457375,206.25003415,40.0,85.0
864,206.09236373750002,206.650602225,52.0,85.0
865,207.4559997375,207.9133859791667,54.0,85.0
866,207.79690873750002,208.0057155,57.0,75.0
867,207.1150907375,208.27276088333335,49.0,71.0
868,206.77418173750002,208.37645403750003,42.0,87.0
869,208.1378177375,208.63497669583336,54.0,80.0
870,208.4787267375,208.81821528333336,49.0,67.0
871,208.1378177375,208.83241982500002,57.0,83.0
872,208.1378177375,208.866510725,61.0,76.0
873,208.81963573750002,208.934692525,54.0,85.0
874,209.50145373750001,209.7230445875,59.0,79.0
875,209.50145373750001,209.93185135000002,64.0,83.0
876,209.84236273750003,210.24577172083335,59.0,81.0
877,210.1832717375,210.48298756666668,64.0,77.0
878,210.52418073750002,210.7329875,59.0,66.0
879,210.8650897375,211.28980553333335,59.0,84.0
880,210.8650897375,211.45599867083334,67.0,82.0
881,211.2059987375,211.5994645416667,64.0,81.0
882,211.54690773750002,211.77986222083334,59.0,92.0
883,209.50145373750001,211.87645310416667,52.0,90.0
884,212.2287257375,212.95741872500003,61.0,85.0
885,212.2287257375,213.23156637916668,42.0,77.0
886,212.56963473750002,213.23866865000002,49.0,54.0
887,212.9105437375,213.32105499166667,57.0,89.0
888,213.25145273750002,213.45599813750002,61.0,87.0
889,213.59236173750003,213.630714,48.0,75.0
890,213.59236173750003,214.02986162083334,62.0,77.0
891,213.59236173750003,214.17048658333334,59.0,72.0
892,213.9332707375,214.35656607916667,54.0,81.0
893,213.59236173750003,214.38639561666668,47.0,76.0
894,214.27417973750002,214.42900924166668,59.0,89.0
895,214.9559977375,215.41338397916667,57.0,75.0
896,214.9559977375,215.70883844583335,61.0,70.0
897,215.6378157375,216.12077015416668,57.0,79.0
898,215.97872473750002,216.13497469583334,61.0,62.0
899,215.29690673750002,216.50003141666667,49.0,65.0
900,214.9559977375,216.73866771666667,42.0,84.0
901,216.3196337375,216.77417907083336,57.0,75.0
902,216.6605427375,216.85940632083333,49.0,70.0
903,216.3196337375,217.00713355416667,66.0,83.0
904,217.00145173750002,217.3764516375,61.0,83.0
905,217.3423607375,217.51565614583336,57.0,83.0
906,217.6832697375,218.16764460833335,59.0,76.0
907,218.0241787375,218.44730887083335,54.0,70.0
908,217.6832697375,218.45312282083336,62.0,79.0
909,218.36591357083336,218.90475305833334,59.0,85.0
910,218.71475057083336,219.11777045833333,54.0,73.0
911,219.06895397083332,219.38556568958333,66.0,83.0
912,219.06895397083332,219.69470932708333,59.0,86.0
913,219.42574422083334,220.15446633333335,54.0,75.0
914,219.78741445833333,220.15446633333335,61.0,79.0
915,217.6832697375,220.39942977291668,47.0,83.0
916,220.10773739583334,220.45902845208334,62.0,77.0
917,220.25103947083335,220.96989478541667,54.0,70.0
918,220.39466787916666,221.21144533958335,57.0,81.0
919,220.46391443958333,221.28558325208334,61.0,78.0
920,221.24937636458333,222.09075546458334,54.0,88.0
921,221.64075557708333,222.16834165208334,57.0,78.0
922,222.09420373958335,222.63041050208335,66.0,84.0
923,220.83413319375,223.13041037708334,49.0,72.0
924,222.98558282708333,223.77696193958334,54.0,79.0
925,222.98385868958334,223.77696193958334,57.0,81.0
926,220.43785583958334,223.78213435208335,42.0,85.0
927,222.98213455208335,223.78213435208335,61.0,79.0
928,223.37178962708333,223.78385848958334,49.0,74.0
929,223.81661710208334,224.68897165208335,62.0,79.0
930,224.23041010208334,224.71176365208333,54.0,74.0
931,224.63341615208333,225.14481165208335,59.0,84.0
932,224.80435615208333,225.29580865208334,54.0,63.0
933,225.31717615208333,226.09210415208335,59.0,78.0
934,225.31717615208333,226.15193315208333,62.0,74.0
935,226.00093615208334,226.17757415208334,54.0,71.0
936,225.31717615208333,226.22600715208335,66.0,78.0
937,223.81661710208334,226.26446865208334,47.0,83.0
938,226.34281615208334,226.65478165208333,59.0,83.0
939,226.68469615208335,227.41642795833332,61.0,77.0
940,227.02657615208335,227.4884867458333,49.0,66.0
941,227.37083974583334,227.96510268333333,57.0,84.0
942,228.08573855,228.26672006666666,57.0,58.0
943,227.72486268333333,228.412425525,49.0,66.0
944,226.68469615208335,228.44310035833334,42.0,80.0
945,228.08573855,228.93083020833333,61.0,83.0
946,228.08573855,229.075001925,66.0,78.0
947,228.82193455,229.14095281666667,57.0,84.0
948,230.36487866666667,230.59647365833334,52.0,84.0
949,229.571934225,230.68543067500002,40.0,88.0
950,229.9722408,230.713038025,47.0,89.0
951,230.36641240833333,230.78512388333334,55.0,83.0
952,231.66549160000002,232.75598192500001,49.0,84.0
953,231.13941820833335,232.80046043333334,42.0,85.0
954,232.22377356666667,233.14095108333333,54.0,70.0
955,232.35567535,233.15015353333334,57.0,69.0
956,232.44156488333334,233.26058293333335,61.0,79.0
957,233.98757648333336,235.79585790833335,54.0,77.0
958,233.29585899166668,235.82193151666667,47.0,85.0
959,233.76978516666668,235.90475356666667,59.0,78.0
960,234.28665610833335,235.93696214166667,62.0,71.0
961,234.64861914166667,235.94616459166667,66.0,51.0
962,235.16395634166668,235.9829743916667,71.0,73.0
