,start,end,pitch,velocity
0,26.3256910625,26.651395125,75.0,85.0
1,26.7482260625,27.066887875,75.0,96.0
2,27.1707610625,27.2975215625,75.0,87.0
3,27.3820285625,27.911957875,76.0,86.0
4,28.0158310625,28.2728731875,72.0,84.0
5,28.4383660625,28.8151264375,70.0,84.0
6,28.860901062499998,29.052802375,72.0,74.0
7,29.0721685625,29.616182375,70.0,76.0
8,29.4947035625,30.6566748125,68.0,73.0
9,30.9735760625,31.2904773125,73.0,80.0
10,31.3961110625,31.668998249999998,72.0,82.0
11,31.8186460625,32.2059698125,70.0,84.0
12,32.2411810625,32.5932935625,68.0,78.0
13,32.6637160625,33.926039375,77.0,84.0
14,34.1425885625,34.3045603125,77.0,80.0
15,34.3538560625,34.68308125,75.0,84.0
16,34.7763910625,34.95068675,77.0,80.0
17,34.9876585625,35.623221625,75.0,80.0
18,35.621461062499996,36.052798875,70.0,73.0
19,36.0439960625,37.65491075,72.0,77.0
20,39.4242760625,39.7376561875,72.0,82.0
21,39.8468110625,40.1355433125,72.0,74.0
22,40.2693460625,40.580965625,72.0,75.0
23,40.6918810625,40.9946978125,73.0,81.0
24,41.1144160625,41.44364125,72.0,80.0
25,41.5369510625,41.6848383125,73.0,75.0
26,41.7482185625,42.4031478125,72.0,81.0
27,42.8045560625,43.165471375,72.0,83.0
28,43.2270910625,43.510541625,72.0,82.0
29,43.6496260625,43.915471,72.0,82.0
30,44.0721610625,44.3749778125,72.0,85.0
31,44.4946960625,44.813357875,77.0,82.0
32,44.9172310625,45.0862450625,72.0,84.0
33,45.1284985625,45.524625125,70.0,82.0
34,45.5510335625,46.172512125,68.0,80.0
35,46.6073710625,46.9137089375,72.0,81.0
36,47.0299060625,47.32392,75.0,89.0
37,47.4524410625,47.62673675,68.0,80.0
38,47.6637085625,48.1267365,70.0,76.0
39,48.2975110625,48.623215125,72.0,80.0
40,48.720046062499996,49.33096125,75.0,82.0
41,49.565116062499996,49.883777875,68.0,74.0
42,49.9876510625,52.66898775,70.0,80.0
43,53.3679310625,53.693635125,75.0,85.0
44,53.7904660625,54.109127875,75.0,96.0
45,54.2130010625,54.3397615625,75.0,87.0
46,54.4242685625,54.954197875,76.0,86.0
47,55.0580710625,55.315113187499996,72.0,84.0
48,55.4806060625,55.8573664375,70.0,84.0
49,55.9031410625,56.095042375,72.0,74.0
50,56.114408562499996,56.5369435625,70.0,76.0
51,56.5369435625,57.6989148125,68.0,73.0
52,58.0158160625,58.3327173125,73.0,80.0
53,58.4383510625,58.71123825,72.0,82.0
54,58.8608860625,59.2482098125,70.0,84.0
55,59.2834210625,59.6355335625,68.0,78.0
56,59.7059560625,60.968279375,77.0,84.0
57,61.1848285625,61.3468003125,77.0,80.0
58,61.3960960625,61.72532125,75.0,84.0
59,61.818631062499996,61.99292675,77.0,80.0
60,62.0298985625,62.665461625,75.0,80.0
61,62.663701062499996,63.095038875,70.0,73.0
62,63.0862360625,65.6214460625,72.0,77.0
63,66.0439810625,66.1636993125,72.0,81.0
64,66.2552485625,66.40137525,73.0,82.0
65,66.4665160625,66.806304625,75.0,86.0
66,66.8890510625,67.0087693125,68.0,76.0
67,67.1003185625,67.64961406249999,68.0,78.0
68,67.7341210625,67.9013745,70.0,74.0
69,67.9453885625,69.0967964375,68.0,73.0
70,69.4242610625,69.549261,72.0,85.0
71,69.6355285625,69.7658101875,73.0,80.0
72,69.8467960625,70.2112325,75.0,85.0
73,70.2693310625,70.4066549375,72.0,84.0
74,70.48059856249999,70.760528,75.0,89.0
75,70.9031335625,71.24644325,79.0,85.0
76,71.3256685625,72.1355273125,75.0,87.0
77,72.3820060625,72.5052454375,77.0,83.0
78,72.5932735625,72.7165129375,75.0,81.0
79,72.8045410625,72.961231125,73.0,81.0
80,73.0158085625,73.1496113125,72.0,80.0
81,73.2270760625,73.5298928125,73.0,78.0
82,73.6496110625,73.78693493749999,75.0,76.0
83,73.8608785625,74.6460894375,77.0,80.0
84,74.9172160625,75.2165116875,77.0,87.0
85,75.3397510625,75.47179325,79.0,82.0
86,75.5510185625,76.130243625,80.0,82.0
87,76.18482106249999,76.5721448125,77.0,81.0
88,76.6073560625,78.73429336666666,75.0,84.0
89,79.97296794166667,80.31005109166667,80.0,82.0
90,80.39279752916667,80.72026215416668,79.0,87.0
91,80.81533252916667,81.11462815416667,80.0,82.0
92,81.23786752916666,81.93152915416667,75.0,84.0
93,82.08293752916667,82.39631765416667,72.0,86.0
94,82.50547252916667,82.81533152916667,72.0,89.0
95,82.92800752916666,83.21497921666666,82.0,82.0
96,83.35054252916667,83.64807759166666,82.0,82.0
97,83.77307752916667,84.06180977916667,80.0,82.0
98,84.19561252916667,84.51427434166666,82.0,82.0
99,84.61814752916666,85.27131621666666,75.0,91.0
100,85.46321752916667,85.75547090416667,72.0,86.0
101,85.88575252916667,86.16920309166667,72.0,87.0
102,86.30828752916666,86.54596346666666,84.0,82.0
103,86.73082252916667,87.07061109166666,84.0,84.0
104,87.15335752916667,87.26427296666667,82.0,80.0
105,87.36462502916667,87.87166702916667,82.0,84.0
106,87.99842752916666,88.30828652916666,80.0,81.0
107,88.42096252916667,88.76603277916666,80.0,79.0
108,88.84349752916667,89.10758190416666,82.0,79.0
109,89.26603252916667,89.60758165416667,80.0,78.0
110,89.68856752916668,90.14279265416667,84.0,82.0
111,90.11110252916667,90.40511646666667,82.0,82.0
112,90.53363752916667,90.93680634166667,82.0,82.0
113,90.95617252916666,91.27131321666667,82.0,82.0
114,91.37870752916666,91.98258046666666,80.0,86.0
115,92.64631252916666,92.95969265416667,80.0,89.0
116,93.06884752916667,93.24490377916666,82.0,86.0
117,93.28011502916667,93.48610084166667,80.0,83.0
118,93.49138252916667,93.85581896666667,84.0,85.0
119,93.91391752916667,94.21849484166667,77.0,84.0
120,94.33645252916666,94.63926927916667,77.0,81.0
121,94.75898752916667,95.78539546666667,77.0,91.0
122,96.02659252916666,96.36638109166667,80.0,86.0
123,96.44912752916667,96.61109927916667,82.0,83.0
124,96.66039502916666,96.81708509166667,80.0,82.0
125,96.87166252916667,97.23220721666667,84.0,85.0
126,97.29361070625,97.52168081041667,75.0,74.0
127,97.71466320625001,98.00238241458334,75.0,89.0
128,98.13571570625001,98.55676820625001,77.0,84.0
129,98.55676820625001,99.39887320625,75.0,75.0
130,99.81992570625,99.9515046125,77.0,86.0
131,100.03045195625,100.20062734166667,79.0,80.0
132,100.24097820625,100.55325881041668,80.0,82.0
133,100.66203070625001,100.99360955,80.0,81.0
134,101.08308320625001,101.40238135208334,80.0,81.0
135,101.50413570625001,101.67080232083333,79.0,83.0
136,101.71466195625001,102.84624055,80.0,81.0
137,103.18834570625,103.3409772375,77.0,84.0
138,103.39887195625,103.53571401875,79.0,76.0
139,103.60939820625,103.919924425,80.0,82.0
140,104.03045070625001,104.36729270625001,80.0,81.0
141,104.45150320625001,104.77957327916667,80.0,82.0
142,104.87255570625001,105.19185385208334,79.0,86.0
143,105.29360820625001,106.06202901875001,80.0,82.0
144,106.13571320625,106.85481964375,82.0,82.0
145,106.97981958125001,107.31960814375,80.0,82.0
146,107.40235458125001,107.72981920625,79.0,87.0
147,107.82488958125,108.12418520625,80.0,82.0
148,108.24742458125,108.94108620625,75.0,84.0
149,109.09249458125001,109.40587470625,72.0,86.0
150,109.51502958125,109.82488858125001,72.0,89.0
151,109.93756458125,110.22453626875,82.0,82.0
152,110.36009958125001,110.65763464375,82.0,82.0
153,110.78263458125001,111.07136683125,80.0,82.0
154,111.20516958125,111.52383139375,82.0,82.0
155,111.62770458125,112.28087326875,75.0,91.0
156,112.47277458125001,112.76502795625001,72.0,86.0
157,112.89530958125,113.17876014375001,72.0,87.0
158,113.31784458125,113.55552051875,84.0,82.0
159,113.74037958125001,114.08016814375,84.0,84.0
160,114.16291458125,114.27383001875,82.0,80.0
161,114.37418208125001,114.88122408125001,82.0,84.0
162,115.00798458125,115.31784358125,80.0,81.0
163,115.43051958125001,115.77558983125,80.0,79.0
164,115.85305458125,116.11713895625,82.0,79.0
165,116.27558958125,116.61713870625,80.0,78.0
166,116.69812458125,117.15234970625,84.0,82.0
167,117.12065958125001,117.41467351875,82.0,82.0
168,117.54319458125,117.94636339375,82.0,82.0
169,117.96572958125,118.28087026875001,82.0,82.0
170,118.38826458125001,118.99213751875001,80.0,86.0
171,119.65586958125,119.96924970625001,80.0,89.0
172,120.07840458125,120.25446083125,82.0,86.0
173,120.28967208125,120.49565789375,80.0,83.0
174,120.50093958125001,120.86537601875,84.0,85.0
175,120.92347458125,121.22805189375,77.0,84.0
176,121.34600958125,121.64882633125,77.0,81.0
177,121.76854458125001,122.79495251875001,77.0,91.0
178,123.03614958125,123.37593814375,80.0,86.0
179,123.45868458125,123.62065633125,82.0,83.0
180,123.66995208125,123.82664214375001,80.0,82.0
181,123.88121958125001,124.24213489375,84.0,85.0
182,124.30375458125,124.53262770625,75.0,74.0
183,124.72628958125,125.01502183125001,75.0,89.0
184,125.14882458125001,125.57135958125001,77.0,84.0
185,125.57135958125001,126.41642958125,75.0,75.0
186,126.83896458125,127.25269676875001,72.0,87.0
187,127.26149958125,127.68579514375,73.0,81.0
188,127.68403458125,128.15058364375,72.0,82.0
189,128.10656958125,128.58720314375,73.0,85.0
190,128.52910458125,128.97980858125,75.0,82.0
191,128.95163958125,129.94283626875,77.0,80.0
192,130.21924458125,130.64354014375002,72.0,80.0
193,130.64177958125,131.06959626875,73.0,83.0
194,131.06431458125002,131.55551151875,72.0,80.0
195,131.48684958125,131.88473670625,73.0,87.0
196,131.90938458125,132.29846889375,75.0,86.0
197,132.33191958125002,133.06431358125002,77.0,80.0
198,133.17698958125,133.91114414375,79.0,84.0
199,134.02205958125,137.29318470625,80.0,80.0
200,147.96571458125,148.29141864375,75.0,85.0
201,148.38824958125002,148.70691139375,75.0,96.0
202,148.81078458125,148.93754508125,75.0,87.0
203,149.02205208125,149.55198139375,76.0,86.0
204,149.65585458125,149.91289670625,72.0,84.0
205,150.07838958125,150.45514995625,70.0,84.0
206,150.50092458125,150.69282589375,72.0,74.0
207,150.71219208125,151.13472708125,70.0,76.0
208,151.13472708125,152.29669833125,68.0,73.0
209,152.61359958125,152.93050083125001,73.0,80.0
210,153.03613458125,153.30902176875,72.0,82.0
211,153.45866958125,153.84599333125,70.0,84.0
212,153.88120458125002,154.23331708125,68.0,78.0
213,154.30373958125,155.56606289375,77.0,84.0
214,155.78261208125002,155.94458383125001,77.0,80.0
215,155.99387958125,156.32310476875,75.0,84.0
216,156.41641458125,156.59071026875,77.0,80.0
217,156.62768208125001,157.26324514375,75.0,80.0
218,157.26148458125,157.69282239375002,70.0,73.0
219,157.68401958125,160.21922958125,72.0,77.0
220,160.64176458125002,160.76148283125002,72.0,81.0
221,160.85303208125,160.99915876875002,73.0,82.0
222,161.06429958125,161.40408814375002,75.0,86.0
223,161.48683458125,161.60655283125,68.0,76.0
224,161.69810208125,162.24739758125,68.0,78.0
225,162.33190458125,162.49915801875,70.0,74.0
226,162.54317208125002,163.69457995625,68.0,73.0
227,164.02204458125001,164.14704451875002,72.0,85.0
228,164.23331208125,164.36359370625001,73.0,80.0
229,164.44457958125,164.80901601875001,75.0,85.0
230,164.86711458125,165.00443845625,72.0,84.0
231,165.07838208125,165.35831151875,75.0,89.0
232,165.50091708125,165.84422676875,79.0,85.0
233,165.92345208125,166.73331083125,75.0,87.0
234,166.97978958125,167.10302895625,77.0,83.0
235,167.19105708125,167.31429645625002,75.0,81.0
236,167.40232458125,167.55901464375,73.0,81.0
237,167.61359208125,167.74739483125,72.0,80.0
238,167.82485958125,168.12767633125,73.0,78.0
239,168.24739458125,168.38471845625,75.0,76.0
240,168.45866208125,169.24387295625002,77.0,80.0
241,169.51499958125,169.81429520625,77.0,87.0
242,169.93753458125002,170.06957676875,79.0,82.0
243,170.14880208125,170.72802714375,80.0,82.0
244,170.78260458124998,171.16992833125,77.0,81.0
245,171.20513958125002,173.33365964375002,75.0,84.0
246,174.58541958125,174.92520814375,80.0,82.0
247,175.00795458125,175.33541920625,79.0,87.0
248,175.43048958125001,175.72978520625,80.0,82.0
249,175.85302458125,176.54668620625,75.0,84.0
250,176.69809458125002,177.01147470625,72.0,86.0
251,177.12062958125,177.43048858125002,72.0,89.0
252,177.54316458125,177.83013626875,82.0,82.0
253,177.96569958125002,178.26323464375002,82.0,82.0
254,178.38823458125,178.67696683125,80.0,82.0
255,178.81076958124999,179.12943139375,82.0,82.0
256,179.23330458125002,179.88647326875002,75.0,91.0
257,180.07837458125,180.37062795625002,72.0,86.0
258,180.50090958125,180.78436014375,72.0,87.0
259,180.92344458125,181.16112051875,84.0,82.0
260,181.34597958125,181.68576814375,84.0,84.0
261,181.76851458125,181.87943001874999,82.0,80.0
262,181.97978208125,182.48682408125,82.0,84.0
263,182.61358458125,182.92344358125,80.0,81.0
264,183.03611958125,183.38118983125,80.0,79.0
265,183.45865458125002,183.72273895625,82.0,79.0
266,183.88118958125,184.22273870625,80.0,78.0
267,184.30372458125,184.75794970625,84.0,82.0
268,184.72625958125002,185.02027351875,82.0,82.0
269,185.14879458125,185.55196339375,82.0,82.0
270,185.57132958124998,185.88647026875,82.0,82.0
271,185.99386458125002,186.59773751875002,80.0,86.0
272,187.26146958125,187.57484970625,80.0,89.0
273,187.68400458125,187.86006083125,82.0,86.0
274,187.89527208125,188.10125789375002,80.0,83.0
275,188.10653958125,188.47097601875,84.0,85.0
276,188.52907458125,188.83365189375002,77.0,84.0
277,188.95160958125,189.25442633125,77.0,81.0
278,189.37414458125,190.40055251875,77.0,91.0
279,190.64174958125,190.98153814375002,80.0,86.0
280,191.06428458125,191.22625633125,82.0,83.0
281,191.27555208125,191.43224214375,80.0,82.0
282,191.48681958125002,191.84773489375,84.0,85.0
283,191.90935458125,192.13822770625,75.0,74.0
284,192.33188958125,192.62062183125,75.0,89.0
285,192.75442458125002,193.17695958125,77.0,84.0
286,193.17695958125,194.02202958125002,75.0,75.0
287,194.44456458125,194.57660676875003,77.0,86.0
288,194.65583208125,194.82660664374998,79.0,80.0
289,194.86709958125,195.18047970625,80.0,82.0
290,195.28963458125,195.62238089375,80.0,81.0
291,195.71216958125,196.03259195625,80.0,81.0
292,196.13470458125,196.30195801874999,79.0,83.0
293,196.34597208125,197.48153489375,80.0,81.0
294,197.82484458125,197.97801351875,77.0,84.0
295,198.03611208125,198.17343595625,79.0,76.0
296,198.24737958125002,198.55899914375,80.0,82.0
297,198.66991458125,199.00794258125,80.0,81.0
298,199.09244958125,199.42167476875,80.0,82.0
299,199.51498458125002,199.83540695624998,79.0,86.0
300,199.93751958125,200.70864595625,80.0,82.0
301,200.78258958125002,201.50265964375,82.0,82.0
302,201.62765958125,201.96744814375,80.0,82.0
303,202.05019458125003,202.37765920625,79.0,87.0
304,202.47272958125,202.77202520625002,80.0,82.0
305,202.89526458125,203.58892620625,75.0,84.0
306,203.74033458125,204.05371470625,72.0,86.0
307,204.16286958125,204.47272858125,72.0,89.0
308,204.58540458125,204.87237626875,82.0,82.0
309,205.00793958125,205.30547464375002,82.0,82.0
310,205.43047458125,205.71920683125,80.0,82.0
311,205.85300958125,206.17167139375,82.0,82.0
312,206.27554458125002,206.92871326875002,75.0,91.0
313,207.12061458125,207.41286795625,72.0,86.0
314,207.54314958125002,207.82660014375,72.0,87.0
315,207.96568458125,208.20336051875,84.0,82.0
316,208.38821958124998,208.72800814375,84.0,84.0
317,208.81075458125002,208.92167001875,82.0,80.0
318,209.02202208125,209.52906408125,82.0,84.0
319,209.65582458125,209.96568358125,80.0,81.0
320,210.07835958125,210.42342983125002,80.0,79.0
321,210.50089458125,210.76497895625,82.0,79.0
322,210.92342958125,211.26497870625002,80.0,78.0
323,211.34596458125,211.80018970625002,84.0,82.0
324,211.76849958125,212.06251351875,82.0,82.0
325,212.19103458125,212.59420339375,82.0,82.0
326,212.61356958125,212.92871026875002,82.0,82.0
327,213.03610458125002,213.63997751875002,80.0,86.0
328,214.30370958125002,214.61708970625,80.0,89.0
329,214.72624458125,214.90230083125,82.0,86.0
330,214.93751208125002,215.14349789375,80.0,83.0
331,215.14877958124998,215.51321601875,84.0,85.0
332,215.57131458125002,215.87589189375,77.0,84.0
333,215.99384958125,216.29666633125,77.0,81.0
334,216.41638458124999,217.44279251875003,77.0,91.0
335,217.68398958125,218.02377814375,80.0,86.0
336,218.10652458125,218.26849633125,82.0,83.0
337,218.31779208125,218.47448214375,80.0,82.0
338,218.52905958125,218.88997489375,84.0,85.0
339,218.95159458125,219.18046770625,75.0,74.0
340,219.37412958125,219.66286183124998,75.0,89.0
341,219.79666458125,220.21919958125,77.0,84.0
342,220.21919958125,221.06426958125002,75.0,75.0
343,221.48680458125,221.90053676875,72.0,87.0
344,221.90933958125,222.33363514375,73.0,81.0
345,222.33187458125002,222.79842364375,72.0,82.0
346,222.75440958125,223.23504314375,73.0,85.0
347,223.17694458124998,223.62764858125,75.0,82.0
348,223.59947958125002,224.59067626875,77.0,80.0
349,224.86708458125,225.29138014375002,72.0,80.0
350,225.28961958125,225.71743626875002,73.0,83.0
351,225.71215458125,226.20335151875,72.0,80.0
352,226.13468958125,226.53257670624998,73.0,87.0
353,226.55722458125,226.94630889375,75.0,86.0
354,226.97975958125,227.71215358125,77.0,80.0
355,227.82482958125001,228.55898414375002,79.0,84.0
356,228.66989958125,231.94102470625,80.0,80.0
357,235.43045958125,235.77024814375,80.0,82.0
358,235.85299458125002,236.18045920625,79.0,87.0
359,236.27552958125,236.57482520625,80.0,82.0
360,236.69806458125,237.39172620625,75.0,84.0
361,237.54313458125,237.85651470625,72.0,86.0
362,237.96566958125,238.27552858125,72.0,89.0
363,238.38820458125,238.67517626875,82.0,82.0
364,238.81073958125,239.10827464375,82.0,82.0
365,239.23327458125001,239.52200683125,80.0,82.0
366,239.65580958125,239.97447139375,82.0,82.0
367,240.07834458125,240.73151326875,75.0,91.0
368,240.92341458125,241.21566795625,72.0,86.0
369,241.34594958125,241.62940014375,72.0,87.0
370,241.76848458125,242.00616051875,84.0,82.0
371,242.19101958125,242.53080814375,84.0,84.0
372,242.61355458125,242.72447001875,82.0,80.0
373,242.82482208125,243.33186408125,82.0,84.0
374,243.45862458125,243.76848358125,80.0,81.0
375,243.88115958125002,244.22622983125,80.0,79.0
376,244.30369458125,244.56777895625,82.0,79.0
377,244.72622958125,245.06777870625,80.0,78.0
378,245.14876458125,245.60298970625,84.0,82.0
379,245.57129958125,245.86531351875,82.0,82.0
380,245.99383458125,246.39700339375,82.0,82.0
381,246.41636958125,246.73151026875001,82.0,82.0
382,246.83890458125,247.44277751875,80.0,86.0
383,248.10650958125,248.41988970625,80.0,89.0
384,248.52904458125,248.70510083125,82.0,86.0
385,248.74031208125,248.94629789375,80.0,83.0
386,248.95157958125,249.31601601875,84.0,85.0
387,249.37411458125,249.67869189375,77.0,84.0
388,249.79664958125,250.09946633125,77.0,81.0
389,250.21918458125,251.24559251875002,77.0,91.0
390,251.48678958125,251.82657814375,80.0,86.0
391,251.90932458125,252.07129633125,82.0,83.0
392,252.12059208125,252.27728214375,80.0,82.0
393,252.33185958125,252.69277489375,84.0,85.0
394,252.75439458125,252.98326770625,75.0,74.0
395,253.17692958125,253.46566183125,75.0,89.0
396,253.59946458125,254.02199958125001,77.0,84.0
397,254.02199958125001,254.86706958125,75.0,75.0
398,255.28960458125,255.70333676875,72.0,87.0
399,255.71213958125,256.13643514374996,73.0,81.0
400,256.13467458125,256.60122364375,72.0,82.0
401,256.55720958125,257.03784314375,73.0,85.0
402,256.97974458125,257.43044858125,75.0,82.0
403,257.40227958125,258.39347626874996,77.0,80.0
404,258.66988458125,259.09418014375,72.0,80.0
405,259.09241958125,259.52023626875,73.0,83.0
406,259.51495458125,260.00615151875,72.0,80.0
407,259.93748958125,260.33537670625003,73.0,87.0
408,260.36002458125,260.74910889374996,75.0,86.0
409,260.78255958125,261.51495358125,77.0,80.0
410,261.62762958125,262.36178414375,79.0,84.0
411,262.47269958125,265.74382470625,80.0,80.0
