,start,end,pitch,velocity
0,0.6355630624999999,1.02112625,56.0,68.0
1,0.93661925,1.5369710625,63.0,69.0
2,1.292252875,2.0580975625,56.0,66.0
3,1.6672526875,2.4911959375,63.0,69.0
4,0.2447181875,2.9031675624999997,44.0,80.0
5,2.0052806875,2.9031675624999997,51.0,65.0
6,2.3609143125,3.0721815625,56.0,71.0
7,2.7271113125,3.242956125,63.0,50.0
8,3.482392625,4.0968289375,58.0,68.0
9,4.0985895,4.732392,55.0,57.0
10,3.8151389375,4.996476375,63.0,78.0
11,4.8045750625,5.5809831249999995,55.0,63.0
12,4.4489414375,5.7323915,67.0,70.0
13,3.137322375,5.7482365625,48.0,81.0
14,5.1637298125,6.2200673125,58.0,67.0
15,5.637321125,7.3292216875,63.0,51.0
16,7.257038625,7.78168625,53.0,74.0
17,6.566898125,7.8292214375,48.0,69.0
18,6.9383768125,8.0440100625,56.0,73.0
19,6.24647575,8.9137279375,41.0,81.0
20,7.9911931874999995,8.95069975,48.0,58.0
21,8.73239,9.1073898125,53.0,69.0
22,8.397883125,9.1531644375,56.0,71.0
23,7.651404625,9.19013625,60.0,76.0
24,9.5158403125,10.0862625625,55.0,66.0
25,9.8855584375,10.721825625,63.0,70.0
26,10.2764033125,12.1425995625,55.0,61.0
27,10.6619665,12.1742896875,60.0,72.0
28,9.1285165625,12.183092499999999,48.0,83.0
29,10.647882,12.253515,67.0,73.0
30,12.3820360625,12.4735853125,37.0,80.0
31,12.3820360625,12.684852812499999,56.0,75.0
32,12.3820360625,12.771120375,65.0,80.0
33,13.015838562499999,13.5686551875,56.0,77.0
34,12.804571062499999,13.595063625,49.0,74.0
35,13.438373562499999,13.6003453125,61.0,80.0
36,14.0721760625,14.6425983125,63.0,71.0
37,14.0721760625,14.672527875,60.0,68.0
38,14.4947110625,14.9947108125,55.0,65.0
39,14.9172460625,15.0334431875,63.0,76.0
40,14.9172460625,15.0404854375,67.0,72.0
41,14.9172460625,15.04928825,60.0,79.0
42,14.0721760625,15.0862600625,48.0,81.0
43,15.7623160625,16.207738374999998,58.0,74.0
44,15.7623160625,16.285203125,61.0,75.0
45,16.3961185625,16.848583125,58.0,85.0
46,16.8186535625,16.9524563125,61.0,76.0
47,16.8186535625,17.0228788125,65.0,80.0
48,16.184851062499998,17.2728786875,53.0,72.0
49,15.7623160625,17.3080899375,46.0,80.0
50,17.4524560625,17.859146,58.0,58.0
51,17.4524560625,18.123230375,61.0,73.0
52,17.4524560625,18.1549205,65.0,68.0
53,17.4524560625,18.517596375,46.0,81.0
54,18.2975260625,18.538723125,58.0,70.0
55,18.2975260625,18.5492865,61.0,76.0
56,18.2975260625,18.5774555,65.0,80.0
57,19.1425960625,19.2376664375,39.0,82.0
58,19.1425960625,19.454215625,58.0,73.0
59,19.1425960625,19.5369620625,63.0,79.0
60,20.1989335625,20.510553125,63.0,81.0
61,20.4102010625,20.735905125,68.0,71.0
62,19.9876660625,21.0616091875,58.0,82.0
63,20.8327360625,21.6144258125,63.0,70.0
64,20.8327360625,21.741186312499998,68.0,76.0
65,19.5651310625,22.017594625,51.0,79.0
66,21.2552710625,22.0228763125,58.0,73.0
67,21.6778060625,22.0510453125,70.0,75.0
68,21.6778060625,22.07745375,63.0,60.0
69,22.5228760625,23.2447066875,67.0,64.0
70,22.5228760625,23.267594,63.0,68.0
71,22.5228760625,23.3890728125,75.0,80.0
72,23.3679460625,23.9383683125,67.0,60.0
73,23.3679460625,24.0686499375,70.0,52.0
74,22.5228760625,25.5193534375,39.0,81.0
75,24.2130160625,25.7869589375,67.0,66.0
76,24.2130160625,25.827451875,70.0,62.0
77,25.917240562499998,26.327451625,68.0,69.0
78,25.85209975,26.4806205625,63.0,68.0
79,25.7940011875,26.48590225,60.0,72.0
80,25.72533925,26.552803625,56.0,61.0
81,26.71125425,26.778155625,60.0,73.0
82,26.2869586875,26.80984575,51.0,50.0
83,26.7094936875,26.830972499999998,63.0,74.0
84,25.8256913125,26.8397753125,44.0,80.0
85,27.434845437499998,28.02111275,60.0,68.0
86,27.503507374999998,28.4101970625,64.0,70.0
87,27.5651270625,28.426042125,67.0,68.0
88,27.947169125,28.4594928125,55.0,67.0
89,27.5299158125,28.55632375,48.0,73.0
90,28.3996336875,28.5616054375,60.0,76.0
91,29.0686474375,29.5792105625,60.0,41.0
92,29.2253375,30.128506062499998,65.0,64.0
93,29.700689375,30.13378775,48.0,56.0
94,30.07744975,30.1707595625,60.0,68.0
95,29.2411825625,30.2024496875,68.0,72.0
96,29.2535065,30.2059708125,41.0,71.0
97,30.7939986875,31.2200548125,63.0,50.0
98,30.8749845625,31.2763928125,66.0,74.0
99,30.901393,31.397871625,70.0,73.0
100,30.9172380625,31.440125124999998,39.0,82.0
101,31.7799136875,32.3890683125,44.0,81.0
102,31.746463,32.5545611875,63.0,58.0
103,31.7834348125,32.5756879375,66.0,67.0
104,32.61265975,33.172518625,56.0,68.0
105,32.6214625625,33.207729875,61.0,73.0
106,32.64082875,33.4735748125,65.0,81.0
107,33.4788565,33.6108986875,56.0,65.0
108,33.045758125,33.6285043125,44.0,42.0
109,33.4806170625,33.65491275,61.0,62.0
110,32.637307625,33.6848423125,37.0,76.0
111,34.30279975,34.8309685,63.0,68.0
112,34.35913775,35.1954049375,67.0,65.0
113,34.76758825,35.2130105625,46.0,55.0
114,34.3749828125,35.2270950625,39.0,79.0
115,35.19012325,35.3679400625,63.0,68.0
116,35.78167225,36.080967875,63.0,47.0
117,35.90843275,36.1954044375,68.0,52.0
118,36.0123059375,36.3116015625,72.0,60.0
119,36.8432914375,37.306319375,58.0,68.0
120,37.264065875,37.5193474375,60.0,74.0
121,36.450686,37.8045585625,51.0,47.0
122,35.9911791875,38.123220375,44.0,71.0
123,37.672516375,38.2376569375,63.0,77.0
124,37.66899525,38.3749808125,56.0,72.0
125,37.665474125,38.3820230625,60.0,76.0
126,38.52814975,38.8292059375,56.0,76.0
127,38.961248125,39.04927625,58.0,82.0
128,39.8115998125,40.40138825,55.0,57.0
129,39.418994375,40.7306134375,60.0,76.0
130,39.4031493125,40.86617675,64.0,72.0
131,40.2446981875,40.8855429375,67.0,87.0
132,40.911951375,41.075683687499996,60.0,67.0
133,40.9946978125,41.0792048125,64.0,68.0
134,41.010542875,41.1637118125,67.0,68.0
135,41.073923125,41.304556812499996,72.0,80.0
136,40.6461064375,41.92251425,55.0,62.0
137,41.9013875,42.02110575,64.0,79.0
138,41.9066691875,42.028148,60.0,80.0
139,39.4031493125,42.073922625,48.0,80.0
140,41.8961058125,42.140824,70.0,76.0
141,42.760542,43.2693445625,65.0,73.0
142,42.7552603125,43.559837375,68.0,69.0
143,43.1689925,43.989414625,48.0,59.0
144,42.7446969375,44.0087808125,41.0,76.0
145,43.616175375,44.1707525625,65.0,87.0
146,44.44363975,45.2130055625,53.0,83.0
147,44.433076375,45.30279425,65.0,79.0
148,44.426034125,45.489413875,68.0,69.0
149,45.693639125,45.8468080625,60.0,78.0
150,46.1267375,46.721807625,61.0,68.0
151,46.1108924375,47.0123004375,58.0,71.0
152,46.957723,47.0897651875,61.0,74.0
153,46.9559624375,47.109131375,65.0,81.0
154,47.8221591875,48.0475111875,70.0,73.0
155,47.82391975,48.059835125,58.0,78.0
156,46.52814575,48.7587784375,53.0,62.0
157,46.1179346875,48.8362431875,46.0,80.0
158,48.679553125,48.848567125,58.0,74.0
159,48.68307425,48.869693874999996,61.0,74.0
160,48.6813136875,48.8855389375,65.0,81.0
161,49.1249754375,49.380257,58.0,80.0
162,49.51405975,49.6284963125,39.0,80.0
163,49.5122991875,49.848566625,58.0,76.0
164,49.519341437499996,50.1953974375,63.0,76.0
165,50.588002875,50.7552563125,63.0,79.0
166,50.8115943125,50.98589,68.0,81.0
167,49.947158125,51.04927025,51.0,76.0
168,50.3996226875,51.052791375,58.0,80.0
169,50.9911716875,51.1003265625,63.0,71.0
170,51.2165236875,51.6953966875,67.0,72.0
171,51.2235659375,51.72532625,63.0,75.0
172,51.200678625,52.1989175625,51.0,82.0
173,52.0686359375,52.3397625625,75.0,81.0
174,52.0615936875,52.3520865,67.0,81.0
175,52.059833125,52.52814275,70.0,80.0
176,52.9453960625,53.3714521875,63.0,75.0
177,52.9453960625,53.3943395,56.0,73.0
178,53.7904660625,53.9277899375,56.0,81.0
179,53.3679310625,54.0017335625,51.0,63.0
180,52.9453960625,54.0122969375,44.0,79.0
181,53.7904660625,54.179550375,60.0,81.0
182,54.2130010625,54.2975080625,56.0,76.0
183,54.6355360625,55.11969075,64.0,73.0
184,54.6355360625,55.16194425,60.0,76.0
185,55.0580710625,55.6038454375,55.0,71.0
186,55.4806060625,55.7165214375,64.0,74.0
187,54.6355360625,55.73940875,48.0,79.0
188,55.4806060625,55.78166225,67.0,73.0
189,55.4806060625,55.799267875,60.0,76.0
190,56.3256760625,56.7270843125,65.0,77.0
191,56.3256760625,56.760535,60.0,71.0
192,56.3256760625,56.809830749999996,68.0,74.0
193,57.1707460625,57.380252999999996,60.0,81.0
194,56.7482110625,57.642576812499996,48.0,56.0
195,57.1707460625,57.6601824375,65.0,82.0
196,56.3256760625,57.700675374999996,41.0,80.0
197,57.5932810625,57.7975063125,60.0,80.0
198,58.0158160625,58.2975060625,51.0,84.0
199,58.0158160625,58.4559566875,61.0,81.0
200,58.0158160625,58.7411678125,66.0,80.0
201,58.8608860625,59.2834210625,63.0,80.0
202,58.8608860625,59.369688625,44.0,81.0
203,58.8608860625,59.40137875,68.0,77.0
204,59.2834210625,59.418984375,51.0,74.0
205,59.7059560625,60.2394065,65.0,80.0
206,59.7059560625,60.2728571875,61.0,74.0
207,60.5510260625,60.7306034375,61.0,82.0
208,60.5510260625,60.8855329375,65.0,87.0
209,60.1284910625,60.9629976875,56.0,67.0
210,59.7059560625,60.973561062499996,49.0,83.0
211,60.5510260625,61.0122934375,68.0,80.0
212,60.973561062499996,61.1425750625,61.0,66.0
213,61.3960960625,61.8010254375,67.0,75.0
214,61.3960960625,61.830954999999996,63.0,69.0
215,61.3960960625,62.2834195625,51.0,84.0
216,61.818631062499996,62.2834195625,58.0,61.0
217,62.2411660625,62.72532075,63.0,82.0
218,62.663701062499996,62.9524333125,67.0,82.0
219,63.0862360625,63.5791935625,60.0,75.0
220,63.0862360625,63.8450385,68.0,73.0
221,63.508771062499996,64.0052496875,48.0,60.0
222,63.9313060625,64.017573625,65.0,85.0
223,63.0862360625,64.0334186875,41.0,80.0
224,63.9313060625,64.0475031875,60.0,82.0
225,64.7763760625,65.0897561875,63.0,74.0
226,64.7763760625,65.1953899375,66.0,79.0
227,64.7763760625,65.3503194375,51.0,81.0
228,64.7763760625,65.4313053125,44.0,80.0
229,65.6214460625,66.0967979375,53.0,83.0
230,65.6214460625,66.3115865625,60.0,80.0
231,65.6214460625,66.355600625,65.0,82.0
232,66.4665160625,67.126727,61.0,70.0
233,66.4665160625,67.14785375,58.0,72.0
234,66.8890510625,68.2411630625,53.0,69.0
235,67.3115860625,68.4559516875,58.0,73.0
236,67.7341210625,68.5334164375,61.0,78.0
237,68.5791910625,69.095035875,53.0,62.0
238,66.4665160625,69.183064,46.0,81.0
239,69.0017260625,69.271092125,58.0,84.0
240,69.0017260625,69.278134375,61.0,84.0
241,69.4242610625,69.57742999999999,46.0,83.0
242,69.8467960625,70.454190125,63.0,80.0
243,69.8467960625,70.45595068749999,60.0,80.0
244,69.8467960625,70.5122886875,67.0,73.0
245,70.2693310625,70.8186265625,55.0,69.0
246,70.6918660625,71.1953869375,60.0,76.0
247,69.8467960625,71.3379925,48.0,82.0
248,71.1144010625,71.380246,55.0,66.0
249,71.5369360625,71.802781,60.0,73.0
250,71.5369360625,72.123203375,65.0,78.0
251,71.9594710625,72.2059498125,60.0,76.0
252,71.5369360625,72.4770764375,53.0,85.0
253,72.3820060625,72.5721468125,65.0,81.0
254,72.3820060625,72.61263975,60.0,81.0
255,72.3820060625,72.62672425,68.0,76.0
256,73.2270760625,73.3327098125,37.0,80.0
257,73.2270760625,73.5122871875,56.0,78.0
258,73.2270760625,73.5932730625,61.0,76.0
259,74.2834135625,74.5580613125,61.0,91.0
260,74.0721460625,74.7059485625,56.0,87.0
261,74.49468106249999,74.7376386875,65.0,84.0
262,73.6496110625,74.76756825,49.0,79.0
263,74.9172160625,75.0017230625,38.0,80.0
264,74.9172160625,75.30277925,62.0,70.0
265,74.9172160625,75.3045398125,65.0,82.0
266,74.9172160625,75.39784962499999,68.0,77.0
267,75.3397510625,75.80630012499999,50.0,63.0
268,75.5510185625,75.86615925,56.0,74.0
269,75.7622860625,76.0298915625,62.0,82.0
270,75.9735535625,76.1108774375,65.0,80.0
271,76.6073560625,77.13376425,67.0,76.0
272,76.6073560625,77.151369875,63.0,78.0
273,77.0298910625,77.5351725,58.0,80.0
274,76.6073560625,77.58446825,51.0,85.0
275,77.4524260625,77.7094681875,67.0,80.0
276,77.4524260625,77.9524258125,70.0,81.0
277,78.2974960625,78.376721375,39.0,81.0
278,78.2974960625,78.54573537499999,75.0,81.0
279,77.8749610625,78.552777625,63.0,82.0
280,78.2974960625,78.5756649375,67.0,84.0
281,78.5087635625,78.5827071875,51.0,71.0
282,78.2974960625,78.60188933333333,70.0,83.0
283,78.92767294166667,79.1802859,63.0,87.0
284,79.13673194166667,79.373665475,65.0,91.0
285,78.71861394166667,79.43812533333333,58.0,85.0
286,79.34579094166666,79.47819497500001,67.0,96.0
287,78.71861394166667,79.57052936666666,51.0,66.0
288,79.55484994166667,79.781330525,68.0,81.0
289,79.78307268333333,79.84230606666667,70.0,55.0
290,79.97296794166667,80.42448765416667,63.0,80.0
291,79.97296794166667,80.49314959166666,56.0,81.0
292,80.81533252916667,80.97730427916667,56.0,82.0
293,80.81533252916667,80.98434652916667,60.0,82.0
294,81.23786752916666,81.39455759166667,56.0,58.0
295,80.39279752916667,81.76251515416666,51.0,72.0
296,79.97296794166667,81.88927565416667,44.0,81.0
297,81.66040252916667,81.97202209166667,63.0,81.0
298,81.66040252916667,82.41920496666667,56.0,82.0
299,82.08293752916667,82.84878221666666,44.0,65.0
300,82.08293752916667,82.87166952916667,51.0,75.0
301,82.50547252916667,82.93152865416667,60.0,84.0
302,82.50547252916667,82.98082440416667,63.0,83.0
303,82.50547252916667,83.01075396666667,68.0,70.0
304,82.92800752916666,83.01779621666667,56.0,87.0
305,83.35054252916667,83.80652821666666,63.0,81.0
306,83.35054252916667,83.82589440416668,67.0,80.0
307,83.35054252916667,83.83645777916666,60.0,82.0
308,83.77307752916667,84.32237302916667,55.0,68.0
309,84.19561252916667,84.43504902916666,63.0,77.0
310,84.19561252916667,84.43680959166667,60.0,76.0
311,84.61814752916666,85.05476702916667,55.0,46.0
312,85.04068252916667,85.37342884166667,60.0,81.0
313,85.04068252916667,85.41392177916667,63.0,81.0
314,85.04068252916667,85.42448515416667,67.0,82.0
315,85.46321752916667,86.00723134166667,55.0,80.0
316,83.35054252916667,86.06356934166666,48.0,82.0
317,85.88575252916667,86.10582284166667,60.0,81.0
318,85.88575252916667,86.14455521666667,63.0,81.0
319,86.30828752916666,86.42976634166666,48.0,81.0
320,86.30828752916666,86.55476627916667,60.0,58.0
321,86.73082252916667,86.85758302916668,41.0,82.0
322,86.73082252916667,87.10406177916667,65.0,81.0
323,86.73082252916667,87.14807584166667,68.0,77.0
324,87.57589252916667,87.91039940416667,65.0,80.0
325,87.57589252916667,87.92272334166667,68.0,80.0
326,87.57589252916667,87.93856840416667,72.0,80.0
327,87.99842752916666,88.54596246666667,60.0,69.0
328,88.42096252916667,89.04244109166667,65.0,82.0
329,88.42096252916667,89.06884952916667,68.0,81.0
330,87.15335752916667,89.50546902916668,53.0,81.0
331,88.84349752916667,89.60229996666666,60.0,74.0
332,89.26603252916667,89.66039852916667,68.0,87.0
333,89.26603252916667,89.66744077916667,65.0,96.0
334,89.68856752916668,89.83821534166667,53.0,86.0
335,90.11110252916667,90.73434165416667,61.0,85.0
336,90.11110252916667,90.75722896666667,66.0,81.0
337,90.11110252916667,91.10934146666666,51.0,87.0
338,90.53363752916667,91.12342596666667,58.0,80.0
339,90.95617252916666,91.22905971666667,61.0,91.0
340,90.95617252916666,91.31180615416667,66.0,91.0
341,91.37870752916666,91.50018634166668,51.0,84.0
342,91.80124252916667,92.40159434166667,63.0,82.0
343,91.80124252916667,92.50546752916667,66.0,83.0
344,92.22377752916667,92.74666459166667,51.0,83.0
345,92.64631252916666,92.90863634166666,63.0,94.0
346,91.80124252916667,92.93504477916667,44.0,87.0
347,92.85758002916667,93.00370671666667,51.0,85.0
348,92.64631252916666,93.05652359166666,68.0,89.0
349,93.06884752916667,93.32060796666667,63.0,84.0
350,93.28011502916667,93.79595984166667,68.0,80.0
351,93.91391752916667,94.48433977916667,56.0,82.0
352,93.49138252916667,94.59349465416668,49.0,87.0
353,94.33645252916666,94.66743827916667,61.0,81.0
354,94.33645252916666,94.67800165416666,65.0,83.0
355,94.33645252916666,94.72553684166667,68.0,77.0
356,95.18152252916667,95.51778996666667,73.0,80.0
357,94.75898752916667,95.62166315416667,56.0,76.0
358,95.18152252916667,95.65687440416667,68.0,82.0
359,95.18152252916667,95.66391665416667,65.0,89.0
360,96.02659252916666,96.15335302916667,65.0,85.0
361,95.60405752916667,96.15687415416667,49.0,79.0
362,96.02659252916666,96.16391640416667,61.0,81.0
363,96.02659252916666,96.17271921666666,68.0,80.0
364,97.29361070625,97.77606669583334,55.0,70.0
365,96.87166252916667,97.79185616458334,63.0,78.0
366,96.87166252916667,97.81992633125,67.0,72.0
367,97.71466320625001,97.99185610208333,60.0,87.0
368,96.87166252916667,98.0146631125,48.0,80.0
369,97.92518945625001,98.06203151875,55.0,84.0
370,98.13571570625001,98.47606647708334,63.0,81.0
371,98.34624195625001,98.50589102916668,60.0,71.0
372,98.55676820625001,99.11817153958334,60.0,72.0
373,98.55676820625001,99.15852240416667,65.0,75.0
374,98.97782070625,99.51115387291668,48.0,69.0
375,98.55676820625001,99.52518895625,41.0,83.0
376,99.39887320625,99.59185560208334,68.0,76.0
377,99.39887320625,99.59711875833334,60.0,81.0
378,99.39887320625,99.59711875833334,65.0,82.0
379,100.24097820625,100.89360958125,56.0,79.0
380,100.24097820625,100.89536396666668,61.0,79.0
381,100.66203070625001,101.19185510208334,53.0,72.0
382,101.08308320625001,101.43746906041667,56.0,85.0
383,101.08308320625001,101.772556675,61.0,83.0
384,100.24097820625,101.80764438333334,46.0,81.0
385,101.50413570625001,101.86904787291667,53.0,78.0
386,101.92518820625,102.45852137291668,65.0,82.0
387,101.92518820625,102.50764416458334,61.0,82.0
388,102.34624070625,102.89536334166667,53.0,73.0
389,101.92518820625,102.93045105,46.0,82.0
390,102.76729320625,102.96027560208334,61.0,86.0
391,102.76729320625,102.99185453958334,65.0,89.0
392,103.18834570625,103.31466145625001,46.0,81.0
393,103.60939820625,104.18483662291668,39.0,84.0
394,103.60939820625,104.19887170625,63.0,79.0
395,103.60939820625,104.29360851875,67.0,75.0
396,104.45150320625001,104.69009962291668,63.0,91.0
397,104.24097695625001,104.78132766458334,58.0,75.0
398,104.03045070625001,104.94974866458334,51.0,81.0
399,104.87255570625001,105.03045039375,58.0,84.0
400,104.66202945625001,105.08132757083334,70.0,84.0
401,105.08308195625001,105.25150295625001,63.0,83.0
402,105.29360820625001,105.71290632083334,63.0,66.0
403,105.29360820625001,105.71641509166668,75.0,80.0
404,105.29360820625001,105.77255542500001,67.0,81.0
405,105.29360820625001,105.84273084166668,70.0,82.0
406,105.92518695625,106.03045008125001,63.0,80.0
407,105.29360820625001,106.04623955000001,51.0,86.0
408,105.71466070625,106.04974832083334,58.0,80.0
409,106.13571320625,106.34799384166668,51.0,87.0
410,106.13571320625,106.40764294583335,58.0,84.0
411,106.13571320625,106.42172126875,75.0,86.0
412,106.13571320625,106.44812970625,67.0,89.0
413,106.13571320625,106.47629870625,70.0,86.0
414,106.13571320625,106.49214376875001,63.0,86.0
415,106.55728458125,106.64179158125,51.0,82.0
416,106.97981958125001,107.45341089375,56.0,79.0
417,106.97981958125001,107.46925595625001,60.0,75.0
418,107.40235458125001,107.93052333125,51.0,74.0
419,106.97981958125001,107.98334020625,44.0,82.0
420,107.82488958125,107.99566414375,56.0,81.0
421,107.82488958125,107.99918526875001,60.0,81.0
422,107.82488958125,107.99918526875001,63.0,80.0
423,108.24742458125,108.82664964375,51.0,69.0
424,108.66995958125001,109.16819876875,60.0,82.0
425,108.66995958125001,109.34953670625,63.0,81.0
426,109.30376208125,109.44284651875,56.0,78.0
427,109.09249458125001,109.68052245625,44.0,78.0
428,109.51502958125,109.72277595625,60.0,89.0
429,109.51502958125,109.76150833125,63.0,85.0
430,109.51502958125,109.76679001875,68.0,81.0
431,109.72629708125001,109.83721251875001,51.0,86.0
432,109.93756458125,110.06432508125,44.0,82.0
433,110.36009958125001,110.89355001875,60.0,82.0
434,110.36009958125001,110.89355001875,63.0,80.0
435,110.78263458125001,111.32840895625,55.0,75.0
436,111.20516958125,111.60305670625,60.0,81.0
437,111.20516958125,111.61009895625,63.0,82.0
438,111.20516958125,111.61009895625,67.0,80.0
439,110.36009958125001,111.75798620625001,48.0,80.0
440,111.62770458125,112.18404233125,55.0,63.0
441,112.05023958125001,112.49214076875,60.0,81.0
442,112.05023958125001,112.56256326875001,63.0,81.0
443,112.05023958125001,112.75094345625,67.0,80.0
444,112.68404208125,112.80904201875,60.0,80.0
445,112.89530958125,113.17523901875,60.0,84.0
446,112.89530958125,113.20692914375,63.0,86.0
447,113.10657708125001,113.24390095625,55.0,89.0
448,112.89530958125,113.41643608125,67.0,83.0
449,113.31784458125,113.59249233125,60.0,87.0
450,113.74037958125001,114.17523851875,65.0,80.0
451,113.74037958125001,114.22629483125,60.0,81.0
452,114.58544958125,114.79495651875001,60.0,81.0
453,114.58544958125,114.88122408125001,68.0,80.0
454,114.58544958125,114.93580151875001,65.0,85.0
455,114.16291458125,115.01502683125,48.0,64.0
456,113.74037958125001,115.17523801875001,41.0,84.0
457,115.00798458125,115.29143514375001,60.0,75.0
458,115.43051958125001,115.94988551875001,68.0,79.0
459,115.43051958125001,115.99389958125,65.0,83.0
460,115.43051958125001,115.99566014375,60.0,82.0
461,116.27558958125,116.47981483125001,60.0,85.0
462,115.85305458125,116.49213876875001,48.0,80.0
463,116.27558958125,116.49918101875001,65.0,86.0
464,115.43051958125001,116.50622326875,41.0,86.0
465,116.27558958125,116.55023733125,68.0,81.0
466,116.69812458125,116.98861739375,41.0,82.0
467,117.12065958125001,117.75974376875001,61.0,84.0
468,117.12065958125001,117.76326489375,66.0,81.0
469,117.54319458125,118.03439151875,58.0,80.0
470,117.12065958125001,118.17171539375,51.0,87.0
471,117.96572958125,118.19460270625001,61.0,91.0
472,117.96572958125,118.23333508125,66.0,96.0
473,118.17699708125001,118.29847589375001,58.0,85.0
474,118.38826458125001,118.48861664375,51.0,86.0
475,118.81079958125001,119.28615145625001,63.0,82.0
476,118.81079958125001,119.37241901875001,68.0,82.0
477,119.44460208125001,119.53263020625,63.0,82.0
478,119.23333458125,119.74741883125,51.0,85.0
479,119.65586958125,119.86009483125001,63.0,89.0
480,119.65586958125,119.86009483125001,68.0,85.0
481,118.81079958125001,119.98333420625,44.0,84.0
482,119.86713708125001,120.00093983125001,51.0,87.0
483,120.07840458125,120.21924958125001,63.0,77.0
484,120.07840458125,120.33544670625001,66.0,74.0
485,120.50093958125001,120.84600983125,37.0,80.0
486,120.50093958125001,121.38298139375,61.0,81.0
487,120.50093958125001,121.42699545625001,65.0,81.0
488,121.55727708125,121.82488258125001,61.0,80.0
489,121.76854458125001,121.91643183125001,65.0,87.0
490,121.34600958125,122.38122033125,56.0,84.0
491,122.19107958125001,122.71924833125,68.0,79.0
492,122.19107958125001,122.74917789375,61.0,84.0
493,122.61361458125,123.12065658125,56.0,68.0
494,123.03614958125,123.23685370625,65.0,86.0
495,123.03614958125,123.25269876875001,61.0,82.0
496,120.92347458125,123.31960014375001,49.0,80.0
497,123.24741708125,123.38474095625,56.0,77.0
498,123.45868458125,123.61185351875001,49.0,83.0
499,123.88121958125001,124.28438839375,60.0,80.0
500,123.88121958125001,124.34776864375,63.0,80.0
501,123.88121958125001,124.39178270625001,67.0,73.0
502,123.88121958125001,124.91114864375001,48.0,82.0
503,124.30375458125,124.91290920625,55.0,64.0
504,124.72628958125,124.95692326875,58.0,82.0
505,124.72628958125,124.97276833125001,63.0,83.0
506,124.72628958125,125.02910633125,67.0,81.0
507,125.14882458125001,125.26678226875,48.0,82.0
508,125.57135958125001,126.06959876875001,68.0,79.0
509,125.57135958125001,126.08720439375,65.0,80.0
510,125.57135958125001,126.11713395625,60.0,76.0
511,125.99389458125,126.52910558125001,48.0,71.0
512,125.57135958125001,126.56255626875,41.0,81.0
513,126.41642958125,126.56431683125001,65.0,85.0
514,126.41642958125,126.60128864375001,60.0,82.0
515,127.26149958125,127.79671058125001,56.0,79.0
516,127.26149958125,127.80023170625,61.0,77.0
517,127.68403458125,128.32840045625,53.0,68.0
518,128.10656958125,128.50445670625,56.0,78.0
519,128.10656958125,128.71044251875,61.0,79.0
520,128.52910458125,129.08896345625,53.0,71.0
521,128.95163958125,129.37417458125,65.0,80.0
522,128.95163958125,129.39530133125,61.0,71.0
523,129.37417458125,129.87593489375,53.0,69.0
524,127.26149958125,129.92875176875,46.0,81.0
525,129.79670958125,129.99741370625,65.0,82.0
526,129.79670958125,130.00797708125,58.0,81.0
527,129.79670958125,130.01149820625,61.0,86.0
528,130.21924458125,130.36713183125,46.0,80.0
529,130.64177958125,130.74213164375,39.0,80.0
530,130.64177958125,130.96572308125002,58.0,71.0
531,130.64177958125,131.05727233125,63.0,77.0
532,130.64177958125,131.21924408125,67.0,71.0
533,131.90938458125,132.26853933125,63.0,86.0
534,131.48684958125,132.53086314375,58.0,87.0
535,132.33191958125002,132.77910245625,67.0,73.0
536,132.33191958125002,132.90762351875,70.0,77.0
537,132.75445458125,133.31079233125,58.0,67.0
538,131.06431458125002,133.34952470625,51.0,80.0
539,133.17698958125,133.44635564375,75.0,81.0
540,133.17698958125,133.57839783125002,67.0,81.0
541,133.17698958125,133.59072176875,70.0,77.0
542,133.59952458125,133.73156676875,63.0,76.0
543,134.02205958125,134.90234083125,61.0,80.0
544,134.02205958125,135.05022808125,65.0,80.0
545,135.07839708125002,135.37769270625,61.0,80.0
546,134.02205958125,135.52205883125,49.0,86.0
547,134.86712958125,135.58191795625,56.0,82.0
548,135.28966458125,135.61360808125,65.0,77.0
549,135.71219958125,135.98508676875,63.0,79.0
550,135.71219958125,136.17346695625,67.0,82.0
551,136.13473458125,136.41642458125,63.0,74.0
552,135.92346708125,136.67698783125002,58.0,67.0
553,136.34600208125,136.96219895625,67.0,89.0
554,135.71219958125,137.04318483125002,51.0,85.0
555,136.97980458125,137.07487495625,58.0,77.0
556,137.40233958125,137.62064933125,65.0,77.0
557,137.40233958125,137.77029714375,68.0,75.0
558,137.82487458125001,137.95163508125,65.0,80.0
559,138.03614208125,138.62064883125,68.0,80.0
560,138.03614208125,138.63297276875,65.0,81.0
561,137.61360708125,138.80550789375002,48.0,76.0
562,137.40233958125,138.92522614375,41.0,84.0
563,139.09247958125002,139.34071889375002,65.0,82.0
564,139.09247958125002,139.40938083125002,72.0,80.0
565,139.51501458125,139.61184551875,65.0,76.0
566,139.30374708125,140.08895795625,48.0,73.0
567,139.09247958125002,140.13473258125,41.0,85.0
568,139.72628208125002,140.15409876875,65.0,82.0
569,139.72628208125002,140.19635226875,68.0,81.0
570,140.78261958125,141.03261945625002,61.0,77.0
571,140.78261958125,141.10128139375,68.0,76.0
572,141.20515458125,141.32311226875,61.0,94.0
573,140.99388708125002,141.55022483125,56.0,82.0
574,141.41642208125,142.11712595625,61.0,91.0
575,141.41642208125,142.15409776875,65.0,91.0
576,140.78261958125,142.22804139375,49.0,81.0
577,142.47275958125,142.67874539375,63.0,81.0
578,142.47275958125,142.81254814375,67.0,77.0
579,142.89529458125,143.00621001875,63.0,82.0
580,142.68402708125,143.17346345625,58.0,76.0
581,142.47275958125,143.54494214375,51.0,86.0
582,143.10656208125,143.61008295625,67.0,85.0
583,143.10656208125,143.61888576875,63.0,85.0
584,144.16289958125,144.28085726875,68.0,74.0
585,144.16289958125,144.30198401875,65.0,80.0
586,144.58543458125,144.72627958125,53.0,81.0
587,144.79670208125,144.84423726875002,53.0,65.0
588,144.79670208125,145.08191320625002,56.0,85.0
589,145.21923708125001,145.33543420625,53.0,81.0
590,145.21923708125001,145.33719476875,60.0,78.0
591,144.37416708125,145.52205383125,48.0,71.0
592,144.16289958125,145.71571570625,41.0,82.0
593,145.85303958125002,146.32663089375,65.0,82.0
594,145.85303958125002,146.49388433125,53.0,80.0
595,147.12064458125002,147.48684158125002,53.0,79.0
596,146.69810958125,147.48684158125002,56.0,81.0
597,145.85303958125002,147.50796833125,41.0,85.0
598,146.69810958125,147.50972889375,60.0,79.0
599,147.54317958125,147.96923570625,63.0,75.0
600,147.54317958125,147.99212301875002,56.0,73.0
601,148.38824958125002,148.52557345625002,56.0,81.0
602,147.96571458125,148.59951708125,51.0,63.0
603,147.54317958125,148.61008045625,44.0,79.0
604,148.38824958125002,148.77733389375,60.0,81.0
605,148.81078458125,148.89529158125,56.0,76.0
606,149.23331958125002,149.71747426875,64.0,73.0
607,149.23331958125002,149.75972776875,60.0,76.0
608,149.65585458125,150.20162895625,55.0,71.0
609,150.07838958125,150.31430495625,64.0,74.0
610,149.23331958125002,150.33719226875002,48.0,79.0
611,150.07838958125,150.37944576875,67.0,73.0
612,150.07838958125,150.39705139375002,60.0,76.0
613,150.92345958125,151.32486783125,65.0,77.0
614,150.92345958125,151.35831851875,60.0,71.0
615,150.92345958125,151.40761426875,68.0,74.0
616,151.76852958125,151.97803651875,60.0,81.0
617,151.34599458125,152.24036033125,48.0,56.0
618,151.76852958125,152.25796595625002,65.0,82.0
619,150.92345958125,152.29845889375,41.0,80.0
620,152.19106458125,152.39528983125,60.0,80.0
621,152.61359958125,152.89528958125,51.0,84.0
622,152.61359958125,153.05374020625,61.0,81.0
623,152.61359958125,153.33895133125,66.0,80.0
624,153.45866958125,153.88120458125002,63.0,80.0
625,153.45866958125,153.96747214375,44.0,81.0
626,153.45866958125,153.99916226875,68.0,77.0
627,153.88120458125002,154.01676789375,51.0,74.0
628,154.30373958125,154.83719001875,65.0,80.0
629,154.30373958125,154.87064070625001,61.0,74.0
630,155.14880958125002,155.32838695625,61.0,82.0
631,155.14880958125002,155.48331645625,65.0,87.0
632,154.72627458125,155.56078120625,56.0,67.0
633,154.30373958125,155.57134458125,49.0,83.0
634,155.14880958125002,155.61007695625,68.0,80.0
635,155.57134458125,155.74035858125,61.0,66.0
636,155.99387958125,156.39880895625,67.0,75.0
637,155.99387958125,156.42873851875,63.0,69.0
638,155.99387958125,156.88120308125002,51.0,84.0
639,156.41641458125,156.88120308125002,58.0,61.0
640,156.83894958125,157.32310426875,63.0,82.0
641,157.26148458125,157.55021683125,67.0,82.0
642,157.68401958125,158.17697708125002,60.0,75.0
643,157.68401958125,158.44282201875,68.0,73.0
644,158.10655458125,158.60303320625002,48.0,60.0
645,158.52908958125,158.61535714375,65.0,85.0
646,157.68401958125,158.63120220625,41.0,80.0
647,158.52908958125,158.64528670625,60.0,82.0
648,159.37415958125,159.68753970625,63.0,74.0
649,159.37415958125,159.79317345625,66.0,79.0
650,159.37415958125,159.94810295625,51.0,81.0
651,159.37415958125,160.02908883125002,44.0,80.0
652,160.21922958125,160.69458145625,53.0,83.0
653,160.21922958125,160.90937008125002,60.0,80.0
654,160.21922958125,160.95338414375001,65.0,82.0
655,161.06429958125,161.72451051875,61.0,70.0
656,161.06429958125,161.74563726875,58.0,72.0
657,161.48683458125,162.83894658125,53.0,69.0
658,161.90936958125002,163.05373520625,58.0,73.0
659,162.33190458125,163.13119995625001,61.0,78.0
660,163.17697458125002,163.69281939375,53.0,62.0
661,161.06429958125,163.78084751875002,46.0,81.0
662,163.59950958125,163.86887564375002,58.0,84.0
663,163.59950958125,163.87591789375,61.0,84.0
664,164.02204458125001,164.17521351875,46.0,83.0
665,164.44457958125,165.05197364375,63.0,80.0
666,164.44457958125,165.05373420625,60.0,80.0
667,164.44457958125,165.11007220625,67.0,73.0
668,164.86711458125,165.41641008125,55.0,69.0
669,165.28964958125,165.79317045625,60.0,76.0
670,164.44457958125,165.93577601875,48.0,82.0
671,165.71218458125,165.97802951875002,55.0,66.0
672,166.13471958125,166.40056451875,60.0,73.0
673,166.13471958125,166.72098689375,65.0,78.0
674,166.55725458125,166.80373333125,60.0,76.0
675,166.13471958125,167.07485995625,53.0,85.0
676,166.97978958125,167.16993033125001,65.0,81.0
677,166.97978958125,167.21042326875,60.0,81.0
678,166.97978958125,167.22450776875002,68.0,76.0
679,167.82485958125,167.93049333125,37.0,80.0
680,167.82485958125,168.11007070625,56.0,78.0
681,167.82485958125,168.19105658125,61.0,76.0
682,168.88119708125,169.15584483125002,61.0,91.0
683,168.66992958125002,169.30373208125002,56.0,87.0
684,169.09246458125,169.33542220625,65.0,84.0
685,168.24739458125,169.36535176875,49.0,79.0
686,169.51499958125,169.59950658125,38.0,80.0
687,169.51499958125,169.90056276875,62.0,70.0
688,169.51499958125,169.90232333125,65.0,82.0
689,169.51499958125,169.99563314375,68.0,77.0
690,169.93753458125002,170.40408364375,50.0,63.0
691,170.14880208125,170.46394276875,56.0,74.0
692,170.36006958125,170.62767508125,62.0,82.0
693,170.57133708125002,170.70866095625001,65.0,80.0
694,171.20513958125002,171.73154776875,67.0,76.0
695,171.20513958125002,171.74915339375002,63.0,78.0
696,171.62767458125,172.13295601875,58.0,80.0
697,171.20513958125002,172.18225176875,51.0,85.0
698,172.05020958125,172.30725170624999,67.0,80.0
699,172.05020958125,172.55020933125002,70.0,81.0
700,172.89527958125,172.97450489375,39.0,81.0
701,172.89527958125,173.14351889375,75.0,81.0
702,172.47274458125,173.15056114375,63.0,82.0
703,172.89527958125,173.17344845625001,67.0,84.0
704,173.10654708125,173.18049070625,51.0,71.0
705,172.89527958125,173.19985689375,70.0,83.0
706,173.52908208125,173.78436364375,63.0,87.0
707,173.74034958125,173.97978608124998,65.0,91.0
708,173.31781458125,174.04492689375002,58.0,85.0
709,173.95161708125,174.08541983125002,67.0,96.0
710,173.31781458125,174.17872964375,51.0,66.0
711,174.16288458125,174.39175770625002,68.0,81.0
712,174.39351826875,174.45337739375,70.0,55.0
713,174.58541958125,175.03964470625,63.0,80.0
714,174.58541958125,175.10830664374998,56.0,81.0
715,175.43048958125001,175.59246133125,56.0,82.0
716,175.43048958125001,175.59950358125002,60.0,82.0
717,175.85302458125,176.00971464375,56.0,58.0
718,175.00795458125,176.37767220625,51.0,72.0
719,174.58541958125,176.50443270625,44.0,81.0
720,176.27555958125,176.58717914375,63.0,81.0
721,176.27555958125,177.03436201875002,56.0,82.0
722,176.69809458125002,177.46393926875,44.0,65.0
723,176.69809458125002,177.48682658125,51.0,75.0
724,177.12062958125,177.54668570625,60.0,84.0
725,177.12062958125,177.59598145625,63.0,83.0
726,177.12062958125,177.62591101875,68.0,70.0
727,177.54316458125,177.63295326875,56.0,87.0
728,177.96569958125002,178.42168526875002,63.0,81.0
729,177.96569958125002,178.44105145625002,67.0,80.0
730,177.96569958125002,178.45161483125,60.0,82.0
731,178.38823458125,178.93753008125,55.0,68.0
732,178.81076958124999,179.05020608125,63.0,77.0
733,178.81076958124999,179.05196664375,60.0,76.0
734,179.23330458125002,179.66992408125,55.0,46.0
735,179.65583958125,179.98858589374998,60.0,81.0
736,179.65583958125,180.02907883125,63.0,81.0
737,179.65583958125,180.03964220625,67.0,82.0
738,180.07837458125,180.62238839375,55.0,80.0
739,177.96569958125002,180.67872639375003,48.0,82.0
740,180.50090958125,180.72097989374998,60.0,81.0
741,180.50090958125,180.75971226875,63.0,81.0
742,180.92344458125,181.04492339375003,48.0,81.0
743,180.92344458125,181.16992333125,60.0,58.0
744,181.34597958125,181.47274008125,41.0,82.0
745,181.34597958125,181.71921883125,65.0,81.0
746,181.34597958125,181.76323289375,68.0,77.0
747,182.19104958125,182.52555645625,65.0,80.0
748,182.19104958125,182.53788039375002,68.0,80.0
749,182.19104958125,182.55372545625,72.0,80.0
750,182.61358458125,183.16111951875,60.0,69.0
751,183.03611958125,183.65759814375002,65.0,82.0
752,183.03611958125,183.68400658125,68.0,81.0
753,181.76851458125,184.12062608125,53.0,81.0
754,183.45865458125002,184.21745701875,60.0,74.0
755,183.88118958125,184.27555558125,68.0,87.0
756,183.88118958125,184.28259783125,65.0,96.0
757,184.30372458125,184.45337239375,53.0,86.0
758,184.72625958125002,185.34949870625002,61.0,85.0
759,184.72625958125002,185.37238601875,66.0,81.0
760,184.72625958125002,185.72449851875,51.0,87.0
761,185.14879458125,185.73858301875,58.0,80.0
762,185.57132958124998,185.84421676875002,61.0,91.0
763,185.57132958124998,185.92696320625,66.0,91.0
764,185.99386458125002,186.11534339375,51.0,84.0
765,186.41639958125,187.01675139374998,63.0,82.0
766,186.41639958125,187.12062458125,66.0,83.0
767,186.83893458125,187.36182164375,51.0,83.0
768,187.26146958125,187.52379339375,63.0,94.0
769,186.41639958125,187.55020183125,44.0,87.0
770,187.47273708125,187.61886376875,51.0,85.0
771,187.26146958125,187.67168064375,68.0,89.0
772,187.68400458125,187.93576501875,63.0,84.0
773,187.89527208125,188.41111689375,68.0,80.0
774,188.52907458125,189.09949683125,56.0,82.0
775,188.10653958125,189.20865170625,49.0,87.0
776,188.95160958125,189.28259533125,61.0,81.0
777,188.95160958125,189.29315870624998,65.0,83.0
778,188.95160958125,189.34069389375,68.0,77.0
779,189.79667958125,190.13294701875,73.0,80.0
780,189.37414458125,190.23682020625,56.0,76.0
781,189.79667958125,190.27203145625,68.0,82.0
782,189.79667958125,190.27907370625002,65.0,89.0
783,190.64174958125,190.76851008124999,65.0,85.0
784,190.21921458125001,190.77203120625,49.0,79.0
785,190.64174958125,190.77907345625,61.0,81.0
786,190.64174958125,190.78787626874998,68.0,80.0
787,191.90935458125,192.39350926875,55.0,70.0
788,191.48681958125002,192.40935433125,63.0,78.0
789,191.48681958125002,192.43752333125002,67.0,72.0
790,192.33188958125,192.61005845625,60.0,87.0
791,191.48681958125002,192.63294576875,48.0,80.0
792,192.54315708125,192.68048095625,55.0,84.0
793,192.75442458125002,193.09597370625,63.0,81.0
794,192.96569208124998,193.12590326875,60.0,71.0
795,193.17695958125,193.74033958125,60.0,72.0
796,193.17695958125,193.78083251875,65.0,75.0
797,193.59949458124999,194.13470558125,48.0,69.0
798,193.17695958125,194.14879008125,41.0,83.0
799,194.02202958125002,194.21569145625,68.0,76.0
800,194.02202958125002,194.22097314375,60.0,81.0
801,194.02202958125002,194.22097314375,65.0,82.0
802,194.86709958125,195.52202883125,56.0,79.0
803,194.86709958125,195.52378939375,61.0,79.0
804,195.28963458125,195.82132445625,53.0,72.0
805,195.71216958125,196.06780320625,56.0,85.0
806,195.71216958125,196.40407064375,61.0,83.0
807,194.86709958125,196.43928189375,46.0,81.0
808,196.13470458125,196.50090158125,53.0,78.0
809,196.55723958125,197.09245058125,65.0,82.0
810,196.55723958125,197.14174633125,61.0,82.0
811,196.97977458125,197.53083064375,53.0,73.0
812,196.55723958125,197.56604189375003,46.0,82.0
813,197.40230958125,197.59597145625,61.0,86.0
814,197.40230958125,197.62766158125,65.0,89.0
815,197.82484458125,197.95160508125002,46.0,81.0
816,198.24737958125002,198.82484408125,39.0,84.0
817,198.24737958125002,198.83892858125,63.0,79.0
818,198.24737958125002,198.93399895625,67.0,75.0
819,199.09244958125,199.33188608125,63.0,91.0
820,198.88118208125002,199.42343533125,58.0,75.0
821,198.66991458125,199.59244933125,51.0,81.0
822,199.51498458125002,199.67343520625002,58.0,84.0
823,199.30371708125,199.72449151875,70.0,84.0
824,199.72625208125,199.89526608124999,63.0,83.0
825,199.93751958125,200.35829401875,63.0,66.0
826,199.93751958125,200.36181514375,75.0,80.0
827,199.93751958125,200.41815314375,67.0,81.0
828,199.93751958125,200.48857564375,70.0,82.0
829,200.57132208125,200.67695583124998,63.0,80.0
830,199.93751958125,200.69280089375002,51.0,86.0
831,200.36005458124998,200.69632201875,58.0,80.0
832,200.78258958125002,200.99561764375,51.0,87.0
833,200.78258958125002,201.05547676875,58.0,84.0
834,200.78258958125002,201.06956126875002,75.0,86.0
835,200.78258958125002,201.09596970625,67.0,89.0
836,200.78258958125002,201.12413870625,70.0,86.0
837,200.78258958125002,201.13998376875,63.0,86.0
838,201.20512458125,201.28963158125,51.0,82.0
839,201.62765958125,202.10125089375,56.0,79.0
840,201.62765958125,202.11709595625,60.0,75.0
841,202.05019458125003,202.57836333125,51.0,74.0
842,201.62765958125,202.63118020625,44.0,82.0
843,202.47272958125,202.64350414375002,56.0,81.0
844,202.47272958125,202.64702526874999,60.0,81.0
845,202.47272958125,202.64702526874999,63.0,80.0
846,202.89526458125,203.47448964375002,51.0,69.0
847,203.31779958125,203.81603876875,60.0,82.0
848,203.31779958125,203.99737670625,63.0,81.0
849,203.95160208125,204.09068651875,56.0,78.0
850,203.74033458125,204.32836245625,44.0,78.0
851,204.16286958125,204.37061595625,60.0,89.0
852,204.16286958125,204.40934833125,63.0,85.0
853,204.16286958125,204.41463001875002,68.0,81.0
854,204.37413708125,204.48505251875002,51.0,86.0
855,204.58540458125,204.71216508125002,44.0,82.0
856,205.00793958125,205.54139001875,60.0,82.0
857,205.00793958125,205.54139001875,63.0,80.0
858,205.43047458125,205.97624895625,55.0,75.0
859,205.85300958125,206.25089670625,60.0,81.0
860,205.85300958125,206.25793895625,63.0,82.0
861,205.85300958125,206.25793895625,67.0,80.0
862,205.00793958125,206.40582620625,48.0,80.0
863,206.27554458125002,206.83188233125,55.0,63.0
864,206.69807958125,207.13998076875,60.0,81.0
865,206.69807958125,207.21040326874999,63.0,81.0
866,206.69807958125,207.39878345625,67.0,80.0
867,207.33188208125,207.45688201875,60.0,80.0
868,207.54314958125002,207.82307901875,60.0,84.0
869,207.54314958125002,207.85476914375,63.0,86.0
870,207.75441708124998,207.89174095625,55.0,89.0
871,207.54314958125002,208.06427608125,67.0,83.0
872,207.96568458125,208.24033233125,60.0,87.0
873,208.38821958124998,208.82307851875,65.0,80.0
874,208.38821958124998,208.87413483125,60.0,81.0
875,209.23328958125,209.44279651875001,60.0,81.0
876,209.23328958125,209.52906408125,68.0,80.0
877,209.23328958125,209.58364151875,65.0,85.0
878,208.81075458125002,209.66286683125,48.0,64.0
879,208.38821958124998,209.82307801875,41.0,84.0
880,209.65582458125,209.93927514375002,60.0,75.0
881,210.07835958125,210.59772551875,68.0,79.0
882,210.07835958125,210.64173958125002,65.0,83.0
883,210.07835958125,210.64350014375,60.0,82.0
884,210.92342958125,211.12765483125,60.0,85.0
885,210.50089458125,211.13997876874998,48.0,80.0
886,210.92342958125,211.14702101875002,65.0,86.0
887,210.07835958125,211.15406326875,41.0,86.0
888,210.92342958125,211.19807733125,68.0,81.0
889,211.34596458125,211.63645739375,41.0,82.0
890,211.76849958125,212.40758376875,61.0,84.0
891,211.76849958125,212.41110489375,66.0,81.0
892,212.19103458125,212.68223151875,58.0,80.0
893,211.76849958125,212.81955539375002,51.0,87.0
894,212.61356958125,212.84244270624998,61.0,91.0
895,212.61356958125,212.88117508125,66.0,96.0
896,212.82483708125,212.94631589375,58.0,85.0
897,213.03610458125002,213.13645664375002,51.0,86.0
898,213.45863958125,213.93399145625,63.0,82.0
899,213.45863958125,214.02025901875,68.0,82.0
900,214.09244208125,214.18047020625,63.0,82.0
901,213.88117458125,214.39525883125,51.0,85.0
902,214.30370958125002,214.50793483125,63.0,89.0
903,214.30370958125002,214.50793483125,68.0,85.0
904,213.45863958125,214.63117420625002,44.0,84.0
905,214.51497708125,214.64877983125,51.0,87.0
906,214.72624458125,214.86708958125,63.0,77.0
907,214.72624458125,214.98328670625,66.0,74.0
908,215.14877958124998,215.49384983125,37.0,80.0
909,215.14877958124998,216.03082139375,61.0,81.0
910,215.14877958124998,216.07483545625,65.0,81.0
911,216.20511708125002,216.47272258125003,61.0,80.0
912,216.41638458124999,216.56427183125,65.0,87.0
913,215.99384958125,217.02906033125,56.0,84.0
914,216.83891958125002,217.36708833125,68.0,79.0
915,216.83891958125002,217.39701789375,61.0,84.0
916,217.26145458125,217.76849658125002,56.0,68.0
917,217.68398958125,217.88469370625,65.0,86.0
918,217.68398958125,217.90053876875,61.0,82.0
919,215.57131458125002,217.96744014375003,49.0,80.0
920,217.89525708125,218.03258095625,56.0,77.0
921,218.10652458125,218.25969351875,49.0,83.0
922,218.52905958125,218.93222839375,60.0,80.0
923,218.52905958125,218.99560864375002,63.0,80.0
924,218.52905958125,219.03962270625,67.0,73.0
925,218.52905958125,219.55898864375,48.0,82.0
926,218.95159458125,219.56074920625002,55.0,64.0
927,219.37412958125,219.60476326875,58.0,82.0
928,219.37412958125,219.62060833125,63.0,83.0
929,219.37412958125,219.67694633125,67.0,81.0
930,219.79666458125,219.91462226875,48.0,82.0
931,220.21919958125,220.71743876875001,68.0,79.0
932,220.21919958125,220.73504439375,65.0,80.0
933,220.21919958125,220.76497395625,60.0,76.0
934,220.64173458125,221.17694558125,48.0,71.0
935,220.21919958125,221.21039626875,41.0,81.0
936,221.06426958125002,221.21215683125,65.0,85.0
937,221.06426958125002,221.24912864375,60.0,82.0
938,221.90933958125,222.44455058124998,56.0,79.0
939,221.90933958125,222.44807170625,61.0,77.0
940,222.33187458125002,222.97624045625,53.0,68.0
941,222.75440958125,223.15229670625,56.0,78.0
942,222.75440958125,223.35828251875,61.0,79.0
943,223.17694458124998,223.73680345625002,53.0,71.0
944,223.59947958125002,224.02201458125,65.0,80.0
945,223.59947958125002,224.04314133125,61.0,71.0
946,224.02201458125,224.52377489375,53.0,69.0
947,221.90933958125,224.57659176875,46.0,81.0
948,224.44454958125,224.64525370625,65.0,82.0
949,224.44454958125,224.65581708125,58.0,81.0
950,224.44454958125,224.65933820625,61.0,86.0
951,224.86708458125,225.01497183125002,46.0,80.0
952,225.28961958125,225.38997164375002,39.0,80.0
953,225.28961958125,225.61356308125,58.0,71.0
954,225.28961958125,225.70511233125,63.0,77.0
955,225.28961958125,225.86708408125,67.0,71.0
956,226.55722458125,226.91637933125,63.0,86.0
957,226.13468958125,227.17870314375,58.0,87.0
958,226.97975958125,227.42694245625,67.0,73.0
959,226.97975958125,227.55546351875,70.0,77.0
960,227.40229458125,227.95863233125,58.0,67.0
961,225.71215458125,227.99736470625,51.0,80.0
962,227.82482958125001,228.09419564375,75.0,81.0
963,227.82482958125001,228.22623783125,67.0,81.0
964,227.82482958125001,228.23856176875,70.0,77.0
965,228.24736458125,228.37940676875002,63.0,76.0
966,229.09243458125002,229.56250476875,52.0,75.0
967,229.51496958125,229.78785676875,59.0,75.0
968,229.30370208125,229.83187083125,56.0,74.0
969,228.66989958125,230.01320876875002,40.0,85.0
970,228.88116708125,230.02377214375002,47.0,66.0
971,229.72623708125002,230.05194114375,64.0,84.0
972,229.93750458125,230.19806783125,52.0,87.0
973,230.14877208125,230.25088470625002,64.0,70.0
974,230.14877208125,230.32482833125,56.0,80.0
975,230.78257458125,231.19806733125,54.0,83.0
976,230.99384208125002,231.25792645625,58.0,80.0
977,230.57130708124998,231.44454608125,49.0,70.0
978,230.36003958125002,231.51672914375,42.0,82.0
979,231.20510958124999,231.60827839375,66.0,91.0
980,231.41637708125,231.69454595625,54.0,85.0
981,231.62764458125002,231.94102470625,58.0,76.0
982,231.83891208125,232.06074295625,66.0,76.0
983,232.47271458125,232.65757364375,51.0,77.0
984,232.68398208125,232.78609470625,55.0,77.0
985,232.89524958125,233.08715089375,58.0,74.0
986,233.10651708125,233.34243245625,61.0,84.0
987,233.31778458125,233.39877045625002,63.0,82.0
988,232.26144708125,233.48503801875,46.0,62.0
989,232.05017958125,233.58891120625,39.0,81.0
990,233.74031958125,234.58186845625,39.0,80.0
991,233.74031958125,235.13644564375,67.0,74.0
992,233.74031958125,235.14876958125,63.0,74.0
993,235.43045958125,235.91461426875,75.0,79.0
994,235.85299458125002,236.47975483125,68.0,73.0
995,236.06426208125,236.56250126875,75.0,81.0
996,236.48679708125002,236.88644476875,80.0,80.0
997,235.64172708125,237.04313483125,51.0,65.0
998,235.43045958125,237.05721933125,44.0,77.0
999,236.69806458125,237.11531789375002,68.0,70.0
1000,236.90933208125,237.18574039375,75.0,76.0
1001,237.12059958125,237.76672601875,80.0,81.0
1002,237.54313458125,238.32658489375,68.0,74.0
1003,237.33186708125,238.43750033125,51.0,65.0
1004,237.75440208125,238.43750033125,75.0,81.0
1005,237.12059958125,238.46566933125,44.0,81.0
1006,238.38820458125,238.52024676875,80.0,80.0
1007,238.81073958125,239.42517589375,79.0,77.0
1008,239.23327458125001,239.52376739375,72.0,81.0
1009,239.02200708125,239.78961233125,55.0,76.0
1010,239.44454208125,239.79489401875,75.0,82.0
1011,239.86707708125002,240.03080939375,79.0,82.0
1012,240.07834458125,240.21038676875,72.0,78.0
1013,238.81073958125,240.30193601875,48.0,80.0
1014,240.50087958125,240.97094976875002,75.0,76.0
1015,240.50087958125,241.04841451875,72.0,74.0
1016,240.92341458125,241.42165376875,55.0,48.0
1017,241.34594958125,241.56249876875,72.0,82.0
1018,241.34594958125,241.67341420625002,79.0,83.0
1019,240.50087958125,241.70862545625,48.0,80.0
1020,241.55721708125,241.71566770625,55.0,77.0
1021,241.76848458125,242.17693508125,72.0,80.0
1022,242.19101958125,242.59770951875,80.0,77.0
1023,242.61355458125,242.87235726875,72.0,80.0
1024,242.82482208125,243.21742751875001,80.0,85.0
1025,243.24735708125002,243.45334289375,77.0,79.0
1026,243.45862458125,243.66108926875,72.0,81.0
1027,242.40228708125,243.69277939375002,48.0,73.0
1028,242.19101958125,243.74031458125,41.0,82.0
1029,243.66989208125,244.33010301875,80.0,86.0
1030,244.30369458125,244.48327195625,77.0,81.0
1031,244.51496208125,244.61531414375,72.0,84.0
1032,244.09242708125,244.80545489375,48.0,71.0
1033,244.72622958125,244.99207451875,72.0,89.0
1034,244.72622958125,245.33714476875,80.0,87.0
1035,244.93749708125,245.50439820625002,48.0,96.0
1036,243.88115958125002,245.50615876875,41.0,82.0
1037,245.36003208125,245.53432776875002,77.0,91.0
1038,245.14876458125,245.53960945625,72.0,101.0
1039,245.57129958125,246.21038376875,61.0,84.0
1040,245.57129958125,246.21390489375,66.0,81.0
1041,245.99383458125,246.48503151875,58.0,80.0
1042,245.57129958125,246.62235539375,51.0,87.0
1043,246.41636958125,246.64524270625,61.0,91.0
1044,246.41636958125,246.68397508125,66.0,96.0
1045,246.62763708125001,246.74911589375,58.0,85.0
1046,246.83890458125,246.93925664375,51.0,86.0
1047,247.26143958125002,247.73679145625002,63.0,82.0
1048,247.26143958125002,247.82305901875,68.0,82.0
1049,247.89524208125,247.98327020625,63.0,82.0
1050,247.68397458125,248.19805883125,51.0,85.0
1051,248.10650958125,248.31073483125002,63.0,89.0
1052,248.10650958125,248.31073483125002,68.0,85.0
1053,247.26143958125002,248.43397420625,44.0,84.0
1054,248.31777708125,248.45157983125,51.0,87.0
1055,248.52904458125,248.66988958125,63.0,77.0
1056,248.52904458125,248.78608670625,66.0,74.0
1057,248.95157958125,249.29664983125,37.0,80.0
1058,248.95157958125,249.83362139375,61.0,81.0
1059,248.95157958125,249.87763545625,65.0,81.0
1060,250.00791708125,250.27552258125002,61.0,80.0
1061,250.21918458125,250.36707183125,65.0,87.0
1062,249.79664958125,250.83186033125,56.0,84.0
1063,250.64171958125002,251.16988833125,68.0,79.0
1064,250.64171958125002,251.19981789375,61.0,84.0
1065,251.06425458125,251.57129658125,56.0,68.0
1066,251.48678958125,251.68749370625,65.0,86.0
1067,251.48678958125,251.70333876875,61.0,82.0
1068,249.37411458125,251.77024014375002,49.0,80.0
1069,251.69805708125,251.83538095625,56.0,77.0
1070,251.90932458125,252.06249351875002,49.0,83.0
1071,252.33185958125,252.73502839375,60.0,80.0
1072,252.33185958125,252.79840864375,63.0,80.0
1073,252.33185958125,252.84242270625,67.0,73.0
1074,252.33185958125,253.36178864375,48.0,82.0
1075,252.75439458125,253.36354920625,55.0,64.0
1076,253.17692958125,253.40756326875,58.0,82.0
1077,253.17692958125,253.42340833125002,63.0,83.0
1078,253.17692958125,253.47974633125,67.0,81.0
1079,253.59946458125,253.71742226875,48.0,82.0
1080,254.02199958125001,254.52023876875,68.0,79.0
1081,254.02199958125001,254.53784439375,65.0,80.0
1082,254.02199958125001,254.56777395625,60.0,76.0
1083,254.44453458125,254.97974558125,48.0,71.0
1084,254.02199958125001,255.01319626875,41.0,81.0
1085,254.86706958125,255.01495683125,65.0,85.0
1086,254.86706958125,255.05192864375002,60.0,82.0
1087,255.71213958125,256.24735058125,56.0,79.0
1088,255.71213958125,256.25087170625,61.0,77.0
1089,256.13467458125,256.77904045625,53.0,68.0
1090,256.55720958125,256.95509670625,56.0,78.0
1091,256.55720958125,257.16108251875,61.0,79.0
1092,256.97974458125,257.53960345625,53.0,71.0
1093,257.40227958125,257.82481458125,65.0,80.0
1094,257.40227958125,257.84594133125,61.0,71.0
1095,257.82481458125,258.32657489375003,53.0,69.0
1096,255.71213958125,258.37939176875,46.0,81.0
1097,258.24734958125,258.44805370625,65.0,82.0
1098,258.24734958125,258.45861708125,58.0,81.0
1099,258.24734958125,258.46213820625,61.0,86.0
1100,258.66988458125,258.81777183125,46.0,80.0
1101,259.09241958125,259.19277164375,39.0,80.0
1102,259.09241958125,259.41636308125,58.0,71.0
1103,259.09241958125,259.50791233125,63.0,77.0
1104,259.09241958125,259.66988408124996,67.0,71.0
1105,260.36002458125,260.71917933124996,63.0,86.0
1106,259.93748958125,260.98150314375,58.0,87.0
1107,260.78255958125,261.22974245625,67.0,73.0
1108,260.78255958125,261.35826351875,70.0,77.0
1109,261.20509458125,261.76143233125003,58.0,67.0
1110,259.51495458125,261.80016470625003,51.0,80.0
1111,261.62762958125,261.89699564375,75.0,81.0
1112,261.62762958125,262.02903783125,67.0,81.0
1113,261.62762958125,262.04136176875,70.0,77.0
1114,262.05016458125,262.18220676875,63.0,76.0
1115,262.47269958125,262.74558676875,61.0,74.0
1116,262.47269958125,262.86882614374997,68.0,71.0
1117,263.10650208125,263.24382595625,65.0,85.0
1118,262.89523458125,263.51847370625,61.0,80.0
1119,262.47269958125,263.83009326875003,49.0,83.0
1120,262.68396708125,263.88819183124997,56.0,68.0
1121,263.74030458125003,263.91988195625004,61.0,81.0
1122,263.52903708125,264.30016345625,73.0,87.0
1123,264.58537458125,264.85474064375,63.0,79.0
1124,264.79664208125,265.18044470625,65.0,91.0
1125,264.37410708125003,265.30896576875,58.0,71.0
1126,264.16283958125,265.35121926875,51.0,83.0
1127,265.21917708125,265.37762770625,67.0,82.0
1128,265.85297958125,266.08889495625,65.0,74.0
1129,265.85297958125,266.21213433125,68.0,76.0
1130,266.27551458125004,266.37058495625,65.0,72.0
1131,266.48678208125,266.63466933125,65.0,85.0
1132,266.48678208125,266.74382420625,72.0,82.0
1133,266.90931708125004,267.00262689375,68.0,76.0
1134,266.90931708125004,267.01142970625,65.0,80.0
1135,266.06424708125,267.29311970624997,48.0,66.0
1136,265.85297958125,267.41811964375,41.0,82.0
1137,267.54311958125004,268.07480945625,41.0,81.0
1138,267.54311958125004,268.75438658125,65.0,68.0
1139,267.54311958125004,269.16811876875,68.0,66.0
1140,269.21037226875,269.30016095625,37.0,80.0
1141,269.86001983125004,270.12938589375,61.0,76.0
1142,270.07656901875,270.35649845625,63.0,77.0
1143,269.65579458125,270.45156883125003,56.0,75.0
1144,269.45509045625,270.47269558125004,49.0,74.0
1145,270.28079426875,270.51494908125,65.0,81.0
1146,270.49382233125004,270.71389264375,68.0,80.0
1147,271.00614601875,271.63642739375,63.0,69.0
1148,270.99734320625,271.68396258125,68.0,71.0
1149,271.49030070624997,272.07656801875,58.0,67.0
1150,270.99030095625,272.08537083125,51.0,75.0
1151,272.02727226875004,272.90579295625,67.0,68.0
1152,274.72621458125,274.86001733125,56.0,64.0
1153,274.93748208125,275.08712989375,58.0,75.0
1154,275.14874958125,275.28959458125,60.0,74.0
1155,275.14874958125,275.41459451875,63.0,69.0
1156,275.36001708125,275.81248164375,68.0,68.0
1157,275.57128458125,275.81424220625,60.0,69.0
1158,275.78255208125,276.08008714375,63.0,70.0
1159,275.99381958125,276.15050964375,60.0,69.0
1160,276.20508708125,276.35297433125004,70.0,70.0
1161,276.62762208125,276.76846708125004,72.0,73.0
1162,276.83888958125,276.97621345625,75.0,68.0
1163,276.83888958125,276.99557964375003,68.0,47.0
1164,277.26142458125,277.32832595625,68.0,48.0
1165,277.26142458125,277.41987520625,80.0,57.0
1166,277.89522708125,278.04135376875,87.0,58.0
1167,277.89522708125,278.05367770625,80.0,55.0
1168,278.52902958125003,278.65226895625,92.0,78.0
1169,274.51494708125,279.04311383125,51.0,73.0
1170,274.51494708125,279.24205739375,44.0,78.0
