,start,end,pitch,velocity
0,19.823094412499998,19.95927275,74.0,84.0
1,20.066995912499998,20.18691415,74.0,84.0
2,20.3108974125,20.48467723125,74.0,86.0
3,20.5547989125,20.743822575,72.0,83.0
4,20.7987004125,21.215365475,69.0,85.0
5,21.2865034125,21.66759950625,77.0,82.0
6,21.7743064125,21.909468493749998,74.0,83.0
7,22.0182079125,22.302759662499998,74.0,84.0
8,23.725518412499998,23.9186071,69.0,83.0
9,23.969419912499998,24.107630762499998,72.0,80.0
10,24.2133214125,24.39523128125,74.0,83.0
11,24.4572229125,24.60458006875,72.0,84.0
12,24.7011244125,25.10864316875,74.0,83.0
13,25.1889274125,25.40132496875,69.0,77.0
14,25.4328289125,25.63099888125,72.0,82.0
15,25.6767304125,26.55375955625,69.0,83.0
16,27.627942412499998,27.77529956875,69.0,85.0
17,27.871843912499997,28.238712418749998,69.0,82.0
18,28.3596469125,28.5344429875,77.0,76.0
19,28.6035484125,28.933831693749998,74.0,83.0
20,29.0913514125,29.274277537499998,72.0,82.0
21,29.3352529125,29.50700021875,69.0,80.0
22,29.5791544125,29.720414031249998,67.0,82.0
23,29.8230559125,30.1523229375,67.0,78.0
24,30.3108589125,30.475492425,69.0,75.0
25,30.5547604125,31.042563412499998,65.0,78.0
26,31.042563412499998,31.4734560625,62.0,82.0
27,31.530366412499998,31.6441871125,67.0,81.0
28,31.774267912499997,31.906381225,67.0,76.0
29,32.0181694125,32.14723395625,67.0,77.0
30,32.2620709125,32.4124768375,69.0,81.0
31,32.5059724125,32.876905943749996,65.0,77.0
32,32.9937754125,33.36674145625,64.0,83.0
33,33.4815784125,34.6827933,62.0,80.0
34,35.4327904125,35.5628712125,74.0,82.0
35,35.6766919125,35.80169143125,74.0,83.0
36,35.9205934125,36.08217815625,74.0,84.0
37,36.1644949125,36.3270959125,72.0,82.0
38,36.4083964125,36.83014275625,69.0,83.0
39,36.896199412499996,37.28745806875,77.0,82.0
40,37.384002412499996,37.627903912499995,74.0,83.0
41,37.627903912499995,37.9673335,74.0,83.0
42,39.3352144125,39.492734131249996,69.0,82.0
43,39.5791159125,39.7071642,72.0,83.0
44,39.8230174125,39.94801693125,74.0,82.0
45,40.0669189125,40.2661051375,72.0,78.0
46,40.3108204125,40.7132578875,69.0,83.0
47,40.7986234125,41.26102000625,72.0,76.0
48,41.2864264125,42.1726018625,69.0,77.0
49,43.2376384125,43.37483300625,69.0,82.0
50,43.4815399125,43.866701031249995,69.0,79.0
51,43.9693429125,44.14109021875,77.0,77.0
52,44.213244412499996,44.5709666125,74.0,86.0
53,44.701047412499996,44.85348585,72.0,83.0
54,44.944948912499996,45.115679962499996,69.0,82.0
55,45.188850412499995,45.31994746875,67.0,76.0
56,45.432751912499995,45.6766534125,67.0,77.0
57,45.6766534125,45.9205549125,67.0,77.0
58,45.9205549125,46.070960837499996,69.0,78.0
59,46.1644564125,46.56994265625,65.0,75.0
60,46.6522594125,47.08010329375,62.0,83.0
61,47.1400624125,47.259980649999996,67.0,77.0
62,47.3839639125,47.5099796875,67.0,76.0
63,47.6278654125,47.77928759375,67.0,77.0
64,47.8717669125,48.02725411875,69.0,80.0
65,48.1156684125,48.481520662499996,65.0,76.0
66,48.6034714125,48.95814484375,64.0,83.0
67,49.0912744125,50.17358731875,62.0,78.0
68,58.8473344125,58.983512749999996,74.0,84.0
69,59.0912359125,59.21115415,74.0,84.0
70,59.335137412499996,59.508917231249995,74.0,86.0
71,59.579038912499996,59.768062575,72.0,83.0
72,59.822940412499996,60.239605475,69.0,85.0
73,60.310743412499995,60.69183950625,77.0,82.0
74,60.798546412499995,60.93370849375,74.0,83.0
75,61.042447912499995,61.3269996625,74.0,84.0
76,62.7497584125,62.9428471,69.0,83.0
77,62.9936599125,63.1318707625,72.0,80.0
78,63.2375614125,63.41947128125,74.0,83.0
79,63.4814629125,63.628820068749995,72.0,84.0
80,63.7253644125,64.13288316875,74.0,83.0
81,64.2131674125,64.42556496875,69.0,77.0
82,64.45706891249999,64.65523888125,72.0,82.0
83,64.7009704125,65.57799955624999,69.0,83.0
84,66.6521824125,66.79953956874999,69.0,85.0
85,66.8960839125,67.26295241875,69.0,82.0
86,67.3838869125,67.55868298749999,77.0,76.0
87,67.6277884125,67.95807169375,74.0,83.0
88,68.1155914125,68.2985175375,72.0,82.0
89,68.3594929125,68.53124021875,69.0,80.0
90,68.6033944125,68.74465403125,67.0,82.0
91,68.8472959125,69.1765629375,67.0,78.0
92,69.3350989125,69.499732425,69.0,75.0
93,69.5790004125,70.0668034125,65.0,78.0
94,70.0668034125,70.4976960625,62.0,82.0
95,70.5546064125,70.6684271125,67.0,81.0
96,70.7985079125,70.930621225,67.0,76.0
97,71.04240941249999,71.17147395625,67.0,77.0
98,71.2863109125,71.4367168375,69.0,81.0
99,71.53021241249999,71.90114594375,65.0,77.0
100,72.01801541249999,72.39098145625,64.0,83.0
101,72.50581841249999,73.70703329999999,62.0,80.0
102,74.4570304125,74.58711121249999,74.0,82.0
103,74.7009319125,74.82593143125,74.0,83.0
104,74.9448334125,75.10641815625,74.0,84.0
105,75.1887349125,75.35133591249999,72.0,82.0
106,75.4326364125,75.85438275625,69.0,83.0
107,75.9204394125,76.31169806875,77.0,82.0
108,76.4082424125,76.6521439125,74.0,83.0
109,76.6521439125,76.9915735,74.0,83.0
110,78.3594544125,78.51697413125,69.0,82.0
111,78.60335591249999,78.7314042,72.0,83.0
112,78.8472574125,78.97225693125,74.0,82.0
113,79.09115891249999,79.2903451375,72.0,78.0
114,79.3350604125,79.7374978875,69.0,83.0
115,79.8228634125,80.28526000625,72.0,76.0
116,80.3106664125,81.1968418625,69.0,77.0
117,82.2618784125,82.39907300624999,69.0,82.0
118,82.5057799125,82.89094103125,69.0,79.0
119,82.9935829125,83.16533021875,77.0,77.0
120,83.2374844125,83.5952066125,74.0,86.0
121,83.7252874125,83.87772585,72.0,83.0
122,83.9691889125,84.1399199625,69.0,82.0
123,84.2130904125,84.34418746875,67.0,76.0
124,84.4569919125,84.7008934125,67.0,77.0
125,84.7008934125,84.9447949125,67.0,77.0
126,84.9447949125,85.0952008375,69.0,78.0
127,85.1886964125,85.59418265625,65.0,75.0
128,85.6764994125,86.10434329374999,62.0,83.0
129,86.16430241249999,86.28422065,67.0,77.0
130,86.4082039125,86.5342196875,67.0,76.0
131,86.65210541249999,86.80352759375,67.0,77.0
132,86.8960069125,87.05149411875,69.0,80.0
133,87.13990841249999,87.5057606625,65.0,76.0
134,87.62771141249999,87.98238484375,64.0,83.0
135,88.11551441249999,89.19782731875,62.0,78.0
136,113.4812704125,113.61744875,74.0,84.0
137,113.7251719125,113.84509014999999,74.0,84.0
138,113.9690734125,114.14285323125,74.0,86.0
139,114.2129749125,114.401998575,72.0,83.0
140,114.4568764125,114.873541475,69.0,85.0
141,114.9446794125,115.32577550625,77.0,82.0
142,115.4324824125,115.56764449375,74.0,83.0
143,115.6763839125,115.96093566249999,74.0,84.0
144,117.38369441249999,117.5767831,69.0,83.0
145,117.6275959125,117.76580676249999,72.0,80.0
146,117.87149741249999,118.05340728125,74.0,83.0
147,118.1153989125,118.26275606875,72.0,84.0
148,118.35930041249999,118.76681916874999,74.0,83.0
149,118.84710341249999,119.05950096875,69.0,77.0
150,119.0910049125,119.28917488124999,72.0,82.0
151,119.33490641249999,120.21193555625,69.0,83.0
152,121.2861184125,121.43347556875,69.0,85.0
153,121.5300199125,121.89688841875,69.0,82.0
154,122.0178229125,122.1926189875,77.0,76.0
155,122.2617244125,122.59200769374999,74.0,83.0
156,122.7495274125,122.9324535375,72.0,82.0
157,122.9934289125,123.16517621874999,69.0,80.0
158,123.2373304125,123.37859003125,67.0,82.0
159,123.4812319125,123.8104989375,67.0,78.0
160,123.96903491249999,124.133668425,69.0,75.0
161,124.2129364125,124.7007394125,65.0,78.0
162,124.7007394125,125.1316320625,62.0,82.0
163,125.1885424125,125.30236311249999,67.0,81.0
164,125.43244391249999,125.564557225,67.0,76.0
165,125.6763454125,125.80540995625,67.0,77.0
166,125.92024691249999,126.07065283749999,69.0,81.0
167,126.1641484125,126.53508194375,65.0,77.0
168,126.6519514125,127.02491745625,64.0,83.0
169,127.1397544125,128.34096929999998,62.0,80.0
170,129.0909664125,129.2210472125,74.0,82.0
171,129.3348679125,129.45986743125,74.0,83.0
172,129.5787694125,129.74035415625,74.0,84.0
173,129.8226709125,129.9852719125,72.0,82.0
174,130.0665724125,130.48831875625,69.0,83.0
175,130.5543754125,130.94563406875,77.0,82.0
176,131.0421784125,131.28607991249999,74.0,83.0
177,131.28607991249999,131.6255095,74.0,83.0
178,132.9933904125,133.15091013125,69.0,82.0
179,133.23729191249998,133.3653402,72.0,83.0
180,133.4811934125,133.60619293125,74.0,82.0
181,133.7250949125,133.9242811375,72.0,78.0
182,133.9689964125,134.3714338875,69.0,83.0
183,134.4567994125,134.91919600625,72.0,76.0
184,134.9446024125,135.83077786249999,69.0,77.0
185,136.8958144125,137.03300900624998,69.0,82.0
186,137.1397159125,137.52487703124999,69.0,79.0
187,137.6275189125,137.79926621875,77.0,77.0
188,137.8714204125,138.2291426125,74.0,86.0
189,138.3592234125,138.51166185,72.0,83.0
190,138.6031249125,138.7738559625,69.0,82.0
191,138.84702641249999,138.97812346875,67.0,76.0
192,139.0909279125,139.3348294125,67.0,77.0
193,139.3348294125,139.5787309125,67.0,77.0
194,139.5787309125,139.7291368375,69.0,78.0
195,139.82263241249998,140.22811865625,65.0,75.0
196,140.3104354125,140.73827929375,62.0,83.0
197,140.79823841249998,140.91815665,67.0,77.0
198,141.0421399125,141.1681556875,67.0,76.0
199,141.2860414125,141.43746359375,67.0,77.0
200,141.5299429125,141.68543011875,69.0,80.0
201,141.77384441249998,142.1396966625,65.0,76.0
202,142.2616474125,142.61632084375,64.0,83.0
203,142.74945041249998,143.83176331875,62.0,78.0
204,152.5055104125,152.64168875,74.0,84.0
205,152.7494119125,152.86933015,74.0,84.0
206,152.9933134125,153.16709323125,74.0,86.0
207,153.2372149125,153.42623857499999,72.0,83.0
208,153.4811164125,153.897781475,69.0,85.0
209,153.9689194125,154.35001550625,77.0,82.0
210,154.4567224125,154.59188449375,74.0,83.0
211,154.7006239125,154.98517566249998,74.0,84.0
212,156.4079344125,156.6010231,69.0,83.0
213,156.6518359125,156.7900467625,72.0,80.0
214,156.89573741249998,157.07764728125,74.0,83.0
215,157.1396389125,157.28699606875,72.0,84.0
216,157.3835404125,157.79105916875,74.0,83.0
217,157.87134341249998,158.08374096875,69.0,77.0
218,158.1152449125,158.31341488125,72.0,82.0
219,158.3591464125,159.23617555625,69.0,83.0
220,160.3103584125,160.45771556875,69.0,85.0
221,160.5542599125,160.92112841875,69.0,82.0
222,161.0420629125,161.2168589875,77.0,76.0
223,161.2859644125,161.61624769374998,74.0,83.0
224,161.7737674125,161.9566935375,72.0,82.0
225,162.0176689125,162.18941621874998,69.0,80.0
226,162.2615704125,162.40283003125,67.0,82.0
227,162.50547191249998,162.8347389375,67.0,78.0
228,162.9932749125,163.157908425,69.0,75.0
229,163.2371764125,163.7249794125,65.0,78.0
230,163.7249794125,164.1558720625,62.0,82.0
231,164.2127824125,164.32660311249998,67.0,81.0
232,164.45668391249998,164.588797225,67.0,76.0
233,164.7005854125,164.82964995625,67.0,77.0
234,164.9444869125,165.0948928375,69.0,81.0
235,165.1883884125,165.55932194375,65.0,77.0
236,165.6761914125,166.04915745625,64.0,83.0
237,166.1639944125,167.3652093,62.0,80.0
238,168.1152064125,168.2452872125,74.0,82.0
239,168.3591079125,168.48410743124998,74.0,83.0
240,168.6030094125,168.76459415624998,74.0,84.0
241,168.8469109125,169.0095119125,72.0,82.0
242,169.0908124125,169.51255875625,69.0,83.0
243,169.5786154125,169.96987406875,77.0,82.0
244,170.06641841249998,170.3103199125,74.0,83.0
245,170.3103199125,170.64974949999998,74.0,83.0
246,172.01763041249998,172.17515013125,69.0,82.0
247,172.2615319125,172.38958019999998,72.0,83.0
248,172.5054334125,172.63043293125,74.0,82.0
249,172.7493349125,172.9485211375,72.0,78.0
250,172.99323641249998,173.39567388749998,69.0,83.0
251,173.4810394125,173.94343600624998,72.0,76.0
252,173.96884241249998,174.8550178625,69.0,77.0
253,175.9200544125,176.05724900625,69.0,82.0
254,176.1639559125,176.54911703125,69.0,79.0
255,176.6517589125,176.82350621875,77.0,77.0
256,176.8956604125,177.2533826125,74.0,86.0
257,177.3834634125,177.53590185,72.0,83.0
258,177.62736491249998,177.79809596249999,69.0,82.0
259,177.8712664125,178.00236346875,67.0,76.0
260,178.1151679125,178.3590694125,67.0,77.0
261,178.3590694125,178.60297091249998,67.0,77.0
262,178.60297091249998,178.75337683749999,69.0,78.0
263,178.8468724125,179.25235865624998,65.0,75.0
264,179.3346754125,179.76251929375,62.0,83.0
265,179.8224784125,179.94239665,67.0,77.0
266,180.0663799125,180.19239568749998,67.0,76.0
267,180.3102814125,180.46170359375,67.0,77.0
268,180.55418291249998,180.70967011874998,69.0,80.0
269,180.7980844125,181.1639366625,65.0,76.0
270,181.2858874125,181.64056084375,64.0,83.0
271,181.7736904125,182.85600331875,62.0,78.0
272,183.7249024125,183.86209700625,69.0,82.0
273,183.9688039125,184.35396503125,69.0,79.0
274,184.4566069125,184.62835421875,77.0,77.0
275,184.7005084125,185.05823061249998,74.0,86.0
276,185.18831141249998,185.34074985,72.0,83.0
277,185.4322129125,185.6029439625,69.0,82.0
278,185.6761144125,185.80721146874998,67.0,76.0
279,185.9200159125,186.16391741249998,67.0,77.0
280,186.16391741249998,186.4078189125,67.0,77.0
281,186.4078189125,186.5582248375,69.0,78.0
282,186.6517204125,187.05720665625,65.0,75.0
283,187.13952341249998,187.56736729374998,62.0,83.0
284,187.6273264125,187.74724465,67.0,77.0
285,187.8712279125,187.9972436875,67.0,76.0
286,188.11512941249998,188.26655159375,67.0,77.0
287,188.3590309125,188.51451811875,69.0,80.0
288,188.6029324125,188.96878466249998,65.0,76.0
289,189.09073541249998,189.44540884375,64.0,83.0
290,189.5785384125,190.66085131875,62.0,78.0
291,191.5297504125,191.66694500625,69.0,82.0
292,191.7736519125,192.15881303125,69.0,79.0
293,192.2614549125,192.43320221874998,77.0,77.0
294,192.5053564125,192.8630786125,74.0,86.0
295,192.9931594125,193.14559785,72.0,83.0
296,193.2370609125,193.4077919625,69.0,82.0
297,193.4809624125,193.61205946875,67.0,76.0
298,193.72486391249998,193.9687654125,67.0,77.0
299,193.9687654125,194.2126669125,67.0,77.0
300,194.2126669125,194.3630728375,69.0,78.0
301,194.4565684125,194.86205465625,65.0,75.0
302,194.9443714125,195.37221529375,62.0,83.0
303,195.4321744125,195.55209265,67.0,77.0
304,195.67607591249998,195.8020916875,67.0,76.0
305,195.9199774125,196.07139959375,67.0,77.0
306,196.1638789125,196.31936611875,69.0,80.0
307,196.4077804125,196.7736326625,77.0,76.0
308,196.8955834125,197.25025684375,76.0,83.0
309,197.3833864125,198.46569931874998,74.0,78.0
