,start,end,pitch,velocity
0,4.2133984125,4.5182752875,62.0,78.0
1,4.2133984125,4.5955107625,57.0,75.0
2,4.2133984125,5.13311031875,50.0,82.0
3,4.7012014125,5.2255896375,65.0,81.0
4,4.7012014125,5.2337196875,62.0,82.0
5,4.9451029124999994,5.25099604375,57.0,76.0
6,5.4329059125,5.52741774375,62.0,76.0
7,5.4329059125,5.53148276875,57.0,76.0
8,5.4329059125,5.54977538125,65.0,79.0
9,5.1890044125,5.589409375,45.0,73.0
10,5.920708912499999,6.0101394625,62.0,75.0
11,5.920708912499999,6.0548547374999995,57.0,74.0
12,5.920708912499999,6.2022118937499995,45.0,83.0
13,6.6524134125,6.7398114499999995,57.0,80.0
14,6.6524134125,7.0406233,62.0,83.0
15,6.6524134125,7.0477370937499995,65.0,83.0
16,6.1646104125,7.10058241875,50.0,89.0
17,6.896314912499999,7.16155779375,57.0,69.0
18,7.3841179125,7.49692235625,62.0,81.0
19,7.3841179125,7.499971125,57.0,77.0
20,7.3841179125,7.5202962499999995,65.0,79.0
21,7.1402164125,8.0223268375,45.0,71.0
22,7.871920912499999,8.0650096,57.0,75.0
23,7.871920912499999,8.0711071375,65.0,79.0
24,7.871920912499999,8.0833022125,62.0,78.0
25,8.6036254125,8.69813724375,57.0,72.0
26,8.1158224125,8.926794899999999,45.0,84.0
27,8.6036254125,9.14732250625,60.0,77.0
28,8.6036254125,9.15951758125,64.0,84.0
29,8.8475269125,9.20220034375,57.0,76.0
30,9.335329912499999,9.41154913125,64.0,82.0
31,9.335329912499999,9.417646668749999,60.0,75.0
32,9.335329912499999,9.425776718749999,57.0,74.0
33,9.0914284125,9.4450855875,52.0,78.0
34,9.8231329125,10.08024574375,52.0,79.0
35,9.8231329125,10.1280097875,64.0,79.0
36,9.8231329125,10.1300423,60.0,70.0
37,9.8231329125,10.1361398375,57.0,71.0
38,10.5548374125,10.6341054,57.0,75.0
39,10.0670344125,10.85869803125,45.0,72.0
40,10.5548374125,10.864795568749999,64.0,82.0
41,10.5548374125,10.92780345625,60.0,74.0
42,10.7987389125,10.978616268749999,57.0,77.0
43,11.286541912499999,11.385118768749999,60.0,77.0
44,11.286541912499999,11.386135025,64.0,83.0
45,11.286541912499999,11.3881675375,57.0,77.0
46,11.042640412499999,11.411541431249999,52.0,81.0
47,11.7743449125,11.94304345,52.0,82.0
48,11.7743449125,12.02434395,64.0,83.0
49,11.7743449125,12.03349025625,60.0,75.0
50,11.7743449125,12.0629616875,57.0,77.0
51,12.5060494125,12.6015775,55.0,78.0
52,12.0182464125,12.6523903125,43.0,82.0
53,12.5060494125,12.98368985,58.0,84.0
54,12.5060494125,13.020275074999999,62.0,83.0
55,12.7499509125,13.05381153125,55.0,77.0
56,13.237753912499999,13.3170219,58.0,82.0
57,13.237753912499999,13.33226574375,55.0,75.0
58,13.237753912499999,13.337347025,62.0,82.0
59,12.993852412499999,13.423728806249999,50.0,76.0
60,13.7255569125,13.986734768749999,58.0,82.0
61,13.7255569125,14.008076149999999,62.0,82.0
62,13.7255569125,14.01722245625,55.0,77.0
63,13.9694584125,14.5507569875,43.0,83.0
64,14.4572614125,14.613764875,55.0,81.0
65,14.4572614125,14.650350099999999,58.0,85.0
66,14.4572614125,14.72352055,62.0,82.0
67,14.7011629125,14.814983612499999,50.0,74.0
68,14.945064412499999,15.45624130625,43.0,82.0
69,15.188965912499999,15.6117285125,58.0,83.0
70,15.188965912499999,15.63713491875,62.0,82.0
71,15.188965912499999,15.65339501875,55.0,81.0
72,15.6767689125,15.82819109375,43.0,82.0
73,15.9206704125,16.2702625625,60.0,80.0
74,15.9206704125,16.27331133125,57.0,72.0
75,15.9206704125,16.48469263125,45.0,83.0
76,16.4084734125,16.53957046875,57.0,79.0
77,16.4084734125,16.75908181875,60.0,83.0
78,16.4084734125,16.7641631,64.0,83.0
79,16.6523749125,16.8353010375,57.0,71.0
80,17.1401779125,17.4165996125,64.0,83.0
81,17.1401779125,17.417615868749998,57.0,77.0
82,16.8962764125,17.42371340625,45.0,82.0
83,17.1401779125,17.433875968749998,60.0,78.0
84,17.6279809125,17.7702567875,64.0,82.0
85,17.6279809125,17.77737058125,52.0,80.0
86,17.6279809125,17.7783868375,60.0,72.0
87,17.6279809125,17.78346811875,57.0,70.0
88,17.8718824125,18.18997061875,62.0,77.0
89,17.8718824125,18.20216569375,57.0,75.0
90,18.3596854125,18.4328558625,57.0,76.0
91,18.3596854125,18.692001206249998,65.0,82.0
92,18.3596854125,18.711310075,62.0,84.0
93,17.8718824125,18.72350515,50.0,78.0
94,18.6035869125,18.74484653125,57.0,70.0
95,18.8474884125,18.95013029375,57.0,69.0
96,18.8474884125,18.95013029375,62.0,76.0
97,18.8474884125,18.96639039375,50.0,82.0
98,19.0913899125,19.20419435625,62.0,78.0
99,19.0913899125,19.20622686875,57.0,72.0
100,19.0913899125,19.2194382,50.0,81.0
101,19.3352914125,19.475534775,57.0,82.0
102,19.3352914125,19.4795998,62.0,86.0
103,19.3352914125,19.4897623625,50.0,83.0
104,19.823094412499998,20.182849125,57.0,69.0
105,19.823094412499998,20.1930116875,62.0,76.0
106,20.3108974125,20.394230425,57.0,77.0
107,20.3108974125,20.46333585,62.0,83.0
108,20.3108974125,20.499921075,65.0,82.0
109,19.823094412499998,20.77126149375,50.0,83.0
110,20.5547989125,20.868822093749998,57.0,70.0
111,20.5547989125,20.88711470625,65.0,67.0
112,20.5547989125,20.8881309625,62.0,74.0
113,21.0426019125,21.13304871875,62.0,82.0
114,21.0426019125,21.13711374375,57.0,77.0
115,21.0426019125,21.1564226125,65.0,82.0
116,20.7987004125,21.32512115,45.0,78.0
117,21.5304049125,21.703168475,62.0,76.0
118,21.5304049125,21.7092660125,57.0,70.0
119,21.5304049125,21.8393468125,45.0,82.0
120,22.2621094125,22.334263606249998,62.0,82.0
121,22.2621094125,22.337312375,57.0,73.0
122,22.2621094125,22.345442424999998,65.0,79.0
123,22.5060109125,22.65946560625,62.0,77.0
124,22.5060109125,22.6645468875,57.0,73.0
125,22.5060109125,22.6645468875,65.0,74.0
126,21.7743064125,22.73974985,50.0,82.0
127,22.9938139125,23.12084594375,57.0,76.0
128,22.9938139125,23.12694348125,62.0,82.0
129,22.9938139125,23.12897599375,65.0,82.0
130,22.7499124125,23.296658275,45.0,77.0
131,23.481616912499998,23.6584455,45.0,82.0
132,23.725518412499998,23.73872974375,62.0,72.0
133,23.725518412499998,24.09441943125,60.0,76.0
134,23.725518412499998,24.09645194375,57.0,81.0
135,24.2133214125,24.3108820125,57.0,78.0
136,24.2133214125,24.312914525,60.0,84.0
137,23.725518412499998,24.3230770875,45.0,83.0
138,24.2133214125,24.32409334375,64.0,83.0
139,24.4572229125,24.575108637499998,60.0,81.0
140,24.4572229125,24.59340125,57.0,74.0
141,24.4572229125,24.5994987875,64.0,83.0
142,24.9450259125,25.044619025,57.0,75.0
143,24.9450259125,25.04563528125,60.0,80.0
144,24.9450259125,25.0466515375,64.0,83.0
145,24.7011244125,25.36880476875,52.0,77.0
146,25.4328289125,25.67164913125,64.0,82.0
147,25.4328289125,25.686892975,57.0,75.0
148,25.4328289125,25.6970555375,60.0,81.0
149,26.1645334125,26.29766298125,57.0,75.0
150,26.1645334125,26.305793031249998,64.0,83.0
151,25.6767304125,26.4572152125,45.0,84.0
152,26.4084349125,26.703149225,57.0,77.0
153,26.4084349125,26.71026301875,64.0,87.0
154,26.8962379125,26.9897334875,64.0,83.0
155,26.6523364125,27.00091230625,52.0,78.0
156,26.8962379125,27.007009843749998,57.0,81.0
157,27.384040912499998,27.522251762499998,45.0,78.0
158,27.384040912499998,27.621844875,64.0,82.0
159,27.384040912499998,27.713307937499998,57.0,72.0
160,28.1157454125,28.20009468125,62.0,84.0
161,28.1157454125,28.217371037499998,57.0,82.0
162,28.1157454125,28.2458262125,65.0,82.0
163,27.627942412499998,28.567979443749998,50.0,82.0
164,28.3596469125,28.662491275,62.0,81.0
165,28.3596469125,28.6665563,65.0,80.0
166,28.3596469125,28.67570260625,57.0,77.0
167,28.8474499125,29.01614845,62.0,79.0
168,28.8474499125,29.07001003125,65.0,80.0
169,28.8474499125,29.0994814625,57.0,74.0
170,28.6035484125,29.207204625,45.0,81.0
171,29.3352529125,29.47651253125,50.0,81.0
172,29.3352529125,29.49887016875,62.0,78.0
173,29.3352529125,29.556796775,57.0,73.0
174,29.5791544125,29.87081995625,55.0,66.0
175,29.5791544125,29.92366528125,62.0,74.0
176,30.0669574125,30.176713087499998,55.0,82.0
177,30.0669574125,30.18585939375,62.0,82.0
178,29.5791544125,30.37691556875,43.0,82.0
179,30.3108589125,30.65740229375,62.0,83.0
180,30.3108589125,30.675694906249998,55.0,82.0
181,30.7986619125,30.946019068749997,62.0,82.0
182,30.7986619125,30.95414911875,55.0,81.0
183,30.5547604125,31.07609986875,50.0,74.0
184,31.286464912499998,31.498862468749998,55.0,80.0
185,31.286464912499998,31.510041287499998,62.0,78.0
186,32.0181694125,32.08625858125,55.0,76.0
187,32.0181694125,32.1645103125,60.0,84.0
188,32.0181694125,32.33016008125,64.0,85.0
189,31.530366412499998,32.34946895,48.0,84.0
190,32.2620709125,32.38198915,55.0,77.0
191,32.5059724125,32.839304462499996,58.0,76.0
192,32.5059724125,32.84032071875,62.0,78.0
193,32.5059724125,32.8514995375,53.0,81.0
194,32.9937754125,33.2092217375,58.0,83.0
195,32.5059724125,33.2254818375,46.0,83.0
196,33.2376769125,33.32405869375,53.0,78.0
197,32.9937754125,33.37283899375,62.0,81.0
198,33.4815784125,33.8149104625,62.0,77.0
199,33.4815784125,33.822024256249996,57.0,75.0
200,33.9693814125,34.052714425,57.0,67.0
201,33.9693814125,34.0994622125,62.0,80.0
202,33.9693814125,34.1319824125,65.0,78.0
203,34.2132829125,34.410436624999996,62.0,67.0
204,33.4815784125,34.46429820625,50.0,82.0
205,34.2132829125,34.48665584375,65.0,58.0
206,34.2132829125,34.5222248125,57.0,72.0
207,34.4571844125,34.74275241875,45.0,74.0
208,34.7010859125,34.796614,62.0,75.0
209,34.7010859125,34.80474405,57.0,73.0
210,34.7010859125,34.809825331249996,65.0,75.0
211,34.7010859125,34.81592286875,50.0,82.0
212,34.9449874125,35.09437708125,62.0,84.0
213,34.9449874125,35.09742585,57.0,82.0
214,34.9449874125,35.12994605,50.0,88.0
215,34.9449874125,35.13705984375,65.0,84.0
216,35.4327904125,35.792545125,57.0,69.0
217,35.4327904125,35.802707687499996,62.0,76.0
218,35.9205934125,36.003926424999996,57.0,77.0
219,35.9205934125,36.07303185,62.0,83.0
220,35.9205934125,36.109617074999996,65.0,82.0
221,35.4327904125,36.380957493749996,50.0,83.0
222,36.1644949125,36.47851809375,57.0,70.0
223,36.1644949125,36.49681070625,65.0,67.0
224,36.1644949125,36.4978269625,62.0,74.0
225,36.652297912499996,36.74274471875,62.0,82.0
226,36.652297912499996,36.74680974375,57.0,77.0
227,36.652297912499996,36.7661186125,65.0,82.0
228,36.4083964125,36.93481715,45.0,78.0
229,37.140100912499996,37.312864475,62.0,76.0
230,37.140100912499996,37.3189620125,57.0,70.0
231,37.140100912499996,37.4490428125,45.0,82.0
232,37.8718054125,37.94395960625,62.0,82.0
233,37.8718054125,37.947008374999996,57.0,73.0
234,37.8718054125,37.955138425,65.0,79.0
235,38.1157069125,38.26916160625,62.0,77.0
236,38.1157069125,38.2742428875,57.0,73.0
237,38.1157069125,38.2742428875,65.0,74.0
238,37.384002412499996,38.34944585,50.0,82.0
239,38.6035099125,38.73054194375,57.0,76.0
240,38.6035099125,38.73663948125,62.0,82.0
241,38.6035099125,38.738671993749996,65.0,82.0
242,38.3596084125,38.906354275,45.0,77.0
243,39.0913129125,39.2681415,45.0,82.0
244,39.3352144125,39.34842574375,62.0,72.0
245,39.3352144125,39.704115431249996,60.0,76.0
246,39.3352144125,39.70614794375,57.0,81.0
247,39.8230174125,39.9205780125,57.0,78.0
248,39.8230174125,39.922610524999996,60.0,84.0
249,39.3352144125,39.932773087499996,45.0,83.0
250,39.8230174125,39.93378934375,64.0,83.0
251,40.0669189125,40.1848046375,60.0,81.0
252,40.0669189125,40.20309725,57.0,74.0
253,40.0669189125,40.209194787499996,64.0,83.0
254,40.5547219125,40.654315024999995,57.0,75.0
255,40.5547219125,40.65533128125,60.0,80.0
256,40.5547219125,40.6563475375,64.0,83.0
257,40.3108204125,40.978500768749996,52.0,77.0
258,41.0425249125,41.28134513125,64.0,82.0
259,41.0425249125,41.296588975,57.0,75.0
260,41.0425249125,41.3067515375,60.0,81.0
261,41.7742294125,41.90735898125,57.0,75.0
262,41.7742294125,41.91548903125,64.0,83.0
263,41.2864264125,42.066911212499996,45.0,84.0
264,42.0181309125,42.312845225,57.0,77.0
265,42.0181309125,42.31995901875,64.0,87.0
266,42.5059339125,42.5994294875,64.0,83.0
267,42.2620324125,42.61060830625,52.0,78.0
268,42.5059339125,42.61670584375,57.0,81.0
269,42.9937369125,43.1319477625,45.0,78.0
270,42.9937369125,43.231540875,64.0,82.0
271,42.9937369125,43.3230039375,57.0,72.0
272,43.7254414125,43.80979068125,62.0,84.0
273,43.7254414125,43.8270670375,57.0,82.0
274,43.7254414125,43.8555222125,65.0,82.0
275,43.2376384125,44.17767544375,50.0,82.0
276,43.9693429125,44.272187275,62.0,81.0
277,43.9693429125,44.276252299999996,65.0,80.0
278,43.9693429125,44.28539860625,57.0,77.0
279,44.457145912499996,44.625844449999995,62.0,79.0
280,44.457145912499996,44.67970603125,65.0,80.0
281,44.457145912499996,44.7091774625,57.0,74.0
282,44.213244412499996,44.816900624999995,45.0,81.0
283,44.944948912499996,45.08620853125,50.0,81.0
284,44.944948912499996,45.10856616875,62.0,78.0
285,44.944948912499996,45.166492775,57.0,73.0
286,45.188850412499995,45.480515956249995,55.0,66.0
287,45.188850412499995,45.53336128125,62.0,74.0
288,45.6766534125,45.7864090875,55.0,82.0
289,45.6766534125,45.79555539375,62.0,82.0
290,45.188850412499995,45.98661156875,43.0,82.0
291,45.9205549125,46.267098293749996,62.0,83.0
292,45.9205549125,46.28539090625,55.0,82.0
293,46.4083579125,46.55571506875,62.0,82.0
294,46.4083579125,46.563845118749995,55.0,81.0
295,46.1644564125,46.68579586875,50.0,74.0
296,46.8961609125,47.10855846875,55.0,80.0
297,46.8961609125,47.1197372875,62.0,78.0
298,47.6278654125,47.69595458125,55.0,76.0
299,47.6278654125,47.7742063125,60.0,84.0
300,47.6278654125,47.93985608125,64.0,85.0
301,47.1400624125,47.95916495,48.0,84.0
302,47.8717669125,47.99168515,55.0,77.0
303,48.1156684125,48.449000462499995,58.0,76.0
304,48.1156684125,48.45001671875,62.0,78.0
305,48.1156684125,48.4611955375,53.0,81.0
306,48.6034714125,48.8189177375,58.0,83.0
307,48.1156684125,48.8351778375,46.0,83.0
308,48.8473729125,48.93375469375,53.0,78.0
309,48.6034714125,48.98253499375,62.0,81.0
310,49.0912744125,49.4246064625,62.0,77.0
311,49.0912744125,49.431720256249996,57.0,75.0
312,49.5790774125,49.662410425,57.0,67.0
313,49.5790774125,49.7091582125,62.0,80.0
314,49.5790774125,49.7416784125,65.0,78.0
315,49.8229789125,50.020132624999995,62.0,67.0
316,49.0912744125,50.07399420625,50.0,82.0
317,49.8229789125,50.09635184375,65.0,58.0
318,49.8229789125,50.1319208125,57.0,72.0
319,50.0668804125,50.35244841875,45.0,74.0
320,50.3107819125,50.40631,62.0,75.0
321,50.3107819125,50.414440049999996,57.0,73.0
322,50.3107819125,50.419521331249996,65.0,75.0
323,50.3107819125,50.42561886875,50.0,82.0
324,50.5546834125,50.70407308125,62.0,84.0
325,50.5546834125,50.70712185,57.0,82.0
326,50.5546834125,50.73964205,50.0,88.0
327,50.5546834125,50.74675584375,65.0,84.0
328,51.0424864125,51.38699728125,62.0,77.0
329,51.0424864125,51.417484968749996,57.0,71.0
330,51.0424864125,52.003864825,50.0,82.0
331,51.5302894125,52.0668727125,62.0,83.0
332,51.774190912499996,52.077035275,57.0,78.0
333,51.5302894125,52.081100299999996,65.0,82.0
334,52.261993912499996,52.377847124999995,57.0,79.0
335,52.261993912499996,52.3839446625,62.0,81.0
336,52.261993912499996,52.394107225,65.0,82.0
337,52.018092412499996,52.74065060625,45.0,78.0
338,52.749796912499995,52.94186934375,50.0,77.0
339,52.749796912499995,53.016056049999996,65.0,83.0
340,52.749796912499995,53.028251125,57.0,78.0
341,52.749796912499995,53.0384136875,62.0,82.0
342,53.4815014125,53.57601324375,57.0,78.0
343,53.4815014125,53.579062012499996,64.0,86.0
344,52.993698412499995,53.88495514375,45.0,84.0
345,53.7254029125,54.066865012499996,64.0,85.0
346,53.7254029125,54.085157625,57.0,79.0
347,54.2132059125,54.34227045625,64.0,85.0
348,54.2132059125,54.353449274999996,57.0,78.0
349,53.9693044125,54.7802769,52.0,78.0
350,54.7010089125,54.92560154375,64.0,85.0
351,54.7010089125,55.01503209375,57.0,82.0
352,54.9449104125,55.24877103125,60.0,75.0
353,54.9449104125,55.273161181249996,55.0,76.0
354,54.9449104125,55.8351508875,48.0,79.0
355,55.4327134125,55.971329225,64.0,86.0
356,55.4327134125,55.99876814375,60.0,83.0
357,55.6766149125,56.0221420375,55.0,83.0
358,56.1644179125,56.26705979375,60.0,84.0
359,56.1644179125,56.28535240625,64.0,85.0
360,56.1644179125,56.286368662499996,55.0,81.0
361,55.9205164125,56.3636041375,43.0,78.0
362,56.6522209125,56.79754555625,55.0,78.0
363,56.6522209125,56.8148219125,48.0,84.0
364,56.6522209125,56.81583816875,60.0,78.0
365,56.8961224125,57.269088456249996,62.0,83.0
366,56.8961224125,57.27518599375,57.0,80.0
367,56.8961224125,57.80567175625,50.0,91.0
368,57.3839254125,57.9367688125,65.0,82.0
369,57.6278269125,57.9408338375,57.0,77.0
370,57.3839254125,57.94185009375,62.0,84.0
371,57.8717284125,58.154247649999995,45.0,83.0
372,58.1156299125,58.22640184375,62.0,78.0
373,58.1156299125,58.22843435625,65.0,78.0
374,58.1156299125,58.23249938125,57.0,75.0
375,58.1156299125,58.2335156375,50.0,82.0
376,58.3595314125,58.70404228125,57.0,77.0
377,58.3595314125,58.73249745625,62.0,82.0
378,58.3595314125,58.7477413,65.0,83.0
379,58.3595314125,58.7802615,50.0,84.0
380,58.8473344125,59.207089124999996,57.0,69.0
381,58.8473344125,59.217251687499996,62.0,76.0
382,59.335137412499996,59.418470424999995,57.0,77.0
383,59.335137412499996,59.48757585,62.0,83.0
384,59.335137412499996,59.524161074999995,65.0,82.0
385,58.8473344125,59.795501493749995,50.0,83.0
386,59.579038912499996,59.89306209375,57.0,70.0
387,59.579038912499996,59.91135470625,65.0,67.0
388,59.579038912499996,59.9123709625,62.0,74.0
389,60.066841912499996,60.157288718749996,62.0,82.0
390,60.066841912499996,60.16135374375,57.0,77.0
391,60.066841912499996,60.1806626125,65.0,82.0
392,59.822940412499996,60.34936115,45.0,78.0
393,60.554644912499995,60.727408475,62.0,76.0
394,60.554644912499995,60.7335060125,57.0,70.0
395,60.554644912499995,60.863586812499996,45.0,82.0
396,61.2863494125,61.35850360625,62.0,82.0
397,61.2863494125,61.361552374999995,57.0,73.0
398,61.2863494125,61.369682425,65.0,79.0
399,61.5302509125,61.68370560625,62.0,77.0
400,61.5302509125,61.6887868875,57.0,73.0
401,61.5302509125,61.6887868875,65.0,74.0
402,60.798546412499995,61.76398985,50.0,82.0
403,62.0180539125,62.14508594375,57.0,76.0
404,62.0180539125,62.15118348125,62.0,82.0
405,62.0180539125,62.153215993749996,65.0,82.0
406,61.7741524125,62.320898275,45.0,77.0
407,62.5058569125,62.6826855,45.0,82.0
408,62.7497584125,62.76296974375,62.0,72.0
409,62.7497584125,63.118659431249995,60.0,76.0
410,62.7497584125,63.120691943749996,57.0,81.0
411,63.2375614125,63.3351220125,57.0,78.0
412,63.2375614125,63.337154524999995,60.0,84.0
413,62.7497584125,63.347317087499995,45.0,83.0
414,63.2375614125,63.34833334375,64.0,83.0
415,63.4814629125,63.5993486375,60.0,81.0
416,63.4814629125,63.61764125,57.0,74.0
417,63.4814629125,63.623738787499995,64.0,83.0
418,63.9692659125,64.068859025,57.0,75.0
419,63.9692659125,64.06987528124999,60.0,80.0
420,63.9692659125,64.0708915375,64.0,83.0
421,63.7253644125,64.39304476875,52.0,77.0
422,64.45706891249999,64.69588913125,64.0,82.0
423,64.45706891249999,64.711132975,57.0,75.0
424,64.45706891249999,64.7212955375,60.0,81.0
425,65.1887734125,65.32190298124999,57.0,75.0
426,65.1887734125,65.33003303125,64.0,83.0
427,64.7009704125,65.4814552125,45.0,84.0
428,65.4326749125,65.727389225,57.0,77.0
429,65.4326749125,65.73450301875,64.0,87.0
430,65.9204779125,66.0139734875,64.0,83.0
431,65.6765764125,66.02515230624999,52.0,78.0
432,65.9204779125,66.03124984375,57.0,81.0
433,66.4082809125,66.5464917625,45.0,78.0
434,66.4082809125,66.646084875,64.0,82.0
435,66.4082809125,66.7375479375,57.0,72.0
436,67.1399854125,67.22433468125,62.0,84.0
437,67.1399854125,67.2416110375,57.0,82.0
438,67.1399854125,67.2700662125,65.0,82.0
439,66.6521824125,67.59221944375,50.0,82.0
440,67.3838869125,67.686731275,62.0,81.0
441,67.3838869125,67.6907963,65.0,80.0
442,67.3838869125,67.69994260625,57.0,77.0
443,67.8716899125,68.04038845,62.0,79.0
444,67.8716899125,68.09425003125,65.0,80.0
445,67.8716899125,68.1237214625,57.0,74.0
446,67.6277884125,68.231444625,45.0,81.0
447,68.3594929125,68.50075253125,50.0,81.0
448,68.3594929125,68.52311016875,62.0,78.0
449,68.3594929125,68.581036775,57.0,73.0
450,68.6033944125,68.89505995625,55.0,66.0
451,68.6033944125,68.94790528125,62.0,74.0
452,69.0911974125,69.2009530875,55.0,82.0
453,69.0911974125,69.21009939375,62.0,82.0
454,68.6033944125,69.40115556875,43.0,82.0
455,69.3350989125,69.68164229375,62.0,83.0
456,69.3350989125,69.69993490625,55.0,82.0
457,69.8229019125,69.97025906875,62.0,82.0
458,69.8229019125,69.97838911875,55.0,81.0
459,69.5790004125,70.10033986875,50.0,74.0
460,70.3107049125,70.52310246875,55.0,80.0
461,70.3107049125,70.5342812875,62.0,78.0
462,71.04240941249999,71.11049858125,55.0,76.0
463,71.04240941249999,71.18875031249999,60.0,84.0
464,71.04240941249999,71.35440008124999,64.0,85.0
465,70.5546064125,71.37370895,48.0,84.0
466,71.2863109125,71.40622915,55.0,77.0
467,71.53021241249999,71.8635444625,58.0,76.0
468,71.53021241249999,71.86456071875,62.0,78.0
469,71.53021241249999,71.8757395375,53.0,81.0
470,72.01801541249999,72.2334617375,58.0,83.0
471,71.53021241249999,72.2497218375,46.0,83.0
472,72.2619169125,72.34829869375,53.0,78.0
473,72.01801541249999,72.39707899375,62.0,81.0
474,72.50581841249999,72.8391504625,62.0,77.0
475,72.50581841249999,72.84626425625,57.0,75.0
476,72.9936214125,73.076954425,57.0,67.0
477,72.9936214125,73.12370221249999,62.0,80.0
478,72.9936214125,73.1562224125,65.0,78.0
479,73.2375229125,73.434676625,62.0,67.0
480,72.50581841249999,73.48853820625,50.0,82.0
481,73.2375229125,73.51089584374999,65.0,58.0
482,73.2375229125,73.54646481249999,57.0,72.0
483,73.4814244125,73.76699241875,45.0,74.0
484,73.7253259125,73.820854,62.0,75.0
485,73.7253259125,73.82898405,57.0,73.0
486,73.7253259125,73.83406533125,65.0,75.0
487,73.7253259125,73.84016286875,50.0,82.0
488,73.9692274125,74.11861708125,62.0,84.0
489,73.9692274125,74.12166585,57.0,82.0
490,73.9692274125,74.15418604999999,50.0,88.0
491,73.9692274125,74.16129984375,65.0,84.0
492,74.4570304125,74.816785125,57.0,69.0
493,74.4570304125,74.8269476875,62.0,76.0
494,74.9448334125,75.028166425,57.0,77.0
495,74.9448334125,75.09727185,62.0,83.0
496,74.9448334125,75.133857075,65.0,82.0
497,74.4570304125,75.40519749375,50.0,83.0
498,75.1887349125,75.50275809375,57.0,70.0
499,75.1887349125,75.52105070625,65.0,67.0
500,75.1887349125,75.52206696249999,62.0,74.0
501,75.6765379125,75.76698471875,62.0,82.0
502,75.6765379125,75.77104974375,57.0,77.0
503,75.6765379125,75.7903586125,65.0,82.0
504,75.4326364125,75.95905714999999,45.0,78.0
505,76.1643409125,76.337104475,62.0,76.0
506,76.1643409125,76.3432020125,57.0,70.0
507,76.1643409125,76.4732828125,45.0,82.0
508,76.8960454125,76.96819960625,62.0,82.0
509,76.8960454125,76.971248375,57.0,73.0
510,76.8960454125,76.979378425,65.0,79.0
511,77.1399469125,77.29340160625,62.0,77.0
512,77.1399469125,77.2984828875,57.0,73.0
513,77.1399469125,77.2984828875,65.0,74.0
514,76.4082424125,77.37368585,50.0,82.0
515,77.6277499125,77.75478194375,57.0,76.0
516,77.6277499125,77.76087948125,62.0,82.0
517,77.6277499125,77.76291199375,65.0,82.0
518,77.3838484125,77.930594275,45.0,77.0
519,78.1155529125,78.2923815,45.0,82.0
520,78.3594544125,78.37266574374999,62.0,72.0
521,78.3594544125,78.72835543125,60.0,76.0
522,78.3594544125,78.73038794375,57.0,81.0
523,78.8472574125,78.9448180125,57.0,78.0
524,78.8472574125,78.946850525,60.0,84.0
525,78.3594544125,78.9570130875,45.0,83.0
526,78.8472574125,78.95802934375,64.0,83.0
527,79.09115891249999,79.2090446375,60.0,81.0
528,79.09115891249999,79.22733724999999,57.0,74.0
529,79.09115891249999,79.2334347875,64.0,83.0
530,79.57896191249999,79.678555025,57.0,75.0
531,79.57896191249999,79.67957128124999,60.0,80.0
532,79.57896191249999,79.6805875375,64.0,83.0
533,79.3350604125,80.00274076875,52.0,77.0
534,80.06676491249999,80.30558513125,64.0,82.0
535,80.06676491249999,80.320828975,57.0,75.0
536,80.06676491249999,80.3309915375,60.0,81.0
537,80.7984694125,80.93159898124999,57.0,75.0
538,80.7984694125,80.93972903125,64.0,83.0
539,80.3106664125,81.0911512125,45.0,84.0
540,81.0423709125,81.337085225,57.0,77.0
541,81.0423709125,81.34419901875,64.0,87.0
542,81.5301739125,81.6236694875,64.0,83.0
543,81.2862724125,81.63484830624999,52.0,78.0
544,81.5301739125,81.64094584375,57.0,81.0
545,82.0179769125,82.1561877625,45.0,78.0
546,82.0179769125,82.255780875,64.0,82.0
547,82.0179769125,82.3472439375,57.0,72.0
548,82.7496814125,82.83403068125,62.0,84.0
549,82.7496814125,82.85130703749999,57.0,82.0
550,82.7496814125,82.8797622125,65.0,82.0
551,82.2618784125,83.20191544375,50.0,82.0
552,82.9935829125,83.296427275,62.0,81.0
553,82.9935829125,83.3004923,65.0,80.0
554,82.9935829125,83.30963860625,57.0,77.0
555,83.4813859125,83.65008445,62.0,79.0
556,83.4813859125,83.70394603125,65.0,80.0
557,83.4813859125,83.7334174625,57.0,74.0
558,83.2374844125,83.841140625,45.0,81.0
559,83.9691889125,84.11044853125,50.0,81.0
560,83.9691889125,84.13280616875,62.0,78.0
561,83.9691889125,84.190732775,57.0,73.0
562,84.2130904125,84.50475595625,55.0,66.0
563,84.2130904125,84.55760128125,62.0,74.0
564,84.7008934125,84.8106490875,55.0,82.0
565,84.7008934125,84.81979539375,62.0,82.0
566,84.2130904125,85.01085156875,43.0,82.0
567,84.9447949125,85.29133829375,62.0,83.0
568,84.9447949125,85.30963090624999,55.0,82.0
569,85.4325979125,85.57995506875,62.0,82.0
570,85.4325979125,85.58808511875,55.0,81.0
571,85.1886964125,85.71003586875,50.0,74.0
572,85.9204009125,86.13279846875,55.0,80.0
573,85.9204009125,86.1439772875,62.0,78.0
574,86.65210541249999,86.72019458125,55.0,76.0
575,86.65210541249999,86.79844631249999,60.0,84.0
576,86.65210541249999,86.96409608124999,64.0,85.0
577,86.16430241249999,86.98340495,48.0,84.0
578,86.8960069125,87.01592515,55.0,77.0
579,87.13990841249999,87.4732404625,58.0,76.0
580,87.13990841249999,87.47425671875,62.0,78.0
581,87.13990841249999,87.4854355375,53.0,81.0
582,87.62771141249999,87.8431577375,58.0,83.0
583,87.13990841249999,87.8594178375,46.0,83.0
584,87.8716129125,87.95799469375,53.0,78.0
585,87.62771141249999,88.00677499375,62.0,81.0
586,88.11551441249999,88.4488464625,62.0,77.0
587,88.11551441249999,88.45596025625,57.0,75.0
588,88.6033174125,88.686650425,57.0,67.0
589,88.6033174125,88.73339821249999,62.0,80.0
590,88.6033174125,88.7659184125,65.0,78.0
591,88.8472189125,89.044372625,62.0,67.0
592,88.11551441249999,89.09823420625,50.0,82.0
593,88.8472189125,89.12059184374999,65.0,58.0
594,88.8472189125,89.15616081249999,57.0,72.0
595,89.0911204125,89.37668841874999,45.0,74.0
596,89.3350219125,89.43055,62.0,75.0
597,89.3350219125,89.43868005,57.0,73.0
598,89.3350219125,89.44376133125,65.0,75.0
599,89.3350219125,89.44985886875,50.0,82.0
600,89.5789234125,89.72831308125,62.0,84.0
601,89.5789234125,89.73136185,57.0,82.0
602,89.5789234125,89.76388204999999,50.0,88.0
603,89.5789234125,89.77099584375,65.0,84.0
604,90.0667264125,90.4488387625,62.0,64.0
605,90.0667264125,90.6398949375,57.0,66.0
606,90.5545294125,90.64497621875,62.0,80.0
607,90.5545294125,90.66530134375,65.0,81.0
608,90.7984309125,90.90005653749999,62.0,83.0
609,90.7984309125,90.9081865875,57.0,77.0
610,90.7984309125,90.9366417625,65.0,82.0
611,90.0667264125,90.99456836875,50.0,83.0
612,91.2862339125,91.37769697499999,62.0,80.0
613,91.2862339125,91.38074574375,57.0,76.0
614,91.2862339125,91.40615215,65.0,82.0
615,91.0423324125,91.4407048625,45.0,77.0
616,91.7740369125,92.00675959375,65.0,82.0
617,91.7740369125,92.15919803125,57.0,78.0
618,91.7740369125,92.19171823125,62.0,81.0
619,92.5057414125,92.56468427499999,57.0,71.0
620,92.5057414125,92.57992811875,62.0,82.0
621,92.5057414125,92.61244831875,65.0,82.0
622,92.7496429125,92.84212223125,62.0,82.0
623,92.7496429125,92.85431730625,65.0,81.0
624,92.7496429125,92.86244735625,57.0,73.0
625,92.0179384125,92.8878537625,50.0,81.0
626,93.2374459125,93.4285020875,62.0,78.0
627,93.2374459125,93.4325671125,57.0,75.0
628,93.2374459125,93.46407105624999,65.0,80.0
629,92.9935444125,93.74862280625,45.0,82.0
630,93.72524891249999,94.003703125,65.0,81.0
631,93.72524891249999,94.04536963125,57.0,78.0
632,93.72524891249999,94.04943465625,62.0,79.0
633,94.4569534125,94.556546525,57.0,74.0
634,94.4569534125,94.5626440625,62.0,81.0
635,94.4569534125,94.57687165,65.0,79.0
636,94.70085491249999,94.8390657625,62.0,79.0
637,94.70085491249999,94.86955345,57.0,73.0
638,94.70085491249999,94.8756509875,65.0,80.0
639,93.9691504125,94.92748005624999,50.0,78.0
640,95.18865791249999,95.28723476875,57.0,72.0
641,95.18865791249999,95.29333230625,62.0,75.0
642,95.18865791249999,95.30959240624999,65.0,78.0
643,94.9447564125,95.6886559875,45.0,77.0
644,95.67646091249999,95.99251660624999,57.0,78.0
645,95.67646091249999,95.9996304,62.0,82.0
646,95.67646091249999,96.00471168125,65.0,80.0
647,96.16426391249999,96.24048313125,57.0,65.0
648,96.16426391249999,96.2435319,65.0,70.0
649,96.16426391249999,96.26284076875,62.0,75.0
650,95.9203624125,96.914261025,50.0,75.0
651,96.4081654125,96.94982999375,57.0,76.0
652,96.4081654125,96.95999255625,65.0,82.0
653,96.4081654125,96.97015511875,62.0,82.0
654,97.1398699125,97.37360885,57.0,76.0
655,97.1398699125,97.37564136249999,65.0,83.0
656,97.1398699125,97.39698274375,62.0,82.0
657,96.8959684125,97.5788926125,45.0,76.0
658,97.6276729125,97.82584288125,57.0,75.0
659,97.6276729125,97.84616800625,62.0,78.0
660,97.6276729125,97.85328179999999,65.0,80.0
661,97.8715744125,98.1764512875,62.0,78.0
662,97.8715744125,98.2536867625,57.0,75.0
663,97.8715744125,98.79128631875,50.0,82.0
664,98.3593774125,98.88376563749999,65.0,81.0
665,98.3593774125,98.8918956875,62.0,82.0
666,98.6032789125,98.90917204375,57.0,76.0
667,99.0910819125,99.18559374374999,62.0,76.0
668,99.0910819125,99.18965876875,57.0,76.0
669,99.0910819125,99.20795138125,65.0,79.0
670,98.8471804125,99.247585375,45.0,73.0
671,99.5788849125,99.6683154625,62.0,75.0
672,99.5788849125,99.71303073749999,57.0,74.0
673,99.5788849125,99.86038789375,45.0,83.0
674,100.3105894125,100.39798745,57.0,80.0
675,100.3105894125,100.69879929999999,62.0,83.0
676,100.3105894125,100.70591309375,65.0,83.0
677,99.8227864125,100.75875841874999,50.0,89.0
678,100.5544909125,100.81973379375,57.0,69.0
679,101.0422939125,101.15509835625,62.0,81.0
680,101.0422939125,101.158147125,57.0,77.0
681,101.0422939125,101.17847225,65.0,79.0
682,100.7983924125,101.6805028375,45.0,71.0
683,101.5300969125,101.7231856,57.0,75.0
684,101.5300969125,101.72928313749999,65.0,79.0
685,101.5300969125,101.7414782125,62.0,78.0
686,102.26180141249999,102.35631324375,57.0,72.0
687,101.77399841249999,102.5849709,45.0,84.0
688,102.26180141249999,102.80549850625,60.0,77.0
689,102.26180141249999,102.81769358125,64.0,84.0
690,102.5057029125,102.86037634374999,57.0,76.0
691,102.9935059125,103.06972513125,64.0,82.0
692,102.9935059125,103.07582266874999,60.0,75.0
693,102.9935059125,103.08395271875,57.0,74.0
694,102.74960441249999,103.1032615875,52.0,78.0
695,103.4813089125,103.73842174375,52.0,79.0
696,103.4813089125,103.7861857875,64.0,79.0
697,103.4813089125,103.7882183,60.0,70.0
698,103.4813089125,103.7943158375,57.0,71.0
699,104.2130134125,104.2922814,57.0,75.0
700,103.72521041249999,104.51687403125,45.0,72.0
701,104.2130134125,104.52297156875,64.0,82.0
702,104.2130134125,104.58597945625,60.0,74.0
703,104.4569149125,104.63679226875,57.0,77.0
704,104.9447179125,105.04329476875,60.0,77.0
705,104.9447179125,105.044311025,64.0,83.0
706,104.9447179125,105.0463435375,57.0,77.0
707,104.7008164125,105.06971743125,52.0,81.0
708,105.4325209125,105.60121945,52.0,82.0
709,105.4325209125,105.68251995,64.0,83.0
710,105.4325209125,105.69166625625,60.0,75.0
711,105.4325209125,105.7211376875,57.0,77.0
712,106.1642254125,106.2597535,55.0,78.0
713,105.6764224125,106.3105663125,43.0,82.0
714,106.1642254125,106.64186585,58.0,84.0
715,106.1642254125,106.678451075,62.0,83.0
716,106.4081269125,106.71198753125,55.0,77.0
717,106.8959299125,106.9751979,58.0,82.0
718,106.8959299125,106.99044174375,55.0,75.0
719,106.8959299125,106.995523025,62.0,82.0
720,106.6520284125,107.08190480625,50.0,76.0
721,107.3837329125,107.64491076875,58.0,82.0
722,107.3837329125,107.66625214999999,62.0,82.0
723,107.3837329125,107.67539845625,55.0,77.0
724,107.6276344125,108.20893298749999,43.0,83.0
725,108.1154374125,108.271940875,55.0,81.0
726,108.1154374125,108.3085261,58.0,85.0
727,108.1154374125,108.38169655,62.0,82.0
728,108.3593389125,108.4731596125,50.0,74.0
729,108.6032404125,109.11441730624999,43.0,82.0
730,108.84714191249999,109.26990451249999,58.0,83.0
731,108.84714191249999,109.29531091874999,62.0,82.0
732,108.84714191249999,109.31157101875,55.0,81.0
733,109.33494491249999,109.48636709374999,43.0,82.0
734,109.5788464125,109.92843856249999,60.0,80.0
735,109.5788464125,109.93148733125,57.0,72.0
736,109.5788464125,110.14286863125,45.0,83.0
737,110.0666494125,110.19774646875,57.0,79.0
738,110.0666494125,110.41725781875,60.0,83.0
739,110.0666494125,110.4223391,64.0,83.0
740,110.31055091249999,110.4934770375,57.0,71.0
741,110.79835391249999,111.07477561249999,64.0,83.0
742,110.79835391249999,111.07579186875,57.0,77.0
743,110.5544524125,111.08188940625,45.0,82.0
744,110.79835391249999,111.09205196875,60.0,78.0
745,111.28615691249999,111.4284327875,64.0,82.0
746,111.28615691249999,111.43554658125,52.0,80.0
747,111.28615691249999,111.43656283749999,60.0,72.0
748,111.28615691249999,111.44164411874999,57.0,70.0
749,111.5300584125,111.84814661875,62.0,77.0
750,111.5300584125,111.86034169375,57.0,75.0
751,112.0178614125,112.0910318625,57.0,76.0
752,112.0178614125,112.35017720625,65.0,82.0
753,112.0178614125,112.369486075,62.0,84.0
754,111.5300584125,112.38168114999999,50.0,78.0
755,112.2617629125,112.40302253125,57.0,70.0
756,112.5056644125,112.60830629374999,57.0,69.0
757,112.5056644125,112.60830629374999,62.0,76.0
758,112.5056644125,112.62456639375,50.0,82.0
759,112.7495659125,112.86237035625,62.0,78.0
760,112.7495659125,112.86440286874999,57.0,72.0
761,112.7495659125,112.8776142,50.0,81.0
762,112.9934674125,113.133710775,57.0,82.0
763,112.9934674125,113.1377758,62.0,86.0
764,112.9934674125,113.1479383625,50.0,83.0
765,113.4812704125,113.841025125,57.0,69.0
766,113.4812704125,113.8511876875,62.0,76.0
767,113.9690734125,114.052406425,57.0,77.0
768,113.9690734125,114.12151184999999,62.0,83.0
769,113.9690734125,114.158097075,65.0,82.0
770,113.4812704125,114.42943749375,50.0,83.0
771,114.2129749125,114.52699809375,57.0,70.0
772,114.2129749125,114.54529070625,65.0,67.0
773,114.2129749125,114.5463069625,62.0,74.0
774,114.7007779125,114.79122471875,62.0,82.0
775,114.7007779125,114.79528974374999,57.0,77.0
776,114.7007779125,114.81459861249999,65.0,82.0
777,114.4568764125,114.98329715,45.0,78.0
778,115.1885809125,115.361344475,62.0,76.0
779,115.1885809125,115.36744201249999,57.0,70.0
780,115.1885809125,115.4975228125,45.0,82.0
781,115.9202854125,115.99243960625,62.0,82.0
782,115.9202854125,115.995488375,57.0,73.0
783,115.9202854125,116.003618425,65.0,79.0
784,116.1641869125,116.31764160624999,62.0,77.0
785,116.1641869125,116.32272288749999,57.0,73.0
786,116.1641869125,116.32272288749999,65.0,74.0
787,115.4324824125,116.39792585,50.0,82.0
788,116.6519899125,116.77902194375,57.0,76.0
789,116.6519899125,116.78511948124999,62.0,82.0
790,116.6519899125,116.78715199375,65.0,82.0
791,116.40808841249999,116.954834275,45.0,77.0
792,117.1397929125,117.3166215,45.0,82.0
793,117.38369441249999,117.39690574375,62.0,72.0
794,117.38369441249999,117.75259543125,60.0,76.0
795,117.38369441249999,117.75462794375,57.0,81.0
796,117.87149741249999,117.9690580125,57.0,78.0
797,117.87149741249999,117.971090525,60.0,84.0
798,117.38369441249999,117.9812530875,45.0,83.0
799,117.87149741249999,117.98226934374999,64.0,83.0
800,118.1153989125,118.23328463749999,60.0,81.0
801,118.1153989125,118.25157725,57.0,74.0
802,118.1153989125,118.2576747875,64.0,83.0
803,118.6032019125,118.702795025,57.0,75.0
804,118.6032019125,118.70381128125,60.0,80.0
805,118.6032019125,118.7048275375,64.0,83.0
806,118.35930041249999,119.02698076875,52.0,77.0
807,119.0910049125,119.32982513124999,64.0,82.0
808,119.0910049125,119.345068975,57.0,75.0
809,119.0910049125,119.3552315375,60.0,81.0
810,119.8227094125,119.95583898125,57.0,75.0
811,119.8227094125,119.96396903125,64.0,83.0
812,119.33490641249999,120.1153912125,45.0,84.0
813,120.0666109125,120.361325225,57.0,77.0
814,120.0666109125,120.36843901875,64.0,87.0
815,120.5544139125,120.6479094875,64.0,83.0
816,120.3105124125,120.65908830625,52.0,78.0
817,120.5544139125,120.66518584375,57.0,81.0
818,121.0422169125,121.1804277625,45.0,78.0
819,121.0422169125,121.28002087499999,64.0,82.0
820,121.0422169125,121.3714839375,57.0,72.0
821,121.7739214125,121.85827068124999,62.0,84.0
822,121.7739214125,121.8755470375,57.0,82.0
823,121.7739214125,121.9040022125,65.0,82.0
824,121.2861184125,122.22615544375,50.0,82.0
825,122.0178229125,122.32066727499999,62.0,81.0
826,122.0178229125,122.3247323,65.0,80.0
827,122.0178229125,122.33387860625,57.0,77.0
828,122.5056259125,122.67432445,62.0,79.0
829,122.5056259125,122.72818603124999,65.0,80.0
830,122.5056259125,122.75765746249999,57.0,74.0
831,122.2617244125,122.865380625,45.0,81.0
832,122.9934289125,123.13468853124999,50.0,81.0
833,122.9934289125,123.15704616875,62.0,78.0
834,122.9934289125,123.21497277499999,57.0,73.0
835,123.2373304125,123.52899595625,55.0,66.0
836,123.2373304125,123.58184128125,62.0,74.0
837,123.7251334125,123.8348890875,55.0,82.0
838,123.7251334125,123.84403539374999,62.0,82.0
839,123.2373304125,124.03509156874999,43.0,82.0
840,123.96903491249999,124.31557829375,62.0,83.0
841,123.96903491249999,124.33387090625,55.0,82.0
842,124.45683791249999,124.60419506875,62.0,82.0
843,124.45683791249999,124.61232511875,55.0,81.0
844,124.2129364125,124.73427586874999,50.0,74.0
845,124.94464091249999,125.15703846875,55.0,80.0
846,124.94464091249999,125.1682172875,62.0,78.0
847,125.6763454125,125.74443458124999,55.0,76.0
848,125.6763454125,125.8226863125,60.0,84.0
849,125.6763454125,125.98833608125,64.0,85.0
850,125.1885424125,126.00764495,48.0,84.0
851,125.92024691249999,126.04016514999999,55.0,77.0
852,126.1641484125,126.4974804625,58.0,76.0
853,126.1641484125,126.49849671874999,62.0,78.0
854,126.1641484125,126.5096755375,53.0,81.0
855,126.6519514125,126.8673977375,58.0,83.0
856,126.1641484125,126.8836578375,46.0,83.0
857,126.89585291249999,126.98223469375,53.0,78.0
858,126.6519514125,127.03101499374999,62.0,81.0
859,127.1397544125,127.47308646249999,62.0,77.0
860,127.1397544125,127.48020025625,57.0,75.0
861,127.6275574125,127.710890425,57.0,67.0
862,127.6275574125,127.7576382125,62.0,80.0
863,127.6275574125,127.79015841249999,65.0,78.0
864,127.8714589125,128.068612625,62.0,67.0
865,127.1397544125,128.12247420625,50.0,82.0
866,127.8714589125,128.14483184374998,65.0,58.0
867,127.8714589125,128.18040081249998,57.0,72.0
868,128.1153604125,128.40092841875,45.0,74.0
869,128.3592619125,128.45479,62.0,75.0
870,128.3592619125,128.46292005,57.0,73.0
871,128.3592619125,128.46800133125,65.0,75.0
872,128.3592619125,128.47409886875,50.0,82.0
873,128.6031634125,128.75255308125,62.0,84.0
874,128.6031634125,128.75560185,57.0,82.0
875,128.6031634125,128.78812205,50.0,88.0
876,128.6031634125,128.79523584375,65.0,84.0
877,129.0909664125,129.450721125,57.0,69.0
878,129.0909664125,129.4608836875,62.0,76.0
879,129.5787694125,129.662102425,57.0,77.0
880,129.5787694125,129.73120785,62.0,83.0
881,129.5787694125,129.767793075,65.0,82.0
882,129.0909664125,130.03913349375,50.0,83.0
883,129.8226709125,130.13669409375,57.0,70.0
884,129.8226709125,130.15498670624999,65.0,67.0
885,129.8226709125,130.1560029625,62.0,74.0
886,130.3104739125,130.40092071875,62.0,82.0
887,130.3104739125,130.40498574375,57.0,77.0
888,130.3104739125,130.4242946125,65.0,82.0
889,130.0665724125,130.59299314999998,45.0,78.0
890,130.7982769125,130.971040475,62.0,76.0
891,130.7982769125,130.9771380125,57.0,70.0
892,130.7982769125,131.1072188125,45.0,82.0
893,131.5299814125,131.60213560625,62.0,82.0
894,131.5299814125,131.605184375,57.0,73.0
895,131.5299814125,131.613314425,65.0,79.0
896,131.7738829125,131.92733760625,62.0,77.0
897,131.7738829125,131.9324188875,57.0,73.0
898,131.7738829125,131.9324188875,65.0,74.0
899,131.0421784125,132.00762185,50.0,82.0
900,132.26168591249998,132.38871794375,57.0,76.0
901,132.26168591249998,132.39481548125,62.0,82.0
902,132.26168591249998,132.39684799375,65.0,82.0
903,132.0177844125,132.564530275,45.0,77.0
904,132.7494889125,132.9263175,45.0,82.0
905,132.9933904125,133.00660174375,62.0,72.0
906,132.9933904125,133.36229143125,60.0,76.0
907,132.9933904125,133.36432394375,57.0,81.0
908,133.4811934125,133.57875401249999,57.0,78.0
909,133.4811934125,133.580786525,60.0,84.0
910,132.9933904125,133.5909490875,45.0,83.0
911,133.4811934125,133.59196534375,64.0,83.0
912,133.7250949125,133.8429806375,60.0,81.0
913,133.7250949125,133.86127324999998,57.0,74.0
914,133.7250949125,133.8673707875,64.0,83.0
915,134.21289791249998,134.31249102499999,57.0,75.0
916,134.21289791249998,134.31350728125,60.0,80.0
917,134.21289791249998,134.3145235375,64.0,83.0
918,133.9689964125,134.63667676875,52.0,77.0
919,134.7007009125,134.93952113125,64.0,82.0
920,134.7007009125,134.954764975,57.0,75.0
921,134.7007009125,134.9649275375,60.0,81.0
922,135.4324054125,135.56553498124998,57.0,75.0
923,135.4324054125,135.57366503125,64.0,83.0
924,134.9446024125,135.7250872125,45.0,84.0
925,135.6763069125,135.971021225,57.0,77.0
926,135.6763069125,135.97813501875,64.0,87.0
927,136.1641099125,136.2576054875,64.0,83.0
928,135.9202084125,136.26878430624998,52.0,78.0
929,136.1641099125,136.27488184375,57.0,81.0
930,136.6519129125,136.7901237625,45.0,78.0
931,136.6519129125,136.889716875,64.0,82.0
932,136.6519129125,136.9811799375,57.0,72.0
933,137.3836174125,137.46796668125,62.0,84.0
934,137.3836174125,137.4852430375,57.0,82.0
935,137.3836174125,137.5136982125,65.0,82.0
936,136.8958144125,137.83585144375,50.0,82.0
937,137.6275189125,137.930363275,62.0,81.0
938,137.6275189125,137.9344283,65.0,80.0
939,137.6275189125,137.94357460625,57.0,77.0
940,138.1153219125,138.28402044999999,62.0,79.0
941,138.1153219125,138.33788203125,65.0,80.0
942,138.1153219125,138.3673534625,57.0,74.0
943,137.8714204125,138.47507662499999,45.0,81.0
944,138.6031249125,138.74438453125,50.0,81.0
945,138.6031249125,138.76674216875,62.0,78.0
946,138.6031249125,138.824668775,57.0,73.0
947,138.84702641249999,139.13869195625,55.0,66.0
948,138.84702641249999,139.19153728125,62.0,74.0
949,139.3348294125,139.4445850875,55.0,82.0
950,139.3348294125,139.45373139375,62.0,82.0
951,138.84702641249999,139.64478756875,43.0,82.0
952,139.5787309125,139.92527429375,62.0,83.0
953,139.5787309125,139.94356690625,55.0,82.0
954,140.0665339125,140.21389106875,62.0,82.0
955,140.0665339125,140.22202111875,55.0,81.0
956,139.82263241249998,140.34397186875,50.0,74.0
957,140.5543369125,140.76673446875,55.0,80.0
958,140.5543369125,140.77791328749998,62.0,78.0
959,141.2860414125,141.35413058125,55.0,76.0
960,141.2860414125,141.43238231249998,60.0,84.0
961,141.2860414125,141.59803208124998,64.0,85.0
962,140.79823841249998,141.61734095,48.0,84.0
963,141.5299429125,141.64986115,55.0,77.0
964,141.77384441249998,142.1071764625,58.0,76.0
965,141.77384441249998,142.10819271875,62.0,78.0
966,141.77384441249998,142.1193715375,53.0,81.0
967,142.2616474125,142.47709373749998,58.0,83.0
968,141.77384441249998,142.4933538375,46.0,83.0
969,142.5055489125,142.59193069375,53.0,78.0
970,142.2616474125,142.64071099375,62.0,81.0
971,142.74945041249998,143.0827824625,62.0,77.0
972,142.74945041249998,143.08989625625,57.0,75.0
973,143.2372534125,143.320586425,57.0,67.0
974,143.2372534125,143.3673342125,62.0,80.0
975,143.2372534125,143.3998544125,65.0,78.0
976,143.4811549125,143.678308625,62.0,67.0
977,142.74945041249998,143.73217020625,50.0,82.0
978,143.4811549125,143.75452784375,65.0,58.0
979,143.4811549125,143.7900968125,57.0,72.0
980,143.7250564125,144.01062441874998,45.0,74.0
981,143.9689579125,144.064486,62.0,75.0
982,143.9689579125,144.07261605,57.0,73.0
983,143.9689579125,144.07769733125,65.0,75.0
984,143.9689579125,144.08379486875,50.0,82.0
985,144.2128594125,144.36224908124998,62.0,84.0
986,144.2128594125,144.36529785,57.0,82.0
987,144.2128594125,144.39781804999998,50.0,88.0
988,144.2128594125,144.40493184375,65.0,84.0
989,144.7006624125,145.04517328125,62.0,77.0
990,144.7006624125,145.07566096875,57.0,71.0
991,144.7006624125,145.662040825,50.0,82.0
992,145.1884654125,145.72504871249998,62.0,83.0
993,145.4323669125,145.73521127499998,57.0,78.0
994,145.1884654125,145.7392763,65.0,82.0
995,145.9201699125,146.03602312499999,57.0,79.0
996,145.9201699125,146.0421206625,62.0,81.0
997,145.9201699125,146.052283225,65.0,82.0
998,145.6762684125,146.39882660625,45.0,78.0
999,146.4079729125,146.60004534375,50.0,77.0
1000,146.4079729125,146.67423205,65.0,83.0
1001,146.4079729125,146.686427125,57.0,78.0
1002,146.4079729125,146.6965896875,62.0,82.0
1003,147.1396774125,147.23418924375,57.0,78.0
1004,147.1396774125,147.2372380125,64.0,86.0
1005,146.6518744125,147.54313114375,45.0,84.0
1006,147.38357891249998,147.7250410125,64.0,85.0
1007,147.38357891249998,147.743333625,57.0,79.0
1008,147.8713819125,148.00044645625,64.0,85.0
1009,147.8713819125,148.011625275,57.0,78.0
1010,147.6274804125,148.4384529,52.0,78.0
1011,148.35918491249998,148.58377754375,64.0,85.0
1012,148.35918491249998,148.67320809375,57.0,82.0
1013,148.6030864125,148.90694703124998,60.0,75.0
1014,148.6030864125,148.93133718125,55.0,76.0
1015,148.6030864125,149.4933268875,48.0,79.0
1016,149.0908894125,149.629505225,64.0,86.0
1017,149.0908894125,149.65694414375,60.0,83.0
1018,149.33479091249998,149.6803180375,55.0,83.0
1019,149.8225939125,149.92523579375,60.0,84.0
1020,149.8225939125,149.94352840624998,64.0,85.0
1021,149.8225939125,149.9445446625,55.0,81.0
1022,149.5786924125,150.0217801375,43.0,78.0
1023,150.31039691249998,150.45572155624998,55.0,78.0
1024,150.31039691249998,150.4729979125,48.0,84.0
1025,150.31039691249998,150.47401416875,60.0,78.0
1026,150.5542984125,150.92726445625,62.0,83.0
1027,150.5542984125,150.93336199375,57.0,80.0
1028,150.5542984125,151.46384775625,50.0,91.0
1029,151.0421014125,151.5949448125,65.0,82.0
1030,151.2860029125,151.5990098375,57.0,77.0
1031,151.0421014125,151.60002609375,62.0,84.0
1032,151.5299044125,151.81242365,45.0,83.0
1033,151.7738059125,151.88457784375,62.0,78.0
1034,151.7738059125,151.88661035625,65.0,78.0
1035,151.7738059125,151.89067538125,57.0,75.0
1036,151.7738059125,151.8916916375,50.0,82.0
1037,152.0177074125,152.36221828125,57.0,77.0
1038,152.0177074125,152.39067345625,62.0,82.0
1039,152.0177074125,152.4059173,65.0,83.0
1040,152.0177074125,152.4384375,50.0,84.0
1041,152.5055104125,152.865265125,57.0,69.0
1042,152.5055104125,152.8754276875,62.0,76.0
1043,152.9933134125,153.076646425,57.0,77.0
1044,152.9933134125,153.14575184999998,62.0,83.0
1045,152.9933134125,153.182337075,65.0,82.0
1046,152.5055104125,153.45367749375,50.0,83.0
1047,153.2372149125,153.55123809375,57.0,70.0
1048,153.2372149125,153.56953070625,65.0,67.0
1049,153.2372149125,153.5705469625,62.0,74.0
1050,153.7250179125,153.81546471875,62.0,82.0
1051,153.7250179125,153.81952974375,57.0,77.0
1052,153.7250179125,153.83883861249998,65.0,82.0
1053,153.4811164125,154.00753715,45.0,78.0
1054,154.2128209125,154.385584475,62.0,76.0
1055,154.2128209125,154.39168201249998,57.0,70.0
1056,154.2128209125,154.5217628125,45.0,82.0
1057,154.94452541249998,155.01667960625,62.0,82.0
1058,154.94452541249998,155.019728375,57.0,73.0
1059,154.94452541249998,155.027858425,65.0,79.0
1060,155.1884269125,155.34188160624998,62.0,77.0
1061,155.1884269125,155.34696288749998,57.0,73.0
1062,155.1884269125,155.34696288749998,65.0,74.0
1063,154.4567224125,155.42216585,50.0,82.0
1064,155.6762299125,155.80326194375,57.0,76.0
1065,155.6762299125,155.80935948125,62.0,82.0
1066,155.6762299125,155.81139199375,65.0,82.0
1067,155.4323284125,155.979074275,45.0,77.0
1068,156.1640329125,156.3408615,45.0,82.0
1069,156.4079344125,156.42114574375,62.0,72.0
1070,156.4079344125,156.77683543125,60.0,76.0
1071,156.4079344125,156.77886794375,57.0,81.0
1072,156.89573741249998,156.9932980125,57.0,78.0
1073,156.89573741249998,156.99533052499999,60.0,84.0
1074,156.4079344125,157.00549308749999,45.0,83.0
1075,156.89573741249998,157.00650934375,64.0,83.0
1076,157.1396389125,157.25752463749998,60.0,81.0
1077,157.1396389125,157.27581725,57.0,74.0
1078,157.1396389125,157.2819147875,64.0,83.0
1079,157.6274419125,157.727035025,57.0,75.0
1080,157.6274419125,157.72805128125,60.0,80.0
1081,157.6274419125,157.7290675375,64.0,83.0
1082,157.3835404125,158.05122076875,52.0,77.0
1083,158.1152449125,158.35406513125,64.0,82.0
1084,158.1152449125,158.369308975,57.0,75.0
1085,158.1152449125,158.3794715375,60.0,81.0
1086,158.8469494125,158.98007898125,57.0,75.0
1087,158.8469494125,158.98820903125,64.0,83.0
1088,158.3591464125,159.1396312125,45.0,84.0
1089,159.0908509125,159.385565225,57.0,77.0
1090,159.0908509125,159.39267901875,64.0,87.0
1091,159.5786539125,159.6721494875,64.0,83.0
1092,159.3347524125,159.68332830625,52.0,78.0
1093,159.5786539125,159.68942584375,57.0,81.0
1094,160.0664569125,160.2046677625,45.0,78.0
1095,160.0664569125,160.30426087499998,64.0,82.0
1096,160.0664569125,160.3957239375,57.0,72.0
1097,160.7981614125,160.88251068124998,62.0,84.0
1098,160.7981614125,160.8997870375,57.0,82.0
1099,160.7981614125,160.9282422125,65.0,82.0
1100,160.3103584125,161.25039544375,50.0,82.0
1101,161.0420629125,161.344907275,62.0,81.0
1102,161.0420629125,161.34897229999999,65.0,80.0
1103,161.0420629125,161.35811860625,57.0,77.0
1104,161.5298659125,161.69856445,62.0,79.0
1105,161.5298659125,161.75242603125,65.0,80.0
1106,161.5298659125,161.78189746249998,57.0,74.0
1107,161.2859644125,161.889620625,45.0,81.0
1108,162.0176689125,162.15892853124998,50.0,81.0
1109,162.0176689125,162.18128616875,62.0,78.0
1110,162.0176689125,162.239212775,57.0,73.0
1111,162.2615704125,162.55323595625,55.0,66.0
1112,162.2615704125,162.60608128125,62.0,74.0
1113,162.7493734125,162.8591290875,55.0,82.0
1114,162.7493734125,162.86827539375,62.0,82.0
1115,162.2615704125,163.05933156875,43.0,82.0
1116,162.9932749125,163.33981829375,62.0,83.0
1117,162.9932749125,163.35811090625,55.0,82.0
1118,163.48107791249998,163.62843506875,62.0,82.0
1119,163.48107791249998,163.63656511874999,55.0,81.0
1120,163.2371764125,163.75851586874998,50.0,74.0
1121,163.9688809125,164.18127846875,55.0,80.0
1122,163.9688809125,164.1924572875,62.0,78.0
1123,164.7005854125,164.76867458125,55.0,76.0
1124,164.7005854125,164.8469263125,60.0,84.0
1125,164.7005854125,165.01257608125,64.0,85.0
1126,164.2127824125,165.03188495,48.0,84.0
1127,164.9444869125,165.06440515,55.0,77.0
1128,165.1883884125,165.52172046249999,58.0,76.0
1129,165.1883884125,165.52273671875,62.0,78.0
1130,165.1883884125,165.5339155375,53.0,81.0
1131,165.6761914125,165.8916377375,58.0,83.0
1132,165.1883884125,165.9078978375,46.0,83.0
1133,165.9200929125,166.00647469375,53.0,78.0
1134,165.6761914125,166.05525499375,62.0,81.0
1135,166.1639944125,166.49732646249998,62.0,77.0
1136,166.1639944125,166.50444025625,57.0,75.0
1137,166.6517974125,166.735130425,57.0,67.0
1138,166.6517974125,166.7818782125,62.0,80.0
1139,166.6517974125,166.8143984125,65.0,78.0
1140,166.8956989125,167.092852625,62.0,67.0
1141,166.1639944125,167.14671420624998,50.0,82.0
1142,166.8956989125,167.16907184375,65.0,58.0
1143,166.8956989125,167.2046408125,57.0,72.0
1144,167.1396004125,167.42516841875,45.0,74.0
1145,167.3835019125,167.47903,62.0,75.0
1146,167.3835019125,167.48716005,57.0,73.0
1147,167.3835019125,167.49224133125,65.0,75.0
1148,167.3835019125,167.49833886874998,50.0,82.0
1149,167.6274034125,167.77679308125,62.0,84.0
1150,167.6274034125,167.77984185,57.0,82.0
1151,167.6274034125,167.81236205,50.0,88.0
1152,167.6274034125,167.81947584374998,65.0,84.0
1153,168.1152064125,168.474961125,57.0,69.0
1154,168.1152064125,168.4851236875,62.0,76.0
1155,168.6030094125,168.686342425,57.0,77.0
1156,168.6030094125,168.75544785,62.0,83.0
1157,168.6030094125,168.792033075,65.0,82.0
1158,168.1152064125,169.06337349375,50.0,83.0
1159,168.8469109125,169.16093409375,57.0,70.0
1160,168.8469109125,169.17922670625,65.0,67.0
1161,168.8469109125,169.1802429625,62.0,74.0
1162,169.3347139125,169.42516071875,62.0,82.0
1163,169.3347139125,169.42922574374998,57.0,77.0
1164,169.3347139125,169.4485346125,65.0,82.0
1165,169.0908124125,169.61723315,45.0,78.0
1166,169.8225169125,169.995280475,62.0,76.0
1167,169.8225169125,170.0013780125,57.0,70.0
1168,169.8225169125,170.1314588125,45.0,82.0
1169,170.5542214125,170.62637560625,62.0,82.0
1170,170.5542214125,170.62942437499999,57.0,73.0
1171,170.5542214125,170.637554425,65.0,79.0
1172,170.7981229125,170.95157760625,62.0,77.0
1173,170.7981229125,170.9566588875,57.0,73.0
1174,170.7981229125,170.9566588875,65.0,74.0
1175,170.06641841249998,171.03186184999998,50.0,82.0
1176,171.2859259125,171.41295794375,57.0,76.0
1177,171.2859259125,171.41905548124998,62.0,82.0
1178,171.2859259125,171.42108799375,65.0,82.0
1179,171.04202441249998,171.588770275,45.0,77.0
1180,171.7737289125,171.9505575,45.0,82.0
1181,172.01763041249998,172.03084174375,62.0,72.0
1182,172.01763041249998,172.38653143125,60.0,76.0
1183,172.01763041249998,172.38856394375,57.0,81.0
1184,172.5054334125,172.6029940125,57.0,78.0
1185,172.5054334125,172.605026525,60.0,84.0
1186,172.01763041249998,172.6151890875,45.0,83.0
1187,172.5054334125,172.61620534374998,64.0,83.0
1188,172.7493349125,172.8672206375,60.0,81.0
1189,172.7493349125,172.88551325,57.0,74.0
1190,172.7493349125,172.89161078749999,64.0,83.0
1191,173.2371379125,173.336731025,57.0,75.0
1192,173.2371379125,173.33774728125,60.0,80.0
1193,173.2371379125,173.3387635375,64.0,83.0
1194,172.99323641249998,173.66091676874998,52.0,77.0
1195,173.7249409125,173.96376113124998,64.0,82.0
1196,173.7249409125,173.979004975,57.0,75.0
1197,173.7249409125,173.9891675375,60.0,81.0
1198,174.4566454125,174.58977498125,57.0,75.0
1199,174.4566454125,174.59790503125,64.0,83.0
1200,173.96884241249998,174.7493272125,45.0,84.0
1201,174.7005469125,174.995261225,57.0,77.0
1202,174.7005469125,175.00237501875,64.0,87.0
1203,175.1883499125,175.2818454875,64.0,83.0
1204,174.9444484125,175.29302430625,52.0,78.0
1205,175.1883499125,175.29912184375,57.0,81.0
1206,175.6761529125,175.8143637625,45.0,78.0
1207,175.6761529125,175.913956875,64.0,82.0
1208,175.6761529125,176.0054199375,57.0,72.0
1209,176.4078574125,176.49220668125,62.0,84.0
1210,176.4078574125,176.5094830375,57.0,82.0
1211,176.4078574125,176.5379382125,65.0,82.0
1212,175.9200544125,176.86009144375,50.0,82.0
1213,176.6517589125,176.95460327499998,62.0,81.0
1214,176.6517589125,176.9586683,65.0,80.0
1215,176.6517589125,176.96781460625,57.0,77.0
1216,177.1395619125,177.30826045,62.0,79.0
1217,177.1395619125,177.36212203124998,65.0,80.0
1218,177.1395619125,177.3915934625,57.0,74.0
1219,176.8956604125,177.499316625,45.0,81.0
1220,177.62736491249998,177.76862453125,50.0,81.0
1221,177.62736491249998,177.79098216875,62.0,78.0
1222,177.62736491249998,177.84890877499998,57.0,73.0
1223,177.8712664125,178.16293195625,55.0,66.0
1224,177.8712664125,178.21577728124998,62.0,74.0
1225,178.3590694125,178.4688250875,55.0,82.0
1226,178.3590694125,178.47797139374998,62.0,82.0
1227,177.8712664125,178.66902756874998,43.0,82.0
1228,178.60297091249998,178.94951429374998,62.0,83.0
1229,178.60297091249998,178.96780690625,55.0,82.0
1230,179.0907739125,179.23813106875,62.0,82.0
1231,179.0907739125,179.24626111875,55.0,81.0
1232,178.8468724125,179.36821186875,50.0,74.0
1233,179.57857691249998,179.79097446875,55.0,80.0
1234,179.57857691249998,179.8021532875,62.0,78.0
1235,180.3102814125,180.37837058124998,55.0,76.0
1236,180.3102814125,180.4566223125,60.0,84.0
1237,180.3102814125,180.62227208125,64.0,85.0
1238,179.8224784125,180.64158095,48.0,84.0
1239,180.55418291249998,180.67410114999998,55.0,77.0
1240,180.7980844125,181.1314164625,58.0,76.0
1241,180.7980844125,181.13243271874998,62.0,78.0
1242,180.7980844125,181.1436115375,53.0,81.0
1243,181.2858874125,181.5013337375,58.0,83.0
1244,180.7980844125,181.5175938375,46.0,83.0
1245,181.52978891249998,181.61617069375,53.0,78.0
1246,181.2858874125,181.66495099374998,62.0,81.0
1247,181.7736904125,182.1070224625,62.0,77.0
1248,181.7736904125,182.11413625625,57.0,75.0
1249,182.2614934125,182.344826425,57.0,67.0
1250,182.2614934125,182.3915742125,62.0,80.0
1251,182.2614934125,182.42409441249998,65.0,78.0
1252,182.5053949125,182.702548625,62.0,67.0
1253,181.7736904125,182.75641020625,50.0,82.0
1254,182.5053949125,182.77876784375,65.0,58.0
1255,182.5053949125,182.8143368125,57.0,72.0
1256,182.7492964125,183.03486441875,45.0,74.0
1257,182.9931979125,183.088726,62.0,75.0
1258,182.9931979125,183.09685604999999,57.0,73.0
1259,182.9931979125,183.10193733124999,65.0,75.0
1260,182.9931979125,183.10803486875,50.0,82.0
1261,183.2370994125,183.38648908125,62.0,84.0
1262,183.2370994125,183.38953784999998,57.0,82.0
1263,183.2370994125,183.42205805,50.0,88.0
1264,183.2370994125,183.42917184375,65.0,84.0
1265,184.2127054125,184.29705468125,62.0,84.0
1266,184.2127054125,184.31433103749998,57.0,82.0
1267,184.2127054125,184.3427862125,65.0,82.0
1268,183.7249024125,184.66493944375,50.0,82.0
1269,184.4566069125,184.759451275,62.0,81.0
1270,184.4566069125,184.7635163,65.0,80.0
1271,184.4566069125,184.77266260625,57.0,77.0
1272,184.9444099125,185.11310845,62.0,79.0
1273,184.9444099125,185.16697003125,65.0,80.0
1274,184.9444099125,185.1964414625,57.0,74.0
1275,184.7005084125,185.304164625,45.0,81.0
1276,185.4322129125,185.57347253125,50.0,81.0
1277,185.4322129125,185.59583016874998,62.0,78.0
1278,185.4322129125,185.653756775,57.0,73.0
1279,185.6761144125,185.96777995624998,55.0,66.0
1280,185.6761144125,186.02062528125,62.0,74.0
1281,186.16391741249998,186.2736730875,55.0,82.0
1282,186.16391741249998,186.28281939375,62.0,82.0
1283,185.6761144125,186.47387556875,43.0,82.0
1284,186.4078189125,186.75436229375,62.0,83.0
1285,186.4078189125,186.77265490624998,55.0,82.0
1286,186.8956219125,187.04297906875,62.0,82.0
1287,186.8956219125,187.05110911875,55.0,81.0
1288,186.6517204125,187.17305986875,50.0,74.0
1289,187.3834249125,187.59582246875,55.0,80.0
1290,187.3834249125,187.6070012875,62.0,78.0
1291,188.11512941249998,188.18321858125,55.0,76.0
1292,188.11512941249998,188.2614703125,60.0,84.0
1293,188.11512941249998,188.42712008125,64.0,85.0
1294,187.6273264125,188.44642894999998,48.0,84.0
1295,188.3590309125,188.47894915,55.0,77.0
1296,188.6029324125,188.9362644625,58.0,76.0
1297,188.6029324125,188.93728071875,62.0,78.0
1298,188.6029324125,188.94845953749999,53.0,81.0
1299,189.09073541249998,189.3061817375,58.0,83.0
1300,188.6029324125,189.3224418375,46.0,83.0
1301,189.3346369125,189.42101869375,53.0,78.0
1302,189.09073541249998,189.46979899375,62.0,81.0
1303,189.5785384125,189.9118704625,62.0,77.0
1304,189.5785384125,189.91898425624998,57.0,75.0
1305,190.0663414125,190.149674425,57.0,67.0
1306,190.0663414125,190.19642221249998,62.0,80.0
1307,190.0663414125,190.2289424125,65.0,78.0
1308,190.3102429125,190.50739662499998,62.0,67.0
1309,189.5785384125,190.56125820625,50.0,82.0
1310,190.3102429125,190.58361584374998,65.0,58.0
1311,190.3102429125,190.61918481249998,57.0,72.0
1312,190.5541444125,190.83971241875,45.0,74.0
1313,190.7980459125,190.893574,62.0,75.0
1314,190.7980459125,190.90170405,57.0,73.0
1315,190.7980459125,190.90678533125,65.0,75.0
1316,190.7980459125,190.91288286875,50.0,82.0
1317,191.0419474125,191.19133708125,62.0,84.0
1318,191.0419474125,191.19438585,57.0,82.0
1319,191.0419474125,191.22690605,50.0,88.0
1320,191.0419474125,191.23401984375,65.0,84.0
1321,192.0175534125,192.10190268124998,62.0,84.0
1322,192.0175534125,192.1191790375,57.0,82.0
1323,192.0175534125,192.1476342125,65.0,82.0
1324,191.5297504125,192.46978744375,50.0,82.0
1325,192.2614549125,192.564299275,62.0,81.0
1326,192.2614549125,192.56836429999998,65.0,80.0
1327,192.2614549125,192.57751060625,57.0,77.0
1328,192.74925791249998,192.91795645,62.0,79.0
1329,192.74925791249998,192.97181803125,65.0,80.0
1330,192.74925791249998,193.00128946249998,57.0,74.0
1331,192.5053564125,193.109012625,45.0,81.0
1332,193.2370609125,193.37832053124998,50.0,81.0
1333,193.2370609125,193.40067816875,62.0,78.0
1334,193.2370609125,193.458604775,57.0,73.0
1335,193.4809624125,193.77262795625,55.0,66.0
1336,193.4809624125,193.82547328125,62.0,74.0
1337,193.9687654125,194.0785210875,55.0,82.0
1338,193.9687654125,194.08766739375,62.0,82.0
1339,193.4809624125,194.27872356875,43.0,82.0
1340,194.2126669125,194.55921029375,62.0,83.0
1341,194.2126669125,194.57750290625,55.0,82.0
1342,194.70046991249998,194.84782706875,62.0,82.0
1343,194.70046991249998,194.85595711874998,55.0,81.0
1344,194.4565684125,194.97790786874998,50.0,74.0
1345,195.1882729125,195.40067046875,55.0,80.0
1346,195.1882729125,195.4118492875,62.0,78.0
1347,195.9199774125,195.98806658125,55.0,76.0
1348,195.9199774125,196.0663183125,60.0,84.0
1349,195.9199774125,196.23196808125,64.0,85.0
1350,195.4321744125,196.25127695,48.0,84.0
1351,196.1638789125,196.28379715,55.0,77.0
1352,196.4077804125,196.74111246249998,58.0,76.0
1353,196.4077804125,196.74212871875,62.0,78.0
1354,196.4077804125,196.7533075375,53.0,81.0
1355,196.8955834125,197.1110297375,58.0,83.0
1356,196.4077804125,197.1272898375,46.0,83.0
1357,197.1394849125,197.22586669375,53.0,78.0
1358,196.8955834125,197.27464699375,62.0,81.0
1359,197.3833864125,197.71671846249998,62.0,77.0
1360,197.3833864125,197.72383225625,57.0,75.0
1361,197.8711894125,197.954522425,57.0,67.0
1362,197.8711894125,198.0012702125,62.0,80.0
1363,197.8711894125,198.0337904125,65.0,78.0
1364,198.1150909125,198.312244625,62.0,67.0
1365,197.3833864125,198.36610620624998,50.0,82.0
1366,198.1150909125,198.38846384375,65.0,58.0
1367,198.1150909125,198.4240328125,57.0,72.0
1368,198.3589924125,198.64456041875,45.0,74.0
1369,198.6028939125,198.698422,62.0,75.0
1370,198.6028939125,198.70655205,57.0,73.0
1371,198.6028939125,198.71163333125,65.0,75.0
1372,198.6028939125,198.71773086874998,50.0,82.0
1373,198.8467954125,198.99618508125,62.0,84.0
1374,198.8467954125,198.99923385,57.0,82.0
1375,198.8467954125,199.03175405,50.0,88.0
1376,198.8467954125,199.03886784374998,65.0,84.0
1377,199.3345984125,199.6394752875,62.0,78.0
1378,199.3345984125,199.71671076249999,57.0,75.0
1379,199.3345984125,200.25431031875,50.0,82.0
1380,199.8224014125,200.3467896375,65.0,81.0
1381,199.8224014125,200.3549196875,62.0,82.0
1382,200.0663029125,200.37219604375,57.0,76.0
1383,200.5541059125,200.64861774374998,62.0,76.0
1384,200.5541059125,200.65268276875,57.0,76.0
1385,200.5541059125,200.67097538125,65.0,79.0
1386,200.31020441249998,200.710609375,45.0,73.0
1387,201.0419089125,201.1313394625,62.0,75.0
1388,201.0419089125,201.17605473749998,57.0,74.0
1389,201.0419089125,201.32341189375,45.0,83.0
1390,201.7736134125,201.86101145,57.0,80.0
1391,201.7736134125,202.16182329999998,62.0,83.0
1392,201.7736134125,202.16893709375,65.0,83.0
1393,201.28581041249998,202.22178241875,50.0,89.0
1394,202.0175149125,202.28275779375,57.0,69.0
1395,202.5053179125,202.61812235624998,62.0,81.0
1396,202.5053179125,202.621171125,57.0,77.0
1397,202.5053179125,202.64149625,65.0,79.0
1398,202.26141641249998,203.1435268375,45.0,71.0
1399,202.9931209125,203.18620959999998,57.0,75.0
1400,202.9931209125,203.1923071375,65.0,79.0
1401,202.9931209125,203.2045022125,62.0,78.0
1402,203.7248254125,203.81933724375,57.0,72.0
1403,203.23702241249998,204.0479949,45.0,84.0
1404,203.7248254125,204.26852250625,60.0,77.0
1405,203.7248254125,204.28071758125,64.0,84.0
1406,203.9687269125,204.32340034375,57.0,76.0
1407,204.4565299125,204.53274913125,64.0,82.0
1408,204.4565299125,204.53884666874998,60.0,75.0
1409,204.4565299125,204.54697671875,57.0,74.0
1410,204.21262841249998,204.5662855875,52.0,78.0
1411,204.9443329125,205.20144574374999,52.0,79.0
1412,204.9443329125,205.2492097875,64.0,79.0
1413,204.9443329125,205.2512423,60.0,70.0
1414,204.9443329125,205.25733983749998,57.0,71.0
1415,205.6760374125,205.7553054,57.0,75.0
1416,205.18823441249998,205.97989803125,45.0,72.0
1417,205.6760374125,205.98599556874998,64.0,82.0
1418,205.6760374125,206.04900345625,60.0,74.0
1419,205.9199389125,206.09981626875,57.0,77.0
1420,206.4077419125,206.50631876875,60.0,77.0
1421,206.4077419125,206.507335025,64.0,83.0
1422,206.4077419125,206.5093675375,57.0,77.0
1423,206.1638404125,206.53274143125,52.0,81.0
1424,206.8955449125,207.06424345,52.0,82.0
1425,206.8955449125,207.14554395,64.0,83.0
1426,206.8955449125,207.15469025625,60.0,75.0
1427,206.8955449125,207.1841616875,57.0,77.0
1428,207.6272494125,207.7227775,55.0,78.0
1429,207.1394464125,207.7735903125,43.0,82.0
1430,207.6272494125,208.10488985,58.0,84.0
1431,207.6272494125,208.141475075,62.0,83.0
1432,207.87115091249998,208.17501153125,55.0,77.0
1433,208.3589539125,208.4382219,58.0,82.0
1434,208.3589539125,208.45346574375,55.0,75.0
1435,208.3589539125,208.458547025,62.0,82.0
1436,208.1150524125,208.54492880625,50.0,76.0
1437,208.84675691249998,209.10793476875,58.0,82.0
1438,208.84675691249998,209.12927614999998,62.0,82.0
1439,208.84675691249998,209.13842245625,55.0,77.0
1440,209.0906584125,209.67195698749998,43.0,83.0
1441,209.5784614125,209.734964875,55.0,81.0
1442,209.5784614125,209.77155009999998,58.0,85.0
1443,209.5784614125,209.84472055,62.0,82.0
1444,209.82236291249998,209.9361836125,50.0,74.0
1445,210.0662644125,210.57744130625,43.0,82.0
1446,210.3101659125,210.7329285125,58.0,83.0
1447,210.3101659125,210.75833491875,62.0,82.0
1448,210.3101659125,210.77459501875,55.0,81.0
1449,210.79796891249998,210.94939109375,43.0,82.0
1450,211.0418704125,211.39146256249998,60.0,80.0
1451,211.0418704125,211.39451133125,57.0,72.0
1452,211.0418704125,211.60589263125,45.0,83.0
1453,211.5296734125,211.66077046875,57.0,79.0
1454,211.5296734125,211.88028181875,60.0,83.0
1455,211.5296734125,211.8853631,64.0,83.0
1456,211.77357491249998,211.9565010375,57.0,71.0
1457,212.2613779125,212.53779961249998,64.0,83.0
1458,212.2613779125,212.53881586875,57.0,77.0
1459,212.0174764125,212.54491340625,45.0,82.0
1460,212.2613779125,212.55507596875,60.0,78.0
1461,212.74918091249998,212.8914567875,64.0,82.0
1462,212.74918091249998,212.89857058125,52.0,80.0
1463,212.74918091249998,212.89958683749998,60.0,72.0
1464,212.74918091249998,212.90466811874998,57.0,70.0
1465,212.9930824125,213.31117061875,62.0,77.0
1466,212.9930824125,213.32336569375,57.0,75.0
1467,213.4808854125,213.5540558625,57.0,76.0
1468,213.4808854125,213.81320120625,65.0,82.0
1469,213.4808854125,213.832510075,62.0,84.0
1470,212.9930824125,213.84470514999998,50.0,78.0
1471,213.7247869125,213.86604653125,57.0,70.0
1472,213.9686884125,214.07133029374998,57.0,69.0
1473,213.9686884125,214.07133029374998,62.0,76.0
1474,213.9686884125,214.08759039375,50.0,82.0
1475,214.2125899125,214.32539435625,62.0,78.0
1476,214.2125899125,214.32742686875,57.0,72.0
1477,214.2125899125,214.3406382,50.0,81.0
1478,214.4564914125,214.596734775,57.0,82.0
1479,214.4564914125,214.6007998,62.0,86.0
1480,214.4564914125,214.6109623625,50.0,83.0
