,start,end,pitch,velocity
0,15.785406570833333,15.935620737499999,64.0,83.0
1,16.04291657083333,16.195276654166666,64.0,83.0
2,16.30042657083333,16.906648029166664,64.0,86.0
3,17.072956570833334,17.2296084875,61.0,83.0
4,17.330466570833334,17.466732279166667,66.0,88.0
5,17.587976570833334,17.994627779166667,68.0,85.0
6,18.102996570833334,18.54720132083333,66.0,85.0
7,18.618016570833333,18.757501154166665,66.0,83.0
8,18.875526570833333,19.04934582083333,66.0,81.0
9,19.133036570833333,19.295053279166666,64.0,90.0
10,19.390546570833333,19.736039154166665,69.0,85.0
11,19.905566570833333,20.311144820833334,69.0,84.0
12,20.420586570833333,20.598697654166664,69.0,87.0
13,20.678096570833333,20.8798127375,66.0,85.0
14,20.935606570833333,21.213502779166667,69.0,83.0
15,21.193116570833332,21.330455237499997,66.0,86.0
16,21.450626570833332,22.69633119583333,64.0,87.0
17,24.02572657083333,24.249974862499997,61.0,89.0
18,24.28323657083333,24.424867070833333,64.0,85.0
19,24.540746570833335,25.0868823625,64.0,83.0
20,25.31327657083333,25.4699284875,61.0,84.0
21,25.570786570833334,25.710271154166666,66.0,87.0
22,25.82829657083333,26.2038319875,68.0,85.0
23,26.34331657083333,26.6609122375,66.0,83.0
24,27.115846570833334,27.293957654166665,66.0,89.0
25,27.37335657083333,27.566489070833335,64.0,85.0
26,27.630866570833334,27.976359154166666,69.0,84.0
27,28.145886570833333,28.53215157083333,69.0,84.0
28,28.660906570833333,28.858330904166664,69.0,84.0
29,28.91841657083333,29.043952695833333,66.0,85.0
30,29.175926570833333,29.578285945833333,69.0,85.0
31,29.690946570833333,30.670557529166665,71.0,84.0
32,31.751026570833332,31.906605529166665,76.0,84.0
33,32.00853657083333,32.3711964875,76.0,85.0
34,32.523556570833335,32.889435362499995,76.0,89.0
35,33.03857657083333,33.194155529166665,76.0,85.0
36,33.29608657083333,33.5010216125,73.0,86.0
37,33.553596570833335,33.68986227916666,71.0,84.0
38,33.81110657083333,33.98814469583333,69.0,85.0
39,34.06861657083333,34.49994582083333,69.0,83.0
40,34.583636570833335,34.92269140416667,66.0,84.0
41,35.09865657083333,35.23492227916667,69.0,84.0
42,35.35616657083333,35.52998582083333,66.0,84.0
43,35.613676570833334,35.748869320833336,69.0,84.0
44,35.87118657083333,35.99672269583333,71.0,84.0
45,36.12869657083333,36.251013820833336,71.0,83.0
46,36.38620657083333,36.522472279166664,71.0,84.0
47,36.643716570833334,36.7553042375,71.0,82.0
48,36.90122657083333,37.0804106125,71.0,84.0
49,37.158736570833334,37.34006652916666,69.0,83.0
50,37.41624657083334,37.82289777916667,73.0,79.0
51,37.93126657083333,39.13512582083333,71.0,81.0
52,39.99134657083333,40.14585257083333,73.0,87.0
53,40.24885657083333,40.61902719583333,73.0,87.0
54,40.76387657083333,40.90550707083333,73.0,85.0
55,41.02138657083333,41.400140862499995,73.0,85.0
56,41.536406570833336,41.943057779166665,71.0,85.0
57,42.05142657083333,42.19949482083334,69.0,84.0
58,42.30893657083333,42.6587209875,69.0,83.0
59,42.82395657083333,42.97524369583333,69.0,83.0
60,43.08146657083333,43.25635877916666,71.0,84.0
61,43.33897657083333,43.5020662375,69.0,84.0
62,43.596486570833335,43.85399657083333,66.0,84.0
63,43.85399657083333,44.11150657083333,64.0,84.0
64,44.11150657083333,44.26386665416666,64.0,83.0
65,44.36901657083333,44.72416577916667,64.0,90.0
66,44.88403657083333,45.03532369583333,64.0,89.0
67,45.14154657083333,45.3142928625,66.0,89.0
68,45.39905657083333,45.5396141125,64.0,89.0
69,45.656566570833334,45.83682357083333,71.0,86.0
70,45.91407657083333,46.102917237499994,73.0,75.0
71,46.17158657083333,48.199884052083334,69.0,83.0
72,50.825959712499994,50.97682167083333,61.0,83.0
73,51.0845802125,51.237597341666664,64.0,83.0
74,51.3432007125,51.8604417125,64.0,86.0
75,51.8604417125,52.1190622125,64.0,86.0
76,52.1190622125,52.276389683333335,61.0,83.0
77,52.3776827125,52.51453606041667,66.0,88.0
78,52.636303212499996,52.894923712499995,66.0,85.0
79,52.894923712499995,53.153544212499995,68.0,85.0
80,53.153544212499995,53.599664575,66.0,85.0
81,53.9294057125,54.10397455,66.0,81.0
82,54.1880262125,54.35074161041666,64.0,90.0
83,54.4466467125,54.793629216666666,69.0,85.0
84,54.9638877125,55.27099955625,69.0,84.0
85,55.27099955625,55.579188985416664,69.0,84.0
86,55.481128712499995,55.579188985416664,69.0,87.0
87,55.7397492125,55.94233527083333,66.0,85.0
88,55.9983697125,56.27746433541667,69.0,83.0
89,56.2569902125,56.39492114583333,66.0,86.0
90,56.5156107125,57.766687381249994,64.0,87.0
91,59.1018157125,59.32703106458333,61.0,89.0
92,59.3604362125,59.502677487499994,64.0,85.0
93,59.6190567125,60.16754768958333,64.0,83.0
94,60.3949182125,60.55224568333333,61.0,84.0
95,60.653538712499994,60.793624816666664,66.0,87.0
96,60.9121592125,61.28931410833333,68.0,85.0
97,61.4294002125,61.74836549583333,66.0,83.0
98,62.2052617125,62.38414089166666,66.0,89.0
99,62.463882212499996,62.6578475875,64.0,85.0
100,62.7225027125,63.06948521666666,69.0,84.0
101,63.2397437125,63.4983642125,69.0,84.0
102,63.4983642125,63.7569847125,69.0,84.0
103,63.7569847125,63.955260429166664,69.0,84.0
104,64.01560521249999,64.14168270625,66.0,85.0
105,64.2742257125,64.5328462125,66.0,85.0
106,64.5328462125,64.7914667125,69.0,85.0
107,64.7914667125,65.77530219791666,71.0,84.0
108,66.8604307125,67.01668059791666,76.0,84.0
109,67.1190512125,67.48327508333333,76.0,85.0
110,67.6362922125,68.00374883958332,76.0,89.0
111,68.1535332125,68.30978309791666,76.0,85.0
112,68.4121537125,68.61797252708334,73.0,86.0
113,68.67077421249999,68.80762756041666,71.0,84.0
114,68.9293947125,69.10719630625,69.0,85.0
115,69.1880152125,69.62120455,69.0,83.0
116,69.7052562125,70.04577320416666,66.0,84.0
117,70.2224972125,70.35935056041666,69.0,84.0
118,70.4811177125,70.65562357916666,66.0,84.0
119,70.73938631666667,70.87469535416666,69.0,84.0
120,70.99711781666666,71.12276192291667,71.0,84.0
121,71.25484931666666,71.37727177916666,71.0,83.0
122,71.51258081666667,71.64896373541667,71.0,84.0
123,71.77031231666666,71.88199596666666,71.0,82.0
124,72.02804381666667,72.20738198541666,71.0,84.0
125,72.28577531666666,72.46726124791667,69.0,83.0
126,72.54350681666666,72.95050781041667,73.0,79.0
127,73.05896981666666,74.26386457916666,71.0,81.0
128,75.12082181666666,75.27546071666666,73.0,87.0
129,75.37855331666667,75.74904234791667,73.0,87.0
130,75.89401631666667,76.03576864166666,73.0,85.0
131,76.15174781666667,76.53082789791667,73.0,85.0
132,76.66721081666667,77.07421181041667,71.0,85.0
133,77.18267381666666,77.33086942916667,69.0,84.0
134,77.44040531666667,77.79049060416666,69.0,83.0
135,77.95586831666667,78.10728557291667,69.0,83.0
136,78.21359981666666,78.38864246041666,71.0,84.0
137,78.47133131666666,78.63456126666667,69.0,84.0
138,78.72906281666667,78.98679431666666,66.0,84.0
139,78.98679431666666,79.24452581666667,64.0,84.0
140,79.24452581666667,79.39701695416666,64.0,83.0
141,79.50225731666666,79.85771201041666,64.0,90.0
142,80.01772031666667,80.16913757291667,64.0,89.0
143,80.27545181666666,80.44834669791666,66.0,89.0
144,80.53318331666667,80.67386176041666,64.0,89.0
145,80.79091481666666,80.97132686666666,71.0,86.0
146,81.04864631666666,81.23764941666667,73.0,75.0
147,81.30637781666667,83.32849621041666,69.0,83.0
148,83.88369281666667,84.03403619166666,61.0,83.0
149,84.14142431666666,84.29391545416667,64.0,83.0
150,84.39915581666666,84.91461881666666,64.0,86.0
151,84.91461881666666,85.17235031666667,61.0,86.0
152,85.17235031666667,85.32913697916666,64.0,83.0
153,85.43008181666667,85.56646473541666,66.0,88.0
154,85.68781331666666,85.94554481666667,66.0,85.0
155,85.94554481666667,86.20327631666666,68.0,85.0
156,86.20327631666666,86.64786315416666,66.0,85.0
157,86.71873931666667,86.89270807916667,66.0,81.0
158,86.97647081666666,87.15043957916666,66.0,81.0
159,87.23420231666667,87.39635838541666,64.0,90.0
160,87.49193381666666,87.83772357916666,69.0,85.0
161,88.00739681666667,88.31345297291666,69.0,84.0
162,88.26512831666666,88.57118447291666,66.0,84.0
163,88.52285981666667,88.70112410416667,69.0,87.0
164,88.78059131666666,88.98248099166666,66.0,85.0
165,89.03832281666666,89.31645806041666,69.0,83.0
166,89.29605431666667,89.43351111666666,66.0,86.0
167,89.55378581666666,90.80056194791666,64.0,87.0
168,92.13110081666666,92.35554199791666,61.0,89.0
169,92.38883231666667,92.53058464166666,64.0,85.0
170,92.64656381666666,93.19316937291666,64.0,83.0
171,93.16202681666667,93.31881347916666,61.0,84.0
172,93.41975831666666,93.57654497916667,64.0,84.0
173,93.67748981666666,93.81709437916666,66.0,87.0
174,93.93522131666666,94.31107975416666,68.0,85.0
175,94.45068431666667,94.76855316666666,66.0,83.0
176,94.96614731666666,95.14441160416666,66.0,89.0
177,95.22387881666666,95.40214310416667,66.0,89.0
178,95.48161031666666,95.67490894166666,64.0,85.0
179,95.73934181666667,96.08513157916667,69.0,84.0
180,96.25480481666666,96.51253631666665,69.0,84.0
181,96.51253631666665,96.77026781666666,69.0,84.0
182,96.77026781666666,96.96786196666666,69.0,84.0
183,97.02799931666667,97.15364342291666,66.0,85.0
184,97.28573081666667,97.54346231666666,66.0,85.0
185,97.54346231666666,97.80119381666667,69.0,85.0
186,97.80119381666667,98.78164739791666,71.0,84.0
187,99.86304581666667,100.01875859791666,76.0,84.0
188,100.12077731666666,100.48374917916667,76.0,85.0
189,100.63624031666666,101.00243382291666,76.0,89.0
190,101.15170331666667,101.30741609791666,76.0,85.0
191,101.40943481666666,101.61454613541666,73.0,86.0
192,101.66716631666667,101.80354923541667,71.0,84.0
193,101.92489781666666,102.18262931666666,69.0,85.0
194,102.44036081666667,102.69809231666666,69.0,83.0
195,102.69809231666666,102.95582381666667,69.0,84.0
196,102.95582381666667,103.21355531666666,66.0,84.0
197,103.21355531666666,103.34993823541666,69.0,84.0
198,103.47128681666666,103.64525557916667,66.0,84.0
199,103.72901831666667,103.86432735416666,69.0,84.0
200,103.98674981666666,104.11239392291665,71.0,84.0
201,104.24448131666666,104.36690377916666,71.0,83.0
202,104.50221281666666,104.63859573541666,71.0,84.0
203,104.75994431666666,104.87162796666667,71.0,82.0
204,105.01767581666667,105.19701398541666,71.0,84.0
205,105.27540731666667,105.45689324791667,69.0,83.0
206,105.53313881666666,105.94013981041667,73.0,79.0
207,106.04860181666666,107.25349657916667,71.0,81.0
208,108.11045381666666,108.26509271666666,73.0,87.0
209,108.36818531666665,108.73867434791666,73.0,87.0
210,108.88364831666667,109.02540064166666,73.0,85.0
211,109.14137981666667,109.52045989791665,73.0,85.0
212,109.65684281666665,110.06384381041667,71.0,85.0
213,110.17230581666666,110.32050142916665,69.0,84.0
214,110.43003731666667,110.78012260416666,69.0,83.0
215,110.94550031666665,111.09691757291665,69.0,83.0
216,111.20323181666666,111.37827446041666,71.0,84.0
217,111.46096331666666,111.62419326666665,69.0,84.0
218,111.71869481666667,111.97642631666666,66.0,84.0
219,111.97642631666666,112.23415781666665,64.0,84.0
220,112.23415781666665,112.38664895416666,64.0,83.0
221,112.49188931666666,112.84734401041666,64.0,90.0
222,113.00735231666667,113.15876957291667,64.0,89.0
223,113.26508381666666,113.43797869791666,66.0,89.0
224,113.52281531666665,113.66349376041666,64.0,89.0
225,113.78054681666666,113.96095886666666,71.0,86.0
226,114.03827831666666,114.22728141666667,73.0,75.0
227,114.29600981666667,116.31812821041666,69.0,83.0
228,154.04561384166666,154.19608671666666,64.0,83.0
229,154.30356734166668,154.45618982916668,64.0,83.0
230,154.56152084166666,155.16878637291666,64.0,86.0
231,155.33538134166668,155.49230305416665,61.0,83.0
232,155.59333484166666,155.72983523541666,66.0,88.0
233,155.85128834166667,156.25863991041666,68.0,85.0
234,156.36719534166667,156.81216512916666,66.0,85.0
235,156.88310234166667,157.02282715416666,66.0,83.0
236,157.14105584166666,157.31517445416668,66.0,81.0
237,157.39900934166667,157.56130508541668,64.0,90.0
238,157.65696284166665,158.00305045416667,69.0,85.0
239,158.17286984166668,158.57914660416668,69.0,84.0
240,158.68877684166668,158.86719467916666,69.0,87.0
241,158.94673034166667,159.14879391666668,66.0,85.0
242,159.20468384166668,159.48305866041667,69.0,83.0
243,159.46263734166666,159.60021254166668,66.0,86.0
244,159.72059084166668,160.96844089791668,64.0,87.0
245,162.29952896458335,162.52377725625,61.0,89.0
246,162.55703896458334,162.69866946458333,64.0,85.0
247,162.81454896458334,163.32956896458333,64.0,83.0
248,163.32956896458333,163.58707896458333,64.0,94.0
249,163.58707896458333,163.74373088125,61.0,84.0
250,163.84458896458332,163.98407354791667,66.0,87.0
251,164.10209896458332,164.47763438125,68.0,85.0
252,164.61711896458334,164.93471463125,66.0,83.0
253,165.13213896458333,165.38964896458333,66.0,94.0
254,165.38964896458333,165.56776004791666,66.0,89.0
255,165.64715896458333,165.84029146458334,64.0,85.0
256,165.90466896458332,166.25016154791666,69.0,84.0
257,166.41968896458334,166.80595396458332,69.0,84.0
258,166.93470896458334,167.13213329791665,69.0,84.0
259,167.19221896458333,167.31775508958333,66.0,85.0
260,167.44972896458333,167.85208833958333,69.0,85.0
261,167.96474896458332,168.94435992291668,71.0,84.0
262,170.02482896458332,170.18040792291666,76.0,84.0
263,170.28233896458335,170.64499888125,76.0,85.0
264,170.79735896458334,171.16323775625,76.0,89.0
265,171.31237896458333,171.46795792291667,76.0,85.0
266,171.56988896458333,171.77482400625001,73.0,86.0
267,171.82739896458332,171.96366467291668,71.0,84.0
268,172.08490896458335,172.26194708958334,69.0,85.0
269,172.34241896458335,172.77374821458332,69.0,83.0
270,172.85743896458334,173.19649379791667,66.0,84.0
271,173.37245896458333,173.50872467291666,69.0,84.0
272,173.62996896458333,173.80378821458334,66.0,84.0
273,173.88747896458332,174.02267171458334,69.0,84.0
274,174.14498896458332,174.27052508958334,71.0,84.0
275,174.40249896458334,174.52481621458332,71.0,83.0
276,174.66000896458334,174.79627467291667,71.0,84.0
277,174.91751896458334,175.02910663125,71.0,82.0
278,175.17502896458333,175.35421300625,71.0,84.0
279,175.43253896458333,175.61386892291668,69.0,83.0
280,175.69004896458333,176.09670017291666,73.0,79.0
281,176.20506896458335,177.40892821458334,71.0,81.0
282,178.26514896458332,178.41965496458334,73.0,87.0
283,178.52265896458334,178.89282958958333,73.0,87.0
284,179.03767896458334,179.17930946458333,73.0,85.0
285,179.29518896458333,179.67394325625,73.0,85.0
286,179.81020896458332,180.21686017291665,71.0,85.0
287,180.32522896458335,180.47329721458334,69.0,84.0
288,180.58273896458334,180.93252338125,69.0,83.0
289,181.09775896458333,181.24904608958335,69.0,83.0
290,181.35526896458333,181.53016117291668,71.0,84.0
291,181.61277896458333,181.77586863125,69.0,84.0
292,181.87028896458332,182.12779896458335,66.0,84.0
293,182.12779896458335,182.38530896458334,64.0,84.0
294,182.38530896458334,182.53766904791667,64.0,83.0
295,182.64281896458334,182.99796817291667,64.0,90.0
296,183.15783896458333,183.30912608958334,64.0,89.0
297,183.41534896458333,183.58809525625,66.0,89.0
298,183.67285896458333,183.81341650625,64.0,89.0
299,183.93036896458332,184.11062596458333,71.0,86.0
300,184.18787896458332,184.37671963125,73.0,75.0
301,184.44538896458334,186.46576950625,69.0,83.0
302,189.08056896458334,189.23078313125,61.0,83.0
303,189.33807896458333,189.49043904791665,64.0,83.0
304,189.59558896458333,190.11060896458332,64.0,86.0
305,190.11060896458332,190.36811896458335,64.0,86.0
306,190.36811896458335,190.52477088125,61.0,83.0
307,190.62562896458334,190.76189467291667,66.0,88.0
308,190.88313896458334,191.14064896458333,66.0,85.0
309,191.14064896458333,191.39815896458333,68.0,85.0
310,191.39815896458333,191.84236371458334,66.0,85.0
311,191.91317896458332,192.17068896458335,66.0,94.0
312,192.17068896458335,192.34450821458333,66.0,81.0
313,192.42819896458334,192.59021567291666,64.0,90.0
314,192.68570896458334,193.03120154791668,69.0,85.0
315,193.20072896458333,193.50652208958334,69.0,84.0
316,193.50652208958334,193.81338817291666,69.0,84.0
317,193.97325896458335,194.17497513125,66.0,85.0
318,194.23076896458332,194.50866517291666,69.0,83.0
319,194.48827896458334,194.62561763125,66.0,86.0
320,194.74578896458334,195.99149358958334,64.0,87.0
321,197.32088896458333,197.54513725625,61.0,89.0
322,197.57839896458333,197.72002946458332,64.0,85.0
323,197.83590896458333,198.38204475625,64.0,83.0
324,198.35092896458332,198.50758088125,61.0,84.0
325,198.60843896458334,198.86594896458334,64.0,94.0
326,198.86594896458334,199.00543354791665,66.0,87.0
327,199.12345896458334,199.49899438125,68.0,85.0
328,199.63847896458333,199.95607463125,66.0,83.0
329,200.41100896458335,200.58912004791665,66.0,89.0
330,200.66851896458334,200.86165146458333,64.0,85.0
331,200.92602896458334,201.27152154791668,69.0,84.0
332,201.44104896458333,201.69855896458333,69.0,84.0
333,201.69855896458333,201.95606896458332,69.0,84.0
334,201.95606896458332,202.15349329791667,69.0,84.0
335,202.21357896458335,202.33911508958334,66.0,85.0
336,202.47108896458332,202.72859896458334,66.0,85.0
337,202.72859896458334,202.98610896458334,69.0,85.0
338,202.98610896458334,203.96587699583333,71.0,84.0
339,205.04820688958333,205.20405379583335,76.0,84.0
340,205.30616038958334,205.66944490208334,76.0,85.0
341,205.82206738958334,206.18857632083333,76.0,89.0
342,206.33797438958334,206.49382129583333,76.0,85.0
343,206.59592788958332,206.80121588333333,73.0,86.0
344,206.85388138958334,206.99038178333333,71.0,84.0
345,207.11183488958332,207.28917792083334,69.0,85.0
346,207.36978838958333,207.62774188958332,69.0,83.0
347,207.62774188958332,207.88569538958333,69.0,83.0
348,207.88569538958333,208.14364888958335,69.0,84.0
349,208.14364888958335,208.40160238958333,66.0,94.0
350,208.40160238958333,208.53810278333333,69.0,84.0
351,208.65955588958334,208.83367450208334,66.0,84.0
352,208.91750938958333,209.05293497708334,69.0,84.0
353,209.17546288958334,209.30121522083334,71.0,84.0
354,209.69136988958334,209.82787028333334,71.0,84.0
355,209.94932338958333,210.06110323958333,71.0,82.0
356,210.20727688958334,210.38676953333334,71.0,84.0
357,210.46523038958333,210.64687264583333,69.0,83.0
358,210.72318388958334,210.98113738958332,73.0,79.0
359,210.98113738958332,211.23909088958334,71.0,94.0
360,211.23909088958334,212.44502350208333,71.0,81.0
361,213.30271888958333,213.45749098958333,73.0,87.0
362,213.56067238958335,213.93148054583332,73.0,87.0
363,214.07657938958334,214.21845381458334,73.0,85.0
364,214.33453288958333,214.71393949583333,73.0,85.0
365,214.85043988958333,215.25779145833334,71.0,85.0
366,215.36634688958333,215.51467015208334,69.0,84.0
367,215.62430038958334,215.97468722708334,69.0,83.0
368,216.14020738958334,216.29175507083335,69.0,83.0
369,216.39816088958332,216.57335430833334,71.0,84.0
370,216.65611438958334,216.81948493958333,69.0,84.0
371,216.91406788958332,217.17202138958334,66.0,84.0
372,217.17202138958334,217.42997488958332,64.0,84.0
373,217.42997488958332,217.58259737708335,64.0,83.0
374,217.68792838958333,218.04368925833333,64.0,90.0
375,218.20383538958333,218.35538307083334,64.0,89.0
376,218.46178888958335,218.63483269583332,66.0,89.0
377,218.71974238958333,218.86054200833334,64.0,89.0
378,218.97769588958334,219.15826333958333,71.0,86.0
379,219.23564938958333,219.42481528958334,73.0,75.0
380,219.49360288958334,221.51746305833333,69.0,83.0
381,221.55723088958334,221.71200298958334,73.0,87.0
382,221.81518438958332,222.18599254583333,73.0,87.0
383,222.33109138958332,222.47296581458335,73.0,85.0
384,222.58904488958333,222.96845149583334,73.0,85.0
385,223.10495188958333,223.51230345833332,71.0,85.0
386,223.62085888958333,223.76918215208332,69.0,84.0
387,223.87881238958335,224.22919922708334,69.0,83.0
388,224.39471938958334,224.54626707083332,69.0,83.0
389,224.65267288958333,224.82786630833334,71.0,84.0
390,224.91062638958334,225.07399693958334,69.0,84.0
391,225.16857988958333,225.42653338958334,66.0,84.0
392,225.42653338958334,225.68448688958333,64.0,84.0
393,225.68448688958333,225.83710937708332,64.0,83.0
394,225.94244038958334,226.29820125833334,64.0,90.0
395,226.45834738958334,226.60989507083332,64.0,89.0
396,226.71630088958332,226.88934469583333,66.0,89.0
397,226.97425438958334,227.11505400833335,64.0,89.0
398,227.23220788958332,227.41277533958333,71.0,86.0
399,227.49016138958333,227.67932728958334,73.0,75.0
400,227.74811488958335,229.77197505833334,69.0,83.0
