,start,end,pitch,velocity
0,1.1111078333333333,1.7019180562499998,52.0,80.0
1,0.8546983333333332,1.7211487687499998,45.0,84.0
2,1.3675173333333333,1.8151655854166664,61.0,82.0
3,1.3675173333333333,1.9401652166666665,64.0,84.0
4,2.136745833333333,2.3055487541666664,57.0,77.0
5,1.8803363333333332,2.5170865916666663,52.0,84.0
6,2.393155333333333,2.530975439583333,64.0,90.0
7,2.6495648333333333,3.005333014583333,64.0,31.0
8,2.6495648333333333,3.012811625,57.0,69.0
9,2.393155333333333,3.046999558333333,61.0,88.0
10,2.393155333333333,3.1068284416666665,69.0,83.0
11,3.162383833333333,3.729689852083333,52.0,70.0
12,2.905974333333333,3.752125683333333,45.0,84.0
13,3.418793333333333,4.111098983333333,61.0,88.0
14,3.418793333333333,4.236098614583333,64.0,85.0
15,3.931612333333333,4.287380514583333,52.0,84.0
16,4.188021833333333,4.382465704166666,57.0,85.0
17,4.444431333333333,4.619644491666667,61.0,92.0
18,4.444431333333333,4.790584158333333,69.0,80.0
19,4.444431333333333,4.810883243749999,64.0,90.0
20,4.7008408333333325,4.8952847041666665,57.0,84.0
21,5.213659833333333,5.414513941666666,57.0,83.0
22,4.957250333333333,5.735025816666666,38.0,82.0
23,5.470069333333333,5.8835296520833325,62.0,87.0
24,5.726478833333333,5.915580839583333,57.0,84.0
25,5.470069333333333,6.002119045833333,66.0,85.0
26,5.9828883333333325,6.392075160416666,40.0,88.0
27,6.239297833333333,6.399553770833332,59.0,80.0
28,6.495707333333333,6.8878001937499995,64.0,90.0
29,6.495707333333333,6.9251932458333325,68.0,83.0
30,6.752116833333333,6.971133281249999,59.0,84.0
31,7.522908960416666,7.58835941875,57.0,66.0
32,7.522908960416666,7.5980160437499995,54.0,67.0
33,7.522908960416666,7.604453793749999,61.0,75.0
34,7.780418960416666,8.01646979375,57.0,79.0
35,7.780418960416666,8.028272335416666,61.0,78.0
36,7.008526333333332,8.04222079375,42.0,86.0
37,7.780418960416666,8.043293752083333,54.0,83.0
38,7.265398960416666,8.076555460416666,49.0,73.0
39,8.295438960416666,8.446726085416666,54.0,77.0
40,8.295438960416666,8.532562752083333,66.0,81.0
41,8.810458960416666,9.03363429375,54.0,85.0
42,9.582988960416666,9.650585335416666,50.0,82.0
43,9.325478960416666,9.678482252083333,45.0,71.0
44,9.067968960416666,9.724619460416665,38.0,90.0
45,9.582988960416666,9.849082627083334,54.0,84.0
46,9.582988960416666,9.874833627083333,57.0,83.0
47,9.840498960416665,9.908095335416666,50.0,77.0
48,9.582988960416666,9.90916829375,62.0,79.0
49,10.098008960416667,10.365592022916667,52.0,84.0
50,10.098008960416667,10.41947129375,56.0,84.0
51,10.098008960416667,10.511066054166667,59.0,83.0
52,10.355893754166667,10.54878154375,47.0,71.0
53,10.098008960416667,10.550936714583333,40.0,86.0
54,10.614514254166666,10.682402135416666,52.0,84.0
55,10.873134754166667,11.455030879166667,57.0,76.0
56,10.873134754166667,11.459341220833334,61.0,78.0
57,11.390375754166666,11.501367052083333,64.0,79.0
58,11.648996254166667,11.883909875,57.0,85.0
59,11.648996254166667,11.884987460416667,61.0,84.0
60,11.648996254166667,11.93240121875,69.0,84.0
61,12.166237254166667,12.266452697916666,57.0,81.0
62,11.907616754166666,12.513219758333333,52.0,82.0
63,12.424857754166666,12.71472823125,57.0,85.0
64,12.424857754166666,12.731969597916667,61.0,88.0
65,12.424857754166666,12.74059028125,64.0,89.0
66,10.873134754166667,12.95718495,45.0,85.0
67,12.683478254166667,13.0283055875,52.0,79.0
68,12.942098754166667,13.546624172916667,69.0,80.0
69,12.942098754166667,13.555244856249999,64.0,84.0
70,12.942098754166667,13.559555197916666,61.0,78.0
71,12.942098754166667,13.570331052083333,57.0,83.0
72,13.459339754166667,14.050934147916667,52.0,77.0
73,13.976580754166667,14.340804625,57.0,79.0
74,13.717960254166666,14.372054602083335,61.0,78.0
75,13.717960254166666,14.543390683333334,64.0,81.0
76,14.493821754166667,14.652226810416668,57.0,74.0
77,13.200719254166668,14.818174964583333,45.0,85.0
78,14.235201254166666,14.876364577083333,52.0,78.0
79,14.752442254166667,15.386062479166668,69.0,78.0
80,14.752442254166667,15.422700383333334,64.0,84.0
81,14.752442254166667,15.446351737499999,61.0,85.0
82,15.527896570833333,16.0869078625,52.0,80.0
83,15.269683254166667,16.087980820833334,45.0,85.0
84,15.785406570833333,16.1738174875,61.0,89.0
85,15.785406570833333,16.3315423625,64.0,88.0
86,16.04291657083333,16.3637311125,57.0,83.0
87,16.557936570833334,16.739266529166667,57.0,83.0
88,16.30042657083333,16.844416445833332,52.0,83.0
89,16.81544657083333,17.115874904166667,61.0,88.0
90,17.072956570833334,17.301496695833332,57.0,83.0
91,16.81544657083333,17.370166029166665,64.0,87.0
92,17.330466570833334,18.0117951125,42.0,88.0
93,17.587976570833334,18.055786404166668,49.0,61.0
94,17.845486570833334,18.1566444875,61.0,80.0
95,17.845486570833334,18.167374070833333,57.0,80.0
96,18.102996570833334,18.32188007083333,54.0,89.0
97,18.360506570833333,18.7263853625,49.0,73.0
98,18.618016570833333,18.7650118625,54.0,85.0
99,18.875526570833333,18.938831112499997,54.0,84.0
100,18.875526570833333,18.9967708625,57.0,84.0
101,18.875526570833333,19.027886654166664,61.0,77.0
102,19.390546570833333,19.594408654166664,57.0,80.0
103,19.390546570833333,19.7210177375,62.0,80.0
104,19.648056570833333,19.76393607083333,57.0,74.0
105,19.905566570833333,19.9527767375,57.0,77.0
106,19.390546570833333,20.1716602375,38.0,87.0
107,19.905566570833333,20.275737195833333,62.0,87.0
108,19.905566570833333,20.362646820833334,66.0,84.0
109,20.163076570833333,20.408784029166664,57.0,84.0
110,20.678096570833333,20.783246487499998,57.0,74.0
111,20.420586570833333,20.894834154166666,45.0,71.0
112,20.935606570833333,21.033245779166666,57.0,85.0
113,20.935606570833333,21.2081379875,62.0,85.0
114,21.193116570833332,21.277880279166666,57.0,73.0
115,21.450626570833332,21.62122694583333,59.0,77.0
116,21.450626570833332,21.7843166125,64.0,84.0
117,21.708136570833332,21.852985945833332,59.0,77.0
118,21.965646570833332,22.033242945833333,59.0,83.0
119,21.450626570833332,22.190967820833333,40.0,85.0
120,21.965646570833332,22.320795779166666,64.0,88.0
121,22.223156570833332,22.433456404166666,59.0,84.0
122,21.965646570833332,22.451696695833334,68.0,79.0
123,22.480666570833332,22.739249529166663,47.0,67.0
124,22.738176570833332,22.860493820833334,59.0,80.0
125,22.995686570833332,23.0943987375,59.0,87.0
126,22.995686570833332,23.0976176125,64.0,90.0
127,22.995686570833332,23.315428154166668,68.0,83.0
128,23.25319657083333,23.4098484875,59.0,83.0
129,23.51070657083333,23.759632904166665,57.0,83.0
130,23.51070657083333,23.791821654166668,61.0,84.0
131,23.76821657083333,24.1212198625,52.0,78.0
132,24.02572657083333,24.1276576125,57.0,79.0
133,23.51070657083333,24.1405331125,45.0,84.0
134,24.02572657083333,24.226369779166667,61.0,82.0
135,24.02572657083333,24.245683029166663,64.0,85.0
136,24.28323657083333,24.496755279166663,57.0,87.0
137,24.79825657083333,24.909844237499996,57.0,83.0
138,24.540746570833335,25.143749154166663,52.0,76.0
139,25.055766570833335,25.224221029166664,61.0,87.0
140,25.055766570833335,25.23280469583333,64.0,86.0
141,25.31327657083333,25.427010154166666,57.0,83.0
142,25.570786570833334,25.7499706125,57.0,78.0
143,25.570786570833334,25.884090404166663,61.0,77.0
144,25.570786570833334,26.273574279166667,42.0,77.0
145,25.82829657083333,26.2778661125,49.0,50.0
146,26.085806570833334,26.401256320833333,66.0,81.0
147,26.085806570833334,26.402329279166665,61.0,87.0
148,26.34331657083333,26.579367404166668,57.0,87.0
149,26.600826570833334,26.820783029166666,49.0,72.0
150,26.85833657083333,26.974216070833332,57.0,80.0
151,27.115846570833334,27.2049021125,57.0,83.0
152,27.115846570833334,27.2821551125,61.0,94.0
153,27.115846570833334,27.49245494583333,66.0,83.0
154,27.37335657083333,27.509622279166663,57.0,80.0
155,27.630866570833334,27.746746070833332,57.0,79.0
156,27.630866570833334,27.946316320833333,62.0,83.0
157,27.88837657083333,28.0192774875,57.0,82.0
158,28.145886570833333,28.330435404166664,62.0,87.0
159,27.630866570833334,28.478503654166666,50.0,84.0
160,28.40339657083333,28.53215157083333,62.0,58.0
161,28.145886570833333,28.694168279166668,66.0,85.0
162,28.40339657083333,28.707043779166668,57.0,84.0
163,28.660906570833333,28.980648154166666,50.0,77.0
164,28.91841657083333,29.038587904166665,57.0,84.0
165,29.175926570833333,29.2553254875,57.0,85.0
166,29.175926570833333,29.533221695833333,62.0,90.0
167,29.43343657083333,29.553607904166665,57.0,78.0
168,29.690946570833333,29.87120357083333,64.0,84.0
169,29.690946570833333,29.8958816125,59.0,83.0
170,29.948456570833333,30.46669544583333,47.0,67.0
171,29.690946570833333,30.514978570833332,40.0,86.0
172,30.205966570833333,30.525708154166665,56.0,83.0
173,30.205966570833333,30.714548820833333,59.0,83.0
174,30.463476570833333,30.789655904166665,52.0,87.0
175,30.720986570833333,31.255319820833332,47.0,77.0
176,30.978496570833332,31.292873362499996,52.0,85.0
177,31.236006570833332,31.542872654166665,56.0,85.0
178,31.236006570833332,31.568623654166664,59.0,84.0
179,31.493516570833332,31.629782279166665,52.0,84.0
180,31.236006570833332,31.75424544583333,64.0,83.0
181,31.751026570833332,32.11583240416667,61.0,82.0
182,31.751026570833332,32.164115529166665,56.0,79.0
183,31.751026570833332,32.5578912375,37.0,76.0
184,32.26604657083333,32.64372790416667,64.0,88.0
185,32.523556570833335,32.8669032375,56.0,87.0
186,32.26604657083333,32.9216241125,61.0,88.0
187,33.03857657083333,33.09651632083333,61.0,63.0
188,32.78106657083333,33.11582957083333,44.0,86.0
189,33.03857657083333,33.16518565416666,56.0,89.0
190,33.29608657083333,33.37977732083333,56.0,73.0
191,33.29608657083333,33.552523612499996,61.0,83.0
192,33.29608657083333,33.62226590416667,64.0,87.0
193,33.553596570833335,33.65338169583333,56.0,84.0
194,33.81110657083333,34.13943182083333,57.0,75.0
195,33.81110657083333,34.16625577916666,54.0,84.0
196,34.32612657083333,34.4924351125,57.0,86.0
197,33.81110657083333,34.543937112500004,42.0,83.0
198,34.32612657083333,34.54822894583333,61.0,85.0
199,34.06861657083333,34.674838029166665,49.0,73.0
200,34.583636570833335,34.8400736125,54.0,87.0
201,35.09865657083333,35.2553084875,54.0,79.0
202,34.84114657083333,35.28964315416667,49.0,71.0
203,35.35616657083333,35.43985732083333,54.0,87.0
204,35.35616657083333,35.454878737499996,61.0,77.0
205,35.35616657083333,35.4902863625,57.0,89.0
206,35.613676570833334,35.73921269583333,54.0,88.0
207,35.35616657083333,35.81968457083333,66.0,80.0
208,36.12869657083333,36.45380294583333,59.0,86.0
209,35.87118657083333,36.725261404166666,47.0,87.0
210,36.38620657083333,36.74672057083333,66.0,83.0
211,36.643716570833334,36.91839390416666,59.0,89.0
212,36.38620657083333,36.93770715416667,63.0,84.0
213,36.90122657083333,37.31431552916666,54.0,84.0
214,37.158736570833334,37.48062407083333,59.0,89.0
215,37.41624657083334,37.6372759875,63.0,89.0
216,37.41624657083334,37.74779069583333,66.0,88.0
217,37.67375657083333,37.79607382083333,59.0,85.0
218,37.93126657083333,38.138347529166666,59.0,83.0
219,37.93126657083333,38.296072404166665,64.0,86.0
220,38.18877657083333,38.3679606125,59.0,85.0
221,37.93126657083333,38.708088404166666,40.0,79.0
222,38.70379657083333,39.02890294583333,59.0,87.0
223,38.44628657083334,39.047143237499995,64.0,85.0
224,38.44628657083334,39.0567998625,68.0,81.0
225,39.21881657083333,39.3529363625,59.0,85.0
226,38.96130657083333,39.36366594583333,47.0,79.0
227,39.476326570833336,39.5911331125,59.0,86.0
228,39.476326570833336,39.6361973625,64.0,85.0
229,39.476326570833336,39.64692694583333,68.0,82.0
230,39.99134657083333,40.21774077916666,57.0,77.0
231,39.99134657083333,40.32718252916666,61.0,78.0
232,40.24885657083333,40.632975654166664,52.0,75.0
233,39.99134657083333,40.7531469875,45.0,84.0
234,40.506366570833336,40.85507802916666,61.0,90.0
235,40.506366570833336,40.87009944583333,64.0,85.0
236,40.76387657083333,41.0879099875,57.0,86.0
237,41.27889657083333,41.404432695833336,57.0,83.0
238,41.02138657083333,41.558938695833334,52.0,78.0
239,41.536406570833336,41.642629445833336,57.0,79.0
240,41.536406570833336,41.7316849875,61.0,87.0
241,41.536406570833336,41.8411267375,64.0,85.0
242,41.79391657083333,41.9055042375,57.0,79.0
243,42.05142657083333,42.403356904166664,57.0,80.0
244,42.05142657083333,42.42696198749999,62.0,83.0
245,42.05142657083333,42.5782491125,38.0,75.0
246,42.566446570833335,42.65013732083333,57.0,83.0
247,42.82395657083333,43.1029257375,57.0,84.0
248,42.566446570833335,43.1383333625,62.0,86.0
249,43.33897657083333,43.38082194583333,62.0,57.0
250,42.566446570833335,43.40335407083333,66.0,83.0
251,43.08146657083333,43.409791820833334,50.0,84.0
252,43.33897657083333,43.463439737499996,57.0,84.0
253,43.596486570833335,43.74777369583333,57.0,90.0
254,43.596486570833335,43.78961907083333,62.0,89.0
255,44.11150657083333,44.4709476125,59.0,79.0
256,44.11150657083333,44.490260862499994,64.0,84.0
257,44.626526570833335,44.73704127916666,59.0,83.0
258,44.626526570833335,44.862577404166665,64.0,87.0
259,44.11150657083333,44.92910082083333,40.0,85.0
260,44.88403657083333,45.1726623625,59.0,90.0
261,45.14154657083333,45.36150302916667,47.0,80.0
262,45.39905657083333,45.525665654166666,59.0,84.0
263,45.656566570833334,45.7681542375,64.0,90.0
264,45.656566570833334,45.776737904166666,59.0,87.0
265,45.656566570833334,45.79819707083333,68.0,83.0
266,46.17158657083333,46.539324924999995,64.0,75.0
267,46.17158657083333,46.555488706249996,61.0,70.0
268,46.17158657083333,46.58027317083333,57.0,75.0
269,46.6880317125,46.84104884166666,61.0,84.0
270,46.17158657083333,47.03824697291667,45.0,84.0
271,46.6880317125,47.049022827083334,64.0,87.0
272,46.9466522125,47.22359166458333,57.0,88.0
273,47.4638932125,47.5673414125,57.0,76.0
274,47.722513712499996,47.765617129166664,57.0,78.0
275,47.2052727125,48.02100487291666,52.0,75.0
276,47.722513712499996,48.278547787499996,61.0,89.0
277,47.981134212499995,48.29363398333333,57.0,84.0
278,47.722513712499996,48.38415115833333,64.0,86.0
279,48.7569957125,48.84535771666666,57.0,83.0
280,48.4983752125,48.92186628125,52.0,76.0
281,48.2397547125,49.09643511875,45.0,86.0
282,48.7569957125,49.2483746625,61.0,94.0
283,49.0156162125,49.2871677375,57.0,83.0
284,48.7569957125,49.31195220208333,64.0,89.0
285,49.2742367125,49.56195201875,52.0,83.0
286,49.5328572125,49.70203812291666,57.0,88.0
287,49.7914777125,50.20850326875,61.0,90.0
288,49.7914777125,50.24083083125,64.0,88.0
289,50.0500982125,50.273158393749995,40.0,89.0
290,50.5673392125,51.128761214583335,52.0,80.0
291,50.308718712499996,51.1298388,45.0,85.0
292,50.825959712499994,51.21604563333333,61.0,89.0
293,50.825959712499994,51.374450689583334,64.0,88.0
294,51.0845802125,51.40677825208333,57.0,83.0
295,51.6018212125,51.78393314791666,57.0,83.0
296,51.3432007125,51.88953651875,52.0,83.0
297,51.8604417125,52.162165629166665,61.0,88.0
298,52.1190622125,52.348587906249996,57.0,83.0
299,51.8604417125,52.417553372916665,64.0,87.0
300,52.3776827125,53.06194945208333,42.0,88.0
301,52.636303212499996,53.10613045416667,49.0,61.0
302,52.894923712499995,53.20742348333333,61.0,80.0
303,52.894923712499995,53.218199337499996,57.0,80.0
304,53.153544212499995,53.3733716375,54.0,89.0
305,53.4121647125,53.77962133958333,49.0,73.0
306,53.6707852125,53.81841441458333,54.0,85.0
307,53.9294057125,53.992983252083334,54.0,84.0
308,53.9294057125,54.05117286458333,57.0,84.0
309,53.9294057125,54.08242284166666,61.0,77.0
310,54.4466467125,54.65138794166666,57.0,80.0
311,54.4466467125,54.77854302083333,62.0,80.0
312,54.7052672125,54.8216464375,57.0,74.0
313,54.9638877125,55.01130147083333,57.0,77.0
314,54.4466467125,55.23112889583333,38.0,87.0
315,54.9638877125,55.33565468125,62.0,87.0
316,54.9638877125,55.4229391,66.0,84.0
317,55.222508212499996,55.46927527291666,57.0,84.0
318,55.7397492125,55.84535258333333,57.0,74.0
319,55.481128712499995,55.957421466666666,45.0,71.0
320,55.9983697125,56.09642998541666,57.0,85.0
321,55.9983697125,56.272076408333334,62.0,85.0
322,56.2569902125,56.34211946041667,57.0,73.0
323,56.5156107125,56.686946793749996,59.0,77.0
324,56.5156107125,56.850739777083334,64.0,84.0
325,56.7742312125,56.91970524375,59.0,77.0
326,57.0328517125,57.10073959375,59.0,83.0
327,56.5156107125,57.259144649999996,40.0,85.0
328,57.0328517125,57.389532485416666,64.0,88.0
329,57.2914722125,57.50267895416667,59.0,84.0
330,57.0328517125,57.52099790625,68.0,79.0
331,57.550092712499996,57.80979079791666,47.0,67.0
332,57.808713212499995,57.93155795,59.0,80.0
333,58.0673337125,58.16647157083333,59.0,87.0
334,58.0673337125,58.16970432708333,64.0,90.0
335,58.0673337125,58.38845416666666,68.0,83.0
336,58.3259542125,58.48328168333333,59.0,83.0
337,58.5845747125,58.834574529166666,57.0,83.0
338,58.5845747125,58.86690209166667,61.0,84.0
339,58.8431952125,59.197720814583334,52.0,78.0
340,59.1018157125,59.204186327083335,57.0,79.0
341,58.5845747125,59.217117352083335,45.0,84.0
342,59.1018157125,59.30332418541666,61.0,82.0
343,59.1018157125,59.322720722916664,64.0,85.0
344,59.3604362125,59.57487571041666,57.0,87.0
345,59.8776772125,59.98974609583333,57.0,83.0
346,59.6190567125,60.224659716666665,52.0,76.0
347,60.136297712499996,60.30547862291667,61.0,87.0
348,60.136297712499996,60.31409930625,64.0,86.0
349,60.3949182125,60.509142266666665,57.0,83.0
350,60.653538712499994,60.83349547708333,57.0,78.0
351,60.653538712499994,60.96819365416667,61.0,77.0
352,60.653538712499994,61.359357160416664,42.0,77.0
353,60.9121592125,61.36366750208333,49.0,50.0
354,61.1707797125,61.487589825,66.0,81.0
355,61.1707797125,61.48866741041667,61.0,87.0
356,61.4294002125,61.666469004166665,57.0,87.0
357,61.6880207125,61.90892572291666,49.0,72.0
358,61.9466412125,62.0630204375,57.0,80.0
359,62.2052617125,62.29470130208333,57.0,83.0
360,62.2052617125,62.37228745208333,61.0,94.0
361,62.2052617125,62.58349419375,66.0,83.0
362,62.463882212499996,62.600735560416666,57.0,80.0
363,62.7225027125,62.8388819375,57.0,79.0
364,62.7225027125,63.039312824999996,62.0,83.0
365,62.981123212499995,63.11258863333333,57.0,82.0
366,63.2397437125,63.425088404166665,62.0,87.0
367,62.7225027125,63.57379519166666,50.0,84.0
368,63.4983642125,63.627674462499996,62.0,58.0
369,63.2397437125,63.79038986041667,66.0,85.0
370,63.4983642125,63.80332088541667,57.0,84.0
371,63.7569847125,64.07810516666666,50.0,77.0
372,64.01560521249999,64.13629477916666,57.0,84.0
373,64.2742257125,64.35396703333333,57.0,85.0
374,64.2742257125,64.63306165624999,62.0,90.0
375,64.5328462125,64.65353577916667,57.0,78.0
376,64.7914667125,64.9725010625,64.0,84.0
377,64.7914667125,64.99728552708333,59.0,83.0
378,65.0500872125,65.57056096875,47.0,67.0
379,64.7914667125,65.6190523125,40.0,86.0
380,65.3087077125,65.62982816666667,56.0,83.0
381,65.3087077125,65.81948320000001,59.0,83.0
382,65.5673282125,65.89491417916666,52.0,87.0
383,65.8259487125,66.36258624999999,47.0,77.0
384,66.0845692125,66.40030173958333,52.0,85.0
385,66.34318971249999,66.65137914166667,56.0,85.0
386,66.34318971249999,66.67724119166667,59.0,84.0
387,66.6018102125,66.73866356041667,52.0,84.0
388,66.34318971249999,66.86366346874999,64.0,83.0
389,66.8604307125,67.22680975416667,61.0,82.0
390,66.8604307125,67.27530109791667,56.0,79.0
391,66.8604307125,67.67077494583333,37.0,76.0
392,67.3776717125,67.75698177916667,64.0,88.0
393,67.6362922125,67.98111954583334,56.0,87.0
394,67.3776717125,68.03607640208332,61.0,88.0
395,68.1535332125,68.211722825,61.0,63.0
396,67.8949127125,68.2311193625,44.0,86.0
397,68.1535332125,68.28068829166666,56.0,89.0
398,68.4121537125,68.496205375,56.0,73.0
399,68.4121537125,68.66969662708334,61.0,83.0
400,68.4121537125,68.73973967916666,64.0,87.0
401,68.67077421249999,68.77098965625,56.0,84.0
402,68.9293947125,69.25913585,57.0,75.0
403,68.9293947125,69.28607548541666,54.0,84.0
404,69.4466357125,69.61366145208333,57.0,86.0
405,68.9293947125,69.66538555208334,42.0,83.0
406,69.4466357125,69.66969589375,61.0,85.0
407,69.1880152125,69.79685097291667,49.0,73.0
408,69.7052562125,69.96279912708333,54.0,87.0
409,70.2224972125,70.37982468333334,54.0,79.0
410,69.9638767125,70.41430741666667,49.0,71.0
411,70.4811177125,70.565169375,54.0,87.0
412,70.4811177125,70.58025557083333,61.0,77.0
413,70.4811177125,70.61581588958333,57.0,89.0
414,70.73938631666667,70.86503042291666,54.0,88.0
415,70.4811177125,70.94557151666666,66.0,80.0
416,71.25484931666666,71.58023533541666,59.0,86.0
417,70.99711781666666,71.85192729166667,47.0,87.0
418,71.51258081666667,71.87340491666666,66.0,83.0
419,71.77031231666666,72.04522591666667,59.0,89.0
420,71.51258081666667,72.06455577916667,63.0,84.0
421,72.02804381666667,72.44148809791666,54.0,84.0
422,72.28577531666666,72.60793969166666,59.0,89.0
423,72.54350681666666,72.76472635416667,63.0,89.0
424,72.54350681666666,72.87533612291666,66.0,88.0
425,72.80123831666667,72.92366077916667,59.0,85.0
426,73.05896981666666,73.26622889791666,59.0,83.0
427,73.05896981666666,73.42408944166667,64.0,86.0
428,73.31670131666667,73.49603948541666,59.0,85.0
429,73.05896981666666,73.83645984166667,40.0,79.0
430,73.83216431666666,74.15755033541666,59.0,87.0
431,73.57443281666667,74.17580631666667,64.0,85.0
432,73.57443281666667,74.18547124791667,68.0,81.0
433,74.34762731666666,74.48186247291666,59.0,85.0
434,74.08989581666667,74.49260128541667,47.0,79.0
435,74.60535881666667,74.72026411041666,59.0,86.0
436,74.60535881666667,74.76536712291667,64.0,85.0
437,74.60535881666667,74.77610593541667,68.0,82.0
438,75.12082181666666,75.34741076041666,57.0,77.0
439,75.12082181666666,75.45694664791667,61.0,78.0
440,75.37855331666667,75.76300280416666,52.0,75.0
441,75.12082181666666,75.88327750416667,45.0,84.0
442,75.63628481666666,75.98529622291666,61.0,90.0
443,75.63628481666666,76.00033056041667,64.0,85.0
444,75.89401631666667,76.21832845416667,57.0,86.0
445,76.40947931666666,76.53512342291667,57.0,83.0
446,76.15174781666667,76.68976232291666,52.0,78.0
447,76.66721081666667,76.77352506041666,57.0,79.0
448,76.66721081666667,76.86265720416667,61.0,87.0
449,76.66721081666667,76.97219309166667,64.0,85.0
450,76.92494231666666,77.03662596666666,57.0,79.0
451,77.18267381666666,77.53490686666666,57.0,80.0
452,77.18267381666666,77.55853225416666,62.0,83.0
453,77.18267381666666,77.70994951041666,38.0,75.0
454,77.69813681666666,77.78189955416667,57.0,83.0
455,77.95586831666667,78.23507744166666,57.0,84.0
456,77.69813681666666,78.27051552291667,62.0,86.0
457,78.47133131666666,78.51321268541666,62.0,57.0
458,77.69813681666666,78.53576419166666,66.0,83.0
459,78.21359981666666,78.54220747916666,50.0,84.0
460,78.47133131666666,78.59590154166666,57.0,84.0
461,78.72906281666667,78.88048007291667,57.0,90.0
462,78.72906281666667,78.92236144166667,62.0,89.0
463,79.24452581666667,79.60427603541666,59.0,79.0
464,79.24452581666667,79.62360589791666,64.0,84.0
465,79.75998881666666,79.87059858541666,59.0,83.0
466,79.75998881666666,79.99624269166667,64.0,87.0
467,79.24452581666667,80.06282332916666,40.0,85.0
468,80.01772031666667,80.30659437291666,59.0,90.0
469,80.27545181666666,80.49559747291667,47.0,80.0
470,80.53318331666667,80.65990130416667,59.0,84.0
471,80.79091481666666,80.90259846666666,64.0,90.0
472,80.79091481666666,80.91118951666667,59.0,87.0
473,80.79091481666666,80.93266714166667,68.0,83.0
474,81.30637781666667,81.67364520416666,64.0,75.0
475,81.30637781666667,81.68975342291667,61.0,70.0
476,81.30637781666667,81.71445269166666,57.0,75.0
477,81.82184081666666,81.97433195416666,61.0,84.0
478,81.30637781666667,82.17085222291666,45.0,84.0
479,81.82184081666666,82.18159103541666,64.0,87.0
480,82.07957231666666,82.35555979791667,57.0,88.0
481,82.59503531666667,82.69812791666666,57.0,76.0
482,82.85276681666666,82.89572206666666,57.0,78.0
483,82.33730381666666,83.15023192291666,52.0,75.0
484,82.85276681666666,83.40688954166666,61.0,89.0
485,83.11049831666666,83.42192387916667,57.0,84.0
486,82.85276681666666,83.51212990416667,64.0,86.0
487,83.62596131666666,84.18545344791667,52.0,80.0
488,83.36822981666667,84.18652732916667,45.0,85.0
489,83.88369281666667,84.27243782916666,61.0,89.0
490,83.88369281666667,84.43029837291667,64.0,88.0
491,84.14142431666666,84.46251481041666,57.0,83.0
492,84.65688731666667,84.83837324791666,57.0,83.0
493,84.39915581666666,84.94361361041666,52.0,83.0
494,84.91461881666666,85.21530556666667,61.0,88.0
495,85.17235031666667,85.40108702291667,57.0,83.0
496,84.91461881666666,85.46981542291667,64.0,87.0
497,85.43008181666667,86.11199641041667,42.0,88.0
498,85.68781331666666,86.15602554166666,49.0,61.0
499,85.94554481666667,86.25697037916666,61.0,80.0
500,85.94554481666667,86.26770919166667,57.0,80.0
501,86.20327631666666,86.42234809166666,54.0,89.0
502,86.46100781666667,86.82720132291666,49.0,73.0
503,86.71873931666667,86.86586104791667,54.0,85.0
504,86.97647081666666,87.03982981041666,54.0,84.0
505,86.97647081666666,87.09781939791667,57.0,84.0
506,86.97647081666666,87.12896195416667,61.0,77.0
507,87.49193381666666,87.69597125416666,57.0,80.0
508,87.49193381666666,87.82268924166667,62.0,80.0
509,87.74966531666666,87.86564449166667,57.0,74.0
510,88.00739681666667,88.05464759166667,57.0,77.0
511,87.49193381666666,88.27371936666667,38.0,87.0
512,88.00739681666667,88.37788584791666,62.0,87.0
513,88.00739681666667,88.46487022916666,66.0,84.0
514,88.26512831666666,88.51104712291666,57.0,84.0
515,88.78059131666666,88.88583167916667,57.0,74.0
516,88.52285981666667,88.99751532916666,45.0,71.0
517,89.03832281666666,89.13604601041666,57.0,85.0
518,89.03832281666666,89.31108865416667,62.0,85.0
519,89.29605431666667,89.38089093541666,57.0,73.0
520,89.55378581666666,89.72453293541666,59.0,77.0
521,89.55378581666666,89.88776288541666,64.0,84.0
522,89.81151731666667,89.95649128541666,59.0,77.0
523,90.06924881666666,90.13690333541666,59.0,83.0
524,89.55378581666666,90.29476387916667,40.0,85.0
525,90.06924881666666,90.42470351041666,64.0,88.0
526,90.32698031666666,90.53746104166666,59.0,84.0
527,90.06924881666666,90.55571702291667,68.0,79.0
528,90.58471181666667,90.84351719791667,47.0,67.0
529,90.84244331666666,90.96486577916667,59.0,80.0
530,91.10017481666667,91.19897189166666,59.0,87.0
531,91.10017481666667,91.20219353541667,64.0,90.0
532,91.10017481666667,91.42019142916666,68.0,83.0
533,91.35790631666666,91.51469297916667,59.0,83.0
534,91.61563781666666,91.86477826666666,57.0,83.0
535,91.61563781666666,91.89699470416666,61.0,84.0
536,91.87336931666667,92.22667624791666,52.0,78.0
537,92.13110081666666,92.23311953541666,57.0,79.0
538,91.61563781666666,92.24600611041666,45.0,84.0
539,92.13110081666666,92.33191661041667,61.0,82.0
540,92.13110081666666,92.35124647291667,64.0,85.0
541,92.38883231666667,92.60253468541666,57.0,87.0
542,92.90429531666666,93.01597896666667,57.0,83.0
543,92.64656381666666,93.25008507916667,52.0,76.0
544,93.16202681666667,93.33062617291667,61.0,87.0
545,93.16202681666667,93.33921722291666,64.0,86.0
546,93.41975831666666,93.53358972916666,57.0,83.0
547,93.67748981666666,93.85682798541666,57.0,78.0
548,93.67748981666666,93.99106314166667,61.0,77.0
549,93.67748981666666,94.38088203541666,42.0,77.0
550,93.93522131666666,94.38517756041666,49.0,50.0
551,94.19295281666666,94.50867390416667,66.0,81.0
552,94.19295281666666,94.50974778541666,61.0,87.0
553,94.45068431666667,94.68693819166666,57.0,87.0
554,94.70841581666666,94.92856147291667,49.0,72.0
555,94.96614731666666,95.08212649166666,57.0,80.0
556,95.22387881666666,95.31301096041666,57.0,83.0
557,95.22387881666666,95.39033041041667,61.0,94.0
558,95.22387881666666,95.60081113541666,66.0,83.0
559,95.48161031666666,95.61799323541666,57.0,80.0
560,95.73934181666667,95.85532099166666,57.0,79.0
561,95.73934181666667,96.05506290416666,62.0,83.0
562,95.99707331666667,96.12808682916666,57.0,82.0
563,96.25480481666666,96.43951239166667,62.0,87.0
564,95.73934181666667,96.58770800416667,50.0,84.0
565,96.51253631666665,96.64140206666667,62.0,58.0
566,96.25480481666666,96.80355813541667,66.0,85.0
567,96.51253631666665,96.81644471041666,57.0,84.0
568,96.77026781666666,97.09028442916666,50.0,77.0
569,97.02799931666667,97.14827401666666,57.0,84.0
570,97.28573081666667,97.36519802916666,57.0,85.0
571,97.28573081666667,97.64333327291666,62.0,90.0
572,97.54346231666666,97.66373701666666,57.0,78.0
573,97.80119381666667,97.98160586666665,64.0,84.0
574,97.80119381666667,98.00630513541667,59.0,83.0
575,98.05892531666666,98.57760996041667,47.0,67.0
576,97.80119381666667,98.62593461666665,40.0,86.0
577,98.31665681666667,98.63667342916666,56.0,83.0
578,98.31665681666667,98.82567652916666,59.0,83.0
579,98.57438831666667,98.90084821666666,52.0,87.0
580,98.83211981666666,99.36691267916666,47.0,77.0
581,99.08985131666667,99.40449852291667,52.0,85.0
582,99.34758281666666,99.65471285416666,56.0,85.0
583,99.34758281666666,99.68048600416667,59.0,84.0
584,99.60531431666666,99.74169723541667,52.0,84.0
585,99.34758281666666,99.86626746041667,64.0,83.0
586,99.86304581666667,100.22816544166666,61.0,82.0
587,99.86304581666667,100.27649009791666,56.0,79.0
588,99.86304581666667,100.67060451666666,37.0,76.0
589,100.37850881666667,100.75651501666667,64.0,88.0
590,100.63624031666666,100.97988231666666,56.0,87.0
591,100.37850881666667,101.03465026041667,61.0,88.0
592,101.15170331666667,101.20969290416666,61.0,63.0
593,100.89397181666666,101.22902276666666,44.0,86.0
594,101.15170331666667,101.27842130416667,56.0,89.0
595,101.40943481666666,101.49319755416667,56.0,73.0
596,101.40943481666666,101.66609243541666,61.0,83.0
597,101.40943481666666,101.73589471666666,64.0,87.0
598,101.66716631666667,101.76703727291667,56.0,84.0
599,101.92489781666666,102.25350547916666,57.0,75.0
600,101.92489781666666,102.28035251041666,54.0,84.0
601,102.44036081666667,102.60681241041667,57.0,86.0
602,101.92489781666666,102.65835871041666,42.0,83.0
603,102.44036081666667,102.66265423541665,61.0,85.0
604,102.18262931666666,102.78937222291665,49.0,73.0
605,102.69809231666666,102.95474993541666,54.0,87.0
606,103.21355531666666,103.37034197916665,54.0,79.0
607,102.95582381666667,103.40470617916665,49.0,71.0
608,103.47128681666666,103.55504955416666,54.0,87.0
609,103.47128681666666,103.57008389166666,61.0,77.0
610,103.47128681666666,103.60552197291666,57.0,89.0
611,103.72901831666667,103.85466242291666,54.0,88.0
612,103.47128681666666,103.93520351666666,66.0,80.0
613,104.24448131666666,104.56986733541666,59.0,86.0
614,103.98674981666666,104.84155929166667,47.0,87.0
615,104.50221281666666,104.86303691666666,66.0,83.0
616,104.75994431666666,105.03485791666665,59.0,89.0
617,104.50221281666666,105.05418777916665,63.0,84.0
618,105.01767581666667,105.43112009791666,54.0,84.0
619,105.27540731666667,105.59757169166667,59.0,89.0
620,105.53313881666666,105.75435835416667,63.0,89.0
621,105.53313881666666,105.86496812291666,66.0,88.0
622,105.79087031666666,105.91329277916665,59.0,85.0
623,106.04860181666666,106.25586089791666,59.0,83.0
624,106.04860181666666,106.41372144166667,64.0,86.0
625,106.30633331666667,106.48567148541666,59.0,85.0
626,106.04860181666666,106.82609184166665,40.0,79.0
627,106.82179631666666,107.14718233541666,59.0,87.0
628,106.56406481666667,107.16543831666667,64.0,85.0
629,106.56406481666667,107.17510324791667,68.0,81.0
630,107.33725931666666,107.47149447291666,59.0,85.0
631,107.07952781666665,107.48223328541667,47.0,79.0
632,107.59499081666667,107.70989611041666,59.0,86.0
633,107.59499081666667,107.75499912291667,64.0,85.0
634,107.59499081666667,107.76573793541667,68.0,82.0
635,108.11045381666666,108.33704276041667,57.0,77.0
636,108.11045381666666,108.44657864791665,61.0,78.0
637,108.36818531666665,108.75263480416666,52.0,75.0
638,108.11045381666666,108.87290950416667,45.0,84.0
639,108.62591681666666,108.97492822291666,61.0,90.0
640,108.62591681666666,108.98996256041667,64.0,85.0
641,108.88364831666667,109.20796045416665,57.0,86.0
642,109.39911131666666,109.52475542291666,57.0,83.0
643,109.14137981666667,109.67939432291666,52.0,78.0
644,109.65684281666665,109.76315706041666,57.0,79.0
645,109.65684281666665,109.85228920416665,61.0,87.0
646,109.65684281666665,109.96182509166667,64.0,85.0
647,109.91457431666666,110.02625796666666,57.0,79.0
648,110.17230581666666,110.52453886666666,57.0,80.0
649,110.17230581666666,110.54816425416666,62.0,83.0
650,110.17230581666666,110.69958151041666,38.0,75.0
651,110.68776881666666,110.77153155416667,57.0,83.0
652,110.94550031666665,111.22470944166666,57.0,84.0
653,110.68776881666666,111.26014752291667,62.0,86.0
654,111.46096331666666,111.50284468541666,62.0,57.0
655,110.68776881666666,111.52539619166666,66.0,83.0
656,111.20323181666666,111.53183947916666,50.0,84.0
657,111.46096331666666,111.58553354166666,57.0,84.0
658,111.71869481666667,111.87011207291667,57.0,90.0
659,111.71869481666667,111.91199344166665,62.0,89.0
660,112.23415781666665,112.59390803541666,59.0,79.0
661,112.23415781666665,112.61323789791666,64.0,84.0
662,112.74962081666666,112.86023058541666,59.0,83.0
663,112.74962081666666,112.98587469166665,64.0,87.0
664,112.23415781666665,113.05245532916666,40.0,85.0
665,113.00735231666667,113.29622637291666,59.0,90.0
666,113.26508381666666,113.48522947291667,47.0,80.0
667,113.52281531666665,113.64953330416665,59.0,84.0
668,113.78054681666666,113.89223046666666,64.0,90.0
669,113.78054681666666,113.90082151666667,59.0,87.0
670,113.78054681666666,113.92229914166666,68.0,83.0
671,114.29600981666667,114.66327720416666,64.0,75.0
672,114.29600981666667,114.67938542291665,61.0,70.0
673,114.29600981666667,114.70408469166667,57.0,75.0
674,114.81147281666667,114.96396395416666,61.0,84.0
675,114.29600981666667,115.16048422291666,45.0,84.0
676,114.81147281666667,115.17122303541666,64.0,87.0
677,115.06920431666666,115.34519179791667,57.0,88.0
678,115.58466731666667,115.68775991666666,57.0,76.0
679,115.84239881666666,115.88535406666666,57.0,78.0
680,115.32693581666666,116.13986392291666,52.0,75.0
681,115.84239881666666,116.39652154166666,61.0,89.0
682,116.10013031666666,116.41155587916666,57.0,84.0
683,115.84239881666666,116.50176190416667,64.0,86.0
684,116.87332481666667,116.96138307916667,57.0,83.0
685,116.61559331666666,117.03762864791666,52.0,76.0
686,116.35786181666666,117.21159741041666,45.0,86.0
687,116.87332481666667,117.36301466666666,61.0,94.0
688,117.13105631666666,117.40167439166666,57.0,83.0
689,116.87332481666667,117.42637366041666,64.0,89.0
690,117.38878781666666,117.67551411041666,52.0,83.0
691,117.64651931666666,117.81511867291667,57.0,88.0
692,117.90425081666666,118.31984286041666,61.0,90.0
693,117.90425081666666,118.35205929791667,64.0,88.0
694,118.16198231666667,118.38427573541665,40.0,89.0
695,118.67744531666666,119.23693744791666,52.0,80.0
696,118.41971381666667,119.23801132916665,45.0,85.0
697,118.93517681666665,119.32392182916666,61.0,89.0
698,118.93517681666665,119.48178237291665,64.0,88.0
699,119.19290831666666,119.51399881041667,57.0,83.0
700,119.70837131666667,119.88985724791667,57.0,83.0
701,119.45063981666667,119.99509761041666,52.0,83.0
702,119.96610281666666,120.26678956666666,61.0,88.0
703,120.22383431666665,120.45257102291666,57.0,83.0
704,119.96610281666666,120.52129942291666,64.0,87.0
705,120.48156581666666,121.16348041041667,42.0,88.0
706,120.73929731666666,121.20750954166667,49.0,61.0
707,120.99702881666667,121.30845437916666,61.0,80.0
708,120.99702881666667,121.31919319166667,57.0,80.0
709,121.25476031666666,121.47383209166665,54.0,89.0
710,121.51249181666665,121.87868532291665,49.0,73.0
711,121.77022331666666,121.91734504791665,54.0,85.0
712,122.02795481666666,122.09131381041666,54.0,84.0
713,122.02795481666666,122.14930339791667,57.0,84.0
714,122.02795481666666,122.18044595416666,61.0,77.0
715,122.54341781666666,122.74745525416665,57.0,80.0
716,122.54341781666666,122.87417324166665,62.0,80.0
717,122.80114931666665,122.91712849166666,57.0,74.0
718,123.05888081666666,123.10613159166667,57.0,77.0
719,122.54341781666666,123.32520336666667,38.0,87.0
720,123.05888081666666,123.42936984791666,62.0,87.0
721,123.05888081666666,123.51635422916667,66.0,84.0
722,123.31661231666666,123.56253112291665,57.0,84.0
723,123.83207531666666,123.93731567916666,57.0,74.0
724,123.57434381666667,124.04899932916666,45.0,71.0
725,124.08980681666665,124.18753001041665,57.0,85.0
726,124.08980681666665,124.36257265416666,62.0,85.0
727,124.34753831666666,124.43237493541666,57.0,73.0
728,124.60526981666666,124.77601693541666,59.0,77.0
729,124.60526981666666,124.93924688541665,64.0,84.0
730,124.86300131666667,125.00797528541666,59.0,77.0
731,125.12073281666666,125.18838733541666,59.0,83.0
732,124.60526981666666,125.34624787916667,40.0,85.0
733,125.12073281666666,125.47618751041665,64.0,88.0
734,125.37846431666665,125.58894504166666,59.0,84.0
735,125.12073281666666,125.60720102291666,68.0,79.0
736,125.63619581666666,125.89500119791666,47.0,67.0
737,125.89392731666666,126.01634977916666,59.0,80.0
738,126.15165881666667,126.25045589166666,59.0,87.0
739,126.15165881666667,126.25367753541667,64.0,90.0
740,126.15165881666667,126.47167542916665,68.0,83.0
741,126.40939031666666,126.56617697916667,59.0,83.0
742,126.66712181666665,126.91651479166667,57.0,83.0
743,126.66712181666665,126.94881447916666,61.0,84.0
744,126.92512804166667,127.27934794791666,52.0,78.0
745,127.18352554166667,127.28580788541666,57.0,79.0
746,126.66712181666665,127.29872776041667,45.0,84.0
747,127.18352554166667,127.38486026041666,61.0,82.0
748,127.18352554166667,127.40424007291666,64.0,85.0
749,127.44192304166667,127.65617763541667,57.0,87.0
750,127.95871804166667,128.07069029166666,57.0,83.0
751,127.70032054166667,128.30540135416666,52.0,76.0
752,128.21711554166666,128.38615057291668,61.0,87.0
753,128.21711554166666,128.39476382291667,64.0,86.0
754,128.47551304166666,128.58963860416665,57.0,83.0
755,128.73391054166666,128.91371213541666,57.0,78.0
756,128.73391054166666,129.04829416666666,61.0,77.0
757,128.73391054166666,129.43912038541666,42.0,77.0
758,128.99230804166666,129.44342701041666,49.0,50.0
759,129.25070554166666,129.56724247916665,66.0,81.0
760,129.25070554166666,129.56831913541666,61.0,87.0
761,129.50910304166666,129.74596741666667,57.0,87.0
762,129.76750054166666,129.98821507291666,49.0,72.0
763,130.02589804166666,130.14217691666667,57.0,80.0
764,130.28429554166667,130.37365801041668,57.0,83.0
765,130.28429554166667,130.45117726041667,61.0,94.0
766,130.28429554166667,130.66220188541666,66.0,83.0
767,130.54269304166667,130.67942838541666,57.0,80.0
768,130.80109054166667,130.91736941666667,57.0,79.0
769,130.80109054166667,131.11762747916666,62.0,83.0
770,131.05948804166667,131.19084010416665,57.0,82.0
771,131.31788554166667,131.50307041666667,62.0,87.0
772,130.80109054166667,131.65164897916665,50.0,84.0
773,131.57628304166667,131.70548179166667,62.0,58.0
774,131.31788554166667,131.86805688541668,66.0,85.0
775,131.57628304166667,131.88097676041667,57.0,84.0
776,131.83468054166667,132.15552410416666,50.0,77.0
777,132.09307804166667,132.21366354166668,57.0,84.0
778,132.35147554166667,132.43114810416665,57.0,85.0
779,132.35147554166667,132.71000207291667,62.0,90.0
780,132.60987304166667,132.73045854166668,57.0,78.0
781,132.86827054166667,133.04914879166665,64.0,84.0
782,132.86827054166667,133.07391188541666,59.0,83.0
783,133.12666804166668,133.64669301041667,47.0,67.0
784,132.86827054166667,133.69514254166666,40.0,86.0
785,133.38506554166668,133.70590910416666,56.0,83.0
786,133.38506554166668,133.89540060416667,59.0,83.0
787,133.64346304166668,133.97076654166668,52.0,87.0
788,133.90186054166668,134.43803535416666,47.0,77.0
789,134.16025804166668,134.47571832291666,52.0,85.0
790,134.41865554166665,134.72657922916667,56.0,85.0
791,134.41865554166665,134.75241897916666,59.0,84.0
792,134.67705304166665,134.81378838541667,52.0,84.0
793,134.41865554166665,134.93868051041667,64.0,83.0
794,134.93545054166665,135.30151366666666,61.0,82.0
795,134.93545054166665,135.34996319791668,56.0,79.0
796,134.93545054166665,135.74509604166667,37.0,76.0
797,135.45224554166666,135.83122854166666,64.0,88.0
798,135.71064304166666,136.05517304166668,56.0,87.0
799,135.45224554166666,136.11008251041667,61.0,88.0
800,136.22743804166666,136.28557747916668,61.0,63.0
801,135.96904054166666,136.30495729166665,44.0,86.0
802,136.22743804166666,136.35448347916667,56.0,89.0
803,136.48583554166666,136.56981472916667,56.0,73.0
804,136.48583554166666,136.74315638541665,61.0,83.0
805,136.48583554166666,136.81313904166666,64.0,87.0
806,136.74423304166666,136.84436207291665,56.0,84.0
807,137.00263054166666,137.33208735416667,57.0,75.0
808,137.00263054166666,137.35900376041667,54.0,84.0
809,137.51942554166666,137.68630726041667,57.0,86.0
810,137.00263054166666,137.73798676041667,42.0,83.0
811,137.51942554166666,137.74229338541667,61.0,85.0
812,137.26102804166666,137.86933882291666,49.0,73.0
813,137.77782304166666,138.03514388541666,54.0,87.0
814,138.29461804166667,138.45180985416667,54.0,79.0
815,138.03622054166667,138.48626285416665,49.0,71.0
816,138.55301554166667,138.63699472916667,54.0,87.0
817,138.55301554166667,138.65206791666665,61.0,77.0
818,138.55301554166667,138.68759757291667,57.0,89.0
819,138.81141304166667,138.93738182291668,54.0,88.0
820,138.55301554166667,139.01813104166666,66.0,80.0
821,139.32820804166667,139.65443488541666,59.0,86.0
822,139.06981054166667,139.92682891666666,47.0,87.0
823,139.58660554166667,139.94836204166666,66.0,83.0
824,139.84500304166667,140.12062704166667,59.0,89.0
825,139.58660554166667,140.14000685416667,63.0,84.0
826,140.10340054166667,140.51791319791667,54.0,84.0
827,140.36179804166667,140.68479491666668,59.0,89.0
828,140.62019554166667,140.84198672916668,63.0,89.0
829,140.62019554166667,140.95288232291668,66.0,88.0
830,140.87859304166668,141.00133185416666,59.0,85.0
831,141.13699054166668,141.34478519791668,59.0,83.0
832,141.13699054166668,141.50305366666666,64.0,86.0
833,141.39538804166668,141.57518963541668,59.0,85.0
834,141.13699054166668,141.91648966666668,40.0,79.0
835,141.91218304166665,142.23840988541667,59.0,87.0
836,141.65378554166668,142.25671304166667,64.0,85.0
837,141.65378554166668,142.26640294791667,68.0,81.0
838,142.42897804166665,142.56356007291666,59.0,85.0
839,142.17058054166665,142.57432663541667,47.0,79.0
840,142.68737554166665,142.80257776041665,59.0,86.0
841,142.68737554166665,142.84779732291668,64.0,85.0
842,142.68737554166665,142.85856388541666,68.0,82.0
843,143.20417054166666,143.43134501041666,57.0,77.0
844,143.20417054166666,143.54116394791666,61.0,78.0
845,143.46256804166666,143.84801097916667,52.0,75.0
846,143.20417054166666,143.96859647916668,45.0,84.0
847,143.72096554166666,144.07087882291665,61.0,90.0
848,143.72096554166666,144.08595201041666,64.0,85.0
849,143.97936304166666,144.30451322916667,57.0,86.0
850,144.49615804166666,144.62212682291667,57.0,83.0
851,144.23776054166666,144.77716532291666,52.0,78.0
852,144.75455554166666,144.86114451041666,57.0,79.0
853,144.75455554166666,144.95050697916668,61.0,87.0
854,144.75455554166666,145.06032591666667,64.0,85.0
855,145.01295304166666,145.12492529166667,57.0,79.0
856,145.27135054166666,145.62449379166668,57.0,80.0
857,145.27135054166666,145.64818022916666,62.0,83.0
858,145.27135054166666,145.79998876041668,38.0,75.0
859,145.78814554166667,145.87212472916667,57.0,83.0
860,146.04654304166667,146.32647366666666,57.0,84.0
861,145.78814554166667,146.36200332291668,62.0,86.0
862,146.56333804166667,146.60532763541667,62.0,57.0
863,145.78814554166667,146.62793741666667,66.0,83.0
864,146.30494054166667,146.63439735416665,50.0,84.0
865,146.56333804166667,146.68823016666667,57.0,84.0
866,146.82173554166667,146.97354407291667,57.0,90.0
867,146.82173554166667,147.01553366666667,62.0,89.0
868,147.33853054166667,147.69888293541666,59.0,79.0
869,147.33853054166667,147.71822944791666,64.0,84.0
870,147.85472984166668,147.96543488541667,59.0,83.0
871,147.85472984166668,148.09118721666667,64.0,87.0
872,147.33853054166667,148.15782520416667,40.0,85.0
873,148.11268334166667,148.40180622291666,59.0,90.0
874,148.37063684166668,148.59097212291667,47.0,80.0
875,148.62859034166667,148.75541747916668,59.0,84.0
876,148.88654384166668,148.99832369166666,64.0,90.0
877,148.88654384166668,149.00692214166668,59.0,87.0
878,148.88654384166668,149.02841826666668,68.0,83.0
879,149.40245084166668,149.77003457916666,64.0,75.0
880,149.40245084166668,149.78615667291666,61.0,70.0
881,149.40245084166668,149.81087721666665,57.0,75.0
882,149.91835784166668,150.07098032916667,61.0,84.0
883,149.40245084166668,150.26766987291666,45.0,84.0
884,149.91835784166668,150.27841793541666,64.0,87.0
885,150.17631134166666,150.45253654791668,57.0,88.0
886,150.69221834166666,150.79539974166667,57.0,76.0
887,150.95017184166667,150.99316409166667,57.0,78.0
888,150.43426484166667,151.24789317291666,52.0,75.0
889,150.95017184166667,151.50477186666666,61.0,89.0
890,151.20812534166666,151.51981915416667,57.0,84.0
891,150.95017184166667,151.61010287916667,64.0,86.0
892,151.98198584166667,152.07011995416667,57.0,83.0
893,151.72403234166666,152.14643119791666,52.0,76.0
894,151.46607884166667,152.32054981041668,45.0,86.0
895,151.98198584166667,152.47209749166666,61.0,94.0
896,152.23993934166666,152.51079051666667,57.0,83.0
897,151.98198584166667,152.53551106041667,64.0,89.0
898,152.49789284166667,152.78486611041666,52.0,83.0
899,152.75584634166665,152.92459092291668,57.0,88.0
900,153.01379984166667,153.42974986041668,61.0,90.0
901,153.01379984166667,153.46199404791668,64.0,88.0
902,153.27175334166668,153.49423823541667,40.0,89.0
903,153.78766034166668,154.34763439791666,52.0,80.0
904,153.52970684166667,154.34870920416668,45.0,85.0
905,154.04561384166666,154.43469370416668,61.0,89.0
906,154.04561384166666,154.59269022291667,64.0,88.0
907,154.30356734166668,154.62493441041667,57.0,83.0
908,154.81947434166668,155.00111659791668,57.0,83.0
909,154.56152084166666,155.10644761041667,52.0,83.0
910,155.07742784166666,155.37837359166667,61.0,88.0
911,155.33538134166668,155.56431507291666,57.0,83.0
912,155.07742784166666,155.63310267291666,64.0,87.0
913,155.59333484166666,156.27583681041668,42.0,88.0
914,155.85128834166667,156.31990386666666,49.0,61.0
915,156.10924184166666,156.42093565416667,61.0,80.0
916,156.10924184166666,156.43168371666667,57.0,80.0
917,156.36719534166667,156.58645581666667,54.0,89.0
918,156.62514884166666,156.99165777291668,49.0,73.0
919,156.88310234166667,157.03035079791667,54.0,85.0
920,157.14105584166666,157.20446941041666,54.0,84.0
921,157.14105584166666,157.26250894791667,57.0,84.0
922,157.14105584166666,157.29367832916668,61.0,77.0
923,157.65696284166665,157.86117602916667,57.0,80.0
924,157.65696284166665,157.98800316666666,62.0,80.0
925,157.91491634166667,158.03099541666666,57.0,74.0
926,158.17286984166668,158.22016131666666,57.0,77.0
927,157.65696284166665,158.43942179166666,38.0,87.0
928,158.17286984166668,158.54367799791666,62.0,87.0
929,158.17286984166668,158.63073730416667,66.0,84.0
930,158.43082334166667,158.67695397291666,57.0,84.0
931,158.94673034166667,159.05206135416668,57.0,74.0
932,158.68877684166668,159.16384120416666,45.0,71.0
933,159.20468384166668,159.30249121041666,57.0,85.0
934,159.20468384166668,159.47768462916667,62.0,85.0
935,159.46263734166666,159.54754703541667,57.0,73.0
936,159.72059084166668,159.89148503541668,59.0,77.0
937,159.72059084166668,160.05485558541668,64.0,84.0
938,159.97854434166666,160.12364318541665,59.0,77.0
939,160.23649784166668,160.30421063541667,59.0,83.0
940,159.72059084166668,160.46220715416666,40.0,85.0
941,160.23649784166668,160.59225871041667,64.0,88.0
942,160.49445134166666,160.70511336666667,59.0,84.0
943,160.23649784166668,160.72338507291667,68.0,79.0
944,160.75240484166667,161.01143314791668,47.0,67.0
945,161.01035834166666,161.13288625416666,59.0,80.0
946,161.26831184166667,161.36719401666667,59.0,87.0
947,161.26831184166667,161.37041843541667,64.0,90.0
948,161.26831184166667,161.58860410416668,68.0,83.0
949,161.52626534166666,161.68318705416667,59.0,83.0
950,161.78421884166667,162.03343529791667,57.0,83.0
951,161.78421884166667,162.06562404791666,61.0,84.0
952,162.04201896458332,162.39502225625,52.0,78.0
953,162.29952896458335,162.40146000625,57.0,79.0
954,161.78421884166667,162.41433550625,45.0,84.0
955,162.29952896458335,162.50017217291668,61.0,82.0
956,162.29952896458335,162.51948542291666,64.0,85.0
957,162.55703896458334,162.77055767291668,57.0,87.0
958,163.07205896458333,163.18364663125,57.0,83.0
959,162.81454896458334,163.41755154791667,52.0,76.0
960,163.32956896458333,163.49802342291667,61.0,87.0
961,163.32956896458333,163.50660708958333,64.0,86.0
962,163.58707896458333,163.70081254791666,57.0,83.0
963,163.84458896458332,164.02377300625,57.0,78.0
964,163.84458896458332,164.15789279791667,61.0,77.0
965,163.84458896458332,164.54737667291667,42.0,77.0
966,164.10209896458332,164.55166850625,49.0,50.0
967,164.35960896458334,164.67505871458334,66.0,81.0
968,164.35960896458334,164.67613167291665,61.0,87.0
969,164.61711896458334,164.85316979791668,57.0,87.0
970,164.87462896458334,165.09458542291668,49.0,72.0
971,165.13213896458333,165.24801846458334,57.0,80.0
972,165.38964896458333,165.47870450625,57.0,83.0
973,165.38964896458333,165.55595750625,61.0,94.0
974,165.38964896458333,165.76625733958335,66.0,83.0
975,165.64715896458333,165.78342467291668,57.0,80.0
976,165.90466896458332,166.02054846458333,57.0,79.0
977,165.90466896458332,166.22011871458332,62.0,83.0
978,166.16217896458335,166.29307988125,57.0,82.0
979,166.41968896458334,166.60423779791665,62.0,87.0
980,165.90466896458332,166.75230604791668,50.0,84.0
981,166.67719896458334,166.80595396458332,62.0,58.0
982,166.41968896458334,166.96797067291666,66.0,85.0
983,166.67719896458334,166.98084617291667,57.0,84.0
984,166.93470896458334,167.25445054791666,50.0,77.0
985,167.19221896458333,167.31239029791666,57.0,84.0
986,167.44972896458333,167.52912788125,57.0,85.0
987,167.44972896458333,167.80702408958334,62.0,90.0
988,167.70723896458333,167.82741029791666,57.0,78.0
989,167.96474896458332,168.14500596458333,64.0,84.0
990,167.96474896458332,168.16968400625,59.0,83.0
991,168.22225896458335,168.74049783958333,47.0,67.0
992,167.96474896458332,168.78878096458334,40.0,86.0
993,168.47976896458334,168.79951054791667,56.0,83.0
994,168.47976896458334,168.98835121458333,59.0,83.0
995,168.73727896458334,169.06345829791667,52.0,87.0
996,168.99478896458334,169.52912221458334,47.0,77.0
997,169.25229896458333,169.56667575625,52.0,85.0
998,169.50980896458333,169.81667504791668,56.0,85.0
999,169.50980896458333,169.84242604791666,59.0,84.0
1000,169.76731896458332,169.90358467291668,52.0,84.0
1001,169.50980896458333,170.02804783958334,64.0,83.0
1002,170.02482896458332,170.38963479791667,61.0,82.0
1003,170.02482896458332,170.43791792291665,56.0,79.0
1004,170.02482896458332,170.83169363125,37.0,76.0
1005,170.53984896458334,170.91753029791667,64.0,88.0
1006,170.79735896458334,171.14070563125,56.0,87.0
1007,170.53984896458334,171.19542650625,61.0,88.0
1008,171.31237896458333,171.37031871458333,61.0,63.0
1009,171.05486896458333,171.38963196458334,44.0,86.0
1010,171.31237896458333,171.43898804791667,56.0,89.0
1011,171.56988896458333,171.65357971458334,56.0,73.0
1012,171.56988896458333,171.82632600625,61.0,83.0
1013,171.56988896458333,171.89606829791666,64.0,87.0
1014,171.82739896458332,171.92718408958333,56.0,84.0
1015,172.08490896458335,172.41323421458333,57.0,75.0
1016,172.08490896458335,172.44005817291668,54.0,84.0
1017,172.59992896458334,172.76623750625,57.0,86.0
1018,172.08490896458335,172.81773950625,42.0,83.0
1019,172.59992896458334,172.82203133958333,61.0,85.0
1020,172.34241896458335,172.94864042291667,49.0,73.0
1021,172.85743896458334,173.11387600625,54.0,87.0
1022,173.37245896458333,173.52911088125,54.0,79.0
1023,173.11494896458333,173.56344554791667,49.0,71.0
1024,173.62996896458333,173.71365971458334,54.0,87.0
1025,173.62996896458333,173.72868113125,61.0,77.0
1026,173.62996896458333,173.76408875625,57.0,89.0
1027,173.88747896458332,174.01301508958335,54.0,88.0
1028,173.62996896458333,174.09348696458335,66.0,80.0
1029,174.40249896458334,174.72760533958333,59.0,86.0
1030,174.14498896458332,174.99906379791668,47.0,87.0
1031,174.66000896458334,175.02052296458334,66.0,83.0
1032,174.91751896458334,175.19219629791667,59.0,89.0
1033,174.66000896458334,175.21150954791668,63.0,84.0
1034,175.17502896458333,175.58811792291667,54.0,84.0
1035,175.43253896458333,175.75442646458333,59.0,89.0
1036,175.69004896458333,175.91107838125,63.0,89.0
1037,175.69004896458333,176.02159308958335,66.0,88.0
1038,175.94755896458332,176.06987621458333,59.0,85.0
1039,176.20506896458335,176.41214992291665,59.0,83.0
1040,176.20506896458335,176.56987479791667,64.0,86.0
1041,176.46257896458334,176.64176300625,59.0,85.0
1042,176.20506896458335,176.98189079791666,40.0,79.0
1043,176.97759896458334,177.30270533958333,59.0,87.0
1044,176.72008896458334,177.32094563125,64.0,85.0
1045,176.72008896458334,177.33060225625,68.0,81.0
1046,177.49261896458333,177.62673875625,59.0,85.0
1047,177.23510896458333,177.63746833958334,47.0,79.0
1048,177.75012896458333,177.86493550625,59.0,86.0
1049,177.75012896458333,177.90999975625,64.0,85.0
1050,177.75012896458333,177.92072933958335,68.0,82.0
1051,178.26514896458332,178.49154317291666,57.0,77.0
1052,178.26514896458332,178.60098492291667,61.0,78.0
1053,178.52265896458334,178.90677804791667,52.0,75.0
1054,178.26514896458332,179.02694938125,45.0,84.0
1055,178.78016896458334,179.12888042291667,61.0,90.0
1056,178.78016896458334,179.14390183958332,64.0,85.0
1057,179.03767896458334,179.36171238125002,57.0,86.0
1058,179.55269896458333,179.67823508958332,57.0,83.0
1059,179.29518896458333,179.83274108958332,52.0,78.0
1060,179.81020896458332,179.91643183958334,57.0,79.0
1061,179.81020896458332,180.00548738125,61.0,87.0
1062,179.81020896458332,180.11492913125,64.0,85.0
1063,180.06771896458332,180.17930663125,57.0,79.0
1064,180.32522896458335,180.67715929791666,57.0,80.0
1065,180.32522896458335,180.70076438125,62.0,83.0
1066,180.32522896458335,180.85205150625,38.0,75.0
1067,180.84024896458334,180.92393971458333,57.0,83.0
1068,181.09775896458333,181.37672813125,57.0,84.0
1069,180.84024896458334,181.41213575625,62.0,86.0
1070,181.61277896458333,181.65462433958334,62.0,57.0
1071,180.84024896458334,181.67715646458333,66.0,83.0
1072,181.35526896458333,181.68359421458334,50.0,84.0
1073,181.61277896458333,181.73724213125,57.0,84.0
1074,181.87028896458332,182.02157608958333,57.0,90.0
1075,181.87028896458332,182.06342146458334,62.0,89.0
1076,182.38530896458334,182.74475000625,59.0,79.0
1077,182.38530896458334,182.76406325625,64.0,84.0
1078,182.90032896458334,183.01084367291668,59.0,83.0
1079,182.90032896458334,183.13637979791667,64.0,87.0
1080,182.38530896458334,183.20290321458333,40.0,85.0
1081,183.15783896458333,183.44646475625,59.0,90.0
1082,183.41534896458333,183.63530542291667,47.0,80.0
1083,183.67285896458333,183.79946804791666,59.0,84.0
1084,183.93036896458332,184.04195663125,64.0,90.0
1085,183.93036896458332,184.05054029791665,59.0,87.0
1086,183.93036896458332,184.07199946458334,68.0,83.0
1087,184.44538896458334,184.81234071458334,64.0,75.0
1088,184.44538896458334,184.82843508958334,61.0,70.0
1089,184.44538896458334,184.85311313125,57.0,75.0
1090,184.96040896458334,185.11276904791666,61.0,84.0
1091,184.44538896458334,185.30912042291666,45.0,84.0
1092,184.96040896458334,185.31985000625,64.0,87.0
1093,185.21791896458333,185.49366925625,57.0,88.0
1094,185.73293896458333,185.83594296458332,57.0,76.0
1095,185.99044896458332,186.03336729791667,57.0,78.0
1096,185.47542896458333,186.28765842291668,52.0,75.0
1097,185.99044896458332,186.54409546458334,61.0,89.0
1098,186.24795896458335,186.55911688125,57.0,84.0
1099,185.99044896458332,186.64924538125,64.0,86.0
1100,187.02048896458334,187.10847154791668,57.0,83.0
1101,186.76297896458334,187.18465158958332,52.0,76.0
1102,186.50546896458334,187.35847083958333,45.0,86.0
1103,187.02048896458334,187.50975796458334,61.0,94.0
1104,187.27799896458333,187.54838446458334,57.0,83.0
1105,187.02048896458334,187.57306250625,64.0,89.0
1106,187.53550896458333,187.82198883958333,52.0,83.0
1107,187.79301896458333,187.96147342291667,57.0,88.0
1108,188.05052896458332,188.46576383958333,61.0,90.0
1109,188.05052896458332,188.49795258958335,64.0,88.0
1110,188.30803896458332,188.53014133958334,40.0,89.0
1111,188.82305896458334,189.38207025625,52.0,80.0
1112,188.56554896458334,189.38314321458333,45.0,85.0
1113,189.08056896458334,189.46897988125,61.0,89.0
1114,189.08056896458334,189.62670475625,64.0,88.0
1115,189.33807896458333,189.65889350625,57.0,83.0
1116,189.85309896458332,190.03442892291667,57.0,83.0
1117,189.59558896458333,190.13957883958332,52.0,83.0
1118,190.11060896458332,190.41103729791666,61.0,88.0
1119,190.36811896458335,190.59665908958334,57.0,83.0
1120,190.11060896458332,190.66532842291667,64.0,87.0
1121,190.62562896458334,191.30695750625,42.0,88.0
1122,190.88313896458334,191.35094879791666,49.0,61.0
1123,191.14064896458333,191.45180688125,61.0,80.0
1124,191.14064896458333,191.46253646458334,57.0,80.0
1125,191.39815896458333,191.61704246458334,54.0,89.0
1126,191.65566896458333,192.02154775625002,49.0,73.0
1127,191.91317896458332,192.06017425625,54.0,85.0
1128,192.17068896458335,192.23399350625,54.0,84.0
1129,192.17068896458335,192.29193325625,57.0,84.0
1130,192.17068896458335,192.32304904791667,61.0,77.0
1131,192.68570896458334,192.88957104791666,57.0,80.0
1132,192.68570896458334,193.01618013125,62.0,80.0
1133,192.94321896458334,193.05909846458334,57.0,74.0
1134,193.20072896458333,193.24793913125,57.0,77.0
1135,192.68570896458334,193.46682263125,38.0,87.0
1136,193.20072896458333,193.57089958958335,62.0,87.0
1137,193.20072896458333,193.65780921458332,66.0,84.0
1138,193.45823896458333,193.70394642291666,57.0,84.0
1139,193.97325896458335,194.07840888125,57.0,74.0
1140,193.71574896458333,194.18999654791668,45.0,71.0
1141,194.23076896458332,194.32840817291668,57.0,85.0
1142,194.23076896458332,194.50330038125,62.0,85.0
1143,194.48827896458334,194.57304267291667,57.0,73.0
1144,194.74578896458334,194.91638933958333,59.0,77.0
1145,194.74578896458334,195.07947900624998,64.0,84.0
1146,195.00329896458334,195.14814833958334,59.0,77.0
1147,195.26080896458333,195.32840533958333,59.0,83.0
1148,194.74578896458334,195.48613021458334,40.0,85.0
1149,195.26080896458333,195.61595817291666,64.0,88.0
1150,195.51831896458333,195.72861879791668,59.0,84.0
1151,195.26080896458333,195.74685908958332,68.0,79.0
1152,195.77582896458333,196.03441192291666,47.0,67.0
1153,196.03333896458332,196.15565621458333,59.0,80.0
1154,196.29084896458335,196.38956113125,59.0,87.0
1155,196.29084896458335,196.39278000625,64.0,90.0
1156,196.29084896458335,196.61059054791667,68.0,83.0
1157,196.54835896458334,196.70501088125,59.0,83.0
1158,196.80586896458334,197.05479529791666,57.0,83.0
1159,196.80586896458334,197.08698404791667,61.0,84.0
1160,197.06337896458334,197.41638225625002,52.0,78.0
1161,197.32088896458333,197.42282000625,57.0,79.0
1162,196.80586896458334,197.43569550625,45.0,84.0
1163,197.32088896458333,197.52153217291666,61.0,82.0
1164,197.32088896458333,197.54084542291668,64.0,85.0
1165,197.57839896458333,197.79191767291667,57.0,87.0
1166,198.09341896458335,198.20500663125,57.0,83.0
1167,197.83590896458333,198.43891154791666,52.0,76.0
1168,198.35092896458332,198.51938342291666,61.0,87.0
1169,198.35092896458332,198.52796708958334,64.0,86.0
1170,198.60843896458334,198.72217254791667,57.0,83.0
1171,198.86594896458334,199.04513300625,57.0,78.0
1172,198.86594896458334,199.17925279791666,61.0,77.0
1173,198.86594896458334,199.56873667291666,42.0,77.0
1174,199.12345896458334,199.57302850625,49.0,50.0
1175,199.38096896458333,199.69641871458333,66.0,81.0
1176,199.38096896458333,199.69749167291667,61.0,87.0
1177,199.63847896458333,199.87452979791667,57.0,87.0
1178,199.89598896458332,200.11594542291667,49.0,72.0
1179,200.15349896458332,200.26937846458333,57.0,80.0
1180,200.41100896458335,200.50006450625,57.0,83.0
1181,200.41100896458335,200.57731750624998,61.0,94.0
1182,200.41100896458335,200.78761733958333,66.0,83.0
1183,200.66851896458334,200.80478467291667,57.0,80.0
1184,200.92602896458334,201.04190846458334,57.0,79.0
1185,200.92602896458334,201.24147871458334,62.0,83.0
1186,201.18353896458333,201.31443988125,57.0,82.0
1187,201.44104896458333,201.62559779791667,62.0,87.0
1188,200.92602896458334,201.77366604791666,50.0,84.0
1189,201.69855896458333,201.82731396458334,62.0,58.0
1190,201.44104896458333,201.98933067291665,66.0,85.0
1191,201.69855896458333,202.00220617291666,57.0,84.0
1192,201.95606896458332,202.27581054791668,50.0,77.0
1193,202.21357896458335,202.33375029791665,57.0,84.0
1194,202.47108896458332,202.55048788125,57.0,85.0
1195,202.47108896458332,202.82838408958332,62.0,90.0
1196,202.72859896458334,202.84877029791667,57.0,78.0
1197,202.98610896458334,203.16636596458335,64.0,84.0
1198,202.98610896458334,203.19104400625,59.0,83.0
1199,203.24361896458333,203.76185783958334,47.0,67.0
1200,202.98610896458334,203.81014096458333,40.0,86.0
1201,203.50112896458333,203.82087054791668,56.0,83.0
1202,203.50112896458333,204.00994405208334,59.0,83.0
1203,203.75863896458333,204.08518048958334,52.0,87.0
1204,204.01639288958333,204.55164640208332,47.0,77.0
1205,204.27434638958334,204.58926462083332,52.0,85.0
1206,204.53229988958333,204.83969447708333,56.0,85.0
1207,204.53229988958333,204.86548982708334,59.0,84.0
1208,204.79025338958334,204.92675378333334,52.0,84.0
1209,204.53229988958333,205.05143130833332,64.0,83.0
1210,205.04820688958333,205.41364101458333,61.0,82.0
1211,205.04820688958333,205.46200729583333,56.0,79.0
1212,205.04820688958333,205.85646118958334,37.0,76.0
1213,205.56411388958333,205.94244568958334,64.0,88.0
1214,205.82206738958334,206.16600538958332,56.0,87.0
1215,205.56411388958333,206.22082050833333,61.0,88.0
1216,206.33797438958334,206.39601392708335,61.0,63.0
1217,206.08002088958332,206.41536043958334,44.0,86.0
1218,206.33797438958334,206.46480152708332,56.0,89.0
1219,206.59592788958332,206.67976277708334,56.0,73.0
1220,206.59592788958332,206.85280658333332,61.0,83.0
1221,206.59592788958332,206.92266898958334,64.0,87.0
1222,206.85388138958334,206.95383837083332,56.0,84.0
1223,207.11183488958332,207.44072560208332,57.0,75.0
1224,207.11183488958332,207.46759575833335,54.0,84.0
1225,207.62774188958332,207.79433685833334,57.0,86.0
1226,207.11183488958332,207.84592755833333,42.0,83.0
1227,207.62774188958332,207.85022678333334,61.0,85.0
1228,207.36978838958333,207.97705392083333,49.0,73.0
1229,207.88569538958333,208.14257408333333,54.0,87.0
1230,208.40160238958333,208.55852410208334,54.0,79.0
1231,208.14364888958335,208.59291790208334,49.0,71.0
1232,208.65955588958334,208.74339077708333,54.0,87.0
1233,208.65955588958334,208.75843806458334,61.0,77.0
1234,208.65955588958334,208.79390667083334,57.0,89.0
1235,208.91750938958333,209.04326172083333,54.0,88.0
1236,208.65955588958334,209.12387218958332,66.0,80.0
1237,209.43341638958333,209.75908268333333,59.0,86.0
1238,209.17546288958334,210.03100866458334,47.0,87.0
1239,209.69136988958334,210.05250478958334,66.0,83.0
1240,209.94932338958333,210.22447378958333,59.0,89.0
1241,209.69136988958334,210.24382030208332,63.0,84.0
1242,210.20727688958334,210.62107729583335,54.0,84.0
1243,210.46523038958333,210.78767226458334,59.0,89.0
1244,210.72318388958334,210.94459397708334,63.0,89.0
1245,210.72318388958334,211.05529902083333,66.0,88.0
1246,210.98113738958332,211.10366530208333,59.0,85.0
1247,211.23909088958334,211.44652849583332,59.0,83.0
1248,211.23909088958334,211.60452501458334,64.0,86.0
1249,211.49704438958332,211.67653703333332,59.0,85.0
1250,211.23909088958334,212.01725061458333,40.0,79.0
1251,212.01295138958332,212.33861768333333,59.0,87.0
1252,211.75499788958334,212.35688938958333,64.0,85.0
1253,211.75499788958334,212.36656264583334,68.0,81.0
1254,212.52885838958332,212.66320917083334,59.0,85.0
1255,212.27090488958333,212.67395723333334,47.0,79.0
1256,212.78681188958333,212.90181615833333,59.0,86.0
1257,212.78681188958333,212.94695802083334,64.0,85.0
1258,212.78681188958333,212.95770608333333,68.0,82.0
1259,213.30271888958333,213.52950300833334,57.0,77.0
1260,213.30271888958333,213.63913324583334,61.0,78.0
1261,213.56067238958335,213.94545302708332,52.0,75.0
1262,213.30271888958333,214.06583132708334,45.0,84.0
1263,213.81862588958333,214.16793792083334,61.0,90.0
1264,213.81862588958333,214.18298520833332,64.0,85.0
1265,214.07657938958334,214.40117087708333,57.0,86.0
1266,214.59248638958334,214.71823872083334,57.0,83.0
1267,214.33453288958333,214.87301082083334,52.0,78.0
1268,214.85043988958333,214.95684570833333,57.0,79.0
1269,214.85043988958333,215.04605462708332,61.0,87.0
1270,214.85043988958333,215.15568486458332,64.0,85.0
1271,215.10839338958334,215.22017323958335,57.0,79.0
1272,215.36634688958333,215.71888333958333,57.0,80.0
1273,215.36634688958333,215.74252907708333,62.0,83.0
1274,215.36634688958333,215.89407675833334,38.0,75.0
1275,215.88225388958332,215.96608877708334,57.0,83.0
1276,216.14020738958334,216.41965701458332,57.0,84.0
1277,215.88225388958332,216.45512562083334,62.0,86.0
1278,216.65611438958334,216.69803183333335,62.0,57.0
1279,215.88225388958332,216.72060276458333,66.0,83.0
1280,216.39816088958332,216.72705160208332,50.0,84.0
1281,216.65611438958334,216.78079191458335,57.0,84.0
1282,216.91406788958332,217.06561557083333,57.0,90.0
1283,216.91406788958332,217.10753301458334,62.0,89.0
1284,217.42997488958332,217.79003498333333,59.0,79.0
1285,217.42997488958332,217.80938149583332,64.0,84.0
1286,217.94588188958335,218.05658693333334,59.0,83.0
1287,217.94588188958335,218.18233926458333,64.0,87.0
1288,217.42997488958332,218.24897725208334,40.0,85.0
1289,218.20383538958333,218.49295827083333,59.0,90.0
1290,218.46178888958335,218.68212417083333,47.0,80.0
1291,218.71974238958333,218.84656952708332,59.0,84.0
1292,218.97769588958334,219.08947573958332,64.0,90.0
1293,218.97769588958334,219.09807418958334,59.0,87.0
1294,218.97769588958334,219.11957031458334,68.0,83.0
1295,219.49360288958334,219.86118662708333,64.0,75.0
1296,219.49360288958334,219.87730872083333,61.0,70.0
1297,219.49360288958334,219.90202926458335,57.0,75.0
1298,220.00950988958334,220.16213237708334,61.0,84.0
1299,219.49360288958334,220.35882192083332,45.0,84.0
1300,220.00950988958334,220.36956998333332,64.0,87.0
1301,220.26746338958333,220.54368859583334,57.0,88.0
1302,220.78337038958333,220.88655178958334,57.0,76.0
1303,221.04132388958334,221.08431613958334,57.0,78.0
1304,220.52541688958334,221.33904522083333,52.0,75.0
1305,221.04132388958334,221.59592391458332,61.0,89.0
1306,221.55723088958334,221.59592391458332,61.0,78.0
1307,221.29927738958332,221.61097120208333,57.0,84.0
1308,221.55723088958334,221.61097120208333,57.0,77.0
1309,221.04132388958334,221.70125492708334,64.0,86.0
1310,221.81518438958332,222.19996502708332,52.0,75.0
1311,221.55723088958334,222.32034332708332,45.0,84.0
1312,222.07313788958334,222.42244992083334,61.0,90.0
1313,222.07313788958334,222.43749720833333,64.0,85.0
1314,222.33109138958332,222.65568287708334,57.0,86.0
1315,222.84699838958335,222.97275072083335,57.0,83.0
1316,222.58904488958333,223.12752282083335,52.0,78.0
1317,223.10495188958333,223.21135770833334,57.0,79.0
1318,223.10495188958333,223.30056662708333,61.0,87.0
1319,223.10495188958333,223.41019686458333,64.0,85.0
1320,223.36290538958332,223.47468523958332,57.0,79.0
1321,223.62085888958333,223.97339533958333,57.0,80.0
1322,223.62085888958333,223.99704107708334,62.0,83.0
1323,223.62085888958333,224.14858875833335,38.0,75.0
1324,224.13676588958333,224.22060077708335,57.0,83.0
1325,224.39471938958334,224.67416901458333,57.0,84.0
1326,224.13676588958333,224.70963762083335,62.0,86.0
1327,224.91062638958334,224.95254383333332,62.0,57.0
1328,224.13676588958333,224.97511476458334,66.0,83.0
1329,224.65267288958333,224.98156360208333,50.0,84.0
1330,224.91062638958334,225.03530391458332,57.0,84.0
1331,225.16857988958333,225.32012757083334,57.0,90.0
1332,225.16857988958333,225.36204501458334,62.0,89.0
1333,225.68448688958333,226.04454698333333,59.0,79.0
1334,225.68448688958333,226.06389349583333,64.0,84.0
1335,226.20039388958332,226.31109893333334,59.0,83.0
1336,226.20039388958332,226.43685126458334,64.0,87.0
1337,225.68448688958333,226.50348925208334,40.0,85.0
1338,226.45834738958334,226.74747027083333,59.0,90.0
1339,226.71630088958332,226.93663617083334,47.0,80.0
1340,226.97425438958334,227.10108152708332,59.0,84.0
1341,227.23220788958332,227.34398773958333,64.0,90.0
1342,227.23220788958332,227.35258618958335,59.0,87.0
1343,227.23220788958332,227.37408231458335,68.0,83.0
1344,227.64493348958334,230.63074525208333,57.0,70.0
1345,227.69115015833333,230.63074525208333,61.0,74.0
1346,227.70082341458334,230.64686734583333,45.0,84.0
1347,227.77498504583332,230.65116657083334,64.0,72.0
