,start,end,pitch,velocity
0,16.559196175000004,16.937485320833336,63.0,92.0
1,16.953932675,17.332221820833336,63.0,92.0
2,17.348669175,17.677616258333337,65.0,100.0
3,17.743405675,17.985181781250002,68.0,107.0
4,18.138142175000002,18.58879967916667,72.0,110.0
5,20.901297675000002,21.01642915416667,70.0,93.0
6,21.098665925000002,21.222021081250002,68.0,88.0
7,21.296034175000003,21.577283931250005,72.0,108.0
8,22.085507175000004,22.425967406250003,70.0,108.0
9,22.874980175000005,23.085506308333336,63.0,107.0
10,23.269716675000005,23.56741378541667,63.0,113.0
11,23.664453175000002,23.970373962500002,65.0,113.0
12,24.059189675000002,24.281228956250004,68.0,114.0
13,24.453926175000003,24.88484685416667,72.0,120.0
14,27.217081675000003,27.360173656250005,70.0,104.0
15,27.414449925000003,27.50984457916667,68.0,98.0
16,27.611818175000003,27.83056798541667,72.0,113.0
17,28.401291175000004,28.809185558333336,70.0,116.0
18,29.190764175000005,29.383198218750003,75.0,100.0
19,29.585500675000006,29.751618952083337,75.0,107.0
20,29.980237175000006,30.146355452083338,75.0,104.0
21,30.374973675000003,30.601947162500004,75.0,113.0
22,30.769710175000004,31.164446675000004,77.0,116.0
23,33.532865675000004,33.710497100000005,72.0,107.0
24,33.927602175000004,34.0558915375,75.0,98.0
25,34.322338675000005,34.565759516666674,77.0,113.0
26,34.717075175000005,34.805890887500006,75.0,110.0
27,34.914443425,35.15621953125,75.0,113.0
28,35.309179925,35.40786405000001,72.0,98.0
29,35.506548175000006,35.79108740208334,72.0,108.0
30,36.69075767500001,36.828915450000004,68.0,98.0
31,36.888125925000004,37.18088882916667,72.0,108.0
32,37.48023067500001,37.65950683541667,70.0,113.0
33,37.677598925000005,37.81904617083334,68.0,104.0
34,37.87496717500001,38.197335316666674,65.0,94.0
35,38.664440175,38.868387366666674,70.0,108.0
36,39.059176675,39.27628175,70.0,107.0
37,39.453913175000004,39.66443930833334,68.0,100.0
38,39.848649675000004,40.154570462500004,72.0,113.0
39,40.243386175000005,40.516412254166674,70.0,114.0
40,41.82233217500001,42.20062132083334,63.0,92.0
41,42.21706867500001,42.59535782083334,63.0,92.0
42,42.61180517500001,42.94075225833334,65.0,100.0
43,43.00654167500001,43.24831778125001,68.0,107.0
44,43.40127817500001,43.85193567916667,72.0,110.0
45,45.769697175000005,45.884828654166675,72.0,93.0
46,46.164433675000005,46.279565154166676,70.0,93.0
47,46.36180192500001,46.48515708125001,68.0,88.0
48,46.559170175000006,46.840419931250004,72.0,108.0
49,47.34864317500001,47.689103406250005,70.0,108.0
50,48.13811617500001,48.21377400416667,75.0,110.0
51,48.335484425000004,48.424300137500005,75.0,100.0
52,48.53285267500001,48.730220925000005,77.0,116.0
53,48.92758917500001,49.087128510416676,75.0,108.0
54,49.124957425000005,49.31903620416667,75.0,102.0
55,49.519693925000006,49.613443843750005,72.0,100.0
56,49.71706217500001,49.889759393750005,72.0,110.0
57,52.085481175000005,52.22857315625001,70.0,104.0
58,52.480217675000006,52.62330965625001,70.0,104.0
59,52.67758592500001,52.77298057916668,68.0,98.0
60,52.874954175000006,53.093703985416674,72.0,113.0
61,53.66442717500001,54.07232155833334,75.0,116.0
62,54.45390017500001,54.646334218750006,75.0,100.0
63,54.84863667500001,55.014754952083344,75.0,107.0
64,55.24337317500001,55.409491452083344,75.0,104.0
65,55.63810967500001,55.86508316250001,75.0,113.0
66,56.03284617500001,56.42758267500001,77.0,116.0
67,58.006528675000006,58.212120602083345,77.0,108.0
68,58.401265175000006,58.63810707500001,77.0,104.0
69,58.79600167500001,59.00488307291668,80.0,113.0
70,59.19073817500001,59.49665896250001,79.0,119.0
71,59.98021117500001,60.33711876041668,75.0,104.0
72,60.76968417500001,61.29106530208334,75.0,110.0
73,61.55915717500001,62.00816994375001,79.0,119.0
74,62.34863017500001,62.75816929375001,80.0,117.0
75,64.322312675,64.56573351666668,77.0,116.0
76,64.71704917500001,65.02461469791668,80.0,116.0
77,65.50652217500001,65.88152185000001,82.0,117.0
78,67.08546817500002,67.31408639791668,75.0,100.0
79,67.48020467500001,67.77625705000001,75.0,108.0
80,67.874941175,68.12987516458334,75.0,108.0
81,68.26967767500001,68.55421690208334,77.0,114.0
82,68.664414175,68.88151925000001,75.0,117.0
83,69.05915067500001,69.41934773125001,84.0,116.0
84,69.84862367500001,70.17921549375001,75.0,117.0
85,70.63809667500001,70.79763601041668,75.0,116.0
86,71.03283317500001,71.30914872500001,75.0,114.0
87,71.42756967500002,71.69730628333335,77.0,114.0
88,71.82230617500001,72.01802968958334,75.0,116.0
89,72.21704267500002,72.66276597291667,82.0,120.0
90,73.00651567500002,73.33875222916667,75.0,100.0
91,73.79598867500002,73.98348851250002,75.0,114.0
92,74.19072517500001,74.41276445625002,75.0,108.0
93,74.585461675,74.83546145833334,77.0,113.0
94,74.98019817500001,75.18414536666668,75.0,114.0
95,75.374934675,75.89138159583335,80.0,117.0
96,76.164407675,76.50980211250001,72.0,116.0
97,76.95388067500001,77.27789355208334,80.0,117.0
98,77.34861717500002,77.66605111041667,79.0,113.0
99,77.74335367500001,77.93907718958334,77.0,116.0
100,78.13809017500002,78.47361620000001,77.0,119.0
101,78.92756317500002,79.282826025,75.0,116.0
102,79.71703617500002,79.95716754583334,75.0,108.0
103,80.11177267500001,80.31407513125001,75.0,108.0
104,80.50650917500002,80.68907480625,75.0,108.0
105,80.90124567500001,81.07558762916668,75.0,107.0
106,81.295982175,81.45552151041667,75.0,104.0
107,81.69071867500001,81.97196843125002,77.0,114.0
108,82.28282342500002,82.57229685833335,68.0,114.0
109,82.87492817500001,83.14137531250002,68.0,104.0
110,83.26966467500002,83.53117760625001,68.0,104.0
111,83.66440117500001,83.90288781041669,68.0,110.0
112,84.05913767500002,84.31242692916668,68.0,113.0
113,84.45387417500001,84.74663707916667,68.0,92.0
114,84.84861067500002,85.13643937291668,75.0,110.0
115,85.44071542500001,85.69729415000002,72.0,102.0
116,86.03282017500001,86.25485945625002,75.0,104.0
117,86.42755667500002,86.63314860208335,75.0,110.0
118,86.82229317500001,87.02130616041669,75.0,108.0
119,87.217029675,87.39630583541668,75.0,108.0
120,87.61176617500001,87.83216072083334,77.0,110.0
121,88.40123917500001,88.65452842916667,80.0,114.0
122,89.19071217500002,89.41439619166668,80.0,114.0
123,89.58544867500001,89.95386940833335,80.0,114.0
124,89.98018517500002,90.27788228541668,77.0,116.0
125,90.37492167500001,90.61505304583335,80.0,114.0
126,90.76965817500002,91.08709211041668,82.0,117.0
127,92.34860417500002,92.57722239791669,75.0,100.0
128,92.74334067500001,93.03939305000002,75.0,108.0
129,93.13807717500002,93.39301116458334,75.0,108.0
130,93.53281367500001,93.81735290208334,77.0,114.0
131,93.92755017500001,94.14465525000001,75.0,117.0
132,94.32228667500002,94.68248373125002,84.0,116.0
133,95.11175967500002,95.44235149375001,75.0,117.0
134,95.90123267500002,96.06077201041668,75.0,116.0
135,96.29596917500001,96.57228472500002,75.0,114.0
136,96.69070567500002,96.96044228333335,77.0,114.0
137,97.08544217500001,97.28116568958335,75.0,116.0
138,97.48017867500002,97.92590197291668,82.0,120.0
139,98.26965167500002,98.60188822916668,75.0,100.0
140,99.05912467500002,99.24662451250002,75.0,114.0
141,99.45386117500001,99.67590045625002,75.0,108.0
142,99.84859767500002,100.09859745833334,77.0,113.0
143,100.24333417500002,100.44728136666669,75.0,114.0
144,100.63807067500001,101.15451759583335,80.0,117.0
145,101.42754367500001,101.77293811250001,72.0,116.0
146,102.21701667500001,102.54102955208334,80.0,117.0
147,102.61175317500002,102.92918711041668,79.0,113.0
148,103.00648967500001,103.20221318958335,77.0,116.0
149,103.40122617500002,103.73675220000001,77.0,119.0
150,104.19069917500002,104.54596202500002,75.0,116.0
151,104.98017217500002,105.22030354583335,75.0,108.0
152,105.37490867500001,105.57721113125001,75.0,108.0
153,105.76964517500002,105.95221080625002,75.0,108.0
154,106.16438167500002,106.33872362916668,75.0,107.0
155,106.55911817500002,106.71865751041668,75.0,104.0
156,106.95385467500002,107.23510443125002,77.0,114.0
157,107.34859117500001,107.66602511041668,80.0,110.0
158,108.13806417500001,108.32062980625001,75.0,110.0
159,108.53280067500002,108.71701104166668,75.0,110.0
160,108.92753717500001,109.15944486875001,75.0,110.0
161,109.32227367500002,109.56569451666668,75.0,108.0
162,109.71701017500001,109.91108895416669,75.0,110.0
163,110.11174667500002,110.48839108541668,77.0,110.0
164,110.70385142500001,110.93082491250001,80.0,116.0
165,111.29595617500001,111.49167968958335,75.0,113.0
166,111.69069267500002,111.87490304166668,75.0,107.0
167,112.08542917500002,112.26141586458336,75.0,108.0
168,112.48016567500002,112.73674440000002,84.0,113.0
169,112.87490217500002,113.41437539166668,82.0,119.0
170,113.66437517500002,113.92259863541669,80.0,119.0
171,114.45384817500002,114.66437430833335,80.0,117.0
172,114.84858467500001,115.13805810833335,80.0,114.0
173,115.24332117500002,115.50318937083335,77.0,116.0
174,115.63805767500001,115.83707066041669,80.0,114.0
175,116.03279417500002,116.33213602083335,82.0,117.0
176,117.61174017500002,118.12654236041668,75.0,114.0
177,118.40121317500002,119.01634422083335,82.0,116.0
178,119.19068617500002,119.55417270208335,80.0,119.0
179,123.92752417500002,124.30581332083335,63.0,92.0
180,124.32226067500002,124.70054982083336,63.0,92.0
181,124.71699717500002,125.04594425833335,65.0,100.0
182,125.11173367500002,125.35350978125003,68.0,107.0
183,125.50647017500002,125.95712767916669,72.0,110.0
184,128.26962567500001,128.3847571541667,70.0,93.0
185,128.46699392500003,128.59034908125003,68.0,88.0
186,128.664362175,128.94561193125003,72.0,108.0
187,129.45383517500002,129.79429540625003,70.0,108.0
188,130.243308175,130.45383430833334,63.0,107.0
189,130.63804467500003,130.9357417854167,63.0,113.0
190,131.03278117500003,131.3387019625,65.0,113.0
191,131.42751767500002,131.64955695625002,68.0,114.0
192,131.822254175,132.25317485416667,72.0,120.0
193,134.58540967500002,134.72850165625002,70.0,104.0
194,134.78277792500003,134.8781725791667,68.0,98.0
195,134.98014617500002,135.1988959854167,72.0,113.0
196,135.76961917500003,136.17751355833335,70.0,116.0
197,136.55909217500002,136.75152621875003,75.0,100.0
198,136.953828675,137.11994695208335,75.0,107.0
199,137.34856517500003,137.51468345208335,75.0,104.0
200,137.74330167500003,137.97027516250003,75.0,113.0
201,138.13803817500002,138.532774675,77.0,116.0
202,140.90119367500003,141.07882510000002,72.0,107.0
203,141.29593017500002,141.42421953750002,75.0,98.0
204,141.69066667500002,141.9340875166667,77.0,113.0
205,142.085403175,142.17421888750002,75.0,110.0
206,142.28277142500002,142.52454753125002,75.0,113.0
207,142.67750792500001,142.77619205000002,72.0,98.0
208,142.87487617500003,143.15941540208337,72.0,108.0
209,144.05908567500003,144.19724345000003,68.0,98.0
210,144.25645392500002,144.54921682916668,72.0,108.0
211,144.84855867500002,145.02783483541668,70.0,113.0
212,145.04592692500003,145.18737417083335,68.0,104.0
213,145.24329517500001,145.5656633166667,65.0,94.0
214,146.03276817500003,146.2367153666667,70.0,108.0
215,146.42750467500002,146.64460975000003,70.0,107.0
216,146.82224117500002,147.03276730833335,68.0,100.0
217,147.216977675,147.52289846250002,72.0,113.0
218,147.61171417500003,147.8847402541667,70.0,114.0
219,149.19066017500003,149.56894932083335,63.0,92.0
220,149.58539667500003,149.96368582083335,63.0,92.0
221,149.98013317500002,150.30908025833335,65.0,100.0
222,150.374869675,150.61664578125,68.0,107.0
223,150.76960617500004,151.2202636791667,72.0,110.0
224,153.13802517500002,153.2531566541667,72.0,93.0
225,153.53276167500002,153.6478931541667,70.0,93.0
226,153.73012992500003,153.85348508125003,68.0,88.0
227,153.927498175,154.20874793125003,72.0,108.0
228,154.71697117500003,155.05743140625003,70.0,108.0
229,155.506444175,155.5821020041667,75.0,110.0
230,155.70381242500002,155.79262813750003,75.0,100.0
231,155.90118067500003,156.09854892500002,77.0,116.0
232,156.29591717500003,156.4554565104167,75.0,108.0
233,156.493285425,156.6873642041667,75.0,102.0
234,156.88802192500003,156.98177184375,72.0,100.0
235,157.08539017500001,157.25808739375003,72.0,110.0
236,159.45380917500003,159.59690115625003,70.0,104.0
237,159.84854567500003,159.99163765625002,70.0,104.0
238,160.04591392500004,160.1413085791667,68.0,98.0
239,160.24328217500002,160.4620319854167,72.0,113.0
240,161.03275517500003,161.44064955833335,75.0,116.0
241,161.82222817500002,162.01466221875003,75.0,100.0
242,162.216964675,162.38308295208336,75.0,107.0
243,162.61170117500004,162.77781945208335,75.0,104.0
244,163.00643767500003,163.23341116250003,75.0,113.0
245,163.40117417500002,163.79591067500002,77.0,116.0
246,165.37485667500002,165.58044860208335,77.0,108.0
247,165.769593175,166.006435075,77.0,104.0
248,166.16432967500003,166.3732110729167,80.0,113.0
249,166.55906617500003,166.8649869625,79.0,119.0
250,167.348539175,167.7054467604167,75.0,104.0
251,168.13801217500003,168.65939330208334,75.0,110.0
252,168.92748517500002,169.37649794375002,79.0,119.0
253,169.71695817500003,170.12649729375002,80.0,117.0
254,171.69064067500003,171.9340615166667,77.0,116.0
255,172.08537717500002,172.39294269791668,80.0,116.0
256,172.87485017500003,173.24984985000003,82.0,117.0
257,174.45379617500004,174.6824143979167,75.0,100.0
258,174.84853267500003,175.14458505000002,75.0,108.0
259,175.24326917500002,175.49820316458337,75.0,108.0
260,175.63800567500002,175.92254490208336,77.0,114.0
261,176.03274217500004,176.24984725000002,75.0,117.0
262,176.42747867500003,176.78767573125003,84.0,116.0
263,177.21695167500002,177.54754349375003,75.0,117.0
264,178.00642467500003,178.1659640104167,75.0,116.0
265,178.40116117500003,178.67747672500002,75.0,114.0
266,178.79589767500002,179.06563428333337,77.0,114.0
267,179.190634175,179.38635768958335,75.0,116.0
268,179.58537067500004,180.0310939729167,82.0,120.0
269,180.37484367500002,180.7070802291667,75.0,100.0
270,181.16431667500004,181.35181651250002,75.0,114.0
271,181.55905317500003,181.78109245625004,75.0,108.0
272,181.95378967500002,182.20378945833335,77.0,113.0
273,182.34852617500002,182.5524733666667,75.0,114.0
274,182.74326267500004,183.25970959583336,80.0,117.0
275,183.53273567500003,183.87813011250003,72.0,116.0
276,184.32220867500004,184.64622155208338,80.0,117.0
277,184.71694517500003,185.0343791104167,79.0,113.0
278,185.11168167500003,185.30740518958336,77.0,116.0
279,185.50641817500002,185.84194420000003,77.0,119.0
280,186.29589117500004,186.65115402500004,75.0,116.0
281,187.08536417500002,187.32549554583335,75.0,108.0
282,187.48010067500002,187.68240313125003,75.0,108.0
283,187.87483717500004,188.05740280625002,75.0,108.0
284,188.26957367500003,188.4439156291667,75.0,107.0
285,188.66431017500003,188.8238495104167,75.0,104.0
286,189.05904667500002,189.34029643125004,77.0,114.0
287,189.65115142500002,189.94062485833336,68.0,114.0
288,190.24325617500003,190.50970331250002,68.0,104.0
289,190.63799267500002,190.89950560625002,68.0,104.0
290,191.03272917500004,191.2712158104167,68.0,110.0
291,191.42746567500004,191.68075492916668,68.0,113.0
292,191.82220217500003,192.1149650791667,68.0,92.0
293,192.21693867500002,192.5047673729167,75.0,110.0
294,192.80904342500003,193.06562215000002,72.0,102.0
295,193.40114817500003,193.62318745625004,75.0,104.0
296,193.79588467500002,194.00147660208336,75.0,110.0
297,194.19062117500002,194.3896341604167,75.0,108.0
298,194.58535767500004,194.7646338354167,75.0,108.0
299,194.98009417500003,195.20048872083336,77.0,110.0
300,195.76956717500002,196.0228564291667,80.0,114.0
301,196.55904017500004,196.7827241916667,80.0,114.0
302,196.95377667500003,197.32219740833335,80.0,114.0
303,197.34851317500002,197.6462102854167,77.0,116.0
304,197.74324967500004,197.98338104583337,80.0,114.0
305,198.13798617500004,198.4554201104167,82.0,117.0
306,199.71693217500004,199.9455503979167,75.0,100.0
307,200.11166867500003,200.40772105000002,75.0,108.0
308,200.50640517500003,200.76133916458338,75.0,108.0
309,200.90114167500002,201.18568090208336,77.0,114.0
310,201.29587817500004,201.51298325000002,75.0,117.0
311,201.69061467500003,202.05081173125004,84.0,116.0
312,202.48008767500002,202.81067949375003,75.0,117.0
313,203.26956067500004,203.4291000104167,75.0,116.0
314,203.66429717500003,203.94061272500002,75.0,114.0
315,204.05903367500002,204.32877028333337,77.0,114.0
316,204.45377017500002,204.64949368958335,75.0,116.0
317,204.84850667500004,205.2942299729167,82.0,120.0
318,205.63797967500003,205.9702162291667,75.0,100.0
319,206.42745267500004,206.61495251250003,75.0,114.0
320,206.82218917500003,207.04422845625004,75.0,108.0
321,207.21692567500003,207.46692545833338,77.0,113.0
322,207.61166217500002,207.8156093666667,75.0,114.0
323,208.00639867500004,208.52284559583336,80.0,117.0
324,208.79587167500003,209.14126611250003,72.0,116.0
325,209.58534467500004,209.90935755208338,80.0,117.0
326,209.98008117500004,210.2975151104167,79.0,113.0
327,210.37481767500003,210.57054118958337,77.0,116.0
328,210.76955417500002,211.10508020000003,77.0,119.0
329,211.55902717500004,211.91429002500004,75.0,116.0
330,212.34850017500003,212.58863154583335,75.0,108.0
331,212.74323667500002,212.94553913125003,75.0,108.0
332,213.13797317500004,213.32053880625003,75.0,108.0
333,213.53270967500004,213.7070516291667,75.0,107.0
334,213.92744617500003,214.0869855104167,75.0,104.0
335,214.32218267500002,214.60343243125004,77.0,114.0
336,214.71691917500004,215.0343531104167,80.0,110.0
337,215.50639217500003,215.68895780625004,75.0,110.0
338,215.90112867500002,216.08533904166669,75.0,110.0
339,216.29586517500005,216.52777286875002,75.0,110.0
340,216.69060167500004,216.9340225166667,75.0,108.0
341,217.08533817500003,217.2794169541667,75.0,110.0
342,217.48007467500003,217.8567190854167,77.0,110.0
343,218.07217942500003,218.29915291250003,80.0,116.0
344,218.66428417500003,218.86000768958337,75.0,113.0
345,219.05902067500003,219.2432310416667,75.0,107.0
346,219.45375717500002,219.62974386458336,75.0,108.0
347,219.84849367500004,220.10507240000004,84.0,113.0
348,220.24323017500004,220.7827033916667,82.0,119.0
349,221.03270317500002,221.2909266354167,80.0,119.0
350,221.82217617500004,222.03270230833337,80.0,117.0
351,222.21691267500003,222.50638610833337,80.0,114.0
352,222.61164917500003,222.87151737083337,77.0,116.0
353,223.00638567500005,223.2053986604167,80.0,114.0
354,223.40112217500004,223.70046402083338,82.0,117.0
355,224.98006817500004,225.4948703604167,75.0,114.0
356,225.76954117500003,226.06559355000005,80.0,117.0
357,226.16427767500002,226.38467222083338,79.0,106.0
358,226.55901417500004,229.4866432166667,82.0,117.0
359,239.19058217500003,239.4192003979167,75.0,100.0
360,239.58531867500002,239.88137105000004,75.0,108.0
361,239.98005517500005,240.23498916458337,75.0,108.0
362,240.37479167500004,240.65933090208338,77.0,114.0
363,240.76952817500003,240.98663325000004,75.0,117.0
364,241.16426467500003,241.52446173125003,84.0,116.0
365,241.95373767500004,242.28432949375005,75.0,117.0
366,242.74321067500003,242.9027500104167,75.0,116.0
367,243.13794717500005,243.41426272500004,75.0,114.0
368,243.53268367500004,243.80242028333336,77.0,114.0
369,243.92742017500004,244.12314368958337,75.0,116.0
370,244.32215667500003,244.76787997291672,82.0,120.0
371,245.11162967500005,245.4438662291667,75.0,100.0
372,245.90110267500003,246.08860251250005,75.0,114.0
373,246.29583917500003,246.51787845625003,75.0,108.0
374,246.69057567500005,246.94057545833337,77.0,113.0
375,247.08531217500004,247.2892593666667,75.0,114.0
376,247.48004867500003,247.99649559583338,80.0,117.0
377,248.26952167500005,248.61491611250003,72.0,116.0
378,249.05899467500004,249.38300755208337,80.0,117.0
379,249.45373117500003,249.77116511041672,79.0,113.0
380,249.84846767500005,250.04419118958336,77.0,116.0
381,250.24320417500005,250.57873020000002,77.0,119.0
382,251.03267717500003,251.38794002500003,75.0,116.0
383,251.82215017500005,252.06228154583337,75.0,108.0
384,252.21688667500004,252.41918913125005,75.0,108.0
385,252.61162317500003,252.79418880625005,75.0,108.0
386,253.00635967500003,253.1807016291667,75.0,107.0
387,253.40109617500005,253.56063551041672,75.0,104.0
388,253.79583267500004,254.07708243125003,77.0,114.0
389,254.19056917500004,254.5080031104167,80.0,110.0
390,254.98004217500005,255.16260780625004,75.0,110.0
391,255.37477867500004,255.5589890416667,75.0,110.0
392,255.76951517500004,256.00142286875,75.0,110.0
393,256.16425167500006,256.4076725166667,75.0,108.0
394,256.558988175,256.7530669541667,75.0,110.0
395,256.95372467500005,257.3303690854167,77.0,110.0
396,257.545829425,257.7728029125,80.0,116.0
397,258.13793417500005,258.3336576895834,75.0,113.0
398,258.532670675,258.7168810416667,75.0,107.0
399,258.92740717500004,259.1033938645834,75.0,108.0
400,259.32214367500006,259.57872240000006,84.0,113.0
401,259.71688017500003,260.2563533916667,82.0,119.0
402,260.506353175,260.7645766354167,80.0,119.0
403,261.29582617500006,261.50635230833336,80.0,117.0
404,261.690562675,261.98003610833337,80.0,114.0
405,262.08529917500005,262.3451673708334,77.0,116.0
406,262.48003567500007,262.6790486604167,80.0,114.0
407,262.87477217500003,263.1741140208334,82.0,117.0
408,264.45371817500006,264.96852036041673,75.0,114.0
409,265.24319117500005,265.53924355000004,80.0,117.0
410,265.637927675,265.8583222208334,79.0,106.0
411,266.03266417500004,268.9602932166667,82.0,117.0
