,start,end,pitch,velocity
0,6.6891389395833345,7.172691152083335,72.0,88.0
1,6.287823497916667,7.606901302083334,63.0,89.0
2,7.861835291666668,8.238479702083335,72.0,100.0
3,7.884861587500001,8.434203216666669,63.0,100.0
4,5.901310675000001,8.901308075000001,44.0,87.0
5,5.901310675000001,9.02466323125,56.0,89.0
6,9.845386204166669,10.328938416666668,70.0,88.0
7,9.4440707625,10.763148566666668,63.0,89.0
8,11.018082556250002,11.394726966666669,70.0,100.0
9,11.042753587500002,11.592095216666669,63.0,100.0
10,9.057557939583335,12.317423535416669,56.0,89.0
11,9.057557939583335,12.342094566666669,44.0,87.0
12,12.608541704166669,13.57564612916667,68.0,91.0
13,13.00327820416667,13.621698720833335,73.0,88.0
14,12.217094675000002,14.707224095833336,53.0,87.0
15,12.217094675000002,14.743408275000002,41.0,84.0
16,14.197356116666668,14.763145100000003,73.0,86.0
17,14.187487704166669,14.81906610416667,68.0,86.0
18,15.374986675000002,15.496697095833335,66.0,86.0
19,15.374986675000002,15.498341831250002,69.0,81.0
20,15.374986675000002,15.513144450000002,61.0,80.0
21,15.769723175000003,16.241762239583334,66.0,81.0
22,15.769723175000003,16.251630652083335,69.0,78.0
23,15.769723175000003,16.25492012291667,61.0,75.0
24,18.532878675000003,21.27300787916667,44.0,82.0
25,18.927615175000003,21.27300787916667,51.0,76.0
26,19.322351675000004,21.31741573541667,56.0,76.0
27,19.717088175000004,21.442415627083335,68.0,82.0
28,19.717088175000004,21.447349833333337,60.0,82.0
29,22.480243675000004,22.93583538541667,67.0,73.0
30,22.085507175000004,24.537807681250005,63.0,75.0
31,21.690770675000003,24.636491806250003,55.0,81.0
32,22.874980175000005,24.63813654166667,70.0,84.0
33,26.032872175000005,26.970371362500003,72.0,88.0
34,25.243399175000004,27.39306836458334,60.0,76.0
35,24.848662675000003,27.452278839583336,53.0,88.0
36,27.217081675000003,27.993396791666672,68.0,83.0
37,25.638135675000004,28.03287044166667,65.0,87.0
38,28.796027675000005,30.677604991666673,63.0,84.0
39,28.401291175000004,30.741749672916672,58.0,79.0
40,28.006554675000004,30.787802264583338,51.0,89.0
41,29.190764175000005,30.939117922916672,70.0,87.0
42,29.190764175000005,30.976946837500005,67.0,88.0
43,31.953919675000005,33.82069437291667,61.0,85.0
44,31.559183175000005,33.87003643541667,56.0,79.0
45,31.164446675000004,33.96378635416667,49.0,88.0
46,32.348656175,34.30918079166667,68.0,91.0
47,32.348656175,34.32727288125,65.0,89.0
48,34.322338675000005,37.092073116666676,48.0,87.0
49,35.111811675000006,37.09371785208334,60.0,77.0
50,34.717075175000005,37.129902031250005,55.0,74.0
51,35.506548175000006,37.23187562708334,67.0,83.0
52,35.506548175000006,37.24009930416667,63.0,82.0
53,35.506548175000006,37.249967716666674,70.0,81.0
54,38.269703675,38.75654535833334,72.0,79.0
55,37.48023067500001,40.22529408541667,53.0,84.0
56,37.87496717500001,40.240096704166675,60.0,80.0
57,38.664440175,40.53121487291667,68.0,83.0
58,38.269703675,40.541083285416676,65.0,84.0
59,40.638122675000005,40.71871471041667,67.0,86.0
60,40.638122675000005,40.723648916666676,70.0,86.0
61,40.638122675000005,40.74009627083334,63.0,87.0
62,40.638122675000005,40.77299097916667,51.0,92.0
63,41.032859175000006,41.248319514583336,67.0,89.0
64,41.032859175000006,41.251608985416674,51.0,90.0
65,41.032859175000006,41.25818792708334,70.0,91.0
66,41.032859175000006,41.2598326625,63.0,89.0
67,43.79601467500001,46.491736022916676,44.0,94.0
68,44.19075117500001,46.50818337708334,51.0,78.0
69,44.58548767500001,46.51640705416667,56.0,79.0
70,44.980224175000004,46.65127535833334,60.0,86.0
71,44.980224175000004,46.69074900833334,68.0,87.0
72,47.74337967500001,49.87495677500001,55.0,73.0
73,47.34864317500001,49.886469922916675,51.0,71.0
74,46.953906675000006,49.92429883750001,43.0,80.0
75,48.92758917500001,49.93087777916667,63.0,72.0
76,48.13811617500001,49.950614604166674,67.0,84.0
77,50.90127167500001,51.39304756458334,63.0,87.0
78,50.50653517500001,52.66936224791667,60.0,78.0
79,50.11179867500001,52.68087539583334,53.0,87.0
80,50.90127167500001,52.94896726875001,68.0,88.0
81,51.296008175000004,52.96048041666668,65.0,86.0
82,54.05916367500001,55.80916215833334,63.0,76.0
83,54.45390017500001,55.81574110000001,70.0,84.0
84,53.66442717500001,56.01146461458334,58.0,77.0
85,53.26969067500001,56.046004058333345,51.0,88.0
86,56.03284617500001,56.296003841666675,63.0,83.0
87,56.03284617500001,56.40455637916668,70.0,85.0
88,56.42758267500001,57.37495027500001,68.0,84.0
89,56.42758267500001,59.225277618750006,49.0,84.0
90,57.21705567500001,59.26475126875001,56.0,70.0
91,57.61179217500001,59.26968547500001,68.0,80.0
92,57.61179217500001,59.33218542083334,65.0,74.0
93,56.42758267500001,59.36508012916668,61.0,81.0
94,60.37494767500001,61.424288870833344,58.0,70.0
95,60.76968417500001,61.666064977083344,70.0,86.0
96,60.76968417500001,61.70553862708334,63.0,86.0
97,59.58547467500001,62.29435390625001,48.0,82.0
98,59.98021117500001,62.35520911666668,55.0,75.0
99,61.55915717500001,62.53941948333334,58.0,76.0
100,61.95389367500001,62.78448506041668,70.0,89.0
101,61.95389367500001,62.794353472916676,63.0,88.0
102,63.53283967500001,64.39632576875,61.0,82.0
103,63.92757617500001,64.76639123750002,63.0,89.0
104,63.92757617500001,64.77132544375002,68.0,92.0
105,62.54599842500001,65.42264066875,49.0,90.0
106,64.71704917500001,65.53283794166667,61.0,80.0
107,65.11178567500001,65.545995825,65.0,89.0
108,63.13810317500001,65.58875894583335,56.0,72.0
109,65.11178567500001,65.62494312500002,73.0,88.0
110,65.90125867500001,66.35356091458334,67.0,93.0
111,65.90125867500001,66.35520565000002,70.0,91.0
112,65.90125867500001,66.38645562291667,63.0,88.0
113,66.29599517500002,66.85356048125001,58.0,81.0
114,66.69073167500001,67.09698132291668,67.0,95.0
115,66.69073167500001,67.12658656041668,70.0,91.0
116,66.69073167500001,67.13645497291668,63.0,90.0
117,67.08546817500002,67.79105966875001,58.0,70.0
118,67.48020467500001,67.94566479791668,70.0,102.0
119,67.48020467500001,67.97362530000001,67.0,103.0
120,67.48020467500001,67.98513844791668,63.0,93.0
121,68.26967767500001,68.60191422916668,58.0,80.0
122,65.90125867500001,68.67099311666668,51.0,87.0
123,68.26967767500001,68.79928247916668,67.0,116.0
124,68.26967767500001,68.80421668541668,63.0,102.0
125,68.26967767500001,68.81572983333335,70.0,108.0
126,69.05915067500001,69.38480828750001,68.0,102.0
127,69.05915067500001,69.39961090625,72.0,98.0
128,69.05915067500001,69.66441330833334,63.0,88.0
129,69.84862367500001,70.38151795000002,68.0,91.0
130,69.84862367500001,70.42263633541668,63.0,94.0
131,69.84862367500001,70.42921527708334,60.0,90.0
132,69.84862367500001,70.75980709583334,56.0,84.0
133,70.63809667500001,71.10355679791668,68.0,91.0
134,70.63809667500001,71.11506994583334,63.0,96.0
135,70.63809667500001,71.11835941666668,60.0,91.0
136,71.03283317500001,71.45881964791668,56.0,82.0
137,71.42756967500002,71.74335887500001,60.0,98.0
138,71.42756967500002,71.79599040833334,63.0,113.0
139,71.42756967500002,71.83052985208334,68.0,96.0
140,69.05915067500001,71.83546405833334,44.0,89.0
141,69.453887175,71.88645085625001,51.0,73.0
142,71.82230617500001,72.19895058541668,56.0,83.0
143,72.21704267500002,72.71868697708335,70.0,93.0
144,72.21704267500002,72.76802903958334,67.0,103.0
145,72.21704267500002,72.77954218750001,63.0,89.0
146,73.00651567500002,73.61506777916668,70.0,96.0
147,73.00651567500002,73.61835725000002,67.0,103.0
148,73.00651567500002,73.63151513333334,63.0,91.0
149,72.61177917500001,73.97197536458334,55.0,77.0
150,73.79598867500002,74.25322512083335,67.0,103.0
151,73.79598867500002,74.25815932708335,70.0,90.0
152,73.79598867500002,74.27789615208334,63.0,91.0
153,74.19072517500001,74.62329058958335,55.0,81.0
154,74.585461675,74.93414558333335,67.0,113.0
155,74.585461675,74.93907978958335,70.0,98.0
156,74.585461675,74.97361923333334,63.0,102.0
157,72.21704267500002,75.10684280208335,43.0,87.0
158,74.98019817500001,75.24006637083335,55.0,83.0
159,75.374934675,75.90125000833335,68.0,91.0
160,75.374934675,75.95388154166668,65.0,102.0
161,75.374934675,75.96374995416667,63.0,98.0
162,75.374934675,75.99828939791668,60.0,93.0
163,76.164407675,76.69565721458335,68.0,87.0
164,76.164407675,76.73184139375002,63.0,87.0
165,76.164407675,76.74170980625001,65.0,86.0
166,76.164407675,76.78118345625,60.0,84.0
167,76.95388067500001,77.48841968541667,63.0,88.0
168,76.95388067500001,77.49006442083335,68.0,87.0
169,76.95388067500001,77.49499862708335,65.0,86.0
170,76.95388067500001,77.51144598125,60.0,87.0
171,77.74335367500001,78.17427435416668,60.0,88.0
172,77.74335367500001,78.19236644375002,63.0,88.0
173,77.74335367500001,78.19730065000002,65.0,88.0
174,77.74335367500001,78.28940583333335,68.0,88.0
175,75.374934675,78.41605046041668,53.0,88.0
176,78.53282667500001,78.96703682500001,70.0,90.0
177,78.53282667500001,79.02460256458335,67.0,87.0
178,78.53282667500001,79.04433938958334,63.0,87.0
179,78.92756317500002,79.52131266041668,58.0,71.0
180,79.32229967500001,79.78611506250002,70.0,89.0
181,79.32229967500001,79.81736503541669,67.0,86.0
182,79.32229967500001,79.84203606666668,63.0,87.0
183,79.71703617500002,80.28940410000001,58.0,78.0
184,80.11177267500001,80.54762756041669,70.0,89.0
185,80.11177267500001,80.60025909375001,67.0,100.0
186,80.11177267500001,80.62164065416668,63.0,88.0
187,80.50650917500002,81.00650874166668,58.0,80.0
188,80.90124567500001,81.35354791458334,63.0,98.0
189,80.90124567500001,81.38973209375001,70.0,100.0
190,78.53282667500001,81.44729783333335,51.0,88.0
191,81.295982175,81.47690307083334,58.0,86.0
192,80.90124567500001,81.58545560833335,67.0,113.0
193,81.69071867500001,82.22196821458334,68.0,91.0
194,81.69071867500001,82.22854715625002,65.0,96.0
195,81.69071867500001,82.25979712916669,61.0,88.0
196,82.085455175,82.58709947708334,56.0,73.0
197,82.48019167500001,82.93084917916669,68.0,88.0
198,82.48019167500001,83.00650700833334,65.0,91.0
199,82.48019167500001,83.01637542083334,61.0,87.0
200,82.87492817500001,83.41275665625001,56.0,80.0
201,83.26966467500002,83.71538797291667,68.0,90.0
202,83.26966467500002,83.75815109375002,61.0,89.0
203,83.26966467500002,83.78117738958335,65.0,93.0
204,83.66440117500001,84.14630865208335,56.0,82.0
205,84.05913767500002,84.55749250625001,61.0,96.0
206,81.69071867500001,84.56900565416667,49.0,90.0
207,84.45387417500001,84.60683456875002,56.0,81.0
208,84.05913767500002,84.63643980625001,68.0,98.0
209,84.05913767500002,84.7104529,65.0,110.0
210,84.84861067500002,85.35683391875001,70.0,91.0
211,84.84861067500002,85.41439965833335,63.0,88.0
212,84.84861067500002,85.41933386458335,67.0,88.0
213,85.63808367500002,86.10847800416668,70.0,90.0
214,85.63808367500002,86.20716212916668,63.0,89.0
215,85.63808367500002,86.20716212916668,67.0,97.0
216,86.03282017500001,86.51801712291667,60.0,80.0
217,86.42755667500002,86.86012208958334,70.0,89.0
218,86.42755667500002,86.90288521041668,67.0,91.0
219,86.42755667500002,86.92262203541668,63.0,89.0
220,86.82229317500001,87.22360861666668,60.0,83.0
221,87.217029675,87.65123982500002,67.0,106.0
222,87.217029675,87.66110823750002,70.0,91.0
223,84.84861067500002,87.68084506250001,48.0,88.0
224,87.217029675,87.68577926875001,63.0,91.0
225,85.24334717500001,87.75979236250001,55.0,78.0
226,87.61176617500001,87.88150278333335,60.0,79.0
227,88.00650267500001,88.57064692291668,72.0,90.0
228,88.00650267500001,88.66604157708335,68.0,93.0
229,88.00650267500001,88.67262051875001,65.0,87.0
230,88.79597567500001,89.29433050625002,72.0,89.0
231,88.79597567500001,89.38479095416668,65.0,87.0
232,88.79597567500001,89.40781725000001,68.0,91.0
233,89.58544867500001,90.03610617916668,72.0,92.0
234,89.58544867500001,90.14630345208334,65.0,91.0
235,89.58544867500001,90.14630345208334,68.0,100.0
236,88.00650267500001,90.69400034583335,53.0,84.0
237,90.37492167500001,90.81242129583335,65.0,92.0
238,90.37492167500001,90.86998703541668,72.0,92.0
239,90.37492167500001,90.98182904375001,68.0,102.0
240,91.16439467500001,91.97031502916668,70.0,98.0
241,91.16439467500001,91.99498606041668,63.0,92.0
242,91.16439467500001,91.99827553125002,67.0,100.0
243,91.95386767500001,92.54432768958334,58.0,88.0
244,92.34860417500002,93.22031394583335,70.0,110.0
245,92.34860417500002,93.24005077083335,63.0,102.0
246,92.34860417500002,93.24005077083335,67.0,113.0
247,93.13807717500002,93.63972147708334,58.0,107.0
248,91.16439467500001,94.00978694583334,51.0,90.0
249,93.92755017500001,94.04432638958335,58.0,85.0
250,93.53281367500001,94.09366845208335,67.0,113.0
251,93.53281367500001,94.10518160000001,70.0,113.0
252,93.53281367500001,94.13314210208335,63.0,100.0
253,94.32228667500002,94.85518095000002,72.0,102.0
254,94.32228667500002,94.98511504791668,68.0,108.0
255,94.91439142500002,94.99662819583335,65.0,70.0
256,94.32228667500002,95.22853588958334,63.0,96.0
257,95.11175967500002,95.83873272916668,56.0,87.0
258,95.50649617500001,96.36175859166669,68.0,100.0
259,95.50649617500001,96.41274538958335,60.0,93.0
260,95.50649617500001,96.41932433125001,63.0,110.0
261,96.29596917500001,96.73511353125001,56.0,88.0
262,96.69070567500002,96.99004752083334,60.0,100.0
263,96.69070567500002,97.04761326041668,63.0,110.0
264,94.32228667500002,97.05748167291668,44.0,87.0
265,96.69070567500002,97.06899482083335,68.0,98.0
266,94.71702317500001,97.13807370833335,51.0,79.0
267,97.08544217500001,97.43083661250002,56.0,86.0
268,97.48017867500002,98.39136209583334,70.0,100.0
269,97.48017867500002,98.46044098333334,63.0,93.0
270,97.48017867500002,98.46701992500002,67.0,106.0
271,98.26965167500002,98.91274322291669,60.0,84.0
272,98.66438817500001,99.52458479791669,67.0,109.0
273,98.66438817500001,99.55419003541668,70.0,89.0
274,98.66438817500001,99.57063738958335,63.0,91.0
275,99.45386117500001,99.89629500208335,60.0,92.0
276,97.48017867500002,100.26471573541669,43.0,88.0
277,99.84859767500002,100.28774203125002,67.0,119.0
278,99.84859767500002,100.31241306250001,70.0,102.0
279,99.84859767500002,100.34859724166668,63.0,100.0
280,97.87491517500001,100.37984721458335,55.0,79.0
281,100.24333417500002,100.64136014583335,60.0,91.0
282,100.63807067500001,100.77787318541668,70.0,91.0
283,100.63807067500001,101.57063565625002,72.0,91.0
284,100.63807067500001,101.60681983541669,68.0,102.0
285,100.63807067500001,101.71537237291668,65.0,96.0
286,101.42754367500001,102.32392447708335,60.0,83.0
287,101.82228017500002,102.61833211666668,68.0,110.0
288,101.82228017500002,102.67589785625002,72.0,108.0
289,101.82228017500002,102.70714782916669,65.0,93.0
290,102.61175317500002,103.12655536041669,60.0,88.0
291,103.00648967500001,103.50319977083335,72.0,107.0
292,103.00648967500001,103.55747603958335,68.0,108.0
293,100.63807067500001,103.56898918750001,53.0,88.0
294,103.40122617500002,103.60023916041668,60.0,81.0
295,103.00648967500001,103.68741013750001,65.0,108.0
296,103.79596267500001,104.73510659791668,70.0,104.0
297,103.79596267500001,104.77293551250001,63.0,93.0
298,103.79596267500001,104.78609339583335,67.0,106.0
299,104.98017217500002,105.15286939375001,68.0,88.0
300,104.19069917500002,105.49332962500002,58.0,81.0
301,104.98017217500002,105.87490824166669,67.0,116.0
302,104.98017217500002,105.88313191875001,63.0,107.0
303,104.98017217500002,105.88477665416669,70.0,93.0
304,105.76964517500002,106.29924997916669,58.0,91.0
305,103.79596267500001,106.31240786250001,51.0,92.0
306,106.16438167500002,106.69069700833334,63.0,100.0
307,106.16438167500002,106.73839433541669,70.0,104.0
308,106.16438167500002,106.77786798541668,67.0,113.0
309,106.55911817500002,106.77951272083335,51.0,88.0
310,106.95385467500002,107.44563056458335,68.0,100.0
311,106.95385467500002,107.49168315625002,65.0,104.0
312,106.95385467500002,107.52457786458335,61.0,93.0
313,107.34859117500001,107.99497219375002,56.0,70.0
314,107.74332767500002,108.33543242500002,68.0,102.0
315,107.74332767500002,108.35187977916668,65.0,98.0
316,107.74332767500002,108.35516925000002,61.0,92.0
317,108.13806417500001,108.67260318541668,56.0,81.0
318,108.53280067500002,109.12326068958335,68.0,92.0
319,108.53280067500002,109.13806330833334,65.0,107.0
320,108.53280067500002,109.14135277916668,61.0,92.0
321,109.12490542500002,109.50648404166668,56.0,92.0
322,106.95385467500002,109.52457613125002,49.0,98.0
323,109.32227367500002,109.81733903541668,61.0,107.0
324,109.32227367500002,109.82227324166668,68.0,113.0
325,109.71701017500001,109.90944421875001,49.0,91.0
326,109.32227367500002,109.93247051458334,65.0,114.0
327,110.11174667500002,110.98839065208335,70.0,96.0
328,110.11174667500002,111.05418006875001,63.0,91.0
329,110.11174667500002,111.05418006875001,67.0,95.0
330,110.90121967500002,111.60352169791669,60.0,83.0
331,111.29595617500001,112.21536327291669,70.0,107.0
332,111.29595617500001,112.24990271666668,67.0,116.0
333,111.29595617500001,112.27950795416669,63.0,96.0
334,112.08542917500002,112.46371832083335,60.0,84.0
335,112.48016567500002,112.89299426458335,67.0,109.0
336,110.11174667500002,112.89957320625001,48.0,94.0
337,112.48016567500002,112.90779688333335,70.0,102.0
338,112.48016567500002,112.92424423750002,63.0,98.0
339,110.50648317500001,112.99661259583335,55.0,79.0
340,112.87490217500002,113.11338881041668,60.0,81.0
341,113.66437517500002,114.33049301875002,60.0,87.0
342,114.05911167500001,114.64792695416668,72.0,107.0
343,114.05911167500001,114.70055848750002,68.0,114.0
344,114.05911167500001,114.71536110625001,65.0,102.0
345,114.45384817500002,114.99990033333336,60.0,87.0
346,114.84858467500001,115.31733426875002,72.0,100.0
347,114.84858467500001,115.38312368541668,68.0,108.0
348,114.84858467500001,115.39299209791669,65.0,96.0
349,115.24332117500002,115.75483388958335,60.0,87.0
350,113.26963867500001,115.94233372708335,53.0,89.0
351,115.63805767500001,116.11338621041668,65.0,102.0
352,115.63805767500001,116.15121512500002,72.0,107.0
353,116.03279417500002,116.18410983333335,53.0,88.0
354,115.63805767500001,116.29101763541668,68.0,113.0
355,116.42753067500001,117.15285899375002,67.0,103.0
356,116.42753067500001,117.32391147708336,70.0,98.0
357,116.42753067500001,117.35187197916669,63.0,92.0
358,116.82226717500002,118.01470035208335,58.0,84.0
359,117.61174017500002,118.46042365000002,67.0,113.0
360,117.61174017500002,118.47358153333334,70.0,104.0
361,117.61174017500002,118.54430515625002,63.0,93.0
362,116.42753067500001,118.94891006875002,51.0,96.0
363,118.40121317500002,118.95548901041668,58.0,89.0
364,118.79594967500002,119.25483085625002,70.0,96.0
365,118.79594967500002,119.27621241666668,67.0,109.0
366,119.19068617500002,119.31404133125002,51.0,88.0
367,118.79594967500002,119.47522540208335,63.0,92.0
368,119.58542267500002,120.36173779166668,63.0,104.0
369,119.58542267500002,120.37160620416668,68.0,91.0
370,119.58542267500002,120.37982988125002,60.0,92.0
371,120.37489567500002,121.24660544583335,56.0,84.0
372,119.58542267500002,121.26634227083335,44.0,92.0
373,119.98015917500001,121.28278962500002,51.0,76.0
374,120.76963217500001,121.29759224375002,60.0,87.0
375,120.76963217500001,121.33706589375002,63.0,88.0
376,125.90120667500003,128.6413358791667,44.0,82.0
377,126.29594317500002,128.6413358791667,51.0,76.0
378,126.69067967500001,128.68574373541668,56.0,76.0
379,127.08541617500002,128.81074362708335,68.0,82.0
380,127.08541617500002,128.81567783333335,60.0,82.0
381,130.243308175,131.33705722708336,63.0,78.0
382,129.84857167500002,131.8321225875,55.0,67.0
383,129.45383517500002,131.85679361875003,51.0,65.0
384,129.05909867500003,131.91106988750002,43.0,78.0
385,131.42751767500002,132.17093808333334,58.0,72.0
386,133.401200175,134.33869936250002,72.0,88.0
387,132.61172717500003,134.76139636458336,60.0,76.0
388,132.21699067500003,134.82060683958335,53.0,88.0
389,134.58540967500002,135.3617247916667,68.0,83.0
390,133.00646367500002,135.40119844166668,65.0,87.0
391,136.16435567500002,138.0459329916667,63.0,84.0
392,135.76961917500003,138.11007767291667,58.0,79.0
393,135.374882675,138.15613026458337,51.0,89.0
394,136.55909217500002,138.30744592291668,70.0,87.0
395,136.55909217500002,138.34527483750003,67.0,88.0
396,139.32224767500003,141.1890223729167,61.0,85.0
397,138.92751117500003,141.23836443541668,56.0,79.0
398,138.532774675,141.3321143541667,49.0,88.0
399,139.71698417500002,141.6775087916667,68.0,91.0
400,139.71698417500002,141.69560088125002,65.0,89.0
401,141.69066667500002,144.4604011166667,48.0,87.0
402,142.48013967500003,144.46204585208335,60.0,77.0
403,142.085403175,144.49823003125002,55.0,74.0
404,142.87487617500003,144.60020362708335,67.0,83.0
405,142.87487617500003,144.6084273041667,63.0,82.0
406,142.87487617500003,144.6182957166667,70.0,81.0
407,145.63803167500004,146.12487335833336,72.0,79.0
408,144.84855867500002,147.59362208541668,53.0,84.0
409,145.24329517500001,147.60842470416668,60.0,80.0
410,146.03276817500003,147.8995428729167,68.0,83.0
411,145.63803167500004,147.9094112854167,65.0,84.0
412,148.00645067500002,148.08704271041668,67.0,86.0
413,148.00645067500002,148.09197691666668,70.0,86.0
414,148.00645067500002,148.10842427083335,63.0,87.0
415,148.00645067500002,148.1413189791667,51.0,92.0
416,148.40118717500002,148.61664751458335,67.0,89.0
417,148.40118717500002,148.6199369854167,51.0,90.0
418,148.40118717500002,148.62651592708335,70.0,91.0
419,148.40118717500002,148.62816066250002,63.0,89.0
420,151.16434267500003,153.8600640229167,44.0,94.0
421,151.55907917500002,153.87651137708335,51.0,78.0
422,151.95381567500002,153.8847350541667,56.0,79.0
423,152.348552175,154.01960335833337,60.0,86.0
424,152.348552175,154.05907700833336,68.0,87.0
425,155.506444175,156.69065367500002,63.0,86.0
426,155.11170767500002,157.04591652500002,55.0,73.0
427,154.71697117500003,157.04920599583335,51.0,64.0
428,154.32223467500003,157.12321908958336,43.0,77.0
429,156.69065367500002,157.30742945625002,58.0,71.0
430,158.26959967500002,158.76137556458335,63.0,87.0
431,157.87486317500003,160.0376902479167,60.0,78.0
432,157.48012667500004,160.04920339583336,53.0,87.0
433,158.26959967500002,160.31729526875003,68.0,88.0
434,158.66433617500002,160.3288084166667,65.0,86.0
435,161.42749167500003,163.17749015833337,63.0,76.0
436,161.82222817500002,163.18406910000002,70.0,84.0
437,161.03275517500003,163.37979261458335,58.0,77.0
438,160.638018675,163.41433205833337,51.0,88.0
439,163.40117417500002,163.6643318416667,63.0,83.0
440,163.40117417500002,163.7728843791667,70.0,85.0
441,163.79591067500002,164.74327827500002,68.0,84.0
442,163.79591067500002,166.59360561875002,49.0,84.0
443,164.58538367500003,166.63307926875004,56.0,70.0
444,164.98012017500002,166.63801347500004,68.0,80.0
445,164.98012017500002,166.70051342083335,65.0,74.0
446,163.79591067500002,166.7334081291667,61.0,81.0
447,167.74327567500004,168.79261687083337,58.0,70.0
448,168.13801217500003,169.03439297708337,70.0,86.0
449,168.13801217500003,169.07386662708336,63.0,86.0
450,166.95380267500002,169.66268190625001,48.0,82.0
451,167.348539175,169.7235371166667,55.0,75.0
452,168.92748517500002,169.90774748333337,58.0,76.0
453,169.32222167500004,170.1528130604167,70.0,89.0
454,169.32222167500004,170.1626814729167,63.0,88.0
455,170.90116767500004,171.76465376875004,61.0,82.0
456,171.29590417500003,172.13471923750004,63.0,89.0
457,171.29590417500003,172.13965344375003,68.0,92.0
458,169.914326425,172.79096866875003,49.0,90.0
459,172.08537717500002,172.9011659416667,61.0,80.0
460,172.480113675,172.91432382500003,65.0,89.0
461,170.50643117500002,172.95708694583337,56.0,72.0
462,172.480113675,172.99327112500004,73.0,88.0
463,173.26958667500003,173.72188891458336,67.0,93.0
464,173.26958667500003,173.72353365000004,70.0,91.0
465,173.26958667500003,173.7547836229167,63.0,88.0
466,173.66432317500002,174.22188848125003,58.0,81.0
467,174.05905967500001,174.46530932291668,67.0,95.0
468,174.05905967500001,174.4949145604167,70.0,91.0
469,174.05905967500001,174.5047829729167,63.0,90.0
470,174.45379617500004,175.15938766875,58.0,70.0
471,174.84853267500003,175.31399279791668,70.0,102.0
472,174.84853267500003,175.34195330000003,67.0,103.0
473,174.84853267500003,175.3534664479167,63.0,93.0
474,175.63800567500002,175.9702422291667,58.0,80.0
475,173.26958667500003,176.03932111666668,51.0,87.0
476,175.63800567500002,176.16761047916668,67.0,116.0
477,175.63800567500002,176.17254468541668,63.0,102.0
478,175.63800567500002,176.18405783333336,70.0,108.0
479,176.42747867500003,176.7531362875,68.0,102.0
480,176.42747867500003,176.76793890625004,72.0,98.0
481,176.42747867500003,177.03274130833336,63.0,88.0
482,177.21695167500002,177.74984595000004,68.0,91.0
483,177.21695167500002,177.7909643354167,63.0,94.0
484,177.21695167500002,177.79754327708335,60.0,90.0
485,177.21695167500002,178.12813509583336,56.0,84.0
486,178.00642467500003,178.4718847979167,68.0,91.0
487,178.00642467500003,178.48339794583336,63.0,96.0
488,178.00642467500003,178.48668741666668,60.0,91.0
489,178.40116117500003,178.8271476479167,56.0,82.0
490,178.79589767500002,179.11168687500003,60.0,98.0
491,178.79589767500002,179.16431840833337,63.0,113.0
492,178.79589767500002,179.19885785208336,68.0,96.0
493,176.42747867500003,179.20379205833336,44.0,89.0
494,176.82221517500003,179.25477885625003,51.0,73.0
495,179.190634175,179.5672785854167,56.0,83.0
496,179.58537067500004,180.08701497708336,70.0,93.0
497,179.58537067500004,180.13635703958337,67.0,103.0
498,179.58537067500004,180.14787018750002,63.0,89.0
499,180.37484367500002,180.9833957791667,70.0,96.0
500,180.37484367500002,180.98668525000002,67.0,103.0
501,180.37484367500002,180.99984313333337,63.0,91.0
502,179.98010717500003,181.34030336458335,55.0,77.0
503,181.16431667500004,181.62155312083337,67.0,103.0
504,181.16431667500004,181.62648732708337,70.0,90.0
505,181.16431667500004,181.64622415208336,63.0,91.0
506,181.55905317500003,181.99161858958337,55.0,81.0
507,181.95378967500002,182.30247358333335,67.0,113.0
508,181.95378967500002,182.30740778958335,70.0,98.0
509,181.95378967500002,182.34194723333337,63.0,102.0
510,179.58537067500004,182.47517080208337,43.0,87.0
511,182.34852617500002,182.60839437083337,55.0,83.0
512,182.74326267500004,183.26957800833335,68.0,91.0
513,182.74326267500004,183.3222095416667,65.0,102.0
514,182.74326267500004,183.3320779541667,63.0,98.0
515,182.74326267500004,183.36661739791668,60.0,93.0
516,183.53273567500003,184.06398521458337,68.0,87.0
517,183.53273567500003,184.10016939375004,63.0,87.0
518,183.53273567500003,184.11003780625003,65.0,86.0
519,183.53273567500003,184.14951145625002,60.0,84.0
520,184.32220867500004,184.8567476854167,63.0,88.0
521,184.32220867500004,184.85839242083335,68.0,87.0
522,184.32220867500004,184.86332662708335,65.0,86.0
523,184.32220867500004,184.87977398125003,60.0,87.0
524,185.11168167500003,185.5426023541667,60.0,88.0
525,185.11168167500003,185.56069444375004,63.0,88.0
526,185.11168167500003,185.56562865000004,65.0,88.0
527,185.11168167500003,185.65773383333337,68.0,88.0
528,182.74326267500004,185.7843784604167,53.0,88.0
529,185.90115467500002,186.33536482500003,70.0,90.0
530,185.90115467500002,186.39293056458337,67.0,87.0
531,185.90115467500002,186.41266738958336,63.0,87.0
532,186.29589117500004,186.8896406604167,58.0,71.0
533,186.69062767500003,187.15444306250004,70.0,89.0
534,186.69062767500003,187.1856930354167,67.0,86.0
535,186.69062767500003,187.2103640666667,63.0,87.0
536,187.08536417500002,187.65773210000003,58.0,78.0
537,187.48010067500002,187.9159555604167,70.0,89.0
538,187.48010067500002,187.96858709375002,67.0,100.0
539,187.48010067500002,187.9899686541667,63.0,88.0
540,187.87483717500004,188.37483674166668,58.0,80.0
541,188.26957367500003,188.72187591458336,63.0,98.0
542,188.26957367500003,188.75806009375003,70.0,100.0
543,185.90115467500002,188.81562583333337,51.0,88.0
544,188.66431017500003,188.84523107083336,58.0,86.0
545,188.26957367500003,188.95378360833337,67.0,113.0
546,189.05904667500002,189.59029621458336,68.0,91.0
547,189.05904667500002,189.59687515625004,65.0,96.0
548,189.05904667500002,189.6281251291667,61.0,88.0
549,189.45378317500004,189.95542747708336,56.0,73.0
550,189.84851967500003,190.2991771791667,68.0,88.0
551,189.84851967500003,190.37483500833335,65.0,91.0
552,189.84851967500003,190.38470342083338,61.0,87.0
553,190.24325617500003,190.78108465625002,56.0,80.0
554,190.63799267500002,191.0837159729167,68.0,90.0
555,190.63799267500002,191.12647909375002,61.0,89.0
556,190.63799267500002,191.14950538958337,65.0,93.0
557,191.03272917500004,191.51463665208337,56.0,82.0
558,191.42746567500004,191.92582050625003,61.0,96.0
559,189.05904667500002,191.9373336541667,49.0,90.0
560,191.82220217500003,191.97516256875002,56.0,81.0
561,191.42746567500004,192.00476780625002,68.0,98.0
562,191.42746567500004,192.07878090000003,65.0,110.0
563,192.21693867500002,192.72516191875002,70.0,91.0
564,192.21693867500002,192.78272765833336,63.0,88.0
565,192.21693867500002,192.78766186458336,67.0,88.0
566,193.00641167500004,193.4768060041667,70.0,90.0
567,193.00641167500004,193.5754901291667,63.0,89.0
568,193.00641167500004,193.5754901291667,67.0,97.0
569,193.40114817500003,193.8863451229167,60.0,80.0
570,193.79588467500002,194.22845008958336,70.0,89.0
571,193.79588467500002,194.2712132104167,67.0,91.0
572,193.79588467500002,194.2909500354167,63.0,89.0
573,194.19062117500002,194.5919366166667,60.0,83.0
574,194.58535767500004,195.01956782500002,67.0,106.0
575,194.58535767500004,195.02943623750002,70.0,91.0
576,192.21693867500002,195.04917306250002,48.0,88.0
577,194.58535767500004,195.05410726875002,63.0,91.0
578,192.61167517500002,195.12812036250003,55.0,78.0
579,194.98009417500003,195.24983078333335,60.0,79.0
580,195.37483067500003,195.93897492291669,72.0,90.0
581,195.37483067500003,196.03436957708337,68.0,93.0
582,195.37483067500003,196.04094851875004,65.0,87.0
583,196.16430367500004,196.66265850625004,72.0,89.0
584,196.16430367500004,196.7531189541667,65.0,87.0
585,196.16430367500004,196.77614525000004,68.0,91.0
586,196.95377667500003,197.40443417916669,72.0,92.0
587,196.95377667500003,197.51463145208336,65.0,91.0
588,196.95377667500003,197.51463145208336,68.0,100.0
589,195.37483067500003,198.06232834583335,53.0,84.0
590,197.74324967500004,198.18074929583335,65.0,92.0
591,197.74324967500004,198.2383150354167,72.0,92.0
592,197.74324967500004,198.35015704375002,68.0,102.0
593,198.53272267500003,199.3386430291667,70.0,98.0
594,198.53272267500003,199.36331406041668,63.0,92.0
595,198.53272267500003,199.36660353125004,67.0,100.0
596,199.32219567500002,199.91265568958337,58.0,88.0
597,199.71693217500004,200.58864194583336,70.0,110.0
598,199.71693217500004,200.60837877083335,63.0,102.0
599,199.71693217500004,200.60837877083335,67.0,113.0
600,200.50640517500003,201.00804947708338,58.0,107.0
601,198.53272267500003,201.37811494583337,51.0,90.0
602,201.29587817500004,201.41265438958337,58.0,85.0
603,200.90114167500002,201.46199645208335,67.0,113.0
604,200.90114167500002,201.47350960000003,70.0,113.0
605,200.90114167500002,201.50147010208337,63.0,100.0
606,201.69061467500003,202.22350895000002,72.0,102.0
607,201.69061467500003,202.3534430479167,68.0,108.0
608,202.28271942500004,202.36495619583337,65.0,70.0
609,201.69061467500003,202.59686388958337,63.0,96.0
610,202.48008767500002,203.2070607291667,56.0,87.0
611,202.87482417500004,203.7300865916667,68.0,100.0
612,202.87482417500004,203.78107338958336,60.0,93.0
613,202.87482417500004,203.78765233125003,63.0,110.0
614,203.66429717500003,204.10344153125004,56.0,88.0
615,204.05903367500002,204.35837552083336,60.0,100.0
616,204.05903367500002,204.4159412604167,63.0,110.0
617,201.69061467500003,204.4258096729167,44.0,87.0
618,204.05903367500002,204.43732282083337,68.0,98.0
619,202.08535117500003,204.50640170833336,51.0,79.0
620,204.45377017500002,204.79916461250002,56.0,86.0
621,204.84850667500004,205.75969009583338,70.0,100.0
622,204.84850667500004,205.82876898333336,63.0,93.0
623,204.84850667500004,205.83534792500004,67.0,106.0
624,205.63797967500003,206.2810712229167,60.0,84.0
625,206.03271617500002,206.8929127979167,67.0,109.0
626,206.03271617500002,206.9225180354167,70.0,89.0
627,206.03271617500002,206.93896538958336,63.0,91.0
628,206.82218917500003,207.26462300208337,60.0,92.0
629,204.84850667500004,207.6330437354167,43.0,88.0
630,207.21692567500003,207.65607003125004,67.0,119.0
631,207.21692567500003,207.68074106250003,70.0,102.0
632,207.21692567500003,207.7169252416667,63.0,100.0
633,205.24324317500003,207.74817521458337,55.0,79.0
634,207.61166217500002,208.00968814583337,60.0,91.0
635,208.00639867500004,208.1462011854167,70.0,91.0
636,208.00639867500004,208.93896365625002,72.0,91.0
637,208.00639867500004,208.9751478354167,68.0,102.0
638,208.00639867500004,209.0837003729167,65.0,96.0
639,208.79587167500003,209.69225247708337,60.0,83.0
640,209.19060817500002,209.9866601166667,68.0,110.0
641,209.19060817500002,210.04422585625002,72.0,108.0
642,209.19060817500002,210.0754758291667,65.0,93.0
643,209.98008117500004,210.4948833604167,60.0,88.0
644,210.37481767500003,210.87152777083335,72.0,107.0
645,210.37481767500003,210.92580403958337,68.0,108.0
646,208.00639867500004,210.93731718750004,53.0,88.0
647,210.76955417500002,210.9685671604167,60.0,81.0
648,210.37481767500003,211.05573813750004,65.0,108.0
649,211.16429067500002,212.1034345979167,70.0,104.0
650,211.16429067500002,212.14126351250002,63.0,93.0
651,211.16429067500002,212.15442139583337,67.0,106.0
652,212.34850017500003,212.52119739375004,68.0,88.0
653,211.55902717500004,212.86165762500002,58.0,81.0
654,212.34850017500003,213.2432362416667,67.0,116.0
655,212.34850017500003,213.25145991875004,63.0,107.0
656,212.34850017500003,213.2531046541667,70.0,93.0
657,213.13797317500004,213.6675779791667,58.0,91.0
658,211.16429067500002,213.68073586250003,51.0,92.0
659,213.53270967500004,214.05902500833338,63.0,100.0
660,213.53270967500004,214.1067223354167,70.0,104.0
661,213.53270967500004,214.1461959854167,67.0,113.0
662,213.92744617500003,214.14784072083336,51.0,88.0
663,214.32218267500002,214.81395856458337,68.0,100.0
664,214.32218267500002,214.86001115625004,65.0,104.0
665,214.32218267500002,214.89290586458335,61.0,93.0
666,214.71691917500004,215.36330019375004,56.0,70.0
667,215.11165567500004,215.70376042500004,68.0,102.0
668,215.11165567500004,215.72020777916669,65.0,98.0
669,215.11165567500004,215.72349725000004,61.0,92.0
670,215.50639217500003,216.0409311854167,56.0,81.0
671,215.90112867500002,216.49158868958335,68.0,92.0
672,215.90112867500002,216.50639130833338,65.0,107.0
673,215.90112867500002,216.5096807791667,61.0,92.0
674,216.49323342500003,216.8748120416667,56.0,92.0
675,214.32218267500002,216.89290413125002,49.0,98.0
676,216.69060167500004,217.1856670354167,61.0,107.0
677,216.69060167500004,217.1906012416667,68.0,113.0
678,217.08533817500003,217.27777221875004,49.0,91.0
679,216.69060167500004,217.30079851458336,65.0,114.0
680,217.48007467500003,218.35671865208337,70.0,96.0
681,217.48007467500003,218.42250806875003,63.0,91.0
682,217.48007467500003,218.42250806875003,67.0,95.0
683,218.26954767500004,218.9718496979167,60.0,83.0
684,218.66428417500003,219.5836912729167,70.0,107.0
685,218.66428417500003,219.6182307166667,67.0,116.0
686,218.66428417500003,219.6478359541667,63.0,96.0
687,219.45375717500002,219.83204632083337,60.0,84.0
688,219.84849367500004,220.26132226458336,67.0,109.0
689,217.48007467500003,220.26790120625003,48.0,94.0
690,219.84849367500004,220.27612488333335,70.0,102.0
691,219.84849367500004,220.29257223750002,63.0,98.0
692,217.87481117500002,220.36494059583336,55.0,79.0
693,220.24323017500004,220.4817168104167,60.0,81.0
694,221.03270317500002,221.69882101875004,60.0,87.0
695,221.42743967500004,222.0162549541667,72.0,107.0
696,221.42743967500004,222.06888648750004,68.0,114.0
697,221.42743967500004,222.08368910625003,65.0,102.0
698,221.82217617500004,222.36822833333338,60.0,87.0
699,222.21691267500003,222.68566226875004,72.0,100.0
700,222.21691267500003,222.7514516854167,68.0,108.0
701,222.21691267500003,222.7613200979167,65.0,96.0
702,222.61164917500003,223.12316188958337,60.0,87.0
703,220.63796667500003,223.31066172708336,53.0,89.0
704,223.00638567500005,223.4817142104167,65.0,102.0
705,223.00638567500005,223.51954312500004,72.0,107.0
706,223.40112217500004,223.55243783333336,53.0,88.0
707,223.00638567500005,223.6593456354167,68.0,113.0
708,223.79585867500003,224.52118699375004,67.0,103.0
709,223.79585867500003,224.69223947708338,70.0,98.0
710,223.79585867500003,224.7201999791667,63.0,92.0
711,224.19059517500003,225.38302835208336,58.0,84.0
712,224.98006817500004,225.82875165000004,67.0,113.0
713,224.98006817500004,225.84190953333336,70.0,104.0
714,224.98006817500004,225.91263315625002,63.0,93.0
715,223.79585867500003,226.31723806875004,51.0,96.0
716,225.76954117500003,226.3238170104167,58.0,89.0
717,226.16427767500002,226.62315885625003,70.0,96.0
718,226.16427767500002,226.6445404166667,67.0,109.0
719,226.55901417500004,226.68236933125004,51.0,88.0
720,226.16427767500002,226.84355340208336,63.0,92.0
721,226.95375067500004,227.84519727083338,72.0,91.0
722,226.95375067500004,227.90440774583337,68.0,93.0
723,226.95375067500004,227.93072351250004,63.0,90.0
724,227.74322367500002,228.35506525000002,56.0,77.0
725,228.13796017500005,228.98993312083337,72.0,88.0
726,228.13796017500005,229.01460415208336,68.0,89.0
727,228.13796017500005,229.0277620354167,63.0,88.0
728,228.92743317500003,229.38960382708336,56.0,78.0
729,229.32216967500003,229.8024324166667,72.0,87.0
730,229.32216967500003,229.8715113041667,68.0,87.0
731,229.32216967500003,229.87809024583336,63.0,84.0
732,229.71690617500005,230.2267741541667,56.0,70.0
733,230.11164267500004,230.59026068125004,72.0,85.0
734,230.11164267500004,230.64289221458336,68.0,81.0
735,230.11164267500004,230.65769483333338,63.0,81.0
736,230.50637917500003,230.94387879583337,56.0,75.0
737,226.95375067500004,231.32545741250004,44.0,84.0
738,227.34848717500003,231.33861529583336,51.0,72.0
739,230.90111567500003,231.42414153750005,72.0,90.0
740,230.90111567500003,231.44223362708337,63.0,89.0
741,230.90111567500003,231.60177296250004,68.0,94.0
742,231.29585217500002,231.73006232500003,56.0,80.0
743,231.69058867500004,232.54914056250004,67.0,93.0
744,231.69058867500004,232.69716675000004,70.0,89.0
745,231.69058867500004,232.73170619375003,63.0,88.0
746,232.48006167500003,233.1922321104167,58.0,77.0
747,232.87479817500002,233.77282371250004,70.0,89.0
748,232.87479817500002,233.8484815416667,67.0,90.0
749,232.87479817500002,233.90933675208336,63.0,89.0
750,233.66427117500004,234.11821815000005,58.0,76.0
751,231.69058867500004,234.51295465000004,51.0,82.0
752,234.05900767500003,234.65933610208336,63.0,90.0
753,234.05900767500003,234.72512551875005,67.0,91.0
754,234.05900767500003,234.76459916875004,70.0,91.0
755,234.45374417500003,234.9241385041667,58.0,78.0
756,234.84848067500005,235.6692036479167,72.0,88.0
757,234.84848067500005,235.86821663333336,65.0,89.0
758,234.84848067500005,235.92249290208338,68.0,90.0
759,235.44058542500002,236.28268995833338,60.0,67.0
760,236.03269017500003,236.92413677083337,72.0,91.0
761,236.03269017500003,237.0211761604167,65.0,90.0
762,236.03269017500003,237.07380769375004,68.0,96.0
763,236.82216317500004,237.71854397708336,60.0,83.0
764,234.84848067500005,237.77775445208337,53.0,79.0
765,237.21689967500004,237.78433339375005,65.0,92.0
766,237.21689967500004,237.7958465416667,72.0,91.0
767,237.21689967500004,237.92249116875004,68.0,100.0
768,238.00637267500002,240.7761071166667,67.0,93.0
769,238.00637267500002,240.79748867708338,63.0,90.0
770,238.00637267500002,240.8057123541667,70.0,91.0
771,238.00637267500002,240.8501202104167,51.0,77.0
772,241.16426467500003,241.69715895000004,72.0,102.0
773,241.16426467500003,241.8270930479167,68.0,108.0
774,241.75636942500003,241.83860619583336,65.0,70.0
775,241.16426467500003,242.07051388958337,63.0,96.0
776,241.95373767500004,242.6807107291667,56.0,87.0
777,242.34847417500004,243.2037365916667,68.0,100.0
778,242.34847417500004,243.25472338958338,60.0,93.0
779,242.34847417500004,243.26130233125005,63.0,110.0
780,243.13794717500005,243.57709153125003,56.0,88.0
781,243.53268367500004,243.83202552083338,60.0,100.0
782,243.53268367500004,243.8895912604167,63.0,110.0
783,241.16426467500003,243.8994596729167,44.0,87.0
784,243.53268367500004,243.91097282083336,68.0,98.0
785,241.55900117500005,243.98005170833338,51.0,79.0
786,243.92742017500004,244.27281461250004,56.0,86.0
787,244.32215667500003,245.23334009583337,70.0,100.0
788,244.32215667500003,245.30241898333338,63.0,93.0
789,244.32215667500003,245.30899792500003,67.0,106.0
790,245.11162967500005,245.75472122291671,60.0,84.0
791,245.50636617500004,246.3665627979167,67.0,109.0
792,245.50636617500004,246.3961680354167,70.0,89.0
793,245.50636617500004,246.41261538958338,63.0,91.0
794,246.29583917500003,246.73827300208336,60.0,92.0
795,244.32215667500003,247.1066937354167,43.0,88.0
796,246.69057567500005,247.12972003125003,67.0,119.0
797,246.69057567500005,247.15439106250003,70.0,102.0
798,246.69057567500005,247.1905752416667,63.0,100.0
799,244.71689317500002,247.22182521458336,55.0,79.0
800,247.08531217500004,247.48333814583336,60.0,91.0
801,247.48004867500003,247.6198511854167,70.0,91.0
802,247.48004867500003,248.41261365625004,72.0,91.0
803,247.48004867500003,248.4487978354167,68.0,102.0
804,247.48004867500003,248.55735037291672,65.0,96.0
805,248.26952167500005,249.16590247708336,60.0,83.0
806,248.66425817500004,249.4603101166667,68.0,110.0
807,248.66425817500004,249.51787585625004,72.0,108.0
808,248.66425817500004,249.5491258291667,65.0,93.0
809,249.45373117500003,249.9685333604167,60.0,88.0
810,249.84846767500005,250.34517777083337,72.0,107.0
811,249.84846767500005,250.39945403958336,68.0,108.0
812,247.48004867500003,250.41096718750003,53.0,88.0
813,250.24320417500005,250.4422171604167,60.0,81.0
814,249.84846767500005,250.52938813750004,65.0,108.0
815,250.63794067500004,251.5770845979167,70.0,104.0
816,250.63794067500004,251.61491351250004,63.0,93.0
817,250.63794067500004,251.62807139583336,67.0,106.0
818,251.82215017500005,251.99484739375004,68.0,88.0
819,251.03267717500003,252.33530762500004,58.0,81.0
820,251.82215017500005,252.7168862416667,67.0,116.0
821,251.82215017500005,252.72510991875004,63.0,107.0
822,251.82215017500005,252.7267546541667,70.0,93.0
823,252.61162317500003,253.1412279791667,58.0,91.0
824,250.63794067500004,253.15438586250005,51.0,92.0
825,253.00635967500003,253.53267500833337,63.0,100.0
826,253.00635967500003,253.5803723354167,70.0,104.0
827,253.00635967500003,253.6198459854167,67.0,113.0
828,253.40109617500005,253.62149072083338,51.0,88.0
829,253.79583267500004,254.28760856458337,68.0,100.0
830,253.79583267500004,254.33366115625003,65.0,104.0
831,253.79583267500004,254.36655586458338,61.0,93.0
832,254.19056917500004,254.83695019375003,56.0,70.0
833,254.58530567500003,255.17741042500003,68.0,102.0
834,254.58530567500003,255.1938577791667,65.0,98.0
835,254.58530567500003,255.19714725000003,61.0,92.0
836,254.98004217500005,255.51458118541672,56.0,81.0
837,255.37477867500004,255.96523868958337,68.0,92.0
838,255.37477867500004,255.98004130833337,65.0,107.0
839,255.37477867500004,255.9833307791667,61.0,92.0
840,255.96688342500005,256.3484620416667,56.0,92.0
841,253.79583267500004,256.36655413125004,49.0,98.0
842,256.16425167500006,256.6593170354167,61.0,107.0
843,256.16425167500006,256.6642512416667,68.0,113.0
844,256.558988175,256.75142221875006,49.0,91.0
845,256.16425167500006,256.77444851458336,65.0,114.0
846,256.95372467500005,257.8303686520834,70.0,96.0
847,256.95372467500005,257.89615806875,63.0,91.0
848,256.95372467500005,257.89615806875,67.0,95.0
849,257.74319767500003,258.4454996979167,60.0,83.0
850,258.13793417500005,259.0573412729167,70.0,107.0
851,258.13793417500005,259.0918807166667,67.0,116.0
852,258.13793417500005,259.1214859541667,63.0,96.0
853,258.92740717500004,259.30569632083336,60.0,84.0
854,259.32214367500006,259.73497226458335,67.0,109.0
855,256.95372467500005,259.74155120625005,48.0,94.0
856,259.32214367500006,259.7497748833334,70.0,102.0
857,259.32214367500006,259.7662222375,63.0,98.0
858,257.348461175,259.83859059583335,55.0,79.0
859,259.71688017500003,259.9553668104167,60.0,81.0
860,260.506353175,261.17247101875006,60.0,87.0
861,260.90108967500004,261.4899049541667,72.0,107.0
862,260.90108967500004,261.54253648750006,68.0,114.0
863,260.90108967500004,261.55733910625,65.0,102.0
864,261.29582617500006,261.8418783333334,60.0,87.0
865,261.690562675,262.15931226875006,72.0,100.0
866,261.690562675,262.2251016854167,68.0,108.0
867,261.690562675,262.2349700979167,65.0,96.0
868,262.08529917500005,262.59681188958336,60.0,87.0
869,260.11161667500005,262.7843117270834,53.0,89.0
870,262.48003567500007,262.9553642104167,65.0,102.0
871,262.48003567500007,262.99319312500006,72.0,107.0
872,262.87477217500003,263.02608783333335,53.0,88.0
873,262.48003567500007,263.1329956354167,68.0,113.0
874,263.26950867500005,263.99483699375,67.0,103.0
875,263.26950867500005,264.1658894770834,70.0,98.0
876,263.26950867500005,264.1938499791667,63.0,92.0
877,263.664245175,264.85667835208335,58.0,84.0
878,264.45371817500006,265.30240165000004,67.0,113.0
879,264.45371817500006,265.3155595333334,70.0,104.0
880,264.45371817500006,265.38628315625004,63.0,93.0
881,263.26950867500005,265.79088806875006,51.0,96.0
882,265.24319117500005,265.7974670104167,58.0,89.0
883,265.637927675,266.09680885625005,70.0,96.0
884,265.637927675,266.1181904166667,67.0,109.0
885,266.03266417500004,266.15601933125004,51.0,88.0
886,265.637927675,266.31720340208335,63.0,92.0
887,266.822137175,269.1773982916667,51.0,73.0
888,267.21687367500004,269.1773982916667,56.0,70.0
889,266.42740067500006,269.2119377354167,44.0,80.0
890,267.61161017500007,269.4701611958334,60.0,78.0
891,267.61161017500007,269.47509540208335,68.0,78.0
892,269.58529267500006,272.28265875833335,51.0,79.0
893,269.980029175,272.2958166416667,58.0,70.0
894,270.769502175,272.6806847291667,70.0,80.0
895,270.37476567500005,272.7497636166667,63.0,71.0
896,273.13792117500003,274.82541971250004,60.0,73.0
897,272.74318467500007,274.8583144208334,53.0,75.0
898,273.927394175,275.95206347291673,68.0,73.0
899,273.53265767500005,276.00798447708337,65.0,71.0
900,277.085286175,280.47508586875006,60.0,70.0
901,276.69054967500006,280.5014016354167,56.0,64.0
902,276.29581317500003,280.51455951875005,51.0,48.0
903,279.058968675,280.53429634375004,63.0,58.0
904,275.90107667500007,280.5474542270834,44.0,70.0
905,277.67739092500005,280.60008576041673,68.0,64.0
