,start,end,pitch,velocity
0,32.12905456041666,32.39663268541666,73.0,83.0
1,32.44155456041666,32.75210143541666,72.0,82.0
2,32.75405456041666,33.30092956041666,70.0,82.0
3,33.37905456041666,33.67202331041666,68.0,75.0
4,33.69155456041666,34.30678893541666,70.0,79.0
5,34.31655456041666,34.64467956041666,68.0,81.0
6,34.62905456041666,34.84780456041666,70.0,81.0
7,34.94155456041666,35.21889831041666,70.0,78.0
8,35.25405456041666,35.51967956041666,68.0,81.0
9,35.56655456041666,35.82436706041666,70.0,82.0
10,36.19155456041666,36.48452331041666,73.0,77.0
11,36.50405456041666,36.73452331041666,75.0,84.0
12,36.81655456041666,37.06850768541666,75.0,83.0
13,37.12905456041666,37.37319518541666,73.0,83.0
14,37.44155456041666,37.93178893541666,75.0,86.0
15,38.06655456041666,38.38882018541666,73.0,80.0
16,38.37905456041666,39.38296081041666,70.0,84.0
17,39.62905456041666,39.82632018541666,73.0,82.0
18,39.94155456041666,40.18569518541666,75.0,85.0
19,40.25405456041666,40.47671081041666,77.0,81.0
20,40.56655456041666,40.75014831041666,77.0,82.0
21,40.87905456041666,41.09780456041666,77.0,83.0
22,41.19155456041666,41.42983581041666,77.0,81.0
23,41.50405456041666,41.77358581041666,75.0,84.0
24,41.81655456041666,42.06069518541666,73.0,80.0
25,42.12905456041666,42.33217956041666,77.0,83.0
26,42.44155456041666,42.62710143541666,77.0,82.0
27,42.75405456041666,42.94741393541666,77.0,81.0
28,43.06655456041666,43.33217956041666,77.0,84.0
29,43.37905456041666,43.65249206041666,75.0,84.0
30,43.69155456041666,44.00796081041666,73.0,82.0
31,44.00405456041666,45.96889831041666,77.0,82.0
32,47.12905456041666,47.39663268541666,73.0,83.0
33,47.44155456041666,47.75210143541666,72.0,82.0
34,47.75405456041666,48.30092956041666,70.0,82.0
35,48.37905456041666,48.67202331041666,68.0,75.0
36,48.69155456041666,49.30678893541666,70.0,79.0
37,49.31655456041666,49.64467956041666,68.0,81.0
38,49.62905456041666,49.84780456041666,70.0,81.0
39,49.94155456041666,50.21889831041666,70.0,78.0
40,50.25405456041666,50.51967956041666,68.0,81.0
41,50.56655456041666,50.82436706041666,70.0,82.0
42,51.19155456041666,51.48452331041666,73.0,77.0
43,51.50405456041666,51.73452331041666,75.0,84.0
44,51.81655456041666,52.06850768541666,75.0,83.0
45,52.12905456041666,52.37319518541666,75.0,83.0
46,52.44155456041666,52.75405456041666,75.0,86.0
47,52.75405456041666,53.06655456041666,70.0,83.0
48,53.06655456041666,53.69155456041666,77.0,80.0
49,53.69155456041666,54.62905456041666,75.0,84.0
50,54.62905456041666,54.82632018541666,73.0,82.0
51,54.94155456041666,55.18569518541666,75.0,85.0
52,55.25405456041666,55.47671081041666,77.0,81.0
53,55.56655456041666,55.75014831041666,77.0,82.0
54,55.87905456041666,56.09780456041666,77.0,83.0
55,56.19155456041666,56.42983581041666,77.0,81.0
56,56.50405456041666,56.77358581041666,75.0,84.0
57,56.81655456041666,57.06069518541666,73.0,80.0
58,57.12905456041666,57.33217956041666,77.0,83.0
59,57.44155456041666,57.62710143541666,77.0,82.0
60,57.75405456041666,57.94741393541666,77.0,81.0
61,58.06655456041666,58.33217956041666,77.0,84.0
62,58.37905456041666,58.65249206041666,75.0,84.0
63,58.69155456041666,59.00796081041666,73.0,82.0
64,59.00405456041666,60.87905456041666,77.0,82.0
65,60.87905456041666,61.50405456041666,81.0,83.0
66,61.81655456041666,62.10952331041666,77.0,87.0
67,62.12905456041666,62.45132018541666,80.0,83.0
68,62.44155456041666,62.75405456041666,77.0,86.0
69,62.75405456041666,63.42007018541666,82.0,82.0
70,63.37905456041666,63.71303893541666,80.0,83.0
71,63.69155456041666,64.00991393541666,82.0,83.0
72,64.00405456041666,64.32046081041666,80.0,83.0
73,64.31655456041666,64.67202331041666,75.0,85.0
74,64.62905456041666,65.41616393541666,77.0,82.0
75,65.56655456041666,65.90835143541666,77.0,88.0
76,65.87905456041666,66.20327331041666,80.0,83.0
77,66.19155456041666,66.49038268541666,77.0,85.0
78,66.50405456041666,67.16616393541666,82.0,80.0
79,67.12905456041666,67.49038268541666,80.0,82.0
80,67.44155456041666,67.74038268541666,82.0,80.0
81,67.75405456041666,68.06655456041666,80.0,84.0
82,68.06655456041666,68.38491393541666,75.0,89.0
83,68.37905456041666,69.12905456041666,77.0,84.0
84,69.31655456041666,69.59780456041666,70.0,87.0
85,69.62905456041666,69.97085143541666,73.0,84.0
86,69.94155456041666,70.25210143541666,70.0,84.0
87,70.25405456041666,70.96499206041666,77.0,87.0
88,70.87905456041666,71.12319518541666,75.0,84.0
89,71.19155456041666,71.48452331041666,75.0,89.0
90,71.50405456041666,71.79116393541666,73.0,82.0
91,71.81655456041666,72.12514831041666,70.0,84.0
92,72.12905456041666,72.75405456041666,80.0,83.0
93,72.75405456041666,72.96303893541666,80.0,79.0
94,73.06655456041666,73.26382018541666,80.0,84.0
95,73.37905456041666,73.61538268541666,77.0,82.0
96,73.69155456041666,73.88882018541666,75.0,85.0
97,74.00405456041666,74.62905456041666,77.0,83.0
98,74.62905456041666,74.84780456041666,77.0,84.0
99,74.94155456041666,75.17397643541666,77.0,83.0
100,75.25405456041666,75.48842956041666,75.0,84.0
101,75.56655456041666,75.76382018541666,73.0,83.0
102,75.87905456041666,76.64467956041666,73.0,82.0
103,76.81655456041666,77.10952331041666,77.0,87.0
104,77.12905456041666,77.45132018541666,80.0,83.0
105,77.44155456041666,77.75405456041666,77.0,86.0
106,77.75405456041666,78.42007018541666,82.0,82.0
107,78.37905456041666,78.71303893541666,80.0,83.0
108,78.69155456041666,79.00991393541666,82.0,83.0
109,79.00405456041666,79.32046081041666,80.0,83.0
110,79.31655456041666,79.67202331041666,75.0,85.0
111,79.62905456041666,80.41616393541666,77.0,82.0
112,80.56655456041666,80.90835143541666,77.0,88.0
113,80.87905456041666,81.20327331041666,80.0,83.0
114,81.19155456041666,81.49038268541666,77.0,85.0
115,81.50405456041666,82.12905456041666,85.0,80.0
116,82.12905456041666,82.44155456041666,85.0,82.0
117,82.44155456041666,82.74038268541666,85.0,80.0
118,82.75405456041666,83.06655456041666,82.0,84.0
119,83.06655456041666,83.38491393541666,80.0,89.0
120,83.37905456041666,84.12905456041666,77.0,84.0
121,84.31655456041666,84.59780456041666,70.0,87.0
122,84.62905456041666,84.97085143541666,73.0,84.0
123,84.94155456041666,85.25210143541666,70.0,84.0
124,85.25405456041666,85.96499206041666,77.0,87.0
125,85.87905456041666,86.12319518541666,75.0,84.0
126,86.19155456041666,86.48452331041666,75.0,89.0
127,86.50405456041666,86.79116393541666,73.0,82.0
128,86.81655456041666,87.12514831041666,70.0,84.0
129,87.12905456041666,87.75405456041666,80.0,83.0
130,87.75405456041666,87.96303893541666,80.0,79.0
131,88.06655456041666,88.26382018541666,80.0,84.0
132,88.37905456041666,88.61538268541666,77.0,82.0
133,88.69155456041666,88.88882018541666,80.0,85.0
134,89.00405456041666,91.81655456041666,82.0,83.0
135,118.51430948333334,118.78188760833334,73.0,83.0
136,118.82680948333334,119.13735635833334,72.0,82.0
137,119.13930948333334,119.68618448333334,70.0,82.0
138,119.76430948333334,120.05727823333334,68.0,75.0
139,120.07680948333334,120.69204385833334,70.0,79.0
140,120.70180948333334,121.02993448333334,68.0,81.0
141,121.01430948333334,121.23305948333334,70.0,81.0
142,121.32680948333334,121.60415323333334,70.0,78.0
143,121.63930948333334,121.90493448333334,68.0,81.0
144,121.95180948333334,122.20962198333334,70.0,82.0
145,122.57680948333334,122.86977823333334,73.0,77.0
146,122.88930948333334,123.11977823333334,75.0,84.0
147,123.20180948333334,123.45376260833334,75.0,83.0
148,123.51430948333334,123.75845010833334,73.0,83.0
149,123.82680948333334,124.31704385833334,75.0,86.0
150,124.45180948333334,124.77407510833334,73.0,80.0
151,124.76430948333334,125.76821573333334,70.0,84.0
152,126.01430948333334,126.21157510833334,73.0,82.0
153,126.32680948333334,126.57095010833334,75.0,85.0
154,126.63930948333334,126.86196573333334,77.0,81.0
155,126.95180948333334,127.13540323333334,77.0,82.0
156,127.26430948333334,127.48305948333334,77.0,83.0
157,127.57680948333334,127.81509073333334,77.0,81.0
158,127.88930948333334,128.15884073333334,75.0,84.0
159,128.20180948333334,128.44595010833334,73.0,80.0
160,128.51430948333334,128.71743448333334,77.0,83.0
161,128.82680948333334,129.01235635833334,77.0,82.0
162,129.13930948333334,129.33266885833334,77.0,81.0
163,129.45180948333334,129.71743448333334,77.0,84.0
164,129.76430948333334,130.03774698333334,75.0,84.0
165,130.07680948333334,130.39321573333334,73.0,82.0
166,130.38930948333334,132.35415323333334,77.0,82.0
167,133.51430948333334,133.78188760833334,73.0,83.0
168,133.82680948333334,134.13735635833334,72.0,82.0
169,134.13930948333334,134.68618448333334,70.0,82.0
170,134.76430948333334,135.05727823333334,68.0,75.0
171,135.07680948333334,135.69204385833334,70.0,79.0
172,135.70180948333334,136.02993448333334,68.0,81.0
173,136.01430948333334,136.23305948333334,70.0,81.0
174,136.32680948333334,136.60415323333334,70.0,78.0
175,136.63930948333334,136.90493448333334,68.0,81.0
176,136.95180948333334,137.20962198333334,70.0,82.0
177,137.57680948333334,137.86977823333334,73.0,77.0
178,137.88930948333334,138.11977823333334,75.0,84.0
179,138.20180948333334,138.45376260833334,75.0,83.0
180,138.51430948333334,138.75845010833334,75.0,83.0
181,138.82680948333334,139.13930948333334,75.0,86.0
182,139.13930948333334,139.45180948333334,70.0,83.0
183,139.45180948333334,140.07680948333334,77.0,80.0
184,140.07680948333334,141.01430948333334,75.0,84.0
185,141.01430948333334,141.21157510833334,73.0,82.0
186,141.32680948333334,141.57095010833334,75.0,85.0
187,141.63930948333334,141.86196573333334,77.0,81.0
188,141.95180948333334,142.13540323333334,77.0,82.0
189,142.26430948333334,142.48305948333334,77.0,83.0
190,142.57680948333334,142.81509073333334,77.0,81.0
191,142.88930948333334,143.15884073333334,75.0,84.0
192,143.20180948333334,143.44595010833334,73.0,80.0
193,143.51430948333334,143.71743448333334,77.0,83.0
194,143.82680948333334,144.01235635833334,77.0,82.0
195,144.13930948333334,144.33266885833334,77.0,81.0
196,144.45180948333334,144.71743448333334,77.0,84.0
197,144.76430948333334,145.03774698333334,75.0,84.0
198,145.07680948333334,145.39321573333334,73.0,82.0
199,145.38930948333334,147.26430948333334,77.0,82.0
200,147.26430948333334,147.88930948333334,81.0,83.0
201,148.20180948333334,148.49477823333334,77.0,87.0
202,148.51430948333334,148.83657510833334,80.0,83.0
203,148.82680948333334,149.13930948333334,77.0,86.0
204,149.13930948333334,149.80532510833334,82.0,82.0
205,149.76430948333334,150.09829385833334,80.0,83.0
206,150.07680948333334,150.39516885833334,82.0,83.0
207,150.38930948333334,150.70571573333334,80.0,83.0
208,150.70180948333334,151.05727823333334,75.0,85.0
209,151.01430948333334,151.80141885833334,77.0,82.0
210,151.95180948333334,152.29360635833334,77.0,88.0
211,152.26430948333334,152.58852823333334,80.0,83.0
212,152.57680948333334,152.87563760833334,77.0,85.0
213,152.88930948333334,153.55141885833334,82.0,80.0
214,153.51430948333334,153.87563760833334,80.0,82.0
215,153.82680948333334,154.12563760833334,82.0,80.0
216,154.13930948333334,154.45180948333334,80.0,84.0
217,154.45180948333334,154.77016885833334,75.0,89.0
218,154.76430948333334,155.51430948333334,77.0,84.0
219,155.70180948333334,155.98305948333334,70.0,87.0
220,156.01430948333334,156.35610635833334,73.0,84.0
221,156.32680948333334,156.63735635833334,70.0,84.0
222,156.63930948333334,157.35024698333334,77.0,87.0
223,157.26430948333334,157.50845010833334,75.0,84.0
224,157.57680948333334,157.86977823333334,75.0,89.0
225,157.88930948333334,158.17641885833334,73.0,82.0
226,158.20180948333334,158.51040323333334,70.0,84.0
227,158.51430948333334,159.13930948333334,80.0,83.0
228,159.13930948333334,159.34829385833334,80.0,79.0
229,159.45180948333334,159.64907510833334,80.0,84.0
230,159.76430948333334,160.00063760833334,77.0,82.0
231,160.07680948333334,160.27407510833334,75.0,85.0
232,160.38930948333334,161.01430948333334,77.0,83.0
233,161.01430948333334,161.23305948333334,77.0,84.0
234,161.32680948333334,161.55923135833334,77.0,83.0
235,161.63930948333334,161.87368448333334,75.0,84.0
236,161.95180948333334,162.14907510833334,73.0,83.0
237,162.26430948333334,163.02993448333334,73.0,82.0
238,163.20180948333334,163.49477823333334,77.0,87.0
239,163.51430948333334,163.83657510833334,80.0,83.0
240,163.82680948333334,164.13930948333334,77.0,86.0
241,164.13930948333334,164.80532510833334,82.0,82.0
242,164.76430948333334,165.09829385833334,80.0,83.0
243,165.07680948333334,165.39516885833334,82.0,83.0
244,165.38930948333334,165.70571573333334,80.0,83.0
245,165.70180948333334,166.05727823333334,75.0,85.0
246,166.01430948333334,166.80141885833334,77.0,82.0
247,166.95180948333334,167.29360635833334,77.0,88.0
248,167.26430948333334,167.58852823333334,80.0,83.0
249,167.57680948333334,167.87563760833334,77.0,85.0
250,167.88930948333334,168.51430948333334,85.0,80.0
251,168.51430948333334,168.82680948333334,85.0,82.0
252,168.82680948333334,169.12563760833334,85.0,80.0
253,169.13930948333334,169.45180948333334,82.0,84.0
254,169.45180948333334,169.77016885833334,80.0,89.0
255,169.76430948333334,170.51430948333334,77.0,84.0
256,170.70180948333334,170.98305948333334,70.0,87.0
257,171.01430948333334,171.35610635833334,73.0,84.0
258,171.32680948333334,171.63735635833334,70.0,84.0
259,171.63930948333334,172.35024698333334,77.0,87.0
260,172.26430948333334,172.50845010833334,75.0,84.0
261,172.57680948333334,172.86977823333334,75.0,89.0
262,172.88930948333334,173.17641885833334,73.0,82.0
263,173.20180948333334,173.51040323333334,70.0,84.0
264,173.51430948333334,174.13930948333334,80.0,83.0
265,174.13930948333334,174.34829385833334,80.0,79.0
266,174.45180948333334,174.64907510833334,80.0,84.0
267,174.76430948333334,175.00063760833334,77.0,82.0
268,175.07680948333334,175.27407510833334,80.0,85.0
269,175.38930948333334,178.20180948333334,82.0,83.0
270,178.20180948333334,178.49477823333334,77.0,87.0
271,178.51430948333334,178.83657510833334,80.0,83.0
272,178.82680948333334,179.13930948333334,77.0,86.0
273,179.13930948333334,179.80532510833334,82.0,82.0
274,179.76430948333334,180.09829385833334,80.0,83.0
275,180.07680948333334,180.39516885833334,82.0,83.0
276,180.38930948333334,180.70571573333334,80.0,83.0
277,180.70180948333334,181.05727823333334,75.0,85.0
278,181.01430948333334,181.80141885833334,77.0,82.0
279,181.95180948333334,182.29360635833334,77.0,88.0
280,182.26430948333334,182.58852823333334,80.0,83.0
281,182.57680948333334,182.87563760833334,77.0,85.0
282,182.88930948333334,183.55141885833334,82.0,80.0
283,183.51430948333334,183.87563760833334,80.0,82.0
284,183.82680948333334,184.12563760833334,82.0,80.0
285,184.13930948333334,184.45180948333334,80.0,84.0
286,184.45180948333334,184.77016885833334,75.0,89.0
287,184.76430948333334,185.51430948333334,77.0,84.0
288,185.70180948333334,185.98305948333334,70.0,87.0
289,186.01430948333334,186.35610635833334,73.0,84.0
290,186.32680948333334,186.63735635833334,70.0,84.0
291,186.63930948333334,187.35024698333334,77.0,87.0
292,187.26430948333334,187.50845010833334,75.0,84.0
293,187.57680948333334,187.86977823333334,75.0,89.0
294,187.88930948333334,188.17641885833334,73.0,82.0
295,188.20180948333334,188.51040323333334,70.0,84.0
296,188.51430948333334,189.13930948333334,80.0,83.0
297,189.13930948333334,189.34829385833334,80.0,79.0
298,189.45180948333334,189.64907510833334,80.0,84.0
299,189.76430948333334,190.00063760833334,77.0,82.0
300,190.07680948333334,190.27407510833334,75.0,85.0
301,190.38930948333334,191.01430948333334,77.0,83.0
302,191.01430948333334,191.23305948333334,77.0,84.0
303,191.32680948333334,191.55923135833334,77.0,83.0
304,191.63930948333334,191.87368448333334,75.0,84.0
305,191.95180948333334,192.14907510833334,73.0,83.0
306,192.26430948333334,193.02993448333334,73.0,82.0
307,193.20180948333334,193.49477823333334,77.0,87.0
308,193.51430948333334,193.83657510833334,80.0,83.0
309,193.82680948333334,194.13930948333334,77.0,86.0
310,194.13930948333334,194.80532510833334,82.0,82.0
311,194.76430948333334,195.09829385833334,80.0,83.0
312,195.07680948333334,195.39516885833334,82.0,83.0
313,195.38930948333334,195.70571573333334,80.0,83.0
314,195.70180948333334,196.05727823333334,75.0,85.0
315,196.01430948333334,196.80141885833334,77.0,82.0
316,196.95180948333334,197.29360635833334,77.0,88.0
317,197.26430948333334,197.58852823333334,80.0,83.0
318,197.57680948333334,197.87563760833334,77.0,85.0
319,197.88930948333334,198.51430948333334,85.0,80.0
320,198.51430948333334,198.82680948333334,85.0,82.0
321,198.82680948333334,199.12563760833334,85.0,80.0
322,199.13930948333334,199.45180948333334,82.0,84.0
323,199.45180948333334,199.77016885833334,80.0,89.0
324,199.76430948333334,200.51430948333334,77.0,84.0
325,200.70180948333334,200.98305948333334,70.0,87.0
326,201.01430948333334,201.35610635833334,73.0,84.0
327,201.32680948333334,201.63735635833334,70.0,84.0
328,201.63930948333334,202.35024698333334,77.0,87.0
329,202.26430948333334,202.50845010833334,75.0,84.0
330,202.57680948333334,202.86977823333334,75.0,89.0
331,202.88930948333334,203.17641885833334,73.0,82.0
332,203.20180948333334,203.51040323333334,70.0,84.0
333,203.51430948333334,204.13930948333334,80.0,83.0
334,204.13930948333334,204.34829385833334,80.0,79.0
335,204.45180948333334,204.64907510833334,80.0,84.0
336,204.76430948333334,205.00063760833334,77.0,82.0
337,205.07680948333334,205.27407510833334,80.0,85.0
338,205.38930948333334,208.26233959166666,82.0,83.0
