,start,end,pitch,velocity
0,3.271484375,3.646484375,58.0,60.0
1,3.583984375,3.94140625,60.0,76.0
2,2.958984375,3.984375,53.0,59.0
3,3.896484375,4.275390625,61.0,76.0
4,4.521484375,4.7421875,65.0,78.0
5,4.521484375,4.751953125,58.0,70.0
6,4.208984375,5.654296875,53.0,69.0
7,2.646484375,5.76171875,46.0,80.0
8,7.021484375,7.34375,53.0,70.0
9,7.333984375,7.48046875,54.0,76.0
10,7.646484375,8.00390625,58.0,81.0
11,7.958984375,8.654296875,61.0,82.0
12,8.271484375,8.908203125,65.0,82.0
13,8.583984375,8.958984375,58.0,69.0
14,8.896484375,9.07421875,61.0,70.0
15,9.208984375,9.515625,58.0,75.0
16,6.708984375,9.564453125,49.0,68.0
17,9.208984375,9.572265625,61.0,77.0
18,9.208984375,9.642578125,66.0,80.0
19,6.396484375,9.697265625,42.0,75.0
20,10.458984375,11.376953125,46.0,65.0
21,10.146484375,11.41796875,39.0,83.0
22,11.083984375,11.431640625,63.0,82.0
23,10.771484375,11.470703125,58.0,72.0
24,11.708984375,12.072265625,58.0,67.0
25,11.396484375,12.095703125,66.0,78.0
26,12.646484375,13.28125,53.0,76.0
27,12.958984375,13.328125,56.0,83.0
28,12.333984375,13.517578125,48.0,65.0
29,12.021484375,13.611328125,41.0,82.0
30,13.583984375,13.7109375,53.0,78.0
31,13.271484375,13.73046875,60.0,76.0
32,13.896484375,14.256043664583334,54.0,73.0
33,13.896484375,14.593548027083333,58.0,73.0
34,14.526087777083333,15.087356183333334,54.0,71.0
35,14.843547777083334,15.269597220833333,61.0,62.0
36,15.163906245833333,15.590953585416667,66.0,77.0
37,14.210768116666667,15.615746960416667,49.0,62.0
38,13.896484375,15.6550031375,42.0,82.0
39,15.819705660416668,16.558388547916667,58.0,73.0
40,15.819705660416668,16.564561385416667,61.0,74.0
41,15.489713970833334,16.572791835416666,54.0,83.0
42,15.819705660416668,16.751804122916667,42.0,78.0
43,17.754054560416666,18.088038935416666,58.0,82.0
44,17.754054560416666,18.220851435416666,65.0,83.0
45,18.222804560416666,18.437648310416666,58.0,82.0
46,18.379054560416666,18.566554560416666,61.0,80.0
47,18.066554560416666,18.816554560416666,53.0,74.0
48,18.691554560416666,18.961085810416666,58.0,84.0
49,18.691554560416666,18.961085810416666,65.0,85.0
50,19.160304560416666,19.334132685416666,58.0,79.0
51,19.004054560416666,19.445460810416666,53.0,80.0
52,19.316554560416666,19.466945185416666,61.0,75.0
53,17.754054560416666,19.506007685416666,46.0,84.0
54,19.472804560416666,19.617335810416666,58.0,78.0
55,19.629054560416666,19.953273310416666,58.0,79.0
56,19.629054560416666,20.017726435416666,65.0,85.0
57,20.254054560416666,20.379054560416666,58.0,83.0
58,19.941554560416666,20.660304560416666,53.0,76.0
59,20.566554560416666,20.855617060416666,58.0,84.0
60,20.566554560416666,20.918117060416666,61.0,88.0
61,19.629054560416666,20.945460810416666,46.0,83.0
62,20.566554560416666,20.970851435416666,65.0,93.0
63,20.879054560416666,21.025538935416666,53.0,82.0
64,21.035304560416666,21.240382685416666,58.0,83.0
65,21.191554560416666,21.375148310416666,61.0,82.0
66,21.347804560416666,21.504054560416666,58.0,83.0
67,22.129054560416666,22.261867060416666,54.0,87.0
68,22.441554560416666,22.584132685416666,54.0,84.0
69,22.441554560416666,22.593898310416666,61.0,84.0
70,22.754054560416666,22.873195185416666,54.0,85.0
71,22.754054560416666,22.906398310416666,61.0,82.0
72,21.816554560416666,22.939601435416666,49.0,72.0
73,22.910304560416666,23.072413935416666,58.0,76.0
74,21.504054560416666,23.134913935416666,42.0,83.0
75,23.066554560416666,23.259913935416666,54.0,83.0
76,23.222804560416666,23.375148310416666,58.0,82.0
77,23.379054560416666,23.574367060416666,54.0,78.0
78,23.379054560416666,23.685695185416666,61.0,83.0
79,24.004054560416666,24.175929560416666,54.0,81.0
80,23.691554560416666,24.402492060416666,49.0,74.0
81,24.316554560416666,24.603663935416666,54.0,83.0
82,24.316554560416666,24.654445185416666,58.0,86.0
83,24.316554560416666,24.662257685416666,65.0,84.0
84,23.379054560416666,24.718898310416666,42.0,83.0
85,24.629054560416666,24.941554560416666,49.0,84.0
86,24.941554560416666,25.088038935416666,42.0,83.0
87,25.254054560416666,25.494288935416666,63.0,81.0
88,25.254054560416666,25.519679560416666,58.0,77.0
89,25.566554560416666,25.757960810416666,63.0,82.0
90,25.722804560416666,25.929835810416666,58.0,84.0
91,25.254054560416666,26.035304560416666,39.0,85.0
92,25.879054560416666,26.078273310416666,63.0,76.0
93,25.566554560416666,26.119288935416666,46.0,57.0
94,26.035304560416666,26.164210810416666,66.0,75.0
95,26.191554560416666,26.539210810416666,58.0,70.0
96,26.191554560416666,26.869288935416666,39.0,87.0
97,26.191554560416666,26.873195185416666,66.0,83.0
98,26.504054560416666,26.923976435416666,46.0,83.0
99,26.816554560416666,26.964992060416666,58.0,82.0
100,27.129054560416666,27.308742060416666,68.0,77.0
101,27.129054560416666,27.361476435416666,65.0,81.0
102,27.129054560416666,27.422023310416666,60.0,82.0
103,27.441554560416666,27.609523310416666,65.0,84.0
104,27.597804560416666,27.791163935416666,60.0,83.0
105,27.754054560416666,27.916163935416666,65.0,78.0
106,27.910304560416666,28.021632685416666,60.0,82.0
107,27.441554560416666,28.267726435416666,48.0,74.0
108,28.066554560416666,28.382960810416666,60.0,84.0
109,27.129054560416666,28.517726435416666,41.0,88.0
110,28.379054560416666,28.548976435416666,48.0,83.0
111,28.066554560416666,28.713038935416666,68.0,83.0
112,28.691554560416666,28.853663935416666,60.0,85.0
113,29.941554560416666,30.341945185416666,58.0,84.0
114,29.629054560416666,30.619288935416666,54.0,83.0
115,30.254054560416666,30.699367060416666,61.0,81.0
116,30.566554560416666,30.744288935416666,66.0,77.0
117,30.879054560416666,32.04897643541666,54.0,69.0
118,30.879054560416666,32.05678893541666,58.0,77.0
119,29.316554560416666,32.06264831041666,49.0,78.0
120,30.879054560416666,32.09585143541666,61.0,70.0
121,29.004054560416666,32.10561706041666,42.0,82.0
122,33.37905456041666,33.81655456041666,58.0,83.0
123,33.69155456041666,33.83217956041666,61.0,78.0
124,33.69155456041666,33.85366393541666,65.0,82.0
125,32.75405456041666,34.51382018541666,46.0,83.0
126,33.06655456041666,34.52749206041666,53.0,70.0
127,34.62905456041666,35.03530456041666,58.0,69.0
128,34.62905456041666,35.27163268541666,61.0,74.0
129,35.25405456041666,35.56655456041666,58.0,76.0
130,35.56655456041666,36.17983581041666,65.0,84.0
131,34.94155456041666,36.27944518541666,53.0,67.0
132,34.62905456041666,36.38686706041666,46.0,74.0
133,36.19155456041666,36.43178893541666,58.0,71.0
134,36.50405456041666,36.86538268541666,63.0,77.0
135,36.81655456041666,37.37514831041666,58.0,79.0
136,37.12905456041666,37.51772643541666,63.0,76.0
137,37.44155456041666,37.64858581041666,67.0,82.0
138,36.50405456041666,37.78335143541666,51.0,77.0
139,38.37905456041666,38.74819518541666,58.0,67.0
140,38.37905456041666,39.06655456041666,63.0,70.0
141,39.00405456041666,39.18764831041666,58.0,70.0
142,39.31655456041666,39.47866393541666,63.0,80.0
143,38.69155456041666,39.49233581041666,46.0,63.0
144,39.31655456041666,39.51186706041666,58.0,80.0
145,38.37905456041666,39.51577331041666,39.0,76.0
146,40.25405456041666,40.48647643541666,56.0,75.0
147,40.25405456041666,40.85561706041666,65.0,81.0
148,40.56655456041666,40.97475768541666,56.0,77.0
149,40.87905456041666,41.06264831041666,61.0,79.0
150,41.19155456041666,41.42788268541666,65.0,82.0
151,40.25405456041666,41.59194518541666,49.0,76.0
152,42.12905456041666,42.41811706041666,56.0,71.0
153,42.12905456041666,42.77163268541666,61.0,71.0
154,42.75405456041666,43.15053893541666,56.0,81.0
155,42.44155456041666,43.23061706041666,44.0,66.0
156,42.12905456041666,43.32241393541666,37.0,73.0
157,43.06655456041666,43.40444518541666,61.0,80.0
158,43.37905456041666,43.73257018541666,63.0,78.0
159,43.69155456041666,44.01967956041666,61.0,79.0
160,44.62905456041666,45.02749206041666,53.0,82.0
161,44.31655456041666,45.20913268541666,48.0,62.0
162,44.94155456041666,45.34975768541666,60.0,78.0
163,44.00405456041666,45.60366393541666,65.0,78.0
164,44.00405456041666,45.61733581041666,41.0,83.0
165,45.25405456041666,45.66421081041666,53.0,82.0
166,45.56655456041666,45.75991393541666,60.0,74.0
167,45.87905456041666,46.33608581041666,60.0,78.0
168,45.87905456041666,46.43960143541666,65.0,84.0
169,45.87905456041666,46.44741393541666,53.0,81.0
170,46.81655456041666,47.09780456041666,53.0,82.0
171,46.81655456041666,47.18764831041666,57.0,76.0
172,45.87905456041666,47.24233581041666,41.0,84.0
173,47.12905456041666,47.30678893541666,48.0,70.0
174,47.44155456041666,47.55678893541666,53.0,82.0
175,47.75405456041666,48.16616393541666,58.0,72.0
176,47.75405456041666,48.44546081041666,61.0,76.0
177,48.37905456041666,48.62514831041666,58.0,76.0
178,48.69155456041666,48.78530456041666,61.0,77.0
179,48.69155456041666,48.81264831041666,65.0,83.0
180,48.06655456041666,49.35366393541666,53.0,74.0
181,47.75405456041666,49.49428893541666,46.0,78.0
182,49.62905456041666,49.93374206041666,58.0,67.0
183,49.62905456041666,50.26577331041666,61.0,73.0
184,50.25405456041666,50.41616393541666,58.0,77.0
185,50.56655456041666,50.81069518541666,58.0,82.0
186,50.56655456041666,51.21108581041666,65.0,83.0
187,49.94155456041666,51.33999206041666,53.0,68.0
188,49.62905456041666,51.39663268541666,46.0,81.0
189,51.50405456041666,51.65444518541666,58.0,70.0
190,51.50405456041666,51.83999206041666,63.0,76.0
191,51.81655456041666,52.22085143541666,58.0,78.0
192,52.12905456041666,52.28530456041666,63.0,78.0
193,52.44155456041666,52.61342956041666,63.0,78.0
194,52.44155456041666,52.61928893541666,58.0,73.0
195,52.44155456041666,52.62710143541666,67.0,74.0
196,51.50405456041666,52.62905456041666,51.0,77.0
197,53.37905456041666,53.65249206041666,63.0,75.0
198,53.37905456041666,53.66616393541666,58.0,70.0
199,54.00405456041666,54.20913268541666,51.0,69.0
200,54.31655456041666,54.49428893541666,51.0,82.0
201,53.69155456041666,54.51577331041666,46.0,67.0
202,54.31655456041666,54.53139831041666,58.0,80.0
203,53.37905456041666,54.53335143541666,39.0,73.0
204,55.25405456041666,55.42983581041666,56.0,77.0
205,55.25405456041666,55.83999206041666,65.0,83.0
206,55.56655456041666,55.95522643541666,56.0,74.0
207,55.87905456041666,56.02749206041666,61.0,74.0
208,56.19155456041666,56.40053893541666,56.0,79.0
209,56.19155456041666,56.42007018541666,65.0,82.0
210,55.25405456041666,56.59780456041666,49.0,77.0
211,57.12905456041666,57.28335143541666,56.0,72.0
212,57.12905456041666,57.45717956041666,61.0,74.0
213,57.12905456041666,57.63100768541666,37.0,72.0
214,57.44155456041666,57.82827331041666,56.0,76.0
215,57.75405456041666,57.89077331041666,61.0,77.0
216,58.06655456041666,58.43764831041666,65.0,82.0
217,58.06655456041666,58.54116393541666,56.0,73.0
218,58.37905456041666,58.72280456041666,61.0,71.0
219,58.69155456041666,58.90053893541666,39.0,82.0
220,59.00405456041666,59.24038268541666,60.0,73.0
221,59.00405456041666,59.35952331041666,65.0,77.0
222,59.31655456041666,59.74624206041666,60.0,69.0
223,59.62905456041666,59.82632018541666,65.0,77.0
224,59.94155456041666,60.26577331041666,60.0,77.0
225,59.94155456041666,60.31655456041666,69.0,76.0
226,60.25405456041666,60.51577331041666,65.0,84.0
227,59.00405456041666,60.77163268541666,41.0,84.0
228,60.56655456041666,60.79116393541666,60.0,83.0
229,60.87905456041666,62.36147643541666,60.0,85.0
230,60.87905456041666,62.38491393541666,65.0,88.0
231,60.87905456041666,62.50014831041666,41.0,84.0
232,62.75405456041666,63.05874206041666,54.0,82.0
233,62.75405456041666,63.16030456041666,58.0,82.0
234,63.37905456041666,63.51577331041666,54.0,82.0
235,63.06655456041666,63.76186706041666,49.0,75.0
236,63.69155456041666,64.00600768541666,61.0,84.0
237,63.69155456041666,64.01186706041666,54.0,83.0
238,62.75405456041666,64.02358581041666,42.0,84.0
239,64.00405456041666,64.11928893541666,49.0,83.0
240,64.31655456041666,64.41225768541666,54.0,83.0
241,64.62905456041666,64.84585143541666,61.0,82.0
242,64.62905456041666,64.85366393541666,56.0,83.0
243,64.94155456041666,65.08217956041666,61.0,78.0
244,65.09780456041666,65.25600768541666,56.0,78.0
245,65.25405456041666,65.37905456041666,61.0,72.0
246,64.62905456041666,65.50014831041666,49.0,93.0
247,65.41030456041666,65.52358581041666,56.0,81.0
248,65.56655456041666,65.73647643541666,56.0,83.0
249,65.56655456041666,65.78921081041666,61.0,84.0
250,65.56655456041666,65.92983581041666,49.0,87.0
251,65.56655456041666,65.94350768541666,65.0,83.0
252,65.87905456041666,66.17788268541666,61.0,81.0
253,66.19155456041666,66.33217956041666,56.0,84.0
254,66.50405456041666,66.83413268541666,54.0,78.0
255,66.50405456041666,67.17983581041666,58.0,77.0
256,67.12905456041666,67.26772643541666,54.0,84.0
257,66.81655456041666,67.56655456041666,49.0,72.0
258,66.50405456041666,67.61928893541666,42.0,82.0
259,67.44155456041666,67.61928893541666,54.0,88.0
260,67.44155456041666,67.63100768541666,58.0,87.0
261,67.75405456041666,67.97866393541666,42.0,80.0
262,68.06655456041666,68.30874206041666,42.0,72.0
263,68.37905456041666,68.54311706041666,56.0,84.0
264,68.37905456041666,68.69155456041666,61.0,83.0
265,68.69155456041666,68.84389831041666,56.0,83.0
266,68.84780456041666,68.95717956041666,61.0,75.0
267,69.00405456041666,69.18178893541666,56.0,78.0
268,68.37905456041666,69.21889831041666,49.0,98.0
269,69.16030456041666,69.26577331041666,61.0,74.0
270,69.31655456041666,69.60171081041666,56.0,81.0
271,69.31655456041666,69.62905456041666,65.0,84.0
272,69.31655456041666,69.91030456041666,49.0,89.0
273,69.62905456041666,69.95913268541666,61.0,82.0
274,69.94155456041666,70.09194518541666,56.0,84.0
275,70.25405456041666,70.48842956041666,58.0,81.0
276,70.25405456041666,70.65249206041666,63.0,81.0
277,70.56655456041666,70.96108581041666,58.0,75.0
278,70.87905456041666,71.02358581041666,63.0,72.0
279,71.19155456041666,71.37514831041666,58.0,83.0
280,71.19155456041666,71.48842956041666,66.0,85.0
281,70.25405456041666,71.54702331041666,51.0,85.0
282,71.50405456041666,71.77553893541666,63.0,82.0
283,71.81655456041666,71.90053893541666,58.0,73.0
284,72.12905456041666,72.32046081041666,65.0,80.0
285,72.12905456041666,72.34975768541666,60.0,76.0
286,72.44155456041666,72.56655456041666,65.0,78.0
287,72.59780456041666,72.77358581041666,60.0,80.0
288,72.75405456041666,72.92592956041666,65.0,76.0
289,72.12905456041666,73.01382018541666,41.0,83.0
290,72.91030456041666,73.02163268541666,60.0,75.0
291,73.06655456041666,73.27358581041666,60.0,83.0
292,73.06655456041666,73.36342956041666,65.0,86.0
293,73.06655456041666,73.50600768541666,68.0,82.0
294,73.06655456041666,73.54897643541666,41.0,84.0
295,73.37905456041666,73.73452331041666,60.0,82.0
296,73.69155456041666,73.79702331041666,65.0,75.0
297,74.00405456041666,74.36928893541666,58.0,78.0
298,74.00405456041666,74.39858581041666,61.0,82.0
299,74.62905456041666,74.75991393541666,58.0,79.0
300,74.31655456041666,75.08999206041666,53.0,75.0
301,74.94155456041666,75.11147643541666,58.0,82.0
302,74.00405456041666,75.21889831041666,46.0,83.0
303,74.94155456041666,75.31850768541666,61.0,84.0
304,75.25405456041666,75.47866393541666,58.0,79.0
305,75.56655456041666,75.69741393541666,61.0,71.0
306,75.87905456041666,76.10561706041666,58.0,84.0
307,75.87905456041666,76.11538268541666,54.0,82.0
308,76.03530456041666,76.48061706041666,49.0,82.0
309,76.34780456041666,76.55678893541666,54.0,83.0
310,75.87905456041666,76.66616393541666,42.0,84.0
311,76.50405456041666,76.67788268541666,58.0,84.0
312,76.81655456041666,77.14663268541666,53.0,91.0
313,76.81655456041666,77.19741393541666,57.0,88.0
314,76.81655456041666,77.47866393541666,41.0,88.0
315,77.12905456041666,77.50405456041666,48.0,83.0
316,77.44155456041666,77.61733581041666,53.0,88.0
317,77.75405456041666,78.14858581041666,54.0,83.0
318,77.75405456041666,78.43960143541666,61.0,82.0
319,78.37905456041666,78.54116393541666,54.0,86.0
320,78.06655456041666,78.76186706041666,49.0,73.0
321,77.75405456041666,78.83999206041666,42.0,86.0
322,78.69155456041666,78.94936706041666,54.0,87.0
323,78.69155456041666,79.06264831041666,58.0,91.0
324,78.69155456041666,79.09389831041666,61.0,91.0
325,79.00405456041666,79.14663268541666,49.0,83.0
326,79.16030456041666,79.35561706041666,54.0,83.0
327,79.31655456041666,79.51382018541666,58.0,76.0
328,79.62905456041666,79.82046081041666,56.0,78.0
329,79.62905456041666,79.98647643541666,61.0,82.0
330,79.94155456041666,80.28530456041666,56.0,80.0
331,80.25405456041666,80.38100768541666,61.0,74.0
332,80.56655456041666,80.84780456041666,56.0,83.0
333,80.56655456041666,80.88882018541666,65.0,87.0
334,79.62905456041666,81.16421081041666,49.0,84.0
335,80.87905456041666,81.17397643541666,61.0,82.0
336,81.19155456041666,81.31655456041666,56.0,83.0
337,81.50405456041666,81.79507018541666,54.0,82.0
338,81.50405456041666,81.81850768541666,58.0,77.0
339,81.97280456041666,82.22280456041666,54.0,82.0
340,82.12905456041666,82.32046081041666,58.0,80.0
341,82.28530456041666,82.37905456041666,61.0,76.0
342,81.81655456041666,82.42007018541666,49.0,74.0
343,81.50405456041666,82.42788268541666,42.0,82.0
344,82.44155456041666,82.73452331041666,54.0,83.0
345,82.44155456041666,83.00991393541666,61.0,84.0
346,82.75405456041666,83.17007018541666,49.0,87.0
347,83.06655456041666,83.18764831041666,54.0,84.0
348,83.37905456041666,83.74624206041666,58.0,79.0
349,83.37905456041666,83.81460143541666,65.0,84.0
350,83.69155456041666,83.86733581041666,61.0,72.0
351,83.84780456041666,84.04116393541666,58.0,79.0
352,84.00405456041666,84.12905456041666,61.0,73.0
353,83.69155456041666,84.49233581041666,53.0,75.0
354,84.31655456041666,84.69741393541666,58.0,84.0
355,84.31655456041666,84.75014831041666,65.0,84.0
356,84.62905456041666,85.03139831041666,53.0,82.0
357,83.37905456041666,85.04897643541666,46.0,84.0
358,84.94155456041666,85.13882018541666,61.0,82.0
359,85.25405456041666,85.42592956041666,58.0,78.0
360,85.25405456041666,85.63100768541666,63.0,82.0
361,85.56655456041666,85.92592956041666,58.0,76.0
362,85.87905456041666,86.01967956041666,63.0,73.0
363,85.25405456041666,86.32632018541666,51.0,86.0
364,86.19155456041666,86.53139831041666,58.0,83.0
365,86.50405456041666,86.65639831041666,51.0,85.0
366,86.19155456041666,86.86733581041666,63.0,87.0
367,86.81655456041666,86.95717956041666,58.0,75.0
368,87.12905456041666,87.48257018541666,60.0,78.0
369,87.12905456041666,87.59389831041666,65.0,81.0
370,87.59780456041666,87.81264831041666,60.0,76.0
371,87.75405456041666,88.00796081041666,65.0,78.0
372,87.44155456041666,88.29311706041666,48.0,69.0
373,88.06655456041666,88.35561706041666,60.0,75.0
374,88.06655456041666,88.49428893541666,65.0,84.0
375,88.37905456041666,88.56655456041666,48.0,78.0
376,88.06655456041666,88.57436706041666,68.0,83.0
377,87.12905456041666,88.58803893541666,41.0,85.0
378,88.69155456041666,88.81460143541666,60.0,84.0
379,89.00405456041666,89.23842956041666,61.0,70.0
380,89.00405456041666,89.24624206041666,58.0,70.0
381,89.00405456041666,89.30092956041666,54.0,73.0
382,89.62905456041666,89.76967956041666,54.0,81.0
383,89.31655456041666,90.05483581041666,49.0,76.0
384,89.94155456041666,90.28725768541666,54.0,81.0
385,89.94155456041666,90.61342956041666,61.0,82.0
386,90.56655456041666,90.87905456041666,54.0,70.0
387,90.25405456041666,92.14858581041666,49.0,77.0
388,89.00405456041666,92.15639831041666,42.0,82.0
389,90.87905456041666,92.59975768541666,54.0,76.0
390,90.87905456041666,92.60952331041666,58.0,77.0
391,92.75405456041666,93.58803893541666,53.0,69.0
392,92.75405456041666,93.60561706041666,58.0,71.0
393,92.75405456041666,93.71303893541666,46.0,67.0
394,93.69155456041666,94.43374206041666,60.0,79.0
395,93.69155456041666,94.46889831041666,56.0,68.0
396,93.69155456041666,94.48061706041666,44.0,67.0
397,94.62905456041666,95.46108581041666,49.0,78.0
398,94.62905456041666,95.47280456041666,56.0,67.0
399,94.62905456041666,95.57632018541666,61.0,59.0
400,95.56655456041666,96.28921081041666,56.0,66.0
401,95.56655456041666,96.32046081041666,60.0,72.0
402,95.56655456041666,96.39077331041666,44.0,72.0
403,96.50405456041666,97.28139831041666,58.0,70.0
404,96.50405456041666,97.29311706041666,46.0,68.0
405,96.50405456041666,97.31655456041666,53.0,72.0
406,97.44155456041666,98.10561706041666,60.0,51.0
407,97.44155456041666,98.15249206041666,56.0,42.0
408,97.44155456041666,98.30092956041666,44.0,79.0
409,98.37905456041666,99.12710143541666,56.0,66.0
410,98.37905456041666,99.17592956041666,49.0,77.0
411,98.37905456041666,99.24428893541666,61.0,71.0
412,99.31655456041666,100.08803893541666,56.0,73.0
413,99.31655456041666,100.08999206041666,60.0,71.0
414,99.31655456041666,100.10561706041666,44.0,71.0
415,100.25405456041666,101.60197507708334,54.0,70.0
416,100.25405456041666,104.05337198333334,61.0,77.0
417,100.25405456041666,104.06509073333334,42.0,76.0
418,102.20114830625,104.08852823333334,58.0,70.0
419,101.87056997291667,104.10220010833334,54.0,69.0
420,101.53999163958333,104.10610635833334,49.0,75.0
421,104.13930948333334,104.47329385833334,58.0,82.0
422,104.13930948333334,104.60610635833334,65.0,83.0
423,104.60805948333334,104.82290323333334,58.0,82.0
424,104.76430948333334,104.95180948333334,61.0,80.0
425,104.45180948333334,105.20180948333334,53.0,74.0
426,105.07680948333334,105.34634073333334,58.0,84.0
427,105.07680948333334,105.34634073333334,65.0,85.0
428,105.54555948333334,105.71938760833334,58.0,79.0
429,105.38930948333334,105.83071573333334,53.0,80.0
430,105.70180948333334,105.85220010833334,61.0,75.0
431,104.13930948333334,105.89126260833334,46.0,84.0
432,105.85805948333334,106.00259073333334,58.0,78.0
433,106.01430948333334,106.33852823333334,58.0,79.0
434,106.01430948333334,106.40298135833334,65.0,85.0
435,106.63930948333334,106.76430948333334,58.0,83.0
436,106.32680948333334,107.04555948333334,53.0,76.0
437,106.95180948333334,107.24087198333334,58.0,84.0
438,106.95180948333334,107.30337198333334,61.0,88.0
439,106.01430948333334,107.33071573333334,46.0,83.0
440,106.95180948333334,107.35610635833334,65.0,93.0
441,107.26430948333334,107.41079385833334,53.0,82.0
442,107.42055948333334,107.62563760833334,58.0,83.0
443,107.57680948333334,107.76040323333334,61.0,82.0
444,107.73305948333334,107.88930948333334,58.0,83.0
445,108.51430948333334,108.64712198333334,54.0,87.0
446,108.82680948333334,108.96938760833334,54.0,84.0
447,108.82680948333334,108.97915323333334,61.0,84.0
448,109.13930948333334,109.25845010833334,54.0,85.0
449,109.13930948333334,109.29165323333334,61.0,82.0
450,108.20180948333334,109.32485635833334,49.0,72.0
451,109.29555948333334,109.45766885833334,58.0,76.0
452,107.88930948333334,109.52016885833334,42.0,83.0
453,109.45180948333334,109.64516885833334,54.0,83.0
454,109.60805948333334,109.76040323333334,58.0,82.0
455,109.76430948333334,109.95962198333334,54.0,78.0
456,109.76430948333334,110.07095010833334,61.0,83.0
457,110.38930948333334,110.56118448333334,54.0,81.0
458,110.07680948333334,110.78774698333334,49.0,74.0
459,110.70180948333334,110.98891885833334,54.0,83.0
460,110.70180948333334,111.03970010833334,58.0,86.0
461,110.70180948333334,111.04751260833334,65.0,84.0
462,109.76430948333334,111.10415323333334,42.0,83.0
463,111.01430948333334,111.32680948333334,49.0,84.0
464,111.32680948333334,111.47329385833334,42.0,83.0
465,111.63930948333334,111.87954385833334,63.0,81.0
466,111.63930948333334,111.90493448333334,58.0,77.0
467,111.95180948333334,112.14321573333334,63.0,82.0
468,112.10805948333334,112.31509073333334,58.0,84.0
469,111.63930948333334,112.42055948333334,39.0,85.0
470,112.26430948333334,112.46352823333334,63.0,76.0
471,111.95180948333334,112.50454385833334,46.0,57.0
472,112.42055948333334,112.54946573333334,66.0,75.0
473,112.57680948333334,112.92446573333334,58.0,70.0
474,112.57680948333334,113.25454385833334,39.0,87.0
475,112.57680948333334,113.25845010833334,66.0,83.0
476,112.88930948333334,113.30923135833334,46.0,83.0
477,113.20180948333334,113.35024698333334,58.0,82.0
478,113.51430948333334,113.69399698333334,68.0,77.0
479,113.51430948333334,113.74673135833334,65.0,81.0
480,113.51430948333334,113.80727823333334,60.0,82.0
481,113.82680948333334,113.99477823333334,65.0,84.0
482,113.98305948333334,114.17641885833334,60.0,83.0
483,114.13930948333334,114.30141885833334,65.0,78.0
484,114.29555948333334,114.40688760833334,60.0,82.0
485,113.82680948333334,114.65298135833334,48.0,74.0
486,114.45180948333334,114.76821573333334,60.0,84.0
487,113.51430948333334,114.90298135833334,41.0,88.0
488,114.76430948333334,114.93423135833334,48.0,83.0
489,114.45180948333334,115.09829385833334,68.0,83.0
490,115.07680948333334,115.23891885833334,60.0,85.0
491,116.32680948333334,116.72720010833334,58.0,84.0
492,116.01430948333334,117.00454385833334,54.0,83.0
493,116.63930948333334,117.08462198333334,61.0,81.0
494,116.95180948333334,117.12954385833334,66.0,77.0
495,117.26430948333334,118.43423135833334,54.0,69.0
496,117.26430948333334,118.44204385833334,58.0,77.0
497,115.70180948333334,118.44790323333334,49.0,78.0
498,117.26430948333334,118.48110635833334,61.0,70.0
499,115.38930948333334,118.49087198333334,42.0,82.0
500,119.76430948333334,120.20180948333334,58.0,83.0
501,120.07680948333334,120.21743448333334,61.0,78.0
502,120.07680948333334,120.23891885833334,65.0,82.0
503,119.13930948333334,120.89907510833334,46.0,83.0
504,119.45180948333334,120.91274698333334,53.0,70.0
505,121.01430948333334,121.42055948333334,58.0,69.0
506,121.01430948333334,121.65688760833334,61.0,74.0
507,121.63930948333334,121.95180948333334,58.0,76.0
508,121.95180948333334,122.56509073333334,65.0,84.0
509,121.32680948333334,122.66470010833334,53.0,67.0
510,121.01430948333334,122.77212198333334,46.0,74.0
511,122.57680948333334,122.81704385833334,58.0,71.0
512,122.88930948333334,123.25063760833334,63.0,77.0
513,123.20180948333334,123.76040323333334,58.0,79.0
514,123.51430948333334,123.90298135833334,63.0,76.0
515,123.82680948333334,124.03384073333334,67.0,82.0
516,122.88930948333334,124.16860635833334,51.0,77.0
517,124.76430948333334,125.13345010833334,58.0,67.0
518,124.76430948333334,125.45180948333334,63.0,70.0
519,125.38930948333334,125.57290323333334,58.0,70.0
520,125.70180948333334,125.86391885833334,63.0,80.0
521,125.07680948333334,125.87759073333334,46.0,63.0
522,125.70180948333334,125.89712198333334,58.0,80.0
523,124.76430948333334,125.90102823333334,39.0,76.0
524,126.63930948333334,126.87173135833334,56.0,75.0
525,126.63930948333334,127.24087198333334,65.0,81.0
526,126.95180948333334,127.36001260833334,56.0,77.0
527,127.26430948333334,127.44790323333334,61.0,79.0
528,127.57680948333334,127.81313760833334,65.0,82.0
529,126.63930948333334,127.97720010833334,49.0,76.0
530,128.51430948333334,128.80337198333334,56.0,71.0
531,128.51430948333334,129.15688760833334,61.0,71.0
532,129.13930948333334,129.53579385833334,56.0,81.0
533,128.82680948333334,129.61587198333334,44.0,66.0
534,128.51430948333334,129.70766885833334,37.0,73.0
535,129.45180948333334,129.78970010833334,61.0,80.0
536,129.76430948333334,130.11782510833334,63.0,78.0
537,130.07680948333334,130.40493448333334,61.0,79.0
538,131.01430948333334,131.41274698333334,53.0,82.0
539,130.70180948333334,131.59438760833334,48.0,62.0
540,131.32680948333334,131.73501260833334,60.0,78.0
541,130.38930948333334,131.98891885833334,65.0,78.0
542,130.38930948333334,132.00259073333334,41.0,83.0
543,131.63930948333334,132.04946573333334,53.0,82.0
544,131.95180948333334,132.14516885833334,60.0,74.0
545,132.26430948333334,132.72134073333334,60.0,78.0
546,132.26430948333334,132.82485635833334,65.0,84.0
547,132.26430948333334,132.83266885833334,53.0,81.0
548,133.20180948333334,133.48305948333334,53.0,82.0
549,133.20180948333334,133.57290323333334,57.0,76.0
550,132.26430948333334,133.62759073333334,41.0,84.0
551,133.51430948333334,133.69204385833334,48.0,70.0
552,133.82680948333334,133.94204385833334,53.0,82.0
553,134.13930948333334,134.55141885833334,58.0,72.0
554,134.13930948333334,134.83071573333334,61.0,76.0
555,134.76430948333334,135.01040323333334,58.0,76.0
556,135.07680948333334,135.17055948333334,61.0,77.0
557,135.07680948333334,135.19790323333334,65.0,83.0
558,134.45180948333334,135.73891885833334,53.0,74.0
559,134.13930948333334,135.87954385833334,46.0,78.0
560,136.01430948333334,136.31899698333334,58.0,67.0
561,136.01430948333334,136.65102823333334,61.0,73.0
562,136.63930948333334,136.80141885833334,58.0,77.0
563,136.95180948333334,137.19595010833334,58.0,82.0
564,136.95180948333334,137.59634073333334,65.0,83.0
565,136.32680948333334,137.72524698333334,53.0,68.0
566,136.01430948333334,137.78188760833334,46.0,81.0
567,137.88930948333334,138.03970010833334,58.0,70.0
568,137.88930948333334,138.22524698333334,63.0,76.0
569,138.20180948333334,138.60610635833334,58.0,78.0
570,138.51430948333334,138.67055948333334,63.0,78.0
571,138.82680948333334,138.99868448333334,63.0,78.0
572,138.82680948333334,139.00454385833334,58.0,73.0
573,138.82680948333334,139.01235635833334,67.0,74.0
574,137.88930948333334,139.01430948333334,51.0,77.0
575,139.76430948333334,140.03774698333334,63.0,75.0
576,139.76430948333334,140.05141885833334,58.0,70.0
577,140.38930948333334,140.59438760833334,51.0,69.0
578,140.70180948333334,140.87954385833334,51.0,82.0
579,140.07680948333334,140.90102823333334,46.0,67.0
580,140.70180948333334,140.91665323333334,58.0,80.0
581,139.76430948333334,140.91860635833334,39.0,73.0
582,141.63930948333334,141.81509073333334,56.0,77.0
583,141.63930948333334,142.22524698333334,65.0,83.0
584,141.95180948333334,142.34048135833334,56.0,74.0
585,142.26430948333334,142.41274698333334,61.0,74.0
586,142.57680948333334,142.78579385833334,56.0,79.0
587,142.57680948333334,142.80532510833334,65.0,82.0
588,141.63930948333334,142.98305948333334,49.0,77.0
589,143.51430948333334,143.66860635833334,56.0,72.0
590,143.51430948333334,143.84243448333334,61.0,74.0
591,143.51430948333334,144.01626260833334,37.0,72.0
592,143.82680948333334,144.21352823333334,56.0,76.0
593,144.13930948333334,144.27602823333334,61.0,77.0
594,144.45180948333334,144.82290323333334,65.0,82.0
595,144.45180948333334,144.92641885833334,56.0,73.0
596,144.76430948333334,145.10805948333334,61.0,71.0
597,145.07680948333334,145.28579385833334,39.0,82.0
598,145.38930948333334,145.62563760833334,60.0,73.0
599,145.38930948333334,145.74477823333334,65.0,77.0
600,145.70180948333334,146.13149698333334,60.0,69.0
601,146.01430948333334,146.21157510833334,65.0,77.0
602,146.32680948333334,146.65102823333334,60.0,77.0
603,146.32680948333334,146.70180948333334,69.0,76.0
604,146.63930948333334,146.90102823333334,65.0,84.0
605,145.38930948333334,147.15688760833334,41.0,84.0
606,146.95180948333334,147.17641885833334,60.0,83.0
607,147.26430948333334,148.74673135833334,60.0,85.0
608,147.26430948333334,148.77016885833334,65.0,88.0
609,147.26430948333334,148.88540323333334,41.0,84.0
610,149.13930948333334,149.44399698333334,54.0,82.0
611,149.13930948333334,149.54555948333334,58.0,82.0
612,149.76430948333334,149.90102823333334,54.0,82.0
613,149.45180948333334,150.14712198333334,49.0,75.0
614,150.07680948333334,150.39126260833334,61.0,84.0
615,150.07680948333334,150.39712198333334,54.0,83.0
616,149.13930948333334,150.40884073333334,42.0,84.0
617,150.38930948333334,150.50454385833334,49.0,83.0
618,150.70180948333334,150.79751260833334,54.0,83.0
619,151.01430948333334,151.23110635833334,61.0,82.0
620,151.01430948333334,151.23891885833334,56.0,83.0
621,151.32680948333334,151.46743448333334,61.0,78.0
622,151.48305948333334,151.64126260833334,56.0,78.0
623,151.63930948333334,151.76430948333334,61.0,72.0
624,151.01430948333334,151.88540323333334,49.0,93.0
625,151.79555948333334,151.90884073333334,56.0,81.0
626,151.95180948333334,152.12173135833334,56.0,83.0
627,151.95180948333334,152.17446573333334,61.0,84.0
628,151.95180948333334,152.31509073333334,49.0,87.0
629,151.95180948333334,152.32876260833334,65.0,83.0
630,152.26430948333334,152.56313760833334,61.0,81.0
631,152.57680948333334,152.71743448333334,56.0,84.0
632,152.88930948333334,153.21938760833334,54.0,78.0
633,152.88930948333334,153.56509073333334,58.0,77.0
634,153.51430948333334,153.65298135833334,54.0,84.0
635,153.20180948333334,153.95180948333334,49.0,72.0
636,152.88930948333334,154.00454385833334,42.0,82.0
637,153.82680948333334,154.00454385833334,54.0,88.0
638,153.82680948333334,154.01626260833334,58.0,87.0
639,154.13930948333334,154.36391885833334,42.0,80.0
640,154.45180948333334,154.69399698333334,42.0,72.0
641,154.76430948333334,154.92837198333334,56.0,84.0
642,154.76430948333334,155.07680948333334,61.0,83.0
643,155.07680948333334,155.22915323333334,56.0,83.0
644,155.23305948333334,155.34243448333334,61.0,75.0
645,155.38930948333334,155.56704385833334,56.0,78.0
646,154.76430948333334,155.60415323333334,49.0,98.0
647,155.54555948333334,155.65102823333334,61.0,74.0
648,155.70180948333334,155.98696573333334,56.0,81.0
649,155.70180948333334,156.01430948333334,65.0,84.0
650,155.70180948333334,156.29555948333334,49.0,89.0
651,156.01430948333334,156.34438760833334,61.0,82.0
652,156.32680948333334,156.47720010833334,56.0,84.0
653,156.63930948333334,156.87368448333334,58.0,81.0
654,156.63930948333334,157.03774698333334,63.0,81.0
655,156.95180948333334,157.34634073333334,58.0,75.0
656,157.26430948333334,157.40884073333334,63.0,72.0
657,157.57680948333334,157.76040323333334,58.0,83.0
658,157.57680948333334,157.87368448333334,66.0,85.0
659,156.63930948333334,157.93227823333334,51.0,85.0
660,157.88930948333334,158.16079385833334,63.0,82.0
661,158.20180948333334,158.28579385833334,58.0,73.0
662,158.51430948333334,158.70571573333334,65.0,80.0
663,158.51430948333334,158.73501260833334,60.0,76.0
664,158.82680948333334,158.95180948333334,65.0,78.0
665,158.98305948333334,159.15884073333334,60.0,80.0
666,159.13930948333334,159.31118448333334,65.0,76.0
667,158.51430948333334,159.39907510833334,41.0,83.0
668,159.29555948333334,159.40688760833334,60.0,75.0
669,159.45180948333334,159.65884073333334,60.0,83.0
670,159.45180948333334,159.74868448333334,65.0,86.0
671,159.45180948333334,159.89126260833334,68.0,82.0
672,159.45180948333334,159.93423135833334,41.0,84.0
673,159.76430948333334,160.11977823333334,60.0,82.0
674,160.07680948333334,160.18227823333334,65.0,75.0
675,160.38930948333334,160.75454385833334,58.0,78.0
676,160.38930948333334,160.78384073333334,61.0,82.0
677,161.01430948333334,161.14516885833334,58.0,79.0
678,160.70180948333334,161.47524698333334,53.0,75.0
679,161.32680948333334,161.49673135833334,58.0,82.0
680,160.38930948333334,161.60415323333334,46.0,83.0
681,161.32680948333334,161.70376260833334,61.0,84.0
682,161.63930948333334,161.86391885833334,58.0,79.0
683,161.95180948333334,162.08266885833334,61.0,71.0
684,162.26430948333334,162.49087198333334,58.0,84.0
685,162.26430948333334,162.50063760833334,54.0,82.0
686,162.42055948333334,162.86587198333334,49.0,82.0
687,162.73305948333334,162.94204385833334,54.0,83.0
688,162.26430948333334,163.05141885833334,42.0,84.0
689,162.88930948333334,163.06313760833334,58.0,84.0
690,163.20180948333334,163.53188760833334,53.0,91.0
691,163.20180948333334,163.58266885833334,57.0,88.0
692,163.20180948333334,163.86391885833334,41.0,88.0
693,163.51430948333334,163.88930948333334,48.0,83.0
694,163.82680948333334,164.00259073333334,53.0,88.0
695,164.13930948333334,164.53384073333334,54.0,83.0
696,164.13930948333334,164.82485635833334,61.0,82.0
697,164.76430948333334,164.92641885833334,54.0,86.0
698,164.45180948333334,165.14712198333334,49.0,73.0
699,164.13930948333334,165.22524698333334,42.0,86.0
700,165.07680948333334,165.33462198333334,54.0,87.0
701,165.07680948333334,165.44790323333334,58.0,91.0
702,165.07680948333334,165.47915323333334,61.0,91.0
703,165.38930948333334,165.53188760833334,49.0,83.0
704,165.54555948333334,165.74087198333334,54.0,83.0
705,165.70180948333334,165.89907510833334,58.0,76.0
706,166.01430948333334,166.20571573333334,56.0,78.0
707,166.01430948333334,166.37173135833334,61.0,82.0
708,166.32680948333334,166.67055948333334,56.0,80.0
709,166.63930948333334,166.76626260833334,61.0,74.0
710,166.95180948333334,167.23305948333334,56.0,83.0
711,166.95180948333334,167.27407510833334,65.0,87.0
712,166.01430948333334,167.54946573333334,49.0,84.0
713,167.26430948333334,167.55923135833334,61.0,82.0
714,167.57680948333334,167.70180948333334,56.0,83.0
715,167.88930948333334,168.18032510833334,54.0,82.0
716,167.88930948333334,168.20376260833334,58.0,77.0
717,168.35805948333334,168.60805948333334,54.0,82.0
718,168.51430948333334,168.70571573333334,58.0,80.0
719,168.67055948333334,168.76430948333334,61.0,76.0
720,168.20180948333334,168.80532510833334,49.0,74.0
721,167.88930948333334,168.81313760833334,42.0,82.0
722,168.82680948333334,169.11977823333334,54.0,83.0
723,168.82680948333334,169.39516885833334,61.0,84.0
724,169.13930948333334,169.55532510833334,49.0,87.0
725,169.45180948333334,169.57290323333334,54.0,84.0
726,169.76430948333334,170.13149698333334,58.0,79.0
727,169.76430948333334,170.19985635833334,65.0,84.0
728,170.07680948333334,170.25259073333334,61.0,72.0
729,170.23305948333334,170.42641885833334,58.0,79.0
730,170.38930948333334,170.51430948333334,61.0,73.0
731,170.07680948333334,170.87759073333334,53.0,75.0
732,170.70180948333334,171.08266885833334,58.0,84.0
733,170.70180948333334,171.13540323333334,65.0,84.0
734,171.01430948333334,171.41665323333334,53.0,82.0
735,169.76430948333334,171.43423135833334,46.0,84.0
736,171.32680948333334,171.52407510833334,61.0,82.0
737,171.63930948333334,171.81118448333334,58.0,78.0
738,171.63930948333334,172.01626260833334,63.0,82.0
739,171.95180948333334,172.31118448333334,58.0,76.0
740,172.26430948333334,172.40493448333334,63.0,73.0
741,171.63930948333334,172.71157510833334,51.0,86.0
742,172.57680948333334,172.91665323333334,58.0,83.0
743,172.88930948333334,173.04165323333334,51.0,85.0
744,172.57680948333334,173.25259073333334,63.0,87.0
745,173.20180948333334,173.34243448333334,58.0,75.0
746,173.51430948333334,173.86782510833334,60.0,78.0
747,173.51430948333334,173.97915323333334,65.0,81.0
748,173.98305948333334,174.19790323333334,60.0,76.0
749,174.13930948333334,174.39321573333334,65.0,78.0
750,173.82680948333334,174.67837198333334,48.0,69.0
751,174.45180948333334,174.74087198333334,60.0,75.0
752,174.45180948333334,174.87954385833334,65.0,84.0
753,174.76430948333334,174.95180948333334,48.0,78.0
754,174.45180948333334,174.95962198333334,68.0,83.0
755,173.51430948333334,174.97329385833334,41.0,85.0
756,175.07680948333334,175.19985635833334,60.0,84.0
757,175.38930948333334,175.81509073333334,54.0,81.0
758,175.38930948333334,176.08462198333334,61.0,79.0
759,176.01430948333334,176.20962198333334,54.0,84.0
760,175.70180948333334,176.42251260833334,49.0,74.0
761,175.38930948333334,176.51626260833334,42.0,84.0
762,176.32680948333334,176.64712198333334,54.0,83.0
763,176.63930948333334,176.76626260833334,42.0,66.0
764,176.32680948333334,176.76626260833334,58.0,83.0
765,176.63930948333334,176.79165323333334,49.0,84.0
766,176.95180948333334,177.09829385833334,54.0,80.0
767,177.26430948333334,177.41665323333334,53.0,84.0
768,177.26430948333334,177.42251260833334,57.0,81.0
769,177.26430948333334,177.44399698333334,41.0,88.0
770,177.57680948333334,177.71548135833334,41.0,91.0
771,177.57680948333334,177.73305948333334,53.0,89.0
772,177.57680948333334,177.74868448333334,57.0,87.0
773,178.20180948333334,178.41665323333334,53.0,84.0
774,178.20180948333334,178.42055948333334,41.0,82.0
775,178.20180948333334,178.43618448333334,57.0,82.0
776,178.20180948333334,178.43618448333334,60.0,82.0
777,178.20180948333334,178.44985635833334,65.0,84.0
778,178.51430948333334,178.70571573333334,53.0,83.0
779,178.51430948333334,178.71352823333334,65.0,84.0
780,178.51430948333334,178.72915323333334,57.0,83.0
781,178.51430948333334,178.74868448333334,41.0,78.0
782,178.51430948333334,178.76430948333334,60.0,83.0
783,179.13930948333334,179.31313760833334,54.0,77.0
784,179.13930948333334,179.31509073333334,42.0,83.0
785,179.13930948333334,179.31704385833334,58.0,78.0
786,179.13930948333334,179.33462198333334,66.0,82.0
787,179.45180948333334,179.60805948333334,58.0,83.0
788,179.45180948333334,179.61587198333334,66.0,79.0
789,179.45180948333334,179.61977823333334,54.0,82.0
790,179.45180948333334,179.65884073333334,42.0,83.0
791,180.07680948333334,180.23891885833334,54.0,77.0
792,180.07680948333334,180.24087198333334,42.0,76.0
793,180.07680948333334,180.24673135833334,58.0,78.0
794,180.07680948333334,180.25063760833334,66.0,82.0
795,180.38930948333334,180.50454385833334,54.0,82.0
796,180.38930948333334,180.52212198333334,58.0,83.0
797,180.38930948333334,180.55923135833334,42.0,83.0
798,180.38930948333334,180.56118448333334,66.0,81.0
799,181.01430948333334,181.72915323333334,65.0,84.0
800,181.01430948333334,181.74282510833334,61.0,82.0
801,181.01430948333334,181.74673135833334,56.0,80.0
802,181.01430948333334,182.06118448333334,49.0,91.0
803,181.95180948333334,182.26430948333334,56.0,86.0
804,181.95180948333334,182.36977823333334,61.0,91.0
805,182.26430948333334,182.41665323333334,49.0,93.0
806,182.57680948333334,182.76626260833334,61.0,55.0
807,182.57680948333334,182.88345010833334,56.0,93.0
808,182.88930948333334,183.21938760833334,54.0,78.0
809,182.88930948333334,183.56509073333334,58.0,77.0
810,183.51430948333334,183.65298135833334,54.0,84.0
811,183.20180948333334,183.95180948333334,49.0,72.0
812,182.88930948333334,184.00454385833334,42.0,82.0
813,183.82680948333334,184.00454385833334,54.0,88.0
814,183.82680948333334,184.01626260833334,58.0,87.0
815,184.13930948333334,184.36391885833334,42.0,80.0
816,184.45180948333334,184.69399698333334,42.0,72.0
817,184.76430948333334,184.92837198333334,56.0,84.0
818,184.76430948333334,185.07680948333334,61.0,83.0
819,185.07680948333334,185.22915323333334,56.0,83.0
820,185.23305948333334,185.34243448333334,61.0,75.0
821,185.38930948333334,185.56704385833334,56.0,78.0
822,184.76430948333334,185.60415323333334,49.0,98.0
823,185.54555948333334,185.65102823333334,61.0,74.0
824,185.70180948333334,185.98696573333334,56.0,81.0
825,185.70180948333334,186.01430948333334,65.0,84.0
826,185.70180948333334,186.29555948333334,49.0,89.0
827,186.01430948333334,186.34438760833334,61.0,82.0
828,186.32680948333334,186.47720010833334,56.0,84.0
829,186.63930948333334,186.87368448333334,58.0,81.0
830,186.63930948333334,187.03774698333334,63.0,81.0
831,186.95180948333334,187.34634073333334,58.0,75.0
832,187.26430948333334,187.40884073333334,63.0,72.0
833,187.57680948333334,187.76040323333334,58.0,83.0
834,187.57680948333334,187.87368448333334,66.0,85.0
835,186.63930948333334,187.93227823333334,51.0,85.0
836,187.88930948333334,188.16079385833334,63.0,82.0
837,188.20180948333334,188.28579385833334,58.0,73.0
838,188.51430948333334,188.70571573333334,65.0,80.0
839,188.51430948333334,188.73501260833334,60.0,76.0
840,188.82680948333334,188.95180948333334,65.0,78.0
841,188.98305948333334,189.15884073333334,60.0,80.0
842,189.13930948333334,189.31118448333334,65.0,76.0
843,188.51430948333334,189.39907510833334,41.0,83.0
844,189.29555948333334,189.40688760833334,60.0,75.0
845,189.45180948333334,189.65884073333334,60.0,83.0
846,189.45180948333334,189.74868448333334,65.0,86.0
847,189.45180948333334,189.89126260833334,68.0,82.0
848,189.45180948333334,189.93423135833334,41.0,84.0
849,189.76430948333334,190.11977823333334,60.0,82.0
850,190.07680948333334,190.18227823333334,65.0,75.0
851,190.38930948333334,190.75454385833334,58.0,78.0
852,190.38930948333334,190.78384073333334,61.0,82.0
853,191.01430948333334,191.14516885833334,58.0,79.0
854,190.70180948333334,191.47524698333334,53.0,75.0
855,191.32680948333334,191.49673135833334,58.0,82.0
856,190.38930948333334,191.60415323333334,46.0,83.0
857,191.32680948333334,191.70376260833334,61.0,84.0
858,191.63930948333334,191.86391885833334,58.0,79.0
859,191.95180948333334,192.08266885833334,61.0,71.0
860,192.26430948333334,192.49087198333334,58.0,84.0
861,192.26430948333334,192.50063760833334,54.0,82.0
862,192.42055948333334,192.86587198333334,49.0,82.0
863,192.73305948333334,192.94204385833334,54.0,83.0
864,192.26430948333334,193.05141885833334,42.0,84.0
865,192.88930948333334,193.06313760833334,58.0,84.0
866,193.20180948333334,193.53188760833334,53.0,91.0
867,193.20180948333334,193.58266885833334,57.0,88.0
868,193.20180948333334,193.86391885833334,41.0,88.0
869,193.51430948333334,193.88930948333334,48.0,83.0
870,193.82680948333334,194.00259073333334,53.0,88.0
871,194.13930948333334,194.53384073333334,54.0,83.0
872,194.13930948333334,194.82485635833334,61.0,82.0
873,194.76430948333334,194.92641885833334,54.0,86.0
874,194.45180948333334,195.14712198333334,49.0,73.0
875,194.13930948333334,195.22524698333334,42.0,86.0
876,195.07680948333334,195.33462198333334,54.0,87.0
877,195.07680948333334,195.44790323333334,58.0,91.0
878,195.07680948333334,195.47915323333334,61.0,91.0
879,195.38930948333334,195.53188760833334,49.0,83.0
880,195.54555948333334,195.74087198333334,54.0,83.0
881,195.70180948333334,195.89907510833334,58.0,76.0
882,196.01430948333334,196.20571573333334,56.0,78.0
883,196.01430948333334,196.37173135833334,61.0,82.0
884,196.32680948333334,196.67055948333334,56.0,80.0
885,196.63930948333334,196.76626260833334,61.0,74.0
886,196.95180948333334,197.23305948333334,56.0,83.0
887,196.95180948333334,197.27407510833334,65.0,87.0
888,196.01430948333334,197.54946573333334,49.0,84.0
889,197.26430948333334,197.55923135833334,61.0,82.0
890,197.57680948333334,197.70180948333334,56.0,83.0
891,197.88930948333334,198.18032510833334,54.0,82.0
892,197.88930948333334,198.20376260833334,58.0,77.0
893,198.35805948333334,198.60805948333334,54.0,82.0
894,198.51430948333334,198.70571573333334,58.0,80.0
895,198.67055948333334,198.76430948333334,61.0,76.0
896,198.20180948333334,198.80532510833334,49.0,74.0
897,197.88930948333334,198.81313760833334,42.0,82.0
898,198.82680948333334,199.11977823333334,54.0,83.0
899,198.82680948333334,199.39516885833334,61.0,84.0
900,199.13930948333334,199.55532510833334,49.0,87.0
901,199.45180948333334,199.57290323333334,54.0,84.0
902,199.76430948333334,200.13149698333334,58.0,79.0
903,199.76430948333334,200.19985635833334,65.0,84.0
904,200.07680948333334,200.25259073333334,61.0,72.0
905,200.23305948333334,200.42641885833334,58.0,79.0
906,200.38930948333334,200.51430948333334,61.0,73.0
907,200.07680948333334,200.87759073333334,53.0,75.0
908,200.70180948333334,201.08266885833334,58.0,84.0
909,200.70180948333334,201.13540323333334,65.0,84.0
910,201.01430948333334,201.41665323333334,53.0,82.0
911,199.76430948333334,201.43423135833334,46.0,84.0
912,201.32680948333334,201.52407510833334,61.0,82.0
913,201.63930948333334,201.81118448333334,58.0,78.0
914,201.63930948333334,202.01626260833334,63.0,82.0
915,201.95180948333334,202.31118448333334,58.0,76.0
916,202.26430948333334,202.40493448333334,63.0,73.0
917,201.63930948333334,202.71157510833334,51.0,86.0
918,202.57680948333334,202.91665323333334,58.0,83.0
919,202.88930948333334,203.04165323333334,51.0,85.0
920,202.57680948333334,203.25259073333334,63.0,87.0
921,203.20180948333334,203.34243448333334,58.0,75.0
922,203.51430948333334,203.86782510833334,60.0,78.0
923,203.51430948333334,203.97915323333334,65.0,81.0
924,203.98305948333334,204.19790323333334,60.0,76.0
925,204.13930948333334,204.39321573333334,65.0,78.0
926,203.82680948333334,204.67837198333334,48.0,69.0
927,204.45180948333334,204.74087198333334,60.0,75.0
928,204.45180948333334,204.87954385833334,65.0,84.0
929,204.76430948333334,204.95180948333334,48.0,78.0
930,204.45180948333334,204.95962198333334,68.0,83.0
931,203.51430948333334,204.97329385833334,41.0,85.0
932,205.07680948333334,205.19985635833334,60.0,84.0
933,205.38930948333334,206.0632994,61.0,85.0
934,205.70361583333334,206.45912752916666,53.0,72.0
935,206.01982116666667,206.62981018541666,58.0,83.0
936,206.3360265,207.04748068541667,65.0,84.0
937,206.65591459166666,207.13985012291667,53.0,76.0
938,205.38930948333334,207.18001074791667,46.0,82.0
939,206.97719959166668,207.18804287291667,58.0,82.0
940,207.29848459166666,208.39687768541665,46.0,76.0
941,207.29848459166666,209.01133524791666,58.0,73.0
942,207.29848459166666,209.03743965416666,61.0,78.0
943,209.85558709166668,210.23058709166668,58.0,60.0
944,210.16808709166668,210.52550896666668,60.0,76.0
945,209.54308709166668,210.56847771666668,53.0,59.0
946,210.48058709166668,210.85949334166668,61.0,76.0
947,211.10558709166668,211.32629021666668,65.0,78.0
948,211.10558709166668,211.33605584166668,58.0,70.0
949,210.79308709166668,212.23839959166668,53.0,69.0
950,209.22619459166665,212.34582146666668,46.0,80.0
951,213.60558709166668,213.92785271666668,53.0,70.0
952,213.91808709166668,214.06457146666668,54.0,76.0
953,214.23058709166668,214.58800896666668,58.0,81.0
954,214.54308709166668,215.24087753333333,61.0,82.0
955,214.85558709166668,215.49779436666668,65.0,82.0
956,215.16973133333335,215.54917773333335,58.0,69.0
957,215.48593666666667,215.66577845,61.0,70.0
958,215.802142,216.11478067083334,58.0,75.0
959,213.29308709166668,216.16458145208335,49.0,68.0
960,215.802142,216.17254957708334,61.0,77.0
961,215.802142,216.24434270208334,66.0,80.0
962,212.98058709166668,216.30056757708334,42.0,75.0
963,217.08369976458334,218.02747445208334,46.0,65.0
964,216.76241476458335,218.06964310833334,39.0,83.0
965,217.72626976458335,218.08369932708334,63.0,82.0
966,217.40498476458333,218.12385995208334,58.0,72.0
967,218.36883976458336,218.74233357708334,58.0,67.0
968,218.04755476458334,218.76642995208334,66.0,78.0
969,219.33269476458335,219.98530492083336,53.0,76.0
970,219.65397976458334,220.03349767083336,56.0,83.0
971,219.01140976458333,220.22827670208335,48.0,65.0
972,218.69012476458335,220.32466220208335,41.0,82.0
973,220.29654976458335,220.42707179583334,53.0,78.0
974,219.97526476458336,220.44715210833334,60.0,76.0
975,221.29654932708334,222.74032379583335,54.0,83.0
976,221.71622785833335,222.79855670208335,58.0,83.0
977,222.15598670208334,222.81060488958335,61.0,74.0
978,220.98329645208335,222.92506267083334,49.0,71.0
979,220.62185082708334,222.99132770208334,42.0,83.0
980,222.75237198333335,223.06562485833334,66.0,74.0
981,224.06361638958336,224.77445945208333,49.0,69.0
982,223.86080523333334,224.80056385833333,42.0,63.0
983,224.18409826458335,224.81662810833333,70.0,60.0
984,224.08972079583336,224.84072448333333,66.0,60.0
985,224.27646770208335,224.85678873333336,78.0,65.0
