,start,end,pitch,velocity
0,21.8786283375,22.19112765,75.0,90.0
1,22.3198038375,22.595538525,75.0,88.0
2,22.7609793375,22.9006849125,75.0,90.0
3,22.9815670875,23.3823015,75.0,92.0
4,23.4227425875,24.0845058375,70.0,87.0
5,24.0845058375,24.5256813375,70.0,87.0
6,24.5256813375,24.816121875,68.0,92.0
7,24.9668568375,25.294062,70.0,90.0
8,25.4080323375,25.56428199375,72.0,87.0
9,25.6286200875,26.992587675,72.0,84.0
10,28.9374363375,29.066112524999998,75.0,92.0
11,29.1580240875,29.28118558125,75.0,88.0
12,29.3786118375,29.6727288375,75.0,97.0
13,29.8197873375,29.948463524999998,75.0,89.0
14,30.0403750875,30.43191834375,75.0,93.0
15,30.4815505875,31.05324050625,80.0,82.0
16,31.1433138375,31.5550776375,79.0,91.0
17,31.5844893375,31.95581205,75.0,88.0
18,32.025664837499995,32.53853135625,79.0,87.0
19,32.687428087499995,34.10470438125,80.0,87.0
20,34.6727178375,35.02749646875,75.0,97.0
21,35.1138933375,35.24440775625,80.0,92.0
22,35.3344810875,35.474186662499996,82.0,89.0
23,35.5550688375,36.47969915625,84.0,88.0
24,37.0991830875,38.2646217,82.0,93.0
25,38.8638850875,39.051384675,75.0,91.0
26,39.0844728375,39.42638385,80.0,78.0
27,39.5256483375,39.69292738125,79.0,91.0
28,39.7462360875,40.07344125,77.0,88.0
29,40.1874115875,40.5182932125,79.0,90.0
30,40.6285870875,41.54586448125,80.0,88.0
31,42.6138768375,42.9815230875,75.0,95.0
32,43.0550523375,43.18556675625,68.0,87.0
33,43.2756400875,43.9594621125,68.0,88.0
34,44.1579910875,44.3124025125,77.0,93.0
35,44.3785788375,44.68188699375,75.0,88.0
36,44.8197543375,44.94659229375,68.0,87.0
37,45.0403420875,45.4815175875,68.0,87.0
38,45.4815175875,45.760928737499995,77.0,87.0
39,45.9226930875,47.457616181249996,79.0,88.0
40,50.1138603375,50.426359649999995,75.0,90.0
41,50.5550358375,50.830770525,75.0,88.0
42,50.9962113375,51.1359169125,75.0,90.0
43,51.2167990875,51.6175335,75.0,92.0
44,51.6579745875,52.3197378375,70.0,87.0
45,52.3197378375,52.7609133375,70.0,87.0
46,52.7609133375,53.051353875,68.0,92.0
47,53.2020888375,53.529294,70.0,90.0
48,53.6432643375,53.79951399375,72.0,87.0
49,53.8638520875,55.227819675,72.0,84.0
50,57.1726683375,57.301344525,75.0,92.0
51,57.3932560875,57.516417581249996,75.0,88.0
52,57.6138438375,57.9079608375,75.0,97.0
53,58.0550193375,58.183695525,75.0,89.0
54,58.2756070875,58.667150343749995,75.0,93.0
55,58.7167825875,59.288472506249995,80.0,82.0
56,59.3785458375,59.790309637499995,79.0,91.0
57,59.8197213375,60.191044049999995,75.0,88.0
58,60.2608968375,60.77376335625,79.0,87.0
59,60.9226600875,62.33993638125,80.0,87.0
60,62.9079498375,63.26272846875,75.0,97.0
61,63.3491253375,63.479639756249995,80.0,92.0
62,63.5697130875,63.7094186625,82.0,89.0
63,63.7903008375,64.71493115625,84.0,88.0
64,65.33441508749999,66.4998537,82.0,93.0
65,67.09911708749999,67.28661667499999,75.0,91.0
66,67.3197048375,67.66161585,80.0,78.0
67,67.7608803375,67.92815938125,79.0,91.0
68,67.98146808749999,68.30867325,77.0,88.0
69,68.42264358749999,68.7535252125,79.0,90.0
70,68.86381908749999,69.78109648125,80.0,88.0
71,70.8491088375,71.21675508749999,75.0,95.0
72,71.2902843375,71.42079875625,68.0,87.0
73,71.51087208749999,72.1946941125,68.0,88.0
74,72.3932230875,72.5476345125,77.0,93.0
75,72.6138108375,72.91711899375,75.0,88.0
76,73.0549863375,73.18182429375,68.0,87.0
77,73.2755740875,73.7167495875,68.0,87.0
78,74.3785128375,74.889541125,79.0,93.0
79,75.0402760875,75.36196655625,79.0,93.0
80,75.4814515875,75.83990668125,80.0,88.0
81,75.9226270875,78.9115911,82.0,92.0
82,80.5549698375,80.87298384374999,72.0,97.0
83,80.9961453375,81.10092451874999,77.0,93.0
84,81.2167330875,81.3564386625,79.0,87.0
85,81.4373208375,82.67077400625,80.0,89.0
86,82.7608473375,82.90239114375,82.0,97.0
87,82.9814350875,83.81047738125,80.0,88.0
88,84.5255493375,84.65974021875,79.0,93.0
89,84.7461370875,84.8821662,77.0,90.0
90,84.9667248375,85.29025353749999,75.0,97.0
91,85.4079003375,85.54209121875,79.0,91.0
92,85.6284880875,85.9703991,82.0,90.0
93,86.0696635875,86.36745705,85.0,92.0
94,86.5108390875,87.4593664125,84.0,93.0
95,88.4961288375,88.8564221625,80.0,93.0
96,88.9373043375,89.11193630625,82.0,87.0
97,89.1578920875,89.44281793124999,84.0,93.0
98,89.5990675875,90.13031641875,87.0,95.0
99,90.2608308375,90.6064183125,85.0,91.0
100,90.7020063375,90.85825599374999,84.0,91.0
101,90.9225940875,91.30310795625,82.0,86.0
102,91.3637695875,91.904209575,80.0,93.0
103,92.0255328375,92.60273744999999,82.0,92.0
104,92.9078838375,93.4409709,77.0,90.0
105,93.5696470875,94.43177754375,79.0,92.0
106,94.6725858375,94.98508515,72.0,97.0
107,95.1137613375,95.21854051874999,77.0,100.0
108,95.3343490875,95.46486350625,79.0,91.0
109,95.5549368375,96.4372878375,80.0,88.0
110,96.4372878375,96.57331694999999,80.0,89.0
111,96.6578755875,97.0990510875,82.0,90.0
112,97.3196388375,98.00897555625,80.0,86.0
113,98.6431653375,98.74059159375,79.0,100.0
114,98.8637530875,98.95198818749999,77.0,92.0
115,99.0843408375,99.40235484374999,75.0,97.0
116,99.5255163375,99.64500136875,79.0,93.0
117,99.7461040875,100.065956325,82.0,92.0
118,100.1872795875,100.71852841875,85.0,93.0
119,100.8490428375,101.58617356875,84.0,97.0
120,102.6137448375,102.9666852375,80.0,91.0
121,103.0549203375,103.20749353125,82.0,89.0
122,103.2755080875,103.6137426375,84.0,93.0
123,103.7166835875,104.24425595625,87.0,93.0
124,104.3784468375,104.68175499374999,85.0,92.0
125,104.8196223375,104.9519749875,84.0,90.0
126,105.0402100875,105.33616531874999,82.0,87.0
127,105.4813855875,105.98689918125,80.0,92.0
128,106.1431488375,107.3931460875,82.0,92.0
129,107.90785083749999,108.24424715625,82.0,95.0
130,108.34902633749999,108.5034377625,84.0,92.0
131,108.5696140875,108.87659870625,82.0,90.0
132,109.0107895875,109.32696536249999,79.0,97.0
133,109.4519650875,110.55490383749999,80.0,89.0
134,110.7754915875,110.93909416874999,82.0,87.0
135,110.99607933749999,111.315931575,84.0,97.0
136,111.43725483749999,112.56409059375,82.0,92.0
137,112.76078133749999,112.91703099374999,80.0,89.0
138,112.9813690875,113.09533942499999,79.0,97.0
139,113.20195683749999,114.2534251125,80.0,86.0
140,114.3048955875,114.9519529875,87.0,91.0
141,114.96665883749999,115.9593037125,82.0,82.0
142,116.29018533749999,116.41334683125,82.0,92.0
143,116.5107730875,116.64496396874999,82.0,89.0
144,116.73136083749999,117.29202136875,82.0,92.0
145,117.3931240875,117.940917,79.0,93.0
146,118.05488733749999,120.20929436249999,77.0,90.0
147,139.7013871625,140.013886475,75.0,90.0
148,140.14256266249998,140.41829735,75.0,88.0
149,140.5837381625,140.7234437375,75.0,90.0
150,140.8043259125,141.205060325,75.0,92.0
151,141.2455014125,141.90726466249998,70.0,87.0
152,141.90726466249998,142.3484401625,70.0,87.0
153,142.3484401625,142.6388807,68.0,92.0
154,142.78961566249998,143.116820825,70.0,90.0
155,143.2307911625,143.38704081875,72.0,87.0
156,143.4513789125,144.8153465,72.0,84.0
157,146.7601951625,146.88887135,75.0,92.0
158,146.9807829125,147.10394440624998,75.0,88.0
159,147.20137066249998,147.49548766249998,75.0,97.0
160,147.6425461625,147.77122235,75.0,89.0
161,147.8631339125,148.25467716875,75.0,93.0
162,148.3043094125,148.87599933125,80.0,82.0
163,148.96607266249998,149.3778364625,79.0,91.0
164,149.4072481625,149.77857087499999,75.0,88.0
165,149.84842366249998,150.36129018124998,79.0,87.0
166,150.5101869125,151.92746320625,80.0,87.0
167,152.49547666249998,152.85025529375,75.0,97.0
168,152.9366521625,153.06716658124998,80.0,92.0
169,153.1572399125,153.29694548749998,82.0,89.0
170,153.37782766249998,154.30245798125,84.0,88.0
171,154.9219419125,156.087380525,82.0,93.0
172,156.6866439125,156.8741435,75.0,91.0
173,156.90723166249998,157.249142675,80.0,78.0
174,157.3484071625,157.51568620625,79.0,91.0
175,157.5689949125,157.896200075,77.0,88.0
176,158.0101704125,158.3410520375,79.0,90.0
177,158.4513459125,159.36862330625,80.0,88.0
178,160.43663566249998,160.8042819125,75.0,95.0
179,160.8778111625,161.00832558125,68.0,87.0
180,161.0983989125,161.7822209375,68.0,88.0
181,161.9807499125,162.1351613375,77.0,93.0
182,162.20133766249998,162.50464581875,75.0,88.0
183,162.6425131625,162.76935111875,68.0,87.0
184,162.8631009125,163.3042764125,68.0,87.0
185,163.96603966249998,164.47706795,79.0,93.0
186,164.6278029125,164.94949338125,79.0,93.0
187,165.0689784125,165.42743350625,80.0,88.0
188,165.5101539125,168.499117925,82.0,92.0
189,170.14249666249998,170.46051066874998,72.0,97.0
190,170.5836721625,170.68845134375,77.0,93.0
191,170.8042599125,170.9439654875,79.0,87.0
192,171.0248476625,172.25830083124998,80.0,89.0
193,172.3483741625,172.48991796874998,82.0,97.0
194,172.5689619125,173.39800420625,80.0,88.0
195,174.1130761625,174.24726704374999,79.0,93.0
196,174.3336639125,174.469693025,77.0,90.0
197,174.5542516625,174.8777803625,75.0,97.0
198,174.9954271625,175.12961804374999,79.0,91.0
199,175.2160149125,175.557925925,82.0,90.0
200,175.6571904125,175.95498387499998,85.0,92.0
201,176.0983659125,177.0468932375,84.0,93.0
202,178.0836556625,178.4439489875,80.0,93.0
203,178.5248311625,178.69946313124998,82.0,87.0
204,178.74541891249999,179.03034475624997,84.0,93.0
205,179.1865944125,179.71784324375,87.0,95.0
206,179.8483576625,180.19394513749998,85.0,91.0
207,180.2895331625,180.44578281875,84.0,91.0
208,180.51012091249999,180.89063478125,82.0,86.0
209,180.9512964125,181.49173639999998,80.0,93.0
210,181.6130596625,182.190264275,82.0,92.0
211,182.49541066249998,183.028497725,77.0,90.0
212,183.15717391249999,184.01930436875,79.0,92.0
213,184.26011266249998,184.572611975,72.0,97.0
214,184.7012881625,184.80606734375,77.0,100.0
215,184.92187591249998,185.05239033125,79.0,91.0
216,185.1424636625,186.02481466249998,80.0,88.0
217,186.02481466249998,186.160843775,80.0,89.0
218,186.2454024125,186.68657791249998,82.0,90.0
219,186.9071656625,187.59650238125,80.0,86.0
220,188.2306921625,188.32811841875,79.0,100.0
221,188.45127991249998,188.53951501249998,77.0,92.0
222,188.6718676625,188.98988166875,75.0,97.0
223,189.1130431625,189.23252819375,79.0,93.0
224,189.33363091249998,189.65348315,82.0,92.0
225,189.7748064125,190.30605524375,85.0,93.0
226,190.4365696625,191.17370039374998,84.0,97.0
227,192.2012716625,192.5542120625,80.0,91.0
228,192.6424471625,192.79502035625,82.0,89.0
229,192.86303491249998,193.2012694625,84.0,93.0
230,193.3042104125,193.83178278124998,87.0,93.0
231,193.9659736625,194.26928181875,85.0,92.0
232,194.4071491625,194.5395018125,84.0,90.0
233,194.62773691249998,194.92369214374997,82.0,87.0
234,195.0689124125,195.57442600625,80.0,92.0
235,195.7306756625,196.98067291249998,82.0,92.0
236,197.4953776625,197.83177398125,82.0,95.0
237,197.9365531625,198.0909645875,84.0,92.0
238,198.15714091249998,198.46412553124998,82.0,90.0
239,198.5983164125,198.9144921875,79.0,97.0
240,199.03949191249998,200.14243066249998,80.0,89.0
241,200.3630184125,200.52662099375,82.0,87.0
242,200.5836061625,200.90345839999998,84.0,97.0
243,201.0247816625,202.15161741875,82.0,92.0
244,202.3483081625,202.50455781875,80.0,89.0
245,202.5688959125,202.68286625,79.0,97.0
246,202.7894836625,203.8409519375,80.0,86.0
247,203.8924224125,204.5394798125,87.0,91.0
248,204.5541856625,205.5468305375,82.0,82.0
249,205.8777121625,206.00087365625,82.0,92.0
250,206.0982999125,206.23249079375,82.0,89.0
251,206.3188876625,206.87954819375,82.0,92.0
252,206.98065091249998,207.528443825,85.0,93.0
253,209.4071161625,209.53027765625,82.0,95.0
254,207.6424141625,209.75064273125,84.0,90.0
255,209.6277039125,209.75064273125,84.0,95.0
256,209.85480929374998,210.21086954375,85.0,91.0
257,210.30935429374998,210.41730873125,85.0,90.0
258,210.53662679374997,210.65026304375,85.0,92.0
259,210.76389929374997,211.11427773124998,85.0,100.0
260,211.21844429375,211.35480779374998,84.0,93.0
261,211.44571679375,212.05745860624998,82.0,93.0
262,212.12753429375,212.79572711875,80.0,88.0
263,213.02333896041665,213.15393591875,80.0,97.0
264,213.24721946041666,213.37968208958333,82.0,92.0
265,213.47109996041667,213.81624906458333,83.0,102.0
266,213.91886096041665,214.03826389374998,83.0,93.0
267,214.142439625,214.24538057499998,83.0,95.0
268,214.363027375,214.73618831874998,83.0,103.0
269,214.804202875,214.9181732125,82.0,97.0
270,215.024790625,215.40530449374998,80.0,91.0
271,215.686553875,216.29317018749998,78.0,77.0
272,216.568904875,216.68838990625,78.0,93.0
273,216.789492625,216.9402275875,80.0,92.0
274,217.010080375,217.38691778125,81.0,95.0
275,217.451255875,217.5762556,81.0,93.0
276,217.671843625,217.78029926874999,81.0,90.0
277,217.892431375,218.23066592499998,81.0,93.0
278,218.333606875,218.451253675,80.0,93.0
279,218.55424950416668,218.68111512083334,78.0,93.0
280,218.77813000416666,219.36581631666667,76.0,93.0
281,219.44977150416668,219.97402500833334,81.0,93.0
282,220.12141300416667,220.41805466666668,81.0,86.0
283,220.56917400416665,221.79865108333334,83.0,93.0
284,221.91245700416667,222.3340986125,80.0,95.0
285,222.36021800416665,223.94976955416666,85.0,90.0
286,224.15126200416665,226.08596265833333,87.0,91.0
287,226.83782800416665,227.16058905833333,72.0,97.0
288,227.28558900416667,227.39193224166667,77.0,93.0
289,227.50930486666667,227.64901044166666,79.0,87.0
290,227.72989261666666,228.96334578541666,80.0,89.0
291,229.05341911666667,229.19496292291666,82.0,97.0
292,229.27400686666667,230.10304916041667,80.0,88.0
293,230.81812111666667,230.95231199791667,79.0,93.0
294,231.03870886666667,231.17473797916668,77.0,90.0
295,231.25929661666666,231.58282531666666,75.0,97.0
296,231.70047211666667,231.83466299791667,79.0,91.0
297,231.92105986666667,232.26297087916666,82.0,90.0
298,232.36223536666665,232.66002882916666,85.0,92.0
299,232.80341086666667,233.75193819166665,84.0,93.0
300,234.78870061666666,235.14899394166667,80.0,93.0
301,235.22987611666667,235.40450808541667,82.0,87.0
302,235.45046386666667,235.73538971041665,84.0,93.0
303,235.89163936666665,236.42288819791668,87.0,95.0
304,236.55340261666666,236.89899009166666,85.0,91.0
305,236.99457811666667,237.15082777291667,84.0,91.0
306,237.21516586666667,237.59567973541667,82.0,86.0
307,237.65634136666665,238.19678135416666,80.0,93.0
308,238.31810461666666,238.89530922916666,82.0,92.0
309,239.20045561666666,239.73354267916667,77.0,90.0
310,239.86221886666667,240.72434932291665,79.0,92.0
311,240.96515761666666,241.27765692916665,72.0,97.0
312,241.40633311666667,241.51111229791667,77.0,100.0
313,241.62692086666667,241.75743528541668,79.0,91.0
314,241.84750861666666,242.72985961666666,80.0,88.0
315,242.72985961666666,242.86588872916667,80.0,89.0
316,242.95044736666665,243.39162286666667,82.0,90.0
317,243.61221061666666,244.30154733541667,80.0,86.0
318,244.93573711666667,245.03316337291668,79.0,100.0
319,245.15632486666667,245.24455996666666,77.0,92.0
320,245.37691261666666,245.69492662291665,75.0,97.0
321,245.81808811666667,245.93757314791668,79.0,93.0
322,246.03867586666667,246.35852810416668,82.0,92.0
323,246.47985136666665,247.01110019791668,85.0,93.0
324,247.14161461666666,247.87874534791666,84.0,97.0
325,248.90631661666666,249.25925701666665,80.0,91.0
326,249.34749211666667,249.50006531041666,82.0,89.0
327,249.56807986666666,249.90631441666667,84.0,93.0
328,250.00925536666665,250.53682773541667,87.0,93.0
329,250.67101861666666,250.97432677291667,85.0,92.0
330,251.11219411666667,251.24454676666667,84.0,90.0
331,251.33278186666666,251.62873709791666,82.0,87.0
332,251.77395736666665,252.27947096041666,80.0,92.0
333,252.43572061666666,253.68571786666666,82.0,92.0
334,254.20042261666666,254.53681893541668,82.0,95.0
335,254.64159811666667,254.79600954166665,84.0,92.0
336,254.86218586666666,255.16917048541666,82.0,90.0
337,255.30336136666665,255.61953714166665,79.0,97.0
338,255.74453686666666,256.84747561666666,80.0,89.0
339,257.06806336666665,257.23166594791667,82.0,87.0
340,257.28865111666664,257.60850335416666,84.0,97.0
341,257.7298266166667,258.8566623729167,82.0,92.0
342,259.05335311666664,259.20960277291664,80.0,89.0
343,259.27394086666663,259.38791120416664,79.0,97.0
344,259.4945286166667,260.5459968916667,80.0,86.0
345,260.59746736666665,261.24452476666664,87.0,91.0
346,261.2592306166667,262.2518754916667,82.0,82.0
347,262.58275711666664,262.7059186104167,82.0,92.0
348,262.80334486666663,262.9375357479167,82.0,89.0
349,263.0239326166667,263.5845931479167,82.0,92.0
350,263.68569586666666,264.2334887791667,79.0,93.0
351,264.34745911666664,266.50186614166665,77.0,90.0
