,start,end,pitch,velocity
0,4.0110205875,4.9374891375,48.0,67.0
1,4.2316083375,4.96506260625,53.0,84.0
2,3.7904328375,4.9797684562499995,41.0,85.0
3,4.4521960875,4.992636075,65.0,88.0
4,4.8933715875,5.19667974375,60.0,85.0
5,5.1139593375,5.39704695,53.0,87.0
6,5.3345470875,5.580870075,65.0,80.0
7,5.7757225875,6.0036632625,56.0,85.0
8,5.9963103375,6.2646920999999995,61.0,79.0
9,6.2168980875,6.71138229375,56.0,87.0
10,5.5551348375,6.75917630625,49.0,88.0
11,6.8786613375,7.174616568749999,61.0,84.0
12,6.6580735875,7.18564595625,65.0,90.0
13,7.0992490875,7.35476323125,56.0,75.0
14,7.7610123374999995,8.033070562499999,60.0,85.0
15,7.9816000874999995,8.474246062499999,56.0,89.0
16,7.5404245874999996,8.477922525,51.0,77.0
17,7.3198368375,8.5588047,44.0,87.0
18,8.4227755875,8.656230956249999,60.0,86.0
19,8.4227755875,8.92828918125,63.0,87.0
20,8.6433633375,8.992627275,56.0,87.0
21,8.8639510875,9.110274075,60.0,90.0
22,9.5257143375,9.81799310625,51.0,87.0
23,9.3051265875,9.832698956249999,46.0,78.0
24,9.7463020875,10.053286706249999,55.0,102.0
25,10.1874775875,10.2389480625,55.0,73.0
26,9.9668898375,10.382330099999999,46.0,95.0
27,9.0845388375,10.42644765,39.0,91.0
28,10.1874775875,10.492623974999999,58.0,86.0
29,10.4080653375,10.694829412499999,51.0,88.0
30,10.6286530875,10.93196124375,63.0,87.0
31,11.2904163375,11.7940917,61.0,82.0
32,11.5110040875,11.832694556249999,58.0,91.0
33,11.7315918375,12.200340806249999,53.0,84.0
34,11.9521795875,12.25916420625,58.0,88.0
35,10.8492408375,12.39886978125,46.0,91.0
36,12.1727673375,12.448502025,61.0,83.0
37,12.3933550875,12.6286486875,65.0,77.0
38,12.8345305875,13.36210295625,43.0,87.0
39,13.0551183375,13.54592608125,48.0,92.0
40,12.6139428375,13.6176171,36.0,93.0
41,13.2757060875,13.772028525,60.0,90.0
42,13.4962938375,13.816146074999999,43.0,83.0
43,13.7168815875,13.96871926875,48.0,93.0
44,14.1580570875,14.330850824999999,48.0,88.0
45,13.9374693375,14.347394906249999,60.0,81.0
46,15.0404080875,15.41724549375,53.0,92.0
47,14.8198203375,15.45401011875,49.0,85.0
48,15.2609958375,15.54959814375,56.0,87.0
49,14.5992325875,15.817979906249999,44.0,72.0
50,15.4815835875,15.9007003125,61.0,91.0
51,14.3786448375,15.9595237125,37.0,92.0
52,15.7021713375,16.05694996875,49.0,86.0
53,15.9227590875,16.1212880625,53.0,82.0
54,16.1433468375,17.28121198125,37.0,92.0
55,16.1433468375,17.76650503125,49.0,81.0
56,16.1433468375,17.81429904375,53.0,77.0
57,16.1433468375,17.860254825,56.0,81.0
58,16.1433468375,17.89518121875,61.0,86.0
59,17.9080488375,18.345547874999998,37.0,83.0
60,17.9080488375,18.9815758875,65.0,72.0
61,17.9080488375,18.9999582,61.0,73.0
62,17.9080488375,19.04407575,73.0,77.0
63,17.9080488375,19.04959044375,68.0,78.0
64,19.0109875875,19.351060368749998,53.0,71.0
65,19.6727508375,20.11576456875,65.0,73.0
66,19.6727508375,20.11576456875,73.0,83.0
67,19.4521630875,20.169073275,61.0,74.0
68,18.7903998375,20.6727486375,49.0,86.0
69,19.2315753375,20.77385135625,56.0,68.0
70,20.5551018375,20.87311584375,61.0,71.0
71,20.5551018375,21.27752671875,65.0,74.0
72,20.5551018375,21.3124531125,68.0,69.0
73,21.4374528375,21.874951875,65.0,74.0
74,21.4374528375,21.884143031249998,61.0,75.0
75,21.4374528375,21.90620180625,72.0,75.0
76,22.0992160875,22.435612406249998,61.0,82.0
77,21.8786283375,22.659876618749998,44.0,70.0
78,21.4374528375,22.742597025,37.0,86.0
79,22.5403915875,22.7756851875,65.0,81.0
80,22.5403915875,22.8528909,68.0,82.0
81,23.2021548375,23.63046271875,63.0,84.0
82,23.2021548375,23.836344618749997,67.0,80.0
83,23.2021548375,24.32163766875,39.0,80.0
84,23.8639180875,24.32899059375,63.0,88.0
85,23.6433303375,24.3345052875,46.0,64.0
86,24.3050935875,24.61943113125,70.0,83.0
87,24.5256813375,24.69296038125,63.0,86.0
88,24.9668568375,25.249944449999997,65.0,74.0
89,24.9668568375,25.319797237499998,68.0,82.0
90,25.8492078375,26.034869193749998,65.0,87.0
91,25.8492078375,26.0845014375,72.0,86.0
92,26.2903833375,26.8050880875,65.0,82.0
93,26.5109710875,26.840014481249998,68.0,69.0
94,26.0697955875,27.215013656249997,48.0,65.0
95,27.3933220875,27.665380312499998,65.0,85.0
96,24.9668568375,27.84736520625,41.0,86.0
97,27.3933220875,27.874938675,72.0,81.0
98,27.6139098375,27.88412983125,48.0,82.0
99,27.8344975875,28.080820575,68.0,82.0
100,28.0550853375,28.1653792125,65.0,79.0
101,28.4962608375,28.977877425,61.0,78.0
102,28.4962608375,29.209494562499998,65.0,75.0
103,28.4962608375,29.36206775625,68.0,81.0
104,29.1580240875,29.6286112875,61.0,87.0
105,29.5991995875,29.74993455,65.0,90.0
106,28.4962608375,29.75912570625,37.0,81.0
107,28.9374363375,29.760963937499998,44.0,73.0
108,29.5991995875,29.786699175,68.0,86.0
109,30.2609628375,30.639638474999998,63.0,82.0
110,30.2609628375,31.0587552,67.0,77.0
111,30.7021383375,31.358386893749998,46.0,69.0
112,30.2609628375,31.38412213125,39.0,87.0
113,30.9227260875,31.3933132875,70.0,82.0
114,31.3639015875,31.62676865625,75.0,93.0
115,31.5844893375,31.698459675,63.0,93.0
116,32.025664837499995,32.50176673125,65.0,77.0
117,32.025664837499995,32.507281425,68.0,73.0
118,32.687428087499995,32.84367774375,72.0,92.0
119,33.128603587499995,33.349191337499995,68.0,80.0
120,33.349191337499995,33.5256615375,65.0,78.0
121,33.790366837499995,34.2352188,65.0,72.0
122,33.790366837499995,34.2388952625,72.0,74.0
123,32.466840337499995,34.669041375,48.0,58.0
124,32.025664837499995,34.751761781249996,41.0,86.0
125,34.6727178375,34.83999688125,68.0,88.0
126,34.6727178375,34.852864499999995,65.0,86.0
127,34.8933055875,34.99808476875,48.0,82.0
128,35.5550688375,36.0330089625,56.0,75.0
129,35.5550688375,36.286684875,60.0,78.0
130,35.9962443375,36.683742824999996,51.0,69.0
131,36.2168320875,36.698448675,56.0,91.0
132,35.5550688375,36.703963368749996,44.0,87.0
133,36.6580075875,36.75543384375,60.0,85.0
134,36.6580075875,36.9153599625,68.0,87.0
135,37.3197708375,37.757269875,63.0,84.0
136,37.3197708375,37.99807816875,67.0,78.0
137,37.3197708375,38.360209725,51.0,90.0
138,37.7609463375,38.374915574999996,58.0,73.0
139,37.9815340875,38.39145965625,63.0,97.0
140,38.4227095875,38.727855975,70.0,84.0
141,38.6432973375,38.8932967875,67.0,86.0
142,38.8638850875,39.0403552875,63.0,87.0
143,39.7462360875,40.095500025,56.0,87.0
144,39.0844728375,40.13777934375,41.0,90.0
145,39.3050605875,40.17454396875,48.0,68.0
146,39.5256483375,40.246234987499996,53.0,86.0
147,40.4079993375,40.6285870875,56.0,78.0
148,40.6285870875,40.7903514375,53.0,89.0
149,40.1874115875,40.9116747,65.0,87.0
150,41.5109380875,41.97968705625,61.0,88.0
151,41.2903503375,42.058731,58.0,79.0
152,40.8491748375,42.178216031249995,51.0,90.0
153,41.9521135875,42.26277466875,67.0,87.0
154,42.6138768375,43.051375875,61.0,81.0
155,42.6138768375,43.3197576375,65.0,77.0
156,43.2756400875,43.788506606249996,68.0,82.0
157,43.7168155875,43.99806496875,73.0,92.0
158,43.9374033375,44.09365299375,61.0,82.0
159,43.0550523375,44.13225585,44.0,70.0
160,42.6138768375,44.17085870625,37.0,89.0
161,44.3785788375,44.74990155,61.0,71.0
162,44.3785788375,44.74990155,65.0,73.0
163,44.3785788375,44.898798281249995,68.0,75.0
164,45.2609298375,45.393282487499995,65.0,89.0
165,44.3785788375,45.413503031249995,37.0,76.0
166,45.2609298375,45.4226941875,61.0,84.0
167,45.2609298375,45.45578235,68.0,87.0
168,46.1432808375,46.59732395625,60.0,76.0
169,46.1432808375,46.61202980625,65.0,83.0
170,46.5844563375,47.224160812499996,43.0,58.0
171,47.0256318375,47.2388666625,60.0,90.0
172,47.0256318375,47.43923386875,65.0,91.0
173,47.4668073375,47.69290978125,60.0,76.0
174,46.1432808375,47.742542025,36.0,87.0
175,47.9079828375,48.420849356249995,64.0,83.0
176,47.9079828375,48.57526078125,60.0,74.0
177,48.7903338375,49.02378920625,60.0,89.0
178,48.7903338375,49.2462151875,67.0,87.0
179,47.9079828375,49.2645975,36.0,82.0
180,49.2315093375,49.47967055625,60.0,86.0
181,49.4520970875,49.59364089375,67.0,80.0
182,49.0109215875,49.623052593749996,43.0,78.0
183,49.6726848375,50.110183875,65.0,74.0
184,49.6726848375,50.11937503125,61.0,75.0
185,49.6726848375,50.14143380625,72.0,75.0
186,50.3344480875,50.67084440625,61.0,82.0
187,50.1138603375,50.89510861875,44.0,70.0
188,49.6726848375,50.977829025,37.0,86.0
189,50.7756235875,51.0109171875,65.0,81.0
190,50.7756235875,51.088122899999995,68.0,82.0
191,51.4373868375,51.86569471875,63.0,84.0
192,51.4373868375,52.07157661875,67.0,80.0
193,51.4373868375,52.55686966875,39.0,80.0
194,52.0991500875,52.564222593749996,63.0,88.0
195,51.8785623375,52.5697372875,46.0,64.0
196,52.5403255875,52.85466313125,70.0,83.0
197,52.7609133375,52.92819238125,63.0,86.0
198,53.2020888375,53.48517645,65.0,74.0
199,53.2020888375,53.5550292375,68.0,82.0
200,54.0844398375,54.27010119375,65.0,87.0
201,54.0844398375,54.3197334375,72.0,86.0
202,54.5256153375,55.0403200875,65.0,82.0
203,54.7462030875,55.07524648125,68.0,69.0
204,54.3050275875,55.45024565625,48.0,65.0
205,55.6285540875,55.900612312499995,65.0,85.0
206,53.2020888375,56.08259720625,41.0,86.0
207,55.6285540875,56.110170675,72.0,81.0
208,55.8491418375,56.119361831249996,48.0,82.0
209,56.0697295875,56.316052575,68.0,82.0
210,56.2903173375,56.400611212499996,65.0,79.0
211,56.7314928375,57.213109425,61.0,78.0
212,56.7314928375,57.4447265625,65.0,75.0
213,56.7314928375,57.597299756249996,68.0,81.0
214,57.3932560875,57.863843287499996,61.0,87.0
215,57.8344315875,57.985166549999995,65.0,90.0
216,56.7314928375,57.99435770625,37.0,81.0
217,57.1726683375,57.9961959375,44.0,73.0
218,57.8344315875,58.021931175,68.0,86.0
219,58.4961948375,58.874870474999994,63.0,82.0
220,58.4961948375,59.2939872,67.0,77.0
221,58.9373703375,59.59361889375,46.0,69.0
222,58.4961948375,59.61935413125,39.0,87.0
223,59.1579580875,59.628545287499996,70.0,82.0
224,59.5991335875,59.86200065625,75.0,93.0
225,59.8197213375,59.933691675,63.0,93.0
226,60.2608968375,60.73699873125,65.0,77.0
227,60.2608968375,60.742513425,68.0,73.0
228,60.9226600875,61.078909743749996,72.0,92.0
229,61.3638355875,61.5844233375,68.0,80.0
230,61.5844233375,61.760893537499996,65.0,78.0
231,62.0255988375,62.470450799999995,65.0,72.0
232,62.0255988375,62.4741272625,72.0,74.0
233,60.7020723375,62.904273374999995,48.0,58.0
234,60.2608968375,62.98699378125,41.0,86.0
235,62.9079498375,63.07522888125,68.0,88.0
236,62.9079498375,63.0880965,65.0,86.0
237,63.1285375875,63.23331676875,48.0,82.0
238,63.7903008375,64.2682409625,56.0,75.0
239,63.7903008375,64.521916875,60.0,78.0
240,64.2314763375,64.91897482499999,51.0,69.0
241,64.45206408749999,64.93368067499999,56.0,91.0
242,63.7903008375,64.93919536874999,44.0,87.0
243,64.89323958749999,64.99066584375,60.0,85.0
244,64.89323958749999,65.1505919625,68.0,87.0
245,65.5550028375,65.992501875,63.0,84.0
246,65.5550028375,66.23331016875,67.0,78.0
247,65.5550028375,66.595441725,51.0,90.0
248,65.9961783375,66.610147575,58.0,73.0
249,66.21676608749999,66.62669165625,63.0,97.0
250,66.65794158749999,66.963087975,70.0,84.0
251,66.8785293375,67.1285287875,67.0,86.0
252,67.09911708749999,67.2755872875,63.0,87.0
253,67.98146808749999,68.330732025,56.0,87.0
254,67.3197048375,68.37301134375,41.0,90.0
255,67.54029258749999,68.40977596875,48.0,68.0
256,67.7608803375,68.4814669875,53.0,86.0
257,68.6432313375,68.86381908749999,56.0,78.0
258,68.86381908749999,69.0255834375,53.0,89.0
259,68.42264358749999,69.1469067,65.0,87.0
260,69.74617008749999,70.21491905625,61.0,88.0
261,69.5255823375,70.29396299999999,58.0,79.0
262,69.0844068375,70.41344803125,51.0,90.0
263,70.18734558749999,70.49800666875,67.0,87.0
264,70.8491088375,71.286607875,61.0,81.0
265,70.8491088375,71.5549896375,65.0,77.0
266,71.51087208749999,72.02373860624999,68.0,82.0
267,71.9520475875,72.23329696875,73.0,92.0
268,72.1726353375,72.32888499375,61.0,82.0
269,71.2902843375,72.36748785,44.0,70.0
270,70.8491088375,72.40609070625,37.0,89.0
271,72.6138108375,72.98513355,61.0,71.0
272,72.6138108375,72.98513355,65.0,73.0
273,72.6138108375,73.13403028124999,68.0,75.0
274,73.4961618375,73.6285144875,65.0,89.0
275,72.6138108375,73.64873503125,37.0,76.0
276,73.4961618375,73.6579261875,61.0,84.0
277,73.4961618375,73.69101435,68.0,87.0
278,74.3785128375,74.83255595624999,60.0,76.0
279,74.3785128375,74.84726180625,65.0,83.0
280,74.8196883375,75.4593928125,43.0,58.0
281,75.2608638375,75.4740986625,60.0,90.0
282,75.2608638375,75.67446586874999,65.0,91.0
283,75.7020393375,75.92814178124999,60.0,76.0
284,74.3785128375,75.977774025,36.0,87.0
285,76.1432148375,76.65608135625,64.0,83.0
286,76.1432148375,76.81049278124999,60.0,74.0
287,77.0255658375,77.25902120625,60.0,89.0
288,77.0255658375,77.4814471875,67.0,87.0
289,76.1432148375,77.4998295,36.0,82.0
290,77.4667413375,77.71490255625,60.0,86.0
291,77.6873290875,77.82887289375,67.0,80.0
292,77.2461535875,77.85828459375,43.0,78.0
293,77.9079168375,78.0108577875,36.0,84.0
294,77.9079168375,78.48512145,60.0,86.0
295,77.9079168375,78.58254770625,72.0,80.0
296,78.7902678375,79.38401653125,60.0,90.0
297,78.3490923375,79.52004564375,48.0,77.0
298,79.4520310875,79.5329132625,60.0,65.0
299,78.5696800875,79.55313380625,55.0,84.0
300,79.0108555875,79.81783910624999,72.0,81.0
301,79.6726188375,80.05129447499999,60.0,85.0
302,79.6726188375,80.08622086874999,67.0,78.0
303,80.3343820875,80.433646575,60.0,89.0
304,79.6726188375,80.65974901874999,55.0,82.0
305,79.6726188375,80.70019010624999,48.0,85.0
306,80.5549698375,80.830704525,60.0,97.0
307,80.5549698375,81.0329099625,67.0,89.0
308,80.9961453375,81.27371825624999,60.0,100.0
309,80.7755575875,81.36195335625,55.0,95.0
310,81.2167330875,81.38952682499999,72.0,80.0
311,81.4373208375,81.89687864999999,60.0,85.0
312,81.4373208375,82.139525175,65.0,81.0
313,81.4373208375,82.44650979375,41.0,87.0
314,81.8784963375,82.46856856875,48.0,75.0
315,82.0990840875,82.55680366874999,60.0,85.0
316,82.3196718375,82.58253890625,65.0,87.0
317,82.5402595875,82.99797916874999,68.0,89.0
318,83.2020228375,83.60091901874999,61.0,81.0
319,83.2020228375,83.64136010624999,68.0,87.0
320,83.2020228375,83.64503656875,65.0,82.0
321,83.6431983375,83.96856526875,56.0,83.0
322,83.8637860875,84.17077070625,61.0,93.0
323,83.2020228375,84.418931925,49.0,89.0
324,84.3049615875,84.44650539375,61.0,89.0
325,84.0843738375,84.49429940625,53.0,72.0
326,84.3049615875,84.50532879375,65.0,90.0
327,84.3049615875,84.56047573125,68.0,87.0
328,84.5255493375,84.60275505,56.0,84.0
329,84.9667248375,85.38767979375,63.0,92.0
330,84.9667248375,85.507164825,67.0,82.0
331,85.6284880875,85.727752575,67.0,68.0
332,85.6284880875,85.87848753749999,70.0,81.0
333,85.4079003375,85.97223733125,46.0,70.0
334,85.8490758375,86.2240750125,75.0,107.0
335,86.0696635875,86.22958970625,63.0,100.0
336,84.9667248375,86.32885419374999,39.0,86.0
337,86.2902513375,86.41525106249999,46.0,91.0
338,86.5108390875,86.59723595625,67.0,75.0
339,86.5108390875,86.624809425,63.0,86.0
340,86.7314268375,86.918926425,63.0,87.0
341,86.9520145875,87.051279075,63.0,88.0
342,86.7314268375,87.20201403749999,68.0,87.0
343,86.7314268375,87.22591104375,51.0,79.0
344,87.3931900875,87.63399838125,63.0,97.0
345,87.3931900875,87.65238069374999,68.0,95.0
346,87.3931900875,87.68546885625,72.0,90.0
347,87.6137778375,87.904218375,51.0,83.0
348,86.7314268375,87.93179184374999,44.0,87.0
349,87.8343655875,87.95201238749999,63.0,93.0
350,87.8343655875,87.97774762499999,68.0,90.0
351,88.4961288375,88.75531944375,65.0,86.0
352,88.4961288375,89.02186297499999,72.0,82.0
353,88.9373043375,89.07333344999999,65.0,73.0
354,88.7167165875,89.27737711875,48.0,79.0
355,89.1578920875,89.43178854375,68.0,86.0
356,89.1578920875,89.43914146875,65.0,87.0
357,88.4961288375,89.46303847499999,41.0,89.0
358,89.3784798375,89.52921479999999,48.0,74.0
359,89.5990675875,89.7350967,68.0,84.0
360,89.5990675875,89.7681848625,65.0,88.0
361,89.5990675875,89.77369955625,72.0,91.0
362,90.2608308375,90.4814185875,61.0,84.0
363,90.2608308375,90.59906538749999,65.0,80.0
364,90.7020063375,90.83252075624999,61.0,83.0
365,90.4814185875,90.96487340624999,56.0,71.0
366,90.9225940875,91.139505375,65.0,81.0
367,90.9225940875,91.168917075,61.0,86.0
368,90.9225940875,91.2056817,68.0,84.0
369,91.1431818375,91.33435788749999,56.0,80.0
370,90.2608308375,91.34722550625,49.0,90.0
371,91.3637695875,91.477739925,61.0,87.0
372,91.3637695875,91.54391625,73.0,90.0
373,91.3637695875,91.54943094375,65.0,83.0
374,92.0255328375,92.49060534374999,58.0,86.0
375,92.0255328375,92.5586199,61.0,86.0
376,92.4667083375,92.79023703749999,53.0,72.0
377,92.6872960875,92.9887660125,58.0,92.0
378,92.9078838375,93.20383906875,53.0,84.0
379,93.1284715875,93.2608242375,58.0,88.0
380,93.1284715875,93.2939124,61.0,87.0
381,93.1284715875,93.33986818125,65.0,87.0
382,92.0255328375,93.39317688749999,46.0,87.0
383,93.3490593375,93.4961178375,53.0,80.0
384,93.7902348375,94.24979265,72.0,81.0
385,93.7902348375,94.26633673125,60.0,88.0
386,93.7902348375,94.48876271249999,48.0,92.0
387,94.2314103375,94.536556725,55.0,77.0
388,94.4519980875,94.77736501874999,60.0,97.0
389,94.4519980875,94.77736501874999,72.0,86.0
390,94.6725858375,94.91707059375,48.0,97.0
391,94.6725858375,94.98508515,55.0,88.0
392,94.8931735875,95.06045263125,60.0,95.0
393,94.8931735875,95.07883494375,72.0,87.0
394,95.5549368375,95.92625955,65.0,85.0
395,95.9961123375,96.31412634374999,48.0,70.0
396,95.5549368375,96.3490527375,53.0,86.0
397,95.5549368375,96.53287586249999,41.0,89.0
398,96.2167000875,96.54574348125,56.0,85.0
399,96.4372878375,96.624787425,48.0,78.0
400,96.6578755875,96.94280143124999,60.0,87.0
401,96.8784633375,97.154198025,53.0,87.0
402,97.0990510875,97.31044768125,56.0,81.0
403,97.7608143375,97.87662290624999,61.0,87.0
404,97.5402265875,98.007137325,56.0,73.0
405,97.9814020875,98.21669568749999,65.0,87.0
406,97.9814020875,98.242430925,61.0,88.0
407,97.9814020875,98.25897500625,68.0,88.0
408,97.3196388375,98.29941609375,49.0,92.0
409,98.2019898375,98.48691568125,56.0,81.0
410,98.4225775875,98.60272425,61.0,90.0
411,98.4225775875,98.60823894375,65.0,90.0
412,98.4225775875,98.63213594999999,68.0,90.0
413,98.4225775875,98.6799299625,73.0,88.0
414,98.6431653375,98.71485635625,53.0,61.0
415,98.8637530875,99.02000274375,63.0,77.0
416,99.0843408375,99.4703694,63.0,91.0
417,99.0843408375,99.53470749374999,67.0,78.0
418,99.0843408375,99.565957425,70.0,84.0
419,99.5255163375,99.82882449374999,46.0,71.0
420,99.7461040875,100.00897115625,75.0,87.0
421,99.7461040875,100.03838285625,63.0,92.0
422,99.7461040875,100.04941224375,67.0,95.0
423,99.7461040875,100.06227986249999,70.0,88.0
424,99.0843408375,100.0916915625,39.0,90.0
425,99.9666918375,100.12294149374999,46.0,72.0
426,100.1872795875,100.2608088375,63.0,87.0
427,100.1872795875,100.4703672,67.0,103.0
428,100.1872795875,100.6063963125,70.0,90.0
429,100.4078673375,100.6946314125,63.0,88.0
430,100.6284550875,100.76632243125,67.0,75.0
431,100.8490428375,101.2166890875,63.0,84.0
432,100.8490428375,101.33249765625,68.0,88.0
433,101.2902183375,101.580658875,51.0,76.0
434,101.5108060875,101.6063941125,63.0,89.0
435,101.5108060875,101.61190880625,68.0,87.0
436,101.5108060875,101.64867343125,72.0,82.0
437,101.7313938375,101.9446286625,63.0,95.0
438,101.7313938375,101.97220213125,68.0,95.0
439,101.7313938375,102.0108049875,72.0,89.0
440,100.8490428375,102.0622754625,44.0,87.0
441,101.9519815875,102.139481175,51.0,91.0
442,102.1725693375,102.28286321249999,63.0,93.0
443,102.6137448375,103.04389094999999,65.0,83.0
444,102.6137448375,103.06778795625,68.0,87.0
445,103.0549203375,103.32146386875,48.0,73.0
446,103.2755080875,103.507125225,72.0,90.0
447,103.2755080875,103.51263991875,65.0,90.0
448,102.6137448375,103.52550753749999,41.0,91.0
449,103.4960958375,103.65234549374999,48.0,82.0
450,103.7166835875,103.8269774625,68.0,87.0
451,103.7166835875,103.83249215625,65.0,89.0
452,104.3784468375,104.6652109125,61.0,78.0
453,104.3784468375,104.87476927499999,65.0,77.0
454,104.3784468375,104.99057784375,68.0,81.0
455,104.8196223375,105.16888627499999,61.0,85.0
456,105.0402100875,105.25528314374999,68.0,76.0
457,105.0402100875,105.25895960625,65.0,92.0
458,104.5990345875,105.58248830625,44.0,79.0
459,105.4813855875,105.6578557875,61.0,87.0
460,104.3784468375,105.66153225,37.0,88.0
461,105.4813855875,106.04572258124999,73.0,90.0
462,105.4813855875,106.07881074375,65.0,88.0
463,105.4813855875,106.11557536875,68.0,87.0
464,105.9225610875,106.1652076125,61.0,80.0
465,106.3637365875,106.62476542499999,58.0,76.0
466,106.5843243375,106.8637354875,61.0,88.0
467,106.8049120875,107.06594092499999,65.0,93.0
468,106.8049120875,107.13027901875,53.0,83.0
469,107.2460875875,107.45564594999999,58.0,90.0
470,106.1431488375,107.62292499374999,46.0,89.0
471,107.46667533749999,107.7019689375,53.0,71.0
472,107.2460875875,107.75160118125,61.0,89.0
473,107.6872630875,107.860056825,58.0,87.0
474,107.2460875875,107.8857920625,65.0,91.0
475,108.34902633749999,108.44277613125,60.0,89.0
476,108.1284385875,108.6468198,55.0,82.0
477,107.90785083749999,108.68174619375,48.0,93.0
478,108.5696140875,108.86189285625,72.0,86.0
479,108.5696140875,108.87108401249999,60.0,97.0
480,108.79020183749999,109.05858359999999,55.0,86.0
481,109.0107895875,109.13395108124999,60.0,92.0
482,109.0107895875,109.16520101249999,72.0,87.0
483,109.67255283749999,109.93909636875,61.0,87.0
484,109.67255283749999,110.15600765625,65.0,86.0
485,109.67255283749999,110.19644874375,68.0,86.0
486,110.11372833749999,110.24424275625,61.0,86.0
487,109.8931405875,110.38027186875,56.0,73.0
488,109.67255283749999,110.65968301875,49.0,91.0
489,110.55490383749999,110.830638525,56.0,83.0
490,110.3343160875,110.88027076875,61.0,91.0
491,110.3343160875,111.0291675,65.0,97.0
492,110.7754915875,111.03652042499999,53.0,93.0
493,110.3343160875,111.11556436875,68.0,91.0
494,110.99607933749999,111.11924083125,56.0,88.0
495,111.2166670875,111.30490218749999,61.0,90.0
496,111.43725483749999,111.7166659875,63.0,93.0
497,111.43725483749999,111.8821068,67.0,82.0
498,111.87843033749999,111.97218013125,63.0,87.0
499,111.6578425875,112.13762094375,46.0,77.0
500,112.0990180875,112.3931350875,63.0,95.0
501,112.0990180875,112.4115174,67.0,92.0
502,112.0990180875,112.418870325,70.0,88.0
503,111.43725483749999,112.54203181874999,39.0,90.0
504,112.31960583749999,112.57328174999999,46.0,85.0
505,112.5401935875,112.73320786875,67.0,90.0
506,112.5401935875,112.742399025,70.0,88.0
507,112.5401935875,112.75526664374999,63.0,90.0
508,113.20195683749999,113.27916255,37.0,88.0
509,113.20195683749999,113.88577886249999,61.0,86.0
510,113.20195683749999,114.080631375,65.0,87.0
511,113.8637200875,114.35820429374999,56.0,83.0
512,113.64313233749999,114.4519540875,49.0,73.0
513,114.08430783749999,114.71849761874999,61.0,87.0
514,114.3048955875,114.8048944875,65.0,88.0
515,114.52548333749999,114.81960033749999,68.0,79.0
516,114.7460710875,115.02732046874999,73.0,90.0
517,115.40783433749999,115.5328340625,63.0,85.0
518,115.1872465875,115.73687773124999,58.0,74.0
519,115.6284220875,115.74423065625,63.0,55.0
520,114.96665883749999,116.17437676875,51.0,89.0
521,116.0695975875,116.25893540624999,58.0,88.0
522,115.6284220875,116.35636166249999,67.0,89.0
523,116.5107730875,116.6468022,67.0,57.0
524,116.29018533749999,116.65047866249999,63.0,87.0
525,116.73136083749999,117.09349239375,65.0,79.0
526,116.73136083749999,117.26812436249999,70.0,87.0
527,117.17253633749999,117.30856544999999,65.0,78.0
528,117.3931240875,118.06407849374999,65.0,84.0
529,117.3931240875,118.2938574,70.0,90.0
530,118.05488733749999,118.36371018749999,48.0,61.0
531,116.73136083749999,118.39679835,41.0,87.0
532,118.2754750875,118.40966596874999,65.0,85.0
533,118.49606283749999,119.20010540624999,69.0,85.0
534,118.49606283749999,119.20562009999999,65.0,87.0
535,119.37841383749999,119.5622369625,65.0,83.0
536,119.37841383749999,119.61186920624999,72.0,76.0
537,119.5990015875,119.87473627499999,48.0,32.0
538,118.49606283749999,120.08613286875,41.0,86.0
539,119.81958933749999,120.10083871875,65.0,82.0
540,120.26076483749999,121.3637035875,41.0,84.0
541,120.20745613125,121.53465909375,69.0,42.0
542,120.212970825,121.68907051875,65.0,69.0
543,120.26076483749999,121.78649677499999,77.0,77.0
544,122.02546683749999,122.8489944375,53.0,80.0
545,122.02546683749999,122.85083266875,57.0,75.0
546,122.02546683749999,122.95745008125,41.0,74.0
547,122.90781783749999,123.67803673124999,61.0,77.0
548,122.90781783749999,123.69274258125,58.0,79.0
549,122.90781783749999,123.712963125,46.0,80.0
550,123.79016883749999,124.5548730375,57.0,74.0
551,123.79016883749999,124.56038773124999,60.0,76.0
552,123.79016883749999,124.5622259625,48.0,68.0
553,124.67244216666667,124.89603333958333,58.0,74.0
554,124.67244216666667,124.95765295416666,61.0,80.0
555,124.88370941666666,125.16011740208333,60.0,80.0
556,125.09497666666667,125.31504671875,58.0,76.0
557,124.67244216666667,125.35553960833333,46.0,74.0
558,125.30624391666666,125.52963947291666,56.0,64.0
559,125.51748671458333,125.99838872291666,58.0,78.0
560,125.93415271458333,126.19456896458333,56.0,77.0
561,125.51748671458333,126.23970778124999,46.0,72.0
562,126.35081871458333,127.12512303125,56.0,65.0
563,126.35081871458333,127.15290076458332,61.0,69.0
564,126.35081871458333,127.17720628125,46.0,57.0
565,127.18415071458332,127.87164961458333,56.0,69.0
566,127.18415071458332,127.94630227291667,49.0,74.0
567,127.18415071458332,127.94977448958333,61.0,74.0
568,128.01748271458334,128.75532875624998,48.0,71.0
569,128.01748271458334,128.76574540625,60.0,77.0
570,128.85081471458332,129.52442474791667,56.0,69.0
571,128.85081471458332,129.56782745625,61.0,73.0
572,128.85081471458332,129.64595233125,49.0,75.0
573,129.68414671458333,130.05046557291666,51.0,78.0
574,129.68414671458333,130.06088222291666,63.0,85.0
575,130.10081271458333,130.47928433125,58.0,82.0
576,130.51747871458332,131.00185293958333,44.0,77.0
577,130.93414471458334,131.45844943125,51.0,76.0
578,131.35081071458333,132.03483739791665,44.0,67.0
579,131.76747671458332,132.12685113958332,51.0,74.0
580,132.18414271458332,132.93587762291665,46.0,78.0
581,132.18414271458332,132.96018313958334,58.0,80.0
582,133.01747471458333,133.76747351458332,60.0,79.0
583,133.01747471458333,133.79004292291665,48.0,80.0
584,133.8508067145833,134.59038886458333,49.0,78.0
585,133.8508067145833,134.61122216458332,61.0,77.0
586,134.68413871458333,135.47406800625,60.0,73.0
587,134.68413871458333,135.48795687291667,48.0,77.0
588,135.51757283749998,136.910952125,41.0,75.0
589,135.51757283749998,137.15359865,53.0,76.0
590,137.28227483749998,139.02491806249998,60.0,77.0
591,137.28227483749998,139.04513860625,67.0,81.0
592,137.28227483749998,139.04697683749998,36.0,82.0
593,139.04697683749998,139.484475875,65.0,74.0
594,139.04697683749998,139.49366703125,61.0,75.0
595,139.04697683749998,139.51572580625,72.0,75.0
596,139.7087400875,140.04513640624998,61.0,82.0
597,139.4881523375,140.26940061874998,44.0,70.0
598,139.04697683749998,140.352121025,37.0,86.0
599,140.1499155875,140.38520918749998,65.0,81.0
600,140.1499155875,140.4624149,68.0,82.0
601,140.81167883749998,141.23998671875,63.0,84.0
602,140.81167883749998,141.44586861874998,67.0,80.0
603,140.81167883749998,141.93116166874998,39.0,80.0
604,141.4734420875,141.93851459375,63.0,88.0
605,141.2528543375,141.9440292875,46.0,64.0
606,141.9146175875,142.22895513125,70.0,83.0
607,142.1352053375,142.30248438125,63.0,86.0
608,142.57638083749998,142.85946844999998,65.0,74.0
609,142.57638083749998,142.9293212375,68.0,82.0
610,143.45873183749998,143.64439319375,65.0,87.0
611,143.45873183749998,143.6940254375,72.0,86.0
612,143.8999073375,144.4146120875,65.0,82.0
613,144.1204950875,144.44953848125,68.0,69.0
614,143.6793195875,144.82453765625,48.0,65.0
615,145.0028460875,145.27490431249998,65.0,85.0
616,142.57638083749998,145.45688920625,41.0,86.0
617,145.0028460875,145.484462675,72.0,81.0
618,145.22343383749998,145.49365383125,48.0,82.0
619,145.4440215875,145.69034457499998,68.0,82.0
620,145.6646093375,145.7749032125,65.0,79.0
621,146.10578483749998,146.587401425,61.0,78.0
622,146.10578483749998,146.8190185625,65.0,75.0
623,146.10578483749998,146.97159175625,68.0,81.0
624,146.7675480875,147.2381352875,61.0,87.0
625,147.2087235875,147.35945855,65.0,90.0
626,146.10578483749998,147.36864970624998,37.0,81.0
627,146.5469603375,147.3704879375,44.0,73.0
628,147.2087235875,147.396223175,68.0,86.0
629,147.87048683749998,148.249162475,63.0,82.0
630,147.87048683749998,148.6682792,67.0,77.0
631,148.3116623375,148.96791089375,46.0,69.0
632,147.87048683749998,148.99364613125,39.0,87.0
633,148.5322500875,149.0028372875,70.0,82.0
634,148.9734255875,149.23629265625,75.0,93.0
635,149.1940133375,149.307983675,63.0,93.0
636,149.63518883749998,150.11129073125,65.0,77.0
637,149.63518883749998,150.116805425,68.0,73.0
638,150.2969520875,150.45320174375,72.0,92.0
639,150.7381275875,150.9587153375,68.0,80.0
640,150.9587153375,151.13518553749998,65.0,78.0
641,151.39989083749998,151.8447428,65.0,72.0
642,151.39989083749998,151.8484192625,72.0,74.0
643,150.0763643375,152.278565375,48.0,58.0
644,149.63518883749998,152.36128578125,41.0,86.0
645,152.28224183749998,152.44952088124998,68.0,88.0
646,152.28224183749998,152.4623885,65.0,86.0
647,152.5028295875,152.60760876875,48.0,82.0
648,153.16459283749998,153.64253296249998,56.0,75.0
649,153.16459283749998,153.89620887499999,60.0,78.0
650,153.6057683375,154.293266825,51.0,69.0
651,153.8263560875,154.307972675,56.0,91.0
652,153.16459283749998,154.31348736875,44.0,87.0
653,154.2675315875,154.36495784375,60.0,85.0
654,154.2675315875,154.52488396249998,68.0,87.0
655,154.92929483749998,155.36679387499998,63.0,84.0
656,154.92929483749998,155.60760216875,67.0,78.0
657,154.92929483749998,155.969733725,51.0,90.0
658,155.3704703375,155.98443957499998,58.0,73.0
659,155.5910580875,156.00098365624999,63.0,97.0
660,156.0322335875,156.33737997499998,70.0,84.0
661,156.2528213375,156.50282078749999,67.0,86.0
662,156.4734090875,156.6498792875,63.0,87.0
663,157.3557600875,157.705024025,56.0,87.0
664,156.69399683749998,157.74730334375,41.0,90.0
665,156.9145845875,157.78406796874998,48.0,68.0
666,157.1351723375,157.8557589875,53.0,86.0
667,158.0175233375,158.2381110875,56.0,78.0
668,158.2381110875,158.3998754375,53.0,89.0
669,157.7969355875,158.52119869999999,65.0,87.0
670,159.1204620875,159.58921105624998,61.0,88.0
671,158.8998743375,159.668255,58.0,79.0
672,158.45869883749998,159.78774003125,51.0,90.0
673,159.5616375875,159.87229866874998,67.0,87.0
674,160.22340083749998,160.66089987499998,61.0,81.0
675,160.22340083749998,160.9292816375,65.0,77.0
676,160.8851640875,161.39803060625,68.0,82.0
677,161.3263395875,161.60758896874998,73.0,92.0
678,161.5469273375,161.70317699375,61.0,82.0
679,160.6645763375,161.74177985,44.0,70.0
680,160.22340083749998,161.78038270624998,37.0,89.0
681,161.98810283749998,162.35942555,61.0,71.0
682,161.98810283749998,162.35942555,65.0,73.0
683,161.98810283749998,162.50832228125,68.0,75.0
684,162.87045383749998,163.00280648749998,65.0,89.0
685,161.98810283749998,163.02302703125,37.0,76.0
686,162.87045383749998,163.0322181875,61.0,84.0
687,162.87045383749998,163.06530635,68.0,87.0
688,163.75280483749998,164.20684795625,60.0,76.0
689,163.75280483749998,164.22155380625,65.0,83.0
690,164.1939803375,164.8336848125,43.0,58.0
691,164.63515583749998,164.84839066249998,60.0,90.0
692,164.63515583749998,165.04875786875,65.0,91.0
693,165.0763313375,165.30243378125,60.0,76.0
694,163.75280483749998,165.352066025,36.0,87.0
695,165.51750683749998,166.03037335624998,64.0,83.0
696,165.51750683749998,166.18478478125,60.0,74.0
697,165.51750683749998,166.8741215,36.0,82.0
698,166.8410333375,167.08919455625,60.0,86.0
699,167.0616210875,167.20316489375,67.0,80.0
700,166.6204455875,167.23257659375,43.0,78.0
701,167.28220883749998,167.85941344999998,60.0,86.0
702,167.28220883749998,167.95683970624998,72.0,80.0
703,167.28220883749998,168.23992731875,36.0,84.0
704,168.1645598375,168.75830853125,60.0,90.0
705,167.7233843375,168.89433764375,48.0,77.0
706,168.8263230875,168.90720526249999,60.0,65.0
707,167.9439720875,168.92742580625,55.0,84.0
708,168.3851475875,169.19213110624997,72.0,81.0
709,169.04691083749998,169.425586475,60.0,85.0
710,169.04691083749998,169.46051286875,67.0,78.0
711,169.7086740875,169.80793857499998,60.0,89.0
712,169.04691083749998,170.03404101874997,55.0,82.0
713,169.04691083749998,170.07448210625,48.0,85.0
714,169.9292618375,170.20499652499998,60.0,97.0
715,169.9292618375,170.40720196249998,67.0,89.0
716,170.3704373375,170.64801025625,60.0,100.0
717,170.1498495875,170.73624535624998,55.0,95.0
718,170.5910250875,170.763818825,72.0,80.0
719,170.81161283749998,171.27117065,60.0,85.0
720,170.81161283749998,171.51381717499999,65.0,81.0
721,170.81161283749998,171.82080179374998,41.0,87.0
722,171.2527883375,171.84286056874998,48.0,75.0
723,171.4733760875,171.93109566875,60.0,85.0
724,171.6939638375,171.95683090625,65.0,87.0
725,171.9145515875,172.37227116875,68.0,89.0
726,172.57631483749998,172.97521101874997,61.0,81.0
727,172.57631483749998,173.01565210625,68.0,87.0
728,172.57631483749998,173.01932856874998,65.0,82.0
729,173.0174903375,173.34285726874998,56.0,83.0
730,173.23807808749999,173.54506270625,61.0,93.0
731,172.57631483749998,173.793223925,49.0,89.0
732,173.6792535875,173.82079739374998,61.0,89.0
733,173.4586658375,173.86859140625,53.0,72.0
734,173.6792535875,173.87962079375,65.0,90.0
735,173.6792535875,173.93476773125,68.0,87.0
736,173.8998413375,173.97704704999998,56.0,84.0
737,174.34101683749998,174.76197179374998,63.0,92.0
738,174.34101683749998,174.881456825,67.0,82.0
739,175.00278008749999,175.10204457499998,67.0,68.0
740,175.00278008749999,175.25277953749998,70.0,81.0
741,174.7821923375,175.34652933125,46.0,70.0
742,175.2233678375,175.59836701249998,75.0,107.0
743,175.4439555875,175.60388170624998,63.0,100.0
744,174.34101683749998,175.70314619375,39.0,86.0
745,175.6645433375,175.7895430625,46.0,91.0
746,175.88513108749999,175.97152795625,67.0,75.0
747,175.88513108749999,175.999101425,63.0,86.0
748,176.10571883749998,176.293218425,63.0,87.0
749,176.3263065875,176.425571075,63.0,88.0
750,176.10571883749998,176.5763060375,68.0,87.0
751,176.10571883749998,176.60020304374999,51.0,79.0
752,176.76748208749999,177.00829038125,63.0,97.0
753,176.76748208749999,177.02667269375,68.0,95.0
754,176.76748208749999,177.05976085625,72.0,90.0
755,176.9880698375,177.278510375,51.0,83.0
756,176.10571883749998,177.30608384375,44.0,87.0
757,177.2086575875,177.3263043875,63.0,93.0
758,177.2086575875,177.35203962499997,68.0,90.0
759,177.87042083749998,178.12961144374998,65.0,86.0
760,177.87042083749998,178.396154975,72.0,82.0
761,178.3115963375,178.44762544999998,65.0,73.0
762,178.0910085875,178.65166911875,48.0,79.0
763,178.53218408749999,178.80608054375,68.0,86.0
764,178.53218408749999,178.81343346875,65.0,87.0
765,177.87042083749998,178.837330475,41.0,89.0
766,178.7527718375,178.9035068,48.0,74.0
767,178.9733595875,179.10938869999998,68.0,84.0
768,178.9733595875,179.1424768625,65.0,88.0
769,178.9733595875,179.14799155625,72.0,91.0
770,179.63512283749998,179.8557105875,61.0,84.0
771,179.63512283749998,179.9733573875,65.0,80.0
772,180.0762983375,180.20681275624997,61.0,83.0
773,179.8557105875,180.33916540625,56.0,71.0
774,180.29688608749998,180.513797375,65.0,81.0
775,180.29688608749998,180.543209075,61.0,86.0
776,180.29688608749998,180.57997369999998,68.0,84.0
777,180.5174738375,180.70864988749997,56.0,80.0
778,179.63512283749998,180.72151750625,49.0,90.0
779,180.7380615875,180.852031925,61.0,87.0
780,180.7380615875,180.91820825,73.0,90.0
781,180.7380615875,180.92372294375,65.0,83.0
782,181.39982483749998,181.86489734375,58.0,86.0
783,181.39982483749998,181.9329119,61.0,86.0
784,181.8410003375,182.1645290375,53.0,72.0
785,182.06158808749998,182.3630580125,58.0,92.0
786,182.2821758375,182.57813106875,53.0,84.0
787,182.5027635875,182.6351162375,58.0,88.0
788,182.5027635875,182.66820439999998,61.0,87.0
789,182.5027635875,182.71416018125,65.0,87.0
790,181.39982483749998,182.7674688875,46.0,87.0
791,182.7233513375,182.8704098375,53.0,80.0
792,183.16452683749998,183.62408465,72.0,81.0
793,183.16452683749998,183.64062873125,60.0,88.0
794,183.16452683749998,183.8630547125,48.0,92.0
795,183.6057023375,183.910848725,55.0,77.0
796,183.82629008749998,184.15165701875,60.0,97.0
797,183.82629008749998,184.15165701875,72.0,86.0
798,184.0468778375,184.29136259375,48.0,97.0
799,184.0468778375,184.35937715,55.0,88.0
800,184.2674655875,184.43474463125,60.0,95.0
801,184.2674655875,184.45312694375,72.0,87.0
802,184.92922883749998,185.30055155,65.0,85.0
803,185.3704043375,185.68841834375,48.0,70.0
804,184.92922883749998,185.72334473749999,53.0,86.0
805,184.92922883749998,185.9071678625,41.0,89.0
806,185.59099208749998,185.92003548124998,56.0,85.0
807,185.8115798375,185.999079425,48.0,78.0
808,186.0321675875,186.31709343125,60.0,87.0
809,186.2527553375,186.528490025,53.0,87.0
810,186.47334308749998,186.68473968125,56.0,81.0
811,187.1351063375,187.25091490625,61.0,87.0
812,186.9145185875,187.381429325,56.0,73.0
813,187.35569408749998,187.5909876875,65.0,87.0
814,187.35569408749998,187.61672292499998,61.0,88.0
815,187.35569408749998,187.63326700624998,68.0,88.0
816,186.69393083749998,187.67370809375,49.0,92.0
817,187.5762818375,187.86120768125,56.0,81.0
818,187.7968695875,187.97701625,61.0,90.0
819,187.7968695875,187.98253094375,65.0,90.0
820,187.7968695875,188.00642795,68.0,90.0
821,187.7968695875,188.05422196249998,73.0,88.0
822,188.0174573375,188.08914835625,53.0,61.0
823,188.23804508749998,188.39429474374998,63.0,77.0
824,188.45863283749998,188.8446614,63.0,91.0
825,188.45863283749998,188.90899949375,67.0,78.0
826,188.45863283749998,188.940249425,70.0,84.0
827,188.8998083375,189.20311649374997,46.0,71.0
828,189.12039608749998,189.38326315625,75.0,87.0
829,189.12039608749998,189.41267485625,63.0,92.0
830,189.12039608749998,189.42370424375,67.0,95.0
831,189.12039608749998,189.4365718625,70.0,88.0
832,188.45863283749998,189.46598356249999,39.0,90.0
833,189.3409838375,189.49723349375,46.0,72.0
834,189.5615715875,189.63510083749998,63.0,87.0
835,189.5615715875,189.8446592,67.0,103.0
836,189.5615715875,189.98068831249998,70.0,90.0
837,189.7821593375,190.0689234125,63.0,88.0
838,190.00274708749998,190.14061443125,67.0,75.0
839,190.22333483749998,190.59098108749998,63.0,84.0
840,190.22333483749998,190.70678965624998,68.0,88.0
841,190.6645103375,190.95495087499998,51.0,76.0
842,190.88509808749998,190.9806861125,63.0,89.0
843,190.88509808749998,190.98620080625,68.0,87.0
844,190.88509808749998,191.02296543125,72.0,82.0
845,191.1056858375,191.31892066249998,63.0,95.0
846,191.1056858375,191.34649413124998,68.0,95.0
847,191.1056858375,191.3850969875,72.0,89.0
848,190.22333483749998,191.4365674625,44.0,87.0
849,191.3262735875,191.51377317499998,51.0,91.0
850,191.5468613375,191.6571552125,63.0,93.0
851,191.98803683749998,192.41818295,65.0,83.0
852,191.98803683749998,192.44207995624998,68.0,87.0
853,192.4292123375,192.69575586874998,48.0,73.0
854,192.64980008749998,192.881417225,72.0,90.0
855,192.64980008749998,192.88693191875,65.0,90.0
856,191.98803683749998,192.89979953749997,41.0,91.0
857,192.8703878375,193.02663749375,48.0,82.0
858,193.0909755875,193.2012694625,68.0,87.0
859,193.0909755875,193.20678415625,65.0,89.0
860,193.75273883749998,194.03950291249998,61.0,78.0
861,193.75273883749998,194.24906127499997,65.0,77.0
862,193.75273883749998,194.36486984375,68.0,81.0
863,194.1939143375,194.543178275,61.0,85.0
864,194.41450208749998,194.62957514375,68.0,76.0
865,194.41450208749998,194.63325160624998,65.0,92.0
866,193.9733265875,194.95678030624998,44.0,79.0
867,194.8556775875,195.03214778749998,61.0,87.0
868,193.75273883749998,195.03582425,37.0,88.0
869,194.8556775875,195.42001458124997,73.0,90.0
870,194.8556775875,195.45310274374998,65.0,88.0
871,194.8556775875,195.48986736875,68.0,87.0
872,195.29685308749998,195.53949961249998,61.0,80.0
873,195.7380285875,195.999057425,58.0,76.0
874,195.9586163375,196.2380274875,61.0,88.0
875,196.17920408749998,196.44023292499998,65.0,93.0
876,196.17920408749998,196.50457101875,53.0,83.0
877,196.6203795875,196.82993795,58.0,90.0
878,195.51744083749998,196.99721699375,46.0,89.0
879,196.8409673375,197.0762609375,53.0,71.0
880,196.6203795875,197.12589318124998,61.0,89.0
881,197.06155508749998,197.23434882499998,58.0,87.0
882,196.6203795875,197.2600840625,65.0,91.0
883,197.7233183375,197.81706813124998,60.0,89.0
884,197.5027305875,198.0211118,55.0,82.0
885,197.28214283749998,198.05603819375,48.0,93.0
886,197.94390608749998,198.23618485625,72.0,86.0
887,197.94390608749998,198.2453760125,60.0,97.0
888,198.1644938375,198.4328756,55.0,86.0
889,198.3850815875,198.50824308125,60.0,92.0
890,198.3850815875,198.53949301249997,72.0,87.0
891,199.04684483749998,199.31338836875,61.0,87.0
892,199.04684483749998,199.53029965625,65.0,86.0
893,199.04684483749998,199.57074074374998,68.0,86.0
894,199.4880203375,199.61853475624997,61.0,86.0
895,199.2674325875,199.75456386874998,56.0,73.0
896,199.04684483749998,200.03397501874997,49.0,91.0
897,199.9291958375,200.204930525,56.0,83.0
898,199.7086080875,200.25456276875,61.0,91.0
899,199.7086080875,200.4034595,65.0,97.0
900,200.1497835875,200.410812425,53.0,93.0
901,199.7086080875,200.48985636875,68.0,91.0
902,200.3703713375,200.49353283124998,56.0,88.0
903,200.59095908749998,200.6791941875,61.0,90.0
904,200.81154683749998,201.0909579875,63.0,93.0
905,200.81154683749998,201.2563988,67.0,82.0
906,201.2527223375,201.34647213124998,63.0,87.0
907,201.0321345875,201.51191294375,46.0,77.0
908,201.4733100875,201.76742708749998,63.0,95.0
909,201.4733100875,201.7858094,67.0,92.0
910,201.4733100875,201.793162325,70.0,88.0
911,200.81154683749998,201.91632381875,39.0,90.0
912,201.6938978375,201.94757375,46.0,85.0
913,201.9144855875,202.10749986874998,67.0,90.0
914,201.9144855875,202.116691025,70.0,88.0
915,201.9144855875,202.12955864375,63.0,90.0
916,202.57624883749997,202.65345455,37.0,88.0
917,202.57624883749997,203.2600708625,61.0,86.0
918,202.57624883749997,203.454923375,65.0,87.0
919,203.2380120875,203.73249629375,56.0,83.0
920,203.0174243375,203.8262460875,49.0,73.0
921,203.4585998375,204.09278961874998,61.0,87.0
922,203.6791875875,204.17918648749998,65.0,88.0
923,203.8997753375,204.1938923375,68.0,79.0
924,204.12036308749998,204.40161246875,73.0,90.0
925,204.7821263375,204.90712606249997,63.0,85.0
926,204.5615385875,205.11116973125,58.0,74.0
927,205.0027140875,205.11852265624998,63.0,55.0
928,204.34095083749997,205.54866876875,51.0,89.0
929,205.4438895875,205.63322740625,58.0,88.0
930,205.0027140875,205.7306536625,67.0,89.0
931,205.88506508749998,206.0210942,67.0,57.0
932,205.6644773375,206.02477066249998,63.0,87.0
933,206.10565283749997,206.46778439374998,65.0,79.0
934,206.10565283749997,206.6424163625,70.0,87.0
935,206.5468283375,206.68285744999997,65.0,78.0
936,206.7674160875,207.43837049374997,65.0,84.0
937,206.7674160875,207.6681494,70.0,90.0
938,207.4291793375,207.7380021875,48.0,61.0
939,206.10565283749997,207.77109035,41.0,87.0
940,207.64976708749998,207.78395796874997,65.0,85.0
941,207.87035483749997,208.57439740625,69.0,85.0
942,207.87035483749997,208.5799121,65.0,87.0
943,208.7527058375,208.9365289625,65.0,83.0
944,208.7527058375,208.98616120625,72.0,76.0
945,208.9732935875,209.249028275,48.0,32.0
946,207.87035483749997,209.46042486875,41.0,86.0
947,209.1938813375,209.47513071875,65.0,82.0
948,209.63511254374998,209.94382435625,66.0,80.0
949,209.63511254374998,210.16541504375,70.0,85.0
950,210.08965754374998,210.35102091874998,73.0,87.0
951,210.31693004374998,210.60291460624998,78.0,87.0
952,209.86238504374998,210.82261135624998,61.0,73.0
953,210.77147504374997,211.05556566874998,66.0,88.0
954,209.63511254374998,211.16162616875,54.0,85.0
955,210.99874754374997,211.19571704375,61.0,82.0
956,210.54420254374998,211.32639873124998,73.0,97.0
957,211.22602004374997,211.43814104375,66.0,80.0
958,211.90783754375,212.23042885625,65.0,78.0
959,211.68056504375,212.23789153958333,60.0,75.0
960,211.45329254375,212.67259284374998,53.0,87.0
961,212.13511004375,212.71177193124998,77.0,80.0
962,212.58304064375,212.90393602708332,65.0,80.0
963,212.35916014375,213.12408518541665,60.0,81.0
964,213.03080164374998,213.21923439791667,65.0,86.0
965,212.80692114375,213.22483141041667,77.0,80.0
966,213.25468214375,213.42072684791665,64.0,80.0
967,213.25468214375,213.55318947708332,68.0,82.0
968,213.47856264375,213.7938610145833,64.0,73.0
969,213.70244314375,213.99348779374998,68.0,87.0
970,213.92632364374998,214.14060139375,71.0,80.0
971,213.47856264375,214.465968325,47.0,80.0
972,213.25468214375,214.51560056875,40.0,86.0
973,214.14979255,214.598320975,76.0,88.0
974,214.3703803,214.65162968125,71.0,87.0
975,214.59096805,214.9108202875,68.0,83.0
976,214.8115558,215.142437425,64.0,74.0
977,215.47331905,215.75824489375,61.0,81.0
978,215.6939068,215.91449455,63.0,87.0
979,215.91449455,216.1350823,66.0,92.0
980,215.2527313,216.14059699375,54.0,70.0
981,216.1350823,216.33912596874998,59.0,89.0
982,216.5762578,216.774786775,59.0,85.0
983,215.03214355,216.83544840624998,47.0,88.0
984,216.35567005,216.8740512625,54.0,82.0
985,216.79684555,217.07074200625,62.0,79.0
986,216.79684555,217.20860935,66.0,82.0
987,217.23802105,217.52662335624998,62.0,86.0
988,217.4586088,217.54868213125,66.0,78.0
989,217.4586088,217.67919655,69.0,86.0
990,217.67919655,217.95676946875,74.0,87.0
991,217.8997843,218.19206306875,69.0,93.0
992,218.12037205,218.5673092,66.0,82.0
993,217.0174333,218.58783157916668,57.0,73.0
994,218.5617121875,218.58783157916668,57.0,78.0
995,216.79684555,218.600891275,50.0,90.0
996,218.3409598,218.600891275,62.0,83.0
997,218.5617121875,219.02253288333333,61.0,87.0
998,219.0094731875,219.317308875,57.0,88.0
999,219.2333536875,219.52253266666668,61.0,86.0
1000,219.68111468749998,219.94230860416667,61.0,86.0
1001,219.4572341875,219.9945473875,69.0,88.0
1002,219.9049951875,220.32290545416666,57.0,91.0
1003,218.5617121875,220.3527561875,45.0,85.0
1004,218.78559268749999,220.3527561875,52.0,70.0
1005,220.1288756875,220.37887557916667,69.0,86.0
1006,220.3527561875,220.5878307125,59.0,83.0
1007,220.3527561875,220.62887547083332,63.0,86.0
1008,220.8005171875,221.07850214166666,66.0,88.0
1009,221.0243976875,221.21283044166665,63.0,80.0
1010,221.2482781875,221.5393228375,71.0,93.0
1011,221.47215868749998,221.757606325,66.0,86.0
1012,220.57663668749998,221.93857639583334,54.0,81.0
1013,220.3527561875,221.95723310416668,47.0,88.0
1014,221.6960391875,221.96656145833333,63.0,87.0
1015,221.9199196875,222.19790464166667,59.0,90.0
1016,222.5915611875,222.8266357125,65.0,80.0
1017,222.8154416875,223.03185950416668,61.0,86.0
1018,223.26320268749998,223.41059068333334,65.0,87.0
1019,223.0393221875,223.46096379583332,68.0,85.0
1020,223.7109636875,223.9012621125,61.0,87.0
1021,223.4870831875,223.92178449166667,73.0,93.0
1022,222.36768068749998,223.98708297083334,56.0,75.0
1023,222.1438001875,224.00014266666668,49.0,91.0
1024,223.9348441875,224.02253071666667,39.0,86.0
1025,223.9348441875,224.37327683333334,63.0,88.0
1026,223.9348441875,224.39566488333332,75.0,86.0
1027,224.6064856875,224.86208259166668,63.0,92.0
1028,224.8303661875,225.0430526625,67.0,97.0
1029,224.3826051875,225.10275412916667,58.0,87.0
1030,225.0542466875,225.26879883333334,63.0,100.0
1031,224.1587246875,225.4572315875,51.0,75.0
1032,225.2781271875,225.62887330416666,70.0,87.0
1033,225.5020076875,225.69417178333333,63.0,93.0
1034,225.70163446666666,225.91805228333334,36.0,89.0
1035,225.72402251666665,225.93484332083332,67.0,77.0
1036,225.7035001375,225.9497686875,72.0,79.0
1037,225.70909715,225.95163435833334,60.0,84.0
1038,226.04305222916668,226.22588797083333,36.0,87.0
1039,226.06357460833334,226.25014169166667,67.0,80.0
1040,226.05984326666666,226.257604375,60.0,86.0
1041,226.05424625416666,226.28185809583334,72.0,82.0
1042,226.35461925833334,226.52252963333333,36.0,97.0
1043,226.36767895416668,226.52812664583334,67.0,89.0
1044,226.37327596666665,226.5318579875,60.0,91.0
1045,226.36581328333332,226.54678335416668,72.0,88.0
1046,226.64006689583334,227.48148444166665,60.0,92.0
1047,226.64006689583334,227.48148444166665,67.0,91.0
1048,226.63260421249998,227.49827547916667,72.0,88.0
1049,226.63073854166666,227.50746663541668,36.0,97.0
1050,227.51665779166666,227.68026037291668,60.0,76.0
1051,227.51665779166666,227.72253969166667,53.0,77.0
1052,227.95783329166667,228.24092090416667,53.0,82.0
1053,227.51665779166666,228.44864103541667,41.0,79.0
1054,228.17842104166667,228.46518511666667,56.0,80.0
1055,227.73724554166665,228.48724389166665,48.0,73.0
1056,228.39900879166666,228.70415517916666,65.0,88.0
1057,228.84018429166667,229.12694836666665,53.0,86.0
1058,228.61959654166665,229.17106591666666,60.0,78.0
1059,229.06077204166667,229.20231584791665,56.0,72.0
1060,229.72253529166667,229.94496127291666,65.0,79.0
1061,229.94312304166667,230.15084317291667,61.0,77.0
1062,229.50194754166665,230.49275418541666,56.0,72.0
1063,230.38429854166665,230.51297472916667,65.0,91.0
1064,229.28135979166666,230.54422466041666,49.0,88.0
1065,230.16371079166666,230.57731282291667,68.0,87.0
1066,230.82547404166667,231.02767947916666,61.0,86.0
1067,230.60488629166667,231.16003212916667,73.0,91.0
1068,231.48723729166667,231.68576626666666,67.0,87.0
1069,231.70782504166667,231.90635401666665,63.0,88.0
1070,231.26664954166665,231.96885387916666,58.0,79.0
1071,231.04606179166666,232.02767727916665,51.0,88.0
1072,232.14900054166665,232.35304421041667,67.0,81.0
1073,231.92841279166666,232.35488244166666,70.0,83.0
1074,232.36958829166667,232.62877889791667,75.0,91.0
1075,232.59017604166667,232.81260202291668,70.0,87.0
1076,233.25193929166667,233.58649737916667,58.0,72.0
1077,233.47252704166667,233.69679125416667,60.0,84.0
1078,233.03135154166665,233.95230539791666,51.0,77.0
1079,233.69311479166666,233.98723179166666,63.0,95.0
1080,233.91370254166665,234.19311369166667,56.0,76.0
1081,232.81076379166666,234.31627518541666,44.0,86.0
1082,234.13429029166667,234.33833396041666,51.0,88.0
1083,234.35487804166667,234.57730402291668,56.0,85.0
1084,235.01664129166667,235.37325815416668,53.0,84.0
1085,234.57546579166666,235.46333148541666,41.0,84.0
1086,234.79605354166665,235.49641964791667,48.0,67.0
1087,235.23722904166667,235.51112549791665,56.0,77.0
1088,235.45781679166666,235.88244821041667,65.0,88.0
1089,235.67840454166665,235.92288929791667,60.0,89.0
1090,235.89899229166667,236.16737405416666,56.0,86.0
1091,236.11958004166667,236.29605024166668,53.0,93.0
1092,236.34016779166666,236.81259322291666,68.0,86.0
1093,236.78134329166667,237.01479866041666,65.0,86.0
1094,237.00193104166667,237.33465089791667,61.0,85.0
1095,237.22251879166666,237.47251824166668,73.0,100.0
1096,236.56075554166665,237.62692966666665,56.0,73.0
1097,236.34016779166666,237.68391483541666,49.0,88.0
1098,237.44310654166668,237.76847347291667,68.0,86.0
1099,237.66369429166667,237.92288489791667,65.0,87.0
1100,237.88428204166667,238.08648747916666,61.0,87.0
1101,238.54604529166667,238.82729467291665,61.0,80.0
1102,238.76663304166667,239.00008841041665,65.0,86.0
1103,238.32545754166665,239.26295547916666,53.0,69.0
1104,238.10486979166666,239.32545534166667,46.0,86.0
1105,238.98722079166666,239.45229329791667,70.0,89.0
1106,239.20780854166668,239.54604309166666,65.0,89.0
1107,239.42839629166667,239.78501315416668,61.0,87.0
1108,239.64898404166667,239.85670417291666,58.0,87.0
1109,239.86957179166666,240.32912960416667,72.0,81.0
1110,239.86957179166666,240.34567368541667,60.0,88.0
1111,239.86957179166666,240.56809966666665,48.0,92.0
1112,240.31074729166667,240.61589367916667,55.0,77.0
1113,240.53133504166667,240.85670197291665,60.0,97.0
1114,240.53133504166667,240.85670197291665,72.0,86.0
1115,240.75192279166666,240.99640754791668,48.0,97.0
1116,240.75192279166666,241.06442210416665,55.0,88.0
1117,240.97251054166668,241.13978958541668,60.0,95.0
1118,240.97251054166668,241.15817189791667,72.0,87.0
1119,241.63427379166666,242.00559650416668,65.0,85.0
1120,242.07544929166667,242.39346329791667,48.0,70.0
1121,241.63427379166666,242.42838969166667,53.0,86.0
1122,241.63427379166666,242.61221281666667,41.0,89.0
1123,242.29603704166666,242.62508043541666,56.0,85.0
1124,242.51662479166666,242.70412437916667,48.0,78.0
1125,242.73721254166668,243.02213838541667,60.0,87.0
1126,242.95780029166667,243.23353497916668,53.0,87.0
1127,243.17838804166666,243.38978463541667,56.0,81.0
1128,243.84015129166667,243.95595986041667,61.0,87.0
1129,243.61956354166665,244.08647427916668,56.0,73.0
1130,244.06073904166666,244.29603264166667,65.0,87.0
1131,244.06073904166666,244.32176787916666,61.0,88.0
1132,244.06073904166666,244.33831196041666,68.0,88.0
1133,243.39897579166666,244.37875304791666,49.0,92.0
1134,244.28132679166666,244.56625263541667,56.0,81.0
1135,244.50191454166668,244.68206120416667,61.0,90.0
1136,244.50191454166668,244.68757589791667,65.0,90.0
1137,244.50191454166668,244.71147290416667,68.0,90.0
1138,244.50191454166668,244.75926691666666,73.0,88.0
1139,244.72250229166667,244.79419331041666,53.0,61.0
1140,244.94309004166666,245.09933969791666,63.0,77.0
1141,245.16367779166666,245.54970635416666,63.0,91.0
1142,245.16367779166666,245.61404444791665,67.0,78.0
1143,245.16367779166666,245.64529437916667,70.0,84.0
1144,245.60485329166667,245.90816144791665,46.0,71.0
1145,245.82544104166666,246.08830811041668,75.0,87.0
1146,245.82544104166666,246.11771981041667,63.0,92.0
1147,245.82544104166666,246.12874919791668,67.0,95.0
1148,245.82544104166666,246.14161681666667,70.0,88.0
1149,245.16367779166666,246.17102851666667,39.0,90.0
1150,246.04602879166666,246.20227844791665,46.0,72.0
1151,246.26661654166668,246.34014579166666,63.0,87.0
1152,246.26661654166668,246.54970415416668,67.0,103.0
1153,246.26661654166668,246.68573326666666,70.0,90.0
1154,246.48720429166667,246.77396836666668,63.0,88.0
1155,246.70779204166666,246.84565938541667,67.0,75.0
1156,246.92837979166666,247.29602604166666,63.0,84.0
1157,246.92837979166666,247.41183461041666,68.0,88.0
1158,247.36955529166667,247.65999582916666,51.0,76.0
1159,247.59014304166666,247.68573106666668,63.0,89.0
1160,247.59014304166666,247.69124576041668,68.0,87.0
1161,247.59014304166666,247.72801038541667,72.0,82.0
1162,247.81073079166666,248.02396561666666,63.0,95.0
1163,247.81073079166666,248.05153908541666,68.0,95.0
1164,247.81073079166666,248.09014194166667,72.0,89.0
1165,246.92837979166666,248.14161241666667,44.0,87.0
1166,248.03131854166668,248.21881812916666,51.0,91.0
1167,248.25190629166667,248.36220016666667,63.0,93.0
1168,248.69308179166666,249.12322790416667,65.0,83.0
1169,248.69308179166666,249.14712491041666,68.0,87.0
1170,249.13425729166667,249.40080082291666,48.0,73.0
1171,249.35484504166666,249.58646217916666,72.0,90.0
1172,249.35484504166666,249.59197687291666,65.0,90.0
1173,248.69308179166666,249.60484449166665,41.0,91.0
1174,249.57543279166666,249.73168244791665,48.0,82.0
1175,249.79602054166668,249.90631441666667,68.0,87.0
1176,249.79602054166668,249.91182911041668,65.0,89.0
1177,250.45778379166666,250.74454786666666,61.0,78.0
1178,250.45778379166666,250.95410622916665,65.0,77.0
1179,250.45778379166666,251.06991479791665,68.0,81.0
1180,250.89895929166667,251.24822322916665,61.0,85.0
1181,251.11954704166666,251.33462009791666,68.0,76.0
1182,251.11954704166666,251.33829656041667,65.0,92.0
1183,250.67837154166665,251.66182526041666,44.0,79.0
1184,251.56072254166668,251.73719274166666,61.0,87.0
1185,250.45778379166666,251.74086920416667,37.0,88.0
1186,251.56072254166668,252.12505953541665,73.0,90.0
1187,251.56072254166668,252.15814769791666,65.0,88.0
1188,251.56072254166668,252.19491232291665,68.0,87.0
1189,252.00189804166666,252.24454456666666,61.0,80.0
1190,252.44307354166665,252.70410237916667,58.0,76.0
1191,252.66366129166667,252.94307244166666,61.0,88.0
1192,252.88424904166666,253.14527787916666,65.0,93.0
1193,252.88424904166666,253.20961597291665,53.0,83.0
1194,253.32542454166668,253.53498290416667,58.0,90.0
1195,252.22248579166666,253.70226194791667,46.0,89.0
1196,253.54601229166667,253.78130589166668,53.0,71.0
1197,253.32542454166668,253.83093813541666,61.0,89.0
1198,253.76660004166666,253.93939377916666,58.0,87.0
1199,253.32542454166668,253.96512901666665,65.0,91.0
1200,254.42836329166667,254.52211308541666,60.0,89.0
1201,254.20777554166665,254.72615675416665,55.0,82.0
1202,253.98718779166666,254.76108314791668,48.0,93.0
1203,254.64895104166666,254.94122981041667,72.0,86.0
1204,254.64895104166666,254.95042096666666,60.0,97.0
1205,254.86953879166666,255.13792055416667,55.0,86.0
1206,255.09012654166668,255.21328803541667,60.0,92.0
1207,255.09012654166668,255.24453796666666,72.0,87.0
1208,255.75188979166666,256.0184333229167,61.0,87.0
1209,255.75188979166666,256.2353446104167,65.0,86.0
1210,255.75188979166666,256.27578569791666,68.0,86.0
1211,256.19306529166664,256.32357971041665,61.0,86.0
1212,255.97247754166665,256.45960882291666,56.0,73.0
1213,255.75188979166666,256.73901997291665,49.0,91.0
1214,256.6342407916667,256.9099754791667,56.0,83.0
1215,256.41365304166663,256.95960772291664,61.0,91.0
1216,256.41365304166663,257.1085044541667,65.0,97.0
1217,256.8548285416667,257.11585737916664,53.0,93.0
1218,256.41365304166663,257.1949013229167,68.0,91.0
1219,257.07541629166667,257.19857778541666,56.0,88.0
1220,257.29600404166666,257.3842391416667,61.0,90.0
1221,257.51659179166666,257.79600294166664,63.0,93.0
1222,257.51659179166666,257.9614437541667,67.0,82.0
1223,257.95776729166664,258.05151708541666,63.0,87.0
1224,257.73717954166665,258.21695789791664,46.0,77.0
1225,258.1783550416667,258.47247204166666,63.0,95.0
1226,258.1783550416667,258.4908543541667,67.0,92.0
1227,258.1783550416667,258.49820727916665,70.0,88.0
1228,257.51659179166666,258.62136877291664,39.0,90.0
1229,258.3989427916667,258.6526187041667,46.0,85.0
1230,258.6195305416667,258.81254482291666,67.0,90.0
1231,258.6195305416667,258.82173597916665,70.0,88.0
1232,258.6195305416667,258.83460359791667,63.0,90.0
1233,259.28129379166666,259.3584995041667,37.0,88.0
1234,259.28129379166666,259.96511581666664,61.0,86.0
1235,259.28129379166666,260.15996832916665,65.0,87.0
1236,259.94305704166663,260.43754124791667,56.0,83.0
1237,259.72246929166664,260.5312910416667,49.0,73.0
1238,260.1636447916667,260.79783457291666,61.0,87.0
1239,260.3842325416667,260.88423144166666,65.0,88.0
1240,260.60482029166667,260.89893729166664,68.0,79.0
1241,260.82540804166666,261.10665742291667,73.0,90.0
1242,261.48717129166664,261.61217101666665,63.0,85.0
1243,261.26658354166665,261.81621468541664,58.0,74.0
1244,261.7077590416667,261.82356761041666,63.0,55.0
1245,261.04599579166666,262.25371372291664,51.0,89.0
1246,262.1489345416667,262.3382723604167,58.0,88.0
1247,261.7077590416667,262.4356986166667,67.0,89.0
1248,262.59011004166666,262.7261391541667,67.0,57.0
1249,262.36952229166667,262.72981561666666,63.0,87.0
1250,262.81069779166666,263.23165274791666,60.0,87.0
1251,262.81069779166666,263.2500350604167,70.0,89.0
1252,262.81069779166666,263.2665791416667,65.0,86.0
1253,263.47246104166663,263.65076947291664,60.0,87.0
1254,263.47246104166663,263.67282824791664,65.0,87.0
1255,263.47246104166663,263.70040171666665,70.0,90.0
1256,262.81069779166666,263.80518089791667,41.0,97.0
1257,263.25187329166664,263.85297491041666,48.0,65.0
1258,264.13422429166667,266.2996607041667,60.0,88.0
1259,264.13422429166667,266.31436655416667,65.0,88.0
1260,264.13422429166667,266.32723417291663,69.0,88.0
1261,264.13422429166667,266.36032233541664,41.0,91.0
1262,266.34010179166665,266.36032233541664,41.0,85.0
1263,266.56068954166665,267.4871580916667,48.0,67.0
1264,266.78127729166664,267.51473156041664,53.0,84.0
1265,267.00186504166663,267.54230502916664,65.0,88.0
1266,267.4430405416667,267.7463486979167,60.0,85.0
1267,267.66362829166667,267.9467159041667,53.0,87.0
1268,267.88421604166666,268.13053902916664,65.0,80.0
1269,268.32539154166665,268.55333221666666,56.0,85.0
1270,268.54597929166664,268.8143610541667,61.0,79.0
1271,268.7665670416667,269.26105124791667,56.0,87.0
1272,268.10480379166665,269.30884526041666,49.0,88.0
1273,269.42833029166667,269.72428552291666,61.0,84.0
1274,269.2077425416667,269.73531491041666,65.0,90.0
1275,269.64891804166666,269.9044321854167,56.0,75.0
1276,270.31068129166664,270.58273951666666,60.0,85.0
1277,270.53126904166663,271.02391501666665,56.0,89.0
1278,270.09009354166665,271.0275914791667,51.0,77.0
1279,269.86950579166665,271.1084736541667,44.0,87.0
1280,270.9724445416667,271.20589991041663,60.0,86.0
1281,270.9724445416667,271.47795813541666,63.0,87.0
1282,271.19303229166667,271.54229622916665,56.0,87.0
1283,271.41362004166666,271.65994302916664,60.0,90.0
1284,272.07538329166664,272.36766206041665,51.0,87.0
1285,271.85479554166665,272.38236791041663,46.0,78.0
1286,272.2959710416667,272.6029556604167,55.0,102.0
1287,272.7371465416667,272.78861701666665,55.0,73.0
1288,272.5165587916667,272.9319990541667,46.0,95.0
1289,271.63420779166665,272.9761166041667,39.0,91.0
1290,272.7371465416667,273.04229292916665,58.0,86.0
1291,272.95773429166667,273.2444983666667,51.0,88.0
1292,273.17832204166666,273.4816301979167,63.0,87.0
1293,273.84008529166664,274.34376065416666,61.0,82.0
1294,274.06067304166663,274.38236351041667,58.0,91.0
1295,274.2812607916667,274.7500097604167,53.0,84.0
1296,274.5018485416667,274.80883316041667,58.0,88.0
1297,273.39890979166665,274.94853873541666,46.0,91.0
1298,274.72243629166667,274.9981709791667,61.0,83.0
1299,274.94302404166666,275.1783176416667,65.0,77.0
1300,275.38419954166665,275.91177191041663,43.0,87.0
1301,275.60478729166664,276.09559503541664,48.0,92.0
1302,275.16361179166665,276.16728605416665,36.0,93.0
1303,275.8253750416667,276.3216974791667,60.0,90.0
1304,276.0459627916667,276.36581502916664,43.0,83.0
1305,276.2665505416667,276.51838822291666,48.0,93.0
1306,276.70772604166666,276.88051977916666,48.0,88.0
1307,276.48713829166667,276.89706386041667,60.0,81.0
1308,276.83640222916665,277.78125309166666,53.0,80.0
1309,276.93934317916666,278.15992872916667,56.0,77.0
1310,278.0367672354167,281.08823111041664,53.0,71.0
1311,276.99449011666667,281.11948104166663,65.0,77.0
1312,276.9411814104167,281.21323083541665,41.0,87.0
1313,277.4430185416667,281.21323083541665,48.0,70.0
