,start,end,pitch,velocity
0,31.796396775000005,31.896396675000005,53.0,93.0
1,32.01068227500001,32.108896462500006,53.0,89.0
2,32.224967775,32.3124676875,53.0,92.0
3,32.439253275000006,32.626753087500006,53.0,122.0
4,32.867824275000004,32.992824150000004,50.0,93.0
5,33.082109775000006,33.255323887500005,57.0,96.0
6,33.296395275,34.14282300000001,55.0,107.0
7,34.36782277500001,34.58567970000001,53.0,96.0
8,34.582108275,34.783893787500006,55.0,86.0
9,34.796393775000006,35.00353642500001,60.0,100.0
10,35.010679275,35.37853605000001,57.0,99.0
11,35.653535775,35.8713927,57.0,100.0
12,36.08210677500001,36.25710660000001,48.0,88.0
13,36.296392275,36.878534550000005,50.0,100.0
14,37.796390775000006,37.982104875000005,50.0,95.0
15,38.010676275,38.19103323750001,48.0,69.0
16,38.224961775000004,38.444604412500006,50.0,95.0
17,38.43924727500001,38.63567565,53.0,99.0
18,38.653532775,38.898175387500004,55.0,90.0
19,38.867818275000005,39.4767462375,53.0,89.0
20,39.510674775000005,39.71246028750001,50.0,89.0
21,39.72496027500001,39.971388600000004,53.0,79.0
22,39.939245775,40.083888487500005,55.0,79.0
23,40.153531275000006,40.4374595625,55.0,95.0
24,40.582102275000004,40.708887862500006,55.0,70.0
25,40.79638777500001,40.99638757500001,55.0,107.0
26,41.224958775000005,41.353530075,53.0,86.0
27,41.43924427500001,42.3838861875,57.0,97.0
28,44.653526775,44.8338837375,57.0,112.0
29,44.867812275000006,45.06245493750001,60.0,83.0
30,45.08209777500001,45.19995480000001,62.0,97.0
31,45.296383275000004,45.58031156250001,62.0,102.0
32,45.939239775000004,46.171382400000006,60.0,117.0
33,46.36781077500001,46.512453487500004,57.0,100.0
34,46.582096275000005,47.31959553750001,55.0,102.0
35,48.08209477500001,48.29995170000001,53.0,96.0
36,48.296380275000004,48.48745151250001,55.0,95.0
37,48.51066577500001,48.70530843750001,60.0,99.0
38,48.72495127500001,48.94280820000001,57.0,127.0
39,49.15352227500001,49.257093600000005,57.0,100.0
40,49.36780777500001,49.58387898750001,57.0,107.0
41,49.79637877500001,49.99102143750001,48.0,102.0
42,50.010664275,50.998163287500006,50.0,112.0
43,51.51066277500001,51.72494827500001,50.0,95.0
44,51.72494827500001,51.921376650000006,48.0,86.0
45,51.939233775000005,52.112447887500004,55.0,100.0
46,52.15351927500001,52.44637612500001,53.0,112.0
47,53.653517775000005,53.828517600000005,57.0,107.0
48,53.86780327500001,54.03566025000001,55.0,96.0
49,54.51065977500001,54.71601671250001,53.0,100.0
50,54.939230775000006,55.07315921250001,52.0,99.0
51,55.15351627500001,56.341015087500004,50.0,99.0
52,59.22494077500001,59.32494067500001,53.0,93.0
53,59.43922627500001,59.53744046250001,53.0,89.0
54,59.653511775000005,59.741011687500006,53.0,92.0
55,59.86779727500001,60.05529708750001,53.0,122.0
56,60.08208277500001,60.28743971250001,53.0,107.0
57,60.296368275000006,60.421368150000006,50.0,93.0
58,60.51065377500001,60.68386788750001,57.0,96.0
59,60.72493927500001,61.57136700000001,55.0,107.0
60,61.79636677500001,62.01422370000001,53.0,96.0
61,62.010652275000005,62.21243778750001,55.0,86.0
62,62.22493777500001,62.43208042500001,60.0,100.0
63,62.43922327500001,62.80708005000001,57.0,99.0
64,63.08207977500001,63.29993670000001,57.0,100.0
65,63.51065077500001,63.68565060000001,48.0,88.0
66,63.72493627500001,64.30707855000001,50.0,100.0
67,65.22493477500001,65.410648875,50.0,95.0
68,65.43922027500001,65.61957723750001,48.0,69.0
69,65.65350577500001,65.87314841250002,50.0,95.0
70,65.867791275,66.06421965000001,53.0,99.0
71,66.082076775,66.3267193875,55.0,90.0
72,66.296362275,66.90529023750001,53.0,89.0
73,66.93921877500001,67.14100428750001,50.0,89.0
74,67.153504275,67.39993260000001,53.0,79.0
75,67.367789775,67.5124324875,55.0,79.0
76,67.58207527500001,67.86600356250001,55.0,95.0
77,68.01064627500001,68.13743186250001,55.0,70.0
78,68.22493177500002,68.424931575,55.0,107.0
79,68.653502775,68.78207407500001,53.0,86.0
80,68.86778827500001,69.81243018750001,57.0,97.0
81,72.082070775,72.2624277375,57.0,112.0
82,72.29635627500001,72.49099893750001,60.0,83.0
83,72.51064177500001,72.6284988,62.0,97.0
84,72.72492727500001,73.0088555625,62.0,102.0
85,73.367783775,73.59992640000002,53.0,117.0
86,73.79635477500001,73.94099748750001,57.0,100.0
87,74.01064027500001,74.74813953750001,55.0,102.0
88,75.510638775,75.72849570000001,53.0,96.0
89,75.724924275,75.9159955125,55.0,95.0
90,75.93920977500001,76.13385243750001,60.0,99.0
91,76.36778077500001,76.54278060000001,57.0,102.0
92,76.796351775,76.91778022500002,60.0,117.0
93,77.01063727500001,77.232065625,62.0,100.0
94,77.43920827500001,78.29277885,53.0,102.0
95,78.93920677500002,79.153492275,50.0,95.0
96,79.153492275,79.34992065000002,48.0,86.0
97,79.36777777500001,79.54099188750001,55.0,100.0
98,79.58206327500001,79.87492012500002,53.0,112.0
99,80.86777627500001,81.00706185000001,57.0,96.0
100,81.08206177500001,81.33920437500001,60.0,127.0
101,81.510632775,81.7159897125,60.0,117.0
102,81.93920377500001,82.02670368750002,60.0,112.0
103,82.36777477500002,82.56241743750002,57.0,102.0
104,82.58206027500002,84.48920122500002,62.0,127.0
105,85.36777177500001,85.64098578750001,69.0,117.0
106,85.79634277500001,86.15705670000001,72.0,127.0
107,86.224913775,86.4999135,74.0,122.0
108,86.65348477500001,86.91241308750001,74.0,122.0
109,87.08205577500001,87.37491262500001,76.0,127.0
110,87.510626775,87.80348362500001,77.0,117.0
111,87.93919777500001,88.24455461250001,81.0,127.0
112,88.36776877500002,88.66955418750001,79.0,127.0
113,88.796339775,89.09991090000001,79.0,127.0
114,89.22491077500001,89.48026766250001,72.0,112.0
115,89.65348177500002,89.917767225,72.0,112.0
116,90.08205277500001,90.3427668,74.0,127.0
117,90.51062377500001,90.79990920000002,76.0,117.0
118,90.93919477500002,91.22312306250001,72.0,112.0
119,91.36776577500001,92.02312226250001,74.0,127.0
120,92.224907775,92.53740746250001,69.0,112.0
121,92.65347877500001,93.03383553750001,72.0,127.0
122,93.08204977500002,93.37847805000001,74.0,100.0
123,93.510620775,93.84276330000002,74.0,99.0
124,93.93919177500001,94.23383433750001,76.0,117.0
125,94.36776277500002,94.64633392500001,77.0,127.0
126,94.79633377500001,95.13919057500001,76.0,127.0
127,95.22490477500001,95.41061887500001,76.0,117.0
128,95.43919027500002,95.63919007500002,74.0,99.0
129,95.65347577500002,95.92668978750001,72.0,122.0
130,96.08204677500001,96.32133225000001,74.0,122.0
131,96.51061777500001,96.73740326250001,69.0,102.0
132,96.72490327500002,96.9088316625,72.0,107.0
133,96.93918877500002,97.79633077500002,69.0,112.0
134,99.08204377500002,99.45168626250002,69.0,112.0
135,99.51061477500001,99.85347157500001,72.0,127.0
136,99.93918577500001,100.31239968750002,74.0,127.0
137,100.36775677500002,100.63561365000001,74.0,117.0
138,100.79632777500001,101.08382748750002,76.0,127.0
139,101.22489877500001,101.51061277500001,77.0,117.0
140,101.65346977500002,101.86061242500001,81.0,127.0
141,102.08204077500001,102.36596906250001,79.0,122.0
142,102.51061177500002,102.75346867500001,79.0,122.0
143,102.93918277500002,103.21061107500002,72.0,127.0
144,103.36775377500001,103.65703920000001,81.0,127.0
145,103.79632477500002,104.07132450000002,81.0,107.0
146,104.22489577500001,104.48203837500002,84.0,117.0
147,104.65346677500001,104.83739516250002,81.0,127.0
148,104.86775227500002,105.06060922500001,79.0,107.0
149,105.08203777500002,105.51418020000001,77.0,127.0
150,105.93917977500001,106.18382238750002,81.0,127.0
151,106.36775077500002,106.51596491250001,79.0,127.0
152,106.58203627500001,106.78739321250002,81.0,122.0
153,107.01060727500001,107.77489222500002,74.0,112.0
154,108.51060577500002,108.76774837500001,76.0,122.0
155,108.93917677500002,109.03560525000002,74.0,117.0
156,109.15346227500001,109.48739051250001,74.0,107.0
157,109.58203327500001,109.89631867500002,72.0,117.0
158,110.01060427500002,110.11953273750001,74.0,100.0
159,110.22488977500001,110.91774622500002,74.0,127.0
160,141.510572775,141.61057267500001,53.0,93.0
161,141.72485827500003,141.82307246250002,53.0,89.0
162,141.93914377500002,142.0266436875,53.0,92.0
163,142.153429275,142.34092908750003,53.0,122.0
164,142.582000275,142.70700015000003,50.0,93.0
165,142.79628577500003,142.9694998875,57.0,96.0
166,143.01057127500002,143.85699900000003,55.0,107.0
167,144.08199877500002,144.29985570000002,53.0,96.0
168,144.296284275,144.49806978750001,55.0,86.0
169,144.51056977500002,144.71771242500003,60.0,100.0
170,144.724855275,145.09271205000002,57.0,99.0
171,145.36771177500003,145.5855687,57.0,100.0
172,145.796282775,145.97128260000002,48.0,88.0
173,146.01056827500003,146.59271055000002,50.0,100.0
174,147.51056677500003,147.696280875,50.0,95.0
175,147.72485227500002,147.90520923750003,48.0,69.0
176,147.939137775,148.15878041250002,50.0,95.0
177,148.15342327500002,148.34985165000003,53.0,99.0
178,148.367708775,148.6123513875,55.0,90.0
179,148.58199427500003,149.19092223750002,53.0,89.0
180,149.22485077500002,149.42663628750003,50.0,89.0
181,149.439136275,149.68556460000002,53.0,79.0
182,149.65342177500003,149.79806448750003,55.0,79.0
183,149.86770727500001,150.15163556250002,55.0,95.0
184,150.29627827500002,150.42306386250002,55.0,70.0
185,150.510563775,150.710563575,55.0,107.0
186,150.939134775,151.06770607500002,53.0,86.0
187,151.15342027500003,152.09806218750003,57.0,97.0
188,154.36770277500003,154.5480597375,57.0,112.0
189,154.58198827500001,154.77663093750002,60.0,83.0
190,154.79627377500003,154.9141308,62.0,97.0
191,155.01055927500002,155.29448756250002,62.0,102.0
192,155.653415775,155.8855584,60.0,117.0
193,156.08198677500002,156.22662948750002,57.0,100.0
194,156.296272275,157.03377153750003,55.0,102.0
195,157.796270775,158.01412770000002,53.0,96.0
196,158.01055627500003,158.2016275125,55.0,95.0
197,158.22484177500002,158.41948443750002,60.0,99.0
198,158.43912727500003,158.6569842,57.0,127.0
199,158.867698275,158.97126960000003,57.0,100.0
200,159.08198377500003,159.29805498750002,57.0,107.0
201,159.51055477500003,159.70519743750003,48.0,102.0
202,159.72484027500002,160.71233928750001,50.0,112.0
203,161.22483877500002,161.439124275,50.0,95.0
204,161.439124275,161.63555265000002,48.0,86.0
205,161.65340977500003,161.82662388750003,55.0,100.0
206,161.86769527500002,162.160552125,53.0,112.0
207,163.36769377500002,163.54269360000004,57.0,107.0
208,163.581979275,163.74983625000002,55.0,96.0
209,164.22483577500003,164.43019271250003,53.0,100.0
210,164.653406775,164.7873352125,52.0,99.0
211,164.86769227500002,166.05519108750002,50.0,99.0
212,168.93911677500003,169.03911667500003,53.0,93.0
213,169.15340227500002,169.2516164625,53.0,89.0
214,169.36768777500004,169.45518768750003,53.0,92.0
215,169.58197327500002,169.76947308750002,53.0,122.0
216,169.796258775,170.0016157125,53.0,107.0
217,170.01054427500003,170.13554415000002,50.0,93.0
218,170.22482977500002,170.39804388750002,57.0,96.0
219,170.43911527500003,171.28554300000002,55.0,107.0
220,171.51054277500003,171.7283997,53.0,96.0
221,171.72482827500002,171.92661378750003,55.0,86.0
222,171.939113775,172.14625642500002,60.0,100.0
223,172.15339927500003,172.52125605000003,57.0,99.0
224,172.79625577500002,173.01411270000003,57.0,100.0
225,173.22482677500003,173.3998266,48.0,88.0
226,173.439112275,174.02125455,50.0,100.0
227,174.93911077500002,175.12482487500003,50.0,95.0
228,175.15339627500003,175.33375323750002,48.0,69.0
229,175.36768177500002,175.5873244125,50.0,95.0
230,175.581967275,175.77839565000002,53.0,99.0
231,175.79625277500003,176.04089538750003,55.0,90.0
232,176.01053827500002,176.61946623750003,53.0,89.0
233,176.653394775,176.85518028750002,50.0,89.0
234,176.86768027500003,177.11410860000004,53.0,79.0
235,177.08196577500001,177.22660848750002,55.0,79.0
236,177.29625127500003,177.58017956250004,55.0,95.0
237,177.72482227500004,177.85160786250003,55.0,70.0
238,177.93910777500002,178.13910757500003,55.0,107.0
239,178.36767877500003,178.49625007500003,53.0,86.0
240,178.58196427500002,179.52660618750002,57.0,97.0
241,181.79624677500001,181.97660373750003,57.0,112.0
242,182.01053227500003,182.20517493750003,60.0,83.0
243,182.22481777500002,182.34267480000003,62.0,97.0
244,182.43910327500004,182.7230315625,62.0,102.0
245,183.08195977500003,183.31410240000002,53.0,117.0
246,183.51053077500003,183.65517348750004,57.0,100.0
247,183.72481627500002,184.46231553750002,55.0,102.0
248,185.22481477500003,185.44267170000003,53.0,96.0
249,185.43910027500002,185.63017151250003,55.0,95.0
250,185.65338577500003,185.84802843750003,60.0,99.0
251,186.08195677500004,186.25695660000002,57.0,102.0
252,186.510527775,186.631956225,60.0,117.0
253,186.72481327500003,186.94624162500003,62.0,100.0
254,187.15338427500004,188.00695485000003,53.0,102.0
255,188.653382775,188.86766827500003,50.0,95.0
256,188.86766827500003,189.06409665000004,48.0,86.0
257,189.08195377500002,189.25516788750002,55.0,100.0
258,189.29623927500003,189.58909612500003,53.0,112.0
259,190.58195227500002,190.72123785000002,57.0,96.0
260,190.79623777500004,191.05338037500002,60.0,127.0
261,191.224808775,191.4301657125,60.0,117.0
262,191.65337977500002,191.7408796875,60.0,112.0
263,192.08195077500002,192.27659343750003,57.0,102.0
264,192.296236275,194.20337722500003,62.0,127.0
265,195.08194777500003,195.35516178750004,69.0,117.0
266,195.51051877500004,195.87123270000004,72.0,127.0
267,195.939089775,196.21408950000003,74.0,122.0
268,196.36766077500002,196.62658908750004,74.0,122.0
269,196.79623177500002,197.08908862500002,76.0,127.0
270,197.22480277500003,197.51765962500002,77.0,117.0
271,197.65337377500003,197.95873061250003,81.0,127.0
272,198.08194477500004,198.38373018750002,79.0,127.0
273,198.51051577500002,198.81408690000004,79.0,127.0
274,198.93908677500002,199.19444366250002,72.0,112.0
275,199.36765777500003,199.63194322500001,72.0,112.0
276,199.79622877500003,200.05694280000003,74.0,127.0
277,200.22479977500004,200.51408520000004,76.0,117.0
278,200.653370775,200.93729906250002,72.0,112.0
279,201.08194177500002,201.73729826250002,74.0,127.0
280,201.93908377500003,202.25158346250004,69.0,112.0
281,202.36765477500003,202.74801153750002,72.0,127.0
282,202.79622577500004,203.09265405000002,74.0,100.0
283,203.22479677500002,203.55693930000004,74.0,99.0
284,203.65336777500002,203.94801033750002,76.0,117.0
285,204.08193877500003,204.36050992500003,77.0,127.0
286,204.51050977500003,204.85336657500002,76.0,127.0
287,204.93908077500004,205.12479487500002,76.0,117.0
288,205.15336627500002,205.35336607500003,74.0,99.0
289,205.367651775,205.64086578750002,72.0,122.0
290,205.79622277500002,206.03550825000002,74.0,122.0
291,206.22479377500002,206.45157926250002,69.0,102.0
292,206.43907927500004,206.62300766250002,72.0,107.0
293,206.65336477500003,207.51050677500004,69.0,112.0
294,208.79621977500003,209.1658622625,69.0,112.0
295,209.22479077500003,209.56764757500002,72.0,127.0
296,209.65336177500004,210.0265756875,74.0,127.0
297,210.08193277500004,210.34978965000002,74.0,117.0
298,210.51050377500002,210.79800348750004,76.0,127.0
299,210.93907477500002,211.22478877500004,77.0,117.0
300,211.36764577500003,211.57478842500004,81.0,127.0
301,211.79621677500003,212.08014506250004,79.0,122.0
302,212.22478777500004,212.46764467500003,79.0,122.0
303,212.65335877500002,212.92478707500004,72.0,127.0
304,213.08192977500002,213.37121520000002,81.0,127.0
305,213.51050077500003,213.78550050000004,81.0,107.0
306,213.93907177500003,214.19621437500004,84.0,117.0
307,214.36764277500004,214.55157116250004,81.0,127.0
308,214.58192827500002,214.77478522500002,79.0,107.0
309,214.79621377500004,215.22835620000004,77.0,127.0
310,215.65335577500002,215.89799838750002,81.0,127.0
311,216.08192677500003,216.23014091250002,79.0,127.0
312,216.29621227500002,216.50156921250002,81.0,122.0
313,216.72478327500002,217.48906822500004,74.0,112.0
314,218.22478177500003,218.48192437500003,76.0,122.0
315,218.65335277500003,218.74978125000004,74.0,117.0
316,218.86763827500002,219.20156651250002,74.0,107.0
317,219.29620927500002,219.61049467500004,72.0,117.0
318,219.72478027500003,219.83370873750002,74.0,100.0
319,219.93906577500002,220.63192222500004,74.0,127.0
320,222.51049177500002,222.78370578750003,69.0,117.0
321,222.93906277500002,223.29977670000002,72.0,127.0
322,223.36763377500003,223.64263350000002,74.0,122.0
323,223.79620477500004,224.05513308750002,74.0,122.0
324,224.22477577500004,224.51763262500003,76.0,127.0
325,224.65334677500002,224.94620362500004,77.0,117.0
326,225.08191777500002,225.38727461250002,81.0,127.0
327,225.51048877500003,225.81227418750004,79.0,127.0
328,225.93905977500003,226.24263090000002,79.0,127.0
329,226.36763077500004,226.62298766250004,72.0,112.0
330,226.79620177500004,227.06048722500003,72.0,112.0
331,227.22477277500002,227.48548680000002,74.0,127.0
332,227.65334377500002,227.94262920000003,76.0,117.0
333,228.08191477500003,228.36584306250003,72.0,112.0
334,228.51048577500003,229.16584226250004,74.0,127.0
335,229.36762777500002,229.68012746250002,69.0,112.0
336,229.79619877500002,230.17655553750004,72.0,127.0
337,230.22476977500003,230.52119805000004,74.0,100.0
338,230.65334077500003,230.98548330000003,74.0,99.0
339,231.08191177500004,231.37655433750004,76.0,117.0
340,231.51048277500004,231.78905392500002,77.0,127.0
341,231.93905377500002,232.28191057500004,76.0,127.0
342,232.36762477500002,232.55333887500004,76.0,117.0
343,232.58191027500004,232.78191007500004,74.0,99.0
344,232.79619577500003,233.06940978750004,72.0,122.0
345,233.22476677500003,233.46405225000004,74.0,122.0
346,233.65333777500004,233.88012326250004,69.0,102.0
347,233.86762327500003,234.05155166250003,72.0,107.0
348,234.08190877500002,234.93905077500003,69.0,112.0
349,236.22476377500004,236.59440626250003,69.0,112.0
350,236.65333477500002,236.99619157500004,72.0,127.0
351,237.08190577500002,237.45511968750003,74.0,127.0
352,237.51047677500003,237.77833365000004,74.0,117.0
353,237.93904777500003,238.22654748750003,76.0,127.0
354,238.36761877500004,238.65333277500002,77.0,117.0
355,238.79618977500004,239.00333242500002,81.0,127.0
356,239.22476077500002,239.50868906250003,79.0,122.0
357,239.65333177500003,239.89618867500002,79.0,122.0
358,240.08190277500003,240.35333107500003,72.0,127.0
359,240.51047377500004,240.79975920000004,81.0,127.0
360,240.93904477500004,241.21404450000003,81.0,107.0
361,241.36761577500002,241.62475837500003,84.0,117.0
362,241.79618677500002,241.98011516250003,81.0,127.0
363,242.01047227500004,242.20332922500003,79.0,107.0
364,242.22475777500003,242.65690020000002,77.0,127.0
365,243.08189977500004,243.32654238750004,81.0,127.0
366,243.51047077500004,243.65868491250004,79.0,127.0
367,243.72475627500003,243.93011321250003,81.0,122.0
368,244.15332727500004,244.91761222500003,74.0,112.0
369,245.65332577500004,245.91046837500002,76.0,122.0
370,246.08189677500002,246.17832525000003,74.0,117.0
371,246.29618227500004,246.63011051250004,74.0,107.0
372,246.72475327500004,247.03903867500003,72.0,117.0
373,247.15332427500005,247.26225273750003,74.0,100.0
374,247.36760977500003,248.06046622500003,74.0,127.0
375,249.93903577500004,250.18367838750004,81.0,127.0
376,250.36760677500004,250.51582091250003,79.0,127.0
377,250.58189227500003,250.78724921250003,81.0,122.0
378,251.01046327500003,251.77474822500002,74.0,112.0
379,252.51046177500004,252.76760437500002,76.0,122.0
380,252.93903277500004,253.03546125000003,74.0,117.0
381,253.15331827500003,253.48724651250004,74.0,107.0
382,253.58188927500004,253.89617467500003,72.0,117.0
383,254.01046027500004,254.11938873750003,74.0,100.0
384,254.22474577500003,259.68009746250004,74.0,127.0
