,start,end,pitch,velocity
0,3.9392817750000004,5.1249948750000005,46.0,72.0
1,4.367852775,5.1678519750000005,53.0,44.0
2,4.582138275000001,5.292851850000001,65.0,89.0
3,5.224994775000001,5.737494262500001,62.0,66.0
4,5.653565775000001,6.741064687500001,48.0,66.0
5,6.082136775,6.858921712500001,55.0,54.0
6,6.296422275000001,6.957135900000001,64.0,75.0
7,6.939278775000001,7.412492587500001,60.0,67.0
8,7.796420775000001,8.308920262500001,57.0,56.0
9,8.010706275,8.674991325,65.0,92.0
10,7.367849775000001,9.00713385,50.0,66.0
11,8.653562775000001,9.117848025,64.0,67.0
12,9.510704775,10.030347112500001,57.0,58.0
13,9.082133775,10.091061337500001,50.0,71.0
14,9.939275775,10.464275250000002,65.0,93.0
15,10.367846775000002,10.796417775000002,62.0,59.0
16,11.224988775000002,11.789273925000002,53.0,43.0
17,10.796417775000002,11.849988150000001,46.0,65.0
18,11.439274275,12.180344962500001,65.0,82.0
19,12.082130775000001,12.512487487500001,62.0,61.0
20,12.510701775000001,13.724986275000003,48.0,64.0
21,12.939272775000001,13.787486212500001,55.0,51.0
22,13.153558275000002,14.255342887500001,64.0,75.0
23,13.796414775000002,14.303557125000001,60.0,62.0
24,14.867842275000003,15.510698775000002,65.0,42.0
25,14.224985775000002,15.792841350000002,50.0,73.0
26,14.653556775000002,15.924984075000003,57.0,41.0
27,15.510698775000002,16.028555400000002,64.0,69.0
28,16.367840775,17.171411400000004,57.0,52.0
29,15.939269775000001,17.205339937500003,50.0,53.0
30,16.582126275000004,17.260697025000002,65.0,75.0
31,17.224982775,17.696410875,64.0,81.0
32,18.082124775000004,18.601767112500003,53.0,37.0
33,17.653553775000002,18.907123950000003,46.0,72.0
34,18.724981275,18.907123950000003,53.0,40.0
35,18.296410275000003,19.010695275000003,65.0,100.0
36,18.939266775000004,19.271409300000002,62.0,92.0
37,19.153552275000003,19.353552075000003,65.0,63.0
38,19.796408775000003,20.576765137500004,55.0,46.0
39,19.367837775,20.878550550000003,48.0,75.0
40,20.224979775,21.030336112500002,67.0,93.0
41,20.653550775000003,21.03569325,64.0,76.0
42,21.510692775000003,21.948192337500004,52.0,52.0
43,21.082121775000005,22.3981918875,45.0,78.0
44,22.153549275000003,22.444620412500004,52.0,54.0
45,22.367834775000002,22.741048687500005,60.0,97.0
46,21.724978275,22.749977250000004,64.0,99.0
47,22.582120275,22.762477237500004,57.0,73.0
48,23.224976775000002,23.708904862500003,57.0,59.0
49,22.796405775000004,23.9231903625,50.0,74.0
50,23.867833275000002,23.967833175000003,57.0,38.0
51,23.439262275000004,24.505332637500004,65.0,97.0
52,24.082118775,24.508904062500005,62.0,74.0
53,24.724975275000002,25.714260000000003,53.0,48.0
54,24.510689775000003,25.753545675000005,46.0,83.0
55,25.153546275000004,26.164259550000004,65.0,90.0
56,25.796402775000004,26.232116625000003,62.0,71.0
57,26.653544775000004,26.932115925000005,60.0,71.0
58,26.224973775000002,27.446401125000005,48.0,77.0
59,26.439259275000005,27.457115400000003,55.0,42.0
60,26.867830275000003,28.008900562500003,64.0,95.0
61,27.510686775000003,28.028543400000004,60.0,78.0
62,28.367828775000003,28.841042587500002,50.0,77.0
63,28.582114275000002,29.255327887500005,65.0,96.0
64,29.224970775000003,29.719613137500005,64.0,74.0
65,29.010685275000004,30.585683700000004,50.0,53.0
66,27.939257775000005,31.105326037500003,38.0,69.0
67,28.153543275000004,31.266040162500005,45.0,50.0
68,29.653541775000004,31.910682375000004,62.0,73.0
69,32.01068227500001,32.133896437500006,62.0,29.0
70,31.367825775000004,32.669610187500005,38.0,77.0
71,31.796396775000005,32.669610187500005,45.0,46.0
72,32.224967775,33.0856812,65.0,92.0
73,32.653538775,33.1088954625,62.0,67.0
74,33.082109775000006,34.0196088375,36.0,69.0
75,33.510680775000004,34.148180137500006,43.0,42.0
76,33.939251775,34.832108025000004,64.0,79.0
77,35.224964775000004,35.862464137500005,52.0,50.0
78,34.796393775000006,35.980321162500005,45.0,66.0
79,36.08210677500001,36.503534925000004,60.0,60.0
80,35.653535775,36.51246348750001,64.0,92.0
81,36.296392275,36.546392025,57.0,51.0
82,37.153534275000005,37.408891162500005,57.0,54.0
83,36.510677775000005,37.7124622875,38.0,59.0
84,36.939248775,37.733890837500006,45.0,41.0
85,37.36781977500001,37.751747962500005,65.0,83.0
86,37.582105275,37.95889061250001,64.0,86.0
87,37.796390775000006,38.189247525000006,62.0,71.0
88,38.010676275,38.260676025,57.0,48.0
89,38.653532775,39.392817750000006,53.0,57.0
90,38.224961775000004,39.39460346250001,46.0,66.0
91,39.08210377500001,39.832103025,65.0,97.0
92,39.510674775000005,39.8696029875,62.0,79.0
93,39.939245775,41.249958750000005,48.0,66.0
94,40.79638777500001,41.592815550000005,64.0,89.0
95,41.224958775000005,41.59460126250001,60.0,73.0
96,40.36781677500001,41.64460121250001,55.0,63.0
97,41.653529775,43.232099625000004,41.0,75.0
98,42.08210077500001,43.371385200000006,48.0,50.0
99,42.939242775000004,43.382099475000004,57.0,48.0
100,42.510671775000006,43.401742312500005,60.0,90.0
101,43.36781377500001,44.610669675000004,41.0,72.0
102,43.582099275000004,44.630312512500005,48.0,52.0
103,43.79638477500001,44.805312337500006,53.0,73.0
104,44.653526775,45.080312062500006,65.0,73.0
105,44.010670275,45.11424060000001,69.0,100.0
106,45.510668775000006,46.2124537875,58.0,92.0
107,45.296383275000004,46.24816803750001,53.0,47.0
108,45.08209777500001,46.344596512500004,46.0,66.0
109,45.72495427500001,46.744596112500005,65.0,74.0
110,46.36781077500001,46.7553103875,62.0,59.0
111,46.79638177500001,48.0088805625,48.0,66.0
112,47.224952775000006,48.446380125000005,55.0,46.0
113,47.653523775000004,48.633879937500005,64.0,85.0
114,48.08209477500001,48.689237025000004,60.0,64.0
115,48.939236775000005,49.60887896250001,52.0,50.0
116,48.51066577500001,49.67316461250001,45.0,70.0
117,49.15352227500001,50.012449987500005,64.0,97.0
118,49.79637877500001,50.098164187500004,60.0,60.0
119,50.010664275,50.58387798750001,57.0,52.0
120,50.653520775000004,51.18209167500001,50.0,67.0
121,50.43923527500001,51.41066287500001,45.0,46.0
122,50.224949775000006,51.416020012500006,38.0,58.0
123,51.296377275000005,51.533877037500005,50.0,59.0
124,50.86780627500001,51.833876737500006,65.0,93.0
125,51.51066277500001,51.83744816250001,62.0,53.0
126,51.72494827500001,51.98030516250001,57.0,61.0
127,52.367804775,52.817804325000004,58.0,61.0
128,51.939233775000005,53.280303862500006,46.0,89.0
129,53.22494677500001,53.60173211250001,58.0,68.0
130,52.79637577500001,53.63030351250001,62.0,86.0
131,53.653517775000005,54.74280240000001,48.0,65.0
132,54.08208877500001,55.29637327500001,55.0,55.0
133,54.939230775000006,55.344587512500006,60.0,66.0
134,54.51065977500001,55.36065892500001,64.0,85.0
135,55.79637277500001,56.291015137500004,50.0,69.0
136,55.367801775000004,56.99458586250001,38.0,70.0
137,56.653514775000005,57.16244283750001,64.0,50.0
138,56.22494377500001,57.807085050000005,65.0,81.0
139,57.08208577500001,57.90351352500001,62.0,55.0
140,56.43922927500001,58.007084850000005,50.0,53.0
141,58.15351327500001,58.357084500000006,50.0,44.0
142,57.08208577500001,58.53922717500001,38.0,48.0
143,58.367798775000004,58.76958408750001,64.0,65.0
144,55.582087275000006,58.79636977500001,45.0,58.0
145,56.010658275000004,58.79636977500001,57.0,69.0
146,58.58208427500001,58.79636977500001,62.0,73.0
147,57.939227775000006,58.79636977500001,65.0,81.0
148,59.43922627500001,59.56244043750001,62.0,29.0
149,58.79636977500001,60.09815418750001,38.0,77.0
150,59.22494077500001,60.09815418750001,45.0,46.0
151,59.653511775000005,60.514225200000006,65.0,92.0
152,60.08208277500001,60.53743946250001,62.0,67.0
153,60.51065377500001,61.44815283750001,36.0,69.0
154,60.93922477500001,61.57672413750001,43.0,42.0
155,61.367795775000005,62.260652025000006,64.0,79.0
156,62.653508775000006,63.29100813750001,52.0,50.0
157,62.22493777500001,63.40886516250001,45.0,66.0
158,63.51065077500001,63.932078925000006,60.0,60.0
159,63.08207977500001,63.94100748750001,64.0,92.0
160,63.72493627500001,63.974936025000005,57.0,51.0
161,64.58207827500001,64.83743516250001,57.0,54.0
162,63.93922177500001,65.1410062875,38.0,59.0
163,64.36779277500001,65.16243483750002,45.0,41.0
164,64.796363775,65.18029196250001,65.0,83.0
165,65.010649275,65.3874346125,64.0,86.0
166,65.22493477500001,65.61779152500002,62.0,71.0
167,65.43922027500001,65.68922002500001,57.0,48.0
168,66.082076775,66.82136175000001,53.0,57.0
169,65.65350577500001,66.8231474625,46.0,66.0
170,66.51064777500001,67.26064702500001,65.0,97.0
171,66.93921877500001,67.2981469875,62.0,79.0
172,67.367789775,68.67850275,48.0,66.0
173,68.22493177500002,69.02135955000001,64.0,89.0
174,68.653502775,69.02314526250001,60.0,73.0
175,67.79636077500001,69.07314521250001,55.0,63.0
176,69.08207377500001,70.660643625,41.0,75.0
177,69.510644775,70.79992920000001,48.0,50.0
178,70.36778677500001,70.810643475,57.0,48.0
179,69.93921577500001,70.83028631250001,60.0,90.0
180,70.796357775,72.03921367500001,41.0,72.0
181,71.010643275,72.05885651250001,48.0,52.0
182,71.22492877500001,72.23385633750001,53.0,73.0
183,72.082070775,72.50885606250002,65.0,73.0
184,71.43921427500001,72.5427846,69.0,100.0
185,72.93921277500002,73.64099778750001,58.0,92.0
186,72.72492727500001,73.67671203750001,53.0,47.0
187,72.51064177500001,73.7731405125,46.0,66.0
188,73.153498275,74.17314011250001,65.0,74.0
189,73.79635477500001,74.1838543875,62.0,59.0
190,74.224925775,75.43742456250001,48.0,66.0
191,74.65349677500001,75.874924125,55.0,46.0
192,75.08206777500001,76.06242393750001,64.0,85.0
193,75.510638775,76.11778102500001,60.0,64.0
194,76.36778077500001,77.03742296250002,52.0,50.0
195,75.93920977500001,77.1017086125,45.0,70.0
196,76.58206627500002,77.44099398750001,64.0,97.0
197,77.22492277500001,77.5267081875,60.0,60.0
198,77.43920827500001,78.0124219875,57.0,52.0
199,78.082064775,78.61063567500001,50.0,67.0
200,77.867779275,78.83920687500002,45.0,46.0
201,77.65349377500002,78.84456401250002,38.0,58.0
202,78.72492127500001,78.96242103750001,50.0,59.0
203,78.29635027500001,79.26242073750001,65.0,93.0
204,78.93920677500002,79.26599216250001,62.0,53.0
205,79.153492275,79.4088491625,57.0,61.0
206,79.79634877500001,80.24634832500001,58.0,61.0
207,79.36777777500001,80.70884786250001,46.0,89.0
208,80.65349077500001,81.0302761125,58.0,68.0
209,80.224919775,81.05884751250001,62.0,86.0
210,81.08206177500001,82.1713464,48.0,65.0
211,81.510632775,82.72491727500001,55.0,55.0
212,82.36777477500002,82.77313151250002,60.0,66.0
213,81.93920377500001,82.78920292500001,64.0,85.0
214,82.79456006250001,84.33384423750002,38.0,88.0
215,84.07134450000001,84.34098708750001,64.0,75.0
216,83.4517022625,84.51062977500001,65.0,117.0
217,83.21063107500001,84.54634402500001,45.0,55.0
218,84.2874157125,84.93920077500002,62.0,89.0
219,85.103486325,85.22491477500002,57.0,50.0
220,84.93205792500001,85.23205762500001,50.0,92.0
221,84.70705815000001,85.26598616250001,45.0,79.0
222,84.49634407500001,85.26777187500001,38.0,95.0
223,85.36241463750001,85.7142,65.0,112.0
224,85.36420035,85.71598571250001,62.0,107.0
225,85.36598606250001,85.73741426250001,57.0,127.0
226,85.36955748750002,85.94634262500001,50.0,107.0
227,85.789199925,86.16598526250002,57.0,82.0
228,85.78205707500001,86.1695566875,62.0,92.0
229,85.78562850000002,86.20705665000001,65.0,96.0
230,86.19812808750001,86.224913775,46.0,79.0
231,86.65348477500001,87.14634142500002,50.0,100.0
232,86.86777027500001,87.19276995000001,57.0,102.0
233,87.29634127500002,87.47491252500001,50.0,102.0
234,86.43919927500001,87.59276955000001,45.0,107.0
235,86.224913775,87.59634097500002,38.0,93.0
236,87.08205577500001,87.80348362500001,65.0,117.0
237,87.510626775,87.92312636250001,62.0,127.0
238,87.72491227500001,88.01776912500002,57.0,117.0
239,88.36776877500002,88.86241113750002,48.0,95.0
240,88.58205427500002,89.01241098750002,55.0,95.0
241,87.93919777500001,89.18383938750002,36.0,78.0
242,88.15348327500001,89.23562505000001,43.0,96.0
243,89.01062527500001,89.35348207500002,48.0,100.0
244,89.22491077500001,89.57491042500001,60.0,99.0
245,89.43919627500001,89.59098183750001,55.0,93.0
246,88.796339775,89.59633897500001,64.0,102.0
247,90.08205277500001,90.29455256250002,57.0,96.0
248,90.29633827500001,90.51240948750001,60.0,107.0
249,89.867767275,90.603480825,52.0,79.0
250,90.72490927500002,90.8338377375,52.0,88.0
251,89.65348177500002,90.85169486250001,45.0,78.0
252,90.51062377500001,91.11419460000002,64.0,112.0
253,90.93919477500002,91.16776597500001,60.0,100.0
254,91.153480275,91.36776577500001,57.0,92.0
255,91.58205127500001,91.91776522500001,45.0,88.0
256,91.36776577500001,92.05526508750002,38.0,92.0
257,91.79633677500001,92.18562210000002,50.0,107.0
258,92.01062227500002,92.23026491250002,57.0,122.0
259,92.224907775,92.63383593750001,48.0,102.0
260,92.224907775,92.99276415000001,64.0,107.0
261,92.224907775,93.06954978750001,60.0,117.0
262,93.72490627500001,93.93740606250002,62.0,97.0
263,93.510620775,94.01419170000001,58.0,99.0
264,93.29633527500002,94.23383433750001,53.0,47.0
265,93.93919177500001,94.34811993750002,65.0,117.0
266,94.15347727500001,94.36597706250001,58.0,99.0
267,93.08204977500002,94.41954843750001,46.0,82.0
268,94.36776277500002,94.64633392500001,62.0,102.0
269,94.582048275,94.79097663750001,65.0,107.0
270,95.22490477500001,95.52311876250002,60.0,95.0
271,95.43919027500002,95.67490432500001,64.0,97.0
272,95.01061927500001,95.767761375,55.0,93.0
273,95.867761275,96.20168951250001,55.0,76.0
274,94.79633377500001,96.25704660000001,48.0,70.0
275,95.65347577500002,96.33740366250001,67.0,107.0
276,96.08204677500001,96.3481179375,64.0,122.0
277,96.29633227500001,96.49633207500001,60.0,93.0
278,96.93918877500002,97.45525968750002,53.0,85.0
279,97.15347427500001,97.48561680000002,57.0,86.0
280,97.58204527500001,97.76597366250002,53.0,92.0
281,96.51061777500001,98.11597331250002,41.0,88.0
282,97.36775977500001,98.24275890000001,65.0,102.0
283,96.72490327500002,98.27133030000002,48.0,77.0
284,97.79633077500002,98.29811598750001,60.0,97.0
285,98.01061627500002,98.33383023750001,57.0,102.0
286,98.65347277500001,99.13740086250002,53.0,81.0
287,98.86775827500001,99.20882936250001,57.0,89.0
288,99.29632927500002,99.49811478750001,53.0,107.0
289,98.43918727500001,99.58382898750001,48.0,75.0
290,98.224901775,99.58918612500001,41.0,79.0
291,99.51061477500001,99.76775737500002,60.0,127.0
292,99.08204377500002,99.82132875,65.0,122.0
293,99.72490027500001,99.98918572500001,57.0,100.0
294,100.36775677500002,100.87311341250002,50.0,96.0
295,100.582042275,101.08918462500002,57.0,92.0
296,101.01061327500001,101.17489882500001,50.0,95.0
297,99.93918577500001,101.19811308750002,38.0,79.0
298,100.15347127500002,101.22668448750001,45.0,78.0
299,100.79632777500001,101.50168421250001,65.0,117.0
300,101.22489877500001,101.517755625,62.0,100.0
301,101.43918427500002,101.70525543750001,57.0,99.0
302,102.29632627500001,102.59811168750001,55.0,86.0
303,102.08204077500001,102.60525453750002,48.0,96.0
304,101.65346977500002,102.81775432500001,36.0,73.0
305,101.86775527500001,102.84811143750001,43.0,65.0
306,102.72489727500002,102.93739706250001,48.0,96.0
307,102.93918277500002,103.27668243750001,60.0,107.0
308,102.51061177500002,103.29632527500002,64.0,102.0
309,103.15346827500001,103.31775382500001,55.0,89.0
310,103.79632477500002,104.01953883750001,57.0,93.0
311,104.01061027500002,104.18203867500002,60.0,107.0
312,103.58203927500001,104.29275285000001,52.0,76.0
313,104.43918127500001,104.61596681250002,52.0,92.0
314,103.36775377500001,104.66418105000001,45.0,77.0
315,104.22489577500001,104.84096658750002,64.0,122.0
316,104.65346677500001,104.88203797500002,60.0,112.0
317,104.86775227500002,105.12846630000001,57.0,96.0
318,105.08203777500002,105.98917972500001,38.0,77.0
319,105.29632327500002,106.00703685000002,45.0,82.0
320,105.51060877500001,106.09096533750001,50.0,93.0
321,105.93917977500001,106.24632232500001,65.0,127.0
322,105.72489427500001,106.27310801250002,57.0,93.0
323,106.15346527500002,106.48025066250001,48.0,92.0
324,106.36775077500002,106.62667908750001,60.0,117.0
325,106.58203627500001,106.83917887500002,57.0,99.0
326,107.43917827500002,107.59989240000002,62.0,85.0
327,107.22489277500001,107.67132090000001,58.0,107.0
328,107.01060727500001,107.76239223750001,53.0,43.0
329,106.79632177500001,107.96417775000002,46.0,97.0
330,107.65346377500002,108.04453481250002,65.0,112.0
331,107.86774927500001,108.05882051250002,58.0,112.0
332,108.08203477500001,108.34274880000001,62.0,100.0
333,108.29632027500001,108.47489152500002,65.0,96.0
334,108.93917677500002,109.19631937500002,60.0,89.0
335,109.15346227500001,109.34989065000002,64.0,100.0
336,108.72489127500002,109.47846195000001,55.0,79.0
337,109.58203327500001,109.72131885000002,55.0,89.0
338,108.51060577500002,109.77131880000002,48.0,76.0
339,109.36774777500001,110.05524708750002,67.0,117.0
340,109.79631877500002,110.09274705000001,64.0,117.0
341,110.01060427500002,110.20703265000002,60.0,102.0
342,110.65346077500001,111.16417455000001,50.0,72.0
343,110.86774627500002,111.21417450000001,57.0,112.0
344,111.29631727500002,111.54274560000002,50.0,92.0
345,111.51060277500001,111.77667393750002,64.0,90.0
346,110.22488977500001,111.82310246250002,38.0,81.0
347,111.08203177500002,111.83024531250001,65.0,112.0
348,110.43917527500001,112.00345942500002,45.0,86.0
349,111.72488827500001,112.49274465000002,62.0,117.0
350,112.36774477500002,112.82667288750001,50.0,78.0
351,112.58203027500001,112.95167276250001,57.0,88.0
352,111.93917377500001,113.08738691250001,38.0,89.0
353,112.15345927500002,113.10167261250001,45.0,83.0
354,113.01060127500001,113.26774387500001,50.0,90.0
355,113.22488677500002,113.53202932500001,62.0,100.0
356,112.79631577500001,113.55881501250002,65.0,102.0
357,113.43917227500002,113.64631492500001,57.0,102.0
358,114.29631427500001,114.49095693750002,62.0,90.0
359,114.08202877500001,114.55881401250001,58.0,96.0
360,113.86774327500001,114.68024246250002,53.0,44.0
361,113.65345777500002,114.89988510000002,46.0,76.0
362,114.72488527500002,114.94988505000002,58.0,102.0
363,114.51059977500002,114.95702790000001,65.0,102.0
364,114.93917077500001,115.20345622500001,62.0,99.0
365,115.15345627500001,115.37131320000002,65.0,100.0
366,115.79631277500002,116.05166966250002,60.0,90.0
367,116.01059827500002,116.23202662500002,64.0,96.0
368,115.58202727500002,116.33024081250001,55.0,72.0
369,116.43916927500001,116.59452626250001,55.0,72.0
370,115.36774177500001,116.65702620000002,48.0,74.0
371,116.22488377500001,116.93738306250002,67.0,107.0
372,116.65345477500001,116.94274020000002,64.0,102.0
373,116.86774027500002,117.08916862500001,60.0,100.0
374,117.51059677500001,117.97845345000002,50.0,96.0
375,117.72488227500001,118.04809623750002,57.0,93.0
376,118.15345327500002,118.39631017500001,50.0,99.0
377,117.93916777500002,118.58202427500001,65.0,122.0
378,117.08202577500002,118.62845280000002,38.0,77.0
379,117.29631127500002,118.82845260000002,45.0,79.0
380,118.36773877500002,119.06416665000002,62.0,99.0
381,118.58202427500001,119.32845210000002,57.0,102.0
382,119.43916627500002,119.47666623750001,57.0,28.0
383,119.43916627500002,119.57309471250001,65.0,107.0
384,119.43916627500002,119.58380898750002,62.0,89.0
385,119.22488077500002,119.69809458750001,50.0,92.0
386,119.01059527500001,119.82488017500002,45.0,96.0
387,118.79630977500001,119.95523718750002,38.0,83.0
388,119.86773727500001,120.06416565000002,50.0,97.0
389,119.65345177500002,120.10166561250001,62.0,107.0
390,119.65345177500002,120.16416555000002,65.0,117.0
391,120.08202277500001,120.35880821250002,57.0,112.0
392,120.29630827500002,120.53737946250001,62.0,122.0
393,121.15345027500001,121.35880721250001,62.0,102.0
394,120.93916477500001,121.39273575000001,58.0,107.0
395,120.72487927500002,121.60880696250001,53.0,63.0
396,120.51059377500002,121.65702120000002,46.0,93.0
397,121.58202127500002,121.75880681250001,58.0,102.0
398,121.36773577500001,121.79273535000002,65.0,102.0
399,121.79630677500002,122.05166366250002,62.0,100.0
400,122.01059227500002,122.21416350000001,65.0,97.0
401,122.65344877500002,122.86237713750002,60.0,92.0
402,122.86773427500002,123.05701980000002,64.0,93.0
403,122.43916327500001,123.18559110000001,55.0,61.0
404,123.29630527500002,123.47666223750002,55.0,82.0
405,122.22487777500001,123.52309076250002,48.0,72.0
406,123.51059077500001,123.80344762500002,64.0,95.0
407,123.08201977500002,123.86594756250001,67.0,95.0
408,123.72487627500001,123.95166176250001,60.0,95.0
409,124.58201827500001,124.88558940000001,57.0,85.0
410,124.79630377500001,124.91237508750001,60.0,90.0
411,125.01058927500002,125.29094613750001,65.0,92.0
412,124.36773277500002,125.33916037500002,53.0,93.0
413,125.22487477500002,125.47666023750001,69.0,95.0
414,123.93916177500002,125.54987445000002,41.0,72.0
415,125.43916027500002,125.65344577500002,72.0,100.0
416,124.15344727500002,125.69630287500001,48.0,85.0
417,126.08201677500001,126.60880196250001,53.0,92.0
418,126.51058777500002,126.84451601250002,60.0,96.0
419,126.72487327500002,126.91058737500002,53.0,93.0
420,125.65344577500002,126.94273020000001,41.0,95.0
421,125.86773127500001,126.98201587500002,48.0,86.0
422,126.29630227500002,127.00523013750002,57.0,92.0
423,126.93915877500001,127.21594421250002,60.0,66.0
424,126.93915877500001,127.33380123750001,65.0,102.0
425,127.15344427500001,127.38201547500002,57.0,86.0
426,128.010586275,128.260586025,62.0,89.0
427,127.79630077500002,128.332014525,58.0,97.0
428,127.58201527500002,128.4445144125,53.0,31.0
429,127.36772977500002,128.56951428750003,46.0,90.0
430,128.439157275,128.62487137500003,58.0,107.0
431,128.22487177500003,128.65344277500003,65.0,112.0
432,128.65344277500003,128.910585375,62.0,112.0
433,128.86772827500002,129.06772807500002,65.0,107.0
434,129.510584775,129.9427272,60.0,81.0
435,129.72487027500003,129.96772717500002,64.0,96.0
436,129.29629927500002,130.0587985125,55.0,92.0
437,130.153441275,130.36415535,55.0,83.0
438,129.082013775,130.42486957500003,48.0,89.0
439,129.93915577500002,130.64094078750003,67.0,117.0
440,130.36772677500002,130.66594076250001,64.0,127.0
441,130.582012275,130.7980834875,60.0,100.0
442,131.224868775,131.47665423750001,57.0,99.0
443,131.43915427500002,131.69629687500003,60.0,112.0
444,131.01058327500002,131.7855825,52.0,70.0
445,131.86772527500003,131.99451086250002,52.0,73.0
446,130.79629777500003,132.0302251125,45.0,85.0
447,132.08201077500001,132.3409390875,60.0,90.0
448,131.653439775,132.43558185,64.0,117.0
449,132.296296275,132.48736751250001,57.0,93.0
450,132.93915277500003,133.43915227500003,50.0,96.0
451,133.153438275,133.46236653750003,57.0,92.0
452,132.724867275,133.6087949625,45.0,86.0
453,133.58200927500002,133.6087949625,45.0,43.0
454,133.36772377500003,133.6623663375,62.0,117.0
455,133.36772377500003,133.6623663375,65.0,127.0
456,132.51058177500002,133.7587948125,38.0,85.0
457,133.58200927500002,133.79272335000002,50.0,122.0
458,133.796294775,133.9123660875,67.0,93.0
459,133.796294775,134.17665153750002,62.0,97.0
460,133.796294775,134.196294375,65.0,93.0
461,134.01058027500002,134.2409371875,57.0,102.0
462,134.867722275,135.0802220625,62.0,99.0
463,134.65343677500002,135.12665058750002,58.0,97.0
464,134.43915127500003,135.3623646375,53.0,82.0
465,134.224865775,135.46593596250003,46.0,81.0
466,135.08200777500002,135.49986450000003,65.0,107.0
467,135.296293275,135.53022161250001,58.0,102.0
468,135.51057877500003,135.79450706250003,62.0,122.0
469,135.72486427500002,135.917721225,65.0,99.0
470,136.367720775,136.77486322500002,60.0,79.0
471,136.58200627500003,136.83022031250002,64.0,85.0
472,136.15343527500002,136.85879171250002,55.0,89.0
473,137.01057727500003,137.117720025,55.0,95.0
474,135.939149775,137.139148575,48.0,82.0
475,136.79629177500001,137.48557680000002,67.0,107.0
476,137.22486277500002,137.4945053625,64.0,122.0
477,137.439148275,137.62664808750003,60.0,96.0
478,138.08200477500003,138.58021856250002,50.0,92.0
479,138.29629027500002,139.0284324,57.0,82.0
480,137.867719275,139.1337894375,45.0,82.0
481,138.939146775,140.60878796250003,64.0,81.0
482,137.65343377500002,141.082001775,38.0,82.0
483,138.72486127500002,141.082001775,50.0,82.0
484,139.15343227500003,141.082001775,57.0,66.0
485,139.36771777500002,141.082001775,62.0,69.0
486,138.510575775,141.082001775,65.0,96.0
487,141.72485827500003,141.8480724375,62.0,29.0
488,141.082001775,142.38378618750002,38.0,77.0
489,141.510572775,142.38378618750002,45.0,46.0
490,141.93914377500002,142.79985720000002,65.0,92.0
491,142.36771477500002,142.82307146250002,62.0,67.0
492,142.79628577500003,143.73378483750002,36.0,69.0
493,143.224856775,143.86235613750003,43.0,42.0
494,143.653427775,144.546284025,64.0,79.0
495,144.93914077500003,145.57664013750002,52.0,50.0
496,144.51056977500002,145.69449716250003,45.0,66.0
497,145.796282775,146.217710925,60.0,60.0
498,145.36771177500003,146.22663948750002,64.0,92.0
499,146.01056827500003,146.26056802500003,57.0,51.0
500,146.867710275,147.1230671625,57.0,54.0
501,146.224853775,147.42663828750003,38.0,59.0
502,146.65342477500002,147.44806683750002,45.0,41.0
503,147.08199577500002,147.46592396250003,65.0,83.0
504,147.296281275,147.6730666125,64.0,86.0
505,147.51056677500003,147.90342352500002,62.0,71.0
506,147.72485227500002,147.97485202500002,57.0,48.0
507,148.367708775,149.10699375000002,53.0,57.0
508,147.939137775,149.10877946250002,46.0,66.0
509,148.79627977500002,149.54627902500002,65.0,97.0
510,149.22485077500002,149.5837789875,62.0,79.0
511,149.65342177500003,150.96413475000003,48.0,66.0
512,150.510563775,151.30699155000002,64.0,89.0
513,150.939134775,151.30877726250003,60.0,73.0
514,150.08199277500003,151.35877721250003,55.0,63.0
515,151.36770577500002,152.94627562500003,41.0,75.0
516,151.79627677500002,153.08556120000003,48.0,50.0
517,152.653418775,153.09627547500003,57.0,48.0
518,152.22484777500003,153.1159183125,60.0,90.0
519,153.081989775,154.32484567500003,41.0,72.0
520,153.29627527500003,154.34448851250002,48.0,52.0
521,153.51056077500002,154.5194883375,53.0,73.0
522,154.36770277500003,154.79448806250002,65.0,73.0
523,153.72484627500003,154.82841660000003,69.0,100.0
524,155.224844775,155.92662978750002,58.0,92.0
525,155.01055927500002,155.96234403750003,53.0,47.0
526,154.79627377500003,156.0587725125,46.0,66.0
527,155.43913027500002,156.45877211250001,65.0,74.0
528,156.08198677500002,156.4694863875,62.0,59.0
529,156.51055777500002,157.72305656250003,48.0,66.0
530,156.93912877500003,158.16055612500003,55.0,46.0
531,157.36769977500003,158.34805593750002,64.0,85.0
532,157.796270775,158.40341302500002,60.0,64.0
533,158.65341277500002,159.3230549625,52.0,50.0
534,158.22484177500002,159.38734061250003,45.0,70.0
535,158.867698275,159.72662598750003,64.0,97.0
536,159.51055477500003,159.8123401875,60.0,60.0
537,159.72484027500002,160.29805398750003,57.0,52.0
538,160.367696775,160.89626767500002,50.0,67.0
539,160.15341127500002,161.12483887500002,45.0,46.0
540,159.939125775,161.13019601250002,38.0,58.0
541,161.01055327500004,161.24805303750003,50.0,59.0
542,160.58198227500003,161.54805273750003,65.0,93.0
543,161.22483877500002,161.55162416250002,62.0,53.0
544,161.439124275,161.6944811625,57.0,61.0
545,162.08198077500003,162.53198032500003,58.0,61.0
546,161.65340977500003,162.99447986250001,46.0,89.0
547,162.93912277500002,163.3159081125,58.0,68.0
548,162.510551775,163.34447951250002,62.0,86.0
549,163.36769377500002,164.45697840000003,48.0,65.0
550,163.79626477500003,165.01054927500002,55.0,55.0
551,164.653406775,165.0587635125,60.0,66.0
552,164.22483577500003,165.07483492500003,64.0,85.0
553,165.51054877500002,166.00519113750002,50.0,69.0
554,165.081977775,166.7087618625,38.0,70.0
555,166.36769077500003,166.87661883750002,64.0,50.0
556,165.93911977500002,167.52126105000002,65.0,81.0
557,166.79626177500003,167.61768952500003,62.0,55.0
558,166.153405275,167.72126085000002,50.0,53.0
559,167.86768927500003,168.07126050000002,50.0,44.0
560,166.79626177500003,168.25340317500002,38.0,48.0
561,168.08197477500002,168.48376008750003,64.0,65.0
562,165.29626327500003,168.51054577500003,45.0,58.0
563,165.72483427500003,168.51054577500003,57.0,69.0
564,168.296260275,168.51054577500003,62.0,73.0
565,167.65340377500002,168.51054577500003,65.0,81.0
566,169.15340227500002,169.27661643750002,62.0,29.0
567,168.51054577500003,169.8123301875,38.0,77.0
568,168.93911677500003,169.8123301875,45.0,46.0
569,169.36768777500004,170.22840120000004,65.0,92.0
570,169.796258775,170.2516154625,62.0,67.0
571,170.22482977500002,171.1623288375,36.0,69.0
572,170.65340077500002,171.29090013750002,43.0,42.0
573,171.08197177500003,171.97482802500002,64.0,79.0
574,172.36768477500001,173.0051841375,52.0,50.0
575,171.939113775,173.12304116250002,45.0,66.0
576,173.22482677500003,173.64625492500002,60.0,60.0
577,172.79625577500002,173.6551834875,64.0,92.0
578,173.439112275,173.68911202500001,57.0,51.0
579,174.29625427500002,174.55161116250002,57.0,54.0
580,173.65339777500003,174.8551822875,38.0,59.0
581,174.08196877500004,174.8766108375,45.0,41.0
582,174.510539775,174.89446796250002,65.0,83.0
583,174.72482527500003,175.10161061250002,64.0,86.0
584,174.93911077500002,175.331967525,62.0,71.0
585,175.15339627500003,175.40339602500003,57.0,48.0
586,175.79625277500003,176.53553775000003,53.0,57.0
587,175.36768177500002,176.5373234625,46.0,66.0
588,176.22482377500003,176.97482302500003,65.0,97.0
589,176.653394775,177.01232298750003,62.0,79.0
590,177.08196577500001,178.39267875000002,48.0,66.0
591,177.93910777500002,178.73553555000004,64.0,89.0
592,178.36767877500003,178.73732126250002,60.0,73.0
593,177.51053677500002,178.78732121250002,55.0,63.0
594,178.79624977500004,180.37481962500001,41.0,75.0
595,179.224820775,180.51410520000002,48.0,50.0
596,180.08196277500002,180.52481947500002,57.0,48.0
597,179.65339177500002,180.54446231250003,60.0,90.0
598,180.51053377500003,181.75338967500002,41.0,72.0
599,180.72481927500002,181.77303251250004,48.0,52.0
600,180.93910477500003,181.94803233750002,53.0,73.0
601,181.79624677500001,182.2230320625,65.0,73.0
602,181.15339027500002,182.2569606,69.0,100.0
603,182.65338877500002,183.35517378750004,58.0,92.0
604,182.43910327500004,183.39088803750002,53.0,47.0
605,182.22481777500002,183.48731651250003,46.0,66.0
606,182.867674275,183.88731611250003,65.0,74.0
607,183.51053077500003,183.89803038750003,62.0,59.0
608,183.939101775,185.15160056250002,48.0,66.0
609,184.36767277500002,185.58910012500002,55.0,46.0
610,184.79624377500002,185.77659993750004,64.0,85.0
611,185.22481477500003,185.83195702500004,60.0,64.0
612,186.08195677500004,186.75159896250003,52.0,50.0
613,185.65338577500003,186.8158846125,45.0,70.0
614,186.29624227500003,187.15516998750002,64.0,97.0
615,186.93909877500002,187.24088418750003,60.0,60.0
616,187.15338427500004,187.7265979875,57.0,52.0
617,187.79624077500003,188.32481167500003,50.0,67.0
618,187.581955275,188.553382875,45.0,46.0
619,187.36766977500002,188.55874001250004,38.0,58.0
620,188.43909727500002,188.67659703750002,50.0,59.0
621,188.01052627500002,188.97659673750002,65.0,93.0
622,188.653382775,188.98016816250004,62.0,53.0
623,188.86766827500003,189.12302516250003,57.0,61.0
624,189.51052477500002,189.96052432500002,58.0,61.0
625,189.08195377500002,190.42302386250003,46.0,89.0
626,190.36766677500003,190.74445211250003,58.0,68.0
627,189.93909577500003,190.77302351250003,62.0,86.0
628,190.79623777500004,191.8855224,48.0,65.0
629,191.224808775,192.43909327500003,55.0,55.0
630,192.08195077500002,192.48730751250002,60.0,66.0
631,191.65337977500002,192.50337892500002,64.0,85.0
632,192.50873606250002,194.04802023750003,38.0,88.0
633,193.78552050000002,194.05516308750003,64.0,75.0
634,193.16587826250003,194.22480577500002,65.0,117.0
635,192.92480707500002,194.26052002500003,45.0,55.0
636,194.00159171250002,194.65337677500003,62.0,89.0
637,194.81766232500001,194.93909077500004,57.0,50.0
638,194.64623392500002,194.94623362500002,50.0,92.0
639,194.42123415000003,194.98016216250002,45.0,79.0
640,194.21052007500003,194.98194787500003,38.0,95.0
641,195.07659063750003,195.42837600000001,65.0,112.0
642,195.07837635,195.43016171250002,62.0,107.0
643,195.08016206250002,195.45159026250002,57.0,127.0
644,195.0837334875,195.66051862500004,50.0,107.0
645,195.50337592500003,195.88016126250002,57.0,82.0
646,195.49623307500002,195.88373268750001,62.0,92.0
647,195.49980450000004,195.92123265000004,65.0,96.0
648,195.91230408750002,195.939089775,46.0,79.0
649,196.36766077500002,196.860517425,50.0,100.0
650,196.58194627500004,196.90694595000002,57.0,102.0
651,197.010517275,197.18908852500002,50.0,102.0
652,196.15337527500003,197.30694555000002,45.0,107.0
653,195.939089775,197.310516975,38.0,93.0
654,196.79623177500002,197.51765962500002,65.0,117.0
655,197.22480277500003,197.63730236250004,62.0,127.0
656,197.43908827500002,197.73194512500004,57.0,117.0
657,198.08194477500004,198.5765871375,48.0,95.0
658,198.29623027500003,198.7265869875,55.0,95.0
659,197.65337377500003,198.89801538750004,36.0,78.0
660,197.86765927500002,198.94980105000002,43.0,96.0
661,198.72480127500003,199.06765807500003,48.0,100.0
662,198.93908677500002,199.28908642500002,60.0,99.0
663,199.15337227500004,199.30515783750002,55.0,93.0
664,198.51051577500002,199.31051497500002,64.0,102.0
665,199.79622877500003,200.00872856250004,57.0,96.0
666,200.01051427500002,200.22658548750002,60.0,107.0
667,199.58194327500001,200.31765682500003,52.0,79.0
668,200.43908527500002,200.5480137375,52.0,88.0
669,199.36765777500003,200.56587086250002,45.0,78.0
670,200.22479977500004,200.82837060000003,64.0,112.0
671,200.653370775,200.88194197500002,60.0,100.0
672,200.86765627500003,201.08194177500002,57.0,92.0
673,201.29622727500004,201.63194122500002,45.0,88.0
674,201.08194177500002,201.7694410875,38.0,92.0
675,201.51051277500002,201.89979810000003,50.0,107.0
676,201.72479827500004,201.94444091250003,57.0,122.0
677,201.93908377500003,202.34801193750002,48.0,102.0
678,201.93908377500003,202.70694015000004,64.0,107.0
679,201.93908377500003,202.78372578750003,60.0,117.0
680,203.43908227500003,203.65158206250004,62.0,97.0
681,203.22479677500002,203.72836770000004,58.0,99.0
682,203.01051127500003,203.94801033750002,53.0,47.0
683,203.65336777500002,204.06229593750004,65.0,117.0
684,203.86765327500004,204.08015306250002,58.0,99.0
685,202.79622577500004,204.13372443750004,46.0,82.0
686,204.08193877500003,204.36050992500003,62.0,102.0
687,204.29622427500001,204.50515263750003,65.0,107.0
688,204.93908077500004,205.23729476250003,60.0,95.0
689,205.15336627500002,205.38908032500004,64.0,97.0
690,204.72479527500002,205.48193737500003,55.0,93.0
691,205.58193727500003,205.91586551250003,55.0,76.0
692,204.51050977500003,205.97122260000003,48.0,70.0
693,205.367651775,206.05157966250002,67.0,107.0
694,205.79622277500002,206.06229393750002,64.0,122.0
695,206.01050827500003,206.21050807500004,60.0,93.0
696,206.65336477500003,207.16943568750003,53.0,85.0
697,206.86765027500002,207.19979280000004,57.0,86.0
698,207.29622127500002,207.48014966250003,53.0,92.0
699,206.22479377500002,207.83014931250003,41.0,88.0
700,207.08193577500003,207.95693490000002,65.0,102.0
701,206.43907927500004,207.98550630000003,48.0,77.0
702,207.51050677500004,208.01229198750002,60.0,97.0
703,207.72479227500003,208.04800623750003,57.0,102.0
704,208.36764877500002,208.85157686250002,53.0,81.0
705,208.58193427500004,208.92300536250002,57.0,89.0
706,209.010505275,209.21229078750002,53.0,107.0
707,208.15336327500003,209.29800498750004,48.0,75.0
708,207.93907777500002,209.30336212500004,41.0,79.0
709,209.22479077500003,209.48193337500004,60.0,127.0
710,208.79621977500003,209.53550475000003,65.0,122.0
711,209.43907627500002,209.70336172500004,57.0,100.0
712,210.08193277500004,210.58728941250004,50.0,96.0
713,210.29621827500003,210.80336062500004,57.0,92.0
714,210.72478927500003,210.88907482500002,50.0,95.0
715,209.65336177500004,210.91228908750003,38.0,79.0
716,209.86764727500002,210.94086048750003,45.0,78.0
717,210.51050377500002,211.21586021250002,65.0,117.0
718,210.93907477500002,211.23193162500002,62.0,100.0
719,211.15336027500004,211.41943143750004,57.0,99.0
720,212.01050227500002,212.31228768750003,55.0,86.0
721,211.79621677500003,212.31943053750004,48.0,96.0
722,211.36764577500003,212.53193032500002,36.0,73.0
723,211.58193127500002,212.56228743750003,43.0,65.0
724,212.43907327500003,212.65157306250003,48.0,96.0
725,212.65335877500002,212.99085843750004,60.0,107.0
726,212.22478777500004,213.01050127500002,64.0,102.0
727,212.86764427500003,213.03192982500002,55.0,89.0
728,213.51050077500003,213.73371483750003,57.0,93.0
729,213.724786275,213.89621467500004,60.0,107.0
730,213.29621527500004,214.00692885000004,52.0,76.0
731,214.15335727500002,214.33014281250001,52.0,92.0
732,213.08192977500002,214.37835705000003,45.0,77.0
733,213.93907177500003,214.55514258750003,64.0,122.0
734,214.36764277500004,214.59621397500004,60.0,112.0
735,214.58192827500002,214.84264230000002,57.0,96.0
736,214.79621377500004,215.70335572500002,38.0,77.0
737,215.01049927500003,215.72121285000003,45.0,82.0
738,215.22478477500002,215.80514133750003,50.0,93.0
739,215.65335577500002,215.96049832500003,65.0,127.0
740,215.43907027500003,215.98728401250003,57.0,93.0
741,215.86764127500004,216.19442666250004,48.0,92.0
742,216.08192677500003,216.34085508750002,60.0,117.0
743,216.29621227500002,216.55335487500003,57.0,99.0
744,217.15335427500003,217.31406840000002,62.0,85.0
745,216.93906877500004,217.38549690000002,58.0,107.0
746,216.72478327500002,217.47656823750003,53.0,43.0
747,216.51049777500003,217.67835375000004,46.0,97.0
748,217.36763977500001,217.75871081250003,65.0,112.0
749,217.58192527500003,217.77299651250001,58.0,112.0
750,217.79621077500002,218.05692480000002,62.0,100.0
751,218.01049627500004,218.18906752500004,65.0,96.0
752,218.65335277500003,218.91049537500004,60.0,89.0
753,218.86763827500002,219.06406665000003,64.0,100.0
754,218.43906727500004,219.19263795000003,55.0,79.0
755,219.29620927500002,219.43549485000003,55.0,89.0
756,218.22478177500003,219.48549480000003,48.0,76.0
757,219.08192377500004,219.76942308750003,67.0,117.0
758,219.51049477500004,219.80692305000002,64.0,117.0
759,219.72478027500003,219.92120865000004,60.0,102.0
760,220.58192227500004,220.88192197500004,62.0,79.0
761,220.79620777500003,221.14442171250002,69.0,112.0
762,221.01049327500002,221.26227873750003,65.0,97.0
763,220.36763677500002,221.27656443750004,50.0,95.0
764,219.93906577500002,221.31763582500002,38.0,88.0
765,220.15335127500003,221.33906437500002,45.0,83.0
766,221.22477877500003,221.34620722500003,62.0,93.0
767,221.43906427500002,221.70692115000003,62.0,100.0
768,221.43906427500002,221.71227828750003,65.0,97.0
769,221.43906427500002,221.72656398750004,50.0,102.0
770,221.43906427500002,221.74620682500003,69.0,95.0
771,221.43906427500002,221.75513538750002,38.0,83.0
772,223.36763377500003,224.97120360000002,38.0,93.0
773,223.79620477500004,224.97298931250003,45.0,59.0
774,224.65334677500002,225.04798923750002,62.0,97.0
775,224.22477577500004,225.06406065000002,65.0,112.0
776,225.08191777500002,225.92120265000003,36.0,86.0
777,225.51048877500003,226.25334517500002,55.0,76.0
778,225.93905977500003,226.57477342500002,64.0,96.0
779,226.36763077500004,226.87477312500002,60.0,78.0
780,227.22477277500002,227.83727216250003,52.0,59.0
781,226.79620177500004,228.05870051250002,45.0,78.0
782,227.65334377500002,228.44441441250004,64.0,127.0
783,228.08191477500003,228.46405725000002,60.0,117.0
784,228.93905677500004,229.48012766250002,45.0,70.0
785,228.51048577500003,229.49977050000004,38.0,77.0
786,229.36762777500002,229.98548430000002,65.0,112.0
787,229.79619877500002,230.27298401250002,62.0,100.0
788,230.22476977500003,231.23012591250003,46.0,82.0
789,230.65334077500003,231.35155436250002,53.0,48.0
790,231.08191177500004,231.69083973750003,65.0,117.0
791,231.51048277500004,231.92476807500003,62.0,88.0
792,232.36762477500002,233.01940983750004,60.0,83.0
793,231.93905377500002,233.04798123750004,48.0,81.0
794,232.79619577500003,233.59798068750004,67.0,97.0
795,233.22476677500003,233.65512348750002,64.0,102.0
796,234.51047977500002,234.95512218750002,57.0,122.0
797,233.65333777500004,235.25690760000003,41.0,83.0
798,234.08190877500002,235.31226468750003,48.0,59.0
799,234.93905077500003,235.34797893750002,60.0,102.0
800,236.01047827500003,236.15512098750003,72.0,97.0
801,236.01047827500003,236.15869241250005,69.0,97.0
802,236.01047827500003,236.16226383750003,65.0,90.0
803,235.79619277500004,236.30333512500002,53.0,112.0
804,235.36762177500003,236.32833510000003,41.0,82.0
805,236.22476377500004,236.36047792500003,69.0,102.0
806,235.58190727500002,236.36762077500003,48.0,93.0
807,236.22476377500004,236.36762077500003,72.0,99.0
808,236.43904927500003,236.48369208750003,69.0,53.0
809,236.22476377500004,236.54797773750002,65.0,107.0
810,236.65333477500002,236.79797748750002,65.0,85.0
811,236.65333477500002,236.80869176250002,69.0,85.0
812,236.65333477500002,236.82119175000003,60.0,117.0
813,236.43904927500003,236.92297736250003,53.0,122.0
814,236.43904927500003,236.93547735000004,48.0,95.0
815,236.43904927500003,236.96762017500004,41.0,76.0
816,236.86762027500004,237.06940578750002,65.0,95.0
817,236.86762027500004,237.08369148750003,60.0,90.0
818,236.86762027500004,237.09262005000002,69.0,95.0
819,237.51047677500003,238.01583341250003,50.0,96.0
820,237.72476227500002,238.23190462500003,57.0,92.0
821,238.15333327500002,238.31761882500004,50.0,95.0
822,237.08190577500002,238.34083308750004,38.0,79.0
823,237.29619127500004,238.36940448750002,45.0,78.0
824,237.93904777500003,238.64440421250004,65.0,117.0
825,238.36761877500004,238.66047562500003,62.0,100.0
826,238.58190427500003,238.84797543750003,57.0,99.0
827,239.43904627500004,239.74083168750002,55.0,86.0
828,239.22476077500002,239.74797453750003,48.0,96.0
829,238.79618977500004,239.96047432500004,36.0,73.0
830,239.01047527500003,239.99083143750002,43.0,65.0
831,239.86761727500004,240.08011706250002,48.0,96.0
832,240.08190277500003,240.41940243750003,60.0,107.0
833,239.65333177500003,240.43904527500004,64.0,102.0
834,240.29618827500002,240.46047382500004,55.0,89.0
835,240.93904477500004,241.16225883750002,57.0,93.0
836,241.15333027500003,241.32475867500003,60.0,107.0
837,240.72475927500003,241.43547285000002,52.0,76.0
838,241.58190127500004,241.75868681250003,52.0,92.0
839,240.51047377500004,241.80690105000002,45.0,77.0
840,241.36761577500002,241.98368658750005,64.0,122.0
841,241.79618677500002,242.02475797500003,60.0,112.0
842,242.01047227500004,242.27118630000004,57.0,96.0
843,242.22475777500003,243.13189972500004,38.0,77.0
844,242.43904327500005,243.14975685000005,45.0,82.0
845,242.65332877500003,243.23368533750002,50.0,93.0
846,243.08189977500004,243.38904232500002,65.0,127.0
847,242.86761427500002,243.41582801250004,57.0,93.0
848,243.29618527500003,243.62297066250002,48.0,92.0
849,243.51047077500004,243.76939908750003,60.0,117.0
850,243.72475627500003,243.98189887500004,57.0,99.0
851,244.58189827500004,244.74261240000004,62.0,85.0
852,244.36761277500003,244.81404090000004,58.0,107.0
853,244.15332727500004,244.90511223750002,53.0,43.0
854,243.93904177500002,245.10689775000003,46.0,97.0
855,244.79618377500003,245.18725481250004,65.0,112.0
856,245.01046927500002,245.20154051250003,58.0,112.0
857,245.22475477500004,245.48546880000004,62.0,100.0
858,245.43904027500002,245.61761152500003,65.0,96.0
859,246.08189677500002,246.33903937500003,60.0,89.0
860,246.29618227500004,246.49261065000005,64.0,100.0
861,245.86761127500003,246.62118195000002,55.0,79.0
862,246.72475327500004,246.86403885000004,55.0,89.0
863,245.65332577500004,246.91403880000004,48.0,76.0
864,246.51046777500002,247.19796708750005,67.0,117.0
865,246.93903877500003,247.23546705000004,64.0,117.0
866,247.15332427500005,247.34975265000003,60.0,102.0
867,247.79618077500004,248.22296606250003,50.0,96.0
868,247.58189527500002,248.27653743750002,45.0,50.0
869,248.01046627500003,248.30868026250002,57.0,72.0
870,248.22475177500004,248.31939453750005,65.0,96.0
871,247.36760977500003,248.32475167500004,38.0,75.0
872,248.43903727500003,248.61046567500003,60.0,107.0
873,248.43903727500003,248.64082278750004,64.0,127.0
874,248.43903727500003,248.83010831250004,36.0,107.0
875,248.86760827500004,249.19617937500004,62.0,97.0
876,248.86760827500004,249.20153651250004,57.0,99.0
877,248.86760827500004,249.21225078750004,65.0,99.0
878,248.86760827500004,249.23010791250005,38.0,107.0
879,251.22474877500002,251.93903377500004,53.0,41.0
880,250.79617777500005,251.96403375000003,46.0,89.0
881,251.65331977500003,252.46046182500004,65.0,67.0
882,251.65331977500003,252.72653298750004,62.0,68.0
883,252.93903277500004,253.81581761250004,55.0,52.0
884,252.51046177500004,253.88724611250004,48.0,75.0
885,253.36760377500002,254.13367443750002,64.0,75.0
886,253.79617477500003,254.16938868750003,60.0,63.0
887,255.08188777500004,256.71581471250005,50.0,57.0
888,254.65331677500004,256.72117185,45.0,61.0
889,254.22474577500003,256.7872432125,38.0,69.0
890,255.93902977500002,257.3550997875,57.0,23.0
891,255.93902977500002,257.62831380000006,62.0,63.0
892,255.51045877500005,257.65688520000003,65.0,77.0
893,258.08188477500005,258.8515268625,53.0,39.0
894,257.653313775,258.93724106250005,46.0,92.0
895,258.72474127500004,258.93724106250005,58.0,64.0
896,258.296170275,259.38188347500005,65.0,97.0
897,258.93902677500006,259.41224058750004,62.0,83.0
898,259.796168775,260.40331102500005,55.0,44.0
899,259.36759777500004,260.474739525,48.0,69.0
900,260.653310775,261.05866751250005,64.0,79.0
901,260.01045427500003,261.074738925,67.0,93.0
902,262.1729521125,263.03187982500003,50.0,38.0
903,261.71580971250006,263.48187937500006,65.0,99.0
904,262.81223718750005,263.5300936125,62.0,89.0
905,263.42295086250004,263.74616482500005,50.0,40.0
906,262.5943802625,263.9408074875,57.0,53.0
907,261.0854532,263.94259320000003,38.0,78.0
908,261.49973850000003,263.95509318750004,45.0,42.0
909,263.8711647,264.06937878750006,50.0,59.0
910,264.06759307500005,264.50330692500006,62.0,66.0
911,264.2711643,264.5158069125,57.0,58.0
912,263.6515220625,264.5283069,65.0,96.0
913,264.49973550000004,265.7265199875,46.0,75.0
914,264.90866366250003,265.73009141250003,53.0,35.0
915,265.75687710000005,266.20687665,62.0,50.0
916,265.11402060000006,266.22473377500006,65.0,96.0
917,266.63187622500004,267.4711611,55.0,43.0
918,266.20866236250004,267.5836609875,48.0,75.0
919,267.5283039,268.13187472500005,64.0,64.0
920,266.8693759875,268.1586604125,67.0,95.0
921,269.3586592125,269.91937293750004,57.0,79.0
922,269.85330157500005,270.38901532500006,62.0,76.0
923,270.32830110000003,270.89794338750005,64.0,78.0
924,270.83365773750006,272.71937013750005,65.0,39.0
925,268.403303025,272.7443701125,45.0,53.0
926,268.89794538750004,272.7479415375,50.0,85.0
927,267.9800891625,272.79615577500005,38.0,86.0
