,start,end,pitch,velocity
0,27.740682720833334,28.169344720833337,75.0,90.0
1,28.169344720833337,28.598006720833336,74.0,85.0
2,28.598006720833336,29.026668720833335,70.0,83.0
3,29.026668720833335,30.741316720833336,72.0,89.0
4,30.741316720833336,30.978866912500003,67.0,72.0
5,30.955647720833337,31.169978720833335,65.0,76.0
6,31.169978720833335,31.598640720833338,63.0,65.0
7,31.598640720833338,32.02730272083333,65.0,66.0
8,32.02730272083333,32.455964720833336,70.0,79.0
9,32.455964720833336,34.598381675000006,67.0,94.0
10,34.599274720833336,35.456598720833334,67.0,106.0
11,35.456598720833334,35.88526072083334,70.0,105.0
12,35.88526072083334,36.31392272083334,67.0,95.0
13,36.31392272083334,37.599908720833334,65.0,92.0
14,37.599908720833334,37.813346675000005,72.0,90.0
15,37.814239720833335,38.028570720833336,72.0,90.0
16,38.028570720833336,38.48134495833334,70.0,90.0
17,38.45723272083334,38.885894720833335,72.0,91.0
18,38.885894720833335,39.31455672083334,74.0,93.0
19,39.31455672083334,39.52888772083334,70.0,64.0
20,39.52888772083334,41.45786672083334,67.0,52.0
21,41.45786672083334,41.912427050000005,75.0,101.0
22,41.88652872083334,42.315190720833336,74.0,94.0
23,42.315190720833336,42.759927545833335,70.0,87.0
24,42.74385272083334,44.458500720833335,72.0,91.0
25,44.458500720833335,44.71391182916667,67.0,93.0
26,44.67283172083334,44.88716272083334,65.0,84.0
27,44.88716272083334,45.31850385833334,63.0,81.0
28,45.31582472083334,45.74716585833334,65.0,73.0
29,45.744486720833336,46.17314872083334,70.0,87.0
30,46.17314872083334,47.887796720833336,67.0,95.0
31,47.887796720833336,48.10212772083334,63.0,87.0
32,48.10212772083334,48.34414314166667,65.0,86.0
33,48.31645872083334,49.18539231666667,67.0,89.0
34,49.17378272083334,49.60244472083334,70.0,90.0
35,49.60244472083334,50.04718154583334,67.0,90.0
36,50.031106720833336,50.88843072083334,65.0,87.0
37,50.88843072083334,51.31709272083334,63.0,90.0
38,51.31709272083334,51.744861675,62.0,68.0
39,51.74575472083334,52.067251220833334,62.0,66.0
40,52.067251220833334,55.17505072083334,60.0,63.0
41,55.17505072083334,55.603712720833336,75.0,96.0
42,55.603712720833336,56.03237472083334,74.0,93.0
43,56.03237472083334,56.484255912500004,70.0,90.0
44,56.46103672083334,58.17568472083334,72.0,96.0
45,58.17568472083334,58.401625316666674,67.0,94.0
46,58.39001572083334,58.60434672083334,65.0,84.0
47,58.60434672083334,59.03300872083334,63.0,66.0
48,59.03300872083334,59.46167072083334,65.0,84.0
49,59.46167072083334,59.913551912500004,70.0,93.0
50,59.890332720833335,62.032749675000005,67.0,100.0
51,62.03364272083334,62.89096672083334,67.0,99.0
52,62.89096672083334,63.319628720833336,70.0,97.0
53,63.319628720833336,63.53306667500001,67.0,72.0
54,63.53395972083334,63.74829072083334,67.0,92.0
55,63.74829072083334,65.03427672083333,65.0,69.0
56,65.03427672083333,65.24771467500001,72.0,63.0
57,65.24860772083333,65.46293872083334,72.0,90.0
58,65.46293872083334,65.89160072083334,70.0,98.0
59,65.89160072083334,66.32026272083334,72.0,97.0
60,66.32026272083334,66.74892472083334,74.0,99.0
61,66.74892472083334,66.96236267500001,70.0,72.0
62,66.96325572083335,67.39191772083333,70.0,84.0
63,67.39191772083333,68.89223472083334,67.0,58.0
64,68.89223472083334,69.32089672083335,75.0,109.0
65,69.32089672083335,69.74955872083333,74.0,103.0
66,69.74955872083333,70.19518859166668,70.0,98.0
67,70.17822072083334,71.89286872083333,72.0,101.0
68,71.89286872083333,72.10719972083334,67.0,99.0
69,72.10719972083334,72.32153072083334,65.0,89.0
70,72.32153072083334,72.75019272083334,63.0,87.0
71,72.75019272083334,73.17885472083334,65.0,91.0
72,73.17885472083334,73.60751672083335,70.0,95.0
73,73.60751672083335,75.32216472083334,67.0,103.0
74,75.32216472083334,75.56953841666667,63.0,90.0
75,75.53649572083334,75.782083325,65.0,81.0
76,75.75082672083335,76.17859567500001,67.0,89.0
77,76.17948872083333,76.39381972083333,67.0,93.0
78,76.39381972083333,77.03859881250001,70.0,85.0
79,77.03681272083334,77.46547472083334,67.0,74.0
80,77.46547472083334,78.11471904166667,65.0,84.0
81,78.10846772083335,78.75146072083334,67.0,87.0
82,78.75146072083334,79.20602105,70.0,80.0
83,79.18012272083334,83.03718767500001,72.0,101.0
84,83.03808072083334,83.465849675,72.0,103.0
85,83.46674272083334,83.89540472083334,72.0,90.0
86,83.89540472083334,84.32406672083334,75.0,93.0
87,84.32406672083334,84.75272872083335,77.0,97.0
88,84.75272872083335,85.18049767500001,79.0,94.0
89,85.18139072083333,85.61005272083334,79.0,97.0
90,85.61005272083334,86.46737672083334,75.0,96.0
91,86.46737672083334,86.89514567500001,72.0,105.0
92,86.89603872083335,87.32470072083333,72.0,93.0
93,87.32470072083333,87.75336272083334,74.0,94.0
94,87.75336272083334,88.18202472083334,72.0,96.0
95,88.18202472083334,88.39635572083334,74.0,90.0
96,88.39635572083334,88.61068672083334,72.0,87.0
97,88.61068672083334,89.03934872083335,70.0,90.0
98,89.03934872083335,89.89667272083334,67.0,91.0
99,89.89667272083334,90.324441675,72.0,98.0
100,90.32533472083334,90.75399672083334,72.0,92.0
101,90.75399672083334,91.18265872083335,75.0,97.0
102,91.18265872083335,91.61132072083335,77.0,80.0
103,91.61132072083335,92.03908967500001,79.0,62.0
104,92.03998272083334,92.46864472083334,79.0,90.0
105,92.46864472083334,93.32596872083334,75.0,97.0
106,93.32596872083334,93.75373767500001,72.0,97.0
107,93.75463072083335,94.18329272083334,72.0,95.0
108,94.18329272083334,94.61552690416667,74.0,93.0
109,94.61195472083334,95.04061672083334,72.0,87.0
110,95.04061672083334,95.2567338125,74.0,90.0
111,95.25494772083334,95.46927872083334,72.0,84.0
112,95.46927872083334,95.89794072083335,70.0,87.0
113,95.89794072083335,96.75526472083334,67.0,67.0
114,96.75526472083334,96.968702675,77.0,87.0
115,96.96959572083334,97.183033675,77.0,86.0
116,97.18392672083334,97.611695675,77.0,90.0
117,97.61258872083334,98.04125072083335,77.0,84.0
118,98.04125072083335,98.52974679166668,74.0,77.0
119,98.46991272083334,98.89857472083334,72.0,77.0
120,98.89857472083334,99.32723672083334,70.0,89.0
121,99.32723672083334,100.18456072083335,67.0,66.0
122,100.18456072083335,100.39799867500001,77.0,95.0
123,100.39889172083335,100.61232967500001,77.0,93.0
124,100.61322272083333,101.04099167500001,77.0,87.0
125,101.04188472083334,101.47054672083334,77.0,90.0
126,101.47054672083334,101.91260440833334,74.0,95.0
127,101.89920872083334,102.32787072083335,72.0,98.0
128,102.32787072083335,102.75653272083335,70.0,90.0
129,102.75653272083335,103.18519472083334,67.0,86.0
130,103.18519472083334,103.612963675,72.0,66.0
131,103.61385672083334,106.61449072083334,72.0,66.0
132,130.61956272083336,131.04822472083333,75.0,90.0
133,131.04822472083333,131.47688672083333,74.0,85.0
134,131.47688672083333,131.90554872083334,70.0,83.0
135,131.90554872083334,133.62019672083335,72.0,89.0
136,133.62019672083335,133.8577469125,67.0,72.0
137,133.83452772083334,134.04885872083335,65.0,76.0
138,134.04885872083335,134.47752072083335,63.0,65.0
139,134.47752072083335,134.90618272083336,65.0,66.0
140,134.90618272083336,135.33484472083333,70.0,79.0
141,135.33484472083333,137.47726167500002,67.0,94.0
142,137.47815472083334,138.33547872083335,67.0,106.0
143,138.33547872083335,138.76414072083335,70.0,105.0
144,138.76414072083335,138.97847172083334,67.0,95.0
145,138.97847172083334,140.47878872083334,65.0,92.0
146,140.47878872083334,140.692226675,72.0,90.0
147,140.69311972083335,140.90745072083334,72.0,90.0
148,140.90745072083334,141.36022495833333,70.0,90.0
149,141.33611272083334,141.76477472083334,72.0,91.0
150,141.76477472083334,142.19343672083335,74.0,93.0
151,142.19343672083335,142.40776772083333,70.0,64.0
152,142.40776772083333,144.33674672083333,67.0,52.0
153,144.33674672083333,144.79130705,75.0,101.0
154,144.76540872083334,145.19407072083334,74.0,94.0
155,145.19407072083334,145.63880754583334,70.0,87.0
156,145.62273272083334,147.33738072083335,72.0,91.0
157,147.33738072083335,147.59279182916669,67.0,93.0
158,147.55171172083334,147.76604272083335,65.0,84.0
159,147.76604272083335,148.19738385833335,63.0,81.0
160,148.19470472083336,148.62604585833336,65.0,73.0
161,148.62336672083336,149.05202872083333,70.0,87.0
162,149.05202872083333,150.76667672083335,67.0,95.0
163,150.76667672083335,150.98100772083333,63.0,87.0
164,150.98100772083333,151.19533872083335,65.0,86.0
165,151.19533872083335,151.623107675,67.0,89.0
166,151.62400072083335,151.83833172083334,67.0,89.0
167,151.83833172083334,152.48132472083336,70.0,90.0
168,152.48132472083336,152.92606154583333,67.0,90.0
169,152.90998672083336,153.44581422083334,65.0,87.0
170,153.44581422083334,154.19597272083334,67.0,87.0
171,154.19597272083334,154.62463472083334,70.0,90.0
172,154.62463472083334,158.48169967500002,72.0,68.0
173,158.48259272083334,158.91036167500002,72.0,103.0
174,158.91125472083334,159.33991672083334,72.0,90.0
175,159.33991672083334,159.76857872083335,75.0,93.0
176,159.76857872083335,160.19724072083335,77.0,97.0
177,160.19724072083335,160.625009675,79.0,94.0
178,160.62590272083335,161.05456472083335,79.0,97.0
179,161.05456472083335,161.91188872083336,75.0,96.0
180,161.91188872083336,162.339657675,72.0,105.0
181,162.34055072083333,162.76921272083334,72.0,93.0
182,162.76921272083334,163.19787472083334,74.0,94.0
183,163.19787472083334,163.62653672083334,72.0,96.0
184,163.62653672083334,163.84086772083336,74.0,90.0
185,163.84086772083336,164.05519872083335,72.0,87.0
186,164.05519872083335,164.48386072083335,70.0,90.0
187,164.48386072083335,165.34118472083335,67.0,91.0
188,165.34118472083335,165.768953675,72.0,98.0
189,165.76984672083336,166.19850872083336,72.0,92.0
190,166.19850872083336,166.62717072083333,75.0,97.0
191,166.62717072083333,167.05583272083334,77.0,80.0
192,167.05583272083334,167.48360167500002,79.0,62.0
193,167.48449472083334,167.91315672083334,79.0,90.0
194,167.91315672083334,168.77048072083335,75.0,97.0
195,168.77048072083335,169.19824967500003,72.0,97.0
196,169.19914272083335,169.62780472083335,72.0,95.0
197,169.62780472083335,170.06003890416667,74.0,93.0
198,170.05646672083336,170.48512872083336,72.0,87.0
199,170.48512872083336,170.70124581250002,74.0,90.0
200,170.69945972083335,170.91379072083336,72.0,84.0
201,170.91379072083336,171.34245272083334,70.0,87.0
202,171.34245272083334,172.19977672083334,67.0,67.0
203,172.19977672083334,172.413214675,77.0,87.0
204,172.41410772083336,172.62754567500002,77.0,86.0
205,172.62843872083334,173.05620767500002,77.0,90.0
206,173.05710072083335,173.48576272083335,77.0,84.0
207,173.48576272083335,173.97425879166667,74.0,77.0
208,173.91442472083335,174.34308672083336,72.0,77.0
209,174.34308672083336,174.77174872083336,70.0,89.0
210,174.77174872083336,175.62907272083334,67.0,66.0
211,175.62907272083334,175.84251067500003,77.0,95.0
212,175.84340372083335,176.05684167500002,77.0,93.0
213,176.05773472083334,176.48550367500002,77.0,87.0
214,176.48639672083334,176.91505872083334,77.0,90.0
215,176.91505872083334,177.35711640833335,74.0,95.0
216,177.34372072083335,177.77238272083335,72.0,98.0
217,177.77238272083335,178.20104472083335,70.0,90.0
218,178.20104472083335,178.62970672083335,67.0,86.0
219,178.62970672083335,179.057475675,72.0,66.0
220,179.05836872083336,182.49927431666669,72.0,66.0
221,182.5001673625,182.9279363166667,72.0,103.0
222,182.9288293625,183.3574913625,72.0,90.0
223,183.3574913625,183.78615336250002,75.0,93.0
224,183.78615336250002,184.21481536250002,77.0,97.0
225,184.21481536250002,184.64258431666667,79.0,94.0
226,184.64347736250002,185.07213936250002,79.0,97.0
227,185.07213936250002,185.9294633625,75.0,96.0
228,185.9294633625,186.35723231666668,72.0,105.0
229,186.3581253625,186.7867873625,72.0,93.0
230,186.7867873625,187.2154493625,74.0,94.0
231,187.2154493625,187.6441113625,72.0,96.0
232,187.6441113625,187.85844236250003,74.0,90.0
233,187.85844236250003,188.07277336250002,72.0,87.0
234,188.07277336250002,188.50143536250002,70.0,90.0
235,188.50143536250002,189.35875936250002,67.0,91.0
236,189.35875936250002,189.78652831666668,72.0,98.0
237,189.78742136250003,190.21608336250003,72.0,92.0
238,190.21608336250003,190.6447453625,75.0,97.0
239,190.6447453625,191.0734073625,77.0,80.0
240,191.0734073625,191.5011763166667,79.0,62.0
241,191.5020693625,191.9307313625,79.0,90.0
242,191.9307313625,192.78805536250002,75.0,97.0
243,192.78805536250002,193.21582431666667,72.0,97.0
244,193.21671736250002,193.64537936250002,72.0,95.0
245,193.64537936250002,194.07761354583334,74.0,93.0
246,194.07404136250003,194.50270336250003,72.0,87.0
247,194.50270336250003,194.7188204541667,74.0,90.0
248,194.71703436250002,194.9313653625,72.0,84.0
249,194.9313653625,195.3600273625,70.0,87.0
250,195.3600273625,196.2173513625,67.0,67.0
251,196.2173513625,196.43078931666668,77.0,87.0
252,196.43168236250003,196.6451203166667,77.0,86.0
253,196.6460133625,197.0737823166667,77.0,90.0
254,197.07467536250002,197.50333736250002,77.0,84.0
255,197.50333736250002,197.99183343333334,74.0,77.0
256,197.93199936250002,198.36066136250003,72.0,77.0
257,198.36066136250003,198.78932336250003,70.0,89.0
258,198.78932336250003,199.6466473625,67.0,66.0
259,199.6466473625,199.86008531666667,77.0,95.0
260,199.86097836250002,200.07441631666669,77.0,93.0
261,200.0753093625,200.5030783166667,77.0,87.0
262,200.5039713625,200.9326333625,77.0,90.0
263,200.9326333625,201.37469105000002,74.0,95.0
264,201.36129536250002,201.78995736250002,72.0,98.0
265,201.78995736250002,202.21861936250002,70.0,90.0
266,202.21861936250002,202.64728136250002,67.0,86.0
267,202.64728136250002,203.07505031666668,72.0,66.0
268,203.07594336250003,209.49337072083335,72.0,66.0
269,209.49337072083335,209.92203272083336,75.0,90.0
270,209.92203272083336,210.35069472083336,74.0,85.0
271,210.35069472083336,210.77935672083336,70.0,83.0
272,210.77935672083336,212.49400472083335,72.0,89.0
273,212.49400472083335,212.73155491250003,67.0,72.0
274,212.70833572083336,212.92266672083335,65.0,76.0
275,212.92266672083335,213.35132872083335,63.0,65.0
276,213.35132872083335,213.77999072083335,65.0,66.0
277,213.77999072083335,214.20865272083336,70.0,79.0
278,214.20865272083336,216.35106967500002,67.0,94.0
279,216.35196272083334,217.20928672083335,67.0,106.0
280,217.20928672083335,217.63794872083335,70.0,105.0
281,217.63794872083335,218.06661072083335,67.0,95.0
282,218.06661072083335,219.35259672083336,65.0,92.0
283,219.35259672083336,219.56603467500003,72.0,90.0
284,219.56692772083335,219.78125872083336,72.0,90.0
285,219.78125872083336,220.23403295833336,70.0,90.0
286,220.20992072083334,220.63858272083334,72.0,91.0
287,220.63858272083334,221.06724472083334,74.0,93.0
288,221.06724472083334,221.28157572083336,70.0,64.0
289,221.28157572083336,223.21055472083336,67.0,52.0
290,223.21055472083336,223.66511505000003,75.0,101.0
291,223.63921672083336,224.06787872083336,74.0,94.0
292,224.06787872083336,224.51261554583334,70.0,87.0
293,224.49654072083337,226.21118872083335,72.0,91.0
294,226.21118872083335,226.46659982916668,67.0,93.0
295,226.42551972083336,226.63985072083335,65.0,84.0
296,226.63985072083335,227.07119185833335,63.0,81.0
297,227.06851272083335,227.49985385833335,65.0,73.0
298,227.49717472083336,227.92583672083336,70.0,87.0
299,227.92583672083336,229.64048472083334,67.0,95.0
300,229.64048472083334,229.85481572083336,63.0,87.0
301,229.85481572083336,230.06914672083334,65.0,86.0
302,230.06914672083334,230.71213972083336,67.0,89.0
303,230.71213972083336,231.35513272083335,70.0,90.0
304,231.35513272083335,231.79986954583336,67.0,90.0
305,231.78379472083336,232.64111872083336,65.0,87.0
306,232.64111872083336,233.06978072083336,63.0,87.0
307,233.06978072083336,233.49754967500002,62.0,90.0
308,233.49844272083337,233.71277372083335,62.0,68.0
309,233.71277372083335,235.21309072083335,60.0,68.0
