,start,end,pitch,velocity
0,7.164906720833334,7.448002250000001,63.0,80.0
1,7.164906720833334,7.476579716666667,55.0,95.0
2,7.164906720833334,7.478365808333334,60.0,99.0
3,7.593568720833334,7.888273845833334,55.0,62.0
4,7.807899720833334,7.935605275,60.0,61.0
5,7.379237720833334,8.04812905,48.0,60.0
6,8.022230720833335,8.3883795125,63.0,78.0
7,8.022230720833335,8.439283125000001,60.0,78.0
8,8.022230720833335,8.466074500000001,55.0,85.0
9,7.164906720833334,8.718806470833334,36.0,80.0
10,8.665223720833334,8.791143183333334,55.0,58.0
11,8.450892720833334,9.0260142375,48.0,55.0
12,8.879554720833333,9.343938554166668,60.0,69.0
13,8.879554720833333,9.3582272875,63.0,82.0
14,8.879554720833333,9.3743021125,55.0,73.0
15,9.308216720833334,9.823504166666668,48.0,47.0
16,8.879554720833333,10.307535008333334,36.0,73.0
17,9.736878720833333,10.312893283333334,63.0,80.0
18,9.736878720833333,10.316465466666667,60.0,72.0
19,9.736878720833333,10.378978675,55.0,76.0
20,10.165540720833334,10.486144175000002,48.0,40.0
21,10.379871720833334,10.579913987500001,43.0,69.0
22,10.594202720833334,11.039832591666668,63.0,82.0
23,10.594202720833334,11.216655666666668,60.0,78.0
24,10.594202720833334,11.280954966666668,55.0,78.0
25,10.594202720833334,11.636387208333334,48.0,67.0
26,11.451526720833334,11.866793033333334,63.0,80.0
27,11.451526720833334,11.972172441666668,60.0,75.0
28,11.451526720833334,12.076658804166668,55.0,80.0
29,11.880188720833335,12.61337935,48.0,45.0
30,12.308850720833334,12.930410620833335,63.0,76.0
31,12.308850720833334,12.952736766666668,60.0,78.0
32,12.308850720833334,12.980421187500001,55.0,75.0
33,10.594202720833334,13.523393054166668,36.0,72.0
34,12.844678220833334,13.617162866666668,48.0,42.0
35,13.166174720833334,13.711825725,60.0,67.0
36,13.166174720833334,13.727900550000001,55.0,88.0
37,13.166174720833334,13.733258825000002,63.0,78.0
38,13.594836720833335,13.918119312500002,43.0,73.0
39,14.023498720833334,14.375358779166667,63.0,78.0
40,14.023498720833334,14.620053337500002,60.0,73.0
41,14.023498720833334,14.637021208333335,55.0,80.0
42,14.023498720833334,15.041570970833334,48.0,70.0
43,14.880822720833335,15.299661216666667,55.0,80.0
44,14.880822720833335,15.299661216666667,60.0,70.0
45,14.880822720833335,15.388072754166668,63.0,78.0
46,15.523815720833335,15.628302083333335,58.0,67.0
47,15.523815720833335,15.630088175000001,62.0,73.0
48,15.523815720833335,15.647949091666668,53.0,61.0
49,15.309484720833334,15.783692058333335,48.0,55.0
50,15.738146720833335,15.853349633333334,58.0,88.0
51,15.738146720833335,15.880141008333334,53.0,70.0
52,15.738146720833335,15.917648933333334,62.0,88.0
53,15.952477720833334,16.107867695833335,48.0,45.0
54,16.059643220833333,16.219498425,60.0,67.0
55,16.059643220833333,16.232894112500002,55.0,73.0
56,16.059643220833333,16.23468020416667,63.0,76.0
57,16.166808720833334,16.399893683333335,48.0,50.0
58,16.381139720833335,16.499914816666667,58.0,63.0
59,16.381139720833335,16.666021341666667,53.0,75.0
60,16.381139720833335,16.702636220833334,62.0,78.0
61,16.595470720833333,16.883031479166668,48.0,53.0
62,16.809801720833335,17.00359266666667,53.0,73.0
63,16.809801720833335,17.025918812500002,58.0,75.0
64,14.023498720833334,17.1036138,36.0,75.0
65,17.024132720833336,17.224174987500003,48.0,61.0
66,17.238463720833334,17.32866135,53.0,54.0
67,17.452794720833335,17.76714685416667,48.0,80.0
68,17.452794720833335,17.790366045833334,63.0,78.0
69,17.452794720833335,17.898424591666668,60.0,75.0
70,17.452794720833335,17.9153924625,55.0,88.0
71,17.881456720833334,18.46640174166667,48.0,52.0
72,18.310118720833334,18.551241095833333,58.0,70.0
73,18.310118720833334,18.5851768375,62.0,88.0
74,18.738780720833336,18.923641208333336,60.0,78.0
75,18.738780720833336,18.952218675,63.0,80.0
76,18.845946220833333,18.9924057375,48.0,20.0
77,19.167442720833336,19.28979,62.0,88.0
78,19.167442720833336,19.321046604166668,65.0,88.0
79,19.596104720833335,19.7639973375,63.0,80.0
80,19.596104720833335,19.767569520833334,67.0,75.0
81,19.810435720833336,19.97743529166667,62.0,55.0
82,19.810435720833336,20.01226407916667,65.0,66.0
83,20.024766720833334,20.206948070833334,63.0,91.0
84,19.167442720833336,20.207841116666668,48.0,72.0
85,20.024766720833334,20.25874472916667,60.0,93.0
86,17.452794720833335,20.514155837500002,36.0,76.0
87,20.453428720833337,20.656150125000003,48.0,59.0
88,20.882090720833336,21.138394875000003,55.0,76.0
89,20.882090720833336,21.139287920833336,63.0,76.0
90,20.882090720833336,21.181261075000002,60.0,69.0
91,21.310752720833335,21.601885662500003,55.0,53.0
92,20.882090720833336,21.951066583333336,48.0,80.0
93,21.739414720833334,22.285065725000003,55.0,64.0
94,21.739414720833334,22.326145833333335,63.0,69.0
95,21.739414720833334,22.366332895833335,60.0,70.0
96,22.382407720833335,22.940561366666667,48.0,43.0
97,22.811069720833334,22.993251070833335,60.0,72.0
98,22.811069720833334,23.030758995833335,55.0,73.0
99,22.811069720833334,23.261164820833336,63.0,75.0
100,23.239731720833337,23.451383583333335,48.0,45.0
101,23.454062720833335,23.8094949625,53.0,76.0
102,23.454062720833335,23.82199760416667,58.0,78.0
103,23.454062720833335,23.88897604166667,62.0,75.0
104,20.882090720833336,23.97292235,36.0,73.0
105,23.668393720833336,24.039900787500002,48.0,39.0
106,23.989890220833335,24.281916208333335,43.0,66.0
107,24.097055720833335,24.297097987500003,39.0,69.0
108,24.311386720833337,24.741834812500002,48.0,70.0
109,24.311386720833337,24.7471930875,63.0,75.0
110,24.311386720833337,24.9347327125,60.0,72.0
111,24.847214220833337,24.9347327125,63.0,24.0
112,24.311386720833337,24.936518804166667,55.0,73.0
113,24.954379720833334,25.22318651666667,48.0,35.0
114,25.168710720833335,25.479490670833336,60.0,67.0
115,25.168710720833335,25.510747275000003,55.0,67.0
116,25.168710720833335,25.61166145416667,63.0,70.0
117,25.597372720833334,25.880468250000003,48.0,44.0
118,25.811703720833336,25.936730137500003,58.0,61.0
119,25.811703720833336,26.00013639166667,53.0,61.0
120,25.811703720833336,26.121590625000003,62.0,59.0
121,26.133200220833334,26.290376287500003,48.0,35.0
122,26.240365720833335,26.54935957916667,58.0,66.0
123,26.240365720833335,26.551145670833336,53.0,58.0
124,26.883358720833336,27.18163602916667,53.0,82.0
125,24.311386720833337,27.240577054166668,36.0,67.0
126,26.669027720833334,27.26468929166667,48.0,39.0
127,27.097689720833337,27.353100829166667,55.0,61.0
128,27.312020720833335,27.462052420833334,58.0,62.0
129,27.526351720833336,27.762115820833337,60.0,48.0
130,27.740682720833334,28.0907566875,67.0,73.0
131,27.740682720833334,28.161307308333335,63.0,76.0
132,28.169344720833337,28.641765966666668,55.0,43.0
133,28.598006720833336,28.96594160416667,67.0,62.0
134,28.598006720833336,28.988267750000002,62.0,60.0
135,28.598006720833336,28.993626025,63.0,64.0
136,28.598006720833336,29.519630020833336,60.0,52.0
137,29.455330720833334,29.8777414,62.0,59.0
138,29.455330720833334,29.905425820833337,63.0,63.0
139,29.455330720833334,29.94918506666667,67.0,60.0
140,29.026668720833335,30.429643725000002,55.0,37.0
141,30.312654720833336,30.705594887500002,63.0,76.0
142,29.883992720833337,30.738637583333336,60.0,43.0
143,30.312654720833336,30.744888904166668,62.0,78.0
144,30.312654720833336,30.767215050000004,67.0,66.0
145,27.740682720833334,30.858305725,48.0,73.0
146,30.741316720833336,31.00297915,55.0,56.0
147,30.741316720833336,31.077995,65.0,70.0
148,31.169978720833335,31.865661425000003,65.0,91.0
149,31.169978720833335,31.95050077916667,62.0,80.0
150,31.169978720833335,32.405061108333335,46.0,69.0
151,31.598640720833338,32.42738725416667,53.0,53.0
152,32.02730272083333,32.52472925,58.0,61.0
153,32.455964720833336,32.69708709583334,63.0,69.0
154,32.67029572083334,32.86051448333333,65.0,66.0
155,32.88462672083334,33.419561175000005,67.0,73.0
156,32.88462672083334,33.43474295416667,63.0,73.0
157,32.88462672083334,33.46599955833334,58.0,66.0
158,33.74195072083334,33.783923875000006,63.0,43.0
159,33.313288720833334,34.1509657125,46.0,39.0
160,32.88462672083334,34.16078921666667,39.0,70.0
161,33.74195072083334,34.21973024166667,58.0,80.0
162,33.74195072083334,34.25634512083334,70.0,75.0
163,33.74195072083334,34.31260700833334,51.0,55.0
164,34.17061272083333,34.543012833333336,65.0,73.0
165,34.599274720833336,35.184219741666666,67.0,75.0
166,34.599274720833336,35.188684970833336,63.0,76.0
167,35.02793672083334,35.61288174166667,55.0,46.0
168,35.456598720833334,35.63074265833334,63.0,61.0
169,35.456598720833334,35.87454417083334,60.0,60.0
170,35.456598720833334,35.92276864583334,62.0,75.0
171,34.599274720833336,35.95402525,48.0,72.0
172,35.88526072083334,36.002249725000006,55.0,64.0
173,35.88526072083334,36.19425457916667,63.0,76.0
174,36.31392272083334,36.864932,60.0,64.0
175,36.31392272083334,36.864932,63.0,80.0
176,36.31392272083334,36.87118332083334,68.0,67.0
177,36.742584720833335,37.25429998333334,48.0,48.0
178,37.17124672083334,37.569545162500006,63.0,73.0
179,37.17124672083334,37.60437395,68.0,75.0
180,37.17124672083334,37.64098882916667,60.0,73.0
181,37.17124672083334,37.65438451666667,53.0,57.0
182,36.31392272083334,37.69010635,41.0,67.0
183,37.599908720833334,37.90533039583334,48.0,56.0
184,38.028570720833336,38.465270133333334,58.0,72.0
185,38.028570720833336,38.4697353625,63.0,73.0
186,38.028570720833336,38.67781504166667,70.0,73.0
187,38.885894720833335,39.160952837500005,63.0,95.0
188,38.67156372083333,39.195781625,58.0,52.0
189,38.028570720833336,39.22971736666667,46.0,70.0
190,39.100225720833336,39.249364375000006,65.0,63.0
191,38.45723272083334,39.255615695833335,53.0,64.0
192,39.31455672083334,39.443155320833334,65.0,40.0
193,39.31455672083334,39.756614408333334,67.0,49.0
194,39.74321872083333,40.1656294,58.0,44.0
195,39.74321872083333,40.18795554583334,62.0,57.0
196,39.74321872083333,40.20403037083334,65.0,47.0
197,39.74321872083333,40.32994983333334,43.0,69.0
198,41.45786672083334,41.81687114583334,67.0,66.0
199,41.45786672083334,41.83562510833334,70.0,63.0
200,41.88652872083334,42.08835707916667,67.0,61.0
201,41.88652872083334,42.27143147500001,74.0,76.0
202,42.315190720833336,42.47683201666667,70.0,70.0
203,42.315190720833336,42.53220085833334,65.0,67.0
204,42.315190720833336,42.81708247916667,60.0,54.0
205,42.74385272083334,42.90192183333334,72.0,72.0
206,42.74385272083334,42.9385367125,67.0,63.0
207,43.172514720833334,43.386845720833335,62.0,67.0
208,43.386845720833335,43.503834725000004,63.0,67.0
209,43.60117672083334,43.766390200000004,67.0,78.0
210,42.95818372083334,43.87980702083334,60.0,35.0
211,41.45786672083334,43.89141661666667,48.0,70.0
212,41.88652872083334,43.98786556666667,55.0,47.0
213,43.81550772083334,44.012870850000006,70.0,63.0
214,44.244169720833334,44.39509446666667,74.0,59.0
215,44.02983872083334,44.5620940375,48.0,64.0
216,44.458500720833335,44.61121155833334,55.0,63.0
217,44.458500720833335,44.63443075000001,70.0,63.0
218,44.67283172083334,45.020226550000004,65.0,51.0
219,44.88716272083334,45.40512930416667,63.0,76.0
220,45.31582472083334,45.796283379166674,53.0,51.0
221,45.744486720833336,46.09813287083334,58.0,60.0
222,45.744486720833336,46.18297222500001,65.0,76.0
223,44.88716272083334,46.22941060833334,46.0,70.0
224,45.744486720833336,46.25173675416667,62.0,85.0
225,46.17314872083334,46.300854275000006,53.0,63.0
226,46.38747972083334,46.58573589583334,63.0,73.0
227,46.494645220833334,46.64556996666667,65.0,67.0
228,46.601810720833335,47.10370247916667,67.0,72.0
229,46.601810720833335,47.12245644166667,63.0,47.0
230,46.601810720833335,47.1501408625,58.0,58.0
231,47.45913472083334,47.723476287500006,58.0,69.0
232,47.03047272083334,47.74937461666667,46.0,54.0
233,47.45913472083334,47.76366335,63.0,69.0
234,47.45913472083334,47.77437990000001,67.0,69.0
235,46.601810720833335,47.77884512916667,39.0,72.0
236,47.45913472083334,47.87082885,51.0,49.0
237,47.887796720833336,48.11641645416667,58.0,76.0
238,47.887796720833336,48.1789296625,65.0,69.0
239,48.31645872083334,48.757623362500006,60.0,72.0
240,48.31645872083334,48.851393175000005,63.0,69.0
241,48.745120720833334,49.280055175,55.0,41.0
242,49.17378272083334,49.530108008333336,60.0,55.0
243,49.17378272083334,49.537252375,67.0,70.0
244,49.17378272083334,49.633701325000004,63.0,73.0
245,48.31645872083334,49.68817712083334,48.0,64.0
246,49.60244472083334,49.707824129166674,55.0,63.0
247,50.031106720833336,50.37582241250001,60.0,69.0
248,50.031106720833336,50.414223383333336,63.0,50.0
249,50.031106720833336,50.462447858333334,68.0,91.0
250,50.031106720833336,50.6973189125,41.0,66.0
251,50.45976872083334,50.738399020833334,53.0,61.0
252,50.24543772083334,50.780372175000004,48.0,62.0
253,51.74575472083334,52.154769712500006,67.0,82.0
254,51.74575472083334,52.220855104166674,63.0,78.0
255,52.174416720833335,53.13086880833334,60.0,72.0
256,51.96008572083334,53.93639615000001,55.0,58.0
257,53.460402720833336,54.036417283333336,60.0,47.0
258,51.74575472083334,54.71155993333334,48.0,64.0
259,55.17505072083334,55.73231132083334,67.0,69.0
260,55.17505072083334,55.75999574166667,63.0,67.0
261,55.17505072083334,55.83590463750001,60.0,63.0
262,55.603712720833336,56.352085129166674,48.0,44.0
263,56.03237472083334,56.47711154583334,67.0,69.0
264,56.03237472083334,56.49586550833334,63.0,67.0
265,56.03237472083334,56.53694561666667,60.0,64.0
266,56.46103672083334,56.98971985416667,48.0,40.0
267,56.88969872083334,57.02008341250001,63.0,75.0
268,56.88969872083334,57.02722777916667,67.0,72.0
269,56.88969872083334,57.06205656666667,60.0,75.0
270,57.31836072083334,57.602349295833335,48.0,42.0
271,57.53269172083334,57.77381409583334,53.0,53.0
272,57.53269172083334,57.77649323333334,58.0,66.0
273,57.53269172083334,57.88901700833334,62.0,73.0
274,57.747022720833336,57.989931187500005,48.0,46.0
275,57.96135372083334,58.242663158333336,55.0,75.0
276,57.96135372083334,58.27302671666667,63.0,80.0
277,57.96135372083334,58.28731545000001,58.0,80.0
278,58.17568472083334,58.33196774166667,48.0,60.0
279,55.17505072083334,58.364117391666674,36.0,75.0
280,58.39001572083334,58.52129345833334,60.0,66.0
281,58.60434672083334,59.066944462500004,46.0,78.0
282,58.60434672083334,59.07855405833334,62.0,72.0
283,58.60434672083334,59.2410884,58.0,76.0
284,58.60434672083334,59.26073540833334,53.0,82.0
285,59.24733972083334,59.576873633333335,46.0,33.0
286,59.46167072083334,59.851931750000006,62.0,66.0
287,59.67600172083334,59.85907611666667,46.0,60.0
288,58.60434672083334,59.876043987500005,34.0,75.0
289,59.46167072083334,59.89211881250001,58.0,82.0
290,59.46167072083334,59.98588862500001,53.0,85.0
291,59.890332720833335,60.184144800000006,36.0,70.0
292,60.10466372083334,60.40294102916667,38.0,44.0
293,60.31899472083334,60.864645725,63.0,80.0
294,60.31899472083334,61.00574696666667,58.0,78.0
295,60.31899472083334,61.06290190000001,55.0,76.0
296,60.961987720833335,61.362965300000006,51.0,57.0
297,61.176318720833336,61.486205625000004,55.0,76.0
298,61.176318720833336,61.49245694583334,63.0,76.0
299,61.176318720833336,61.53353705416667,58.0,78.0
300,61.60498072083334,61.72286277083334,51.0,80.0
301,60.31899472083334,61.738044550000005,39.0,91.0
302,61.60498072083334,61.883611020833335,55.0,76.0
303,61.60498072083334,61.9550546875,62.0,72.0
304,62.03364272083334,62.4560534,48.0,76.0
305,62.03364272083334,62.50606396666667,63.0,76.0
306,62.03364272083334,62.61055032916667,60.0,70.0
307,62.03364272083334,62.71682278333334,55.0,73.0
308,62.67663572083334,62.96598257083334,48.0,69.0
309,62.89096672083334,63.2463989625,63.0,75.0
310,62.03364272083334,63.28837211666667,36.0,78.0
311,62.89096672083334,63.338382683333336,55.0,80.0
312,62.89096672083334,63.39017934166667,60.0,82.0
313,63.319628720833336,63.48305610833334,48.0,78.0
314,63.53395972083334,63.63398085416667,55.0,72.0
315,63.74829072083334,64.17963185833334,53.0,78.0
316,63.74829072083334,64.31984005416668,63.0,62.0
317,63.74829072083334,64.51184490833334,60.0,67.0
318,63.74829072083334,64.513631,56.0,91.0
319,64.39128372083334,64.79583348333334,53.0,55.0
320,63.74829072083334,64.840485775,48.0,60.0
321,64.60561472083334,64.97265655833334,60.0,80.0
322,64.60561472083334,65.011950575,63.0,80.0
323,64.60561472083334,65.0950038375,56.0,95.0
324,65.03427672083333,65.11732998333333,48.0,69.0
325,63.74829072083334,65.14144222083334,41.0,57.0
326,65.46293872083334,65.80229613750001,46.0,72.0
327,65.46293872083334,65.95590002083334,62.0,78.0
328,65.46293872083334,66.0487767875,53.0,85.0
329,65.46293872083334,66.15951447083334,65.0,78.0
330,65.46293872083334,66.18184061666668,58.0,97.0
331,65.99876622083333,66.44886132083334,46.0,51.0
332,66.32026272083334,66.71677507083334,65.0,63.0
333,66.32026272083334,66.73642207916667,62.0,85.0
334,66.32026272083334,66.75428299583334,58.0,97.0
335,65.46293872083334,66.75696213333335,34.0,88.0
336,66.32026272083334,66.77125086666668,53.0,85.0
337,66.74892472083334,66.8632345875,46.0,91.0
338,67.17758672083333,67.4312117375,62.0,95.0
339,67.17758672083333,67.45978920416667,55.0,85.0
340,67.17758672083333,67.47586402916667,58.0,97.0
341,67.60624872083334,67.73038209166667,55.0,95.0
342,67.39191772083333,67.9000608,50.0,72.0
343,67.82057972083334,67.93488958750001,55.0,55.0
344,67.82057972083334,68.14029012916667,65.0,91.0
345,67.82057972083334,68.14922058750001,58.0,101.0
346,68.24924172083334,68.54662598333334,55.0,97.0
347,67.17758672083333,68.55287730416667,43.0,73.0
348,68.24924172083334,68.55377035000001,62.0,101.0
349,68.46357272083334,68.55823557916668,50.0,73.0
350,68.67790372083334,68.83954501666668,60.0,72.0
351,68.78506922083334,68.902058225,62.0,69.0
352,68.89223472083334,69.41288044166667,63.0,80.0
353,68.89223472083334,69.52272507916668,58.0,93.0
354,68.89223472083334,69.5504095,55.0,88.0
355,68.89223472083334,69.73616303333334,36.0,76.0
356,69.32089672083335,69.77992227916667,43.0,55.0
357,69.74955872083333,69.91120001666667,55.0,85.0
358,69.74955872083333,69.97817845416667,58.0,82.0
359,69.74955872083333,70.02193770000001,63.0,82.0
360,69.74955872083333,70.21126341666667,48.0,73.0
361,70.17822072083334,70.60688272083334,50.0,66.0
362,70.60688272083334,71.06233609583334,51.0,67.0
363,71.03554472083334,71.52404079166668,53.0,66.0
364,71.46420672083335,71.9803872125,55.0,63.0
365,72.32153072083334,72.94666280416668,70.0,73.0
366,72.32153072083334,73.05829353333334,62.0,93.0
367,72.32153072083334,73.135095475,65.0,85.0
368,72.32153072083334,73.29405763333334,46.0,75.0
369,72.75019272083334,73.32174205416668,53.0,46.0
370,73.17885472083334,73.515533,58.0,62.0
371,73.39318572083334,73.55482701666668,62.0,91.0
372,73.60751672083335,73.87096524166667,63.0,80.0
373,74.03617872083333,74.55950357916667,58.0,93.0
374,74.03617872083333,74.581829725,63.0,73.0
375,74.03617872083333,74.603262825,67.0,64.0
376,73.82184772083333,74.60683500833333,70.0,69.0
377,74.46484072083334,74.83098951250001,55.0,61.0
378,74.67917172083334,75.0131708625,58.0,88.0
379,74.67917172083334,75.01495695416668,65.0,75.0
380,74.03617872083333,75.2114270375,51.0,78.0
381,75.10783372083334,75.36681701250001,58.0,80.0
382,75.10783372083334,75.41236235000001,62.0,99.0
383,74.89350272083334,75.43379545,55.0,69.0
384,75.53649572083334,75.68742046666668,58.0,47.0
385,75.32216472083334,75.71331879583335,50.0,76.0
386,75.75082672083335,76.16877217083334,63.0,85.0
387,75.85799222083334,76.22414101250001,60.0,53.0
388,76.17948872083333,76.6795943875,55.0,60.0
389,76.60815072083334,77.08414415,63.0,101.0
390,76.60815072083334,77.09128851666668,60.0,97.0
391,77.03681272083334,77.14129908333334,55.0,78.0
392,75.75082672083335,77.14487126666667,48.0,72.0
393,77.46547472083334,78.19866535000001,58.0,85.0
394,77.46547472083334,78.214740175,67.0,76.0
395,77.46547472083334,78.23974545833335,62.0,78.0
396,77.89413672083334,78.76932163750001,50.0,54.0
397,77.46547472083334,78.78718255416668,43.0,75.0
398,78.32279872083333,78.804150425,65.0,75.0
399,78.32279872083333,78.83451398333334,58.0,78.0
400,78.75146072083334,78.86309145000001,67.0,76.0
401,78.32279872083333,78.89613414583334,55.0,48.0
402,79.18012272083334,80.05887982083334,63.0,78.0
403,79.18012272083334,80.08388510416667,67.0,76.0
404,79.18012272083334,80.2267724375,48.0,78.0
405,80.68043972083333,80.7518833875,62.0,85.0
406,80.68043972083333,80.797428725,58.0,80.0
407,80.68043972083333,80.861728025,65.0,93.0
408,80.68043972083333,80.87780285000001,46.0,88.0
409,80.89477072083334,81.07516597916667,67.0,72.0
410,80.89477072083334,81.15286096666668,60.0,93.0
411,80.89477072083334,81.2394864125,63.0,97.0
412,80.89477072083334,81.73423380416668,48.0,76.0
413,82.60941872083335,83.02915026250001,48.0,99.0
414,82.60941872083335,83.1095243875,67.0,80.0
415,82.60941872083335,83.13006444166668,60.0,95.0
416,82.60941872083335,83.17739587083334,63.0,85.0
417,83.25241172083334,83.58105258750001,48.0,53.0
418,83.46674272083334,83.72483296666667,60.0,93.0
419,83.46674272083334,83.79806272500001,63.0,88.0
420,83.46674272083334,83.80431404583334,67.0,78.0
421,82.60941872083335,84.14456450833335,36.0,73.0
422,83.89540472083334,84.18475157083334,62.0,80.0
423,83.89540472083334,84.20350553333334,48.0,50.0
424,83.89540472083334,84.22493863333334,65.0,78.0
425,84.32406672083334,84.43480440416667,63.0,93.0
426,84.32406672083334,84.45266532083335,67.0,97.0
427,84.32406672083334,84.72861648333334,48.0,82.0
428,84.75272872083335,84.92151438333335,67.0,69.0
429,84.75272872083335,85.03493120416667,70.0,76.0
430,84.75272872083335,85.05279212083335,63.0,85.0
431,84.96705972083335,85.24926220416667,48.0,78.0
432,85.18139072083333,85.448411425,60.0,80.0
433,84.32406672083334,85.47430975416667,36.0,73.0
434,85.18139072083333,85.534143825,67.0,78.0
435,85.39572172083334,85.53503687083334,48.0,82.0
436,85.61005272083334,85.85564032500001,60.0,80.0
437,85.61005272083334,85.8797525625,65.0,70.0
438,85.82438372083334,85.93154922083335,67.0,64.0
439,86.03871472083334,86.44058534583334,67.0,85.0
440,86.03871472083334,86.51202901250001,63.0,80.0
441,86.68170772083334,86.85585165833334,62.0,85.0
442,86.89603872083335,87.013027725,63.0,88.0
443,86.25304572083334,87.22110740416667,55.0,66.0
444,87.11036972083335,87.22557263333334,65.0,67.0
445,86.46737672083334,87.42382880833334,60.0,75.0
446,86.03871472083334,87.45955064166668,48.0,78.0
447,87.53903172083334,87.7497905375,55.0,54.0
448,87.75336272083334,88.07843140416668,67.0,73.0
449,88.18202472083334,88.331163375,67.0,70.0
450,87.96769372083334,88.62944068333334,55.0,53.0
451,88.61068672083334,88.74464359583334,65.0,66.0
452,88.39635572083334,88.88038656250001,60.0,55.0
453,87.75336272083334,89.1161506625,48.0,67.0
454,88.82501772083334,89.11972284583334,55.0,62.0
455,89.03934872083335,89.12329502916667,65.0,82.0
456,89.68234172083334,89.92882237083334,65.0,26.0
457,89.68234172083334,89.94043196666668,62.0,49.0
458,90.32533472083334,90.53252135416668,62.0,93.0
459,90.53966572083334,90.65844081666667,63.0,63.0
460,90.75399672083334,90.87098572500001,65.0,46.0
461,89.46801072083333,90.913851925,48.0,69.0
462,90.11100372083334,90.967434675,60.0,72.0
463,89.89667272083334,91.07727931250001,55.0,56.0
464,91.18265872083335,91.57381279583335,74.0,80.0
465,91.61132072083335,91.73813322916668,67.0,91.0
466,91.39698972083335,92.0471270875,55.0,48.0
467,91.82565172083333,92.19626574166668,60.0,67.0
468,92.03998272083334,92.25431372083334,62.0,82.0
469,92.25431372083334,92.41506197083334,63.0,80.0
470,91.18265872083335,92.52758574583333,48.0,66.0
471,92.46864472083334,92.6365373375,65.0,88.0
472,92.46864472083334,92.69547836250001,55.0,51.0
473,93.32596872083334,93.50368484166667,62.0,88.0
474,92.68297572083334,93.60549206666667,70.0,76.0
475,93.11163772083334,93.635855625,55.0,78.0
476,93.54029972083335,93.82250220416667,63.0,80.0
477,93.75463072083335,94.13596129166667,65.0,78.0
478,92.89730672083334,94.18239967500001,48.0,70.0
479,94.18329272083334,94.49764485416668,62.0,76.0
480,93.96896172083333,94.50389617500001,55.0,64.0
481,94.39762372083334,94.85664927916667,63.0,62.0
482,94.61195472083334,95.01471839166668,67.0,75.0
483,95.04061672083334,95.33264270833334,62.0,82.0
484,94.82628572083334,95.50946578333334,55.0,75.0
485,95.25494772083334,95.56036939583335,63.0,76.0
486,95.46927872083334,95.7604116625,67.0,88.0
487,95.68360972083335,95.88275894166668,55.0,66.0
488,94.61195472083334,95.90687117916667,48.0,67.0
489,95.68360972083335,95.97384961666667,62.0,61.0
490,95.89794072083335,96.12656045416668,63.0,82.0
491,96.11227172083335,96.43019603750001,70.0,73.0
492,96.32660272083334,96.73740380416668,41.0,73.0
493,96.54093372083334,96.78205609583334,48.0,63.0
494,96.75526472083334,97.03568111250001,53.0,66.0
495,96.32660272083334,97.2017876375,68.0,91.0
496,96.96959572083334,97.49649276250001,55.0,69.0
497,97.18392672083334,97.50006494583334,56.0,88.0
498,97.39825772083334,97.66617147083335,60.0,91.0
499,97.61258872083334,97.83495713333335,63.0,52.0
500,97.82691972083335,97.92336867083334,67.0,78.0
501,98.04125072083335,98.426153475,65.0,80.0
502,98.04125072083335,98.5574312125,58.0,72.0
503,98.46991272083334,98.94679919583334,55.0,78.0
504,98.68424372083334,98.99234453333334,58.0,76.0
505,98.89857472083334,99.18345634166667,62.0,85.0
506,99.11290572083334,99.38081947083334,55.0,76.0
507,98.25558172083335,99.42279262500001,50.0,67.0
508,98.04125072083335,99.43618831250001,43.0,72.0
509,99.32723672083334,99.53085117083334,58.0,85.0
510,99.75589872083334,100.16044848333334,70.0,82.0
511,99.75589872083334,100.18366767500001,62.0,80.0
512,99.75589872083334,100.18366767500001,65.0,78.0
513,99.54156772083334,100.2988705875,63.0,70.0
514,100.18456072083335,100.71681603750001,58.0,66.0
515,100.39889172083335,100.74271436666668,62.0,97.0
516,100.82755372083334,101.05349431666667,58.0,70.0
517,100.61322272083333,101.07849960000001,65.0,95.0
518,99.97022972083334,101.15619458750001,53.0,66.0
519,99.75589872083334,101.16333895416668,46.0,73.0
520,101.04188472083334,101.30444019583334,62.0,88.0
521,101.25621572083334,101.4776910875,70.0,75.0
522,101.47054672083334,101.85366338333334,58.0,45.0
523,101.47054672083334,101.86973820833335,65.0,63.0
524,101.47054672083334,101.87777562083335,62.0,85.0
525,102.11353972083334,102.4153892125,58.0,93.0
526,101.89920872083334,102.54845304166668,55.0,88.0
527,102.32787072083335,102.60739406666667,62.0,80.0
528,102.54220172083335,102.77439363750001,65.0,64.0
529,101.47054672083334,102.78153800416668,43.0,75.0
530,101.68487772083334,102.81815288333334,50.0,70.0
531,102.75653272083335,103.07802922083334,55.0,58.0
532,102.75653272083335,103.11643019166668,70.0,73.0
533,103.18519472083334,103.55402265000001,67.0,73.0
534,103.18519472083334,103.65225769166668,63.0,82.0
535,103.82818772083334,104.07288227916668,62.0,73.0
536,104.04251872083334,104.15772163333334,63.0,76.0
537,104.25684972083334,104.54441047916667,67.0,76.0
538,104.47118072083335,104.64443161250001,72.0,72.0
539,103.61385672083334,104.6605064375,60.0,78.0
540,103.18519472083334,104.6872978125,48.0,76.0
541,103.39952572083334,104.791784175,55.0,55.0
542,104.68551172083335,104.95342547083334,75.0,69.0
543,104.89984272083335,105.05344660416668,74.0,80.0
544,105.11417372083334,105.29278288750001,72.0,78.0
545,105.32850472083334,105.48478774166668,67.0,82.0
546,105.11417372083334,105.54908704166668,55.0,46.0
547,105.54283572083334,105.72948230000002,65.0,73.0
548,105.75716672083334,105.9625672625,63.0,76.0
549,104.89984272083335,106.13135292500002,48.0,62.0
550,105.97149772083334,106.16082343750001,55.0,70.0
551,105.97149772083334,106.2519141125,62.0,82.0
552,106.18582872083334,106.42337891250001,63.0,75.0
553,106.40015972083334,106.59037848333334,65.0,64.0
554,106.61449072083334,107.23605062083334,65.0,80.0
555,106.61449072083334,107.29231250833334,70.0,75.0
556,106.61449072083334,107.31463865416667,62.0,78.0
557,106.61449072083334,107.71293709583334,58.0,82.0
558,107.47181472083334,107.7870599,65.0,78.0
559,107.47181472083334,107.80938604583335,70.0,76.0
560,107.47181472083334,107.81295822916668,62.0,76.0
561,107.90047672083334,108.28716556666667,58.0,47.0
562,108.11480772083334,108.38272147083335,60.0,66.0
563,108.11480772083334,108.41933635000001,62.0,72.0
564,108.11480772083334,108.45505818333334,65.0,75.0
565,108.54346972083334,108.92480029166667,67.0,73.0
566,108.54346972083334,109.02035619583334,62.0,73.0
567,108.97213172083335,109.23379415000001,58.0,57.0
568,109.18646272083335,109.48206089166668,62.0,95.0
569,109.18646272083335,109.48741916666667,65.0,97.0
570,109.40079372083335,109.5633280625,58.0,73.0
571,106.61449072083334,109.64102305000002,46.0,67.0
572,109.61512472083334,109.80980871250001,62.0,69.0
573,109.82945572083334,109.99288310833334,65.0,58.0
574,110.04378672083334,110.78501476250001,60.0,93.0
575,110.04378672083334,110.80734090833334,68.0,93.0
576,110.04378672083334,110.81984355000002,63.0,95.0
577,110.04378672083334,111.06811029166667,56.0,95.0
578,110.04378672083334,111.08954339166668,44.0,78.0
579,110.90111072083334,111.17438274583334,60.0,76.0
580,110.90111072083334,111.18242015833334,63.0,80.0
581,110.90111072083334,111.20653239583335,68.0,72.0
582,111.11544172083335,111.22439331250001,44.0,63.0
583,111.22260722083334,111.29047870416667,56.0,45.0
584,111.32977272083335,111.42264948750001,56.0,73.0
585,111.32977272083335,111.425328625,44.0,78.0
586,111.32977272083335,111.43247299166667,60.0,78.0
587,111.32977272083335,111.43247299166667,63.0,82.0
588,111.32977272083335,111.44140345000001,68.0,67.0
589,111.54410372083335,111.90310814583334,56.0,93.0
590,111.54410372083335,112.07814512916667,68.0,95.0
591,111.54410372083335,112.08886167916667,60.0,91.0
592,111.54410372083335,112.1085086875,63.0,95.0
593,112.07993122083334,112.23889337916668,56.0,49.0
594,112.40142772083334,112.49073230416667,56.0,48.0
595,111.54410372083335,112.54699419166667,44.0,88.0
596,112.61575872083334,112.689881525,53.0,55.0
597,112.61575872083334,112.98637274166667,60.0,88.0
598,112.61575872083334,113.0167363,63.0,91.0
599,112.61575872083334,113.1105061125,41.0,82.0
600,112.61575872083334,113.16766104583334,68.0,80.0
601,112.83008972083334,113.1855219625,53.0,78.0
602,113.04442072083334,113.279291775,60.0,73.0
603,113.47308272083335,113.93835960000001,55.0,99.0
604,113.47308272083335,114.00176585416668,65.0,95.0
605,113.47308272083335,114.08213997916667,58.0,101.0
606,113.47308272083335,114.19734289166668,62.0,101.0
607,114.11607572083334,114.33040672083334,55.0,60.0
608,113.47308272083335,114.3750590125,43.0,76.0
609,114.33040672083334,114.65636845000002,58.0,95.0
610,114.33040672083334,114.71084424583334,62.0,99.0
611,114.54473772083334,114.78496705,38.0,99.0
612,114.33040672083334,114.82336802083334,65.0,97.0
613,114.75906872083334,114.93589179583334,39.0,88.0
614,114.97339972083334,115.3743773,43.0,106.0
615,114.97339972083334,115.41456436250002,65.0,97.0
616,114.97339972083334,115.43867660000001,58.0,97.0
617,114.97339972083334,115.5056550375,62.0,99.0
618,115.61639272083335,115.7039112125,58.0,56.0
619,115.40206172083334,115.88609256250001,43.0,69.0
620,115.83072372083335,116.13525235000002,65.0,93.0
621,115.83072372083335,116.18794205416668,58.0,80.0
622,115.83072372083335,116.2183056125,62.0,88.0
623,116.25938572083334,116.4219200625,58.0,93.0
624,116.04505472083335,116.45228362083334,43.0,67.0
625,116.47371672083334,116.52194119583335,65.0,44.0
626,116.47371672083334,116.56927262500001,62.0,78.0
627,116.47371672083334,116.5719517625,43.0,78.0
628,116.90237872083334,117.30157020833335,56.0,101.0
629,116.90237872083334,117.32389635416668,63.0,91.0
630,116.90237872083334,117.46053236666668,68.0,85.0
631,116.90237872083334,117.52483166666667,60.0,93.0
632,117.54537172083334,117.88472913750002,56.0,58.0
633,117.75970272083335,118.05976612083334,60.0,80.0
634,117.75970272083335,118.1178141,63.0,85.0
635,117.75970272083335,118.12227932916667,68.0,80.0
636,116.90237872083334,118.27052493750001,44.0,82.0
637,117.97403372083335,118.28034844166667,56.0,63.0
638,118.18836472083335,118.30624677083334,60.0,63.0
639,118.40269572083335,118.68400515833335,56.0,80.0
640,118.40269572083335,118.85904214166668,68.0,93.0
641,118.40269572083335,118.87779610416668,60.0,88.0
642,118.40269572083335,118.89833615833334,63.0,93.0
643,119.04568872083334,119.16982209166667,60.0,57.0
644,118.83135772083334,119.30735115000002,56.0,99.0
645,119.26001972083334,119.55651093750001,60.0,85.0
646,119.26001972083334,119.56812053333334,63.0,88.0
647,119.26001972083334,119.56812053333334,68.0,95.0
648,119.68868172083334,119.77887935000001,63.0,60.0
649,119.68868172083334,119.80388463333334,68.0,60.0
650,119.47435072083334,119.85746738333334,56.0,93.0
651,119.68868172083334,119.87175611666667,60.0,91.0
652,118.40269572083335,119.90569185833334,44.0,85.0
653,119.90301272083335,119.9690981125,60.0,48.0
654,119.90301272083335,120.14592118750001,63.0,80.0
655,120.11734372083335,120.25397973333334,65.0,82.0
656,120.33167472083335,120.44151935833334,34.0,93.0
657,120.33167472083335,120.73533143750001,58.0,97.0
658,120.33167472083335,120.73533143750001,70.0,73.0
659,120.33167472083335,120.77194631666667,63.0,85.0
660,120.33167472083335,120.77283936250001,65.0,76.0
661,120.86750222083334,120.96663030833335,58.0,63.0
662,120.86750222083334,120.98806340833335,63.0,58.0
663,120.97466772083334,121.02467828750001,65.0,60.0
664,121.18899872083334,121.36939397916667,70.0,97.0
665,121.29616422083335,121.42833500416668,74.0,54.0
666,121.29616422083335,121.44262373750001,58.0,27.0
667,121.29616422083335,121.46852206666668,75.0,54.0
668,121.40332972083334,121.5337144125,77.0,64.0
669,121.51049522083335,121.72036099166668,82.0,67.0
670,121.61766072083334,121.79269770416667,77.0,70.0
671,121.72482622083335,121.84717350000001,75.0,64.0
672,120.97466772083334,121.85074568333334,53.0,45.0
673,121.83199172083334,121.9355850375,70.0,93.0
674,121.93915722083334,122.10079851666667,58.0,66.0
675,122.04632272083334,122.29905469166668,53.0,45.0
676,122.26065372083335,122.71967927916668,58.0,93.0
677,122.26065372083335,122.74379151666668,62.0,85.0
678,122.68931572083335,122.9375824625,53.0,88.0
679,122.90364672083335,123.20906839583334,58.0,85.0
680,122.90364672083335,123.2644372375,63.0,80.0
681,120.76033672083334,123.4412603125,46.0,72.0
682,123.33230872083334,123.44215335833334,53.0,72.0
683,123.76097072083334,124.08157417500001,58.0,78.0
684,123.76097072083334,124.2289267375,63.0,73.0
685,123.97530172083334,124.26375552500001,55.0,55.0
686,124.18963272083334,124.37985148333334,60.0,67.0
687,124.40396372083335,124.74153504583334,63.0,73.0
688,124.61829472083335,124.90764157083335,55.0,49.0
689,124.83262572083335,125.03445407916668,60.0,55.0
690,125.04695672083335,125.24521289583335,62.0,67.0
691,123.76097072083334,125.33005225000001,48.0,80.0
692,125.26128772083334,125.44257602500001,55.0,53.0
693,125.26128772083334,125.58635640416668,63.0,64.0
694,125.68994972083334,125.97751047916668,55.0,61.0
695,125.90428072083334,126.03645150416668,60.0,58.0
696,126.11861172083334,126.40081420416668,65.0,69.0
697,126.33294272083334,126.60174951666667,63.0,62.0
698,126.54727372083335,126.70623587916668,62.0,67.0
699,125.47561872083334,126.94199997916668,48.0,82.0
700,126.76160472083335,126.98397313333335,58.0,72.0
701,126.97593572083335,127.22598855416668,55.0,63.0
702,127.40459772083335,127.57963470416668,55.0,76.0
703,127.61892872083334,127.78057001666667,60.0,69.0
704,127.83325972083334,128.20030155833334,63.0,93.0
705,128.26192172083336,128.3673011291667,51.0,48.0
706,128.47625272083334,128.63968010833335,60.0,76.0
707,127.19026672083335,128.70219331666667,48.0,99.0
708,128.69058372083333,129.02279677083334,62.0,88.0
709,129.11924572083333,129.289817475,58.0,78.0
710,129.54790772083334,129.8122492875,72.0,88.0
711,129.76223872083335,129.9462061625,70.0,67.0
712,129.97656972083334,130.22394341666669,67.0,80.0
713,130.19090072083335,130.3900499416667,63.0,58.0
714,128.90491472083335,130.44899096666668,48.0,97.0
715,130.40523172083334,130.6052739875,62.0,76.0
716,130.61956272083336,131.17682332083334,67.0,69.0
717,130.61956272083336,131.20450774166667,63.0,67.0
718,130.61956272083336,131.28041663750002,60.0,63.0
719,131.04822472083333,131.79659712916668,48.0,44.0
720,131.47688672083333,131.92162354583334,67.0,69.0
721,131.47688672083333,131.94037750833334,63.0,67.0
722,131.47688672083333,131.9814576166667,60.0,64.0
723,131.90554872083334,132.43423185416668,48.0,40.0
724,132.33421072083334,132.46459541250002,63.0,75.0
725,132.33421072083334,132.47173977916668,67.0,72.0
726,132.33421072083334,132.5065685666667,60.0,75.0
727,132.76287272083334,133.04686129583334,48.0,42.0
728,132.97720372083336,133.21832609583333,53.0,53.0
729,132.97720372083336,133.22100523333336,58.0,66.0
730,132.97720372083336,133.33352900833336,62.0,73.0
731,133.19153472083335,133.43444318750002,48.0,46.0
732,133.40586572083333,133.68717515833333,55.0,75.0
733,133.40586572083333,133.71753871666667,63.0,80.0
734,133.40586572083333,133.73182745,58.0,80.0
735,133.62019672083335,133.7764797416667,48.0,60.0
736,130.61956272083336,133.80862939166667,36.0,75.0
737,133.83452772083334,133.96580545833334,60.0,66.0
738,134.04885872083335,134.5114564625,46.0,78.0
739,134.04885872083335,134.52306605833334,62.0,72.0
740,134.04885872083335,134.6856004,58.0,76.0
741,134.04885872083335,134.70524740833335,53.0,82.0
742,134.69185172083334,135.02138563333335,46.0,33.0
743,134.90618272083336,135.29644375,62.0,66.0
744,135.12051372083334,135.30358811666667,46.0,60.0
745,134.04885872083335,135.3205559875,34.0,75.0
746,134.90618272083336,135.3366308125,58.0,82.0
747,134.90618272083336,135.430400625,53.0,85.0
748,135.33484472083333,135.62865680000002,36.0,70.0
749,135.54917572083335,135.84745302916667,38.0,44.0
750,135.76350672083333,136.309157725,63.0,80.0
751,135.76350672083333,136.45025896666667,58.0,78.0
752,135.76350672083333,136.50741390000002,55.0,76.0
753,136.40649972083335,136.80747730000002,51.0,57.0
754,136.62083072083334,136.930717625,55.0,76.0
755,136.62083072083334,136.93696894583334,63.0,76.0
756,136.62083072083334,136.9780490541667,58.0,78.0
757,137.04949272083334,137.16737477083333,51.0,80.0
758,135.76350672083333,137.18255655000002,39.0,91.0
759,137.04949272083334,137.32812302083335,55.0,76.0
760,137.04949272083334,137.3995666875,63.0,72.0
761,137.47815472083334,137.9005654,48.0,76.0
762,137.47815472083334,137.9505759666667,63.0,76.0
763,137.47815472083334,138.05506232916667,60.0,70.0
764,137.47815472083334,138.16133478333336,55.0,73.0
765,138.12114772083333,138.41049457083335,48.0,69.0
766,138.33547872083335,138.6909109625,63.0,75.0
767,137.47815472083334,138.73288411666667,36.0,78.0
768,138.33547872083335,138.78289468333335,55.0,80.0
769,138.33547872083335,138.83469134166668,60.0,82.0
770,138.76414072083335,138.92756810833333,48.0,78.0
771,138.97847172083334,139.07849285416668,55.0,72.0
772,139.19280272083336,139.62414385833335,53.0,78.0
773,139.19280272083336,139.76435205416666,63.0,62.0
774,139.19280272083336,139.95635690833333,60.0,67.0
775,139.19280272083336,139.958143,56.0,91.0
776,139.83579572083335,140.24034548333336,53.0,55.0
777,139.19280272083336,140.28499777500002,48.0,60.0
778,140.05012672083333,140.41716855833334,60.0,80.0
779,140.05012672083333,140.45646257500002,63.0,80.0
780,140.05012672083333,140.5395158375,56.0,95.0
781,140.47878872083334,140.56184198333335,48.0,69.0
782,139.19280272083336,140.58595422083334,41.0,57.0
783,140.90745072083334,141.2468081375,46.0,72.0
784,140.90745072083334,141.40041202083336,62.0,78.0
785,140.90745072083334,141.4932887875,53.0,85.0
786,140.90745072083334,141.60402647083333,65.0,78.0
787,140.90745072083334,141.62635261666668,58.0,97.0
788,141.44327822083335,141.89337332083335,46.0,51.0
789,141.76477472083334,142.16128707083334,65.0,63.0
790,141.76477472083334,142.1809340791667,62.0,85.0
791,141.76477472083334,142.19879499583334,58.0,97.0
792,140.90745072083334,142.20147413333333,34.0,88.0
793,141.76477472083334,142.21576286666667,53.0,85.0
794,142.19343672083335,142.30774658750002,46.0,91.0
795,142.62209872083335,142.8757237375,62.0,95.0
796,142.62209872083335,142.90430120416667,55.0,85.0
797,142.62209872083335,142.92037602916668,58.0,97.0
798,143.05076072083335,143.1748940916667,55.0,95.0
799,142.83642972083334,143.3445728,50.0,72.0
800,143.26509172083334,143.3794015875,55.0,55.0
801,143.26509172083334,143.5848021291667,65.0,91.0
802,143.26509172083334,143.5937325875,58.0,101.0
803,143.69375372083334,143.99113798333335,55.0,97.0
804,142.62209872083335,143.9973893041667,43.0,73.0
805,143.69375372083334,143.99828235,62.0,101.0
806,143.90808472083336,144.00274757916668,50.0,73.0
807,144.12241572083335,144.28405701666668,60.0,72.0
808,144.22958122083335,144.34657022500002,62.0,69.0
809,144.33674672083333,144.8573924416667,63.0,80.0
810,144.33674672083333,144.96723707916667,58.0,93.0
811,144.33674672083333,144.9949215,55.0,88.0
812,144.33674672083333,145.18067503333336,36.0,76.0
813,144.76540872083334,145.22443427916667,43.0,55.0
814,145.19407072083334,145.35571201666667,55.0,85.0
815,145.19407072083334,145.42269045416668,58.0,82.0
816,145.19407072083334,145.4664497,63.0,82.0
817,145.19407072083334,145.65577541666667,48.0,73.0
818,145.62273272083334,146.27912140833334,50.0,66.0
819,146.05139472083334,146.50684809583333,51.0,67.0
820,146.48005672083335,146.96855279166667,53.0,66.0
821,147.33738072083335,147.41239657083335,57.0,62.0
822,146.90871872083335,147.4248992125,55.0,63.0
823,147.76604272083335,148.39117480416667,70.0,73.0
824,147.76604272083335,148.50280553333334,62.0,93.0
825,147.76604272083335,148.57960747500002,65.0,85.0
826,147.76604272083335,148.73856963333336,46.0,75.0
827,148.19470472083336,148.76625405416667,53.0,46.0
828,148.62336672083336,148.960045,58.0,62.0
829,148.83769772083335,148.99933901666668,62.0,91.0
830,149.05202872083333,149.31547724166668,63.0,80.0
831,149.48069072083334,150.0040155791667,58.0,93.0
832,149.48069072083334,150.026341725,63.0,73.0
833,149.48069072083334,150.047774825,67.0,64.0
834,149.26635972083335,150.05134700833335,70.0,69.0
835,149.90935272083334,150.2755015125,55.0,61.0
836,150.12368372083336,150.4576828625,58.0,88.0
837,150.12368372083336,150.45946895416668,65.0,75.0
838,149.48069072083334,150.65593903750002,51.0,78.0
839,150.55234572083336,150.8113290125,58.0,80.0
840,150.55234572083336,150.85687435000003,62.0,99.0
841,150.33801472083334,150.87830745000002,55.0,69.0
842,150.98100772083333,151.13193246666668,58.0,47.0
843,150.76667672083335,151.15783079583335,50.0,76.0
844,151.19533872083335,151.61328417083334,63.0,85.0
845,151.30250422083336,151.66865301250002,60.0,53.0
846,151.62400072083335,152.1241063875,55.0,60.0
847,152.05266272083335,152.52865615000002,63.0,101.0
848,152.05266272083335,152.53580051666668,60.0,97.0
849,152.48132472083336,152.58581108333334,55.0,78.0
850,151.19533872083335,152.5893832666667,48.0,72.0
851,152.90998672083336,153.64317735,58.0,85.0
852,152.90998672083336,153.659252175,67.0,76.0
853,152.90998672083336,153.68425745833335,62.0,78.0
854,153.33864872083333,154.21383363750002,50.0,54.0
855,152.90998672083336,154.23169455416667,43.0,75.0
856,153.76731072083334,154.24866242500002,65.0,75.0
857,153.76731072083334,154.27902598333336,58.0,78.0
858,154.19597272083334,154.30760345000002,67.0,76.0
859,153.76731072083334,154.34064614583335,55.0,48.0
860,154.62463472083334,155.50339182083334,63.0,78.0
861,154.62463472083334,155.5283971041667,67.0,76.0
862,154.62463472083334,155.67128443750002,48.0,78.0
863,156.12495172083334,156.19639538750002,62.0,85.0
864,156.12495172083334,156.241940725,58.0,80.0
865,156.12495172083334,156.30624002500002,65.0,93.0
866,156.12495172083334,156.32231485000003,46.0,88.0
867,156.33928272083335,156.5196779791667,67.0,72.0
868,156.33928272083335,156.59737296666668,60.0,93.0
869,156.33928272083335,156.68399841250002,63.0,97.0
870,156.33928272083335,157.17874580416668,48.0,76.0
871,158.05393072083334,158.4736622625,48.0,99.0
872,158.05393072083334,158.55403638750002,67.0,80.0
873,158.05393072083334,158.5745764416667,60.0,95.0
874,158.05393072083334,158.62190787083335,63.0,85.0
875,158.69692372083335,159.0255645875,48.0,53.0
876,158.91125472083334,159.16934496666667,60.0,93.0
877,158.91125472083334,159.24257472500003,63.0,88.0
878,158.91125472083334,159.24882604583334,67.0,78.0
879,158.05393072083334,159.58907650833333,36.0,73.0
880,159.33991672083334,159.62926357083336,62.0,80.0
881,159.33991672083334,159.64801753333336,48.0,50.0
882,159.33991672083334,159.66945063333335,65.0,78.0
883,159.76857872083335,159.87931640416667,63.0,93.0
884,159.76857872083335,159.89717732083335,67.0,97.0
885,159.76857872083335,160.17312848333336,48.0,82.0
886,160.19724072083335,160.36602638333335,67.0,69.0
887,160.19724072083335,160.47944320416667,70.0,76.0
888,160.19724072083335,160.49730412083335,63.0,85.0
889,160.41157172083334,160.6937742041667,48.0,78.0
890,160.62590272083335,160.89292342500002,60.0,80.0
891,159.76857872083335,160.9188217541667,36.0,73.0
892,160.62590272083335,160.978655825,67.0,78.0
893,160.84023372083334,160.97954887083336,48.0,82.0
894,161.05456472083335,161.30015232500003,60.0,80.0
895,161.05456472083335,161.32426456250002,65.0,70.0
896,161.26889572083334,161.37606122083335,67.0,64.0
897,161.48322672083336,161.88509734583334,67.0,85.0
898,161.48322672083336,161.95654101250003,63.0,80.0
899,162.12621972083335,162.30036365833334,62.0,85.0
900,162.34055072083333,162.457539725,63.0,88.0
901,161.69755772083334,162.66561940416668,55.0,66.0
902,162.55488172083335,162.67008463333335,65.0,67.0
903,161.91188872083336,162.86834080833336,60.0,75.0
904,161.48322672083336,162.90406264166668,48.0,78.0
905,162.87637822083335,163.19430253750002,55.0,54.0
906,163.19787472083334,163.52294340416668,67.0,73.0
907,163.62653672083334,163.77567537500002,67.0,70.0
908,163.41220572083336,164.07395268333335,55.0,53.0
909,164.05519872083335,164.18915559583334,65.0,66.0
910,163.84086772083336,164.3248985625,60.0,55.0
911,164.48386072083335,164.53922956250003,70.0,62.0
912,163.19787472083334,164.56066266250002,48.0,67.0
913,164.26952972083336,164.56423484583334,55.0,62.0
914,164.48386072083335,164.5678070291667,65.0,82.0
915,164.91252272083335,165.26616887083335,65.0,26.0
916,164.91252272083335,165.2777784666667,62.0,49.0
917,165.76984672083336,165.97703335416668,62.0,93.0
918,165.98417772083334,166.1029528166667,63.0,63.0
919,166.19850872083336,166.315497725,65.0,46.0
920,166.19850872083336,166.34943346666668,67.0,49.0
921,164.91252272083335,166.35836392500002,48.0,82.0
922,165.55551572083334,166.41194667500002,60.0,72.0
923,165.34118472083335,166.52179131250003,55.0,56.0
924,166.62717072083333,167.01832479583334,74.0,80.0
925,167.05583272083334,167.1487094875,72.0,97.0
926,167.05583272083334,167.18264522916667,67.0,91.0
927,166.84150172083335,167.4916390875,55.0,48.0
928,167.27016372083335,167.64077774166668,60.0,67.0
929,167.48449472083334,167.7854511666667,62.0,82.0
930,167.69882572083336,167.85957397083334,63.0,80.0
931,166.62717072083333,167.97209774583334,48.0,66.0
932,167.91315672083334,168.08104933750002,65.0,88.0
933,167.91315672083334,168.13999036250001,55.0,51.0
934,168.77048072083335,168.9481968416667,62.0,88.0
935,168.12748772083336,169.05000406666667,70.0,76.0
936,168.55614972083336,169.080367625,55.0,78.0
937,168.98481172083333,169.26701420416668,63.0,80.0
938,169.19914272083335,169.5804732916667,65.0,78.0
939,168.34181872083334,169.626911675,48.0,70.0
940,169.62780472083335,169.94215685416668,62.0,76.0
941,169.41347372083334,169.94840817500003,55.0,64.0
942,169.84213572083334,170.30116127916668,63.0,62.0
943,170.05646672083336,170.4592303916667,67.0,75.0
944,170.48512872083336,170.77715470833334,62.0,82.0
945,170.27079772083334,170.95397778333336,55.0,75.0
946,170.69945972083335,171.00488139583334,63.0,76.0
947,170.91379072083336,171.20492366250002,67.0,88.0
948,171.12812172083335,171.32727094166668,55.0,66.0
949,170.05646672083336,171.35138317916667,48.0,67.0
950,171.12812172083335,171.4183616166667,62.0,61.0
951,171.34245272083334,171.57107245416668,63.0,82.0
952,171.55678372083335,171.87470803750003,70.0,73.0
953,171.77111472083334,172.1819158041667,41.0,73.0
954,171.98544572083335,172.22656809583336,48.0,63.0
955,172.19977672083334,172.48019311250002,53.0,66.0
956,171.77111472083334,172.64629963750002,68.0,91.0
957,172.41410772083336,172.9410047625,55.0,69.0
958,172.62843872083334,172.94457694583335,56.0,88.0
959,172.84276972083336,173.11068347083335,60.0,91.0
960,173.05710072083335,173.27946913333335,63.0,52.0
961,173.27143172083333,173.36788067083336,67.0,78.0
962,173.48576272083335,173.870665475,65.0,80.0
963,173.48576272083335,174.0019432125,58.0,72.0
964,173.91442472083335,174.39131119583334,55.0,78.0
965,174.12875572083334,174.43685653333335,58.0,76.0
966,174.34308672083336,174.62796834166667,62.0,85.0
967,174.55741772083334,174.82533147083336,55.0,76.0
968,173.70009372083334,174.867304625,50.0,67.0
969,173.48576272083335,174.8807003125,43.0,72.0
970,174.77174872083336,174.97536317083336,58.0,85.0
971,175.20041072083336,175.60496048333334,70.0,82.0
972,175.20041072083336,175.628179675,62.0,80.0
973,175.20041072083336,175.628179675,65.0,78.0
974,175.62907272083334,176.16132803750003,58.0,66.0
975,175.84340372083335,176.1872263666667,62.0,97.0
976,176.27206572083335,176.49800631666668,58.0,70.0
977,176.05773472083334,176.52301160000002,65.0,95.0
978,175.41474172083335,176.6007065875,53.0,66.0
979,175.20041072083336,176.60785095416668,46.0,73.0
980,176.48639672083334,176.74895219583334,62.0,88.0
981,176.70072772083336,176.9222030875,70.0,75.0
982,176.91505872083334,177.29817538333336,58.0,45.0
983,176.91505872083334,177.31425020833333,65.0,63.0
984,176.91505872083334,177.32228762083335,62.0,85.0
985,177.55805172083336,177.8599012125,58.0,93.0
986,177.34372072083335,177.99296504166668,55.0,88.0
987,177.77238272083335,178.05190606666667,62.0,80.0
988,177.98671372083334,178.21890563750003,65.0,64.0
989,176.91505872083334,178.2260500041667,43.0,75.0
990,177.12938972083336,178.26266488333334,50.0,70.0
991,178.20104472083335,178.52254122083335,55.0,58.0
992,178.20104472083335,178.56094219166667,70.0,73.0
993,178.62970672083335,179.06283395000003,67.0,76.0
994,178.62970672083335,179.10837928750001,63.0,78.0
995,179.27269972083334,179.44059233750002,62.0,93.0
996,178.84403772083334,179.53168301250003,55.0,55.0
997,179.48703072083336,179.75851665416667,63.0,80.0
998,179.05836872083336,179.81209940416667,60.0,76.0
999,179.70136172083335,179.8362116416667,65.0,75.0
1000,178.62970672083335,180.00946253333336,48.0,61.0
1001,179.91569272083333,180.01660690000003,65.0,69.0
1002,179.91569272083333,180.01749994583335,55.0,67.0
1003,180.13002372083335,180.26933887083334,46.0,88.0
1004,180.13002372083335,180.29970242916667,58.0,95.0
1005,180.34435472083334,180.54261089583335,60.0,101.0
1006,180.34435472083334,180.59708669166668,48.0,101.0
1007,180.77301672083334,180.95073284166668,58.0,103.0
1008,180.77301672083334,181.02932087500002,46.0,99.0
1009,180.98734772083336,181.17667343750003,60.0,99.0
1010,180.98734772083336,181.23829360000002,48.0,95.0
1011,181.20167872083334,181.47227160833336,63.0,72.0
1012,181.20167872083334,181.49459775416668,51.0,97.0
1013,181.41600972083336,181.69196088333334,62.0,106.0
1014,181.41600972083336,181.7678697791667,50.0,97.0
1015,181.63034072083335,181.78573069583334,60.0,97.0
1016,181.63034072083335,181.9125432041667,48.0,80.0
1017,181.84467172083336,181.97684250416668,58.0,99.0
1018,181.84467172083336,182.00452692500002,46.0,76.0
1019,182.05900272083335,182.4787342625,48.0,99.0
1020,182.05900272083335,182.5591083875,67.0,80.0
1021,182.05900272083335,182.57964844166668,60.0,95.0
1022,182.05900272083335,182.62697987083334,63.0,85.0
1023,182.70199572083334,183.03063658750003,48.0,53.0
1024,182.91632672083335,183.17441696666668,60.0,93.0
1025,182.91632672083335,183.247646725,63.0,88.0
1026,182.91632672083335,183.25389804583335,67.0,78.0
1027,182.05900272083335,183.59414850833335,36.0,73.0
1028,183.34498872083336,183.63433557083334,62.0,80.0
1029,183.34498872083336,183.65308953333334,48.0,50.0
1030,183.34498872083336,183.67452263333334,65.0,78.0
1031,183.77365072083336,183.88438840416669,63.0,93.0
1032,183.77365072083336,183.90224932083336,67.0,97.0
1033,183.77365072083336,184.17820048333334,48.0,82.0
1034,184.20231272083336,184.37109838333336,67.0,69.0
1035,184.20231272083336,184.48451520416668,70.0,76.0
1036,184.20231272083336,184.50237612083336,63.0,85.0
1037,184.41664372083335,184.69884620416667,48.0,78.0
1038,184.63097472083334,184.897995425,60.0,80.0
1039,183.77365072083336,184.92389375416667,36.0,73.0
1040,184.63097472083334,184.98372782500002,67.0,78.0
1041,184.84530572083335,184.98462087083334,48.0,82.0
1042,185.05963672083334,185.305224325,60.0,80.0
1043,185.05963672083334,185.3293365625,65.0,70.0
1044,185.27396772083335,185.38113322083336,67.0,64.0
1045,185.48829872083334,185.89016934583336,67.0,85.0
1046,185.48829872083334,185.9616130125,63.0,80.0
1047,186.13129172083336,186.30543565833335,62.0,85.0
1048,186.34562272083335,186.46261172500002,63.0,88.0
1049,185.70262972083336,186.6706914041667,55.0,66.0
1050,186.55995372083336,186.67515663333336,65.0,67.0
1051,185.91696072083334,186.87341280833334,60.0,75.0
1052,185.48829872083334,186.9091346416667,48.0,78.0
1053,186.98861572083334,187.1993745375,55.0,54.0
1054,187.20294672083335,187.5280154041667,67.0,73.0
1055,187.63160872083336,187.780747375,67.0,70.0
1056,187.41727772083334,188.07902468333336,55.0,53.0
1057,188.06027072083336,188.19422759583335,65.0,66.0
1058,187.84593972083334,188.32997056250002,60.0,55.0
1059,188.48893272083336,188.5443015625,70.0,62.0
1060,188.48893272083336,188.5594833416667,72.0,70.0
1061,187.20294672083335,188.5657346625,48.0,67.0
1062,188.27460172083335,188.56930684583335,55.0,62.0
1063,188.48893272083336,188.57287902916667,65.0,82.0
1064,188.91759472083334,189.27124087083334,65.0,26.0
1065,188.91759472083334,189.28285046666667,62.0,49.0
1066,189.77491872083334,189.9821053541667,62.0,93.0
1067,189.98924972083336,190.10802481666667,63.0,63.0
1068,190.20358072083334,190.320569725,65.0,46.0
1069,190.20358072083334,190.3545054666667,67.0,49.0
1070,188.91759472083334,190.363435925,48.0,69.0
1071,189.56058772083335,190.417018675,60.0,72.0
1072,189.34625672083334,190.5268633125,55.0,56.0
1073,190.63224272083335,191.02339679583335,74.0,80.0
1074,191.06090472083335,191.15378148750003,72.0,97.0
1075,191.06090472083335,191.18771722916668,67.0,91.0
1076,190.84657372083336,191.49671108750002,55.0,48.0
1077,191.27523572083334,191.6458497416667,60.0,67.0
1078,191.48956672083335,191.79052316666667,62.0,82.0
1079,191.70389772083334,191.86464597083335,63.0,80.0
1080,190.63224272083335,191.97716974583335,48.0,66.0
1081,191.91822872083335,192.0861213375,65.0,88.0
1082,191.91822872083335,192.14506236250003,55.0,51.0
1083,192.77555272083336,192.95326884166667,62.0,88.0
1084,192.13255972083334,193.0550760666667,70.0,76.0
1085,192.56122172083334,193.08543962500002,55.0,78.0
1086,192.98988372083335,193.27208620416667,63.0,80.0
1087,193.20421472083336,193.58554529166668,65.0,78.0
1088,192.34689072083336,193.63198367500001,48.0,70.0
1089,193.63287672083334,193.9472288541667,62.0,76.0
1090,193.41854572083335,193.953480175,55.0,64.0
1091,193.84720772083335,194.3062332791667,63.0,62.0
1092,194.06153872083334,194.46430239166668,67.0,75.0
1093,194.49020072083334,194.78222670833335,62.0,82.0
1094,194.27586972083336,194.95904978333334,55.0,75.0
1095,194.70453172083336,195.00995339583335,63.0,76.0
1096,194.91886272083335,195.2099956625,67.0,88.0
1097,195.13319372083336,195.3323429416667,55.0,66.0
1098,194.06153872083334,195.3564551791667,48.0,67.0
1099,195.13319372083336,195.42343361666667,62.0,61.0
1100,195.34752472083335,195.5761444541667,63.0,82.0
1101,195.56185572083334,195.8797800375,70.0,73.0
1102,195.77618672083335,196.18698780416668,41.0,73.0
1103,195.99051772083334,196.23164009583334,48.0,63.0
1104,196.20484872083335,196.48526511250003,53.0,66.0
1105,195.77618672083335,196.6513716375,68.0,91.0
1106,196.41917972083334,196.9460767625,55.0,69.0
1107,196.63351072083336,196.94964894583336,56.0,88.0
1108,196.84784172083334,197.11575547083336,60.0,91.0
1109,197.06217272083336,197.28454113333336,63.0,52.0
1110,197.27650372083335,197.37295267083334,67.0,78.0
1111,197.49083472083336,197.87573747500002,65.0,80.0
1112,197.49083472083336,198.00701521250002,58.0,72.0
1113,197.91949672083334,198.39638319583335,55.0,78.0
1114,198.13382772083335,198.44192853333334,58.0,76.0
1115,198.34815872083334,198.63304034166669,62.0,85.0
1116,198.56248972083336,198.83040347083335,55.0,76.0
1117,197.70516572083335,198.87237662500002,50.0,67.0
1118,197.49083472083336,198.88577231250002,43.0,72.0
1119,198.77682072083334,198.98043517083335,58.0,85.0
1120,198.99115172083336,199.20548272083334,63.0,70.0
1121,199.20548272083334,199.61003248333336,70.0,82.0
1122,199.20548272083334,199.63325167500003,62.0,80.0
1123,199.20548272083334,199.63325167500003,65.0,78.0
1124,199.63414472083335,200.1664000375,58.0,66.0
1125,199.84847572083336,200.19229836666668,62.0,97.0
1126,200.27713772083334,200.5030783166667,58.0,70.0
1127,200.06280672083335,200.52808360000003,65.0,95.0
1128,199.41981372083336,200.60577858750003,53.0,66.0
1129,199.20548272083334,200.6129229541667,46.0,73.0
1130,200.49146872083335,200.75402419583335,62.0,88.0
1131,200.70579972083334,200.92727508750002,70.0,75.0
1132,200.92013072083336,201.30324738333334,58.0,45.0
1133,200.92013072083336,201.31932220833335,65.0,63.0
1134,200.92013072083336,201.32735962083336,62.0,85.0
1135,201.56312372083335,201.86497321250002,58.0,93.0
1136,201.34879272083336,201.9980370416667,55.0,88.0
1137,201.77745472083336,202.0569780666667,62.0,80.0
1138,201.99178572083335,202.2239776375,65.0,64.0
1139,200.92013072083336,202.23112200416668,43.0,75.0
1140,201.13446172083334,202.26773688333336,50.0,70.0
1141,202.20611672083336,202.52761322083336,55.0,58.0
1142,202.20611672083336,202.56601419166668,70.0,73.0
1143,202.63477872083334,203.05361721666668,67.0,72.0
1144,202.63477872083334,203.13309829583335,63.0,73.0
1145,203.06344072083334,203.57783512083336,55.0,55.0
1146,203.49210272083334,203.8716472,62.0,80.0
1147,202.63477872083334,203.96898919583336,48.0,75.0
1148,203.49210272083334,203.97256137916668,60.0,58.0
1149,203.92076472083335,203.9993527541667,63.0,70.0
1150,203.92076472083335,204.3217423,55.0,56.0
1151,204.13509572083336,204.35657108750001,67.0,76.0
1152,204.34942672083335,204.57626036250002,75.0,61.0
1153,204.56375772083334,204.712896375,74.0,58.0
1154,204.77808872083335,204.94508829166668,72.0,63.0
1155,204.99241972083334,205.162991475,70.0,58.0
1156,205.20675072083336,205.3817877041667,67.0,75.0
1157,204.34942672083335,205.52288894583336,48.0,61.0
1158,205.42108172083334,205.59522565833336,65.0,57.0
1159,205.63541272083336,205.80866361250003,63.0,54.0
1160,205.84974372083335,205.97477013750003,62.0,55.0
1161,206.06407472083336,206.36771030416668,60.0,78.0
1162,206.27840572083335,206.63294491666667,62.0,49.0
1163,206.70706772083335,206.89550039166667,58.0,69.0
1164,206.49273672083336,207.00177284583336,53.0,56.0
1165,206.92139872083334,207.19645683750002,62.0,78.0
1166,207.35006072083334,207.46794277083336,58.0,56.0
1167,207.35006072083334,207.51348810833335,65.0,69.0
1168,207.13572972083335,207.65280325833336,53.0,52.0
1169,207.56439172083336,207.90642827500002,58.0,69.0
1170,207.56439172083336,208.05556692916667,70.0,82.0
1171,207.99305372083336,208.41278526250002,58.0,67.0
1172,207.99305372083336,208.41635744583334,65.0,75.0
1173,208.63604672083335,208.89503001250003,58.0,76.0
1174,208.42171572083336,209.00398160416668,53.0,58.0
1175,208.85037772083336,209.04863389583335,65.0,61.0
1176,206.06407472083336,209.07006699583334,46.0,55.0
1177,209.06470872083335,209.37280953333334,70.0,72.0
1178,209.49337072083335,209.97829460833336,60.0,67.0
1179,209.49337072083335,210.03634258750003,67.0,69.0
1180,209.49337072083335,210.04080781666667,63.0,70.0
1181,210.35069472083336,210.80346895833335,62.0,58.0
1182,210.77935672083336,210.8561586625,63.0,70.0
1183,211.63668072083334,211.81707597916667,67.0,47.0
1184,211.63668072083334,211.9224553875,75.0,56.0
1185,212.06534272083334,212.17340126666667,74.0,64.0
1186,212.06534272083334,212.21001614583335,65.0,59.0
1187,210.35069472083336,212.41095145833336,60.0,52.0
1188,209.49337072083335,212.58063016666668,48.0,70.0
1189,212.49400472083335,212.59045367083334,63.0,64.0
1190,210.02919822083336,212.5949189,55.0,43.0
1191,212.49400472083335,212.60117022083335,72.0,62.0
1192,212.92266672083335,213.2986390166667,77.0,66.0
1193,213.35132872083335,213.76212980416668,74.0,70.0
1194,212.92266672083335,213.87286748750003,46.0,70.0
1195,213.35132872083335,213.90680322916668,53.0,49.0
1196,213.77999072083335,214.11934813750003,70.0,78.0
1197,213.77999072083335,214.45691946250003,58.0,50.0
1198,214.20865272083336,214.72036798333335,67.0,62.0
1199,214.63731472083336,215.00614265000002,75.0,72.0
1200,215.06597672083336,215.386580175,77.0,70.0
1201,215.49463872083336,215.56251020416667,75.0,29.0
1202,215.49463872083336,215.76969683750002,79.0,61.0
1203,215.38747322083336,215.82238654166667,70.0,36.0
1204,215.49463872083336,215.8929371625,63.0,50.0
1205,214.63731472083336,215.93580336250002,51.0,64.0
1206,215.06597672083336,215.965273875,58.0,48.0
1207,216.35196272083334,216.75115420833336,67.0,67.0
1208,216.35196272083334,216.7663359875,63.0,67.0
1209,216.78062472083334,217.08336725833334,62.0,54.0
1210,216.78062472083334,217.10122817500002,65.0,67.0
1211,217.20928672083335,217.4379064541667,60.0,58.0
1212,216.35196272083334,217.50309880000003,48.0,50.0
1213,216.78062472083334,217.52631799166667,55.0,48.0
1214,217.20928672083335,217.56203982500003,67.0,66.0
1215,217.20928672083335,217.6254460791667,63.0,63.0
1216,217.63794872083335,218.05857330833337,70.0,78.0
1217,218.06661072083335,218.87481720000002,63.0,62.0
1218,218.06661072083335,218.89267811666667,60.0,62.0
1219,218.06661072083335,218.91768340000002,68.0,69.0
1220,218.06661072083335,219.27400868750001,41.0,64.0
1221,218.49527272083336,219.28293914583335,48.0,45.0
1222,218.92393472083336,219.40975165416668,53.0,50.0
1223,219.78125872083336,220.1545518791667,58.0,59.0
1224,219.78125872083336,220.18491543750002,62.0,63.0
1225,219.78125872083336,220.49033711250001,65.0,63.0
1226,220.63858272083334,220.94668353333336,58.0,50.0
1227,219.78125872083336,220.9556139916667,46.0,64.0
1228,220.20992072083334,221.01098283333334,53.0,53.0
1229,221.49590672083335,221.89241907083334,58.0,67.0
1230,221.49590672083335,221.9656488291667,65.0,73.0
1231,221.49590672083335,222.0433438166667,43.0,73.0
1232,221.92456872083335,222.11478748333334,50.0,54.0
1233,222.13889972083336,222.4407492125,55.0,53.0
1234,222.35323072083335,222.67919245000002,57.0,64.0
1235,222.56756172083334,222.69258813750002,58.0,67.0
1236,222.78189272083335,223.01765682083337,60.0,60.0
1237,222.99622372083334,223.5945644291667,67.0,63.0
1238,223.21055472083336,223.60438793333336,63.0,69.0
1239,223.63921672083336,224.1411084791667,62.0,64.0
1240,223.21055472083336,224.39919872500002,48.0,67.0
1241,224.06787872083336,224.54565824166667,63.0,75.0
1242,224.06787872083336,224.55905392916668,60.0,57.0
1243,223.63921672083336,224.75373792083334,55.0,48.0
1244,224.49654072083337,224.80642762500003,67.0,60.0
1245,225.35386472083334,225.57355399583335,67.0,64.0
1246,225.35386472083334,225.84414688333337,75.0,73.0
1247,225.78252672083335,226.04329610416667,65.0,62.0
1248,225.78252672083335,226.10402322083334,74.0,70.0
1249,225.78252672083335,226.17100165833335,60.0,53.0
1250,225.35386472083334,226.2236913625,55.0,48.0
1251,224.92520272083334,226.24780360000003,48.0,52.0
1252,226.21118872083335,226.44695282083336,72.0,64.0
1253,226.42551972083336,226.67378646250003,70.0,60.0
1254,226.63985072083335,226.67378646250003,70.0,75.0
1255,226.63985072083335,227.0024273291667,65.0,73.0
1256,226.63985072083335,227.0801223166667,62.0,72.0
1257,227.49717472083336,227.79902421250003,63.0,72.0
1258,226.63985072083335,227.82313645000002,46.0,75.0
1259,227.49717472083336,227.8311738625,67.0,70.0
1260,227.06851272083335,227.8436765041667,53.0,49.0
1261,227.49717472083336,228.06336577916667,58.0,55.0
1262,228.24733322083335,228.4464824416667,67.0,45.0
1263,228.35449872083336,228.6876048166667,70.0,49.0
1264,228.35449872083336,229.09215457916667,75.0,75.0
1265,229.21182272083334,229.33684913750002,72.0,70.0
1266,229.21182272083334,229.36721269583336,67.0,63.0
1267,229.21182272083334,229.53778445000003,63.0,52.0
1268,228.35449872083336,229.61190725416668,51.0,72.0
1269,228.89032622083334,229.6253029416667,58.0,52.0
1270,229.64048472083334,229.71460752500002,70.0,64.0
1271,229.64048472083334,229.74765022083335,65.0,64.0
1272,230.06914672083334,230.636230825,67.0,72.0
1273,230.06914672083334,230.6862413916667,63.0,82.0
1274,230.92647072083335,231.14705304166668,60.0,54.0
1275,230.06914672083334,231.2551115875,48.0,72.0
1276,230.49780872083335,231.2551115875,55.0,53.0
1277,230.92647072083335,231.28190296250003,65.0,70.0
1278,230.92647072083335,231.30154997083335,62.0,69.0
1279,231.35513272083335,231.44979557916668,67.0,62.0
1280,231.78379472083336,232.58932206250003,58.0,63.0
1281,231.78379472083336,232.68487796666668,62.0,69.0
1282,231.78379472083336,232.8250861625,67.0,60.0
1283,232.21245672083336,233.07871117916667,50.0,46.0
1284,232.64111872083336,233.11264692083336,55.0,69.0
1285,231.78379472083336,233.13229392916668,43.0,69.0
1286,233.06978072083336,233.21177500833335,58.0,69.0
1287,233.49844272083337,233.9342490875,67.0,72.0
1288,233.49844272083337,234.10482084166668,63.0,73.0
1289,234.35576672083334,236.38387380833336,60.0,49.0
1290,233.49844272083337,236.5106863166667,48.0,64.0
1291,233.92710472083334,236.54640815000002,55.0,52.0
1292,236.92773872083336,237.24923522083336,44.0,62.0
1293,237.35640072083336,237.78416967500002,39.0,64.0
1294,237.35640072083336,237.8020305916667,51.0,64.0
1295,237.78506272083337,237.91812655,56.0,66.0
1296,237.78506272083337,238.24587437083335,46.0,66.0
1297,238.21372472083334,239.39254522083334,44.0,67.0
1298,239.49971072083335,239.79262975416668,63.0,67.0
1299,239.49971072083335,240.22754307500003,39.0,67.0
1300,240.35703472083335,240.92054664166668,65.0,65.0
1301,240.78569672083336,241.16792033750002,62.0,64.0
1302,241.00002772083334,241.35188777916667,65.0,64.0
1303,241.75018622083334,242.28512067500003,62.0,40.0
1304,240.35703472083335,243.0611775041667,55.0,65.0
1305,240.35703472083335,243.25050322083337,43.0,65.0
1306,244.32215822083336,244.90085192083336,55.0,32.0
1307,244.75082022083336,245.09285677500003,62.0,44.0
1308,244.75082022083336,245.2527119791667,63.0,48.0
1309,244.75082022083336,245.28396858333335,67.0,48.0
1310,245.39381322083335,246.44939339583334,55.0,43.0
1311,244.75082022083336,246.47975695416667,60.0,41.0
1312,243.78633072083335,246.5261953375,48.0,67.0
