,start,end,pitch,velocity
0,27.37548789166667,27.76364594166667,75.0,95.0
1,27.77022489166667,29.076474891666667,83.0,95.0
2,28.89522489166667,29.263974891666667,75.0,86.0
3,29.27022489166667,30.479684633333335,82.0,94.0
4,30.48644139166667,30.885090133333335,78.0,84.0
5,30.891846891666667,31.301568458333332,80.0,91.0
6,31.308512891666666,31.718234458333335,78.0,93.0
7,31.725178891666665,32.129288083333336,76.0,91.0
8,32.136137391666665,34.05065664166666,78.0,95.0
9,34.057066891666665,34.472559149999995,76.0,95.0
10,34.47960139166666,34.89509365,75.0,95.0
11,34.90213589166667,35.335958958333336,76.0,90.0
12,35.343311891666666,36.877510941666664,80.0,98.0
13,36.88332489166667,37.22634794166667,78.0,86.0
14,37.232161891666664,39.95568039166666,75.0,95.0
15,39.962173891666666,40.54009539166666,75.0,91.0
16,40.546588891666666,41.70892539166666,83.0,95.0
17,41.715418891666666,42.098535391666665,75.0,95.0
18,42.10502889166666,43.282897633333334,82.0,98.0
19,43.289654391666666,43.688303133333335,78.0,90.0
20,43.695059891666666,44.08321794166667,80.0,91.0
21,44.089796891666666,44.47795494166667,78.0,90.0
22,44.484533891666665,44.67532344166666,76.0,98.0
23,44.68190239166667,44.872691941666666,78.0,75.0
24,44.879270891666664,46.83682764166666,78.0,93.0
25,46.84323789166666,47.247347083333324,80.0,84.0
26,47.25419639166666,47.65830558333333,80.0,95.0
27,47.66515489166666,48.06926408333333,80.0,98.0
28,48.07611339166666,49.280405224999996,79.0,101.0
29,49.287071891666656,49.88040522499999,80.0,94.0
30,49.88707189166666,52.44989164166666,80.0,84.0
31,52.45630189166666,52.82505189166666,71.0,98.0
32,52.83130189166666,53.20005189166666,73.0,94.0
33,53.20630189166666,53.64660020833333,75.0,95.0
34,53.65406289166666,54.09436120833333,75.0,98.0
35,54.10182389166666,54.48494039166666,75.0,104.0
36,54.49143389166666,55.674377225,75.0,103.0
37,55.68104389166666,56.074377225,73.0,94.0
38,56.28104389166666,59.07183344166666,73.0,95.0
39,58.881043891666664,59.07183344166666,73.0,93.0
40,59.27578089166666,59.663938941666665,75.0,90.0
41,59.67051789166666,60.058675941666664,76.0,98.0
42,60.06525489166666,60.45341294166666,76.0,100.0
43,60.45999189166666,60.84814994166666,76.0,101.0
44,60.85472889166667,61.63762394166666,76.0,100.0
45,61.644202891666666,62.03236094166667,75.0,90.0
46,62.038939891666665,62.427097941666666,71.0,90.0
47,62.433676891666664,65.69338445833333,75.0,84.0
48,65.70032889166667,65.90171745833334,71.0,90.0
49,65.90866189166667,66.11005045833333,71.0,90.0
50,66.11699489166666,66.510328225,80.0,94.0
51,66.51699489166667,66.910328225,80.0,91.0
52,66.91699489166666,67.31032822499999,80.0,95.0
53,67.31699489166667,68.110328225,80.0,94.0
54,68.11699489166666,68.510328225,78.0,84.0
55,68.51699489166667,68.910328225,76.0,91.0
56,68.91699489166666,69.710328225,78.0,84.0
57,69.71699489166666,70.110328225,78.0,86.0
58,70.11699489166666,70.50515294166667,76.0,98.0
59,70.51173189166667,72.47883794166667,75.0,95.0
60,72.48541689166666,72.87357494166666,73.0,98.0
61,72.88015389166667,73.26831194166667,73.0,95.0
62,73.27489089166666,73.66304894166666,73.0,90.0
63,73.66962789166666,74.45252294166666,73.0,98.0
64,74.45910189166666,74.84725994166666,75.0,98.0
65,74.85383889166667,75.43936544166667,76.0,94.0
66,75.44594439166667,78.06998545833333,75.0,95.0
67,78.07692989166667,78.47557863333333,71.0,106.0
68,78.48233539166667,78.88098413333333,73.0,95.0
69,78.88774089166667,79.28638963333333,75.0,91.0
70,79.29314639166667,79.69179513333333,75.0,104.0
71,79.69855189166667,80.09720063333333,75.0,104.0
72,80.10395739166667,80.91347208333333,75.0,108.0
73,80.92032139166668,81.32443058333334,76.0,95.0
74,81.33127989166667,81.73538908333333,78.0,84.0
75,81.74223839166667,82.14634758333334,75.0,101.0
76,82.15319689166667,84.47556594166667,73.0,95.0
77,84.48214489166666,84.875478225,73.0,84.0
78,84.88214489166667,85.275478225,75.0,98.0
79,85.28214489166666,85.67547822499999,76.0,101.0
80,85.68214489166667,86.075478225,76.0,100.0
81,86.08214489166666,86.475478225,76.0,101.0
82,86.48214489166666,87.275478225,80.0,106.0
83,87.28214489166666,87.67547822499999,82.0,90.0
84,87.68214489166667,88.075478225,83.0,84.0
85,88.08214489166666,88.475478225,82.0,94.0
86,88.48214489166666,91.275478225,80.0,91.0
87,91.28214489166666,91.475478225,80.0,80.0
88,91.48214489166666,91.67547822499999,82.0,82.0
89,91.68214489166667,92.075478225,83.0,84.0
90,92.08214489166666,92.475478225,83.0,83.0
91,92.48214489166666,92.875478225,83.0,82.0
92,92.88214489166667,93.67547822499999,83.0,84.0
93,93.68214489166667,94.075478225,82.0,84.0
94,94.08214489166667,94.475478225,80.0,84.0
95,94.48214489166666,95.275478225,78.0,78.0
96,95.28214489166666,95.67547822499999,78.0,80.0
97,95.68214489166667,96.075478225,76.0,84.0
98,96.08214489166667,97.875478225,75.0,82.0
99,97.88214489166667,98.075478225,71.0,79.0
100,98.08214489166667,98.475478225,80.0,84.0
101,98.48214489166666,98.875478225,80.0,78.0
102,98.88214489166667,99.275478225,80.0,80.0
103,99.28214489166666,100.075478225,80.0,82.0
104,100.08214489166667,100.475478225,82.0,84.0
105,100.48214489166666,100.875478225,83.0,86.0
106,100.88214489166667,104.475478225,82.0,90.0
107,136.08395539166665,136.4880645833333,75.0,95.0
108,136.49491389166667,137.9264193333333,83.0,95.0
109,137.72778939166665,138.1318985833333,75.0,86.0
110,138.13874789166667,139.31637994166667,82.0,94.0
111,139.32295889166667,139.71111694166666,78.0,84.0
112,139.71769589166666,140.10585394166668,80.0,91.0
113,140.11243289166666,140.50059094166667,78.0,93.0
114,140.50716989166668,140.89532794166666,76.0,91.0
115,141.09927539166668,143.07153788333332,78.0,95.0
116,142.87559189166666,143.27424063333333,76.0,95.0
117,143.28099739166666,143.67964613333334,75.0,95.0
118,143.68640289166666,144.08505163333334,76.0,90.0
119,145.30802489166666,145.70667363333334,78.0,86.0
120,144.09180839166666,145.70667363333334,80.0,98.0
121,145.71343039166666,148.281399225,75.0,95.0
122,148.88806589166666,149.481399225,75.0,91.0
123,149.28806589166666,150.481399225,83.0,95.0
124,150.48806589166665,150.881399225,85.0,95.0
125,150.88806589166666,152.08139922499998,82.0,98.0
126,152.08806589166664,152.481399225,78.0,90.0
127,152.48806589166665,152.881399225,80.0,91.0
128,152.88806589166666,153.281399225,78.0,90.0
129,153.28806589166666,153.481399225,76.0,98.0
130,153.48806589166665,153.68139922499998,78.0,75.0
131,153.68806589166667,155.68139922499998,78.0,93.0
132,155.68806589166667,156.08139922499998,80.0,84.0
133,156.08806589166664,156.481399225,80.0,95.0
134,156.48806589166665,156.881399225,80.0,98.0
135,156.88806589166666,158.08139922499998,79.0,101.0
136,158.08806589166664,158.68139922499998,80.0,94.0
137,158.48806589166665,158.68139922499998,80.0,84.0
138,161.28806589166666,161.68139922499998,71.0,98.0
139,161.68806589166667,162.08139922499998,73.0,94.0
140,162.08806589166664,162.481399225,75.0,95.0
141,162.48806589166665,162.881399225,75.0,98.0
142,162.88806589166666,163.281399225,75.0,104.0
143,163.28806589166666,164.481399225,75.0,103.0
144,164.48806589166665,164.881399225,73.0,94.0
145,165.08806589166664,167.881399225,73.0,95.0
146,167.68806589166667,167.881399225,73.0,93.0
147,168.08806589166664,168.481399225,75.0,90.0
148,168.48806589166665,168.881399225,76.0,98.0
149,168.88806589166666,169.281399225,76.0,100.0
150,169.28806589166666,169.681399225,76.0,101.0
151,169.68806589166667,170.481399225,76.0,100.0
152,170.48806589166665,170.881399225,75.0,90.0
153,170.88806589166666,171.281399225,73.0,90.0
154,171.28806589166666,174.481399225,75.0,84.0
155,174.48806589166665,174.681399225,71.0,90.0
156,174.68806589166667,174.881399225,71.0,90.0
157,174.88806589166666,175.281399225,80.0,94.0
158,175.28806589166666,175.681399225,80.0,91.0
159,175.68806589166667,176.08139922499998,80.0,95.0
160,176.08806589166664,176.881399225,80.0,94.0
161,176.88806589166666,177.281399225,78.0,84.0
162,177.28806589166666,177.681399225,76.0,91.0
163,177.68806589166667,178.481399225,78.0,84.0
164,178.48806589166665,178.881399225,78.0,86.0
165,178.88806589166666,179.281399225,76.0,98.0
166,179.28806589166666,181.281399225,75.0,95.0
167,181.28806589166666,181.681399225,73.0,98.0
168,181.68806589166667,182.08139922499998,73.0,95.0
169,182.08806589166664,182.481399225,73.0,90.0
170,182.48806589166665,183.281399225,73.0,98.0
171,183.28806589166666,183.681399225,75.0,98.0
172,183.68806589166667,184.281399225,76.0,94.0
173,184.28806589166666,186.881399225,75.0,95.0
174,186.88806589166666,187.281399225,71.0,106.0
175,187.28806589166666,187.681399225,73.0,95.0
176,187.68806589166667,188.08139922499998,75.0,91.0
177,188.08806589166664,188.481399225,75.0,104.0
178,188.48806589166665,188.881399225,75.0,104.0
179,188.88806589166666,189.681399225,75.0,108.0
180,189.68806589166667,190.08139922499998,76.0,95.0
181,190.08806589166664,190.481399225,78.0,84.0
182,190.48806589166665,190.881399225,75.0,101.0
183,190.88806589166666,193.281399225,73.0,95.0
184,193.28806589166666,193.681399225,73.0,84.0
185,193.68806589166667,194.08139922499998,75.0,98.0
186,194.08806589166664,194.481399225,76.0,101.0
187,194.48806589166665,194.881399225,76.0,100.0
188,194.88806589166666,195.281399225,76.0,101.0
189,195.28806589166666,196.08139922499998,80.0,106.0
190,196.08806589166664,196.481399225,82.0,90.0
191,196.48806589166665,196.881399225,83.0,84.0
192,196.88806589166666,197.281399225,82.0,94.0
193,197.28806589166666,200.08139922499998,80.0,91.0
194,200.08806589166664,200.281399225,80.0,80.0
195,200.28806589166666,200.481399225,82.0,82.0
196,200.48806589166665,200.881399225,83.0,84.0
197,200.88806589166666,201.281399225,83.0,83.0
198,201.28806589166666,201.681399225,83.0,82.0
199,201.68806589166667,202.481399225,83.0,84.0
200,202.48806589166665,202.881399225,82.0,84.0
201,202.88806589166666,203.281399225,80.0,84.0
202,203.28806589166666,204.08139922499998,78.0,78.0
203,204.08806589166664,204.481399225,78.0,80.0
204,204.48806589166665,204.881399225,76.0,84.0
205,204.88806589166666,206.681399225,75.0,82.0
206,206.68806589166667,206.881399225,71.0,79.0
207,206.88806589166666,207.281399225,80.0,84.0
208,207.28806589166666,207.681399225,80.0,78.0
209,207.68806589166667,208.08139922499998,80.0,80.0
210,208.08806589166664,208.881399225,80.0,82.0
211,208.88806589166666,209.281399225,82.0,84.0
212,209.28806589166666,209.681399225,83.0,86.0
213,212.52049889166665,212.8684719458333,75.0,90.0
214,212.92590439166665,213.2688098770833,76.0,86.0
215,209.68806589166667,213.32455313333332,82.0,90.0
216,213.33130989166665,213.64130989166665,78.0,91.0
217,213.73130989166665,214.009643225,78.0,84.0
218,214.13130989166666,214.43630989166664,78.0,91.0
219,214.53130989166664,215.18964322499997,78.0,93.0
220,215.33130989166665,215.639643225,76.0,91.0
221,215.73130989166665,216.04821076666664,75.0,86.0
222,216.15384439166667,216.61335066041664,80.0,90.0
223,216.57637889166665,217.61836550624997,78.0,84.0
224,219.03283889166667,219.50158907916665,75.0,94.0
225,219.42757589166666,219.80422077916666,78.0,83.0
226,219.82231289166666,220.1251292833333,80.0,90.0
227,220.24484739166667,220.52829761875,80.0,95.0
228,220.66738189166665,220.9393414145833,80.0,91.0
229,221.07278739166665,221.75690917291666,80.0,98.0
230,221.88359839166665,222.2450849625,82.0,90.0
231,222.28900389166665,222.95961215625,83.0,95.0
232,223.09981489166665,223.47819335833333,82.0,91.0
233,223.50522039166665,225.50522085833333,80.0,94.0
234,225.93765339166666,226.20116696666665,80.0,82.0
235,226.14035614166664,226.33123456458333,82.0,82.0
236,226.34305889166666,226.61164003541666,83.0,83.0
237,226.74846439166666,226.99677526041665,83.0,90.0
238,227.15386989166666,227.4004915708333,83.0,86.0
239,227.55927539166666,228.2467755520833,83.0,91.0
240,228.37008639166666,228.6927216020833,82.0,90.0
241,228.77549189166666,229.17582982291665,80.0,84.0
242,229.18089739166666,230.2332625020833,78.0,90.0
243,229.99170839166666,230.2332625020833,78.0,83.0
244,230.39711389166666,230.82785723541664,80.0,90.0
245,230.80251939166666,232.491708975,75.0,91.0
246,232.82954689166667,233.097880225,80.0,83.0
247,233.22954689166667,233.532880225,80.0,90.0
248,233.62954689166668,233.88454689166667,80.0,80.0
249,234.02954689166666,234.78454689166668,80.0,90.0
250,234.82954689166667,235.12621355833335,82.0,91.0
251,235.22954689166667,235.467880225,83.0,91.0
252,235.62954689166668,238.45488854583334,82.0,98.0
253,238.86242239166668,239.38468215208334,75.0,69.0
254,239.27338089166668,240.57646180208334,83.0,82.0
255,240.50625639166668,240.98913262916668,75.0,68.0
256,240.91721489166667,242.20830951250002,82.0,84.0
257,242.15009039166668,242.51481606041668,78.0,75.0
258,242.56104889166667,242.94461015833335,80.0,73.0
259,242.97200739166666,243.3521440041667,78.0,73.0
260,243.3829658916667,243.58844514166668,76.0,78.0
261,243.58844514166668,243.79392439166668,78.0,78.0
262,243.79392439166668,244.47371824375,78.0,73.0
263,245.84871689166667,246.13981249583335,80.0,80.0
264,246.2596753916667,246.55762030416668,80.0,79.0
265,246.67063389166668,247.09357868125002,80.0,80.0
266,247.08159239166667,248.19631732291668,79.0,81.0
267,248.31446789166668,248.61754978541668,80.0,78.0
268,248.72542639166667,251.57302633125002,80.0,73.0
269,252.4240528916667,252.73740874791667,80.0,61.0
270,252.83501139166668,253.1380932854167,80.0,78.0
271,253.24596989166668,253.69288726041668,80.0,78.0
272,253.65692839166667,255.95315901041667,79.0,81.0
273,258.1774718916667,259.19953107291667,80.0,61.0
274,259.3539428916667,262.76761825000006,80.0,60.0
