,start,end,pitch,velocity
0,0.3885870083333333,1.51630455,57.0,76.0
1,0.4429348416666667,1.573369775,54.0,71.0
2,0.4918478916666667,1.6521741333333333,30.0,84.0
3,0.4918478916666667,1.6521741333333333,42.0,84.0
4,2.4483698916666667,2.6059786083333334,57.0,84.0
5,2.6032612166666667,2.7608699333333333,64.0,84.0
6,2.7744568916666665,2.9320656083333336,66.0,84.0
7,2.88586995,3.0434786666666667,71.0,84.0
8,2.991848225,3.163043866666667,73.0,84.0
9,3.1005438916666668,3.3019327,78.0,84.0
10,4.350543391666667,4.5519321999999995,78.0,84.0
11,4.475543341666667,4.67693215,79.0,84.0
12,4.59359885,4.788949025,83.0,84.0
13,4.67693215,4.856883816666667,86.0,84.0
14,4.767209891666667,4.924818608333334,90.0,84.0
15,8.857387891666667,9.221024291666668,70.0,84.0
16,8.857387891666667,9.3081455125,58.0,76.0
17,8.857387891666667,9.31950915,66.0,78.0
18,8.857387891666667,9.321403089583333,63.0,79.0
19,8.857387891666667,9.351706122916667,51.0,69.0
20,9.766478891666667,10.1655173,71.0,70.0
21,9.766478891666667,10.213594216666667,52.0,79.0
22,9.766478891666667,10.218401908333334,64.0,83.0
23,9.766478891666667,10.242440366666667,59.0,80.0
24,9.766478891666667,10.3025365125,68.0,79.0
25,10.920324891666667,11.183838466666666,51.0,80.0
26,10.920324891666667,11.3730277,70.0,90.0
27,11.325730391666667,11.427081766666667,51.0,86.0
28,10.920324891666667,11.508162866666666,61.0,80.0
29,10.920324891666667,11.508162866666666,66.0,82.0
30,10.920324891666667,11.528433141666667,39.0,90.0
31,12.541946891666667,12.656866254166667,37.0,90.0
32,12.541946891666667,13.072188862500001,61.0,39.0
33,12.541946891666667,13.142753383333334,68.0,78.0
34,12.541946891666667,13.146785641666668,64.0,72.0
35,12.541946891666667,13.166946933333334,73.0,79.0
36,13.509688891666666,13.929043758333334,73.0,73.0
37,13.025817891666668,13.933076016666668,49.0,76.0
38,13.509688891666666,13.9733986,64.0,82.0
39,13.509688891666666,13.999608279166667,68.0,81.0
40,13.993559891666667,14.0883179625,61.0,84.0
41,13.509688891666666,14.114527641666667,56.0,71.0
42,14.477430891666668,14.997317116666668,61.0,79.0
43,14.477430891666668,15.002998933333334,68.0,79.0
44,14.477430891666668,15.017203475,64.0,81.0
45,14.477430891666668,15.056976191666667,46.0,84.0
46,15.159248891666667,15.915628254166668,58.0,78.0
47,15.841066891666667,16.279663141666667,61.0,82.0
48,15.841066891666667,16.323522766666667,67.0,76.0
49,15.841066891666667,16.327908729166666,70.0,91.0
50,16.367382391666666,16.914884308333335,58.0,58.0
51,16.89369789166667,17.012341825000004,74.0,49.0
52,16.89369789166667,17.18607044166667,70.0,46.0
53,16.89369789166667,17.486917558333335,67.0,63.0
54,16.89369789166667,17.520815825000003,75.0,62.0
55,16.89369789166667,17.609798775,63.0,61.0
56,17.40217189166667,17.711493575000002,58.0,70.0
57,15.841066891666667,17.792001958333337,51.0,81.0
58,18.33318039166667,18.4634618625,39.0,79.0
59,18.121913141666667,19.029048225,63.0,55.0
60,18.121913141666667,19.037381558333333,67.0,73.0
61,18.33318039166667,19.100714891666666,75.0,72.0
62,19.555714891666668,20.341041083333334,63.0,69.0
63,19.555714891666668,20.34647586666667,66.0,76.0
64,19.555714891666668,20.51495415,71.0,76.0
65,20.533975891666667,20.957623891666668,70.0,83.0
66,21.225916641666668,21.850916797916668,63.0,46.0
67,21.225916641666668,22.03079489166667,68.0,59.0
68,21.95762414166667,22.20762420416667,71.0,73.0
69,22.32347789166667,23.58828102916667,75.0,72.0
70,20.207888891666666,24.78357382916667,56.0,58.0
71,23.11295189166667,24.80816400416667,80.0,72.0
72,19.555714891666668,24.85734435416667,44.0,79.0
73,27.77022489166667,28.709287391666667,56.0,60.0
74,28.14522489166667,29.23897489166667,59.0,71.0
75,28.52022489166667,29.28542759791667,63.0,60.0
76,29.27022489166667,30.721238743750003,54.0,62.0
77,29.67563039166667,30.760090104166668,58.0,50.0
78,30.08103589166667,31.093235458333332,66.0,57.0
79,30.891846891666667,32.21147978333333,52.0,71.0
80,31.725178891666665,32.468328845833334,59.0,61.0
81,31.308512891666666,32.5436712375,56.0,26.0
82,32.547095891666665,33.82790045416667,51.0,63.0
83,32.917466391666665,34.22079901041666,54.0,35.0
84,33.287836891666664,34.37572832708333,63.0,61.0
85,34.47960139166666,35.470149991666666,56.0,35.0
86,34.057066891666665,35.626399825,49.0,71.0
87,34.90213589166667,35.777134958333335,64.0,75.0
88,36.159487891666664,36.71181336666667,58.0,50.0
89,36.534487891666664,37.18419680416667,61.0,68.0
90,35.784487891666664,37.28145758333333,54.0,60.0
91,37.232161891666664,37.97687894791667,47.0,70.0
92,37.65469639166666,38.33955439375,59.0,55.0
93,38.077230891666666,38.47687810625,61.0,59.0
94,38.499765391666664,39.16877835,63.0,68.0
95,38.92229989166666,39.79496626666666,58.0,73.0
96,38.92229989166666,40.22353726666666,67.0,69.0
97,39.76736889166666,40.52061489166666,51.0,78.0
98,40.546588891666666,41.658600766666666,59.0,61.0
99,40.546588891666666,41.793340891666666,63.0,72.0
100,41.32580889166666,41.838795391666665,68.0,75.0
101,40.546588891666666,41.90860051666667,56.0,72.0
102,42.10502889166666,42.566067391666664,58.0,67.0
103,42.10502889166666,42.64885951666666,66.0,72.0
104,42.884248891666665,43.2558706,63.0,72.0
105,42.10502889166666,43.32343818333333,54.0,60.0
106,43.289654391666666,43.60891122291667,70.0,79.0
107,43.695059891666666,44.464797041666664,64.0,73.0
108,43.695059891666666,44.642428691666666,59.0,63.0
109,43.695059891666666,44.66216554166667,68.0,72.0
110,43.695059891666666,44.85624456666667,52.0,67.0
111,44.484533891666665,44.85624456666667,66.0,76.0
112,44.879270891666664,45.06019201666667,64.0,72.0
113,45.27400789166666,45.93567455833333,59.0,56.0
114,45.27400789166666,46.00067455833333,63.0,60.0
115,45.27400789166666,46.12208476666666,66.0,71.0
116,45.27400789166666,46.25349489166666,51.0,75.0
117,46.07400789166666,46.25670001666666,68.0,69.0
118,46.84323789166666,47.28159362499999,59.0,69.0
119,46.84323789166666,47.29871689583333,64.0,78.0
120,46.84323789166666,47.898031374999995,49.0,73.0
121,47.25419639166666,47.97337376666666,56.0,60.0
122,47.66515489166666,48.05042848541666,59.0,63.0
123,48.07611339166666,48.17885301666666,66.0,71.0
124,48.48707189166666,48.673738558333326,63.0,50.0
125,48.48707189166666,48.930405224999994,61.0,49.0
126,48.48707189166666,48.97040522499999,67.0,68.0
127,48.48707189166666,49.34040522499999,51.0,76.0
128,48.88707189166666,49.44207189166666,58.0,57.0
129,49.287071891666656,49.45873855833332,61.0,60.0
130,50.08707189166666,50.19707189166666,63.0,48.0
131,50.88707189166666,51.32873855833333,68.0,80.0
132,50.48707189166666,51.37040522499999,63.0,71.0
133,51.287071891666656,51.55707189166666,73.0,80.0
134,51.48707189166666,52.51411439166666,68.0,69.0
135,52.45630189166666,52.51411439166666,68.0,83.0
136,51.48707189166666,52.58755189166666,63.0,49.0
137,51.68707189166666,52.72036439166666,75.0,80.0
138,50.08707189166666,52.84536439166666,56.0,72.0
139,53.20630189166666,53.74921210416666,63.0,80.0
140,53.20630189166666,53.78465985,71.0,93.0
141,53.65406289166666,54.86968026666666,59.0,73.0
142,54.49143389166666,55.05271055833333,71.0,84.0
143,54.10182389166666,55.36604389166666,66.0,80.0
144,53.20630189166666,55.79104389166666,47.0,80.0
145,55.68104389166666,55.896043891666665,68.0,84.0
146,55.28104389166666,56.006043891666664,59.0,57.0
147,56.481043891666666,56.814377224999994,61.0,77.0
148,56.481043891666666,56.88604389166667,66.0,79.0
149,56.881043891666664,57.509377224999994,61.0,71.0
150,57.28104389166666,57.70771055833333,66.0,76.0
151,57.68104389166666,57.97104389166667,70.0,90.0
152,56.481043891666666,57.99271055833333,58.0,79.0
153,58.881043891666664,59.177096641666665,68.0,84.0
154,58.881043891666664,59.185320329166665,60.0,84.0
155,58.881043891666664,59.185320329166665,63.0,83.0
156,58.881043891666664,59.26426772916666,44.0,80.0
157,59.27578089166666,59.62282050416666,56.0,61.0
158,59.67051789166666,60.10143911666666,59.0,78.0
159,59.67051789166666,60.12117596666666,64.0,84.0
160,59.67051789166666,60.290583929166665,71.0,93.0
161,60.45999189166666,61.101439516666666,64.0,84.0
162,60.85472889166667,61.18861060416666,71.0,90.0
163,59.67051789166666,62.21986101666666,49.0,82.0
164,61.644202891666666,62.307032104166666,59.0,42.0
165,60.06525489166666,62.353084754166666,56.0,62.0
166,62.038939891666665,62.423808466666664,75.0,83.0
167,62.038939891666665,62.445190054166666,68.0,78.0
168,62.82841389166666,63.20341352291666,75.0,79.0
169,62.82841389166666,63.30957780208333,66.0,72.0
170,63.23937239166666,63.58012548124999,73.0,84.0
171,63.65033089166666,64.03699755833333,71.0,90.0
172,63.23937239166666,64.388664225,59.0,73.0
173,64.05033089166666,64.50588635833333,70.0,79.0
174,64.45033089166667,64.86005245833333,71.0,84.0
175,62.82841389166666,64.87914965,56.0,59.0
176,64.86699689166667,65.32532949166666,59.0,83.0
177,65.28366289166667,65.6603984,75.0,91.0
178,65.28366289166667,65.78192598333334,54.0,83.0
179,65.70032889166667,65.92081465,71.0,84.0
180,65.70032889166667,66.02845336666667,59.0,84.0
181,66.11699489166666,67.00699489166666,68.0,83.0
182,66.91699489166666,67.72199489166667,64.0,79.0
183,67.31699489166667,67.83199489166667,68.0,78.0
184,68.11699489166666,68.25699489166666,66.0,78.0
185,66.51699489166667,68.770328225,59.0,79.0
186,68.51699489166667,68.770328225,64.0,73.0
187,68.51699489166667,68.80366155833333,68.0,76.0
188,68.51699489166667,68.86366155833333,71.0,83.0
189,66.11699489166666,69.05699489166666,52.0,82.0
190,68.91699489166666,69.28866155833333,59.0,80.0
191,69.31699489166667,69.86699489166666,73.0,90.0
192,69.31699489166667,69.87866155833333,66.0,83.0
193,69.71699489166666,70.32258707916667,59.0,78.0
194,70.11699489166666,70.43278449166667,63.0,76.0
195,70.11699489166666,70.82258727916667,71.0,91.0
196,70.51173189166667,70.95581101666666,66.0,84.0
197,70.90646889166666,71.36041644166666,59.0,69.0
198,71.30120589166667,71.80449556666666,63.0,82.0
199,71.69594289166666,71.96896931666666,64.0,86.0
200,71.49857439166666,71.97883774166667,59.0,79.0
201,69.31699489166667,72.04956145416666,51.0,82.0
202,71.89331139166666,72.05120619166667,66.0,79.0
203,72.09067989166667,72.34396946666666,68.0,79.0
204,72.28804839166666,72.98212761666666,71.0,83.0
205,72.48541689166666,73.02160131666666,61.0,78.0
206,72.48541689166666,73.03475921666666,64.0,80.0
207,72.48541689166666,73.27982510416666,49.0,90.0
208,72.88015389166667,73.41140410416666,56.0,77.0
209,73.66962789166666,73.80120689166667,47.0,90.0
210,73.27489089166666,73.95252274166667,61.0,86.0
211,74.06436489166667,74.54791771666666,68.0,90.0
212,74.06436489166667,74.61041774166667,64.0,90.0
213,74.06436489166667,74.64331249166666,61.0,81.0
214,74.45910189166666,75.15482585416666,58.0,73.0
215,74.06436489166667,75.30285222916666,46.0,98.0
216,74.85383889166667,75.31107591666667,61.0,84.0
217,75.24857589166666,75.57752339166666,68.0,93.0
218,75.64331289166667,75.96403670416666,63.0,82.0
219,75.64331289166667,75.98377355416666,39.0,91.0
220,75.64331289166667,76.10219465416667,67.0,83.0
221,76.03804989166666,76.33081316666666,63.0,78.0
222,76.03804989166666,76.45812473541666,51.0,68.0
223,76.03804989166666,76.48177338958334,68.0,84.0
224,76.43278689166667,76.7537329125,63.0,69.0
225,76.43278689166667,76.76555723958333,70.0,99.0
226,77.24359789166667,77.396375425,67.0,82.0
227,76.83819239166667,77.40505596666667,58.0,80.0
228,77.24359789166667,77.42588926666667,79.0,94.0
229,77.24359789166667,77.74359709166667,63.0,58.0
230,77.66026389166667,77.77831925833334,68.0,73.0
231,77.66026389166667,77.83561083333333,80.0,90.0
232,78.07692989166667,78.18165964583334,71.0,84.0
233,78.07692989166667,78.20024073125,82.0,94.0
234,78.07692989166667,78.32861913958334,63.0,77.0
235,77.66026389166667,78.45024078958333,58.0,74.0
236,76.43278689166667,78.50598404583333,55.0,79.0
237,78.48233539166667,78.56510568125,78.0,82.0
238,78.48233539166667,78.59551109375,83.0,83.0
239,78.88774089166667,79.01780848958333,75.0,67.0
240,78.88774089166667,79.02963281666666,87.0,84.0
241,79.29314639166667,80.04821413541667,54.0,77.0
242,79.69855189166667,80.20868714583334,59.0,84.0
243,80.10395739166667,80.33706555416667,63.0,79.0
244,80.10395739166667,80.49078180625,71.0,94.0
245,80.50936289166667,80.61381484375,71.0,50.0
246,80.50936289166667,80.72511610416667,63.0,81.0
247,80.50936289166667,80.74395170208334,66.0,83.0
248,80.92032139166668,81.43401951666667,54.0,73.0
249,78.88774089166667,81.62580015,47.0,81.0
250,81.33127989166667,81.65833436458334,59.0,72.0
251,81.33127989166667,81.71141650416666,66.0,84.0
252,81.33127989166667,81.79360820416667,75.0,90.0
253,81.74223839166667,82.03847097708334,54.0,81.0
254,81.94771764166667,82.11210104166666,75.0,81.0
255,82.15319689166667,82.65632189166666,46.0,86.0
256,82.52819689166667,82.70632189166666,54.0,75.0
257,82.71569689166667,82.95911796666667,58.0,68.0
258,82.15319689166667,83.09892065416666,66.0,84.0
259,82.15319689166667,83.11865750416666,73.0,90.0
260,83.10056539166666,83.37359181666666,63.0,84.0
261,82.90319689166667,83.37523655416666,61.0,79.0
262,83.29793389166667,83.46569711666666,66.0,82.0
263,83.49530239166667,83.64661824166667,73.0,84.0
264,83.69267089166667,83.98872364166667,66.0,79.0
265,84.08740789166667,84.10550000416667,73.0,49.0
266,83.69267089166667,84.11865790416667,75.0,84.0
267,84.08740789166667,84.19431582916667,66.0,84.0
268,83.69267089166667,84.19596056666667,46.0,91.0
269,84.08740789166667,84.20911846666667,58.0,83.0
270,84.48214489166666,84.86381155833332,63.0,82.0
271,84.48214489166666,84.88047822499999,68.0,90.0
272,84.48214489166666,84.89381155833333,60.0,84.0
273,84.48214489166666,84.92714489166666,44.0,84.0
274,84.88214489166667,85.195478225,56.0,84.0
275,85.28214489166666,85.72881155833333,64.0,90.0
276,85.28214489166666,85.93714489166666,59.0,94.0
277,85.28214489166666,86.00881155833333,71.0,84.0
278,85.68214489166667,86.21714489166666,56.0,76.0
279,86.08214489166666,86.26381155833333,59.0,86.0
280,86.28214489166666,86.54214489166667,64.0,78.0
281,85.28214489166666,86.56214489166666,49.0,90.0
282,86.48214489166666,86.58881155833333,66.0,83.0
283,86.48214489166666,86.81881155833334,56.0,72.0
284,86.68214489166667,86.98381155833333,68.0,83.0
285,86.88214489166667,87.11381155833332,76.0,84.0
286,87.08214489166666,87.230478225,75.0,84.0
287,87.28214489166666,87.450478225,71.0,84.0
288,87.48214489166666,87.62881155833333,68.0,80.0
289,87.28214489166666,87.81214489166666,56.0,67.0
290,87.68214489166667,87.87214489166666,64.0,83.0
291,87.68214489166667,87.90214489166667,61.0,77.0
292,87.88214489166667,88.155478225,63.0,86.0
293,86.88214489166667,88.16881155833333,49.0,82.0
294,88.08214489166666,88.18214489166667,56.0,79.0
295,88.08214489166666,88.36714489166667,64.0,84.0
296,88.28214489166666,88.41047822499999,66.0,79.0
297,88.48214489166666,88.96381155833333,68.0,80.0
298,88.48214489166666,89.01381155833333,59.0,91.0
299,88.48214489166666,89.26381155833333,44.0,83.0
300,88.88214489166667,89.30381155833334,51.0,78.0
301,89.28214489166666,89.34381155833333,59.0,80.0
302,89.28214489166666,89.34714489166666,63.0,84.0
303,89.28214489166666,89.38714489166667,68.0,86.0
304,89.28214489166666,89.750478225,56.0,72.0
305,89.68214489166667,90.16381155833334,58.0,80.0
306,90.08214489166666,90.30381155833334,75.0,83.0
307,90.08214489166666,90.33214489166666,66.0,82.0
308,90.08214489166666,90.54881155833333,59.0,84.0
309,90.48214489166666,90.715478225,73.0,79.0
310,90.48214489166666,90.76381155833333,64.0,84.0
311,90.88214489166667,91.090478225,71.0,96.0
312,90.88214489166667,91.125478225,63.0,94.0
313,90.48214489166666,91.22881155833333,58.0,79.0
314,91.28214489166666,91.40714489166666,61.0,84.0
315,91.28214489166666,91.40714489166666,70.0,94.0
316,91.68214489166667,92.13047822499999,64.0,82.0
317,91.68214489166667,92.16047822499999,68.0,83.0
318,91.68214489166667,92.16214489166667,71.0,90.0
319,91.68214489166667,92.21214489166667,59.0,86.0
320,92.48214489166666,92.59381155833333,71.0,75.0
321,92.08214489166666,92.670478225,52.0,54.0
322,92.48214489166666,92.87381155833333,64.0,90.0
323,92.48214489166666,92.89881155833334,68.0,82.0
324,92.48214489166666,92.91381155833334,59.0,86.0
325,92.88214489166667,93.39881155833334,52.0,52.0
326,93.28214489166666,93.68214489166667,59.0,82.0
327,93.28214489166666,93.695478225,66.0,81.0
328,93.68214489166667,94.100478225,52.0,76.0
329,94.08214489166667,94.320478225,59.0,94.0
330,94.08214489166667,94.370478225,64.0,96.0
331,94.28214489166666,94.46714489166666,52.0,80.0
332,91.68214489166667,94.530478225,40.0,86.0
333,94.48214489166666,94.63047822499999,59.0,76.0
334,94.88214489166667,95.345478225,59.0,84.0
335,94.88214489166667,95.43881155833333,66.0,79.0
336,94.88214489166667,95.475478225,63.0,84.0
337,94.88214489166667,95.58881155833333,47.0,80.0
338,95.28214489166666,95.760478225,51.0,82.0
339,95.68214489166667,96.000478225,66.0,76.0
340,95.68214489166667,96.02214489166667,61.0,82.0
341,96.08214489166667,96.11381155833334,61.0,47.0
342,96.08214489166667,96.45381155833333,63.0,81.0
343,96.08214489166667,96.46381155833333,66.0,81.0
344,96.48214489166666,97.05881155833333,59.0,76.0
345,96.88214489166667,97.125478225,63.0,80.0
346,97.08214489166667,97.40881155833333,66.0,83.0
347,97.28214489166666,97.59714489166666,59.0,84.0
348,96.08214489166667,97.66047822499999,54.0,71.0
349,95.68214489166667,97.66714489166667,47.0,77.0
350,97.48214489166666,97.715478225,64.0,91.0
351,97.68214489166667,97.84714489166666,63.0,78.0
352,98.08214489166667,98.69881155833333,59.0,94.0
353,98.08214489166667,98.705478225,64.0,86.0
354,98.08214489166667,98.95881155833334,56.0,75.0
355,98.88214489166667,99.28381155833333,64.0,94.0
356,98.08214489166667,99.340478225,49.0,84.0
357,99.28214489166666,99.39881155833334,56.0,79.0
358,98.88214489166667,99.405478225,59.0,91.0
359,99.68214489166667,100.195478225,61.0,84.0
360,99.68214489166667,100.20714489166667,64.0,91.0
361,100.08214489166667,100.46881155833333,58.0,73.0
362,100.48214489166666,100.91881155833333,61.0,93.0
363,99.68214489166667,100.97214489166666,46.0,91.0
364,100.88214489166667,100.980478225,58.0,90.0
365,100.48214489166666,101.165478225,64.0,99.0
366,101.08214489166667,101.30714489166667,63.0,52.0
367,101.28214489166666,101.68881155833333,39.0,86.0
368,101.68214489166667,102.11214489166667,51.0,82.0
369,101.28214489166666,102.465478225,70.0,90.0
370,101.28214489166666,102.560478225,67.0,62.0
371,102.88214489166667,103.04381155833333,63.0,84.0
372,103.08214489166667,103.29881155833333,68.0,75.0
373,103.28214489166666,103.36214489166667,70.0,84.0
374,103.48214489166666,103.60881155833333,75.0,83.0
375,102.48214489166666,103.760478225,58.0,81.0
376,102.08214489166667,103.80881155833333,56.0,79.0
377,103.68214489166667,103.925478225,80.0,76.0
378,103.88214489166667,104.15714489166666,82.0,78.0
379,104.08214489166667,104.28214489166666,85.0,77.0
380,104.28214489166666,104.36214489166667,87.0,84.0
381,104.48214489166666,105.15881155833333,40.0,76.0
382,104.88214489166667,105.265478225,47.0,80.0
383,105.28214489166666,105.72214489166666,52.0,69.0
384,106.48214489166666,106.88714489166667,59.0,52.0
385,105.68214489166667,106.96881155833333,56.0,78.0
386,107.68214489166667,108.420478225,39.0,63.0
387,108.08214489166667,108.450478225,47.0,59.0
388,108.48214489166666,108.920478225,51.0,61.0
389,108.88214489166667,109.800478225,54.0,77.0
390,109.68214489166667,109.82381155833333,59.0,73.0
391,110.88214489166667,111.085478225,38.0,82.0
392,111.28214489166666,112.00547822499999,38.0,81.0
393,111.68214489166667,112.05381155833334,41.0,84.0
394,112.08214489166667,112.40714489166666,44.0,80.0
395,113.28214489166666,113.37714489166666,56.0,75.0
396,114.08214489166667,114.83714489166667,39.0,79.0
397,114.48214489166666,114.865478225,46.0,79.0
398,114.88214489166667,114.97214489166666,51.0,72.0
399,115.28214489166666,115.80714489166667,56.0,58.0
400,115.68214489166667,116.100478225,58.0,82.0
401,116.08214489166667,116.17214489166666,63.0,81.0
402,116.48214489166666,116.63214489166666,63.0,83.0
403,117.28214489166666,117.83214489166667,71.0,84.0
404,118.08214489166667,118.43881155833333,64.0,86.0
405,118.08214489166667,118.47714489166667,68.0,78.0
406,118.48214489166666,118.76714489166667,63.0,58.0
407,118.48214489166666,118.800478225,66.0,80.0
408,118.48214489166666,118.905478225,59.0,74.0
409,118.88214489166667,119.03714489166666,64.0,84.0
410,118.88214489166667,119.37214489166666,68.0,82.0
411,119.28214489166666,119.490478225,59.0,61.0
412,117.28214489166666,119.60381155833333,56.0,72.0
413,119.48214489166666,119.805478225,64.0,86.0
414,119.48214489166666,119.81547822499999,71.0,90.0
415,119.68214489166667,119.87214489166666,59.0,79.0
416,119.88214489166667,119.965478225,64.0,82.0
417,119.88214489166667,120.00214489166666,68.0,84.0
418,120.48214489166666,120.95881155833334,61.0,80.0
419,120.48214489166666,121.14714489166667,66.0,83.0
420,121.28214489166666,121.530478225,66.0,75.0
421,121.48214489166666,121.60047822499999,68.0,76.0
422,121.68214489166667,121.80714489166667,70.0,83.0
423,121.08214489166667,121.980478225,63.0,81.0
424,120.48214489166666,121.99714489166666,51.0,83.0
425,121.88214489166667,122.09396921875,73.0,80.0
426,120.88214489166667,122.1193070625,58.0,72.0
427,122.08214489166667,122.32707738125,78.0,80.0
428,122.28484764166667,122.46896930625,75.0,78.0
429,122.48755039166667,122.66491529791668,73.0,78.0
430,122.69025314166667,122.81694236041668,70.0,82.0
431,122.89295589166667,123.10241540000001,66.0,79.0
432,122.89295589166667,123.18180731041667,58.0,78.0
433,123.09565864166667,123.26457760000001,63.0,80.0
434,122.08214489166667,123.28315868541667,51.0,82.0
435,123.29836139166667,123.42842898958334,59.0,90.0
436,123.50106414166667,123.58045605208333,59.0,43.0
437,123.70376689166667,124.11543355833334,64.0,84.0
438,123.70376689166667,124.222100225,56.0,84.0
439,123.70376689166667,124.227100225,59.0,90.0
440,124.10376689166668,124.60043355833334,49.0,39.0
441,123.70376689166667,124.817100225,37.0,83.0
442,124.50376689166667,124.972100225,59.0,86.0
443,124.50376689166667,124.98543355833334,64.0,84.0
444,124.90376689166668,124.99376689166668,49.0,71.0
445,124.90376689166668,125.01876689166667,37.0,76.0
446,124.50376689166667,125.022100225,56.0,77.0
447,125.30376689166667,125.74376689166668,61.0,83.0
448,125.30376689166667,125.74876689166668,64.0,84.0
449,125.30376689166667,125.75876689166668,68.0,84.0
450,125.70376689166667,126.15043355833335,55.0,56.0
451,126.10376689166668,126.43876689166667,58.0,75.0
452,126.10376689166668,126.53376689166667,61.0,84.0
453,126.10376689166668,126.54710022500001,68.0,84.0
454,126.50376689166667,126.59210022500001,55.0,83.0
455,125.30376689166667,126.60043355833334,46.0,84.0
456,126.90376689166668,127.28210022500001,39.0,86.0
457,127.30376689166667,127.38876689166668,51.0,73.0
458,127.70376689166667,127.81876689166667,56.0,71.0
459,126.90376689166668,127.84210022500001,63.0,82.0
460,126.90376689166668,127.84543355833334,67.0,82.0
461,126.90376689166668,127.867100225,70.0,90.0
462,128.10376689166668,128.2187668916667,63.0,76.0
463,128.5037668916667,129.10376689166668,69.0,79.0
464,128.5037668916667,129.17043355833334,62.0,77.0
465,128.5037668916667,129.17043355833334,66.0,76.0
466,129.5037668916667,129.697100225,62.0,73.0
467,128.5037668916667,129.717100225,38.0,82.0
468,128.5037668916667,129.72376689166668,50.0,69.0
469,129.70376689166667,129.797100225,69.0,79.0
470,130.10376689166668,130.46543355833333,70.0,82.0
471,130.10376689166668,130.49543355833333,63.0,72.0
472,130.10376689166668,130.75710022500002,44.0,60.0
473,130.5037668916667,130.822100225,51.0,71.0
474,130.90376689166666,131.39543355833334,56.0,63.0
475,130.90376689166666,131.40043355833333,63.0,77.0
476,131.30376689166667,132.25543355833335,70.0,83.0
477,131.30376689166667,133.69158701666666,58.0,76.0
478,133.30376689166667,133.71562545416666,75.0,38.0
479,136.49491389166667,137.37676233958334,68.0,83.0
480,136.49491389166667,137.38189932083333,63.0,82.0
481,136.49491389166667,137.46409102083334,59.0,82.0
482,137.31683089166665,137.73635102708332,56.0,76.0
483,136.49491389166667,137.796282475,44.0,82.0
484,137.72778939166665,137.97778914583333,59.0,81.0
485,137.93326864166664,138.07881644375,68.0,81.0
486,136.90587239166666,138.11306298541666,51.0,62.0
487,138.13874789166667,139.01703771666666,66.0,83.0
488,138.92822189166668,139.19466936666666,54.0,78.0
489,138.53348489166666,139.29335361666668,51.0,78.0
490,138.13874789166667,139.31802467916665,42.0,78.0
491,139.12559039166666,139.39039312916668,58.0,79.0
492,139.32295889166667,139.54335371666667,59.0,73.0
493,139.52032739166665,139.79170907916668,66.0,75.0
494,139.71769589166666,140.24401189166667,56.0,72.0
495,139.71769589166666,140.25223557916667,59.0,80.0
496,139.71769589166666,140.45782776666667,63.0,82.0
497,140.50716989166668,140.55815675416667,59.0,39.0
498,140.11243289166666,140.74730156666666,52.0,73.0
499,140.50716989166668,140.91506479166668,64.0,82.0
500,140.50716989166668,140.94138059166667,56.0,75.0
501,139.71769589166666,141.11572276666666,40.0,81.0
502,140.90190689166667,141.13545961666668,52.0,61.0
503,140.90190689166667,141.18644647916668,63.0,77.0
504,141.29664389166666,141.70289405416668,39.0,86.0
505,141.29664389166666,141.78842040416666,59.0,81.0
506,141.29664389166666,141.82789410416666,63.0,82.0
507,141.29664389166666,141.89697307916666,54.0,75.0
508,142.08611789166667,142.34598641666668,59.0,78.0
509,141.69138089166665,142.35092062916667,51.0,69.0
510,142.28348639166666,142.51210490416668,61.0,76.0
511,142.48085489166667,142.67328917916666,63.0,71.0
512,142.67822339166668,142.9499162333333,66.0,72.0
513,142.87559189166666,143.21511899791665,64.0,79.0
514,143.28099739166666,143.79282183541665,63.0,74.0
515,143.28099739166666,143.80971373124999,56.0,68.0
516,143.68640289166666,144.03437594583332,61.0,63.0
517,143.68640289166666,144.08674082291665,64.0,76.0
518,142.87559189166666,144.14079488958333,49.0,73.0
519,144.09180839166666,144.21343004166667,56.0,76.0
520,144.09180839166666,144.45667334166666,71.0,84.0
521,144.49721389166666,145.17120053541666,42.0,78.0
522,144.90261939166666,145.2657951520833,49.0,75.0
523,144.49721389166666,145.67964659999998,61.0,71.0
524,144.49721389166666,145.68133578958333,70.0,91.0
525,145.30802489166666,145.77424121666667,54.0,60.0
526,145.71343039166666,145.81478176666667,58.0,82.0
527,146.11883589166666,146.52268164166665,70.0,84.0
528,146.11883589166666,146.63966870416667,63.0,76.0
529,146.50345089166666,146.78389932916667,71.0,74.0
530,146.88806589166666,147.2747325583333,66.0,79.0
531,146.11883589166666,147.39639922499998,47.0,83.0
532,147.28806589166666,147.451399225,58.0,59.0
533,147.28806589166666,147.566399225,63.0,79.0
534,146.50345089166666,147.601399225,54.0,63.0
535,147.68806589166667,148.12806589166667,61.0,74.0
536,147.68806589166667,148.12806589166667,64.0,80.0
537,147.68806589166667,148.15806589166667,46.0,90.0
538,148.08806589166664,148.35973255833332,68.0,79.0
539,148.48806589166665,148.851399225,70.0,90.0
540,148.48806589166665,148.87473255833333,67.0,73.0
541,148.48806589166665,148.89639922499998,39.0,84.0
542,148.48806589166665,148.98306589166666,63.0,78.0
543,148.88806589166666,149.23306589166666,51.0,72.0
544,149.28806589166666,149.67473255833332,71.0,90.0
545,149.28806589166666,149.72806589166666,63.0,75.0
546,149.28806589166666,150.346399225,44.0,83.0
547,150.08806589166664,150.3697325583333,56.0,75.0
548,149.68806589166667,150.41973255833332,51.0,78.0
549,150.28806589166666,150.451399225,58.0,75.0
550,150.48806589166665,150.71139922499998,59.0,71.0
551,150.68806589166667,150.84473255833333,66.0,81.0
552,150.88806589166666,151.33806589166664,66.0,52.0
553,150.88806589166666,151.341399225,61.0,83.0
554,150.88806589166666,151.39639922499998,58.0,75.0
555,151.28806589166666,151.92639922499998,54.0,56.0
556,151.68806589166667,151.94806589166666,58.0,69.0
557,151.88806589166666,152.13973255833332,59.0,80.0
558,152.08806589166664,152.3047325583333,61.0,76.0
559,150.88806589166666,152.43473255833334,42.0,79.0
560,152.48806589166665,152.721399225,52.0,61.0
561,152.28806589166666,152.86473255833332,66.0,77.0
562,152.48806589166665,152.94806589166666,59.0,80.0
563,152.48806589166665,152.99973255833333,56.0,71.0
564,152.48806589166665,153.13806589166666,63.0,78.0
565,152.88806589166666,153.45973255833331,52.0,19.0
566,153.28806589166666,153.63973255833332,64.0,80.0
567,153.28806589166666,153.66473255833333,59.0,82.0
568,153.28806589166666,153.71139922499998,56.0,73.0
569,152.48806589166665,154.141399225,40.0,80.0
570,153.68806589166667,154.20639922499998,52.0,68.0
571,154.08806589166664,154.51806589166665,59.0,80.0
572,154.08806589166664,154.52139922499998,63.0,84.0
573,153.88806589166666,154.96806589166667,54.0,44.0
574,154.08806589166664,155.101399225,47.0,82.0
575,154.88806589166666,155.15806589166667,59.0,81.0
576,155.08806589166664,155.346399225,61.0,81.0
577,155.28806589166666,155.62806589166667,63.0,77.0
578,155.48806589166665,155.63473255833333,64.0,69.0
579,155.68806589166667,156.11806589166665,64.0,69.0
580,155.68806589166667,156.20473255833332,59.0,77.0
581,155.68806589166667,156.251399225,56.0,72.0
582,155.68806589166667,156.54973255833332,49.0,62.0
583,156.48806589166665,156.77806589166664,59.0,81.0
584,156.48806589166665,156.77806589166664,64.0,84.0
585,155.68806589166667,156.8397325583333,37.0,82.0
586,156.48806589166665,156.96806589166667,56.0,77.0
587,156.88806589166666,157.02306589166665,49.0,79.0
588,157.28806589166666,157.52639922499998,51.0,62.0
589,157.28806589166666,157.76306589166666,58.0,56.0
590,157.28806589166666,157.83306589166665,55.0,78.0
591,157.28806589166666,157.886399225,61.0,79.0
592,157.68806589166667,158.18306589166664,51.0,58.0
593,158.08806589166664,158.386399225,55.0,80.0
594,157.28806589166666,158.44473255833333,39.0,81.0
595,158.08806589166664,158.541399225,58.0,78.0
596,158.08806589166664,158.71139922499998,63.0,79.0
597,158.48806589166665,158.83473255833331,51.0,75.0
598,158.88806589166666,159.18473255833334,56.0,76.0
599,158.88806589166666,159.216399225,59.0,91.0
600,159.28806589166666,159.51473255833332,58.0,78.0
601,158.88806589166666,159.65973255833333,44.0,80.0
602,159.28806589166666,159.67806589166665,51.0,75.0
603,159.28806589166666,159.71806589166667,61.0,82.0
604,159.68806589166667,159.74806589166667,58.0,79.0
605,159.68806589166667,159.77639922499998,63.0,84.0
606,159.68806589166667,160.13806589166666,56.0,72.0
607,160.08806589166664,160.18139922499998,58.0,82.0
608,160.08806589166664,160.18473255833334,63.0,80.0
609,160.08806589166664,160.20639922499998,71.0,90.0
610,160.28806589166666,160.46806589166667,70.0,82.0
611,160.48806589166665,160.7147325583333,71.0,84.0
612,160.48806589166665,160.74973255833333,44.0,78.0
613,160.68806589166667,160.82473255833332,70.0,84.0
614,160.68806589166667,160.83806589166664,51.0,79.0
615,160.88806589166666,161.106399225,63.0,80.0
616,160.88806589166666,161.12973255833333,56.0,72.0
617,161.08806589166664,161.346399225,68.0,76.0
618,161.28806589166666,161.386399225,59.0,84.0
619,161.28806589166666,161.39806589166665,70.0,84.0
620,161.08806589166664,161.40306589166664,58.0,72.0
621,161.48806589166665,161.561399225,70.0,72.0
622,161.48806589166665,161.576399225,71.0,75.0
623,161.68806589166667,161.90973255833333,73.0,72.0
624,161.88806589166666,161.95306589166665,75.0,83.0
625,162.08806589166664,162.57306589166666,63.0,80.0
626,162.08806589166664,162.60473255833332,71.0,93.0
627,162.48806589166665,163.67639922499998,59.0,73.0
628,163.28806589166666,163.85973255833332,71.0,84.0
629,162.88806589166666,164.17306589166665,66.0,80.0
630,162.08806589166664,164.59806589166666,47.0,80.0
631,164.48806589166665,164.70306589166665,68.0,84.0
632,164.08806589166664,164.81306589166667,59.0,57.0
633,165.28806589166666,165.621399225,61.0,77.0
634,165.28806589166666,165.69306589166666,66.0,79.0
635,165.68806589166667,166.316399225,61.0,71.0
636,166.08806589166664,166.51473255833332,66.0,76.0
637,166.48806589166665,166.77806589166664,70.0,90.0
638,165.28806589166666,166.79973255833332,58.0,79.0
639,167.68806589166667,167.98806589166665,68.0,84.0
640,167.68806589166667,167.996399225,60.0,84.0
641,167.68806589166667,167.996399225,63.0,83.0
642,167.68806589166667,168.076399225,44.0,80.0
643,168.08806589166664,168.43973255833333,56.0,61.0
644,168.48806589166665,168.92473255833332,59.0,78.0
645,168.48806589166665,168.94473255833333,64.0,84.0
646,168.48806589166665,169.11639922499998,71.0,93.0
647,169.28806589166666,169.93806589166667,64.0,84.0
648,169.68806589166667,170.02639922499998,71.0,90.0
649,168.48806589166665,171.071399225,49.0,82.0
650,170.48806589166665,171.15973255833333,59.0,42.0
651,168.88806589166666,171.20639922499998,56.0,62.0
652,170.88806589166666,171.27806589166664,75.0,83.0
653,170.88806589166666,171.29973255833332,68.0,78.0
654,171.68806589166667,172.05306589166665,75.0,79.0
655,171.68806589166667,172.156399225,66.0,72.0
656,172.08806589166664,172.41973255833332,73.0,84.0
657,172.48806589166665,172.87473255833333,71.0,90.0
658,172.08806589166664,173.226399225,59.0,73.0
659,172.88806589166666,173.341399225,70.0,79.0
660,173.28806589166666,173.681399225,71.0,84.0
661,171.68806589166667,173.69973255833332,56.0,59.0
662,173.68806589166667,174.12806589166667,59.0,83.0
663,174.08806589166664,174.44973255833332,75.0,91.0
664,174.08806589166664,174.566399225,54.0,83.0
665,174.48806589166665,174.69973255833332,71.0,84.0
666,174.48806589166665,174.80306589166665,59.0,84.0
667,174.88806589166666,175.77806589166664,68.0,83.0
668,175.68806589166667,176.49306589166665,64.0,79.0
669,176.08806589166664,176.60306589166666,68.0,78.0
670,176.88806589166666,177.02806589166664,66.0,78.0
671,175.28806589166666,177.541399225,59.0,79.0
672,177.28806589166666,177.541399225,64.0,73.0
673,177.28806589166666,177.57473255833332,68.0,76.0
674,177.28806589166666,177.63473255833333,71.0,83.0
675,174.88806589166666,177.82806589166665,52.0,82.0
676,177.68806589166667,178.05973255833334,59.0,80.0
677,178.08806589166664,178.63806589166666,73.0,90.0
678,178.08806589166664,178.6497325583333,66.0,83.0
679,178.48806589166665,179.096399225,59.0,78.0
680,178.88806589166666,179.20806589166665,63.0,76.0
681,178.88806589166666,179.60306589166666,71.0,91.0
682,179.28806589166666,179.73806589166665,66.0,84.0
683,179.68806589166667,180.14806589166665,59.0,69.0
684,180.08806589166664,180.59806589166666,63.0,82.0
685,180.48806589166665,180.76473255833332,64.0,86.0
686,180.28806589166666,180.7747325583333,59.0,79.0
687,178.08806589166664,180.846399225,51.0,82.0
688,180.68806589166667,180.84806589166666,66.0,79.0
689,180.88806589166666,181.14473255833332,68.0,79.0
690,181.08806589166664,181.791399225,71.0,83.0
691,181.28806589166666,181.83139922499998,61.0,78.0
692,181.28806589166666,181.84473255833333,64.0,80.0
693,181.28806589166666,182.09306589166667,49.0,90.0
694,181.68806589166667,182.226399225,56.0,77.0
695,182.48806589166665,182.621399225,47.0,90.0
696,182.08806589166664,182.7747325583333,61.0,86.0
697,182.88806589166666,183.37806589166667,68.0,90.0
698,182.88806589166666,183.441399225,64.0,90.0
699,182.88806589166666,183.47473255833333,61.0,81.0
700,183.28806589166666,183.99306589166667,58.0,73.0
701,182.88806589166666,184.14306589166665,46.0,98.0
702,183.68806589166667,184.15139922499998,61.0,84.0
703,184.08806589166664,184.421399225,68.0,93.0
704,184.48806589166665,184.81306589166667,63.0,82.0
705,184.48806589166665,184.83306589166665,39.0,91.0
706,184.48806589166665,184.95306589166665,67.0,83.0
707,184.88806589166666,185.18473255833334,63.0,78.0
708,184.88806589166666,185.31306589166667,51.0,68.0
709,184.88806589166666,185.33639922499998,68.0,84.0
710,185.28806589166666,185.60473255833332,63.0,69.0
711,185.28806589166666,185.616399225,70.0,99.0
712,186.08806589166664,186.23473255833332,67.0,82.0
713,185.68806589166667,186.24306589166667,58.0,80.0
714,186.08806589166664,186.26306589166666,79.0,94.0
715,186.08806589166664,186.56806589166666,63.0,58.0
716,186.48806589166665,186.601399225,68.0,73.0
717,186.48806589166665,186.656399225,80.0,90.0
718,186.88806589166666,186.991399225,71.0,84.0
719,186.88806589166666,187.00973255833333,82.0,94.0
720,186.88806589166666,187.136399225,63.0,77.0
721,186.48806589166665,187.256399225,58.0,74.0
722,185.28806589166666,187.311399225,55.0,79.0
723,187.28806589166666,187.36973255833334,78.0,82.0
724,187.28806589166666,187.3997325583333,83.0,83.0
725,187.68806589166667,187.816399225,75.0,67.0
726,187.68806589166667,187.82806589166665,87.0,84.0
727,188.08806589166664,188.83306589166665,54.0,77.0
728,188.48806589166665,188.991399225,59.0,84.0
729,188.88806589166666,189.11806589166667,63.0,79.0
730,188.88806589166666,189.26973255833332,71.0,94.0
731,189.28806589166666,189.38973255833332,71.0,50.0
732,189.28806589166666,189.49806589166667,63.0,81.0
733,189.28806589166666,189.516399225,66.0,83.0
734,189.68806589166667,190.18806589166667,54.0,73.0
735,187.68806589166667,190.37473255833333,47.0,81.0
736,190.08806589166664,190.406399225,59.0,72.0
737,190.08806589166664,190.45806589166665,66.0,84.0
738,190.08806589166664,190.53806589166666,75.0,90.0
739,190.48806589166665,190.77639922499998,54.0,81.0
740,190.68806589166667,190.84806589166666,75.0,81.0
741,190.88806589166666,191.42473255833332,46.0,86.0
742,191.28806589166666,191.47806589166666,54.0,75.0
743,191.48806589166665,191.74473255833334,58.0,68.0
744,190.88806589166666,191.886399225,66.0,84.0
745,190.88806589166666,191.906399225,73.0,90.0
746,191.88806589166666,192.16473255833333,63.0,84.0
747,191.68806589166667,192.166399225,61.0,79.0
748,192.08806589166664,192.25806589166666,66.0,82.0
749,192.28806589166666,192.441399225,73.0,84.0
750,192.48806589166665,192.78806589166666,66.0,79.0
751,192.88806589166666,192.906399225,73.0,49.0
752,192.48806589166665,192.91973255833332,75.0,84.0
753,192.88806589166666,192.996399225,66.0,84.0
754,192.48806589166665,192.99806589166667,46.0,91.0
755,192.88806589166666,193.011399225,58.0,83.0
756,193.28806589166666,193.66973255833332,63.0,82.0
757,193.28806589166666,193.686399225,68.0,90.0
758,193.28806589166666,193.69973255833332,60.0,84.0
759,193.28806589166666,193.73306589166666,44.0,84.0
760,193.68806589166667,194.001399225,56.0,84.0
761,194.08806589166664,194.53473255833333,64.0,90.0
762,194.08806589166664,194.74306589166667,59.0,94.0
763,194.08806589166664,194.81473255833333,71.0,84.0
764,194.48806589166665,195.02306589166665,56.0,76.0
765,194.88806589166666,195.06973255833333,59.0,86.0
766,195.08806589166664,195.34806589166666,64.0,78.0
767,194.08806589166664,195.36806589166667,49.0,90.0
768,195.28806589166666,195.39473255833332,66.0,83.0
769,195.28806589166666,195.62473255833333,56.0,72.0
770,195.48806589166665,195.78973255833333,68.0,83.0
771,195.68806589166667,195.91973255833332,76.0,84.0
772,195.88806589166666,196.036399225,75.0,84.0
773,196.08806589166664,196.256399225,71.0,84.0
774,196.28806589166666,196.43473255833334,68.0,80.0
775,196.08806589166664,196.61806589166667,56.0,67.0
776,196.48806589166665,196.67806589166668,64.0,83.0
777,196.48806589166665,196.70806589166665,61.0,77.0
778,196.68806589166667,196.96139922499998,63.0,86.0
779,195.68806589166667,196.97473255833333,49.0,82.0
780,196.88806589166666,196.98806589166665,56.0,79.0
781,196.88806589166666,197.17306589166665,64.0,84.0
782,197.08806589166664,197.21639922499998,66.0,79.0
783,197.28806589166666,197.76973255833332,68.0,80.0
784,197.28806589166666,197.81973255833333,59.0,91.0
785,197.28806589166666,198.06973255833333,44.0,83.0
786,197.68806589166667,198.10973255833332,51.0,78.0
787,198.08806589166664,198.1497325583333,59.0,80.0
788,198.08806589166664,198.15306589166664,63.0,84.0
789,198.08806589166664,198.19306589166666,68.0,86.0
790,198.08806589166664,198.556399225,56.0,72.0
791,198.48806589166665,198.96973255833333,58.0,80.0
792,198.88806589166666,199.10973255833332,75.0,83.0
793,198.88806589166666,199.13806589166666,66.0,82.0
794,198.88806589166666,199.35473255833332,59.0,84.0
795,199.28806589166666,199.52139922499998,73.0,79.0
796,199.28806589166666,199.56973255833333,64.0,84.0
797,199.68806589166667,199.89639922499998,71.0,96.0
798,199.68806589166667,199.931399225,63.0,94.0
799,199.28806589166666,200.03473255833333,58.0,79.0
800,200.08806589166664,200.21306589166664,61.0,84.0
801,200.08806589166664,200.21306589166664,70.0,94.0
802,200.48806589166665,200.936399225,64.0,82.0
803,200.48806589166665,200.966399225,68.0,83.0
804,200.48806589166665,200.96806589166667,71.0,90.0
805,200.48806589166665,201.01806589166665,59.0,86.0
806,201.28806589166666,201.3997325583333,71.0,75.0
807,200.88806589166666,201.476399225,52.0,54.0
808,201.28806589166666,201.67973255833334,64.0,90.0
809,201.28806589166666,201.70473255833332,68.0,82.0
810,201.28806589166666,201.71973255833333,59.0,86.0
811,201.68806589166667,202.20473255833332,52.0,52.0
812,202.08806589166664,202.48806589166665,59.0,82.0
813,202.08806589166664,202.501399225,66.0,81.0
814,202.48806589166665,202.906399225,52.0,76.0
815,202.88806589166666,203.126399225,59.0,94.0
816,202.88806589166666,203.17639922499998,64.0,96.0
817,203.08806589166664,203.27306589166665,52.0,80.0
818,200.48806589166665,203.33639922499998,40.0,86.0
819,203.28806589166666,203.436399225,59.0,76.0
820,203.68806589166667,204.15139922499998,59.0,84.0
821,203.68806589166667,204.24473255833334,66.0,79.0
822,203.68806589166667,204.281399225,63.0,84.0
823,203.68806589166667,204.39473255833332,47.0,80.0
824,204.08806589166664,204.566399225,51.0,82.0
825,204.48806589166665,204.806399225,66.0,76.0
826,204.48806589166665,204.82806589166665,61.0,82.0
827,204.88806589166666,204.91973255833332,61.0,47.0
828,204.88806589166666,205.25973255833333,63.0,81.0
829,204.88806589166666,205.26973255833332,66.0,81.0
830,205.28806589166666,205.86473255833334,59.0,76.0
831,205.68806589166667,205.931399225,63.0,80.0
832,205.88806589166666,206.2147325583333,66.0,83.0
833,206.08806589166664,206.40306589166664,59.0,84.0
834,204.88806589166666,206.466399225,54.0,71.0
835,204.48806589166665,206.47306589166666,47.0,77.0
836,206.28806589166666,206.52139922499998,64.0,91.0
837,206.48806589166665,206.65306589166664,63.0,78.0
838,206.88806589166666,207.50473255833333,59.0,94.0
839,206.88806589166666,207.511399225,64.0,86.0
840,206.88806589166666,207.76473255833332,56.0,75.0
841,207.68806589166667,208.0897325583333,64.0,94.0
842,206.88806589166666,208.14639922499998,49.0,84.0
843,208.08806589166664,208.20473255833332,56.0,79.0
844,207.68806589166667,208.21139922499998,59.0,91.0
845,208.48806589166665,209.001399225,61.0,84.0
846,208.48806589166665,209.01306589166666,64.0,91.0
847,208.88806589166666,209.2747325583333,58.0,73.0
848,209.28806589166666,209.72473255833333,61.0,93.0
849,208.48806589166665,209.77806589166664,46.0,91.0
850,209.68806589166667,209.786399225,58.0,90.0
851,209.28806589166666,209.971399225,64.0,99.0
852,209.88806589166666,210.11340373541665,63.0,52.0
853,210.08806589166664,210.50022814999997,39.0,86.0
854,210.49347139166665,210.92928230416663,51.0,82.0
855,210.08806589166664,211.2873904958333,70.0,90.0
856,210.08806589166664,211.3836743020833,67.0,62.0
857,211.70968789166665,211.87353928124998,63.0,84.0
858,211.91239064166663,212.1319852875,68.0,75.0
859,212.11509339166665,212.19617449166665,70.0,84.0
860,212.31779614166663,212.44617454999997,75.0,83.0
861,211.30428239166665,212.5998908020833,58.0,81.0
862,210.89887689166665,212.64887729999998,56.0,79.0
863,212.52049889166665,212.7671205708333,80.0,76.0
864,212.72320164166663,213.00191792291665,82.0,78.0
865,212.92590439166665,213.12860714166663,85.0,77.0
866,213.12860714166663,213.20968824166664,87.0,84.0
867,213.73130989166665,213.96464322499997,71.0,84.0
868,213.73130989166665,213.97797655833332,59.0,60.0
869,213.73130989166665,213.98130989166665,66.0,84.0
870,213.73130989166665,213.98630989166665,63.0,80.0
871,213.73130989166665,213.9979765583333,47.0,81.0
872,214.13130989166666,214.34130989166664,47.0,81.0
873,214.13130989166666,214.34797655833333,66.0,80.0
874,214.13130989166666,214.349643225,59.0,75.0
875,214.13130989166666,214.36297655833332,63.0,76.0
876,214.13130989166666,214.36630989166665,71.0,84.0
877,214.53130989166664,215.15464322499997,59.0,93.0
878,214.53130989166664,215.44130989166666,71.0,91.0
879,214.53130989166664,215.45630989166665,63.0,81.0
880,214.53130989166664,215.47297655833333,66.0,83.0
881,215.53130989166664,215.85630968125,59.0,4.0
882,214.53130989166664,215.90912649375,47.0,86.0
883,215.73130989166665,216.21370344583332,66.0,93.0
884,215.73130989166665,216.2242668083333,63.0,84.0
885,216.15384439166667,216.22778792916665,59.0,78.0
886,215.73130989166665,216.22778792916665,71.0,93.0
887,216.15384439166667,216.26828081875,47.0,90.0
888,216.99891339166666,217.22074400416665,54.0,50.0
889,216.99891339166666,217.44028348958332,70.0,77.0
890,216.99891339166666,217.54131078749998,61.0,72.0
891,216.99891339166666,217.54473544166663,66.0,78.0
892,217.42144789166665,217.78788588749998,54.0,60.0
893,217.83240639166664,218.06870752916666,61.0,78.0
894,217.83240639166664,218.08583079999997,68.0,83.0
895,218.03788564166663,218.09439243541664,70.0,71.0
896,216.99891339166666,218.13891293958332,42.0,84.0
897,218.03788564166663,218.13891293958332,66.0,79.0
898,218.24336489166666,218.28941754166667,66.0,70.0
899,218.24336489166666,218.50981236666667,54.0,78.0
900,218.24336489166666,218.65454926666666,70.0,94.0
901,218.24336489166666,218.67099664166665,61.0,80.0
902,218.63810189166665,218.68086506666666,66.0,58.0
903,218.63810189166665,218.78777300416667,54.0,62.0
904,218.83547039166666,219.14632577916666,73.0,94.0
905,218.83547039166666,219.15619420416667,61.0,83.0
906,218.83547039166666,219.18908895416666,66.0,83.0
907,219.03283889166667,219.21704949166667,54.0,82.0
908,219.23020739166665,219.35849691666667,68.0,83.0
909,219.23020739166665,219.37987850416667,70.0,80.0
910,219.42757589166666,219.50158907916665,54.0,61.0
911,219.23020739166665,219.50816802916665,61.0,83.0
912,218.24336489166666,219.55257594166665,42.0,86.0
913,219.82231289166666,220.20435450208333,49.0,79.0
914,219.82231289166666,220.2694952375,68.0,90.0
915,219.82231289166666,220.37864998333333,59.0,93.0
916,219.82231289166666,220.4173823125,64.0,84.0
917,220.24484739166667,220.64977628749998,49.0,62.0
918,220.66738189166665,221.01873332499997,64.0,83.0
919,220.66738189166665,221.02549008333332,59.0,84.0
920,220.66738189166665,221.04576035833333,68.0,84.0
921,221.07278739166665,221.19947661041664,59.0,38.0
922,221.07278739166665,221.37684151666664,66.0,83.0
923,221.07278739166665,221.5727875083333,49.0,62.0
924,221.47819289166665,221.86839568541666,68.0,83.0
925,221.47819289166665,221.96805787083332,59.0,84.0
926,221.47819289166665,221.9781930083333,64.0,83.0
927,221.88359839166665,222.25522009999997,49.0,55.0
928,222.28900389166665,222.45116609166666,59.0,86.0
929,222.28900389166665,222.47312555624998,64.0,86.0
930,222.28900389166665,222.50184177916665,68.0,82.0
931,219.82231289166666,222.52211205416666,37.0,84.0
932,222.49170664166664,222.72988237291665,49.0,79.0
933,222.69440939166665,222.85150402291666,66.0,75.0
934,222.89711214166664,223.12008516666666,68.0,78.0
935,223.09981489166665,223.4207609125,63.0,78.0
936,223.09981489166665,223.52549066666666,71.0,90.0
937,223.50522039166665,223.60995014583332,63.0,74.0
938,223.50522039166665,223.67751772916665,70.0,83.0
939,223.70792314166664,223.94609887291665,63.0,82.0
940,223.70792314166664,223.98326104375,71.0,90.0
941,223.91062589166665,224.1217745895833,56.0,61.0
942,224.11332864166664,224.20454487916666,61.0,84.0
943,224.11332864166664,224.21636920625,70.0,86.0
944,224.31603139166666,224.57109901874998,56.0,52.0
945,223.50522039166665,224.77718014791665,51.0,72.0
946,224.51873414166664,224.84136935208332,68.0,91.0
947,224.51873414166664,224.93934234791666,59.0,83.0
948,224.92413964166664,225.34474784791666,56.0,76.0
949,225.12684239166666,225.34474784791666,58.0,86.0
950,225.32954514166664,225.4342748958333,59.0,80.0
951,224.92413964166664,225.6268425083333,51.0,11.0
952,225.53224789166666,225.76704524374998,63.0,84.0
953,225.73495064166664,225.77718038125,70.0,58.0
954,225.53224789166666,225.81772093125,56.0,57.0
955,225.73495064166664,225.8599506708333,68.0,60.0
956,225.93765339166666,225.96974799375,68.0,38.0
957,223.09981489166665,225.98495069999998,44.0,80.0
958,225.93765339166666,226.04069395624998,51.0,80.0
959,225.93765339166666,226.1082615395833,70.0,84.0
960,226.34305889166666,226.79745088958333,64.0,83.0
961,226.34305889166666,226.8177211645833,68.0,83.0
962,226.34305889166666,226.82109954375,59.0,86.0
963,226.14035614166664,227.01197796666665,71.0,86.0
964,226.74846439166666,227.31603209166664,52.0,37.0
965,227.15386989166666,227.61670783749997,68.0,80.0
966,227.15386989166666,227.62008621666666,64.0,82.0
967,227.15386989166666,227.67245109375,59.0,84.0
968,227.55927539166666,228.0744782145833,52.0,50.0
969,227.96468089166666,228.44609992291666,64.0,83.0
970,227.96468089166666,228.4596134395833,59.0,80.0
971,227.96468089166666,228.47312695624998,68.0,80.0
972,228.37008639166666,228.79407297708332,52.0,70.0
973,228.77549189166666,229.01366762291664,59.0,86.0
974,228.77549189166666,229.06265412083332,66.0,90.0
975,228.97819464166665,229.17582982291665,52.0,62.0
976,226.34305889166666,229.2146811833333,40.0,84.0
977,229.18089739166666,229.34812716041665,64.0,81.0
978,229.38360014166665,229.52718125624997,66.0,75.0
979,229.58630289166666,230.06772192291666,66.0,80.0
980,229.58630289166666,230.06941111249998,63.0,82.0
981,229.58630289166666,230.08630300833332,59.0,81.0
982,229.99170839166666,230.57447879791664,51.0,59.0
983,230.39711389166666,230.67076260416664,63.0,83.0
984,230.39711389166666,230.67414098333333,66.0,82.0
985,230.39711389166666,230.70285720624997,59.0,82.0
986,230.80251939166666,231.36839790208333,51.0,54.0
987,231.20792489166666,231.64880337291666,59.0,86.0
988,231.20792489166666,231.680897975,66.0,84.0
989,231.20792489166666,231.71637095625,54.0,80.0
990,231.61333039166664,232.05758725208332,51.0,56.0
991,232.01873589166667,232.41569544375,66.0,84.0
992,232.01873589166667,232.44779004583333,54.0,83.0
993,232.01873589166667,232.47650626874997,59.0,93.0
994,229.58630289166666,232.48157383749998,39.0,91.0
995,232.42414139166664,232.5491414208333,51.0,80.0
996,232.82954689166667,233.22621355833334,64.0,84.0
997,232.82954689166667,233.24621355833332,68.0,82.0
998,233.22954689166667,233.52954689166666,63.0,69.0
999,233.22954689166667,233.56954689166668,66.0,80.0
1000,233.62954689166668,233.65454689166666,63.0,47.0
1001,233.62954689166668,233.69454689166668,64.0,83.0
1002,233.22954689166667,233.73454689166667,56.0,68.0
1003,233.62954689166668,233.74954689166665,68.0,81.0
1004,233.62954689166668,234.06954689166668,61.0,79.0
1005,232.82954689166667,234.132880225,49.0,86.0
1006,234.02954689166666,234.247880225,56.0,81.0
1007,234.02954689166666,234.26121355833334,68.0,79.0
1008,234.02954689166666,234.337880225,76.0,90.0
1009,234.42954689166666,234.727880225,68.0,80.0
1010,234.42954689166666,234.80954689166666,75.0,86.0
1011,234.42954689166666,234.877880225,46.0,91.0
1012,234.82954689166667,235.09954689166668,68.0,75.0
1013,234.82954689166667,235.17454689166667,73.0,83.0
1014,234.82954689166667,235.252880225,56.0,57.0
1015,235.22954689166667,235.477880225,58.0,80.0
1016,235.22954689166667,235.58121355833333,71.0,94.0
1017,235.62954689166668,235.97454689166668,68.0,90.0
1018,236.02954689166666,236.382880225,39.0,84.0
1019,236.42954689166666,236.882880225,51.0,71.0
1020,236.02954689166666,237.05954689166666,70.0,94.0
1021,237.62954689166668,238.1175601104167,63.0,83.0
1022,238.04050539166667,238.39324477083335,68.0,79.0
1023,237.22954689166667,238.51310766666668,58.0,83.0
1024,236.82954689166667,238.5387925729167,56.0,76.0
1025,238.4514638916667,238.55249118958335,70.0,80.0
1026,238.86242239166668,239.07132629583333,75.0,79.0
1027,239.27338089166668,239.61584630833335,83.0,80.0
1028,239.68433939166667,240.05762669583333,82.0,77.0
1029,239.68433939166667,240.37954418750002,63.0,68.0
1030,240.0952978916667,240.48057148541668,75.0,68.0
1031,240.0952978916667,240.48742079375,68.0,57.0
1032,239.27338089166668,240.5884480916667,56.0,57.0
1033,240.0952978916667,240.65351652083334,83.0,79.0
1034,240.71173564166668,241.02166684375,73.0,58.0
1035,240.91721489166667,241.15180370208336,78.0,68.0
1036,240.91721489166667,241.24084471041667,82.0,80.0
1037,241.7391318916667,241.98741931875,66.0,56.0
1038,241.32817339166667,242.07988498125002,63.0,60.0
1039,241.7391318916667,242.07988498125002,73.0,78.0
1040,240.91721489166667,242.08330963541667,54.0,71.0
1041,242.15009039166668,242.64152826458334,70.0,75.0
1042,242.56104889166667,243.39495218125,71.0,83.0
1043,243.3829658916667,243.60385608541668,64.0,58.0
1044,242.97200739166666,243.76823948541667,59.0,56.0
1045,243.3829658916667,243.77166413958335,73.0,80.0
1046,242.56104889166667,243.79906137291667,52.0,71.0
1047,243.3829658916667,243.80933533541668,66.0,60.0
1048,243.79392439166668,244.16378704166667,75.0,73.0
1049,244.20488289166667,244.65693724166667,71.0,79.0
1050,244.20488289166667,244.83159460416667,66.0,61.0
1051,245.02679989166668,245.28193662708335,63.0,39.0
1052,244.61584139166666,245.32645713125,59.0,41.0
1053,244.20488289166667,245.34015574791667,51.0,77.0
1054,245.84871689166667,246.22029186875,68.0,72.0
1055,245.84871689166667,246.2442644479167,59.0,62.0
1056,245.84871689166667,246.2562507375,64.0,77.0
1057,245.84871689166667,246.93604458958333,49.0,68.0
1058,246.67063389166668,247.05933213958335,59.0,79.0
1059,246.2596753916667,247.08330471875001,56.0,62.0
1060,247.08159239166667,247.46172900416667,68.0,73.0
1061,247.49255089166667,249.07816577083335,67.0,73.0
1062,247.49255089166667,249.10042602291668,51.0,55.0
1063,247.49255089166667,249.10042602291668,58.0,75.0
1064,247.49255089166667,250.02165799375,63.0,44.0
1065,249.3418641416667,250.16891812291666,71.0,75.0
1066,249.95830189166668,250.30076730833335,70.0,71.0
1067,249.95830189166668,250.4891232875,51.0,62.0
1068,249.5473433916667,250.49426026875,44.0,63.0
1069,250.36926039166667,250.5302191375,56.0,25.0
1070,250.36926039166667,251.09699940208336,68.0,62.0
1071,251.19117739166668,251.49939626666668,63.0,48.0
1072,251.60213589166668,251.71343715208334,66.0,59.0
1073,252.47028572291669,254.07302387291668,61.0,69.0
1074,252.47371037708334,254.18774978750002,64.0,74.0
1075,252.46686106875,254.20316073125002,68.0,72.0
1076,252.47884735833335,254.37096878541666,49.0,79.0
1077,254.41035230833333,257.47199313333334,67.0,67.0
1078,254.40692765416668,257.50795200208336,61.0,57.0
1079,254.41548928958335,257.58158206666667,70.0,71.0
1080,254.40521532708334,257.73569150416665,51.0,69.0
