,start,end,pitch,velocity
0,24.082413895833334,24.285871064583333,73.0,117.0
1,24.401562395833334,24.585072783333334,73.0,102.0
2,24.72071089583333,24.958742485416668,73.0,117.0
3,25.039859395833332,25.293848410416665,75.0,112.0
4,25.359007895833333,25.905549702083334,77.0,89.0
5,25.678156395833334,25.952092191666665,75.0,117.0
6,25.997304895833334,26.3377299625,73.0,100.0
7,26.31645339583333,26.590389191666667,75.0,99.0
8,26.635601895833332,27.174164989583332,70.0,96.0
9,29.188789895833334,29.34969393125,73.0,112.0
10,29.50793839583333,29.638257366666668,73.0,112.0
11,29.827086895833332,30.1675119625,73.0,82.0
12,30.146235395833333,30.43479883125,75.0,100.0
13,30.465383895833334,30.616979433333334,77.0,89.0
14,30.784532395833335,31.063787333333334,80.0,122.0
15,31.10368089583333,31.398893258333334,82.0,112.0
16,31.422829395833332,31.748626822916666,80.0,107.0
17,31.741977895833333,32.347030260416666,77.0,107.0
18,34.295165895833335,34.41617636875,75.0,127.0
19,34.61431439583333,34.777878002083334,75.0,99.0
20,34.93346289583333,35.106335,75.0,100.0
21,35.252611395833334,35.438781354166665,73.0,102.0
22,35.57175989583333,36.430801275,75.0,122.0
23,36.52920539583333,36.74463063333333,80.0,117.0
24,36.848353895833334,37.25526823333333,77.0,99.0
25,37.486650895833336,37.82574617708333,75.0,117.0
26,37.80579939583333,38.1143096125,73.0,93.0
27,38.12494789583333,39.0717551125,70.0,122.0
28,39.40154189583333,39.52122258333333,82.0,127.0
29,39.72069039583333,39.81776473125,82.0,112.0
30,40.039838895833334,40.203402502083335,82.0,107.0
31,40.35898739583333,40.473348941666664,80.0,99.0
32,40.678135895833336,40.835050575,82.0,107.0
33,40.99728439583333,41.108986370833335,80.0,112.0
34,41.31643289583333,41.9440916125,77.0,102.0
35,41.95472989583333,43.906854887499996,75.0,107.0
36,44.50791789583333,44.711375064583336,73.0,117.0
37,44.827066395833334,45.010576783333335,73.0,102.0
38,45.14621489583333,45.38424648541667,73.0,117.0
39,45.465363395833336,45.71935241041667,75.0,112.0
40,45.78451189583333,46.33105370208333,77.0,89.0
41,46.10366039583333,46.37759619166667,75.0,117.0
42,46.422808895833334,46.7632339625,73.0,100.0
43,46.74195739583333,47.01589319166666,75.0,99.0
44,47.061105895833336,49.04780530833333,70.0,96.0
45,49.614293895833335,49.77519793125,73.0,112.0
46,49.93344239583333,50.06376136666667,73.0,112.0
47,50.252590895833336,50.5930159625,73.0,82.0
48,50.57173939583333,50.86030283125,75.0,100.0
49,50.89088789583333,51.04248343333333,77.0,89.0
50,51.210036395833335,51.489291333333334,80.0,122.0
51,51.52918489583333,51.824397258333335,82.0,112.0
52,51.848333395833336,52.174130822916666,80.0,107.0
53,52.16748189583333,54.317744914583336,77.0,107.0
54,54.72066989583333,54.84168036875,75.0,127.0
55,55.039818395833336,55.20338200208333,75.0,99.0
56,55.35896689583333,55.531839,75.0,100.0
57,55.67811539583333,55.86428535416667,73.0,102.0
58,55.997263895833335,56.856305275,75.0,122.0
59,56.95470939583333,57.17013463333333,80.0,117.0
60,57.27385789583333,57.680772233333336,77.0,99.0
61,57.91215489583333,58.251250177083335,75.0,117.0
62,58.231303395833336,58.5398136125,73.0,93.0
63,58.55045189583333,59.4972591125,70.0,122.0
64,59.827045895833336,59.94672658333333,82.0,127.0
65,60.146194395833334,60.24326873125,82.0,112.0
66,60.46534289583333,60.62890650208333,82.0,107.0
67,60.784491395833335,61.00789534583333,80.0,122.0
68,61.10363989583333,61.3642778375,82.0,107.0
69,61.42278839583334,61.62225620833333,80.0,112.0
70,61.741936895833334,61.98528762708333,75.0,122.0
71,62.06108539583333,62.51188265208333,77.0,95.0
72,62.380233895833335,64.03315716875,73.0,97.0
73,64.93342189583333,65.0424643,89.0,127.0
74,65.25257039583333,65.36028301458333,89.0,99.0
75,65.57171889583333,65.69937829583333,89.0,107.0
76,65.89086739583334,66.01320765416666,87.0,117.0
77,66.21001589583334,66.31240937291666,85.0,112.0
78,66.52916439583333,66.65549401041666,87.0,107.0
79,66.84831289583333,67.12091890625,85.0,122.0
80,67.16746139583333,67.420120625,84.0,122.0
81,67.48660989583334,68.505225525,82.0,112.0
82,69.72064939583333,69.92410656458333,82.0,99.0
83,70.03979789583333,70.2206487125,85.0,112.0
84,70.35894639583333,70.51187171875,85.0,122.0
85,70.67809489583334,70.8589457125,85.0,112.0
86,70.99724339583334,71.22463670208333,87.0,112.0
87,71.31639189583333,71.53447670416666,85.0,127.0
88,71.63554039583333,71.8642634875,84.0,122.0
89,71.95468889583333,72.16346520625,82.0,107.0
90,72.27383739583334,72.50123070208333,84.0,93.0
91,72.59298589583334,74.51585560833334,80.0,107.0
92,75.14617389583333,75.31372685833334,78.0,107.0
93,75.46532239583334,75.61026900625,78.0,97.0
94,75.78447089583334,75.94537493125,78.0,107.0
95,76.10361939583333,76.26718300208333,77.0,97.0
96,76.42276789583333,77.090320175,75.0,102.0
97,77.06106489583334,77.67675554375,77.0,96.0
98,77.69936189583333,79.37223195,70.0,92.0
99,79.93340139583333,80.16478405833334,70.0,102.0
100,80.25254989583333,80.41611350208333,75.0,107.0
101,80.57169839583334,80.71265565,75.0,122.0
102,80.89084689583333,81.08499556666666,75.0,107.0
103,81.20999539583333,81.45201634166666,77.0,102.0
104,81.52914389583333,81.72329256666667,78.0,127.0
105,81.84829239583333,82.07302613125,85.0,112.0
106,82.16744089583334,82.4280788375,84.0,97.0
107,82.48658939583333,82.69403592083333,82.0,117.0
108,82.80573789583333,84.77515009791667,80.0,107.0
109,85.35892589583334,85.4679683,89.0,127.0
110,85.67807439583333,85.78578701458333,89.0,99.0
111,85.99722289583333,86.12488229583333,89.0,107.0
112,86.31637139583333,86.43871165416667,87.0,117.0
113,86.63551989583333,86.73791337291667,85.0,112.0
114,86.95466839583334,87.08099801041666,87.0,107.0
115,87.27381689583333,87.54642290625,85.0,122.0
116,87.59296539583333,87.845624625,84.0,122.0
117,87.91211389583333,88.930729525,82.0,112.0
118,90.14615339583334,90.34961056458333,82.0,99.0
119,90.46530189583333,90.6461527125,85.0,112.0
120,90.78445039583333,90.93737571875,85.0,122.0
121,91.10359889583333,91.2844497125,85.0,112.0
122,91.42274739583333,91.65014070208333,87.0,112.0
123,91.74189589583334,91.95998070416667,85.0,127.0
124,92.06104439583333,92.2897674875,84.0,122.0
125,92.38019289583333,92.58896920625,82.0,107.0
126,92.69934139583333,92.92673470208334,84.0,93.0
127,93.01848989583333,94.94135960833333,80.0,107.0
128,95.57167789583333,95.73923085833333,78.0,107.0
129,95.89082639583333,96.03577300625,78.0,97.0
130,96.20997489583333,96.37087893125,78.0,107.0
131,96.52912339583334,96.69268700208333,77.0,97.0
132,96.84827189583334,97.515824175,75.0,102.0
133,97.48656889583333,98.10225954375,77.0,96.0
134,98.12486589583334,99.79773595,70.0,92.0
135,100.03975689583334,100.19534178958334,70.0,102.0
136,100.35890539583333,100.54640513958333,73.0,117.0
137,100.67805389583333,100.78443672916667,75.0,97.0
138,100.99720239583333,101.09693630208334,75.0,107.0
139,101.31635089583334,101.40810608958333,75.0,122.0
140,101.63549939583334,101.86555227291666,77.0,97.0
141,101.95464789583333,102.16342420625,78.0,112.0
142,102.59294489583333,102.86688069166667,84.0,102.0
143,102.91209339583334,103.19799726041667,82.0,107.0
144,103.23124189583334,104.61953787083333,80.0,97.0
145,105.78442989583333,105.9174084375,89.0,122.0
146,106.10357839583334,106.2365569375,89.0,112.0
147,106.42272689583334,106.55304586666666,89.0,117.0
148,106.74187539583333,106.90144964583334,89.0,122.0
149,107.06102389583333,107.21527900416666,89.0,112.0
150,107.38017239583333,107.55703385625,89.0,122.0
151,107.69932089583334,107.90543763541666,87.0,107.0
152,108.01846939583334,108.20330956875,85.0,117.0
153,108.33761789583333,108.73389395,87.0,122.0
154,108.97591489583333,109.21926562708333,85.0,107.0
155,109.29506339583334,109.55703112291667,84.0,92.0
156,109.61421189583334,110.32431730833333,82.0,107.0
157,110.89080589583334,111.06766735625,87.0,127.0
158,111.20995439583334,111.34027336666666,87.0,117.0
159,111.52910289583333,111.654102725,87.0,127.0
160,111.84825139583333,111.97990015208333,89.0,112.0
161,112.16739989583333,112.25782530416667,87.0,127.0
162,112.48654839583334,112.63282479166666,87.0,112.0
163,112.80569689583334,112.95995200416667,85.0,100.0
164,113.12484539583333,113.3615472,82.0,112.0
165,113.44399389583333,113.72324883333333,85.0,112.0
166,114.08229089583334,114.38415218541667,82.0,122.0
167,114.40143939583334,114.51979029791667,80.0,102.0
168,114.72058789583333,115.83228850416667,80.0,127.0
169,115.99718189583334,116.1301604375,78.0,117.0
170,116.31633039583333,116.44398979583333,78.0,112.0
171,116.63547889583333,116.77244679374999,78.0,117.0
172,116.95462739583333,117.13813778333333,77.0,95.0
173,117.27377589583334,117.54904147708334,75.0,102.0
174,117.59292439583334,117.83228577083334,80.0,100.0
175,117.91207289583333,118.22457246875,77.0,99.0
176,118.23122139583333,118.5397316125,75.0,96.0
177,118.55036989583333,120.11020818958333,73.0,92.0
178,141.52906189583334,141.73251906458333,73.0,117.0
179,141.84821039583332,142.03172078333333,73.0,102.0
180,142.16735889583333,142.40539048541666,73.0,117.0
181,142.48650739583334,142.74049641041665,75.0,112.0
182,142.80565589583333,143.35219770208334,77.0,89.0
183,143.12480439583334,143.39874019166666,75.0,117.0
184,143.44395289583332,143.7843779625,73.0,100.0
185,143.76310139583333,144.03703719166666,75.0,99.0
186,144.08224989583334,146.06894930833334,70.0,96.0
187,146.63543789583332,146.79634193125,73.0,112.0
188,146.95458639583333,147.08490536666667,73.0,112.0
189,147.27373489583334,147.6141599625,73.0,82.0
190,147.59288339583333,147.88144683125,75.0,100.0
191,147.91203189583334,148.06362743333332,77.0,89.0
192,148.23118039583332,148.51043533333333,80.0,122.0
193,148.55032889583333,148.84554125833333,82.0,112.0
194,148.86947739583334,149.19527482291667,80.0,107.0
195,149.18862589583333,151.33888891458332,77.0,107.0
196,151.74181389583333,151.86282436875,75.0,127.0
197,152.06096239583334,152.22452600208334,75.0,99.0
198,152.38011089583333,152.552983,75.0,100.0
199,152.69925939583334,152.88542935416666,73.0,102.0
200,153.01840789583332,153.877449275,75.0,122.0
201,153.97585339583333,154.19127863333333,80.0,117.0
202,154.29500189583334,154.70191623333332,77.0,99.0
203,154.93329889583333,155.27239417708333,75.0,117.0
204,155.25244739583334,155.5609576125,73.0,93.0
205,155.57159589583333,156.5184031125,70.0,122.0
206,156.84818989583334,156.96787058333334,82.0,127.0
207,157.16733839583333,157.26441273125,82.0,112.0
208,157.48648689583334,157.65005050208333,82.0,107.0
209,157.80563539583332,158.02903934583333,80.0,122.0
210,158.12478389583333,158.3854218375,82.0,107.0
211,158.44393239583334,158.64340020833333,80.0,112.0
212,158.76308089583333,159.00643162708334,75.0,122.0
213,159.08222939583334,159.53302665208332,77.0,95.0
214,159.40137789583332,161.05430116875,73.0,97.0
215,161.95456589583333,162.0636083,89.0,127.0
216,162.27371439583334,162.38142701458332,89.0,99.0
217,162.59286289583332,162.72052229583332,89.0,107.0
218,162.91201139583333,163.03435165416667,87.0,117.0
219,163.23115989583334,163.33355337291667,85.0,112.0
220,163.55030839583333,163.67663801041667,87.0,107.0
221,163.86945689583334,164.14206290625,85.0,122.0
222,164.18860539583332,164.441264625,84.0,122.0
223,164.50775389583333,165.526369525,82.0,112.0
224,166.74179339583333,166.94525056458332,82.0,99.0
225,167.06094189583334,167.2417927125,85.0,112.0
226,167.38009039583332,167.53301571875,85.0,122.0
227,167.69923889583333,167.8800897125,85.0,112.0
228,168.01838739583334,168.24578070208332,87.0,112.0
229,168.33753589583333,168.55562070416667,85.0,127.0
230,168.65668439583334,168.8854074875,84.0,122.0
231,168.97583289583332,169.18460920625,82.0,107.0
232,169.29498139583333,169.52237470208334,84.0,93.0
233,169.61412989583334,171.53699960833333,80.0,107.0
234,172.16731789583332,172.33487085833335,78.0,107.0
235,172.48646639583333,172.63141300625,78.0,97.0
236,172.80561489583334,172.96651893125,78.0,107.0
237,173.12476339583333,173.28832700208332,77.0,97.0
238,173.44391189583334,174.111464175,75.0,102.0
239,174.08220889583333,174.69789954375,77.0,96.0
240,174.72050589583333,176.39337595,70.0,92.0
241,176.95454539583332,177.18592805833333,70.0,102.0
242,177.27369389583333,177.43725750208333,75.0,107.0
243,177.59284239583334,177.73379965,75.0,122.0
244,177.91199089583333,178.10613956666666,75.0,107.0
245,178.23113939583334,178.47316034166667,77.0,102.0
246,178.55028789583332,178.74443656666668,78.0,127.0
247,178.86943639583333,179.09417013125,85.0,112.0
248,179.18858489583334,179.4492228375,84.0,97.0
249,179.50773339583333,179.71517992083332,82.0,117.0
250,179.82688189583334,181.79629409791667,80.0,107.0
251,182.38006989583334,182.4891123,89.0,127.0
252,182.69921839583333,182.80693101458334,89.0,99.0
253,183.01836689583334,183.14602629583334,89.0,107.0
254,183.33751539583332,183.45985565416666,87.0,117.0
255,183.65666389583333,183.75905737291666,85.0,112.0
256,183.97581239583334,184.10214201041666,87.0,107.0
257,184.29496089583333,184.56756690625,85.0,122.0
258,184.61410939583334,184.866768625,84.0,122.0
259,184.93325789583332,185.951873525,82.0,112.0
260,187.16729739583334,187.37075456458334,82.0,99.0
261,187.48644589583333,187.6672967125,85.0,112.0
262,187.80559439583334,187.95851971875,85.0,122.0
263,188.12474289583332,188.3055937125,85.0,112.0
264,188.44389139583333,188.67128470208334,87.0,112.0
265,188.76303989583334,188.98112470416666,85.0,127.0
266,189.08218839583333,189.3109114875,84.0,122.0
267,189.40133689583334,189.61011320625,82.0,107.0
268,189.72048539583332,189.94787870208333,84.0,93.0
269,190.03963389583333,191.96250360833332,80.0,107.0
270,192.59282189583334,192.76037485833334,78.0,107.0
271,192.91197039583332,193.05691700625,78.0,97.0
272,193.23111889583333,193.39202293125,78.0,107.0
273,193.55026739583334,193.71383100208334,77.0,97.0
274,193.86941589583333,194.536968175,75.0,102.0
275,194.50771289583332,195.12340354375,77.0,96.0
276,195.14600989583334,196.81887995,70.0,92.0
277,197.06090089583333,197.21648578958334,70.0,102.0
278,197.38004939583334,197.56754913958332,73.0,117.0
279,197.69919789583332,197.80558072916668,75.0,97.0
280,198.01834639583333,198.11808030208334,75.0,107.0
281,198.33749489583334,198.42925008958332,75.0,122.0
282,198.65664339583333,198.88669627291665,77.0,97.0
283,198.97579189583334,199.18456820625,78.0,112.0
284,199.61408889583333,199.88802469166666,84.0,102.0
285,199.93323739583334,200.21914126041668,82.0,107.0
286,200.25238589583333,201.64068187083333,80.0,97.0
287,202.80557389583333,202.9385524375,89.0,122.0
288,203.12472239583334,203.2577009375,89.0,112.0
289,203.44387089583333,203.57418986666667,89.0,117.0
290,203.76301939583334,203.92259364583333,89.0,122.0
291,204.08216789583332,204.23642300416665,89.0,112.0
292,204.40131639583333,204.57817785625,89.0,122.0
293,204.72046489583335,204.92658163541665,87.0,107.0
294,205.03961339583333,205.22445356875,85.0,117.0
295,205.35876189583334,205.75503795,87.0,122.0
296,205.99705889583333,206.24040962708332,85.0,107.0
297,206.31620739583335,206.57817512291666,84.0,92.0
298,206.63535589583333,207.34546130833334,82.0,107.0
299,207.91194989583335,208.08881135625,87.0,127.0
300,208.23109839583333,208.36141736666667,87.0,117.0
301,208.55024689583334,208.675246725,87.0,127.0
302,208.86939539583332,209.00104415208332,89.0,112.0
303,209.18854389583333,209.27896930416668,87.0,127.0
304,209.50769239583335,209.65396879166667,87.0,112.0
305,209.82684089583333,209.98109600416666,85.0,100.0
306,210.14598939583334,210.3826912,82.0,112.0
307,210.46513789583332,210.74439283333334,85.0,112.0
308,211.10343489583335,211.40529618541666,82.0,122.0
309,211.42258339583333,211.54093429791666,80.0,102.0
310,211.74173189583334,212.85343250416668,80.0,127.0
311,213.01832589583333,213.1513044375,78.0,117.0
312,213.33747439583334,213.46513379583334,78.0,112.0
313,213.65662289583332,213.79359079374998,78.0,117.0
314,213.97577139583333,214.15928178333334,77.0,95.0
315,214.29491989583335,214.57018547708333,75.0,102.0
316,214.61406839583333,214.85342977083334,80.0,100.0
317,214.93321689583334,215.24571646875,77.0,99.0
318,215.25236539583332,215.5608756125,75.0,96.0
319,215.57151389583333,217.13135218958334,73.0,92.0
320,218.12470189583334,218.2337443,89.0,127.0
321,218.44385039583332,218.55156301458334,89.0,99.0
322,218.76299889583333,218.89065829583333,89.0,107.0
323,219.08214739583335,219.20448765416666,87.0,117.0
324,219.40129589583333,219.50368937291665,85.0,112.0
325,219.72044439583334,219.84677401041665,87.0,107.0
326,220.03959289583332,220.31219890625,85.0,122.0
327,220.35874139583333,220.611400625,84.0,122.0
328,220.67788989583335,221.696505525,82.0,112.0
329,222.91192939583334,223.11538656458333,82.0,99.0
330,223.23107789583332,223.41192871249999,85.0,112.0
331,223.55022639583333,223.70315171875,85.0,122.0
332,223.86937489583335,224.0502257125,85.0,112.0
333,224.18852339583333,224.41591670208334,87.0,112.0
334,224.50767189583334,224.72575670416666,85.0,127.0
335,224.82682039583332,225.0555434875,84.0,122.0
336,225.14596889583333,225.35474520625,82.0,107.0
337,225.46511739583335,225.69251070208333,84.0,93.0
338,225.78426589583333,227.70713560833335,80.0,107.0
339,228.33745389583333,228.50500685833333,78.0,107.0
340,228.65660239583335,228.80154900624999,78.0,97.0
341,228.97575089583333,229.13665493125,78.0,107.0
342,229.29489939583334,229.45846300208333,77.0,97.0
343,229.61404789583332,230.281600175,75.0,102.0
344,230.25234489583335,230.86803554375,77.0,96.0
345,230.89064189583334,232.56351195,70.0,92.0
346,233.12468139583333,233.35606405833335,70.0,102.0
347,233.44382989583332,233.60739350208334,75.0,107.0
348,233.76297839583333,233.90393565,75.0,122.0
349,234.08212689583334,234.27627556666667,75.0,107.0
350,234.40127539583332,234.64329634166666,77.0,102.0
351,234.72042389583333,234.91457256666666,78.0,127.0
352,235.03957239583332,235.26430613125,85.0,112.0
353,235.35872089583333,235.6193588375,84.0,97.0
354,235.67786939583334,235.88531592083334,82.0,117.0
355,235.99701789583332,237.96643009791666,80.0,107.0
356,238.55020589583333,238.6592483,89.0,127.0
357,238.86935439583334,238.97706701458333,89.0,99.0
358,239.18850289583332,239.31616229583332,89.0,107.0
359,239.50765139583334,239.62999165416667,87.0,117.0
360,239.82679989583332,239.92919337291667,85.0,112.0
361,240.14594839583333,240.27227801041667,87.0,107.0
362,240.46509689583334,240.73770290625,85.0,122.0
363,240.78424539583332,241.036904625,84.0,122.0
364,241.10339389583334,242.122009525,82.0,112.0
365,243.33743339583333,243.54089056458332,82.0,99.0
366,243.65658189583334,243.8374327125,85.0,112.0
367,243.97573039583332,244.12865571875,85.0,122.0
368,244.29487889583334,244.4757297125,85.0,112.0
369,244.61402739583332,244.84142070208333,87.0,112.0
370,244.93317589583333,245.15126070416667,85.0,127.0
371,245.25232439583334,245.4810474875,84.0,122.0
372,245.57147289583332,245.78024920625,82.0,107.0
373,245.89062139583334,246.11801470208334,84.0,93.0
374,246.20976989583332,248.13263960833333,80.0,107.0
375,248.76295789583332,248.93051085833332,78.0,107.0
376,249.08210639583334,249.22705300625,78.0,97.0
377,249.40125489583332,249.56215893125,78.0,107.0
378,249.72040339583333,249.88396700208332,77.0,97.0
379,250.03955189583334,250.707104175,75.0,102.0
380,250.67784889583334,251.29353954375,77.0,96.0
381,251.31614589583333,252.98901595,70.0,92.0
382,253.23103689583334,253.38662178958333,70.0,102.0
383,253.55018539583332,253.73768513958333,73.0,117.0
384,253.86933389583334,253.97571672916666,75.0,97.0
385,254.18848239583332,254.28821630208333,75.0,107.0
386,254.50763089583333,254.59938608958333,75.0,122.0
387,254.82677939583334,255.05683227291667,77.0,97.0
388,255.14592789583332,255.35470420625,78.0,112.0
389,255.78422489583332,256.05816069166667,84.0,102.0
390,256.10337339583333,256.3892772604167,82.0,107.0
391,256.4225218958333,257.8108178708333,80.0,97.0
392,258.97570989583335,259.1086884375,89.0,122.0
393,259.29485839583333,259.4278369375,89.0,112.0
394,259.6140068958333,259.74432586666666,89.0,117.0
395,259.93315539583335,260.09272964583334,89.0,122.0
396,260.25230389583334,260.40655900416664,89.0,112.0
397,260.5714523958333,260.74831385625,89.0,122.0
398,260.89060089583336,261.09671763541667,87.0,107.0
399,261.20974939583334,261.39458956875,85.0,117.0
400,261.5288978958333,261.92517395,87.0,122.0
401,262.16719489583335,262.4105456270833,85.0,107.0
402,262.48634339583333,262.7483111229167,84.0,92.0
403,262.8054918958333,263.5155973083333,82.0,107.0
404,264.08208589583336,264.25894735625,87.0,127.0
405,264.40123439583334,264.5315533666667,87.0,117.0
406,264.7203828958333,264.845382725,87.0,127.0
407,265.0395313958333,265.1711801520833,89.0,112.0
408,265.35867989583335,265.44910530416666,87.0,127.0
409,265.67782839583333,265.8241047916667,87.0,112.0
410,265.9969768958333,266.1512320041667,85.0,100.0
411,266.31612539583335,266.5528272,82.0,112.0
412,266.63527389583334,266.91452883333335,85.0,112.0
413,267.27357089583336,267.5754321854167,82.0,122.0
414,267.59271939583334,267.71107029791665,80.0,102.0
415,267.9118678958333,269.0235685041667,80.0,127.0
416,269.1884618958333,269.3214404375,78.0,117.0
417,269.50761039583335,269.6352697958333,78.0,112.0
418,269.82675889583334,269.96372679374997,78.0,117.0
419,270.1459073958333,270.3294177833333,77.0,95.0
420,270.46505589583336,270.74032147708334,75.0,102.0
421,270.78420439583334,271.02356577083333,80.0,100.0
422,271.1033528958333,271.41585246875,77.0,99.0
423,271.4225013958333,271.7310116125,75.0,96.0
424,271.74164989583335,273.3014881895833,73.0,92.0
425,274.2948378958333,274.48100785416665,78.0,127.0
426,274.6139863958333,274.7615925770833,78.0,117.0
427,274.93313489583335,275.1711664854167,78.0,127.0
428,275.25228339583333,275.5581340416667,77.0,127.0
429,275.5714318958333,275.84004855,75.0,127.0
430,275.89058039583335,276.1724949041667,80.0,122.0
431,276.20972889583334,276.5208986833333,77.0,107.0
432,276.5288773958333,276.85733439375,75.0,107.0
433,276.84802589583336,279.1671716625,73.0,107.0
