,start,end,pitch,velocity
0,4.295206895833333,4.6569085291666665,65.0,90.0
1,3.6569098958333335,4.805844495833333,49.0,100.0
2,4.295206895833333,5.101056858333333,68.0,97.0
3,4.933503895833334,5.113024927083333,65.0,18.0
4,4.614355395833333,5.135631279166667,61.0,85.0
5,5.2526523958333335,5.519939264583333,61.0,55.0
6,4.933503895833334,5.686162441666666,56.0,83.0
7,4.933503895833334,5.703449652083333,49.0,64.0
8,5.571800895833333,5.98802373125,65.0,95.0
9,5.571800895833333,6.0877576375,68.0,102.0
10,5.890949395833333,6.1994596125,61.0,72.0
11,6.529246395833333,6.950788372916667,58.0,69.0
12,6.210097895833333,7.214085885416667,46.0,97.0
13,6.848394895833334,7.506638677083333,65.0,70.0
14,6.848394895833334,7.557170522916667,61.0,72.0
15,7.167543395833333,7.638287433333334,58.0,88.0
16,7.486691895833333,8.139616535416666,46.0,67.0
17,7.805840395833333,8.208765377083333,58.0,90.0
18,8.124988895833333,8.707434908333333,65.0,37.0
19,8.124988895833333,8.8005198875,61.0,78.0
20,9.082434395833333,9.417540320833334,54.0,71.0
21,8.763285895833333,9.864348220833334,42.0,82.0
22,9.401582895833334,10.095730883333333,61.0,86.0
23,9.401582895833334,10.11301809375,58.0,100.0
24,9.720731395833333,10.119667020833333,54.0,78.0
25,10.359028395833333,10.707432175,54.0,66.0
26,10.039879895833334,10.723389599999999,42.0,97.0
27,10.678176895833333,11.1941336375,61.0,92.0
28,10.678176895833333,11.2100910625,58.0,92.0
29,10.997325395833334,11.252644195833334,54.0,74.0
30,11.635622395833334,12.0398771625,56.0,71.0
31,11.954770895833333,12.65822738125,60.0,89.0
32,12.273919395833333,12.67418480625,56.0,96.0
33,11.954770895833333,12.683493304166667,63.0,102.0
34,12.912216395833333,13.30849245,56.0,85.0
35,11.316473895833333,13.481364554166667,44.0,107.0
36,12.593067895833332,13.534555970833333,51.0,77.0
37,13.231364895833334,13.76726841875,60.0,90.0
38,13.231364895833334,13.788544985416667,63.0,100.0
39,13.550513395833333,13.7951939125,56.0,83.0
40,14.188810395833332,14.570458810416667,60.0,69.0
41,13.869661895833334,15.01992628125,53.0,93.0
42,14.507958895833333,15.616999933333334,65.0,96.0
43,14.507958895833333,15.616999933333334,68.0,99.0
44,14.827107395833334,15.628968002083333,60.0,86.0
45,15.465404395833334,15.84971238125,53.0,76.0
46,15.784552895833333,16.253967147916665,65.0,99.0
47,15.784552895833333,16.292530925,68.0,117.0
48,16.103701395833333,16.405562685416665,60.0,78.0
49,16.741998395833335,17.123646810416666,58.0,62.0
50,16.422849895833334,17.578433422916667,46.0,96.0
51,17.061146895833332,17.859018145833332,61.0,61.0
52,17.380295395833333,17.861677716666666,58.0,85.0
53,17.061146895833332,17.869656429166668,65.0,72.0
54,17.699443895833333,18.21938999375,46.0,92.0
55,18.018592395833334,18.396251454166666,58.0,89.0
56,18.337740895833335,18.8297615,65.0,63.0
57,18.337740895833335,18.85768699375,61.0,82.0
58,18.656889395833332,18.922846479166665,58.0,79.0
59,19.295186395833333,19.68614330833333,51.0,71.0
60,18.976037895833333,20.079759791666667,39.0,85.0
61,19.614334895833334,20.216727689583333,58.0,102.0
62,19.933483395833335,20.252631895833332,51.0,72.0
63,19.614334895833334,20.252631895833332,54.0,102.0
64,20.571780395833333,20.905556535416668,56.0,76.0
65,20.252631895833332,21.017258510416667,44.0,99.0
66,20.890928895833333,21.436140916666666,63.0,99.0
67,20.890928895833333,21.44278984375,60.0,85.0
68,21.210077395833334,21.581087527083334,56.0,73.0
69,21.848374395833332,22.226033454166668,56.0,73.0
70,21.529225895833335,22.585075516666667,49.0,100.0
71,22.167522895833333,23.042521699999998,65.0,69.0
72,22.167522895833333,23.199436379166666,61.0,71.0
73,22.486671395833334,23.386936122916666,56.0,70.0
74,23.444116895833332,23.499967883333333,56.0,36.0
75,23.124968395833335,23.59704221875,49.0,73.0
76,23.444116895833332,24.130286170833333,61.0,68.0
77,23.444116895833332,24.132945741666667,65.0,78.0
78,24.401562395833334,24.80315759166667,56.0,67.0
79,24.082413895833334,25.0930508125,49.0,82.0
80,24.72071089583333,25.425497166666666,65.0,69.0
81,24.72071089583333,25.437465235416667,61.0,69.0
82,25.039859395833332,25.515922575,56.0,90.0
83,25.678156395833334,26.051826097916667,56.0,81.0
84,25.359007895833333,26.39225116458333,49.0,95.0
85,25.997304895833334,26.632942325,61.0,70.0
86,25.997304895833334,26.634272110416667,65.0,53.0
87,26.31645339583333,26.65288910625,56.0,65.0
88,26.954750395833333,27.312462672916666,58.0,44.0
89,26.635601895833332,27.724696152083332,46.0,66.0
90,27.593047395833334,28.151557270833333,58.0,56.0
91,27.273898895833334,28.191450833333334,65.0,60.0
92,27.273898895833334,28.2047486875,61.0,67.0
93,27.91219589583333,28.694109720833332,46.0,90.0
94,28.550492895833333,29.11033255625,65.0,66.0
95,28.550492895833333,29.140917620833335,61.0,79.0
96,28.231344395833332,29.20208775,58.0,43.0
97,29.50793839583333,29.882937883333334,54.0,71.0
98,29.188789895833334,30.31511814375,42.0,66.0
99,29.827086895833332,30.562458231249998,61.0,89.0
100,30.146235395833333,30.61830921875,54.0,55.0
101,29.827086895833332,30.622298575,58.0,76.0
102,30.784532395833335,31.154212741666665,54.0,47.0
103,30.465383895833334,31.198095660416666,42.0,82.0
104,31.10368089583333,31.5957015,58.0,88.0
105,31.10368089583333,31.60766956875,61.0,85.0
106,32.061126395833334,32.45341309375,56.0,58.0
107,31.741977895833333,32.817774297916664,49.0,89.0
108,32.38027489583333,33.33107146875,65.0,69.0
109,32.38027489583333,33.365645889583334,61.0,66.0
110,32.699423395833335,33.57043284375,56.0,77.0
111,33.656868895833334,33.692773102083336,56.0,32.0
112,33.33772039583333,33.70873052708333,49.0,83.0
113,33.656868895833334,34.158197997916666,65.0,60.0
114,33.656868895833334,34.19410220416667,61.0,73.0
115,33.97601739583333,34.32575096041667,56.0,44.0
116,34.61431439583333,34.96670753125,51.0,75.0
117,34.295165895833335,35.33239852083333,39.0,77.0
118,34.93346289583333,35.805802129166665,58.0,81.0
119,34.93346289583333,35.89223818125,54.0,74.0
120,35.252611395833334,36.07840813958333,51.0,61.0
121,35.890908395833335,36.32574822708333,39.0,65.0
122,36.21005689583333,36.71404556875,54.0,88.0
123,36.21005689583333,36.71404556875,58.0,85.0
124,36.52920539583333,36.732662564583336,51.0,61.0
125,37.16750239583333,37.55845930833333,58.0,44.0
126,36.848353895833334,37.73798033958333,46.0,85.0
127,37.80579939583333,38.38159648125,58.0,69.0
128,37.486650895833336,38.52122395,61.0,69.0
129,37.486650895833336,38.52787287708333,65.0,69.0
130,38.444096395833334,38.81244695625,58.0,39.0
131,38.12494789583333,39.06909554166667,46.0,58.0
132,38.76324489583333,39.29116970625,65.0,65.0
133,38.76324489583333,39.31377605833333,61.0,72.0
134,39.082393395833336,39.38691425625,58.0,69.0
135,39.72069039583333,40.09037074166667,51.0,48.0
136,39.40154189583333,40.45872130208333,39.0,76.0
137,40.039838895833334,41.00659289375,58.0,81.0
138,40.039838895833334,41.0424971,54.0,69.0
139,40.35898739583333,41.1781352125,51.0,67.0
140,40.99728439583333,41.402868947916666,39.0,73.0
141,41.31643289583333,41.86696405833333,54.0,100.0
142,41.31643289583333,41.87893212708333,58.0,96.0
143,41.635581395833334,41.8962193375,51.0,59.0
144,42.273878395833336,42.597016252083336,56.0,42.0
145,41.95472989583333,42.82042020208333,44.0,82.0
146,42.59302689583333,42.9972816625,60.0,86.0
147,42.59302689583333,43.16882398125,63.0,96.0
148,42.91217539583333,43.34967479791667,56.0,90.0
149,43.55047239583333,43.67813179583333,68.0,82.0
150,43.55047239583333,43.691429649999996,56.0,93.0
151,43.869620895833336,43.94142930833333,70.0,97.0
152,43.869620895833336,43.968025016666665,58.0,107.0
153,43.231323895833334,44.087705704166666,44.0,40.0
154,43.231323895833334,44.168822614583334,51.0,82.0
155,44.18876939583333,44.48531154375,72.0,83.0
156,44.18876939583333,44.50791789583333,60.0,76.0
157,44.827066395833334,45.228661591666665,56.0,67.0
158,44.50791789583333,45.5185548125,49.0,82.0
159,45.14621489583333,45.85100116666667,65.0,69.0
160,45.14621489583333,45.862969235416664,61.0,69.0
161,45.465363395833336,45.941426575,56.0,90.0
162,46.10366039583333,46.47733009791666,56.0,81.0
163,45.78451189583333,46.81775516458333,49.0,95.0
164,46.422808895833334,47.058446325,61.0,70.0
165,46.422808895833334,47.059776110416664,65.0,53.0
166,46.74195739583333,47.07839310625,56.0,65.0
167,47.38025439583333,47.73796667291666,58.0,44.0
168,47.061105895833336,48.150200152083336,46.0,66.0
169,48.018551395833335,48.57706127083333,58.0,56.0
170,47.69940289583333,48.61695483333333,65.0,60.0
171,47.69940289583333,48.6302526875,61.0,67.0
172,48.33769989583333,49.119613720833335,46.0,90.0
173,48.97599689583333,49.53583655625,65.0,66.0
174,48.97599689583333,49.56642162083333,61.0,79.0
175,48.656848395833336,49.62759175,58.0,43.0
176,49.93344239583333,50.30844188333333,54.0,71.0
177,49.614293895833335,50.74062214375,42.0,66.0
178,50.252590895833336,50.98796223125,61.0,89.0
179,50.57173939583333,51.04381321875,54.0,55.0
180,50.252590895833336,51.047802575,58.0,76.0
181,51.210036395833335,51.579716741666665,54.0,47.0
182,50.89088789583333,51.623599660416666,42.0,82.0
183,51.52918489583333,52.0212055,58.0,88.0
184,51.52918489583333,52.03317356875,61.0,85.0
185,52.48663039583333,52.87891709375,56.0,58.0
186,52.16748189583333,53.24327829791667,49.0,89.0
187,52.805778895833335,53.75657546875,65.0,69.0
188,52.805778895833335,53.79114988958333,61.0,66.0
189,53.12492739583333,53.99593684375,56.0,77.0
190,54.08237289583333,54.11827710208333,56.0,32.0
191,53.76322439583333,54.134234527083336,49.0,83.0
192,54.08237289583333,54.58370199791667,65.0,60.0
193,54.08237289583333,54.619606204166665,61.0,73.0
194,54.401521395833335,54.75125496041667,56.0,44.0
195,55.039818395833336,55.39221153125,51.0,75.0
196,54.72066989583333,55.75790252083333,39.0,77.0
197,55.35896689583333,56.23130612916667,58.0,81.0
198,55.35896689583333,56.31774218125,54.0,74.0
199,55.67811539583333,56.503912139583335,51.0,61.0
200,56.31641239583333,56.751252227083334,39.0,65.0
201,56.635560895833336,57.13954956875,54.0,88.0
202,56.635560895833336,57.13954956875,58.0,85.0
203,56.95470939583333,57.15816656458333,51.0,61.0
204,57.593006395833335,57.98396330833333,58.0,44.0
205,57.27385789583333,58.163484339583334,46.0,85.0
206,58.231303395833336,58.80710048125,58.0,69.0
207,57.91215489583333,58.94672795,61.0,69.0
208,57.91215489583333,58.953376877083336,65.0,69.0
209,58.86960039583333,59.237950956249996,58.0,39.0
210,58.55045189583333,59.494599541666666,46.0,58.0
211,59.188748895833335,59.71667370625,65.0,65.0
212,59.188748895833335,59.739280058333335,61.0,72.0
213,59.50789739583333,59.81241825625,58.0,69.0
214,60.146194395833334,60.4547046125,51.0,65.0
215,59.827045895833336,60.549119377083336,39.0,96.0
216,60.46534289583333,61.011884702083336,54.0,100.0
217,60.784491395833335,61.017203843749996,51.0,62.0
218,60.46534289583333,61.03050169791667,58.0,107.0
219,61.42278839583334,61.66347955625,56.0,57.0
220,61.10363989583333,62.067734322916664,44.0,107.0
221,61.741936895833334,62.28847870208333,60.0,102.0
222,61.741936895833334,62.32039355208333,63.0,107.0
223,62.69938239583333,63.09565845,56.0,79.0
224,62.380233895833335,63.53182806666667,49.0,97.0
225,63.01853089583333,63.73528523541667,65.0,70.0
226,63.01853089583333,63.75257244583333,61.0,76.0
227,63.337679395833334,63.82837021458333,56.0,100.0
228,63.975976395833335,64.20336970208334,65.0,60.0
229,63.975976395833335,64.21666755625,56.0,88.0
230,63.975976395833335,64.2206569125,61.0,68.0
231,63.65682789583333,64.37890137708334,49.0,97.0
232,64.29512489583334,64.75523065,65.0,92.0
233,64.29512489583334,64.79113485625,56.0,100.0
234,64.29512489583334,64.80177313958333,61.0,99.0
235,64.93342189583333,65.16879391458333,56.0,99.0
236,64.93342189583333,65.27650653333333,61.0,99.0
237,64.93342189583333,65.33501709166667,65.0,78.0
238,65.25257039583333,65.42012335833333,56.0,31.0
239,64.93342189583333,66.0637395,49.0,97.0
240,65.57171889583333,66.18076061666666,61.0,97.0
241,65.57171889583333,66.2632073125,65.0,90.0
242,65.89086739583334,66.30842001666667,56.0,95.0
243,66.52916439583333,66.91347238125,56.0,95.0
244,66.84831289583333,67.46666311458333,61.0,61.0
245,67.16746139583333,67.48528011041667,56.0,93.0
246,66.21001589583334,67.48660989583334,49.0,92.0
247,66.84831289583333,67.54910981041667,65.0,76.0
248,67.80575839583334,68.2100131625,58.0,88.0
249,67.48660989583334,68.39219376458334,46.0,70.0
250,68.12490689583333,68.72198054791667,65.0,62.0
251,68.12490689583333,68.8323527375,61.0,65.0
252,68.44405539583333,68.87756544166666,58.0,86.0
253,69.08235239583334,69.48261780625,58.0,78.0
254,68.76320389583333,69.89618107083334,46.0,97.0
255,69.40150089583334,69.92277677916667,65.0,71.0
256,69.40150089583334,69.93607463333333,61.0,65.0
257,69.72064939583333,70.05176596458334,58.0,77.0
258,70.35894639583333,70.59431841458333,54.0,32.0
259,70.03979789583333,70.85362657083333,42.0,86.0
260,70.99724339583334,71.12357301041666,42.0,83.0
261,70.67809489583334,71.41213644583333,61.0,122.0
262,70.67809489583334,71.43607258333333,58.0,112.0
263,71.63554039583333,71.91745490416666,54.0,79.0
264,71.31639189583333,72.06240151458333,42.0,77.0
265,71.95468889583333,72.37623087291666,61.0,100.0
266,71.95468889583333,72.47995413541666,58.0,93.0
267,72.27383739583334,72.53846469375,54.0,63.0
268,72.91213439583333,73.16080426875,56.0,37.0
269,72.59298589583334,73.44803791875,44.0,77.0
270,73.55043139583333,73.73527156875,44.0,81.0
271,73.23128289583333,73.97463294375,60.0,96.0
272,73.23128289583333,73.98793079791666,63.0,107.0
273,73.86957989583334,74.53181303333334,44.0,92.0
274,74.18872839583334,74.54777045833333,56.0,96.0
275,74.50787689583333,74.78314247708333,60.0,77.0
276,74.82702539583333,74.90681252083333,60.0,33.0
277,74.50787689583333,75.079684625,63.0,117.0
278,74.82702539583333,75.16479089166667,56.0,92.0
279,75.46532239583334,75.83899209791667,51.0,81.0
280,75.14617389583333,76.00122591875,39.0,97.0
281,76.10361939583333,76.24723622083333,39.0,72.0
282,75.78447089583334,76.49989545,58.0,97.0
283,75.78447089583334,76.58101236041666,54.0,90.0
284,76.42276789583333,77.10361802916667,39.0,81.0
285,76.74191639583333,77.13420309375,51.0,83.0
286,77.06106489583334,77.36292618541667,54.0,97.0
287,77.06106489583334,77.38287296666667,58.0,102.0
288,78.01851039583333,78.45866936875,58.0,81.0
289,77.69936189583333,78.50787142916667,46.0,70.0
290,78.65680739583333,78.78579658125,46.0,75.0
291,78.33765889583333,79.14483864375,61.0,73.0
292,78.33765889583333,79.16079606875,65.0,63.0
293,79.29510439583333,79.68207195208333,58.0,89.0
294,78.97595589583334,79.69669959166667,46.0,99.0
295,79.61425289583333,80.16478405833334,65.0,66.0
296,79.61425289583333,80.18340105416667,61.0,73.0
297,79.93340139583333,80.26584775,58.0,74.0
298,80.57169839583334,80.94004895625,51.0,75.0
299,80.25254989583333,81.06770835625,39.0,75.0
300,81.20999539583333,81.34829307916667,39.0,78.0
301,80.89084689583333,81.57568638541666,58.0,96.0
302,80.89084689583333,81.654143725,54.0,75.0
303,81.84829239583333,82.2365897375,51.0,78.0
304,81.52914389583333,82.29111093958333,39.0,71.0
305,82.48658939583333,82.67940828125,51.0,73.0
306,82.16744089583334,82.70068484791666,54.0,102.0
307,82.16744089583334,82.70068484791666,58.0,112.0
308,82.80573789583333,83.58632193541666,44.0,102.0
309,83.76318339583334,83.90945979166666,44.0,97.0
310,83.44403489583333,84.14616159583333,60.0,122.0
311,83.44403489583333,84.1674381625,63.0,127.0
312,84.40148039583333,84.50520365833333,60.0,97.0
313,84.40148039583333,84.86025636458334,56.0,99.0
314,84.40148039583333,84.86158615,63.0,102.0
315,84.72062889583333,84.94004348958333,60.0,22.0
316,84.08233189583333,85.21397928541667,44.0,102.0
317,85.03977739583333,85.31770254791667,60.0,112.0
318,85.03977739583333,85.33365997291666,56.0,99.0
319,85.03977739583333,85.35493653958333,63.0,107.0
320,85.35892589583334,85.59429791458334,56.0,99.0
321,85.35892589583334,85.70201053333334,61.0,99.0
322,85.35892589583334,85.76052109166666,65.0,78.0
323,85.67807439583333,85.84562735833333,56.0,31.0
324,85.35892589583334,86.4892435,49.0,97.0
325,85.99722289583333,86.60626461666666,61.0,97.0
326,85.99722289583333,86.6887113125,65.0,90.0
327,86.31637139583333,86.73392401666666,56.0,95.0
328,86.95466839583334,87.33897638125,56.0,95.0
329,87.27381689583333,87.89216711458333,61.0,61.0
330,87.59296539583333,87.91078411041667,56.0,93.0
331,86.63551989583333,87.91211389583333,49.0,92.0
332,87.27381689583333,87.97461381041667,65.0,76.0
333,88.23126239583333,88.6355171625,58.0,88.0
334,87.91211389583333,88.81769776458333,46.0,70.0
335,88.55041089583334,89.14748454791666,65.0,62.0
336,88.55041089583334,89.2578567375,61.0,65.0
337,88.86955939583333,89.30306944166666,58.0,86.0
338,89.50785639583333,89.90812180625,58.0,78.0
339,89.18870789583333,90.32168507083334,46.0,97.0
340,89.82700489583333,90.34828077916667,65.0,71.0
341,89.82700489583333,90.36157863333334,61.0,65.0
342,90.14615339583334,90.47726996458333,58.0,77.0
343,90.78445039583333,91.01982241458333,54.0,32.0
344,90.46530189583333,91.27913057083333,42.0,86.0
345,91.42274739583333,91.54907701041667,42.0,83.0
346,91.10359889583333,91.83764044583333,61.0,122.0
347,91.10359889583333,91.86157658333333,58.0,112.0
348,92.06104439583333,92.34295890416666,54.0,79.0
349,91.74189589583334,92.48790551458333,42.0,77.0
350,92.38019289583333,92.80173487291667,61.0,100.0
351,92.38019289583333,92.90545813541667,58.0,93.0
352,92.69934139583333,92.96396869375,54.0,63.0
353,93.33763839583334,93.58630826875,56.0,37.0
354,93.01848989583333,93.87354191874999,44.0,77.0
355,93.97593539583333,94.16077556875,44.0,81.0
356,93.65678689583333,94.40013694375,60.0,96.0
357,93.65678689583333,94.41343479791666,63.0,107.0
358,94.29508389583333,94.95731703333334,44.0,92.0
359,94.61423239583333,94.97327445833334,56.0,96.0
360,94.93338089583334,95.20864647708333,60.0,77.0
361,95.25252939583334,95.33231652083333,60.0,33.0
362,94.93338089583334,95.505188625,63.0,117.0
363,95.25252939583334,95.59029489166667,56.0,92.0
364,95.89082639583333,96.26449609791666,51.0,81.0
365,95.57167789583333,96.42672991875,39.0,97.0
366,96.52912339583334,96.67274022083333,39.0,72.0
367,96.20997489583333,96.92539945,58.0,97.0
368,96.20997489583333,97.00651636041667,54.0,90.0
369,96.84827189583334,97.52912202916667,39.0,81.0
370,97.16742039583333,97.55970709375,51.0,83.0
371,97.48656889583333,97.78843018541667,54.0,97.0
372,97.48656889583333,97.80837696666667,58.0,102.0
373,98.44401439583334,98.88417336875,58.0,81.0
374,98.12486589583334,98.93337542916666,46.0,70.0
375,99.08231139583333,99.21130058125,46.0,75.0
376,98.76316289583333,99.57034264375,61.0,73.0
377,98.76316289583333,99.58630006875,65.0,63.0
378,99.72060839583334,100.10757595208334,58.0,89.0
379,99.40145989583333,100.12220359166666,46.0,99.0
380,100.03975689583334,100.59028805833333,65.0,66.0
381,100.03975689583334,100.60890505416667,61.0,73.0
382,100.35890539583333,100.69135175,58.0,74.0
383,100.99720239583333,101.36555295625,51.0,75.0
384,100.67805389583333,101.49321235625,39.0,75.0
385,101.63549939583334,101.77379707916667,39.0,78.0
386,101.31635089583334,102.00119038541666,58.0,96.0
387,101.31635089583334,102.079647725,54.0,75.0
388,102.27379639583333,102.6620937375,51.0,78.0
389,101.95464789583333,102.71661493958334,39.0,71.0
390,102.91209339583334,103.10491228125,51.0,73.0
391,102.59294489583333,103.12618884791667,54.0,102.0
392,102.59294489583333,103.12618884791667,58.0,112.0
393,103.23124189583334,104.01182593541667,44.0,102.0
394,104.18868739583333,104.33496379166667,44.0,97.0
395,103.86953889583333,104.57166559583334,60.0,122.0
396,103.86953889583333,104.5929421625,63.0,127.0
397,104.82698439583334,104.93070765833333,60.0,97.0
398,104.82698439583334,105.28576036458334,56.0,99.0
399,104.82698439583334,105.28709015,63.0,102.0
400,105.14613289583333,105.36554748958334,60.0,22.0
401,104.50783589583334,105.63948328541666,44.0,102.0
402,105.46528139583333,105.74320654791667,60.0,112.0
403,105.46528139583333,105.75916397291667,56.0,99.0
404,105.46528139583333,105.78044053958334,63.0,107.0
405,106.10357839583334,106.27778028541667,56.0,30.0
406,106.42272689583334,106.47192895625,56.0,59.0
407,105.78442989583333,106.55703522291667,49.0,112.0
408,106.74187539583333,106.866875225,49.0,97.0
409,106.42272689583334,107.10889617083333,61.0,102.0
410,106.42272689583334,107.11155574166666,65.0,90.0
411,107.38017239583333,107.87618235625,65.0,70.0
412,107.38017239583333,107.90410785,61.0,90.0
413,107.38017239583333,107.91740570416667,56.0,90.0
414,107.06102389583333,108.19533085625,49.0,88.0
415,108.01846939583334,108.26713926875,65.0,63.0
416,108.01846939583334,108.30437326041667,61.0,48.0
417,108.01846939583334,108.32166047083334,56.0,81.0
418,108.33761789583333,109.15144657083333,46.0,56.0
419,109.29506339583334,109.49985035,46.0,53.0
420,108.97591489583333,109.63681824791666,65.0,77.0
421,108.97591489583333,109.75516915,58.0,92.0
422,108.97591489583333,109.77644571666667,61.0,102.0
423,109.93336039583333,110.08362614791666,65.0,77.0
424,109.61421189583334,110.11953035416667,46.0,85.0
425,109.93336039583333,110.43734906875,61.0,96.0
426,109.93336039583333,110.46660434791667,58.0,90.0
427,110.57165739583333,110.74585928541667,65.0,69.0
428,110.57165739583333,110.79772091666666,61.0,93.0
429,110.57165739583333,110.84293362083334,58.0,96.0
430,110.89080589583334,111.72192178125,39.0,77.0
431,111.84825139583333,112.00250650416666,39.0,72.0
432,111.52910289583333,112.05835749166667,58.0,73.0
433,111.52910289583333,112.10489998125,54.0,73.0
434,111.52910289583333,112.19798496041666,51.0,86.0
435,112.16739989583333,112.80569689583334,39.0,89.0
436,112.48654839583334,112.98255835625,58.0,90.0
437,112.48654839583334,112.98920728333333,54.0,96.0
438,112.48654839583334,112.994526425,51.0,99.0
439,113.12484539583333,113.41074926041667,54.0,100.0
440,113.12484539583333,113.4173981875,51.0,83.0
441,113.12484539583333,113.42670668541666,58.0,83.0
442,113.76314239583333,113.93202514375,54.0,61.0
443,113.44399389583333,114.35489690625,42.0,70.0
444,114.08229089583334,114.6142050625,61.0,117.0
445,114.08229089583334,114.61819441875,58.0,112.0
446,114.40143939583334,114.68734326041667,54.0,93.0
447,115.03973639583333,115.24053399375,56.0,96.0
448,114.72058789583333,115.56234206458333,44.0,95.0
449,115.35888489583333,115.86819271041666,60.0,117.0
450,115.35888489583333,115.92670326875,63.0,107.0
451,115.67803339583334,115.994522325,56.0,88.0
452,115.99718189583334,116.51579820833334,39.0,69.0
453,115.99718189583334,116.53441520416666,54.0,100.0
454,115.99718189583334,116.53973434583334,51.0,92.0
455,115.99718189583334,116.56367048333334,58.0,88.0
456,117.27377589583334,117.79638156458333,60.0,96.0
457,117.27377589583334,117.80701984791666,56.0,93.0
458,117.27377589583334,117.84824319583333,44.0,60.0
459,117.27377589583334,117.84957298125,63.0,93.0
460,118.55036989583333,118.8269652625,65.0,89.0
461,118.55036989583333,118.88281625,68.0,83.0
462,118.55036989583333,119.06499685208334,61.0,99.0
463,118.55036989583333,119.71792149166667,49.0,44.0
464,119.18866689583334,120.06632527083333,65.0,95.0
465,119.18866689583334,120.11020818958333,68.0,90.0
466,119.50781539583333,120.35754827708334,61.0,59.0
467,118.55036989583333,120.62350536041667,56.0,95.0
468,119.82696389583333,120.71659033958333,49.0,28.0
469,120.46526089583334,121.11419617916667,65.0,102.0
470,120.46526089583334,121.13148338958334,68.0,112.0
471,121.10355789583333,121.86951429583333,49.0,100.0
472,122.06100339583334,122.20196065,49.0,73.0
473,121.74185489583333,122.39610932083333,65.0,100.0
474,121.74185489583333,122.44797095208334,68.0,107.0
475,121.74185489583333,122.47988580208333,61.0,102.0
476,122.38015189583334,123.05834245833333,49.0,78.0
477,122.69930039583333,123.15541679374999,65.0,99.0
478,122.69930039583333,123.18467207291667,61.0,102.0
479,122.69930039583333,123.18467207291667,68.0,97.0
480,123.33759739583333,123.55302263333333,65.0,76.0
481,123.33759739583333,123.59557576666667,68.0,90.0
482,123.33759739583333,123.62882040208333,61.0,99.0
483,123.65674589583334,124.49318092291666,46.0,92.0
484,124.61419139583333,124.75647843541667,46.0,56.0
485,124.29504289583333,124.92403139791666,65.0,78.0
486,124.29504289583333,125.01711637708333,61.0,102.0
487,124.29504289583333,125.090254575,58.0,102.0
488,125.25248839583334,125.66871123125,65.0,77.0
489,124.93333989583333,125.6727005875,46.0,97.0
490,125.25248839583334,125.76711535208334,61.0,79.0
491,125.25248839583334,125.78174299166666,58.0,90.0
492,125.89078539583333,126.19530625624999,65.0,67.0
493,125.89078539583333,126.24051896041667,61.0,95.0
494,125.89078539583333,126.31764651458333,58.0,96.0
495,126.52908239583333,126.59557166666667,54.0,26.0
496,126.20993389583333,127.01711364375,42.0,79.0
497,127.16737939583334,127.324294075,42.0,72.0
498,126.84823089583334,127.62216600833334,58.0,102.0
499,126.84823089583334,127.65009150208333,54.0,95.0
500,126.84823089583334,127.66870849791667,61.0,96.0
501,127.80567639583333,128.20328223541668,54.0,50.0
502,127.48652789583333,128.26977150625,42.0,81.0
503,128.12482489583334,128.72455811875,58.0,96.0
504,128.12482489583334,128.7524836125,61.0,102.0
505,128.44397339583332,128.79902610208333,54.0,92.0
506,128.76312189583334,129.57562078541667,44.0,99.0
507,129.72056739583334,129.86551400625,44.0,93.0
508,129.40141889583333,129.86551400625,60.0,96.0
509,129.40141889583333,129.97588619583334,63.0,95.0
510,129.40141889583333,130.12083280625,56.0,117.0
511,130.35886439583334,130.41471538333334,68.0,100.0
512,130.35886439583334,130.46391744375,56.0,112.0
513,130.67801289583332,130.73519366875,70.0,107.0
514,130.67801289583332,130.76710851875,58.0,127.0
515,130.03971589583333,131.00115075208333,44.0,100.0
516,130.99716139583333,131.24051212708332,73.0,100.0
517,130.99716139583333,131.27774611875,61.0,127.0
518,131.31630989583334,132.1195002875,41.0,89.0
519,132.27375539583332,132.42136157708333,41.0,56.0
520,131.95460689583334,132.69662715833334,60.0,95.0
521,131.95460689583334,132.71258458333332,53.0,95.0
522,131.95460689583334,132.71790372499999,56.0,100.0
523,132.59290389583333,133.17800947916666,41.0,64.0
524,132.91205239583334,133.39077514583335,60.0,90.0
525,132.91205239583334,133.39210493125,53.0,86.0
526,132.91205239583334,133.39875385833332,56.0,100.0
527,133.55034939583334,133.84423197291667,60.0,77.0
528,133.55034939583334,133.898753175,56.0,93.0
529,133.55034939583334,133.90806167291666,53.0,77.0
530,133.86949789583332,134.64210322291666,46.0,100.0
531,134.82694339583333,135.00380485624999,46.0,69.0
532,134.50779489583334,135.20194288333334,61.0,102.0
533,134.50779489583334,135.23385773333334,53.0,100.0
534,134.50779489583334,135.23385773333334,58.0,112.0
535,135.14609189583334,135.42002769166666,46.0,92.0
536,135.46524039583332,135.96125035625,61.0,102.0
537,135.46524039583332,135.9652397125,58.0,122.0
538,135.46524039583332,135.96789928333334,53.0,86.0
539,136.10353739583334,136.324281775,53.0,75.0
540,136.10353739583334,136.3322604875,58.0,102.0
541,136.10353739583334,136.34289877083333,61.0,97.0
542,136.42268589583333,137.22188693125,39.0,92.0
543,137.06098289583332,137.59821620416668,58.0,107.0
544,137.06098289583332,137.62082255625,54.0,99.0
545,137.06098289583332,137.62747148333332,63.0,100.0
546,138.01842839583333,138.16869414791665,56.0,42.0
547,137.69927989583334,138.75645930208333,44.0,99.0
548,138.33757689583334,138.88278891666667,60.0,122.0
549,138.33757689583334,138.95060797291666,63.0,127.0
550,138.65672539583332,138.95193775833334,56.0,72.0
551,139.29502239583334,139.35486273958333,61.0,26.0
552,138.97587389583333,139.69395802083332,49.0,92.0
553,139.61417089583333,139.74448986666667,65.0,117.0
554,139.93331939583334,140.07826600625,49.0,88.0
555,139.93331939583334,140.22055304583333,65.0,15.0
556,139.61417089583333,140.3216167375,68.0,107.0
557,139.61417089583333,140.345552875,61.0,112.0
558,140.57161639583333,141.02773279375,65.0,99.0
559,140.57161639583333,141.05166893125,68.0,100.0
560,140.57161639583333,141.07028592708332,61.0,100.0
561,140.25246789583332,141.52241296875,49.0,90.0
562,141.20991339583333,141.56895545833333,65.0,96.0
563,141.20991339583333,141.60485966458333,68.0,89.0
564,141.20991339583333,141.60618945,61.0,97.0
565,141.84821039583332,142.24980559166667,56.0,67.0
566,141.52906189583334,142.5396988125,49.0,82.0
567,142.16735889583333,142.87214516666666,65.0,69.0
568,142.16735889583333,142.88411323541666,61.0,69.0
569,142.48650739583334,142.962570575,56.0,90.0
570,143.12480439583334,143.49847409791667,56.0,81.0
571,142.80565589583333,143.83889916458332,49.0,95.0
572,143.44395289583332,144.079590325,61.0,70.0
573,143.44395289583332,144.08092011041666,65.0,53.0
574,143.76310139583333,144.09953710625,56.0,65.0
575,144.40139839583333,144.75911067291668,58.0,44.0
576,144.08224989583334,145.17134415208332,46.0,66.0
577,145.03969539583332,145.59820527083332,58.0,56.0
578,144.72054689583334,145.63809883333334,65.0,60.0
579,144.72054689583334,145.6513966875,61.0,67.0
580,145.35884389583333,146.14075772083334,46.0,90.0
581,145.99714089583333,146.55698055625,65.0,66.0
582,145.99714089583333,146.58756562083335,61.0,79.0
583,145.67799239583334,146.64873575,58.0,43.0
584,146.95458639583333,147.32958588333332,54.0,71.0
585,146.63543789583332,147.76176614375,42.0,66.0
586,147.27373489583334,148.00910623125,61.0,89.0
587,147.59288339583333,148.06495721875,54.0,55.0
588,147.27373489583334,148.068946575,58.0,76.0
589,148.23118039583332,148.60086074166668,54.0,47.0
590,147.91203189583334,148.64474366041668,42.0,82.0
591,148.55032889583333,149.0423495,58.0,88.0
592,148.55032889583333,149.05431756875,61.0,85.0
593,149.50777439583334,149.90006109375,56.0,58.0
594,149.18862589583333,150.26442229791667,49.0,89.0
595,149.82692289583332,150.77771946875,65.0,69.0
596,149.82692289583332,150.81229388958334,61.0,66.0
597,150.14607139583333,151.01708084375,56.0,77.0
598,151.10351689583334,151.13942110208333,56.0,32.0
599,150.78436839583333,151.15537852708334,49.0,83.0
600,151.10351689583334,151.60484599791667,65.0,60.0
601,151.10351689583334,151.64075020416666,61.0,73.0
602,151.42266539583332,151.77239896041667,56.0,44.0
603,152.06096239583334,152.41335553125,51.0,75.0
604,151.74181389583333,152.77904652083333,39.0,77.0
605,152.38011089583333,153.25245012916668,58.0,81.0
606,152.38011089583333,153.33888618125,54.0,74.0
607,152.69925939583334,153.52505613958334,51.0,61.0
608,153.33755639583333,153.77239622708333,39.0,65.0
609,153.65670489583334,154.16069356875,54.0,88.0
610,153.65670489583334,154.16069356875,58.0,85.0
611,153.97585339583333,154.17931056458335,51.0,61.0
612,154.61415039583332,155.00510730833332,58.0,44.0
613,154.29500189583334,155.18462833958333,46.0,85.0
614,155.25244739583334,155.82824448125,58.0,69.0
615,154.93329889583333,155.96787195,61.0,69.0
616,154.93329889583333,155.97452087708334,65.0,69.0
617,155.89074439583334,156.25909495625,58.0,39.0
618,155.57159589583333,156.51574354166667,46.0,58.0
619,156.20989289583332,156.73781770625,65.0,65.0
620,156.20989289583332,156.76042405833334,61.0,72.0
621,156.52904139583333,156.83356225625,58.0,69.0
622,157.16733839583333,157.4758486125,51.0,65.0
623,156.84818989583334,157.57026337708334,39.0,96.0
624,157.48648689583334,158.03302870208333,54.0,100.0
625,157.80563539583332,158.03834784375,51.0,62.0
626,157.48648689583334,158.05164569791665,58.0,107.0
627,158.44393239583334,158.68462355625,56.0,57.0
628,158.12478389583333,159.08887832291666,44.0,107.0
629,158.76308089583333,159.30962270208335,60.0,102.0
630,158.76308089583333,159.34153755208334,63.0,107.0
631,159.72052639583333,160.11680245,56.0,79.0
632,159.40137789583332,160.55297206666665,49.0,97.0
633,160.03967489583334,160.75642923541668,65.0,70.0
634,160.03967489583334,160.77371644583334,61.0,76.0
635,160.35882339583333,160.84951421458334,56.0,100.0
636,160.99712039583332,161.22451370208333,65.0,60.0
637,160.99712039583332,161.23781155625,56.0,88.0
638,160.99712039583332,161.2418009125,61.0,68.0
639,160.67797189583334,161.40004537708333,49.0,97.0
640,161.31626889583333,161.77637465,65.0,92.0
641,161.31626889583333,161.81227885625,56.0,100.0
642,161.31626889583333,161.82291713958332,61.0,99.0
643,161.95456589583333,162.18993791458334,56.0,99.0
644,161.95456589583333,162.29765053333333,61.0,99.0
645,161.95456589583333,162.35616109166668,65.0,78.0
646,162.27371439583334,162.44126735833333,56.0,31.0
647,161.95456589583333,163.0848835,49.0,97.0
648,162.59286289583332,163.20190461666667,61.0,97.0
649,162.59286289583332,163.2843513125,65.0,90.0
650,162.91201139583333,163.32956401666667,56.0,95.0
651,163.55030839583333,163.93461638125,56.0,95.0
652,163.86945689583334,164.48780711458332,61.0,61.0
653,164.18860539583332,164.50642411041667,56.0,93.0
654,163.23115989583334,164.50775389583333,49.0,92.0
655,163.86945689583334,164.57025381041666,65.0,76.0
656,164.82690239583334,165.2311571625,58.0,88.0
657,164.50775389583333,165.41333776458333,46.0,70.0
658,165.14605089583333,165.74312454791666,65.0,62.0
659,165.14605089583333,165.8534967375,61.0,65.0
660,165.46519939583334,165.89870944166665,58.0,86.0
661,166.10349639583333,166.50376180625,58.0,78.0
662,165.78434789583332,166.91732507083333,46.0,97.0
663,166.42264489583334,166.94392077916666,65.0,71.0
664,166.42264489583334,166.95721863333333,61.0,65.0
665,166.74179339583333,167.07290996458335,58.0,77.0
666,167.38009039583332,167.61546241458333,54.0,32.0
667,167.06094189583334,167.87477057083333,42.0,86.0
668,168.01838739583334,168.14471701041666,42.0,83.0
669,167.69923889583333,168.43328044583333,61.0,122.0
670,167.69923889583333,168.45721658333332,58.0,112.0
671,168.65668439583334,168.93859890416667,54.0,79.0
672,168.33753589583333,169.08354551458334,42.0,77.0
673,168.97583289583332,169.39737487291666,61.0,100.0
674,168.97583289583332,169.50109813541667,58.0,93.0
675,169.29498139583333,169.55960869375,54.0,63.0
676,169.93327839583333,170.18194826875,56.0,37.0
677,169.61412989583334,170.46918191875,44.0,77.0
678,170.57157539583332,170.75641556875,44.0,81.0
679,170.25242689583334,170.99577694375,60.0,96.0
680,170.25242689583334,171.00907479791667,63.0,107.0
681,170.89072389583333,171.55295703333334,44.0,92.0
682,171.20987239583334,171.56891445833332,56.0,96.0
683,171.52902089583333,171.80428647708334,60.0,77.0
684,171.84816939583334,171.92795652083333,60.0,33.0
685,171.52902089583333,172.100828625,63.0,117.0
686,171.84816939583334,172.18593489166668,56.0,92.0
687,172.48646639583333,172.86013609791667,51.0,81.0
688,172.16731789583332,173.02236991875,39.0,97.0
689,173.12476339583333,173.26838022083334,39.0,72.0
690,172.80561489583334,173.52103945,58.0,97.0
691,172.80561489583334,173.60215636041667,54.0,90.0
692,173.44391189583334,174.12476202916667,39.0,81.0
693,173.76306039583332,174.15534709375,51.0,83.0
694,174.08220889583333,174.38407018541668,54.0,97.0
695,174.08220889583333,174.40401696666666,58.0,102.0
696,175.03965439583334,175.47981336875,58.0,81.0
697,174.72050589583333,175.52901542916666,46.0,70.0
698,175.67795139583333,175.80694058125,46.0,75.0
699,175.35880289583332,176.16598264375,61.0,73.0
700,175.35880289583332,176.18194006875,65.0,63.0
701,176.31624839583333,176.70321595208333,58.0,89.0
702,175.99709989583334,176.71784359166668,46.0,99.0
703,176.63539689583334,177.18592805833333,65.0,66.0
704,176.63539689583334,177.20454505416666,61.0,73.0
705,176.95454539583332,177.28699175,58.0,74.0
706,177.59284239583334,177.96119295625,51.0,75.0
707,177.27369389583333,178.08885235625,39.0,75.0
708,178.23113939583334,178.36943707916666,39.0,78.0
709,177.91199089583333,178.59683038541667,58.0,96.0
710,177.91199089583333,178.675287725,54.0,75.0
711,178.86943639583333,179.2577337375,51.0,78.0
712,178.55028789583332,179.31225493958334,39.0,71.0
713,179.50773339583333,179.70055228125,51.0,73.0
714,179.18858489583334,179.72182884791667,54.0,102.0
715,179.18858489583334,179.72182884791667,58.0,112.0
716,179.82688189583334,180.60746593541666,44.0,102.0
717,180.78432739583334,180.93060379166667,44.0,97.0
718,180.46517889583333,181.16730559583334,60.0,122.0
719,180.46517889583333,181.1885821625,63.0,127.0
720,181.42262439583334,181.52634765833332,60.0,97.0
721,181.42262439583334,181.88140036458333,56.0,99.0
722,181.42262439583334,181.88273015,63.0,102.0
723,181.74177289583332,181.96118748958332,60.0,22.0
724,181.10347589583333,182.23512328541668,44.0,102.0
725,182.06092139583333,182.33884654791666,60.0,112.0
726,182.06092139583333,182.35480397291667,56.0,99.0
727,182.06092139583333,182.37608053958334,63.0,107.0
728,182.38006989583334,182.61544191458333,56.0,99.0
729,182.38006989583334,182.72315453333334,61.0,99.0
730,182.38006989583334,182.78166509166667,65.0,78.0
731,182.69921839583333,182.86677135833332,56.0,31.0
732,182.38006989583334,183.5103875,49.0,97.0
733,183.01836689583334,183.62740861666666,61.0,97.0
734,183.01836689583334,183.7098553125,65.0,90.0
735,183.33751539583332,183.75506801666666,56.0,95.0
736,183.97581239583334,184.36012038125,56.0,95.0
737,184.29496089583333,184.91331111458334,61.0,61.0
738,184.61410939583334,184.93192811041666,56.0,93.0
739,183.65666389583333,184.93325789583332,49.0,92.0
740,184.29496089583333,184.99575781041668,65.0,76.0
741,185.25240639583333,185.6566611625,58.0,88.0
742,184.93325789583332,185.83884176458332,46.0,70.0
743,185.57155489583334,186.16862854791665,65.0,62.0
744,185.57155489583334,186.2790007375,61.0,65.0
745,185.89070339583333,186.32421344166667,58.0,86.0
746,186.52900039583332,186.92926580625,58.0,78.0
747,186.20985189583334,187.34282907083335,46.0,97.0
748,186.84814889583333,187.36942477916668,65.0,71.0
749,186.84814889583333,187.38272263333334,61.0,65.0
750,187.16729739583334,187.49841396458334,58.0,77.0
751,187.80559439583334,188.04096641458332,54.0,32.0
752,187.48644589583333,188.30027457083332,42.0,86.0
753,188.44389139583333,188.57022101041667,42.0,83.0
754,188.12474289583332,188.85878444583332,61.0,122.0
755,188.12474289583332,188.88272058333334,58.0,112.0
756,189.08218839583333,189.36410290416666,54.0,79.0
757,188.76303989583334,189.50904951458332,42.0,77.0
758,189.40133689583334,189.82287887291668,61.0,100.0
759,189.40133689583334,189.92660213541666,58.0,93.0
760,189.72048539583332,189.98511269375,54.0,63.0
761,190.35878239583334,190.60745226875,56.0,37.0
762,190.03963389583333,190.89468591874999,44.0,77.0
763,190.99707939583334,191.18191956875,44.0,81.0
764,190.67793089583333,191.42128094375,60.0,96.0
765,190.67793089583333,191.43457879791666,63.0,107.0
766,191.31622789583332,191.97846103333333,44.0,92.0
767,191.63537639583333,191.99441845833334,56.0,96.0
768,191.95452489583334,192.22979047708333,60.0,77.0
769,192.27367339583333,192.35346052083332,60.0,33.0
770,191.95452489583334,192.526332625,63.0,117.0
771,192.27367339583333,192.61143889166667,56.0,92.0
772,192.91197039583332,193.28564009791666,51.0,81.0
773,192.59282189583334,193.44787391875,39.0,97.0
774,193.55026739583334,193.69388422083333,39.0,72.0
775,193.23111889583333,193.94654345,58.0,97.0
776,193.23111889583333,194.02766036041666,54.0,90.0
777,193.86941589583333,194.55026602916666,39.0,81.0
778,194.18856439583334,194.58085109375,51.0,83.0
779,194.50771289583332,194.80957418541666,54.0,97.0
780,194.50771289583332,194.82952096666668,58.0,102.0
781,195.46515839583333,195.90531736875,58.0,81.0
782,195.14600989583334,195.95451942916665,46.0,70.0
783,196.10345539583332,196.23244458125,46.0,75.0
784,195.78430689583334,196.59148664375,61.0,73.0
785,195.78430689583334,196.60744406875,65.0,63.0
786,196.74175239583334,197.12871995208334,58.0,89.0
787,196.42260389583333,197.14334759166667,46.0,99.0
788,197.06090089583333,197.61143205833332,65.0,66.0
789,197.06090089583333,197.63004905416668,61.0,73.0
790,197.38004939583334,197.71249575,58.0,74.0
791,198.01834639583333,198.38669695625,51.0,75.0
792,197.69919789583332,198.51435635625,39.0,75.0
793,198.65664339583333,198.79494107916668,39.0,78.0
794,198.33749489583334,199.02233438541666,58.0,96.0
795,198.33749489583334,199.100791725,54.0,75.0
796,199.29494039583332,199.6832377375,51.0,78.0
797,198.97579189583334,199.73775893958333,39.0,71.0
798,199.93323739583334,200.12605628125,51.0,73.0
799,199.61408889583333,200.14733284791666,54.0,102.0
800,199.61408889583333,200.14733284791666,58.0,112.0
801,200.25238589583333,201.03296993541667,44.0,102.0
802,201.20983139583333,201.35610779166666,44.0,97.0
803,200.89068289583332,201.59280959583333,60.0,122.0
804,200.89068289583332,201.6140861625,63.0,127.0
805,201.84812839583333,201.95185165833334,60.0,97.0
806,201.84812839583333,202.30690436458335,56.0,99.0
807,201.84812839583333,202.30823415,63.0,102.0
808,202.16727689583334,202.38669148958334,60.0,22.0
809,201.52897989583334,202.66062728541667,44.0,102.0
810,202.48642539583332,202.76435054791668,60.0,112.0
811,202.48642539583332,202.78030797291666,56.0,99.0
812,202.48642539583332,202.80158453958333,63.0,107.0
813,203.12472239583334,203.29892428541666,56.0,30.0
814,203.44387089583333,203.49307295625,56.0,59.0
815,202.80557389583333,203.57817922291667,49.0,112.0
816,203.76301939583334,203.888019225,49.0,97.0
817,203.44387089583333,204.13004017083333,61.0,102.0
818,203.44387089583333,204.13269974166667,65.0,90.0
819,204.40131639583333,204.89732635625,65.0,70.0
820,204.40131639583333,204.92525185,61.0,90.0
821,204.40131639583333,204.93854970416666,56.0,90.0
822,204.08216789583332,205.21647485625,49.0,88.0
823,205.03961339583333,205.28828326875,65.0,63.0
824,205.03961339583333,205.32551726041666,61.0,48.0
825,205.03961339583333,205.34280447083333,56.0,81.0
826,205.35876189583334,206.17259057083334,46.0,56.0
827,206.31620739583335,206.52099435,46.0,53.0
828,205.99705889583333,206.65796224791666,65.0,77.0
829,205.99705889583333,206.77631315,58.0,92.0
830,205.99705889583333,206.79758971666666,61.0,102.0
831,206.95450439583334,207.10477014791667,65.0,77.0
832,206.63535589583333,207.14067435416666,46.0,85.0
833,206.95450439583334,207.45849306875,61.0,96.0
834,206.95450439583334,207.48774834791666,58.0,90.0
835,207.59280139583333,207.76700328541668,65.0,69.0
836,207.59280139583333,207.81886491666666,61.0,93.0
837,207.59280139583333,207.86407762083334,58.0,96.0
838,207.91194989583335,208.74306578125,39.0,77.0
839,208.86939539583332,209.02365050416665,39.0,72.0
840,208.55024689583334,209.07950149166666,58.0,73.0
841,208.55024689583334,209.12604398125,54.0,73.0
842,208.55024689583334,209.21912896041667,51.0,86.0
843,209.18854389583333,209.82684089583333,39.0,89.0
844,209.50769239583335,210.00370235625,58.0,90.0
845,209.50769239583335,210.01035128333334,54.0,96.0
846,209.50769239583335,210.015670425,51.0,99.0
847,210.14598939583334,210.43189326041667,54.0,100.0
848,210.14598939583334,210.4385421875,51.0,83.0
849,210.14598939583334,210.44785068541665,58.0,83.0
850,210.78428639583333,210.95316914375,54.0,61.0
851,210.46513789583332,211.37604090625,42.0,70.0
852,211.10343489583335,211.6353490625,61.0,117.0
853,211.10343489583335,211.63933841875,58.0,112.0
854,211.42258339583333,211.70848726041666,54.0,93.0
855,212.06088039583332,212.26167799375,56.0,96.0
856,211.74173189583334,212.58348606458333,44.0,95.0
857,212.38002889583333,212.88933671041667,60.0,117.0
858,212.38002889583333,212.94784726875,63.0,107.0
859,212.69917739583335,213.015666325,56.0,88.0
860,213.01832589583333,213.53694220833333,39.0,69.0
861,213.01832589583333,213.55555920416666,54.0,100.0
862,213.01832589583333,213.56087834583334,51.0,92.0
863,213.01832589583333,213.58481448333333,58.0,88.0
864,214.29491989583335,214.81752556458332,60.0,96.0
865,214.29491989583335,214.82816384791667,56.0,93.0
866,214.29491989583335,214.86938719583333,44.0,60.0
867,214.29491989583335,214.87071698125,63.0,93.0
868,216.52895939583334,217.33746892916668,61.0,66.0
869,216.84810789583332,217.38534120416668,65.0,57.0
870,216.84810789583332,217.40129862916666,68.0,78.0
871,215.57151389583333,217.70581948958332,49.0,112.0
872,215.89066239583335,217.7231067,53.0,58.0
873,216.20981089583333,217.72975562708334,56.0,88.0
874,217.48640489583335,217.98906378333334,65.0,95.0
875,217.48640489583335,218.01432970625,68.0,117.0
876,217.48640489583335,218.39730790625,61.0,93.0
877,219.08214739583335,219.45581709791668,61.0,83.0
878,218.76299889583333,219.63400834375,56.0,90.0
879,219.72044439583334,219.83214637083333,56.0,36.0
880,218.44385039583332,220.0289546125,53.0,62.0
881,218.12470189583334,220.05688010625,49.0,112.0
882,219.40129589583333,220.26698620208333,68.0,96.0
883,220.35874139583333,220.547570925,68.0,34.0
884,219.40129589583333,220.57815598958334,65.0,81.0
885,220.03959289583332,220.64198568958332,61.0,76.0
886,221.63533539583332,221.94118604166667,65.0,74.0
887,221.31618689583334,222.06618587083332,61.0,99.0
888,221.95448389583333,222.27230261041666,70.0,90.0
889,220.99703839583333,222.49570656041666,58.0,89.0
890,220.67788989583335,222.59544046666667,46.0,97.0
891,222.27363239583335,222.71246158333332,65.0,81.0
892,222.91192939583334,223.20182261666668,65.0,69.0
893,222.59278089583333,223.26565231666666,61.0,85.0
894,223.55022639583333,224.0183108625,54.0,67.0
895,223.86937489583335,224.60474623125,58.0,100.0
896,224.18852339583333,224.61804408541667,54.0,56.0
897,224.50767189583334,225.14596889583333,61.0,97.0
898,223.23107789583332,225.28559636458334,42.0,95.0
899,224.82682039583332,225.590117225,54.0,46.0
900,224.50767189583334,225.67921284791666,66.0,102.0
901,225.46511739583335,225.7257553375,61.0,64.0
902,225.14596889583333,225.86804237708333,58.0,76.0
903,226.10341439583334,226.54091379791666,56.0,67.0
904,226.42256289583332,226.75899860625,60.0,54.0
905,226.42256289583332,226.84809422916666,63.0,58.0
906,226.74171139583333,227.24835963958333,56.0,42.0
907,227.06085989583335,227.47043380416667,60.0,85.0
908,227.06085989583335,227.49038058541666,63.0,102.0
909,225.78426589583333,227.75633766875,44.0,102.0
910,227.69915689583334,227.77628445,56.0,69.0
911,227.69915689583334,227.78692273333334,60.0,86.0
912,227.38000839583333,227.79623123125,51.0,38.0
913,227.69915689583334,227.82548651041665,63.0,82.0
914,229.29489939583334,229.93718575208334,63.0,67.0
915,229.61404789583332,230.13133442291667,70.0,97.0
916,229.61404789583332,230.14862163333333,66.0,95.0
917,228.33745389583333,230.57415296666667,51.0,88.0
918,228.65660239583335,230.57548275208333,54.0,38.0
919,228.97575089583333,230.60739760208332,58.0,73.0
920,230.57149339583333,230.86537597291667,63.0,68.0
921,230.57149339583333,230.87335468541667,70.0,69.0
922,230.57149339583333,230.87734404166667,66.0,76.0
923,231.20979039583332,231.61271537708333,58.0,62.0
924,231.84808739583335,232.26696980208334,58.0,46.0
925,231.52893889583333,232.8906391625,61.0,73.0
926,230.89064189583334,233.08744740416665,46.0,112.0
927,232.16723589583333,233.3374470625,65.0,69.0
928,232.80553289583332,233.57414886666666,58.0,74.0
929,233.76297839583333,234.1512757375,58.0,66.0
930,234.08212689583334,234.49701994583333,63.0,96.0
931,234.40127539583332,234.83079608541667,58.0,53.0
932,233.44382989583332,234.96643419791667,51.0,93.0
933,234.72042389583333,235.19382750416668,66.0,112.0
934,234.72042389583333,235.21111471458335,63.0,117.0
935,235.03957239583332,235.31350819166667,51.0,59.0
936,235.35872089583333,235.51829514583332,66.0,100.0
937,235.35872089583333,235.54223128333334,63.0,112.0
938,235.99701789583332,236.16590064375,60.0,112.0
939,235.99701789583332,236.26297497916667,63.0,122.0
940,236.31616639583333,236.39329395,50.0,48.0
941,235.99701789583332,236.42786837083332,56.0,102.0
942,236.63531489583332,236.93850597083332,63.0,127.0
943,236.63531489583332,236.94781446875,60.0,127.0
944,236.63531489583332,236.95180382499998,56.0,107.0
945,236.95446339583333,237.18983541458334,51.0,90.0
946,235.99701789583332,237.22972897708334,44.0,97.0
947,236.63531489583332,237.41855850625,48.0,24.0
948,237.27361189583334,237.462441425,60.0,127.0
949,237.27361189583334,237.46510099583332,63.0,127.0
950,237.27361189583334,237.49169670416666,56.0,127.0
951,237.59276039583332,237.75233464583334,60.0,127.0
952,237.59276039583332,237.76430271458332,56.0,107.0
953,237.59276039583332,237.76430271458332,63.0,112.0
954,237.27361189583334,237.76962185625,51.0,122.0
955,237.91190889583334,238.01430237291666,48.0,27.0
956,237.91190889583334,238.04355765208334,60.0,127.0
957,237.91190889583334,238.05020657916666,56.0,112.0
958,237.91190889583334,238.06616400416667,63.0,127.0
959,237.91190889583334,238.36270615208332,51.0,122.0
960,237.27361189583334,238.38265293333333,44.0,65.0
961,238.23105739583332,238.50499319166667,56.0,99.0
962,238.23105739583332,238.52493997291666,60.0,117.0
963,238.23105739583332,238.53690804166666,63.0,107.0
964,238.55020589583333,238.78557791458334,56.0,99.0
965,238.55020589583333,238.89329053333333,61.0,99.0
966,238.55020589583333,238.95180109166665,65.0,78.0
967,238.86935439583334,239.03690735833334,56.0,31.0
968,238.55020589583333,239.6805235,49.0,97.0
969,239.18850289583332,239.79754461666667,61.0,97.0
970,239.18850289583332,239.8799913125,65.0,90.0
971,239.50765139583334,239.92520401666667,56.0,95.0
972,240.14594839583333,240.53025638125,56.0,95.0
973,240.46509689583334,241.08344711458332,61.0,61.0
974,240.78424539583332,241.10206411041668,56.0,93.0
975,239.82679989583332,241.10339389583334,49.0,92.0
976,240.46509689583334,241.16589381041666,65.0,76.0
977,241.42254239583332,241.8267971625,58.0,88.0
978,241.10339389583334,242.00897776458334,46.0,70.0
979,241.74169089583333,242.33876454791667,65.0,62.0
980,241.74169089583333,242.4491367375,61.0,65.0
981,242.06083939583334,242.49434944166666,58.0,86.0
982,242.69913639583334,243.09940180625,58.0,78.0
983,242.37998789583332,243.51296507083333,46.0,97.0
984,243.01828489583332,243.53956077916666,65.0,71.0
985,243.01828489583332,243.55285863333333,61.0,65.0
986,243.33743339583333,243.66854996458332,58.0,77.0
987,243.97573039583332,244.21110241458334,54.0,32.0
988,243.65658189583334,244.47041057083334,42.0,86.0
989,244.61402739583332,244.74035701041666,42.0,83.0
990,244.29487889583334,245.02892044583334,61.0,122.0
991,244.29487889583334,245.05285658333332,58.0,112.0
992,245.25232439583334,245.53423890416667,54.0,79.0
993,244.93317589583333,245.67918551458334,42.0,77.0
994,245.57147289583332,245.99301487291666,61.0,100.0
995,245.57147289583332,246.09673813541667,58.0,93.0
996,245.89062139583334,246.15524869375,54.0,63.0
997,246.52891839583333,246.77758826875,56.0,37.0
998,246.20976989583332,247.06482191875,44.0,77.0
999,247.16721539583332,247.35205556875,44.0,81.0
1000,246.84806689583334,247.59141694375,60.0,96.0
1001,246.84806689583334,247.60471479791667,63.0,107.0
1002,247.48636389583334,248.14859703333335,44.0,92.0
1003,247.80551239583332,248.16455445833333,56.0,96.0
1004,248.12466089583333,248.39992647708334,60.0,77.0
1005,248.44380939583334,248.52359652083334,60.0,33.0
1006,248.12466089583333,248.696468625,63.0,117.0
1007,248.44380939583334,248.78157489166668,56.0,92.0
1008,249.08210639583334,249.45577609791667,51.0,81.0
1009,248.76295789583332,249.61800991875,39.0,97.0
1010,249.72040339583333,249.86402022083334,39.0,72.0
1011,249.40125489583332,250.11667945,58.0,97.0
1012,249.40125489583332,250.19779636041667,54.0,90.0
1013,250.03955189583334,250.72040202916668,39.0,81.0
1014,250.35870039583332,250.75098709375,51.0,83.0
1015,250.67784889583334,250.97971018541668,54.0,97.0
1016,250.67784889583334,250.99965696666666,58.0,102.0
1017,251.63529439583334,252.07545336875,58.0,81.0
1018,251.31614589583333,252.12465542916667,46.0,70.0
1019,252.27359139583334,252.40258058125,46.0,75.0
1020,251.95444289583332,252.76162264375,61.0,73.0
1021,251.95444289583332,252.77758006875,65.0,63.0
1022,252.91188839583333,253.29885595208333,58.0,89.0
1023,252.59273989583332,253.31348359166665,46.0,99.0
1024,253.23103689583334,253.78156805833333,65.0,66.0
1025,253.23103689583334,253.80018505416666,61.0,73.0
1026,253.55018539583332,253.88263175,58.0,74.0
1027,254.18848239583332,254.55683295625,51.0,75.0
1028,253.86933389583334,254.68449235625,39.0,75.0
1029,254.82677939583334,254.96507707916666,39.0,78.0
1030,254.50763089583333,255.19247038541667,58.0,96.0
1031,254.50763089583333,255.270927725,54.0,75.0
1032,255.46507639583334,255.8533737375,51.0,78.0
1033,255.14592789583332,255.90789493958334,39.0,71.0
1034,256.10337339583333,256.29619228125,51.0,73.0
1035,255.78422489583332,256.31746884791664,54.0,102.0
1036,255.78422489583332,256.31746884791664,58.0,112.0
1037,256.4225218958333,257.20310593541666,44.0,102.0
1038,257.3799673958333,257.5262437916667,44.0,97.0
1039,257.06081889583334,257.76294559583334,60.0,122.0
1040,257.06081889583334,257.7842221625,63.0,127.0
1041,258.01826439583334,258.12198765833335,60.0,97.0
1042,258.01826439583334,258.47704036458333,56.0,99.0
1043,258.01826439583334,258.47837015,63.0,102.0
1044,258.3374128958333,258.5568274895833,60.0,22.0
1045,257.69911589583336,258.83076328541665,44.0,102.0
1046,258.6565613958333,258.93448654791666,60.0,112.0
1047,258.6565613958333,258.9504439729167,56.0,99.0
1048,258.6565613958333,258.9717205395833,63.0,107.0
1049,259.29485839583333,259.4690602854167,56.0,30.0
1050,259.6140068958333,259.66320895625,56.0,59.0
1051,258.97570989583335,259.7483152229167,49.0,112.0
1052,259.93315539583335,260.058155225,49.0,97.0
1053,259.6140068958333,260.3001761708333,61.0,102.0
1054,259.6140068958333,260.3028357416667,65.0,90.0
1055,260.5714523958333,261.06746235625,65.0,70.0
1056,260.5714523958333,261.09538785,61.0,90.0
1057,260.5714523958333,261.10868570416665,56.0,90.0
1058,260.25230389583334,261.38661085625,49.0,88.0
1059,261.20974939583334,261.45841926875,65.0,63.0
1060,261.20974939583334,261.49565326041665,61.0,48.0
1061,261.20974939583334,261.5129404708333,56.0,81.0
1062,261.5288978958333,262.34272657083335,46.0,56.0
1063,262.48634339583333,262.69113035,46.0,53.0
1064,262.16719489583335,262.82809824791667,65.0,77.0
1065,262.16719489583335,262.94644915,58.0,92.0
1066,262.16719489583335,262.9677257166667,61.0,102.0
1067,263.12464039583335,263.2749061479167,65.0,77.0
1068,262.8054918958333,263.3108103541667,46.0,85.0
1069,263.12464039583335,263.62862906875,61.0,96.0
1070,263.12464039583335,263.65788434791665,58.0,90.0
1071,263.7629373958333,263.93713928541666,65.0,69.0
1072,263.7629373958333,263.98900091666667,61.0,93.0
1073,263.7629373958333,264.0342136208333,58.0,96.0
1074,264.08208589583336,264.91320178125,39.0,77.0
1075,265.0395313958333,265.19378650416667,39.0,72.0
1076,264.7203828958333,265.24963749166665,58.0,73.0
1077,264.7203828958333,265.29617998125,54.0,73.0
1078,264.7203828958333,265.38926496041665,51.0,86.0
1079,265.35867989583335,265.9969768958333,39.0,89.0
1080,265.67782839583333,266.17383835625,58.0,90.0
1081,265.67782839583333,266.1804872833333,54.0,96.0
1082,265.67782839583333,266.185806425,51.0,99.0
1083,266.31612539583335,266.60202926041666,54.0,100.0
1084,266.31612539583335,266.6086781875,51.0,83.0
1085,266.31612539583335,266.61798668541667,58.0,83.0
1086,266.9544223958333,267.12330514375,54.0,61.0
1087,266.63527389583334,267.54617690625,42.0,70.0
1088,267.27357089583336,267.8054850625,61.0,117.0
1089,267.27357089583336,267.80947441874997,58.0,112.0
1090,267.59271939583334,267.87862326041665,54.0,93.0
1091,268.2310163958333,268.43181399375,56.0,96.0
1092,267.9118678958333,268.75362206458334,44.0,95.0
1093,268.55016489583335,269.0594727104167,60.0,117.0
1094,268.55016489583335,269.11798326875,63.0,107.0
1095,268.86931339583333,269.185802325,56.0,88.0
1096,269.1884618958333,269.7070782083333,39.0,69.0
1097,269.1884618958333,269.72569520416664,54.0,100.0
1098,269.1884618958333,269.73101434583333,51.0,92.0
1099,269.1884618958333,269.75495048333335,58.0,88.0
1100,270.46505589583336,270.98766156458333,60.0,96.0
1101,270.46505589583336,270.99829984791666,56.0,93.0
1102,270.46505589583336,271.03952319583334,44.0,60.0
1103,270.46505589583336,271.04085298125,63.0,93.0
1104,272.69909539583335,272.94111634166666,61.0,50.0
1105,272.3799468958333,273.13127565625,56.0,97.0
1106,273.01824389583334,273.3320732541667,61.0,56.0
1107,273.01824389583334,273.71372166875,65.0,90.0
1108,273.3373923958333,273.749625875,56.0,51.0
1109,272.06079839583333,273.82808321458333,53.0,60.0
1110,271.74164989583335,274.0262212416667,49.0,96.0
1111,273.01824389583334,274.3014868229167,68.0,102.0
1112,273.65654089583336,274.3334016729167,61.0,97.0
1113,273.97568939583334,274.46372064375,65.0,31.0
1114,274.2948378958333,274.6086672541667,51.0,86.0
1115,274.2948378958333,274.6219651083333,39.0,86.0
1116,274.2948378958333,274.643241675,54.0,99.0
1117,274.2948378958333,274.6671778125,58.0,77.0
1118,275.5714318958333,276.1006864916667,60.0,96.0
1119,275.5714318958333,276.10467584791667,48.0,55.0
1120,275.5714318958333,276.10467584791667,56.0,96.0
1121,275.5714318958333,276.13792048333335,44.0,46.0
1122,275.5714318958333,276.14722898125,63.0,92.0
1123,275.5714318958333,276.16318640625,51.0,53.0
1124,276.84802589583336,277.65254607291666,61.0,97.0
1125,276.84802589583336,277.67781199583334,65.0,97.0
1126,276.84802589583336,277.9038755166667,68.0,93.0
1127,277.8054713958333,278.22036444583335,61.0,51.0
1128,277.4863228958333,278.2522792958333,56.0,83.0
1129,278.12461989583335,278.56211929791664,65.0,88.0
1130,278.12461989583335,278.6698319166667,68.0,100.0
1131,277.16717439583334,278.76690625208334,53.0,47.0
1132,278.44376839583333,278.78153389166664,56.0,62.0
1133,278.7629168958333,278.8373848791667,65.0,53.0
1134,278.7629168958333,278.8480231625,68.0,37.0
1135,276.84802589583336,278.9118528625,49.0,93.0
1136,278.7629168958333,279.1804695166667,61.0,112.0
1137,279.08206539583335,279.26424599791665,65.0,58.0
1138,279.40121389583334,279.6964262583333,68.0,112.0
1139,279.40121389583334,279.79881973541666,65.0,122.0
1140,279.40121389583334,279.89855364166664,61.0,112.0
1141,280.03951089583336,280.82009493541665,65.0,112.0
1142,280.35865939583334,280.8267438625,61.0,77.0
1143,280.03951089583336,280.84403107291666,68.0,112.0
1144,280.9969563958333,281.2270092729167,61.0,81.0
1145,280.6778078958333,281.36796652708335,56.0,56.0
1146,279.40121389583334,281.38791330833334,49.0,96.0
1147,280.6778078958333,281.4025409479167,53.0,10.0
1148,281.31610489583335,281.71371073541667,65.0,122.0
1149,281.31610489583335,281.81344464166665,68.0,122.0
1150,281.63525339583333,281.92248704583335,61.0,85.0
1151,281.9544018958333,282.0262103083333,46.0,24.0
1152,281.9544018958333,282.0262103083333,46.0,73.0
1153,282.27355039583335,282.67381580625,58.0,59.0
1154,282.9118473958333,283.09136842708335,46.0,66.0
1155,282.59269889583334,283.32009151875,65.0,79.0
1156,282.59269889583334,283.3426978708333,61.0,117.0
1157,283.55014439583334,283.9198247416667,58.0,79.0
1158,283.23099589583336,283.9783353,46.0,95.0
1159,283.8692928958333,284.44243041041665,65.0,72.0
1160,283.8692928958333,284.5036005395833,61.0,72.0
1161,284.1884413958333,284.58205787916665,58.0,72.0
1162,284.82673839583333,285.10732311875,54.0,75.0
1163,284.50758989583335,285.6645032083333,42.0,82.0
1164,285.1458868958333,285.8692901625,61.0,112.0
1165,285.1458868958333,285.8839178020833,58.0,112.0
1166,285.46503539583335,285.9198220083333,54.0,82.0
1167,286.1033323958333,286.47833188333334,54.0,81.0
1168,285.78418389583334,286.50891694791665,42.0,64.0
1169,286.42248089583336,286.8772675083333,61.0,122.0
1170,286.42248089583336,286.8998738604167,58.0,102.0
1171,286.74162939583334,286.9211504270833,54.0,74.0
1172,287.0607778958333,287.77354287916665,51.0,97.0
1173,287.69907489583335,287.90785120625,56.0,112.0
1174,287.69907489583335,287.9277979875,68.0,100.0
1175,288.3373718958333,288.40120159583336,70.0,100.0
1176,288.01822339583333,288.43710580208335,51.0,60.0
1177,288.3373718958333,288.4384355875,58.0,122.0
1178,288.65652039583335,288.96104125625,51.0,56.0
1179,288.97566889583334,289.03284966875,72.0,92.0
1180,288.97566889583334,289.08205172916666,60.0,102.0
1181,288.97566889583334,289.0833815145833,51.0,99.0
1182,287.0607778958333,289.09401979791664,44.0,100.0
1183,287.69907489583335,289.2150302708333,48.0,36.0
1184,289.61396589583336,290.02221001875,68.0,107.0
1185,289.61396589583336,290.04082701458333,65.0,99.0
1186,289.61396589583336,290.0634333666667,60.0,93.0
1187,290.5714113958333,291.0621022145833,60.0,88.0
1188,290.2522628958333,291.16848504791665,65.0,100.0
1189,290.2522628958333,291.34933586458334,68.0,122.0
1190,289.61396589583336,291.55412281875,41.0,81.0
1191,289.93311439583334,291.60731423541665,48.0,53.0
1192,291.20970839583333,291.6166227333333,60.0,69.0
1193,290.89055989583335,291.72300556666664,53.0,85.0
1194,291.5288568958333,291.97167543958335,68.0,117.0
1195,291.5288568958333,291.98497329375,65.0,102.0
1196,291.84800539583335,292.10997312291664,60.0,72.0
1197,292.16715389583334,293.01023785,46.0,89.0
1198,293.12459939583334,293.2894927875,46.0,72.0
1199,292.80545089583336,293.50092866875,65.0,99.0
1200,292.80545089583336,293.504918025,61.0,117.0
1201,292.80545089583336,293.5288541625,58.0,93.0
1202,293.4437478958333,293.99693862916666,46.0,68.0
1203,293.7628963958333,294.32406584166665,65.0,76.0
1204,293.7628963958333,294.33071476875,61.0,93.0
1205,293.7628963958333,294.33736369583335,58.0,85.0
1206,294.40119339583333,294.64188455625,65.0,69.0
1207,294.40119339583333,294.70305468541665,61.0,102.0
1208,294.40119339583333,294.74693760416665,58.0,90.0
1209,294.7203418958333,295.5740641333333,39.0,90.0
1210,295.35863889583334,295.7163511729167,54.0,97.0
1211,295.35863889583334,295.71768095833335,58.0,97.0
1212,295.35863889583334,295.75092559375,63.0,88.0
1213,295.9969358958333,296.71369023541666,44.0,100.0
1214,296.6352328958333,296.7668816520833,56.0,93.0
1215,295.9969358958333,296.78283907708334,51.0,82.0
1216,296.9543813958333,297.1272535,56.0,65.0
1217,296.6352328958333,297.15251942291667,60.0,112.0
1218,296.6352328958333,297.20039169791664,63.0,112.0
1219,298.23097539583335,298.5979961708333,63.0,117.0
1220,297.9118268958333,298.70836836041667,56.0,112.0
1221,298.8692723958333,299.18443153958333,56.0,100.0
1222,297.59267839583333,299.1884208958333,53.0,59.0
1223,298.55012389583334,299.20570810625,65.0,100.0
1224,297.27352989583335,299.26687823541664,49.0,97.0
1225,299.1884208958333,299.281505875,63.0,122.0
1226,299.8267178958333,301.40118382916665,49.0,59.0
1227,299.8267178958333,301.4118221125,65.0,89.0
1228,299.8267178958333,301.4437369625,61.0,85.0
1229,299.8267178958333,301.45038588958334,68.0,99.0
1230,299.8267178958333,301.4596943875,37.0,89.0
