,start,end,pitch,velocity
0,15.85668055625,16.083602914583334,68.0,66.0
1,16.08744905625,16.314371414583334,68.0,68.0
2,16.31821755625,16.545139914583334,70.0,61.0
3,16.54898605625,16.775908414583334,68.0,61.0
4,16.77975455625,16.891292664583332,72.0,66.0
5,16.89513880625,17.006676914583334,70.0,63.0
6,17.01052305625,19.545130414583333,72.0,66.0
7,19.54897655625,19.775898914583333,72.0,66.0
8,19.77974505625,20.122051664583335,72.0,79.0
9,20.125897806250002,20.468204414583333,72.0,66.0
10,20.47205055625,20.929741414583333,70.0,83.0
11,20.93358755625,23.237426414583332,70.0,69.0
12,23.24127255625,23.468194914583332,68.0,74.0
13,23.47204105625,23.698963414583332,70.0,80.0
14,23.70280955625,23.929731914583332,70.0,66.0
15,23.93357805625,24.160500414583332,68.0,53.0
16,24.16434655625,24.622037414583335,70.0,79.0
17,24.62588355625,25.545111414583335,68.0,63.0
18,25.54895755625,25.775879914583335,65.0,80.0
19,25.77972605625,26.006648414583335,68.0,84.0
20,26.010494556250002,26.468185414583335,70.0,87.0
21,26.472031556250002,26.929722414583335,68.0,90.0
22,26.933568556250002,27.160490914583335,68.0,71.0
23,27.16433705625,27.622027914583335,68.0,74.0
24,27.62587405625,27.737412164583333,72.0,56.0
25,27.74125830625,27.852796414583334,70.0,61.0
26,27.85664255625,30.391249914583334,72.0,66.0
27,30.39509605625,30.622018414583334,63.0,69.0
28,30.62586455625,30.852786914583334,68.0,92.0
29,30.85663305625,31.083555414583333,68.0,87.0
30,31.08740155625,31.314323914583333,70.0,87.0
31,31.31817005625,31.545092414583333,68.0,74.0
32,31.54893855625,34.314314414583336,72.0,91.0
33,34.31816055625,34.54508291458333,72.0,94.0
34,34.54892905625,35.00661991458333,72.0,93.0
35,35.01046605625,35.237388414583336,72.0,84.0
36,35.24123455625,35.698925414583336,70.0,92.0
37,35.70277155625,38.006610414583335,70.0,67.0
38,38.01045655625,38.23737891458333,70.0,90.0
39,38.24122505625,38.468147414583335,70.0,90.0
40,38.47199355625,38.69891591458333,70.0,90.0
41,38.70276205625,38.929684414583335,68.0,85.0
42,38.93353055625,39.391221414583335,70.0,105.0
43,39.39506755625,40.314295414583334,68.0,81.0
44,40.31814155625,40.54506391458333,65.0,85.0
45,40.54891005625,40.775832414583334,68.0,96.0
46,40.77967855625,41.237369414583334,70.0,100.0
47,41.24121555625,41.698906414583334,68.0,91.0
48,41.70275255625,41.92967491458334,72.0,94.0
49,41.93352105625,42.39121191458334,70.0,85.0
50,42.39505805625,42.85274891458334,70.0,96.0
51,42.85659505625,45.39120241458333,68.0,68.0
52,45.39504855625,45.621970914583336,72.0,87.0
53,45.62581705625,46.31427641458333,75.0,91.0
54,46.31812255625,46.77581341458333,75.0,96.0
55,46.77965955625,47.23735041458333,79.0,98.0
56,47.24119655625,47.69888741458333,77.0,94.0
57,47.70273355625,47.929655914583336,77.0,87.0
58,47.93350205625,48.391192914583335,77.0,91.0
59,48.39503905625,49.08349841458333,75.0,103.0
60,49.08734455625,49.314266914583335,75.0,105.0
61,49.31811305625,49.775803914583335,75.0,96.0
62,49.77965005625,50.00657241458333,75.0,90.0
63,50.01041855625,50.46810941458333,68.0,91.0
64,50.47195555625,54.16040541458334,72.0,99.0
65,54.16425155625,54.391173914583334,77.0,93.0
66,54.39502005625,54.62194241458334,77.0,91.0
67,54.62578855625,55.08347941458334,77.0,93.0
68,55.08732555625,55.31424791458333,75.0,87.0
69,55.318094056250004,56.00655341458334,75.0,79.0
70,56.01039955625,56.46809041458334,73.0,97.0
71,56.47193655625,56.69885891458333,68.0,72.0
72,56.702705056250004,57.16039591458333,72.0,68.0
73,57.16424205625,57.62193291458333,72.0,87.0
74,57.62577905625,60.160386414583336,70.0,64.0
75,60.16423255625,60.39115491458333,75.0,108.0
76,60.39500105625,60.85269191458333,75.0,96.0
77,60.85653805625,61.083460414583335,75.0,95.0
78,61.08730655625,61.544997414583335,79.0,103.0
79,61.54884355625,63.391145414583335,79.0,108.0
80,63.39499155625,63.852682414583334,79.0,100.0
81,63.85652855625,64.08345091458334,79.0,95.0
82,64.08729705625,64.42960366458334,72.0,77.0
83,64.43344980625,64.77575641458333,72.0,81.0
84,64.77960255625,65.00652491458334,72.0,91.0
85,65.01037105625,68.00651541458333,81.0,96.0
86,68.01036155625,68.23728391458333,77.0,87.0
87,68.24113005625,68.46805241458334,77.0,66.0
88,68.47189855625,68.92958941458333,77.0,87.0
89,68.93343555625,69.39112641458334,75.0,81.0
90,69.39497255625,69.85266341458333,75.0,87.0
91,69.85650955625,70.08343191458333,73.0,59.0
92,70.08727805625,70.31420041458334,75.0,82.0
93,70.31804655625,71.00650591458333,73.0,89.0
94,71.01035205625,71.23727441458334,73.0,87.0
95,71.24112055625,71.58342716458334,73.0,97.0
96,71.58727330625,71.92957991458333,73.0,93.0
97,71.93342605625,72.16034841458334,73.0,86.0
98,72.16419455625,72.62188541458333,75.0,91.0
99,72.62573155625,74.92957041458334,75.0,98.0
100,74.93341655625,75.27572316458334,75.0,101.0
101,75.27956930625,75.62187591458333,75.0,93.0
102,75.62572205625,75.85264441458334,75.0,96.0
103,75.85649055625,76.31418141458333,79.0,91.0
104,76.31802755625,78.39109791458334,72.0,106.0
105,78.39494405625,78.62186641458334,67.0,81.0
106,78.62571255625001,78.96801916458334,75.0,93.0
107,78.97186530625,79.31417191458334,75.0,90.0
108,79.31801805625,79.54494041458334,75.0,80.0
109,79.54878655625001,80.00647741458333,79.0,94.0
110,80.01032355625,82.31416241458334,72.0,101.0
111,82.31800855625,82.66031516458334,75.0,106.0
112,82.66416130625,83.00646791458334,75.0,98.0
113,83.01031405625,83.23723641458334,75.0,90.0
114,83.24108255625,83.69877341458333,80.0,100.0
115,83.70261955625,85.77568991458334,77.0,109.0
116,85.77953605625,86.00645841458334,68.0,85.0
117,86.01030455625,86.23722691458333,68.0,91.0
118,86.24107305625,86.69876391458334,72.0,97.0
119,86.70261005625,87.16030091458333,72.0,103.0
120,87.16414705625,89.69875441458333,70.0,94.0
121,89.70260055625,90.04490716458334,75.0,99.0
122,90.04875330625,90.39105991458334,75.0,91.0
123,90.39490605625001,90.62182841458333,75.0,92.0
124,90.62567455625,91.08336541458334,79.0,101.0
125,91.08721155625,93.39105041458333,72.0,94.0
126,93.39489655625,93.73720316458333,75.0,108.0
127,93.74104930625,94.08335591458334,75.0,97.0
128,94.08720205625,94.31412441458333,75.0,94.0
129,94.31797055625,94.77566141458334,79.0,105.0
130,94.77950755625,97.08334641458333,72.0,99.0
131,97.08719255625,97.31411491458333,75.0,95.0
132,97.31796105625,97.66026766458333,75.0,97.0
133,97.66411380625,98.00642041458333,75.0,93.0
134,98.01026655625,98.46795741458334,80.0,106.0
135,98.47180355625,100.31410541458334,77.0,108.0
136,100.31795155625,100.77564241458333,77.0,101.0
137,100.77948855625,101.00641091458334,77.0,93.0
138,101.01025705625,101.46794791458333,77.0,94.0
139,101.47179405625,102.16025341458334,77.0,93.0
140,102.16409955625001,108.14630868125,75.0,90.0
141,108.15009655625,108.37358118125,68.0,66.0
142,108.37736905625,108.60085368125,68.0,68.0
143,108.60464155625,108.82812618125,70.0,61.0
144,108.83191405625,109.05539868125,68.0,61.0
145,109.05918655625,109.16903493125,72.0,66.0
146,109.17282280625,109.28267118125,70.0,63.0
147,109.28645905625,111.59914079791666,72.0,66.0
148,111.60317305625,111.84107629791666,63.0,66.0
149,111.84510855625,112.18741516458333,75.0,79.0
150,112.19126130625,112.53356791458333,75.0,66.0
151,112.53741405625,112.76433641458333,75.0,66.0
152,112.76818255625,113.21893968124999,70.0,58.0
153,113.22272755624999,115.49166468125,70.0,69.0
154,115.49545255625,115.72773604791666,70.0,74.0
155,115.73167305625,115.96395654791667,70.0,80.0
156,115.96789355625,116.20017704791667,70.0,66.0
157,116.20411405625,116.43639754791667,68.0,53.0
158,116.44033455625001,116.90157359791668,70.0,79.0
159,116.90544955625,117.82132168125,68.0,63.0
160,117.82510955625,118.04859418125,65.0,80.0
161,118.05238205625,118.27586668125001,68.0,84.0
162,118.27965455625001,118.95768418125,70.0,87.0
163,118.96147205625,119.42102804791666,72.0,90.0
164,119.42496505625,119.65724854791667,72.0,90.0
165,119.66118555625,119.89346904791667,72.0,90.0
166,119.89740605625,120.12968954791667,73.0,98.0
167,120.13362655625001,122.68665618125,72.0,98.0
168,122.69044405625,122.91392868125001,63.0,69.0
169,122.91771655625001,123.36847368125001,68.0,87.0
170,123.37226155625001,123.60094309791667,70.0,87.0
171,123.60481905625001,123.83350059791668,68.0,74.0
172,123.83737655625,126.35472618125002,72.0,91.0
173,126.35851405625002,126.58199868125001,63.0,85.0
174,126.58578655625001,126.80927118125001,75.0,78.0
175,126.81305905625001,127.26381618125002,75.0,77.0
176,127.26760405625002,127.49108868125002,75.0,84.0
177,127.49487655625002,127.83718316458335,70.0,92.0
178,127.84102930625002,129.79871541458334,70.0,67.0
179,129.80256155625003,130.26025241458336,63.0,57.0
180,130.26409855625002,130.49102091458334,70.0,90.0
181,130.49486705625003,130.72178941458336,70.0,90.0
182,130.72563555625,130.95255791458337,70.0,90.0
183,130.95640405625002,131.18332641458335,68.0,85.0
184,131.18717255625003,131.64486341458334,70.0,105.0
185,131.64870955625003,132.56793741458335,68.0,81.0
186,132.57178355625,132.79870591458337,65.0,85.0
187,132.80255205625002,133.02947441458335,68.0,96.0
188,133.03332055625003,133.49101141458334,70.0,100.0
189,133.49485755625003,133.95254841458336,68.0,91.0
190,133.95639455625002,134.18331691458334,72.0,94.0
191,134.18716305625003,134.64485391458336,70.0,85.0
192,134.64870005625002,135.10639091458336,70.0,96.0
193,135.11023705625,137.64484441458336,68.0,68.0
194,137.64869055625002,137.87561291458334,75.0,87.0
195,137.87945905625003,138.56791841458335,75.0,91.0
196,138.57176455625003,138.79868691458336,75.0,96.0
197,138.80253305625,139.49099241458336,79.0,98.0
198,139.49483855625002,139.96334254791668,77.0,94.0
199,139.96727955625002,140.19956304791668,77.0,87.0
200,140.20350005625002,140.66664291458335,77.0,91.0
201,140.67048905625003,141.35894841458335,75.0,103.0
202,141.36279455625004,141.58971691458336,75.0,105.0
203,141.59356305625002,141.93586966458335,75.0,96.0
204,141.93971580625004,142.28202241458337,75.0,90.0
205,142.28586855625002,142.74355941458336,68.0,91.0
206,142.74740555625002,146.44675941458337,72.0,99.0
207,146.45060555625003,146.67752791458338,77.0,93.0
208,146.68137405625004,146.90829641458336,77.0,91.0
209,146.91214255625005,147.36983341458335,77.0,93.0
210,147.37367955625004,147.60060191458336,75.0,87.0
211,147.60444805625002,148.29290741458337,75.0,79.0
212,148.29675355625002,148.75444441458336,73.0,97.0
213,148.75829055625005,148.98521291458337,68.0,72.0
214,148.98905905625003,149.56213416458337,72.0,68.0
215,149.56598030625003,150.01595041458336,72.0,87.0
216,150.13249155625005,152.57050166458333,70.0,64.0
217,152.45896355625,152.68588591458334,75.0,108.0
218,152.68973205625002,153.14742291458336,75.0,96.0
219,153.15126905625002,153.37819141458334,75.0,95.0
220,153.38203755625003,153.83623576458336,79.0,103.0
221,153.84005255625001,155.43928826458335,79.0,108.0
222,155.44310505625003,156.12631076458337,79.0,100.0
223,156.13012755625002,156.35531826458336,79.0,100.0
224,156.35913505625004,156.58432576458335,72.0,77.0
225,156.58814255625003,157.04234076458337,72.0,81.0
226,157.04615755625002,157.27134826458337,72.0,91.0
227,157.27516505625002,160.2698515479167,81.0,96.0
228,160.27378855625003,160.5060720479167,77.0,87.0
229,160.51000905625003,160.7422925479167,77.0,66.0
230,160.74622955625003,161.20042776458337,77.0,87.0
231,161.20424455625002,161.65844276458336,75.0,81.0
232,161.66225955625004,162.11645776458337,75.0,87.0
233,162.12027455625002,162.34546526458337,73.0,59.0
234,162.34928205625002,162.80348026458336,75.0,82.0
235,162.80729705625004,163.26149526458337,73.0,89.0
236,163.26531205625002,163.49050276458337,73.0,87.0
237,163.49431955625002,163.71951026458336,73.0,97.0
238,163.72332705625004,164.17752526458335,73.0,93.0
239,164.18134205625003,164.40653276458337,73.0,86.0
240,164.41034955625003,164.86804041458336,75.0,91.0
241,164.87188655625002,170.92992021458335,75.0,98.0
242,170.93365155625003,171.26574096458336,75.0,101.0
243,171.26947230625004,171.60156171458337,75.0,93.0
244,171.60529305625002,171.82544221458335,75.0,96.0
245,171.82917355625003,172.28686441458336,79.0,91.0
246,172.29071055625002,174.36378091458337,72.0,106.0
247,174.36762705625003,174.59454941458335,75.0,81.0
248,174.59839555625004,174.94070216458337,75.0,93.0
249,174.94454830625003,175.28685491458336,75.0,90.0
250,175.29070105625001,175.51762341458337,75.0,80.0
251,175.52146955625003,175.98631330625003,79.0,94.0
252,175.99021955625003,178.30177168125002,72.0,101.0
253,178.30555955625002,178.63332143125,75.0,106.0
254,178.63699788958334,178.96420268125001,75.0,98.0
255,178.96787913958335,179.18479018125,75.0,90.0
256,179.18846663958334,179.63922376458333,80.0,100.0
257,179.64301163958334,181.49629063125,77.0,109.0
258,181.50022763958333,181.73251113125,68.0,100.0
259,181.73644813958333,181.96873163125,68.0,85.0
260,181.97266863958333,182.20495213125,68.0,91.0
261,182.20888913958333,182.67739313125,72.0,97.0
262,182.68133013958334,182.91361363125,72.0,103.0
263,182.91755063958334,183.14103526458334,72.0,103.0
264,183.14482313958334,185.41376026458335,70.0,94.0
265,185.41754813958335,185.64103276458334,75.0,87.0
266,185.64482063958334,185.86830526458334,75.0,99.0
267,185.87209313958334,186.20921401458335,75.0,91.0
268,186.21300188958335,186.55012276458334,75.0,92.0
269,186.55391063958334,187.02241463125,79.0,101.0
270,187.02635163958334,189.12688034791668,72.0,94.0
271,189.13069713958336,189.35588784791668,75.0,100.0
272,189.35970463958336,189.58489534791667,75.0,108.0
273,189.58871213958335,189.92840659791668,75.0,97.0
274,189.93222338958336,190.27191784791668,75.0,94.0
275,190.27573463958336,190.72993284791667,79.0,105.0
276,190.73374963958335,193.03414868125,72.0,99.0
277,193.03802463958334,193.38298493125,75.0,95.0
278,193.38686088958335,193.73182118125,75.0,97.0
279,193.73569713958335,193.96437868125003,75.0,93.0
280,193.96825463958334,194.42949368125002,80.0,106.0
281,194.43336963958333,196.05219926458335,77.0,108.0
282,196.05598713958335,196.50674426458335,77.0,98.0
283,196.51053213958335,196.73401676458334,77.0,98.0
284,196.73780463958335,197.07492551458336,77.0,103.0
285,197.07871338958336,197.41583426458337,77.0,99.0
286,197.41962213958334,197.64310676458337,77.0,97.0
287,197.64689463958337,198.10813368125002,77.0,106.0
288,198.11200963958336,200.37185795208336,75.0,97.0
289,200.37567474375,200.73159056666668,77.0,99.0
290,200.73540735833336,201.0550636604167,77.0,97.0
291,201.05888045208334,201.35104251458336,77.0,95.0
292,201.3549184729167,201.81034357708336,81.0,99.0
293,201.8142195354167,204.12622868125004,74.0,101.0
294,204.13010463958338,204.47506493125005,77.0,101.0
295,204.47894088958336,204.82390118125002,77.0,93.0
296,204.82777713958336,205.05645868125004,77.0,96.0
297,205.06033463958337,205.52157368125003,81.0,91.0
298,205.52544963958337,207.84714868125005,74.0,106.0
299,207.85102463958336,208.07970618125003,77.0,81.0
300,208.08358213958337,208.31226368125004,77.0,93.0
301,208.31613963958335,208.54482118125003,77.0,90.0
302,208.54869713958337,208.77737868125004,77.0,80.0
303,208.78125463958338,209.1183755145834,82.0,94.0
304,209.1221633895834,211.0571028479167,79.0,101.0
305,211.06091963958337,211.2861103479167,79.0,111.0
306,211.28992713958337,211.5151178479167,79.0,99.0
307,211.51893463958336,211.7441253479167,79.0,106.0
308,211.74794213958336,212.2021403479167,79.0,97.0
309,212.20595713958338,212.89620368125003,79.0,101.0
310,212.90007963958337,214.98922118125003,77.0,63.0
311,214.99309713958337,215.22177868125004,77.0,98.0
312,215.22565463958338,215.57061493125005,77.0,98.0
313,215.57449088958336,215.91945118125003,77.0,97.0
314,215.92332713958336,216.15200868125004,77.0,92.0
315,216.15588463958338,216.84968118125005,81.0,97.0
316,216.85355713958336,218.69437426458336,74.0,93.0
317,218.69816213958336,218.92164676458336,77.0,96.0
318,218.92543463958336,219.26255551458337,77.0,93.0
319,219.26634338958337,219.60346426458338,77.0,98.0
320,219.60725213958335,219.83073676458338,77.0,100.0
321,219.83452463958338,220.29576368125004,81.0,99.0
322,220.29963963958338,222.62133868125005,81.0,107.0
323,222.6252146395834,222.9623355145834,77.0,96.0
324,222.9661233895834,223.30324426458338,77.0,93.0
325,223.30703213958338,223.53051676458338,77.0,94.0
326,223.53430463958338,223.98506176458338,82.0,101.0
327,223.98884963958338,225.8032417645834,79.0,103.0
328,225.8070296395834,226.0305142645834,79.0,94.0
329,226.0343021395834,226.3714230145834,79.0,99.0
330,226.48884713958338,226.71233176458338,79.0,97.0
331,226.71611963958338,227.0532405145834,79.0,93.0
332,226.94339213958338,227.0532405145834,79.0,95.0
333,227.17066463958338,227.63190368125004,79.0,98.0
334,227.63577963958338,251.18552248333336,77.0,66.0
