,start,end,pitch,velocity
0,2.01057055625,2.36826173125,75.0,72.0
1,2.01057055625,2.51249204375,72.0,69.0
2,2.01057055625,2.757683575,68.0,63.0
3,2.70287605625,3.38364313125,75.0,59.0
4,2.01057055625,3.5384503333333335,63.0,62.0
5,2.93364455625,3.5480656875,68.0,56.0
6,2.01057055625,3.5586425770833334,56.0,49.0
7,2.01057055625,3.5586425770833334,60.0,61.0
8,3.39518155625,3.9615259166666665,72.0,37.0
9,3.85671855625,4.6461391333333335,63.0,60.0
10,3.85671855625,4.657677558333333,68.0,55.0
11,3.85671855625,4.673062125,60.0,48.0
12,3.85671855625,4.696138975,56.0,45.0
13,4.77979255625,4.998061095833333,68.0,63.0
14,4.77979255625,5.026907158333334,63.0,69.0
15,4.77979255625,5.060560897916667,60.0,52.0
16,4.77979255625,5.096137708333333,56.0,57.0
17,5.70286655625,5.905750529166666,51.0,73.0
18,5.70286655625,5.9076736,48.0,66.0
19,5.70286655625,5.914404347916666,55.0,70.0
20,5.70286655625,5.937481197916667,58.0,70.0
21,5.70286655625,6.332672254166667,75.0,60.0
22,6.62594055625,7.245169364583333,67.0,64.0
23,6.62594055625,7.250938577083334,63.0,63.0
24,6.62594055625,7.257669325,60.0,49.0
25,7.0874775562500005,7.665360341666667,75.0,63.0
26,7.54901455625,7.665360341666667,75.0,49.0
27,7.0874775562500005,7.686514120833333,70.0,51.0
28,7.54901455625,8.214397064583334,67.0,55.0
29,7.54901455625,8.227858560416667,60.0,42.0
30,7.54901455625,8.230743166666667,63.0,49.0
31,8.47208855625,8.711510875,67.0,73.0
32,8.47208855625,8.752856897916667,63.0,72.0
33,8.47208855625,8.76631839375,60.0,60.0
34,9.39516255625,10.068237347916666,60.0,64.0
35,9.39516255625,10.092275733333333,56.0,66.0
36,9.39516255625,10.11054490625,53.0,63.0
37,9.39516255625,10.128814079166666,49.0,50.0
38,10.31823655625,10.829773397916666,53.0,45.0
39,10.31823655625,10.864388672916666,56.0,47.0
40,10.31823655625,10.907657766666667,60.0,47.0
41,10.31823655625,11.02208048125,49.0,50.0
42,10.31823655625,11.449963741666666,68.0,46.0
43,10.31823655625,11.615347833333333,73.0,51.0
44,11.24131055625,11.663424604166666,80.0,1.0
45,11.24131055625,11.996115858333333,60.0,45.0
46,11.24131055625,12.007654283333334,56.0,58.0
47,11.24131055625,12.044192629166666,49.0,45.0
48,12.16438455625,12.3288071125,56.0,67.0
49,12.16438455625,12.336499395833334,60.0,62.0
50,12.16438455625,12.33746093125,49.0,60.0
51,13.08745855625,13.43361130625,73.0,50.0
52,13.08745855625,13.475918864583333,68.0,66.0
53,13.08745855625,13.511495675,76.0,70.0
54,13.08745855625,14.272070189583333,60.0,63.0
55,14.01053255625,14.554761602083333,64.0,59.0
56,14.01053255625,14.612453727083334,73.0,48.0
57,14.93360655625,15.96629559375,70.0,50.0
58,14.93360655625,16.368217397916666,64.0,48.0
59,13.08745855625,16.386486570833334,52.0,63.0
60,13.08745855625,16.38744810625,56.0,67.0
61,15.97206480625,16.414371097916668,68.0,49.0
62,14.47206955625,16.417255704166667,60.0,37.0
63,13.08745855625,16.454755585416667,49.0,56.0
64,16.77975455625,17.40379104166667,68.0,64.0
65,16.77975455625,17.444175529166667,72.0,63.0
66,16.77975455625,17.457637025,70.0,62.0
67,16.77975455625,17.465329308333335,63.0,62.0
68,16.77975455625,17.856674222916666,56.0,69.0
69,16.77975455625,17.869174183333335,44.0,72.0
70,17.70282855625,18.234557641666665,68.0,61.0
71,17.70282855625,18.275903664583332,72.0,59.0
72,17.70282855625,18.30859586875,63.0,55.0
73,17.70282855625,18.322057364583333,70.0,62.0
74,18.62590255625,19.253785183333335,68.0,63.0
75,18.62590255625,19.280708175,63.0,57.0
76,18.62590255625,19.301861954166668,70.0,62.0
77,18.62590255625,19.313400379166666,72.0,61.0
78,19.54897655625,19.94705221875,72.0,70.0
79,19.54897655625,19.95282143125,68.0,70.0
80,19.54897655625,19.95859064375,63.0,62.0
81,19.54897655625,19.965321391666667,70.0,67.0
82,20.47205055625,21.0172411375,75.0,45.0
83,20.47205055625,21.195125189583333,63.0,62.0
84,20.47205055625,21.219163575,67.0,70.0
85,20.47205055625,21.23166353541667,70.0,70.0
86,21.39512455625,21.991276514583333,63.0,52.0
87,21.39512455625,22.014353364583332,67.0,59.0
88,21.39512455625,22.039353285416666,70.0,61.0
89,20.47205055625,22.598966897916668,51.0,53.0
90,22.31819855625,22.995119489583335,67.0,64.0
91,22.31819855625,22.995119489583335,70.0,66.0
92,22.31819855625,23.006657914583332,63.0,55.0
93,23.01050405625,23.419156608333335,51.0,37.0
94,23.24127255625,23.698963414583332,67.0,70.0
95,23.24127255625,23.709540304166666,63.0,59.0
96,23.24127255625,23.7172325875,70.0,69.0
97,20.47205055625,23.74992479166667,39.0,58.0
98,23.70280955625,23.803770775,51.0,53.0
99,24.16434655625,24.818190639583335,73.0,70.0
100,24.16434655625,24.838382883333335,68.0,73.0
101,24.16434655625,24.843190560416666,65.0,70.0
102,24.16434655625,25.233573939583334,37.0,73.0
103,24.16434655625,25.359535079166665,49.0,66.0
104,25.08742055625,25.6903032625,73.0,59.0
105,25.08742055625,25.69318786875,68.0,67.0
106,25.08742055625,25.712418577083334,65.0,63.0
107,26.010494556250002,26.32780124375,65.0,56.0
108,26.010494556250002,26.347031952083334,68.0,62.0
109,26.010494556250002,26.370108802083333,73.0,58.0
110,26.472031556250002,27.042222058333333,61.0,43.0
111,26.933568556250002,27.17106780416667,73.0,61.0
112,26.933568556250002,27.40087476875,68.0,72.0
113,27.39510555625,27.563374254166668,61.0,39.0
114,25.89511030625,27.587412639583334,49.0,41.0
115,27.85664255625,27.971065270833332,73.0,51.0
116,27.85664255625,28.1999107,70.0,51.0
117,27.85664255625,28.326833375,68.0,66.0
118,27.85664255625,28.3441410125,63.0,62.0
119,28.08741105625,28.37010246875,72.0,31.0
120,28.31817955625,28.876831633333335,56.0,44.0
121,28.77971655625,29.15567690416667,72.0,57.0
122,28.77971655625,29.175869147916668,70.0,61.0
123,28.77971655625,29.187407572916666,68.0,60.0
124,28.77971655625,29.200869068750002,63.0,56.0
125,29.24125355625,29.8152902,56.0,33.0
126,29.70279055625,30.052789447916666,72.0,60.0
127,29.70279055625,30.065289408333335,63.0,53.0
128,29.70279055625,30.0864431875,68.0,59.0
129,30.62586455625,30.699902783333332,68.0,64.0
130,30.62586455625,30.7325949875,63.0,69.0
131,30.62586455625,30.766248727083333,72.0,72.0
132,30.85663305625,30.934517425,68.0,62.0
133,30.85663305625,30.971055770833335,73.0,72.0
134,30.39509605625,31.224901120833334,56.0,52.0
135,27.97202680625,31.319131591666668,44.0,61.0
136,31.08740155625,31.38740060625,75.0,76.0
137,31.54893855625,32.06336000416667,63.0,82.0
138,31.54893855625,32.08547531875,72.0,76.0
139,31.54893855625,32.09797527916667,68.0,73.0
140,32.01047555625,32.572973775,56.0,37.0
141,32.47201255625,32.69220416666667,63.0,63.0
142,32.47201255625,32.74124247291667,70.0,57.0
143,32.47201255625,32.76047318125,68.0,69.0
144,32.47201255625,32.793165385416664,72.0,72.0
145,31.54893855625,33.02585695625,44.0,72.0
146,32.93354955625,33.531624585416665,56.0,40.0
147,33.39508655625,33.65950879583333,80.0,73.0
148,33.39508655625,33.6633549375,75.0,64.0
149,33.39508655625,33.679701039583335,72.0,67.0
150,33.85662355625,34.47200622291667,56.0,31.0
151,34.31816055625,34.687390156250004,63.0,64.0
152,34.31816055625,34.75085149375,68.0,78.0
153,34.31816055625,34.76142838333333,72.0,73.0
154,33.39508655625,34.8633511375,44.0,52.0
155,34.77969755625,34.86912035,56.0,72.0
156,35.24123455625,35.36142648333333,39.0,69.0
157,35.24123455625,35.40758018333334,51.0,70.0
158,35.24123455625,35.666233210416664,63.0,66.0
159,35.24123455625,35.74315604375,67.0,75.0
160,35.24123455625,35.74796372083333,70.0,76.0
161,36.16430855625,36.29700044375,67.0,95.0
162,36.16430855625,36.335461860416665,70.0,85.0
163,36.16430855625,36.36046178125,75.0,55.0
164,35.70277155625,36.71046067291667,51.0,37.0
165,36.62584555625,37.2171898375,63.0,41.0
166,37.08738255625,37.33642022916667,75.0,73.0
167,37.08738255625,37.340266370833334,79.0,75.0
168,37.08738255625,37.3671893625,70.0,63.0
169,38.01045655625,38.172956041666666,70.0,75.0
170,38.01045655625,38.17391757708334,75.0,75.0
171,37.77968805625,38.19699442708333,63.0,49.0
172,38.01045655625,38.257571158333334,67.0,95.0
173,37.08738255625,38.47968583958333,51.0,54.0
174,38.47199355625,38.5844932,58.0,50.0
175,38.93353055625,39.425836689583335,65.0,73.0
176,38.93353055625,39.425836689583335,73.0,76.0
177,38.93353055625,39.44122125625,68.0,76.0
178,39.85660455625,40.059488529166664,65.0,66.0
179,39.85660455625,40.1075653,68.0,73.0
180,39.85660455625,40.1133345125,73.0,76.0
181,39.39506755625,40.29987238333334,61.0,40.0
182,39.04891480625,40.556602339583335,49.0,59.0
183,40.31814155625,40.77967855625,56.0,46.0
184,40.77967855625,41.50179165416667,68.0,78.0
185,40.77967855625,41.50659933125,64.0,66.0
186,40.77967855625,41.52583003958333,73.0,72.0
187,40.77967855625,41.894098104166666,61.0,66.0
188,41.70275255625,42.095059006250004,64.0,67.0
189,41.70275255625,42.1556357375,68.0,73.0
190,41.70275255625,42.15948187916667,73.0,70.0
191,42.16428955625,42.26044309791667,61.0,63.0
192,40.77967855625,42.273904593750004,49.0,69.0
193,42.62582655625,43.17967095625,63.0,66.0
194,42.62582655625,43.19313245208333,68.0,75.0
195,42.62582655625,43.20274780625,72.0,70.0
196,43.087363556250004,43.71716925416667,56.0,51.0
197,43.548900556250004,44.00659141458333,68.0,72.0
198,43.548900556250004,44.00947602083333,65.0,69.0
199,42.62582655625,44.139283302083335,44.0,72.0
200,43.548900556250004,44.204667710416665,73.0,73.0
201,44.471974556250004,45.17101080416667,68.0,76.0
202,44.010437556250004,45.172933875,56.0,59.0
203,44.471974556250004,45.1844723,63.0,69.0
204,44.471974556250004,45.197933795833336,44.0,75.0
205,44.471974556250004,45.23351060625,72.0,73.0
206,45.39504855625,45.7902396125,44.0,73.0
207,45.39504855625,45.806585714583335,60.0,75.0
208,45.39504855625,45.82100874583333,63.0,85.0
209,45.39504855625,45.82389335208333,68.0,73.0
210,45.39504855625,45.83254717083334,56.0,50.0
211,46.31812255625,46.972928175,72.0,76.0
212,46.31812255625,46.99215888333333,67.0,93.0
213,46.31812255625,47.006581914583336,63.0,73.0
214,46.31812255625,47.471003520833335,60.0,78.0
215,47.24119655625,47.816194735416666,67.0,103.0
216,47.24119655625,47.84504079791667,63.0,88.0
217,47.24119655625,47.86427150625,72.0,72.0
218,47.70273355625,48.36042378125,60.0,40.0
219,48.16427055625,48.78157629375,67.0,75.0
220,48.16427055625,48.786383970833334,63.0,66.0
221,48.16427055625,48.79311471875,72.0,75.0
222,46.31812255625,49.22965179791667,48.0,75.0
223,48.74119180625,49.24888250625,60.0,40.0
224,49.08734455625,49.662342735416665,72.0,73.0
225,49.54888155625,49.665227341666665,48.0,70.0
226,49.08734455625,49.67580423125,67.0,99.0
227,49.08734455625,49.67772730208333,63.0,72.0
228,50.01041855625,50.6594549625,63.0,76.0
229,50.01041855625,50.6767626,72.0,76.0
230,50.01041855625,50.686377954166666,68.0,80.0
231,50.47195555625,51.06041523125,53.0,44.0
232,50.93349255625,51.41714487083333,63.0,75.0
233,50.93349255625,51.46329857083333,68.0,88.0
234,50.93349255625,51.465221641666666,72.0,69.0
235,51.39502955625,52.01041222291667,53.0,36.0
236,51.85656655625,52.36425725625,63.0,66.0
237,51.85656655625,52.403680208333334,72.0,70.0
238,51.85656655625,52.422910916666666,68.0,70.0
239,52.31810355625,52.871947956250004,53.0,44.0
240,50.01041855625,53.22579298958333,41.0,72.0
241,52.77964055625,53.295985075,70.0,69.0
242,52.77964055625,53.308485035416666,63.0,63.0
243,52.77964055625,53.31617731875,67.0,95.0
244,53.24117755625,53.3594464125,53.0,60.0
245,53.70271455625,54.37002013541667,61.0,81.0
246,53.70271455625,54.41905844166667,56.0,53.0
247,53.70271455625,54.46328907083333,68.0,57.0
248,53.70271455625,54.48059670833334,65.0,66.0
249,54.62578855625,55.21232516041667,61.0,81.0
250,54.62578855625,55.23155586875,65.0,70.0
251,54.62578855625,55.242132758333334,56.0,53.0
252,54.62578855625,55.27001728541667,68.0,53.0
253,55.54886255625,56.1402068375,61.0,68.0
254,55.54886255625,56.16809136458333,65.0,48.0
255,55.54886255625,56.17770671875,68.0,23.0
256,55.54886255625,56.19212975,56.0,41.0
257,53.70271455625,56.75462796875,49.0,72.0
258,56.47193655625,56.83924308541667,56.0,56.0
259,56.47193655625,56.891165997916666,61.0,81.0
260,56.47193655625,56.947896587500004,65.0,65.0
261,57.39501055625,57.845970666666666,61.0,79.0
262,57.39501055625,57.852701414583336,56.0,54.0
263,57.39501055625,57.87000905208333,65.0,74.0
264,57.39501055625,58.47289175833333,51.0,47.0
265,58.31808455625,58.630583566666665,56.0,57.0
266,58.31808455625,58.670968054166664,61.0,63.0
267,58.31808455625,58.69212183333333,65.0,69.0
268,57.39501055625,58.916159585416665,39.0,68.0
269,58.66423730625,58.963274820833334,51.0,29.0
270,59.24115855625,59.60654201458333,63.0,72.0
271,59.24115855625,59.64308036041667,58.0,45.0
272,59.24115855625,59.697887879166665,67.0,48.0
273,59.24115855625,60.43057786666667,51.0,35.0
274,60.16423255625,60.540192904166666,63.0,70.0
275,60.16423255625,60.618077272916665,70.0,60.0
276,59.24115855625,60.62000034375,39.0,65.0
277,60.62576955625,60.68346168125,51.0,35.0
278,60.62576955625,60.76807679791667,68.0,82.0
279,61.08730655625,61.6209587125,70.0,77.0
280,61.08730655625,61.66807394791667,67.0,56.0
281,61.08730655625,61.673843160416666,63.0,65.0
282,61.08730655625,62.29980271666667,60.0,69.0
283,62.01038055625,62.52960968125,70.0,54.0
284,62.01038055625,62.54691731875,67.0,34.0
285,62.01038055625,62.56134035,63.0,54.0
286,62.70268605625,63.10653093125,60.0,2.0
287,62.93345455625,63.3055687625,70.0,60.0
288,62.93345455625,63.357491675,67.0,42.0
289,62.93345455625,63.40845305208333,63.0,56.0
290,63.62576005625,63.991143514583335,60.0,26.0
291,63.85652855625,64.3382578,75.0,65.0
292,63.85652855625,64.39210378333334,67.0,51.0
293,63.85652855625,64.39883453125,63.0,53.0
294,64.31806555625,64.41133449166666,60.0,34.0
295,64.08729705625,64.4305652,72.0,60.0
296,61.08730655625,64.45364205,48.0,54.0
297,64.77960255625,65.36613916041667,60.0,80.0
298,64.77960255625,65.56998466875,57.0,80.0
299,64.77960255625,65.57575388125,65.0,80.0
300,64.77960255625,65.92575277291667,53.0,78.0
301,65.70267655625,66.06132926666666,57.0,75.0
302,65.70267655625,66.12286753333333,60.0,72.0
303,65.70267655625,66.14690591875001,65.0,78.0
304,66.16421355625,67.12863357916667,53.0,46.0
305,66.62575055625,67.29594074166667,65.0,70.0
306,66.62575055625,67.33344062291667,69.0,75.0
307,66.62575055625,67.34017137083333,72.0,80.0
308,67.31805605625,67.65651652291666,53.0,40.0
309,67.54882455625,67.79882376458333,65.0,80.0
310,67.54882455625,67.81901600833334,69.0,101.0
311,67.54882455625,67.84209285833333,72.0,91.0
312,64.77960255625,67.857477425,41.0,76.0
313,67.77959305625001,68.0478614375,53.0,56.0
314,68.01036155625,68.32959131458334,65.0,75.0
315,68.24113005625,68.37574501458333,69.0,62.0
316,68.47189855625,69.19785779583333,73.0,75.0
317,68.47189855625,69.19978086666667,65.0,91.0
318,68.47189855625,69.20939622083334,68.0,97.0
319,68.47189855625,69.62381798541666,61.0,91.0
320,69.39497255625,69.93631699583334,73.0,70.0
321,69.39497255625,69.94977849166666,68.0,99.0
322,69.39497255625,69.95266309791667,65.0,88.0
323,69.85650955625,70.46131533333333,61.0,39.0
324,70.31804655625,71.00458284375,73.0,66.0
325,70.31804655625,71.01035205625,68.0,97.0
326,70.31804655625,71.02092894583333,65.0,85.0
327,71.01035205625,71.45650448958334,61.0,44.0
328,68.47189855625,71.56611952708333,49.0,72.0
329,71.58727330625,71.65265771458333,56.0,62.0
330,71.24112055625,71.69496527291666,65.0,85.0
331,71.24112055625,71.69977295,68.0,101.0
332,71.24112055625,71.75938814583334,73.0,76.0
333,72.16419455625,72.61515466666667,70.0,72.0
334,72.16419455625,72.61611620208333,68.0,84.0
335,72.16419455625,72.6459238,63.0,63.0
336,72.62573155625,73.19303745208333,58.0,54.0
337,72.16419455625,73.48149807708333,51.0,82.0
338,73.08726855625,73.62765146041667,63.0,68.0
339,73.54880555625,74.0363040125,68.0,82.0
340,74.01034255625,74.30938007083333,67.0,63.0
341,74.01034255625,74.48245644583334,63.0,70.0
342,74.01034255625,75.03630084583334,51.0,50.0
343,74.93341655625,75.5247608375,63.0,78.0
344,74.93341655625,75.58629910416667,58.0,65.0
345,74.93341655625,75.60168367083334,67.0,72.0
346,74.01034255625,75.67187575625,39.0,65.0
347,75.39495355625,75.69687567708334,51.0,86.0
348,75.85649055625,76.58918054375,72.0,66.0
349,75.85649055625,76.615142,63.0,80.0
350,75.85649055625,76.63918038541667,68.0,93.0
351,75.85649055625,77.02187148125,56.0,82.0
352,76.77956455625,77.32571667291667,63.0,78.0
353,76.77956455625,77.40456257708334,72.0,67.0
354,76.77956455625,77.43629324583334,68.0,93.0
355,77.24110155625,77.8324458375,56.0,47.0
356,77.70263855625001,78.172829375,67.0,70.0
357,77.70263855625001,78.23725224791667,63.0,63.0
358,77.70263855625001,78.35455956875,70.0,76.0
359,78.16417555625,78.75936597916667,56.0,39.0
360,75.85649055625,79.11417254791667,44.0,70.0
361,78.62571255625001,79.16321085416666,63.0,93.0
362,78.62571255625001,79.19782612916667,68.0,95.0
363,79.08724955625,79.25263364791667,56.0,51.0
364,79.54878655625001,80.10263095625,63.0,80.0
365,79.54878655625001,80.1055155625,67.0,97.0
366,79.54878655625001,80.11897705833333,70.0,73.0
367,80.01032355625,80.67378299375,60.0,47.0
368,80.47186055625001,81.04493566458333,67.0,88.0
369,80.47186055625001,81.06993558541667,63.0,69.0
370,80.47186055625001,81.080512475,70.0,67.0
371,80.93339755625,81.5824339625,60.0,41.0
372,81.39493455625,81.95935584583333,67.0,101.0
373,81.39493455625,81.97666348333334,63.0,82.0
374,81.39493455625,82.03435560833333,70.0,69.0
375,81.85647155625,82.4247389875,60.0,39.0
376,82.77954555625,82.880506775,60.0,60.0
377,79.54878655625001,82.88723752291666,48.0,69.0
378,82.31800855625,82.90646823125,67.0,101.0
379,82.31800855625,82.92858354583333,70.0,67.0
380,82.31800855625,82.94589118333333,63.0,80.0
381,83.24108255625,83.6824273125,72.0,72.0
382,83.24108255625,83.89684971041667,65.0,88.0
383,83.24108255625,83.91992656041667,68.0,88.0
384,84.16415655625,84.67569339791667,73.0,48.0
385,84.16415655625,84.71127020833333,65.0,80.0
386,84.16415655625,84.78146229375,68.0,99.0
387,84.62569355625,84.86126973333333,61.0,50.0
388,83.24108255625,85.02569228958333,49.0,73.0
389,85.08723055625,85.72376700208333,65.0,73.0
390,85.08723055625,85.72857467916667,68.0,72.0
391,85.66415180625,85.972804675,61.0,58.0
392,86.01030455625,86.23722691458333,65.0,91.0
393,86.01030455625,86.30068825208333,68.0,99.0
394,85.08723055625,86.46799541458333,49.0,66.0
395,86.24107305625,86.47664923333333,61.0,51.0
396,86.47184155625,86.75260989791667,65.0,72.0
397,86.70261005625,86.82760966041667,68.0,62.0
398,86.93337855625,87.22856992916667,63.0,85.0
399,86.93337855625,87.29491587291666,68.0,88.0
400,87.62568405625,87.93722153125,68.0,82.0
401,87.85645255625,87.98241369583333,70.0,76.0
402,88.08722105625,88.37760475208333,75.0,78.0
403,87.39491555625,88.43337380625,63.0,66.0
404,86.93337855625,88.53625809583333,51.0,72.0
405,88.31798955625,88.56125801666667,80.0,60.0
406,87.16414705625,88.65164234583334,58.0,48.0
407,88.54875805625,88.73529592708333,82.0,59.0
408,88.77952655625,89.02567962291667,87.0,73.0
409,88.77952655625,89.09010249583334,75.0,66.0
410,89.01029505625,89.55837024375,58.0,49.0
411,89.47183205625001,89.69971595,68.0,78.0
412,89.24106355625,89.74490811458334,63.0,53.0
413,89.70260055625,90.034330275,67.0,72.0
414,88.77952655625,90.09586854166666,51.0,64.0
415,89.93336905625,90.10740696666667,58.0,67.0
416,90.16413755625,90.380483025,63.0,66.0
417,90.39490605625001,90.52567487291667,68.0,55.0
418,90.62567455625,91.28817245833334,63.0,91.0
419,90.62567455625,91.34201844166667,72.0,76.0
420,90.62567455625,91.35644147291667,68.0,70.0
421,91.54874855625,92.20740031666666,63.0,76.0
422,91.54874855625,92.22374641875,70.0,70.0
423,91.54874855625,92.226631025,72.0,70.0
424,91.54874855625,92.24201559166667,68.0,82.0
425,91.08721155625,92.6477835375,56.0,43.0
426,92.47182255625,92.98624400416666,63.0,91.0
427,90.62567455625,93.06124376666666,44.0,69.0
428,92.93335955625,93.06797451458334,56.0,44.0
429,92.47182255625,93.22566632291667,72.0,70.0
430,92.47182255625,93.26220466875,68.0,95.0
431,93.39489655625,93.72470320416667,63.0,82.0
432,93.39489655625,93.73624162916667,72.0,76.0
433,93.39489655625,93.75258773125,68.0,78.0
434,93.85643355625,94.01027922291667,63.0,61.0
435,93.85643355625,94.08720205625,43.0,56.0
436,93.85643355625,94.16316335416667,67.0,76.0
437,93.85643355625,94.16989410208333,70.0,75.0
438,94.31797055625,94.89585334166667,67.0,97.0
439,94.31797055625,95.04969900833333,70.0,78.0
440,94.31797055625,95.05546822083333,63.0,76.0
441,94.31797055625,95.47662073333333,55.0,80.0
442,95.24104455625,95.92758084375001,67.0,103.0
443,95.24104455625,95.93911926875,63.0,76.0
444,95.24104455625,95.96411918958333,70.0,82.0
445,95.93335005625,96.57854032083334,55.0,49.0
446,96.16411855625,96.81123189166667,67.0,93.0
447,96.16411855625,96.88623165416666,63.0,64.0
448,96.16411855625,96.91603925208334,70.0,64.0
449,96.85642405625,97.17853842083333,55.0,50.0
450,97.08719255625,97.40257617291667,70.0,93.0
451,97.08719255625,97.42084534583333,63.0,82.0
452,97.31796105625,97.57949868958333,68.0,61.0
453,94.31797055625,97.73334435625,43.0,85.0
454,97.54872955625,97.74103663958333,67.0,101.0
455,97.77949805625,97.9093053375,63.0,75.0
456,98.01026655625,98.23238123750001,37.0,70.0
457,98.01026655625,98.32084249583333,49.0,70.0
458,98.01026655625,98.44391902916666,73.0,73.0
459,98.01026655625,98.46699587916667,65.0,73.0
460,98.01026655625,98.47180355625,68.0,80.0
461,98.70257205625,99.10737846666667,61.0,49.0
462,98.93334055625,99.34776232083334,65.0,73.0
463,98.93334055625,99.37083917083334,68.0,76.0
464,98.70257205625,99.41218519375,49.0,44.0
465,98.93334055625,99.50449259375,73.0,75.0
466,99.39487755625,99.61314609583333,61.0,45.0
467,99.85641455625,100.10449069375,68.0,57.0
468,99.85641455625,100.11122144166667,63.0,69.0
469,99.85641455625,100.31410541458334,72.0,69.0
470,100.31795155625,100.64295052708333,61.0,58.0
471,100.54872005625,101.02852622916667,73.0,78.0
472,100.54872005625,101.03814158333333,68.0,85.0
473,100.54872005625,101.04102618958333,65.0,80.0
474,101.01025705625,101.23621787916667,61.0,63.0
475,100.08718305625,101.272756225,56.0,50.0
476,99.85641455625,101.27948697291667,49.0,72.0
477,101.24102555625001,101.46506330833334,65.0,69.0
478,101.47179405625,101.60929362083334,73.0,70.0
479,101.70256255625,102.14679191875,44.0,70.0
480,101.93333105625,102.16409955625001,51.0,61.0
481,101.70256255625,102.27179152291667,63.0,78.0
482,101.70256255625,102.30352219166667,68.0,78.0
483,101.70256255625,102.34582975000001,72.0,78.0
484,102.16409955625001,102.44775250416667,56.0,66.0
485,102.62563655625,102.96602009375,60.0,76.0
486,102.85640505625,103.11794268958333,68.0,80.0
487,103.08717355625001,103.18909631041667,70.0,72.0
488,103.31794205625,103.46794158125,73.0,80.0
489,103.54871055625,103.64294102708334,75.0,70.0
490,103.77947905625,104.05447818541667,80.0,80.0
491,102.39486805625,104.1227472,58.0,59.0
492,104.01024755625001,104.17851625416667,85.0,57.0
493,104.24101605625,104.42178471458334,87.0,46.0
494,104.47178455625,104.55255353125,92.0,66.0
495,107.24100655625,107.40577911875,44.0,56.0
496,107.24100655625,107.454074525,56.0,53.0
497,107.69555155625,107.88494530625,46.0,62.0
498,107.69555155625,107.89820286875,58.0,58.0
499,108.15009655625,108.29782368125,60.0,69.0
500,108.15009655625,108.302558525,48.0,75.0
501,109.05918655625,109.673769275,68.0,64.0
502,109.05918655625,109.7135419625,72.0,63.0
503,109.05918655625,109.726799525,70.0,62.0
504,109.05918655625,109.734375275,63.0,62.0
505,109.05918655625,110.11979155625,56.0,69.0
506,109.05918655625,110.13210215,44.0,72.0
507,109.96827655625,110.491950275,68.0,61.0
508,109.96827655625,110.53266993125,72.0,59.0
509,109.96827655625,110.56486686875,63.0,55.0
510,109.96827655625,110.57812443125,70.0,62.0
511,110.87736655625,111.53563272916666,68.0,63.0
512,110.87736655625,111.5638585375,63.0,57.0
513,110.87736655625,111.58603595833333,70.0,62.0
514,110.87736655625,111.59813273333333,72.0,61.0
515,111.84510855625,112.24318421875,72.0,70.0
516,111.84510855625,112.24895343125,68.0,70.0
517,111.84510855625,112.25472264375,63.0,62.0
518,111.84510855625,112.26145339166666,70.0,67.0
519,112.76818255625,113.3051138375,75.0,45.0
520,112.76818255625,113.48030305625,63.0,62.0
521,112.76818255625,113.503977275,67.0,70.0
522,112.76818255625,113.51628786875,70.0,70.0
523,113.67727255625,114.26439318125,63.0,52.0
524,113.67727255625,114.28712043125,67.0,59.0
525,113.67727255625,114.31174161874999,70.0,61.0
526,112.76818255625,114.86287743125,51.0,53.0
527,114.58636255625,115.25302855625,67.0,64.0
528,114.58636255625,115.25302855625,70.0,66.0
529,114.58636255625,115.26439218125,63.0,55.0
530,115.26818005625,115.67753919166667,51.0,37.0
531,115.49545255625,115.96395654791667,67.0,70.0
532,115.49545255625,115.97478332083334,63.0,59.0
533,115.49545255625,115.9826573375,70.0,69.0
534,112.76818255625,116.01612190833333,39.0,58.0
535,115.96789355625,116.071240025,51.0,53.0
536,116.44033455625001,117.09924747291667,73.0,70.0
537,116.44033455625001,117.11959625416668,68.0,73.0
538,116.44033455625001,117.12444120208335,65.0,70.0
539,116.44033455625001,117.51450380625,37.0,73.0
540,116.44033455625001,117.6385567125,49.0,66.0
541,117.37056455625,117.9643139625,73.0,59.0
542,117.37056455625,117.96715486875,68.0,67.0
543,117.37056455625,117.98609424375,65.0,63.0
544,118.27965455625001,118.59215424375,65.0,56.0
545,118.27965455625001,118.61109361875,68.0,62.0
546,118.27965455625001,118.63382086875,73.0,58.0
547,118.73419955625,119.29996504166667,61.0,43.0
548,119.18874455625,119.43185482083334,73.0,61.0
549,119.18874455625,119.66709106875,68.0,72.0
550,119.66118555625,119.83342967083334,61.0,39.0
551,118.27965455625001,119.97614622291667,49.0,41.0
552,120.13362655625001,120.24983749375001,73.0,51.0
553,120.13362655625001,120.48225936875001,70.0,51.0
554,120.13362655625001,120.61116561875001,68.0,66.0
555,120.13362655625001,120.62874374375001,63.0,62.0
556,120.36800155625001,120.65511093125001,72.0,31.0
557,120.60237655625001,121.16975936875001,56.0,44.0
558,121.07112655625001,121.45296249375001,72.0,57.0
559,121.07112655625001,121.47347030625001,70.0,61.0
560,121.07112655625001,121.48518905625001,68.0,60.0
561,121.07112655625001,121.49886093125001,63.0,56.0
562,121.53987655625001,122.1194219,56.0,33.0
563,122.00862655625001,122.35332318125,72.0,60.0
564,122.00862655625001,122.365633775,63.0,53.0
565,122.00862655625001,122.38646708750001,68.0,59.0
566,122.91771655625001,122.99063315000001,68.0,64.0
567,122.91771655625001,123.02283008750001,63.0,69.0
568,122.91771655625001,123.05597399375,72.0,72.0
569,123.14498905625001,123.221693525,68.0,62.0
570,123.14498905625001,123.25767833750001,73.0,72.0
571,120.13362655625001,123.48950929583334,44.0,61.0
572,122.69044405625,123.51082706666668,56.0,52.0
573,123.37226155625001,123.67458630625,75.0,76.0
574,123.83737655625,124.35578598333335,63.0,82.0
575,123.83737655625,124.37807274375001,72.0,76.0
576,123.83737655625,124.39066960833334,68.0,73.0
577,124.30249155625,124.86703827500001,56.0,37.0
578,124.76760655625002,124.98446240000001,63.0,63.0
579,124.76760655625002,125.03275780625002,70.0,57.0
580,124.76760655625002,125.05169718125002,68.0,69.0
581,124.76760655625002,125.08389411875001,72.0,72.0
582,123.83737655625,125.31306055625002,44.0,72.0
583,125.22215155625001,125.81116611875001,56.0,40.0
584,125.67669655625002,125.93711296250001,72.0,73.0
585,125.67669655625002,125.94090083750001,70.0,64.0
586,125.67669655625002,125.95699930625001,68.0,67.0
587,126.13124155625002,126.73730155625002,56.0,31.0
588,126.58578655625001,126.94942255625001,63.0,64.0
589,126.58578655625001,127.01192249375002,68.0,78.0
590,126.58578655625001,127.02233915000002,72.0,73.0
591,125.67669655625002,127.12271783750002,44.0,52.0
592,127.04033155625001,127.12839965000002,56.0,72.0
593,127.49487655625002,127.61506848333336,39.0,69.0
594,127.49487655625002,127.66122218333335,51.0,70.0
595,127.49487655625002,127.91987521041669,63.0,66.0
596,127.49487655625002,127.99679804375002,67.0,75.0
597,127.49487655625002,128.00160572083334,70.0,76.0
598,128.41795055625002,128.55064244375,67.0,95.0
599,128.41795055625002,128.58910386041669,70.0,85.0
600,128.41795055625002,128.61410378125,75.0,55.0
601,127.95641355625003,128.96410267291668,51.0,37.0
602,128.87948755625,129.47083183750001,63.0,41.0
603,129.34102455625003,129.59006222916668,75.0,73.0
604,129.34102455625003,129.59390837083336,79.0,75.0
605,129.34102455625003,129.6208313625,70.0,63.0
606,130.26409855625002,130.4265980416667,70.0,75.0
607,130.26409855625002,130.42755957708334,75.0,75.0
608,130.03333005625,130.45063642708337,63.0,49.0
609,130.26409855625002,130.51121315833336,67.0,95.0
610,129.34102455625003,130.73332783958335,51.0,54.0
611,130.72563555625,130.8381352,58.0,50.0
612,131.18717255625003,131.67947868958336,65.0,73.0
613,131.18717255625003,131.67947868958336,73.0,76.0
614,131.18717255625003,131.69486325625002,68.0,76.0
615,132.11024655625002,132.3131305291667,65.0,66.0
616,132.11024655625002,132.36120730000002,68.0,73.0
617,132.11024655625002,132.36697651250003,73.0,76.0
618,131.64870955625003,132.55351438333335,61.0,40.0
619,131.30255680625,132.81024433958336,49.0,59.0
620,132.57178355625,133.03332055625003,56.0,46.0
621,133.03332055625003,133.7554336541667,68.0,78.0
622,133.03332055625003,133.76024133125003,64.0,66.0
623,133.03332055625003,133.77947203958337,73.0,72.0
624,133.03332055625003,134.1477401041667,61.0,66.0
625,133.95639455625002,134.34870100625002,64.0,67.0
626,133.95639455625002,134.40927773750002,68.0,73.0
627,133.95639455625002,134.41312387916668,73.0,70.0
628,134.41793155625,134.51408509791668,61.0,63.0
629,133.03332055625003,134.52754659375003,49.0,69.0
630,134.87946855625003,135.43331295625,63.0,66.0
631,134.87946855625003,135.44677445208336,68.0,75.0
632,134.87946855625003,135.45638980625003,72.0,70.0
633,135.34100555625002,135.97081125416668,56.0,51.0
634,135.80254255625002,136.26023341458335,68.0,72.0
635,135.80254255625002,136.26311802083336,65.0,69.0
636,134.87946855625003,136.39292530208334,44.0,72.0
637,135.80254255625002,136.4583097104167,73.0,73.0
638,136.72561655625003,137.4246528041667,68.0,76.0
639,136.26407955625,137.42657587500003,56.0,59.0
640,136.72561655625003,137.43811430000002,63.0,69.0
641,136.72561655625003,137.45157579583335,44.0,75.0
642,136.72561655625003,137.48715260625002,72.0,73.0
643,137.64869055625002,138.04388161250003,44.0,73.0
644,137.64869055625002,138.06022771458336,60.0,75.0
645,137.64869055625002,138.07465074583337,63.0,85.0
646,137.64869055625002,138.07753535208334,68.0,73.0
647,137.64869055625002,138.08618917083336,56.0,50.0
648,138.57176455625003,139.226570175,72.0,76.0
649,138.57176455625003,139.24580088333335,67.0,93.0
650,138.57176455625003,139.26022391458335,63.0,73.0
651,138.57176455625003,139.7300748041667,60.0,78.0
652,139.49483855625002,140.08342130208334,67.0,103.0
653,139.49483855625002,140.11294886458336,63.0,88.0
654,139.49483855625002,140.13263390625002,72.0,72.0
655,139.96727955625002,140.63587378125,60.0,40.0
656,140.43972055625002,141.05702629375003,67.0,75.0
657,140.43972055625002,141.06183397083336,63.0,66.0
658,140.43972055625002,141.06856471875003,72.0,75.0
659,138.57176455625003,141.5051017979167,48.0,75.0
660,141.01664180625002,141.52433250625003,60.0,40.0
661,141.36279455625004,141.93779273541668,72.0,73.0
662,141.82433155625003,141.94067734166669,48.0,70.0
663,141.36279455625004,141.95125423125003,67.0,99.0
664,141.36279455625004,141.95317730208336,63.0,72.0
665,142.28586855625002,142.9349049625,63.0,76.0
666,142.28586855625002,142.95221260000002,72.0,76.0
667,142.28586855625002,142.9618279541667,68.0,80.0
668,142.74740555625002,143.33586523125,53.0,44.0
669,143.20894255625004,143.69259487083335,63.0,75.0
670,143.20894255625004,143.73874857083337,68.0,88.0
671,143.20894255625004,143.7406716416667,72.0,69.0
672,143.67047955625003,144.28586222291668,53.0,36.0
673,144.13201655625002,144.63970725625003,63.0,66.0
674,144.13201655625002,144.67913020833336,72.0,70.0
675,144.13201655625002,144.6983609166667,68.0,70.0
676,144.59355355625001,145.14739795625002,53.0,44.0
677,142.28586855625002,145.50124298958335,41.0,72.0
678,145.05509055625004,145.57272992500003,70.0,69.0
679,145.05509055625004,145.58552520208337,63.0,63.0
680,145.05509055625004,145.59339921875002,67.0,95.0
681,145.51662755625003,145.63769056250004,53.0,60.0
682,145.98906855625003,146.32656748750003,73.0,26.0
683,145.98906855625003,146.41022106875002,63.0,61.0
684,145.98906855625003,146.4544516979167,65.0,69.0
685,145.98906855625003,146.46214398125002,68.0,73.0
686,146.68137405625004,147.05829593958336,63.0,66.0
687,146.21983705625004,147.16502637083337,56.0,56.0
688,146.45060555625003,147.29579518750003,61.0,67.0
689,147.14291105625003,147.29867979375004,68.0,38.0
690,147.14291105625003,147.41021790208336,63.0,59.0
691,145.98906855625003,147.4784869166667,49.0,73.0
692,147.14291105625003,147.54002518333337,65.0,85.0
693,147.60444805625002,147.7294476604167,63.0,58.0
694,147.37367955625004,147.78040903750002,56.0,70.0
695,147.83521655625003,148.26406135208336,63.0,69.0
696,147.83521655625003,148.3380995791667,65.0,73.0
697,147.83521655625003,148.35348414583336,68.0,75.0
698,148.29675355625002,148.62848327500004,61.0,78.0
699,148.52752205625004,148.99771287500002,68.0,93.0
700,148.52752205625004,149.01790511875004,65.0,93.0
701,148.52752205625004,149.03425122083337,73.0,78.0
702,148.98905905625003,149.2265583041667,61.0,54.0
703,148.06598505625004,149.29194271250003,56.0,66.0
704,147.83521655625003,149.3130964916667,49.0,75.0
705,149.21982755625004,149.42463460000002,65.0,82.0
706,149.45059605625002,149.61982628958336,73.0,73.0
707,149.68136455625003,149.71425923333337,73.0,60.0
708,149.68136455625003,150.0854991604167,39.0,73.0
709,150.13249155625005,150.43136319375003,51.0,63.0
710,149.68136455625003,150.6233471291667,67.0,99.0
711,149.68136455625003,150.65435479583337,70.0,88.0
712,149.68136455625003,150.67761054583337,63.0,82.0
713,150.35805505625004,150.77547849375003,53.0,60.0
714,150.58361855625003,151.09621404583336,55.0,76.0
715,151.04873355625003,151.3559032541667,63.0,52.0
716,151.28129105625004,151.51675552500004,65.0,82.0
717,150.81617605625004,151.56423601458337,58.0,78.0
718,151.51384855625003,151.96442871250002,63.0,66.0
719,151.51384855625003,151.9721806291667,70.0,76.0
720,151.51384855625003,151.98996355625002,67.0,69.0
721,151.86268480625003,152.16196355625002,58.0,63.0
722,152.21896355625003,152.30296355625003,70.0,57.0
723,152.21896355625003,152.37296355625003,63.0,59.0
724,152.21896355625003,152.71280890625002,65.0,85.0
725,152.68973205625002,152.99357724791668,63.0,73.0
726,151.51384855625003,153.02242331041668,51.0,73.0
727,152.68973205625002,153.02434638125,67.0,82.0
728,152.92050055625,153.0733846875,58.0,67.0
729,153.38203755625003,154.01657917083335,70.0,63.0
730,153.38203755625003,154.03470893125004,63.0,63.0
731,153.38203755625003,154.05188449375004,67.0,99.0
732,153.38203755625003,154.59959409791668,60.0,88.0
733,154.29806755625003,154.89825804583336,70.0,70.0
734,154.29806755625003,154.91829620208335,63.0,72.0
735,154.29806755625003,154.93833435833335,67.0,78.0
736,154.98509005625002,155.55760880625002,60.0,37.0
737,155.21409755625004,155.95741773333336,63.0,73.0
738,155.21409755625004,155.96314292083335,70.0,72.0
739,155.21409755625004,155.97173070208336,67.0,91.0
740,155.78661630625004,156.22173055625004,60.0,46.0
741,156.13012755625002,156.6520738166667,67.0,99.0
742,156.13012755625002,156.67592876458335,70.0,69.0
743,156.58814255625003,156.68260815000002,60.0,58.0
744,156.13012755625002,156.69024173333335,63.0,70.0
745,153.38203755625003,156.75035620208337,48.0,70.0
746,157.04615755625002,157.6282182854167,60.0,80.0
747,157.04615755625002,157.83050824375002,57.0,80.0
748,157.04615755625002,157.83623343125004,65.0,80.0
749,157.04615755625002,158.1835614729167,53.0,78.0
750,157.96218755625003,158.3181033791667,57.0,75.0
751,157.96218755625003,158.37917204583337,60.0,72.0
752,157.96218755625003,158.40302699375002,65.0,78.0
753,158.42020255625002,159.38436306666668,53.0,46.0
754,158.88531755625002,159.5503935041667,65.0,70.0
755,158.88531755625002,159.5876072229167,69.0,75.0
756,158.88531755625002,159.59428660833336,72.0,80.0
757,159.57234005625003,159.91158378958335,53.0,40.0
758,159.80134755625002,160.05725309791669,65.0,80.0
759,159.80134755625002,160.07792239166668,69.0,101.0
760,159.80134755625002,160.10154444166668,72.0,91.0
761,157.04615755625002,160.11729247500003,41.0,76.0
762,160.03756805625002,160.31217438750002,53.0,56.0
763,160.27378855625003,160.6005602479167,65.0,75.0
764,160.51000905625003,160.6478043479167,69.0,62.0
765,160.74622955625003,161.46664898333336,73.0,75.0
766,160.74622955625003,161.4685573791667,65.0,91.0
767,160.74622955625003,161.47809935833337,68.0,97.0
768,160.74622955625003,161.8893586604167,61.0,91.0
769,161.66225955625004,162.19947298333335,73.0,70.0
770,161.66225955625004,162.2128317541667,68.0,99.0
771,161.66225955625004,162.2156943479167,65.0,88.0
772,162.12027455625002,162.72046504583335,61.0,39.0
773,162.57828955625004,163.25958686875003,73.0,66.0
774,162.57828955625004,163.26531205625002,68.0,97.0
775,162.57828955625004,163.27580823333335,65.0,85.0
776,163.26531205625002,163.70805988958335,61.0,44.0
777,160.74622955625003,163.81683845208337,49.0,72.0
778,163.49431955625002,163.9447009729167,65.0,85.0
779,163.49431955625002,163.94947196250004,68.0,101.0
780,163.49431955625002,164.00863223333337,73.0,76.0
781,163.95233455625004,164.01722001458336,56.0,62.0
782,164.41034955625003,165.09977045000002,61.0,64.0
783,164.41034955625003,165.12573190625002,56.0,69.0
784,164.41034955625003,165.1266934416667,68.0,45.0
785,164.41034955625003,165.16515485833335,65.0,60.0
786,164.41034955625003,165.5103460729167,51.0,67.0
787,165.33342355625004,165.56611512708335,56.0,72.0
788,165.33342355625004,165.66419173958337,61.0,67.0
789,165.33342355625004,165.67573016458337,68.0,66.0
790,165.33342355625004,165.71611465208335,65.0,66.0
791,164.41034955625003,165.7930374854167,39.0,64.0
792,165.79496055625003,165.91611401875002,51.0,64.0
793,166.25649755625003,166.54976585833336,63.0,63.0
794,166.25649755625003,166.56130428333336,67.0,70.0
795,166.25649755625003,166.61418873125004,70.0,70.0
796,166.71803455625002,167.12187943125002,68.0,59.0
797,166.71803455625002,167.24880210625003,58.0,51.0
798,167.17957155625004,167.45937836250002,67.0,63.0
799,167.17957155625004,167.49110903125003,70.0,73.0
800,167.17957155625004,167.56033958125002,63.0,55.0
801,166.25649755625003,167.59687792708337,51.0,78.0
802,167.64110855625003,167.70456989375003,58.0,52.0
803,167.64110855625003,167.7776465854167,72.0,66.0
804,167.64110855625003,167.78726193958335,68.0,60.0
805,168.10264555625002,168.3707907354167,63.0,56.0
806,168.10264555625002,168.59659720208336,68.0,64.0
807,170.03812955625003,170.1510026416667,75.0,48.0
808,170.03812955625003,170.1677936791667,80.0,51.0
809,170.03812955625003,170.18924889375003,72.0,40.0
810,170.48589055625004,170.57824126250003,70.0,57.0
811,170.48589055625004,170.59783080625002,79.0,69.0
812,170.93365155625003,171.05212165416668,67.0,70.0
813,170.93365155625003,171.05865150208336,75.0,73.0
814,171.38141255625004,171.51574085625003,70.0,67.0
815,171.82917355625003,172.26955677708335,68.0,64.0
816,171.82917355625003,172.2743644541667,72.0,75.0
817,171.82917355625003,172.28205673750003,63.0,64.0
818,172.75224755625004,173.11474640833336,72.0,70.0
819,172.75224755625004,173.15224628958336,68.0,70.0
820,172.75224755625004,173.17051546250002,63.0,64.0
821,172.29071055625002,173.9099361979167,56.0,43.0
822,173.67532155625003,174.2907042229167,68.0,60.0
823,173.67532155625003,174.3166656791667,72.0,60.0
824,174.02147430625,174.32435796250002,73.0,8.0
825,173.67532155625003,174.3541655604167,63.0,52.0
826,174.36762705625003,174.63589543750004,56.0,45.0
827,174.59839555625004,174.8647408666667,63.0,59.0
828,174.59839555625004,174.88493311041668,68.0,67.0
829,174.59839555625004,174.9166637791667,72.0,69.0
830,171.82917355625003,174.9426252354167,44.0,76.0
831,174.82916405625002,175.06858637500002,56.0,57.0
832,175.05993255625003,175.28493184375003,63.0,59.0
833,175.29070105625001,175.55467268125003,72.0,64.0
834,175.52146955625003,175.96189924375003,63.0,66.0
835,175.52146955625003,175.96189924375003,67.0,69.0
836,175.52146955625003,175.97459455625003,70.0,69.0
837,175.99021955625003,176.50779768125003,55.0,34.0
838,176.45896955625003,176.64451643125003,63.0,55.0
839,176.45896955625003,176.70896955625003,67.0,60.0
840,176.45896955625003,176.75193830625003,70.0,55.0
841,175.52146955625003,176.93846174375003,48.0,73.0
842,176.45896955625003,176.94041486875003,60.0,55.0
843,176.92771955625003,177.42109074375003,55.0,41.0
844,177.39646955625003,177.54798455625001,75.0,45.0
845,177.39646955625003,177.56502999375002,72.0,47.0
846,177.39646955625003,177.60006783750003,80.0,47.0
847,178.07828705625002,178.18624149375003,79.0,72.0
848,178.07828705625002,178.19097633750002,70.0,66.0
849,178.30555955625002,178.49453512916668,60.0,42.0
850,178.52670413958336,178.72707111875002,75.0,73.0
851,178.52670413958336,178.80151940000002,67.0,64.0
852,178.74729163958335,178.88975440000002,60.0,45.0
853,177.39646955625003,178.92559986875003,48.0,49.0
854,177.85101455625002,178.94214393125003,55.0,42.0
855,178.96787913958335,179.1452682541667,70.0,63.0
856,179.18846663958334,179.65532223333335,72.0,61.0
857,179.18846663958334,179.67804948333333,68.0,64.0
858,179.18846663958334,179.74339032708335,65.0,58.0
859,179.64301163958334,180.20802145208333,56.0,44.0
860,180.09755663958333,180.48418348333334,63.0,56.0
861,180.09755663958333,180.49678034791665,68.0,61.0
862,180.09755663958333,180.53069498333332,72.0,58.0
863,180.09755663958333,180.58592738958333,61.0,51.0
864,180.56267163958333,181.08290475625,56.0,41.0
865,181.02778663958333,181.51597567291665,68.0,60.0
866,181.02778663958333,181.59865284791667,61.0,48.0
867,181.02778663958333,181.67050325,73.0,52.0
868,181.02778663958333,181.69510955208332,65.0,56.0
869,181.50022763958333,182.00022769791667,56.0,44.0
870,181.97266863958333,182.39196002708331,61.0,47.0
871,181.97266863958333,182.42640885,68.0,73.0
872,179.18846663958334,182.47758995833334,49.0,69.0
873,181.97266863958333,182.51203878125,65.0,66.0
874,182.44510963958334,182.53959783958334,56.0,69.0
875,181.97266863958333,182.56125138541665,73.0,64.0
876,182.91755063958334,183.34842142083335,63.0,73.0
877,182.91755063958334,183.36451988958333,58.0,76.0
878,182.91755063958334,183.48194401458335,67.0,75.0
879,183.25845938958335,183.96773898333333,51.0,41.0
880,183.82664063958333,184.19501148333333,70.0,67.0
881,183.82664063958333,184.28023867083334,63.0,73.0
882,183.82664063958333,184.30012501458333,67.0,66.0
883,182.91755063958334,184.50940510833334,39.0,67.0
884,184.28118563958333,184.70163976458335,51.0,53.0
885,184.73573063958335,184.96679101458335,60.0,69.0
886,184.73573063958335,184.98857129583334,63.0,67.0
887,184.73573063958335,184.99804098333334,68.0,78.0
888,184.96300313958335,185.21300288958335,51.0,39.0
889,185.19027563958335,185.34652548333335,58.0,60.0
890,185.19027563958335,185.36641182708334,67.0,56.0
891,185.41754813958335,185.68364635833333,63.0,80.0
892,185.41754813958335,185.70447967083334,58.0,61.0
893,185.64482063958334,185.91186582708335,51.0,51.0
894,185.87209313958334,185.95447942083334,58.0,62.0
895,185.87209313958334,186.03970660833335,65.0,66.0
896,184.73573063958335,186.13629742083333,39.0,72.0
897,186.09936563958334,186.22341854583334,51.0,60.0
898,186.44027438958335,186.65627285625,63.0,45.0
899,186.55391063958334,186.65627285625,68.0,34.0
900,186.55391063958334,186.81769019791668,75.0,63.0
901,186.55391063958334,186.95154848125,44.0,72.0
902,186.79013113958334,186.96040675,63.0,51.0
903,186.79013113958334,187.01257211041667,51.0,60.0
904,187.02635163958334,187.21729654375,68.0,57.0
905,187.02635163958334,187.28619418958334,56.0,45.0
906,187.26257213958334,187.46434381666666,70.0,62.0
907,187.49879263958334,187.67595801458333,63.0,51.0
908,187.49879263958334,187.79013125625,60.0,67.0
909,187.26257213958334,187.82458007916668,58.0,50.0
910,187.73501313958334,188.07458010833332,75.0,62.0
911,187.97123363958335,188.129698225,63.0,55.0
912,188.20745413958335,188.53623183750003,70.0,69.0
913,188.44367463958335,188.79481947291669,44.0,69.0
914,188.67268213958334,188.8263080041667,63.0,53.0
915,188.67268213958334,188.88642247291668,51.0,58.0
916,188.90168963958334,189.07058267083335,68.0,53.0
917,188.90168963958334,189.14596430625002,56.0,44.0
918,189.13069713958336,189.50283432708335,58.0,50.0
919,189.13069713958336,189.6793609416667,75.0,67.0
920,189.58871213958335,189.75474257708336,63.0,53.0
921,189.35970463958336,189.9055058479167,60.0,64.0
922,189.81771963958334,189.95798673333334,58.0,67.0
923,189.81771963958334,190.02000959791667,68.0,69.0
924,190.04672713958334,190.2347041291667,70.0,73.0
925,190.27573463958336,190.50187954583336,67.0,67.0
926,190.27573463958336,190.65645960833334,48.0,72.0
927,190.50474213958336,190.70607790000003,63.0,49.0
928,190.50474213958336,190.72325346250003,55.0,57.0
929,190.73374963958335,191.0438639625,58.0,54.0
930,190.73374963958335,191.0667647125,75.0,58.0
931,190.96275713958335,191.14214634791668,63.0,51.0
932,191.19176463958334,191.39977978541668,70.0,59.0
933,191.42077213958336,191.55340565,63.0,54.0
934,191.64977963958336,191.73184066041668,63.0,60.0
935,190.96275713958335,191.77191697291667,60.0,55.0
936,191.64977963958336,191.81581007708334,67.0,63.0
937,191.87878713958335,192.02764201458334,70.0,60.0
938,192.34035213958336,192.50508036875001,63.0,56.0
939,191.87878713958335,192.55546782708333,75.0,56.0
940,192.34035213958336,192.6523667854167,55.0,67.0
941,192.57290963958334,192.75895563958335,67.0,55.0
942,192.57290963958334,192.8568235875,58.0,69.0
943,192.80546713958336,192.97310233750002,63.0,46.0
944,193.03802463958334,193.31321768125002,60.0,54.0
945,193.03802463958334,193.5244574104167,75.0,64.0
946,193.38686088958335,193.68530968125,70.0,70.0
947,192.10779463958335,193.68821665000002,48.0,75.0
948,192.80546713958336,193.73763511875,55.0,64.0
949,193.50313963958334,193.75992187916668,60.0,64.0
950,193.73569713958335,193.89461143125,67.0,66.0
951,193.96825463958334,194.23666475416667,72.0,59.0
952,194.20081213958335,194.54674142083334,65.0,58.0
953,194.43336963958333,194.57774908750002,68.0,54.0
954,194.66592713958335,195.10294144166667,75.0,72.0
955,194.89848463958336,195.16108081666667,65.0,47.0
956,194.20081213958335,195.20080938958336,56.0,54.0
957,193.96825463958334,195.33065399375002,49.0,78.0
958,195.13104213958334,195.40139023333336,68.0,66.0
959,194.66592713958335,195.4110801291667,61.0,62.0
960,195.36359963958336,195.53704877500002,77.0,61.0
961,195.36359963958336,195.84860098333334,56.0,62.0
962,195.59615713958334,195.86754035833334,65.0,54.0
963,195.82871463958335,196.05788107708335,75.0,69.0
964,196.05598713958335,196.36091107708336,65.0,50.0
965,196.28325963958335,196.59007751458336,73.0,72.0
966,196.51053213958335,196.79367579583337,65.0,44.0
967,196.73780463958335,196.94424382708334,72.0,72.0
968,196.73780463958335,197.02378920208335,61.0,72.0
969,195.82871463958335,197.12322092083335,49.0,58.0
970,196.05598713958335,197.14784210833335,56.0,55.0
971,196.96507713958334,197.15920573333335,65.0,58.0
972,197.19234963958334,197.39310701458336,68.0,70.0
973,197.41962213958334,197.62322042083335,72.0,63.0
974,197.64689463958337,197.99863785833335,39.0,70.0
975,197.8804211291667,198.10328873333336,46.0,58.0
976,198.11200963958336,198.39398560833337,51.0,49.0
977,197.64689463958337,198.51317132708337,70.0,72.0
978,198.34456713958338,198.70696924375002,53.0,49.0
979,198.57712463958336,198.82131001458336,55.0,60.0
980,197.64689463958337,199.0490225666667,63.0,67.0
981,198.80968213958337,199.05968145208337,56.0,73.0
982,199.04223963958336,199.44921526458336,58.0,67.0
983,199.27479713958337,199.50735463958335,61.0,70.0
984,199.50735463958335,199.79361401458334,63.0,70.0
985,199.50735463958335,199.80983537916669,65.0,75.0
986,199.50735463958335,199.8527742854167,70.0,78.0
987,199.50735463958335,199.92052233750002,41.0,67.0
988,199.73636213958335,199.9758658166667,48.0,67.0
989,199.73636213958335,200.07223980625002,72.0,60.0
990,199.96536963958334,200.24113283750003,74.0,73.0
991,199.96536963958334,200.25830840000003,53.0,64.0
992,200.19437713958337,200.34704880625003,75.0,61.0
993,200.42338463958336,200.64475855625003,57.0,62.0
994,200.19437713958337,200.6543005354167,55.0,44.0
995,200.42338463958336,200.65620893125003,77.0,73.0
996,200.65239213958336,200.93769731666669,75.0,60.0
997,200.88139963958335,200.97777362916668,60.0,75.0
998,200.65239213958336,200.99590338958336,58.0,72.0
999,200.88139963958335,201.07033082708335,77.0,66.0
1000,201.11040713958334,201.29170474375002,79.0,67.0
1001,201.33941463958337,201.59232092083337,82.0,75.0
1002,201.33941463958337,201.62720454583337,77.0,75.0
1003,201.33941463958337,201.64367736875005,74.0,70.0
1004,202.03708713958338,202.15142791041671,62.0,69.0
1005,202.03708713958338,202.17371467083336,60.0,69.0
1006,201.80452963958336,202.48088436875003,58.0,59.0
1007,202.03708713958338,202.51867496250003,65.0,69.0
1008,202.50220213958337,202.66208542083336,62.0,66.0
1009,202.50220213958337,202.85006940000002,67.0,75.0
1010,201.33941463958337,202.96344118125003,46.0,70.0
1011,202.73475963958336,202.96925511875003,58.0,49.0
1012,201.57197213958338,203.05355721250004,53.0,64.0
1013,202.96731713958337,203.27157986875002,62.0,70.0
1014,202.96731713958337,203.33650217083337,65.0,69.0
1015,202.96731713958337,203.3490990354167,70.0,76.0
1016,203.43243213958337,203.7386328479167,62.0,64.0
1017,203.43243213958337,203.8316558479167,69.0,69.0
1018,203.43243213958337,203.9363067229167,53.0,63.0
1019,203.66498963958335,203.96440742083337,58.0,46.0
1020,203.89754713958337,204.0787481916667,70.0,72.0
1021,203.89754713958337,204.14173251458337,65.0,70.0
1022,203.89754713958337,204.18436805625004,62.0,70.0
1023,203.19987463958336,204.2793290354167,46.0,66.0
1024,204.36266213958336,204.64173113958336,65.0,67.0
1025,204.36266213958336,204.64366911875004,62.0,73.0
1026,204.36266213958336,204.65529699375003,72.0,80.0
1027,204.13010463958338,204.65626598333336,53.0,52.0
1028,204.82777713958336,205.10393917083337,70.0,75.0
1029,205.06033463958337,205.25219457708337,60.0,70.0
1030,205.06033463958337,205.40626392083337,65.0,75.0
1031,205.06033463958337,205.4130468479167,69.0,70.0
1032,205.75800713958336,206.14657196250005,65.0,66.0
1033,205.75800713958336,206.18145558750004,69.0,72.0
1034,205.75800713958336,206.1921144729167,72.0,67.0
1035,206.22312213958338,206.5176949729167,65.0,69.0
1036,205.52544963958337,206.62622180625004,62.0,60.0
1037,206.22312213958338,206.65819846250002,74.0,76.0
1038,205.06033463958337,206.78998104583337,50.0,72.0
1039,205.29289213958336,206.8752521291667,57.0,66.0
1040,206.68823713958338,206.97602704583338,65.0,67.0
1041,206.68823713958338,206.9799030041667,72.0,76.0
1042,207.15335213958338,207.5874594729167,57.0,66.0
1043,207.61846713958337,207.79579223333337,69.0,63.0
1044,207.38590963958336,207.7967612229167,62.0,69.0
1045,207.85102463958336,208.1485044416667,67.0,93.0
1046,206.92079463958336,208.22602360833338,50.0,72.0
1047,208.08358213958337,208.25121733750004,57.0,69.0
1048,208.19986088958336,208.46633302500004,65.0,91.0
1049,208.54869713958337,208.7008285041667,62.0,85.0
1050,208.78125463958338,209.17045879583338,39.0,72.0
1051,209.00852713958338,209.1988678583334,46.0,70.0
1052,209.23579963958338,209.52083723333337,51.0,47.0
1053,208.78125463958338,209.67235223333338,63.0,76.0
1054,208.78125463958338,209.7159127958334,67.0,67.0
1055,209.69034463958337,209.9393974208334,55.0,63.0
1056,209.46307213958337,209.9734882958334,53.0,61.0
1057,209.91761713958337,210.07576092083337,58.0,78.0
1058,210.14488963958337,210.3185536604167,65.0,67.0
1059,210.37389713958336,210.54851535833336,67.0,69.0
1060,210.60290463958336,210.78420224375003,58.0,64.0
1061,210.60290463958336,210.83000374375004,63.0,53.0
1062,210.60290463958336,210.90347698333338,67.0,66.0
1063,210.94641588958336,211.05901124375004,58.0,78.0
1064,210.94641588958336,211.06091963958337,63.0,73.0
1065,210.94641588958336,211.09717916041672,70.0,70.0
1066,210.94641588958336,211.1000417541667,67.0,70.0
1067,211.28992713958337,211.38248433750005,63.0,82.0
1068,211.28992713958337,211.38820952500004,70.0,67.0
1069,211.28992713958337,211.39107211875003,67.0,60.0
1070,211.28992713958337,211.40252249375004,58.0,88.0
1071,211.06091963958337,211.44832399375002,51.0,51.0
1072,211.51893463958336,211.58000330625003,63.0,78.0
1073,211.51893463958336,211.6095834416667,58.0,82.0
1074,211.51893463958336,211.6124460354167,70.0,69.0
1075,211.51893463958336,211.6668353166667,67.0,72.0
1076,211.63343838958338,211.79469783750002,51.0,60.0
1077,211.86244588958337,211.94641530625003,63.0,67.0
1078,211.86244588958337,211.9588198791667,67.0,57.0
1079,211.86244588958337,211.98267482708337,60.0,73.0
1080,211.86244588958337,211.99985038958337,69.0,73.0
1081,210.71740838958337,212.1363006916667,46.0,63.0
1082,210.60290463958336,212.17160601458338,39.0,70.0
1083,211.97694963958338,212.18591898333338,51.0,49.0
1084,212.20595713958338,212.32332348333338,63.0,62.0
1085,212.20595713958338,212.3452700354167,70.0,73.0
1086,212.43496463958337,212.83321935833337,41.0,75.0
1087,212.66752213958338,212.89620368125003,48.0,69.0
1088,212.43496463958337,213.00473051458337,63.0,57.0
1089,212.90007963958337,213.1743036916667,53.0,50.0
1090,212.43496463958337,213.3516287854167,72.0,93.0
1091,213.36519463958336,213.71984482708336,57.0,58.0
1092,213.13263713958338,213.7440695666667,55.0,56.0
1093,213.59775213958338,213.89620093125004,62.0,70.0
1094,213.83030963958336,214.0115106916667,65.0,63.0
1095,214.06286713958337,214.17623892083338,70.0,63.0
1096,214.06286713958337,214.19561871250005,63.0,70.0
1097,214.29542463958336,214.3894166291667,69.0,72.0
1098,214.29542463958336,214.43786610833337,53.0,75.0
1099,214.29542463958336,214.47274973333336,62.0,82.0
1100,214.76053963958336,214.8603455666667,62.0,60.0
1101,214.76053963958336,214.87875636875003,70.0,73.0
1102,214.52798213958337,215.00181804583337,53.0,63.0
1103,214.99309713958337,215.1423215354167,63.0,70.0
1104,214.99309713958337,215.14716648333336,72.0,82.0
1105,215.22565463958338,215.49600273333337,53.0,49.0
1106,215.45821213958337,215.63747521250005,74.0,80.0
1107,215.45821213958337,215.73631215000003,65.0,72.0
1108,214.29542463958336,215.74600204583336,41.0,66.0
1109,215.69076963958338,215.89328846250004,53.0,62.0
1110,215.92332713958336,216.12390798333337,74.0,61.0
1111,216.15588463958338,216.4213877854167,70.0,63.0
1112,216.15588463958338,216.4301086916667,65.0,61.0
1113,216.15588463958338,216.4388295979167,74.0,56.0
1114,216.85355713958336,216.9911536604167,65.0,58.0
1115,216.85355713958336,217.02797526458338,62.0,62.0
1116,216.62099963958337,217.16654077500004,58.0,49.0
1117,217.08611463958337,217.3399899104167,62.0,72.0
1118,217.08611463958337,217.3719665666667,65.0,72.0
1119,217.08611463958337,217.40588120208338,69.0,78.0
1120,217.43495088958338,217.5551055979167,65.0,57.0
1121,217.43495088958338,217.5783613479167,62.0,64.0
1122,217.31867213958338,217.66072546250004,58.0,40.0
1123,217.43495088958338,217.70239201458338,70.0,66.0
1124,216.15588463958338,217.7120819104167,46.0,76.0
1125,216.38844213958336,217.88553104583337,53.0,64.0
1126,217.78378713958338,218.22373079583338,60.0,69.0
1127,217.78378713958338,218.45100329583337,65.0,72.0
1128,218.69816213958336,218.84210138958338,62.0,66.0
1129,218.47088963958336,218.94437401458336,58.0,60.0
1130,218.92543463958336,219.16312379583337,62.0,73.0
1131,218.92543463958336,219.20952526458336,65.0,70.0
1132,219.03907088958337,219.34399482708338,58.0,56.0
1133,219.26634338958337,219.45763107708336,62.0,64.0
1134,218.24361713958336,219.47183560833338,53.0,52.0
1135,218.01634463958337,219.49266892083335,46.0,69.0
1136,219.60725213958335,219.79853982708337,67.0,64.0
1137,219.83452463958338,220.1378183791667,69.0,67.0
1138,219.83452463958338,220.14266332708337,60.0,70.0
1139,219.83452463958338,220.15429120208339,65.0,67.0
1140,220.29963963958338,220.46049191041672,60.0,48.0
1141,220.0670821395834,220.64556892083337,57.0,55.0
1142,220.5321971395834,220.85293269166672,60.0,66.0
1143,220.5321971395834,220.89169227500005,67.0,73.0
1144,220.76475463958337,221.09711806666672,57.0,62.0
1145,219.83452463958338,221.15331946250004,50.0,73.0
1146,220.99731213958339,221.1833581395834,60.0,59.0
1147,221.22986963958337,221.35777626458338,65.0,69.0
1148,221.69498463958337,221.90331740000005,38.0,70.0
1149,221.92754213958338,222.21145608750004,50.0,51.0
1150,221.46242713958338,222.33742473333336,60.0,66.0
1151,221.46242713958338,222.4333547020834,69.0,76.0
1152,221.46242713958338,222.4401376291667,65.0,73.0
1153,222.6252146395834,222.91593404583338,60.0,75.0
1154,222.39265713958338,222.93108554583338,57.0,66.0
1155,222.8524871395834,223.0977520458334,69.0,59.0
1156,223.0797596395834,223.18108529583338,57.0,61.0
1157,222.16009963958336,223.2180170770834,53.0,56.0
1158,223.0797596395834,223.2757821708334,65.0,59.0
1159,223.30703213958338,223.4651759208334,60.0,58.0
1160,223.53430463958338,224.0314632333334,63.0,57.0
1161,223.53430463958338,224.0409329208334,67.0,72.0
1162,223.98884963958338,224.2719932958334,51.0,52.0
1163,224.21612213958338,224.53809151458339,58.0,62.0
1164,224.21612213958338,224.6460459520834,65.0,64.0
1165,224.4433946395834,224.6886595458334,51.0,46.0
1166,223.76157713958338,224.6981292333334,46.0,61.0
1167,224.6706671395834,224.9954774208334,58.0,72.0
1168,224.6706671395834,225.0257804208334,63.0,72.0
1169,223.53430463958338,225.1905529833334,39.0,70.0
1170,225.1252121395834,225.33638617083338,46.0,57.0
1171,225.3524846395834,225.6640373583334,58.0,70.0
1172,225.3524846395834,225.68581763958338,67.0,62.0
1173,225.3524846395834,225.6905524833334,63.0,66.0
1174,225.8070296395834,226.1195293270834,58.0,56.0
1175,226.0343021395834,226.20665045208338,63.0,67.0
1176,225.5797571395834,226.3259685145834,51.0,51.0
1177,226.2615746395834,226.5570288895834,58.0,70.0
1178,226.2615746395834,226.5683925145834,63.0,69.0
1179,226.2615746395834,226.5740743270834,67.0,64.0
1180,226.48884713958338,226.73884688958339,51.0,48.0
1181,225.3524846395834,226.7416877958334,39.0,69.0
1182,226.71611963958338,226.9897936083334,58.0,62.0
1183,226.94339213958338,227.1327858895834,63.0,76.0
1184,227.17066463958338,227.8751200666667,67.0,72.0
1185,227.17066463958338,227.9129106604167,58.0,69.0
1186,227.17066463958338,227.94101135833338,63.0,62.0
1187,227.17066463958338,228.3082584104167,53.0,61.0
1188,228.10089463958337,228.33926607708338,58.0,66.0
1189,228.10089463958337,228.4739556291667,63.0,59.0
1190,228.10089463958337,228.4972113791667,67.0,60.0
1191,229.03112463958337,231.1605237645834,82.0,52.0
1192,229.03112463958337,231.27605395208337,77.0,42.0
1193,229.03112463958337,231.31393270208338,89.0,49.0
1194,230.7956546708334,231.3660159833334,70.0,70.0
1195,228.56600963958337,231.3679099208334,53.0,48.0
1196,230.77530588958336,231.3679099208334,53.0,49.0
1197,227.17066463958338,231.37453870208338,41.0,67.0
1198,230.79953062916672,231.63116723333337,58.0,52.0
1199,230.79856163958337,231.63495510833337,60.0,57.0
1200,230.79274770208337,231.63684904583337,62.0,51.0
1201,231.81714746250003,232.40726211875005,70.0,48.0
1202,231.8103645354167,232.44892867083337,62.0,44.0
1203,231.8074575666667,232.46540149375005,60.0,46.0
1204,231.81714746250003,232.47509138958338,58.0,49.0
1205,231.80261261875003,232.48478128541672,53.0,44.0
1206,232.75398148958337,233.30494128333336,62.0,45.0
1207,232.7587891666667,233.31647970833336,70.0,59.0
1208,232.74917381250003,233.4539792729167,60.0,47.0
1209,232.74532767083338,233.4655176979167,58.0,45.0
1210,232.7279976708334,233.4741715166667,53.0,40.0
1211,233.6653422645834,233.93712229583338,70.0,62.0
1212,233.67197104583337,233.98257679583338,62.0,58.0
1213,233.64820942708337,233.99583435833338,53.0,52.0
1214,233.6672362020834,234.0043570770834,60.0,60.0
1215,233.6691301395834,234.0299252333334,58.0,54.0
1216,233.88693295208338,234.05738732708338,72.0,67.0
1217,234.10852363958338,234.24394017083338,70.0,62.0
1218,234.61539407708338,235.05725332708337,69.0,69.0
1219,234.6018282229167,235.07178817083337,65.0,63.0
1220,234.65899860833338,235.08826099375005,60.0,32.0
1221,235.49803348333336,235.91564670208336,69.0,56.0
1222,235.49613954583336,235.93648001458337,60.0,49.0
1223,235.4903916708334,235.94689667083338,65.0,54.0
1224,234.6512466916667,236.80473238958336,53.0,38.0
1225,236.37208563958336,236.88383395208336,69.0,49.0
1226,236.38155532708336,236.95609957708336,60.0,37.0
1227,236.38818410833338,237.05473238958336,65.0,42.0
1228,237.34770113958336,237.51469332708336,60.0,67.0
1229,237.34574801458336,237.62699801458336,69.0,78.0
1230,237.11430270208336,237.71000582708336,53.0,53.0
1231,236.42680270208336,237.79789645208336,41.0,34.0
1232,237.57231051458336,237.84965426458336,70.0,63.0
1233,237.78422457708336,237.90336520208336,69.0,60.0
1234,238.27055270208336,238.69145113958336,58.0,59.0
1235,238.26566988958336,238.75395113958336,63.0,62.0
1236,238.25492770208336,238.83305270208336,67.0,61.0
1237,238.27641207708336,239.33598238958336,51.0,47.0
1238,239.21391207708336,239.54203707708336,58.0,46.0
1239,239.19828707708336,239.62309176458336,67.0,57.0
1240,239.19535738958336,239.62895113958336,63.0,49.0
1241,239.62113863958336,240.25102145208336,51.0,19.0
1242,240.12992770208336,240.42484957708336,58.0,41.0
1243,240.13676363958336,240.47856051458336,63.0,39.0
1244,240.09672457708336,240.51469332708336,67.0,42.0
1245,240.66020113958336,241.14197192083336,51.0,24.0
1246,241.02348238958336,241.44878979583336,65.0,60.0
1247,238.25297457708336,241.47719885833337,39.0,45.0
1248,241.02934176458336,241.47719885833337,60.0,57.0
1249,241.01859957708336,241.54253970208336,69.0,63.0
1250,241.95825898333337,243.01507610833337,62.0,51.0
1251,241.95541807708335,243.02738670208336,65.0,55.0
1252,241.96583473333337,243.32568185833335,70.0,54.0
1253,241.97435745208335,243.33231063958337,58.0,48.0
1254,241.96583473333337,243.38723482708338,46.0,59.0
