,start,end,pitch,velocity
0,13.152213339583334,13.536827839583333,65.0,117.0
1,13.536827839583333,13.921442339583333,68.0,116.0
2,13.921442339583333,14.689068779166668,70.0,119.0
3,14.690671339583334,15.073683279166668,70.0,110.0
4,15.075285839583334,15.459900339583333,70.0,110.0
5,15.459900339583333,16.227526779166666,68.0,117.0
6,16.229129339583334,16.613743839583332,68.0,114.0
7,16.613743839583332,19.304442779166667,65.0,113.0
8,19.306045339583335,19.68905727916667,65.0,114.0
9,19.690659839583333,20.075274339583334,65.0,114.0
10,20.075274339583334,20.844503339583333,63.0,116.0
11,20.844503339583333,21.227515279166667,61.0,100.0
12,21.229117839583335,22.382961339583336,61.0,108.0
13,22.382961339583336,22.767575839583333,63.0,108.0
14,22.767575839583333,25.45827477916667,65.0,113.0
15,25.459877339583333,25.844491839583334,65.0,110.0
16,25.844491839583334,26.229106339583335,68.0,110.0
17,26.229106339583335,26.996732779166667,70.0,116.0
18,26.998335339583335,27.38134727916667,70.0,116.0
19,27.382949839583333,27.767564339583334,70.0,114.0
20,27.767564339583334,28.150576279166668,68.0,116.0
21,28.152178839583335,28.536793339583333,68.0,114.0
22,28.536793339583333,28.921407839583335,72.0,116.0
23,28.921407839583335,30.075251339583335,73.0,116.0
24,30.075251339583335,30.459865839583333,72.0,113.0
25,30.459865839583333,31.612106779166666,70.0,114.0
26,31.613709339583334,31.996721279166668,70.0,114.0
27,31.998323839583335,32.38293833958333,70.0,113.0
28,32.38293833958333,33.152167339583336,68.0,119.0
29,33.152167339583336,33.536781839583334,72.0,116.0
30,33.536781839583334,37.76593877916667,73.0,116.0
31,37.76754133958333,38.15215583958334,73.0,116.0
32,38.15215583958334,38.344463089583336,72.0,113.0
33,38.344463089583336,39.304396779166666,73.0,110.0
34,39.30599933958334,39.690613839583335,73.0,117.0
35,39.690613839583335,40.07522833958333,75.0,116.0
36,40.07522833958333,40.844457339583336,72.0,119.0
37,40.844457339583336,41.229071839583334,70.0,117.0
38,41.229071839583334,42.76752983958333,68.0,116.0
39,42.76752983958333,42.95983708958333,65.0,107.0
40,42.95983708958333,43.15214433958334,68.0,100.0
41,43.15214433958334,43.92137333958333,70.0,116.0
42,43.92137333958333,44.30438527916667,68.0,113.0
43,44.30598783958334,45.075216839583334,68.0,113.0
44,45.075216839583334,45.45983133958333,66.0,116.0
45,45.45983133958333,45.842843279166665,65.0,113.0
46,45.84444583958334,46.61367483958333,65.0,113.0
47,46.61367483958333,48.536747339583336,63.0,113.0
48,48.536747339583336,48.921361839583334,65.0,104.0
49,48.921361839583334,49.30597633958333,63.0,108.0
50,49.30597633958333,50.075205339583334,61.0,113.0
51,50.075205339583334,50.45981983958333,73.0,119.0
52,50.45981983958333,50.65212708958334,72.0,113.0
53,50.65212708958334,51.61366333958333,73.0,114.0
54,51.61366333958333,51.99827783958334,77.0,117.0
55,51.99827783958334,52.19539277083334,75.0,110.0
56,52.19058508958334,52.382892339583336,73.0,104.0
57,52.382892339583336,53.15212133958334,72.0,114.0
58,53.15212133958334,53.536735839583336,70.0,116.0
59,53.536735839583336,55.075193839583335,68.0,116.0
60,55.075193839583335,55.267501089583334,66.0,110.0
61,55.267501089583334,55.45980833958333,68.0,108.0
62,55.45980833958333,55.84442283958334,70.0,116.0
63,55.84442283958334,56.229037339583336,72.0,116.0
64,56.229037339583336,56.61365183958333,73.0,117.0
65,56.61365183958333,57.382880839583336,68.0,117.0
66,57.382880839583336,57.767495339583334,66.0,117.0
67,57.767495339583334,58.15050727916667,65.0,117.0
68,58.15210983958333,58.53672433958334,65.0,114.0
69,58.53672433958334,64.30594183958334,63.0,108.0
70,64.30594183958334,64.69055633958334,68.0,117.0
71,64.69055633958334,65.07517083958334,73.0,117.0
72,65.07517083958334,65.45978533958333,75.0,117.0
73,65.45978533958333,65.84439983958333,77.0,120.0
74,65.84439983958333,66.61362883958334,75.0,119.0
75,66.61362883958334,66.99824333958334,73.0,114.0
76,66.99824333958334,67.38285783958334,72.0,117.0
77,67.38285783958334,70.45977383958333,73.0,114.0
78,70.45977383958333,70.84438833958333,68.0,114.0
79,70.84438833958333,71.22900283958333,70.0,119.0
80,71.22900283958333,71.61361733958334,72.0,116.0
81,71.61361733958334,71.99823183958334,73.0,117.0
82,71.99823183958334,72.76746083958334,68.0,114.0
83,72.76746083958334,73.53668983958333,73.0,119.0
84,73.53668983958333,74.69053333958334,66.0,117.0
85,74.69053333958334,75.07514783958334,70.0,119.0
86,75.07514783958334,76.61200327916667,68.0,114.0
87,76.61360583958333,76.99822033958334,68.0,117.0
88,76.99822033958334,77.38283483958334,73.0,116.0
89,77.38283483958334,77.76744933958334,75.0,114.0
90,77.76744933958334,78.15206383958333,77.0,119.0
91,78.15206383958333,78.92129283958333,80.0,120.0
92,78.92129283958333,79.30590733958334,75.0,113.0
93,79.30590733958334,79.69052183958334,77.0,114.0
94,79.69052183958334,80.07513633958334,75.0,116.0
95,80.07513633958334,82.76743783958334,73.0,110.0
96,82.76743783958334,82.95814252916666,68.0,100.0
97,82.95974508958334,83.15205233958334,68.0,104.0
98,83.15205233958334,83.53666683958333,70.0,114.0
99,83.53666683958333,83.92128133958333,72.0,114.0
100,83.92128133958333,84.30589583958334,73.0,114.0
101,84.30589583958334,85.07512483958334,68.0,117.0
102,85.07512483958334,85.45813677916667,73.0,100.0
103,85.45973933958334,85.84275127916666,73.0,116.0
104,85.84435383958333,86.22896833958333,73.0,117.0
105,90.07511333958334,90.45972783958334,65.0,117.0
106,90.45972783958334,90.84434233958333,68.0,116.0
107,90.84434233958333,91.61196877916667,70.0,119.0
108,91.61357133958333,91.99658327916667,70.0,110.0
109,91.99818583958334,92.38280033958334,70.0,110.0
110,92.38280033958334,93.15042677916666,68.0,117.0
111,93.15202933958334,93.53664383958333,68.0,114.0
112,93.53664383958333,96.22734277916668,65.0,113.0
113,96.22894533958333,96.61195727916667,65.0,114.0
114,96.61355983958333,96.99817433958334,65.0,114.0
115,96.99817433958334,97.76740333958334,63.0,116.0
116,97.76740333958334,98.15041527916667,61.0,100.0
117,98.15201783958334,99.30586133958333,61.0,108.0
118,99.30586133958333,99.69047583958334,63.0,108.0
119,99.69047583958334,102.38117477916667,65.0,113.0
120,102.38277733958334,102.76739183958334,65.0,110.0
121,102.76739183958334,103.15200633958334,68.0,110.0
122,103.15200633958334,103.91963277916668,70.0,116.0
123,103.92123533958333,104.30424727916667,70.0,116.0
124,104.30584983958333,104.69046433958334,70.0,114.0
125,104.69046433958334,105.07347627916667,68.0,116.0
126,105.07507883958334,105.45969333958334,68.0,114.0
127,105.45969333958334,105.84430783958334,72.0,116.0
128,105.84430783958334,106.99815133958333,73.0,116.0
129,106.99815133958333,107.38276583958334,72.0,113.0
130,107.38276583958334,108.53500677916666,70.0,114.0
131,108.53660933958334,108.91962127916668,70.0,114.0
132,108.92122383958333,109.30583833958333,70.0,113.0
133,109.30583833958333,110.07506733958334,68.0,119.0
134,110.07506733958334,110.45968183958334,72.0,116.0
135,110.45968183958334,114.68883877916667,73.0,116.0
136,114.69044133958333,115.07505583958334,73.0,116.0
137,115.07505583958334,115.26736308958334,72.0,113.0
138,115.26736308958334,116.22729677916666,73.0,110.0
139,116.22889933958334,116.61351383958333,73.0,117.0
140,116.61351383958333,116.99812833958333,75.0,116.0
141,116.99812833958333,117.76735733958334,72.0,119.0
142,117.76735733958334,118.15197183958334,70.0,117.0
143,118.15197183958334,119.69042983958333,68.0,116.0
144,119.69042983958333,119.88273708958334,65.0,107.0
145,119.88273708958334,120.07504433958334,68.0,100.0
146,120.07504433958334,120.84427333958334,70.0,116.0
147,120.84427333958334,121.22728527916667,68.0,113.0
148,121.22888783958334,121.99811683958333,68.0,113.0
149,121.99811683958333,122.38273133958333,66.0,116.0
150,122.38273133958333,122.76574327916667,65.0,113.0
151,122.76734583958334,123.53657483958334,65.0,113.0
152,123.53657483958334,125.45964733958334,63.0,113.0
153,125.45964733958334,125.84426183958334,65.0,104.0
154,125.84426183958334,126.22887633958334,63.0,108.0
155,126.22887633958334,126.99810533958333,61.0,113.0
156,126.99810533958333,127.38271983958333,73.0,119.0
157,127.38271983958333,127.57502708958334,72.0,113.0
158,127.57502708958334,128.53656333958332,73.0,114.0
159,128.53656333958332,128.92117783958335,77.0,117.0
160,128.92117783958335,129.11829277083334,75.0,110.0
161,129.11348508958335,129.30579233958335,73.0,104.0
162,129.30579233958335,130.07502133958334,72.0,114.0
163,130.07502133958334,130.45963583958334,70.0,116.0
164,130.45963583958334,131.99809383958333,68.0,116.0
165,131.99809383958333,132.19040108958333,66.0,110.0
166,132.19040108958333,132.38270833958333,68.0,108.0
167,132.38270833958333,132.76732283958333,70.0,116.0
168,132.76732283958333,133.15193733958333,72.0,116.0
169,133.15193733958333,133.53655183958332,73.0,117.0
170,133.53655183958332,134.30578083958335,68.0,117.0
171,134.30578083958335,134.69039533958335,66.0,117.0
172,134.69039533958335,135.07340727916667,65.0,117.0
173,135.07500983958334,135.45962433958334,65.0,114.0
174,135.45962433958334,138.15192583958333,63.0,108.0
175,138.15192583958333,138.53654033958333,68.0,117.0
176,138.53654033958333,138.92115483958335,73.0,117.0
177,138.92115483958335,139.30576933958335,75.0,117.0
178,139.30576933958335,139.69038383958335,77.0,120.0
179,139.69038383958335,140.45961283958334,75.0,119.0
180,140.45961283958334,140.84422733958334,73.0,114.0
181,140.84422733958334,141.22884183958334,72.0,117.0
182,141.22884183958334,144.30575783958335,73.0,114.0
183,144.30575783958335,144.69037233958335,68.0,114.0
184,144.69037233958335,145.07498683958335,70.0,119.0
185,145.07498683958335,145.45960133958334,72.0,116.0
186,145.45960133958334,145.84421583958334,73.0,117.0
187,145.84421583958334,146.61344483958334,68.0,114.0
188,146.61344483958334,147.38267383958333,73.0,119.0
189,147.38267383958333,148.53651733958333,66.0,117.0
190,148.53651733958333,148.92113183958332,70.0,119.0
191,148.92113183958332,150.45798727916667,68.0,114.0
192,150.45958983958334,150.84420433958334,68.0,117.0
193,150.84420433958334,151.22881883958334,73.0,116.0
194,151.22881883958334,151.61343333958334,75.0,114.0
195,151.61343333958334,151.99804783958334,77.0,119.0
196,151.99804783958334,152.76727683958333,80.0,120.0
197,152.76727683958333,153.15189133958333,75.0,113.0
198,153.15189133958333,153.53650583958333,77.0,114.0
199,153.53650583958333,153.92112033958333,75.0,116.0
200,153.92112033958333,156.61342183958334,73.0,110.0
201,156.61342183958334,156.80412652916667,68.0,100.0
202,156.80572908958334,156.99803633958334,68.0,104.0
203,156.99803633958334,157.38265083958333,70.0,114.0
204,157.38265083958333,157.76726533958333,72.0,114.0
205,157.76726533958333,158.15187983958333,73.0,114.0
206,158.15187983958333,158.92110883958333,68.0,117.0
207,158.92110883958333,159.30412077916668,73.0,100.0
208,159.30572333958335,159.68873527916668,73.0,116.0
209,159.69033783958335,163.20635539375002,73.0,117.0
210,163.92109733958333,164.30571183958332,65.0,117.0
211,164.30571183958332,164.69032633958335,68.0,116.0
212,164.69032633958335,165.45795277916667,70.0,119.0
213,165.45955533958335,165.84256727916667,70.0,110.0
214,165.84416983958334,166.22878433958334,70.0,110.0
215,166.22878433958334,166.99641077916667,68.0,117.0
216,166.99801333958334,167.38262783958334,68.0,114.0
217,167.38262783958334,170.07332677916668,65.0,113.0
218,170.07492933958335,170.45794127916668,65.0,114.0
219,170.45954383958335,170.84415833958334,65.0,114.0
220,170.84415833958334,171.61338733958334,63.0,116.0
221,171.61338733958334,171.99639927916667,61.0,100.0
222,171.99800183958334,173.15184533958333,61.0,108.0
223,173.15184533958333,173.53645983958333,63.0,108.0
224,173.53645983958333,176.22715877916667,65.0,113.0
225,176.22876133958334,176.61337583958334,65.0,110.0
226,176.61337583958334,176.99799033958334,68.0,110.0
227,176.99799033958334,177.76561677916666,70.0,116.0
228,177.76721933958333,178.15023127916666,70.0,116.0
229,178.15183383958333,178.53644833958333,70.0,114.0
230,178.53644833958333,178.91946027916669,68.0,116.0
231,178.92106283958333,179.30567733958333,68.0,114.0
232,179.30567733958333,179.69029183958335,72.0,116.0
233,179.69029183958335,181.22874983958334,73.0,116.0
234,181.22874983958334,181.41945452916667,68.0,104.0
235,181.42105708958334,181.61336433958334,68.0,100.0
236,181.61336433958334,181.99797883958334,70.0,116.0
237,181.99797883958334,182.38259333958334,72.0,88.0
238,182.38259333958334,182.76720783958334,73.0,108.0
239,182.76720783958334,183.53643683958333,68.0,114.0
240,183.53643683958333,183.9194487791667,73.0,113.0
241,183.92105133958333,184.30406327916668,73.0,116.0
242,184.30566583958333,187.38258183958334,73.0,117.0
243,187.38258183958334,187.57328652916667,68.0,104.0
244,187.57488908958334,187.76719633958334,68.0,102.0
245,187.76719633958334,188.15181083958333,70.0,114.0
246,188.15181083958333,188.53963046041667,72.0,110.0
247,188.53642533958333,188.92103983958333,73.0,108.0
248,188.92103983958333,189.69026883958333,68.0,113.0
249,189.69026883958333,190.07328077916668,73.0,104.0
250,190.07488333958335,190.45789527916668,73.0,98.0
251,190.45949783958335,193.92102833958333,73.0,107.0
252,193.92102833958333,194.30564283958333,68.0,107.0
253,194.30564283958333,194.88256458958335,70.0,113.0
254,194.88256458958335,195.45948633958335,72.0,108.0
255,195.45948633958335,196.03640808958335,73.0,108.0
256,196.03640808958335,199.30563133958333,68.0,113.0
257,199.30563133958333,199.61973318125,65.0,96.0
258,199.49793858958333,199.69024583958333,63.0,86.0
259,199.69024583958333,201.41299828750002,61.0,88.0
