,start,end,pitch,velocity
0,18.35625,18.59583333333333,67.0,87.0
1,18.60625,18.84583333333333,67.0,76.0
2,18.85625,19.104166666666668,67.0,79.0
3,19.10625,19.603125,72.0,90.0
4,19.60625,19.854166666666668,70.0,87.0
5,19.85625,20.129166666666666,70.0,90.0
6,20.10625,20.347916666666666,68.0,60.0
7,20.35625,20.58125,68.0,64.0
8,20.60625,21.578125,68.0,86.0
9,21.60625,21.871875,68.0,90.0
10,21.85625,22.327083333333334,70.0,96.0
11,22.35625,22.584375,65.0,84.0
12,22.60625,23.091666666666665,65.0,87.0
13,23.10625,23.62708333333333,68.0,95.0
14,23.60625,26.308333333333334,67.0,97.0
15,26.35625,26.480208333333334,63.0,77.0
16,26.60625,26.788541666666667,63.0,68.0
17,26.85625,27.075,63.0,74.0
18,27.10625,27.494791666666668,67.0,82.0
19,27.60625,27.820833333333333,67.0,87.0
20,27.85625,28.034375,67.0,89.0
21,28.10625,28.247916666666665,65.0,64.0
22,28.35625,28.494791666666668,65.0,80.0
23,28.60625,29.662499999999998,65.0,83.0
24,29.85625,30.277083333333334,65.0,97.0
25,30.35625,30.602083333333333,63.0,84.0
26,30.60625,31.110416666666666,65.0,90.0
27,31.10625,31.623958333333334,68.0,98.0
28,31.60625,34.31458333333333,67.0,98.0
29,34.35625,34.52708333333333,67.0,85.0
30,34.60625,34.83645833333333,67.0,80.0
31,34.85625,35.110416666666666,67.0,74.0
32,35.10625,35.60208333333333,72.0,86.0
33,35.60625,35.83541666666667,70.0,74.0
34,35.85625,36.365625,70.0,87.0
35,36.35625,36.54895833333333,68.0,73.0
36,36.60625,37.31458333333333,68.0,80.0
37,37.35625,37.57395833333333,68.0,96.0
38,37.60625,37.865625,68.0,89.0
39,37.85625,38.338541666666664,70.0,90.0
40,38.35625,38.57083333333333,65.0,65.0
41,38.60625,39.10208333333333,65.0,90.0
42,39.10625,39.610416666666666,68.0,95.0
43,39.60625,42.3375,67.0,100.0
44,42.35625,42.5875,63.0,66.0
45,42.60625,42.825,63.0,63.0
46,42.85625,43.096875,63.0,53.0
47,43.10625,43.297916666666666,63.0,56.0
48,43.35625,43.60104166666667,63.0,59.0
49,43.60625,43.72604166666667,72.0,79.0
50,43.85625,44.10208333333333,72.0,72.0
51,44.10625,44.34375,70.0,62.0
52,44.35625,44.63125,67.0,58.0
53,44.60625,45.53854166666667,70.0,69.0
54,45.60625,45.846875,67.0,96.0
55,45.85625,46.33229166666666,75.0,90.0
56,46.35625,46.59583333333333,74.0,95.0
57,46.60625,47.114583333333336,74.0,95.0
58,47.10625,47.59791666666666,75.0,91.0
59,47.60625,48.096875,74.0,93.0
60,48.10625,49.11770833333333,72.0,92.0
61,49.35625,49.63645833333333,72.0,106.0
62,49.60625,49.87291666666667,74.0,93.0
63,49.85625,50.29270833333333,75.0,106.0
64,50.35625,50.80520833333333,75.0,109.0
65,50.85625,51.3375,75.0,103.0
66,51.356249999999996,51.606249999999996,72.0,100.0
67,51.606249999999996,51.86145833333333,74.0,90.0
68,51.856249999999996,52.33125,75.0,99.0
69,52.356249999999996,52.765625,75.0,99.0
70,52.856249999999996,53.00833333333333,75.0,91.0
71,53.106249999999996,53.354166666666664,75.0,93.0
72,53.356249999999996,53.62916666666666,77.0,93.0
73,53.606249999999996,53.853125,75.0,91.0
74,53.856249999999996,54.29895833333333,74.0,97.0
75,54.356249999999996,54.82083333333333,74.0,92.0
76,54.856249999999996,55.86354166666666,74.0,90.0
77,55.856249999999996,56.33229166666666,72.0,103.0
78,56.356249999999996,56.609375,70.0,90.0
79,56.606249999999996,57.11666666666667,74.0,105.0
80,57.106249999999996,57.353125,72.0,92.0
81,57.356249999999996,57.594791666666666,70.0,97.0
82,57.606249999999996,57.84583333333333,67.0,91.0
83,57.856249999999996,58.315625,72.0,103.0
84,58.356249999999996,58.64791666666667,70.0,100.0
85,58.606249999999996,59.817708333333336,72.0,105.0
86,59.856249999999996,60.37083333333333,72.0,90.0
87,60.106249999999996,60.57083333333333,70.0,84.0
88,60.606249999999996,61.07395833333333,67.0,87.0
89,61.106249999999996,61.373958333333334,67.0,82.0
90,61.356249999999996,61.608333333333334,65.0,63.0
91,61.606249999999996,61.873958333333334,63.0,64.0
92,61.856249999999996,62.322916666666664,65.0,79.0
93,62.356249999999996,62.670833333333334,63.0,63.0
94,62.606249999999996,63.08958333333333,65.0,68.0
95,63.106249999999996,63.53854166666667,68.0,80.0
96,63.606249999999996,64.12916666666666,68.0,93.0
97,64.10625,65.26875,67.0,91.0
98,65.23125,65.53020833333333,72.0,98.0
99,65.48125,65.78020833333333,74.0,93.0
100,65.85625,66.328125,75.0,97.0
101,66.35625,66.8375,75.0,99.0
102,66.85625,67.321875,75.0,99.0
103,67.35625,67.61979166666667,72.0,98.0
104,67.60625,67.88333333333333,74.0,87.0
105,67.85625,68.27708333333334,75.0,91.0
106,68.35625,68.840625,75.0,101.0
107,68.85625,69.025,75.0,89.0
108,69.10625,69.35833333333333,75.0,90.0
109,69.35625,69.61875,77.0,95.0
110,69.60625,69.853125,75.0,90.0
111,69.85625,70.353125,74.0,97.0
112,70.35625,70.853125,74.0,98.0
113,70.85625,71.85416666666667,74.0,103.0
114,71.85625,72.35416666666667,72.0,103.0
115,72.35625,72.60833333333333,70.0,77.0
116,72.60625,73.00208333333333,74.0,93.0
117,72.98125,73.24479166666667,72.0,95.0
118,73.23125,73.77916666666667,70.0,97.0
119,73.85625,74.34895833333333,72.0,95.0
120,74.35625,74.628125,70.0,93.0
121,74.60625,75.85416666666667,72.0,96.0
122,75.85625,76.353125,74.0,98.0
123,76.35625,76.85416666666667,74.0,94.0
124,76.85625,77.37395833333333,75.0,96.0
125,77.35625,77.603125,74.0,79.0
126,77.60625,78.125,74.0,91.0
127,78.10625,78.22916666666667,75.0,55.0
128,78.23125,78.359375,74.0,56.0
129,78.35625,80.721875,72.0,67.0
130,114.35625,114.59583333333333,67.0,87.0
131,114.60625,114.84583333333333,67.0,76.0
132,114.85625,115.10520833333334,67.0,79.0
133,115.10625,115.60312499999999,72.0,90.0
134,115.60625,115.85416666666667,70.0,87.0
135,115.85625,116.10520833333334,70.0,90.0
136,116.10625,116.34791666666666,68.0,60.0
137,116.35625,116.58229166666666,68.0,64.0
138,116.60625,117.39479166666666,68.0,86.0
139,117.35625,117.39479166666666,68.0,86.0
140,117.60625,117.871875,68.0,90.0
141,117.85625,118.32708333333333,70.0,96.0
142,118.35625,118.584375,65.0,84.0
143,118.60625,119.09166666666667,65.0,87.0
144,119.10625,119.62708333333333,68.0,95.0
145,119.60625,122.309375,67.0,97.0
146,122.35625,122.58749999999999,63.0,66.0
147,122.60625,122.825,63.0,63.0
148,122.85625,123.096875,63.0,53.0
149,123.10625,123.296875,63.0,56.0
150,123.35625,123.60104166666666,63.0,59.0
151,123.60625,123.72604166666666,72.0,79.0
152,123.85625,124.10208333333333,72.0,72.0
153,124.10625,124.34270833333333,70.0,62.0
154,124.35625,124.63125,67.0,58.0
155,124.60625,125.5375,70.0,69.0
156,125.60625,125.846875,67.0,96.0
157,125.85625,126.33229166666666,75.0,90.0
158,126.35625,126.59583333333333,74.0,95.0
159,126.60625,127.11458333333333,74.0,95.0
160,127.10625,127.59791666666666,75.0,91.0
161,127.60625,128.09583333333333,74.0,93.0
162,128.10625,129.11770833333333,72.0,92.0
163,129.35625,129.6375,72.0,106.0
164,129.60625,129.871875,74.0,93.0
165,129.85625,130.29270833333334,75.0,106.0
166,130.35625,130.80520833333333,75.0,109.0
167,130.85625,131.35416666666666,75.0,103.0
168,131.35625,131.60625,72.0,100.0
169,131.60625,131.86145833333333,74.0,90.0
170,131.85625,132.353125,75.0,99.0
171,132.35625,132.85,75.0,99.0
172,132.85625,133.10625,75.0,91.0
173,133.10625,133.35416666666666,75.0,93.0
174,133.35625,133.628125,77.0,93.0
175,133.60625,133.85416666666666,75.0,91.0
176,133.85625,134.353125,74.0,97.0
177,134.35625,134.853125,74.0,92.0
178,134.85625,135.86354166666666,74.0,90.0
179,135.85625,136.35416666666666,72.0,103.0
180,136.35625,136.60416666666666,70.0,90.0
181,136.60625,137.04166666666666,74.0,105.0
182,137.10625,137.41354166666667,72.0,92.0
183,137.35625,137.60416666666666,70.0,97.0
184,137.60625,137.85729166666667,67.0,91.0
185,137.85625,138.35416666666666,72.0,103.0
186,138.35625,138.60416666666666,70.0,100.0
187,138.60625,139.853125,72.0,105.0
188,139.85625,140.10416666666666,72.0,90.0
189,140.10625,140.60416666666666,70.0,84.0
190,140.60625,141.103125,67.0,87.0
191,141.10625,141.35416666666666,67.0,82.0
192,141.35625,141.60416666666666,65.0,63.0
193,141.60625,141.85416666666666,63.0,64.0
194,141.85625,142.35416666666666,65.0,79.0
195,142.35625,142.60416666666666,63.0,63.0
196,142.60625,143.10416666666666,65.0,68.0
197,143.10625,143.603125,68.0,80.0
198,143.60625,144.12916666666666,68.0,93.0
199,144.10625,145.35416666666666,67.0,91.0
200,145.35625,145.60625,72.0,98.0
201,145.60625,145.87291666666667,74.0,93.0
202,145.85625,146.353125,75.0,97.0
203,146.35625,146.853125,75.0,99.0
204,146.85625,147.35416666666666,75.0,99.0
205,147.35625,147.61979166666666,72.0,98.0
206,147.60625,147.88333333333333,74.0,87.0
207,147.85625,148.353125,75.0,91.0
208,148.35625,148.853125,75.0,101.0
209,148.85625,149.103125,75.0,89.0
210,149.10625,149.35833333333332,75.0,90.0
211,149.35625,149.61875,77.0,95.0
212,149.60625,149.85416666666666,75.0,90.0
213,149.85625,150.353125,74.0,97.0
214,150.35625,150.853125,74.0,98.0
215,150.85625,151.85416666666666,74.0,103.0
216,151.85625,152.35416666666666,72.0,103.0
217,152.35625,152.60833333333332,70.0,77.0
218,152.60625,153.00208333333333,74.0,93.0
219,153.10625,153.359375,72.0,95.0
220,153.35625,153.89791666666667,70.0,97.0
221,153.85625,154.34895833333334,72.0,95.0
222,154.35625,154.62708333333333,70.0,93.0
223,154.60625,155.85416666666666,72.0,96.0
224,155.85625,156.31666666666666,74.0,98.0
225,156.35625,156.85416666666666,74.0,94.0
226,156.85625,157.37395833333332,75.0,96.0
227,157.35625,157.56666666666666,74.0,79.0
228,157.60625,158.12395833333332,74.0,91.0
229,158.10625,158.22916666666666,75.0,55.0
230,158.23125,158.359375,74.0,56.0
231,158.35625,160.72083333333333,72.0,67.0
232,160.85625,161.30208333333334,72.0,109.0
233,161.35625,161.88541666666666,74.0,100.0
234,161.85625,162.60833333333332,75.0,105.0
235,162.85625,163.10416666666666,67.0,99.0
236,163.10625,163.578125,72.0,99.0
237,163.60625,164.77604166666666,70.0,106.0
238,165.35625,165.62708333333333,70.0,99.0
239,165.60625,165.90625,72.0,103.0
240,165.85625,166.58958333333334,74.0,106.0
241,166.85625,167.125,67.0,100.0
242,167.10625,167.878125,74.0,94.0
243,167.85625,169.09270833333332,72.0,101.0
244,169.35625,169.55520833333333,72.0,103.0
245,169.60625,169.71666666666667,75.0,79.0
246,169.85625,170.23645833333333,77.0,98.0
247,170.35625,170.46979166666665,77.0,97.0
248,170.60625,170.70833333333334,77.0,98.0
249,170.85625,171.18958333333333,77.0,99.0
250,171.35625,171.45625,75.0,96.0
251,171.60625,171.94166666666666,74.0,101.0
252,172.10625,173.01354166666667,74.0,100.0
253,173.35625,173.49479166666666,72.0,97.0
254,173.60625,173.740625,74.0,94.0
255,173.85625,174.22083333333333,75.0,100.0
256,174.35625,174.88333333333333,75.0,98.0
257,175.10625,175.43645833333332,77.0,98.0
258,175.60625,175.78645833333334,80.0,97.0
259,175.85625,177.58333333333334,79.0,103.0
260,177.85625,178.86354166666666,84.0,111.0
261,179.10625,179.4125,87.0,105.0
262,179.60625,179.74270833333333,84.0,91.0
263,179.85625,180.08479467708332,84.0,95.0
264,180.19207075,180.39822737708332,84.0,97.0
265,180.52789149999998,181.11651064791664,82.0,100.0
266,181.199533,181.41315231041665,77.0,91.0
267,181.42341349999998,181.62490595,79.0,94.0
268,181.772294,181.97021066666665,79.0,94.0
269,182.147294,182.27958566666666,79.0,97.0
270,182.397294,182.641044,79.0,99.0
271,182.772294,183.02333566666667,79.0,98.0
272,183.147294,183.291044,77.0,91.0
273,183.397294,183.65875233333333,77.0,100.0
274,183.772294,184.50250233333333,79.0,105.0
275,185.397294,185.5775023333333,72.0,109.0
276,185.647294,186.41083566666666,79.0,111.0
277,187.022294,187.64416899999998,75.0,106.0
278,187.647294,188.62854399999998,77.0,106.0
279,189.147294,189.462919,74.0,114.0
280,189.647294,189.96708566666666,74.0,105.0
281,190.022294,190.1556273333333,75.0,56.0
282,190.147294,190.281669,74.0,74.0
283,190.272294,191.90354399999998,72.0,58.0
284,193.147294,193.4275023333333,72.0,106.0
285,193.397294,193.662919,74.0,93.0
286,193.647294,194.0837523333333,75.0,106.0
287,194.147294,194.59625233333333,75.0,109.0
288,194.647294,195.12854399999998,75.0,103.0
289,195.147294,195.397294,72.0,100.0
290,195.397294,195.65250233333333,74.0,90.0
291,195.647294,196.12125233333333,75.0,99.0
292,196.147294,196.556669,75.0,99.0
293,196.647294,196.79937733333333,75.0,91.0
294,196.897294,197.14521066666666,75.0,93.0
295,197.147294,197.41916899999998,77.0,93.0
296,197.397294,197.64416899999998,75.0,91.0
297,197.647294,198.09000233333333,74.0,97.0
298,198.147294,198.61187733333333,74.0,92.0
299,198.647294,199.65458566666666,74.0,90.0
300,199.647294,200.12333566666666,72.0,103.0
301,200.147294,200.400419,70.0,90.0
302,200.397294,200.90771066666665,74.0,105.0
303,200.897294,201.14312733333333,72.0,92.0
304,201.147294,201.45041899999998,70.0,97.0
305,201.647294,202.10562733333333,72.0,103.0
306,202.147294,202.437919,70.0,100.0
307,202.397294,203.6087523333333,72.0,105.0
308,203.647294,203.884794,72.0,90.0
309,203.897294,204.36187733333333,70.0,84.0
310,204.397294,204.86396066666666,67.0,87.0
311,204.897294,205.16500233333332,67.0,82.0
312,205.147294,205.39833566666664,65.0,63.0
313,205.397294,205.66500233333332,63.0,64.0
314,205.647294,206.11291899999998,65.0,79.0
315,206.147294,206.46187733333332,63.0,63.0
316,206.397294,206.88062733333334,65.0,68.0
317,206.897294,207.32958566666665,68.0,80.0
318,207.397294,207.92021066666666,68.0,93.0
319,207.897294,209.05979399999998,67.0,91.0
320,209.147294,209.31812733333334,72.0,98.0
321,209.397294,209.656669,74.0,93.0
322,209.647294,210.11812733333332,75.0,97.0
323,210.15979399999998,210.641044,75.0,99.0
324,210.65979399999998,211.125419,75.0,99.0
325,211.15979399999998,211.42333566666665,72.0,98.0
326,211.40979399999998,211.6868773333333,74.0,87.0
327,211.65979399999998,212.08062733333333,75.0,91.0
328,212.15979399999998,212.64416899999998,75.0,101.0
329,212.65979399999998,212.828544,75.0,89.0
330,212.90979399999998,213.16187733333334,75.0,90.0
331,213.15979399999998,213.422294,77.0,95.0
332,213.40979399999998,213.656669,75.0,90.0
333,213.65979399999998,214.156669,74.0,97.0
334,214.15979399999998,214.656669,74.0,98.0
335,214.65979399999998,215.65771066666665,74.0,103.0
336,215.65979399999998,216.15771066666665,72.0,103.0
337,216.15979399999998,216.41187733333334,70.0,77.0
338,216.40979399999998,216.83062733333333,74.0,93.0
339,216.90979399999998,217.15354399999998,72.0,95.0
340,217.15979399999998,217.61187733333333,70.0,97.0
341,217.65979399999998,218.15250233333333,72.0,95.0
342,218.15979399999998,218.43062733333332,70.0,93.0
343,218.40979399999998,219.65771066666665,72.0,96.0
344,219.65979399999998,220.156669,74.0,98.0
345,220.15979399999998,220.65771066666665,74.0,94.0
346,220.65979399999998,221.17646066666666,75.0,96.0
347,221.15979399999998,221.406669,74.0,79.0
348,221.40979399999998,221.92750233333334,74.0,91.0
349,221.90979399999998,222.03271066666665,75.0,55.0
350,222.03479399999998,222.162919,74.0,56.0
351,222.15979399999998,224.52437733333332,72.0,67.0
352,225.15458566666666,225.41396066666664,72.0,106.0
353,225.40458566666666,225.65250233333333,70.0,93.0
354,225.65458566666666,226.025419,72.0,97.0
355,226.147294,226.40250233333333,70.0,87.0
356,226.397294,227.64312733333333,72.0,95.0
357,227.65458566666666,228.02333566666664,74.0,103.0
358,228.15458566666666,228.66187733333334,74.0,96.0
359,228.65458566666666,229.05250233333334,75.0,93.0
360,229.15458566666666,229.44000233333333,74.0,94.0
361,229.40458566666666,229.44000233333333,74.0,99.0
362,229.90458566666666,230.02958566666666,75.0,91.0
363,230.02958566666666,230.15354399999998,74.0,89.0
364,230.15458566666666,231.52021066666666,72.0,88.0
