,start,end,pitch,velocity
0,1.85625,2.5635416666666666,63.0,60.0
1,1.85625,2.5833333333333335,62.0,55.0
2,1.85625,2.591666666666667,67.0,58.0
3,1.85625,3.1958333333333333,60.0,53.0
4,2.73125,3.2875,67.0,62.0
5,2.73125,3.294791666666667,63.0,64.0
6,2.73125,3.3020833333333335,62.0,55.0
7,3.2312499999999997,3.4656249999999997,60.0,52.0
8,1.85625,3.638541666666667,48.0,48.0
9,3.8562499999999997,4.621875,63.0,64.0
10,3.8562499999999997,4.658333333333333,68.0,56.0
11,3.8562499999999997,4.669791666666667,60.0,56.0
12,3.8562499999999997,5.15625,53.0,66.0
13,4.85625,5.385416666666667,68.0,56.0
14,4.85625,5.429166666666666,63.0,63.0
15,4.85625,5.45,60.0,56.0
16,5.35625,5.840625,53.0,64.0
17,5.85625,6.267708333333333,70.0,62.0
18,5.85625,6.319791666666666,62.0,63.0
19,5.60625,6.378125,65.0,62.0
20,6.60625,6.9468749999999995,63.0,61.0
21,6.60625,6.980208333333334,60.0,47.0
22,6.60625,6.98125,68.0,60.0
23,5.85625,7.339583333333334,46.0,58.0
24,6.35625,7.38125,58.0,39.0
25,7.10625,7.505208333333333,67.0,60.0
26,7.60625,7.833333333333333,65.0,58.0
27,7.85625,8.076041666666667,63.0,61.0
28,7.85625,8.154166666666667,67.0,62.0
29,7.85625,8.535416666666666,51.0,69.0
30,8.35625,8.56875,63.0,58.0
31,8.60625,8.786458333333334,65.0,53.0
32,8.10625,8.796875,58.0,58.0
33,8.85625,9.267708333333333,70.0,67.0
34,8.85625,9.307291666666666,65.0,50.0
35,8.85625,9.422916666666666,50.0,67.0
36,9.10625,9.448958333333334,58.0,61.0
37,9.35625,9.49375,62.0,61.0
38,9.60625,9.8625,72.0,54.0
39,10.10625,10.65625,63.0,63.0
40,10.35625,10.784375,68.0,44.0
41,11.10625,11.346875,63.0,67.0
42,9.85625,11.413541666666667,56.0,70.0
43,11.35625,11.569791666666667,67.0,64.0
44,11.60625,11.754166666666666,70.0,46.0
45,11.85625,12.076041666666667,46.0,70.0
46,11.85625,12.275,62.0,61.0
47,11.85625,12.344791666666666,65.0,67.0
48,12.10625,12.440625,58.0,50.0
49,11.85625,12.522916666666667,70.0,64.0
50,12.85625,13.152083333333334,65.0,70.0
51,12.60625,13.283333333333333,62.0,66.0
52,12.35625,13.2875,60.0,60.0
53,13.10625,13.386458333333334,70.0,54.0
54,13.35625,13.570833333333333,72.0,51.0
55,13.85625,14.313541666666666,63.0,69.0
56,13.85625,14.319791666666667,56.0,72.0
57,13.85625,14.351041666666667,68.0,70.0
58,13.85625,14.4,72.0,69.0
59,14.85625,15.260416666666666,70.0,60.0
60,14.85625,15.283333333333333,65.0,58.0
61,14.85625,15.29375,46.0,66.0
62,14.60625,15.352083333333333,72.0,70.0
63,14.85625,15.421875,58.0,62.0
64,15.35625,15.852083333333333,70.0,76.0
65,15.85625,16.25208333333333,67.0,59.0
66,15.85625,16.323958333333334,63.0,58.0
67,16.60625,16.944791666666667,62.0,57.0
68,16.85625,17.121875,63.0,57.0
69,17.10625,17.311458333333334,67.0,59.0
70,16.10625,17.738541666666666,55.0,44.0
71,16.35625,17.76770833333333,60.0,64.0
72,15.85625,17.794791666666665,48.0,69.0
73,17.35625,17.852083333333333,72.0,57.0
74,18.60625,18.942708333333332,62.0,43.0
75,17.85625,19.286458333333332,48.0,63.0
76,18.10625,19.327083333333334,55.0,62.0
77,18.35625,19.378125,60.0,50.0
78,18.85625,19.805208333333333,63.0,58.0
79,20.35625,21.23125,65.0,49.0
80,20.60625,21.3125,67.0,56.0
81,20.10625,21.320833333333333,60.0,53.0
82,19.85625,21.357291666666665,53.0,72.0
83,21.35625,21.927083333333332,68.0,50.0
84,22.60625,23.123958333333334,60.0,58.0
85,21.85625,23.235416666666666,46.0,70.0
86,22.10625,23.255208333333332,53.0,58.0
87,22.35625,23.302083333333332,58.0,52.0
88,23.10625,23.373958333333334,62.0,48.0
89,23.85625,24.352083333333333,70.0,55.0
90,24.35625,25.00625,63.0,57.0
91,24.10625,25.20625,58.0,54.0
92,24.60625,25.31458333333333,67.0,57.0
93,23.85625,25.354166666666668,51.0,66.0
94,25.60625,25.849999999999998,63.0,48.0
95,25.85625,26.264583333333334,44.0,42.0
96,26.10625,26.325,51.0,54.0
97,25.85625,26.376041666666666,60.0,47.0
98,25.85625,26.619791666666668,67.0,56.0
99,26.35625,26.703125,56.0,50.0
100,27.10625,27.209374999999998,60.0,59.0
101,26.60625,27.2125,58.0,64.0
102,28.60625,29.126041666666666,62.0,53.0
103,28.10625,29.24375,53.0,64.0
104,27.85625,29.254166666666666,46.0,64.0
105,28.35625,29.286458333333332,58.0,61.0
106,29.85625,30.3125,72.0,57.0
107,30.35625,30.678124999999998,63.0,49.0
108,30.10625,31.20520833333333,60.0,55.0
109,29.85625,31.259375,56.0,53.0
110,30.60625,31.434375,68.0,69.0
111,31.85625,32.06458333333333,43.0,69.0
112,32.10625,32.38854166666667,55.0,56.0
113,31.85625,32.540625,72.0,59.0
114,32.85625,33.36666666666667,67.0,64.0
115,32.35625,33.547916666666666,60.0,78.0
116,32.60625,33.567708333333336,62.0,73.0
117,33.35625,33.66458333333333,72.0,66.0
118,33.60625,33.903125,74.0,60.0
119,33.85625,34.483333333333334,48.0,70.0
120,34.35625,34.59166666666667,55.0,48.0
121,34.60625,34.95625,60.0,48.0
122,33.85625,34.994791666666664,75.0,69.0
123,35.10625,35.371875,63.0,58.0
124,34.85625,35.373958333333334,62.0,59.0
125,35.35625,35.53958333333333,67.0,63.0
126,35.60625,35.807291666666664,75.0,67.0
127,35.85625,36.425,74.0,75.0
128,36.60625,37.13333333333333,65.0,48.0
129,36.35625,37.14270833333333,60.0,53.0
130,36.60625,37.23020833333333,68.0,62.0
131,36.60625,37.296875,72.0,64.0
132,35.85625,37.3125,53.0,63.0
133,37.35625,37.596875,70.0,54.0
134,37.60625,37.84583333333333,72.0,50.0
135,37.85625,38.18958333333333,70.0,61.0
136,37.85625,38.233333333333334,65.0,56.0
137,38.60625,39.14375,68.0,52.0
138,37.85625,39.14895833333333,46.0,72.0
139,38.60625,39.16354166666667,63.0,61.0
140,38.35625,39.186458333333334,58.0,44.0
141,38.10625,39.215625,53.0,57.0
142,40.10625,40.317708333333336,70.0,58.0
143,40.35625,40.405208333333334,70.0,31.0
144,39.85625,40.478125,51.0,72.0
145,40.35625,40.51145833333333,75.0,60.0
146,40.35625,40.536458333333336,63.0,67.0
147,40.10625,40.7375,58.0,62.0
148,40.60625,40.87291666666667,79.0,78.0
149,40.85625,41.06458333333333,77.0,61.0
150,41.10625,41.33020833333333,70.0,55.0
151,40.85625,41.369791666666664,50.0,60.0
152,41.10625,41.401041666666664,58.0,62.0
153,41.35625,41.53854166666667,74.0,44.0
154,41.35625,41.70625,62.0,67.0
155,41.60625,41.859375,75.0,51.0
156,41.85625,42.380208333333336,72.0,61.0
157,42.60625,43.161458333333336,70.0,47.0
158,42.35625,43.225,68.0,53.0
159,43.10625,43.34375,72.0,62.0
160,41.85625,43.344791666666666,56.0,62.0
161,42.10625,43.378125,63.0,58.0
162,43.73125,43.83541666666667,65.0,36.0
163,43.85625,44.302083333333336,46.0,69.0
164,44.10625,44.353125,53.0,55.0
165,44.35625,44.686458333333334,58.0,51.0
166,43.85625,44.688541666666666,70.0,63.0
167,44.60625,45.15,60.0,42.0
168,44.85625,45.18125,62.0,64.0
169,45.10625,45.270833333333336,65.0,59.0
170,45.35625,45.57395833333333,72.0,56.0
171,45.60625,46.071875,77.0,54.0
172,45.85625,46.43958333333333,72.0,70.0
173,45.85625,46.583333333333336,56.0,72.0
174,46.10625,46.64791666666667,63.0,64.0
175,46.35625,46.653125,68.0,61.0
176,46.60625,46.77708333333333,74.0,58.0
177,46.73125,46.86666666666667,75.0,70.0
178,46.85625,47.311458333333334,58.0,67.0
179,47.10625,47.33020833333333,65.0,59.0
180,46.85625,47.38854166666667,77.0,73.0
181,47.35625,47.614583333333336,75.0,64.0
182,47.60625,47.884375,74.0,64.0
183,47.85625,48.083333333333336,72.0,67.0
184,48.60625,48.88229166666667,62.0,64.0
185,48.85625,48.9875,63.0,67.0
186,49.10625,49.29479166666667,67.0,69.0
187,48.35625,49.4125,60.0,73.0
188,47.85625,49.4875,48.0,73.0
189,49.35625,49.547916666666666,74.0,58.0
190,48.10625,49.61145833333333,55.0,59.0
191,49.60625,49.73854166666666,75.0,61.0
192,49.85625,50.35625,48.0,69.0
193,50.10625,50.38854166666667,55.0,63.0
194,49.85625,50.4,75.0,69.0
195,49.85625,50.420833333333334,67.0,63.0
196,49.85625,50.4375,72.0,69.0
197,50.35625,50.66458333333333,60.0,52.0
198,50.60625,50.983333333333334,62.0,67.0
199,50.85625,51.23020833333333,67.0,73.0
200,50.85625,51.233333333333334,75.0,73.0
201,50.85625,51.23854166666666,63.0,72.0
202,50.85625,51.24791666666667,72.0,73.0
203,51.10625,51.4375,62.0,63.0
204,51.356249999999996,51.53541666666666,60.0,61.0
205,51.606249999999996,51.9,75.0,67.0
206,51.856249999999996,52.4125,72.0,59.0
207,51.856249999999996,52.44583333333333,68.0,67.0
208,52.106249999999996,52.821875,60.0,49.0
209,52.606249999999996,52.92395833333333,67.0,62.0
210,52.356249999999996,52.93333333333333,65.0,66.0
211,52.856249999999996,53.234375,72.0,69.0
212,52.856249999999996,53.246874999999996,68.0,75.0
213,53.106249999999996,53.395833333333336,60.0,60.0
214,51.856249999999996,53.44375,53.0,73.0
215,53.356249999999996,53.67395833333333,65.0,63.0
216,53.606249999999996,53.91979166666667,75.0,70.0
217,53.856249999999996,54.17604166666666,65.0,61.0
218,53.856249999999996,54.23229166666667,70.0,67.0
219,53.856249999999996,54.26979166666666,46.0,72.0
220,53.856249999999996,54.30833333333333,74.0,69.0
221,54.106249999999996,54.311458333333334,53.0,62.0
222,54.356249999999996,54.65833333333333,58.0,44.0
223,54.356249999999996,54.74375,65.0,61.0
224,54.356249999999996,54.80520833333333,72.0,70.0
225,54.606249999999996,54.952083333333334,60.0,61.0
226,54.856249999999996,55.17395833333333,65.0,66.0
227,54.856249999999996,55.17916666666667,70.0,72.0
228,54.856249999999996,55.1875,74.0,67.0
229,54.856249999999996,55.21666666666667,62.0,59.0
230,55.106249999999996,55.498958333333334,60.0,59.0
231,55.356249999999996,55.66979166666667,58.0,70.0
232,55.606249999999996,55.8375,68.0,58.0
233,55.856249999999996,56.346875,70.0,60.0
234,55.856249999999996,56.387499999999996,67.0,64.0
235,56.106249999999996,56.66354166666667,58.0,59.0
236,56.606249999999996,56.760416666666664,70.0,58.0
237,56.606249999999996,56.947916666666664,65.0,61.0
238,56.356249999999996,57.071875,63.0,52.0
239,56.856249999999996,57.098958333333336,58.0,53.0
240,57.106249999999996,57.29270833333333,67.0,76.0
241,57.106249999999996,57.29479166666667,70.0,70.0
242,55.856249999999996,57.34791666666666,51.0,76.0
243,57.356249999999996,57.427083333333336,58.0,62.0
244,57.606249999999996,57.748958333333334,50.0,67.0
245,57.856249999999996,58.20104166666667,44.0,78.0
246,57.856249999999996,58.32083333333333,60.0,56.0
247,58.106249999999996,58.322916666666664,51.0,63.0
248,57.856249999999996,58.449999999999996,63.0,62.0
249,58.356249999999996,58.671875,56.0,47.0
250,57.856249999999996,58.859375,68.0,66.0
251,58.856249999999996,58.979166666666664,60.0,72.0
252,58.606249999999996,58.98229166666667,58.0,61.0
253,59.106249999999996,59.32604166666667,60.0,64.0
254,59.356249999999996,59.715624999999996,63.0,61.0
255,59.606249999999996,59.73645833333333,68.0,72.0
256,59.856249999999996,60.32604166666667,62.0,69.0
257,59.856249999999996,60.375,70.0,73.0
258,59.856249999999996,60.37708333333333,65.0,72.0
259,60.606249999999996,60.998958333333334,62.0,70.0
260,60.356249999999996,61.114583333333336,58.0,59.0
261,60.106249999999996,61.24270833333333,53.0,60.0
262,61.106249999999996,61.253125,63.0,72.0
263,61.106249999999996,61.262499999999996,67.0,70.0
264,59.856249999999996,61.36770833333333,46.0,73.0
265,61.356249999999996,61.545833333333334,58.0,59.0
266,61.606249999999996,61.69895833333333,63.0,57.0
267,61.606249999999996,61.85729166666667,68.0,64.0
268,61.856249999999996,61.85729166666667,68.0,69.0
269,61.856249999999996,62.08229166666666,44.0,72.0
270,61.856249999999996,62.32083333333333,63.0,62.0
271,61.856249999999996,62.36875,72.0,61.0
272,62.106249999999996,62.40625,56.0,62.0
273,62.356249999999996,62.46875,58.0,70.0
274,62.606249999999996,62.740625,63.0,57.0
275,62.856249999999996,63.365625,74.0,63.0
276,62.856249999999996,63.375,70.0,64.0
277,62.856249999999996,63.38125,65.0,63.0
278,62.856249999999996,63.407291666666666,46.0,69.0
279,63.106249999999996,63.45520833333333,53.0,70.0
280,63.606249999999996,63.76979166666666,65.0,47.0
281,63.356249999999996,63.778124999999996,58.0,62.0
282,63.856249999999996,64.18645833333333,63.0,56.0
283,63.856249999999996,64.20416666666667,67.0,63.0
284,63.856249999999996,64.22395833333333,72.0,63.0
285,63.856249999999996,64.28229166666667,48.0,69.0
286,64.10625,64.31875,55.0,53.0
287,64.35625,64.67604166666666,60.0,46.0
288,64.85625,65.27604166666667,63.0,69.0
289,64.60625,65.28958333333333,62.0,64.0
290,65.10625,65.40833333333333,72.0,66.0
291,65.35625,65.57395833333334,74.0,66.0
292,65.85625,66.203125,72.0,69.0
293,65.85625,66.225,79.0,72.0
294,65.60625,66.23229166666667,75.0,63.0
295,65.85625,66.36041666666667,48.0,75.0
296,66.10625,66.38541666666667,55.0,57.0
297,66.35625,66.78645833333333,60.0,67.0
298,66.60625,66.93333333333334,72.0,63.0
299,66.60625,66.95833333333333,79.0,73.0
300,66.60625,66.959375,75.0,66.0
301,66.60625,66.96354166666667,62.0,54.0
302,67.10625,67.27291666666666,72.0,58.0
303,66.85625,67.40416666666667,63.0,62.0
304,67.35625,67.51666666666667,74.0,69.0
305,67.35625,67.540625,62.0,69.0
306,67.60625,67.85208333333333,75.0,64.0
307,67.85625,68.16458333333333,79.0,72.0
308,67.85625,68.16875,72.0,60.0
309,68.35625,68.45833333333333,80.0,66.0
310,68.35625,68.46354166666667,72.0,59.0
311,68.10625,68.66354166666666,60.0,56.0
312,68.60625,68.72083333333333,72.0,57.0
313,68.60625,68.73229166666667,80.0,69.0
314,68.35625,69.05416666666666,65.0,51.0
315,68.85625,69.071875,60.0,48.0
316,69.10625,69.20625,70.0,67.0
317,69.10625,69.22291666666666,79.0,76.0
318,67.85625,69.46145833333333,53.0,67.0
319,69.35625,69.47604166666666,60.0,67.0
320,69.60625,69.97083333333333,77.0,78.0
321,69.60625,70.053125,68.0,69.0
322,70.10625,70.70416666666667,53.0,53.0
323,70.60625,70.93958333333333,60.0,63.0
324,70.85625,71.05520833333333,62.0,73.0
325,70.35625,71.12291666666667,58.0,70.0
326,69.85625,71.228125,46.0,70.0
327,71.10625,71.23541666666667,63.0,75.0
328,71.10625,71.30208333333333,53.0,52.0
329,71.35625,71.48125,65.0,54.0
330,71.60625,71.7875,68.0,69.0
331,71.85625,72.26354166666667,67.0,85.0
332,72.35625,72.490625,63.0,51.0
333,71.85625,72.49791666666667,51.0,73.0
334,72.60625,72.76145833333334,65.0,60.0
335,72.10625,72.771875,58.0,52.0
336,72.85625,72.96875,65.0,47.0
337,72.85625,73.04375,70.0,64.0
338,73.35625,73.43958333333333,62.0,64.0
339,73.10625,73.45,58.0,66.0
340,72.85625,73.46145833333333,50.0,66.0
341,73.60625,73.86458333333333,72.0,57.0
342,73.73125,73.871875,74.0,62.0
343,73.85625,74.24270833333333,44.0,75.0
344,73.85625,74.30520833333333,75.0,62.0
345,74.10625,74.3125,51.0,66.0
346,74.35625,74.4375,68.0,47.0
347,74.35625,74.45625,63.0,53.0
348,74.35625,74.49791666666667,72.0,62.0
349,74.35625,74.678125,56.0,47.0
350,74.60625,74.85833333333333,63.0,60.0
351,74.60625,74.88020833333333,68.0,67.0
352,74.60625,74.909375,72.0,66.0
353,74.60625,74.93229166666667,58.0,69.0
354,74.85625,74.96875,60.0,61.0
355,75.10625,75.271875,63.0,54.0
356,75.35625,75.50625,70.0,57.0
357,75.60625,75.75104166666667,72.0,56.0
358,75.85625,75.96458333333334,72.0,62.0
359,75.85625,76.24479166666667,70.0,73.0
360,75.85625,76.278125,65.0,60.0
361,76.60625,76.96770833333333,60.0,70.0
362,76.60625,76.978125,65.0,78.0
363,76.35625,77.07916666666667,58.0,67.0
364,77.10625,77.365625,62.0,67.0
365,75.85625,77.41979166666667,46.0,73.0
366,77.10625,77.42395833333333,65.0,62.0
367,76.10625,77.47395833333333,53.0,63.0
368,77.35625,77.52083333333333,58.0,70.0
369,77.73125,77.784375,65.0,34.0
370,77.85625,78.246875,67.0,67.0
371,77.85625,78.37708333333333,63.0,70.0
372,78.60625,78.97083333333333,62.0,69.0
373,78.60625,79.00625,65.0,75.0
374,78.10625,79.02916666666667,55.0,67.0
375,78.35625,79.05208333333333,60.0,61.0
376,79.10625,79.16041666666666,63.0,69.0
377,79.10625,79.22708333333333,67.0,72.0
378,79.85625,80.3,67.0,66.0
379,79.85625,80.62604166666667,75.0,72.0
380,79.60625,80.85208333333333,55.0,51.0
381,80.85625,81.015625,74.0,70.0
382,80.60625,81.10416666666667,60.0,42.0
383,80.85625,81.13333333333333,65.0,66.0
384,80.8625,81.23333333333333,67.0,88.0
385,80.8625,81.23333333333333,67.0,88.0
386,77.85625,81.25833333333333,48.0,66.0
387,81.10625,81.26666666666667,55.0,47.0
388,81.35625,81.4375,70.0,72.0
389,81.2375,81.60833333333333,72.0,76.0
390,81.2375,81.60833333333333,72.0,76.0
391,81.6125,81.85833333333333,74.0,82.0
392,81.6125,81.85833333333333,74.0,82.0
393,81.8625,82.109375,60.0,63.0
394,81.8625,82.184375,63.0,69.0
395,81.8625,82.20625,68.0,70.0
396,82.3625,82.55833333333334,63.0,34.0
397,81.8625,82.85833333333333,75.0,95.0
398,81.8625,82.85833333333333,75.0,95.0
399,81.8625,82.91770833333334,56.0,73.0
400,82.6125,83.0125,72.0,72.0
401,82.6125,83.06145833333333,68.0,72.0
402,82.6125,83.0875,63.0,48.0
403,82.8625,83.23333333333333,79.0,82.0
404,82.8625,83.23333333333333,79.0,82.0
405,83.3625,83.58229166666666,63.0,73.0
406,83.2375,83.60833333333333,77.0,91.0
407,83.2375,83.60833333333333,77.0,91.0
408,83.6125,83.79583333333333,72.0,63.0
409,83.6125,83.85833333333333,75.0,76.0
410,83.6125,83.85833333333333,75.0,76.0
411,83.1125,83.95104166666667,56.0,66.0
412,83.8625,84.14479166666666,74.0,70.0
413,83.8625,84.175,70.0,75.0
414,83.8625,84.18125,65.0,66.0
415,84.1125,84.65520833333333,62.0,48.0
416,84.3625,84.903125,65.0,45.0
417,83.8625,84.98229166666667,77.0,85.0
418,83.8625,84.98229166666667,77.0,85.0
419,84.6125,84.98229166666667,77.0,78.0
420,83.8625,85.12083333333334,58.0,60.0
421,85.1125,85.30729166666667,65.0,59.0
422,84.8625,85.40416666666667,62.0,53.0
423,85.3625,85.57604166666667,72.0,67.0
424,85.6125,85.90104166666667,74.0,63.0
425,85.8625,86.21041666666666,65.0,53.0
426,85.8625,86.215625,70.0,67.0
427,85.8625,86.35833333333333,84.0,99.0
428,85.8625,86.35833333333333,84.0,99.0
429,86.3625,86.56458333333333,65.0,54.0
430,86.3625,86.60833333333333,82.0,91.0
431,86.3625,86.60833333333333,82.0,91.0
432,86.1125,86.71145833333333,62.0,62.0
433,86.6125,87.034375,65.0,69.0
434,86.6125,87.103125,74.0,75.0
435,86.6125,87.12083333333334,70.0,78.0
436,85.8625,87.3125,55.0,73.0
437,87.1125,87.31979166666666,62.0,64.0
438,86.6125,87.60833333333333,82.0,88.0
439,86.6125,87.60833333333333,82.0,88.0
440,87.3625,87.68541666666667,72.0,72.0
441,87.6125,87.73333333333333,79.0,72.0
442,87.6125,87.73333333333333,79.0,72.0
443,87.6125,87.83854166666667,74.0,66.0
444,87.7375,87.85833333333333,77.0,73.0
445,87.7375,87.85833333333333,77.0,73.0
446,87.8625,88.21770833333333,67.0,66.0
447,87.8625,88.23125,48.0,64.0
448,88.1125,88.31875,55.0,59.0
449,87.8625,88.31875,75.0,73.0
450,87.8625,88.35625,70.0,63.0
451,87.8625,88.35833333333333,79.0,95.0
452,87.8625,88.35833333333333,79.0,95.0
453,88.3625,88.51458333333333,67.0,55.0
454,88.3625,88.60833333333333,75.0,78.0
455,88.3625,88.60833333333333,75.0,78.0
456,88.3625,88.6125,74.0,69.0
457,88.3625,88.665625,60.0,44.0
458,88.6125,88.89270833333333,67.0,67.0
459,88.6125,88.94583333333333,75.0,73.0
460,88.6125,89.046875,62.0,52.0
461,88.8625,89.05625,63.0,62.0
462,89.1125,89.27395833333333,67.0,60.0
463,89.3625,89.71145833333333,70.0,59.0
464,88.6125,89.81666666666666,72.0,85.0
465,88.6125,89.81666666666666,72.0,85.0
466,89.6125,89.81666666666666,72.0,64.0
467,89.8625,90.17291666666667,63.0,60.0
468,89.8625,90.18125,68.0,63.0
469,89.8625,90.19791666666667,72.0,63.0
470,89.8625,90.35833333333333,75.0,42.0
471,89.8625,90.35833333333333,75.0,42.0
472,90.3625,90.60833333333333,74.0,75.0
473,90.3625,90.60833333333333,74.0,75.0
474,90.1125,90.70416666666667,60.0,63.0
475,90.3625,91.021875,63.0,61.0
476,90.6125,91.10833333333333,75.0,82.0
477,90.6125,91.10833333333333,75.0,82.0
478,90.6125,91.15,68.0,78.0
479,89.8625,91.44270833333333,56.0,62.0
480,91.1125,91.45520833333333,60.0,67.0
481,91.3625,91.55729166666667,63.0,69.0
482,91.1125,91.60833333333333,84.0,95.0
483,91.1125,91.60833333333333,84.0,95.0
484,91.6125,91.80729166666667,72.0,64.0
485,91.6125,91.85833333333333,82.0,70.0
486,91.6125,91.85833333333333,82.0,70.0
487,91.8625,92.10833333333333,84.0,70.0
488,91.8625,92.10833333333333,84.0,70.0
489,91.8625,92.21666666666667,65.0,66.0
490,91.8625,92.22916666666667,74.0,75.0
491,92.1125,92.35833333333333,82.0,93.0
492,92.1125,92.35833333333333,82.0,93.0
493,92.3625,92.52604166666667,65.0,55.0
494,92.3625,92.60833333333333,79.0,80.0
495,92.3625,92.60833333333333,79.0,80.0
496,92.1125,92.79479166666667,62.0,60.0
497,92.6125,93.11979166666667,65.0,66.0
498,92.6125,93.13541666666667,74.0,61.0
499,93.1125,93.275,62.0,67.0
500,91.8625,93.34791666666666,58.0,59.0
501,92.6125,93.60833333333333,82.0,67.0
502,92.6125,93.60833333333333,82.0,67.0
503,93.3625,93.678125,72.0,60.0
504,93.6125,93.70104166666667,74.0,50.0
505,93.6125,93.85833333333333,79.0,72.0
506,93.6125,93.85833333333333,79.0,72.0
507,93.8625,94.19895833333334,67.0,64.0
508,93.8625,94.21354166666667,70.0,66.0
509,93.8625,94.21666666666667,74.0,61.0
510,93.8625,94.23333333333333,87.0,75.0
511,93.8625,94.23333333333333,87.0,75.0
512,94.3625,94.55625,67.0,60.0
513,94.2375,94.60833333333333,87.0,78.0
514,94.2375,94.60833333333333,87.0,78.0
515,94.6125,94.74270833333333,70.0,72.0
516,94.6125,94.85833333333333,87.0,82.0
517,94.6125,94.85833333333333,87.0,82.0
518,94.6125,95.07916666666667,67.0,66.0
519,95.1125,95.20416666666667,70.0,59.0
520,95.1125,95.22291666666666,74.0,76.0
521,94.8625,95.23333333333333,87.0,82.0
522,94.8625,95.23333333333333,87.0,82.0
523,95.3625,95.45625,67.0,63.0
524,94.1125,95.46979166666667,62.0,62.0
525,93.8625,95.50416666666666,55.0,67.0
526,95.2375,95.60833333333333,86.0,97.0
527,95.2375,95.60833333333333,86.0,97.0
528,95.6125,95.73333333333333,87.0,64.0
529,95.6125,95.73333333333333,87.0,64.0
530,95.6125,95.79479166666667,77.0,69.0
531,95.7375,95.85833333333333,86.0,85.0
532,95.7375,95.85833333333333,86.0,85.0
533,95.8625,96.06770833333333,75.0,64.0
534,95.8625,96.13333333333333,70.0,59.0
535,96.6125,96.79583333333333,67.0,53.0
536,96.3625,96.89583333333333,60.0,58.0
537,96.8625,97.15208333333334,75.0,72.0
538,96.8625,97.16458333333333,67.0,64.0
539,96.8625,97.17291666666667,70.0,73.0
540,97.1125,97.36145833333333,60.0,50.0
541,96.1125,97.3875,55.0,60.0
542,95.8625,97.45520833333333,48.0,72.0
543,97.3625,97.465625,74.0,70.0
544,97.3625,97.47916666666667,67.0,69.0
545,95.8625,97.60833333333333,84.0,97.0
546,95.8625,97.60833333333333,84.0,97.0
547,97.6125,97.73333333333333,84.0,67.0
548,97.6125,97.73333333333333,84.0,67.0
549,97.7375,97.85833333333333,86.0,62.0
550,97.7375,97.85833333333333,86.0,62.0
551,97.8625,98.23333333333333,87.0,93.0
552,97.8625,98.23333333333333,87.0,93.0
553,97.8625,98.35416666666667,72.0,72.0
554,97.8625,98.38020833333333,56.0,59.0
555,97.8625,98.47708333333333,68.0,73.0
556,97.8625,98.52916666666667,63.0,69.0
557,98.2375,98.60833333333333,87.0,93.0
558,98.2375,98.60833333333333,87.0,93.0
559,98.6125,98.85833333333333,87.0,82.0
560,98.6125,98.85833333333333,87.0,82.0
561,98.6125,98.934375,56.0,50.0
562,98.8625,99.184375,72.0,66.0
563,98.8625,99.20104166666667,68.0,69.0
564,98.8625,99.21458333333334,63.0,69.0
565,98.8625,99.23333333333333,87.0,82.0
566,98.8625,99.23333333333333,87.0,82.0
567,99.1125,99.48333333333333,91.0,88.0
568,99.1125,99.48333333333333,91.0,88.0
569,97.8625,99.51875,44.0,67.0
570,99.1125,99.546875,56.0,54.0
571,99.3625,99.60520833333334,63.0,62.0
572,99.6125,99.8375,72.0,59.0
573,99.6125,99.85833333333333,91.0,76.0
574,99.6125,99.85833333333333,91.0,76.0
575,99.8625,100.10833333333333,91.0,85.0
576,99.8625,100.10833333333333,91.0,85.0
577,99.8625,100.26145833333334,58.0,69.0
578,99.8625,100.30416666666666,74.0,66.0
579,99.8625,100.340625,70.0,72.0
580,100.1125,100.35833333333333,89.0,82.0
581,100.1125,100.35833333333333,89.0,82.0
582,99.8625,100.51354166666667,65.0,70.0
583,100.3625,100.60833333333333,87.0,73.0
584,100.3625,100.60833333333333,87.0,73.0
585,100.6125,101.04166666666667,74.0,70.0
586,100.6125,101.05208333333333,58.0,50.0
587,100.6125,101.0625,65.0,72.0
588,100.6125,101.09583333333333,70.0,78.0
589,101.1125,101.35416666666667,58.0,55.0
590,99.8625,101.471875,46.0,64.0
591,101.3625,101.57604166666667,65.0,64.0
592,100.6125,101.60833333333333,89.0,93.0
593,100.6125,101.60833333333333,89.0,93.0
594,101.6125,101.69479166666666,70.0,52.0
595,101.6125,101.73333333333333,82.0,73.0
596,101.6125,101.73333333333333,82.0,73.0
597,101.7375,101.85833333333333,84.0,63.0
598,101.7375,101.85833333333333,84.0,63.0
599,101.3625,101.91770833333334,72.0,64.0
600,101.8625,102.35833333333333,86.0,82.0
601,101.8625,102.35833333333333,86.0,82.0
602,101.8625,102.40729166666667,55.0,67.0
603,101.8625,102.53020833333333,70.0,75.0
604,101.8625,102.575,65.0,64.0
605,102.3625,102.60833333333333,86.0,82.0
606,102.3625,102.60833333333333,86.0,82.0
607,102.6125,102.85833333333333,86.0,75.0
608,102.6125,102.85833333333333,86.0,75.0
609,102.6125,102.940625,55.0,46.0
610,102.8625,103.19375,70.0,70.0
611,102.8625,103.20625,65.0,67.0
612,102.8625,103.23333333333333,86.0,80.0
613,102.8625,103.23333333333333,86.0,80.0
614,101.8625,103.278125,43.0,76.0
615,103.1125,103.36770833333333,55.0,49.0
616,103.3625,103.60104166666666,65.0,63.0
617,103.2375,103.60833333333333,87.0,78.0
618,103.2375,103.60833333333333,87.0,78.0
619,103.6125,103.80833333333334,70.0,64.0
620,103.6125,103.85833333333333,89.0,61.0
621,103.6125,103.85833333333333,89.0,61.0
622,103.8625,103.93645833333333,60.0,39.0
623,103.8625,104.10833333333333,89.0,80.0
624,103.8625,104.10833333333333,89.0,80.0
625,103.8625,104.15625,70.0,52.0
626,103.8625,104.21354166666667,67.0,73.0
627,103.8625,104.24479166666667,63.0,72.0
628,104.1125,104.35833333333333,87.0,88.0
629,104.1125,104.35833333333333,87.0,88.0
630,104.3625,104.553125,62.0,46.0
631,104.3625,104.60833333333333,86.0,82.0
632,104.3625,104.60833333333333,86.0,82.0
633,104.1125,104.68541666666667,60.0,55.0
634,104.6125,105.08229166666666,67.0,73.0
635,104.6125,105.13125,63.0,75.0
636,105.1125,105.32083333333333,60.0,49.0
637,103.8625,105.346875,48.0,73.0
638,105.3625,105.52916666666667,62.0,57.0
639,105.3625,105.584375,65.0,66.0
640,104.6125,105.73333333333333,84.0,88.0
641,104.6125,105.73333333333333,84.0,88.0
642,105.6125,105.75104166666667,63.0,47.0
643,105.7375,105.75104166666667,63.0,61.0
644,105.6125,105.784375,67.0,63.0
645,105.7375,105.784375,67.0,67.0
646,105.7375,105.85833333333333,77.0,52.0
647,105.7375,105.85833333333333,77.0,52.0
648,105.7375,106.10833333333333,79.0,101.0
649,105.7375,106.10833333333333,79.0,101.0
650,105.7375,106.309375,56.0,61.0
651,105.7375,106.39270833333333,60.0,60.0
652,106.2375,106.60833333333333,82.0,67.0
653,106.2375,106.60833333333333,82.0,67.0
654,106.6125,106.85833333333333,80.0,78.0
655,106.6125,106.85833333333333,80.0,78.0
656,106.6125,107.06145833333333,56.0,39.0
657,106.8625,107.23333333333333,80.0,80.0
658,106.8625,107.23333333333333,80.0,80.0
659,105.7375,107.36145833333333,44.0,69.0
660,106.8625,107.421875,67.0,61.0
661,106.8625,107.45104166666667,63.0,62.0
662,106.8625,107.465625,60.0,61.0
663,107.3625,107.53020833333333,56.0,59.0
664,107.2375,107.60833333333333,79.0,91.0
665,107.2375,107.60833333333333,79.0,91.0
666,107.6125,107.85833333333333,80.0,73.0
667,107.6125,107.85833333333333,80.0,73.0
668,107.8625,108.35,70.0,64.0
669,107.8625,108.35833333333333,79.0,93.0
670,107.8625,108.35833333333333,79.0,93.0
671,107.8625,108.45833333333333,62.0,69.0
672,107.8625,108.48541666666667,65.0,66.0
673,108.3625,108.60833333333333,77.0,76.0
674,108.3625,108.60833333333333,77.0,76.0
675,108.3625,108.890625,53.0,28.0
676,108.8625,109.35833333333333,70.0,62.0
677,108.8625,109.36354166666666,65.0,72.0
678,108.8625,109.37083333333334,58.0,55.0
679,107.8625,109.40520833333333,46.0,75.0
680,108.8625,109.40833333333333,62.0,67.0
681,109.3625,109.45416666666667,53.0,46.0
682,108.6125,109.60833333333333,77.0,76.0
683,108.6125,109.60833333333333,77.0,76.0
684,109.6125,109.85833333333333,67.0,78.0
685,109.6125,109.85833333333333,67.0,78.0
686,109.8625,110.10833333333333,80.0,76.0
687,109.8625,110.10833333333333,80.0,76.0
688,109.8625,110.33541666666666,67.0,72.0
689,110.1125,110.35833333333333,79.0,78.0
690,110.1125,110.35833333333333,79.0,78.0
691,109.8625,110.44583333333333,62.0,72.0
692,110.3625,110.60833333333333,77.0,78.0
693,110.3625,110.60833333333333,77.0,78.0
694,110.6125,110.85833333333333,75.0,78.0
695,110.6125,110.85833333333333,75.0,78.0
696,109.8625,110.909375,43.0,72.0
697,110.3625,110.94166666666666,55.0,47.0
698,110.8625,111.35833333333333,74.0,78.0
699,110.8625,111.35833333333333,74.0,78.0
700,110.8625,111.36145833333333,65.0,61.0
701,110.8625,111.36979166666667,62.0,63.0
702,110.8625,111.37604166666667,59.0,64.0
703,111.3625,111.60833333333333,72.0,82.0
704,111.3625,111.60833333333333,72.0,82.0
705,111.6125,111.85833333333333,71.0,91.0
706,111.6125,111.85833333333333,71.0,91.0
707,111.8625,112.08333333333333,63.0,63.0
708,111.8625,112.16979166666667,67.0,67.0
709,111.8625,112.21458333333334,72.0,63.0
710,111.8625,112.21458333333334,72.0,80.0
711,111.8625,112.21458333333334,72.0,80.0
712,111.8625,112.32916666666667,48.0,72.0
713,112.1125,112.35416666666667,55.0,56.0
714,112.3625,112.63854166666667,60.0,58.0
715,112.8625,113.203125,63.0,62.0
716,112.6125,113.22395833333333,62.0,50.0
717,113.1125,113.29895833333333,67.0,73.0
718,113.3625,113.63645833333334,75.0,62.0
719,113.6125,113.82604166666667,74.0,63.0
720,113.85625,113.85833333333333,72.0,61.0
721,113.85625,114.42708333333333,67.0,67.0
722,113.85625,114.465625,63.0,63.0
723,113.8625,114.53541666666666,72.0,64.0
724,114.35625,114.93541666666667,55.0,36.0
725,114.85625,115.35520833333334,67.0,70.0
726,113.85625,115.41145833333333,48.0,72.0
727,114.85625,115.4375,63.0,63.0
728,114.85625,115.46145833333333,72.0,61.0
729,115.35625,115.47604166666666,55.0,61.0
730,114.85625,115.48333333333333,60.0,48.0
731,115.85625,116.24166666666666,72.0,62.0
732,115.85625,116.39479166666666,68.0,61.0
733,116.35625,117.19895833333334,65.0,50.0
734,116.60625,117.221875,67.0,62.0
735,116.85625,117.33854166666667,68.0,63.0
736,116.10625,117.38854166666667,60.0,58.0
737,115.85625,117.39895833333333,53.0,70.0
738,117.35625,117.55729166666667,72.0,58.0
739,117.60625,117.91562499999999,75.0,66.0
740,117.85625,118.22708333333333,74.0,69.0
741,118.60625,118.95520833333333,62.0,58.0
742,118.85625,119.18541666666667,63.0,62.0
743,119.10625,119.309375,65.0,58.0
744,117.85625,119.41354166666666,46.0,66.0
745,118.10625,119.41354166666666,53.0,57.0
746,119.35625,119.584375,67.0,48.0
747,119.60625,119.75833333333333,68.0,60.0
748,118.35625,119.83020833333333,58.0,58.0
749,119.85625,120.46145833333333,70.0,69.0
750,120.35625,120.84270833333333,63.0,62.0
751,119.85625,120.91145833333333,51.0,64.0
752,120.60625,120.94791666666667,65.0,61.0
753,120.85625,121.15729166666667,67.0,61.0
754,121.10625,121.43229166666667,70.0,67.0
755,121.1125,121.43229166666667,70.0,72.0
756,120.10625,121.49895833333333,58.0,57.0
757,121.35625,121.50937499999999,50.0,62.0
758,121.3625,121.62708333333333,75.0,73.0
759,121.6125,121.86354166666666,74.0,67.0
760,121.60625,121.92708333333333,72.0,50.0
761,121.8625,121.92708333333333,72.0,67.0
762,121.85625,122.56666666666666,75.0,66.0
763,122.60625,122.84791666666666,74.0,61.0
764,122.10625,122.85104166666666,63.0,56.0
765,122.85625,122.88333333333333,72.0,69.0
766,122.35625,123.0,68.0,59.0
767,123.10625,123.51979166666666,63.0,67.0
768,121.85625,123.534375,56.0,72.0
769,123.35625,123.54479166666667,67.0,46.0
770,123.60625,123.81145833333333,70.0,49.0
771,123.85625,124.296875,72.0,49.0
772,123.85625,124.33541666666666,68.0,55.0
773,124.35625,124.83645833333333,62.0,44.0
774,124.60625,124.99583333333334,65.0,63.0
775,124.60625,125.03125,70.0,70.0
776,125.10625,125.271875,62.0,62.0
777,123.98125,125.33854166666667,58.0,44.0
778,125.35625,125.56041666666667,65.0,48.0
779,125.60625,125.70208333333333,72.0,59.0
780,125.85625,126.16770833333334,68.0,43.0
781,125.85625,126.190625,72.0,49.0
782,126.10625,126.41562499999999,60.0,62.0
783,125.85625,126.45,56.0,60.0
784,126.35625,126.56145833333333,63.0,64.0
785,126.60625,126.70729166666666,72.0,40.0
786,126.60625,126.75625,68.0,73.0
787,126.85625,127.24895833333333,74.0,75.0
788,126.85625,127.28958333333333,65.0,59.0
789,126.85625,127.30520833333333,70.0,61.0
790,126.85625,127.45,46.0,73.0
791,127.10625,127.52291666666666,53.0,63.0
792,127.60625,127.74479166666667,65.0,45.0
793,127.35625,127.796875,58.0,64.0
794,127.85625,128.17395833333333,67.0,64.0
795,127.85625,128.284375,48.0,72.0
796,128.10625,128.33541666666667,55.0,70.0
797,128.35625,128.659375,60.0,56.0
798,127.85625,128.81458333333333,75.0,73.0
799,127.85625,128.85625,72.0,73.0
800,128.60625,128.96666666666667,62.0,55.0
801,128.85625,128.98854166666666,63.0,80.0
802,128.8625,129.19270833333334,67.0,61.0
803,129.10625,129.19270833333334,67.0,76.0
804,129.1125,129.453125,72.0,73.0
805,129.35625,129.56354166666665,74.0,73.0
806,129.3625,129.56354166666665,74.0,70.0
807,129.6125,129.865625,75.0,76.0
808,129.85625,129.865625,75.0,76.0
809,129.85625,130.19375,67.0,72.0
810,129.85625,130.21770833333332,72.0,63.0
811,129.85625,130.328125,48.0,58.0
812,130.10625,130.36875,55.0,62.0
813,129.8625,130.59166666666667,79.0,73.0
814,130.35625,130.67604166666666,60.0,63.0
815,130.60625,130.74166666666667,67.0,64.0
816,130.60625,130.753125,75.0,73.0
817,130.85625,130.98125,67.0,64.0
818,130.85625,131.15729166666665,75.0,75.0
819,130.85625,131.20520833333333,63.0,63.0
820,131.10625,131.24479166666666,67.0,62.0
821,130.60625,131.24791666666667,62.0,55.0
822,131.10625,131.25,74.0,67.0
823,131.35625,131.5875,72.0,76.0
824,131.60625,131.93854166666665,75.0,76.0
825,131.85625,132.38333333333333,72.0,70.0
826,131.85625,132.39166666666665,68.0,67.0
827,132.10625,132.89375,60.0,55.0
828,132.60625,132.90416666666667,67.0,67.0
829,132.85625,132.953125,68.0,75.0
830,132.35625,133.340625,65.0,72.0
831,133.10625,133.41458333333333,72.0,41.0
832,131.85625,133.46666666666667,53.0,75.0
833,133.35625,133.490625,60.0,64.0
834,133.35625,133.51354166666667,80.0,72.0
835,133.60625,133.878125,79.0,57.0
836,133.85625,134.109375,77.0,69.0
837,133.85625,134.17291666666665,70.0,60.0
838,134.35625,134.64791666666667,58.0,50.0
839,134.60625,134.94375,62.0,69.0
840,134.60625,135.03020833333332,68.0,59.0
841,133.85625,135.21979166666665,46.0,72.0
842,134.10625,135.22708333333333,53.0,69.0
843,135.10625,135.3,58.0,57.0
844,135.35625,135.69375,62.0,75.0
845,135.60625,135.82395833333334,68.0,64.0
846,135.85625,136.17708333333334,63.0,75.0
847,135.85625,136.25,67.0,69.0
848,136.60625,136.91458333333333,67.0,69.0
849,136.35625,136.98958333333334,63.0,60.0
850,136.85625,137.025,70.0,61.0
851,136.10625,137.19583333333333,58.0,62.0
852,135.85625,137.23229166666667,51.0,73.0
853,137.084375,137.30729166666666,67.0,61.0
854,137.10625,137.33229166666666,72.0,59.0
855,137.35625,137.5,53.0,60.0
856,137.35625,137.56354166666665,74.0,57.0
857,137.35625,137.77291666666667,75.0,67.0
858,137.60625,137.796875,67.0,59.0
859,137.58541666666667,137.81354166666665,77.0,72.0
860,137.85625,138.28229166666665,68.0,58.0
861,137.85625,138.31354166666665,44.0,72.0
862,138.10625,138.353125,51.0,67.0
863,137.85625,138.39583333333334,72.0,75.0
864,138.35625,138.53333333333333,63.0,53.0
865,138.35625,138.59895833333334,70.0,66.0
866,138.35625,138.65729166666665,56.0,55.0
867,137.83333333333334,138.80520833333333,75.0,59.0
868,138.60625,138.90625,63.0,49.0
869,138.60625,138.92083333333332,68.0,59.0
870,138.85625,139.22708333333333,60.0,64.0
871,138.60625,139.23541666666665,58.0,64.0
872,139.10625,139.27291666666667,63.0,59.0
873,139.35625,139.59479166666665,70.0,75.0
874,139.60625,139.903125,75.0,67.0
875,139.85625,140.21354166666666,65.0,59.0
876,139.85625,140.28229166666665,46.0,72.0
877,139.85625,140.28541666666666,70.0,55.0
878,140.10625,140.33020833333333,53.0,62.0
879,139.85625,140.38229166666667,74.0,56.0
880,140.35625,140.509375,65.0,51.0
881,140.35625,140.51041666666666,72.0,63.0
882,140.35625,140.67083333333332,58.0,54.0
883,140.60625,140.78854166666667,72.0,70.0
884,140.60625,140.79791666666665,65.0,64.0
885,141.10625,141.234375,65.0,62.0
886,141.10625,141.24479166666666,70.0,76.0
887,140.85625,141.43020833333333,62.0,63.0
888,140.60625,141.46354166666666,60.0,58.0
889,141.60625,141.665625,63.0,46.0
890,141.60625,141.790625,68.0,59.0
891,141.85625,142.2,72.0,63.0
892,141.85625,142.21770833333332,68.0,69.0
893,142.10625,142.375,60.0,66.0
894,141.85625,142.41041666666666,56.0,69.0
895,142.35625,142.55729166666666,63.0,70.0
896,142.85625,143.325,74.0,75.0
897,142.60625,143.35729166666667,70.0,61.0
898,142.85625,143.371875,65.0,60.0
899,142.85625,143.540625,46.0,67.0
900,143.10625,143.55625,53.0,60.0
901,143.60625,143.82395833333334,65.0,57.0
902,143.35625,143.83333333333334,58.0,61.0
903,143.85625,144.06979166666667,75.0,73.0
904,144.10625,144.29166666666666,67.0,56.0
905,143.85625,144.30520833333333,48.0,70.0
906,144.10625,144.36770833333333,55.0,64.0
907,144.35625,144.57291666666666,74.0,80.0
908,144.35625,144.665625,60.0,44.0
909,144.60625,144.91458333333333,67.0,60.0
910,144.60625,144.93125,62.0,66.0
911,144.85625,145.17291666666665,63.0,62.0
912,144.85625,145.196875,77.0,75.0
913,145.10625,145.346875,75.0,70.0
914,145.10625,145.475,62.0,60.0
915,145.35625,145.525,60.0,66.0
916,145.35625,145.57083333333333,74.0,66.0
917,145.60625,145.89166666666665,72.0,59.0
918,145.85625,145.89166666666665,72.0,78.0
919,145.85625,146.22083333333333,63.0,70.0
920,145.85625,146.225,48.0,70.0
921,146.10625,146.309375,55.0,60.0
922,146.35625,146.67291666666665,60.0,66.0
923,146.60625,147.03645833333334,62.0,66.0
924,146.85625,147.15520833333332,75.0,76.0
925,146.85625,147.178125,67.0,69.0
926,147.10625,147.33333333333334,74.0,73.0
927,146.85625,147.3875,63.0,78.0
928,147.35625,147.4625,62.0,63.0
929,147.35625,147.61979166666666,72.0,58.0
930,147.60625,147.80104166666666,74.0,70.0
931,147.85625,148.39583333333334,68.0,76.0
932,147.85625,148.70104166666667,75.0,70.0
933,148.60625,148.92291666666665,67.0,58.0
934,148.85625,148.959375,68.0,78.0
935,148.35625,149.2625,65.0,66.0
936,149.10625,149.33020833333333,72.0,75.0
937,147.85625,149.34791666666666,53.0,66.0
938,148.10625,149.35208333333333,60.0,64.0
939,149.35625,149.534375,80.0,61.0
940,149.60625,149.87708333333333,79.0,72.0
941,149.85625,150.23645833333333,46.0,70.0
942,150.10625,150.3625,53.0,63.0
943,149.85625,150.65729166666665,77.0,72.0
944,150.35625,150.68020833333333,58.0,50.0
945,150.85625,151.21354166666666,62.0,61.0
946,150.60625,151.234375,60.0,57.0
947,151.10625,151.40416666666667,65.0,67.0
948,151.35625,151.646875,68.0,73.0
949,151.60625,151.825,70.0,64.0
950,151.85625,152.403125,72.0,73.0
951,151.85625,152.43333333333334,67.0,69.0
952,152.35625,152.6125,63.0,49.0
953,151.85625,152.75833333333333,51.0,73.0
954,152.60625,152.78020833333332,65.0,67.0
955,152.60625,152.94583333333333,70.0,72.0
956,152.10625,152.98229166666667,58.0,58.0
957,153.10625,153.26979166666666,70.0,78.0
958,153.10625,153.31354166666665,65.0,70.0
959,153.10625,153.45833333333334,50.0,70.0
960,153.35625,153.50104166666665,58.0,70.0
961,153.60625,153.846875,65.0,64.0
962,153.85625,154.24583333333334,68.0,73.0
963,153.85625,154.265625,63.0,67.0
964,153.85625,154.28333333333333,60.0,62.0
965,154.60625,154.79895833333333,60.0,59.0
966,154.35625,154.90625,56.0,60.0
967,154.85625,155.16979166666667,68.0,69.0
968,154.85625,155.175,60.0,61.0
969,154.85625,155.17916666666667,63.0,75.0
970,155.10625,155.43125,56.0,49.0
971,155.35625,155.45729166666666,63.0,46.0
972,155.35625,155.63541666666666,60.0,59.0
973,155.35625,155.67395833333333,68.0,60.0
974,153.85625,155.67708333333334,44.0,72.0
975,155.60625,155.709375,56.0,52.0
976,154.10625,155.79375,51.0,59.0
977,155.85625,156.31666666666666,70.0,72.0
978,155.85625,156.334375,65.0,66.0
979,155.85625,156.35625,62.0,64.0
980,156.60625,156.78020833333332,60.0,58.0
981,156.35625,156.90625,58.0,67.0
982,156.85625,157.21875,63.0,75.0
983,156.85625,157.221875,67.0,76.0
984,157.10625,157.42395833333333,58.0,57.0
985,155.85625,157.42708333333334,46.0,64.0
986,156.10625,157.45,53.0,67.0
987,157.35625,157.58229166666666,65.0,72.0
988,157.85625,158.29791666666665,67.0,64.0
989,157.85625,158.39583333333334,60.0,63.0
990,157.85625,158.43125,63.0,69.0
991,157.85625,158.465625,55.0,69.0
992,158.85625,159.15833333333333,62.0,70.0
993,158.85625,159.18125,65.0,72.0
994,157.85625,159.421875,48.0,62.0
995,159.10625,159.446875,60.0,45.0
996,159.35625,159.515625,62.0,59.0
997,158.60625,159.7,55.0,48.0
998,159.60625,159.725,63.0,76.0
999,159.60625,159.78333333333333,67.0,75.0
1000,160.10625,160.20729166666666,67.0,61.0
1001,160.10625,160.21458333333334,75.0,72.0
1002,159.85625,160.24375,48.0,59.0
1003,160.10625,160.3125,55.0,63.0
1004,160.35625,160.46666666666667,67.0,61.0
1005,160.35625,160.49375,75.0,75.0
1006,160.35625,160.67708333333334,60.0,48.0
1007,160.60625,160.70625,74.0,51.0
1008,160.60625,160.72291666666666,65.0,66.0
1009,160.85625,160.94791666666666,65.0,57.0
1010,160.85625,160.96979166666665,74.0,64.0
1011,160.85625,160.97604166666667,63.0,63.0
1012,160.60625,160.98645833333333,62.0,64.0
1013,161.10625,161.20208333333332,63.0,66.0
1014,161.10625,161.20729166666666,70.0,54.0
1015,161.35625,161.47604166666667,63.0,61.0
1016,161.35625,161.48645833333333,70.0,69.0
1017,161.60625,161.73645833333333,70.0,59.0
1018,161.85625,162.16458333333333,75.0,66.0
1019,162.10625,162.26979166666666,67.0,58.0
1020,162.35625,162.61875,72.0,70.0
1021,162.10625,162.646875,63.0,57.0
1022,162.60625,162.93229166666666,68.0,58.0
1023,162.85625,163.15416666666667,75.0,75.0
1024,162.85625,163.19375,63.0,70.0
1025,161.85625,163.43541666666667,56.0,75.0
1026,163.35625,163.46145833333333,63.0,70.0
1027,163.10625,163.52604166666666,68.0,56.0
1028,163.35625,163.58541666666667,72.0,58.0
1029,163.60625,163.73229166666667,75.0,59.0
1030,163.85625,164.259375,46.0,75.0
1031,163.85625,164.275,77.0,70.0
1032,164.10625,164.3375,53.0,62.0
1033,164.10625,164.40729166666665,65.0,48.0
1034,164.35625,164.59479166666665,70.0,67.0
1035,164.35625,164.653125,58.0,54.0
1036,164.60625,164.95,65.0,57.0
1037,164.60625,164.95208333333332,60.0,54.0
1038,164.85625,165.20208333333332,77.0,72.0
1039,165.10625,165.284375,65.0,51.0
1040,164.85625,165.43645833333332,62.0,62.0
1041,165.35625,165.57604166666667,72.0,66.0
1042,165.35625,165.78125,60.0,50.0
1043,165.60625,165.83854166666666,74.0,57.0
1044,165.85625,166.34583333333333,70.0,72.0
1045,166.10625,166.628125,62.0,64.0
1046,166.35625,166.94479166666667,67.0,62.0
1047,166.60625,166.95833333333334,70.0,70.0
1048,166.85625,167.184375,77.0,72.0
1049,165.85625,167.30208333333334,55.0,69.0
1050,167.10625,167.31875,62.0,60.0
1051,167.10625,167.43541666666667,70.0,55.0
1052,167.35625,167.58229166666666,72.0,63.0
1053,167.60625,167.85625,74.0,63.0
1054,167.85625,168.190625,67.0,70.0
1055,167.85625,168.31145833333332,75.0,72.0
1056,168.35625,168.465625,67.0,63.0
1057,168.35625,168.54375,74.0,70.0
1058,168.35625,168.58958333333334,60.0,64.0
1059,168.60625,168.88541666666666,72.0,67.0
1060,168.60625,168.90729166666665,65.0,73.0
1061,168.85625,169.16041666666666,60.0,56.0
1062,168.10625,169.2375,55.0,58.0
1063,167.85625,169.41041666666666,48.0,69.0
1064,169.35625,169.43020833333333,55.0,47.0
1065,169.10625,169.43333333333334,63.0,76.0
1066,169.10625,169.44791666666666,70.0,82.0
1067,169.35625,169.49583333333334,60.0,78.0
1068,169.60625,169.74583333333334,63.0,38.0
1069,169.85625,170.29375,72.0,72.0
1070,169.85625,170.34479166666665,77.0,73.0
1071,169.85625,170.38229166666667,69.0,69.0
1072,170.10625,170.74270833333333,60.0,59.0
1073,170.35625,170.940625,65.0,66.0
1074,170.60625,170.96041666666667,67.0,69.0
1075,170.85625,171.24895833333332,69.0,93.0
1076,171.10625,171.325,60.0,64.0
1077,169.85625,171.35833333333332,53.0,69.0
1078,171.35625,171.58854166666666,72.0,53.0
1079,171.85625,172.13958333333332,77.0,69.0
1080,171.85625,172.20625,70.0,76.0
1081,172.10625,172.71041666666667,53.0,58.0
1082,172.60625,172.81041666666667,65.0,69.0
1083,172.60625,172.81666666666666,60.0,67.0
1084,172.85625,173.05208333333334,53.0,55.0
1085,172.35625,173.14270833333333,58.0,73.0
1086,173.10625,173.43229166666666,67.0,76.0
1087,171.85625,173.45,46.0,66.0
1088,173.10625,173.453125,63.0,76.0
1089,173.35625,173.46770833333332,53.0,75.0
1090,173.60625,173.74895833333332,65.0,61.0
1091,173.85625,174.34270833333332,63.0,66.0
1092,173.85625,174.37916666666666,68.0,59.0
1093,173.85625,174.3875,72.0,75.0
1094,174.60625,174.803125,63.0,73.0
1095,174.85625,175.15208333333334,68.0,73.0
1096,173.98125,175.3625,56.0,54.0
1097,175.10625,175.36354166666666,72.0,66.0
1098,174.35625,175.4,60.0,69.0
1099,175.35625,175.64895833333333,75.0,75.0
1100,175.60625,175.81458333333333,74.0,91.0
1101,175.85625,176.15625,67.0,69.0
1102,175.85625,176.16145833333334,60.0,78.0
1103,175.85625,176.19583333333333,62.0,93.0
1104,176.35625,176.60416666666666,60.0,82.0
1105,176.60625,176.70625,62.0,73.0
1106,176.85625,177.05520833333333,67.0,97.0
1107,177.10625,177.384375,72.0,64.0
1108,177.35625,177.42604166666666,74.0,80.0
1109,175.85625,177.67708333333334,43.0,82.0
1110,176.10625,177.73645833333333,55.0,80.0
1111,177.60625,177.87708333333333,79.0,58.0
1112,177.85625,177.87708333333333,79.0,66.0
1113,178.10625,178.31875,72.0,59.0
1114,178.35625,178.60625,75.0,78.0
1115,177.85625,178.69166666666666,63.0,70.0
1116,177.85625,178.696875,60.0,64.0
1117,177.85625,178.7,67.0,67.0
1118,177.85625,178.71145833333333,56.0,58.0
1119,178.60625,178.78020833333332,72.0,66.0
1120,178.85625,179.065625,79.0,75.0
1121,179.10625,179.27395833333333,72.0,53.0
1122,178.85625,179.43958333333333,56.0,60.0
1123,178.85625,179.45208333333332,60.0,66.0
1124,178.85625,179.45520833333333,63.0,72.0
1125,178.85625,179.47395833333334,67.0,64.0
1126,179.35625,179.54791666666665,75.0,61.0
1127,179.60625,179.840625,79.0,50.0
1128,179.85625,180.06054095624998,77.0,66.0
1129,180.0801305,180.3590482895833,70.0,58.0
1130,179.85625,180.6454287625,65.0,70.0
1131,179.85625,180.64636159791667,58.0,72.0
1132,179.85625,180.651025775,62.0,66.0
1133,180.52789149999998,180.82826450416667,77.0,66.0
1134,180.751772,180.97751817083332,62.0,69.0
1135,180.751772,180.98498085416665,65.0,70.0
1136,180.751772,181.01669725833332,58.0,70.0
1137,180.9756525,181.14636138125,70.0,58.0
1138,181.199533,181.34039114791665,74.0,60.0
1139,181.42341349999998,181.58012985,77.0,60.0
1140,181.647294,182.13791899999998,62.0,76.0
1141,181.647294,182.15979399999998,74.0,70.0
1142,181.647294,182.35562733333333,65.0,67.0
1143,181.647294,182.3806273333333,70.0,70.0
1144,182.397294,182.71396066666665,62.0,61.0
1145,182.647294,182.969169,65.0,76.0
1146,182.647294,182.994169,70.0,85.0
1147,182.897294,183.172294,62.0,72.0
1148,181.647294,183.22750233333332,55.0,73.0
1149,183.147294,183.3650023333333,72.0,75.0
1150,183.397294,183.62854399999998,74.0,69.0
1151,183.647294,183.79937733333333,48.0,70.0
1152,183.647294,183.80041899999998,63.0,78.0
1153,183.647294,183.80979399999998,67.0,76.0
1154,183.647294,183.81083566666666,60.0,80.0
1155,183.647294,183.81708566666666,72.0,75.0
1156,183.897294,184.3181273333333,60.0,85.0
1157,183.897294,184.44937733333333,67.0,72.0
1158,183.897294,184.46604399999998,72.0,72.0
1159,183.897294,184.4743773333333,63.0,73.0
1160,184.647294,184.88791899999998,63.0,78.0
1161,184.397294,184.94937733333333,55.0,75.0
1162,184.647294,184.98687733333333,70.0,78.0
1163,184.897294,185.187919,60.0,62.0
1164,185.147294,185.25771066666667,63.0,78.0
1165,183.897294,185.281669,48.0,76.0
1166,185.147294,185.287919,72.0,80.0
1167,185.272294,185.350419,55.0,66.0
1168,185.647294,186.04937733333333,56.0,91.0
1169,185.647294,186.22229399999998,68.0,80.0
1170,185.647294,186.28271066666665,63.0,80.0
1171,185.647294,186.33687733333332,72.0,78.0
1172,186.397294,186.712919,56.0,44.0
1173,186.647294,186.95562733333333,63.0,66.0
1174,186.647294,186.969169,72.0,73.0
1175,186.647294,186.98062733333333,68.0,72.0
1176,187.147294,187.1868773333333,68.0,40.0
1177,186.897294,187.32437733333333,56.0,57.0
1178,185.647294,187.3275023333333,44.0,76.0
1179,187.147294,187.37229399999998,63.0,73.0
1180,187.147294,187.47021066666665,72.0,72.0
1181,187.397294,187.5993773333333,70.0,73.0
1182,187.647294,187.891044,74.0,73.0
1183,187.647294,187.8962523333333,70.0,63.0
1184,187.647294,187.9525023333333,58.0,76.0
1185,187.647294,188.0525023333333,65.0,75.0
1186,188.147294,188.494169,58.0,63.0
1187,188.397294,188.900419,77.0,76.0
1188,188.397294,188.90458566666666,70.0,93.0
1189,188.397294,188.928544,65.0,82.0
1190,188.897294,189.10771066666666,58.0,64.0
1191,189.147294,189.22229399999998,65.0,56.0
1192,187.647294,189.22646066666667,53.0,70.0
1193,187.647294,189.234794,46.0,66.0
1194,189.147294,189.26708566666665,72.0,72.0
1195,189.647294,190.0212523333333,67.0,72.0
1196,189.647294,190.04312733333333,63.0,66.0
1197,189.647294,190.05771066666665,72.0,69.0
1198,190.397294,190.57958566666665,62.0,63.0
1199,190.647294,190.90354399999998,63.0,59.0
1200,190.897294,191.00146066666665,65.0,64.0
1201,191.147294,191.36396066666666,67.0,61.0
1202,191.397294,191.60562733333333,75.0,59.0
1203,191.647294,192.0150023333333,74.0,55.0
1204,190.147294,192.28479399999998,60.0,67.0
1205,192.147294,192.53479399999998,72.0,51.0
1206,192.647294,192.80979399999998,67.0,49.0
1207,189.897294,192.812919,55.0,60.0
1208,189.647294,192.83896066666665,48.0,78.0
1209,192.647294,192.94104399999998,60.0,45.0
1210,192.897294,193.06396066666665,72.0,70.0
1211,193.147294,193.3587523333333,74.0,48.0
1212,193.397294,193.52021066666666,75.0,62.0
1213,193.647294,194.11708566666664,75.0,73.0
1214,193.647294,194.250419,67.0,63.0
1215,193.647294,194.96500233333333,60.0,62.0
1216,194.647294,195.116044,75.0,64.0
1217,194.647294,195.12646066666665,72.0,63.0
1218,194.647294,195.1618773333333,67.0,64.0
1219,195.147294,195.31604399999998,60.0,55.0
1220,195.647294,196.05771066666665,65.0,62.0
1221,195.647294,196.12750233333333,72.0,57.0
1222,195.897294,196.19833566666665,75.0,1.0
1223,195.647294,196.23687733333333,68.0,60.0
1224,196.397294,196.71187733333332,67.0,69.0
1225,195.647294,196.83896066666665,60.0,66.0
1226,196.647294,196.91708566666665,68.0,59.0
1227,196.897294,197.06604399999998,72.0,64.0
1228,196.147294,197.084794,65.0,51.0
1229,195.647294,197.24312733333332,53.0,58.0
1230,197.147294,197.2556273333333,75.0,69.0
1231,197.397294,197.584794,79.0,69.0
1232,197.647294,198.00250233333333,46.0,66.0
1233,197.897294,198.14625233333334,53.0,49.0
1234,197.647294,198.35562733333333,77.0,69.0
1235,198.147294,198.453544,58.0,49.0
1236,198.397294,198.875419,60.0,57.0
1237,198.647294,198.88896066666666,62.0,63.0
1238,198.897294,199.05875233333333,65.0,59.0
1239,199.147294,199.38062733333334,70.0,64.0
1240,199.397294,199.55979399999998,75.0,54.0
1241,199.647294,200.11187733333333,70.0,66.0
1242,199.647294,200.19000233333333,75.0,66.0
1243,199.647294,200.22229399999998,67.0,61.0
1244,200.397294,200.74625233333333,67.0,72.0
1245,199.897294,200.92437733333333,58.0,57.0
1246,200.147294,200.953544,63.0,57.0
1247,200.897294,201.04312733333333,74.0,73.0
1248,200.897294,201.069169,67.0,70.0
1249,199.647294,201.19625233333332,51.0,76.0
1250,201.147294,201.2337523333333,58.0,62.0
1251,201.397294,201.60666899999998,70.0,59.0
1252,201.647294,202.09208566666666,72.0,72.0
1253,201.647294,202.178544,68.0,70.0
1254,201.647294,202.19104399999998,63.0,66.0
1255,202.147294,202.719169,56.0,44.0
1256,201.647294,202.95562733333333,44.0,70.0
1257,202.647294,202.962919,63.0,63.0
1258,202.647294,202.97333566666666,68.0,70.0
1259,202.647294,203.02750233333333,72.0,69.0
1260,203.147294,203.24833566666666,43.0,70.0
1261,203.147294,203.25562733333334,63.0,59.0
1262,203.147294,203.27437733333332,55.0,62.0
1263,203.147294,203.28271066666665,70.0,62.0
1264,203.647294,204.23062733333333,65.0,70.0
1265,203.647294,204.241044,70.0,61.0
1266,203.647294,204.2806273333333,62.0,69.0
1267,203.647294,204.68896066666665,58.0,64.0
1268,204.647294,204.92646066666666,70.0,63.0
1269,204.647294,204.94104399999998,65.0,70.0
1270,204.647294,204.96604399999998,62.0,67.0
1271,203.647294,205.18062733333332,46.0,63.0
1272,204.897294,205.234794,58.0,52.0
1273,205.147294,205.234794,63.0,69.0
1274,205.147294,205.27125233333334,68.0,76.0
1275,205.647294,205.93271066666665,72.0,66.0
1276,205.647294,205.9681273333333,63.0,64.0
1277,205.647294,205.969169,68.0,69.0
1278,205.647294,206.23687733333333,56.0,62.0
1279,205.647294,206.25146066666665,44.0,54.0
1280,206.147294,206.40875233333333,63.0,62.0
1281,206.397294,206.569169,70.0,72.0
1282,206.647294,206.85562733333333,58.0,57.0
1283,206.647294,206.97958566666665,74.0,67.0
1284,206.647294,207.01812733333333,70.0,67.0
1285,206.647294,207.02958566666666,65.0,66.0
1286,206.647294,207.15250233333333,46.0,66.0
1287,206.897294,207.25250233333333,58.0,58.0
1288,207.147294,207.4525023333333,65.0,69.0
1289,207.397294,207.62750233333333,70.0,63.0
1290,207.647294,208.01396066666666,67.0,66.0
1291,207.647294,208.07646066666666,75.0,76.0
1292,208.147294,208.266044,67.0,64.0
1293,208.147294,208.36500233333334,74.0,75.0
1294,208.397294,208.73166899999998,72.0,75.0
1295,208.397294,208.75250233333333,67.0,67.0
1296,207.897294,208.94000233333333,55.0,53.0
1297,208.647294,209.07125233333332,60.0,60.0
1298,207.647294,209.1868773333333,48.0,70.0
1299,208.897294,209.197294,72.0,78.0
1300,209.147294,209.28687733333334,55.0,69.0
1301,209.147294,209.45875233333334,74.0,72.0
1302,209.397294,209.522294,75.0,70.0
1303,209.647294,210.11708566666664,75.0,73.0
1304,209.647294,210.250419,67.0,63.0
1305,209.647294,210.96500233333333,60.0,62.0
1306,210.647294,211.116044,75.0,64.0
1307,210.647294,211.12646066666665,72.0,63.0
1308,210.647294,211.16187733333334,67.0,64.0
1309,211.147294,211.31604399999998,60.0,55.0
1310,211.647294,212.05771066666665,65.0,62.0
1311,211.647294,212.12750233333333,72.0,57.0
1312,211.897294,212.19833566666665,75.0,1.0
1313,211.647294,212.23687733333333,68.0,60.0
1314,212.397294,212.71187733333332,67.0,69.0
1315,211.647294,212.83896066666665,60.0,66.0
1316,212.647294,212.91708566666665,68.0,59.0
1317,212.897294,213.06604399999998,72.0,64.0
1318,212.147294,213.084794,65.0,51.0
1319,211.647294,213.24312733333332,53.0,58.0
1320,213.147294,213.25562733333334,75.0,69.0
1321,213.397294,213.584794,79.0,69.0
1322,213.647294,214.00250233333333,46.0,66.0
1323,213.897294,214.14625233333334,53.0,49.0
1324,213.647294,214.35562733333333,77.0,69.0
1325,214.147294,214.453544,58.0,49.0
1326,214.397294,214.875419,60.0,57.0
1327,214.647294,214.88896066666666,62.0,63.0
1328,214.897294,215.05875233333333,65.0,59.0
1329,215.147294,215.38062733333334,70.0,64.0
1330,215.397294,215.55979399999998,75.0,54.0
1331,215.647294,216.11187733333333,70.0,66.0
1332,215.647294,216.19000233333333,75.0,66.0
1333,215.647294,216.22229399999998,67.0,61.0
1334,216.397294,216.74625233333333,67.0,72.0
1335,215.897294,216.92437733333333,58.0,57.0
1336,216.147294,216.953544,63.0,57.0
1337,216.897294,217.04312733333333,74.0,73.0
1338,216.897294,217.069169,67.0,70.0
1339,215.647294,217.19625233333332,51.0,76.0
1340,217.147294,217.2337523333333,58.0,62.0
1341,217.397294,217.60666899999998,70.0,59.0
1342,217.647294,218.09208566666666,72.0,72.0
1343,217.647294,218.178544,68.0,70.0
1344,217.647294,218.19104399999998,63.0,66.0
1345,218.147294,218.719169,56.0,44.0
1346,217.647294,218.95562733333333,44.0,70.0
1347,218.647294,218.962919,63.0,63.0
1348,218.647294,218.97333566666666,68.0,70.0
1349,218.647294,219.02750233333333,72.0,69.0
1350,219.147294,219.24833566666666,43.0,70.0
1351,219.147294,219.25562733333334,63.0,59.0
1352,219.147294,219.27437733333332,55.0,62.0
1353,219.147294,219.28271066666665,70.0,62.0
1354,219.647294,220.23062733333333,65.0,70.0
1355,219.647294,220.241044,70.0,61.0
1356,219.647294,220.2806273333333,62.0,69.0
1357,219.647294,220.68896066666665,58.0,64.0
1358,220.647294,220.92646066666666,70.0,63.0
1359,220.647294,220.94104399999998,65.0,70.0
1360,220.647294,220.96604399999998,62.0,67.0
1361,219.647294,221.18062733333332,46.0,63.0
1362,220.897294,221.234794,58.0,52.0
1363,221.147294,221.234794,63.0,69.0
1364,221.147294,221.27125233333334,68.0,76.0
1365,221.647294,222.18271066666665,67.0,64.0
1366,221.647294,222.18375233333333,63.0,62.0
1367,221.647294,222.23687733333333,72.0,59.0
1368,222.397294,222.65354399999998,62.0,58.0
1369,222.647294,222.734794,63.0,67.0
1370,222.897294,223.07437733333333,67.0,63.0
1371,223.147294,223.369169,72.0,59.0
1372,223.397294,223.69104399999998,74.0,59.0
1373,223.647294,223.72437733333334,75.0,63.0
1374,221.897294,224.98791899999998,55.0,58.0
1375,222.147294,225.00146066666665,60.0,57.0
1376,221.647294,225.109794,48.0,73.0
1377,225.647294,225.88271066666664,44.0,73.0
1378,225.897294,226.21187733333332,56.0,57.0
1379,226.147294,226.56396066666665,58.0,61.0
1380,226.397294,226.64312733333333,60.0,60.0
1381,226.647294,226.91708566666665,63.0,67.0
1382,226.897294,227.15354399999998,68.0,73.0
1383,227.147294,227.37125233333333,72.0,60.0
1384,227.397294,227.687919,75.0,53.0
1385,227.647294,228.109794,46.0,58.0
1386,227.897294,228.14521066666666,53.0,51.0
1387,228.147294,228.46708566666666,58.0,45.0
1388,227.647294,228.59208566666666,70.0,63.0
1389,227.647294,228.60562733333333,74.0,59.0
1390,228.397294,228.72750233333332,60.0,54.0
1391,228.647294,228.744169,62.0,64.0
1392,229.147294,229.3900023333333,70.0,59.0
1393,229.397294,229.609794,74.0,62.0
1394,229.647294,230.05979399999998,48.0,61.0
1395,229.897294,230.12229399999998,55.0,49.0
1396,229.647294,230.24833566666666,67.0,59.0
1397,229.647294,230.37958566666666,75.0,70.0
1398,230.147294,230.47021066666665,60.0,43.0
1399,230.397294,230.84937733333334,74.0,63.0
1400,230.397294,230.85146066666664,67.0,52.0
1401,231.147294,231.40146066666665,70.0,59.0
1402,231.397294,231.750419,67.0,44.0
1403,231.647294,231.78583566666666,74.0,60.0
1404,232.647294,232.74000233333334,72.0,66.0
1405,230.897294,232.881669,63.0,54.0
1406,230.397294,232.90979399999998,62.0,51.0
1407,233.647294,234.30041899999998,68.0,62.0
1408,233.647294,234.41083566666666,72.0,56.0
1409,234.647294,235.07021066666664,63.0,58.0
1410,234.647294,235.11083566666665,68.0,64.0
1411,233.647294,235.14833566666664,56.0,58.0
1412,235.147294,235.61396066666666,75.0,54.0
1413,235.647294,236.06083566666666,65.0,47.0
1414,235.647294,236.09104399999998,70.0,48.0
1415,235.647294,236.116044,74.0,63.0
1416,235.647294,236.99000233333334,46.0,61.0
1417,236.147294,237.00250233333333,53.0,37.0
1418,236.647294,237.100419,70.0,57.0
1419,236.647294,237.11187733333333,65.0,54.0
1420,236.647294,237.15771066666665,58.0,54.0
1421,236.647294,237.17646066666666,74.0,57.0
1422,237.647294,238.15458566666666,74.0,60.0
1423,237.647294,238.18062733333332,65.0,58.0
1424,237.647294,238.18479399999998,70.0,62.0
1425,237.647294,238.75146066666665,62.0,64.0
1426,238.647294,239.11187733333333,67.0,55.0
1427,238.647294,239.14521066666666,70.0,54.0
1428,239.147294,239.225419,62.0,53.0
1429,238.647294,239.23271066666666,74.0,55.0
1430,239.147294,239.36500233333334,70.0,49.0
1431,239.397294,239.741044,72.0,51.0
1432,239.647294,240.13583566666665,75.0,63.0
1433,239.647294,240.187919,67.0,56.0
1434,240.147294,240.65875233333333,55.0,35.0
1435,240.647294,240.937919,67.0,59.0
1436,240.647294,241.02646066666665,60.0,44.0
1437,240.647294,241.09833566666666,74.0,69.0
1438,239.647294,241.147294,48.0,61.0
1439,241.147294,241.43583566666666,75.0,39.0
1440,241.647294,242.203544,68.0,66.0
1441,241.647294,242.24729399999998,72.0,59.0
1442,241.647294,242.26916899999998,75.0,40.0
1443,241.647294,242.27750233333333,63.0,62.0
1444,241.647294,242.881669,56.0,55.0
1445,242.647294,243.12646066666665,68.0,64.0
1446,242.647294,243.1400023333333,63.0,59.0
1447,242.647294,243.15458566666666,72.0,57.0
1448,242.647294,243.25354399999998,75.0,51.0
1449,243.147294,243.29312733333333,56.0,48.0
1450,243.647294,244.23583566666665,77.0,59.0
1451,243.647294,244.24000233333334,65.0,58.0
1452,243.647294,244.25562733333334,70.0,61.0
1453,243.647294,244.31812733333334,74.0,59.0
1454,243.647294,244.91187733333334,46.0,64.0
1455,243.647294,244.95458566666665,58.0,57.0
1456,244.647294,245.05250233333334,74.0,58.0
1457,244.647294,245.06396066666665,70.0,61.0
1458,244.647294,245.07333566666665,65.0,61.0
1459,245.647294,246.10771066666666,74.0,56.0
1460,245.647294,246.134794,70.0,61.0
1461,245.647294,246.24208566666664,67.0,63.0
1462,245.647294,246.78479399999998,62.0,64.0
1463,246.647294,247.0618773333333,70.0,66.0
1464,246.647294,247.06708566666666,74.0,61.0
1465,246.647294,247.17541899999998,67.0,60.0
1466,245.647294,247.22229399999998,55.0,56.0
1467,247.147294,247.24729399999998,62.0,56.0
1468,247.647294,248.0306273333333,67.0,62.0
1469,247.647294,248.06396066666667,75.0,66.0
1470,247.647294,248.36083566666667,48.0,66.0
1471,248.147294,248.384794,74.0,50.0
1472,248.147294,248.444169,55.0,46.0
1473,248.397294,248.73896066666666,60.0,51.0
1474,248.397294,248.75250233333333,67.0,61.0
1475,248.397294,248.77333566666664,75.0,73.0
1476,248.647294,249.0306273333333,62.0,43.0
1477,248.897294,249.05562733333332,63.0,61.0
1478,249.147294,249.359794,67.0,57.0
1479,249.397294,249.58166899999998,75.0,50.0
1480,249.647294,250.20146066666666,72.0,59.0
1481,249.647294,250.2025023333333,65.0,55.0
1482,249.647294,250.2775023333333,68.0,63.0
1483,249.647294,250.8087523333333,60.0,67.0
1484,250.647294,251.03375233333333,68.0,62.0
1485,250.647294,251.04416899999998,72.0,62.0
1486,250.647294,251.062919,65.0,63.0
1487,249.647294,251.1993773333333,53.0,60.0
1488,251.147294,251.225419,60.0,57.0
1489,250.897294,251.30771066666665,75.0,64.0
1490,251.147294,251.30771066666665,75.0,64.0
1491,251.397294,251.69312733333334,72.0,67.0
1492,251.647294,252.09208566666666,65.0,59.0
1493,251.647294,252.100419,74.0,61.0
1494,251.647294,252.100419,74.0,82.0
1495,251.647294,252.109794,70.0,55.0
1496,251.647294,252.6868773333333,46.0,72.0
1497,252.147294,252.73687733333333,53.0,47.0
1498,252.647294,253.07958566666667,70.0,60.0
1499,252.647294,253.10458566666665,58.0,50.0
1500,252.647294,253.11812733333332,74.0,64.0
1501,252.647294,253.17021066666666,65.0,61.0
1502,253.647294,254.03687733333334,74.0,63.0
1503,253.647294,254.11083566666667,70.0,64.0
1504,253.647294,254.21187733333332,67.0,61.0
1505,254.397294,254.7306273333333,67.0,63.0
1506,254.647294,254.96083566666664,70.0,70.0
1507,254.147294,255.009794,62.0,56.0
1508,253.647294,255.053544,55.0,67.0
1509,254.897294,255.069169,72.0,64.0
1510,255.147294,255.34208566666666,74.0,58.0
1511,255.647294,255.99833566666666,67.0,63.0
1512,255.647294,256.06291899999997,48.0,70.0
1513,255.897294,256.0795856666667,55.0,58.0
1514,256.147294,256.3681273333333,74.0,46.0
1515,256.147294,256.45354399999997,60.0,44.0
1516,256.397294,256.80771066666665,72.0,69.0
1517,256.397294,257.069169,62.0,66.0
1518,256.897294,257.0712523333333,63.0,67.0
1519,257.897294,258.334794,60.0,63.0
1520,258.147294,258.39625233333334,65.0,51.0
1521,258.397294,258.72437733333334,65.0,73.0
1522,258.647294,258.9264606666667,68.0,55.0
1523,257.647294,259.13583566666665,53.0,70.0
1524,258.897294,259.15458566666666,60.0,69.0
1525,258.897294,259.15666899999997,72.0,58.0
1526,259.147294,259.4306273333333,75.0,69.0
1527,259.397294,259.5670856666667,74.0,45.0
1528,259.647294,259.9087523333333,65.0,66.0
1529,259.647294,259.997294,70.0,67.0
1530,259.647294,260.0743773333333,74.0,70.0
1531,259.647294,260.07854399999997,46.0,67.0
1532,259.897294,260.09208566666666,53.0,58.0
1533,260.147294,260.29729399999997,65.0,47.0
1534,260.147294,260.38896066666666,72.0,66.0
1535,260.147294,260.4420856666667,58.0,47.0
1536,260.397294,260.64104399999997,65.0,60.0
1537,260.397294,260.769169,74.0,69.0
1538,260.647294,260.7837523333333,62.0,76.0
1539,260.397294,260.81291899999997,60.0,59.0
1540,260.897294,261.053544,65.0,56.0
1541,261.147294,261.369169,70.0,69.0
1542,261.397294,261.772294,75.0,72.0
1543,261.647294,261.978544,63.0,63.0
1544,261.647294,262.02646066666665,68.0,62.0
1545,261.647294,262.03166899999997,44.0,67.0
1546,261.897294,262.08896066666665,51.0,69.0
1547,261.647294,262.1295856666667,72.0,64.0
1548,262.147294,262.275419,63.0,48.0
1549,262.147294,262.353544,70.0,51.0
1550,262.147294,262.447294,56.0,47.0
1551,262.397294,262.71396066666665,63.0,64.0
1552,262.397294,262.903544,72.0,69.0
1553,262.397294,263.0045856666667,58.0,66.0
1554,262.897294,263.0118773333333,60.0,70.0
1555,263.147294,263.337919,63.0,60.0
1556,263.397294,263.60771066666666,75.0,61.0
1557,263.647294,263.97646066666664,65.0,61.0
1558,263.647294,264.07333566666665,74.0,69.0
1559,264.147294,264.4077106666667,65.0,58.0
1560,264.147294,264.459794,72.0,55.0
1561,264.647294,264.8087523333333,65.0,49.0
1562,264.647294,265.019169,58.0,48.0
1563,264.147294,265.02958566666666,53.0,50.0
1564,263.647294,265.0431273333333,46.0,69.0
1565,264.647294,265.20146066666666,70.0,62.0
1566,265.647294,266.0275023333333,72.0,76.0
1567,265.647294,266.30771066666665,44.0,72.0
1568,266.022294,266.325419,74.0,69.0
1569,266.022294,266.3431273333333,51.0,64.0
1570,266.397294,266.5650023333333,75.0,60.0
1571,266.397294,266.7306273333333,56.0,46.0
1572,266.647294,266.919169,79.0,69.0
1573,266.647294,266.972294,58.0,50.0
1574,267.022294,267.3368773333333,77.0,73.0
1575,267.397294,267.64625233333334,75.0,63.0
1576,267.647294,267.9681273333333,74.0,62.0
1577,268.022294,268.46083566666664,70.0,59.0
1578,268.397294,268.628544,74.0,66.0
1579,268.647294,269.0931273333333,77.0,56.0
1580,267.647294,269.10979399999997,58.0,48.0
1581,267.647294,269.17750233333334,65.0,62.0
1582,267.647294,269.191044,62.0,63.0
1583,269.647294,270.68791899999997,67.0,58.0
1584,269.647294,270.7275023333333,63.0,61.0
1585,269.647294,270.7368773333333,72.0,70.0
1586,269.647294,270.753544,60.0,58.0
1587,269.647294,270.762919,56.0,49.0
1588,271.397294,271.6889606666667,65.0,45.0
1589,271.522294,271.7900023333333,70.0,51.0
1590,271.647294,272.134794,74.0,57.0
1591,272.147294,272.54521066666666,77.0,52.0
1592,271.647294,273.2181273333333,46.0,55.0
1593,271.647294,273.26396066666666,58.0,44.0
1594,273.397294,273.64625233333334,74.0,53.0
1595,273.647294,274.059794,72.0,49.0
1596,273.647294,274.0868773333333,67.0,44.0
1597,274.647294,275.137919,62.0,52.0
1598,275.147294,275.8431273333333,63.0,50.0
1599,274.147294,275.9545856666667,55.0,37.0
1600,275.647294,275.966044,72.0,52.0
1601,274.647294,275.9702106666667,60.0,36.0
1602,273.647294,276.012919,48.0,50.0
