,start,end,pitch,velocity
0,1.217855925,1.7410696875000002,82.0,93.0
1,1.7517839625000002,2.2767834375000002,80.0,78.0
2,2.2803548625000003,2.789282925,78.0,56.0
3,2.8035686250000005,3.2999967000000003,82.0,83.0
4,1.2607130250000003,3.5732107125000003,59.0,68.0
5,3.2964252750000003,4.194638662500001,80.0,81.0
6,4.089281625000001,4.8910665375,85.0,63.0
7,4.524995475000001,4.974995025000001,83.0,75.0
8,4.967852175000001,5.44999455,82.0,83.0
9,3.5178536250000003,5.724994275000001,58.0,63.0
10,5.494637362500001,5.996422575,83.0,79.0
11,5.964279750000001,6.4946363625000005,87.0,71.0
12,6.4821363750000005,7.094635762500001,94.0,76.0
13,6.817850325000001,7.303564125000001,63.0,77.0
14,7.262492737500001,7.810706475000001,61.0,68.0
15,7.055350087500001,8.278563150000002,92.0,81.0
16,5.537494462500001,10.287489712500001,56.0,70.0
17,7.794635062500001,10.287489712500001,59.0,66.0
18,7.941063487500001,10.582132275000001,82.0,72.0
19,10.458918112500001,13.260701025000001,49.0,41.0
20,10.437489562500001,13.260701025000001,59.0,57.0
21,10.576775137500002,13.260701025000001,71.0,53.0
22,14.064271650000002,14.969627887500002,70.0,89.0
23,14.949985050000002,15.744627112500002,73.0,90.0
24,15.780341362500002,17.285697000000003,70.0,63.0
25,17.114268600000003,17.3874826125,68.0,69.0
26,17.516053912500002,18.103553325000004,66.0,75.0
27,18.342838800000003,19.153552275000003,75.0,93.0
28,19.178552250000003,20.716050712500003,70.0,83.0
29,20.953550475000004,21.37855005,66.0,92.0
30,21.373192912500002,21.792835350000004,59.0,75.0
31,21.767835375000004,22.319620537500004,63.0,73.0
32,22.196406375000002,22.337477662500003,66.0,70.0
33,22.635691650000002,23.832119025000004,68.0,88.0
34,24.37854705,25.260689025000005,66.0,76.0
35,25.219617637500004,26.130331012500005,68.0,72.0
36,26.074973925000002,27.764257950000005,66.0,58.0
37,53.97494602500001,54.416017012500006,82.0,79.0
38,54.403517025000006,54.882087975000005,83.0,73.0
39,54.832088025000004,55.65351577500001,85.0,100.0
40,55.26065902500001,57.832085025000005,70.0,96.0
41,57.832085025000005,58.78386978750001,68.0,77.0
42,58.68922702500001,60.71779642500001,66.0,71.0
43,61.26065302500001,62.18922352500001,65.0,73.0
44,62.11779502500001,63.84279330000001,63.0,78.0
45,63.832079025000006,65.42314886250001,65.0,67.0
46,65.546363025,66.44100498750001,66.0,88.0
47,65.546363025,66.79993320000001,61.0,77.0
48,66.40350502500002,67.29100413750001,68.0,79.0
49,67.26064702500001,68.11778902500001,70.0,102.0
50,68.11778902500001,68.989216725,65.0,85.0
51,68.974931025,70.54457231250001,63.0,85.0
52,70.68921502500001,72.1481421375,65.0,79.0
53,72.40349902500002,74.1838543875,61.0,63.0
54,74.11778302500001,75.3552817875,63.0,77.0
55,75.83206702500001,77.52313676250002,63.0,85.0
56,77.546351025,79.30170641250001,60.0,93.0
57,79.26063502500001,80.96599046250002,63.0,86.0
58,80.974919025,82.52491747500001,65.0,77.0
59,88.68919702500001,89.06955378750001,70.0,85.0
60,89.11776802500002,89.5874104125,68.0,72.0
61,89.54633902500001,91.17312311250001,66.0,76.0
62,91.26062302500002,92.74097868750002,65.0,88.0
63,92.97490702500001,94.57311971250002,63.0,93.0
64,94.68919102500001,96.44454641250002,65.0,97.0
65,110.11774702500001,110.61596081250002,70.0,89.0
66,110.54631802500002,111.04988895000001,73.0,93.0
67,110.97488902500001,111.56595986250001,77.0,92.0
68,111.61774552500002,111.91060237500001,78.0,78.0
69,111.83203102500002,113.54631502500001,80.0,89.0
70,113.54631502500001,114.40345702500001,78.0,112.0
71,114.40345702500001,115.05881351250001,78.0,96.0
72,115.04631352500002,115.31595611250002,73.0,93.0
73,115.26059902500002,116.63202622500002,70.0,88.0
74,116.97488302500001,118.55523858750001,75.0,96.0
75,118.68916702500002,120.32309396250001,73.0,100.0
76,120.40345102500001,120.88202197500001,68.0,93.0
77,120.83202202500001,121.30702155000002,71.0,83.0
78,121.26059302500002,121.75166396250002,75.0,95.0
79,121.68916402500001,122.13737786250002,78.0,100.0
80,122.11773502500002,123.79987620000001,82.0,99.0
81,123.83201902500002,125.95344547500001,78.0,97.0
82,132.83201002500002,133.253438175,66.0,95.0
83,132.83201002500002,133.2695095875,82.0,95.0
84,132.83201002500002,133.27665243750002,54.0,72.0
85,133.26058102500002,133.67665203750002,56.0,82.0
86,133.26058102500002,133.68736631250002,68.0,96.0
87,133.26058102500002,133.746294825,83.0,95.0
88,133.68915202500003,134.10700875,85.0,102.0
89,133.68915202500003,134.11058017500002,66.0,92.0
90,133.68915202500003,134.18379438750003,54.0,68.0
91,134.117723025,135.01950783750002,51.0,79.0
92,134.117723025,135.21950763750002,75.0,93.0
93,134.117723025,135.55879301250002,90.0,122.0
94,134.974865025,135.67129290000003,73.0,86.0
95,134.974865025,135.9016498125,54.0,82.0
96,134.974865025,136.5570063,89.0,127.0
97,135.83200702500002,136.689149025,61.0,79.0
98,135.83200702500002,136.7998632,75.0,96.0
99,136.689149025,137.1052200375,87.0,102.0
100,137.117720025,137.46950538750002,89.0,95.0
101,136.689149025,137.54986245,58.0,85.0
102,137.54629102500002,138.87843255,90.0,102.0
103,137.54629102500002,139.14093228750002,63.0,83.0
104,138.40343302500003,139.20164651250002,59.0,73.0
105,138.40343302500003,139.72843170000002,92.0,99.0
106,139.260575025,140.5159309125,90.0,107.0
107,139.260575025,140.85164486250002,49.0,68.0
108,139.260575025,140.92128765,59.0,72.0
109,140.54628802500002,141.06414465000003,87.0,86.0
110,140.97485902500003,142.674857325,92.0,97.0
111,140.97485902500003,142.69985730000002,49.0,83.0
112,140.97485902500003,142.70521443750002,59.0,85.0
113,148.26056602500003,148.6998513,82.0,93.0
114,148.689137025,149.18199367500003,83.0,92.0
115,149.117708025,150.2337783375,85.0,107.0
116,153.403418025,153.84984615000002,73.0,76.0
117,153.831989025,154.31770282500003,78.0,57.0
118,154.26056002500002,154.674845325,80.0,59.0
119,154.68913102500002,156.54448631250003,82.0,67.0
120,161.11769602500001,161.489124225,95.0,92.0
121,161.54626702500002,163.27483672500003,97.0,90.0
122,167.11769002500003,167.46590396250002,75.0,82.0
123,167.54626102500004,167.96233203750003,75.0,69.0
124,167.974832025,168.42661728750002,78.0,99.0
125,168.40340302500002,169.98197287500003,77.0,82.0
126,181.68910402500003,182.07660363750003,90.0,107.0
127,182.117675025,182.54624602500002,89.0,95.0
128,182.54624602500002,183.04981695000004,87.0,99.0
129,183.40338802500003,183.75517338750004,83.0,102.0
130,182.97481702500002,183.81231618750002,85.0,100.0
131,183.83195902500003,184.27481572500002,82.0,117.0
132,184.26053002500004,184.64088678750002,80.0,97.0
133,184.689101025,185.03552925000002,78.0,99.0
134,185.11767202500002,185.56231443750002,77.0,88.0
135,185.54624302500002,187.0265986875,78.0,102.0
136,212.97478702500004,213.41407230000002,78.0,77.0
137,213.40335802500002,213.824786175,82.0,100.0
138,213.83192902500002,214.70335672500002,80.0,90.0
139,214.68907102500003,216.23906947500004,82.0,99.0
140,243.83189902500004,244.64796963750004,70.0,90.0
141,244.68904102500002,245.56046872500002,73.0,99.0
142,246.83189602500002,247.04975295000003,68.0,88.0
143,245.54618302500003,247.11225288750003,70.0,96.0
144,247.04618152500004,247.11225288750003,70.0,70.0
145,247.26046702500003,248.05689480000004,66.0,86.0
146,248.11760902500004,248.99439386250003,75.0,90.0
147,248.97475102500005,250.53724946250003,70.0,74.0
148,250.68903502500004,251.14974885000004,66.0,73.0
149,251.11760602500004,251.44617712500002,59.0,82.0
150,251.54617702500002,252.11760502500005,63.0,73.0
151,251.97474802500003,252.23367633750004,66.0,59.0
152,252.83189002500004,253.27653243750004,59.0,79.0
153,252.40331902500003,253.40153231250002,68.0,65.0
154,253.26046102500004,254.17117440000004,66.0,65.0
155,254.09974590000004,254.71045957500004,54.0,66.0
156,254.67653103750004,255.43903027500002,58.0,62.0
157,255.28903042500002,256.2301009125,68.0,66.0
158,255.91938693750004,257.08367148750006,61.0,63.0
159,256.8229574625,259.31581211250005,70.0,75.0
