,start,end,pitch,velocity
0,26.546402025000003,26.930330212500003,61.0,99.0
1,26.974973025000004,27.396401175000005,66.0,96.0
2,27.403544025000002,27.878543550000003,68.0,92.0
3,27.832115025000004,28.557114300000002,70.0,112.0
4,28.689257025000003,29.044613812500003,73.0,102.0
5,29.546399025000003,29.998184287500003,71.0,95.0
6,29.974970025000005,30.244612612500003,70.0,90.0
7,30.189255525000004,30.962469037500004,68.0,92.0
8,30.832112025000004,31.619611237500003,70.0,96.0
9,31.689254025000004,31.932110925000003,70.0,92.0
10,31.903539525000003,32.174967825,71.0,69.0
11,32.117825025,32.4981817875,70.0,92.0
12,32.54639602500001,33.153538275,66.0,66.0
13,33.403538025,33.755323387500006,66.0,107.0
14,33.832109025,34.1874658125,70.0,99.0
15,34.260680025000006,34.69817958750001,73.0,99.0
16,34.689251025000004,35.55175016250001,78.0,99.0
17,35.54639302500001,35.86424985000001,80.0,99.0
18,36.403535025000004,36.871391700000004,77.0,107.0
19,36.832106025,37.09282005000001,75.0,93.0
20,37.046391525000004,37.57853385000001,73.0,90.0
21,37.689248025000005,38.17139040000001,68.0,93.0
22,38.117819025,39.81781732500001,70.0,96.0
23,40.26067402500001,40.632102225000004,66.0,92.0
24,40.689245025000005,41.02138755000001,70.0,102.0
25,41.117816025,41.430315712500004,73.0,96.0
26,41.54638702500001,42.239243475,78.0,102.0
27,42.403529025000005,42.803528625000006,80.0,122.0
28,43.26067102500001,43.65352777500001,77.0,112.0
29,43.689242025000006,43.90352752500001,75.0,93.0
30,43.90352752500001,44.467812675000005,73.0,82.0
31,44.332098525000006,44.91959793750001,75.0,88.0
32,44.97495502500001,45.21245478750001,78.0,117.0
33,45.403526025000005,45.498168787500006,78.0,95.0
34,45.61781152500001,45.98031116250001,78.0,112.0
35,46.046382525000006,46.65888191250001,73.0,96.0
36,46.474953525000004,47.25709560000001,70.0,78.0
37,47.54638102500001,47.78745221250001,70.0,117.0
38,47.760666525000005,48.07673763750001,71.0,90.0
39,48.189237525,48.31780882500001,73.0,97.0
40,48.389237325,48.81245118750001,70.0,93.0
41,48.832094025,50.374949625000006,68.0,89.0
42,50.97494902500001,51.271377300000005,70.0,100.0
43,51.189234525,51.532091325,71.0,85.0
44,51.61780552500001,51.776733937500005,73.0,96.0
45,51.85530528750001,52.312447687500004,70.0,83.0
46,52.26066202500001,53.966017462500005,68.0,86.0
47,53.97494602500001,54.358874212500005,61.0,99.0
48,54.403517025000006,54.82494517500001,66.0,96.0
49,54.832088025000004,55.307087550000006,68.0,92.0
50,55.26065902500001,55.985658300000004,70.0,112.0
51,56.117801025000006,56.473157812500006,73.0,102.0
52,56.97494302500001,57.426728287500005,71.0,95.0
53,57.40351402500001,57.67315661250001,70.0,90.0
54,57.61779952500001,58.39101303750001,68.0,92.0
55,58.26065602500001,59.048155237500005,70.0,96.0
56,59.117798025000006,59.360654925000006,70.0,92.0
57,59.33208352500001,59.603511825000005,71.0,69.0
58,59.54636902500001,59.92672578750001,70.0,92.0
59,59.97494002500001,60.582082275000005,66.0,66.0
60,60.832082025000005,61.18386738750001,66.0,107.0
61,61.26065302500001,61.61600981250001,70.0,99.0
62,61.68922402500001,62.12672358750001,73.0,99.0
63,62.11779502500001,62.98029416250001,78.0,99.0
64,62.97493702500001,63.29279385000001,80.0,99.0
65,63.832079025000006,64.2999357,77.0,107.0
66,64.260650025,64.52136405,75.0,93.0
67,64.474935525,65.00707785,73.0,90.0
68,65.11779202500001,65.59993440000001,68.0,93.0
69,65.546363025,67.24636132500001,70.0,96.0
70,67.689218025,68.06064622500001,66.0,92.0
71,68.11778902500001,68.44993155,70.0,102.0
72,68.54636002500001,68.8588597125,73.0,96.0
73,68.974931025,69.66778747500001,78.0,102.0
74,69.83207302500001,70.23207262500001,80.0,122.0
75,70.68921502500001,71.082071775,77.0,112.0
76,71.11778602500002,71.332071525,75.0,93.0
77,71.332071525,71.896356675,73.0,82.0
78,71.76064252500001,72.3481419375,75.0,88.0
79,72.40349902500002,72.64099878750001,78.0,117.0
80,72.83207002500001,72.92671278750001,78.0,95.0
81,73.04635552500001,73.4088551625,78.0,112.0
82,73.47492652500001,74.08742591250001,73.0,96.0
83,73.903497525,74.68563960000002,70.0,78.0
84,74.974925025,75.21599621250002,70.0,117.0
85,75.18921052500001,75.5052816375,71.0,90.0
86,75.61778152500001,75.74635282500002,73.0,97.0
87,75.83206702500001,76.2552808875,70.0,93.0
88,76.260638025,77.80349362500002,68.0,89.0
89,78.40349302500002,78.69992130000001,70.0,100.0
90,78.617778525,78.96063532500001,71.0,85.0
91,79.04634952500001,79.20527793750001,73.0,96.0
92,79.26063502500001,79.71777742500001,70.0,83.0
93,79.689206025,80.974919025,68.0,86.0
94,81.40349002500001,81.74991825000001,73.0,112.0
95,81.83206102500002,82.08741791250002,75.0,99.0
96,82.260632025,82.59277455000002,77.0,96.0
97,82.68920302500001,83.08027406250001,78.0,127.0
98,83.11777402500002,83.34813093750002,80.0,122.0
99,83.332059525,83.90884466250002,82.0,127.0
100,83.76063052500001,84.27134430000001,78.0,127.0
101,84.403487025,84.68920102500002,77.0,127.0
102,84.83205802500001,84.99991500000002,75.0,112.0
103,85.04634352500001,85.34098608750001,77.0,107.0
104,85.47491452500002,86.02491397500002,73.0,127.0
105,86.11777102500001,86.4999135,75.0,117.0
106,86.54634202500002,86.76241323750001,73.0,100.0
107,86.76062752500002,87.06598436250002,75.0,107.0
108,87.18919852500001,87.47312681250001,66.0,99.0
109,87.61776952500001,88.22312606250001,73.0,96.0
110,88.68919702500001,88.97312531250002,73.0,127.0
111,88.97491102500001,89.1766965375,75.0,112.0
112,89.26062502500001,89.42669628750001,77.0,92.0
113,89.54633902500001,89.79991020000001,78.0,122.0
114,89.97491002500001,90.0981241875,80.0,122.0
115,90.18919552500002,90.84098058750001,82.0,112.0
116,90.83205202500001,90.97133760000001,85.0,127.0
117,91.26062302500002,92.25526488750002,85.0,122.0
118,92.11776502500001,92.74455011250001,80.0,127.0
119,92.97490702500001,93.2552638875,75.0,122.0
120,93.40347802500001,93.59454926250001,77.0,86.0
121,93.61776352500002,94.06062022500001,78.0,122.0
122,94.046334525,94.40883416250001,80.0,122.0
123,94.68919102500001,95.41954743750001,80.0,127.0
124,95.54633302500001,95.8981183875,82.0,127.0
125,95.97490402500001,96.31418940000002,80.0,122.0
126,96.403475025,96.99811728750001,78.0,127.0
127,97.26061702500002,97.73918797500001,85.0,117.0
128,98.11775902500001,98.30525883750002,83.0,127.0
129,98.54633002500002,98.72490127500001,82.0,127.0
130,98.76061552500002,99.01597241250002,80.0,122.0
131,99.18918652500001,99.64454321250001,78.0,127.0
132,99.83204302500002,100.48561380000001,78.0,127.0
133,100.68918502500001,101.03025611250001,85.0,122.0
134,101.54632702500001,101.97132660000001,83.0,122.0
135,101.97489802500002,102.22311206250001,82.0,122.0
136,102.18918352500002,102.56596886250001,80.0,127.0
137,102.83204002500001,103.16239683750001,82.0,127.0
138,103.26061102500002,103.50703935000001,80.0,127.0
139,103.68918202500001,103.79096763750002,78.0,112.0
140,103.90346752500001,104.26596716250002,78.0,127.0
141,104.54632402500002,104.760609525,80.0,127.0
142,104.760609525,104.94096648750002,82.0,102.0
143,104.97489502500001,105.24453761250001,80.0,122.0
144,105.40346602500001,105.49632307500002,78.0,122.0
145,105.61775152500002,105.97310831250002,78.0,117.0
146,106.47489352500001,106.60703625000001,73.0,112.0
147,106.68917902500002,107.06417865000002,75.0,117.0
148,107.11775002500002,107.24274990000002,78.0,67.0
149,107.33203552500001,107.63917807500002,78.0,127.0
150,107.76060652500001,108.38024876250002,82.0,117.0
151,108.40346302500001,108.84989115000002,80.0,127.0
152,109.26060502500002,109.58917612500001,82.0,127.0
153,109.68917602500001,109.93917577500001,80.0,122.0
154,110.11774702500001,110.71596071250002,78.0,127.0
155,110.97488902500001,111.36596006250001,85.0,127.0
156,111.83203102500002,112.11060217500001,83.0,127.0
157,112.26060202500001,112.39631617500001,82.0,112.0
158,112.47488752500001,112.71774442500002,80.0,127.0
159,112.90345852500002,113.35881521250002,78.0,127.0
160,113.54631502500001,114.12845730000001,78.0,127.0
161,114.40345702500001,114.83381373750001,85.0,127.0
162,115.26059902500002,115.55881301250001,83.0,127.0
163,115.68917002500001,115.88381268750001,82.0,122.0
164,115.90345552500001,116.33916937500001,80.0,122.0
165,116.54631202500002,116.76774037500002,82.0,127.0
166,116.97488302500001,117.24631132500002,80.0,127.0
167,117.40345402500002,117.49631107500001,78.0,102.0
168,117.61773952500002,118.02666768750001,78.0,122.0
169,118.26059602500001,118.45881011250002,80.0,127.0
170,118.47488152500001,118.67130990000001,82.0,99.0
171,118.68916702500002,118.92666678750001,80.0,122.0
172,119.11773802500002,119.21595221250001,78.0,117.0
173,119.33202352500001,119.70166601250001,78.0,127.0
174,119.97488002500002,120.18023696250002,80.0,127.0
175,120.18916552500002,120.38916532500002,82.0,97.0
176,120.40345102500001,120.56416515000002,80.0,122.0
177,120.83202202500001,121.98559230000002,80.0,127.0
178,122.54630602500002,122.76237723750002,82.0,117.0
179,122.97487702500001,123.34273380000002,80.0,127.0
180,123.61773352500002,123.72487627500001,78.0,100.0
181,123.83201902500002,126.19451666250002,78.0,127.0
182,141.403430025,141.7873582125,61.0,99.0
183,141.832001025,142.253429175,66.0,96.0
184,142.26057202500002,142.73557155000003,68.0,92.0
185,142.68914302500002,143.4141423,70.0,112.0
186,143.54628502500003,143.90164181250003,73.0,102.0
187,144.403427025,144.85521228750002,71.0,95.0
188,144.83199802500002,145.1016406125,70.0,90.0
189,145.046283525,145.8194970375,68.0,92.0
190,145.68914002500003,146.47663923750002,70.0,96.0
191,146.546282025,146.78913892500003,70.0,92.0
192,146.76056752500003,147.03199582500002,71.0,69.0
193,146.97485302500002,147.35520978750003,70.0,92.0
194,147.40342402500002,148.01056627500003,66.0,66.0
195,148.26056602500003,148.6123513875,66.0,107.0
196,148.689137025,149.0444938125,70.0,99.0
197,149.117708025,149.5552075875,73.0,99.0
198,149.54627902500002,150.40877816250003,78.0,99.0
199,150.40342102500003,150.72127785,80.0,99.0
200,151.260563025,151.72841970000002,77.0,107.0
201,151.68913402500002,151.94984805,75.0,93.0
202,151.90341952500003,152.43556185000003,73.0,90.0
203,152.54627602500003,153.02841840000002,68.0,93.0
204,152.97484702500003,154.674845325,70.0,96.0
205,155.11770202500003,155.48913022500003,66.0,92.0
206,155.54627302500003,155.87841555000003,70.0,102.0
207,155.974844025,156.28734371250002,73.0,96.0
208,156.40341502500002,157.096271475,78.0,102.0
209,157.26055702500003,157.66055662500003,80.0,122.0
210,158.117699025,158.51055577500003,77.0,112.0
211,158.546270025,158.76055552500003,75.0,93.0
212,158.76055552500003,159.32484067500002,73.0,82.0
213,159.18912652500003,159.77662593750003,75.0,88.0
214,159.83198302500003,160.06948278750002,78.0,117.0
215,160.26055402500003,160.35519678750003,78.0,95.0
216,160.47483952500002,160.83733916250003,78.0,112.0
217,160.90341052500003,161.51590991250004,73.0,96.0
218,161.33198152500003,162.11412360000003,70.0,78.0
219,162.40340902500003,162.6444802125,70.0,117.0
220,162.61769452500002,162.93376563750002,71.0,90.0
221,163.04626552500002,163.17483682500003,73.0,97.0
222,163.260551025,163.68376488750002,70.0,93.0
223,163.68912202500002,165.231977625,68.0,89.0
224,165.83197702500001,166.12840530000003,70.0,100.0
225,166.04626252500003,166.38911932500002,71.0,85.0
226,166.474833525,166.63376193750003,73.0,96.0
227,166.68911902500002,167.14626142500003,70.0,83.0
228,167.11769002500003,168.40340302500002,68.0,86.0
229,168.83197402500002,169.17840225000003,73.0,112.0
230,169.26054502500003,169.51590191250003,75.0,99.0
231,169.68911602500003,170.02125855000003,77.0,96.0
232,170.117687025,170.50875806250002,78.0,127.0
233,170.54625802500001,170.77661493750003,80.0,122.0
234,170.76054352500003,171.33732866250003,82.0,127.0
235,171.18911452500004,171.69982830000004,78.0,127.0
236,171.83197102500003,172.11768502500001,77.0,127.0
237,172.26054202500003,172.428399,75.0,112.0
238,172.47482752500002,172.76947008750003,77.0,107.0
239,172.90339852500003,173.45339797500003,73.0,127.0
240,173.54625502500002,173.92839750000002,75.0,117.0
241,173.97482602500003,174.19089723750002,73.0,100.0
242,174.18911152500002,174.49446836250002,75.0,107.0
243,174.61768252500002,174.90161081250002,66.0,99.0
244,175.04625352500003,175.65161006250003,73.0,96.0
245,176.11768102500002,176.40160931250003,73.0,127.0
246,176.403395025,176.60518053750002,75.0,112.0
247,176.68910902500002,176.85518028750002,77.0,92.0
248,176.97482302500003,177.22839420000003,78.0,122.0
249,177.403394025,177.52660818750002,80.0,122.0
250,177.61767952500003,178.2694645875,82.0,112.0
251,178.26053602500002,178.39982160000002,85.0,127.0
252,178.68910702500003,179.68374888750003,85.0,122.0
253,179.54624902500004,180.17303411250003,80.0,127.0
254,180.40339102500002,180.68374788750003,75.0,122.0
255,180.83196202500002,181.02303326250004,77.0,86.0
256,181.046247525,181.48910422500003,78.0,122.0
257,181.47481852500002,181.967675175,82.0,127.0
258,182.117675025,183.67660203750003,80.0,117.0
259,184.689101025,185.04088638750002,82.0,127.0
260,185.11767202500002,185.45695740000002,80.0,122.0
261,185.54624302500002,186.14088528750003,78.0,127.0
262,186.40338502500003,186.881955975,85.0,117.0
263,187.26052702500002,187.44802683750004,83.0,127.0
264,187.68909802500002,187.86766927500003,82.0,127.0
265,187.90338352500004,188.15874041250004,80.0,122.0
266,188.33195452500001,188.78731121250001,78.0,127.0
267,188.97481102500004,189.62838180000003,78.0,127.0
268,189.83195302500002,190.17302411250003,85.0,122.0
269,190.68909502500003,191.11409460000002,83.0,122.0
270,191.11766602500003,191.36588006250003,82.0,122.0
271,191.33195152500002,191.70873686250002,80.0,127.0
272,191.97480802500002,192.30516483750003,82.0,127.0
273,192.40337902500002,192.64980735000003,80.0,127.0
274,192.83195002500003,192.93373563750004,78.0,112.0
275,193.04623552500001,193.40873516250002,78.0,127.0
276,193.68909202500004,193.90337752500002,80.0,127.0
277,193.90337752500002,194.08373448750004,82.0,102.0
278,194.117663025,194.38730561250003,80.0,122.0
279,194.54623402500002,194.63909107500004,78.0,122.0
280,194.76051952500003,195.11587631250003,78.0,117.0
281,195.61766152500002,195.74980425000004,73.0,112.0
282,195.83194702500003,196.20694665000002,75.0,117.0
283,196.26051802500004,196.38551790000002,78.0,67.0
284,196.47480352500003,196.78194607500004,78.0,127.0
285,196.90337452500003,197.52301676250002,82.0,117.0
286,197.54623102500003,197.99265915000004,80.0,127.0
287,198.40337302500004,198.731944125,82.0,127.0
288,198.831944025,199.081943775,80.0,122.0
289,199.26051502500002,199.85872871250004,78.0,127.0
290,200.11765702500003,200.50872806250004,85.0,127.0
291,200.97479902500004,201.25337017500001,83.0,127.0
292,201.40337002500002,201.53908417500003,82.0,112.0
293,201.61765552500003,201.86051242500002,80.0,127.0
294,202.04622652500004,202.50158321250004,78.0,127.0
295,202.68908302500003,203.27122530000003,78.0,127.0
296,203.546225025,203.97658173750003,85.0,127.0
297,204.40336702500002,204.70158101250001,83.0,127.0
298,204.83193802500003,205.02658068750003,82.0,122.0
299,205.04622352500002,205.48193737500003,80.0,122.0
300,205.68908002500004,205.91050837500003,82.0,127.0
301,206.11765102500001,206.38907932500004,80.0,127.0
302,206.54622202500002,206.63907907500004,78.0,102.0
303,206.76050752500004,207.16943568750003,78.0,122.0
304,207.40336402500003,207.60157811250002,80.0,127.0
305,207.61764952500002,207.81407790000003,82.0,99.0
306,207.83193502500004,208.06943478750003,80.0,122.0
307,208.26050602500004,208.35872021250003,78.0,117.0
308,208.47479152500003,208.84443401250002,78.0,127.0
309,209.11764802500002,209.32300496250002,80.0,127.0
310,209.33193352500004,209.53193332500004,82.0,97.0
311,209.54621902500003,209.70693315000003,80.0,122.0
312,209.97479002500003,211.12836030000003,80.0,127.0
313,211.68907402500002,211.90514523750002,82.0,117.0
314,212.11764502500003,212.48550180000004,80.0,127.0
315,212.76050152500002,212.86764427500003,78.0,100.0
316,212.97478702500004,215.33728466250002,78.0,127.0
317,215.54621302500001,215.89799838750002,82.0,127.0
318,215.97478402500002,216.31406940000002,80.0,122.0
319,216.40335502500002,216.99799728750003,78.0,127.0
320,217.26049702500003,217.73906797500004,85.0,117.0
321,218.11763902500002,218.30513883750004,83.0,127.0
322,218.54621002500002,218.72478127500003,82.0,127.0
323,218.76049552500004,219.01585241250004,80.0,122.0
324,219.18906652500002,219.64442321250002,78.0,127.0
325,219.83192302500004,220.48549380000003,78.0,127.0
326,220.68906502500002,221.03013611250003,85.0,122.0
327,221.54620702500003,221.97120660000002,83.0,122.0
328,221.97477802500003,222.22299206250003,82.0,122.0
329,222.18906352500002,222.56584886250002,80.0,127.0
330,222.83192002500002,223.16227683750003,82.0,127.0
331,223.26049102500002,223.50691935000003,80.0,127.0
332,223.68906202500003,223.79084763750004,78.0,112.0
333,223.90334752500002,224.26584716250002,78.0,127.0
334,224.54620402500004,224.76048952500003,80.0,127.0
335,224.76048952500003,224.94084648750004,82.0,102.0
336,224.97477502500004,225.24441761250003,80.0,122.0
337,225.40334602500002,225.49620307500004,78.0,122.0
338,225.61763152500004,225.97298831250004,78.0,117.0
339,226.47477352500002,226.60691625000004,73.0,112.0
340,226.68905902500003,227.06405865000002,75.0,117.0
341,227.11763002500004,227.24262990000003,78.0,67.0
342,227.33191552500003,227.63905807500004,78.0,127.0
343,227.76048652500003,228.38012876250002,82.0,117.0
344,228.40334302500003,228.84977115000004,80.0,127.0
345,229.26048502500004,229.58905612500004,82.0,127.0
346,229.68905602500004,229.93905577500004,80.0,122.0
347,230.11762702500002,230.71584071250004,78.0,127.0
348,230.97476902500003,231.36584006250004,85.0,127.0
349,231.83191102500004,232.11048217500004,83.0,127.0
350,232.26048202500004,232.39619617500003,82.0,112.0
351,232.47476752500003,232.71762442500003,80.0,127.0
352,232.90333852500004,233.35869521250004,78.0,127.0
353,233.54619502500003,234.12833730000003,78.0,127.0
354,234.40333702500004,234.83369373750003,85.0,127.0
355,235.26047902500002,235.55869301250004,83.0,127.0
356,235.68905002500003,235.88369268750003,82.0,122.0
357,235.90333552500002,236.33904937500003,80.0,122.0
358,236.54619202500004,236.76762037500004,82.0,127.0
359,236.97476302500004,237.24619132500004,80.0,127.0
360,237.40333402500002,237.49619107500004,78.0,102.0
361,237.61761952500004,238.02654768750003,78.0,122.0
362,238.26047602500003,238.45869011250002,80.0,127.0
363,238.47476152500002,238.67118990000003,82.0,99.0
364,238.68904702500004,238.92654678750003,80.0,122.0
365,239.11761802500004,239.21583221250003,78.0,117.0
366,239.33190352500003,239.70154601250002,78.0,127.0
367,239.97476002500002,240.18011696250002,80.0,127.0
368,240.18904552500004,240.38904532500004,82.0,97.0
369,240.40333102500003,240.56404515000003,80.0,122.0
370,240.83190202500003,241.98547230000003,80.0,127.0
371,242.54618602500003,242.76225723750002,82.0,117.0
372,242.97475702500003,243.34261380000004,80.0,127.0
373,243.61761352500002,243.72475627500003,78.0,100.0
374,243.83189902500004,246.19439666250003,78.0,127.0
