,start,end,pitch,velocity
0,17.247967197916665,17.489902447916666,73.0,114.0
1,17.489902447916666,17.731837697916667,72.0,92.0
2,17.731837697916667,17.99393421875,73.0,92.0
3,17.973772947916665,18.270143629166665,72.0,93.0
4,18.215708197916666,18.699578697916667,73.0,96.0
5,18.699578697916667,18.943530074999998,70.0,102.0
6,18.941513947916665,20.151190197916666,73.0,110.0
7,20.151190197916666,20.635060697916664,75.0,113.0
8,20.635060697916664,21.118931197916666,73.0,102.0
9,21.118931197916666,21.463688929166665,72.0,102.0
10,21.360866447916667,21.602801697916664,70.0,89.0
11,21.602801697916664,21.848769202083332,72.0,96.0
12,21.844736947916665,22.12699473958333,70.0,91.0
13,22.086672197916666,22.570542697916665,72.0,108.0
14,22.570542697916665,22.842719854166667,68.0,102.0
15,22.812477947916665,24.989895197916667,72.0,110.0
16,24.989895197916667,25.231830447916664,73.0,107.0
17,25.231830447916664,25.495943095833333,72.0,91.0
18,25.473765697916665,25.715700947916666,73.0,96.0
19,25.715700947916666,26.0201361375,72.0,96.0
20,25.957636197916667,26.441506697916665,73.0,107.0
21,26.441506697916665,26.683441947916666,70.0,94.0
22,26.683441947916666,27.893118197916664,73.0,107.0
23,27.893118197916664,28.376988697916666,75.0,107.0
24,28.376988697916666,28.860859197916664,73.0,96.0
25,28.860859197916664,29.102794447916665,72.0,108.0
26,29.102794447916665,29.383036112499997,70.0,89.0
27,29.344729697916666,29.604810091666664,72.0,92.0
28,29.586664947916667,29.862874358333332,70.0,90.0
29,29.828600197916664,30.312470697916666,72.0,104.0
30,30.312470697916666,30.796341197916664,68.0,91.0
31,30.796341197916664,32.73182319791667,77.0,93.0
32,32.73182319791667,32.973758447916666,78.0,110.0
33,32.973758447916666,33.21569369791666,77.0,93.0
34,33.21569369791666,33.45762894791667,78.0,94.0
35,33.45762894791667,33.71569321458333,77.0,92.0
36,33.699564197916665,34.18343469791667,78.0,104.0
37,34.18343469791667,34.425369947916664,70.0,84.0
38,34.425369947916664,34.909240447916666,77.0,107.0
39,34.909240447916666,36.60278719791666,75.0,102.0
40,36.60278719791666,36.844722447916666,77.0,107.0
41,36.844722447916666,37.10278671458333,75.0,91.0
42,37.086657697916664,37.32859294791666,77.0,96.0
43,37.32859294791666,37.59270559583333,75.0,92.0
44,37.570528197916666,38.05439869791667,77.0,108.0
45,38.05439869791667,38.29431782083333,75.0,98.0
46,38.296333947916665,38.78020444791667,75.0,104.0
47,38.78020444791667,40.47375119791666,73.0,96.0
48,40.47375119791666,40.71568644791667,75.0,108.0
49,40.71568644791667,40.971734587499995,73.0,87.0
50,40.957621697916665,41.19955694791666,75.0,96.0
51,41.19955694791666,41.441492197916666,73.0,87.0
52,41.441492197916666,41.92536269791666,75.0,102.0
53,41.92536269791666,42.167297947916666,77.0,92.0
54,42.167297947916666,42.65116844791667,75.0,96.0
55,42.65116844791667,43.37495807083333,72.0,94.0
56,43.37697419791667,43.86084469791666,72.0,102.0
57,43.86084469791666,44.102779947916666,68.0,89.0
58,44.102779947916666,48.215679197916664,70.0,96.0
59,48.215679197916664,48.45761444791666,73.0,114.0
60,48.45761444791666,48.699549697916666,72.0,92.0
61,48.699549697916666,48.96164621875,73.0,92.0
62,48.94148494791666,49.23785562916667,72.0,93.0
63,49.18342019791666,49.66729069791666,73.0,96.0
64,49.66729069791666,49.911242075,70.0,102.0
65,49.90922594791667,51.11890219791666,73.0,110.0
66,51.11890219791666,51.60277269791666,75.0,113.0
67,51.60277269791666,52.086643197916665,73.0,102.0
68,52.086643197916665,52.431400929166664,72.0,102.0
69,52.32857844791666,52.57051369791667,70.0,89.0
70,52.57051369791667,52.81648120208333,72.0,96.0
71,52.812448947916664,53.09470673958333,70.0,91.0
72,53.05438419791666,53.53825469791666,72.0,108.0
73,53.53825469791666,53.810431854166666,68.0,102.0
74,53.78018994791666,55.957607197916666,72.0,110.0
75,55.957607197916666,56.19954244791666,73.0,107.0
76,56.19954244791666,56.46365509583333,72.0,91.0
77,56.44147769791666,56.683412947916665,73.0,96.0
78,56.683412947916665,56.987848137499995,72.0,96.0
79,56.92534819791666,57.409218697916664,73.0,107.0
80,57.409218697916664,57.65115394791666,70.0,94.0
81,57.65115394791666,58.86083019791666,73.0,107.0
82,58.86083019791666,59.344700697916664,75.0,107.0
83,59.344700697916664,59.828571197916666,73.0,96.0
84,59.828571197916666,60.070506447916664,72.0,108.0
85,60.070506447916664,60.3507481125,70.0,89.0
86,60.31244169791666,60.57252209166666,72.0,92.0
87,60.554376947916666,60.83058635833333,70.0,90.0
88,60.79631219791666,61.280182697916665,72.0,104.0
89,61.280182697916665,61.76405319791667,68.0,91.0
90,61.76405319791667,63.69953519791666,77.0,93.0
91,63.69953519791666,63.941470447916664,78.0,110.0
92,63.941470447916664,64.18340569791667,77.0,93.0
93,64.18340569791667,64.42534094791667,78.0,94.0
94,64.42534094791667,64.68340521458333,77.0,92.0
95,64.66727619791666,65.15114669791666,78.0,104.0
96,65.15114669791666,65.39308194791667,70.0,84.0
97,65.39308194791667,65.87695244791666,77.0,107.0
98,65.87695244791666,67.57049919791666,75.0,102.0
99,67.57049919791666,67.81243444791666,77.0,107.0
100,67.81243444791666,68.07049871458332,75.0,91.0
101,68.05436969791667,68.29630494791667,77.0,96.0
102,68.29630494791667,68.56041759583333,75.0,92.0
103,68.53824019791666,69.02211069791666,77.0,108.0
104,69.02211069791666,69.26202982083333,75.0,98.0
105,69.26404594791666,69.74791644791667,75.0,104.0
106,69.74791644791667,71.44146319791666,73.0,96.0
107,71.44146319791666,71.68339844791666,75.0,108.0
108,71.68339844791666,71.9394465875,73.0,87.0
109,71.92533369791666,72.16726894791667,75.0,96.0
110,72.16726894791667,72.40920419791667,73.0,87.0
111,72.40920419791667,72.89307469791666,75.0,102.0
112,72.89307469791666,73.13500994791666,77.0,92.0
113,73.13500994791666,73.61888044791667,75.0,96.0
114,73.61888044791667,74.34267007083334,72.0,94.0
115,74.34468619791666,74.82855669791667,72.0,102.0
116,74.82855669791667,75.07049194791666,68.0,89.0
117,75.07049194791666,78.21363407083332,70.0,96.0
118,78.21565019791666,78.47573059166666,70.0,117.0
119,78.45758544791666,78.69952069791667,72.0,108.0
120,78.69952069791667,78.94145594791667,73.0,104.0
121,78.94145594791667,79.18339119791666,77.0,114.0
122,79.18339119791666,80.15113219791667,82.0,120.0
123,80.15113219791667,81.11887319791666,77.0,116.0
124,81.11887319791666,81.36484070208333,78.0,113.0
125,81.36080844791667,81.84467894791666,80.0,110.0
126,81.84467894791666,83.05435519791666,75.0,114.0
127,83.05435519791666,83.29629044791666,84.0,114.0
128,83.29629044791666,83.56846760416666,82.0,98.0
129,83.53822569791666,83.78016094791666,84.0,108.0
130,83.78016094791666,84.06846712083333,82.0,100.0
131,84.02209619791667,84.28016046458333,84.0,119.0
132,84.26403144791666,84.74790194791666,80.0,114.0
133,84.74790194791666,84.98983719791666,75.0,104.0
134,84.98983719791666,85.55636890833333,78.0,114.0
135,85.47370769791667,86.44144869791666,77.0,110.0
136,86.44144869791666,86.79225481041667,82.0,110.0
137,86.68338394791667,86.92531919791666,80.0,100.0
138,86.92531919791666,87.40918969791666,82.0,116.0
139,87.40918969791666,87.65112494791666,80.0,102.0
140,87.65112494791666,88.37693069791666,82.0,114.0
141,88.37693069791666,88.86080119791666,73.0,110.0
142,88.86080119791666,89.34467169791667,75.0,114.0
143,89.34467169791667,89.6007198375,77.0,108.0
144,89.58660694791666,90.31241269791666,75.0,113.0
145,90.31241269791666,90.55434794791667,77.0,114.0
146,90.55434794791667,90.79628319791667,75.0,104.0
147,90.79628319791667,91.27813757083332,77.0,117.0
148,91.28015369791666,91.52007282083333,77.0,107.0
149,91.52208894791666,92.24789469791666,77.0,113.0
150,92.24789469791666,92.48982994791666,75.0,110.0
151,92.48982994791666,93.69950619791666,77.0,114.0
152,93.69950619791666,93.95958659166666,70.0,117.0
153,93.94144144791666,94.18337669791666,72.0,108.0
154,94.18337669791666,94.42531194791667,73.0,104.0
155,94.42531194791667,94.66724719791667,77.0,114.0
156,94.66724719791667,95.63498819791666,82.0,120.0
157,95.63498819791666,96.60272919791666,77.0,116.0
158,96.60272919791666,96.84869670208333,78.0,113.0
159,96.84466444791666,97.32853494791667,80.0,110.0
160,97.32853494791667,98.53821119791667,75.0,114.0
161,98.53821119791667,98.78014644791666,84.0,114.0
162,98.78014644791666,99.05232360416666,82.0,98.0
163,99.02208169791666,99.26401694791666,84.0,108.0
164,99.26401694791666,99.55232312083332,82.0,100.0
165,99.50595219791666,99.76401646458332,84.0,119.0
166,99.74788744791667,100.23175794791666,80.0,114.0
167,100.23175794791666,100.47369319791666,75.0,104.0
168,100.47369319791666,101.04022490833333,78.0,114.0
169,100.95756369791665,101.92530469791666,77.0,110.0
170,101.92530469791666,102.27611081041667,82.0,110.0
171,102.16723994791666,102.40917519791667,80.0,100.0
172,102.40917519791667,102.89304569791666,82.0,116.0
173,102.89304569791666,103.13498094791666,80.0,102.0
174,103.13498094791666,103.86078669791667,82.0,114.0
175,103.86078669791667,104.34465719791666,73.0,110.0
176,104.34465719791666,104.82852769791666,75.0,114.0
177,104.82852769791666,105.0845758375,77.0,108.0
178,105.07046294791667,105.79626869791666,75.0,113.0
179,105.79626869791666,106.03820394791666,77.0,114.0
180,106.03820394791666,106.28013919791667,75.0,104.0
181,106.28013919791667,106.76400969791666,77.0,117.0
182,106.76400969791666,107.00594494791666,75.0,107.0
183,107.00594494791666,107.97368594791666,77.0,113.0
184,107.97368594791666,108.21562119791666,75.0,104.0
185,108.21562119791666,108.69949169791666,77.0,113.0
186,108.69949169791666,108.96562047291665,75.0,108.0
187,108.94142694791667,109.42529744791666,73.0,108.0
188,109.42529744791666,110.15110319791665,75.0,117.0
189,110.15110319791665,110.87287669374999,70.0,104.0
190,114.02206719791666,114.26400244791667,73.0,114.0
191,114.26400244791667,114.50593769791666,72.0,92.0
192,114.50593769791666,114.76803421874999,73.0,92.0
193,114.74787294791666,115.04424362916666,72.0,93.0
194,114.98980819791666,115.47367869791665,73.0,96.0
195,115.47367869791665,115.71763007499999,70.0,102.0
196,115.71561394791667,116.92529019791667,73.0,110.0
197,116.92529019791667,117.40916069791666,75.0,113.0
198,117.40916069791666,117.89303119791666,73.0,102.0
199,117.89303119791666,118.23778892916665,72.0,102.0
200,118.13496644791665,118.37690169791667,70.0,89.0
201,118.37690169791667,118.62286920208332,72.0,96.0
202,118.61883694791666,118.90109473958333,70.0,91.0
203,118.86077219791666,119.34464269791665,72.0,108.0
204,119.34464269791665,119.61681985416666,68.0,102.0
205,119.58657794791667,121.76399519791666,72.0,110.0
206,121.76399519791666,122.00593044791665,73.0,107.0
207,122.00593044791665,122.27004309583333,72.0,91.0
208,122.24786569791667,122.48980094791666,73.0,96.0
209,122.48980094791666,122.7942361375,72.0,96.0
210,122.73173619791666,123.21560669791666,73.0,107.0
211,123.21560669791666,123.45754194791667,70.0,94.0
212,123.45754194791667,124.66721819791665,73.0,107.0
213,124.66721819791665,125.15108869791666,75.0,107.0
214,125.15108869791666,125.63495919791666,73.0,96.0
215,125.63495919791666,125.87689444791665,72.0,108.0
216,125.87689444791665,126.1571361125,70.0,89.0
217,126.11882969791667,126.37891009166665,72.0,92.0
218,126.36076494791666,126.63697435833333,70.0,90.0
219,126.60270019791666,127.08657069791666,72.0,104.0
220,127.08657069791666,127.57044119791667,68.0,91.0
221,127.57044119791667,129.50592319791667,77.0,93.0
222,129.50592319791667,129.74785844791666,78.0,110.0
223,129.74785844791666,129.98979369791667,77.0,93.0
224,129.98979369791667,130.23172894791665,78.0,94.0
225,130.23172894791665,130.48979321458333,77.0,92.0
226,130.47366419791666,130.95753469791666,78.0,104.0
227,130.95753469791666,131.19946994791667,70.0,84.0
228,131.19946994791667,131.68334044791666,77.0,107.0
229,131.68334044791666,133.37688719791666,75.0,102.0
230,133.37688719791666,133.61882244791667,77.0,107.0
231,133.61882244791667,133.87688671458332,75.0,91.0
232,133.86075769791665,134.10269294791667,77.0,96.0
233,134.10269294791667,134.3668055958333,75.0,92.0
234,134.34462819791665,134.82849869791667,77.0,108.0
235,134.82849869791667,135.06841782083333,75.0,98.0
236,135.07043394791665,135.55430444791665,75.0,104.0
237,135.55430444791665,137.24785119791665,73.0,96.0
238,137.24785119791665,137.48978644791666,75.0,108.0
239,137.48978644791666,137.74583458749998,73.0,87.0
240,137.73172169791667,137.97365694791665,75.0,96.0
241,137.97365694791665,138.21559219791666,73.0,87.0
242,138.21559219791666,138.69946269791666,75.0,102.0
243,138.69946269791666,138.94139794791667,77.0,92.0
244,138.94139794791667,139.66720369791665,75.0,96.0
245,139.66720369791665,140.14905807083332,72.0,94.0
246,140.15107419791667,140.42526748125,72.0,102.0
247,140.39300944791665,140.87687994791665,73.0,89.0
248,140.87687994791665,141.18333126458333,72.0,96.0
249,141.11881519791666,142.08655619791665,70.0,96.0
250,144.02203819791666,144.28211859166666,70.0,117.0
251,144.26397344791667,144.50590869791665,72.0,108.0
252,144.50590869791665,144.74784394791666,73.0,104.0
253,144.74784394791666,144.98977919791665,77.0,114.0
254,144.98977919791665,145.95752019791666,82.0,120.0
255,145.95752019791666,146.92526119791665,77.0,116.0
256,146.92526119791665,147.1712287020833,78.0,113.0
257,147.16719644791667,147.65106694791666,80.0,110.0
258,147.65106694791666,148.86074319791666,75.0,114.0
259,148.86074319791666,149.10267844791665,84.0,114.0
260,149.10267844791665,149.37485560416667,82.0,98.0
261,149.34461369791666,149.58654894791667,84.0,108.0
262,149.58654894791667,149.87485512083333,82.0,100.0
263,149.82848419791665,150.08654846458333,84.0,119.0
264,150.07041944791666,150.55428994791666,80.0,114.0
265,150.55428994791666,150.79622519791667,75.0,104.0
266,150.79622519791667,151.36275690833332,78.0,114.0
267,151.28009569791666,152.24783669791665,77.0,110.0
268,152.24783669791665,152.59864281041666,82.0,110.0
269,152.48977194791667,152.73170719791665,80.0,100.0
270,152.73170719791665,153.21557769791667,82.0,116.0
271,153.21557769791667,153.45751294791665,80.0,102.0
272,153.45751294791665,154.18331869791666,82.0,114.0
273,154.18331869791666,154.66718919791666,73.0,110.0
274,154.66718919791666,155.15105969791665,75.0,114.0
275,155.15105969791665,155.40710783749998,77.0,108.0
276,155.39299494791666,156.11880069791667,75.0,113.0
277,156.11880069791667,156.36073594791665,77.0,114.0
278,156.36073594791665,156.60267119791666,75.0,104.0
279,156.60267119791666,157.08452557083334,77.0,117.0
280,157.08654169791666,157.32646082083332,77.0,107.0
281,157.32847694791667,158.05428269791665,77.0,113.0
282,158.05428269791665,158.29621794791666,75.0,110.0
283,158.29621794791666,159.50589419791666,77.0,114.0
284,159.50589419791666,159.76597459166666,70.0,117.0
285,159.74782944791667,159.98976469791666,72.0,108.0
286,159.98976469791666,160.23169994791667,73.0,104.0
287,160.23169994791667,160.47363519791665,77.0,114.0
288,160.47363519791665,161.44137619791667,82.0,120.0
289,161.44137619791667,162.40911719791666,77.0,116.0
290,162.40911719791666,162.65508470208331,78.0,113.0
291,162.65105244791667,163.13492294791666,80.0,110.0
292,163.13492294791666,164.34459919791666,75.0,114.0
293,164.34459919791666,164.58653444791665,84.0,114.0
294,164.58653444791665,164.85871160416667,82.0,98.0
295,164.82846969791666,165.07040494791667,84.0,108.0
296,165.07040494791667,165.35871112083333,82.0,100.0
297,165.31234019791665,165.57040446458333,84.0,119.0
298,165.55427544791667,166.03814594791666,80.0,114.0
299,166.03814594791666,166.28008119791664,75.0,104.0
300,166.28008119791664,166.84661290833333,78.0,114.0
301,166.76395169791667,167.73169269791666,77.0,110.0
302,167.73169269791666,168.08249881041667,82.0,110.0
303,167.97362794791667,168.21556319791665,80.0,100.0
304,168.21556319791665,168.69943369791665,82.0,116.0
305,168.69943369791665,168.94136894791666,80.0,102.0
306,168.94136894791666,169.66717469791666,82.0,114.0
307,169.66717469791666,170.15104519791666,73.0,110.0
308,170.15104519791666,170.4030610833333,75.0,114.0
309,170.39298044791667,170.87685094791667,77.0,108.0
310,170.87685094791667,171.60265669791667,75.0,113.0
311,171.60265669791667,171.84459194791665,77.0,114.0
312,171.84459194791665,172.08652719791667,75.0,104.0
313,172.08652719791667,172.57039769791666,77.0,117.0
314,172.57039769791666,172.81233294791664,75.0,107.0
315,172.81233294791664,173.78007394791666,77.0,113.0
316,173.78007394791666,174.02200919791665,75.0,104.0
317,174.02200919791665,174.50587969791667,77.0,113.0
318,174.50587969791667,174.77200847291667,75.0,108.0
319,174.74781494791665,175.23168544791665,73.0,108.0
320,175.23168544791665,175.95749119791665,75.0,117.0
321,175.95749119791665,176.67926469374999,70.0,104.0
322,178.86071419791665,179.12079459166665,70.0,117.0
323,179.10264944791666,179.34458469791664,72.0,108.0
324,179.34458469791664,179.58651994791666,73.0,104.0
325,179.58651994791666,179.82845519791667,77.0,114.0
326,179.82845519791667,180.79619619791666,82.0,120.0
327,180.79619619791666,181.76393719791665,77.0,116.0
328,181.76393719791665,182.00990470208333,78.0,113.0
329,182.00587244791666,182.48974294791665,80.0,110.0
330,182.48974294791665,183.69941919791665,75.0,114.0
331,183.69941919791665,183.94135444791667,84.0,114.0
332,183.94135444791667,184.21353160416666,82.0,98.0
333,184.18328969791665,184.42522494791666,84.0,108.0
334,184.42522494791666,184.71353112083332,82.0,100.0
335,184.66716019791664,184.92522446458332,84.0,119.0
336,184.90909544791666,185.39296594791665,80.0,114.0
337,185.39296594791665,185.63490119791666,75.0,104.0
338,185.63490119791666,186.20143290833332,78.0,114.0
339,186.11877169791666,187.08651269791665,77.0,110.0
340,187.08651269791665,187.43731881041666,82.0,110.0
341,187.32844794791666,187.57038319791667,80.0,100.0
342,187.57038319791667,188.05425369791666,82.0,116.0
343,188.05425369791666,188.29618894791665,80.0,102.0
344,188.29618894791665,189.02199469791665,82.0,114.0
345,189.02199469791665,189.50586519791665,73.0,110.0
346,189.50586519791665,189.75788108333333,75.0,114.0
347,189.74780044791666,190.23167094791665,77.0,108.0
348,190.23167094791665,190.95747669791666,75.0,113.0
349,190.95747669791666,191.19941194791664,77.0,114.0
350,191.19941194791664,191.44134719791666,75.0,104.0
351,191.44134719791666,191.92320157083333,77.0,117.0
352,191.92521769791665,192.1651368208333,77.0,107.0
353,192.16715294791666,192.89295869791667,77.0,113.0
354,192.89295869791667,193.13489394791665,75.0,110.0
355,193.13489394791665,194.34457019791665,77.0,114.0
356,194.34457019791665,194.60465059166665,70.0,117.0
357,194.58650544791666,194.82844069791665,72.0,108.0
358,194.82844069791665,195.07037594791666,73.0,104.0
359,195.07037594791666,195.31231119791664,77.0,114.0
360,195.31231119791664,196.28005219791666,82.0,120.0
361,196.28005219791666,197.24779319791665,77.0,116.0
362,197.24779319791665,197.49376070208334,78.0,113.0
363,197.48972844791666,197.97359894791666,80.0,110.0
364,197.97359894791666,199.18327519791666,75.0,114.0
365,199.18327519791666,199.42521044791667,84.0,114.0
366,199.42521044791667,199.69738760416666,82.0,98.0
367,199.66714569791665,199.90908094791666,84.0,108.0
368,199.90908094791666,200.19738712083333,82.0,100.0
369,200.15101619791665,200.40908046458333,84.0,119.0
370,200.39295144791666,200.87682194791665,80.0,114.0
371,200.87682194791665,201.11875719791666,75.0,104.0
372,201.11875719791666,201.68528890833332,78.0,114.0
373,201.60262769791666,202.57036869791665,77.0,110.0
374,202.57036869791665,202.92117481041666,82.0,110.0
375,202.81230394791666,203.05423919791664,80.0,100.0
376,203.05423919791664,203.53810969791667,82.0,116.0
377,203.53810969791667,203.78004494791665,80.0,102.0
378,203.78004494791665,204.50585069791666,82.0,114.0
379,204.50585069791666,204.98972119791665,73.0,110.0
380,204.98972119791665,205.24173708333333,75.0,114.0
381,205.23165644791666,205.71552694791666,77.0,108.0
382,205.71552694791666,206.44133269791666,75.0,113.0
383,206.44133269791666,206.68326794791665,77.0,114.0
384,206.68326794791665,206.92520319791666,75.0,104.0
385,206.92520319791666,207.40907369791665,77.0,117.0
386,207.40907369791665,207.65100894791667,75.0,107.0
387,207.65100894791667,208.61874994791665,77.0,113.0
388,208.61874994791665,208.86068519791667,75.0,104.0
389,208.86068519791667,209.34455569791666,77.0,113.0
390,209.34455569791666,209.61068447291666,75.0,108.0
391,209.58649094791664,210.07036144791667,73.0,108.0
392,210.07036144791667,210.79616719791665,75.0,117.0
393,210.79616719791665,211.51794069374998,70.0,104.0
