,start,end,pitch,velocity
0,2.4899169479166665,2.7862876291666665,60.0,80.0
1,2.7318521979166666,2.7983843916666666,61.0,86.0
2,2.9737874479166666,3.2056420625,65.0,81.0
3,2.2479816979166665,3.3669322291666663,58.0,84.0
4,2.0060464479166664,3.407254770833333,53.0,81.0
5,1.7641111979166666,3.4274160416666666,46.0,87.0
6,3.2157226979166667,3.4374966770833333,70.0,72.0
7,3.4576579479166667,3.74394799375,72.0,84.0
8,4.425398947916666,4.643140672916666,58.0,80.0
9,4.6673341979166665,4.903221066666666,61.0,71.0
10,3.6995931979166663,5.34072064375,42.0,87.0
11,3.9415284479166663,5.427414108333333,49.0,80.0
12,4.183463697916666,5.451607633333333,54.0,83.0
13,4.9092694479166665,5.677413866666666,66.0,77.0
14,6.360880947916666,6.677412899999999,60.0,83.0
15,5.635075197916667,7.199589814583333,44.0,83.0
16,5.877010447916667,7.211686577083333,51.0,82.0
17,6.118945697916667,7.360879981249999,56.0,84.0
18,6.602816197916666,7.4899121145833325,68.0,87.0
19,7.086686697916666,7.620960374999999,63.0,84.0
20,8.296362947916666,8.55845946875,63.0,83.0
21,8.538298197916665,8.596765883333333,65.0,73.0
22,8.780233447916666,8.9999913,68.0,79.0
23,8.054427697916665,9.028217079166666,61.0,86.0
24,7.812492447916666,9.118942797916667,56.0,73.0
25,7.570557197916666,9.1935395,49.0,83.0
26,9.022168697916666,9.247974931249999,73.0,83.0
27,9.264103947916666,9.52620046875,75.0,84.0
28,10.231844947916667,10.524183375,61.0,76.0
29,10.715715447916667,10.999989366666666,61.0,63.0
30,9.747974447916667,11.08668283125,53.0,63.0
31,10.473780197916666,11.100795720833332,70.0,83.0
32,9.506039197916666,11.102811847916666,46.0,81.0
33,9.989909697916666,11.14716664375,58.0,81.0
34,10.957650697916666,11.294343920833333,65.0,76.0
35,11.199585947916667,11.3346664625,61.0,80.0
36,12.167326947916665,12.745955420833333,67.0,84.0
37,11.925391697916666,12.88910044375,63.0,87.0
38,11.683456447916667,12.923374604166666,58.0,70.0
39,11.441521197916666,12.969745527083333,51.0,74.0
40,12.409262197916666,13.332648402083333,70.0,88.0
41,12.893132697916666,13.33668065625,75.0,81.0
42,13.618938447916666,14.907243654166665,54.0,81.0
43,13.377003197916666,14.931437179166666,42.0,82.0
44,14.344744197916667,14.945550068749998,66.0,79.0
45,14.102808947916666,14.973775847916666,61.0,79.0
46,13.860873697916666,14.977808102083333,58.0,78.0
47,15.312485197916667,16.314500358333333,41.0,38.0
48,15.312485197916667,16.346758391666665,65.0,50.0
49,15.312485197916667,16.41732283958333,57.0,79.0
50,15.312485197916667,16.437484110416666,53.0,70.0
51,17.247967197916665,17.818531162499998,65.0,78.0
52,17.247967197916665,17.8669182125,61.0,76.0
53,17.247967197916665,17.897160118749998,60.0,73.0
54,18.215708197916666,18.905223660416667,65.0,68.0
55,18.215708197916666,18.947562329166665,61.0,69.0
56,18.215708197916666,19.010062268749998,60.0,65.0
57,19.183449197916666,19.921351710416666,65.0,66.0
58,19.183449197916666,19.949577489583334,61.0,63.0
59,19.183449197916666,20.018125810416667,60.0,46.0
60,17.247967197916665,20.51006081875,58.0,68.0
61,17.247967197916665,20.5765930125,46.0,68.0
62,20.151190197916666,20.685463875,60.0,42.0
63,20.151190197916666,20.70562514583333,65.0,76.0
64,20.151190197916666,20.8911088375,61.0,78.0
65,21.118931197916666,21.78022088125,68.0,78.0
66,21.118931197916666,21.842720820833332,63.0,74.0
67,21.118931197916666,21.917317522916665,60.0,76.0
68,22.086672197916666,22.764090897916667,68.0,70.0
69,22.086672197916666,22.86489725208333,63.0,73.0
70,22.086672197916666,22.907235920833333,60.0,66.0
71,23.054413197916666,23.616912654166665,68.0,66.0
72,23.054413197916666,23.677396466666664,63.0,46.0
73,23.054413197916666,23.69352548333333,60.0,38.0
74,21.118931197916666,24.24191205,56.0,73.0
75,21.118931197916666,24.30844424375,44.0,69.0
76,24.022154197916667,24.522153714583332,60.0,76.0
77,24.022154197916667,24.5443311125,63.0,80.0
78,24.022154197916667,24.780217981249997,68.0,77.0
79,24.989895197916667,25.641104245833333,65.0,69.0
80,24.989895197916667,25.69957193125,58.0,70.0
81,24.989895197916667,25.733846091666667,61.0,64.0
82,24.989895197916667,25.79634603125,68.0,69.0
83,25.957636197916667,26.616909754166667,65.0,56.0
84,25.957636197916667,26.64513553333333,58.0,58.0
85,25.957636197916667,26.689490329166667,61.0,68.0
86,25.957636197916667,26.776183793749997,68.0,74.0
87,26.925377197916664,27.59473138958333,65.0,70.0
88,26.925377197916664,27.639086185416666,58.0,68.0
89,26.925377197916664,27.643118439583333,68.0,70.0
90,26.925377197916664,27.65924745625,61.0,73.0
91,27.893118197916664,28.358843554166665,65.0,69.0
92,27.893118197916664,28.381020952083333,68.0,73.0
93,27.893118197916664,28.389085460416666,58.0,64.0
94,24.989895197916667,28.419327366666664,42.0,65.0
95,24.989895197916667,28.48384343333333,54.0,64.0
96,27.893118197916664,28.514085339583332,61.0,72.0
97,28.860859197916664,29.56448755,68.0,76.0
98,28.860859197916664,29.639084252083332,65.0,77.0
99,28.860859197916664,29.6975519375,60.0,72.0
100,28.860859197916664,30.310454570833333,44.0,70.0
101,29.828600197916664,30.481825372916663,65.0,77.0
102,29.828600197916664,30.530212422916666,68.0,78.0
103,29.828600197916664,30.578599472916665,60.0,71.0
104,28.860859197916664,30.58666398125,56.0,74.0
105,30.796341197916664,31.501985677083333,65.0,76.0
106,30.796341197916664,31.536259837499998,61.0,73.0
107,30.796341197916664,31.54432434583333,68.0,74.0
108,30.796341197916664,32.054404497916664,49.0,70.0
109,31.764082197916665,32.32456552708333,61.0,83.0
110,31.764082197916665,32.33263003541666,65.0,86.0
111,31.764082197916665,32.54835563333333,68.0,83.0
112,32.73182319791667,33.3870645,65.0,79.0
113,32.73182319791667,33.39109675416667,58.0,75.0
114,32.73182319791667,33.41730640625,61.0,84.0
115,32.73182319791667,33.435451549999996,68.0,81.0
116,33.699564197916665,34.30843457708333,58.0,75.0
117,33.699564197916665,34.330611975,65.0,76.0
118,33.699564197916665,34.33464422916666,68.0,80.0
119,32.73182319791667,34.411257058333334,42.0,74.0
120,33.699564197916665,34.427386075,61.0,81.0
121,32.73182319791667,34.437466710416665,54.0,77.0
122,34.66730519791666,35.34270777083333,66.0,78.0
123,34.66730519791666,35.387062566666664,63.0,76.0
124,34.66730519791666,35.42738510833333,60.0,73.0
125,35.635046197916665,36.11690057083333,63.0,83.0
126,34.66730519791666,36.14311022291666,54.0,69.0
127,35.635046197916665,36.14512635,60.0,77.0
128,35.635046197916665,36.1572231125,66.0,80.0
129,34.66730519791666,36.217706924999995,42.0,69.0
130,36.60278719791666,37.258028499999995,65.0,82.0
131,36.60278719791666,37.330609075,56.0,75.0
132,36.60278719791666,37.387060633333334,60.0,81.0
133,37.570528197916666,38.14714054375,56.0,77.0
134,36.60278719791666,38.15923730625,41.0,75.0
135,37.570528197916666,38.20964048333333,65.0,83.0
136,36.60278719791666,38.22173724583333,53.0,46.0
137,37.570528197916666,38.32859198125,60.0,76.0
138,38.53826919791666,39.24794593125,68.0,84.0
139,38.53826919791666,39.29431685416667,61.0,82.0
140,39.506010197916666,40.30238039583333,61.0,76.0
141,39.506010197916666,40.312461031249995,68.0,77.0
142,38.53826919791666,40.33463842916667,52.0,81.0
143,40.47375119791666,41.11891186458333,66.0,79.0
144,40.47375119791666,41.169315041666664,63.0,80.0
145,41.441492197916666,41.93745946041666,66.0,80.0
146,40.47375119791666,41.95358847708333,51.0,72.0
147,41.441492197916666,41.97778200208333,63.0,80.0
148,42.40923319791666,42.868910172916664,63.0,78.0
149,42.40923319791666,43.15318409166667,57.0,76.0
150,43.37697419791667,43.973747814583334,63.0,87.0
151,43.37697419791667,43.99794133958333,57.0,82.0
152,42.40923319791666,44.29632814791666,53.0,74.0
153,44.34471519791666,45.064472566666666,61.0,78.0
154,44.34471519791666,45.10076285416667,58.0,71.0
155,45.31245619791667,45.79431057083333,65.0,71.0
156,45.31245619791667,46.03624582083333,61.0,66.0
157,45.31245619791667,46.20963275,60.0,71.0
158,46.280197197916664,46.856809543749996,65.0,64.0
159,46.280197197916664,46.975761041666665,61.0,69.0
160,46.280197197916664,47.016083583333334,58.0,72.0
161,47.24793819791667,47.68342164791667,65.0,81.0
162,47.24793819791667,47.685437775,58.0,72.0
163,47.24793819791667,47.77213123958333,61.0,77.0
164,44.34471519791666,47.77616349375,46.0,72.0
165,48.94148494791666,49.0765654625,60.0,78.0
166,48.699549697916666,49.39309741458333,58.0,83.0
167,49.18342019791666,49.71164549375,65.0,93.0
168,49.18342019791666,49.78825832291666,61.0,90.0
169,48.45761444791666,50.84067666041666,53.0,79.0
170,50.151161197916664,50.858821804166666,60.0,86.0
171,49.66729069791666,51.05640225833333,58.0,42.0
172,50.151161197916664,51.322531033333334,65.0,86.0
173,50.876966947916664,51.427369641666665,61.0,79.0
174,51.360837447916666,51.60075657083333,58.0,85.0
175,48.215679197916664,51.63301460416666,46.0,87.0
176,51.11890219791666,51.66728876458333,53.0,82.0
177,51.60277269791666,51.88503048958333,60.0,86.0
178,51.84470794791666,52.137046375,61.0,84.0
179,52.086643197916665,52.270110762499996,65.0,85.0
180,53.53825469791666,54.08059288333333,65.0,65.0
181,52.57051369791667,54.40115708958333,60.0,65.0
182,54.26406044791666,54.73381805833333,68.0,83.0
183,53.78018994791666,54.747930947916664,72.0,79.0
184,53.05438419791666,54.774140599999996,75.0,100.0
185,54.747930947916664,55.29631751458333,60.0,76.0
186,52.086643197916665,55.41123675833333,53.0,83.0
187,54.98986619791666,55.4636560625,75.0,65.0
188,54.98986619791666,55.564462416666665,65.0,88.0
189,55.473736697916664,55.91728465625,68.0,78.0
190,54.98986619791666,55.93744592708333,72.0,77.0
191,55.957607197916666,56.21970371875,73.0,87.0
192,55.957607197916666,56.393090647916665,66.0,86.0
193,56.44147769791666,57.2055898625,54.0,74.0
194,56.92534819791666,57.435428349999995,66.0,86.0
195,56.92534819791666,57.59671851666666,58.0,82.0
196,57.409218697916664,58.01002456875,54.0,38.0
197,57.893089197916666,58.57454015208333,66.0,78.0
198,57.893089197916666,58.64107234583333,58.0,75.0
199,58.86083019791666,59.37897485833333,58.0,89.0
200,58.86083019791666,59.395103875,66.0,88.0
201,55.957607197916666,59.413249018749994,42.0,83.0
202,58.618894947916665,59.6128456,54.0,69.0
203,59.828571197916666,60.4959092625,68.0,81.0
204,59.828571197916666,60.5805866,60.0,82.0
205,60.554376947916666,60.86486051875,56.0,70.0
206,59.828571197916666,61.29631171458333,44.0,81.0
207,60.31244169791666,61.31445685833333,51.0,40.0
208,60.79631219791666,61.39711806875,60.0,87.0
209,60.79631219791666,61.50800505833333,68.0,88.0
210,61.280182697916665,61.74389192708333,56.0,71.0
211,61.76405319791667,62.36889132291666,61.0,80.0
212,61.76405319791667,62.75195546875,68.0,78.0
213,61.76405319791667,62.81042315416666,65.0,79.0
214,62.73179419791666,63.003971354166666,61.0,88.0
215,62.489858947916666,63.06445516666666,56.0,81.0
216,61.76405319791667,63.1330034875,49.0,78.0
217,62.97372944791666,63.18340666458333,63.0,108.0
218,63.215664697916665,63.463648329166666,65.0,94.0
219,63.69953519791666,64.12695413958333,61.0,76.0
220,63.45759994791666,64.45558285416666,68.0,83.0
221,64.42534094791667,64.88905017708333,54.0,38.0
222,64.66727619791666,65.20961438333333,58.0,86.0
223,63.69953519791666,65.33259813541666,42.0,80.0
224,64.66727619791666,65.35679166041666,68.0,87.0
225,64.66727619791666,65.45356576041667,61.0,88.0
226,65.63501719791667,66.31041977083333,68.0,83.0
227,65.63501719791667,66.32453266041666,63.0,88.0
228,65.63501719791667,66.36687132916666,60.0,83.0
229,66.36082294791666,66.67130651875,54.0,48.0
230,66.36082294791666,66.7620322375,42.0,38.0
231,66.60275819791666,66.96969332708333,60.0,96.0
232,66.84469344791667,66.98582234375,54.0,80.0
233,66.60275819791666,66.98582234375,68.0,88.0
234,66.84469344791667,67.05437066458333,42.0,71.0
235,67.08662869791667,67.31041880416666,63.0,88.0
236,67.32856394791666,67.53219278333333,68.0,84.0
237,67.57049919791666,68.22170824583333,60.0,83.0
238,67.57049919791666,68.22372437291666,68.0,77.0
239,67.57049919791666,68.26404691458333,63.0,88.0
240,67.57049919791666,68.65719169583333,53.0,80.0
241,67.57049919791666,68.96162688541666,41.0,79.0
242,68.53824019791666,69.03219133333333,60.0,88.0
243,68.53824019791666,69.362836175,63.0,91.0
244,68.53824019791666,69.39711033541667,68.0,87.0
245,69.02211069791666,69.46162640208333,53.0,78.0
246,69.50598119791667,70.1975127875,58.0,76.0
247,69.50598119791667,70.31041590416666,65.0,84.0
248,69.50598119791667,70.50799635833333,61.0,83.0
249,69.50598119791667,70.85275408958333,68.0,80.0
250,70.47372219791666,70.92735079166667,58.0,83.0
251,70.23178694791666,70.95960882499999,53.0,73.0
252,69.50598119791667,71.01606038333333,46.0,83.0
253,70.71565744791667,71.104769975,60.0,85.0
254,70.95759269791667,71.3346084625,61.0,83.0
255,71.44146319791666,72.17734958333332,66.0,83.0
256,71.44146319791666,72.18339796458334,58.0,86.0
257,71.44146319791666,72.22170437916667,63.0,84.0
258,72.40920419791667,73.11283255,66.0,87.0
259,72.40920419791667,73.16323572708333,58.0,84.0
260,72.40920419791667,73.17734861666666,63.0,90.0
261,71.44146319791666,73.21162277708333,51.0,83.0
262,73.37694519791667,73.99791233958332,68.0,82.0
263,73.37694519791667,74.00194459375,63.0,79.0
264,73.37694519791667,74.056380025,60.0,75.0
265,74.34468619791666,74.88904051041666,60.0,73.0
266,73.37694519791667,74.91726628958332,44.0,81.0
267,74.34468619791666,75.01605651666667,68.0,78.0
268,74.34468619791666,75.18541119166666,63.0,80.0
269,75.31242719791666,75.80234607916667,58.0,80.0
270,75.31242719791666,75.99992653333332,65.0,83.0
271,75.31242719791666,76.04226520208333,61.0,80.0
272,76.03823294791667,76.41928096666666,58.0,82.0
273,76.76403869791666,77.00395782083334,58.0,82.0
274,76.28016819791667,77.01403845624999,60.0,98.0
275,75.31242719791666,77.06444163333333,46.0,76.0
276,75.79629769791666,77.27613497708333,53.0,63.0
277,77.00597394791666,77.43944127083333,61.0,88.0
278,77.97371494791666,78.13702124166666,65.0,89.0
279,77.73177969791666,78.30032753541666,58.0,86.0
280,78.21565019791666,78.56645631041667,70.0,110.0
281,77.24790919791667,78.89911727916666,46.0,81.0
282,77.48984444791667,79.03218166666666,53.0,79.0
283,78.69952069791667,79.05839131875,72.0,116.0
284,79.18339119791666,79.8265357375,73.0,94.0
285,79.18339119791666,79.87693891458333,65.0,36.0
286,79.18339119791666,79.88097116875,70.0,38.0
287,79.90919694791667,80.25395467916667,58.0,74.0
288,80.15113219791667,80.73782517916666,65.0,104.0
289,80.15113219791667,80.80234124583333,70.0,113.0
290,79.18339119791666,80.82653477083333,46.0,81.0
291,80.63500269791666,80.87693794791666,58.0,82.0
292,80.15113219791667,80.93943788749999,73.0,96.0
293,81.11887319791666,81.49387283541667,66.0,91.0
294,81.11887319791666,81.84871120208332,70.0,87.0
295,81.11887319791666,81.92935628541666,63.0,88.0
296,81.84467894791666,82.25395274583333,58.0,80.0
297,82.57048469791667,82.66725879791666,58.0,87.0
298,81.11887319791666,82.67733943333333,51.0,86.0
299,82.08661419791666,82.68540394166666,63.0,96.0
300,82.08661419791666,82.70959746666666,66.0,93.0
301,82.08661419791666,82.79225867708332,70.0,102.0
302,83.05435519791666,83.75395129583333,68.0,88.0
303,83.05435519791666,83.81040285416667,60.0,86.0
304,83.05435519791666,83.85072539583332,63.0,92.0
305,83.78016094791666,84.10677353541666,56.0,88.0
306,83.05435519791666,84.53217635,44.0,86.0
307,84.02209619791667,84.58862790833332,60.0,110.0
308,83.53822569791666,84.60475692499999,51.0,79.0
309,84.02209619791667,84.78217610833333,68.0,100.0
310,84.50596669791666,84.91322436875,63.0,87.0
311,84.50596669791666,85.0039500875,56.0,82.0
312,84.98983719791666,85.23378857499999,61.0,86.0
313,84.98983719791666,85.47572382499999,65.0,88.0
314,84.98983719791666,85.58056243333333,68.0,86.0
315,85.71564294791666,85.88499762291666,63.0,90.0
316,85.47370769791667,85.97370721458333,61.0,83.0
317,86.19951344791666,86.3829810125,61.0,90.0
318,85.95757819791666,86.44144869791666,68.0,117.0
319,85.23177244791667,86.45152933333333,56.0,83.0
320,84.98983719791666,86.48580349375,49.0,83.0
321,86.44144869791666,86.72370648958334,63.0,102.0
322,86.68338394791667,86.89507729166667,65.0,86.0
323,86.92531919791666,87.42733484166666,66.0,93.0
324,86.92531919791666,87.51201217916666,58.0,91.0
325,86.92531919791666,87.51201217916666,61.0,100.0
326,87.40918969791666,87.95757626458332,54.0,64.0
327,87.89306019791667,88.40717260416666,58.0,100.0
328,87.89306019791667,88.572495025,66.0,93.0
329,86.92531919791666,88.61684982083332,42.0,90.0
330,87.89306019791667,88.69144652291666,61.0,108.0
331,88.37693069791666,88.71160779374999,54.0,79.0
332,88.86080119791666,89.37894585833332,54.0,86.0
333,88.86080119791666,89.63701012499999,66.0,96.0
334,88.86080119791666,89.6733004125,63.0,110.0
335,88.86080119791666,89.68741330208333,60.0,92.0
336,89.58660694791666,89.94749369583333,54.0,82.0
337,89.82854219791666,90.36684812916666,66.0,102.0
338,89.82854219791666,90.3870094,60.0,102.0
339,89.82854219791666,90.40515454375,63.0,113.0
340,88.86080119791666,90.43539645,42.0,84.0
341,90.31241269791666,90.48983188125,54.0,80.0
342,91.28015369791666,91.79224997708333,53.0,74.0
343,91.76402419791667,92.17531412291666,58.0,108.0
344,90.79628319791667,92.50595896458333,41.0,92.0
345,92.00595944791667,92.6249104625,53.0,86.0
346,92.24789469791666,92.63095884375,60.0,98.0
347,92.73176519791666,92.85273282291666,53.0,85.0
348,92.73176519791666,93.43740967708332,65.0,110.0
349,92.73176519791666,93.49386123541666,57.0,106.0
350,93.45757094791666,93.7620061375,53.0,93.0
351,93.69950619791666,93.94144144791666,65.0,107.0
352,93.69950619791666,94.09668323333332,57.0,106.0
353,92.73176519791666,94.17127993541666,41.0,87.0
354,94.18337669791666,94.3184572125,57.0,66.0
355,94.18337669791666,94.32248946666667,65.0,88.0
356,93.94144144791666,94.53821506458333,53.0,93.0
357,94.18337669791666,94.55031182708333,60.0,91.0
358,94.66724719791667,94.72571488333332,44.0,84.0
359,94.66724719791667,94.89910181249999,58.0,100.0
360,94.66724719791667,95.12087579166666,65.0,108.0
361,94.66724719791667,95.23579503541666,61.0,110.0
362,95.39305294791666,95.70353651875,58.0,86.0
363,95.63498819791666,95.92934275208333,61.0,104.0
364,94.66724719791667,96.19345539999999,46.0,85.0
365,95.15111769791666,96.19950378125,53.0,75.0
366,95.63498819791666,96.23781019583333,65.0,113.0
367,95.63498819791666,96.24587470416667,70.0,107.0
368,96.11885869791666,96.46563255625,58.0,84.0
369,96.60272919791666,96.8103902875,63.0,94.0
370,96.60272919791666,97.01805137708332,70.0,102.0
371,96.60272919791666,97.06442229999999,66.0,108.0
372,97.08659969791667,97.56442181666667,63.0,84.0
373,97.32853494791667,97.59264759583333,65.0,102.0
374,97.32853494791667,97.87087313333333,70.0,96.0
375,97.57047019791666,97.87893764166667,66.0,100.0
376,97.81240544791666,98.03821168124999,63.0,104.0
377,96.84466444791666,98.07248584166666,58.0,82.0
378,96.60272919791666,98.14103416249999,51.0,89.0
379,98.05434069791666,98.35272750624999,66.0,104.0
380,98.29627594791666,98.47571125833333,75.0,104.0
381,98.53821119791667,98.70554974583332,70.0,89.0
382,98.53821119791667,98.96563013958333,75.0,85.0
383,98.53821119791667,99.02813007916666,72.0,110.0
384,98.53821119791667,99.04425909583333,68.0,92.0
385,99.26401694791666,99.56643601041667,56.0,87.0
386,99.50595219791666,99.87288732708333,68.0,113.0
387,98.53821119791667,100.01603234999999,44.0,88.0
388,99.02208169791666,100.03619362083333,51.0,80.0
389,99.50595219791666,100.10877419583333,60.0,107.0
390,99.98982269791667,100.36885458958332,63.0,100.0
391,100.23175794791666,100.39506424166666,68.0,98.0
392,99.74788744791667,100.43337065624999,56.0,86.0
393,100.47369319791666,100.862805725,61.0,96.0
394,100.47369319791666,101.20957958333332,68.0,90.0
395,100.47369319791666,101.26804726875,65.0,108.0
396,101.19949894791667,101.46965997708332,61.0,86.0
397,100.95756369791665,101.51603089999999,56.0,76.0
398,101.44143419791666,101.8184499625,63.0,114.0
399,101.44143419791666,101.85474024999999,68.0,113.0
400,101.68336944791666,101.96159498541667,56.0,89.0
401,100.47369319791666,102.06240133958333,49.0,86.0
402,101.92530469791666,102.17933671041666,65.0,104.0
403,102.40917519791667,102.83054575833333,58.0,100.0
404,102.16723994791666,103.13094869375,68.0,89.0
405,102.40917519791667,103.15917447291666,61.0,89.0
406,103.37691619791666,103.46965804374999,58.0,107.0
407,103.13498094791666,103.5119967125,54.0,84.0
408,103.37691619791666,104.02409299166666,68.0,107.0
409,102.40917519791667,104.13699610833332,42.0,87.0
410,103.86078669791667,104.19546379375,54.0,86.0
411,103.37691619791666,104.22570569999999,61.0,113.0
412,104.34465719791666,104.97772110208332,70.0,94.0
413,104.34465719791666,105.05433393125,66.0,104.0
414,104.34465719791666,105.06239843958333,63.0,94.0
415,105.07046294791667,105.40917229791665,58.0,80.0
416,104.34465719791666,105.56441408333333,51.0,88.0
417,105.31239819791666,105.80030095208333,63.0,100.0
418,105.31239819791666,105.87489765416666,70.0,102.0
419,105.79626869791666,105.92126857708332,51.0,44.0
420,105.31239819791666,105.92530083125,66.0,108.0
421,106.28013919791667,107.03417072708332,69.0,88.0
422,106.28013919791667,107.03618685416666,60.0,88.0
423,106.28013919791667,107.03820298125,63.0,100.0
424,107.00594494791666,107.298283375,53.0,77.0
425,107.24788019791666,107.78618612916667,60.0,92.0
426,107.24788019791666,107.81239578124999,69.0,87.0
427,107.24788019791666,107.83255705208333,63.0,98.0
428,107.73175069791667,108.00191172708332,53.0,72.0
429,106.28013919791667,108.05836328541666,41.0,88.0
430,108.21562119791666,108.89707215208333,60.0,87.0
431,108.21562119791666,108.95755596458332,63.0,89.0
432,108.21562119791666,108.96158821875,69.0,86.0
433,108.21562119791666,108.96763659999999,65.0,88.0
434,108.94142694791667,109.23578150208333,53.0,80.0
435,108.21562119791666,109.59465212291666,41.0,83.0
436,109.18336219791667,109.59465212291666,60.0,87.0
437,109.66723269791666,110.06037747916666,63.0,84.0
438,109.18336219791667,110.08255487708333,69.0,81.0
439,109.42529744791666,110.12892579999999,53.0,82.0
440,110.15110319791665,110.72771554375,70.0,87.0
441,110.39303844791667,110.782150975,65.0,30.0
442,110.15110319791665,110.93537663333333,61.0,83.0
443,110.87690894791666,111.459569675,58.0,83.0
444,111.11884419791666,111.80634353333333,60.0,90.0
445,111.60271469791667,112.82851996458332,58.0,58.0
446,110.63497369791666,113.14908417083333,53.0,65.0
447,111.84464994791666,113.14908417083333,61.0,80.0
448,110.15110319791665,113.18940671249999,46.0,79.0
449,114.74787294791666,114.8829534625,60.0,78.0
450,114.50593769791666,115.19948541458332,58.0,83.0
451,114.98980819791666,115.51803349375,65.0,93.0
452,114.98980819791666,115.59464632291666,61.0,90.0
453,114.26400244791667,116.64706466041666,53.0,79.0
454,115.95754919791666,116.66520980416666,60.0,86.0
455,115.47367869791665,116.86279025833333,58.0,42.0
456,115.95754919791666,117.12891903333333,65.0,86.0
457,116.68335494791665,117.23375764166666,61.0,79.0
458,117.16722544791666,117.40714457083332,58.0,85.0
459,114.02206719791666,117.43940260416666,46.0,87.0
460,116.92529019791667,117.47367676458333,53.0,82.0
461,117.40916069791666,117.69141848958333,60.0,86.0
462,117.65109594791666,117.943434375,61.0,84.0
463,117.89303119791666,118.0764987625,65.0,85.0
464,119.34464269791665,119.88698088333332,65.0,65.0
465,118.37690169791667,120.20754508958332,60.0,65.0
466,120.07044844791666,120.54020605833333,68.0,83.0
467,119.58657794791667,120.55431894791666,72.0,79.0
468,118.86077219791666,120.5805286,75.0,100.0
469,120.55431894791666,121.10270551458332,60.0,76.0
470,117.89303119791666,121.21762475833333,53.0,83.0
471,120.79625419791667,121.27004406249999,75.0,65.0
472,120.79625419791667,121.37085041666666,65.0,88.0
473,121.28012469791666,121.72367265624999,68.0,78.0
474,120.79625419791667,121.74383392708333,72.0,77.0
475,121.76399519791666,122.02609171875,73.0,87.0
476,121.76399519791666,122.19947864791666,66.0,86.0
477,122.24786569791667,123.01197786249999,54.0,74.0
478,122.73173619791666,123.24181635,66.0,86.0
479,122.73173619791666,123.40310651666665,58.0,82.0
480,123.21560669791666,123.81641256875,54.0,38.0
481,123.69947719791666,124.38092815208333,66.0,78.0
482,123.69947719791666,124.44746034583332,58.0,75.0
483,124.66721819791665,125.18536285833332,58.0,89.0
484,124.66721819791665,125.20149187499999,66.0,88.0
485,121.76399519791666,125.21963701874999,42.0,83.0
486,124.42528294791666,125.4192336,54.0,69.0
487,125.63495919791666,126.30229726249999,68.0,81.0
488,125.63495919791666,126.38697459999999,60.0,82.0
489,126.36076494791666,126.67124851874999,56.0,70.0
490,125.63495919791666,127.10269971458332,44.0,81.0
491,126.11882969791667,127.12084485833333,51.0,40.0
492,126.60270019791666,127.20350606874999,60.0,87.0
493,126.60270019791666,127.31439305833332,68.0,88.0
494,127.08657069791666,127.55027992708332,56.0,71.0
495,127.57044119791667,128.17527932291665,61.0,80.0
496,127.57044119791667,128.55834346875,68.0,78.0
497,127.57044119791667,128.61681115416667,65.0,79.0
498,128.53818219791665,128.81035935416665,61.0,88.0
499,128.29624694791667,128.87084316666665,56.0,81.0
500,127.57044119791667,128.9393914875,49.0,78.0
501,128.78011744791667,128.98979466458331,63.0,108.0
502,129.02205269791665,129.27003632916666,65.0,94.0
503,129.50592319791667,129.93334213958332,61.0,76.0
504,129.26398794791666,130.26197085416666,68.0,83.0
505,130.23172894791665,130.69543817708333,54.0,38.0
506,130.47366419791666,131.01600238333333,58.0,86.0
507,129.50592319791667,131.13898613541667,42.0,80.0
508,130.47366419791666,131.16317966041666,68.0,87.0
509,130.47366419791666,131.25995376041666,61.0,88.0
510,131.44140519791665,132.11680777083333,68.0,83.0
511,131.44140519791665,132.13092066041665,63.0,88.0
512,131.44140519791665,132.17325932916665,60.0,83.0
513,132.16721094791666,132.47769451874998,54.0,48.0
514,132.16721094791666,132.5684202375,42.0,38.0
515,132.40914619791667,132.77608132708332,60.0,96.0
516,132.65108144791665,132.79221034374999,54.0,80.0
517,132.40914619791667,132.79221034374999,68.0,88.0
518,132.65108144791665,132.86075866458333,42.0,71.0
519,132.89301669791666,133.11680680416666,63.0,88.0
520,133.13495194791665,133.33858078333333,68.0,84.0
521,133.37688719791666,134.02809624583332,60.0,83.0
522,133.37688719791666,134.03011237291665,68.0,77.0
523,133.37688719791666,134.07043491458333,63.0,88.0
524,133.37688719791666,134.46357969583332,53.0,80.0
525,133.37688719791666,134.76801488541665,41.0,79.0
526,134.34462819791665,134.8385793333333,60.0,88.0
527,134.34462819791665,135.16922417499998,63.0,91.0
528,134.34462819791665,135.20349833541667,68.0,87.0
529,134.82849869791667,135.26801440208334,53.0,78.0
530,135.31236919791667,136.0039007875,58.0,76.0
531,135.31236919791667,136.11680390416666,65.0,84.0
532,135.31236919791667,136.3143843583333,61.0,83.0
533,135.31236919791667,136.65914208958333,68.0,80.0
534,136.28011019791666,136.73373879166667,58.0,83.0
535,136.03817494791667,136.765996825,53.0,73.0
536,135.31236919791667,136.82244838333332,46.0,83.0
537,136.52204544791667,136.91115797499998,60.0,85.0
538,136.76398069791665,137.1409964625,61.0,83.0
539,137.24785119791665,137.98373758333332,66.0,83.0
540,137.24785119791665,137.98978596458332,58.0,86.0
541,137.24785119791665,138.02809237916665,63.0,84.0
542,138.21559219791666,138.91922055,66.0,87.0
543,138.21559219791666,138.96962372708333,58.0,84.0
544,138.21559219791666,138.98373661666665,63.0,90.0
545,137.24785119791665,139.01801077708333,51.0,83.0
546,139.18333319791665,139.80430033958334,68.0,82.0
547,139.18333319791665,139.80833259374998,63.0,79.0
548,139.18333319791665,139.86276802499998,60.0,75.0
549,140.15107419791667,140.69542851041666,60.0,73.0
550,139.18333319791665,140.72365428958332,44.0,81.0
551,140.15107419791667,140.82244451666665,68.0,78.0
552,140.15107419791667,140.99179919166667,63.0,80.0
553,141.11881519791666,141.60873407916665,58.0,80.0
554,141.11881519791666,141.80631453333334,65.0,83.0
555,141.11881519791666,141.8486532020833,61.0,80.0
556,141.84462094791667,142.22566896666666,58.0,82.0
557,142.57042669791667,142.81034582083333,58.0,82.0
558,142.08655619791665,142.82042645625,60.0,98.0
559,141.11881519791666,142.87082963333333,46.0,76.0
560,141.60268569791666,143.08252297708333,53.0,63.0
561,142.81236194791666,143.24582927083333,61.0,88.0
562,143.78010294791665,143.94340924166667,65.0,89.0
563,143.53816769791666,144.10671553541667,58.0,86.0
564,144.02203819791666,144.37284431041667,70.0,110.0
565,143.05429719791667,144.70550527916666,46.0,81.0
566,143.29623244791665,144.83856966666667,53.0,79.0
567,144.50590869791665,144.86477931874998,72.0,116.0
568,144.98977919791665,145.6329237375,73.0,94.0
569,144.98977919791665,145.68332691458332,65.0,36.0
570,144.98977919791665,145.68735916875,70.0,38.0
571,145.71558494791665,146.06034267916667,58.0,74.0
572,145.95752019791666,146.54421317916666,65.0,104.0
573,145.95752019791666,146.60872924583333,70.0,113.0
574,144.98977919791665,146.63292277083332,46.0,81.0
575,146.44139069791666,146.68332594791667,58.0,82.0
576,145.95752019791666,146.7458258875,73.0,96.0
577,146.92526119791665,147.30026083541665,66.0,91.0
578,146.92526119791665,147.65509920208333,70.0,87.0
579,146.92526119791665,147.73574428541667,63.0,88.0
580,147.65106694791666,148.06034074583332,58.0,80.0
581,148.37687269791667,148.47364679791667,58.0,87.0
582,146.92526119791665,148.4837274333333,51.0,86.0
583,147.89300219791667,148.49179194166666,63.0,96.0
584,147.89300219791667,148.51598546666665,66.0,93.0
585,147.89300219791667,148.59864667708334,70.0,102.0
586,148.86074319791666,149.56033929583333,68.0,88.0
587,148.86074319791666,149.61679085416665,60.0,86.0
588,148.86074319791666,149.65711339583333,63.0,92.0
589,149.58654894791667,149.91316153541666,56.0,88.0
590,148.86074319791666,150.33856434999998,44.0,86.0
591,149.82848419791665,150.39501590833333,60.0,110.0
592,149.34461369791666,150.411144925,51.0,79.0
593,149.82848419791665,150.58856410833332,68.0,100.0
594,150.31235469791665,150.71961236874998,63.0,87.0
595,150.31235469791665,150.81033808749999,56.0,82.0
596,150.79622519791667,151.040176575,61.0,86.0
597,150.79622519791667,151.282111825,65.0,88.0
598,150.79622519791667,151.3869504333333,68.0,86.0
599,151.52203094791665,151.69138562291667,63.0,90.0
600,151.28009569791666,151.78009521458333,61.0,83.0
601,152.00590144791667,152.18936901249998,61.0,90.0
602,151.76396619791666,152.24783669791665,68.0,117.0
603,151.03816044791665,152.25791733333332,56.0,83.0
604,150.79622519791667,152.29219149374998,49.0,83.0
605,152.24783669791665,152.53009448958332,63.0,102.0
606,152.48977194791667,152.70146529166666,65.0,86.0
607,152.73170719791665,153.23372284166666,66.0,93.0
608,152.73170719791665,153.31840017916664,58.0,91.0
609,152.73170719791665,153.31840017916664,61.0,100.0
610,153.21557769791667,153.76396426458334,54.0,64.0
611,153.69944819791667,154.21356060416664,58.0,100.0
612,153.69944819791667,154.378883025,66.0,93.0
613,152.73170719791665,154.42323782083332,42.0,90.0
614,153.69944819791667,154.49783452291666,61.0,108.0
615,154.18331869791666,154.51799579375,54.0,79.0
616,154.66718919791666,155.18533385833334,54.0,86.0
617,154.66718919791666,155.443398125,66.0,96.0
618,154.66718919791666,155.4796884125,63.0,110.0
619,154.66718919791666,155.4938013020833,60.0,92.0
620,155.39299494791666,155.75388169583331,54.0,82.0
621,155.63493019791665,156.17323612916667,66.0,102.0
622,155.63493019791665,156.19339739999998,60.0,102.0
623,155.63493019791665,156.21154254375,63.0,113.0
624,154.66718919791666,156.24178444999998,42.0,84.0
625,156.11880069791667,156.29621988124998,54.0,80.0
626,157.08654169791666,157.5986379770833,53.0,74.0
627,157.57041219791665,157.98170212291666,58.0,108.0
628,156.60267119791666,158.31234696458333,41.0,92.0
629,157.81234744791666,158.4312984625,53.0,86.0
630,158.05428269791665,158.43734684375,60.0,98.0
631,158.53815319791667,158.65912082291666,53.0,85.0
632,158.53815319791667,159.24379767708334,65.0,110.0
633,158.53815319791667,159.30024923541666,57.0,106.0
634,159.26395894791665,159.56839413749998,53.0,93.0
635,159.50589419791666,159.74782944791667,65.0,107.0
636,159.50589419791666,159.90307123333332,57.0,106.0
637,158.53815319791667,159.97766793541666,41.0,87.0
638,159.98976469791666,160.1248452125,57.0,66.0
639,159.98976469791666,160.12887746666667,65.0,88.0
640,159.74782944791667,160.34460306458334,53.0,93.0
641,159.98976469791666,160.35669982708333,60.0,91.0
642,160.47363519791665,160.53210288333332,44.0,84.0
643,160.47363519791665,160.7054898125,58.0,100.0
644,160.47363519791665,160.92726379166666,65.0,108.0
645,160.47363519791665,161.04218303541666,61.0,110.0
646,161.19944094791666,161.50992451874998,58.0,86.0
647,161.44137619791667,161.73573075208333,61.0,104.0
648,160.47363519791665,161.9998434,46.0,85.0
649,160.95750569791664,162.00589178125,53.0,75.0
650,161.44137619791667,162.04419819583333,65.0,113.0
651,161.44137619791667,162.05226270416665,70.0,107.0
652,161.92524669791666,162.27202055625,58.0,84.0
653,162.40911719791666,162.61677828749998,63.0,94.0
654,162.40911719791666,162.82443937708334,70.0,102.0
655,162.40911719791666,162.8708103,66.0,108.0
656,162.89298769791665,163.37080981666665,63.0,84.0
657,163.13492294791666,163.3990355958333,65.0,102.0
658,163.13492294791666,163.67726113333333,70.0,96.0
659,163.37685819791665,163.68532564166665,66.0,100.0
660,163.61879344791666,163.84459968125,63.0,104.0
661,162.65105244791667,163.87887384166666,58.0,82.0
662,162.40911719791666,163.9474221625,51.0,89.0
663,163.86072869791667,164.15911550625,66.0,104.0
664,164.10266394791665,164.28209925833332,75.0,104.0
665,164.34459919791666,164.51193774583334,70.0,89.0
666,164.34459919791666,164.77201813958334,75.0,85.0
667,164.34459919791666,164.83451807916666,72.0,110.0
668,164.34459919791666,164.85064709583332,68.0,92.0
669,165.07040494791667,165.37282401041665,56.0,87.0
670,165.31234019791665,165.67927532708333,68.0,113.0
671,164.34459919791666,165.82242035,44.0,88.0
672,164.82846969791666,165.84258162083333,51.0,80.0
673,165.31234019791665,165.91516219583332,60.0,107.0
674,165.79621069791665,166.17524258958332,63.0,100.0
675,166.03814594791666,166.20145224166666,68.0,98.0
676,165.55427544791667,166.23975865625,56.0,86.0
677,166.28008119791664,166.66919372499999,61.0,96.0
678,166.28008119791664,167.01596758333332,68.0,90.0
679,166.28008119791664,167.07443526875,65.0,108.0
680,167.00588694791665,167.27604797708332,61.0,86.0
681,166.76395169791667,167.3224189,56.0,76.0
682,167.24782219791666,167.62483796249998,63.0,114.0
683,167.24782219791666,167.66112825,68.0,113.0
684,167.48975744791665,167.76798298541667,56.0,89.0
685,166.28008119791664,167.86878933958332,49.0,86.0
686,167.73169269791666,167.98572471041666,65.0,104.0
687,168.21556319791665,168.63693375833333,58.0,100.0
688,167.97362794791667,168.93733669374998,68.0,89.0
689,168.21556319791665,168.96556247291664,61.0,89.0
690,169.18330419791667,169.27604604375,58.0,107.0
691,168.94136894791666,169.31838471249998,54.0,84.0
692,169.18330419791667,169.83048099166666,68.0,107.0
693,168.21556319791665,169.94338410833333,42.0,87.0
694,169.66717469791666,170.00185179374998,54.0,86.0
695,169.18330419791667,170.0320937,61.0,113.0
696,170.15104519791666,170.78410910208333,70.0,94.0
697,170.15104519791666,170.86072193125,66.0,104.0
698,170.15104519791666,170.86878643958332,63.0,94.0
699,170.87685094791667,171.21556029791665,58.0,80.0
700,170.15104519791666,171.37080208333333,51.0,88.0
701,171.11878619791665,171.60668895208332,63.0,100.0
702,171.11878619791665,171.68128565416666,70.0,102.0
703,171.60265669791667,171.72765657708334,51.0,44.0
704,171.11878619791665,171.73168883124998,66.0,108.0
705,172.08652719791667,172.84055872708333,69.0,88.0
706,172.08652719791667,172.84257485416666,60.0,88.0
707,172.08652719791667,172.84459098124998,63.0,100.0
708,172.81233294791664,173.10467137499998,53.0,77.0
709,173.05426819791666,173.59257412916665,60.0,92.0
710,173.05426819791666,173.61878378125,69.0,87.0
711,173.05426819791666,173.63894505208333,63.0,98.0
712,173.53813869791665,173.80829972708332,53.0,72.0
713,172.08652719791667,173.86475128541665,41.0,88.0
714,174.02200919791665,174.70346015208332,60.0,87.0
715,174.02200919791665,174.76394396458332,63.0,89.0
716,174.02200919791665,174.76797621875,69.0,86.0
717,174.02200919791665,174.7740246,65.0,88.0
718,174.74781494791665,175.0421695020833,53.0,80.0
719,174.02200919791665,175.40104012291667,41.0,83.0
720,174.98975019791666,175.40104012291667,60.0,87.0
721,175.47362069791666,175.86676547916665,63.0,84.0
722,174.98975019791666,175.88894287708334,69.0,81.0
723,175.23168544791665,175.9353138,53.0,82.0
724,175.95749119791665,176.53410354374998,70.0,87.0
725,176.19942644791666,176.58853897499998,65.0,30.0
726,175.95749119791665,176.74176463333333,61.0,83.0
727,176.68329694791666,177.26595767499998,58.0,83.0
728,176.92523219791667,177.61273153333332,60.0,90.0
729,177.40910269791667,178.63490796458333,58.0,58.0
730,176.44136169791665,178.95547217083333,53.0,65.0
731,177.65103794791665,178.95547217083333,61.0,80.0
732,175.95749119791665,178.9957947125,46.0,79.0
733,180.31232569791666,180.84458324791666,58.0,84.0
734,180.55426094791665,180.92926058541667,61.0,77.0
735,180.79619619791666,181.24176028333332,70.0,91.0
736,180.07039044791665,181.44942137291665,53.0,76.0
737,179.82845519791667,181.4514375,46.0,84.0
738,181.28006669791665,181.54619547291665,61.0,81.0
739,181.03813144791667,181.61675992083332,58.0,84.0
740,181.52200194791666,181.99982406666666,70.0,86.0
741,182.00587244791666,182.19942064791667,63.0,65.0
742,182.24780769791667,182.47361393125,66.0,85.0
743,182.00587244791666,182.79216201041666,58.0,80.0
744,182.48974294791665,182.87482322083332,63.0,78.0
745,182.97361344791665,183.13893586875,58.0,82.0
746,181.76393719791665,183.1933713,51.0,83.0
747,182.73167819791666,183.41514527916667,70.0,93.0
748,183.21554869791666,183.48167747291666,63.0,88.0
749,183.4675645833333,183.58449995416666,66.0,93.0
750,183.69740307083333,184.34054761041665,68.0,93.0
751,183.69941919791665,184.47966037916666,60.0,100.0
752,184.42522494791666,184.69941823124998,56.0,86.0
753,184.66716019791664,184.97764376875,60.0,107.0
754,184.66716019791664,185.01393405624998,68.0,114.0
755,183.69941919791665,185.21756289166666,44.0,86.0
756,183.94135444791667,185.23570803541665,51.0,77.0
757,185.15103069791667,185.56836900416667,63.0,93.0
758,185.39296594791665,185.58449802083334,68.0,102.0
759,184.90909544791666,185.64699796041666,56.0,88.0
760,185.63490119791666,185.878852575,61.0,90.0
761,185.63490119791666,186.06030401249998,65.0,104.0
762,185.63490119791666,186.11272331666666,68.0,88.0
763,186.36070694791667,186.4191746333333,68.0,91.0
764,186.36070694791667,186.44941653958332,63.0,91.0
765,186.11877169791666,186.54215838541666,61.0,86.0
766,186.60264219791665,186.87481935416665,68.0,116.0
767,186.60264219791665,186.90909351458333,65.0,116.0
768,186.84457744791666,187.02401275833333,61.0,104.0
769,185.87683644791665,187.07038368124998,56.0,81.0
770,185.63490119791666,187.11070622291666,49.0,84.0
771,187.08651269791665,187.36473823541667,68.0,108.0
772,187.08651269791665,187.4232059208333,65.0,107.0
773,187.57038319791667,188.24780189791664,70.0,104.0
774,187.57038319791667,188.28610831249998,61.0,98.0
775,187.57038319791667,188.29014056666665,66.0,110.0
776,188.29618894791665,188.64497893333333,54.0,80.0
777,187.57038319791667,189.01393018958333,42.0,88.0
778,188.53812419791666,189.24376867708332,61.0,108.0
779,188.53812419791666,189.3022363625,70.0,102.0
780,188.53812419791666,189.33852664999998,66.0,114.0
781,189.02199469791665,189.40909109791664,54.0,83.0
782,189.50586519791665,190.2115096770833,70.0,94.0
783,189.50586519791665,190.23771932916665,63.0,94.0
784,189.50586519791665,190.24175158333333,66.0,107.0
785,190.23167094791665,190.59457382291666,58.0,87.0
786,190.47360619791667,190.9494121895833,63.0,104.0
787,190.95747669791666,191.05021854375,58.0,87.0
788,189.50586519791665,191.06231530624999,51.0,88.0
789,190.47360619791667,191.153041025,70.0,104.0
790,190.47360619791667,191.27804090416666,66.0,113.0
791,191.44134719791666,192.22965288749998,60.0,92.0
792,191.44134719791666,192.25586253958332,69.0,91.0
793,191.44134719791666,192.25787866666667,65.0,107.0
794,192.16715294791666,192.48973328124998,53.0,88.0
795,192.40908819791665,193.15707134583332,69.0,106.0
796,191.44134719791666,193.19134550625,41.0,86.0
797,192.40908819791665,193.19134550625,60.0,107.0
798,192.40908819791665,193.20142614166664,65.0,113.0
799,191.92521769791665,193.24981319166665,48.0,67.0
800,192.89295869791667,193.24981319166665,53.0,81.0
801,193.37682919791666,193.87884484166665,69.0,100.0
802,193.37682919791666,193.90505449375,60.0,90.0
803,193.37682919791666,193.90505449375,65.0,107.0
804,193.86069969791666,194.13287685416665,53.0,93.0
805,193.61876444791665,194.15908650625,48.0,83.0
806,194.10061882083332,194.53005388958331,69.0,113.0
807,194.10061882083332,194.53207001666667,65.0,116.0
808,194.10061882083332,194.54013452499998,60.0,104.0
809,193.37682919791666,194.83852133333332,41.0,93.0
810,194.58650544791666,194.85868260416666,48.0,30.0
811,194.58650544791666,194.93327930625,53.0,107.0
812,194.82844069791665,195.05827918541667,60.0,104.0
813,194.82844069791665,195.16715004791666,65.0,96.0
814,194.82844069791665,195.17319842916666,69.0,109.0
815,195.31231119791664,195.99577827916664,61.0,108.0
816,195.31231119791664,196.04618145625,70.0,113.0
817,195.31231119791664,196.088520125,65.0,116.0
818,196.03811694791665,196.3183586125,58.0,87.0
819,196.28005219791666,196.7417453,70.0,108.0
820,196.28005219791666,196.74779368125,61.0,110.0
821,196.28005219791666,196.77400333333333,65.0,116.0
822,195.31231119791664,196.96956766041666,46.0,94.0
823,195.79618169791667,196.97561604166665,53.0,73.0
824,197.00585794791667,197.07642239583333,61.0,93.0
825,197.00585794791667,197.09658366666665,65.0,107.0
826,197.00585794791667,197.10061592083332,70.0,94.0
827,196.76392269791666,197.11472881041666,58.0,87.0
828,197.24779319791665,197.47561555833332,70.0,102.0
829,197.24779319791665,197.4816639395833,63.0,107.0
830,197.24779319791665,197.4816639395833,66.0,113.0
831,197.48972844791666,197.5360993708333,66.0,110.0
832,197.48972844791666,197.55222838749998,70.0,94.0
833,197.48972844791666,197.55626064166665,63.0,107.0
834,197.97359894791666,198.46351782916665,70.0,110.0
835,197.97359894791666,198.49577586249998,63.0,110.0
836,197.97359894791666,198.50585649791665,66.0,116.0
837,198.45746944791665,198.72561435,58.0,87.0
838,197.24779319791665,198.77198527291665,51.0,82.0
839,198.69940469791666,198.98166248958333,70.0,107.0
840,198.69940469791666,198.99577537916664,66.0,116.0
841,198.69940469791666,199.04214630208332,63.0,113.0
842,199.18327519791666,199.911097075,60.0,108.0
843,199.18327519791666,199.91916158333333,68.0,107.0
844,199.18327519791666,199.96553250624999,63.0,114.0
845,199.90908094791666,200.15908070625,56.0,88.0
846,200.15101619791665,200.66916085833333,68.0,107.0
847,200.15101619791665,200.68730600208332,63.0,116.0
848,200.15101619791665,200.6973866375,60.0,113.0
849,199.18327519791666,200.88287032916665,44.0,93.0
850,199.66714569791665,200.90706385416667,51.0,65.0
851,200.87682194791665,200.93528963333333,68.0,88.0
852,200.87682194791665,200.94738639583332,63.0,94.0
853,200.87682194791665,200.94940252291664,60.0,88.0
854,200.87682194791665,200.98972506458333,56.0,81.0
855,201.11875719791666,201.62278896875,65.0,110.0
856,201.11875719791666,201.62278896875,68.0,102.0
857,201.11875719791666,201.6489986208333,61.0,102.0
858,201.84456294791664,201.88488548958333,65.0,110.0
859,201.84456294791664,201.89698225208332,68.0,96.0
860,201.84456294791664,201.89899837916664,61.0,100.0
861,201.48166007291667,202.32036893958332,56.0,73.0
862,202.57036869791665,202.66512667083333,56.0,98.0
863,201.11875719791666,202.69133632291667,49.0,89.0
864,202.32843344791667,202.79012655,65.0,113.0
865,202.32843344791667,202.81835232916666,68.0,102.0
866,202.32843344791667,202.88085226874998,61.0,102.0
867,203.05423919791664,203.73770627916664,66.0,104.0
868,203.05423919791664,203.7598836770833,61.0,107.0
869,203.05423919791664,203.76996431249998,58.0,98.0
870,203.78004494791665,204.14093169583333,54.0,84.0
871,204.02198019791666,204.48972168125,66.0,102.0
872,204.02198019791666,204.52802809583332,58.0,108.0
873,204.02198019791666,204.52802809583332,61.0,114.0
874,203.05423919791664,204.62480219583333,42.0,91.0
875,204.50585069791666,204.63286670416664,54.0,85.0
876,204.62681832291665,204.73972143958332,66.0,88.0
877,204.62681832291665,204.74173756666664,58.0,92.0
878,204.62681832291665,204.74173756666664,61.0,91.0
879,204.98972119791665,205.53004325625,66.0,104.0
880,204.98972119791665,205.5441561458333,58.0,104.0
881,204.98972119791665,205.5441561458333,63.0,113.0
882,204.98972119791665,205.54617227291666,61.0,110.0
883,205.59455932291667,205.64093024583332,63.0,114.0
884,205.59455932291667,205.6449625,61.0,114.0
885,205.59455932291667,205.6449625,66.0,104.0
886,205.59455932291667,205.65101088125,58.0,100.0
887,205.35262407291665,205.65705926249998,51.0,76.0
888,204.98972119791665,206.50181651041666,39.0,94.0
889,206.19939744791665,206.53407454375,51.0,102.0
890,206.44133269791666,206.56431644999998,58.0,107.0
891,206.44133269791666,206.57036483124998,63.0,110.0
892,206.44133269791666,206.58649384791664,61.0,113.0
893,206.44133269791666,206.6026228645833,66.0,107.0
894,207.40907369791665,207.57439611875,58.0,88.0
895,207.16713844791664,207.6893153625,53.0,94.0
896,207.65100894791667,207.8586700375,65.0,94.0
897,207.65100894791667,208.08447627083333,60.0,108.0
898,208.13487944791666,208.46149203541665,58.0,100.0
899,207.89294419791665,208.47358879791665,53.0,108.0
900,206.92520319791666,208.52197584791665,41.0,102.0
901,208.37681469791664,208.77197560624998,60.0,93.0
902,208.61874994791665,208.77197560624998,65.0,90.0
903,208.86068519791667,209.35262020624998,53.0,96.0
904,208.86068519791667,209.540120025,65.0,92.0
905,208.86068519791667,209.58447482083332,57.0,103.0
906,208.86068519791667,209.59657158333331,60.0,94.0
907,209.58649094791664,209.91108740833332,53.0,107.0
908,209.82842619791666,210.23366774166666,57.0,109.0
909,209.82842619791666,210.25786126666665,65.0,108.0
910,208.86068519791667,210.314312825,41.0,91.0
911,209.82842619791666,210.34455473124999,60.0,116.0
912,210.31229669791665,210.68326408125,53.0,91.0
913,210.79616719791665,211.00584441458332,58.0,88.0
914,210.79616719791665,211.36471503541665,65.0,91.0
915,210.79616719791665,211.38689243333332,61.0,91.0
916,211.28003769791667,211.73769854583333,58.0,86.0
917,211.52197294791665,211.78205334166665,60.0,88.0
918,211.76390819791666,212.01189182916664,61.0,86.0
919,211.03810244791666,214.2356800020833,53.0,76.0
920,212.24777869791666,214.26592190833333,65.0,78.0
921,212.73164919791665,214.26793803541665,73.0,78.0
922,210.79616719791665,214.27398641666665,46.0,84.0
923,212.48971394791664,214.29213156041666,70.0,82.0
924,212.00584344791665,214.30826057708333,58.0,91.0
925,215.63487219791665,217.12075785833332,66.0,83.0
926,216.11874269791664,217.19938681458333,70.0,67.0
927,216.60261319791667,217.70946696666667,78.0,86.0
928,217.57035419791666,217.98366024999999,66.0,73.0
929,215.15100169791666,218.10261174791665,61.0,74.0
930,214.66713119791666,218.17720845,54.0,82.0
931,217.08648369791666,218.53003068958333,73.0,80.0
932,218.05422469791665,218.54817583333332,70.0,73.0
933,219.02196569791664,222.5703493645833,56.0,71.0
934,218.53809519791665,222.58849450833333,44.0,81.0
935,220.47357719791665,222.82236525,63.0,73.0
936,219.50583619791666,222.84655877499998,60.0,65.0
937,219.98970669791666,222.87680068125,68.0,84.0
938,224.34454119791664,224.97357284791664,60.0,70.0
939,224.82841169791666,225.37679826458333,61.0,77.0
940,225.31228219791666,225.40300791666667,68.0,80.0
941,223.86067069791665,226.59857127708332,58.0,76.0
942,225.91712032291665,226.61268416666667,70.0,64.0
943,223.37680019791665,226.62478092916666,53.0,70.0
944,222.89292969791666,226.62881318333334,46.0,77.0
