,start,end,pitch,velocity
0,32.22475531875,32.472351439583335,65.0,88.0
1,32.513216818749996,32.69470717916666,70.0,77.0
2,32.80167831875,32.9639379125,70.0,78.0
3,33.090139818749996,33.31970709583333,70.0,78.0
4,33.37860131875,33.61177436458333,68.0,75.0
5,33.66706281875,33.9014377875,70.0,77.0
6,33.95552431875,34.176678135416665,73.0,76.0
7,34.24398581875,34.47355309583333,72.0,73.0
8,34.53244731875,36.50600474791666,70.0,77.0
9,36.84013931875,37.06850467291667,65.0,85.0
10,37.12860081875,37.316100793749996,70.0,75.0
11,37.41706231875,37.57571614375,70.0,75.0
12,37.70552381875,37.90263917708333,70.0,77.0
13,37.99398531875,38.22355259583333,63.0,75.0
14,38.282446818749996,38.49638909791666,65.0,75.0
15,38.57090831875,38.80167751875,68.0,74.0
16,38.85936981875,39.13461016666667,67.0,77.0
17,39.14783131875,41.02162914583333,65.0,78.0
18,41.45552331875,42.185090529166665,65.0,85.0
19,42.32090781875,42.513215485416666,73.0,71.0
20,42.60936931875,42.89783081875,68.0,71.0
21,42.89783081875,43.13701347916667,70.0,65.0
22,43.18629231875,43.706724941666664,73.0,75.0
23,43.76321531875,44.08172489166667,68.0,66.0
24,44.051676818749996,44.31129216875,70.0,70.0
25,44.34013831875,44.64783058541666,68.0,71.0
26,44.62859981875,44.918263241666665,66.0,71.0
27,44.91706131875,45.78244581875,65.0,71.0
28,46.070907318749995,46.27162844583333,63.0,72.0
29,46.35936881875,46.55888802291666,63.0,70.0
30,46.647830318749996,46.8461476,63.0,75.0
31,46.93629181875,47.149032175,58.0,76.0
32,47.22475331875,47.427878291666666,68.0,74.0
33,47.51321481875,47.72835902083333,67.0,75.0
34,47.80167631875,48.008407060416666,65.0,72.0
35,48.09013781875,48.344945477083336,63.0,73.0
36,48.37859931875,50.41946443125,65.0,73.0
37,50.68629131875,50.93388743958333,65.0,88.0
38,50.97475281875,51.156243179166665,70.0,77.0
39,51.26321431875,51.425473912499996,70.0,78.0
40,51.55167581875,51.78124309583333,70.0,78.0
41,51.840137318749996,52.073310364583335,68.0,75.0
42,52.12859881875,52.362973787499996,70.0,77.0
43,52.417060318749996,52.63821413541667,73.0,76.0
44,52.70552181875,52.935089095833334,72.0,73.0
45,52.99398331875,54.967540747916665,70.0,77.0
46,55.30167531875,55.53004067291666,65.0,85.0
47,55.59013681875,55.77763679375,70.0,75.0
48,55.87859831875,56.037252143749996,70.0,75.0
49,56.16705981875,56.36417517708333,70.0,77.0
50,56.45552131875,56.685088595833335,63.0,75.0
51,56.74398281875,56.957925097916664,65.0,75.0
52,57.032444318749995,57.26321351875,68.0,74.0
53,57.32090581875,57.596146166666664,67.0,77.0
54,57.609367318749996,59.48316514583333,65.0,78.0
55,59.91705931875,60.64662652916667,65.0,85.0
56,60.78244381875,60.97475148541667,73.0,71.0
57,61.07090531875,61.35936681875,68.0,71.0
58,61.35936681875,61.598549479166664,70.0,65.0
59,61.64782831875,62.16826094166667,73.0,75.0
60,62.22475131875,62.54326089166666,68.0,66.0
61,62.51321281875,62.772828168749996,70.0,70.0
62,62.801674318749996,63.109366585416666,70.0,71.0
63,63.09013581875,63.37979924166667,68.0,71.0
64,63.378597318749996,63.66705881875,65.0,71.0
65,63.66705881875,63.95552031875,63.0,71.0
66,63.95552031875,64.53244331875,61.0,71.0
67,64.53244331875,64.69951060416666,75.0,78.0
68,64.82090481875,64.97475095208333,75.0,82.0
69,65.10936631874999,65.33412590416667,75.0,85.0
70,65.39782781875,65.62018355833334,73.0,76.0
71,65.68628931875,65.92186621041667,72.0,87.0
72,65.97475081875,66.19229886666666,70.0,76.0
73,66.26321231874999,66.78484686458333,68.0,77.0
74,66.84013531875,70.43628868541667,70.0,77.0
75,71.45551931874999,71.67426928958334,70.0,82.0
76,71.74398081875,71.92787502499999,77.0,78.0
77,72.03244231875,72.20071152708333,77.0,77.0
78,72.32090381875,72.49157687291667,77.0,77.0
79,72.60936531875,73.32931714583333,77.0,82.0
80,73.47474981875,73.69349978958333,73.0,77.0
81,73.76321131875,75.92547064583333,75.0,80.0
82,76.07090331875,76.23196098958333,75.0,76.0
83,76.35936481875,76.51681672083333,75.0,76.0
84,76.64782631874999,76.8245089875,75.0,82.0
85,76.93628781875,77.13340317708334,77.0,78.0
86,77.22474931875,77.46273005625,72.0,78.0
87,77.51321081875,77.71633579166667,70.0,75.0
88,77.80167231875,78.32811455625,68.0,75.0
89,78.37859531875,80.29926813958333,70.0,75.0
90,80.68628731875,81.35455646041666,70.0,77.0
91,81.55167181875,81.75359486875,75.0,68.0
92,81.84013331874999,82.41705631875,75.0,73.0
93,82.41705631875,82.67186397708333,73.0,72.0
94,82.70551781875,82.99397931875,70.0,75.0
95,82.99397931875,83.28244081875,68.0,73.0
96,83.28244081875,83.53003693958333,70.0,72.0
97,83.57090231875,84.11777724583334,68.0,74.0
98,84.14782531875,85.14902710833333,65.0,77.0
99,85.30167131875,85.66104627083332,75.0,78.0
100,85.87859431875,86.37859425208333,75.0,80.0
101,86.45551731875,86.72594997499999,73.0,73.0
102,86.74397881875,87.0360460875,70.0,73.0
103,87.03244031874999,87.35094989166666,73.0,73.0
104,87.32090181875,87.67667100208332,75.0,77.0
105,87.60936331875,89.78965148958333,77.0,75.0
106,89.91705531875,90.13580528958333,70.0,82.0
107,90.20551681875,90.389411025,77.0,78.0
108,90.49397831875,90.66224752708334,77.0,77.0
109,90.78243981874999,90.95311287291666,77.0,77.0
110,91.07090131875,91.79085314583332,77.0,82.0
111,91.93628581875,92.15503578958334,73.0,77.0
112,92.22474731874999,94.38700664583332,75.0,80.0
113,94.53243931875,94.69349698958334,75.0,76.0
114,94.82090081874999,94.97835272083333,75.0,76.0
115,95.10936231875,95.28604498749999,75.0,82.0
116,95.39782381875,95.59493917708333,77.0,78.0
117,95.68628531875,95.92426605624999,72.0,78.0
118,95.97474681874999,96.17787179166666,70.0,75.0
119,96.26320831875,96.78965055625,68.0,75.0
120,96.84013131875,98.76080413958333,70.0,75.0
121,99.14782331875,99.81609246041667,70.0,77.0
122,100.01320781875,100.21513086875,75.0,68.0
123,100.30166931875,100.87859231875,75.0,73.0
124,100.87859231875,101.13339997708333,73.0,72.0
125,101.16705381874999,101.45551531875,70.0,75.0
126,101.45551531875,101.74397681875,68.0,73.0
127,101.74397681875,101.99157293958334,70.0,72.0
128,102.03243831875,102.57931324583333,68.0,74.0
129,102.60936131875,103.61056310833332,65.0,77.0
130,103.76320731874999,104.05166881875,75.0,78.0
131,104.05166881875,104.34013031875,75.0,78.0
132,104.34013031875,104.62859181875,75.0,80.0
133,104.62859181875,104.91705331874999,77.0,80.0
134,104.91705331874999,105.187485975,73.0,73.0
135,105.20551481875,105.49758208749999,70.0,73.0
136,105.49397631875,105.49758208749999,70.0,73.0
137,105.78243781875,106.13820700208333,68.0,77.0
138,106.07089931875,108.25118748958333,70.0,75.0
139,131.45551131874998,131.70310743958333,65.0,88.0
140,131.74397281875,131.92546317916666,70.0,77.0
141,132.03243431875,132.1946939125,70.0,78.0
142,132.32089581875,132.55046309583332,70.0,78.0
143,132.60935731875,132.84253036458333,68.0,75.0
144,132.89781881874998,133.1321937875,70.0,77.0
145,133.18628031875,133.40743413541665,73.0,76.0
146,133.47474181875,133.70430909583334,72.0,73.0
147,133.76320331875,135.73676074791666,70.0,77.0
148,136.07089531875,136.29926067291666,65.0,85.0
149,136.35935681875,136.54685679375,70.0,75.0
150,136.64781831874998,136.80647214375,70.0,75.0
151,136.93627981875,137.13339517708334,70.0,77.0
152,137.22474131875,137.45430859583334,63.0,75.0
153,137.51320281875,137.72714509791666,65.0,75.0
154,137.80166431875,138.03243351875,68.0,74.0
155,138.09012581875,138.36536616666666,67.0,77.0
156,138.37858731875,140.25238514583333,65.0,78.0
157,140.68627931875,141.41584652916666,65.0,85.0
158,141.55166381875,141.74397148541667,73.0,71.0
159,141.84012531874998,142.12858681875,68.0,71.0
160,142.12858681875,142.36776947916667,70.0,65.0
161,142.41704831875,142.93748094166665,73.0,75.0
162,142.99397131875,143.31248089166667,68.0,66.0
163,143.28243281875,143.54204816875,70.0,70.0
164,143.57089431875,143.87858658541666,70.0,71.0
165,143.85935581875,144.14901924166665,68.0,71.0
166,144.14781731875,144.43627881875,65.0,71.0
167,144.43627881875,144.72474031875,63.0,71.0
168,144.72474031875,145.30166331875,61.0,71.0
169,145.30166331875,145.46873060416667,75.0,78.0
170,145.59012481874998,145.74397095208332,75.0,82.0
171,145.87858631875,146.10334590416667,75.0,85.0
172,146.16704781875,146.38940355833333,73.0,76.0
173,146.45550931875,146.69108621041667,72.0,87.0
174,146.74397081875,146.96151886666667,70.0,76.0
175,147.03243231874998,147.55406686458332,68.0,77.0
176,147.60935531875,151.20550868541667,70.0,77.0
177,152.22473931874998,152.44348928958334,70.0,82.0
178,152.51320081875,152.697095025,77.0,78.0
179,152.80166231875,152.96993152708333,77.0,77.0
180,153.09012381875,153.26079687291667,77.0,77.0
181,153.37858531875,154.09853714583332,77.0,82.0
182,154.24396981875,154.46271978958333,73.0,77.0
183,154.53243131874999,156.69469064583333,75.0,80.0
184,156.84012331875,157.00118098958333,75.0,76.0
185,157.12858481875,157.28603672083332,75.0,76.0
186,157.41704631874998,157.5937289875,75.0,82.0
187,157.70550781875,157.90262317708334,77.0,78.0
188,157.99396931875,158.23195005624999,72.0,78.0
189,158.28243081875,158.48555579166666,70.0,75.0
190,158.57089231875,159.09733455625,68.0,75.0
191,159.14781531875,161.06848813958334,70.0,75.0
192,161.45550731875,162.12377646041665,70.0,77.0
193,162.32089181875,162.52281486875,75.0,68.0
194,162.60935331874998,163.18627631875,75.0,73.0
195,163.18627631875,163.44108397708334,73.0,72.0
196,163.47473781875,163.76319931875,70.0,75.0
197,163.76319931875,164.05166081875,68.0,73.0
198,164.05166081875,164.29925693958333,70.0,72.0
199,164.34012231875,164.88699724583333,68.0,74.0
200,164.91704531874998,165.91824710833333,65.0,77.0
201,166.07089131875,166.43026627083333,75.0,78.0
202,166.64781431875,167.14781425208332,75.0,80.0
203,167.22473731875,167.49516997499998,73.0,73.0
204,167.51319881875,167.8052660875,70.0,73.0
205,167.80166031875,168.12016989166665,73.0,73.0
206,168.09012181875,168.44589100208333,75.0,77.0
207,168.37858331875,170.55887148958334,77.0,75.0
208,170.68627531875,170.90502528958334,70.0,82.0
209,170.97473681875,171.158631025,77.0,78.0
210,171.26319831875,171.43146752708333,77.0,77.0
211,171.55165981874998,171.72233287291667,77.0,77.0
212,171.84012131875,172.56007314583334,77.0,82.0
213,172.70550581875,172.92425578958333,73.0,77.0
214,172.99396731875,175.15622664583333,75.0,80.0
215,175.30165931874998,175.46271698958333,75.0,76.0
216,175.59012081875,175.74757272083332,75.0,76.0
217,175.87858231875,176.05526498749998,75.0,82.0
218,176.16704381875,176.36415917708334,77.0,78.0
219,176.45550531875,176.69348605625,72.0,78.0
220,176.74396681874998,176.94709179166665,70.0,75.0
221,177.03242831875,177.55887055624999,68.0,75.0
222,177.60935131875,179.53002413958333,70.0,75.0
223,179.91704331875,180.58531246041667,70.0,77.0
224,180.78242781875,180.98435086875,75.0,68.0
225,181.07088931875,181.64781231875,75.0,73.0
226,181.64781231875,181.90261997708333,73.0,72.0
227,181.93627381874998,182.22473531875,70.0,75.0
228,182.22473531875,182.51319681875,68.0,73.0
229,182.51319681875,182.76079293958333,70.0,72.0
230,182.80165831875,183.34853324583332,68.0,74.0
231,183.37858131875,184.37978310833333,65.0,77.0
232,184.53242731875,184.82088881875,75.0,78.0
233,184.82088881875,185.10935031875,75.0,78.0
234,185.10935031875,185.39781181875,75.0,80.0
235,185.39781181875,185.68627331874998,77.0,80.0
236,185.68627331874998,185.956705975,73.0,73.0
237,185.97473481875,186.2668020875,70.0,73.0
238,186.26319631875,186.2668020875,70.0,73.0
239,186.55165781875,186.90742700208332,68.0,77.0
240,186.84011931875,189.02040748958333,70.0,75.0
241,189.14781131875,189.36656128958333,70.0,82.0
242,189.43627281874998,189.620167025,77.0,78.0
243,189.72473431875,189.89300352708332,77.0,77.0
244,190.01319581875,190.18386887291666,77.0,77.0
245,190.30165731875,191.02160914583334,77.0,82.0
246,191.16704181875,191.38579178958332,73.0,77.0
247,191.45550331875,193.61776264583332,75.0,80.0
248,193.76319531875,193.92425298958332,75.0,76.0
249,194.05165681875,194.20910872083334,75.0,76.0
250,194.34011831875,194.5168009875,75.0,82.0
251,194.62857981874998,194.82569517708333,77.0,78.0
252,194.91704131875,195.15502205625,72.0,78.0
253,195.20550281875,195.40862779166667,70.0,75.0
254,195.49396431875,196.02040655624998,68.0,75.0
255,196.07088731874998,197.99156013958333,70.0,75.0
256,198.37857931874998,199.04684846041667,70.0,77.0
257,199.24396381875,199.44588686875,75.0,68.0
258,199.53242531875,200.10934831875,75.0,73.0
259,200.10934831875,200.36415597708333,73.0,72.0
260,200.39780981875,200.68627131875,70.0,75.0
261,200.68627131875,200.97473281875,68.0,73.0
262,200.97473281875,201.22232893958332,70.0,72.0
263,201.26319431874998,201.81006924583332,68.0,74.0
264,201.84011731875,202.84131910833332,65.0,77.0
265,202.99396331875,203.35333827083332,75.0,78.0
266,203.57088631874998,204.07088625208334,75.0,80.0
267,204.14780931875,204.418241975,73.0,73.0
268,204.43627081875,204.7283380875,70.0,73.0
269,204.72473231875,205.04324189166667,73.0,73.0
270,205.01319381874998,205.36896300208332,75.0,77.0
271,205.30165531875,207.48194348958333,77.0,75.0
272,207.60934731875,207.82809728958333,70.0,82.0
273,207.89780881875,208.081703025,77.0,78.0
274,208.18627031875,208.35453952708332,77.0,77.0
275,208.47473181875,208.64540487291666,77.0,77.0
276,208.76319331874998,209.48314514583333,77.0,82.0
277,209.62857781875,209.84732778958332,73.0,77.0
278,209.91703931875,212.07929864583332,75.0,80.0
279,212.22473131875,212.38578898958332,75.0,76.0
280,212.51319281874999,212.67064472083334,75.0,76.0
281,212.80165431875,212.9783369875,75.0,82.0
282,213.09011581875,213.28723117708333,77.0,78.0
283,213.37857731875,213.61655805625,72.0,78.0
284,213.66703881875,213.87016379166667,70.0,75.0
285,213.95550031874998,214.48194255625,68.0,75.0
286,214.53242331875,216.45309613958332,70.0,75.0
287,216.84011531874998,217.50838446041666,70.0,77.0
288,217.70549981874998,217.90742286875,75.0,68.0
289,217.99396131875,218.57088431875,75.0,73.0
290,218.57088431875,218.82569197708332,73.0,72.0
291,218.85934581875,219.14780731874998,70.0,75.0
292,219.14780731874998,219.43626881875,68.0,73.0
293,219.43626881875,219.68386493958332,70.0,72.0
294,219.72473031875,220.2716052458333,68.0,74.0
295,220.30165331875,221.30285510833332,65.0,77.0
296,221.45549931875,221.74396081875,75.0,78.0
297,221.74396081875,222.03242231875,75.0,78.0
298,222.03242231875,222.32088381875,75.0,80.0
299,222.32088381875,222.60934531875,77.0,80.0
300,222.60934531875,222.879777975,73.0,73.0
301,222.89780681874998,223.1898740875,70.0,73.0
302,223.18626831875,223.1898740875,70.0,73.0
303,223.47472981875,223.83049900208331,68.0,77.0
304,223.76319131875,225.94347948958332,70.0,75.0
305,226.07088331875,226.73915246041665,70.0,77.0
306,226.93626781875,227.13819086875,75.0,68.0
307,227.22472931875,227.80165231875,75.0,73.0
308,227.80165231875,228.05645997708334,73.0,72.0
309,228.09011381874998,228.37857531875,70.0,75.0
310,228.37857531875,228.66703681875,68.0,73.0
311,228.66703681875,228.91463293958333,70.0,72.0
312,228.95549831875,229.50237324583333,68.0,74.0
313,229.53242131874998,230.53362310833333,65.0,77.0
314,231.20069032708332,231.60333450416667,75.0,80.0
315,231.73194025625,232.07809405625,75.0,82.0
316,232.17184404374999,232.56727668333332,75.0,77.0
317,232.68626705208334,233.07328623125,77.0,78.0
318,233.16102660416666,233.59972846875,72.0,80.0
319,233.61174769791666,233.98915149375,70.0,72.0
320,234.09972840208331,234.68025717083333,70.0,68.0
321,234.67424755624998,237.50717987083334,68.0,62.0
322,237.46631449166665,241.78602545416666,70.0,74.0
