,start,end,pitch,velocity
0,22.392261041666668,22.823029375,66.0,77.0
1,22.853798541666666,24.099949791666667,64.0,81.0
2,24.238411041666666,24.678794739583335,66.0,70.0
3,24.699948541666668,26.196099270833333,61.0,74.0
4,26.546098541666666,26.69417515625,64.0,77.0
5,26.776867291666665,26.915328541666668,64.0,78.0
6,27.007636041666668,27.384558333333334,66.0,73.0
7,27.469173541666667,27.876865,69.0,75.0
8,27.930711041666665,28.340325572916665,71.0,75.0
9,28.392248541666667,28.6037865625,71.0,73.0
10,28.57494046875,29.955706822916667,69.0,73.0
11,30.46916729166667,30.6114746875,64.0,76.0
12,30.699936041666668,31.365319270833332,71.0,75.0
13,31.392242291666665,31.519165104166667,69.0,71.0
14,31.62301104166667,32.0191640625,71.0,75.0
15,32.08454854166666,32.8730084375,73.0,73.0
16,33.56146854166667,33.953775416666666,74.0,76.0
17,33.930698541666665,34.178774947916665,73.0,81.0
18,34.155698072916664,34.411466770833336,71.0,76.0
19,34.40954369791667,34.823004375000004,74.0,77.0
20,34.79608135416667,37.082615052083334,73.0,77.0
21,37.62299854166667,37.7422290625,73.0,76.0
22,37.853767291666664,37.997997760416666,73.0,75.0
23,38.08453604166667,38.63453489583333,73.0,76.0
24,38.77684229166667,39.365302604166665,71.0,77.0
25,39.46914854166667,39.61722515625,66.0,76.0
26,39.699917291666665,40.89606864583333,71.0,75.0
27,41.77683604166667,42.17106598958333,71.0,76.0
28,42.23837354166667,42.68644953125,68.0,77.0
29,42.69991104166667,43.097987135416666,64.0,79.0
30,43.161448541666665,43.56529385416667,71.0,76.0
31,43.622986041666664,44.90759875,69.0,70.0
32,45.469136041666665,46.04413484375,69.0,76.0
33,46.16144229166667,46.30567276041667,68.0,76.0
34,46.39221104166667,46.72490265625,69.0,75.0
35,46.85374854166667,47.999900000000004,62.0,75.0
36,48.238361041666664,48.58643723958333,66.0,75.0
37,48.69989854166667,49.038359375,69.0,78.0
38,49.16143604166667,50.542202395833336,73.0,75.0
39,50.546048541666664,51.78066135416667,68.0,75.0
40,51.93066104166667,52.361429375,69.0,77.0
41,52.392198541666666,53.63834979166667,64.0,81.0
42,53.77681104166667,54.217194739583334,66.0,70.0
43,54.23834854166667,55.73449927083333,61.0,74.0
44,56.08449854166667,56.23257515625,64.0,77.0
45,56.315267291666665,56.45372854166667,64.0,78.0
46,56.54603604166667,56.922958333333334,66.0,73.0
47,57.007573541666666,57.415265,69.0,75.0
48,57.469111041666665,57.8421871875,71.0,75.0
49,57.88257171875,57.965263854166665,71.0,59.0
50,57.963340781250004,59.49410682291667,69.0,73.0
51,60.00756729166667,60.1498746875,64.0,76.0
52,60.23833604166667,60.903719270833335,71.0,75.0
53,60.930642291666665,61.05756510416667,69.0,71.0
54,61.16141104166667,61.5575640625,71.0,75.0
55,61.622948541666666,62.4114084375,73.0,73.0
56,62.776792291666666,63.00371489583333,64.0,76.0
57,63.00756104166667,63.399867916666665,74.0,76.0
58,63.46909854166667,63.71717494791667,73.0,81.0
59,63.69409807291667,63.94986677083333,71.0,76.0
60,63.94794369791667,64.361404375,74.0,77.0
61,64.33448135416667,66.62101505208334,73.0,77.0
62,67.16139854166667,67.2806290625,73.0,76.0
63,67.39216729166667,67.53639776041666,73.0,75.0
64,67.62293604166666,68.17293489583334,73.0,76.0
65,68.31524229166666,68.90370260416667,71.0,77.0
66,69.00754854166667,69.15562515625,66.0,76.0
67,69.23831729166666,70.43446864583333,71.0,75.0
68,71.31523604166667,71.70946598958334,71.0,76.0
69,71.77677354166667,72.22484953125,68.0,77.0
70,72.23831104166666,72.63638713541667,64.0,79.0
71,72.69984854166667,73.10369385416666,71.0,76.0
72,73.16138604166667,74.44599875,69.0,70.0
73,74.77676729166667,75.00368989583333,62.0,76.0
74,75.00753604166667,75.46522739583334,69.0,76.0
75,75.46907354166667,75.69599614583333,71.0,76.0
76,75.69984229166667,76.15753364583334,72.0,75.0
77,76.39214854166667,77.5383,69.0,75.0
78,77.77676104166667,78.12483723958333,64.0,75.0
79,78.23829854166667,78.69598989583334,76.0,78.0
80,78.69983604166667,79.15752739583333,69.0,78.0
81,79.16137354166666,81.69598364583334,71.0,75.0
82,82.16136729166666,82.33636692708333,64.0,79.0
83,82.39213604166666,82.73636609375001,76.0,81.0
84,82.85367354166667,83.18444208333334,73.0,80.0
85,83.31521104166667,83.51713369791666,73.0,80.0
86,83.52097984375,83.69597947916667,71.0,59.0
87,83.77674854166666,83.9652096875,71.0,76.0
88,83.99405578125,84.68828510416667,71.0,76.0
89,84.69982354166666,85.1190534375,69.0,73.0
90,85.16136104166667,85.30174536458334,69.0,77.0
91,85.39212979166666,85.90943640625,64.0,59.0
92,86.08443604166666,86.49789671875,76.0,77.0
93,86.54597354166667,86.86520364583333,71.0,70.0
94,87.00751104166666,87.37866411458333,71.0,77.0
95,87.46904854166667,87.67866348958333,69.0,76.0
96,87.692125,88.21327776041667,68.0,77.0
97,88.19020088541667,88.78250734375,69.0,77.0
98,88.69404598958333,89.07866057291666,71.0,81.0
99,89.08442979166666,89.25366020833333,73.0,81.0
100,89.31519854166666,89.42865984375,69.0,81.0
101,89.54596729166667,89.74981302083333,66.0,70.0
102,89.77673604166667,89.95173567708333,69.0,76.0
103,90.00750479166666,90.20942744791667,64.0,73.0
104,90.23827354166667,91.84403942708333,66.0,69.0
105,93.00749854166666,93.15749822916666,66.0,78.0
106,93.23826729166667,93.41519,66.0,79.0
107,93.46903604166667,93.85172755208333,64.0,81.0
108,93.93057354166666,94.31326505208334,71.0,77.0
109,94.39211104166667,94.7882640625,71.0,77.0
110,94.85364854166667,95.04980197916667,64.0,79.0
111,95.08441729166667,95.55941630208333,73.0,79.0
112,95.54595479166667,96.71902927083333,71.0,70.0
113,96.93056729166666,97.09402848958334,76.0,76.0
114,97.16133604166667,97.53248911458333,76.0,77.0
115,97.62287354166666,97.96325744791666,73.0,78.0
116,98.08441104166667,98.42671802083333,73.0,71.0
117,98.54594854166666,98.769025,71.0,77.0
118,98.78633265625,99.43633130208333,71.0,77.0
119,99.46902354166667,99.92671489583333,69.0,73.0
120,99.91709953125,100.11902218750001,71.0,77.0
121,100.16132979166667,100.75748239583334,73.0,76.0
122,100.85363604166666,101.192096875,76.0,81.0
123,101.31517354166667,101.6305575,71.0,76.0
124,101.77671104166667,102.07478734375,71.0,76.0
125,102.23824854166666,102.59786317708334,69.0,77.0
126,102.69978604166667,102.92670864583333,68.0,70.0
127,102.93055479166667,103.07863140625,69.0,75.0
128,103.39209229166667,103.61901489583333,69.0,75.0
129,103.62286104166667,103.83247598958333,71.0,84.0
130,103.85362979166666,103.95939880208333,73.0,82.0
131,104.08439854166667,104.20170598958333,69.0,76.0
132,104.31516729166667,104.54208989583333,66.0,77.0
133,104.54593604166666,104.76516635416667,69.0,76.0
134,104.77670479166667,104.98247359375,64.0,73.0
135,105.00747354166667,106.74400838541666,66.0,68.0
136,108.00746729166667,108.15554390625,66.0,67.0
137,108.23823604166667,108.64208135416666,66.0,76.0
138,108.69977354166667,109.50746416666667,64.0,81.0
139,109.62284854166667,111.13246078125,71.0,76.0
140,111.46899854166666,111.80361322916667,73.0,76.0
141,111.93053604166667,112.39976583333333,73.0,78.0
142,112.39207354166666,112.61899614583334,71.0,70.0
143,112.62284229166667,115.36899041666666,69.0,71.0
144,131.31511104166665,131.745879375,69.0,77.0
145,131.77664854166667,133.02279979166667,64.0,81.0
146,133.16126104166668,133.60164473958332,66.0,70.0
147,133.62279854166667,135.11894927083333,61.0,74.0
148,135.46894854166666,135.61702515625,64.0,77.0
149,135.69971729166667,135.83817854166668,64.0,78.0
150,135.93048604166665,136.30740833333334,66.0,73.0
151,136.39202354166667,136.799715,69.0,75.0
152,136.85356104166667,137.09394515625,71.0,75.0
153,137.11894510416667,137.25740635416668,69.0,59.0
154,137.31509854166666,138.87855682291666,69.0,73.0
155,139.39201729166666,139.5343246875,64.0,76.0
156,139.62278604166667,140.28816927083332,71.0,75.0
157,140.31509229166667,140.44201510416667,69.0,71.0
158,140.54586104166665,140.9420140625,71.0,75.0
159,141.00739854166667,141.7958584375,73.0,73.0
160,142.16124229166667,142.38816489583334,64.0,76.0
161,142.39201104166668,142.78431791666668,74.0,76.0
162,142.85354854166667,143.10162494791666,73.0,81.0
163,143.07854807291667,143.33431677083334,71.0,76.0
164,143.33239369791667,143.745854375,74.0,77.0
165,143.71893135416667,146.00546505208334,73.0,77.0
166,146.54584854166666,146.6650790625,73.0,76.0
167,146.77661729166667,146.92084776041668,73.0,75.0
168,147.00738604166668,147.55738489583334,73.0,76.0
169,147.69969229166668,148.28815260416667,71.0,77.0
170,148.39199854166668,148.54007515625,66.0,76.0
171,148.62276729166666,149.81891864583332,71.0,75.0
172,150.69968604166667,151.09391598958334,71.0,76.0
173,151.16122354166666,151.60929953125,68.0,77.0
174,151.62276104166668,152.02083713541666,64.0,79.0
175,152.08429854166667,152.48814385416668,71.0,76.0
176,152.54583604166666,153.83044875,69.0,70.0
177,154.16121729166667,154.38813989583335,62.0,76.0
178,154.39198604166666,154.84967739583334,69.0,76.0
179,154.85352354166668,155.08044614583332,71.0,76.0
180,155.08429229166666,155.54198364583334,72.0,75.0
181,155.77659854166666,156.92275,69.0,75.0
182,157.16121104166666,157.50928723958333,64.0,75.0
183,157.62274854166668,158.08043989583334,76.0,78.0
184,158.08428604166667,158.54197739583333,69.0,78.0
185,158.54582354166666,161.08043364583332,71.0,75.0
186,161.54581729166668,161.72081692708335,64.0,79.0
187,161.77658604166666,162.12081609375,76.0,81.0
188,162.23812354166668,162.56889208333334,73.0,80.0
189,162.69966104166667,162.97273739583332,73.0,80.0
190,162.89196833333332,163.06312182291666,71.0,59.0
191,163.16119854166666,163.361198125,71.0,76.0
192,163.44581333333335,164.07273510416667,71.0,76.0
193,164.08427354166668,164.5035034375,69.0,73.0
194,164.54581104166667,164.68619536458334,69.0,77.0
195,164.77657979166668,165.29388640625,64.0,59.0
196,165.46888604166668,165.88234671875,76.0,77.0
197,165.93042354166667,166.24965364583335,71.0,70.0
198,166.39196104166666,166.76311411458335,71.0,77.0
199,166.85349854166668,167.18619015625,69.0,76.0
200,167.11695953125,167.57849703125,68.0,77.0
201,167.56503552083333,168.16695734375,69.0,77.0
202,167.99965,168.46311057291666,71.0,81.0
203,168.46887979166667,168.63811020833333,73.0,81.0
204,168.69964854166668,168.81310984375,69.0,81.0
205,168.93041729166666,169.13426302083334,66.0,70.0
206,169.16118604166667,169.33618567708334,69.0,76.0
207,169.39195479166668,169.59387744791667,64.0,73.0
208,169.62272354166666,171.22848942708333,66.0,69.0
209,172.14964135416668,172.29387182291666,66.0,59.0
210,172.39194854166666,172.54194822916668,66.0,78.0
211,172.62271729166667,172.79964,66.0,79.0
212,172.85348604166666,173.23617755208335,64.0,81.0
213,173.31502354166668,173.69771505208334,71.0,77.0
214,173.77656104166667,174.1727140625,71.0,77.0
215,174.23809854166666,174.43425197916667,64.0,79.0
216,174.46886729166667,174.94386630208334,73.0,79.0
217,174.93040479166666,176.10347927083333,71.0,70.0
218,176.31501729166666,176.47847848958332,76.0,76.0
219,176.54578604166667,176.91693911458333,76.0,77.0
220,177.00732354166666,177.34770744791666,73.0,78.0
221,177.46886104166666,177.81116802083332,73.0,71.0
222,177.93039854166668,178.11693661458332,71.0,77.0
223,178.15539807291665,178.82078130208333,71.0,77.0
224,178.85347354166666,179.13231911458334,69.0,73.0
225,179.31308796875,179.5034721875,71.0,77.0
226,179.54577979166666,180.14193239583332,73.0,76.0
227,180.23808604166666,180.576546875,76.0,81.0
228,180.69962354166668,181.0150075,71.0,76.0
229,181.16116104166667,181.45923734375,71.0,76.0
230,181.39962208333333,181.98231317708334,69.0,77.0
231,182.08423604166666,182.31115864583333,68.0,70.0
232,182.31500479166667,182.46308140625,69.0,75.0
233,182.77654229166666,183.00346489583333,69.0,75.0
234,183.00731104166667,183.21692598958333,71.0,84.0
235,183.23807979166668,183.34384880208333,73.0,82.0
236,183.46884854166666,183.58615598958335,69.0,76.0
237,183.69961729166667,183.92653989583334,66.0,77.0
238,183.93038604166668,184.14961635416668,69.0,76.0
239,184.16115479166666,184.36692359375,64.0,73.0
240,184.39192354166667,186.12845838541668,66.0,68.0
241,187.39191729166666,187.53999390625,66.0,67.0
242,187.62268604166667,188.02653135416668,66.0,76.0
243,188.08422354166666,188.89191416666668,64.0,81.0
244,189.00729854166667,190.51691078125,71.0,76.0
245,190.85344854166667,191.18806322916666,73.0,76.0
246,191.31498604166666,191.78421583333335,73.0,78.0
247,191.77652354166668,192.00344614583332,71.0,70.0
248,192.00729229166666,194.75344041666668,69.0,71.0
249,211.39186729166667,211.56686692708334,65.0,79.0
250,211.62263604166668,211.96686609375,77.0,81.0
251,212.08417354166667,212.41494208333333,74.0,80.0
252,212.54571104166666,212.93224869791666,74.0,80.0
253,213.00724854166666,213.17455588541668,72.0,76.0
254,213.24955572916667,213.86109291666668,72.0,76.0
255,213.93032354166667,214.3495534375,70.0,73.0
256,214.39186104166666,214.53224536458333,70.0,77.0
257,214.62262979166667,215.13993640625,65.0,59.0
258,215.31493604166667,215.72839671875,77.0,77.0
259,215.77647354166666,216.09570364583334,72.0,70.0
260,216.23801104166668,216.60916411458334,72.0,77.0
261,216.69954854166667,216.98416333333333,70.0,76.0
262,216.93224036458332,217.453393125,69.0,77.0
263,217.41685473958333,217.85531536458333,70.0,77.0
264,217.87069994791668,218.02069963541666,70.0,59.0
265,218.08416104166668,218.30916057291668,72.0,81.0
266,218.31492979166666,218.48416020833332,74.0,81.0
267,218.54569854166667,218.65915984375,70.0,81.0
268,218.77646729166668,218.98031302083334,67.0,70.0
269,219.00723604166666,219.18223567708333,70.0,76.0
270,219.23800479166667,219.43992744791666,65.0,73.0
271,219.46877354166668,221.07453942708332,67.0,69.0
272,222.10530651041668,222.38799822916667,67.0,78.0
273,222.46876729166667,222.64569,67.0,79.0
274,222.69953604166668,223.08222755208334,65.0,81.0
275,223.16107354166667,223.54376505208333,72.0,77.0
276,223.62261104166666,224.0187640625,72.0,77.0
277,224.08414854166668,224.28030197916667,65.0,79.0
278,224.31491729166666,224.78991630208333,74.0,79.0
279,224.77645479166668,225.94952927083332,72.0,70.0
280,226.16106729166665,226.32452848958334,77.0,76.0
281,226.39183604166666,226.76298911458335,77.0,77.0
282,226.85337354166666,227.19375744791668,74.0,78.0
283,227.31491104166668,227.65721802083334,74.0,71.0
284,227.77644854166667,227.9072175,72.0,77.0
285,227.98990963541667,228.66683130208332,72.0,77.0
286,228.69952354166668,228.97836911458333,70.0,73.0
287,229.130291875,229.3495221875,72.0,77.0
288,229.39182979166668,229.98798239583334,74.0,76.0
289,230.08413604166668,230.422596875,77.0,81.0
290,230.54567354166667,230.86105750000002,72.0,76.0
291,231.00721104166666,231.30528734375,72.0,76.0
292,231.27451817708334,231.82836317708333,70.0,77.0
293,231.93028604166668,232.15720864583332,69.0,70.0
294,232.16105479166666,232.30913140625,70.0,75.0
295,232.62259229166668,232.84951489583332,70.0,75.0
296,232.85336104166666,233.06297598958332,72.0,84.0
297,233.08412979166667,233.18989880208335,74.0,82.0
298,233.31489854166668,233.43220598958334,70.0,76.0
299,233.54566729166666,233.77258989583333,67.0,77.0
300,233.77643604166667,233.99566635416667,70.0,76.0
301,234.00720479166668,234.21297359375,65.0,73.0
302,234.23797354166666,235.97450838541667,67.0,68.0
303,237.23796729166668,237.38604390625,67.0,67.0
304,237.46873604166666,237.87258135416667,67.0,76.0
305,237.93027354166668,238.73796416666667,65.0,81.0
306,238.85334854166666,240.36296078125,72.0,76.0
307,240.69949854166666,241.03411322916668,75.0,76.0
308,240.93603651041667,241.55334291666668,74.0,59.0
309,241.62257354166667,244.32256791666666,74.0,70.0
