,start,end,pitch,velocity
0,5.315373541666666,5.92498765625,52.0,70.0
1,5.776911041666667,6.715370625,59.0,69.0
2,6.238448541666667,6.81344734375,52.0,61.0
3,6.699986041666667,7.134600520833334,64.0,77.0
4,4.853836041666667,8.14036765625,45.0,79.0
5,7.161523541666667,8.2038290625,52.0,43.0
6,7.623061041666666,8.536520677083333,57.0,65.0
7,7.623061041666666,8.684597291666666,61.0,62.0
8,9.469211041666666,9.97497921875,57.0,68.0
9,9.930748541666667,10.261517083333333,59.0,69.0
10,9.007673541666668,10.62113171875,49.0,51.0
11,10.392286041666667,10.853823541666667,57.0,63.0
12,10.392286041666667,10.917284947916666,61.0,62.0
13,11.315361041666666,11.569206666666666,57.0,64.0
14,10.853823541666667,11.874975260416667,49.0,33.0
15,8.546136041666667,11.957667395833333,42.0,71.0
16,11.315361041666666,12.151897760416666,61.0,66.0
17,11.776898541666666,12.21343609375,57.0,61.0
18,11.315361041666666,12.274974427083334,64.0,75.0
19,12.238436041666667,12.459589427083333,57.0,67.0
20,12.699973541666667,12.919203854166668,57.0,74.0
21,12.238436041666667,13.0730496875,62.0,70.0
22,12.238436041666667,13.128818802083334,50.0,74.0
23,13.161511041666667,13.361510625,59.0,75.0
24,13.161511041666667,13.605740885416667,52.0,74.0
25,13.161511041666667,13.6730484375,64.0,76.0
26,13.623048541666666,13.823048125,59.0,68.0
27,14.084586041666666,14.632661822916667,49.0,86.0
28,14.546123541666667,14.771123072916668,56.0,55.0
29,14.084586041666666,14.882661302083333,64.0,76.0
30,14.084586041666666,14.886507447916667,61.0,66.0
31,15.007661041666667,15.22496828125,57.0,70.0
32,15.007661041666667,15.405737135416667,42.0,74.0
33,15.007661041666667,15.488429270833333,61.0,68.0
34,15.469198541666668,15.786505572916667,57.0,76.0
35,15.930736041666666,16.25188921875,57.0,67.0
36,15.930736041666666,16.915349375,62.0,68.0
37,16.853811041666667,17.357656145833335,57.0,81.0
38,17.315348541666665,17.505732760416667,64.0,77.0
39,17.776886041666668,18.049962395833333,57.0,76.0
40,18.238423541666666,18.569192083333334,57.0,65.0
41,17.776886041666668,18.66342265625,66.0,72.0
42,18.69996104166667,18.799960833333333,62.0,75.0
43,18.69996104166667,18.844191510416668,57.0,73.0
44,16.39227354166667,18.8653453125,45.0,60.0
45,15.930736041666666,18.896114479166666,38.0,77.0
46,19.623036041666666,20.253803958333332,52.0,72.0
47,19.623036041666666,20.367265260416666,59.0,69.0
48,21.00764854166667,21.530724375000002,52.0,75.0
49,20.546111041666666,21.984569583333332,59.0,77.0
50,21.930723541666666,22.24226135416667,52.0,70.0
51,21.469186041666667,22.417260989583333,64.0,78.0
52,20.084573541666668,22.52879921875,47.0,71.0
53,19.623036041666666,22.546106875,40.0,76.0
54,22.392261041666668,22.5576453125,52.0,67.0
55,22.392261041666668,22.598029843750002,59.0,61.0
56,23.315336041666665,23.969180833333333,61.0,64.0
57,23.315336041666665,24.042257604166668,57.0,67.0
58,23.776873541666667,24.307641666666665,52.0,62.0
59,24.238411041666666,24.659564010416666,59.0,73.0
60,25.161486041666667,25.36917791666667,57.0,60.0
61,25.161486041666667,25.484562291666666,64.0,67.0
62,25.161486041666667,25.496100729166667,61.0,62.0
63,26.084561041666667,26.305714427083334,57.0,68.0
64,26.084561041666667,26.488406354166667,61.0,72.0
65,24.699948541666668,26.798021093750002,52.0,63.0
66,23.315336041666665,26.8730209375,45.0,75.0
67,27.007636041666668,27.251866302083332,57.0,68.0
68,27.007636041666668,27.530711875,62.0,70.0
69,27.469173541666667,27.921095677083333,57.0,71.0
70,27.930711041666665,28.219171979166667,64.0,77.0
71,27.007636041666668,28.6960940625,50.0,70.0
72,28.392248541666667,28.7191709375,57.0,75.0
73,28.853786041666666,29.109554739583334,57.0,65.0
74,28.853786041666666,29.628784427083332,62.0,66.0
75,29.315323541666668,29.851860885416666,57.0,65.0
76,28.853786041666666,30.124937239583332,50.0,73.0
77,29.776861041666667,30.299936875,66.0,65.0
78,29.776861041666667,30.47493651041667,62.0,75.0
79,31.62301104166667,32.284548125,56.0,80.0
80,30.699936041666668,32.34608645833333,64.0,74.0
81,32.08454854166666,32.653778125,52.0,80.0
82,31.161473541666666,32.8268546875,47.0,64.0
83,32.54608604166667,33.24416151041667,59.0,73.0
84,33.00762354166667,33.607622291666665,47.0,53.0
85,30.699936041666668,33.68646828125,40.0,77.0
86,33.469161041666666,33.915313958333336,56.0,75.0
87,33.469161041666666,33.92108317708333,59.0,76.0
88,33.930698541666665,34.02108296875,52.0,72.0
89,33.469161041666666,34.27300552083334,64.0,76.0
90,34.39223604166666,35.33838791666667,61.0,63.0
91,34.85377354166667,35.47492609375,52.0,64.0
92,34.39223604166666,35.482618385416664,57.0,66.0
93,35.31531104166667,35.89415598958333,59.0,76.0
94,35.776848541666666,36.388385729166664,52.0,62.0
95,36.238386041666665,36.759538802083334,64.0,79.0
96,36.238386041666665,36.821077135416665,57.0,68.0
97,37.16146104166667,37.3960759375,61.0,75.0
98,37.16146104166667,37.49799880208333,57.0,72.0
99,36.699923541666664,37.67492151041667,52.0,65.0
100,34.39223604166666,37.738382916666666,45.0,74.0
101,38.08453604166667,38.31722786458333,57.0,71.0
102,38.08453604166667,38.83453447916667,62.0,75.0
103,38.546073541666665,39.04991864583334,57.0,73.0
104,38.08453604166667,39.35953338541667,50.0,76.0
105,39.007611041666664,39.46530239583333,64.0,75.0
106,39.46914854166667,39.947993697916665,62.0,73.0
107,39.93068604166667,40.83260723958333,64.0,75.0
108,39.93068604166667,41.09606822916667,40.0,77.0
109,40.39222354166667,41.126837395833334,47.0,61.0
110,40.853761041666665,41.771066822916666,59.0,79.0
111,41.77683604166667,42.72298791666667,64.0,70.0
112,41.77683604166667,42.89606447916667,49.0,75.0
113,42.23837354166667,42.93067979166667,56.0,65.0
114,42.69991104166667,43.19414078125,61.0,81.0
115,43.161448541666665,43.62106296875,64.0,77.0
116,43.622986041666664,44.38067677083333,61.0,71.0
117,43.622986041666664,44.938367916666664,42.0,71.0
118,44.08452354166667,44.96721401041667,49.0,60.0
119,44.54606104166667,45.08644453125,61.0,71.0
120,44.54606104166667,45.134521354166665,57.0,66.0
121,45.930673541666664,46.45182630208333,54.0,59.0
122,45.469136041666665,46.45759552083334,62.0,71.0
123,46.39221104166667,46.88836385416667,59.0,76.0
124,46.85374854166667,47.42874734375,54.0,58.0
125,47.31528604166667,47.8729771875,66.0,64.0
126,47.31528604166667,47.88643869791667,59.0,71.0
127,47.776823541666666,48.29605322916667,54.0,45.0
128,45.469136041666665,48.55951421875,47.0,73.0
129,48.238361041666664,48.821052135416664,62.0,76.0
130,48.69989854166667,49.219128229166664,59.0,75.0
131,49.16143604166667,50.55566390625,64.0,77.0
132,50.084511041666666,51.02873984375,52.0,82.0
133,50.546048541666664,51.09604739583333,59.0,76.0
134,51.46912354166667,51.736430677083334,52.0,67.0
135,51.00758604166667,51.76527677083333,64.0,80.0
136,51.93066104166667,52.10181453125,52.0,77.0
137,49.62297354166667,52.105660677083335,47.0,62.0
138,49.16143604166667,52.132583697916665,40.0,77.0
139,51.93066104166667,52.17489130208333,56.0,75.0
140,51.93066104166667,52.2114296875,59.0,76.0
141,52.853736041666664,53.3421965625,57.0,69.0
142,52.853736041666664,53.50181161458333,64.0,75.0
143,53.546042291666666,53.853733958333336,59.0,69.0
144,53.31527354166667,53.92681072916667,52.0,63.0
145,53.77681104166667,54.28642536458334,61.0,79.0
146,52.853736041666664,54.551809427083334,45.0,76.0
147,54.007579791666664,54.58257859375,52.0,73.0
148,54.23834854166667,54.92680864583333,57.0,64.0
149,54.46911729166667,55.209500364583334,64.0,77.0
150,55.161423541666665,55.382576927083335,57.0,64.0
151,54.93065479166667,55.496038229166665,52.0,64.0
152,55.39219229166667,55.819114479166664,59.0,76.0
153,55.62296104166667,55.99796026041667,52.0,67.0
154,55.853729791666666,55.99796026041667,61.0,75.0
155,54.699886041666666,56.067190885416665,45.0,76.0
156,56.08449854166667,56.44795932291667,57.0,66.0
157,56.54603604166667,56.76334328125,57.0,61.0
158,56.54603604166667,57.084496458333334,66.0,70.0
159,57.007573541666666,57.2883421875,57.0,65.0
160,57.23834229166667,57.694110572916664,62.0,73.0
161,57.69987979166667,57.97295614583334,64.0,77.0
162,56.77680479166667,58.213340260416665,45.0,62.0
163,56.54603604166667,58.24218635416667,38.0,77.0
164,58.161417291666666,58.4652628125,57.0,64.0
165,57.93064854166667,58.4652628125,62.0,68.0
166,58.39218604166667,58.8806465625,66.0,68.0
167,58.85372354166667,59.194107447916664,57.0,71.0
168,59.08449229166667,59.54795286458334,62.0,77.0
169,58.39218604166667,59.79795234375,38.0,80.0
170,59.54602979166667,59.82102921875,64.0,80.0
171,58.622954791666665,59.83064458333333,45.0,64.0
172,59.776798541666665,60.04218260416667,62.0,75.0
173,60.23833604166667,60.69602739583333,59.0,69.0
174,60.23833604166667,60.880642395833334,64.0,73.0
175,60.930642291666665,61.2575646875,59.0,72.0
176,61.16141104166667,61.51910260416667,64.0,75.0
177,61.39217979166667,61.74025598958333,68.0,59.0
178,61.622948541666666,61.88833260416667,64.0,76.0
179,60.69987354166667,61.89410182291667,47.0,63.0
180,60.23833604166667,61.907563333333336,40.0,77.0
181,61.85371729166667,62.16525510416667,59.0,77.0
182,62.084486041666665,62.515254375,64.0,75.0
183,62.54602354166667,62.667177135416665,59.0,71.0
184,62.31525479166667,62.84217677083333,47.0,64.0
185,62.776792291666666,63.08448395833334,59.0,77.0
186,62.776792291666666,63.20948369791667,64.0,77.0
187,63.00756104166667,63.40948328125,47.0,66.0
188,63.238329791666665,63.46525239583333,62.0,75.0
189,62.084486041666665,63.471021614583336,40.0,76.0
190,63.46909854166667,63.71717494791667,61.0,71.0
191,63.69986729166667,63.91525145833334,59.0,75.0
192,63.930636041666666,64.42678885416667,57.0,65.0
193,63.930636041666666,64.6729421875,61.0,71.0
194,64.85371104166667,65.099864375,59.0,77.0
195,65.08447979166667,65.56717109375,61.0,86.0
196,63.930636041666666,65.60178640625,45.0,75.0
197,64.39217354166666,65.61524791666666,52.0,64.0
198,65.31524854166666,65.82101671875,57.0,71.0
199,65.54601729166667,66.22101588541666,64.0,75.0
200,66.23832354166667,66.50178453125,59.0,66.0
201,66.00755479166666,66.52870755208333,52.0,68.0
202,66.46909229166667,66.96909125,61.0,79.0
203,66.93062979166666,67.19024463541666,57.0,71.0
204,67.16139854166667,67.3037059375,64.0,73.0
205,66.69986104166667,67.35947505208334,52.0,77.0
206,65.77678604166667,67.407551875,45.0,75.0
207,67.62293604166666,67.75562807291666,57.0,71.0
208,67.62293604166666,67.88639703125,62.0,71.0
209,67.85370479166667,68.26908854166666,57.0,69.0
210,68.08447354166667,68.34408838541667,62.0,69.0
211,68.31524229166666,68.78254901041667,64.0,80.0
212,67.62293604166666,68.861395,50.0,76.0
213,68.77677979166667,69.04024078125,62.0,71.0
214,69.00754854166667,69.2883171875,57.0,68.0
215,69.23831729166666,69.46716296875,62.0,67.0
216,69.46908604166667,69.89793130208334,64.0,75.0
217,69.93062354166666,70.24023828125,59.0,76.0
218,70.16139229166667,70.60562213541667,64.0,76.0
219,69.69985479166667,70.75946796875,47.0,69.0
220,69.46908604166667,70.77292947916666,40.0,77.0
221,70.85369854166667,71.11908260416666,64.0,75.0
222,70.62292979166666,71.25754385416667,68.0,76.0
223,71.08446729166667,71.34023598958333,59.0,75.0
224,71.77677354166667,72.07100369791667,61.0,76.0
225,71.54600479166666,72.34984927083333,56.0,70.0
226,71.31523604166667,72.67292552083333,49.0,76.0
227,72.46907979166667,72.69023317708333,56.0,62.0
228,72.00754229166667,72.75177151041667,64.0,77.0
229,72.69984854166667,72.97869411458333,61.0,61.0
230,72.93061729166666,73.22484744791667,64.0,73.0
231,73.62292354166667,74.06715338541667,57.0,74.0
232,73.85369229166666,74.12676864583334,61.0,76.0
233,73.16138604166667,74.26138375000001,42.0,77.0
234,73.39215479166667,74.28253755208334,49.0,66.0
235,74.08446104166667,74.3883065625,66.0,82.0
236,74.31522979166667,74.54792161458333,61.0,79.0
237,74.54599854166666,74.68445979166667,57.0,77.0
238,75.00753604166667,75.22099713541667,57.0,75.0
239,75.00753604166667,75.64791932291666,62.0,75.0
240,75.46907354166667,75.82099588541666,57.0,69.0
241,75.93061104166667,76.12291833333333,57.0,79.0
242,75.93061104166667,76.42099463541666,62.0,80.0
243,75.00753604166667,76.70368635416666,50.0,75.0
244,76.39214854166667,76.73830166666667,57.0,78.0
245,76.85368604166666,77.10560859375,57.0,71.0
246,76.85368604166666,77.38060802083334,65.0,75.0
247,76.85368604166666,77.52483848958333,62.0,75.0
248,77.31522354166667,77.6421459375,57.0,67.0
249,76.85368604166666,77.90945307291666,50.0,80.0
250,77.77676104166667,78.01906822916666,57.0,84.0
251,77.77676104166667,78.092145,62.0,82.0
252,78.00752979166667,78.1498371875,50.0,78.0
253,78.23829854166667,78.5421440625,57.0,80.0
254,78.46906729166666,78.76522052083334,62.0,80.0
255,78.69983604166667,79.8344490625,64.0,76.0
256,79.62291104166667,80.05175630208333,52.0,86.0
257,79.85367979166666,80.14214072916667,56.0,77.0
258,79.16137354166666,80.4113709375,47.0,77.0
259,78.69983604166667,80.41714015625,40.0,80.0
260,80.08444854166667,80.41906322916667,59.0,74.0
261,80.31521729166667,80.65752427083333,52.0,81.0
262,80.54598604166667,81.14406171875,64.0,80.0
263,81.00752354166667,81.3229075,52.0,82.0
264,81.23829229166667,81.37098432291667,56.0,84.0
265,80.77675479166666,81.54406088541667,47.0,75.0
266,81.46906104166666,81.74021432291667,52.0,80.0
267,81.46906104166666,81.95367541666667,56.0,77.0
268,81.46906104166666,82.04021369791667,59.0,77.0
269,82.16136729166666,82.22098255208333,59.0,22.0
270,81.93059854166667,82.2805978125,52.0,89.0
271,80.54598604166667,82.32482848958334,40.0,75.0
272,81.69982979166667,82.33252078125,47.0,80.0
273,82.16136729166666,82.33444385416666,56.0,76.0
274,82.39213604166666,82.67675083333333,57.0,71.0
275,82.39213604166666,82.90944265625001,64.0,77.0
276,82.85367354166667,83.09598072916667,57.0,80.0
277,82.62290479166667,83.25751885416666,52.0,63.0
278,83.08444229166666,83.5729028125,59.0,74.0
279,83.31521104166667,83.630595,52.0,75.0
280,82.39213604166666,84.05174796875,45.0,77.0
281,83.54597979166667,84.069055625,61.0,92.0
282,83.77674854166666,84.15174776041667,52.0,64.0
283,84.00751729166667,84.35559348958333,57.0,77.0
284,84.23828604166667,84.63828520833333,64.0,81.0
285,84.46905479166666,84.96905375,52.0,68.0
286,84.69982354166666,84.97289989583334,57.0,77.0
287,84.93059229166667,85.4190528125,59.0,84.0
288,84.23828604166667,85.53059104166667,45.0,80.0
289,85.39212979166666,85.6728984375,61.0,86.0
290,85.16136104166667,85.87482109375,52.0,68.0
291,85.62289854166667,86.06328223958333,57.0,75.0
292,86.08443604166666,86.67097328125,64.0,84.0
293,86.54597354166667,87.13635692708334,56.0,76.0
294,86.77674229166666,87.28635661458334,59.0,75.0
295,86.31520479166667,87.39597177083333,52.0,64.0
296,86.08443604166666,87.46327932291666,44.0,81.0
297,87.46904854166667,87.73443260416667,56.0,77.0
298,87.23827979166667,88.31327755208333,64.0,82.0
299,87.69981729166666,88.315200625,59.0,76.0
300,88.39212354166666,88.71327671875,52.0,81.0
301,88.62289229166667,88.71327671875,52.0,43.0
302,88.62289229166667,88.93250703125,56.0,91.0
303,89.08442979166666,89.17096807291666,52.0,75.0
304,88.16135479166667,89.29212166666667,47.0,64.0
305,87.93058604166667,89.33442927083334,40.0,80.0
306,89.08442979166666,89.35366,56.0,81.0
307,89.08442979166666,89.39596760416667,59.0,76.0
308,89.31519854166666,89.42673677083333,52.0,78.0
309,89.08442979166666,89.49596739583333,64.0,77.0
310,89.77673604166667,89.96327411458333,57.0,72.0
311,89.77673604166667,90.22096588541666,62.0,69.0
312,90.23827354166667,90.5536575,57.0,78.0
313,90.46904229166667,90.67096494791667,62.0,80.0
314,90.69981104166666,90.95173359375,64.0,82.0
315,90.93057979166667,91.1882715625,62.0,79.0
316,90.00750479166666,91.45750177083333,45.0,70.0
317,89.77673604166667,91.48057864583333,38.0,79.0
318,91.16134854166667,91.73634734375,57.0,77.0
319,91.39211729166666,92.05750052083333,62.0,75.0
320,92.08442354166667,92.238269375,57.0,77.0
321,92.31519229166666,92.65557619791667,57.0,61.0
322,92.31519229166666,92.70749916666666,65.0,75.0
323,91.85365479166667,92.90172953125,45.0,65.0
324,92.77672979166667,92.99788317708334,57.0,78.0
325,92.77672979166667,93.16711359375,62.0,81.0
326,91.62288604166666,93.299805625,38.0,81.0
327,93.00749854166666,93.33826708333333,45.0,74.0
328,93.23826729166667,93.36711317708334,57.0,78.0
329,93.46903604166667,93.72865088541667,59.0,76.0
330,93.46903604166667,93.82672760416666,64.0,77.0
331,93.93057354166666,94.42672635416666,59.0,79.0
332,94.16134229166667,94.44980322916666,64.0,71.0
333,94.39211104166667,94.70172578125,68.0,82.0
334,93.69980479166666,94.90172536458333,47.0,71.0
335,94.62287979166666,94.9267253125,59.0,86.0
336,93.46903604166667,94.961340625,40.0,82.0
337,94.85364854166667,94.961340625,64.0,78.0
338,95.08441729166667,95.20749395833333,64.0,75.0
339,95.08441729166667,95.21326317708333,59.0,73.0
340,95.08441729166667,95.22287854166667,68.0,76.0
341,95.31518604166666,95.56518552083334,59.0,76.0
342,95.31518604166666,95.61710848958333,64.0,81.0
343,95.31518604166666,95.66133916666666,68.0,78.0
344,95.77672354166667,95.85749260416667,59.0,75.0
345,96.00749229166667,96.115184375,64.0,79.0
346,96.00749229166667,96.1267228125,59.0,75.0
347,96.00749229166667,96.14210739583334,68.0,76.0
348,95.54595479166667,96.26903020833333,47.0,75.0
349,96.23826104166666,96.51710661458334,59.0,82.0
350,96.23826104166666,96.53633734375,64.0,86.0
351,96.23826104166666,96.5421065625,68.0,76.0
352,95.31518604166666,96.715183125,40.0,84.0
353,96.46902979166667,96.72287541666667,47.0,78.0
354,96.69979854166667,96.78441375,59.0,72.0
355,96.69979854166667,96.86325973958333,76.0,75.0
356,96.69979854166667,96.86902895833333,69.0,71.0
357,96.69979854166667,97.05364395833334,64.0,77.0
358,96.93056729166666,97.05749010416666,59.0,72.0
359,97.16133604166667,97.31518187500001,69.0,76.0
360,97.16133604166667,97.31710494791666,73.0,78.0
361,97.62287354166666,97.88633453125,57.0,77.0
362,97.39210479166667,97.98056510416667,52.0,72.0
363,97.85364229166667,98.16710317708333,61.0,76.0
364,98.31517979166667,98.59402536458333,64.0,81.0
365,97.16133604166667,98.87671708333333,45.0,79.0
366,98.08441104166667,98.89210166666666,52.0,75.0
367,98.54594854166666,99.04787057291666,57.0,73.0
368,98.77671729166667,99.161331875,61.0,81.0
369,99.00748604166667,99.51325421875,69.0,75.0
370,99.46902354166667,99.60171557291666,57.0,73.0
371,99.23825479166666,99.761330625,52.0,70.0
372,99.69979229166667,99.99979166666667,57.0,76.0
373,99.00748604166667,100.15748364583334,45.0,77.0
374,99.69979229166667,100.19209895833333,61.0,77.0
375,99.93056104166666,100.20748354166666,52.0,74.0
376,99.69979229166667,100.23248348958333,64.0,77.0
377,100.16132979166667,100.44017536458334,57.0,78.0
378,100.39209854166667,100.54402130208334,61.0,79.0
379,100.85363604166666,101.33632734375,64.0,81.0
380,101.31517354166667,101.62478828125,56.0,75.0
381,101.54594229166666,101.63632671875,61.0,80.0
382,102.00747979166667,102.26901770833334,64.0,89.0
383,102.23824854166666,102.41709432291667,61.0,74.0
384,100.85363604166666,102.50940182291667,37.0,77.0
385,101.08440479166667,102.530555625,44.0,71.0
386,102.46901729166667,102.77863203125,56.0,75.0
387,102.69978604166667,103.22863109375,64.0,80.0
388,103.16132354166666,103.269015625,56.0,69.0
389,102.93055479166667,103.49786130208334,44.0,63.0
390,103.39209229166667,103.70555317708333,64.0,84.0
391,103.39209229166667,103.71324546875,61.0,78.0
392,103.39209229166667,103.72093776041666,56.0,80.0
393,102.69978604166667,103.86516822916667,37.0,76.0
394,103.62286104166667,103.89401432291666,44.0,79.0
395,103.85362979166666,103.961321875,56.0,75.0
396,103.85362979166666,104.08247546875,61.0,77.0
397,104.08439854166667,104.16516760416667,56.0,77.0
398,104.54593604166666,104.68439729166667,57.0,75.0
399,104.54593604166666,104.79593552083334,62.0,75.0
400,104.77670479166667,105.11324255208334,57.0,68.0
401,105.00747354166667,105.18247317708334,62.0,68.0
402,105.23824229166667,105.4959340625,64.0,76.0
403,105.46901104166666,105.70747208333333,62.0,76.0
404,105.69977979166667,106.03631755208333,57.0,76.0
405,104.54593604166666,106.21900947916667,50.0,80.0
406,105.93054854166667,106.24977864583333,62.0,74.0
407,106.16131729166666,106.84593125,66.0,79.0
408,106.62285479166667,106.97670020833334,57.0,74.0
409,106.85362354166666,107.007469375,62.0,75.0
410,107.08439229166667,107.37862244791667,57.0,78.0
411,107.08439229166667,107.41323776041666,64.0,82.0
412,107.54592979166667,107.653621875,57.0,82.0
413,106.39208604166667,107.7113140625,50.0,89.0
414,107.54592979166667,107.7805446875,62.0,79.0
415,107.77669854166666,108.04977489583334,57.0,71.0
416,108.00746729166667,108.17862078125,62.0,69.0
417,108.23823604166667,108.46323557291667,59.0,71.0
418,108.23823604166667,108.97284989583333,64.0,77.0
419,108.69977354166667,108.98823447916666,52.0,77.0
420,108.93054229166667,109.4651565625,59.0,75.0
421,109.39207979166667,109.62284854166667,56.0,84.0
422,108.46900479166666,109.92284791666667,47.0,65.0
423,108.23823604166667,109.94207864583333,40.0,81.0
424,109.62284854166667,110.19977041666667,52.0,78.0
425,109.85361729166667,110.80746145833334,64.0,84.0
426,110.54592354166667,111.15938380208334,52.0,76.0
427,110.77669229166666,111.23438364583333,56.0,80.0
428,110.31515479166667,111.39784484375001,47.0,68.0
429,110.08438604166666,111.42476786458333,40.0,79.0
430,111.23822979166667,111.52476765625,59.0,75.0
431,111.46899854166666,111.56899833333334,52.0,77.0
432,111.93053604166667,112.39976583333333,61.0,69.0
433,111.93053604166667,112.41707348958333,57.0,74.0
434,112.62284229166667,113.10361052083333,59.0,73.0
435,111.93053604166667,113.56899416666667,45.0,76.0
436,112.39207354166666,113.59207104166667,52.0,75.0
437,113.08437979166666,113.61514791666667,61.0,86.0
438,113.31514854166667,113.94976260416666,57.0,68.0
439,113.54591729166667,114.21130052083333,64.0,76.0
440,114.23822354166667,114.50553067708333,59.0,69.0
441,114.00745479166667,114.60553046875,52.0,69.0
442,114.69976104166666,115.19591385416666,52.0,71.0
443,113.77668604166666,115.21322151041667,45.0,76.0
444,114.46899229166667,115.22091380208333,61.0,84.0
445,115.62283604166667,115.89975854166667,57.0,72.0
446,115.62283604166667,116.11514270833334,61.0,76.0
447,116.31514229166666,116.64398776041666,61.0,91.0
448,116.08437354166666,116.653603125,57.0,79.0
449,115.62283604166667,116.8728334375,42.0,76.0
450,115.85360479166667,116.89398723958334,49.0,64.0
451,116.77667979166667,116.89975645833333,57.0,69.0
452,116.77667979166667,117.08244838541667,61.0,86.0
453,116.77667979166667,117.11321755208333,66.0,77.0
454,117.00744854166666,117.12090984375,57.0,76.0
455,117.23821729166667,117.34398630208334,61.0,56.0
456,117.46898604166667,117.60167807291667,56.0,77.0
457,117.46898604166667,117.72283166666666,61.0,74.0
458,117.93052354166667,118.19975375,61.0,75.0
459,117.69975479166666,118.23821520833333,56.0,75.0
460,118.16129229166667,118.66513739583334,64.0,77.0
461,117.46898604166667,118.69975270833334,49.0,78.0
462,118.39206104166666,118.77859869791666,56.0,76.0
463,118.62282979166666,118.89782921875,61.0,68.0
464,118.85359854166667,119.007444375,64.0,78.0
465,119.31513604166666,119.50744333333333,57.0,75.0
466,119.31513604166666,119.7343659375,62.0,73.0
467,119.31513604166666,120.01513458333334,38.0,80.0
468,119.77667354166667,120.068980625,57.0,79.0
469,119.54590479166667,120.07859598958333,45.0,73.0
470,120.00744229166666,120.14782661458334,62.0,79.0
471,120.23821104166667,120.50744125,59.0,81.0
472,120.23821104166667,120.70551776041667,64.0,78.0
473,120.23821104166667,120.81320984375,40.0,80.0
474,120.46897979166667,120.86705588541666,47.0,69.0
475,120.69974854166666,120.96897875,59.0,77.0
476,120.93051729166666,121.0728246875,64.0,76.0
477,121.16128604166667,121.42859317708333,57.0,72.0
478,121.16128604166667,121.68628494791666,64.0,77.0
479,121.16128604166667,121.95743822916667,45.0,78.0
480,121.39205479166667,121.96320744791667,52.0,71.0
481,121.62282354166666,121.97474588541667,57.0,84.0
482,121.85359229166667,121.97474588541667,61.0,77.0
483,122.08436104166667,122.37859119791666,55.0,80.0
484,122.08436104166667,122.43628338541667,59.0,76.0
485,122.08436104166667,122.61705223958333,43.0,77.0
486,122.31512979166666,122.63051375,50.0,79.0
487,122.54589854166667,122.65743677083333,55.0,79.0
488,123.00743604166667,123.28243546875,57.0,68.0
489,123.00743604166667,123.46897354166667,62.0,75.0
490,123.46897354166667,123.77666520833334,57.0,76.0
491,123.69974229166667,124.00743395833334,62.0,86.0
492,124.16127979166667,124.31897177083333,57.0,81.0
493,123.23820479166666,124.40551005208333,45.0,67.0
494,123.00743604166667,124.42666385416666,38.0,77.0
495,124.16127979166667,124.47089453125,64.0,82.0
496,124.39204854166667,124.64012494791666,62.0,78.0
497,124.62281729166666,124.80166307291667,57.0,77.0
498,124.85358604166667,125.35743114583333,64.0,77.0
499,125.31512354166667,125.4112771875,61.0,81.0
500,125.08435479166667,125.62858442708334,56.0,71.0
501,125.54589229166666,125.86704546875,61.0,82.0
502,125.54589229166666,126.0574296875,64.0,84.0
503,124.85358604166667,126.11319880208333,49.0,82.0
504,126.00742979166667,126.29781380208334,61.0,89.0
505,125.77666104166667,126.43627505208333,56.0,76.0
506,126.23819854166666,126.5189671875,64.0,76.0
507,126.69973604166667,126.97473546875,59.0,75.0
508,126.69973604166667,127.11319671875,62.0,80.0
509,126.93050479166666,127.176658125,54.0,69.0
510,126.69973604166667,127.1881965625,47.0,80.0
511,127.16127354166667,127.44396526041666,59.0,82.0
512,127.39204229166667,127.54396505208334,62.0,80.0
513,127.62281104166667,127.87857973958333,59.0,80.0
514,127.62281104166667,128.05742552083333,64.0,80.0
515,127.85357979166666,128.14396380208333,47.0,77.0
516,127.62281104166667,128.15165609375,40.0,78.0
517,128.08434854166666,128.34973260416666,59.0,81.0
518,128.31511729166667,128.42088630208335,64.0,76.0
519,128.54588604166668,128.83627005208334,57.0,76.0
520,128.54588604166668,129.03242348958332,61.0,76.0
521,129.00742354166667,129.31511520833334,57.0,71.0
522,129.23819229166668,129.37280739583335,61.0,79.0
523,128.77665479166666,129.38242276041666,52.0,70.0
524,128.54588604166668,129.43434572916667,45.0,78.0
525,129.46896104166666,129.6804990625,57.0,80.0
526,129.46896104166666,129.69011442708333,62.0,80.0
527,129.46896104166666,129.73626817708333,50.0,78.0
528,129.93049854166668,130.84203510416665,61.0,81.0
529,129.93049854166668,130.89588114583333,57.0,76.0
530,131.08434229166667,131.20741895833334,59.0,59.0
531,130.85357354166666,131.422803125,52.0,61.0
532,131.31511104166665,131.60549505208334,57.0,72.0
533,131.77664854166667,132.21126302083334,57.0,73.0
534,131.31511104166665,132.22087838541665,64.0,80.0
535,129.93049854166668,132.22664760416666,45.0,77.0
536,131.54587979166666,132.23626296875,52.0,71.0
537,132.23818604166667,132.7266465625,57.0,69.0
538,132.23818604166667,132.88626161458333,64.0,75.0
539,132.93049229166667,133.23818395833334,59.0,69.0
540,132.69972354166666,133.31126072916666,52.0,63.0
541,133.16126104166668,133.67087536458334,61.0,79.0
542,132.23818604166667,133.93625942708334,45.0,76.0
543,133.39202979166666,133.96702859375,52.0,73.0
544,133.62279854166667,134.31125864583333,57.0,64.0
545,133.85356729166668,134.59395036458332,64.0,77.0
546,134.54587354166668,134.76702692708332,57.0,64.0
547,134.31510479166667,134.88048822916667,52.0,64.0
548,134.77664229166666,135.20356447916666,59.0,76.0
549,135.00741104166667,135.38241026041666,52.0,67.0
550,135.23817979166668,135.38241026041666,61.0,75.0
551,134.08433604166666,135.45164088541668,45.0,76.0
552,135.46894854166666,135.83240932291667,57.0,66.0
553,135.93048604166665,136.14779328125,57.0,61.0
554,135.93048604166665,136.46894645833333,66.0,70.0
555,136.39202354166667,136.6727921875,57.0,65.0
556,136.62279229166666,137.07856057291667,62.0,73.0
557,137.08432979166668,137.35740614583332,64.0,77.0
558,136.16125479166666,137.59779026041667,45.0,62.0
559,135.93048604166665,137.62663635416666,38.0,77.0
560,137.54586729166667,137.8497128125,57.0,64.0
561,137.31509854166666,137.8497128125,62.0,68.0
562,137.77663604166668,138.2650965625,66.0,68.0
563,138.23817354166667,138.57855744791667,57.0,71.0
564,138.46894229166668,138.93240286458334,62.0,77.0
565,137.77663604166668,139.18240234375,38.0,80.0
566,138.93047979166667,139.20547921875,64.0,80.0
567,138.00740479166666,139.21509458333333,45.0,64.0
568,139.16124854166668,139.42663260416666,62.0,75.0
569,139.62278604166667,140.08047739583333,59.0,69.0
570,139.62278604166667,140.26509239583334,64.0,73.0
571,140.31509229166667,140.6420146875,59.0,72.0
572,140.54586104166665,140.90355260416666,64.0,75.0
573,140.77662979166666,141.12470598958333,68.0,59.0
574,141.00739854166667,141.27278260416668,64.0,76.0
575,140.08432354166666,141.27855182291665,47.0,63.0
576,139.62278604166667,141.29201333333333,40.0,77.0
577,141.23816729166666,141.54970510416666,59.0,77.0
578,141.46893604166667,141.899704375,64.0,75.0
579,141.93047354166666,142.05162713541668,59.0,71.0
580,141.69970479166668,142.22662677083332,47.0,64.0
581,142.16124229166667,142.46893395833334,59.0,77.0
582,142.16124229166667,142.59393369791667,64.0,77.0
583,142.39201104166668,142.79393328125,47.0,66.0
584,142.62277979166666,142.84970239583333,62.0,75.0
585,141.46893604166667,142.85547161458334,40.0,76.0
586,142.85354854166667,143.10162494791666,61.0,71.0
587,143.08431729166668,143.29970145833335,59.0,75.0
588,143.31508604166666,143.81123885416667,57.0,65.0
589,143.31508604166666,144.0573921875,61.0,71.0
590,144.23816104166667,144.484314375,59.0,77.0
591,144.46892979166668,144.95162109375,61.0,86.0
592,143.31508604166666,144.98623640625001,45.0,75.0
593,143.77662354166668,144.99969791666666,52.0,64.0
594,144.69969854166666,145.20546671875,57.0,71.0
595,144.93046729166667,145.60546588541666,64.0,75.0
596,145.62277354166667,145.88623453125,59.0,66.0
597,145.39200479166666,145.91315755208333,52.0,68.0
598,145.85354229166666,146.35354125,61.0,79.0
599,146.31507979166668,146.57469463541668,57.0,71.0
600,146.54584854166666,146.6881559375,64.0,73.0
601,146.08431104166667,146.74392505208334,52.0,77.0
602,145.16123604166665,146.792001875,45.0,75.0
603,147.00738604166668,147.14007807291668,57.0,71.0
604,147.00738604166668,147.27084703125,62.0,71.0
605,147.23815479166666,147.65353854166668,57.0,69.0
606,147.46892354166667,147.72853838541667,62.0,69.0
607,147.69969229166668,148.16699901041667,64.0,80.0
608,147.00738604166668,148.245845,50.0,76.0
609,148.16122979166667,148.42469078125,62.0,71.0
610,148.39199854166668,148.6727671875,57.0,68.0
611,148.62276729166666,148.85161296875,62.0,67.0
612,148.85353604166667,149.28238130208334,64.0,75.0
613,149.31507354166666,149.62468828125,59.0,76.0
614,149.54584229166667,149.99007213541668,64.0,76.0
615,149.08430479166668,150.14391796875,47.0,69.0
616,148.85353604166667,150.15737947916668,40.0,77.0
617,150.23814854166667,150.50353260416668,64.0,75.0
618,150.00737979166666,150.64199385416666,68.0,76.0
619,150.46891729166666,150.72468598958332,59.0,75.0
620,151.16122354166666,151.45545369791668,61.0,76.0
621,150.93045479166668,151.73429927083333,56.0,70.0
622,150.69968604166667,152.05737552083335,49.0,76.0
623,151.85352979166666,152.07468317708333,56.0,62.0
624,151.39199229166667,152.13622151041668,64.0,77.0
625,152.08429854166667,152.36314411458332,61.0,61.0
626,152.31506729166668,152.60929744791667,64.0,73.0
627,153.00737354166668,153.45160338541666,57.0,74.0
628,153.23814229166666,153.51121864583334,61.0,76.0
629,152.54583604166666,153.64583375,42.0,77.0
630,152.77660479166667,153.66698755208333,49.0,66.0
631,153.46891104166667,153.7727565625,66.0,82.0
632,153.69967979166665,153.93237161458333,61.0,79.0
633,153.93044854166666,154.06890979166667,57.0,77.0
634,154.39198604166666,154.60544713541665,57.0,75.0
635,154.39198604166666,155.03236932291668,62.0,75.0
636,154.85352354166668,155.20544588541668,57.0,69.0
637,155.31506104166667,155.50736833333335,57.0,79.0
638,155.31506104166667,155.80544463541668,62.0,80.0
639,154.39198604166666,156.08813635416666,50.0,75.0
640,155.77659854166666,156.12275166666666,57.0,78.0
641,156.23813604166668,156.49005859375,57.0,71.0
642,156.23813604166668,156.76505802083332,65.0,75.0
643,156.23813604166668,156.90928848958333,62.0,75.0
644,156.69967354166667,157.0265959375,57.0,67.0
645,156.23813604166668,157.29390307291666,50.0,80.0
646,157.16121104166666,157.40351822916668,57.0,84.0
647,157.16121104166666,157.476595,62.0,82.0
648,157.39197979166667,157.5342871875,50.0,78.0
649,157.62274854166668,157.9265940625,57.0,80.0
650,157.85351729166666,158.14967052083333,62.0,80.0
651,158.08428604166667,159.21889906250001,64.0,76.0
652,159.00736104166666,159.43620630208332,52.0,86.0
653,159.23812979166667,159.52659072916666,56.0,77.0
654,158.54582354166666,159.7958209375,47.0,77.0
655,158.08428604166667,159.80159015625,40.0,80.0
656,159.46889854166668,159.80351322916667,59.0,74.0
657,159.69966729166666,160.04197427083332,52.0,81.0
658,159.93043604166667,160.52851171875,64.0,80.0
659,160.39197354166666,160.7073575,52.0,82.0
660,160.62274229166667,160.75543432291667,56.0,84.0
661,160.16120479166668,160.92851088541667,47.0,75.0
662,160.85351104166668,161.12466432291666,52.0,80.0
663,160.85351104166668,161.33812541666666,56.0,77.0
664,160.85351104166668,161.42466369791666,59.0,77.0
665,161.54581729166668,161.60543255208333,59.0,22.0
666,161.31504854166667,161.6650478125,52.0,89.0
667,159.93043604166667,161.70927848958334,40.0,75.0
668,161.08427979166666,161.71697078125,47.0,80.0
669,161.54581729166668,161.71889385416668,56.0,76.0
670,161.77658604166666,162.06120083333334,57.0,71.0
671,161.77658604166666,162.29389265625,64.0,77.0
672,162.23812354166668,162.48043072916667,57.0,80.0
673,162.00735479166667,162.64196885416666,52.0,63.0
674,162.46889229166666,162.9573528125,59.0,74.0
675,162.69966104166667,163.01504500000001,52.0,75.0
676,161.77658604166666,163.43619796875,45.0,77.0
677,162.93042979166665,163.453505625,61.0,92.0
678,163.16119854166666,163.53619776041666,52.0,64.0
679,163.39196729166667,163.74004348958334,57.0,77.0
680,163.62273604166666,164.02273520833333,64.0,81.0
681,163.85350479166667,164.35350375,52.0,68.0
682,164.08427354166668,164.35734989583332,57.0,77.0
683,164.31504229166666,164.8035028125,59.0,84.0
684,163.62273604166666,164.91504104166665,45.0,80.0
685,164.77657979166668,165.0573484375,61.0,86.0
686,164.54581104166667,165.25927109375,52.0,68.0
687,165.00734854166666,165.44773223958333,57.0,75.0
688,165.46888604166668,166.05542328125,64.0,84.0
689,165.93042354166667,166.52080692708333,56.0,76.0
690,166.16119229166668,166.67080661458334,59.0,75.0
691,165.69965479166666,166.78042177083333,52.0,64.0
692,165.46888604166668,166.84772932291668,44.0,81.0
693,166.85349854166668,167.11888260416666,56.0,77.0
694,166.62272979166667,167.69772755208334,64.0,82.0
695,167.08426729166666,167.699650625,59.0,76.0
696,167.77657354166666,168.09772671875,52.0,81.0
697,168.00734229166667,168.09772671875,52.0,43.0
698,168.00734229166667,168.31695703125,56.0,91.0
699,168.46887979166667,168.55541807291667,52.0,75.0
700,167.54580479166665,168.67657166666666,47.0,64.0
701,167.31503604166667,168.71887927083333,40.0,80.0
702,168.46887979166667,168.73811,56.0,81.0
703,168.46887979166667,168.78041760416667,59.0,76.0
704,168.69964854166668,168.81118677083333,52.0,78.0
705,168.46887979166667,168.88041739583335,64.0,77.0
706,169.16118604166667,169.34772411458334,57.0,72.0
707,169.16118604166667,169.60541588541668,62.0,69.0
708,169.62272354166666,169.9381075,57.0,78.0
709,169.85349229166667,170.05541494791666,62.0,80.0
710,170.08426104166668,170.33618359375,64.0,82.0
711,170.31502979166666,170.5727215625,62.0,79.0
712,169.39195479166668,170.84195177083333,45.0,70.0
713,169.16118604166667,170.86502864583335,38.0,79.0
714,170.54579854166667,171.12079734375,57.0,77.0
715,170.77656729166668,171.44195052083333,62.0,75.0
716,171.46887354166668,171.622719375,57.0,77.0
717,171.69964229166666,172.04002619791666,57.0,61.0
718,171.69964229166666,172.09194916666667,65.0,75.0
719,171.23810479166667,172.28617953125,45.0,65.0
720,172.16117979166665,172.38233317708332,57.0,78.0
721,172.16117979166665,172.55156359375,62.0,81.0
722,171.00733604166666,172.684255625,38.0,81.0
723,172.39194854166666,172.72271708333332,45.0,74.0
724,172.62271729166667,172.75156317708334,57.0,78.0
725,172.85348604166666,173.11310088541666,59.0,76.0
726,172.85348604166666,173.21117760416666,64.0,77.0
727,173.31502354166668,173.81117635416666,59.0,79.0
728,173.54579229166666,173.83425322916668,64.0,71.0
729,173.77656104166667,174.08617578125,68.0,82.0
730,173.08425479166667,174.28617536458333,47.0,71.0
731,174.00732979166668,174.3111753125,59.0,86.0
732,172.85348604166666,174.345790625,40.0,82.0
733,174.23809854166666,174.345790625,64.0,78.0
734,174.46886729166667,174.59194395833333,64.0,75.0
735,174.46886729166667,174.59771317708334,59.0,73.0
736,174.46886729166667,174.60732854166667,68.0,76.0
737,174.69963604166668,174.94963552083334,59.0,76.0
738,174.69963604166668,175.00155848958335,64.0,81.0
739,174.69963604166668,175.04578916666668,68.0,78.0
740,175.16117354166667,175.24194260416667,59.0,75.0
741,175.39194229166668,175.499634375,64.0,79.0
742,175.39194229166668,175.5111728125,59.0,75.0
743,175.39194229166668,175.52655739583332,68.0,76.0
744,174.93040479166666,175.65348020833332,47.0,75.0
745,175.62271104166666,175.90155661458334,59.0,82.0
746,175.62271104166666,175.92078734375,64.0,86.0
747,175.62271104166666,175.9265565625,68.0,76.0
748,174.69963604166668,176.099633125,40.0,84.0
749,175.85347979166667,176.10732541666667,47.0,78.0
750,176.08424854166668,176.16886375,59.0,72.0
751,176.08424854166668,176.24770973958334,76.0,75.0
752,176.08424854166668,176.25347895833335,69.0,71.0
753,176.08424854166668,176.43809395833333,64.0,77.0
754,176.31501729166666,176.44194010416666,59.0,72.0
755,176.54578604166667,176.699631875,69.0,76.0
756,176.54578604166667,176.70155494791666,73.0,78.0
757,177.00732354166666,177.27078453125,57.0,77.0
758,176.77655479166665,177.36501510416667,52.0,72.0
759,177.23809229166667,177.55155317708332,61.0,76.0
760,177.69962979166667,177.97847536458335,64.0,81.0
761,176.54578604166667,178.26116708333333,45.0,79.0
762,177.46886104166666,178.27655166666668,52.0,75.0
763,177.93039854166668,178.43232057291667,57.0,73.0
764,178.16116729166666,178.545781875,61.0,81.0
765,178.39193604166667,178.89770421875,69.0,75.0
766,178.85347354166666,178.98616557291666,57.0,73.0
767,178.62270479166668,179.14578062500001,52.0,70.0
768,179.08424229166667,179.38424166666667,57.0,76.0
769,178.39193604166667,179.54193364583332,45.0,77.0
770,179.08424229166667,179.57654895833335,61.0,77.0
771,179.31501104166668,179.59193354166666,52.0,74.0
772,179.08424229166667,179.61693348958335,64.0,77.0
773,179.54577979166666,179.82462536458334,57.0,78.0
774,179.77654854166667,179.92847130208332,61.0,79.0
775,180.23808604166666,180.72077734375,64.0,81.0
776,180.69962354166668,181.00923828125,56.0,75.0
777,180.93039229166666,181.02077671875,61.0,80.0
778,181.39192979166666,181.65346770833332,64.0,89.0
779,181.62269854166667,181.80154432291667,61.0,74.0
780,180.23808604166666,181.89385182291667,37.0,77.0
781,180.46885479166667,181.915005625,44.0,71.0
782,181.85346729166668,182.16308203125,56.0,75.0
783,182.08423604166666,182.61308109375,64.0,80.0
784,182.54577354166668,182.653465625,56.0,69.0
785,182.31500479166667,182.88231130208334,44.0,63.0
786,182.77654229166666,183.09000317708333,64.0,84.0
787,182.77654229166666,183.09769546875,61.0,78.0
788,182.77654229166666,183.10538776041668,56.0,80.0
789,182.08423604166666,183.24961822916666,37.0,76.0
790,183.00731104166667,183.27846432291668,44.0,79.0
791,183.23807979166668,183.345771875,56.0,75.0
792,183.23807979166668,183.46692546875,61.0,77.0
793,183.46884854166666,183.54961760416666,56.0,77.0
794,183.93038604166668,184.06884729166666,57.0,75.0
795,183.93038604166668,184.18038552083334,62.0,75.0
796,184.16115479166666,184.49769255208332,57.0,68.0
797,184.39192354166667,184.56692317708334,62.0,68.0
798,184.62269229166668,184.8803840625,64.0,76.0
799,184.85346104166666,185.09192208333334,62.0,76.0
800,185.08422979166667,185.42076755208333,57.0,76.0
801,183.93038604166668,185.60345947916667,50.0,80.0
802,185.31499854166665,185.63422864583333,62.0,74.0
803,185.54576729166666,186.23038125,66.0,79.0
804,186.00730479166666,186.36115020833333,57.0,74.0
805,186.23807354166667,186.39191937500001,62.0,75.0
806,186.46884229166668,186.76307244791667,57.0,78.0
807,186.46884229166668,186.79768776041666,64.0,82.0
808,186.93037979166667,187.038071875,57.0,82.0
809,185.77653604166667,187.0957640625,50.0,89.0
810,186.93037979166667,187.1649946875,62.0,79.0
811,187.16114854166668,187.43422489583332,57.0,71.0
812,187.39191729166666,187.56307078125,62.0,69.0
813,187.62268604166667,187.84768557291667,59.0,71.0
814,187.62268604166667,188.35729989583334,64.0,77.0
815,188.08422354166666,188.37268447916668,52.0,77.0
816,188.31499229166667,188.8496065625,59.0,75.0
817,188.77652979166666,189.00729854166667,56.0,84.0
818,187.85345479166668,189.30729791666667,47.0,65.0
819,187.62268604166667,189.32652864583332,40.0,81.0
820,189.00729854166667,189.58422041666668,52.0,78.0
821,189.23806729166668,190.19191145833332,64.0,84.0
822,189.93037354166665,190.54383380208333,52.0,76.0
823,190.16114229166666,190.61883364583335,56.0,80.0
824,189.69960479166667,190.78229484375,47.0,68.0
825,189.46883604166666,190.80921786458333,40.0,79.0
826,190.62267979166666,190.90921765625,59.0,75.0
827,190.85344854166667,190.95344833333334,52.0,77.0
828,191.31498604166666,191.78421583333335,61.0,69.0
829,191.31498604166666,191.80152348958333,57.0,74.0
830,192.00729229166666,192.48806052083333,59.0,73.0
831,191.31498604166666,192.95344416666666,45.0,76.0
832,191.77652354166668,192.97652104166667,52.0,75.0
833,192.46882979166668,192.99959791666666,61.0,86.0
834,192.69959854166666,193.33421260416668,57.0,68.0
835,192.93036729166667,193.59575052083335,64.0,76.0
836,193.62267354166667,193.88998067708334,59.0,69.0
837,193.39190479166666,193.98998046875,52.0,69.0
838,194.08421104166666,194.58036385416668,52.0,71.0
839,193.16113604166668,194.59767151041666,45.0,76.0
840,193.85344229166668,194.60536380208333,61.0,84.0
841,195.00728604166667,195.484208125,61.0,77.0
842,195.46882354166667,195.80920744791666,57.0,75.0
843,195.69959229166668,195.81113052083333,61.0,82.0
844,195.23805479166666,196.01689932291666,49.0,65.0
845,195.00728604166667,196.0265146875,42.0,79.0
846,195.93036104166666,196.0265146875,57.0,76.0
847,195.93036104166666,196.12459140625,61.0,77.0
848,195.93036104166666,196.22843734375,66.0,77.0
849,196.16112979166667,196.2572834375,57.0,70.0
850,196.39189854166668,197.14958927083333,57.0,77.0
851,196.39189854166668,197.40535796875,62.0,76.0
852,197.31497354166666,197.61497291666666,57.0,79.0
853,197.54574229166667,197.6418959375,62.0,76.0
854,197.08420479166668,197.9188184375,45.0,65.0
855,197.77651104166668,198.03997203125,57.0,80.0
856,197.77651104166668,198.28420229166667,64.0,79.0
857,196.39189854166668,198.33804833333335,38.0,77.0
858,198.00727979166666,198.37266364583334,45.0,73.0
859,198.23804854166667,198.50727875,62.0,81.0
860,198.46881729166668,198.56881708333333,57.0,71.0
861,198.69958604166666,198.96497010416667,59.0,77.0
862,198.69958604166666,199.18227734375,64.0,76.0
863,199.16112354166665,199.49381515625,59.0,77.0
864,199.39189229166666,199.54189197916668,64.0,72.0
865,199.62266104166667,199.6495840625,64.0,54.0
866,198.69958604166666,199.73996848958333,40.0,79.0
867,198.93035479166667,199.7649684375,47.0,68.0
868,199.62266104166667,199.95919880208334,59.0,82.0
869,200.08419854166667,200.41496708333332,64.0,73.0
870,200.54573604166666,200.81496625,57.0,69.0
871,200.54573604166666,200.86496614583334,61.0,68.0
872,200.54573604166666,201.09573489583335,64.0,73.0
873,201.00727354166668,201.1495809375,57.0,67.0
874,200.77650479166667,201.30534984375,52.0,71.0
875,201.23804229166666,201.4495803125,59.0,82.0
876,201.46881104166667,201.75919505208333,57.0,77.0
877,201.46881104166667,201.96304078125002,61.0,75.0
878,200.54573604166666,202.11304046875,45.0,80.0
879,201.93034854166666,202.23227098958333,57.0,79.0
880,201.46881104166667,202.26496322916668,52.0,76.0
881,202.39188604166668,202.822654375,57.0,78.0
882,202.39188604166668,203.12073067708334,66.0,75.0
883,202.39188604166668,203.22265354166666,38.0,82.0
884,203.08419229166668,203.2264996875,57.0,81.0
885,202.85342354166667,203.23226890625,45.0,75.0
886,203.31496104166666,203.41303776041667,57.0,81.0
887,203.31496104166666,203.55726822916668,62.0,82.0
888,203.31496104166666,203.67649875,66.0,76.0
889,203.54572979166667,203.72457557291668,57.0,75.0
890,204.23803604166667,204.33995890625,56.0,81.0
891,204.23803604166667,204.3572665625,49.0,89.0
892,204.23803604166667,204.3803434375,61.0,75.0
893,204.23803604166667,204.3803434375,66.0,76.0
894,204.69957354166667,205.32649531250001,61.0,75.0
895,204.69957354166667,205.38226442708333,66.0,68.0
896,205.39187979166667,205.69764838541667,49.0,76.0
897,204.69957354166667,205.73226369791666,42.0,86.0
898,205.62264854166668,206.12649364583334,66.0,62.0
899,206.08418604166667,206.12649364583334,66.0,77.0
900,205.62264854166668,206.14187822916668,61.0,81.0
901,205.62264854166668,206.16110895833333,70.0,75.0
902,206.08418604166667,206.36687776041666,59.0,76.0
903,206.08418604166667,206.42841609375,62.0,75.0
904,206.31495479166668,206.56303119791667,54.0,74.0
905,206.08418604166667,206.61495416666668,47.0,78.0
906,206.54572354166666,206.84764598958333,59.0,86.0
907,206.77649229166667,206.94572270833334,62.0,76.0
908,207.00726104166668,207.19187604166666,59.0,77.0
909,207.23802979166666,207.5418753125,47.0,76.0
910,207.00726104166668,207.63225973958333,40.0,81.0
911,207.00726104166668,207.72072109375,64.0,89.0
912,207.46879854166667,207.83033625,52.0,81.0
913,207.69956729166668,207.88418229166666,56.0,89.0
914,208.39187354166666,208.72648822916668,53.0,84.0
915,208.62264229166666,208.74956510416666,57.0,75.0
916,208.85341104166667,209.15148734375,57.0,79.0
917,208.85341104166667,209.17841036458333,53.0,78.0
918,208.85341104166667,209.18994880208334,60.0,78.0
919,208.16110479166667,209.58802489583334,48.0,70.0
920,207.93033604166666,209.60340947916666,41.0,86.0
921,209.31494854166667,209.65725552083333,53.0,75.0
922,209.31494854166667,209.65725552083333,57.0,76.0
923,209.31494854166667,209.66879395833334,65.0,70.0
924,209.31494854166667,209.67648625,60.0,71.0
925,209.77648604166666,210.08225463541666,65.0,76.0
926,209.77648604166666,210.09571614583334,57.0,78.0
927,209.77648604166666,210.10533151041668,53.0,77.0
928,209.77648604166666,210.11494687500002,60.0,76.0
929,210.23802354166668,210.57263822916667,53.0,79.0
930,210.23802354166668,210.57263822916667,57.0,81.0
931,210.23802354166668,210.59571510416666,60.0,78.0
932,209.77648604166666,210.61686890625,41.0,80.0
933,210.69956104166667,210.81494541666666,53.0,81.0
934,210.69956104166667,210.95917588541667,57.0,82.0
935,210.69956104166667,211.01109885416668,60.0,81.0
936,210.69956104166667,211.02071421875002,65.0,76.0
937,211.16109854166666,211.52071317708334,57.0,81.0
938,210.93032979166668,211.53802083333335,53.0,92.0
939,211.39186729166667,211.591866875,60.0,79.0
940,210.69956104166667,211.60725145833334,48.0,78.0
941,210.69956104166667,211.62071296875,41.0,77.0
942,211.62263604166668,211.90725083333334,58.0,71.0
943,211.62263604166668,212.13994265625,65.0,77.0
944,212.08417354166667,212.32648072916666,58.0,80.0
945,211.85340479166666,212.48801885416665,53.0,63.0
946,212.31494229166668,212.8034028125,60.0,74.0
947,212.54571104166666,212.861095,53.0,75.0
948,211.62263604166668,213.28224796875,46.0,77.0
949,212.77647979166667,213.299555625,62.0,92.0
950,213.00724854166666,213.38224776041667,53.0,64.0
951,213.23801729166667,213.58609348958333,58.0,77.0
952,213.46878604166668,213.86878520833332,65.0,81.0
953,213.69955479166666,214.19955375,53.0,68.0
954,213.93032354166667,214.20339989583334,58.0,77.0
955,214.16109229166668,214.6495528125,60.0,84.0
956,213.46878604166668,214.76109104166667,46.0,80.0
957,214.62262979166667,214.9033984375,62.0,86.0
958,214.39186104166666,215.10532109375,53.0,68.0
959,214.85339854166668,215.29378223958332,58.0,75.0
960,215.31493604166667,215.90147328125,65.0,84.0
961,215.77647354166666,216.36685692708335,57.0,76.0
962,216.00724229166667,216.51685661458333,60.0,75.0
963,215.54570479166668,216.62647177083335,53.0,64.0
964,215.31493604166667,216.69377932291667,45.0,81.0
965,216.69954854166667,216.96493260416668,57.0,77.0
966,216.46877979166666,217.54377755208333,65.0,82.0
967,216.93031729166668,217.545700625,60.0,76.0
968,217.62262354166666,217.94377671875,53.0,81.0
969,217.85339229166667,217.94377671875,53.0,43.0
970,217.85339229166667,218.16300703125,57.0,91.0
971,218.31492979166666,218.40146807291666,53.0,75.0
972,217.39185479166667,218.52262166666668,48.0,64.0
973,217.16108604166666,218.56492927083335,41.0,80.0
974,218.31492979166666,218.58416,57.0,81.0
975,218.31492979166666,218.62646760416666,60.0,76.0
976,218.54569854166667,218.65723677083332,53.0,78.0
977,218.31492979166666,218.72646739583334,65.0,77.0
978,219.00723604166666,219.19377411458333,58.0,72.0
979,219.00723604166666,219.45146588541667,63.0,69.0
980,219.46877354166668,219.7841575,58.0,78.0
981,219.69954229166666,219.90146494791668,63.0,80.0
982,219.93031104166667,220.18223359375,65.0,82.0
983,220.16107979166668,220.4187715625,63.0,79.0
984,219.23800479166667,220.68800177083332,46.0,70.0
985,219.00723604166666,220.71107864583334,39.0,79.0
986,220.39184854166666,220.96684734375,58.0,77.0
987,220.62261729166667,221.28800052083332,63.0,75.0
988,221.31492354166667,221.468769375,58.0,77.0
989,221.54569229166665,221.88607619791668,58.0,61.0
990,221.54569229166665,221.93799916666666,66.0,75.0
991,221.08415479166666,222.13222953125,46.0,65.0
992,222.00722979166667,222.22838317708334,58.0,78.0
993,222.00722979166667,222.39761359375,63.0,81.0
994,220.85338604166668,222.530305625,39.0,81.0
995,222.23799854166666,222.56876708333334,46.0,74.0
996,222.46876729166667,222.59761317708333,58.0,78.0
997,222.69953604166668,222.95915088541668,60.0,76.0
998,222.69953604166668,223.05722760416666,65.0,77.0
999,223.16107354166667,223.65722635416668,60.0,79.0
1000,223.39184229166668,223.68030322916667,65.0,71.0
1001,223.62261104166666,223.93222578125,69.0,82.0
1002,222.93030479166666,224.13222536458335,48.0,71.0
1003,223.85337979166667,224.1572253125,60.0,86.0
1004,222.69953604166668,224.191840625,41.0,82.0
1005,224.08414854166668,224.191840625,65.0,78.0
1006,224.31491729166666,224.43799395833332,65.0,75.0
1007,224.31491729166666,224.44376317708333,60.0,73.0
1008,224.31491729166666,224.45337854166667,69.0,76.0
1009,224.54568604166667,224.79568552083333,60.0,76.0
1010,224.54568604166667,224.84760848958334,65.0,81.0
1011,224.54568604166667,224.89183916666667,69.0,78.0
1012,225.00722354166666,225.08799260416666,60.0,75.0
1013,225.23799229166667,225.345684375,65.0,79.0
1014,225.23799229166667,225.3572228125,60.0,75.0
1015,225.23799229166667,225.37260739583334,69.0,76.0
1016,224.77645479166668,225.49953020833334,48.0,75.0
1017,225.46876104166668,225.74760661458333,60.0,82.0
1018,225.46876104166668,225.76683734375,65.0,86.0
1019,225.46876104166668,225.7726065625,69.0,76.0
1020,224.54568604166667,225.945683125,41.0,84.0
1021,225.69952979166666,225.95337541666666,48.0,78.0
1022,225.93029854166667,226.01491375,60.0,72.0
1023,225.93029854166667,226.09375973958333,77.0,75.0
1024,225.93029854166667,226.09952895833334,70.0,71.0
1025,225.93029854166667,226.28414395833335,65.0,77.0
1026,226.16106729166665,226.28799010416668,60.0,72.0
1027,226.39183604166666,226.545681875,70.0,76.0
1028,226.39183604166666,226.54760494791668,74.0,78.0
1029,226.85337354166666,227.11683453125,58.0,77.0
1030,226.62260479166667,227.21106510416666,53.0,72.0
1031,227.08414229166667,227.39760317708334,62.0,76.0
1032,227.54567979166666,227.82452536458334,65.0,81.0
1033,226.39183604166666,228.10721708333332,46.0,79.0
1034,227.31491104166668,228.12260166666667,53.0,75.0
1035,227.77644854166667,228.27837057291666,58.0,73.0
1036,228.00721729166668,228.391831875,62.0,81.0
1037,228.23798604166666,228.74375421875,70.0,75.0
1038,228.69952354166668,228.83221557291668,58.0,73.0
1039,228.46875479166667,228.991830625,53.0,70.0
1040,228.93029229166666,229.23029166666666,58.0,76.0
1041,228.23798604166666,229.38798364583334,46.0,77.0
1042,228.93029229166666,229.42259895833334,62.0,77.0
1043,229.16106104166667,229.43798354166668,53.0,74.0
1044,228.93029229166666,229.46298348958334,65.0,77.0
1045,229.39182979166668,229.67067536458333,58.0,78.0
1046,229.62259854166666,229.77452130208334,62.0,79.0
1047,230.08413604166668,230.56682734375,65.0,81.0
1048,230.54567354166667,230.85528828125,57.0,75.0
1049,230.77644229166665,230.86682671875,62.0,80.0
1050,231.23797979166667,231.49951770833334,65.0,89.0
1051,231.46874854166666,231.64759432291666,62.0,74.0
1052,230.08413604166668,231.73990182291666,38.0,77.0
1053,230.31490479166666,231.761055625,45.0,71.0
1054,231.69951729166667,232.00913203125,57.0,75.0
1055,231.93028604166668,232.45913109375,65.0,80.0
1056,232.39182354166667,232.49951562500002,57.0,69.0
1057,232.16105479166666,232.72836130208333,45.0,63.0
1058,232.62259229166668,232.93605317708332,65.0,84.0
1059,232.62259229166668,232.94374546875,62.0,78.0
1060,232.62259229166668,232.95143776041667,57.0,80.0
1061,231.93028604166668,233.09566822916668,38.0,76.0
1062,232.85336104166666,233.12451432291667,45.0,79.0
1063,233.08412979166667,233.191821875,57.0,75.0
1064,233.08412979166667,233.31297546875,62.0,77.0
1065,233.31489854166668,233.39566760416668,57.0,77.0
1066,233.77643604166667,233.91489729166668,58.0,75.0
1067,233.77643604166667,234.02643552083333,63.0,75.0
1068,234.00720479166668,234.34374255208334,58.0,68.0
1069,234.23797354166666,234.41297317708333,63.0,68.0
1070,234.46874229166667,234.7264340625,65.0,76.0
1071,234.69951104166668,234.93797208333334,63.0,76.0
1072,234.93027979166666,235.26681755208332,58.0,76.0
1073,233.77643604166667,235.44950947916666,51.0,80.0
1074,235.16104854166667,235.48027864583332,63.0,74.0
1075,235.39181729166665,236.07643125,67.0,79.0
1076,235.85335479166667,236.20720020833335,58.0,74.0
1077,236.08412354166666,236.237969375,63.0,75.0
1078,236.31489229166667,236.60912244791666,58.0,78.0
1079,236.31489229166667,236.64373776041666,65.0,82.0
1080,236.77642979166666,236.884121875,58.0,82.0
1081,235.62258604166666,236.94181406250001,51.0,89.0
1082,236.77642979166666,237.0110446875,63.0,79.0
1083,237.00719854166667,237.28027489583334,58.0,71.0
1084,237.23796729166668,237.40912078125,63.0,69.0
1085,237.46873604166666,237.69373557291667,60.0,71.0
1086,237.46873604166666,238.20334989583333,65.0,77.0
1087,237.93027354166668,238.21873447916667,53.0,77.0
1088,238.16104229166666,238.6956565625,60.0,75.0
1089,238.62257979166668,238.85334854166666,57.0,84.0
1090,237.69950479166667,239.15334791666666,48.0,65.0
1091,237.46873604166666,239.17257864583334,41.0,81.0
1092,238.85334854166666,239.43027041666667,53.0,78.0
1093,239.08411729166667,240.03796145833334,65.0,84.0
1094,239.77642354166667,240.38988380208335,53.0,76.0
1095,240.00719229166666,240.46488364583334,57.0,80.0
1096,239.54565479166666,240.62834484375,48.0,68.0
1097,239.31488604166668,240.65526786458332,41.0,79.0
1098,240.46872979166668,240.75526765625,60.0,75.0
1099,240.69949854166666,240.79949833333333,53.0,77.0
1100,241.16103604166668,241.63026583333334,62.0,69.0
1101,241.16103604166668,241.64757348958332,58.0,74.0
1102,241.85334229166668,242.33411052083335,60.0,73.0
1103,241.16103604166668,242.79949416666668,46.0,76.0
1104,241.62257354166667,242.82257104166666,53.0,75.0
1105,242.31487979166667,242.84564791666668,62.0,86.0
1106,242.54564854166668,243.18026260416667,58.0,68.0
1107,242.77641729166666,243.44180052083334,65.0,76.0
1108,243.46872354166666,243.73603067708333,60.0,69.0
1109,243.23795479166668,243.83603046875,53.0,69.0
1110,243.93026104166668,244.42641385416667,53.0,71.0
1111,243.00718604166667,244.44372151041668,46.0,76.0
1112,243.69949229166667,244.45141380208332,62.0,84.0
1113,245.77641104166668,246.27448692708333,58.0,78.0
1114,246.23794854166667,246.57256322916666,62.0,76.0
1115,246.69948604166666,247.01679307291667,58.0,63.0
1116,246.69948604166666,247.10525442708334,65.0,67.0
1117,246.69948604166666,247.10910057291667,62.0,70.0
1118,245.31487354166666,247.70717625,53.0,61.0
1119,244.85333604166667,247.77256072916666,46.0,72.0
1120,247.62256104166667,247.79563760416667,58.0,57.0
1121,247.62256104166667,247.96679109375,62.0,68.0
1122,248.54563604166668,249.0340965625,55.0,66.0
1123,248.54563604166668,249.22255770833334,62.0,70.0
1124,249.46871104166667,249.74755661458335,57.0,69.0
1125,249.69947979166668,249.96486385416668,58.0,77.0
1126,249.93024854166666,250.13601734375,62.0,75.0
1127,249.00717354166667,250.21486333333334,50.0,60.0
1128,248.54563604166668,250.25140171875,43.0,76.0
1129,250.16101729166667,250.34563229166667,55.0,70.0
1130,250.39178604166668,250.86486197916668,58.0,57.0
1131,250.39178604166668,250.88409270833333,62.0,67.0
1132,250.39178604166668,250.914861875,55.0,59.0
1133,250.85332354166667,251.3879378125,50.0,54.0
1134,251.31486104166666,251.4571684375,58.0,82.0
1135,251.31486104166666,251.46486072916667,62.0,77.0
1136,251.31486104166666,251.47447609375,55.0,77.0
1137,250.39178604166668,251.58024510416666,43.0,70.0
1138,251.54562979166667,251.68409104166668,50.0,69.0
1139,251.77639854166668,251.87447526041666,43.0,73.0
1140,252.23793604166667,252.7494734375,51.0,78.0
1141,252.23793604166667,252.75139651041667,55.0,81.0
1142,252.23793604166667,252.77255031250002,63.0,76.0
1143,252.23793604166667,252.78408875,58.0,76.0
1144,252.93024229166667,253.05524203125,51.0,77.0
1145,253.16101104166665,253.26485697916667,51.0,86.0
1146,253.16101104166665,253.32447223958334,55.0,91.0
1147,252.23793604166667,253.33216453125002,39.0,84.0
1148,253.16101104166665,253.3494721875,58.0,79.0
1149,252.69947354166666,253.35331833333333,46.0,64.0
1150,253.16101104166665,253.55139484375,63.0,76.0
1151,253.62254854166667,253.86100958333333,51.0,77.0
1152,253.85331729166666,253.96485552083334,55.0,74.0
1153,254.08408604166667,254.20716270833333,38.0,82.0
1154,254.08408604166667,254.21100885416666,50.0,78.0
1155,254.08408604166667,254.24370109375,62.0,78.0
1156,254.54562354166666,255.07062244791666,55.0,73.0
1157,254.54562354166666,255.1263915625,59.0,68.0
1158,255.23792979166666,255.50716,55.0,86.0
1159,255.46869854166667,255.73215953125,59.0,78.0
1160,255.00716104166668,255.80908244791667,50.0,81.0
1161,254.54562354166666,255.82254395833334,43.0,84.0
1162,255.69946729166668,255.84946697916666,55.0,76.0
1163,255.93023604166666,256.20908161458334,55.0,77.0
1164,255.93023604166666,256.28985067708334,60.0,76.0
1165,256.16100479166664,256.430235,43.0,67.0
1166,255.93023604166666,256.4340811458333,36.0,75.0
1167,255.93023604166666,256.54369630208333,63.0,76.0
1168,256.3917735416667,256.6763883333333,55.0,79.0
1169,256.62254229166666,256.70331135416666,60.0,75.0
1170,256.85331104166664,257.13984890625,53.0,76.0
1171,256.85331104166664,257.3052331770833,57.0,77.0
1172,257.31484854166666,257.46292515625,53.0,79.0
1173,257.0840797916667,257.4802328125,48.0,67.0
1174,256.85331104166664,257.54369421875,41.0,77.0
1175,257.7763860416667,258.23215432291664,53.0,77.0
1176,257.7763860416667,258.52830755208333,58.0,76.0
1177,258.4686922916667,258.59561510416665,53.0,65.0
1178,258.69946104166667,258.8513838020833,53.0,71.0
1179,258.69946104166667,259.1859984895833,58.0,74.0
1180,259.1609985416667,259.28215213541665,53.0,64.0
1181,258.69946104166667,259.4186903125,62.0,75.0
1182,259.39176729166667,259.914843125,58.0,76.0
1183,259.8533047916667,259.9956121875,53.0,51.0
1184,260.08407354166667,260.1802271875,58.0,63.0
1185,260.31484229166665,260.6379185416667,53.0,74.0
1186,258.23792354166665,261.00137932291665,50.0,57.0
1187,257.7763860416667,261.01676390625,46.0,86.0
1188,260.31484229166665,261.03984078125,62.0,79.0
1189,261.00714854166665,261.1398405729167,53.0,75.0
1190,261.4686860416667,262.1898383854167,53.0,67.0
1191,261.4686860416667,262.19176145833336,58.0,67.0
1192,261.4686860416667,262.20137682291664,46.0,71.0
