,start,end,pitch,velocity
0,28.515625,28.7470703125,77.0,79.0
1,28.75,28.9814453125,77.0,80.0
2,28.984375,29.216796875,77.0,84.0
3,29.21875,29.451171875,70.0,63.0
4,29.453125,29.685546875,72.0,71.0
5,29.6875,29.919921875,73.0,62.0
6,29.921875,30.1533203125,77.0,90.0
7,30.15625,30.3876953125,77.0,87.0
8,30.390625,30.623046875,77.0,87.0
9,30.625,30.857421875,70.0,69.0
10,30.859375,31.09375,72.0,64.0
11,31.09375,31.326171875,73.0,79.0
12,31.328125,31.5595703125,77.0,87.0
13,31.5625,31.7939453125,77.0,75.0
14,31.796875,32.0283203125,77.0,72.0
15,32.03125,32.263671875,77.0,77.0
16,32.265625,32.498046875,75.0,73.0
17,32.5,32.732421875,73.0,74.0
18,32.734375,34.138671875,70.0,87.0
19,34.140625,34.3720703125,73.0,84.0
20,34.375,34.6064453125,73.0,93.0
21,34.609375,34.841796875,73.0,86.0
22,34.84375,35.1103515625,70.0,66.0
23,35.078125,35.3349609375,72.0,74.0
24,35.3125,35.544921875,73.0,89.0
25,35.546875,35.7783203125,75.0,90.0
26,35.78125,36.0126953125,75.0,90.0
27,36.015625,36.2470703125,75.0,77.0
28,36.25,36.4814453125,75.0,69.0
29,36.484375,36.716796875,75.0,87.0
30,36.71875,36.951171875,68.0,59.0
31,36.953125,37.1845703125,77.0,82.0
32,37.1875,37.4189453125,77.0,75.0
33,37.421875,37.6533203125,77.0,69.0
34,37.65625,37.888671875,77.0,84.0
35,37.890625,38.123046875,75.0,89.0
36,38.125,38.359375,73.0,87.0
37,38.359375,39.7626953125,77.0,94.0
38,39.765625,39.9970703125,77.0,97.0
39,40.0,40.2314453125,77.0,84.0
40,40.234375,40.466796875,77.0,90.0
41,40.46875,40.72265625,70.0,64.0
42,40.703125,40.9482421875,72.0,81.0
43,40.9375,41.169921875,73.0,66.0
44,41.171875,41.4033203125,77.0,89.0
45,41.40625,41.6376953125,77.0,90.0
46,41.640625,41.873046875,77.0,86.0
47,41.875,42.107421875,70.0,84.0
48,42.109375,42.388671875,72.0,68.0
49,42.34375,42.576171875,73.0,80.0
50,42.578125,42.8095703125,77.0,90.0
51,42.8125,43.0439453125,77.0,96.0
52,43.046875,43.279296875,77.0,93.0
53,43.28125,43.513671875,82.0,86.0
54,43.515625,43.748046875,77.0,79.0
55,43.75,43.982421875,73.0,73.0
56,43.984375,45.388671875,70.0,90.0
57,45.390625,46.099609375,73.0,93.0
58,46.09375,46.326171875,75.0,89.0
59,46.328125,46.794921875,73.0,87.0
60,46.796875,47.263671875,72.0,86.0
61,47.265625,47.732421875,70.0,87.0
62,47.734375,48.2626953125,68.0,93.0
63,48.203125,51.013671875,70.0,100.0
64,51.015625,51.7158203125,80.0,94.0
65,51.71875,51.9501953125,80.0,91.0
66,51.953125,52.4189453125,80.0,91.0
67,52.421875,52.888671875,80.0,91.0
68,52.890625,53.357421875,78.0,92.0
69,53.359375,53.826171875,75.0,87.0
70,53.828125,54.529296875,78.0,97.0
71,54.53125,54.763671875,80.0,93.0
72,54.765625,54.998046875,78.0,83.0
73,55.0,55.2568359375,75.0,86.0
74,55.234375,56.638671875,77.0,99.0
75,56.640625,57.341796875,75.0,94.0
76,57.34375,57.5751953125,75.0,90.0
77,57.578125,58.0439453125,75.0,87.0
78,58.046875,58.513671875,75.0,103.0
79,58.515625,58.982421875,73.0,96.0
80,58.984375,59.451171875,75.0,101.0
81,59.453125,59.6845703125,77.0,96.0
82,59.6875,59.9189453125,77.0,96.0
83,59.921875,60.154296875,77.0,93.0
84,60.15625,60.388671875,78.0,89.0
85,60.390625,60.623046875,77.0,87.0
86,60.625,60.857421875,72.0,72.0
87,60.859375,62.263671875,77.0,89.0
88,62.265625,62.9658203125,80.0,99.0
89,62.96875,63.2001953125,80.0,90.0
90,63.203125,63.6689453125,80.0,91.0
91,63.671875,64.138671875,80.0,98.0
92,64.140625,64.607421875,78.0,91.0
93,64.609375,65.076171875,75.0,91.0
94,65.078125,65.3095703125,78.0,98.0
95,65.3125,65.5439453125,78.0,90.0
96,65.546875,65.779296875,78.0,89.0
97,65.78125,66.013671875,80.0,93.0
98,66.015625,66.248046875,78.0,92.0
99,66.25,66.482421875,75.0,91.0
100,66.484375,67.888671875,77.0,98.0
101,67.890625,68.5908203125,75.0,105.0
102,68.59375,68.8251953125,75.0,93.0
103,68.828125,69.2939453125,75.0,96.0
104,69.296875,69.763671875,75.0,98.0
105,69.765625,70.232421875,73.0,100.0
106,70.234375,70.701171875,71.0,100.0
107,70.703125,71.8720703125,69.0,100.0
108,71.875,72.1064453125,69.0,95.0
109,72.109375,72.576171875,69.0,96.0
110,72.578125,73.060546875,70.0,92.0
111,73.046875,73.513671875,72.0,91.0
112,73.515625,78.6689453125,77.0,97.0
113,78.671875,78.9033203125,77.0,87.0
114,78.90625,79.1484375,77.0,72.0
115,79.140625,79.373046875,85.0,90.0
116,79.375,79.607421875,84.0,87.0
117,79.609375,79.841796875,85.0,87.0
118,79.84375,80.0947265625,84.0,89.0
119,80.078125,80.310546875,85.0,86.0
120,80.3125,80.5654296875,77.0,90.0
121,80.546875,81.951171875,80.0,105.0
122,81.953125,82.185546875,82.0,91.0
123,82.1875,82.4248046875,80.0,87.0
124,82.421875,82.6455078125,82.0,90.0
125,82.65625,82.888671875,80.0,89.0
126,82.890625,83.1318359375,82.0,91.0
127,83.125,83.419921875,73.0,87.0
128,83.359375,84.763671875,77.0,98.0
129,84.765625,85.0244140625,78.0,74.0
130,85.0,85.23828125,77.0,66.0
131,85.234375,85.466796875,78.0,79.0
132,85.46875,85.7470703125,77.0,63.0
133,85.703125,85.935546875,78.0,87.0
134,85.9375,86.169921875,75.0,82.0
135,86.171875,86.404296875,77.0,90.0
136,86.40625,86.6650390625,75.0,79.0
137,86.640625,86.873046875,77.0,77.0
138,86.875,87.1171875,75.0,65.0
139,87.109375,87.341796875,77.0,72.0
140,87.34375,87.576171875,73.0,72.0
141,87.578125,87.8095703125,75.0,84.0
142,87.8125,88.0439453125,75.0,83.0
143,88.046875,88.2998046875,75.0,84.0
144,88.28125,88.513671875,77.0,91.0
145,88.515625,88.748046875,78.0,86.0
146,88.75,89.0107421875,75.0,91.0
147,88.984375,89.9189453125,77.0,108.0
148,89.921875,90.1533203125,77.0,97.0
149,90.15625,90.388671875,77.0,87.0
150,90.390625,90.623046875,85.0,93.0
151,90.625,90.857421875,84.0,91.0
152,90.859375,91.091796875,85.0,90.0
153,91.09375,91.326171875,84.0,97.0
154,91.328125,91.560546875,85.0,90.0
155,91.5625,91.84375,82.0,100.0
156,91.796875,93.201171875,84.0,105.0
157,93.203125,93.435546875,82.0,100.0
158,93.4375,93.669921875,80.0,84.0
159,93.671875,93.904296875,82.0,87.0
160,93.90625,94.138671875,84.0,94.0
161,94.140625,94.490234375,85.0,91.0
162,94.4921875,94.841796875,82.0,90.0
163,94.84375,96.013671875,80.0,106.0
164,96.015625,96.716796875,78.0,96.0
165,96.71875,97.013671875,80.0,83.0
166,96.953125,97.4404296875,78.0,93.0
167,97.421875,97.888671875,77.0,89.0
168,97.890625,98.357421875,75.0,94.0
169,98.359375,98.826171875,73.0,92.0
170,98.828125,99.0595703125,75.0,97.0
171,99.0625,99.2939453125,75.0,94.0
172,99.296875,99.5615234375,75.0,91.0
173,99.53125,99.763671875,77.0,93.0
174,99.765625,99.998046875,78.0,84.0
175,100.0,100.232421875,75.0,90.0
176,100.234375,101.638671875,72.0,91.0
177,101.640625,102.107421875,73.0,106.0
178,102.109375,102.576171875,75.0,103.0
179,102.578125,103.044921875,73.0,91.0
180,103.046875,103.5810546875,72.0,94.0
181,103.515625,104.2392578125,70.0,97.0
182,104.21875,104.568359375,68.0,89.0
183,104.453125,107.146484375,70.0,96.0
184,107.265625,107.9697265625,73.0,108.0
185,107.96875,108.201171875,75.0,97.0
186,108.203125,108.669921875,73.0,100.0
187,108.671875,109.138671875,72.0,97.0
188,109.140625,109.9765625,73.0,106.0
189,109.9609375,110.544921875,72.0,101.0
190,110.546875,111.9931640625,70.0,97.0
191,118.515625,118.771484375,77.0,79.0
192,118.75,118.771484375,77.0,80.0
193,118.984375,119.005859375,77.0,84.0
194,119.21875,119.4755859375,70.0,63.0
195,119.453125,119.685546875,72.0,71.0
196,119.6875,119.9443359375,73.0,62.0
197,119.921875,120.177734375,77.0,90.0
198,120.15625,120.177734375,77.0,87.0
199,120.390625,120.412109375,77.0,87.0
200,120.625,120.857421875,70.0,69.0
201,120.859375,121.091796875,72.0,64.0
202,121.09375,121.326171875,73.0,79.0
203,121.328125,121.583984375,77.0,87.0
204,121.5625,121.583984375,77.0,75.0
205,121.796875,121.818359375,77.0,72.0
206,122.03125,122.052734375,77.0,77.0
207,122.265625,122.498046875,75.0,73.0
208,122.5,122.732421875,73.0,74.0
209,122.734375,124.1630859375,70.0,87.0
210,124.140625,124.373046875,73.0,84.0
211,124.375,124.607421875,73.0,93.0
212,124.609375,124.841796875,73.0,86.0
213,124.84375,125.076171875,70.0,66.0
214,125.078125,125.310546875,72.0,74.0
215,125.3125,125.544921875,73.0,89.0
216,125.546875,125.779296875,75.0,90.0
217,125.78125,126.013671875,75.0,90.0
218,126.015625,126.248046875,75.0,77.0
219,126.25,126.482421875,75.0,69.0
220,126.484375,126.7412109375,75.0,87.0
221,126.71875,126.951171875,68.0,59.0
222,126.953125,127.185546875,77.0,82.0
223,127.1875,127.419921875,77.0,75.0
224,127.421875,127.654296875,77.0,69.0
225,127.65625,127.9130859375,77.0,84.0
226,127.890625,128.123046875,75.0,89.0
227,128.125,128.357421875,73.0,87.0
228,128.359375,129.787109375,77.0,94.0
229,129.765625,129.787109375,77.0,97.0
230,130.0,130.232421875,77.0,84.0
231,130.234375,130.4912109375,77.0,90.0
232,130.46875,130.701171875,70.0,64.0
233,130.703125,130.935546875,72.0,81.0
234,130.9375,131.1943359375,73.0,66.0
235,131.171875,131.404296875,77.0,89.0
236,131.40625,131.638671875,77.0,90.0
237,131.640625,131.8974609375,77.0,86.0
238,131.875,132.107421875,70.0,84.0
239,132.109375,132.341796875,72.0,68.0
240,132.34375,132.576171875,73.0,80.0
241,132.578125,132.833984375,77.0,90.0
242,132.8125,132.833984375,77.0,96.0
243,133.046875,133.068359375,77.0,93.0
244,133.28125,133.513671875,82.0,86.0
245,133.515625,133.748046875,77.0,79.0
246,133.75,133.982421875,73.0,73.0
247,133.984375,135.388671875,70.0,90.0
248,135.390625,136.091796875,73.0,93.0
249,136.09375,136.326171875,75.0,89.0
250,136.328125,136.794921875,73.0,87.0
251,136.796875,137.263671875,72.0,86.0
252,137.265625,137.732421875,70.0,87.0
253,137.734375,138.201171875,68.0,93.0
254,138.203125,141.013671875,70.0,100.0
255,141.015625,141.716796875,80.0,94.0
256,141.71875,141.951171875,80.0,91.0
257,141.953125,142.419921875,80.0,91.0
258,142.421875,142.888671875,80.0,91.0
259,142.890625,143.357421875,78.0,92.0
260,143.359375,143.826171875,75.0,87.0
261,143.828125,144.529296875,78.0,97.0
262,144.53125,144.763671875,80.0,93.0
263,144.765625,144.998046875,78.0,83.0
264,145.0,145.232421875,75.0,86.0
265,145.234375,146.638671875,77.0,99.0
266,146.640625,147.341796875,75.0,94.0
267,147.34375,147.576171875,75.0,90.0
268,147.578125,148.044921875,75.0,87.0
269,148.046875,148.513671875,75.0,103.0
270,148.515625,148.982421875,73.0,96.0
271,148.984375,149.451171875,75.0,101.0
272,149.453125,149.685546875,77.0,96.0
273,149.6875,149.919921875,77.0,96.0
274,149.921875,150.154296875,77.0,93.0
275,150.15625,150.388671875,78.0,89.0
276,150.390625,150.623046875,77.0,87.0
277,150.625,151.091796875,72.0,72.0
278,151.09375,152.263671875,77.0,89.0
279,152.265625,152.966796875,80.0,99.0
280,152.96875,153.201171875,80.0,90.0
281,153.203125,153.669921875,80.0,91.0
282,153.671875,154.138671875,80.0,98.0
283,154.140625,154.607421875,78.0,91.0
284,154.609375,155.076171875,75.0,91.0
285,155.078125,155.310546875,78.0,98.0
286,155.3125,155.544921875,78.0,90.0
287,155.546875,155.779296875,78.0,89.0
288,155.78125,156.013671875,80.0,93.0
289,156.015625,156.248046875,78.0,92.0
290,156.25,156.716796875,75.0,91.0
291,156.71875,157.888671875,77.0,98.0
292,157.890625,158.591796875,75.0,105.0
293,158.59375,158.826171875,75.0,93.0
294,158.828125,159.294921875,75.0,96.0
295,159.296875,159.763671875,75.0,98.0
296,159.765625,160.232421875,73.0,100.0
297,160.234375,160.701171875,71.0,100.0
298,160.703125,161.873046875,69.0,100.0
299,161.875,162.107421875,69.0,95.0
300,162.109375,162.576171875,69.0,96.0
301,162.578125,163.044921875,70.0,92.0
302,163.046875,163.513671875,72.0,91.0
303,163.515625,168.669921875,77.0,97.0
304,168.671875,168.904296875,77.0,87.0
305,168.90625,169.138671875,77.0,72.0
306,169.140625,169.373046875,85.0,90.0
307,169.375,169.607421875,84.0,87.0
308,169.609375,169.841796875,85.0,87.0
309,169.84375,170.076171875,84.0,89.0
310,170.078125,170.310546875,85.0,86.0
311,170.3125,170.544921875,77.0,90.0
312,170.546875,171.9755859375,80.0,105.0
313,171.953125,172.2099609375,82.0,91.0
314,172.1875,172.44921875,80.0,87.0
315,172.421875,172.669921875,82.0,90.0
316,172.65625,172.9130859375,80.0,89.0
317,172.890625,173.15625,82.0,91.0
318,173.125,173.4443359375,73.0,87.0
319,173.359375,174.7880859375,77.0,98.0
320,174.765625,175.0498046875,78.0,74.0
321,175.0,175.2626953125,77.0,66.0
322,175.234375,175.4912109375,78.0,79.0
323,175.46875,175.771484375,77.0,63.0
324,175.703125,175.9599609375,78.0,87.0
325,175.9375,176.1943359375,75.0,82.0
326,176.171875,176.4287109375,77.0,90.0
327,176.40625,176.6904296875,75.0,79.0
328,176.640625,176.8974609375,77.0,77.0
329,176.875,177.142578125,75.0,65.0
330,177.109375,177.3662109375,77.0,72.0
331,177.34375,177.6005859375,73.0,72.0
332,177.578125,177.810546875,75.0,84.0
333,177.8125,178.044921875,75.0,83.0
334,178.046875,178.279296875,75.0,84.0
335,178.28125,178.513671875,77.0,91.0
336,178.515625,178.748046875,78.0,86.0
337,178.75,178.982421875,75.0,91.0
338,178.984375,179.919921875,77.0,108.0
339,179.921875,180.154296875,77.0,97.0
340,180.15625,180.388671875,77.0,87.0
341,180.390625,180.623046875,85.0,93.0
342,180.625,180.857421875,84.0,91.0
343,180.859375,181.091796875,85.0,90.0
344,181.09375,181.326171875,84.0,97.0
345,181.328125,181.560546875,85.0,90.0
346,181.5625,181.794921875,82.0,100.0
347,181.796875,183.2255859375,84.0,105.0
348,183.203125,183.435546875,82.0,100.0
349,183.4375,183.669921875,80.0,84.0
350,183.671875,183.904296875,82.0,87.0
351,183.90625,184.138671875,84.0,94.0
352,184.140625,184.373046875,85.0,91.0
353,184.375,184.607421875,82.0,90.0
354,184.609375,186.013671875,80.0,106.0
355,186.015625,186.716796875,78.0,96.0
356,186.71875,186.951171875,80.0,83.0
357,186.953125,187.419921875,78.0,93.0
358,187.421875,187.888671875,77.0,89.0
359,187.890625,188.357421875,75.0,94.0
360,188.359375,188.826171875,73.0,92.0
361,188.828125,189.060546875,75.0,97.0
362,189.0625,189.294921875,75.0,94.0
363,189.296875,189.529296875,75.0,91.0
364,189.53125,189.763671875,77.0,93.0
365,189.765625,189.998046875,78.0,84.0
366,190.0,190.232421875,75.0,90.0
367,190.234375,191.169921875,77.0,91.0
368,191.171875,191.404296875,77.0,87.0
369,191.40625,191.638671875,77.0,72.0
370,191.640625,191.873046875,85.0,90.0
371,191.875,192.107421875,84.0,87.0
372,192.109375,192.341796875,85.0,87.0
373,192.34375,192.576171875,84.0,89.0
374,192.578125,192.810546875,85.0,86.0
375,192.8125,193.044921875,77.0,90.0
376,193.046875,194.4755859375,80.0,105.0
377,194.453125,194.7099609375,82.0,91.0
378,194.6875,194.94921875,80.0,87.0
379,194.921875,195.169921875,82.0,90.0
380,195.15625,195.4130859375,80.0,89.0
381,195.390625,195.65625,82.0,91.0
382,195.625,195.9443359375,73.0,87.0
383,195.859375,197.2880859375,77.0,98.0
384,197.265625,197.5498046875,78.0,74.0
385,197.5,197.7626953125,77.0,66.0
386,197.734375,197.9912109375,78.0,79.0
387,197.96875,198.271484375,77.0,63.0
388,198.203125,198.4599609375,78.0,87.0
389,198.4375,198.6943359375,75.0,82.0
390,198.671875,198.9287109375,77.0,90.0
391,198.90625,199.1904296875,75.0,79.0
392,199.140625,199.3974609375,77.0,77.0
393,199.375,199.642578125,75.0,65.0
394,199.609375,199.8662109375,77.0,72.0
395,199.84375,200.1005859375,73.0,72.0
396,200.078125,200.310546875,75.0,84.0
397,200.3125,200.544921875,75.0,83.0
398,200.546875,200.779296875,75.0,84.0
399,200.78125,201.013671875,77.0,91.0
400,201.015625,201.248046875,78.0,86.0
401,201.25,201.716796875,75.0,91.0
402,201.71875,202.419921875,77.0,108.0
403,202.421875,202.654296875,77.0,97.0
404,202.65625,202.888671875,77.0,87.0
405,202.890625,203.123046875,85.0,93.0
406,203.125,203.357421875,84.0,91.0
407,203.359375,203.591796875,85.0,90.0
408,203.59375,203.826171875,84.0,97.0
409,203.828125,204.060546875,85.0,90.0
410,204.0625,204.294921875,82.0,100.0
411,204.296875,205.7255859375,84.0,105.0
412,205.703125,205.935546875,82.0,100.0
413,205.9375,206.169921875,80.0,84.0
414,206.171875,206.404296875,82.0,87.0
415,206.40625,206.638671875,84.0,94.0
416,206.640625,206.873046875,85.0,91.0
417,206.875,207.107421875,82.0,90.0
418,207.109375,208.513671875,80.0,106.0
419,208.515625,209.216796875,78.0,96.0
420,209.21875,209.685546875,80.0,83.0
421,209.6875,209.919921875,78.0,93.0
422,209.921875,210.388671875,77.0,89.0
423,210.390625,210.857421875,75.0,94.0
424,210.859375,211.326171875,73.0,92.0
425,211.328125,211.560546875,75.0,97.0
426,211.5625,211.794921875,75.0,94.0
427,211.796875,212.029296875,75.0,91.0
428,212.03125,212.263671875,77.0,93.0
429,212.265625,212.498046875,78.0,84.0
430,212.5,212.732421875,75.0,90.0
431,212.734375,214.138671875,72.0,91.0
432,214.140625,214.607421875,73.0,106.0
433,214.609375,215.310546875,75.0,103.0
434,215.3125,215.544921875,73.0,91.0
435,215.546875,216.0810546875,72.0,94.0
436,216.015625,216.482421875,70.0,97.0
437,216.484375,216.951171875,68.0,89.0
438,216.953125,219.763671875,70.0,96.0
439,219.765625,220.4697265625,73.0,108.0
440,220.46875,220.701171875,75.0,97.0
441,220.703125,221.169921875,73.0,100.0
442,221.171875,221.638671875,72.0,97.0
443,221.640625,222.576171875,73.0,106.0
444,222.578125,222.927734375,72.0,101.0
445,222.9296875,224.4931640625,70.0,97.0
