,start,end,pitch,velocity
0,26.4132022125,26.549191704166667,60.0,95.0
1,26.633725712500002,26.756851333333334,60.0,76.0
2,26.8542492125,26.9645109625,60.0,71.0
3,27.0747727125,27.18319676666667,60.0,72.0
4,27.295296212500002,27.627919158333334,60.0,95.0
5,27.7363432125,28.096531595833333,62.0,100.0
6,28.1773902125,29.044782645833333,60.0,97.0
7,29.9415782125,30.044489179166668,65.0,97.0
8,30.1621017125,30.244798025,65.0,85.0
9,30.382625212500002,30.461646133333335,65.0,81.0
10,30.6031487125,30.685845025000003,65.0,88.0
11,30.8236722125,31.14159359166667,65.0,112.0
12,31.2647192125,31.637771466666667,67.0,112.0
13,31.705766212500002,32.99950407916667,69.0,127.0
14,33.2494307125,33.47179190833334,67.0,102.0
15,33.4699542125,33.89813734166667,65.0,112.0
16,33.911001212500004,34.234435679166666,69.0,93.0
17,34.3520482125,34.7710428625,69.0,117.0
18,34.7930952125,35.0577234125,74.0,127.0
19,35.013618712500005,35.581466725,72.0,102.0
20,35.4546657125,36.32389584166667,69.0,117.0
21,36.9983302125,37.095728091666665,67.0,112.0
22,37.2188537125,37.3070631125,67.0,92.0
23,37.4393772125,37.555152050000004,67.0,99.0
24,37.659900712500004,37.841832600000004,69.0,96.0
25,37.8804242125,38.18731941666667,67.0,117.0
26,38.3214712125,38.6412302875,65.0,112.0
27,38.762518212500005,39.89637654166667,67.0,127.0
28,40.5267062125,40.64615644166667,60.0,97.0
29,40.7472297125,40.84830298333333,60.0,76.0
30,40.9677532125,41.08169035416667,60.0,89.0
31,41.1882767125,41.300376158333336,60.0,90.0
32,41.408800212500005,41.666077629166665,60.0,96.0
33,41.8498472125,42.132852370833334,62.0,112.0
34,42.2908942125,43.85293567083333,60.0,102.0
35,44.055082212500004,44.17269474583333,65.0,100.0
36,44.2756057125,44.38402976666667,65.0,83.0
37,44.4961292125,44.588014004166666,65.0,95.0
38,44.7166527125,44.81221289583333,65.0,93.0
39,44.9371762125,45.29185150833334,65.0,117.0
40,45.378223212500004,45.83213408333334,67.0,122.0
41,45.8192702125,47.234296004166666,69.0,127.0
42,47.3629347125,47.555892775000004,67.0,96.0
43,47.583458212500005,48.05023295416667,65.0,107.0
44,48.0245052125,48.375505116666666,69.0,127.0
45,48.4655522125,48.86065681666667,69.0,112.0
46,48.906599212500005,49.29067764166667,74.0,117.0
47,49.3476462125,49.74642620833333,72.0,127.0
48,49.7886932125,50.654247950000006,69.0,107.0
49,51.1118342125,51.2055567,67.0,117.0
50,51.332357712500006,51.4205671125,67.0,95.0
51,51.552881212500004,51.729300012500005,67.0,97.0
52,51.7734047125,51.979226645833336,65.0,95.0
53,51.9939282125,52.42762442916667,62.0,97.0
54,52.4349752125,52.872346820833336,60.0,102.0
55,52.876022212500004,54.21386477916667,65.0,102.0
56,54.6402102125,54.7394457875,67.0,127.0
57,54.8607337125,54.96364467916667,67.0,99.0
58,55.0812572125,55.18233048333334,67.0,102.0
59,55.301780712500005,55.4010162875,67.0,112.0
60,55.5223042125,55.81266015416667,67.0,127.0
61,55.9633512125,56.229817108333336,65.0,127.0
62,56.404398212500006,57.501502625,67.0,127.0
63,57.727539212500005,57.8929318375,65.0,127.0
64,57.948062712500004,58.15572234166667,67.0,92.0
65,58.1685862125,58.267821787500004,62.0,100.0
66,58.3891097125,58.490182983333334,62.0,96.0
67,58.6096332125,58.7088687875,62.0,93.0
68,58.8301567125,58.9183661125,62.0,96.0
69,59.050680212500005,59.341036154166666,62.0,112.0
70,59.4917272125,59.86845485833334,60.0,112.0
71,59.9327742125,61.0409048,62.0,127.0
72,61.696962212500004,61.796197787500006,67.0,127.0
73,61.9174857125,62.011208200000006,67.0,93.0
74,62.1380092125,62.22989400416667,67.0,100.0
75,62.3585327125,62.446742112500004,67.0,117.0
76,62.5790562125,62.73893575,67.0,127.0
77,62.799579712500005,63.021940908333335,65.0,127.0
78,63.2406267125,63.54568422083334,67.0,127.0
79,63.6816737125,63.777233895833334,67.0,117.0
80,63.902197212500006,64.01062126666667,67.0,117.0
81,64.1227207125,64.31384107916666,69.0,112.0
82,64.3432442125,64.492097575,67.0,112.0
83,64.56376771250001,64.778778125,65.0,127.0
84,65.0048147125,65.1812335125,65.0,117.0
85,65.2253382125,65.4017570125,74.0,122.0
86,65.4458617125,65.54877267916667,72.0,112.0
87,65.6663852125,65.76194539583334,72.0,102.0
88,65.8869087125,65.97879350416667,72.0,127.0
89,66.1074322125,66.36470962916667,72.0,127.0
90,66.5484792125,66.6422017,69.0,122.0
91,66.7690027125,67.85691864583333,72.0,127.0
92,67.8716202125,68.23180859583334,65.0,127.0
93,68.3126672125,68.49827449166666,67.0,127.0
94,68.7537142125,68.97791310416667,69.0,127.0
95,68.9742377125,69.07531098333334,72.0,112.0
96,69.1947612125,69.30134757083334,72.0,117.0
97,69.4152847125,69.52187107083334,72.0,112.0
98,69.63580821250001,69.83060397083334,72.0,127.0
99,70.0768552125,70.32678184583334,69.0,117.0
100,70.5179022125,71.24379206666667,72.0,127.0
101,72.28209021250001,72.38867657083334,77.0,127.0
102,72.50261371250001,72.60552467916666,77.0,95.0
103,72.7231372125,72.81318430833333,77.0,95.0
104,72.9436607125,73.05024707083334,77.0,117.0
105,73.1641842125,73.50783333333334,74.0,127.0
106,73.6052312125,73.89742485000001,69.0,102.0
107,74.0462782125,74.84935129166666,72.0,127.0
108,75.8104662125,75.91705257083333,65.0,122.0
109,76.0309897125,76.13757607083333,65.0,93.0
110,76.2515132125,76.34156030833334,65.0,88.0
111,76.4720367125,76.55840841666667,65.0,102.0
112,76.6925602125,77.1887380875,65.0,112.0
113,77.35413071250001,77.701455225,69.0,122.0
114,77.7951777125,77.88706250416666,72.0,122.0
115,78.0157012125,78.14617761666668,72.0,112.0
116,78.2362247125,78.3354602875,72.0,117.0
117,78.4567482125,78.583549225,74.0,102.0
118,78.6772717125,79.21571659166668,69.0,112.0
119,79.3388422125,79.41051235,67.0,122.0
120,79.5593657125,79.64022432916667,67.0,107.0
121,79.77988921250001,79.9122033125,67.0,112.0
122,80.00041271250001,80.20255925416667,69.0,88.0
123,80.2209362125,80.4635120625,67.0,127.0
124,80.6619832125,81.01849620416667,65.0,117.0
125,81.1030302125,81.8087054125,67.0,127.0
126,82.8672182125,83.09141710416667,69.0,127.0
127,83.0877417125,83.18881498333333,72.0,112.0
128,83.3082652125,83.41485157083333,72.0,117.0
129,83.5287887125,83.63537507083333,72.0,112.0
130,83.7493122125,83.94410797083334,72.0,127.0
131,84.1903592125,84.44028584583333,69.0,117.0
132,84.63140621250001,85.35729606666668,72.0,127.0
133,86.3955942125,86.50218057083333,77.0,127.0
134,86.6161177125,86.71902867916667,77.0,95.0
135,86.8366412125,86.92668830833334,77.0,95.0
136,87.0571647125,87.16375107083334,77.0,117.0
137,87.27768821250001,87.62133733333334,74.0,127.0
138,87.71873521250001,88.01092885,69.0,102.0
139,88.1597822125,88.96285529166667,72.0,127.0
140,89.92397021250001,90.03055657083334,65.0,122.0
141,90.14449371250001,90.25108007083334,65.0,93.0
142,90.3650172125,90.45506430833333,65.0,88.0
143,90.5855407125,90.67191241666667,65.0,102.0
144,90.8060642125,91.13501176666666,65.0,112.0
145,91.0376138875,91.36656144166668,67.0,112.0
146,91.4676347125,91.81495922500001,69.0,122.0
147,91.9086817125,92.00056650416667,72.0,122.0
148,92.1292052125,92.25968161666667,72.0,112.0
149,92.34972871250001,92.4489642875,72.0,117.0
150,92.57025221250001,92.697053225,74.0,102.0
151,92.79077571250001,93.32922059166667,69.0,112.0
152,93.4523462125,93.52401635000001,67.0,122.0
153,93.6728697125,93.75372832916668,67.0,107.0
154,93.8933932125,94.0257073125,67.0,112.0
155,94.3344402125,94.76629873333334,62.0,117.0
156,94.77548721250001,95.25328812916668,60.0,102.0
157,95.21653421250001,96.64932245833334,65.0,117.0
158,125.2530655,125.39512224791667,60.0,95.0
159,125.47965625625001,125.60278187708333,60.0,76.0
160,125.70017975625001,125.81044150625,60.0,71.0
161,125.92070325625001,126.02912731041667,60.0,72.0
162,126.14122675625,126.47384970208334,60.0,95.0
163,126.58227375625,126.94246213958334,62.0,100.0
164,127.02332075625,127.89071318958334,60.0,97.0
165,128.78750875625,128.89041972291668,65.0,97.0
166,129.00803225625,129.09072856875,65.0,85.0
167,129.22855575625,129.30757667708335,65.0,81.0
168,129.44907925625,129.53177556875,65.0,88.0
169,129.66960275625001,129.98752413541666,65.0,112.0
170,130.11064975625,130.48370201041666,67.0,112.0
171,130.55169675625,131.84543462291668,69.0,127.0
172,132.09536125625002,132.31772245208333,67.0,102.0
173,132.31588475625,132.74406788541668,65.0,112.0
174,132.75693175625,133.08036622291667,69.0,93.0
175,133.19797875625,133.61697340625,69.0,117.0
176,133.63902575625,133.90365395625,74.0,127.0
177,133.85954925625,134.42739726875,72.0,102.0
178,134.30059625625,135.16982638541668,69.0,117.0
179,135.84426075625,135.94165863541667,67.0,112.0
180,136.06478425625,136.15299365625,67.0,92.0
181,136.28530775625,136.40108259375,67.0,99.0
182,136.50583125625,136.68776314375,69.0,96.0
183,136.72635475625,137.03324996041667,67.0,117.0
184,137.16740175625,137.48716083125,65.0,112.0
185,137.60844875625,138.74230708541666,67.0,127.0
186,139.37263675625002,139.49208698541668,60.0,97.0
187,139.59316025625,139.69423352708333,60.0,76.0
188,139.81368375625001,139.92762089791668,60.0,89.0
189,140.03420725625,140.14630670208334,60.0,90.0
190,140.25473075625,140.51200817291667,60.0,96.0
191,140.69577775625,140.97878291458335,62.0,112.0
192,141.13682475625,142.69886621458335,60.0,102.0
193,142.90101275625,143.01862528958333,65.0,100.0
194,143.12153625625,143.2299603104167,65.0,83.0
195,143.34205975625,143.43394454791667,65.0,95.0
196,143.56258325625,143.65814343958334,65.0,93.0
197,143.78310675625,144.13778205208334,65.0,117.0
198,144.22415375625002,144.67806462708333,67.0,122.0
199,144.66520075625002,146.08022654791668,69.0,127.0
200,146.20886525625,146.40182331875002,67.0,96.0
201,146.42938875625,146.89616349791666,65.0,107.0
202,146.87043575625,147.22143566041666,69.0,127.0
203,147.31148275625,147.70658736041668,69.0,112.0
204,147.75252975625,148.13660818541666,74.0,117.0
205,148.19357675625,148.59235675208333,72.0,127.0
206,148.63462375625,149.50017849375,69.0,107.0
207,149.95776475625001,150.05148724375,67.0,117.0
208,150.17828825625,150.26649765625,67.0,95.0
209,150.39881175625,150.57523055625,67.0,97.0
210,150.61933525625,150.82515718958334,65.0,95.0
211,150.83985875625,151.27355497291666,62.0,97.0
212,151.28090575625,151.71827736458334,60.0,102.0
213,151.72195275625,153.05979532291667,65.0,102.0
214,153.48614075625,153.58537633125002,67.0,127.0
215,153.70666425625,153.80957522291666,67.0,99.0
216,153.92718775625,154.02826102708335,67.0,102.0
217,154.14771125625,154.24694683125,67.0,112.0
218,154.36823475625,154.65859069791668,67.0,127.0
219,154.80928175625002,155.07574765208335,65.0,127.0
220,155.25032875625,156.34743316875,67.0,127.0
221,156.57346975625,156.73886238125002,65.0,127.0
222,156.79399325625002,157.00165288541666,67.0,92.0
223,157.01451675625,157.11375233125,62.0,100.0
224,157.23504025625002,157.33611352708334,62.0,96.0
225,157.45556375625,157.55479933125,62.0,93.0
226,157.67608725625,157.76429665625,62.0,96.0
227,157.89661075625,158.18696669791666,62.0,112.0
228,158.33765775625,158.71438540208334,60.0,112.0
229,158.77870475625002,159.88683534375002,62.0,127.0
230,160.54289275625,160.64212833125,67.0,127.0
231,160.76341625625,160.85713874375,67.0,93.0
232,160.98393975625,161.07582454791668,67.0,100.0
233,161.20446325625,161.29267265625,67.0,117.0
234,161.42498675625,161.58486629375,67.0,127.0
235,161.64551025625002,161.86787145208334,65.0,127.0
236,162.08655725625,162.39161476458332,67.0,127.0
237,162.52760425625002,162.62316443958335,67.0,117.0
238,162.74812775625,162.85655181041668,67.0,117.0
239,162.96865125625,163.15977162291668,69.0,112.0
240,163.18917475625,163.33802811875,67.0,112.0
241,163.40969825625,163.62470866875,65.0,127.0
242,163.85074525625,164.02716405625,65.0,117.0
243,164.07126875625,164.24768755625,74.0,122.0
244,164.29179225625,164.39470322291666,72.0,112.0
245,164.51231575625002,164.60787593958332,72.0,102.0
246,164.73283925625,164.82472404791667,72.0,127.0
247,164.95336275625,165.21064017291667,72.0,127.0
248,165.39440975625,165.48813224375,69.0,122.0
249,165.61493325625,166.70284918958333,72.0,127.0
250,166.71755075625,167.07773913958334,65.0,127.0
251,167.15859775625,167.34420503541668,67.0,127.0
252,167.59964475625,167.82384364791668,69.0,127.0
253,167.82016825625,167.92124152708334,72.0,112.0
254,168.04069175625,168.14727811458334,72.0,117.0
255,168.26121525625,168.36780161458333,72.0,112.0
256,168.48173875625,168.67653451458335,72.0,127.0
257,168.92278575625,169.17271238958335,69.0,117.0
258,169.36383275625002,170.0897226104167,72.0,127.0
259,171.12802075625,171.23460711458335,77.0,127.0
260,171.34854425625002,171.45145522291668,77.0,95.0
261,171.56906775625,171.65911485208335,77.0,95.0
262,171.78959125625,171.89617761458334,77.0,117.0
263,172.01011475625,172.35376387708334,74.0,127.0
264,172.45116175625,172.74335539375,69.0,102.0
265,172.89220875625,173.69528183541667,72.0,127.0
266,174.65639675625,174.76298311458334,65.0,122.0
267,174.87692025625,174.98350661458335,65.0,93.0
268,175.09744375625002,175.18749085208333,65.0,88.0
269,175.31796725625,175.40433896041668,65.0,102.0
270,175.53849075625,176.03466863125,65.0,112.0
271,176.20006125625,176.54738576875002,69.0,122.0
272,176.64110825625,176.73299304791666,72.0,122.0
273,176.86163175625,176.99210816041668,72.0,112.0
274,177.08215525625002,177.18139083125,72.0,117.0
275,177.30267875625,177.42947976875,74.0,102.0
276,177.52320225625,178.06164713541668,69.0,112.0
277,178.18477275625,178.25644289375,67.0,122.0
278,178.40529625625,178.48615487291667,67.0,107.0
279,178.62581975625,178.75813385625,67.0,112.0
280,178.84634325625,179.04848979791666,69.0,88.0
281,179.06686675625002,179.30944260625,67.0,127.0
282,179.50791375625,179.86442674791667,65.0,117.0
283,179.94896075625002,180.65463595625,67.0,127.0
284,181.71314875625,181.93734764791668,69.0,127.0
285,181.93367225625002,182.03474552708334,72.0,112.0
286,182.15419575625,182.26078211458332,72.0,117.0
287,182.37471925625,182.48130561458333,72.0,112.0
288,182.59524275625,182.79003851458333,72.0,127.0
289,183.03628975625,183.28621638958333,69.0,117.0
290,183.47733675625,184.20322661041666,72.0,127.0
291,185.24152475625002,185.34811111458333,77.0,127.0
292,185.46204825625,185.56495922291668,77.0,95.0
293,185.68257175625,185.77261885208333,77.0,95.0
294,185.90309525625,186.00968161458334,77.0,117.0
295,186.12361875625,186.46726787708334,74.0,127.0
296,186.56466575625,186.85685939375,69.0,102.0
297,187.00571275625,187.80878583541667,72.0,127.0
298,188.76990075625,188.87648711458334,65.0,122.0
299,188.99042425625,189.09701061458333,65.0,93.0
300,189.21094775625,189.30099485208333,65.0,88.0
301,189.43147125625,189.51784296041666,65.0,102.0
302,189.65199475625002,189.98094231041665,65.0,112.0
303,189.88354443125002,190.21249198541668,67.0,112.0
304,190.31356525625,190.66088976875,69.0,122.0
305,190.75461225625,190.84649704791667,72.0,122.0
306,190.97513575625,191.10561216041668,72.0,112.0
307,191.19565925625,191.29489483125002,72.0,117.0
308,191.41618275625,191.54298376875,74.0,102.0
309,191.63670625625002,192.17515113541668,69.0,112.0
310,192.29827675625,192.36994689375,67.0,122.0
311,192.51880025625002,192.59965887291668,67.0,107.0
312,192.73932375625,192.87163785625,67.0,112.0
313,193.18037075625,193.61222927708334,62.0,117.0
314,193.62141775625003,194.09921867291666,60.0,102.0
315,194.06246475625,195.4940298104167,65.0,117.0
316,201.14859107499998,201.37369145,69.0,127.0
317,201.37001605833333,201.47108932916666,72.0,112.0
318,201.59053955833332,201.69712591666666,72.0,117.0
319,201.81106305833333,201.91764941666665,72.0,112.0
320,202.03158655833332,202.22638231666667,72.0,127.0
321,202.4726335583333,202.72256019166667,69.0,117.0
322,202.91368055833334,203.6395704125,72.0,127.0
323,204.67786855833333,204.78445491666668,77.0,127.0
324,204.89839205833331,205.001303025,77.0,95.0
325,205.11891555833333,205.20896265416667,77.0,95.0
326,205.33943905833334,205.44602541666666,77.0,117.0
327,205.55996255833332,205.90361167916666,74.0,127.0
328,206.00100955833332,206.2932031958333,69.0,102.0
329,206.44205655833332,207.24512963749999,72.0,127.0
330,208.20624455833334,208.31283091666666,65.0,122.0
331,208.42676805833332,208.53335441666667,65.0,93.0
332,208.64729155833334,208.73733865416665,65.0,88.0
333,208.86781505833332,208.9541867625,65.0,102.0
334,209.08833855833333,209.58451643333333,65.0,112.0
335,209.74990905833332,210.09723357083334,69.0,122.0
336,210.1909560583333,210.28284084999999,72.0,122.0
337,210.41147955833333,210.5419559625,72.0,112.0
338,210.63200305833334,210.73123863333333,72.0,117.0
339,210.85252655833332,210.97932757083333,74.0,102.0
340,211.07305005833334,211.6114949375,69.0,112.0
341,211.73462055833332,211.80629069583333,67.0,122.0
342,211.95514405833333,212.036002675,67.0,107.0
343,212.17566755833332,212.30798165833332,67.0,112.0
344,212.39619105833333,212.5983376,69.0,88.0
345,212.61671455833334,212.85929040833332,67.0,127.0
346,213.05776155833334,213.41427455,65.0,117.0
347,213.49880855833334,214.20448375833334,67.0,127.0
348,215.26299655833333,215.48719545,69.0,127.0
349,215.48352005833334,215.58459332916667,72.0,112.0
350,215.70404355833332,215.81062991666667,72.0,117.0
351,215.92456705833334,216.03115341666665,72.0,112.0
352,216.14509055833332,216.33988631666665,72.0,127.0
353,216.58613755833332,216.83606419166665,69.0,117.0
354,217.02718455833332,217.75307441249998,72.0,127.0
355,218.79137255833334,218.89795891666665,77.0,127.0
356,219.01189605833332,219.114807025,77.0,95.0
357,219.23241955833333,219.32246665416665,77.0,95.0
358,219.45294305833332,219.55952941666666,77.0,117.0
359,219.67346655833333,220.01711567916666,74.0,127.0
360,220.11451355833333,220.40670719583332,69.0,102.0
361,220.55556055833333,221.3586336375,72.0,127.0
362,222.31974855833334,222.42633491666666,65.0,122.0
363,222.54027205833333,222.64685841666667,65.0,93.0
364,222.7607955583333,222.85084265416666,65.0,88.0
365,222.98131905833333,223.0676907625,65.0,102.0
366,223.20184255833334,223.5307901125,65.0,112.0
367,223.43339223333334,223.7623397875,67.0,112.0
368,223.86341305833332,224.21073757083332,69.0,122.0
369,224.30446005833332,224.39634485,72.0,122.0
370,224.52498355833333,224.6554599625,72.0,112.0
371,224.74550705833332,224.84474263333334,72.0,117.0
372,224.96603055833333,225.09283157083334,74.0,102.0
373,225.18655405833334,225.7249989375,69.0,112.0
374,225.84812455833332,225.91979469583333,67.0,122.0
375,226.06864805833334,226.149506675,67.0,107.0
376,226.28917155833332,226.42148565833332,67.0,112.0
377,226.73021855833332,227.16207707916666,62.0,117.0
378,227.17126555833332,227.64906647499998,60.0,102.0
379,227.61231255833331,229.04387761249998,65.0,117.0
380,229.49778848333332,229.6392910625,65.0,127.0
381,229.75690359583334,229.86348995416665,65.0,127.0
382,230.0141810125,230.118929675,65.0,127.0
383,230.2567568625,230.34312856666668,65.0,127.0
384,230.5103588875,230.8135787,65.0,127.0
385,230.8135787,231.18295556249998,67.0,127.0
386,231.28402883333334,231.6681072625,69.0,127.0
387,231.82982449583332,231.93457315833334,72.0,127.0
388,232.07423804166666,232.20287675,72.0,127.0
389,232.38664633333332,232.50425886666667,72.0,127.0
390,232.6181960083333,232.86628494583334,74.0,127.0
391,232.8864996,233.34592355833334,69.0,127.0
392,233.8421014333333,234.01300714583334,67.0,125.0
393,234.16186050833332,234.27763534583335,67.0,110.0
394,234.49632115,234.82343100833333,67.0,127.0
395,234.82894409583332,235.23875026666667,65.0,127.0
396,235.37473975833333,235.87890134583333,62.0,127.0
397,236.12421384583334,237.35390134583335,60.0,127.0
398,237.85858884583334,239.15155759583334,65.0,127.0
