,start,end,pitch,velocity
0,2.5966642125,3.835271204166667,53.0,76.0
1,3.9198052125,4.335124470833334,53.0,50.0
2,3.4787582125000003,4.3663653,60.0,72.0
3,1.7145702125,4.884595525,41.0,82.0
4,2.1556172125,5.2852132166666665,48.0,61.0
5,4.8018992125,5.950459108333334,60.0,56.0
6,4.3608522125,6.023966941666667,65.0,86.0
7,3.0377112125,6.382317629166667,57.0,72.0
8,6.1250402125,7.236846191666667,53.0,78.0
9,7.0071342125000005,7.8671758625,60.0,93.0
10,7.448181212500001,8.1152648,53.0,50.0
11,5.6839932125,8.300872079166666,48.0,64.0
12,5.242946212500001,8.350489866666667,41.0,90.0
13,8.3302752125,8.747432166666668,60.0,70.0
14,7.8892282125,8.8595316125,65.0,93.0
15,6.5660872125,9.269337783333334,57.0,81.0
16,10.094463212500001,10.748682929166668,50.0,59.0
17,9.6534162125,10.82770385,62.0,89.0
18,10.5355102125,11.2963162875,64.0,82.0
19,11.4176042125,11.470897391666668,57.0,27.0
20,8.771322212500001,11.904593608333334,38.0,95.0
21,9.2123692125,11.961562179166668,45.0,54.0
22,10.976557212500001,12.000153791666667,50.0,58.0
23,11.8586512125,12.299698212500001,57.0,71.0
24,11.4176042125,12.411797658333334,65.0,100.0
25,13.181792212500001,13.747802529166668,62.0,96.0
26,13.6228392125,14.146582525000001,65.0,83.0
27,12.7407452125,14.357917545833335,58.0,68.0
28,14.504933212500001,14.877985466666667,58.0,81.0
29,12.299698212500001,14.949655604166667,46.0,95.0
30,14.0638862125,15.815210341666667,70.0,100.0
31,14.9459802125,15.886880479166667,65.0,88.0
32,15.387027212500001,15.905257437500001,62.0,63.0
33,16.7101682125,18.255670408333334,69.0,93.0
34,17.5922622125,18.367769854166667,64.0,95.0
35,18.0333092125,18.498246258333335,57.0,64.0
36,17.151215212500002,18.549701741666667,60.0,64.0
37,16.2691212125,18.59380644166667,52.0,43.0
38,18.6948797125,18.830869204166667,52.0,70.0
39,15.8280742125,18.867623120833333,45.0,79.0
40,19.1359267125,19.496115095833336,60.0,59.0
41,18.474356212500002,19.497952791666666,69.0,107.0
42,18.9154032125,19.52000514166667,64.0,70.0
43,19.3564502125,20.5693294625,43.0,93.0
44,19.7974972125,20.600570291666667,50.0,60.0
45,20.238544212500003,20.758612133333333,55.0,64.0
46,20.6795912125,20.925842454166666,58.0,71.0
47,20.238544212500003,21.12982669166667,62.0,76.0
48,21.561685212500002,22.155260966666667,55.0,82.0
49,21.1206382125,22.208554145833336,48.0,92.0
50,22.0027322125,22.958334045833336,64.0,51.0
51,22.0027322125,22.9620094375,67.0,99.0
52,22.4437792125,23.261553858333333,60.0,73.0
53,24.2079672125,24.805218358333335,60.0,82.0
54,23.7669202125,24.917317804166668,53.0,96.0
55,25.0900612125,25.985019083333334,53.0,77.0
56,22.884826212500002,26.29007659166667,41.0,77.0
57,24.649014212500003,26.431579170833334,65.0,99.0
58,23.3258732125,26.44076765,48.0,74.0
59,27.295296212500002,28.42547915,53.0,95.0
60,28.6184372125,28.8885785,53.0,66.0
61,28.1773902125,29.00251564166667,65.0,100.0
62,26.8542492125,29.2469291875,48.0,58.0
63,26.4132022125,29.283683104166666,41.0,88.0
64,27.7363432125,29.585065220833336,60.0,59.0
65,29.059484212500003,29.939740516666667,69.0,99.0
66,29.5005312125,29.94525360416667,65.0,78.0
67,29.9415782125,31.299635433333336,38.0,78.0
68,30.382625212500002,31.34006474166667,45.0,62.0
69,31.2647192125,31.709441604166667,50.0,57.0
70,30.8236722125,31.773760958333334,62.0,96.0
71,32.1468132125,32.766116708333335,52.0,59.0
72,31.705766212500002,32.7973575375,45.0,79.0
73,33.0289072125,33.341315504166666,57.0,88.0
74,32.587860212500004,33.4754673,64.0,100.0
75,33.2494307125,33.548975133333336,60.0,85.0
76,33.911001212500004,34.50273927083334,58.0,88.0
77,33.4699542125,34.7710428625,46.0,107.0
78,34.7930952125,35.272733825,65.0,89.0
79,35.013618712500005,35.305812350000004,62.0,58.0
80,35.6751892125,36.21179639583333,52.0,47.0
81,36.336759712500005,36.487450770833334,52.0,68.0
82,35.234142212500004,36.53890625416667,45.0,85.0
83,36.5572832125,36.985466341666665,60.0,74.0
84,36.7778067125,37.00751869166667,57.0,65.0
85,36.1162362125,37.016707170833335,64.0,102.0
86,37.8804242125,38.11013619166667,55.0,72.0
87,37.4393772125,38.139539325,50.0,58.0
88,36.9983302125,38.198345591666666,43.0,75.0
89,37.8804242125,38.71473812083334,67.0,96.0
90,38.3214712125,38.779057475,62.0,79.0
91,39.4240887125,39.67952843333334,60.0,69.0
92,38.983041712500004,39.77508861666667,48.0,85.0
93,38.762518212500005,40.06728225416667,36.0,88.0
94,39.8651357125,40.27677957916667,48.0,89.0
95,39.6446122125,40.339261237500004,64.0,97.0
96,39.2035652125,40.50832925416667,55.0,77.0
97,40.306182712500004,40.565297825,60.0,92.0
98,40.085659212500005,40.56713552083333,62.0,89.0
99,41.408800212500005,41.805742512500004,53.0,72.0
100,40.5267062125,42.17144398333333,41.0,89.0
101,40.9677532125,42.33316121666667,48.0,53.0
102,41.408800212500005,43.059051070833334,65.0,83.0
103,41.8498472125,43.28876305,60.0,64.0
104,43.3935117125,43.54052737916667,53.0,82.0
105,42.731941212500004,43.57728129583334,48.0,38.0
106,42.2908942125,43.691218437500005,41.0,82.0
107,43.1729882125,44.056919908333334,69.0,122.0
108,43.6140352125,44.08264765,65.0,90.0
109,43.834558712500005,44.1873963125,60.0,69.0
110,44.4961292125,45.063977225,45.0,53.0
111,44.055082212500004,45.091542662500004,38.0,75.0
112,45.378223212500004,45.84683565,62.0,81.0
113,44.9371762125,45.86521260833334,65.0,107.0
114,46.2603172125,46.587427070833336,57.0,92.0
115,46.480840712500004,46.739955825,60.0,79.0
116,46.0397937125,46.86124375,52.0,63.0
117,45.8192702125,47.03582485416667,45.0,73.0
118,46.9218877125,47.03950024583334,52.0,69.0
119,47.3629347125,47.54670429583334,57.0,41.0
120,47.1424112125,47.58162051666667,60.0,76.0
121,46.7013642125,47.599997475,64.0,107.0
122,48.0245052125,48.61808096666667,58.0,62.0
123,48.6860757125,48.84963064166667,58.0,61.0
124,47.583458212500005,48.97091856666667,46.0,93.0
125,48.906599212500005,49.33110695,65.0,74.0
126,48.4655522125,49.35499699583333,70.0,107.0
127,49.127122712500004,49.415640958333334,62.0,70.0
128,49.7886932125,50.33081348333334,52.0,62.0
129,50.4502637125,50.56787624583333,52.0,55.0
130,49.3476462125,50.6156563375,45.0,75.0
131,50.229740212500005,50.97033163333334,64.0,100.0
132,50.6707872125,50.983195504166666,60.0,73.0
133,50.8913107125,51.10264573333333,57.0,65.0
134,51.332357712500006,51.65579217916667,55.0,79.0
135,51.552881212500004,51.85242563333333,62.0,102.0
136,51.1118342125,51.99576590833333,43.0,88.0
137,51.7734047125,52.02516904166667,55.0,79.0
138,52.2144517125,52.74554580833333,55.0,73.0
139,51.9939282125,52.872346820833336,48.0,92.0
140,52.655498712500005,52.872346820833336,60.0,66.0
141,52.4349752125,52.877859908333335,64.0,95.0
142,53.3170692125,53.877566441666666,53.0,93.0
143,53.5375927125,53.89410570416667,60.0,82.0
144,52.876022212500004,54.518922287500004,41.0,79.0
145,53.0965457125,54.5630269875,48.0,66.0
146,53.7581162125,54.5630269875,69.0,117.0
147,54.199163212500004,54.61080707916667,65.0,88.0
148,53.978639712500005,54.625508645833335,67.0,88.0
149,54.4196867125,54.6457233,60.0,83.0
150,55.0812572125,55.50392725416667,55.0,83.0
151,55.301780712500005,55.57927278333334,58.0,72.0
152,54.6402102125,56.29046107083334,43.0,95.0
153,54.8607337125,56.45217830416667,50.0,48.0
154,55.5223042125,56.928141525,62.0,100.0
155,55.9633512125,57.163366591666666,58.0,82.0
156,56.8454452125,57.376539308333335,50.0,58.0
157,56.404398212500006,57.5290680625,43.0,81.0
158,57.727539212500005,58.20534012916667,58.0,127.0
159,57.2864922125,58.2237170875,62.0,122.0
160,57.727539212500005,58.231067870833336,55.0,66.0
161,58.6096332125,59.3208215,50.0,93.0
162,58.1685862125,59.82986324583334,38.0,74.0
163,58.3891097125,60.00444435,45.0,73.0
164,59.4917272125,60.270910245833335,62.0,85.0
165,59.050680212500005,60.38300969166667,65.0,100.0
166,58.8301567125,60.75789964166667,57.0,75.0
167,60.8148682125,60.85529752083334,57.0,37.0
168,60.373821212500005,61.14932885416667,45.0,48.0
169,59.9327742125,61.156679637500005,38.0,71.0
170,61.0353917125,61.54443345833334,50.0,76.0
171,60.8148682125,61.662045991666666,62.0,99.0
172,60.8148682125,61.67307216666667,65.0,122.0
173,61.2559152125,61.737391520833334,57.0,90.0
174,62.5790562125,62.99437547083333,58.0,112.0
175,61.696962212500004,63.295757587500006,43.0,89.0
176,62.1380092125,63.485040258333335,50.0,58.0
177,63.020103212500004,63.52546956666667,55.0,83.0
178,62.5790562125,63.53282035,62.0,90.0
179,64.3432442125,64.58398236666667,55.0,96.0
180,63.902197212500006,64.67219176666667,50.0,72.0
181,63.4611502125,64.76591425416667,43.0,86.0
182,64.3432442125,64.8173697375,70.0,117.0
183,64.3432442125,64.833909,67.0,97.0
184,64.78429121250001,65.0819979375,62.0,102.0
185,65.2253382125,65.96041654583334,60.0,112.0
186,65.2253382125,65.98246889583334,67.0,102.0
187,65.2253382125,65.99900815833334,64.0,99.0
188,66.3279557125,66.44740594166667,48.0,42.0
189,66.1074322125,66.62014935,64.0,122.0
190,65.2253382125,66.74878805833333,36.0,96.0
191,66.1074322125,66.84434824166667,67.0,107.0
192,66.5484792125,66.8627252,60.0,89.0
193,66.7690027125,66.873751375,64.0,42.0
194,65.6663852125,66.9674738625,43.0,48.0
195,66.9895262125,67.50040565416667,64.0,95.0
196,66.9895262125,67.51694491666667,60.0,100.0
197,66.9895262125,67.53715957083334,67.0,99.0
198,67.43057321250001,67.95615422083334,43.0,85.0
199,66.9895262125,68.1252222375,36.0,92.0
200,68.0921437125,68.15646306666667,43.0,92.0
201,68.3126672125,68.7537142125,60.0,102.0
202,68.5331907125,68.76106499583334,64.0,88.0
203,69.1947612125,69.7240176125,53.0,112.0
204,69.4152847125,69.76628461666667,60.0,100.0
205,69.85633171250001,70.1099337375,53.0,102.0
206,68.7537142125,70.1760907875,41.0,100.0
207,68.9742377125,70.18527926666667,48.0,97.0
208,70.0768552125,70.37823732916667,60.0,99.0
209,69.63580821250001,70.5234153,69.0,127.0
210,70.2973787125,70.53444147500001,65.0,112.0
211,70.9589492125,71.28238367916667,57.0,102.0
212,71.1794727125,71.5212841375,60.0,97.0
213,70.7384257125,71.53414800833333,52.0,93.0
214,71.6205197125,71.89249869583334,52.0,77.0
215,70.5179022125,71.95314265833333,45.0,85.0
216,71.3999962125,72.26371325416667,69.0,112.0
217,71.8410432125,72.2710640375,64.0,99.0
218,72.06156671250001,72.33354569583334,60.0,102.0
219,72.7231372125,73.23952974166667,50.0,93.0
220,72.28209021250001,73.45637785000001,38.0,92.0
221,72.50261371250001,73.49496946250001,45.0,70.0
222,72.9436607125,73.51334642083334,57.0,90.0
223,73.3847077125,73.60706890833333,50.0,92.0
224,73.1641842125,74.02238816666667,65.0,122.0
225,73.8257547125,74.02973895000001,57.0,97.0
226,73.6052312125,74.0517913,62.0,102.0
227,74.4873252125,75.02025700416667,57.0,97.0
228,74.70784871250001,75.05149783333334,60.0,95.0
229,75.1488957125,75.30693755416667,57.0,95.0
230,74.0462782125,75.38595847500001,45.0,86.0
231,74.2668017125,75.43190087083333,52.0,61.0
232,75.3694192125,75.69101598333333,64.0,97.0
233,74.92837221250001,75.71858142083333,69.0,102.0
234,75.5899427125,75.82516777916668,60.0,97.0
235,76.2515132125,76.620890075,62.0,93.0
236,76.0309897125,76.642942425,58.0,92.0
237,76.9130837125,77.08766481666667,58.0,99.0
238,76.6925602125,77.15749725833334,65.0,72.0
239,75.8104662125,77.21997891666668,46.0,97.0
240,77.13360721250001,77.44417780833334,62.0,88.0
241,76.4720367125,77.55811495,70.0,127.0
242,77.35413071250001,77.57097882083333,65.0,100.0
243,77.7951777125,78.0818582625,52.0,97.0
244,77.57465421250001,78.14617761666668,45.0,82.0
245,78.2362247125,78.407130425,64.0,122.0
246,78.0157012125,78.51371678333334,57.0,92.0
247,78.6772717125,79.0190831375,57.0,90.0
248,78.4567482125,79.0521616625,38.0,93.0
249,78.8977952125,79.34067990833334,65.0,117.0
250,79.1183187125,79.35721917083333,62.0,107.0
251,79.77988921250001,80.00041271250001,58.0,112.0
252,79.5593657125,80.25585243333333,50.0,85.0
253,79.3388422125,80.54253298333333,43.0,85.0
254,80.4414597125,80.56274763750001,50.0,83.0
255,80.2209362125,80.68771095416668,58.0,122.0
256,80.6619832125,81.0644386,55.0,100.0
257,80.00041271250001,81.10119251666667,62.0,99.0
258,80.8825067125,81.12324486666667,58.0,127.0
259,81.7646007125,82.13581527083333,60.0,122.0
260,81.3235537125,82.42249582083333,43.0,107.0
261,81.1030302125,82.44087277916667,36.0,90.0
262,82.20564771250001,82.4592497375,64.0,122.0
263,81.9851242125,82.707338675,67.0,127.0
264,81.5440772125,82.8010611625,48.0,100.0
265,82.64669471250001,82.87089360416667,64.0,97.0
266,82.42617121250001,83.0491501,60.0,112.0
267,83.3082652125,83.8264954375,53.0,96.0
268,83.5287887125,83.93308179583333,60.0,88.0
269,82.8672182125,84.10031211666667,41.0,88.0
270,83.0877417125,84.15360529583333,48.0,79.0
271,83.9698357125,84.52481985416667,53.0,92.0
272,83.7493122125,84.58546381666667,69.0,117.0
273,84.1903592125,84.61854234166667,65.0,93.0
274,84.4108827125,84.64978317083333,60.0,88.0
275,85.07245321250001,85.65867818333334,57.0,93.0
276,85.2929767125,85.6678666625,60.0,93.0
277,85.7340237125,85.86450011666668,57.0,74.0
278,84.85192971250001,85.8994163375,52.0,72.0
279,84.63140621250001,85.9765995625,45.0,81.0
280,85.5135002125,86.31657329166667,69.0,122.0
281,85.9545472125,86.36251568750001,64.0,96.0
282,86.1750707125,86.43234812916667,60.0,102.0
283,86.8366412125,87.36405991666668,50.0,88.0
284,87.0571647125,87.49453632083333,57.0,95.0
285,86.6161177125,87.57723263333334,45.0,72.0
286,86.3955942125,87.5974472875,38.0,92.0
287,87.49821171250001,87.67830590416668,50.0,85.0
288,87.9392587125,88.14691834166668,57.0,96.0
289,87.27768821250001,88.14875603750001,65.0,127.0
290,87.71873521250001,88.15794451666667,62.0,90.0
291,88.6008292125,89.16683952916667,57.0,102.0
292,88.8213527125,89.20175575,64.0,93.0
293,89.2623997125,89.44616929583334,57.0,112.0
294,88.1597822125,89.47924782083334,45.0,71.0
295,88.3803057125,89.499462475,52.0,58.0
296,89.4829232125,89.79349380833334,69.0,96.0
297,89.0418762125,89.8137084625,72.0,127.0
298,89.70344671250001,89.95153565000001,64.0,107.0
299,90.5855407125,90.80238882083334,65.0,97.0
300,90.14449371250001,90.85935739166668,58.0,93.0
301,90.3650172125,90.90713748333334,62.0,92.0
302,89.92397021250001,91.1147971125,46.0,100.0
303,91.0265877125,91.17727877083334,58.0,88.0
304,91.4676347125,91.6881582125,62.0,96.0
305,91.2471112125,91.6881582125,65.0,95.0
306,90.8060642125,91.6881582125,70.0,127.0
307,92.1292052125,92.36810567083334,60.0,89.0
308,91.9086817125,92.410372675,57.0,99.0
309,91.6881582125,92.4710166375,45.0,100.0
310,92.34972871250001,92.50593285833334,64.0,107.0
311,92.79077571250001,93.19506879583334,57.0,88.0
312,93.0112992125,93.35311063750001,65.0,122.0
313,93.2318227125,93.38067607500001,62.0,117.0
314,92.57025221250001,93.43396925416667,50.0,117.0
315,93.4523462125,94.00365496250001,43.0,89.0
316,94.1139167125,94.26093237916668,58.0,107.0
317,93.8933932125,94.27379625,62.0,102.0
318,93.6728697125,94.29217320833334,55.0,66.0
319,94.5549637125,94.87288509166667,55.0,77.0
320,94.3344402125,95.1283248125,48.0,86.0
321,94.99601071250001,95.2220473,60.0,79.0
322,94.77548721250001,95.22572269166668,64.0,96.0
323,95.6575812125,96.225429225,53.0,89.0
324,96.0986282125,96.82460343333334,69.0,112.0
325,95.21653421250001,96.87458118333335,41.0,69.0
326,95.4370577125,96.99974908125002,48.0,77.0
327,96.3191517125,96.99974908125002,53.0,76.0
328,95.8781047125,96.99974908125002,60.0,72.0
329,96.76429170000002,96.99974908125002,65.0,38.0
330,96.5396752125,96.99974908125002,67.0,76.0
331,98.32289008125001,98.96792131875002,53.0,60.0
332,98.76393708125002,99.25460186875002,65.0,72.0
333,97.88184308125001,99.60927716458335,60.0,92.0
334,99.20498408125002,99.88309384375002,53.0,77.0
335,96.99974908125002,100.34619319375001,41.0,76.0
336,97.44079608125001,100.57590517291668,48.0,58.0
337,99.64603108125002,100.95263281875002,65.0,89.0
338,98.76393708125002,100.95447051458335,69.0,76.0
339,100.08707808125001,101.06289456875001,60.0,88.0
340,101.41021908125002,102.22799372708334,60.0,81.0
341,101.85126608125002,102.54040201875002,53.0,70.0
342,102.29231308125001,102.91529196875001,65.0,76.0
343,102.29231308125001,102.94469510208334,60.0,75.0
344,102.73336008125001,102.96123436458335,53.0,72.0
345,102.29231308125001,103.06782072291668,57.0,76.0
346,100.52812508125001,103.27731804791668,41.0,90.0
347,100.96917208125002,103.28283113541669,48.0,72.0
348,103.83597758125002,103.97748016041669,57.0,42.0
349,103.61545408125002,104.01607177291669,60.0,72.0
350,103.17440708125001,104.05282568958334,65.0,107.0
351,104.93859508125001,105.76555820625002,62.0,99.0
352,105.37964208125001,106.05223875625002,50.0,69.0
353,104.49754808125002,106.86817570625001,45.0,47.0
354,104.05650108125002,106.91411810208335,38.0,92.0
355,106.26173608125002,107.13096621041669,50.0,83.0
356,105.82068908125001,107.16036934375002,65.0,99.0
357,106.70278308125002,107.16772012708336,62.0,100.0
358,107.14383008125002,107.36435358125001,57.0,102.0
359,108.24644758125001,108.54415430625002,58.0,100.0
360,108.02592408125001,108.55150508958334,53.0,85.0
361,108.46697108125002,108.82715946458335,62.0,95.0
362,107.80540058125001,108.92639503958335,50.0,61.0
363,108.46697108125002,109.00725365625001,65.0,100.0
364,107.58487708125001,109.02011752708336,46.0,122.0
365,108.68749458125002,109.03114370208336,53.0,89.0
366,108.90801808125002,109.06789761875001,58.0,112.0
367,109.12854158125002,109.46116452708335,58.0,83.0
368,109.12854158125002,109.83054138958335,61.0,117.0
369,109.12854158125002,109.89486074375002,53.0,102.0
370,109.12854158125002,109.90404922291668,65.0,100.0
371,109.79011208125002,110.14662507291668,58.0,97.0
372,110.01063558125001,110.30650461041668,53.0,99.0
373,110.23115908125001,110.34142083125002,58.0,43.0
374,110.45168258125001,110.64464064375002,53.0,96.0
375,109.12854158125002,110.65199142708335,46.0,117.0
376,110.23115908125001,110.67771916875002,61.0,117.0
377,110.23115908125001,110.74571391458335,65.0,99.0
378,110.67220608125001,110.80452018125001,58.0,117.0
379,111.11325308125002,111.86119528541668,64.0,102.0
380,111.11325308125002,111.86670837291669,60.0,112.0
381,111.11325308125002,111.89978689791668,57.0,122.0
382,111.55430008125002,111.97697012291668,52.0,55.0
383,111.11325308125002,111.98064551458334,45.0,92.0
384,111.99534708125002,112.13317426875001,57.0,75.0
385,111.99534708125002,112.37942551041668,60.0,97.0
386,111.99534708125002,112.50806421875002,64.0,96.0
387,112.43639408125001,112.51357730625001,62.0,69.0
388,112.21587058125002,112.51541500208334,57.0,35.0
389,112.65691758125001,113.45999066041668,66.0,127.0
390,112.65691758125001,113.46182835625001,57.0,112.0
391,112.65691758125001,113.46734144375002,62.0,102.0
392,113.53901158125001,113.66029950625001,66.0,97.0
393,113.53901158125001,113.66397489791669,62.0,97.0
394,113.53901158125001,113.68418955208335,57.0,99.0
395,113.31848808125002,113.87530991875002,50.0,75.0
396,112.65691758125001,114.08113185208335,38.0,86.0
397,113.75953508125002,114.21895903958335,62.0,127.0
398,113.98005858125002,114.22630982291668,50.0,95.0
399,114.20058208125002,114.45785949791669,57.0,122.0
400,114.42110558125002,114.64162908125002,62.0,102.0
401,114.64162908125002,115.28114723125002,58.0,127.0
402,114.64162908125002,115.34179119375001,62.0,102.0
403,115.30319958125001,115.73138271041668,55.0,82.0
404,115.52372308125001,115.97028316875002,62.0,112.0
405,115.52372308125001,116.02173865208334,58.0,127.0
406,115.96477008125001,116.04379100208335,55.0,95.0
407,114.64162908125002,116.07503183125002,43.0,92.0
408,116.18529358125002,116.42786943125002,57.0,100.0
409,116.18529358125002,116.68330915208335,64.0,100.0
410,116.18529358125002,116.70168611041669,60.0,117.0
411,116.62634058125002,116.99204205208335,57.0,83.0
412,116.84686408125002,117.16478546041668,64.0,99.0
413,116.84686408125002,117.17397393958335,60.0,102.0
414,116.18529358125002,117.42390057291668,45.0,99.0
415,117.28791108125002,117.78960204375002,60.0,117.0
416,117.28791108125002,117.80981669791669,64.0,122.0
417,117.72895808125001,117.97153393125001,57.0,107.0
418,117.50843458125001,118.10568572708335,45.0,102.0
419,118.17000508125003,118.48792646041669,59.0,107.0
420,118.17000508125003,118.85914101875002,65.0,127.0
421,118.17000508125003,118.86465410625001,62.0,127.0
422,118.83157558125002,118.99145511875003,59.0,36.0
423,118.17000508125003,119.17706239791669,47.0,97.0
424,119.05209908125002,119.50784764791669,62.0,127.0
425,119.05209908125002,119.51336073541668,65.0,127.0
426,119.49314608125002,119.61259631041668,59.0,96.0
427,119.93419308125002,120.69316146041669,67.0,112.0
428,119.93419308125002,120.71337611458335,64.0,127.0
429,119.93419308125002,120.92838652708335,60.0,107.0
430,119.93419308125002,120.93022422291668,48.0,99.0
431,120.81628708125001,121.27571103958334,64.0,88.0
432,120.81628708125001,121.31797804375002,67.0,88.0
433,119.93419308125002,121.45948062291669,36.0,76.0
434,121.25733408125001,121.55320311041669,60.0,90.0
435,121.03681058125002,121.58260624375002,48.0,83.0
436,122.58047508125001,123.80989359375002,48.0,47.0
437,123.46256908125002,124.39060547708335,60.0,95.0
438,123.90361608125002,124.43838556875002,48.0,42.0
439,121.69838108125002,125.22639488958335,36.0,86.0
440,123.02152208125001,125.24280757291667,43.0,58.0
441,124.78571008125002,125.24896232916667,60.0,77.0
442,124.34466308125002,125.27563293958335,64.0,64.0
443,124.34466308125002,125.28383928125001,67.0,58.0
444,126.14122675625,127.27140969375,53.0,95.0
445,127.46436775625,127.73450904375001,53.0,66.0
446,127.02332075625,127.84844618541666,65.0,100.0
447,125.70017975625001,128.09285973125,48.0,58.0
448,125.2530655,128.12961364791667,41.0,88.0
449,126.58227375625,128.43099576458334,60.0,59.0
450,127.90541475625,128.78567106041666,69.0,99.0
451,128.34646175625,128.79118414791668,65.0,78.0
452,128.78750875625,130.14556597708332,38.0,78.0
453,129.22855575625,130.18599528541668,45.0,62.0
454,130.11064975625,130.55537214791667,50.0,57.0
455,129.66960275625001,130.61969150208333,62.0,96.0
456,130.99274375625,131.61204725208333,52.0,59.0
457,130.55169675625,131.64328808125,45.0,79.0
458,131.87483775625,132.18724604791666,57.0,88.0
459,131.43379075625,132.32139784375,64.0,100.0
460,132.09536125625002,132.39490567708333,60.0,85.0
461,132.75693175625,133.34866981458333,58.0,88.0
462,132.31588475625,133.61697340625,46.0,107.0
463,133.63902575625,134.11866436875,65.0,89.0
464,133.19797875625,134.13887902291668,70.0,112.0
465,133.85954925625,134.15174289375,62.0,58.0
466,134.52111975625002,135.05772693958335,52.0,47.0
467,135.18269025625,135.33338131458333,52.0,68.0
468,134.08007275625,135.38483679791668,45.0,85.0
469,135.40321375625,135.83139688541667,60.0,74.0
470,135.62373725625,135.85344923541666,57.0,65.0
471,134.96216675625,135.86263771458334,64.0,102.0
472,136.72635475625,136.95606673541667,55.0,72.0
473,136.28530775625,136.98546986875002,50.0,58.0
474,135.84426075625,137.04427613541668,43.0,75.0
475,136.72635475625,137.56066866458335,67.0,96.0
476,137.16740175625,137.62498801875,62.0,79.0
477,138.27001925625,138.52545897708333,60.0,69.0
478,137.82897225625,138.62101916041667,48.0,85.0
479,137.60844875625,138.91321279791669,36.0,88.0
480,138.71106625625,139.12271012291666,48.0,89.0
481,138.49054275625,139.18519178125,64.0,97.0
482,138.04949575625,139.35425979791668,55.0,77.0
483,139.15211325625,139.41122836875002,60.0,92.0
484,138.93158975625,139.41306606458335,62.0,89.0
485,140.25473075625,140.65167305625,53.0,72.0
486,139.37263675625002,141.01737452708335,41.0,89.0
487,139.81368375625001,141.17909176041667,48.0,53.0
488,140.25473075625,141.90498161458333,65.0,83.0
489,140.69577775625,142.13469359375,60.0,64.0
490,142.23944225625002,142.38645792291666,53.0,82.0
491,141.57787175625,142.42321183958333,48.0,38.0
492,141.13682475625,142.53714898125,41.0,82.0
493,142.01891875625,142.90285045208333,69.0,122.0
494,142.45996575625,142.92857819375,65.0,90.0
495,142.68048925625,143.03332685625,60.0,69.0
496,143.34205975625,143.90990776875,45.0,53.0
497,142.90101275625,143.93747320625,38.0,75.0
498,144.22415375625002,144.69276619375,62.0,81.0
499,143.78310675625,144.71114315208334,65.0,107.0
500,145.10624775625,145.43335761458334,57.0,92.0
501,145.32677125625,145.58588636875,60.0,79.0
502,144.88572425625,145.70717429375,52.0,63.0
503,144.66520075625002,145.88175539791666,45.0,73.0
504,145.76781825625,145.88543078958332,52.0,69.0
505,146.20886525625,146.39263483958334,57.0,41.0
506,145.98834175625,146.42755106041668,60.0,76.0
507,145.54729475625,146.44592801875,64.0,107.0
508,146.87043575625,147.46401151041667,58.0,62.0
509,147.53200625625,147.69556118541666,58.0,61.0
510,146.42938875625,147.81684911041668,46.0,93.0
511,147.75252975625,148.17703749375,65.0,74.0
512,147.97305325625,148.26157150208334,62.0,70.0
513,148.63462375625,149.17674402708334,52.0,62.0
514,149.29619425625,149.41380678958333,52.0,55.0
515,148.19357675625,149.46158688125,45.0,75.0
516,149.07567075625002,149.81626217708333,64.0,100.0
517,149.51671775625,149.82912604791667,60.0,73.0
518,149.73724125625,149.94857627708333,57.0,65.0
519,150.17828825625,150.50172272291667,55.0,79.0
520,150.39881175625,150.69835617708333,62.0,102.0
521,149.95776475625001,150.84169645208334,43.0,88.0
522,150.61933525625,150.87109958541666,55.0,79.0
523,151.06038225625,151.59147635208333,55.0,73.0
524,150.83985875625,151.71827736458334,48.0,92.0
525,151.50142925625,151.71827736458334,60.0,66.0
526,151.28090575625,151.72379045208334,64.0,95.0
527,152.16299975625,152.72349698541666,53.0,93.0
528,152.38352325625002,152.74003624791666,60.0,82.0
529,151.72195275625,153.36485283125,41.0,79.0
530,151.94247625625002,153.40895753125,48.0,66.0
531,152.60404675625,153.40895753125,69.0,117.0
532,153.04509375625,153.45673762291668,65.0,88.0
533,152.82457025625,153.47143918958335,67.0,88.0
534,153.26561725625,153.49165384375002,60.0,83.0
535,153.92718775625,154.34985779791668,55.0,83.0
536,154.14771125625,154.42520332708335,58.0,72.0
537,153.48614075625,155.13639161458335,43.0,95.0
538,153.70666425625,155.29810884791667,50.0,48.0
539,154.36823475625,155.77407206875,62.0,100.0
540,154.80928175625002,156.00929713541666,58.0,82.0
541,155.69137575625,156.22246985208335,50.0,58.0
542,155.25032875625,156.37499860625002,43.0,81.0
543,156.57346975625,157.05127067291667,58.0,127.0
544,156.13242275625,157.06964763125,62.0,122.0
545,156.57346975625,157.07699841458333,55.0,66.0
546,157.45556375625,158.16675204375,50.0,93.0
547,157.01451675625,158.67579378958334,38.0,74.0
548,157.23504025625002,158.85037489375,45.0,73.0
549,158.33765775625,159.11684078958334,62.0,85.0
550,157.89661075625,159.22894023541667,65.0,100.0
551,157.67608725625,159.60383018541665,57.0,75.0
552,159.66079875625002,159.70122806458335,57.0,37.0
553,159.21975175625,159.99525939791667,45.0,48.0
554,158.77870475625002,160.00261018125002,38.0,71.0
555,159.88132225625,160.39036400208334,50.0,76.0
556,159.66079875625002,160.50797653541667,62.0,99.0
557,159.66079875625002,160.51900271041666,65.0,122.0
558,160.10184575625001,160.58332206458334,57.0,90.0
559,161.42498675625,161.84030601458335,58.0,112.0
560,160.54289275625,162.14168813125002,43.0,89.0
561,160.98393975625,162.33097080208333,50.0,58.0
562,161.86603375625,162.3714001104167,55.0,83.0
563,161.42498675625,162.37875089375,62.0,90.0
564,163.18917475625,163.42991291041668,55.0,96.0
565,162.74812775625,163.5181223104167,50.0,72.0
566,162.30708075625,163.61184479791666,43.0,86.0
567,163.18917475625,163.67983954375,67.0,97.0
568,163.63022175625,163.92792848125,62.0,102.0
569,164.07126875625,164.80634708958334,60.0,112.0
570,164.07126875625,164.82839943958334,67.0,102.0
571,164.07126875625,164.84493870208334,64.0,99.0
572,165.17388625625,165.29333648541666,48.0,42.0
573,164.95336275625,165.46607989375002,64.0,122.0
574,164.07126875625,165.59471860208333,36.0,96.0
575,164.95336275625,165.69027878541667,67.0,107.0
576,165.39440975625,165.70865574375,60.0,89.0
577,165.61493325625,165.71968191875,64.0,42.0
578,164.51231575625002,165.81340440625002,43.0,48.0
579,165.83545675625,166.34633619791668,64.0,95.0
580,165.83545675625,166.36287546041666,60.0,100.0
581,165.83545675625,166.38309011458335,67.0,99.0
582,166.27650375625,166.80208476458336,43.0,85.0
583,165.83545675625,166.97115278125,36.0,92.0
584,166.93807425625,167.00239361041668,43.0,92.0
585,167.15859775625,167.59964475625,60.0,102.0
586,167.37912125625002,167.60699553958335,64.0,88.0
587,168.04069175625,168.56994815625,53.0,112.0
588,168.26121525625,168.61221516041667,60.0,100.0
589,168.70226225625,168.95586428125,53.0,102.0
590,167.59964475625,169.02202133125002,41.0,100.0
591,167.82016825625,169.03120981041667,48.0,97.0
592,168.92278575625,169.22416787291667,60.0,99.0
593,168.48173875625,169.36934584375,69.0,127.0
594,169.14330925625,169.38037201875,65.0,112.0
595,169.80487975625,170.12831422291669,57.0,102.0
596,170.02540325625,170.36721468125,60.0,97.0
597,169.58435625625,170.38007855208335,52.0,93.0
598,170.46645025625,170.73842923958335,52.0,77.0
599,169.36383275625002,170.79907320208332,45.0,85.0
600,170.24592675625001,171.10964379791668,69.0,112.0
601,170.68697375625,171.11699458125,64.0,99.0
602,170.90749725625,171.17947623958332,60.0,102.0
603,171.56906775625,172.08546028541667,50.0,93.0
604,171.12802075625,172.30230839375,38.0,92.0
605,171.34854425625002,172.34090000625,45.0,70.0
606,171.78959125625,172.35927696458333,57.0,90.0
607,172.23063825625002,172.45299945208333,50.0,92.0
608,172.01011475625,172.86831871041667,65.0,122.0
609,172.67168525625002,172.87566949375,57.0,97.0
610,172.45116175625,172.89772184375,62.0,102.0
611,173.33325575625,173.86618754791667,57.0,97.0
612,173.55377925625,173.89742837708334,60.0,95.0
613,173.99482625625,174.15286809791667,57.0,95.0
614,172.89220875625,174.23188901875,45.0,86.0
615,173.11273225625,174.27783141458335,52.0,61.0
616,174.21534975625002,174.53694652708333,64.0,97.0
617,173.77430275625,174.56451196458335,69.0,102.0
618,174.43587325625,174.67109832291666,60.0,97.0
619,175.09744375625002,175.46682061875,62.0,93.0
620,174.87692025625,175.48887296875,58.0,92.0
621,175.75901425625,175.9335953604167,58.0,99.0
622,175.53849075625,176.00342780208334,65.0,72.0
623,174.65639675625,176.06590946041666,46.0,97.0
624,175.97953775625,176.29010835208334,62.0,88.0
625,175.31796725625,176.40404549375,70.0,127.0
626,176.20006125625,176.41690936458335,65.0,100.0
627,176.64110825625,176.92778880625002,52.0,97.0
628,176.42058475625,176.99210816041668,45.0,82.0
629,177.08215525625002,177.25306096875,64.0,122.0
630,176.86163175625,177.35964732708334,57.0,92.0
631,177.52320225625,177.86501368125,57.0,90.0
632,177.30267875625,177.89809220625,38.0,93.0
633,177.74372575625,178.18661045208333,65.0,117.0
634,177.96424925625,178.20314971458333,62.0,107.0
635,178.62581975625,178.84634325625,58.0,112.0
636,178.40529625625,179.10178297708333,50.0,85.0
637,178.18477275625,179.38846352708333,43.0,85.0
638,179.28739025625,179.40867818125,50.0,83.0
639,179.06686675625002,179.53364149791668,58.0,122.0
640,179.50791375625,179.91036914375002,55.0,100.0
641,178.84634325625,179.9471230604167,62.0,99.0
642,179.72843725625,179.96917541041668,58.0,127.0
643,180.61053125625,180.98174581458335,60.0,122.0
644,180.16948425625,181.26842636458335,43.0,107.0
645,179.94896075625002,181.28680332291668,36.0,90.0
646,181.05157825625,181.30518028125,64.0,122.0
647,180.83105475625,181.55326921875002,67.0,127.0
648,180.39000775625001,181.64699170625,48.0,100.0
649,181.49262525625,181.71682414791667,64.0,97.0
650,181.27210175625,181.89508064375002,60.0,112.0
651,182.15419575625,182.67242598125,53.0,96.0
652,182.37471925625,182.77901233958335,60.0,88.0
653,181.71314875625,182.94624266041666,41.0,88.0
654,181.93367225625002,182.99953583958333,48.0,79.0
655,182.81576625625001,183.37075039791668,53.0,92.0
656,182.59524275625,183.43139436041668,69.0,117.0
657,183.03628975625,183.46447288541668,65.0,93.0
658,183.25681325625,183.49571371458333,60.0,88.0
659,183.91838375625002,184.50460872708334,57.0,93.0
660,184.13890725625,184.51379720625,60.0,93.0
661,184.57995425625,184.71043066041668,57.0,74.0
662,183.69786025625,184.74534688125001,52.0,72.0
663,183.47733675625,184.82253010625,45.0,81.0
664,184.35943075625,185.16250383541666,69.0,122.0
665,184.80047775625002,185.20844623125,64.0,96.0
666,185.02100125625,185.27827867291666,60.0,102.0
667,185.68257175625,186.20999046041666,50.0,88.0
668,185.90309525625,186.34046686458333,57.0,95.0
669,185.46204825625,186.42316317708332,45.0,72.0
670,185.24152475625002,186.44337783125002,38.0,92.0
671,186.34414225625,186.52423644791668,50.0,85.0
672,186.78518925625002,186.99284888541666,57.0,96.0
673,186.12361875625,186.99468658125,65.0,127.0
674,186.56466575625,187.00387506041668,62.0,90.0
675,187.44675975625,188.01277007291668,57.0,102.0
676,187.66728325625002,188.04768629375002,64.0,93.0
677,188.10833025625,188.29209983958333,57.0,112.0
678,187.00571275625,188.32517836458334,45.0,71.0
679,187.22623625625,188.34539301875,52.0,58.0
680,188.32885375625,188.63942435208332,69.0,96.0
681,187.88780675625,188.65963900625002,72.0,127.0
682,188.54937725625,188.79746619375,64.0,107.0
683,189.43147125625,189.64831936458336,65.0,97.0
684,188.99042425625,189.70528793541666,58.0,93.0
685,189.21094775625,189.75306802708334,62.0,92.0
686,188.76990075625,189.96072765625001,46.0,100.0
687,189.87251825625,190.02320931458334,58.0,88.0
688,190.31356525625,190.53408875625001,62.0,96.0
689,190.09304175625,190.53408875625001,65.0,95.0
690,189.65199475625002,190.53408875625001,70.0,127.0
691,190.97513575625,191.21403621458336,60.0,89.0
692,190.75461225625,191.25630321875002,57.0,99.0
693,190.53408875625001,191.31694718125,45.0,100.0
694,191.19565925625,191.35186340208332,64.0,107.0
695,191.63670625625002,192.04099933958332,57.0,88.0
696,191.85722975625,192.19904118125,65.0,122.0
697,192.07775325625,192.22660661875,62.0,117.0
698,191.41618275625,192.27989979791667,50.0,117.0
699,192.29827675625,192.84958550625,43.0,89.0
700,192.95984725625,193.10686292291666,58.0,107.0
701,192.73932375625,193.11972679375,62.0,102.0
702,192.51880025625002,193.13810375208334,55.0,66.0
703,193.40089425625,193.71881563541666,55.0,77.0
704,193.18037075625,193.97425535625,48.0,86.0
705,193.84194125625,194.06246475625,60.0,79.0
706,193.62141775625003,194.06246475625,64.0,96.0
707,194.06246475625,194.79203000208332,65.0,96.0
708,194.06246475625,194.81592004791668,62.0,97.0
709,194.06246475625,194.83429700625,58.0,127.0
710,194.94455875625,195.26431783125003,58.0,107.0
711,194.94455875625,195.63001930208333,65.0,83.0
712,194.94455875625,195.67779939375,62.0,96.0
713,195.16508225625,195.69433865625,53.0,82.0
714,195.38560575625002,195.71271561458335,58.0,99.0
715,194.06246475625,195.74211874791666,46.0,112.0
716,194.50351175625002,195.74763183541666,50.0,41.0
717,195.82665275625,196.27321284375,60.0,127.0
718,195.82665275625,196.30445367291668,64.0,107.0
719,195.82665275625,196.52681486875002,57.0,102.0
720,195.82665275625,196.64994048958334,45.0,78.0
721,196.70874675625,197.23432776458333,65.0,122.0
722,196.70874675625,197.24535393958334,62.0,127.0
723,196.70874675625,197.36296647291667,59.0,112.0
724,196.70874675625,197.56695071041668,47.0,99.0
725,197.59084075625,197.86833282708335,55.0,96.0
726,197.59084075625,197.87935900208333,58.0,127.0
727,197.59084075625,197.89589826458334,62.0,97.0
728,198.47293475625003,198.81107078958334,62.0,107.0
729,197.59084075625,198.87171475208334,43.0,107.0
730,198.03188775625,198.90111788541668,50.0,60.0
731,198.47293475625003,198.99484037291666,67.0,112.0
732,198.47293475625003,198.99667806875,70.0,127.0
733,198.69345825625,199.05180894375002,55.0,88.0
734,198.91398175625,199.15471991041667,62.0,112.0
735,199.13450525625,199.18596073958332,64.0,32.0
736,199.13450525625,199.22455235208332,67.0,38.0
737,199.35502875625002,200.09929556875,67.0,102.0
738,199.35502875625002,200.10664635208335,64.0,117.0
739,199.35502875625002,200.11583483125003,60.0,112.0
740,199.35502875625002,200.22425888541667,48.0,99.0
741,199.79607575625,200.22609658125,55.0,82.0
742,200.23712275625002,200.26468819375,55.0,70.0
743,200.23712275625002,200.33452063541665,48.0,97.0
744,200.23712275625002,200.33452063541665,60.0,127.0
745,200.23712275625002,200.35105989791668,64.0,127.0
746,200.23712275625002,200.36032597708333,67.0,127.0
747,200.45875205625,201.09203001875,64.0,117.0
748,200.45875205625,201.1056826875,60.0,117.0
749,200.45875205625,201.1056826875,67.0,102.0
750,200.45875205625,201.13883916875,48.0,107.0
751,201.59053955833332,202.11979595833333,53.0,112.0
752,201.81106305833333,202.1620629625,60.0,100.0
753,202.25211005833333,202.50571208333332,53.0,102.0
754,201.14859107499998,202.57186913333334,41.0,100.0
755,201.37001605833333,202.5810576125,48.0,97.0
756,202.4726335583333,202.774015675,60.0,99.0
757,202.03158655833332,202.91919364583333,69.0,127.0
758,202.69315705833333,202.93021982083332,65.0,112.0
759,203.35472755833334,203.678162025,57.0,102.0
760,203.57525105833332,203.91706248333332,60.0,97.0
761,203.13420405833332,203.92992635416667,52.0,93.0
762,204.01629805833332,204.28827704166667,52.0,77.0
763,202.91368055833334,204.34892100416667,45.0,85.0
764,203.79577455833333,204.6594916,69.0,112.0
765,204.23682155833333,204.66684238333332,64.0,99.0
766,204.45734505833332,204.72932404166667,60.0,102.0
767,205.11891555833333,205.6353080875,50.0,93.0
768,204.67786855833333,205.85215619583332,38.0,92.0
769,204.89839205833331,205.89074780833332,45.0,70.0
770,205.33943905833334,205.90912476666665,57.0,90.0
771,205.78048605833334,206.00284725416665,50.0,92.0
772,205.55996255833332,206.4181665125,65.0,122.0
773,206.22153305833334,206.42551729583332,57.0,97.0
774,206.00100955833332,206.44756964583334,62.0,102.0
775,206.88310355833332,207.41603535,57.0,97.0
776,207.10362705833333,207.44727617916666,60.0,95.0
777,207.54467405833333,207.7027159,57.0,95.0
778,206.44205655833332,207.78173682083332,45.0,86.0
779,206.66258005833333,207.82767921666667,52.0,61.0
780,207.76519755833334,208.08679432916665,64.0,97.0
781,207.32415055833332,208.11435976666667,69.0,102.0
782,207.98572105833333,208.22094612499998,60.0,97.0
783,208.64729155833334,209.01666842083333,62.0,93.0
784,208.42676805833332,209.03872077083332,58.0,92.0
785,209.30886205833332,209.4834431625,58.0,99.0
786,209.08833855833333,209.55327560416666,65.0,72.0
787,208.20624455833334,209.61575726249998,46.0,97.0
788,209.52938555833333,209.83995615416666,62.0,88.0
789,208.86781505833332,209.95389329583332,70.0,127.0
790,209.74990905833332,209.96675716666667,65.0,100.0
791,210.1909560583333,210.47763660833334,52.0,97.0
792,209.97043255833333,210.5419559625,45.0,82.0
793,210.63200305833334,210.80290877083334,64.0,122.0
794,210.41147955833333,210.90949512916666,57.0,92.0
795,211.07305005833334,211.41486148333334,57.0,90.0
796,210.85252655833332,211.44794000833332,38.0,93.0
797,211.29357355833332,211.73645825416665,65.0,117.0
798,211.51409705833333,211.75299751666665,62.0,107.0
799,212.17566755833332,212.39619105833333,58.0,112.0
800,211.95514405833333,212.65163077916665,50.0,85.0
801,211.73462055833332,212.93831132916665,43.0,85.0
802,212.83723805833333,212.95852598333332,50.0,83.0
803,212.61671455833334,213.0834893,58.0,122.0
804,213.05776155833334,213.46021694583334,55.0,100.0
805,212.39619105833333,213.4969708625,62.0,99.0
806,213.27828505833332,213.5190232125,58.0,127.0
807,214.16037905833332,214.53159361666667,60.0,122.0
808,213.71933205833332,214.81827416666667,43.0,107.0
809,213.49880855833334,214.836651125,36.0,90.0
810,214.60142605833332,214.85502808333334,64.0,122.0
811,214.38090255833333,215.10311702083334,67.0,127.0
812,213.93985555833333,215.19683950833334,48.0,100.0
813,215.04247305833331,215.26667195,64.0,97.0
814,214.82194955833333,215.44492844583334,60.0,112.0
815,215.70404355833332,216.22227378333332,53.0,96.0
816,215.92456705833334,216.32886014166667,60.0,88.0
817,215.26299655833333,216.4960904625,41.0,88.0
818,215.48352005833334,216.54938364166665,48.0,79.0
819,216.36561405833334,216.9205982,53.0,92.0
820,216.14509055833332,216.9812421625,69.0,117.0
821,216.58613755833332,217.0143206875,65.0,93.0
822,216.80666105833333,217.04556151666665,60.0,88.0
823,217.46823155833334,218.05445652916666,57.0,93.0
824,217.68875505833333,218.06364500833334,60.0,93.0
825,218.12980205833333,218.2602784625,57.0,74.0
826,217.24770805833333,218.29519468333334,52.0,72.0
827,217.02718455833332,218.37237790833333,45.0,81.0
828,217.90927855833334,218.7123516375,69.0,122.0
829,218.35032555833334,218.75829403333333,64.0,96.0
830,218.57084905833332,218.828126475,60.0,102.0
831,219.23241955833333,219.7598382625,50.0,88.0
832,219.45294305833332,219.89031466666665,57.0,95.0
833,219.01189605833332,219.97301097916667,45.0,72.0
834,218.79137255833334,219.99322563333334,38.0,92.0
835,219.89399005833332,220.07408425,50.0,85.0
836,220.33503705833334,220.54269668749998,57.0,96.0
837,219.67346655833333,220.5445343833333,65.0,127.0
838,220.11451355833333,220.5537228625,62.0,90.0
839,220.99660755833332,221.562617875,57.0,102.0
840,221.21713105833334,221.59753409583334,64.0,93.0
841,221.65817805833333,221.84194764166665,57.0,112.0
842,220.55556055833333,221.87502616666666,45.0,71.0
843,220.77608405833334,221.89524082083332,52.0,58.0
844,221.87870155833332,222.18927215416667,69.0,96.0
845,221.43765455833332,222.20948680833334,72.0,127.0
846,222.09922505833333,222.34731399583333,64.0,107.0
847,222.98131905833333,223.19816716666665,65.0,97.0
848,222.54027205833333,223.25513573749998,58.0,93.0
849,222.7607955583333,223.30291582916666,62.0,92.0
850,222.31974855833334,223.51057545833334,46.0,100.0
851,223.42236605833332,223.57305711666666,58.0,88.0
852,223.86341305833332,224.08393655833333,62.0,96.0
853,223.64288955833334,224.08393655833333,65.0,95.0
854,223.20184255833334,224.08393655833333,70.0,127.0
855,224.52498355833333,224.76388401666665,60.0,89.0
856,224.30446005833332,224.80615102083334,57.0,99.0
857,224.08393655833333,224.86679498333334,45.0,100.0
858,224.74550705833332,224.90171120416667,64.0,107.0
859,225.18655405833334,225.59084714166667,57.0,88.0
860,225.40707755833333,225.74888898333333,65.0,122.0
861,225.62760105833334,225.77645442083332,62.0,117.0
862,224.96603055833333,225.8297476,50.0,117.0
863,225.84812455833332,225.98411405,43.0,79.0
864,225.84812455833332,226.16420824166667,55.0,82.0
865,225.84812455833332,226.18442289583334,58.0,100.0
866,225.84812455833332,226.21566372499998,62.0,89.0
867,226.73021855833332,227.02976297916666,48.0,68.0
868,226.73021855833332,227.14370012083333,64.0,95.0
869,226.73021855833332,227.16023938333333,67.0,90.0
870,226.73021855833332,227.19883099583333,60.0,89.0
871,226.85701957083333,227.494700025,79.0,127.0
872,227.6435533875,228.43008720416665,77.0,127.0
873,227.6656057375,228.56791439166665,50.0,112.0
874,228.12502969583332,228.58996674166667,57.0,85.0
875,228.57342747916667,228.94280434166666,64.0,93.0
876,228.575265175,229.5345424,60.0,95.0
877,228.56607669583332,229.54189318333334,48.0,90.0
878,230.5048458,231.23441104583333,46.0,66.0
879,229.4904377,231.2380864375,62.0,66.0
880,230.52689815,231.2380864375,62.0,71.0
881,229.48124922083332,231.243599525,59.0,72.0
882,229.49227539583333,231.25095030833333,65.0,82.0
883,230.52322275833333,231.25095030833333,65.0,71.0
884,229.4959507875,231.25830109166665,47.0,107.0
885,230.51770967083334,231.4145052375,58.0,90.0
886,231.67362035,232.99308595833332,57.0,72.0
887,231.6570810875,233.07578227083332,45.0,55.0
888,231.67178265416666,233.09783462083334,64.0,74.0
889,231.66994495833333,233.11069849166665,60.0,74.0
890,232.71743158333334,233.26690263749998,62.0,83.0
891,232.72294467083333,233.28711729166668,38.0,74.0
892,232.7155938875,233.29079268333334,65.0,79.0
893,234.47243110416667,234.60290750833332,50.0,40.0
894,233.83107525833333,234.62128446666668,62.0,77.0
895,233.83291295416666,234.63047294583333,43.0,73.0
896,233.82556217083334,234.65436299166666,58.0,79.0
897,233.83475065,234.67090225416666,55.0,79.0
898,235.35820049583333,236.36796384583334,55.0,70.0
899,235.35820049583333,236.38046384583333,60.0,90.0
900,235.35820049583333,236.38358884583334,64.0,78.0
901,235.3508497125,236.41015134583333,36.0,68.0
902,238.70624509583334,239.72577634583334,55.0,90.0
903,239.69452634583334,240.18671384583334,57.0,93.0
904,239.15741697083334,240.52069822083334,53.0,63.0
905,238.18866697083334,240.84882322083334,48.0,55.0
906,237.83202634583333,240.88788572083334,41.0,88.0
907,240.14374509583334,241.56171384583334,60.0,93.0
908,240.60663572083334,241.64374509583334,65.0,100.0
909,241.04022947083334,241.65741697083334,67.0,72.0
910,243.89311508333333,244.44150221666666,64.0,55.0
911,241.50897947083334,244.87698611666667,38.0,75.0
912,241.98163572083334,244.881018375,45.0,86.0
913,242.45038572083334,245.01609902916667,50.0,88.0
914,243.43476072083334,245.17940549166667,62.0,95.0
915,242.91913572083334,245.2620667875,57.0,88.0
916,244.37093769583333,245.28222807916669,65.0,76.0
917,244.84472805000001,245.32859905,64.0,54.0
918,245.82859908333333,246.66603935416666,53.0,65.0
919,245.34876034166666,246.70770601666666,46.0,74.0
920,246.75168749374998,247.14289115833333,62.0,89.0
921,246.22577652916667,247.28178003333332,58.0,100.0
922,247.32576151041667,248.49242806041667,60.0,78.0
923,247.33039113958333,248.57344657083334,64.0,83.0
924,247.33270595416667,248.69150211458333,55.0,69.0
925,248.58270582916666,249.00400208333332,48.0,48.0
926,247.91603922916667,249.52946499375,43.0,43.0
927,247.32344669583333,249.59427980208332,36.0,79.0
928,249.29335390625,251.09659446666666,55.0,66.0
929,248.61048360416666,251.20539075208333,60.0,83.0
930,248.60122434583332,251.24242778541665,64.0,58.0
931,252.30492767916667,252.65909431041666,55.0,72.0
932,252.5919646875,252.92298317291667,57.0,72.0
933,252.86742762291667,253.05492760416666,60.0,78.0
934,253.11742759791667,253.3558535,64.0,90.0
935,253.35122387083334,253.60816828958332,65.0,83.0
936,253.59427940208332,253.69381642916667,69.0,70.0
937,253.82576086041666,254.03872380208333,72.0,75.0
938,254.09659416666665,254.36511265833332,76.0,60.0
939,254.33964969791666,254.42992746666667,77.0,72.0
940,254.62437189166667,254.91603852916666,81.0,71.0
941,254.90677927083334,255.04566814583333,84.0,66.0
942,255.21233479583333,255.30724219375,88.0,69.0
943,255.58039031458333,255.74474214999998,89.0,70.0
944,255.9114088,256.02020508541665,93.0,66.0
945,256.3026124645833,256.3975198625,96.0,66.0
946,251.88826105416666,257.661408625,53.0,78.0
947,251.52020553541666,257.67761232708335,48.0,54.0
948,251.01326114166665,257.7493715791667,41.0,81.0
