,start,end,pitch,velocity
0,19.13043,19.343473425000003,59.0,95.0
1,19.391299500000002,19.53151685625,62.0,82.0
2,19.652169,19.973908050000002,62.0,95.0
3,20.173908,20.4412992375,62.0,107.0
4,20.956516500000003,21.063038212500004,62.0,96.0
5,21.217386,21.41629899375,62.0,99.0
6,21.478255500000003,21.685864143750003,55.0,88.0
7,21.739125,22.09238578125,57.0,92.0
8,22.260864,22.746733443750003,57.0,93.0
9,22.782603,23.008689900000004,57.0,100.0
10,23.043472500000004,23.216298543750003,59.0,89.0
11,23.304342000000002,23.451081093750002,60.0,97.0
12,23.565211500000004,23.967385312500003,60.0,89.0
13,24.086950500000004,24.317385225000002,60.0,112.0
14,24.608689500000004,24.84021118125,60.0,100.0
15,25.130428500000004,25.361950181250002,60.0,86.0
16,25.391298000000003,25.570645781250004,59.0,88.0
17,25.652167500000004,25.923906562500004,55.0,85.0
18,25.913037000000003,26.197819537500003,57.0,92.0
19,26.434776000000003,27.067384537500004,57.0,92.0
20,26.956515000000003,27.190210593750002,52.0,72.0
21,27.2173845,27.4499931375,50.0,69.0
22,27.999993000000003,28.143471225000003,59.0,92.0
23,28.2608625,28.385862468750002,62.0,92.0
24,28.521732000000004,28.806514537500004,64.0,97.0
25,28.782601500000002,29.0847753375,62.0,96.0
26,29.304340500000002,29.458688287500003,62.0,95.0
27,29.565210000000004,29.765209950000003,64.0,97.0
28,29.826079500000002,29.915209912500003,67.0,96.0
29,30.086949000000004,30.466296731250004,64.0,97.0
30,30.608688000000004,30.901079231250005,69.0,97.0
31,31.130427000000005,31.349992162500005,64.0,97.0
32,31.391296500000003,31.622818181250004,62.0,86.0
33,31.652166000000005,31.911948543750004,67.0,100.0
34,31.913035500000003,32.054339812500004,65.0,86.0
35,32.173905000000005,32.424991893750004,65.0,89.0
36,32.4347745,32.595644025000006,64.0,79.0
37,32.695644,32.948904806250006,64.0,88.0
38,32.95651350000001,33.089122162500004,62.0,72.0
39,33.217383000000005,33.45325250625,62.0,95.0
40,33.4782525,33.871730662500006,60.0,97.0
41,34.7826,34.881513018750006,62.0,96.0
42,35.0434695,35.174991206250006,55.0,78.0
43,35.304339000000006,35.399991150000005,57.0,86.0
44,35.565208500000004,36.134773575000004,59.0,89.0
45,36.0869475,36.378251775,60.0,86.0
46,36.347817000000006,37.8021644625,59.0,85.0
47,44.173902000000005,44.38694542500001,59.0,95.0
48,44.434771500000004,44.57498885625,62.0,82.0
49,44.695641,45.01738005000001,62.0,95.0
50,45.217380000000006,45.484771237500006,62.0,107.0
51,45.99998850000001,46.106510212500005,62.0,96.0
52,46.260858000000006,46.459770993750006,62.0,99.0
53,46.521727500000004,46.729336143750004,55.0,88.0
54,46.782597,47.13585778125,57.0,92.0
55,47.304336000000006,47.790205443750004,57.0,93.0
56,47.826075,48.05216190000001,57.0,100.0
57,48.08694450000001,48.25977054375001,59.0,89.0
58,48.34781400000001,48.49455309375001,60.0,97.0
59,48.608683500000005,49.01085731250001,60.0,89.0
60,49.13042250000001,49.360857225000004,60.0,112.0
61,49.39129200000001,49.54563978750001,62.0,102.0
62,49.652161500000005,49.88368318125001,60.0,100.0
63,50.1739005,50.40542218125,60.0,86.0
64,50.43477000000001,50.61411778125001,59.0,88.0
65,50.695639500000006,50.9673785625,55.0,85.0
66,50.956509000000004,51.241291537500004,57.0,92.0
67,51.47824800000001,52.110856537500005,57.0,92.0
68,51.999987000000004,52.233682593750004,52.0,72.0
69,52.2608565,52.4934651375,50.0,69.0
70,53.043465000000005,53.18694322500001,59.0,92.0
71,53.3043345,53.42933446875001,62.0,92.0
72,53.56520400000001,53.84998653750001,64.0,97.0
73,53.82607350000001,54.12824733750001,62.0,96.0
74,54.3478125,54.502160287500004,62.0,95.0
75,54.60868200000001,54.80868195000001,64.0,97.0
76,54.86955150000001,54.958681912500005,67.0,96.0
77,55.130421000000005,55.509768731250006,64.0,97.0
78,55.65216000000001,55.94455123125,69.0,97.0
79,56.173899000000006,56.3934641625,64.0,97.0
80,56.434768500000004,56.666290181250005,62.0,86.0
81,56.69563800000001,56.95542054375001,67.0,100.0
82,56.95650750000001,57.097811812500005,65.0,86.0
83,57.217377000000006,57.468463893750005,65.0,89.0
84,57.478246500000004,57.63911602500001,64.0,79.0
85,57.739116,57.99237680625001,64.0,88.0
86,57.99998550000001,58.132594162500006,62.0,72.0
87,58.26085500000001,58.496724506250004,62.0,95.0
88,58.521724500000005,58.91520266250001,60.0,97.0
89,59.826072,59.92498501875001,62.0,96.0
90,60.08694150000001,60.21846320625001,55.0,78.0
91,60.34781100000001,60.44346315000001,57.0,86.0
92,60.608680500000006,60.869550000000004,59.0,89.0
93,60.869550000000004,63.095636400000004,62.0,97.0
94,64.52172300000001,64.75759250625,64.0,112.0
95,64.7825925,64.95215767500001,62.0,93.0
96,65.043462,65.2673749875,69.0,127.0
97,65.3043315,65.4086793,71.0,92.0
98,65.565201,65.69128792500001,71.0,102.0
99,65.8260705,66.00976610625001,71.0,112.0
100,66.08694000000001,66.28367908125001,71.0,117.0
101,66.34780950000001,66.72933114375,71.0,102.0
102,66.86954850000001,67.05759193125,71.0,102.0
103,67.130418,67.34454838125001,69.0,107.0
104,67.3912875,67.62933091875001,62.0,88.0
105,67.652157,68.1152003625,64.0,96.0
106,68.04346125000001,68.30433075,62.0,96.0
107,68.69563500000001,68.88259147500001,62.0,112.0
108,68.95650450000001,69.1499827125,59.0,90.0
109,69.217374,69.552156525,64.0,102.0
110,69.4782435,69.769547775,67.0,127.0
111,69.9999825,70.10976508125,67.0,100.0
112,70.26085200000001,70.52172150000001,69.0,117.0
113,70.52172150000001,70.92280835625,67.0,97.0
114,71.04346050000001,71.2021561125,67.0,107.0
115,71.30433000000001,71.52606907500001,66.0,112.0
116,71.5651995,71.84019943125001,62.0,95.0
117,71.826069,72.29780801250001,64.0,100.0
118,72.34780800000001,72.6543296625,62.0,95.0
119,73.6521555,73.743459825,64.0,112.0
120,73.913025,74.01845975625001,64.0,96.0
121,74.1738945,74.273894475,64.0,99.0
122,74.434764,74.67280741875001,65.0,127.0
123,74.69563350000001,75.01411168125001,64.0,93.0
124,75.21737250000001,75.31737247500001,64.0,112.0
125,75.47824200000001,75.61845935625001,62.0,93.0
126,75.7391115,75.98367665625001,59.0,97.0
127,75.999981,76.46193740625,69.0,107.0
128,76.52172,76.92715468125,67.0,112.0
129,77.30432850000001,77.395632825,67.0,100.0
130,77.56519800000001,77.79237185625001,71.0,99.0
131,77.82606750000001,78.10215438750001,67.0,93.0
132,78.086937,78.44780647500001,69.0,102.0
133,78.608676,78.85867593750001,64.0,93.0
134,78.86954550000002,79.43150188125001,62.0,92.0
135,79.65215400000001,79.73258876250001,71.0,112.0
136,79.91302350000001,79.99780608750001,67.0,95.0
137,80.173893,80.25432776250001,71.0,100.0
138,80.4347625,80.51519726250001,67.0,102.0
139,80.695632,81.06084930000002,69.0,127.0
140,81.21737100000001,81.45324050625001,64.0,112.0
141,81.47824050000001,81.64780567500001,62.0,93.0
142,81.73911000000001,81.96302298750001,69.0,127.0
143,81.99997950000001,82.10432730000001,71.0,92.0
144,82.26084900000001,82.386935925,71.0,102.0
145,82.5217185,82.70541410625,71.0,112.0
146,82.782588,82.97932708125,71.0,117.0
147,83.0434575,83.42497914375001,71.0,102.0
148,83.56519650000001,83.75323993125001,71.0,102.0
149,83.82606600000001,84.04019638125001,69.0,107.0
150,84.08693550000001,84.20215286250001,71.0,99.0
151,84.34780500000001,84.55541364375001,69.0,107.0
152,84.869544,85.05215265000001,62.0,100.0
153,85.39128300000002,85.578239475,62.0,112.0
154,85.65215250000001,85.84563071250001,59.0,90.0
155,85.91302200000001,86.247804525,64.0,102.0
156,86.17389150000001,86.46519577500001,67.0,127.0
157,86.69563050000001,86.80541308125001,67.0,100.0
158,86.9565,87.2173695,69.0,117.0
159,87.2173695,87.61845635625001,67.0,97.0
160,87.73910850000001,87.89780411250001,67.0,107.0
161,87.99997800000001,88.22171707500002,66.0,112.0
162,88.26084750000001,88.38258660000001,69.0,107.0
163,88.52171700000001,89.02497774375001,64.0,96.0
164,89.043456,89.24345595000001,62.0,96.0
165,89.565195,89.77280364375001,57.0,95.0
166,89.82606450000002,89.98910793750001,55.0,73.0
167,90.34780350000001,90.43910782500001,64.0,112.0
168,90.60867300000001,90.71410775625002,64.0,96.0
169,90.86954250000001,90.96954247500001,64.0,99.0
170,91.130412,91.36845541875002,65.0,127.0
171,91.3912815,91.70975968125,64.0,93.0
172,91.91302050000002,92.013020475,64.0,112.0
173,92.17389000000001,92.31410735625,62.0,93.0
174,92.43475950000001,92.67932465625,59.0,97.0
175,92.69562900000001,93.15758540625,69.0,107.0
176,93.21736800000001,93.37171578750001,67.0,112.0
177,93.4782375,93.66084615000001,64.0,112.0
178,93.739107,93.88041131250002,64.0,99.0
179,93.99997650000002,94.12715038125,62.0,102.0
180,94.26084600000002,94.47932420625001,67.0,117.0
181,94.52171550000001,94.62606330000001,65.0,97.0
182,94.78258500000001,95.05106319375001,65.0,107.0
183,95.04345450000001,95.13367186875001,64.0,95.0
184,95.30432400000001,95.55758480625,64.0,102.0
185,95.5651935,95.65975869375,62.0,89.0
186,95.826063,96.047802075,62.0,102.0
187,96.08693250000002,96.37714981875001,60.0,89.0
188,97.39128000000001,97.61410603125002,62.0,95.0
189,97.65214950000001,97.86736683750001,55.0,85.0
190,97.913019,98.09780156250001,57.0,85.0
191,98.1738885,98.64127968750002,59.0,85.0
192,98.82606225,100.70106178125,55.0,95.0
193,126.60866400000002,126.82170742500001,59.0,95.0
194,126.86953350000002,127.00975085625001,62.0,82.0
195,127.13040300000002,127.45214205000002,62.0,95.0
196,127.65214200000001,127.91953323750002,62.0,107.0
197,128.4347505,128.54127221250002,62.0,96.0
198,128.69562000000002,128.89453299375,62.0,99.0
199,128.9564895,129.16409814375,55.0,88.0
200,129.21735900000002,129.57061978125,57.0,92.0
201,129.739098,130.22496744375002,57.0,93.0
202,130.260837,130.48692390000002,57.0,100.0
203,130.52170650000002,130.69453254375,59.0,89.0
204,130.782576,130.92931509375,60.0,97.0
205,131.04344550000002,131.4456193125,60.0,89.0
206,131.56518450000002,131.79561922500002,60.0,112.0
207,131.82605400000003,131.98040178750003,62.0,102.0
208,132.0869235,132.31844518125,60.0,100.0
209,132.6086625,132.84018418125,60.0,86.0
210,132.86953200000002,133.04887978125,59.0,88.0
211,133.1304015,133.40214056250002,55.0,85.0
212,133.39127100000002,133.67605353750002,57.0,92.0
213,133.91301,134.54561853750002,57.0,92.0
214,134.434749,134.66844459375002,52.0,72.0
215,134.69561850000002,134.92822713750002,50.0,69.0
216,135.478227,135.62170522500003,59.0,92.0
217,135.73909650000002,135.86409646875,62.0,92.0
218,135.99996600000003,136.2847485375,64.0,97.0
219,136.2608355,136.5630093375,62.0,96.0
220,136.7825745,136.9369222875,62.0,95.0
221,137.04344400000002,137.24344395000003,64.0,97.0
222,137.3043135,137.3934439125,67.0,96.0
223,137.56518300000002,137.94453073125,64.0,97.0
224,138.08692200000002,138.37931323125002,69.0,97.0
225,138.608661,138.82822616250002,64.0,97.0
226,138.86953050000002,139.10105218125003,62.0,86.0
227,139.1304,139.39018254375003,67.0,100.0
228,139.39126950000002,139.5325738125,65.0,86.0
229,139.652139,139.90322589375,65.0,89.0
230,139.91300850000002,140.07387802500003,64.0,79.0
231,140.173878,140.42713880625,64.0,88.0
232,140.43474750000001,140.5673561625,62.0,72.0
233,140.69561700000003,140.93148650625002,62.0,95.0
234,140.9564865,141.3499646625,60.0,97.0
235,142.26083400000002,142.35974701875003,62.0,96.0
236,142.52170350000003,142.65322520625003,55.0,78.0
237,142.782573,142.87822515000002,57.0,86.0
238,143.04344250000003,143.304312,59.0,89.0
239,143.304312,145.53039840000002,62.0,97.0
240,146.95648500000001,147.19235450625,64.0,112.0
241,147.21735450000003,147.38691967500003,62.0,93.0
242,147.478224,147.7021369875,69.0,127.0
243,147.73909350000002,147.84344130000002,71.0,92.0
244,147.999963,148.12604992500002,71.0,102.0
245,148.26083250000002,148.44452810625,71.0,112.0
246,148.521702,148.71844108125,71.0,117.0
247,148.78257150000002,149.16409314375002,71.0,102.0
248,149.3043105,149.49235393125002,71.0,102.0
249,149.56518000000003,149.77931038125,69.0,107.0
250,149.8260495,150.06409291875002,62.0,88.0
251,150.08691900000002,150.54996236250003,64.0,96.0
252,150.60865800000002,150.8695275,62.0,96.0
253,151.13039700000002,151.317353475,62.0,112.0
254,151.39126650000003,151.58474471250003,59.0,90.0
255,151.652136,151.98691852500002,64.0,102.0
256,151.91300550000003,152.204309775,67.0,127.0
257,152.43474450000002,152.54452708125,67.0,100.0
258,152.695614,152.95648350000002,69.0,117.0
259,152.95648350000002,153.35757035625002,67.0,97.0
260,153.47822250000002,153.6369181125,67.0,107.0
261,153.73909200000003,153.96083107500002,66.0,112.0
262,153.9999615,154.27496143125,62.0,95.0
263,154.26083100000002,154.73257001250002,64.0,100.0
264,154.78257000000002,155.0890916625,62.0,95.0
265,156.08691750000003,156.178221825,64.0,112.0
266,156.347787,156.45322175625003,64.0,96.0
267,156.60865650000002,156.70865647500003,64.0,99.0
268,156.869526,157.10756941875002,65.0,127.0
269,157.13039550000002,157.44887368125,64.0,93.0
270,157.65213450000002,157.75213447500002,64.0,112.0
271,157.91300400000003,158.05322135625002,62.0,93.0
272,158.1738735,158.41843865625,59.0,97.0
273,158.43474300000003,158.89669940625,69.0,107.0
274,158.95648200000002,159.36191668125002,67.0,112.0
275,159.73909050000003,159.830394825,67.0,100.0
276,159.99996000000002,160.22713385625002,71.0,99.0
277,160.26082950000003,160.5369163875,67.0,93.0
278,160.521699,160.88256847500003,69.0,102.0
279,161.043438,161.29343793750002,64.0,93.0
280,161.30430750000002,161.86626388125,62.0,92.0
281,162.08691600000003,162.1673507625,71.0,112.0
282,162.34778550000001,162.43256808750002,67.0,95.0
283,162.60865500000003,162.6890897625,71.0,100.0
284,162.8695245,162.94995926250002,67.0,102.0
285,163.13039400000002,163.4956113,69.0,127.0
286,163.65213300000002,163.88800250625002,64.0,112.0
287,163.9130025,164.082567675,62.0,93.0
288,164.17387200000002,164.39778498750002,69.0,127.0
289,164.43474150000003,164.53908930000003,71.0,92.0
290,164.695611,164.82169792500002,71.0,102.0
291,164.95648050000003,165.14017610625,71.0,112.0
292,165.21735,165.41408908125,71.0,117.0
293,165.47821950000002,165.85974114375003,71.0,102.0
294,165.99995850000002,166.18800193125003,71.0,102.0
295,166.26082800000003,166.47495838125002,69.0,107.0
296,166.52169750000002,166.63691486250002,71.0,99.0
297,166.78256700000003,166.99017564375,69.0,107.0
298,167.30430600000003,167.48691465000002,62.0,100.0
299,167.82604500000002,168.013001475,62.0,112.0
300,168.0869145,168.28039271250003,59.0,90.0
301,168.34778400000002,168.68256652500003,64.0,102.0
302,168.60865350000003,168.89995777500002,67.0,127.0
303,169.13039250000003,169.24017508125002,67.0,100.0
304,169.391262,169.65213150000002,69.0,117.0
305,169.65213150000002,170.05321835625003,67.0,97.0
306,170.17387050000002,170.33256611250002,67.0,107.0
307,170.43474,170.65647907500002,66.0,112.0
308,170.69560950000002,170.81734860000003,69.0,107.0
309,170.95647900000003,171.45973974375002,64.0,96.0
310,171.47821800000003,171.67821795000003,62.0,96.0
311,171.99995700000002,172.20756564375003,57.0,95.0
312,172.2608265,172.42386993750003,55.0,73.0
313,172.78256550000003,172.873869825,64.0,112.0
314,173.04343500000002,173.14886975625,64.0,96.0
315,173.30430450000003,173.40430447500003,64.0,99.0
316,173.565174,173.80321741875002,65.0,127.0
317,173.82604350000003,174.14452168125,64.0,93.0
318,174.34778250000002,174.44778247500003,64.0,112.0
319,174.608652,174.74886935625003,62.0,93.0
320,174.86952150000002,175.11408665625,59.0,97.0
321,175.13039100000003,175.59234740625,69.0,107.0
322,175.65213000000003,175.80647778750003,67.0,112.0
323,175.9129995,176.09560815000003,64.0,112.0
324,176.17386900000002,176.3151733125,64.0,99.0
325,176.4347385,176.56191238125,62.0,102.0
326,176.69560800000002,176.91408620625003,67.0,117.0
327,176.9564775,177.06082530000003,65.0,97.0
328,177.21734700000002,177.48582519375003,65.0,107.0
329,177.47821650000003,177.56843386875002,64.0,95.0
330,177.73908600000001,177.99234680625003,64.0,102.0
331,177.99995550000003,178.09452069375,62.0,89.0
332,178.260825,178.48256407500003,62.0,102.0
333,178.52169450000002,178.81191181875002,60.0,89.0
334,179.82604200000003,180.04886803125,62.0,95.0
335,180.0869115,180.30212883750002,55.0,85.0
336,180.34778100000003,180.53256356250003,57.0,85.0
337,180.6086505,181.0760416875,59.0,85.0
338,181.1303895,181.92386756250002,62.0,97.0
339,182.434737,182.578215225,69.0,117.0
340,182.69560650000003,183.29343243750003,69.0,127.0
341,183.21734550000002,184.2151713375,67.0,100.0
342,184.52169300000003,184.75756250625003,64.0,112.0
343,184.7825625,184.952127675,62.0,93.0
344,185.04343200000002,185.26734498750002,69.0,127.0
345,185.3043015,185.4086493,71.0,92.0
346,185.56517100000002,185.69125792500003,71.0,102.0
347,185.82604050000003,186.00973610625002,71.0,112.0
348,186.08691000000002,186.28364908125002,71.0,117.0
349,186.34777950000003,186.72930114375,71.0,102.0
350,186.86951850000003,187.05756193125,71.0,102.0
351,187.130388,187.34451838125003,69.0,107.0
352,187.39125750000002,187.62930091875003,62.0,88.0
353,187.652127,188.1151703625,64.0,96.0
354,188.17386600000003,188.43473550000002,62.0,96.0
355,188.69560500000003,188.88256147500002,62.0,112.0
356,188.9564745,189.1499527125,59.0,90.0
357,189.21734400000003,189.55212652500003,64.0,102.0
358,189.4782135,189.76951777500003,67.0,127.0
359,189.99995250000003,190.10973508125002,67.0,100.0
360,190.26082200000002,190.52169150000003,69.0,117.0
361,190.52169150000003,190.92277835625003,67.0,97.0
362,191.04343050000003,191.20212611250003,67.0,107.0
363,191.3043,191.52603907500003,66.0,112.0
364,191.56516950000002,191.84016943125002,62.0,95.0
365,191.826039,192.29777801250003,64.0,100.0
366,192.34777800000003,192.65429966250002,62.0,95.0
367,193.6521255,193.74342982500002,64.0,112.0
368,193.91299500000002,194.01842975625001,64.0,96.0
369,194.1738645,194.273864475,64.0,99.0
370,194.43473400000002,194.67277741875003,65.0,127.0
371,194.69560350000003,195.01408168125002,64.0,93.0
372,195.21734250000003,195.31734247500003,64.0,112.0
373,195.478212,195.61842935625003,62.0,93.0
374,195.73908150000003,195.98364665625002,59.0,97.0
375,195.999951,196.46190740625002,69.0,107.0
376,196.52169000000004,196.92712468125004,67.0,112.0
377,197.30429850000002,197.39560282500003,67.0,100.0
378,197.56516800000003,197.79234185625003,71.0,99.0
379,197.8260375,198.10212438750003,67.0,93.0
380,198.08690700000002,198.447776475,69.0,102.0
381,198.60864600000002,198.85864593750003,64.0,93.0
382,198.86951550000003,199.43147188125002,62.0,92.0
383,199.65212400000001,199.73255876250002,71.0,112.0
384,199.91299350000003,199.99777608750003,67.0,95.0
385,200.173863,200.25429776250002,71.0,100.0
386,200.43473250000002,200.51516726250003,67.0,102.0
387,200.695602,201.06081930000002,69.0,127.0
388,201.21734100000003,201.45321050625003,64.0,112.0
389,201.47821050000002,201.64777567500002,62.0,93.0
390,201.73908000000003,201.96299298750003,69.0,127.0
391,201.9999495,202.1042973,71.0,92.0
392,202.26081900000003,202.38690592500004,71.0,102.0
393,202.5216885,202.70538410625002,71.0,112.0
394,202.78255800000002,202.97929708125002,71.0,117.0
395,203.04342750000004,203.42494914375,71.0,102.0
396,203.56516650000003,203.75320993125,71.0,102.0
397,203.82603600000002,204.04016638125003,69.0,107.0
398,204.08690550000003,204.20212286250003,71.0,99.0
399,204.347775,204.55538364375002,69.0,107.0
400,204.869514,205.05212265000003,62.0,100.0
401,205.39125300000003,205.57820947500002,62.0,112.0
402,205.65212250000002,205.84560071250002,59.0,90.0
403,205.91299200000003,206.247774525,64.0,102.0
404,206.17386150000002,206.46516577500003,67.0,127.0
405,206.6956005,206.80538308125003,67.0,100.0
406,206.95647000000002,207.2173395,69.0,117.0
407,207.2173395,207.61842635625,67.0,97.0
408,207.73907850000003,207.89777411250003,67.0,107.0
409,207.99994800000002,208.22168707500003,66.0,112.0
410,208.26081750000003,208.38255660000002,69.0,107.0
411,208.52168700000001,209.02494774375003,64.0,96.0
412,209.043426,209.24342595000002,62.0,96.0
413,209.56516500000004,209.77277364375,57.0,95.0
414,209.82603450000002,209.9890779375,55.0,73.0
415,210.34777350000002,210.43907782500003,64.0,112.0
416,210.60864300000003,210.71407775625002,64.0,96.0
417,210.8695125,210.96951247500002,64.0,99.0
418,211.13038200000003,211.36842541875004,65.0,127.0
419,211.3912515,211.70972968125002,64.0,93.0
420,211.91299050000003,212.012990475,64.0,112.0
421,212.17386000000002,212.31407735625,62.0,93.0
422,212.43472950000003,212.67929465625002,59.0,97.0
423,212.69559900000002,213.15755540625003,69.0,107.0
424,213.217338,213.3716857875,67.0,112.0
425,213.47820750000002,213.66081615000002,64.0,112.0
426,213.73907700000004,213.88038131250002,64.0,99.0
427,213.99994650000002,214.12712038125002,62.0,102.0
428,214.26081600000003,214.47929420625002,67.0,117.0
429,214.52168550000002,214.62603330000002,65.0,97.0
430,214.78255500000003,215.05103319375002,65.0,107.0
431,215.04342450000001,215.13364186875003,64.0,95.0
432,215.30429400000003,215.55755480625,64.0,102.0
433,215.5651635,215.65972869375003,62.0,89.0
434,215.82603300000002,216.047772075,62.0,102.0
435,216.08690250000004,216.37711981875003,60.0,89.0
436,217.39125,217.61407603125002,62.0,95.0
437,217.65211950000003,217.86733683750003,55.0,85.0
438,217.912989,218.09777156250001,57.0,85.0
439,218.17385850000002,218.64124968750002,59.0,85.0
440,218.69559750000002,219.48907556250003,62.0,97.0
441,220.26081450000004,220.45320575625001,64.0,93.0
442,220.52168400000002,220.90755346875002,62.0,99.0
443,221.56516200000002,221.73690108750003,62.0,93.0
444,221.82603150000003,221.97385755000002,64.0,97.0
445,222.086901,222.49342263750003,66.0,112.0
446,222.60864000000004,223.20211811250002,67.0,117.0
447,223.9129875,224.12277005625003,69.0,117.0
448,224.17385700000003,224.37603086250002,71.0,102.0
449,224.4347265,224.71190034375002,62.0,99.0
450,224.69559600000002,225.39342191250003,64.0,95.0
451,225.73907400000002,225.96516090000003,62.0,102.0
452,225.99994350000003,226.1564652,55.0,92.0
453,226.260813,226.81407373125003,57.0,97.0
454,226.78255200000004,227.49233443125001,59.0,96.0
455,228.6086385,228.87168191250004,60.0,112.0
456,228.86950800000002,229.64015998125004,57.0,92.0
457,229.91298600000002,230.15972506875002,62.0,102.0
458,230.17385550000003,230.299942425,64.0,90.0
459,230.43472500000001,230.81407273125004,66.0,112.0
460,230.956464,231.80646378750004,67.0,122.0
461,232.26081150000002,232.38907233750004,69.0,112.0
462,232.52168100000003,232.7325505125,71.0,112.0
463,232.7825505,233.03689826250002,62.0,100.0
464,233.04342000000003,233.76841981875003,64.0,93.0
465,234.08689800000002,234.32385446250004,62.0,107.0
466,234.34776750000003,234.6629848125,64.0,100.0
