,start,end,pitch,velocity
0,2.6956515000000003,2.9663036062500003,62.0,68.0
1,2.9565210000000004,2.9663036062500003,62.0,54.0
2,2.9565210000000004,3.2391296250000003,67.0,56.0
3,2.6956515000000003,3.60869475,50.0,59.0
4,3.2173905000000005,3.9173903250000004,55.0,59.0
5,2.9565210000000004,3.9315207562500003,59.0,58.0
6,3.7391295,4.0413033375000005,57.0,49.0
7,3.7391295,4.119564187500001,50.0,59.0
8,2.4347820000000002,4.156520700000001,43.0,76.0
9,3.9999990000000003,4.3108684875000005,62.0,63.0
10,3.9999990000000003,4.3108684875000005,62.0,73.0
11,3.2173905000000005,4.3184771812500005,69.0,81.0
12,4.260868500000001,4.521738000000001,55.0,40.0
13,3.9999990000000003,4.563042337500001,59.0,72.0
14,4.260868500000001,4.838042268750001,67.0,74.0
15,4.7826075,4.983694406250001,57.0,74.0
16,4.7826075,5.347824750000001,54.0,39.0
17,5.043477,5.360868225000001,62.0,81.0
18,5.043477,5.360868225000001,62.0,83.0
19,5.69565075,5.935868081250001,54.0,38.0
20,5.3043465,6.041302837500001,69.0,89.0
21,5.8260855000000005,6.1369549875,57.0,63.0
22,5.3043465,6.156520200000001,59.0,61.0
23,4.521738000000001,6.159781068750001,42.0,82.0
24,6.086955000000001,6.39238970625,62.0,72.0
25,6.086955000000001,6.39238970625,62.0,75.0
26,6.347824500000001,6.6402157312500005,59.0,55.0
27,6.347824500000001,7.016302593750001,67.0,78.0
28,6.869563500000001,7.132606912500001,60.0,81.0
29,7.130433000000001,7.132606912500001,60.0,65.0
30,7.130433000000001,7.519563337500001,62.0,68.0
31,7.391302500000001,7.62065026875,69.0,81.0
32,6.869563500000001,7.685867643750001,48.0,59.0
33,7.913041500000001,8.043476250000001,60.0,76.0
34,8.173911,8.1934762125,60.0,85.0
35,7.391302500000001,8.23369359375,57.0,70.0
36,7.652172000000001,8.236954462500002,67.0,74.0
37,7.913041500000001,8.260867500000002,48.0,54.0
38,6.608694000000001,8.334780525000001,41.0,66.0
39,8.173911,8.440215281250001,62.0,77.0
40,8.4347805,8.665215225,57.0,64.0
41,8.4347805,8.911954293750002,67.0,85.0
42,8.9565195,9.171736837500001,55.0,78.0
43,9.217389,9.526084575,60.0,77.0
44,8.69565,9.62282368125,40.0,72.0
45,9.4782585,9.64021498125,55.0,57.0
46,9.217389,9.647823675000001,59.0,73.0
47,8.9565195,9.667388887500001,47.0,53.0
48,9.4782585,9.991301850000001,62.0,77.0
49,9.999997500000001,10.279345256250002,60.0,69.0
50,9.739128000000001,10.61738865,41.0,81.0
51,9.999997500000001,10.70760601875,48.0,53.0
52,10.260867000000001,10.732606012500002,53.0,75.0
53,10.521736500000001,10.780432087500001,60.0,90.0
54,10.260867000000001,11.034779850000001,67.0,88.0
55,11.043475500000001,11.31412760625,62.0,68.0
56,11.304345000000001,11.31412760625,62.0,88.0
57,11.304345000000001,11.586953625000001,67.0,56.0
58,11.043475500000001,11.860866600000001,50.0,56.0
59,10.782606000000001,12.309779531250001,43.0,69.0
60,12.086953500000002,12.382605600000002,50.0,55.0
61,12.086953500000002,12.389127337500002,57.0,49.0
62,11.565214500000002,12.408692550000001,59.0,75.0
63,12.347823000000002,12.658692487500002,62.0,63.0
64,12.347823000000002,12.658692487500002,62.0,83.0
65,11.565214500000002,12.66630118125,69.0,81.0
66,12.608692500000002,13.18586626875,67.0,74.0
67,13.130431500000002,13.331518406250002,57.0,74.0
68,13.130431500000002,13.398909693750001,55.0,52.0
69,13.391301000000002,13.708692225000002,62.0,83.0
70,13.391301000000002,13.708692225000002,62.0,90.0
71,12.869562000000002,14.02064866875,42.0,65.0
72,13.652170500000002,14.389126837500001,69.0,89.0
73,13.652170500000002,14.4326050875,59.0,63.0
74,14.173909500000002,14.484778987500002,57.0,63.0
75,14.173909500000002,14.55977896875,42.0,50.0
76,14.434779,14.740213706250001,62.0,72.0
77,14.434779,14.740213706250001,62.0,89.0
78,14.6956485,14.906518012500001,59.0,64.0
79,14.6956485,15.364126593750001,67.0,78.0
80,15.217387500000001,15.480430912500001,60.0,81.0
81,15.478257000000001,15.480430912500001,60.0,88.0
82,15.478257000000001,15.867387337500002,62.0,68.0
83,15.739126500000001,15.968474268750002,69.0,81.0
84,15.217387500000001,16.0282568625,48.0,55.0
85,16.2608655,16.51630021875,48.0,41.0
86,16.2608655,16.5413002125,60.0,76.0
87,14.956518,16.570648031250002,41.0,65.0
88,15.999996000000001,16.5847784625,67.0,74.0
89,16.521735000000003,16.78803928125,62.0,77.0
90,15.739126500000001,16.84021318125,57.0,73.0
91,16.521735000000003,16.89564795,53.0,68.0
92,16.7826045,17.259778293750003,67.0,85.0
93,17.3043435,17.519560837500002,55.0,78.0
94,17.3043435,17.854343362500003,52.0,54.0
95,17.565213000000004,17.873908575,60.0,77.0
96,17.565213000000004,17.95651725,59.0,62.0
97,17.826082500000002,17.995647675,55.0,50.0
98,17.043474000000003,18.006517237500002,40.0,73.0
99,17.826082500000002,18.339125850000002,62.0,77.0
100,18.086952000000004,18.627169256250003,60.0,72.0
101,18.347821500000002,18.627169256250003,60.0,69.0
102,18.086952000000004,19.20325606875,57.0,69.0
103,18.086952000000004,19.2065169375,53.0,61.0
104,18.086952000000004,19.21629954375,41.0,63.0
105,18.608691,19.382603850000002,67.0,88.0
106,19.391299500000002,20.036951512500004,50.0,64.0
107,19.652169,20.538038343750003,62.0,86.0
108,20.434777500000003,20.866299131250003,50.0,54.0
109,19.13043,20.899994775000003,43.0,67.0
110,20.695647,21.188038181250004,62.0,89.0
111,19.913038500000003,21.189125137500003,59.0,76.0
112,20.956516500000003,21.219559912500003,55.0,61.0
113,21.739125,22.605429131250002,66.0,86.0
114,21.217386,22.759776918750003,38.0,63.0
115,21.478255500000003,22.784776912500003,45.0,36.0
116,22.521733500000003,23.1021681375,50.0,40.0
117,22.782603,23.267385487500004,66.0,92.0
118,21.999994500000003,23.27934200625,62.0,61.0
119,23.565211500000004,24.46086345,48.0,60.0
120,23.826081000000002,24.744559031250002,60.0,68.0
121,24.608689500000004,24.988037231250004,48.0,49.0
122,23.304342000000002,25.015211137500003,41.0,66.0
123,24.086950500000004,25.227167606250003,57.0,72.0
124,24.869559000000002,25.238037168750004,60.0,76.0
125,25.391298000000003,25.8847761375,48.0,69.0
126,25.652167500000004,26.231515181250003,55.0,72.0
127,25.913037000000003,26.366297756250002,64.0,88.0
128,26.173906500000005,26.379341231250002,60.0,71.0
129,26.434776000000003,26.9456454375,38.0,70.0
130,27.2173845,27.453254006250003,62.0,56.0
131,26.956515000000003,27.464123568750004,66.0,86.0
132,26.6956455,27.546732243750004,57.0,75.0
133,27.7391235,28.5934711125,50.0,51.0
134,27.999993000000003,28.854340612500003,62.0,85.0
135,28.782601500000002,29.041297087500002,50.0,46.0
136,27.478254000000003,29.113036200000003,43.0,61.0
137,28.2608625,29.52499261875,59.0,83.0
138,29.043471000000004,29.540210006250003,62.0,76.0
139,29.304340500000002,29.546731743750005,55.0,48.0
140,30.086949000000004,30.689122762500002,50.0,58.0
141,30.869557500000003,31.073905275000005,50.0,69.0
142,29.565210000000004,31.167383512500002,38.0,69.0
143,29.826079500000002,31.315209562500005,45.0,39.0
144,30.347818500000002,31.583687756250004,66.0,97.0
145,31.130427000000005,31.615209487500003,62.0,68.0
146,31.391296500000003,31.660861650000005,57.0,74.0
147,32.173905000000005,32.553252731250005,53.0,74.0
148,31.913035500000003,32.795643975000004,48.0,49.0
149,32.95651350000001,33.11629606875,48.0,50.0
150,31.652166000000005,33.156513450000006,41.0,50.0
151,32.4347745,33.658687237500004,60.0,95.0
152,33.4782525,33.684774187500004,53.0,58.0
153,33.217383000000005,33.693469837500004,57.0,82.0
154,34.260861000000006,34.536947887500006,48.0,81.0
155,33.739122,34.71194784375,36.0,79.0
156,34.521730500000004,34.743469575000006,64.0,78.0
157,33.99999150000001,34.79455651875001,43.0,53.0
158,34.7826,35.517382425,38.0,88.0
159,35.0434695,35.560860675,45.0,54.0
160,35.304339000000006,35.7934693125,50.0,86.0
161,35.304339000000006,35.841295387500004,66.0,112.0
162,35.565208500000004,35.86194755625,62.0,65.0
163,36.347817000000006,36.7065125625,55.0,71.0
164,36.0869475,37.015208137500004,50.0,58.0
165,37.1304255,37.57172973750001,50.0,62.0
166,35.826078,37.633686243750006,43.0,65.0
167,37.39129500000001,37.84455575625,59.0,81.0
168,36.608686500000005,37.8456427125,62.0,97.0
169,37.652164500000005,37.902164437500005,55.0,70.0
170,38.43477300000001,39.093468487500004,50.0,89.0
171,38.695642500000005,39.24564236250001,57.0,83.0
172,39.2173815,39.4586857875,50.0,83.0
173,37.913034,39.78912048750001,38.0,73.0
174,38.1739035,39.799990050000005,45.0,57.0
175,38.956512000000004,39.917381325,66.0,122.0
176,39.47825100000001,39.928250887500006,62.0,93.0
177,39.739120500000006,39.97933783125001,57.0,92.0
178,40.2608595,41.08151146875,48.0,78.0
179,41.3043375,41.456511375000005,48.0,59.0
180,39.999990000000004,41.48042441250001,41.0,83.0
181,40.782598500000006,41.664120018750005,57.0,96.0
182,41.56520700000001,41.915206912500004,53.0,88.0
183,40.52172900000001,41.922815606250005,60.0,88.0
184,41.826076500000006,41.94455473125,57.0,59.0
185,42.3478155,42.84346755000001,55.0,77.0
186,42.608685,43.04672836875,64.0,85.0
187,42.086946000000005,43.056510975,36.0,82.0
188,42.86955450000001,43.165206600000005,60.0,88.0
189,43.3912935,43.72933689375,57.0,82.0
190,43.652163,44.11955418750001,62.0,96.0
191,43.130424000000005,44.130423750000006,38.0,90.0
192,43.91303250000001,44.169554175,57.0,92.0
193,44.434771500000004,45.080423512500005,50.0,64.0
194,44.695641,45.581510343750004,62.0,86.0
195,45.478249500000004,45.909771131250004,50.0,54.0
196,44.173902000000005,45.943466775000005,43.0,67.0
197,45.739119,46.23151018125,62.0,89.0
198,44.95651050000001,46.23259713750001,59.0,76.0
199,45.99998850000001,46.263031912500004,55.0,61.0
200,46.782597,47.64890113125001,66.0,86.0
201,46.260858000000006,47.80324891875001,38.0,63.0
202,46.521727500000004,47.82824891250001,45.0,36.0
203,47.565205500000005,48.1456401375,50.0,40.0
204,47.826075,48.31085748750001,66.0,92.0
205,47.04346650000001,48.322814006250006,62.0,61.0
206,48.608683500000005,49.504335450000006,48.0,60.0
207,48.869553,49.78803103125001,60.0,68.0
208,49.652161500000005,50.031509231250006,48.0,49.0
209,48.34781400000001,50.058683137500005,41.0,66.0
210,49.13042250000001,50.27063960625001,57.0,72.0
211,49.913031000000004,50.281509168750006,60.0,76.0
212,50.43477000000001,50.928248137500006,48.0,69.0
213,50.695639500000006,51.274987181250005,55.0,72.0
214,50.956509000000004,51.40976975625001,64.0,88.0
215,51.2173785,51.422813231250004,60.0,71.0
216,51.47824800000001,51.989117437500006,38.0,70.0
217,52.2608565,52.49672600625001,62.0,56.0
218,51.999987000000004,52.507595568750006,66.0,86.0
219,51.739117500000006,52.59020424375001,57.0,75.0
220,52.782595500000006,53.636943112500006,50.0,51.0
221,53.043465000000005,53.897812612500005,62.0,85.0
222,53.82607350000001,54.08476908750001,50.0,46.0
223,52.52172600000001,54.156508200000005,43.0,61.0
224,53.3043345,54.568464618750006,59.0,83.0
225,54.086943000000005,54.58368200625001,62.0,76.0
226,54.3478125,54.59020374375,55.0,48.0
227,55.130421000000005,55.73259476250001,50.0,58.0
228,55.91302950000001,56.117377275,50.0,69.0
229,54.60868200000001,56.210855512500004,38.0,69.0
230,54.86955150000001,56.3586815625,45.0,39.0
231,55.391290500000004,56.62715975625001,66.0,97.0
232,56.173899000000006,56.658681487500004,62.0,68.0
233,56.434768500000004,56.70433365000001,57.0,74.0
234,57.217377000000006,57.596724731250006,53.0,74.0
235,56.95650750000001,57.839115975000006,48.0,49.0
236,57.99998550000001,58.159768068750004,48.0,50.0
237,56.69563800000001,58.19998545000001,41.0,50.0
238,57.478246500000004,58.702159237500005,60.0,95.0
239,58.521724500000005,58.728246187500005,53.0,58.0
240,58.26085500000001,58.736941837500005,57.0,82.0
241,59.30433300000001,59.58041988750001,48.0,81.0
242,58.782594,59.755419843750005,36.0,79.0
243,59.565202500000005,59.78694157500001,64.0,78.0
244,59.04346350000001,59.83802851875001,43.0,53.0
245,59.826072,60.56085442500001,38.0,88.0
246,60.08694150000001,60.60433267500001,45.0,54.0
247,60.34781100000001,60.83694131250001,50.0,86.0
248,60.608680500000006,60.869550000000004,62.0,65.0
249,60.34781100000001,60.869550000000004,66.0,112.0
250,61.39128900000001,62.00324536875001,55.0,90.0
251,62.17389750000001,62.445636562500006,55.0,59.0
252,61.913028000000004,62.508680025000004,67.0,63.0
253,61.13041950000001,62.526071325000004,50.0,47.0
254,60.869550000000004,62.558680012500005,43.0,88.0
255,62.43476700000001,62.72933214375001,62.0,93.0
256,62.695636500000006,63.078245100000004,67.0,69.0
257,61.652158500000006,63.09020161875001,71.0,90.0
258,63.21737550000001,63.51846238125,64.0,69.0
259,63.47824500000001,63.83911447500001,71.0,93.0
260,62.956506000000005,63.904331850000005,40.0,92.0
261,63.73911450000001,63.92824488750001,64.0,83.0
262,63.999984000000005,64.67933165625001,42.0,102.0
263,64.26085350000001,64.9412881125,62.0,63.0
264,64.52172300000001,65.0086794,66.0,102.0
265,65.565201,66.18367910625001,55.0,112.0
266,65.8260705,66.204331275,62.0,92.0
267,66.34780950000001,66.60976595625,55.0,102.0
268,65.3043315,66.65433116250001,50.0,76.0
269,65.043462,66.7369398375,43.0,96.0
270,66.60867900000001,66.96193978125001,67.0,99.0
271,66.08694000000001,67.01628759375001,71.0,117.0
272,66.86954850000001,67.12715713125,62.0,79.0
273,67.9130265,68.099982975,66.0,72.0
274,67.9130265,68.10541775625,62.0,77.0
275,67.652157,68.25106989375001,50.0,92.0
276,68.43476550000001,68.71628716875001,50.0,89.0
277,68.17389600000001,68.81193931875,66.0,117.0
278,68.17389600000001,68.81846105625,62.0,107.0
279,67.130418,69.02933056875001,38.0,97.0
280,68.69563500000001,69.10106968125001,57.0,95.0
281,68.95650450000001,69.1499827125,62.0,85.0
282,68.95650450000001,69.19780878750001,66.0,93.0
283,67.3912875,69.20324356875001,45.0,77.0
284,69.739113,70.3108519875,52.0,88.0
285,69.9999825,70.5673736625,59.0,82.0
286,69.217374,70.7369388375,40.0,89.0
287,69.4782435,70.79998230000001,47.0,69.0
288,70.52172150000001,70.86954750000001,52.0,85.0
289,70.78259100000001,71.22606915,64.0,93.0
290,70.26085200000001,71.27498218125001,67.0,97.0
291,71.04346050000001,71.27933000625,59.0,82.0
292,72.0869385,72.2760688875,66.0,90.0
293,72.0869385,72.28259062500001,71.0,77.0
294,71.826069,72.38367755625,59.0,85.0
295,71.5651995,72.760851375,54.0,86.0
296,72.60867750000001,72.76737311250001,59.0,93.0
297,71.30433000000001,72.84237309375001,47.0,75.0
298,72.34780800000001,72.9630252375,66.0,107.0
299,72.34780800000001,73.31302515,71.0,92.0
300,72.86954700000001,73.3630251375,62.0,99.0
301,73.13041650000001,73.36845991875,66.0,97.0
302,73.913025,74.45867703750001,48.0,81.0
303,73.39128600000001,74.73693783750001,36.0,85.0
304,73.6521555,74.73693783750001,43.0,74.0
305,74.1738945,74.74237261875001,55.0,79.0
306,74.69563350000001,74.882589975,48.0,90.0
307,74.82606825,75.26193770625001,60.0,88.0
308,74.434764,75.37932898125001,64.0,96.0
309,75.21737250000001,75.41737245,55.0,81.0
310,75.7391115,76.0369375125,54.0,75.0
311,75.47824200000001,76.11628531875,47.0,78.0
312,75.999981,76.42824176250001,66.0,117.0
313,76.2608505,76.47389392500001,62.0,81.0
314,76.52172,77.23476330000001,40.0,90.0
315,76.78258950000001,77.26085025,47.0,72.0
316,77.04345900000001,77.48041541250001,52.0,95.0
317,77.30432850000001,77.54128496250001,64.0,85.0
318,77.04345900000001,77.54563278750001,67.0,83.0
319,78.086937,78.37498040625,57.0,83.0
320,78.3478065,78.64998033750001,60.0,79.0
321,77.82606750000001,78.74019770625002,52.0,67.0
322,78.86954550000002,79.04998023750001,52.0,67.0
323,77.56519800000001,79.0891106625,45.0,74.0
324,78.608676,79.56411054375,64.0,96.0
325,79.13041500000001,79.57498010625001,60.0,96.0
326,79.39128450000001,79.65324095625,57.0,77.0
327,80.173893,80.81628414375001,50.0,85.0
328,80.4347625,81.10432755000001,57.0,86.0
329,80.695632,81.1238927625,66.0,127.0
330,79.65215400000001,81.25541446875,38.0,90.0
331,80.95650150000002,81.28911011250001,50.0,96.0
332,79.91302350000001,81.31302315,45.0,83.0
333,81.21737100000001,81.6804143625,62.0,96.0
334,81.47824050000001,81.70106653125,57.0,97.0
335,81.21737100000001,81.70432740000001,66.0,107.0
336,82.26084900000001,82.92063144375001,55.0,107.0
337,82.5217185,83.03476185000001,62.0,90.0
338,83.0434575,83.2325878875,55.0,95.0
339,81.99997950000001,83.32063134375001,50.0,100.0
340,81.73911000000001,83.334761775,43.0,93.0
341,83.30432700000001,83.71737037500002,67.0,99.0
342,82.782588,83.74889210625001,71.0,112.0
343,83.56519650000001,83.83367469375001,62.0,100.0
344,84.6086745,84.92497876875001,57.0,86.0
345,84.34780500000001,84.97280484375001,50.0,78.0
346,85.1304135,85.3499786625,50.0,95.0
347,84.869544,85.4891090625,62.0,83.0
348,83.82606600000001,85.50541340625001,38.0,81.0
349,84.08693550000001,85.63367424375001,45.0,63.0
350,85.39128300000002,85.83258723750001,57.0,95.0
351,85.65215250000001,85.91628286875,62.0,97.0
352,84.869544,85.9369350375,66.0,93.0
353,86.43476100000001,87.03693476250001,52.0,92.0
354,85.91302200000001,87.34997816250001,40.0,78.0
355,86.17389150000001,87.37063033125001,47.0,69.0
356,87.2173695,87.44345640000002,52.0,95.0
357,86.69563050000001,87.44780422500001,59.0,83.0
358,87.47823900000002,87.89236933125001,64.0,86.0
359,86.9565,87.92063019375001,67.0,99.0
360,87.73910850000001,88.00758669375001,59.0,93.0
361,88.52171700000001,88.79780388750001,59.0,96.0
362,88.78258650000001,89.04019513125002,62.0,88.0
363,88.26084750000001,89.20976030625,54.0,59.0
364,89.3043255,89.43258633750001,54.0,77.0
365,87.99997800000001,89.49671675625001,47.0,79.0
366,89.043456,90.02715140625001,66.0,102.0
367,89.565195,90.065194875,62.0,90.0
368,89.82606450000002,90.08802095625,59.0,85.0
369,90.86954250000001,91.00106420625,55.0,38.0
370,90.86954250000001,91.065194625,64.0,72.0
371,90.86954250000001,91.07171636250001,60.0,73.0
372,90.60867300000001,91.23802066875001,48.0,83.0
373,90.34780350000001,91.52389016250001,43.0,74.0
374,90.08693400000001,91.56736841250002,36.0,85.0
375,91.3912815,91.63910752500001,48.0,86.0
376,91.130412,91.71845533125001,60.0,100.0
377,91.652151,91.97497700625001,55.0,92.0
378,91.130412,92.09454219375002,64.0,95.0
379,91.91302050000002,92.11084653750001,60.0,97.0
380,92.43475950000001,92.72388986250002,54.0,82.0
381,92.17389000000001,92.77932463125,47.0,76.0
382,92.69562900000001,93.13693323750002,66.0,90.0
383,92.69562900000001,93.15758540625,62.0,70.0
384,92.95649850000001,93.27280276875001,59.0,73.0
385,93.739107,94.0847590875,52.0,72.0
386,93.739107,94.15867211250001,64.0,77.0
387,93.21736800000001,94.17388950000002,40.0,76.0
388,93.4782375,94.17388950000002,47.0,75.0
389,93.739107,94.17497645625001,67.0,76.0
390,93.99997650000002,94.19562862500001,59.0,90.0
391,94.78258500000001,95.40215006250001,53.0,85.0
392,95.04345450000001,95.48693265000001,60.0,78.0
393,95.5651935,95.83258473750001,53.0,85.0
394,95.30432400000001,95.90106298125,69.0,89.0
395,95.30432400000001,95.91628036875001,65.0,82.0
396,94.52171550000001,96.00214991250002,48.0,72.0
397,94.26084600000002,96.03367164375001,41.0,82.0
398,96.08693250000002,96.25323680625002,65.0,88.0
399,96.08693250000002,96.25758463125001,69.0,90.0
400,95.826063,96.3064976625,60.0,92.0
401,96.60867150000001,96.91954098750001,60.0,59.0
402,96.86954100000001,97.12388876250002,48.0,42.0
403,96.34780200000002,97.26193220625001,36.0,73.0
404,96.86954100000001,97.32497566875001,67.0,90.0
405,96.86954100000001,97.33367131875,64.0,88.0
406,97.13041050000001,97.37714956875001,60.0,86.0
407,97.39128000000001,97.93367116875001,38.0,85.0
408,97.65214950000001,97.9999755,45.0,76.0
409,98.04345375000001,98.35975801875001,57.0,69.0
410,97.913019,98.43584495625001,62.0,79.0
411,97.913019,98.47606233750001,66.0,82.0
412,98.95649700000001,99.42171427500001,55.0,81.0
413,98.69562750000001,99.62388813750002,50.0,72.0
414,99.21736650000001,99.91193154375001,59.0,72.0
415,98.43475800000002,100.44562706250001,43.0,68.0
416,99.73910550000001,100.50867052500001,50.0,71.0
417,100.2608445,100.52171400000002,59.0,72.0
418,99.999975,100.52171400000002,62.0,88.0
419,99.47823600000001,100.52171400000002,67.0,97.0
420,100.52171400000002,101.17388775,62.0,69.0
421,100.52171400000002,101.18910513750001,66.0,69.0
422,101.04345300000001,101.56627895625002,54.0,34.0
423,101.30432250000001,101.86627888125001,59.0,63.0
424,101.30432250000001,101.95106146875001,62.0,79.0
425,101.82606150000001,102.06084405000001,54.0,72.0
426,100.52171400000002,102.0891049125,42.0,86.0
427,101.30432250000001,102.28149616875001,66.0,77.0
428,102.086931,102.52932219375,62.0,86.0
429,102.3478005,102.59019174375001,59.0,69.0
430,103.13040900000001,103.66301756250002,53.0,73.0
431,102.86953950000002,104.07606093750002,48.0,38.0
432,103.91301750000001,104.07606093750002,53.0,68.0
433,102.60867000000002,104.12062614375002,41.0,75.0
434,103.39127850000001,104.57279994375001,65.0,72.0
435,104.17388700000001,104.60540863125001,69.0,86.0
436,104.4347565,104.74997381250002,60.0,74.0
437,104.69562600000002,105.56193013125001,36.0,72.0
438,104.95649550000002,105.57279969375001,60.0,77.0
439,105.21736500000002,105.65540836875002,67.0,90.0
440,105.47823450000001,105.6760605375,64.0,73.0
441,105.73910400000001,106.14019085625002,38.0,74.0
442,105.99997350000001,106.60432117500001,57.0,61.0
443,106.5217125,106.76736461250002,62.0,77.0
444,106.26084300000001,106.7804080875,66.0,102.0
445,107.30432100000002,107.58910353750001,55.0,96.0
446,107.04345150000002,107.95758170625001,50.0,49.0
447,106.782582,108.35758160625001,43.0,89.0
448,108.08692950000001,108.36301638750001,50.0,79.0
449,107.56519050000001,108.43258158750001,71.0,93.0
450,107.56519050000001,108.44236419375001,67.0,92.0
451,108.34779900000001,109.07388577500001,62.0,88.0
452,108.60866850000001,109.38149439375002,71.0,88.0
453,109.13040750000002,109.92062469375001,54.0,81.0
454,109.65214650000001,110.34888545625002,66.0,97.0
455,110.04345075,110.36301588750001,54.0,82.0
456,108.869538,110.49018976875001,42.0,88.0
457,109.39127700000002,110.72605927500001,62.0,65.0
458,110.43475500000001,110.90540705625001,71.0,95.0
459,110.69562450000001,110.93040705000001,66.0,82.0
460,111.73910250000002,111.80758074375001,60.0,41.0
461,111.47823300000002,111.8369285625,53.0,73.0
462,111.21736350000002,112.02062416875002,48.0,55.0
463,112.13040675,112.29345018750001,48.0,69.0
464,110.82605925000001,112.35214582500001,41.0,66.0
465,111.73910250000002,112.59127620000001,65.0,81.0
466,111.73910250000002,113.01301522500002,69.0,86.0
467,112.78258050000001,113.01410218125001,65.0,70.0
468,112.52171100000001,113.04345,60.0,93.0
469,113.56518900000002,113.84453675625001,48.0,96.0
470,113.04345,113.97388455000001,36.0,81.0
471,113.82605850000002,114.08584104375001,64.0,93.0
472,113.3043195,114.10105843125001,43.0,66.0
473,114.08692800000001,114.73801479375001,38.0,95.0
474,114.34779750000001,114.76518870000001,45.0,81.0
475,114.60866700000001,115.01736255000002,50.0,88.0
476,114.86953650000001,115.09997122500002,62.0,85.0
477,114.60866700000001,115.11301470000001,66.0,89.0
478,115.65214500000002,116.00105795625001,55.0,99.0
479,115.3912755,116.27931875625,50.0,74.0
480,115.91301450000002,116.47823175,62.0,86.0
481,116.43475350000001,116.61084041250001,50.0,90.0
482,115.13040600000001,116.63692736250002,43.0,89.0
483,116.82605775000002,117.10105768125001,62.0,92.0
484,116.17388400000002,117.13692723750002,71.0,102.0
485,116.69562300000001,117.16518810000001,67.0,97.0
486,117.4782315,117.79779663750001,48.0,74.0
487,117.21736200000001,117.82279663125001,41.0,85.0
488,117.73910100000002,118.18475306250001,69.0,96.0
489,117.99997050000002,118.20105740625002,65.0,83.0
490,118.52170950000001,118.98910068750001,57.0,55.0
491,118.26084000000002,119.10975283125,38.0,78.0
492,118.78257900000001,119.239100625,66.0,100.0
493,119.04344850000001,119.30323104375002,62.0,66.0
494,120.08692650000002,120.38583946875,60.0,89.0
495,119.82605700000002,120.4630133625,48.0,81.0
496,119.30431800000001,120.73149155625,36.0,90.0
497,119.56518750000001,120.73910025,43.0,64.0
498,120.60866550000001,120.79344806250002,48.0,85.0
499,120.34779600000002,120.88692630000001,64.0,90.0
500,120.86953500000001,121.291274025,60.0,83.0
501,121.13040450000001,121.38583921875001,64.0,95.0
502,121.913013,122.51953458750002,51.0,92.0
503,122.17388250000002,122.74453453125001,55.0,89.0
504,121.65214350000001,122.85431711250001,46.0,62.0
505,121.39127400000001,122.87823015000001,39.0,93.0
506,122.69562150000002,122.94562143750001,51.0,99.0
507,122.95649100000001,123.40323001875001,58.0,122.0
508,122.43475200000002,123.42823001250001,63.0,117.0
509,123.21736050000001,123.44018653125,55.0,97.0
510,123.99996900000001,124.30649066250001,53.0,92.0
511,123.47823000000001,124.34996891250002,41.0,88.0
512,123.73909950000001,124.37605586250001,48.0,65.0
513,124.52170800000002,126.47388142500002,41.0,63.0
514,124.52170800000002,126.49018576875001,48.0,62.0
515,124.52170800000002,126.5021422875,53.0,83.0
516,124.52170800000002,126.51192489375002,65.0,79.0
517,124.26083850000002,126.52170750000002,60.0,79.0
518,124.52170800000002,126.52496836875001,69.0,86.0
519,126.86953350000002,127.51518551250001,50.0,64.0
520,127.13040300000002,128.01627234375002,62.0,86.0
521,127.91301150000001,128.34453313125002,50.0,54.0
522,126.60866400000002,128.37822877500003,43.0,67.0
523,128.17388100000002,128.66627218125,62.0,89.0
524,127.39127250000001,128.6673591375,59.0,76.0
525,128.4347505,128.6977939125,55.0,61.0
526,129.21735900000002,130.08366313125,66.0,86.0
527,128.69562000000002,130.23801091875,38.0,63.0
528,128.9564895,130.26301091250002,45.0,36.0
529,129.99996750000003,130.58040213750002,50.0,40.0
530,130.260837,130.74561948750002,66.0,92.0
531,129.4782285,130.75757600625002,62.0,61.0
532,131.04344550000002,131.93909745000002,48.0,60.0
533,131.304315,132.22279303125,60.0,68.0
534,132.0869235,132.46627123125,48.0,49.0
535,130.782576,132.4934451375,41.0,66.0
536,131.56518450000002,132.70540160625,57.0,72.0
537,132.34779300000002,132.71627116875,60.0,76.0
538,132.86953200000002,133.36301013750003,48.0,69.0
539,133.1304015,133.70974918125,55.0,72.0
540,133.39127100000002,133.84453175625,64.0,88.0
541,133.6521405,133.85757523125002,60.0,71.0
542,133.91301,134.4238794375,38.0,70.0
543,134.69561850000002,134.93148800625002,62.0,56.0
544,134.434749,134.94235756875003,66.0,86.0
545,134.17387950000003,135.02496624375001,57.0,75.0
546,135.21735750000002,136.0717051125,50.0,51.0
547,135.478227,136.33257461250003,62.0,85.0
548,136.2608355,136.5195310875,50.0,46.0
549,134.956488,136.59127020000003,43.0,61.0
550,135.73909650000002,137.00322661875,59.0,83.0
551,136.52170500000003,137.01844400625,62.0,76.0
552,136.7825745,137.02496574375002,55.0,48.0
553,137.56518300000002,138.16735676250002,50.0,58.0
554,138.34779150000003,138.552139275,50.0,69.0
555,137.04344400000002,138.64561751250002,38.0,69.0
556,137.3043135,138.79344356250002,45.0,39.0
557,137.8260525,139.06192175625,66.0,97.0
558,138.608661,139.09344348750002,62.0,68.0
559,138.86953050000002,139.13909565,57.0,74.0
560,139.652139,140.03148673125003,53.0,74.0
561,139.39126950000002,140.273877975,48.0,49.0
562,140.43474750000001,140.59453006875,48.0,50.0
563,139.1304,140.63474745000002,41.0,50.0
564,139.91300850000002,141.13692123750002,60.0,95.0
565,140.9564865,141.16300818750003,53.0,58.0
566,140.69561700000003,141.17170383750002,57.0,82.0
567,141.73909500000002,142.0151818875,48.0,81.0
568,141.21735600000002,142.19018184375003,36.0,79.0
569,141.9999645,142.22170357500002,64.0,78.0
570,141.4782255,142.27279051875,43.0,53.0
571,142.26083400000002,142.995616425,38.0,88.0
572,142.52170350000003,143.03909467500003,45.0,54.0
573,142.782573,143.27170331250002,50.0,86.0
574,143.04344250000003,143.304312,62.0,65.0
575,142.782573,143.304312,66.0,112.0
576,143.826051,144.43800736875002,55.0,90.0
577,144.60865950000002,144.8803985625,55.0,59.0
578,144.34779,144.94344202500002,67.0,63.0
579,143.56518150000002,144.960833325,50.0,47.0
580,143.304312,144.99344201250003,43.0,88.0
581,144.86952900000003,145.16409414375002,62.0,93.0
582,145.1303985,145.5130071,67.0,69.0
583,144.08692050000002,145.52496361875,71.0,90.0
584,145.6521375,145.95322438125,64.0,69.0
585,146.04344175000003,146.23257213750003,64.0,83.0
586,145.91300700000002,146.273876475,71.0,93.0
587,145.39126800000003,146.33909385,40.0,92.0
588,146.43474600000002,147.11409365625002,42.0,102.0
589,146.6956155,147.37605011250002,62.0,63.0
590,146.95648500000001,147.4434414,66.0,102.0
591,147.999963,148.61844110625,55.0,112.0
592,148.26083250000002,148.63909327500002,62.0,92.0
593,148.78257150000002,149.04452795625002,55.0,102.0
594,147.73909350000002,149.0890931625,50.0,76.0
595,147.478224,149.17170183750002,43.0,96.0
596,149.04344100000003,149.39670178125002,67.0,99.0
597,148.521702,149.45104959375,71.0,117.0
598,149.3043105,149.56191913125002,62.0,79.0
599,150.3477885,150.53474497500002,66.0,72.0
600,150.3477885,150.54017975625,62.0,77.0
601,150.08691900000002,150.68583189375002,50.0,92.0
602,150.8695275,151.15104916875,50.0,89.0
603,150.60865800000002,151.24670131875,66.0,117.0
604,150.60865800000002,151.25322305625002,62.0,107.0
605,149.56518000000003,151.46409256875,38.0,97.0
606,151.13039700000002,151.53583168125002,57.0,95.0
607,151.39126650000003,151.58474471250003,62.0,85.0
608,151.39126650000003,151.63257078750001,66.0,93.0
609,149.8260495,151.63800556875,45.0,77.0
610,152.173875,152.7456139875,52.0,88.0
611,152.43474450000002,153.00213566250002,59.0,82.0
612,151.652136,153.17170083750003,40.0,89.0
613,151.91300550000003,153.23474430000002,47.0,69.0
614,152.95648350000002,153.30430950000002,52.0,85.0
615,153.217353,153.66083115,64.0,93.0
616,152.695614,153.70974418125002,67.0,97.0
617,153.47822250000002,153.71409200625,59.0,82.0
618,154.5217005,154.7108308875,66.0,90.0
619,154.5217005,154.71735262500002,71.0,77.0
620,154.26083100000002,154.81843955625,59.0,85.0
621,153.9999615,155.19561337500002,54.0,86.0
622,155.0434395,155.20213511250003,59.0,93.0
623,153.73909200000003,155.27713509375002,47.0,75.0
624,154.78257000000002,155.3977872375,66.0,107.0
625,154.78257000000002,155.74778715000002,71.0,92.0
626,155.30430900000002,155.79778713750002,62.0,99.0
627,155.56517850000003,155.80322191875,66.0,97.0
628,156.347787,156.89343903750003,48.0,81.0
629,155.82604800000001,157.17169983750003,36.0,85.0
630,156.08691750000003,157.17169983750003,43.0,74.0
631,156.60865650000002,157.17713461875002,55.0,79.0
632,156.99996075,157.18691722500003,48.0,90.0
633,156.869526,157.81409098125002,64.0,96.0
634,157.391265,157.82713445625,60.0,88.0
635,157.65213450000002,157.85213445000002,55.0,81.0
636,158.1738735,158.4716995125,54.0,75.0
637,157.91300400000003,158.55104731875002,47.0,78.0
638,158.43474300000003,158.86300376250003,66.0,117.0
639,158.6956125,158.908655925,62.0,81.0
640,158.95648200000002,159.6695253,40.0,90.0
641,159.2173515,159.69561225,47.0,72.0
642,159.47822100000002,159.91517741250001,52.0,95.0
643,159.73909050000003,159.97604696250002,64.0,85.0
644,159.47822100000002,159.98039478750002,67.0,83.0
645,160.521699,160.80974240625002,57.0,83.0
646,160.78256850000002,161.08474233750002,60.0,79.0
647,160.26082950000003,161.17495970625,52.0,67.0
648,161.30430750000002,161.48474223750003,52.0,67.0
649,159.99996000000002,161.52387266250003,45.0,74.0
650,161.043438,161.99887254375002,64.0,96.0
651,161.565177,162.00974210625003,60.0,96.0
652,161.82604650000002,162.08800295625002,57.0,77.0
653,162.60865500000003,163.25104614375002,50.0,85.0
654,162.8695245,163.53908955000003,57.0,86.0
655,163.13039400000002,163.55865476250003,66.0,127.0
656,162.08691600000003,163.69017646875002,38.0,90.0
657,163.3912635,163.7238721125,50.0,96.0
658,162.34778550000001,163.74778515000003,45.0,83.0
659,163.65213300000002,164.11517636250002,62.0,96.0
660,163.9130025,164.13582853125,57.0,97.0
661,163.65213300000002,164.13908940000002,66.0,107.0
662,164.695611,165.35539344375002,55.0,107.0
663,164.95648050000003,165.46952385000003,62.0,90.0
664,165.47821950000002,165.66734988750002,55.0,95.0
665,164.43474150000003,165.75539334375003,50.0,100.0
666,164.17387200000002,165.769523775,43.0,93.0
667,165.739089,166.152132375,67.0,99.0
668,165.21735,166.18365410625003,71.0,112.0
669,165.99995850000002,166.26843669375,62.0,100.0
670,167.0434365,167.35974076875002,57.0,86.0
671,166.78256700000003,167.40756684375,50.0,78.0
672,167.5651755,167.7847406625,50.0,95.0
673,167.30430600000003,167.9238710625,62.0,83.0
674,166.26082800000003,167.94017540625,38.0,81.0
675,166.52169750000002,168.06843624375003,45.0,63.0
676,167.82604500000002,168.2673492375,57.0,95.0
677,168.0869145,168.35104486875002,62.0,97.0
678,167.30430600000003,168.3716970375,66.0,93.0
679,168.86952300000002,169.47169676250002,52.0,92.0
680,168.34778400000002,169.78474016250001,40.0,78.0
681,168.60865350000003,169.80539233125,47.0,69.0
682,169.65213150000002,169.8782184,52.0,95.0
683,169.13039250000003,169.882566225,59.0,83.0
684,169.913001,170.32713133125003,64.0,86.0
685,169.391262,170.35539219375002,67.0,99.0
686,170.17387050000002,170.44234869375,59.0,93.0
687,170.95647900000003,171.23256588750002,59.0,96.0
688,171.2173485,171.47495713125002,62.0,88.0
689,170.69560950000002,171.64452230625002,54.0,59.0
690,171.7390875,171.8673483375,54.0,77.0
691,170.43474,171.93147875625002,47.0,79.0
692,171.47821800000003,172.46191340625,66.0,102.0
693,171.99995700000002,172.499956875,62.0,90.0
694,172.2608265,172.52278295625,59.0,85.0
695,173.30430450000003,173.43582620625003,55.0,38.0
696,173.30430450000003,173.499956625,64.0,72.0
697,173.30430450000003,173.50647836250002,60.0,73.0
698,173.04343500000002,173.67278266875002,48.0,83.0
699,172.78256550000003,173.95865216250002,43.0,74.0
700,172.52169600000002,174.0021304125,36.0,85.0
701,173.82604350000003,174.07386952500002,48.0,86.0
702,173.565174,174.15321733125,60.0,100.0
703,174.086913,174.40973900625002,55.0,92.0
704,173.565174,174.52930419375002,64.0,95.0
705,174.34778250000002,174.54560853750002,60.0,97.0
706,174.86952150000002,175.15865186250002,54.0,82.0
707,174.608652,175.21408663125,47.0,76.0
708,175.13039100000003,175.57169523750002,66.0,90.0
709,175.13039100000003,175.59234740625,62.0,70.0
710,175.39126050000002,175.70756476875002,59.0,73.0
711,176.17386900000002,176.5195210875,52.0,72.0
712,176.17386900000002,176.5934341125,64.0,77.0
713,175.65213000000003,176.6086515,40.0,76.0
714,175.9129995,176.6086515,47.0,75.0
715,176.17386900000002,176.60973845625003,67.0,76.0
716,176.4347385,176.63039062500002,59.0,90.0
717,177.21734700000002,177.83691206250003,53.0,85.0
718,177.47821650000003,177.92169465,60.0,78.0
719,177.99995550000003,178.26734673750002,53.0,85.0
720,177.73908600000001,178.33582498125003,69.0,89.0
721,177.73908600000001,178.35104236875003,65.0,82.0
722,176.9564775,178.43691191250002,48.0,72.0
723,176.69560800000002,178.46843364375002,41.0,82.0
724,178.52169450000002,178.68799880625002,65.0,88.0
725,178.52169450000002,178.69234663125002,69.0,90.0
726,178.260825,178.74125966250003,60.0,92.0
727,179.04343350000002,179.3543029875,60.0,59.0
728,179.30430300000003,179.5586507625,48.0,42.0
729,178.782564,179.69669420625002,36.0,73.0
730,179.30430300000003,179.75973766875,67.0,90.0
731,179.30430300000003,179.76843331875003,64.0,88.0
732,179.56517250000002,179.81191156875002,60.0,86.0
733,179.82604200000003,180.36843316875002,38.0,85.0
734,180.0869115,180.4347375,45.0,76.0
735,180.47821575000003,180.79452001875,57.0,69.0
736,180.34778100000003,180.87060695625001,62.0,79.0
737,180.34778100000003,180.91082433750003,66.0,82.0
738,181.39125900000002,181.856476275,55.0,81.0
739,181.1303895,182.05865013750002,50.0,72.0
740,181.65212850000003,182.34669354375,59.0,72.0
741,180.86952000000002,182.88038906250003,43.0,68.0
742,182.17386750000003,182.94343252500002,50.0,71.0
743,182.69560650000003,182.956476,59.0,72.0
744,182.434737,182.956476,62.0,88.0
745,181.91299800000002,182.956476,67.0,97.0
746,182.956476,183.59669323125001,65.0,88.0
747,182.956476,183.5977801875,67.0,90.0
748,182.956476,183.61191061875002,71.0,92.0
749,183.478215,183.74125841250003,53.0,83.0
750,183.21734550000002,183.8021279625,48.0,47.0
751,182.956476,183.81191056875002,41.0,78.0
752,183.73908450000002,183.90430185000002,67.0,93.0
753,183.73908450000002,183.90756271875003,65.0,81.0
754,183.73908450000002,183.90864967500002,71.0,90.0
755,184.52169300000003,184.7021277375,62.0,85.0
756,184.52169300000003,184.8521277,50.0,96.0
757,184.26082350000001,185.04995373750003,45.0,42.0
758,184.52169300000003,185.05864938750003,66.0,83.0
759,183.99995400000003,185.06951895000003,38.0,88.0
760,184.52169300000003,185.10321459375,69.0,73.0
761,185.56517100000002,185.926040475,55.0,78.0
762,185.3043015,186.20538823125003,50.0,65.0
763,185.82604050000003,186.47169251250003,62.0,73.0
764,186.34777950000003,186.51951858750002,50.0,47.0
765,185.04343200000002,186.52277945625002,43.0,88.0
766,186.608649,187.12060539375003,67.0,73.0
767,186.08691000000002,187.12060539375003,71.0,97.0
768,187.26082275000002,187.34451838125003,62.0,30.0
769,187.39125750000002,187.53582268125,62.0,93.0
770,187.652127,188.52930069375003,50.0,60.0
771,187.91299650000002,188.72603977500003,57.0,60.0
772,187.130388,188.7369093375,38.0,67.0
773,187.39125750000002,188.79017019375001,45.0,37.0
774,188.69560500000003,189.23256138750003,62.0,67.0
775,188.17386600000003,189.26843094375002,66.0,107.0
776,189.21734400000003,190.58364800625003,40.0,61.0
777,189.73908300000002,190.67277841875003,47.0,51.0
778,190.26082200000002,190.75321318125003,52.0,61.0
779,190.78256100000002,191.3043,59.0,76.0
780,190.52169150000003,191.3043,64.0,66.0
781,190.26082200000002,191.3043,67.0,90.0
782,191.56516950000002,192.02821286250003,54.0,64.0
783,192.08690850000002,192.4977779625,54.0,63.0
784,191.3043,192.72821268750002,47.0,86.0
785,191.826039,192.88473438750003,59.0,66.0
786,192.34777800000003,193.38690817500003,66.0,100.0
787,192.86951700000003,193.40429947500002,62.0,82.0
788,193.6521255,194.6021252625,43.0,41.0
789,193.91299500000002,194.62495134375,48.0,66.0
790,193.39125600000003,194.6325600375,36.0,66.0
791,194.1738645,194.99886429375002,55.0,79.0
792,194.95647300000002,195.42712505625002,60.0,61.0
793,194.43473400000002,195.43908157500002,64.0,93.0
794,195.73908150000003,195.98799448125,54.0,78.0
795,195.478212,196.06625533125003,47.0,74.0
796,195.999951,196.53364651875003,66.0,93.0
797,196.39125525000003,196.99560292500001,40.0,69.0
798,196.78255950000002,197.15647245000002,47.0,65.0
799,197.30429850000002,197.59777668750002,64.0,70.0
800,197.04342900000003,197.61408103125,67.0,89.0
801,198.3477765,198.67821120000002,60.0,76.0
802,198.08690700000002,198.72168945,57.0,66.0
803,197.8260375,198.72821118750002,52.0,63.0
804,198.86951550000003,199.02712415625,52.0,53.0
805,197.56516800000003,199.09234153125,45.0,69.0
806,199.39125450000003,199.58147184375002,57.0,34.0
807,198.60864600000002,199.58799358125003,64.0,90.0
808,199.13038500000002,199.60103705625002,60.0,83.0
809,200.173863,200.77494980625002,50.0,85.0
810,200.43473250000002,200.79451501875002,57.0,79.0
811,199.65212400000001,201.19125405000003,38.0,73.0
812,199.91299350000003,201.23364534375003,45.0,55.0
813,200.695602,201.33473227500002,62.0,100.0
814,200.95647150000002,201.56842786875004,50.0,95.0
815,201.21734100000003,201.61842785625,57.0,112.0
816,201.47821050000002,201.69668870625003,62.0,102.0
817,200.695602,201.73473217500003,66.0,127.0
818,202.26081900000003,202.586905875,55.0,112.0
819,201.86951475000004,202.81625364375003,50.0,99.0
820,202.5216885,203.143427475,62.0,96.0
821,203.04342750000004,203.22060136875,50.0,96.0
822,201.73908000000003,203.2629926625,43.0,96.0
823,203.30429700000002,203.76734036250002,67.0,102.0
824,202.78255800000002,203.77386210000003,71.0,117.0
825,203.56516650000003,203.83147078125003,62.0,107.0
826,204.347775,204.95538354375003,50.0,86.0
827,204.60864450000003,205.26516607500002,57.0,93.0
828,205.13038350000002,205.29886171875003,50.0,92.0
829,203.82603600000002,205.57494860625002,38.0,83.0
830,205.26081825000003,205.80212246250002,62.0,95.0
831,204.08690550000003,205.8847311375,45.0,85.0
832,204.869514,205.91733982500003,66.0,117.0
833,205.65212250000002,205.93799199375002,57.0,81.0
834,206.43473100000003,207.06299171250004,52.0,90.0
835,205.91299200000003,207.31081773750003,40.0,77.0
836,206.17386150000002,207.35864381250002,47.0,69.0
837,206.6956005,207.42820901250002,59.0,74.0
838,207.2173395,207.44016553125002,52.0,62.0
839,207.47820900000002,207.88799150625002,64.0,93.0
840,206.95647000000002,207.92277410625002,67.0,107.0
841,207.73907850000003,208.02494799375003,59.0,96.0
842,208.78255650000003,209.04668686875002,62.0,95.0
843,208.26081750000003,209.1629911875,54.0,92.0
844,208.52168700000001,209.23907812500002,59.0,72.0
845,209.30429550000002,209.46299111250002,54.0,75.0
846,207.99994800000002,209.49233893125003,47.0,73.0
847,209.043426,210.00429532500002,66.0,122.0
848,209.56516500000004,210.03038227500002,62.0,96.0
849,209.82603450000002,210.09125182500003,59.0,86.0
850,210.60864300000003,211.26190370625002,48.0,88.0
851,210.8695125,211.526034075,55.0,86.0
852,210.08690400000003,211.5303819,36.0,82.0
853,210.34777350000002,211.55646885000002,43.0,74.0
854,211.3912515,211.61842535625001,48.0,82.0
855,211.91299050000003,212.15429478750002,55.0,82.0
856,211.13038200000003,212.15429478750002,64.0,100.0
857,211.65212100000002,212.15864261250002,60.0,89.0
858,212.43472950000003,212.76081637500002,54.0,90.0
859,212.17386000000002,212.83364244375002,47.0,82.0
860,212.69559900000002,213.19451191875,62.0,82.0
861,212.69559900000002,213.20103365625002,66.0,107.0
862,212.95646850000003,213.24125103750004,59.0,88.0
863,213.217338,214.10320734375003,40.0,82.0
864,213.47820750000002,214.13038125000003,47.0,89.0
865,213.73907700000004,214.13690298750004,52.0,76.0
866,213.73907700000004,214.16298993750002,64.0,82.0
867,213.73907700000004,214.17168558750004,67.0,77.0
868,213.99994650000002,214.17929428125004,59.0,86.0
869,215.04342450000001,215.41190266875003,60.0,82.0
870,214.78255500000003,215.41951136250003,53.0,83.0
871,215.5651635,215.78255475000003,53.0,76.0
872,214.52168550000002,215.86625038125,48.0,83.0
873,215.30429400000003,215.93146775625002,65.0,86.0
874,214.26081600000003,215.95211992500003,41.0,88.0
875,215.30429400000003,216.27385897500002,69.0,95.0
876,216.08690250000004,216.27494593125002,65.0,67.0
877,215.82603300000002,216.31190244375003,60.0,93.0
878,216.86951100000002,217.25429351250003,48.0,88.0
879,216.34777200000002,217.26951090000003,36.0,71.0
880,216.60864150000003,217.36842391875,43.0,77.0
881,217.13038050000003,217.38472826250003,64.0,81.0
882,217.13038050000003,217.39233695625003,67.0,82.0
883,217.39125,218.012988975,38.0,81.0
884,217.65211950000003,218.03798896875003,45.0,96.0
885,217.912989,218.42277148125,62.0,83.0
886,217.912989,218.44885843125002,66.0,81.0
887,218.82603225000003,219.28037996250004,55.0,77.0
888,218.69559750000002,219.61081466250002,50.0,47.0
889,219.21733650000002,219.64559726250002,59.0,66.0
890,219.7390755,220.465162275,50.0,58.0
891,219.99994500000003,220.48581444375003,59.0,70.0
892,219.47820600000003,220.51407530625002,62.0,93.0
893,220.26081450000004,220.54233616875,55.0,77.0
894,218.43472800000004,220.55103181875003,43.0,72.0
895,221.04342300000002,221.65537936875003,50.0,81.0
896,221.30429250000003,221.92929234375003,57.0,71.0
897,221.82603150000003,221.98364015625003,50.0,76.0
898,220.52168400000002,222.23798791875004,38.0,89.0
899,221.56516200000002,222.33472702500003,66.0,117.0
900,220.78255350000003,222.53146610625004,45.0,82.0
901,222.086901,222.57385740000004,62.0,93.0
902,222.34777050000002,222.61407478125003,57.0,81.0
903,223.13037900000003,223.60537888125003,52.0,93.0
904,222.86950950000002,223.79233535625002,47.0,89.0
905,223.39124850000002,223.87277011875003,59.0,88.0
906,223.9129875,224.06733528750001,47.0,88.0
907,222.60864000000004,224.09342223750002,40.0,81.0
908,223.65211800000003,224.49233518125,67.0,99.0
909,224.17385700000003,224.52385691250004,64.0,90.0
910,224.4347265,224.62276993125002,59.0,90.0
911,224.69559600000002,225.29885671875002,36.0,72.0
912,224.95646550000004,225.55646535000002,55.0,69.0
913,225.21733500000002,225.74233486875002,64.0,96.0
914,225.47820450000003,225.74994356250002,60.0,89.0
915,225.73907400000002,226.33689993750002,38.0,71.0
916,225.99994350000003,226.37059558125003,45.0,96.0
917,226.52168250000003,226.79342156250001,57.0,69.0
918,226.260813,226.80103025625002,62.0,75.0
919,226.260813,226.82929111875004,66.0,72.0
920,227.30429100000003,227.69016046875004,55.0,66.0
921,227.56516050000002,227.92929084375004,62.0,88.0
922,227.04342150000002,227.96842126875003,50.0,72.0
923,227.82603000000003,228.50972548125003,67.0,75.0
924,227.82603000000003,228.52059504375003,71.0,92.0
925,226.78255200000004,228.74885585625003,43.0,66.0
926,228.08689950000002,228.86950800000002,50.0,71.0
927,228.34776900000003,228.86950800000002,62.0,93.0
928,228.6086385,228.86950800000002,67.0,85.0
929,228.6086385,228.86950800000002,71.0,95.0
930,229.39124700000002,230.01081206250004,50.0,83.0
931,229.65211650000003,230.21407288125002,57.0,95.0
932,230.17385550000003,230.46842064375002,50.0,81.0
933,228.86950800000002,230.61189886875002,38.0,89.0
934,229.13037750000004,230.81515968750003,45.0,81.0
935,229.91298600000002,230.85646402500004,66.0,122.0
936,230.69559450000003,230.86842054375003,57.0,96.0
937,230.43472500000001,230.87168141250004,62.0,92.0
938,231.47820300000004,231.86407246875004,52.0,92.0
939,231.21733350000002,232.12494196875002,47.0,85.0
940,231.73907250000002,232.33146365625004,59.0,83.0
941,232.26081150000002,232.39776798750003,47.0,65.0
942,230.956464,232.44668101875,40.0,85.0
943,231.99994200000003,232.87928960625,67.0,107.0
944,232.65211575000004,232.89450699375,59.0,93.0
945,232.52168100000003,232.91624611875002,64.0,96.0
946,233.56515900000002,233.8021154625,48.0,89.0
947,233.04342000000003,233.96407194375,36.0,73.0
948,233.82602850000004,234.07276756875004,64.0,93.0
949,233.30428950000004,234.08255017500002,43.0,51.0
950,233.95646325,235.44705194375004,57.0,58.0
951,234.08689800000002,235.50823606250003,62.0,70.0
952,234.08689800000002,235.50889395625003,50.0,47.0
953,234.08689800000002,235.50955185000004,45.0,49.0
954,234.08689800000002,235.51481500000003,66.0,78.0
955,234.08689800000002,235.51876236250004,38.0,57.0
956,235.70703450000005,235.97768660625005,62.0,68.0
957,235.96790400000003,235.97768660625005,62.0,54.0
958,235.96790400000003,236.25051262500003,67.0,56.0
959,235.70703450000005,236.62007775000004,50.0,59.0
960,236.22877350000005,236.92877332500004,55.0,59.0
961,235.96790400000003,236.94290375625005,59.0,58.0
962,236.75051250000004,237.05268633750003,57.0,49.0
963,236.75051250000004,237.13094718750003,50.0,59.0
964,235.51481500000003,237.16790370000004,43.0,76.0
965,237.01138200000003,237.32225148750004,62.0,63.0
966,237.01138200000003,237.32225148750004,62.0,73.0
967,236.22877350000005,237.32986018125004,69.0,81.0
968,237.27225150000004,237.53312100000002,55.0,40.0
969,237.01138200000003,237.57442533750003,59.0,72.0
970,237.27225150000004,237.84942526875002,67.0,74.0
971,237.79399050000004,237.99507740625003,57.0,74.0
972,237.79399050000004,238.35920775000002,54.0,39.0
973,238.05486000000005,238.37225122500004,62.0,81.0
974,238.05486000000005,238.37225122500004,62.0,83.0
975,238.70703375000002,238.94725108125004,54.0,38.0
976,238.31572950000003,239.05268583750004,69.0,89.0
977,238.83746850000003,239.14833798750004,57.0,63.0
978,238.31572950000003,239.16790320000004,59.0,61.0
979,237.53312100000002,239.17116406875004,42.0,82.0
980,239.09833800000004,239.40377270625004,62.0,72.0
981,239.09833800000004,239.40377270625004,62.0,75.0
982,239.35920750000002,239.65159873125003,59.0,55.0
983,239.35920750000002,240.02768559375005,67.0,78.0
984,239.88094650000005,240.14398991250005,60.0,81.0
985,240.14181600000003,240.14398991250005,60.0,65.0
986,240.14181600000003,240.53094633750004,62.0,68.0
987,240.40268550000005,240.63203326875004,69.0,81.0
988,239.88094650000005,240.69725064375004,48.0,59.0
989,240.92442450000004,241.05485925000005,60.0,76.0
990,241.18529400000003,241.20485921250003,60.0,85.0
991,240.40268550000005,241.24507659375004,57.0,70.0
992,240.66355500000003,241.24833746250005,67.0,74.0
993,240.92442450000004,241.27225050000004,48.0,54.0
994,239.62007700000004,241.34616352500004,41.0,66.0
995,241.18529400000003,241.45159828125003,62.0,77.0
996,241.44616350000004,241.67659822500005,57.0,64.0
997,241.44616350000004,241.92333729375002,67.0,85.0
998,241.96790250000004,242.18311983750004,55.0,78.0
999,242.22877200000005,242.53746757500002,60.0,77.0
1000,241.70703300000002,242.63420668125005,40.0,72.0
1001,242.48964150000003,242.65159798125003,55.0,57.0
1002,242.22877200000005,242.65920667500004,59.0,73.0
1003,241.96790250000004,242.67877188750003,47.0,53.0
1004,242.48964150000003,243.00268485000004,62.0,77.0
1005,243.01138050000003,243.29072825625005,60.0,69.0
1006,242.75051100000005,243.62877165000003,41.0,81.0
1007,243.01138050000003,243.71898901875005,48.0,53.0
1008,243.27225000000004,243.74398901250004,53.0,75.0
1009,243.53311950000003,243.79181508750003,60.0,90.0
1010,243.27225000000004,244.04616285000003,67.0,88.0
1011,244.05485850000002,244.32551060625005,62.0,68.0
1012,244.31572800000004,244.32551060625005,62.0,88.0
1013,244.31572800000004,244.59833662500003,67.0,56.0
1014,244.05485850000002,244.87224960000003,50.0,56.0
1015,243.79398900000004,245.32116253125002,43.0,69.0
1016,245.09833650000004,245.39398860000003,50.0,55.0
1017,245.09833650000004,245.40051033750004,57.0,49.0
1018,244.57659750000005,245.42007555000004,59.0,75.0
1019,245.35920600000003,245.67007548750004,62.0,63.0
1020,245.35920600000003,245.67007548750004,62.0,83.0
1021,244.57659750000005,245.67768418125004,69.0,81.0
1022,245.62007550000004,246.19724926875003,67.0,74.0
1023,246.14181450000004,246.34290140625004,57.0,74.0
1024,246.14181450000004,246.41029269375002,55.0,52.0
1025,246.40268400000002,246.72007522500004,62.0,83.0
1026,246.40268400000002,246.72007522500004,62.0,90.0
1027,245.88094500000003,247.03203166875005,42.0,65.0
1028,246.66355350000003,247.40050983750004,69.0,89.0
1029,246.66355350000003,247.44398808750003,59.0,63.0
1030,247.18529250000003,247.49616198750005,57.0,63.0
1031,247.18529250000003,247.57116196875003,42.0,50.0
1032,247.44616200000004,247.75159670625004,62.0,72.0
1033,247.44616200000004,247.75159670625004,62.0,89.0
1034,247.70703150000003,247.91790101250004,59.0,64.0
1035,247.70703150000003,248.37550959375002,67.0,78.0
1036,248.22877050000002,248.49181391250005,60.0,81.0
1037,248.48964000000004,248.49181391250005,60.0,88.0
1038,248.48964000000004,248.87877033750004,62.0,68.0
1039,248.75050950000005,248.97985726875004,69.0,81.0
1040,248.22877050000002,249.03963986250002,48.0,55.0
1041,249.27224850000005,249.52768321875004,48.0,41.0
1042,249.27224850000005,249.55268321250003,60.0,76.0
1043,247.96790100000004,249.58203103125004,41.0,65.0
1044,249.01137900000003,249.59616146250005,67.0,74.0
1045,249.53311800000003,249.79942228125003,62.0,77.0
1046,248.75050950000005,249.85159618125004,57.0,73.0
1047,249.53311800000003,249.90703095000003,53.0,68.0
1048,249.79398750000004,250.27116129375003,67.0,85.0
1049,250.06029178125004,250.27116129375003,67.0,60.0
1050,249.84833531250004,250.74507421875003,39.0,32.0
1051,249.91246573125002,250.76898725625003,51.0,42.0
1052,250.09724829375003,250.80268290000004,70.0,85.0
1053,249.89181356250003,250.83529158750002,62.0,61.0
1054,249.96029180625004,250.96463938125004,63.0,67.0
1055,251.00703067500004,251.76463918125003,41.0,37.0
1056,251.10920456250003,252.17007386250003,65.0,55.0
1057,251.18855236875004,252.17876951250003,69.0,66.0
1058,251.00159589375005,252.26681296875003,60.0,72.0
1059,252.44398683750003,256.66246404375005,55.0,65.0
1060,252.38420424375005,256.66789882500007,50.0,33.0
1061,252.21137820000004,256.67224665000003,43.0,38.0
1062,252.48203030625004,256.728768375,62.0,41.0
1063,252.58094332500002,256.75159445625,67.0,44.0
1064,252.66572591250002,256.75376836875006,71.0,75.0
