,start,end,pitch,velocity
0,15.760065410416665,15.905226560416665,73.0,104.0
1,16.243935910416667,16.429419602083332,73.0,108.0
2,16.485871160416664,16.691516122916667,75.0,114.0
3,16.727806410416665,17.048370616666666,77.0,117.0
4,17.211676910416667,17.403208983333332,77.0,114.0
5,17.453612160416665,17.68143452083333,75.0,113.0
6,17.695547410416665,18.14514375,73.0,114.0
7,18.179417910416667,18.653207775,70.0,117.0
8,18.663288410416666,19.056433191666667,68.0,116.0
9,19.631029410416666,20.1653030875,73.0,113.0
10,20.356835160416665,20.51006081875,75.0,110.0
11,20.598770410416666,20.999979699999997,77.0,116.0
12,21.082640910416664,21.292318127083334,75.0,113.0
13,21.324576160416665,21.50199534375,73.0,114.0
14,21.566511410416666,21.96973682708333,75.0,120.0
15,23.501993410416667,23.786267329166666,73.0,110.0
16,23.985863910416665,24.185460491666664,73.0,110.0
17,24.227799160416666,24.39312158125,75.0,114.0
18,24.469734410416667,24.751992202083333,77.0,114.0
19,24.953604910416665,25.14312085625,77.0,116.0
20,25.195540160416666,25.39312061458333,75.0,113.0
21,25.437475410416667,25.747958981249997,77.0,114.0
22,25.921345910416665,26.122958618749998,75.0,114.0
23,26.163281160416666,26.36489386875,73.0,102.0
24,26.405216410416664,26.754006395833333,70.0,116.0
25,27.131022160416666,27.286263945833333,70.0,114.0
26,27.372957410416664,27.64715069375,75.0,119.0
27,28.098763160416667,28.330617774999997,73.0,114.0
28,28.340698410416664,28.649165854166665,70.0,117.0
29,28.582633660416665,28.818520529166666,73.0,86.0
30,28.824568910416666,29.28021363125,70.0,113.0
31,29.308439410416664,29.774164766666665,68.0,117.0
32,31.243921410416664,31.548356599999998,68.0,116.0
33,31.727791910416666,31.975775541666664,68.0,110.0
34,31.969727160416664,32.12295281875,70.0,107.0
35,32.211662410416665,32.50601696458333,73.0,117.0
36,32.69553291041667,33.03021000625,73.0,113.0
37,33.17940341041667,33.501983743749996,75.0,116.0
38,33.66327391041666,33.935451066666666,75.0,113.0
39,33.90520916041667,34.13907990208333,73.0,100.0
40,34.147144410416665,34.50803115833333,70.0,116.0
41,35.11488541041666,35.77819122083333,73.0,116.0
42,35.84069116041667,36.04230386875,77.0,117.0
43,36.082626410416665,36.362868075,75.0,117.0
44,36.808432160416665,36.92133527708333,73.0,113.0
45,37.05036741041666,37.413270285416665,75.0,117.0
46,37.534237910416664,37.766092525,70.0,98.0
47,37.77617316041666,38.074559968749995,68.0,102.0
48,38.018108410416666,38.29431782083333,70.0,119.0
49,38.98584941041666,39.459639275,68.0,117.0
50,39.71165516041666,39.84068729375,70.0,113.0
51,39.953590410416666,40.21165467708333,73.0,119.0
52,40.43746091041667,40.66326714375,75.0,114.0
53,40.679396160416665,40.82052505625,77.0,114.0
54,40.92133141041666,41.15520215208333,80.0,117.0
55,41.405201910416665,41.733830624999996,77.0,113.0
56,41.88907241041667,42.09471737291666,73.0,114.0
57,42.131007660416664,42.25197528541666,75.0,92.0
58,42.25197528541666,42.34874938541667,73.0,104.0
59,42.37294291041666,42.6652813375,70.0,117.0
60,42.85681341041666,43.41326448541666,70.0,107.0
61,43.58261916041666,43.695522277083334,75.0,108.0
62,43.82455441041667,44.026167118749996,75.0,117.0
63,44.30842491041666,44.52415050833333,73.0,116.0
64,44.550360160416666,44.78826315625,70.0,113.0
65,44.79229541041666,45.22576273333333,68.0,117.0
66,46.727777410416664,46.842696654166666,80.0,120.0
67,46.96971266041666,47.21769629166666,80.0,120.0
68,47.45358316041666,47.540276625,80.0,120.0
69,47.69551841041667,47.937453660416665,80.0,120.0
70,48.17938891041666,48.34874358541666,77.0,119.0
71,48.42132416041667,48.54632403958333,80.0,117.0
72,48.663259410416664,48.86285599166666,82.0,120.0
73,49.38906516041666,49.475758625,82.0,116.0
74,49.63100041041666,49.848742135416664,82.0,117.0
75,49.872935660416665,50.110838656249996,80.0,116.0
76,50.11487091041666,50.38503193958333,77.0,117.0
77,50.598741410416665,50.72374128958333,82.0,119.0
78,50.84067666041666,50.955595904166664,82.0,117.0
79,51.08261191041667,51.18745051875,82.0,116.0
80,51.324547160416664,51.42535351458333,82.0,116.0
81,51.56648241041666,51.784224135416665,82.0,120.0
82,52.05035291041666,52.255997872916666,80.0,114.0
83,52.29228816041666,52.41728803958333,77.0,98.0
84,52.534223410416665,52.971722987499994,77.0,107.0
85,53.01809391041667,53.43946447083333,75.0,108.0
86,54.469705410416665,54.78018898125,82.0,119.0
87,54.95357591041667,55.11284995,80.0,116.0
88,55.195511160416665,55.38502710625,82.0,116.0
89,55.43744641041666,55.711639693749994,80.0,120.0
90,55.921316910416664,56.40115515625,77.0,116.0
91,56.405187410416666,56.709622599999996,75.0,119.0
92,56.88905791041666,57.14913830416666,75.0,113.0
93,57.130993160416665,57.366880029166666,73.0,104.0
94,57.37292841041666,57.61486366041667,70.0,116.0
95,57.61486366041667,57.842686020833334,73.0,114.0
96,57.856798910416664,58.10881479583333,70.0,116.0
97,58.340669410416666,58.44147576458333,75.0,117.0
98,58.58260466041666,58.6813948875,75.0,110.0
99,58.82453991041666,58.963652679166664,75.0,113.0
100,59.066475160416665,59.27413625,77.0,116.0
101,59.30841041041666,59.50599086458333,75.0,117.0
102,59.792280910416665,60.01405488958333,73.0,116.0
103,60.03421616041666,60.28824817291666,70.0,108.0
104,60.27615141041667,60.711634860416666,68.0,110.0
105,77.75597322291667,77.90113437291666,73.0,104.0
106,78.23984372291666,78.42532741458334,73.0,108.0
107,78.48177897291666,78.68742393541666,75.0,114.0
108,78.72371422291667,79.04427842916667,77.0,117.0
109,79.20758472291666,79.39911679583332,77.0,114.0
110,79.44951997291666,79.67734233333333,75.0,113.0
111,79.69145522291666,80.1410515625,73.0,114.0
112,80.17532572291667,80.64911558749999,70.0,117.0
113,80.65919622291666,81.05234100416666,68.0,116.0
114,81.62693722291667,82.1612109,73.0,113.0
115,82.35274297291666,82.50596863125,75.0,110.0
116,82.59467822291666,82.99588751249999,77.0,116.0
117,83.07854872291666,83.28822593958333,75.0,113.0
118,83.32048397291666,83.49790315624999,73.0,114.0
119,83.56241922291666,83.96564463958333,75.0,120.0
120,85.49790122291667,85.78217514166666,73.0,110.0
121,85.98177172291666,86.18136830416667,73.0,110.0
122,86.22370697291666,86.38902939375,75.0,114.0
123,86.46564222291666,86.74790001458332,77.0,114.0
124,86.94951272291667,87.13902866875,77.0,116.0
125,87.19144797291666,87.38902842708333,75.0,113.0
126,87.43338322291666,87.74386679375,77.0,114.0
127,87.91725372291666,88.11886643125,75.0,114.0
128,88.15918897291667,88.36080168125,73.0,102.0
129,88.40112422291666,88.74991420833332,70.0,116.0
130,89.12692997291666,89.28217175833333,70.0,114.0
131,89.36886522291667,89.64305850625,75.0,119.0
132,90.09467097291666,90.3265255875,73.0,114.0
133,90.33660622291666,90.64507366666666,70.0,117.0
134,90.57854147291667,90.81442834166666,73.0,86.0
135,90.82047672291667,91.27612144375,70.0,113.0
136,91.30434722291666,91.77007257916667,68.0,117.0
137,93.23982922291667,93.5442644125,68.0,116.0
138,93.72369972291666,93.97168335416666,68.0,110.0
139,93.96563497291666,94.11886063125,70.0,107.0
140,94.20757022291666,94.50192477708333,73.0,117.0
141,94.69144072291667,95.02611781875,73.0,113.0
142,95.17531122291666,95.49789155625,75.0,116.0
143,95.65918172291666,95.93135887916667,75.0,113.0
144,95.90111697291667,96.13498771458333,73.0,100.0
145,96.14305222291667,96.50393897083333,70.0,116.0
146,97.11079322291666,97.77409903333333,73.0,116.0
147,97.83659897291666,98.03821168124999,77.0,117.0
148,98.07853422291666,98.35877588749999,75.0,117.0
149,98.80433997291667,98.91724308958332,73.0,113.0
150,99.04627522291666,99.40917809791667,75.0,117.0
151,99.53014572291666,99.7620003375,70.0,98.0
152,99.77208097291665,100.07046778124999,68.0,102.0
153,100.01401622291667,100.29022563333332,70.0,119.0
154,100.98175722291666,101.4555470875,68.0,117.0
155,101.70756297291666,101.83659510625,70.0,113.0
156,101.94949822291666,102.20756248958332,73.0,119.0
157,102.43336872291665,102.65917495625,75.0,114.0
158,102.67530397291667,102.81643286875,77.0,114.0
159,102.91723922291666,103.15110996458333,80.0,117.0
160,103.40110972291666,103.72973843749999,77.0,113.0
161,103.88498022291667,104.09062518541666,73.0,114.0
162,104.12691547291666,104.24788309791666,75.0,92.0
163,104.36885072291666,104.46562482291667,73.0,104.0
164,104.36885072291666,104.66118915,70.0,117.0
165,104.85272122291666,105.40917229791665,70.0,107.0
166,105.57852697291666,105.69143008958332,75.0,108.0
167,105.82046222291666,106.02207493124999,75.0,117.0
168,106.30433272291666,106.52005832083333,73.0,116.0
169,106.54626797291667,106.78417096874999,70.0,113.0
170,106.78820322291666,107.22167054583333,68.0,117.0
171,108.72368522291666,108.83860446666667,80.0,120.0
172,108.96562047291665,109.21360410416666,80.0,120.0
173,109.44949097291666,109.5361844375,80.0,120.0
174,109.69142622291666,109.93336147291666,80.0,120.0
175,110.17529672291666,110.34465139791666,77.0,119.0
176,110.41723197291667,110.54223185208333,80.0,117.0
177,110.65916722291666,110.85876380416666,82.0,120.0
178,111.38497297291666,111.47166643749999,82.0,116.0
179,111.62690822291665,111.84464994791666,82.0,117.0
180,111.86884347291667,112.10674646874999,80.0,116.0
181,112.11077872291666,112.38093975208332,77.0,117.0
182,112.59464922291666,112.71964910208332,82.0,119.0
183,112.83658447291666,112.95150371666666,82.0,117.0
184,113.07851972291667,113.18335833124999,82.0,116.0
185,113.32045497291666,113.42126132708333,82.0,116.0
186,113.56239022291666,113.78013194791666,82.0,120.0
187,114.04626072291666,114.25190568541666,80.0,114.0
188,114.28819597291665,114.41319585208333,77.0,98.0
189,114.53013122291667,114.9676308,77.0,107.0
190,115.01400172291666,115.43537228333332,75.0,108.0
191,116.46561322291666,116.77609679375,82.0,119.0
192,116.94948372291665,117.10875776249999,80.0,116.0
193,117.19141897291667,117.38093491875,82.0,116.0
194,117.43335422291666,117.70754750625,80.0,120.0
195,117.91722472291666,118.39706296874999,77.0,116.0
196,118.40109522291667,118.7055304125,75.0,119.0
197,118.88496572291666,119.14504611666666,75.0,113.0
198,119.12690097291666,119.36278784166666,73.0,104.0
199,119.36883622291666,119.61077147291667,70.0,116.0
200,119.61077147291667,119.83859383333332,73.0,114.0
201,119.85270672291666,120.10472260833333,70.0,116.0
202,120.33657722291666,120.43738357708332,75.0,117.0
203,120.57851247291666,120.6773027,75.0,110.0
204,120.82044772291665,120.95956049166666,75.0,113.0
205,121.06238297291667,121.27004406249999,77.0,116.0
206,121.30431822291666,121.50189867708333,75.0,117.0
207,121.78818872291666,122.00996270208333,73.0,116.0
208,122.03012397291666,122.28415598541666,70.0,108.0
209,122.27205922291667,122.70754267291666,68.0,110.0
210,124.20754122291666,124.54020219166667,82.0,117.0
211,124.69141172291665,124.84463738125,80.0,117.0
212,124.93334697291667,125.08455650416666,82.0,116.0
213,125.17528222291666,125.43536261666667,80.0,119.0
214,125.65915272291666,126.00794270833333,77.0,116.0
215,126.14302322291665,126.38697459999999,75.0,119.0
216,126.62689372291666,126.83858706666666,75.0,116.0
217,126.86882897291666,127.02205463124999,73.0,110.0
218,127.11076422291666,127.40915103124999,73.0,119.0
219,127.59463472291667,127.87084413333332,70.0,119.0
220,128.07850522291665,128.36277914166666,75.0,117.0
221,128.56237572291667,128.65713369583332,75.0,119.0
222,128.80431097291665,128.90310119999998,75.0,117.0
223,129.04624622291666,129.24785893125,75.0,120.0
224,129.53011672291666,129.943422775,73.0,119.0
225,130.01398722291665,130.8889863770833,70.0,117.0
226,131.94946922291666,132.82850063125,80.0,123.0
