,start,end,pitch,velocity
0,0.27620941041666663,0.6370961583333333,73.0,87.0
1,0.27620941041666663,1.13104729375,65.0,74.0
2,1.2439504104166665,1.5846758875,63.0,87.0
3,1.0020151604166667,1.7278209104166666,61.0,81.0
4,0.7600799104166667,1.76007894375,56.0,42.0
5,0.27620941041666663,1.7762079604166665,49.0,83.0
6,1.4858856604166666,1.7923369770833333,65.0,77.0
7,1.7278209104166666,2.2358849354166663,68.0,96.0
8,2.2116914104166665,2.5383039979166666,70.0,91.0
9,2.2116914104166665,3.1068518354166663,61.0,86.0
10,2.6955619104166666,3.65927065625,53.0,40.0
11,2.9374971604166666,3.6713674187499996,58.0,76.0
12,2.2116914104166665,3.6975770708333333,46.0,81.0
13,3.1794324104166667,3.7600770104166665,60.0,91.0
14,3.6633029104166663,3.9717703541666665,61.0,83.0
15,3.9052381604166664,4.657253562499999,58.0,81.0
16,4.147173410416666,4.717737375,61.0,81.0
17,4.147173410416666,4.816527602083333,66.0,96.0
18,4.147173410416666,5.084672504166666,42.0,81.0
19,5.114914410416667,5.586688147916666,41.0,82.0
20,5.114914410416667,5.804429872916667,68.0,92.0
21,5.114914410416667,6.15120373125,58.0,76.0
22,6.082655410416666,6.15120373125,58.0,65.0
23,5.114914410416667,6.266122975,62.0,78.0
24,6.082655410416666,6.5826549270833326,63.0,85.0
25,6.082655410416666,6.731848331249999,66.0,86.0
26,6.808461160416666,7.090718952083333,65.0,84.0
27,7.050396410416666,7.423379920833333,66.0,89.0
28,6.566525910416666,7.526202402083333,58.0,38.0
29,6.082655410416666,7.588702341666666,51.0,82.0
30,8.018137410416665,8.60684651875,68.0,86.0
31,8.018137410416665,8.659265822916666,63.0,84.0
32,8.502007910416665,9.262087820833333,56.0,65.0
33,8.985878410416666,9.30845874375,61.0,81.0
34,9.227813660416667,9.649184220833332,63.0,84.0
35,9.469748910416666,9.715716414583333,65.0,87.0
36,8.018137410416665,9.905232360416667,49.0,81.0
37,9.953619410416666,10.780231514583333,58.0,79.0
38,9.953619410416666,10.846763708333333,61.0,78.0
39,9.711684160416667,10.85684434375,68.0,88.0
40,10.921360410416666,11.336682589583333,58.0,82.0
41,10.921360410416666,11.487892120833333,61.0,82.0
42,10.921360410416666,11.520150154166666,68.0,86.0
43,11.405230910416666,11.721762862499999,60.0,86.0
44,9.953619410416666,11.915311062499999,46.0,74.0
45,11.889101410416666,12.022165797916665,66.0,74.0
46,11.889101410416666,12.82861663125,63.0,66.0
47,11.889101410416666,13.028213212499999,70.0,88.0
48,12.614907160416665,13.332648402083333,58.0,81.0
49,11.889101410416666,13.354825799999999,51.0,81.0
50,13.098777660416665,13.429422502083332,65.0,83.0
51,13.340712910416666,13.570551397916667,66.0,82.0
52,11.889101410416666,13.669341625,39.0,90.0
53,13.824583410416666,14.808453427083332,60.0,81.0
54,13.824583410416666,15.0120822625,63.0,84.0
55,13.582648160416666,15.310469070833333,70.0,87.0
56,15.034259660416666,15.36893675625,61.0,80.0
57,15.276194910416665,15.504017270833332,63.0,80.0
58,13.824583410416666,15.586678481249999,44.0,79.0
59,14.792324410416667,15.608855879166665,56.0,69.0
60,15.518130160416666,15.711678360416666,70.0,86.0
61,15.760065410416665,16.316516485416667,73.0,89.0
62,15.760065410416665,16.387080933333333,68.0,98.0
63,15.760065410416665,16.421355093749998,65.0,91.0
64,16.727806410416665,17.41328961875,73.0,89.0
65,16.727806410416665,17.47377343125,65.0,88.0
66,16.727806410416665,17.4798218125,68.0,96.0
67,17.695547410416665,18.354820966666665,73.0,84.0
68,17.695547410416665,18.358853220833332,68.0,90.0
69,17.695547410416665,18.405224143749997,65.0,86.0
70,15.760065410416665,18.97377198125,61.0,84.0
71,15.760065410416665,19.048368683333333,49.0,84.0
72,18.663288410416666,19.3427232375,73.0,88.0
73,18.663288410416666,19.3669167625,65.0,91.0
74,18.663288410416666,19.419336066666666,68.0,100.0
75,19.631029410416666,20.320544872916667,70.0,89.0
76,19.631029410416666,20.32860938125,73.0,85.0
77,19.631029410416666,20.33062550833333,65.0,86.0
78,19.631029410416666,21.112882816666666,58.0,84.0
79,20.598770410416666,21.213689170833334,65.0,89.0
80,20.598770410416666,21.32054390625,73.0,86.0
81,20.598770410416666,21.346753558333333,70.0,90.0
82,19.631029410416666,21.44352765833333,46.0,82.0
83,21.566511410416666,22.038285147916664,56.0,86.0
84,21.566511410416666,22.2217527125,44.0,88.0
85,21.566511410416666,22.346752591666665,68.0,88.0
86,21.566511410416666,22.36086548125,72.0,87.0
87,21.566511410416666,22.383042879166666,63.0,85.0
88,22.292317160416665,22.62901038333333,56.0,85.0
89,22.292317160416665,22.64110714583333,44.0,80.0
90,22.534252410416666,23.096751866666665,63.0,107.0
91,22.534252410416666,23.120945391666666,72.0,110.0
92,22.534252410416666,23.254009779166665,68.0,116.0
93,23.018122910416665,23.29231619375,44.0,82.0
94,23.018122910416665,23.370945149999997,56.0,80.0
95,23.501993410416667,24.23586366875,73.0,88.0
96,23.501993410416667,24.30844424375,68.0,91.0
97,23.501993410416667,24.322557133333333,65.0,89.0
98,23.501993410416667,24.780217981249997,49.0,91.0
99,24.953604910416665,25.1733627625,49.0,86.0
100,24.469734410416667,25.225782066666664,65.0,104.0
101,24.469734410416667,25.227798193749997,73.0,96.0
102,24.469734410416667,25.294330387499997,68.0,104.0
103,25.195540160416666,25.449572172916664,48.0,81.0
104,25.437475410416667,26.13102312708333,73.0,88.0
105,25.437475410416667,26.135055381249998,70.0,93.0
106,25.437475410416667,26.161265033333333,65.0,90.0
107,26.405216410416664,27.110860889583332,65.0,94.0
108,26.405216410416664,27.135054414583333,73.0,88.0
109,26.405216410416664,27.15319955833333,70.0,91.0
110,25.437475410416667,27.28424781875,46.0,86.0
111,27.372957410416664,28.008037441666666,72.0,88.0
112,27.372957410416664,28.072553508333332,70.0,91.0
113,27.372957410416664,28.157230845833332,66.0,98.0
114,27.372957410416664,28.175375989583333,63.0,91.0
115,27.372957410416664,28.84473018125,39.0,88.0
116,28.340698410416664,28.91731075625,70.0,89.0
117,28.340698410416664,28.967713933333332,66.0,104.0
118,28.340698410416664,29.17940727708333,63.0,94.0
119,27.372957410416664,29.197552420833333,51.0,91.0
120,29.308439410416664,30.026180652083333,63.0,90.0
121,29.308439410416664,30.05642255833333,68.0,89.0
122,29.308439410416664,30.06247093958333,60.0,86.0
123,29.308439410416664,30.713679987499997,44.0,85.0
124,30.518115660416665,30.74392189375,58.0,94.0
125,29.792309910416666,30.758034783333333,51.0,77.0
126,30.276180410416664,30.760050910416666,56.0,92.0
127,30.760050910416666,30.967712,60.0,96.0
128,31.001986160416664,31.1975504875,63.0,96.0
129,31.243921410416664,31.989888431249998,68.0,88.0
130,31.243921410416664,32.001985193749995,63.0,91.0
131,32.211662410416665,32.46569442291666,65.0,89.0
132,31.969727160416664,32.580613666666665,61.0,86.0
133,31.727791910416666,32.65319424166667,56.0,75.0
134,32.45359766041666,32.723758689583335,68.0,86.0
135,31.243921410416664,32.8910972375,49.0,83.0
136,32.69553291041667,32.927387525,65.0,87.0
137,32.937468160416664,33.11085508958333,63.0,87.0
138,33.17940341041667,33.89311239791667,61.0,86.0
139,34.147144410416665,34.570531097916664,61.0,84.0
140,33.17940341041667,34.65117618125,46.0,80.0
141,33.66327391041666,34.6814180875,53.0,65.0
142,34.38907966041666,34.8507727625,65.0,78.0
143,34.63101491041667,34.85480501666667,68.0,84.0
144,34.872950160416664,35.17738535,70.0,86.0
145,33.90520916041667,35.18544985833333,58.0,85.0
146,35.11488541041666,35.79028798333333,66.0,84.0
147,36.082626410416665,36.43141639583333,66.0,82.0
148,35.84069116041667,36.503996970833335,63.0,87.0
149,35.59875591041666,36.5685130375,58.0,78.0
150,35.11488541041666,36.68141615416666,51.0,78.0
151,36.32456166041666,36.78423863541666,75.0,90.0
152,36.56649691041667,36.820528922916665,73.0,86.0
153,36.808432160416665,37.10278671458333,70.0,85.0
154,38.018108410416666,38.253995279166666,68.0,79.0
155,38.018108410416666,38.27818880416667,63.0,87.0
156,38.26004366041666,38.350769379166664,65.0,85.0
157,38.50197891041667,38.79028508333333,65.0,81.0
158,38.743914160416665,39.01407518958333,68.0,81.0
159,37.534237910416664,39.10681703541666,56.0,68.0
160,37.77617316041666,39.45359089375,61.0,82.0
161,38.98584941041666,39.53020372291667,73.0,89.0
162,38.98584941041666,39.798348624999996,65.0,84.0
163,39.953590410416666,40.298348141666665,68.0,98.0
164,39.71165516041666,40.427380275,61.0,81.0
165,39.953590410416666,40.4636705625,63.0,94.0
166,39.469719910416664,40.626976856249996,56.0,68.0
167,40.43746091041667,40.717702575,65.0,88.0
168,37.05036741041666,40.76205737083333,49.0,83.0
169,40.679396160416665,41.1652827875,68.0,90.0
170,41.64713716041666,41.92536269791666,63.0,87.0
171,41.16326666041667,41.96770136666667,56.0,76.0
172,41.405201910416665,42.01810454375,61.0,85.0
173,41.88907241041667,42.33262036875,68.0,94.0
174,42.131007660416664,42.56044272916667,56.0,86.0
175,40.92133141041666,42.57455561875,49.0,83.0
176,42.37294291041666,42.643103939583334,63.0,88.0
177,42.614878160416666,42.75197480208333,65.0,91.0
178,42.85681341041666,43.340683910416665,42.0,104.0
179,42.85681341041666,43.50197407708333,66.0,116.0
180,42.85681341041666,43.52011922083333,61.0,104.0
181,42.85681341041666,43.669312624999996,70.0,107.0
182,43.82455441041667,44.37898935833333,43.0,86.0
183,43.82455441041667,44.393102247916666,55.0,87.0
184,43.82455441041667,44.41729577291667,70.0,107.0
185,43.82455441041667,44.459634441666665,67.0,113.0
186,43.82455441041667,44.56245692291667,63.0,102.0
187,44.550360160416666,45.2056014625,60.0,76.0
188,44.79229541041666,45.29834330833333,68.0,107.0
189,44.79229541041666,45.39310128125,63.0,85.0
190,45.51810116041666,45.77213317291666,58.0,107.0
191,45.276165910416665,45.82253635,56.0,108.0
192,45.76003641041667,46.11689090416667,60.0,108.0
193,44.79229541041666,46.27616494375,44.0,92.0
194,45.03423066041666,46.28624557916667,51.0,88.0
195,46.24390691041666,46.49793892291667,63.0,110.0
196,46.001971660416665,46.649148454166664,56.0,113.0
197,46.727777410416664,47.104793175,61.0,102.0
198,46.727777410416664,47.24592207083333,65.0,107.0
199,46.48584216041667,47.37293807708333,68.0,96.0
200,47.45358316041666,47.83664730625,61.0,100.0
201,48.17938891041666,48.306404916666665,61.0,100.0
202,47.211647910416666,48.35479196666667,56.0,78.0
203,47.69551841041667,48.36890485625,73.0,100.0
204,46.727777410416664,48.37092098333333,49.0,88.0
205,47.69551841041667,48.41325965208333,65.0,110.0
206,47.69551841041667,48.43745317708333,68.0,117.0
207,48.663259410416664,49.15922667291667,70.0,116.0
208,48.663259410416664,49.21164597708333,73.0,98.0
209,48.663259410416664,49.45358122708333,65.0,104.0
210,49.38906516041666,49.818500229166666,58.0,102.0
211,49.147129910416666,49.874951787499995,53.0,78.0
212,48.663259410416664,49.89511305833333,46.0,98.0
213,49.63100041041666,50.19349986666666,70.0,89.0
214,49.63100041041666,50.19753212083333,61.0,107.0
215,49.63100041041666,50.360838414583334,65.0,110.0
216,50.11487091041666,50.44753187916666,46.0,88.0
217,50.598741410416665,51.296321381249996,70.0,114.0
218,50.598741410416665,51.324547160416664,62.0,103.0
219,50.598741410416665,51.326563287499994,65.0,116.0
220,50.598741410416665,51.51406310625,46.0,88.0
221,51.56648241041666,52.219707585416664,70.0,113.0
222,51.56648241041666,52.22575596666666,62.0,106.0
223,51.56648241041666,52.3426913375,50.0,100.0
224,51.56648241041666,52.481804106249996,65.0,117.0
225,52.534223410416665,52.993900385416666,66.0,110.0
226,52.534223410416665,53.038255181249994,70.0,92.0
227,52.534223410416665,53.37091615,63.0,94.0
228,53.260029160416664,53.685431975,51.0,104.0
229,52.534223410416665,53.997931672916664,39.0,96.0
230,53.50196441041666,53.997931672916664,66.0,88.0
231,53.50196441041666,54.00599618125,58.0,107.0
232,53.50196441041666,54.04027034166666,63.0,110.0
233,53.01809391041667,54.05639935833333,46.0,77.0
234,53.98583491041666,54.302366862499994,51.0,87.0
235,55.195511160416665,55.38099485208333,61.0,77.0
236,54.95357591041667,55.65317200833333,54.0,87.0
237,54.469705410416665,56.038252281249996,42.0,102.0
238,54.71164066041666,56.05841355208333,49.0,84.0
239,55.43744641041666,56.068494187499994,70.0,100.0
240,55.43744641041666,56.07655869583333,66.0,107.0
241,55.43744641041666,56.10881672916666,61.0,91.0
242,56.405187410416666,57.03018680624999,68.0,93.0
243,56.405187410416666,57.07050934791666,60.0,89.0
244,56.405187410416666,57.19147697291666,44.0,87.0
245,56.405187410416666,57.199541481249994,63.0,100.0
246,57.37292841041666,58.03421809375,46.0,89.0
247,57.37292841041666,58.05639549166666,61.0,87.0
248,57.37292841041666,58.1007502875,70.0,88.0
249,57.856798910416664,58.12292768541666,53.0,75.0
250,57.37292841041666,58.13502444791666,65.0,88.0
251,58.09873416041666,58.35881455416666,58.0,84.0
252,58.340669410416666,59.04833001666666,70.0,104.0
253,58.340669410416666,59.09873319375,63.0,98.0
254,58.340669410416666,59.09873319375,67.0,109.0
255,58.340669410416666,59.47171670416667,51.0,93.0
256,59.066475160416665,59.48381346666666,58.0,87.0
257,59.30841041041666,59.95357107708333,70.0,104.0
258,59.30841041041666,60.12494187916666,67.0,113.0
259,59.30841041041666,60.16728054791666,63.0,104.0
260,59.792280910416665,60.2902643,51.0,86.0
261,60.27615141041667,61.03824744791666,68.0,107.0
262,60.27615141041667,61.09066675208333,60.0,96.0
263,60.27615141041667,61.11687640416666,63.0,104.0
264,61.24389241041666,61.584617887499995,60.0,114.0
265,60.27615141041667,61.794295104166665,44.0,88.0
266,60.76002191041666,61.80034348541666,51.0,80.0
267,61.727762910416665,61.96163365208333,60.0,80.0
268,61.727762910416665,62.02614971875,68.0,108.0
269,61.001957160416666,62.032198099999995,56.0,96.0
270,61.48582766041666,62.08058515,63.0,108.0
271,62.27211722291666,62.63300397083333,73.0,87.0
272,62.27211722291666,63.126955106249994,65.0,74.0
273,63.239858222916666,63.5805837,63.0,87.0
274,62.99792297291666,63.72372872291666,61.0,81.0
275,62.755987722916664,63.755986756249996,56.0,42.0
276,62.27211722291666,63.77211577291666,49.0,83.0
277,63.481793472916664,63.78824478958333,65.0,77.0
278,63.72372872291666,64.23179274791666,68.0,96.0
279,64.20759922291667,64.53421181041666,70.0,91.0
280,64.20759922291667,65.10275964791666,61.0,86.0
281,64.69146972291666,65.65517846875,53.0,40.0
282,64.93340497291666,65.66727523125,58.0,76.0
283,64.20759922291667,65.69348488333333,46.0,81.0
284,65.17534022291666,65.75598482291666,60.0,91.0
285,65.65921072291667,65.96767816666666,61.0,83.0
286,65.90114597291667,66.653161375,58.0,81.0
287,66.14308122291666,66.71364518749999,61.0,81.0
288,66.14308122291666,66.81243541458333,66.0,96.0
289,66.14308122291666,67.08058031666667,42.0,81.0
290,67.11082222291667,67.58259596041667,41.0,82.0
291,67.11082222291667,67.80033768541666,68.0,92.0
292,67.11082222291667,68.14711154375,58.0,76.0
293,68.07856322291666,68.14711154375,58.0,65.0
294,67.11082222291667,68.2620307875,62.0,78.0
295,68.07856322291666,68.57856273958333,63.0,85.0
296,68.07856322291666,68.72775614375,66.0,86.0
297,68.80436897291666,69.08662676458333,65.0,84.0
298,69.04630422291666,69.41928773333333,66.0,89.0
299,68.56243372291667,69.52211021458334,58.0,38.0
300,68.07856322291666,69.58461015416667,51.0,82.0
301,70.01404522291666,70.60275433125,68.0,86.0
302,70.01404522291666,70.65517363541666,63.0,84.0
303,70.49791572291666,71.25799563333332,56.0,65.0
304,70.98178622291667,71.30436655625,61.0,81.0
305,71.22372147291667,71.64509203333333,63.0,84.0
306,71.46565672291666,71.71162422708333,65.0,87.0
307,70.01404522291666,71.90114017291667,49.0,81.0
308,71.94952722291666,72.77613932708333,58.0,79.0
309,71.94952722291666,72.84267152083333,61.0,78.0
310,71.70759197291666,72.85275215624999,68.0,88.0
311,72.91726822291666,73.33259040208333,58.0,82.0
312,72.91726822291666,73.48379993333333,61.0,82.0
313,72.91726822291666,73.51605796666666,68.0,86.0
314,73.40113872291666,73.717670675,60.0,86.0
315,71.94952722291666,73.911218875,46.0,74.0
316,73.88500922291666,74.01807361041666,66.0,74.0
317,73.88500922291666,74.82452444375,63.0,66.0
318,73.88500922291666,75.024121025,70.0,88.0
319,74.61081497291666,75.32855621458333,58.0,81.0
320,73.88500922291666,75.3507336125,51.0,81.0
321,75.09468547291667,75.42533031458333,65.0,83.0
322,75.33662072291666,75.56645921041667,66.0,82.0
323,73.88500922291666,75.6652494375,39.0,90.0
324,75.82049122291666,76.80436123958333,60.0,81.0
325,75.82049122291666,77.007990075,63.0,84.0
326,75.57855597291666,77.30637688333333,70.0,87.0
327,77.03016747291666,77.36484456875,61.0,80.0
328,77.27210272291666,77.49992508333332,63.0,80.0
329,75.82049122291666,77.58258629375,44.0,79.0
330,76.78823222291666,77.60476369166666,56.0,69.0
331,77.51403797291667,77.70758617291666,70.0,86.0
332,77.75597322291667,78.31242429791666,73.0,89.0
333,77.75597322291667,78.38298874583333,68.0,98.0
334,77.75597322291667,78.41726290625,65.0,91.0
335,78.72371422291667,79.40919743124999,73.0,89.0
336,78.72371422291667,79.46968124375,65.0,88.0
337,78.72371422291667,79.475729625,68.0,96.0
338,79.69145522291666,80.35072877916666,73.0,84.0
339,79.69145522291666,80.35476103333333,68.0,90.0
340,79.69145522291666,80.40113195625,65.0,86.0
341,77.75597322291667,80.96967979374999,61.0,84.0
342,77.75597322291667,81.04427649583333,49.0,84.0
343,80.65919622291666,81.33863104999999,73.0,88.0
344,80.65919622291666,81.36282457499999,65.0,91.0
345,80.65919622291666,81.41524387916667,68.0,100.0
346,81.62693722291667,82.31645268541666,70.0,89.0
347,81.62693722291667,82.32451719375,73.0,85.0
348,81.62693722291667,82.32653332083333,65.0,86.0
349,81.62693722291667,83.10879062916666,58.0,84.0
350,82.59467822291666,83.20959698333333,65.0,89.0
351,82.59467822291666,83.31645171875,73.0,86.0
352,82.59467822291666,83.34266137083333,70.0,90.0
353,81.62693722291667,83.43943547083333,46.0,82.0
354,83.56241922291666,84.03419296041666,56.0,86.0
355,83.56241922291666,84.217660525,44.0,88.0
356,83.56241922291666,84.34266040416666,68.0,88.0
357,83.56241922291666,84.35677329375,72.0,87.0
358,83.56241922291666,84.37895069166666,63.0,85.0
359,84.28822497291667,84.62491819583333,56.0,85.0
360,84.28822497291667,84.63701495833332,44.0,80.0
361,84.53016022291666,85.09265967916666,63.0,107.0
362,84.53016022291666,85.11685320416666,72.0,110.0
363,84.53016022291666,85.24991759166666,68.0,116.0
364,85.01403072291666,85.28822400624999,44.0,82.0
365,85.01403072291666,85.36685296249999,56.0,80.0
366,85.49790122291667,86.23177148125,73.0,88.0
367,85.49790122291667,86.30435205625,68.0,91.0
368,85.49790122291667,86.31846494583333,65.0,89.0
369,85.49790122291667,86.77612579375,49.0,91.0
370,86.94951272291667,87.169270575,49.0,86.0
371,86.46564222291666,87.22168987916666,65.0,104.0
372,86.46564222291666,87.22370600625,73.0,96.0
373,86.46564222291666,87.29023819999999,68.0,104.0
374,87.19144797291666,87.44547998541667,48.0,81.0
375,87.43338322291666,88.12693093958333,73.0,88.0
376,87.43338322291666,88.13096319374999,70.0,93.0
377,87.43338322291666,88.15717284583333,65.0,90.0
378,88.40112422291666,89.10676870208333,65.0,94.0
379,88.40112422291666,89.13096222708333,73.0,88.0
380,88.40112422291666,89.14910737083333,70.0,91.0
381,87.43338322291666,89.28015563125,46.0,86.0
382,89.36886522291667,90.00394525416667,72.0,88.0
383,89.36886522291667,90.06846132083332,70.0,91.0
384,89.36886522291667,90.15313865833333,66.0,98.0
385,89.36886522291667,90.17128380208332,63.0,91.0
386,89.36886522291667,90.84063799375,39.0,88.0
387,90.33660622291666,90.91321856875,70.0,89.0
388,90.33660622291666,90.96362174583332,66.0,104.0
389,90.33660622291666,91.17531508958332,63.0,94.0
390,89.36886522291667,91.19346023333333,51.0,91.0
391,91.30434722291666,92.02208846458333,63.0,90.0
392,91.30434722291666,92.05233037083333,68.0,89.0
393,91.30434722291666,92.05837875208333,60.0,86.0
394,91.30434722291666,92.7095878,44.0,85.0
395,92.51402347291666,92.73982970624999,58.0,94.0
396,91.78821772291666,92.75394259583332,51.0,77.0
397,92.27208822291666,92.75595872291666,56.0,92.0
398,92.75595872291666,92.9636198125,60.0,96.0
399,92.99789397291666,93.19345829999999,63.0,96.0
400,93.23982922291667,93.92732855833333,73.0,88.0
401,93.23982922291667,93.97571560833333,65.0,91.0
402,93.23982922291667,93.97974786249999,68.0,100.0
403,93.96563497291666,94.66321494374999,61.0,89.0
404,94.20757022291666,94.72369875625,63.0,104.0
405,93.72369972291666,94.72571488333332,56.0,76.0
406,93.23982922291667,94.89305343125,49.0,89.0
407,95.17531122291666,95.85877830416666,70.0,89.0
408,95.17531122291666,95.87289119375,61.0,88.0
409,94.69144072291667,95.89506859166666,65.0,92.0
410,95.17531122291666,96.37490683749999,46.0,81.0
411,95.90111697291667,96.39103585416666,58.0,86.0
412,95.65918172291666,96.3991003625,53.0,64.0
413,96.14305222291667,96.72772907708332,61.0,100.0
414,96.14305222291667,96.78014838125,70.0,98.0
415,96.14305222291667,96.97168045416666,65.0,108.0
416,96.62692272291666,97.09264807916666,46.0,76.0
417,97.11079322291666,97.83256671875,70.0,91.0
418,97.11079322291666,97.86885700625,66.0,92.0
419,97.11079322291666,97.87893764166667,63.0,88.0
420,97.83659897291666,98.22167924583333,58.0,81.0
421,98.07853422291666,98.62692078958332,70.0,91.0
422,98.07853422291666,98.71966263541667,63.0,92.0
423,98.07853422291666,98.80232384583333,66.0,98.0
424,98.56240472291667,98.85877540416666,58.0,77.0
425,97.11079322291666,98.87087216666666,51.0,89.0
426,99.04627522291666,99.62087144166667,61.0,87.0
427,99.04627522291666,99.77409709999999,68.0,88.0
428,99.04627522291666,99.80232287916667,65.0,89.0
429,99.77208097291665,100.46764481666666,61.0,91.0
430,99.53014572291666,100.53820926458333,56.0,67.0
431,100.01401622291667,100.55837053541666,63.0,104.0
432,100.01401622291667,100.5603866625,68.0,110.0
433,99.04627522291666,100.58659631458333,49.0,87.0
434,100.49788672291666,100.84869283541666,65.0,90.0
435,100.98175722291666,101.612805,68.0,102.0
436,100.98175722291666,101.71159522708332,65.0,110.0
437,100.98175722291666,101.71764360833333,61.0,100.0
438,101.70756297291666,102.1087722625,56.0,82.0
439,101.94949822291666,102.60675565208332,68.0,102.0
440,101.94949822291666,102.63296530416666,61.0,107.0
441,101.94949822291666,102.66925559166665,65.0,114.0
442,102.43336872291665,103.38296457916667,56.0,83.0
443,102.91723922291666,103.67328687916667,68.0,107.0
444,102.91723922291666,103.69748040416665,65.0,114.0
445,102.91723922291666,103.70352878541667,61.0,104.0
446,103.64304497291666,104.09264131249999,56.0,89.0
447,100.98175722291666,104.15110899791667,49.0,96.0
448,103.88498022291667,104.35272170625,61.0,102.0
449,103.88498022291667,104.41723777291666,68.0,104.0
450,103.88498022291667,104.44747967916666,65.0,110.0
451,104.36885072291666,104.48578609375,49.0,87.0
452,104.85272122291666,105.33659172291667,42.0,104.0
453,104.85272122291666,105.49788188958333,66.0,116.0
454,104.85272122291666,105.51602703333333,61.0,104.0
455,104.85272122291666,105.6652204375,70.0,107.0
456,105.82046222291666,106.37489717083332,43.0,86.0
457,105.82046222291666,106.38901006041667,55.0,87.0
458,105.82046222291666,106.41320358541667,70.0,107.0
459,105.82046222291666,106.45554225416666,67.0,113.0
460,105.82046222291666,106.55836473541666,63.0,102.0
461,106.54626797291667,107.20150927499999,60.0,76.0
462,106.78820322291666,107.29425112083332,68.0,107.0
463,106.78820322291666,107.38900909374999,63.0,85.0
464,107.51400897291666,107.76804098541666,58.0,107.0
465,107.27207372291666,107.8184441625,56.0,108.0
466,107.75594422291667,108.11279871666666,60.0,108.0
467,106.78820322291666,108.27207275625,44.0,92.0
468,107.03013847291666,108.28215339166665,51.0,88.0
469,108.23981472291666,108.49384673541667,63.0,110.0
470,107.99787947291667,108.64505626666666,56.0,113.0
471,108.72368522291666,109.10070098749999,61.0,102.0
472,108.72368522291666,109.24182988333332,65.0,107.0
473,108.48174997291666,109.36884588958333,68.0,96.0
474,109.44949097291666,109.83255511875,61.0,100.0
475,110.17529672291666,110.30231272916666,61.0,100.0
476,109.20755572291667,110.35069977916666,56.0,78.0
477,109.69142622291666,110.36481266874999,73.0,100.0
478,108.72368522291666,110.36682879583333,49.0,88.0
479,109.69142622291666,110.40916746458333,65.0,110.0
480,109.69142622291666,110.43336098958332,68.0,117.0
481,110.65916722291666,111.15513448541667,70.0,116.0
482,110.65916722291666,111.20755378958333,73.0,98.0
483,110.65916722291666,111.44948903958333,65.0,104.0
484,111.38497297291666,111.81440804166667,58.0,102.0
485,111.14303772291666,111.87085959999999,53.0,78.0
486,110.65916722291666,111.89102087083333,46.0,98.0
487,111.62690822291665,112.18940767916666,70.0,89.0
488,111.62690822291665,112.19343993333332,61.0,107.0
489,111.62690822291665,112.35674622708332,65.0,110.0
490,112.11077872291666,112.44343969166665,46.0,88.0
491,112.59464922291666,113.29222919374999,70.0,114.0
492,112.59464922291666,113.32045497291666,62.0,103.0
493,112.59464922291666,113.32247109999999,65.0,116.0
494,112.59464922291666,113.50997091875,46.0,88.0
495,113.56239022291666,114.21561539791666,70.0,113.0
496,113.56239022291666,114.22166377916666,62.0,106.0
497,113.56239022291666,114.33859915,50.0,100.0
498,113.56239022291666,114.47771191874999,65.0,117.0
499,114.53013122291667,114.98980819791666,66.0,110.0
500,114.53013122291667,115.03416299374999,70.0,92.0
501,114.53013122291667,115.36682396249999,63.0,94.0
502,115.25593697291666,115.6813397875,51.0,104.0
503,114.53013122291667,115.99383948541666,39.0,96.0
504,115.49787222291666,115.99383948541666,66.0,88.0
505,115.49787222291666,116.00190399374999,58.0,107.0
506,115.49787222291666,116.03617815416666,63.0,110.0
507,115.01400172291666,116.05230717083333,46.0,77.0
508,115.98174272291666,116.29827467499999,51.0,87.0
509,117.19141897291667,117.37690266458333,61.0,77.0
510,116.94948372291665,117.64907982083332,54.0,87.0
511,116.46561322291666,118.03416009374999,42.0,102.0
512,116.70754847291666,118.05432136458333,49.0,84.0
513,117.43335422291666,118.06440199999999,70.0,100.0
514,117.43335422291666,118.07246650833332,66.0,107.0
515,117.43335422291666,118.10472454166666,61.0,91.0
516,118.40109522291667,119.02609461875,68.0,93.0
517,118.40109522291667,119.06641716041666,60.0,89.0
518,118.40109522291667,119.18738478541665,44.0,87.0
519,118.40109522291667,119.19544929374999,63.0,100.0
520,119.36883622291666,120.03012590624999,46.0,89.0
521,119.36883622291666,120.05230330416666,61.0,87.0
522,119.36883622291666,120.0966581,70.0,88.0
523,119.85270672291666,120.11883549791666,53.0,75.0
524,119.36883622291666,120.13093226041666,65.0,88.0
525,120.09464197291666,120.35472236666666,58.0,84.0
526,120.33657722291666,121.04423782916666,70.0,104.0
527,120.33657722291666,121.09464100624999,63.0,98.0
528,120.33657722291666,121.09464100624999,67.0,109.0
529,120.33657722291666,121.46762451666666,51.0,93.0
530,121.06238297291667,121.47972127916665,58.0,87.0
531,121.30431822291666,121.94947888958333,70.0,104.0
532,121.30431822291666,122.12084969166666,67.0,113.0
533,121.30431822291666,122.16318836041665,63.0,104.0
534,121.78818872291666,122.2861721125,51.0,86.0
535,122.27205922291667,123.03415526041665,68.0,107.0
536,122.27205922291667,123.08657456458333,60.0,96.0
537,122.27205922291667,123.11278421666665,63.0,104.0
538,123.23980022291666,123.5805257,60.0,114.0
539,122.27205922291667,123.79020291666666,44.0,88.0
540,122.75592972291666,123.79625129791665,51.0,80.0
541,123.72367072291667,123.95754146458333,60.0,80.0
542,123.72367072291667,124.02205753125,68.0,108.0
543,122.99786497291666,124.0281059125,56.0,96.0
544,123.48173547291665,124.0764929625,63.0,108.0
545,124.20754122291666,124.81842772916666,42.0,89.0
546,124.20754122291666,124.82245998333333,54.0,91.0
547,124.20754122291666,124.87891154166665,61.0,91.0
548,124.20754122291666,124.92528246458333,70.0,100.0
549,124.20754122291666,125.03616945416665,66.0,94.0
550,125.17528222291666,125.61883018124999,56.0,91.0
551,125.17528222291666,125.79624936458333,68.0,93.0
552,125.17528222291666,125.97770080208333,60.0,100.0
553,125.17528222291666,126.02003947083332,63.0,113.0
554,125.17528222291666,126.06237813958333,44.0,87.0
555,126.14302322291665,126.75390972916666,41.0,86.0
556,126.14302322291665,126.80834516041666,68.0,100.0
557,126.14302322291665,126.84866770208333,60.0,94.0
558,126.14302322291665,127.03213526666666,53.0,93.0
559,126.14302322291665,127.0522965375,65.0,108.0
560,127.59463472291667,127.74382812708333,58.0,90.0
561,127.35269947291665,127.75995714374999,53.0,83.0
562,127.11076422291666,127.76802165208332,46.0,88.0
563,127.11076422291666,127.79019905,70.0,91.0
564,127.11076422291666,127.81036032083333,61.0,89.0
565,127.11076422291666,127.82447321041666,65.0,93.0
566,128.07850522291665,129.47568129166666,43.0,88.0
567,128.07850522291665,129.48374579999998,70.0,91.0
568,128.07850522291665,129.50390707083332,63.0,88.0
569,128.07850522291665,129.53414897708333,67.0,91.0
570,130.01398722291665,130.54422864583333,66.0,87.0
571,130.01398722291665,130.64301887291666,61.0,76.0
572,130.01398722291665,130.73374459166666,58.0,68.0
573,130.01398722291665,132.12285615208333,42.0,83.0
574,131.46559872291667,132.19140447291667,66.0,90.0
575,130.98172822291667,132.32648498749998,58.0,81.0
576,130.49785772291665,132.37487203749998,49.0,70.0
577,130.73979297291666,132.42930746874998,54.0,83.0
578,131.22366347291666,132.459549375,61.0,86.0
579,133.15914547291666,133.72366105625,63.0,88.0
580,133.40108072291665,133.77406423333332,68.0,91.0
581,133.15914547291666,133.85067706249998,60.0,84.0
582,132.43333972291666,133.88091896875,44.0,84.0
583,132.67527497291667,133.89704798541666,51.0,87.0
584,132.91721022291665,133.89704798541666,56.0,92.0
585,133.94543503541666,134.63696662499999,68.0,86.0
586,133.94543503541666,134.70349881875,65.0,87.0
587,133.94543503541666,134.71962783541667,61.0,85.0
588,134.91317603541665,135.62890115,68.0,100.0
589,134.91317603541665,135.70954623333333,61.0,93.0
590,134.91317603541665,135.78414293541667,65.0,108.0
591,133.94543503541666,135.846642875,49.0,87.0
592,135.88091703541667,136.53212608333334,70.0,92.0
593,135.88091703541667,136.62285180208332,61.0,93.0
594,135.88091703541667,136.69140012291666,65.0,102.0
595,135.88091703541667,137.32043177291666,58.0,86.0
596,135.88091703541667,137.4071252375,46.0,87.0
597,136.84865803541666,137.59462505624998,70.0,96.0
598,136.84865803541666,137.63494759791666,61.0,98.0
599,136.84865803541666,137.75793134999998,65.0,107.0
600,137.81639903541665,138.41720490625,54.0,92.0
601,137.81639903541665,138.4252694145833,61.0,102.0
602,137.81639903541665,138.44543068541665,66.0,116.0
603,137.81639903541665,138.45551132083332,70.0,94.0
604,137.81639903541665,138.70954333333333,42.0,89.0
605,138.78414003541667,139.4232523208333,62.0,93.0
606,138.78414003541667,139.42526844791666,53.0,93.0
607,138.78414003541667,139.54018769166666,70.0,104.0
608,138.78414003541667,139.65913918958333,65.0,108.0
609,138.78414003541667,139.71155849375,41.0,87.0
610,139.75188103541666,140.54018672499998,70.0,96.0
611,139.75188103541666,140.55429961458333,66.0,104.0
612,139.75188103541666,140.55631574166665,63.0,94.0
613,139.75188103541666,141.23776669583333,39.0,92.0
614,139.75188103541666,141.27002472916666,51.0,88.0
615,140.71962203541665,141.27204085625,70.0,92.0
616,140.71962203541665,141.28212149166666,63.0,93.0
617,140.71962203541665,141.290186,66.0,104.0
618,141.68736303541667,142.32849144791666,73.0,94.0
619,141.68736303541667,142.40913653125,68.0,110.0
620,141.68736303541667,142.4151849125,65.0,100.0
621,142.65510403541666,143.29018406666665,73.0,96.0
622,142.65510403541666,143.36276464166667,65.0,104.0
623,142.65510403541666,143.4071194375,68.0,114.0
624,141.68736303541667,143.57042573125,49.0,91.0
625,143.62284503541665,144.29623148125,73.0,94.0
626,143.62284503541665,144.32445726041666,70.0,113.0
627,143.62284503541665,144.33252176874998,65.0,98.0
628,143.62284503541665,145.09663393333332,58.0,84.0
629,143.62284503541665,145.16316612708331,46.0,84.0
630,144.59058603541666,145.25994022708332,65.0,104.0
631,144.59058603541666,145.25994022708332,73.0,96.0
632,144.59058603541666,145.29219826041665,70.0,113.0
633,145.55832703541665,146.34864885208333,70.0,107.0
634,145.55832703541665,146.3788907583333,66.0,113.0
635,145.55832703541665,146.40106815625,63.0,100.0
636,146.52606803541667,147.13695454166665,70.0,96.0
637,146.52606803541667,147.18332546458333,66.0,108.0
638,146.52606803541667,147.29622858125,63.0,96.0
639,145.55832703541665,147.33856724999998,39.0,90.0
640,145.55832703541665,147.34461563124998,51.0,89.0
641,147.49380903541666,149.47767808541667,60.0,100.0
642,147.49380903541666,149.48171033958332,63.0,113.0
643,147.49380903541666,149.49380710208334,44.0,91.0
644,147.49380903541666,149.51195224583333,68.0,104.0
