,start,end,pitch,velocity
0,20.104166666666668,20.529166666666665,66.0,84.0
1,20.604166666666668,21.00625,68.0,84.0
2,21.104166666666668,21.56458333333333,69.0,81.0
3,21.604166666666668,21.84375,68.0,84.0
4,21.854166666666668,23.652083333333334,66.0,82.0
5,24.104166666666668,24.529166666666665,66.0,84.0
6,24.604166666666668,25.00625,68.0,84.0
7,25.104166666666668,25.56458333333333,69.0,81.0
8,25.604166666666668,25.84375,68.0,84.0
9,25.854166666666668,27.652083333333334,66.0,82.0
10,28.104166666666668,28.508333333333333,64.0,85.0
11,28.604166666666668,28.785416666666666,66.0,83.0
12,28.854166666666668,29.56458333333333,68.0,83.0
13,29.604166666666668,30.014583333333334,66.0,84.0
14,30.104166666666668,30.589583333333334,68.0,87.0
15,30.604166666666668,30.822916666666668,66.0,84.0
16,30.854166666666668,31.508333333333333,64.0,87.0
17,31.604166666666668,32.0625,74.0,88.0
18,32.104166666666664,32.49375,73.0,94.0
19,32.604166666666664,33.104166666666664,73.0,85.0
20,33.104166666666664,33.56875,73.0,99.0
21,33.604166666666664,34.03541666666666,71.0,85.0
22,34.104166666666664,35.77916666666667,73.0,87.0
23,36.104166666666664,36.49166666666667,71.0,90.0
24,36.604166666666664,37.03125,73.0,87.0
25,37.104166666666664,37.5625,74.0,89.0
26,37.604166666666664,37.96875,73.0,89.0
27,38.104166666666664,38.545833333333334,74.0,85.0
28,38.604166666666664,38.822916666666664,73.0,89.0
29,38.854166666666664,39.45625,71.0,84.0
30,39.604166666666664,39.8125,69.0,82.0
31,39.854166666666664,40.02708333333333,71.0,85.0
32,40.104166666666664,40.52291666666667,73.0,87.0
33,40.604166666666664,40.78125,76.0,83.0
34,40.854166666666664,41.516666666666666,73.0,90.0
35,41.604166666666664,42.0,71.0,84.0
36,42.104166666666664,42.514583333333334,71.0,85.0
37,42.604166666666664,42.766666666666666,73.0,86.0
38,42.854166666666664,43.954166666666666,69.0,79.0
39,44.104166666666664,45.545833333333334,71.0,85.0
40,45.604166666666664,45.858333333333334,69.0,86.0
41,45.854166666666664,47.577083333333334,71.0,84.0
42,47.604166666666664,47.97291666666666,66.0,84.0
43,48.104166666666664,50.75,68.0,84.0
44,51.104166666666664,51.59583333333333,69.0,87.0
45,51.604166666666664,52.110416666666666,68.0,83.0
46,52.104166666666664,53.114583333333336,66.0,79.0
47,53.104166666666664,54.03541666666666,73.0,90.0
48,54.104166666666664,54.520833333333336,71.0,87.0
49,54.604166666666664,54.84375,73.0,88.0
50,54.854166666666664,55.55,76.0,86.0
51,55.604166666666664,56.110416666666666,73.0,85.0
52,56.104166666666664,56.86875,71.0,78.0
53,57.104166666666664,58.05625,73.0,90.0
54,58.104166666666664,58.489583333333336,71.0,89.0
55,58.604166666666664,58.82083333333333,73.0,90.0
56,58.854166666666664,59.5375,76.0,84.0
57,59.604166666666664,60.106249999999996,78.0,87.0
58,60.104166666666664,61.05833333333333,71.0,84.0
59,61.104166666666664,61.925,71.0,85.0
60,62.104166666666664,62.47291666666666,71.0,87.0
61,62.604166666666664,62.764583333333334,73.0,89.0
62,62.854166666666664,63.28958333333333,76.0,85.0
63,63.354166666666664,63.77291666666667,73.0,90.0
64,63.854166666666664,64.04166666666667,71.0,87.0
65,64.10416666666667,66.71666666666667,73.0,88.0
66,67.10416666666667,67.50416666666666,71.0,87.0
67,67.60416666666667,67.98958333333333,73.0,90.0
68,68.10416666666667,68.9625,74.0,85.0
69,69.10416666666667,69.86041666666667,74.0,92.0
70,70.10416666666667,70.48958333333333,74.0,88.0
71,70.60416666666667,70.77708333333334,76.0,85.0
72,70.85416666666667,71.48958333333333,78.0,84.0
73,71.60416666666667,71.8125,76.0,88.0
74,71.85416666666667,72.02083333333333,74.0,87.0
75,72.10416666666667,72.9,73.0,97.0
76,73.10416666666667,73.92291666666667,73.0,97.0
77,74.10416666666667,74.49166666666666,73.0,97.0
78,74.60416666666667,74.875,74.0,85.0
79,74.85416666666667,75.35,73.0,94.0
80,75.35416666666667,75.79375,71.0,87.0
81,75.85416666666667,76.03125,69.0,92.0
82,76.10416666666667,76.60416666666667,71.0,87.0
83,76.60416666666667,77.60416666666667,71.0,87.0
84,78.10416666666667,78.51458333333333,71.0,84.0
85,78.60416666666667,78.79791666666667,69.0,94.0
86,78.85416666666667,79.25833333333333,71.0,87.0
87,79.35416666666667,79.85416666666667,69.0,87.0
88,79.85416666666667,80.11666666666666,68.0,85.0
89,80.10416666666667,83.00833333333333,66.0,81.0
90,84.10416666666667,84.52916666666667,66.0,84.0
91,84.60416666666667,85.00625,68.0,84.0
92,85.10416666666667,85.56458333333333,69.0,81.0
93,85.60416666666667,85.84375,68.0,84.0
94,85.85416666666667,87.65208333333334,66.0,82.0
95,88.10416666666667,88.52916666666667,66.0,84.0
96,88.60416666666667,89.00625,68.0,84.0
97,89.10416666666667,89.56458333333333,69.0,81.0
98,89.60416666666667,89.84375,68.0,84.0
99,89.85416666666667,91.65208333333334,66.0,82.0
100,92.10416666666667,92.50833333333333,64.0,85.0
101,92.60416666666667,92.78541666666666,66.0,83.0
102,92.85416666666667,93.56458333333333,68.0,83.0
103,93.60416666666667,94.01458333333333,66.0,84.0
104,94.10416666666667,94.58958333333334,68.0,87.0
105,94.60416666666667,94.82291666666667,66.0,84.0
106,94.85416666666667,95.50833333333333,64.0,87.0
107,95.60416666666667,96.0625,74.0,88.0
108,96.10416666666667,96.49375,73.0,94.0
109,96.60416666666667,97.10416666666667,73.0,85.0
110,97.10416666666667,97.56875,73.0,99.0
111,97.60416666666667,98.03541666666666,71.0,85.0
112,98.10416666666667,99.77916666666667,73.0,87.0
113,100.10416666666667,100.49166666666666,71.0,90.0
114,100.60416666666667,101.03125,73.0,87.0
115,101.10416666666667,101.5625,74.0,89.0
116,101.60416666666667,101.96875,73.0,89.0
117,102.10416666666667,102.54583333333333,74.0,85.0
118,102.60416666666667,102.82291666666667,73.0,89.0
119,102.85416666666667,103.45625,71.0,84.0
120,103.60416666666667,103.8125,69.0,82.0
121,103.85416666666667,104.02708333333334,71.0,85.0
122,104.10416666666667,104.52291666666666,73.0,87.0
123,104.60416666666667,104.78125,76.0,83.0
124,104.85416666666667,105.51666666666667,73.0,90.0
125,105.60416666666667,106.0,71.0,84.0
126,106.10416666666667,106.51458333333333,71.0,85.0
127,106.60416666666667,106.76666666666667,73.0,86.0
128,106.85416666666667,107.95416666666667,69.0,79.0
129,108.10416666666667,109.54583333333333,71.0,85.0
130,109.60416666666667,109.85833333333333,69.0,86.0
131,109.85416666666667,111.57708333333333,71.0,84.0
132,111.60416666666667,111.97291666666666,66.0,84.0
133,112.10416666666667,114.75,68.0,84.0
134,115.10416666666667,115.59583333333333,69.0,87.0
135,115.60416666666667,116.11041666666667,68.0,83.0
136,116.10416666666667,117.11458333333333,66.0,79.0
137,117.10416666666667,118.03541666666666,73.0,90.0
138,118.10416666666667,118.52083333333333,71.0,87.0
139,118.60416666666667,118.84375,73.0,88.0
140,118.85416666666667,119.55,76.0,86.0
141,119.60416666666667,120.11041666666667,73.0,85.0
142,120.10416666666667,120.86874999999999,71.0,78.0
143,121.10416666666667,122.05624999999999,73.0,90.0
144,122.10416666666667,122.48958333333333,71.0,89.0
145,122.60416666666667,122.82083333333333,73.0,90.0
146,122.85416666666667,123.5375,76.0,84.0
147,123.60416666666667,124.10625,78.0,87.0
148,124.10416666666667,125.05833333333334,71.0,84.0
149,125.10416666666667,125.925,71.0,85.0
150,126.10416666666667,126.47291666666666,71.0,87.0
151,126.60416666666667,126.76458333333333,73.0,89.0
152,126.85416666666667,127.28958333333333,76.0,85.0
153,127.35416666666667,127.77291666666666,73.0,90.0
154,127.85416666666667,128.04166666666666,71.0,87.0
155,128.10416666666666,130.71666666666667,73.0,88.0
156,131.10416666666666,131.50416666666666,71.0,87.0
157,131.60416666666666,131.98958333333334,73.0,90.0
158,132.10416666666666,132.9625,74.0,85.0
159,133.10416666666666,133.86041666666665,74.0,92.0
160,134.10416666666666,134.48958333333334,74.0,88.0
161,134.60416666666666,134.77708333333334,76.0,85.0
162,134.85416666666666,135.48958333333334,78.0,84.0
163,135.60416666666666,135.8125,76.0,88.0
164,135.85416666666666,136.02083333333334,74.0,87.0
165,136.10416666666666,136.9,73.0,97.0
166,137.10416666666666,137.92291666666665,73.0,97.0
167,138.10416666666666,138.49166666666667,73.0,97.0
168,138.60416666666666,138.875,74.0,85.0
169,138.85416666666666,139.35,73.0,94.0
170,139.35416666666666,139.79375,71.0,87.0
171,139.85416666666666,140.03125,69.0,92.0
172,140.10416666666666,140.60416666666666,71.0,87.0
173,140.60416666666666,141.60416666666666,71.0,87.0
174,142.10416666666666,142.51458333333332,71.0,84.0
175,142.60416666666666,142.79791666666665,69.0,94.0
176,142.85416666666666,143.25833333333333,71.0,87.0
177,143.35416666666666,143.85416666666666,69.0,87.0
178,143.85416666666666,144.11666666666667,68.0,85.0
179,144.10416666666666,147.00833333333333,66.0,81.0
180,159.10416666666666,159.59583333333333,69.0,87.0
181,159.60416666666666,160.11041666666665,68.0,83.0
182,160.10416666666666,161.11458333333334,66.0,79.0
183,161.10416666666666,162.03541666666666,73.0,90.0
184,162.10416666666666,162.52083333333334,71.0,87.0
185,162.60416666666666,162.84375,73.0,88.0
186,162.85416666666666,163.55,76.0,86.0
187,163.60416666666666,164.11041666666665,73.0,85.0
188,164.10416666666666,164.86875,71.0,78.0
189,165.10416666666666,166.05625,73.0,90.0
190,166.10416666666666,166.48958333333334,71.0,89.0
191,166.60416666666666,166.82083333333333,73.0,90.0
192,166.85416666666666,167.5375,76.0,84.0
193,167.60416666666666,168.10625,78.0,87.0
194,168.10416666666666,169.05833333333334,71.0,84.0
195,169.10416666666666,169.925,71.0,85.0
196,170.10416666666666,170.47291666666666,71.0,87.0
197,170.60416666666666,170.76458333333332,73.0,89.0
198,170.85416666666666,171.28958333333333,76.0,85.0
199,171.35416666666666,171.77291666666667,73.0,90.0
200,171.85416666666666,172.04166666666666,71.0,87.0
201,172.10416666666666,174.10416666666666,73.0,88.0
202,174.10416666666666,174.71666666666667,73.0,88.0
203,175.10416666666666,175.59583333333333,69.0,87.0
204,175.60416666666666,176.11041666666665,68.0,83.0
205,176.10416666666666,177.11458333333334,66.0,79.0
206,177.10416666666666,178.03541666666666,73.0,90.0
207,178.10416666666666,178.52083333333334,71.0,87.0
208,178.60416666666666,178.84375,73.0,88.0
209,178.85416666666666,179.55,76.0,86.0
210,179.60416666666666,180.11041666666665,73.0,85.0
211,180.10416666666666,180.86875,71.0,78.0
212,181.10416666666666,182.05625,73.0,90.0
213,182.10416666666666,182.48958333333334,71.0,89.0
214,182.60416666666666,182.82083333333333,73.0,90.0
215,182.85416666666666,183.5375,76.0,84.0
216,183.60416666666666,184.10625,78.0,87.0
217,184.10416666666666,185.05833333333334,71.0,84.0
218,185.10416666666666,185.925,71.0,85.0
219,186.10416666666666,186.47291666666666,71.0,87.0
220,186.60416666666666,186.76458333333332,73.0,89.0
221,186.85416666666666,187.28958333333333,76.0,85.0
222,187.35416666666666,187.77291666666667,73.0,90.0
223,187.85416666666666,188.04166666666666,71.0,87.0
224,188.10416666666666,190.10416666666666,73.0,88.0
225,190.10416666666666,191.10416666666666,73.0,88.0
226,191.10416666666666,191.50416666666666,71.0,87.0
227,191.60416666666666,191.98958333333334,73.0,90.0
228,192.10416666666666,192.9625,74.0,85.0
229,193.10416666666666,193.86041666666665,74.0,92.0
230,194.10416666666666,194.48958333333334,74.0,88.0
231,194.60416666666666,194.77708333333334,76.0,85.0
232,194.85416666666666,195.48958333333334,78.0,84.0
233,195.60416666666666,195.8125,76.0,88.0
234,195.85416666666666,196.02083333333334,74.0,87.0
235,196.10416666666666,196.9,73.0,97.0
236,197.10416666666666,197.92291666666665,73.0,97.0
237,198.10416666666666,198.49166666666667,73.0,97.0
238,198.60416666666666,198.875,74.0,85.0
239,198.85416666666666,199.35,73.0,94.0
240,199.35416666666666,199.79375,71.0,87.0
241,199.85416666666666,200.03125,69.0,92.0
242,200.10416666666666,200.60416666666666,71.0,87.0
243,200.60416666666666,201.60416666666666,71.0,87.0
244,202.10416666666666,202.51458333333332,71.0,84.0
245,202.60416666666666,202.79791666666665,69.0,94.0
246,202.85416666666666,203.25833333333333,71.0,87.0
247,203.35416666666666,203.85416666666666,69.0,87.0
248,203.85416666666666,204.11666666666667,68.0,85.0
249,204.10416666666666,207.00833333333333,66.0,81.0
250,211.97083333333333,213.14791666666667,73.0,87.0
251,213.15833333333333,213.6375,71.0,87.0
252,213.63333333333333,215.13333333333333,69.0,84.0
253,216.91666666666666,217.60416666666666,71.0,84.0
254,217.70833333333334,218.26041666666666,69.0,87.0
255,218.29375,219.55416666666667,68.0,80.0
256,219.55208333333334,224.47291666666666,66.0,79.0
