,start,end,pitch,velocity
0,1.032141825,1.5267841875000001,69.0,85.0
1,1.4749985250000002,1.9982122875000004,62.0,83.0
2,1.9124980875000002,2.4874975125000005,66.0,74.0
3,2.3142834000000003,2.7821400750000005,62.0,74.0
4,2.7482115375000005,3.3357109500000006,70.0,72.0
5,3.1357111500000006,3.6910677375000005,61.0,73.0
6,3.6071392500000004,4.296424275000001,64.0,82.0
7,4.0071388500000005,4.4303527125,61.0,72.0
8,4.408924162500001,5.117852025,62.0,82.0
9,5.299994700000001,5.7446371125,74.0,84.0
10,5.728565700000001,6.003565425000001,73.0,73.0
11,5.942851200000001,6.208922362500001,74.0,87.0
12,6.157136700000001,6.617850525000001,73.0,84.0
13,6.585707700000001,6.9857073000000005,86.0,83.0
14,6.585707700000001,7.0535643750000006,74.0,87.0
15,7.014278700000001,7.410706875000001,73.0,84.0
16,7.014278700000001,7.487492512500001,85.0,81.0
17,7.442849700000001,7.905349237500001,76.0,92.0
18,7.442849700000001,7.939277775000001,81.0,75.0
19,7.871420700000001,8.7982054875,86.0,79.0
20,7.871420700000001,9.153562275,74.0,94.0
21,9.157133700000001,9.3982048875,73.0,72.0
22,9.371419200000002,9.971418600000002,74.0,85.0
23,10.0142757,10.512489487500002,86.0,84.0
24,10.4428467,10.8624891375,85.0,84.0
25,10.871417700000002,11.285703000000002,81.0,84.0
26,11.299988700000002,12.932129925000002,86.0,88.0
27,12.585701700000001,13.062486937500001,88.0,84.0
28,13.014272700000001,13.869628987500002,85.0,84.0
29,13.871414700000003,14.767842375000003,81.0,79.0
30,14.478556950000002,16.024983975,57.0,65.0
31,14.598199687500001,16.069626787500003,62.0,77.0
32,14.667842475000002,16.101769612500004,69.0,83.0
33,16.341055087500003,17.933910637500002,64.0,82.0
34,16.2428409,17.953553475000003,61.0,67.0
35,16.385697900000004,17.974982025000003,70.0,78.0
36,17.7267679875,17.974982025000003,71.0,77.0
37,17.932124925000004,18.191053237500004,73.0,67.0
38,18.1571247,19.5856947,71.0,78.0
39,29.107113750000003,29.182113675000004,69.0,71.0
40,29.253542175000003,29.773184512500006,69.0,83.0
41,29.714256000000002,30.133898437500005,57.0,85.0
42,30.126755587500003,31.173183112500006,62.0,85.0
43,31.448182837500003,31.641039787500006,71.0,87.0
44,31.621396950000005,31.885682400000004,73.0,68.0
45,31.842825300000005,33.648180637500005,71.0,81.0
46,34.864250850000005,35.22139335000001,71.0,84.0
47,35.3053218375,37.01782012500001,71.0,83.0
48,43.208885362500006,43.444599412500004,66.0,76.0
49,43.426742287500005,43.67852775000001,71.0,83.0
50,43.63567065000001,43.914241800000006,73.0,72.0
51,43.876741837500006,44.7838837875,74.0,90.0
52,44.73209812500001,45.191026237500004,73.0,81.0
53,45.15709770000001,45.6142401,71.0,76.0
54,45.58566870000001,46.712453287500004,73.0,73.0
55,46.837453162500005,47.380309762500005,71.0,76.0
56,47.3410240875,48.666022762500006,73.0,75.0
57,49.033879537500006,50.28209257500001,71.0,69.0
58,49.02852240000001,50.312449687500006,74.0,79.0
59,50.28923542500001,50.76244923750001,73.0,72.0
60,50.728520700000004,52.319590537500005,74.0,85.0
61,52.44637612500001,54.589231125000005,76.0,79.0
62,54.576731137500005,55.05351637500001,74.0,82.0
63,54.994587862500005,55.50173021250001,71.0,73.0
64,55.430301712500004,55.787444212500006,74.0,80.0
65,55.873158412500004,57.48565680000001,76.0,83.0
66,57.57494242500001,59.04994095000001,69.0,75.0
67,57.57315671250001,59.05351237500001,73.0,67.0
68,59.29994070000001,60.68743931250001,67.0,90.0
69,59.29994070000001,61.03565325000001,71.0,101.0
70,60.98029616250001,62.373151912500006,73.0,93.0
71,60.98565330000001,62.758865812500005,69.0,96.0
72,62.73029441250001,63.60350782500001,74.0,108.0
73,63.564222150000006,64.48743551250001,76.0,106.0
74,64.44457841250001,64.95350647500001,78.0,101.0
75,64.88743511250001,65.34993465000001,76.0,110.0
76,65.33386323750001,65.79993420000001,74.0,107.0
77,65.74814853750001,66.23564805000001,78.0,104.0
78,66.18564810000001,67.88028926250001,79.0,107.0
79,67.867789275,68.35707450000001,81.0,106.0
80,68.3195745375,68.76064552500002,79.0,106.0
81,68.724931275,69.2052879375,76.0,103.0
82,69.16600226250002,69.62671608750001,79.0,96.0
83,69.62314466250001,70.82492917500001,74.0,107.0
84,69.60707325000001,70.90707195,78.0,97.0
85,70.82314346250001,71.3374286625,76.0,102.0
86,71.29814298750001,72.517784625,78.0,93.0
87,71.30350012500001,72.5284989,74.0,99.0
88,72.98206987500001,73.86599756250001,67.0,99.0
89,72.98206987500001,73.88564040000001,71.0,102.0
90,73.82135475000001,74.7445681125,74.0,107.0
91,74.71242528750001,75.16421055,73.0,98.0
92,75.15349627500001,75.64278150000001,74.0,107.0
93,75.5999244,76.3052808375,76.0,108.0
94,76.43742356250002,78.00885056250002,78.0,109.0
95,78.18385038750002,79.58027756250002,83.0,105.0
96,79.89099153750001,81.32206101250001,76.0,77.0
97,79.88563440000001,81.32206101250001,79.0,82.0
98,81.58206063333334,83.00346834583334,74.0,87.0
99,81.57115155833334,83.01796107916668,79.0,80.0
100,83.30962733750002,84.13659337916668,78.0,76.0
101,84.20980759166667,84.69909281666668,76.0,83.0
102,84.63837859166668,85.10980669166668,78.0,88.0
103,85.06694959166668,85.92052016666668,79.0,83.0
104,85.87766306666668,86.75087647916668,78.0,83.0
105,86.74016220416668,87.68123269166668,76.0,85.0
106,87.63123274166668,88.44551764166668,78.0,83.0
107,88.47230332916668,89.32944532916667,90.0,90.0
108,88.49551759166668,89.35087387916668,78.0,90.0
109,89.30265964166668,89.74015920416667,88.0,89.0
110,89.32587390416668,89.76337346666668,76.0,89.0
111,89.74373062916668,90.16873020416668,86.0,84.0
112,89.76694489166668,90.19194446666668,74.0,84.0
113,90.17230162916668,91.02587220416667,86.0,89.0
114,90.19373017916668,91.04730075416668,74.0,89.0
115,91.05265789166668,91.42630240625002,85.0,90.0
116,91.07587215416667,91.44935202916669,73.0,90.0
117,91.46176336458335,91.75431627083336,83.0,85.0
118,91.48303993958335,91.77559284583336,71.0,85.0
119,91.88374876875002,92.28091150208336,82.0,85.0
120,91.90679839166668,92.30396112500001,70.0,85.0
121,92.34474122708335,92.76672663125002,78.0,73.0
122,92.36601780208335,92.78800320625002,66.0,73.0
123,92.77027272708335,93.19225813125001,76.0,73.0
124,93.19580422708336,93.46353446250002,74.0,81.0
125,93.40856997708336,93.66388887708335,76.0,81.0
126,92.79154930208335,94.49325736458336,64.0,73.0
127,93.62133572708335,95.15039956458335,74.0,84.0
128,96.17004140208336,96.38611261458335,74.0,85.0
129,96.37004120208336,96.63432665208336,73.0,76.0
130,96.60575525208336,97.79325406458337,74.0,100.0
131,97.89861110208336,98.78432450208336,67.0,80.0
132,98.74682453958336,99.67182361458336,78.0,86.0
133,99.60218082708336,100.04146610208336,76.0,81.0
134,99.99325186458336,100.48075137708337,74.0,84.0
135,100.43789427708336,103.68431960208336,76.0,81.0
136,104.56646157708336,104.64146150208336,69.0,71.0
137,104.71289000208336,105.23253233958336,69.0,83.0
138,105.17360382708335,105.59324626458336,57.0,85.0
139,105.58610341458336,106.63253093958336,62.0,85.0
140,106.90753066458336,107.10038761458335,71.0,87.0
141,107.08074477708337,107.34503022708336,73.0,68.0
142,107.30217312708336,109.10752846458337,71.0,81.0
143,110.32359867708337,110.68074117708336,71.0,84.0
144,110.76466966458337,112.47716795208336,71.0,83.0
145,112.46645367708336,113.37359562708336,73.0,75.0
146,113.31823853958336,114.08788062708336,74.0,86.0
147,114.13252343958337,115.84680743958336,73.0,79.0
148,115.89145025208336,117.64859135208336,78.0,83.0
149,117.61644852708336,118.47001910208337,71.0,77.0
150,118.66823318958336,118.90394723958336,66.0,76.0
151,118.88609011458337,119.13787557708336,71.0,83.0
152,119.09501847708336,119.37358962708336,73.0,72.0
153,119.33608966458337,120.24323161458337,74.0,90.0
154,120.19144595208337,120.65037406458336,73.0,81.0
155,120.61644552708336,121.07358792708337,71.0,76.0
156,121.04501652708336,122.17180111458336,73.0,73.0
157,122.29680098958336,122.83965758958337,71.0,76.0
158,122.80037191458337,124.12537058958335,73.0,75.0
159,124.49322736458336,125.74144040208336,71.0,69.0
160,124.48787022708336,125.77179751458337,74.0,79.0
161,125.74858325208336,126.22179706458337,73.0,72.0
162,126.18786852708337,127.77893836458335,74.0,85.0
163,127.90572395208336,130.04857895208337,76.0,79.0
164,130.03607896458337,130.51286420208336,74.0,82.0
165,130.45393568958337,130.96107803958336,71.0,73.0
166,130.88964953958336,131.24679203958337,74.0,80.0
167,131.33250623958338,132.94500462708336,76.0,83.0
168,133.03429025208337,134.50928877708336,69.0,75.0
169,133.03250453958336,134.51286020208337,73.0,67.0
170,134.73071712708338,136.12000145208336,67.0,75.0
171,134.73607426458335,136.47357252708338,71.0,86.0
172,136.43964398958337,137.83249973958337,73.0,78.0
173,136.44500112708337,138.21821363958338,69.0,81.0
174,138.18964223958335,139.06285565208336,74.0,93.0
175,139.02356997708335,139.94678333958336,76.0,91.0
176,139.90392623958337,140.41285430208336,78.0,86.0
177,140.34678293958336,140.80928247708337,76.0,95.0
178,140.79321106458337,141.25928202708337,74.0,92.0
179,141.20749636458336,141.69499587708336,78.0,89.0
180,141.64499592708336,143.33963708958336,79.0,92.0
181,143.32713710208336,143.81642232708336,81.0,91.0
182,143.77892236458337,144.21999335208335,79.0,91.0
183,144.18427910208337,144.66463576458335,76.0,88.0
184,144.62535008958338,145.08606391458335,79.0,81.0
185,145.08249248958336,146.28427700208337,74.0,92.0
186,145.06642107708336,146.36641977708337,78.0,82.0
187,146.28249128958336,146.79677648958335,76.0,87.0
188,146.75749081458338,147.97713245208337,78.0,78.0
189,146.76284795208338,147.98784672708337,74.0,84.0
190,148.44141770208336,149.32534538958336,67.0,84.0
191,148.44141770208336,149.34498822708338,71.0,87.0
192,149.28070257708336,150.20391593958337,74.0,92.0
193,150.17177311458337,150.62355837708338,73.0,83.0
194,150.61284410208336,151.10212932708336,74.0,92.0
195,151.05927222708337,151.76462866458337,76.0,93.0
196,151.89677138958336,153.46819838958336,78.0,94.0
197,153.64319821458338,155.03962538958336,83.0,90.0
198,155.35033936458336,156.76105223958336,76.0,74.0
199,155.34498222708336,156.76105223958336,79.0,79.0
200,157.01640912708336,158.41462201458336,74.0,84.0
201,157.00569485208337,158.42890771458337,79.0,77.0
202,158.71640742708337,159.54319231458337,78.0,73.0
203,159.60033511458337,160.03426325208335,81.0,85.0
204,159.99319186458337,160.29497727708338,83.0,89.0
205,160.41283430208335,160.89854810208337,83.0,89.0
206,160.87711955208337,162.15926112708337,90.0,90.0
207,162.15390398958337,163.94675933958337,93.0,87.0
208,163.88247368958338,164.75925852708338,90.0,83.0
209,164.71997285208337,165.46818638958337,88.0,84.0
210,165.64318621458335,166.50747106458337,85.0,86.0
211,166.47711395208336,167.35389878958335,88.0,87.0
212,167.33425595208337,168.21461221458338,86.0,84.0
213,168.18068367708338,169.00925427708336,85.0,83.0
214,169.03961138958337,170.72889541458335,86.0,82.0
215,171.58960883958338,171.80210862708338,85.0,89.0
216,171.80032291458338,172.08425120208335,86.0,83.0
217,172.03960838958335,172.44317941458337,88.0,84.0
218,172.46460796458337,174.17710625208338,86.0,83.0
219,174.16996340208337,175.06996250208337,85.0,79.0
220,174.17710625208338,175.15389098958337,81.0,75.0
221,175.05389108958337,175.50746206458336,86.0,83.0
222,175.45389068958337,175.91460451458337,85.0,83.0
223,175.88067597708337,176.83246073958338,83.0,79.0
224,176.77174651458336,177.66817418958337,86.0,79.0
225,177.6110313895834,178.47353052708337,85.0,75.0
226,178.42888771458337,179.34852965208336,83.0,72.0
227,179.31995825208338,180.86281385208338,81.0,78.0
228,182.7860262145834,184.43423885208335,69.0,70.0
229,181.00209942708335,184.51995305208337,76.0,78.0
230,180.9985280020834,184.63066722708336,81.0,77.0
231,186.13245143958338,187.11280760208336,67.0,65.0
232,186.13959428958339,187.11637902708338,71.0,77.0
233,186.15030856458338,187.70030701458336,55.0,67.0
234,187.04495052708336,187.91994965208337,74.0,83.0
235,187.86637827708336,188.33244923958335,73.0,71.0
236,188.31102068958336,188.81102018958336,74.0,84.0
237,188.7610202395834,189.64494792708336,76.0,84.0
238,189.58601941458338,191.19673208958338,62.0,70.0
239,189.6056622520834,192.19851680208336,78.0,75.0
240,192.17530253958336,192.53423075208337,74.0,83.0
241,192.66280205208338,193.11994445208336,72.0,79.0
242,193.0931587645834,194.60387153958337,71.0,75.0
243,194.73779997708337,196.22886991458336,69.0,71.0
244,194.74315711458337,196.27172701458338,73.0,70.0
245,194.72887141458335,196.32529838958337,57.0,70.0
246,196.46101253958338,196.88601211458337,69.0,70.0
247,196.45029826458335,197.82886831458336,74.0,83.0
248,196.43958398958335,197.97351102708336,62.0,77.0
249,197.72708270208338,198.19851080208338,76.0,82.0
250,198.16993940208337,199.5110094895834,78.0,85.0
251,199.85922342708338,201.24672203958337,67.0,72.0
252,199.86458056458338,201.4770789520834,71.0,83.0
253,200.70743686458337,201.4877932270834,74.0,82.0
254,201.55386458958338,203.01993455208338,69.0,71.0
255,201.55922172708335,203.03957738958337,73.0,78.0
256,202.9092203770834,203.35029136458337,76.0,73.0
257,203.31100568958337,204.21457621458336,74.0,87.0
258,204.16100483958337,205.05921822708336,73.0,85.0
259,204.99314686458337,207.6520727770834,56.0,70.0
260,205.00564685208337,207.79314406458337,74.0,84.0
261,205.01457541458336,207.81992975208337,71.0,74.0
262,208.46992910208337,209.74314211458338,71.0,78.0
263,208.4413577020834,209.82528488958337,74.0,82.0
264,210.15742741458337,211.5288546145834,70.0,68.0
265,210.16814168958336,211.58599741458337,74.0,83.0
266,211.90385423958338,212.7949247770834,74.0,77.0
267,211.90206852708337,212.95742461458337,78.0,64.0
268,212.75742481458337,213.23956718958337,76.0,81.0
269,213.17528153958338,213.7484952520834,74.0,79.0
270,213.62170966458336,214.51278020208338,78.0,71.0
271,214.47706595208336,214.86456556458336,76.0,79.0
272,214.84670843958338,215.27706515208337,74.0,83.0
273,215.29670798958338,218.54313331458337,71.0,78.0
274,219.1359898645834,221.36277335208337,57.0,51.0
275,219.40563245208338,221.44848755208338,64.0,68.0
276,219.68420360208336,223.93419935208337,69.0,75.0
277,224.26991330208338,225.75562610208337,78.0,70.0
278,225.68241188958336,227.69848130208337,73.0,73.0
279,228.0806237770834,229.68240788958337,70.0,69.0
280,229.66455076458337,230.5181213395834,67.0,74.0
281,231.32169196458338,235.53597346458338,62.0,68.0
282,231.35383478958337,235.54668773958338,69.0,76.0
