,start,end,pitch,velocity
0,0.8982133875000001,1.6535697750000002,57.0,58.0
1,0.9678561750000001,1.7017840125000003,62.0,71.0
2,1.0303561125,1.7482125375000002,66.0,71.0
3,0.9928561500000002,1.7642839500000003,38.0,78.0
4,2.6982115875000003,3.2035682250000006,42.0,71.0
5,2.6999973,3.2232110625000003,61.0,74.0
6,2.6303545125000003,3.2696395875000004,58.0,63.0
7,2.7303544125000005,3.3999966000000006,66.0,70.0
8,4.332138525,5.053566375000001,59.0,57.0
9,4.4053527375,5.341066087500001,62.0,73.0
10,4.4482098375,5.3446375125,66.0,67.0
11,4.8589237125,5.4553516875,54.0,48.0
12,4.407138450000001,5.544637312500001,47.0,75.0
13,5.2660661625000005,5.6339229375,59.0,80.0
14,6.071422500000001,6.749993250000001,57.0,69.0
15,6.116065312500001,6.921421650000001,61.0,69.0
16,6.566064862500001,7.033921537500001,52.0,67.0
17,6.1803509625,7.037492962500001,64.0,58.0
18,6.157136700000001,7.091064337500001,45.0,70.0
19,7.785706500000001,7.953563475000001,64.0,76.0
20,7.728563700000001,8.091063337500001,59.0,69.0
21,7.878563550000001,8.6017771125,67.0,74.0
22,8.678562750000001,9.642847500000002,59.0,82.0
23,9.142848,9.682133175,67.0,69.0
24,9.587490412500001,9.8303473125,71.0,83.0
25,8.276777437500002,10.5053466375,47.0,62.0
26,7.848206437500001,10.562489437500002,40.0,85.0
27,11.116060312500002,11.514274200000001,57.0,57.0
28,11.171417400000001,11.530345612500001,61.0,69.0
29,11.282131575000001,11.6857026,64.0,71.0
30,12.112487887500002,12.967844175000002,57.0,79.0
31,12.548201737500001,13.032129825000002,64.0,84.0
32,12.971415600000002,13.466057962500003,69.0,81.0
33,13.391058037500002,13.596414975000002,57.0,65.0
34,11.699988300000001,13.899986100000001,52.0,74.0
35,11.260703025000002,13.955343187500002,45.0,84.0
36,13.833914737500002,13.971414600000001,61.0,83.0
37,13.832129025000002,14.035700250000001,57.0,82.0
38,13.839271875000001,14.044628812500003,64.0,84.0
39,14.612485387500001,14.862485137500002,57.0,64.0
40,14.685699600000001,15.014270700000003,62.0,71.0
41,14.760699525000001,15.110699175000002,66.0,73.0
42,14.723199562500001,15.787484212500003,38.0,84.0
43,16.332126525000003,16.633911937500002,58.0,63.0
44,16.466054962500003,17.271411300000004,66.0,76.0
45,16.394626462500003,17.314268400000003,61.0,77.0
46,16.423197862500004,17.330339812500004,42.0,82.0
47,16.851768862500002,17.344625512500002,49.0,70.0
48,17.276768437500003,17.457125400000002,58.0,79.0
49,18.1571247,18.655338487500003,62.0,75.0
50,18.1571247,18.664267050000003,59.0,76.0
51,19.014266700000004,19.157123700000003,62.0,79.0
52,19.014266700000004,19.2017665125,59.0,83.0
53,19.014266700000004,19.208909362500002,66.0,80.0
54,18.585695700000002,20.1124798875,54.0,69.0
55,19.871408700000003,20.274979725,66.0,72.0
56,19.871408700000003,20.285694000000003,62.0,76.0
57,20.2999797,20.874979125000003,54.0,65.0
58,20.728550700000003,20.946407625000003,59.0,83.0
59,20.728550700000003,20.982121875000004,62.0,84.0
60,18.1571247,20.983907587500003,47.0,84.0
61,20.728550700000003,21.078550350000004,66.0,83.0
62,21.585692700000003,22.09283505,67.0,78.0
63,21.585692700000003,22.094620762500004,64.0,79.0
64,21.585692700000003,22.362477637500003,59.0,76.0
65,22.442834700000002,22.560691725,64.0,83.0
66,22.442834700000002,22.592834550000003,67.0,79.0
67,22.871405700000004,23.110691175000003,59.0,64.0
68,23.299976700000002,23.578547850000003,59.0,82.0
69,23.299976700000002,23.619619237500004,64.0,85.0
70,22.014263700000004,23.66426205,47.0,64.0
71,21.585692700000003,23.692833450000002,40.0,85.0
72,24.1571187,24.54997545,67.0,79.0
73,24.1571187,24.553546875000002,64.0,84.0
74,24.585689700000003,24.692832450000004,59.0,83.0
75,25.014260700000005,25.555331587500003,61.0,76.0
76,25.014260700000005,25.574974425000004,64.0,83.0
77,25.014260700000005,25.710688575000002,57.0,75.0
78,25.871402700000004,26.128545300000003,57.0,79.0
79,25.871402700000004,26.128545300000003,61.0,75.0
80,25.442831700000003,26.885687400000002,52.0,72.0
81,26.728544700000004,27.180329962500004,64.0,84.0
82,26.728544700000004,27.226758487500003,61.0,85.0
83,26.728544700000004,27.239258475000003,57.0,78.0
84,27.585686700000004,27.812472187500003,57.0,77.0
85,27.585686700000004,28.007114850000004,61.0,82.0
86,27.157115700000002,28.101757612500002,52.0,74.0
87,25.014260700000005,28.130329012500003,45.0,84.0
88,28.014257700000005,28.935685350000004,57.0,86.0
89,28.442828700000003,28.951756762500004,66.0,70.0
90,28.442828700000003,28.962471037500002,62.0,77.0
91,29.299970700000003,29.437470562500003,62.0,84.0
92,29.299970700000003,29.494613362500004,66.0,84.0
93,29.728541700000005,29.921398650000004,57.0,83.0
94,30.157112700000003,30.446398125000005,57.0,78.0
95,30.157112700000003,30.544612312500004,62.0,80.0
96,31.014254700000006,31.174968825000004,62.0,83.0
97,31.014254700000006,31.196397375000004,57.0,78.0
98,31.014254700000006,31.205325937500003,66.0,74.0
99,28.442828700000003,31.337468662500005,50.0,84.0
100,31.442825700000004,31.605325537500004,61.0,86.0
101,31.871396700000005,32.35353907500001,62.0,83.0
102,31.871396700000005,32.37853905000001,59.0,79.0
103,32.7285387,32.8910385375,59.0,83.0
104,32.7285387,32.903538525,66.0,76.0
105,32.2999677,33.791037637500004,54.0,70.0
106,33.585680700000005,34.008894562500004,62.0,81.0
107,33.585680700000005,34.01782312500001,59.0,79.0
108,34.0142517,34.5999654,54.0,59.0
109,34.44282270000001,34.653536775000006,59.0,78.0
110,31.871396700000005,34.6946081625,47.0,83.0
111,34.44282270000001,34.6999653,62.0,83.0
112,34.44282270000001,34.74103668750001,66.0,83.0
113,34.871393700000006,35.2981789875,59.0,92.0
114,35.299964700000004,35.73924997500001,67.0,79.0
115,35.299964700000004,35.7481785375,64.0,80.0
116,35.7285357,35.9285355,59.0,75.0
117,35.299964700000004,35.93567835,40.0,84.0
118,36.15710670000001,36.353535075,59.0,83.0
119,36.15710670000001,36.5017492125,64.0,85.0
120,37.0142487,37.23567705000001,64.0,81.0
121,37.0142487,37.25531988750001,67.0,76.0
122,37.871390700000006,38.039247675000006,59.0,84.0
123,37.871390700000006,38.057104800000005,64.0,87.0
124,37.871390700000006,38.060676225,67.0,83.0
125,38.7285327,39.06960378750001,61.0,83.0
126,38.7285327,39.07853235,66.0,78.0
127,39.585674700000006,39.896388675000004,61.0,61.0
128,39.585674700000006,39.910674375000006,54.0,73.0
129,40.014245700000004,40.224959775,54.0,84.0
130,40.44281670000001,40.67317361250001,54.0,84.0
131,40.44281670000001,40.701745012500005,61.0,83.0
132,39.15710370000001,41.43388713750001,49.0,53.0
133,38.7285327,41.442815700000004,42.0,80.0
134,41.299958700000005,41.449958550000005,54.0,78.0
135,41.299958700000005,41.45888711250001,58.0,69.0
136,41.299958700000005,41.4981727875,61.0,75.0
137,42.15710070000001,42.685671600000006,62.0,78.0
138,42.15710070000001,42.7767429375,66.0,75.0
139,42.15710070000001,42.791028637500006,59.0,78.0
140,42.585671700000006,43.258885312500006,54.0,69.0
141,43.014242700000004,43.52317076250001,62.0,81.0
142,43.014242700000004,43.57317071250001,66.0,81.0
143,43.014242700000004,43.6124563875,59.0,82.0
144,43.44281370000001,44.02138455000001,54.0,65.0
145,42.15710070000001,44.03924167500001,47.0,84.0
146,43.87138470000001,44.17674153750001,59.0,78.0
147,43.87138470000001,44.324955675000005,62.0,79.0
148,44.299955700000005,44.45174126250001,59.0,78.0
149,44.7285267,44.95709790000001,59.0,86.0
150,44.7285267,45.053526375000004,62.0,89.0
151,44.7285267,45.07674063750001,66.0,87.0
152,45.58566870000001,46.03566825000001,61.0,78.0
153,45.58566870000001,46.226739487500005,54.0,77.0
154,46.014239700000005,46.63388193750001,49.0,64.0
155,46.4428107,46.8053103375,58.0,75.0
156,46.4428107,46.81423890000001,54.0,84.0
157,46.87138170000001,47.45888111250001,49.0,61.0
158,47.299952700000006,47.74459511250001,61.0,77.0
159,47.299952700000006,47.76959508750001,58.0,74.0
160,47.299952700000006,47.87495212500001,54.0,80.0
161,45.58566870000001,48.258880312500004,42.0,84.0
162,47.728523700000004,48.283880287500004,49.0,71.0
163,48.15709470000001,48.366023062500005,54.0,84.0
164,48.15709470000001,48.36780877500001,58.0,81.0
165,48.15709470000001,48.38745161250001,61.0,80.0
166,49.014236700000005,49.619593237500006,66.0,76.0
167,49.014236700000005,49.62316466250001,62.0,80.0
168,49.014236700000005,49.662450337500005,59.0,80.0
169,49.4428077,49.905307237500004,54.0,73.0
170,49.014236700000005,49.96602146250001,47.0,84.0
171,49.87137870000001,50.049949950000006,59.0,84.0
172,49.87137870000001,50.21602121250001,66.0,83.0
173,49.87137870000001,50.23387833750001,62.0,83.0
174,50.299949700000006,50.385663900000004,59.0,83.0
175,50.728520700000004,51.439234275000004,57.0,77.0
176,50.728520700000004,51.453519975000006,64.0,74.0
177,50.728520700000004,51.46066282500001,61.0,77.0
178,51.58566270000001,51.782091075000004,61.0,83.0
179,51.15709170000001,51.78566250000001,52.0,76.0
180,51.58566270000001,51.78744821250001,57.0,84.0
181,51.58566270000001,51.796376775000006,64.0,86.0
182,50.728520700000004,51.79994820000001,45.0,84.0
183,52.4428047,52.67137590000001,56.0,75.0
184,52.4428047,52.90173281250001,62.0,83.0
185,52.4428047,52.92851850000001,59.0,84.0
186,52.87137570000001,53.316018112500004,56.0,75.0
187,53.29994670000001,53.48923222500001,62.0,83.0
188,53.29994670000001,53.58744641250001,59.0,83.0
189,54.15708870000001,54.607088250000004,59.0,83.0
190,54.15708870000001,54.607088250000004,62.0,83.0
191,54.58565970000001,54.79994520000001,56.0,70.0
192,52.4428047,55.20351622500001,44.0,81.0
193,55.014230700000006,55.207087650000005,56.0,84.0
194,55.014230700000006,55.262444737500005,59.0,84.0
195,55.014230700000006,55.39101603750001,62.0,84.0
196,55.87137270000001,56.45172926250001,61.0,75.0
197,55.87137270000001,56.48922922500001,57.0,69.0
198,56.728514700000005,56.891014537500006,57.0,83.0
199,56.728514700000005,56.941014487500006,61.0,84.0
200,56.728514700000005,56.94458591250001,64.0,84.0
201,55.87137270000001,57.02315726250001,45.0,86.0
202,56.29994370000001,57.03030011250001,52.0,83.0
203,57.15708570000001,57.794585062500005,57.0,84.0
204,57.58565670000001,58.06065622500001,69.0,82.0
205,57.58565670000001,58.06601336250001,64.0,86.0
206,57.58565670000001,58.13565615000001,61.0,87.0
207,58.442798700000004,58.762441237500006,61.0,83.0
208,58.442798700000004,58.78208407500001,57.0,85.0
209,59.29994070000001,59.91779722500001,59.0,103.0
210,59.29994070000001,60.13743986250001,55.0,107.0
211,60.15708270000001,60.48029666250001,62.0,107.0
212,60.371368200000006,60.651725062500006,55.0,100.0
213,59.728511700000006,60.657082200000005,50.0,99.0
214,59.29994070000001,60.67315361250001,43.0,108.0
215,60.58565370000001,60.74279640000001,59.0,100.0
216,61.01422470000001,61.55350987500001,61.0,100.0
217,61.01422470000001,61.58208127500001,57.0,99.0
218,61.442795700000005,61.93743806250001,52.0,93.0
219,61.87136670000001,62.09279505000001,57.0,105.0
220,61.87136670000001,62.135652150000006,61.0,110.0
221,61.01422470000001,62.31243768750001,45.0,107.0
222,61.87136670000001,62.36243763750001,64.0,108.0
223,62.085652200000006,62.378509050000005,52.0,102.0
224,62.29993770000001,62.56065172500001,57.0,102.0
225,62.728508700000006,62.98743701250001,57.0,106.0
226,62.728508700000006,63.24100818750001,62.0,105.0
227,63.15707970000001,63.35707950000001,57.0,100.0
228,62.728508700000006,63.97136460000001,50.0,106.0
229,63.58565070000001,63.994578862500006,66.0,106.0
230,63.58565070000001,64.0552930875,62.0,106.0
231,64.01422170000001,64.2660071625,57.0,102.0
232,64.44279270000001,64.68386388750001,57.0,105.0
233,64.44279270000001,64.92136365,62.0,106.0
234,64.44279270000001,64.946363625,66.0,98.0
235,64.8713637,65.03386353750001,57.0,92.0
236,64.44279270000001,65.496363075,50.0,107.0
237,65.29993470000001,65.51422020000001,61.0,117.0
238,65.51422020000001,65.73029141250001,62.0,106.0
239,65.72850570000001,65.9374340625,61.0,102.0
240,65.9427912,66.04814823750002,57.0,106.0
241,66.1570767,66.52850490000002,59.0,108.0
242,66.1570767,66.57493342500001,55.0,107.0
243,66.58564770000001,67.15707570000001,50.0,95.0
244,67.01421870000001,67.18207567500001,55.0,106.0
245,66.1570767,67.253504175,43.0,107.0
246,67.01421870000001,67.28028986250001,59.0,111.0
247,67.01421870000001,67.31421840000002,62.0,107.0
248,67.4427897,67.61600381250001,50.0,107.0
249,67.4427897,67.70528943750001,43.0,106.0
250,67.87136070000001,68.36064592500001,57.0,99.0
251,67.87136070000001,68.4088601625,61.0,99.0
252,68.2999317,68.8695739875,52.0,99.0
253,67.87136070000001,68.874931125,45.0,107.0
254,68.7285027,68.9552881875,57.0,105.0
255,68.7285027,68.96778817500001,61.0,108.0
256,68.7285027,69.06064522500002,64.0,108.0
257,68.94278820000001,69.07314521250001,45.0,107.0
258,69.15707370000001,69.424930575,57.0,111.0
259,69.5856447,69.76778737500001,38.0,108.0
260,69.5856447,69.89635867500002,57.0,107.0
261,69.5856447,69.9552871875,62.0,107.0
262,70.65707220000002,70.90885766250001,62.0,97.0
263,70.8713577,71.09814318750001,64.0,106.0
264,70.01421570000001,71.1517145625,50.0,107.0
265,70.44278670000001,71.15350027500001,57.0,107.0
266,71.0856432,71.20707165,62.0,96.0
267,71.29992870000001,71.73564255000001,62.0,106.0
268,71.29992870000001,71.77492822500001,66.0,107.0
269,71.72849970000001,72.2517134625,57.0,97.0
270,71.29992870000001,72.31599911250001,50.0,108.0
271,72.1570707,72.38921332500001,66.0,104.0
272,72.1570707,72.482070375,62.0,102.0
273,72.1570707,72.53385603750002,69.0,106.0
274,72.58564170000001,72.7231415625,50.0,110.0
275,73.01421270000002,73.48206937500001,71.0,106.0
276,73.01421270000002,73.4838550875,62.0,101.0
277,73.01421270000002,73.49278365,67.0,100.0
278,73.4427837,73.97135460000001,50.0,95.0
279,73.87135470000001,74.19814008750001,62.0,107.0
280,73.87135470000001,74.23206862500001,67.0,107.0
281,73.87135470000001,74.324925675,71.0,107.0
282,73.01421270000002,74.35706850000001,43.0,105.0
283,74.2999257,74.54992545,50.0,106.0
284,74.72849670000001,75.14278200000001,64.0,108.0
285,74.72849670000001,75.20885336250001,69.0,106.0
286,75.5856387,75.74456711250001,69.0,107.0
287,75.5856387,75.7802813625,64.0,108.0
288,75.5856387,75.78206707500001,73.0,106.0
289,74.72849670000001,75.82135275000002,45.0,107.0
290,75.15706770000001,75.83742416250001,52.0,94.0
291,76.44278070000001,76.77492322500001,71.0,107.0
292,76.44278070000001,76.84278030000002,59.0,97.0
293,76.8713517,77.4517082625,54.0,91.0
294,77.29992270000001,77.80349362500002,59.0,107.0
295,77.29992270000001,77.8874221125,62.0,107.0
296,77.29992270000001,78.05527908750001,66.0,107.0
297,77.72849370000002,78.09099333750001,54.0,96.0
298,76.44278070000001,78.09992190000001,47.0,107.0
299,78.1570647,78.69099273750001,56.0,94.0
300,78.1570647,78.7124212875,59.0,103.0
301,78.1570647,78.77492122500001,44.0,97.0
302,78.1570647,78.78027836250001,62.0,105.0
303,79.87134870000001,80.40933507083335,62.0,87.0
304,79.87134870000001,80.42388050416668,55.0,84.0
305,80.3020625,80.85478896666667,50.0,80.0
306,79.87134870000001,81.08024318333335,43.0,90.0
307,80.7384255,81.1693339625,62.0,89.0
308,80.7384255,81.19478847083334,55.0,90.0
309,81.6111515,82.23660513333334,58.0,81.0
310,81.6111515,82.40926627916669,55.0,79.0
311,82.0475145,82.53970087916667,62.0,88.0
312,81.6111515,82.79513530416668,43.0,84.0
313,82.48354153750002,82.94187422916669,67.0,94.0
314,83.35266559166668,84.19730760416668,66.0,90.0
315,83.78123659166668,84.25980754166667,57.0,79.0
316,84.20980759166667,84.71337851666668,62.0,90.0
317,84.63837859166668,85.15087807916667,57.0,87.0
318,83.35266559166668,85.19016375416668,38.0,89.0
319,85.06694959166668,85.61516332916668,64.0,94.0
320,85.49552059166668,85.68837754166668,57.0,77.0
321,85.92409159166668,86.11337711666668,57.0,95.0
322,85.92409159166668,86.69373367916668,62.0,95.0
323,86.35266259166669,86.73123364166668,57.0,95.0
324,86.78123359166668,86.93301915416669,56.0,68.0
325,86.78123359166668,87.25087597916668,62.0,78.0
326,86.78123359166668,87.27587595416668,59.0,77.0
327,87.20980459166668,87.75444690416668,56.0,72.0
328,87.63837559166669,87.98837524166667,64.0,85.0
329,88.06694659166668,88.39730340416668,56.0,68.0
330,86.78123359166668,88.56873180416667,44.0,82.0
331,88.49551759166668,88.88837434166668,62.0,76.0
332,88.49551759166668,89.02765991666668,59.0,76.0
333,88.92408859166667,89.16694549166668,56.0,58.0
334,89.35265959166668,89.56158795416668,56.0,83.0
335,89.35265959166668,89.58301650416668,59.0,81.0
336,89.35265959166668,89.66873070416668,62.0,83.0
337,89.78123059166668,90.05980174166667,44.0,78.0
338,90.20980159166668,90.93301515416668,61.0,78.0
339,90.20980159166668,91.09015785416668,57.0,75.0
340,91.06694359166669,91.12587210416667,61.0,65.0
341,91.06694359166669,91.5025434666667,64.0,87.0
342,90.63837259166668,91.56282709583336,52.0,75.0
343,90.20980159166668,91.58055757500001,45.0,83.0
344,91.49367822708335,91.66211777916669,57.0,77.0
345,91.91920972708336,92.33587598750002,66.0,76.0
346,91.91920972708336,92.62133670208335,54.0,79.0
347,92.34474122708335,92.95466971041668,49.0,83.0
348,91.91920972708336,92.95821580625002,42.0,86.0
349,92.77027272708335,93.43339264791669,58.0,78.0
350,92.77027272708335,93.44225788750002,54.0,85.0
351,92.77027272708335,93.50076846875002,61.0,82.0
352,93.19580422708336,93.50963370833335,49.0,78.0
353,93.62133572708335,94.11601609583336,62.0,75.0
354,93.62133572708335,94.12488133541669,59.0,76.0
355,94.47361452708336,94.61647152708336,62.0,79.0
356,94.47361452708336,94.66111433958336,59.0,83.0
357,94.47361452708336,94.66825718958336,66.0,80.0
358,94.04686722708335,95.57182771458336,54.0,69.0
359,95.33075652708337,95.73432755208336,66.0,72.0
360,95.33075652708337,95.74504182708336,62.0,76.0
361,95.75932752708336,96.33432695208336,54.0,65.0
362,96.18789852708336,96.40575545208335,59.0,83.0
363,96.18789852708336,96.44146970208337,62.0,84.0
364,93.62133572708335,96.44325541458336,47.0,84.0
365,96.18789852708336,96.53789817708336,66.0,83.0
366,97.04504052708336,97.55218287708335,67.0,78.0
367,97.04504052708336,97.55396858958336,64.0,79.0
368,97.04504052708336,97.82182546458336,59.0,76.0
369,97.90218252708335,98.02003955208336,64.0,83.0
370,97.90218252708335,98.05218237708335,67.0,79.0
371,98.33075352708336,98.57003900208336,59.0,64.0
372,98.75932452708336,99.03789567708336,59.0,82.0
373,98.75932452708336,99.07896706458337,64.0,85.0
374,97.47361152708336,99.12360987708337,47.0,64.0
375,97.04504052708336,99.15218127708336,40.0,85.0
376,99.61646652708336,100.00932327708335,67.0,79.0
377,99.61646652708336,100.01289470208336,64.0,84.0
378,100.04503752708337,100.15218027708336,59.0,83.0
379,100.47360852708336,101.01467941458336,61.0,76.0
380,100.47360852708336,101.03432225208336,64.0,83.0
381,100.47360852708336,101.17003640208335,57.0,75.0
382,101.33075052708335,101.58789312708336,57.0,79.0
383,101.33075052708335,101.58789312708336,61.0,75.0
384,100.90217952708336,102.34503522708336,52.0,72.0
385,102.18789252708336,102.63967778958336,64.0,84.0
386,102.18789252708336,102.68610631458336,61.0,85.0
387,102.18789252708336,102.69860630208336,57.0,78.0
388,103.04503452708336,103.27182001458335,57.0,77.0
389,103.04503452708336,103.46646267708336,61.0,82.0
390,102.61646352708337,103.56110543958336,52.0,74.0
391,100.47360852708336,103.58967683958336,45.0,84.0
392,103.47360552708336,104.39503317708336,57.0,86.0
393,103.90217652708336,104.41110458958336,66.0,70.0
394,103.90217652708336,104.42181886458336,62.0,77.0
395,104.75931852708337,104.89681838958336,62.0,84.0
396,104.75931852708337,104.95396118958337,66.0,84.0
397,105.18788952708336,105.38074647708336,57.0,83.0
398,105.61646052708336,105.90574595208336,57.0,78.0
399,105.61646052708336,106.00396013958336,62.0,80.0
400,106.47360252708336,106.63431665208336,62.0,83.0
401,106.47360252708336,106.65574520208337,57.0,78.0
402,106.47360252708336,106.66467376458336,66.0,74.0
403,103.90217652708336,106.79681648958336,50.0,84.0
404,106.90217352708336,107.06467336458336,61.0,86.0
405,107.33074452708337,107.81288690208336,62.0,83.0
406,107.33074452708337,107.83788687708336,59.0,79.0
407,108.18788652708336,108.35038636458336,59.0,83.0
408,108.18788652708336,108.36288635208336,66.0,76.0
409,107.75931552708336,109.25038546458336,54.0,70.0
410,109.04502852708336,109.46824238958337,62.0,81.0
411,109.04502852708336,109.47717095208336,59.0,79.0
412,109.47359952708337,110.05931322708336,54.0,59.0
413,109.90217052708336,110.11288460208337,59.0,78.0
414,107.33074452708337,110.15395598958337,47.0,83.0
415,109.90217052708336,110.15931312708337,62.0,83.0
416,109.90217052708336,110.20038451458336,66.0,83.0
417,110.33074152708336,110.75752681458336,59.0,92.0
418,110.75931252708337,111.19859780208336,67.0,79.0
419,110.75931252708337,111.20752636458336,64.0,80.0
420,111.18788352708336,111.38788332708336,59.0,75.0
421,110.75931252708337,111.39502617708337,40.0,84.0
422,111.61645452708336,111.81288290208336,59.0,83.0
423,111.61645452708336,111.96109703958336,64.0,85.0
424,112.47359652708336,112.69502487708337,64.0,81.0
425,112.47359652708336,112.71466771458336,67.0,76.0
426,113.33073852708335,113.49859550208336,59.0,84.0
427,113.33073852708335,113.51645262708337,64.0,87.0
428,113.33073852708335,113.52002405208336,67.0,83.0
429,114.18788052708337,114.52895161458336,61.0,83.0
430,114.18788052708337,114.53788017708337,66.0,78.0
431,115.04502252708336,115.35573650208336,61.0,61.0
432,115.04502252708336,115.37002220208336,54.0,73.0
433,115.47359352708337,115.68430760208336,54.0,84.0
434,115.90216452708336,116.13252143958337,54.0,84.0
435,115.90216452708336,116.16109283958336,61.0,83.0
436,114.61645152708337,116.89323496458337,49.0,53.0
437,114.18788052708337,116.90216352708336,42.0,80.0
438,116.75930652708337,116.90930637708337,54.0,78.0
439,116.75930652708337,116.91823493958336,58.0,69.0
440,116.75930652708337,116.95752061458336,61.0,75.0
441,117.61644852708336,118.14501942708335,62.0,78.0
442,117.61644852708336,118.23609076458337,66.0,75.0
443,117.61644852708336,118.25037646458335,59.0,78.0
444,118.04501952708335,118.71823313958336,54.0,69.0
445,118.47359052708336,118.98251858958336,62.0,81.0
446,118.47359052708336,119.03251853958336,66.0,81.0
447,118.47359052708336,119.07180421458337,59.0,82.0
448,118.90216152708336,119.48073237708337,54.0,65.0
449,117.61644852708336,119.49858950208336,47.0,84.0
450,119.33073252708337,119.63608936458337,59.0,78.0
451,119.33073252708337,119.78430350208336,62.0,79.0
452,119.75930352708336,119.91108908958336,59.0,78.0
453,120.18787452708337,120.41644572708336,59.0,86.0
454,120.18787452708337,120.51287420208337,62.0,89.0
455,120.18787452708337,120.53608846458336,66.0,87.0
456,121.04501652708336,121.49501607708336,61.0,78.0
457,121.04501652708336,121.68608731458336,54.0,77.0
458,121.47358752708337,122.09322976458336,49.0,64.0
459,121.90215852708336,122.26465816458337,58.0,75.0
460,121.90215852708336,122.27358672708337,54.0,84.0
461,122.33072952708336,122.91822893958337,49.0,61.0
462,122.75930052708337,123.20394293958336,61.0,77.0
463,122.75930052708337,123.22894291458337,58.0,74.0
464,122.75930052708337,123.33429995208337,54.0,80.0
465,121.04501652708336,123.71822813958336,42.0,84.0
466,123.18787152708336,123.74322811458336,49.0,71.0
467,123.61644252708336,123.82537088958337,54.0,84.0
468,123.61644252708336,123.82715660208336,58.0,81.0
469,123.61644252708336,123.84679943958336,61.0,80.0
470,124.47358452708336,125.07894106458336,66.0,76.0
471,124.47358452708336,125.08251248958337,62.0,80.0
472,124.47358452708336,125.12179816458337,59.0,80.0
473,124.90215552708337,125.36465506458336,54.0,73.0
474,124.47358452708336,125.42536928958336,47.0,84.0
475,125.33072652708336,125.50929777708336,59.0,84.0
476,125.33072652708336,125.67536903958336,66.0,83.0
477,125.33072652708336,125.69322616458336,62.0,83.0
478,125.75929752708336,125.84501172708336,59.0,83.0
479,126.18786852708337,126.89858210208337,57.0,77.0
480,126.18786852708337,126.91286780208335,64.0,74.0
481,126.18786852708337,126.92001065208336,61.0,77.0
482,127.04501052708336,127.24143890208336,61.0,83.0
483,126.61643952708337,127.24501032708336,52.0,76.0
484,127.04501052708336,127.24679603958336,57.0,84.0
485,127.04501052708336,127.25572460208336,64.0,86.0
486,126.18786852708337,127.25929602708337,45.0,84.0
487,127.90215252708336,128.13072372708336,56.0,75.0
488,127.90215252708336,128.36108063958335,62.0,83.0
489,127.90215252708336,128.38786632708337,59.0,84.0
490,128.33072352708336,128.77536593958337,56.0,75.0
491,128.75929452708337,128.94858005208337,62.0,83.0
492,128.75929452708337,129.04679423958336,59.0,83.0
493,129.61643652708335,130.06643607708338,59.0,83.0
494,129.61643652708335,130.06643607708338,62.0,83.0
495,130.04500752708336,130.25929302708337,56.0,70.0
496,127.90215252708336,130.66286405208336,44.0,81.0
497,130.47357852708336,130.66643547708335,56.0,84.0
498,130.47357852708336,130.72179256458338,59.0,84.0
499,130.47357852708336,130.85036386458336,62.0,84.0
500,131.33072052708337,131.91107708958336,61.0,75.0
501,131.33072052708337,131.94857705208335,57.0,69.0
502,132.18786252708338,132.35036236458336,57.0,83.0
503,132.18786252708338,132.40036231458336,61.0,84.0
504,132.18786252708338,132.40393373958335,64.0,84.0
505,131.33072052708337,132.48250508958336,45.0,86.0
506,131.75929152708335,132.48964793958336,52.0,83.0
507,132.61643352708336,133.25393288958338,57.0,84.0
508,133.04500452708336,133.52000405208338,69.0,82.0
509,133.04500452708336,133.52536118958335,64.0,86.0
510,133.04500452708336,133.59500397708337,61.0,87.0
511,133.90214652708337,134.22178906458336,61.0,83.0
512,133.90214652708337,134.24143190208338,57.0,85.0
513,134.75928852708336,135.37714505208336,59.0,93.0
514,134.75928852708336,135.59678768958338,55.0,97.0
515,135.61643052708337,135.93964448958337,62.0,97.0
516,135.83071602708335,136.11107288958337,55.0,90.0
517,135.18785952708336,136.11643002708337,50.0,89.0
518,134.75928852708336,136.13250143958336,43.0,98.0
519,136.04500152708337,136.20214422708335,59.0,90.0
520,136.47357252708338,137.01285770208335,61.0,90.0
521,136.47357252708338,137.04142910208336,57.0,89.0
522,136.90214352708335,137.39678588958336,52.0,83.0
523,137.33071452708336,137.55214287708336,57.0,95.0
524,137.33071452708336,137.59499997708338,61.0,100.0
525,136.47357252708338,137.77178551458337,45.0,97.0
526,137.33071452708336,137.82178546458337,64.0,98.0
527,137.54500002708338,137.83785687708337,52.0,92.0
528,137.75928552708336,138.01999955208336,57.0,92.0
529,138.18785652708337,138.44678483958336,57.0,96.0
530,138.18785652708337,138.70035601458335,62.0,95.0
531,138.61642752708337,138.81642732708337,57.0,90.0
532,138.18785652708337,139.43071242708336,50.0,96.0
533,139.04499852708335,139.45392668958337,66.0,96.0
534,139.04499852708335,139.51464091458337,62.0,96.0
535,139.47356952708336,139.72535498958337,57.0,92.0
536,139.90214052708336,140.14321171458337,57.0,95.0
537,139.90214052708336,140.38071147708337,62.0,96.0
538,139.90214052708336,140.40571145208338,66.0,88.0
539,140.33071152708337,140.49321136458337,57.0,82.0
540,139.90214052708336,140.95571090208335,50.0,97.0
541,140.75928252708337,140.97356802708336,61.0,107.0
542,140.97356802708336,141.18963923958336,62.0,96.0
543,141.18785352708335,141.39678188958337,61.0,92.0
544,141.40213902708336,141.50749606458336,57.0,96.0
545,141.61642452708338,141.98785272708335,59.0,98.0
546,141.61642452708338,142.03428125208336,55.0,97.0
547,142.04499552708336,142.61642352708336,50.0,85.0
548,142.47356652708336,142.64142350208337,55.0,96.0
549,141.61642452708338,142.71285200208337,43.0,97.0
550,142.47356652708336,142.73963768958336,59.0,101.0
551,142.47356652708336,142.77356622708336,62.0,97.0
552,142.90213752708337,143.07535163958337,50.0,97.0
553,142.90213752708337,143.16463726458338,43.0,96.0
554,143.33070852708337,143.81999375208335,57.0,89.0
555,143.33070852708337,143.86820798958337,61.0,89.0
556,143.75927952708338,144.32892181458337,52.0,89.0
557,143.33070852708337,144.33427895208337,45.0,97.0
558,144.18785052708336,144.41463601458338,57.0,95.0
559,144.18785052708336,144.42713600208336,61.0,98.0
560,144.18785052708336,144.51999305208335,64.0,98.0
561,144.40213602708337,144.53249303958336,45.0,97.0
562,144.61642152708336,144.88427840208337,57.0,101.0
563,145.04499252708337,145.22713520208336,38.0,98.0
564,145.04499252708337,145.35570650208336,57.0,97.0
565,145.04499252708337,145.41463501458338,62.0,97.0
566,146.11642002708336,146.36820548958337,62.0,87.0
567,146.33070552708335,146.55749101458338,64.0,96.0
568,145.47356352708337,146.61106238958337,50.0,97.0
569,145.90213452708338,146.61284810208338,57.0,97.0
570,146.54499102708337,146.66641947708337,62.0,86.0
571,146.75927652708336,147.19499037708337,62.0,96.0
572,146.75927652708336,147.23427605208337,66.0,97.0
573,147.18784752708336,147.71106128958337,57.0,87.0
574,146.75927652708336,147.77534693958336,50.0,98.0
575,147.61641852708337,147.84856115208336,66.0,94.0
576,147.61641852708337,147.94141820208336,62.0,92.0
577,147.61641852708337,147.99320386458336,69.0,96.0
578,148.04498952708337,148.18248938958337,50.0,100.0
579,148.47356052708335,148.94141720208336,71.0,96.0
580,148.47356052708335,148.94320291458337,62.0,91.0
581,148.47356052708335,148.95213147708336,67.0,90.0
582,148.90213152708338,149.43070242708336,50.0,85.0
583,149.33070252708336,149.65748791458336,62.0,97.0
584,149.33070252708336,149.69141645208336,67.0,97.0
585,149.33070252708336,149.78427350208335,71.0,97.0
586,148.47356052708335,149.81641632708337,43.0,95.0
587,149.75927352708337,150.00927327708337,50.0,96.0
588,150.18784452708337,150.60212982708336,64.0,98.0
589,150.18784452708337,150.66820118958336,69.0,96.0
590,151.04498652708338,151.20391493958337,69.0,97.0
591,151.04498652708338,151.23962918958335,64.0,98.0
592,151.04498652708338,151.24141490208336,73.0,96.0
593,150.18784452708337,151.28070057708337,45.0,97.0
594,150.61641552708338,151.29677198958336,52.0,84.0
595,151.90212852708336,152.23427105208336,71.0,97.0
596,151.90212852708336,152.30212812708336,59.0,87.0
597,152.33069952708337,152.91105608958338,54.0,81.0
598,152.75927052708337,153.26284145208336,59.0,97.0
599,152.75927052708337,153.34676993958337,62.0,97.0
600,152.75927052708337,153.51462691458337,66.0,97.0
601,153.18784152708338,153.55034116458336,54.0,86.0
602,151.90212852708336,153.55926972708338,47.0,97.0
603,153.61641252708336,154.15034056458336,56.0,84.0
604,153.61641252708336,154.17176911458336,59.0,93.0
605,153.61641252708336,154.23426905208336,44.0,87.0
606,153.61641252708336,154.23962618958336,62.0,95.0
607,155.33069652708338,155.86462456458338,62.0,89.0
608,155.33069652708338,155.87891026458337,55.0,86.0
609,155.75926752708335,156.30212412708337,50.0,82.0
610,155.33069652708338,156.52355247708337,43.0,92.0
611,156.18783852708336,156.61105238958336,62.0,91.0
612,156.18783852708336,156.63605236458338,55.0,92.0
613,157.04498052708337,157.65926562708336,58.0,83.0
614,157.04498052708337,157.82890831458337,55.0,81.0
615,157.47355152708337,157.95747961458338,62.0,90.0
616,157.04498052708337,158.20926507708336,43.0,86.0
617,157.90212252708338,158.3539077895834,67.0,96.0
618,158.75926452708336,159.60390653958336,66.0,92.0
619,159.18783552708337,159.66640647708337,57.0,81.0
620,159.61640652708337,160.11997745208336,62.0,92.0
621,160.04497752708335,160.55747701458336,57.0,89.0
622,158.75926452708336,160.5967626895834,38.0,91.0
623,160.47354852708338,161.02176226458337,64.0,96.0
624,160.90211952708336,161.09497647708338,57.0,79.0
625,161.33069052708336,161.51997605208336,57.0,97.0
626,161.33069052708336,162.10033261458335,62.0,97.0
627,161.75926152708337,162.13783257708337,57.0,97.0
628,162.18783252708337,162.84318901458337,55.0,86.0
629,162.18783252708337,162.84318901458337,62.0,85.0
630,163.04497452708335,163.21997435208337,55.0,86.0
631,163.04497452708335,163.52175976458335,59.0,86.0
632,162.18783252708337,163.56283115208336,43.0,89.0
633,162.61640352708338,163.57890256458336,50.0,84.0
634,163.4735455270834,163.65747391458336,55.0,88.0
635,163.90211652708336,164.80568705208339,57.0,88.0
636,164.75925852708338,165.06818678958336,61.0,92.0
637,164.33068752708337,165.3610436395834,52.0,85.0
638,163.90211652708336,165.46640067708336,45.0,89.0
639,165.61640052708339,166.30032841458336,57.0,84.0
640,165.61640052708339,166.32354267708337,61.0,89.0
641,166.47354252708337,166.80211362708337,64.0,90.0
642,166.04497152708336,167.20032751458336,52.0,81.0
643,166.90211352708337,167.21282750208337,57.0,95.0
644,165.61640052708339,167.25747031458337,45.0,84.0
645,167.33068452708335,167.8271126020834,61.0,82.0
646,167.33068452708335,167.83425545208337,57.0,89.0
647,167.75925552708338,168.26461216458335,52.0,82.0
648,167.33068452708335,168.46996910208338,45.0,84.0
649,168.18782652708336,168.47711195208336,57.0,86.0
650,168.18782652708336,168.49496907708337,61.0,93.0
651,168.18782652708336,168.57175471458336,64.0,90.0
652,168.61639752708336,169.11461131458339,57.0,92.0
653,169.04496852708337,169.76461066458336,66.0,94.0
654,169.68782502708336,169.96639617708337,57.0,88.0
655,169.90211052708338,170.12711030208337,62.0,89.0
656,170.11639602708337,170.38425290208338,57.0,83.0
657,169.47353952708337,170.58782412708337,45.0,82.0
658,169.04496852708337,170.60210982708338,38.0,84.0
659,170.33068152708336,170.63068122708336,62.0,88.0
660,170.54496702708337,170.69139545208338,57.0,81.0
661,170.7592525270834,170.98425230208338,57.0,82.0
662,170.7592525270834,171.20210922708338,64.0,91.0
663,171.18782352708337,171.43425185208338,57.0,86.0
664,170.97353802708335,171.80210862708338,45.0,84.0
665,171.61639452708337,171.92353707708338,57.0,90.0
666,171.61639452708337,171.94853705208337,61.0,93.0
667,170.7592525270834,171.96639417708337,38.0,93.0
668,172.04496552708338,172.30925097708337,62.0,85.0
669,172.47353652708335,173.36282135208336,66.0,77.0
670,172.47353652708335,173.40032131458338,59.0,83.0
671,172.9021075270834,173.44317841458337,54.0,81.0
672,172.47353652708335,173.55032116458335,47.0,86.0
673,173.33067852708336,173.73603526458336,62.0,92.0
674,173.75924952708337,173.90567795208335,59.0,93.0
675,174.18782052708337,174.91460551458337,61.0,89.0
676,174.18782052708337,175.09139105208337,57.0,88.0
677,174.61639152708335,175.2681765895834,52.0,84.0
678,174.18782052708337,175.29317656458338,45.0,87.0
679,175.04496252708338,175.44853355208338,64.0,89.0
680,175.90210452708337,176.85031786458336,68.0,90.0
681,176.33067552708337,177.40924587708338,50.0,77.0
682,175.90210452708337,177.53781717708335,44.0,88.0
683,176.75924652708338,177.76995980208338,64.0,90.0
684,177.18781752708338,178.23067362708338,71.0,87.0
685,178.04495952708336,178.26460216458338,64.0,76.0
686,178.47353052708337,178.68245888958336,64.0,89.0
687,178.47353052708337,178.93424435208337,71.0,90.0
688,179.33067252708338,179.53067232708338,69.0,82.0
689,179.33067252708338,179.56281515208337,64.0,83.0
690,180.1878145270834,180.30388583958336,57.0,89.0
691,180.40210002708335,180.53959988958337,61.0,81.0
692,179.75924352708336,180.84495672708337,52.0,88.0
693,180.61638552708337,180.85209957708338,62.0,77.0
694,179.33067252708338,180.85745671458335,45.0,88.0
695,181.04495652708337,181.34674193958335,62.0,84.0
696,181.04495652708337,181.66817018958335,45.0,90.0
697,181.90209852708335,182.41102658958337,64.0,99.0
698,181.90209852708335,182.42531228958336,45.0,92.0
699,182.3306695270834,182.47888366458338,52.0,81.0
700,182.75924052708336,182.96102603958337,69.0,85.0
701,182.75924052708336,182.98424030208338,64.0,88.0
702,183.18781152708337,185.4074521645834,52.0,80.0
703,182.75924052708336,185.48066637708337,45.0,90.0
704,186.18780852708338,186.76995080208337,55.0,79.0
705,186.18780852708338,187.0628076520834,59.0,79.0
706,186.61637952708338,187.48602151458337,50.0,72.0
707,186.18780852708338,187.5181643395834,43.0,87.0
708,187.04495052708336,187.52173576458335,55.0,90.0
709,187.4735215270834,187.96994960208337,59.0,90.0
710,187.90209252708337,188.75387738958335,61.0,85.0
711,188.33066352708337,188.92173436458336,52.0,77.0
712,187.90209252708337,188.97709145208336,45.0,88.0
713,188.75923452708338,189.64316221458336,57.0,83.0
714,190.04494752708337,190.53958988958337,57.0,76.0
715,189.6163765270834,190.87887526458337,66.0,78.0
716,190.47351852708337,190.9931608645834,62.0,88.0
717,189.6163765270834,191.15208927708338,38.0,84.0
718,190.90208952708338,191.1717321145834,57.0,70.0
719,191.33066052708335,191.78601721458335,62.0,88.0
720,191.33066052708335,191.9038742395834,57.0,84.0
721,192.18780252708336,192.43244513958336,57.0,87.0
722,191.33066052708335,192.46101653958337,38.0,89.0
723,192.18780252708336,192.59673068958335,66.0,87.0
724,192.18780252708336,192.60744496458338,62.0,88.0
725,192.61637352708337,192.73065912708336,57.0,78.0
726,193.04494452708337,193.69315816458337,55.0,77.0
727,193.04494452708337,193.72887241458338,62.0,84.0
728,193.04494452708337,194.19672908958336,43.0,84.0
729,193.47351552708338,194.22708620208337,50.0,74.0
730,193.90208652708338,194.33244323958337,59.0,86.0
731,194.33065752708336,194.53422875208338,55.0,89.0
732,194.7592285270834,195.26637087708338,57.0,81.0
733,194.7592285270834,195.27351372708335,61.0,89.0
734,195.18779952708337,195.72708470208337,52.0,76.0
735,195.61637052708338,195.83422745208338,57.0,88.0
736,194.7592285270834,195.84315601458337,45.0,87.0
737,196.47351252708336,197.08779762708338,62.0,81.0
738,196.47351252708336,197.13601186458337,66.0,77.0
739,197.33065452708337,197.75565410208338,64.0,90.0
740,196.9020835270834,197.80565405208336,45.0,64.0
741,197.75922552708337,197.96993960208337,62.0,87.0
742,196.47351252708336,197.97708245208338,38.0,88.0
743,198.18779652708338,198.5574390145834,57.0,86.0
744,198.18779652708338,198.88422440208336,66.0,86.0
745,198.61636752708336,199.1681526895834,45.0,75.0
746,198.18779652708338,199.28600971458337,38.0,94.0
747,199.0449385270834,199.47529523958337,57.0,89.0
748,199.47350952708337,199.59493797708336,38.0,94.0
749,199.0449385270834,199.7788663645834,62.0,90.0
750,199.68779502708338,200.00208042708337,57.0,88.0
751,200.5449370270834,200.79672248958337,59.0,88.0
752,200.33065152708338,200.80386533958335,55.0,88.0
753,200.75922252708335,201.03779367708336,62.0,88.0
754,199.90208052708337,201.37172191458336,43.0,89.0
755,200.11636602708336,201.37529333958338,50.0,82.0
756,200.97350802708337,201.38957903958337,55.0,90.0
757,201.1877935270834,201.47172181458336,59.0,88.0
758,201.40207902708337,201.70207872708338,67.0,84.0
759,201.83065002708338,202.41636372708336,52.0,83.0
760,202.04493552708337,202.53422075208337,57.0,89.0
761,202.47350652708337,202.81636332708337,49.0,90.0
762,202.25922102708336,202.9324346395834,61.0,92.0
763,201.61636452708336,202.97529173958338,45.0,89.0
764,202.6877920270834,203.06993450208336,52.0,89.0
765,202.90207752708338,203.15564870208337,57.0,94.0
766,203.11636302708337,203.22886291458337,61.0,88.0
767,203.33064852708338,203.58957683958337,59.0,89.0
768,203.33064852708338,203.82707660208337,62.0,89.0
769,203.75921952708336,203.93779077708336,59.0,89.0
770,204.1877905270834,204.36636177708337,59.0,92.0
771,203.33064852708338,204.40386173958336,47.0,92.0
772,204.1877905270834,204.5985044020834,62.0,93.0
773,204.1877905270834,204.62350437708338,66.0,91.0
774,204.61636152708337,204.68600431458339,59.0,80.0
775,204.95921832708336,206.19314566458337,44.0,89.0
776,205.1860038145834,206.28064557708336,64.0,89.0
777,205.12350387708338,206.32885981458338,59.0,79.0
778,205.00386113958336,206.33778837708337,56.0,80.0
779,208.32528638958337,209.03778567708338,55.0,74.0
780,208.40921487708337,209.43599956458337,59.0,70.0
781,208.4967147895834,209.61278510208336,62.0,57.0
782,208.4074291645834,209.91278480208337,43.0,75.0
783,208.83778587708338,209.91457051458337,50.0,67.0
784,209.36099963958338,210.7609982395834,55.0,60.0
785,210.05742751458337,211.08778362708335,58.0,71.0
786,210.15742741458337,211.1056407520834,62.0,77.0
787,210.23599876458337,211.13064072708337,67.0,80.0
788,210.65921262708338,211.14492642708336,50.0,60.0
789,211.06635507708336,211.1842121020834,55.0,84.0
790,210.14135600208337,211.29314056458338,43.0,84.0
791,211.69849730208338,212.01813983958337,57.0,68.0
792,211.80742576458337,212.2163539270834,62.0,77.0
793,211.89671138958337,212.65742491458337,66.0,77.0
794,212.74849625208338,213.41456701458338,64.0,84.0
795,213.15563870208337,213.7038524395834,57.0,78.0
796,212.31813953958337,214.37528033958336,45.0,60.0
797,211.85564000208336,214.45385168958336,38.0,87.0
798,213.61099538958337,214.5145659145834,62.0,82.0
799,214.0377806770834,214.5270659020834,57.0,70.0
800,214.4717088145834,214.65742291458338,66.0,88.0
801,215.22885091458338,215.51099348958337,56.0,71.0
802,215.39849360208336,215.79849320208336,62.0,82.0
803,215.75563610208337,216.30206412708338,56.0,73.0
804,215.3252793895834,216.7699208020834,59.0,78.0
805,216.68242088958337,217.11992045208336,56.0,76.0
806,216.2359927645834,217.1484918520834,64.0,88.0
807,215.30742226458338,217.18599181458336,44.0,81.0
808,219.20920407708337,220.3342029520834,52.0,78.0
809,218.97884716458339,220.34313151458338,45.0,79.0
810,219.38241818958338,221.85920142708338,57.0,70.0
811,219.53956088958336,222.53241503958338,61.0,74.0
812,219.95920332708337,222.80920047708338,69.0,49.0
813,219.72170356458338,222.83598616458337,64.0,70.0
814,223.80741376458337,224.00919927708338,57.0,59.0
815,223.86991370208338,224.58062727708338,62.0,77.0
816,223.93955648958337,224.9984840020834,66.0,76.0
817,224.7931270645834,225.52169776458337,62.0,82.0
818,225.70026901458337,226.36098263958337,64.0,72.0
819,225.2538408895834,226.66812518958338,57.0,68.0
820,224.34491322708337,227.22348177708338,45.0,58.0
821,223.88062797708338,227.3091959770834,38.0,90.0
822,226.6038395395834,227.69848130208337,62.0,76.0
823,227.0806247770834,227.72705270208337,57.0,56.0
824,228.10026661458338,228.7859802145834,55.0,68.0
825,228.17348082708338,228.80740876458339,58.0,71.0
826,228.27705215208337,228.91098008958338,62.0,81.0
827,228.06455236458336,228.91633722708337,50.0,65.0
828,227.92169536458337,228.92169436458337,46.0,73.0
829,227.72883841458338,229.06276565208339,43.0,64.0
830,231.04847795208337,231.16097783958338,57.0,41.0
831,231.07526363958337,231.24847775208337,62.0,81.0
832,231.06990650208337,231.58776312708338,38.0,89.0
833,231.1841921020834,232.16633397708338,66.0,81.0
834,232.55919072708338,232.7556191020834,64.0,78.0
835,232.76454766458338,232.88597611458337,66.0,88.0
836,232.99847600208338,233.13776157708338,69.0,84.0
837,233.22883291458336,233.34668993958337,74.0,87.0
838,233.49847550208338,233.65740391458337,76.0,82.0
839,233.78061807708337,233.92883221458337,78.0,80.0
840,234.0949034770834,234.2270462020834,81.0,72.0
841,234.44311741458338,234.64490292708336,86.0,80.0
842,234.86990270208338,235.03954538958337,85.0,71.0
843,235.25204517708337,235.44668783958338,88.0,76.0
844,235.67525903958338,235.90204452708338,90.0,72.0
845,236.3877583270834,236.48954393958337,93.0,77.0
846,232.35204807708337,236.80204362708338,57.0,72.0
847,232.10740546458337,236.98061487708338,50.0,64.0
