,start,end,pitch,velocity
0,24.33693644375,24.4254456875,64.0,89.0
1,24.58538344375,24.75308516875,67.0,69.0
2,24.83383044375,25.00153216875,69.0,75.0
3,25.08227744375,25.218923293750002,71.0,76.0
4,25.33072444375,25.442525593750002,71.0,70.0
5,25.57917144375,25.69097259375,71.0,69.0
6,25.82761844375,25.99997855,71.0,74.0
7,26.07606544375,26.2080529125,69.0,73.0
8,26.324512443750002,26.44563035625,67.0,68.0
9,26.57295944375,26.704946912500002,71.0,74.0
10,26.82140644375,26.9471827375,71.0,69.0
11,27.069853443750002,27.1956297375,71.0,72.0
12,27.31830044375,27.46736864375,71.0,75.0
13,27.56674744375,27.6925237375,69.0,75.0
14,27.815194443750002,27.930101181250002,67.0,75.0
15,28.06364144375,28.175442593750002,69.0,71.0
16,28.31208844375,28.4192312125,69.0,73.0
17,28.560535443750002,28.697181293750003,69.0,72.0
18,28.80898244375,28.9347587375,69.0,69.0
19,29.05742944375,29.1894169125,67.0,71.0
20,29.30587644375,29.48289493125,69.0,74.0
21,29.55432344375,30.35556501875,64.0,74.0
22,31.04500544375,31.15680659375,76.0,73.0
23,31.293452443750002,31.413017562500002,76.0,73.0
24,31.54189944375,31.670781325,76.0,72.0
25,31.79034644375,31.94873140625,76.0,75.0
26,32.03879344375,32.15370018125,74.0,78.0
27,32.28724044375,32.395936006250004,76.0,77.0
28,32.53568744375,32.656805356250004,69.0,69.0
29,32.78413444375,32.9036995625,69.0,69.0
30,33.032581443750004,33.1428298,69.0,71.0
31,33.28102844375,33.4161215,69.0,69.0
32,33.52947544375,33.6490405625,67.0,66.0
33,33.77792244375,33.9099099125,69.0,68.0
34,34.02636944375,34.1521457375,69.0,70.0
35,34.27481644375,34.38972318125,69.0,68.0
36,34.523263443750004,34.658356500000004,69.0,64.0
37,34.77171044375,34.9285426125,69.0,67.0
38,35.02015744375,35.1769896125,67.0,66.0
39,35.26860444375,35.44562293125,69.0,67.0
40,35.51705144375,36.25307568125,71.0,74.0
41,37.00773344375,37.60245345,76.0,74.0
42,37.75307444375,38.372639150000005,76.0,77.0
43,38.49841544375,39.08847706875,74.0,77.0
44,39.24375644375,39.39127185,74.0,80.0
45,39.49220344375,39.66611634375,71.0,71.0
46,39.74065044375,39.8974826125,67.0,62.0
47,39.989097443750005,40.142824025,69.0,65.0
48,40.237544443750004,40.3695319125,69.0,67.0
49,40.48599144375,40.62263729375,69.0,66.0
50,40.73443844375,40.9223264875,69.0,73.0
51,40.98288544375,41.125742468750005,67.0,68.0
52,41.23133244375,41.3943757875,69.0,73.0
53,41.479779443750004,41.7981021625,71.0,71.0
54,41.97667344375,42.6179772625,64.0,77.0
55,42.970461443750004,43.41611325,67.0,74.0
56,43.71580244375,44.180087775000004,71.0,75.0
57,44.461143443750004,44.9968572875,69.0,74.0
58,45.703378443750005,45.95182544375,74.0,77.0
59,45.95182544375,47.7297742875,71.0,74.0
60,48.18784844375,48.2763576875,64.0,89.0
61,48.436295443750005,48.60399716875,67.0,69.0
62,48.684742443750004,48.852444168750004,69.0,75.0
63,48.93318944375,49.06983529375,71.0,76.0
64,49.18163644375,49.29343759375,71.0,70.0
65,49.43008344375,49.54188459375,71.0,69.0
66,49.67853044375,49.85089055,71.0,74.0
67,49.926977443750005,50.0589649125,69.0,73.0
68,50.17542444375,50.29654235625,67.0,68.0
69,50.42387144375,50.5558589125,71.0,74.0
70,50.67231844375,50.7980947375,71.0,69.0
71,50.92076544375,51.0465417375,71.0,72.0
72,51.16921244375,51.31828064375,71.0,75.0
73,51.417659443750004,51.543435737500005,69.0,75.0
74,51.66610644375,51.78101318125,67.0,75.0
75,51.91455344375,52.02635459375,69.0,71.0
76,52.16300044375,52.2701432125,69.0,73.0
77,52.41144744375,52.54809329375,69.0,72.0
78,52.659894443750005,52.7856707375,69.0,69.0
79,52.908341443750004,53.0403289125,67.0,71.0
80,53.15678844375,53.33380693125,69.0,74.0
81,53.40523544375,54.20647701875,64.0,74.0
82,54.89591744375,55.00771859375,76.0,73.0
83,55.14436444375,55.2639295625,76.0,73.0
84,55.39281144375,55.521693325,76.0,72.0
85,55.641258443750004,55.79964340625,76.0,75.0
86,55.88970544375,56.00461218125,74.0,78.0
87,56.13815244375,56.246848006250005,76.0,77.0
88,56.38659944375,56.507717356250005,69.0,69.0
89,56.63504644375,56.7546115625,69.0,69.0
90,56.883493443750005,56.9937418,69.0,71.0
91,57.131940443750004,57.267033500000004,69.0,69.0
92,57.38038744375,57.4999525625,67.0,66.0
93,57.62883444375,57.7608219125,69.0,68.0
94,57.87728144375,58.0030577375,69.0,70.0
95,58.12572844375,58.24063518125,69.0,68.0
96,58.374175443750005,58.509268500000005,69.0,64.0
97,58.622622443750004,58.779454612500004,69.0,67.0
98,58.87106944375,59.0279016125,67.0,66.0
99,59.11951644375,59.29653493125,69.0,67.0
100,59.36796344375,60.103987681250004,71.0,74.0
101,60.85864544375,61.45336545,76.0,74.0
102,61.60398644375,62.22355115,76.0,77.0
103,62.34932744375,62.93938906875,74.0,77.0
104,63.09466844375,63.24218385,74.0,80.0
105,63.34311544375,63.51702834375,71.0,71.0
106,63.59156244375,63.7483946125,67.0,62.0
107,63.84000944375,63.993736025000004,69.0,65.0
108,64.08845644375,64.2204439125,69.0,67.0
109,64.33690344375,64.47354929375,69.0,66.0
110,64.58535044375,64.7732384875,69.0,73.0
111,64.83379744375,64.97665446875,67.0,68.0
112,65.08224444375,65.2452877875,69.0,73.0
113,65.33069144375,65.64901416250001,71.0,71.0
114,65.82758544375,66.4688892625,76.0,77.0
115,66.82137344375,67.26702525,67.0,74.0
116,67.56671444375,68.030999775,71.0,75.0
117,68.31205544375,68.8477692875,69.0,74.0
118,69.05739644375001,69.5309985375,74.0,80.0
119,69.55429044375,69.72199216875,71.0,69.0
120,69.80273744375,70.2639171875,71.0,77.0
121,70.29963144375,71.6862762625,76.0,78.0
122,72.03876044375001,72.40521976875,79.0,74.0
123,72.53565444375,72.75304556875,78.0,78.0
124,72.78410144375,73.03254844375,76.0,77.0
125,73.28099544375,73.42074688125,76.0,74.0
126,73.52944244375,73.832237225,76.0,77.0
127,74.02633644375,74.19714375625,76.0,76.0
128,74.27478344375,74.57291984375,78.0,74.0
129,74.77167744375001,74.94559034375,78.0,75.0
130,75.02012444375,75.42695640625,78.0,77.0
131,75.51701844375,75.6986953125,76.0,75.0
132,75.76546544375,76.07291860625,74.0,78.0
133,76.26235944375,76.41142764375,74.0,74.0
134,76.51080644375,76.91142723125,71.0,75.0
135,77.00770044375,77.1583214375,69.0,73.0
136,77.25614744375001,77.857078625,71.0,73.0
137,78.74682944375,79.254593,67.0,76.0
138,79.49217044375,80.08689045,76.0,76.0
139,80.23751144375001,80.84620659375,74.0,77.0
140,80.98285244375,81.4316098375,71.0,75.0
141,81.47974644375,81.68782080625,69.0,74.0
142,81.72819344375,83.43781936250001,71.0,73.0
143,83.96421644375,84.33067576875,79.0,74.0
144,84.46111044375,84.67850156875001,78.0,78.0
145,84.70955744375,84.95800444375,76.0,77.0
146,85.20645144375,85.34620288125001,76.0,74.0
147,85.45489844375,85.757693225,76.0,77.0
148,85.95179244375001,86.12259975625,76.0,76.0
149,86.20023944375001,86.49837584375,78.0,74.0
150,86.69713344375,86.87104634375001,78.0,75.0
151,86.94558044375,87.35241240625,78.0,77.0
152,87.44247444375,87.6241513125,76.0,75.0
153,87.69092144375,87.99837460625,74.0,78.0
154,88.43626244375,88.83688323125,71.0,75.0
155,88.93315644375001,89.0837774375,74.0,73.0
156,89.18160344375,89.782534625,76.0,73.0
157,90.67228544375,91.2545831,72.0,77.0
158,91.41762644375001,92.0496135,79.0,67.0
159,92.16296744375,92.83066875625,78.0,75.0
160,92.90830844375,93.285637325,76.0,76.0
161,93.40520244375,93.57911534375,74.0,77.0
162,93.65364944375,95.38812006250001,76.0,75.0
163,122.73826533125,122.8270503125,64.0,89.0
164,122.98748633125,123.15571050625,67.0,69.0
165,123.23670733125,123.40493150625,69.0,75.0
166,123.48582737083333,123.62162970416666,71.0,76.0
167,123.73274070416667,123.84385170416667,71.0,70.0
168,123.9796540375,124.0907650375,71.0,69.0
169,124.22656737083334,124.39786349583333,71.0,74.0
170,124.47348070416668,124.6046534125,69.0,73.0
171,124.7203940375,124.84076428750001,67.0,68.0
172,124.96730737083334,125.09848007916668,71.0,74.0
173,125.21422070416668,125.33922057916666,71.0,69.0
174,125.4611340375,125.5861339125,71.0,72.0
175,125.70804737083334,125.85619537083333,71.0,75.0
176,125.95496070416667,126.07996057916667,69.0,75.0
177,126.2018740375,126.31607145416667,67.0,75.0
178,126.44878737083334,126.55989837083334,69.0,71.0
179,126.69570070416667,126.80218207916667,69.0,73.0
180,126.94261403750001,127.07841637083334,69.0,72.0
181,127.18952737083333,127.31452724583333,69.0,69.0
182,127.43644070416667,127.56761341250001,67.0,71.0
183,127.68335403750001,127.8592797875,69.0,74.0
184,127.93026737083333,128.72656287083333,64.0,74.0
185,129.41174737083333,129.52285837083335,76.0,73.0
186,129.65866070416666,129.77748774583333,76.0,73.0
187,129.9055740375,130.03366032916668,76.0,72.0
188,130.15248737083334,130.30989462083335,76.0,75.0
189,130.39940070416668,130.51359812083334,74.0,78.0
190,130.6463140375,130.75433862083335,76.0,77.0
191,130.89322737083333,131.01359762083334,69.0,69.0
192,131.14014070416667,131.25896774583333,69.0,69.0
193,131.3870540375,131.49662182916666,69.0,71.0
194,131.63396737083335,131.76822649583335,69.0,69.0
195,131.88088070416666,131.99970774583335,67.0,66.0
196,132.1277940375,132.25896674583333,69.0,68.0
197,132.37470737083333,132.49970724583335,69.0,70.0
198,132.62162070416667,132.73581812083333,69.0,68.0
199,132.8685340375,133.0027931625,69.0,64.0
200,133.11544737083335,133.2713114125,69.0,67.0
201,133.36236070416666,133.51822474583335,67.0,66.0
202,133.6092740375,133.7851997875,69.0,67.0
203,133.85618737083334,134.58766812083334,71.0,74.0
204,135.33766737083334,135.9287161625,76.0,74.0
205,136.07840737083333,136.69414749583333,76.0,77.0
206,136.81914737083335,137.4055665375,74.0,77.0
207,137.55988737083334,137.7064921625,74.0,80.0
208,137.80680070416668,137.97964003750002,71.0,71.0
209,138.05371403750001,138.20957807916668,67.0,62.0
210,138.3006657125,138.45439229375,69.0,65.0
211,138.5491127125,138.68110018125,69.0,67.0
212,138.7975597125,138.9342055625,69.0,66.0
213,139.0460067125,139.23389475625,69.0,73.0
214,139.2944537125,139.4373107375,67.0,68.0
215,139.5429007125,139.70594405625,69.0,73.0
216,139.7913477125,140.10967043125,71.0,71.0
217,140.2882417125,140.92954553125,76.0,77.0
218,140.77737174375,140.97302375625,64.0,76.0
219,141.05376903125,141.25407942500001,66.0,77.0
220,141.2820297125,141.72768151875,67.0,74.0
221,142.02737071250002,142.49165604375,71.0,75.0
222,142.7727117125,143.30842555625,69.0,74.0
223,143.5180527125,143.99165480625,74.0,80.0
224,144.0149467125,144.1826484375,71.0,69.0
225,144.2633937125,144.72457345625,71.0,77.0
226,144.7602877125,146.14938821249999,76.0,78.0
227,146.5040757125,146.8728257125,79.0,74.0
228,147.0040757125,147.2228257125,78.0,78.0
229,147.2540757125,147.5040757125,76.0,77.0
230,147.7540757125,147.8947007125,76.0,74.0
231,148.0040757125,148.3087632125,76.0,77.0
232,148.5040757125,148.6759507125,76.0,76.0
233,148.7540757125,149.0540757125,78.0,74.0
234,149.2540757125,149.4290757125,78.0,75.0
235,149.5040757125,149.9134507125,78.0,77.0
236,150.0040757125,150.1868882125,76.0,75.0
237,150.2540757125,150.56345071249999,74.0,78.0
238,150.7540757125,150.9040757125,74.0,74.0
239,151.0040757125,151.40720071249999,71.0,75.0
240,151.5040757125,151.6556382125,69.0,73.0
241,151.75403189375,152.3568351875,71.0,73.0
242,153.24935789375002,153.7587033125,67.0,76.0
243,153.99702089375,154.5935936625,76.0,76.0
244,154.74468389375,155.35527534375,74.0,77.0
245,155.49234689375,155.942502325,71.0,75.0
246,155.99078889375,156.19951148125,69.0,74.0
247,156.24000989375,157.9549619,71.0,73.0
248,158.48299889375,158.85059986875,79.0,74.0
249,158.98144089375,159.19950926875,78.0,78.0
250,159.23064260625,159.47832060624998,76.0,77.0
251,159.72599860625,159.86531748125,76.0,74.0
252,159.97367660625,160.27553416875,76.0,77.0
253,160.46903260624998,160.63931123125,76.0,76.0
254,160.71671060625,161.01392420624998,78.0,74.0
255,161.21206660625,161.38544120625,78.0,75.0
256,161.45974460624998,161.86531733125,78.0,77.0
257,161.95510060625,162.13621514374998,76.0,75.0
258,162.20277860624998,162.50928013125,74.0,78.0
259,162.94581260625,163.34519338125,71.0,75.0
260,163.44116860625,163.59132339375,74.0,73.0
261,163.68884660625,164.28791776875,76.0,73.0
262,165.17491460624998,165.75540991875,72.0,77.0
263,165.91794860624998,166.54797951875,79.0,67.0
264,166.66098260625,167.32661723125,78.0,75.0
265,167.40401660625,167.78017756875,76.0,76.0
266,167.89937260624998,168.07274720625,74.0,77.0
267,168.14705060625,169.87615264375,76.0,75.0
268,170.37615260625,170.74147765625,79.0,74.0
269,170.87150860625,171.08822685625,78.0,78.0
270,171.11918660625,171.36686460625,76.0,77.0
271,171.61454260624998,171.75386148125,76.0,74.0
272,171.86222060625,172.16407816875,76.0,77.0
273,172.35757660625,172.52785523125,76.0,76.0
274,172.60525460624999,172.90246820624998,78.0,74.0
275,173.10061060625,173.27398520625,78.0,75.0
276,173.34828860624998,173.75386133125,78.0,77.0
277,173.84364460625,174.02475914375,76.0,75.0
278,174.09132260625,174.39782413125,74.0,78.0
279,174.58667860625,174.73528540625,74.0,74.0
280,174.83435660625,175.23373738125,71.0,75.0
281,175.32971260624998,175.47986739375,69.0,73.0
282,175.57740989374997,176.1802131875,71.0,73.0
283,177.07273589374998,177.58208131249998,67.0,76.0
284,177.82039889375,178.41697166249998,76.0,76.0
285,178.56806189374998,179.17865334374997,74.0,77.0
286,179.31572489374997,179.76588032499998,71.0,75.0
287,179.81416689374998,180.02288948125,69.0,74.0
288,180.06338789375,181.7783399,71.0,73.0
289,182.30637689374998,182.67397786874997,79.0,74.0
290,182.80481889375,183.02288726875,78.0,78.0
291,183.05403989374997,183.30326089374998,76.0,77.0
292,183.55248189374998,183.69266870624998,76.0,74.0
293,183.80170289375,184.10544098749997,76.0,77.0
294,184.30014489374997,184.47148433125,76.0,76.0
295,184.54936589374998,184.84843109374998,78.0,74.0
296,185.04780789375,185.22226259374997,78.0,75.0
297,185.29702889375,185.70512828124998,78.0,77.0
298,185.79547089374998,185.97771375,76.0,75.0
299,186.04469189374998,186.35310288124998,74.0,78.0
300,186.79235489374997,187.19422375624998,71.0,75.0
301,187.29079689374998,187.441887125,74.0,73.0
302,187.54001789375,188.14282118749998,76.0,73.0
303,189.03540248124997,189.62317591874998,72.0,77.0
304,189.78775248124998,190.42568258541664,79.0,67.0
305,190.54010248124996,191.2140826895833,78.0,75.0
306,191.29245248124997,191.67332966874997,76.0,76.0
307,191.79401914791663,191.96956748124998,74.0,77.0
308,192.04480248124997,193.77022905208332,76.0,75.0
309,195.00561109375,195.58253296874997,72.0,77.0
310,195.74407109375,196.37022363541664,79.0,67.0
311,196.48253109374997,197.1440681770833,78.0,75.0
312,197.22099109374997,197.59483646874997,76.0,76.0
313,197.71329776041665,197.88560509374997,74.0,77.0
314,197.95945109374998,199.6915921583333,76.0,75.0
