,start,end,pitch,velocity
0,1.10403635625,1.3416138,52.0,60.0
1,1.1521729625000001,1.34627218125,55.0,67.0
2,1.2111791250000001,1.35248335625,59.0,61.0
3,1.2639741125000001,1.66304210625,64.0,72.0
4,2.23757579375,2.3322962125,52.0,73.0
5,2.2313646187500003,2.37422164375,59.0,68.0
6,2.4829172062500002,2.5621096875,52.0,59.0
7,2.7360225875,3.17235763125,52.0,64.0
8,2.73136420625,3.223599825,55.0,54.0
9,1.2313654437500001,3.3012395125,40.0,75.0
10,4.01086625625,4.46428203125,69.0,53.0
11,4.1133506437500005,4.5062074625,61.0,53.0
12,4.06055565625,4.51397143125,64.0,68.0
13,4.16925121875,4.53881613125,57.0,61.0
14,5.1645920125,5.29657948125,64.0,73.0
15,5.1708031875,5.310554625,57.0,72.0
16,5.68788350625,5.7624176062500005,61.0,55.0
17,5.670802775,5.8136598,57.0,71.0
18,5.6645916000000005,5.81831818125,69.0,68.0
19,6.1708023625,6.29968424375,64.0,73.0
20,6.17546074375,6.304342625,57.0,66.0
21,4.18788474375,6.3850879,52.0,67.0
22,4.1987543,6.49688905,45.0,66.0
23,7.1552736,7.26241636875,36.0,69.0
24,7.102478612500001,7.33384488125,55.0,55.0
25,7.135087281250001,7.4068261875,60.0,65.0
26,7.167695950000001,7.5030994,64.0,74.0
27,7.9301176812500005,8.0248381,67.0,71.0
28,7.9347760625,8.03570765625,60.0,74.0
29,8.56986870625,8.7173841125,62.0,57.0
30,8.6055829625,8.77483748125,66.0,65.0
31,8.65371956875,8.94253920625,69.0,53.0
32,8.70030338125,8.9782534625,74.0,74.0
33,9.1707998875,9.28104824375,62.0,62.0
34,8.70962014375,9.42701085625,38.0,75.0
35,9.436327618750001,9.57297346875,66.0,74.0
36,9.4440915875,9.5869486125,62.0,74.0
37,9.440986,9.65061315625,69.0,74.0
38,10.1707990625,10.28725859375,67.0,65.0
39,10.169246268750001,10.29812815,64.0,66.0
40,10.6583763,10.73135760625,52.0,65.0
41,10.1583767125,11.01862445,40.0,74.0
42,10.90216491875,11.0962641375,55.0,76.0
43,10.9037177125,11.1055809,52.0,79.0
44,11.6428475375,12.5869461375,59.0,75.0
45,11.64129474375,12.5931573125,64.0,75.0
46,11.63818915625,12.59781569375,55.0,77.0
47,11.64440033125,12.61334363125,52.0,75.0
48,13.156821443750001,13.40371565,55.0,68.0
49,13.156821443750001,13.40526844375,52.0,73.0
50,13.156821443750001,13.4130324125,59.0,69.0
51,13.90216244375,14.051230643750001,52.0,74.0
52,13.90216244375,14.0527834375,55.0,75.0
53,13.90216244375,14.07918093125,59.0,74.0
54,14.64750344375,14.80278281875,55.0,74.0
55,14.64750344375,14.8167579625,52.0,74.0
56,14.64750344375,14.822969137500001,59.0,74.0
57,14.39905644375,14.826074725,47.0,71.0
58,13.156821443750001,14.84004986875,40.0,74.0
59,15.39284444375,15.633527475000001,52.0,79.0
60,15.39284444375,15.645949825,55.0,79.0
61,15.39284444375,15.6739001125,59.0,77.0
62,15.14439744375,15.7608565625,40.0,56.0
63,15.641291443750001,15.83073228125,47.0,71.0
64,15.88973844375,16.03259546875,52.0,74.0
65,16.13818544375,16.30278158125,52.0,74.0
66,16.13818544375,16.33694304375,57.0,67.0
67,16.13818544375,16.37110450625,45.0,69.0
68,16.63507944375,16.9844580375,45.0,53.0
69,16.88352644375,16.987563625,52.0,75.0
70,16.88352644375,16.98911641875,57.0,71.0
71,16.88352644375,17.01085553125,61.0,74.0
72,17.38042044375,17.8975007625,45.0,67.0
73,17.62886744375,18.16613408125,52.0,75.0
74,17.62886744375,18.19408436875,57.0,74.0
75,18.12576144375,18.416133875,45.0,60.0
76,18.37420844375,18.49687915,52.0,82.0
77,18.37420844375,18.5061959125,57.0,79.0
78,18.37420844375,18.534146200000002,61.0,79.0
79,19.11954944375,19.41458025625,55.0,68.0
80,19.11954944375,19.586940362500002,64.0,73.0
81,19.11954944375,19.66302725625,60.0,68.0
82,19.61644344375,19.66613284375,55.0,51.0
83,19.11954944375,19.91302705,48.0,76.0
84,19.86489044375,19.98756115,55.0,77.0
85,19.86489044375,19.98756115,60.0,79.0
86,19.86489044375,20.00774746875,64.0,80.0
87,20.85867844375,21.15526205,55.0,66.0
88,20.61023144375,21.15992043125,43.0,64.0
89,21.10712544375,21.23445453125,60.0,74.0
90,21.35557244375,21.4875599125,48.0,89.0
91,21.35557244375,21.54190769375,55.0,77.0
92,21.35557244375,21.610230618750002,60.0,82.0
93,21.35557244375,21.67544795625,64.0,82.0
94,22.100913443750002,22.246876056250002,47.0,74.0
95,22.34936044375,22.44563365625,63.0,53.0
96,22.34936044375,22.47668953125,59.0,62.0
97,22.59780744375,22.68786948125,59.0,60.0
98,22.59780744375,22.69408065625,63.0,58.0
99,22.59780744375,22.700291831250002,66.0,59.0
100,22.59780744375,22.714266975,47.0,70.0
101,22.846254443750002,22.962713975,59.0,65.0
102,22.846254443750002,22.96892515,63.0,60.0
103,22.846254443750002,22.97358353125,47.0,74.0
104,22.846254443750002,22.98911146875,66.0,61.0
105,23.09470144375,23.19252745,63.0,73.0
106,23.09470144375,23.195633037500002,59.0,74.0
107,23.09470144375,23.2049498,47.0,74.0
108,23.09470144375,23.211160975000002,66.0,68.0
109,23.09470144375,23.21892494375,69.0,73.0
110,23.34314844375,23.4751359125,59.0,78.0
111,23.34314844375,23.476688706250002,63.0,84.0
112,23.34314844375,23.48911105625,66.0,75.0
113,23.34314844375,23.49066385,47.0,75.0
114,23.34314844375,23.49221664375,69.0,77.0
115,23.591595443750002,23.7515332,47.0,79.0
116,23.591595443750002,23.7515332,63.0,80.0
117,23.591595443750002,23.753085993750002,59.0,78.0
118,23.591595443750002,23.76240275625,66.0,74.0
119,23.591595443750002,23.782589075,71.0,71.0
120,25.08227744375,25.56053791875,64.0,70.0
121,25.08227744375,25.5931465875,59.0,67.0
122,25.82761844375,25.922338862500002,64.0,73.0
123,25.82761844375,25.94252518125,59.0,73.0
124,25.82761844375,25.9471835625,67.0,73.0
125,25.57917144375,25.981345025,47.0,48.0
126,25.08227744375,26.02016486875,40.0,73.0
127,26.57295944375,26.88041260625,57.0,62.0
128,26.57295944375,27.12885960625,62.0,69.0
129,26.57295944375,27.1459403375,66.0,62.0
130,27.069853443750002,27.1956297375,57.0,60.0
131,26.57295944375,27.215816056250002,38.0,74.0
132,27.31830044375,27.45494629375,57.0,74.0
133,27.31830044375,27.48289658125,62.0,75.0
134,27.31830044375,27.50463569375,66.0,75.0
135,28.06364144375,28.56985220625,64.0,69.0
136,28.06364144375,28.571405000000002,67.0,56.0
137,28.06364144375,28.58538014375,61.0,59.0
138,28.06364144375,28.852460668750002,49.0,65.0
139,28.80898244375,28.91767800625,64.0,75.0
140,28.80898244375,28.9285475625,61.0,71.0
141,28.80898244375,28.9409699125,67.0,73.0
142,29.55432344375,29.875751750000003,59.0,64.0
143,29.55432344375,30.11332919375,64.0,73.0
144,30.05121744375,30.17388815,59.0,69.0
145,29.55432344375,30.39283206875,52.0,63.0
146,30.29966444375,30.42078235625,59.0,74.0
147,30.29966444375,30.49221086875,64.0,78.0
148,30.29966444375,30.532583506250003,67.0,73.0
149,31.04500544375,31.293452443750002,55.0,65.0
150,31.04500544375,31.569849731250002,60.0,68.0
151,31.54189944375,31.6304086875,55.0,66.0
152,31.04500544375,31.71891793125,48.0,72.0
153,31.79034644375,31.88661965625,55.0,74.0
154,31.79034644375,31.92699229375,64.0,75.0
155,31.79034644375,31.930097881250003,60.0,75.0
156,32.03879344375,32.10711636875,55.0,61.0
157,32.28724044375,32.56984890625,60.0,68.0
158,32.53568744375,32.8943828,57.0,64.0
159,32.53568744375,32.98289204375,62.0,65.0
160,33.032581443750004,33.355562543750004,45.0,62.0
161,32.53568744375,33.36177371875,38.0,75.0
162,33.28102844375,33.4192270875,57.0,69.0
163,33.28102844375,33.496866775,62.0,73.0
164,33.28102844375,33.51394750625,66.0,73.0
165,34.02636944375,34.50152433125,59.0,67.0
166,34.02636944375,34.515499475,55.0,67.0
167,34.77171044375,34.84469175,55.0,74.0
168,34.77171044375,34.85245571875,59.0,77.0
169,34.77171044375,34.8850643875,62.0,75.0
170,34.02636944375,34.9068035,43.0,73.0
171,34.523263443750004,34.90835629375,50.0,59.0
172,35.02015744375,35.273262825,57.0,74.0
173,35.26860444375,35.534132175,58.0,61.0
174,35.51705144375,35.973572806250004,59.0,72.0
175,36.01394544375,36.36021845,54.0,59.0
176,35.51705144375,36.3819575625,47.0,74.0
177,36.26239244375,36.50152268125,63.0,75.0
178,36.26239244375,36.51394503125,59.0,75.0
179,36.26239244375,36.56363443125,66.0,76.0
180,36.51083944375,36.60400706875,51.0,21.0
181,37.00773344375,37.29965866875,55.0,66.0
182,37.00773344375,37.583819925,64.0,73.0
183,37.00773344375,37.59779506875,60.0,67.0
184,37.50462744375,37.67543475625,55.0,66.0
185,37.75307444375,37.8540060375,55.0,75.0
186,37.00773344375,37.8633228,48.0,73.0
187,37.75307444375,37.869533975,60.0,77.0
188,37.75307444375,37.8726395625,64.0,78.0
189,38.49841544375,38.77481273125,57.0,69.0
190,38.49841544375,39.04810443125,62.0,72.0
191,38.49841544375,39.05742119375,66.0,68.0
192,38.99530944375,39.133508087500005,57.0,61.0
193,38.49841544375,39.30276260625,50.0,74.0
194,39.24375644375,39.361768768750004,57.0,74.0
195,39.24375644375,39.51704814375,62.0,79.0
196,39.24375644375,39.71270015625,66.0,78.0
197,39.49220344375,39.7608367625,57.0,68.0
198,39.74065044375,39.819842925,62.0,65.0
199,39.989097443750005,40.426985281250005,57.0,61.0
200,39.989097443750005,40.5061777625,61.0,60.0
201,40.48599144375,40.83692283125,52.0,58.0
202,39.989097443750005,40.895928993750005,45.0,74.0
203,40.73443844375,41.34934476875,57.0,73.0
204,40.73443844375,41.3819534375,64.0,77.0
205,40.73443844375,41.40213975625,61.0,77.0
206,41.47356826875,41.52636325625,55.0,57.0
207,41.50307135,41.64748116875,71.0,61.0
208,41.479779443750004,42.093132975,64.0,71.0
209,41.97667344375,42.714250475,59.0,69.0
210,41.479779443750004,42.72201444375,52.0,68.0
211,42.22512044375,42.74530635,64.0,79.0
212,42.22512044375,42.79499575,67.0,76.0
213,42.970461443750004,43.2887841625,55.0,64.0
214,42.970461443750004,43.5248088125,60.0,67.0
215,43.46735544375,43.61021246875,55.0,67.0
216,42.970461443750004,43.81362845,48.0,75.0
217,43.71580244375,43.867976231250005,55.0,79.0
218,43.71580244375,43.894373725,60.0,78.0
219,43.71580244375,43.93319356875,64.0,77.0
220,44.461143443750004,45.0341243375,57.0,66.0
221,44.461143443750004,45.04809948125,62.0,68.0
222,44.461143443750004,45.062074625,66.0,64.0
223,44.95803744375,45.24996266875,45.0,48.0
224,44.461143443750004,45.27946575,38.0,76.0
225,45.20648444375,45.322943975,62.0,75.0
226,45.20648444375,45.32449676875,57.0,74.0
227,45.20648444375,45.37729175625,66.0,75.0
228,45.95182544375,46.2701481625,59.0,66.0
229,45.95182544375,46.4813281125,63.0,63.0
230,45.95182544375,46.4813281125,66.0,63.0
231,46.44871944375,46.82760111875,54.0,53.0
232,46.69716644375,47.02946430625,59.0,72.0
233,46.69716644375,47.062072975,71.0,73.0
234,46.69716644375,47.08536488125,66.0,64.0
235,46.69716644375,47.09157605625,63.0,72.0
236,46.94561344375,47.2080355875,51.0,66.0
237,45.95182544375,47.36642055,47.0,74.0
238,47.194060443750004,47.392818043750005,59.0,71.0
239,47.194060443750004,47.40834598125,54.0,61.0
240,48.18784844375,48.74685419375,54.0,68.0
241,47.44250744375,48.813624325,59.0,74.0
242,47.44250744375,48.82449388125,63.0,74.0
243,47.44250744375,48.82759946875,66.0,71.0
244,47.44250744375,48.8477857875,47.0,76.0
245,47.44250744375,48.84933858125,71.0,74.0
246,48.93318944375,49.41144991875,64.0,70.0
247,48.93318944375,49.4440585875,59.0,67.0
248,49.67853044375,49.7732508625,64.0,73.0
249,49.67853044375,49.79343718125,59.0,73.0
250,49.67853044375,49.7980955625,67.0,73.0
251,49.43008344375,49.832257025000004,47.0,48.0
252,48.93318944375,49.87107686875,40.0,73.0
253,50.42387144375,50.73132460625,57.0,62.0
254,50.42387144375,50.979771606250004,62.0,69.0
255,50.42387144375,50.9968523375,66.0,62.0
256,50.92076544375,51.0465417375,57.0,60.0
257,50.42387144375,51.06672805625,38.0,74.0
258,51.16921244375,51.30585829375,57.0,74.0
259,51.16921244375,51.333808581250004,62.0,75.0
260,51.16921244375,51.355547693750005,66.0,75.0
261,51.91455344375,52.42076420625,64.0,69.0
262,51.91455344375,52.422317,67.0,56.0
263,51.91455344375,52.43629214375,61.0,59.0
264,51.91455344375,52.70337266875,49.0,65.0
265,52.659894443750005,52.76859000625,64.0,75.0
266,52.659894443750005,52.7794595625,61.0,71.0
267,52.659894443750005,52.7918819125,67.0,73.0
268,53.40523544375,53.72666375,59.0,64.0
269,53.40523544375,53.96424119375,64.0,73.0
270,53.90212944375,54.024800150000004,59.0,69.0
271,53.40523544375,54.243744068750004,52.0,63.0
272,54.150576443750005,54.27169435625,59.0,74.0
273,54.150576443750005,54.34312286875,64.0,78.0
274,54.150576443750005,54.38349550625,67.0,73.0
275,54.89591744375,55.14436444375,55.0,65.0
276,54.89591744375,55.42076173125,60.0,68.0
277,55.39281144375,55.4813206875,55.0,66.0
278,54.89591744375,55.56982993125,48.0,72.0
279,55.641258443750004,55.73753165625,55.0,74.0
280,55.641258443750004,55.777904293750005,64.0,75.0
281,55.641258443750004,55.78100988125,60.0,75.0
282,55.88970544375,55.95802836875,55.0,61.0
283,56.13815244375,56.42076090625,60.0,68.0
284,56.38659944375,56.7452948,57.0,64.0
285,56.38659944375,56.83380404375,62.0,65.0
286,56.883493443750005,57.206474543750005,45.0,62.0
287,56.38659944375,57.21268571875,38.0,75.0
288,57.131940443750004,57.2701390875,57.0,69.0
289,57.131940443750004,57.347778775,62.0,73.0
290,57.131940443750004,57.36485950625,66.0,73.0
291,57.87728144375,58.352436331250004,59.0,67.0
292,57.87728144375,58.366411475,55.0,67.0
293,58.622622443750004,58.695603750000004,55.0,74.0
294,58.622622443750004,58.70336771875,59.0,77.0
295,58.622622443750004,58.7359763875,62.0,75.0
296,57.87728144375,58.7577155,43.0,73.0
297,58.374175443750005,58.759268293750004,50.0,59.0
298,58.87106944375,59.124174825000004,57.0,74.0
299,59.11951644375,59.385044175000004,58.0,61.0
300,59.36796344375,59.824484806250005,59.0,72.0
301,59.864857443750005,60.21113045,54.0,59.0
302,59.36796344375,60.2328695625,47.0,74.0
303,60.11330444375,60.35243468125,63.0,75.0
304,60.11330444375,60.364857031250004,59.0,75.0
305,60.11330444375,60.41454643125,66.0,76.0
306,60.36175144375,60.45491906875,51.0,21.0
307,60.85864544375,61.15057066875,55.0,66.0
308,60.85864544375,61.434731925,64.0,73.0
309,60.85864544375,61.448707068750004,60.0,67.0
310,61.355539443750004,61.52634675625,55.0,66.0
311,61.60398644375,61.7049180375,55.0,75.0
312,60.85864544375,61.7142348,48.0,73.0
313,61.60398644375,61.720445975000004,60.0,77.0
314,61.60398644375,61.7235515625,64.0,78.0
315,62.34932744375,62.62572473125,57.0,69.0
316,62.34932744375,62.899016431250004,62.0,72.0
317,62.34932744375,62.90833319375,66.0,68.0
318,62.846221443750004,62.984420087500006,57.0,61.0
319,62.34932744375,63.15367460625,50.0,74.0
320,63.09466844375,63.212680768750005,57.0,74.0
321,63.09466844375,63.367960143750004,62.0,79.0
322,63.09466844375,63.56361215625,66.0,78.0
323,63.34311544375,63.6117487625,57.0,68.0
324,63.59156244375,63.670754925000004,62.0,65.0
325,63.84000944375,64.27789728125,57.0,61.0
326,63.84000944375,64.3570897625,61.0,60.0
327,64.33690344375,64.68783483125,52.0,58.0
328,63.84000944375,64.74684099375,45.0,74.0
329,64.58535044375,65.20025676875001,57.0,73.0
330,64.58535044375,65.2328654375,64.0,77.0
331,64.58535044375,65.25305175625,61.0,77.0
332,65.32448026875001,65.37727525625,55.0,57.0
333,65.35398335000001,65.49839316875,71.0,61.0
334,65.33069144375,65.944044975,64.0,71.0
335,65.82758544375,66.56516247500001,59.0,69.0
336,65.33069144375,66.57292644375,52.0,68.0
337,66.07603244375001,66.59621835,64.0,79.0
338,66.07603244375001,66.64590775,67.0,76.0
339,66.82137344375,67.1396961625,55.0,64.0
340,66.82137344375,67.3757208125,60.0,67.0
341,67.31826744375,67.46112446875,55.0,67.0
342,66.82137344375,67.66454045,48.0,75.0
343,67.56671444375,67.71888823125,55.0,79.0
344,67.56671444375,67.745285725,60.0,78.0
345,67.56671444375,67.78410556875001,64.0,77.0
346,68.31205544375,68.8850363375,57.0,66.0
347,68.31205544375,68.89901148125,62.0,68.0
348,68.31205544375,68.912986625,66.0,64.0
349,68.80894944375001,69.10087466875001,45.0,48.0
350,68.31205544375,69.13037775000001,38.0,76.0
351,69.05739644375001,69.17385597500001,62.0,75.0
352,69.05739644375001,69.17540876875,57.0,74.0
353,69.05739644375001,69.22820375625,66.0,75.0
354,69.80273744375,70.2949730625,64.0,73.0
355,69.80273744375,70.30273703125,55.0,69.0
356,69.80273744375,70.33068731875001,59.0,73.0
357,70.29963144375,70.6490100375,47.0,53.0
358,69.80273744375,70.77168074375,40.0,75.0
359,70.79652544375,70.875717925,47.0,50.0
360,71.04497244375,71.16609035625,38.0,79.0
361,70.54807844375,71.36329516250001,55.0,77.0
362,70.54807844375,71.45801558125,59.0,80.0
363,70.54807844375,71.46577955000001,64.0,80.0
364,71.79031344375001,71.9223009125,55.0,72.0
365,71.29341944375,72.6738530875,40.0,82.0
366,72.03876044375001,72.67695867500001,55.0,80.0
367,72.03876044375001,72.6862754375,59.0,80.0
368,72.03876044375001,72.6862754375,64.0,80.0
369,72.78254865,73.037206825,36.0,80.0
370,72.78410144375,73.0403124125,55.0,80.0
371,72.78410144375,73.11639930625,60.0,80.0
372,72.78410144375,73.13037445,64.0,80.0
373,73.27944265000001,73.36329351250001,36.0,74.0
374,73.28099544375,73.38037424375,55.0,74.0
375,73.52944244375,73.683169025,55.0,75.0
376,73.52944244375,73.68782740625001,64.0,75.0
377,73.52944244375,73.69403858125,60.0,75.0
378,73.52788965,73.7732310625,36.0,74.0
379,74.02478365,74.155218325,36.0,75.0
380,74.02633644375,74.15987670625,55.0,77.0
381,74.02633644375,74.2142244875,60.0,77.0
382,74.27478344375,74.52633603125,57.0,77.0
383,74.27323065,74.53875838125,38.0,77.0
384,74.27478344375,74.54652235,62.0,77.0
385,74.77012465,74.84465875000001,38.0,77.0
386,74.77167744375001,74.93937916875001,57.0,77.0
387,75.02012444375,75.26236026875,57.0,74.0
388,75.01857165,75.3508695125,38.0,75.0
389,75.02012444375,75.49838491875,62.0,74.0
390,75.02012444375,75.521676825,66.0,74.0
391,75.51546565,75.62260841875,38.0,74.0
392,75.51701844375,75.63192518125,57.0,74.0
393,75.76391265000001,76.11329124375,43.0,74.0
394,75.76546544375,76.15676946875,59.0,74.0
395,75.76546544375,76.19714210625,55.0,74.0
396,76.26080665,76.3570798625,43.0,74.0
397,76.26235944375,76.57757657500001,50.0,74.0
398,76.51080644375,76.68316655,59.0,74.0
399,76.51080644375,76.6862721375,62.0,74.0
400,76.51080644375,76.689377725,55.0,74.0
401,76.50925365,76.85863224375001,43.0,74.0
402,76.75925344375,76.86950180000001,50.0,74.0
403,77.00614765,77.1676382,43.0,74.0
404,77.00770044375,77.1893773125,54.0,74.0
405,77.25614744375001,77.51546400000001,55.0,74.0
406,77.25614744375001,77.53875590625,52.0,74.0
407,77.25459465,77.56360060625,40.0,74.0
408,77.75148865,77.85863141875001,40.0,74.0
409,78.00148844375,78.14434546875,52.0,74.0
410,78.00148844375,78.1645317875,55.0,74.0
411,78.00148844375,78.19869325,59.0,74.0
412,77.99993565,78.3850285,40.0,74.0
413,78.49682965000001,78.6055252125,40.0,74.0
414,78.74682944375,78.99527644375,55.0,74.0
415,78.74527665000001,79.06670495625,36.0,74.0
416,78.74682944375,79.29962401875001,60.0,74.0
417,79.24217065,79.34931341875,36.0,74.0
418,79.24372344375,79.36639415,55.0,74.0
419,79.49217044375,79.6676361375,55.0,74.0
420,79.49217044375,79.794965225,60.0,74.0
421,79.49061765,79.86484094375,36.0,74.0
422,79.49217044375,79.97043091875,64.0,74.0
423,79.98906444375,80.08533765625,55.0,74.0
424,79.98751165,80.105523975,36.0,74.0
425,80.23751144375001,80.47664168125,62.0,74.0
426,80.23751144375001,80.47819447500001,57.0,74.0
427,80.23595865,80.54185901875,38.0,74.0
428,80.73285265,80.82757306875,38.0,74.0
429,80.73440544375,80.85552335625,57.0,74.0
430,80.98285244375,81.13192064375001,57.0,74.0
431,80.98285244375,81.2639081125,62.0,74.0
432,80.98129965,81.33223103750001,38.0,74.0
433,80.98285244375,81.5309886375,66.0,74.0
434,81.23129944375,81.534094225,57.0,74.0
435,81.47974644375,81.59465318125001,62.0,74.0
436,81.47819365000001,81.608628325,38.0,74.0
437,81.72819344375,82.06670248125,59.0,74.0
438,81.72664065000001,82.0775720375,40.0,74.0
439,81.72819344375,82.1365782,64.0,74.0
440,82.22353465,82.28719919375,40.0,74.0
441,82.22508744375,82.3260190375,59.0,74.0
442,82.47353444375,82.75303731875,67.0,74.0
443,82.47353444375,82.7732236375,59.0,74.0
444,82.47198165,82.85396891250001,40.0,74.0
445,82.72198144375,82.85396891250001,66.0,74.0
446,82.96887565,83.08533518125,40.0,74.0
447,83.21887544375001,83.54030375,59.0,74.0
448,83.21732265,83.558937275,40.0,74.0
449,83.21887544375001,83.56980683125,64.0,74.0
450,83.71421665,83.79962030625,40.0,74.0
451,83.71576944375,83.82757059375,59.0,74.0
452,83.46732244375,84.04806730625,47.0,74.0
453,83.96266365,84.0589368625,40.0,74.0
454,83.96421644375,84.21576903125,59.0,74.0
455,83.96421644375,84.24371931875,64.0,74.0
456,84.21266344375,84.3011726875,47.0,74.0
457,84.21111065000001,84.428501775,40.0,74.0
458,84.45955765000001,84.59775629375001,38.0,74.0
459,84.70955744375,84.94092371250001,55.0,74.0
460,84.70800465,85.01701060625,36.0,74.0
461,84.70800465,85.01701060625,36.0,74.0
462,84.70955744375,85.22974335,60.0,74.0
463,85.20489865,85.28098554375,36.0,74.0
464,85.20645144375,85.347755675,55.0,74.0
465,84.70955744375,85.5123518125,48.0,74.0
466,85.45489844375,85.62881134375,55.0,74.0
467,85.45489844375,85.64899766250001,60.0,74.0
468,85.45334565,85.782537925,36.0,74.0
469,85.45489844375,85.832227325,64.0,74.0
470,85.95023965,86.055829625,36.0,74.0
471,85.95179244375001,86.07291035625,55.0,74.0
472,86.20023944375001,86.41918336250001,57.0,74.0
473,86.20023944375001,86.44092247500001,62.0,74.0
474,86.19868665,86.53874848125,38.0,74.0
475,86.69558065,86.77011475,38.0,74.0
476,86.69713344375,86.8291209125,57.0,74.0
477,86.94558044375,87.08533188125,57.0,74.0
478,86.94558044375,87.1769467125,62.0,74.0
479,86.94402765000001,87.31669815000001,38.0,74.0
480,86.94558044375,87.4502384125,66.0,74.0
481,87.19402744375,87.46266076250001,57.0,74.0
482,87.44092165,87.51545575,38.0,74.0
483,87.44247444375,87.53253648125,62.0,74.0
484,87.69092144375,88.0403000375,55.0,74.0
485,87.68936865,88.04185283125,43.0,74.0
486,87.69092144375,88.08688385,59.0,74.0
487,88.18626265,88.26079675,43.0,74.0
488,88.18781544375,88.28719424375001,55.0,74.0
489,88.43626244375,88.61949210625001,62.0,74.0
490,88.43626244375,88.6210449,59.0,74.0
491,88.43626244375,88.6614175375,55.0,74.0
492,88.43470965,88.79806338750001,43.0,74.0
493,88.68470944375001,88.80582735625,50.0,74.0
494,88.93160365,89.0589327375,43.0,74.0
495,88.93315644375001,89.06359111875,54.0,74.0
496,89.18160344375,89.471975875,55.0,74.0
497,89.18160344375,89.4812926375,52.0,74.0
498,89.18005065,89.51079571875,40.0,74.0
499,89.67694465000001,89.73905640000001,40.0,74.0
500,89.67849744375,89.9719754625,47.0,74.0
501,89.92694444375,90.05737911875,52.0,74.0
502,89.92694444375,90.06359029375,55.0,74.0
503,89.92694444375,90.0961989625,59.0,74.0
504,89.92539165000001,90.29806215,40.0,74.0
505,90.42228565,90.56048429375001,40.0,74.0
506,90.67228544375,90.8819126,55.0,74.0
507,90.67073265,90.999924925,36.0,74.0
508,90.67228544375,91.2079992875,60.0,74.0
509,91.16762665,91.23129119375,36.0,74.0
510,91.16917944375,91.29029735625001,55.0,74.0
511,90.67228544375,91.50147730625001,48.0,74.0
512,91.41762644375001,91.60706728125,55.0,74.0
513,91.41607365,91.76079386250001,36.0,74.0
514,91.41762644375001,91.76079386250001,60.0,74.0
515,91.41762644375001,92.006135275,64.0,74.0
516,91.91296765,92.02942718125,36.0,74.0
517,91.91452044375,92.07445820000001,55.0,74.0
518,92.16296744375,92.42383679375,57.0,74.0
519,92.16141465,92.47042060625,38.0,74.0
520,92.16296744375,92.49837089375,62.0,74.0
521,92.65830865000001,92.71265643125,38.0,74.0
522,92.65986144375,92.7918489125,57.0,74.0
523,92.16296744375,93.01234562500001,50.0,74.0
524,92.90830844375,93.05116546875,57.0,74.0
525,92.90830844375,93.18160014375,62.0,74.0
526,92.90830844375,93.22973675,66.0,74.0
527,92.90675565000001,93.30271805625,38.0,74.0
528,93.40364965,93.52010918125,38.0,74.0
529,93.65209665,93.98284171875001,40.0,74.0
530,93.65364944375,94.08843169375,59.0,74.0
531,93.65364944375,94.1117236,64.0,74.0
532,94.14899065,94.2142079875,40.0,74.0
533,94.15054344375001,94.49526365625,47.0,74.0
534,94.39899044375001,94.6862572875,59.0,74.0
535,94.39899044375001,94.6986796375,64.0,74.0
536,94.39899044375001,94.74371065625,67.0,74.0
537,94.39743765,94.7607913875,40.0,74.0
538,94.64743744375001,94.92383473125,47.0,74.0
539,94.89433165,94.95799619375,40.0,74.0
540,94.89588444375,95.086878075,62.0,74.0
541,95.14277865,95.9657593375,40.0,74.0
542,95.14433144375,96.4067527625,59.0,74.0
543,95.14433144375,96.428491875,64.0,74.0
544,96.63501344375,97.52010588125,52.0,75.0
545,96.63501344375,97.521658675,59.0,73.0
546,97.62880144375,97.93314901875,64.0,77.0
547,97.62880144375,97.94557136875001,59.0,77.0
548,96.63501344375,97.99681356250001,40.0,76.0
549,97.87724844375,98.07445325,47.0,65.0
550,98.12569544375,98.8042663125,52.0,69.0
551,98.12569544375,98.81047748750001,59.0,68.0
552,98.12569544375,98.97817921250001,40.0,76.0
553,98.87103644375,98.987495975,52.0,75.0
554,98.87103644375,98.99681273750001,59.0,77.0
555,98.87103644375,99.049607725,64.0,74.0
556,99.61637744375,100.42693578125001,61.0,66.0
557,99.61637744375,100.44867489375001,64.0,73.0
558,99.61637744375,100.87569317500001,37.0,66.0
559,100.61016544375,100.89587949375,61.0,75.0
560,100.61016544375,100.99525829375,64.0,77.0
561,100.85861244375,101.04184210625,57.0,69.0
562,101.10705944375,101.732835325,57.0,66.0
563,101.10705944375,101.7359409125,61.0,62.0
564,101.10705944375,101.7669967875,64.0,74.0
565,101.10705944375,101.782524725,37.0,65.0
566,101.85240044375,101.99215188125001,57.0,74.0
567,101.85240044375,102.1520896375,61.0,75.0
568,102.10084744375,102.21109580000001,57.0,67.0
569,101.85240044375,102.21264859375,64.0,77.0
570,102.59774144375001,102.89898343125,55.0,74.0
571,102.59774144375001,103.17538071875,60.0,73.0
572,102.59774144375001,103.17538071875,64.0,75.0
573,102.59774144375001,103.44090845000001,48.0,76.0
574,103.34308244375,103.52165372500001,55.0,75.0
575,103.34308244375,103.55736798125001,60.0,77.0
576,103.34308244375,103.58687106250001,64.0,77.0
577,104.08842344375,104.40208778125,55.0,66.0
578,104.08842344375,104.61326773125,60.0,69.0
579,104.08842344375,104.61947890625001,64.0,75.0
580,104.58531744375,104.65829875,55.0,58.0
581,105.08221144375,105.32755285625001,48.0,78.0
582,105.33065844375,105.48283223125,55.0,77.0
583,105.33065844375,105.49214899375,60.0,79.0
584,105.33065844375,105.50301855000001,64.0,80.0
585,105.57910544375001,106.06978826875,59.0,69.0
586,105.57910544375001,106.0713410625,55.0,73.0
587,106.07599944375,106.478173025,50.0,58.0
588,106.32444644375,106.490595375,59.0,78.0
589,106.32444644375,106.4937009625,55.0,75.0
590,106.32444644375,106.54494315625,62.0,75.0
591,105.57910544375001,106.60860770000001,43.0,77.0
592,106.82134044375,106.98438378750001,57.0,70.0
593,107.06978744375,107.42227162500001,59.0,70.0
594,107.06978744375,107.70953846875,47.0,77.0
595,107.56668144375,107.71730243750001,59.0,75.0
596,107.81512844375,108.12879278125,59.0,84.0
597,107.81512844375,108.3725814,63.0,90.0
598,107.81512844375,108.38034536875,66.0,80.0
599,108.06357544375,108.40829565625,54.0,77.0
600,108.31202244375001,108.47661858125001,59.0,78.0
601,108.56046944375001,108.72195999375,55.0,72.0
602,108.56046944375001,108.72817116875001,59.0,70.0
603,108.56046944375001,108.7297239625,52.0,73.0
604,108.56046944375001,108.73593513750001,64.0,74.0
605,108.56046944375001,108.83686673125,40.0,75.0
606,109.30581044375,109.546493475,52.0,80.0
607,109.30581044375,109.56357420625001,55.0,76.0
608,109.05736344375,109.5682325875,40.0,68.0
609,109.30581044375,109.5682325875,59.0,76.0
610,109.55425744375,109.6179219875,47.0,42.0
611,109.30581044375,109.62723875,64.0,76.0
612,109.80270444375,109.93935029375001,40.0,75.0
613,110.05115144375,110.23127551875001,54.0,68.0
614,110.05115144375,110.24214507500001,50.0,73.0
615,110.05115144375,110.25922580625,57.0,67.0
616,110.05115144375,110.3322071125,38.0,76.0
617,110.79649244375,110.975063725,50.0,77.0
618,110.79649244375,110.9843804875,54.0,79.0
619,110.79649244375,110.999908425,57.0,77.0
620,110.54804544375,111.07288973125,38.0,84.0
621,110.79649244375,111.07444252500001,62.0,75.0
622,111.04493944375001,111.16605735625001,45.0,64.0
623,111.29338644375001,111.4191627375,38.0,75.0
624,111.54183344375001,111.70953516875001,61.0,69.0
625,111.54183344375001,111.71264075625001,64.0,80.0
626,111.54183344375001,111.72040472500001,37.0,73.0
627,111.54183344375001,111.72040472500001,67.0,69.0
628,112.03872744375,112.41450353125,37.0,73.0
629,112.28717444375,112.4377954375,61.0,73.0
630,112.28717444375,112.565124525,64.0,77.0
631,112.53562144375,112.61947230625,61.0,73.0
632,112.28717444375,112.62878906875001,67.0,74.0
633,113.03251544375,113.29338479375001,55.0,74.0
634,113.03251544375,113.31201831875,60.0,73.0
635,113.52940944375,113.67537205625,55.0,77.0
636,113.03251544375,113.91450229375,48.0,77.0
637,113.77785644375,113.99369477500001,55.0,79.0
638,113.77785644375,114.10394313125,60.0,82.0
639,113.77785644375,114.20021634375,64.0,84.0
640,114.52319744375,114.85860089375001,57.0,68.0
641,114.52319744375,114.88034000625001,64.0,75.0
642,114.52319744375,114.91450146875,61.0,73.0
643,115.02009144375,115.34773092500001,52.0,59.0
644,115.26853844375,115.527855,61.0,87.0
645,115.26853844375,115.5309605875,57.0,75.0
646,115.26853844375,115.54027735000001,69.0,72.0
647,114.52319744375,115.54493573125,45.0,75.0
648,115.26853844375,115.55580528750001,64.0,79.0
649,115.51698544375,115.61636424375,52.0,67.0
650,115.76543244375,115.85549448125,45.0,73.0
651,116.51077344375,116.6738167875,50.0,76.0
652,116.75922044375001,116.962636425,50.0,80.0
653,116.75922044375001,116.99524509375,54.0,80.0
654,116.75922044375001,117.04182890625,57.0,76.0
655,116.01387944375,117.049592875,38.0,79.0
656,116.75922044375001,117.05425125625,62.0,75.0
657,117.00766744375001,117.12567976875,45.0,61.0
658,117.50462433125,117.6432535125,52.0,72.0
659,117.50462433125,117.646368775,55.0,73.0
660,117.50462433125,117.66038745625,64.0,75.0
661,117.50462433125,117.71490455,40.0,80.0
662,118.25228733125,118.47970149375,64.0,79.0
663,118.25228733125,118.53266095625,52.0,77.0
664,118.25228733125,118.5466796375,55.0,78.0
665,118.00306633125,118.8145922125,40.0,75.0
666,118.50150833125,118.817707475,47.0,73.0
667,118.75072933125,118.8488601,52.0,73.0
668,118.75072933125,118.85041773125,62.0,68.0
669,118.75072933125,118.8706669375,55.0,72.0
670,118.99995033125,120.313033475,52.0,75.0
671,118.99995033125,120.319264,64.0,82.0
672,118.99995033125,120.33328268125,55.0,75.0
673,118.99995033125,120.34262846875001,40.0,79.0
674,120.49527633125,120.8021296875,55.0,73.0
675,120.49527633125,120.80680258125,64.0,74.0
676,120.49527633125,120.8145907375,52.0,73.0
677,120.49527633125,120.82549415625,59.0,73.0
678,120.49527633125,120.84107046875,40.0,78.0
679,120.99371833125,121.085618575,64.0,68.0
680,120.99371833125,121.09340673125,52.0,71.0
681,120.99371833125,121.10275251875,40.0,57.0
682,121.24293933125,121.2912259,55.0,55.0
683,121.24293933125,121.33639720625,52.0,68.0
684,121.24293933125,121.34574299375,64.0,70.0
685,121.24293933125,121.35820404375,40.0,70.0
686,121.49216033125,121.608982675,52.0,71.0
687,121.49216033125,121.61677083125,55.0,70.0
688,121.49216033125,121.61988609375,40.0,75.0
689,121.49216033125,121.62300135625,64.0,74.0
690,121.74138133125,121.89091393125,52.0,77.0
691,121.74138133125,121.89091393125,55.0,77.0
692,121.74138133125,121.895586825,40.0,78.0
693,121.74138133125,121.90025971875,64.0,78.0
694,121.99060233125,122.24916911875,52.0,82.0
695,121.99060233125,122.25228438125,55.0,76.0
696,121.99060233125,122.2631878,64.0,78.0
697,121.99060233125,122.43296960625,40.0,87.0
698,123.48582737083333,123.9611355375,64.0,70.0
699,123.48582737083333,123.9935429125,59.0,67.0
700,124.22656737083334,124.32070307916668,64.0,73.0
701,124.22656737083334,124.3407647875,59.0,73.0
702,124.22656737083334,124.3453944125,67.0,73.0
703,123.9796540375,124.37934499583334,47.0,48.0
704,123.48582737083333,124.41792520416666,40.0,73.0
705,124.96730737083334,125.27286262083334,57.0,62.0
706,124.96730737083334,125.51977595416668,62.0,69.0
707,124.96730737083334,125.53675124583334,66.0,62.0
708,125.4611340375,125.5861339125,57.0,60.0
709,124.96730737083334,125.60619562083333,38.0,74.0
710,125.70804737083334,125.84384970416667,57.0,74.0
711,125.70804737083334,125.87162745416667,62.0,75.0
712,125.70804737083334,125.89323237083333,66.0,75.0
713,126.44878737083334,126.9518732875,64.0,69.0
714,126.44878737083334,126.95341649583334,67.0,56.0
715,126.44878737083334,126.96730537083334,61.0,59.0
716,126.44878737083334,127.23273720416667,49.0,65.0
717,127.18952737083333,127.29755195416666,64.0,75.0
718,127.18952737083333,127.30835441250001,61.0,71.0
719,127.18952737083333,127.32070007916667,67.0,73.0
720,127.93026737083333,128.24971149583334,59.0,64.0
721,127.93026737083333,128.48582237083335,64.0,73.0
722,128.4240940375,128.54600749583335,59.0,69.0
723,127.93026737083333,128.76359987083333,52.0,63.0
724,128.67100737083334,128.79137762083334,59.0,74.0
725,128.67100737083334,128.86236520416668,64.0,78.0
726,128.67100737083334,128.90248862083334,67.0,73.0
727,129.41174737083333,129.65866070416666,55.0,65.0
728,129.41174737083333,129.93335178750002,60.0,68.0
729,129.9055740375,129.9935369125,55.0,66.0
730,129.41174737083333,130.0814997875,48.0,72.0
731,130.15248737083334,130.2481662875,55.0,74.0
732,130.15248737083334,130.28828970416666,64.0,75.0
733,130.15248737083334,130.29137612083335,60.0,75.0
734,130.39940070416668,130.46730187083332,55.0,61.0
735,130.6463140375,130.92717795416667,60.0,68.0
736,130.89322737083333,131.24970849583335,57.0,64.0
737,130.89322737083333,131.33767137083333,62.0,65.0
738,131.3870540375,131.70804137083334,45.0,62.0
739,130.89322737083333,131.71421420416667,38.0,75.0
740,131.63396737083335,131.7713129125,57.0,69.0
741,131.63396737083335,131.84847332916667,62.0,73.0
742,131.63396737083335,131.86544862083335,66.0,73.0
743,132.37470737083333,132.84692912083335,59.0,67.0
744,132.37470737083333,132.86081799583334,55.0,67.0
745,133.11544737083335,133.1879781625,55.0,74.0
746,133.11544737083335,133.19569420416667,59.0,77.0
747,133.11544737083335,133.22810157916666,62.0,75.0
748,132.37470737083333,133.24970649583335,43.0,73.0
749,132.8685340375,133.25124970416667,50.0,59.0
750,133.36236070416666,133.6139036625,57.0,74.0
751,133.6092740375,133.8731626625,58.0,61.0
752,133.85618737083334,134.30989062083333,59.0,72.0
753,134.35001403750002,134.69414949583333,54.0,59.0
754,133.85618737083334,134.71575441250002,47.0,74.0
755,134.59692737083333,134.83458145416668,63.0,75.0
756,134.59692737083333,134.84692712083333,59.0,75.0
757,134.59692737083333,134.8963097875,66.0,76.0
758,134.84384070416667,134.93643320416666,51.0,21.0
759,135.33766737083334,135.6277905375,55.0,66.0
760,135.33766737083334,135.9101976625,64.0,73.0
761,135.33766737083334,135.92408653750002,60.0,67.0
762,135.8314940375,136.00124695416667,55.0,66.0
763,136.07840737083333,136.1787159125,55.0,75.0
764,135.33766737083334,136.1879751625,48.0,73.0
765,136.07840737083333,136.19414799583333,60.0,77.0
766,136.07840737083333,136.1972344125,64.0,78.0
767,136.81914737083335,137.09383845416667,57.0,69.0
768,136.81914737083335,137.36544312083333,62.0,72.0
769,136.81914737083335,137.37470237083335,66.0,68.0
770,137.3129740375,137.45031957916666,57.0,61.0
771,136.81914737083335,137.6185292875,50.0,74.0
772,137.55988737083334,137.67717120416668,57.0,74.0
773,137.55988737083334,137.8314920375,62.0,79.0
774,137.55988737083334,138.0259362875,66.0,78.0
775,137.80680070416668,138.07377574583333,57.0,68.0
776,138.05371403750001,138.13241766250002,62.0,65.0
777,138.3006657125,138.73855355,57.0,61.0
778,138.3006657125,138.81774603125,61.0,60.0
779,138.7975597125,139.1484911,52.0,58.0
780,138.3006657125,139.2074972625,45.0,74.0
781,139.0460067125,139.6609130375,57.0,73.0
782,139.0460067125,139.69352170625,64.0,77.0
783,139.0460067125,139.713708025,61.0,77.0
784,139.7851365375,139.837931525,55.0,57.0
785,139.81463961875,139.9590494375,71.0,61.0
786,139.7913477125,140.40470124375,64.0,71.0
787,140.2882417125,141.02581874375,59.0,69.0
788,139.7913477125,141.0335827125,52.0,68.0
789,140.5366887125,141.05687461875002,64.0,79.0
790,140.5366887125,141.10656401875,67.0,76.0
791,141.2820297125,141.60035243125,55.0,64.0
792,141.2820297125,141.83637708125,60.0,67.0
793,141.7789237125,141.9217807375,55.0,67.0
794,141.2820297125,142.12519671875,48.0,75.0
795,142.02737071250002,142.1795445,55.0,79.0
796,142.02737071250002,142.20594199375,60.0,78.0
797,142.02737071250002,142.2447618375,64.0,77.0
798,142.7727117125,143.34569260625,57.0,66.0
799,142.7727117125,143.35966775,62.0,68.0
800,142.7727117125,143.37364289375,66.0,64.0
801,143.2696057125,143.5615309375,45.0,48.0
802,142.7727117125,143.59103401875,38.0,76.0
803,143.5180527125,143.63451224375,62.0,75.0
804,143.5180527125,143.6360650375,57.0,74.0
805,143.5180527125,143.688860025,66.0,75.0
806,144.2633937125,144.75562933125,64.0,73.0
807,144.2633937125,144.7633933,55.0,69.0
808,144.2633937125,144.7913435875,59.0,73.0
809,144.7602877125,145.10966630625,47.0,53.0
810,144.2633937125,145.2323370125,40.0,75.0
811,145.2571817125,145.33637419375,47.0,50.0
812,145.5056287125,145.626746625,38.0,79.0
813,145.0087347125,145.8243882125,55.0,77.0
814,145.0087347125,145.9197007125,59.0,80.0
815,145.0087347125,145.9275132125,64.0,80.0
816,146.2540757125,146.3868882125,55.0,72.0
817,145.7540757125,147.1431382125,40.0,82.0
818,146.5040757125,147.1462632125,55.0,77.0
819,146.5040757125,147.1556382125,59.0,84.0
820,146.5040757125,147.1556382125,64.0,80.0
821,147.2540757125,147.5118882125,55.0,73.0
822,147.2540757125,147.5884507125,60.0,74.0
823,147.2540757125,147.60251321249999,64.0,75.0
824,147.7540757125,147.8540757125,55.0,75.0
825,147.2540757125,148.0978257125,36.0,74.0
826,148.0040757125,148.1587632125,55.0,77.0
827,148.0040757125,148.1634507125,64.0,82.0
828,148.0040757125,148.1697007125,60.0,82.0
829,148.5040757125,148.6384507125,55.0,72.0
830,148.5040757125,148.6618882125,36.0,68.0
831,148.5040757125,148.6931382125,60.0,70.0
832,148.7540757125,149.0072007125,57.0,72.0
833,148.7540757125,149.0275132125,62.0,67.0
834,149.2540757125,149.42282571249999,57.0,73.0
835,148.7540757125,149.60251321249999,38.0,79.0
836,149.5040757125,149.7478257125,57.0,74.0
837,149.5040757125,149.98532571249999,62.0,75.0
838,149.5040757125,150.00876321249999,66.0,79.0
839,150.0040757125,150.1197007125,57.0,70.0
840,150.2540757125,150.6478257125,59.0,73.0
841,150.2540757125,150.68845071249999,55.0,73.0
842,150.7540757125,151.07126321249999,50.0,48.0
843,151.0040757125,151.1775132125,59.0,79.0
844,151.0040757125,151.18063821249999,62.0,78.0
845,151.0040757125,151.1837632125,55.0,75.0
846,150.2540757125,151.3493882125,43.0,74.0
847,151.2540757125,151.3650132125,50.0,58.0
848,151.5040757125,151.6868882125,54.0,75.0
849,151.75403189375,152.0141563125,55.0,73.0
850,151.75403189375,152.03752078125,52.0,73.0
851,152.25247389375,152.602940925,47.0,61.0
852,151.75403189375,152.6060561875,40.0,77.0
853,152.50169489375,152.64499696875,52.0,79.0
854,152.50169489375,152.665246175,55.0,77.0
855,152.50169489375,152.69951406250001,59.0,74.0
856,152.75091589375,152.8459314,40.0,74.0
857,153.24935789375002,153.49857889375,55.0,73.0
858,153.24935789375002,153.80387461875,60.0,72.0
859,153.74779989375,153.8708527625,55.0,59.0
860,153.24935789375002,154.06711430000001,48.0,77.0
861,153.99702089375,154.173033225,55.0,76.0
862,153.99702089375,154.3007589875,60.0,79.0
863,153.99702089375,154.47677131875,64.0,78.0
864,154.49546289375002,154.59203603125,55.0,73.0
865,154.74468389375,154.98455910625,62.0,70.0
866,154.74468389375,154.9861167375,57.0,73.0
867,155.24312589375,155.36462113125,57.0,60.0
868,155.49234689375,155.64187949375,57.0,74.0
869,154.74468389375,155.71976105625,38.0,76.0
870,155.49234689375,155.77427815000001,62.0,76.0
871,155.49234689375,156.042190725,66.0,75.0
872,155.74156789375002,156.0453059875,57.0,67.0
873,155.99078889375,156.10605360625001,62.0,64.0
874,156.24000989375,156.57957350625,59.0,69.0
875,156.24000989375,156.6496669125,64.0,74.0
876,156.73845189375,156.839697925,59.0,73.0
877,156.98767289375002,157.26804651875,67.0,76.0
878,156.98767289375002,157.288295725,59.0,79.0
879,157.23689389375,157.36929255,66.0,82.0
880,156.24000989375,157.58580329375,40.0,75.0
881,157.73533589375,158.0577655625,59.0,69.0
882,157.73533589375,158.08736055625,64.0,74.0
883,158.23377789375002,158.34592734375,59.0,82.0
884,157.98455689375,158.56711098125,47.0,70.0
885,158.48299889375,158.73533515625002,59.0,82.0
886,157.73533589375,158.746238575,40.0,79.0
887,158.48299889375,158.76337251875,64.0,79.0
888,158.73221989375,158.821004875,47.0,69.0
889,159.23064260625,159.46129274375,55.0,75.0
890,159.23064260625,159.74921841875,60.0,75.0
891,159.72599860625,159.86686546875,55.0,68.0
892,159.23064260625,160.03095214375,48.0,77.0
893,159.97367660625,160.14705120624998,55.0,78.0
894,159.97367660625,160.16717504375,60.0,79.0
895,159.97367660625,160.34983756875,64.0,78.0
896,160.46903260624998,160.58977563125,55.0,72.0
897,160.71671060625,160.93497684374998,57.0,74.0
898,160.71671060625,160.95664866875,62.0,72.0
899,161.21206660625,161.34364554375,57.0,54.0
900,160.71671060625,161.43807278124999,38.0,77.0
901,161.45974460624998,161.59906348125,57.0,75.0
902,161.45974460624998,161.69039474375,62.0,77.0
903,161.45974460624998,161.96284054375,66.0,76.0
904,161.70742260625,161.97522444375,57.0,66.0
905,161.95510060625,162.04488388125,62.0,65.0
906,162.20277860624998,162.55107579375,55.0,73.0
907,162.20277860624998,162.59751541875,59.0,77.0
908,162.69813460625,162.79720580625,55.0,67.0
909,162.94581260625,163.12847513124998,62.0,77.0
910,162.94581260625,163.13002311875,59.0,89.0
911,162.94581260625,163.17027079375,55.0,77.0
912,163.19349060624998,163.31423363125,50.0,61.0
913,162.20277860624998,163.31578161874998,43.0,73.0
914,163.44116860625,163.57119955624998,54.0,75.0
915,163.68884660625,163.97832026875,55.0,70.0
916,163.68884660625,163.98760819375,52.0,73.0
917,164.18420260624998,164.47677224375,47.0,61.0
918,163.68884660625,164.55417161875,40.0,76.0
919,164.43188060625,164.56191155624998,52.0,77.0
920,164.43188060625,164.56810350625,55.0,80.0
921,164.43188060625,164.60061124375,59.0,77.0
922,165.17491460624998,165.38389291875,55.0,74.0
923,165.17491460624998,165.70897029374999,60.0,74.0
924,165.67027060625,165.79101363125,55.0,69.0
925,165.17491460624998,166.00153993125,48.0,74.0
926,165.91794860624998,166.10680308125,55.0,76.0
927,165.91794860624998,166.26005384375,60.0,80.0
928,165.91794860624998,166.50463586875,64.0,80.0
929,166.41330460625,166.57274731875,55.0,66.0
930,166.66098260625,166.92104450624998,57.0,73.0
931,166.66098260625,166.99534790625,62.0,68.0
932,167.15633860625,167.28791754374998,57.0,65.0
933,166.66098260625,167.50773176875,50.0,77.0
934,167.40401660625,167.54643145625,57.0,74.0
935,167.40401660625,167.67646240624998,62.0,77.0
936,167.40401660625,167.72445001875,66.0,74.0
937,168.14705060625,168.58048710625,59.0,69.0
938,168.14705060625,168.60370691875,64.0,74.0
939,168.64240660625,168.98605983125,47.0,61.0
940,168.89008460624999,169.17646229374998,59.0,73.0
941,168.89008460624999,169.18884619374998,64.0,78.0
942,168.89008460624999,169.23373783124998,67.0,74.0
943,169.13776260625,169.41330438125,47.0,63.0
944,168.14705060625,169.43497620624998,40.0,77.0
945,169.38544060625,169.57584306875,62.0,73.0
946,169.63311860624998,169.93033220625,55.0,72.0
947,169.63311860624998,169.97986780624998,59.0,69.0
948,169.63311860624998,169.99534768125,64.0,74.0
949,170.12847460625,170.24457366874998,55.0,78.0
950,169.63311860624998,170.50308758124999,40.0,77.0
951,170.37615260625,170.70432595625,55.0,78.0
952,170.37615260625,170.93807206875,59.0,82.0
953,170.37615260625,170.95509993125,64.0,75.0
954,170.62383060624998,171.00927949375,40.0,76.0
955,170.87150860625,171.02940333125,55.0,75.0
956,171.11763861875,171.37150856875,36.0,80.0
957,171.11918660625,171.37460454375,55.0,73.0
958,171.11918660625,171.45045593125,60.0,74.0
959,171.11918660625,171.46438781875,64.0,75.0
960,171.61299461874998,171.69658594375,36.0,74.0
961,171.61454260624998,171.71361380624998,55.0,75.0
962,171.86222060625,172.01547136874999,55.0,77.0
963,171.86222060625,172.02011533125,64.0,82.0
964,171.86222060625,172.02630728124998,60.0,82.0
965,171.86067261875,172.10525464375,36.0,74.0
966,172.35602861875,172.48605956875,36.0,75.0
967,172.35757660625,172.49070353125,55.0,72.0
968,172.35757660625,172.54488309375,60.0,70.0
969,172.60525460624999,172.85602858125,57.0,72.0
970,172.60370661874998,172.86841248125,38.0,77.0
971,172.60525460624999,172.87615241875,62.0,67.0
972,173.09906261875,173.17336601875,38.0,77.0
973,173.10061060625,173.26779325625,57.0,73.0
974,173.34828860624998,173.58977465625,57.0,74.0
975,173.34674061875,173.67800994375,38.0,75.0
976,173.34828860624998,173.82506875625,62.0,75.0
977,173.34828860624998,173.84828856874998,66.0,79.0
978,173.84209661875,173.94890775624998,38.0,74.0
979,173.84364460625,173.95819568125,57.0,70.0
980,174.08977461875,174.43807180624998,43.0,74.0
981,174.09132260625,174.48141545625,59.0,73.0
982,174.09132260625,174.52166313125,55.0,73.0
983,174.58513061875,174.68110584375,43.0,74.0
984,174.58667860625,174.90092006875,50.0,48.0
985,174.83435660625,175.00618321874998,59.0,79.0
986,174.83435660625,175.00927919375,62.0,78.0
987,174.83435660625,175.01237516875,55.0,75.0
988,174.83280861875,175.18110580625,43.0,74.0
989,175.08203460625,175.19194171875,50.0,58.0
990,175.32816461874998,175.48915531875,43.0,74.0
991,175.32971260624998,175.51082714375,54.0,75.0
992,175.57740989374997,175.8375343125,55.0,73.0
993,175.57740989374997,175.86089878124997,52.0,73.0
994,175.57585226249998,175.88582088124997,40.0,74.0
995,176.0742942625,176.18177081874998,40.0,74.0
996,176.07585189374998,176.42631892499998,47.0,61.0
997,176.32507289375,176.46837496874997,52.0,79.0
998,176.32507289375,176.48862417499998,55.0,77.0
999,176.32507289375,176.52289206249998,59.0,74.0
1000,176.3235152625,176.70980781249997,40.0,74.0
1001,176.82195726249998,176.93099145,40.0,74.0
1002,177.07273589374998,177.32195689374998,55.0,73.0
1003,177.07117826249998,177.39360793125,36.0,74.0
1004,177.07273589374998,177.62725261875,60.0,72.0
1005,177.5696202625,177.67709681875,36.0,74.0
1006,177.57117789375,177.69423076249998,55.0,59.0
1007,177.07273589374998,177.89049229999998,48.0,77.0
1008,177.82039889375,177.99641122499997,55.0,76.0
1009,177.82039889375,178.12413698749998,60.0,79.0
1010,177.81884126249997,178.19423039375,36.0,74.0
1011,177.82039889375,178.30014931875,64.0,78.0
1012,178.31884089374998,178.41541403124998,55.0,73.0
1013,178.31728326249998,178.4356632375,36.0,74.0
1014,178.56806189374998,178.80793710625,62.0,70.0
1015,178.56806189374998,178.8094947375,57.0,73.0
1016,178.5665042625,178.87335761875,38.0,74.0
1017,179.06494626249997,179.15996176874998,38.0,74.0
1018,179.06650389375,179.18799913125,57.0,60.0
1019,179.31572489374997,179.46525749375,57.0,74.0
1020,179.31572489374997,179.59765614999998,62.0,76.0
1021,179.31416726249998,179.666191925,38.0,74.0
1022,179.31572489374997,179.86556872499997,66.0,75.0
1023,179.56494589374998,179.8686839875,57.0,67.0
1024,179.81416689374998,179.92943160624998,62.0,64.0
1025,179.8126092625,179.94345028749999,38.0,74.0
1026,180.06338789375,180.40295150625,59.0,69.0
1027,180.0618302625,180.41385492499998,40.0,74.0
1028,180.06338789375,180.47304491249997,64.0,74.0
1029,180.56027226249998,180.62413514374998,40.0,74.0
1030,180.56182989374997,180.663075925,59.0,73.0
1031,180.81105089374998,181.09142451875,67.0,76.0
1032,180.81105089374998,181.11167372499997,59.0,79.0
1033,180.80949326249998,181.19267054999997,40.0,74.0
1034,181.06027189374998,181.19267054999997,66.0,82.0
1035,181.3079352625,181.42475760624998,40.0,74.0
1036,181.55871389375,181.88114356249997,59.0,69.0
1037,181.55715626249997,181.8998351375,40.0,74.0
1038,181.55871389375,181.91073855624998,64.0,74.0
1039,182.05559826249998,182.14126798125,40.0,74.0
1040,182.05715589374998,182.16930534374998,59.0,82.0
1041,181.80793489374997,182.39048898124997,47.0,70.0
1042,182.3048192625,182.4013924,40.0,74.0
1043,182.30637689374998,182.55871315624998,59.0,82.0
1044,182.30637689374998,182.58675051875,64.0,79.0
1045,182.55559789375,182.644382875,47.0,69.0
1046,182.5540402625,182.7721086375,40.0,74.0
1047,182.80326126249997,182.94189044375,38.0,74.0
1048,183.05403989374997,183.28612694999998,55.0,75.0
1049,183.05248226249998,183.36245088125,36.0,74.0
1050,183.05248226249998,183.36245088125,36.0,74.0
1051,183.05403989374997,183.5758463625,60.0,75.0
1052,183.5509242625,183.62724819374998,36.0,74.0
1053,183.55248189374998,183.69422633749997,55.0,68.0
1054,183.05403989374997,183.85933525,48.0,77.0
1055,183.80170289375,183.97615759374997,55.0,78.0
1056,183.80170289375,183.9964068,60.0,79.0
1057,183.8001452625,184.13036308749997,36.0,74.0
1058,183.80170289375,184.1802072875,64.0,78.0
1059,184.29858726249998,184.40450618749998,36.0,74.0
1060,184.30014489374997,184.42164013124997,55.0,72.0
1061,184.54936589374998,184.76899189999997,57.0,74.0
1062,184.54936589374998,184.79079873749998,62.0,72.0
1063,184.54780826249998,184.88892950624998,38.0,74.0
1064,185.0462502625,185.1210165625,38.0,74.0
1065,185.04780789375,185.18020654999998,57.0,54.0
1066,185.29702889375,185.43721570625,57.0,75.0
1067,185.29702889375,185.52911594999998,62.0,77.0
1068,185.29547126249997,185.6693027625,38.0,74.0
1069,185.29702889375,185.80325904999998,66.0,76.0
1070,185.54624989374997,185.8157201,57.0,66.0
1071,185.79391326249998,185.86867956249998,38.0,74.0
1072,185.79547089374998,185.88581350624997,62.0,65.0
1073,186.04469189374998,186.39515892499998,55.0,73.0
1074,186.0431342625,186.39671655625,43.0,74.0
1075,186.04469189374998,186.44188786249998,59.0,77.0
1076,186.54157626249997,186.6163425625,43.0,74.0
1077,186.54313389375,186.64282229375,55.0,67.0
1078,186.79235489374997,186.97615538124998,62.0,77.0
1079,186.79235489374997,186.97771301249998,59.0,89.0
1080,186.79235489374997,187.01821142499998,55.0,77.0
1081,186.79079726249998,187.15528297499998,43.0,74.0
1082,187.04157589374998,187.16307113124998,50.0,61.0
1083,187.2892392625,187.416965025,43.0,74.0
1084,187.29079689374998,187.42163791874998,54.0,75.0
1085,187.54001789375,187.8312949375,55.0,70.0
1086,187.54001789375,187.840640725,52.0,73.0
1087,187.5384602625,187.87023571875,40.0,74.0
1088,188.03690226249998,188.0992075125,40.0,74.0
1089,188.03845989374997,188.3328522,47.0,61.0
1090,188.28768089374998,188.41852191874997,52.0,77.0
1091,188.28768089374998,188.42475244374998,55.0,80.0
1092,188.28768089374998,188.45746269999998,59.0,77.0
1093,188.28612326249998,188.65995476249998,40.0,74.0
1094,188.7845652625,188.92319444375,40.0,74.0
1095,189.03540248124997,189.24700091874996,55.0,74.0
1096,189.03383508541663,189.3661230020833,36.0,74.0
1097,189.03540248124997,189.57615404374997,60.0,74.0
1098,189.53540175208332,189.59966498124996,36.0,74.0
1099,189.53696914791664,189.65922602291664,55.0,69.0
1100,189.03540248124997,189.87239185624998,48.0,74.0
1101,189.78775248124998,189.97897477291664,55.0,76.0
1102,189.78618508541663,190.13414696041664,36.0,74.0
1103,189.78775248124998,190.13414696041664,60.0,80.0
1104,189.78775248124998,190.3817955020833,64.0,80.0
1105,190.2877517520833,190.4053064395833,36.0,74.0
1106,190.28931914791664,190.45076091874998,55.0,66.0
1107,190.54010248124996,190.80342498124998,57.0,73.0
1108,190.53853508541664,190.85044685624996,38.0,74.0
1109,190.54010248124996,190.87865998124997,62.0,68.0
1110,191.0401017520833,191.09496060624997,38.0,74.0
1111,191.04166914791665,191.17489779374998,57.0,65.0
1112,190.54010248124996,191.39746800208331,50.0,77.0
1113,191.29245248124997,191.43665289791664,57.0,74.0
1114,191.29245248124997,191.56831414791665,62.0,77.0
1115,191.29245248124997,191.61690341874998,66.0,74.0
1116,191.29088508541665,191.69057102291663,38.0,74.0
1117,191.7924517520833,191.9100064395833,38.0,74.0
1118,192.04323508541663,192.37408236874998,40.0,74.0
1119,192.04480248124997,192.47967234374997,59.0,69.0
1120,192.04480248124997,192.50296424999996,64.0,74.0
1121,192.5402313,192.6054486375,40.0,74.0
1122,192.54178409374998,192.88561551041664,47.0,61.0
1123,192.79023109374998,193.07484588541664,59.0,73.0
1124,192.79023109374998,193.08715355208332,64.0,78.0
1125,192.79023109374998,193.13176884374997,67.0,74.0
1126,192.7886783,193.14869188541664,40.0,74.0
1127,193.0363844270833,193.31023001041666,47.0,63.0
1128,193.2809993020833,193.34407609374998,40.0,74.0
1129,193.28253776041666,193.47176813541665,62.0,73.0
1130,193.52869109374998,193.9179210520833,55.0,73.0
1131,193.52869109374998,193.96099788541665,52.0,74.0
1132,194.02099776041663,194.33638171874998,47.0,68.0
1133,193.52715263541666,194.34253555208332,40.0,74.0
1134,194.26715109375,194.46099684374997,52.0,73.0
1135,194.26715109375,194.53022746874998,55.0,78.0
1136,194.26715109375,194.5456120520833,64.0,76.0
1137,194.26715109375,194.54868896874999,59.0,74.0
1138,194.5133044270833,194.63945801041666,47.0,75.0
1139,195.00561109375,195.23637984374997,48.0,75.0
1140,195.00561109375,195.25022596875,52.0,75.0
1141,195.49791776041664,195.86560930208333,48.0,73.0
1142,195.74407109375,195.88714771875,60.0,80.0
1143,195.74407109375,195.91330151041666,64.0,84.0
1144,195.99022442708332,196.06407042708332,55.0,73.0
1145,196.23637776041664,196.31637759375,48.0,76.0
1146,196.48253109374997,197.07329909375,62.0,71.0
1147,196.48253109374997,197.09637596874998,66.0,69.0
1148,196.97483776041665,197.33637546875,50.0,74.0
1149,197.22099109374997,197.46868288541665,62.0,77.0
1150,197.22099109374997,197.49637513541666,66.0,82.0
1151,197.46714442708333,197.53637505208332,57.0,74.0
1152,197.95945109374998,198.1871429270833,64.0,75.0
1153,197.95945109374998,198.22252746874997,67.0,72.0
1154,198.45175776041665,198.82098776041664,47.0,63.0
1155,198.69791109374998,198.88912432499998,55.0,73.0
1156,198.69791109374998,198.91552181874997,59.0,76.0
1157,198.69791109374998,198.92949696249997,64.0,77.0
1158,198.94502489999996,199.23234517916663,47.0,67.0
1159,199.19472767916665,199.37341080416664,55.0,70.0
1160,199.44551101249996,200.4016224708333,55.0,67.0
1161,199.44551101249996,200.48312705416663,64.0,74.0
1162,199.44551101249996,200.5050705958333,59.0,72.0
1163,200.95019641041662,201.83528884791662,52.0,75.0
1164,200.95019641041662,201.83684164166664,59.0,73.0
1165,201.94398441041662,202.24833198541663,64.0,77.0
1166,201.94398441041662,202.26075433541664,59.0,77.0
1167,200.95019641041662,202.31199652916663,40.0,76.0
1168,202.19243141041662,202.38963621666662,47.0,65.0
1169,202.44087841041662,203.11944927916662,52.0,69.0
1170,202.44087841041662,203.12566045416662,59.0,68.0
1171,202.44087841041662,203.29336217916662,40.0,76.0
1172,203.18621941041664,203.30267894166664,52.0,75.0
1173,203.18621941041664,203.31199570416663,59.0,77.0
1174,203.18621941041664,203.36479069166663,64.0,74.0
1175,203.93156041041664,204.74211874791663,61.0,66.0
1176,203.93156041041664,204.76385786041664,64.0,73.0
1177,203.93156041041664,205.19087614166662,37.0,66.0
1178,204.92534841041663,205.21106246041663,61.0,75.0
1179,204.92534841041663,205.31044126041664,64.0,77.0
1180,205.17379541041663,205.35702507291663,57.0,69.0
1181,205.42224241041663,206.04801829166664,57.0,66.0
1182,205.42224241041663,206.05112387916662,61.0,62.0
1183,205.42224241041663,206.08217975416662,64.0,74.0
1184,205.42224241041663,206.09770769166664,37.0,65.0
1185,206.16758341041663,206.30733484791662,57.0,74.0
1186,206.16758341041663,206.46727260416662,61.0,75.0
1187,206.41603041041662,206.52627876666662,57.0,67.0
1188,206.16758341041663,206.52783156041664,64.0,77.0
1189,206.91289565416665,207.2122780708333,55.0,74.0
1190,206.91289565416665,207.48696915416664,60.0,73.0
1191,206.91289565416665,207.48696915416664,64.0,75.0
1192,206.91289565416665,207.75085777916664,48.0,76.0
1193,207.65363565416664,207.83110461249998,55.0,75.0
1194,207.65363565416664,207.86659840416664,60.0,77.0
1195,207.65363565416664,207.89591936249997,64.0,77.0
1196,208.39437565416665,208.70610373749997,55.0,66.0
1197,208.39437565416665,208.9159800708333,60.0,69.0
1198,208.39437565416665,208.92215290416664,64.0,75.0
1199,208.8882023208333,208.96073311249998,55.0,58.0
1200,209.38202898749998,209.62585590416663,48.0,78.0
1201,209.62894232083332,209.78017673749997,55.0,77.0
1202,209.62894232083332,209.78943598749999,60.0,79.0
1203,209.62894232083332,209.80023844583332,64.0,80.0
1204,209.87585565416663,210.36350948749998,59.0,69.0
1205,209.87585565416663,210.3650526958333,55.0,73.0
1206,210.3696823208333,210.76937327916664,50.0,58.0
1207,210.61659565416664,210.78171894583332,59.0,78.0
1208,210.61659565416664,210.78480536249998,55.0,75.0
1209,210.61659565416664,210.83573123749997,62.0,75.0
1210,209.87585565416663,210.89900277916664,43.0,77.0
1211,211.1104223208333,211.2724591958333,57.0,70.0
1212,211.35733565416663,211.7076439458333,59.0,70.0
1213,211.35733565416663,211.99313748749998,47.0,77.0
1214,211.8511623208333,212.00085352916665,59.0,75.0
1215,212.09807565416665,212.40980373749997,59.0,84.0
1216,212.09807565416665,212.6520874458333,63.0,90.0
1217,212.09807565416665,212.65980348749997,66.0,80.0
1218,212.34498898749996,212.68758123749998,54.0,77.0
1219,212.5919023208333,212.75548240416663,59.0,78.0
1220,212.83881565416664,212.9993093208333,55.0,72.0
1221,212.83881565416664,213.00548215416663,59.0,70.0
1222,212.83881565416664,213.00702536249997,52.0,73.0
1223,212.83881565416664,213.0131981958333,64.0,74.0
1224,212.83881565416664,213.11350673749996,40.0,75.0
1225,213.57955565416665,213.8187529458333,52.0,80.0
1226,213.57955565416665,213.83572823749998,55.0,76.0
1227,213.33264232083332,213.84035786249999,40.0,68.0
1228,213.57955565416665,213.84035786249999,59.0,76.0
1229,213.82646898749996,213.88974052916663,47.0,42.0
1230,213.57955565416665,213.89899977916664,64.0,76.0
1231,214.0733823208333,214.20918465416665,40.0,75.0
1232,214.32029565416664,214.4993078208333,54.0,68.0
1233,214.32029565416664,214.51011027916664,50.0,73.0
1234,214.32029565416664,214.52708557083332,57.0,67.0
1235,214.32029565416664,214.59961636249997,38.0,76.0
1236,215.06103565416663,215.23850461249998,50.0,77.0
1237,215.06103565416663,215.24776386249997,54.0,79.0
1238,215.06103565416663,215.2631959458333,57.0,77.0
1239,214.81412232083332,215.33572673749998,38.0,84.0
1240,215.06103565416663,215.3372699458333,62.0,75.0
1241,215.30794898749997,215.42831923749998,45.0,64.0
1242,215.5548623208333,215.6798621958333,38.0,75.0
1243,215.80177565416665,215.96844215416664,61.0,69.0
1244,215.80177565416665,215.9715285708333,64.0,80.0
1245,215.80177565416665,215.97924461249997,37.0,73.0
1246,215.80177565416665,215.97924461249997,67.0,69.0
1247,216.2956023208333,216.66905873749997,37.0,73.0
1248,216.54251565416664,216.69220686249997,61.0,73.0
1249,216.54251565416664,216.8187499458333,64.0,77.0
1250,216.78942898749997,216.87276223749998,61.0,73.0
1251,216.54251565416664,216.88202148749997,67.0,74.0
1252,217.28325565416665,217.54251465416664,55.0,74.0
1253,217.28325565416665,217.56103315416664,60.0,73.0
1254,217.7770823208333,217.92214390416663,55.0,77.0
1255,217.28325565416665,218.15979798749999,48.0,77.0
1256,218.02399565416664,218.2385016125,55.0,79.0
1257,218.02399565416664,218.34806940416664,60.0,82.0
1258,218.02399565416664,218.44374832083332,64.0,84.0
1259,218.76473565416663,219.09806865416664,57.0,68.0
1260,218.76473565416663,219.1196735708333,64.0,75.0
1261,218.76473565416663,219.15362415416664,61.0,73.0
1262,219.2585623208333,219.58417927916665,52.0,59.0
1263,219.50547565416664,219.76319144583331,61.0,87.0
1264,219.50547565416664,219.76627786249998,57.0,75.0
1265,219.50547565416664,219.7755371125,69.0,72.0
1266,218.76473565416663,219.78016673749997,45.0,75.0
1267,219.50547565416664,219.7909691958333,64.0,79.0
1268,219.75238898749998,219.8511543208333,52.0,67.0
1269,219.9993023208333,220.08880840416663,45.0,73.0
1270,220.7400423208333,220.9020791958333,50.0,76.0
1271,220.98695565416665,221.1891159458333,50.0,80.0
1272,220.98695565416665,221.2215233208333,54.0,80.0
1273,220.98695565416665,221.2678195708333,57.0,76.0
1274,220.24621565416663,221.27553561249997,38.0,79.0
1275,220.98695565416665,221.28016523749997,62.0,75.0
1276,221.2338689875,221.3511528208333,45.0,61.0
1277,221.72769565416664,221.8650411958333,52.0,72.0
1278,221.72769565416664,221.86812761249996,55.0,73.0
1279,221.72769565416664,221.88201648749998,64.0,75.0
1280,221.72769565416664,221.93602877916663,40.0,80.0
1281,222.46843565416665,222.6937440708333,64.0,79.0
1282,222.46843565416665,222.74621315416664,52.0,77.0
1283,222.46843565416665,222.76010202916663,55.0,78.0
1284,222.22152232083332,223.02553386249997,40.0,75.0
1285,222.71534898749997,223.02862027916663,47.0,73.0
1286,222.9622623208333,223.0594844458333,52.0,73.0
1287,222.9622623208333,223.06102765416665,62.0,68.0
1288,222.9622623208333,223.08108936249997,55.0,72.0
1289,223.20917565416664,224.51010027916664,52.0,75.0
1290,223.20917565416664,224.51627311249996,64.0,82.0
1291,223.20917565416664,224.53016198749998,55.0,75.0
1292,223.20917565416664,224.53942123749997,40.0,79.0
1293,225.19219836249997,225.77090148749997,76.0,69.0
1294,225.4205931958333,225.7817039458333,64.0,73.0
1295,225.3403463625,225.89127173749998,67.0,64.0
1296,225.2678155708333,225.9159630708333,71.0,73.0
1297,225.67676577916666,226.0131851958333,47.0,57.0
1298,225.4159635708333,226.0270740708333,40.0,75.0
1299,225.91750627916664,226.29867873749998,64.0,67.0
1300,226.19991340416664,226.5116414875,67.0,55.0
