,start,end,pitch,velocity
0,33.59135358333334,34.09738035,64.0,107.0
1,34.10595815,34.7557265,62.0,85.0
2,34.62062615,36.03167425,60.0,85.0
3,36.16463015,36.43483085,55.0,79.0
4,36.42196415,36.70074265,57.0,56.0
5,36.67929815,37.45558905,60.0,74.0
6,37.70863415,38.3026468,62.0,77.0
7,38.22330215,40.48355245,64.0,66.0
8,41.82597815,42.17337905,65.0,97.0
9,42.34064615,42.5486578,65.0,74.0
10,42.59798015,43.783861,65.0,81.0
11,43.88465015,44.3113957,57.0,82.0
12,44.39931815,45.302131599999996,60.0,67.0
13,45.42865415,45.92616655,60.0,88.0
14,45.94332215,46.74105755,64.0,78.0
15,46.71532415,49.2350529,62.0,77.0
16,50.06066615,50.586056400000004,64.0,95.0
17,50.57533415,52.49247245,60.0,83.0
18,52.634006150000005,52.771250949999995,64.0,93.0
19,52.891340150000005,53.039307199999996,64.0,85.0
20,53.148674150000005,53.6183087,62.0,82.0
21,53.66334215,54.07936545,60.0,81.0
22,54.43534415,54.79990065,67.0,90.0
23,54.69267815,57.48046315,64.0,73.0
24,58.29535415,59.0137449,62.0,88.0
25,59.067356149999995,60.096692149999996,57.0,78.0
26,60.096692149999996,60.188903499999995,62.0,90.0
27,60.354026149999996,60.92444985,59.0,79.0
28,61.126028149999996,61.75220755,59.0,85.0
29,61.89803015,62.431998199999995,57.0,79.0
30,62.41269815,62.935943949999995,59.0,70.0
31,62.92736615,64.96030475,55.0,68.0
32,66.01537415,66.27699705,57.0,93.0
33,66.27270815,66.60724235,55.0,64.0
34,66.53004215,67.11118809999999,60.0,95.0
35,67.30204415,68.49435835,60.0,99.0
36,69.10338215,69.41218295,60.0,81.0
37,69.61805015,70.0276401,62.0,95.0
38,70.13271815,70.26567405,60.0,78.0
39,70.39005215,70.9926426,60.0,70.0
40,71.16205415,71.4086659,67.0,100.0
41,71.41938815,72.66745805,64.0,86.0
42,74.25006214999999,74.4108959,64.0,96.0
43,74.50739615,74.67895215,67.0,89.0
44,74.76473014999999,75.26653145,69.0,97.0
45,75.53673215,76.20151165,69.0,122.0
46,77.33807015,78.0007052,62.0,97.0
47,78.11007215000001,78.37169505,62.0,100.0
48,78.62474015000001,78.77699609999999,60.0,96.0
49,78.88207415,79.3517087,62.0,99.0
50,79.39674215,79.6176205,64.0,97.0
51,79.65407615000001,81.4018029,62.0,99.0
52,82.48475015,82.7056285,57.0,78.0
53,82.74208415,82.9929848,55.0,70.0
54,82.99941815,83.5805641,60.0,95.0
55,83.77142015,84.96373435000001,60.0,99.0
56,85.57275815,85.88155895,60.0,81.0
57,86.08742615,86.4970161,62.0,95.0
58,86.60209415,86.73505005,60.0,78.0
59,86.85942815,87.4620186,60.0,70.0
60,87.63143015,87.8780419,67.0,100.0
61,87.88876415,89.13683405,64.0,86.0
62,90.71943815,90.8802719,64.0,96.0
63,90.97677215,91.14832815,67.0,89.0
64,91.23410615,91.73590745,69.0,97.0
65,92.00610815,92.41784255,64.0,96.0
66,92.52077615,92.79097684999999,62.0,90.0
67,92.77811015,93.0247219,64.0,85.0
68,93.03544414999999,93.19842235,62.0,90.0
69,93.29277815,93.9725688,62.0,97.0
70,94.57944814999999,95.0147715,64.0,122.0
71,95.09411614999999,95.38576135,62.0,86.0
72,95.35145015,95.94975170000001,69.0,112.0
73,96.12345214999999,98.43945815000001,67.0,112.0
74,98.95412615000001,99.25434915,69.0,102.0
75,99.21146015,99.47308305000001,67.0,88.0
76,99.46879415000001,99.9984733,72.0,122.0
77,100.24079615,101.48672160000001,72.0,122.0
78,102.04213415000001,102.3659461,72.0,107.0
79,102.55680215000001,102.83986955,74.0,127.0
80,103.07193998750002,103.21393651250001,72.0,117.0
81,103.33011548750001,103.6829553375,72.0,127.0
82,103.84646648750001,104.1605800125,71.0,97.0
83,104.36281748750001,106.5702180125,71.0,112.0
84,107.2027479875,107.37056206250001,64.0,100.0
85,107.46092348750001,107.6287375625,67.0,102.0
86,107.7190989875,108.16875465000001,69.0,112.0
87,108.49362548750001,109.06806597500001,69.0,127.0
88,109.2681519875,109.43811752500001,72.0,122.0
89,109.52632748750001,109.63605207500001,69.0,97.0
90,109.7845029875,110.32021715,72.0,122.0
91,110.55902948750001,110.96780736250001,69.0,127.0
92,111.8499069875,112.49964866250001,64.0,112.0
93,112.62443348750001,114.4445707625,62.0,122.0
94,115.98071498750001,116.5357923125,72.0,122.0
95,116.75524148750002,118.353778125,72.0,127.0
96,118.56246998750001,118.87228058750001,72.0,102.0
97,119.07882098750001,119.41660060000001,74.0,122.0
98,119.59517198750001,119.78450068750001,76.0,122.0
99,119.8533474875,120.221247575,76.0,107.0
100,120.36969848750002,121.6433642875,76.0,127.0
101,121.66057598750001,123.23974946250001,71.0,117.0
102,123.72597998750001,123.8937940625,64.0,102.0
103,123.9841554875,124.136909325,67.0,107.0
104,124.24233098750001,124.57795913750002,69.0,127.0
105,124.75855803750001,125.4808278375,69.0,112.0
106,125.7903720375,126.04402631250001,72.0,127.0
107,126.0483255375,126.31917671250001,69.0,102.0
108,126.5642325375,126.76606941666667,69.0,100.0
109,126.82181558333333,127.00835083333334,71.0,102.0
110,127.07910558333333,127.25492041666666,72.0,107.0
111,127.33639558333333,127.79951758333334,76.0,127.0
112,127.85097558333334,128.17473216666667,74.0,127.0
113,128.36555558333333,129.45046175,74.0,127.0
114,131.45303558333333,131.9657144625,76.0,127.0
115,131.96786222708332,132.45970031666667,74.0,100.0
116,132.48332572708333,134.41792575,72.0,112.0
117,135.05686258333333,135.55214583333333,72.0,117.0
118,135.57144258333332,136.03885275,71.0,100.0
119,136.08602258333332,136.61775525,67.0,88.0
120,136.6006025833333,137.17521691666664,69.0,96.0
121,137.37247258333332,138.74039775,64.0,93.0
122,140.2026625833333,140.45137624999998,64.0,96.0
123,140.45995258333332,140.60575024999997,67.0,92.0
124,140.71724258333333,141.2575515833333,65.0,99.0
125,141.4891125833333,141.64134249999998,65.0,100.0
126,141.74640258333332,142.21166866666664,65.0,102.0
127,142.51827258333333,142.64262941666667,64.0,90.0
128,142.7755625833333,143.32015975,64.0,97.0
129,143.54743258333332,144.47796474999998,62.0,96.0
130,145.8630425833333,146.6327685,69.0,102.0
131,146.63491258333332,146.80429516666666,67.0,88.0
132,146.89220258333333,148.99340425,67.0,102.0
133,151.00884258333332,151.637059,65.0,107.0
134,151.78071258333333,152.4046408333333,64.0,99.0
135,152.55258258333333,153.08431524999997,62.0,99.0
136,153.06716258333333,155.4213660833333,60.0,88.0
137,157.18380258333332,157.71339116666667,72.0,122.0
138,157.95567258333332,159.201385,72.0,122.0
139,159.75670258333332,160.08045916666666,72.0,107.0
140,160.27128258333332,160.5543015833333,74.0,127.0
141,160.7858625833333,160.92737208333332,72.0,117.0
142,161.04315258333332,161.39478225,72.0,127.0
143,161.55773258333332,161.87076875,71.0,97.0
144,162.07231258333331,164.2721420833333,71.0,112.0
145,164.90250258333333,165.06974108333333,64.0,100.0
146,165.1597925833333,165.3270310833333,67.0,102.0
147,165.41708258333333,165.86519599999997,69.0,112.0
148,166.18895258333333,166.7614228333333,69.0,127.0
149,166.9608225833333,167.13020516666666,72.0,122.0
150,167.21811258333332,167.3274608333333,69.0,97.0
151,167.47540258333333,168.00927933333332,72.0,122.0
152,168.2472725833333,169.2228305,69.0,127.0
153,169.53372258333332,170.18123574999998,64.0,112.0
154,170.30559258333332,172.11948708333333,62.0,122.0
155,173.65036258333333,174.20369244791667,72.0,122.0
156,174.42257658541666,176.0169973125,72.0,127.0
157,176.22515183541665,176.53416473541665,72.0,102.0
158,176.74017333541667,177.07708323333333,74.0,122.0
159,177.25519483541666,177.44403605208333,76.0,122.0
160,177.51270558541665,177.87965840416666,76.0,107.0
161,178.02772708541667,179.29811345208333,76.0,127.0
162,179.31528083541667,180.89038825625,71.0,117.0
163,181.37536683541666,181.54274882291665,64.0,102.0
164,181.63287758541665,181.7852381125,67.0,107.0
165,181.89038833541667,182.22515231041666,69.0,127.0
166,182.40540983541666,183.12643993541667,69.0,112.0
167,183.43545283541667,183.68867173958333,72.0,127.0
168,183.69296358541666,183.96334987291667,69.0,102.0
169,184.20798508541665,184.40970183958333,69.0,100.0
170,184.46549583541668,184.65219112916665,71.0,102.0
171,184.72300658541667,184.89897226458334,72.0,107.0
172,184.98051733541666,185.44403668541668,76.0,127.0
173,185.49553883541665,185.81957319583333,74.0,127.0
174,186.01056033541667,187.09639733125,74.0,127.0
175,189.10068933541666,189.6135649125,76.0,127.0
176,189.61571083541668,190.10712718333332,74.0,100.0
177,190.13073233541667,192.06635480625,72.0,112.0
178,192.70583983541667,193.20154802916667,72.0,117.0
179,193.22086133541666,193.68867253125,71.0,100.0
180,193.73588283541667,194.26807171875,67.0,88.0
181,194.25090433541666,194.82601167708333,69.0,96.0
182,195.02343658541668,196.39253540625,64.0,93.0
183,197.85605483541667,198.10498189375,64.0,96.0
184,198.11356558541667,198.25948834375,67.0,92.0
185,198.37107633541666,198.91184891041667,65.0,99.0
186,199.14360858541667,199.2959691125,65.0,100.0
187,199.40111933541667,199.86678460833332,65.0,102.0
188,200.17365158541668,200.29811511458334,64.0,90.0
189,200.43116233541667,200.97622675624999,64.0,97.0
190,201.20369458541666,202.13502513125,62.0,96.0
191,203.52129133541666,204.2916776625,69.0,102.0
192,204.29382358541667,204.46335149583334,67.0,88.0
193,204.55133433541667,206.65433879375001,67.0,102.0
194,208.67150633541667,209.30026175,65.0,107.0
195,209.44403858541665,210.06850215416665,64.0,99.0
196,210.21657083541666,210.74875971875,62.0,99.0
197,210.73159233541668,213.08781569791665,60.0,88.0
198,214.33674283541666,214.59854543125,57.0,93.0
199,214.59425358541665,214.92901756041667,55.0,64.0
200,214.85176433541668,215.43330944583334,60.0,95.0
201,215.62429658541666,216.81742972708332,60.0,99.0
202,217.42687183541665,217.83030534375,64.0,100.0
203,217.94189333541667,218.40326676249998,62.0,92.0
204,218.45691483541668,219.00412517916666,60.0,97.0
205,218.97193633541667,220.05562740833332,67.0,97.0
206,222.57708683541665,222.78738728125,64.0,96.0
207,222.83459758541667,223.14361048541667,67.0,82.0
208,223.09210833541667,223.2702199375,69.0,93.0
209,223.34961908541666,223.53416845625,69.0,76.0
210,223.60712983541666,223.96764488541666,69.0,96.0
211,224.12215133541667,224.27236593958332,60.0,89.0
212,224.37966208541667,225.40326731666667,60.0,88.0
213,226.18223733541666,227.10498418958332,62.0,127.0
214,227.21228033541666,229.16292426666666,64.0,127.0
215,230.81743083541667,231.03202312708333,57.0,82.0
216,231.07494158541667,231.40755963750001,55.0,67.0
217,231.33245233541666,231.92043521458334,60.0,96.0
218,232.10498458541667,233.33674433958333,60.0,102.0
219,233.90755983541666,234.39039249166666,64.0,100.0
220,234.42258133541668,234.85391184166667,62.0,97.0
221,234.93760283541667,235.08567151666665,60.0,85.0
222,235.19511358541666,235.52129386875,60.0,70.0
223,235.45262433541666,236.95047853124998,67.0,97.0
224,239.05777483541667,239.27665897291666,64.0,93.0
225,239.31528558541666,239.48481349583335,67.0,83.0
226,239.57279633541668,239.83889077708335,69.0,100.0
227,240.08781783541667,240.52558611041667,69.0,102.0
228,240.60283933541666,241.0127106125,60.0,99.0
229,241.11786083541665,241.28738874583334,60.0,73.0
230,241.37537158541667,242.67150902708335,60.0,95.0
231,244.7230113354167,246.33889129166667,62.0,102.0
232,246.26807583541665,256.5513384520833,64.0,92.0
