,start,end,pitch,velocity
0,13.92243978125,14.19790246875,73.0,93.0
1,14.20021728125,14.47567996875,71.0,59.0
2,14.47799478125,14.75345746875,73.0,62.0
3,14.75577228125,15.30901246875,71.0,66.0
4,15.31132728125,15.58678996875,69.0,54.0
5,15.58910478125,15.86456746875,73.0,66.0
6,15.86688228125,16.14234496875,76.0,65.0
7,16.14465978125,16.42012246875,73.0,66.0
8,16.42243728125,17.25345496875,76.0,76.0
9,17.25576978125,17.53123246875,78.0,79.0
10,17.53354728125,17.80900996875,80.0,61.0
11,17.81132478125,18.08678746875,81.0,63.0
12,18.08910228125,18.64234246875,80.0,67.0
13,18.64465728125,18.92937921875,73.0,65.0
14,18.92243478125,19.21294375,76.0,68.0
15,19.20021228125,19.75345246875,78.0,83.0
16,19.75576728125,20.58678496875,76.0,73.0
17,20.58909978125,20.86456246875,78.0,80.0
18,20.86687728125,21.14233996875,80.0,66.0
19,21.14465478125,21.449052625,81.0,79.0
20,21.42243228125,21.975672468750002,80.0,91.0
21,21.97798728125,22.25344996875,73.0,63.0
22,22.25576478125,22.550903375,76.0,75.0
23,22.53354228125,22.80900496875,73.0,66.0
24,22.81131978125,23.0948843125,71.0,72.0
25,23.08909728125,23.64233746875,69.0,63.0
26,23.64465228125,23.92011496875,66.0,63.0
27,23.92242978125,24.226827625000002,71.0,89.0
28,24.20020728125,24.47566996875,73.0,87.0
29,24.47798478125,24.773123375,71.0,76.0
30,24.75576228125,25.309002468750002,69.0,75.0
31,25.311317281250002,25.592567,66.0,62.0
32,25.58909478125,26.14233496875,73.0,96.0
33,26.14464978125,27.25344496875,71.0,97.0
34,27.25575978125,27.531222468750002,73.0,99.0
35,27.533537281250002,27.82288884375,71.0,65.0
36,27.81131478125,28.08677746875,73.0,73.0
37,28.08909228125,28.642332468750002,71.0,79.0
38,28.644647281250002,28.930526625,69.0,71.0
39,28.92242478125,29.19788746875,73.0,93.0
40,29.20020228125,29.47566496875,76.0,85.0
41,29.47797978125,29.753442468750002,73.0,81.0
42,29.755757281250002,30.58677496875,76.0,86.0
43,30.58908978125,30.900432062500002,78.0,98.0
44,30.866867281250002,31.143487375,80.0,80.0
45,31.14464478125,31.4467278125,81.0,93.0
46,31.42242228125,31.980292093750002,80.0,93.0
47,31.977977281250002,32.2846899375,73.0,90.0
48,32.25575478125,32.538161906250004,76.0,84.0
49,32.533532281250004,33.180522375,78.0,90.0
50,33.08908728125,33.92010496875,76.0,100.0
51,33.92241978125,34.20714171875,78.0,93.0
52,34.20019728125,34.47565996875,80.0,87.0
53,34.47797478125,34.777743,81.0,93.0
54,34.755752281250004,35.30899246875,80.0,87.0
55,35.31130728125,35.58676996875,73.0,63.0
56,35.58908478125,35.86454746875,76.0,97.0
57,35.86686228125,36.14232496875,73.0,91.0
58,36.14463978125,36.42010246875,71.0,66.0
59,36.42241728125,36.97565746875,69.0,82.0
60,36.977972281250004,37.25343496875,66.0,87.0
61,37.25574978125,37.568249468750004,71.0,91.0
62,37.53352728125,37.80898996875,73.0,77.0
63,37.81130478125,38.11917484375,78.0,79.0
64,38.08908228125,38.36454496875,76.0,87.0
65,38.36685978125,38.92009996875,71.0,66.0
66,38.92241478125,39.47565496875,73.0,87.0
67,39.47796978125,40.58676496875,69.0,69.0
68,40.58907978125,41.42009746875,78.0,97.0
69,41.42241228125,41.754587875,78.0,98.0
70,41.70018978125,41.97565246875,76.0,92.0
71,41.97796728125,42.25342996875,73.0,93.0
72,42.25574478125,43.08676246875,76.0,95.0
73,43.08907728125,43.36453996875,76.0,105.0
74,43.36685478125,43.64231746875,73.0,90.0
75,43.64463228125,43.958289375,71.0,86.0
76,43.92240978125,44.508057343750004,73.0,90.0
77,44.47796478125,44.763844125,76.0,61.0
78,44.75574228125,45.0578253125,73.0,93.0
79,45.03351978125,45.58675996875,71.0,83.0
80,45.58907478125,46.00342621875,69.0,66.0
81,46.14462978125,47.39231371875,66.0,71.0
82,47.25573978125,47.39231371875,66.0,72.0
83,47.53351728125,47.8356003125,69.0,66.0
84,47.81129478125,48.08675746875,71.0,75.0
85,48.08907228125,48.70018278125,69.0,74.0
86,48.64462728125,48.952497343750004,71.0,81.0
87,48.92240478125,49.24184890625,73.0,68.0
88,49.20018228125,49.475644968750004,76.0,66.0
89,49.47795978125,49.768468750000004,78.0,66.0
90,49.75573728125,50.30897746875,76.0,87.0
91,50.31129228125,50.62147715625,73.0,90.0
92,50.589069781250004,50.86684728125,71.0,63.0
93,50.86684728125,51.14230996875,73.0,64.0
94,51.14462478125,51.42008746875,71.0,46.0
95,51.42240228125,51.70017978125,69.0,72.0
96,51.70017978125,52.013836875,71.0,61.0
97,51.97795728125,52.25341996875,73.0,75.0
98,52.25573478125,53.920084968750004,76.0,91.0
99,53.92239978125,54.19786246875,73.0,97.0
100,54.20017728125,54.510362156250004,71.0,76.0
101,54.47795478125,54.7615193125,73.0,89.0
102,54.75573228125,55.30897246875,71.0,84.0
103,55.31128728125,55.63883325,69.0,67.0
104,55.58906478125,55.86452746875,73.0,87.0
105,55.86684228125,56.16082346875,76.0,89.0
106,56.14461978125,56.4559620625,73.0,91.0
107,56.42239728125,57.25341496875,76.0,97.0
108,57.255729781250004,57.5763313125,78.0,93.0
109,57.53350728125,57.80896996875,80.0,81.0
110,57.81128478125,58.12378446875,81.0,91.0
111,58.08906228125,58.64230246875,80.0,87.0
112,58.64461728125,58.92239478125,73.0,77.0
113,58.92239478125,59.2337370625,76.0,84.0
114,59.20017228125,59.804338343750004,78.0,93.0
115,59.75572728125,60.586744968750004,76.0,90.0
116,60.58905978125,60.9073465,78.0,92.0
117,60.86683728125,61.16313328125,80.0,87.0
118,61.14461478125,61.46637371875,81.0,90.0
119,61.42239228125,61.97563246875,80.0,89.0
120,61.97794728125,62.263826625,73.0,85.0
121,62.25572478125,62.53813190625,76.0,91.0
122,62.53350228125,62.808964968750004,73.0,82.0
123,62.81127978125,63.08674246875,71.0,81.0
124,63.08905728125,63.64229746875,69.0,91.0
125,63.64461228125,63.92007496875,66.0,97.0
126,63.922389781250004,64.226787625,71.0,91.0
127,64.20016728125,64.4791021875,73.0,87.0
128,64.47794478125,64.8124351875,78.0,90.0
129,64.75572228125,65.03118496875,76.0,94.0
130,65.03349978125,65.58673996875,71.0,93.0
131,65.58905478125,66.14229496875001,73.0,105.0
132,66.14460978125,66.8957664375,69.0,105.0
133,97.25568978125,97.53115246875001,73.0,93.0
134,97.53346728125,97.80892996875001,71.0,59.0
135,97.81124478125,98.08670746875,73.0,62.0
136,98.08902228125,98.64226246875,71.0,66.0
137,98.64457728125001,98.92003996875,69.0,54.0
138,98.92235478125001,99.19781746875,73.0,66.0
139,99.20013228125,99.47559496875,76.0,65.0
140,99.47790978125,99.75337246875,73.0,66.0
141,99.75568728125,100.58670496875,76.0,76.0
142,100.58901978125,100.86448246875,78.0,79.0
143,100.86679728125,101.14225996875,80.0,61.0
144,101.14457478125,101.42003746875,81.0,63.0
145,101.42235228125,101.97559246875001,80.0,67.0
146,101.97790728125,102.26262921875,73.0,65.0
147,102.25568478125,102.54619375,76.0,68.0
148,102.53346228125,103.08670246875,78.0,83.0
149,103.08901728125001,103.92003496875,76.0,73.0
150,103.92234978125,104.19781246875,78.0,80.0
151,104.20012728125,104.47558996875,80.0,66.0
152,104.47790478125,104.782302625,81.0,79.0
153,104.75568228125,105.30892246875,80.0,91.0
154,105.31123728125,105.58669996875,73.0,63.0
155,105.58901478125,105.884153375,76.0,75.0
156,105.86679228125,106.14225496875,73.0,66.0
157,106.14456978125,106.4281343125,71.0,72.0
158,106.42234728125,106.97558746875,69.0,63.0
159,106.97790228125,107.25336496875,66.0,63.0
160,107.25567978125,107.560077625,71.0,89.0
161,107.53345728125001,107.80891996875,73.0,87.0
162,107.81123478125001,108.106373375,71.0,76.0
163,108.08901228125,108.36447496875,69.0,75.0
164,108.36678978125,108.64225246875,66.0,62.0
165,108.64456728125,109.19780746875,73.0,96.0
166,109.20012228125,110.58669496875,71.0,97.0
167,110.58900978125,110.86447246875,73.0,99.0
168,110.86678728125,111.15613884375,71.0,65.0
169,111.14456478125,111.42002746875,73.0,73.0
170,111.42234228125,111.97558246875,71.0,79.0
171,111.97789728125,112.263776625,69.0,71.0
172,112.25567478125001,112.53113746875,73.0,93.0
173,112.53345228125,112.80891496875,76.0,85.0
174,112.81122978125,113.08669246875,73.0,81.0
175,113.08900728125,113.92002496875,76.0,86.0
176,113.92233978125,114.2336820625,78.0,98.0
177,114.20011728125,114.476737375,80.0,80.0
178,114.47789478125,114.77997781250001,81.0,93.0
179,114.75567228125,115.31354209375,80.0,93.0
180,115.31122728125,115.6179399375,73.0,90.0
181,115.58900478125,115.87141190625,76.0,84.0
182,115.86678228125,116.42002246875,78.0,90.0
183,116.42233728125,117.39224371875,76.0,100.0
184,117.25566978125,117.54039171875,78.0,93.0
185,117.53344728125,117.80890996875,80.0,87.0
186,117.81122478125,118.11099300000001,81.0,93.0
187,118.08900228125,118.64224246875,80.0,87.0
188,118.64455728125,118.92001996875,73.0,63.0
189,118.92233478125,119.19779746875,76.0,97.0
190,119.20011228125,119.47557496875,73.0,91.0
191,119.47788978125,119.75335246875,71.0,66.0
192,119.75566728125,120.30890746875001,69.0,82.0
193,120.31122228125,120.58668496875,66.0,87.0
194,120.58899978125,120.90149946875,71.0,91.0
195,120.86677728125,121.14223996875,73.0,77.0
196,121.14455478125001,121.45242484375,78.0,79.0
197,121.42233228125001,121.69779496875,76.0,87.0
198,121.70010978125,122.25334996875,71.0,66.0
199,122.25566478125,122.80890496875,73.0,87.0
200,122.81121978125,123.92001496875,69.0,69.0
201,123.92232978125,124.75334746875001,78.0,97.0
202,124.75566228125,125.087837875,78.0,98.0
203,125.03343978125,125.30890246875,76.0,92.0
204,125.31121728125,125.58667996875,73.0,93.0
205,125.58899478125001,126.42001246875,76.0,95.0
206,126.42232728125,126.69778996875,76.0,105.0
207,126.70010478125,126.97556746875,73.0,90.0
208,126.97788228125,127.291539375,71.0,86.0
209,127.25565978125,127.84130734375,73.0,90.0
210,127.81121478125,128.097094125,78.0,61.0
211,128.08899228125,128.3910753125,73.0,93.0
212,128.36676978125,128.92000996875,71.0,83.0
213,128.92232478125,129.19778746875,69.0,66.0
214,129.20010228125,130.58667496875,66.0,71.0
215,130.58898978125,130.8725543125,66.0,72.0
216,130.86676728125,131.1688503125,69.0,66.0
217,131.14454478125,131.42000746875001,71.0,75.0
218,131.42232228125,132.03343278125,69.0,74.0
219,131.97787728125,132.28574734375,71.0,81.0
220,132.25565478125,132.57509890625,73.0,68.0
221,132.53343228125001,132.80889496875,76.0,66.0
222,132.81120978125,133.10171875,78.0,66.0
223,133.08898728125,133.64222746875,76.0,87.0
224,133.64454228125,133.95472715625002,73.0,90.0
225,133.92231978125,134.20009728125,71.0,63.0
226,134.20009728125,134.47555996875,73.0,64.0
227,134.47787478125,134.75333746875,71.0,46.0
228,134.75565228125,135.03342978125,69.0,72.0
229,135.03342978125,135.347086875,71.0,61.0
230,135.31120728125,135.58666996875002,73.0,75.0
231,135.58898478125,137.25333496875,76.0,91.0
232,137.25564978125,137.53111246875,73.0,97.0
233,137.53342728125,137.84361215625,71.0,76.0
234,137.81120478125,138.0947693125,73.0,89.0
235,138.08898228125,138.64222246875,71.0,84.0
236,138.64453728125,138.97208325,69.0,67.0
237,138.92231478125,139.19777746875,73.0,87.0
238,139.20009228125,139.49407346875,76.0,89.0
239,139.47786978125,139.7892120625,73.0,91.0
240,139.75564728125,140.58666496875,76.0,97.0
241,140.58897978125,140.9095813125,78.0,93.0
242,140.86675728125,141.14221996875,80.0,81.0
243,141.14453478125,141.45703446875,81.0,91.0
244,141.42231228125002,141.97555246875,80.0,87.0
245,141.97786728125,142.25564478125,73.0,77.0
246,142.25564478125,142.5669870625,76.0,84.0
247,142.53342228125,143.13758834375,78.0,93.0
248,143.08897728125,143.91999496875,76.0,90.0
249,143.92230978125,144.2405965,78.0,92.0
250,144.20008728125,144.49638328125,80.0,87.0
251,144.47786478125,144.79962371875,81.0,90.0
252,144.75564228125,145.30888246875,80.0,89.0
253,145.31119728125,145.597076625,73.0,85.0
254,145.58897478125,145.87138190625,76.0,91.0
255,145.86675228125,146.14221496875,73.0,82.0
256,146.14452978125001,146.41999246875,71.0,81.0
257,146.42230728125,146.97554746875,69.0,91.0
258,146.97786228125,147.25332496875,66.0,97.0
259,147.25563978125,147.560037625,71.0,91.0
260,147.53341728125,147.8123521875,73.0,87.0
261,147.81119478125,148.1456851875,78.0,90.0
262,148.08897228125,148.50332371875,76.0,94.0
263,148.50563853125,148.91998996875,71.0,93.0
264,148.92230478125,149.33665621875,73.0,105.0
265,149.33897103125,150.2290164375,69.0,105.0
266,150.58896978125,151.41998746875,78.0,97.0
267,151.42230228125,151.754477875,78.0,98.0
268,151.70007978125,151.97554246875,76.0,92.0
269,151.97785728125,152.25331996875,73.0,93.0
270,152.25563478125,153.08665246875,76.0,95.0
271,153.08896728125,153.36442996875,76.0,105.0
272,153.36674478125,153.64220746875,73.0,90.0
273,153.64452228125,153.95817937500001,71.0,86.0
274,153.92229978125,154.50794734375,73.0,90.0
275,154.47785478125,154.763734125,78.0,61.0
276,154.75563228125,155.0577153125,73.0,93.0
277,155.03340978125001,155.58664996875,71.0,83.0
278,155.58896478125,155.86442746875,69.0,66.0
279,155.86674228125,157.25331496875,66.0,71.0
280,157.25562978125,157.5391943125,66.0,72.0
281,157.53340728125,157.8354903125,69.0,66.0
282,157.81118478125,158.08664746875002,71.0,75.0
283,158.08896228125,158.70007278125001,69.0,74.0
284,158.64451728125,158.95238734375,71.0,81.0
285,158.92229478125,159.24173890625,73.0,68.0
286,159.20007228125002,159.47553496875,76.0,66.0
287,159.47784978125,159.76835875,78.0,66.0
288,159.75562728125,160.30886746875,76.0,87.0
289,160.31118228125,160.62136715625,73.0,90.0
290,160.58895978125,160.86442246875,71.0,63.0
291,160.86673728125,161.14219996875,73.0,64.0
292,161.14451478125,161.41997746875,71.0,46.0
293,161.42229228125,161.70006978125,69.0,72.0
294,161.70006978125,162.013726875,71.0,61.0
295,161.97784728125,162.25330996875,73.0,75.0
296,162.25562478125,163.91997496875,76.0,91.0
297,163.92228978125002,164.19775246875,73.0,97.0
298,164.20006728125,164.51025215625,71.0,76.0
299,164.47784478125,164.7614093125,73.0,89.0
300,164.75562228125,165.30886246875,71.0,84.0
301,165.31117728125,165.63872325,69.0,67.0
302,165.58895478125,165.86441746875,73.0,87.0
303,165.86673228125,166.16071346875,76.0,89.0
304,166.14450978125,166.4558520625,73.0,91.0
305,166.42228728125,167.25330496875,76.0,97.0
306,167.25561978125,167.5762213125,78.0,93.0
307,167.53339728125,167.80885996875,80.0,81.0
308,167.81117478125,168.12367446875,81.0,91.0
309,168.08895228125002,168.64219246875,80.0,87.0
310,168.64450728125001,168.92228478125,73.0,77.0
311,168.92228478125,169.2336270625,76.0,84.0
312,169.20006228125,169.75330246875,78.0,93.0
313,169.75561728125,170.58663496875,76.0,90.0
314,170.58894978125,170.9072365,78.0,92.0
315,170.86672728125,171.16302328125,80.0,87.0
316,171.14450478125,171.46626371875,81.0,90.0
317,171.42228228125,171.97552246875,80.0,89.0
318,171.97783728125,172.263716625,73.0,85.0
319,172.25561478125,172.53802190625,76.0,91.0
320,172.53339228125,172.80885496875,73.0,82.0
321,172.81116978125002,173.08663246875,71.0,81.0
322,173.08894728125,173.64218746875,69.0,91.0
323,173.64450228125,173.91996496875,66.0,97.0
324,173.92227978125,174.226677625,71.0,91.0
325,174.20005728125,174.47551996875,73.0,87.0
326,174.47783478125,174.75329746875,78.0,90.0
327,174.75561228125,175.03107496875,76.0,94.0
328,175.03338978125,175.44774121875,71.0,93.0
329,175.45005603125,176.00329621875,73.0,105.0
330,176.00561103125,176.8956564375,69.0,105.0
331,177.25560978125,177.53107246875,73.0,93.0
332,177.53338728125001,177.80884996875,71.0,59.0
333,177.81116478125,178.08662746875,73.0,62.0
334,178.08894228125,178.64218246875,71.0,66.0
335,178.64449728125,179.05884871875,69.0,54.0
336,179.06116353125,179.33662621875,73.0,66.0
337,179.33894103125002,179.61440371875,76.0,65.0
338,179.61671853125,179.89218121875,73.0,66.0
339,179.89449603125001,180.58662496875002,76.0,76.0
340,180.72782853125,181.00329121875,78.0,79.0
341,181.00560603125,181.28106871875,80.0,61.0
342,181.28338353125,181.55884621875,81.0,63.0
343,181.56116103125,182.11440121875,80.0,67.0
344,182.11671603125,182.40143796875,73.0,65.0
345,182.39449353125,182.6850025,76.0,68.0
346,182.67227103125,183.22551121875,78.0,83.0
347,183.22782603125,184.05884371875,76.0,73.0
348,184.06115853125002,184.33662121875,78.0,80.0
349,184.33893603125,184.61439871875,80.0,66.0
350,184.61671353125,184.921111375,81.0,79.0
351,184.89449103125,185.44773121875,80.0,91.0
352,185.45004603125,185.72550871875,73.0,63.0
353,185.72782353125,186.022962125,76.0,75.0
354,186.00560103125,186.28106371875,73.0,66.0
355,186.28337853125,186.5669430625,71.0,72.0
356,186.56115603125,187.25328496875,69.0,63.0
357,187.25559978125,187.53106246875,66.0,63.0
358,187.53337728125,187.80883996875,71.0,89.0
359,187.81115478125,188.08661746875,73.0,87.0
360,188.08893228125,188.36439496875,78.0,76.0
361,188.36670978125,188.64217246875,76.0,75.0
362,188.64448728125,189.05883871875,71.0,62.0
363,189.06115353125,189.47550496875002,73.0,96.0
