,start,end,pitch,velocity
0,0.45023103125,0.6087956875,59.0,46.0
1,0.45023103125,0.77198996875,64.0,69.0
2,0.45023103125,0.9780082812500001,61.0,64.0
3,1.14467478125,1.717590875,57.0,67.0
4,1.42245228125,1.82754446875,59.0,73.0
5,0.58911978125,2.03587759375,69.0,73.0
6,0.58911978125,2.13541453125,45.0,75.0
7,1.70022978125,2.1874978125,64.0,70.0
8,1.97800728125,2.208331125,57.0,51.0
9,0.86689728125,2.3148125,52.0,69.0
10,2.25578478125,2.8726823125,64.0,51.0
11,2.25578478125,2.8912008125,61.0,72.0
12,2.25578478125,2.893515625,59.0,66.0
13,2.81133978125,2.9097193125,69.0,1.0
14,3.08911728125,3.148145,61.0,44.0
15,2.25578478125,3.4455984062500002,45.0,78.0
16,3.08911728125,3.4455984062500002,59.0,70.0
17,3.36689478125,3.64467228125,64.0,62.0
18,2.81133978125,3.763885125,57.0,69.0
19,2.53356228125,3.856477625,52.0,64.0
20,3.92244978125,4.72800453125,62.0,69.0
21,3.92244978125,4.7592545,65.0,73.0
22,3.64467228125,4.7939766875,69.0,72.0
23,3.92244978125,5.44096678125,47.0,63.0
24,4.75578228125,5.52892965625,59.0,58.0
25,4.20022728125,5.532401875,50.0,50.0
26,4.47800478125,5.62383696875,53.0,63.0
27,5.03355978125,5.629624,62.0,69.0
28,5.58911478125,6.02777175,65.0,63.0
29,5.31133728125,6.30439184375,69.0,67.0
30,6.14466978125,6.57059528125,64.0,80.0
31,6.42244728125,6.6793914687500004,59.0,59.0
32,6.14466978125,6.7523080625,53.0,60.0
33,5.58911478125,6.7939746875,47.0,69.0
34,5.86689228125,6.856474625,50.0,49.0
35,6.70022478125,6.925919,62.0,80.0
36,6.97800228125,7.18170578125,59.0,80.0
37,7.25577978125,7.41087221875,59.0,63.0
38,7.39466853125,7.9652698125,61.0,66.0
39,7.53355728125,8.07059378125,52.0,57.0
40,7.81133478125,8.4513804375,57.0,62.0
41,8.08911228125,8.46642671875,59.0,72.0
42,7.25577978125,8.5069359375,45.0,73.0
43,8.08911228125,8.51272296875,64.0,67.0
44,8.64466728125,8.7939726875,64.0,46.0
45,8.36688978125,8.87151890625,52.0,56.0
46,8.64466728125,8.9374910625,59.0,67.0
47,8.92244478125,9.28355553125,57.0,59.0
48,8.92244478125,9.31827771875,61.0,69.0
49,9.20022228125,9.4976756875,52.0,50.0
50,9.47799978125,9.8634160625,64.0,76.0
51,9.47799978125,9.893508625,59.0,80.0
52,8.92244478125,10.0810084375,45.0,72.0
53,9.75577728125,10.22105459375,52.0,67.0
54,10.03355478125,10.32522115625,57.0,72.0
55,10.31133228125,10.53818390625,64.0,67.0
56,10.58910978125,11.04744265625,59.0,66.0
57,10.58910978125,11.08332225,62.0,70.0
58,10.58910978125,11.15855365625,65.0,70.0
59,10.58910978125,11.48031259375,69.0,59.0
60,11.14466478125,11.847210375,53.0,72.0
61,11.42244228125,11.97799728125,59.0,73.0
62,11.70021978125,12.08447865625,62.0,67.0
63,12.25577478125,12.467580125,65.0,70.0
64,12.25577478125,12.555543,59.0,72.0
65,11.97799728125,12.69327434375,69.0,66.0
66,12.25577478125,12.8448945625,53.0,72.0
67,12.81132978125,13.1365609375,59.0,55.0
68,12.81132978125,13.14697759375,64.0,66.0
69,13.08910728125,13.41086621875,53.0,69.0
70,13.36688478125,13.444431,59.0,48.0
71,10.86688728125,13.45716246875,50.0,49.0
72,10.58910978125,13.5069309375,47.0,73.0
73,13.36688478125,13.69790296875,62.0,70.0
74,13.64466228125,13.88771759375,59.0,57.0
75,13.92243978125,14.22336540625,69.0,69.0
76,14.20021728125,14.643503875,61.0,53.0
77,14.47799478125,14.7245223125,64.0,61.0
78,14.75577228125,15.091420093750001,71.0,75.0
79,13.92243978125,15.106466375,57.0,67.0
80,15.03354978125,15.25577178125,61.0,49.0
81,15.31132728125,15.59836403125,64.0,56.0
82,15.58910478125,15.84604896875,68.0,67.0
83,15.86688228125,16.187483812500002,59.0,54.0
84,16.14465978125,16.46873353125,64.0,56.0
85,16.42243728125,16.674751843750002,68.0,63.0
86,16.42243728125,16.83910353125,56.0,66.0
87,15.58910478125,16.84836278125,49.0,72.0
88,16.70021478125,16.91664975,61.0,48.0
89,16.97799228125,17.19442725,64.0,63.0
90,17.25576978125,17.6272971875,69.0,75.0
91,17.81132478125,18.05206528125,61.0,56.0
92,17.53354728125,18.10299115625,57.0,64.0
93,18.08910228125,18.4328519375,66.0,63.0
94,18.36687978125,18.505768531250002,57.0,62.0
95,17.25576978125,18.523129625,54.0,60.0
96,18.64465728125,18.95252734375,61.0,56.0
97,18.92243478125,19.3147955,64.0,75.0
98,18.92243478125,19.324054750000002,68.0,70.0
99,19.47798978125,19.717572875000002,61.0,52.0
100,19.75576728125,20.0624799375,64.0,72.0
101,18.92243478125,20.1597020625,49.0,70.0
102,19.20021228125,20.18632240625,56.0,70.0
103,20.03354478125,20.254609375,66.0,72.0
104,20.31132228125,20.5485905625,68.0,73.0
105,20.58909978125,20.976830875,61.0,67.0
106,20.58909978125,20.98956234375,69.0,82.0
107,20.58909978125,21.00576603125,64.0,70.0
108,20.86687728125,21.4097008125,57.0,60.0
109,21.14465478125,21.53817290625,61.0,53.0
110,21.42243228125,21.8171078125,69.0,72.0
111,21.70020978125,21.8309966875,57.0,66.0
112,20.58909978125,21.83678371875,54.0,62.0
113,21.97798728125,22.2476629375,68.0,47.0
114,22.25576478125,22.561320031250002,59.0,69.0
115,22.25576478125,22.597199625000002,68.0,75.0
116,22.25576478125,22.62150515625,64.0,72.0
117,22.53354228125,22.6921069375,54.0,61.0
118,22.25576478125,22.73030134375,49.0,69.0
119,22.81131978125,22.9328474375,66.0,58.0
120,22.81131978125,23.04280103125,68.0,63.0
121,23.08909728125,23.58909678125,64.0,75.0
122,23.08909728125,23.60298565625,61.0,72.0
123,23.08909728125,23.64233746875,42.0,72.0
124,23.36687478125,23.6874763125,49.0,59.0
125,23.08909728125,23.72567071875,69.0,75.0
126,23.64465228125,23.936318656250002,54.0,61.0
127,23.92242978125,24.1689573125,57.0,75.0
128,23.92242978125,24.43863296875,62.0,78.0
129,23.92242978125,24.45252184375,66.0,75.0
130,24.75576228125,24.99071575,61.0,63.0
131,24.47798478125,25.01502128125,59.0,78.0
132,24.20020728125,25.09835453125,54.0,63.0
133,23.92242978125,25.14928040625,47.0,69.0
134,25.03353978125,25.309002468750002,62.0,73.0
135,25.311317281250002,25.53585409375,66.0,53.0
136,25.58909478125,25.9791406875,59.0,70.0
137,25.58909478125,26.00576103125,68.0,66.0
138,25.58909478125,26.00807584375,64.0,64.0
139,26.14464978125,26.86687128125,47.0,59.0
140,26.422427281250002,26.8958064375,52.0,44.0
141,25.58909478125,26.92011196875,40.0,75.0
142,26.422427281250002,26.93400084375,78.0,45.0
143,26.422427281250002,26.9814545,66.0,61.0
144,27.25575978125,27.708305625,45.0,67.0
145,27.533537281250002,27.782379625,52.0,56.0
146,27.25575978125,28.032379375,81.0,67.0
147,27.81131478125,28.12034225,57.0,52.0
148,28.08909228125,28.2939531875,76.0,72.0
149,28.08909228125,28.50575853125,59.0,57.0
150,28.36686978125,28.523119625,61.0,69.0
151,28.644647281250002,28.903906281250002,73.0,72.0
152,28.92242478125,29.30668365625,68.0,76.0
153,29.20020228125,29.73145175,56.0,60.0
154,29.47797978125,29.87381271875,61.0,76.0
155,28.92242478125,30.0208033125,49.0,69.0
156,29.755757281250002,30.10182175,64.0,85.0
157,30.03353478125,30.247654937500002,66.0,69.0
158,30.31131228125,30.576358312500002,68.0,64.0
159,30.58908978125,31.074043,42.0,75.0
160,30.866867281250002,31.128441093750002,49.0,57.0
161,30.58908978125,31.189783625,69.0,78.0
162,30.58908978125,31.32404275,61.0,85.0
163,31.14464478125,31.4698759375,54.0,63.0
164,31.14464478125,31.47334815625,68.0,70.0
165,31.42242228125,31.714088656250002,61.0,70.0
166,31.42242228125,31.747653437500002,66.0,72.0
167,31.70019978125,31.9096903125,57.0,67.0
168,31.42242228125,31.925894,56.0,64.0
169,31.977977281250002,32.16779190625,61.0,63.0
170,32.25575478125,32.62149515625,59.0,76.0
171,32.25575478125,32.63075440625,64.0,70.0
172,32.81130978125,33.08330025,59.0,56.0
173,32.533532281250004,33.08677246875,56.0,67.0
174,33.08908728125,33.42242028125,64.0,88.0
175,32.25575478125,33.43630915625,49.0,75.0
176,33.36686478125,33.4976516875,56.0,75.0
177,33.36686478125,33.58908678125,66.0,80.0
178,33.64464228125,33.88769759375,68.0,67.0
179,33.92241978125,34.439780375,69.0,82.0
180,33.92241978125,34.44325259375,61.0,72.0
181,33.92241978125,34.495335875,66.0,73.0
182,33.92241978125,34.5740395,42.0,75.0
183,34.20019728125,34.578669125,49.0,69.0
184,34.47797478125,35.07751121875,54.0,69.0
185,34.755752281250004,35.25343696875,61.0,80.0
186,35.03352978125,35.4004275625,56.0,63.0
187,35.31130728125,35.55552,57.0,78.0
188,35.58908478125,35.91663075,64.0,72.0
189,35.58908478125,35.93399184375,59.0,73.0
190,35.58908478125,35.965241812500004,49.0,72.0
191,35.58908478125,35.96871403125,68.0,61.0
192,35.86686228125,35.98954734375,56.0,63.0
193,36.14463978125,36.2800563125,59.0,60.0
194,36.42241728125,36.62033375,61.0,80.0
195,36.42241728125,36.64926890625,69.0,76.0
196,36.42241728125,36.9444075,42.0,75.0
197,36.70019478125,36.98028709375,49.0,63.0
198,36.977972281250004,37.2059813125,73.0,48.0
199,36.977972281250004,37.25574978125,54.0,64.0
200,37.25574978125,37.745332625,66.0,76.0
201,37.25574978125,37.78584184375,71.0,69.0
202,37.25574978125,37.8865361875,47.0,72.0
203,37.81130478125,37.89000840625,59.0,82.0
204,37.53352728125,37.8957954375,54.0,69.0
205,37.25574978125,37.90389728125,74.0,70.0
206,38.08908228125,38.42935971875,69.0,70.0
207,38.08908228125,38.4606096875,64.0,69.0
208,38.08908228125,38.6411650625,40.0,78.0
209,38.36685978125,38.69093353125,47.0,70.0
210,38.64463728125,38.90852590625,52.0,76.0
211,39.75574728125,39.991858156250004,59.0,66.0
212,38.92241478125,40.09139509375,45.0,70.0
213,39.47796978125,40.150422812500004,57.0,93.0
214,39.20019228125,40.17241353125,52.0,70.0
215,40.03352478125,40.2013486875,61.0,66.0
216,40.31130228125,40.44093178125,64.0,75.0
217,40.58907978125,41.0439404375,61.0,78.0
218,40.58907978125,41.1180144375,42.0,70.0
219,40.86685728125,41.1550514375,49.0,60.0
220,40.58907978125,41.21176434375,69.0,80.0
221,41.14463478125,41.48144,54.0,73.0
222,41.14463478125,41.77657859375,61.0,78.0
223,41.70018978125,41.8078285625,57.0,75.0
224,41.14463478125,41.8170878125,68.0,70.0
225,41.42241228125,41.837921125,56.0,54.0
226,41.97796728125,42.20018928125,66.0,78.0
227,42.25574478125,42.65620734375,59.0,91.0
228,42.25574478125,42.67241103125,64.0,88.0
229,42.81129978125,43.036994,59.0,61.0
230,42.53352228125,43.14000315625,56.0,53.0
231,43.08907728125,43.402734375,64.0,82.0
232,42.25574478125,43.4698639375,49.0,67.0
233,43.36685478125,43.481438,56.0,69.0
234,43.36685478125,43.6365304375,66.0,73.0
235,43.64463228125,43.95250234375,69.0,62.0
236,43.92240978125,44.328659375,61.0,73.0
237,43.92240978125,44.34370565625,68.0,78.0
238,43.92240978125,44.3518075,65.0,95.0
239,43.92240978125,44.773103375,49.0,67.0
240,44.47796478125,44.8332885,61.0,76.0
241,44.20018728125,44.84601996875,56.0,64.0
242,44.47796478125,44.87842734375,66.0,72.0
243,44.75574228125,45.17240853125,53.0,82.0
244,45.03351978125,45.36453796875,68.0,101.0
245,45.31129728125,45.453658250000004,69.0,72.0
246,45.58907478125,46.11453721875,42.0,72.0
247,45.86685228125,46.15388903125,49.0,63.0
248,46.14462978125,46.4883794375,54.0,52.0
249,45.58907478125,46.73722178125,61.0,73.0
250,45.58907478125,46.74648103125,69.0,78.0
251,46.42240728125,46.79740690625,56.0,62.0
252,46.70018478125,46.8402309375,57.0,75.0
253,46.97796228125,47.17472134375,66.0,88.0
254,47.25573978125,47.637683843750004,66.0,64.0
255,47.25573978125,47.652730125,57.0,80.0
256,47.25573978125,47.6550449375,62.0,75.0
257,47.81129478125,48.0555075,57.0,82.0
258,47.53351728125,48.17703515625,54.0,62.0
259,48.08907228125,48.411988625,57.0,75.0
260,48.08907228125,48.439766375,62.0,82.0
261,48.08907228125,48.4744885625,66.0,75.0
262,48.366849781250004,48.50110890625,54.0,69.0
263,47.25573978125,48.5369885,50.0,67.0
264,48.64462728125,48.7939326875,57.0,80.0
265,48.92240478125,49.31360809375,61.0,69.0
266,48.92240478125,49.337913625,64.0,78.0
267,49.20018228125,49.3772654375,56.0,57.0
268,48.92240478125,49.3818950625,68.0,75.0
269,48.92240478125,49.41083021875,49.0,63.0
270,49.61684853125,49.740691,68.0,67.0
271,49.47795978125,50.296246000000004,66.0,66.0
272,49.75573728125,50.30897746875,61.0,67.0
273,49.75573728125,50.31360709375,42.0,69.0
274,50.03351478125,50.3633755625,49.0,53.0
275,49.75573728125,50.374949625,69.0,78.0
276,50.31129228125,50.5300420625,54.0,72.0
277,50.589069781250004,51.02656934375,59.0,73.0
278,50.589069781250004,51.4374485625,62.0,79.0
279,50.589069781250004,51.680503875,66.0,78.0
280,50.72795853125,51.71406865625,69.0,4.0
281,51.14462478125,51.83906853125,59.0,75.0
282,50.86684728125,51.928188812500004,54.0,72.0
283,50.589069781250004,51.93397584375,47.0,82.0
284,51.70017978125,51.97101284375,62.0,80.0
285,51.42240228125,52.0161516875,61.0,70.0
286,51.97795728125,52.300873625,69.0,83.0
287,52.25573478125,52.921243375,59.0,73.0
288,52.25573478125,52.921243375,64.0,68.0
289,52.25573478125,52.95249334375,68.0,90.0
290,53.08906728125,53.229113437500004,64.0,84.0
291,53.19439125,53.29277078125,66.0,82.0
292,53.30897446875,53.3517985,68.0,84.0
293,53.36684478125,53.504576125,69.0,95.0
294,53.47216875,53.5994834375,71.0,90.0
295,53.5624464375,53.60990009375,73.0,90.0
296,52.53351228125,53.7383721875,47.0,76.0
297,52.25573478125,53.785825843750004,40.0,74.0
298,53.64462228125,53.79277028125,74.0,86.0
299,52.811289781250004,53.8633720625,52.0,76.0
300,53.73489996875,53.9189275625,76.0,80.0
301,53.8332795,53.9513349375,78.0,80.0
302,53.92239978125,54.291612375,76.0,85.0
303,53.92239978125,54.36221415625,81.0,90.0
304,53.92239978125,54.380732656250004,45.0,67.0
305,54.20017728125,54.447862218750004,52.0,64.0
306,54.20017728125,54.59138059375,64.0,58.0
307,54.47795478125,54.740686000000004,69.0,66.0
308,54.47795478125,54.782352625,57.0,50.0
309,54.75573228125,55.1226300625,71.0,70.0
310,55.033509781250004,55.13536153125,61.0,73.0
311,54.75573228125,55.15619484375,59.0,50.0
312,55.31128728125,55.70712021875,64.0,85.0
313,55.58906478125,56.0670735625,69.0,82.0
314,56.14461978125,56.4652213125,68.0,82.0
315,56.42239728125,56.71869328125,61.0,76.0
316,55.86684228125,56.76267471875,56.0,56.0
317,56.42239728125,56.76267471875,64.0,64.0
318,55.58906478125,56.77887840625,49.0,73.0
319,56.70017478125,56.91082271875,68.0,73.0
320,57.255729781250004,57.76846075,64.0,66.0
321,57.255729781250004,57.78813665625,42.0,47.0
322,57.53350728125,57.80549775,49.0,66.0
323,56.97795228125,58.05665490625,69.0,70.0
324,57.255729781250004,58.11684003125,73.0,72.0
325,57.81128478125,58.2198491875,54.0,76.0
326,58.08906228125,58.254571375,71.0,78.0
327,58.08906228125,58.4791081875,56.0,59.0
328,58.36683978125,58.4976266875,57.0,66.0
329,58.08906228125,58.50920075,64.0,76.0
330,58.64461728125,58.85526521875,69.0,73.0
331,58.92239478125,59.30202403125,68.0,73.0
332,58.92239478125,59.310125875000004,64.0,72.0
333,58.92239478125,59.35526471875,59.0,70.0
334,59.477949781250004,59.60989409375,59.0,37.0
335,59.20017228125,59.79507909375,56.0,69.0
336,59.75572728125,59.9420696875,64.0,78.0
337,59.75572728125,60.0115140625,68.0,76.0
338,59.75572728125,60.09137509375,59.0,78.0
339,58.92239478125,60.14924540625,49.0,69.0
340,60.03350478125,60.1504028125,56.0,78.0
341,60.31128228125,60.5207728125,64.0,76.0
342,60.58905978125,61.115679625,68.0,76.0
343,60.58905978125,61.1179944375,59.0,80.0
344,61.14461478125,61.4559570625,54.0,78.0
345,60.58905978125,61.80433634375,42.0,67.0
346,61.42239228125,61.81591040625,69.0,75.0
347,60.86683728125,61.819382625,49.0,63.0
348,61.42239228125,61.82054003125,61.0,88.0
349,61.700169781250004,61.85757703125,54.0,72.0
350,61.97794728125,62.2337340625,66.0,82.0
351,62.25572478125,62.56359484375,61.0,80.0
352,62.25572478125,62.597159625,64.0,85.0
353,62.25572478125,62.60178925,68.0,75.0
354,62.25572478125,62.6133633125,49.0,76.0
355,62.53350228125,62.650400312500004,56.0,70.0
356,62.95016853125,63.074011,68.0,59.0
357,62.81127978125,63.38998290625,66.0,63.0
358,63.08905728125,63.40618659375,61.0,67.0
359,63.08905728125,63.6041030625,42.0,70.0
360,63.36683478125,63.6828066875,49.0,55.0
361,63.08905728125,63.759195500000004,69.0,62.0
362,63.64461228125,63.94785271875,54.0,82.0
363,63.922389781250004,64.29970421875,57.0,78.0
364,63.922389781250004,64.328639375,66.0,75.0
365,63.922389781250004,64.3355838125,62.0,76.0
366,64.20016728125,64.4281763125,54.0,72.0
367,63.922389781250004,64.4374355625,47.0,75.0
368,64.47794478125,64.64229646875,57.0,72.0
369,64.75572228125,65.060120125,68.0,75.0
370,64.75572228125,65.199008875,40.0,75.0
371,64.75572228125,65.20132368750001,59.0,91.0
372,64.75572228125,65.2105829375,64.0,78.0
373,65.03349978125,65.32285134375,47.0,69.0
374,65.31127728125,65.5670640625,52.0,62.0
375,65.58905478125,66.0578043125,61.0,78.0
376,65.58905478125,66.07285059375,64.0,76.0
377,65.58905478125,66.08905428125,69.0,75.0
378,66.42238728125,66.763822125,59.0,76.0
379,66.70016478125,66.92933121875001,61.0,67.0
380,65.58905478125,67.0068774375,45.0,69.0
381,66.14460978125,67.04507184375,57.0,85.0
382,66.97794228125,67.189747625,64.0,57.0
383,67.25571978125001,67.51960840625,73.0,76.0
384,65.86683228125,67.837895125,52.0,63.0
385,67.53349728125,67.8703025,68.0,61.0
386,67.81127478125,68.180487375,69.0,59.0
387,67.53349728125,68.40618159375,61.0,64.0
388,68.08905228125,68.4837278125,76.0,75.0
389,68.08905228125,68.48951484375,66.0,57.0
390,68.36682978125,68.64460728125,68.0,51.0
391,67.25571978125001,68.7152090625,54.0,73.0
392,68.64460728125,68.99414396875,61.0,50.0
393,68.64460728125,69.0068754375,69.0,59.0
394,68.92238478125,69.25803259375,73.0,69.0
395,69.20016228125,69.45710646875,68.0,48.0
396,69.47793978125,69.82747646875,69.0,58.0
397,69.75571728125,69.90155046875,66.0,45.0
398,69.75571728125,70.05664290625,76.0,72.0
399,68.92238478125,70.1550224375,54.0,46.0
400,69.20016228125,70.15733725,61.0,52.0
401,70.03349478125,70.36104075,68.0,56.0
402,70.31127228125,70.48488321875,69.0,63.0
403,70.58904978125,71.1040955625,73.0,75.0
404,70.58904978125,71.10525296875,69.0,75.0
405,71.14460478125,71.476780375,64.0,59.0
406,71.42238228125,71.69437275,66.0,70.0
407,70.86682728125,71.70941903125001,61.0,62.0
408,70.58904978125,71.7429838125,52.0,64.0
409,71.70015978125001,71.96404840625,68.0,61.0
410,71.97793728125001,72.254557375,66.0,61.0
411,72.25571478125,72.569371875,69.0,60.0
412,72.25571478125,72.5763163125,64.0,63.0
413,72.25571478125,72.60177925,61.0,56.0
414,72.53349228125,73.185112,49.0,67.0
415,72.81126978125,73.31589890625,54.0,55.0
416,73.08904728125,73.4929820625,56.0,70.0
417,73.08904728125,73.5161301875,61.0,73.0
418,72.25571478125,73.5300190625,42.0,66.0
419,73.08904728125,73.5392783125,57.0,72.0
420,73.36682478125,73.59830603125,49.0,70.0
421,73.92237978125,74.34367565625,61.0,70.0
422,73.92237978125,74.36450896875,57.0,67.0
423,74.47793478125,74.661962375,54.0,66.0
424,74.20015728125,74.7846474375,51.0,82.0
425,74.75571228125,75.10177675,57.0,76.0
426,74.75571228125,75.1040915625,61.0,75.0
427,74.75571228125,75.10524896875,54.0,70.0
428,73.92237978125,75.15386003125,39.0,82.0
429,75.03348978125,75.38997090625,51.0,64.0
430,75.31126728125,75.46404490625,54.0,44.0
431,75.31126728125,75.4837208125,46.0,40.0
432,75.58904478125,75.97793328125,61.0,67.0
433,75.58904478125,75.99066475000001,57.0,75.0
434,75.58904478125,75.99413696875,54.0,69.0
435,76.14459978125,76.333257,54.0,57.0
436,75.86682228125,76.5207568125,51.0,73.0
437,76.70015478125,76.77422878125,51.0,64.0
438,76.42237728125001,76.79274728125,61.0,76.0
439,75.58904478125,76.79969171875,39.0,72.0
440,76.42237728125001,76.83672871875,57.0,78.0
441,76.42237728125001,77.01959890625,54.0,75.0
442,77.25570978125,77.6827926875,66.0,75.0
443,77.25570978125,77.8031629375,57.0,73.0
444,77.25570978125,77.837885125,54.0,72.0
445,77.81126478125,78.16080146875,50.0,78.0
446,78.08904228125,78.35177350000001,62.0,78.0
447,77.25570978125,78.4327919375,38.0,72.0
448,78.08904228125,78.43857896875001,57.0,78.0
449,78.08904228125,78.45015303125,54.0,75.0
450,77.53348728125,78.46751412500001,45.0,67.0
451,78.36681978125,78.54274553125,50.0,70.0
452,78.64459728125,78.78348603125,54.0,50.0
453,78.92237478125,79.45246684375,59.0,72.0
454,78.92237478125,79.504550125,64.0,72.0
455,78.92237478125,79.5716796875,56.0,82.0
456,79.75570728125,80.07052178125001,56.0,80.0
457,79.75570728125,80.0716791875,64.0,76.0
458,79.75570728125,80.0925125,59.0,82.0
459,79.47792978125,80.14228096875,47.0,67.0
460,80.03348478125,80.17700315625,52.0,53.0
461,78.92237478125,80.18857721875,40.0,73.0
462,80.31126228125,80.44320659375,57.0,76.0
463,80.58903978125,81.2151965625,62.0,75.0
464,80.58903978125,81.2337150625,64.0,76.0
465,80.58903978125,81.25107615625001,67.0,73.0
466,80.58903978125,81.58209434375,72.0,75.0
467,81.42237228125,81.80547375,62.0,70.0
468,81.14459478125,81.89806625,60.0,88.0
469,81.70014978125,81.93857546875,64.0,72.0
470,80.58903978125,81.948992125,48.0,78.0
471,80.86681728125001,81.9744550625,55.0,66.0
472,81.97792728125,82.21172334375,67.0,75.0
473,82.25570478125,82.754546875,64.0,82.0
474,82.25570478125,82.87954675,67.0,82.0
475,82.81125978125,83.259176,62.0,60.0
476,82.53348228125,83.35987034375,61.0,82.0
477,83.08903728125,83.43162953125,64.0,75.0
478,82.25570478125,83.476768375,49.0,75.0
479,83.36681478125,83.7244533125,67.0,67.0
480,83.64459228125,83.995286375,72.0,73.0
481,83.92236978125,84.51033215625,69.0,78.0
482,83.92236978125,84.56125803125,65.0,82.0
483,84.47792478125,85.03347978125,62.0,88.0
484,84.75570228125,85.11912784375001,64.0,99.0
485,84.20014728125,85.14922040625,57.0,62.0
486,83.92236978125,85.16079446875,50.0,67.0
487,85.03347978125,85.25801659375,65.0,95.0
488,85.31125728125001,85.486025625,67.0,73.0
489,85.58903478125,86.1087101875,67.0,93.0
490,85.58903478125,86.11218240625,71.0,73.0
491,85.58903478125,86.115654625,62.0,93.0
492,85.58903478125,86.21403415625,43.0,72.0
493,86.14458978125,86.25222856250001,55.0,76.0
494,85.86681228125,86.26727484375,50.0,67.0
495,86.42236728125,86.8124131875,60.0,95.0
496,86.42236728125,86.84713537500001,65.0,95.0
497,86.42236728125,86.85755203125,69.0,78.0
498,86.70014478125,86.90500568750001,53.0,64.0
499,86.42236728125,86.93162603125,41.0,85.0
500,86.97792228125,87.152690625,60.0,85.0
501,87.25569978125,87.3957459375,64.0,72.0
502,87.25569978125,87.5392643125,40.0,78.0
503,87.53347728125,87.87838434375,52.0,63.0
504,87.25569978125,88.09481931250001,67.0,76.0
505,87.25569978125,88.106393375,71.0,73.0
506,87.25569978125,88.20477290625,62.0,78.0
507,88.08903228125,88.4651893125,59.0,88.0
508,87.81125478125,88.54736515625,55.0,59.0
509,88.36680978125,88.606392875,62.0,91.0
510,88.64458728125,88.86217965625,67.0,95.0
511,88.92236478125,89.374910625,64.0,78.0
512,88.92236478125,89.51264196875,60.0,82.0
513,89.75569728125001,90.08324325,59.0,85.0
514,90.03347478125,90.1364839375,60.0,73.0
515,88.92236478125,90.2012986875,45.0,75.0
516,89.20014228125,90.2290764375,52.0,70.0
517,89.47791978125,90.32398375,57.0,80.0
518,90.31125228125,90.41078921875,65.0,54.0
519,90.45014103125,90.56472425,67.0,57.0
520,90.58902978125,91.0716681875,41.0,73.0
521,90.86680728125,91.13764034375001,48.0,58.0
522,91.14458478125,91.467501125,53.0,56.0
523,90.58902978125,91.68393609375,60.0,70.0
524,90.58902978125,91.7198156875,65.0,75.0
525,90.58902978125,91.726760125,69.0,73.0
526,90.72791853125,91.74643603125,72.0,16.0
527,91.42236228125,91.7800008125,55.0,61.0
528,91.70013978125,91.8077785625,57.0,73.0
529,91.97791728125,92.20013928125,60.0,80.0
530,92.25569478125,92.85986084375,65.0,75.0
531,92.53347228125,92.902684875,72.0,23.0
532,92.25569478125,92.9073145,60.0,64.0
533,92.25569478125,92.9142589375,69.0,70.0
534,92.81124978125,93.20013828125,53.0,91.0
535,93.08902728125,93.33902703125,60.0,95.0
536,93.08902728125,93.4466658125,65.0,76.0
537,93.36680478125,93.4883324375,53.0,85.0
538,93.08902728125,93.4999065,69.0,78.0
539,92.25569478125,93.52421203125,41.0,73.0
540,92.53347228125,93.52421203125,48.0,63.0
541,93.92235978125,94.23485946875,40.0,75.0
542,94.20013728125001,94.5369425,52.0,88.0
543,93.92235978125,94.85291440625001,71.0,73.0
544,93.92235978125,94.85522921875,69.0,80.0
545,93.92235978125,94.8587014375,64.0,85.0
546,94.47791478125,94.962868,57.0,76.0
547,94.75569228125,94.97328465625,59.0,82.0
548,95.03346978125,95.4235156875,64.0,91.0
549,95.31124728125,95.55546,69.0,88.0
550,95.58902478125,96.40846840625,56.0,78.0
551,95.58902478125,96.4258295,59.0,75.0
552,95.58902478125,96.42698690625001,64.0,78.0
553,95.58902478125,96.4466628125,52.0,60.0
554,95.58902478125,96.46170909375,40.0,66.0
555,97.25568978125,97.55661540625,69.0,69.0
556,97.53346728125,97.976753875,61.0,53.0
557,97.81124478125,98.0577723125,64.0,61.0
558,98.08902228125,98.42467009375,71.0,75.0
559,97.25568978125,98.439716375,57.0,67.0
560,98.36679978125,98.58902178125,61.0,49.0
561,98.64457728125001,98.93161403125,64.0,56.0
562,98.92235478125001,99.17929896875,68.0,67.0
563,99.20013228125,99.5207338125,59.0,54.0
564,99.47790978125,99.80198353125,64.0,56.0
565,99.75568728125,100.00800184375,68.0,63.0
566,99.75568728125,100.17235353125,56.0,66.0
567,98.92235478125001,100.18161278125,49.0,72.0
568,100.03346478125,100.24989975,61.0,48.0
569,100.31124228125,100.52767725,64.0,63.0
570,100.58901978125,100.9605471875,69.0,75.0
571,101.14457478125,101.38531528125,61.0,56.0
572,100.86679728125,101.43624115625,57.0,64.0
573,101.42235228125,101.7661019375,66.0,63.0
574,101.70012978125,101.83901853125,57.0,62.0
575,100.58901978125,101.856379625,54.0,60.0
576,101.97790728125,102.28577734375,61.0,56.0
577,102.25568478125,102.6480455,64.0,75.0
578,102.25568478125,102.65730475,68.0,70.0
579,102.81123978125,103.050822875,61.0,52.0
580,103.08901728125001,103.39572993750001,64.0,72.0
581,102.25568478125,103.4929520625,49.0,70.0
582,102.53346228125,103.51957240625,56.0,70.0
583,103.36679478125001,103.58785937500001,66.0,72.0
584,103.64457228125,103.8818405625,68.0,73.0
585,103.92234978125,104.310080875,61.0,67.0
586,103.92234978125,104.32281234375,69.0,82.0
587,103.92234978125,104.33901603125,64.0,70.0
588,104.20012728125,104.7429508125,57.0,60.0
589,104.47790478125,104.87142290625,61.0,53.0
590,104.75568228125,105.1503578125,69.0,72.0
591,105.03345978125,105.1642466875,57.0,66.0
592,103.92234978125,105.17003371875,54.0,62.0
593,105.31123728125,105.5809129375,68.0,47.0
594,105.58901478125,105.89457003125,59.0,69.0
595,105.58901478125,105.930449625,68.0,75.0
596,105.58901478125,105.95475515625,64.0,72.0
597,105.86679228125,106.0253569375,54.0,61.0
598,105.58901478125,106.06355134375,49.0,69.0
599,106.14456978125,106.26609743750001,66.0,58.0
600,106.14456978125,106.37605103125,68.0,63.0
601,106.42234728125,106.92234678125,64.0,75.0
602,106.42234728125,106.93623565625,61.0,72.0
603,106.42234728125,106.97558746875,42.0,72.0
604,106.70012478125,107.0207263125,49.0,59.0
605,106.42234728125,107.05892071875,69.0,75.0
606,106.97790228125,107.26956865625,54.0,61.0
607,107.25567978125,107.5022073125,57.0,75.0
608,107.25567978125,107.77188296875,62.0,78.0
609,107.25567978125,107.78577184375,66.0,75.0
610,108.08901228125,108.32396575,61.0,63.0
611,107.81123478125001,108.34827128125,59.0,78.0
612,108.36678978125,108.4281323125,61.0,40.0
613,107.53345728125001,108.43160453125,54.0,63.0
614,107.25567978125,108.48253040625,47.0,69.0
615,108.36678978125,108.64225246875,62.0,73.0
616,108.64456728125,108.86910409375,66.0,53.0
617,108.92234478125,109.3123906875,59.0,70.0
618,108.92234478125,109.33901103125,68.0,66.0
619,108.92234478125,109.34132584375,64.0,64.0
620,109.47789978125,110.20012128125,47.0,59.0
621,109.75567728125,110.2290564375,52.0,44.0
622,108.92234478125,110.25336196875,40.0,75.0
623,109.75567728125,110.26725084375,78.0,45.0
624,109.75567728125,110.3147045,66.0,61.0
625,110.58900978125,111.041555625,45.0,67.0
626,110.86678728125,111.115629625,52.0,56.0
627,110.58900978125,111.365629375,81.0,67.0
628,111.14456478125,111.45359225,57.0,52.0
629,111.42234228125,111.6272031875,76.0,72.0
630,111.42234228125,111.83900853125,59.0,57.0
631,111.70011978125,111.856369625,61.0,69.0
632,111.97789728125,112.23715628125,71.0,72.0
633,112.25567478125001,112.63993365625001,68.0,76.0
634,112.53345228125,113.06470175,56.0,60.0
635,112.81122978125,113.20706271875,61.0,76.0
636,112.25567478125001,113.3540533125,49.0,69.0
637,113.08900728125,113.43507175,64.0,85.0
638,113.36678478125,113.5809049375,66.0,69.0
639,113.64456228125,113.9096083125,68.0,64.0
640,113.92233978125,114.407293,42.0,75.0
641,114.20011728125,114.46169109375,49.0,57.0
642,113.92233978125,114.523033625,69.0,78.0
643,113.92233978125,114.65729275,61.0,85.0
644,114.47789478125,114.8031259375,54.0,63.0
645,114.47789478125,114.80659815625,68.0,70.0
646,114.75567228125,115.04733865625,61.0,70.0
647,114.75567228125,115.0809034375,66.0,72.0
648,115.03344978125,115.2429403125,57.0,67.0
649,114.75567228125,115.259144,56.0,64.0
650,115.31122728125,115.50104190625,61.0,63.0
651,115.58900478125,115.95474515625,59.0,76.0
652,115.58900478125,115.96400440625,64.0,70.0
653,116.14455978125,116.41655025,59.0,56.0
654,115.86678228125,116.42002246875,56.0,67.0
655,116.56122603125,116.6920129375,56.0,75.0
656,116.42233728125,116.75567028125,64.0,88.0
657,115.58900478125,116.76955915625,49.0,75.0
658,116.70011478125001,116.92233678125,66.0,80.0
659,116.97789228125,117.22094759375,68.0,67.0
660,117.25566978125,117.773030375,69.0,82.0
661,117.25566978125,117.77650259375,61.0,72.0
662,117.25566978125,117.828585875,66.0,73.0
663,117.25566978125,117.9072895,42.0,75.0
664,117.53344728125,117.911919125,49.0,69.0
665,117.81122478125,118.41076121875,54.0,69.0
666,118.08900228125,118.58668696875,61.0,80.0
667,118.36677978125,118.7336775625,56.0,63.0
668,118.64455728125,118.88877000000001,57.0,78.0
669,118.92233478125,119.24988075,64.0,72.0
670,118.92233478125,119.26724184375,59.0,73.0
671,118.92233478125,119.2984918125,49.0,72.0
672,118.92233478125,119.30196403125,68.0,61.0
673,119.20011228125,119.32279734375,56.0,63.0
674,119.47788978125,119.6133063125,59.0,60.0
675,119.75566728125,119.95358375,61.0,80.0
676,119.75566728125,119.98251890625001,69.0,76.0
677,119.75566728125,120.2776575,42.0,75.0
678,120.03344478125,120.31353709375,49.0,63.0
679,120.31122228125,120.393398125,74.0,64.0
680,120.31122228125,120.53923131250001,73.0,48.0
681,120.31122228125,120.58899978125,54.0,64.0
682,120.58899978125,121.078582625,66.0,76.0
683,120.58899978125,121.11909184375,71.0,69.0
684,120.58899978125,121.2197861875,47.0,72.0
685,121.14455478125001,121.22325840625,59.0,82.0
686,120.86677728125,121.2290454375,54.0,69.0
687,120.58899978125,121.23714728125,74.0,70.0
688,121.42233228125001,121.76260971875,69.0,70.0
689,121.42233228125001,121.7938596875,64.0,69.0
690,121.42233228125001,121.9744150625,40.0,78.0
691,121.70010978125,122.02418353125,47.0,70.0
692,121.97788728125,122.24177590625,52.0,76.0
693,123.08899728125,123.32510815625,59.0,66.0
694,122.25566478125,123.42464509375,45.0,70.0
695,122.81121978125,123.4836728125,57.0,93.0
696,122.53344228125,123.50566353125001,52.0,70.0
697,123.36677478125,123.53459868750001,61.0,66.0
698,123.64455228125,123.77418178125001,64.0,75.0
699,123.92232978125,124.3771904375,61.0,78.0
700,123.92232978125,124.4512644375,42.0,70.0
701,124.20010728125,124.4883014375,49.0,60.0
702,123.92232978125,124.54501434375,69.0,80.0
703,124.47788478125,124.81469,54.0,73.0
704,124.47788478125,125.10982859375,61.0,78.0
705,125.03343978125,125.1410785625,57.0,75.0
706,124.47788478125,125.1503378125,68.0,70.0
707,124.75566228125,125.171171125,56.0,54.0
708,125.31121728125,125.53343928125,66.0,78.0
709,125.58899478125001,125.98945734375,59.0,91.0
710,125.58899478125001,126.00566103125,64.0,88.0
711,126.14454978125,126.370244,59.0,61.0
712,125.86677228125001,126.47325315625,56.0,53.0
713,126.42232728125,126.735984375,64.0,82.0
714,125.58899478125001,126.8031139375,49.0,67.0
715,126.70010478125,126.814688,56.0,69.0
716,126.70010478125,126.9697804375,66.0,73.0
717,126.97788228125,127.28575234375,69.0,62.0
718,127.25565978125,127.66190937500001,61.0,73.0
719,127.25565978125,127.67695565625,68.0,78.0
720,127.25565978125,127.6850575,65.0,95.0
721,127.25565978125,128.106353375,49.0,67.0
722,127.81121478125,128.1665385,61.0,76.0
723,127.53343728125,128.17926996875,56.0,64.0
724,127.81121478125,128.21167734375,66.0,72.0
725,128.08899228125,128.50565853125,53.0,82.0
726,128.36676978125,128.69778796875,68.0,101.0
727,128.64454728125,128.78690825,69.0,72.0
728,128.92232478125,129.44778721875,42.0,72.0
729,129.20010228125,129.48713903125,49.0,63.0
730,129.47787978125,129.8216294375,54.0,52.0
731,128.92232478125,130.07047178125,61.0,73.0
732,128.92232478125,130.07973103125,69.0,78.0
733,129.75565728125,130.13065690625,56.0,62.0
734,130.03343478125,130.1734809375,57.0,75.0
735,130.31121228125,130.50797134375,66.0,88.0
736,130.58898978125,130.97093384375,66.0,64.0
737,130.58898978125,130.985980125,57.0,80.0
738,130.58898978125,130.9882949375,62.0,75.0
739,131.14454478125,131.3887575,57.0,82.0
740,130.86676728125,131.51028515625,54.0,62.0
741,131.42232228125,131.745238625,57.0,75.0
742,131.42232228125,131.773016375,62.0,82.0
743,131.42232228125,131.8077385625,66.0,75.0
744,131.70009978125,131.83435890625,54.0,69.0
745,130.58898978125,131.8702385,50.0,67.0
746,131.97787728125,132.1271826875,57.0,80.0
747,132.25565478125,132.64685809375,61.0,69.0
748,132.25565478125,132.671163625,64.0,78.0
749,132.53343228125001,132.7105154375,56.0,57.0
750,132.25565478125,132.7151450625,68.0,75.0
751,132.25565478125,132.74408021875,49.0,63.0
752,132.95009853125,133.073941,68.0,67.0
753,132.81120978125,133.629496,66.0,66.0
754,133.08898728125,133.64222746875,61.0,67.0
755,133.08898728125,133.64685709375001,42.0,69.0
756,133.36676478125,133.6966255625,49.0,53.0
757,133.08898728125,133.708199625,69.0,78.0
758,133.64454228125,133.8632920625,54.0,72.0
759,133.92231978125,134.35981934375,59.0,73.0
760,133.92231978125,134.7706985625,62.0,79.0
761,133.92231978125,135.013753875,66.0,78.0
762,134.06120853125,135.04731865625,69.0,4.0
763,134.47787478125,135.17231853125,59.0,75.0
764,134.20009728125,135.2614388125,54.0,72.0
765,133.92231978125,135.26722584375,47.0,82.0
766,135.03342978125,135.30426284375,62.0,80.0
767,134.75565228125,135.3494016875,61.0,70.0
768,135.31120728125,135.634123625,69.0,83.0
769,135.58898478125,136.254493375,59.0,73.0
770,135.58898478125,136.254493375,64.0,68.0
771,135.58898478125,136.28574334375,68.0,90.0
772,136.42231728125,136.5623634375,64.0,84.0
773,136.52764125,136.62602078125,66.0,82.0
774,136.64222446875002,136.6850485,68.0,84.0
775,136.70009478125002,136.837826125,69.0,95.0
776,136.80541875,136.9327334375,71.0,90.0
777,136.8956964375,136.94315009375,73.0,90.0
778,135.86676228125,137.0716221875,47.0,76.0
779,135.58898478125,137.11907584375,40.0,74.0
780,136.97787228125,137.12602028125,74.0,86.0
781,136.14453978125,137.1966220625,52.0,76.0
782,137.06814996875,137.2521775625,76.0,80.0
783,137.1665295,137.2845849375,78.0,80.0
784,137.25564978125,137.624862375,76.0,85.0
785,137.25564978125,137.624862375,76.0,85.0
786,137.25564978125,137.69546415625,81.0,90.0
787,137.25564978125,137.71398265625,45.0,67.0
788,137.25564978125,137.71398265625,45.0,67.0
789,137.53342728125,137.78111221875,52.0,64.0
790,137.53342728125,137.78111221875,52.0,64.0
791,137.53342728125,137.92463059375,64.0,58.0
792,137.53342728125,137.92463059375,64.0,58.0
793,137.81120478125,138.073936,69.0,66.0
794,137.81120478125,138.073936,69.0,66.0
795,137.81120478125,138.115602625,57.0,50.0
796,137.81120478125,138.115602625,57.0,50.0
797,138.08898228125,138.4558800625,71.0,70.0
798,138.08898228125,138.4558800625,71.0,70.0
799,138.36675978125,138.46861153125,61.0,73.0
800,138.36675978125,138.46861153125,61.0,73.0
801,138.08898228125,138.48944484375,59.0,50.0
802,138.08898228125,138.48944484375,59.0,50.0
803,138.64453728125,139.04037021875,64.0,85.0
804,138.92231478125,139.4003235625,71.0,82.0
805,139.47786978125,139.7984713125,68.0,82.0
806,139.75564728125,140.05194328125,61.0,76.0
807,139.20009228125,140.09592471875,56.0,56.0
808,139.75564728125,140.09592471875,64.0,64.0
809,138.92231478125,140.11212840625,49.0,73.0
810,140.03342478125,140.24407271875,68.0,73.0
811,140.58897978125,141.10171075,64.0,66.0
812,140.58897978125,141.12138665625,42.0,47.0
813,140.86675728125,141.13874775,49.0,66.0
814,140.31120228125,141.38990490625,69.0,70.0
815,140.58897978125,141.45009003125,73.0,72.0
816,141.14453478125,141.5530991875,54.0,76.0
817,141.42231228125002,141.587821375,71.0,78.0
818,141.42231228125002,141.8123581875,56.0,59.0
819,141.70008978125,141.8308766875,57.0,66.0
820,141.42231228125002,141.84245075,64.0,76.0
821,141.97786728125,142.18851521875,69.0,73.0
822,142.25564478125,142.63527403125,68.0,73.0
823,142.25564478125,142.643375875,64.0,72.0
824,142.25564478125,142.68851471875,59.0,70.0
825,142.81119978125,142.94314409375,59.0,37.0
826,142.53342228125,143.12832909375,56.0,69.0
827,143.08897728125,143.2753196875,64.0,78.0
828,143.08897728125,143.3447640625,68.0,76.0
829,143.08897728125,143.42462509375,59.0,78.0
830,142.25564478125,143.48249540625,49.0,69.0
831,143.36675478125,143.4836528125,56.0,78.0
832,143.64453228125,143.8540228125,64.0,76.0
833,143.92230978125,144.448929625,68.0,76.0
834,143.92230978125,144.4512444375,59.0,80.0
835,144.47786478125,144.7892070625,54.0,78.0
836,143.92230978125,145.13758634375,42.0,67.0
837,144.75564228125,145.14916040625,69.0,75.0
838,144.20008728125,145.152632625,49.0,63.0
839,144.75564228125,145.15379003125,61.0,88.0
840,145.03341978125,145.19082703125,54.0,72.0
841,145.31119728125,145.5669840625,66.0,82.0
842,145.58897478125,145.89684484375,61.0,80.0
843,145.58897478125,145.930409625,64.0,85.0
844,145.58897478125,145.93503925,68.0,75.0
845,145.58897478125,145.9466133125,49.0,76.0
846,145.86675228125,145.9836503125,56.0,70.0
847,146.28341853125,146.407261,68.0,59.0
848,146.14452978125001,146.72323290625,66.0,63.0
849,146.42230728125,146.73943659375,61.0,67.0
850,146.42230728125,146.9373530625,42.0,70.0
851,146.70008478125,147.0160566875,49.0,55.0
852,146.42230728125,147.0924455,69.0,62.0
853,146.97786228125,147.28110271875,54.0,82.0
854,147.25563978125,147.63295421875,57.0,78.0
855,147.25563978125,147.66188937500002,66.0,75.0
856,147.25563978125,147.6688338125,62.0,76.0
857,147.53341728125,147.7614263125,54.0,72.0
858,147.25563978125,147.7706855625,47.0,75.0
859,147.81119478125,147.97554646875,57.0,72.0
860,148.08897228125,148.393370125,68.0,75.0
861,148.08897228125,148.532258875,40.0,75.0
862,148.08897228125,148.5345736875,59.0,91.0
863,148.08897228125,148.5438329375,64.0,78.0
864,148.36674978125,148.65610134375,47.0,69.0
865,148.64452728125,148.9003140625,52.0,62.0
866,148.92230478125,149.3910543125,61.0,78.0
867,148.92230478125,149.40610059375,64.0,76.0
868,148.92230478125,149.42230428125,69.0,75.0
869,149.75563728125,150.097072125,59.0,76.0
870,150.03341478125,150.26258121875,61.0,67.0
871,148.92230478125,150.3401274375,45.0,69.0
872,149.47785978125,150.37832184375,57.0,85.0
873,150.31119228125002,150.522997625,64.0,57.0
874,150.58896978125,151.0438304375,61.0,78.0
875,150.58896978125,151.11790443750002,42.0,70.0
876,150.86674728125,151.1549414375,49.0,60.0
877,149.20008228125,151.171145125,52.0,63.0
878,150.58896978125,151.21165434375,69.0,80.0
879,151.14452478125,151.48133,54.0,73.0
880,151.14452478125,151.77646859375,61.0,78.0
881,151.70007978125,151.8077185625,57.0,75.0
882,151.14452478125,151.8169778125,68.0,70.0
883,151.42230228125,151.837811125,56.0,54.0
884,151.97785728125,152.20007928125,66.0,78.0
885,152.25563478125,152.65609734375,59.0,91.0
886,152.25563478125,152.67230103125002,64.0,88.0
887,152.81118978125,153.03688400000001,59.0,61.0
888,152.53341228125,153.13989315625,56.0,53.0
889,153.08896728125,153.402624375,64.0,82.0
890,152.25563478125,153.4697539375,49.0,67.0
891,153.36674478125,153.481328,56.0,69.0
892,153.36674478125,153.6364204375,66.0,73.0
893,153.64452228125,153.95239234375,69.0,62.0
894,153.92229978125,154.328549375,61.0,73.0
895,153.92229978125,154.34359565625,68.0,78.0
896,153.92229978125,154.3516975,65.0,95.0
897,153.92229978125,154.772993375,49.0,67.0
898,154.47785478125,154.8331785,61.0,76.0
899,154.20007728125,154.84590996875,56.0,64.0
900,154.47785478125,154.87831734375,66.0,72.0
901,154.75563228125,155.17229853125,53.0,82.0
902,155.03340978125001,155.36442796875,68.0,101.0
903,155.31118728125,155.45354825,69.0,72.0
904,155.58896478125,156.11442721875,42.0,72.0
905,155.86674228125,156.15377903125,49.0,63.0
906,156.14451978125,156.4882694375,54.0,52.0
907,155.58896478125,156.73711178125,61.0,73.0
908,155.58896478125,156.74637103125,69.0,78.0
909,156.42229728125,156.79729690625,56.0,62.0
910,156.70007478125,156.8401209375,57.0,75.0
911,156.97785228125,157.17461134375,66.0,88.0
912,157.25562978125,157.63757384375,66.0,64.0
913,157.25562978125,157.652620125,57.0,80.0
914,157.25562978125,157.6549349375,62.0,75.0
915,157.81118478125,158.0553975,57.0,82.0
916,157.53340728125,158.17692515625,54.0,62.0
917,158.08896228125,158.411878625,57.0,75.0
918,158.08896228125,158.439656375,62.0,82.0
919,158.08896228125,158.4743785625,66.0,75.0
920,158.36673978125,158.50099890625,54.0,69.0
921,157.25562978125,158.5368785,50.0,67.0
922,158.64451728125,158.7938226875,57.0,80.0
923,158.92229478125,159.31349809375,61.0,69.0
924,158.92229478125,159.337803625,64.0,78.0
925,159.20007228125002,159.3771554375,56.0,57.0
926,158.92229478125,159.3817850625,68.0,75.0
927,158.92229478125,159.41072021875001,49.0,63.0
928,159.61673853125,159.740581,68.0,67.0
929,159.47784978125,160.296136,66.0,66.0
930,159.75562728125,160.30886746875,61.0,67.0
931,159.75562728125,160.31349709375002,42.0,69.0
932,160.03340478125,160.3632655625,49.0,53.0
933,159.75562728125,160.374839625,69.0,78.0
934,160.31118228125,160.5299320625,54.0,72.0
935,160.58895978125,161.02645934375,59.0,73.0
936,160.58895978125,161.4373385625,62.0,79.0
937,160.58895978125,161.680393875,66.0,78.0
938,160.72784853125,161.71395865625,69.0,4.0
939,161.14451478125,161.83895853125,59.0,75.0
940,160.86673728125,161.9280788125,54.0,72.0
941,160.58895978125,161.93386584375,47.0,82.0
942,161.70006978125,161.97090284375,62.0,80.0
943,161.42229228125,162.0160416875,61.0,70.0
944,161.97784728125,162.300763625,69.0,83.0
945,162.25562478125,162.921133375,59.0,73.0
946,162.25562478125,162.921133375,64.0,68.0
947,162.25562478125,162.95238334375,68.0,90.0
948,163.08895728125,163.2290034375,64.0,84.0
949,163.19428125,163.29266078125,66.0,82.0
950,163.30886446875,163.3516885,68.0,84.0
951,163.36673478125,163.504466125,69.0,95.0
952,163.47205875,163.5993734375,71.0,90.0
953,163.5623364375,163.60979009375,73.0,90.0
954,162.53340228125,163.7382621875,47.0,76.0
955,162.25562478125,163.78571584375,40.0,74.0
956,163.64451228125,163.79266028125,74.0,86.0
957,162.81117978125,163.8632620625,52.0,76.0
958,163.73478996875,163.9188175625,76.0,80.0
959,163.8331695,163.9512249375,78.0,80.0
960,163.92228978125002,164.291502375,76.0,85.0
961,163.92228978125002,164.291502375,76.0,85.0
962,163.92228978125002,164.36210415625,81.0,90.0
963,163.92228978125002,164.38062265625,45.0,67.0
964,163.92228978125002,164.38062265625,45.0,67.0
965,164.20006728125,164.44775221875,52.0,64.0
966,164.20006728125,164.44775221875,52.0,64.0
967,164.20006728125,164.59127059375,64.0,58.0
968,164.20006728125,164.59127059375,64.0,58.0
969,164.47784478125,164.740576,69.0,66.0
970,164.47784478125,164.740576,69.0,66.0
971,164.47784478125,164.782242625,57.0,50.0
972,164.47784478125,164.782242625,57.0,50.0
973,164.75562228125,165.1225200625,71.0,70.0
974,164.75562228125,165.1225200625,71.0,70.0
975,165.03339978125,165.13525153125,61.0,73.0
976,165.03339978125,165.13525153125,61.0,73.0
977,164.75562228125,165.15608484375,59.0,50.0
978,164.75562228125,165.15608484375,59.0,50.0
979,165.31117728125,165.70701021875,64.0,85.0
980,165.31117728125,165.70701021875,64.0,85.0
981,165.58895478125,166.0669635625,71.0,82.0
982,166.14450978125,166.4651113125,68.0,82.0
983,166.42228728125,166.71858328125,61.0,76.0
984,165.86673228125,166.76256471875,56.0,56.0
985,166.42228728125,166.76256471875,64.0,64.0
986,165.58895478125,166.77876840625,49.0,73.0
987,166.70006478125,166.91071271875,68.0,73.0
988,167.25561978125,167.76835075,64.0,66.0
989,167.25561978125,167.78802665625,42.0,47.0
990,167.53339728125,167.80538775,49.0,66.0
991,166.97784228125,168.05654490625,69.0,70.0
992,167.25561978125,168.11673003125,73.0,72.0
993,167.81117478125,168.2197391875,54.0,76.0
994,168.08895228125002,168.254461375,71.0,78.0
995,168.08895228125002,168.4789981875,56.0,59.0
996,168.36672978125,168.4975166875,57.0,66.0
997,168.08895228125002,168.50909075,64.0,76.0
998,168.64450728125001,168.85515521875,69.0,73.0
999,168.92228478125,169.30191403125,68.0,73.0
1000,168.92228478125,169.310015875,64.0,72.0
1001,168.92228478125,169.35515471875001,59.0,70.0
1002,169.47783978125,169.60978409375,59.0,37.0
1003,169.20006228125,169.79496909375,56.0,69.0
1004,169.75561728125,169.9419596875,64.0,78.0
1005,169.75561728125,170.0114040625,68.0,76.0
1006,169.75561728125,170.09126509375,59.0,78.0
1007,168.92228478125,170.14913540625,49.0,69.0
1008,170.03339478125,170.1502928125,56.0,78.0
1009,170.31117228125,170.5206628125,64.0,76.0
1010,170.58894978125,171.115569625,68.0,76.0
1011,170.58894978125,171.1178844375,59.0,80.0
1012,171.14450478125,171.4558470625,54.0,78.0
1013,170.58894978125,171.80422634375,42.0,67.0
1014,171.42228228125,171.81580040625,69.0,75.0
1015,170.86672728125,171.819272625,49.0,63.0
1016,171.42228228125,171.82043003125,61.0,88.0
1017,171.70005978125,171.85746703125,54.0,72.0
1018,171.97783728125,172.2336240625,66.0,82.0
1019,172.25561478125,172.56348484375,61.0,80.0
1020,172.25561478125,172.597049625,64.0,85.0
1021,172.25561478125,172.60167925,68.0,75.0
1022,172.25561478125,172.6132533125,49.0,76.0
1023,172.53339228125,172.6502903125,56.0,70.0
1024,172.95005853125,173.073901,68.0,59.0
1025,172.81116978125002,173.38987290625,66.0,63.0
1026,173.08894728125,173.40607659375002,61.0,67.0
1027,173.08894728125,173.6039930625,42.0,70.0
1028,173.36672478125,173.6826966875,49.0,55.0
1029,173.08894728125,173.7590855,69.0,62.0
1030,173.64450228125,173.94774271875,54.0,82.0
1031,173.92227978125,174.29959421875,57.0,78.0
1032,173.92227978125,174.32852937500002,66.0,75.0
1033,173.92227978125,174.3354738125,62.0,76.0
1034,174.20005728125,174.4280663125,54.0,72.0
1035,173.92227978125,174.4373255625,47.0,75.0
1036,174.47783478125,174.64218646875,57.0,72.0
1037,174.75561228125,175.060010125,68.0,75.0
1038,174.75561228125,175.198898875,40.0,75.0
1039,174.75561228125,175.2012136875,59.0,91.0
1040,174.75561228125,175.21047293750001,64.0,78.0
1041,175.03338978125,175.32274134375,47.0,69.0
1042,175.31116728125,175.5669540625,52.0,62.0
1043,175.58894478125,176.0576943125,61.0,78.0
1044,175.58894478125,176.07274059375,64.0,76.0
1045,175.58894478125,176.08894428125,69.0,75.0
1046,176.42227728125,176.763712125,59.0,76.0
1047,176.70005478125,176.92922121875,61.0,67.0
1048,175.58894478125,177.0067674375,45.0,69.0
1049,176.14449978125,177.04496184375,57.0,85.0
1050,176.97783228125002,177.189637625,64.0,57.0
1051,175.86672228125,177.837785125,52.0,63.0
1052,177.25560978125,178.28222912500001,69.0,64.0
1053,177.25560978125,178.30421984375,64.0,66.0
1054,177.25560978125,178.32158093750002,45.0,66.0
1055,177.25560978125,178.32389575,61.0,63.0
1056,177.25560978125,178.33894203125,57.0,57.0
1057,178.92227478125,179.71162584375,71.0,33.0
1058,178.92227478125,179.740561,64.0,62.0
1059,178.92227478125,179.7660239375,59.0,57.0
1060,178.92227478125,179.7660239375,68.0,57.0
1061,178.92227478125,179.88292196875,56.0,63.0
1062,178.92227478125,179.88523678125,49.0,56.0
1063,180.72782853125,181.2752816875,61.0,67.0
1064,180.72782853125,181.4373185625,69.0,67.0
1065,180.72782853125,181.47551296875,66.0,60.0
1066,180.72782853125,181.541485125,73.0,67.0
1067,181.56116103125,181.92227178125,61.0,48.0
1068,180.72782853125,181.939632875,54.0,55.0
1069,182.39449353125,183.004446625,64.0,62.0
1070,182.39449353125,183.0854650625,68.0,64.0
1071,182.39449353125,183.0947243125,59.0,61.0
1072,182.39449353125,183.51023315625,56.0,55.0
1073,182.39449353125,183.62134415625,49.0,49.0
1074,183.50560353125,183.7613903125,66.0,58.0
1075,183.78338103125,184.0067604375,68.0,51.0
1076,184.06115853125002,185.00907425,54.0,62.0
1077,184.06115853125002,185.036852,69.0,62.0
1078,184.06115853125002,185.04032421875002,66.0,61.0
1079,184.06115853125002,185.0484260625,61.0,60.0
1080,185.72782353125,186.17689715625,68.0,64.0
1081,185.72782353125,186.198887875,64.0,64.0
1082,185.72782353125,186.2104619375,61.0,63.0
1083,185.72782353125,186.25328596875,49.0,52.0
1084,185.72782353125,186.26948965625002,56.0,64.0
1085,186.56115603125,186.92921121875,69.0,59.0
1086,186.56115603125,186.9650908125,61.0,63.0
1087,186.56115603125,186.96624821875,66.0,62.0
1088,186.56115603125,186.97897968750001,54.0,64.0
1089,187.39448853125,187.70930303125002,69.0,48.0
1090,187.39448853125,187.7590715,62.0,61.0
1091,187.39448853125,187.7799048125,66.0,56.0
1092,187.39448853125,187.791478875,59.0,58.0
1093,187.39448853125,187.82041403125,47.0,53.0
1094,187.39448853125,187.86671028125,54.0,62.0
1095,188.22782103125002,188.77180196875,68.0,61.0
1096,188.22782103125002,188.77643159375,52.0,62.0
1097,188.22782103125002,188.79726490625,59.0,58.0
1098,188.22782103125002,188.80536675,64.0,64.0
1099,189.06115353125,189.2197181875,59.0,46.0
1100,189.06115353125,189.38291246875,64.0,69.0
1101,189.06115353125,189.58893078125,61.0,64.0
1102,189.61670853125,190.189624625,57.0,67.0
1103,189.89448603125,190.29957821875,59.0,73.0
1104,189.06115353125,190.50791134375,69.0,73.0
1105,189.06115353125,190.60744828125002,45.0,75.0
1106,190.17226353125,190.6595315625,64.0,70.0
1107,190.45004103125,190.680364875,57.0,51.0
1108,189.33893103125,190.78684625,52.0,69.0
1109,190.72781853125,191.3447160625,64.0,51.0
1110,190.72781853125,191.3632345625,61.0,72.0
1111,190.72781853125,191.365549375,59.0,66.0
1112,191.28337353125,191.3817530625,69.0,1.0
1113,191.56115103125,191.62017875,61.0,44.0
1114,190.72781853125,191.91763215625,45.0,78.0
1115,191.56115103125,191.91763215625,59.0,70.0
1116,191.83892853125,192.11670603125,64.0,62.0
1117,191.28337353125,192.235918875,57.0,69.0
1118,191.00559603125,192.328511375,52.0,64.0
1119,192.39448353125,193.20003828125002,62.0,77.0
1120,192.39448353125,193.23128825,65.0,81.0
1121,192.11670603125,193.2660104375,69.0,80.0
1122,192.39448353125,193.91300053125,47.0,71.0
1123,193.22781603125,194.00096340625,59.0,66.0
1124,192.67226103125,194.004435625,50.0,58.0
1125,192.95003853125002,194.09587071875,53.0,71.0
1126,193.50559353125,194.10165775000002,62.0,77.0
1127,194.06114853125,194.4998055,65.0,71.0
1128,193.78337103125,194.77642559375,69.0,75.0
1129,194.61670353125,195.04262903125002,64.0,88.0
1130,194.89448103125,195.15142521875,59.0,67.0
1131,194.61670353125,195.2243418125,53.0,68.0
1132,194.06114853125,195.2660084375,47.0,77.0
1133,194.33892603125,195.328508375,50.0,57.0
1134,195.17225853125,195.39795275,62.0,88.0
1135,195.45003603125,195.65373953125,59.0,88.0
1136,195.72781353125,195.88290596875,59.0,71.0
1137,195.86670228125,196.4373035625,61.0,74.0
1138,196.00559103125,196.54262753125,52.0,65.0
1139,196.28336853125,196.92341418750001,57.0,70.0
1140,196.56114603125,196.93846046875,59.0,80.0
1141,195.72781353125,196.9789696875,45.0,81.0
1142,196.56114603125,196.98475671875,64.0,75.0
1143,197.11670103125002,197.2660064375,64.0,54.0
1144,196.83892353125,197.34355265625,52.0,64.0
1145,197.11670103125002,197.4095248125,59.0,75.0
1146,197.39447853125,197.75558928125,57.0,67.0
1147,197.39447853125,197.79031146875,61.0,77.0
1148,197.67225603125001,197.9697094375,52.0,58.0
1149,197.95003353125,198.3354498125,64.0,84.0
1150,197.95003353125,198.365542375,59.0,88.0
1151,197.39447853125,198.5530421875,45.0,80.0
1152,198.22781103125,198.69308834375,52.0,75.0
1153,198.50558853125,198.79725490625,57.0,80.0
1154,198.78336603125,199.01021765625,64.0,75.0
1155,199.0761898125,199.80535575,62.0,77.0
1156,199.08197684375,199.8447075625,59.0,71.0
1157,199.07271759375,199.90142046875,65.0,80.0
1158,199.09123609375,200.38984590625,47.0,80.0
1159,199.74401321875,200.430355125,50.0,47.0
1160,200.26484603125002,200.49864209375,59.0,61.0
1161,200.59817903125,200.73475296875,62.0,64.0
1162,201.50327071875,201.9558165625,54.0,66.0
1163,201.85512221875,202.07502940625,57.0,75.0
1164,202.226649625,202.6317418125,61.0,76.0
1165,202.64215846875,202.82271384375,62.0,83.0
1166,203.05650990625,203.2104449375,64.0,95.0
1167,203.91183312500002,204.235906875,33.0,73.0
1168,203.86090725,204.39794375,52.0,75.0
1169,203.9419256875,204.66067496875002,56.0,81.0
1170,204.05187928125,204.76947115625,61.0,86.0
1171,205.222017,205.49053525,59.0,66.0
1172,205.41298903125,205.6224795625,61.0,72.0
1173,205.6178499375,205.82386825,64.0,63.0
1174,205.81113678125,205.91530334375,68.0,75.0
1175,206.0252569375,206.26831225,69.0,82.0
1176,206.235904875,206.46391390625,71.0,73.0
1177,206.444238,206.550719375,73.0,75.0
1178,206.6479415,206.94308009375,76.0,69.0
1179,206.8632190625,207.13289471875,81.0,70.0
1180,207.09585771875,207.32502415625,83.0,58.0
1181,207.33196859375,207.45349625,85.0,69.0
1182,207.587755375,207.93150503125,88.0,62.0
1183,205.050720875,208.124791875,57.0,82.0
1184,204.8539618125,208.16530109375,52.0,73.0
1185,204.66761940625,208.19307884375002,45.0,78.0
1186,207.8817365625,208.31113428125,92.0,64.0
1187,208.80534675,208.93150403125,33.0,73.0
1188,208.8169208125,209.0391428125,85.0,55.0
1189,208.245162125,209.0530316875,93.0,64.0
