,start,end,pitch,velocity
0,18.095497475,18.264036725,64.0,100.0
1,18.264036725,18.432575975,62.0,84.0
2,18.432575975,18.6320140875,64.0,94.0
3,18.601115225,18.769654475,67.0,105.0
4,18.769654475,19.443811475,60.0,111.0
5,19.443811475,20.117968474999998,57.0,111.0
6,20.117968474999998,20.792125475,55.0,105.0
7,20.792125475,20.960664725,64.0,108.0
8,20.960664725,21.129203975,62.0,82.0
9,21.129203975,21.297743224999998,64.0,108.0
10,21.297743224999998,21.466282475,67.0,114.0
11,21.466282475,22.140439475,60.0,105.0
12,22.140439475,22.814596475,69.0,117.0
13,22.814596475,23.488753475,67.0,105.0
14,23.488753475,23.825831975,69.0,111.0
15,23.825831975,24.162910475,72.0,117.0
16,24.162910475,24.837067474999998,64.0,111.0
17,24.837067474999998,25.174145975,67.0,111.0
18,25.174145975,25.511224475,69.0,111.0
19,25.511224475,26.016842224999998,62.0,108.0
20,26.016842224999998,26.185381475,64.0,92.0
21,26.185381475,26.522459975,60.0,100.0
22,26.522459975,26.859538475,57.0,111.0
23,26.859538475,28.882009475,55.0,92.0
24,28.882009475,29.050548725,64.0,100.0
25,29.050548725,29.219087975,62.0,84.0
26,29.219087975,29.4185260875,64.0,94.0
27,29.387627225,29.556166474999998,67.0,105.0
28,29.556166474999998,30.230323475,60.0,111.0
29,30.230323475,30.904480475,57.0,111.0
30,30.904480475,31.578637475,55.0,105.0
31,31.578637475,31.747176725,64.0,108.0
32,31.747176725,31.915715974999998,62.0,82.0
33,31.915715974999998,32.084255225,64.0,108.0
34,32.084255225,32.252794475,67.0,114.0
35,32.252794475,32.926951475,60.0,105.0
36,32.926951475,33.601108475,69.0,117.0
37,33.601108475,34.275265475,67.0,105.0
38,34.275265475,34.612343975,69.0,111.0
39,34.612343975,34.949422475,72.0,117.0
40,34.949422475,35.623579475,64.0,111.0
41,35.623579475,35.960657975,67.0,111.0
42,35.960657975,36.297736475,69.0,111.0
43,36.297736475,36.803354225,62.0,108.0
44,36.803354225,36.971893475,64.0,92.0
45,36.971893475,37.140432725,55.0,105.0
46,37.140432725,37.308971975,57.0,84.0
47,37.308971975,37.477511225,55.0,97.0
48,37.477511225,37.646050475,57.0,111.0
49,37.646050475,39.668521475,60.0,108.0
50,39.668521475,40.005599975,64.0,102.0
51,40.005599975,40.342678475,67.0,108.0
52,40.342678475,41.016835475,69.0,108.0
53,41.016835475,41.353913975,72.0,114.0
54,41.353913975,41.68958798125,69.0,108.0
55,41.690992475,42.365149475,69.0,108.0
56,42.365149475,42.702227975,64.0,114.0
57,42.702227975,43.039306475,69.0,102.0
58,43.039306475,43.54351973125,67.0,114.0
59,43.544924225,43.713463475,67.0,114.0
60,43.713463475,44.050541975,69.0,105.0
61,44.050541975,44.219081225,67.0,117.0
62,44.219081225,44.387620475,64.0,94.0
63,44.387620475,45.06037298125,67.0,114.0
64,45.061777475,45.398855975,67.0,111.0
65,45.398855975,45.735934475,69.0,108.0
66,45.735934475,46.071608481249996,72.0,108.0
67,46.073012975,46.40868698125,72.0,108.0
68,46.410091475,46.747169975,72.0,111.0
69,46.747169975,47.084248474999995,74.0,111.0
70,47.084248474999995,47.58846173125,72.0,111.0
71,47.589866225,47.758405474999996,72.0,105.0
72,47.758405474999996,48.095483975,69.0,117.0
73,48.095483975,48.264023224999995,67.0,105.0
74,48.264023224999995,48.432562475,69.0,108.0
75,48.432562475,50.455033475,67.0,108.0
76,50.455033475,50.792111975,64.0,105.0
77,50.792111975,51.129190475,67.0,108.0
78,51.129190475,51.80194298125,69.0,105.0
79,51.803347474999995,51.971886725,69.0,111.0
80,51.971886725,52.140425975,72.0,100.0
81,52.140425975,52.308965225,69.0,108.0
82,52.308965225,52.477504474999996,67.0,97.0
83,52.477504474999996,53.320200725,69.0,100.0
84,53.320200725,53.488739975,64.0,111.0
85,53.488739975,53.825818475,69.0,105.0
86,53.825818475,54.49857098125,67.0,105.0
87,54.499975475,54.668514725,67.0,108.0
88,54.668514725,54.837053974999996,69.0,89.0
89,54.837053974999996,55.005593225,67.0,105.0
90,55.005593225,55.174132475,64.0,102.0
91,55.174132475,55.84688498125,67.0,111.0
92,55.848289475,56.185367975,67.0,89.0
93,56.185367975,56.522446474999995,69.0,105.0
94,56.522446474999995,57.19519898125,62.0,105.0
95,57.196603474999996,57.533681975,62.0,102.0
96,57.533681975,57.870760475,64.0,100.0
97,57.870760475,58.41149056875,60.0,111.0
98,58.376378224999996,58.54632196875,62.0,84.0
99,58.544917475,58.713456725,60.0,92.0
100,58.713456725,58.881995974999995,62.0,92.0
101,58.881995974999995,59.050535225,60.0,78.0
102,59.050535225,59.219074475,57.0,97.0
103,59.219074475,61.241545474999995,55.0,111.0
104,61.241545474999995,61.410084725,64.0,100.0
105,61.410084725,61.578623975,62.0,84.0
106,61.578623975,61.7780620875,64.0,94.0
107,61.747163225,61.915702474999996,67.0,105.0
108,61.915702474999996,62.589859475,60.0,111.0
109,62.589859475,63.264016475,57.0,111.0
110,63.264016475,63.938173475,55.0,105.0
111,63.938173475,64.106712725,64.0,108.0
112,64.106712725,64.275251975,62.0,82.0
113,64.275251975,64.443791225,64.0,108.0
114,64.443791225,64.612330475,67.0,114.0
115,64.612330475,65.286487475,60.0,105.0
116,65.286487475,65.960644475,69.0,117.0
117,65.960644475,66.634801475,67.0,105.0
118,66.634801475,66.971879975,69.0,111.0
119,66.971879975,67.308958475,72.0,117.0
120,67.308958475,67.983115475,64.0,111.0
121,67.983115475,68.320193975,67.0,111.0
122,68.320193975,68.657272475,69.0,111.0
123,68.657272475,69.162890225,62.0,108.0
124,69.162890225,69.331429475,64.0,92.0
125,69.331429475,69.499968725,55.0,105.0
126,69.499968725,69.668507975,57.0,84.0
127,69.668507975,69.83704722499999,55.0,97.0
128,69.83704722499999,70.005586475,57.0,111.0
129,70.005586475,72.50418085625,60.0,108.0
130,82.82087383958333,82.99132833958333,64.0,100.0
131,82.99132833958333,83.16178283958332,62.0,84.0
132,83.16178283958332,83.36348733125,64.0,94.0
133,83.33223733958333,83.50269183958333,67.0,105.0
134,83.50269183958333,84.18450983958333,60.0,111.0
135,84.18450983958333,84.86632783958333,57.0,111.0
136,84.86632783958333,85.54814583958333,55.0,105.0
137,85.54814583958333,85.71777039791667,64.0,108.0
138,85.71777039791667,85.88630964791666,62.0,82.0
139,85.88630964791666,86.05484889791666,64.0,108.0
140,86.05484889791666,86.22338814791667,67.0,114.0
141,86.22338814791667,86.89754514791666,60.0,105.0
142,86.89754514791666,87.57170214791667,69.0,117.0
143,87.57170214791667,88.24585914791666,67.0,105.0
144,88.24585914791666,88.58293764791667,69.0,111.0
145,88.58293764791667,88.92001614791666,72.0,117.0
146,88.92001614791666,89.59417314791666,64.0,111.0
147,89.59417314791666,89.93125164791667,67.0,111.0
148,89.93125164791667,90.26833014791666,69.0,111.0
149,90.26833014791666,90.77394789791666,62.0,108.0
150,90.77394789791666,90.94248714791667,64.0,92.0
151,90.94248714791667,91.27956564791666,60.0,100.0
152,91.27956564791666,91.61664414791666,57.0,111.0
153,91.61664414791666,93.63911514791666,55.0,92.0
154,93.63911514791666,93.80765439791666,64.0,100.0
155,93.80765439791666,93.97619364791666,62.0,84.0
156,93.97619364791666,94.17563176041666,64.0,94.0
157,94.14473289791667,94.31327214791666,67.0,105.0
158,94.31327214791666,94.98742914791666,60.0,111.0
159,94.98742914791666,95.66158614791667,57.0,111.0
160,95.66158614791667,96.33574314791666,55.0,105.0
161,96.33574314791666,96.50428239791665,64.0,108.0
162,96.50428239791665,96.67282164791666,62.0,82.0
163,96.67282164791666,96.84136089791666,64.0,108.0
164,96.84136089791666,97.00990014791667,67.0,114.0
165,97.00990014791667,97.68405714791666,60.0,105.0
166,97.68405714791666,98.35821414791666,69.0,117.0
167,98.35821414791666,99.03237114791666,67.0,105.0
168,99.03237114791666,99.36944964791667,69.0,111.0
169,99.36944964791667,99.70652814791666,72.0,117.0
170,99.70652814791666,100.38068514791667,64.0,111.0
171,100.38068514791667,100.71776364791666,67.0,111.0
172,100.71776364791666,101.05484214791666,69.0,111.0
173,101.05484214791666,101.56045989791666,62.0,108.0
174,101.56045989791666,101.72899914791665,64.0,92.0
175,101.72899914791665,101.89753839791666,55.0,105.0
176,101.89753839791666,102.06607764791666,57.0,84.0
177,102.06607764791666,102.23461689791667,55.0,97.0
178,102.23461689791667,102.40315614791666,57.0,111.0
179,102.40315614791666,104.42562714791666,60.0,108.0
180,104.42562714791666,104.76270564791666,64.0,102.0
181,104.76270564791666,105.09978414791667,67.0,108.0
182,105.09978414791667,105.77394114791666,69.0,108.0
183,105.77394114791666,106.11101964791666,72.0,114.0
184,106.11101964791666,106.44669365416667,69.0,108.0
185,106.44809814791665,107.12225514791666,69.0,108.0
186,107.12225514791666,107.45933364791667,64.0,114.0
187,107.45933364791667,107.79641214791667,69.0,102.0
188,107.79641214791667,108.30062540416665,67.0,114.0
189,108.30202989791667,108.47056914791666,67.0,114.0
190,108.47056914791666,108.80764764791667,69.0,105.0
191,108.80764764791667,108.97618689791666,67.0,117.0
192,108.97618689791666,109.14472614791666,64.0,94.0
193,109.14472614791666,109.81747865416666,67.0,114.0
194,109.81888314791667,110.15596164791666,67.0,111.0
195,110.15596164791666,110.49304014791666,69.0,108.0
196,110.49304014791666,110.82871415416666,72.0,108.0
197,110.83011864791666,111.16579265416667,72.0,108.0
198,111.16719714791665,111.50427564791666,72.0,111.0
199,111.50427564791666,111.84135414791666,74.0,111.0
200,111.84135414791666,112.34556740416666,72.0,111.0
201,112.34697189791666,112.51551114791667,72.0,105.0
202,112.51551114791667,112.85258964791666,69.0,117.0
203,112.85258964791666,113.02112889791667,67.0,105.0
204,113.02112889791667,113.18966814791666,69.0,108.0
205,113.18966814791666,115.21213914791666,67.0,108.0
206,115.21213914791666,115.54921764791666,64.0,105.0
207,115.54921764791666,115.88629614791665,67.0,108.0
208,115.88629614791665,116.55904865416666,69.0,105.0
209,116.56045314791666,116.72899239791666,69.0,111.0
210,116.72899239791666,116.89753164791667,72.0,100.0
211,116.89753164791667,117.06607089791666,69.0,108.0
212,117.06607089791666,117.23461014791667,67.0,97.0
213,117.23461014791667,118.07730639791666,69.0,100.0
214,118.07730639791666,118.24584564791667,64.0,111.0
215,118.24584564791667,118.58292414791666,69.0,105.0
216,118.58292414791666,119.25567665416666,67.0,105.0
217,119.25708114791667,119.42562039791666,67.0,108.0
218,119.42562039791666,119.59415964791665,69.0,89.0
219,119.59415964791665,119.76269889791666,67.0,105.0
220,119.76269889791666,119.93123814791666,64.0,102.0
221,119.93123814791666,120.60399065416667,67.0,111.0
222,120.60539514791665,120.94247364791667,67.0,89.0
223,120.94247364791667,121.27955214791666,69.0,105.0
224,121.27955214791666,121.95230465416665,62.0,105.0
225,121.95370914791667,122.29078764791666,62.0,102.0
226,122.29078764791666,122.62786614791666,64.0,100.0
227,122.62786614791666,123.16859624166666,60.0,111.0
228,123.13348389791666,123.30342764166666,62.0,84.0
229,123.30202314791666,123.47056239791667,60.0,92.0
230,123.47056239791667,123.63910164791666,62.0,92.0
231,123.63910164791666,123.80764089791666,60.0,78.0
232,123.80764089791666,123.97618014791666,57.0,97.0
233,123.97618014791666,125.99865114791666,55.0,111.0
234,125.99865114791666,126.16719039791667,64.0,100.0
235,126.16719039791667,126.33572964791665,62.0,84.0
236,126.33572964791665,126.53516776041667,64.0,94.0
237,126.50426889791666,126.67280814791667,67.0,105.0
238,126.67280814791667,127.34696514791666,60.0,111.0
239,127.34696514791666,128.02112214791666,57.0,111.0
240,128.02112214791666,128.69527914791666,55.0,105.0
241,128.69527914791666,128.86381839791665,64.0,108.0
242,128.86381839791665,129.03235764791665,62.0,82.0
243,129.03235764791665,129.20089689791666,64.0,108.0
244,129.20089689791666,129.36943614791664,67.0,114.0
245,129.36943614791664,130.04359314791665,60.0,105.0
246,130.04359314791665,130.71775014791666,69.0,117.0
247,130.71775014791666,131.39190714791667,67.0,105.0
248,131.39190714791667,131.72898564791666,69.0,111.0
249,131.72898564791666,132.06606414791668,72.0,117.0
250,132.06606414791668,132.74022114791666,64.0,111.0
251,132.74022114791666,133.07729964791667,67.0,111.0
252,133.07729964791667,133.41437814791666,69.0,111.0
253,133.41437814791666,133.91999589791666,62.0,108.0
254,133.91999589791666,134.08853514791667,64.0,92.0
255,134.08853514791667,134.25707439791665,55.0,105.0
256,134.25707439791665,134.42561364791666,57.0,84.0
257,134.42561364791666,134.59415289791667,55.0,97.0
258,134.59415289791667,134.76269214791665,57.0,111.0
259,134.76269214791665,136.91480787083333,60.0,108.0
260,158.43288189791667,158.64776944166667,64.0,102.0
261,158.76996039791666,159.00310636041667,67.0,108.0
262,159.10703889791668,159.66602741041666,69.0,108.0
263,159.78119589791666,160.05226319166667,72.0,114.0
264,160.11827439791668,160.36967877916666,69.0,108.0
265,160.45535289791667,161.00872343541667,69.0,108.0
266,161.12950989791668,161.40479067291668,64.0,114.0
267,161.46658839791667,161.7137792979167,69.0,102.0
268,161.80366689791668,162.20113862916668,67.0,114.0
269,162.30928464791668,162.40759921041666,67.0,114.0
270,162.47782389791666,162.71939682291668,69.0,105.0
271,162.81490239791668,162.91883493541667,67.0,117.0
272,162.98344164791666,163.07894722291667,64.0,94.0
273,163.15198089791667,163.59439642916666,67.0,114.0
274,163.82613789791668,164.01995803541666,67.0,111.0
275,164.16321639791667,164.36967697916668,69.0,108.0
276,164.50029489791666,164.70254199791668,72.0,108.0
277,164.83737339791668,165.00731714166668,72.0,108.0
278,165.17445189791667,165.38091247916668,72.0,111.0
279,165.51153039791666,165.71799097916667,74.0,111.0
280,165.84860889791668,166.21377727291667,72.0,111.0
281,166.35422664791668,166.46096817291667,72.0,105.0
282,166.52276589791666,166.79102420416666,69.0,117.0
283,166.85984439791667,166.96939491041667,67.0,105.0
284,167.02838364791668,167.13793416041668,69.0,108.0
285,167.19692289791666,168.81489969791667,67.0,108.0
286,169.21939389791666,169.46096682291667,64.0,105.0
287,169.55647239791668,169.81068576666667,67.0,108.0
288,169.89355089791667,170.41040459791668,69.0,105.0
289,170.56770789791668,170.68147189166666,69.0,111.0
290,170.73624714791669,170.85001114166667,72.0,100.0
291,170.90478639791667,171.00029197291667,69.0,108.0
292,171.07332564791668,171.16742672916666,67.0,97.0
293,171.24186489791668,171.69972986041668,69.0,100.0
294,172.08456114791667,172.21798805416668,64.0,111.0
295,172.25310039791668,172.44130256041666,69.0,105.0
296,172.59017889791667,173.03540341666667,67.0,105.0
297,173.26433589791668,173.38090887916667,67.0,108.0
298,173.43287514791666,173.53399869791667,69.0,89.0
299,173.60141439791667,173.71517839166665,67.0,105.0
300,173.76995364791668,173.87107719791666,64.0,102.0
301,173.93849289791666,174.36265001041667,67.0,111.0
302,174.61264989791667,174.82191946666666,67.0,89.0
303,174.94972839791666,175.10703169791668,69.0,105.0
304,175.28680689791668,175.75309882291668,62.0,105.0
305,175.96096389791666,176.23203119166666,62.0,102.0
306,176.29804239791667,176.56630070416668,64.0,100.0
307,176.63512089791666,177.17585099166666,60.0,111.0
308,177.14073864791666,177.31068239166666,62.0,84.0
309,177.30927789791667,177.40197448541667,60.0,92.0
310,177.47781714791668,177.58174968541667,62.0,92.0
311,177.64635639791666,177.76573836666668,60.0,78.0
312,177.81489564791667,177.90337875416668,57.0,97.0
313,177.98343489791668,179.83315316666668,55.0,111.0
314,180.00590589791668,180.15478223541666,64.0,100.0
315,180.17444514791669,180.32893946041668,62.0,84.0
316,180.34298439791667,180.54242251041666,64.0,94.0
317,180.51152364791668,180.65478201041668,67.0,105.0
318,180.68006289791668,181.19691659791667,60.0,111.0
319,181.35421989791666,181.92163537291668,57.0,111.0
320,182.02837689791667,182.52416319166667,55.0,105.0
321,182.70253389791668,182.82472485416667,64.0,108.0
322,182.87107314791666,182.98062366041665,62.0,82.0
323,183.03961239791667,183.15056740416668,64.0,108.0
324,183.20815164791668,183.30084823541668,67.0,114.0
325,183.37669089791666,183.88511763541666,60.0,105.0
326,184.05084789791667,184.61826337291666,69.0,117.0
327,184.72500489791668,185.1589934666667,67.0,105.0
328,185.39916189791666,185.63511684791666,69.0,111.0
329,185.73624039791667,185.89354369791667,72.0,117.0
330,186.07331889791666,186.60562202916668,64.0,111.0
331,186.74747589791667,186.94972299791667,67.0,111.0
332,187.08455439791666,187.29663295416668,69.0,111.0
333,187.42163289791668,187.92444166041668,62.0,108.0
334,187.92725064791668,188.03539666666666,64.0,92.0
335,188.0957898979167,188.20534041041668,55.0,105.0
336,188.26432914791667,188.36545269791668,57.0,84.0
337,188.43286839791668,188.57331777291668,55.0,97.0
338,188.6014076479167,188.70253119791667,57.0,111.0
339,188.76994689791667,190.63932807916666,60.0,108.0
