,start,end,pitch,velocity
0,2.589886475,3.140448025,48.0,100.0
1,2.9269649749999997,3.3061782875,60.0,87.0
2,2.9269649749999997,3.31881873125,55.0,80.0
3,2.9269649749999997,3.3539310749999998,64.0,100.0
4,3.264043475,3.6882005875,43.0,100.0
5,3.601121975,3.76544774375,60.0,84.0
6,3.601121975,3.77949268125,55.0,84.0
7,3.601121975,3.8005600875,64.0,87.0
8,3.938200475,4.4269643,48.0,62.0
9,4.275278975,4.4719081,55.0,87.0
10,4.275278975,4.4719081,60.0,92.0
11,4.275278975,4.50561595,64.0,94.0
12,4.612357475,5.0702224375,43.0,100.0
13,4.949435975,5.11095275625,55.0,87.0
14,4.949435975,5.11376174375,60.0,105.0
15,4.949435975,5.1376381375,64.0,100.0
16,5.286514475,5.79915469375,48.0,89.0
17,5.623592975,6.07443546875,60.0,94.0
18,5.623592975,6.084266925,64.0,97.0
19,5.623592975,6.0926938875,55.0,84.0
20,5.960671475,6.421345425,43.0,97.0
21,6.2977499749999994,6.499997075,60.0,105.0
22,6.2977499749999994,6.52387346875,55.0,82.0
23,6.2977499749999994,6.5421318875,64.0,100.0
24,6.634828475,7.2977495249999995,48.0,78.0
25,6.971906975,7.4915696625,64.0,102.0
26,6.971906975,7.50140111875,60.0,114.0
27,6.971906975,7.51263706875,55.0,102.0
28,7.308985475,7.75982796875,43.0,105.0
29,7.646063975,7.77949088125,64.0,102.0
30,7.646063975,7.7837043625,60.0,111.0
31,7.646063975,7.78651335,55.0,102.0
32,7.983142475,8.47892876875,41.0,105.0
33,8.320220975,8.4943782,60.0,102.0
34,8.320220975,8.5084231375,57.0,97.0
35,8.320220975,8.5084231375,65.0,92.0
36,8.657299475,9.252804825,48.0,97.0
37,8.994377974999999,9.3174115375,60.0,102.0
38,8.994377974999999,9.34128793125,65.0,94.0
39,8.994377974999999,9.35954635,57.0,100.0
40,9.668534975,9.78791694375,60.0,102.0
41,9.668534975,9.80898435,57.0,100.0
42,9.331456475,9.82443378125,41.0,87.0
43,9.668534975,9.825838275,65.0,100.0
44,10.005613475,10.50139976875,48.0,92.0
45,10.342691975,10.57302895,60.0,97.0
46,10.342691975,10.59690534375,57.0,97.0
47,10.342691975,10.65308509375,65.0,100.0
48,10.679770475,11.27106234375,48.0,105.0
49,11.016848975,11.3033657,60.0,92.0
50,11.016848975,11.308983675,64.0,97.0
51,11.016848975,11.31600614375,55.0,97.0
52,11.353927474999999,11.80196098125,43.0,97.0
53,11.691005975,11.83145535,60.0,94.0
54,11.691005975,11.8398823125,55.0,92.0
55,11.691005975,11.85252275625,64.0,92.0
56,12.028084475,12.6825785625,48.0,92.0
57,12.365162975,12.79915154375,64.0,94.0
58,12.365162975,12.81881445625,60.0,97.0
59,12.365162975,12.825836924999999,55.0,97.0
60,12.702241475,13.181173843749999,43.0,97.0
61,13.039319975,13.241567074999999,60.0,102.0
62,13.039319975,13.26544346875,64.0,94.0
63,13.039319975,13.2780839125,55.0,100.0
64,13.376398475,13.81038704375,43.0,97.0
65,13.713476974999999,14.0533644625,59.0,89.0
66,13.713476974999999,14.05757794375,62.0,94.0
67,13.713476974999999,14.11937566875,55.0,80.0
68,14.050555475,14.484544043749999,50.0,97.0
69,14.387633975,14.5702181625,59.0,94.0
70,14.387633975,14.5758361375,62.0,92.0
71,14.387633975,14.578645125,55.0,89.0
72,15.061790975,15.50139751875,59.0,100.0
73,15.061790975,15.51263346875,62.0,97.0
74,14.724712475,15.5140379625,43.0,97.0
75,15.061790975,15.5280829,55.0,92.0
76,15.398869475,15.825835575,50.0,80.0
77,15.735947975,15.94802653125,59.0,102.0
78,15.735947975,15.99297033125,55.0,100.0
79,15.735947975,16.00139729375,62.0,97.0
80,16.073026475,16.68538575,48.0,92.0
81,16.410104975,16.8848238625,60.0,102.0
82,16.410104975,16.8848238625,64.0,100.0
83,16.410104975,16.90308228125,55.0,102.0
84,17.084261975,17.25139673125,60.0,94.0
85,17.084261975,17.26263268125,64.0,92.0
86,17.084261975,17.2724641375,55.0,92.0
87,16.747183475,17.27948660625,43.0,100.0
88,17.421340475,18.6544859875,48.0,102.0
89,17.421340475,18.702238774999998,64.0,97.0
90,17.421340475,18.7050477625,60.0,97.0
91,17.421340475,18.73735111875,55.0,97.0
92,18.769654475,19.20926101875,48.0,111.0
93,19.106732975,19.27386773125,60.0,108.0
94,19.106732975,19.32162051875,64.0,105.0
95,19.106732975,19.32723849375,55.0,102.0
96,19.443811475,19.88622700625,41.0,100.0
97,19.780889975,19.99577751875,57.0,100.0
98,19.780889975,20.00139549375,53.0,94.0
99,19.780889975,20.00982245625,60.0,100.0
100,20.117968474999998,20.7162828125,48.0,102.0
101,20.455046975,20.81600186875,55.0,100.0
102,20.455046975,20.820215349999998,60.0,105.0
103,20.455046975,20.85532769375,64.0,102.0
104,20.792125475,21.24296796875,43.0,84.0
105,21.129203975,21.25420391875,60.0,102.0
106,21.129203975,21.29914771875,55.0,102.0
107,21.129203975,21.331451075,64.0,105.0
108,21.466282475,21.90588901875,48.0,108.0
109,21.803360975,21.97049573125,60.0,108.0
110,21.803360975,22.00982155625,55.0,97.0
111,21.803360975,22.066001306249998,64.0,102.0
112,22.140439475,22.6516752,41.0,100.0
113,22.477517974999998,22.6741471,57.0,102.0
114,22.477517974999998,22.69521450625,53.0,97.0
115,22.477517974999998,22.713472924999998,60.0,97.0
116,22.814596475,23.3258322,43.0,102.0
117,23.151674975,23.45083214375,62.0,100.0
118,23.151674975,23.45925910625,59.0,102.0
119,23.151674975,23.591281518749998,55.0,94.0
120,23.488753475,23.960663375,50.0,94.0
121,23.825831975,23.9775173,59.0,102.0
122,23.825831975,23.983135275,62.0,100.0
123,23.825831975,24.00139369375,67.0,84.0
124,23.825831975,24.00420268125,55.0,89.0
125,24.162910475,24.78229221875,48.0,108.0
126,24.499988975,24.957853937499998,60.0,97.0
127,24.499988975,24.957853937499998,64.0,94.0
128,24.499988975,24.97892134375,55.0,89.0
129,24.837067474999998,25.3454942125,43.0,92.0
130,25.174145975,25.3454942125,60.0,105.0
131,25.174145975,25.3623481375,55.0,97.0
132,25.174145975,25.366561618749998,64.0,100.0
133,25.511224475,26.117965775,50.0,57.0
134,25.848302975,26.33847129375,57.0,100.0
135,25.848302975,26.33847129375,62.0,97.0
136,26.522459975,26.68538125,62.0,114.0
137,26.185381475,26.69521270625,45.0,100.0
138,26.522459975,26.724707074999998,57.0,114.0
139,26.859538475,27.3735831875,43.0,102.0
140,27.196616974999998,27.654481937499998,62.0,97.0
141,27.196616974999998,27.66431339375,59.0,102.0
142,27.196616974999998,27.70925719375,55.0,94.0
143,27.870773975,28.025268287499998,59.0,89.0
144,27.870773975,28.04071771875,55.0,87.0
145,27.870773975,28.0533581625,62.0,84.0
146,27.533695475,28.05616715,50.0,82.0
147,28.207852475,29.43678450625,55.0,78.0
148,28.207852475,29.4466159625,62.0,78.0
149,28.207852475,29.44942495,43.0,102.0
150,28.207852475,29.455042925,59.0,92.0
151,28.207852475,29.47891931875,67.0,94.0
152,29.556166474999998,29.99577301875,48.0,111.0
153,29.893244974999998,30.06037973125,60.0,108.0
154,29.893244974999998,30.10813251875,64.0,105.0
155,29.893244974999998,30.11375049375,55.0,102.0
156,30.230323475,30.672739006249998,41.0,100.0
157,30.567401975,30.782289518749998,57.0,100.0
158,30.567401975,30.787907493749998,53.0,94.0
159,30.567401975,30.796334456249998,60.0,100.0
160,30.904480475,31.5027948125,48.0,102.0
161,31.241558975,31.60251386875,55.0,100.0
162,31.241558975,31.60672735,60.0,105.0
163,31.241558975,31.64183969375,64.0,102.0
164,31.578637475,32.029479968749996,43.0,84.0
165,31.915715974999998,32.04071591875,60.0,102.0
166,31.915715974999998,32.08565971875,55.0,102.0
167,31.915715974999998,32.117963075,64.0,105.0
168,32.252794475,32.69240101875,48.0,108.0
169,32.589872975,32.75700773125,60.0,108.0
170,32.589872975,32.79633355625,55.0,97.0
171,32.589872975,32.852513306249996,64.0,102.0
172,32.926951475,33.4381872,41.0,100.0
173,33.264029975,33.4606591,57.0,102.0
174,33.264029975,33.48172650625,53.0,97.0
175,33.264029975,33.499984925,60.0,97.0
176,33.601108475,34.1123442,43.0,102.0
177,33.938186975,34.23734414375,62.0,100.0
178,33.938186975,34.24577110625,59.0,102.0
179,33.938186975,34.377793518749996,55.0,94.0
180,34.275265475,34.747175375,50.0,94.0
181,34.612343975,34.7640293,59.0,102.0
182,34.612343975,34.769647275,62.0,100.0
183,34.612343975,34.78790569375,67.0,84.0
184,34.612343975,34.79071468125,55.0,89.0
185,34.949422475,35.568804218749996,48.0,108.0
186,35.286500975,35.7443659375,60.0,97.0
187,35.286500975,35.7443659375,64.0,94.0
188,35.286500975,35.76543334375,55.0,89.0
189,35.623579475,36.1320062125,43.0,92.0
190,35.960657975,36.1320062125,60.0,105.0
191,35.960657975,36.1488601375,55.0,97.0
192,35.960657975,36.15307361875,64.0,100.0
193,36.634814975,37.17554506875,59.0,105.0
194,36.634814975,37.19239899375,62.0,105.0
195,36.634814975,37.20223045,55.0,89.0
196,36.971893475,37.4466123625,50.0,87.0
197,36.297736475,37.4522303375,43.0,105.0
198,37.308971975,37.47610673125,59.0,94.0
199,37.308971975,37.52385951875,62.0,92.0
200,37.308971975,37.53509546875,55.0,94.0
201,37.646050475,38.32161196875,48.0,102.0
202,37.983128975,38.43116248125,55.0,84.0
203,37.983128975,38.432566975,60.0,100.0
204,37.983128975,38.44520741875,64.0,100.0
205,38.320207475,38.8679600375,43.0,92.0
206,38.657285975,38.89464541875,60.0,100.0
207,38.657285975,38.93256675,55.0,87.0
208,38.657285975,38.95363415625,64.0,97.0
209,38.994364475,39.690993375,48.0,97.0
210,39.331442975,39.879195537499996,60.0,94.0
211,39.331442975,39.879195537499996,64.0,97.0
212,39.331442975,39.8876225,55.0,100.0
213,39.668521475,40.155880806249996,43.0,108.0
214,40.005599975,40.21206055625,55.0,102.0
215,40.005599975,40.21486954375,60.0,100.0
216,40.005599975,40.22329650625,64.0,100.0
217,40.342678475,40.57301545,60.0,84.0
218,40.342678475,40.578633425,57.0,78.0
219,40.679756975,40.825824325,60.0,100.0
220,40.342678475,40.83284679375,45.0,94.0
221,40.679756975,40.8342512875,57.0,89.0
222,40.679756975,40.85250970625,64.0,100.0
223,41.353913975,41.51543075625,57.0,94.0
224,41.353913975,41.52104873125,60.0,102.0
225,41.353913975,41.53228468125,64.0,100.0
226,41.016835475,41.54632961875,52.0,80.0
227,41.690992475,41.94239685625,57.0,80.0
228,41.690992475,41.95925078125,60.0,84.0
229,41.690992475,42.21767763125,45.0,92.0
230,42.028070975,42.25138548125,57.0,108.0
231,42.028070975,42.25138548125,60.0,111.0
232,42.028070975,42.2612169375,64.0,102.0
233,42.365149475,42.929755962499996,52.0,100.0
234,42.702227975,42.95644134375,60.0,105.0
235,42.702227975,42.95925033125,64.0,100.0
236,42.702227975,42.97750875,57.0,102.0
237,43.376384975,43.55475568125,60.0,100.0
238,43.376384975,43.5589691625,55.0,97.0
239,43.376384975,43.5589691625,64.0,102.0
240,43.039306475,43.69660955,48.0,97.0
241,43.713463475,44.20924976875,43.0,105.0
242,44.050541975,44.21486774375,55.0,102.0
243,44.050541975,44.21767673125,60.0,102.0
244,44.050541975,44.2331261625,64.0,102.0
245,44.387620475,44.650260806249996,55.0,92.0
246,44.387620475,44.650260806249996,60.0,97.0
247,44.387620475,45.0870583625,48.0,97.0
248,44.724698975,45.17554146875,64.0,108.0
249,44.724698975,45.19801336875,60.0,108.0
250,44.724698975,45.20924931875,55.0,102.0
251,45.398855975,45.5084064875,60.0,100.0
252,45.398855975,45.519642437499996,64.0,94.0
253,45.398855975,45.547732312499996,55.0,102.0
254,45.061777475,45.578631175,43.0,102.0
255,45.735934475,45.9746984125,57.0,89.0
256,45.735934475,45.9859343625,53.0,76.0
257,45.735934475,46.1937994375,41.0,94.0
258,46.073012975,46.28228254375,57.0,108.0
259,46.073012975,46.285091531249996,53.0,89.0
260,46.073012975,46.290709506249996,60.0,108.0
261,46.410091475,47.016832775,48.0,78.0
262,46.747169975,47.067394549999996,53.0,94.0
263,46.747169975,47.067394549999996,57.0,111.0
264,46.747169975,47.0702035375,60.0,105.0
265,47.084248474999995,47.12216980625,60.0,87.0
266,47.084248474999995,47.26261918125,57.0,114.0
267,47.084248474999995,47.26964165,53.0,102.0
268,47.084248474999995,47.6320010375,41.0,100.0
269,47.421326975,47.64183249375,60.0,97.0
270,47.421326975,47.665708887499996,53.0,80.0
271,47.421326975,47.67554034375,57.0,97.0
272,48.095483975,48.252787274999996,57.0,102.0
273,48.095483975,48.25700075625,53.0,94.0
274,47.758405474999996,48.28087715,48.0,87.0
275,48.095483975,48.286495125,60.0,102.0
276,48.432562475,48.6657084375,59.0,94.0
277,48.432562475,48.668517425,55.0,80.0
278,48.432562475,49.0336858,43.0,102.0
279,48.769640975,49.25138233125,62.0,105.0
280,48.769640975,49.265427268749995,59.0,105.0
281,48.769640975,49.275258725,55.0,100.0
282,49.443797974999995,49.5982922875,59.0,97.0
283,49.443797974999995,49.601101275,55.0,82.0
284,49.106719475,49.60250576875,50.0,87.0
285,49.443797974999995,49.605314756249996,62.0,92.0
286,49.780876475,50.04632579375,55.0,80.0
287,49.780876475,50.04913478125,59.0,94.0
288,49.780876475,50.432561575,43.0,100.0
289,50.117954974999996,50.5814379125,59.0,97.0
290,50.117954974999996,50.589864874999996,62.0,89.0
291,50.117954974999996,50.60250531875,55.0,89.0
292,50.792111975,50.92272989375,59.0,66.0
293,50.792111975,50.9297523625,55.0,69.0
294,50.792111975,50.95643774375,62.0,78.0
295,50.455033475,50.957842237499996,50.0,94.0
296,51.129190475,51.35952745,60.0,84.0
297,51.129190475,51.365145425,57.0,78.0
298,51.466268975,51.612336325,60.0,100.0
299,51.129190475,51.619358793749996,45.0,94.0
300,51.466268975,51.6207632875,57.0,89.0
301,51.466268975,51.63902170625,64.0,100.0
302,52.140425975,52.30194275625,57.0,94.0
303,52.140425975,52.30756073125,60.0,102.0
304,52.140425975,52.31879668125,64.0,100.0
305,51.803347474999995,52.332841618749995,52.0,80.0
306,52.477504474999996,52.72890885625,57.0,80.0
307,52.477504474999996,52.74576278125,60.0,84.0
308,52.477504474999996,53.00418963125,45.0,92.0
309,52.814582975,53.03789748125,57.0,108.0
310,52.814582975,53.03789748125,60.0,111.0
311,52.814582975,53.0477289375,64.0,102.0
312,53.151661475,53.7162679625,52.0,100.0
313,53.488739975,53.742953343749996,60.0,105.0
314,53.488739975,53.74576233125,64.0,100.0
315,53.488739975,53.76402075,57.0,102.0
316,54.162896974999995,54.341267681249995,60.0,100.0
317,54.162896974999995,54.3454811625,55.0,97.0
318,54.162896974999995,54.3454811625,64.0,102.0
319,53.825818475,54.48312155,48.0,97.0
320,54.499975475,54.99576176875,43.0,105.0
321,54.837053974999996,55.00137974375,55.0,102.0
322,54.837053974999996,55.00418873125,60.0,102.0
323,54.837053974999996,55.0196381625,64.0,102.0
324,55.174132475,55.43677280625,55.0,92.0
325,55.174132475,55.43677280625,60.0,97.0
326,55.174132475,55.8735703625,48.0,97.0
327,55.511210975,55.96205346875,64.0,108.0
328,55.511210975,55.98452536875,60.0,108.0
329,55.511210975,55.99576131875,55.0,102.0
330,56.185367975,56.2949184875,60.0,100.0
331,56.185367975,56.3061544375,64.0,94.0
332,56.185367975,56.3342443125,55.0,102.0
333,55.848289475,56.365143175,43.0,102.0
334,56.522446474999995,56.77385085625,62.0,94.0
335,56.522446474999995,56.77946883125,57.0,97.0
336,56.522446474999995,57.213457399999996,50.0,100.0
337,56.859524975,57.3791876625,65.0,108.0
338,56.859524975,57.386210131249996,62.0,111.0
339,56.859524975,57.391828106249996,57.0,105.0
340,57.533681975,57.6628954,65.0,108.0
341,57.533681975,57.66429989375,62.0,97.0
342,57.533681975,57.690985274999996,57.0,97.0
343,57.196603474999996,57.737333568749996,45.0,105.0
344,57.870760475,58.13340080625,57.0,66.0
345,57.870760475,58.13620979375,62.0,94.0
346,57.870760475,58.146041249999996,66.0,99.0
347,57.870760475,58.50418715625,50.0,92.0
348,58.207838975,58.73452413125,62.0,105.0
349,58.207838975,58.74295109375,57.0,102.0
350,58.207838975,58.74576008125,66.0,99.0
351,58.544917475,58.99295098125,50.0,89.0
352,58.881995974999995,59.0701981375,62.0,111.0
353,58.881995974999995,59.073007125,57.0,114.0
354,58.881995974999995,59.09407453125,66.0,112.0
355,59.219074475,59.452220437499996,59.0,94.0
356,59.219074475,59.455029425,55.0,80.0
357,59.219074475,59.820197799999995,43.0,102.0
358,59.556152974999996,60.03789433125,62.0,105.0
359,59.556152974999996,60.05193926875,59.0,105.0
360,59.556152974999996,60.061770724999995,55.0,100.0
361,60.230309975,60.384804287499996,59.0,97.0
362,60.230309975,60.387613275,55.0,82.0
363,59.893231475,60.38901776875,50.0,87.0
364,60.230309975,60.39182675625,62.0,92.0
365,60.567388475,61.7106463875,43.0,105.0
366,60.567388475,61.83845531875,55.0,84.0
367,60.567388475,61.83845531875,59.0,92.0
368,60.567388475,61.84126430625,62.0,97.0
369,61.915702474999996,62.35530901875,48.0,111.0
370,62.252780975,62.41991573125,60.0,108.0
371,62.252780975,62.467668518749996,64.0,105.0
372,62.252780975,62.473286493749995,55.0,102.0
373,62.589859475,63.032275006249996,41.0,100.0
374,62.926937975,63.14182551875,57.0,100.0
375,62.926937975,63.147443493749996,53.0,94.0
376,62.926937975,63.15587045625,60.0,100.0
377,63.264016475,63.8623308125,48.0,102.0
378,63.601094974999995,63.96204986875,55.0,100.0
379,63.601094974999995,63.96626335,60.0,105.0
380,63.601094974999995,64.00137569374999,64.0,102.0
381,63.938173475,64.38901596875,43.0,84.0
382,64.275251975,64.40025191875,60.0,102.0
383,64.275251975,64.44519571875,55.0,102.0
384,64.275251975,64.477499075,64.0,105.0
385,64.612330475,65.05193701875,48.0,108.0
386,64.949408975,65.11654373125,60.0,108.0
387,64.949408975,65.15586955625,55.0,97.0
388,64.949408975,65.21204930625,64.0,102.0
389,65.286487475,65.7977232,41.0,100.0
390,65.623565975,65.82019509999999,57.0,102.0
391,65.623565975,65.84126250625,53.0,97.0
392,65.623565975,65.859520925,60.0,97.0
393,65.960644475,66.4718802,43.0,102.0
394,66.297722975,66.59688014375,62.0,100.0
395,66.297722975,66.60530710625,59.0,102.0
396,66.297722975,66.73732951875,55.0,94.0
397,66.634801475,67.106711375,50.0,94.0
398,66.971879975,67.1235653,59.0,102.0
399,66.971879975,67.129183275,62.0,100.0
400,66.971879975,67.14744169375,67.0,84.0
401,66.971879975,67.15025068125,55.0,89.0
402,67.308958475,67.92834021875,48.0,108.0
403,67.646036975,68.1039019375,60.0,97.0
404,67.646036975,68.1039019375,64.0,94.0
405,67.646036975,68.12496934375,55.0,89.0
406,67.983115475,68.4915422125,43.0,92.0
407,68.320193975,68.4915422125,60.0,105.0
408,68.320193975,68.5083961375,55.0,97.0
409,68.320193975,68.51260961875,64.0,100.0
410,68.994350975,69.53508106875,59.0,105.0
411,68.994350975,69.55193499375,62.0,105.0
412,68.994350975,69.56176645,55.0,89.0
413,69.331429475,69.8061483625,50.0,87.0
414,68.657272475,69.8117663375,43.0,105.0
415,69.668507975,69.83564273125,59.0,94.0
416,69.668507975,69.88339551874999,62.0,92.0
417,69.668507975,69.89463146874999,55.0,94.0
418,70.005586475,70.68114796875,48.0,102.0
419,70.342664975,70.79069848125,55.0,84.0
420,70.342664975,70.79210297499999,60.0,100.0
421,70.342664975,70.80474341875,64.0,100.0
422,70.679743475,71.2274960375,43.0,92.0
423,71.016821975,71.25418141875,60.0,100.0
424,71.016821975,71.29210275,55.0,87.0
425,71.016821975,71.31317015625,64.0,97.0
426,71.353900475,72.050529375,48.0,97.0
427,71.690978975,72.2387315375,60.0,94.0
428,71.690978975,72.2387315375,64.0,97.0
429,71.690978975,72.2471585,55.0,100.0
430,72.028057475,72.51541680625,43.0,108.0
431,72.365135975,72.57159655625,55.0,102.0
432,72.365135975,72.57440554375,60.0,100.0
433,72.365135975,72.58283250625,64.0,100.0
434,72.702214475,73.19800076874999,41.0,105.0
435,73.039292975,73.2134502,60.0,102.0
436,73.039292975,73.2274951375,57.0,97.0
437,73.039292975,73.2274951375,65.0,92.0
438,73.376371475,73.971876825,48.0,97.0
439,73.713449975,74.0364835375,60.0,102.0
440,73.713449975,74.06035993125,65.0,94.0
441,73.713449975,74.07861835,57.0,100.0
442,74.387606975,74.50698894375,60.0,102.0
443,74.387606975,74.52805635,57.0,100.0
444,74.050528475,74.54350578125,41.0,87.0
445,74.387606975,74.54491027499999,65.0,100.0
446,74.724685475,75.22047176875,48.0,92.0
447,75.061763975,75.29210095,60.0,97.0
448,75.061763975,75.31597734374999,57.0,97.0
449,75.061763975,75.37215709375,65.0,100.0
450,75.398842475,75.99013434375,48.0,105.0
451,75.735920975,76.0224377,60.0,92.0
452,75.735920975,76.028055675,64.0,97.0
453,75.735920975,76.03507814375,55.0,97.0
454,76.072999475,76.52103298125,43.0,97.0
455,76.410077975,76.55052735,60.0,94.0
456,76.410077975,76.55895431249999,55.0,92.0
457,76.410077975,76.57159475625,64.0,92.0
458,76.747156475,77.4016505625,48.0,92.0
459,77.084234975,77.51822354375,64.0,94.0
460,77.084234975,77.53788645624999,60.0,97.0
461,77.084234975,77.544908925,55.0,97.0
462,77.421313475,77.90024584375,43.0,97.0
463,77.758391975,77.960639075,60.0,102.0
464,77.758391975,77.98451546875,64.0,94.0
465,77.758391975,77.99715591249999,55.0,100.0
466,78.095470475,78.52945904375,43.0,97.0
467,78.432548975,78.7724364625,59.0,89.0
468,78.432548975,78.77664994375,62.0,94.0
469,78.432548975,78.83844766874999,55.0,80.0
470,78.769627475,79.20361604375,50.0,97.0
471,79.106705975,79.2892901625,59.0,94.0
472,79.106705975,79.2949081375,62.0,92.0
473,79.106705975,79.29771712499999,55.0,89.0
474,79.780862975,80.22046951875,59.0,100.0
475,79.780862975,80.23170546875,62.0,97.0
476,79.443784475,80.2331099625,43.0,97.0
477,79.780862975,80.2471549,55.0,92.0
478,80.117941475,80.544907575,50.0,80.0
479,80.455019975,80.66709853125,59.0,102.0
480,80.455019975,80.71204233125,55.0,100.0
481,80.455019975,80.72046929375,62.0,97.0
482,80.792098475,81.40445774999999,48.0,92.0
483,81.129176975,81.6038958625,60.0,102.0
484,81.129176975,81.6038958625,64.0,100.0
485,81.129176975,81.62215428125,55.0,102.0
486,81.803333975,81.97046873125,60.0,94.0
487,81.803333975,81.98170468125,64.0,92.0
488,81.803333975,81.99153613749999,55.0,92.0
489,81.466255475,81.99855860625,43.0,100.0
490,82.140412475,83.38621459791666,48.0,102.0
491,82.140412475,83.43451003958333,64.0,97.0
492,82.140412475,83.43735094791666,60.0,97.0
493,82.140412475,83.47002139375,55.0,97.0
494,83.50269183958333,83.94729399375,48.0,111.0
495,83.84360083958333,84.01263488541666,60.0,108.0
496,83.84360083958333,84.06093032708333,64.0,105.0
497,83.84360083958333,84.06661214374999,55.0,102.0
498,84.18450983958333,84.63195290208333,41.0,100.0
499,84.52541883958332,84.74274832708333,57.0,100.0
500,84.52541883958332,84.74843014375,53.0,94.0
501,84.52541883958332,84.75695286874999,60.0,100.0
502,84.86632783958333,85.47144131458333,48.0,102.0
503,85.20723683958333,85.57229356041667,55.0,100.0
504,85.20723683958333,85.57655492291666,60.0,105.0
505,85.20723683958333,85.61206627708333,64.0,102.0
506,85.54814583958333,86.00007364166666,43.0,84.0
507,85.88630964791666,86.01130959166666,60.0,102.0
508,85.88630964791666,86.05625339166666,55.0,102.0
509,85.88630964791666,86.08855674791666,64.0,105.0
510,86.22338814791667,86.66299469166667,48.0,108.0
511,86.56046664791666,86.72760140416666,60.0,108.0
512,86.56046664791666,86.76692722916667,55.0,97.0
513,86.56046664791666,86.82310697916667,64.0,102.0
514,86.89754514791666,87.40878087291667,41.0,100.0
515,87.23462364791666,87.43125277291666,57.0,102.0
516,87.23462364791666,87.45232017916666,53.0,97.0
517,87.23462364791666,87.47057859791666,60.0,97.0
518,87.57170214791667,88.08293787291666,43.0,102.0
519,87.90878064791666,88.20793781666666,62.0,100.0
520,87.90878064791666,88.21636477916667,59.0,102.0
521,87.90878064791666,88.34838719166666,55.0,94.0
522,88.24585914791666,88.71776904791666,50.0,94.0
523,88.58293764791667,88.73462297291667,59.0,102.0
524,88.58293764791667,88.74024094791666,62.0,100.0
525,88.58293764791667,88.75849936666665,67.0,84.0
526,88.58293764791667,88.76130835416666,55.0,89.0
527,88.92001614791666,89.53939789166667,48.0,108.0
528,89.25709464791666,89.71495961041666,60.0,97.0
529,89.25709464791666,89.71495961041666,64.0,94.0
530,89.25709464791666,89.73602701666667,55.0,89.0
531,89.59417314791666,90.10259988541667,43.0,92.0
532,89.93125164791667,90.10259988541667,60.0,105.0
533,89.93125164791667,90.11945381041666,55.0,97.0
534,89.93125164791667,90.12366729166666,64.0,100.0
535,90.26833014791666,90.87507144791667,50.0,57.0
536,90.60540864791666,91.09557696666666,57.0,100.0
537,90.60540864791666,91.09557696666666,62.0,97.0
538,91.27956564791666,91.44248692291666,62.0,114.0
539,90.94248714791667,91.45231837916666,45.0,100.0
540,91.27956564791666,91.48181274791666,57.0,114.0
541,91.61664414791666,92.13068886041665,43.0,102.0
542,91.95372264791666,92.41158761041666,62.0,97.0
543,91.95372264791666,92.42141906666666,59.0,102.0
544,91.95372264791666,92.46636286666666,55.0,94.0
545,92.62787964791666,92.78237396041666,59.0,89.0
546,92.62787964791666,92.79782339166667,55.0,87.0
547,92.62787964791666,92.81046383541666,62.0,84.0
548,92.29080114791667,92.81327282291666,50.0,82.0
549,92.96495814791666,94.19389017916666,55.0,78.0
550,92.96495814791666,94.20372163541666,62.0,78.0
551,92.96495814791666,94.20653062291666,43.0,102.0
552,92.96495814791666,94.21214859791667,59.0,92.0
553,92.96495814791666,94.23602499166667,67.0,94.0
554,94.31327214791666,94.75287869166667,48.0,111.0
555,94.65035064791667,94.81748540416666,60.0,108.0
556,94.65035064791667,94.86523819166666,64.0,105.0
557,94.65035064791667,94.87085616666666,55.0,102.0
558,94.98742914791666,95.42984467916666,41.0,100.0
559,95.32450764791666,95.53939519166666,57.0,100.0
560,95.32450764791666,95.54501316666666,53.0,94.0
561,95.32450764791666,95.55344012916666,60.0,100.0
562,95.66158614791667,96.25990048541667,48.0,102.0
563,95.99866464791666,96.35961954166666,55.0,100.0
564,95.99866464791666,96.36383302291667,60.0,105.0
565,95.99866464791666,96.39894536666667,64.0,102.0
566,96.33574314791666,96.78658564166666,43.0,84.0
567,96.67282164791666,96.79782159166666,60.0,102.0
568,96.67282164791666,96.84276539166666,55.0,102.0
569,96.67282164791666,96.87506874791666,64.0,105.0
570,97.00990014791667,97.44950669166666,48.0,108.0
571,97.34697864791666,97.51411340416666,60.0,108.0
572,97.34697864791666,97.55343922916666,55.0,97.0
573,97.34697864791666,97.60961897916667,64.0,102.0
574,97.68405714791666,98.19529287291667,41.0,100.0
575,98.02113564791667,98.21776477291667,57.0,102.0
576,98.02113564791667,98.23883217916666,53.0,97.0
577,98.02113564791667,98.25709059791666,60.0,97.0
578,98.35821414791666,98.86944987291666,43.0,102.0
579,98.69529264791666,98.99444981666666,62.0,100.0
580,98.69529264791666,99.00287677916666,59.0,102.0
581,98.69529264791666,99.13489919166666,55.0,94.0
582,99.03237114791666,99.50428104791666,50.0,94.0
583,99.36944964791667,99.52113497291666,59.0,102.0
584,99.36944964791667,99.52675294791666,62.0,100.0
585,99.36944964791667,99.54501136666666,67.0,84.0
586,99.36944964791667,99.54782035416666,55.0,89.0
587,99.70652814791666,100.32590989166667,48.0,108.0
588,100.04360664791666,100.50147161041666,60.0,97.0
589,100.04360664791666,100.50147161041666,64.0,94.0
590,100.04360664791666,100.52253901666666,55.0,89.0
591,100.38068514791667,100.88911188541667,43.0,92.0
592,100.71776364791666,100.88911188541667,60.0,105.0
593,100.71776364791666,100.90596581041666,55.0,97.0
594,100.71776364791666,100.91017929166667,64.0,100.0
595,101.39192064791666,101.93265074166666,59.0,105.0
596,101.39192064791666,101.94950466666666,62.0,105.0
597,101.39192064791666,101.95933612291665,55.0,89.0
598,101.72899914791665,102.20371803541666,50.0,87.0
599,101.05484214791666,102.20933601041666,43.0,105.0
600,102.06607764791666,102.23321240416666,59.0,94.0
601,102.06607764791666,102.28096519166667,62.0,92.0
602,102.06607764791666,102.29220114166667,55.0,94.0
603,102.40315614791666,103.07871764166666,48.0,102.0
604,102.74023464791667,103.18826815416666,55.0,84.0
605,102.74023464791667,103.18967264791667,60.0,100.0
606,102.74023464791667,103.20231309166667,64.0,100.0
607,103.07731314791667,103.62506571041666,43.0,92.0
608,103.41439164791666,103.65175109166665,60.0,100.0
609,103.41439164791666,103.68967242291666,55.0,87.0
610,103.41439164791666,103.71073982916667,64.0,97.0
611,103.75147014791666,104.44809904791666,48.0,97.0
612,104.08854864791667,104.63630121041666,60.0,94.0
613,104.08854864791667,104.63630121041666,64.0,97.0
614,104.08854864791667,104.64472817291666,55.0,100.0
615,104.42562714791666,104.91298647916666,43.0,108.0
616,104.76270564791666,104.96916622916666,55.0,102.0
617,104.76270564791666,104.97197521666666,60.0,100.0
618,104.76270564791666,104.98040217916666,64.0,100.0
619,105.09978414791667,105.33012112291667,60.0,84.0
620,105.09978414791667,105.33573909791666,57.0,78.0
621,105.43686264791666,105.58292999791666,60.0,100.0
622,105.09978414791667,105.58995246666666,45.0,94.0
623,105.43686264791666,105.59135696041666,57.0,89.0
624,105.43686264791666,105.60961537916666,64.0,100.0
625,106.11101964791666,106.27253642916666,57.0,94.0
626,106.11101964791666,106.27815440416666,60.0,102.0
627,106.11101964791666,106.28939035416666,64.0,100.0
628,105.77394114791666,106.30343529166666,52.0,80.0
629,106.44809814791665,106.69950252916666,57.0,80.0
630,106.44809814791665,106.71635645416666,60.0,84.0
631,106.44809814791665,106.97478330416666,45.0,92.0
632,106.78517664791666,107.00849115416666,57.0,108.0
633,106.78517664791666,107.00849115416666,60.0,111.0
634,106.78517664791666,107.01832261041666,64.0,102.0
635,107.12225514791666,107.68686163541666,52.0,100.0
636,107.45933364791667,107.71354701666667,60.0,105.0
637,107.45933364791667,107.71635600416667,64.0,100.0
638,107.45933364791667,107.73461442291666,57.0,102.0
639,108.13349064791666,108.31186135416667,60.0,100.0
640,108.13349064791666,108.31607483541666,55.0,97.0
641,108.13349064791666,108.31607483541666,64.0,102.0
642,107.79641214791667,108.45371522291666,48.0,97.0
643,108.47056914791666,108.96635544166666,43.0,105.0
644,108.80764764791667,108.97197341666666,55.0,102.0
645,108.80764764791667,108.97478240416666,60.0,102.0
646,108.80764764791667,108.99023183541667,64.0,102.0
647,109.14472614791666,109.40736647916665,55.0,92.0
648,109.14472614791666,109.40736647916665,60.0,97.0
649,109.14472614791666,109.84416403541667,48.0,97.0
650,109.48180464791666,109.93264714166666,64.0,108.0
651,109.48180464791666,109.95511904166666,60.0,108.0
652,109.48180464791666,109.96635499166666,55.0,102.0
653,110.15596164791666,110.26551216041666,60.0,100.0
654,110.15596164791666,110.27674811041666,64.0,94.0
655,110.15596164791666,110.30483798541667,55.0,102.0
656,109.81888314791667,110.33573684791666,43.0,102.0
657,110.49304014791666,110.73180408541666,57.0,89.0
658,110.49304014791666,110.74304003541667,53.0,76.0
659,110.49304014791666,110.95090511041666,41.0,94.0
660,110.83011864791666,111.03938821666667,57.0,108.0
661,110.83011864791666,111.04219720416665,53.0,89.0
662,110.83011864791666,111.04781517916666,60.0,108.0
663,111.16719714791665,111.77393844791666,48.0,78.0
664,111.50427564791666,111.82450022291667,53.0,94.0
665,111.50427564791666,111.82450022291667,57.0,111.0
666,111.50427564791666,111.82730921041666,60.0,105.0
667,111.84135414791666,111.87927547916667,60.0,87.0
668,111.84135414791666,112.01972485416667,57.0,114.0
669,111.84135414791666,112.02674732291666,53.0,102.0
670,111.84135414791666,112.38910671041666,41.0,100.0
671,112.17843264791667,112.39893816666665,60.0,97.0
672,112.17843264791667,112.42281456041667,53.0,80.0
673,112.17843264791667,112.43264601666667,57.0,97.0
674,112.85258964791666,113.00989294791665,57.0,102.0
675,112.85258964791666,113.01410642916666,53.0,94.0
676,112.51551114791667,113.03798282291666,48.0,87.0
677,112.85258964791666,113.04360079791667,60.0,102.0
678,113.18966814791666,113.42281411041665,59.0,94.0
679,113.18966814791666,113.42562309791666,55.0,80.0
680,113.18966814791666,113.79079147291667,43.0,102.0
681,113.52674664791667,114.00848800416667,62.0,105.0
682,113.52674664791667,114.02253294166667,59.0,105.0
683,113.52674664791667,114.03236439791667,55.0,100.0
684,114.20090364791666,114.35539796041667,59.0,97.0
685,114.20090364791666,114.35820694791666,55.0,82.0
686,113.86382514791666,114.35961144166666,50.0,87.0
687,114.20090364791666,114.36242042916666,62.0,92.0
688,114.53798214791667,114.80343146666667,55.0,80.0
689,114.53798214791667,114.80624045416667,59.0,94.0
690,114.53798214791667,115.18966724791666,43.0,100.0
691,114.87506064791665,115.33854358541666,59.0,97.0
692,114.87506064791665,115.34697054791667,62.0,89.0
693,114.87506064791665,115.35961099166666,55.0,89.0
694,115.54921764791666,115.67983556666667,59.0,66.0
695,115.54921764791666,115.68685803541666,55.0,69.0
696,115.54921764791666,115.71354341666665,62.0,78.0
697,115.21213914791666,115.71494791041667,50.0,94.0
698,115.88629614791665,116.11663312291665,60.0,84.0
699,115.88629614791665,116.12225109791666,57.0,78.0
700,116.22337464791666,116.36944199791665,60.0,100.0
701,115.88629614791665,116.37646446666666,45.0,94.0
702,116.22337464791666,116.37786896041666,57.0,89.0
703,116.22337464791666,116.39612737916666,64.0,100.0
704,116.89753164791667,117.05904842916667,57.0,94.0
705,116.89753164791667,117.06466640416666,60.0,102.0
706,116.89753164791667,117.07590235416666,64.0,100.0
707,116.56045314791666,117.08994729166666,52.0,80.0
708,117.23461014791667,117.48601452916665,57.0,80.0
709,117.23461014791667,117.50286845416666,60.0,84.0
710,117.23461014791667,117.76129530416665,45.0,92.0
711,117.57168864791666,117.79500315416666,57.0,108.0
712,117.57168864791666,117.79500315416666,60.0,111.0
713,117.57168864791666,117.80483461041666,64.0,102.0
714,117.90876714791666,118.47337363541666,52.0,100.0
715,118.24584564791667,118.50005901666665,60.0,105.0
716,118.24584564791667,118.50286800416666,64.0,100.0
717,118.24584564791667,118.52112642291667,57.0,102.0
718,118.92000264791666,119.09837335416665,60.0,100.0
719,118.92000264791666,119.10258683541666,55.0,97.0
720,118.92000264791666,119.10258683541666,64.0,102.0
721,118.58292414791666,119.24022722291666,48.0,97.0
722,119.25708114791667,119.75286744166667,43.0,105.0
723,119.59415964791665,119.75848541666666,55.0,102.0
724,119.59415964791665,119.76129440416666,60.0,102.0
725,119.59415964791665,119.77674383541665,64.0,102.0
726,119.93123814791666,120.19387847916667,55.0,92.0
727,119.93123814791666,120.19387847916667,60.0,97.0
728,119.93123814791666,120.63067603541666,48.0,97.0
729,120.26831664791666,120.71915914166667,64.0,108.0
730,120.26831664791666,120.74163104166666,60.0,108.0
731,120.26831664791666,120.75286699166666,55.0,102.0
732,120.94247364791667,121.05202416041666,60.0,100.0
733,120.94247364791667,121.06326011041666,64.0,94.0
734,120.94247364791667,121.09134998541666,55.0,102.0
735,120.60539514791665,121.12224884791667,43.0,102.0
736,121.27955214791666,121.53095652916666,62.0,94.0
737,121.27955214791666,121.53657450416665,57.0,97.0
738,121.27955214791666,121.97056307291666,50.0,100.0
739,121.61663064791665,122.13629333541667,65.0,108.0
740,121.61663064791665,122.14331580416666,62.0,111.0
741,121.61663064791665,122.14893377916667,57.0,105.0
742,122.29078764791666,122.42000107291666,65.0,108.0
743,122.29078764791666,122.42140556666666,62.0,97.0
744,122.29078764791666,122.44809094791665,57.0,97.0
745,121.95370914791667,122.49443924166667,45.0,105.0
746,122.62786614791666,122.89050647916666,57.0,66.0
747,122.62786614791666,122.89331546666666,62.0,94.0
748,122.62786614791666,122.90314692291666,66.0,99.0
749,122.62786614791666,123.26129282916666,50.0,92.0
750,122.96494464791667,123.49162980416666,62.0,105.0
751,122.96494464791667,123.50005676666666,57.0,102.0
752,122.96494464791667,123.50286575416666,66.0,99.0
753,123.30202314791666,123.75005665416666,50.0,89.0
754,123.63910164791666,123.82730381041665,62.0,111.0
755,123.63910164791666,123.83011279791666,57.0,114.0
756,123.63910164791666,123.85118020416667,66.0,112.0
757,123.97618014791666,124.20932611041667,59.0,94.0
758,123.97618014791666,124.21213509791666,55.0,80.0
759,123.97618014791666,124.57730347291667,43.0,102.0
760,124.31325864791665,124.79500000416667,62.0,105.0
761,124.31325864791665,124.80904494166666,59.0,105.0
762,124.31325864791665,124.81887639791665,55.0,100.0
763,124.98741564791666,125.14190996041665,59.0,97.0
764,124.98741564791666,125.14471894791666,55.0,82.0
765,124.65033714791666,125.14612344166666,50.0,87.0
766,124.98741564791666,125.14893242916666,62.0,92.0
767,125.32449414791665,126.46775206041666,43.0,105.0
768,125.32449414791665,126.59556099166666,55.0,84.0
769,125.32449414791665,126.59556099166666,59.0,92.0
770,125.32449414791665,126.59836997916666,62.0,97.0
771,126.67280814791667,127.11241469166666,48.0,111.0
772,127.00988664791666,127.17702140416665,60.0,108.0
773,127.00988664791666,127.22477419166665,64.0,105.0
774,127.00988664791666,127.23039216666666,55.0,102.0
775,127.34696514791666,127.78938067916667,41.0,100.0
776,127.68404364791667,127.89893119166666,57.0,100.0
777,127.68404364791667,127.90454916666667,53.0,94.0
778,127.68404364791667,127.91297612916665,60.0,100.0
779,128.02112214791666,128.61943648541666,48.0,102.0
780,128.35820064791665,128.71915554166665,55.0,100.0
781,128.35820064791665,128.72336902291667,60.0,105.0
782,128.35820064791665,128.75848136666667,64.0,102.0
783,128.69527914791666,129.14612164166667,43.0,84.0
784,129.03235764791665,129.15735759166665,60.0,102.0
785,129.03235764791665,129.20230139166665,55.0,102.0
786,129.03235764791665,129.23460474791665,64.0,105.0
787,129.36943614791664,129.80904269166666,48.0,108.0
788,129.70651464791666,129.87364940416666,60.0,108.0
789,129.70651464791666,129.91297522916665,55.0,97.0
790,129.70651464791666,129.96915497916666,64.0,102.0
791,130.04359314791665,130.55482887291666,41.0,100.0
792,130.38067164791667,130.57730077291666,57.0,102.0
793,130.38067164791667,130.59836817916667,53.0,97.0
794,130.38067164791667,130.61662659791665,60.0,97.0
795,130.71775014791666,131.22898587291667,43.0,102.0
796,131.05482864791665,131.35398581666666,62.0,100.0
797,131.05482864791665,131.36241277916668,59.0,102.0
798,131.05482864791665,131.49443519166667,55.0,94.0
799,131.39190714791667,131.86381704791665,50.0,94.0
800,131.72898564791666,131.88067097291668,59.0,102.0
801,131.72898564791666,131.88628894791665,62.0,100.0
802,131.72898564791666,131.90454736666666,67.0,84.0
803,131.72898564791666,131.90735635416667,55.0,89.0
804,132.06606414791668,132.68544589166666,48.0,108.0
805,132.40314264791667,132.86100761041666,60.0,97.0
806,132.40314264791667,132.86100761041666,64.0,94.0
807,132.40314264791667,132.88207501666665,55.0,89.0
808,132.74022114791666,133.24864788541666,43.0,92.0
809,133.07729964791667,133.24864788541666,60.0,105.0
810,133.07729964791667,133.26550181041665,55.0,97.0
811,133.07729964791667,133.26971529166667,64.0,100.0
812,133.75145664791665,134.29218674166665,59.0,105.0
813,133.75145664791665,134.30904066666665,62.0,105.0
814,133.75145664791665,134.31887212291667,55.0,89.0
815,134.08853514791667,134.56325403541666,50.0,87.0
816,133.41437814791666,134.56887201041667,43.0,105.0
817,134.42561364791666,134.59274840416666,59.0,94.0
818,134.42561364791666,134.64050119166666,62.0,92.0
819,134.42561364791666,134.65173714166667,55.0,94.0
820,134.76269214791665,135.44463780833334,48.0,102.0
821,135.10230835416667,135.55543323333333,55.0,84.0
822,135.10230835416667,135.5568536875,60.0,100.0
823,135.10230835416667,135.569637775,64.0,100.0
824,135.44321735416668,135.99719447916667,43.0,92.0
825,135.78412635416666,136.02418310833332,60.0,100.0
826,135.78412635416666,136.06253537083333,55.0,87.0
827,135.78412635416666,136.08384218333333,64.0,97.0
828,136.12503535416667,136.82958062083333,48.0,97.0
829,136.46594435416665,137.01992147916667,60.0,94.0
830,136.46594435416665,137.01992147916667,64.0,97.0
831,136.46594435416665,137.02844420416668,55.0,100.0
832,136.80685335416666,137.29975095,43.0,108.0
833,137.14776235416667,137.35656911666666,55.0,102.0
834,137.14776235416667,137.359410025,60.0,100.0
835,137.14776235416667,137.36793275,64.0,100.0
836,137.48867135416666,137.93327350833334,48.0,111.0
837,137.82958035416667,137.9986144,60.0,108.0
838,137.82958035416667,138.04690984166666,64.0,105.0
839,137.82958035416667,138.05259165833334,55.0,102.0
840,138.17048935416668,138.61793241666666,41.0,100.0
841,138.51139835416666,138.72872784166665,57.0,100.0
842,138.51139835416666,138.73440965833333,53.0,94.0
843,138.51139835416666,138.74293238333334,60.0,100.0
844,138.85230735416667,139.45742082916667,48.0,102.0
845,139.19321635416668,139.558273075,55.0,100.0
846,139.19321635416668,139.5625344375,60.0,105.0
847,139.19321635416668,139.59804579166666,64.0,102.0
848,139.53412535416666,139.99009114166665,43.0,84.0
849,139.87503435416667,140.00145477499998,60.0,102.0
850,139.87503435416667,140.04690930833334,55.0,102.0
851,139.87503435416667,140.07957975416667,64.0,105.0
852,140.21594335416665,140.66054550833334,48.0,108.0
853,140.55685235416667,140.7258864,60.0,108.0
854,140.55685235416667,140.76565911666665,55.0,97.0
855,140.55685235416667,140.82247728333334,64.0,102.0
856,140.89776135416668,141.41480667083334,41.0,100.0
857,141.23867035416666,141.4375339375,57.0,102.0
858,141.23867035416666,141.45884075,53.0,97.0
859,141.23867035416666,141.47730665416665,60.0,97.0
860,141.57895689791667,142.09019262291667,43.0,102.0
861,141.91603539791666,142.21519256666667,62.0,100.0
862,141.91603539791666,142.22361952916668,59.0,102.0
863,141.91603539791666,142.35564194166668,55.0,94.0
864,142.25311389791668,142.72502379791666,50.0,94.0
865,142.59019239791667,142.74187772291668,59.0,102.0
866,142.59019239791667,142.74749569791666,62.0,100.0
867,142.59019239791667,142.76575411666667,67.0,84.0
868,142.59019239791667,142.76856310416667,55.0,89.0
869,142.92727089791669,143.54665264166667,48.0,108.0
870,143.26434939791667,143.72221436041667,60.0,97.0
871,143.26434939791667,143.72221436041667,64.0,94.0
872,143.26434939791667,143.74328176666668,55.0,89.0
873,143.60142789791666,144.10985463541667,43.0,92.0
874,143.93850639791668,144.10985463541667,60.0,105.0
875,143.93850639791668,144.12670856041666,55.0,97.0
876,143.93850639791668,144.13092204166668,64.0,100.0
877,144.27558489791667,144.88232619791668,50.0,57.0
878,144.61266339791666,145.10283171666669,57.0,100.0
879,144.61266339791666,145.10283171666669,62.0,97.0
880,145.28682039791667,145.44974167291667,62.0,114.0
881,144.94974189791668,145.45957312916667,45.0,100.0
882,145.28682039791667,145.48906749791666,57.0,114.0
883,145.62389889791666,146.13794361041667,43.0,102.0
884,145.96097739791668,146.41884236041668,62.0,97.0
885,145.96097739791668,146.42867381666667,59.0,102.0
886,145.96097739791668,146.47361761666667,55.0,94.0
887,146.63513439791666,146.78962871041668,59.0,89.0
888,146.63513439791666,146.80507814166668,55.0,87.0
889,146.63513439791666,146.81771858541669,62.0,84.0
890,146.29805589791667,146.82052757291666,50.0,82.0
891,146.97221289791668,148.20114492916667,55.0,78.0
892,146.97221289791668,148.21097638541667,62.0,78.0
893,146.97221289791668,148.21378537291667,43.0,102.0
894,146.97221289791668,148.21940334791668,59.0,92.0
895,146.97221289791668,148.24327974166667,67.0,94.0
896,148.32052689791666,148.76013344166668,48.0,111.0
897,148.65760539791668,148.82474015416668,60.0,108.0
898,148.65760539791668,148.87249294166668,64.0,105.0
899,148.65760539791668,148.87811091666669,55.0,102.0
900,148.99468389791667,149.43709942916666,41.0,100.0
901,149.33176239791666,149.54664994166666,57.0,100.0
902,149.33176239791666,149.55226791666666,53.0,94.0
903,149.33176239791666,149.56069487916668,60.0,100.0
904,149.66884089791668,150.26715523541668,48.0,102.0
905,150.00591939791667,150.36687429166668,55.0,100.0
906,150.00591939791667,150.37108777291667,60.0,105.0
907,150.00591939791667,150.40620011666667,64.0,102.0
908,150.34299789791666,150.79384039166666,43.0,84.0
909,150.68007639791668,150.80507634166668,60.0,102.0
910,150.68007639791668,150.85002014166668,55.0,102.0
911,150.68007639791668,150.88232349791667,64.0,105.0
912,151.01715489791667,151.45676144166669,48.0,108.0
913,151.3542333979167,151.52136815416668,60.0,108.0
914,151.3542333979167,151.56069397916667,55.0,97.0
915,151.3542333979167,151.61687372916668,64.0,102.0
916,151.69131189791668,152.20254762291668,41.0,100.0
917,152.02839039791667,152.22501952291668,57.0,102.0
918,152.02839039791667,152.24608692916667,53.0,97.0
919,152.02839039791667,152.26434534791667,60.0,97.0
920,152.36546889791668,152.87670462291666,43.0,102.0
921,152.70254739791667,153.00170456666666,62.0,100.0
922,152.70254739791667,153.01013152916667,59.0,102.0
923,152.70254739791667,153.14215394166666,55.0,94.0
924,153.03962589791666,153.51153579791668,50.0,94.0
925,153.37670439791668,153.52838972291667,59.0,102.0
926,153.37670439791668,153.53400769791668,62.0,100.0
927,153.37670439791668,153.55226611666666,67.0,84.0
928,153.37670439791668,153.55507510416666,55.0,89.0
929,153.71378289791667,154.33316464166668,48.0,108.0
930,154.05086139791666,154.50872636041666,60.0,97.0
931,154.05086139791666,154.50872636041666,64.0,94.0
932,154.05086139791666,154.52979376666667,55.0,89.0
933,154.38793989791668,154.89636663541668,43.0,92.0
934,154.72501839791667,154.89636663541668,60.0,105.0
935,154.72501839791667,154.91322056041668,55.0,97.0
936,154.72501839791667,154.91743404166667,64.0,100.0
937,155.39917539791668,155.93990549166668,59.0,105.0
938,155.39917539791668,155.95675941666667,62.0,105.0
939,155.39917539791668,155.96659087291667,55.0,89.0
940,155.73625389791667,156.2109727854167,50.0,87.0
941,155.06209689791666,156.21659076041666,43.0,105.0
942,156.07333239791666,156.24046715416668,59.0,94.0
943,156.07333239791666,156.28821994166668,62.0,92.0
944,156.07333239791666,156.29945589166667,55.0,94.0
945,156.41041089791668,157.08597239166667,48.0,102.0
946,156.74748939791667,157.19552290416667,55.0,84.0
947,156.74748939791667,157.19692739791668,60.0,100.0
948,156.74748939791667,157.20956784166668,64.0,100.0
949,157.08456789791668,157.63232046041668,43.0,92.0
950,157.42164639791667,157.65900584166667,60.0,100.0
951,157.42164639791667,157.69692717291667,55.0,87.0
952,157.42164639791667,157.71799457916666,64.0,97.0
953,157.75872489791666,158.45535379791667,48.0,97.0
954,158.09580339791668,158.64355596041668,60.0,94.0
955,158.09580339791668,158.64355596041668,64.0,97.0
956,158.09580339791668,158.65198292291666,55.0,100.0
957,158.43288189791667,158.92024122916666,43.0,108.0
958,158.76996039791666,158.97642097916668,55.0,102.0
959,158.76996039791666,158.97922996666668,60.0,100.0
960,158.76996039791666,158.98765692916666,64.0,100.0
961,159.10703889791668,159.33737587291668,60.0,84.0
962,159.10703889791668,159.34299384791666,57.0,78.0
963,159.44411739791667,159.59018474791668,60.0,100.0
964,159.10703889791668,159.59720721666667,45.0,94.0
965,159.44411739791667,159.59861171041666,57.0,89.0
966,159.44411739791667,159.61687012916667,64.0,100.0
967,160.11827439791668,160.27979117916666,57.0,94.0
968,160.11827439791668,160.28540915416667,60.0,102.0
969,160.11827439791668,160.29664510416666,64.0,100.0
970,159.78119589791666,160.31069004166667,52.0,80.0
971,160.45535289791667,160.70675727916668,57.0,80.0
972,160.45535289791667,160.72361120416667,60.0,84.0
973,160.45535289791667,160.98203805416668,45.0,92.0
974,160.7924313979167,161.01574590416666,57.0,108.0
975,160.7924313979167,161.01574590416666,60.0,111.0
976,160.7924313979167,161.02557736041666,64.0,102.0
977,161.12950989791668,161.69411638541666,52.0,100.0
978,161.46658839791667,161.72080176666668,60.0,105.0
979,161.46658839791667,161.72361075416666,64.0,100.0
980,161.46658839791667,161.74186917291667,57.0,102.0
981,162.14074539791667,162.31911610416668,60.0,100.0
982,162.14074539791667,162.32332958541667,55.0,97.0
983,162.14074539791667,162.32332958541667,64.0,102.0
984,161.80366689791668,162.46096997291667,48.0,97.0
985,162.47782389791666,162.97361019166667,43.0,105.0
986,162.81490239791668,162.97922816666667,55.0,102.0
987,162.81490239791668,162.98203715416668,60.0,102.0
988,162.81490239791668,162.99748658541668,64.0,102.0
989,163.15198089791667,163.41462122916667,55.0,92.0
990,163.15198089791667,163.41462122916667,60.0,97.0
991,163.15198089791667,163.85141878541668,48.0,97.0
992,163.48905939791666,163.93990189166666,64.0,108.0
993,163.48905939791666,163.96237379166666,60.0,108.0
994,163.48905939791666,163.97360974166668,55.0,102.0
995,164.16321639791667,164.27276691041666,60.0,100.0
996,164.16321639791667,164.28400286041668,64.0,94.0
997,164.16321639791667,164.31209273541668,55.0,102.0
998,163.82613789791668,164.34299159791667,43.0,102.0
999,164.50029489791666,164.73905883541667,57.0,89.0
1000,164.50029489791666,164.75029478541666,53.0,76.0
1001,164.50029489791666,164.95815986041669,41.0,94.0
1002,164.83737339791668,165.04664296666667,57.0,108.0
1003,164.83737339791668,165.04945195416667,53.0,89.0
1004,164.83737339791668,165.05506992916668,60.0,108.0
1005,165.17445189791667,165.78119319791668,48.0,78.0
1006,165.51153039791666,165.83175497291666,53.0,94.0
1007,165.51153039791666,165.83175497291666,57.0,111.0
1008,165.51153039791666,165.8345639604167,60.0,105.0
1009,165.84860889791668,165.88653022916668,60.0,87.0
1010,165.84860889791668,166.02697960416668,57.0,114.0
1011,165.84860889791668,166.03400207291668,53.0,102.0
1012,165.84860889791668,166.39636146041667,41.0,100.0
1013,166.18568739791667,166.40619291666667,60.0,97.0
1014,166.18568739791667,166.43006931041668,53.0,80.0
1015,166.18568739791667,166.43990076666668,57.0,97.0
1016,166.85984439791667,167.01714769791667,57.0,102.0
1017,166.85984439791667,167.02136117916666,53.0,94.0
1018,166.52276589791666,167.04523757291668,48.0,87.0
1019,166.85984439791667,167.05085554791668,60.0,102.0
1020,167.19692289791666,167.43006886041667,59.0,94.0
1021,167.19692289791666,167.43287784791667,55.0,80.0
1022,167.19692289791666,167.79804622291667,43.0,102.0
1023,167.53400139791668,168.01574275416667,62.0,105.0
1024,167.53400139791668,168.02978769166668,59.0,105.0
1025,167.53400139791668,168.03961914791668,55.0,100.0
1026,168.20815839791666,168.36265271041668,59.0,97.0
1027,168.20815839791666,168.36546169791666,55.0,82.0
1028,167.87107989791667,168.36686619166667,50.0,87.0
1029,168.20815839791666,168.36967517916668,62.0,92.0
1030,168.54523689791668,168.81068621666668,55.0,80.0
1031,168.54523689791668,168.81349520416666,59.0,94.0
1032,168.54523689791668,169.19692199791666,43.0,100.0
1033,168.88231539791667,169.34579833541667,59.0,97.0
1034,168.88231539791667,169.35422529791668,62.0,89.0
1035,168.88231539791667,169.3668657416667,55.0,89.0
1036,169.55647239791668,169.68709031666668,59.0,66.0
1037,169.55647239791668,169.69411278541668,55.0,69.0
1038,169.55647239791668,169.72079816666667,62.0,78.0
1039,169.21939389791666,169.72220266041666,50.0,94.0
1040,169.89355089791667,170.12388787291667,60.0,84.0
1041,169.89355089791667,170.12950584791668,57.0,78.0
1042,170.2306293979167,170.37669674791667,60.0,100.0
1043,169.89355089791667,170.38371921666666,45.0,94.0
1044,170.2306293979167,170.38512371041668,57.0,89.0
1045,170.2306293979167,170.4033821291667,64.0,100.0
1046,170.90478639791667,171.06630317916668,57.0,94.0
1047,170.90478639791667,171.07192115416666,60.0,102.0
1048,170.90478639791667,171.08315710416667,64.0,100.0
1049,170.56770789791668,171.09720204166666,52.0,80.0
1050,171.24186489791668,171.49326927916667,57.0,80.0
1051,171.24186489791668,171.51012320416666,60.0,84.0
1052,171.24186489791668,171.76855005416667,45.0,92.0
1053,171.57894339791667,171.80225790416668,57.0,108.0
1054,171.57894339791667,171.80225790416668,60.0,111.0
1055,171.57894339791667,171.81208936041668,64.0,102.0
1056,171.91602189791666,172.48062838541668,52.0,100.0
1057,172.25310039791668,172.50731376666667,60.0,105.0
1058,172.25310039791668,172.51012275416667,64.0,100.0
1059,172.25310039791668,172.52838117291668,57.0,102.0
1060,172.92725739791666,173.10562810416667,60.0,100.0
1061,172.92725739791666,173.10984158541666,55.0,97.0
1062,172.92725739791666,173.10984158541666,64.0,102.0
1063,172.59017889791667,173.24748197291666,48.0,97.0
1064,173.26433589791668,173.76012219166668,43.0,105.0
1065,173.60141439791667,173.76574016666666,55.0,102.0
1066,173.60141439791667,173.76854915416666,60.0,102.0
1067,173.60141439791667,173.78399858541667,64.0,102.0
1068,173.93849289791666,174.20113322916666,55.0,92.0
1069,173.93849289791666,174.20113322916666,60.0,97.0
1070,173.93849289791666,174.63793078541667,48.0,97.0
1071,174.27557139791668,174.72641389166668,64.0,108.0
1072,174.27557139791668,174.74888579166668,60.0,108.0
1073,174.27557139791668,174.76012174166667,55.0,102.0
1074,174.94972839791666,175.05927891041668,60.0,100.0
1075,174.94972839791666,175.07051486041667,64.0,94.0
1076,174.94972839791666,175.09860473541667,55.0,102.0
1077,174.61264989791667,175.12950359791668,43.0,102.0
1078,175.28680689791668,175.53821127916666,62.0,94.0
1079,175.28680689791668,175.54382925416667,57.0,97.0
1080,175.28680689791668,175.97781782291668,50.0,100.0
1081,175.62388539791667,176.14354808541668,65.0,108.0
1082,175.62388539791667,176.15057055416668,62.0,111.0
1083,175.62388539791667,176.15618852916668,57.0,105.0
1084,176.29804239791667,176.42725582291666,65.0,108.0
1085,176.29804239791667,176.42866031666668,62.0,97.0
1086,176.29804239791667,176.45534569791667,57.0,97.0
1087,175.96096389791666,176.50169399166668,45.0,105.0
1088,176.63512089791666,176.89776122916666,57.0,66.0
1089,176.63512089791666,176.90057021666667,62.0,94.0
1090,176.63512089791666,176.91040167291666,66.0,99.0
1091,176.63512089791666,177.26854757916666,50.0,92.0
1092,176.97219939791665,177.49888455416666,62.0,105.0
1093,176.97219939791665,177.50731151666668,57.0,102.0
1094,176.97219939791665,177.51012050416668,66.0,99.0
1095,177.30927789791667,177.75731140416667,50.0,89.0
1096,177.64635639791666,177.83455856041667,62.0,111.0
1097,177.64635639791666,177.83736754791667,57.0,114.0
1098,177.64635639791666,177.85843495416668,66.0,112.0
1099,177.98343489791668,178.21658086041668,59.0,94.0
1100,177.98343489791668,178.21938984791666,55.0,80.0
1101,177.98343489791668,178.58455822291666,43.0,102.0
1102,178.32051339791667,178.80225475416665,62.0,105.0
1103,178.32051339791667,178.81629969166667,59.0,105.0
1104,178.32051339791667,178.82613114791667,55.0,100.0
1105,178.99467039791668,179.14916471041667,59.0,97.0
1106,178.99467039791668,179.15197369791667,55.0,82.0
1107,178.6575918979167,179.15337819166666,50.0,87.0
1108,178.99467039791668,179.15618717916666,62.0,92.0
1109,179.33174889791667,180.4750068104167,43.0,105.0
1110,179.33174889791667,180.6028157416667,55.0,84.0
1111,179.33174889791667,180.6028157416667,59.0,92.0
1112,179.33174889791667,180.60562472916666,62.0,97.0
1113,180.68006289791668,181.11966944166667,48.0,111.0
1114,181.01714139791667,181.18427615416667,60.0,108.0
1115,181.01714139791667,181.23202894166667,64.0,105.0
1116,181.01714139791667,181.23764691666668,55.0,102.0
1117,181.35421989791666,181.79663542916666,41.0,100.0
1118,181.69129839791668,181.90618594166668,57.0,100.0
1119,181.69129839791668,181.91180391666666,53.0,94.0
1120,181.69129839791668,181.92023087916667,60.0,100.0
1121,182.02837689791667,182.62669123541667,48.0,102.0
1122,182.36545539791666,182.72641029166667,55.0,100.0
1123,182.36545539791666,182.73062377291666,60.0,105.0
1124,182.36545539791666,182.7657361166667,64.0,102.0
1125,182.70253389791668,183.15337639166665,43.0,84.0
1126,183.03961239791667,183.16461234166667,60.0,102.0
1127,183.03961239791667,183.20955614166667,55.0,102.0
1128,183.03961239791667,183.24185949791666,64.0,105.0
1129,183.37669089791666,183.81629744166668,48.0,108.0
1130,183.71376939791668,183.88090415416667,60.0,108.0
1131,183.71376939791668,183.92022997916666,55.0,97.0
1132,183.71376939791668,183.97640972916668,64.0,102.0
1133,184.05084789791667,184.56208362291667,41.0,100.0
1134,184.38792639791666,184.58455552291667,57.0,102.0
1135,184.38792639791666,184.60562292916666,53.0,97.0
1136,184.38792639791666,184.62388134791667,60.0,97.0
1137,184.72500489791668,185.23624062291668,43.0,102.0
1138,185.06208339791667,185.36124056666668,62.0,100.0
1139,185.06208339791667,185.36966752916666,59.0,102.0
1140,185.06208339791667,185.50168994166665,55.0,94.0
1141,185.39916189791666,185.87107179791667,50.0,94.0
1142,185.73624039791667,185.88792572291666,59.0,102.0
1143,185.73624039791667,185.89354369791667,62.0,100.0
1144,185.73624039791667,185.91180211666668,67.0,84.0
1145,185.73624039791667,185.91461110416668,55.0,89.0
1146,186.07331889791666,186.69270064166668,48.0,108.0
1147,186.41039739791665,186.86826236041668,60.0,97.0
1148,186.41039739791665,186.86826236041668,64.0,94.0
1149,186.41039739791665,186.88932976666666,55.0,89.0
1150,186.74747589791667,187.25590263541667,43.0,92.0
1151,187.08455439791666,187.25590263541667,60.0,105.0
1152,187.08455439791666,187.27275656041667,55.0,97.0
1153,187.08455439791666,187.2769700416667,64.0,100.0
1154,187.75871139791667,188.29944149166667,59.0,105.0
1155,187.75871139791667,188.31629541666666,62.0,105.0
1156,187.75871139791667,188.3261268729167,55.0,89.0
1157,188.0957898979167,188.57050878541668,50.0,87.0
1158,187.42163289791668,188.57612676041668,43.0,105.0
1159,188.43286839791668,188.60000315416667,59.0,94.0
1160,188.43286839791668,188.64775594166667,62.0,92.0
1161,188.43286839791668,188.6589918916667,55.0,94.0
1162,188.76994689791667,189.44550839166666,48.0,102.0
1163,189.1070253979167,189.55505890416669,55.0,84.0
1164,189.1070253979167,189.55646339791667,60.0,100.0
1165,189.1070253979167,189.56910384166667,64.0,100.0
1166,189.44410389791668,189.99185646041667,43.0,92.0
1167,189.78118239791667,190.01854184166666,60.0,100.0
1168,189.78118239791667,190.05646317291666,55.0,87.0
1169,189.78118239791667,190.07753057916668,64.0,97.0
1170,190.11826089791668,190.81488979791666,48.0,97.0
1171,190.45533939791667,191.00309196041667,60.0,94.0
1172,190.45533939791667,191.00309196041667,64.0,97.0
1173,190.45533939791667,191.01151892291668,55.0,100.0
1174,190.79241789791666,191.27977722916665,43.0,108.0
1175,191.12949639791668,191.33595697916667,55.0,102.0
1176,191.12949639791668,191.33876596666667,60.0,100.0
1177,191.12949639791668,191.34719292916668,64.0,100.0
1178,191.46657489791667,191.96236119166667,41.0,105.0
1179,191.80365339791666,191.97781062291668,60.0,102.0
1180,191.80365339791666,191.99185556041667,57.0,97.0
1181,191.80365339791666,191.99185556041667,65.0,92.0
1182,192.14073189791668,192.73623724791668,48.0,97.0
1183,192.47781039791667,192.80084396041667,60.0,102.0
1184,192.47781039791667,192.8247203541667,65.0,94.0
1185,192.47781039791667,192.84297877291667,57.0,100.0
1186,193.15196739791668,193.27134936666667,60.0,102.0
1187,193.15196739791668,193.29241677291668,57.0,100.0
1188,192.81488889791666,193.30786620416666,41.0,87.0
1189,193.15196739791668,193.30927069791667,65.0,100.0
1190,193.48904589791667,193.98483219166667,48.0,92.0
1191,193.82612439791666,194.05646137291666,60.0,97.0
1192,193.82612439791666,194.08033776666667,57.0,97.0
1193,193.82612439791666,194.1365175166667,65.0,100.0
1194,194.16320289791668,194.75449476666668,48.0,105.0
1195,194.50028139791667,194.78679812291668,60.0,92.0
1196,194.50028139791667,194.79241609791666,64.0,97.0
1197,194.50028139791667,194.79943856666668,55.0,97.0
1198,194.83735989791666,195.28539340416665,43.0,97.0
1199,195.17443839791667,195.31488777291668,60.0,94.0
1200,195.17443839791667,195.32331473541666,55.0,92.0
1201,195.17443839791667,195.33595517916666,64.0,92.0
1202,195.51151689791666,196.16601098541668,48.0,92.0
1203,195.84859539791665,196.28258396666666,64.0,94.0
1204,195.84859539791665,196.30224687916666,60.0,97.0
1205,195.84859539791665,196.30926934791665,55.0,97.0
1206,196.18567389791667,196.66460626666668,43.0,97.0
1207,196.52275239791666,196.72499949791666,60.0,102.0
1208,196.52275239791666,196.74887589166667,64.0,94.0
1209,196.52275239791666,196.76151633541667,55.0,100.0
1210,196.85983089791668,197.29381946666666,43.0,97.0
1211,197.19690939791667,197.53679688541666,59.0,89.0
1212,197.19690939791667,197.54101036666668,62.0,94.0
1213,197.19690939791667,197.60280809166667,55.0,80.0
1214,197.5339878979167,197.96797646666667,50.0,97.0
1215,197.87106639791668,198.05365058541668,59.0,94.0
1216,197.87106639791668,198.05926856041668,62.0,92.0
1217,197.87106639791668,198.06207754791666,55.0,89.0
1218,198.5452233979167,198.98482994166667,59.0,100.0
1219,198.5452233979167,198.99606589166666,62.0,97.0
1220,198.20814489791667,198.99747038541668,43.0,97.0
1221,198.5452233979167,199.01151532291667,55.0,92.0
1222,198.88230189791668,199.30926799791666,50.0,80.0
1223,199.21938039791667,199.43145895416666,59.0,102.0
1224,199.21938039791667,199.47640275416666,55.0,100.0
1225,199.21938039791667,199.48482971666667,62.0,97.0
1226,199.55645889791668,200.16881817291667,48.0,92.0
1227,199.89353739791667,200.36825628541666,60.0,102.0
1228,199.89353739791667,200.36825628541666,64.0,100.0
1229,199.89353739791667,200.38651470416667,55.0,102.0
1230,200.56769439791668,200.73482915416668,60.0,94.0
1231,200.56769439791668,200.74606510416666,64.0,92.0
1232,200.56769439791668,200.75589656041666,55.0,92.0
1233,200.23061589791666,200.76291902916665,43.0,100.0
1234,200.90477289791667,201.41039064791667,48.0,102.0
1235,200.90477289791667,201.41039064791667,64.0,97.0
1236,200.90477289791667,201.41319963541667,60.0,97.0
1237,200.90477289791667,201.44550299166667,55.0,97.0
1238,201.57892989791668,201.94831175416667,76.0,92.0
1239,201.57892989791668,201.95533422291666,72.0,89.0
1240,201.57892989791668,201.95814321041667,60.0,102.0
1241,201.57892989791668,201.97078365416667,84.0,97.0
1242,201.57892989791668,202.08454764791668,36.0,102.0
