,start,end,pitch,velocity
0,22.3359375,22.787109375,54.0,79.0
1,22.6484375,23.56640625,73.0,102.0
2,23.2734375,23.734375,69.0,75.0
3,22.0234375,24.841796875,49.0,77.0
4,22.9609375,24.87890625,54.0,80.0
5,21.7109375,24.89453125,42.0,87.0
6,25.1484375,25.4453125,37.0,85.0
7,24.8359375,25.529296875,61.0,68.0
8,23.5859375,25.802734375,66.0,84.0
9,26.3984375,27.4453125,73.0,98.0
10,26.7109375,27.912109375,54.0,78.0
11,27.0234375,28.08203125,69.0,81.0
12,27.3359375,28.369140625,66.0,84.0
13,25.4609375,28.732421875,42.0,83.0
14,26.0859375,28.822265625,49.0,75.0
15,28.2734375,28.91796875,54.0,80.0
16,28.5859375,29.259765625,61.0,83.0
17,28.8984375,29.587890625,73.0,86.0
18,28.8984375,29.630859375,69.0,69.0
19,30.1484375,30.58984375,61.0,88.0
20,30.4609375,31.00390625,62.0,86.0
21,30.7734375,31.07421875,66.0,83.0
22,29.8359375,31.591796875,59.0,82.0
23,32.0234375,32.376953125,59.0,75.0
24,31.0859375,32.529296875,71.0,88.0
25,29.2109375,32.587890625,47.0,78.0
26,29.5234375,32.62109375,54.0,74.0
27,32.3359375,32.625,61.0,71.0
28,32.6484375,33.81640625,71.0,78.0
29,33.5859375,33.94140625,61.0,79.0
30,33.8984375,34.169921875,68.0,88.0
31,34.2109375,34.4765625,61.0,77.0
32,33.8984375,34.49609375,66.0,87.0
33,34.5234375,34.900390625,68.0,83.0
34,33.2734375,36.05078125,56.0,75.0
35,32.9609375,36.30078125,49.0,86.0
36,34.8359375,36.66796875,64.0,85.0
37,37.3359375,37.693359375,54.0,82.0
38,37.6484375,38.2421875,61.0,116.0
39,38.5859375,39.208984375,57.0,98.0
40,37.9609375,39.21875,54.0,81.0
41,37.0234375,39.265625,49.0,81.0
42,39.2109375,39.64453125,56.0,86.0
43,39.5234375,39.849609375,49.0,87.0
44,36.7109375,39.966796875,42.0,88.0
45,39.8359375,40.330078125,56.0,83.0
46,40.1484375,40.494140625,37.0,88.0
47,41.0859375,41.5,59.0,86.0
48,41.3984375,41.880859375,71.0,88.0
49,41.7109375,42.603515625,59.0,79.0
50,42.0234375,43.248046875,66.0,86.0
51,42.3359375,43.4609375,63.0,87.0
52,43.2734375,43.728515625,59.0,78.0
53,40.7734375,43.826171875,54.0,76.0
54,40.4609375,43.873046875,47.0,91.0
55,43.5859375,43.958984375,63.0,81.0
56,44.8359375,45.244140625,61.0,82.0
57,45.4609375,45.71875,61.0,82.0
58,45.1484375,45.794921875,66.0,107.0
59,44.5234375,46.73046875,56.0,77.0
60,45.7734375,46.9453125,68.0,83.0
61,46.0859375,47.189453125,65.0,85.0
62,47.0234375,47.630859375,56.0,80.0
63,44.2109375,47.6484375,49.0,88.0
64,46.7109375,47.935546875,61.0,73.0
65,47.6484375,47.9453125,68.0,84.0
66,47.3359375,47.98046875,65.0,86.0
67,48.5859375,48.982421875,54.0,81.0
68,48.8984375,49.71875,61.0,107.0
69,49.5234375,49.853515625,56.0,83.0
70,49.2109375,49.912109375,54.0,81.0
71,49.8359375,50.21484375,57.0,86.0
72,50.4609375,50.826171875,61.0,79.0
73,50.1484375,50.84375,54.0,77.0
74,48.2734375,51.380859375,49.0,76.0
75,47.9609375,51.384765625,42.0,86.0
76,51.0859375,51.46875,54.0,81.0
77,50.7734375,51.470703125,68.0,107.0
78,51.3984375,51.87109375,66.0,84.0
79,52.3359375,52.724609375,50.0,85.0
80,52.6484375,53.39453125,62.0,114.0
81,53.2734375,53.654296875,57.0,77.0
82,52.0234375,54.25390625,45.0,88.0
83,52.9609375,54.333984375,50.0,85.0
84,53.5859375,54.908203125,54.0,86.0
85,51.7109375,55.056640625,38.0,94.0
86,54.5234375,55.146484375,45.0,86.0
87,54.8359375,55.3359375,50.0,86.0
88,54.2109375,55.517578125,62.0,88.0
89,55.1484375,55.556640625,54.0,81.0
90,56.0859375,56.47265625,54.0,84.0
91,56.3984375,57.056640625,56.0,102.0
92,56.3984375,57.189453125,61.0,108.0
93,57.0234375,57.21875,57.0,85.0
94,56.7109375,57.37109375,54.0,81.0
95,57.3359375,57.837890625,57.0,88.0
96,57.3359375,58.189453125,66.0,114.0
97,57.9609375,58.330078125,54.0,81.0
98,55.4609375,58.81640625,42.0,89.0
99,55.7734375,58.84375,49.0,80.0
100,58.2734375,58.916015625,61.0,113.0
101,58.5859375,59.037109375,54.0,86.0
102,58.8984375,59.4375,66.0,88.0
103,59.8359375,60.240234375,50.0,84.0
104,60.1484375,60.86328125,62.0,113.0
105,60.7734375,61.09765625,57.0,81.0
106,60.4609375,61.177734375,50.0,83.0
107,61.3984375,62.05859375,50.0,82.0
108,62.0234375,62.419921875,62.0,94.0
109,61.0859375,62.42578125,54.0,91.0
110,59.2109375,62.642578125,38.0,96.0
111,59.5234375,62.69921875,45.0,82.0
112,62.3359375,62.787109375,50.0,81.0
113,62.6484375,62.994140625,54.0,84.0
114,61.7109375,63.025390625,57.0,78.0
115,63.5859375,63.943359375,61.0,86.0
116,64.2109375,64.48828125,61.0,84.0
117,63.8984375,64.537109375,66.0,113.0
118,63.2734375,64.8671875,56.0,78.0
119,64.5234375,65.283203125,68.0,82.0
120,64.8359375,65.408203125,64.0,93.0
121,65.1484375,65.76171875,56.0,74.0
122,66.0859375,66.3046875,56.0,84.0
123,62.9609375,66.361328125,49.0,92.0
124,65.4609375,66.59375,59.0,86.0
125,66.3984375,66.73828125,61.0,85.0
126,65.7734375,66.779296875,64.0,116.0
127,67.3359375,67.7890625,59.0,88.0
128,67.6484375,68.25390625,66.0,110.0
129,67.9609375,68.626953125,59.0,86.0
130,68.5859375,69.30078125,71.0,110.0
131,68.2734375,69.32421875,63.0,86.0
132,69.2109375,69.53515625,66.0,90.0
133,69.5234375,69.7734375,59.0,96.0
134,67.0234375,69.935546875,54.0,81.0
135,66.7109375,70.099609375,47.0,96.0
136,69.8359375,70.181640625,61.0,83.0
137,70.1484375,70.62890625,63.0,95.0
138,70.7734375,71.46875,49.0,79.0
139,71.3984375,72.0390625,64.0,88.0
140,71.0859375,72.04296875,56.0,77.0
141,72.3359375,72.896484375,64.0,79.0
142,72.3359375,72.93359375,56.0,89.0
143,72.0234375,72.94140625,61.0,87.0
144,71.7109375,72.982421875,49.0,82.0
145,72.9609375,73.380859375,64.0,81.0
146,72.9609375,73.384765625,56.0,83.0
147,72.9609375,73.38671875,61.0,84.0
148,70.4609375,73.865234375,37.0,91.0
149,73.5859375,73.912109375,56.0,91.0
150,73.2734375,74.17578125,49.0,104.0
151,73.8984375,74.376953125,64.0,96.0
152,74.5234375,75.27734375,47.0,85.0
153,75.1484375,75.77734375,63.0,113.0
154,74.8359375,75.84375,54.0,76.0
155,75.7734375,76.0859375,59.0,85.0
156,75.4609375,76.7109375,47.0,77.0
157,76.0859375,77.158203125,63.0,86.0
158,76.0859375,77.171875,54.0,88.0
159,76.7109375,77.171875,59.0,78.0
160,74.2109375,77.40234375,35.0,90.0
161,77.0234375,77.56640625,47.0,91.0
162,77.3359375,77.9375,54.0,88.0
163,77.6484375,78.38671875,63.0,90.0
164,78.5859375,78.931640625,54.0,81.0
165,78.8984375,79.525390625,66.0,93.0
166,78.8984375,79.5390625,57.0,87.0
167,78.8984375,79.55859375,61.0,94.0
168,79.5234375,79.947265625,54.0,74.0
169,79.8359375,80.4765625,66.0,88.0
170,79.8359375,80.51953125,61.0,89.0
171,79.8359375,80.5234375,57.0,88.0
172,80.4609375,80.787109375,54.0,84.0
173,81.0859375,81.2734375,54.0,86.0
174,80.7734375,81.30859375,57.0,100.0
175,78.2734375,81.33203125,49.0,77.0
176,80.7734375,81.33203125,66.0,107.0
177,77.9609375,81.396484375,42.0,96.0
178,81.3984375,81.765625,61.0,100.0
179,81.3984375,81.765625,66.0,83.0
180,81.3984375,81.787109375,57.0,85.0
181,82.3359375,82.759765625,59.0,84.0
182,82.6484375,83.2265625,71.0,107.0
183,82.6484375,83.255859375,66.0,110.0
184,83.2734375,83.505859375,62.0,82.0
185,82.9609375,83.59375,59.0,82.0
186,83.5859375,84.271484375,71.0,108.0
187,83.5859375,84.30859375,66.0,113.0
188,84.2109375,84.54296875,59.0,82.0
189,84.8359375,84.939453125,59.0,91.0
190,82.0234375,85.125,54.0,78.0
191,81.7109375,85.193359375,47.0,96.0
192,85.1484375,85.552734375,66.0,107.0
193,84.5234375,85.580078125,62.0,104.0
194,84.5234375,85.580078125,71.0,100.0
195,86.0859375,86.49609375,54.0,87.0
196,86.3984375,86.931640625,66.0,108.0
197,86.3984375,86.9609375,57.0,104.0
198,86.7109375,87.029296875,54.0,86.0
199,85.7734375,87.09765625,49.0,80.0
200,85.4609375,87.150390625,42.0,92.0
201,87.0234375,87.3828125,61.0,91.0
202,87.0234375,87.39453125,57.0,81.0
203,87.0234375,87.396484375,66.0,86.0
204,87.9609375,88.197265625,61.0,82.0
205,87.6484375,88.333984375,56.0,83.0
206,88.5859375,88.82421875,56.0,80.0
207,87.3359375,88.841796875,49.0,88.0
208,88.2734375,88.84765625,64.0,114.0
209,88.2734375,89.220703125,68.0,107.0
210,88.8984375,89.427734375,61.0,87.0
211,90.1484375,90.548828125,57.0,100.0
212,89.5234375,90.791015625,49.0,82.0
213,89.2109375,90.806640625,42.0,89.0
214,89.8359375,90.830078125,54.0,91.0
215,90.4609375,91.142578125,61.0,88.0
216,90.7734375,91.23046875,66.0,91.0
217,91.7109375,92.123046875,52.0,86.0
218,92.0234375,92.564453125,64.0,96.0
219,92.0234375,92.640625,59.0,108.0
220,92.6484375,92.984375,56.0,81.0
221,92.3359375,93.03125,52.0,79.0
222,92.9609375,93.60546875,64.0,100.0
223,92.9609375,93.630859375,59.0,113.0
224,93.5859375,93.931640625,52.0,81.0
225,93.8984375,94.431640625,56.0,100.0
226,91.0859375,94.5546875,40.0,102.0
227,94.2109375,94.705078125,52.0,86.0
228,94.5234375,94.8125,56.0,80.0
229,91.3984375,94.8203125,47.0,84.0
230,93.8984375,94.861328125,64.0,104.0
231,94.5234375,94.8984375,59.0,92.0
232,95.4609375,95.8359375,54.0,94.0
233,95.7734375,96.265625,61.0,116.0
234,95.7734375,96.279296875,66.0,113.0
235,94.8359375,96.49609375,42.0,89.0
236,96.0859375,96.525390625,54.0,91.0
237,95.1484375,96.720703125,49.0,87.0
238,96.3984375,96.7734375,57.0,86.0
239,96.7109375,96.8671875,61.0,32.0
240,97.3359375,97.70703125,54.0,96.0
241,97.9609375,98.1796875,54.0,92.0
242,97.6484375,98.1796875,56.0,107.0
243,97.0234375,98.23046875,49.0,86.0
244,96.7109375,98.291015625,42.0,98.0
245,96.7109375,98.578125,66.0,108.0
246,98.2734375,98.626953125,57.0,107.0
247,99.2109375,99.59765625,50.0,87.0
248,99.5234375,100.005859375,62.0,107.0
249,99.5234375,100.19140625,57.0,100.0
250,98.5859375,100.2109375,38.0,94.0
251,98.8984375,100.46875,45.0,81.0
252,99.8359375,100.470703125,50.0,84.0
253,100.1484375,100.509765625,54.0,90.0
254,100.4609375,101.099609375,62.0,104.0
255,100.4609375,101.19140625,57.0,116.0
256,101.0859375,101.4609375,50.0,87.0
257,101.3984375,101.775390625,62.0,107.0
258,101.3984375,101.91015625,57.0,116.0
259,100.4609375,102.052734375,38.0,87.0
260,100.7734375,102.083984375,45.0,81.0
261,101.7109375,102.099609375,50.0,86.0
262,102.0234375,102.314453125,54.0,93.0
263,102.0234375,102.384765625,57.0,91.0
264,102.0234375,102.390625,62.0,91.0
265,102.9609375,103.345703125,59.0,81.0
266,102.6484375,103.439453125,54.0,83.0
267,103.2734375,103.806640625,66.0,102.0
268,103.2734375,103.91015625,62.0,114.0
269,102.3359375,104.021484375,47.0,96.0
270,103.5859375,104.23046875,54.0,86.0
271,103.8984375,104.6640625,59.0,86.0
272,104.8359375,105.193359375,59.0,91.0
273,104.5234375,105.220703125,54.0,87.0
274,105.1484375,105.650390625,66.0,110.0
275,105.1484375,105.65625,62.0,116.0
276,105.4609375,105.734375,54.0,87.0
277,104.2109375,105.78515625,47.0,91.0
278,105.7734375,106.142578125,62.0,91.0
279,105.7734375,106.146484375,59.0,93.0
280,105.7734375,106.146484375,66.0,87.0
281,106.7109375,107.396484375,52.0,85.0
282,106.0859375,107.416015625,40.0,93.0
283,106.3984375,107.453125,47.0,86.0
284,107.0234375,107.810546875,56.0,89.0
285,107.3359375,107.978515625,59.0,96.0
286,107.6484375,108.056640625,64.0,94.0
287,108.5859375,108.95703125,61.0,88.0
288,108.2734375,109.009765625,56.0,82.0
289,109.2109375,109.416015625,56.0,83.0
290,107.9609375,109.482421875,49.0,93.0
291,108.8984375,109.87109375,68.0,113.0
292,109.5234375,109.88671875,64.0,102.0
293,109.8359375,111.099609375,40.0,93.0
294,110.1484375,111.146484375,47.0,83.0
295,110.4609375,111.216796875,52.0,86.0
296,110.7734375,111.43359375,56.0,98.0
297,111.0859375,111.576171875,59.0,96.0
298,111.7109375,112.1953125,61.0,102.0
299,111.3984375,112.310546875,64.0,91.0
300,112.3359375,113.0390625,56.0,85.0
301,111.7109375,113.11328125,49.0,89.0
302,112.6484375,113.1953125,61.0,108.0
303,112.9609375,113.517578125,64.0,96.0
304,113.2734375,113.599609375,69.0,86.0
305,113.5859375,114.154296875,66.0,102.0
306,113.5859375,114.47265625,61.0,87.0
307,114.2109375,114.650390625,54.0,83.0
308,114.5234375,115.08203125,66.0,100.0
309,114.8359375,115.177734375,54.0,80.0
310,113.5859375,115.2265625,42.0,83.0
311,115.1484375,115.23046875,66.0,75.0
312,114.5234375,115.3046875,57.0,96.0
313,115.1484375,115.421875,61.0,87.0
314,113.8984375,115.51171875,49.0,81.0
315,115.4609375,116.134765625,66.0,107.0
316,115.4609375,116.18359375,57.0,96.0
317,116.0859375,116.4375,54.0,83.0
318,115.4609375,117.015625,42.0,86.0
319,115.7734375,117.033203125,49.0,83.0
320,116.3984375,117.09375,57.0,116.0
321,116.3984375,117.224609375,66.0,104.0
322,117.0234375,117.296875,61.0,98.0
323,116.7109375,117.3125,54.0,88.0
324,117.3359375,117.3671875,62.0,88.0
325,117.3359375,117.64453125,59.0,89.0
326,117.3359375,117.94140625,66.0,93.0
327,117.9609375,118.302734375,59.0,88.0
328,118.2734375,118.564453125,71.0,113.0
329,118.5859375,118.775390625,59.0,86.0
330,118.8984375,119.0546875,59.0,84.0
331,117.3359375,119.072265625,47.0,89.0
332,118.2734375,119.166015625,62.0,108.0
333,117.6484375,119.189453125,54.0,78.0
334,119.5234375,119.634765625,54.0,82.0
335,119.2109375,119.87890625,66.0,108.0
336,119.2109375,119.94140625,59.0,107.0
337,119.8359375,120.205078125,54.0,87.0
338,120.1484375,120.7109375,66.0,113.0
339,120.1484375,120.712890625,59.0,116.0
340,119.2109375,120.798828125,47.0,88.0
341,120.4609375,120.826171875,54.0,86.0
342,120.7734375,120.921875,59.0,81.0
343,120.7734375,121.11328125,66.0,87.0
344,120.7734375,121.140625,62.0,98.0
345,121.0859375,122.298828125,40.0,102.0
346,121.3984375,122.36328125,47.0,84.0
347,121.7109375,122.37109375,52.0,87.0
348,122.0234375,122.48828125,56.0,107.0
349,122.3359375,122.896484375,59.0,110.0
350,122.6484375,123.568359375,64.0,93.0
351,122.9609375,123.59765625,56.0,98.0
352,122.9609375,123.654296875,61.0,94.0
353,123.5859375,123.9609375,49.0,87.0
354,123.8984375,123.98046875,56.0,116.0
355,122.9609375,124.478515625,37.0,89.0
356,123.8984375,124.58984375,64.0,107.0
357,124.5234375,124.80859375,61.0,100.0
358,124.2109375,124.826171875,49.0,88.0
359,124.8359375,125.4921875,64.0,91.0
360,124.8359375,125.52734375,56.0,88.0
361,124.8359375,125.5625,59.0,94.0
362,125.4609375,125.8125,52.0,85.0
363,125.7734375,126.31640625,56.0,110.0
364,124.8359375,126.3984375,40.0,87.0
365,126.0859375,126.439453125,52.0,89.0
366,125.1484375,126.458984375,47.0,81.0
367,125.7734375,126.74609375,64.0,108.0
368,126.3984375,126.865234375,59.0,91.0
369,127.3359375,127.712890625,54.0,88.0
370,127.6484375,127.9921875,56.0,107.0
371,127.9609375,128.041015625,57.0,87.0
372,128.2734375,128.48046875,61.0,86.0
373,127.9609375,128.861328125,54.0,89.0
374,127.0234375,129.6640625,49.0,80.0
375,126.7109375,129.68359375,42.0,88.0
376,128.5859375,129.728515625,61.0,96.0
377,128.5859375,129.765625,69.0,100.0
378,131.0859375,131.4921875,57.0,82.0
379,131.3984375,132.275390625,61.0,98.0
380,131.7109375,132.642578125,57.0,85.0
381,130.7734375,132.693359375,54.0,71.0
382,132.0234375,132.693359375,54.0,77.0
383,132.3359375,133.3515625,61.0,83.0
384,132.9609375,133.630859375,54.0,75.0
385,130.4609375,133.759765625,42.0,87.0
386,134.8359375,135.25390625,57.0,83.0
387,135.1484375,135.89453125,61.0,113.0
388,135.7734375,136.12890625,53.0,84.0
389,135.4609375,136.6640625,57.0,73.0
390,136.0859375,137.107421875,61.0,91.0
391,134.2109375,137.521484375,41.0,84.0
392,137.9609375,138.87109375,64.0,92.0
393,138.5859375,138.966796875,52.0,78.0
394,138.8984375,139.54296875,61.0,90.0
395,139.2109375,139.544921875,57.0,73.0
396,139.5234375,140.1796875,54.0,76.0
397,137.9609375,141.146484375,40.0,87.0
398,139.8359375,141.39453125,52.0,100.0
399,138.2734375,141.6875,47.0,66.0
400,141.7109375,142.501953125,63.0,103.0
401,142.3359375,142.697265625,54.0,76.0
402,142.6484375,143.26953125,59.0,106.0
403,143.2734375,143.6015625,54.0,90.0
404,142.9609375,143.646484375,57.0,78.0
405,143.5859375,144.54296875,59.0,88.0
406,142.0234375,144.814453125,47.0,73.0
407,141.7109375,144.953125,39.0,84.0
408,146.0859375,146.455078125,49.0,78.0
409,146.3984375,147.017578125,54.0,87.0
410,147.0234375,147.34765625,56.0,72.0
411,146.7109375,148.435546875,49.0,75.0
412,145.4609375,148.48828125,37.0,88.0
413,145.7734375,148.5,44.0,75.0
414,147.3359375,148.9453125,53.0,84.0
415,147.3359375,149.001953125,61.0,88.0
416,149.8359375,150.224609375,50.0,85.0
417,150.1484375,150.89453125,62.0,114.0
418,150.7734375,151.154296875,57.0,77.0
419,149.5234375,151.75390625,45.0,88.0
420,150.4609375,151.833984375,50.0,85.0
421,151.0859375,152.408203125,54.0,86.0
422,149.2109375,152.556640625,38.0,94.0
423,152.0234375,152.646484375,45.0,86.0
424,152.3359375,152.8359375,50.0,86.0
425,151.7109375,153.017578125,62.0,88.0
426,152.6484375,153.056640625,54.0,81.0
427,153.5859375,153.97265625,54.0,84.0
428,153.8984375,154.556640625,56.0,102.0
429,153.8984375,154.689453125,61.0,108.0
430,154.5234375,154.71875,57.0,85.0
431,154.2109375,154.87109375,54.0,81.0
432,154.8359375,155.337890625,57.0,88.0
433,154.8359375,155.689453125,66.0,114.0
434,155.4609375,155.830078125,54.0,81.0
435,152.9609375,156.31640625,42.0,89.0
436,153.2734375,156.34375,49.0,80.0
437,155.7734375,156.416015625,61.0,113.0
438,156.0859375,156.537109375,54.0,86.0
439,156.3984375,156.9375,66.0,88.0
440,157.3359375,157.740234375,50.0,84.0
441,157.6484375,158.36328125,62.0,113.0
442,158.2734375,158.59765625,57.0,81.0
443,157.9609375,158.677734375,50.0,83.0
444,158.8984375,159.55859375,50.0,82.0
445,159.5234375,159.919921875,62.0,94.0
446,158.5859375,159.92578125,54.0,91.0
447,156.7109375,160.142578125,38.0,96.0
448,157.0234375,160.19921875,45.0,82.0
449,159.8359375,160.287109375,50.0,81.0
450,160.1484375,160.494140625,54.0,84.0
451,159.2109375,160.525390625,57.0,78.0
452,161.0859375,161.443359375,61.0,86.0
453,161.7109375,161.98828125,61.0,84.0
454,161.3984375,162.037109375,66.0,113.0
455,160.7734375,162.3671875,56.0,78.0
456,162.0234375,162.783203125,68.0,82.0
457,162.3359375,162.908203125,64.0,93.0
458,162.6484375,163.26171875,56.0,74.0
459,163.5859375,163.8046875,56.0,84.0
460,160.4609375,163.861328125,49.0,92.0
461,162.9609375,164.09375,59.0,86.0
462,163.8984375,164.23828125,61.0,85.0
463,163.2734375,164.279296875,64.0,116.0
464,164.8359375,165.2890625,59.0,88.0
465,165.1484375,165.75390625,66.0,110.0
466,165.4609375,166.126953125,59.0,86.0
467,166.0859375,166.80078125,71.0,110.0
468,165.7734375,166.82421875,63.0,86.0
469,166.7109375,167.03515625,66.0,90.0
470,167.0234375,167.2734375,59.0,96.0
471,164.5234375,167.435546875,54.0,81.0
472,164.2109375,167.599609375,47.0,96.0
473,167.3359375,167.681640625,61.0,83.0
474,167.6484375,168.12890625,63.0,95.0
475,168.2734375,168.96875,49.0,79.0
476,168.8984375,169.5390625,64.0,88.0
477,168.5859375,169.54296875,56.0,77.0
478,169.8359375,170.396484375,64.0,79.0
479,169.8359375,170.43359375,56.0,89.0
480,169.5234375,170.44140625,61.0,87.0
481,169.2109375,170.482421875,49.0,82.0
482,170.4609375,170.880859375,64.0,81.0
483,170.4609375,170.884765625,56.0,83.0
484,170.4609375,170.88671875,61.0,84.0
485,167.9609375,171.365234375,37.0,91.0
486,171.0859375,171.412109375,56.0,91.0
487,170.7734375,171.67578125,49.0,104.0
488,171.3984375,171.876953125,64.0,96.0
489,172.0234375,172.77734375,47.0,85.0
490,172.6484375,173.27734375,63.0,113.0
491,172.3359375,173.34375,54.0,76.0
492,173.2734375,173.5859375,59.0,85.0
493,172.9609375,174.2109375,47.0,77.0
494,173.5859375,174.658203125,63.0,86.0
495,173.5859375,174.671875,54.0,88.0
496,174.2109375,174.671875,59.0,78.0
497,171.7109375,174.90234375,35.0,90.0
498,174.5234375,175.06640625,47.0,91.0
499,174.8359375,175.4375,54.0,88.0
500,175.1484375,175.88671875,63.0,90.0
501,176.0859375,176.431640625,54.0,81.0
502,176.3984375,177.025390625,66.0,93.0
503,176.3984375,177.0390625,57.0,87.0
504,176.3984375,177.05859375,61.0,94.0
505,177.0234375,177.447265625,54.0,74.0
506,177.3359375,177.9765625,66.0,88.0
507,177.3359375,178.01953125,61.0,89.0
508,177.3359375,178.0234375,57.0,88.0
509,177.9609375,178.287109375,54.0,84.0
510,178.5859375,178.7734375,54.0,86.0
511,178.2734375,178.80859375,57.0,100.0
512,175.7734375,178.83203125,49.0,77.0
513,178.2734375,178.83203125,66.0,107.0
514,175.4609375,178.896484375,42.0,96.0
515,178.8984375,179.265625,61.0,100.0
516,178.8984375,179.265625,66.0,83.0
517,178.8984375,179.287109375,57.0,85.0
518,179.8359375,180.259765625,59.0,84.0
519,180.1484375,180.7265625,71.0,107.0
520,180.1484375,180.755859375,66.0,110.0
521,180.7734375,181.005859375,62.0,82.0
522,180.4609375,181.09375,59.0,82.0
523,181.0859375,181.771484375,71.0,108.0
524,181.0859375,181.80859375,66.0,113.0
525,181.7109375,182.04296875,59.0,82.0
526,182.3359375,182.439453125,59.0,91.0
527,179.5234375,182.625,54.0,78.0
528,179.2109375,182.693359375,47.0,96.0
529,182.6484375,183.052734375,66.0,107.0
530,182.0234375,183.080078125,62.0,104.0
531,182.0234375,183.080078125,71.0,100.0
532,183.5859375,183.99609375,54.0,87.0
533,183.8984375,184.431640625,66.0,108.0
534,183.8984375,184.4609375,57.0,104.0
535,184.2109375,184.529296875,54.0,86.0
536,183.2734375,184.59765625,49.0,80.0
537,182.9609375,184.650390625,42.0,92.0
538,184.5234375,184.8828125,61.0,91.0
539,184.5234375,184.89453125,57.0,81.0
540,184.5234375,184.896484375,66.0,86.0
541,185.4609375,185.697265625,61.0,82.0
542,185.1484375,185.833984375,56.0,83.0
543,186.0859375,186.32421875,56.0,80.0
544,184.8359375,186.341796875,49.0,88.0
545,185.7734375,186.34765625,64.0,114.0
546,185.7734375,186.720703125,68.0,107.0
547,186.3984375,186.927734375,61.0,87.0
548,187.6484375,188.048828125,57.0,100.0
549,187.0234375,188.291015625,49.0,82.0
550,186.7109375,188.306640625,42.0,89.0
551,187.3359375,188.330078125,54.0,91.0
552,187.9609375,188.642578125,61.0,88.0
553,188.2734375,188.73046875,66.0,91.0
554,189.2109375,189.623046875,52.0,86.0
555,189.5234375,190.064453125,64.0,96.0
556,189.5234375,190.140625,59.0,108.0
557,190.1484375,190.484375,56.0,81.0
558,189.8359375,190.53125,52.0,79.0
559,190.4609375,191.10546875,64.0,100.0
560,190.4609375,191.130859375,59.0,113.0
561,191.0859375,191.431640625,52.0,81.0
562,191.3984375,191.931640625,56.0,100.0
563,188.5859375,192.0546875,40.0,102.0
564,191.7109375,192.205078125,52.0,86.0
565,192.0234375,192.3125,56.0,80.0
566,188.8984375,192.3203125,47.0,84.0
567,191.3984375,192.361328125,64.0,104.0
568,192.0234375,192.3984375,59.0,92.0
569,192.9609375,193.3359375,54.0,94.0
570,193.2734375,193.765625,61.0,116.0
571,193.2734375,193.779296875,66.0,113.0
572,192.3359375,193.99609375,42.0,89.0
573,193.5859375,194.025390625,54.0,91.0
574,192.6484375,194.220703125,49.0,87.0
575,193.8984375,194.2734375,57.0,86.0
576,194.2109375,194.3671875,61.0,32.0
577,194.8359375,195.20703125,54.0,96.0
578,195.4609375,195.6796875,54.0,92.0
579,195.1484375,195.6796875,56.0,107.0
580,194.5234375,195.73046875,49.0,86.0
581,194.2109375,195.791015625,42.0,98.0
582,194.2109375,196.078125,66.0,108.0
583,195.7734375,196.126953125,57.0,107.0
584,196.7109375,197.09765625,50.0,87.0
585,197.0234375,197.505859375,62.0,107.0
586,197.0234375,197.69140625,57.0,100.0
587,196.0859375,197.7109375,38.0,94.0
588,196.3984375,197.96875,45.0,81.0
589,197.3359375,197.970703125,50.0,84.0
590,197.6484375,198.009765625,54.0,90.0
591,197.9609375,198.599609375,62.0,104.0
592,197.9609375,198.69140625,57.0,116.0
593,198.5859375,198.9609375,50.0,87.0
594,198.8984375,199.275390625,62.0,107.0
595,198.8984375,199.41015625,57.0,116.0
596,197.9609375,199.552734375,38.0,87.0
597,198.2734375,199.583984375,45.0,81.0
598,199.2109375,199.599609375,50.0,86.0
599,199.5234375,199.814453125,54.0,93.0
600,199.5234375,199.884765625,57.0,91.0
601,199.5234375,199.890625,62.0,91.0
602,200.4609375,200.845703125,59.0,81.0
603,200.1484375,200.939453125,54.0,83.0
604,200.7734375,201.306640625,66.0,102.0
605,200.7734375,201.41015625,62.0,114.0
606,199.8359375,201.521484375,47.0,96.0
607,201.0859375,201.73046875,54.0,86.0
608,201.3984375,202.1640625,59.0,86.0
609,202.3359375,202.693359375,59.0,91.0
610,202.0234375,202.720703125,54.0,87.0
611,202.6484375,203.150390625,66.0,110.0
612,202.6484375,203.15625,62.0,116.0
613,202.9609375,203.234375,54.0,87.0
614,201.7109375,203.28515625,47.0,91.0
615,203.2734375,203.642578125,62.0,91.0
616,203.2734375,203.646484375,59.0,93.0
617,203.2734375,203.646484375,66.0,87.0
618,204.2109375,204.896484375,52.0,85.0
619,203.5859375,204.916015625,40.0,93.0
620,203.8984375,204.953125,47.0,86.0
621,204.5234375,205.310546875,56.0,89.0
622,204.8359375,205.478515625,59.0,96.0
623,205.1484375,205.556640625,64.0,94.0
624,206.0859375,206.45703125,61.0,88.0
625,205.7734375,206.509765625,56.0,82.0
626,206.7109375,206.916015625,56.0,83.0
627,205.4609375,206.982421875,49.0,93.0
628,206.3984375,207.37109375,68.0,113.0
629,207.0234375,207.38671875,64.0,102.0
630,207.3359375,208.599609375,40.0,93.0
631,207.6484375,208.646484375,47.0,83.0
632,207.9609375,208.716796875,52.0,86.0
633,208.2734375,208.93359375,56.0,98.0
634,208.5859375,209.076171875,59.0,96.0
635,209.2109375,209.6953125,61.0,102.0
636,208.8984375,209.810546875,64.0,91.0
637,209.8359375,210.5390625,56.0,85.0
638,209.2109375,210.61328125,49.0,89.0
639,210.1484375,210.6953125,61.0,108.0
640,210.4609375,211.017578125,64.0,96.0
641,210.7734375,211.099609375,69.0,86.0
642,211.0859375,211.654296875,66.0,102.0
643,211.0859375,211.97265625,61.0,87.0
644,211.7109375,212.150390625,54.0,83.0
645,212.0234375,212.58203125,66.0,100.0
646,212.3359375,212.677734375,54.0,80.0
647,211.0859375,212.7265625,42.0,83.0
648,212.6484375,212.73046875,66.0,75.0
649,212.0234375,212.8046875,57.0,96.0
650,212.6484375,212.921875,61.0,87.0
651,211.3984375,213.01171875,49.0,81.0
652,212.9609375,213.634765625,66.0,107.0
653,212.9609375,213.68359375,57.0,96.0
654,213.5859375,213.9375,54.0,83.0
655,212.9609375,214.515625,42.0,86.0
656,213.2734375,214.533203125,49.0,83.0
657,213.8984375,214.59375,57.0,116.0
658,213.8984375,214.724609375,66.0,104.0
659,214.5234375,214.796875,61.0,98.0
660,214.2109375,214.8125,54.0,88.0
661,214.8359375,214.8671875,62.0,88.0
662,214.8359375,215.14453125,59.0,89.0
663,214.8359375,215.44140625,66.0,93.0
664,215.4609375,215.802734375,59.0,88.0
665,215.7734375,216.064453125,71.0,113.0
666,216.0859375,216.275390625,59.0,86.0
667,216.3984375,216.5546875,59.0,84.0
668,214.8359375,216.572265625,47.0,89.0
669,215.7734375,216.666015625,62.0,108.0
670,215.1484375,216.689453125,54.0,78.0
671,217.0234375,217.134765625,54.0,82.0
672,216.7109375,217.37890625,66.0,108.0
673,216.7109375,217.44140625,59.0,107.0
674,217.3359375,217.705078125,54.0,87.0
675,217.6484375,218.2109375,66.0,113.0
676,217.6484375,218.212890625,59.0,116.0
677,216.7109375,218.298828125,47.0,88.0
678,217.9609375,218.326171875,54.0,86.0
679,218.2734375,218.421875,59.0,81.0
680,218.2734375,218.61328125,66.0,87.0
681,218.2734375,218.640625,62.0,98.0
682,218.5859375,219.798828125,40.0,102.0
683,218.8984375,219.86328125,47.0,84.0
684,219.2109375,219.87109375,52.0,87.0
685,219.5234375,219.98828125,56.0,107.0
686,219.8359375,220.396484375,59.0,110.0
687,220.1484375,221.068359375,64.0,93.0
688,220.4609375,221.09765625,56.0,98.0
689,220.4609375,221.154296875,61.0,94.0
690,221.0859375,221.4609375,49.0,87.0
691,221.3984375,221.48046875,56.0,116.0
692,220.4609375,221.978515625,37.0,89.0
693,221.3984375,222.08984375,64.0,107.0
694,222.0234375,222.30859375,61.0,100.0
695,221.7109375,222.326171875,49.0,88.0
696,222.3359375,222.9921875,64.0,91.0
697,222.3359375,223.02734375,56.0,88.0
698,222.3359375,223.0625,59.0,94.0
699,222.9609375,223.3125,52.0,85.0
700,223.2734375,223.81640625,56.0,110.0
701,222.3359375,223.8984375,40.0,87.0
702,223.5859375,223.939453125,52.0,89.0
703,222.6484375,223.958984375,47.0,81.0
704,223.2734375,224.24609375,64.0,108.0
705,223.8984375,224.365234375,59.0,91.0
706,224.8359375,225.212890625,54.0,88.0
707,225.1484375,225.4921875,56.0,107.0
708,225.4609375,225.541015625,57.0,87.0
709,224.5234375,225.875,49.0,80.0
710,224.2109375,225.89453125,42.0,88.0
711,225.7734375,225.98046875,61.0,86.0
712,225.4609375,226.361328125,54.0,89.0
713,226.7109375,227.09765625,50.0,87.0
714,227.0234375,227.505859375,62.0,107.0
715,227.0234375,227.69140625,57.0,100.0
716,226.0859375,227.7109375,38.0,94.0
717,226.3984375,227.96875,45.0,81.0
718,227.3359375,227.970703125,50.0,84.0
719,227.6484375,228.009765625,54.0,90.0
720,227.9609375,228.599609375,62.0,104.0
721,227.9609375,228.69140625,57.0,116.0
722,228.5859375,228.9609375,50.0,87.0
723,228.8984375,229.275390625,62.0,107.0
724,228.8984375,229.41015625,57.0,116.0
725,227.9609375,229.552734375,38.0,87.0
726,228.2734375,229.583984375,45.0,81.0
727,229.2109375,229.599609375,50.0,86.0
728,229.5234375,229.814453125,54.0,93.0
729,229.5234375,229.884765625,57.0,91.0
730,229.5234375,229.890625,62.0,91.0
731,230.4609375,230.845703125,59.0,81.0
732,230.1484375,230.939453125,54.0,83.0
733,230.7734375,231.306640625,66.0,102.0
734,230.7734375,231.41015625,62.0,114.0
735,229.8359375,231.521484375,47.0,96.0
736,231.0859375,231.73046875,54.0,86.0
737,231.3984375,232.1640625,59.0,86.0
738,232.3359375,232.693359375,59.0,91.0
739,232.0234375,232.720703125,54.0,87.0
740,232.6484375,233.150390625,66.0,110.0
741,232.6484375,233.15625,62.0,116.0
742,232.9609375,233.234375,54.0,87.0
743,231.7109375,233.28515625,47.0,91.0
744,233.2734375,233.642578125,62.0,91.0
745,233.2734375,233.646484375,59.0,93.0
746,233.2734375,233.646484375,66.0,87.0
747,234.2109375,234.896484375,52.0,85.0
748,233.5859375,234.916015625,40.0,93.0
749,233.8984375,234.953125,47.0,86.0
750,234.5234375,235.310546875,56.0,89.0
751,234.8359375,235.478515625,59.0,96.0
752,235.1484375,235.556640625,64.0,94.0
753,236.0859375,236.45703125,61.0,88.0
754,235.7734375,236.509765625,56.0,82.0
755,236.7109375,236.916015625,56.0,83.0
756,235.4609375,236.982421875,49.0,93.0
757,236.3984375,237.37109375,68.0,113.0
758,237.0234375,237.38671875,64.0,102.0
759,237.3359375,238.599609375,40.0,93.0
760,237.6484375,238.646484375,47.0,83.0
761,237.9609375,238.716796875,52.0,86.0
762,238.2734375,238.93359375,56.0,98.0
763,238.5859375,239.076171875,59.0,96.0
764,239.2109375,239.6953125,61.0,102.0
765,238.8984375,239.810546875,64.0,91.0
766,239.8359375,240.5390625,56.0,85.0
767,239.2109375,240.61328125,49.0,89.0
768,240.1484375,240.6953125,61.0,108.0
769,240.4609375,241.017578125,64.0,96.0
770,240.7734375,241.099609375,69.0,86.0
771,241.0859375,241.654296875,66.0,102.0
772,241.0859375,241.97265625,61.0,87.0
773,241.7109375,242.150390625,54.0,83.0
774,242.0234375,242.58203125,66.0,100.0
775,242.3359375,242.677734375,54.0,80.0
776,241.0859375,242.7265625,42.0,83.0
777,242.6484375,242.73046875,66.0,75.0
778,242.0234375,242.8046875,57.0,96.0
779,242.6484375,242.921875,61.0,87.0
780,241.3984375,243.01171875,49.0,81.0
781,242.9609375,243.634765625,66.0,107.0
782,242.9609375,243.68359375,57.0,96.0
783,243.5859375,243.9375,54.0,83.0
784,242.9609375,244.515625,42.0,86.0
785,243.2734375,244.533203125,49.0,83.0
786,243.8984375,244.59375,57.0,116.0
787,243.8984375,244.724609375,66.0,104.0
788,244.5234375,244.796875,61.0,98.0
789,244.2109375,244.8125,54.0,88.0
790,244.8359375,244.8671875,62.0,88.0
791,244.8359375,245.14453125,59.0,89.0
792,244.8359375,245.44140625,66.0,93.0
793,245.4609375,245.802734375,59.0,88.0
794,245.7734375,246.064453125,71.0,113.0
795,246.0859375,246.275390625,59.0,86.0
796,246.3984375,246.5546875,59.0,84.0
797,244.8359375,246.572265625,47.0,89.0
798,245.7734375,246.666015625,62.0,108.0
799,245.1484375,246.689453125,54.0,78.0
800,247.0234375,247.134765625,54.0,82.0
801,246.7109375,247.37890625,66.0,108.0
802,246.7109375,247.44140625,59.0,107.0
803,247.3359375,247.705078125,54.0,87.0
804,247.6484375,248.2109375,66.0,113.0
805,247.6484375,248.212890625,59.0,116.0
806,246.7109375,248.298828125,47.0,88.0
807,247.9609375,248.326171875,54.0,86.0
808,248.2734375,248.421875,59.0,81.0
809,248.2734375,248.61328125,66.0,87.0
810,248.2734375,248.640625,62.0,98.0
811,248.5859375,249.798828125,40.0,102.0
812,248.8984375,249.86328125,47.0,84.0
813,249.2109375,249.87109375,52.0,87.0
814,249.5234375,249.98828125,56.0,107.0
815,249.8359375,250.396484375,59.0,110.0
816,250.1484375,251.068359375,64.0,93.0
817,250.4609375,251.09765625,56.0,98.0
818,250.4609375,251.154296875,61.0,94.0
819,251.0859375,251.4609375,49.0,87.0
820,251.3984375,251.48046875,56.0,116.0
821,250.4609375,251.978515625,37.0,89.0
822,251.3984375,252.08984375,64.0,107.0
823,252.0234375,252.30859375,61.0,100.0
824,251.7109375,252.326171875,49.0,88.0
825,252.3359375,252.9921875,64.0,91.0
826,252.3359375,253.02734375,56.0,88.0
827,252.3359375,253.0625,59.0,94.0
828,252.9609375,253.3125,52.0,85.0
829,253.2734375,253.81640625,56.0,110.0
830,252.3359375,253.8984375,40.0,87.0
831,253.5859375,253.939453125,52.0,89.0
832,252.6484375,253.958984375,47.0,81.0
833,253.2734375,254.24609375,64.0,108.0
834,253.8984375,254.365234375,59.0,91.0
835,254.8359375,255.212890625,54.0,88.0
836,255.1484375,255.4921875,56.0,107.0
837,255.4609375,255.541015625,57.0,87.0
838,255.7734375,255.98046875,61.0,86.0
839,255.4609375,256.361328125,54.0,89.0
840,256.0859375,256.654296875,66.0,102.0
841,256.0859375,256.97265625,61.0,87.0
842,256.7109375,257.150390625,54.0,83.0
843,254.5234375,257.1640625,49.0,80.0
844,256.3984375,257.1640625,49.0,81.0
845,254.2109375,257.18359375,42.0,88.0
846,256.0859375,257.18359375,42.0,83.0
847,257.0234375,257.58203125,66.0,100.0
848,257.3359375,257.677734375,54.0,80.0
849,257.6484375,257.73046875,66.0,75.0
850,257.0234375,257.8046875,57.0,96.0
851,257.6484375,257.921875,61.0,87.0
852,257.9609375,258.634765625,66.0,107.0
853,257.9609375,258.68359375,57.0,96.0
854,258.5859375,258.9375,54.0,83.0
855,257.9609375,259.515625,42.0,86.0
856,258.2734375,259.533203125,49.0,83.0
857,258.8984375,259.59375,57.0,116.0
858,258.8984375,259.724609375,66.0,104.0
859,259.5234375,259.796875,61.0,98.0
860,259.2109375,259.8125,54.0,88.0
861,259.8359375,259.8671875,62.0,88.0
862,259.8359375,260.14453125,59.0,89.0
863,259.8359375,260.44140625,66.0,93.0
864,260.4609375,260.802734375,59.0,88.0
865,260.7734375,261.064453125,71.0,113.0
866,261.0859375,261.275390625,59.0,86.0
867,261.3984375,261.5546875,59.0,84.0
868,259.8359375,261.572265625,47.0,89.0
869,260.7734375,261.666015625,62.0,108.0
870,260.1484375,261.689453125,54.0,78.0
871,262.0234375,262.134765625,54.0,82.0
872,261.7109375,262.37890625,66.0,108.0
873,261.7109375,262.44140625,59.0,107.0
874,262.3359375,262.705078125,54.0,87.0
875,262.6484375,263.2109375,66.0,113.0
876,262.6484375,263.212890625,59.0,116.0
877,261.7109375,263.298828125,47.0,88.0
878,262.9609375,263.326171875,54.0,86.0
879,263.2734375,263.421875,59.0,81.0
880,263.2734375,263.61328125,66.0,87.0
881,263.2734375,263.640625,62.0,98.0
882,263.5859375,264.798828125,40.0,102.0
883,263.8984375,264.86328125,47.0,84.0
884,264.2109375,264.87109375,52.0,87.0
885,264.5234375,264.98828125,56.0,107.0
886,264.8359375,265.396484375,59.0,110.0
887,265.1484375,266.068359375,64.0,93.0
888,265.4609375,266.09765625,56.0,98.0
889,265.4609375,266.154296875,61.0,94.0
890,266.0859375,266.4609375,49.0,87.0
891,266.3984375,266.48046875,56.0,116.0
892,265.4609375,266.978515625,37.0,89.0
893,266.3984375,267.08984375,64.0,107.0
894,267.0234375,267.30859375,61.0,100.0
895,266.7109375,267.326171875,49.0,88.0
896,267.3359375,267.9921875,64.0,91.0
897,267.3359375,268.02734375,56.0,88.0
898,267.3359375,268.0625,59.0,94.0
899,267.9609375,268.3125,52.0,85.0
900,268.2734375,268.81640625,56.0,110.0
901,267.3359375,268.8984375,40.0,87.0
902,268.5859375,268.939453125,52.0,89.0
903,267.6484375,268.958984375,47.0,81.0
904,268.2734375,269.24609375,64.0,108.0
905,272.806640625,273.1796875,56.0,82.0
906,273.119140625,273.40625,57.0,78.0
907,273.3359375,273.451171875,61.0,80.0
908,273.673828125,274.01953125,66.0,86.0
909,273.98046875,274.111328125,68.0,86.0
910,274.265625,274.6796875,69.0,78.0
911,274.658203125,274.9609375,73.0,71.0
912,275.01953125,275.302734375,78.0,71.0
913,275.3515625,275.466796875,81.0,73.0
914,275.76171875,275.880859375,85.0,83.0
915,276.5078125,276.703125,78.0,76.0
916,276.615234375,276.765625,81.0,78.0
917,276.6953125,276.935546875,90.0,104.0
918,272.494140625,277.0625,54.0,81.0
919,271.869140625,277.0703125,42.0,88.0
920,272.181640625,277.076171875,49.0,70.0
