,start,end,pitch,velocity
0,43.198618591666666,43.47586154375,62.0,87.0
1,43.58323309166667,43.93419382291667,61.0,90.0
2,43.96784759166667,45.37329307708333,59.0,87.0
3,45.50630559166667,45.83963815833334,66.0,86.0
4,45.890920091666665,46.190598889583335,62.0,87.0
5,46.27553459166667,47.12008393125,64.0,89.0
6,47.044763591666666,47.687390318750005,66.0,86.0
7,47.81399259166667,48.184184047916666,54.0,88.0
8,48.198607091666666,48.47585004375,57.0,85.0
9,48.58322159166667,48.844438939583334,59.0,87.0
10,48.96783609166667,49.24828416458333,66.0,88.0
11,49.35245059166667,49.66174475208334,64.0,87.0
12,49.737065091666665,50.019115725,62.0,85.0
13,50.12167959166667,50.42456351041667,64.0,89.0
14,50.50629409166667,50.7979600875,69.0,87.0
15,50.890908591666665,52.21943117708334,66.0,84.0
16,52.42936659166667,52.690583939583334,62.0,80.0
17,52.81398109166667,53.12808293333333,61.0,88.0
18,53.19859559166667,54.22904193958333,59.0,87.0
19,54.737053591666665,55.01429654375,66.0,86.0
20,55.12166809166667,55.39730848333333,62.0,87.0
21,55.50628259166667,55.80435882916667,64.0,91.0
22,55.890897091666666,56.147306758333336,69.0,86.0
23,56.27551159166667,56.841215418750004,66.0,87.0
24,57.04474059166667,57.30115025833334,62.0,86.0
25,57.42935509166667,57.738649252083334,61.0,89.0
26,57.81396959166667,58.5479422625,59.0,86.0
27,59.35242759166667,59.6056321375,62.0,86.0
28,59.737042091666666,60.0671695375,61.0,89.0
29,60.12165659166667,62.429343591666665,59.0,89.0
30,63.96780159166667,64.24504454375,62.0,87.0
31,64.35241609166667,64.70337682291667,61.0,90.0
32,64.73703059166667,66.14247607708333,59.0,87.0
33,66.27548859166667,66.60882115833334,66.0,86.0
34,66.66010309166667,66.95978188958334,62.0,87.0
35,67.04471759166667,67.88926693125,64.0,89.0
36,67.81394659166666,68.45657331875,66.0,86.0
37,68.58317559166667,68.95336704791667,54.0,88.0
38,68.96779009166667,69.24503304375,57.0,85.0
39,69.35240459166667,69.61362193958334,59.0,87.0
40,69.73701909166667,70.01746716458334,66.0,88.0
41,70.12163359166667,70.43092775208333,64.0,87.0
42,70.50624809166666,70.788298725,62.0,85.0
43,70.89086259166668,71.19374651041667,64.0,89.0
44,71.27547709166667,71.5671430875,69.0,87.0
45,71.66009159166667,72.98861417708333,66.0,84.0
46,73.19854959166666,73.45976693958333,62.0,80.0
47,73.58316409166667,73.89726593333333,61.0,88.0
48,73.96777859166667,74.99822493958334,59.0,87.0
49,75.50623659166666,75.78347954375,66.0,86.0
50,75.89085109166668,76.16649148333333,62.0,87.0
51,76.27546559166667,76.57354182916667,64.0,91.0
52,76.66008009166667,76.91648975833334,69.0,86.0
53,77.04469459166667,77.61039841875001,66.0,87.0
54,77.81392359166666,78.07033325833333,62.0,86.0
55,78.19853809166666,78.50783225208333,61.0,89.0
56,78.58315259166667,79.3171252625,59.0,86.0
57,80.12161059166667,80.37481513750001,62.0,86.0
58,80.50622509166666,80.8363525375,61.0,89.0
59,80.89083959166668,83.19852659166666,59.0,89.0
60,84.73698459166667,84.9998045,62.0,94.0
61,85.12159909166667,85.44050861458334,64.0,99.0
62,85.50621359166666,85.80428982916666,66.0,91.0
63,85.89082809166666,86.1632633625,66.0,87.0
64,86.27544259166667,86.54948042291667,66.0,90.0
65,86.66005709166667,86.96454357083334,66.0,91.0
66,87.04467159166667,87.37319647708334,64.0,96.0
67,87.42928609166667,87.77223402083334,62.0,87.0
68,87.81390059166667,89.14883341875,64.0,89.0
69,89.35235859166667,89.59274265416667,64.0,89.0
70,89.73697309166667,90.00460068125,66.0,88.0
71,90.12158759166667,90.39883054375001,67.0,87.0
72,90.50620209166667,90.77062456041666,67.0,87.0
73,90.89081659166666,91.16164930208333,67.0,86.0
74,91.27543109166668,91.6055585375,66.0,92.0
75,91.66004559166667,91.94369878541667,64.0,91.0
76,92.04466009166667,92.3555568125,67.0,86.0
77,92.42927459166667,93.711322925,66.0,92.0
78,93.96773259166667,94.22894993958333,62.0,89.0
79,94.35234709166667,94.66484637291667,64.0,89.0
80,94.73696159166667,95.40843440625001,66.0,87.0
81,95.50619059166667,95.89080509166666,66.0,89.0
82,95.89080509166666,96.27541959166668,66.0,89.0
83,96.27541959166668,96.56868814791667,69.0,92.0
84,96.66003409166667,96.93727704375,66.0,89.0
85,97.04464859166667,98.21612025625001,64.0,96.0
86,98.58310659166666,99.33791254791667,66.0,88.0
87,99.35233559166667,100.87637054791666,64.0,90.0
88,100.89079359166666,101.52220239583333,67.0,85.0
89,101.66002259166667,103.09271160416667,66.0,83.0
90,103.19848059166667,103.53982596041666,74.0,96.0
91,103.58309509166666,103.83149195625,73.0,90.0
92,103.77540234166668,105.31866802291667,74.0,111.0
93,105.50616759166667,105.78661566458334,66.0,89.0
94,105.89078209166667,106.21930697708333,74.0,99.0
95,106.27539659166666,106.91161307708333,73.0,87.0
96,107.04462559166667,107.61353453958334,69.0,89.0
97,107.81385459166667,108.24975102500001,71.0,91.0
98,108.19846909166667,108.53981446041666,69.0,88.0
99,108.58308359166666,109.865131925,71.0,92.0
100,110.12154159166667,110.45647671875,62.0,96.0
101,110.50615609166667,110.78820672500001,71.0,87.0
102,110.89077059166667,111.58307669166668,71.0,90.0
103,111.65999959166668,112.28660071458334,69.0,92.0
104,112.42922859166667,112.7689714,74.0,102.0
105,112.81384309166667,113.05422715416667,73.0,92.0
106,113.00615034166667,114.5478134625,74.0,101.0
107,114.73691559166667,115.09108144375,66.0,87.0
108,115.12153009166667,115.47249082291667,78.0,94.0
109,115.50614459166667,116.22248909791666,76.0,85.0
110,116.27537359166666,117.49492206875,73.0,87.0
111,117.81383159166667,118.11671551041667,71.0,96.0
112,118.19844609166667,118.53338121875001,73.0,89.0
113,118.58306059166667,118.94523924583333,74.0,92.0
114,118.96767509166666,119.34267422916668,71.0,87.0
115,119.35228959166668,119.99331375833334,74.0,99.0
116,120.12151859166667,121.480489825,73.0,96.0
117,121.65997659166668,122.00132196041667,74.0,96.0
118,122.04459109166667,122.29298795625,73.0,90.0
119,122.23689834166667,123.78016402291667,74.0,111.0
120,123.96766359166666,124.24811166458333,66.0,89.0
121,124.35227809166668,124.68080297708333,74.0,99.0
122,124.73689259166667,125.37310907708334,73.0,87.0
123,125.50612159166667,126.07503053958334,69.0,89.0
124,126.27535059166667,126.711247025,71.0,91.0
125,126.65996509166668,127.00131046041668,69.0,88.0
126,127.04457959166668,128.326627925,71.0,92.0
127,128.58303759166668,128.91797271875,62.0,96.0
128,128.96765209166668,129.249702725,71.0,87.0
129,129.35226659166668,130.04457269166667,71.0,90.0
130,130.12149559166667,130.74809671458334,69.0,92.0
131,130.89072459166667,131.2304674,74.0,102.0
132,131.27533909166667,131.51572315416666,73.0,92.0
133,131.46764634166666,133.0093094625,74.0,101.0
134,133.19841159166668,133.55257744375,66.0,87.0
135,133.58302609166668,133.93398682291667,78.0,94.0
136,133.96764059166668,134.68398509791666,76.0,85.0
137,134.73686959166668,135.95641806875,73.0,87.0
138,136.27532759166667,136.57821151041668,71.0,96.0
139,136.65994209166666,136.99487721875,73.0,89.0
140,137.04455659166666,137.40673524583335,74.0,92.0
141,137.42917109166666,137.62147834166666,73.0,87.0
142,137.62147834166666,138.19840009166668,71.0,99.0
143,138.19840009166668,138.54134802083334,69.0,89.0
144,138.58301459166668,139.94198582500002,71.0,96.0
145,160.89065559166667,161.1534755,62.0,94.0
146,161.27527009166667,161.59417961458334,64.0,99.0
147,161.65988459166667,161.95796082916667,66.0,91.0
148,162.04449909166667,162.3169343625,66.0,87.0
149,162.42911359166666,162.70315142291668,66.0,90.0
150,162.81372809166666,163.11821457083335,66.0,91.0
151,163.19834259166666,163.52686747708333,64.0,96.0
152,163.58295709166669,163.92590502083334,62.0,87.0
153,163.96757159166668,165.30250441875,64.0,89.0
154,165.50602959166667,165.74641365416667,64.0,89.0
155,165.89064409166667,166.15827168125,66.0,88.0
156,166.27525859166667,166.55250154375,67.0,87.0
157,166.65987309166667,166.92429556041668,67.0,87.0
158,167.04448759166667,167.31532030208334,67.0,86.0
159,167.42910209166666,167.7592295375,66.0,92.0
160,167.81371659166666,168.09736978541667,64.0,91.0
161,168.19833109166666,168.5092278125,67.0,86.0
162,168.5829455916667,169.864993925,66.0,92.0
163,170.12140359166668,170.38262093958335,62.0,89.0
164,170.50601809166668,170.81851737291666,64.0,89.0
165,170.89063259166667,171.56210540625,66.0,87.0
166,171.65986159166667,172.04447609166667,66.0,89.0
167,172.04447609166667,172.42909059166666,66.0,89.0
168,172.42909059166666,172.72235914791668,69.0,92.0
169,172.81370509166666,173.09094804375002,66.0,89.0
170,173.19831959166666,174.36979125625,64.0,96.0
171,174.73677759166668,175.49158354791666,66.0,88.0
172,175.50600659166668,177.03004154791668,64.0,90.0
173,177.04446459166667,177.67587339583335,67.0,85.0
174,177.81369359166666,179.24638260416668,66.0,83.0
175,179.35215159166668,179.69349696041667,74.0,96.0
176,179.73676609166668,179.98516295625,73.0,90.0
177,179.92907334166668,181.47233902291669,74.0,111.0
178,181.65983859166667,181.94028666458334,66.0,89.0
179,182.04445309166667,182.37297797708334,74.0,99.0
180,182.42906759166667,183.06528407708333,73.0,87.0
181,183.19829659166666,183.76720553958333,69.0,89.0
182,183.96752559166669,184.403422025,71.0,91.0
183,184.35214009166668,184.69348546041667,69.0,88.0
184,184.73675459166668,186.01880292500002,71.0,92.0
185,186.27521259166667,186.61014771875,62.0,96.0
186,186.65982709166667,186.941877725,71.0,87.0
187,187.04444159166667,187.73674769166666,71.0,90.0
188,187.81367059166666,188.44027171458333,69.0,92.0
189,188.58289959166666,188.9226424,74.0,102.0
190,188.9675140916667,189.20789815416668,73.0,92.0
191,189.15982134166669,190.70148446250002,74.0,101.0
192,190.89058659166668,191.24475244375,66.0,87.0
193,191.27520109166667,191.62616182291669,78.0,94.0
194,191.65981559166667,192.37616009791668,76.0,85.0
195,192.42904459166667,193.64859306875002,73.0,87.0
196,193.9675025916667,194.27038651041667,71.0,96.0
197,194.35211709166668,194.68705221875,73.0,89.0
198,194.73673159166668,195.09891024583334,74.0,92.0
199,195.12134609166668,195.49634522916668,71.0,87.0
200,195.50596059166668,196.14698475833333,74.0,99.0
201,196.27518959166667,197.634160825,73.0,96.0
202,197.81364759166667,198.15499296041668,74.0,96.0
203,198.19826209166666,198.44665895625002,73.0,90.0
204,198.39056934166666,199.93383502291667,74.0,111.0
205,200.12133459166668,200.40178266458335,66.0,89.0
206,200.50594909166668,200.83447397708335,74.0,99.0
207,200.89056359166668,201.52678007708334,73.0,87.0
208,201.65979259166667,202.22870153958334,69.0,89.0
209,202.42902159166667,202.864918025,71.0,91.0
210,202.81363609166667,203.15498146041668,69.0,88.0
211,203.19825059166666,204.480298925,71.0,92.0
212,204.73670859166668,205.07164371875,62.0,96.0
213,205.12132309166668,205.403373725,71.0,87.0
214,205.50593759166668,206.19824369166668,71.0,90.0
215,206.27516659166668,206.90176771458334,69.0,92.0
216,207.04439559166667,207.3841384,74.0,102.0
217,207.42901009166667,207.66939415416667,73.0,92.0
218,207.62131734166667,209.1629804625,74.0,101.0
219,209.3520825916667,209.70624844375,66.0,87.0
220,209.73669709166668,210.08765782291667,78.0,94.0
221,210.12131159166668,210.83765609791666,76.0,85.0
222,210.89054059166668,212.11008906875,73.0,87.0
223,212.42899859166667,212.73188251041668,71.0,96.0
224,212.81361309166667,213.14854821875,73.0,89.0
225,213.19822759166667,213.56040624583335,74.0,92.0
226,213.58284209166666,213.77514934166666,73.0,87.0
227,213.77514934166666,214.3520710916667,71.0,99.0
228,214.3520710916667,214.69501902083334,69.0,89.0
229,214.73668559166669,216.09565682500002,71.0,96.0
230,216.27514359166668,216.61648896041666,75.0,96.0
231,216.65975809166667,216.90815495625,74.0,90.0
232,216.85206534166667,218.39533102291668,75.0,111.0
233,218.58283059166666,218.86327866458333,67.0,89.0
234,218.96744509166666,219.29596997708333,75.0,99.0
235,219.35205959166666,219.98827607708333,74.0,87.0
236,220.12128859166668,220.69019753958335,70.0,89.0
237,220.89051759166668,221.32641402500002,72.0,91.0
238,221.27513209166668,221.61647746041666,70.0,88.0
239,221.65974659166667,222.941794925,72.0,92.0
240,223.19820459166667,223.53313971875,63.0,96.0
241,223.58281909166666,223.864869725,72.0,87.0
242,223.96743359166666,224.6597396916667,72.0,90.0
243,224.7366625916667,225.36326371458335,70.0,92.0
244,225.50589159166668,225.8456344,75.0,102.0
245,225.89050609166668,226.13089015416668,74.0,92.0
246,226.08281334166668,227.6244764625,75.0,101.0
247,227.81357859166667,228.16774444375,67.0,87.0
248,228.19819309166667,228.54915382291668,79.0,94.0
249,228.58280759166666,229.29915209791668,77.0,85.0
250,229.35203659166666,230.57158506875,74.0,87.0
251,230.89049459166668,231.19337851041666,72.0,96.0
252,231.27510909166668,231.61004421875,74.0,89.0
253,231.65972359166668,232.02190224583333,75.0,92.0
254,232.04433809166667,232.41933722916667,72.0,87.0
255,232.42895259166667,233.06997675833335,75.0,99.0
256,233.19818159166667,234.557152825,74.0,96.0
257,234.7366395916667,235.07798496041667,75.0,96.0
258,235.12125409166669,235.36965095625,74.0,90.0
259,235.31356134166668,236.85682702291666,75.0,111.0
260,237.04432659166667,237.32477466458334,67.0,89.0
261,237.42894109166667,237.75746597708334,75.0,99.0
262,237.81355559166667,238.44977207708334,74.0,87.0
263,238.58278459166667,239.15169353958333,70.0,89.0
264,239.35201359166666,239.787910025,72.0,91.0
265,239.7366280916667,240.07797346041667,70.0,88.0
266,240.1212425916667,241.40329092500002,72.0,92.0
267,241.65970059166668,241.99463571875,63.0,96.0
268,242.04431509166668,242.32636572500002,72.0,87.0
269,242.42892959166667,243.12123569166667,72.0,90.0
270,243.19815859166667,243.82475971458334,70.0,92.0
271,243.96738759166666,244.3071304,75.0,102.0
272,244.35200209166666,244.59238615416666,74.0,92.0
273,244.54430934166666,246.0859724625,75.0,101.0
274,246.27507459166668,246.62924044375,67.0,87.0
275,246.65968909166668,247.01064982291666,79.0,94.0
276,247.04430359166668,247.7606480979167,77.0,85.0
277,247.81353259166667,249.03308106875002,74.0,87.0
278,249.35199059166666,249.65487451041668,72.0,96.0
279,249.73660509166666,250.07154021875002,74.0,89.0
280,250.1212195916667,250.48339824583334,75.0,92.0
281,250.50583409166669,250.69814134166668,74.0,87.0
282,250.69814134166668,251.27506309166668,72.0,99.0
283,251.27506309166668,251.61801102083334,70.0,89.0
284,251.65967759166668,253.018648825,72.0,96.0
