,start,end,pitch,velocity
0,13.967916591666667,14.671440614583334,59.0,78.0
1,13.967916591666667,14.693876460416668,62.0,80.0
2,14.352531091666668,14.939068204166666,54.0,75.0
3,14.737145591666668,15.0865037625,66.0,90.0
4,15.121760091666667,15.50477203125,54.0,70.0
5,15.506374591666667,15.66823319375,66.0,76.0
6,13.967916591666667,15.730733050000001,47.0,86.0
7,15.506374591666667,15.83169435625,71.0,85.0
8,15.506374591666667,15.865348125,62.0,84.0
9,15.890989091666667,15.987142716666668,59.0,92.0
10,16.275603591666666,17.036819789583333,55.0,81.0
11,16.275603591666666,17.08169148125,59.0,80.0
12,17.044832591666665,17.493549508333334,62.0,81.0
13,17.429447091666667,17.676241395833333,55.0,74.0
14,16.660218091666668,18.040022610416667,50.0,72.0
15,17.81406159166667,18.0672661375,55.0,82.0
16,17.81406159166667,18.165022322916666,59.0,85.0
17,16.275603591666666,18.257970827083334,43.0,85.0
18,17.81406159166667,18.33809884791667,67.0,80.0
19,18.198676091666666,18.35732957291667,50.0,87.0
20,18.583290591666668,19.344506789583335,57.0,77.0
21,18.583290591666668,19.378160558333335,61.0,77.0
22,19.352519591666667,19.738736652083333,64.0,86.0
23,19.737134091666668,19.979120714583335,57.0,86.0
24,20.121748591666666,20.3941838625,57.0,86.0
25,20.121748591666666,20.431042752083332,61.0,85.0
26,18.583290591666668,20.583285991666667,45.0,86.0
27,18.96790509166667,20.628157683333335,52.0,77.0
28,20.506363091666667,20.79322140625,62.0,84.0
29,20.89097759166667,21.538412,59.0,79.0
30,20.89097759166667,21.538412,62.0,87.0
31,21.660206591666668,22.26597442916667,66.0,87.0
32,22.044821091666666,22.28039747291667,59.0,81.0
33,22.429435591666667,22.575268589583334,62.0,75.0
34,22.429435591666667,22.608922358333334,59.0,70.0
35,21.275592091666667,22.618537720833334,54.0,59.0
36,20.89097759166667,22.705075983333334,47.0,87.0
37,23.198664591666667,23.790009385416667,59.0,84.0
38,23.198664591666667,24.03359856875,66.0,83.0
39,23.583279091666668,24.10731634791667,54.0,79.0
40,23.967893591666666,24.439046354166667,59.0,88.0
41,24.352508091666667,24.79321220625,54.0,85.0
42,24.73712259166667,24.88936583125,59.0,81.0
43,23.198664591666667,24.940647764583336,47.0,87.0
44,24.73712259166667,25.115326850000002,62.0,85.0
45,25.506351591666668,26.217888416666668,55.0,81.0
46,25.506351591666668,26.262760108333335,62.0,81.0
47,25.890966091666666,26.634554125,50.0,75.0
48,26.275580591666667,26.67461813541667,59.0,81.0
49,26.66019509166667,27.23711684166667,55.0,88.0
50,25.506351591666668,27.496731629166668,43.0,84.0
51,27.429424091666668,27.540000760416667,55.0,86.0
52,27.044809591666667,27.623333902083335,50.0,81.0
53,27.814038591666666,28.217883816666667,61.0,78.0
54,27.814038591666666,28.493524208333334,57.0,80.0
55,28.58326759166667,28.940638564583335,64.0,87.0
56,28.967882091666667,29.18743286875,57.0,85.0
57,27.814038591666666,29.580060170833335,45.0,85.0
58,28.198653091666667,29.639354906250002,52.0,81.0
59,29.352496591666668,29.650572829166666,61.0,84.0
60,30.121725591666667,30.7403139125,59.0,78.0
61,30.121725591666667,30.956659568750002,62.0,82.0
62,30.890954591666667,31.402171364583335,66.0,85.0
63,31.275569091666668,31.406979045833335,59.0,65.0
64,31.66018359166667,31.849285720833333,62.0,79.0
65,31.66018359166667,31.890952291666668,66.0,83.0
66,30.50634009166667,32.11531075,54.0,72.0
67,30.121725591666667,32.16499012291667,47.0,79.0
68,32.42941259166667,32.98870617708334,59.0,84.0
69,32.42941259166667,33.10088540625,66.0,84.0
70,32.81402709166667,33.3076157,54.0,73.0
71,33.198641591666664,33.91658865833333,59.0,86.0
72,33.198641591666664,33.980691075,62.0,86.0
73,33.58325609166667,33.99351155833333,54.0,79.0
74,32.42941259166667,34.126524072916666,47.0,85.0
75,33.96787059166667,34.27716475208334,66.0,92.0
76,34.352485091666665,34.506330891666664,59.0,86.0
77,34.73709959166667,35.57523868958334,62.0,82.0
78,35.506328591666666,35.940622464583335,55.0,89.0
79,35.12171409166667,36.12972459375,50.0,81.0
80,35.89094309166667,36.63292856458334,62.0,87.0
81,36.66017209166667,36.74510779375,55.0,85.0
82,34.73709959166667,36.814017891666666,43.0,86.0
83,36.27555759166667,36.88453055,50.0,75.0
84,37.044786591666664,37.38613196041667,61.0,85.0
85,37.044786591666664,37.62170834166667,57.0,81.0
86,37.81401559166667,38.0287586875,57.0,86.0
87,37.81401559166667,38.14734815833334,64.0,87.0
88,38.198630091666665,38.314014441666664,57.0,74.0
89,38.198630091666665,38.65535981041667,61.0,79.0
90,37.42940109166667,38.778756962500005,52.0,84.0
91,38.58324459166667,38.841256818750004,57.0,87.0
92,37.044786591666664,39.05920503541667,45.0,86.0
93,38.96785909166667,39.19542267083334,52.0,82.0
94,39.352473591666666,39.75151113541667,59.0,81.0
95,39.352473591666666,40.047984812500005,62.0,80.0
96,40.12170259166667,40.22266389791667,62.0,56.0
97,39.73708809166667,40.31400984166667,54.0,74.0
98,40.12170259166667,40.916572558333336,66.0,87.0
99,40.506317091666666,41.44381493541667,54.0,70.0
100,39.352473591666666,41.47907126458333,47.0,85.0
101,40.89093159166667,42.4614408,71.0,84.0
102,41.27554609166667,42.94060636458333,59.0,83.0
103,42.42938959166667,43.03034974791667,62.0,77.0
104,42.044775091666665,43.555989564583335,54.0,76.0
105,41.66016059166667,43.59284845416667,47.0,85.0
106,43.96784759166667,44.79316620625,62.0,85.0
107,44.73707659166667,45.17938326666667,59.0,87.0
108,44.352462091666666,45.5287414375,54.0,78.0
109,45.12169109166667,45.58162593125,62.0,86.0
110,43.96784759166667,45.63771554583334,47.0,85.0
111,45.50630559166667,45.858868883333336,66.0,87.0
112,46.27553459166667,47.08482760208334,61.0,88.0
113,47.044763591666666,47.759505537500004,57.0,86.0
114,46.27553459166667,47.788351625000004,42.0,80.0
115,46.66014909166667,47.807582350000004,49.0,62.0
116,47.42937809166667,47.84444123958333,61.0,96.0
117,47.81399259166667,48.10245346666667,66.0,91.0
118,48.198607091666666,48.313991441666666,57.0,82.0
119,48.58322159166667,49.403732525,62.0,82.0
120,48.58322159166667,49.40533508541667,55.0,79.0
121,49.35245059166667,49.801167508333336,59.0,87.0
122,49.737065091666665,50.1825768875,55.0,84.0
123,50.12167959166667,50.23225626041667,62.0,80.0
124,48.96783609166667,50.302768918750004,50.0,75.0
125,48.58322159166667,50.32360220416667,43.0,85.0
126,50.890908591666665,51.382894639583334,57.0,74.0
127,50.890908591666665,51.78673986458333,66.0,78.0
128,51.66013759166667,52.083213541666666,57.0,87.0
129,52.044752091666666,52.43898195416667,62.0,89.0
130,51.27552309166667,52.63930200625,45.0,70.0
131,50.890908591666665,52.656930170833334,38.0,82.0
132,52.42936659166667,52.807570850000005,64.0,85.0
133,52.81398109166667,53.23865960208334,62.0,73.0
134,53.19859559166667,54.043144931250005,66.0,81.0
135,53.96782459166667,54.4325671125,55.0,86.0
136,54.35243909166667,54.79154064583334,62.0,82.0
137,54.737053591666665,55.11686041041667,59.0,76.0
138,53.58321009166667,55.12166809166667,50.0,79.0
139,53.19859559166667,55.17455258541667,43.0,85.0
140,55.12166809166667,55.257885727083334,55.0,86.0
141,55.50628259166667,56.3364088875,61.0,86.0
142,56.27551159166667,56.711408025000004,57.0,89.0
143,56.66012609166667,56.79634372708333,61.0,89.0
144,57.04474059166667,57.198586391666666,57.0,79.0
145,55.890897091666666,57.28352209375,49.0,77.0
146,55.50628259166667,57.30275281875,42.0,86.0
147,57.04474059166667,57.41493204791667,61.0,88.0
148,57.42935509166667,57.51589335416667,57.0,78.0
149,57.04474059166667,57.517495914583336,66.0,81.0
150,57.81396959166667,58.39730158333334,59.0,80.0
151,57.81396959166667,58.42614767083334,64.0,85.0
152,58.583198591666665,58.704993183333336,59.0,85.0
153,58.19858409166667,58.781916083333336,47.0,73.0
154,57.81396959166667,58.80435192916667,40.0,87.0
155,58.583198591666665,58.91012091666667,64.0,86.0
156,58.583198591666665,59.104030727083334,67.0,81.0
157,59.35242759166667,59.809157310416666,57.0,79.0
158,59.35242759166667,59.82518291458334,61.0,75.0
159,59.35242759166667,59.9710159125,45.0,85.0
160,59.737042091666666,60.017490164583336,52.0,82.0
161,60.12165659166667,60.65530921041667,59.0,81.0
162,60.12165659166667,60.71941162708333,62.0,83.0
163,60.89088559166667,61.267487289583336,61.0,86.0
164,61.27550009166667,61.40049980416667,62.0,78.0
165,61.66011459166667,61.81396039166667,66.0,94.0
166,60.50627109166667,62.0863956625,54.0,71.0
167,60.12165659166667,62.11684431041667,47.0,87.0
168,62.04472909166667,62.19697233125,59.0,80.0
169,62.429343591666665,62.98863717708333,62.0,80.0
170,62.429343591666665,62.99664997916667,59.0,77.0
171,62.81395809166667,63.39568752291667,54.0,74.0
172,63.19857259166667,63.49825138958334,66.0,75.0
173,63.19857259166667,63.58158453125,59.0,81.0
174,63.19857259166667,63.66652023333334,62.0,81.0
175,64.35241609166667,64.66010769166667,62.0,59.0
176,64.35241609166667,64.72421010833334,59.0,76.0
177,63.96780159166667,64.76106899791667,71.0,87.0
178,63.583187091666666,64.76427411875,54.0,73.0
179,62.429343591666665,64.81074837083334,47.0,87.0
180,64.73703059166667,64.81074837083334,47.0,86.0
181,64.73703059166667,65.37805475833333,59.0,85.0
182,65.12164509166666,65.99343795833333,54.0,79.0
183,64.73703059166667,66.14247607708333,66.0,77.0
184,65.50625959166666,66.153694,62.0,80.0
185,65.89087409166667,66.17933496666667,59.0,83.0
186,66.27548859166667,66.46459072083333,59.0,86.0
187,66.27548859166667,66.52228289583334,62.0,87.0
188,66.27548859166667,66.55593666458334,66.0,82.0
189,67.04471759166667,67.58638301250001,57.0,80.0
190,67.04471759166667,67.85240804166666,61.0,75.0
191,67.81394659166666,68.27067631041668,57.0,88.0
192,68.19856109166668,68.30913776041668,61.0,92.0
193,68.58317559166667,68.7209957875,57.0,86.0
194,67.42933209166667,68.73862395208333,49.0,74.0
195,67.04471759166667,68.75464955625,42.0,87.0
196,68.58317559166667,68.82836733541667,61.0,92.0
197,68.58317559166667,68.93573888333333,66.0,84.0
198,68.96779009166667,69.05272579375,57.0,89.0
199,69.35240459166667,69.75144213541667,59.0,81.0
200,69.35240459166667,69.80272406875,55.0,85.0
201,70.12163359166667,70.29631267708334,59.0,86.0
202,70.12163359166667,70.46297896041666,62.0,86.0
203,70.50624809166666,70.57355562916666,55.0,68.0
204,70.89086259166668,71.01265718333333,55.0,88.0
205,70.89086259166668,71.0479135125,62.0,86.0
206,69.35240459166667,71.08316984166667,43.0,86.0
207,69.73701909166667,71.09278520416667,50.0,79.0
208,71.27547709166667,71.40207936458333,43.0,85.0
209,71.66009159166667,72.12964179375,57.0,80.0
210,71.66009159166667,72.19855189166667,66.0,80.0
211,72.42932059166667,72.59758943541667,57.0,85.0
212,72.42932059166667,72.78028132291666,62.0,85.0
213,72.81393509166666,73.02387050625,57.0,84.0
214,72.04470609166667,73.32995954583333,45.0,69.0
215,71.66009159166667,73.36842099583333,38.0,87.0
216,73.19854959166666,73.6055999375,62.0,87.0
217,73.58316409166667,73.9132915375,61.0,94.0
218,73.96777859166667,74.50784145208334,55.0,82.0
219,73.96777859166667,74.7690588,59.0,84.0
220,74.73700759166667,75.18732706875001,55.0,94.0
221,75.12162209166667,75.24341668333334,59.0,90.0
222,74.35239309166667,75.64565934791666,50.0,76.0
223,75.50623659166666,75.67610799583333,55.0,87.0
224,73.96777859166667,75.71296688541666,43.0,86.0
225,75.50623659166666,75.749825775,62.0,85.0
226,75.89085109166668,76.03988921041667,43.0,86.0
227,76.27546559166667,77.03668178958334,57.0,81.0
228,76.27546559166667,77.08796372291667,61.0,79.0
229,77.04469459166667,77.50943711250001,66.0,94.0
230,77.42930909166667,77.82834663541666,61.0,94.0
231,76.27546559166667,78.02065388541666,42.0,87.0
232,77.81392359166666,78.18411504791666,57.0,91.0
233,76.66008009166667,78.20494833333333,49.0,76.0
234,78.19853809166666,78.32994804583333,42.0,86.0
235,78.58315259166667,78.93731844375,55.0,83.0
236,78.58315259166667,79.00783110208333,59.0,82.0
237,78.96776709166667,79.45815057916667,47.0,76.0
238,79.35238159166667,79.45975313958334,52.0,85.0
239,78.58315259166667,79.49661202916667,40.0,87.0
240,79.35238159166667,79.60077845625,55.0,87.0
241,79.35238159166667,79.67129111458334,59.0,86.0
242,80.12161059166667,80.45975083958334,57.0,85.0
243,80.12161059166667,80.49660972916666,61.0,84.0
244,80.12161059166667,80.59436591458334,45.0,86.0
245,80.50622509166666,80.63282736458333,52.0,77.0
246,80.89083959166668,81.14885181875,59.0,72.0
247,80.89083959166668,81.33955650833333,62.0,77.0
248,81.27545409166667,81.55269704375,59.0,86.0
249,81.66006859166667,81.89724753333334,66.0,86.0
250,81.66006859166667,82.13602903541667,59.0,91.0
251,82.42929759166667,82.64243812708334,71.0,87.0
252,82.81391209166667,82.91968107916666,73.0,58.0
253,80.89083959166668,82.93089900208334,47.0,75.0
254,82.04468309166667,83.00141166041666,54.0,74.0
255,83.19852659166666,83.34115446875,71.0,85.0
256,83.19852659166666,83.34115446875,74.0,94.0
257,83.96775559166667,84.1824986875,59.0,85.0
258,83.96775559166667,84.35076753125,62.0,83.0
259,83.96775559166667,84.41967762916667,66.0,87.0
260,83.58314109166668,84.44852371666667,54.0,83.0
261,84.35237009166667,84.53986966041667,59.0,86.0
262,84.73698459166667,84.97416353333334,59.0,89.0
263,83.19852659166666,85.16166310208334,47.0,87.0
264,84.73698459166667,85.22416295833334,62.0,89.0
265,84.73698459166667,85.35076523125001,66.0,89.0
266,85.50621359166666,85.95012282708333,57.0,85.0
267,85.50621359166666,86.12960959375,66.0,85.0
268,86.27544259166667,86.69851854166667,62.0,89.0
269,85.89082809166666,87.03826135,45.0,78.0
270,85.50621359166666,87.09755608541667,38.0,89.0
271,86.66005709166667,87.12960729375,57.0,87.0
272,87.04467159166667,87.42768353125,62.0,96.0
273,87.42928609166667,87.65043942916667,64.0,85.0
274,87.62159334166667,87.82031083333334,62.0,80.0
275,87.81390059166667,88.44691195625,61.0,90.0
276,88.58312959166668,88.74659075416668,57.0,85.0
277,88.58312959166668,89.00780810208333,61.0,74.0
278,88.58312959166668,89.11197452916667,64.0,84.0
279,88.96774409166667,89.45331989791667,57.0,80.0
280,89.35235859166667,89.47415318333334,61.0,86.0
281,89.35235859166667,89.50620439166667,64.0,86.0
282,88.19851509166666,89.5863324125,52.0,85.0
283,87.81390059166667,89.65524251041667,45.0,86.0
284,89.35235859166667,89.79146014583334,69.0,83.0
285,90.12158759166667,90.41165102708334,67.0,80.0
286,90.50620209166667,90.96613693125,47.0,84.0
287,90.12158759166667,90.99338045833333,40.0,87.0
288,90.89081659166666,91.2786362125,52.0,99.0
289,91.27543109166668,91.36036679375,55.0,94.0
290,91.66004559166667,91.88119892916667,57.0,86.0
291,91.66004559166667,91.99498071875,61.0,91.0
292,91.85235284166667,92.27703135208334,52.0,87.0
293,91.66004559166667,92.30427487916667,45.0,87.0
294,92.04466009166667,92.31869792291667,57.0,87.0
295,92.23696734166667,92.35235169166667,61.0,96.0
296,92.42927459166667,93.08472180208334,59.0,85.0
297,92.81388909166667,93.34754171041666,54.0,81.0
298,92.42927459166667,93.45811837916666,66.0,84.0
299,93.19850359166666,93.60715649791668,59.0,91.0
300,93.19850359166666,93.63920770625,62.0,90.0
301,93.77542534166668,93.84914312083333,59.0,86.0
302,93.58311809166666,94.01100172291667,54.0,77.0
303,93.96773259166667,94.16805264375,59.0,92.0
304,94.16003984166667,94.27061651041667,54.0,87.0
305,92.42927459166667,94.31548820208333,47.0,85.0
306,93.96773259166667,94.47253912291667,66.0,85.0
307,94.35234709166667,94.52702617708334,59.0,86.0
308,94.73696159166667,94.980550775,57.0,87.0
309,94.73696159166667,95.20811435416667,62.0,85.0
310,95.12157609166667,95.50779315208334,57.0,88.0
311,95.50619059166667,95.87798460833334,66.0,91.0
312,95.89080509166666,96.11516355,57.0,85.0
313,96.27541959166668,96.42766283125,57.0,85.0
314,96.27541959166668,96.44368843541668,62.0,86.0
315,94.73696159166667,96.53984206041667,50.0,79.0
316,96.66003409166667,96.85875158333333,64.0,90.0
317,96.85234134166667,97.05907163541667,62.0,85.0
318,97.04464859166667,97.56548072708334,61.0,89.0
319,97.42926309166667,98.01419764375001,52.0,73.0
320,97.81387759166667,98.03022324791667,57.0,85.0
321,97.81387759166667,98.03663348958334,64.0,87.0
322,97.81387759166667,98.08471030208334,61.0,87.0
323,98.19849209166667,98.78022152291668,52.0,76.0
324,98.58310659166666,98.78983688541668,57.0,81.0
325,97.04464859166667,98.89881099375,45.0,86.0
326,98.58310659166666,98.942080125,69.0,78.0
327,98.58310659166666,99.134387375,61.0,81.0
328,98.96772109166668,99.25618196666667,57.0,80.0
329,100.12156459166667,100.2786155125,52.0,86.0
330,100.12156459166667,100.44688435625001,55.0,85.0
331,100.50617909166667,100.85553726250001,52.0,79.0
332,100.89079359166666,100.96931905208334,55.0,89.0
333,100.89079359166666,101.01258818333334,59.0,87.0
334,99.73695009166667,101.03021634791666,47.0,81.0
335,99.35233559166667,101.07508803958333,40.0,89.0
336,101.66002259166667,102.07348317916667,54.0,84.0
337,101.66002259166667,102.08470110208334,66.0,78.0
338,102.42925159166667,102.56867434791667,54.0,84.0
339,102.42925159166667,102.69367406041667,66.0,81.0
340,102.81386609166667,102.97732725416667,58.0,80.0
341,102.81386609166667,102.99014773750001,54.0,80.0
342,102.04463709166667,103.31226238125001,49.0,86.0
343,103.19848059166667,103.39880064375001,54.0,89.0
344,101.66002259166667,103.40200576458334,42.0,86.0
345,103.19848059166667,103.44046721458334,58.0,88.0
346,103.19848059166667,103.44206977500001,61.0,89.0
347,103.19848059166667,103.6247616625,66.0,85.0
348,103.58309509166666,103.8555303625,54.0,94.0
349,103.39078784166666,103.88758157083333,49.0,87.0
350,103.77540234166668,103.91161997708333,58.0,85.0
351,103.96770959166668,104.30264471875,66.0,91.0
352,104.35232409166667,104.6247593625,59.0,84.0
353,104.54463134166667,104.71610530625,62.0,86.0
354,104.73693859166667,104.96770729166667,66.0,92.0
355,104.92924584166667,105.09751468541667,62.0,86.0
356,105.12155309166667,105.37796275833334,59.0,92.0
357,105.31386034166667,105.48212918541667,62.0,87.0
358,104.16001684166667,105.68725691875001,54.0,79.0
359,105.50616759166667,105.75937213750001,66.0,97.0
360,103.96770959166668,105.80744895000001,47.0,91.0
361,105.69847484166667,105.85392320208334,62.0,92.0
362,105.89078209166667,106.15039687916666,59.0,91.0
363,106.08308934166666,106.20488393333333,62.0,79.0
364,106.66001109166668,106.85872858333333,61.0,92.0
365,106.85231834166667,107.06065119583333,57.0,88.0
366,107.04462559166667,107.2209072375,66.0,91.0
367,107.23693284166667,107.42443241041667,61.0,94.0
368,107.42924009166667,107.73372657083334,57.0,91.0
369,107.62154734166667,107.826675075,61.0,92.0
370,107.81385459166667,108.02859768750001,66.0,97.0
371,106.46770384166668,108.13436667500001,49.0,87.0
372,106.27539659166666,108.13596923541667,42.0,93.0
373,108.00616184166667,108.16802044375001,61.0,98.0
374,108.19846909166667,108.45968643958334,57.0,87.0
375,108.39077634166667,108.47731460416666,61.0,93.0
376,108.58308359166666,108.942057125,59.0,91.0
377,108.96769809166668,109.21288983541668,55.0,91.0
378,109.16000534166668,109.3170562625,59.0,89.0
379,109.35231259166667,109.5478249625,62.0,87.0
380,109.54461984166667,109.73532453125,59.0,89.0
381,109.73692709166667,110.03019564791667,55.0,90.0
382,109.92923434166667,110.09269550416667,59.0,92.0
383,110.12154159166667,110.32506676458334,62.0,93.0
384,110.31384884166667,110.48211768541667,59.0,93.0
385,108.77539084166666,110.48372024583334,50.0,86.0
386,108.58308359166666,110.56865594791667,43.0,91.0
387,110.50615609166667,110.82025793333334,55.0,90.0
388,110.69846334166667,110.95006532708334,59.0,93.0
389,111.27538509166666,111.44846161666668,62.0,89.0
390,111.46769234166668,111.68724311875,57.0,90.0
391,111.65999959166668,111.85070428125,62.0,91.0
392,111.85230684166667,112.06865249791667,57.0,83.0
393,112.04461409166667,112.06865249791667,57.0,82.0
394,112.04461409166667,112.24493414375,62.0,85.0
395,112.42922859166667,112.80422772916667,66.0,92.0
396,112.62153584166667,112.8458943,57.0,92.0
397,112.81384309166667,112.8458943,57.0,78.0
398,110.89077059166667,112.90839415625,50.0,98.0
399,112.81384309166667,113.018970825,62.0,82.0
400,113.58307209166666,113.78178958333334,62.0,87.0
401,113.77537934166666,113.96287891041668,59.0,90.0
402,113.96768659166668,114.17441688541668,66.0,93.0
403,114.15999384166668,114.38114717916667,59.0,88.0
404,114.35230109166667,114.54300578125,62.0,85.0
405,114.54460834166667,114.73531303125,59.0,88.0
406,113.39076484166667,114.95326124791667,54.0,82.0
407,113.19845759166667,115.05903023541667,47.0,92.0
408,114.92922284166667,115.14076081666667,59.0,92.0
409,114.73691559166667,115.19204275,66.0,91.0
410,115.12153009166667,115.33146550625,62.0,77.0
411,115.31383734166667,115.518965075,59.0,92.0
412,115.89075909166667,116.17280972500001,57.0,88.0
413,116.08306634166667,116.26575822916666,61.0,93.0
414,116.27537359166666,116.48851412708333,66.0,93.0
415,116.46768084166668,116.65197528958333,61.0,95.0
416,116.65998809166668,117.05582051458333,57.0,91.0
417,116.85229534166668,117.06864099791667,61.0,98.0
418,117.04460259166667,117.27056361041667,66.0,96.0
419,115.69845184166667,117.28658921458333,49.0,82.0
420,115.50614459166667,117.31864042291667,42.0,89.0
421,117.23690984166667,117.41158892708334,61.0,95.0
422,117.42921709166667,117.5670372875,57.0,91.0
423,117.81383159166667,117.94363898541667,59.0,84.0
424,117.81383159166667,118.03979261041667,64.0,91.0
425,118.00613884166667,118.23209986041667,59.0,84.0
426,118.19844609166667,118.36671493541667,64.0,90.0
427,118.39075334166667,118.59427851458334,59.0,85.0
428,118.58306059166667,118.80902161041666,67.0,84.0
429,118.77536784166666,118.980495575,59.0,89.0
430,118.96767509166666,119.15677722083333,64.0,92.0
431,119.15998234166668,119.39075104166668,59.0,92.0
432,119.35228959166668,119.51414819375,64.0,96.0
433,117.81383159166667,119.55260964375,52.0,96.0
434,119.54459684166667,119.72889128958333,59.0,92.0
435,119.73690409166667,119.92921134166667,67.0,84.0
436,119.92921134166667,120.134339075,59.0,92.0
437,120.50613309166667,120.87151686666667,54.0,86.0
438,120.69844034166667,120.92920904166667,58.0,75.0
439,120.89074759166667,121.14234957708334,61.0,84.0
440,121.08305484166667,121.28177233333334,58.0,84.0
441,121.27536209166666,121.57023320833333,54.0,95.0
442,121.46766934166666,121.71606620625,58.0,87.0
443,121.65997659166668,121.86830944583333,66.0,91.0
444,121.85228384166668,122.05260389375,58.0,84.0
445,122.04459109166667,122.27696235208333,54.0,94.0
446,122.23689834166667,122.3747185375,58.0,87.0
447,120.12151859166667,122.49491056875,42.0,92.0
448,120.31382584166667,122.51574385416667,49.0,91.0
449,122.42920559166667,122.76414071875,66.0,91.0
450,122.81382009166667,123.0862553625,59.0,84.0
451,123.00612734166667,123.17760130625,62.0,86.0
452,123.19843459166667,123.42920329166667,66.0,92.0
453,123.39074184166667,123.55901068541667,62.0,86.0
454,123.58304909166667,123.83945875833334,59.0,92.0
455,123.77535634166667,123.94362518541666,62.0,87.0
456,122.62151284166667,124.14875291875,54.0,79.0
457,123.96766359166666,124.2208681375,66.0,97.0
458,122.42920559166667,124.26894495,47.0,91.0
459,124.15997084166668,124.31541920208333,62.0,92.0
460,124.35227809166668,124.61189287916667,59.0,91.0
461,124.54458534166668,124.66637993333333,62.0,79.0
462,125.12150709166667,125.32022458333334,61.0,92.0
463,125.31381434166667,125.52214719583334,57.0,88.0
464,125.50612159166667,125.6824032375,66.0,91.0
465,125.69842884166667,125.88592841041667,61.0,94.0
466,125.89073609166667,126.19522257083334,57.0,91.0
467,126.08304334166667,126.28817107500001,61.0,92.0
468,126.27535059166667,126.4900936875,66.0,97.0
469,124.92919984166667,126.595862675,49.0,87.0
470,124.73689259166667,126.59746523541666,42.0,93.0
471,126.46765784166666,126.62951644375,61.0,98.0
472,126.65996509166668,126.92118243958333,57.0,87.0
473,126.85227234166668,126.93881060416668,61.0,93.0
474,127.04457959166668,127.403553125,59.0,91.0
475,127.42919409166667,127.67438583541667,55.0,91.0
476,127.62150134166667,127.7785522625,59.0,89.0
477,127.81380859166667,128.0093209625,62.0,87.0
478,128.00611584166668,128.19682053125,59.0,89.0
479,128.19842309166668,128.49169164791667,55.0,90.0
480,128.39073034166668,128.55419150416668,59.0,92.0
481,128.58303759166668,128.78656276458335,62.0,93.0
482,128.77534484166668,128.94361368541666,59.0,93.0
483,127.23688684166667,128.94521624583334,50.0,86.0
484,127.04457959166668,129.03015194791666,43.0,91.0
485,128.96765209166668,129.28175393333333,55.0,90.0
486,129.15995934166668,129.41156132708335,59.0,93.0
487,129.73688109166667,129.90995761666667,62.0,89.0
488,129.92918834166667,130.14873911875,57.0,90.0
489,130.12149559166667,130.31220028125,62.0,91.0
490,130.31380284166667,130.53014849791668,57.0,83.0
491,130.50611009166667,130.53014849791668,57.0,82.0
492,130.50611009166667,130.70643014375,62.0,85.0
493,130.89072459166667,131.26572372916667,66.0,92.0
494,131.08303184166667,131.3073903,57.0,92.0
495,131.27533909166667,131.3073903,57.0,78.0
496,129.35226659166668,131.36989015625,50.0,98.0
497,131.27533909166667,131.480466825,62.0,82.0
498,132.04456809166666,132.24328558333335,62.0,87.0
499,132.23687534166666,132.42437491041667,59.0,90.0
500,132.42918259166666,132.63591288541667,66.0,93.0
501,132.62148984166666,132.84264317916666,59.0,88.0
502,132.81379709166666,133.00450178125,62.0,85.0
503,133.00610434166668,133.19680903125,59.0,88.0
504,131.85226084166666,133.41475724791667,54.0,82.0
505,131.65995359166666,133.52052623541667,47.0,92.0
506,133.39071884166668,133.60225681666668,59.0,92.0
507,133.19841159166668,133.65353875,66.0,91.0
508,133.58302609166668,133.79296150625,62.0,77.0
509,133.77533334166668,133.980461075,59.0,92.0
510,134.35225509166668,134.634305725,57.0,88.0
511,134.54456234166668,134.72725422916668,61.0,93.0
512,134.73686959166668,134.95001012708335,66.0,93.0
513,134.92917684166667,135.11347128958334,61.0,95.0
514,135.12148409166667,135.51731651458334,57.0,91.0
515,135.31379134166667,135.53013699791669,61.0,98.0
516,135.50609859166667,135.73205961041668,66.0,96.0
517,134.15994784166668,135.74808521458334,49.0,82.0
518,133.96764059166668,135.78013642291668,42.0,89.0
519,135.69840584166667,135.87308492708334,61.0,95.0
520,135.89071309166667,136.0285332875,57.0,91.0
521,136.65994209166666,137.00128746041668,52.0,87.0
522,136.85224934166666,137.07019755833335,59.0,85.0
523,137.04455659166666,137.30577393958333,64.0,93.0
524,136.46763484166667,137.33462002708333,47.0,85.0
525,136.27532759166667,137.38109427916666,40.0,95.0
526,137.23686384166666,137.480453025,59.0,89.0
527,137.42917109166666,137.64872186875002,52.0,94.0
528,137.62147834166666,137.78493950416666,59.0,91.0
529,137.81378559166666,138.42275855,45.0,93.0
530,138.19840009166668,138.44038671458333,57.0,91.0
531,138.00609284166666,138.44679695625,52.0,86.0
532,138.39070734166668,138.56218130625,61.0,91.0
533,138.96762909166668,139.12628257291667,62.0,86.0
534,139.15993634166668,139.32339750416668,59.0,93.0
535,139.35224359166668,139.64871726875,66.0,93.0
536,139.54455084166668,139.81217843125,59.0,92.0
537,139.73685809166668,140.00929336250002,62.0,90.0
538,139.92916534166667,140.11987003125,66.0,91.0
539,140.12147259166667,140.37307457708334,71.0,93.0
540,140.31377984166667,140.58140743125,66.0,90.0
541,140.50608709166667,140.79454796666667,62.0,87.0
542,138.58301459166668,140.91153487708334,47.0,94.0
543,140.89070159166667,140.91153487708334,47.0,86.0
544,140.69839434166667,140.91794511875,59.0,96.0
545,140.89070159166667,140.91794511875,59.0,78.0
546,140.89070159166667,141.61666146041668,62.0,80.0
547,141.27531609166667,141.86185320416666,54.0,75.0
548,141.65993059166667,142.0092887625,66.0,90.0
549,142.04454509166666,142.42755703125002,54.0,70.0
550,142.42915959166666,142.59101819375002,66.0,76.0
551,142.42915959166666,142.75447935625002,71.0,85.0
552,142.42915959166666,142.788133125,62.0,84.0
553,142.81377409166666,142.90992771666666,59.0,92.0
554,143.19838859166668,143.95960478958332,55.0,81.0
555,143.19838859166668,144.00447648125,59.0,80.0
556,143.96761759166668,144.41633450833334,62.0,81.0
557,144.35223209166668,144.59902639583333,55.0,74.0
558,143.58300309166668,144.96280761041666,50.0,72.0
559,144.73684659166668,144.99005113750002,55.0,82.0
560,144.73684659166668,145.08780732291666,59.0,85.0
561,143.19838859166668,145.18075582708335,43.0,85.0
562,144.73684659166668,145.26088384791666,67.0,80.0
563,145.12146109166667,145.28011457291666,50.0,87.0
564,145.50607559166667,146.26729178958334,57.0,77.0
565,145.50607559166667,146.30094555833332,61.0,77.0
566,146.27530459166667,146.66152165208334,64.0,86.0
567,146.65991909166667,146.90190571458334,57.0,86.0
568,147.04453359166666,147.3169688625,57.0,86.0
569,147.04453359166666,147.35382775208333,61.0,85.0
570,145.50607559166667,147.50607099166666,45.0,86.0
571,145.89069009166667,147.55094268333335,52.0,77.0
572,147.42914809166666,147.71600640625002,62.0,84.0
573,147.81376259166666,148.461197,59.0,79.0
574,147.81376259166666,148.461197,62.0,87.0
575,148.58299159166668,149.18875942916668,66.0,87.0
576,148.96760609166668,149.20318247291667,59.0,81.0
577,149.35222059166668,149.49805358958335,62.0,75.0
578,149.35222059166668,149.53170735833334,59.0,70.0
579,148.19837709166666,149.54132272083334,54.0,59.0
580,147.81376259166666,149.62786098333333,47.0,87.0
581,150.12144959166667,150.71279438541666,59.0,84.0
582,150.12144959166667,150.95638356875,66.0,83.0
583,150.50606409166667,151.03010134791668,54.0,79.0
584,150.89067859166667,151.36183135416667,59.0,88.0
585,151.27529309166667,151.71599720625,54.0,85.0
586,151.65990759166667,151.81215083125,59.0,81.0
587,150.12144959166667,151.86343276458334,47.0,87.0
588,151.65990759166667,152.03811185,62.0,85.0
589,152.42913659166666,153.14067341666666,55.0,81.0
590,152.42913659166666,153.18554510833334,62.0,81.0
591,152.81375109166666,153.557339125,50.0,75.0
592,153.19836559166666,153.59740313541667,59.0,81.0
593,153.58298009166668,154.15990184166668,55.0,88.0
594,152.42913659166666,154.41951662916668,43.0,84.0
595,154.35220909166668,154.46278576041666,55.0,86.0
596,153.96759459166668,154.54611890208335,50.0,81.0
597,154.73682359166668,155.14066881666668,61.0,78.0
598,154.73682359166668,155.41630920833333,57.0,80.0
599,155.50605259166667,155.86342356458334,64.0,87.0
600,155.89066709166667,156.11021786875,57.0,85.0
601,154.73682359166668,156.50284517083333,45.0,85.0
602,155.12143809166668,156.56213990625,52.0,81.0
603,156.27528159166667,156.57335782916667,61.0,84.0
604,157.04451059166666,157.6630989125,59.0,78.0
605,157.04451059166666,157.87944456875002,62.0,82.0
606,157.81373959166666,158.32495636458333,66.0,85.0
607,158.19835409166666,158.32976404583334,59.0,65.0
608,158.58296859166668,158.77207072083334,62.0,79.0
609,158.58296859166668,158.81373729166668,66.0,83.0
610,157.42912509166666,159.03809575,54.0,72.0
611,157.04451059166666,159.08777512291667,47.0,79.0
612,159.35219759166668,159.91149117708335,59.0,84.0
613,159.35219759166668,160.02367040625,66.0,84.0
614,159.73681209166668,160.23040070000002,54.0,73.0
615,160.12142659166668,160.83937365833333,59.0,86.0
616,160.12142659166668,160.90347607500001,62.0,86.0
617,160.50604109166667,160.91629655833333,54.0,79.0
618,159.35219759166668,161.04930907291669,47.0,85.0
619,160.89065559166667,161.19994975208334,66.0,92.0
620,160.89065559166667,161.20475743333333,71.0,96.0
621,161.27527009166667,161.42911589166667,59.0,86.0
622,161.27527009166667,161.58135913125,73.0,91.0
623,161.65988459166667,162.10379382708334,57.0,85.0
624,161.65988459166667,162.28328059375,66.0,85.0
625,162.42911359166666,162.85218954166666,62.0,89.0
626,162.04449909166667,163.19193235,45.0,78.0
627,161.65988459166667,163.25122708541667,38.0,89.0
628,162.81372809166666,163.28327829375002,57.0,87.0
629,163.19834259166666,163.58135453125,62.0,96.0
630,163.58295709166669,163.80411042916668,64.0,85.0
631,163.77526434166668,163.97398183333334,62.0,80.0
632,163.96757159166668,164.60058295625,61.0,90.0
633,164.73680059166668,164.90026175416668,57.0,85.0
634,164.73680059166668,165.16147910208335,61.0,74.0
635,164.73680059166668,165.26564552916668,64.0,84.0
636,165.12141509166668,165.60699089791666,57.0,80.0
637,165.50602959166667,165.62782418333333,61.0,86.0
638,165.50602959166667,165.65987539166667,64.0,86.0
639,164.35218609166668,165.74000341250002,52.0,85.0
640,163.96757159166668,165.80891351041666,45.0,86.0
641,165.50602959166667,165.94513114583333,69.0,83.0
642,166.27525859166667,166.56532202708334,67.0,80.0
643,166.65987309166667,167.11980793125,47.0,84.0
644,166.27525859166667,167.14705145833335,40.0,87.0
645,167.04448759166667,167.4323072125,52.0,99.0
646,167.42910209166666,167.51403779375,55.0,94.0
647,167.81371659166666,168.03486992916666,57.0,86.0
648,167.81371659166666,168.14865171875002,61.0,91.0
649,168.00602384166666,168.43070235208333,52.0,87.0
650,167.81371659166666,168.45794587916666,45.0,87.0
651,168.19833109166666,168.47236892291667,57.0,87.0
652,168.39063834166666,168.50602269166666,61.0,96.0
653,168.5829455916667,169.23839280208333,59.0,85.0
654,168.96756009166668,169.50121271041667,54.0,81.0
655,168.5829455916667,169.61178937916668,66.0,84.0
656,169.35217459166668,169.76082749791667,59.0,91.0
657,169.35217459166668,169.79287870625,62.0,90.0
658,169.92909634166668,170.00281412083334,59.0,86.0
659,169.73678909166668,170.16467272291666,54.0,77.0
660,170.12140359166668,170.32172364375,59.0,92.0
661,170.31371084166668,170.42428751041666,54.0,87.0
662,168.5829455916667,170.46915920208335,47.0,85.0
663,170.12140359166668,170.62621012291666,66.0,85.0
664,170.50601809166668,170.68069717708335,59.0,86.0
665,170.89063259166667,171.13422177500001,57.0,87.0
666,170.89063259166667,171.36178535416667,62.0,85.0
667,171.27524709166667,171.66146415208334,57.0,88.0
668,171.65986159166667,172.03165560833335,66.0,91.0
669,172.04447609166667,172.26883455,57.0,85.0
670,172.42909059166666,172.58133383125,57.0,85.0
671,172.42909059166666,172.59735943541668,62.0,86.0
672,170.89063259166667,172.69351306041668,50.0,79.0
673,172.81370509166666,173.01242258333335,64.0,90.0
674,173.00601234166666,173.21274263541667,62.0,85.0
675,173.19831959166666,173.71915172708333,61.0,89.0
676,173.58293409166666,174.16786864375,52.0,73.0
677,173.96754859166668,174.18389424791667,57.0,85.0
678,173.96754859166668,174.19030448958333,64.0,87.0
679,173.96754859166668,174.23838130208333,61.0,87.0
680,174.35216309166668,174.93389252291666,52.0,76.0
681,174.73677759166668,174.94350788541666,57.0,81.0
682,173.19831959166666,175.05248199375,45.0,86.0
683,174.73677759166668,175.095751125,69.0,78.0
684,174.73677759166668,175.288058375,61.0,81.0
685,175.12139209166668,175.40985296666668,57.0,80.0
686,176.27523559166667,176.4322865125,52.0,86.0
687,176.27523559166667,176.60055535625,55.0,85.0
688,176.65985009166667,177.0092082625,52.0,79.0
689,177.04446459166667,177.12299005208334,55.0,89.0
690,177.04446459166667,177.16625918333335,59.0,87.0
691,175.89062109166667,177.18388734791668,47.0,81.0
692,175.50600659166668,177.22875903958334,40.0,89.0
693,177.81369359166666,178.22715417916666,54.0,84.0
694,177.81369359166666,178.23837210208333,66.0,78.0
695,178.58292259166666,178.72234534791667,54.0,84.0
696,178.58292259166666,178.84734506041667,66.0,81.0
697,178.96753709166669,179.13099825416668,58.0,80.0
698,178.96753709166669,179.1438187375,54.0,80.0
699,178.19830809166666,179.46593338125,49.0,86.0
700,179.35215159166668,179.55247164375,54.0,89.0
701,177.81369359166666,179.55567676458332,42.0,86.0
702,179.35215159166668,179.59413821458335,58.0,88.0
703,179.35215159166668,179.595740775,61.0,89.0
704,179.35215159166668,179.7784326625,66.0,85.0
705,179.73676609166668,180.0092013625,54.0,94.0
706,179.54445884166668,180.04125257083334,49.0,87.0
707,179.92907334166668,180.06529097708335,58.0,85.0
708,180.12138059166668,180.45631571875,66.0,91.0
709,180.50599509166668,180.77843036250002,59.0,84.0
710,180.69830234166668,180.86977630625,62.0,86.0
711,180.89060959166667,181.12137829166667,66.0,92.0
712,181.08291684166667,181.25118568541666,62.0,86.0
713,181.27522409166667,181.53163375833333,59.0,92.0
714,181.46753134166667,181.63580018541668,62.0,87.0
715,180.31368784166668,181.84092791875,54.0,79.0
716,181.65983859166667,181.9130431375,66.0,97.0
717,180.12138059166668,181.96111995,47.0,91.0
718,181.85214584166667,182.00759420208334,62.0,92.0
719,182.04445309166667,182.30406787916667,59.0,91.0
720,182.23676034166667,182.35855493333335,62.0,79.0
721,182.81368209166666,183.01239958333335,61.0,92.0
722,183.00598934166666,183.21432219583335,57.0,88.0
723,183.19829659166666,183.3745782375,66.0,91.0
724,183.39060384166666,183.57810341041667,61.0,94.0
725,183.58291109166666,183.88739757083334,57.0,91.0
726,183.77521834166666,183.980346075,61.0,92.0
727,183.96752559166669,184.1822686875,66.0,97.0
728,182.62137484166666,184.288037675,49.0,87.0
729,182.42906759166667,184.28964023541667,42.0,93.0
730,184.15983284166668,184.32169144375,61.0,98.0
731,184.35214009166668,184.61335743958333,57.0,87.0
732,184.54444734166668,184.63098560416668,61.0,93.0
733,184.73675459166668,185.095728125,59.0,91.0
734,185.12136909166668,185.36656083541666,55.0,91.0
735,185.31367634166668,185.4707272625,59.0,89.0
736,185.50598359166668,185.70149596250002,62.0,87.0
737,185.69829084166668,185.88899553125,59.0,89.0
738,185.89059809166667,186.18386664791666,55.0,90.0
739,186.08290534166667,186.24636650416667,59.0,92.0
740,186.27521259166667,186.47873776458334,62.0,93.0
741,186.46751984166667,186.63578868541668,59.0,93.0
742,184.92906184166668,186.63739124583333,50.0,86.0
743,184.73675459166668,186.72232694791668,43.0,91.0
744,186.65982709166667,186.97392893333333,55.0,90.0
745,186.85213434166667,187.10373632708334,59.0,93.0
746,187.42905609166667,187.60213261666667,62.0,89.0
747,187.62136334166667,187.84091411875,57.0,90.0
748,187.81367059166666,188.00437528125,62.0,91.0
749,188.00597784166666,188.22232349791668,57.0,83.0
750,188.19828509166666,188.22232349791668,57.0,82.0
751,188.19828509166666,188.39860514375002,62.0,85.0
752,188.58289959166666,188.9578987291667,66.0,92.0
753,188.77520684166666,188.9995653,57.0,92.0
754,188.9675140916667,188.9995653,57.0,78.0
755,187.04444159166667,189.06206515625001,50.0,98.0
756,188.9675140916667,189.172641825,62.0,82.0
757,189.73674309166668,189.93546058333334,62.0,87.0
758,189.92905034166668,190.11654991041667,59.0,90.0
759,190.12135759166668,190.32808788541666,66.0,93.0
760,190.31366484166668,190.53481817916668,59.0,88.0
761,190.50597209166668,190.69667678125,62.0,85.0
762,190.69827934166668,190.88898403125,59.0,88.0
763,189.54443584166668,191.10693224791666,54.0,82.0
764,189.35212859166668,191.21270123541666,47.0,92.0
765,191.08289384166667,191.29443181666667,59.0,92.0
766,190.89058659166668,191.34571375000002,66.0,91.0
767,191.27520109166667,191.48513650625,62.0,77.0
768,191.46750834166667,191.672636075,59.0,92.0
769,192.04443009166667,192.326480725,57.0,88.0
770,192.23673734166667,192.41942922916667,61.0,93.0
771,192.42904459166667,192.64218512708334,66.0,93.0
772,192.62135184166667,192.80564628958334,61.0,95.0
773,192.81365909166666,193.20949151458333,57.0,91.0
774,193.00596634166666,193.22231199791668,61.0,98.0
775,193.19827359166666,193.42423461041668,66.0,96.0
776,191.85212284166667,193.44026021458333,49.0,82.0
777,191.65981559166667,193.47231142291668,42.0,89.0
778,193.39058084166666,193.56525992708333,61.0,95.0
779,193.58288809166666,193.7207082875,57.0,91.0
780,193.9675025916667,194.09730998541667,59.0,84.0
781,193.9675025916667,194.19346361041667,64.0,91.0
782,194.15980984166669,194.38577086041667,59.0,84.0
783,194.35211709166668,194.52038593541667,64.0,90.0
784,194.54442434166668,194.74794951458333,59.0,85.0
785,194.73673159166668,194.96269261041667,67.0,84.0
786,194.92903884166668,195.134166575,59.0,89.0
787,195.12134609166668,195.31044822083334,64.0,92.0
788,195.31365334166668,195.54442204166668,59.0,92.0
789,195.50596059166668,195.66781919375,64.0,96.0
790,193.9675025916667,195.70628064375,52.0,96.0
791,195.69826784166668,195.88256228958335,59.0,92.0
792,195.89057509166668,196.08288234166668,67.0,84.0
793,196.08288234166668,196.28801007500002,59.0,92.0
794,196.65980409166667,197.02518786666667,54.0,86.0
795,196.85211134166667,197.08288004166667,58.0,75.0
796,197.04441859166667,197.29602057708334,61.0,84.0
797,197.23672584166667,197.43544333333335,58.0,84.0
798,197.42903309166667,197.72390420833335,54.0,95.0
799,197.62134034166667,197.86973720625,58.0,87.0
800,197.81364759166667,198.02198044583335,66.0,91.0
801,198.00595484166666,198.20627489375002,58.0,84.0
802,198.19826209166666,198.43063335208333,54.0,94.0
803,198.39056934166666,198.5283895375,58.0,87.0
804,196.27518959166667,198.64858156875002,42.0,92.0
805,196.46749684166667,198.66941485416666,49.0,91.0
806,198.58287659166666,198.91781171875002,66.0,91.0
807,198.96749109166666,199.2399263625,59.0,84.0
808,199.1597983416667,199.33127230625,62.0,86.0
809,199.35210559166669,199.58287429166668,66.0,92.0
810,199.54441284166668,199.71268168541667,62.0,86.0
811,199.73672009166668,199.99312975833334,59.0,92.0
812,199.92902734166668,200.09729618541667,62.0,87.0
813,198.77518384166666,200.30242391875,54.0,79.0
814,200.12133459166668,200.3745391375,66.0,97.0
815,198.58287659166666,200.42261595,47.0,91.0
816,200.31364184166668,200.46909020208335,62.0,92.0
817,200.50594909166668,200.76556387916668,59.0,91.0
818,200.69825634166668,200.82005093333333,62.0,79.0
819,201.27517809166667,201.47389558333333,61.0,92.0
820,201.46748534166667,201.67581819583333,57.0,88.0
821,201.65979259166667,201.83607423750001,66.0,91.0
822,201.85209984166667,202.03959941041668,61.0,94.0
823,202.04440709166667,202.34889357083333,57.0,91.0
824,202.23671434166667,202.441842075,61.0,92.0
825,202.42902159166667,202.6437646875,66.0,97.0
826,201.08287084166668,202.749533675,49.0,87.0
827,200.89056359166668,202.75113623541668,42.0,93.0
828,202.62132884166667,202.78318744375,61.0,98.0
829,202.81363609166667,203.07485343958334,57.0,87.0
830,203.00594334166666,203.09248160416666,61.0,93.0
831,203.19825059166666,203.557224125,59.0,91.0
832,203.58286509166666,203.82805683541667,55.0,91.0
833,203.77517234166666,203.9322232625,59.0,89.0
834,203.96747959166666,204.1629919625,62.0,87.0
835,204.1597868416667,204.35049153125001,59.0,89.0
836,204.3520940916667,204.64536264791667,55.0,90.0
837,204.54440134166668,204.70786250416668,59.0,92.0
838,204.73670859166668,204.94023376458333,62.0,93.0
839,204.92901584166668,205.09728468541667,59.0,93.0
840,203.39055784166666,205.09888724583334,50.0,86.0
841,203.19825059166666,205.18382294791667,43.0,91.0
842,205.12132309166668,205.43542493333334,55.0,90.0
843,205.31363034166668,205.56523232708335,59.0,93.0
844,205.89055209166668,206.06362861666668,62.0,89.0
845,206.08285934166668,206.30241011875,57.0,90.0
846,206.27516659166668,206.46587128125,62.0,91.0
847,206.46747384166667,206.6838194979167,57.0,83.0
848,206.65978109166667,206.6838194979167,57.0,82.0
849,206.65978109166667,206.86010114375,62.0,85.0
850,207.04439559166667,207.41939472916667,66.0,92.0
851,207.23670284166667,207.4610613,57.0,92.0
852,207.42901009166667,207.4610613,57.0,78.0
853,205.50593759166668,207.52356115625,50.0,98.0
854,207.42901009166667,207.634137825,62.0,82.0
855,208.19823909166666,208.39695658333335,62.0,87.0
856,208.39054634166666,208.57804591041668,59.0,90.0
857,208.58285359166666,208.78958388541668,66.0,93.0
858,208.77516084166666,208.99631417916666,59.0,88.0
859,208.96746809166666,209.15817278125002,62.0,85.0
860,209.15977534166666,209.35048003125002,59.0,88.0
861,208.00593184166667,209.56842824791667,54.0,82.0
862,207.81362459166667,209.67419723541667,47.0,92.0
863,209.54438984166669,209.75592781666668,59.0,92.0
864,209.3520825916667,209.80720975,66.0,91.0
865,209.73669709166668,209.94663250625,62.0,77.0
866,209.92900434166668,210.134132075,59.0,92.0
867,210.50592609166668,210.787976725,57.0,88.0
868,210.69823334166668,210.88092522916668,61.0,93.0
869,210.89054059166668,211.10368112708335,66.0,93.0
870,211.08284784166668,211.26714228958335,61.0,95.0
871,211.27515509166668,211.67098751458335,57.0,91.0
872,211.46746234166667,211.68380799791666,61.0,98.0
873,211.65976959166667,211.8857306104167,66.0,96.0
874,210.31361884166668,211.90175621458334,49.0,82.0
875,210.12131159166668,211.9338074229167,42.0,89.0
876,211.85207684166667,212.02675592708334,61.0,95.0
877,212.04438409166667,212.1822042875,57.0,91.0
878,212.81361309166667,213.15495846041668,52.0,87.0
879,213.00592034166667,213.22386855833335,59.0,85.0
880,213.19822759166667,213.45944493958334,64.0,93.0
881,212.62130584166667,213.48829102708333,47.0,85.0
882,212.42899859166667,213.53476527916666,40.0,95.0
883,213.39053484166666,213.634124025,59.0,89.0
884,213.58284209166666,213.80239286875002,52.0,94.0
885,213.77514934166666,213.93861050416666,59.0,91.0
886,213.96745659166666,214.57642955,45.0,93.0
887,214.3520710916667,214.59405771458333,57.0,91.0
888,214.15976384166666,214.60046795625001,52.0,86.0
889,214.5443783416667,214.71585230625,61.0,91.0
890,215.12130009166668,215.27995357291667,62.0,86.0
891,215.31360734166668,215.47706850416668,59.0,93.0
892,215.50591459166668,215.80238826875,66.0,93.0
893,215.69822184166668,215.96584943125,59.0,92.0
894,215.89052909166668,216.16296436250002,62.0,90.0
895,216.08283634166668,216.27354103125,66.0,91.0
896,214.73668559166669,216.27514359166668,47.0,94.0
897,216.27514359166668,216.48988668750002,55.0,85.0
898,216.27514359166668,216.50911741250002,59.0,81.0
899,216.27514359166668,216.59405311458335,62.0,85.0
900,216.65975809166667,217.05238539375,55.0,91.0
901,216.85206534166667,217.07642380000001,59.0,87.0
902,216.46745084166668,217.09885964583333,50.0,85.0
903,216.27514359166668,217.12289805208334,43.0,87.0
904,217.04437259166667,217.37930771875,67.0,91.0
905,217.42898709166667,217.7014223625,60.0,84.0
906,217.62129434166667,217.79276830625,63.0,86.0
907,217.81360159166667,218.04437029166667,67.0,92.0
908,218.00590884166667,218.17417768541668,63.0,86.0
909,218.19821609166667,218.45462575833335,60.0,92.0
910,218.39052334166666,218.55879218541668,63.0,87.0
911,217.23667984166667,218.76391991875002,55.0,79.0
912,218.58283059166666,218.8360351375,67.0,97.0
913,217.04437259166667,218.88411195,48.0,91.0
914,218.77513784166666,218.93058620208333,63.0,92.0
915,218.96744509166666,219.22705987916666,60.0,91.0
916,219.15975234166666,219.28154693333335,63.0,79.0
917,219.73667409166669,219.93539158333334,62.0,92.0
918,219.92898134166668,220.13731419583334,58.0,88.0
919,220.12128859166668,220.2975702375,67.0,91.0
920,220.31359584166668,220.50109541041667,62.0,94.0
921,220.50590309166668,220.81038957083334,58.0,91.0
922,220.69821034166668,220.903338075,62.0,92.0
923,220.89051759166668,221.10526068750002,67.0,97.0
924,219.5443668416667,221.21102967500002,50.0,87.0
925,219.35205959166666,221.21263223541666,43.0,93.0
926,221.08282484166668,221.24468344375,62.0,98.0
927,221.27513209166668,221.53634943958335,58.0,87.0
928,221.46743934166668,221.55397760416668,62.0,93.0
929,221.65974659166667,222.01872012500002,60.0,91.0
930,222.04436109166667,222.28955283541669,56.0,91.0
931,222.23666834166667,222.3937192625,60.0,89.0
932,222.42897559166667,222.6244879625,63.0,87.0
933,222.62128284166667,222.81198753125,60.0,89.0
934,222.81359009166667,223.10685864791668,56.0,90.0
935,223.00589734166667,223.16935850416667,60.0,92.0
936,223.19820459166667,223.40172976458334,63.0,93.0
937,223.39051184166667,223.55878068541668,60.0,93.0
938,221.85205384166667,223.56038324583335,51.0,86.0
939,221.65974659166667,223.64531894791668,44.0,91.0
940,223.58281909166666,223.89692093333335,56.0,90.0
941,223.77512634166666,224.02672832708333,60.0,93.0
942,224.35204809166666,224.5251246166667,63.0,89.0
943,224.5443553416667,224.76390611875001,58.0,90.0
944,224.7366625916667,224.92736728125,63.0,91.0
945,224.92896984166669,225.14531549791667,58.0,83.0
946,225.12127709166668,225.14531549791667,58.0,82.0
947,225.12127709166668,225.32159714375,63.0,85.0
948,225.50589159166668,225.88089072916668,67.0,92.0
949,225.69819884166668,225.9225573,58.0,92.0
950,225.89050609166668,225.9225573,58.0,78.0
951,223.96743359166666,225.98505715625,51.0,98.0
952,225.89050609166668,226.095633825,63.0,82.0
953,226.65973509166668,226.85845258333333,63.0,87.0
954,226.85204234166667,227.0395419104167,60.0,90.0
955,227.04434959166667,227.2510798854167,67.0,93.0
956,227.23665684166667,227.45781017916667,60.0,88.0
957,227.42896409166667,227.61966878125,63.0,85.0
958,227.62127134166667,227.81197603125,60.0,88.0
959,226.46742784166668,228.02992424791668,55.0,82.0
960,226.27512059166668,228.13569323541668,48.0,92.0
961,228.00588584166667,228.21742381666667,60.0,92.0
962,227.81357859166667,228.26870575,67.0,91.0
963,228.19819309166667,228.40812850625,63.0,77.0
964,228.39050034166667,228.595628075,60.0,92.0
965,228.96742209166666,229.249472725,58.0,88.0
966,229.15972934166666,229.34242122916666,62.0,93.0
967,229.35203659166666,229.56517712708333,67.0,93.0
968,229.5443438416667,229.72863828958333,62.0,95.0
969,229.7366510916667,230.13248351458333,58.0,91.0
970,229.92895834166669,230.14530399791667,62.0,98.0
971,230.12126559166668,230.34722661041667,67.0,96.0
972,228.77511484166666,230.36325221458333,50.0,82.0
973,228.58280759166666,230.39530342291667,43.0,89.0
974,230.31357284166668,230.48825192708335,62.0,95.0
975,230.50588009166668,230.6437002875,58.0,91.0
976,230.89049459166668,231.02030198541667,60.0,84.0
977,230.89049459166668,231.11645561041666,65.0,91.0
978,231.08280184166668,231.30876286041666,60.0,84.0
979,231.27510909166668,231.44337793541666,65.0,90.0
980,231.46741634166668,231.67094151458335,60.0,85.0
981,231.65972359166668,231.88568461041666,68.0,84.0
982,231.85203084166668,232.05715857500002,60.0,89.0
983,232.04433809166667,232.23344022083333,65.0,92.0
984,232.23664534166667,232.46741404166667,60.0,92.0
985,232.42895259166667,232.59081119375,65.0,96.0
986,230.89049459166668,232.62927264375,53.0,96.0
987,232.62125984166667,232.80555428958334,60.0,92.0
988,232.81356709166667,233.00587434166667,68.0,84.0
989,233.00587434166667,233.211002075,60.0,92.0
990,233.58279609166667,233.94817986666666,55.0,86.0
991,233.77510334166666,234.00587204166666,59.0,75.0
992,233.96741059166666,234.21901257708333,62.0,84.0
993,234.15971784166666,234.35843533333335,59.0,84.0
994,234.35202509166666,234.64689620833335,55.0,95.0
995,234.54433234166666,234.79272920625002,59.0,87.0
996,234.7366395916667,234.94497244583334,67.0,91.0
997,234.9289468416667,235.12926689375,59.0,84.0
998,235.12125409166669,235.35362535208333,55.0,94.0
999,235.31356134166668,235.4513815375,59.0,87.0
1000,233.19818159166667,235.57157356875,43.0,92.0
1001,233.39048884166667,235.59240685416668,50.0,91.0
1002,235.50586859166668,235.84080371875,67.0,91.0
1003,235.89048309166668,236.1629183625,60.0,84.0
1004,236.08279034166668,236.25426430625,63.0,86.0
1005,236.27509759166668,236.50586629166668,67.0,92.0
1006,236.46740484166668,236.63567368541666,63.0,86.0
1007,236.65971209166668,236.91612175833333,60.0,92.0
1008,236.85201934166668,237.02028818541666,63.0,87.0
1009,235.69817584166668,237.22541591875,55.0,79.0
1010,237.04432659166667,237.29753113750002,67.0,97.0
1011,235.50586859166668,237.34560795000002,48.0,91.0
1012,237.23663384166667,237.39208220208334,63.0,92.0
1013,237.42894109166667,237.68855587916667,60.0,91.0
1014,237.62124834166667,237.74304293333333,63.0,79.0
1015,238.19817009166667,238.39688758333335,62.0,92.0
1016,238.39047734166667,238.59881019583335,58.0,88.0
1017,238.58278459166667,238.7590662375,67.0,91.0
1018,238.77509184166667,238.96259141041668,62.0,94.0
1019,238.96739909166666,239.27188557083335,58.0,91.0
1020,239.15970634166666,239.364834075,62.0,92.0
1021,239.35201359166666,239.5667566875,67.0,97.0
1022,238.00586284166667,239.672525675,50.0,87.0
1023,237.81355559166667,239.67412823541667,43.0,93.0
1024,239.54432084166666,239.70617944375002,62.0,98.0
1025,239.7366280916667,239.99784543958333,58.0,87.0
1026,239.9289353416667,240.0154736041667,62.0,93.0
1027,240.1212425916667,240.480216125,60.0,91.0
1028,240.50585709166668,240.75104883541667,56.0,91.0
1029,240.69816434166668,240.8552152625,60.0,89.0
1030,240.89047159166668,241.0859839625,63.0,87.0
1031,241.08277884166668,241.27348353125,60.0,89.0
1032,241.27508609166668,241.56835464791666,56.0,90.0
1033,241.46739334166668,241.63085450416668,60.0,92.0
1034,241.65970059166668,241.86322576458335,63.0,93.0
1035,241.85200784166668,242.02027668541666,60.0,93.0
1036,240.31354984166668,242.02187924583333,51.0,86.0
1037,240.1212425916667,242.10681494791666,44.0,91.0
1038,242.04431509166668,242.35841693333333,56.0,90.0
1039,242.23662234166667,242.48822432708334,60.0,93.0
1040,242.81354409166667,242.98662061666667,63.0,89.0
1041,243.00585134166667,243.22540211875,58.0,90.0
1042,243.19815859166667,243.38886328125,63.0,91.0
1043,243.39046584166667,243.60681149791668,58.0,83.0
1044,243.58277309166667,243.60681149791668,58.0,82.0
1045,243.58277309166667,243.78309314375,63.0,85.0
1046,243.96738759166666,244.34238672916666,67.0,92.0
1047,244.15969484166666,244.3840533,58.0,92.0
1048,244.35200209166666,244.3840533,58.0,78.0
1049,242.42892959166667,244.44655315625002,51.0,98.0
1050,244.35200209166666,244.557129825,63.0,82.0
1051,245.1212310916667,245.31994858333334,63.0,87.0
1052,245.31353834166669,245.50103791041667,60.0,90.0
1053,245.50584559166668,245.71257588541667,67.0,93.0
1054,245.69815284166668,245.91930617916668,60.0,88.0
1055,245.89046009166668,246.08116478125,63.0,85.0
1056,246.08276734166668,246.27347203125,60.0,88.0
1057,244.9289238416667,246.49142024791666,55.0,82.0
1058,244.73661659166666,246.59718923541666,48.0,92.0
1059,246.46738184166668,246.67891981666668,60.0,92.0
1060,246.27507459166668,246.73020175000002,67.0,91.0
1061,246.65968909166668,246.86962450625,63.0,77.0
1062,246.85199634166668,247.05712407500002,60.0,92.0
1063,247.42891809166667,247.71096872500001,58.0,88.0
1064,247.62122534166667,247.80391722916667,62.0,93.0
1065,247.81353259166667,248.02667312708334,67.0,93.0
1066,248.00583984166667,248.19013428958334,62.0,95.0
1067,248.19814709166667,248.59397951458334,58.0,91.0
1068,248.39045434166667,248.60679999791668,62.0,98.0
1069,248.58276159166667,248.80872261041668,67.0,96.0
1070,247.23661084166667,248.82474821458334,50.0,82.0
1071,247.04430359166668,248.85679942291668,43.0,89.0
1072,248.77506884166667,248.94974792708334,62.0,95.0
1073,248.96737609166667,249.1051962875,58.0,91.0
1074,249.73660509166666,250.07795046041667,53.0,87.0
1075,249.9289123416667,250.14686055833334,60.0,85.0
1076,250.1212195916667,250.38243693958333,65.0,93.0
1077,249.54429784166666,250.41128302708333,48.0,85.0
1078,249.35199059166666,250.45775727916669,41.0,95.0
1079,250.3135268416667,250.557116025,60.0,89.0
1080,250.50583409166669,250.72538486875,53.0,94.0
1081,250.69814134166668,250.86160250416668,60.0,91.0
1082,250.89044859166668,251.49942155,46.0,93.0
1083,251.27506309166668,251.51704971458335,58.0,91.0
1084,251.08275584166668,251.52345995625,53.0,86.0
1085,251.46737034166668,251.63884430625,62.0,91.0
1086,252.04429209166668,252.20294557291666,63.0,86.0
1087,252.23659934166668,252.40006050416667,60.0,93.0
1088,252.42890659166667,252.72538026875,67.0,93.0
1089,252.62121384166667,252.88884143125,60.0,92.0
1090,252.81352109166667,253.0859563625,63.0,90.0
1091,253.00582834166667,253.19653303125,67.0,91.0
1092,253.19813559166667,253.44973757708334,72.0,93.0
1093,253.39044284166667,253.65807043125,67.0,90.0
1094,253.58275009166667,253.87121096666667,63.0,87.0
1095,251.65967759166668,253.98819787708334,48.0,94.0
1096,253.96736459166667,253.98819787708334,48.0,86.0
1097,253.77505734166667,253.99460811875,60.0,96.0
1098,253.96736459166667,253.99460811875,60.0,78.0
1099,253.96736459166667,254.69332446041668,63.0,80.0
1100,254.35197909166666,254.93851620416666,55.0,75.0
1101,254.73659359166666,255.0859517625,67.0,90.0
1102,255.1212080916667,255.50422003125001,55.0,70.0
1103,255.50582259166669,255.66768119375,67.0,76.0
1104,255.50582259166669,255.83114235625,72.0,85.0
1105,255.50582259166669,255.864796125,63.0,84.0
1106,255.89043709166668,255.98659071666668,60.0,92.0
1107,256.2750515916667,257.03626778958335,56.0,81.0
1108,256.2750515916667,257.08113948125003,60.0,80.0
1109,257.0442805916667,257.49299750833336,63.0,81.0
1110,257.4288950916667,257.67568939583333,56.0,74.0
1111,256.6596660916667,258.0394706104167,51.0,72.0
1112,257.8135095916667,258.0667141375,56.0,82.0
1113,257.8135095916667,258.16447032291666,60.0,85.0
1114,256.2750515916667,258.2574188270833,44.0,85.0
1115,257.8135095916667,258.33754684791666,68.0,80.0
1116,258.19812409166667,258.35677757291666,51.0,87.0
1117,258.58273859166667,259.34395478958334,58.0,77.0
1118,258.58273859166667,259.37760855833335,62.0,77.0
1119,259.35196759166666,259.73818465208336,65.0,86.0
1120,259.73658209166666,259.97856871458333,58.0,86.0
1121,260.12119659166666,260.3936318625,58.0,86.0
1122,260.12119659166666,260.43049075208336,62.0,85.0
1123,258.58273859166667,260.58273399166666,46.0,86.0
1124,258.96735309166667,260.62760568333334,53.0,77.0
1125,260.50581109166666,260.79266940625,63.0,84.0
1126,260.89042559166666,261.53786,60.0,79.0
1127,260.89042559166666,261.53786,63.0,87.0
1128,261.65965459166665,262.2654224291667,67.0,87.0
1129,262.04426909166665,262.2798454729167,60.0,81.0
1130,262.42888359166665,262.5747165895833,63.0,75.0
1131,262.42888359166665,262.60837035833333,60.0,70.0
1132,261.27504009166665,262.61798572083336,55.0,59.0
1133,260.89042559166666,262.70452398333333,48.0,87.0
1134,263.1981125916667,263.78945738541665,60.0,84.0
1135,263.1981125916667,264.03304656875,67.0,83.0
1136,263.5827270916667,264.1067643479167,55.0,79.0
1137,263.9673415916667,264.43849435416666,60.0,88.0
1138,264.3519560916667,264.79266020625,55.0,85.0
1139,264.7365705916667,264.88881383125,60.0,81.0
1140,263.1981125916667,264.94009576458336,48.0,87.0
1141,264.7365705916667,265.11477485,63.0,85.0
1142,265.5057995916667,266.2173364166667,56.0,81.0
1143,265.5057995916667,266.26220810833337,63.0,81.0
1144,265.8904140916667,266.634002125,51.0,75.0
1145,266.2750285916667,266.6740661354167,60.0,81.0
1146,266.6596430916667,267.2365648416667,56.0,88.0
1147,265.5057995916667,267.49617962916665,44.0,84.0
1148,267.4288720916667,267.5394487604167,56.0,86.0
1149,267.0442575916667,267.6227819020833,51.0,81.0
1150,267.8134865916667,268.2173318166667,62.0,78.0
1151,267.8134865916667,268.49297220833336,58.0,80.0
1152,268.58271559166667,268.94008656458334,65.0,87.0
1153,268.96733009166667,269.18688086875,58.0,85.0
1154,267.8134865916667,269.5795081708333,46.0,85.0
1155,268.1981010916667,269.63880290625,53.0,81.0
1156,269.35194459166667,269.6500208291667,62.0,84.0
1157,270.12117359166666,270.7397619125,60.0,78.0
1158,270.12117359166666,270.95610756875,63.0,82.0
1159,270.89040259166666,271.4016193645833,67.0,85.0
1160,271.27501709166665,271.40642704583337,60.0,65.0
1161,271.65963159166665,271.84873372083337,63.0,79.0
1162,271.65963159166665,271.89040029166665,67.0,83.0
1163,270.50578809166666,272.11475875,55.0,72.0
1164,270.12117359166666,272.1644381229167,48.0,79.0
1165,272.42886059166665,272.98815417708335,60.0,84.0
1166,272.42886059166665,273.10033340625,67.0,84.0
1167,272.8134750916667,273.3070637,55.0,73.0
1168,273.1980895916667,273.9160366583333,60.0,86.0
1169,273.1980895916667,273.980139075,63.0,86.0
1170,273.5827040916667,273.9929595583333,55.0,79.0
1171,272.42886059166665,274.1259720729167,48.0,85.0
1172,273.9673185916667,274.27661275208334,67.0,92.0
1173,273.9673185916667,274.2814204333333,72.0,96.0
1174,274.3519330916667,274.5057788916667,60.0,86.0
1175,274.3519330916667,274.65802213125,74.0,91.0
1176,274.7028938229167,275.13718769583335,60.0,76.0
1177,274.6980861416667,275.23814900208333,67.0,81.0
1178,275.4480844166667,275.8567373229167,60.0,73.0
1179,275.80385282916666,276.34391568958335,62.0,71.0
1180,274.70609894375,276.9096195166667,48.0,86.0
1181,275.0490468729167,276.92724768125,55.0,70.0
1182,276.30064655833337,276.9689142520833,63.0,68.0
1183,276.70449178333337,277.33750314791666,67.0,75.0
1184,277.99295035833336,278.5730772291667,60.0,69.0
1185,278.1788473666667,278.66121805208337,63.0,77.0
1186,278.4304493520833,279.6115363791667,67.0,79.0
1187,278.74455119375,279.73493353125,72.0,65.0
1188,280.32147064375,280.4576882791667,72.0,58.0
1189,280.3743551375,280.53300861875,75.0,58.0
1190,280.46890620208336,280.60832895833335,84.0,74.0
1191,277.8727583270833,281.15960974166666,55.0,70.0
1192,277.68846387916665,281.18685326875,48.0,71.0
