,start,end,pitch,velocity
0,21.625,21.920833333333334,62.0,107.0
1,21.875,22.097916666666666,60.0,71.0
2,22.125,22.629166666666666,59.0,88.0
3,22.625,23.1,62.0,96.0
4,23.125,23.53333333333333,67.0,102.0
5,23.625,23.808333333333334,71.0,95.0
6,23.875,24.272916666666667,72.0,107.0
7,24.375,25.285416666666666,71.0,112.0
8,25.125,25.497916666666665,62.0,102.0
9,25.625,25.764583333333334,59.0,88.0
10,25.875,26.183333333333334,62.0,97.0
11,26.375,27.59583333333333,59.0,95.0
12,29.625,29.835416666666667,64.0,107.0
13,29.875,30.09583333333333,62.0,69.0
14,30.125,30.614583333333332,60.0,92.0
15,30.625,30.99375,64.0,93.0
16,31.125,31.379166666666666,67.0,102.0
17,31.625,31.833333333333332,69.0,99.0
18,31.875,32.14375,72.0,107.0
19,32.375,32.889583333333334,71.0,107.0
20,33.125,33.6125,64.0,112.0
21,33.625,33.87083333333333,66.0,95.0
22,33.875,34.30625,64.0,93.0
23,34.375,35.97708333333333,62.0,95.0
24,37.625,37.78958333333333,67.0,99.0
25,37.875,37.99791666666667,69.0,102.0
26,38.125,38.416666666666664,70.0,127.0
27,38.625,38.93125,70.0,127.0
28,39.125,39.31458333333333,70.0,122.0
29,39.375,39.50416666666666,69.0,102.0
30,39.625,39.8375,67.0,96.0
31,39.875,40.06666666666666,65.0,99.0
32,40.125,40.6375,67.0,117.0
33,40.625,40.6375,67.0,102.0
34,41.125,41.514583333333334,67.0,122.0
35,41.875,42.016666666666666,69.0,112.0
36,42.125,42.454166666666666,70.0,127.0
37,42.625,42.927083333333336,70.0,127.0
38,43.125,43.30833333333333,70.0,127.0
39,43.375,43.4875,69.0,102.0
40,43.625,43.78125,67.0,99.0
41,43.875,44.09375,72.0,127.0
42,44.125,44.55625,71.0,117.0
43,44.625,45.020833333333336,69.0,127.0
44,45.125,45.675,67.0,117.0
45,46.625,46.979166666666664,64.0,100.0
46,47.125,47.5,67.0,112.0
47,47.625,47.95,71.0,100.0
48,48.125,48.5875,64.0,112.0
49,48.625,49.166666666666664,67.0,117.0
50,49.625,52.02708333333333,67.0,117.0
51,53.625,53.920833333333334,62.0,107.0
52,53.875,54.09791666666666,60.0,71.0
53,54.125,54.62916666666666,59.0,88.0
54,54.625,55.1,62.0,96.0
55,55.125,55.53333333333333,67.0,102.0
56,55.625,55.80833333333333,71.0,95.0
57,55.875,56.27291666666667,72.0,107.0
58,56.375,57.28541666666666,71.0,112.0
59,57.125,57.49791666666667,62.0,102.0
60,57.625,57.764583333333334,59.0,88.0
61,57.875,58.18333333333333,62.0,97.0
62,58.375,59.59583333333333,59.0,95.0
63,61.625,61.83541666666667,64.0,107.0
64,61.875,62.09583333333333,62.0,69.0
65,62.125,62.614583333333336,60.0,92.0
66,62.625,62.99375,64.0,93.0
67,63.125,63.37916666666666,67.0,102.0
68,63.625,63.833333333333336,69.0,99.0
69,63.875,64.14375,72.0,107.0
70,64.375,64.88958333333333,71.0,107.0
71,65.125,65.6125,64.0,112.0
72,65.625,65.87083333333334,66.0,95.0
73,65.875,66.30625,64.0,93.0
74,66.375,67.97708333333333,62.0,95.0
75,69.625,69.78958333333333,67.0,99.0
76,69.875,69.99791666666667,69.0,102.0
77,70.125,70.41666666666667,70.0,127.0
78,70.625,70.93125,70.0,127.0
79,71.125,71.31458333333333,70.0,122.0
80,71.375,71.50416666666666,69.0,102.0
81,71.625,71.8375,67.0,96.0
82,71.875,72.06666666666666,65.0,99.0
83,72.125,72.48125,67.0,117.0
84,72.625,72.86666666666666,67.0,102.0
85,73.125,73.51458333333333,67.0,122.0
86,73.875,74.01666666666667,69.0,112.0
87,74.125,74.45416666666667,70.0,127.0
88,74.625,74.92708333333333,70.0,127.0
89,75.125,75.30833333333334,70.0,127.0
90,75.375,75.4875,69.0,102.0
91,75.625,75.78125,67.0,99.0
92,75.875,76.09375,72.0,127.0
93,76.125,76.55625,71.0,117.0
94,76.625,77.02083333333333,69.0,127.0
95,77.125,77.675,67.0,117.0
96,78.625,78.93125,74.0,117.0
97,79.125,79.46041666666666,74.0,127.0
98,79.625,79.95,71.0,107.0
99,80.125,80.31875,74.0,122.0
100,80.375,80.90625,71.0,112.0
101,81.12916666666666,81.50625,67.0,100.0
102,81.62708333333333,81.96041666666666,69.0,127.0
103,82.15,82.29583333333333,67.0,112.0
104,82.30416666666666,82.45,69.0,95.0
105,82.47708333333333,84.52916666666667,67.0,102.0
106,84.625,84.95,74.0,127.0
107,85.125,85.43541666666667,74.0,117.0
108,85.625,85.84791666666666,74.0,127.0
109,85.875,86.16458333333333,71.0,107.0
110,86.125,86.53958333333333,74.0,127.0
111,86.625,86.95833333333333,74.0,127.0
112,87.125,87.50833333333333,74.0,127.0
113,87.625,87.89375,74.0,122.0
114,87.875,88.14583333333333,71.0,99.0
115,88.625,88.91041666666666,74.0,117.0
116,89.125,89.44375,74.0,127.0
117,89.625,89.84375,74.0,107.0
118,89.875,90.125,71.0,100.0
119,90.125,90.46458333333334,74.0,127.0
120,90.625,90.9125,74.0,122.0
121,91.125,91.48333333333333,74.0,127.0
122,91.625,91.81666666666666,74.0,97.0
123,91.875,92.1375,71.0,112.0
124,92.625,92.95,74.0,107.0
125,93.125,93.4,74.0,112.0
126,93.625,93.87083333333334,74.0,112.0
127,93.875,94.11875,71.0,100.0
128,94.125,94.45625,69.0,100.0
129,94.625,94.96041666666666,71.0,122.0
130,95.125,95.5375,64.0,117.0
131,95.625,96.06875,69.0,127.0
132,96.625,96.9375,69.0,127.0
133,97.125,97.43125,69.0,127.0
134,97.625,97.98958333333333,67.0,112.0
135,98.125,98.44791666666667,69.0,127.0
136,98.625,99.025,71.0,122.0
137,99.125,99.37708333333333,74.0,127.0
138,99.625,100.1375,71.0,127.0
139,100.625,100.93958333333333,74.0,127.0
140,101.125,101.4375,74.0,122.0
141,101.625,101.85208333333333,74.0,127.0
142,101.875,102.13333333333333,71.0,107.0
143,102.125,102.51875,74.0,127.0
144,102.625,102.93541666666667,74.0,127.0
145,103.125,103.52708333333334,74.0,127.0
146,103.625,104.10625,76.0,127.0
147,104.625,104.92083333333333,74.0,122.0
148,105.125,105.46458333333334,74.0,127.0
149,105.625,105.85833333333333,74.0,122.0
150,105.875,106.14791666666666,71.0,96.0
151,106.125,106.45,74.0,127.0
152,106.625,107.06666666666666,76.0,102.0
153,107.125,107.52291666666666,78.0,100.0
154,107.625,108.52499999999999,79.0,107.0
155,108.625,108.96249999999999,74.0,102.0
156,109.125,109.44791666666667,74.0,99.0
157,109.625,109.85625,74.0,107.0
158,109.875,110.10208333333333,71.0,99.0
159,110.125,110.53958333333333,69.0,107.0
160,110.625,110.92916666666666,71.0,122.0
161,111.125,111.50208333333333,64.0,102.0
162,111.625,112.15833333333333,69.0,127.0
163,112.625,113.01666666666667,71.0,127.0
164,113.125,113.61458333333333,70.0,122.0
165,113.875,114.37916666666666,69.0,127.0
166,114.625,117.13958333333333,67.0,127.0
167,129.625,129.92083333333332,62.0,107.0
168,129.875,130.09791666666666,60.0,71.0
169,130.125,130.62916666666666,59.0,88.0
170,130.625,131.1,62.0,96.0
171,131.125,131.53333333333333,67.0,102.0
172,131.625,131.80833333333334,71.0,95.0
173,131.875,132.27291666666667,72.0,107.0
174,132.375,133.28541666666666,71.0,112.0
175,133.125,133.49791666666667,62.0,102.0
176,133.625,133.76458333333332,59.0,88.0
177,133.875,134.18333333333334,62.0,97.0
178,134.375,135.59583333333333,59.0,95.0
179,137.625,137.83541666666667,64.0,107.0
180,137.875,138.09583333333333,62.0,69.0
181,138.125,138.61458333333334,60.0,92.0
182,138.625,138.99375,64.0,93.0
183,139.125,139.37916666666666,67.0,102.0
184,139.625,139.83333333333334,69.0,99.0
185,139.875,140.14375,72.0,107.0
186,140.375,140.88958333333332,71.0,107.0
187,141.125,141.6125,64.0,112.0
188,141.625,141.87083333333334,66.0,95.0
189,141.875,142.30625,64.0,93.0
190,142.375,143.97708333333333,62.0,95.0
191,145.625,145.78958333333333,67.0,99.0
192,145.875,145.99791666666667,69.0,102.0
193,146.125,146.41666666666666,70.0,127.0
194,146.625,146.93125,70.0,127.0
195,147.125,147.31458333333333,70.0,122.0
196,147.375,147.50416666666666,69.0,102.0
197,147.625,147.8375,67.0,96.0
198,147.875,148.06666666666666,65.0,99.0
199,148.125,148.48125,67.0,117.0
200,148.625,148.86666666666667,67.0,102.0
201,149.125,149.51458333333332,67.0,122.0
202,149.875,150.01666666666665,69.0,112.0
203,150.125,150.45416666666665,70.0,127.0
204,150.625,150.92708333333334,70.0,127.0
205,151.125,151.30833333333334,70.0,127.0
206,151.375,151.4875,69.0,102.0
207,151.625,151.78125,67.0,99.0
208,151.875,152.09375,72.0,127.0
209,152.125,152.55625,71.0,117.0
210,152.625,153.02083333333334,69.0,127.0
211,153.125,153.675,67.0,117.0
212,154.625,154.93125,74.0,117.0
213,155.125,155.46041666666667,74.0,127.0
214,155.625,155.95,71.0,107.0
215,156.125,156.31875,74.0,122.0
216,156.375,156.90625,71.0,112.0
217,157.12916666666666,157.50625,67.0,100.0
218,157.62708333333333,157.96041666666667,69.0,127.0
219,158.15,158.29583333333332,67.0,112.0
220,158.30416666666667,158.45,69.0,95.0
221,158.47708333333333,160.52916666666667,67.0,102.0
222,160.625,160.95,74.0,127.0
223,161.125,161.43541666666667,74.0,117.0
224,161.625,161.84791666666666,74.0,127.0
225,161.875,162.16458333333333,71.0,107.0
226,162.125,162.53958333333333,74.0,127.0
227,162.625,162.95833333333334,74.0,127.0
228,163.125,163.50833333333333,74.0,127.0
229,163.625,163.89375,74.0,122.0
230,163.875,164.14583333333334,71.0,99.0
231,164.625,164.91041666666666,74.0,117.0
232,165.125,165.44375,74.0,127.0
233,165.625,165.84375,74.0,107.0
234,165.875,166.125,71.0,100.0
235,166.125,166.46458333333334,74.0,127.0
236,166.625,166.9125,74.0,122.0
237,167.125,167.48333333333332,74.0,127.0
238,167.625,167.81666666666666,74.0,97.0
239,167.875,168.1375,71.0,112.0
240,168.625,168.95,74.0,107.0
241,169.125,169.4,74.0,112.0
242,169.625,169.87083333333334,74.0,112.0
243,169.875,170.11875,71.0,100.0
244,170.125,170.45625,69.0,100.0
245,170.625,170.96041666666667,71.0,122.0
246,171.125,171.5375,64.0,117.0
247,171.625,172.06875,69.0,127.0
248,172.625,172.9375,69.0,127.0
249,173.125,173.43125,69.0,127.0
250,173.625,173.98958333333334,67.0,112.0
251,174.125,174.44791666666666,69.0,127.0
252,174.625,175.025,71.0,122.0
253,175.125,175.37708333333333,74.0,127.0
254,175.625,176.1375,71.0,127.0
255,176.625,176.93958333333333,74.0,127.0
256,177.125,177.4375,74.0,122.0
257,177.625,177.85208333333333,74.0,127.0
258,177.875,178.13333333333333,71.0,107.0
259,178.125,178.51875,74.0,127.0
260,178.625,178.93541666666667,74.0,127.0
261,179.125,179.52708333333334,74.0,127.0
262,179.625,180.10625,76.0,127.0
263,180.625,180.92083333333332,74.0,122.0
264,181.125,181.46458333333334,74.0,127.0
265,181.625,181.85833333333332,74.0,122.0
266,181.875,182.14791666666667,71.0,96.0
267,182.125,182.45,74.0,127.0
268,182.625,183.06666666666666,76.0,102.0
269,183.125,183.52291666666667,78.0,100.0
270,183.625,184.525,79.0,107.0
271,184.625,184.9625,74.0,102.0
272,185.125,185.44791666666666,74.0,99.0
273,185.625,185.85625,74.0,107.0
274,185.875,186.10208333333333,71.0,99.0
275,186.125,186.53958333333333,69.0,107.0
276,186.625,186.92916666666667,71.0,122.0
277,187.125,187.50208333333333,64.0,102.0
278,187.625,188.15833333333333,69.0,127.0
279,188.625,189.01666666666665,71.0,127.0
280,189.125,189.61458333333334,70.0,122.0
281,189.875,190.37916666666666,69.0,127.0
282,190.625,193.13958333333332,67.0,127.0
283,196.625,197.0375,71.0,127.0
284,197.125,197.73958333333334,70.0,127.0
285,197.875,198.49375,69.0,127.0
286,198.625,201.64166666666665,67.0,127.0
287,204.625,205.0125,77.0,127.0
288,205.125,205.68125,71.0,127.0
289,205.875,206.25208333333333,69.0,122.0
290,206.625,208.33333333333334,67.0,127.0
291,218.125,218.61875,74.0,112.0
292,218.625,218.88541666666666,76.0,117.0
293,219.125,219.39374999999998,78.0,117.0
294,219.45833333333334,219.71666666666667,79.0,112.0
295,219.79166666666666,219.98541666666665,79.0,112.0
296,220.125,221.125,79.0,127.0
297,222.125,222.36041666666665,68.0,127.0
298,222.625,222.84791666666666,68.0,127.0
299,223.125,223.36249999999998,68.0,127.0
300,223.625,224.0375,68.0,127.0
301,224.625,224.95,75.0,127.0
302,225.125,225.43541666666667,75.0,117.0
303,225.625,225.84791666666666,75.0,127.0
304,225.875,226.16458333333333,72.0,107.0
305,226.125,226.53958333333333,75.0,127.0
306,226.625,226.95833333333334,75.0,127.0
307,227.125,227.50833333333333,75.0,127.0
308,227.625,227.89374999999998,75.0,122.0
309,227.875,228.14583333333334,72.0,99.0
310,228.625,228.91041666666666,75.0,117.0
311,229.125,229.44375,75.0,127.0
312,229.625,229.84375,75.0,107.0
313,229.875,230.125,72.0,100.0
314,230.125,230.46458333333334,75.0,127.0
315,230.625,230.9125,75.0,122.0
316,231.125,231.48333333333332,75.0,127.0
317,231.625,231.81666666666666,75.0,97.0
318,231.875,232.1375,72.0,112.0
319,232.625,232.95,75.0,107.0
320,233.125,233.4,75.0,112.0
321,233.625,233.87083333333334,75.0,112.0
322,233.875,234.11875,72.0,100.0
323,234.125,234.45624999999998,70.0,100.0
324,234.625,234.96041666666667,72.0,122.0
325,235.125,235.5375,65.0,117.0
326,235.625,236.06875,70.0,127.0
327,236.625,236.9375,70.0,127.0
328,237.125,237.43125,70.0,127.0
329,237.625,237.98958333333334,68.0,112.0
330,238.125,238.44791666666666,70.0,127.0
331,238.625,239.025,72.0,122.0
332,239.125,239.37708333333333,75.0,127.0
333,239.625,240.1375,72.0,127.0
334,240.625,240.93958333333333,75.0,127.0
335,241.125,241.4375,75.0,122.0
336,241.625,241.85208333333333,75.0,127.0
337,241.875,242.13333333333333,72.0,107.0
338,242.125,242.51874999999998,75.0,127.0
339,242.625,242.93541666666667,75.0,127.0
340,243.125,243.52708333333334,75.0,127.0
341,243.625,244.10625,77.0,127.0
342,244.625,244.93958333333333,80.0,127.0
343,245.125,245.43125,80.0,127.0
344,245.625,246.03541666666666,76.0,122.0
345,246.125,246.45208333333332,75.0,127.0
346,246.625,246.99375,77.0,107.0
347,247.125,247.43958333333333,79.0,117.0
348,247.625,252.01874999999998,80.0,127.0
349,252.625,252.97291666666666,75.0,127.0
350,253.125,253.42916666666667,75.0,122.0
351,253.625,253.88125,75.0,127.0
352,253.875,254.12708333333333,72.0,92.0
353,254.125,254.625,70.0,112.0
354,254.625,255.05625,72.0,102.0
355,255.125,255.63541666666666,65.0,93.0
356,255.625,256.55625,70.0,97.0
357,256.625,257.02708333333334,72.0,112.0
358,257.125,257.7395833333333,71.0,97.0
359,257.875,258.5645833333333,70.0,112.0
360,258.625,261.5958333333333,68.0,99.0
