,start,end,pitch,velocity
0,2.125,2.814583333333333,55.0,86.0
1,2.125,2.814583333333333,62.0,85.0
2,2.125,2.8375,59.0,93.0
3,2.125,3.5104166666666665,43.0,90.0
4,3.125,3.908333333333333,55.0,89.0
5,3.125,3.9541666666666666,59.0,86.0
6,3.125,3.970833333333333,62.0,82.0
7,3.625,4.1,43.0,67.0
8,4.125,5.002083333333333,55.0,89.0
9,4.125,5.002083333333333,62.0,83.0
10,4.125,5.010416666666667,59.0,89.0
11,4.125,5.5,42.0,59.0
12,5.125,5.93125,62.0,92.0
13,5.125,5.9375,55.0,89.0
14,5.125,5.972916666666666,59.0,89.0
15,5.625,6.072916666666667,42.0,50.0
16,6.125,6.970833333333333,62.0,97.0
17,6.125,6.98125,55.0,96.0
18,6.125,6.995833333333334,59.0,95.0
19,6.125,7.5,41.0,50.0
20,7.125,8.0125,55.0,97.0
21,7.125,8.033333333333333,62.0,96.0
22,7.125,8.041666666666666,59.0,96.0
23,7.625,8.085416666666667,41.0,67.0
24,8.125,9.008333333333333,62.0,86.0
25,8.125,9.014583333333333,55.0,95.0
26,8.125,9.014583333333333,59.0,93.0
27,8.125,9.489583333333334,40.0,74.0
28,9.125,10.089583333333334,59.0,95.0
29,9.125,10.097916666666666,62.0,92.0
30,9.125,10.104166666666666,55.0,93.0
31,9.625,10.13125,40.0,62.0
32,10.125,11.020833333333334,55.0,69.0
33,10.135416666666666,11.025,63.0,97.0
34,10.141666666666666,11.0625,60.0,79.0
35,10.135416666666666,11.104166666666666,39.0,97.0
36,11.097916666666666,12.0375,60.0,65.0
37,11.104166666666666,12.045833333333333,63.0,97.0
38,11.125,12.072916666666666,55.0,59.0
39,11.125,12.09375,48.0,64.0
40,12.125,14.1,64.0,74.0
41,12.125,14.110416666666666,50.0,47.0
42,12.125,14.125,57.0,69.0
43,14.125,14.758333333333333,71.0,81.0
44,14.125,14.954166666666666,67.0,89.0
45,14.125,14.9625,62.0,86.0
46,15.125,15.989583333333334,62.0,92.0
47,15.125,15.995833333333334,67.0,97.0
48,15.125,15.997916666666667,71.0,88.0
49,16.125,16.802083333333332,71.0,78.0
50,16.125,16.964583333333334,62.0,90.0
51,16.125,16.96875,67.0,93.0
52,14.125,17.125,43.0,52.0
53,14.125,17.125,50.0,58.0
54,14.125,17.125,55.0,73.0
55,18.125,19.06458333333333,59.0,76.0
56,18.125,19.06875,62.0,72.0
57,18.125,19.097916666666666,55.0,72.0
58,19.125,19.745833333333334,62.0,68.0
59,19.125,19.7625,59.0,73.0
60,19.125,19.764583333333334,55.0,69.0
61,19.625,20.15833333333333,50.0,68.0
62,20.125,21.879166666666666,55.0,68.0
63,20.125,21.902083333333334,59.0,66.0
64,20.125,21.904166666666665,62.0,65.0
65,22.125,22.770833333333332,67.0,90.0
66,22.125,22.972916666666666,62.0,93.0
67,22.125,22.972916666666666,71.0,82.0
68,22.125,23.8375,43.0,72.0
69,22.625,23.872916666666665,50.0,43.0
70,23.625,23.883333333333333,55.0,38.0
71,23.125,24.00625,62.0,97.0
72,23.125,24.008333333333333,67.0,102.0
73,23.125,24.010416666666668,71.0,99.0
74,24.125,24.96875,67.0,93.0
75,24.125,24.972916666666666,62.0,92.0
76,24.125,24.98125,71.0,88.0
77,24.125,25.477083333333333,42.0,56.0
78,25.125,25.75208333333333,67.0,97.0
79,25.125,26.010416666666668,62.0,86.0
80,25.125,26.03125,71.0,95.0
81,26.125,27.010416666666668,64.0,93.0
82,26.125,27.010416666666668,67.0,90.0
83,26.125,27.020833333333332,71.0,88.0
84,27.125,27.679166666666667,64.0,92.0
85,27.125,27.7,67.0,97.0
86,27.125,27.7,71.0,90.0
87,28.125,28.754166666666666,71.0,83.0
88,28.875,28.954166666666666,71.0,28.0
89,28.125,28.99375,64.0,88.0
90,28.125,29.010416666666668,67.0,86.0
91,28.625,29.239583333333332,52.0,39.0
92,27.625,29.389583333333334,47.0,39.0
93,29.125,29.635416666666668,67.0,112.0
94,29.125,29.65,71.0,100.0
95,26.125,29.75,40.0,75.0
96,29.625,29.754166666666666,47.0,88.0
97,29.125,29.839583333333334,64.0,95.0
98,30.125,30.98125,60.0,107.0
99,30.125,30.983333333333334,67.0,96.0
100,30.125,30.997916666666665,64.0,99.0
101,31.125,31.754166666666666,64.0,112.0
102,31.625,31.935416666666665,48.0,42.0
103,30.125,31.977083333333333,36.0,74.0
104,31.125,31.985416666666666,67.0,112.0
105,30.625,32.13125,43.0,41.0
106,32.125,33.00625,60.0,99.0
107,32.125,33.00833333333333,67.0,77.0
108,32.125,33.0125,63.0,100.0
109,32.625,33.25625,48.0,45.0
110,33.125,33.425,60.0,93.0
111,33.375,33.614583333333336,48.0,83.0
112,33.125,33.68541666666667,63.0,127.0
113,33.125,33.739583333333336,67.0,96.0
114,32.125,33.77916666666667,36.0,72.0
115,33.625,34.077083333333334,60.0,83.0
116,34.125,34.975,62.0,86.0
117,35.125,35.87916666666666,66.0,97.0
118,35.125,36.00208333333333,62.0,99.0
119,35.125,36.010416666666664,57.0,85.0
120,35.625,36.3875,50.0,51.0
121,36.125,36.74375,66.0,89.0
122,36.125,36.99583333333333,62.0,95.0
123,36.125,37.010416666666664,57.0,77.0
124,36.625,37.17916666666667,50.0,61.0
125,34.625,37.50416666666666,45.0,51.0
126,34.125,37.514583333333334,38.0,71.0
127,37.375,37.55416666666667,50.0,88.0
128,37.125,37.677083333333336,62.0,122.0
129,37.125,37.69166666666666,66.0,127.0
130,37.625,37.69583333333333,57.0,96.0
131,38.125,38.729166666666664,67.0,117.0
132,38.125,38.85208333333333,70.0,96.0
133,38.125,38.979166666666664,63.0,112.0
134,38.625,39.202083333333334,51.0,56.0
135,39.125,39.354166666666664,63.0,99.0
136,38.125,39.37916666666666,39.0,100.0
137,39.375,39.53125,51.0,73.0
138,39.125,39.583333333333336,67.0,102.0
139,39.125,39.62083333333333,70.0,112.0
140,39.625,39.73125,63.0,76.0
141,40.125,40.635416666666664,62.0,100.0
142,40.125,40.670833333333334,59.0,96.0
143,40.125,40.677083333333336,66.0,112.0
144,41.125,42.08541666666667,50.0,46.0
145,40.125,42.0875,38.0,73.0
146,41.125,42.09791666666666,66.0,117.0
147,41.125,42.1,62.0,107.0
148,41.125,42.110416666666666,59.0,93.0
149,42.125,42.56875,67.0,102.0
150,42.125,42.58958333333333,70.0,100.0
151,42.125,42.65208333333333,63.0,107.0
152,42.625,43.2375,51.0,36.0
153,43.125,43.5125,67.0,127.0
154,43.125,43.547916666666666,70.0,122.0
155,43.125,43.55833333333333,63.0,112.0
156,42.125,43.6125,39.0,73.0
157,43.625,43.729166666666664,51.0,50.0
158,44.125,44.97291666666666,59.0,93.0
159,44.125,44.97708333333333,64.0,99.0
160,44.125,44.98125,67.0,90.0
161,44.125,45.39791666666667,52.0,59.0
162,44.125,45.579166666666666,40.0,61.0
163,45.125,45.64375,64.0,97.0
164,45.125,45.65208333333333,67.0,85.0
165,45.125,45.84583333333333,59.0,90.0
166,45.625,45.95,52.0,55.0
167,46.125,46.69375,60.0,96.0
168,46.125,46.74166666666667,64.0,95.0
169,46.625,47.239583333333336,52.0,55.0
170,46.125,47.322916666666664,45.0,82.0
171,47.125,47.675,64.0,90.0
172,47.125,47.925,60.0,95.0
173,47.625,47.958333333333336,57.0,59.0
174,48.125,49.052083333333336,66.0,100.0
175,48.125,49.05416666666667,62.0,99.0
176,48.125,49.08125,57.0,99.0
177,49.125,49.208333333333336,57.0,47.0
178,48.125,49.322916666666664,38.0,74.0
179,49.625,49.90416666666667,57.0,56.0
180,49.125,49.91458333333333,66.0,83.0
181,49.125,49.91875,62.0,83.0
182,50.125,50.96875,62.0,90.0
183,50.125,50.99166666666667,71.0,77.0
184,50.125,50.99375,67.0,85.0
185,51.125,51.7125,67.0,88.0
186,51.875,51.949999999999996,67.0,30.0
187,51.125,51.9625,62.0,85.0
188,51.125,51.989583333333336,71.0,72.0
189,51.625,52.420833333333334,55.0,64.0
190,52.125,52.7375,67.0,100.0
191,52.125,52.954166666666666,71.0,93.0
192,52.125,52.958333333333336,62.0,97.0
193,52.625,53.27291666666667,55.0,74.0
194,50.625,53.40416666666667,50.0,53.0
195,50.125,53.86875,43.0,74.0
196,53.125,53.95625,62.0,102.0
197,53.625,53.96875,50.0,31.0
198,53.125,53.97291666666666,67.0,127.0
199,53.125,53.981249999999996,71.0,122.0
200,54.125,55.172916666666666,62.0,99.0
201,54.125,55.199999999999996,59.0,99.0
202,54.125,55.574999999999996,43.0,82.0
203,55.125,55.606249999999996,55.0,93.0
204,54.625,55.62916666666666,50.0,41.0
205,55.125,56.02916666666667,66.0,122.0
206,56.125,56.96041666666667,66.0,100.0
207,56.625,57.233333333333334,54.0,48.0
208,55.625,57.36875,59.0,90.0
209,56.125,57.55833333333333,42.0,93.0
210,57.125,57.68541666666667,66.0,122.0
211,57.625,58.135416666666664,62.0,97.0
212,58.125,58.675,64.0,97.0
213,58.625,59.293749999999996,47.0,76.0
214,59.125,59.74166666666667,52.0,68.0
215,59.625,60.27708333333333,47.0,52.0
216,58.125,60.27916666666667,59.0,44.0
217,60.125,60.7125,52.0,73.0
218,59.125,60.770833333333336,67.0,93.0
219,60.125,60.78333333333333,64.0,89.0
220,60.625,61.175,59.0,83.0
221,61.125,61.427083333333336,52.0,93.0
222,58.125,61.57083333333333,40.0,72.0
223,60.625,61.59583333333333,47.0,59.0
224,61.125,61.71666666666667,64.0,107.0
225,61.125,61.725,67.0,107.0
226,61.625,61.97708333333333,59.0,99.0
227,62.125,62.916666666666664,67.0,88.0
228,62.125,62.97083333333333,64.0,90.0
229,62.125,63.22083333333333,60.0,95.0
230,62.625,63.24583333333333,43.0,50.0
231,63.125,63.65625,48.0,86.0
232,62.125,63.9375,36.0,90.0
233,63.125,63.99375,67.0,107.0
234,63.625,64.18125,43.0,62.0
235,64.125,65.01041666666667,67.0,90.0
236,64.125,65.03958333333333,63.0,117.0
237,64.625,65.37916666666666,43.0,49.0
238,65.125,65.60416666666667,48.0,83.0
239,65.125,65.65625,63.0,107.0
240,65.125,65.65625,67.0,92.0
241,64.125,65.96666666666667,36.0,74.0
242,65.625,66.11458333333333,60.0,76.0
243,65.625,66.14791666666666,43.0,66.0
244,66.125,67.06458333333333,62.0,95.0
245,66.625,67.23541666666667,45.0,41.0
246,67.125,67.6625,50.0,85.0
247,66.125,67.94166666666666,38.0,83.0
248,67.625,68.175,45.0,71.0
249,67.125,68.2125,66.0,117.0
250,68.375,68.66875,66.0,20.0
251,67.125,69.03958333333333,62.0,96.0
252,68.125,69.18333333333334,57.0,112.0
253,68.125,69.41458333333333,38.0,90.0
254,68.625,69.51041666666667,45.0,82.0
255,69.125,69.53541666666666,50.0,100.0
256,69.375,70.1,62.0,79.0
257,69.125,70.11458333333333,66.0,127.0
258,69.625,70.19791666666667,57.0,97.0
259,70.625,71.46458333333334,46.0,28.0
260,70.125,71.54791666666667,39.0,100.0
261,71.125,71.66458333333333,51.0,70.0
262,71.125,71.78125,58.0,117.0
263,71.125,71.8375,63.0,112.0
264,71.625,71.97916666666667,55.0,88.0
265,72.125,72.67083333333333,62.0,112.0
266,72.125,72.70625,66.0,117.0
267,72.625,73.16458333333333,59.0,73.0
268,72.125,73.70208333333333,38.0,70.0
269,73.125,73.82291666666667,50.0,52.0
270,73.125,74.14583333333333,62.0,66.0
271,73.625,74.15208333333334,59.0,90.0
272,73.125,74.18125,66.0,122.0
273,74.625,75.22708333333333,51.0,66.0
274,74.125,75.46666666666667,39.0,97.0
275,75.375,75.51666666666667,51.0,52.0
276,75.125,75.61875,63.0,112.0
277,75.125,75.625,58.0,127.0
278,75.625,75.69791666666667,55.0,73.0
279,76.125,76.98958333333333,67.0,89.0
280,76.125,77.00416666666666,64.0,95.0
281,76.125,77.02083333333333,59.0,95.0
282,76.625,77.325,47.0,42.0
283,77.125,77.55625,52.0,81.0
284,76.125,77.65,40.0,72.0
285,77.625,77.70625,47.0,75.0
286,77.125,77.94791666666667,67.0,92.0
287,77.125,77.95416666666667,64.0,97.0
288,77.625,78.09583333333333,59.0,86.0
289,78.125,78.76875,60.0,99.0
290,78.125,78.78125,64.0,97.0
291,78.625,79.37083333333334,52.0,90.0
292,78.125,79.49166666666666,45.0,95.0
293,79.125,79.76458333333333,64.0,112.0
294,79.625,80.04791666666667,60.0,100.0
295,80.125,80.96041666666666,66.0,112.0
296,80.125,80.97291666666666,62.0,100.0
297,80.125,80.98541666666667,57.0,78.0
298,80.125,81.51666666666667,38.0,72.0
299,80.625,81.55,45.0,62.0
300,81.125,81.60625,66.0,122.0
301,81.125,81.66666666666667,62.0,97.0
302,81.125,81.74375,50.0,85.0
303,81.625,82.09583333333333,57.0,97.0
304,82.125,82.48333333333333,59.0,112.0
305,82.125,82.52708333333334,62.0,100.0
306,82.625,83.23541666666667,50.0,72.0
307,83.125,83.50833333333333,62.0,97.0
308,83.125,83.56458333333333,55.0,99.0
309,83.625,83.75833333333333,62.0,78.0
310,83.875,83.96666666666667,62.0,89.0
311,83.125,83.96666666666667,71.0,127.0
312,82.125,83.975,43.0,82.0
313,83.125,84.0,67.0,122.0
314,83.625,84.09791666666666,50.0,97.0
315,84.125,84.71041666666666,62.0,112.0
316,84.125,84.76458333333333,65.0,122.0
317,84.625,84.9125,55.0,122.0
318,84.125,85.0875,67.0,122.0
319,84.875,85.23958333333333,62.0,102.0
320,84.375,85.25208333333333,50.0,99.0
321,85.125,85.63541666666667,65.0,127.0
322,85.375,85.64375,50.0,112.0
323,84.125,85.65833333333333,43.0,95.0
324,84.125,85.9625,71.0,127.0
325,85.125,86.05416666666666,67.0,46.0
326,85.875,86.09791666666666,65.0,122.0
327,85.625,86.1125,62.0,117.0
328,86.625,87.16041666666666,48.0,102.0
329,86.875,87.225,60.0,89.0
330,87.375,87.58958333333334,48.0,100.0
331,86.125,87.81041666666667,36.0,83.0
332,86.375,88.05833333333334,43.0,68.0
333,87.125,88.1,67.0,127.0
334,87.625,88.12708333333333,64.0,127.0
335,87.875,88.16666666666667,60.0,112.0
336,88.625,89.26041666666667,48.0,102.0
337,88.875,89.34375,55.0,100.0
338,88.125,89.51041666666667,36.0,81.0
339,88.375,89.52083333333333,43.0,88.0
340,89.375,89.67708333333333,48.0,93.0
341,89.625,90.1,60.0,112.0
342,89.125,90.11875,64.0,122.0
343,89.875,90.14166666666667,55.0,95.0
344,90.625,90.85625,59.0,95.0
345,90.875,91.15416666666667,62.0,99.0
346,90.375,91.2875,54.0,90.0
347,91.375,91.5625,54.0,99.0
348,90.125,91.64791666666666,47.0,85.0
349,91.125,91.85833333333333,66.0,127.0
350,91.625,91.94791666666667,62.0,127.0
351,91.875,92.32083333333333,59.0,95.0
352,92.625,93.23958333333333,52.0,95.0
353,92.875,93.27083333333333,59.0,83.0
354,92.375,93.6625,47.0,88.0
355,92.125,93.66666666666667,40.0,95.0
356,93.375,93.82291666666667,52.0,95.0
357,93.125,94.1,67.0,117.0
358,93.625,94.12708333333333,64.0,127.0
359,93.875,94.13125,59.0,107.0
360,94.625,94.93958333333333,57.0,99.0
361,94.375,95.24583333333334,52.0,88.0
362,94.875,95.25833333333333,60.0,96.0
363,95.375,95.59166666666667,52.0,93.0
364,94.125,95.65416666666667,45.0,93.0
365,95.125,95.97708333333333,69.0,127.0
366,95.625,96.00208333333333,64.0,102.0
367,95.875,96.12083333333334,60.0,107.0
368,96.625,97.20208333333333,50.0,107.0
369,96.875,97.42083333333333,57.0,97.0
370,96.125,97.63333333333333,38.0,90.0
371,96.375,97.67083333333333,45.0,107.0
372,97.375,97.99791666666667,50.0,112.0
373,97.125,98.02916666666667,66.0,127.0
374,97.875,98.11875,57.0,107.0
375,97.625,98.14375,62.0,127.0
376,98.625,99.17291666666667,55.0,102.0
377,98.875,99.23541666666667,59.0,102.0
378,99.375,99.59166666666667,55.0,117.0
379,99.125,99.64375,62.0,127.0
380,98.125,99.97916666666667,43.0,96.0
381,99.625,100.01041666666667,59.0,100.0
382,99.875,100.01875,65.0,81.0
383,99.875,100.025,62.0,100.0
384,98.375,100.13958333333333,50.0,93.0
385,100.125,100.70625,59.0,95.0
386,100.125,100.78541666666666,62.0,112.0
387,100.125,100.81666666666666,65.0,102.0
388,100.625,100.9,55.0,107.0
389,100.875,100.95,65.0,28.0
390,100.875,101.00416666666666,62.0,49.0
391,100.375,101.25,50.0,100.0
392,100.875,101.25833333333333,59.0,93.0
393,101.375,101.52083333333333,50.0,107.0
394,100.125,101.55625,43.0,102.0
395,101.125,101.83541666666666,65.0,122.0
396,101.625,102.09583333333333,62.0,127.0
397,101.875,102.14791666666666,59.0,100.0
398,102.625,103.21458333333334,48.0,97.0
399,102.875,103.42916666666666,55.0,89.0
400,103.375,103.63958333333333,48.0,92.0
401,102.125,103.95625,36.0,92.0
402,103.875,104.14583333333333,55.0,117.0
403,102.375,104.16041666666666,43.0,88.0
404,103.625,104.19166666666666,60.0,112.0
405,103.125,104.21458333333334,64.0,122.0
406,104.875,105.19791666666667,60.0,96.0
407,104.625,105.22083333333333,48.0,96.0
408,104.125,105.45625,36.0,82.0
409,104.375,105.48958333333333,43.0,96.0
410,105.375,105.56458333333333,48.0,102.0
411,105.125,105.64999999999999,64.0,99.0
412,105.625,106.00833333333333,60.0,112.0
413,105.125,106.07916666666667,67.0,127.0
414,105.875,106.1375,64.0,107.0
415,106.625,106.88125,59.0,95.0
416,106.375,107.26875,54.0,85.0
417,107.375,107.55,54.0,100.0
418,106.125,107.58541666666666,47.0,93.0
419,107.125,107.65625,66.0,122.0
420,106.875,107.70625,62.0,99.0
421,107.625,107.72916666666667,59.0,99.0
422,108.125,108.72083333333333,65.0,117.0
423,108.125,108.75208333333333,69.0,117.0
424,108.125,108.93333333333334,60.0,100.0
425,108.125,109.03541666666666,41.0,89.0
426,109.125,109.54791666666667,40.0,100.0
427,109.125,109.72708333333333,71.0,100.0
428,109.125,109.73541666666667,68.0,122.0
429,109.125,110.03125,64.0,96.0
430,110.125,110.25208333333333,64.0,63.0
431,110.125,110.41666666666667,69.0,97.0
432,110.625,110.95833333333333,57.0,92.0
433,110.375,111.26458333333333,52.0,90.0
434,110.875,111.46249999999999,60.0,79.0
435,111.375,111.56041666666667,52.0,49.0
436,110.125,111.58749999999999,45.0,93.0
437,111.125,112.04166666666667,69.0,102.0
438,111.625,112.08333333333333,64.0,90.0
439,111.875,112.125,60.0,93.0
440,112.125,112.50625,38.0,66.0
441,112.125,112.53125,50.0,78.0
442,112.125,112.53541666666666,45.0,73.0
443,112.125,112.57708333333333,57.0,107.0
444,112.125,112.57916666666667,62.0,99.0
445,112.125,112.58541666666666,66.0,100.0
446,114.125,114.93124999999999,71.0,82.0
447,114.125,114.93541666666667,62.0,93.0
448,114.125,114.96041666666666,67.0,92.0
449,114.125,115.41666666666667,55.0,81.0
450,115.125,115.92708333333333,62.0,88.0
451,115.125,115.95833333333333,71.0,81.0
452,115.125,115.97083333333333,67.0,90.0
453,115.625,116.46666666666667,55.0,54.0
454,116.125,116.73333333333333,67.0,92.0
455,116.125,116.73333333333333,71.0,86.0
456,116.125,116.75208333333333,62.0,90.0
457,114.125,117.4125,50.0,59.0
458,116.625,117.43541666666667,55.0,55.0
459,114.125,117.73333333333333,43.0,56.0
460,117.125,117.76666666666667,71.0,107.0
461,117.625,117.80416666666666,50.0,64.0
462,117.125,118.00833333333333,67.0,107.0
463,118.125,118.84583333333333,71.0,95.0
464,118.125,118.94375,64.0,93.0
465,118.125,118.95,67.0,99.0
466,118.625,119.25208333333333,47.0,52.0
467,119.125,119.71249999999999,71.0,89.0
468,119.125,119.76875,52.0,81.0
469,119.125,119.82916666666667,64.0,88.0
470,119.125,119.86458333333333,67.0,99.0
471,119.625,120.30416666666666,47.0,42.0
472,120.125,120.7,52.0,63.0
473,120.125,120.72291666666666,71.0,90.0
474,120.125,120.87916666666666,64.0,86.0
475,120.125,120.88541666666667,67.0,95.0
476,120.625,121.24791666666667,47.0,47.0
477,121.125,121.6,71.0,112.0
478,121.125,121.61874999999999,52.0,86.0
479,118.125,121.63541666666667,40.0,83.0
480,121.125,121.69791666666667,67.0,122.0
481,121.625,121.71041666666666,47.0,74.0
482,122.125,122.73541666666667,67.0,99.0
483,122.125,122.7875,70.0,107.0
484,122.125,122.90416666666667,63.0,107.0
485,122.625,123.14166666666667,46.0,34.0
486,123.125,123.64375,67.0,117.0
487,123.125,123.65416666666667,70.0,117.0
488,123.125,123.7875,63.0,112.0
489,122.125,124.02708333333334,39.0,74.0
490,124.125,124.68958333333333,67.0,100.0
491,124.125,124.70833333333333,70.0,90.0
492,124.125,124.93958333333333,63.0,100.0
493,123.125,125.26041666666667,51.0,69.0
494,123.625,125.58125,46.0,32.0
495,125.125,125.62916666666666,67.0,127.0
496,125.125,125.64583333333333,70.0,127.0
497,124.125,125.65208333333334,39.0,59.0
498,125.125,125.65833333333333,63.0,107.0
499,125.625,125.73541666666667,51.0,72.0
500,126.125,127.00208333333333,66.0,100.0
501,126.125,127.01666666666667,62.0,96.0
502,126.125,127.01875,57.0,88.0
503,127.125,127.49166666666666,50.0,76.0
504,126.625,127.51458333333333,45.0,47.0
505,127.125,127.51666666666667,57.0,92.0
506,127.125,127.53541666666666,62.0,99.0
507,126.125,127.55833333333334,38.0,70.0
508,127.125,127.58958333333334,66.0,99.0
509,130.125,131.17291666666665,62.0,99.0
510,130.125,131.2,59.0,99.0
511,130.125,131.575,43.0,82.0
512,131.125,131.60625,55.0,93.0
513,130.625,131.62916666666666,50.0,41.0
514,131.125,132.02916666666667,66.0,122.0
515,132.125,132.96041666666667,66.0,100.0
516,132.625,133.23333333333332,54.0,48.0
517,131.625,133.36875,59.0,90.0
518,132.125,133.55833333333334,42.0,93.0
519,133.125,133.68541666666667,66.0,122.0
520,133.625,134.13541666666666,62.0,97.0
521,134.125,134.675,64.0,97.0
522,134.625,135.29375,47.0,76.0
523,135.125,135.74166666666667,52.0,68.0
524,135.625,136.27708333333334,47.0,52.0
525,134.125,136.27916666666667,59.0,44.0
526,136.125,136.7125,52.0,73.0
527,135.125,136.77083333333334,67.0,93.0
528,136.125,136.78333333333333,64.0,89.0
529,136.625,137.175,59.0,83.0
530,137.125,137.42708333333334,52.0,93.0
531,134.125,137.57083333333333,40.0,72.0
532,136.625,137.59583333333333,47.0,59.0
533,137.125,137.71666666666667,64.0,107.0
534,137.125,137.725,67.0,107.0
535,137.625,137.97708333333333,59.0,99.0
536,138.125,138.91666666666666,67.0,88.0
537,138.125,138.97083333333333,64.0,90.0
538,138.125,139.22083333333333,60.0,95.0
539,138.625,139.24583333333334,43.0,50.0
540,139.125,139.65625,48.0,86.0
541,138.125,139.9375,36.0,90.0
542,139.125,139.99375,67.0,107.0
543,139.625,140.18125,43.0,62.0
544,140.125,141.01041666666666,67.0,90.0
545,140.125,141.03958333333333,63.0,117.0
546,140.625,141.37916666666666,43.0,49.0
547,141.125,141.60416666666666,48.0,83.0
548,141.125,141.65625,63.0,107.0
549,141.125,141.65625,67.0,92.0
550,140.125,141.96666666666667,36.0,74.0
551,141.625,142.11458333333334,60.0,76.0
552,141.625,142.14791666666667,43.0,66.0
553,142.125,143.06458333333333,62.0,95.0
554,142.625,143.23541666666665,45.0,41.0
555,143.125,143.6625,50.0,85.0
556,142.125,143.94166666666666,38.0,83.0
557,143.625,144.175,45.0,71.0
558,143.125,144.2125,66.0,117.0
559,144.375,144.66875,66.0,20.0
560,143.125,145.03958333333333,62.0,96.0
561,144.125,145.18333333333334,57.0,112.0
562,144.125,145.41458333333333,38.0,90.0
563,144.625,145.51041666666666,45.0,82.0
564,145.125,145.53541666666666,50.0,100.0
565,145.375,146.1,62.0,79.0
566,145.125,146.11458333333334,66.0,127.0
567,145.625,146.19791666666666,57.0,97.0
568,146.625,147.46458333333334,46.0,28.0
569,146.125,147.54791666666665,39.0,100.0
570,147.125,147.66458333333333,51.0,70.0
571,147.125,147.78125,58.0,117.0
572,147.125,147.8375,63.0,112.0
573,147.625,147.97916666666666,55.0,88.0
574,148.125,148.67083333333332,62.0,112.0
575,148.125,148.70625,66.0,117.0
576,148.625,149.16458333333333,59.0,73.0
577,148.125,149.70208333333332,38.0,70.0
578,149.125,149.82291666666666,50.0,52.0
579,149.125,150.14583333333334,62.0,66.0
580,149.625,150.15208333333334,59.0,90.0
581,149.125,150.18125,66.0,122.0
582,150.625,151.22708333333333,51.0,66.0
583,150.125,151.46666666666667,39.0,97.0
584,151.375,151.51666666666665,51.0,52.0
585,151.125,151.61875,63.0,112.0
586,151.125,151.625,58.0,127.0
587,151.625,151.69791666666666,55.0,73.0
588,152.125,152.98958333333334,67.0,89.0
589,152.125,153.00416666666666,64.0,95.0
590,152.125,153.02083333333334,59.0,95.0
591,152.625,153.325,47.0,42.0
592,153.125,153.55625,52.0,81.0
593,152.125,153.65,40.0,72.0
594,153.625,153.70625,47.0,75.0
595,153.125,153.94791666666666,67.0,92.0
596,153.125,153.95416666666665,64.0,97.0
597,153.625,154.09583333333333,59.0,86.0
598,154.125,154.76875,60.0,99.0
599,154.125,154.78125,64.0,97.0
600,154.625,155.37083333333334,52.0,90.0
601,154.125,155.49166666666667,45.0,95.0
602,155.125,155.76458333333332,64.0,112.0
603,155.625,156.04791666666665,60.0,100.0
604,156.125,156.96041666666667,66.0,112.0
605,156.125,156.97291666666666,62.0,100.0
606,156.125,156.98541666666665,57.0,78.0
607,156.125,157.51666666666665,38.0,72.0
608,156.625,157.55,45.0,62.0
609,157.125,157.60625,66.0,122.0
610,157.125,157.66666666666666,62.0,97.0
611,157.125,157.74375,50.0,85.0
612,157.625,158.09583333333333,57.0,97.0
613,158.125,158.48333333333332,59.0,112.0
614,158.125,158.52708333333334,62.0,100.0
615,158.625,159.23541666666665,50.0,72.0
616,159.125,159.50833333333333,62.0,97.0
617,159.125,159.56458333333333,55.0,99.0
618,159.625,159.75833333333333,62.0,78.0
619,159.875,159.96666666666667,62.0,89.0
620,159.125,159.96666666666667,71.0,127.0
621,158.125,159.975,43.0,82.0
622,159.125,160.0,67.0,122.0
623,159.625,160.09791666666666,50.0,97.0
624,160.125,160.71041666666667,62.0,112.0
625,160.125,160.76458333333332,65.0,122.0
626,160.625,160.9125,55.0,122.0
627,160.125,161.0875,67.0,122.0
628,160.875,161.23958333333334,62.0,102.0
629,160.375,161.25208333333333,50.0,99.0
630,161.125,161.63541666666666,65.0,127.0
631,161.375,161.64375,50.0,112.0
632,160.125,161.65833333333333,43.0,95.0
633,160.125,161.9625,71.0,127.0
634,161.125,162.05416666666667,67.0,46.0
635,161.875,162.09791666666666,65.0,122.0
636,161.625,162.1125,62.0,117.0
637,162.625,163.16041666666666,48.0,102.0
638,162.875,163.225,60.0,89.0
639,163.375,163.58958333333334,48.0,100.0
640,162.125,163.81041666666667,36.0,83.0
641,162.375,164.05833333333334,43.0,68.0
642,163.125,164.1,67.0,127.0
643,163.625,164.12708333333333,64.0,127.0
644,163.875,164.16666666666666,60.0,112.0
645,164.625,165.26041666666666,48.0,102.0
646,164.875,165.34375,55.0,100.0
647,164.125,165.51041666666666,36.0,81.0
648,164.375,165.52083333333334,43.0,88.0
649,165.375,165.67708333333334,48.0,93.0
650,165.625,166.1,60.0,112.0
651,165.125,166.11875,64.0,122.0
652,165.875,166.14166666666665,55.0,95.0
653,166.625,166.85625,59.0,95.0
654,166.875,167.15416666666667,62.0,99.0
655,166.375,167.2875,54.0,90.0
656,167.375,167.5625,54.0,99.0
657,166.125,167.64791666666667,47.0,85.0
658,167.125,167.85833333333332,66.0,127.0
659,167.625,167.94791666666666,62.0,127.0
660,167.875,168.32083333333333,59.0,95.0
661,168.625,169.23958333333334,52.0,95.0
662,168.875,169.27083333333334,59.0,83.0
663,168.375,169.6625,47.0,88.0
664,168.125,169.66666666666666,40.0,95.0
665,169.375,169.82291666666666,52.0,95.0
666,169.125,170.1,67.0,117.0
667,169.625,170.12708333333333,64.0,127.0
668,169.875,170.13125,59.0,107.0
669,170.625,170.93958333333333,57.0,99.0
670,170.375,171.24583333333334,52.0,88.0
671,170.875,171.25833333333333,60.0,96.0
672,171.375,171.59166666666667,52.0,93.0
673,170.125,171.65416666666667,45.0,93.0
674,171.125,171.97708333333333,69.0,127.0
675,171.625,172.00208333333333,64.0,102.0
676,171.875,172.12083333333334,60.0,107.0
677,172.625,173.20208333333332,50.0,107.0
678,172.875,173.42083333333332,57.0,97.0
679,172.125,173.63333333333333,38.0,90.0
680,172.375,173.67083333333332,45.0,107.0
681,173.375,173.99791666666667,50.0,112.0
682,173.125,174.02916666666667,66.0,127.0
683,173.875,174.11875,57.0,107.0
684,173.625,174.14375,62.0,127.0
685,174.625,175.17291666666665,55.0,102.0
686,174.875,175.23541666666665,59.0,102.0
687,175.375,175.59166666666667,55.0,117.0
688,175.125,175.64375,62.0,127.0
689,174.125,175.97916666666666,43.0,96.0
690,175.625,176.01041666666666,59.0,100.0
691,175.875,176.01875,65.0,81.0
692,175.875,176.025,62.0,100.0
693,174.375,176.13958333333332,50.0,93.0
694,176.125,176.70625,59.0,95.0
695,176.125,176.78541666666666,62.0,112.0
696,176.125,176.81666666666666,65.0,102.0
697,176.625,176.9,55.0,107.0
698,176.875,176.95,65.0,28.0
699,176.875,177.00416666666666,62.0,49.0
700,176.375,177.25,50.0,100.0
701,176.875,177.25833333333333,59.0,93.0
702,177.375,177.52083333333334,50.0,107.0
703,176.125,177.55625,43.0,102.0
704,177.125,177.83541666666667,65.0,122.0
705,177.625,178.09583333333333,62.0,127.0
706,177.875,178.14791666666667,59.0,100.0
707,178.625,179.21458333333334,48.0,97.0
708,178.875,179.42916666666667,55.0,89.0
709,179.375,179.63958333333332,48.0,92.0
710,178.125,179.95625,36.0,92.0
711,179.875,180.14583333333334,55.0,117.0
712,178.375,180.16041666666666,43.0,88.0
713,179.625,180.19166666666666,60.0,112.0
714,179.125,180.21458333333334,64.0,122.0
715,180.875,181.19791666666666,60.0,96.0
716,180.625,181.22083333333333,48.0,96.0
717,180.125,181.45625,36.0,82.0
718,180.375,181.48958333333334,43.0,96.0
719,181.375,181.56458333333333,48.0,102.0
720,181.125,181.65,64.0,99.0
721,181.625,182.00833333333333,60.0,112.0
722,181.125,182.07916666666665,67.0,127.0
723,181.875,182.1375,64.0,107.0
724,182.625,182.88125,59.0,95.0
725,182.375,183.26875,54.0,85.0
726,183.375,183.55,54.0,100.0
727,182.125,183.58541666666667,47.0,93.0
728,183.125,183.65625,66.0,122.0
729,182.875,183.70625,62.0,99.0
730,183.625,183.72916666666666,59.0,99.0
731,184.125,184.72083333333333,65.0,117.0
732,184.125,184.75208333333333,69.0,117.0
733,184.125,184.93333333333334,60.0,100.0
734,184.125,185.03541666666666,41.0,89.0
735,185.125,185.54791666666665,40.0,100.0
736,185.125,185.72708333333333,71.0,100.0
737,185.125,185.73541666666665,68.0,122.0
738,185.125,186.03125,64.0,96.0
739,186.125,186.25208333333333,64.0,63.0
740,186.125,186.41666666666666,69.0,97.0
741,186.625,186.95833333333334,57.0,92.0
742,186.375,187.26458333333332,52.0,90.0
743,186.875,187.4625,60.0,79.0
744,187.375,187.56041666666667,52.0,49.0
745,186.125,187.5875,45.0,93.0
746,187.125,188.04166666666666,69.0,102.0
747,187.625,188.08333333333334,64.0,90.0
748,187.875,188.125,60.0,93.0
749,188.125,188.55208333333334,62.0,107.0
750,188.125,188.56666666666666,66.0,107.0
751,188.125,188.58541666666667,57.0,93.0
752,188.625,188.94375,57.0,69.0
753,188.625,188.94583333333333,62.0,92.0
754,188.625,188.94583333333333,66.0,96.0
755,188.125,189.4,38.0,82.0
756,188.625,189.41666666666666,45.0,59.0
757,189.125,189.45833333333334,50.0,79.0
758,189.125,189.65416666666667,62.0,107.0
759,189.125,189.70208333333332,66.0,117.0
760,189.625,189.90416666666667,57.0,97.0
761,190.125,190.69375,55.0,93.0
762,190.125,190.73958333333334,58.0,127.0
763,190.875,191.04791666666665,55.0,67.0
764,190.625,191.18958333333333,51.0,97.0
765,191.125,191.70833333333334,58.0,127.0
766,191.125,191.71666666666667,63.0,127.0
767,191.625,191.79791666666665,55.0,79.0
768,190.125,192.0125,39.0,117.0
769,191.375,192.06666666666666,51.0,93.0
770,191.875,192.6875,55.0,61.0
771,191.875,192.89583333333334,63.0,117.0
772,191.875,192.92291666666665,58.0,117.0
773,192.625,193.2,51.0,93.0
774,193.375,193.62916666666666,51.0,97.0
775,193.125,193.84166666666667,63.0,127.0
776,192.125,193.87291666666667,39.0,92.0
777,193.625,193.94166666666666,58.0,127.0
778,193.875,194.05,55.0,72.0
779,194.125,195.00625,55.0,82.0
780,194.125,195.02291666666667,62.0,107.0
781,194.125,195.03125,59.0,97.0
782,195.125,195.13958333333332,61.0,93.0
783,195.125,195.69375,59.0,102.0
784,195.125,195.73333333333332,62.0,112.0
785,195.875,195.99583333333334,62.0,43.0
786,195.625,196.01666666666665,55.0,79.0
787,195.875,196.02083333333334,59.0,40.0
788,196.125,196.9625,62.0,100.0
789,196.125,196.97083333333333,59.0,102.0
790,196.625,197.18125,50.0,85.0
791,194.125,197.60416666666666,38.0,75.0
792,197.375,197.70833333333334,50.0,95.0
793,197.125,197.70833333333334,62.0,122.0
794,197.125,197.84166666666667,59.0,127.0
795,197.625,197.98541666666665,55.0,100.0
796,198.125,199.00208333333333,55.0,117.0
797,198.125,199.01458333333332,63.0,122.0
798,198.125,199.025,60.0,112.0
799,198.625,199.46041666666667,51.0,52.0
800,199.125,199.975,55.0,96.0
801,199.125,199.98958333333334,63.0,122.0
802,199.125,200.00416666666666,60.0,107.0
803,199.625,200.32083333333333,51.0,79.0
804,200.125,200.85208333333333,60.0,122.0
805,200.125,200.94791666666666,63.0,127.0
806,198.125,201.125,39.0,117.0
807,200.625,201.125,51.0,100.0
808,200.875,201.125,55.0,45.0
809,201.125,201.60416666666666,39.0,93.0
810,201.125,201.67708333333334,63.0,102.0
811,201.125,201.72291666666666,60.0,107.0
812,201.125,201.90833333333333,55.0,90.0
813,202.125,202.95416666666665,55.0,102.0
814,202.125,202.96875,59.0,107.0
815,202.125,202.96875,62.0,107.0
816,203.125,203.96875,55.0,96.0
817,203.125,203.97083333333333,62.0,102.0
818,203.125,203.975,59.0,100.0
819,204.125,204.58541666666667,47.0,59.0
820,204.125,204.89791666666667,55.0,99.0
821,204.125,204.94791666666666,62.0,99.0
822,204.125,204.9625,59.0,99.0
823,204.625,205.35208333333333,47.0,58.0
824,205.125,205.60208333333333,55.0,107.0
825,205.125,205.60625,59.0,112.0
826,205.125,205.62708333333333,62.0,112.0
827,202.125,205.64374999999998,38.0,76.0
828,205.625,205.75,47.0,86.0
829,206.125,206.72916666666666,60.0,102.0
830,206.125,206.94375,69.0,112.0
831,206.125,206.94791666666666,65.0,127.0
832,206.875,207.00833333333333,60.0,67.0
833,206.625,207.20208333333332,53.0,93.0
834,207.125,207.45208333333332,60.0,92.0
835,207.375,207.58541666666667,53.0,77.0
836,207.125,207.72708333333333,69.0,127.0
837,207.125,207.72916666666666,65.0,127.0
838,206.125,207.98541666666665,41.0,97.0
839,206.375,208.08958333333334,48.0,69.0
840,207.875,208.69583333333333,65.0,93.0
841,207.875,208.7125,69.0,95.0
842,207.625,208.93541666666667,60.0,78.0
843,208.875,208.95624999999998,65.0,38.0
844,208.875,208.95624999999998,69.0,30.0
845,208.875,209.12708333333333,53.0,59.0
846,209.125,209.46875,60.0,112.0
847,209.375,209.55416666666667,53.0,93.0
848,208.625,209.59166666666667,48.0,53.0
849,209.125,209.69583333333333,65.0,127.0
850,209.125,209.725,69.0,127.0
851,209.625,209.72916666666666,60.0,100.0
852,208.125,209.78125,41.0,76.0
853,210.125,210.51458333333332,67.0,112.0
854,210.125,210.52708333333334,71.0,112.0
855,210.125,210.55833333333334,64.0,112.0
856,210.625,211.32291666666666,47.0,42.0
857,211.125,211.70416666666665,52.0,74.0
858,211.125,211.96041666666667,59.0,112.0
859,211.125,211.98958333333334,67.0,100.0
860,211.125,211.99791666666667,64.0,107.0
861,211.875,212.43333333333334,52.0,55.0
862,212.125,212.78125,59.0,100.0
863,212.125,212.98749999999998,64.0,100.0
864,212.125,212.99375,67.0,90.0
865,212.625,213.14583333333334,52.0,95.0
866,211.625,213.23125,47.0,50.0
867,210.125,213.26666666666665,40.0,95.0
868,213.375,213.56666666666666,40.0,82.0
869,213.125,213.64374999999998,59.0,117.0
870,213.125,213.78541666666666,67.0,117.0
871,213.125,214.01041666666666,64.0,122.0
872,213.625,214.02916666666667,38.0,66.0
873,214.125,214.97708333333333,60.0,107.0
874,214.125,214.98333333333332,63.0,112.0
875,214.125,214.99166666666667,55.0,95.0
876,214.875,215.24375,48.0,74.0
877,215.375,215.57916666666665,48.0,61.0
878,215.125,215.75416666666666,63.0,122.0
879,215.125,215.77083333333334,60.0,117.0
880,214.125,215.95208333333332,36.0,96.0
881,215.875,215.95208333333332,60.0,37.0
882,215.625,215.98749999999998,55.0,83.0
883,214.625,216.11249999999998,43.0,39.0
884,216.125,216.98541666666665,55.0,97.0
885,216.125,216.99583333333334,60.0,107.0
886,216.125,217.0,63.0,107.0
887,216.875,217.25416666666666,48.0,69.0
888,217.375,217.52083333333334,48.0,86.0
889,217.125,217.525,60.0,122.0
890,217.125,217.66875,55.0,95.0
891,217.125,217.69583333333333,63.0,127.0
892,217.625,217.825,60.0,69.0
893,216.125,217.95208333333332,36.0,64.0
894,216.625,218.125,43.0,58.0
895,218.125,218.43958333333333,62.0,127.0
896,218.125,218.46041666666667,57.0,102.0
897,218.125,218.46875,66.0,127.0
898,218.625,219.26041666666666,45.0,57.0
899,218.125,219.88333333333333,38.0,85.0
900,219.125,219.89374999999998,66.0,117.0
901,219.125,219.93333333333334,50.0,89.0
902,219.125,219.93333333333334,62.0,127.0
903,219.125,219.93541666666667,57.0,102.0
904,219.625,220.00416666666666,45.0,45.0
905,220.125,221.03333333333333,57.0,102.0
906,220.125,221.03333333333333,62.0,127.0
907,220.125,221.03333333333333,66.0,127.0
908,220.125,221.48541666666665,50.0,100.0
909,221.125,222.07291666666666,62.0,122.0
910,221.125,222.08541666666667,57.0,102.0
911,221.125,222.08958333333334,66.0,127.0
912,220.125,222.09375,45.0,93.0
913,220.125,222.10208333333333,38.0,73.0
914,221.625,222.10625,50.0,107.0
915,222.125,222.24583333333334,67.0,127.0
916,222.375,222.45208333333332,67.0,26.0
917,222.125,222.45416666666665,51.0,93.0
918,222.125,222.46458333333334,70.0,127.0
919,222.125,222.475,39.0,96.0
920,222.125,222.48125,63.0,127.0
921,222.625,222.9125,51.0,92.0
922,222.625,222.9375,70.0,112.0
923,222.625,222.93958333333333,39.0,97.0
924,222.625,222.94166666666666,67.0,127.0
925,222.625,222.95416666666665,63.0,102.0
926,223.125,223.4,51.0,95.0
927,223.125,223.41458333333333,39.0,96.0
928,223.125,223.43333333333334,67.0,122.0
929,223.125,223.43958333333333,70.0,112.0
930,223.125,223.44583333333333,63.0,102.0
931,223.625,224.11666666666667,70.0,122.0
932,223.625,224.11875,67.0,127.0
933,223.625,224.125,39.0,102.0
934,223.625,224.12916666666666,51.0,112.0
935,223.625,224.13333333333333,63.0,117.0
936,226.125,226.90625,75.0,75.0
937,226.125,227.01041666666666,72.0,90.0
938,226.125,227.02708333333334,68.0,95.0
939,227.125,227.86249999999998,75.0,86.0
940,227.125,227.96458333333334,68.0,82.0
941,227.125,227.96458333333334,72.0,95.0
942,226.125,228.12708333333333,60.0,90.0
943,228.125,228.98749999999998,67.0,97.0
944,228.125,228.98749999999998,70.0,89.0
945,228.125,228.99166666666667,63.0,92.0
946,229.125,229.89791666666667,63.0,93.0
947,229.125,230.01458333333332,67.0,82.0
948,229.125,230.05416666666667,70.0,73.0
949,228.125,230.05625,58.0,85.0
950,230.125,230.66666666666666,70.0,107.0
951,230.625,231.19375,67.0,82.0
952,230.125,231.97291666666666,60.0,90.0
953,231.625,232.05416666666667,72.0,97.0
954,231.125,232.05833333333334,70.0,100.0
955,231.875,232.56875,68.0,92.0
956,232.125,233.03541666666666,72.0,74.0
957,232.125,233.08333333333334,63.0,96.0
958,232.125,233.125,53.0,76.0
959,233.125,233.42291666666665,53.0,102.0
960,233.125,233.44166666666666,60.0,99.0
961,234.375,234.75,53.0,62.0
962,234.625,235.04375,58.0,88.0
963,235.125,235.1875,58.0,72.0
964,234.875,235.24166666666667,53.0,60.0
965,235.375,235.52916666666667,53.0,75.0
966,234.125,235.57708333333332,46.0,96.0
967,235.125,235.68541666666667,61.0,122.0
968,235.625,235.96666666666667,58.0,122.0
969,235.875,236.12916666666666,61.0,127.0
970,235.125,236.13541666666666,65.0,93.0
971,236.58541666666667,237.12291666666667,51.0,95.0
972,236.82083333333333,237.15416666666667,55.0,83.0
973,236.34166666666667,237.38125,46.0,69.0
974,236.08958333333334,237.41458333333333,39.0,93.0
975,237.33333333333334,237.52916666666667,51.0,100.0
976,237.11249999999998,237.64374999999998,58.0,117.0
977,237.55625,237.97916666666666,55.0,102.0
978,237.11041666666665,238.05416666666667,63.0,127.0
979,237.83333333333334,238.05833333333334,58.0,127.0
980,238.08541666666667,238.125,44.0,89.0
981,238.625,239.16875,56.0,102.0
982,238.875,239.21666666666667,60.0,88.0
983,239.125,239.65625,63.0,117.0
984,239.125,239.76666666666665,68.0,117.0
985,238.125,239.97708333333333,44.0,99.0
986,238.375,240.00833333333333,51.0,33.0
987,239.375,240.0125,56.0,112.0
988,239.625,240.01666666666665,60.0,99.0
989,239.875,240.03958333333333,63.0,89.0
990,240.125,240.22083333333333,60.0,95.0
991,240.125,240.96666666666667,66.0,127.0
992,240.125,241.00208333333333,63.0,127.0
993,240.875,241.21458333333334,60.0,96.0
994,240.625,241.21875,56.0,117.0
995,241.375,241.60833333333332,56.0,117.0
996,241.125,241.71041666666667,63.0,127.0
997,240.375,241.8125,51.0,92.0
998,240.125,241.87708333333333,44.0,99.0
999,241.125,241.975,66.0,127.0
1000,241.625,241.99791666666667,60.0,112.0
1001,241.875,242.07291666666666,63.0,127.0
1002,242.125,242.64791666666667,65.0,112.0
1003,242.125,242.68333333333334,68.0,117.0
1004,242.125,242.93125,61.0,107.0
1005,242.625,243.31666666666666,49.0,64.0
1006,243.125,243.65416666666667,65.0,122.0
1007,243.125,243.85625,68.0,122.0
1008,243.625,243.95624999999998,49.0,69.0
1009,243.125,243.98333333333332,61.0,102.0
1010,242.125,244.00625,37.0,93.0
1011,244.125,244.68333333333334,68.0,122.0
1012,244.125,245.0,61.0,117.0
1013,244.125,245.01458333333332,64.0,107.0
1014,244.125,245.47083333333333,40.0,75.0
1015,245.125,245.68541666666667,61.0,127.0
1016,245.125,245.69166666666666,68.0,127.0
1017,245.625,245.7125,40.0,85.0
1018,245.125,245.71458333333334,64.0,127.0
1019,246.125,246.95208333333332,60.0,102.0
1020,246.125,246.9625,68.0,127.0
1021,246.125,246.96666666666667,65.0,100.0
1022,246.625,247.28125,48.0,39.0
1023,247.375,247.44583333333333,70.0,20.0
1024,247.125,247.53541666666666,68.0,127.0
1025,247.125,247.54166666666666,65.0,117.0
1026,246.125,247.54375,41.0,92.0
1027,247.125,247.54791666666665,53.0,85.0
1028,247.625,250.94166666666666,52.0,83.0
1029,247.625,250.97916666666666,40.0,72.0
1030,247.625,251.05833333333334,73.0,95.0
1031,249.875,251.05833333333334,73.0,60.0
1032,247.625,251.06875,67.0,100.0
1033,247.625,251.07916666666665,64.0,95.0
1034,247.625,251.08958333333334,70.0,107.0
1035,249.875,251.08958333333334,70.0,70.0
1036,250.125,253.09583333333333,76.0,77.0
1037,254.125,254.88333333333333,65.0,75.0
1038,254.125,254.89583333333334,73.0,74.0
1039,254.125,254.95416666666665,70.0,81.0
1040,254.125,255.2,58.0,66.0
1041,254.125,255.25625,46.0,86.0
1042,255.125,255.28333333333333,70.0,53.0
1043,255.125,255.28333333333333,73.0,53.0
1044,255.125,255.30625,65.0,48.0
1045,256.125,256.425,65.0,67.0
1046,256.125,256.43125,61.0,77.0
1047,256.125,256.43125,68.0,66.0
1048,256.125,256.4375,49.0,75.0
1049,256.125,256.45416666666665,37.0,79.0
1050,259.125,259.525,56.0,52.0
1051,258.625,259.65208333333334,51.0,33.0
1052,258.125,259.73541666666665,44.0,81.0
1053,259.625,260.11041666666665,60.0,89.0
1054,259.125,260.24583333333334,68.0,100.0
1055,259.125,260.2729166666667,63.0,60.0
1056,260.625,261.18333333333334,60.0,72.0
1057,260.125,261.225,43.0,72.0
1058,261.625,262.3354166666667,60.0,62.0
1059,261.125,262.74583333333334,68.0,86.0
1060,261.125,262.7583333333333,63.0,86.0
1061,262.625,263.4,54.0,77.0
1062,262.125,263.75416666666666,42.0,97.0
1063,263.625,264.76875,60.0,92.0
1064,263.125,264.90208333333334,63.0,102.0
1065,265.125,265.25416666666666,60.0,47.0
1066,264.625,265.65208333333334,53.0,69.0
1067,264.125,265.75625,41.0,77.0
1068,265.625,266.1354166666667,60.0,97.0
1069,265.125,266.1458333333333,68.0,122.0
1070,266.125,266.1458333333333,68.0,97.0
1071,266.125,266.7875,64.0,96.0
1072,266.125,266.96875,61.0,107.0
1073,266.125,268.0416666666667,40.0,75.0
1074,266.625,268.0729166666667,52.0,85.0
1075,267.125,268.12291666666664,64.0,93.0
1076,267.625,268.13125,61.0,99.0
1077,268.1166666666667,268.13125,61.0,107.0
1078,267.125,268.14166666666665,68.0,102.0
1079,268.12291666666664,268.4479166666667,56.0,99.0
1080,268.13125,268.6895833333333,65.0,79.0
1081,268.6166666666667,269.2416666666667,56.0,95.0
1082,268.125,271.3875,39.0,86.0
1083,269.1458333333333,271.4,65.0,90.0
1084,269.13958333333335,271.40625,61.0,86.0
1085,269.77708333333334,271.43125,56.0,96.0
1086,271.20625,271.43125,56.0,67.0
1087,271.43333333333334,271.49583333333334,32.0,92.0
1088,271.375,272.21875,63.0,82.0
1089,271.27916666666664,272.2708333333333,60.0,63.0
1090,272.0541666666667,272.4708333333333,48.0,70.0
1091,271.86041666666665,272.4895833333333,44.0,41.0
1092,272.2395833333333,272.54791666666665,51.0,69.0
1093,272.43541666666664,272.6979166666667,56.0,92.0
1094,272.6354166666667,272.8354166666667,60.0,72.0
1095,272.79375,272.9270833333333,63.0,77.0
1096,273.66041666666666,274.1020833333333,63.0,29.0
1097,274.1,274.1020833333333,63.0,22.0
1098,273.775,274.19375,71.0,68.0
1099,273.125,274.49583333333334,51.0,56.0
1100,274.40208333333334,275.02916666666664,70.0,70.0
1101,273.125,275.02916666666664,78.0,35.0
1102,274.75,275.19166666666666,63.0,29.0
1103,274.98333333333335,275.28541666666666,68.0,64.0
1104,273.125,275.44166666666666,60.0,81.0
1105,274.98333333333335,275.6333333333333,51.0,22.0
1106,275.8541666666667,276.3229166666667,60.0,81.0
1107,275.49375,276.4458333333333,63.0,61.0
1108,276.42291666666665,276.8875,59.0,93.0
1109,273.125,276.93333333333334,56.0,52.0
1110,276.81666666666666,277.14166666666665,58.0,89.0
1111,277.23541666666665,277.65208333333334,56.0,64.0
1112,277.5833333333333,277.9791666666667,51.0,51.0
1113,273.125,278.125,44.0,48.0
1114,277.95416666666665,278.46458333333334,48.0,103.0
1115,278.44375,280.03541666666666,47.0,89.0
1116,280.09166666666664,280.925,48.0,40.0
1117,280.6479166666667,282.11041666666665,44.0,58.0
1118,280.6479166666667,285.54791666666665,51.0,32.0
1119,279.6041666666667,291.5125,39.0,80.0
1120,281.53125,291.5854166666667,58.0,21.0
