,start,end,pitch,velocity
0,41.49471375,41.77793025,67.0,90.0
1,41.91429375,42.25345425,69.0,95.0
2,42.33387375,43.530329037499996,72.0,91.0
3,43.597136125,44.085882712499995,79.0,91.0
4,44.019075625,45.2884102875,76.0,93.0
5,45.284894125,45.750785656249995,74.0,91.0
6,45.706833625,47.7356593875,76.0,89.0
7,48.23792055833333,48.54515311041666,67.0,90.0
8,48.65926805833333,49.052525724999995,69.0,91.0
9,49.08061555833333,50.33061314166666,72.0,89.0
10,50.34465805833333,50.7905841625,79.0,90.0
11,50.76600555833333,52.03707051666666,74.0,91.0
12,52.03004805833333,52.479485391666664,72.0,91.0
13,52.45139555833333,54.932078964583326,74.0,90.0
14,54.97948055833333,55.45876333958333,76.0,92.0
15,55.40082805833333,55.809886256249996,79.0,91.0
16,55.82217555833333,58.04478362083333,81.0,89.0
17,58.35026055833333,58.65222626666666,76.0,92.0
18,58.77160805833333,59.13502027708333,79.0,91.0
19,59.19295555833333,59.968937204166664,72.0,90.0
20,60.456998058333326,60.723851475,76.0,90.0
21,60.87834555833333,61.15397704791666,74.0,96.0
22,61.29969305833333,61.70875125625,71.0,91.0
23,61.72104055833333,62.55846871458333,69.0,85.0
24,62.98508305833333,63.631149224999994,74.0,93.0
25,63.82777805833333,64.1578336,76.0,91.0
26,64.24912555833333,64.53177950624999,74.0,93.0
27,64.67047305833333,64.95839385,74.0,95.0
28,65.09182055833332,65.46049962083333,71.0,90.0
29,65.51316805833332,65.84849044375,69.0,87.0
30,65.93451555833333,68.02545252708333,67.0,89.0
31,68.46260055833332,68.79792294375,79.0,96.0
32,68.88394805833333,69.29300625625,81.0,89.0
33,69.30529555833333,70.43591135,84.0,93.0
34,70.56933805833333,71.00999731875,81.0,90.0
35,70.99068555833333,73.32565295416666,84.0,95.0
36,73.51877055833333,73.8593597875,76.0,94.0
37,73.94011805833333,74.30001904791666,84.0,96.0
38,74.36146555833332,75.63077490208333,83.0,95.0
39,75.62550805833332,76.0503667875,81.0,88.0
40,76.04685555833333,78.12725883958333,83.0,91.0
41,78.57494055833332,78.89270679791666,81.0,92.0
42,78.99628805833333,79.29298692291667,76.0,90.0
43,79.41763555833333,80.48680483958333,74.0,96.0
44,80.68167805833332,81.05737957916666,76.0,93.0
45,81.10302555833333,82.30211031875,83.0,92.0
46,82.36706805833333,82.75857011041666,81.0,91.0
47,82.78841555833333,84.47380555833332,79.0,90.0
48,85.31650055833333,85.65182294374999,79.0,93.0
49,85.73784805833333,86.13461695416666,81.0,92.0
50,86.15919555833332,87.35476908958333,84.0,94.0
51,87.42323805833333,87.86214170416666,81.0,91.0
52,87.84458555833334,89.81438512083332,84.0,94.0
53,90.37267055833333,90.7553945375,76.0,94.0
54,90.79401805833334,91.17323080833333,84.0,92.0
55,91.21536555833333,92.41620593333332,83.0,92.0
56,92.47940805833332,92.80068552708332,81.0,88.0
57,92.90075555833333,94.937268475,83.0,91.0
58,95.42884055833332,95.74309556875,81.0,89.0
59,95.85018805833332,96.16093183958333,76.0,93.0
60,96.27153555833333,97.34421606875,74.0,96.0
61,97.53557805833333,97.85334429791666,76.0,94.0
62,97.95692555833332,99.57033536041666,79.0,89.0
63,100.06366305833333,100.36211753749998,74.0,89.0
64,100.48501055833333,100.91162490208333,74.0,93.0
65,100.90635805833332,101.33472801666666,69.0,88.0
66,101.32770555833332,104.04715254791665,72.0,86.0
67,145.99054055833332,146.27495012083332,67.0,90.0
68,146.41188805833332,146.7524772875,69.0,95.0
69,146.8332355583333,148.03056470416666,72.0,91.0
70,148.09727805833333,148.5853389125,79.0,91.0
71,148.51862555833333,149.78617928749998,76.0,93.0
72,149.78266805833331,150.24790592291666,74.0,91.0
73,150.2040155583333,152.22999478749998,76.0,89.0
74,152.73210055833331,153.03933311041666,67.0,90.0
75,153.1534480583333,153.54670572499998,69.0,91.0
76,153.57479555833334,154.82479314166665,72.0,89.0
77,154.83883805833332,155.28476416249998,79.0,90.0
78,155.26018555833332,156.53125051666666,74.0,91.0
79,156.52422805833334,156.97366539166666,72.0,91.0
80,156.94557555833333,159.42625896458333,74.0,90.0
81,159.4736605583333,159.95294333958333,76.0,92.0
82,159.89500805833333,160.30406625625,79.0,91.0
83,160.31635555833333,162.53896362083333,81.0,89.0
84,162.84444055833333,163.14640626666665,76.0,92.0
85,163.26578805833333,163.62920027708333,79.0,91.0
86,163.68713555833332,164.46311720416665,72.0,90.0
87,164.9511780583333,165.21803147499998,76.0,90.0
88,165.3725255583333,165.64815704791664,74.0,96.0
89,165.79387305833333,166.20293125625,71.0,91.0
90,166.21522055833333,167.0526487145833,69.0,85.0
91,167.47926305833332,168.125329225,74.0,93.0
92,168.3219580583333,168.65201359999998,76.0,91.0
93,168.74330555833333,169.02595950625,74.0,93.0
94,169.16465305833333,169.45257385,74.0,95.0
95,169.58600055833332,169.95467962083333,71.0,90.0
96,170.00734805833332,170.34267044375,69.0,87.0
97,170.42869555833332,172.51963252708333,67.0,89.0
98,172.95678055833332,173.29210294375,79.0,96.0
99,173.37812805833332,173.78718625624998,81.0,89.0
100,173.7994755583333,174.93009135,84.0,93.0
101,175.06351805833333,175.50417731874998,81.0,90.0
102,175.48486555833333,177.81983295416666,84.0,95.0
103,178.0129505583333,178.35353978749998,76.0,94.0
104,178.43429805833333,178.79419904791663,84.0,96.0
105,178.85564555833332,180.12495490208332,83.0,95.0
106,180.1196880583333,180.54454678749997,81.0,88.0
107,180.5410355583333,182.6214388395833,83.0,91.0
108,183.0691205583333,183.38688679791665,81.0,92.0
109,183.4904680583333,183.78716692291664,76.0,90.0
110,183.9118155583333,184.9809848395833,74.0,96.0
111,185.17585805833332,185.55155957916665,76.0,93.0
112,185.59720555833331,186.79629031874998,83.0,92.0
113,186.8612480583333,187.25275011041666,81.0,91.0
114,187.2825955583333,188.9679855583333,79.0,90.0
115,189.8106805583333,190.14600294374998,79.0,93.0
116,190.2320280583333,190.62879695416663,81.0,92.0
117,190.65337555833332,191.8489490895833,84.0,94.0
118,191.9174180583333,192.35632170416665,81.0,91.0
119,192.3387655583333,194.30856512083332,84.0,94.0
120,194.8668505583333,195.24957453749997,76.0,94.0
121,195.2881980583333,195.6674108083333,84.0,92.0
122,195.7095455583333,196.91038593333332,83.0,92.0
123,196.97358805833332,197.29486552708332,81.0,88.0
124,197.39493555833332,199.43144847499997,83.0,91.0
125,199.92302055833332,200.23727556874996,81.0,89.0
126,200.34436805833332,200.6551118395833,76.0,93.0
127,200.7657155583333,201.83839606874997,74.0,96.0
128,202.0297580583333,202.34752429791664,76.0,94.0
129,202.45110555833332,204.06361599166664,79.0,89.0
130,204.55556269166664,204.85318169166663,74.0,89.0
131,204.97573069166663,205.40024365416664,74.0,93.0
132,205.39502081666663,205.81981159999998,69.0,88.0
133,205.81284781666665,208.18053414999997,72.0,86.0
134,208.31980981666663,208.6941131708333,81.0,91.0
135,208.73763681666662,209.1119401708333,76.0,93.0
136,209.15546381666664,210.4083912770833,74.0,92.0
137,210.41541373541665,210.8560729958333,76.0,92.0
138,210.83676123541665,212.6626004020833,79.0,94.0
139,212.91892013124996,213.23141952708332,74.0,91.0
140,213.35606816249998,213.8002386520833,74.0,98.0
141,213.80374988124998,214.24089791249997,69.0,90.0
142,214.2163193083333,217.50634103749996,72.0,92.0
143,217.54847578749997,219.05830432916665,74.0,90.0
144,219.21630964166664,220.04847095416665,74.0,95.0
145,220.05900464166663,220.90521087083332,69.0,90.0
146,220.8736098083333,224.07936203749998,72.0,85.0
