,start,end,pitch,velocity
0,20.342637,20.97375525,57.0,78.0
1,20.524455,21.3531255,69.0,82.0
2,20.468511,21.37585275,64.0,78.0
3,20.41081875,21.38983875,60.0,82.0
4,20.9055735,21.42130725,52.0,74.0
5,20.47025925,21.468510000000002,45.0,89.0
6,21.31641225,21.4789995,57.0,82.0
7,22.1573205,22.41081675,64.0,80.0
8,22.05767025,22.706271,60.0,76.0
9,22.2062715,22.87235475,67.0,78.0
10,22.97724975,23.9405355,60.0,73.0
11,23.3950815,24.4789965,67.0,72.0
12,23.8566195,24.5978775,72.0,85.0
13,22.59613125,24.83389125,55.0,74.0
14,24.6817935,24.88633875,60.0,79.0
15,22.1782995,24.89682825,48.0,90.0
16,24.69752775,24.9125625,67.0,82.0
17,25.496478,25.67305125,40.0,78.0
18,25.41081375,26.49123225,64.0,82.0
19,25.51221225,26.7936795,67.0,80.0
20,26.33738625,26.93528775,59.0,83.0
21,25.91430975,26.95976325,52.0,86.0
22,26.741232,27.2761965,64.0,91.0
23,27.22549725,28.07165025,67.0,85.0
24,28.01920275,28.641579750000002,62.0,88.0
25,28.46325825,28.74647475,67.0,86.0
26,28.88633475,29.74647375,67.0,82.0
27,28.79192925,29.756963250000002,62.0,83.0
28,27.61360875,29.7726975,50.0,76.0
29,28.93878225,29.7866835,71.0,84.0
30,27.251721,29.85136875,43.0,89.0
31,30.52619325,30.781437750000002,38.0,90.0
32,30.447522,31.54717125,62.0,77.0
33,31.405563,31.713255,50.0,81.0
34,30.5209485,31.86535275,65.0,83.0
35,30.58913025,31.9125555,69.0,78.0
36,31.823394750000002,32.12759025,62.0,91.0
37,32.24297475,32.58563175,67.0,82.0
38,32.23947825,32.62059675,62.0,86.0
39,33.07164525,33.56115525,55.0,90.0
40,33.468498000000004,33.6747915,62.0,87.0
41,33.77444175,33.94926675,55.0,80.0
42,33.84786825,34.00171425,62.0,83.0
43,33.9475185,34.13108475,67.0,85.0
44,32.64856875,34.916049,50.0,73.0
45,34.74297225,34.9265385,55.0,81.0
46,34.7447205,34.9684965,62.0,85.0
47,32.23248525,34.97374125,43.0,89.0
48,36.8216415,37.005207750000004,64.0,89.0
49,36.382830750000004,37.0104525,60.0,89.0
50,35.992971,37.45275975,55.0,77.0
51,37.265697,37.79891325,67.0,84.0
52,37.26045225,37.881081,60.0,84.0
53,37.650312,38.17303875,55.0,70.0
54,35.61010425,38.237724,48.0,92.0
55,38.09961225,38.258703,60.0,78.0
56,38.9405205,39.202758,36.0,85.0
57,38.924786250000004,39.928281750000004,60.0,83.0
58,38.86184925,39.9475125,64.0,83.0
59,38.804157000000004,39.96324675,67.0,79.0
60,38.74646475,39.97373625,72.0,83.0
61,40.20100875,40.69926,60.0,90.0
62,39.409051500000004,41.307651,48.0,74.0
63,39.818142,41.328630000000004,55.0,88.0
64,40.6468125,41.78841975,64.0,84.0
65,40.64156775,41.86534275,67.0,79.0
66,41.484224250000004,42.265692,60.0,81.0
67,42.33387375,42.865774325,60.0,82.0
68,43.175196625,43.639330075,64.0,82.0
69,42.75345375,44.103463524999995,55.0,80.0
70,43.597136125,44.52012878125,60.0,78.0
71,44.019075625,44.6871465,67.0,69.0
72,44.441015125,44.89987433125,55.0,82.0
73,42.33387375,45.095021349999996,48.0,91.0
74,44.862954625,45.186441574999996,60.0,80.0
75,44.862954625,45.2954426125,64.0,88.0
76,45.706833625,46.541922218749995,60.0,85.0
77,45.706833625,47.40162395,57.0,78.0
78,46.550712624999996,47.4192047625,64.0,85.0
79,46.972652124999996,47.4438179,60.0,78.0
80,47.394591625,48.086937704166665,69.0,89.0
81,46.128773124999995,48.61537769375,52.0,78.0
82,48.23792055833333,48.64522314166666,64.0,87.0
83,45.706833625,48.65224559999999,45.0,88.0
84,49.08061555833333,49.32113475625,55.0,82.0
85,49.08061555833333,49.63187853749999,60.0,88.0
86,49.50196305833333,49.95315600625,55.0,77.0
87,50.34465805833333,50.532508818749996,55.0,75.0
88,49.08061555833333,50.537775662499996,48.0,86.0
89,49.92331055833333,50.76073871458333,64.0,80.0
90,50.76600555833333,51.34711398541666,62.0,83.0
91,51.18735305833333,51.74563849583333,57.0,72.0
92,50.76600555833333,51.843952912499994,50.0,88.0
93,51.60870055833333,51.900132579166666,65.0,84.0
94,52.45139555833333,52.720004589583326,38.0,89.0
95,52.45139555833333,53.09921733958333,57.0,80.0
96,52.45139555833333,53.113262256249996,62.0,82.0
97,53.29409055833333,53.829553006249995,57.0,82.0
98,53.715438058333326,53.950690412499995,62.0,84.0
99,54.13678555833333,54.833764547916665,65.0,83.0
100,54.97948055833333,55.37976068333333,62.0,85.0
101,52.87274305833333,55.404339287499994,50.0,80.0
102,55.40082805833333,55.63432479791666,57.0,67.0
103,55.82217555833333,56.67013740208333,60.0,85.0
104,55.82217555833333,56.69822723541667,57.0,78.0
105,57.08621805833333,57.640992266666665,57.0,75.0
106,56.66487055833333,58.000893256249995,64.0,89.0
107,57.507565558333326,58.07638468333333,69.0,90.0
108,57.92891305833333,58.41872952708333,57.0,78.0
109,56.24352305833333,58.43453005833333,52.0,79.0
110,55.82217555833333,58.44330813124999,45.0,89.0
111,58.35026055833333,58.488954110416664,60.0,83.0
112,58.35026055833333,58.51353271458333,64.0,87.0
113,59.19295555833333,59.42118545416666,55.0,81.0
114,59.19295555833333,59.737196079166665,60.0,82.0
115,59.61430305833333,60.34639433958333,55.0,82.0
116,60.03565055833333,60.41661892291666,60.0,80.0
117,60.03565055833333,60.52722264166666,64.0,80.0
118,59.19295555833333,60.77651991249999,48.0,84.0
119,60.87834555833333,61.052151402083325,57.0,77.0
120,60.87834555833333,61.441897839583326,62.0,84.0
121,61.29969305833333,61.85973411041666,57.0,75.0
122,61.72104055833333,62.20559018333333,62.0,85.0
123,62.142388058333324,62.407485860416664,57.0,56.0
124,60.87834555833333,62.43206446458333,50.0,87.0
125,61.72104055833333,62.49175536041666,65.0,82.0
126,62.56373555833333,63.160644516666665,62.0,86.0
127,62.98508305833333,63.515278662499995,57.0,77.0
128,63.40643055833333,63.92433686041666,62.0,85.0
129,63.40643055833333,63.96822722499999,65.0,83.0
130,62.56373555833333,64.06829725624999,50.0,85.0
131,63.82777805833333,64.07883094374999,57.0,69.0
132,64.24912555833333,64.53704635,57.0,74.0
133,64.24912555833333,64.75649817291666,62.0,79.0
134,64.67047305833333,64.96190507916666,57.0,78.0
135,65.09182055833332,65.28844939166666,57.0,86.0
136,65.09182055833332,65.41836487083333,62.0,88.0
137,64.24912555833333,65.43065417291666,50.0,84.0
138,65.09182055833332,65.45523277708332,65.0,89.0
139,66.35586305833333,67.39167566249999,50.0,89.0
140,66.77721055833334,67.41098742291666,62.0,91.0
141,65.93451555833333,67.41625426666667,43.0,89.0
142,67.19855805833333,67.52334675624999,55.0,83.0
143,67.61990555833333,68.09216588125,67.0,84.0
144,67.61990555833333,68.09567711041666,62.0,89.0
145,67.61990555833333,68.10796641249999,55.0,89.0
146,68.46260055833332,68.645184475,55.0,90.0
147,68.46260055833332,68.67854115208333,62.0,92.0
148,68.04125305833333,68.687319225,50.0,87.0
149,68.46260055833332,68.6978529125,67.0,89.0
150,67.61990555833333,68.71014221458333,43.0,93.0
151,69.30529555833333,69.76175534999999,64.0,89.0
152,69.30529555833333,69.9197606625,57.0,86.0
153,70.14799055833333,70.40957713124999,60.0,90.0
154,69.72664305833332,70.41133274583333,52.0,78.0
155,69.30529555833333,70.42186643333332,45.0,89.0
156,70.14799055833333,70.63780702708333,64.0,90.0
157,70.56933805833333,70.80985725625,57.0,78.0
158,70.99068555833333,71.30845179791666,55.0,90.0
159,70.99068555833333,71.73331052708333,60.0,85.0
160,71.83338055833333,72.31266333958332,64.0,95.0
161,71.41203305833332,72.37586546458333,52.0,79.0
162,70.99068555833333,72.46715742291666,48.0,89.0
163,72.25472805833333,72.51631463125,55.0,90.0
164,72.67607555833332,72.89728299583334,55.0,85.0
165,72.67607555833332,73.1852037875,60.0,83.0
166,73.09742305833333,73.76631221458332,55.0,79.0
167,73.51877055833333,73.95767420416666,60.0,82.0
168,72.67607555833332,73.97523034999999,48.0,84.0
169,73.51877055833333,74.01560948541666,64.0,91.0
170,73.94011805833333,74.07705599583332,55.0,91.0
171,74.36146555833332,74.44749067291666,60.0,81.0
172,74.36146555833332,74.62129651666666,59.0,80.0
173,74.36146555833332,74.92677345416666,64.0,86.0
174,74.78281305833333,75.24278407916665,59.0,90.0
175,74.36146555833332,75.25682899583333,52.0,90.0
176,75.20416055833333,75.66062034999999,64.0,90.0
177,75.20416055833333,75.67642088125,67.0,86.0
178,75.62550805833332,75.74488984999999,59.0,91.0
179,76.46820305833333,77.02824411041667,55.0,85.0
180,76.88955055833333,77.41447931875,62.0,89.0
181,77.31089805833332,77.58126270416666,55.0,88.0
182,77.73224555833333,78.0623011,67.0,82.0
183,77.73224555833333,78.16939358958334,62.0,85.0
184,77.73224555833333,78.19923903749999,55.0,80.0
185,78.57494055833332,78.74523517291667,55.0,89.0
186,76.04685555833333,78.83652713125,43.0,89.0
187,78.15359305833333,78.85057204791666,50.0,73.0
188,78.57494055833332,78.9892656,62.0,85.0
189,78.99628805833333,79.09109124583333,55.0,83.0
190,79.41763555833333,79.65113229791666,57.0,82.0
191,79.41763555833333,80.0321006625,62.0,90.0
192,79.83898305833333,80.37268989166665,57.0,83.0
193,79.41763555833333,80.55000696458333,50.0,88.0
194,80.26033055833332,80.76419194374999,62.0,89.0
195,80.68167805833332,80.88006250625,57.0,89.0
196,80.26033055833332,81.02402290208332,65.0,87.0
197,81.10302555833333,81.66306661041666,64.0,89.0
198,81.10302555833333,82.01945637083332,59.0,84.0
199,81.52437305833332,82.07036919375,47.0,76.0
200,81.94572055833333,82.10021464166667,64.0,92.0
201,81.10302555833333,82.14410500624999,40.0,90.0
202,81.94572055833333,82.26524241249999,67.0,89.0
203,82.36706805833333,82.49873915208332,59.0,89.0
204,82.78841555833333,83.41341435,62.0,84.0
205,82.78841555833333,83.45203787083332,55.0,81.0
206,83.63111055833332,83.87865221458333,62.0,90.0
207,84.05245805833333,84.31228901666665,59.0,88.0
208,82.78841555833333,84.34213446458332,43.0,90.0
209,83.84178430833333,84.35442376666666,55.0,90.0
210,83.20976305833332,84.38426921458333,50.0,84.0
211,84.26313180833333,84.41587027708333,62.0,83.0
212,84.47380555833332,84.56334190208332,55.0,75.0
213,84.47380555833332,84.90393113124999,59.0,87.0
214,84.47380555833332,84.96713325625,62.0,79.0
215,84.47380555833332,84.96888887083333,67.0,89.0
216,84.89515305833334,85.49381763125,50.0,82.0
217,85.31650055833333,85.72906998541666,59.0,92.0
218,85.31650055833333,85.75364858958332,55.0,91.0
219,85.31650055833333,85.79753895416667,67.0,88.0
220,85.31650055833333,85.85547423541666,62.0,91.0
221,84.47380555833332,85.99767901666667,43.0,91.0
222,85.73784805833333,86.09248220416666,50.0,90.0
223,86.15919555833332,86.61565535,64.0,89.0
224,86.15919555833332,86.77366066249999,57.0,86.0
225,87.00189055833333,87.26347713125,60.0,90.0
226,86.58054305833332,87.26523274583333,52.0,78.0
227,86.15919555833332,87.27576643333333,45.0,89.0
228,87.00189055833333,87.49170702708332,64.0,90.0
229,87.42323805833333,87.66375725625,57.0,78.0
230,87.84458555833334,88.16235179791667,55.0,90.0
231,87.84458555833334,88.58721052708333,60.0,85.0
232,88.68728055833333,89.16656333958332,64.0,95.0
233,88.26593305833333,89.22976546458332,52.0,79.0
234,87.84458555833334,89.32105742291665,48.0,89.0
235,89.10862805833332,89.37021463125,55.0,90.0
236,89.52997555833332,89.75118299583332,55.0,85.0
237,89.52997555833332,90.0391037875,60.0,83.0
238,89.95132305833333,90.62021221458332,55.0,79.0
239,90.37267055833333,90.81157420416666,60.0,82.0
240,89.52997555833332,90.82913034999999,48.0,84.0
241,90.37267055833333,90.86950948541666,64.0,91.0
242,90.79401805833334,90.93095599583333,55.0,91.0
243,91.21536555833333,91.30139067291665,60.0,81.0
244,91.21536555833333,91.47519651666666,59.0,80.0
245,91.21536555833333,91.78067345416666,64.0,86.0
246,91.63671305833333,92.09668407916666,59.0,90.0
247,91.21536555833333,92.11072899583333,52.0,90.0
248,92.05806055833332,92.51452035,64.0,90.0
249,92.05806055833332,92.53032088124999,67.0,86.0
250,92.47940805833332,92.59878985,59.0,91.0
251,93.32210305833333,93.88214411041666,55.0,85.0
252,93.74345055833334,94.26837931875,62.0,89.0
253,94.16479805833333,94.43516270416666,55.0,88.0
254,94.58614555833333,94.9162011,67.0,82.0
255,94.58614555833333,95.02329358958332,62.0,85.0
256,94.58614555833333,95.05313903749999,55.0,80.0
257,95.42884055833332,95.59913517291666,55.0,89.0
258,92.90075555833333,95.69042713124999,43.0,89.0
259,95.00749305833332,95.70447204791665,50.0,73.0
260,95.42884055833332,95.84316559999999,62.0,85.0
261,95.85018805833332,95.94499124583334,55.0,83.0
262,96.27153555833333,96.50503229791666,57.0,82.0
263,96.27153555833333,96.8860006625,62.0,90.0
264,96.69288305833334,97.22658989166666,57.0,83.0
265,96.27153555833333,97.40390696458333,50.0,88.0
266,97.11423055833333,97.61809194374999,62.0,89.0
267,97.53557805833333,97.73396250625,57.0,89.0
268,97.11423055833333,97.87792290208333,65.0,87.0
269,97.95692555833332,98.84877776666666,62.0,85.0
270,98.79962055833332,99.22623490208332,55.0,90.0
271,99.01029430833333,99.31050440208332,62.0,85.0
272,99.22096805833333,99.47377655833333,67.0,84.0
273,98.37827305833332,99.50362200625,50.0,84.0
274,97.95692555833332,99.52117815208332,43.0,90.0
275,99.43164180833332,99.5826246625,55.0,83.0
276,99.64231555833332,100.30769348541665,62.0,86.0
277,99.64231555833332,100.33578331874999,55.0,87.0
278,100.48501055833333,100.72201852708332,55.0,85.0
279,100.48501055833333,100.90635805833332,59.0,81.0
280,100.48501055833333,100.94322596458332,62.0,84.0
281,100.06366305833333,101.00993931874999,50.0,80.0
282,99.64231555833332,101.04329599583332,43.0,90.0
283,100.90635805833332,101.19603446458333,55.0,90.0
284,101.32770555833332,101.67005040208332,55.0,90.0
285,101.32770555833332,102.03697385,60.0,89.0
286,102.17040055833333,102.44427643333333,62.0,83.0
287,102.38107430833333,102.71464107916665,55.0,91.0
288,102.59174805833332,102.90424745416666,60.0,83.0
289,102.80242180833332,102.99729502708333,62.0,84.0
290,103.01309555833333,103.59420398541667,64.0,90.0
291,103.43444305833333,103.72763069375,55.0,83.0
292,103.85579055833333,104.28416051666666,60.0,80.0
293,103.85579055833333,104.39651984999999,64.0,83.0
294,101.74905305833332,104.43514337083332,52.0,78.0
295,104.27713805833332,104.52467971458333,55.0,69.0
296,101.32770555833332,104.53170217291665,48.0,90.0
297,104.69848555833332,104.91442615208332,55.0,82.0
298,104.69848555833332,105.21288063124999,60.0,83.0
299,105.11983305833333,105.83963503749999,55.0,83.0
300,105.54118055833332,105.95374998541666,62.0,83.0
301,105.96252805833333,106.22587024583333,64.0,77.0
302,106.38387555833333,106.61386106875,55.0,76.0
303,106.38387555833333,106.82102358958332,59.0,78.0
304,106.80522305833333,107.10894438124998,55.0,82.0
305,107.22657055833332,107.43197746458333,55.0,90.0
306,107.22657055833332,107.62860629791666,59.0,90.0
307,104.69848555833332,107.77081107916666,48.0,89.0
308,108.06926555833333,108.31680721458332,55.0,85.0
309,108.06926555833333,108.74868840208333,60.0,84.0
310,108.49061305833332,108.99798567291666,55.0,79.0
311,108.91196055833333,109.45971230833332,64.0,87.0
312,109.75465555833333,110.92740609999998,60.0,89.0
313,109.33330805833333,110.97129646458333,55.0,74.0
314,108.06926555833333,111.12227931874999,48.0,90.0
315,112.22129404791667,112.72866666249999,53.0,78.0
316,112.64439716249998,112.78835755833333,57.0,81.0
317,112.21602720416666,112.81995862083332,60.0,85.0
318,113.12367994375,113.75570119374999,65.0,79.0
319,113.07978957916666,113.81363647499998,60.0,78.0
320,112.99200884999999,113.83119262083332,57.0,79.0
321,112.90247250624998,113.83294823541667,53.0,76.0
322,111.80872462083332,114.28940802708331,48.0,83.0
323,111.38211027708333,114.29994171458333,41.0,91.0
324,114.80380309999998,115.69038846458332,55.0,83.0
325,114.80204748541667,116.07837928749998,52.0,84.0
326,116.02044400624999,116.19249423541666,55.0,89.0
327,115.62718633958332,116.26974127708331,59.0,82.0
328,116.30660918333334,117.36524477708332,52.0,76.0
329,116.39263429791666,117.38104530833331,55.0,89.0
330,116.53308346458331,117.41264637083333,64.0,90.0
331,116.46461449583333,117.41791321458334,59.0,76.0
332,115.204083225,117.50744955833332,47.0,78.0
333,114.80555871458333,117.52676131875,40.0,91.0
334,118.10435851666665,118.66966641249999,55.0,76.0
335,118.02360024583334,118.7960706625,59.0,81.0
336,117.98673233958331,118.84873909999999,62.0,79.0
337,117.93406390208332,119.4386256,67.0,73.0
338,118.94880913124999,119.85295064166667,55.0,91.0
339,119.39122400624998,119.91790838124999,62.0,90.0
340,120.21987408958333,120.51832856874998,55.0,78.0
341,119.83539449583333,120.84311726666667,67.0,90.0
342,118.54501777708333,120.86242902708332,50.0,84.0
343,118.12542589166665,120.94318729791667,43.0,90.0
344,120.66404457916667,120.96952151666665,62.0,89.0
345,120.66053334999998,120.97303274583334,55.0,89.0
346,121.40666954791666,121.66825612083332,55.0,79.0
347,121.51727326666665,121.67527857916664,36.0,86.0
348,121.54887432916667,122.21425225624998,64.0,90.0
349,121.46987167291667,122.2932549125,60.0,83.0
350,121.92984269375,122.67597889166666,48.0,89.0
351,122.34592334999999,122.90069755833332,55.0,90.0
352,123.11839376666666,123.40455894375,55.0,76.0
353,123.18159589166666,123.70828026666666,59.0,81.0
354,123.25884293333331,124.1261165375,62.0,82.0
355,124.04184703749999,124.52815227708334,55.0,87.0
356,123.22373064166666,124.57555387083332,43.0,89.0
357,124.44563839166665,124.58608755833333,59.0,84.0
358,123.63103322499998,124.65455652708332,50.0,81.0
359,124.76867147499999,125.38138096458331,57.0,80.0
360,124.91087625624999,125.59907717291665,69.0,90.0
361,124.8318736,125.67105737083332,60.0,83.0
362,124.87927519375,125.74479318333331,64.0,84.0
363,126.12225031874999,126.27674440208332,60.0,89.0
364,125.70792527708332,126.30834546458331,57.0,93.0
365,124.87400835,126.37154758958332,45.0,90.0
366,125.27077724583333,126.40841549583331,52.0,83.0
367,126.53306413125,126.83151861041665,55.0,81.0
368,126.5909994125,127.46705108958332,60.0,80.0
369,127.39858212083331,127.89015420416666,55.0,95.0
370,126.96494531874998,127.96740124583332,52.0,80.0
371,127.81115154791667,128.0657156625,60.0,91.0
372,126.58046572499998,128.07624934999998,48.0,89.0
373,128.08327180833334,128.31676854791667,55.0,84.0
374,128.2026536,128.81536308958331,60.0,83.0
375,128.27112256875,128.82414116249998,64.0,89.0
376,128.23074343333332,129.28762341249998,48.0,86.0
377,129.10503949583332,129.45791802708334,60.0,85.0
378,129.10679511041667,129.46845171458332,64.0,89.0
379,129.85117569374998,130.06536067291665,52.0,77.0
380,129.90384413125,130.33572531874998,55.0,82.0
381,129.94246765208334,130.49899747499998,59.0,82.0
382,130.33572531874998,131.03445992291665,47.0,77.0
383,129.94422326666665,131.05377168333334,40.0,91.0
384,130.76409527708333,131.59625658958333,52.0,90.0
385,132.47230826666666,133.37996100625,59.0,89.0
386,132.8901445375,133.41156206875,55.0,80.0
387,133.71352777708333,133.88557800625,59.0,78.0
388,133.31675888125,133.95755820416665,62.0,87.0
389,133.95931381875,134.13311966249998,55.0,75.0
390,134.04358331875,134.20509986041665,59.0,86.0
391,134.14716457916666,134.23143407916666,62.0,79.0
392,134.206855475,134.33150411041666,67.0,83.0
393,132.03691584999999,134.3648607875,50.0,82.0
394,131.63839133958334,134.46317520416665,43.0,91.0
395,134.87925586041666,135.05832854791666,57.0,71.0
396,134.93719114166666,135.15137612083333,62.0,82.0
397,134.98985957916665,136.018649725,38.0,91.0
398,135.4182295375,136.0256721833333,45.0,73.0
399,135.00566011041667,136.09238553749998,65.0,82.0
400,135.84659949583332,136.3469496520833,57.0,91.0
401,136.55937901666667,136.8086762875,55.0,78.0
402,136.63311482916666,137.15804358958331,59.0,84.0
403,136.692805725,137.18437780833332,62.0,79.0
404,136.74020731874998,137.99196051666667,67.0,87.0
405,137.53725633958334,138.24301340208333,55.0,91.0
406,137.93929207916665,138.41330801666666,62.0,90.0
407,138.75389724583331,139.32096075625,62.0,76.0
408,137.11064199583333,139.40874148541667,50.0,81.0
409,138.35010589166666,139.42454201666666,67.0,89.0
410,139.14715491249999,139.45087623541664,55.0,74.0
411,136.69105011041665,139.4596543083333,43.0,90.0
412,139.95298200624998,140.24616964166665,55.0,58.0
413,140.01793974583333,140.58500325625,60.0,81.0
414,140.41646425624998,140.88696896458333,55.0,79.0
415,140.8711684333333,141.36800736041667,62.0,78.0
416,141.27847101666666,141.75775379791665,55.0,78.0
417,142.12994408958332,142.60044879791667,55.0,76.0
418,141.72088589166665,142.60396002708333,64.0,85.0
419,140.0232065895833,142.96034978749998,48.0,92.0
420,142.56182527708333,143.01828506875,60.0,82.0
421,142.96737224583333,143.56428120416666,55.0,87.0
422,143.81357847499999,144.29812809999999,55.0,80.0
423,144.25072650624998,144.60536065208333,60.0,82.0
424,143.39574220416665,144.76336596458333,48.0,100.0
425,144.63696171458332,144.85641353749998,55.0,71.0
426,144.98281778749998,146.68049708958333,55.0,76.0
427,145.05128675625,146.72087622499998,60.0,81.0
428,145.11273326666665,146.73492114166666,64.0,88.0
429,146.8332355583333,147.36694239166667,60.0,82.0
430,147.67593055833333,148.13941280833333,64.0,82.0
431,147.2545830583333,148.60289505833333,55.0,80.0
432,148.09727805833333,149.01897571458332,60.0,78.0
433,148.51862555833333,149.18575909999998,67.0,69.0
434,148.93997305833332,149.3981884645833,55.0,82.0
435,146.8332355583333,149.59306168333333,48.0,91.0
436,149.36132055833332,149.68435364166666,60.0,80.0
437,149.36132055833332,149.79320174583333,64.0,88.0
438,150.2040155583333,151.03793248541666,60.0,85.0
439,150.2040155583333,151.89642801666665,57.0,78.0
440,151.04671055833333,151.9139841625,64.0,85.0
441,151.46805805833333,151.93856276666665,60.0,78.0
442,151.88940555833332,152.58111770416664,69.0,89.0
443,150.62536305833333,153.10955769375,52.0,78.0
444,152.73210055833331,153.13940314166666,64.0,87.0
445,150.2040155583333,153.1464256,45.0,88.0
446,153.57479555833334,153.81531475625,55.0,82.0
447,153.57479555833334,154.1260585375,60.0,88.0
448,153.99614305833333,154.44733600625,55.0,77.0
449,154.83883805833332,155.02668881875,55.0,75.0
450,153.57479555833334,155.0319556625,48.0,86.0
451,154.41749055833333,155.2549187145833,64.0,80.0
452,155.26018555833332,155.84129398541666,62.0,83.0
453,155.68153305833332,156.23981849583333,57.0,72.0
454,155.26018555833332,156.3381329125,50.0,88.0
455,156.1028805583333,156.39431257916667,65.0,84.0
456,156.94557555833333,157.2141845895833,38.0,89.0
457,156.94557555833333,157.59339733958333,57.0,80.0
458,156.94557555833333,157.60744225624998,62.0,82.0
459,157.78827055833332,158.32373300625,57.0,82.0
460,158.20961805833332,158.4448704125,62.0,84.0
461,158.63096555833332,159.32794454791664,65.0,83.0
462,159.4736605583333,159.87394068333333,62.0,85.0
463,157.36692305833333,159.8985192875,50.0,80.0
464,159.89500805833333,160.12850479791666,57.0,67.0
465,160.31635555833333,161.16431740208333,60.0,85.0
466,160.31635555833333,161.19240723541665,57.0,78.0
467,161.58039805833332,162.13517226666664,57.0,75.0
468,161.15905055833332,162.49507325624998,64.0,89.0
469,162.0017455583333,162.57056468333332,69.0,90.0
470,162.4230930583333,162.91290952708331,57.0,78.0
471,160.73770305833332,162.9287100583333,52.0,79.0
472,160.31635555833333,162.93748813124998,45.0,89.0
473,162.84444055833333,162.98313411041664,60.0,83.0
474,162.84444055833333,163.00771271458333,64.0,87.0
475,163.68713555833332,163.91536545416665,55.0,81.0
476,163.68713555833332,164.23137607916667,60.0,82.0
477,164.10848305833332,164.84057433958333,55.0,82.0
478,164.52983055833332,164.91079892291665,60.0,80.0
479,164.52983055833332,165.02140264166667,64.0,80.0
480,163.68713555833332,165.2706999125,48.0,84.0
481,165.3725255583333,165.54633140208333,57.0,77.0
482,165.3725255583333,165.93607783958333,62.0,84.0
483,165.79387305833333,166.35391411041667,57.0,75.0
484,166.21522055833333,166.69977018333333,62.0,85.0
485,166.63656805833332,166.90166586041664,57.0,56.0
486,165.3725255583333,166.92624446458333,50.0,87.0
487,166.21522055833333,166.98593536041665,65.0,82.0
488,167.05791555833332,167.65482451666665,62.0,86.0
489,167.47926305833332,168.00945866249998,57.0,77.0
490,167.9006105583333,168.41851686041664,62.0,85.0
491,167.9006105583333,168.462407225,65.0,83.0
492,167.05791555833332,168.56247725625,50.0,85.0
493,168.3219580583333,168.57301094374998,57.0,69.0
494,168.74330555833333,169.03122635,57.0,74.0
495,168.74330555833333,169.25067817291665,62.0,79.0
496,169.16465305833333,169.45608507916666,57.0,78.0
497,169.58600055833332,169.78262939166666,57.0,86.0
498,169.58600055833332,169.91254487083333,62.0,88.0
499,168.74330555833333,169.92483417291666,50.0,84.0
500,169.58600055833332,169.94941277708332,65.0,89.0
501,170.8500430583333,171.88585566249998,50.0,89.0
502,171.2713905583333,171.90516742291666,62.0,91.0
503,170.42869555833332,171.91043426666664,43.0,89.0
504,171.69273805833333,172.01752675625,55.0,83.0
505,172.11408555833333,172.58634588125,67.0,84.0
506,172.11408555833333,172.58985711041666,62.0,89.0
507,172.11408555833333,172.6021464125,55.0,89.0
508,172.95678055833332,173.13936447499998,55.0,90.0
509,172.95678055833332,173.1727211520833,62.0,92.0
510,172.53543305833333,173.18149922499998,50.0,87.0
511,172.95678055833332,173.1920329125,67.0,89.0
512,172.11408555833333,173.20432221458333,43.0,93.0
513,173.7994755583333,174.25593535,64.0,89.0
514,173.7994755583333,174.41394066249998,57.0,86.0
515,174.64217055833333,174.90375713125,60.0,90.0
516,174.2208230583333,174.90551274583333,52.0,78.0
517,173.7994755583333,174.91604643333332,45.0,89.0
518,174.64217055833333,175.1319870270833,64.0,90.0
519,175.06351805833333,175.30403725624998,57.0,78.0
520,175.48486555833333,175.80263179791666,55.0,90.0
521,175.48486555833333,176.22749052708332,60.0,85.0
522,176.32756055833332,176.8068433395833,64.0,95.0
523,175.90621305833332,176.8700454645833,52.0,79.0
524,175.48486555833333,176.96133742291664,48.0,89.0
525,176.7489080583333,177.01049463124997,55.0,90.0
526,177.1702555583333,177.3914629958333,55.0,85.0
527,177.1702555583333,177.67938378749997,60.0,83.0
528,177.5916030583333,178.2604922145833,55.0,79.0
529,178.0129505583333,178.45185420416664,60.0,82.0
530,177.1702555583333,178.46941034999998,48.0,84.0
531,178.0129505583333,178.50978948541663,64.0,91.0
532,178.43429805833333,178.57123599583332,55.0,91.0
533,178.85564555833332,178.94167067291664,60.0,81.0
534,178.85564555833332,179.11547651666663,59.0,80.0
535,178.85564555833332,179.42095345416664,64.0,86.0
536,179.27699305833332,179.73696407916665,59.0,90.0
537,178.85564555833332,179.7510089958333,52.0,90.0
538,179.6983405583333,180.15480035,64.0,90.0
539,179.6983405583333,180.17060088124998,67.0,86.0
540,180.1196880583333,180.23906985,59.0,91.0
541,180.9623830583333,181.52242411041664,55.0,85.0
542,181.38373055833333,181.90865931874998,62.0,89.0
543,181.80507805833332,182.07544270416665,55.0,88.0
544,182.22642555833332,182.55648109999998,67.0,82.0
545,182.22642555833332,182.6635735895833,62.0,85.0
546,182.22642555833332,182.69341903749998,55.0,80.0
547,183.0691205583333,183.23941517291664,55.0,89.0
548,180.5410355583333,183.33070713124997,43.0,89.0
549,182.6477730583333,183.34475204791664,50.0,73.0
550,183.0691205583333,183.48344559999998,62.0,85.0
551,183.4904680583333,183.58527124583333,55.0,83.0
552,183.9118155583333,184.14531229791663,57.0,82.0
553,183.9118155583333,184.52628066249997,62.0,90.0
554,184.33316305833333,184.86686989166665,57.0,83.0
555,183.9118155583333,185.0441869645833,50.0,88.0
556,184.75451055833332,185.25837194374998,62.0,89.0
557,185.17585805833332,185.37424250624997,57.0,89.0
558,184.75451055833332,185.51820290208332,65.0,87.0
559,185.59720555833331,186.15724661041665,64.0,89.0
560,185.59720555833331,186.51363637083332,59.0,84.0
561,186.0185530583333,186.56454919374997,47.0,76.0
562,186.4399005583333,186.59439464166664,64.0,92.0
563,185.59720555833331,186.63828500625,40.0,90.0
564,186.4399005583333,186.7594224125,67.0,89.0
565,186.8612480583333,186.99291915208332,59.0,89.0
566,187.2825955583333,187.90759434999998,62.0,84.0
567,187.2825955583333,187.94621787083332,55.0,81.0
568,188.12529055833332,188.37283221458333,62.0,90.0
569,188.54663805833331,188.80646901666665,59.0,88.0
570,187.2825955583333,188.83631446458332,43.0,90.0
571,188.3359643083333,188.84860376666666,55.0,90.0
572,187.70394305833332,188.8784492145833,50.0,84.0
573,188.7573118083333,188.91005027708331,62.0,83.0
574,188.9679855583333,189.05752190208332,55.0,75.0
575,188.9679855583333,189.39811113124998,59.0,87.0
576,188.9679855583333,189.46131325624998,62.0,79.0
577,188.9679855583333,189.46306887083333,67.0,89.0
578,189.3893330583333,189.98799763124998,50.0,82.0
579,189.8106805583333,190.22324998541666,59.0,92.0
580,189.8106805583333,190.24782858958332,55.0,91.0
581,189.8106805583333,190.29171895416664,67.0,88.0
582,189.8106805583333,190.34965423541664,62.0,91.0
583,188.9679855583333,190.49185901666664,43.0,91.0
584,190.2320280583333,190.58666220416666,50.0,90.0
585,190.65337555833332,191.10983534999997,64.0,89.0
586,190.65337555833332,191.2678406625,57.0,86.0
587,191.49607055833332,191.75765713124997,60.0,90.0
588,191.07472305833332,191.75941274583332,52.0,78.0
589,190.65337555833332,191.7699464333333,45.0,89.0
590,191.49607055833332,191.98588702708332,64.0,90.0
591,191.9174180583333,192.15793725624997,57.0,78.0
592,192.3387655583333,192.65653179791664,55.0,90.0
593,192.3387655583333,193.0813905270833,60.0,85.0
594,193.1814605583333,193.66074333958332,64.0,95.0
595,192.7601130583333,193.72394546458332,52.0,79.0
596,192.3387655583333,193.81523742291665,48.0,89.0
597,193.60280805833332,193.86439463124998,55.0,90.0
598,194.02415555833332,194.24536299583332,55.0,85.0
599,194.02415555833332,194.53328378749998,60.0,83.0
600,194.44550305833332,195.11439221458332,55.0,79.0
601,194.8668505583333,195.30575420416665,60.0,82.0
602,194.02415555833332,195.32331034999999,48.0,84.0
603,194.8668505583333,195.36368948541664,64.0,91.0
604,195.2881980583333,195.4251359958333,55.0,91.0
605,195.7095455583333,195.79557067291665,60.0,81.0
606,195.7095455583333,195.96937651666664,59.0,80.0
607,195.7095455583333,196.27485345416665,64.0,86.0
608,196.1308930583333,196.59086407916664,59.0,90.0
609,195.7095455583333,196.6049089958333,52.0,90.0
610,196.55224055833332,197.00870034999997,64.0,90.0
611,196.55224055833332,197.02450088125,67.0,86.0
612,196.97358805833332,197.09296984999997,59.0,91.0
613,197.8162830583333,198.37632411041665,55.0,85.0
614,198.2376305583333,198.76255931874996,62.0,89.0
615,198.6589780583333,198.92934270416666,55.0,88.0
616,199.0803255583333,199.41038109999997,67.0,82.0
617,199.0803255583333,199.51747358958332,62.0,85.0
618,199.0803255583333,199.5473190375,55.0,80.0
619,199.92302055833332,200.09331517291665,55.0,89.0
620,197.39493555833332,200.18460713124998,43.0,89.0
621,199.50167305833332,200.19865204791665,50.0,73.0
622,199.92302055833332,200.3373456,62.0,85.0
623,200.34436805833332,200.4391712458333,55.0,83.0
624,200.7657155583333,200.99921229791664,57.0,82.0
625,200.7657155583333,201.38018066249998,62.0,90.0
626,201.1870630583333,201.72076989166663,57.0,83.0
627,200.7657155583333,201.8980869645833,50.0,88.0
628,201.6084105583333,202.11227194375,62.0,89.0
629,202.0297580583333,202.22814250624998,57.0,89.0
630,201.6084105583333,202.3721029020833,65.0,87.0
631,202.45110555833332,203.34295776666664,62.0,85.0
632,203.29380055833332,203.72041490208332,55.0,90.0
633,203.5044743083333,203.80451239166663,62.0,85.0
634,203.7151480583333,203.96732749166665,67.0,84.0
635,202.87245305833332,203.99708939166663,50.0,84.0
636,202.45110555833332,204.01459639166663,43.0,90.0
637,203.92531069166662,204.07587089166663,55.0,83.0
638,204.13539469166665,204.79890999166665,62.0,86.0
639,204.13539469166665,204.82692119166663,55.0,87.0
640,204.97573069166663,205.21207519166663,55.0,85.0
641,204.97573069166663,205.39502081666663,59.0,81.0
642,204.97573069166663,205.43158067916664,62.0,84.0
643,204.55556269166664,205.4977366208333,50.0,80.0
644,204.13539469166665,205.53081459166663,43.0,90.0
645,205.39502081666663,205.68227687916664,55.0,90.0
646,205.73972809166662,206.13666374166664,55.0,62.0
647,205.8163297083333,206.4169560208333,60.0,83.0
648,205.78673362916663,206.53882222916664,36.0,86.0
649,206.2184881958333,206.6885435708333,55.0,89.0
650,206.6206466833333,206.94272166249996,64.0,89.0
651,207.37099433749998,207.59557634999996,60.0,75.0
652,207.44411406249998,207.6443228333333,64.0,82.0
653,207.5085290583333,208.20664833749996,67.0,84.0
654,207.86194106249997,208.46082642916664,55.0,66.0
655,208.2971775208333,208.4904225083333,60.0,88.0
656,207.05240124999997,208.5635422333333,48.0,85.0
657,208.2971775208333,208.6784446583333,64.0,92.0
658,209.0962716583333,209.40267812499997,57.0,52.0
659,209.1798370583333,209.97651008958331,62.0,75.0
660,209.21291502916662,210.10642556874998,65.0,84.0
661,209.20246935416662,210.54708482916664,38.0,90.0
662,209.55414041249998,210.5505960583333,45.0,79.0
663,209.93964218333332,210.92980880833332,57.0,89.0
664,210.38381267291663,210.9456093395833,62.0,89.0
665,211.62678779791665,212.22018552708332,62.0,89.0
666,212.01653423541663,212.2254523708333,55.0,82.0
667,212.32376678749998,212.51337316249996,55.0,78.0
668,212.40276944374997,212.72229129791663,62.0,83.0
669,212.51337316249996,212.98212225624997,67.0,83.0
670,212.86800730833332,213.21210776666663,55.0,77.0
671,211.22299644374996,213.45613819374998,50.0,84.0
672,213.3367564020833,213.46491626666665,62.0,82.0
673,210.80516017291663,213.53514084999998,43.0,90.0
674,214.2163193083333,214.38836953749998,36.0,86.0
675,214.1057155895833,214.53935239166663,55.0,77.0
676,214.2321198395833,214.85185178749998,60.0,83.0
677,215.42593775624997,215.69279117291663,60.0,90.0
678,215.02390201666663,216.12642797499998,55.0,84.0
679,215.86133017291664,216.53197494375,60.0,82.0
680,215.87186386041665,216.6390674333333,64.0,84.0
681,216.23527607916665,216.80936204791664,55.0,74.0
682,216.70051394374997,216.90416523541663,60.0,89.0
683,214.61308820416664,216.9445443708333,48.0,88.0
684,217.4080266208333,217.86799764166665,62.0,78.0
685,217.4554282145833,218.31216813124996,65.0,75.0
686,217.5607650895833,218.44910606874998,69.0,72.0
687,217.95226714166665,218.59482207916665,45.0,71.0
688,217.5291640270833,218.65451297499996,38.0,90.0
689,218.39994886041663,219.25844439166664,62.0,85.0
690,219.65521328749998,220.4364617770833,50.0,82.0
691,219.26020000624996,220.48386337083332,43.0,85.0
692,219.2619556208333,220.68049220416663,67.0,80.0
693,220.07129394374996,220.70155957916663,55.0,92.0
694,220.4785965270833,220.90345525624997,62.0,89.0
695,220.89116595416664,221.08077232916665,36.0,86.0
696,220.85429804791664,221.21771026666664,55.0,85.0
697,220.89292156874998,221.51792036041664,60.0,81.0
698,222.12887423541665,223.04706066249997,60.0,83.0
699,222.5800671833333,223.10850717291663,67.0,81.0
700,223.02950451666663,223.47367500624998,64.0,88.0
701,223.46840816249997,223.86342144374998,62.0,87.0
702,221.29846853749999,224.07760642291663,48.0,89.0
703,221.7215716520833,224.08814011041665,55.0,85.0
704,223.89853373541663,224.69382714166665,60.0,89.0
705,224.75176242291664,225.25211257916663,55.0,85.0
706,225.23104520416663,225.3609606833333,57.0,88.0
707,225.7085723708333,225.94733595416665,60.0,81.0
708,226.2247230583333,226.4775315583333,64.0,84.0
709,226.7338512875,226.85498869375,67.0,82.0
710,227.3939623708333,227.59761366249998,67.0,66.0
711,227.53441153749998,227.72928475624997,72.0,79.0
712,227.70821738124997,227.9733151833333,74.0,85.0
713,227.9469809645833,228.0733852145833,76.0,78.0
714,228.21383438124997,228.31917125624997,79.0,89.0
715,228.5158000895833,228.6685385583333,84.0,83.0
716,228.89852406874996,229.02843954791663,86.0,77.0
717,229.28651489166663,229.38131807916665,88.0,73.0
718,227.19557792291664,229.78335381874996,55.0,64.0
719,224.34797106874998,229.83426664166663,48.0,89.0
