,start,end,pitch,velocity
0,29.830472116666666,29.981298024999997,60.0,86.0
1,30.078405116666666,30.30877619583333,62.0,68.0
2,30.326338116666665,30.816005791666665,63.0,73.0
3,30.822204116666665,31.342863416666667,60.0,73.0
4,31.318070116666664,31.826332766666667,63.0,74.0
5,31.813936116666664,32.331496254166666,62.0,71.0
6,32.30980211666667,33.0742622,58.0,73.0
7,33.05360111666666,33.33665795833333,62.0,72.0
8,33.301534116666666,35.4699148125,60.0,68.0
9,35.78086411666666,35.9905741125,60.0,77.0
10,36.02879711666667,36.212680758333335,62.0,72.0
11,36.27673011666666,36.729207841666664,63.0,75.0
12,36.77259611666666,37.221974679166664,60.0,75.0
13,37.26846211666666,37.695113487499995,63.0,76.0
14,37.76432811666667,38.26019411666667,65.0,76.0
15,38.26019411666667,39.030852525,62.0,73.0
16,39.00399311666666,39.32114074583333,65.0,71.0
17,39.25192611666667,41.844892075,67.0,70.0
18,42.22712211666666,42.71369062916666,70.0,74.0
19,42.72298811666666,43.38930805416666,72.0,74.0
20,43.466787116666666,43.780835583333335,67.0,69.0
21,43.71472011666666,44.18992503333333,68.0,81.0
22,44.21058611666666,45.084549941666666,65.0,71.0
23,45.20231811666667,45.68268830416667,68.0,78.0
24,45.69818411666667,46.23847144583333,70.0,74.0
25,46.194050116666666,46.44198311666666,67.0,59.0
26,46.689916116666666,47.076278375,67.0,73.0
27,47.185782116666665,48.02978737083333,63.0,74.0
28,48.177514116666664,48.601066325,65.0,73.0
29,48.673380116666664,49.107262866666666,63.0,74.0
30,49.16924611666666,49.593831379166666,61.0,75.0
31,49.66511211666666,50.0669701875,61.0,79.0
32,50.16097811666666,50.53907594166667,63.0,65.0
33,50.65684411666666,51.075231054166665,65.0,73.0
34,51.15271011666666,53.4543548,67.0,64.0
35,53.632040116666666,53.782866025,60.0,86.0
36,53.87997311666666,54.11034419583333,62.0,68.0
37,54.127906116666665,54.617573791666665,63.0,73.0
38,54.623772116666665,55.14443141666666,60.0,73.0
39,55.119638116666664,55.62790076666666,63.0,74.0
40,55.61550411666666,56.13306425416666,62.0,71.0
41,56.11137011666666,56.875830199999996,58.0,73.0
42,56.855169116666666,57.13822595833333,62.0,72.0
43,57.10310211666666,59.2714828125,60.0,68.0
44,59.582432116666666,59.792142112499995,60.0,77.0
45,59.83036511666666,60.01424875833333,62.0,72.0
46,60.078298116666666,60.53077584166667,63.0,75.0
47,60.574164116666665,61.02354267916667,60.0,75.0
48,61.070030116666665,61.4966814875,63.0,76.0
49,61.565896116666664,62.061762116666664,65.0,76.0
50,62.061762116666664,62.832420524999996,62.0,73.0
51,62.80556111666667,63.05349411666666,65.0,71.0
52,63.05349411666666,65.646460075,67.0,70.0
53,66.02869011666667,66.51525862916667,70.0,74.0
54,66.52455611666666,67.19087605416667,72.0,74.0
55,67.26835511666667,67.58240358333333,67.0,69.0
56,67.51628811666666,67.99149303333333,68.0,81.0
57,68.01215411666666,68.88611794166667,65.0,71.0
58,69.00388611666666,69.48425630416666,68.0,78.0
59,69.49975211666667,70.04003944583333,70.0,74.0
60,69.99561811666666,70.24355111666667,67.0,59.0
61,70.49148411666667,70.877846375,65.0,73.0
62,70.98735011666666,71.83135537083334,63.0,74.0
63,71.97908211666666,72.402634325,65.0,73.0
64,72.47494811666667,72.90883086666666,63.0,74.0
65,72.97081411666666,73.39539937916666,61.0,75.0
66,73.46668011666667,73.8685381875,61.0,79.0
67,73.96254611666666,74.34064394166667,63.0,65.0
68,74.45841211666666,74.87679905416667,65.0,73.0
69,74.95427811666666,77.2559228,67.0,64.0
70,77.68154111666666,77.82823480833333,60.0,79.0
71,77.92947411666667,78.27864642499999,72.0,78.0
72,78.42534011666666,78.82926429583333,72.0,78.0
73,78.92120611666667,79.27037842499999,72.0,76.0
74,79.41707211666666,79.86438457083332,72.0,76.0
75,79.91293811666667,80.55446475416666,70.0,83.0
76,80.65673711666666,80.8912404125,68.0,76.0
77,80.90467011666667,81.15053700833333,67.0,72.0
78,81.15260311666667,81.41396582083333,68.0,67.0
79,81.40053611666666,83.50486745416666,67.0,72.0
80,83.63193311666666,83.8261473,67.0,77.0
81,83.87986611666666,84.24040202083333,72.0,83.0
82,84.37573211666667,84.7682927,72.0,76.0
83,84.87159811666666,85.2610595375,72.0,74.0
84,85.36746411666667,85.8127104625,72.0,79.0
85,85.86333011666666,86.35919611666667,70.0,73.0
86,86.35919611666667,86.85506211666666,65.0,73.0
87,86.85506211666666,87.35092811666667,70.0,72.0
88,87.35092811666667,89.26930970416666,67.0,74.0
89,89.83025811666667,90.26000865,65.0,74.0
90,90.32612411666666,90.94595661666666,67.0,68.0
91,91.06992311666666,91.34368247083333,68.0,72.0
92,91.31785611666666,91.78892881666667,67.0,75.0
93,91.81372211666667,92.46557929583334,65.0,75.0
94,92.55752111666666,92.85297460833333,68.0,72.0
95,92.80545411666667,93.31784898333333,67.0,78.0
96,93.30132011666666,93.80545055,65.0,72.0
97,93.79718611666667,94.32610985,67.0,69.0
98,94.29305211666666,95.53271711666666,60.0,75.0
99,95.78065011666666,96.22383035416667,63.0,73.0
100,96.27651611666666,96.76721684583333,65.0,76.0
101,96.77238211666666,97.245520925,63.0,74.0
102,97.26824811666667,97.77444465833332,67.0,71.0
103,97.76411411666666,98.34159139583333,65.0,73.0
104,98.25998011666667,98.77444109166666,67.0,70.0
105,98.75584611666666,101.35397734583333,62.0,72.0
106,101.48310911666667,101.62980280833332,60.0,79.0
107,101.73104211666666,102.080214425,72.0,78.0
108,102.22690811666666,102.63083229583333,72.0,78.0
109,102.72277411666666,103.071946425,72.0,76.0
110,103.21864011666666,103.66595257083333,72.0,76.0
111,103.71450611666667,104.35603275416666,70.0,83.0
112,104.45830511666666,104.6928084125,68.0,76.0
113,104.70623811666667,104.95210500833333,67.0,72.0
114,104.95417111666666,105.21553382083333,68.0,67.0
115,105.20210411666666,107.30643545416666,67.0,72.0
116,107.43350111666666,107.62771529999999,67.0,77.0
117,107.68143411666667,108.04197002083333,72.0,83.0
118,108.17730011666666,108.56986069999999,72.0,76.0
119,108.67316611666666,109.06262753749999,72.0,74.0
120,109.16903211666666,109.6142784625,72.0,79.0
121,109.66489811666666,110.16076411666666,70.0,73.0
122,110.16076411666666,110.65663011666666,65.0,73.0
123,110.65663011666666,111.15249611666667,70.0,72.0
124,111.15249611666667,113.07087770416666,67.0,74.0
125,113.63182611666666,114.06157664999999,65.0,74.0
126,114.12769211666667,114.74752461666667,67.0,68.0
127,114.87149111666666,115.14525047083333,68.0,72.0
128,115.11942411666666,115.59049681666666,67.0,75.0
129,115.61529011666666,116.26714729583333,65.0,75.0
130,116.35908911666667,116.65454260833333,68.0,72.0
131,116.60702211666666,117.11941698333332,67.0,78.0
132,117.10288811666666,117.60701854999999,65.0,72.0
133,117.59875411666667,118.12767785,67.0,69.0
134,118.09462011666666,119.33428511666666,60.0,75.0
135,119.58221811666667,120.02539835416667,63.0,73.0
136,120.07808411666666,120.56878484583333,65.0,76.0
137,120.57395011666667,121.047088925,63.0,74.0
138,121.06981611666666,121.57601265833333,67.0,71.0
139,121.56568211666666,122.14315939583332,65.0,73.0
140,122.06154811666666,122.57600909166666,63.0,70.0
141,122.55741411666666,123.05328011666666,62.0,73.0
142,123.05328011666666,125.65141134583332,60.0,72.0
143,148.8286706125,148.97899981666666,61.0,86.0
144,149.0757871125,149.30539952708332,63.0,68.0
145,149.3229036125,149.81095870000001,64.0,73.0
146,149.8171366125,150.3360812625,61.0,73.0
147,150.3113696125,150.81842112083334,64.0,74.0
148,150.80602447083334,151.32358460833333,63.0,71.0
149,151.30189047083334,152.06635055416666,59.0,73.0
150,152.04568947083334,152.3287463125,63.0,72.0
151,152.29362247083333,154.46200316666668,61.0,68.0
152,154.77295247083333,154.98266246666665,61.0,77.0
153,155.02088547083332,155.2047691125,63.0,72.0
154,155.26881847083334,155.72129619583333,64.0,75.0
155,155.76468447083334,156.21406303333333,61.0,75.0
156,156.26055047083332,156.68720184166668,64.0,76.0
157,156.75641647083333,157.25228247083334,66.0,76.0
158,157.25228247083334,158.02294087916667,63.0,73.0
159,157.99608147083333,158.24401447083332,66.0,71.0
160,158.24401447083332,160.83698042916666,68.0,70.0
161,161.21921047083333,161.70577898333335,71.0,74.0
162,161.71507647083334,162.38139640833333,73.0,74.0
163,162.45887547083333,162.7729239375,68.0,69.0
164,162.70680847083332,163.1820133875,69.0,81.0
165,163.20267447083333,164.07663829583333,66.0,71.0
166,164.19440647083334,164.67477665833334,69.0,78.0
167,164.69027247083332,165.2305598,71.0,74.0
168,165.18613847083333,165.43407147083332,68.0,59.0
169,165.68200447083333,166.06836672916666,66.0,73.0
170,166.17787047083334,167.021875725,64.0,74.0
171,167.16960247083333,167.59315467916667,66.0,73.0
172,167.66546847083333,168.09935122083334,64.0,74.0
173,168.16133447083334,168.58591973333333,62.0,75.0
174,168.65720047083335,169.05905854166667,62.0,79.0
175,169.15306647083332,169.53116429583332,64.0,65.0
176,169.64893247083333,170.06731940833333,66.0,73.0
177,170.14479847083334,172.44644315416667,68.0,64.0
178,172.87206147083333,173.01875516249999,61.0,79.0
179,173.11999447083332,173.46916677916667,73.0,78.0
180,173.61586047083333,174.01978465,73.0,78.0
181,174.11172647083333,174.46089877916666,73.0,76.0
182,174.60759247083334,175.054904925,73.0,76.0
183,175.10345847083335,175.74498510833334,71.0,83.0
184,175.84725747083334,176.08176076666666,69.0,76.0
185,176.09519047083333,176.3410573625,68.0,72.0
186,176.34312347083332,176.604486175,69.0,67.0
187,176.59105647083334,178.69538780833332,68.0,72.0
188,178.82245347083332,179.01666765416667,68.0,77.0
189,179.07038647083334,179.430922375,73.0,83.0
190,179.56625247083332,179.95881305416665,73.0,76.0
191,180.06211847083333,180.45157989166665,73.0,74.0
192,180.55798447083333,181.00323081666667,73.0,79.0
193,181.05385047083334,181.54971647083335,71.0,73.0
194,181.54971647083335,182.04558247083332,66.0,73.0
195,182.04558247083332,182.54144847083333,71.0,72.0
196,182.54144847083333,184.45983005833332,68.0,74.0
197,185.02077847083333,185.45052900416667,66.0,74.0
198,185.51664447083334,186.13647697083331,68.0,68.0
199,186.26044347083334,186.534202825,69.0,72.0
200,186.50837647083333,186.97944917083333,68.0,75.0
201,187.00424247083333,187.65609965,66.0,75.0
202,187.74804147083333,188.0434949625,69.0,72.0
203,187.99597447083335,188.5083693375,68.0,78.0
204,188.49184047083332,188.99597090416665,66.0,72.0
205,188.98770647083333,189.51663020416666,68.0,69.0
206,189.48357247083334,190.72323747083334,61.0,75.0
207,190.97117047083333,191.41435070833333,64.0,73.0
208,191.46703647083334,191.9577372,66.0,76.0
209,191.96290247083334,192.43604127916666,64.0,74.0
210,192.45876847083332,192.9649650125,68.0,71.0
211,192.95463447083333,193.53211175,66.0,73.0
212,193.45050047083333,193.96496144583332,68.0,70.0
213,193.94636647083334,196.5444977,63.0,72.0
214,196.67362947083333,196.8203231625,61.0,79.0
215,196.92156247083332,197.27073477916667,73.0,78.0
216,197.41742847083333,197.82135265,73.0,78.0
217,197.91329447083334,198.26246677916666,73.0,76.0
218,198.40916047083334,198.856472925,73.0,76.0
219,198.90502647083332,199.54655310833334,71.0,83.0
220,199.64882547083334,199.88332876666666,69.0,76.0
221,199.89675847083333,200.14262536249998,68.0,72.0
222,200.14469147083332,200.406054175,69.0,67.0
223,200.39262447083334,202.49695580833333,68.0,72.0
224,202.62402147083333,202.81823565416667,68.0,77.0
225,202.87195447083332,203.232490375,73.0,83.0
226,203.36782047083332,203.76038105416666,73.0,76.0
227,203.86368647083333,204.25314789166666,73.0,74.0
228,204.35955247083334,204.80479881666668,73.0,79.0
229,204.85541847083334,205.35128447083332,71.0,73.0
230,205.35128447083332,205.84715047083333,66.0,73.0
231,205.84715047083333,206.34301647083333,71.0,72.0
232,206.34301647083333,208.26139805833333,68.0,74.0
233,208.82234647083334,209.25209700416667,66.0,74.0
234,209.31821247083332,209.93804497083335,68.0,68.0
235,210.06201147083334,210.335770825,69.0,72.0
236,210.30994447083333,210.78101717083334,68.0,75.0
237,210.80581047083334,211.45766765,66.0,75.0
238,211.54960947083333,211.84506296249998,69.0,72.0
239,211.79754247083332,212.3099373375,68.0,78.0
240,212.29340847083333,212.79753890416666,66.0,72.0
241,212.78927447083333,213.31819820416666,68.0,69.0
242,213.2851404708333,214.52480547083331,61.0,75.0
243,214.77273847083333,215.21591870833333,64.0,73.0
244,215.26860447083334,215.7593052,66.0,76.0
245,215.76447047083332,216.23760927916666,64.0,74.0
246,216.26033647083332,216.7665330125,68.0,71.0
247,216.75620247083333,217.33367975,66.0,73.0
248,217.25206847083334,217.76652944583333,64.0,70.0
249,217.74793447083334,218.24380047083332,63.0,73.0
250,218.24380047083332,219.97933147083333,61.0,72.0
251,220.47519747083334,220.6218911625,61.0,79.0
252,220.72313047083333,221.07230277916665,73.0,78.0
253,221.21899647083333,221.62292065,73.0,78.0
254,221.71486247083334,222.06403477916666,73.0,76.0
255,222.21072847083332,222.658040925,73.0,76.0
256,222.70659447083332,223.34812110833332,71.0,83.0
257,223.45039347083332,223.68489676666667,69.0,76.0
258,223.6983264708333,223.94419336250002,68.0,72.0
259,223.94625947083333,224.20762217499998,69.0,67.0
260,224.19419247083334,226.29852380833333,68.0,72.0
261,226.42558947083333,226.61980365416667,68.0,77.0
262,226.67352247083335,227.034058375,73.0,83.0
263,227.16938847083333,227.56194905416666,73.0,76.0
264,227.66525447083333,228.05471589166666,73.0,74.0
265,228.16112047083334,228.60636681666665,73.0,79.0
266,228.65698647083332,229.15285247083332,71.0,73.0
267,229.15285247083332,229.64871847083333,66.0,73.0
268,229.64871847083333,230.1445844708333,71.0,72.0
269,230.1445844708333,232.06296605833333,68.0,74.0
270,232.6239144708333,233.05366500416665,66.0,74.0
271,233.11978047083335,233.73961297083332,68.0,68.0
272,233.86357947083332,234.137338825,69.0,72.0
273,234.11151247083333,234.58258517083334,68.0,75.0
274,234.60737847083334,235.25923565,66.0,75.0
275,235.35117747083333,235.6466309625,69.0,72.0
276,235.59911047083332,236.11150533749998,68.0,78.0
277,236.09497647083333,236.59910690416666,66.0,72.0
278,236.5908424708333,237.11976620416667,68.0,69.0
279,237.08670847083334,238.32637347083335,61.0,75.0
280,238.57430647083333,239.0174867083333,64.0,73.0
281,239.0701724708333,239.5608732,66.0,76.0
282,239.56603847083335,240.03917727916667,64.0,74.0
283,240.06190447083333,240.5681010125,68.0,71.0
284,240.55777047083333,242.54123447083333,66.0,73.0
285,242.78916747083332,243.59185055833333,76.0,74.0
286,243.56912336666664,243.84908104583332,75.0,77.0
287,243.81189109583335,246.2798575,73.0,60.0
