,start,end,pitch,velocity
0,0.452477725,1.4380114,48.0,74.0
1,0.8584680124999999,1.4638377541666665,55.0,65.0
2,1.1973097791666667,1.5588787375,60.0,70.0
3,1.4886310541666665,1.7634234625,63.0,74.0
4,2.225198675,3.1456499375,53.0,49.0
5,2.683874725,3.2117654041666666,58.0,72.0
6,1.8140431166666666,3.237591758333333,46.0,76.0
7,3.1601126958333334,3.773746870833333,62.0,61.0
8,4.523744195833333,4.741718625,55.0,64.0
9,4.6363471,4.770644141666667,56.0,69.0
10,4.7634127625,4.8997759125,63.0,60.0
11,4.466926216666667,6.0660940666666665,51.0,61.0
12,4.3109350375,6.083655987499999,44.0,73.0
13,7.134272075,7.412163645833333,53.0,63.0
14,7.203486704166666,7.526832658333333,56.0,66.0
15,7.314023499999999,7.534064037499999,60.0,63.0
16,7.642534725,8.419391458333333,48.0,62.0
17,7.349147341666666,8.545424066666666,65.0,64.0
18,7.249974141666667,8.617737858333333,41.0,72.0
19,8.503068845833333,8.8481089375,56.0,63.0
20,8.111541316666667,8.873935291666667,53.0,73.0
21,8.8791005625,10.2551287125,46.0,86.0
22,9.351206316666666,10.8625645625,53.0,70.0
23,9.869799508333333,10.94624195,58.0,66.0
24,12.18590695,12.600161670833334,51.0,79.0
25,12.494790145833333,12.689004329166666,58.0,65.0
26,12.789210583333332,13.168341462499999,50.0,75.0
27,12.180741679166665,13.172473679166666,70.0,69.0
28,13.059870775,13.3976794875,62.0,75.0
29,13.329497912499999,13.715860170833333,48.0,78.0
30,13.652843866666666,13.978255929166666,60.0,74.0
31,14.04540445,14.238585579166665,63.0,72.0
32,14.040239179166667,14.800567045833333,46.0,74.0
33,14.490650795833332,14.821228129166666,53.0,59.0
34,15.661101166666667,15.989612391666666,55.0,65.0
35,15.862546729166667,16.109446675,56.0,61.0
36,16.061926183333334,16.28816504583333,63.0,62.0
37,16.235479283333333,16.382172975,56.0,55.0
38,16.767502179166666,16.93589000833333,55.0,54.0
39,16.85221262083333,18.202414416666667,56.0,60.0
40,16.965848579166664,18.202414416666667,63.0,57.0
41,15.051599208333332,18.236505204166665,44.0,74.0
42,17.35531,18.249934908333334,65.0,20.0
43,15.422465654166666,18.267496829166667,51.0,58.0
44,18.921420116666667,19.4224513875,60.0,72.0
45,18.673487116666667,19.483401583333332,55.0,66.0
46,18.425554116666667,19.4968312875,48.0,74.0
47,19.169353116666667,19.49993045,63.0,67.0
48,19.417286116666666,20.15901900833333,67.0,65.0
49,20.409018116666665,20.91314855,58.0,71.0
50,19.913152116666666,20.946206283333332,46.0,71.0
51,20.161085116666666,20.9844292875,53.0,66.0
52,21.648683116666668,22.42760595833333,55.0,63.0
53,21.400750116666664,22.430705120833334,48.0,74.0
54,21.896616116666667,22.5030189125,60.0,72.0
55,22.144549116666667,22.7819435375,63.0,67.0
56,22.392482116666667,23.0608681625,67.0,48.0
57,23.384214116666666,23.686898987499998,58.0,73.0
58,22.888348116666666,23.7271881,46.0,72.0
59,23.136281116666666,23.809832433333334,53.0,73.0
60,23.632147116666665,23.96169139583333,62.0,73.0
61,23.880080116666665,23.9906169125,67.0,56.0
62,24.871812116666664,25.375942549999998,60.0,66.0
63,24.375946116666665,25.3914383625,48.0,75.0
64,24.623879116666664,25.411066391666665,55.0,66.0
65,25.119745116666667,25.414165554166665,63.0,76.0
66,25.615611116666667,25.88007298333333,60.0,60.0
67,25.367678116666667,25.904866283333334,67.0,71.0
68,26.359410116666666,26.6311033625,58.0,75.0
69,25.863544116666667,26.809821733333333,46.0,70.0
70,26.111477116666666,26.869738875,53.0,66.0
71,26.607343116666666,26.8759372,62.0,74.0
72,26.855276116666666,27.162093204166666,58.0,67.0
73,27.103209116666665,27.323249654166666,62.0,59.0
74,27.847008116666665,28.30155195,60.0,59.0
75,28.094941116666664,28.392460716666665,63.0,72.0
76,27.599075116666665,28.46477450833333,55.0,60.0
77,28.342874116666664,28.581509629166664,67.0,68.0
78,27.351142116666665,28.607335983333332,48.0,73.0
79,28.590807116666667,28.9740702125,60.0,66.0
80,28.838740116666667,29.936876695833334,72.0,72.0
81,30.326338116666665,31.111459283333332,48.0,73.0
82,30.574271116666665,31.116624554166666,55.0,65.0
83,30.822204116666665,31.30670652083333,60.0,72.0
84,31.070137116666665,31.37488809583333,63.0,78.0
85,31.318070116666664,31.516416516666666,67.0,66.0
86,31.813936116666664,32.85938693333333,58.0,57.0
87,32.805668116666666,33.05773333333333,53.0,60.0
88,31.813936116666664,33.10938604166667,46.0,68.0
89,31.813936116666664,33.13624545,62.0,64.0
90,33.05360111666666,33.30979855,58.0,68.0
91,33.54946711666666,33.640375883333334,51.0,60.0
92,33.797400116666665,34.117646908333334,56.0,72.0
93,33.797400116666665,34.5587610375,51.0,28.0
94,33.301534116666666,34.592851825,44.0,77.0
95,34.04533311666667,34.630041774999995,63.0,64.0
96,34.293266116666665,35.34181609583333,56.0,69.0
97,34.54119911666667,35.5628896875,68.0,65.0
98,35.284998116666664,35.80565741666666,51.0,49.0
99,34.789132116666664,35.82115322916667,44.0,71.0
100,35.78086411666666,35.94925194583333,68.0,56.0
101,35.78086411666666,36.048425145833335,56.0,66.0
102,35.78086411666666,36.13726780416666,63.0,52.0
103,36.27673011666666,37.05358685,48.0,74.0
104,36.524663116666666,37.1000742875,55.0,64.0
105,36.77259611666666,37.220941625,60.0,68.0
106,37.020529116666665,37.357304774999996,63.0,75.0
107,37.26846211666666,37.729204275,67.0,67.0
108,37.516395116666665,37.811848608333335,60.0,70.0
109,38.26019411666667,38.53705263333333,58.0,68.0
110,38.012261116666664,38.74779568333333,53.0,50.0
111,38.508127116666664,38.7922170125,62.0,72.0
112,37.76432811666667,38.808745879166665,46.0,68.0
113,38.75606011666667,38.882092725,58.0,74.0
114,40.243658116666666,40.52464885,63.0,69.0
115,39.747792116666666,40.571136287499996,55.0,61.0
116,39.99572511666666,40.78084628333333,58.0,71.0
117,39.49985911666666,41.07526672083333,46.0,60.0
118,39.25192611666667,41.45233149166666,39.0,73.0
119,40.98745711666667,41.556669962499996,58.0,62.0
120,41.235390116666665,41.570099666666664,46.0,61.0
121,40.739524116666665,41.61968626666666,63.0,73.0
122,41.48332311666667,41.77567744583333,55.0,68.0
123,40.49159111666666,41.8108012875,67.0,72.0
124,41.731256116666664,41.845925129166666,58.0,62.0
125,42.47505511666667,43.2302177125,48.0,63.0
126,42.72298811666666,43.27567209583333,53.0,69.0
127,42.22712211666666,43.39034110833333,41.0,73.0
128,42.970921116666666,43.456456575,56.0,79.0
129,43.21885411666666,43.57525780416667,60.0,72.0
130,43.466787116666666,43.729182875,65.0,68.0
131,43.962653116666665,44.106247645833335,58.0,20.0
132,43.962653116666665,44.305627099999995,53.0,72.0
133,44.21058611666666,44.477114091666664,58.0,72.0
134,43.71472011666666,44.81285669583333,46.0,74.0
135,44.70645211666667,44.88413743333333,58.0,55.0
136,44.458519116666665,44.97917841666666,62.0,73.0
137,45.20231811666667,45.7188452,63.0,67.0
138,45.20231811666667,46.07731499583333,39.0,67.0
139,45.450251116666664,46.17338903333333,46.0,64.0
140,45.69818411666667,46.256033366666664,55.0,67.0
141,45.94611711666666,46.26843001666666,58.0,68.0
142,46.194050116666666,46.4657433625,63.0,68.0
143,46.689916116666666,47.6558217625,44.0,76.0
144,46.93784911666666,47.689912549999995,51.0,59.0
145,47.185782116666665,47.693011712499995,56.0,78.0
146,47.43371511666666,47.7766891,63.0,71.0
147,47.681648116666665,48.151687762499996,68.0,74.0
148,48.673380116666664,49.22813020416667,49.0,72.0
149,48.92131311666667,49.4874268,56.0,67.0
150,49.16924611666666,49.72502925833333,53.0,67.0
151,49.41717911666667,50.03081329166667,61.0,73.0
152,48.42544711666667,50.248787720833334,44.0,60.0
153,48.177514116666664,50.251886883333334,37.0,74.0
154,49.66511211666666,50.66304244166666,56.0,72.0
155,50.16097811666666,50.71056293333333,53.0,72.0
156,50.65684411666666,50.76634785833333,49.0,68.0
157,51.400643116666664,51.713658529166665,55.0,66.0
158,51.64857611666667,51.94712877083333,60.0,76.0
159,51.896509116666664,52.21055758333333,55.0,75.0
160,52.14444211666667,52.4409286625,60.0,77.0
161,52.39237511666666,52.580390975,55.0,74.0
162,51.15271011666666,52.64030811666667,31.0,77.0
163,52.64030811666667,53.13100884583333,55.0,69.0
164,52.64030811666667,53.2219176125,59.0,70.0
165,53.136174116666666,53.4512556375,62.0,73.0
166,52.88824111666666,54.09381532916667,50.0,64.0
167,53.632040116666666,54.09794754583333,55.0,77.0
168,53.38410711666666,54.117575575,67.0,73.0
169,52.64030811666667,54.119641683333334,43.0,67.0
170,54.127906116666665,54.91302728333333,48.0,73.0
171,54.37583911666666,54.918192554166666,55.0,65.0
172,54.623772116666665,55.108274520833334,60.0,72.0
173,54.87170511666667,55.17645609583333,63.0,78.0
174,55.119638116666664,55.31798451666666,67.0,66.0
175,55.61550411666666,56.66095493333333,58.0,57.0
176,56.60723611666666,56.859301333333335,53.0,60.0
177,55.61550411666666,56.91095404166666,46.0,68.0
178,55.61550411666666,56.93781345,62.0,64.0
179,56.855169116666666,57.11136655,58.0,68.0
180,57.351035116666665,57.44194388333333,51.0,60.0
181,57.59896811666666,57.91921490833333,56.0,72.0
182,57.59896811666666,58.360329037499994,51.0,28.0
183,57.10310211666666,58.394419825,44.0,77.0
184,57.846901116666665,58.431609775,63.0,64.0
185,58.09483411666666,59.14338409583333,56.0,69.0
186,58.342767116666664,59.3644576875,68.0,65.0
187,59.08656611666667,59.607225416666665,51.0,49.0
188,58.59070011666667,59.622721229166665,44.0,71.0
189,59.582432116666666,59.75081994583333,68.0,56.0
190,59.582432116666666,59.84999314583333,56.0,66.0
191,59.582432116666666,59.938835804166665,63.0,52.0
192,60.078298116666666,60.85515485,48.0,74.0
193,60.32623111666666,60.901642287499996,55.0,64.0
194,60.574164116666665,61.022509625,60.0,68.0
195,60.82209711666666,61.158872775,63.0,75.0
196,61.070030116666665,61.530772275,67.0,67.0
197,61.31796311666666,61.61341660833333,60.0,70.0
198,62.061762116666664,62.33862063333333,58.0,68.0
199,61.81382911666667,62.54936368333333,53.0,50.0
200,62.30969511666667,62.5937850125,62.0,72.0
201,61.565896116666664,62.61031387916666,46.0,68.0
202,62.55762811666666,62.683660724999996,58.0,74.0
203,64.04522611666667,64.32621685,63.0,69.0
204,63.54936011666666,64.3727042875,55.0,61.0
205,63.797293116666665,64.58241428333334,58.0,71.0
206,63.301427116666666,64.87683472083333,46.0,60.0
207,63.05349411666666,65.25389949166666,39.0,73.0
208,64.78902511666666,65.3582379625,58.0,62.0
209,65.03695811666667,65.37166766666667,46.0,61.0
210,64.54109211666666,65.42125426666666,63.0,73.0
211,65.28489111666667,65.57724544583333,55.0,68.0
212,64.29315911666666,65.6123692875,67.0,72.0
213,65.53282411666666,65.64749312916666,58.0,62.0
214,66.27662311666667,67.0317857125,48.0,63.0
215,66.52455611666666,67.07724009583333,53.0,69.0
216,66.02869011666667,67.19190910833333,41.0,73.0
217,66.77248911666666,67.258024575,56.0,79.0
218,67.02042211666667,67.37682580416666,60.0,72.0
219,67.26835511666667,67.530750875,65.0,68.0
220,67.76422111666666,67.90781564583332,58.0,20.0
221,67.76422111666666,68.1071951,53.0,72.0
222,68.01215411666666,68.27868209166667,58.0,72.0
223,67.51628811666666,68.61442469583334,46.0,74.0
224,68.50802011666666,68.68570543333333,58.0,55.0
225,68.26008711666667,68.78074641666666,62.0,73.0
226,69.00388611666666,69.5204132,63.0,67.0
227,69.00388611666666,69.87888299583334,39.0,67.0
228,69.25181911666667,69.97495703333333,46.0,64.0
229,69.49975211666667,70.05760136666666,55.0,67.0
230,69.74768511666666,70.06999801666666,58.0,68.0
231,69.99561811666666,70.2673113625,63.0,68.0
232,70.49148411666667,71.4573897625,44.0,76.0
233,70.73941711666666,71.49148054999999,51.0,59.0
234,70.98735011666666,71.4945797125,56.0,78.0
235,71.23528311666666,71.5782571,63.0,71.0
236,71.48321611666667,71.95325576249999,68.0,74.0
237,72.47494811666667,73.02969820416666,49.0,72.0
238,72.72288111666667,73.2889948,56.0,67.0
239,72.97081411666666,73.52659725833333,53.0,67.0
240,73.21874711666666,73.83238129166666,61.0,73.0
241,72.22701511666666,74.05035572083332,44.0,60.0
242,71.97908211666666,74.05345488333333,37.0,74.0
243,73.46668011666667,74.46461044166666,56.0,72.0
244,73.96254611666666,74.51213093333332,53.0,72.0
245,74.45841211666666,74.56791585833334,49.0,68.0
246,75.20221111666666,75.51522652916667,55.0,66.0
247,75.45014411666666,75.74869677083333,60.0,76.0
248,75.69807711666667,76.01212558333333,55.0,75.0
249,75.94601011666667,76.2424966625,60.0,77.0
250,76.19394311666666,76.381958975,55.0,74.0
251,74.95427811666666,76.44187611666666,31.0,77.0
252,76.44187611666666,76.93257684583332,55.0,69.0
253,76.44187611666666,77.0234856125,59.0,70.0
254,76.93774211666667,77.2528236375,62.0,73.0
255,76.68980911666667,77.89538332916666,50.0,64.0
256,77.43360811666666,77.89951554583332,55.0,77.0
257,77.18567511666666,77.91914357499999,67.0,73.0
258,76.44187611666666,77.92120968333333,43.0,67.0
259,77.92947411666667,78.28071253333333,56.0,66.0
260,77.92947411666667,78.48319115,63.0,68.0
261,77.92947411666667,78.92223917083334,44.0,78.0
262,78.42534011666666,78.9573630125,56.0,78.0
263,78.17740711666666,78.9635613375,51.0,61.0
264,78.67327311666666,79.0162471,60.0,60.0
265,78.92120611666667,79.08959394583333,63.0,71.0
266,79.41707211666666,79.69083147083333,58.0,63.0
267,79.41707211666666,79.93876447083333,62.0,64.0
268,79.91293811666667,80.44702712083333,58.0,76.0
269,80.16087111666667,80.4542585,62.0,71.0
270,79.41707211666666,80.53896894166667,46.0,76.0
271,79.66500511666666,80.54103504999999,53.0,64.0
272,80.40880411666666,80.73421617916667,65.0,75.0
273,80.65673711666666,80.9036370625,62.0,73.0
274,81.40053611666666,81.95425315,51.0,74.0
275,81.64846911666666,81.96251758333332,55.0,61.0
276,80.90467011666667,82.30652462083333,39.0,77.0
277,81.89640211666666,82.46974717916666,58.0,69.0
278,81.15260311666667,82.48214382916666,46.0,58.0
279,82.14433511666667,82.74660569583332,55.0,72.0
280,82.39226811666666,83.11127381666667,63.0,76.0
281,82.39226811666666,83.200116475,39.0,76.0
282,82.88813411666666,83.4015620375,58.0,72.0
283,83.13606711666667,83.40982647083332,55.0,68.0
284,83.38400011666667,83.47387582916666,51.0,75.0
285,83.87986611666666,84.34474049166667,68.0,68.0
286,83.87986611666666,84.37779822499999,56.0,68.0
287,83.87986611666666,84.56168186666666,44.0,75.0
288,84.12779911666667,84.58234295,51.0,63.0
289,84.37573211666667,84.68564836666667,60.0,70.0
290,84.62366511666666,84.92738304166666,56.0,76.0
291,84.87159811666666,85.295150325,63.0,73.0
292,85.11953111666666,85.3137453,56.0,76.0
293,86.11126311666666,86.44597266666666,62.0,72.0
294,85.86333011666666,86.4542371,58.0,73.0
295,85.36746411666667,86.534815325,46.0,74.0
296,85.61539711666666,86.53894754166666,53.0,59.0
297,86.60712911666667,86.87985541666666,58.0,60.0
298,86.35919611666667,86.894318175,65.0,72.0
299,87.35092811666667,87.64948077083334,60.0,69.0
300,87.59886111666667,87.97179367083334,62.0,77.0
301,87.84679411666666,88.13604928333334,63.0,81.0
302,86.85506211666666,88.22592499583332,48.0,78.0
303,87.10299511666666,88.24968524166667,55.0,65.0
304,88.09472711666666,88.3881145,65.0,73.0
305,88.34266011666666,88.74555124166666,67.0,74.0
306,88.83852611666666,88.94802985833333,60.0,69.0
307,88.59059311666667,89.1412109875,55.0,64.0
308,89.08645911666666,89.4046398,60.0,73.0
309,88.34266011666666,89.40980507083333,48.0,78.0
310,89.33439211666666,89.51517659583332,55.0,75.0
311,89.08645911666666,89.60092009166667,63.0,77.0
312,89.58232511666667,89.81889452083333,60.0,76.0
313,89.83025811666667,90.63397425833332,62.0,73.0
314,90.07819111666666,90.65463534166666,65.0,72.0
315,90.32612411666666,90.662899775,68.0,76.0
316,89.83025811666667,90.92839469583333,38.0,78.0
317,90.57405711666667,90.9697168625,72.0,73.0
318,90.82199011666667,91.24347621666666,68.0,67.0
319,91.06992311666666,91.40566572083333,62.0,75.0
320,92.06165511666666,92.46867845833333,59.0,73.0
321,91.81372211666667,92.5069014625,55.0,65.0
322,91.56578911666666,92.6029755,50.0,64.0
323,91.31785611666666,92.67012402083333,43.0,73.0
324,92.30958811666666,92.6773554,62.0,73.0
325,92.80545411666667,93.5296250875,48.0,83.0
326,93.30132011666666,93.8457396625,60.0,83.0
327,93.05338711666667,94.04718522499999,55.0,66.0
328,93.54925311666666,94.10813542083334,63.0,78.0
329,93.79718611666667,94.14842453333333,46.0,78.0
330,94.04511911666667,94.31268014583333,60.0,72.0
331,94.78891811666666,95.08850382499999,60.0,72.0
332,94.54098511666666,95.2806519,57.0,68.0
333,95.03685111666667,95.33127155416666,63.0,79.0
334,94.29305211666666,95.43664307916666,45.0,74.0
335,95.28478411666666,95.72693129999999,67.0,73.0
336,95.78065011666666,96.10089690833333,53.0,69.0
337,95.78065011666666,96.50895330416667,60.0,68.0
338,96.27651611666666,96.82093566249999,53.0,73.0
339,96.52444911666666,96.9077122125,56.0,74.0
340,96.02858311666667,97.09469501666666,48.0,63.0
341,95.78065011666666,97.12362053333332,41.0,73.0
342,97.02031511666667,97.45006565,53.0,74.0
343,97.76411411666666,98.10605504583333,53.0,74.0
344,97.51618111666666,98.12155085833334,48.0,60.0
345,96.77238211666666,98.23518681666667,65.0,76.0
346,98.01204711666666,98.5564666625,60.0,78.0
347,98.25998011666667,98.5812599625,48.0,74.0
348,97.26824811666667,98.59675577499999,41.0,74.0
349,98.50791311666666,98.6184499125,53.0,72.0
350,98.75584611666666,99.06989458333332,55.0,74.0
351,98.75584611666666,99.19386108333333,60.0,73.0
352,99.25171211666667,99.36121585833332,55.0,77.0
353,99.00377911666666,99.55646309583332,50.0,67.0
354,99.49964511666666,99.86121407499999,55.0,83.0
355,99.49964511666666,99.8953048625,60.0,79.0
356,98.75584611666666,100.11947761666666,43.0,75.0
357,99.99551111666666,100.14530397083333,55.0,72.0
358,99.74757811666666,100.1494361875,50.0,76.0
359,99.99551111666666,100.1556345125,62.0,70.0
360,100.24344411666667,100.55542647499999,55.0,69.0
361,100.24344411666667,100.605013075,59.0,72.0
362,100.73931011666666,100.85914439999999,55.0,72.0
363,100.49137711666667,101.02856528333334,50.0,73.0
364,100.98724311666666,101.3054238,55.0,77.0
365,100.98724311666666,101.36430788749999,59.0,81.0
366,101.48310911666667,101.5254643375,59.0,40.0
367,100.98724311666666,101.56988566666666,62.0,78.0
368,100.24344411666667,101.68558773333334,43.0,75.0
369,101.23517611666666,101.695918275,50.0,81.0
370,101.48310911666667,101.695918275,55.0,81.0
371,101.73104211666666,102.08228053333333,56.0,66.0
372,101.73104211666666,102.28475915,63.0,68.0
373,101.73104211666666,102.72380717083333,44.0,78.0
374,102.22690811666666,102.7589310125,56.0,78.0
375,101.97897511666666,102.7651293375,51.0,61.0
376,102.47484111666667,102.81781509999999,60.0,60.0
377,102.72277411666666,102.89116194583333,63.0,71.0
378,103.21864011666666,103.49239947083333,58.0,63.0
379,103.21864011666666,103.74033247083332,62.0,64.0
380,103.71450611666667,104.24859512083333,58.0,76.0
381,103.96243911666666,104.2558265,62.0,71.0
382,103.21864011666666,104.34053694166666,46.0,76.0
383,103.46657311666667,104.34260305,53.0,64.0
384,104.21037211666666,104.53578417916667,65.0,75.0
385,104.45830511666666,104.7052050625,62.0,73.0
386,105.20210411666666,105.75582115,51.0,74.0
387,105.45003711666666,105.76408558333333,55.0,61.0
388,104.70623811666667,106.10809262083333,39.0,77.0
389,105.69797011666667,106.27131517916666,58.0,69.0
390,104.95417111666666,106.28371182916666,46.0,58.0
391,105.94590311666666,106.54817369583333,55.0,72.0
392,106.19383611666666,106.91284181666666,63.0,76.0
393,106.19383611666666,107.00168447499999,39.0,76.0
394,106.68970211666667,107.20313003749999,58.0,72.0
395,106.93763511666667,107.21139447083333,55.0,68.0
396,107.18556811666666,107.27544382916666,51.0,75.0
397,107.68143411666667,108.14630849166666,68.0,68.0
398,107.68143411666667,108.179366225,56.0,68.0
399,107.68143411666667,108.36324986666666,44.0,75.0
400,107.92936711666667,108.38391095,51.0,63.0
401,108.17730011666666,108.48721636666666,60.0,70.0
402,108.42523311666666,108.72895104166666,56.0,76.0
403,108.67316611666666,109.096718325,63.0,73.0
404,108.92109911666667,109.1153133,56.0,76.0
405,109.91283111666667,110.24754066666667,62.0,72.0
406,109.66489811666666,110.25580509999999,58.0,73.0
407,109.16903211666666,110.336383325,46.0,74.0
408,109.41696511666666,110.34051554166666,53.0,59.0
409,110.40869711666666,110.68142341666666,58.0,60.0
410,110.16076411666666,110.695886175,65.0,72.0
411,111.15249611666667,111.45104877083332,60.0,69.0
412,111.40042911666666,111.77336167083332,62.0,77.0
413,111.64836211666666,111.93761728333332,63.0,81.0
414,110.65663011666666,112.02749299583333,48.0,78.0
415,110.90456311666667,112.05125324166666,55.0,65.0
416,111.89629511666666,112.18968249999999,65.0,73.0
417,112.14422811666667,112.26819461666666,67.0,74.0
418,112.38389668333333,112.561582,65.0,68.0
419,112.64009411666666,112.74959785833333,60.0,79.0
420,112.39216111666666,112.94277898749999,55.0,70.0
421,112.64939160416667,113.057448,67.0,79.0
422,112.88802711666666,113.2062078,60.0,73.0
423,112.14422811666667,113.21137307083333,48.0,78.0
424,113.13596011666667,113.31674459583333,55.0,75.0
425,112.88802711666666,113.40248809166667,63.0,77.0
426,113.38389311666666,113.62046252083333,60.0,76.0
427,113.63182611666666,114.43554225833333,62.0,73.0
428,113.87975911666666,114.45620334166667,65.0,72.0
429,113.63182611666666,114.72996269583332,38.0,78.0
430,114.37562511666667,114.7712848625,72.0,73.0
431,114.62355811666666,115.04504421666667,68.0,67.0
432,114.87149111666666,115.20723372083333,62.0,75.0
433,115.86322311666666,116.27024645833333,59.0,73.0
434,115.61529011666666,116.3084694625,55.0,65.0
435,115.36735711666667,116.40454349999999,50.0,64.0
436,115.11942411666666,116.47169202083333,43.0,73.0
437,116.11115611666666,116.4789234,62.0,73.0
438,116.60702211666666,117.3311930875,48.0,83.0
439,117.10288811666666,117.6473076625,60.0,83.0
440,116.85495511666666,117.848753225,55.0,66.0
441,117.35082111666667,117.90970342083332,63.0,78.0
442,117.59875411666667,117.94999253333333,46.0,78.0
443,117.84668711666666,118.11424814583333,60.0,72.0
444,118.59048611666667,118.89007182499999,60.0,72.0
445,118.34255311666666,119.0822199,57.0,68.0
446,118.83841911666666,119.13283955416667,63.0,79.0
447,118.09462011666666,119.23821107916666,45.0,74.0
448,119.08635211666666,119.5284993,67.0,73.0
449,119.58221811666667,120.042960275,60.0,67.0
450,120.07808411666666,120.55018987083332,53.0,75.0
451,120.32601711666666,120.6287019875,56.0,72.0
452,119.58221811666667,120.87146971666667,41.0,72.0
453,119.83015111666666,120.87870109583334,48.0,77.0
454,120.57395011666667,121.31568300833332,60.0,73.0
455,121.56568211666666,121.90142472083333,55.0,67.0
456,121.31774911666666,121.92518496666666,50.0,65.0
457,122.06154811666666,122.3828279625,50.0,65.0
458,121.06981611666666,122.4014229375,43.0,73.0
459,121.81361511666667,122.41691875,62.0,69.0
460,122.55741411666666,122.85699982499999,60.0,70.0
461,122.80534711666667,123.0584453875,55.0,72.0
462,123.05328011666666,123.31464282083333,62.0,72.0
463,123.30121311666666,123.55741055,55.0,73.0
464,123.54914611666666,123.8704259625,63.0,71.0
465,122.55741411666666,123.90761591249999,48.0,74.0
466,123.79707911666667,124.1121606375,55.0,72.0
467,124.04501211666665,124.3538953125,60.0,68.0
468,124.29294511666666,124.52951452083333,55.0,62.0
469,124.04501211666665,125.28467711666666,48.0,73.0
470,124.54087811666666,125.28467711666666,67.0,68.0
471,124.54087811666666,125.28571017083333,60.0,71.0
472,126.02847611666667,126.32083044583332,61.0,65.0
473,125.78054311666666,126.54087098333333,56.0,59.0
474,125.53261011666666,126.5790939875,49.0,74.0
475,126.27640911666666,126.5790939875,64.0,58.0
476,126.52434211666666,127.1152491,68.0,60.0
477,127.51607411666666,127.90760164583332,59.0,57.0
478,127.26814111666665,128.1224769125,54.0,57.0
479,127.02020811666667,128.21855095,47.0,66.0
480,127.76400711666666,128.39107099583333,63.0,57.0
481,128.50780611666667,129.3466461,45.0,73.0
482,128.75573911666666,129.46338122083333,52.0,48.0
483,129.00367211666665,129.53259585,57.0,67.0
484,129.25160511666667,129.54705860833332,61.0,66.0
485,129.49953811666666,129.89106564583332,64.0,62.0
486,129.74747111666667,130.0067677125,69.0,58.0
487,129.99540411666666,130.9303181375,47.0,66.0
488,130.49127011666667,130.97783862916665,59.0,59.0
489,130.24333711666665,131.0542846375,54.0,62.0
490,130.73920311666666,131.05841685416667,63.0,62.0
491,130.98713611666665,131.07184655833333,66.0,31.0
492,131.97886811666666,132.33527180416667,61.0,62.0
493,131.48300211666665,132.34870150833333,49.0,73.0
494,131.73093511666667,132.36523037499998,56.0,62.0
495,132.22680111666665,132.513990175,64.0,64.0
496,132.72266711666666,132.94890597916665,61.0,52.0
497,132.47473411666667,133.02121977083334,68.0,63.0
498,133.46646611666665,133.85489448333334,59.0,57.0
499,133.71439911666667,133.8869191625,63.0,63.0
500,133.21853311666666,134.088364725,54.0,56.0
501,132.97060011666667,134.10799275416667,47.0,63.0
502,133.96233211666666,134.38071905416666,59.0,55.0
503,133.96233211666666,134.38071905416666,63.0,66.0
504,134.95406411666667,135.53877277499998,52.0,61.0
505,134.45819811666667,135.77637523333334,40.0,70.0
506,134.70613111666665,135.87451537916667,47.0,55.0
507,135.44993011666665,136.37244748749998,59.0,62.0
508,135.20199711666666,136.406538275,56.0,65.0
509,135.69786311666667,136.48711649999998,64.0,69.0
510,135.94579611666666,136.70095871249998,40.0,68.0
511,136.19372911666667,136.76500807083332,47.0,56.0
512,136.44166211666666,136.83525575416667,52.0,72.0
513,136.68959511666665,137.3300887,56.0,73.0
514,137.18546111666666,137.3641794875,52.0,73.0
515,136.93752811666667,137.46645185,64.0,67.0
516,137.68132711666667,138.57388591666665,49.0,58.0
517,138.17719311666667,138.58421645833332,57.0,72.0
518,137.43339411666665,138.58524951249998,42.0,71.0
519,137.92926011666665,138.613141975,54.0,73.0
520,138.42512611666666,138.885868275,61.0,72.0
521,138.67305911666665,139.02842975,66.0,60.0
522,139.16892511666666,140.05941780833334,54.0,58.0
523,138.92099211666667,140.07801278333332,47.0,73.0
524,139.41685811666667,140.26086337083333,59.0,70.0
525,139.91272411666665,140.32491272916667,66.0,52.0
526,139.66479111666666,140.33111105416666,63.0,66.0
527,140.40859011666666,141.13689330416665,40.0,73.0
528,140.65652311666665,141.36519827499998,47.0,53.0
529,140.90445611666667,141.38172714166666,52.0,72.0
530,141.15238911666665,141.70713920416665,56.0,69.0
531,141.64825511666666,141.82180821666665,52.0,73.0
532,141.40032211666667,141.90341949583333,64.0,68.0
533,142.39205411666666,142.6947389875,61.0,66.0
534,141.89618811666665,142.85073016666666,49.0,68.0
535,142.63998711666667,142.95816779999998,63.0,71.0
536,142.88792011666666,143.187505825,64.0,83.0
537,143.13585311666665,143.41167857916665,68.0,65.0
538,143.38378611666667,144.1482462,45.0,75.0
539,143.63171911666666,144.28874156666666,52.0,56.0
540,143.87965211666665,144.5852281125,57.0,72.0
541,144.12758511666667,144.71745904583332,61.0,69.0
542,144.37551811666665,144.76291342916667,64.0,67.0
543,144.62345111666667,144.9013426875,69.0,57.0
544,145.36725011666667,146.08361815833334,54.0,71.0
545,144.87138411666666,146.19893919166665,42.0,72.0
546,145.11931711666665,146.25042179583335,49.0,61.0
547,145.61518311666666,146.28131135833334,57.0,74.0
548,145.86311611666667,146.34617943958332,61.0,65.0
549,146.1103891125,146.4934196875,66.0,59.0
550,146.85173861250001,147.3336157875,56.0,67.0
551,147.0988551125,147.39642456458333,61.0,71.0
552,146.6046221125,147.64663002083333,51.0,60.0
553,146.3575056125,147.64765967291666,44.0,72.0
554,147.3459716125,147.67751958333332,63.0,66.0
555,147.5930881125,147.74238766458333,61.0,70.0
556,147.8402046125,148.25515440208332,56.0,61.0
557,147.8402046125,148.37562369583333,61.0,71.0
558,147.8402046125,148.73497227291668,68.0,67.0
559,148.5815541125,148.76998044375,56.0,64.0
560,148.3344376125,149.2858361375,51.0,66.0
561,149.0757871125,149.29201405,56.0,67.0
562,148.8286706125,149.29407335416667,61.0,67.0
563,147.8402046125,149.29716231041667,44.0,72.0
564,148.8286706125,149.30848848333332,63.0,67.0
565,149.3229036125,150.10543919583333,49.0,73.0
566,149.5700201125,150.11058745625,56.0,65.0
567,149.8171366125,150.30004343958333,61.0,72.0
568,150.0642531125,150.36800047708334,64.0,78.0
569,150.3113696125,150.5090628125,68.0,66.0
570,150.80602447083334,151.8514752875,59.0,57.0
571,151.79775647083332,152.04982168749999,54.0,60.0
572,150.80602447083334,152.10147439583332,47.0,68.0
573,150.80602447083334,152.12833380416666,63.0,64.0
574,152.04568947083334,152.30188690416668,59.0,68.0
575,152.54155547083334,152.6324642375,52.0,60.0
576,152.78948847083333,153.1097352625,57.0,72.0
577,152.78948847083333,153.55084939166667,52.0,28.0
578,152.29362247083333,153.58494017916667,45.0,77.0
579,153.03742147083332,153.62213012916666,64.0,64.0
580,153.28535447083334,154.33390445,57.0,69.0
581,153.53328747083333,154.55497804166666,69.0,65.0
582,154.27708647083332,154.79774577083333,52.0,49.0
583,153.78122047083332,154.81324158333334,45.0,71.0
584,154.77295247083333,154.9413403,69.0,56.0
585,154.77295247083333,155.0405135,57.0,66.0
586,154.77295247083333,155.12935615833334,64.0,52.0
587,155.26881847083334,156.04567520416666,49.0,74.0
588,155.51675147083333,156.09216264166668,56.0,64.0
589,155.76468447083334,156.21302997916666,61.0,68.0
590,156.01261747083333,156.34939312916666,64.0,75.0
591,156.26055047083332,156.72129262916667,68.0,67.0
592,156.50848347083334,156.8039369625,61.0,70.0
593,157.25228247083334,157.5291409875,59.0,68.0
594,157.00434947083332,157.7398840375,54.0,50.0
595,157.50021547083333,157.78430536666667,63.0,72.0
596,156.75641647083333,157.80083423333332,47.0,68.0
597,157.74814847083334,157.87418107916668,59.0,74.0
598,159.23574647083333,159.51673720416667,64.0,69.0
599,158.73988047083333,159.56322464166666,56.0,61.0
600,158.98781347083334,159.7729346375,59.0,71.0
601,158.49194747083334,160.067355075,47.0,60.0
602,158.24401447083332,160.44441984583332,40.0,73.0
603,159.97954547083333,160.54875831666666,59.0,62.0
604,160.22747847083332,160.56218802083333,47.0,61.0
605,159.73161247083334,160.61177462083333,64.0,73.0
606,160.47541147083334,160.7677658,56.0,68.0
607,159.48367947083332,160.80288964166667,68.0,72.0
608,160.72334447083333,160.83801348333333,59.0,62.0
609,161.46714347083332,162.22230606666668,49.0,63.0
610,161.71507647083334,162.26776045,54.0,69.0
611,161.21921047083333,162.3824294625,42.0,73.0
612,161.96300947083333,162.44854492916667,57.0,79.0
613,162.21094247083334,162.56734615833332,61.0,72.0
614,162.45887547083333,162.72127122916666,66.0,68.0
615,162.95474147083334,163.098336,59.0,20.0
616,162.95474147083334,163.29771545416668,54.0,72.0
617,163.20267447083333,163.46920244583333,59.0,72.0
618,162.70680847083332,163.80494505,47.0,74.0
619,163.69854047083334,163.8762257875,59.0,55.0
620,163.45060747083332,163.97126677083332,63.0,73.0
621,164.19440647083334,164.71093355416667,64.0,67.0
622,164.19440647083334,165.06940335,40.0,67.0
623,164.44233947083333,165.1654773875,47.0,64.0
624,164.69027247083332,165.24812172083332,56.0,67.0
625,164.93820547083334,165.26051837083332,59.0,68.0
626,165.18613847083333,165.45783171666667,64.0,68.0
627,165.68200447083333,166.64791011666665,45.0,76.0
628,165.92993747083332,166.68200090416667,52.0,59.0
629,166.17787047083334,166.68510006666668,57.0,78.0
630,166.42580347083333,166.76877745416667,64.0,71.0
631,166.67373647083332,167.14377611666666,69.0,74.0
632,167.66546847083333,168.22021855833333,50.0,72.0
633,167.91340147083332,168.47951515416668,57.0,67.0
634,168.16133447083334,168.7171176125,54.0,67.0
635,168.40926747083333,169.02290164583334,62.0,73.0
636,167.41753547083334,169.240876075,45.0,60.0
637,167.16960247083333,169.2439752375,38.0,74.0
638,168.65720047083335,169.65513079583332,57.0,72.0
639,169.15306647083332,169.7026512875,54.0,72.0
640,169.64893247083333,169.7584362125,50.0,68.0
641,170.39273147083333,170.70574688333332,56.0,66.0
642,170.64066447083334,170.939217125,61.0,76.0
643,170.88859747083333,171.2026459375,56.0,75.0
644,171.13653047083332,171.43301701666667,61.0,77.0
645,171.38446347083334,171.57247932916667,56.0,74.0
646,170.14479847083334,171.63239647083333,32.0,77.0
647,171.63239647083333,172.1230972,56.0,69.0
648,171.63239647083333,172.21400596666666,60.0,70.0
649,172.12826247083333,172.44334399166667,63.0,73.0
650,171.88032947083332,173.08590368333333,51.0,64.0
651,172.62412847083334,173.0900359,56.0,77.0
652,172.37619547083332,173.10966392916666,68.0,73.0
653,171.63239647083333,173.1117300375,44.0,67.0
654,173.11999447083332,173.4712328875,57.0,66.0
655,173.11999447083332,173.67371150416668,64.0,68.0
656,173.11999447083332,174.112759525,45.0,78.0
657,173.61586047083333,174.14788336666666,57.0,78.0
658,173.36792747083334,174.15408169166668,52.0,61.0
659,173.86379347083334,174.20676745416665,61.0,60.0
660,174.11172647083333,174.2801143,64.0,71.0
661,174.60759247083334,174.881351825,59.0,63.0
662,174.60759247083334,175.129284825,63.0,64.0
663,175.10345847083335,175.637547475,59.0,76.0
664,175.35139147083333,175.64477885416667,63.0,71.0
665,174.60759247083334,175.72948929583333,47.0,76.0
666,174.85552547083333,175.73155540416667,54.0,64.0
667,175.59932447083332,175.92473653333332,66.0,75.0
668,175.84725747083334,176.09415741666666,63.0,73.0
669,176.59105647083334,177.14477350416666,52.0,74.0
670,176.83898947083333,177.1530379375,56.0,61.0
671,176.09519047083333,177.497044975,40.0,77.0
672,177.08692247083331,177.66026753333333,59.0,69.0
673,176.34312347083332,177.67266418333332,47.0,58.0
674,177.33485547083333,177.93712605,56.0,72.0
675,177.58278847083332,178.30179417083332,64.0,76.0
676,177.58278847083332,178.39063682916665,40.0,76.0
677,178.07865447083333,178.59208239166668,59.0,72.0
678,178.32658747083332,178.600346825,56.0,68.0
679,178.57452047083333,178.66439618333334,52.0,75.0
680,179.07038647083334,179.53526084583333,69.0,68.0
681,179.07038647083334,179.56831857916666,57.0,68.0
682,179.07038647083334,179.75220222083334,45.0,75.0
683,179.31831947083333,179.77286330416666,52.0,63.0
684,179.56625247083332,179.87616872083333,61.0,70.0
685,179.81418547083334,180.11790339583334,57.0,76.0
686,180.06211847083333,180.48567067916667,64.0,73.0
687,180.31005147083334,180.50426565416666,57.0,76.0
688,181.30178347083333,181.63649302083334,63.0,72.0
689,181.05385047083334,181.64475745416667,59.0,73.0
690,180.55798447083333,181.72533567916668,47.0,74.0
691,180.80591747083332,181.72946789583332,54.0,59.0
692,181.79764947083333,182.07037577083332,59.0,60.0
693,181.54971647083335,182.08483852916666,66.0,72.0
694,182.54144847083333,182.84000112500001,61.0,69.0
695,182.78938147083335,183.162314025,63.0,77.0
696,183.03731447083334,183.3265696375,64.0,81.0
697,182.04558247083332,183.41644535,49.0,78.0
698,182.29351547083334,183.44020559583333,56.0,65.0
699,183.28524747083333,183.57863485416667,66.0,73.0
700,183.53318047083332,183.93607159583334,68.0,74.0
701,184.02904647083332,184.1385502125,61.0,69.0
702,183.78111347083333,184.33173134166665,56.0,64.0
703,184.27697947083334,184.59516015416665,61.0,73.0
704,183.53318047083332,184.600325425,49.0,78.0
705,184.52491247083333,184.70569695,56.0,75.0
706,184.27697947083334,184.79144044583333,64.0,77.0
707,184.77284547083332,185.009414875,61.0,76.0
708,185.02077847083333,185.8244946125,63.0,73.0
709,185.26871147083332,185.84515569583334,66.0,72.0
710,185.51664447083334,185.85342012916666,69.0,76.0
711,185.02077847083333,186.11891505,39.0,78.0
712,185.76457747083333,186.16023721666667,73.0,73.0
713,186.01251047083332,186.43399657083333,69.0,67.0
714,186.26044347083334,186.596186075,63.0,75.0
715,187.25217547083332,187.6591988125,60.0,73.0
716,187.00424247083333,187.69742181666666,56.0,65.0
717,186.75630947083334,187.79349585416668,51.0,64.0
718,186.50837647083333,187.860644375,44.0,73.0
719,187.50010847083334,187.86787575416668,63.0,73.0
720,187.99597447083335,188.72014544166666,49.0,83.0
721,188.49184047083332,189.03626001666666,61.0,83.0
722,188.24390747083334,189.23770557916666,56.0,66.0
723,188.7397734708333,189.298655775,64.0,78.0
724,188.98770647083333,189.3389448875,47.0,78.0
725,189.23563947083332,189.5032005,61.0,72.0
726,189.97943847083332,190.27902417916667,61.0,72.0
727,189.73150547083333,190.47117225416667,58.0,68.0
728,190.22737147083333,190.52179190833334,64.0,79.0
729,189.48357247083334,190.62716343333332,46.0,74.0
730,190.47530447083332,190.91745165416665,68.0,73.0
731,190.97117047083333,191.2914172625,54.0,69.0
732,190.97117047083333,191.69947365833332,61.0,68.0
733,191.46703647083334,192.01145601666667,54.0,73.0
734,191.71496947083332,192.09823256666667,57.0,74.0
735,191.21910347083332,192.28521537083333,49.0,63.0
736,190.97117047083333,192.3141408875,42.0,73.0
737,192.21083547083333,192.64058600416666,54.0,74.0
738,192.95463447083333,193.2965754,54.0,74.0
739,192.70670147083334,193.3120712125,49.0,60.0
740,191.96290247083334,193.42570717083333,66.0,76.0
741,193.20256747083334,193.74698701666665,61.0,78.0
742,193.45050047083333,193.77178031666665,49.0,74.0
743,192.45876847083332,193.78727612916666,42.0,74.0
744,193.69843347083332,193.80897026666668,54.0,72.0
745,193.94636647083334,194.2604149375,56.0,74.0
746,193.94636647083334,194.3843814375,61.0,73.0
747,194.44223247083335,194.5517362125,56.0,77.0
748,194.19429947083333,194.74698345,51.0,67.0
749,194.69016547083334,195.05173442916666,56.0,83.0
750,194.69016547083334,195.08582521666665,61.0,79.0
751,193.94636647083334,195.30999797083334,44.0,75.0
752,195.1860314708333,195.335824325,56.0,72.0
753,194.93809847083332,195.33995654166665,51.0,76.0
754,195.1860314708333,195.34615486666667,63.0,70.0
755,195.43396447083333,195.74594682916666,56.0,69.0
756,195.43396447083333,195.79553342916665,60.0,72.0
757,195.92983047083334,196.04966475416666,56.0,72.0
758,195.68189747083332,196.2190856375,51.0,73.0
759,196.17776347083333,196.49594415416666,56.0,77.0
760,196.17776347083333,196.55482824166666,60.0,81.0
761,196.67362947083333,196.71598469166668,60.0,40.0
762,196.17776347083333,196.76040602083333,63.0,78.0
763,195.43396447083333,196.8761080875,44.0,75.0
764,196.42569647083332,196.88643862916666,51.0,81.0
765,196.67362947083333,196.88643862916666,56.0,81.0
766,196.92156247083332,197.2728008875,57.0,66.0
767,196.92156247083332,197.47527950416668,64.0,68.0
768,196.92156247083332,197.914327525,45.0,78.0
769,197.41742847083333,197.94945136666666,57.0,78.0
770,197.16949547083334,197.95564969166668,52.0,61.0
771,197.66536147083332,198.00833545416666,61.0,60.0
772,197.91329447083334,198.0816823,64.0,71.0
773,198.40916047083334,198.682919825,59.0,63.0
774,198.40916047083334,198.930852825,63.0,64.0
775,198.90502647083332,199.439115475,59.0,76.0
776,199.15295947083334,199.44634685416668,63.0,71.0
777,198.40916047083334,199.53105729583334,47.0,76.0
778,198.65709347083333,199.53312340416667,54.0,64.0
779,199.40089247083333,199.72630453333332,66.0,75.0
780,199.64882547083334,199.89572541666666,63.0,73.0
781,200.39262447083334,200.94634150416667,52.0,74.0
782,200.64055747083333,200.9546059375,56.0,61.0
783,199.89675847083333,201.298612975,40.0,77.0
784,200.88849047083335,201.46183553333333,59.0,69.0
785,200.14469147083332,201.47423218333333,47.0,58.0
786,201.13642347083334,201.73869405,56.0,72.0
787,201.38435647083332,202.10336217083332,64.0,76.0
788,201.38435647083332,202.19220482916666,40.0,76.0
789,201.88022247083333,202.39365039166665,59.0,72.0
790,202.12815547083332,202.401914825,56.0,68.0
791,202.37608847083334,202.4659641833333,52.0,75.0
792,202.87195447083332,203.33682884583334,69.0,68.0
793,202.87195447083332,203.36988657916666,57.0,68.0
794,202.87195447083332,203.55377022083331,45.0,75.0
795,203.11988747083333,203.57443130416667,52.0,63.0
796,203.36782047083332,203.67773672083334,61.0,70.0
797,203.61575347083334,203.91947139583334,57.0,76.0
798,203.86368647083333,204.28723867916665,64.0,73.0
799,204.11161947083332,204.30583365416666,57.0,76.0
800,205.10335147083333,205.43806102083335,63.0,72.0
801,204.85541847083334,205.44632545416667,59.0,73.0
802,204.35955247083334,205.52690367916665,47.0,74.0
803,204.60748547083332,205.53103589583333,54.0,59.0
804,205.59921747083334,205.87194377083333,59.0,60.0
805,205.35128447083332,205.88640652916666,66.0,72.0
806,206.34301647083333,206.641569125,61.0,69.0
807,206.59094947083332,206.963882025,63.0,77.0
808,206.83888247083334,207.1281376375,64.0,81.0
809,205.84715047083333,207.21801335,49.0,78.0
810,206.09508347083334,207.24177359583334,56.0,65.0
811,207.08681547083333,207.38020285416667,66.0,73.0
812,207.33474847083335,207.73763959583334,68.0,74.0
813,207.83061447083332,207.9401182125,61.0,69.0
814,207.58268147083334,208.13329934166666,56.0,64.0
815,208.0785474708333,208.39672815416665,61.0,73.0
816,207.33474847083335,208.401893425,49.0,78.0
817,208.32648047083333,208.50726495,56.0,75.0
818,208.0785474708333,208.59300844583333,64.0,77.0
819,208.57441347083332,208.81098287499998,61.0,76.0
820,208.82234647083334,209.6260626125,63.0,73.0
821,209.07027947083333,209.64672369583332,66.0,72.0
822,208.82234647083334,209.92048305,39.0,78.0
823,209.56614547083333,209.96180521666668,73.0,73.0
824,209.81407847083332,210.23556457083333,69.0,67.0
825,210.06201147083334,210.397754075,63.0,75.0
826,211.05374347083333,211.4607668125,60.0,73.0
827,210.80581047083334,211.49898981666666,56.0,65.0
828,210.55787747083332,211.59506385416665,51.0,64.0
829,210.30994447083333,211.662212375,44.0,73.0
830,211.30167647083334,211.66944375416665,63.0,73.0
831,211.79754247083332,212.52171344166666,49.0,83.0
832,212.29340847083333,212.83782801666666,61.0,83.0
833,212.04547547083334,213.03927357916666,56.0,66.0
834,212.54134147083334,213.100223775,64.0,78.0
835,212.78927447083333,213.1405128875,47.0,78.0
836,213.03720747083332,213.3047685,61.0,72.0
837,213.78100647083335,214.08059217916667,61.0,72.0
838,213.53307347083333,214.27274025416665,58.0,68.0
839,214.02893947083334,214.32335990833332,64.0,79.0
840,213.2851404708333,214.42873143333333,46.0,74.0
841,214.27687247083333,214.71901965416666,68.0,73.0
842,214.77273847083333,215.23348062916665,61.0,67.0
843,215.26860447083334,215.740710225,54.0,75.0
844,215.51653747083333,215.81922234166666,57.0,72.0
845,214.77273847083333,216.06199007083333,42.0,72.0
846,215.02067147083335,216.06922145,49.0,77.0
847,215.76447047083332,216.5062033625,61.0,73.0
848,216.75620247083333,217.091945075,56.0,67.0
849,216.50826947083334,217.11570532083334,51.0,65.0
850,217.25206847083334,217.57334831666668,51.0,65.0
851,216.26033647083332,217.59194329166667,44.0,73.0
852,217.00413547083332,217.60743910416664,63.0,69.0
853,217.74793447083334,218.04752017916667,61.0,70.0
854,217.99586747083333,218.24896574166667,56.0,72.0
855,218.24380047083332,218.505163175,63.0,72.0
856,218.4917334708333,218.74793090416665,56.0,73.0
857,218.73966647083333,219.06094631666667,64.0,71.0
858,217.74793447083334,219.09813626666664,49.0,74.0
859,218.98759947083335,219.30268099166665,56.0,72.0
860,219.23553247083333,219.54441566666668,61.0,68.0
861,219.48346547083332,219.720034875,56.0,62.0
862,219.23553247083333,220.47519747083334,49.0,73.0
863,219.7313984708333,220.47519747083334,68.0,68.0
864,219.7313984708333,220.476230525,61.0,71.0
865,220.72313047083333,221.0743688875,57.0,66.0
866,220.72313047083333,221.27684750416665,64.0,68.0
867,220.72313047083333,221.715895525,45.0,78.0
868,221.21899647083333,221.75101936666667,57.0,78.0
869,220.97106347083331,221.75721769166665,52.0,61.0
870,221.46692947083335,221.80990345416666,61.0,60.0
871,221.71486247083334,221.8832503,64.0,71.0
872,222.21072847083332,222.484487825,59.0,63.0
873,222.21072847083332,222.732420825,63.0,64.0
874,222.70659447083332,223.240683475,59.0,76.0
875,222.95452747083334,223.24791485416665,63.0,71.0
876,222.21072847083332,223.33262529583334,47.0,76.0
877,222.45866147083333,223.33469140416668,54.0,64.0
878,223.20246047083333,223.52787253333332,66.0,75.0
879,223.45039347083332,223.69729341666667,63.0,73.0
880,224.19419247083334,224.74790950416667,52.0,74.0
881,224.44212547083333,224.7561739375,56.0,61.0
882,223.6983264708333,225.100180975,40.0,77.0
883,224.69005847083332,225.26340353333333,59.0,69.0
884,223.94625947083333,225.27580018333333,47.0,58.0
885,224.9379914708333,225.54026205,56.0,72.0
886,225.18592447083333,225.90493017083332,64.0,76.0
887,225.18592447083333,225.99377282916666,40.0,76.0
888,225.68179047083333,226.19521839166666,59.0,72.0
889,225.92972347083332,226.20348282499998,56.0,68.0
890,226.1776564708333,226.26753218333334,52.0,75.0
891,226.67352247083335,227.1383968458333,69.0,68.0
892,226.67352247083335,227.17145457916666,57.0,68.0
893,226.67352247083335,227.35533822083335,45.0,75.0
894,226.92145547083334,227.37599930416667,52.0,63.0
895,227.16938847083333,227.47930472083334,61.0,70.0
896,227.41732147083331,227.72103939583332,57.0,76.0
897,227.66525447083333,228.08880667916668,64.0,73.0
898,227.91318747083335,228.10740165416667,57.0,76.0
899,228.90491947083333,229.23962902083332,63.0,72.0
900,228.65698647083332,229.24789345416667,59.0,73.0
901,228.16112047083334,229.32847167916668,47.0,74.0
902,228.40905347083333,229.33260389583333,54.0,59.0
903,229.40078547083334,229.67351177083333,59.0,60.0
904,229.15285247083332,229.68797452916667,66.0,72.0
905,230.1445844708333,230.443137125,61.0,69.0
906,230.39251747083333,230.765450025,63.0,77.0
907,230.64045047083334,230.92970563749998,64.0,81.0
908,229.64871847083333,231.01958135,49.0,78.0
909,229.89665147083332,231.04334159583334,56.0,65.0
910,230.88838347083333,231.18177085416664,66.0,73.0
911,231.13631647083332,231.53920759583332,68.0,74.0
912,231.63218247083333,231.74168621249999,61.0,69.0
913,231.3842494708333,231.93486734166666,56.0,64.0
914,231.88011547083335,232.19829615416666,61.0,73.0
915,231.13631647083332,232.203461425,49.0,78.0
916,232.12804847083333,232.30883295,56.0,75.0
917,231.88011547083335,232.3945764458333,64.0,77.0
918,232.37598147083332,232.612550875,61.0,76.0
919,232.6239144708333,233.4276306125,63.0,73.0
920,232.87184747083333,233.44829169583335,66.0,72.0
921,233.11978047083335,233.45655612916664,69.0,76.0
922,232.6239144708333,233.72205105,39.0,78.0
923,233.36771347083334,233.76337321666665,73.0,73.0
924,233.61564647083333,234.0371325708333,69.0,67.0
925,233.86357947083332,234.199322075,63.0,75.0
926,234.85531147083333,235.2623348125,60.0,73.0
927,234.60737847083334,235.30055781666667,56.0,65.0
928,234.35944547083332,235.39663185416666,51.0,64.0
929,234.11151247083333,235.463780375,44.0,73.0
930,235.10324447083332,235.47101175416668,63.0,73.0
931,235.59911047083332,236.32328144166667,49.0,83.0
932,236.09497647083333,236.63939601666667,61.0,83.0
933,235.84704347083334,236.84084157916666,56.0,66.0
934,236.34290947083332,236.901791775,64.0,78.0
935,236.5908424708333,236.9420808875,47.0,78.0
936,236.83877547083333,237.1063365,61.0,72.0
937,237.58257447083332,237.88216017916665,61.0,72.0
938,237.33464147083333,238.07430825416668,58.0,68.0
939,237.8305074708333,238.12492790833335,64.0,79.0
940,237.08670847083334,238.23029943333333,46.0,74.0
941,238.07844047083333,238.52058765416666,68.0,73.0
942,238.57430647083333,238.89455326249998,54.0,69.0
943,238.57430647083333,239.30260965833332,61.0,68.0
944,239.0701724708333,239.61459201666668,54.0,73.0
945,239.31810547083333,239.70136856666664,57.0,74.0
946,238.82223947083332,239.88835137083333,49.0,63.0
947,238.57430647083333,239.9172768875,42.0,73.0
948,239.81397147083334,240.06190447083333,54.0,74.0
949,239.56603847083335,240.06190447083333,66.0,76.0
950,240.47099392083334,241.02471095416666,56.0,65.0
951,240.27161446666668,241.87388147916664,51.0,60.0
952,240.0350450625,241.87801369583332,44.0,72.0
953,241.36251966666666,242.81189466249998,56.0,15.0
954,240.71582775833332,242.84082017916666,60.0,63.0
955,240.955496325,242.8676795875,63.0,64.0
956,241.23442095000001,242.98854692499998,68.0,65.0
957,243.33048785416668,243.7912300125,68.0,68.0
958,243.843915775,244.17965837916665,61.0,68.0
959,243.34288450416665,244.31395542083334,49.0,75.0
960,244.07841907083332,244.33461650416666,64.0,72.0
961,243.58152001666667,244.3614759125,56.0,66.0
962,244.52986374166665,244.8315155583333,61.0,65.0
963,244.30362487916665,244.85011053333332,68.0,72.0
964,245.19721673333333,245.6569258375,59.0,65.0
965,245.43275308333332,245.74163627916664,63.0,62.0
966,244.9317218125,245.90279272916666,54.0,60.0
967,244.85011053333332,245.938949625,47.0,73.0
968,245.66209110833333,246.10527134583333,68.0,66.0
969,245.89762745833332,246.17241986666664,63.0,63.0
970,246.16415543333335,246.98749960416666,45.0,73.0
971,246.36663405000002,246.98749960416666,52.0,62.0
972,246.8552686708333,247.18997822083332,61.0,63.0
973,246.63212897083332,247.2436970375,57.0,72.0
974,247.1011355625,247.38935767499999,64.0,63.0
975,247.33357274999997,247.58770407499998,69.0,62.0
976,247.86456259166664,248.45133735833332,51.0,57.0
977,248.1114625375,248.46993233333333,56.0,64.0
978,247.6093982125,248.72199755,44.0,72.0
979,248.59079967083335,248.75298917499998,51.0,67.0
980,248.3531972125,248.88831927083334,61.0,63.0
981,249.58459777916664,249.98748890416667,61.0,59.0
982,249.09183094166667,249.99265417499998,68.0,69.0
983,249.33356561666665,250.07839767083334,56.0,69.0
984,249.112492025,250.0949265375,49.0,69.0
985,249.83046467083332,250.1321164875,64.0,65.0
986,250.314967075,250.562900075,61.0,62.0
987,250.07839767083334,250.64451135416667,68.0,66.0
988,250.59285864583333,250.64451135416667,68.0,69.0
989,251.083559375,251.37901286666664,59.0,65.0
990,251.32942626666664,251.62384670416668,63.0,67.0
991,250.81186612916667,251.76434207083332,54.0,60.0
992,250.58356115833334,251.82942448333333,47.0,72.0
993,251.56599567083333,251.9296307375,59.0,61.0
994,251.82322615833334,252.04946502083334,63.0,61.0
995,251.58355759166665,252.09078718749998,68.0,61.0
996,252.10524994583332,252.64347116666664,68.0,65.0
997,252.0814897,253.02156899166664,45.0,62.0
998,252.310827725,253.06289115833334,52.0,65.0
999,252.55772767083334,253.0639242125,57.0,65.0
1000,252.7963631833333,253.1744610083333,61.0,65.0
1001,253.05152756249998,253.18995682083334,64.0,65.0
1002,253.05152756249998,253.3304521875,68.0,58.0
1003,253.59904627083333,254.368671625,66.0,100.0
1004,254.16102773749998,254.80462048333334,56.0,64.0
1005,254.4389193083333,254.85730624583334,63.0,66.0
1006,254.78292634583335,254.98127274583334,68.0,68.0
1007,255.43375047083333,255.54222115833335,68.0,52.0
1008,255.46990736666666,255.60420440833332,72.0,66.0
1009,255.54945253749997,255.62899770833332,75.0,54.0
1010,255.59180775833335,255.7230056375,80.0,69.0
1011,253.87693784166666,256.4482096625,51.0,61.0
1012,253.6186743,256.4905648833333,44.0,72.0
1013,259.7829085125,260.0019159958333,56.0,74.0
1014,259.9957176708333,260.15274190416665,61.0,63.0
1015,260.2415845625,260.3831129833333,63.0,72.0
1016,260.4833192375,260.5876577083333,64.0,76.0
1017,260.74468194166667,260.9977802125,68.0,67.0
1018,261.0597634625,261.24364710416666,75.0,73.0
1019,261.3944730125,261.7994302458333,73.0,65.0
1020,261.77567,261.9450908833333,80.0,66.0
1021,262.364510875,262.4647171291667,80.0,37.0
1022,262.40789915,262.5277334333333,85.0,72.0
1023,262.9657484,263.0401283,85.0,67.0
1024,263.02876470416663,263.1134751458333,92.0,72.0
1025,259.55460354166667,264.06491803333336,44.0,62.0
1026,259.33972827499997,264.10727325416667,37.0,74.0
1027,265.1795834791667,265.27049224583334,85.0,47.0
1028,265.246732,265.32317800833334,97.0,66.0
