,start,end,pitch,velocity
0,0.9210494999999999,2.72367495,85.0,89.0
1,3.8256448874999998,3.9786048937499996,80.0,61.0
2,3.9144603749999995,5.054259131249999,85.0,76.0
3,4.03452575625,6.046032074999999,92.0,77.0
4,6.3980045625,7.246685887499999,94.0,81.0
5,7.212146531249999,9.32398145625,89.0,84.0
6,9.547664906249999,10.38318838125,92.0,81.0
7,10.373319993749998,11.19733035,85.0,89.0
8,11.161146262499999,11.937459412499999,89.0,86.0
9,11.937459412499999,13.20883666875,82.0,79.0
10,13.335480975,13.544361843749998,68.0,64.0
11,13.414428074999998,14.251596281249999,73.0,71.0
12,13.48679625,14.475279731249998,75.0,79.0
13,13.564098618749998,15.133172231249999,80.0,76.0
14,15.457184287499999,15.519684074999999,68.0,64.0
15,15.694025587499999,15.914419574999998,80.0,75.0
16,16.603561968749997,19.20881626875,72.0,58.0
17,16.644680249999997,19.279539712499997,75.0,72.0
18,16.69731165,19.295987025,80.0,74.0
19,19.753222312499997,20.174273512499997,73.0,68.0
20,19.80749844375,21.80091271875,75.0,69.0
21,19.868353499999998,21.947293799999997,80.0,76.0
22,22.983474487499997,23.078868899999996,72.0,49.0
23,22.883145881249998,25.651228574999998,68.0,60.0
24,23.0097901875,25.661096962499997,75.0,73.0
25,23.045974275,25.666031156249996,80.0,67.0
26,26.177542574999997,28.560758156249996,77.0,81.0
27,28.545955574999997,29.340360768749996,68.0,82.0
28,29.335426574999996,30.162726393749995,70.0,82.0
29,30.124897575,31.703839574999996,77.0,82.0
30,31.703839574999996,32.1314697,77.0,89.0
31,32.098575075,32.51469208125,80.0,84.0
32,32.493310574999995,33.29100523125,82.0,80.0
33,33.282781574999994,34.07225257499999,85.0,84.0
34,34.07225257499999,34.466988074999996,58.0,76.0
35,34.466988074999996,34.861723575,61.0,76.0
36,34.861723575,35.256459074999995,63.0,76.0
37,34.07225257499999,35.256459074999995,82.0,76.0
38,35.256459074999995,35.651194575,65.0,76.0
39,35.256459074999995,35.651194575,77.0,76.0
40,35.651194575,37.230136574999996,60.0,76.0
41,35.651194575,38.019607574999995,80.0,76.0
42,38.019607574999995,38.38802737499999,73.0,79.0
43,37.230136574999996,38.809078574999994,58.0,76.0
44,38.414343075,38.8419732,77.0,81.0
45,38.809078574999994,39.626510006249994,75.0,86.0
46,38.809078574999994,40.388020575,63.0,76.0
47,40.388020575,41.177491575,70.0,76.0
48,39.59854957499999,41.1873599625,82.0,77.0
49,41.177491575,41.55413503125,80.0,77.0
50,41.177491575,41.966962575,73.0,76.0
51,41.572227074999994,41.97847569375,77.0,80.0
52,41.966962575,42.756433574999996,80.0,82.0
53,42.756433574999996,43.545904574999994,75.0,76.0
54,41.966962575,44.33537557499999,72.0,76.0
55,43.545904574999994,44.730111074999996,77.0,76.0
56,44.730111074999996,45.12484657499999,75.0,76.0
57,47.88799507499999,48.11661271875,85.0,82.0
58,45.12484657499999,48.282730574999995,68.0,63.0
59,45.12484657499999,48.282730574999995,73.0,76.0
60,48.085362825,48.30246734999999,87.0,89.0
61,48.282730574999995,48.488321981249996,89.0,92.0
62,48.48009832499999,48.66759768749999,87.0,89.0
63,48.677466075,51.25969413749999,89.0,91.0
64,56.966911575,57.420857399999996,65.0,76.0
65,57.36164707499999,57.766250962499996,68.0,68.0
66,57.756382574999996,59.28598263749999,70.0,73.0
67,62.098473074999994,62.287617168749996,82.0,79.0
68,62.29584082499999,62.52445846874999,80.0,77.0
69,62.493208575,62.718536756249996,82.0,76.0
70,62.690576324999995,62.88465461249999,80.0,77.0
71,62.88794407499999,63.23333763749999,77.0,75.0
72,63.282679574999996,63.501428831249996,77.0,82.0
73,63.480047324999994,63.669191418749996,80.0,66.0
74,63.67741507499999,63.891230137499996,75.0,76.0
75,63.874782825,64.0524138,73.0,70.0
76,64.072150575,65.4964878375,70.0,75.0
77,70.38791857499999,71.87311089375,75.0,79.0
78,71.966860575,73.57376300624999,73.0,73.0
79,73.545802575,74.730009075,80.0,76.0
80,74.730009075,74.93395575,82.0,76.0
81,74.927376825,75.14119188749999,80.0,75.0
82,75.124744575,75.33527017499999,82.0,77.0
83,75.32211232499999,75.5556641625,80.0,78.0
84,75.51948007499999,75.7332951375,82.0,76.0
85,75.71684782499999,75.93230761874999,80.0,75.0
86,75.91421557499999,76.67572614375,77.0,67.0
87,76.70368657499999,79.59018991875,77.0,66.0
88,76.70368657499999,79.60828196249999,80.0,63.0
89,80.256306075,80.77275168749999,73.0,68.0
90,80.256306075,80.77275168749999,77.0,64.0
91,80.84840932499999,81.32867085,72.0,70.0
92,80.84840932499999,81.3714338625,75.0,75.0
93,81.44051257499999,81.88952420624999,70.0,67.0
94,81.44051257499999,81.90597151875,73.0,69.0
95,82.032615825,82.16748378749999,70.0,67.0
96,82.032615825,82.19379948749999,73.0,70.0
97,82.22998357499999,82.901033925,68.0,67.0
98,82.22998357499999,82.91912596875,72.0,68.0
99,83.019454575,84.4766864625,77.0,71.0
100,83.019454575,84.4898443125,73.0,69.0
101,84.598396575,85.92076049999999,70.0,64.0
102,84.598396575,85.93885254374999,73.0,67.0
103,87.361545075,87.6345704625,85.0,68.0
104,87.361545075,87.65430723749999,89.0,75.0
105,87.75628057499999,88.07535843749999,89.0,75.0
106,87.75628057499999,88.09509521249998,85.0,72.0
107,88.15101607499999,88.43390984999999,87.0,65.0
108,88.15101607499999,88.46187028124999,84.0,63.0
109,88.545751575,88.7628561,87.0,75.0
110,88.545751575,88.78094814375,84.0,68.0
111,90.91416457499999,91.32041319374999,75.0,71.0
112,91.308900075,91.77435901874999,77.0,56.0
113,91.70363557499999,92.5260012,80.0,66.0
114,92.49310657499998,94.0029698625,75.0,75.0
115,94.86151957499999,95.18388689999999,75.0,60.0
116,95.25625507499998,95.66743788749999,77.0,76.0
117,95.650990575,96.4174353375,80.0,75.0
118,96.44046157499999,96.81874976249999,77.0,73.0
119,96.835197075,97.2595377375,75.0,76.0
120,97.22993257499999,97.6016418375,70.0,71.0
121,97.62466807499999,98.0522982,68.0,71.0
122,98.01940357499998,98.49966509999999,75.0,76.0
123,98.414139075,98.84670339374999,77.0,73.0
124,99.20361007499999,99.65097697499999,68.0,69.0
125,99.598345575,100.01446258124999,80.0,76.0
126,98.80887457499999,100.08025183125,73.0,69.0
127,99.99308107499999,100.2891327,82.0,76.0
128,100.38781657499999,101.861495775,85.0,76.0
129,101.96675857499999,103.17892550625,68.0,71.0
130,103.15096507499999,103.60984509375,70.0,70.0
131,103.54570057499998,103.97990962499999,73.0,70.0
132,103.940436075,104.36148727499999,75.0,77.0
133,104.33517157499999,104.74470965625,73.0,73.0
134,104.72990707499999,105.15424773749999,72.0,70.0
135,105.124642575,105.91411357499999,70.0,68.0
136,105.91411357499999,106.35819101249999,70.0,70.0
137,106.30884907499998,106.72661081249998,72.0,73.0
138,106.703584575,107.14437254999999,73.0,69.0
139,107.09832007499999,107.49634503749999,80.0,73.0
140,107.49305557499999,107.92561989375,77.0,70.0
141,107.887791075,108.31377646874999,80.0,75.0
142,108.28252657499999,110.25620407499999,82.0,71.0
143,110.25620407499999,110.69041312499999,84.0,75.0
144,110.650939575,111.05554346249998,82.0,75.0
145,111.04567507499999,111.48481831874999,77.0,75.0
146,111.44041057499999,113.414088075,80.0,75.0
147,113.414088075,113.83513927499999,75.0,81.0
148,113.80882357499999,114.21013799999999,77.0,86.0
149,114.20355907499999,114.66243909375,80.0,80.0
150,114.59829457499998,115.38447611249998,82.0,78.0
151,115.38776557499999,115.79894838749999,80.0,75.0
152,115.78250107499998,116.61966928124998,82.0,79.0
153,116.57197207499999,117.04400994374998,73.0,79.0
154,116.96670757499999,117.39927189374998,75.0,89.0
155,117.36144307499998,117.76111276874998,77.0,79.0
156,118.15091407499999,118.62788613749998,61.0,76.0
157,118.54564957499998,118.98479281875,63.0,77.0
158,118.940385075,119.32525218749998,65.0,77.0
159,117.75617857499999,119.72985607499999,70.0,79.0
160,119.72985607499999,120.16077566249999,70.0,81.0
161,120.12459157499998,120.50287976249999,56.0,77.0
162,120.12459157499998,120.51110341874998,68.0,78.0
163,119.33512057499999,120.51932707499999,58.0,70.0
164,120.51932707499999,120.91570730624998,58.0,69.0
165,120.51932707499999,120.94202300624998,70.0,82.0
166,120.91406257499999,121.71998088749999,80.0,80.0
167,120.91406257499999,121.77754648124998,68.0,67.0
168,121.703533575,122.33511037499999,77.0,79.0
169,121.703533575,122.35813661249999,65.0,76.0
170,122.49300457499999,122.89431899999998,65.0,76.0
171,122.49300457499999,122.914055775,77.0,79.0
172,122.88774007499998,123.30221234999999,75.0,86.0
173,122.88774007499998,123.30879127499999,63.0,75.0
174,123.28247557499999,123.66898741874999,70.0,78.0
175,123.28247557499999,123.70517150624998,58.0,74.0
176,123.67721107499999,124.09168334999998,68.0,75.0
177,123.67721107499999,124.09661754374999,56.0,72.0
178,124.07194657499998,127.03575228749999,61.0,70.0
179,124.07194657499998,127.10318626875,73.0,77.0
180,127.229830575,127.9206177,68.0,70.0
181,128.019301575,128.37949771874997,68.0,76.0
182,128.41403707499998,128.79561472499998,65.0,79.0
183,128.80877257499998,129.17390291249998,68.0,73.0
184,129.20350807499997,129.6739012125,70.0,73.0
185,129.598243575,129.98475541874998,73.0,76.0
186,129.992979075,130.4206092,72.0,77.0
187,130.387714575,131.83343334375,70.0,75.0
188,132.756127575,133.13112629999998,68.0,78.0
189,133.150863075,133.55875642499998,70.0,77.0
190,133.54559857499999,134.61796335,65.0,79.0
191,134.72980507499997,135.04230401249998,68.0,68.0
192,135.124540575,135.53407865625,61.0,76.0
193,135.519276075,135.94855093125,58.0,75.0
194,135.914011575,136.33012858125,61.0,76.0
195,136.30874707499999,136.75611397499998,68.0,73.0
196,136.70348257499998,137.50775615625,65.0,73.0
197,137.49295357499997,138.8153175,63.0,75.0
198,139.86136657499998,140.51925907499998,63.0,76.0
199,140.650837575,141.06202038749998,63.0,76.0
200,141.045573075,141.47978212499999,61.0,75.0
201,141.440308575,141.82517568749998,63.0,75.0
202,141.83504407499998,142.28241097499998,65.0,75.0
203,142.22977957499998,142.6014888375,68.0,75.0
204,142.62451507499998,143.04392154374997,65.0,76.0
205,143.01925057499997,145.190295825,63.0,73.0
206,145.38766357499998,145.78239907499997,63.0,73.0
207,145.78239907499997,146.177134575,65.0,79.0
208,146.177134575,146.52088340625,68.0,76.0
209,146.571870075,147.27252558749998,65.0,75.0
210,147.36134107499998,147.7100241,63.0,76.0
211,147.75607657499998,148.11956218125,58.0,75.0
212,148.15081207499998,148.60311316874999,56.0,75.0
213,148.54554757499997,148.88600694374998,63.0,76.0
214,148.940283075,149.35311061874998,65.0,73.0
215,149.335018575,150.12448957499998,61.0,74.0
216,149.729754075,150.17876570624998,68.0,71.0
217,150.12448957499998,150.54554077499998,73.0,79.0
218,150.51922507499998,150.9567235875,82.0,76.0
219,150.51922507499998,150.96659197499997,77.0,71.0
220,150.91396057499998,152.1738247125,75.0,73.0
221,150.91396057499998,152.25441654374998,80.0,78.0
222,152.492902575,152.75112538124998,68.0,70.0
223,152.492902575,153.02415076875,73.0,74.0
224,152.88763807499998,153.32842605,68.0,67.0
225,153.28237357499998,153.67053015,73.0,75.0
226,153.67710907499998,154.10638393124998,77.0,73.0
227,153.67710907499998,154.12118651249997,82.0,76.0
228,154.07184457499997,155.53072119375,75.0,75.0
229,154.07184457499997,155.55703689375,80.0,74.0
230,161.17708357499998,161.6310294,65.0,76.0
231,161.57181907499998,161.97642296249998,68.0,68.0
232,161.96655457499998,163.49615463749998,70.0,73.0
233,166.308645075,166.49778916875,82.0,79.0
234,166.50601282499997,166.73463046874997,80.0,77.0
235,166.70338057499998,166.92870875625,82.0,76.0
236,166.900748325,167.0948266125,80.0,77.0
237,167.09811607499998,167.44350963749997,77.0,75.0
238,167.49285157499997,167.71160083125,77.0,82.0
239,167.690219325,167.87936341875,80.0,66.0
240,167.88758707499997,168.10140213749997,75.0,76.0
241,168.08495482499998,168.26258579999998,73.0,70.0
242,168.282322575,169.70665983749998,70.0,75.0
243,174.598090575,176.08328289374998,75.0,79.0
244,176.17703257499997,177.78393500624998,73.0,73.0
245,177.75597457499998,178.94018107499997,80.0,76.0
246,178.94018107499997,179.14412775,82.0,76.0
247,179.13754882499998,179.35136388749999,80.0,75.0
248,179.334916575,179.54544217499998,82.0,77.0
249,179.53228432499998,179.7658361625,80.0,78.0
250,179.729652075,179.9434671375,82.0,76.0
251,179.92701982499997,180.14247961874997,80.0,75.0
252,180.124387575,180.88589814374998,77.0,67.0
253,180.91385857499998,183.80036191874999,77.0,66.0
254,180.91385857499998,183.81845396249997,80.0,63.0
255,184.46647807499997,184.98292368749998,73.0,68.0
256,184.46647807499997,184.98292368749998,77.0,64.0
257,185.05858132499998,185.53884284999998,72.0,70.0
258,185.05858132499998,185.58160586249997,75.0,75.0
259,185.65068457499999,186.09969620624997,70.0,67.0
260,185.65068457499999,186.11614351875,73.0,69.0
261,186.242787825,186.37765578749998,70.0,67.0
262,186.242787825,186.40397148749997,73.0,70.0
263,186.44015557499998,187.11120592499998,68.0,67.0
264,186.44015557499998,187.12929796875,72.0,68.0
265,187.22962657499997,188.68685846249997,77.0,71.0
266,187.22962657499997,188.70001631249997,73.0,69.0
267,188.80856857499998,190.13093249999997,70.0,64.0
268,188.80856857499998,190.14902454375,73.0,67.0
269,191.57171707499998,191.8447424625,85.0,68.0
270,191.57171707499998,191.86447923749998,89.0,75.0
271,191.96645257499998,192.28553043749997,89.0,75.0
272,191.96645257499998,192.30526721249998,85.0,72.0
273,192.36118807499997,192.64408185,87.0,65.0
274,192.36118807499997,192.67204228125,84.0,63.0
275,192.75592357499997,192.9730281,87.0,75.0
276,192.75592357499997,192.99112014374998,84.0,68.0
277,195.12433657499997,195.53058519374997,75.0,71.0
278,195.51907207499997,195.98453101874998,77.0,56.0
279,195.913807575,196.73617319999997,80.0,66.0
280,196.70327857499998,198.21314186249998,75.0,75.0
281,199.071691575,199.39405889999998,75.0,60.0
282,199.46642707499998,199.87760988749997,77.0,76.0
283,199.86116257499998,200.62760733749997,80.0,75.0
284,200.65063357499997,201.02892176249998,77.0,73.0
285,201.04536907499997,201.46970973749998,75.0,76.0
286,201.440104575,201.81181383749998,70.0,71.0
287,201.834840075,202.26247019999997,68.0,71.0
288,202.22957557499998,202.7098371,75.0,76.0
289,202.62431107499998,203.05687539374998,77.0,73.0
290,203.41378207499997,203.861148975,68.0,69.0
291,203.80851757499997,204.22463458124997,80.0,76.0
292,203.01904657499998,204.29042383124997,73.0,69.0
293,204.203253075,204.49930469999998,82.0,76.0
294,204.597988575,206.07166777499998,85.0,76.0
295,206.17693057499997,206.8677177,68.0,70.0
296,206.966401575,207.32659771874998,68.0,76.0
297,207.361137075,207.74271472499998,65.0,79.0
298,207.75587257499998,208.1210029125,68.0,73.0
299,208.15060807499998,208.62100121249998,70.0,73.0
300,208.54534357499998,208.93185541875,73.0,76.0
301,208.94007907499997,209.36770919999998,72.0,77.0
302,209.33481457499997,210.78053334374997,70.0,75.0
303,211.70322757499997,212.07822629999998,68.0,78.0
304,212.09796307499997,212.505856425,70.0,77.0
305,212.492698575,213.56506334999997,65.0,79.0
306,213.67690507499998,213.9894040125,68.0,68.0
307,214.07164057499998,214.48117865624997,61.0,76.0
308,214.46637607499997,214.89565093124997,58.0,75.0
309,214.86111157499997,215.27722858124997,61.0,76.0
310,215.255847075,215.70321397499998,68.0,73.0
311,215.650582575,216.04531807499998,65.0,73.0
312,216.04531807499998,218.413731075,63.0,75.0
313,218.80846657499998,219.46635907499999,63.0,76.0
314,219.59793757499997,220.0091203875,63.0,76.0
315,219.99267307499997,220.426882125,61.0,75.0
316,220.38740857499997,220.77227568749998,63.0,75.0
317,220.782144075,221.22951097499998,65.0,75.0
318,221.176879575,221.54858883749998,68.0,75.0
319,221.57161507499998,221.99102154374998,65.0,76.0
320,221.96635057499998,224.13739582499997,63.0,73.0
321,224.33476357499998,224.72949907499998,63.0,73.0
322,224.72949907499998,225.12423457499997,65.0,79.0
323,225.12423457499997,225.46798340624997,68.0,76.0
324,225.51897007499997,226.2196255875,65.0,75.0
325,226.308441075,226.65712409999998,63.0,76.0
326,226.703176575,227.06666218124997,58.0,75.0
327,227.09791207499998,227.55021316875,56.0,75.0
328,227.49264757499998,227.83310694374998,63.0,76.0
329,227.88738307499997,228.30021061875,65.0,73.0
330,228.28211857499997,229.071589575,61.0,74.0
331,228.67685407499997,229.12586570624998,68.0,71.0
332,229.071589575,229.49264077499998,73.0,79.0
333,229.466325075,229.90382358749997,82.0,76.0
334,229.466325075,229.91369197499998,77.0,71.0
335,229.86106057499998,231.12092471249997,75.0,73.0
336,229.86106057499998,231.20151654375,80.0,78.0
337,231.44000257499997,231.80677764374997,75.0,77.0
338,231.834738075,232.26730239375,77.0,76.0
339,232.229473575,232.67684047499998,80.0,71.0
340,232.62420907499998,233.05019446874996,82.0,78.0
341,233.01894457499998,233.47946932499997,75.0,76.0
342,233.41368007499997,233.81006030624997,77.0,75.0
343,233.80841557499997,234.26565086249997,80.0,68.0
344,234.20315107499997,234.64064958749998,82.0,73.0
345,234.597886575,235.0419640125,75.0,78.0
346,234.99262207499999,235.43505478125,77.0,77.0
347,235.38735757499998,235.83636920624997,80.0,71.0
348,235.78209307499998,236.24097309374997,82.0,75.0
349,236.17682857499997,236.63406386249997,75.0,76.0
350,236.57156407499997,236.88899720624997,92.0,77.0
351,236.57156407499997,237.00083893124997,77.0,72.0
352,236.96629957499997,237.2722195875,94.0,76.0
353,236.96629957499997,237.39557443124997,80.0,72.0
354,237.361035075,237.75741530624998,82.0,76.0
355,237.361035075,238.10938779375,92.0,76.0
356,237.75577057499999,238.15050607499998,75.0,76.0
357,237.75577057499999,238.15050607499998,80.0,76.0
358,238.15050607499998,238.51399168125,77.0,76.0
359,238.54524157499998,238.97122696875,80.0,76.0
360,238.93997707499997,239.35938354374997,82.0,78.0
361,239.33471257499997,239.76398743124997,75.0,75.0
362,239.72944807499997,240.17188078124997,77.0,77.0
363,240.124183575,240.94983866249999,80.0,70.0
364,240.91365457499998,241.70312557499997,75.0,84.0
365,241.70312557499997,242.47614926249997,77.0,80.0
366,242.49259657499996,243.24752821874998,70.0,76.0
367,243.23108090624999,243.33634370624998,46.0,77.0
368,243.31496219999997,243.45640908749996,48.0,39.0
369,243.41364607499997,243.56660608124997,49.0,46.0
370,243.52548779999998,243.66693468749997,51.0,46.0
371,243.62417167499999,243.75739490624997,53.0,47.0
372,243.70805296874997,243.83634200624996,54.0,41.0
373,243.28206757499999,243.87417082499996,68.0,76.0
374,243.79193426249998,243.913644375,56.0,43.0
375,243.87252609374997,243.98765728124997,58.0,42.0
376,243.94489426874998,244.05673599374998,60.0,46.0
377,244.00903878749997,244.12416997499997,61.0,45.0
378,244.08305169374998,244.18831449374997,63.0,45.0
379,244.15048567499997,244.25081428124997,65.0,50.0
380,244.21134073124998,244.31824826249996,66.0,45.0
381,244.28041944374996,244.37581385624998,68.0,46.0
382,244.3445639625,244.43008998749997,70.0,49.0
383,244.40212955624997,244.48765558124998,72.0,57.0
384,244.46133988124998,244.55180009999998,73.0,55.0
385,244.52383966874999,244.61923408124997,75.0,65.0
386,244.58798418749998,244.6998259125,77.0,61.0
387,244.66364182499998,244.77383881874997,78.0,51.0
388,244.74258892499998,244.84291753124998,80.0,53.0
389,244.81166763749997,244.91035151249997,82.0,50.0
390,244.87910161874998,244.98600914999997,84.0,48.0
391,244.94982506249997,245.06002205624998,85.0,48.0
392,245.02712743124997,245.13567969374998,87.0,55.0
393,245.10278506874997,245.21462679374997,89.0,57.0
394,245.18337689999998,245.29850808749998,90.0,58.0
395,245.27219238749998,245.37087626249996,92.0,62.0
396,245.35936314375,245.43337604999996,94.0,58.0
397,245.43831024374998,245.46627067499998,96.0,51.0
398,245.650480575,246.63731932499996,97.0,76.0
