,start,end,pitch,velocity
0,51.440614575,51.812323837499996,77.0,80.0
1,51.835350074999994,52.62811053749999,80.0,75.0
2,52.62482107499999,53.026135499999995,82.0,76.0
3,53.019556574999996,54.216920925,77.0,77.0
4,54.203763075,54.626459006249995,75.0,72.0
5,54.598498574999994,55.050799668749995,73.0,72.0
6,54.993234075,55.38796957499999,75.0,74.0
7,55.38796957499999,55.82546808749999,77.0,75.0
8,55.782705074999996,56.21526939374999,70.0,70.0
9,56.17744057499999,57.55901482499999,68.0,70.0
10,57.756382574999996,58.07874989999999,70.0,76.0
11,58.15111807499999,58.980062624999995,70.0,76.0
12,58.94058907499999,59.356706081249996,73.0,71.0
13,59.335324574999994,59.721836418749994,75.0,73.0
14,59.730060075,60.17907170624999,73.0,75.0
15,60.12479557499999,60.61328075624999,80.0,69.0
16,60.519531074999996,61.31393626874999,82.0,73.0
17,61.309002074999995,63.57215227499999,77.0,75.0
18,64.072150575,64.4372809125,80.0,68.0
19,64.46688607499999,65.29418589375,82.0,75.0
20,65.256357075,65.67740827499999,85.0,76.0
21,65.65109257499999,66.81885176249999,82.0,75.0
22,66.835299075,67.27444231874999,77.0,79.0
23,67.23003457499999,67.6576647,80.0,75.0
24,67.62477007499999,68.07213697499999,77.0,77.0
25,68.019505575,68.45371462499999,80.0,68.0
26,68.41424107499999,68.848450125,82.0,70.0
27,68.80897657499999,70.1675245875,73.0,75.0
28,70.38791857499999,70.72837794374999,70.0,75.0
29,70.782654075,71.17245538124999,73.0,71.0
30,71.17738957499999,71.59021711874999,75.0,74.0
31,71.57212507499999,71.9997552,80.0,72.0
32,71.966860575,72.76948942499999,77.0,75.0
33,72.75633157499999,73.53099999374999,75.0,75.0
34,73.545802575,75.94217600625,73.0,71.0
35,76.70368657499999,77.39447369999999,80.0,70.0
36,77.493157575,77.85335371874999,80.0,76.0
37,77.887893075,78.26947072499999,77.0,79.0
38,78.28262857499999,78.6477589125,80.0,73.0
39,78.67736407499999,79.1477572125,82.0,73.0
40,79.072099575,79.45861141875,85.0,76.0
41,79.46683507499999,79.8944652,84.0,77.0
42,79.86157057499999,81.30728934374999,82.0,75.0
43,82.22998357499999,82.60498229999999,80.0,78.0
44,82.62471907499999,83.032612425,82.0,77.0
45,83.019454575,84.09181935,77.0,79.0
46,84.20366107499999,84.5161600125,80.0,68.0
47,84.598396575,85.00793465624999,73.0,76.0
48,84.99313207499999,85.42240693125,70.0,75.0
49,85.38786757499999,85.80398458124999,73.0,76.0
50,85.782603075,86.22996997499999,80.0,73.0
51,86.177338575,86.98161215625,77.0,73.0
52,86.96680957499998,88.28917349999999,75.0,75.0
53,89.33522257499999,89.99311507499999,75.0,76.0
54,90.124693575,90.5358763875,75.0,76.0
55,90.51942907499999,90.953638125,73.0,75.0
56,90.91416457499999,91.29903168749999,75.0,75.0
57,91.308900075,91.75626697499999,77.0,75.0
58,91.70363557499999,92.0753448375,80.0,75.0
59,92.09837107499999,92.51777754374999,77.0,76.0
60,92.49310657499998,93.80066791875,75.0,73.0
61,94.86151957499999,95.14605808124999,75.0,73.0
62,95.25625507499998,95.55888562499999,77.0,79.0
63,95.650990575,95.99473940624999,80.0,76.0
64,96.04572607499999,96.7463815875,77.0,75.0
65,96.835197075,97.1838801,75.0,76.0
66,97.22993257499999,97.59341818124999,70.0,75.0
67,97.62466807499999,98.07696916875,68.0,75.0
68,98.01940357499998,98.35986294374999,75.0,76.0
69,98.414139075,98.82696661874999,77.0,73.0
70,98.80887457499999,101.75623297499999,73.0,74.0
71,155.65078657499998,156.02249583749997,77.0,80.0
72,156.04552207499998,156.8382825375,80.0,75.0
73,156.83499307499997,157.23630749999998,82.0,76.0
74,157.229728575,158.42709292499998,77.0,77.0
75,158.41393507499998,158.83663100624997,75.0,72.0
76,158.80867057499998,159.26097166875,73.0,72.0
77,159.20340607499998,159.59814157499997,75.0,74.0
78,159.59814157499997,160.03564008749998,77.0,75.0
79,159.992877075,160.42544139375,70.0,70.0
80,160.387612575,161.769186825,68.0,70.0
81,161.96655457499998,162.2889219,70.0,76.0
82,162.36129007499997,163.190234625,70.0,76.0
83,163.150761075,163.56687808125,73.0,71.0
84,163.545496575,163.93200841874997,75.0,73.0
85,163.94023207499998,164.38924370624997,73.0,75.0
86,164.33496757499998,164.82345275625,80.0,69.0
87,164.72970307499997,165.52410826874998,82.0,73.0
88,165.519174075,167.78232427499998,77.0,75.0
89,168.282322575,168.64745291249997,80.0,68.0
90,168.677058075,169.50435789374998,82.0,75.0
91,169.46652907499998,169.88758027499998,85.0,76.0
92,169.86126457499998,171.02902376249997,82.0,75.0
93,171.045471075,171.48461431874998,77.0,79.0
94,171.440206575,171.86783669999997,80.0,75.0
95,171.834942075,172.28230897499998,77.0,77.0
96,172.22967757499998,172.66388662499998,80.0,68.0
97,172.62441307499998,173.05862212499997,82.0,70.0
98,173.01914857499997,174.37769658749997,73.0,75.0
99,174.598090575,174.93854994375,70.0,75.0
100,174.99282607499998,175.38262738125,73.0,71.0
101,175.38756157499998,175.80038911875,75.0,74.0
102,175.78229707499997,176.20992719999998,80.0,72.0
103,176.17703257499997,176.979661425,77.0,75.0
104,176.966503575,177.74117199375,75.0,75.0
105,177.75597457499998,180.15234800624998,73.0,71.0
106,180.91385857499998,181.6046457,80.0,70.0
107,181.70332957499997,182.06352571875,80.0,76.0
108,182.098065075,182.479642725,77.0,79.0
109,182.492800575,182.8579309125,80.0,73.0
110,182.88753607499999,183.35792921249998,82.0,73.0
111,183.28227157499998,183.66878341875,85.0,76.0
112,183.67700707499998,184.10463719999998,84.0,77.0
113,184.07174257499997,185.51746134374997,82.0,75.0
114,186.44015557499998,186.8151543,80.0,78.0
115,186.83489107499997,187.24278442499997,82.0,77.0
116,187.22962657499997,188.30199134999998,77.0,79.0
117,188.41383307499999,188.7263320125,80.0,68.0
118,188.80856857499998,189.21810665624997,73.0,76.0
119,189.20330407499998,189.63257893124998,70.0,75.0
120,189.59803957499997,190.01415658124998,73.0,76.0
121,189.99277507499997,190.440141975,80.0,73.0
122,190.387510575,191.19178415624998,77.0,73.0
123,191.17698157499999,192.49934549999998,75.0,75.0
124,193.545394575,194.203287075,75.0,76.0
125,194.33486557499998,194.74604838749997,75.0,76.0
126,194.72960107499998,195.16381012499997,73.0,75.0
127,195.12433657499997,195.5092036875,75.0,75.0
128,195.51907207499997,195.966438975,77.0,75.0
129,195.913807575,196.28551683749998,80.0,75.0
130,196.308543075,196.72794954375,77.0,76.0
131,196.70327857499998,198.01083991874998,75.0,73.0
132,199.071691575,199.35623008124998,75.0,73.0
133,199.46642707499998,199.769057625,77.0,79.0
134,199.86116257499998,200.20491140624998,80.0,76.0
135,200.25589807499998,200.95655358749997,77.0,75.0
136,201.04536907499997,201.39405209999998,75.0,76.0
137,201.440104575,201.80359018124997,70.0,75.0
138,201.834840075,202.28714116874997,68.0,75.0
139,202.22957557499998,202.57003494375,75.0,76.0
140,202.62431107499998,203.03713861875,77.0,73.0
141,203.01904657499998,205.966404975,73.0,74.0
