,start,end,pitch,velocity
0,0.9046021874999999,2.91281904375,65.0,52.0
1,0.8157866999999999,2.9161085062499996,61.0,48.0
2,0.8667733687499999,3.2351863687499995,49.0,59.0
3,3.9424208062499995,5.152943006249999,56.0,53.0
4,4.042749412499999,5.972019168749999,63.0,44.0
5,4.00492059375,5.99833486875,60.0,54.0
6,4.021367906249999,6.187478962499999,44.0,60.0
7,7.03451555625,8.942403806249999,54.0,52.0
8,7.113462656249999,9.013127249999998,58.0,56.0
9,7.149646743749999,9.12332424375,42.0,68.0
10,7.2072123375,9.124968975,61.0,50.0
11,10.259833537499999,10.89963399375,56.0,50.0
12,10.35522795,12.6052203,63.0,57.0
13,11.182527768749999,12.68581213125,56.0,58.0
14,10.763121299999998,12.746667187499998,51.0,44.0
15,10.366741068749999,12.92923235625,44.0,70.0
16,13.332191512499998,14.146333481249998,56.0,57.0
17,13.532848725,14.245017356249999,68.0,65.0
18,13.437454312499998,14.345345962499998,63.0,63.0
19,14.736791999999998,15.633170531249998,63.0,56.0
20,14.345345962499998,15.756525374999999,56.0,66.0
21,13.912781643749998,15.809156774999998,51.0,44.0
22,13.478572593749998,15.955537856249999,44.0,73.0
23,16.66277229375,16.8256006875,37.0,65.0
24,16.503233362499998,16.83053488125,56.0,56.0
25,16.6084961625,17.245007156249997,61.0,62.0
26,16.721982618749998,17.46869060625,65.0,68.0
27,17.874939225,18.373292793749997,63.0,59.0
28,17.52461146875,18.927567224999997,56.0,63.0
29,18.29105623125,18.965396043749998,65.0,57.0
30,17.1282312375,18.980198625,49.0,63.0
31,19.703880374999997,20.32723351875,61.0,54.0
32,20.2071681375,21.649597443749997,49.0,50.0
33,20.62657460625,21.9209781,61.0,47.0
34,19.7729590875,22.149595743749998,66.0,57.0
35,21.781175943749997,22.366700268749998,49.0,64.0
36,19.866708768749998,22.386437043749996,70.0,63.0
37,19.809143175,22.48183145625,42.0,70.0
38,22.166043056249997,22.647949312499996,61.0,73.0
39,22.5690022125,22.91932996875,66.0,76.0
40,22.83051448125,23.340381168749996,56.0,61.0
41,22.991698143749996,23.549262037499997,68.0,71.0
42,22.897948462499997,23.57064354375,60.0,64.0
43,22.968671906249998,23.575577737499998,63.0,60.0
44,23.78116914375,24.669324018749997,56.0,66.0
45,23.376565256249997,24.693994987499998,51.0,50.0
46,22.953869325,24.72360015,44.0,73.0
47,24.55090336875,25.531163193749997,68.0,69.0
48,24.89958639375,25.536097387499996,56.0,64.0
49,24.151233674999997,25.541031581249996,63.0,71.0
50,26.177542574999997,26.429186456249997,56.0,68.0
51,26.177542574999997,26.652869906249997,37.0,73.0
52,26.177542574999997,27.004842393749996,65.0,76.0
53,26.572278074999996,27.024579168749998,56.0,62.0
54,26.967013574999996,27.36339380625,61.0,73.0
55,27.361749075,28.128193837499996,65.0,77.0
56,28.545955574999997,28.728520743749996,61.0,75.0
57,28.151220074999998,28.878191287499998,56.0,70.0
58,27.756484574999998,28.927533224999998,49.0,59.0
59,28.545955574999997,29.031151293749996,65.0,77.0
60,28.940691074999997,29.417663137499996,61.0,77.0
61,29.335426574999996,29.86667476875,66.0,71.0
62,30.124897575,30.677527274999996,54.0,75.0
63,30.519633074999998,30.939039543749995,58.0,75.0
64,30.914368574999997,31.4637088125,61.0,74.0
65,31.309104074999997,31.784431406249997,54.0,60.0
66,29.730162074999996,32.019627975,49.0,64.0
67,29.335426574999996,32.106798731249995,42.0,72.0
68,31.703839574999996,32.161074862499994,66.0,76.0
69,32.098575075,32.2202851875,54.0,77.0
70,32.493310574999995,33.1676503875,58.0,65.0
71,32.493310574999995,33.3156762,63.0,67.0
72,33.282781574999994,33.963700312499995,66.0,75.0
73,33.677517075,34.14955494375,58.0,75.0
74,34.07225257499999,34.463698612499996,63.0,72.0
75,34.466988074999996,34.702184643749995,58.0,45.0
76,32.888046075,34.9735653,46.0,60.0
77,32.493310574999995,34.983433687499996,39.0,76.0
78,34.861723575,34.990012612499996,58.0,75.0
79,34.861723575,35.221919718749994,66.0,75.0
80,34.861723575,35.2400117625,63.0,76.0
81,35.256459074999995,35.35678768125,58.0,73.0
82,35.651194575,36.105140399999996,53.0,74.0
83,35.651194575,36.460402349999995,56.0,72.0
84,36.045930074999994,36.590336118749995,48.0,62.0
85,35.651194575,36.6084281625,41.0,77.0
86,36.440665575,36.665993756249996,53.0,78.0
87,37.230136574999996,37.67585874375,58.0,67.0
88,37.230136574999996,38.016318112499995,61.0,70.0
89,37.230136574999996,38.35348801875,46.0,76.0
90,37.624872075,38.35677748125,53.0,72.0
91,38.019607574999995,38.46861920625,58.0,79.0
92,38.414343075,38.85677578124999,61.0,81.0
93,38.809078574999994,39.64624678125,63.0,72.0
94,39.59854957499999,40.088679487499995,58.0,74.0
95,40.388020575,40.896242531249996,66.0,57.0
96,39.993285074999996,40.963676512499994,63.0,77.0
97,39.203814075,41.190649425,46.0,59.0
98,38.809078574999994,41.23012297499999,39.0,77.0
99,40.782756074999995,41.286043837499996,58.0,59.0
100,41.177491575,41.555779762499995,63.0,75.0
101,41.572227074999994,41.71860815625,66.0,77.0
102,41.966962575,43.11334025625,56.0,68.0
103,41.966962575,43.164326925,60.0,69.0
104,42.756433574999996,43.20544520625,63.0,73.0
105,43.151169075,43.684062,68.0,76.0
106,43.545904574999994,44.312349337499995,56.0,69.0
107,43.940640075,44.407743749999995,63.0,71.0
108,42.36169807499999,44.49491450625,51.0,70.0
109,41.966962575,44.531098593749995,44.0,75.0
110,44.33537557499999,44.73504526874999,68.0,75.0
111,44.730111074999996,45.19557001875,56.0,82.0
112,45.12484657499999,45.399516693749995,37.0,71.0
113,45.519582074999995,45.896225531249996,56.0,65.0
114,45.12484657499999,45.927475425,61.0,75.0
115,45.914317575,46.32056619375,65.0,72.0
116,46.703788575,47.15280020624999,61.0,68.0
117,46.703788575,47.318918062499996,68.0,66.0
118,47.493259574999996,47.6610221625,61.0,67.0
119,47.09852407499999,47.77779808125,56.0,53.0
120,46.309053074999994,47.82714001874999,49.0,59.0
121,47.493259574999996,47.965297443749996,65.0,71.0
122,47.88799507499999,48.690623925,61.0,58.0
123,49.072201574999994,49.534371056249995,65.0,75.0
124,49.466937075,50.69226185624999,61.0,75.0
125,50.256408074999996,50.693906587499995,65.0,63.0
126,49.86167257499999,50.71528809375,68.0,66.0
127,48.677466075,50.725156481249996,44.0,51.0
128,48.282730574999995,50.78436680624999,37.0,73.0
129,50.65114357499999,50.79752465625,73.0,76.0
130,51.440614575,51.651140174999995,56.0,73.0
131,51.440614575,52.253111812499995,61.0,70.0
132,51.835350074999994,52.307387943749994,56.0,67.0
133,52.230085575,52.585347524999996,65.0,70.0
134,52.62482107499999,53.47185766875,61.0,60.0
135,53.019556574999996,53.65442283749999,68.0,70.0
136,53.41429207499999,53.65771229999999,56.0,66.0
137,51.440614575,53.89619833125,49.0,75.0
138,53.809027574999995,53.932382418749995,61.0,76.0
139,54.598498574999994,55.4241536625,58.0,68.0
140,54.993234075,55.802441849999994,49.0,62.0
141,54.598498574999994,55.81066550625,42.0,76.0
142,54.598498574999994,55.86000744374999,54.0,65.0
143,55.38796957499999,55.87974421874999,61.0,69.0
144,55.782705074999996,55.950467662499996,58.0,68.0
145,56.17744057499999,56.644544249999996,53.0,70.0
146,56.17744057499999,57.02941136249999,56.0,70.0
147,56.17744057499999,57.0557270625,41.0,77.0
148,56.572176074999994,57.0623059875,48.0,63.0
149,56.966911575,57.10671373125,53.0,67.0
150,57.756382574999996,58.2629598,58.0,66.0
151,57.756382574999996,58.59519551249999,61.0,68.0
152,58.545853574999995,58.792563262499996,58.0,76.0
153,57.756382574999996,59.08532542499999,46.0,75.0
154,58.15111807499999,59.473482,53.0,67.0
155,59.335324574999994,59.76130996874999,56.0,67.0
156,59.335324574999994,60.180716437499996,60.0,68.0
157,60.12479557499999,60.409334081249995,63.0,69.0
158,59.335324574999994,60.447162899999995,44.0,63.0
159,59.730060075,60.49650483749999,53.0,63.0
160,60.91426657499999,61.57709326874999,61.0,70.0
161,61.309002074999995,61.98498661874999,56.0,72.0
162,61.70373757499999,62.183999099999994,63.0,75.0
163,62.098473074999994,62.506366424999996,65.0,75.0
164,62.493208575,63.01787784374999,68.0,75.0
165,62.88794407499999,63.11656171874999,56.0,69.0
166,63.282679574999996,63.429060656249995,56.0,76.0
167,60.91426657499999,63.611625825,49.0,71.0
168,63.282679574999996,63.72511228124999,65.0,76.0
169,63.67741507499999,63.828730349999994,56.0,76.0
170,64.072150575,64.85668738125,54.0,66.0
171,64.072150575,64.8945162,58.0,65.0
172,65.256357075,65.63464526249999,58.0,71.0
173,64.86162157499999,65.79253946249999,61.0,75.0
174,65.65109257499999,66.13628829375,66.0,75.0
175,66.04582807499999,66.54747110624999,54.0,64.0
176,66.440563575,66.664247025,61.0,66.0
177,64.46688607499999,66.82378595624999,49.0,64.0
178,64.072150575,66.86654896875,42.0,76.0
179,67.23003457499999,67.68233566875,60.0,68.0
180,67.23003457499999,68.0524002,65.0,73.0
181,67.62477007499999,68.1017421375,48.0,63.0
182,67.23003457499999,68.10503159999999,41.0,76.0
183,68.019505575,68.48496451874999,60.0,77.0
184,68.41424107499999,68.545819575,65.0,75.0
185,68.80897657499999,69.30733014375,58.0,64.0
186,68.80897657499999,69.63627639375,61.0,67.0
187,69.598447575,69.95699898749999,58.0,77.0
188,68.80897657499999,69.99482780624999,46.0,75.0
189,69.203712075,70.01127511874999,53.0,66.0
190,70.38791857499999,71.60337496874999,66.0,69.0
191,70.782654075,71.82541368749999,54.0,67.0
192,70.38791857499999,71.86817669999999,51.0,77.0
193,71.17738957499999,72.01784724375,58.0,76.0
194,71.57212507499999,72.74481845624999,63.0,75.0
195,71.966860575,73.2990928875,44.0,74.0
196,72.361596075,73.32211912499999,51.0,75.0
197,72.75633157499999,73.4898817125,56.0,79.0
198,73.15106707499999,73.60665763124999,63.0,75.0
199,73.545802575,74.27112905624999,61.0,77.0
200,74.33527357499999,74.81553509999999,56.0,77.0
201,74.730009075,75.17902070624999,63.0,73.0
202,75.51948007499999,75.75796610625,56.0,68.0
203,75.124744575,75.79250546249999,65.0,75.0
204,75.91421557499999,76.13625429375,56.0,76.0
205,73.545802575,76.22342504999999,49.0,77.0
206,73.94053807499999,76.22835924374999,53.0,65.0
207,75.91421557499999,76.3418457,61.0,70.0
208,76.70368657499999,77.12638250625,56.0,75.0
209,76.70368657499999,77.34513176249999,61.0,74.0
210,77.29578982499999,77.53756531875,56.0,71.0
211,77.493157575,77.74973564999999,63.0,75.0
212,77.690525325,77.93559028124999,61.0,72.0
213,77.887893075,78.31716793125,56.0,78.0
214,78.28262857499999,78.703679775,65.0,77.0
215,78.67736407499999,78.87637655625,56.0,74.0
216,77.09842207499999,79.1674939875,44.0,59.0
217,76.70368657499999,79.22505958125,37.0,75.0
218,79.072099575,79.29084883124999,61.0,77.0
219,79.072099575,79.31387506875,56.0,79.0
220,79.46683507499999,79.81716283124999,60.0,80.0
221,79.86157057499999,80.41091081249999,58.0,72.0
222,79.86157057499999,80.55893662499999,61.0,76.0
223,80.651041575,80.8845934125,58.0,81.0
224,80.84840932499999,81.09511901249999,60.0,78.0
225,81.04577707499999,81.28426310625,61.0,78.0
226,79.86157057499999,81.33031558124999,46.0,75.0
227,80.256306075,81.35663128124999,53.0,69.0
228,81.44051257499999,81.835248075,58.0,70.0
229,81.44051257499999,81.87801108749998,65.0,77.0
230,82.032615825,82.14774701249999,58.0,72.0
231,81.835248075,82.32702271874999,53.0,67.0
232,82.22998357499999,82.46024594999999,61.0,82.0
233,82.42735132499999,82.6082717625,53.0,75.0
234,81.44051257499999,82.65103477499999,46.0,76.0
235,82.62471907499999,82.73162660624999,60.0,82.0
236,83.019454575,83.45366362499999,54.0,70.0
237,83.019454575,83.82372815625,58.0,69.0
238,83.80892557499999,84.22504258125,54.0,77.0
239,84.00629332499999,84.2628714,58.0,75.0
240,83.019454575,84.28096344375,42.0,76.0
241,83.414190075,84.3253711875,49.0,64.0
242,84.401028825,84.63622539375,54.0,69.0
243,84.20366107499999,84.72175141874999,61.0,67.0
244,84.99313207499999,85.27767058124999,53.0,73.0
245,85.19049982499999,85.43720951249999,56.0,75.0
246,85.38786757499999,85.51286714999999,60.0,77.0
247,84.795764325,85.69214285624999,48.0,65.0
248,84.598396575,85.71516909374999,41.0,80.0
249,85.782603075,86.02108910624999,41.0,77.0
250,86.177338575,86.97832269374999,58.0,69.0
251,86.177338575,87.02108570624999,63.0,71.0
252,86.57207407499999,87.21351926249999,46.0,56.0
253,86.177338575,87.27437431874999,39.0,77.0
254,86.96680957499998,87.36318980624999,66.0,81.0
255,87.361545075,87.47503153125,58.0,78.0
256,87.75628057499999,88.1543055375,56.0,70.0
257,87.75628057499999,88.34673909374999,60.0,74.0
258,88.34838382499998,88.55726469374999,56.0,75.0
259,88.545751575,88.80726384375,63.0,76.0
260,88.743119325,88.95200019375,56.0,76.0
261,87.75628057499999,89.10331546875,44.0,76.0
262,88.15101607499999,89.11976278124999,51.0,67.0
263,88.940487075,89.17074944999999,68.0,75.0
264,89.33522257499999,89.56055075625,58.0,75.0
265,89.72995807499998,90.14278561875,58.0,76.0
266,89.33522257499999,90.14936454375,63.0,74.0
267,89.33522257499999,90.27765358125,51.0,72.0
268,90.124693575,90.60659983125,66.0,81.0
269,90.51942907499999,90.66909961875,58.0,76.0
270,90.91416457499999,91.48488631874999,60.0,70.0
271,90.91416457499999,91.5260046,65.0,75.0
272,91.70363557499999,91.87139816249999,60.0,75.0
273,91.308900075,91.87962181875,48.0,58.0
274,90.91416457499999,91.91251644375,41.0,78.0
275,91.70363557499999,92.07370010624999,65.0,77.0
276,91.70363557499999,92.0819237625,68.0,73.0
277,92.49310657499998,92.71350056249999,58.0,66.0
278,92.887842075,93.28093284375,58.0,64.0
279,92.49310657499998,93.2858670375,63.0,71.0
280,93.28257757499999,94.085206425,66.0,75.0
281,92.49310657499998,94.14441674999999,51.0,76.0
282,93.67731307499999,94.15264040624999,58.0,76.0
283,94.072048575,94.5161260125,63.0,70.0
284,94.46678407499999,94.79408559375,58.0,70.0
285,94.86151957499999,95.2200709875,66.0,76.0
286,94.86151957499999,95.23816303125,63.0,76.0
287,95.25625507499998,95.36645206875,58.0,70.0
288,95.650990575,96.41250114374999,56.0,70.0
289,95.650990575,96.43388264999999,60.0,75.0
290,96.44046157499999,96.78092094374999,63.0,72.0
291,96.63782932499998,97.1082224625,56.0,77.0
292,96.835197075,97.14769601249999,60.0,75.0
293,97.032564825,97.28749816874999,63.0,76.0
294,97.22993257499999,97.82368055625,68.0,75.0
295,97.62466807499999,98.15098207499999,56.0,70.0
296,98.01940357499998,98.400981225,60.0,76.0
297,95.650990575,98.5029545625,44.0,76.0
298,96.04572607499999,98.50624402499999,51.0,65.0
299,98.01940357499998,98.66907241874999,63.0,75.0
300,98.414139075,98.67894080625,56.0,73.0
301,98.80887457499999,98.97663716249998,56.0,73.0
302,98.80887457499999,99.38288578125,61.0,71.0
303,99.20361007499999,99.65262170624999,56.0,69.0
304,99.598345575,100.0555808625,63.0,76.0
305,99.99308107499999,100.23814603125,56.0,76.0
306,100.38781657499999,100.59176324999999,56.0,76.0
307,100.38781657499999,100.88123594999999,61.0,76.0
308,100.38781657499999,100.9174200375,65.0,77.0
309,100.78255207499998,101.00294606249999,56.0,65.0
310,98.80887457499999,101.32531338749999,49.0,77.0
311,101.177287575,101.37136586249999,56.0,77.0
312,101.177287575,101.37136586249999,61.0,75.0
313,101.96675857499999,102.78090054375,63.0,71.0
314,101.96675857499999,102.80392678124998,56.0,71.0
315,102.75622957499999,103.28254357499999,60.0,70.0
316,103.15096507499999,104.0095147875,63.0,68.0
317,103.54570057499998,104.05392253125,68.0,71.0
318,103.940436075,104.41411867499998,56.0,65.0
319,104.33517157499999,104.64273631875,60.0,69.0
320,101.96675857499999,104.69536771874999,44.0,77.0
321,102.361494075,104.77595955,51.0,66.0
322,105.124642575,105.66575915624999,58.0,64.0
323,105.124642575,105.84503486249999,61.0,69.0
324,105.91411357499999,106.23319143749998,60.0,67.0
325,106.30884907499998,106.71838715624999,61.0,76.0
326,106.703584575,107.14272781874999,65.0,80.0
327,107.09832007499999,107.30226674999999,58.0,68.0
328,107.49305557499999,107.71180483124999,61.0,68.0
329,107.49305557499999,107.716739025,58.0,67.0
330,105.51937807499999,107.75456784375,53.0,65.0
331,105.124642575,107.80062031874999,46.0,74.0
332,108.28252657499999,108.69699884999999,58.0,65.0
333,108.28252657499999,109.14601048124999,66.0,73.0
334,109.07199757499998,109.64600878124999,58.0,70.0
335,109.466733075,109.94206040625,61.0,78.0
336,109.86146857499999,110.60653183125,66.0,75.0
337,108.67726207499999,110.7397550625,49.0,65.0
338,108.28252657499999,110.75126818124998,42.0,75.0
339,110.650939575,110.7529129125,61.0,76.0
340,110.25620407499999,110.75455764374999,58.0,62.0
341,111.44041057499999,111.9502772625,60.0,68.0
342,111.44041057499999,112.33843383749999,68.0,66.0
343,112.229881575,112.74632718749999,60.0,76.0
344,112.62461707499999,113.07691816874998,65.0,81.0
345,113.414088075,113.64435044999999,60.0,66.0
346,113.01935257499998,113.65750829999999,68.0,75.0
347,113.80882357499999,114.00290186249998,65.0,82.0
348,113.80882357499999,114.05553326249999,60.0,79.0
349,111.83514607499998,114.15586186875,48.0,66.0
350,111.44041057499999,114.19862488124998,41.0,77.0
351,114.20355907499999,114.41243994374999,63.0,75.0
352,114.59829457499998,114.8976356625,58.0,66.0
353,114.59829457499998,115.38612084374999,61.0,72.0
354,114.993030075,115.57197547499999,53.0,75.0
355,115.38776557499999,116.23315743749998,58.0,76.0
356,115.78250107499998,116.35980174374998,53.0,72.0
357,116.177236575,116.64269551874999,65.0,76.0
358,116.177236575,116.64927444374999,61.0,75.0
359,116.57197207499999,117.02427316874999,53.0,59.0
360,116.96670757499999,117.17065424999998,58.0,76.0
361,114.59829457499998,117.22164091874998,46.0,76.0
362,116.96670757499999,117.31374586874999,61.0,84.0
363,117.16407532499998,117.32196952499999,53.0,77.0
364,117.36144307499998,117.72163921874998,58.0,76.0
365,117.558810825,118.25782160624999,61.0,76.0
366,118.54564957499998,119.02755583124998,54.0,76.0
367,118.74301732499998,119.03084529374999,58.0,72.0
368,118.940385075,119.18051583749998,61.0,76.0
369,118.15091407499999,119.43709391249999,49.0,68.0
370,119.33512057499999,119.58511972499998,54.0,77.0
371,119.13775282499999,119.87952661874999,66.0,81.0
372,119.92722382499998,120.19038082499999,58.0,67.0
373,119.53248832499999,120.29564362499998,49.0,74.0
374,119.72985607499999,120.30551201249999,54.0,71.0
375,120.12459157499998,120.40090642499999,61.0,73.0
376,117.75617857499999,120.53741911875,42.0,77.0
377,120.91406257499999,121.67063894999998,56.0,70.0
378,120.91406257499999,121.74136239375,60.0,71.0
379,121.703533575,121.90419078749999,63.0,68.0
380,121.90090132499999,122.24465015624999,56.0,75.0
381,122.09826907499999,122.34497876249999,63.0,75.0
382,122.49300457499999,122.74464845624999,56.0,77.0
383,122.29563682499999,122.756161575,68.0,76.0
384,121.30879807499998,123.00451599374999,51.0,70.0
385,122.88774007499998,123.20846266874999,56.0,75.0
386,122.69037232499998,123.35648848124998,63.0,72.0
387,123.28247557499999,123.71175043124998,56.0,76.0
388,123.085107825,123.80878957499999,51.0,74.0
389,120.91406257499999,123.8581315125,44.0,76.0
390,123.67721107499999,124.0423414125,63.0,73.0
391,124.07194657499998,124.26273539999998,56.0,71.0
392,124.07194657499998,124.87457542499999,61.0,71.0
393,124.466682075,124.9041805875,56.0,71.0
394,124.86141757499999,125.57358620624998,65.0,75.0
395,125.25615307499999,125.76108556874999,56.0,71.0
396,125.65088857499998,126.13608429374999,63.0,70.0
397,126.04562407499999,126.545622375,65.0,73.0
398,124.07194657499998,127.03246282499998,49.0,76.0
399,126.44035957499999,127.20844906874999,61.0,69.0
400,126.83509507499998,127.23805423124999,56.0,66.0
401,127.229830575,127.23805423124999,56.0,75.0
402,127.229830575,127.87127576249999,61.0,74.0
403,127.82193382499999,128.06370931875,56.0,71.0
404,128.019301575,128.27587964999998,63.0,75.0
405,128.216669325,128.46173428125,61.0,72.0
406,128.41403707499998,128.84331193124999,56.0,78.0
407,128.80877257499998,129.229823775,65.0,77.0
408,129.20350807499997,129.40252055624998,56.0,74.0
409,127.62456607499999,129.69363798749998,44.0,59.0
410,127.229830575,129.75120358125,37.0,75.0
411,129.598243575,129.81699283125,61.0,77.0
412,129.598243575,129.84001906875,56.0,79.0
413,129.992979075,130.34330683124998,60.0,80.0
414,130.387714575,130.93705481249998,58.0,72.0
415,130.387714575,131.085080625,61.0,76.0
416,131.17718557499998,131.4107374125,58.0,81.0
417,131.374553325,131.62126301249998,60.0,78.0
418,131.57192107499998,131.81040710624998,61.0,78.0
419,130.387714575,131.85645958125,46.0,75.0
420,130.78245007499999,131.88277528125,53.0,69.0
421,131.96665657499997,132.361392075,58.0,70.0
422,131.96665657499997,132.4041550875,65.0,77.0
423,132.55875982499998,132.67389101249998,58.0,72.0
424,132.361392075,132.85316671874997,53.0,67.0
425,132.756127575,132.98638995,61.0,82.0
426,132.95349532499998,133.1344157625,53.0,75.0
427,131.96665657499997,133.177178775,46.0,76.0
428,133.150863075,133.25777060624998,60.0,82.0
429,133.54559857499999,133.97980762499998,54.0,70.0
430,133.54559857499999,134.34987215625,58.0,69.0
431,134.33506957499998,134.75118658124998,54.0,77.0
432,134.532437325,134.78901539999998,58.0,75.0
433,133.54559857499999,134.80710744375,42.0,76.0
434,133.94033407499998,134.85151518749998,49.0,64.0
435,134.92717282499999,135.16236939375,54.0,69.0
436,134.72980507499997,135.24789541874998,61.0,67.0
437,135.519276075,135.80381458124998,53.0,73.0
438,135.71664382499998,135.9633535125,56.0,75.0
439,135.914011575,136.03901115,60.0,77.0
440,135.32190832499998,136.21828685625,48.0,65.0
441,135.124540575,136.24131309375,41.0,80.0
442,136.30874707499999,136.54723310625,41.0,77.0
443,136.70348257499998,137.50446669374998,58.0,69.0
444,136.70348257499998,137.54722970625,63.0,71.0
445,137.09821807499998,137.7396632625,46.0,56.0
446,136.70348257499998,137.80051831875,39.0,77.0
447,137.49295357499997,137.88933380625,66.0,81.0
448,137.887689075,138.00117553125,58.0,78.0
449,138.282424575,138.68044953749998,56.0,70.0
450,138.282424575,138.87288309374998,60.0,74.0
451,138.87452782499997,139.08340869375,56.0,75.0
452,139.07189557499999,139.33340784375,63.0,76.0
453,139.269263325,139.47814419374998,56.0,76.0
454,138.282424575,139.62945946874999,44.0,76.0
455,138.677160075,139.64590678124998,51.0,67.0
456,139.46663107499998,139.69689344999998,68.0,75.0
457,139.86136657499998,140.08669475624998,58.0,75.0
458,140.25610207499997,140.66892961874998,58.0,76.0
459,139.86136657499998,140.67550854375,63.0,74.0
460,139.86136657499998,140.80379758125,51.0,72.0
461,140.650837575,141.13274383125,66.0,81.0
462,141.045573075,141.19524361875,58.0,76.0
463,141.440308575,142.01103031875,60.0,70.0
464,141.440308575,142.05214859999998,65.0,75.0
465,142.22977957499998,142.39754216249997,60.0,75.0
466,141.83504407499998,142.40576581874998,48.0,58.0
467,141.440308575,142.43866044375,41.0,78.0
468,142.22977957499998,142.59984410624998,65.0,77.0
469,142.22977957499998,142.60806776249999,68.0,73.0
470,143.01925057499997,143.2396445625,58.0,66.0
471,143.413986075,143.80707684375,58.0,64.0
472,143.01925057499997,143.81201103749999,63.0,71.0
473,143.808721575,144.61135042499998,66.0,75.0
474,143.01925057499997,144.67056075,51.0,76.0
475,144.203457075,144.67878440624997,58.0,76.0
476,144.59819257499998,145.04227001249998,63.0,70.0
477,144.99292807499998,145.32022959374999,58.0,70.0
478,145.38766357499998,145.7462149875,66.0,76.0
479,145.38766357499998,145.76430703124998,63.0,76.0
480,145.78239907499997,145.89259606874998,58.0,70.0
481,146.177134575,146.93864514375,56.0,70.0
482,146.177134575,146.96002664999997,60.0,75.0
483,146.966605575,147.30706494375,63.0,72.0
484,147.16397332499997,147.6343664625,56.0,77.0
485,147.36134107499998,147.6738400125,60.0,75.0
486,147.558708825,147.81364216875,63.0,76.0
487,147.75607657499998,148.34982455624998,68.0,75.0
488,148.15081207499998,148.677126075,56.0,70.0
489,148.54554757499997,148.927125225,60.0,76.0
490,146.177134575,149.0290985625,44.0,76.0
491,146.571870075,149.032388025,51.0,65.0
492,148.54554757499997,149.19521641875,63.0,75.0
493,148.940283075,149.20508480625,56.0,73.0
494,149.335018575,149.50278116249999,56.0,73.0
495,149.335018575,149.90902978124998,61.0,71.0
496,149.729754075,150.17876570624998,56.0,69.0
497,150.12448957499998,150.58172486249998,63.0,76.0
498,150.51922507499998,150.76429003125,56.0,76.0
499,150.91396057499998,151.11790724999997,56.0,76.0
500,150.91396057499998,151.40737994999998,61.0,76.0
501,150.91396057499998,151.44356403749998,65.0,77.0
502,151.30869607499997,151.5290900625,56.0,65.0
503,149.335018575,151.85145738749998,49.0,77.0
504,151.703431575,151.8975098625,56.0,77.0
505,151.703431575,151.8975098625,61.0,75.0
506,152.492902575,153.1606634625,61.0,72.0
507,152.88763807499998,153.53730691874998,56.0,69.0
508,153.28237357499998,153.7725034875,61.0,72.0
509,153.67710907499998,154.05868672499997,70.0,76.0
510,154.07184457499997,154.20177834375,68.0,75.0
511,154.466580075,154.63598739374999,65.0,65.0
512,154.861315575,155.08993321875,63.0,63.0
513,155.256051075,155.6474971125,61.0,70.0
514,152.492902575,155.68532593125,49.0,72.0
515,155.65078657499998,155.68532593125,49.0,75.0
516,155.65078657499998,155.861312175,56.0,73.0
517,155.65078657499998,156.46328381249998,61.0,70.0
518,156.04552207499998,156.51755994374997,56.0,67.0
519,156.44025757499998,156.79551952499997,65.0,70.0
520,156.83499307499997,157.68202966874998,61.0,60.0
521,157.229728575,157.8645948375,68.0,70.0
522,157.624464075,157.8678843,56.0,66.0
523,158.019199575,158.14255441875,61.0,76.0
524,158.80867057499998,159.63432566249998,58.0,68.0
525,159.20340607499998,160.01261384999998,49.0,62.0
526,158.80867057499998,160.02083750625,42.0,76.0
527,158.80867057499998,160.07017944375,54.0,65.0
528,159.59814157499997,160.08991621874998,61.0,69.0
529,159.992877075,160.1606396625,58.0,68.0
530,160.387612575,160.85471625,53.0,70.0
531,160.387612575,161.23958336249999,56.0,70.0
532,160.387612575,161.26589906249998,41.0,77.0
533,160.782348075,161.2724779875,48.0,63.0
534,161.17708357499998,161.31688573124998,53.0,67.0
535,161.96655457499998,162.47313179999998,58.0,66.0
536,161.96655457499998,162.80536751249997,61.0,68.0
537,162.756025575,163.00273526249998,58.0,76.0
538,161.96655457499998,163.29549742499998,46.0,75.0
539,162.36129007499997,163.683654,53.0,67.0
540,163.545496575,163.97148196874997,56.0,67.0
541,163.545496575,164.3908884375,60.0,68.0
542,164.33496757499998,164.61950608125,63.0,69.0
543,163.545496575,164.6573349,44.0,63.0
544,163.94023207499998,164.7066768375,53.0,63.0
545,165.12443857499997,165.78726526875,61.0,70.0
546,165.519174075,166.19515861874999,56.0,72.0
547,165.913909575,166.3941711,63.0,75.0
548,166.308645075,166.71653842499998,65.0,75.0
549,166.70338057499998,167.22804984374997,68.0,75.0
550,167.09811607499998,167.32673371874998,56.0,69.0
551,167.49285157499997,167.63923265625,56.0,76.0
552,165.12443857499997,167.82179782499998,49.0,71.0
553,167.49285157499997,167.93528428124998,65.0,76.0
554,167.88758707499997,168.03890234999997,56.0,76.0
555,168.282322575,169.06685938124997,54.0,66.0
556,168.282322575,169.10468819999997,58.0,65.0
557,169.46652907499998,169.8448172625,58.0,71.0
558,169.071793575,170.00271146249997,61.0,75.0
559,169.86126457499998,170.34646029374997,66.0,75.0
560,170.25600007499997,170.75764310625,54.0,64.0
561,170.65073557499997,170.87441902499998,61.0,66.0
562,168.677058075,171.03395795625,49.0,64.0
563,168.282322575,171.07672096874998,42.0,76.0
564,171.440206575,171.89250766874997,60.0,68.0
565,171.440206575,172.2625722,65.0,73.0
566,171.834942075,172.3119141375,48.0,63.0
567,171.440206575,172.3152036,41.0,76.0
568,172.22967757499998,172.69513651875,60.0,77.0
569,172.62441307499998,172.755991575,65.0,75.0
570,173.01914857499997,173.51750214375,58.0,64.0
571,173.01914857499997,173.84644839375,61.0,67.0
572,173.808619575,174.1671709875,58.0,77.0
573,173.01914857499997,174.20499980625,46.0,75.0
574,173.41388407499997,174.22144711874998,53.0,66.0
575,174.598090575,175.81354696875,66.0,69.0
576,174.99282607499998,176.03558568749997,54.0,67.0
577,174.598090575,176.0783487,51.0,77.0
578,175.38756157499998,176.22801924374997,58.0,76.0
579,175.78229707499997,176.95499045625,63.0,75.0
580,176.17703257499997,177.5092648875,44.0,74.0
581,176.571768075,177.53229112499997,51.0,75.0
582,176.966503575,177.7000537125,56.0,79.0
583,177.361239075,177.81682963125,63.0,75.0
584,177.75597457499998,178.48130105624998,61.0,77.0
585,178.54544557499997,179.02570709999998,56.0,77.0
586,178.94018107499997,179.38919270625,63.0,73.0
587,179.729652075,179.96813810625,56.0,68.0
588,179.334916575,180.00267746249997,65.0,75.0
589,180.124387575,180.34642629374997,56.0,76.0
590,177.75597457499998,180.43359704999997,49.0,77.0
591,178.15071007499998,180.43853124375,53.0,65.0
592,180.124387575,180.5520177,61.0,70.0
593,180.91385857499998,181.33655450625,56.0,75.0
594,180.91385857499998,181.5553037625,61.0,74.0
595,181.50596182499999,181.74773731874998,56.0,71.0
596,181.70332957499997,181.95990765,63.0,75.0
597,181.90069732499998,182.14576228124997,61.0,72.0
598,182.098065075,182.52733993124997,56.0,78.0
599,182.492800575,182.91385177499998,65.0,77.0
600,182.88753607499999,183.08654855625,56.0,74.0
601,181.30859407499997,183.3776659875,44.0,59.0
602,180.91385857499998,183.43523158124998,37.0,75.0
603,183.28227157499998,183.50102083124997,61.0,77.0
604,183.28227157499998,183.52404706874998,56.0,79.0
605,183.67700707499998,184.02733483125,60.0,80.0
606,184.07174257499997,184.6210828125,58.0,72.0
607,184.07174257499997,184.76910862499997,61.0,76.0
608,184.861213575,185.09476541249998,58.0,81.0
609,185.05858132499998,185.3052910125,60.0,78.0
610,185.255949075,185.49443510625,61.0,78.0
611,184.07174257499997,185.54048758124998,46.0,75.0
612,184.46647807499997,185.56680328124997,53.0,69.0
613,185.65068457499999,186.04542007499998,58.0,70.0
614,185.65068457499999,186.08818308749997,65.0,77.0
615,186.242787825,186.3579190125,58.0,72.0
616,186.04542007499998,186.53719471875,53.0,67.0
617,186.44015557499998,186.67041794999997,61.0,82.0
618,186.637523325,186.81844376249998,53.0,75.0
619,185.65068457499999,186.86120677499997,46.0,76.0
620,186.83489107499997,186.94179860625,60.0,82.0
621,187.22962657499997,187.663835625,54.0,70.0
622,187.22962657499997,188.03390015624998,58.0,69.0
623,188.019097575,188.43521458125,54.0,77.0
624,188.21646532499997,188.4730434,58.0,75.0
625,187.22962657499997,188.49113544374998,42.0,76.0
626,187.624362075,188.53554318749997,49.0,64.0
627,188.61120082499997,188.84639739374998,54.0,69.0
628,188.41383307499999,188.93192341875,61.0,67.0
629,189.20330407499998,189.48784258125,53.0,73.0
630,189.400671825,189.64738151249998,56.0,75.0
631,189.59803957499997,189.72303914999998,60.0,77.0
632,189.005936325,189.90231485624997,48.0,65.0
633,188.80856857499998,189.92534109374998,41.0,80.0
634,189.99277507499997,190.23126110624997,41.0,77.0
635,190.387510575,191.18849469375,58.0,69.0
636,190.387510575,191.23125770624998,63.0,71.0
637,190.782246075,191.42369126249997,46.0,56.0
638,190.387510575,191.48454631874998,39.0,77.0
639,191.17698157499999,191.57336180624998,66.0,81.0
640,191.57171707499998,191.68520353124998,58.0,78.0
641,191.96645257499998,192.3644775375,56.0,70.0
642,191.96645257499998,192.55691109375,60.0,74.0
643,192.55855582499998,192.76743669374997,56.0,75.0
644,192.75592357499997,193.01743584374998,63.0,76.0
645,192.95329132499998,193.16217219374997,56.0,76.0
646,191.96645257499998,193.31348746874997,44.0,76.0
647,192.36118807499997,193.32993478125,51.0,67.0
648,193.150659075,193.38092145,68.0,75.0
649,193.545394575,193.77072275625,58.0,75.0
650,193.94013007499998,194.35295761874997,58.0,76.0
651,193.545394575,194.35953654374998,63.0,74.0
652,193.545394575,194.48782558124998,51.0,72.0
653,194.33486557499998,194.81677183124998,66.0,81.0
654,194.72960107499998,194.87927161874998,58.0,76.0
655,195.12433657499997,195.69505831874997,60.0,70.0
656,195.12433657499997,195.7361766,65.0,75.0
657,195.913807575,196.0815701625,60.0,75.0
658,195.51907207499997,196.08979381874997,48.0,58.0
659,195.12433657499997,196.12268844374998,41.0,78.0
660,195.913807575,196.28387210625,65.0,77.0
661,195.913807575,196.29209576249997,68.0,73.0
662,196.70327857499998,196.92367256249997,58.0,66.0
663,197.09801407499998,197.49110484374998,58.0,64.0
664,196.70327857499998,197.49603903749997,63.0,71.0
665,197.49274957499998,198.29537842499997,66.0,75.0
666,196.70327857499998,198.35458874999998,51.0,76.0
667,197.88748507499997,198.36281240625,58.0,76.0
668,198.28222057499997,198.72629801249997,63.0,70.0
669,198.676956075,199.00425759374997,58.0,70.0
670,199.071691575,199.43024298749998,66.0,76.0
671,199.071691575,199.44833503124997,63.0,76.0
672,199.46642707499998,199.57662406875,58.0,70.0
673,199.86116257499998,200.62267314374998,56.0,70.0
674,199.86116257499998,200.64405465,60.0,75.0
675,200.65063357499997,200.99109294374998,63.0,72.0
676,200.84800132499998,201.31839446249998,56.0,77.0
677,201.04536907499997,201.35786801249998,60.0,75.0
678,201.24273682499998,201.49767016874998,63.0,76.0
679,201.440104575,202.03385255624997,68.0,75.0
680,201.834840075,202.36115407499997,56.0,70.0
681,202.22957557499998,202.61115322499998,60.0,76.0
682,199.86116257499998,202.71312656249998,44.0,76.0
683,200.25589807499998,202.71641602499997,51.0,65.0
684,202.22957557499998,202.87924441874998,63.0,75.0
685,202.62431107499998,202.88911280624998,56.0,73.0
686,203.01904657499998,203.18680916249997,56.0,73.0
687,203.01904657499998,203.59305778124997,61.0,71.0
688,203.41378207499997,203.86279370625,56.0,69.0
689,203.80851757499997,204.2657528625,63.0,76.0
690,204.203253075,204.44831803124998,56.0,76.0
691,204.597988575,204.80193524999999,56.0,76.0
692,204.597988575,205.09140795,61.0,76.0
693,204.597988575,205.1275920375,65.0,77.0
694,204.99272407499998,205.21311806249997,56.0,65.0
695,203.01904657499998,205.5354853875,49.0,77.0
696,205.38745957499998,205.58153786249997,56.0,77.0
697,205.38745957499998,205.58153786249997,61.0,75.0
698,206.17693057499997,206.69831038124997,61.0,70.0
699,206.57166607499997,207.06179598749998,56.0,68.0
700,206.966401575,207.81014870624998,61.0,75.0
701,207.361137075,207.81672763125,56.0,62.0
702,207.75587257499998,208.28054184374997,65.0,77.0
703,208.15060807499998,208.6012644375,56.0,64.0
704,208.54534357499998,208.69830358124997,61.0,71.0
705,206.17693057499997,209.22626231249998,49.0,75.0
706,208.94007907499997,209.36935393124998,60.0,67.0
707,209.33481457499997,209.88579954374998,58.0,66.0
708,209.33481457499997,210.06836471249997,61.0,71.0
709,209.729550075,210.29040343124998,53.0,63.0
710,210.124285575,210.67362581249998,58.0,71.0
711,210.91375657499998,211.68020133749997,58.0,72.0
712,210.91375657499998,211.71474069374997,65.0,74.0
713,209.33481457499997,211.93513468125,46.0,75.0
714,210.51902107499998,211.95816091874997,53.0,65.0
715,211.70322757499997,212.13085769999998,61.0,78.0
716,212.09796307499997,212.30684394374998,58.0,70.0
717,212.492698575,212.59302718124997,56.0,61.0
718,212.492698575,213.07164397499997,54.0,63.0
719,212.492698575,213.34302463125,61.0,56.0
720,213.28216957499998,213.75749690624997,54.0,74.0
721,212.492698575,213.88085174999998,42.0,72.0
722,212.887434075,213.93348314999997,49.0,61.0
723,213.67690507499998,213.96473304375,61.0,71.0
724,214.07164057499998,214.52887586249997,53.0,67.0
725,214.07164057499998,214.85782211249997,56.0,61.0
726,214.07164057499998,214.94663759999997,41.0,76.0
727,214.46637607499997,214.966374375,48.0,68.0
728,214.86111157499997,215.04861093749997,53.0,79.0
729,216.04531807499998,216.48775078124999,58.0,58.0
730,215.650582575,216.50584282499997,51.0,71.0
731,215.650582575,216.56669788124998,63.0,74.0
732,216.44005357499998,216.84794692499997,66.0,67.0
733,216.83478907499997,217.29531382499997,58.0,70.0
734,217.22952457499997,218.00748245625,63.0,71.0
735,217.22952457499997,218.29531042499997,44.0,75.0
736,218.018995575,218.2985998875,56.0,76.0
737,217.62426007499997,218.35781021249997,51.0,70.0
738,218.80846657499998,219.61602961875,66.0,71.0
739,219.20320207499998,219.67523994374997,58.0,65.0
740,218.80846657499998,219.72458188124997,51.0,71.0
741,219.59793757499997,220.07984383124997,63.0,69.0
742,219.99267307499997,220.1867513625,58.0,70.0
743,220.38740857499997,220.88082794999997,65.0,71.0
744,220.38740857499997,221.23115570624998,53.0,74.0
745,220.782144075,221.24266882499998,60.0,66.0
746,221.176879575,221.58806238749997,68.0,71.0
747,221.96635057499998,222.19332348749998,58.0,63.0
748,222.36108607499997,222.80516351249997,58.0,62.0
749,221.96635057499998,222.81667663124998,63.0,68.0
750,222.75582157499997,223.49101644374997,66.0,68.0
751,223.15055707499997,223.60943709375,58.0,66.0
752,223.545292575,223.90384398749998,63.0,67.0
753,223.940028075,224.38410551249999,58.0,60.0
754,221.96635057499998,224.56502594999998,51.0,73.0
755,224.33476357499998,224.71798595624998,66.0,76.0
756,224.72949907499998,224.8512091875,58.0,78.0
757,225.12423457499997,225.78048234374998,56.0,67.0
758,225.12423457499997,225.88903460624996,63.0,67.0
759,225.91370557499997,226.33804623749998,60.0,66.0
760,226.308441075,226.73278173749998,56.0,76.0
761,226.703176575,227.53047639374998,63.0,70.0
762,227.09791207499998,227.54527897499997,56.0,69.0
763,225.12423457499997,227.65547596874998,44.0,75.0
764,225.51897007499997,227.65712069999998,51.0,63.0
765,227.49264757499998,227.72290994999997,68.0,71.0
766,228.28211857499997,228.85941924374998,61.0,70.0
767,228.67685407499997,229.111063125,56.0,72.0
768,229.071589575,229.52718013125,63.0,69.0
769,229.466325075,229.94987606249998,56.0,64.0
770,230.25579607499998,230.78046534374997,56.0,70.0
771,230.65053157499997,231.33802923749997,61.0,71.0
772,231.04526707499997,231.35118708749997,56.0,68.0
773,229.86106057499998,231.36105547499997,65.0,70.0
774,228.28211857499997,231.42848945625,49.0,71.0
775,233.41368007499997,233.85282331874998,56.0,44.0
776,232.229473575,233.98769128124997,63.0,59.0
777,231.834738075,234.18999322499997,51.0,47.0
778,231.44000257499997,234.41532140624997,44.0,75.0
779,233.80841557499997,234.92354336249997,68.0,71.0
780,234.20315107499997,235.11926638125,56.0,76.0
781,235.78209307499998,236.30347288124997,68.0,66.0
782,235.38735757499998,236.6011692375,63.0,68.0
783,234.99262207499999,237.40215335624998,51.0,55.0
784,234.597886575,237.51728454374998,44.0,71.0
785,237.75577057499999,238.24261102499997,56.0,66.0
786,237.75577057499999,238.58635985624997,63.0,66.0
787,238.54524157499998,239.38898870625,56.0,64.0
788,238.93997707499997,239.59951430624997,63.0,71.0
789,238.15050607499998,240.53536638749998,51.0,59.0
790,237.75577057499999,240.56990574374998,44.0,70.0
791,239.72944807499997,241.29194276249999,56.0,61.0
792,239.33471257499997,241.33141631249998,68.0,71.0
793,240.124183575,241.74095439374997,63.0,60.0
794,240.91365457499998,242.41364947499997,44.0,74.0
795,241.30839007499998,242.41693893749996,51.0,66.0
796,241.70312557499997,242.558385825,56.0,68.0
797,242.49259657499996,243.17022584999998,68.0,68.0
798,242.09786107499997,243.24917294999997,63.0,64.0
799,244.41857686874997,244.93502248124997,51.0,57.0
800,243.99259147499998,245.00574592499999,44.0,73.0
801,244.83140441249998,245.15048227499997,63.0,63.0
802,246.24422855624996,246.97448923124998,56.0,63.0
803,246.55343803124998,247.00080493124997,65.0,67.0
804,246.90212105624997,247.10935719375,68.0,68.0
805,247.30836967499997,247.68501313124997,73.0,65.0
806,247.71461829374996,247.86593356874997,77.0,71.0
807,245.95146639374997,249.50079643124997,44.0,53.0
808,245.59784917499996,249.62250654374998,37.0,75.0
809,248.40705014999998,249.71132203124998,77.0,44.0
810,248.5024445625,249.73105880624996,85.0,64.0
811,248.47612886249996,249.7327035375,80.0,62.0
