,start,end,pitch,velocity
0,14.538848,15.704984766666666,71.0,112.0
1,16.356203999999998,16.808649920833332,70.0,97.0
2,16.810543,17.3159951375,71.0,90.0
3,17.264882,17.846057304166667,73.0,88.0
4,18.17356,18.6108612875,70.0,97.0
5,18.627899,20.532336641666667,66.0,93.0
6,21.808272,22.8078178,71.0,95.0
7,23.625628,23.871728291666667,70.0,100.0
8,24.079967,24.240878729166667,71.0,92.0
9,24.3071365,24.774727054166664,73.0,112.0
10,24.988644999999998,25.123053620833332,66.0,92.0
11,25.442984,26.576938420833333,75.0,100.0
12,28.169017999999998,28.56467154583333,75.0,107.0
13,28.623357,28.952752774999997,78.0,117.0
14,29.077696,29.4411672,78.0,122.0
15,29.532034999999997,29.641833591666664,71.0,89.0
16,29.986373999999998,30.249512004166665,71.0,112.0
17,30.2135435,30.317662854166667,73.0,97.0
18,30.667882499999997,31.451617274999997,73.0,107.0
19,31.803729999999998,31.921100908333333,70.0,107.0
20,32.258069,32.50984852916667,78.0,122.0
21,32.712407999999996,33.08345151666666,78.0,127.0
22,33.166747,33.3200864125,71.0,122.0
23,33.621086,33.76496001666666,71.0,117.0
24,34.075424999999996,34.20415438333333,70.0,100.0
25,34.3025945,35.2851025875,71.0,127.0
26,35.438441999999995,35.676969975,73.0,122.0
27,35.6656115,35.870064049999996,74.0,100.0
28,35.892781,36.4834217,73.0,99.0
29,36.801459,37.121389379166665,71.0,107.0
30,37.028628499999996,37.30501805833333,75.0,99.0
31,37.4829675,38.66614197916667,73.0,93.0
32,39.527493,39.745197104166664,68.0,95.0
33,39.981832,40.833717625,71.0,99.0
34,41.344848999999996,41.515226125,73.0,102.0
35,41.799188,43.12055725833333,73.0,127.0
36,43.616544,44.33023484583333,71.0,97.0
37,45.433899999999994,45.63078023333333,70.0,97.0
38,45.888239,46.02075454166666,71.0,95.0
39,46.1154085,46.41262192916666,73.0,107.0
40,46.5697475,46.938897937499995,66.0,99.0
41,47.251256,48.23187100833333,75.0,122.0
42,50.885968,52.2319472875,71.0,100.0
43,52.703323999999995,52.975927399999996,70.0,93.0
44,53.157663,53.29775085833333,71.0,96.0
45,53.384832499999995,53.892177716666666,73.0,107.0
46,54.066340999999994,54.367340587499996,66.0,100.0
47,54.52068,55.065886799999994,76.0,127.0
48,55.42935799999999,56.2755643875,78.0,127.0
49,56.338035999999995,56.98357599583333,75.0,122.0
50,57.246714,57.5647513,75.0,117.0
51,57.701052999999995,57.97744255833333,78.0,117.0
52,58.155392,58.47153622083333,78.0,117.0
53,58.609731,58.870975924999996,71.0,102.0
54,59.064069999999994,59.34992495416666,71.0,112.0
55,59.291239499999996,59.62442143333333,73.0,127.0
56,59.972747999999996,60.76405509166666,73.0,122.0
57,60.881426,61.26004183333333,71.0,100.0
58,61.335764999999995,61.67841232916666,78.0,122.0
59,61.790104,62.11571361666666,78.0,127.0
60,62.244443,62.38831701666666,71.0,107.0
61,62.698781999999994,62.7896498,71.0,112.0
62,62.9259515,63.103900941666666,70.0,100.0
63,63.380290499999994,64.14509448333332,71.0,117.0
64,64.516138,64.75655905416666,74.0,127.0
65,64.7433075,65.09731330416666,73.0,102.0
66,65.19764649999999,65.32826896249999,71.0,89.0
67,65.42481599999999,65.89051347499999,75.0,127.0
68,66.1063245,67.04718484583333,73.0,122.0
69,68.605189,68.75474225416666,68.0,100.0
70,69.059528,69.82433198333332,75.0,127.0
71,70.422545,70.70272071666666,76.0,117.0
72,70.87688399999999,71.29146833749999,75.0,127.0
73,71.331223,72.3818819375,73.0,96.0
74,72.69424,73.05013888333333,78.0,127.0
75,73.148579,73.29055993749999,78.0,112.0
76,73.3757485,73.81494286666667,78.0,122.0
77,74.05725699999999,74.159483275,78.0,107.0
78,74.2844265,74.68954544166667,78.0,127.0
79,74.965935,75.1874252625,76.0,117.0
80,75.19310449999999,75.63419194583332,75.0,93.0
81,75.6474435,76.16236103333333,73.0,93.0
82,76.328952,77.23763,73.0,107.0
83,77.691969,77.90967310416666,73.0,117.0
84,77.9191385,78.19363497916666,71.0,76.0
85,78.14630799999999,79.01333825833333,75.0,117.0
86,79.963664,80.22682170833333,78.0,100.0
87,80.41479149999999,80.51817488541666,78.0,102.0
88,80.64035525,81.07456546875,78.0,100.0
89,81.31704649999999,81.39411411458333,78.0,112.0
90,81.54261025,81.95426409375,78.0,122.0
91,82.2193015,82.37155703124999,76.0,107.0
92,82.44486524999999,82.80576724999999,75.0,96.0
93,82.89599274999999,83.14411287499999,73.0,102.0
94,83.572684,83.97158063333333,73.0,127.0
95,84.45503599999999,84.87599143333333,78.0,127.0
96,85.0892265,85.5083437,75.0,122.0
97,86.21974,86.53591613333333,73.0,117.0
98,86.660916,86.9090775,75.0,117.0
99,84.45503599999999,87.29326826666666,50.0,1.0
100,87.102092,87.52488566666666,71.0,127.0
101,87.984444,88.56532573333332,75.0,127.0
102,88.866796,89.54326586666666,70.0,127.0
103,89.52856,89.65723633333333,66.0,86.0
104,89.74914799999999,90.36004982291666,66.0,102.0
105,90.65140299999999,91.06117714583333,68.0,99.0
106,91.10253049999999,91.42019944791666,70.0,95.0
107,91.55365799999998,91.89952241666666,71.0,112.0
108,92.0047855,92.48410846875,73.0,107.0
109,92.9070405,93.56681446875,71.0,107.0
110,94.03485925,94.17395689583333,66.0,93.0
111,94.26042299999999,94.57433255208332,76.0,122.0
112,94.71155049999999,94.81681358333333,76.0,117.0
113,94.93711425,95.15891860416666,75.0,112.0
114,95.38824174999999,95.83936924999999,73.0,117.0
115,96.064933,96.85252642708332,71.0,102.0
116,97.64387925,97.76605961458333,66.0,99.0
117,97.86944299999999,98.15327738541666,76.0,122.0
118,98.32057049999999,98.45026965624999,76.0,117.0
119,98.54613425,98.7378634375,75.0,127.0
120,98.99726174999999,99.18711123958332,71.0,102.0
121,99.44838924999999,101.17768369166664,78.0,127.0
122,101.46499699999998,101.73738494166665,78.0,127.0
123,101.91275799999998,102.01350422499998,78.0,107.0
124,102.13663849999999,102.48738461666665,78.0,107.0
125,102.80827999999998,102.96686202083332,78.0,127.0
126,103.25604099999998,103.50230954999998,78.0,127.0
127,103.70380199999998,103.84372731249998,76.0,122.0
128,103.92768249999999,104.36798081666664,75.0,107.0
129,104.37544349999999,104.72432394583332,73.0,127.0
130,105.04708499999998,105.45566691249998,73.0,122.0
131,105.94260699999998,106.39783068333331,73.0,127.0
132,106.39036799999998,106.53029331249998,71.0,86.0
133,106.61424849999999,107.61611373749999,75.0,127.0
134,108.62917299999998,108.87730722083332,78.0,127.0
135,109.07693399999998,109.17021754166664,78.0,102.0
136,109.30081449999999,109.71685909583331,78.0,127.0
137,109.97245599999998,110.14409771666665,78.0,117.0
138,110.42021699999998,110.70753030833332,78.0,127.0
139,110.86797799999998,110.97805257916664,76.0,122.0
140,111.09185849999999,111.42394790833332,75.0,127.0
141,111.53961949999999,111.87544024999998,73.0,117.0
142,112.21126099999998,112.78961895833332,73.0,112.0
143,113.10678299999998,113.68140961666666,78.0,127.0
144,113.77842449999999,114.69633454999999,75.0,107.0
145,114.89782699999998,115.21125969999999,73.0,117.0
146,115.34558799999998,115.59185654999999,75.0,122.0
147,115.79334899999998,116.51536361249998,71.0,117.0
148,116.68887099999998,117.26536328749998,75.0,127.0
149,117.58439299999998,118.24297480416665,70.0,117.0
150,118.47991499999998,118.93140734166664,66.0,107.0
151,119.37543699999998,119.77282488749998,68.0,112.0
152,119.82319799999999,119.92580989583331,71.0,117.0
153,120.04707849999998,120.34931717499998,71.0,122.0
154,120.49483949999998,121.03028702916666,73.0,100.0
155,121.16648099999998,122.51349534166665,71.0,102.0
156,122.73364449999998,122.87916682499998,68.0,96.0
157,122.95752499999998,123.58625607083331,76.0,112.0
158,123.85304699999998,124.39595721249998,75.0,112.0
159,124.74856899999997,125.26909116249999,73.0,117.0
160,126.31573249999998,126.48737421666665,71.0,95.0
161,126.76349349999998,128.87729855416666,71.0,96.0
162,139.03711699999997,139.74047490416663,71.0,97.0
163,140.82816099999997,141.02219076666663,70.0,97.0
164,141.27592199999998,141.4065189583333,71.0,95.0
165,141.49980249999996,141.7927128208333,73.0,107.0
166,141.94756349999997,142.31136931249998,66.0,99.0
167,142.61920499999997,143.58562249166664,75.0,122.0
168,146.20129299999996,147.52778496249996,71.0,100.0
169,147.99233699999996,148.26099359999998,70.0,93.0
170,148.44009799999998,148.57815764166662,71.0,96.0
171,148.66397849999996,149.1639782833333,73.0,107.0
172,149.33561999999998,149.63226166249996,66.0,100.0
173,149.78338099999996,150.32069419999996,76.0,127.0
174,150.67890299999996,151.51285786249997,78.0,127.0
175,151.57442499999996,152.21061875416663,75.0,122.0
176,152.46994699999996,152.78337969999995,75.0,117.0
177,152.91770799999998,153.19009594166664,78.0,117.0
178,153.36546899999996,153.67703602916663,78.0,117.0
179,153.81322999999998,154.07069257499995,71.0,102.0
180,154.26099099999996,154.5427072958333,71.0,112.0
181,154.48487149999997,154.81322956666662,73.0,127.0
182,155.15651299999996,155.9363634083333,73.0,122.0
183,156.05203499999996,156.42516916666665,71.0,100.0
184,156.49979599999998,156.8374824208333,78.0,122.0
185,156.94755699999996,157.2684523833333,78.0,127.0
186,157.39531799999997,157.5371089833333,71.0,107.0
187,157.84307899999996,157.93263119999997,71.0,112.0
188,158.06695949999997,158.2423325583333,70.0,100.0
189,158.51472049999995,159.26845151666663,71.0,117.0
190,159.63412299999996,159.8710631958333,74.0,127.0
191,159.85800349999997,160.2068839458333,73.0,102.0
192,160.30576449999995,160.43449578749997,71.0,89.0
193,160.52964499999996,160.98860002499998,75.0,127.0
194,161.20128649999998,162.12852490416662,73.0,122.0
195,163.66397199999997,163.8113599958333,68.0,100.0
196,164.11173299999996,164.86546401666664,75.0,127.0
197,165.45501599999997,165.7311352833333,76.0,117.0
198,165.90277699999996,166.31135891249997,75.0,127.0
199,166.35053799999997,167.38598531249997,73.0,96.0
200,167.69382099999996,168.04456711666663,78.0,127.0
201,168.14158199999997,168.28150731249997,78.0,112.0
202,168.36546249999998,168.7982981333333,78.0,122.0
203,169.03710399999997,169.13785022499997,78.0,107.0
204,169.26098449999998,169.6602380583333,78.0,127.0
205,169.93262599999997,170.15090948749997,76.0,117.0
206,170.15650649999998,170.59120780416663,75.0,93.0
207,170.60426749999996,171.11172996666664,73.0,93.0
208,171.27590899999996,172.17143099999998,73.0,107.0
209,172.61919199999997,172.8337441458333,73.0,117.0
210,172.84307249999998,173.1135947708333,71.0,76.0
211,173.06695299999996,173.92143024166663,75.0,117.0
212,174.85799699999995,175.11919091666664,78.0,100.0
213,175.30575799999997,175.4083698958333,78.0,102.0
214,175.52963849999998,175.96060846249998,78.0,100.0
215,176.20127999999997,176.27777250416665,78.0,112.0
216,176.42516049999998,176.83374241249996,78.0,122.0
217,177.09680199999997,177.24792133749997,76.0,107.0
218,177.32068249999998,177.67889129999998,75.0,96.0
219,177.76844349999996,178.01471204999996,73.0,102.0
220,178.44008499999995,178.8449355708333,73.0,127.0
221,179.33560699999998,179.7628456208333,78.0,127.0
222,179.97926343749998,180.40463638749998,75.0,122.0
223,181.12665099999998,181.4475463833333,73.0,117.0
224,181.57441199999997,181.82627756249997,75.0,117.0
225,179.33560699999998,182.21620276666664,50.0,1.0
226,182.02217299999995,182.45127729166663,71.0,127.0
227,182.91769499999998,183.5072469833333,75.0,127.0
228,183.81321699999995,184.49978386666663,70.0,127.0
229,184.48485849999997,184.61545545833332,66.0,86.0
230,184.70873899999998,185.3150820208333,66.0,102.0
231,185.60426099999995,186.01097724166664,68.0,99.0
232,186.05202199999997,186.36732037083328,70.0,95.0
233,186.49978299999998,186.8430664333333,71.0,112.0
234,186.94754399999997,187.42329006249997,73.0,107.0
235,187.39530499999995,188.33933444166664,71.0,102.0
236,188.96246849999997,189.10052814166664,66.0,93.0
237,189.18634899999995,189.49791602916662,76.0,122.0
238,189.63410999999996,189.73858756666664,76.0,117.0
239,189.85799049999997,190.0781396583333,75.0,112.0
240,190.30575149999999,190.75351249999997,73.0,117.0
241,190.97739299999998,191.75910907916665,71.0,102.0
242,192.54455649999997,192.66582510416663,66.0,99.0
243,192.76843699999998,193.0501532958333,76.0,122.0
244,193.21619799999996,193.34492928749995,76.0,117.0
245,193.44007849999997,193.63037692499995,75.0,127.0
246,193.88783949999998,194.07627225416664,71.0,102.0
247,194.33560049999997,196.06321169166665,78.0,127.0
248,196.35052499999998,196.62291294166664,78.0,127.0
249,196.79828599999996,196.89903222499998,78.0,107.0
250,197.02216649999997,197.37291261666664,78.0,107.0
251,197.69380799999996,197.8523900208333,78.0,127.0
252,198.14156899999998,198.38783754999997,78.0,127.0
253,198.58932999999996,198.72925531249996,76.0,122.0
254,198.81321049999997,199.25350881666662,75.0,107.0
255,199.26097149999998,199.6098519458333,73.0,127.0
256,199.93261299999998,200.34119491249996,73.0,122.0
257,200.82813499999997,201.2833586833333,73.0,127.0
258,201.27589599999996,201.41582131249996,71.0,86.0
259,201.49977649999997,202.50164173749997,75.0,127.0
260,203.51470099999997,203.7628352208333,78.0,127.0
261,203.96246199999996,204.05574554166662,78.0,102.0
262,204.18634249999997,204.6023870958333,78.0,127.0
263,204.857984,205.02962571666663,78.0,117.0
264,205.30574499999997,205.5930583083333,78.0,127.0
265,205.75350599999996,205.86358057916664,76.0,122.0
266,205.97738649999997,206.3094759083333,75.0,127.0
267,206.42514749999998,206.76096824999996,73.0,117.0
268,207.09678899999997,207.6751469583333,73.0,112.0
269,207.99231099999997,208.56693761666662,78.0,127.0
270,208.66395249999997,209.58186254999998,75.0,107.0
271,209.78335499999997,210.09678769999996,73.0,117.0
272,210.231116,210.47738454999995,75.0,122.0
273,210.67887699999997,211.40089161249995,71.0,117.0
274,211.57439899999997,212.15089128749997,75.0,127.0
275,212.46992099999997,213.12850280416663,70.0,117.0
276,213.36544299999997,213.81693534166664,66.0,107.0
277,214.26096499999997,214.65835288749997,68.0,112.0
278,214.70872599999996,214.8113378958333,71.0,117.0
279,214.93260649999996,215.23484517499998,71.0,122.0
280,215.38036749999998,215.91581502916665,73.0,100.0
281,216.05200899999997,217.39902334166663,71.0,102.0
282,217.61917249999996,217.76469482499996,68.0,96.0
283,217.84305299999997,218.4717840708333,76.0,112.0
284,218.73857499999997,219.28148521249997,75.0,112.0
285,219.63409699999997,220.15461916249996,73.0,117.0
286,220.97737999999998,221.13036500833329,70.0,102.0
287,221.42514099999997,222.03708103333332,73.0,127.0
288,221.87290199999995,224.279617375,71.0,96.0
289,242.79711899999995,243.22370632291663,79.0,127.0
290,243.27330949999995,243.40426188749996,79.0,100.0
291,243.51140474999994,243.97172223333328,79.0,127.0
292,244.22569049999996,244.3110079645833,79.0,107.0
293,244.46378574999994,244.69196036458328,79.0,127.0
294,245.17807149999996,245.25346832916662,77.0,127.0
295,245.41616674999995,245.74751597291663,76.0,117.0
296,245.89235724999995,246.34473822499996,74.0,122.0
297,246.81212224999996,247.69522639999997,74.0,127.0
298,248.09522599999997,248.23226289999997,72.0,127.0
299,248.31744799999998,249.25448146041666,76.0,127.0
300,250.07228998749997,250.3535863145833,79.0,127.0
301,250.50075459166666,250.61066507708333,79.0,122.0
302,250.72989001041665,251.18816084791666,79.0,122.0
303,251.39680448124997,251.54024697916665,79.0,127.0
304,251.78242262499998,252.19039544375,79.0,112.0
305,252.28167703333332,252.45492576458332,77.0,127.0
306,252.4940464458333,252.87593881041664,76.0,112.0
307,252.90388215416664,253.5726595145833,74.0,127.0
308,253.68257,254.0868170395833,74.0,127.0
309,254.576757,255.00335871458333,79.0,127.0
310,255.21945390624998,255.64419273124997,76.0,122.0
311,256.36513099999996,256.68554800833334,74.0,117.0
312,256.81222449999996,257.06371459375,76.0,117.0
313,254.576757,257.45305851666666,51.0,1.0
314,257.259318,257.68778260416667,72.0,127.0
315,258.153505,258.7421781083333,76.0,127.0
316,259.047692,259.73323536666663,71.0,127.0
317,259.71833225,259.8487345208333,67.0,86.0
318,259.941879,260.54731811458333,67.0,102.0
319,260.83606599999996,261.24217592916665,69.0,99.0
320,261.2831595,261.5979878395833,71.0,95.0
321,261.730253,262.0730246833333,72.0,112.0
322,262.1773465,262.65238334375,74.0,107.0
323,262.62444,263.56706212916663,72.0,102.0
324,264.18926725,264.32712107916666,67.0,93.0
325,264.41281399999997,264.7239165604166,77.0,122.0
326,264.85990749999996,264.96422931666666,77.0,117.0
327,265.08345425,265.3032752208333,76.0,112.0
328,265.53054775,265.97764125,74.0,117.0
329,266.201188,266.9817387354166,72.0,102.0
330,267.76601525,267.88710307291666,67.0,99.0
331,267.989562,268.2708583270833,77.0,122.0
332,268.4366555,268.56519488124997,77.0,117.0
333,268.66020225,268.8502169875,76.0,127.0
334,269.10729575,269.2954475979167,72.0,102.0
335,269.55438925,271.2794250041666,79.0,127.0
336,271.56631,271.83829187916666,79.0,127.0
337,272.0134035,272.1139995375,79.0,107.0
338,272.23695025,272.58717349166665,79.0,107.0
339,272.90759049999997,273.06593611458334,79.0,127.0
340,273.35468399999996,273.60058542499996,79.0,127.0
341,273.80177749999996,273.94149421875,77.0,122.0
342,274.02532425,274.46496619166663,76.0,107.0
343,274.47241775,274.8207781020833,74.0,127.0
344,275.143058,275.55103081875,74.0,122.0
345,276.037245,276.4917900583333,74.0,127.0
346,276.4843385,276.62405521874996,72.0,86.0
347,276.70788525,277.70825695625,76.0,127.0
348,278.719806,278.9675703145833,79.0,127.0
349,279.1668995,279.26004397916665,79.0,102.0
350,279.39044624999997,279.8058706270833,79.0,127.0
351,280.0610865,280.23247234166666,79.0,117.0
352,280.50818,280.79506499583334,79.0,127.0
353,280.9552735,281.1043046666666,84.0,127.0
354,281.17882025,281.41168144791664,83.0,122.0
355,281.62591375,281.90721007708333,81.0,127.0
356,282.07300725,282.74923616875,79.0,127.0
357,284.979115,285.2734515541666,79.0,127.0
358,285.4262085,285.70936771666663,77.0,127.0
359,285.87330199999997,286.44707199166663,76.0,117.0
360,286.76748899999996,287.37479100416664,79.0,127.0
361,287.661676,288.43850095625,81.0,127.0
362,288.555863,289.1054154270833,79.0,127.0
363,289.45005,289.66055652291664,79.0,127.0
364,289.89714349999997,290.0648035625,76.0,102.0
365,290.12069025,290.5305259583333,74.0,127.0
366,290.56778375,290.78574183125,72.0,127.0
367,291.01487725,292.41390732708334,72.0,127.0
368,292.9262019625,293.3043685479166,67.0,79.0
369,293.31554588541667,294.03275837499996,77.0,107.0
370,294.22091022291664,295.00332384791665,76.0,95.0
371,295.1300003395833,296.64080379166666,74.0,93.0
372,297.07485706458334,297.27604913958334,72.0,99.0
373,297.57970014166665,298.39191999999997,72.0,95.0
374,299.15197895,299.5692662166667,72.0,90.0
375,299.50965375,299.87105432916667,74.0,88.0
376,299.88036877708333,300.26412403125,76.0,78.0
377,300.2361806875,302.73058983958333,81.0,99.0
378,303.63967995625,304.24698196041663,69.0,76.0
379,304.21903861666664,305.0498873708333,77.0,99.0
380,305.478351975,305.95897748749996,76.0,92.0
381,306.48990101875,307.56478830833333,74.0,100.0
382,308.7756665375,309.1966795833333,72.0,88.0
383,309.5878863958333,312.93549897708334,72.0,99.0
