,start,end,pitch,velocity
0,1.817356,3.399970183333333,66.0,78.0
1,1.817356,3.9527493,56.0,54.0
2,1.817356,4.2518558083333335,59.0,54.0
3,1.817356,4.774345658333333,40.0,52.0
4,1.817356,5.177571520833333,63.0,58.0
5,4.0890509999999995,5.190823075,56.0,41.0
6,4.54339,5.204074629166667,59.0,55.0
7,3.634712,5.2135400249999995,66.0,76.0
8,5.452068,6.2490543291666665,63.0,60.0
9,5.452068,6.6674248249999994,56.0,51.0
10,5.452068,6.752613387499999,44.0,45.0
11,6.360746,6.9532797791666665,63.0,66.0
12,5.452068,7.0365752624999995,59.0,52.0
13,6.815085,7.3091786625,56.0,47.0
14,7.269424,8.032334904166666,61.0,54.0
15,7.723763,8.369302995833333,49.0,41.0
16,7.269424,8.409057658333333,42.0,62.0
17,8.178101999999999,8.808497362499999,61.0,68.0
18,7.269424,8.821748916666666,58.0,51.0
19,9.08678,9.255264045833332,52.0,38.0
20,9.995458,10.275633716666666,52.0,58.0
21,9.08678,10.519840929166666,56.0,55.0
22,9.08678,10.718614241666666,40.0,56.0
23,9.541119,10.756475824999999,47.0,48.0
24,9.08678,10.7621550625,59.0,68.0
25,10.449797,10.807588962499999,52.0,48.0
26,10.904136,12.744208949999999,40.0,57.0
27,10.904136,14.211345304166667,55.0,85.0
28,10.904136,14.226489937499998,59.0,76.0
29,10.904136,14.235955333333333,52.0,65.0
30,14.538848,16.108210629166667,63.0,71.0
31,14.538848,16.1290345,39.0,58.0
32,14.538848,16.136606816666667,59.0,78.0
33,14.538848,16.14417913333333,56.0,74.0
34,16.356203999999998,17.817661116666667,61.0,90.0
35,16.356203999999998,17.986145162499998,39.0,66.0
36,16.356203999999998,18.022113666666666,58.0,93.0
37,18.17356,21.6776495375,63.0,83.0
38,18.17356,21.681435695833333,58.0,90.0
39,18.17356,21.6890080125,39.0,73.0
40,21.808272,23.56126330833333,63.0,75.0
41,21.808272,23.565049466666665,59.0,86.0
42,21.808272,23.585873337499997,56.0,72.0
43,21.808272,23.5972318125,40.0,67.0
44,23.625628,25.338864645833333,58.0,86.0
45,23.625628,25.35590235833333,61.0,79.0
46,23.625628,25.395657020833333,40.0,72.0
47,25.442984,28.114118704166664,44.0,78.0
48,25.442984,28.77480333333333,56.0,81.0
49,25.442984,28.78237565,59.0,93.0
50,25.442984,28.78237565,63.0,79.0
51,29.077696,29.842499983333333,52.0,72.0
52,29.077696,30.168109599999998,56.0,82.0
53,29.077696,30.811756516666666,59.0,67.0
54,29.077696,30.815542675,40.0,56.0
55,29.986373999999998,30.828794229166665,52.0,63.0
56,29.077696,30.828794229166665,63.0,66.0
57,30.440713,30.845831941666663,56.0,48.0
58,29.532034999999997,30.936699741666665,47.0,55.0
59,30.895052,31.756403020833332,56.0,76.0
60,30.895052,31.993037916666665,52.0,75.0
61,31.349390999999997,32.0252202625,47.0,48.0
62,30.895052,32.18991815,40.0,63.0
63,31.803729999999998,32.25049668333333,56.0,69.0
64,30.895052,32.26185515833333,63.0,71.0
65,30.895052,32.27889287083333,59.0,62.0
66,33.166747,33.68734377083333,46.0,58.0
67,32.712407999999996,33.702488404166665,39.0,65.0
68,32.712407999999996,33.759280779166666,54.0,71.0
69,33.621086,34.09624887083333,51.0,82.0
70,32.712407999999996,34.529764,58.0,69.0
71,32.712407999999996,34.53922939583333,61.0,76.0
72,34.075424999999996,34.55058787083333,54.0,70.0
73,34.984103,35.552026749999996,51.0,63.0
74,35.6656115,35.813271674999996,51.0,66.0
75,34.529764,35.8757432875,44.0,76.0
76,35.892781,36.2846483875,59.0,102.0
77,35.438441999999995,36.297899941666664,63.0,122.0
78,36.119950499999995,36.34901307916667,56.0,69.0
79,36.801459,37.7498916625,52.0,72.0
80,36.34712,37.92973418333333,45.0,95.0
81,37.255798,38.94631769583333,61.0,100.0
82,37.710136999999996,39.084512475,57.0,72.0
83,38.164476,39.41390825,45.0,59.0
84,39.527493,39.95722197083333,57.0,60.0
85,39.073153999999995,39.98561815833333,61.0,83.0
86,37.9373065,39.998869712499996,52.0,52.0
87,40.89051,41.41299985,54.0,74.0
88,41.799188,42.912318549999995,54.0,50.0
89,40.436170999999995,43.158418841666666,49.0,36.0
90,39.981832,43.2530728,42.0,71.0
91,43.162205,43.559751625,54.0,66.0
92,41.344848999999996,43.605185524999996,58.0,48.0
93,41.799188,43.62033015833333,61.0,70.0
94,44.070882999999995,44.6160898,52.0,86.0
95,44.2980525,44.72778147083333,56.0,65.0
96,44.752391499999995,44.93791325833333,52.0,82.0
97,43.616544,45.314636012499996,40.0,81.0
98,43.8437135,45.435793079166665,47.0,47.0
99,44.525222,45.51151624583333,64.0,76.0
100,44.979561,45.519088562499995,56.0,82.0
101,45.888239,46.57353365833333,49.0,60.0
102,45.433899999999994,46.660615299999996,42.0,79.0
103,46.342577999999996,47.21528749583333,61.0,100.0
104,46.796917,47.22664597083333,58.0,76.0
105,47.705594999999995,48.41171352916666,51.0,63.0
106,48.614273,49.238989124999996,51.0,47.0
107,48.159934,49.948893812499996,59.0,96.0
108,49.068611999999995,49.9716107625,58.0,77.0
109,49.522951,50.1590256,51.0,53.0
110,47.251256,50.32561656666667,44.0,90.0
111,49.977289999999996,50.96358424583333,63.0,99.0
112,50.2044595,50.984408116666664,59.0,75.0
113,50.431628999999994,50.988194275,56.0,83.0
114,51.340306999999996,52.012350104166664,47.0,69.0
115,50.885968,52.0274947375,40.0,79.0
116,52.248985,52.73550634583333,56.0,77.0
117,51.794646,52.77147485,59.0,99.0
118,53.157663,53.789951441666666,49.0,93.0
119,52.703323999999995,53.89975003333333,42.0,86.0
120,53.612002,54.4922838125,61.0,112.0
121,54.066340999999994,54.52068,58.0,95.0
122,55.42935799999999,56.56899165833333,47.0,102.0
123,54.975018999999996,56.815091949999996,42.0,67.0
124,54.52068,56.8832428,35.0,97.0
125,56.792375,57.19370778333333,47.0,85.0
126,56.338035999999995,57.82788930416666,59.0,112.0
127,56.338035999999995,57.833568541666665,63.0,112.0
128,55.883697,58.05505880416666,54.0,90.0
129,57.246714,58.17432279166666,46.0,77.0
130,59.064069999999994,59.393465774999996,52.0,95.0
131,58.155392,59.85159093333333,40.0,70.0
132,58.609731,59.98032031666666,47.0,59.0
133,59.518409,60.0579365625,56.0,83.0
134,60.427087,61.131312449999996,49.0,88.0
135,59.972747999999996,61.570506816666665,42.0,96.0
136,60.881426,61.710594674999996,61.0,93.0
137,61.335764999999995,61.78253168333333,54.0,69.0
138,60.881426,61.78253168333333,58.0,83.0
139,61.790104,62.66659965416666,47.0,112.0
140,62.244443,62.700675079166665,54.0,62.0
141,62.244443,63.28752962083333,63.0,89.0
142,62.244443,63.29320885833333,59.0,93.0
143,63.153121,63.61313923749999,58.0,97.0
144,62.698781999999994,63.626390791666665,46.0,100.0
145,64.061799,64.5786096125,51.0,66.0
146,63.607459999999996,64.63350890833333,44.0,69.0
147,64.516138,64.97804931666667,63.0,79.0
148,64.516138,64.97994239583333,59.0,90.0
149,65.42481599999999,66.2142300125,56.0,86.0
150,65.42481599999999,66.2596639125,53.0,95.0
151,65.879155,66.56823581666666,44.0,41.0
152,65.42481599999999,66.84841153333333,49.0,89.0
153,66.78783299999999,67.503416925,44.0,53.0
154,66.333494,68.02212061666667,56.0,66.0
155,66.333494,68.03537217083333,53.0,58.0
156,67.696511,68.29472401666666,44.0,55.0
157,65.42481599999999,68.3041894125,37.0,71.0
158,67.242172,68.32501328333333,49.0,78.0
159,68.605189,68.9970563875,49.0,62.0
160,68.15084999999999,69.00652178333333,53.0,100.0
161,68.15084999999999,69.025452575,56.0,54.0
162,69.968206,70.31274640833333,54.0,97.0
163,69.059528,70.82955702083333,42.0,90.0
164,70.422545,70.85606012916666,58.0,102.0
165,69.51386699999999,70.8939217125,49.0,60.0
166,70.87688399999999,71.67576340833332,61.0,95.0
167,70.87688399999999,71.70226651666667,58.0,83.0
168,70.87688399999999,71.73066270416666,54.0,96.0
169,70.87688399999999,72.30047953333333,42.0,95.0
170,71.785562,72.478428975,61.0,102.0
171,71.785562,72.53900750833333,58.0,96.0
172,71.785562,72.5636175375,54.0,73.0
173,72.69424,73.44200627083333,59.0,100.0
174,72.69424,73.46850937916666,56.0,102.0
175,73.148579,73.6767480875,47.0,65.0
176,72.69424,74.341218875,40.0,77.0
177,74.05725699999999,74.36582890416666,52.0,96.0
178,73.83008749999999,74.48509289166667,47.0,92.0
179,73.602918,74.50402368333333,59.0,102.0
180,74.2844265,74.51538215833332,56.0,112.0
181,74.965935,75.2215006875,54.0,100.0
182,75.19310449999999,75.42973939583332,58.0,127.0
183,74.7387655,75.499783325,49.0,97.0
184,75.6474435,75.80267599166666,49.0,92.0
185,74.511596,75.84432373333333,42.0,90.0
186,75.42027399999999,76.27973194166667,61.0,112.0
187,75.874613,76.30244889166666,58.0,100.0
188,76.1017825,76.3232727625,54.0,89.0
189,76.78329099999999,77.32471164166667,51.0,88.0
190,77.0104605,77.43261715416666,54.0,85.0
191,76.328952,77.59920812083332,39.0,79.0
192,76.55612149999999,77.66546589166666,46.0,78.0
193,77.4647995,77.85098765,51.0,93.0
194,77.691969,78.08762254583333,58.0,82.0
195,77.23763,78.12927028749999,63.0,112.0
196,77.9191385,78.13305644583333,54.0,93.0
197,78.600647,78.9584389625,56.0,92.0
198,78.8278165,79.03984136666666,59.0,93.0
199,78.37347749999999,79.19128769999999,51.0,53.0
200,79.2821555,79.429815675,51.0,67.0
201,78.14630799999999,79.45253262499999,44.0,77.0
202,79.50932499999999,79.98246097916666,59.0,107.0
203,79.054986,79.99561886458332,63.0,112.0
204,79.73649449999999,80.00125795833333,56.0,82.0
205,80.41479149999999,80.96554298958333,52.0,88.0
206,80.64035525,81.249377375,56.0,77.0
207,81.09148275,81.26817435416666,52.0,90.0
208,79.963664,81.63283575,40.0,75.0
209,80.18922775,81.77193339583333,47.0,67.0
210,81.31704649999999,81.79824916666666,59.0,97.0
211,81.54261025,81.81516644791667,56.0,85.0
212,80.86591899999999,81.82832433333333,63.0,112.0
213,82.2193015,82.4786998125,54.0,86.0
214,82.44486524999999,82.70238386458333,58.0,96.0
215,81.99373775,82.77945147916667,49.0,90.0
216,82.89599274999999,83.0200528125,49.0,65.0
217,81.76817399999999,83.04448888541665,42.0,82.0
218,83.1215565,83.48433819791666,58.0,99.0
219,82.670429,83.49561638541667,61.0,107.0
220,83.34712024999999,83.84841899999999,54.0,92.0
221,84.01386,84.5322418,47.0,89.0
222,84.675624,84.95503546666666,47.0,90.0
223,84.234448,84.97157956666666,54.0,83.0
224,83.572684,85.25282926666667,35.0,88.0
225,83.793272,85.30797626666666,42.0,70.0
226,85.1168,85.84657863333332,54.0,86.0
227,85.557976,85.89253446666666,42.0,83.0
228,84.45503599999999,85.89804916666667,63.0,112.0
229,85.33738799999999,85.96422556666666,35.0,86.0
230,85.77856399999999,86.1370195,47.0,95.0
231,84.89621199999999,86.20503413333333,59.0,100.0
232,85.999152,86.2528282,63.0,59.0
233,85.999152,86.43297506666666,54.0,86.0
234,86.21974,86.75834236666667,46.0,122.0
235,86.440328,86.76201883333333,58.0,96.0
236,86.660916,86.82451876666666,63.0,35.0
237,86.660916,87.08922436666666,59.0,96.0
238,86.88150399999999,87.1296655,58.0,81.0
239,87.543268,87.78407656666667,56.0,86.0
240,87.76385599999999,88.0340763,59.0,85.0
241,87.32267999999999,88.10576739999999,51.0,75.0
242,88.20503199999999,88.42378176666666,51.0,54.0
243,87.102092,88.46238466666667,44.0,76.0
244,88.42562,88.85944306666666,59.0,93.0
245,88.646208,88.86863423333332,56.0,93.0
246,87.984444,88.88701656666666,63.0,96.0
247,89.30797199999999,89.60392756666667,54.0,79.0
248,89.087384,89.85065168749999,49.0,67.0
249,89.97471175,90.28862130208333,49.0,47.0
250,88.866796,90.33561375,42.0,61.0
251,89.74914799999999,90.45591441666666,61.0,93.0
252,89.52856,90.47847079166665,58.0,79.0
253,90.20027549999999,90.48410988541666,54.0,82.0
254,90.65140299999999,93.80741580208333,41.0,64.0
255,90.65140299999999,94.18335538541666,53.0,99.0
256,90.65140299999999,94.21531024999999,56.0,74.0
257,91.55365799999998,94.25854330208332,59.0,74.0
258,94.71155049999999,95.24538470833332,49.0,93.0
259,95.38824174999999,95.59312882291665,49.0,89.0
260,94.93711425,95.65515885416666,56.0,86.0
261,94.26042299999999,95.90703837499998,37.0,82.0
262,94.48598675,96.07433148958333,44.0,72.0
263,95.83936924999999,96.61192509374999,56.0,85.0
264,95.16267799999999,96.71342878124999,64.0,100.0
265,95.61380549999998,96.82621065624998,61.0,89.0
266,96.5160605,97.04237591666666,49.0,77.0
267,96.064933,97.42959368749999,37.0,70.0
268,96.29049674999999,97.43899217708332,44.0,67.0
269,96.74162424999999,97.48410492708332,56.0,58.0
270,97.19275174999999,97.50102220833332,49.0,69.0
271,97.41831549999999,97.83372873958332,61.0,97.0
272,96.967188,97.83936783333333,64.0,112.0
273,97.64387925,97.89387907291666,56.0,92.0
274,98.32057049999999,98.55177334374999,52.0,95.0
275,98.54613425,98.83184833333333,56.0,102.0
276,98.09500675,98.86004380208333,47.0,89.0
277,97.86944299999999,99.54425384374998,40.0,76.0
278,99.22282549999998,99.64199813541666,56.0,117.0
279,99.44838924999999,99.64763722916666,52.0,95.0
280,98.77169799999999,99.68141568333331,59.0,112.0
281,98.99726174999999,99.68887836666666,47.0,102.0
282,100.12171399999998,100.31201242499998,54.0,100.0
283,100.34559449999999,100.65529585833332,58.0,122.0
284,99.89783349999999,100.69447494583332,49.0,97.0
285,100.79335549999999,101.36798211666665,49.0,83.0
286,99.67395299999998,101.38104181249999,42.0,89.0
287,101.01723599999998,101.40156419166665,58.0,122.0
288,101.24111649999999,101.42395224166665,54.0,99.0
289,100.56947499999998,101.45007163333332,61.0,112.0
290,101.91275799999998,102.46686223749998,52.0,97.0
291,102.13663849999999,102.72245914166665,56.0,95.0
292,102.58439949999999,102.76163822916665,52.0,88.0
293,101.46499699999998,103.13663806666665,40.0,88.0
294,101.68887749999999,103.23738429166664,47.0,90.0
295,103.03216049999999,103.25977234166665,56.0,89.0
296,102.80827999999998,103.28962307499998,59.0,97.0
297,102.36051899999998,103.32133947916665,63.0,100.0
298,103.70380199999998,103.92021981666664,54.0,82.0
299,103.92768249999999,104.20939879583332,58.0,93.0
300,103.47992149999999,104.23365251666665,49.0,77.0
301,104.37544349999999,104.50977179999998,49.0,58.0
302,103.25604099999998,104.54708521666664,42.0,85.0
303,104.15156299999998,105.03589097499999,61.0,99.0
304,104.59932399999998,105.04895067083332,58.0,79.0
305,104.82320449999999,105.06014469583332,54.0,90.0
306,105.49484599999998,106.00977114999998,51.0,67.0
307,105.71872649999999,106.02656218749998,54.0,65.0
308,105.04708499999998,106.29708445833332,39.0,70.0
309,105.27096549999999,106.32693519166665,46.0,53.0
310,106.16648749999999,106.65715892916666,51.0,71.0
311,106.39036799999998,106.80454692499998,58.0,78.0
312,106.61424849999999,106.81387527916665,54.0,85.0
313,105.94260699999998,106.84559168333331,63.0,99.0
314,107.28588999999998,107.60865105416664,56.0,78.0
315,107.50977049999999,107.79894947916665,59.0,76.0
316,107.06200949999999,108.03402400416665,51.0,53.0
317,106.83812899999998,108.09185979999998,44.0,62.0
318,108.18141199999998,108.70939684583331,59.0,76.0
319,107.73365099999998,108.71126251666665,63.0,99.0
320,109.30081449999999,109.65156061666664,52.0,90.0
321,109.74857549999999,109.92767989999999,52.0,86.0
322,109.52469499999998,110.02096344166665,59.0,102.0
323,108.62917299999998,110.19447082916665,40.0,56.0
324,109.97245599999998,110.26536632083332,56.0,97.0
325,109.07693399999998,110.41088864583332,47.0,63.0
326,110.19633649999999,110.42581401249998,59.0,90.0
327,110.86797799999998,111.20006740833331,54.0,59.0
328,111.09185849999999,111.34558973333331,58.0,85.0
329,110.64409749999999,111.40715687083332,49.0,64.0
330,111.53961949999999,111.70752987499998,49.0,89.0
331,110.42021699999998,111.73551493749999,42.0,54.0
332,111.76349999999998,112.13290282499999,58.0,102.0
333,111.31573899999998,112.14782819166665,61.0,97.0
334,111.98738049999999,112.24670874583332,54.0,83.0
335,112.65902199999998,113.17394714999999,47.0,78.0
336,112.88290249999999,113.35118587916665,54.0,86.0
337,112.21126099999998,113.81014090416664,35.0,70.0
338,113.33066349999999,113.86984237083331,47.0,90.0
339,112.43514149999999,113.97431993749998,42.0,56.0
340,113.77842449999999,114.42954362083331,54.0,96.0
341,114.22618549999999,114.54894655416665,42.0,89.0
342,114.00230499999998,114.63290174166664,35.0,83.0
343,114.45006599999998,114.81014047083332,47.0,99.0
344,114.67394649999999,114.93327474583332,54.0,107.0
345,113.55454399999998,115.10864780416665,59.0,96.0
346,114.89782699999998,115.40342379583332,46.0,97.0
347,115.12170749999999,115.41648349166665,54.0,85.0
348,115.34558799999998,115.75230424166665,58.0,95.0
349,113.10678299999998,115.82506540416665,63.0,102.0
350,115.56946849999999,115.83252808749998,59.0,78.0
351,116.24110999999999,116.56573672499998,56.0,88.0
352,116.46499049999998,116.75043813749998,59.0,69.0
353,116.01722949999998,116.80827393333331,51.0,73.0
354,116.91275149999998,117.08066187499998,51.0,44.0
355,115.79334899999998,117.12357230416666,44.0,68.0
356,117.13663199999999,117.58252732916665,59.0,75.0
357,116.68887099999998,117.59931836666665,63.0,99.0
358,118.25603449999998,118.42581054583331,58.0,65.0
359,117.80827349999998,118.55454183333332,49.0,79.0
360,118.03215399999999,118.57133287083332,54.0,57.0
361,117.58439299999998,119.26349674999999,42.0,74.0
362,118.70379549999998,119.27469077499998,49.0,58.0
363,118.92767599999999,119.32692955833332,58.0,63.0
364,119.15155649999998,119.32879522916664,54.0,73.0
365,118.47991499999998,119.37543699999998,61.0,100.0
366,119.37543699999998,122.27468947499999,53.0,96.0
367,119.37543699999998,122.30827154999999,56.0,92.0
368,119.37543699999998,122.33625661249998,59.0,86.0
369,119.37543699999998,122.37916704166665,41.0,78.0
370,123.40528599999999,123.99856932499998,49.0,81.0
371,124.74856899999997,126.11610572083332,49.0,52.0
372,124.74856899999997,126.57692641666665,61.0,58.0
373,123.18140549999998,126.60677714999998,44.0,66.0
374,122.95752499999998,126.63849355416664,37.0,81.0
375,123.85304699999998,126.63849355416664,64.0,96.0
376,123.62916649999998,126.65528459166666,56.0,77.0
377,127.21125449999998,127.50416482083332,56.0,66.0
378,126.98737399999999,127.57132897083332,52.0,66.0
379,126.53961299999999,128.09931381666667,40.0,78.0
380,126.76349349999998,128.18700034583333,47.0,43.0
381,127.88289599999999,128.31200029166666,56.0,73.0
382,127.43513499999999,128.32692565833332,59.0,97.0
383,128.55453749999998,128.92767166666664,51.0,63.0
384,129.0022985,129.2448357083333,51.0,24.0
385,128.778418,129.4668505375,55.0,77.0
386,128.33065699999997,129.54707438333332,43.0,93.0
387,129.0022985,130.06013386249998,58.0,73.0
388,129.67394,130.08998459583333,55.0,74.0
389,129.22617899999997,130.10304429166666,61.0,74.0
390,129.45005949999998,130.11423831666664,51.0,68.0
391,130.569462,130.87916335833333,56.0,82.0
392,130.7933425,131.0694617833333,59.0,68.0
393,130.34558149999998,131.3922228375,51.0,50.0
394,130.12170099999997,131.4276705833333,44.0,74.0
395,131.464984,131.9314017083333,59.0,58.0
396,131.01722299999997,131.95005841666665,63.0,95.0
397,132.360506,132.6814013833333,54.0,76.0
398,132.13662549999998,133.12916238333332,49.0,76.0
399,131.91274499999997,133.19072952083332,42.0,77.0
400,132.808267,133.446326425,61.0,96.0
401,132.5843865,133.51722191666664,58.0,89.0
402,133.256028,133.70378899999997,54.0,73.0
403,134.59267699999998,134.95563959999998,52.0,82.0
404,134.59267699999998,135.13712089999999,56.0,93.0
405,135.03712099999998,135.39637989999997,59.0,90.0
406,133.70378899999997,135.41304654999996,40.0,85.0
407,134.14823299999998,135.53897234999997,47.0,63.0
408,135.48156499999996,136.26489754999997,59.0,93.0
409,135.48156499999996,136.26674939999998,55.0,102.0
410,135.48156499999996,136.49637879999997,52.0,93.0
411,135.48156499999996,138.98526519999996,40.0,93.0
412,137.25934099999998,138.99267259999996,52.0,52.0
413,136.37045299999997,138.99822814999996,55.0,71.0
414,137.25934099999998,139.00378369999999,47.0,41.0
415,136.37045299999997,139.04084834166665,59.0,74.0
416,139.03711699999997,140.7068923958333,40.0,83.0
417,139.48487799999998,140.7180864208333,47.0,65.0
418,139.93263899999997,140.84308636666663,59.0,99.0
419,140.38039999999998,140.89345947916664,56.0,72.0
420,141.27592199999998,142.30017528749997,49.0,60.0
421,140.82816099999997,142.5203244458333,42.0,88.0
422,141.72368299999997,142.67330945416663,61.0,96.0
423,142.17144399999998,142.67517512499995,58.0,59.0
424,143.06696599999998,144.7815174958333,51.0,78.0
425,143.51472699999997,145.02965171666662,63.0,102.0
426,143.96248799999998,145.12106958749996,59.0,92.0
427,144.41024899999996,145.1229352583333,56.0,83.0
428,144.85800999999998,145.41024856666664,51.0,48.0
429,145.52965149999997,145.61733802916663,51.0,39.0
430,142.61920499999997,145.67517382499997,44.0,78.0
431,145.30577099999996,146.26286013749996,59.0,92.0
432,145.75353199999998,146.26659147916664,56.0,81.0
433,145.30577099999996,146.26659147916664,63.0,99.0
434,146.20129299999996,147.49979989999997,40.0,73.0
435,146.64905399999998,147.69382966666663,47.0,83.0
436,147.54457599999998,148.0053966958333,56.0,93.0
437,147.09681499999996,148.0109937083333,59.0,112.0
438,148.44009799999998,149.1303962083333,49.0,82.0
439,147.99233699999996,149.2423364583333,42.0,83.0
440,148.88785899999996,149.7404705708333,61.0,107.0
441,149.33561999999998,149.7852466708333,58.0,90.0
442,150.67890299999996,151.80949952499998,47.0,75.0
443,151.12666399999998,152.0968128333333,54.0,75.0
444,151.57442499999996,152.3318873583333,59.0,95.0
445,149.78338099999996,152.6061409708333,35.0,92.0
446,152.02218599999998,152.6285290208333,47.0,71.0
447,150.23114199999998,152.63599170416663,42.0,47.0
448,152.91770799999998,153.39158839166663,54.0,86.0
449,152.46994699999996,153.41584211249997,59.0,107.0
450,150.67890299999996,153.43823016249996,63.0,102.0
451,153.36546899999996,154.6602445583333,40.0,86.0
452,153.81322999999998,154.70875199999998,47.0,69.0
453,154.26099099999996,155.13785629166662,59.0,100.0
454,154.70875199999998,155.13972196249998,56.0,81.0
455,155.60427399999998,156.51099002499996,49.0,73.0
456,155.15651299999996,156.75539290416663,42.0,82.0
457,156.49979599999998,156.9941987708333,54.0,78.0
458,156.05203499999996,157.05763157916664,61.0,100.0
459,156.05203499999996,157.08561664166663,58.0,86.0
460,157.39531799999997,157.68449697916662,54.0,47.0
461,156.94755699999996,157.76472082499996,47.0,107.0
462,157.39531799999997,157.8729297333333,63.0,97.0
463,157.39531799999997,157.89718345416662,59.0,99.0
464,157.84307899999996,158.69755624166663,46.0,97.0
465,158.29083999999997,158.80389947916663,58.0,97.0
466,159.18636199999997,159.82255575416664,51.0,88.0
467,158.73860099999996,159.88412289166664,44.0,86.0
468,159.63412299999996,160.5091226208333,63.0,100.0
469,160.08188399999997,160.53897335416664,56.0,79.0
470,161.42516699999996,162.07255477916664,53.0,93.0
471,160.97740599999997,162.68822615416664,44.0,72.0
472,161.42516699999996,163.0389722708333,56.0,93.0
473,162.32068899999996,163.10240507916663,53.0,96.0
474,161.87292799999997,163.32255423749996,49.0,68.0
475,162.76844999999997,163.35613631249996,44.0,63.0
476,160.52964499999996,163.41770344999998,37.0,88.0
477,163.66397199999997,164.04643452083332,53.0,85.0
478,163.21621099999996,164.0688225708333,56.0,95.0
479,164.55949399999997,165.14158329999998,49.0,90.0
480,165.00725499999996,165.7759113833333,54.0,107.0
481,165.00725499999996,165.79083674999998,58.0,107.0
482,165.00725499999996,165.7982994333333,61.0,100.0
483,164.11173299999996,165.82255315416663,42.0,112.0
484,165.45501599999997,165.94568742916664,49.0,95.0
485,165.90277699999996,166.2348664083333,54.0,102.0
486,165.90277699999996,166.24232909166665,58.0,102.0
487,165.90277699999996,166.26658281249996,61.0,99.0
488,165.90277699999996,166.28150817916662,42.0,107.0
489,168.14158199999997,168.58188031666663,52.0,97.0
490,168.36546249999998,168.64531312499997,56.0,93.0
491,168.81322349999996,168.98486521666663,52.0,88.0
492,168.58934299999996,169.06882040416664,59.0,102.0
493,167.69382099999996,169.26471584166663,40.0,100.0
494,169.03710399999997,169.40650682499995,56.0,99.0
495,167.91770149999996,169.41770084999996,47.0,74.0
496,169.26098449999998,169.45501426666664,59.0,102.0
497,169.93262599999997,170.2255363208333,54.0,93.0
498,169.70874549999996,170.4662078583333,49.0,78.0
499,170.15650649999998,170.5557600583333,58.0,77.0
500,170.60426749999996,170.73859579999996,49.0,52.0
501,169.48486499999996,170.77217787499995,42.0,78.0
502,170.38038699999996,171.2665806458333,66.0,99.0
503,171.05202849999998,171.30389406249998,58.0,90.0
504,170.82814799999997,171.3113567458333,61.0,70.0
505,171.72366999999997,172.08187879999997,51.0,88.0
506,171.94755049999998,172.21620709999996,54.0,88.0
507,171.49978949999996,172.23299813749998,46.0,69.0
508,172.39531149999996,172.62292334166665,46.0,53.0
509,171.27590899999996,172.62852035416662,39.0,82.0
510,172.17143099999998,172.65837108749997,58.0,97.0
511,172.61919199999997,172.92516201666663,54.0,92.0
512,172.84307249999998,173.05575897499997,58.0,95.0
513,173.51471399999997,173.8468034083333,56.0,81.0
514,173.73859449999998,173.96993768333328,59.0,99.0
515,173.29083349999996,174.02777347916663,51.0,82.0
516,174.18635549999996,174.34120617916665,51.0,90.0
517,173.06695299999996,174.34866886249998,44.0,75.0
518,173.96247499999998,174.8542656583333,63.0,112.0
519,174.41023599999997,174.94568352916664,59.0,117.0
520,174.63411649999998,175.1285192708333,56.0,93.0
521,175.30575799999997,175.86919059166664,52.0,88.0
522,175.52963849999998,176.09493676249997,56.0,90.0
523,175.97739949999996,176.15836957083332,52.0,86.0
524,174.85799699999995,176.42516049999998,40.0,75.0
525,175.08187749999996,176.61919026666664,47.0,83.0
526,176.20127999999997,176.63598130416665,59.0,97.0
527,175.75351899999998,176.6509066708333,63.0,100.0
528,176.42516049999998,176.66583203749997,56.0,97.0
529,177.09680199999997,177.3729212833333,54.0,71.0
530,177.32068249999998,177.55016001249996,58.0,92.0
531,176.87292149999996,177.59120477083331,49.0,66.0
532,177.76844349999996,177.90650314166663,49.0,65.0
533,176.64904099999995,177.91956283749997,42.0,65.0
534,177.54456299999998,178.32814474999998,61.0,100.0
535,177.99232399999997,178.34120444583328,58.0,92.0
536,178.21620449999998,178.47739841666663,54.0,81.0
537,178.88784599999997,179.3878457833333,47.0,81.0
538,179.11172649999997,179.5725471958333,54.0,86.0
539,178.44008499999995,180.03523356249997,35.0,78.0
540,179.55948749999996,180.15650216666663,47.0,89.0
541,178.66396549999996,180.17329320416664,42.0,56.0
542,180.00724849999997,180.5744124333333,54.0,96.0
543,179.78336799999997,180.67888999999997,59.0,85.0
544,180.23112899999995,180.80202427499995,35.0,93.0
545,180.67888999999997,180.96060629583332,54.0,92.0
546,180.45500949999996,181.0053823958333,47.0,97.0
547,179.33560699999998,181.20314350416663,63.0,100.0
548,180.90277049999997,181.2740389958333,59.0,97.0
549,181.12665099999998,181.61732242916662,46.0,100.0
550,181.35053149999996,181.7777701208333,58.0,96.0
551,181.57441199999997,182.06508342916663,59.0,107.0
552,181.79829249999997,182.14530727499996,63.0,96.0
553,182.69381449999997,182.86545621666664,59.0,58.0
554,182.24605349999996,182.99978451666664,51.0,69.0
555,182.46993399999997,183.0035158583333,56.0,67.0
556,183.14157549999996,183.3337395958333,51.0,73.0
557,182.02217299999995,183.37105301249997,44.0,81.0
558,182.91769499999998,183.73299315416665,63.0,100.0
559,183.36545599999997,183.75164986249996,59.0,89.0
560,183.58933649999997,183.8430677333333,56.0,85.0
561,184.03709749999996,184.77963449166663,49.0,71.0
562,184.26097799999997,184.81508223749995,54.0,59.0
563,184.48485849999997,184.81881357916663,58.0,69.0
564,183.81321699999995,185.31135067916665,42.0,86.0
565,184.93261949999996,185.32254470416663,49.0,73.0
566,184.70873899999998,185.3542611083333,61.0,97.0
567,185.15649999999997,185.44008196666664,54.0,83.0
568,185.60426099999995,186.29642487916664,59.0,31.0
569,185.60426099999995,186.42142482499997,53.0,90.0
570,185.60426099999995,186.42142482499997,56.0,81.0
571,186.49978299999998,187.23672297916664,59.0,67.0
572,186.49978299999998,187.27030505416664,53.0,83.0
573,186.49978299999998,187.27776773749997,56.0,76.0
574,185.60426099999995,187.3020214583333,41.0,92.0
575,187.39530499999995,188.1583643708333,59.0,63.0
576,187.39530499999995,188.2087374833333,56.0,67.0
577,187.39530499999995,188.21620016666662,53.0,66.0
578,187.39530499999995,188.63037909166664,41.0,63.0
579,188.29082699999998,189.14530424166662,53.0,63.0
580,188.29082699999998,189.16955796249997,56.0,63.0
581,188.29082699999998,189.19194601249995,59.0,68.0
582,189.63410999999996,190.16769185833328,49.0,85.0
583,189.85799049999997,190.40649772499995,56.0,82.0
584,190.30575149999999,190.57440809999997,49.0,90.0
585,189.18634899999995,190.86918409166663,37.0,75.0
586,189.41022949999996,190.99231836666664,44.0,66.0
587,190.75351249999997,191.49978083333332,56.0,96.0
588,190.08187099999998,191.53522857916664,64.0,117.0
589,190.52963199999996,191.5837360208333,61.0,95.0
590,191.42515399999996,191.91209408749995,49.0,82.0
591,191.64903449999997,192.06881043749996,56.0,72.0
592,190.97739299999998,192.28149691249996,37.0,82.0
593,191.20127349999996,192.30388496249998,44.0,68.0
594,192.32067599999996,192.6135863208333,61.0,107.0
595,191.87291499999998,192.6583624208333,64.0,117.0
596,192.09679549999998,192.69007882499997,49.0,100.0
597,192.54455649999997,192.7758996833333,56.0,102.0
598,193.21619799999996,193.5258993583333,52.0,93.0
599,193.44007849999997,193.60052619166663,56.0,100.0
600,192.99231749999996,193.74791418749996,47.0,81.0
601,193.66395899999998,194.08186926666664,59.0,122.0
602,194.11171999999996,194.40276464999997,56.0,117.0
603,192.76843699999998,194.40649599166665,40.0,65.0
604,193.88783949999998,194.5333616083333,47.0,92.0
605,194.33560049999997,194.54642130416664,59.0,122.0
606,195.00724199999996,195.2385851833333,54.0,99.0
607,195.23112249999997,195.42142092499998,58.0,107.0
608,194.78336149999996,195.53709251666663,49.0,99.0
609,194.55948099999998,196.21059968749995,42.0,95.0
610,195.67888349999998,196.23671907916662,49.0,90.0
611,195.90276399999996,196.28895786249996,58.0,107.0
612,195.45500299999998,196.30388322916664,61.0,122.0
613,196.12664449999997,196.39530109999998,54.0,97.0
614,197.02216649999997,197.35052456666665,56.0,77.0
615,196.79828599999996,197.36358426249996,52.0,90.0
616,197.46992749999998,197.64903189999995,52.0,92.0
617,196.35052499999998,197.99604667499997,40.0,82.0
618,197.69380799999996,198.10052424166662,59.0,100.0
619,197.91768849999997,198.11731527916663,56.0,99.0
620,196.57440549999995,198.14716601249995,47.0,92.0
621,197.24604699999998,198.15836003749996,63.0,100.0
622,198.58932999999996,198.82813586666663,54.0,85.0
623,198.81321049999997,199.00164325416665,58.0,96.0
624,198.36544949999995,199.1564939333333,49.0,74.0
625,199.26097149999998,199.40089681249998,49.0,73.0
626,198.14156899999998,199.45313559583332,42.0,81.0
627,199.03709099999998,199.80388171249996,61.0,107.0
628,199.48485199999996,199.88410555833332,58.0,95.0
629,199.70873249999997,200.0128368458333,54.0,97.0
630,200.38037399999996,200.90649317499998,51.0,90.0
631,200.60425449999997,200.9251498833333,54.0,81.0
632,199.93261299999998,201.16955276249996,39.0,78.0
633,200.15649349999995,201.22365721666665,46.0,73.0
634,201.05201549999998,201.4680600958333,51.0,92.0
635,201.27589599999996,201.66582120416663,58.0,86.0
636,201.49977649999997,201.69007492499998,54.0,95.0
637,200.82813499999997,201.7423137083333,63.0,102.0
638,202.17141799999996,202.4699253333333,56.0,83.0
639,202.39529849999997,202.56694021666664,59.0,92.0
640,201.94753749999995,202.72552223749997,51.0,71.0
641,202.84305949999998,203.02029822916663,51.0,85.0
642,201.72365699999997,203.08186536666665,44.0,69.0
643,203.06694,203.5277606958333,59.0,107.0
644,202.61917899999997,203.5277606958333,63.0,112.0
645,203.29082049999997,203.54828307499997,56.0,97.0
646,203.96246199999996,204.50537221249996,52.0,81.0
647,204.18634249999997,204.51096922499997,56.0,75.0
648,204.63410349999998,204.82440192499996,52.0,85.0
649,203.51470099999997,205.0893271833333,40.0,73.0
650,204.857984,205.19193907916662,59.0,92.0
651,204.41022299999997,205.22178981249996,63.0,99.0
652,203.73858149999995,205.27029725416662,47.0,68.0
653,205.08186449999997,205.35984945416664,56.0,89.0
654,205.75350599999996,206.05387900416662,54.0,85.0
655,205.97738649999997,206.2423117583333,58.0,79.0
656,205.52962549999995,206.31693859166666,49.0,52.0
657,206.42514749999998,206.5613414708333,49.0,69.0
658,205.30574499999997,206.60425189999995,42.0,73.0
659,206.649028,206.9531323458333,58.0,93.0
660,206.20126699999997,206.96059502916665,61.0,97.0
661,206.87290849999997,207.16955016249997,54.0,96.0
662,207.54454999999996,208.0389527708333,47.0,81.0
663,207.76843049999997,208.26096759999996,54.0,82.0
664,207.99231099999997,208.53895255416666,63.0,100.0
665,208.21619149999998,208.97738519999996,47.0,90.0
666,207.32066949999995,209.3934297958333,42.0,76.0
667,207.09678899999997,209.4176835166666,35.0,73.0
668,208.88783299999997,209.53522077916665,59.0,97.0
669,208.88783299999997,209.56134017083332,63.0,99.0
670,209.33559399999996,209.7516385958333,47.0,97.0
671,208.440072,209.7908176833333,54.0,92.0
672,209.78335499999997,210.50350394166662,46.0,79.0
673,209.78335499999997,210.64902626666662,61.0,100.0
674,209.78335499999997,210.6527576083333,58.0,95.0
675,211.12663799999996,211.4083542958333,56.0,82.0
676,211.35051849999996,211.5986527208333,59.0,90.0
677,210.90275749999995,211.66208552916663,51.0,79.0
678,211.79827949999998,211.98111524166663,51.0,66.0
679,210.67887699999997,212.0128316458333,44.0,73.0
680,211.57439899999997,212.3766374583333,63.0,100.0
681,212.02215999999999,212.39529416666664,59.0,97.0
682,212.24604049999996,212.4661896583333,56.0,95.0
683,212.91768199999996,213.24604006666664,54.0,86.0
684,212.69380149999995,213.4400698333333,49.0,69.0
685,213.14156249999996,213.44939818749998,58.0,89.0
686,213.58932349999998,213.71618911666664,49.0,77.0
687,212.46992099999997,213.72365179999997,42.0,76.0
688,213.36544299999997,213.96805467916664,61.0,97.0
689,213.81320399999998,214.15275609166662,54.0,88.0
690,214.26096499999997,215.08372583749997,59.0,95.0
691,214.70872599999996,215.3038749958333,53.0,76.0
692,214.26096499999997,215.88782996666663,41.0,85.0
693,214.26096499999997,215.9531284458333,56.0,92.0
694,215.15648699999997,215.95685978749998,59.0,79.0
695,215.60424799999998,216.00723289999996,53.0,39.0
696,216.05200899999997,217.37103827916664,53.0,53.0
697,216.05200899999997,217.45499346666662,41.0,71.0
698,216.05200899999997,217.67514262499998,56.0,74.0
699,216.05200899999997,217.67887396666663,59.0,81.0
700,217.84305299999997,218.59678401666662,64.0,89.0
701,217.84305299999997,218.60238102916662,61.0,90.0
702,217.84305299999997,218.6452914583333,56.0,90.0
703,218.73857499999997,219.07253007916665,56.0,69.0
704,217.84305299999997,219.25350014999998,37.0,86.0
705,218.73857499999997,219.2721568583333,64.0,102.0
706,218.29081399999995,219.2777538708333,44.0,62.0
707,218.73857499999997,219.29641057916663,61.0,102.0
708,219.18633599999998,219.51096272499996,56.0,97.0
709,218.73857499999997,219.53335077499997,49.0,97.0
710,219.63409699999997,220.01842519166664,54.0,100.0
711,219.63409699999997,220.37849966249996,49.0,82.0
712,220.08185799999995,220.38409667499997,54.0,95.0
713,219.63409699999997,220.38969368749997,61.0,102.0
714,219.63409699999997,220.3971563708333,58.0,107.0
715,219.63409699999997,220.40461905416663,42.0,96.0
716,220.52961899999997,220.83932035833328,54.0,97.0
717,220.52961899999997,220.8430517,58.0,100.0
718,220.52961899999997,220.84864871249997,61.0,100.0
719,220.52961899999997,221.37290221666663,42.0,97.0
720,220.52961899999997,221.38782758333332,49.0,92.0
721,220.97737999999998,221.39155892499997,58.0,100.0
722,220.97737999999998,221.40648429166663,54.0,102.0
723,220.97737999999998,221.4214096583333,61.0,97.0
724,221.42514099999997,221.73111101666663,59.0,107.0
725,221.42514099999997,221.74043937083331,62.0,97.0
726,221.42514099999997,221.7516333958333,43.0,99.0
727,221.42514099999997,221.75536473749997,55.0,99.0
728,221.87290199999995,222.17514067499997,59.0,90.0
729,221.87290199999995,222.19006604166663,62.0,92.0
730,221.87290199999995,222.19193171249998,43.0,85.0
731,221.87290199999995,222.19566305416663,55.0,89.0
732,222.32066299999997,222.66767777499996,62.0,99.0
733,222.32066299999997,222.67514045833332,59.0,97.0
734,222.32066299999997,222.68820015416662,55.0,96.0
735,222.32066299999997,222.70499119166664,43.0,95.0
736,222.76842399999998,222.8654388833333,59.0,86.0
737,222.76842399999998,223.04081194166662,62.0,95.0
738,222.76842399999998,223.0725283458333,55.0,92.0
739,222.76842399999998,223.11917011666662,43.0,90.0
740,223.21618499999997,223.54640873749997,57.0,107.0
741,223.21618499999997,223.5482744083333,53.0,99.0
742,223.21618499999997,223.55200574999998,60.0,96.0
743,223.21618499999997,223.56693111666664,41.0,99.0
744,223.66394599999995,223.96431900416664,41.0,81.0
745,223.66394599999995,223.9736473583333,60.0,96.0
746,223.66394599999995,223.97551302916662,57.0,107.0
747,223.66394599999995,223.9848413833333,53.0,95.0
748,224.11170699999997,224.41394567499998,60.0,99.0
749,224.11170699999997,224.4158113458333,57.0,107.0
750,224.11170699999997,224.41767701666663,53.0,96.0
751,224.11170699999997,224.4251397,41.0,97.0
752,224.55946799999998,224.5837217208333,57.0,75.0
753,224.55946799999998,224.9195424708333,53.0,100.0
754,224.55946799999998,224.92700515416664,41.0,97.0
755,224.55946799999998,224.94939320416665,60.0,112.0
756,225.00722899999997,225.29827364999997,60.0,92.0
757,225.00722899999997,225.39901987499996,64.0,88.0
758,225.00722899999997,225.5725272625,62.0,102.0
759,225.00722899999997,225.6079750083333,67.0,122.0
760,225.45498999999995,225.80760178749995,60.0,70.0
761,225.23110949999997,226.0613330208333,55.0,107.0
762,225.90275099999997,226.17700461249996,60.0,72.0
763,225.90275099999997,226.43260151666664,62.0,83.0
764,225.90275099999997,226.5146910333333,67.0,83.0
765,225.00722899999997,226.6602133583333,48.0,97.0
766,226.12663149999997,226.76842226666662,55.0,63.0
767,226.35051199999998,227.078123625,60.0,81.0
768,225.90275099999997,227.14528777499999,64.0,72.0
769,226.5743925,227.14715344583328,67.0,40.0
770,226.5743925,227.26282503749997,62.0,93.0
771,227.24603399999995,227.3542429083333,67.0,27.0
772,227.02215349999997,227.8374516541666,55.0,97.0
773,227.24603399999995,227.9587202583333,60.0,72.0
774,227.91767549999997,228.0258844083333,55.0,90.0
775,226.79827299999997,228.04827245833332,48.0,95.0
776,227.46991449999996,228.20312313749997,62.0,90.0
777,227.69379499999997,228.52774986249997,67.0,58.0
778,227.69379499999997,228.54267522916663,64.0,78.0
779,228.3654365,228.5837199875,62.0,97.0
780,228.14155599999998,228.60424236666665,60.0,93.0
781,229.03707799999995,229.40648082499996,52.0,77.0
782,228.81319749999997,229.56133150416662,47.0,69.0
783,229.26095849999996,229.5706598583333,55.0,100.0
784,228.58931699999997,230.24976404166665,40.0,75.0
785,229.93259999999998,230.35051026666662,55.0,96.0
786,229.48483899999997,230.3766296583333,59.0,107.0
787,230.1564805,230.38036099999997,52.0,97.0
788,229.70871949999997,230.39155502499997,47.0,86.0
789,230.82812199999995,231.30573373333328,52.0,82.0
790,231.05200249999996,231.57625600416662,59.0,99.0
791,230.38036099999997,231.60610673749997,40.0,69.0
792,230.60424149999997,231.63595747083332,47.0,79.0
793,231.49976349999997,231.66021119166663,52.0,90.0
794,231.72364399999998,232.13222591249996,64.0,117.0
795,231.27588299999996,232.1508826208333,67.0,122.0
796,231.9475245,232.1564796333333,59.0,102.0
797,232.61916599999995,233.0631956583333,53.0,97.0
798,232.84304649999996,233.23670304583328,57.0,112.0
799,232.17140499999996,233.82252368749997,41.0,95.0
800,232.39528549999997,233.87103112916662,48.0,70.0
801,233.29080749999997,234.21618023333332,53.0,95.0
802,233.06692699999996,234.47550847916665,65.0,122.0
803,233.73856849999999,234.4792398208333,57.0,107.0
804,233.51468799999998,234.52215024999998,60.0,112.0
805,234.41020999999995,234.9046127708333,53.0,93.0
806,234.63409049999996,235.17326937083328,57.0,99.0
807,234.18632949999997,235.19752309166665,48.0,90.0
808,233.96244899999996,235.23297083749998,41.0,82.0
809,235.08185149999997,235.5202841458333,53.0,95.0
810,235.30573199999998,235.64714976249996,60.0,96.0
811,234.85797099999996,235.7049855583333,65.0,127.0
812,235.52961249999998,235.72364226666662,57.0,99.0
813,236.20125399999995,236.72177616249996,55.0,99.0
814,236.42513449999996,236.76095524999997,59.0,96.0
815,236.64901499999996,237.1658058208333,62.0,99.0
816,236.64901499999996,237.24229832499998,67.0,127.0
817,235.75349299999996,237.4624474833333,43.0,77.0
818,237.09677599999998,237.47177583749996,59.0,96.0
819,237.32065649999998,237.47177583749996,62.0,112.0
820,235.97737349999997,237.5240146208333,50.0,39.0
821,236.87289549999997,237.60050712499998,55.0,100.0
822,237.54453699999996,237.90834281249997,67.0,107.0
823,237.54453699999996,237.9102084833333,62.0,117.0
824,237.54453699999996,237.94005921666664,59.0,78.0
825,237.99229799999995,238.31692472499998,67.0,89.0
826,237.99229799999995,238.3243874083333,62.0,107.0
827,237.99229799999995,238.33185009166664,59.0,72.0
828,237.99229799999995,238.53334254166663,50.0,36.0
829,238.44005899999996,238.77587974999997,67.0,100.0
830,238.44005899999996,238.78520810416666,59.0,95.0
831,238.44005899999996,238.78707377499995,62.0,112.0
832,238.88781999999998,239.19379001666664,50.0,57.0
833,238.44005899999996,239.20684971249997,55.0,102.0
834,238.88781999999998,239.20684971249997,67.0,102.0
835,237.54453699999996,239.2143123958333,43.0,107.0
836,238.88781999999998,239.21617806666663,59.0,90.0
837,238.88781999999998,239.22364074999996,62.0,112.0
838,239.33558099999996,242.8248967791666,50.0,93.0
839,239.33558099999996,242.8248967791666,62.0,122.0
840,239.33558099999996,242.82688090624995,55.0,92.0
841,239.33558099999996,242.83680154166663,59.0,89.0
842,239.33558099999996,242.84473804999996,67.0,107.0
843,239.33558099999996,242.8526745583333,43.0,79.0
844,242.79711899999995,244.47172225833327,41.0,77.0
845,242.79711899999995,244.48759527499996,69.0,52.0
846,242.79711899999995,244.5570397229166,53.0,86.0
847,242.79711899999995,244.58084924791663,60.0,85.0
848,242.79711899999995,244.6264841708333,65.0,78.0
849,244.70188099999996,245.88045248749995,55.0,50.0
850,244.70188099999996,245.90029375833328,71.0,66.0
851,244.70188099999996,245.93203979166663,67.0,59.0
852,244.70188099999996,245.98561122291662,43.0,55.0
853,247.01760149999996,247.2556149645833,43.0,127.0
854,247.01760149999996,247.2556149645833,55.0,127.0
855,247.2915738333333,247.43226369999996,45.0,97.0
856,247.2915738333333,247.43226369999996,57.0,97.0
857,247.42855999999998,247.63226349999997,47.0,122.0
858,247.42855999999998,247.63226349999997,59.0,122.0
859,247.724856,247.86559659999998,48.0,127.0
860,247.724856,247.86559659999998,60.0,127.0
861,248.02115199999997,248.14522594999997,50.0,127.0
862,248.02115199999997,248.14522594999997,62.0,127.0
863,248.31744799999998,248.81670240833333,52.0,127.0
864,248.31744799999998,248.81670240833333,64.0,127.0
865,250.55291549999998,251.11550815416666,53.0,88.0
866,250.77646224999998,251.34091779374998,57.0,90.0
867,251.22355574999997,251.40425603958332,53.0,86.0
868,250.105822,251.67064925,41.0,75.0
869,250.32936875,251.86438976666665,48.0,83.0
870,251.44710249999997,251.88115577291666,60.0,97.0
871,251.00000899999998,251.89605888958332,64.0,100.0
872,251.67064925,251.91096200624997,57.0,97.0
873,252.3412895,252.6169971583333,55.0,71.0
874,252.56483624999998,252.79397166874998,59.0,92.0
875,252.11774275,252.8349552395833,50.0,66.0
876,253.01192974999998,253.14978357916664,50.0,65.0
877,251.894196,253.16282380624997,43.0,65.0
878,252.78838299999998,253.57079662499999,62.0,100.0
879,253.23547649999998,253.58383685208332,59.0,92.0
880,253.45902324999997,253.71982779166666,55.0,81.0
881,254.1296635,254.6289179083333,48.0,81.0
882,254.35321025,254.81334397708332,55.0,86.0
883,253.68257,255.27534059374997,36.0,78.0
884,254.80030374999998,255.39642841666665,48.0,89.0
885,253.90611675,255.41319442291666,43.0,56.0
886,255.24739724999998,255.81371568333333,55.0,96.0
887,255.02385049999998,255.9180375,60.0,85.0
888,255.47094399999997,256.0409882125,36.0,93.0
889,255.9180375,256.1993338270833,55.0,92.0
890,255.69449074999997,256.2440431770833,48.0,97.0
891,254.576757,256.44150947291666,64.0,100.0
892,256.14158425,256.51229927708334,60.0,97.0
893,256.36513099999996,256.85507096041664,47.0,100.0
894,256.58867775,257.01527946458333,59.0,96.0
895,256.81222449999996,257.30216446041663,60.0,107.0
896,257.03577125,257.3822687125,64.0,96.0
897,257.92995824999997,258.10134409166665,60.0,58.0
898,257.48286475,258.23547214166666,52.0,69.0
899,257.7064115,258.2391979208333,57.0,67.0
900,258.37705174999996,258.5689293770833,52.0,73.0
901,257.259318,258.60618716875,45.0,81.0
902,258.153505,258.96758774791664,64.0,100.0
903,258.6005985,258.98621664374997,60.0,89.0
904,258.82414524999996,259.0774982333333,57.0,85.0
905,259.27123875,260.01266880416665,50.0,71.0
906,259.4947855,260.04806370625,55.0,59.0
907,259.71833225,260.05178948541663,59.0,69.0
908,259.047692,260.54359233541663,43.0,86.0
909,260.16542575,260.5547696729167,50.0,73.0
910,259.941879,260.5864387958333,62.0,97.0
911,260.38897249999997,260.6721317166666,55.0,83.0
912,260.83606599999996,261.52719803541663,60.0,31.0
913,260.83606599999996,261.6520116375,54.0,90.0
914,260.83606599999996,261.6520116375,57.0,81.0
915,261.730253,262.4660943854166,60.0,67.0
916,261.730253,262.49962639791664,54.0,83.0
917,261.730253,262.50707795625,57.0,76.0
918,260.83606599999996,262.53129552083334,42.0,92.0
919,262.62444,263.38636183958334,60.0,63.0
920,262.62444,263.4366598583333,57.0,67.0
921,262.62444,263.44411141666666,54.0,66.0
922,262.62444,263.85767290416663,42.0,63.0
923,263.518627,264.37183042916666,54.0,63.0
924,263.518627,264.39604799374996,57.0,63.0
925,263.518627,264.41840266875,60.0,68.0
926,264.85990749999996,265.3926939208333,50.0,85.0
927,265.08345425,265.6311437875,57.0,82.0
928,265.53054775,265.79880385,50.0,90.0
929,264.41281399999997,266.09314040416666,38.0,75.0
930,264.63636075,266.21609111666663,45.0,66.0
931,265.97764125,266.7227970833333,57.0,96.0
932,265.307001,266.75819198541666,65.0,117.0
933,265.7540945,266.8066271145833,62.0,95.0
934,266.6482815,267.13449568125,50.0,82.0
935,266.87182824999996,267.29097840624996,57.0,72.0
936,266.201188,267.50334781875,38.0,82.0
937,266.42473474999997,267.52570249375,45.0,68.0
938,267.5424685,267.8349421645833,62.0,107.0
939,267.095375,267.8796515145833,65.0,117.0
940,267.31892174999996,267.9113206375,50.0,100.0
941,267.76601525,267.9970135583333,57.0,102.0
942,268.4366555,268.7458951708333,53.0,93.0
943,268.66020225,268.82041075416663,57.0,100.0
944,268.21310875,268.96757903125,48.0,81.0
945,268.88374899999997,269.30103626666664,60.0,122.0
946,269.33084249999996,269.62145327499996,57.0,117.0
947,267.989562,269.62517905416667,41.0,65.0
948,269.10729575,269.75185554583334,48.0,92.0
949,269.55438925,269.76489577291665,60.0,122.0
950,270.2250295,270.4560278083333,55.0,99.0
951,270.44857625,270.6385909875,59.0,107.0
952,270.00148275,270.75409014166667,50.0,99.0
953,269.777936,271.42659328125,43.0,95.0
954,270.89566974999997,271.4526737354166,50.0,90.0
955,271.1192165,271.50483464375,59.0,107.0
956,270.672123,271.51973776041666,62.0,122.0
957,271.34276324999996,271.61101935,55.0,97.0
958,272.23695025,272.5648188166667,57.0,77.0
959,272.0134035,272.57785904375,53.0,90.0
960,272.68404375,272.86288114999996,53.0,92.0
961,271.56631,273.20937861249996,41.0,82.0
962,272.90759049999997,273.31370042916666,60.0,100.0
963,273.13113725,273.33046643541667,57.0,99.0
964,271.78985675,273.36027266875,48.0,92.0
965,272.460497,273.37145000625,64.0,100.0
966,273.80177749999996,274.04022736666667,55.0,85.0
967,274.02532425,274.21347609791667,59.0,96.0
968,273.57823075,274.36809593333334,50.0,74.0
969,274.47241775,274.61213446875,50.0,73.0
970,273.35468399999996,274.6642953770833,43.0,81.0
971,274.248871,275.01451861875,62.0,107.0
972,274.6959645,275.0946228708333,59.0,95.0
973,274.91951124999997,275.22316225208334,55.0,97.0
974,275.5901515,276.1154863625,52.0,90.0
975,275.81369825,276.13411525833334,55.0,81.0
976,275.143058,276.37815379374996,40.0,78.0
977,275.36660474999996,276.43217759166663,47.0,73.0
978,276.26079175,276.6762161270833,52.0,92.0
979,276.4843385,276.87368242291666,59.0,86.0
980,276.70788525,276.8978999875,55.0,95.0
981,276.037245,276.9500608958333,64.0,102.0
982,277.37852549999997,277.6765878333333,57.0,83.0
983,277.60207225,277.77345809166667,60.0,92.0
984,277.15497875,277.93180370625,52.0,71.0
985,278.04916575,278.2261402604166,52.0,85.0
986,276.931432,278.28761561666664,45.0,69.0
987,278.2727125,278.7328462270833,60.0,107.0
988,277.82561899999996,278.7328462270833,64.0,112.0
989,278.49625925,278.75333801249997,57.0,97.0
990,279.1668995,279.70900036874997,53.0,81.0
991,279.39044624999997,279.7145890375,57.0,75.0
992,279.83753974999996,280.02755448749997,53.0,85.0
993,278.719806,280.2920848083333,41.0,73.0
994,280.0610865,280.3945437354167,60.0,92.0
995,279.613993,280.42434996875,64.0,99.0
996,278.94335275,280.47278509791664,48.0,68.0
997,280.28463324999996,280.56220379791665,57.0,89.0
998,280.9552735,281.25519872291665,55.0,85.0
999,281.17882025,281.44335057083333,59.0,79.0
1000,280.73172675,281.51786615416665,50.0,52.0
1001,281.62591375,281.76190468958333,50.0,69.0
1002,280.50818,281.80475115,43.0,73.0
1003,281.84946049999996,282.15311150208333,59.0,93.0
1004,281.40236699999997,282.1605630604166,62.0,97.0
1005,282.07300725,282.36920669375,55.0,96.0
1006,282.7436475,283.23731323958333,48.0,81.0
1007,282.96719425,283.4589971,55.0,82.0
1008,283.190741,283.7365676479167,64.0,100.0
1009,283.41428774999997,284.1743467,48.0,90.0
1010,282.52010075,284.5897710770833,43.0,76.0
1011,282.296554,284.61398864166665,36.0,73.0
1012,284.084928,284.73135068541666,60.0,97.0
1013,284.084928,284.75743113958333,64.0,99.0
1014,284.5320215,284.94744587708334,48.0,97.0
1015,283.6378345,284.9865665583333,55.0,92.0
1016,284.979115,285.69819037916665,47.0,79.0
1017,284.979115,285.84349576666665,62.0,100.0
1018,284.979115,285.84722154583335,59.0,95.0
1019,286.3203955,286.6016918270833,57.0,82.0
1020,286.54394225,286.7917065645833,60.0,90.0
1021,286.09684875,286.85504481041664,52.0,79.0
1022,286.99103575,287.17359892916664,52.0,66.0
1023,285.87330199999997,287.20526805208334,45.0,73.0
1024,286.76748899999996,287.5685315208333,64.0,100.0
1025,287.2145825,287.5871604166667,60.0,97.0
1026,287.43812925,287.6579502208333,57.0,95.0
1027,288.1087695,288.43663806666666,55.0,86.0
1028,287.88522274999997,288.6303785833333,50.0,69.0
1029,288.33231624999996,288.63969303125,59.0,89.0
1030,288.77940975,288.9060862416666,50.0,77.0
1031,287.661676,288.9135378,43.0,76.0
1032,288.555863,289.15757633541665,62.0,97.0
1033,289.0029565,289.34200240416664,55.0,88.0
1034,289.45005,290.27158430624996,60.0,95.0
1035,289.89714349999997,290.49140527708335,54.0,76.0
1036,289.45005,291.0744897166667,42.0,85.0
1037,289.45005,291.13969085208333,57.0,92.0
1038,290.34423699999996,291.14341663125,60.0,79.0
1039,290.79133049999996,291.19371465,54.0,39.0
1040,291.238424,292.55548693541664,54.0,53.0
1041,291.238424,292.6393169666667,42.0,71.0
1042,291.238424,292.8591379375,57.0,74.0
1043,291.238424,292.86286371666665,60.0,81.0
1044,292.82188014583335,293.71793003541666,69.0,73.0
1045,292.88708128125,294.07187905625,74.0,76.0
1046,292.93551641041665,294.22836178125,50.0,35.0
1047,292.9839515395833,294.26189379375,77.0,90.0
1048,293.09386202499996,294.52269833541664,62.0,63.0
1049,293.9545170125,294.96420316666666,69.0,83.0
1050,294.390433175,295.05548475625,77.0,96.0
1051,295.33491819375,297.0841715125,62.0,38.0
1052,295.80436636875,297.0860344020833,67.0,50.0
1053,297.0413250520833,297.0860344020833,67.0,72.0
1054,295.8099550375,297.0934859604167,71.0,61.0
1055,294.85429268125,297.1139777458333,55.0,90.0
1056,297.04691372083334,297.48282988333335,64.0,62.0
1057,297.02269615625,298.23171149583334,45.0,74.0
1058,298.08454321875,298.4850644791667,64.0,57.0
1059,297.3822338458333,298.56516873124997,60.0,66.0
1060,297.74177153541666,298.60801519166665,67.0,66.0
1061,298.93774664791664,300.4820821125,55.0,77.0
1062,298.4832015895833,300.5007110083333,43.0,63.0
1063,299.73133761041663,300.5249285729167,62.0,63.0
1064,299.36993703125,300.5696379229166,59.0,76.0
1065,300.3926634125,302.6057762375,54.0,61.0
1066,300.45413876875,302.63185669166666,57.0,82.0
1067,300.34609117291666,302.64303402916664,42.0,61.0
1068,300.58081526041667,302.64675980833334,60.0,75.0
1069,304.1296199166667,304.94742844374997,62.0,57.0
1070,304.1892323833333,305.6925842770833,38.0,38.0
1071,304.2730624145833,305.76896275,69.0,66.0
1072,304.19295816249996,305.7782771979166,65.0,65.0
1073,305.15793496666663,305.79504320416663,62.0,66.0
1074,304.68476101249996,305.836026775,50.0,68.0
1075,306.2514511520833,307.758528825,43.0,62.0
1076,306.2272335875,307.7622546041666,59.0,55.0
1077,306.1285004395833,307.77529483125,55.0,58.0
1078,306.2570398208333,307.7920608375,62.0,83.0
1079,309.1203011104167,310.22872041249997,67.0,50.0
1080,309.21717136875,310.4205980395833,64.0,41.0
1081,309.30472717916666,311.02603715416666,60.0,51.0
1082,310.5230569666667,311.0297629333333,64.0,70.0
1083,310.90308644166663,311.0893754,67.0,45.0
1084,311.3017448125,311.7842332145833,72.0,35.0
1085,311.73393519583334,311.8382570125,76.0,47.0
1086,312.26858450624997,312.54801794375,79.0,35.0
1087,309.7834898020833,314.16128032291664,43.0,55.0
1088,313.3360202375,314.17990921874997,84.0,36.0
1089,310.1802852833333,314.1873607770833,48.0,73.0
1090,313.28572221875,314.18922366666663,79.0,12.0
1091,313.4943658520833,314.22089278958333,88.0,27.0
1092,309.34384786041664,314.23952168541666,36.0,81.0
