,start,end,pitch,velocity
0,5.627763708333334,5.848596489583334,69.0,127.0
1,5.961096208333334,6.1319291145833335,72.0,96.0
2,6.294428708333333,6.477761583333334,67.0,117.0
3,6.627761208333333,6.759705322916667,67.0,102.0
4,6.961093708333333,7.816647125,65.0,122.0
5,8.294423708333333,8.461089958333334,69.0,102.0
6,8.627756208333334,8.790255802083333,69.0,112.0
7,8.794422458333333,8.948588739583334,72.0,107.0
8,8.961088708333333,9.086088395833334,74.0,127.0
9,9.294421208333334,9.431920864583335,74.0,122.0
10,9.627753708333334,10.522195916666668,72.0,122.0
11,10.961083708333334,11.265249614583334,67.0,102.0
12,11.294416208333335,11.538860041666668,69.0,112.0
13,11.627748708333334,11.816637125,72.0,112.0
14,11.961081208333335,12.141636312500001,74.0,127.0
15,12.294413708333334,12.513857604166667,69.0,122.0
16,12.627746208333335,12.816634625,67.0,97.0
17,12.961078708333334,13.369411020833335,69.0,127.0
18,13.627743708333334,13.818021010416667,72.0,102.0
19,13.961076208333335,14.183297875000001,62.0,102.0
20,14.294408708333334,14.4666305,72.0,117.0
21,14.627741208333335,14.804129656250002,69.0,127.0
22,14.961073708333334,15.765238364583334,67.0,112.0
23,16.294403708333334,16.530514229166666,69.0,122.0
24,16.794402458333334,16.8666245,69.0,117.0
25,16.961068708333332,17.072179541666667,69.0,122.0
26,17.294401208333333,17.43328975,67.0,100.0
27,17.627733708333334,17.786066645833333,65.0,127.0
28,17.961066208333335,18.10412140625,62.0,92.0
29,18.294398708333333,18.547175854166667,60.0,100.0
30,18.961063708333334,19.287451781250002,69.0,122.0
31,19.461062458333334,19.531895614583334,69.0,99.0
32,19.627728708333333,19.74578396875,69.0,90.0
33,19.961061208333334,20.086060895833334,67.0,117.0
34,20.294393708333335,20.40550454166667,65.0,100.0
35,20.627726208333335,20.749948125,62.0,107.0
36,20.961058708333333,21.147169354166667,60.0,112.0
37,21.627723708333335,21.873556427083333,60.0,112.0
38,21.961056208333336,22.16800013541667,62.0,112.0
39,22.294388708333333,22.476332697916668,65.0,107.0
40,22.627721208333334,22.81383185416667,67.0,97.0
41,22.961053708333335,23.93466238541667,69.0,112.0
42,24.294383708333335,24.463827729166667,72.0,127.0
43,24.627716208333336,24.742993697916667,69.0,102.0
44,24.794382458333335,24.915215489583336,72.0,107.0
45,24.961048708333333,25.077715083333334,74.0,100.0
46,25.294381208333334,25.41382535416667,74.0,107.0
47,25.627713708333335,25.744380083333336,72.0,127.0
48,25.961046208333336,26.106879177083336,69.0,102.0
49,26.294378708333333,26.527711458333336,67.0,107.0
50,26.961043708333335,27.12909884375,72.0,112.0
51,27.294376208333336,27.423542552083333,69.0,92.0
52,27.461042458333335,27.601319885416668,72.0,90.0
53,27.627708708333333,27.744375083333335,74.0,112.0
54,27.961041208333334,28.08881866666667,74.0,112.0
55,28.294373708333335,28.42215116666667,72.0,117.0
56,28.627706208333336,28.779094718750002,69.0,100.0
57,28.961038708333334,29.191593687500003,67.0,127.0
58,29.627703708333335,29.83881429166667,60.0,117.0
59,29.961036208333336,30.10131363541667,69.0,107.0
60,30.294368708333334,30.473534927083335,69.0,112.0
61,30.627701208333335,30.76658975,67.0,127.0
62,30.961033708333336,31.861031458333336,65.0,127.0
63,32.294363708333336,33.0582506875,69.0,127.0
64,33.294361208333335,33.51380510416667,72.0,127.0
65,33.62769370833333,34.087414781250004,67.0,102.0
66,34.294358708333334,34.73602427083333,67.0,122.0
67,34.961023708333336,36.37629794791667,65.0,112.0
68,41.62767370833333,41.848506489583336,69.0,127.0
69,41.96100620833334,42.131839114583336,72.0,96.0
70,42.294338708333335,42.47767158333333,67.0,117.0
71,42.62767120833333,42.759615322916666,67.0,102.0
72,42.96100370833334,43.816557125,65.0,122.0
73,44.29433370833333,44.46099995833334,69.0,102.0
74,44.62766620833334,44.79016580208334,69.0,112.0
75,44.794332458333336,44.948498739583336,72.0,107.0
76,44.960998708333335,45.085998395833336,74.0,127.0
77,45.29433120833333,45.43183086458333,74.0,122.0
78,45.62766370833334,46.52210591666667,72.0,122.0
79,46.96099370833333,47.26515961458333,67.0,102.0
80,47.29432620833334,47.538770041666666,69.0,112.0
81,47.627658708333335,47.816547125,72.0,112.0
82,47.96099120833333,48.141546312500004,74.0,127.0
83,48.29432370833334,48.51376760416667,69.0,122.0
84,48.627656208333335,48.816544625000006,67.0,97.0
85,48.96098870833334,49.36932102083333,69.0,127.0
86,49.627653708333334,49.81793101041667,72.0,102.0
87,49.96098620833334,50.183207875,62.0,102.0
88,50.294318708333336,50.4665405,72.0,117.0
89,50.62765120833333,50.804039656250005,69.0,127.0
90,50.96098370833334,51.76514836458334,67.0,112.0
91,52.294313708333334,52.53042422916667,69.0,122.0
92,52.79431245833334,52.8665345,69.0,117.0
93,52.960978708333336,53.07208954166667,69.0,122.0
94,53.29431120833333,53.43319975,67.0,100.0
95,53.62764370833334,53.78597664583334,65.0,127.0
96,53.960976208333335,54.10403140625,62.0,92.0
97,54.29430870833334,54.54708585416667,60.0,100.0
98,54.960973708333334,55.287361781250006,69.0,122.0
99,55.46097245833334,55.531805614583334,69.0,99.0
100,55.627638708333336,55.745693968750004,69.0,90.0
101,55.96097120833333,56.085970895833334,67.0,117.0
102,56.29430370833334,56.40541454166667,65.0,100.0
103,56.627636208333335,56.749858125,62.0,107.0
104,56.96096870833334,57.14707935416667,60.0,112.0
105,57.627633708333335,57.873466427083336,60.0,112.0
106,57.96096620833334,58.16791013541667,62.0,112.0
107,58.294298708333336,58.47624269791667,65.0,107.0
108,58.627631208333334,58.81374185416667,67.0,97.0
109,58.96096370833334,59.93457238541667,69.0,112.0
110,60.294293708333335,60.46373772916667,72.0,127.0
111,60.62762620833334,60.74290369791667,69.0,102.0
112,60.79429245833334,60.91512548958334,72.0,107.0
113,60.96095870833334,61.07762508333334,74.0,100.0
114,61.294291208333334,61.41373535416667,74.0,107.0
115,61.62762370833334,61.74429008333334,72.0,127.0
116,61.960956208333336,62.106789177083336,69.0,102.0
117,62.29428870833333,62.527621458333336,67.0,107.0
118,62.960953708333335,63.12900884375,72.0,112.0
119,63.29428620833334,63.42345255208334,69.0,92.0
120,63.46095245833334,63.60122988541667,72.0,90.0
121,63.62761870833334,63.74428508333334,74.0,112.0
122,63.960951208333334,64.08872866666667,74.0,112.0
123,64.29428370833334,64.42206116666667,72.0,117.0
124,64.62761620833334,64.77900471875,69.0,100.0
125,64.96094870833333,65.1915036875,67.0,127.0
126,65.62761370833334,65.83872429166667,60.0,117.0
127,65.96094620833334,66.10122363541667,69.0,107.0
128,66.29427870833334,66.47344492708334,69.0,112.0
129,66.62761120833333,66.76649975000001,67.0,127.0
130,66.96094370833333,67.86094145833334,65.0,127.0
131,68.29427370833334,69.0581606875,69.0,127.0
132,69.29427120833334,69.51371510416666,72.0,127.0
133,69.62760370833334,70.08732478125,67.0,102.0
134,70.29426870833333,70.73593427083334,67.0,122.0
135,70.96093370833334,72.37620794791667,65.0,112.0
