,start,end,pitch,velocity
0,0.6277762083333334,0.7055537916666667,65.0,88.0
1,0.29444370833333333,0.7124982187500001,41.0,90.0
2,0.6277762083333334,0.7222204166666667,60.0,89.0
3,0.6277762083333334,0.7319426145833333,69.0,79.0
4,0.9611087083333334,1.3069411770833335,36.0,90.0
5,1.2944412083333334,1.3736076770833334,65.0,90.0
6,1.2944412083333334,1.3805521041666668,60.0,86.0
7,1.2944412083333334,1.3805521041666668,69.0,81.0
8,1.6277737083333335,2.0249949375000003,41.0,90.0
9,1.9611062083333335,2.0402726770833333,65.0,89.0
10,1.9611062083333335,2.0416615625000003,69.0,81.0
11,1.9611062083333335,2.04582821875,60.0,89.0
12,2.6277712083333333,2.7152709895833333,60.0,88.0
13,2.6277712083333333,2.7152709895833333,65.0,90.0
14,2.6277712083333333,2.7152709895833333,69.0,79.0
15,2.2944387083333333,2.72082653125,36.0,89.0
16,3.2944362083333334,3.368047135416667,70.0,92.0
17,3.2944362083333334,3.3777693333333336,67.0,96.0
18,3.2944362083333334,3.384713760416667,62.0,88.0
19,2.9611037083333334,3.4069359270833335,43.0,92.0
20,3.9611012083333335,4.0333232500000005,60.0,78.0
21,3.9611012083333335,4.0333232500000005,64.0,90.0
22,3.9611012083333335,4.034712135416667,67.0,85.0
23,3.6277687083333334,4.0402676770833335,36.0,90.0
24,4.294433708333334,4.3805446041666665,69.0,95.0
25,4.294433708333334,4.3972112291666665,65.0,102.0
26,4.294433708333334,4.413877854166667,41.0,99.0
27,4.627766208333334,4.719432645833334,60.0,81.0
28,4.627766208333334,4.722210416666667,67.0,74.0
29,4.627766208333334,4.727765958333333,64.0,76.0
30,4.627766208333334,4.7916546875,36.0,88.0
31,4.961098708333334,5.12915384375,60.0,86.0
32,4.961098708333334,5.1333205,69.0,93.0
33,4.961098708333334,5.143042697916667,65.0,100.0
34,4.961098708333334,5.168042635416667,41.0,90.0
35,5.961096208333334,6.043040447916667,60.0,79.0
36,5.961096208333334,6.048595989583333,65.0,83.0
37,5.961096208333334,6.0583181875,69.0,78.0
38,5.627763708333334,6.0916514375,41.0,93.0
39,6.627761208333333,6.713872104166667,69.0,71.0
40,6.627761208333333,6.716649875000001,60.0,77.0
41,6.627761208333333,6.716649875000001,65.0,78.0
42,6.294428708333333,6.747205354166667,36.0,93.0
43,6.961093708333333,7.054149031250001,60.0,81.0
44,6.961093708333333,7.066649,69.0,89.0
45,6.961093708333333,7.070815656250001,65.0,93.0
46,6.961093708333333,7.0985933645833335,41.0,92.0
47,7.294426208333333,7.404148156250001,64.0,89.0
48,7.294426208333333,7.405537041666667,60.0,88.0
49,7.294426208333333,7.420814781250001,67.0,86.0
50,7.294426208333333,7.484703510416667,36.0,90.0
51,7.627758708333333,7.7999805,60.0,93.0
52,7.627758708333333,7.8055360416666675,65.0,99.0
53,7.627758708333333,7.8055360416666675,69.0,95.0
54,7.627758708333333,7.823591552083334,41.0,107.0
55,8.294423708333333,8.556923052083334,41.0,89.0
56,8.627756208333334,8.7083115625,69.0,74.0
57,8.627756208333334,8.713867104166667,65.0,88.0
58,8.627756208333334,8.743033697916667,60.0,90.0
59,9.294421208333334,9.38747653125,62.0,92.0
60,9.294421208333334,9.388865416666667,58.0,100.0
61,8.961088708333333,9.409698697916667,46.0,69.0
62,9.294421208333334,9.409698697916667,65.0,85.0
63,9.627753708333334,9.713864604166668,55.0,74.0
64,9.627753708333334,9.743031197916666,60.0,88.0
65,9.627753708333334,9.744420083333333,48.0,81.0
66,9.627753708333334,9.745808968750001,64.0,79.0
67,9.961086208333334,10.086085895833333,55.0,90.0
68,9.961086208333334,10.133308000000001,43.0,88.0
69,10.294418708333334,10.52914034375,60.0,95.0
70,10.294418708333334,10.533307,55.0,86.0
71,10.294418708333334,10.533307,64.0,86.0
72,10.294418708333334,10.547195854166667,48.0,95.0
73,10.961083708333334,11.305527291666667,48.0,93.0
74,11.294416208333335,11.390249302083333,55.0,83.0
75,11.294416208333335,11.390249302083333,60.0,93.0
76,11.294416208333335,11.401360385416668,64.0,82.0
77,11.627748708333334,11.998581114583335,48.0,86.0
78,11.961081208333335,12.029136593750001,55.0,82.0
79,11.961081208333335,12.034692135416668,60.0,89.0
80,11.961081208333335,12.055525416666667,64.0,85.0
81,12.627746208333335,12.719412645833334,60.0,89.0
82,12.627746208333335,12.72080153125,69.0,88.0
83,12.627746208333335,12.727745958333333,65.0,95.0
84,12.294413708333334,12.730523729166668,41.0,76.0
85,12.961078708333334,13.322188916666667,41.0,93.0
86,13.294411208333335,13.370799906250001,65.0,93.0
87,13.294411208333335,13.376355447916668,69.0,85.0
88,13.294411208333335,13.383299875,60.0,88.0
89,13.627743708333334,13.924965187500002,50.0,95.0
90,13.961076208333335,14.040242677083334,65.0,86.0
91,13.961076208333335,14.04579821875,57.0,83.0
92,13.961076208333335,14.048575989583334,62.0,96.0
93,14.627741208333335,14.702741020833335,69.0,90.0
94,14.294408708333334,14.708296562500001,41.0,88.0
95,14.627741208333335,14.715240989583334,60.0,92.0
96,14.627741208333335,14.72079653125,65.0,100.0
97,14.961073708333334,14.997184729166667,70.0,102.0
98,14.969407020833334,14.997184729166667,70.0,42.0
99,14.943018197916668,15.065240114583334,43.0,99.0
100,14.961073708333334,15.065240114583334,43.0,107.0
101,14.945795968750001,15.073573427083334,67.0,93.0
102,14.961073708333334,15.073573427083334,67.0,92.0
103,14.954129281250001,15.083295625000002,62.0,79.0
104,15.288850666666667,15.406905927083335,62.0,79.0
105,15.294406208333335,15.406905927083335,62.0,100.0
106,15.283295125,15.413850354166668,65.0,82.0
107,15.2916284375,15.427739208333334,69.0,85.0
108,15.277739583333334,15.440239177083335,38.0,86.0
109,15.294406208333335,15.440239177083335,38.0,93.0
110,15.627738708333334,15.830515979166668,67.0,97.0
111,15.640238677083333,15.830515979166668,67.0,99.0
112,15.627738708333334,15.831904864583334,62.0,96.0
113,15.634683135416667,15.831904864583334,62.0,89.0
114,15.627738708333334,15.836071520833334,43.0,117.0
115,15.6416275625,15.836071520833334,43.0,112.0
116,15.627738708333334,15.83746040625,70.0,117.0
117,15.63746090625,15.83746040625,70.0,107.0
118,16.294403708333334,16.687458281250002,41.0,96.0
119,16.627736208333335,16.718013760416667,65.0,77.0
120,16.627736208333335,16.730513729166667,69.0,66.0
121,16.627736208333335,16.731902614583333,60.0,85.0
122,17.294401208333333,17.36245659375,65.0,73.0
123,17.294401208333333,17.36662325,60.0,72.0
124,17.294401208333333,17.3749565625,69.0,66.0
125,16.961068708333332,17.399956500000002,41.0,92.0
126,17.627733708333334,17.74717785416667,71.0,93.0
127,17.627733708333334,17.75412228125,67.0,117.0
128,17.627733708333334,17.786066645833333,43.0,100.0
129,17.961066208333335,18.065232614583334,71.0,76.0
130,17.961066208333335,18.07078815625,43.0,107.0
131,17.961066208333335,18.07078815625,67.0,85.0
132,17.961066208333335,18.083288125,62.0,82.0
133,18.294398708333333,18.512453718750002,64.0,93.0
134,18.294398708333333,18.520787031250002,60.0,90.0
135,18.294398708333333,18.523564802083335,36.0,95.0
136,18.294398708333333,18.52634257291667,67.0,88.0
137,18.961063708333334,19.32911834375,41.0,93.0
138,19.294396208333335,19.37217379166667,65.0,93.0
139,19.294396208333335,19.390229302083334,69.0,88.0
140,19.294396208333335,19.3916181875,60.0,93.0
141,19.627728708333333,20.022172166666667,41.0,99.0
142,19.961061208333334,20.043005447916666,69.0,75.0
143,19.961061208333334,20.052727645833336,65.0,89.0
144,19.961061208333334,20.05550541666667,60.0,85.0
145,20.294393708333335,20.3916156875,62.0,96.0
146,20.294393708333335,20.401337885416666,71.0,96.0
147,20.294393708333335,20.40550454166667,43.0,99.0
148,20.294393708333335,20.406893427083336,67.0,96.0
149,20.627726208333335,20.736059270833334,43.0,107.0
150,20.627726208333335,20.736059270833334,62.0,92.0
151,20.627726208333335,20.754114781250003,67.0,97.0
152,20.961058708333333,21.120780531250002,64.0,93.0
153,20.961058708333333,21.12633607291667,60.0,92.0
154,20.961058708333333,21.131891614583335,67.0,92.0
155,20.961058708333333,21.16661375,36.0,95.0
156,21.961056208333336,22.048555989583335,65.0,92.0
157,21.627723708333335,22.052722645833335,41.0,102.0
158,21.961056208333336,22.052722645833335,60.0,93.0
159,21.961056208333336,22.061055958333334,69.0,85.0
160,22.294388708333333,22.701332135416667,36.0,97.0
161,22.627721208333334,22.701332135416667,65.0,90.0
162,22.627721208333334,22.713832104166666,60.0,88.0
163,22.627721208333334,22.715220989583333,69.0,83.0
164,23.294386208333336,23.365219364583336,65.0,95.0
165,22.961053708333335,23.381885989583335,41.0,96.0
166,23.294386208333336,23.383274875,60.0,93.0
167,23.294386208333336,23.386052645833335,69.0,92.0
168,23.961051208333334,24.03743990625,65.0,92.0
169,23.961051208333334,24.042995447916667,69.0,85.0
170,23.961051208333334,24.048550989583333,60.0,93.0
171,23.627718708333333,24.070773156250002,36.0,88.0
172,24.627716208333336,24.699938250000002,69.0,81.0
173,24.627716208333336,24.70132713541667,65.0,93.0
174,24.294383708333335,24.742993697916667,41.0,99.0
175,24.961048708333333,25.1749370625,38.0,89.0
176,25.294381208333334,25.40132538541667,62.0,86.0
177,25.294381208333334,25.419380895833335,57.0,83.0
178,25.294381208333334,25.4249364375,65.0,82.0
179,25.627713708333335,25.754102281250002,38.0,93.0
180,25.627713708333335,25.758268937500002,62.0,112.0
181,25.961046208333336,26.10132363541667,65.0,107.0
182,25.961046208333336,26.10965694791667,41.0,92.0
183,26.294378708333333,26.47215604166667,43.0,122.0
184,26.294378708333333,26.47910046875,67.0,112.0
185,26.627711208333334,26.7582664375,62.0,99.0
186,26.627711208333334,26.761044208333335,70.0,95.0
187,26.627711208333334,26.767988635416668,67.0,96.0
188,26.961043708333335,27.330487229166668,41.0,99.0
189,27.294376208333336,27.3915981875,65.0,96.0
190,27.294376208333336,27.405487041666667,69.0,88.0
191,27.294376208333336,27.4082648125,60.0,93.0
192,27.627708708333333,27.941596812500002,38.0,93.0
193,27.961041208333334,28.051318760416667,65.0,95.0
194,27.961041208333334,28.05409653125,62.0,82.0
195,27.961041208333334,28.07631869791667,69.0,92.0
196,28.294373708333335,28.465206614583334,62.0,97.0
197,28.294373708333335,28.465206614583334,65.0,96.0
198,28.294373708333335,28.47909546875,38.0,99.0
199,28.627706208333336,28.740205927083334,65.0,97.0
200,28.627706208333336,28.752705895833333,69.0,93.0
201,28.627706208333336,28.786039145833335,41.0,97.0
202,28.961038708333334,29.06381622916667,67.0,93.0
203,28.961038708333334,29.06798288541667,70.0,112.0
204,28.961038708333334,29.070760656250002,62.0,83.0
205,28.961038708333334,29.084649510416668,43.0,112.0
206,29.294371208333335,29.390204302083333,67.0,99.0
207,29.294371208333335,29.398537614583336,62.0,90.0
208,29.294371208333335,29.398537614583336,70.0,102.0
209,29.961036208333336,30.027702708333337,70.0,95.0
210,29.961036208333336,30.05548041666667,62.0,89.0
211,29.961036208333336,30.063813729166668,67.0,96.0
212,29.627703708333335,30.07075815625,43.0,99.0
213,30.294368708333334,30.687423281250002,36.0,102.0
214,30.627701208333335,30.722145416666667,60.0,86.0
215,30.627701208333335,30.722145416666667,64.0,93.0
216,30.627701208333335,30.723534302083333,67.0,86.0
217,30.961033708333336,31.049922375,69.0,99.0
218,30.961033708333336,31.067977885416667,65.0,107.0
219,30.961033708333336,31.083255625000003,41.0,95.0
220,31.294366208333336,31.39297707291667,60.0,89.0
221,31.294366208333336,31.3999215,67.0,89.0
222,31.294366208333336,31.405477041666668,64.0,90.0
223,31.294366208333336,31.43881029166667,36.0,88.0
224,31.627698708333334,31.95130901041667,60.0,95.0
225,31.627698708333334,31.965197864583335,69.0,102.0
226,31.627698708333334,31.9749200625,41.0,102.0
227,31.627698708333334,31.9749200625,65.0,107.0
228,32.294363708333336,32.48464101041667,36.0,96.0
229,32.62769620833333,32.716584875,69.0,76.0
230,32.62769620833333,32.72214041666667,65.0,75.0
231,32.62769620833333,32.7332515,60.0,72.0
232,32.96102870833334,33.051306260416666,69.0,69.0
233,32.96102870833334,33.05686180208333,65.0,74.0
234,32.96102870833334,33.059639572916666,60.0,77.0
235,33.294361208333335,33.38880541666667,65.0,79.0
236,33.294361208333335,33.39019430208334,69.0,72.0
237,33.294361208333335,33.406860927083336,60.0,81.0
238,33.62769370833333,33.763804479166666,60.0,92.0
239,33.62769370833333,33.77352667708333,36.0,93.0
240,33.62769370833333,33.808248812500004,64.0,88.0
241,34.294358708333334,34.35269189583334,55.0,63.0
242,34.294358708333334,34.41796951041667,60.0,96.0
243,34.294358708333334,34.431858364583334,64.0,86.0
244,34.294358708333334,34.45269164583333,36.0,79.0
245,34.961023708333336,36.316575875000005,65.0,90.0
246,34.961023708333336,36.31796476041667,69.0,85.0
247,34.961023708333336,36.32352030208334,60.0,90.0
248,34.961023708333336,36.34296469791667,41.0,93.0
249,36.29435370833333,36.34296469791667,41.0,90.0
250,36.961018708333334,37.38740653125,36.0,103.0
251,37.627683708333336,38.13879354166667,41.0,103.0
252,38.29434870833334,38.6915699375,36.0,100.0
253,38.96101370833333,39.44017917708334,43.0,98.0
254,39.627678708333335,40.14017742708334,36.0,96.0
255,40.29434370833334,40.465176614583335,41.0,94.0
256,40.627676208333334,40.849897875,36.0,92.0
257,40.96100870833334,41.33600777083333,41.0,91.0
258,41.96100620833334,42.04295044791667,60.0,79.0
259,41.96100620833334,42.04850598958333,65.0,83.0
260,41.96100620833334,42.0582281875,69.0,78.0
261,41.62767370833333,42.091561437500005,41.0,93.0
262,42.62767120833333,42.71378210416667,69.0,71.0
263,42.62767120833333,42.716559875,60.0,77.0
264,42.62767120833333,42.716559875,65.0,78.0
265,42.294338708333335,42.74711535416667,36.0,93.0
266,42.96100370833334,43.054059031250006,60.0,81.0
267,42.96100370833334,43.066559000000005,69.0,89.0
268,42.96100370833334,43.070725656250005,65.0,93.0
269,42.96100370833334,43.09850336458334,41.0,92.0
270,43.294336208333334,43.40405815625,64.0,89.0
271,43.294336208333334,43.40544704166667,60.0,88.0
272,43.294336208333334,43.42072478125,67.0,86.0
273,43.294336208333334,43.48461351041667,36.0,90.0
274,43.62766870833334,43.799890500000004,60.0,93.0
275,43.62766870833334,43.80544604166667,65.0,99.0
276,43.62766870833334,43.80544604166667,69.0,95.0
277,43.62766870833334,43.823501552083336,41.0,107.0
278,44.29433370833333,44.556833052083334,41.0,89.0
279,44.62766620833334,44.7082215625,69.0,74.0
280,44.62766620833334,44.71377710416667,65.0,88.0
281,44.62766620833334,44.74294369791667,60.0,90.0
282,45.29433120833333,45.38738653125,62.0,92.0
283,45.29433120833333,45.38877541666667,58.0,100.0
284,44.960998708333335,45.40960869791667,46.0,69.0
285,45.29433120833333,45.40960869791667,65.0,85.0
286,45.62766370833334,45.713774604166666,55.0,74.0
287,45.62766370833334,45.74294119791667,60.0,88.0
288,45.62766370833334,45.74433008333334,48.0,81.0
289,45.62766370833334,45.745718968750005,64.0,79.0
290,45.960996208333334,46.085995895833335,55.0,90.0
291,45.960996208333334,46.133218,43.0,88.0
292,46.29432870833334,46.52905034375,60.0,95.0
293,46.29432870833334,46.533217,55.0,86.0
294,46.29432870833334,46.533217,64.0,86.0
295,46.29432870833334,46.54710585416667,48.0,95.0
296,46.96099370833333,47.30543729166667,48.0,93.0
297,47.29432620833334,47.39015930208333,55.0,83.0
298,47.29432620833334,47.39015930208333,60.0,93.0
299,47.29432620833334,47.401270385416666,64.0,82.0
300,47.627658708333335,47.99849111458334,48.0,86.0
301,47.96099120833333,48.02904659375,55.0,82.0
302,47.96099120833333,48.03460213541667,60.0,89.0
303,47.96099120833333,48.05543541666667,64.0,85.0
304,48.627656208333335,48.71932264583334,60.0,89.0
305,48.627656208333335,48.720711531250004,69.0,88.0
306,48.627656208333335,48.72765595833334,65.0,95.0
307,48.29432370833334,48.73043372916667,41.0,76.0
308,48.96098870833334,49.32209891666667,41.0,93.0
309,49.294321208333336,49.37070990625,65.0,93.0
310,49.294321208333336,49.37626544791667,69.0,85.0
311,49.294321208333336,49.383209875000006,60.0,88.0
312,49.627653708333334,49.9248751875,50.0,95.0
313,49.96098620833334,50.040152677083334,65.0,86.0
314,49.96098620833334,50.04570821875,57.0,83.0
315,49.96098620833334,50.048485989583334,62.0,96.0
316,50.62765120833333,50.702651020833336,69.0,90.0
317,50.294318708333336,50.7082065625,41.0,88.0
318,50.62765120833333,50.715150989583336,60.0,92.0
319,50.62765120833333,50.72070653125,65.0,100.0
320,50.96098370833334,50.99709472916667,70.0,102.0
321,50.96931702083334,50.99709472916667,70.0,42.0
322,50.94292819791667,51.06515011458334,43.0,99.0
323,50.96098370833334,51.06515011458334,43.0,107.0
324,50.945705968750005,51.07348342708334,67.0,93.0
325,50.96098370833334,51.07348342708334,67.0,92.0
326,50.954039281250004,51.083205625000005,62.0,79.0
327,51.28876066666667,51.406815927083336,62.0,79.0
328,51.294316208333335,51.406815927083336,62.0,100.0
329,51.283205125,51.41376035416667,65.0,82.0
330,51.2915384375,51.427649208333335,69.0,85.0
331,51.277649583333336,51.440149177083335,38.0,86.0
332,51.294316208333335,51.440149177083335,38.0,93.0
333,51.62764870833334,51.83042597916667,67.0,97.0
334,51.64014867708334,51.83042597916667,67.0,99.0
335,51.62764870833334,51.831814864583336,62.0,96.0
336,51.63459313541667,51.831814864583336,62.0,89.0
337,51.62764870833334,51.835981520833336,43.0,117.0
338,51.641537562500005,51.835981520833336,43.0,112.0
339,51.62764870833334,51.83737040625,70.0,117.0
340,51.637370906250005,51.83737040625,70.0,107.0
341,52.294313708333334,52.68736828125,41.0,96.0
342,52.62764620833334,52.71792376041667,65.0,77.0
343,52.62764620833334,52.73042372916667,69.0,66.0
344,52.62764620833334,52.73181261458333,60.0,85.0
345,53.29431120833333,53.362366593750004,65.0,73.0
346,53.29431120833333,53.36653325,60.0,72.0
347,53.29431120833333,53.3748665625,69.0,66.0
348,52.960978708333336,53.3998665,41.0,92.0
349,53.62764370833334,53.74708785416667,71.0,93.0
350,53.62764370833334,53.754032281250005,67.0,117.0
351,53.62764370833334,53.78597664583334,43.0,100.0
352,53.960976208333335,54.06514261458334,71.0,76.0
353,53.960976208333335,54.07069815625,43.0,107.0
354,53.960976208333335,54.07069815625,67.0,85.0
355,53.960976208333335,54.083198125,62.0,82.0
356,54.29430870833334,54.51236371875,64.0,93.0
357,54.29430870833334,54.52069703125,60.0,90.0
358,54.29430870833334,54.523474802083335,36.0,95.0
359,54.29430870833334,54.52625257291667,67.0,88.0
360,54.960973708333334,55.329028343750004,41.0,93.0
361,55.29430620833334,55.37208379166667,65.0,93.0
362,55.29430620833334,55.390139302083334,69.0,88.0
363,55.29430620833334,55.3915281875,60.0,93.0
364,55.627638708333336,56.02208216666667,41.0,99.0
365,55.96097120833333,56.04291544791667,69.0,75.0
366,55.96097120833333,56.052637645833336,65.0,89.0
367,55.96097120833333,56.05541541666667,60.0,85.0
368,56.29430370833334,56.3915256875,62.0,96.0
369,56.29430370833334,56.40124788541667,71.0,96.0
370,56.29430370833334,56.40541454166667,43.0,99.0
371,56.29430370833334,56.40680342708334,67.0,96.0
372,56.627636208333335,56.73596927083334,43.0,107.0
373,56.627636208333335,56.73596927083334,62.0,92.0
374,56.627636208333335,56.75402478125,67.0,97.0
375,56.96096870833334,57.120690531250006,64.0,93.0
376,56.96096870833334,57.12624607291667,60.0,92.0
377,56.96096870833334,57.13180161458334,67.0,92.0
378,56.96096870833334,57.16652375,36.0,95.0
379,57.96096620833334,58.048465989583335,65.0,92.0
380,57.627633708333335,58.052632645833334,41.0,102.0
381,57.96096620833334,58.052632645833334,60.0,93.0
382,57.96096620833334,58.060965958333334,69.0,85.0
383,58.294298708333336,58.70124213541667,36.0,97.0
384,58.627631208333334,58.70124213541667,65.0,90.0
385,58.627631208333334,58.71374210416667,60.0,88.0
386,58.627631208333334,58.715130989583336,69.0,83.0
387,59.294296208333336,59.36512936458334,65.0,95.0
388,58.96096370833334,59.38179598958334,41.0,96.0
389,59.294296208333336,59.383184875000005,60.0,93.0
390,59.294296208333336,59.38596264583334,69.0,92.0
391,59.96096120833334,60.03734990625,65.0,92.0
392,59.96096120833334,60.04290544791667,69.0,85.0
393,59.96096120833334,60.04846098958333,60.0,93.0
394,59.62762870833333,60.070683156250006,36.0,88.0
395,60.62762620833334,60.69984825,69.0,81.0
396,60.62762620833334,60.70123713541667,65.0,93.0
397,60.294293708333335,60.74290369791667,41.0,99.0
398,60.96095870833334,61.17484706250001,38.0,89.0
399,61.294291208333334,61.40123538541667,62.0,86.0
400,61.294291208333334,61.419290895833335,57.0,83.0
401,61.294291208333334,61.4248464375,65.0,82.0
402,61.62762370833334,61.754012281250006,38.0,93.0
403,61.62762370833334,61.758178937500006,62.0,112.0
404,61.960956208333336,62.10123363541667,65.0,107.0
405,61.960956208333336,62.10956694791667,41.0,92.0
406,62.29428870833333,62.47206604166667,43.0,122.0
407,62.29428870833333,62.479010468750005,67.0,112.0
408,62.62762120833334,62.758176437500005,62.0,99.0
409,62.62762120833334,62.76095420833334,70.0,95.0
410,62.62762120833334,62.76789863541667,67.0,96.0
411,62.960953708333335,63.33039722916667,41.0,99.0
412,63.29428620833334,63.3915081875,65.0,96.0
413,63.29428620833334,63.40539704166667,69.0,88.0
414,63.29428620833334,63.4081748125,60.0,93.0
415,63.62761870833334,63.9415068125,38.0,93.0
416,63.960951208333334,64.05122876041666,65.0,95.0
417,63.960951208333334,64.05400653125001,62.0,82.0
418,63.960951208333334,64.07622869791668,69.0,92.0
419,64.29428370833334,64.46511661458334,62.0,97.0
420,64.29428370833334,64.46511661458334,65.0,96.0
421,64.29428370833334,64.47900546875,38.0,99.0
422,64.62761620833334,64.74011592708334,65.0,97.0
423,64.62761620833334,64.75261589583333,69.0,93.0
424,64.62761620833334,64.78594914583334,41.0,97.0
425,64.96094870833333,65.06372622916668,67.0,93.0
426,64.96094870833333,65.06789288541667,70.0,112.0
427,64.96094870833333,65.07067065625,62.0,83.0
428,64.96094870833333,65.08455951041667,43.0,112.0
429,65.29428120833333,65.39011430208333,67.0,99.0
430,65.29428120833333,65.39844761458333,62.0,90.0
431,65.29428120833333,65.39844761458333,70.0,102.0
432,65.96094620833334,66.02761270833334,70.0,95.0
433,65.96094620833334,66.05539041666667,62.0,89.0
434,65.96094620833334,66.06372372916667,67.0,96.0
435,65.62761370833334,66.07066815625001,43.0,99.0
436,66.29427870833334,66.68733328125,36.0,102.0
437,66.62761120833333,66.72205541666668,60.0,86.0
438,66.62761120833333,66.72205541666668,64.0,93.0
439,66.62761120833333,66.72344430208334,67.0,86.0
440,66.96094370833333,67.04983237500001,69.0,99.0
441,66.96094370833333,67.06788788541667,65.0,107.0
442,66.96094370833333,67.083165625,41.0,95.0
443,67.29427620833334,67.39288707291666,60.0,89.0
444,67.29427620833334,67.3998315,67.0,89.0
445,67.29427620833334,67.40538704166667,64.0,90.0
446,67.29427620833334,67.43872029166667,36.0,88.0
447,67.62760870833334,67.95121901041666,60.0,95.0
448,67.62760870833334,67.96510786458333,69.0,102.0
449,67.62760870833334,67.9748300625,41.0,102.0
450,67.62760870833334,67.9748300625,65.0,107.0
451,68.29427370833334,68.48455101041667,36.0,96.0
452,68.62760620833333,68.71649487500001,69.0,76.0
453,68.62760620833333,68.72205041666668,65.0,75.0
454,68.62760620833333,68.73316150000001,60.0,72.0
455,68.96093870833333,69.05121626041667,69.0,69.0
456,68.96093870833333,69.05677180208333,65.0,74.0
457,68.96093870833333,69.05954957291667,60.0,77.0
458,69.29427120833334,69.38871541666667,65.0,79.0
459,69.29427120833334,69.39010430208333,69.0,72.0
460,69.29427120833334,69.40677092708334,60.0,81.0
461,69.62760370833334,69.76371447916667,60.0,92.0
462,69.62760370833334,69.77343667708334,36.0,93.0
463,69.62760370833334,69.8081588125,64.0,88.0
464,70.29426870833333,70.35260189583333,55.0,63.0
465,70.29426870833333,70.41787951041667,60.0,96.0
466,70.29426870833333,70.43176836458333,64.0,86.0
467,70.29426870833333,70.45260164583334,36.0,79.0
468,70.96093370833334,71.83176486458333,41.0,93.0
469,70.96093370833334,71.83176486458333,60.0,90.0
470,70.96093370833334,71.83176486458333,65.0,90.0
471,70.96093370833334,71.83176486458333,69.0,85.0
472,71.96093120833334,72.0581531875,60.0,89.0
473,71.96093120833334,72.06093095833334,64.0,92.0
474,71.96093120833334,72.06370872916668,48.0,99.0
475,71.96093120833334,72.06787538541667,67.0,86.0
476,72.29426370833333,72.53176311458334,53.0,107.0
477,72.29426370833333,72.53592977083333,60.0,102.0
478,72.29426370833333,72.53731865625001,65.0,102.0
479,72.29426370833333,72.54009642708334,69.0,102.0
480,72.29426370833333,72.56092970833333,41.0,55.0
