,start,end,pitch,velocity
0,32.11932139375,32.424245666666664,70.0,117.0
1,32.346594143749996,32.8750032875,71.0,114.0
2,32.80113964375,33.16098816458333,73.0,113.0
3,33.02841239375,33.445079102083334,75.0,116.0
4,33.25568514375,33.668563972916665,73.0,113.0
5,33.48295789375,34.049245829166665,70.0,113.0
6,34.61932164375,35.068185325,66.0,119.0
7,34.84659439375,35.33144292708333,63.0,116.0
8,35.30113989375,35.86363995,73.0,119.0
9,35.75568539375,36.327655147916666,71.0,117.0
10,36.21023089375,36.75568549375,70.0,123.0
11,36.66477639375,37.50000375,71.0,117.0
12,37.34659464375,37.95454925,68.0,119.0
13,39.39204939375,39.82576155833333,68.0,116.0
14,39.61932214375,40.15341310625,75.0,119.0
15,40.07386764375,40.51894344583334,73.0,119.0
16,40.301140393749996,41.06061016666666,70.0,119.0
17,40.98295864375,41.96970116666667,66.0,116.0
18,42.11932239375,42.803034583333336,70.0,123.0
19,42.80114064375,43.291670995833336,66.0,119.0
20,43.48295889375,44.05114076875,76.0,114.0
21,43.93750439375,45.568186375,75.0,119.0
22,47.11932289375,47.45644413958333,75.0,106.0
23,47.34659564375,47.45644413958333,75.0,100.0
24,47.57386839375,48.047353289583334,73.0,113.0
25,48.02841389375,49.39394433333333,78.0,119.0
26,50.30114139375,50.76515659166667,78.0,103.0
27,50.75568689375,51.15530814583333,73.0,103.0
28,50.98295964375,51.367429379166666,75.0,106.0
29,51.21023239375,53.1818235,76.0,107.0
30,53.93750539375,54.441293322916664,76.0,113.0
31,54.16477814375,54.71970244166667,75.0,116.0
32,54.61932364375,55.104172177083335,73.0,106.0
33,54.84659639375,55.376899477083334,71.0,102.0
34,55.30114189375,55.75379345416667,73.0,116.0
35,55.52841464375,56.11932379375,68.0,113.0
36,56.66477839375,57.12689965208333,75.0,119.0
37,57.11932389375,57.613642125,68.0,116.0
38,57.57386939375,58.020839135416665,75.0,113.0
39,58.028414893749996,58.395839172916666,75.0,116.0
40,58.25568764375,58.395839172916666,75.0,116.0
41,58.48296039375,59.5454605,73.0,113.0
42,61.43750614375,61.799248604166664,71.0,98.0
43,61.66477889375,61.799248604166664,71.0,94.0
44,61.89205164375,62.320081989583336,73.0,109.0
45,62.11932439375,62.549248679166666,75.0,109.0
46,62.34659714375,62.88068810625,76.0,100.0
47,62.57386989375,63.037885091666666,75.0,109.0
48,62.80114264375,63.51705180625,70.0,113.0
49,63.71023364375,64.159097325,66.0,119.0
50,63.93750639375,64.42235492708333,63.0,116.0
51,64.39205189375,64.95455195,73.0,119.0
52,64.84659739375,65.41856714791666,71.0,117.0
53,65.30114289375,65.84659749375,70.0,123.0
54,65.75568839375,66.386370275,71.0,117.0
55,66.43750664375,67.7272795,68.0,119.0
56,68.48296139375,68.91667355833333,68.0,116.0
57,68.71023414375,69.24432510625,75.0,119.0
58,69.16477964375,69.60985544583333,73.0,119.0
59,69.39205239375,69.98296154375,70.0,119.0
60,70.07387064375,70.58523433125,66.0,116.0
61,71.21023439375,71.89394658333333,70.0,123.0
62,71.89205264375,72.38258299583333,66.0,119.0
63,72.57387089375,73.14205276875,76.0,114.0
64,73.02841639374999,75.454553,75.0,119.0
65,76.21023489375,76.54735613958333,75.0,106.0
66,76.43750764375,76.54735613958333,75.0,100.0
67,76.66478039375,77.13826528958333,73.0,113.0
68,77.11932589375,78.977280625,78.0,119.0
69,79.39205339375,79.85606859166667,78.0,103.0
70,79.84659889375,80.24622014583333,73.0,103.0
71,80.07387164375,80.45834137916667,75.0,106.0
72,80.30114439375,82.2727355,76.0,107.0
73,83.02841739375,83.54356896041666,76.0,116.0
74,83.25569014375,83.68372048958334,78.0,113.0
75,83.71023564375,84.16478114375,76.0,110.0
76,83.93750839375,84.43750844375,75.0,119.0
77,84.39205389375,84.8068266625,76.0,113.0
78,84.61932664375,84.8068266625,76.0,117.0
79,85.75569039375,86.34470560416666,76.0,104.0
80,86.21023589375,86.76516019166667,70.0,116.0
81,86.66478139375,87.13447841041666,71.0,110.0
82,86.89205414375,87.613645125,73.0,116.0
83,87.57387239375,89.69697866666667,71.0,116.0
84,90.75569089375,91.25947882291666,75.0,114.0
85,90.98296364375,91.38258489583333,76.0,110.0
86,91.21023639375,91.7613728125,78.0,116.0
87,91.66478189375,91.7613728125,78.0,113.0
88,92.11932739375,92.68750926875,76.0,114.0
89,92.57387289374999,93.10985779583334,75.0,117.0
90,93.02841839375,93.86364575,73.0,119.0
91,93.93750939375,94.51705490625,76.0,117.0
92,94.39205489375,97.42425216666666,75.0,116.0
93,98.02841889375,98.54925227916667,76.0,113.0
94,98.25569164375,98.70076744583334,78.0,114.0
95,98.48296439375,99.05872202708333,80.0,117.0
96,98.93750989375,99.05872202708333,80.0,117.0
97,99.39205539375,100.13447971041667,78.0,117.0
98,99.84660089375,100.50379792916667,76.0,117.0
99,100.07387364375,100.6250100625,75.0,117.0
100,100.75569189375,101.19697981666667,66.0,108.0
101,101.21023739375,101.659101075,76.0,113.0
102,101.43751014375,102.03788899166666,75.0,114.0
103,102.11932839375,104.0909195,73.0,117.0
104,105.30114689375,105.75569239375,75.0,116.0
105,105.52841964375,106.00190453958334,73.0,114.0
106,105.75569239375,106.340919725,71.0,114.0
107,106.21023789375,106.55304095833333,73.0,116.0
108,106.43751064375,106.55304095833333,73.0,114.0
109,106.66478339375,107.272738,75.0,119.0
110,107.11932889375,107.67425319166666,80.0,119.0
111,107.80114714375,108.24243506666667,79.0,123.0
112,108.02841989375,108.3750108375,75.0,113.0
113,108.25569264375,108.3750108375,75.0,116.0
114,108.48296539374999,109.00379877916667,73.0,114.0
115,108.93751089375,109.45076852083334,75.0,116.0
116,110.07387464375,110.41667770833334,71.0,114.0
117,110.30114739375,110.41667770833334,71.0,114.0
118,110.75569289375,111.42614750625,80.0,117.0
119,111.21023839375,112.840920375,78.0,119.0
120,113.02842039375,113.65531439583333,76.0,116.0
121,113.71023864375,114.09470837916666,75.0,117.0
122,113.93751139375,114.42993568541667,76.0,116.0
123,114.39205689375,114.89395088333333,78.0,119.0
124,114.84660239375,115.40531457083333,76.0,117.0
125,115.52842064375,116.21781465208333,68.0,114.0
126,116.21023889375,116.70645106458333,75.0,117.0
127,116.66478439375,116.70645106458333,75.0,116.0
128,117.11932989375,119.090921,73.0,117.0
129,119.84660289375,120.35039082291667,75.0,114.0
130,120.07387564375,120.47349689583334,76.0,110.0
131,120.30114839375,120.8522848125,78.0,116.0
132,120.75569389375,120.8522848125,78.0,113.0
133,121.21023939375,121.77842126875,76.0,114.0
134,121.66478489375,122.20076979583334,75.0,117.0
135,122.11933039375,123.068194125,73.0,119.0
136,123.02842139375,123.60796690625,76.0,117.0
137,123.48296689375,125.9091035,75.0,116.0
138,127.11933089375,127.64016427916667,76.0,113.0
139,127.34660364375,127.79167944583334,78.0,114.0
140,127.57387639375,128.14963402708332,80.0,117.0
141,128.02842189375,128.14963402708332,80.0,117.0
142,128.48296739375,129.22539171041666,78.0,117.0
143,128.93751289375,129.59470992916667,76.0,117.0
144,129.16478564375,129.7159220625,75.0,117.0
145,129.84660389375,130.28789181666667,66.0,108.0
146,130.30114939375,130.750013075,76.0,113.0
147,130.52842214375,131.3636495,75.0,114.0
148,131.21024039375,133.636377,73.0,117.0
149,134.39205889375,134.84660439375,75.0,116.0
150,134.61933164375,135.09281653958334,73.0,114.0
151,134.84660439375,135.431831725,71.0,114.0
152,135.30114989375,135.64395295833333,73.0,116.0
153,135.52842264375,135.64395295833333,73.0,114.0
154,135.75569539375,136.21971059166665,75.0,119.0
155,136.21024089375,136.76516519166665,80.0,119.0
156,136.89205914375,137.33334706666668,79.0,123.0
157,137.11933189375,137.4659228375,75.0,113.0
158,137.34660464375,137.4659228375,75.0,116.0
159,137.57387739375,138.09471077916666,73.0,114.0
160,138.02842289375,138.54168052083332,75.0,116.0
161,139.16478664375,139.52842304375,71.0,113.0
162,139.39205939375,139.82008973958332,80.0,117.0
163,139.61933214375,139.82008973958332,80.0,113.0
164,140.07387764375,140.49812011041666,78.0,116.0
165,140.30115039375,140.80304438333334,80.0,119.0
166,140.75569589375,141.19508987708332,78.0,110.0
167,140.98296864375,141.52463536458333,75.0,113.0
168,141.66478689375,142.24243846666667,78.0,116.0
169,142.11933239375,143.40910525,75.0,116.0
170,143.48296889375,144.545469,70.0,119.0
171,144.84660539375,145.5113781875,73.0,116.0
172,145.30115089375,147.57577233333333,71.0,116.0
173,148.93751489375,149.37880281666668,71.0,114.0
174,149.16478764375,149.53789374166666,73.0,108.0
175,149.39206039375,149.99243924166666,75.0,117.0
176,149.84660589375,150.52653020416668,70.0,119.0
177,150.30115139375,150.94698479166667,71.0,116.0
178,150.75569689375,151.21213633333332,73.0,117.0
179,152.57387889375,152.94887893125,70.0,117.0
180,152.80115164375,152.94887893125,70.0,104.0
181,153.02842439375,154.24243966666666,71.0,117.0
182,156.21024289375,156.66100051458332,73.0,117.0
183,156.43751564375,156.86743992916666,75.0,114.0
184,156.66478839375,157.31062179166668,76.0,117.0
185,157.11933389375,157.67615213125,73.0,117.0
186,157.57387939375,158.12690975208332,75.0,116.0
187,158.02842489374999,158.58524313125,76.0,119.0
188,159.39206139375,160.30304633333333,66.0,117.0
189,160.30115239375,160.86744032916667,75.0,113.0
190,160.75569789375,162.95456175,73.0,117.0
191,163.48297089375,163.97918306458334,75.0,116.0
192,163.71024364375,164.11744065416667,76.0,104.0
193,163.93751639375,164.47539523541667,78.0,119.0
194,164.39206189375,164.92425891666667,75.0,117.0
195,164.84660739375,165.386380175,76.0,117.0
196,165.30115289375,166.13638025,78.0,117.0
197,166.66478939375,167.23107732916665,68.0,120.0
198,167.34660764375,167.74244101666667,78.0,116.0
199,167.57388039375,167.74244101666667,78.0,116.0
200,167.80115314374999,170.15153216666667,76.0,119.0
201,170.52842614375,170.97350194583333,76.0,110.0
202,170.75569889375,171.18941105833332,73.0,114.0
203,170.98297164375,171.37880501666666,75.0,114.0
204,171.21024439375,171.85039597291666,76.0,117.0
205,172.11933539375,172.66100211458334,78.0,116.0
206,172.57388089375,173.24433550625,76.0,117.0
207,173.48297189375,174.04925982916666,76.0,114.0
208,173.93751739375,174.82388111875,79.0,123.0
209,174.84660839375,177.840926875,78.0,123.0
210,178.02842689375,178.53221482291667,75.0,114.0
211,178.25569964375,178.65532089583334,76.0,110.0
212,178.48297239375,179.0341088125,78.0,116.0
213,178.93751789375,179.0341088125,78.0,113.0
214,179.39206339375,179.96024526875,76.0,114.0
215,179.84660889375,180.38259379583334,75.0,117.0
216,180.30115439375,180.96971506666668,73.0,119.0
217,181.21024539375,181.78979090625,76.0,117.0
218,181.66479089375,184.77274575,75.0,116.0
219,185.30115489375,185.82198827916667,76.0,113.0
220,185.52842764375,185.97350344583333,78.0,114.0
221,185.75570039375,186.33145802708333,80.0,117.0
222,186.21024589375,186.33145802708333,80.0,117.0
223,186.66479139375,187.40721571041666,78.0,117.0
224,187.11933689375,187.77653392916667,76.0,117.0
225,187.34660964374999,187.8977460625,75.0,117.0
226,188.02842789375,188.46971581666668,66.0,108.0
227,188.48297339375,188.931837075,76.0,113.0
228,188.71024614375,189.31062499166666,75.0,114.0
229,189.39206439375,192.2727465,73.0,117.0
230,192.57388289375,193.02842839375,75.0,116.0
231,192.80115564375,193.27464053958334,73.0,114.0
232,193.02842839375,193.613655725,71.0,114.0
233,193.48297389375,193.82577695833334,73.0,116.0
234,193.71024664375,193.82577695833334,73.0,114.0
235,193.93751939375,194.40153459166666,75.0,119.0
236,194.39206489375,194.94698919166666,80.0,119.0
237,195.07388314375,195.51517106666665,79.0,123.0
238,195.30115589375,195.6477468375,75.0,113.0
239,195.52842864375,195.6477468375,75.0,116.0
240,195.75570139375,196.27653477916667,73.0,114.0
241,196.21024689375,196.72350452083333,75.0,116.0
242,197.34661064375,197.68941370833332,71.0,114.0
243,197.57388339375,197.68941370833332,71.0,114.0
244,198.02842889375,198.69888350625,80.0,117.0
245,198.48297439375,200.00002,78.0,119.0
246,200.30115639375,200.92805039583334,76.0,116.0
247,200.98297464375,201.36744437916667,75.0,117.0
248,201.21024739375,201.70267168541668,76.0,116.0
249,201.66479289375,202.16668688333334,78.0,119.0
250,202.11933839375,202.67805057083334,76.0,117.0
251,202.80115664375,203.49055065208333,68.0,114.0
252,203.48297489375,203.97918706458333,75.0,117.0
253,203.93752039375,203.97918706458333,75.0,116.0
254,204.39206589375,206.59092975,73.0,117.0
255,207.11933889375,207.62312682291667,75.0,114.0
256,207.34661164375,207.74623289583334,76.0,110.0
257,207.57388439375,208.1250208125,78.0,116.0
258,208.02842989375,208.1250208125,78.0,113.0
259,208.48297539375,209.05115726875,76.0,114.0
260,208.93752089375,209.47350579583332,75.0,117.0
261,209.39206639374999,210.4545665,73.0,119.0
262,210.30115739375,210.88070290625,76.0,117.0
263,210.75570289375,212.95456675,75.0,116.0
264,214.39206689375,214.91290027916668,76.0,113.0
265,214.61933964375,215.06441544583333,78.0,114.0
266,214.84661239375,215.42237002708333,80.0,117.0
267,215.30115789375,215.42237002708333,80.0,117.0
268,215.75570339375,216.49812771041667,78.0,117.0
269,216.21024889375,216.86744592916668,76.0,117.0
270,216.43752164375,216.9886580625,75.0,117.0
271,217.11933989375,217.56062781666665,66.0,108.0
272,217.57388539375,218.022749075,76.0,113.0
273,217.80115814375,218.40153699166666,75.0,114.0
274,218.48297639375,220.68184025,73.0,117.0
275,221.66479489375,222.11934039375,75.0,116.0
276,221.89206764375,222.36555253958332,73.0,114.0
277,222.11934039375,222.704567725,71.0,114.0
278,222.57388589375,222.91668895833334,73.0,116.0
279,222.80115864375,222.91668895833334,73.0,114.0
280,223.02843139375,223.49244659166666,75.0,119.0
281,223.48297689375,224.0909315,80.0,119.0
282,224.16479514375,224.60608306666666,79.0,123.0
283,224.39206789375,224.7386588375,75.0,113.0
284,224.61934064375,224.7386588375,75.0,116.0
285,224.84661339375,225.36744677916667,73.0,114.0
286,225.30115889375,226.13638625,75.0,116.0
287,226.43752264375,226.84471965416665,71.0,113.0
288,226.66479539375,227.07199240416668,80.0,117.0
289,226.89206814375,227.07199240416668,80.0,116.0
290,227.34661364375,227.75381065416667,78.0,117.0
291,227.57388639375,228.12312887291665,80.0,117.0
292,228.02843189375,228.46782587708333,78.0,113.0
293,228.25570464375,229.090932,75.0,116.0
294,228.93752289374999,229.58525023125,78.0,116.0
295,229.39206839375,230.75759883333333,75.0,119.0
296,230.75570489375,231.44131102291666,70.0,119.0
297,232.11934139375,232.71025054375,75.0,116.0
298,232.57388689375,235.07578108333334,71.0,110.0
