,start,end,pitch,velocity
0,3.93750039375,6.803030983333334,70.0,93.0
1,3.93750039375,6.8181825,66.0,100.0
2,3.93750039375,6.833334016666667,63.0,92.0
3,3.93750039375,7.092803739583333,71.0,91.0
4,3.93750039375,7.1931825375,47.0,91.0
5,7.57386439375,10.522728325,52.0,81.0
6,7.57386439375,10.568182875,75.0,82.0
7,7.57386439375,10.589016210416666,64.0,86.0
8,7.57386439375,10.589016210416666,68.0,85.0
9,7.57386439375,10.61931924375,40.0,84.0
10,7.57386439375,10.61931924375,71.0,84.0
11,11.21022839375,14.070077164583333,64.0,86.0
12,11.21022839375,14.071971104166666,73.0,88.0
13,11.21022839375,14.094698379166667,70.0,88.0
14,11.21022839375,14.195077177083334,42.0,86.0
15,14.846592393749999,16.31250163125,70.0,87.0
16,14.846592393749999,17.01515321666667,47.0,84.0
17,14.846592393749999,17.09659261875,63.0,84.0
18,14.846592393749999,17.126895652083334,71.0,87.0
19,14.846592393749999,17.13636535,66.0,88.0
20,18.48295639375,21.287880916666666,71.0,91.0
21,18.48295639375,21.30113849375,64.0,88.0
22,18.48295639375,21.310608191666667,73.0,91.0
23,18.48295639375,21.32386576875,69.0,93.0
24,18.48295639375,21.325759708333333,45.0,83.0
25,22.11932039375,24.935608554166667,71.0,94.0
26,22.11932039375,24.950760070833333,67.0,84.0
27,22.11932039375,25.026517654166668,74.0,84.0
28,22.11932039375,25.041669170833334,43.0,81.0
29,25.75568439375,28.49432103125,71.0,87.0
30,25.75568439375,28.5113664875,66.0,89.0
31,25.75568439375,28.515154366666668,64.0,87.0
32,25.75568439375,28.518942245833333,68.0,90.0
33,25.75568439375,28.55303315833333,40.0,86.0
34,29.39204839375,32.41666990833333,42.0,82.0
35,29.39204839375,32.498109310416666,70.0,87.0
36,29.39204839375,32.51704870625,64.0,87.0
37,29.39204839375,32.522730525,66.0,87.0
38,29.39204839375,32.53030628333333,61.0,84.0
39,33.02841239375,33.812503381249996,61.0,89.0
40,33.02841239375,33.89583672291667,66.0,90.0
41,33.48295789375,35.895836922916665,54.0,36.0
42,33.02841239375,36.08712482083333,47.0,87.0
43,33.93750339375,36.20265513541667,70.0,90.0
44,33.93750339375,36.250003625,61.0,76.0
45,34.61932164375,36.2613672625,66.0,84.0
46,36.66477639375,38.9204584375,59.0,83.0
47,37.57386739375,39.21023119375,63.0,75.0
48,36.66477639375,39.28598877708333,68.0,91.0
49,39.16477664375,39.67992821041667,59.0,71.0
50,36.66477639375,39.70265548541666,52.0,80.0
51,39.39204939375,39.83144337708333,63.0,88.0
52,40.301140393749996,41.12311017291667,66.0,86.0
53,40.301140393749996,41.214019272916666,58.0,84.0
54,41.66477689375,42.96023156875,64.0,84.0
55,42.80114064375,43.11932249375,61.0,86.0
56,40.301140393749996,43.1250043125,42.0,81.0
57,40.75568589375,43.16288310416667,49.0,56.0
58,41.66477689375,43.22727705,58.0,81.0
59,41.21023139375,43.31250433125,54.0,71.0
60,43.93750439375,45.31250453125,70.0,89.0
61,43.93750439375,45.32386816875,63.0,88.0
62,45.30114089375,46.39962585208333,66.0,85.0
63,46.66477739375,47.05303500833333,59.0,71.0
64,45.30114089375,47.10417137708333,61.0,83.0
65,44.39204989375,47.13636835,54.0,40.0
66,43.93750439375,47.19886835625,47.0,82.0
67,47.11932289375,47.37311079791667,63.0,76.0
68,47.57386839375,48.522732125,66.0,88.0
69,47.57386839375,48.59091395,61.0,90.0
70,48.93750489375,49.82576255833333,59.0,81.0
71,48.48295939375,50.50568686875,57.0,65.0
72,48.02841389375,50.55303535833333,52.0,54.0
73,47.57386839375,50.65152021666667,45.0,79.0
74,48.93750489375,50.86174751041666,66.0,84.0
75,49.84659589375,51.15341420625,61.0,83.0
76,51.21023239375,52.42614160625,64.0,89.0
77,51.21023239375,52.44697494166667,59.0,89.0
78,52.57386889375,53.29735381458333,56.0,80.0
79,51.21023239375,54.20265693541667,40.0,77.0
80,52.11932339375,54.23674784791667,52.0,38.0
81,52.57386889375,54.63258122083333,63.0,84.0
82,53.48295989375,54.70644486458333,59.0,86.0
83,56.21023289375,56.67614203125,59.0,81.0
84,56.66477839375,57.8522785125,66.0,77.0
85,54.84659639375,58.21212703333333,42.0,80.0
86,55.30114189375,58.26894522083333,49.0,75.0
87,55.75568739375,58.5113694875,54.0,73.0
88,56.66477839375,59.0000059,58.0,82.0
89,57.57386939375,59.020839235416666,61.0,79.0
90,59.39205139375,60.35985452083333,54.0,81.0
91,59.84659689375,60.886369725,64.0,91.0
92,59.84659689375,60.92235457708333,58.0,86.0
93,58.48296039375,61.479172814583336,42.0,77.0
94,60.75568789375,61.4886425125,54.0,82.0
95,61.21023339375,61.498112210416664,58.0,102.0
96,58.93750589375,61.54735463958333,49.0,38.0
97,61.43750614375,61.628794041666666,61.0,88.0
98,62.11932439375,63.00947599791667,61.0,86.0
99,62.11932439375,63.00947599791667,70.0,88.0
100,63.48296089375,63.9204609375,61.0,81.0
101,63.02841539375,64.35417310208334,59.0,75.0
102,63.48296089375,64.85796103125,66.0,86.0
103,64.84659739375,65.1704610625,59.0,82.0
104,63.93750639375,65.25568834375,63.0,80.0
105,62.11932439375,65.26894592083333,47.0,83.0
106,62.57386989375,65.27841561875,54.0,38.0
107,65.30114289375,65.6250065625,61.0,88.0
108,65.30114289375,65.79735506458333,66.0,87.0
109,65.75568839375,66.64773393749999,64.0,89.0
110,66.66477939375,67.23106732916666,70.0,107.0
111,67.80114314375,68.33144622708333,63.0,68.0
112,65.75568839375,68.340915925,59.0,86.0
113,67.34659764375,68.41288562916667,66.0,86.0
114,65.75568839375,68.91099173958334,52.0,81.0
115,68.48296139375,68.96970386666666,59.0,91.0
116,68.48296139375,69.13258267083333,66.0,87.0
117,68.93750689375,69.295461475,63.0,77.0
118,69.39205239375,70.02084033541666,58.0,93.0
119,69.39205239375,70.03977973125,64.0,92.0
120,70.30114339375,71.12690105208333,66.0,89.0
121,70.30114339375,71.18750711875,58.0,86.0
122,70.75568889375,71.41667380833333,54.0,75.0
123,71.21023439375,71.94129507291666,61.0,89.0
124,69.39205239375,72.52652240416667,42.0,84.0
125,71.89205264375,72.59849210833333,58.0,86.0
126,72.11932539375,72.6022799875,66.0,104.0
127,71.66477989375,72.62121938333333,54.0,46.0
128,69.84659789375,72.6250072625,49.0,72.0
129,72.57387089375,72.99053760208334,61.0,86.0
130,73.02841639374999,73.4204618875,59.0,85.0
131,73.02841639374999,73.53031038333333,64.0,88.0
132,74.39205289375,74.78220444791667,63.0,81.0
133,74.84659839375,74.91099233958333,63.0,76.0
134,74.84659839375,75.35606814166667,70.0,108.0
135,75.30114389375,75.35985602083333,66.0,77.0
136,73.93750739375,75.56440149583334,59.0,77.0
137,75.52841664375,75.96970456666666,66.0,114.0
138,75.75568939375,76.022734875,59.0,92.0
139,73.02841639374999,76.13068943125,47.0,84.0
140,73.48296189375,76.14394700833333,54.0,67.0
141,75.98296214375,76.22728035,63.0,92.0
142,76.21023489375,76.6363713,66.0,96.0
143,76.66478039375,77.5113713875,64.0,92.0
144,76.66478039375,77.91667445833333,61.0,91.0
145,78.02841689375,78.45834117916667,61.0,88.0
146,77.57387139375,78.70076544583333,57.0,84.0
147,78.48296239375,79.21781095208333,61.0,86.0
148,78.48296239375,79.31250793125,66.0,100.0
149,78.93750789375,79.55303825833333,57.0,80.0
150,77.11932589375,79.60417462708334,52.0,64.0
151,76.66478039375,79.7613716125,45.0,80.0
152,79.39205339375,79.88068980625,64.0,113.0
153,79.84659889375,80.23675044791666,61.0,98.0
154,80.30114439375,80.80493232291667,64.0,102.0
155,80.30114439375,80.909099,59.0,107.0
156,80.75568989375,81.53978088125,55.0,58.0
157,81.21023539375,81.87311424791666,64.0,88.0
158,81.21023539375,81.99432638125,59.0,90.0
159,81.89205364375,82.48106885416667,55.0,36.0
160,82.11932639375,82.77652342916667,59.0,91.0
161,82.11932639375,82.79167494583334,64.0,92.0
162,82.80114464374999,83.30114469375,55.0,77.0
163,80.30114439375,83.31629621041667,43.0,84.0
164,83.02841739375,83.64394775833334,64.0,102.0
165,83.02841739375,83.85417505208333,59.0,104.0
166,83.93750839375,84.53031148333334,58.0,87.0
167,83.93750839375,84.57765997291666,61.0,91.0
168,84.84659939375,85.5795540125,58.0,89.0
169,84.84659939375,85.67803887083333,61.0,93.0
170,84.39205389375,85.92425101666667,54.0,77.0
171,85.75569039375,86.48296319375,64.0,96.0
172,85.75569039375,86.48485713333334,58.0,90.0
173,86.21023589375,86.84659959375,54.0,72.0
174,83.93750839375,87.22728145,42.0,82.0
175,85.30114489375,87.37311479791667,49.0,76.0
176,86.66478139375,87.57576633333333,61.0,113.0
177,87.57387239375,87.57576633333333,61.0,96.0
178,87.11932689375,87.61175118541667,54.0,69.0
179,87.57387239375,88.0568269875,70.0,87.0
180,88.48296339375,88.84281191458334,61.0,93.0
181,88.48296339375,88.93561495416667,66.0,104.0
182,89.39205439375,90.23106962916667,70.0,89.0
183,89.39205439375,90.35985752083333,63.0,87.0
184,87.57387239375,90.7159181625,47.0,81.0
185,88.93750889375,90.73106967916667,59.0,74.0
186,88.02841789375,90.7386454375,54.0,71.0
187,90.30114539375,90.74811513541667,66.0,113.0
188,90.75569089375,90.89205454375,63.0,88.0
189,91.21023639375,91.78220614791667,64.0,96.0
190,91.21023639375,92.03220617291667,56.0,93.0
191,91.66478189375,92.17425164166667,52.0,74.0
192,91.21023639375,92.68940320833333,40.0,87.0
193,92.11932739375,92.70834260416666,64.0,86.0
194,92.11932739375,92.94697899166667,59.0,107.0
195,92.57387289374999,93.03788809166667,52.0,83.0
196,92.80114564375,93.71970634166667,58.0,81.0
197,92.80114564375,93.76326695208333,61.0,87.0
198,93.02841839375,93.79735786458333,66.0,110.0
199,93.93750939375,94.24622154583334,58.0,102.0
200,94.16478214375,94.35985792083333,61.0,88.0
201,93.02841839375,94.50758520833334,42.0,88.0
202,93.71023664375,94.64016097916667,54.0,89.0
203,93.48296389375,94.67235795208333,49.0,78.0
204,94.39205489375,94.79925190416667,66.0,102.0
205,94.84660039375,95.15531254583334,59.0,102.0
206,94.84660039375,95.2159186125,63.0,104.0
207,94.84660039375,95.25379740416666,66.0,87.0
208,95.52841864375,95.86932776875,56.0,83.0
209,95.75569139375,96.12122173333333,59.0,102.0
210,95.75569139375,96.24811568541666,68.0,113.0
211,96.21023689375,96.70266118541667,56.0,80.0
212,96.66478239375,96.70266118541667,56.0,87.0
213,96.21023689375,96.83713089583333,59.0,87.0
214,96.21023689375,97.01894909583334,66.0,110.0
215,97.11932789375,97.42804004583333,59.0,87.0
216,97.34660064375,97.63826733958334,56.0,100.0
217,97.57387339375,97.92993403541666,59.0,100.0
218,97.80114614375,97.96213100833333,56.0,89.0
219,95.30114589375,98.01326737708334,51.0,78.0
220,97.57387339375,98.05304010833333,68.0,116.0
221,94.84660039375,98.0909189,44.0,88.0
222,98.02841889375,98.38447953541666,63.0,98.0
223,98.48296439375,98.95834322916667,59.0,96.0
224,98.48296439375,99.03220687291666,68.0,96.0
225,99.16478264375,99.36175236041666,59.0,102.0
226,98.93750989375,99.52652510416667,52.0,76.0
227,99.39205539375,99.8750099875,64.0,120.0
228,99.84660089375,100.09849485833334,61.0,87.0
229,98.48296439375,100.10417667708333,40.0,92.0
230,99.61932814375,100.31251003125,52.0,94.0
231,100.07387364375,100.78599492708334,59.0,86.0
232,100.98296464375,101.17804042083333,58.0,92.0
233,100.75569189375,101.29167679583334,54.0,104.0
234,101.21023739375,101.72917683958333,66.0,116.0
235,101.21023739375,101.82197987916666,58.0,88.0
236,100.30114639375,101.86364655,42.0,93.0
237,100.52841914375,101.91288897916667,49.0,86.0
238,101.43751014375,102.0568283875,54.0,91.0
239,101.89205564375,102.18940415833333,58.0,78.0
240,101.66478289375,102.25379810416666,61.0,91.0
241,101.89205564375,102.3068284125,66.0,87.0
242,102.80114664375,103.09281333958333,54.0,102.0
243,103.02841939375,103.45076792083333,59.0,116.0
244,103.25569214375,103.68182855,54.0,83.0
245,102.11932839375,103.73107097916666,42.0,96.0
246,103.48296489375,103.75569219375,61.0,88.0
247,102.57387389375,103.88448008541667,49.0,81.0
248,103.71023764375,104.38069225625,58.0,108.0
249,103.71023764375,104.48296499375,66.0,93.0
250,104.61932864375,104.78978320625,58.0,91.0
251,104.39205589375,104.8750104875,54.0,100.0
252,103.93751039375,105.22917718958334,42.0,87.0
253,105.07387414375,105.26326810208333,54.0,91.0
254,104.84660139375,105.27463173958333,61.0,116.0
255,104.16478314375,105.29735901458334,49.0,86.0
256,105.30114689375,105.54167722083334,58.0,84.0
257,105.30114689375,105.66857117291667,66.0,83.0
258,105.75569239375,106.22538941041667,68.0,93.0
259,105.75569239375,106.25948032291667,59.0,92.0
260,105.75569239375,106.2727379,63.0,100.0
261,105.75569239375,106.71213188333333,44.0,89.0
262,106.21023789375,106.73485915833334,51.0,69.0
263,106.66478339375,107.16478344375,59.0,104.0
264,106.66478339375,107.36743497916666,68.0,107.0
265,106.66478339375,107.44129862291666,63.0,114.0
266,107.57387439375,108.26895022083333,58.0,96.0
267,107.57387439375,108.31251083125,63.0,100.0
268,107.57387439375,108.33145022708334,67.0,95.0
269,107.57387439375,108.70076844583333,43.0,84.0
270,107.57387439375,108.71970784166666,55.0,86.0
271,108.48296539374999,108.96402604791666,63.0,110.0
272,108.48296539374999,108.97538968541667,58.0,96.0
273,108.48296539374999,108.97538968541667,67.0,116.0
274,108.93751089375,109.0113745375,55.0,93.0
275,108.93751089375,109.01326847708333,43.0,85.0
276,109.39205639375,109.977283725,59.0,91.0
277,109.39205639375,109.977283725,68.0,94.0
278,109.39205639375,110.00190493958333,64.0,98.0
279,110.07387464375,110.477283775,52.0,80.0
280,109.39205639375,110.73296561875,40.0,90.0
281,110.30114739375,110.96970806666667,68.0,102.0
282,110.30114739375,111.04925352916666,59.0,104.0
283,110.30114739375,111.06440504583334,64.0,114.0
284,110.75569289375,111.23485960833334,52.0,86.0
285,111.21023839375,111.89963240208333,59.0,92.0
286,111.21023839375,111.90152634166667,63.0,107.0
287,111.21023839375,111.90531422083333,66.0,102.0
288,111.89205664375,112.3068294125,54.0,86.0
289,112.11932939375,112.68751126875,59.0,107.0
290,111.21023839375,112.68940520833333,47.0,87.0
291,112.11932939375,112.78978400625,66.0,113.0
292,112.11932939375,112.89963250208334,63.0,116.0
293,112.57387489375,113.00190523958334,54.0,82.0
294,113.02842039375,113.72539016041667,68.0,100.0
295,113.02842039375,113.76895077083333,61.0,92.0
296,113.02842039375,113.76895077083333,64.0,107.0
297,113.71023864375,114.15152656666666,56.0,68.0
298,113.02842039375,114.19508717708334,49.0,88.0
299,113.93751139375,114.56440539583333,68.0,102.0
300,113.93751139375,114.62690540208334,61.0,104.0
301,113.93751139375,114.6477387375,64.0,114.0
302,114.39205689375,114.72917813958334,49.0,89.0
303,114.84660239375,115.49622367083333,68.0,88.0
304,114.84660239375,115.5341024625,59.0,100.0
305,114.84660239375,115.56819337499999,64.0,96.0
306,114.84660239375,116.07766312291666,52.0,87.0
307,115.75569339375,116.28031465833334,59.0,102.0
308,115.75569339375,116.28978435625,68.0,96.0
309,115.75569339375,116.5795571125,64.0,114.0
310,116.21023889375,116.61554196458333,52.0,92.0
311,116.66478439375,117.30114809375,61.0,113.0
312,116.66478439375,117.33334506666667,66.0,107.0
313,116.66478439375,117.3636481,58.0,91.0
314,117.34660264375,117.66667843333333,54.0,96.0
315,117.57387539375,117.886375425,59.0,117.0
316,118.02842089375,118.204557275,61.0,110.0
317,116.66478439375,118.29357243541666,42.0,89.0
318,117.80114814375,118.32008758958334,54.0,102.0
319,117.11932989375,118.38826941458333,49.0,83.0
320,118.25569364374999,118.79736036458333,58.0,114.0
321,118.93751189375,118.97917856458334,54.0,108.0
322,118.25569364374999,119.0113755375,66.0,91.0
323,118.25569364374999,119.01705735624999,61.0,96.0
324,119.16478464375,119.34470890416667,58.0,107.0
325,119.39205739375,119.66099681458333,66.0,110.0
326,119.39205739375,119.67614833125,58.0,87.0
327,119.39205739375,119.75190591458333,61.0,116.0
328,118.48296639375,119.89584532291667,42.0,96.0
329,119.84660289375,119.92236047708333,66.0,87.0
330,118.71023914375,119.94887563125,49.0,83.0
331,119.84660289375,120.10796655625,58.0,110.0
332,119.61933014375,120.18751201875,54.0,114.0
333,120.07387564375,120.26895142083333,61.0,98.0
334,120.30114839375,120.62311812291667,59.0,94.0
335,120.30114839375,120.86554238958334,63.0,110.0
336,120.30114839375,120.98486058333333,66.0,104.0
337,120.98296664375,121.40152729166667,59.0,91.0
338,120.30114839375,121.5113757875,47.0,86.0
339,120.75569389375,121.57387579375,54.0,75.0
340,121.21023939375,121.70645156458333,63.0,116.0
341,121.21023939375,121.99054250208333,66.0,117.0
342,121.66478489375,122.11933039375,47.0,87.0
343,122.11933039375,122.76326985208333,66.0,89.0
344,122.11933039375,122.77273955,58.0,102.0
345,122.11933039375,122.7841031875,61.0,110.0
346,122.80114864375,123.14016382916667,54.0,88.0
347,123.02842139375,123.47539113541667,58.0,108.0
348,122.11933039375,123.54736083958333,42.0,91.0
349,123.02842139375,123.568194175,66.0,102.0
350,123.02842139375,123.85039117291667,61.0,117.0
351,122.57387589375,123.91289117916666,49.0,83.0
352,123.48296689375,123.92993663541667,54.0,86.0
353,123.93751239375,124.72539126041667,59.0,94.0
354,123.93751239375,124.74811853541667,63.0,110.0
355,123.93751239375,124.7841033875,68.0,100.0
356,124.61933064375,124.93940643333333,56.0,92.0
357,124.84660339375,125.16099736458334,68.0,84.0
358,124.84660339375,125.44508830208333,61.0,117.0
359,125.30114889375,125.59849740833333,56.0,84.0
360,125.52842164375,126.08713382083333,68.0,100.0
361,125.52842164375,126.09849745833333,59.0,104.0
362,125.52842164375,126.12880049166667,63.0,114.0
363,125.98296714375,126.29925505416666,56.0,87.0
364,126.21023989375,126.52463386458334,61.0,104.0
365,126.43751264375,126.86743692916667,56.0,104.0
366,124.39205789374999,126.97917936458333,51.0,68.0
367,126.66478539375,127.1818309,68.0,114.0
368,126.66478539375,127.18372483958333,59.0,114.0
369,126.66478539375,127.31440667083334,63.0,113.0
370,123.93751239375,127.53031578333334,44.0,86.0
371,127.57387639375,128.00948249791668,52.0,102.0
372,127.57387639375,128.23107342916666,64.0,104.0
373,127.57387639375,128.28978555625,56.0,100.0
374,127.57387639375,128.31630071041667,59.0,113.0
375,128.25569464375,128.59092195,52.0,91.0
376,127.57387639375,128.931831075,40.0,87.0
377,128.48296739375,128.94887653125,56.0,102.0
378,128.48296739375,129.01705835625,64.0,102.0
379,128.48296739375,129.31819475,59.0,108.0
380,128.93751289375,129.39016445416667,52.0,88.0
381,129.39205839375,130.0795584625,58.0,93.0
382,129.39205839375,130.08902816041666,66.0,98.0
383,129.39205839375,130.1022857375,61.0,108.0
384,130.07387664375,130.3750130375,54.0,96.0
385,130.75569489375,131.02463431458332,54.0,82.0
386,130.30114939375,131.04357371041667,66.0,102.0
387,130.30114939375,131.05872522708333,58.0,108.0
388,129.39205839375,131.06061916666667,42.0,92.0
389,130.30114939375,131.10796765625,61.0,113.0
390,129.84660389375,131.1250131125,49.0,80.0
391,131.21024039375,131.74054347708332,66.0,100.0
392,131.21024039375,131.95455865,61.0,108.0
393,131.21024039375,131.98107380416667,58.0,104.0
394,131.89205864375,132.23107382916666,54.0,92.0
395,131.21024039375,132.87122540833334,42.0,98.0
396,132.57387689375,132.92614965625,54.0,86.0
397,132.11933139375,132.9886496625,59.0,113.0
398,131.66478589375,133.09281633958332,49.0,74.0
399,133.02842239375,133.68561942916668,58.0,96.0
400,133.02842239375,133.6931951875,66.0,94.0
401,133.02842239375,133.71971034166666,61.0,104.0
402,133.71024064375,133.97349824583333,54.0,108.0
403,133.93751339375,134.26516494166665,58.0,110.0
404,133.02842239375,134.47349829583334,42.0,91.0
405,134.16478614375,134.74433165625,54.0,110.0
406,134.39205889375,134.79168014583334,61.0,114.0
407,133.48296789375,134.83334681666668,49.0,87.0
408,134.84660439375,135.57387719375,59.0,92.0
409,134.84660439375,135.58902871041667,63.0,114.0
410,134.61933164375,135.58902871041667,66.0,104.0
411,135.52842264375,135.92425601666667,51.0,88.0
412,135.75569539375,136.23675604791666,59.0,104.0
413,135.75569539375,136.24811968541667,66.0,104.0
414,134.84660439375,136.26327120208333,44.0,88.0
415,135.75569539375,136.55493789791666,63.0,114.0
416,136.21024089375,136.67993791041667,51.0,85.0
417,136.66478639375,137.42804404583333,58.0,100.0
418,136.66478639375,137.45077132083333,63.0,110.0
419,136.66478639375,137.45645313958335,67.0,113.0
420,137.57387739375,137.63258952083333,62.0,97.0
421,136.66478639375,137.80493802291667,43.0,84.0
422,137.57387739375,138.06440774583334,58.0,107.0
423,137.57387739375,138.22349867083332,67.0,119.0
424,137.57387739375,138.42425626666667,63.0,114.0
425,138.02842289375,138.49811991041668,43.0,106.0
426,138.48296839375,138.840922975,64.0,107.0
427,138.48296839375,138.89205934375,68.0,94.0
428,138.48296839375,139.28599877708334,59.0,91.0
429,139.16478664375,139.63069578125,52.0,89.0
430,138.48296839375,139.8750139875,40.0,90.0
431,139.39205939375,139.93562005416666,56.0,107.0
432,139.39205939375,140.00380187916667,64.0,102.0
433,139.39205939375,140.22349887083334,59.0,113.0
434,139.84660489375,140.295468575,52.0,91.0
435,140.30115039375,140.659104975,59.0,93.0
436,140.30115039375,140.76516559166666,63.0,93.0
437,140.30115039375,140.83713529583332,66.0,91.0
438,140.98296864375,141.28599897708332,59.0,100.0
439,141.43751414375,141.62690810208332,59.0,94.0
440,141.21024139375,141.63069598125,66.0,110.0
441,141.21024139375,141.65342325625,61.0,104.0
442,140.75569589375,141.74433235625,54.0,73.0
443,140.30115039375,141.77842326875,47.0,88.0
444,141.66478689375,142.04546875,63.0,91.0
445,142.11933239375,142.83145367708335,68.0,92.0
446,142.11933239375,142.85796883125,61.0,90.0
447,142.11933239375,142.87690822708333,64.0,100.0
448,142.80115064375,143.28978705625,56.0,88.0
449,143.02842339375,143.35986282083334,61.0,102.0
450,143.25569614375,143.54357496041666,63.0,89.0
451,143.48296889375,143.89395378333333,64.0,93.0
452,142.11933239375,143.99812046041666,49.0,87.0
453,143.93751439375,144.62880234166667,58.0,87.0
454,143.93751439375,144.62880234166667,66.0,88.0
455,143.93751439375,144.6931962875,61.0,89.0
456,144.61933264375,144.931832675,54.0,94.0
457,143.93751439375,145.37122665833334,42.0,88.0
458,144.39205989375,145.39584787291668,49.0,81.0
459,144.84660539375,145.41857514791667,58.0,104.0
460,144.84660539375,145.44698424166666,66.0,100.0
461,144.84660539375,145.65531759583334,61.0,114.0
462,145.30115089375,145.7386509375,54.0,87.0
463,145.75569639375,146.23486310833334,59.0,87.0
464,145.75569639375,146.46971161666667,63.0,94.0
465,145.75569639375,146.51327222708332,66.0,89.0
466,146.43751464375,146.66099951458332,59.0,92.0
467,146.66478739375,146.96971166666665,61.0,107.0
468,147.11933289375,147.24054502708333,61.0,90.0
469,146.89206014375,147.27842381874999,59.0,94.0
470,146.21024189375,147.340923825,54.0,75.0
471,147.34660564375,147.73675719791666,66.0,110.0
472,147.34660564375,147.76706023124999,63.0,113.0
473,147.80115114375,148.09281783958332,61.0,102.0
474,147.57387839375,148.19698451666667,54.0,87.0
475,148.25569664374999,148.65342395625,66.0,102.0
476,148.25569664374999,148.68372698958333,63.0,110.0
477,148.48296939375,148.87690882708333,54.0,113.0
478,145.75569639375,148.97918156458334,47.0,88.0
479,148.71024214375,148.98486338333333,61.0,90.0
480,148.93751489375,149.08524218125,63.0,104.0
481,149.39206039375,150.06440894583332,66.0,107.0
482,149.39206039375,150.08903016041666,59.0,96.0
483,149.39206039375,150.13259077083333,63.0,110.0
484,150.07387864375,150.62690900208332,54.0,66.0
485,150.30115139375,150.99054540208334,66.0,102.0
486,150.30115139375,150.99433328125,59.0,93.0
487,150.30115139375,151.06251510625,63.0,107.0
488,150.98296964375,151.60418182708332,54.0,65.0
489,151.21024239375,151.84850003333332,66.0,93.0
490,151.21024239375,151.86743942916667,59.0,89.0
491,151.21024239375,151.88827276458332,63.0,94.0
492,151.89206064375,152.35039402291667,54.0,73.0
493,152.11933339375,152.59850010833333,63.0,108.0
494,152.11933339375,152.70077284583334,59.0,100.0
495,152.11933339375,152.85607589166668,66.0,108.0
496,149.39206039375,153.01706075625,47.0,88.0
497,153.02842439375,153.431833525,63.0,98.0
498,153.02842439375,153.659106275,66.0,91.0
499,153.02842439375,153.78600022708332,59.0,89.0
500,153.93751539375,154.49433363125,66.0,89.0
501,153.93751539375,154.51516696666667,63.0,89.0
502,153.93751539375,154.53031848333333,58.0,92.0
503,154.61933364375,154.73486395833334,59.0,91.0
504,154.61933364375,154.75190941458334,66.0,90.0
505,154.61933364375,154.76895487083334,63.0,91.0
506,154.39206089375,155.454561,56.0,76.0
507,155.07387914375,155.52653070416667,58.0,88.0
508,155.07387914375,155.66857617291666,66.0,88.0
509,155.52842464375,155.68372768958332,59.0,82.0
510,155.07387914375,155.68372768958332,63.0,91.0
511,155.75569739375,155.99622772083333,66.0,88.0
512,155.75569739375,156.00948529791665,59.0,93.0
513,155.75569739375,156.00948529791665,63.0,88.0
514,155.98297014375,156.20834895416667,56.0,89.0
515,153.48296989375,156.22728835,51.0,67.0
516,153.02842439375,156.27084896041666,44.0,84.0
517,156.21024289375,156.46781867708333,66.0,84.0
518,156.21024289375,156.56630353541667,59.0,88.0
519,156.21024289375,156.56630353541667,63.0,86.0
520,156.66478839375,157.36933391875,64.0,92.0
521,156.66478839375,157.38827331458333,59.0,92.0
522,156.66478839375,157.39016725416667,56.0,88.0
523,157.34660664375,157.89206124375,52.0,78.0
524,157.57387939375,158.29925825416666,56.0,94.0
525,157.57387939375,158.30115219375,64.0,90.0
526,157.57387939375,158.33713704583334,59.0,102.0
527,158.25569764375,158.71403102291666,52.0,64.0
528,158.48297039375,159.19887955625,64.0,91.0
529,158.48297039375,159.21781895208332,59.0,91.0
530,158.48297039375,159.22350077083334,56.0,87.0
531,159.16478864375,159.47160685625,52.0,84.0
532,159.39206139375,159.58524323125,64.0,88.0
533,159.39206139375,159.88259174583334,56.0,108.0
534,156.66478839375,160.00948569791666,40.0,91.0
535,159.61933414375,160.22539481041667,52.0,88.0
536,159.84660689375,160.24622814583333,59.0,88.0
537,160.30115239375,160.82198577916665,61.0,98.0
538,160.30115239375,160.85607669166666,58.0,87.0
539,160.30115239375,160.86365245,66.0,89.0
540,160.98297064375,161.16668278333333,59.0,94.0
541,160.75569789375,161.28789491666666,54.0,92.0
542,161.21024339375,161.66289495416666,61.0,116.0
543,161.66478889375,161.81630406041666,59.0,86.0
544,161.89206164375,162.70266778541668,66.0,102.0
545,161.89206164375,162.73107687916666,58.0,107.0
546,162.34660714375,162.76895567083332,61.0,85.0
547,161.43751614375,162.80115264375,54.0,93.0
548,162.80115264375,163.1931981375,59.0,87.0
549,163.02842539375,163.30304663333334,54.0,110.0
550,160.52842514375,163.41289512916666,49.0,83.0
551,160.30115239375,163.49622847083333,42.0,87.0
552,163.25569814375,163.58334969166665,58.0,88.0
553,163.48297089375,163.68183455,59.0,88.0
554,163.71024364375,163.8068345625,59.0,71.0
555,163.71024364375,163.8750163875,66.0,87.0
556,163.93751639375,164.53978918125,63.0,110.0
557,163.93751639375,164.59850130833334,66.0,91.0
558,163.93751639375,164.63069828125,58.0,98.0
559,164.61933464375,165.15721348541666,51.0,87.0
560,163.93751639375,165.49433473125,39.0,96.0
561,164.84660739375,165.59092565,63.0,113.0
562,164.84660739375,165.59092565,66.0,100.0
563,164.84660739375,165.62312262291667,58.0,98.0
564,165.75569839375,166.4659257375,56.0,93.0
565,165.75569839375,166.46781967708333,63.0,100.0
566,165.75569839375,166.52653180416667,60.0,100.0
567,166.43751664375,167.08903186041667,51.0,92.0
568,165.75569839375,167.14016822916668,44.0,92.0
569,166.66478939375,167.14016822916668,56.0,108.0
570,166.89206214375,167.45077432083335,60.0,109.0
571,167.11933489375,167.46403189791667,63.0,108.0
572,167.57388039375,167.91289557916667,56.0,96.0
573,167.57388039375,168.12312287291667,61.0,100.0
574,167.57388039375,168.22728955,64.0,94.0
575,168.48297139375,168.73107747916666,64.0,93.0
576,168.25569864375,168.85986537083332,49.0,84.0
577,168.93751689375,169.10418357708332,64.0,32.0
578,168.48297139375,169.1704714625,68.0,89.0
579,168.48297139375,169.2159260125,61.0,88.0
580,169.16478964375,169.79925940416666,49.0,85.0
581,169.39206239375,170.04547155,61.0,90.0
582,169.39206239375,170.08713822083334,64.0,94.0
583,169.39206239375,170.14395640833334,68.0,94.0
584,170.30115339375,170.62691100208335,61.0,114.0
585,167.57388039375,170.71024434375,37.0,96.0
586,170.07388064375,170.78978980625,49.0,96.0
587,170.52842614375,170.8295625375,64.0,90.0
588,170.75569889375,171.12691105208333,68.0,98.0
589,171.21024439375,171.55872927708333,64.0,104.0
590,171.21024439375,171.59282018958334,68.0,86.0
591,171.21024439375,172.02085053541666,59.0,88.0
592,171.89206264375,172.43372936458334,52.0,71.0
593,172.11933539375,172.73297181875,64.0,92.0
594,172.11933539375,172.78032030833333,56.0,98.0
595,172.11933539375,172.8522900125,59.0,107.0
596,172.80115364375,173.28221429791665,52.0,77.0
597,173.02842639375,173.67236585208335,64.0,91.0
598,173.02842639375,173.69130524791666,56.0,91.0
599,173.02842639375,173.73486585833334,59.0,92.0
600,173.93751739375,174.25948712291665,56.0,102.0
601,171.21024439375,174.55115381875,40.0,89.0
602,174.39206289375,174.59660836875,64.0,91.0
603,174.16479014375,174.78032050833335,59.0,87.0
604,173.71024464375,174.78789626666668,52.0,90.0
605,174.84660839375,175.522744825,58.0,88.0
606,174.84660839375,175.72539636041665,66.0,91.0
607,174.84660839375,175.7272903,61.0,100.0
608,175.52842664375,175.85418425208334,54.0,93.0
609,175.75569939375,176.12122973333334,59.0,114.0
610,175.98297214375,176.43562370416666,54.0,87.0
611,176.21024489375,176.51516916666665,61.0,92.0
612,174.84660839375,176.51895704583333,42.0,88.0
613,175.30115389375,176.6022903875,49.0,77.0
614,176.43751764375,177.24622984583334,59.0,108.0
615,177.34660864375,177.8750177875,58.0,107.0
616,177.57388139374999,177.91100263958333,59.0,102.0
617,176.66479039375,178.11933599375,42.0,92.0
618,176.89206314375,178.14963902708334,49.0,84.0
619,178.02842689375,178.36933601875,66.0,93.0
620,177.80115414375,178.39395723333334,61.0,87.0
621,177.11933589375,178.43372996458334,54.0,102.0
622,178.48297239375,178.85039667291667,59.0,102.0
623,178.48297239375,178.91857849791666,63.0,91.0
624,178.93751789375,179.6022906875,54.0,79.0
625,179.16479064375,179.78979070625,59.0,89.0
626,179.39206339375,179.85797253125,63.0,93.0
627,178.48297239375,180.00380587916666,47.0,90.0
628,179.84660889375,180.00380587916666,54.0,86.0
629,179.39206339375,180.16100286458334,71.0,91.0
630,179.39206339375,180.19509377708334,66.0,108.0
631,180.30115439375,180.32577560833334,66.0,86.0
632,180.30115439375,180.6477453375,70.0,104.0
633,180.30115439375,181.04926052916667,61.0,90.0
634,180.98297264375,181.34471510416665,54.0,92.0
635,180.30115439375,181.77085151041666,42.0,87.0
636,181.21024539375,181.77463938958334,58.0,113.0
637,181.21024539375,181.79736666458334,66.0,108.0
638,181.66479089375,181.94698789166668,61.0,54.0
639,181.66479089375,182.04357881041668,54.0,83.0
640,180.75569989375,182.10607881666667,49.0,83.0
641,182.11933639375,182.28032125833334,59.0,94.0
642,182.11933639375,182.431836425,63.0,108.0
643,182.11933639375,182.49054855208334,68.0,92.0
644,182.80115464375,182.87312434791667,71.0,80.0
645,182.80115464375,182.8977455625,63.0,81.0
646,183.02842739375,183.33713954583334,63.0,110.0
647,183.02842739375,183.4204728875,71.0,110.0
648,183.48297289375,183.58903351041667,63.0,88.0
649,183.48297289375,183.64016987916668,70.0,100.0
650,183.71024564375,184.03600325208333,63.0,107.0
651,183.71024564375,184.08713962083334,71.0,108.0
652,183.25570014375,184.24623054583333,56.0,85.0
653,184.16479114375,184.72160938125,63.0,91.0
654,184.16479114375,184.73486695833333,70.0,96.0
655,184.61933664375,185.10986699583333,56.0,93.0
656,182.57388189375,185.28221549791667,51.0,83.0
657,184.84660939375,185.64585189791666,63.0,102.0
658,184.84660939375,185.65153371666668,66.0,117.0
659,182.11933639375,185.7613822125,44.0,88.0
660,185.75570039375,186.3295640875,59.0,100.0
661,185.75570039375,186.4659277375,68.0,104.0
662,185.75570039375,186.51895804583333,64.0,110.0
663,186.66479139375,187.15532174583333,59.0,108.0
664,185.75570039375,187.15721568541667,40.0,92.0
665,186.66479139375,187.19130659791668,64.0,110.0
666,186.66479139375,187.20077629583332,68.0,104.0
667,186.43751864375,187.50001875,47.0,84.0
668,187.11933689375,187.52463996458334,52.0,82.0
669,187.57388239375,188.35039762291666,58.0,94.0
670,187.57388239375,188.35418550208334,66.0,91.0
671,187.57388239375,188.38448853541666,61.0,108.0
672,188.48297339375,188.9659279875,58.0,98.0
673,188.48297339375,189.02842799375,66.0,89.0
674,187.57388239375,189.16857952291667,42.0,87.0
675,188.48297339375,189.28221589791667,61.0,108.0
676,188.93751889375,189.33145832708334,54.0,82.0
677,188.02842789375,189.41857954791666,49.0,82.0
678,189.39206439375,189.69698866666667,61.0,98.0
679,189.39206439375,189.931837175,66.0,88.0
680,189.39206439375,189.96782202708334,58.0,96.0
681,190.07388264375,190.25191296458334,59.0,107.0
682,189.84660989374999,190.32577660833334,54.0,98.0
683,190.30115539375,190.704564525,61.0,117.0
684,190.75570089375,190.94130697291666,59.0,102.0
685,190.52842814375,191.01706455625,54.0,102.0
686,189.39206439375,191.02085243541666,42.0,92.0
687,189.61933714375,191.19888275625,49.0,80.0
688,190.98297364375,191.67236765208332,58.0,107.0
689,190.98297364375,191.69888280625,66.0,96.0
690,190.98297364375,191.7272919,61.0,113.0
691,191.66479189375,192.08903436041666,54.0,100.0
692,191.89206464375,192.33335256666666,58.0,108.0
693,192.11933739375,192.45835257916667,59.0,114.0
694,191.21024639375,192.67615563125,42.0,89.0
695,192.57388289375,192.81251928125,61.0,107.0
696,192.34661014375,192.82577685833334,54.0,116.0
697,191.43751914375,192.97539808541666,49.0,84.0
698,192.80115564375,193.00191323958333,66.0,94.0
699,193.02842839375,193.52653450416668,63.0,107.0
700,193.02842839375,193.78032240833332,59.0,110.0
701,193.48297389375,194.07198910416668,51.0,80.0
702,193.71024664375,194.39017095416668,56.0,89.0
703,193.02842839375,194.431837625,44.0,90.0
704,193.93751939375,194.45645883958332,59.0,107.0
705,194.39206489375,194.80494372291668,63.0,107.0
706,194.84661039375,195.5454741,67.0,113.0
707,194.84661039375,195.6022922875,61.0,107.0
708,195.52842864375,195.87880746666667,55.0,86.0
709,194.84661039375,196.00380747916665,43.0,86.0
710,195.75570139375,196.21214083333334,67.0,119.0
711,196.21024689375,196.363656,43.0,81.0
712,195.75570139375,196.5795651125,61.0,107.0
713,196.66479239375,197.36555003958333,64.0,108.0
714,196.66479239375,197.39964095208333,59.0,98.0
715,197.57388339375,197.92426221666668,56.0,100.0
716,196.66479239375,198.1250198125,40.0,89.0
717,197.11933789375,198.15721678541667,47.0,72.0
718,197.80115614375,198.21782285208334,59.0,88.0
719,197.34661064375,198.25380770416666,52.0,85.0
720,198.25570164375,198.35039862291666,59.0,38.0
721,198.02842889375,198.40153499166667,64.0,89.0
722,198.48297439375,198.80494412291665,59.0,90.0
723,198.48297439375,198.91289867916666,63.0,88.0
724,198.93751989375,199.46214115833334,59.0,89.0
725,199.39206539375,199.82198967916668,66.0,108.0
726,199.39206539375,199.83335331666666,61.0,102.0
727,199.61933814374999,199.85608059166665,59.0,88.0
728,198.71024714375,199.90153514166667,54.0,72.0
729,198.48297439375,199.98108060416666,47.0,87.0
730,199.84661089375,200.21403517291665,63.0,94.0
731,200.30115639375,200.89585342291667,68.0,91.0
732,200.30115639375,200.99244434166667,61.0,89.0
733,200.30115639375,201.05305040833332,64.0,102.0
734,200.98297464375,201.46971711666666,56.0,83.0
735,200.30115639375,201.48108075416667,49.0,87.0
736,201.21024739375,201.86933836875,68.0,104.0
737,201.21024739375,201.88827776458334,61.0,102.0
738,201.66479289375,202.58145965208334,49.0,78.0
739,202.11933839375,202.93752029375,68.0,89.0
740,202.11933839375,202.96782332708332,61.0,90.0
741,203.02842939375,203.44130822291666,63.0,108.0
742,203.48297489375,203.89017190416666,64.0,110.0
743,202.80115664375,203.977293125,49.0,88.0
744,203.93752039375,204.70077804583335,58.0,91.0
745,203.93752039375,204.72539926041668,66.0,90.0
746,203.93752039375,204.78221744791668,61.0,96.0
747,204.61933864375,205.04358111041665,54.0,79.0
748,204.84661139375,205.17236900208334,66.0,36.0
749,204.84661139375,205.71971754166665,59.0,93.0
750,205.30115689375,206.02842969375,54.0,82.0
751,205.75570239375,206.41100548958335,58.0,91.0
752,205.75570239375,206.42426306666667,66.0,93.0
753,205.75570239375,206.4659297375,61.0,104.0
754,206.43752064375,206.74433885625,54.0,81.0
755,206.66479339375,207.17994496041666,58.0,104.0
756,206.66479339375,207.18752071875,66.0,104.0
757,203.93752039375,207.19320253749999,42.0,87.0
758,207.11933889375,207.50380862916666,54.0,83.0
759,206.66479339375,207.50380862916666,61.0,114.0
760,204.39206589375,207.66479349375,49.0,79.0
761,207.57388439375,207.89206624375,59.0,92.0
762,207.57388439375,208.19130869791667,66.0,108.0
763,207.57388439375,208.23486930833334,63.0,110.0
764,208.25570264375,208.63259662083334,59.0,87.0
765,207.57388439375,208.6477481375,47.0,88.0
766,208.02842989375,208.75949057291666,54.0,67.0
767,208.48297539375,209.00570271875,63.0,113.0
768,208.48297539375,209.29358153541668,66.0,114.0
769,208.93752089375,209.45267246041666,47.0,88.0
770,209.39206639374999,210.01327857708333,58.0,96.0
771,209.39206639374999,210.06252100625,61.0,108.0
772,209.39206639374999,210.06441494583333,66.0,90.0
773,210.07388464375,210.39017255416667,49.0,77.0
774,210.30115739375,210.73108167916666,61.0,114.0
775,209.39206639374999,210.79168774583334,42.0,86.0
776,210.30115739375,210.795475625,58.0,100.0
777,210.30115739375,211.10039989791667,66.0,94.0
778,210.75570289375,211.19509687708333,49.0,81.0
779,211.21024839375,211.71214238333334,56.0,87.0
780,211.21024839375,211.99812726041665,63.0,92.0
781,211.21024839375,212.00949089791666,59.0,96.0
782,212.11933939375,212.64396065833333,58.0,110.0
783,212.57388489375,212.73486975833333,59.0,82.0
784,211.89206664375,212.81062734166667,56.0,94.0
785,212.80115764375,213.23486980833334,63.0,113.0
786,212.80115764375,213.29358193541665,59.0,102.0
787,213.25570314375,213.72350622083334,56.0,72.0
788,213.48297589375,213.73676379791667,58.0,87.0
789,213.71024864375,214.07388504375,59.0,92.0
790,213.93752139375,214.26896082083334,56.0,110.0
791,214.16479414375,214.35418810208333,58.0,91.0
792,211.66479389375,214.37880931666666,51.0,68.0
793,211.21024839375,214.46782447708333,44.0,83.0
794,214.39206689375,214.6363851,59.0,107.0
795,214.61933964375,214.79926390416668,63.0,89.0
796,214.84661239375,215.50002154999999,64.0,91.0
797,214.84661239375,215.5341124625,56.0,92.0
798,214.84661239375,215.54737003958334,59.0,88.0
799,215.52843064375,215.89964280208332,52.0,82.0
800,215.75570339375,216.22350647083334,56.0,98.0
801,215.75570339375,216.26706708125,64.0,91.0
802,215.75570339375,216.50949134791668,59.0,98.0
803,216.21024889375,216.977294425,52.0,81.0
804,216.66479439375,217.33146112708334,56.0,84.0
805,216.66479439375,217.35797628125,64.0,87.0
806,216.66479439375,217.43373386458333,59.0,87.0
807,217.34661264375,217.68562782916666,52.0,87.0
808,217.57388539375,217.95077937083335,56.0,98.0
809,214.84661239375,218.04737028958334,40.0,91.0
810,217.57388539375,218.0795672625,64.0,90.0
811,217.57388539375,218.4204763875,59.0,98.0
812,218.02843089375,218.46971881666667,52.0,85.0
813,218.48297639375,219.20646131458332,66.0,93.0
814,218.48297639375,219.24055222708333,58.0,88.0
815,218.48297639375,219.28979465625,61.0,98.0
816,219.16479464374999,219.52843104375,54.0,91.0
817,218.48297639375,220.14017352916667,42.0,87.0
818,219.84661289375,220.16290080416667,54.0,88.0
819,219.39206739375,220.25570384375,59.0,114.0
820,218.93752189375,220.29737051458332,49.0,72.0
821,220.30115839375,221.0000221,58.0,96.0
822,220.30115839375,221.03790089166665,66.0,91.0
823,220.30115839375,221.09850695833333,61.0,107.0
824,220.98297664375,221.27843121875,54.0,104.0
825,221.21024939375,221.75381005416668,58.0,102.0
826,220.30115839375,221.80305248333335,42.0,88.0
827,221.43752214375,221.95456765,54.0,100.0
828,221.89206764375,222.02653735416666,66.0,74.0
829,221.66479489375,222.06631008541666,61.0,110.0
830,220.75570389375,222.07009796458334,49.0,67.0
831,222.11934039375,222.77653742916667,59.0,92.0
832,222.11934039375,222.77843136875,68.0,96.0
833,222.11934039375,222.80115864375,63.0,108.0
834,222.80115864375,223.11744655416666,56.0,88.0
835,222.11934039375,223.1818405,44.0,86.0
836,222.57388589375,223.2613859625,51.0,76.0
837,223.02843139375,223.56062841666667,59.0,102.0
838,223.02843139375,223.58903751041666,68.0,102.0
839,223.48297689375,223.59093145,44.0,88.0
840,223.02843139375,223.86934056875,63.0,110.0
841,223.93752239375,224.62123458333332,58.0,94.0
842,223.93752239375,224.6363861,67.0,97.0
843,223.93752239375,224.67615883125,63.0,102.0
844,224.61934064375,224.977295225,55.0,106.0
845,223.93752239375,225.07009826458332,43.0,86.0
846,224.84661339375,225.35608314166666,58.0,98.0
847,224.84661339375,225.44699224166666,67.0,119.0
848,224.84661339375,225.69131044791666,63.0,113.0
849,225.30115889375,225.76517409166667,43.0,79.0
850,225.75570439375,226.41668930833333,64.0,107.0
851,225.75570439375,226.52653780416668,59.0,91.0
852,226.66479539375,226.8522954125,64.0,85.0
853,226.66479539375,227.01896209583333,56.0,102.0
854,226.89206814375,227.20835605416667,59.0,83.0
855,226.21024989375,227.22161363125,47.0,77.0
856,225.75570439375,227.23487120833335,40.0,87.0
857,227.34661364375,227.46025001875,59.0,78.0
858,227.11934089375,227.52085608541665,64.0,88.0
859,226.43752264375,227.5795682125,52.0,82.0
860,227.57388639375,227.86934096875,59.0,94.0
861,227.57388639375,227.94699249166666,63.0,88.0
862,228.48297739375,228.74055317708334,71.0,84.0
863,228.48297739375,228.88449258541667,63.0,89.0
864,228.25570464375,228.95835622916667,59.0,92.0
865,228.71025014375,228.97540168541667,66.0,88.0
866,228.02843189375,228.97918956458332,54.0,74.0
867,227.57388639375,228.99812896041666,47.0,77.0
868,228.93752289374999,229.42994718541667,71.0,84.0
869,229.39206839375,229.9432048125,61.0,88.0
870,229.39206839375,230.03979573125,68.0,93.0
871,229.39206839375,230.06441694583333,64.0,92.0
872,229.84661389375,230.340932125,56.0,58.0
873,230.30115939375,230.92237157708334,61.0,88.0
874,230.30115939375,230.9432049125,68.0,88.0
875,230.30115939375,231.01328067708334,64.0,92.0
876,229.39206839375,231.24055342708334,49.0,88.0
877,231.21025039375,231.6932049875,66.0,87.0
878,231.21025039375,231.82767469791668,58.0,86.0
879,231.21025039375,231.84661409375,61.0,90.0
880,231.21025039375,232.66100811458332,42.0,87.0
881,232.11934139375,232.75759903333332,66.0,91.0
882,232.11934139375,232.76328085208334,58.0,91.0
883,231.66479589375,232.78032630833334,49.0,67.0
884,232.11934139375,232.91479601875,61.0,104.0
885,233.02843239375,233.40343243125,59.0,84.0
886,233.02843239375,233.46782637708333,66.0,85.0
887,233.02843239375,233.57388699375,63.0,87.0
888,233.48297789375,234.02653855416668,54.0,64.0
889,233.93752339375,234.62691740208334,66.0,87.0
890,233.93752339375,234.64585679791668,59.0,86.0
891,233.93752339375,234.71403862291666,63.0,88.0
892,234.61934164375,235.54169022083335,54.0,82.0
893,235.07388714375,235.77464478958333,61.0,88.0
894,235.52843264375,235.8977508625,63.0,87.0
895,235.98297814375,236.42237212708332,59.0,90.0
896,236.21025089375,236.54358426041668,66.0,92.0
897,236.21025089375,236.55305395833332,63.0,96.0
898,235.75570539375,236.58146305208334,54.0,88.0
899,233.02843239375,236.63070548125,47.0,79.0
900,236.66479639375,237.4545692,59.0,91.0
901,236.66479639375,237.50002375,63.0,93.0
902,236.66479639375,237.50949344791667,70.0,91.0
903,237.57388739375,238.34472080416666,59.0,79.0
904,237.57388739375,238.34850868333334,70.0,84.0
905,237.57388739375,238.40153899166665,63.0,86.0
906,238.48297839375,239.29358453541667,59.0,79.0
907,238.48297839375,239.35797848125,63.0,82.0
908,238.48297839375,239.37312999791666,66.0,84.0
909,239.39206939375,239.83903913541667,70.0,88.0
910,239.39206939375,239.90532702083334,63.0,80.0
911,236.66479639375,240.11555431458333,47.0,90.0
912,240.30116039375,240.88259984583334,64.0,87.0
913,240.30116039375,241.01706955625,66.0,88.0
914,240.30116039375,241.06631198541666,59.0,86.0
915,240.30116039375,241.08146350208332,63.0,88.0
916,241.21025139374999,241.9091151,66.0,84.0
917,241.21025139374999,241.977296925,59.0,80.0
918,241.21025139374999,242.06252420625,63.0,85.0
919,240.30116039375,242.49434243125,52.0,83.0
920,242.11934239375,242.84850913333332,59.0,76.0
921,242.11934239375,242.87881216666668,66.0,82.0
922,242.11934239375,242.94699399166666,63.0,83.0
923,243.25570614375,243.44131222291668,63.0,42.0
924,240.30116039375,243.44888798125,40.0,82.0
925,242.80116064375,243.47540313541666,52.0,83.0
926,243.02843339375,243.48487283333333,59.0,81.0
927,243.93752439375,244.01896379583334,59.0,76.0
928,243.93752439375,244.16669108333332,58.0,81.0
929,243.93752439375,244.34472140416668,61.0,76.0
930,243.93752439375,245.113660875,49.0,86.0
931,244.84661539375,245.41858514791667,64.0,83.0
932,244.84661539375,245.57010031458333,59.0,82.0
933,244.84661539375,245.60040334791665,56.0,77.0
934,245.75570639375,246.43752464375,64.0,88.0
935,245.52843364375,246.52843374374999,49.0,74.0
936,246.21025189375,246.74623679583334,61.0,77.0
937,246.43752464375,246.90343378125,59.0,84.0
938,243.93752439375,246.97350954583334,37.0,76.0
939,246.66479739375,247.1704792625,49.0,85.0
940,246.89207014375,247.28600957708332,56.0,75.0
941,247.11934289375,247.58903991041666,59.0,83.0
942,247.57388839375,248.04547935,61.0,81.0
943,247.57388839375,248.06631268541668,58.0,80.0
944,247.57388839375,248.10040359791665,66.0,83.0
945,248.48297939374999,248.90722186041666,66.0,76.0
946,248.48297939374999,248.96214610833334,58.0,77.0
947,248.48297939374999,248.96782792708333,61.0,76.0
948,248.93752489375,249.52085828541667,54.0,67.0
949,249.39207039375,249.76707043125,66.0,68.0
950,249.39207039375,250.15722198541667,58.0,81.0
951,249.84661589375,250.46972201666668,54.0,81.0
952,250.30116139375,250.6363887,58.0,76.0
953,247.57388839375,250.81063114166668,42.0,77.0
954,248.02843389375,250.85040387291667,49.0,72.0
955,250.30116139375,250.88260084583334,61.0,113.0
956,250.75570689375,251.24623724583333,54.0,77.0
957,251.21025239375,251.6250251625,59.0,78.0
958,251.21025239375,251.72919183958334,63.0,88.0
959,252.34661614375,253.52464656458332,66.0,80.0
960,252.11934339375,253.5795708125,59.0,77.0
961,251.21025239375,253.65154051666667,47.0,74.0
962,253.02843439375,253.72540416041667,75.0,36.0
963,251.89207064375,253.7386617375,54.0,70.0
