,start,end,pitch,velocity
0,32.53333333333333,32.639583333333334,70.0,117.0
1,32.78333333333333,32.87708333333333,70.0,96.0
2,33.03333333333333,33.12291666666667,70.0,92.0
3,33.28333333333333,33.37291666666667,70.0,92.0
4,33.53333333333333,33.77708333333333,70.0,113.0
5,34.03333333333333,34.2,72.0,113.0
6,34.28333333333333,34.56458333333333,74.0,108.0
7,34.53333333333333,34.8625,72.0,114.0
8,35.03333333333333,35.40416666666667,67.0,108.0
9,36.53333333333333,36.702083333333334,70.0,96.0
10,36.78333333333333,36.89375,70.0,89.0
11,37.03333333333333,37.139583333333334,70.0,89.0
12,37.28333333333333,37.38125,70.0,88.0
13,37.53333333333333,37.795833333333334,70.0,104.0
14,38.03333333333333,38.16875,72.0,107.0
15,38.28333333333333,38.41875,74.0,96.0
16,38.53333333333333,38.81041666666667,72.0,107.0
17,39.03333333333333,39.35,74.0,113.0
18,40.53333333333333,40.635416666666664,72.0,108.0
19,40.78333333333333,40.87291666666667,72.0,98.0
20,41.03333333333333,41.12708333333333,72.0,104.0
21,41.28333333333333,41.37291666666667,72.0,100.0
22,41.53333333333333,41.797916666666666,72.0,113.0
23,42.03333333333333,42.19375,74.0,114.0
24,42.28333333333333,42.43958333333333,77.0,114.0
25,42.53333333333333,42.78125,74.0,113.0
26,43.03333333333333,43.24166666666667,72.0,113.0
27,43.28333333333333,43.53541666666666,70.0,102.0
28,43.53333333333333,43.78333333333333,67.0,93.0
29,43.78333333333333,44.0375,70.0,104.0
30,44.28333333333333,44.47083333333333,70.0,104.0
31,44.53333333333333,44.66458333333333,72.0,108.0
32,44.78333333333333,44.93958333333333,72.0,113.0
33,45.03333333333333,45.18958333333333,72.0,113.0
34,45.28333333333333,45.53333333333333,70.0,100.0
35,45.53333333333333,45.725,67.0,107.0
36,45.78333333333333,46.0,67.0,98.0
37,46.03333333333333,46.30416666666667,74.0,108.0
38,46.53333333333333,46.889583333333334,72.0,113.0
39,48.53333333333333,48.639583333333334,70.0,117.0
40,48.78333333333333,48.87708333333333,70.0,96.0
41,49.03333333333333,49.12291666666667,70.0,92.0
42,49.28333333333333,49.37291666666667,70.0,92.0
43,49.53333333333333,49.77708333333333,70.0,113.0
44,50.03333333333333,50.2,72.0,113.0
45,50.28333333333333,50.56458333333333,74.0,108.0
46,50.53333333333333,50.8625,72.0,114.0
47,51.03333333333333,51.40416666666667,67.0,108.0
48,52.53333333333333,52.702083333333334,70.0,96.0
49,52.78333333333333,52.89375,70.0,89.0
50,53.03333333333333,53.139583333333334,70.0,89.0
51,53.28333333333333,53.38125,70.0,88.0
52,53.53333333333333,53.795833333333334,70.0,104.0
53,54.03333333333333,54.168749999999996,72.0,107.0
54,54.28333333333333,54.418749999999996,74.0,96.0
55,54.53333333333333,54.81041666666667,72.0,107.0
56,55.03333333333333,55.35,74.0,113.0
57,56.53333333333333,56.635416666666664,72.0,108.0
58,56.78333333333333,56.87291666666667,72.0,98.0
59,57.03333333333333,57.12708333333333,72.0,104.0
60,57.28333333333333,57.37291666666667,72.0,100.0
61,57.53333333333333,57.797916666666666,72.0,113.0
62,58.03333333333333,58.19375,74.0,114.0
63,58.28333333333333,58.43958333333333,77.0,114.0
64,58.53333333333333,58.78125,74.0,113.0
65,59.03333333333333,59.24166666666667,72.0,113.0
66,59.28333333333333,59.53541666666666,70.0,102.0
67,59.53333333333333,59.78333333333333,67.0,93.0
68,59.78333333333333,59.90833333333333,70.0,104.0
69,60.03333333333333,60.22083333333333,70.0,104.0
70,60.28333333333333,60.47083333333333,70.0,104.0
71,60.53333333333333,60.66458333333333,72.0,108.0
72,60.78333333333333,60.93958333333333,72.0,113.0
73,61.03333333333333,61.18958333333333,72.0,113.0
74,61.28333333333333,61.53333333333333,70.0,100.0
75,61.53333333333333,61.725,67.0,107.0
76,61.78333333333333,62.0,67.0,98.0
77,62.03333333333333,62.6,70.0,94.0
78,63.03333333333333,63.47708333333333,70.0,113.0
79,68.03333333333333,68.26041666666667,70.0,107.0
80,68.28333333333333,68.43541666666667,72.0,92.0
81,68.53333333333333,68.61041666666667,74.0,104.0
82,68.78333333333333,68.89375,82.0,113.0
83,69.03333333333333,69.15625,82.0,108.0
84,69.28333333333333,69.39166666666667,82.0,107.0
85,69.53333333333333,69.82291666666667,82.0,116.0
86,70.03333333333333,70.31041666666667,84.0,117.0
87,70.53333333333333,70.8875,81.0,114.0
88,71.03333333333333,71.25625,79.0,108.0
89,71.28333333333333,71.55416666666666,77.0,116.0
90,72.03333333333333,72.20208333333333,74.0,117.0
91,72.28333333333333,72.4375,77.0,114.0
92,72.53333333333333,72.65625,79.0,114.0
93,72.78333333333333,72.89791666666666,79.0,113.0
94,73.03333333333333,73.24166666666666,79.0,114.0
95,73.28333333333333,73.50625,77.0,113.0
96,73.53333333333333,73.76666666666667,79.0,117.0
97,74.03333333333333,74.2875,70.0,113.0
98,74.28333333333333,74.55833333333334,72.0,102.0
99,74.53333333333333,74.87916666666666,74.0,114.0
100,75.03333333333333,75.275,77.0,100.0
101,75.28333333333333,75.54166666666667,74.0,108.0
102,76.53333333333333,76.76875,72.0,108.0
103,76.78333333333333,77.0375,72.0,108.0
104,77.28333333333333,77.4875,74.0,108.0
105,77.53333333333333,77.8125,72.0,116.0
106,78.03333333333333,78.19791666666667,67.0,107.0
107,78.28333333333333,78.42708333333333,70.0,114.0
108,78.53333333333333,78.73125,77.0,116.0
109,78.78333333333333,79.01875,74.0,104.0
110,79.03333333333333,79.21875,72.0,100.0
111,79.28333333333333,79.56041666666667,74.0,117.0
112,80.53333333333333,80.67291666666667,79.0,117.0
113,80.78333333333333,80.88958333333333,79.0,114.0
114,81.03333333333333,81.1625,79.0,113.0
115,81.28333333333333,81.43958333333333,82.0,116.0
116,81.53333333333333,81.73333333333333,81.0,114.0
117,81.78333333333333,81.93333333333334,77.0,113.0
118,82.03333333333333,82.3125,79.0,113.0
119,82.78333333333333,83.10625,77.0,117.0
120,84.03333333333333,84.2875,74.0,117.0
121,84.28333333333333,84.41458333333333,77.0,113.0
122,84.53333333333333,84.6625,82.0,119.0
123,84.78333333333333,84.9,82.0,116.0
124,85.03333333333333,85.14375,82.0,110.0
125,85.28333333333333,85.40416666666667,82.0,114.0
126,85.53333333333333,85.69791666666667,82.0,117.0
127,86.03333333333333,86.26458333333333,82.0,113.0
128,86.28333333333333,86.50208333333333,84.0,110.0
129,86.53333333333333,86.88333333333333,81.0,113.0
130,87.03333333333333,87.26666666666667,77.0,116.0
131,87.28333333333333,87.52083333333333,79.0,114.0
132,88.03333333333333,88.20208333333333,74.0,114.0
133,88.28333333333333,88.43958333333333,77.0,107.0
134,88.53333333333333,88.65833333333333,79.0,108.0
135,88.78333333333333,88.88958333333333,79.0,102.0
136,89.03333333333333,89.23541666666667,79.0,113.0
137,89.28333333333333,89.52708333333334,77.0,108.0
138,89.53333333333333,89.83333333333333,79.0,110.0
139,90.03333333333333,90.29166666666667,70.0,110.0
140,90.28333333333333,90.46666666666667,72.0,107.0
141,90.53333333333333,90.70833333333333,74.0,108.0
142,91.03333333333333,91.23333333333333,77.0,108.0
143,91.28333333333333,91.5875,74.0,110.0
144,92.53333333333333,92.65416666666667,72.0,110.0
145,92.78333333333333,93.01041666666667,72.0,110.0
146,93.28333333333333,93.48125,74.0,110.0
147,93.53333333333333,93.8125,72.0,116.0
148,94.03333333333333,94.18333333333334,67.0,113.0
149,94.28333333333333,94.40208333333334,70.0,96.0
150,94.53333333333333,94.73541666666667,77.0,110.0
151,94.78333333333333,94.99791666666667,74.0,110.0
152,95.03333333333333,95.26041666666667,72.0,107.0
153,95.28333333333333,95.55625,74.0,116.0
154,96.53333333333333,96.67708333333333,79.0,114.0
155,96.78333333333333,97.01666666666667,79.0,116.0
156,97.28333333333333,97.44583333333333,82.0,110.0
157,97.53333333333333,97.78541666666666,81.0,107.0
158,97.78333333333333,98.00833333333333,79.0,102.0
159,98.03333333333333,98.31875,77.0,113.0
160,99.03333333333333,99.41666666666667,77.0,116.0
161,116.53333333333333,116.63958333333333,70.0,117.0
162,116.78333333333333,116.87708333333333,70.0,96.0
163,117.03333333333333,117.12291666666667,70.0,92.0
164,117.28333333333333,117.37291666666667,70.0,92.0
165,117.53333333333333,117.77708333333334,70.0,113.0
166,118.03333333333333,118.2,72.0,113.0
167,118.28333333333333,118.56458333333333,74.0,108.0
168,118.53333333333333,118.8625,72.0,114.0
169,119.03333333333333,119.40416666666667,67.0,108.0
170,120.53333333333333,120.70208333333333,70.0,96.0
171,120.78333333333333,120.89375,70.0,89.0
172,121.03333333333333,121.13958333333333,70.0,89.0
173,121.28333333333333,121.38125,70.0,88.0
174,121.53333333333333,121.79583333333333,70.0,104.0
175,122.03333333333333,122.16875,72.0,107.0
176,122.28333333333333,122.41875,74.0,96.0
177,122.53333333333333,122.81041666666667,72.0,107.0
178,123.03333333333333,123.35,74.0,113.0
179,124.53333333333333,124.63541666666667,72.0,108.0
180,124.78333333333333,124.87291666666667,72.0,98.0
181,125.03333333333333,125.12708333333333,72.0,104.0
182,125.28333333333333,125.37291666666667,72.0,100.0
183,125.53333333333333,125.79791666666667,72.0,113.0
184,126.03333333333333,126.19375,74.0,114.0
185,126.28333333333333,126.43958333333333,77.0,114.0
186,126.53333333333333,126.78125,74.0,113.0
187,127.03333333333333,127.24166666666666,72.0,113.0
188,127.28333333333333,127.53541666666666,70.0,102.0
189,127.53333333333333,127.78333333333333,67.0,93.0
190,127.78333333333333,128.0375,70.0,104.0
191,128.28333333333333,128.47083333333333,70.0,104.0
192,128.53333333333333,128.66458333333333,72.0,108.0
193,128.78333333333333,128.93958333333333,72.0,113.0
194,129.03333333333333,129.18958333333333,72.0,113.0
195,129.28333333333333,129.53333333333333,70.0,100.0
196,129.53333333333333,129.725,67.0,107.0
197,129.78333333333333,130.0,67.0,98.0
198,130.03333333333333,130.30416666666667,74.0,108.0
199,130.53333333333333,130.88958333333332,72.0,113.0
200,132.53333333333333,132.63958333333332,70.0,117.0
201,132.78333333333333,132.87708333333333,70.0,96.0
202,133.03333333333333,133.12291666666667,70.0,92.0
203,133.28333333333333,133.37291666666667,70.0,92.0
204,133.53333333333333,133.77708333333334,70.0,113.0
205,134.03333333333333,134.2,72.0,113.0
206,134.28333333333333,134.56458333333333,74.0,108.0
207,134.53333333333333,134.8625,72.0,114.0
208,135.03333333333333,135.40416666666667,67.0,108.0
209,136.53333333333333,136.70208333333332,70.0,96.0
210,136.78333333333333,136.89375,70.0,89.0
211,137.03333333333333,137.13958333333332,70.0,89.0
212,137.28333333333333,137.38125,70.0,88.0
213,137.53333333333333,137.79583333333332,70.0,104.0
214,138.03333333333333,138.16875,72.0,107.0
215,138.28333333333333,138.41875,74.0,96.0
216,138.53333333333333,138.81041666666667,72.0,107.0
217,139.03333333333333,139.35,74.0,113.0
218,140.53333333333333,140.63541666666666,72.0,108.0
219,140.78333333333333,140.87291666666667,72.0,98.0
220,141.03333333333333,141.12708333333333,72.0,104.0
221,141.28333333333333,141.37291666666667,72.0,100.0
222,141.53333333333333,141.79791666666665,72.0,113.0
223,142.03333333333333,142.19375,74.0,114.0
224,142.28333333333333,142.43958333333333,77.0,114.0
225,142.53333333333333,142.78125,74.0,113.0
226,143.03333333333333,143.24166666666667,72.0,113.0
227,143.28333333333333,143.53541666666666,70.0,102.0
228,143.53333333333333,143.78333333333333,67.0,93.0
229,143.78333333333333,143.90833333333333,70.0,104.0
230,144.03333333333333,144.22083333333333,70.0,104.0
231,144.28333333333333,144.47083333333333,70.0,104.0
232,144.53333333333333,144.66458333333333,72.0,108.0
233,144.78333333333333,144.93958333333333,72.0,113.0
234,145.03333333333333,145.18958333333333,72.0,113.0
235,145.28333333333333,145.53333333333333,70.0,100.0
236,145.53333333333333,145.725,67.0,107.0
237,145.78333333333333,146.0,67.0,98.0
238,146.03333333333333,146.6,70.0,94.0
239,147.03333333333333,147.47708333333333,70.0,113.0
240,152.03333333333333,152.26041666666666,70.0,107.0
241,152.28333333333333,152.43541666666667,72.0,92.0
242,152.53333333333333,152.61041666666665,74.0,104.0
243,152.78333333333333,152.89375,82.0,113.0
244,153.03333333333333,153.15625,82.0,108.0
245,153.28333333333333,153.39166666666665,82.0,107.0
246,153.53333333333333,153.82291666666666,82.0,116.0
247,154.01666666666665,154.14166666666665,82.0,100.0
248,154.23541666666665,154.32291666666666,84.0,117.0
249,154.53333333333333,154.8875,81.0,114.0
250,155.03333333333333,155.25625,79.0,108.0
251,155.28333333333333,155.55416666666667,77.0,116.0
252,156.03333333333333,156.20208333333332,74.0,117.0
253,156.28333333333333,156.4375,77.0,114.0
254,156.53333333333333,156.65625,79.0,114.0
255,156.78333333333333,156.89791666666667,79.0,113.0
256,157.03333333333333,157.24166666666667,79.0,114.0
257,157.28333333333333,157.50625,77.0,113.0
258,157.53333333333333,157.76666666666665,79.0,117.0
259,158.03333333333333,158.2875,70.0,113.0
260,158.28333333333333,158.55833333333334,72.0,102.0
261,158.53333333333333,158.87916666666666,74.0,114.0
262,159.03333333333333,159.275,77.0,100.0
263,159.28333333333333,159.54166666666666,74.0,108.0
264,160.53333333333333,160.76875,72.0,108.0
265,160.78333333333333,161.0375,72.0,108.0
266,161.28333333333333,161.4875,74.0,108.0
267,161.53333333333333,161.8125,72.0,116.0
268,162.03333333333333,162.19791666666666,67.0,107.0
269,162.28333333333333,162.42708333333334,70.0,114.0
270,162.53333333333333,162.73125,77.0,116.0
271,162.78333333333333,163.01875,74.0,104.0
272,163.03333333333333,163.21875,72.0,100.0
273,163.28333333333333,163.56041666666667,74.0,117.0
274,164.53333333333333,164.67291666666665,79.0,117.0
275,164.78333333333333,164.88958333333332,79.0,114.0
276,165.03333333333333,165.1625,79.0,113.0
277,165.28333333333333,165.43958333333333,82.0,116.0
278,165.53333333333333,165.73333333333332,81.0,114.0
279,165.78333333333333,165.93333333333334,79.0,113.0
280,166.03333333333333,166.3125,79.0,113.0
281,166.78333333333333,167.10625,77.0,117.0
282,168.03333333333333,168.2875,74.0,117.0
283,168.28333333333333,168.41458333333333,77.0,113.0
284,168.53333333333333,168.6625,82.0,119.0
285,168.78333333333333,168.9,82.0,116.0
286,169.03333333333333,169.14375,82.0,110.0
287,169.28333333333333,169.40416666666667,82.0,114.0
288,169.53333333333333,169.69791666666666,82.0,117.0
289,170.03333333333333,170.26458333333332,81.0,113.0
290,170.28333333333333,170.50208333333333,84.0,110.0
291,170.53333333333333,170.88333333333333,81.0,113.0
292,171.03333333333333,171.26666666666665,77.0,116.0
293,171.28333333333333,171.52083333333334,79.0,114.0
294,172.03333333333333,172.20208333333332,74.0,114.0
295,172.28333333333333,172.43958333333333,77.0,107.0
296,172.53333333333333,172.65833333333333,79.0,108.0
297,172.78333333333333,172.88958333333332,79.0,102.0
298,173.03333333333333,173.23541666666665,79.0,113.0
299,173.28333333333333,173.52708333333334,77.0,108.0
300,173.53333333333333,173.83333333333334,79.0,110.0
301,174.03333333333333,174.29166666666666,70.0,110.0
302,174.28333333333333,174.46666666666667,72.0,107.0
303,174.53333333333333,174.70833333333334,74.0,108.0
304,175.03333333333333,175.23333333333332,77.0,108.0
305,175.28333333333333,175.5875,74.0,110.0
306,176.53333333333333,176.65416666666667,72.0,110.0
307,176.78333333333333,177.01041666666666,72.0,110.0
308,177.28333333333333,177.48125,74.0,110.0
309,177.53333333333333,177.8125,72.0,116.0
310,178.03333333333333,178.18333333333334,67.0,113.0
311,178.28333333333333,178.40208333333334,70.0,96.0
312,178.53333333333333,178.73541666666665,77.0,110.0
313,178.78333333333333,178.99791666666667,74.0,110.0
314,179.03333333333333,179.26041666666666,72.0,107.0
315,179.28333333333333,179.55625,74.0,116.0
316,180.53333333333333,180.67708333333334,79.0,114.0
317,180.78333333333333,181.01666666666665,79.0,116.0
318,181.28333333333333,181.44583333333333,82.0,110.0
319,181.53333333333333,181.78541666666666,81.0,107.0
320,181.78333333333333,182.00833333333333,79.0,102.0
321,182.03333333333333,182.31875,77.0,113.0
322,183.03333333333333,183.41666666666666,77.0,116.0
323,184.53333333333333,184.63958333333332,70.0,117.0
324,184.78333333333333,184.87708333333333,70.0,96.0
325,185.03333333333333,185.12291666666667,70.0,92.0
326,185.28333333333333,185.37291666666667,70.0,92.0
327,185.53333333333333,185.77708333333334,70.0,113.0
328,186.03333333333333,186.2,72.0,113.0
329,186.28333333333333,186.56458333333333,74.0,108.0
330,186.53333333333333,186.8625,72.0,114.0
331,187.03333333333333,187.40416666666667,67.0,108.0
332,188.53333333333333,188.70208333333332,70.0,96.0
333,188.78333333333333,188.89375,70.0,89.0
334,189.03333333333333,189.13958333333332,70.0,89.0
335,189.28333333333333,189.38125,70.0,88.0
336,189.53333333333333,189.79583333333332,70.0,104.0
337,190.03333333333333,190.16875,72.0,107.0
338,190.28333333333333,190.41875,74.0,96.0
339,190.53333333333333,190.81041666666667,72.0,107.0
340,191.03333333333333,191.35,74.0,113.0
341,192.53333333333333,192.63541666666666,72.0,108.0
342,192.78333333333333,192.87291666666667,72.0,98.0
343,193.03333333333333,193.12708333333333,72.0,104.0
344,193.28333333333333,193.37291666666667,72.0,100.0
345,193.53333333333333,193.79791666666665,72.0,113.0
346,194.03333333333333,194.19375,74.0,114.0
347,194.28333333333333,194.43958333333333,77.0,114.0
348,194.53333333333333,194.78125,74.0,113.0
349,195.03333333333333,195.24166666666667,72.0,113.0
350,195.28333333333333,195.53541666666666,70.0,102.0
351,195.53333333333333,195.78333333333333,67.0,93.0
352,195.78333333333333,196.0375,70.0,104.0
353,196.28333333333333,196.47083333333333,70.0,104.0
354,196.53333333333333,196.66458333333333,72.0,108.0
355,196.78333333333333,196.93958333333333,72.0,113.0
356,197.03333333333333,197.18958333333333,72.0,113.0
357,197.28333333333333,197.53333333333333,70.0,100.0
358,197.53333333333333,197.725,67.0,107.0
359,197.78333333333333,198.0,67.0,98.0
360,198.03333333333333,198.30416666666667,74.0,108.0
361,198.53333333333333,198.88958333333332,72.0,113.0
362,200.53333333333333,200.63958333333332,70.0,117.0
363,200.78333333333333,200.87708333333333,70.0,96.0
364,201.03333333333333,201.12291666666667,70.0,92.0
365,201.28333333333333,201.37291666666667,70.0,92.0
366,201.53333333333333,201.77708333333334,70.0,113.0
367,202.03333333333333,202.2,72.0,113.0
368,202.28333333333333,202.56458333333333,74.0,108.0
369,202.53333333333333,202.8625,72.0,114.0
370,203.03333333333333,203.40416666666667,67.0,108.0
371,204.53333333333333,204.70208333333332,70.0,96.0
372,204.78333333333333,204.89374999999998,70.0,89.0
373,205.03333333333333,205.13958333333332,70.0,89.0
374,205.28333333333333,205.38125,70.0,88.0
375,205.53333333333333,205.79583333333332,70.0,104.0
376,206.03333333333333,206.16875,72.0,107.0
377,206.28333333333333,206.41875,74.0,96.0
378,206.53333333333333,206.81041666666667,72.0,107.0
379,207.03333333333333,207.35,74.0,113.0
380,208.53333333333333,208.63541666666666,72.0,108.0
381,208.78333333333333,208.87291666666667,72.0,98.0
382,209.03333333333333,209.12708333333333,72.0,104.0
383,209.28333333333333,209.37291666666667,72.0,100.0
384,209.53333333333333,209.79791666666665,72.0,113.0
385,210.03333333333333,210.19375,74.0,114.0
386,210.28333333333333,210.43958333333333,77.0,114.0
387,210.53333333333333,210.78125,74.0,113.0
388,211.03333333333333,211.24166666666667,72.0,113.0
389,211.28333333333333,211.53541666666666,70.0,102.0
390,211.53333333333333,211.78333333333333,67.0,93.0
391,211.78333333333333,211.90833333333333,70.0,104.0
392,212.03333333333333,212.22083333333333,70.0,104.0
393,212.28333333333333,212.47083333333333,70.0,104.0
394,212.53333333333333,212.66458333333333,72.0,108.0
395,212.78333333333333,212.93958333333333,72.0,113.0
396,213.03333333333333,213.18958333333333,72.0,113.0
397,213.28333333333333,213.53333333333333,70.0,100.0
398,213.53333333333333,213.725,67.0,107.0
399,213.78333333333333,214.0,67.0,98.0
400,214.03333333333333,214.6,70.0,94.0
401,215.03333333333333,215.47708333333333,70.0,113.0
402,232.03333333333333,232.26041666666666,70.0,107.0
403,232.28333333333333,232.43541666666667,72.0,92.0
404,232.53333333333333,232.61041666666665,74.0,104.0
405,232.78333333333333,232.89374999999998,82.0,113.0
406,233.03333333333333,233.15625,82.0,108.0
407,233.28333333333333,233.39166666666665,82.0,107.0
408,233.53333333333333,233.82291666666666,82.0,116.0
409,234.02083333333334,234.11666666666667,82.0,100.0
410,234.24166666666667,234.45624999999998,84.0,117.0
411,234.53333333333333,234.8875,81.0,114.0
412,235.03333333333333,235.25625,79.0,108.0
413,235.28333333333333,235.55416666666667,77.0,116.0
414,236.03333333333333,236.20208333333332,74.0,117.0
415,236.28333333333333,236.4375,77.0,114.0
416,236.53333333333333,236.65625,79.0,114.0
417,236.78333333333333,236.89791666666667,79.0,113.0
418,237.03333333333333,237.24166666666667,79.0,114.0
419,237.28333333333333,237.50625,77.0,113.0
420,237.53333333333333,237.76666666666665,79.0,117.0
421,238.03333333333333,238.2875,70.0,113.0
422,238.28333333333333,238.55833333333334,72.0,102.0
423,238.53333333333333,238.87916666666666,74.0,114.0
424,239.03333333333333,239.275,77.0,100.0
425,239.28333333333333,239.54166666666666,74.0,108.0
426,240.53333333333333,240.76874999999998,72.0,108.0
427,240.78333333333333,241.0375,72.0,108.0
428,241.28333333333333,241.48749999999998,74.0,108.0
429,241.53333333333333,241.8125,72.0,116.0
430,242.03333333333333,242.19791666666666,67.0,107.0
431,242.28333333333333,242.42708333333334,70.0,114.0
432,242.53333333333333,242.73125,77.0,116.0
433,242.78333333333333,243.01874999999998,74.0,104.0
434,243.03333333333333,243.21875,72.0,100.0
435,243.28333333333333,243.56041666666667,74.0,117.0
436,244.53333333333333,244.67291666666665,79.0,117.0
437,244.78333333333333,244.88958333333332,79.0,114.0
438,245.03333333333333,245.1625,79.0,113.0
439,245.28333333333333,245.43958333333333,82.0,116.0
440,245.53333333333333,245.73333333333332,81.0,114.0
441,245.78333333333333,245.93333333333334,77.0,113.0
442,246.03333333333333,246.3125,79.0,113.0
443,246.78333333333333,247.10625,77.0,117.0
444,248.03333333333333,248.2875,74.0,117.0
445,248.28333333333333,248.41458333333333,77.0,113.0
446,248.53333333333333,248.6625,82.0,119.0
447,248.78333333333333,248.9,82.0,116.0
448,249.03333333333333,249.14374999999998,82.0,110.0
449,249.28333333333333,249.40416666666667,82.0,114.0
450,249.53333333333333,249.69791666666666,82.0,117.0
451,250.03333333333333,250.26458333333332,82.0,113.0
452,250.28333333333333,250.50208333333333,84.0,110.0
453,250.53333333333333,250.88333333333333,81.0,113.0
454,251.03333333333333,251.26666666666665,77.0,116.0
455,251.28333333333333,251.52083333333334,79.0,114.0
456,252.03333333333333,252.20208333333332,74.0,114.0
457,252.28333333333333,252.43958333333333,77.0,107.0
458,252.53333333333333,252.65833333333333,79.0,108.0
459,252.78333333333333,252.88958333333332,79.0,102.0
460,253.03333333333333,253.23541666666665,79.0,113.0
461,253.28333333333333,253.52708333333334,77.0,108.0
462,253.53333333333333,253.83333333333334,79.0,110.0
463,254.03333333333333,254.29166666666666,70.0,110.0
464,254.28333333333333,254.46666666666667,72.0,107.0
465,254.53333333333333,254.70833333333334,74.0,108.0
466,255.03333333333333,255.23333333333332,77.0,108.0
467,255.28333333333333,255.5875,74.0,110.0
468,256.5333333333333,256.65416666666664,72.0,110.0
469,256.7833333333333,257.0104166666667,72.0,110.0
470,257.2833333333333,257.48125,74.0,110.0
471,257.5333333333333,257.8125,72.0,116.0
472,258.0333333333333,258.18333333333334,67.0,113.0
473,258.2833333333333,258.40208333333334,70.0,96.0
474,258.5333333333333,258.73541666666665,77.0,110.0
475,258.7833333333333,258.99791666666664,74.0,110.0
476,259.0333333333333,259.2604166666667,72.0,107.0
477,259.2833333333333,259.55625,74.0,116.0
478,260.5333333333333,260.6770833333333,79.0,114.0
479,260.7833333333333,261.01666666666665,79.0,116.0
480,261.2833333333333,261.4458333333333,82.0,110.0
481,261.5333333333333,261.78541666666666,81.0,107.0
482,261.7833333333333,262.0083333333333,79.0,102.0
483,262.0333333333333,262.31875,77.0,113.0
484,263.0333333333333,263.4166666666667,77.0,116.0
485,264.5333333333333,264.63958333333335,70.0,117.0
486,264.7833333333333,264.8770833333333,70.0,96.0
487,265.0333333333333,265.12291666666664,70.0,92.0
488,265.2833333333333,265.37291666666664,70.0,92.0
489,265.5333333333333,265.77708333333334,70.0,113.0
490,266.0333333333333,266.2,72.0,113.0
491,266.2833333333333,266.5645833333333,74.0,108.0
492,266.5333333333333,266.8625,72.0,114.0
493,267.0333333333333,267.40416666666664,67.0,108.0
494,268.5333333333333,268.70208333333335,70.0,96.0
495,268.7833333333333,268.89375,70.0,89.0
496,269.0333333333333,269.13958333333335,70.0,89.0
497,269.2833333333333,269.38125,70.0,88.0
498,269.5333333333333,269.79583333333335,70.0,104.0
499,270.0333333333333,270.16875,72.0,107.0
500,270.2833333333333,270.41875,74.0,96.0
501,270.5333333333333,270.81041666666664,72.0,107.0
502,271.0333333333333,271.35,74.0,113.0
503,272.5333333333333,272.6354166666667,72.0,108.0
504,272.7833333333333,272.87291666666664,72.0,98.0
505,273.0333333333333,273.1270833333333,72.0,104.0
506,273.2833333333333,273.37291666666664,72.0,100.0
507,273.5333333333333,273.79791666666665,72.0,113.0
508,274.0333333333333,274.19375,74.0,114.0
509,274.2833333333333,274.4395833333333,77.0,114.0
510,274.5333333333333,274.78125,74.0,113.0
511,275.0333333333333,275.2416666666667,72.0,113.0
512,275.2833333333333,275.53541666666666,70.0,102.0
513,275.5333333333333,275.7833333333333,67.0,93.0
514,275.7833333333333,275.9083333333333,70.0,104.0
515,276.0333333333333,276.2208333333333,70.0,104.0
516,276.2833333333333,276.4708333333333,70.0,104.0
517,276.5333333333333,276.6645833333333,72.0,108.0
518,276.7833333333333,276.9395833333333,72.0,113.0
519,277.0333333333333,277.1895833333333,72.0,113.0
520,277.2833333333333,277.5333333333333,70.0,100.0
521,277.5333333333333,277.725,67.0,107.0
522,277.7833333333333,278.0,67.0,98.0
523,278.0333333333333,278.6,70.0,94.0
524,279.0333333333333,279.4770833333333,70.0,113.0
