,start,end,pitch,velocity
0,1.0333333333333332,2.1791666666666667,53.0,82.0
1,0.5333333333333333,2.2979166666666666,46.0,98.0
2,1.5333333333333332,2.6083333333333334,58.0,84.0
3,2.033333333333333,2.6083333333333334,65.0,88.0
4,2.533333333333333,4.147916666666666,41.0,94.0
5,3.033333333333333,4.552083333333333,57.0,80.0
6,4.033333333333333,4.577083333333333,60.0,86.0
7,3.533333333333333,4.597916666666666,65.0,82.0
8,5.033333333333333,7.052083333333333,51.0,84.0
9,5.533333333333333,7.28125,55.0,82.0
10,6.033333333333333,7.335416666666666,63.0,90.0
11,6.533333333333333,7.370833333333334,58.0,78.0
12,4.533333333333333,7.408333333333333,39.0,100.0
13,7.533333333333333,8.139583333333333,41.0,87.0
14,7.533333333333333,8.527083333333334,53.0,81.0
15,7.533333333333333,8.558333333333334,60.0,85.0
16,7.533333333333333,8.56875,57.0,84.0
17,8.533333333333333,10.20625,46.0,91.0
18,9.033333333333333,10.252083333333333,53.0,84.0
19,9.533333333333333,10.45625,58.0,78.0
20,10.033333333333333,10.539583333333333,62.0,86.0
21,11.033333333333333,12.10625,53.0,85.0
22,10.533333333333333,12.110416666666666,46.0,86.0
23,12.033333333333333,12.429166666666667,62.0,82.0
24,11.533333333333333,12.46875,58.0,83.0
25,13.533333333333333,14.125,65.0,89.0
26,14.033333333333333,14.59375,53.0,74.0
27,14.533333333333333,15.077083333333333,60.0,86.0
28,13.033333333333333,16.04375,48.0,75.0
29,12.533333333333333,16.108333333333334,41.0,87.0
30,15.033333333333333,16.145833333333332,53.0,72.0
31,15.533333333333333,16.285416666666666,57.0,85.0
32,16.03333333333333,16.3125,60.0,87.0
33,17.03333333333333,17.6125,53.0,82.0
34,16.53333333333333,18.03125,46.0,92.0
35,17.53333333333333,18.520833333333332,65.0,92.0
36,17.53333333333333,18.633333333333333,58.0,89.0
37,18.03333333333333,18.664583333333333,62.0,85.0
38,19.03333333333333,20.035416666666666,50.0,87.0
39,18.53333333333333,20.052083333333332,43.0,91.0
40,19.53333333333333,20.629166666666666,58.0,89.0
41,19.53333333333333,20.702083333333334,67.0,92.0
42,20.03333333333333,20.758333333333333,62.0,85.0
43,21.53333333333333,22.50208333333333,65.0,84.0
44,22.03333333333333,22.622916666666665,53.0,70.0
45,22.53333333333333,23.085416666666667,60.0,85.0
46,23.03333333333333,24.00208333333333,53.0,75.0
47,20.53333333333333,24.0375,41.0,91.0
48,21.03333333333333,24.041666666666668,48.0,85.0
49,23.53333333333333,24.40625,57.0,86.0
50,23.53333333333333,24.433333333333334,65.0,79.0
51,24.03333333333333,24.554166666666667,60.0,84.0
52,24.53333333333333,26.193749999999998,39.0,100.0
53,25.03333333333333,26.264583333333334,51.0,85.0
54,25.53333333333333,26.68958333333333,63.0,85.0
55,25.53333333333333,26.691666666666666,55.0,86.0
56,26.03333333333333,26.808333333333334,58.0,81.0
57,26.53333333333333,28.068749999999998,41.0,89.0
58,27.03333333333333,28.099999999999998,48.0,86.0
59,27.53333333333333,28.370833333333334,53.0,80.0
60,27.53333333333333,28.59583333333333,57.0,88.0
61,27.53333333333333,28.608333333333334,65.0,89.0
62,28.03333333333333,28.639583333333334,60.0,84.0
63,30.03333333333333,30.558333333333334,62.0,87.0
64,29.03333333333333,30.691666666666666,53.0,86.0
65,29.53333333333333,30.925,58.0,86.0
66,30.53333333333333,31.029166666666665,65.0,88.0
67,28.53333333333333,31.9625,46.0,89.0
68,31.03333333333333,31.989583333333332,53.0,67.0
69,31.53333333333333,32.079166666666666,62.0,94.0
70,31.53333333333333,32.46666666666667,70.0,91.0
71,32.03333333333333,32.47708333333333,65.0,84.0
72,33.03333333333333,34.08125,53.0,82.0
73,32.53333333333333,34.11875,46.0,98.0
74,33.53333333333333,34.55625,65.0,82.0
75,33.53333333333333,34.583333333333336,58.0,90.0
76,34.03333333333333,34.608333333333334,62.0,81.0
77,35.03333333333333,36.041666666666664,55.0,86.0
78,34.53333333333333,36.06875,46.0,89.0
79,35.53333333333333,36.28125,60.0,86.0
80,35.53333333333333,36.34166666666667,67.0,88.0
81,36.53333333333333,38.0125,43.0,88.0
82,37.03333333333333,38.03333333333333,50.0,77.0
83,38.03333333333333,38.610416666666666,62.0,82.0
84,38.53333333333333,38.610416666666666,62.0,63.0
85,37.53333333333333,38.64791666666667,58.0,86.0
86,37.53333333333333,38.67916666666667,67.0,86.0
87,38.53333333333333,39.25,55.0,71.0
88,38.53333333333333,40.00833333333333,43.0,74.0
89,39.53333333333333,40.28541666666666,55.0,69.0
90,39.53333333333333,40.295833333333334,62.0,80.0
91,41.03333333333333,41.97708333333333,55.0,73.0
92,40.53333333333333,42.03541666666666,48.0,88.0
93,41.53333333333333,42.50833333333333,67.0,84.0
94,41.53333333333333,42.52708333333333,60.0,86.0
95,42.03333333333333,42.53958333333333,63.0,80.0
96,43.03333333333333,43.96041666666667,50.0,74.0
97,42.53333333333333,44.06041666666667,43.0,85.0
98,43.53333333333333,44.09583333333333,65.0,84.0
99,44.03333333333333,44.51875,62.0,82.0
100,43.53333333333333,44.583333333333336,58.0,80.0
101,44.53333333333333,46.052083333333336,39.0,87.0
102,45.03333333333333,46.075,51.0,80.0
103,45.53333333333333,46.63333333333333,63.0,80.0
104,45.53333333333333,46.66458333333333,55.0,77.0
105,46.03333333333333,46.729166666666664,58.0,72.0
106,46.53333333333333,48.079166666666666,41.0,86.0
107,47.03333333333333,48.0875,48.0,78.0
108,47.53333333333333,48.489583333333336,53.0,87.0
109,48.03333333333333,48.541666666666664,58.0,86.0
110,49.53333333333333,50.020833333333336,65.0,71.0
111,48.53333333333333,50.11875,46.0,86.0
112,49.03333333333333,50.13125,53.0,81.0
113,49.53333333333333,50.610416666666666,58.0,79.0
114,50.03333333333333,50.78125,62.0,80.0
115,51.03333333333333,52.02708333333333,55.0,78.0
116,50.53333333333333,52.045833333333334,46.0,88.0
117,51.53333333333333,52.52916666666667,67.0,86.0
118,51.53333333333333,52.574999999999996,60.0,86.0
119,52.03333333333333,52.63333333333333,63.0,80.0
120,52.53333333333333,54.05833333333333,43.0,88.0
121,53.03333333333333,54.09791666666666,50.0,81.0
122,53.53333333333333,54.514583333333334,58.0,82.0
123,53.53333333333333,54.53333333333333,67.0,84.0
124,54.03333333333333,54.56875,62.0,80.0
125,54.53333333333333,56.02291666666667,43.0,81.0
126,55.03333333333333,56.043749999999996,50.0,68.0
127,55.53333333333333,56.270833333333336,62.0,80.0
128,55.53333333333333,56.28958333333333,55.0,77.0
129,56.03333333333333,56.358333333333334,58.0,81.0
130,56.53333333333333,58.10208333333333,48.0,67.0
131,57.53333333333333,58.5,63.0,96.0
132,58.03333333333333,58.543749999999996,60.0,87.0
133,57.03333333333333,58.55416666666667,55.0,67.0
134,58.53333333333333,60.05,43.0,87.0
135,59.53333333333333,60.4375,62.0,93.0
136,59.03333333333333,60.583333333333336,55.0,76.0
137,60.03333333333333,60.59791666666666,58.0,87.0
138,60.53333333333333,61.28125,39.0,91.0
139,61.03333333333333,61.53125,51.0,82.0
140,61.53333333333333,62.0875,41.0,88.0
141,62.03333333333333,62.60208333333333,57.0,86.0
142,62.53333333333333,63.077083333333334,65.0,86.0
143,62.53333333333333,63.175,58.0,81.0
144,63.03333333333333,64.00416666666666,53.0,74.0
145,62.53333333333333,64.02916666666667,46.0,86.0
146,63.53333333333333,64.09166666666667,65.0,88.0
147,64.03333333333333,64.20833333333333,62.0,82.0
148,63.53333333333333,64.2125,58.0,90.0
149,64.53333333333333,65.20416666666667,55.0,83.0
150,64.53333333333333,65.21458333333334,63.0,88.0
151,64.53333333333333,65.54166666666667,48.0,86.0
152,65.53333333333333,66.18958333333333,41.0,86.0
153,64.53333333333333,66.41458333333333,60.0,88.0
154,65.53333333333333,66.43125,65.0,86.0
155,65.53333333333333,66.44375,57.0,81.0
156,66.53333333333333,66.975,58.0,84.0
157,66.53333333333333,67.04791666666667,62.0,83.0
158,67.53333333333333,68.08125,65.0,92.0
159,67.53333333333333,68.0875,60.0,90.0
160,68.03333333333333,68.25833333333333,58.0,82.0
161,66.53333333333333,68.26875,46.0,84.0
162,67.03333333333333,68.38958333333333,53.0,70.0
163,68.53333333333333,69.01041666666667,65.0,88.0
164,68.53333333333333,69.04166666666667,62.0,89.0
165,69.03333333333333,69.67916666666666,53.0,67.0
166,68.53333333333333,70.075,46.0,93.0
167,69.53333333333333,70.11875,58.0,89.0
168,69.53333333333333,70.17916666666666,65.0,93.0
169,70.03333333333333,70.53333333333333,53.0,78.0
170,70.53333333333333,71.15833333333333,57.0,87.0
171,70.53333333333333,71.16458333333333,65.0,88.0
172,71.03333333333333,71.69375,53.0,75.0
173,70.53333333333333,71.75208333333333,41.0,88.0
174,71.53333333333333,72.12916666666666,57.0,96.0
175,71.53333333333333,72.15,65.0,102.0
176,72.03333333333333,72.55,41.0,82.0
177,72.53333333333333,73.26458333333333,55.0,38.0
178,72.53333333333333,73.275,63.0,91.0
179,72.53333333333333,73.50625,39.0,90.0
180,72.53333333333333,73.51875,58.0,88.0
181,73.53333333333333,74.125,41.0,79.0
182,73.53333333333333,74.57916666666667,57.0,88.0
183,73.53333333333333,74.58958333333334,65.0,88.0
184,74.53333333333333,74.96041666666666,58.0,87.0
185,74.53333333333333,75.04166666666667,62.0,84.0
186,75.03333333333333,75.65208333333334,53.0,80.0
187,74.53333333333333,76.09375,46.0,84.0
188,75.53333333333333,76.2125,60.0,98.0
189,75.53333333333333,76.3875,65.0,100.0
190,76.53333333333333,76.59375,60.0,71.0
191,76.03333333333333,76.65,62.0,85.0
192,77.03333333333333,78.05208333333333,55.0,84.0
193,76.53333333333333,78.11666666666666,48.0,86.0
194,77.53333333333333,78.59791666666666,60.0,91.0
195,78.03333333333333,78.6,63.0,82.0
196,77.53333333333333,78.61041666666667,67.0,91.0
197,79.03333333333333,80.03541666666666,53.0,83.0
198,78.53333333333333,80.10625,41.0,89.0
199,80.03333333333333,80.60833333333333,60.0,82.0
200,79.53333333333333,80.63541666666667,57.0,87.0
201,79.53333333333333,80.64583333333333,65.0,87.0
202,80.53333333333333,82.04583333333333,39.0,96.0
203,81.03333333333333,82.0625,51.0,86.0
204,81.53333333333333,82.69375,55.0,96.0
205,81.53333333333333,82.98958333333333,63.0,91.0
206,82.03333333333333,83.09791666666666,58.0,84.0
207,83.28333333333333,83.65625,57.0,88.0
208,82.53333333333333,84.00416666666666,41.0,86.0
209,82.78333333333333,84.05625,48.0,78.0
210,83.53333333333333,84.11041666666667,65.0,108.0
211,83.78333333333333,84.23958333333333,57.0,77.0
212,84.03333333333333,84.29583333333333,60.0,87.0
213,84.28333333333333,84.54375,65.0,88.0
214,84.53333333333333,84.54375,65.0,84.0
215,83.03333333333333,84.575,53.0,89.0
216,84.53333333333333,85.06875,58.0,82.0
217,85.03333333333333,86.06458333333333,53.0,72.0
218,84.53333333333333,86.08958333333334,46.0,86.0
219,85.53333333333333,86.3,58.0,96.0
220,85.53333333333333,87.02083333333333,65.0,93.0
221,86.53333333333333,87.08958333333334,57.0,84.0
222,87.03333333333333,88.0125,53.0,81.0
223,86.53333333333333,88.05416666666666,41.0,83.0
224,87.53333333333333,88.32708333333333,65.0,107.0
225,88.03333333333333,88.50625,60.0,91.0
226,88.53333333333333,89.2125,55.0,86.0
227,88.53333333333333,89.2625,63.0,92.0
228,88.53333333333333,89.49375,39.0,88.0
229,89.53333333333333,90.07916666666667,41.0,83.0
230,89.53333333333333,90.50833333333333,65.0,91.0
231,89.53333333333333,90.575,57.0,88.0
232,90.53333333333333,90.96666666666667,58.0,81.0
233,90.53333333333333,91.00416666666666,62.0,82.0
234,91.03333333333333,91.69166666666666,53.0,77.0
235,90.53333333333333,92.09791666666666,46.0,85.0
236,91.53333333333333,92.16666666666667,58.0,87.0
237,91.53333333333333,92.40208333333334,65.0,89.0
238,92.03333333333333,92.54583333333333,53.0,74.0
239,92.53333333333333,93.07708333333333,67.0,89.0
240,92.53333333333333,93.12083333333334,60.0,87.0
241,93.03333333333333,94.1125,55.0,66.0
242,92.53333333333333,94.15833333333333,48.0,84.0
243,93.53333333333333,94.27083333333333,67.0,89.0
244,93.53333333333333,94.52916666666667,60.0,90.0
245,94.53333333333333,95.02708333333334,65.0,88.0
246,94.53333333333333,95.06666666666666,57.0,87.0
247,95.03333333333333,96.02916666666667,53.0,71.0
248,94.53333333333333,96.125,41.0,84.0
249,95.53333333333333,96.13333333333333,65.0,88.0
250,95.53333333333333,96.15,57.0,86.0
251,96.53333333333333,97.16875,39.0,93.0
252,97.03333333333333,97.29583333333333,63.0,81.0
253,97.03333333333333,97.50208333333333,55.0,84.0
254,97.53333333333333,98.21875,40.0,86.0
255,97.53333333333333,98.225,55.0,87.0
256,97.53333333333333,98.36041666666667,64.0,91.0
257,98.53333333333333,99.59583333333333,57.0,83.0
258,98.53333333333333,99.825,65.0,91.0
259,98.53333333333333,100.28333333333333,41.0,85.0
260,99.03333333333333,100.32708333333333,48.0,73.0
261,99.53333333333333,100.32708333333333,53.0,84.0
262,100.03333333333333,100.35208333333333,60.0,86.0
263,101.03333333333333,102.0125,53.0,81.0
264,100.53333333333333,102.05208333333333,46.0,89.0
265,101.53333333333333,102.35208333333333,65.0,89.0
266,102.03333333333333,102.57916666666667,62.0,86.0
267,101.53333333333333,102.61874999999999,58.0,88.0
268,102.53333333333333,104.1375,43.0,88.0
269,103.03333333333333,104.19166666666666,50.0,85.0
270,103.53333333333333,104.82083333333333,55.0,86.0
271,104.03333333333333,104.97291666666666,58.0,86.0
272,104.53333333333333,106.24583333333334,41.0,89.0
273,105.03333333333333,106.54583333333333,48.0,84.0
274,105.53333333333333,107.01041666666667,60.0,88.0
275,106.03333333333333,107.02083333333333,57.0,82.0
276,106.28333333333333,107.83125,41.0,81.0
277,107.03333333333333,108.03333333333333,48.0,78.0
278,107.53333333333333,108.05,60.0,88.0
279,108.03333333333333,108.95625,57.0,83.0
280,108.53333333333333,110.075,39.0,93.0
281,109.03333333333333,110.48333333333333,51.0,87.0
282,109.53333333333333,110.63958333333333,55.0,91.0
283,110.03333333333333,110.90833333333333,58.0,88.0
284,110.53333333333333,111.95,41.0,88.0
285,111.03333333333333,112.02291666666666,48.0,85.0
286,111.53333333333333,112.58541666666666,57.0,90.0
287,112.03333333333333,112.64375,60.0,93.0
288,114.03333333333333,114.61666666666666,60.0,83.0
289,113.53333333333333,114.62916666666666,58.0,87.0
290,114.53333333333333,115.34166666666667,62.0,87.0
291,115.28333333333333,115.975,58.0,84.0
292,113.03333333333333,116.04166666666667,53.0,80.0
293,112.53333333333333,116.04791666666667,46.0,88.0
294,115.53333333333333,116.05833333333334,60.0,92.0
295,116.53333333333333,117.00416666666666,65.0,85.0
296,116.53333333333333,117.14999999999999,58.0,82.0
297,116.03333333333333,117.4875,62.0,85.0
298,117.53333333333333,118.25625,58.0,87.0
299,116.53333333333333,118.26875,46.0,84.0
300,117.03333333333333,118.34583333333333,53.0,60.0
301,117.53333333333333,118.57708333333333,65.0,89.0
302,118.53333333333333,119.26041666666667,63.0,82.0
303,118.53333333333333,119.29166666666667,67.0,88.0
304,118.53333333333333,119.29583333333333,60.0,86.0
305,119.53333333333333,119.94791666666667,63.0,78.0
306,119.53333333333333,120.06458333333333,67.0,77.0
307,118.53333333333333,120.46249999999999,46.0,80.0
308,119.53333333333333,120.49583333333334,60.0,76.0
309,120.53333333333333,121.2625,65.0,84.0
310,120.53333333333333,121.32083333333333,62.0,82.0
311,120.53333333333333,121.3625,58.0,80.0
312,121.53333333333333,122.10416666666667,62.0,84.0
313,121.53333333333333,122.11458333333333,65.0,83.0
314,121.53333333333333,122.18333333333334,58.0,80.0
315,120.53333333333333,122.24791666666667,43.0,78.0
316,122.53333333333333,123.17916666666666,62.0,82.0
317,122.53333333333333,123.25625,58.0,79.0
318,122.53333333333333,123.26458333333333,55.0,76.0
319,123.53333333333333,124.15208333333334,62.0,84.0
320,123.53333333333333,124.20416666666667,55.0,81.0
321,123.53333333333333,124.2875,58.0,77.0
322,122.53333333333333,124.29583333333333,43.0,78.0
323,124.53333333333333,125.21666666666667,63.0,84.0
324,124.53333333333333,125.28958333333333,55.0,80.0
325,124.53333333333333,125.28958333333333,60.0,82.0
326,125.53333333333333,126.15416666666667,55.0,86.0
327,125.53333333333333,126.19375,63.0,88.0
328,125.53333333333333,126.46666666666667,60.0,88.0
329,124.53333333333333,126.55,48.0,84.0
330,126.53333333333333,127.00208333333333,62.0,69.0
331,126.53333333333333,127.02083333333333,55.0,77.0
332,126.53333333333333,127.20208333333333,58.0,78.0
333,127.03333333333333,127.61874999999999,50.0,64.0
334,127.53333333333333,128.125,62.0,86.0
335,126.53333333333333,128.15,43.0,78.0
336,127.53333333333333,128.36875,55.0,84.0
337,128.53333333333333,129.18125,63.0,87.0
338,128.53333333333333,129.27916666666667,55.0,83.0
339,127.53333333333333,129.4375,58.0,84.0
340,128.53333333333333,130.225,39.0,83.0
341,129.53333333333333,130.27291666666667,63.0,83.0
342,129.53333333333333,130.3625,55.0,84.0
343,129.53333333333333,130.44583333333333,58.0,83.0
344,130.53333333333333,131.30208333333334,60.0,87.0
345,130.53333333333333,131.44375,57.0,89.0
346,130.53333333333333,132.0375,41.0,84.0
347,131.03333333333333,132.0625,48.0,68.0
348,131.53333333333333,132.20625,55.0,87.0
349,131.53333333333333,132.46875,60.0,87.0
350,132.03333333333333,132.56666666666666,57.0,87.0
351,131.53333333333333,132.59166666666667,53.0,87.0
352,132.53333333333333,132.95833333333334,58.0,85.0
353,132.53333333333333,132.99375,62.0,84.0
354,133.28333333333333,134.02708333333334,58.0,84.0
355,133.53333333333333,134.08125,60.0,88.0
356,133.03333333333333,134.0875,53.0,70.0
357,132.53333333333333,134.11041666666665,46.0,81.0
358,134.03333333333333,134.58125,62.0,81.0
359,134.53333333333333,135.31666666666666,67.0,82.0
360,134.53333333333333,135.36458333333334,60.0,82.0
361,134.53333333333333,135.36666666666667,63.0,84.0
362,134.53333333333333,136.21875,46.0,76.0
363,135.53333333333333,136.28541666666666,60.0,81.0
364,135.53333333333333,136.33125,67.0,83.0
365,135.53333333333333,136.45,63.0,83.0
366,136.53333333333333,137.17916666666667,65.0,77.0
367,136.53333333333333,137.19375,62.0,84.0
368,136.53333333333333,137.20416666666665,58.0,78.0
369,137.53333333333333,138.00416666666666,62.0,84.0
370,137.53333333333333,138.15,58.0,81.0
371,137.53333333333333,138.22083333333333,65.0,82.0
372,136.53333333333333,138.35208333333333,46.0,80.0
373,138.53333333333333,139.27083333333334,55.0,73.0
374,138.53333333333333,139.28958333333333,58.0,77.0
375,138.53333333333333,139.28958333333333,62.0,80.0
376,139.03333333333333,139.85208333333333,50.0,72.0
377,139.53333333333333,140.09375,62.0,91.0
378,138.53333333333333,140.13125,43.0,77.0
379,139.53333333333333,140.24375,55.0,91.0
380,140.03333333333333,140.43125,58.0,75.0
381,140.53333333333333,141.30208333333334,63.0,86.0
382,140.53333333333333,141.30833333333334,55.0,86.0
383,140.53333333333333,141.32291666666666,60.0,87.0
384,141.53333333333333,142.23541666666665,63.0,87.0
385,141.53333333333333,142.2875,55.0,85.0
386,141.53333333333333,142.34791666666666,60.0,87.0
387,140.53333333333333,142.50833333333333,48.0,84.0
388,142.53333333333333,143.27291666666667,62.0,84.0
389,142.53333333333333,143.28333333333333,58.0,88.0
390,142.53333333333333,143.31041666666667,55.0,85.0
391,143.53333333333333,144.26041666666666,62.0,89.0
392,143.53333333333333,144.27708333333334,55.0,86.0
393,143.53333333333333,144.33958333333334,58.0,91.0
394,142.53333333333333,144.40833333333333,43.0,83.0
395,144.53333333333333,145.27291666666667,55.0,83.0
396,144.53333333333333,145.28958333333333,63.0,88.0
397,144.53333333333333,145.50833333333333,48.0,86.0
398,145.53333333333333,146.13958333333332,41.0,78.0
399,145.53333333333333,146.3125,65.0,86.0
400,145.53333333333333,146.41041666666666,57.0,84.0
401,144.53333333333333,146.42916666666667,60.0,87.0
402,145.53333333333333,146.52083333333334,53.0,79.0
403,146.53333333333333,147.00208333333333,58.0,88.0
404,146.53333333333333,147.10833333333332,62.0,82.0
405,146.53333333333333,148.11041666666665,46.0,83.0
406,148.03333333333333,148.33125,58.0,77.0
407,147.53333333333333,148.38541666666666,65.0,94.0
408,147.53333333333333,148.47291666666666,60.0,98.0
409,147.03333333333333,148.50416666666666,53.0,72.0
410,148.53333333333333,149.22916666666666,67.0,87.0
411,148.53333333333333,149.3875,63.0,84.0
412,148.53333333333333,149.55208333333334,48.0,86.0
413,149.53333333333333,150.20208333333332,41.0,87.0
414,149.53333333333333,150.32291666666666,57.0,84.0
415,149.53333333333333,150.34791666666666,65.0,84.0
416,148.53333333333333,150.47083333333333,60.0,83.0
417,150.53333333333333,151.11041666666665,58.0,82.0
418,150.53333333333333,151.30208333333334,62.0,86.0
419,150.53333333333333,151.375,65.0,84.0
420,151.53333333333333,151.90833333333333,60.0,107.0
421,151.78333333333333,152.09375,62.0,89.0
422,150.53333333333333,152.17708333333334,46.0,75.0
423,151.28333333333333,152.23125,58.0,91.0
424,152.03333333333333,152.26458333333332,65.0,92.0
425,151.03333333333333,152.51666666666665,53.0,80.0
426,152.53333333333333,153.17708333333334,65.0,88.0
427,152.53333333333333,153.20416666666665,58.0,86.0
428,152.53333333333333,153.25,62.0,96.0
429,153.28333333333333,154.00208333333333,53.0,83.0
430,152.53333333333333,154.06666666666666,46.0,87.0
431,153.53333333333333,154.10625,58.0,108.0
432,153.53333333333333,154.30416666666667,65.0,108.0
433,154.03333333333333,154.47291666666666,62.0,86.0
434,154.53333333333333,155.23125,65.0,88.0
435,154.53333333333333,155.3,57.0,86.0
436,154.53333333333333,155.3,60.0,91.0
437,155.28333333333333,155.92916666666667,53.0,83.0
438,155.53333333333333,156.06666666666666,65.0,91.0
439,155.53333333333333,156.06875,57.0,107.0
440,154.53333333333333,156.07708333333332,41.0,87.0
441,156.03333333333333,156.5,60.0,87.0
442,156.53333333333333,157.21666666666667,63.0,92.0
443,156.53333333333333,157.22083333333333,55.0,90.0
444,156.53333333333333,157.45625,58.0,98.0
445,156.53333333333333,157.48541666666665,39.0,91.0
446,157.53333333333333,158.09166666666667,41.0,87.0
447,157.53333333333333,158.39375,60.0,93.0
448,157.53333333333333,158.39791666666667,57.0,88.0
449,157.53333333333333,158.43125,65.0,91.0
450,158.53333333333333,158.92291666666665,58.0,89.0
451,158.53333333333333,159.0375,62.0,90.0
452,158.53333333333333,159.27083333333334,65.0,86.0
453,159.28333333333333,160.02916666666667,58.0,87.0
454,159.03333333333333,160.05833333333334,53.0,75.0
455,158.53333333333333,160.08125,46.0,86.0
456,159.53333333333333,160.08125,60.0,90.0
457,160.03333333333333,160.3,62.0,88.0
458,160.53333333333333,161.01458333333332,58.0,76.0
459,160.53333333333333,161.30625,63.0,88.0
460,160.53333333333333,161.41041666666666,55.0,87.0
461,160.53333333333333,161.41458333333333,60.0,87.0
462,160.53333333333333,162.12916666666666,48.0,86.0
463,161.53333333333333,162.16458333333333,63.0,88.0
464,161.53333333333333,162.33958333333334,55.0,88.0
465,161.53333333333333,162.39375,60.0,92.0
466,162.53333333333333,162.97708333333333,57.0,84.0
467,162.53333333333333,163.18541666666667,65.0,86.0
468,162.53333333333333,163.21041666666667,62.0,83.0
469,162.53333333333333,163.82916666666665,50.0,84.0
470,163.53333333333333,164.08333333333334,65.0,91.0
471,163.53333333333333,164.12708333333333,57.0,93.0
472,163.53333333333333,164.13333333333333,62.0,102.0
473,164.03333333333333,164.14375,50.0,86.0
474,164.53333333333333,165.18958333333333,63.0,90.0
475,164.53333333333333,165.19791666666666,39.0,87.0
476,164.53333333333333,165.21458333333334,55.0,88.0
477,164.53333333333333,165.27291666666667,58.0,92.0
478,165.53333333333333,166.12708333333333,40.0,86.0
479,165.53333333333333,166.225,64.0,91.0
480,165.53333333333333,166.24166666666667,55.0,85.0
481,165.53333333333333,166.44791666666666,60.0,93.0
482,166.53333333333333,167.12708333333333,65.0,86.0
483,166.53333333333333,167.14791666666667,60.0,82.0
484,166.53333333333333,167.17291666666665,57.0,84.0
485,167.28333333333333,167.53125,58.0,87.0
486,167.03333333333333,167.57083333333333,53.0,94.0
487,167.53333333333333,167.91041666666666,57.0,102.0
488,167.53333333333333,167.9375,65.0,98.0
489,166.53333333333333,168.11458333333334,41.0,84.0
490,166.78333333333333,168.12291666666667,48.0,84.0
491,167.78333333333333,168.24791666666667,53.0,100.0
492,168.03333333333333,168.32083333333333,58.0,91.0
493,168.28333333333333,168.4875,65.0,89.0
494,168.53333333333333,169.12708333333333,65.0,89.0
495,168.53333333333333,169.22291666666666,58.0,88.0
496,168.53333333333333,169.225,62.0,94.0
497,169.28333333333333,169.63333333333333,53.0,77.0
498,168.53333333333333,170.08333333333334,46.0,88.0
499,170.03333333333333,170.12708333333333,53.0,87.0
500,169.53333333333333,170.28333333333333,58.0,98.0
501,169.53333333333333,170.28333333333333,65.0,96.0
502,169.53333333333333,170.32916666666665,62.0,108.0
503,170.53333333333333,171.2875,65.0,88.0
504,170.53333333333333,171.29791666666665,57.0,96.0
505,170.53333333333333,171.3125,62.0,92.0
506,171.28333333333333,171.61666666666667,50.0,87.0
507,170.53333333333333,172.03541666666666,38.0,92.0
508,171.53333333333333,172.13541666666666,57.0,110.0
509,171.53333333333333,172.22291666666666,65.0,96.0
510,172.03333333333333,172.4375,50.0,87.0
511,172.53333333333333,173.27291666666667,63.0,92.0
512,172.53333333333333,173.27916666666667,55.0,91.0
513,172.53333333333333,173.42916666666667,39.0,88.0
514,172.53333333333333,173.45416666666665,58.0,102.0
515,173.53333333333333,174.19166666666666,41.0,87.0
516,173.53333333333333,174.40833333333333,60.0,91.0
517,173.53333333333333,174.42291666666665,65.0,89.0
518,173.53333333333333,174.44583333333333,57.0,87.0
519,174.53333333333333,174.95416666666665,58.0,88.0
520,174.53333333333333,175.02083333333334,62.0,88.0
521,174.53333333333333,175.32291666666666,65.0,79.0
522,175.28333333333333,175.975,58.0,88.0
523,175.03333333333333,176.00625,53.0,79.0
524,174.53333333333333,176.0625,46.0,86.0
525,175.53333333333333,176.06458333333333,60.0,94.0
526,176.03333333333333,176.14375,62.0,90.0
527,176.53333333333333,177.325,63.0,88.0
528,176.53333333333333,177.40833333333333,60.0,94.0
529,176.53333333333333,177.41041666666666,55.0,86.0
530,176.53333333333333,177.7375,48.0,88.0
531,177.53333333333333,178.22916666666666,63.0,91.0
532,177.53333333333333,178.24791666666667,55.0,90.0
533,177.53333333333333,178.34375,60.0,92.0
534,178.03333333333333,178.49375,48.0,87.0
535,178.53333333333333,179.38958333333332,57.0,89.0
536,178.53333333333333,179.40208333333334,62.0,92.0
537,178.53333333333333,179.40416666666667,65.0,91.0
538,178.53333333333333,179.73541666666665,50.0,87.0
539,179.53333333333333,180.13333333333333,57.0,93.0
540,180.03333333333333,180.15416666666667,50.0,89.0
541,179.53333333333333,180.28541666666666,65.0,89.0
542,179.53333333333333,180.44583333333333,62.0,96.0
543,180.53333333333333,181.31458333333333,58.0,91.0
544,180.53333333333333,181.31666666666666,55.0,88.0
545,180.53333333333333,181.32291666666666,63.0,90.0
546,180.53333333333333,181.34583333333333,39.0,91.0
547,181.53333333333333,182.15416666666667,40.0,85.0
548,181.53333333333333,182.20625,64.0,89.0
549,181.53333333333333,182.26041666666666,55.0,87.0
550,181.53333333333333,182.44166666666666,60.0,90.0
551,182.53333333333333,183.54375,57.0,86.0
552,182.53333333333333,183.625,65.0,87.0
553,182.53333333333333,183.75833333333333,60.0,86.0
554,183.53333333333333,184.26875,53.0,84.0
555,183.03333333333333,184.32916666666665,48.0,73.0
556,182.53333333333333,184.38125,41.0,87.0
557,184.03333333333333,184.4125,58.0,82.0
558,184.53333333333333,185.00416666666666,65.0,85.0
559,184.53333333333333,185.15,58.0,82.0
560,185.53333333333333,186.25625,58.0,87.0
561,184.53333333333333,186.26875,46.0,84.0
562,185.03333333333333,186.34583333333333,53.0,60.0
563,185.53333333333333,186.57708333333332,65.0,89.0
564,186.53333333333333,187.26041666666666,63.0,82.0
565,186.53333333333333,187.29166666666666,67.0,88.0
566,186.53333333333333,187.29583333333332,60.0,86.0
567,187.53333333333333,187.94791666666666,63.0,78.0
568,187.53333333333333,188.06458333333333,67.0,77.0
569,186.53333333333333,188.4625,46.0,80.0
570,187.53333333333333,188.49583333333334,60.0,76.0
571,188.53333333333333,189.2625,65.0,84.0
572,188.53333333333333,189.32083333333333,62.0,82.0
573,188.53333333333333,189.3625,58.0,80.0
574,189.53333333333333,190.10416666666666,62.0,84.0
575,189.53333333333333,190.11458333333334,65.0,83.0
576,189.53333333333333,190.18333333333334,58.0,80.0
577,188.53333333333333,190.24791666666667,43.0,78.0
578,190.53333333333333,191.17916666666667,62.0,82.0
579,190.53333333333333,191.25625,58.0,79.0
580,190.53333333333333,191.26458333333332,55.0,76.0
581,191.53333333333333,192.15208333333334,62.0,84.0
582,191.53333333333333,192.20416666666665,55.0,81.0
583,191.53333333333333,192.2875,58.0,77.0
584,190.53333333333333,192.29583333333332,43.0,78.0
585,192.53333333333333,193.21666666666667,63.0,84.0
586,192.53333333333333,193.28958333333333,55.0,80.0
587,192.53333333333333,193.28958333333333,60.0,82.0
588,193.53333333333333,194.15416666666667,55.0,86.0
589,193.53333333333333,194.19375,63.0,88.0
590,193.53333333333333,194.46666666666667,60.0,88.0
591,192.53333333333333,194.55,48.0,84.0
592,194.53333333333333,195.00208333333333,62.0,69.0
593,194.53333333333333,195.02083333333334,55.0,77.0
594,194.53333333333333,195.20208333333332,58.0,78.0
595,195.03333333333333,195.61875,50.0,64.0
596,195.53333333333333,196.125,62.0,86.0
597,194.53333333333333,196.15,43.0,78.0
598,195.53333333333333,196.36875,55.0,84.0
599,196.53333333333333,197.18125,63.0,87.0
600,196.53333333333333,197.27916666666667,55.0,83.0
601,195.53333333333333,197.4375,58.0,84.0
602,196.53333333333333,198.225,39.0,83.0
603,197.53333333333333,198.27291666666667,63.0,83.0
604,197.53333333333333,198.3625,55.0,84.0
605,197.53333333333333,198.44583333333333,58.0,83.0
606,198.53333333333333,199.30208333333334,60.0,87.0
607,198.53333333333333,199.44375,57.0,89.0
608,198.53333333333333,200.0375,41.0,84.0
609,199.03333333333333,200.0625,48.0,68.0
610,199.53333333333333,200.20625,55.0,87.0
611,199.53333333333333,200.46875,60.0,87.0
612,200.03333333333333,200.56666666666666,57.0,87.0
613,199.53333333333333,200.59166666666667,53.0,87.0
614,200.53333333333333,200.95833333333334,58.0,85.0
615,200.53333333333333,200.99375,62.0,84.0
616,201.28333333333333,202.02708333333334,58.0,84.0
617,201.53333333333333,202.08125,60.0,88.0
618,201.03333333333333,202.0875,53.0,70.0
619,200.53333333333333,202.11041666666665,46.0,81.0
620,202.03333333333333,202.58125,62.0,81.0
621,202.53333333333333,203.31666666666666,67.0,82.0
622,202.53333333333333,203.36458333333334,60.0,82.0
623,202.53333333333333,203.36666666666667,63.0,84.0
624,202.53333333333333,204.21875,46.0,76.0
625,203.53333333333333,204.28541666666666,60.0,81.0
626,203.53333333333333,204.33125,67.0,83.0
627,203.53333333333333,204.45,63.0,83.0
628,204.53333333333333,205.17916666666667,65.0,77.0
629,204.53333333333333,205.19375,62.0,84.0
630,204.53333333333333,205.20416666666665,58.0,78.0
631,205.53333333333333,206.00416666666666,62.0,84.0
632,205.53333333333333,206.15,58.0,81.0
633,205.53333333333333,206.22083333333333,65.0,82.0
634,204.53333333333333,206.35208333333333,46.0,80.0
635,206.53333333333333,207.27083333333334,55.0,73.0
636,206.53333333333333,207.28958333333333,58.0,77.0
637,206.53333333333333,207.28958333333333,62.0,80.0
638,207.03333333333333,207.85208333333333,50.0,72.0
639,207.53333333333333,208.09375,62.0,91.0
640,206.53333333333333,208.13125,43.0,77.0
641,207.53333333333333,208.24375,55.0,91.0
642,208.03333333333333,208.43125,58.0,75.0
643,208.53333333333333,209.30208333333334,63.0,86.0
644,208.53333333333333,209.30833333333334,55.0,86.0
645,208.53333333333333,209.32291666666666,60.0,87.0
646,209.53333333333333,210.23541666666665,63.0,87.0
647,209.53333333333333,210.2875,55.0,85.0
648,209.53333333333333,210.34791666666666,60.0,87.0
649,208.53333333333333,210.50833333333333,48.0,84.0
650,210.53333333333333,211.27291666666667,62.0,84.0
651,210.53333333333333,211.28333333333333,58.0,88.0
652,210.53333333333333,211.31041666666667,55.0,85.0
653,211.53333333333333,212.26041666666666,62.0,89.0
654,211.53333333333333,212.27708333333334,55.0,86.0
655,211.53333333333333,212.33958333333334,58.0,91.0
656,210.53333333333333,212.40833333333333,43.0,83.0
657,212.53333333333333,213.27291666666667,55.0,83.0
658,212.53333333333333,213.28958333333333,63.0,88.0
659,212.53333333333333,213.50833333333333,48.0,86.0
660,213.53333333333333,214.13958333333332,41.0,78.0
661,213.53333333333333,214.3125,65.0,86.0
662,213.53333333333333,214.41041666666666,57.0,84.0
663,212.53333333333333,214.42916666666667,60.0,87.0
664,213.53333333333333,214.52083333333334,53.0,79.0
665,214.53333333333333,215.00208333333333,58.0,88.0
666,214.53333333333333,215.10833333333332,62.0,82.0
667,214.53333333333333,216.11041666666665,46.0,83.0
668,216.03333333333333,216.33124999999998,58.0,77.0
669,215.53333333333333,216.38541666666666,65.0,94.0
670,215.53333333333333,216.47291666666666,60.0,98.0
671,215.03333333333333,216.50416666666666,53.0,72.0
672,216.53333333333333,217.02916666666667,58.0,75.0
673,216.53333333333333,217.05833333333334,65.0,82.0
674,216.53333333333333,217.06458333333333,62.0,81.0
675,216.53333333333333,217.97291666666666,46.0,88.0
676,217.03333333333333,217.97708333333333,53.0,64.0
677,217.53333333333333,218.20624999999998,62.0,94.0
678,217.53333333333333,218.23125,58.0,89.0
679,217.53333333333333,218.23333333333332,65.0,93.0
680,218.53333333333333,219.225,67.0,88.0
681,218.53333333333333,219.26874999999998,58.0,84.0
682,218.53333333333333,219.31041666666667,62.0,87.0
683,219.53333333333333,220.12291666666667,58.0,89.0
684,219.53333333333333,220.12916666666666,62.0,90.0
685,219.53333333333333,220.13125,67.0,89.0
686,218.53333333333333,220.24583333333334,43.0,73.0
687,220.53333333333333,221.31875,62.0,92.0
688,220.53333333333333,221.32083333333333,57.0,90.0
689,220.53333333333333,221.32708333333332,65.0,89.0
690,220.53333333333333,222.04375,50.0,87.0
691,221.53333333333333,222.14166666666665,62.0,91.0
692,221.53333333333333,222.17083333333332,65.0,88.0
693,221.53333333333333,222.17708333333334,57.0,88.0
694,223.03333333333333,223.64583333333334,53.0,84.0
695,222.53333333333333,224.14583333333334,41.0,83.0
696,223.53333333333333,224.17708333333334,65.0,93.0
697,224.03333333333333,224.20833333333334,53.0,81.0
698,223.53333333333333,224.23958333333334,57.0,90.0
699,223.53333333333333,224.33333333333334,60.0,102.0
700,224.53333333333333,225.13541666666666,63.0,91.0
701,224.53333333333333,225.16041666666666,58.0,88.0
702,224.53333333333333,225.1875,55.0,87.0
703,225.03333333333333,225.63958333333332,51.0,77.0
704,224.53333333333333,226.0625,39.0,89.0
705,225.53333333333333,226.11041666666665,63.0,93.0
706,225.53333333333333,226.12916666666666,55.0,93.0
707,225.53333333333333,226.37708333333333,58.0,100.0
708,226.03333333333333,226.5,51.0,82.0
709,226.53333333333333,227.11458333333334,57.0,89.0
710,226.53333333333333,227.11666666666667,60.0,98.0
711,226.53333333333333,227.12083333333334,65.0,96.0
712,227.03333333333333,227.64791666666667,48.0,77.0
713,226.53333333333333,228.14374999999998,41.0,86.0
714,228.03333333333333,228.26874999999998,48.0,76.0
715,227.53333333333333,228.29999999999998,57.0,93.0
716,227.53333333333333,228.33124999999998,65.0,94.0
717,227.53333333333333,228.37708333333333,60.0,100.0
718,228.53333333333333,229.09583333333333,65.0,87.0
719,228.53333333333333,229.10833333333332,58.0,86.0
720,228.53333333333333,229.11458333333334,62.0,90.0
721,229.03333333333333,229.56875,53.0,64.0
722,229.53333333333333,229.91041666666666,58.0,85.0
723,229.53333333333333,229.95208333333332,65.0,87.0
724,229.53333333333333,229.97708333333333,62.0,87.0
725,228.53333333333333,230.08124999999998,46.0,85.0
726,230.03333333333333,230.375,53.0,74.0
727,230.53333333333333,230.95,70.0,86.0
728,230.53333333333333,230.96041666666667,65.0,90.0
729,230.53333333333333,230.98333333333332,62.0,87.0
730,231.28333333333333,231.48749999999998,65.0,102.0
731,231.28333333333333,231.56458333333333,60.0,104.0
732,231.03333333333333,231.58124999999998,58.0,102.0
733,231.53333333333333,231.83124999999998,62.0,107.0
734,231.53333333333333,231.85,65.0,90.0
735,231.78333333333333,232.28125,58.0,114.0
736,232.03333333333333,232.4,62.0,108.0
737,232.28333333333333,232.48125,65.0,100.0
738,230.53333333333333,232.68541666666667,46.0,87.0
739,232.53333333333333,232.68541666666667,46.0,87.0
740,230.78333333333333,232.71875,53.0,78.0
741,232.53333333333333,233.17708333333334,65.0,88.0
742,232.53333333333333,233.20416666666665,58.0,86.0
743,232.53333333333333,233.25,62.0,96.0
744,233.28333333333333,234.00208333333333,53.0,83.0
745,233.53333333333333,234.10625,58.0,108.0
746,233.53333333333333,234.30416666666667,65.0,108.0
747,234.03333333333333,234.47291666666666,62.0,86.0
748,234.53333333333333,235.23125,65.0,88.0
749,234.53333333333333,235.29999999999998,57.0,86.0
750,234.53333333333333,235.29999999999998,60.0,91.0
751,235.28333333333333,235.92916666666667,53.0,83.0
752,235.53333333333333,236.06666666666666,65.0,91.0
753,235.53333333333333,236.06875,57.0,107.0
754,234.53333333333333,236.07708333333332,41.0,87.0
755,236.03333333333333,236.5,60.0,87.0
756,236.53333333333333,237.21666666666667,63.0,92.0
757,236.53333333333333,237.22083333333333,55.0,90.0
758,236.53333333333333,237.45624999999998,58.0,98.0
759,236.53333333333333,237.48541666666665,39.0,91.0
760,237.53333333333333,238.09166666666667,41.0,87.0
761,237.53333333333333,238.39374999999998,60.0,93.0
762,237.53333333333333,238.39791666666667,57.0,88.0
763,237.53333333333333,238.43125,65.0,91.0
764,238.53333333333333,238.92291666666665,58.0,89.0
765,238.53333333333333,239.0375,62.0,90.0
766,238.53333333333333,239.27083333333334,65.0,86.0
767,239.28333333333333,240.02916666666667,58.0,87.0
768,239.03333333333333,240.05833333333334,53.0,75.0
769,238.53333333333333,240.08124999999998,46.0,86.0
770,239.53333333333333,240.08124999999998,60.0,90.0
771,240.03333333333333,240.29999999999998,62.0,88.0
772,240.53333333333333,241.01458333333332,58.0,76.0
773,240.53333333333333,241.30625,63.0,88.0
774,240.53333333333333,241.41041666666666,55.0,87.0
775,240.53333333333333,241.41458333333333,60.0,87.0
776,240.53333333333333,242.12916666666666,48.0,86.0
777,241.53333333333333,242.16458333333333,63.0,88.0
778,241.53333333333333,242.33958333333334,55.0,88.0
779,241.53333333333333,242.39374999999998,60.0,92.0
780,242.53333333333333,242.97708333333333,57.0,84.0
781,242.53333333333333,243.18541666666667,65.0,86.0
782,242.53333333333333,243.21041666666667,62.0,83.0
783,242.53333333333333,243.82916666666665,50.0,84.0
784,243.53333333333333,244.08333333333334,65.0,91.0
785,243.53333333333333,244.12708333333333,57.0,93.0
786,243.53333333333333,244.13333333333333,62.0,102.0
787,244.03333333333333,244.14374999999998,50.0,86.0
788,244.53333333333333,245.18958333333333,63.0,90.0
789,244.53333333333333,245.19791666666666,39.0,87.0
790,244.53333333333333,245.21458333333334,55.0,88.0
791,244.53333333333333,245.27291666666667,58.0,92.0
792,245.53333333333333,246.12708333333333,40.0,86.0
793,245.53333333333333,246.225,64.0,91.0
794,245.53333333333333,246.24166666666667,55.0,85.0
795,245.53333333333333,246.44791666666666,60.0,93.0
796,246.53333333333333,247.12708333333333,65.0,86.0
797,246.53333333333333,247.14791666666667,60.0,82.0
798,246.53333333333333,247.17291666666665,57.0,84.0
799,247.28333333333333,247.53125,58.0,87.0
800,247.03333333333333,247.57083333333333,53.0,94.0
801,247.53333333333333,247.91041666666666,57.0,102.0
802,247.53333333333333,247.9375,65.0,98.0
803,246.53333333333333,248.11458333333334,41.0,84.0
804,246.78333333333333,248.12291666666667,48.0,84.0
805,247.78333333333333,248.24791666666667,53.0,100.0
806,248.03333333333333,248.32083333333333,58.0,91.0
807,248.28333333333333,248.48749999999998,65.0,89.0
808,248.53333333333333,249.12708333333333,65.0,89.0
809,248.53333333333333,249.22291666666666,58.0,88.0
810,248.53333333333333,249.225,62.0,94.0
811,249.28333333333333,249.63333333333333,53.0,77.0
812,248.53333333333333,250.08333333333334,46.0,88.0
813,250.03333333333333,250.12708333333333,53.0,87.0
814,249.53333333333333,250.28333333333333,58.0,98.0
815,249.53333333333333,250.28333333333333,65.0,96.0
816,249.53333333333333,250.32916666666665,62.0,108.0
817,250.53333333333333,251.2875,65.0,88.0
818,250.53333333333333,251.29791666666665,57.0,96.0
819,250.53333333333333,251.3125,62.0,92.0
820,251.28333333333333,251.61666666666667,50.0,87.0
821,250.53333333333333,252.03541666666666,38.0,92.0
822,251.53333333333333,252.13541666666666,57.0,110.0
823,251.53333333333333,252.22291666666666,65.0,96.0
824,252.03333333333333,252.4375,50.0,87.0
825,252.53333333333333,253.27291666666667,63.0,92.0
826,252.53333333333333,253.27916666666667,55.0,91.0
827,252.53333333333333,253.42916666666667,39.0,88.0
828,252.53333333333333,253.45416666666665,58.0,102.0
829,253.53333333333333,254.19166666666666,41.0,87.0
830,253.53333333333333,254.40833333333333,60.0,91.0
831,253.53333333333333,254.42291666666665,65.0,89.0
832,253.53333333333333,254.44583333333333,57.0,87.0
833,254.53333333333333,254.95416666666665,58.0,88.0
834,254.53333333333333,255.02083333333334,62.0,88.0
835,254.53333333333333,255.32291666666666,65.0,79.0
836,255.28333333333333,255.975,58.0,88.0
837,255.03333333333333,256.00625,53.0,79.0
838,254.53333333333333,256.0625,46.0,86.0
839,255.53333333333333,256.0645833333333,60.0,94.0
840,256.0333333333333,256.14375,62.0,90.0
841,256.5333333333333,257.325,63.0,88.0
842,256.5333333333333,257.4083333333333,60.0,94.0
843,256.5333333333333,257.41041666666666,55.0,86.0
844,256.5333333333333,257.7375,48.0,88.0
845,257.5333333333333,258.2291666666667,63.0,91.0
846,257.5333333333333,258.24791666666664,55.0,90.0
847,257.5333333333333,258.34375,60.0,92.0
848,258.0333333333333,258.49375,48.0,87.0
849,258.5333333333333,259.38958333333335,57.0,89.0
850,258.5333333333333,259.40208333333334,62.0,92.0
851,258.5333333333333,259.40416666666664,65.0,91.0
852,258.5333333333333,259.73541666666665,50.0,87.0
853,259.5333333333333,260.1333333333333,57.0,93.0
854,260.0333333333333,260.15416666666664,50.0,89.0
855,259.5333333333333,260.28541666666666,65.0,89.0
856,259.5333333333333,260.4458333333333,62.0,96.0
857,260.5333333333333,261.3145833333333,58.0,91.0
858,260.5333333333333,261.31666666666666,55.0,88.0
859,260.5333333333333,261.3229166666667,63.0,90.0
860,260.5333333333333,261.3458333333333,39.0,91.0
861,261.5333333333333,262.15416666666664,40.0,85.0
862,261.5333333333333,262.20625,64.0,89.0
863,261.5333333333333,262.2604166666667,55.0,87.0
864,261.5333333333333,262.44166666666666,60.0,90.0
865,262.5333333333333,263.54375,57.0,86.0
866,262.5333333333333,263.625,65.0,87.0
867,262.5333333333333,263.7583333333333,60.0,86.0
868,263.5333333333333,264.26875,53.0,84.0
869,263.0333333333333,264.32916666666665,48.0,73.0
870,262.5333333333333,264.38125,41.0,87.0
871,264.0333333333333,264.4125,58.0,82.0
872,265.0333333333333,266.08125,53.0,82.0
873,264.5333333333333,266.11875,46.0,98.0
874,265.5333333333333,266.55625,65.0,82.0
875,265.5333333333333,266.5833333333333,58.0,90.0
876,266.0333333333333,266.60833333333335,62.0,81.0
877,267.0333333333333,268.0416666666667,55.0,86.0
878,266.5333333333333,268.06875,46.0,89.0
879,267.5333333333333,268.28125,60.0,86.0
880,267.5333333333333,268.34166666666664,67.0,88.0
881,268.5333333333333,270.0125,43.0,88.0
882,269.0333333333333,270.0333333333333,50.0,77.0
883,270.0333333333333,270.61041666666665,62.0,82.0
884,270.5333333333333,270.61041666666665,62.0,63.0
885,269.5333333333333,270.6479166666667,58.0,86.0
886,269.5333333333333,270.6791666666667,67.0,86.0
887,270.5333333333333,271.25,55.0,71.0
888,270.5333333333333,272.0083333333333,43.0,74.0
889,271.5333333333333,272.28541666666666,55.0,69.0
890,271.5333333333333,272.29583333333335,62.0,80.0
891,273.0333333333333,273.9770833333333,55.0,73.0
892,272.5333333333333,274.03541666666666,48.0,88.0
893,273.5333333333333,274.5083333333333,67.0,84.0
894,273.5333333333333,274.52708333333334,60.0,86.0
895,274.0333333333333,274.5395833333333,63.0,80.0
896,275.0333333333333,275.9604166666667,50.0,74.0
897,274.5333333333333,276.06041666666664,43.0,85.0
898,275.5333333333333,276.0958333333333,65.0,84.0
899,276.0333333333333,276.51875,62.0,82.0
900,275.5333333333333,276.5833333333333,58.0,80.0
901,276.5333333333333,278.0520833333333,39.0,87.0
902,277.0333333333333,278.075,51.0,80.0
903,277.5333333333333,278.6333333333333,63.0,80.0
904,277.5333333333333,278.6645833333333,55.0,77.0
905,278.0333333333333,278.7291666666667,58.0,72.0
906,278.5333333333333,280.07916666666665,41.0,86.0
907,279.0333333333333,280.0875,48.0,78.0
908,279.5333333333333,280.4895833333333,53.0,87.0
909,280.0333333333333,280.5416666666667,58.0,86.0
910,281.0333333333333,282.1791666666667,53.0,82.0
911,280.5333333333333,282.29791666666665,46.0,98.0
912,281.5333333333333,282.60833333333335,58.0,84.0
913,282.0333333333333,282.60833333333335,65.0,88.0
914,282.5333333333333,284.1479166666667,41.0,94.0
915,283.0333333333333,284.5520833333333,57.0,80.0
916,284.0333333333333,284.57708333333335,60.0,86.0
917,283.5333333333333,284.59791666666666,65.0,82.0
918,285.0333333333333,287.0520833333333,51.0,84.0
919,285.5333333333333,287.28125,55.0,82.0
920,286.0333333333333,287.3354166666667,63.0,90.0
921,286.5333333333333,287.37083333333334,58.0,78.0
922,284.5333333333333,287.4083333333333,39.0,100.0
923,287.5333333333333,288.13958333333335,41.0,87.0
924,287.5333333333333,288.52708333333334,53.0,81.0
925,287.5333333333333,288.55833333333334,60.0,85.0
926,287.5333333333333,288.56875,57.0,84.0
927,288.5333333333333,290.20625,46.0,91.0
928,289.0333333333333,290.2520833333333,53.0,84.0
929,289.5333333333333,290.45625,58.0,78.0
930,290.0333333333333,290.5395833333333,62.0,86.0
931,291.0333333333333,292.10625,53.0,85.0
932,290.5333333333333,292.11041666666665,46.0,86.0
933,292.0333333333333,292.4291666666667,62.0,82.0
934,291.5333333333333,292.46875,58.0,83.0
935,293.5333333333333,294.125,65.0,89.0
936,294.0333333333333,294.59375,53.0,74.0
937,294.5333333333333,295.07708333333335,60.0,86.0
938,293.0333333333333,296.04375,48.0,75.0
939,292.5333333333333,296.10833333333335,41.0,87.0
940,295.0333333333333,296.1458333333333,53.0,72.0
941,295.5333333333333,296.28541666666666,57.0,85.0
942,296.0333333333333,296.3125,60.0,87.0
943,296.5333333333333,297.2729166666667,58.0,84.0
944,296.5333333333333,297.4791666666667,62.0,83.0
945,296.5333333333333,297.5520833333333,65.0,83.0
946,298.0333333333333,299.2395833333333,60.0,78.0
947,298.7833333333333,299.28125,65.0,71.0
948,299.2833333333333,299.9270833333333,62.0,77.0
949,297.0333333333333,301.01458333333335,53.0,69.0
950,297.5333333333333,301.02708333333334,58.0,83.0
951,296.5333333333333,301.03125,46.0,81.0
952,299.7833333333333,301.19166666666666,70.0,73.0
