,start,end,pitch,velocity
0,17.4841461875,17.5933010625,76.0,90.0
1,17.6954136875,17.8045685625,76.0,96.0
2,17.9066811875,18.0422445,76.0,97.0
3,18.1179486875,18.2411880625,75.0,97.0
4,18.3292161875,18.4383710625,73.0,96.0
5,18.5404836875,19.045765125,71.0,96.0
6,19.174286187499998,20.38731375,73.0,97.0
7,21.0756936875,21.2200598125,73.0,92.0
8,21.2869611875,21.4278061875,76.0,95.0
9,21.4982286875,21.8468200625,78.0,92.0
10,21.9207636875,23.492946,80.0,93.0
11,24.4559736875,24.5756919375,73.0,97.0
12,24.6672411875,24.913719937499998,76.0,95.0
13,24.8785086875,25.172522625,78.0,95.0
14,25.301043687499998,26.1144235625,80.0,96.0
15,26.3573811875,26.5404796875,80.0,94.0
16,26.568648687499998,26.676043,78.0,86.0
17,26.7799161875,26.883789375,78.0,91.0
18,26.9911836875,27.8045635625,78.0,96.0
19,31.0052661875,31.11970275,76.0,91.0
20,31.2165336875,31.3503364375,76.0,92.0
21,31.4278011875,31.8080826875,76.0,94.0
22,31.850336187499998,32.0017445625,73.0,97.0
23,32.061603687499996,32.507025999999996,71.0,91.0
24,32.6954061875,34.158433625,73.0,104.0
25,34.8080811875,35.183081,76.0,88.0
26,35.2306161875,35.529911812499996,78.0,92.0
27,35.4418836875,36.8890660625,80.0,95.0
28,37.1320236875,37.97885425,78.0,96.0
29,38.8221636875,38.9718115,73.0,95.0
30,39.0334311875,39.3098395,80.0,95.0
31,39.455966187499996,39.700684375,80.0,94.0
32,39.8785011875,40.209486937499996,80.0,97.0
33,40.3010361875,40.6003318125,81.0,97.0
34,40.7235711875,40.869697875,80.0,97.0
35,40.9348386875,42.102091625,78.0,95.0
36,43.2587811875,43.5475134375,85.0,94.0
37,43.6813161875,43.9630061875,85.0,94.0
38,44.1038511875,44.440118625,83.0,96.0
39,44.5263861875,44.772864937499996,80.0,96.0
40,44.9489211875,45.251737937499996,76.0,95.0
41,45.3714561875,45.6496250625,73.0,101.0
42,45.7939911875,46.005258687499996,80.0,96.0
43,46.005258687499996,48.3292011875,78.0,91.0
44,50.0193411875,50.2957495,85.0,95.0
45,50.4418761875,50.7235661875,85.0,94.0
46,50.8644111875,51.172509624999996,83.0,101.0
47,51.2869461875,51.538706624999996,80.0,97.0
48,51.709481187499996,51.99293175,76.0,96.0
49,52.1320161875,52.4207484375,73.0,104.0
50,52.554551187499996,52.7059595625,80.0,96.0
51,52.7658186875,54.72532475,78.0,92.0
52,55.0897611875,55.5228595625,71.0,101.0
53,55.5122961875,55.818634062499996,73.0,97.0
54,55.9348311875,56.059831125,76.0,97.0
55,56.1460986875,56.271098625,76.0,94.0
56,56.3573661875,57.4524360625,76.0,93.0
57,57.6249711875,57.7306049375,76.0,94.0
58,57.8362386875,57.940111875,76.0,92.0
59,58.0475061875,58.355604625,76.0,92.0
60,58.4700411875,58.82391425,80.0,97.0
61,58.8925761875,59.0651113125,83.0,97.0
62,59.103843687499996,60.538702125,85.0,95.0
63,60.5827161875,60.7411668125,83.0,90.0
64,60.7939836875,61.521096,80.0,94.0
65,61.8503211875,62.1108844375,80.0,92.0
66,62.2728561875,62.580954625,80.0,94.0
67,62.6953911875,63.1126445,78.0,89.0
68,63.1179261875,63.3291936875,76.0,92.0
69,63.3291936875,63.954193374999996,76.0,91.0
70,64.38553118749999,64.6989113125,80.0,94.0
71,64.8080661875,65.1460941875,80.0,94.0
72,65.2306011875,65.5545446875,80.0,96.0
73,65.6531361875,65.9858825,81.0,91.0
74,66.07567118749999,66.2869386875,80.0,97.0
75,66.2869386875,67.6056,78.0,88.0
76,68.6108811875,68.9594725625,71.0,90.0
77,69.0334161875,69.3362329375,73.0,106.0
78,69.4559511875,69.5827116875,76.0,94.0
79,69.6672186875,69.7886975,76.0,91.0
80,69.8784861875,70.883767375,76.0,94.0
81,71.1460911875,71.24644325,80.0,94.0
82,71.3573586875,71.4665135625,80.0,91.0
83,71.5686261875,71.8432739375,80.0,92.0
84,71.9911611875,72.30278075,78.0,97.0
85,72.4136961875,72.7024284375,80.0,94.0
86,72.8362311875,73.038695875,80.0,93.0
87,73.0474986875,73.2305971875,78.0,92.0
88,73.2587661875,75.01932868749999,76.0,94.0
89,75.3714411875,75.6320044375,80.0,90.0
90,75.7939761875,76.1143985625,80.0,93.0
91,76.2165111875,76.44714487499999,78.0,99.0
92,76.4277786875,76.62672225,76.0,91.0
93,76.8503136875,77.475313375,76.0,92.0
94,77.6953836875,77.82566531249999,78.0,74.0
95,77.9066511875,78.4066509375,80.0,94.0
96,78.5404536875,79.1284815625,80.0,92.0
97,79.17425618749999,79.3362279375,76.0,92.0
98,79.3855236875,82.1320011875,78.0,96.0
99,85.0897461875,85.1989010625,76.0,90.0
100,85.3010136875,85.4101685625,76.0,96.0
101,85.5122811875,85.6478445,76.0,97.0
102,85.7235486875,85.8467880625,75.0,97.0
103,85.9348161875,86.04397106249999,73.0,96.0
104,86.1460836875,86.651365125,71.0,96.0
105,86.7798861875,87.99291375,73.0,97.0
106,88.6812936875,88.82565981249999,73.0,92.0
107,88.8925611875,89.03340618749999,76.0,95.0
108,89.1038286875,89.4524200625,78.0,92.0
109,89.5263636875,91.098546,80.0,93.0
110,92.0615736875,92.18129193749999,73.0,97.0
111,92.27284118749999,92.5193199375,76.0,95.0
112,92.4841086875,92.778122625,78.0,95.0
113,92.9066436875,93.5404461875,80.0,96.0
114,93.5404461875,93.774601,78.0,87.0
115,93.96298118749999,94.23234725,78.0,91.0
116,94.3855161875,94.531642875,76.0,90.0
117,94.5967836875,94.947135625,75.0,94.0
118,95.0193186875,95.1284735625,73.0,85.0
119,95.2305861875,96.14079699999999,71.0,90.0
120,98.6108661875,98.72530275,76.0,91.0
121,98.8221336875,98.9559364375,76.0,92.0
122,99.0334011875,99.4136826875,76.0,94.0
123,99.4559361875,99.6073445625,73.0,97.0
124,99.66720368749999,100.11262599999999,71.0,91.0
125,100.3010061875,101.764033625,73.0,104.0
126,102.4136811875,102.788681,76.0,88.0
127,102.8362161875,103.1355118125,78.0,92.0
128,103.0474836875,104.4946660625,80.0,95.0
129,104.7376236875,105.58445425,78.0,96.0
130,106.4277636875,106.5774115,73.0,95.0
131,106.6390311875,106.9154395,80.0,95.0
132,107.06156618749999,107.306284375,80.0,94.0
133,107.4841011875,107.8150869375,80.0,97.0
134,107.9066361875,108.2059318125,81.0,97.0
135,108.3291711875,108.475297875,80.0,97.0
136,108.5404386875,109.707691625,78.0,95.0
137,110.8643811875,111.1531134375,85.0,94.0
138,111.2869161875,111.5686061875,85.0,94.0
139,111.7094511875,112.04571862499999,83.0,96.0
140,112.1319861875,112.3784649375,80.0,96.0
141,112.5545211875,112.85733793749999,76.0,95.0
142,112.9770561875,113.2552250625,73.0,101.0
143,113.3995911875,113.6108586875,80.0,96.0
144,113.6108586875,115.9348011875,78.0,91.0
145,117.6249411875,117.9013495,85.0,95.0
146,118.0474761875,118.3291661875,85.0,94.0
147,118.47001118749999,118.778109625,83.0,101.0
148,118.8925461875,119.144306625,80.0,97.0
149,119.3150811875,119.59853174999999,76.0,96.0
150,119.7376161875,120.0263484375,73.0,104.0
151,120.16015118749999,120.3115595625,80.0,96.0
152,120.3714186875,122.33092475,78.0,92.0
153,122.6953611875,123.1284595625,71.0,101.0
154,123.1178961875,123.42423406249999,73.0,97.0
155,123.5404311875,123.665431125,76.0,97.0
156,123.7516986875,123.876698625,76.0,94.0
157,123.9629661875,125.0580360625,76.0,93.0
158,125.2305711875,125.3362049375,76.0,94.0
159,125.4418386875,125.545711875,76.0,92.0
160,125.6531061875,125.961204625,76.0,92.0
161,126.0756411875,126.42951425,80.0,97.0
162,126.4981761875,126.6707113125,83.0,97.0
163,126.7094436875,128.144302125,85.0,95.0
164,128.1883161875,128.3467668125,83.0,90.0
165,128.3995836875,129.126696,80.0,94.0
166,129.4559211875,129.7164844375,80.0,92.0
167,129.8784561875,130.18655462499999,80.0,94.0
168,130.3009911875,130.7182445,78.0,89.0
169,130.7235261875,130.9347936875,76.0,92.0
170,130.9347936875,131.559793375,76.0,91.0
171,131.9911311875,132.3045113125,80.0,94.0
172,132.41366618749998,132.7516941875,80.0,94.0
173,132.8362011875,133.1601446875,80.0,96.0
174,133.2587361875,133.5914825,81.0,91.0
175,133.6812711875,133.8925386875,80.0,97.0
176,133.8925386875,135.2112,78.0,88.0
177,136.2164811875,136.5650725625,71.0,90.0
178,136.6390161875,136.9418329375,73.0,106.0
179,137.0615511875,137.1883116875,76.0,94.0
180,137.2728186875,137.3942975,76.0,91.0
181,137.4840861875,138.489367375,76.0,94.0
182,138.7516911875,138.85204325,80.0,94.0
183,138.9629586875,139.0721135625,80.0,91.0
184,139.1742261875,139.4488739375,80.0,92.0
185,139.5967611875,139.90838075,78.0,97.0
186,140.0192961875,140.30802843749998,80.0,94.0
187,140.4418311875,140.644295875,80.0,93.0
188,140.6530986875,140.8361971875,78.0,92.0
189,140.8643661875,142.6249286875,76.0,94.0
190,142.9770411875,143.2376044375,80.0,90.0
191,143.3995761875,143.7199985625,80.0,93.0
192,143.82211118749998,144.052744875,78.0,99.0
193,144.0333786875,144.23232225,76.0,91.0
194,144.4559136875,145.080913375,76.0,92.0
195,145.3009836875,145.4312653125,78.0,74.0
196,145.5122511875,146.0122509375,80.0,94.0
197,146.1460536875,146.7340815625,80.0,92.0
198,146.7798561875,146.9418279375,76.0,92.0
199,146.9911236875,149.7376011875,78.0,96.0
200,164.5263261875,164.8291429375,76.0,101.0
201,164.9488611875,165.267523,76.0,94.0
202,165.3713961875,165.6742129375,76.0,94.0
203,165.7939311875,166.0826634375,76.0,96.0
204,166.2164661875,166.506959,71.0,96.0
205,166.63900118749999,166.9523813125,71.0,96.0
206,167.0615361875,167.2728036875,71.0,99.0
207,167.2728036875,167.785127375,73.0,97.0
208,167.9066061875,169.278084375,76.0,95.0
209,170.01928118749998,170.33090074999998,76.0,97.0
210,170.4418161875,170.5580133125,78.0,92.0
211,170.6530836875,172.0122379375,80.0,94.0
212,172.1319561875,172.34498425,78.0,92.0
213,172.5544911875,173.496392125,78.0,94.0
214,174.03336368749999,174.2058988125,73.0,94.0
215,174.2446311875,174.933011125,80.0,94.0
216,175.0897011875,175.45765875,80.0,92.0
217,175.5122361875,175.6495600625,81.0,92.0
218,175.7235036875,176.33089775,80.0,92.0
219,176.3573061875,177.566812625,78.0,95.0
220,178.0474461875,178.2516714375,76.0,92.0
221,178.4699811875,178.7094176875,76.0,91.0
222,178.8925161875,179.12138931249999,76.0,91.0
223,179.3150511875,179.587938375,76.0,95.0
224,179.7375861875,179.9347691875,71.0,91.0
225,180.1601211875,180.4382900625,71.0,92.0
226,180.5826561875,180.69709275,71.0,92.0
227,180.79392368749998,181.26047275,73.0,106.0
228,181.42772618749999,183.13019012499998,76.0,94.0
229,183.3291336875,183.4506125,73.0,107.0
230,183.5404011875,183.6918095625,76.0,94.0
231,183.7516686875,184.017513625,78.0,92.0
232,184.1742036875,185.4418086875,80.0,91.0
233,185.4418086875,185.749907125,81.0,94.0
234,185.8643436875,186.24814631249998,80.0,95.0
235,186.2868786875,187.3432161875,78.0,87.0
236,187.5544836875,187.686525875,73.0,97.0
237,187.7657511875,188.475257875,80.0,94.0
238,188.6108211875,188.9664548125,80.0,94.0
239,189.0333561875,189.2058913125,81.0,93.0
240,189.2446236875,189.8537783125,80.0,92.0
241,189.8784261875,191.1460311875,78.0,96.0
242,191.9911011875,192.3044813125,85.0,92.0
243,192.4136361875,192.7058895625,85.0,93.0
244,192.83617118749999,193.144269625,83.0,97.0
245,193.2587061875,193.3995511875,80.0,91.0
246,193.4699736875,194.0157480625,76.0,92.0
247,194.1037761875,194.4488464375,73.0,101.0
248,194.5263111875,194.93476168749999,80.0,91.0
249,194.9488461875,197.10553525,78.0,91.0
250,198.7516611875,199.059759625,85.0,92.0
251,199.1741961875,199.461167875,85.0,93.0
252,199.59673118749998,199.9981394375,83.0,94.0
253,200.0192661875,200.299195625,80.0,92.0
254,200.4418011875,200.8308855,76.0,94.0
255,200.8643361875,201.182998,73.0,101.0
256,201.2868711875,201.686518875,80.0,93.0
257,201.7094061875,203.8220811875,80.0,91.0
258,204.2446161875,204.6460244375,81.0,97.0
259,204.6671511875,205.0791228125,80.0,94.0
260,205.0896861875,207.066797875,78.0,92.0
261,207.2023611875,207.6354595625,71.0,101.0
262,207.62489618749998,207.9312340625,73.0,97.0
263,208.0474311875,208.172431125,76.0,97.0
264,208.2586986875,208.383698625,76.0,94.0
265,208.4699661875,209.56503606249998,76.0,93.0
266,209.7375711875,209.8432049375,76.0,94.0
267,209.9488386875,210.052711875,76.0,92.0
268,210.1601061875,210.468204625,76.0,92.0
269,210.5826411875,210.93651425,80.0,97.0
270,211.00517618749998,211.1777113125,83.0,97.0
271,211.2164436875,212.651302125,85.0,95.0
272,212.6953161875,212.8537668125,83.0,90.0
273,212.9065836875,213.633696,80.0,94.0
274,213.9629211875,214.2234844375,80.0,92.0
275,214.38545618749998,214.693554625,80.0,94.0
276,214.8079911875,215.2252445,78.0,89.0
277,215.2305261875,215.4417936875,76.0,92.0
278,215.4417936875,216.066793375,76.0,91.0
279,216.4981311875,216.8115113125,80.0,94.0
280,216.9206661875,217.2586941875,80.0,94.0
281,217.3432011875,217.66714468749998,80.0,96.0
282,217.7657361875,218.0984825,81.0,91.0
283,218.1882711875,218.39953868749998,80.0,97.0
284,218.39953868749998,219.7182,78.0,88.0
285,220.7234811875,221.07207256249998,71.0,90.0
286,221.1460161875,221.4488329375,73.0,106.0
287,221.5685511875,221.6953116875,76.0,94.0
288,221.77981868749998,221.9012975,76.0,91.0
289,221.9910861875,222.996367375,76.0,94.0
290,223.2586911875,223.35904324999998,80.0,94.0
291,223.4699586875,223.5791135625,80.0,91.0
292,223.6812261875,223.9558739375,80.0,92.0
293,224.1037611875,224.41538075,78.0,97.0
294,224.5262961875,224.8150284375,80.0,94.0
295,224.9488311875,225.151295875,80.0,93.0
296,225.1600986875,225.3431971875,78.0,92.0
297,225.3713661875,227.1319286875,76.0,94.0
298,227.4840411875,227.7446044375,80.0,90.0
299,227.9065761875,228.2269985625,80.0,93.0
300,228.3291111875,228.559744875,78.0,99.0
301,228.5403786875,228.73932225,76.0,91.0
302,228.9629136875,229.587913375,76.0,92.0
303,229.80798368749998,229.9382653125,78.0,74.0
304,230.0192511875,230.5192509375,80.0,94.0
305,230.6530536875,231.2410815625,80.0,92.0
306,231.2868561875,231.4488279375,76.0,92.0
307,231.4981236875,234.2446011875,78.0,96.0
308,234.2446011875,234.6776995625,71.0,101.0
309,234.6671361875,234.9734740625,73.0,97.0
310,235.0896711875,235.214671125,76.0,97.0
311,235.3009386875,235.425938625,76.0,94.0
312,235.5122061875,236.6072760625,76.0,93.0
313,236.7798111875,236.88544493749998,76.0,94.0
314,236.9910786875,237.094951875,76.0,92.0
315,237.20234618749998,237.510444625,76.0,92.0
316,237.6248811875,237.97875425,80.0,97.0
317,238.0474161875,238.2199513125,83.0,97.0
318,238.2586836875,239.693542125,85.0,95.0
319,239.7375561875,239.8960068125,83.0,90.0
320,239.9488236875,240.675936,80.0,94.0
321,241.0051611875,241.26572443749998,80.0,92.0
322,241.4276961875,241.73579462499998,80.0,94.0
323,241.8502311875,242.2674845,78.0,89.0
324,242.2727661875,242.4840336875,76.0,92.0
325,242.4840336875,243.109033375,76.0,91.0
326,243.5403711875,243.8537513125,80.0,94.0
327,243.9629061875,244.3009341875,80.0,94.0
328,244.3854411875,244.7093846875,80.0,96.0
329,244.8079761875,245.1407225,81.0,91.0
330,245.23051118749999,245.4417786875,80.0,97.0
331,245.4417786875,246.76044,78.0,88.0
332,247.7657211875,248.1143125625,71.0,90.0
333,248.1882561875,248.4910729375,73.0,106.0
334,248.61079118749998,248.7375516875,76.0,94.0
335,248.8220586875,248.9435375,76.0,91.0
336,249.0333261875,250.038607375,76.0,94.0
337,250.3009311875,250.40128325,80.0,94.0
338,250.5121986875,250.6213535625,80.0,91.0
339,250.7234661875,250.9981139375,80.0,92.0
340,251.1460011875,251.45762075,78.0,97.0
341,251.5685361875,251.85726843749998,80.0,94.0
342,251.99107118749998,252.193535875,80.0,93.0
343,252.2023386875,252.3854371875,78.0,92.0
344,252.4136061875,254.17416868749999,76.0,94.0
345,254.5262811875,254.7868444375,80.0,90.0
346,254.9488161875,255.2692385625,80.0,93.0
347,255.37135118749998,255.601984875,78.0,99.0
348,255.5826186875,255.78156225,76.0,91.0
349,256.0051536875,256.630153375,76.0,92.0
350,256.8502236875,256.9805053125,78.0,74.0
351,257.0614911875,257.56149093749997,80.0,94.0
352,257.6952936875,258.2833215625,80.0,92.0
353,258.3290961875,258.4910679375,76.0,92.0
354,258.5403636875,261.2868411875,78.0,96.0
