,start,end,pitch,velocity
0,1.8503511875,2.137322875,59.0,85.0
1,1.8503511875,2.348590375,64.0,84.0
2,1.8503511875,2.3785199375,68.0,87.0
3,2.2728861875,2.580984625,59.0,91.0
4,2.6954211875,2.7940126875,64.0,86.0
5,2.6954211875,2.83802675,68.0,90.0
6,3.5404911875,3.69718125,64.0,86.0
7,3.5404911875,3.73943475,68.0,86.0
8,3.9630261875,4.1989415625,59.0,83.0
9,1.8503511875,4.440138625,40.0,80.0
10,4.3855611875,4.8609130625,68.0,93.0
11,4.3855611875,4.876758125,64.0,92.0
12,5.2306311875,5.411969125,61.0,86.0
13,5.2306311875,5.90844775,64.0,89.0
14,5.6531661875,5.9454195625,61.0,77.0
15,6.0757011875,6.3116165625,61.0,90.0
16,6.0757011875,6.771123375,64.0,87.0
17,6.4982361875,6.788729,61.0,78.0
18,6.9207711875,7.0616161875,61.0,78.0
19,6.9207711875,7.5369680625,64.0,76.0
20,7.3433061875,7.5510525625,61.0,67.0
21,7.7658411874999995,7.947179125,61.0,90.0
22,5.2306311875,7.996474875,45.0,91.0
23,7.7658411874999995,8.0897846875,69.0,89.0
24,7.7658411874999995,8.172531124999999,64.0,91.0
25,8.1883761875,8.2764043125,61.0,79.0
26,8.6109111875,9.088023625,68.0,90.0
27,8.6109111875,9.144361625,64.0,86.0
28,9.0334461875,9.5123191875,59.0,77.0
29,9.455981187499999,9.6426008125,64.0,79.0
30,9.455981187499999,9.6602064375,68.0,83.0
31,9.8785161875,10.13379775,59.0,66.0
32,10.3010511875,10.4630229375,68.0,78.0
33,10.3010511875,10.841543875,64.0,83.0
34,10.7235861875,10.9418959375,59.0,71.0
35,11.1461211875,11.327459124999999,59.0,91.0
36,8.6109111875,11.3714731875,40.0,91.0
37,11.1461211875,11.5792195625,68.0,91.0
38,11.1461211875,11.6390786875,64.0,92.0
39,11.5686561875,11.7042195,59.0,84.0
40,11.9911911875,12.235909375,61.0,81.0
41,11.9911911875,12.5756979375,69.0,83.0
42,11.9911911875,12.602106375,64.0,87.0
43,12.4137261875,12.6531626875,61.0,70.0
44,12.8362611875,13.0475286875,64.0,83.0
45,12.8362611875,13.084500499999999,69.0,81.0
46,13.2587961875,13.5070355,61.0,78.0
47,13.6813311875,13.843302937499999,64.0,85.0
48,13.6813311875,13.911964875,69.0,82.0
49,14.1038661875,14.2394295,61.0,63.0
50,14.5264011875,14.6848518125,61.0,90.0
51,14.5264011875,14.6954151875,64.0,96.0
52,14.5264011875,14.7376686875,69.0,93.0
53,11.9911911875,14.7552743125,45.0,88.0
54,15.3714711875,15.595062625,59.0,84.0
55,15.3714711875,15.848583625,68.0,86.0
56,15.3714711875,15.86618925,64.0,82.0
57,15.794006187499999,16.0087948125,59.0,76.0
58,16.2165411875,16.3925974375,64.0,81.0
59,16.2165411875,16.394358,68.0,84.0
60,16.6390761875,16.8362591875,59.0,52.0
61,17.0616111875,17.2253435,64.0,90.0
62,17.0616111875,17.249991375,68.0,90.0
63,17.4841461875,17.679568624999998,59.0,79.0
64,15.3714711875,18.06337125,40.0,85.0
65,17.9066811875,18.0933008125,59.0,91.0
66,17.9066811875,18.204216249999998,64.0,91.0
67,17.9066811875,18.348582375,68.0,90.0
68,18.7517511875,18.9207651875,56.0,78.0
69,18.7517511875,19.2482298125,64.0,84.0
70,18.7517511875,19.264074875,61.0,82.0
71,19.174286187499998,19.72534225,56.0,70.0
72,19.596821187499998,19.83801825,61.0,90.0
73,19.596821187499998,19.9066801875,68.0,88.0
74,20.0193561875,20.2623138125,56.0,66.0
75,20.4418911875,20.616186875,56.0,82.0
76,20.4418911875,20.691891062499998,61.0,85.0
77,20.4418911875,20.75351075,68.0,86.0
78,18.7517511875,21.3679470625,49.0,89.0
79,21.2869611875,21.436609,56.0,89.0
80,21.2869611875,21.4383695625,61.0,88.0
81,21.2869611875,21.4982286875,68.0,90.0
82,22.1320311875,22.3327353125,57.0,78.0
83,22.1320311875,22.580974625,61.0,90.0
84,22.1320311875,22.6249886875,64.0,87.0
85,22.5545661875,22.78167875,57.0,74.0
86,22.9771011875,23.1320306875,57.0,81.0
87,22.9771011875,23.1320306875,61.0,88.0
88,22.9771011875,23.249988375,64.0,90.0
89,23.8221711875,23.947171125,61.0,85.0
90,23.8221711875,23.99294575,64.0,90.0
91,24.2447061875,24.41548075,57.0,66.0
92,22.1320311875,24.8292129375,45.0,87.0
93,24.6672411875,24.8468185625,61.0,93.0
94,24.6672411875,24.85210025,57.0,92.0
95,24.6672411875,24.9313255625,64.0,92.0
96,25.0897761875,25.214776125,45.0,101.0
97,25.5123111875,25.838015249999998,59.0,82.0
98,25.5123111875,25.919001125,63.0,88.0
99,25.9348461875,26.503507875,54.0,78.0
100,26.3573811875,26.624986687499998,59.0,84.0
101,26.3573811875,26.6355500625,63.0,91.0
102,26.3573811875,26.6901275,66.0,86.0
103,26.7799161875,27.109141375,54.0,79.0
104,26.9911836875,27.1179441875,59.0,77.0
105,25.5123111875,27.1425920625,47.0,93.0
106,27.2024511875,27.7270988125,63.0,90.0
107,27.2024511875,27.757028375,59.0,88.0
108,27.2024511875,28.1038591875,47.0,92.0
109,28.0475211875,28.21829575,59.0,91.0
110,28.0475211875,28.3045633125,63.0,94.0
111,28.0475211875,28.37322525,66.0,86.0
112,28.4700561875,28.7376616875,59.0,82.0
113,28.8925911875,29.11970375,59.0,91.0
114,28.8925911875,29.3256895625,64.0,89.0
115,29.3151261875,29.408436,59.0,71.0
116,29.7376611875,29.876745624999998,59.0,91.0
117,29.7376611875,29.88026675,64.0,91.0
118,29.7376611875,29.90843575,68.0,86.0
119,30.1601961875,30.2394215,59.0,59.0
120,30.5827311875,30.78167475,59.0,84.0
121,30.5827311875,30.806322625,64.0,84.0
122,30.5827311875,30.8327310625,68.0,84.0
123,31.2165336875,31.299280125,59.0,71.0
124,31.4278011875,31.661956,59.0,93.0
125,31.0052661875,31.6883644375,47.0,65.0
126,31.4278011875,31.700688375,64.0,95.0
127,31.4278011875,31.931322062499998,68.0,91.0
128,31.850336187499998,31.9806178125,59.0,88.0
129,28.8925911875,31.996462875,40.0,90.0
130,32.2728711875,32.545758375,56.0,81.0
131,32.2728711875,32.816885,61.0,90.0
132,32.6954061875,33.03519475,56.0,78.0
133,33.1179411875,33.202448187499996,61.0,92.0
134,33.1179411875,33.221814375,64.0,91.0
135,33.9630111875,34.035194249999996,56.0,68.0
136,32.2728711875,34.221813875,49.0,90.0
137,33.9630111875,34.3538560625,61.0,86.0
138,33.9630111875,34.3925884375,64.0,90.0
139,34.5968136875,34.6954051875,56.0,72.0
140,34.8080811875,35.0281515,56.0,91.0
141,34.8080811875,35.2376584375,49.0,92.0
142,34.8080811875,35.24646125,61.0,92.0
143,34.8080811875,35.2975175625,64.0,90.0
144,35.2306161875,35.3186443125,56.0,76.0
145,35.6531511875,35.8785031875,57.0,78.0
146,35.6531511875,36.1179396875,64.0,86.0
147,35.6531511875,36.1531509375,61.0,91.0
148,36.0756861875,36.2675875,57.0,71.0
149,36.4982211875,36.926037875,64.0,90.0
150,36.4982211875,36.9277984375,57.0,86.0
151,36.4982211875,36.9277984375,61.0,90.0
152,36.9207561875,37.4946995625,52.0,74.0
153,37.3432911875,37.68307975,61.0,86.0
154,37.3432911875,37.749981125,57.0,81.0
155,37.3432911875,37.813361375,64.0,88.0
156,37.9770936875,38.0721640625,57.0,60.0
157,38.1883611875,38.4137131875,61.0,95.0
158,38.1883611875,38.41547375,57.0,93.0
159,35.6531511875,38.4366005,45.0,86.0
160,38.1883611875,38.5369525625,64.0,92.0
161,38.1883611875,38.656670812499996,52.0,85.0
162,38.610896187499996,38.7464595,45.0,91.0
163,39.0334311875,39.455966187499996,63.0,91.0
164,39.0334311875,39.517585875,59.0,84.0
165,39.455966187499996,40.04927575,54.0,80.0
166,39.8785011875,40.0580785625,63.0,97.0
167,39.8785011875,40.09152925,66.0,91.0
168,39.8785011875,40.1003320625,59.0,90.0
169,39.0334311875,40.5827261875,47.0,93.0
170,40.3010361875,40.6108951875,54.0,79.0
171,40.7235711875,41.1425850625,63.0,86.0
172,40.7235711875,41.17603575,59.0,83.0
173,40.7235711875,41.19012025,66.0,84.0
174,41.3573736875,41.47181025,59.0,79.0
175,41.1461061875,41.62673975,54.0,62.0
176,41.5686411875,41.6478665,59.0,83.0
177,40.7235711875,41.7235706875,47.0,91.0
178,41.5686411875,41.8468100625,71.0,91.0
179,41.5686411875,41.8644156875,66.0,91.0
180,41.5686411875,41.86617625,63.0,97.0
181,41.9911761875,42.04927475,47.0,75.0
182,41.9911761875,42.0862465625,54.0,83.0
183,42.4137111875,42.92251375,64.0,90.0
184,42.4137111875,42.970048937499996,61.0,89.0
185,42.4137111875,43.0756826875,57.0,85.0
186,42.4137111875,43.376738875,45.0,92.0
187,43.2587811875,43.4348374375,61.0,91.0
188,43.2587811875,43.4630064375,57.0,88.0
189,42.8362461875,43.510541625,52.0,81.0
190,43.2587811875,43.54223175,64.0,91.0
191,43.6813161875,43.7552598125,45.0,94.0
192,44.1038511875,44.531667875,64.0,89.0
193,44.1038511875,44.5475129375,56.0,85.0
194,44.1038511875,44.5756819375,59.0,86.0
195,44.7376536875,44.841526875,56.0,80.0
196,44.5263861875,45.024625375,47.0,71.0
197,44.9489211875,45.193639375,59.0,92.0
198,44.9489211875,45.200681625,56.0,95.0
199,44.9489211875,45.228850625,64.0,91.0
200,44.1038511875,45.249977375,40.0,91.0
201,45.160188687499996,45.3186393125,47.0,80.0
202,45.3714561875,45.6073715625,40.0,90.0
203,45.7939911875,46.0158220625,54.0,90.0
204,45.7939911875,46.225329,59.0,90.0
205,45.7939911875,46.234131812499996,63.0,92.0
206,46.6390611875,46.8115963125,54.0,96.0
207,46.6390611875,47.316877749999996,63.0,95.0
208,45.7939911875,47.3538495625,47.0,94.0
209,47.2728636875,47.3925819375,54.0,82.0
210,47.4841311875,47.6953986875,54.0,86.0
211,47.4841311875,48.02110275,63.0,91.0
212,47.4841311875,48.0422295,59.0,90.0
213,47.9066661875,48.102088625,54.0,82.0
214,47.4841311875,48.418989875,47.0,91.0
215,48.3292011875,48.5651165625,54.0,92.0
216,48.3292011875,48.6461024375,59.0,96.0
217,48.5404686875,48.7024404375,47.0,91.0
218,48.3292011875,48.820398125,63.0,99.0
219,48.7517361875,48.897862875,54.0,95.0
220,49.1742711875,49.3644119375,52.0,86.0
221,49.1742711875,49.4770879375,57.0,81.0
222,49.1742711875,49.4946935625,61.0,90.0
223,49.5968061875,49.9453975625,52.0,90.0
224,49.1742711875,50.1830735,45.0,92.0
225,50.0193411875,50.207721375,52.0,92.0
226,50.0193411875,50.293988937499996,57.0,95.0
227,50.4418761875,50.5404676875,52.0,97.0
228,50.0193411875,50.552791625,64.0,90.0
229,50.8644111875,51.0897631875,56.0,83.0
230,50.8644111875,51.3380025,64.0,86.0
231,50.8644111875,51.35912925,59.0,86.0
232,51.2869461875,51.4489179375,56.0,80.0
233,50.8644111875,51.9101853125,40.0,91.0
234,51.709481187499996,52.024621875,56.0,91.0
235,51.709481187499996,52.0263824375,59.0,95.0
236,51.709481187499996,52.140819,64.0,91.0
237,52.1320161875,52.309833,40.0,91.0
238,52.554551187499996,52.7869454375,54.0,86.0
239,52.554551187499996,53.0087763125,63.0,92.0
240,52.554551187499996,53.03518475,59.0,85.0
241,52.554551187499996,53.62673375,47.0,99.0
242,53.399621187499996,53.686592875,54.0,91.0
243,53.399621187499996,54.0985645,63.0,96.0
244,53.399621187499996,54.116170125,59.0,93.0
245,54.0334236875,54.1848320625,54.0,79.0
246,54.2446911875,54.4806065625,54.0,91.0
247,54.2446911875,54.9770851875,63.0,92.0
248,54.2446911875,54.9911696875,59.0,92.0
249,54.8784936875,55.003493625,54.0,82.0
250,55.0897611875,55.137296375,63.0,89.0
251,54.2446911875,55.315113187499996,47.0,91.0
252,55.0897611875,55.362648375,59.0,99.0
253,55.0897611875,55.38729625,54.0,96.0
254,55.9348311875,56.1284930625,68.0,89.0
255,56.1460986875,56.3925774375,64.0,84.0
256,56.3573661875,56.5369435625,68.0,80.0
257,56.5686336875,56.76757725,64.0,82.0
258,56.7799011875,57.07743625,64.0,82.0
259,56.7799011875,57.1742671875,71.0,86.0
260,57.2024361875,57.4524360625,68.0,87.0
261,55.9348311875,57.489407875,52.0,90.0
262,56.1460986875,57.505252937499996,59.0,82.0
263,57.413703687499996,57.658421875,64.0,88.0
264,57.6249711875,57.982365375,76.0,90.0
265,57.8362386875,58.0651118125,64.0,93.0
266,58.0475061875,58.26053425,68.0,82.0
267,58.258773687499996,58.40137925,64.0,88.0
268,58.4700411875,58.52813975,64.0,83.0
269,58.4700411875,58.691872062499996,68.0,89.0
270,57.6249711875,58.7464495,52.0,93.0
271,58.4700411875,58.7587734375,59.0,85.0
272,58.4700411875,58.8468015625,71.0,88.0
273,58.6813086875,58.9066606875,64.0,88.0
274,58.8925761875,59.13377325,68.0,85.0
275,59.103843687499996,59.3098295,64.0,86.0
276,59.3151111875,59.700674375,68.0,82.0
277,59.7376461875,60.0985615,64.0,95.0
278,59.948913687499996,60.19011075,68.0,90.0
279,60.1601811875,60.45771625,73.0,89.0
280,59.3151111875,60.7975048125,49.0,86.0
281,60.3714486875,60.841518875,64.0,95.0
282,60.5827161875,60.862645625,68.0,92.0
283,59.5263786875,60.90842025,56.0,74.0
284,60.7939836875,61.0510258125,73.0,82.0
285,61.0052511875,61.496448125,68.0,86.0
286,61.4277861875,61.7887015,64.0,90.0
287,61.6390536875,61.80982825,68.0,88.0
288,61.2165186875,62.052785875,56.0,83.0
289,61.0052511875,62.0686309375,49.0,94.0
290,61.8503211875,62.172504124999996,73.0,94.0
291,62.0615886875,62.306306875,64.0,90.0
292,62.2728561875,62.4876448125,68.0,89.0
293,62.4841236875,62.693630625,64.0,84.0
294,62.6953911875,63.0827149375,69.0,79.0
295,63.1179261875,63.4066584375,64.0,91.0
296,63.3291936875,63.55630625,69.0,81.0
297,63.5404611875,63.78165825,71.0,88.0
298,63.7517286875,63.968277875,69.0,84.0
299,62.9066586875,64.193629875,52.0,82.0
300,62.6953911875,64.197151,45.0,88.0
301,63.962996187499996,64.2675735,64.0,89.0
302,64.1742636875,64.422503,69.0,79.0
303,64.38553118749999,64.8503196875,73.0,88.0
304,64.8080661875,65.1249674375,64.0,91.0
305,65.0193336875,65.313347625,69.0,84.0
306,65.2306011875,65.5070095,71.0,84.0
307,65.4418686875,65.64257281249999,69.0,90.0
308,64.5967986875,65.7587699375,52.0,83.0
309,64.38553118749999,65.806305125,45.0,89.0
310,65.6531361875,65.9770796875,64.0,82.0
311,65.8644036875,66.1144035625,69.0,71.0
312,66.07567118749999,66.707713125,71.0,84.0
313,66.4982061875,66.8714454375,59.0,84.0
314,66.7094736875,66.9348256875,63.0,88.0
315,66.2869386875,66.9735580625,54.0,45.0
316,66.9207411875,67.334473375,66.0,105.0
317,66.07567118749999,67.6056,47.0,89.0
318,67.1320086875,67.62672675,54.0,83.0
319,67.3432761875,67.665459125,59.0,94.0
320,67.5545436875,67.68306475,63.0,92.0
321,67.7658111875,67.88024775,63.0,81.0
322,67.7658111875,68.313346125,71.0,88.0
323,68.3996136875,68.5298953125,63.0,92.0
324,68.1883461875,68.5756699375,59.0,92.0
325,67.9770786875,68.679543125,54.0,82.0
326,68.6108811875,68.92250075,66.0,94.0
327,68.8221486875,68.989402125,54.0,83.0
328,67.7658111875,68.9982049375,47.0,90.0
329,69.0334161875,69.278134375,59.0,89.0
330,69.2446836875,69.397852625,63.0,88.0
331,69.4559511875,69.848556625,68.0,90.0
332,70.0897536875,70.2305986875,68.0,92.0
333,69.8784861875,70.249964875,64.0,87.0
334,70.3010211875,70.5791900625,71.0,83.0
335,70.5122886875,70.9453870625,64.0,89.0
336,70.7235561875,70.9946828125,68.0,90.0
337,69.4559511875,71.00524618749999,52.0,93.0
338,69.6672186875,71.0545419375,59.0,83.0
339,70.9348236875,71.1566545625,71.0,83.0
340,71.1460911875,71.6355275625,76.0,90.0
341,71.5686261875,71.87144293749999,64.0,90.0
342,71.77989368749999,71.88376687499999,68.0,89.0
343,71.3573586875,72.109118875,59.0,76.0
344,71.9911611875,72.23763993749999,64.0,88.0
345,71.9911611875,72.29221737499999,68.0,88.0
346,71.1460911875,72.44362575,52.0,93.0
347,72.2024286875,72.507006,59.0,82.0
348,71.9911611875,72.5158088125,71.0,88.0
349,72.4136961875,72.7200340625,64.0,89.0
350,72.6249636875,72.792217125,68.0,93.0
351,73.2587661875,73.6496110625,61.0,83.0
352,73.47003368749999,73.7165124375,64.0,86.0
353,73.6813011875,73.9629911875,68.0,86.0
354,73.8925686875,74.3503149375,61.0,85.0
355,72.8362311875,74.355596625,49.0,92.0
356,73.0474986875,74.4101740625,56.0,77.0
357,74.1038361875,74.42777968749999,64.0,78.0
358,74.3151036875,74.827427375,68.0,76.0
359,75.1601736875,75.285173625,64.0,77.0
360,74.9489061875,75.2904553125,61.0,89.0
361,74.7376386875,75.5052439375,56.0,74.0
362,75.3714411875,75.61263825,61.0,82.0
363,74.5263711875,75.7094691875,49.0,85.0
364,75.5827086875,75.7235536875,56.0,81.0
365,75.3714411875,75.7798916875,68.0,89.0
366,75.3714411875,75.7886945,64.0,92.0
367,75.7939761875,76.112638,61.0,89.0
368,76.0052436875,76.165454875,64.0,84.0
369,76.6390461875,77.0967924375,57.0,89.0
370,76.8503136875,77.1320036875,61.0,89.0
371,77.0615811875,77.355595125,64.0,88.0
372,77.2728486875,77.7270738125,69.0,89.0
373,76.4277786875,77.728834375,52.0,81.0
374,76.2165111875,77.742918875,45.0,89.0
375,77.48411618749999,78.0827074375,57.0,88.0
376,77.6953836875,78.3327073125,61.0,95.0
377,77.9066511875,78.57038324999999,64.0,88.0
378,78.3291861875,78.883763375,57.0,82.0
379,78.5404536875,78.9172140625,61.0,90.0
380,78.7517211875,79.0545379375,64.0,89.0
381,78.1179186875,79.09150975,52.0,77.0
382,77.9066511875,79.1601716875,45.0,89.0
383,78.9629886875,79.45770675,69.0,88.0
384,79.17425618749999,79.5087630625,57.0,82.0
385,79.3855236875,79.9418614375,61.0,90.0
386,80.0193261875,80.422495,57.0,84.0
387,80.2305936875,80.4665090625,61.0,94.0
388,79.5967911875,80.62672025,42.0,89.0
389,79.8080586875,80.6355230625,49.0,75.0
390,80.4418611875,80.86615675,66.0,89.0
391,80.6531286875,81.031649625,57.0,89.0
392,80.8643961875,81.137283375,61.0,90.0
393,81.0756636875,81.4172128125,66.0,82.0
394,81.7094661875,82.1320011875,59.0,90.0
395,81.9207336875,82.1566490625,63.0,93.0
396,81.4981986875,82.2235504375,54.0,75.0
397,82.1320011875,82.41545175,51.0,75.0
398,82.1320011875,82.82390225,66.0,93.0
399,82.7658036875,82.996437375,59.0,89.0
400,82.9770711875,82.996437375,59.0,84.0
401,82.5545361875,83.0017190625,54.0,75.0
402,81.2869311875,83.052775375,47.0,92.0
403,82.9770711875,83.454183625,68.0,86.0
404,82.9770711875,83.47178925,64.0,82.0
405,83.3996061875,83.6143948125,59.0,76.0
406,83.8221411875,83.9981974375,64.0,81.0
407,83.8221411875,83.99995799999999,68.0,84.0
408,84.2446761875,84.4418591875,59.0,52.0
409,84.6672111875,84.8309435,64.0,90.0
410,84.6672111875,84.855591375,68.0,90.0
411,85.0897461875,85.285168625,59.0,79.0
412,82.9770711875,85.66897125,40.0,85.0
413,85.5122811875,85.6989008125,59.0,91.0
414,85.5122811875,85.80981625,64.0,91.0
415,85.5122811875,85.954182375,68.0,90.0
416,86.3573511875,86.5263651875,56.0,78.0
417,86.3573511875,86.8538298125,64.0,84.0
418,86.3573511875,86.869674875,61.0,82.0
419,86.7798861875,87.33094224999999,56.0,70.0
420,87.2024211875,87.44361825,61.0,90.0
421,87.2024211875,87.5122801875,68.0,88.0
422,87.6249561875,87.86791381249999,56.0,66.0
423,88.0474911875,88.22178687499999,56.0,82.0
424,88.0474911875,88.2974910625,61.0,85.0
425,88.0474911875,88.35911075,68.0,86.0
426,86.3573511875,88.9735470625,49.0,89.0
427,88.8925611875,89.042209,56.0,89.0
428,88.8925611875,89.0439695625,61.0,88.0
429,88.8925611875,89.1038286875,68.0,90.0
430,89.7376311875,89.9383353125,57.0,78.0
431,89.7376311875,90.186574625,61.0,90.0
432,89.7376311875,90.2305886875,64.0,87.0
433,90.1601661875,90.38727875,57.0,74.0
434,90.58270118749999,90.7376306875,57.0,81.0
435,90.58270118749999,90.7376306875,61.0,88.0
436,90.58270118749999,90.855588375,64.0,90.0
437,91.4277711875,91.55277112499999,61.0,85.0
438,91.4277711875,91.59854575,64.0,90.0
439,91.8503061875,92.02108075,57.0,66.0
440,89.7376311875,92.4348129375,45.0,87.0
441,92.27284118749999,92.4524185625,61.0,93.0
442,92.27284118749999,92.45770025,57.0,92.0
443,92.27284118749999,92.5369255625,64.0,92.0
444,92.6953761875,92.820376125,45.0,101.0
445,93.1179111875,93.44361525,59.0,82.0
446,93.1179111875,93.524601125,63.0,88.0
447,93.5404461875,94.10910787499999,54.0,78.0
448,93.96298118749999,94.2305866875,59.0,84.0
449,93.96298118749999,94.2411500625,63.0,91.0
450,93.96298118749999,94.2957275,66.0,86.0
451,94.3855161875,94.714741375,54.0,79.0
452,94.5967836875,94.7235441875,59.0,77.0
453,93.1179111875,94.7481920625,47.0,93.0
454,94.8080511875,95.3326988125,63.0,90.0
455,94.8080511875,95.362628375,59.0,88.0
456,94.8080511875,95.7094591875,47.0,92.0
457,95.6531211875,95.82389575,59.0,91.0
458,95.6531211875,95.9101633125,63.0,94.0
459,95.6531211875,95.97882525,66.0,86.0
460,96.0756561875,96.3432616875,59.0,82.0
461,96.4981911875,96.72530375,59.0,91.0
462,96.4981911875,96.9312895625,64.0,89.0
463,96.9207261875,97.014036,59.0,71.0
464,97.3432611875,97.482345625,59.0,91.0
465,97.3432611875,97.48586675,64.0,91.0
466,97.3432611875,97.51403575,68.0,86.0
467,97.7657961875,97.8450215,59.0,59.0
468,98.1883311875,98.38727475,59.0,84.0
469,98.1883311875,98.411922625,64.0,84.0
470,98.1883311875,98.4383310625,68.0,84.0
471,98.8221336875,98.904880125,59.0,71.0
472,99.0334011875,99.267556,59.0,93.0
473,98.6108661875,99.2939644375,47.0,65.0
474,99.0334011875,99.306288375,64.0,95.0
475,99.0334011875,99.5369220625,68.0,91.0
476,99.4559361875,99.5862178125,59.0,88.0
477,96.4981911875,99.602062875,40.0,90.0
478,99.8784711875,100.151358375,56.0,81.0
479,99.8784711875,100.422485,61.0,90.0
480,100.3010061875,100.64079475,56.0,78.0
481,100.7235411875,100.80804818749999,61.0,92.0
482,100.7235411875,100.827414375,64.0,91.0
483,101.5686111875,101.64079425,56.0,68.0
484,99.8784711875,101.827413875,49.0,90.0
485,101.5686111875,101.9594560625,61.0,86.0
486,101.5686111875,101.9981884375,64.0,90.0
487,102.2024136875,102.3010051875,56.0,72.0
488,102.4136811875,102.6337515,56.0,91.0
489,102.4136811875,102.8432584375,49.0,92.0
490,102.4136811875,102.85206125,61.0,92.0
491,102.4136811875,102.9031175625,64.0,90.0
492,102.8362161875,102.9242443125,56.0,76.0
493,103.2587511875,103.4841031875,57.0,78.0
494,103.2587511875,103.7235396875,64.0,86.0
495,103.2587511875,103.7587509375,61.0,91.0
496,103.68128618749999,103.8731875,57.0,71.0
497,104.1038211875,104.531637875,64.0,90.0
498,104.1038211875,104.5333984375,57.0,86.0
499,104.1038211875,104.5333984375,61.0,90.0
500,104.5263561875,105.1002995625,52.0,74.0
501,104.9488911875,105.28867975,61.0,86.0
502,104.9488911875,105.355581125,57.0,81.0
503,104.9488911875,105.418961375,64.0,88.0
504,105.5826936875,105.6777640625,57.0,60.0
505,105.7939611875,106.0193131875,61.0,95.0
506,105.7939611875,106.02107375,57.0,93.0
507,103.2587511875,106.04220049999999,45.0,86.0
508,105.7939611875,106.1425525625,64.0,92.0
509,105.7939611875,106.26227081249999,52.0,85.0
510,106.2164961875,106.3520595,45.0,91.0
511,106.6390311875,107.06156618749999,63.0,91.0
512,106.6390311875,107.123185875,59.0,84.0
513,107.06156618749999,107.65487575,54.0,80.0
514,107.4841011875,107.6636785625,63.0,97.0
515,107.4841011875,107.69712925,66.0,91.0
516,107.4841011875,107.7059320625,59.0,90.0
517,106.6390311875,108.1883261875,47.0,93.0
518,107.9066361875,108.2164951875,54.0,79.0
519,108.3291711875,108.7481850625,63.0,86.0
520,108.3291711875,108.78163574999999,59.0,83.0
521,108.3291711875,108.79572025,66.0,84.0
522,108.9629736875,109.07741025,59.0,79.0
523,108.7517061875,109.23233975,54.0,62.0
524,109.1742411875,109.2534665,59.0,83.0
525,108.3291711875,109.3291706875,47.0,91.0
526,109.1742411875,109.4524100625,71.0,91.0
527,109.1742411875,109.4700156875,66.0,91.0
528,109.1742411875,109.47177625,63.0,97.0
529,109.5967761875,109.65487475,47.0,75.0
530,109.5967761875,109.6918465625,54.0,83.0
531,110.0193111875,110.52811375,64.0,90.0
532,110.0193111875,110.57564893749999,61.0,89.0
533,110.0193111875,110.6812826875,57.0,85.0
534,110.0193111875,110.982338875,45.0,92.0
535,110.8643811875,111.0404374375,61.0,91.0
536,110.8643811875,111.0686064375,57.0,88.0
537,110.4418461875,111.116141625,52.0,81.0
538,110.8643811875,111.14783175,64.0,91.0
539,111.2869161875,111.3608598125,45.0,94.0
540,111.7094511875,112.13726787499999,64.0,89.0
541,111.7094511875,112.1531129375,56.0,85.0
542,111.7094511875,112.1812819375,59.0,86.0
543,112.3432536875,112.447126875,56.0,80.0
544,112.1319861875,112.630225375,47.0,71.0
545,112.5545211875,112.799239375,59.0,92.0
546,112.5545211875,112.806281625,56.0,95.0
547,112.5545211875,112.834450625,64.0,91.0
548,111.7094511875,112.855577375,40.0,91.0
549,112.76578868749999,112.92423931249999,47.0,80.0
550,112.9770561875,113.2129715625,40.0,90.0
551,113.3995911875,113.6214220625,54.0,90.0
552,113.3995911875,113.830929,59.0,90.0
553,113.3995911875,113.83973181249999,63.0,92.0
554,114.2446611875,114.4171963125,54.0,96.0
555,114.2446611875,114.92247775,63.0,95.0
556,113.3995911875,114.9594495625,47.0,94.0
557,114.8784636875,114.9981819375,54.0,82.0
558,115.08973118749999,115.3009986875,54.0,86.0
559,115.08973118749999,115.62670274999999,63.0,91.0
560,115.08973118749999,115.6478295,59.0,90.0
561,115.5122661875,115.707688625,54.0,82.0
562,115.08973118749999,116.024589875,47.0,91.0
563,115.9348011875,116.1707165625,54.0,92.0
564,115.9348011875,116.2517024375,59.0,96.0
565,116.1460686875,116.3080404375,47.0,91.0
566,115.9348011875,116.42599812499999,63.0,99.0
567,116.3573361875,116.503462875,54.0,95.0
568,116.77987118749999,116.9700119375,52.0,86.0
569,116.77987118749999,117.0826879375,57.0,81.0
570,116.77987118749999,117.1002935625,61.0,90.0
571,117.2024061875,117.5509975625,52.0,90.0
572,116.77987118749999,117.7886735,45.0,92.0
573,117.6249411875,117.813321375,52.0,92.0
574,117.6249411875,117.8995889375,57.0,95.0
575,118.0474761875,118.1460676875,52.0,97.0
576,117.6249411875,118.158391625,64.0,90.0
577,118.47001118749999,118.69536318749999,56.0,83.0
578,118.47001118749999,118.9436025,64.0,86.0
579,118.47001118749999,118.96472925,59.0,86.0
580,118.8925461875,119.0545179375,56.0,80.0
581,118.47001118749999,119.5157853125,40.0,91.0
582,119.3150811875,119.630221875,56.0,91.0
583,119.3150811875,119.6319824375,59.0,95.0
584,119.3150811875,119.746419,64.0,91.0
585,119.7376161875,119.915433,40.0,91.0
586,120.16015118749999,120.3925454375,54.0,86.0
587,120.16015118749999,120.6143763125,63.0,92.0
588,120.16015118749999,120.64078475,59.0,85.0
589,120.16015118749999,121.23233375,47.0,99.0
590,121.0052211875,121.292192875,54.0,91.0
591,121.0052211875,121.7041645,63.0,96.0
592,121.0052211875,121.72177012499999,59.0,93.0
593,121.6390236875,121.7904320625,54.0,79.0
594,121.8502911875,122.0862065625,54.0,91.0
595,121.8502911875,122.5826851875,63.0,92.0
596,121.8502911875,122.5967696875,59.0,92.0
597,122.48409368749999,122.609093625,54.0,82.0
598,122.6953611875,122.742896375,63.0,89.0
599,121.8502911875,122.9207131875,47.0,91.0
600,122.6953611875,122.968248375,59.0,99.0
601,122.6953611875,122.99289625,54.0,96.0
602,123.5404311875,123.7340930625,68.0,89.0
603,123.7516986875,123.9981774375,64.0,84.0
604,123.9629661875,124.1425435625,68.0,80.0
605,124.17423368749999,124.37317725,64.0,82.0
606,124.3855011875,124.68303625,64.0,82.0
607,124.3855011875,124.7798671875,71.0,86.0
608,124.8080361875,125.0580360625,68.0,87.0
609,123.5404311875,125.095007875,52.0,90.0
610,123.7516986875,125.1108529375,59.0,82.0
611,125.0193036875,125.264021875,64.0,88.0
612,125.2305711875,125.587965375,76.0,90.0
613,125.4418386875,125.6707118125,64.0,93.0
614,125.6531061875,125.86613425,68.0,82.0
615,125.86437368749999,126.00697925,64.0,88.0
616,126.0756411875,126.13373975,64.0,83.0
617,126.0756411875,126.29747206249999,68.0,89.0
618,125.2305711875,126.35204949999999,52.0,93.0
619,126.0756411875,126.36437343749999,59.0,85.0
620,126.0756411875,126.4524015625,71.0,88.0
621,126.2869086875,126.5122606875,64.0,88.0
622,126.4981761875,126.73937325,68.0,85.0
623,126.7094436875,126.9154295,64.0,86.0
624,126.9207111875,127.306274375,68.0,82.0
625,127.3432461875,127.7041615,64.0,95.0
626,127.55451368749999,127.79571075,68.0,90.0
627,127.7657811875,128.06331624999999,73.0,89.0
628,126.9207111875,128.4031048125,49.0,86.0
629,127.9770486875,128.447118875,64.0,95.0
630,128.1883161875,128.468245625,68.0,92.0
631,127.1319786875,128.51402025,56.0,74.0
632,128.3995836875,128.6566258125,73.0,82.0
633,128.6108511875,129.102048125,68.0,86.0
634,129.03338618749999,129.3943015,64.0,90.0
635,129.2446536875,129.41542825,68.0,88.0
636,128.8221186875,129.658385875,56.0,83.0
637,128.6108511875,129.6742309375,49.0,94.0
638,129.4559211875,129.778104125,73.0,94.0
639,129.6671886875,129.911906875,64.0,90.0
640,129.8784561875,130.0932448125,68.0,89.0
641,130.0897236875,130.299230625,64.0,84.0
642,130.3009911875,130.6883149375,69.0,79.0
643,130.7235261875,131.0122584375,64.0,91.0
644,130.9347936875,131.16190625,69.0,81.0
645,131.1460611875,131.38725825,71.0,88.0
646,131.3573286875,131.573877875,69.0,84.0
647,130.5122586875,131.799229875,52.0,82.0
648,130.3009911875,131.802751,45.0,88.0
649,131.5685961875,131.8731735,64.0,89.0
650,131.7798636875,132.028103,69.0,79.0
651,131.9911311875,132.4559196875,73.0,88.0
652,132.41366618749998,132.73056743749999,64.0,91.0
653,132.6249336875,132.918947625,69.0,84.0
654,132.8362011875,133.1126095,71.0,84.0
655,133.0474686875,133.2481728125,69.0,90.0
656,132.2023986875,133.3643699375,52.0,83.0
657,131.9911311875,133.411905125,45.0,89.0
658,133.2587361875,133.5826796875,64.0,82.0
659,133.4700036875,133.7200035625,69.0,71.0
660,133.6812711875,134.313313125,71.0,84.0
661,134.1038061875,134.4770454375,59.0,84.0
662,134.3150736875,134.5404256875,63.0,88.0
663,133.8925386875,134.5791580625,54.0,45.0
664,134.5263411875,134.940073375,66.0,105.0
665,133.6812711875,135.2112,47.0,89.0
666,134.7376086875,135.23232675,54.0,83.0
667,134.9488761875,135.271059125,59.0,94.0
668,135.1601436875,135.28866475,63.0,92.0
669,135.3714111875,135.48584775,63.0,81.0
670,135.3714111875,135.918946125,71.0,88.0
671,136.0052136875,136.1354953125,63.0,92.0
672,135.7939461875,136.1812699375,59.0,92.0
673,135.5826786875,136.285143125,54.0,82.0
674,136.2164811875,136.52810075,66.0,94.0
675,136.42774868749999,136.595002125,54.0,83.0
676,135.3714111875,136.6038049375,47.0,90.0
677,136.6390161875,136.883734375,59.0,89.0
678,136.8502836875,137.003452625,63.0,88.0
679,137.0615511875,137.454156625,68.0,90.0
680,137.6953536875,137.8361986875,68.0,92.0
681,137.4840861875,137.855564875,64.0,87.0
682,137.9066211875,138.18479006249999,71.0,83.0
683,138.1178886875,138.55098706249998,64.0,89.0
684,138.3291561875,138.6002828125,68.0,90.0
685,137.0615511875,138.6108461875,52.0,93.0
686,137.2728186875,138.6601419375,59.0,83.0
687,138.5404236875,138.7622545625,71.0,83.0
688,138.7516911875,139.2411275625,76.0,90.0
689,139.1742261875,139.4770429375,64.0,90.0
690,139.3854936875,139.489366875,68.0,89.0
691,138.9629586875,139.714718875,59.0,76.0
692,139.5967611875,139.8432399375,64.0,88.0
693,139.5967611875,139.897817375,68.0,88.0
694,138.7516911875,140.04922575,52.0,93.0
695,139.80802868749998,140.112606,59.0,82.0
696,139.5967611875,140.1214088125,71.0,88.0
697,140.0192961875,140.3256340625,64.0,89.0
698,140.2305636875,140.397817125,68.0,93.0
699,140.8643661875,141.2552110625,61.0,83.0
700,141.0756336875,141.3221124375,64.0,86.0
701,141.2869011875,141.5685911875,68.0,86.0
702,141.4981686875,141.9559149375,61.0,85.0
703,140.4418311875,141.96119662499999,49.0,92.0
704,140.6530986875,142.0157740625,56.0,77.0
705,141.7094361875,142.0333796875,64.0,78.0
706,141.9207036875,142.433027375,68.0,76.0
707,142.7657736875,143.0474636875,63.0,93.0
708,142.5545061875,143.0721115625,59.0,91.0
709,142.3432386875,143.0861960625,54.0,65.0
710,142.9770411875,143.4629564375,71.0,85.0
711,143.3995761875,143.792181625,59.0,102.0
712,143.6108436875,143.799223875,63.0,90.0
713,143.1883086875,143.82387175,54.0,87.0
714,142.1319711875,143.8784491875,47.0,88.0
715,144.2446461875,144.7023924375,57.0,89.0
716,144.4559136875,144.73760368749998,61.0,89.0
717,144.6671811875,144.961195125,64.0,88.0
718,144.8784486875,145.3326738125,69.0,89.0
719,144.0333786875,145.334434375,52.0,81.0
720,143.82211118749998,145.348518875,45.0,89.0
721,145.0897161875,145.6883074375,57.0,88.0
722,145.3009836875,145.9383073125,61.0,95.0
723,145.5122511875,146.17598325,64.0,88.0
724,145.9347861875,146.489363375,57.0,82.0
725,146.1460536875,146.5228140625,61.0,90.0
726,146.3573211875,146.6601379375,64.0,89.0
727,145.7235186875,146.69710975,52.0,77.0
728,145.5122511875,146.7657716875,45.0,89.0
729,146.5685886875,147.06330675,69.0,88.0
730,146.7798561875,147.1143630625,57.0,82.0
731,146.9911236875,147.5474614375,61.0,90.0
732,147.6249261875,148.028095,57.0,84.0
733,147.83619368749999,148.0721090625,61.0,94.0
734,147.20239118749998,148.23232025,42.0,89.0
735,147.4136586875,148.2411230625,49.0,75.0
736,148.0474611875,148.47175675,66.0,89.0
737,148.2587286875,148.637249625,57.0,89.0
738,148.4699961875,148.742883375,61.0,90.0
739,148.6812636875,149.0228128125,66.0,82.0
740,149.3150661875,149.7376011875,59.0,90.0
741,149.5263336875,149.7622490625,63.0,93.0
742,149.1037986875,149.8291504375,54.0,75.0
743,149.7376011875,150.02105175,51.0,75.0
744,149.7376011875,150.42950224999998,66.0,93.0
745,150.3714036875,150.602037375,59.0,89.0
746,150.5826711875,150.602037375,59.0,83.0
747,150.1601361875,150.6073190625,54.0,75.0
748,150.5826711875,150.6073190625,54.0,90.0
749,148.8925311875,150.658375375,47.0,92.0
750,151.0052061875,151.1636568125,54.0,86.0
751,150.5826711875,151.4523890625,35.0,91.0
752,151.4277411875,151.7235156875,63.0,94.0
753,151.4277411875,151.74112131249998,59.0,93.0
754,151.4277411875,151.7446424375,54.0,92.0
755,152.0615436875,152.2956985,54.0,90.0
756,152.0615436875,152.309783,59.0,91.0
757,152.0615436875,152.3467548125,63.0,94.0
758,152.6953461875,152.785134875,59.0,86.0
759,152.9066136875,152.975275625,63.0,93.0
760,152.9066136875,152.9911206875,59.0,91.0
761,152.4840786875,153.158374125,54.0,79.0
762,153.1178811875,153.172458625,66.0,89.0
763,153.1178811875,153.376683875,59.0,96.0
764,153.1178811875,153.404852875,63.0,106.0
765,153.3291486875,153.433021875,54.0,86.0
766,152.2728111875,153.4383035625,47.0,91.0
767,153.5404161875,153.848514625,59.0,91.0
768,153.9629511875,154.0703455,35.0,90.0
769,153.9629511875,154.30978199999998,66.0,88.0
770,153.9629511875,154.320345375,63.0,84.0
771,153.9629511875,154.3854861875,59.0,86.0
772,154.8080211875,154.9171760625,66.0,90.0
773,154.8080211875,154.933021125,59.0,90.0
774,155.23055618749999,155.30273925,54.0,65.0
775,155.4418236875,155.5580208125,71.0,92.0
776,155.4418236875,155.609077125,59.0,94.0
777,155.6530911875,155.71118975,47.0,82.0
778,155.8643586875,156.0263304375,63.0,101.0
779,155.8643586875,156.04217549999998,66.0,92.0
780,155.8643586875,156.04921775,59.0,93.0
781,156.0756261875,156.1319641875,54.0,64.0
782,156.2868936875,156.3784429375,59.0,90.0
783,156.4981611875,156.7939356875,59.0,92.0
784,156.4981611875,156.8009779375,63.0,104.0
785,156.4981611875,156.80449906249999,54.0,93.0
786,156.4981611875,156.8309075,66.0,92.0
787,156.4981611875,156.83794975,47.0,96.0
788,156.9206961875,157.1249214375,59.0,87.0
789,157.3432311875,157.425977625,35.0,90.0
790,157.3432311875,157.5580198125,63.0,90.0
791,157.3432311875,157.6073155625,59.0,87.0
792,158.1883011875,158.30978,54.0,93.0
793,158.1883011875,158.313301125,59.0,91.0
794,158.8221036875,158.947103625,54.0,89.0
795,158.8221036875,158.9629486875,63.0,92.0
796,159.4559061875,159.862596125,59.0,94.0
797,159.4559061875,159.869638375,54.0,92.0
798,159.8784411875,159.9629481875,47.0,82.0
799,160.0897086875,160.20414525,54.0,95.0
800,160.0897086875,160.320342375,59.0,101.0
801,160.7235111875,160.84499,35.0,90.0
802,160.7235111875,161.28865174999999,59.0,88.0
803,160.7235111875,161.327384125,54.0,90.0
804,161.3573136875,161.5333699375,47.0,57.0
805,161.5685811875,161.75344025,54.0,92.0
806,161.5685811875,161.8713979375,59.0,94.0
807,161.5685811875,162.04569362499998,63.0,95.0
808,161.9911161875,162.080904875,54.0,90.0
809,162.4136511875,162.644284875,56.0,96.0
810,162.4136511875,162.647806,60.0,91.0
811,162.8361861875,162.9418199375,56.0,81.0
812,163.0474536875,163.09851,60.0,74.0
813,163.0474536875,163.12491843749999,63.0,87.0
814,162.62491868749999,163.3379465,51.0,87.0
815,163.2587211875,163.521045,56.0,93.0
816,163.2587211875,163.5351295,60.0,93.0
817,163.2587211875,163.5932280625,63.0,94.0
818,162.4136511875,163.72527025,44.0,92.0
819,163.4699886875,163.7939321875,51.0,90.0
820,163.8925236875,164.017523625,51.0,56.0
821,163.6812561875,164.04921375,56.0,96.0
822,164.7375936875,165.2270300625,61.0,88.0
823,164.1037911875,165.679494625,49.0,90.0
824,164.5263261875,165.7023819375,56.0,76.0
825,165.1601286875,165.7481565625,68.0,88.0
826,165.3713961875,165.91541,61.0,84.0
827,165.5826636875,166.440057625,73.0,84.0
828,166.00519868749998,166.6918180625,56.0,77.0
829,166.2164661875,166.8925221875,61.0,86.0
830,166.8502686875,167.045691125,56.0,76.0
831,165.7939311875,167.0720995625,49.0,87.0
832,166.4277336875,167.334423375,68.0,81.0
833,167.0615361875,167.355550125,61.0,89.0
834,167.2728036875,167.5333669375,73.0,81.0
835,168.1178736875,168.68301424999999,61.0,84.0
836,167.9066061875,168.78160575,54.0,82.0
837,167.4840711875,168.9664648125,42.0,82.0
838,167.6953386875,168.99287325,49.0,74.0
839,168.7516761875,169.02456337499999,57.0,76.0
840,168.9629436875,169.661887,61.0,84.0
841,169.5967461875,170.3185768125,54.0,88.0
842,169.1742111875,170.4206894375,42.0,93.0
843,169.3854786875,170.450619,49.0,78.0
844,169.8080136875,170.5756189375,66.0,84.0
845,170.4418161875,170.8115343125,61.0,78.0
846,170.6530836875,170.8643511875,54.0,85.0
847,171.2868861875,171.5439283125,61.0,77.0
848,171.4981536875,171.99287175,57.0,84.0
849,171.9206886875,172.3713926875,64.0,83.0
850,170.8643511875,172.40132225,45.0,89.0
851,171.0756186875,172.4030828125,52.0,82.0
852,172.1319561875,172.71646293749998,57.0,88.0
853,172.3432236875,172.8889980625,61.0,81.0
854,172.9770261875,173.66892725,57.0,82.0
855,172.7657586875,173.80273,52.0,81.0
856,172.5544911875,173.8256173125,45.0,89.0
857,173.6108286875,173.890758125,64.0,32.0
858,173.1882936875,173.89956093749998,61.0,76.0
859,173.8220961875,174.1566030625,57.0,87.0
860,174.03336368749999,174.221743875,61.0,83.0
861,173.6108286875,174.29568749999999,69.0,87.0
862,174.4558986875,174.72526475,59.0,84.0
863,174.6671661875,174.94885618749998,63.0,87.0
864,174.8784336875,175.165405375,59.0,81.0
865,175.3009686875,175.52808124999999,59.0,91.0
866,175.5122361875,175.8467430625,66.0,88.0
867,175.7235036875,175.9946303125,59.0,88.0
868,175.9347711875,176.024559875,66.0,61.0
869,176.1460386875,176.4365315,59.0,89.0
870,175.9347711875,176.5263201875,71.0,90.0
871,176.3573061875,176.6143483125,63.0,77.0
872,175.0897011875,176.6460384375,54.0,77.0
873,176.5685736875,176.9453340625,59.0,89.0
874,176.7798411875,177.0368833125,51.0,71.0
875,176.9911086875,177.2164606875,54.0,85.0
876,174.2446311875,177.341460625,47.0,89.0
877,177.2023761875,177.531601375,59.0,93.0
878,177.41364368749998,177.6178689375,63.0,85.0
879,178.0474461875,178.834417625,64.0,90.0
880,177.8361786875,178.982304875,59.0,81.0
881,178.8925161875,179.01223443749998,56.0,85.0
882,177.6249111875,179.0333611875,52.0,92.0
883,178.2587136875,179.144276625,68.0,89.0
884,179.1037836875,179.5685721875,64.0,95.0
885,179.7375861875,180.3608253125,64.0,94.0
886,179.9488536875,180.3925154375,68.0,89.0
887,179.5263186875,180.433008375,47.0,82.0
888,179.3150511875,180.4558956875,40.0,83.0
889,180.3713886875,180.8749095625,71.0,89.0
890,180.5826561875,180.95061375,64.0,82.0
891,180.79392368749998,181.024557375,68.0,78.0
892,181.42772618749999,182.084416,54.0,85.0
893,181.6389936875,182.1284300625,57.0,83.0
894,181.2164586875,182.440049625,49.0,73.0
895,181.0051911875,182.461176375,42.0,91.0
896,182.0615286875,182.468218625,66.0,88.0
897,182.2727961875,182.7904015625,54.0,86.0
898,182.4840636875,182.9277254375,57.0,83.0
899,183.3291336875,183.59849975,57.0,86.0
900,183.1178661875,183.623147625,54.0,90.0
901,182.6953311875,183.774556,42.0,90.0
902,182.9065986875,183.7798376875,49.0,82.0
903,183.7516686875,183.79568275,54.0,69.0
904,183.7516686875,184.003429125,57.0,89.0
905,183.9629361875,184.0984995,54.0,89.0
906,183.7516686875,184.17596425,66.0,84.0
907,184.3854711875,184.8115273125,57.0,82.0
908,184.3854711875,184.86258362499998,61.0,75.0
909,185.0192736875,185.2270200625,57.0,82.0
910,185.2305411875,185.623146625,64.0,83.0
911,185.4418086875,185.848498625,57.0,84.0
912,184.3854711875,185.8854704375,45.0,89.0
913,184.80800618749998,185.9101183125,52.0,87.0
914,185.6530761875,185.9242028125,61.0,88.0
915,185.8643436875,186.35906175,64.0,84.0
916,186.2868786875,186.5333574375,57.0,88.0
917,186.4981461875,186.749906625,61.0,88.0
918,186.7094136875,186.957653,64.0,84.0
919,186.9206811875,187.2023711875,69.0,89.0
920,187.1319486875,187.447089375,64.0,88.0
921,187.3432161875,187.5632865,61.0,86.0
922,186.0756111875,187.5756104375,45.0,89.0
923,187.5544836875,187.7587089375,57.0,88.0
924,188.18828618749998,188.4629339375,59.0,88.0
925,188.6108211875,188.7833563125,59.0,89.0
926,188.6108211875,189.080891375,63.0,91.0
927,188.6108211875,189.0932153125,66.0,83.0
928,187.7657511875,189.2534265,47.0,92.0
929,189.0333561875,189.3661025,59.0,88.0
930,189.4558911875,189.9101163125,59.0,81.0
931,189.4558911875,189.94532756249998,63.0,83.0
932,189.4558911875,190.028074,71.0,87.0
933,189.4558911875,190.052721875,66.0,80.0
934,190.0896936875,190.362580875,59.0,88.0
935,190.3009611875,190.5298343125,63.0,89.0
936,190.5122286875,190.760468,59.0,88.0
937,190.7234961875,190.9840594375,66.0,81.0
938,189.8784261875,191.0439185625,54.0,76.0
939,189.4558911875,191.066805875,47.0,88.0
940,191.1460311875,191.45765075,52.0,84.0
941,191.1460311875,191.686523875,57.0,74.0
942,191.5685661875,192.01927018749998,52.0,86.0
943,191.1460311875,192.0896926875,45.0,90.0
944,191.9911011875,192.10553775,57.0,88.0
945,191.9911011875,192.1425095625,61.0,90.0
946,192.83617118749999,193.1389879375,56.0,76.0
947,192.83617118749999,193.5368750625,59.0,82.0
948,193.6812411875,193.813283375,56.0,78.0
949,192.83617118749999,193.876663625,44.0,75.0
950,193.6812411875,193.9013115,59.0,86.0
951,193.6812411875,194.0016635625,64.0,88.0
952,194.5263111875,195.0016630625,54.0,71.0
953,194.5263111875,195.02102925,59.0,77.0
954,195.3713811875,195.5192684375,54.0,84.0
955,195.3713811875,195.56328249999999,59.0,86.0
956,195.3713811875,195.5914515,63.0,91.0
957,196.21645118749998,196.3854651875,54.0,75.0
958,196.21645118749998,196.4664510625,59.0,77.0
959,196.6389861875,196.8572959375,54.0,73.0
960,197.0615211875,197.23229575,54.0,90.0
961,194.5263111875,197.2340563125,47.0,86.0
962,197.0615211875,197.454126625,61.0,90.0
963,197.4840561875,197.63194343749998,54.0,79.0
964,197.9065911875,198.1495488125,52.0,83.0
965,197.9065911875,198.2868726875,61.0,88.0
966,197.9065911875,198.3432106875,57.0,77.0
967,197.9065911875,198.594971125,45.0,80.0
968,198.7516611875,198.9594075625,52.0,90.0
969,198.7516611875,198.996379375,57.0,91.0
970,198.7516611875,199.1143370625,61.0,91.0
971,199.59673118749998,199.869618375,56.0,81.0
972,199.59673118749998,200.2903928125,59.0,84.0
973,200.4418011875,200.69708275,56.0,84.0
974,200.4418011875,200.728772875,59.0,89.0
975,199.59673118749998,200.92243475,44.0,83.0
976,201.2868711875,201.5474344375,54.0,86.0
977,201.2868711875,201.989335625,59.0,86.0
978,202.1319411875,202.3432086875,54.0,90.0
979,202.1319411875,202.4840536875,59.0,90.0
980,202.9770111875,203.1495463125,54.0,79.0
981,202.9770111875,203.630179875,59.0,76.0
982,203.3995461875,203.6565883125,54.0,82.0
983,201.2868711875,204.0122219375,47.0,88.0
984,203.8220811875,204.3115175625,61.0,91.0
985,203.8220811875,204.327362625,54.0,92.0
986,204.2446161875,204.5474329375,59.0,90.0
987,204.6671511875,204.742855375,35.0,90.0
988,204.6671511875,204.8819398125,54.0,91.0
989,204.6671511875,204.904827125,59.0,91.0
990,204.6671511875,205.045672125,63.0,92.0
991,205.7234886875,206.0122209375,59.0,94.0
992,205.9347561875,206.1917983125,63.0,92.0
993,205.5122211875,206.2129250625,54.0,96.0
994,206.1460236875,206.2516574375,59.0,76.0
995,205.0896861875,206.25869968749998,47.0,90.0
996,206.3572911875,206.5773615,59.0,91.0
997,206.3572911875,206.6618685,63.0,99.0
998,206.7798261875,206.8889810625,59.0,93.0
999,206.3572911875,207.3115160625,54.0,95.0
1000,207.2023611875,207.440037125,59.0,90.0
1001,207.2023611875,207.4523610625,63.0,99.0
1002,207.2023611875,207.4875723125,66.0,93.0
1003,207.62489618749998,207.88193831249998,59.0,101.0
1004,207.8361636875,207.96644531249999,63.0,95.0
1005,206.3572911875,208.0421495,47.0,101.0
1006,207.4136286875,208.0615156875,54.0,91.0
1007,208.0474311875,208.2410930625,68.0,89.0
1008,208.2586986875,208.5051774375,64.0,84.0
1009,208.4699661875,208.64954356249999,68.0,80.0
1010,208.6812336875,208.88017725,64.0,82.0
1011,208.8925011875,209.19003625,64.0,82.0
1012,208.8925011875,209.2868671875,71.0,86.0
1013,209.3150361875,209.56503606249998,68.0,87.0
1014,208.0474311875,209.602007875,52.0,90.0
1015,208.2586986875,209.6178529375,59.0,82.0
1016,209.5263036875,209.771021875,64.0,88.0
1017,209.7375711875,210.094965375,76.0,90.0
1018,209.9488386875,210.1777118125,64.0,93.0
1019,210.1601061875,210.37313425,68.0,82.0
1020,210.3713736875,210.51397925,64.0,88.0
1021,210.5826411875,210.64073975,64.0,83.0
1022,210.5826411875,210.8044720625,68.0,89.0
1023,209.7375711875,210.8590495,52.0,93.0
1024,210.5826411875,210.87137343749998,59.0,85.0
1025,210.5826411875,210.9594015625,71.0,88.0
1026,210.7939086875,211.0192606875,64.0,88.0
1027,211.00517618749998,211.24637325,68.0,85.0
1028,211.2164436875,211.4224295,64.0,86.0
1029,211.4277111875,211.813274375,68.0,82.0
1030,211.8502461875,212.2111615,64.0,95.0
1031,212.0615136875,212.30271075,68.0,90.0
1032,212.2727811875,212.57031625,73.0,89.0
1033,211.4277111875,212.9101048125,49.0,86.0
1034,212.4840486875,212.954118875,64.0,95.0
1035,212.6953161875,212.97524562499999,68.0,92.0
1036,211.63897868749999,213.02102025,56.0,74.0
1037,212.9065836875,213.1636258125,73.0,82.0
1038,213.1178511875,213.609048125,68.0,86.0
1039,213.5403861875,213.9013015,64.0,90.0
1040,213.7516536875,213.92242825,68.0,88.0
1041,213.3291186875,214.165385875,56.0,83.0
1042,213.1178511875,214.1812309375,49.0,94.0
1043,213.9629211875,214.285104125,73.0,94.0
1044,214.1741886875,214.418906875,64.0,90.0
1045,214.38545618749998,214.6002448125,68.0,89.0
1046,214.5967236875,214.80623062499998,64.0,84.0
1047,214.8079911875,215.1953149375,69.0,79.0
1048,215.2305261875,215.51925843749999,64.0,91.0
1049,215.4417936875,215.66890625,69.0,81.0
1050,215.6530611875,215.89425825,71.0,88.0
1051,215.8643286875,216.080877875,69.0,84.0
1052,215.01925868749998,216.30622987499999,52.0,82.0
1053,214.8079911875,216.309751,45.0,88.0
1054,216.0755961875,216.38017349999998,64.0,89.0
1055,216.2868636875,216.535103,69.0,79.0
1056,216.4981311875,216.9629196875,73.0,88.0
1057,216.9206661875,217.2375674375,64.0,91.0
1058,217.1319336875,217.425947625,69.0,84.0
1059,217.3432011875,217.6196095,71.0,84.0
1060,217.5544686875,217.7551728125,69.0,90.0
1061,216.7093986875,217.8713699375,52.0,83.0
1062,216.4981311875,217.918905125,45.0,89.0
1063,217.7657361875,218.0896796875,64.0,82.0
1064,217.9770036875,218.2270035625,69.0,71.0
1065,218.1882711875,218.82031312499998,71.0,84.0
1066,218.6108061875,218.9840454375,59.0,84.0
1067,218.8220736875,219.0474256875,63.0,88.0
1068,218.39953868749998,219.0861580625,54.0,45.0
1069,219.03334118749999,219.447073375,66.0,105.0
1070,218.1882711875,219.7182,47.0,89.0
1071,219.2446086875,219.73932675,54.0,83.0
1072,219.4558761875,219.778059125,59.0,94.0
1073,219.6671436875,219.79566475,63.0,92.0
1074,219.8784111875,219.99284775,63.0,81.0
1075,219.8784111875,220.425946125,71.0,88.0
1076,220.5122136875,220.6424953125,63.0,92.0
1077,220.3009461875,220.6882699375,59.0,92.0
1078,220.0896786875,220.792143125,54.0,82.0
1079,220.7234811875,221.03510075,66.0,94.0
1080,220.9347486875,221.10200212499998,54.0,83.0
1081,219.8784111875,221.1108049375,47.0,90.0
1082,221.1460161875,221.390734375,59.0,89.0
1083,221.3572836875,221.510452625,63.0,88.0
1084,221.5685511875,221.961156625,68.0,90.0
1085,222.2023536875,222.3431986875,68.0,92.0
1086,221.9910861875,222.362564875,64.0,87.0
1087,222.41362118749998,222.6917900625,71.0,83.0
1088,222.6248886875,223.0579870625,64.0,89.0
1089,222.8361561875,223.1072828125,68.0,90.0
1090,221.5685511875,223.1178461875,52.0,93.0
1091,221.77981868749998,223.1671419375,59.0,83.0
1092,223.0474236875,223.2692545625,71.0,83.0
1093,223.2586911875,223.7481275625,76.0,90.0
1094,223.6812261875,223.9840429375,64.0,90.0
1095,223.8924936875,223.996366875,68.0,89.0
1096,223.4699586875,224.221718875,59.0,76.0
1097,224.1037611875,224.3502399375,64.0,88.0
1098,224.1037611875,224.404817375,68.0,88.0
1099,223.2586911875,224.55622575,52.0,93.0
1100,224.3150286875,224.619606,59.0,82.0
1101,224.1037611875,224.6284088125,71.0,88.0
1102,224.5262961875,224.8326340625,64.0,89.0
1103,224.7375636875,224.904817125,68.0,93.0
1104,225.3713661875,225.7622110625,61.0,83.0
1105,225.5826336875,225.8291124375,64.0,86.0
1106,225.79390118749998,226.0755911875,68.0,86.0
1107,226.0051686875,226.4629149375,61.0,85.0
1108,224.9488311875,226.468196625,49.0,92.0
1109,225.1600986875,226.5227740625,56.0,77.0
1110,226.2164361875,226.5403796875,64.0,78.0
1111,226.42770368749999,226.940027375,68.0,76.0
1112,227.2727736875,227.39777362499999,64.0,77.0
1113,227.0615061875,227.4030553125,61.0,89.0
1114,226.8502386875,227.6178439375,56.0,74.0
1115,227.4840411875,227.72523825,61.0,82.0
1116,226.6389711875,227.8220691875,49.0,85.0
1117,227.6953086875,227.8361536875,56.0,81.0
1118,227.4840411875,227.89249168749998,68.0,89.0
1119,227.4840411875,227.9012945,64.0,92.0
1120,227.9065761875,228.225238,61.0,89.0
1121,228.1178436875,228.278054875,64.0,84.0
1122,228.7516461875,229.2093924375,57.0,89.0
1123,228.9629136875,229.2446036875,61.0,89.0
1124,229.17418118749998,229.468195125,64.0,88.0
1125,229.3854486875,229.8396738125,69.0,89.0
1126,228.5403786875,229.841434375,52.0,81.0
1127,228.3291111875,229.855518875,45.0,89.0
1128,229.5967161875,230.1953074375,57.0,88.0
1129,229.80798368749998,230.4453073125,61.0,95.0
1130,230.0192511875,230.68298325,64.0,88.0
1131,230.44178618749999,230.996363375,57.0,82.0
1132,230.6530536875,231.0298140625,61.0,90.0
1133,230.8643211875,231.1671379375,64.0,89.0
1134,230.2305186875,231.20410975,52.0,77.0
1135,230.0192511875,231.27277168749998,45.0,89.0
1136,231.0755886875,231.57030675,69.0,88.0
1137,231.2868561875,231.6213630625,57.0,82.0
1138,231.4981236875,232.0544614375,61.0,90.0
1139,232.1319261875,232.53509499999998,57.0,84.0
1140,232.3431936875,232.5791090625,61.0,94.0
1141,231.7093911875,232.73932025,42.0,89.0
1142,231.9206586875,232.74812306249999,49.0,75.0
1143,232.5544611875,232.97875675,66.0,89.0
1144,232.7657286875,233.144249625,57.0,89.0
1145,232.9769961875,233.249883375,61.0,90.0
1146,233.18826368749998,233.52981281249998,66.0,82.0
1147,233.82206618749998,234.2446011875,59.0,90.0
1148,234.0333336875,234.2692490625,63.0,93.0
1149,233.6107986875,234.3361504375,54.0,75.0
1150,234.2446011875,234.52805175,51.0,75.0
1151,234.2446011875,234.93650225,66.0,93.0
1152,234.8784036875,235.10903737499999,59.0,89.0
1153,234.6671361875,235.1143190625,54.0,75.0
1154,233.3995311875,235.165375375,47.0,92.0
1155,235.0896711875,235.2833330625,68.0,89.0
1156,235.3009386875,235.5474174375,64.0,84.0
1157,235.5122061875,235.6917835625,68.0,80.0
1158,235.7234736875,235.92241725,64.0,82.0
1159,235.9347411875,236.23227624999998,64.0,82.0
1160,235.9347411875,236.3291071875,71.0,86.0
1161,236.3572761875,236.6072760625,68.0,87.0
1162,235.0896711875,236.644247875,52.0,90.0
1163,235.3009386875,236.6600929375,59.0,82.0
1164,236.5685436875,236.813261875,64.0,88.0
1165,236.7798111875,237.137205375,76.0,90.0
1166,236.9910786875,237.2199518125,64.0,93.0
1167,237.20234618749998,237.41537424999999,68.0,82.0
1168,237.4136136875,237.55621925,64.0,88.0
1169,237.6248811875,237.68297975,64.0,83.0
1170,237.6248811875,237.8467120625,68.0,89.0
1171,236.7798111875,237.9012895,52.0,93.0
1172,237.6248811875,237.9136134375,59.0,85.0
1173,237.6248811875,238.0016415625,71.0,88.0
1174,237.83614868749999,238.0615006875,64.0,88.0
1175,238.0474161875,238.28861325,68.0,85.0
1176,238.2586836875,238.46466949999999,64.0,86.0
1177,238.4699511875,238.85551437499998,68.0,82.0
1178,238.8924861875,239.2534015,64.0,95.0
1179,239.1037536875,239.34495075,68.0,90.0
1180,239.3150211875,239.61255624999998,73.0,89.0
1181,238.4699511875,239.9523448125,49.0,86.0
1182,239.5262886875,239.996358875,64.0,95.0
1183,239.7375561875,240.017485625,68.0,92.0
1184,238.6812186875,240.06326024999998,56.0,74.0
1185,239.9488236875,240.2058658125,73.0,82.0
1186,240.1600911875,240.651288125,68.0,86.0
1187,240.58262618749998,240.9435415,64.0,90.0
1188,240.7938936875,240.96466825,68.0,88.0
1189,240.3713586875,241.207625875,56.0,83.0
1190,240.1600911875,241.2234709375,49.0,94.0
1191,241.0051611875,241.327344125,73.0,94.0
1192,241.21642868749998,241.461146875,64.0,90.0
1193,241.4276961875,241.6424848125,68.0,89.0
1194,241.6389636875,241.848470625,64.0,84.0
1195,241.8502311875,242.2375549375,69.0,79.0
1196,242.2727661875,242.5614984375,64.0,91.0
1197,242.4840336875,242.71114624999998,69.0,81.0
1198,242.6953011875,242.93649825,71.0,88.0
1199,242.9065686875,243.123117875,69.0,84.0
1200,242.0614986875,243.348469875,52.0,82.0
1201,241.8502311875,243.351991,45.0,88.0
1202,243.1178361875,243.4224135,64.0,89.0
1203,243.3291036875,243.57734299999998,69.0,79.0
1204,243.5403711875,244.0051596875,73.0,88.0
1205,243.9629061875,244.27980743749998,64.0,91.0
1206,244.1741736875,244.46818762499998,69.0,84.0
1207,244.3854411875,244.6618495,71.0,84.0
1208,244.59670868749998,244.7974128125,69.0,90.0
1209,243.7516386875,244.91360993749998,52.0,83.0
1210,243.5403711875,244.961145125,45.0,89.0
1211,244.8079761875,245.1319196875,64.0,82.0
1212,245.0192436875,245.2692435625,69.0,71.0
1213,245.23051118749999,245.862553125,71.0,84.0
1214,245.6530461875,246.0262854375,59.0,84.0
1215,245.8643136875,246.0896656875,63.0,88.0
1216,245.4417786875,246.1283980625,54.0,45.0
1217,246.0755811875,246.489313375,66.0,105.0
1218,245.23051118749999,246.76044,47.0,89.0
1219,246.2868486875,246.78156675,54.0,83.0
1220,246.4981161875,246.820299125,59.0,94.0
1221,246.7093836875,246.83790475,63.0,92.0
1222,246.9206511875,247.03508775,63.0,81.0
1223,246.9206511875,247.468186125,71.0,88.0
1224,247.5544536875,247.6847353125,63.0,92.0
1225,247.3431861875,247.7305099375,59.0,92.0
1226,247.1319186875,247.834383125,54.0,82.0
1227,247.7657211875,248.07734075,66.0,94.0
1228,247.97698868749998,248.144242125,54.0,83.0
1229,246.9206511875,248.1530449375,47.0,90.0
1230,248.1882561875,248.432974375,59.0,89.0
1231,248.3995236875,248.552692625,63.0,88.0
1232,248.61079118749998,249.003396625,68.0,90.0
1233,249.2445936875,249.3854386875,68.0,92.0
1234,249.0333261875,249.404804875,64.0,87.0
1235,249.4558611875,249.73403006249998,71.0,83.0
1236,249.6671286875,250.10022706249998,64.0,89.0
1237,249.8783961875,250.1495228125,68.0,90.0
1238,248.61079118749998,250.16008618749999,52.0,93.0
1239,248.8220586875,250.20938193749998,59.0,83.0
1240,250.0896636875,250.3114945625,71.0,83.0
1241,250.3009311875,250.7903675625,76.0,90.0
1242,250.7234661875,251.02628293749999,64.0,90.0
1243,250.9347336875,251.038606875,68.0,89.0
1244,250.5121986875,251.263958875,59.0,76.0
1245,251.1460011875,251.39247993749998,64.0,88.0
1246,251.1460011875,251.44705737499999,68.0,88.0
1247,250.3009311875,251.59846575,52.0,93.0
1248,251.3572686875,251.661846,59.0,82.0
1249,251.1460011875,251.6706488125,71.0,88.0
1250,251.5685361875,251.8748740625,64.0,89.0
1251,251.7798036875,251.947057125,68.0,93.0
1252,252.4136061875,252.8044510625,61.0,83.0
1253,252.62487368749998,252.8713524375,64.0,86.0
1254,252.8361411875,253.1178311875,68.0,86.0
1255,253.0474086875,253.5051549375,61.0,85.0
1256,251.99107118749998,253.51043662499998,49.0,92.0
1257,252.2023386875,253.56501406249998,56.0,77.0
1258,253.2586761875,253.5826196875,64.0,78.0
1259,253.4699436875,253.982267375,68.0,76.0
1260,254.3150136875,254.5967036875,63.0,93.0
1261,254.1037461875,254.6213515625,59.0,91.0
1262,253.8924786875,254.6354360625,54.0,65.0
1263,254.5262811875,255.0121964375,71.0,85.0
1264,254.9488161875,255.341421625,59.0,102.0
1265,255.1600836875,255.348463875,63.0,90.0
1266,254.7375486875,255.37311175,54.0,87.0
1267,253.6812111875,255.4276891875,47.0,88.0
1268,255.7938861875,256.2516324375,57.0,89.0
1269,256.0051536875,256.2868436875,61.0,89.0
1270,256.2164211875,256.510435125,64.0,88.0
1271,256.4276886875,256.8819138125,69.0,89.0
1272,255.5826186875,256.883674375,52.0,81.0
1273,255.37135118749998,256.897758875,45.0,89.0
1274,256.6389561875,257.2375474375,57.0,88.0
1275,256.8502236875,257.4875473125,61.0,95.0
1276,257.0614911875,257.72522325,64.0,88.0
1277,257.4840261875,258.038603375,57.0,82.0
1278,257.6952936875,258.0720540625,61.0,90.0
1279,257.9065611875,258.2093779375,64.0,89.0
1280,257.2727586875,258.24634975,52.0,77.0
1281,257.0614911875,258.3150116875,45.0,89.0
1282,258.1178286875,258.61254675,69.0,88.0
1283,258.3290961875,258.6636030625,57.0,82.0
1284,258.5403636875,259.0967014375,61.0,90.0
1285,259.1741661875,259.577335,57.0,84.0
1286,259.3854336875,259.6213490625,61.0,94.0
1287,258.7516311875,259.78156025,42.0,89.0
1288,258.9628986875,259.7903630625,49.0,75.0
1289,259.5967011875,260.02099675,66.0,89.0
1290,259.8079686875,260.186489625,57.0,89.0
1291,260.0192361875,260.292123375,61.0,90.0
1292,260.2305036875,260.5720528125,66.0,82.0
1293,260.8643061875,261.2868411875,59.0,90.0
1294,261.07557368749997,261.3114890625,63.0,93.0
1295,260.6530386875,261.3783904375,54.0,75.0
1296,261.2868411875,261.57029175,51.0,75.0
1297,261.2868411875,261.97874225,66.0,93.0
1298,261.9206436875,262.151277375,59.0,89.0
1299,262.1319111875,262.151277375,59.0,85.0
1300,261.70937618749997,262.1565590625,54.0,75.0
1301,260.4417711875,262.207615375,47.0,92.0
1302,262.1319111875,262.63015037499997,64.0,84.0
1303,262.1319111875,262.6600799375,68.0,87.0
1304,262.5544461875,262.862544625,59.0,91.0
1305,262.9769811875,263.07557268749997,64.0,86.0
1306,262.9769811875,263.11958675,68.0,90.0
1307,263.8220511875,263.97874125,64.0,86.0
1308,263.8220511875,264.02099475,68.0,86.0
1309,264.2445861875,264.4805015625,59.0,83.0
1310,262.1319111875,264.721698625,40.0,80.0
1311,264.6671211875,265.1424730625,68.0,93.0
1312,264.6671211875,265.158318125,64.0,92.0
1313,265.5121911875,265.693529125,61.0,86.0
1314,265.5121911875,266.19000775,64.0,89.0
1315,265.9347261875,266.2269795625,61.0,77.0
1316,266.3572611875,266.5931765625,61.0,90.0
1317,266.3572611875,267.052683375,64.0,87.0
1318,266.7797961875,267.070289,61.0,78.0
1319,267.2023311875,267.3431761875,61.0,78.0
1320,267.2023311875,267.8185280625,64.0,76.0
1321,267.6248661875,267.8326125625,61.0,67.0
1322,268.0474011875,268.228739125,61.0,90.0
1323,265.5121911875,268.278034875,45.0,91.0
1324,268.0474011875,268.37134468749997,69.0,89.0
1325,268.0474011875,268.454091125,64.0,91.0
1326,268.46993618749997,268.5579643125,61.0,79.0
1327,268.8924711875,269.369583625,68.0,90.0
1328,268.8924711875,269.425921625,64.0,86.0
1329,269.3150061875,269.7938791875,59.0,77.0
1330,269.73754118749997,269.9241608125,64.0,79.0
1331,269.73754118749997,269.9417664375,68.0,83.0
1332,270.1600761875,270.41535775,59.0,66.0
1333,270.5826111875,270.7445829375,68.0,78.0
1334,270.5826111875,271.12310387499997,64.0,83.0
1335,271.0051461875,271.2234559375,59.0,71.0
1336,271.4276811875,271.609019125,59.0,91.0
1337,268.8924711875,271.6530331875,40.0,91.0
1338,271.4276811875,271.8607795625,68.0,91.0
1339,271.4276811875,271.9206386875,64.0,92.0
1340,271.8502161875,271.9857795,59.0,84.0
1341,272.2727511875,272.517469375,61.0,81.0
1342,272.2727511875,272.8572579375,69.0,83.0
1343,272.2727511875,272.883666375,64.0,87.0
1344,272.6952861875,272.93472268749997,61.0,70.0
1345,273.1178211875,273.3290886875,64.0,83.0
1346,273.1178211875,273.3660605,69.0,81.0
1347,273.5403561875,273.7885955,61.0,78.0
1348,273.9628911875,274.1248629375,64.0,85.0
1349,273.9628911875,274.193524875,69.0,82.0
1350,274.3854261875,274.5209895,61.0,63.0
1351,274.8079611875,274.9664118125,61.0,90.0
1352,274.8079611875,274.9769751875,64.0,96.0
1353,274.8079611875,275.0192286875,69.0,93.0
1354,272.2727511875,275.0368343125,45.0,88.0
1355,276.137185875,276.4030308125,52.0,80.0
1356,276.313242125,276.4276786875,54.0,85.0
1357,276.5051434375,277.8959878125,56.0,78.0
1358,276.7128898125,277.911832875,59.0,81.0
1359,276.94352349999997,277.97873425,64.0,73.0
1360,275.9593690625,279.059719625,47.0,82.0
1361,275.73929875,279.2815505,40.0,90.0
