,start,end,pitch,velocity
0,15.787960737499999,15.974669433333332,57.0,98.0
1,16.1677072375,16.430365233333333,57.0,98.0
2,16.5474537375,16.792706685416665,60.0,102.0
3,16.9272002375,17.10283299375,60.0,100.0
4,17.3069467375,17.52055414375,65.0,107.0
5,17.6866932375,18.056946075,65.0,102.0
6,18.066439737499998,18.270553481249998,64.0,98.0
7,18.4461862375,18.729413835416665,64.0,107.0
8,18.8259327375,19.042704697916665,62.0,100.0
9,19.2056792375,19.457261293749998,57.0,89.0
10,19.5854257375,19.990488670833333,62.0,100.0
11,21.8639047375,22.093334914583334,62.0,96.0
12,22.2436512375,22.506309233333333,62.0,100.0
13,22.6233977375,22.887638010416666,64.0,104.0
14,23.0031442375,23.234156691666666,64.0,102.0
15,23.3828907375,23.58700448125,69.0,113.0
16,23.762637237499998,23.984156029166666,69.0,113.0
17,24.142383737499998,24.348079758333334,64.0,110.0
18,24.5221302375,24.740484475,64.0,107.0
19,24.9018767375,25.21991443125,60.0,100.0
20,25.2816232375,25.545863510416666,57.0,100.0
21,25.6613697375,26.004723864583333,60.0,104.0
22,27.9398487375,28.178772577083333,57.0,96.0
23,28.3195952375,28.5569368,57.0,104.0
24,28.6993417375,28.897126372916667,60.0,98.0
25,29.0790882375,29.265796933333334,60.0,98.0
26,29.4588347375,29.66927758958333,65.0,104.0
27,29.838581237499998,30.045859535416664,65.0,107.0
28,30.218327737499997,30.417694649999998,64.0,100.0
29,30.5980742375,30.854403124999997,64.0,107.0
30,30.9778207375,31.19142814375,62.0,108.0
31,31.3575672375,31.558516427083333,57.0,94.0
32,31.7373137375,32.0980729125,62.0,108.0
33,32.8765532375,33.07908470416667,62.0,93.0
34,33.2562997375,33.530033672916666,64.0,107.0
35,34.0157927375,34.32433676875,63.0,109.0
36,34.395539237499996,34.69142505208333,64.0,107.0
37,34.7752857375,35.196171441666664,69.0,110.0
38,35.5347787375,36.050601066666665,67.0,113.0
39,36.2942717375,36.77211941666666,65.0,110.0
40,40.0917367375,40.27844543333333,57.0,98.0
41,40.471483237499996,40.73414123333333,57.0,98.0
42,40.8512297375,41.09648268541667,60.0,102.0
43,41.2309762375,41.40660899375,60.0,100.0
44,41.6107227375,41.82433014375,65.0,107.0
45,41.9904692375,42.360722075,65.0,102.0
46,42.3702157375,42.57432948125,64.0,98.0
47,42.7499622375,43.033189835416664,64.0,107.0
48,43.129708737499996,43.34648069791667,62.0,100.0
49,43.5094552375,43.76103729375,57.0,89.0
50,43.889201737499995,44.29426467083333,62.0,100.0
51,46.1676807375,46.39711091458333,62.0,96.0
52,46.547427237499996,46.81008523333333,62.0,100.0
53,46.9271737375,47.191414010416665,64.0,104.0
54,47.3069202375,47.53793269166667,64.0,102.0
55,47.6866667375,47.89078048125,69.0,113.0
56,48.0664132375,48.28793202916666,69.0,113.0
57,48.4461597375,48.65185575833333,64.0,110.0
58,48.8259062375,49.044260475,64.0,107.0
59,49.5853992375,49.849639510416665,57.0,100.0
60,49.965145737499995,50.30849986458333,60.0,104.0
61,52.2436247375,52.48254857708333,57.0,96.0
62,52.623371237499995,52.8607128,57.0,104.0
63,53.0031177375,53.200902372916666,60.0,98.0
64,53.3828642375,53.56957293333333,60.0,98.0
65,53.7626107375,53.97305358958333,65.0,104.0
66,54.1423572375,54.34963553541667,65.0,107.0
67,54.5221037375,54.72147065,64.0,100.0
68,54.9018502375,55.158179125,64.0,107.0
69,55.281596737499996,55.49520414375,65.0,108.0
70,55.6613432375,55.86229242708333,57.0,94.0
71,56.041089737499995,56.4018489125,62.0,108.0
72,56.8005827375,57.003114204166664,62.0,93.0
73,57.1803292375,57.45406317291666,65.0,107.0
74,57.5600757375,57.833809672916665,64.0,107.0
75,58.3195687375,58.62811276875,63.0,109.0
76,58.699315237499995,58.99520105208333,64.0,107.0
77,59.0790617375,59.49994744166666,69.0,110.0
78,59.8385547375,60.354377066666665,67.0,113.0
79,60.598047737499996,61.07589541666666,65.0,110.0
80,62.4967802375,62.7626027875,69.0,114.0
81,62.8765267375,63.10121008333333,67.0,96.0
82,63.0663999875,63.444564210416665,65.0,98.0
83,63.6360197375,63.901842287499996,64.0,108.0
84,64.0157662375,64.1866521625,62.0,102.0
85,64.3955127375,64.60279103541666,62.0,96.0
86,64.7752592375,64.97779070416667,62.0,96.0
87,65.15500573749999,65.39709413125,62.0,102.0
88,65.5347522375,65.79582795625,62.0,96.0
89,65.9144987375,66.36861226041667,69.0,110.0
90,66.6739917375,67.02209269583334,67.0,114.0
91,68.5727242375,68.90974925625,67.0,114.0
92,68.9524707375,69.04107825416666,64.0,102.0
93,69.1423439875,69.4176602,64.0,104.0
94,69.7119637375,70.1012039,62.0,102.0
95,70.0917102375,70.37810238958333,60.0,98.0
96,70.47145673749999,70.61702622916667,60.0,110.0
97,70.8512032375,71.10911440208334,60.0,108.0
98,71.2309497375,71.46512674583333,57.0,98.0
99,71.6106962375,71.80848087291666,60.0,110.0
100,71.9904427375,72.40974616458332,67.0,113.0
101,72.7499357375,73.06006204583333,65.0,113.0
102,74.2689217375,74.51892151666667,65.0,100.0
103,74.6486682375,74.97936414791667,65.0,108.0
104,75.0284147375,75.29740184166667,60.0,100.0
105,75.4081612375,75.664490125,60.0,104.0
106,75.78790773749999,76.04107207083334,53.0,104.0
107,76.1676542375,76.31480600625,57.0,102.0
108,76.5474007375,76.80531190208333,55.0,91.0
109,76.9271472375,77.12176731875,55.0,102.0
110,77.30689373749999,77.69613389999999,62.0,108.0
111,78.8258797375,79.34486662083333,62.0,108.0
112,79.5853727375,79.73252450625,62.0,108.0
113,79.96511923749999,80.12809377708334,62.0,110.0
114,80.3448657375,80.52049849375,62.0,110.0
115,80.7246122375,80.904991825,65.0,116.0
116,81.1043587375,81.34961168541666,62.0,113.0
117,81.4841052375,81.75309234166666,65.0,116.0
118,81.8638517375,82.07429458958333,62.0,113.0
119,82.2435982375,82.41923099374999,65.0,113.0
120,82.62334473749999,82.78473699999999,65.0,114.0
121,83.0030912375,83.23252141458333,65.0,117.0
122,83.3828377375,83.6296729625,65.0,107.0
123,83.7625842375,84.02524223333333,69.0,114.0
124,84.1423307375,84.54422911666667,67.0,91.0
125,84.9018237375,85.23410192499999,67.0,114.0
126,86.4208097375,86.66448040833333,60.0,108.0
127,86.8005562375,87.05213829374999,69.0,114.0
128,87.1803027375,87.40023925208332,67.0,116.0
129,87.5600492375,87.72302377708333,65.0,107.0
130,87.93979573749999,88.15340314375,67.0,116.0
131,88.3195422375,88.62966854583333,69.0,117.0
132,88.6992887375,88.98726316666666,60.0,107.0
133,89.0790352375,89.35751600416667,67.0,113.0
134,89.45878173749999,89.71669290208332,69.0,116.0
135,90.2182747375,90.48884411875,60.0,107.0
136,90.59802123749999,90.83378052291667,67.0,116.0
137,90.9777677375,91.27523582916666,69.0,119.0
138,91.7372607375,91.92396943333333,67.0,113.0
139,92.11700723749999,92.28631088541667,67.0,113.0
140,92.4967537375,92.5916903625,69.0,110.0
141,92.68662698749999,92.91289261041666,70.0,116.0
142,93.25624673749999,93.5790312625,69.0,117.0
143,93.6359932375,93.96036003958334,67.0,114.0
144,94.0157397375,94.26415723958333,64.0,114.0
145,94.3954862375,94.61067592083333,65.0,114.0
146,94.77523273749999,94.99833380625,57.0,107.0
147,95.1549792375,95.3923208,62.0,110.0
148,95.5347257375,95.74200403541667,65.0,113.0
149,96.2942187375,96.52048436041666,57.0,110.0
150,96.6739652375,96.86858531875,62.0,114.0
151,97.0537117375,97.33219250416667,64.0,119.0
152,97.8132047375,98.02048303541666,64.0,114.0
153,98.1929512375,98.36700171666666,64.0,110.0
154,98.5726977375,98.6676343625,69.0,113.0
155,98.7625709875,99.07269729583334,72.0,116.0
156,99.3321907375,99.62965882916666,69.0,114.0
157,99.7119372375,100.08693690625,65.0,114.0
158,100.09168373749999,100.423961925,64.0,108.0
159,100.4714302375,100.75782238958332,62.0,117.0
160,100.8511767375,100.94927791666666,70.0,116.0
161,101.0410499875,101.32744213958333,70.0,119.0
162,102.3701627375,102.80054210416667,72.0,114.0
163,102.74990923749999,103.04895960625,70.0,119.0
164,103.1296557375,103.29895938541667,69.0,116.0
165,103.5094022375,103.74199696875,60.0,116.0
166,103.8891487375,103.99990813333334,69.0,114.0
167,104.0790219875,104.38123691041666,69.0,117.0
168,105.40813473749999,105.71984332291666,70.0,119.0
169,105.7878812375,106.08693160624999,69.0,114.0
170,106.1676277375,106.40813385416666,65.0,113.0
171,106.5473742375,106.73566521041667,59.0,110.0
172,106.92712073749999,107.01731053124999,67.0,114.0
173,107.1169939875,107.3258545625,67.0,114.0
174,108.4461067375,108.78154947916666,67.0,119.0
175,108.8258532375,109.03787836666666,65.0,114.0
176,109.2055997375,109.45876407083333,69.0,119.0
177,109.9650927375,110.21983934791666,67.0,113.0
178,110.3448392375,110.54895298125,65.0,114.0
179,110.72458573749999,110.99515511874999,69.0,117.0
180,111.4840787375,111.87173662291666,67.0,116.0
181,112.24357173749999,112.63597645416667,65.0,116.0
182,113.0030647375,113.22616580625,60.0,114.0
183,113.3828112375,113.64705151041666,67.0,113.0
184,113.76255773749999,114.04894988958333,69.0,116.0
185,114.5220507375,114.71825309583333,60.0,114.0
186,114.90179723749999,115.120151475,67.0,116.0
187,115.2815437375,115.53945490208334,69.0,114.0
188,116.0410367375,116.20717583125,67.0,113.0
189,116.42078323749999,116.62331470416666,67.0,116.0
190,116.8005297375,116.980909325,69.0,114.0
191,117.1802762375,117.37964314999999,70.0,119.0
192,117.56002273749999,117.84008578125,72.0,116.0
193,117.9397692375,118.24198416041666,67.0,107.0
194,118.3195157375,118.56951551666667,65.0,114.0
195,118.6992622375,118.94135063124999,65.0,114.0
196,119.07900873749999,119.42236286458333,57.0,102.0
197,119.4587552375,119.71191957083333,62.0,108.0
198,119.8385017375,120.14071666041666,65.0,117.0
199,120.5979947375,120.84799451666666,57.0,110.0
200,120.9777412375,121.19451319791666,62.0,116.0
201,121.3574877375,121.56160148125,65.0,116.0
202,122.1169807375,122.34799319166666,64.0,114.0
203,122.4967272375,122.73090424583333,64.0,117.0
204,122.87647373749999,123.00938501249999,69.0,114.0
205,123.0663469875,123.25780251458333,72.0,113.0
206,123.6359667375,123.99039680416666,69.0,114.0
207,124.0157132375,124.40337112291667,65.0,116.0
208,124.39545973749999,124.73090247916666,64.0,113.0
209,124.7752062375,124.993560475,62.0,116.0
210,125.1549527375,125.2498893625,70.0,116.0
211,125.3448259875,125.69450922291666,70.0,113.0
212,126.6739387375,127.03944474375,72.0,110.0
213,127.05368523749999,127.36381154583333,70.0,119.0
214,127.4334317375,127.63912775833333,69.0,113.0
215,127.8131782375,128.06317801666665,60.0,110.0
216,128.1929247375,128.29419047083334,69.0,110.0
217,128.3827979875,128.58691173124998,69.0,114.0
218,129.7119107375,130.03311298541666,70.0,113.0
219,130.0916572375,130.47615056875,69.0,114.0
220,130.4714037375,130.71507440833332,65.0,116.0
221,130.8511502375,131.07266902916666,59.0,113.0
222,131.2308967375,131.42551681875,67.0,116.0
223,131.4207699875,131.42551681875,67.0,116.0
224,134.2688687375,134.59640009375,69.0,113.0
225,134.6486152375,134.88120996875,65.0,114.0
226,135.0283617375,135.22931092708333,65.0,114.0
227,135.4081082375,135.89861413333333,69.0,117.0
228,136.1676012375,136.63120842291667,67.0,116.0
229,136.9270942375,137.28310658125,65.0,119.0
230,149.4587287375,149.64543743333334,57.0,98.0
231,149.8384752375,150.10113323333331,57.0,98.0
232,150.2182217375,150.35904439791665,60.0,102.0
233,150.4080949875,150.58372774375,60.0,100.0
234,150.9777147375,151.19132214375,65.0,107.0
235,151.3574612375,151.727714075,65.0,102.0
236,151.7372077375,151.94132148125,64.0,98.0
237,152.11695423749998,152.40018183541667,64.0,107.0
238,152.4967007375,152.71347269791667,62.0,100.0
239,152.8764472375,153.12802929375,57.0,89.0
240,153.25619373749998,153.66125667083332,62.0,100.0
241,155.5346727375,155.76410291458333,62.0,96.0
242,155.9144192375,156.17707723333334,62.0,100.0
243,156.29416573749998,156.55840601041666,64.0,104.0
244,156.6739122375,156.90492469166665,64.0,102.0
245,157.0536587375,157.25777248125,69.0,113.0
246,157.43340523749998,157.65492402916666,69.0,113.0
247,157.8131517375,158.01884775833332,64.0,110.0
248,158.1928982375,158.411252475,64.0,107.0
249,158.57264473749999,158.89068243124999,60.0,100.0
250,158.9523912375,159.21663151041665,57.0,100.0
251,159.3321377375,159.67549186458334,60.0,104.0
252,161.61061673749998,161.84954057708333,57.0,96.0
253,161.9903632375,162.2277048,57.0,104.0
254,162.3701097375,162.49985645833334,60.0,98.0
255,162.5599829875,162.74669168333332,60.0,98.0
256,163.1296027375,163.34004558958333,65.0,104.0
257,163.5093492375,163.71662753541665,65.0,107.0
258,163.88909573749999,164.08846265,67.0,100.0
259,164.2688422375,164.52517112499999,64.0,107.0
260,164.6485887375,164.86219614375,65.0,108.0
261,165.0283352375,165.22928442708331,57.0,94.0
262,165.4080817375,165.7688409125,62.0,108.0
263,166.1675747375,166.37010620416666,62.0,93.0
264,166.5473212375,166.74985270416667,65.0,93.0
265,166.92706773749998,167.20080167291667,64.0,107.0
266,167.6865607375,167.99510476875,63.0,109.0
267,168.06630723749998,168.36219305208334,64.0,107.0
268,168.4460537375,168.86693944166666,69.0,110.0
269,169.2055467375,169.72136906666665,67.0,113.0
270,169.9650397375,170.44288741666665,65.0,110.0
271,171.8637722375,172.1295947875,69.0,114.0
272,172.24351873749998,172.46820208333332,67.0,96.0
273,172.4333919875,172.69446770624998,65.0,98.0
274,173.0030117375,173.2688342875,64.0,108.0
275,173.38275823749998,173.5536441625,62.0,102.0
276,173.7625047375,173.96978303541667,62.0,96.0
277,174.1422512375,174.34478270416665,62.0,96.0
278,174.5219977375,174.76408613125,62.0,102.0
279,174.9017442375,175.16281995625,62.0,96.0
280,175.2814907375,175.73560426041666,69.0,110.0
281,176.0409837375,176.38908469583333,67.0,114.0
282,177.9397162375,178.27674125625,67.0,114.0
283,178.3194627375,178.40807025416666,64.0,102.0
284,178.50933598749998,178.78465219999998,64.0,104.0
285,179.0789557375,179.46819589999998,62.0,102.0
286,179.4587022375,179.74509438958333,60.0,98.0
287,179.8384487375,179.98401822916665,60.0,110.0
288,180.2181952375,180.47610640208333,60.0,108.0
289,180.59794173749998,180.83211874583333,57.0,98.0
290,180.9776882375,181.17547287291666,60.0,110.0
291,181.3574347375,181.77673816458332,67.0,113.0
292,182.1169277375,182.42705404583333,65.0,113.0
293,183.6359137375,183.88591351666665,65.0,100.0
294,184.0156602375,184.34635614791665,65.0,108.0
295,184.3954067375,184.66439384166665,60.0,100.0
296,184.7751532375,185.031482125,60.0,104.0
297,185.1548997375,185.40806407083332,53.0,104.0
298,185.5346462375,185.68179800625,57.0,102.0
299,185.91439273749998,186.1723039020833,55.0,91.0
300,186.2941392375,186.48875931875,55.0,102.0
301,186.6738857375,187.0631259,62.0,108.0
302,188.19287173749998,188.71185862083334,62.0,108.0
303,188.9523647375,189.09951650624998,62.0,108.0
304,189.3321112375,189.49508577708332,62.0,110.0
305,189.7118577375,189.88749049375,62.0,110.0
306,190.0916042375,190.271983825,65.0,116.0
307,190.4713507375,190.71660368541666,62.0,113.0
308,190.8510972375,191.12008434166665,65.0,116.0
309,191.23084373749998,191.4412865895833,62.0,113.0
310,191.6105902375,191.78622299375,65.0,113.0
311,191.9903367375,192.151729,65.0,114.0
312,192.37008323749998,192.59951341458333,65.0,117.0
313,192.7498297375,192.9966649625,65.0,107.0
314,193.1295762375,193.39223423333334,69.0,114.0
315,193.50932273749999,193.91122111666667,67.0,91.0
316,194.2688157375,194.601093925,67.0,114.0
317,195.7878017375,196.03147240833331,60.0,108.0
318,196.1675482375,196.41913029375,69.0,114.0
319,196.54729473749998,196.76723125208332,67.0,116.0
320,196.9270412375,197.09001577708332,65.0,107.0
321,197.3067877375,197.52039514375,67.0,116.0
322,197.68653423749998,197.99666054583332,69.0,117.0
323,198.0662807375,198.35425516666666,60.0,107.0
324,198.4460272375,198.72450800416667,67.0,113.0
325,198.8257737375,199.08368490208332,69.0,116.0
326,199.5852667375,199.85583611875,60.0,107.0
327,199.9650132375,200.20077252291665,67.0,116.0
328,200.3447597375,200.64222782916667,69.0,119.0
329,201.1042527375,201.29096143333334,67.0,113.0
330,201.4839992375,201.65330288541665,67.0,113.0
331,201.86374573749998,201.95868236249999,69.0,110.0
332,202.0536189875,202.27988461041667,70.0,116.0
333,202.6232387375,202.9460232625,69.0,117.0
334,203.00298523749998,203.32735203958333,67.0,114.0
335,203.3827317375,203.63114923958332,64.0,114.0
336,203.7624782375,203.9776679208333,65.0,114.0
337,204.1422247375,204.36532580624998,57.0,107.0
338,204.5219712375,204.7593128,62.0,110.0
339,204.90171773749998,205.10899603541665,65.0,113.0
340,205.6612107375,205.88747636041666,57.0,110.0
341,206.04095723749998,206.23557731875,62.0,114.0
342,206.4207037375,206.69918450416665,64.0,119.0
343,207.18019673749998,207.38747503541666,64.0,114.0
344,207.5599432375,207.73399371666665,64.0,110.0
345,207.9396897375,208.0346263625,69.0,113.0
346,208.12956298749998,208.43968929583332,72.0,116.0
347,208.6991827375,208.99665082916667,69.0,114.0
348,209.0789292375,209.45392890624998,65.0,114.0
349,209.4586757375,209.790953925,64.0,108.0
350,209.8384222375,210.12481438958332,62.0,117.0
351,210.21816873749998,210.31626991666667,70.0,116.0
352,210.40804198749998,210.69443413958334,70.0,119.0
353,211.7371547375,212.16753410416666,72.0,114.0
354,212.1169012375,212.41595160625,70.0,119.0
355,212.49664773749998,212.66595138541666,69.0,116.0
356,212.8763942375,213.10898896875,60.0,116.0
357,213.2561407375,213.36690013333333,69.0,114.0
358,213.44601398749998,213.74822891041666,69.0,117.0
359,214.7751267375,215.08683532291667,70.0,119.0
360,215.1548732375,215.45392360625,69.0,114.0
361,215.53461973749998,215.77512585416665,65.0,113.0
362,215.9143662375,216.10265721041665,59.0,110.0
363,216.2941127375,216.38430253125,67.0,114.0
364,216.4839859875,216.6928465625,67.0,114.0
365,217.81309873749998,218.14854147916665,67.0,119.0
366,218.1928452375,218.40487036666667,65.0,114.0
367,218.5725917375,218.82575607083334,69.0,119.0
368,219.3320847375,219.58683134791667,67.0,113.0
369,219.71183123749998,219.91594498125,65.0,114.0
370,220.0915777375,220.36214711875,69.0,117.0
371,220.85107073749998,221.23872862291665,67.0,116.0
372,221.6105637375,222.00296845416665,65.0,116.0
373,221.99031023749998,222.38271495416666,69.0,116.0
374,222.3700567375,222.59315780625,60.0,114.0
375,222.7498032375,223.01404351041666,67.0,113.0
376,223.12954973749999,223.41594188958334,69.0,116.0
377,223.8890427375,224.08524509583333,60.0,114.0
378,224.2687892375,224.48714347499998,67.0,116.0
379,224.6485357375,224.90644690208333,69.0,114.0
380,225.4080287375,225.57416783124998,67.0,113.0
381,225.7877752375,225.99030670416667,67.0,116.0
382,226.16752173749998,226.34790132499998,69.0,114.0
383,226.5472682375,226.74663515,70.0,119.0
384,226.9270147375,227.20707778124998,72.0,116.0
385,227.30676123749998,227.60897616041666,67.0,107.0
386,227.6865077375,227.93650751666667,65.0,114.0
387,228.0662542375,228.30834263124999,65.0,114.0
388,228.4460007375,228.78935486458332,57.0,102.0
389,228.8257472375,229.07891157083333,62.0,108.0
390,229.20549373749998,229.50770866041665,65.0,117.0
391,229.9649867375,230.21498651666667,57.0,110.0
392,230.34473323749998,230.56150519791666,65.0,116.0
393,230.7244797375,230.92859348125,64.0,116.0
394,231.48397273749998,231.71498519166667,64.0,114.0
395,231.8637192375,232.0978962458333,64.0,117.0
396,232.2434657375,232.3763770125,69.0,114.0
397,232.43333898749998,232.62479451458333,72.0,113.0
398,233.0029587375,233.35738880416665,69.0,114.0
399,233.3827052375,233.77036312291665,65.0,116.0
400,233.57257848749998,233.90802122916665,64.0,113.0
401,234.1421982375,234.360552475,62.0,116.0
402,234.52194473749998,234.61688136249998,70.0,116.0
403,234.71181798749998,235.06150122291666,70.0,113.0
404,236.0409307375,236.40643674375,72.0,110.0
405,236.4206772375,236.73080354583334,70.0,119.0
406,236.80042373749998,237.0061197583333,69.0,113.0
407,237.1801702375,237.43017001666666,60.0,110.0
408,237.5599167375,237.66118247083332,69.0,110.0
409,237.74978998749998,237.95390373125,69.0,114.0
410,239.0789027375,239.40010498541665,70.0,113.0
411,239.4586492375,239.84314256874998,69.0,114.0
412,239.83839573749998,240.08206640833333,65.0,116.0
413,240.2181422375,240.43966102916667,59.0,113.0
414,240.5978887375,240.68807853125,67.0,116.0
415,240.7877619875,241.0345972125,67.0,116.0
416,242.4966212375,242.82415259375,69.0,113.0
417,242.8763677375,243.20389909374998,65.0,113.0
418,246.6738327375,246.91908568541666,69.0,108.0
419,247.0535792375,247.29408535416667,65.0,104.0
420,247.43332573749998,247.72604699791665,65.0,104.0
421,247.8130722375,248.16592002708333,69.0,116.0
422,248.5725652375,249.07098251875,67.0,113.0
423,249.33205823749998,249.82731096458332,65.0,104.0
