,start,end,pitch,velocity
0,4.0158192375,4.401894845833334,69.0,83.0
1,3.6360727374999997,4.5284770125,60.0,81.0
2,4.3955657375,5.1550587375,64.0,67.0
3,4.7753122375,5.784805016666667,60.0,58.0
4,3.2563262374999997,6.150311022916666,53.0,88.0
5,6.2942982375,6.927209070833333,55.0,87.0
6,6.6740447375,7.373411208333333,62.0,79.0
7,7.4335377375,7.7942969125,55.0,74.0
8,7.0537912375,7.830689285416667,65.0,80.0
9,7.8132842375,8.299043302083334,59.0,72.0
10,9.3322702375,10.166130260416667,48.0,87.0
11,9.712016737499999,10.196193525,55.0,79.0
12,10.0917632375,10.474674291666666,58.0,84.0
13,10.4715097375,10.924040983333333,48.0,86.0
14,10.8512562375,11.275306495833332,52.0,85.0
15,12.749988737499999,12.925621493749999,55.0,84.0
16,12.939861987499999,13.1297352375,57.0,77.0
17,13.1297352375,13.47625391875,60.0,87.0
18,13.5094817375,13.893975068749999,55.0,79.0
19,12.3702422375,14.675619947916665,53.0,85.0
20,13.8892282375,14.7246705375,57.0,76.0
21,16.1677072375,16.553782845833332,69.0,83.0
22,15.787960737499999,16.6803650125,60.0,81.0
23,16.5474537375,17.3069467375,64.0,67.0
24,16.9272002375,17.936693016666666,60.0,58.0
25,15.4082142375,18.302199022916668,53.0,88.0
26,18.4461862375,19.07909707083333,55.0,87.0
27,18.8259327375,19.525299208333333,62.0,79.0
28,19.5854257375,19.946184912499998,55.0,74.0
29,19.2056792375,19.982577285416667,65.0,80.0
30,19.9651722375,20.450931302083333,59.0,72.0
31,21.4841582375,22.318018260416665,48.0,87.0
32,21.8639047375,22.348081524999998,55.0,79.0
33,22.2436512375,22.626562291666666,58.0,84.0
34,22.6233977375,23.075928983333334,48.0,86.0
35,23.0031442375,23.427194495833334,52.0,85.0
36,24.9018767375,25.07750949375,55.0,84.0
37,25.0917499875,25.2816232375,57.0,77.0
38,25.2816232375,25.62814191875,60.0,87.0
39,25.6613697375,26.04586306875,55.0,79.0
40,24.5221302375,26.827507947916665,53.0,85.0
41,26.0411162375,26.8765585375,57.0,76.0
42,26.800609237499998,27.534785804166667,52.0,88.0
43,27.9398487375,29.314847522916665,57.0,42.0
44,28.3195952375,29.86389767083333,62.0,76.0
45,28.6993417375,29.865479947916665,69.0,80.0
46,29.4588347375,30.045859535416664,57.0,68.0
47,27.5601022375,30.09016329375,50.0,82.0
48,29.838581237499998,30.24839100208333,65.0,73.0
49,30.5980742375,33.01262906666666,43.0,68.0
50,30.9778207375,33.01262906666666,50.0,58.0
51,31.3575672375,33.105983414583335,55.0,66.0
52,33.6360462375,36.15344907708333,48.0,77.0
53,34.0157927375,36.164525016666666,55.0,42.0
54,34.7752857375,36.34648688125,67.0,81.0
55,34.395539237499996,36.35756282083333,60.0,68.0
56,35.5347787375,36.490474095833335,64.0,81.0
57,37.4335112375,37.84806783333333,65.0,68.0
58,38.1930042375,38.3449028375,72.0,71.0
59,37.813257737499995,38.905028924999996,69.0,86.0
60,37.053764737499996,39.018952875,60.0,63.0
61,38.9524972375,39.018952875,60.0,73.0
62,36.6740182375,39.08857306666667,53.0,81.0
63,38.9524972375,39.66610420208333,70.0,73.0
64,39.142370487499996,39.80376230833333,65.0,73.0
65,40.471483237499996,40.89395121875,65.0,66.0
66,40.0917367375,41.392368499999996,60.0,67.0
67,40.8512297375,42.03951982708333,69.0,84.0
68,41.6107227375,42.15344377708333,60.0,56.0
69,39.7119902375,42.2373044625,53.0,77.0
70,41.9904692375,42.40977266458333,65.0,84.0
71,42.3702157375,42.74363312916667,69.0,86.0
72,43.5094552375,45.16293478958333,62.0,72.0
73,42.7499622375,45.22147904166666,55.0,83.0
74,43.889201737499995,45.71989632291667,67.0,86.0
75,46.1676807375,47.5157808125,55.0,74.0
76,46.9271737375,48.11546382708333,67.0,91.0
77,46.547427237499996,48.12653976666667,60.0,68.0
78,47.6866667375,48.20407134375,55.0,77.0
79,45.7879342375,48.259451041666665,48.0,86.0
80,48.4461597375,48.82748851458333,60.0,81.0
81,48.0664132375,48.82748851458333,64.0,89.0
82,48.8259062375,50.8575500125,53.0,83.0
83,49.205652737499996,50.87811961458333,60.0,73.0
84,49.5853992375,51.14077761041666,65.0,67.0
85,49.965145737499995,51.15185355,69.0,87.0
86,51.1043852375,51.8828655625,52.0,77.0
87,51.1043852375,51.89077694791666,64.0,84.0
88,51.863878237499996,52.36546007291666,62.0,81.0
89,51.863878237499996,52.42242204791666,65.0,87.0
90,52.623371237499995,52.96197853333333,64.0,81.0
91,52.2436247375,53.59014253541667,57.0,74.0
92,53.0031177375,53.90659795208333,65.0,87.0
93,53.0031177375,53.950901710416666,62.0,83.0
94,51.863878237499996,54.33064821041666,50.0,78.0
95,53.7626107375,54.42242028125,57.0,72.0
96,54.5221037375,54.906597068749996,65.0,88.0
97,54.1423572375,54.961976766666666,62.0,87.0
98,55.281596737499996,56.55532978958333,62.0,73.0
99,56.041089737499995,56.92241807291666,67.0,84.0
100,56.8005827375,57.287924079166665,62.0,73.0
101,54.9018502375,57.42241763125,55.0,83.0
102,57.1803292375,58.308492797916664,67.0,93.0
103,58.3195687375,59.5347575375,55.0,68.0
104,59.0790617375,59.56956763333333,67.0,83.0
105,58.699315237499995,59.74045355833333,60.0,73.0
106,59.4588082375,60.067984914583334,64.0,81.0
107,59.8385547375,60.33697201875,55.0,82.0
108,57.939822237499996,60.427161812499996,48.0,82.0
109,60.2183012375,60.745199506249996,60.0,90.0
110,60.2183012375,61.06165492291667,67.0,87.0
111,60.598047737499996,61.1676674875,64.0,84.0
112,61.7372872375,62.11070462916666,64.0,80.0
113,62.117033737499995,62.53633716458333,65.0,84.0
114,61.357540737499995,62.704058535416664,60.0,72.0
115,62.4967802375,63.01102028958333,69.0,91.0
116,62.8765267375,63.25310868333333,67.0,84.0
117,60.9777942375,63.30848838125,53.0,84.0
118,63.2562732375,63.65184250833333,52.0,83.0
119,63.2562732375,64.00310802083334,67.0,88.0
120,63.2562732375,64.0252599,64.0,91.0
121,64.0157662375,64.71513270833333,65.0,87.0
122,64.0157662375,65.08063871458333,62.0,83.0
123,65.15500573749999,65.56006867083333,60.0,74.0
124,64.7752592375,65.59329648958334,58.0,70.0
125,65.15500573749999,65.99835942291666,65.0,81.0
126,65.5347522375,66.06639733749999,62.0,86.0
127,65.9144987375,66.36070087499999,58.0,78.0
128,64.0157662375,66.63759936458334,46.0,78.0
129,64.3955127375,66.68823223125,53.0,67.0
130,66.6739917375,66.83063716875,58.0,83.0
131,66.2942452375,66.99677626249999,65.0,110.0
132,67.0537382375,67.43664929166667,60.0,76.0
133,67.0537382375,67.56323145833333,67.0,78.0
134,67.0537382375,67.66766174583333,64.0,77.0
135,67.81323123749999,68.21512961666666,62.0,87.0
136,67.4334847375,68.63285076666666,55.0,63.0
137,68.1929777375,69.38126782708333,67.0,98.0
138,68.9524707375,69.46987534375,55.0,67.0
139,67.0537382375,70.12177350208333,48.0,77.0
140,69.3322172375,70.1486722125,64.0,87.0
141,69.7119637375,70.69614008333333,67.0,87.0
142,70.8512032375,71.80531631875,57.0,76.0
143,71.2309497375,72.39234111666667,67.0,87.0
144,70.0917102375,72.68506237708333,45.0,83.0
145,70.47145673749999,72.72620158125,52.0,66.0
146,72.3701892375,72.78632811041666,64.0,93.0
147,71.9904427375,73.10436580416666,57.0,78.0
148,72.7499357375,73.19455559791666,67.0,89.0
149,74.2689217375,74.62176952708333,64.0,90.0
150,73.8891752375,74.68822516458333,62.0,80.0
151,73.5094287375,74.87176930625,57.0,79.0
152,74.6486682375,75.26733857708334,65.0,108.0
153,75.0284147375,75.74360397916666,57.0,83.0
154,73.12968223749999,75.82904694166666,50.0,81.0
155,75.4081612375,75.83854060416667,64.0,100.0
156,75.78790773749999,76.01575563749999,65.0,86.0
157,76.9271472375,77.84012111458333,55.0,72.0
158,77.30689373749999,78.42398135833334,58.0,80.0
159,78.44613323749999,78.84012023125,62.0,56.0
160,76.1676542375,78.8448670625,43.0,80.0
161,78.0663867375,78.86860121875,55.0,73.0
162,76.5474007375,79.23727177916666,50.0,62.0
163,78.8258797375,80.24043544999999,67.0,80.0
164,79.2056262375,80.24360000416667,59.0,83.0
165,80.3448657375,80.48252384375,67.0,54.0
166,79.96511923749999,80.70246035833333,55.0,83.0
167,80.7246122375,81.01733349791667,67.0,84.0
168,80.3448657375,81.12018150833333,62.0,86.0
169,80.7246122375,81.40182682916667,59.0,91.0
170,79.2056262375,81.74201640208334,43.0,81.0
171,79.5853727375,81.7499277875,50.0,68.0
172,81.1043587375,81.97144657916667,55.0,88.0
173,81.4841052375,82.21828180416666,62.0,94.0
174,82.2435982375,82.52682583541666,60.0,76.0
175,82.2435982375,82.85277491458334,64.0,79.0
176,81.8638517375,83.02998994791666,67.0,84.0
177,83.0030912375,83.72777414166666,60.0,82.0
178,83.3828377375,84.04422955833333,62.0,89.0
179,83.3828377375,84.15340667708332,67.0,89.0
180,84.1423307375,84.58378604375,60.0,80.0
181,82.2435982375,84.94296294166666,48.0,82.0
182,84.9018237375,85.03948184375,60.0,71.0
183,84.5220772375,85.196127275,67.0,104.0
184,84.5220772375,85.20878549166666,64.0,92.0
185,82.62334473749999,85.31638033333333,55.0,68.0
186,85.28157023749999,86.10435432083332,67.0,93.0
187,85.28157023749999,86.33694905208333,64.0,91.0
188,86.4208097375,86.85435365833332,62.0,79.0
189,86.0410632375,86.9904294875,60.0,81.0
190,86.8005562375,87.48884676875,64.0,89.0
191,87.1803027375,87.6170112125,60.0,81.0
192,85.28157023749999,87.71985922291667,48.0,87.0
193,85.6613167375,87.71985922291667,55.0,71.0
194,87.5600492375,88.03789691666667,67.0,104.0
195,88.1296689875,88.54897241458333,65.0,64.0
196,88.1296689875,88.57112429375,60.0,38.0
197,88.3195422375,88.69137735208334,69.0,83.0
198,88.6992887375,89.16289592291666,60.0,71.0
199,89.0790352375,89.38599699166666,65.0,87.0
200,89.0790352375,89.43504758125,69.0,88.0
201,89.45878173749999,90.00150277708333,60.0,66.0
202,89.8385282375,90.29105948333333,72.0,91.0
203,89.8385282375,90.4651099625,65.0,88.0
204,90.2182747375,90.95403358125,60.0,74.0
205,88.3195422375,91.04105882083333,53.0,75.0
206,90.9777677375,91.42713442916666,69.0,85.0
207,90.59802123749999,91.42871670625,72.0,88.0
208,90.59802123749999,91.727767075,65.0,89.0
209,92.11700723749999,92.51732333958333,67.0,94.0
210,92.11700723749999,92.55055115833333,64.0,90.0
211,92.4967537375,93.00624695833334,60.0,77.0
212,92.8765002375,93.34327197708333,67.0,96.0
213,92.8765002375,93.36858841041666,62.0,92.0
214,93.25624673749999,93.968271425,60.0,85.0
215,93.6359932375,93.97143597916666,67.0,110.0
216,91.3575142375,94.02998023125,48.0,86.0
217,91.7372607375,94.0347270625,55.0,70.0
218,93.6359932375,94.05529666458332,64.0,104.0
219,94.20561298749999,94.33061287708333,64.0,38.0
220,94.0157397375,94.5094101875,69.0,88.0
221,94.3954862375,94.78630867708333,62.0,82.0
222,94.3954862375,95.3638398125,65.0,87.0
223,95.1549792375,95.96035827291666,62.0,83.0
224,95.5347257375,95.98567470625,64.0,98.0
225,94.77523273749999,96.04263668125,57.0,71.0
226,95.5347257375,96.33694021875,69.0,93.0
227,95.9144722375,96.50466158958334,65.0,83.0
228,96.2942187375,96.87966125833333,57.0,77.0
229,94.3954862375,97.04263579791666,50.0,86.0
230,96.6739652375,97.09326866458333,64.0,91.0
231,97.0537117375,97.43187596041666,69.0,87.0
232,97.43345823749999,98.1549765875,60.0,81.0
233,97.43345823749999,98.24200182708333,67.0,84.0
234,98.5726977375,98.92396325,64.0,83.0
235,98.1929512375,99.00149482708333,57.0,84.0
236,98.5726977375,99.44295013333333,60.0,86.0
237,98.9524442375,99.4651020125,67.0,88.0
238,99.3321907375,99.77997515208332,57.0,90.0
239,97.8132047375,99.81162069375,52.0,70.0
240,97.43345823749999,99.81953207916666,45.0,83.0
241,99.7119372375,100.12649383333333,67.0,93.0
242,99.7119372375,100.15339254375,60.0,98.0
243,100.09168373749999,100.40181004583333,64.0,82.0
244,100.4714302375,101.37807500625,65.0,90.0
245,100.4714302375,101.41763193333333,62.0,91.0
246,101.2309232375,101.69453042291666,58.0,83.0
247,101.61066973749999,102.4271247125,65.0,88.0
248,101.61066973749999,102.47775757916666,62.0,89.0
249,102.3701627375,102.82427626041667,58.0,79.0
250,100.8511767375,103.18345315833334,53.0,67.0
251,102.74990923749999,103.21984553125,65.0,107.0
252,100.4714302375,103.25782018125,46.0,82.0
253,102.74990923749999,103.44769343125,62.0,110.0
254,104.26889523749999,105.11383119999999,53.0,78.0
255,104.6486417375,105.14547674166667,57.0,77.0
256,105.0283882375,105.49515997708333,60.0,92.0
257,105.7878812375,106.13598219583334,57.0,92.0
258,103.5094022375,106.15655179791666,41.0,88.0
259,105.40813473749999,106.19769100208333,53.0,83.0
260,103.8891487375,106.21984288125,48.0,69.0
261,106.1676277375,106.52205780416666,60.0,88.0
262,106.5473742375,107.14072814375,43.0,84.0
263,106.92712073749999,107.16604457708333,50.0,78.0
264,107.6866137375,108.17870191041666,59.0,78.0
265,108.06636023749999,108.81319502083333,67.0,89.0
266,108.2562334875,108.86541016458332,43.0,85.0
267,108.8258532375,109.22616933958334,62.0,91.0
268,107.3068672375,109.53471337083333,55.0,87.0
269,109.2055997375,109.75148533125,67.0,100.0
270,109.58534623749999,109.96192818333333,60.0,87.0
271,109.58534623749999,110.17553558958333,64.0,88.0
272,110.72458573749999,111.02996521458333,67.0,88.0
273,110.72458573749999,111.06477531041666,62.0,87.0
274,110.3448392375,111.16762332083333,60.0,88.0
275,109.9650927375,111.24357262083333,55.0,77.0
276,111.1043322375,111.53787615833333,67.0,88.0
277,111.1043322375,111.58059763958333,64.0,91.0
278,111.4840787375,112.01414156041666,55.0,91.0
279,109.58534623749999,112.17711609999999,48.0,87.0
280,111.8638252375,112.25622995416666,64.0,100.0
281,112.6233182375,113.14388739791666,57.0,77.0
282,112.24357173749999,113.32426698541666,67.0,89.0
283,112.6233182375,113.34641886458333,60.0,73.0
284,113.3828112375,114.12806374374999,53.0,84.0
285,113.76255773749999,114.39705084791666,57.0,87.0
286,113.76255773749999,114.43502549791667,60.0,91.0
287,112.6233182375,115.12489830625,41.0,86.0
288,113.0030647375,115.18027800416667,48.0,69.0
289,114.5220507375,115.25622730416666,53.0,83.0
290,114.90179723749999,115.37173353125,57.0,91.0
291,115.2815437375,115.72458132083332,65.0,88.0
292,116.42078323749999,116.76413736458333,62.0,93.0
293,116.42078323749999,117.12964337083334,67.0,102.0
294,116.8005297375,117.3891368125,64.0,96.0
295,117.1802762375,117.95400973125,60.0,84.0
296,117.56002273749999,118.31476890625,64.0,96.0
297,117.9397692375,118.33533850833332,67.0,89.0
298,115.6612902375,118.35274355624999,48.0,91.0
299,116.0410367375,118.4049587,55.0,79.0
300,118.3195157375,118.59166739583333,60.0,78.0
301,117.56002273749999,118.62647749166666,72.0,100.0
302,118.6992622375,119.00622399166666,65.0,91.0
303,118.6992622375,119.20559090416667,69.0,92.0
304,118.6992622375,119.31793257708333,62.0,87.0
305,119.4587552375,119.82584352083333,64.0,87.0
306,119.07900873749999,120.3131848625,57.0,70.0
307,119.8385017375,120.68660225416666,62.0,92.0
308,119.8385017375,120.76413383124999,65.0,100.0
309,120.5979947375,121.06160192291667,57.0,82.0
310,118.6992622375,121.19134864374999,50.0,87.0
311,120.9777412375,121.38438644791667,64.0,100.0
312,121.3574877375,121.78628482708334,69.0,88.0
313,122.4967272375,123.34482775416666,57.0,86.0
314,122.87647373749999,123.66603000208333,67.0,90.0
315,122.87647373749999,123.69767554375,62.0,88.0
316,123.6359667375,124.19925737916667,57.0,88.0
317,122.1169807375,124.23248519791666,52.0,78.0
318,121.73723423749999,124.23881430624999,45.0,85.0
319,124.0157132375,124.35432053333332,69.0,108.0
320,124.0157132375,124.7182442625,64.0,108.0
321,124.39545973749999,124.77045940625,69.0,89.0
322,124.7752062375,125.73406614999999,65.0,92.0
323,124.7752062375,125.75938258333333,62.0,88.0
324,125.53469923749999,126.43185034375,58.0,81.0
325,125.91444573749999,126.66444507499999,65.0,88.0
326,125.91444573749999,126.79577407291666,62.0,88.0
327,126.6739387375,127.14229275416666,58.0,82.0
328,125.1549527375,127.23090027083333,53.0,65.0
329,127.05368523749999,127.42710262916667,60.0,93.0
330,127.05368523749999,127.49672282083333,65.0,100.0
331,124.7752062375,127.82741873124999,46.0,83.0
332,127.4334317375,127.84640605624999,62.0,79.0
333,127.8131782375,128.39703848125,65.0,89.0
334,127.8131782375,128.95241773749999,57.0,80.0
335,128.95241773749999,129.35748067083333,55.0,83.0
336,128.5726712375,129.42393630833334,53.0,77.0
337,129.3321642375,129.67393608749998,57.0,90.0
338,128.95241773749999,129.702417075,60.0,82.0
339,127.8131782375,130.46823918333334,41.0,78.0
340,128.1929247375,130.52203660416666,48.0,62.0
341,130.0916572375,130.55842897708334,57.0,88.0
342,130.0916572375,130.63754283125,65.0,91.0
343,129.7119107375,130.65494787916666,53.0,83.0
344,130.8511502375,131.81792153541667,59.0,84.0
345,130.8511502375,131.90494677499998,67.0,88.0
346,131.99038973749998,132.39545267083332,62.0,87.0
347,131.6106432375,132.6549461125,55.0,78.0
348,132.3701362375,133.15494567083334,67.0,88.0
349,132.3701362375,133.37013535416665,59.0,87.0
350,130.8511502375,133.39703406458332,43.0,82.0
351,131.2308967375,133.45874287083333,50.0,68.0
352,133.12962923749998,133.56317315833334,62.0,82.0
353,132.7498827375,133.88595768333332,55.0,80.0
354,133.5093757375,136.3289935,67.0,86.0
355,133.8891222375,136.36380359583333,48.0,71.0
356,133.8891222375,136.39228458333332,64.0,86.0
357,133.8891222375,136.4334237875,60.0,78.0
358,136.9270942375,137.02044858541666,60.0,76.0
359,136.9270942375,137.41918241041665,65.0,86.0
360,136.9270942375,137.54260002291667,57.0,38.0
361,137.6865872375,138.01095403958334,65.0,87.0
362,137.6865872375,138.04418185833333,60.0,80.0
363,137.6865872375,138.06158690625,57.0,82.0
364,138.0663337375,138.53310547708332,53.0,74.0
365,138.44608023749998,138.778358425,55.0,86.0
366,138.44608023749998,138.81316852083333,60.0,87.0
367,138.8258267375,139.29259847708332,53.0,74.0
368,136.9270942375,139.59639567708334,41.0,74.0
369,139.2055732375,139.59956023125,57.0,88.0
370,137.30684073749998,139.62962349583333,48.0,70.0
371,139.2055732375,139.81633219166667,65.0,92.0
372,139.5853197375,139.95240802083333,53.0,80.0
373,139.9650662375,140.76411616458333,67.0,96.0
374,139.9650662375,140.791014875,59.0,86.0
375,139.9650662375,141.02993871458332,62.0,102.0
376,140.7245592375,141.32740680625,55.0,77.0
377,141.1043057375,141.76569755833333,59.0,91.0
378,141.1043057375,141.89860883333333,67.0,93.0
379,141.1043057375,141.930254375,62.0,100.0
380,141.8637987375,142.29892493541666,55.0,84.0
381,142.2435452375,142.60113985833334,59.0,102.0
382,139.9650662375,142.613798075,43.0,86.0
383,140.3448127375,142.64386133958334,50.0,42.0
384,142.2435452375,142.67867143541667,67.0,100.0
385,142.2435452375,142.86538013125,62.0,113.0
386,142.62329173749998,142.97613952708332,55.0,84.0
387,143.0030382375,143.44449354374999,67.0,91.0
388,143.0030382375,143.49829096458333,60.0,89.0
389,143.0030382375,143.525189675,64.0,100.0
390,143.76253123749999,144.26727762708333,60.0,91.0
391,143.76253123749999,144.284682675,64.0,102.0
392,143.76253123749999,144.45715087708334,67.0,94.0
393,144.1422777375,144.65177095833332,55.0,69.0
394,144.5220242375,144.98404914583332,60.0,85.0
395,144.5220242375,145.09955537291665,67.0,92.0
396,144.5220242375,145.12803636041667,64.0,88.0
397,145.0916439875,145.41759306666665,55.0,88.0
398,145.2815172375,145.77676996458334,60.0,108.0
399,143.0030382375,145.81632689166665,48.0,87.0
400,145.2815172375,145.8891116375,67.0,104.0
401,145.2815172375,145.90968123958334,64.0,114.0
402,145.6612637375,146.05208617708334,55.0,81.0
403,146.0410102375,146.52360474791666,60.0,88.0
404,146.0410102375,146.5916426625,64.0,93.0
405,146.0410102375,146.60588315625,67.0,94.0
406,146.6106299875,146.91126263333334,55.0,84.0
407,146.80050323749998,147.07423717291667,60.0,94.0
408,146.80050323749998,147.19132567708334,67.0,107.0
409,147.1802497375,147.61379365833332,55.0,84.0
410,147.5599962375,147.86221116041665,72.0,102.0
411,147.5599962375,148.00461609791665,64.0,102.0
412,147.7498694875,148.16917291458333,55.0,86.0
413,148.1296159875,148.38119804375,64.0,102.0
414,148.1296159875,148.38752715208332,67.0,104.0
415,148.1296159875,148.41284358541665,72.0,98.0
416,148.5093624875,148.6612610875,64.0,96.0
417,148.3194892375,148.77834959166665,55.0,104.0
418,146.0410102375,148.80524830208333,48.0,87.0
419,148.6992357375,148.81157741041667,67.0,96.0
420,149.07898223749999,149.53309576041667,72.0,102.0
421,149.07898223749999,149.59955139791666,65.0,96.0
422,149.4587287375,149.88277899583332,60.0,72.0
423,149.8384752375,150.24828500208332,69.0,94.0
424,149.8384752375,150.28309509791666,65.0,90.0
425,150.2182217375,150.73246178958334,60.0,78.0
426,150.5979682375,151.02834760416667,72.0,86.0
427,150.5979682375,151.15334749375,65.0,89.0
428,150.9777147375,151.49353706666665,60.0,86.0
429,149.07898223749999,151.52834716249998,53.0,88.0
430,151.3574612375,151.73087862916665,72.0,110.0
431,151.3574612375,151.78942288125,65.0,107.0
432,151.7372077375,152.0220176125,67.0,78.0
433,152.11695423749998,152.78309288958332,71.0,92.0
434,152.8764472375,153.18815582291666,67.0,86.0
435,152.11695423749998,153.36853541041665,62.0,89.0
436,153.25619373749998,153.68340855,74.0,110.0
437,153.25619373749998,153.98404119583333,67.0,88.0
438,153.6359402375,154.3574585875,62.0,83.0
439,154.3954332375,154.69448360625,62.0,91.0
440,154.0156867375,154.73878736458332,71.0,102.0
441,152.11695423749998,154.78309112291666,55.0,83.0
442,154.0156867375,155.12802752708333,74.0,88.0
443,154.7751797375,155.18498950208334,67.0,93.0
444,155.9144192375,156.28625435208332,62.0,91.0
445,155.9144192375,156.32739355625,67.0,104.0
446,156.29416573749998,157.02992458125,60.0,79.0
447,156.6739122375,157.23720287916666,72.0,96.0
448,156.6739122375,157.26884842083334,64.0,91.0
449,157.2435319875,157.53467097083333,60.0,86.0
450,155.5346727375,157.65017719791666,55.0,78.0
451,155.1549262375,157.67549363125,48.0,89.0
452,157.43340523749998,157.8131517375,72.0,100.0
453,157.43340523749998,157.83530361666666,64.0,110.0
454,157.8131517375,158.145429925,67.0,88.0
455,158.1928982375,158.52201187083332,69.0,89.0
456,158.1928982375,159.01568232083332,60.0,87.0
457,159.3321377375,159.59479573333334,60.0,84.0
458,159.3321377375,159.66125137083333,55.0,82.0
459,158.9523912375,159.87485877708332,53.0,83.0
460,159.7118842375,160.06947885833333,57.0,87.0
461,159.7118842375,160.1011244,60.0,80.0
462,158.1928982375,160.81631364166665,41.0,87.0
463,160.4713772375,160.81789591875,64.0,107.0
464,158.57264473749999,160.85270601458333,48.0,65.0
465,160.0916307375,160.92390848333332,53.0,86.0
466,161.2308702375,161.47454090833332,60.0,87.0
467,160.8511237375,161.52042694374998,65.0,91.0
468,161.2308702375,161.61219901458333,69.0,87.0
469,161.61061673749998,162.06156570625,60.0,80.0
470,161.9903632375,162.37169201458332,69.0,98.0
471,161.9903632375,162.37485656875,65.0,88.0
472,162.3701097375,163.08371670208334,60.0,73.0
473,162.74985623749998,163.14067867708332,72.0,84.0
474,162.74985623749998,163.24510896458332,65.0,89.0
475,163.1296027375,163.57422259791667,60.0,78.0
476,161.2308702375,163.78150089583332,53.0,86.0
477,163.5093492375,163.94922226666665,65.0,113.0
478,163.5093492375,163.96662731458332,72.0,104.0
479,163.88909573749999,164.2308675875,69.0,89.0
480,164.2688422375,164.73244942291666,71.0,91.0
481,164.2688422375,164.77517090416666,62.0,91.0
482,165.0283352375,165.52675251875,62.0,89.0
483,165.0283352375,165.56947399999999,71.0,89.0
484,164.2688422375,166.24827086874998,55.0,84.0
485,166.1675747375,166.38118214374998,62.0,86.0
486,165.4080817375,166.41124540833331,67.0,84.0
487,166.3574479875,166.71346033125,55.0,90.0
488,166.5473212375,167.00618159166666,62.0,110.0
489,166.5473212375,167.04257396458334,71.0,96.0
490,166.92706773749998,167.25143453958333,67.0,89.0
491,168.06630723749998,168.34953483541665,72.0,104.0
492,168.06630723749998,168.77200281666666,64.0,94.0
493,168.4460537375,168.96662289791666,60.0,75.0
494,168.8258002375,169.18497713541666,62.0,88.0
495,168.8258002375,169.26092643541665,67.0,102.0
496,169.2055467375,169.62485016458334,60.0,87.0
497,167.6865607375,169.76725510208334,55.0,84.0
498,167.3068142375,169.80206519791665,48.0,89.0
499,169.5852932375,170.26567238333334,64.0,110.0
500,169.5852932375,170.2783306,67.0,114.0
501,170.3447862375,170.56630502916667,65.0,92.0
502,170.3447862375,170.64383660625,69.0,91.0
503,170.3447862375,170.92389964999998,60.0,90.0
504,171.10427923749998,171.35269673958334,55.0,110.0
505,170.9144059875,171.36377267916666,53.0,88.0
506,171.29415248749999,171.54573454375,57.0,89.0
507,171.4840257375,171.56788642291667,60.0,96.0
508,171.8637722375,172.08529102916665,65.0,107.0
509,172.0536454875,172.15174666666667,67.0,100.0
510,171.4840257375,172.23877190625,53.0,91.0
511,172.24351873749998,172.47611346875,69.0,113.0
512,170.3447862375,172.86693590833332,41.0,88.0
513,170.7245327375,172.90016372708334,48.0,78.0
514,172.4333919875,173.01250539999998,53.0,104.0
515,172.6232652375,173.03940411041665,72.0,114.0
516,172.8131384875,173.0409863875,67.0,91.0
517,173.0030117375,173.12959390416665,69.0,85.0
518,173.38275823749998,173.73560602708332,62.0,93.0
519,173.38275823749998,173.76566929166665,65.0,98.0
520,173.38275823749998,173.8194667125,69.0,96.0
521,174.1422512375,174.73718742083332,62.0,98.0
522,174.1422512375,174.76408613125,69.0,108.0
523,174.1422512375,174.80838988958334,65.0,110.0
524,173.38275823749998,175.12484530625,46.0,87.0
525,174.9017442375,175.49668042083331,62.0,98.0
526,174.9017442375,175.49826269791666,69.0,108.0
527,174.9017442375,175.54098417916666,65.0,108.0
528,175.47136398749998,175.81471811458331,46.0,97.0
529,175.6612372375,176.01566730416667,62.0,107.0
530,176.0409837375,176.13750263958332,46.0,85.0
531,175.6612372375,176.13750263958332,69.0,113.0
532,175.6612372375,176.33686955208333,65.0,113.0
533,176.42073023749998,176.71186922083334,72.0,92.0
534,176.42073023749998,176.74984387083333,67.0,108.0
535,176.42073023749998,176.82579317083332,64.0,91.0
536,176.8004767375,177.29256491041667,55.0,78.0
537,177.1802232375,177.68971645833332,60.0,93.0
538,177.1802232375,177.71819744583334,67.0,102.0
539,177.1802232375,177.80838723958334,64.0,104.0
540,177.9397162375,178.02199464583333,60.0,93.0
541,177.7498429875,178.0726275125,55.0,85.0
542,177.9397162375,178.499842325,67.0,98.0
543,177.9397162375,178.54256380625,64.0,108.0
544,178.50933598749998,178.89541159583334,55.0,88.0
545,178.69920923749999,178.94446218541665,60.0,108.0
546,178.69920923749999,178.94446218541665,67.0,88.0
547,176.42073023749998,178.98560138958334,48.0,88.0
548,178.8890824875,179.17863919375,62.0,94.0
549,179.0789557375,179.36060105833332,64.0,86.0
550,179.4587022375,179.95395496458332,69.0,92.0
551,179.4587022375,179.999841,60.0,90.0
552,179.4587022375,180.03306881875,64.0,88.0
553,180.0283219875,180.33370146458333,52.0,64.0
554,180.2181952375,180.61851133958334,69.0,98.0
555,180.2181952375,180.63908094166666,64.0,102.0
556,180.2181952375,180.83686557708333,60.0,96.0
557,180.9776882375,181.10110584999998,60.0,87.0
558,180.9776882375,181.17547287291666,59.0,89.0
559,180.78781498749998,181.36851067708332,57.0,87.0
560,181.3574347375,181.613763625,64.0,107.0
561,181.73718123749998,181.82420647708332,64.0,91.0
562,179.4587022375,182.04572526875,45.0,85.0
563,180.59794173749998,182.08686447291666,52.0,68.0
564,181.5473079875,182.14066189375,57.0,88.0
565,181.73718123749998,182.17072515833334,60.0,94.0
566,181.73718123749998,182.22610485625,69.0,102.0
567,182.1169277375,182.46028186458332,64.0,86.0
568,182.4966742375,183.04097755416666,69.0,89.0
569,182.4966742375,183.05838260208333,62.0,87.0
570,182.4966742375,183.06471171041667,65.0,96.0
571,183.0662939875,183.43971137916665,57.0,77.0
572,183.2561672375,183.78306550624998,69.0,108.0
573,183.2561672375,183.87167302291667,65.0,114.0
574,183.2561672375,183.87800213124999,62.0,108.0
575,183.82578698749998,184.10901458541667,57.0,81.0
576,184.0156602375,184.4713560375,69.0,107.0
577,184.0156602375,184.499837025,64.0,108.0
578,184.3954067375,184.65964701041665,57.0,86.0
579,184.5852799875,184.96502648749998,69.0,102.0
580,184.5852799875,184.9903429208333,62.0,110.0
581,184.5852799875,185.02357073958333,65.0,110.0
582,182.4966742375,185.19603894166667,50.0,87.0
583,184.96502648749998,185.20078577291667,57.0,86.0
584,185.1548997375,185.25458319375,65.0,78.0
585,185.1548997375,185.26249457916666,67.0,83.0
586,185.1548997375,185.36534258958332,69.0,86.0
587,185.1548997375,185.46660832291667,64.0,98.0
588,185.5346462375,185.81629155833332,67.0,88.0
589,185.5346462375,185.95394966458332,58.0,97.0
590,186.2941392375,186.56470861875,57.0,85.0
591,186.2941392375,186.62483514791666,62.0,91.0
592,186.6738857375,187.19287262083333,55.0,74.0
593,187.05363223749998,187.575783675,67.0,91.0
594,187.05363223749998,187.6248342645833,58.0,88.0
595,187.6232519875,187.8985682,55.0,86.0
596,187.8131252375,188.16280847291665,58.0,113.0
597,187.8131252375,188.17230213541666,67.0,104.0
598,185.5346462375,188.26565648333332,43.0,86.0
599,185.91439273749998,188.30204885625,50.0,69.0
600,188.19287173749998,188.46344111874998,55.0,87.0
601,188.5726182375,189.26090876875,67.0,102.0
602,188.5726182375,189.27989609374998,59.0,107.0
603,189.3321112375,189.38432638125,59.0,81.0
604,189.14223798749998,189.41438964583332,55.0,88.0
605,189.3321112375,189.79413614583333,67.0,90.0
606,189.3321112375,190.01881949166665,62.0,113.0
607,189.7118577375,190.19445224791667,55.0,83.0
608,188.9523647375,190.32736352291667,50.0,79.0
609,190.0916042375,190.70394546875,59.0,107.0
610,190.0916042375,190.72293279375,67.0,100.0
611,190.0916042375,190.765654275,62.0,113.0
612,190.6612239875,190.94128703125,55.0,96.0
613,190.6612239875,191.22451462916666,50.0,30.0
614,188.5726182375,191.26407155625,43.0,89.0
615,190.8510972375,191.28305888124999,59.0,114.0
616,190.8510972375,191.45078025208332,67.0,110.0
617,191.23084373749998,191.53305866041666,62.0,92.0
618,191.6105902375,191.93812159375,60.0,100.0
619,191.6105902375,191.99191901458332,64.0,113.0
620,191.6105902375,192.23400740833333,67.0,108.0
621,192.1802099875,192.44128570625,60.0,88.0
622,192.37008323749998,192.816285375,62.0,108.0
623,192.37008323749998,192.9966649625,67.0,113.0
624,192.7498297375,193.15331039375,60.0,84.0
625,193.1295762375,193.54255055625,67.0,114.0
626,193.1295762375,193.58843659166666,64.0,110.0
627,193.6991959875,193.96343626041667,60.0,83.0
628,191.9903367375,194.05046149999998,55.0,71.0
629,193.8890692375,194.31153721875,62.0,114.0
630,191.6105902375,194.33685365208333,48.0,91.0
631,193.8890692375,194.43337255416665,67.0,113.0
632,194.2688157375,194.54254967291666,55.0,81.0
633,194.6485622375,194.99191636458332,62.0,108.0
634,194.6485622375,195.056789725,67.0,117.0
635,194.6485622375,195.27672623958333,64.0,116.0
636,195.2181819875,195.53463740416666,55.0,87.0
637,195.40805523749998,195.74508025625,60.0,114.0
638,195.40805523749998,195.78621946041665,64.0,117.0
639,195.40805523749998,195.78621946041665,67.0,117.0
640,195.7878017375,196.16280140625,55.0,81.0
641,196.1675482375,196.43178851041665,60.0,110.0
642,196.1675482375,196.43495306458334,67.0,114.0
643,196.1675482375,196.44286445,64.0,110.0
644,196.54729473749998,196.73875026458333,67.0,87.0
645,196.54729473749998,196.74666165,60.0,88.0
646,196.54729473749998,196.75140848125,64.0,87.0
647,196.7371679875,196.96343361041667,55.0,104.0
648,194.6485622375,196.99982598333332,48.0,93.0
649,196.9270412375,197.4207116875,60.0,116.0
650,196.9270412375,197.5156483125,67.0,117.0
651,196.9270412375,197.53780019166666,64.0,116.0
652,198.0662807375,198.24033121666665,57.0,64.0
653,198.2561539875,198.51722970625,53.0,87.0
654,198.4460272375,198.90805214583332,65.0,110.0
655,198.4460272375,198.94919135,57.0,102.0
656,198.4460272375,199.08843173333332,60.0,116.0
657,198.8257737375,199.27988726041667,53.0,84.0
658,199.2055202375,199.42229219791665,65.0,81.0
659,199.2055202375,199.42545675208333,57.0,81.0
660,199.2055202375,199.46343140208333,60.0,79.0
661,199.5852667375,199.77672226458333,65.0,87.0
662,199.5852667375,199.80520325208332,57.0,84.0
663,199.5852667375,199.80836780625,60.0,87.0
664,199.77513998749998,200.04887392291667,53.0,110.0
665,199.9650132375,200.35583567708332,57.0,113.0
666,197.68653423749998,200.37482300208333,41.0,96.0
667,199.9650132375,200.37956983333333,65.0,114.0
668,199.9650132375,200.62640505833332,60.0,117.0
669,200.3447597375,200.74191128541665,53.0,100.0
670,200.72450623749998,201.056784425,60.0,94.0
671,200.72450623749998,201.06469581041665,64.0,94.0
672,200.72450623749998,201.08051858125,67.0,88.0
673,201.1042527375,201.23241718124999,55.0,73.0
674,201.2941259875,201.54729032083333,55.0,77.0
675,201.4839992375,201.90488494166667,60.0,102.0
676,201.4839992375,201.9207077125,64.0,110.0
677,201.4839992375,201.93178365208334,67.0,107.0
678,202.0536189875,202.10899868541665,67.0,104.0
679,202.0536189875,202.11374551666665,64.0,100.0
680,202.0536189875,202.11532779375,60.0,89.0
681,201.86374573749998,202.44760598125,55.0,84.0
682,202.4333654875,202.81311198749998,64.0,94.0
683,202.4333654875,202.82102337291667,67.0,104.0
684,202.4333654875,202.83368158958334,60.0,98.0
685,202.81311198749998,203.02039028541665,55.0,107.0
686,203.00298523749998,203.36849124375,60.0,113.0
687,200.72450623749998,203.44602282083332,48.0,91.0
688,203.00298523749998,203.5694404333333,67.0,116.0
689,203.00298523749998,203.65330111875,64.0,114.0
690,203.3827317375,203.78937694791665,55.0,91.0
691,203.7624782375,204.32418660208333,62.0,88.0
692,203.7624782375,204.34000937291665,69.0,100.0
693,203.7624782375,204.35266758958332,65.0,100.0
694,204.3320979875,204.5979205375,57.0,83.0
695,204.5219712375,204.85741397916667,65.0,113.0
696,204.5219712375,205.21342632291666,69.0,96.0
697,204.5219712375,205.26089463541666,62.0,104.0
698,204.90171773749998,205.36374264583333,57.0,84.0
699,205.2814642375,205.83842577083334,65.0,96.0
700,205.2814642375,205.84950171041666,69.0,91.0
701,205.2814642375,205.90804596249998,62.0,93.0
702,205.8510839875,206.24348870416665,57.0,89.0
703,206.04095723749998,206.27038741458333,69.0,107.0
704,206.04095723749998,206.30203295625,65.0,96.0
705,206.04095723749998,206.32260255833333,60.0,108.0
706,203.7624782375,206.36057720833332,50.0,91.0
707,206.4207037375,206.63114658958332,69.0,87.0
708,206.4207037375,206.69760222708334,65.0,87.0
709,206.2308304875,206.72291866041667,62.0,88.0
710,206.8004502375,207.19127267708333,64.0,107.0
711,206.8004502375,207.21026000208332,60.0,93.0
712,206.8004502375,207.22608277291667,67.0,100.0
713,207.5599432375,208.17861357708333,67.0,104.0
714,207.5599432375,208.18968951666665,64.0,108.0
715,207.5599432375,208.19760090208334,60.0,100.0
716,208.12956298749998,208.40171464583332,57.0,88.0
717,207.18019673749998,208.60899294375,52.0,71.0
718,206.8004502375,208.79095480833334,45.0,88.0
719,208.31943623749999,209.16911903125,64.0,113.0
720,208.31943623749999,209.17228358541666,67.0,108.0
721,208.31943623749999,209.18177724791667,60.0,110.0
722,208.8890559875,209.43810613541666,45.0,102.0
723,209.0789292375,209.4681694,52.0,91.0
724,209.4586757375,209.866903225,64.0,107.0
725,209.4586757375,209.88114371875,60.0,102.0
726,209.4586757375,209.88272599583334,67.0,100.0
727,210.40804198749998,210.6564594895833,58.0,83.0
728,210.5979152375,211.14696538541665,69.0,108.0
729,210.5979152375,211.20709191458332,65.0,116.0
730,210.5979152375,211.2150033,62.0,108.0
731,211.1675349875,211.42544615208334,58.0,83.0
732,211.35740823749998,211.89854699999998,69.0,104.0
733,211.35740823749998,211.92228115625,65.0,108.0
734,211.35740823749998,211.93968620416666,62.0,102.0
735,211.9270279875,212.18493915208333,58.0,88.0
736,209.8384222375,212.26879983749998,46.0,97.0
737,210.21816873749998,212.2782935,53.0,72.0
738,212.1169012375,212.59633119375,65.0,114.0
739,212.49664773749998,212.62322990416666,46.0,87.0
740,212.1169012375,212.7434829625,69.0,110.0
741,212.1169012375,212.87164740625,62.0,116.0
742,212.8763942375,213.34316597708332,65.0,96.0
743,212.8763942375,213.36690013333333,57.0,98.0
744,212.8763942375,213.39063428958332,60.0,96.0
745,213.44601398749998,213.70708970625,53.0,80.0
746,213.6358872375,214.10740580833334,65.0,113.0
747,214.2055069875,214.26246896249998,65.0,87.0
748,214.2055069875,214.26563351666667,60.0,91.0
749,213.6358872375,214.27038034791667,57.0,110.0
750,214.0156337375,214.59474715,53.0,81.0
751,212.8763942375,214.63272179999998,41.0,88.0
752,213.2561407375,214.64696229375,48.0,71.0
753,214.58525348749998,215.031455625,57.0,94.0
754,214.58525348749998,215.03778473333332,65.0,104.0
755,214.9649999875,215.26563263333333,41.0,100.0
756,215.1548732375,215.43810083541666,65.0,104.0
757,215.1548732375,215.46974637708334,57.0,108.0
758,215.3447464875,215.53620201458332,41.0,94.0
759,215.53461973749998,215.84949287708332,60.0,96.0
760,215.72449298749999,215.85582198541667,62.0,86.0
761,215.9143662375,216.46658093958334,67.0,94.0
762,215.9143662375,216.4839859875,59.0,94.0
763,215.9143662375,216.5187960833333,62.0,94.0
764,216.4839859875,216.73715032083334,55.0,84.0
765,216.67385923749998,217.13271959166667,67.0,104.0
766,216.67385923749998,217.15645374791666,59.0,102.0
767,216.67385923749998,217.17069424166667,62.0,108.0
768,217.0536057375,217.2434789875,55.0,80.0
769,217.2434789875,217.29569413125,62.0,102.0
770,217.2434789875,217.30835234791667,59.0,96.0
771,217.2434789875,217.30835234791667,67.0,100.0
772,217.2434789875,217.50139015208333,55.0,70.0
773,215.9143662375,217.71499755833332,43.0,98.0
774,216.2941127375,217.86056705,50.0,73.0
775,217.62322548749998,218.28619958541665,59.0,96.0
776,217.62322548749998,218.28619958541665,67.0,94.0
777,217.62322548749998,218.30202235625,62.0,104.0
778,218.0029719875,218.52037659375,43.0,110.0
779,218.1928452375,218.58683223124999,50.0,102.0
780,218.3827184875,218.65170559166665,59.0,92.0
781,218.5725917375,218.85423705833333,62.0,100.0
782,218.76246498749998,218.87164210625,67.0,91.0
783,218.9523382375,219.25771771458332,60.0,100.0
784,218.9523382375,219.28936325625,64.0,108.0
785,218.9523382375,219.2941100875,67.0,89.0
786,219.5219579875,219.82100835625,60.0,93.0
787,219.71183123749998,220.006134775,72.0,98.0
788,219.71183123749998,220.03936259374998,67.0,110.0
789,219.71183123749998,220.07417268958332,64.0,107.0
790,220.2814509875,220.55518492291665,67.0,108.0
791,220.2814509875,220.58841274166667,62.0,94.0
792,220.0915777375,220.71341263124998,60.0,93.0
793,219.3320847375,220.75771638958332,55.0,86.0
794,220.6611974875,220.97607062708332,64.0,104.0
795,220.6611974875,221.03777943333333,67.0,110.0
796,221.0409439875,221.30993109166667,55.0,88.0
797,221.2308172375,221.66277888125,72.0,108.0
798,221.2308172375,221.66910798958332,64.0,107.0
799,218.9523382375,221.70075353125,48.0,98.0
800,221.6105637375,221.70075353125,55.0,89.0
801,221.2308172375,221.7055003625,67.0,102.0
802,221.99031023749998,222.29094288333332,65.0,113.0
803,221.99031023749998,222.31625931666665,69.0,113.0
804,221.99031023749998,222.43493009791666,60.0,89.0
805,222.5599299875,222.79568927291666,53.0,86.0
806,222.7498032375,223.196005375,65.0,92.0
807,222.7498032375,223.21815725416667,57.0,100.0
808,222.7498032375,223.2403091333333,60.0,104.0
809,223.3194229875,223.37322040833334,60.0,90.0
810,223.3194229875,223.38904317916666,65.0,87.0
811,223.3194229875,223.39220773333332,57.0,86.0
812,223.12954973749999,223.74822007708332,53.0,81.0
813,221.99031023749998,223.82891620833334,41.0,94.0
814,222.3700567375,224.1548652875,48.0,81.0
815,223.6991694875,224.35581447708333,57.0,91.0
816,223.6991694875,224.36214358541665,65.0,88.0
817,223.6991694875,224.4206878375,60.0,100.0
818,224.07891598749998,224.61847247291666,41.0,104.0
819,224.2687892375,224.63745979791665,48.0,96.0
820,224.4586624875,224.72132048333333,57.0,89.0
821,224.6485357375,224.93651016666666,60.0,98.0
822,224.8384089875,224.9618266,67.0,89.0
823,225.02828223749998,225.37163636458334,60.0,102.0
824,225.02828223749998,225.39062368958332,64.0,116.0
825,225.21815548749998,225.44758566458333,67.0,36.0
826,225.4080287375,225.89537007916667,55.0,78.0
827,225.7877752375,226.2244837125,60.0,102.0
828,225.7877752375,226.24980014583332,67.0,110.0
829,225.7877752375,226.25138242291666,64.0,114.0
830,226.3573949875,226.40011646874999,60.0,85.0
831,226.3573949875,226.41277468541665,64.0,89.0
832,226.3573949875,226.4143569625,67.0,90.0
833,225.02828223749998,226.87479959375,48.0,93.0
834,226.16752173749998,227.04410324166665,55.0,84.0
835,226.7371414875,227.16910313124998,64.0,107.0
836,226.7371414875,227.17068540833333,60.0,98.0
837,226.7371414875,227.18492590208334,67.0,104.0
838,227.30676123749998,227.53619141458333,67.0,104.0
839,227.30676123749998,227.54093824583333,64.0,108.0
840,227.30676123749998,227.54726735416665,60.0,102.0
841,227.11688798749998,227.7434697125,48.0,104.0
842,227.4966344875,227.82416584375,55.0,113.0
843,227.6865077375,227.88112781875,60.0,94.0
844,227.6865077375,227.91752019166665,67.0,92.0
845,227.6865077375,228.0092922625,64.0,94.0
846,228.0662542375,228.4460007375,65.0,108.0
847,228.0662542375,228.45074756875,62.0,98.0
848,228.0662542375,228.47606400208332,69.0,100.0
849,228.4460007375,228.89536742916667,57.0,82.0
850,228.8257472375,229.2814430375,69.0,100.0
851,228.8257472375,229.30359491666667,65.0,104.0
852,228.8257472375,229.32574679583334,62.0,102.0
853,229.39536698749998,229.45074668541665,62.0,91.0
854,229.5852402375,229.62321488749998,62.0,83.0
855,229.20549373749998,229.82416407708334,57.0,81.0
856,229.7751134875,230.11213850625,65.0,102.0
857,229.7751134875,230.12163216874998,69.0,98.0
858,229.7751134875,230.1548599875,62.0,104.0
859,230.1548599875,230.40327748958333,57.0,88.0
860,230.34473323749998,230.70232785833332,69.0,102.0
861,230.34473323749998,230.71973290625,65.0,114.0
862,230.34473323749998,230.7355556770833,62.0,113.0
863,230.7244797375,230.7355556770833,62.0,87.0
864,230.7244797375,230.81150497708333,57.0,89.0
865,228.0662542375,230.81625180833333,50.0,91.0
866,230.7244797375,230.91277071041665,65.0,92.0
867,230.7244797375,230.99504911875,69.0,91.0
868,231.1042262375,231.65802321666666,69.0,94.0
869,231.1042262375,231.67226371041667,64.0,107.0
870,231.1042262375,231.67701054166665,60.0,91.0
871,231.6738459875,231.96973180208332,57.0,87.0
872,231.8637192375,232.27511127916665,60.0,102.0
873,231.8637192375,232.28776949583332,69.0,107.0
874,231.8637192375,232.30833909791667,64.0,110.0
875,232.43333898749998,232.48555413124998,64.0,100.0
876,232.43333898749998,232.48871868541667,69.0,89.0
877,232.43333898749998,232.4903009625,60.0,93.0
878,232.62321223749998,232.65485777916666,64.0,91.0
879,232.2434657375,232.83365508958332,57.0,86.0
880,231.1042262375,232.8700474625,45.0,88.0
881,231.48397273749998,232.88587023333332,52.0,77.0
882,232.8130854875,233.24821168541666,69.0,104.0
883,232.8130854875,233.25454079374998,60.0,107.0
884,232.8130854875,233.25928762499998,64.0,114.0
885,233.1928319875,233.43650265833332,45.0,107.0
886,233.3827052375,233.63270501666665,69.0,114.0
887,233.3827052375,233.63586957083334,64.0,116.0
888,233.3827052375,233.64378095625,60.0,110.0
889,233.57257848749998,233.74979352083332,45.0,108.0
890,233.7624517375,234.02510973333332,60.0,104.0
891,233.7624517375,234.06783121458332,64.0,104.0
892,233.7624517375,234.06941349166667,69.0,102.0
893,234.1421982375,234.59314720625,65.0,110.0
894,234.1421982375,234.72131165,69.0,94.0
895,234.1421982375,234.77669134791665,62.0,113.0
896,234.9016912375,235.30200733958333,65.0,113.0
897,234.9016912375,235.39061485624998,69.0,102.0
898,234.9016912375,235.40169079583333,62.0,110.0
899,235.4713109875,235.53143751666667,69.0,87.0
900,235.4713109875,235.537766625,65.0,100.0
901,235.4713109875,235.5472602875,60.0,96.0
902,235.2814377375,235.8716270895833,58.0,81.0
903,235.8510574875,236.22763943333334,65.0,113.0
904,235.8510574875,236.22922171041665,69.0,104.0
905,235.8510574875,236.24346220416666,62.0,114.0
906,236.2308039875,236.45706961041665,58.0,100.0
907,236.4206772375,236.74662631666666,69.0,110.0
908,236.4206772375,236.78301868958332,65.0,116.0
909,234.52194473749998,236.790930075,53.0,71.0
910,234.1421982375,236.87320848333331,46.0,95.0
911,236.80042373749998,236.89852491666664,58.0,90.0
912,236.80042373749998,237.03301846875,69.0,86.0
913,236.4206772375,237.132701925,62.0,116.0
914,237.1801702375,237.76561275833333,69.0,96.0
915,237.1801702375,237.77510642083334,60.0,92.0
916,237.1801702375,237.81466334791665,64.0,102.0
917,237.74978998749998,238.03143530833333,52.0,85.0
918,237.1801702375,238.35421983333333,45.0,86.0
919,238.3194097375,238.4048527,52.0,86.0
920,237.93966323749999,238.53459942083333,60.0,104.0
921,237.93966323749999,238.55833357708332,69.0,107.0
922,237.93966323749999,238.58048545625,64.0,113.0
923,238.6991562375,239.24662410833332,65.0,108.0
924,238.6991562375,239.29409242083332,69.0,93.0
925,238.6991562375,239.29725697499998,62.0,102.0
926,238.6991562375,239.5978896208333,50.0,94.0
927,239.2687759875,239.61213011458332,57.0,87.0
928,239.4586492375,239.79250970208332,65.0,114.0
929,239.4586492375,239.81149702708333,69.0,98.0
930,239.4586492375,239.84156029166667,62.0,116.0
931,239.83839573749998,239.9143450375,50.0,89.0
932,240.2181422375,240.60580012291666,67.0,94.0
933,240.2181422375,240.61845833958333,62.0,102.0
934,240.2181422375,240.73871139791666,59.0,90.0
935,240.97763523749998,241.55833092708332,59.0,90.0
936,240.97763523749998,241.5963055770833,67.0,91.0
937,240.97763523749998,241.6232042875,62.0,93.0
938,241.5472549875,241.91276099375,55.0,71.0
939,241.7371282375,242.32731758958332,59.0,94.0
940,241.7371282375,242.35263402291665,67.0,91.0
941,241.7371282375,242.411178275,62.0,93.0
942,242.11687473749998,242.5535832125,55.0,74.0
943,242.4966212375,242.85105130416665,62.0,92.0
944,240.5978887375,242.92225377291666,50.0,72.0
945,240.2181422375,242.94598792916665,43.0,88.0
946,242.4966212375,243.0852283125,59.0,89.0
947,242.4966212375,243.12794979375,67.0,89.0
948,243.2561142375,243.78301250625,69.0,91.0
949,243.2561142375,243.82731626458332,62.0,87.0
950,243.2561142375,243.84788586666667,65.0,88.0
951,244.01560723749998,244.50769541041666,69.0,89.0
952,244.01560723749998,244.61370797499998,62.0,86.0
953,244.01560723749998,244.61845480624999,65.0,88.0
954,244.7751002375,245.29092256666667,69.0,88.0
955,244.7751002375,245.32889721666666,62.0,86.0
956,244.7751002375,245.35263137291665,65.0,88.0
957,245.34471998749999,245.60263115208332,58.0,70.0
958,245.5345932375,245.98395992916664,62.0,94.0
959,243.2561142375,245.98554220625,46.0,83.0
960,243.6358607375,245.99187131458334,53.0,42.0
961,245.5345932375,246.00769408541666,69.0,98.0
962,245.5345932375,246.11845348125,65.0,108.0
963,246.29408623749998,248.67066641666665,64.0,96.0
964,246.29408623749998,248.68490691041666,48.0,85.0
965,246.29408623749998,248.77509670416666,60.0,91.0
966,246.29408623749998,248.78459036666666,67.0,92.0
967,250.0915512375,250.47762684583333,69.0,83.0
968,249.7118047375,250.60420901249998,60.0,81.0
969,250.47129773749998,251.2307907375,64.0,67.0
970,250.8510442375,251.86053701666665,60.0,58.0
971,249.33205823749998,252.22604302291666,53.0,88.0
972,252.3700302375,253.00294107083332,55.0,87.0
973,252.74977673749999,253.4491432083333,62.0,79.0
974,253.50926973749998,253.8700289125,55.0,74.0
975,253.1295232375,253.90642128541666,65.0,80.0
976,253.8890162375,254.37477530208332,59.0,72.0
977,256.18331800833334,258.1105314958333,60.0,75.0
978,255.80040695416665,258.28774652916667,55.0,58.0
979,255.41116679166666,258.36527810625,48.0,73.0
980,256.56781133958333,259.04249269791666,67.0,74.0
981,257.0282539708333,259.09470784166666,64.0,75.0
982,260.1168588375,261.5614778145833,53.0,54.0
983,260.6738203708333,261.57413603124996,65.0,68.0
984,259.60736561666664,261.58362969374997,48.0,42.0
985,259.08837873333334,261.5947056333333,41.0,78.0
