,start,end,pitch,velocity
0,24.41864509166667,24.73031291666667,68.0,90.0
1,24.787888616666667,24.895464266666668,59.0,87.0
2,24.969706616666667,25.43637281666667,59.0,92.0
3,25.515160616666666,25.615160516666666,59.0,87.0
4,25.69697861666667,26.180311466666666,59.0,94.0
5,26.24243261666667,26.78637146666667,68.0,85.0
6,26.969704616666668,27.050007566666668,68.0,87.0
7,27.151522616666668,27.251522516666668,68.0,87.0
8,27.333340616666668,28.403036516666667,66.0,88.0
9,28.424248616666667,29.104550966666668,63.0,85.0
10,29.151520616666666,30.10000451666667,59.0,87.0
11,30.24242861666667,30.515155616666668,64.0,86.0
12,30.606064616666668,30.70454936666667,56.0,87.0
13,30.787882616666668,31.200003416666668,56.0,83.0
14,31.333336616666667,31.475760716666667,56.0,85.0
15,31.696972616666667,32.04242681666667,64.0,86.0
16,32.06060861666667,32.56212326666667,64.0,85.0
17,32.78788061666667,32.88788051666667,64.0,88.0
18,32.96969861666667,33.07272881666667,64.0,83.0
19,33.15151661666667,33.65909186666667,63.0,90.0
20,34.24242461666667,34.86515126666667,59.0,87.0
21,34.96969661666667,35.81363516666667,59.0,85.0
22,35.878786616666666,36.02727131666667,52.0,84.0
23,36.060604616666666,36.28636196666667,61.0,84.0
24,36.424240616666665,36.52878596666667,52.0,77.0
25,36.60605861666667,37.01363396666667,52.0,84.0
26,37.151512616666665,37.409088116666666,52.0,84.0
27,37.515148616666664,37.815148316666665,52.0,84.0
28,37.878784616666664,38.38181441666667,61.0,85.0
29,38.60605661666667,38.721208016666665,59.0,85.0
30,38.78787461666667,38.892419966666665,56.0,85.0
31,38.96969261666667,39.21514691666667,66.0,73.0
32,39.33332861666667,40.03484306666667,59.0,84.0
33,40.06060061666667,40.38484271666667,56.0,84.0
34,40.42423661666667,41.06362991666667,64.0,85.0
35,41.87878061666667,42.203022716666666,66.0,84.0
36,42.24241661666667,42.374234666666666,61.0,83.0
37,42.60605261666667,42.85756751666667,61.0,85.0
38,42.96968861666667,43.06211276666667,59.0,81.0
39,43.151506616666666,43.54847591666667,59.0,86.0
40,43.69696061666667,44.16665711666667,59.0,87.0
41,44.42423261666667,44.78786861666667,59.0,84.0
42,44.78786861666667,45.698473766666666,59.0,87.0
43,45.87877661666667,46.16513996666667,59.0,89.0
44,46.24241261666667,47.12726021666667,66.0,87.0
45,47.69695661666667,48.00301691666667,68.0,90.0
46,48.06059261666667,48.16816826666667,59.0,87.0
47,48.24241061666667,48.709076816666666,59.0,92.0
48,48.78786461666667,48.88786451666667,59.0,87.0
49,48.96968261666667,49.45301546666667,59.0,94.0
50,49.515136616666666,50.05907546666667,68.0,85.0
51,50.242408616666665,50.32271156666667,68.0,87.0
52,50.42422661666667,50.52422651666667,68.0,87.0
53,50.606044616666665,51.675740516666664,66.0,88.0
54,51.696952616666664,52.060588616666664,63.0,85.0
55,52.060588616666664,53.00907251666667,66.0,87.0
56,53.51513261666667,53.787859616666665,64.0,86.0
57,53.87876861666667,53.97725336666667,56.0,87.0
58,54.06058661666667,54.472707416666665,56.0,83.0
59,54.60604061666667,54.74846471666667,56.0,85.0
60,54.96967661666667,55.31513081666667,64.0,86.0
61,55.33331261666667,55.834827266666665,64.0,85.0
62,56.060584616666674,56.160584516666674,66.0,88.0
63,56.242402616666666,56.34543281666667,64.0,83.0
64,56.42422061666667,56.931795866666675,63.0,90.0
65,57.51512861666667,57.696946616666665,56.0,87.0
66,57.696946616666665,58.787854616666664,63.0,85.0
67,59.33330861666667,59.69694461666667,61.0,84.0
68,60.06058061666667,60.286337966666665,52.0,84.0
69,60.42421661666667,60.60603461666666,52.0,84.0
70,60.60603461666666,60.90603431666666,61.0,84.0
71,61.15148861666667,61.654518416666676,61.0,85.0
72,61.87876061666667,61.99391201666667,59.0,85.0
73,62.060578616666675,62.16512396666667,56.0,85.0
74,62.24239661666667,62.48785091666667,66.0,73.0
75,62.60603261666667,63.30754706666667,59.0,84.0
76,63.333304616666666,63.65754671666667,56.0,84.0
77,63.696940616666666,64.33633391666667,64.0,85.0
78,65.15148461666666,65.47572671666667,66.0,84.0
79,65.51512061666666,65.64693866666667,61.0,83.0
80,65.87875661666666,66.13027151666667,61.0,85.0
81,66.24239261666666,66.33481676666666,59.0,81.0
82,66.42421061666667,66.82117991666667,59.0,86.0
83,66.96966461666666,67.33330061666666,59.0,87.0
84,67.33330061666666,67.69693661666668,59.0,87.0
85,67.69693661666668,68.06057261666668,59.0,84.0
86,68.06057261666668,68.97117776666667,59.0,87.0
87,69.15148061666667,69.43784396666666,59.0,89.0
88,69.51511661666667,70.39996421666667,66.0,87.0
89,82.60601261666667,82.91207291666667,68.0,90.0
90,82.96964861666667,83.07722426666668,59.0,87.0
91,83.15146661666667,83.61813281666667,59.0,92.0
92,83.69692061666667,83.79692051666667,59.0,87.0
93,83.87873861666667,84.36207146666666,59.0,94.0
94,84.42419261666667,84.96813146666668,68.0,85.0
95,85.15146461666667,85.23176756666668,68.0,87.0
96,85.33328261666666,85.43328251666667,68.0,87.0
97,85.51510061666667,86.58479651666667,66.0,88.0
98,86.60600861666667,86.96964461666667,63.0,85.0
99,86.96964461666667,87.91812851666667,66.0,87.0
100,88.42418861666667,88.69691561666667,64.0,86.0
101,88.78782461666667,88.88630936666667,56.0,87.0
102,88.96964261666666,89.38176341666667,56.0,83.0
103,89.51509661666667,89.65752071666667,56.0,85.0
104,89.87873261666667,90.22418681666666,64.0,86.0
105,90.24236861666667,90.74388326666667,64.0,85.0
106,90.96964061666667,91.06964051666667,66.0,88.0
107,91.15145861666667,91.25448881666667,64.0,83.0
108,91.33327661666667,91.84085186666667,63.0,90.0
109,92.42418461666666,92.60600261666667,56.0,87.0
110,92.60600261666667,93.69691061666667,63.0,85.0
111,94.24236461666666,94.60600061666666,61.0,84.0
112,94.96963661666666,95.19539396666667,52.0,84.0
113,95.33327261666666,95.51509061666667,52.0,84.0
114,95.51509061666667,95.81509031666667,61.0,84.0
115,96.06054461666666,96.56357441666667,61.0,85.0
116,96.78781661666666,96.90296801666666,59.0,85.0
117,96.96963461666667,97.07417996666666,56.0,85.0
118,97.15145261666666,97.39690691666667,66.0,73.0
119,97.51508861666666,98.21660306666666,59.0,84.0
120,98.24236061666667,98.56660271666667,56.0,84.0
121,98.60599661666667,99.24538991666667,64.0,85.0
122,100.06054061666667,100.38478271666666,66.0,84.0
123,100.42417661666667,100.55599466666666,61.0,83.0
124,100.78781261666667,101.03932751666666,61.0,85.0
125,101.15144861666667,101.24387276666667,59.0,81.0
126,101.33326661666666,101.73023591666667,59.0,86.0
127,101.87872061666667,102.24235661666667,59.0,87.0
128,102.24235661666667,102.60599261666667,59.0,87.0
129,102.60599261666667,102.96962861666667,59.0,84.0
130,102.96962861666667,103.88023376666666,59.0,87.0
131,104.06053661666667,104.34689996666667,59.0,89.0
132,104.42417261666667,105.30902021666667,66.0,87.0
133,105.87871661666667,106.18477691666666,68.0,90.0
134,106.24235261666666,106.34992826666667,59.0,87.0
135,106.42417061666667,106.89083681666666,59.0,92.0
136,106.96962461666666,107.06962451666666,59.0,87.0
137,107.15144261666667,107.63477546666667,59.0,94.0
138,107.69689661666666,108.24083546666667,68.0,85.0
139,108.42416861666666,108.50447156666667,68.0,87.0
140,108.60598661666667,108.70598651666667,68.0,87.0
141,108.78780461666666,109.15144061666666,66.0,88.0
142,109.15144061666666,109.51507661666666,66.0,88.0
143,109.51507661666666,109.87871261666666,66.0,88.0
144,109.87871261666666,110.24234861666666,59.0,85.0
145,110.06053061666667,110.60598461666666,68.0,87.0
146,110.60598461666666,111.55446851666667,66.0,87.0
147,111.69689261666667,111.96961961666666,61.0,86.0
148,112.24234661666667,112.77113396666667,64.0,84.0
149,112.78780061666667,113.07416396666666,61.0,94.0
150,113.15143661666667,113.34537581666666,64.0,85.0
151,113.51507261666667,113.85446621666667,64.0,89.0
152,113.87870861666667,114.24234461666667,66.0,88.0
153,114.24234461666667,114.52719281666667,64.0,83.0
154,114.60598061666667,114.96961661666667,63.0,90.0
155,114.96961661666667,115.26810116666667,56.0,79.0
156,115.33325261666667,115.52567666666667,63.0,84.0
157,115.69688861666667,115.87870661666666,56.0,87.0
158,115.87870661666666,116.96961461666666,63.0,85.0
159,117.51506861666667,117.76658351666667,61.0,89.0
160,117.87870461666667,118.09385591666667,64.0,85.0
161,118.24234061666667,118.55143121666667,64.0,92.0
162,118.60597661666667,118.71961286666667,61.0,84.0
163,118.78779461666667,119.28173351666666,64.0,87.0
164,119.33324861666667,119.58476351666667,61.0,87.0
165,119.69688461666667,119.94233891666667,61.0,89.0
166,120.06052061666666,120.32112641666667,59.0,89.0
167,120.42415661666666,121.20142856666666,66.0,80.0
168,121.51506461666666,121.75142801666667,68.0,90.0
169,121.87870061666666,122.14688216666667,66.0,87.0
170,122.24233661666666,122.37718496666666,61.0,84.0
171,122.60597261666666,123.32718401666666,64.0,86.0
172,123.33324461666666,123.44991116666667,61.0,90.0
173,123.51506261666667,123.67869881666667,64.0,83.0
174,123.87869861666667,124.15900136666667,64.0,87.0
175,124.24233461666667,124.34081936666666,64.0,81.0
176,124.42415261666666,124.98324296666667,64.0,87.0
177,125.15142461666667,125.33324261666667,64.0,89.0
178,125.51506061666667,125.83475726666667,64.0,90.0
179,125.87869661666667,125.96809046666667,64.0,85.0
180,126.06051461666667,126.14384786666666,64.0,84.0
181,126.24233261666667,126.47263541666666,64.0,87.0
182,126.60596861666667,126.69081701666667,64.0,86.0
183,126.78778661666666,127.29233156666666,64.0,87.0
184,127.33324061666667,127.65445241666667,61.0,85.0
185,127.69687661666667,128.42414861666668,66.0,88.0
186,128.42414861666668,128.6817241166667,59.0,94.0
187,128.78778461666667,129.09081461666668,59.0,90.0
188,129.15142061666668,129.94535921666667,68.0,87.0
189,130.24232861666667,130.41808601666668,59.0,88.0
190,130.60596461666668,130.82111591666668,59.0,90.0
191,130.96960061666667,131.21657006666666,68.0,92.0
192,131.33323661666668,131.61656966666666,69.0,87.0
193,131.69687261666667,131.94081176666668,68.0,87.0
194,132.06050861666668,132.41050826666668,68.0,90.0
195,132.42414461666667,132.49687181666667,66.0,84.0
196,132.6059626166667,133.06353791666666,66.0,85.0
197,133.15141661666667,133.27262861666668,59.0,87.0
198,133.3332346166667,133.80596141666666,68.0,90.0
199,133.87868861666666,134.40899111666667,66.0,89.0
200,134.96959661666668,135.07565711666666,61.0,87.0
201,135.15141461666667,135.83171696666668,64.0,90.0
202,136.06050461666666,136.15141361666667,64.0,87.0
203,136.24232261666668,136.62565556666667,64.0,90.0
204,136.78777661666666,136.92565526666667,64.0,94.0
205,137.15141261666668,137.39838206666667,66.0,87.0
206,137.51504861666666,137.65747271666666,64.0,88.0
207,137.69686661666668,137.83929071666668,64.0,88.0
208,137.87868461666667,138.15292676666667,63.0,87.0
209,138.2423206166667,138.58322936666667,56.0,85.0
210,138.60595661666667,138.94080476666667,59.0,82.0
211,138.9695926166667,139.0544410166667,56.0,50.0
212,139.15141061666668,139.91353106666668,63.0,87.0
213,140.78777261666667,141.15292376666667,61.0,83.0
214,141.15140861666669,141.77716556666667,52.0,94.0
215,141.87868061666668,142.46049821666668,61.0,94.0
216,142.60595261666668,142.93928561666667,61.0,84.0
217,142.96958861666667,143.28473981666667,63.0,89.0
218,143.33322461666668,143.6483758166667,61.0,83.0
219,143.69686061666667,144.03776936666668,66.0,76.0
220,144.06049661666668,144.24231461666668,59.0,87.0
221,144.24231461666668,144.42413261666667,59.0,87.0
222,144.60595061666666,145.07110166666666,66.0,87.0
223,145.15140461666667,145.75897976666667,64.0,85.0
224,146.60594861666667,146.95897856666667,66.0,75.0
225,146.96958461666668,147.56958401666668,61.0,87.0
226,147.69685661666668,147.88928066666668,59.0,88.0
227,148.06049261666666,148.60594661666667,59.0,89.0
228,148.78776461666666,149.08624916666668,59.0,90.0
229,149.15140061666668,149.43018821666666,59.0,90.0
230,149.51503661666666,149.80291511666667,59.0,92.0
231,149.87867261666668,151.22867126666668,66.0,86.0
232,151.33321661666668,151.50291341666667,59.0,90.0
233,151.6968526166667,151.97109476666668,66.0,85.0
234,152.06048861666667,152.33321561666668,59.0,89.0
235,152.4241246166667,155.24684906666667,64.0,84.0
236,155.33321261666669,155.67260621666668,66.0,84.0
237,155.69684861666667,156.28472681666668,61.0,89.0
238,156.42412061666667,156.6483628166667,59.0,83.0
239,156.78775661666668,157.33018031666668,59.0,85.0
240,157.51502861666668,157.7407859666667,59.0,84.0
241,157.87866461666667,158.10896741666667,59.0,88.0
242,158.24230061666668,158.58926996666668,59.0,85.0
243,158.6059366166667,161.2119946166667,64.0,85.0
244,164.06047661666668,164.3665369166667,68.0,90.0
245,164.4241126166667,164.5316882666667,59.0,87.0
246,164.60593061666668,165.07259681666667,59.0,92.0
247,165.1513846166667,165.2513845166667,59.0,87.0
248,165.33320261666668,165.8165354666667,59.0,94.0
249,165.8786566166667,166.42259546666668,68.0,85.0
250,166.6059286166667,166.6862315666667,68.0,87.0
251,166.78774661666668,166.88774651666668,68.0,87.0
252,166.96956461666667,168.03926051666667,66.0,88.0
253,168.0604726166667,168.42410861666667,63.0,85.0
254,168.42410861666667,169.37259251666669,66.0,87.0
255,169.87865261666667,170.15137961666667,64.0,86.0
256,170.24228861666668,170.3407733666667,56.0,87.0
257,170.42410661666668,170.83622741666667,56.0,83.0
258,170.96956061666668,171.11198471666668,56.0,85.0
259,171.33319661666667,171.67865081666667,64.0,86.0
260,171.69683261666668,172.19834726666667,64.0,85.0
261,172.42410461666668,172.52410451666668,66.0,88.0
262,172.60592261666667,172.70895281666668,64.0,83.0
263,172.7877406166667,173.29531586666667,63.0,90.0
264,173.87864861666668,174.06046661666667,56.0,87.0
265,174.06046661666667,175.1513746166667,63.0,85.0
266,175.6968286166667,176.06046461666668,61.0,84.0
267,176.4241006166667,176.64985796666667,52.0,84.0
268,176.78773661666668,176.96955461666667,52.0,84.0
269,176.96955461666667,177.26955431666667,61.0,84.0
270,177.51500861666668,178.01803841666668,61.0,85.0
271,178.24228061666668,178.35743201666668,59.0,85.0
272,178.4240986166667,178.5286439666667,56.0,85.0
273,178.6059166166667,178.8513709166667,66.0,73.0
274,178.96955261666668,179.6710670666667,59.0,84.0
275,179.69682461666667,180.0210667166667,56.0,84.0
276,180.0604606166667,180.69985391666668,64.0,85.0
277,181.5150046166667,181.83924671666668,66.0,84.0
278,181.87864061666667,182.0104586666667,61.0,83.0
279,182.2422766166667,182.49379151666668,61.0,85.0
280,182.60591261666667,182.69833676666667,59.0,81.0
281,182.7877306166667,183.1846999166667,59.0,86.0
282,183.33318461666667,183.69682061666668,59.0,87.0
283,183.69682061666668,184.06045661666667,59.0,87.0
284,184.06045661666667,184.42409261666668,59.0,84.0
285,184.42409261666668,185.3346977666667,59.0,87.0
286,185.5150006166667,185.80136396666668,59.0,89.0
287,185.87863661666668,186.76348421666668,66.0,87.0
