,start,end,pitch,velocity
0,12.805712860416667,13.15209813125,52.0,83.0
1,12.805712860416667,13.307218491666667,56.0,83.0
2,13.528603860416666,13.629507395833334,52.0,80.0
3,13.167158360416668,14.42619351875,47.0,75.0
4,13.890049360416667,14.689747529166667,52.0,83.0
5,13.890049360416667,14.722880033333334,59.0,83.0
6,14.793663110416666,14.915650966666668,52.0,81.0
7,14.612940360416667,15.162638725,47.0,76.0
8,14.974385860416668,15.385530116666667,56.0,85.0
9,14.974385860416668,15.400590345833335,52.0,84.0
10,14.974385860416668,15.414144552083334,59.0,85.0
11,12.805712860416667,15.557216729166667,40.0,84.0
12,15.335831360416668,15.634023897916666,47.0,83.0
13,15.697276860416666,16.02558985625,52.0,78.0
14,15.697276860416666,16.064746452083334,63.0,84.0
15,15.697276860416666,16.08432475,59.0,79.0
16,15.697276860416666,16.09938497916667,56.0,81.0
17,16.239445110416668,16.356914897916667,52.0,70.0
18,16.42016786041667,16.46836059375,52.0,63.0
19,16.42016786041667,16.555709922916666,59.0,79.0
20,16.781613360416667,17.259022625,52.0,84.0
21,16.781613360416667,17.382516504166666,59.0,85.0
22,17.504504360416668,17.658118697916667,56.0,75.0
23,17.865949860416666,18.028600335416666,52.0,85.0
24,16.058722360416667,18.054202725,47.0,73.0
25,17.865949860416666,18.259021841666666,59.0,85.0
26,17.865949860416666,18.29516639166667,56.0,84.0
27,15.697276860416666,18.33131094166667,40.0,85.0
28,18.22739536041667,18.362937422916666,52.0,77.0
29,18.588840860416667,18.932214085416668,52.0,79.0
30,18.588840860416667,19.0752862625,56.0,78.0
31,19.131009110416667,19.26203310416667,52.0,79.0
32,19.311731860416668,19.471370289583334,56.0,85.0
33,18.950286360416666,19.984924104166666,47.0,83.0
34,19.673177360416666,20.201791404166666,52.0,83.0
35,19.673177360416666,20.4126346125,56.0,82.0
36,19.673177360416666,20.483417689583334,62.0,84.0
37,20.75751386041667,20.92016433541667,52.0,84.0
38,21.118959360416667,21.307212225,52.0,81.0
39,18.588840860416667,21.343356775,40.0,85.0
40,20.75751386041667,21.343356775,56.0,89.0
41,20.75751386041667,21.355404958333335,62.0,84.0
42,20.396068360416667,21.406609737500002,47.0,76.0
43,21.480404860416666,21.861428658333335,52.0,83.0
44,21.480404860416666,22.096368233333333,59.0,85.0
45,22.203587927083333,22.356618077083333,52.0,84.0
46,21.841850360416668,22.691466227083332,47.0,75.0
47,22.567223927083333,22.982375027083332,52.0,90.0
48,22.567223927083333,23.37213323541667,59.0,87.0
49,23.29805923541667,23.46693239791667,52.0,67.0
50,22.930859927083333,23.875031785416667,47.0,82.0
51,21.480404860416666,24.27067012291667,40.0,84.0
52,23.67098209166667,24.318956691666667,56.0,77.0
53,23.67098209166667,24.322071954166667,52.0,81.0
54,24.044813591666667,24.41864509166667,47.0,76.0
55,24.41864509166667,24.877282466666667,64.0,82.0
56,24.41864509166667,24.877282466666667,68.0,84.0
57,24.787888616666667,25.14394886666667,59.0,83.0
58,25.151524616666666,25.330312316666667,64.0,75.0
59,25.151524616666666,25.42576676666667,68.0,78.0
60,25.515160616666666,25.85909966666667,59.0,73.0
61,25.87879661666667,26.124250916666668,68.0,79.0
62,25.87879661666667,26.174250866666668,64.0,73.0
63,26.24243261666667,26.44243241666667,59.0,75.0
64,26.60606861666667,26.772735116666666,59.0,84.0
65,26.60606861666667,27.02879546666667,64.0,84.0
66,26.60606861666667,27.053037866666667,68.0,83.0
67,24.41864509166667,27.115159016666667,40.0,77.0
68,24.41864509166667,27.195461966666667,52.0,76.0
69,26.969704616666668,27.26970431666667,59.0,84.0
70,27.333340616666668,27.80303711666667,63.0,87.0
71,27.333340616666668,27.82424921666667,68.0,81.0
72,27.696976616666667,28.06515806666667,59.0,76.0
73,28.060612616666667,28.17727916666667,68.0,78.0
74,28.060612616666667,28.18637006666667,63.0,76.0
75,28.424248616666667,28.616672666666666,59.0,71.0
76,28.787884616666666,28.977278366666667,63.0,79.0
77,28.787884616666666,28.987884416666667,68.0,73.0
78,29.151520616666666,29.298490166666667,59.0,77.0
79,29.51515661666667,29.87879261666667,68.0,85.0
80,29.51515661666667,29.892428966666667,63.0,90.0
81,27.333340616666668,30.01667126666667,40.0,76.0
82,27.333340616666668,30.072731816666668,52.0,74.0
83,29.87879261666667,30.18788321666667,59.0,88.0
84,30.24242861666667,30.63333731666667,62.0,84.0
85,30.24242861666667,30.63333731666667,68.0,82.0
86,30.606064616666668,30.753034166666666,59.0,76.0
87,30.969700616666668,31.19697311666667,62.0,84.0
88,30.969700616666668,31.201518566666667,68.0,78.0
89,31.333336616666667,31.506063716666667,59.0,71.0
90,31.696972616666667,31.93333601666667,62.0,84.0
91,31.696972616666667,32.02424501666667,68.0,79.0
92,32.06060861666667,32.222729666666666,59.0,77.0
93,32.42424461666667,32.575759616666666,59.0,84.0
94,32.42424461666667,32.807577566666666,62.0,92.0
95,32.42424461666667,32.984850116666664,68.0,84.0
96,30.24242861666667,33.00454706666667,52.0,79.0
97,30.24242861666667,33.010607666666665,40.0,84.0
98,32.78788061666667,33.018183416666666,59.0,81.0
99,33.15151661666667,33.64545551666667,59.0,78.0
100,33.15151661666667,33.76515236666667,63.0,82.0
101,33.51515261666667,33.98787941666667,56.0,76.0
102,33.87878861666667,34.24697006666667,63.0,71.0
103,33.87878861666667,34.33636391666667,59.0,82.0
104,34.24242461666667,34.74999986666667,56.0,83.0
105,34.60606061666667,35.043938966666666,63.0,80.0
106,34.60606061666667,35.05757531666667,59.0,79.0
107,33.87878861666667,35.19090851666667,66.0,74.0
108,34.96969661666667,35.410605266666664,56.0,81.0
109,35.33333261666667,35.99393801666667,63.0,84.0
110,35.33333261666667,35.99696831666667,59.0,82.0
111,33.15151661666667,36.01515011666667,40.0,86.0
112,35.33333261666667,36.02575616666667,66.0,78.0
113,35.696968616666666,36.039392516666666,56.0,85.0
114,36.060604616666666,36.484846616666665,61.0,83.0
115,36.060604616666666,36.50757386666667,57.0,85.0
116,36.424240616666665,36.88939166666667,52.0,85.0
117,36.787876616666665,37.24090646666667,61.0,83.0
118,36.787876616666665,37.301512466666665,57.0,84.0
119,37.151512616666665,37.630300016666666,52.0,83.0
120,37.515148616666664,38.01211781666667,61.0,84.0
121,37.515148616666664,38.083329866666666,57.0,84.0
122,37.878784616666664,38.31969326666667,52.0,79.0
123,38.24242061666667,38.64090506666667,57.0,84.0
124,36.060604616666666,38.734844366666664,45.0,92.0
125,38.24242061666667,38.77575341666667,61.0,84.0
126,38.60605661666667,39.010601666666666,52.0,87.0
127,38.96969261666667,39.44696486666667,56.0,73.0
128,38.96969261666667,39.47575271666667,59.0,76.0
129,39.33332861666667,39.74393426666667,52.0,78.0
130,39.69696461666667,40.09999451666667,56.0,81.0
131,39.69696461666667,40.12120661666667,59.0,84.0
132,38.96969261666667,40.13181266666667,44.0,83.0
133,40.06060061666667,40.212115616666665,52.0,84.0
134,40.42423661666667,40.64241821666667,56.0,77.0
135,40.42423661666667,40.89999371666667,61.0,78.0
136,40.42423661666667,40.89999371666667,64.0,76.0
137,40.78787261666667,41.04999356666667,56.0,78.0
138,40.42423661666667,41.23635701666667,37.0,85.0
139,41.15150861666667,41.44696286666667,61.0,84.0
140,41.15150861666667,41.50150826666667,64.0,80.0
141,41.51514461666667,41.63029601666667,56.0,83.0
142,41.87878061666667,42.074234966666666,54.0,80.0
143,41.87878061666667,42.26362871666667,61.0,85.0
144,41.87878061666667,42.26968931666667,57.0,79.0
145,42.24241661666667,42.59847686666667,54.0,83.0
146,42.60605261666667,42.72877976666667,57.0,78.0
147,42.60605261666667,42.77423426666667,61.0,83.0
148,42.96968861666667,43.19544596666667,54.0,78.0
149,43.33332461666667,43.49090021666667,57.0,81.0
150,43.33332461666667,43.51211231666667,61.0,83.0
151,43.69696061666667,43.87574831666667,54.0,74.0
152,41.87878061666667,43.999990616666665,42.0,85.0
153,44.06059661666667,44.35908116666667,57.0,87.0
154,44.06059661666667,44.60908091666667,61.0,86.0
155,44.42423261666667,44.65908086666667,54.0,85.0
156,44.78786861666667,44.89544426666667,35.0,83.0
157,44.78786861666667,44.98180781666667,54.0,78.0
158,44.78786861666667,45.21059546666667,63.0,85.0
159,44.78786861666667,45.256049966666666,59.0,78.0
160,45.15150461666667,45.36514076666667,54.0,78.0
161,45.51514061666667,45.81362516666667,63.0,85.0
162,45.51514061666667,46.00604921666667,59.0,83.0
163,45.87877661666667,46.29089741666667,54.0,80.0
164,46.24241261666667,46.433321516666666,59.0,76.0
165,46.24241261666667,46.64544251666667,66.0,83.0
166,46.60604861666667,46.87726046666667,54.0,84.0
167,46.96968461666667,47.59847186666667,63.0,86.0
168,46.96968461666667,47.62119911666667,59.0,85.0
169,47.33332061666667,47.63938091666667,54.0,92.0
170,47.69695661666667,48.14998646666667,64.0,82.0
171,47.69695661666667,48.14998646666667,68.0,84.0
172,48.06059261666667,48.41665286666667,59.0,83.0
173,48.42422861666667,48.60301631666667,64.0,75.0
174,48.42422861666667,48.698470766666674,68.0,78.0
175,48.78786461666667,49.13180366666667,59.0,73.0
176,49.15150061666667,49.39695491666667,68.0,79.0
177,49.15150061666667,49.44695486666667,64.0,73.0
178,49.515136616666666,49.71513641666667,59.0,75.0
179,49.878772616666666,50.04543911666667,59.0,84.0
180,49.878772616666666,50.30149946666667,64.0,84.0
181,49.878772616666666,50.32574186666667,68.0,83.0
182,47.69695661666667,50.38786301666667,40.0,77.0
183,47.69695661666667,50.46816596666667,52.0,76.0
184,50.242408616666665,50.542408316666666,59.0,84.0
185,50.606044616666665,51.07574111666667,63.0,87.0
186,50.606044616666665,51.09695321666667,68.0,81.0
187,50.969680616666665,51.33786206666667,59.0,76.0
188,51.333316616666664,51.44998316666667,68.0,78.0
189,51.333316616666664,51.45907406666667,63.0,76.0
190,51.696952616666664,51.889376666666664,59.0,71.0
191,52.060588616666664,52.24998236666667,63.0,79.0
192,52.060588616666664,52.260588416666664,68.0,73.0
193,52.42422461666666,52.57119416666667,59.0,77.0
194,52.78786061666667,53.15149661666667,68.0,85.0
195,52.78786061666667,53.16513296666667,63.0,90.0
196,50.606044616666665,53.28937526666667,40.0,76.0
197,50.606044616666665,53.345435816666665,52.0,74.0
198,53.15149661666667,53.46058721666667,59.0,88.0
199,53.51513261666667,53.90604131666667,62.0,84.0
200,53.51513261666667,53.90604131666667,68.0,82.0
201,53.87876861666667,54.02573816666667,59.0,76.0
202,54.24240461666667,54.469677116666674,62.0,84.0
203,54.24240461666667,54.47422256666667,68.0,78.0
204,54.60604061666667,54.778767716666664,59.0,71.0
205,54.96967661666667,55.20604001666667,62.0,84.0
206,54.96967661666667,55.29694901666667,68.0,79.0
207,55.33331261666667,55.49543366666667,59.0,77.0
208,55.69694861666667,55.84846361666667,59.0,84.0
209,55.69694861666667,56.08028156666667,62.0,92.0
210,55.69694861666667,56.25755411666667,68.0,84.0
211,53.51513261666667,56.277251066666665,52.0,79.0
212,53.51513261666667,56.28331166666667,40.0,84.0
213,56.060584616666674,56.29088741666666,59.0,81.0
214,56.42422061666667,56.91815951666666,59.0,78.0
215,56.42422061666667,57.037856366666674,63.0,82.0
216,56.78785661666667,57.26058341666666,56.0,76.0
217,57.15149261666667,57.51967406666667,63.0,71.0
218,57.15149261666667,57.609067916666675,59.0,82.0
219,57.51512861666667,58.022703866666674,56.0,83.0
220,57.87876461666667,58.31664296666666,63.0,80.0
221,57.87876461666667,58.33027931666666,59.0,79.0
222,57.15149261666667,58.46361251666667,66.0,74.0
223,58.24240061666667,58.68330926666667,56.0,81.0
224,58.60603661666667,59.266642016666665,63.0,84.0
225,58.60603661666667,59.26967231666667,59.0,82.0
226,56.42422061666667,59.287854116666665,40.0,86.0
227,58.60603661666667,59.29846016666667,66.0,78.0
228,58.96967261666667,59.31209651666667,56.0,85.0
229,59.33330861666667,59.75755061666666,61.0,83.0
230,59.33330861666667,59.780277866666665,57.0,85.0
231,59.69694461666667,60.16209566666667,52.0,85.0
232,60.06058061666667,60.51361046666666,61.0,83.0
233,60.06058061666667,60.57421646666667,57.0,84.0
234,60.42421661666667,60.90300401666667,52.0,83.0
235,60.78785261666667,61.284821816666664,61.0,84.0
236,60.78785261666667,61.356033866666664,57.0,84.0
237,61.15148861666667,61.592397266666666,52.0,79.0
238,61.51512461666667,61.913609066666666,57.0,84.0
239,59.33330861666667,62.00754836666667,45.0,92.0
240,61.51512461666667,62.048457416666665,61.0,84.0
241,61.87876061666667,62.283305666666664,52.0,87.0
242,62.24239661666667,62.719668866666666,56.0,73.0
243,62.24239661666667,62.74845671666667,59.0,76.0
244,62.60603261666667,63.016638266666675,52.0,78.0
245,62.96966861666667,63.372698516666674,56.0,81.0
246,62.96966861666667,63.39391061666667,59.0,84.0
247,62.24239661666667,63.404516666666666,44.0,83.0
248,63.333304616666666,63.48481961666667,52.0,84.0
249,63.696940616666666,63.915122216666674,56.0,77.0
250,63.696940616666666,64.17269771666668,61.0,78.0
251,63.696940616666666,64.17269771666668,64.0,76.0
252,64.06057661666667,64.32269756666666,56.0,78.0
253,63.696940616666666,64.50906101666666,37.0,85.0
254,64.42421261666667,64.71966686666667,61.0,84.0
255,64.42421261666667,64.77421226666667,64.0,80.0
256,64.78784861666666,64.90300001666667,56.0,83.0
257,65.15148461666666,65.34693896666667,54.0,80.0
258,65.15148461666666,65.53633271666666,61.0,85.0
259,65.15148461666666,65.54239331666668,57.0,79.0
260,65.51512061666666,65.87118086666666,54.0,83.0
261,65.87875661666666,66.00148376666667,57.0,78.0
262,65.87875661666666,66.04693826666667,61.0,83.0
263,66.24239261666666,66.46814996666667,54.0,78.0
264,66.60602861666666,66.76360421666666,57.0,81.0
265,66.60602861666666,66.78481631666666,61.0,83.0
266,66.96966461666666,67.14845231666666,54.0,74.0
267,65.15148461666666,67.27269461666667,42.0,85.0
268,67.33330061666666,67.63178516666667,57.0,87.0
269,67.33330061666666,67.88178491666667,61.0,86.0
270,67.69693661666668,67.93178486666667,54.0,85.0
271,68.06057261666668,68.16814826666666,35.0,83.0
272,68.06057261666668,68.25451181666666,54.0,78.0
273,68.06057261666668,68.48329946666667,63.0,85.0
274,68.06057261666668,68.52875396666667,59.0,78.0
275,68.42420861666668,68.63784476666667,54.0,78.0
276,68.78784461666667,69.08632916666667,63.0,85.0
277,68.78784461666667,69.27875321666667,59.0,83.0
278,69.15148061666667,69.56360141666667,54.0,80.0
279,69.51511661666667,69.70602551666667,59.0,76.0
280,69.51511661666667,69.91814651666667,66.0,83.0
281,69.87875261666667,70.14996446666667,54.0,84.0
282,70.24238861666667,70.87117586666668,63.0,86.0
283,70.24238861666667,70.89390311666666,59.0,85.0
284,70.60602461666667,70.91208491666667,54.0,92.0
285,70.96966061666667,71.36662991666667,56.0,79.0
286,70.96966061666667,71.60602361666668,52.0,81.0
287,71.69693261666667,71.80450826666667,56.0,86.0
288,71.69693261666667,71.83329611666667,59.0,85.0
289,72.24238661666666,72.51359846666666,52.0,83.0
290,72.42420461666667,72.87874961666667,56.0,80.0
291,72.42420461666667,72.91814351666667,59.0,84.0
292,72.42420461666667,72.92117381666667,64.0,84.0
293,73.15147661666667,73.42571876666666,64.0,85.0
294,72.06056861666667,73.44541571666667,47.0,68.0
295,73.15147661666667,73.53480956666667,59.0,90.0
296,73.15147661666667,73.53632471666667,56.0,87.0
297,70.96966061666667,73.64844581666667,40.0,84.0
298,73.87874861666667,74.36662691666668,63.0,86.0
299,73.87874861666667,74.37571781666666,52.0,81.0
300,74.60602061666667,74.75147501666667,59.0,74.0
301,74.60602061666667,74.75602046666667,56.0,72.0
302,75.15147461666668,75.29238356666667,52.0,79.0
303,75.33329261666667,75.42420161666666,56.0,83.0
304,75.33329261666667,75.42723191666667,63.0,83.0
305,74.24238461666667,75.84086786666667,47.0,69.0
306,75.69692861666667,76.09995851666667,52.0,87.0
307,75.69692861666667,76.13783726666666,56.0,87.0
308,75.69692861666667,76.28480681666667,63.0,90.0
309,76.42420061666667,76.55298836666667,56.0,75.0
310,76.42420061666667,76.57268531666666,52.0,75.0
311,76.42420061666667,76.57268531666666,59.0,77.0
312,73.87874861666667,76.66662461666667,40.0,83.0
313,76.06056461666667,76.67420036666667,47.0,84.0
314,76.78783661666667,77.29389671666667,62.0,78.0
315,76.78783661666667,77.32419971666667,52.0,67.0
316,76.78783661666667,77.34389666666667,56.0,54.0
317,77.51510861666667,77.66662361666667,52.0,84.0
318,77.51510861666667,77.73632051666667,62.0,84.0
319,77.51510861666667,77.73783566666667,56.0,85.0
320,78.06056261666667,78.13025951666667,52.0,76.0
321,78.24238061666667,78.33783506666667,56.0,84.0
322,78.24238061666667,78.34238051666667,52.0,81.0
323,78.24238061666667,78.35601686666666,62.0,81.0
324,78.60601661666666,78.96207686666666,52.0,89.0
325,78.60601661666666,79.29844016666667,62.0,89.0
326,78.60601661666666,79.41207641666666,56.0,92.0
327,78.96965261666666,79.52571266666666,47.0,76.0
328,76.78783661666667,79.54237931666667,40.0,85.0
329,79.33328861666666,79.54843991666667,52.0,83.0
330,79.69692461666666,80.15298476666666,52.0,83.0
331,79.69692461666666,80.15601506666667,59.0,83.0
332,80.06056061666666,80.58631766666667,47.0,71.0
333,80.42419661666666,80.81359016666667,52.0,84.0
334,80.42419661666666,80.89086281666667,59.0,84.0
335,80.78783261666666,81.06965051666667,47.0,70.0
336,81.15146861666668,81.29995331666667,54.0,78.0
337,81.15146861666668,81.30449876666667,59.0,79.0
338,79.69692461666666,82.11055856666667,40.0,84.0
339,81.51510461666668,82.45601276666667,54.0,88.0
340,81.51510461666668,82.50298241666667,59.0,85.0
341,82.60601261666667,83.09692121666667,52.0,83.0
342,82.60601261666667,83.11964846666667,56.0,81.0
343,83.33328461666667,83.38631486666667,56.0,69.0
344,83.33328461666667,83.44995116666666,59.0,80.0
345,83.69692061666667,83.81055686666667,56.0,87.0
346,83.69692061666667,83.82722351666666,52.0,85.0
347,83.69692061666667,83.82873866666667,64.0,84.0
348,84.42419261666667,84.54995006666667,52.0,58.0
349,84.78782861666667,84.86358611666667,52.0,79.0
350,84.78782861666667,85.15752521666667,56.0,85.0
351,84.78782861666667,85.17570701666666,59.0,88.0
352,82.96964861666667,85.18934336666668,47.0,79.0
353,82.60601261666667,85.21207061666667,40.0,85.0
354,85.51510061666667,85.91206991666667,56.0,83.0
355,85.51510061666667,86.14388786666667,59.0,83.0
356,86.60600861666667,86.76964481666667,63.0,89.0
357,86.60600861666667,86.77115996666667,56.0,86.0
358,85.87873661666667,86.77419026666666,51.0,77.0
359,87.33328061666667,87.47115926666667,56.0,74.0
360,85.51510061666667,87.82570436666667,44.0,85.0
361,87.69691661666667,87.88024976666667,56.0,87.0
362,86.96964461666667,87.89085581666667,51.0,79.0
363,87.69691661666667,87.90752246666666,59.0,99.0
364,88.06055261666667,88.34691596666667,44.0,83.0
365,88.42418861666667,88.59388541666667,56.0,83.0
366,88.42418861666667,88.90297601666667,64.0,82.0
367,88.78782461666667,89.03933951666667,56.0,78.0
368,88.42418861666667,89.66055101666666,49.0,83.0
369,89.51509661666667,89.78782361666667,56.0,85.0
370,89.51509661666667,90.07267181666667,64.0,80.0
371,90.24236861666667,90.42570176666666,56.0,82.0
372,90.60600461666667,90.92418611666666,56.0,83.0
373,90.60600461666667,90.98782241666666,49.0,85.0
374,90.60600461666667,91.02418601666666,64.0,83.0
375,90.96964061666667,91.19691311666666,61.0,84.0
376,91.33327661666667,91.76963981666667,59.0,84.0
377,91.33327661666667,91.77721556666667,56.0,79.0
378,92.06054861666667,92.21206361666667,63.0,85.0
379,92.06054861666667,92.21660906666666,56.0,85.0
380,92.60600261666667,92.68024496666666,59.0,79.0
381,91.69691261666667,93.26054741666667,51.0,69.0
382,91.33327661666667,93.80145596666667,44.0,84.0
383,93.15145661666666,93.83933471666667,59.0,92.0
384,93.51509261666666,93.84994076666666,51.0,89.0
385,93.87872861666666,93.98630426666666,56.0,84.0
386,94.24236461666666,94.69842476666666,61.0,84.0
387,94.24236461666666,94.71963686666666,57.0,79.0
388,94.96963661666666,95.25145451666667,57.0,86.0
389,94.96963661666666,95.33478776666666,61.0,85.0
390,94.96963661666666,95.34690896666666,64.0,84.0
391,95.51509061666667,95.60599961666667,57.0,72.0
392,94.60600061666666,95.98630226666667,52.0,70.0
393,95.69690861666666,96.16054451666666,57.0,74.0
394,95.69690861666666,96.21205961666666,61.0,81.0
395,94.24236461666666,96.52115021666667,45.0,90.0
396,96.06054461666666,96.66508946666667,52.0,79.0
397,96.42418061666666,96.66508946666667,57.0,88.0
398,96.42418061666666,96.72569546666666,61.0,88.0
399,96.42418061666666,96.77569541666666,64.0,85.0
400,96.78781661666666,97.02418001666666,45.0,83.0
401,97.15145261666666,97.68478541666667,56.0,79.0
402,97.15145261666666,97.71811871666667,59.0,80.0
403,97.51508861666666,98.17569401666667,51.0,78.0
404,97.15145261666666,98.26357271666667,44.0,85.0
405,97.87872461666667,98.40145136666666,56.0,84.0
406,97.87872461666667,98.40145136666666,59.0,85.0
407,98.60599661666667,99.03781436666667,64.0,83.0
408,98.60599661666667,99.08175371666667,61.0,84.0
409,98.96963261666667,99.16205666666667,56.0,79.0
410,98.60599661666667,99.43175336666667,49.0,84.0
411,99.33326861666667,99.53175326666667,61.0,88.0
412,99.33326861666667,99.59841986666666,56.0,85.0
413,99.69690461666667,99.86357111666666,59.0,84.0
414,100.06054061666667,100.46660081666667,54.0,78.0
415,100.06054061666667,100.50902501666667,57.0,75.0
416,100.78781261666667,101.23175156666666,57.0,85.0
417,100.78781261666667,101.23629701666667,61.0,85.0
418,101.51508461666667,101.65750871666667,66.0,84.0
419,101.51508461666667,101.67266021666667,54.0,87.0
420,101.87872061666667,102.08326586666666,54.0,86.0
421,100.42417661666667,102.45296246666666,49.0,73.0
422,102.24235661666667,102.49993211666667,54.0,84.0
423,100.06054061666667,102.50599271666667,42.0,84.0
424,102.24235661666667,102.67417436666666,61.0,84.0
425,102.60599261666667,102.83932571666666,42.0,86.0
426,102.96962861666667,103.17114356666667,54.0,83.0
427,102.96962861666667,103.38326456666667,59.0,83.0
428,103.33326461666667,103.46811296666667,54.0,77.0
429,103.69690061666667,103.90144586666666,54.0,89.0
430,103.69690061666667,104.11356686666667,63.0,88.0
431,104.42417261666667,104.60750576666666,54.0,85.0
432,104.42417261666667,104.84235401666666,59.0,86.0
433,104.78780861666667,104.95144481666667,54.0,83.0
434,105.15144461666667,105.43629281666666,57.0,89.0
435,102.96962861666667,105.77720156666666,47.0,90.0
436,105.51508061666667,105.78326216666666,54.0,84.0
437,105.87871661666667,106.36962521666666,52.0,83.0
438,105.87871661666667,106.39235246666667,56.0,81.0
439,106.60598861666666,106.65901886666667,56.0,69.0
440,106.60598861666666,106.72265516666667,59.0,80.0
441,106.96962461666666,107.08326086666666,56.0,87.0
442,106.96962461666666,107.09992751666667,52.0,85.0
443,106.96962461666666,107.10144266666667,64.0,84.0
444,107.69689661666666,107.82265406666667,52.0,58.0
445,108.06053261666666,108.13629011666667,52.0,79.0
446,108.06053261666666,108.43022921666666,56.0,85.0
447,108.06053261666666,108.44841101666667,59.0,88.0
448,106.24235261666666,108.46204736666667,47.0,79.0
449,105.87871661666667,108.48477461666667,40.0,85.0
450,108.78780461666666,109.18477391666667,56.0,83.0
451,108.78780461666666,109.41659186666666,59.0,83.0
452,109.87871261666666,110.04234881666666,63.0,89.0
453,109.87871261666666,110.04386396666666,56.0,86.0
454,109.15144061666666,110.04689426666667,51.0,77.0
455,110.60598461666666,110.74386326666666,56.0,74.0
456,108.78780461666666,111.09840836666666,44.0,85.0
457,110.96962061666666,111.15295376666667,56.0,87.0
458,110.24234861666666,111.16355981666666,51.0,79.0
459,110.96962061666666,111.18022646666667,59.0,99.0
460,111.33325661666667,111.61961996666666,44.0,83.0
461,111.69689261666667,111.86658941666667,56.0,83.0
462,111.69689261666667,112.17568001666666,64.0,82.0
463,112.06052861666667,112.31204351666666,56.0,78.0
464,111.69689261666667,112.93325501666666,49.0,83.0
465,112.78780061666667,113.06052761666666,56.0,85.0
466,112.78780061666667,113.34537581666666,64.0,80.0
467,113.51507261666667,113.69840576666667,56.0,82.0
468,113.87870861666667,114.19689011666667,56.0,83.0
469,113.87870861666667,114.26052641666666,49.0,85.0
470,113.87870861666667,114.29689001666667,64.0,83.0
471,114.24234461666667,114.46961711666667,61.0,84.0
472,114.60598061666667,115.04234381666667,59.0,84.0
473,114.60598061666667,115.04991956666667,56.0,79.0
474,115.33325261666667,115.48476761666667,63.0,85.0
475,115.33325261666667,115.48931306666667,56.0,85.0
476,115.87870661666666,115.95294896666667,59.0,79.0
477,114.96961661666667,116.53325141666667,51.0,69.0
478,114.60598061666667,117.07415996666667,44.0,84.0
479,116.42416061666667,117.11203871666666,59.0,92.0
480,116.78779661666667,117.12264476666667,51.0,89.0
481,117.15143261666667,117.25900826666667,56.0,84.0
482,117.51506861666667,117.97112876666667,61.0,84.0
483,117.51506861666667,117.99234086666667,57.0,79.0
484,118.24234061666667,118.52415851666667,57.0,86.0
485,118.24234061666667,118.60749176666667,61.0,85.0
486,118.24234061666667,118.61961296666666,64.0,84.0
487,118.78779461666667,118.87870361666667,57.0,72.0
488,117.87870461666667,119.25900626666667,52.0,70.0
489,118.96961261666667,119.43324851666667,57.0,74.0
490,118.96961261666667,119.48476361666667,61.0,81.0
491,117.51506861666667,119.79385421666667,45.0,90.0
492,119.33324861666667,119.93779346666666,52.0,79.0
493,119.69688461666667,119.93779346666666,57.0,88.0
494,119.69688461666667,119.99839946666667,61.0,88.0
495,119.69688461666667,120.04839941666667,64.0,85.0
496,120.06052061666666,120.29688401666667,45.0,83.0
497,120.42415661666666,120.95748941666666,56.0,79.0
498,120.42415661666666,120.99082271666667,59.0,80.0
499,120.78779261666666,121.44839801666667,51.0,78.0
500,120.42415661666666,121.53627671666666,44.0,85.0
501,121.15142861666666,121.67415536666667,56.0,84.0
502,121.15142861666666,121.67415536666667,59.0,85.0
503,121.87870061666666,122.31051836666667,64.0,83.0
504,121.87870061666666,122.35445771666667,61.0,84.0
505,122.24233661666666,122.43476066666666,56.0,79.0
506,121.87870061666666,122.70445736666667,49.0,84.0
507,122.60597261666666,122.80445726666667,61.0,88.0
508,122.60597261666666,122.87112386666666,56.0,85.0
509,122.96960861666666,123.13627511666667,59.0,84.0
510,123.33324461666666,123.77112296666667,61.0,83.0
511,123.33324461666666,123.90597131666667,57.0,80.0
512,124.06051661666666,124.25294066666666,61.0,84.0
513,124.06051661666666,124.27112246666667,57.0,76.0
514,124.06051661666666,124.28021336666667,64.0,84.0
515,124.60597061666667,124.75900076666667,61.0,86.0
516,124.60597061666667,124.80597041666667,57.0,85.0
517,124.60597061666667,124.83172796666666,69.0,83.0
518,123.69688061666666,125.30142446666667,52.0,67.0
519,125.15142461666667,125.53324241666667,57.0,78.0
520,125.15142461666667,125.54839391666667,61.0,84.0
521,123.33324461666666,125.62718171666667,45.0,89.0
522,125.51506061666667,125.84687846666667,52.0,74.0
523,125.69687861666667,125.96354501666667,57.0,85.0
524,125.87869661666667,126.00142376666666,61.0,77.0
525,126.24233261666667,126.70293821666667,59.0,77.0
526,126.24233261666667,126.70748366666666,63.0,83.0
527,126.96960461666667,127.12869536666666,66.0,84.0
528,126.96960461666667,127.13627111666666,63.0,87.0
529,126.96960461666667,127.15293776666667,59.0,85.0
530,126.60596861666667,127.16808926666667,54.0,76.0
531,127.33324061666667,127.63475546666666,54.0,74.0
532,127.51505861666666,127.72869476666666,59.0,85.0
533,127.51505861666666,127.79536136666667,63.0,88.0
534,127.51505861666666,127.79536136666667,66.0,85.0
535,128.06051261666667,128.24384576666668,59.0,90.0
536,128.42414861666668,128.45142131666668,59.0,67.0
537,127.69687661666667,128.56505756666667,54.0,72.0
538,128.42414861666668,128.97717836666666,71.0,80.0
539,128.42414861666668,129.01808741666667,63.0,94.0
540,128.42414861666668,129.0317237666667,66.0,88.0
541,128.96960261666666,129.14232971666667,59.0,89.0
542,126.24233261666667,129.14990546666667,47.0,87.0
543,128.78778461666667,129.18778421666667,54.0,87.0
544,129.15142061666668,129.64232921666667,52.0,83.0
545,129.15142061666668,129.66505646666667,56.0,81.0
546,129.87869261666668,129.93172286666666,56.0,69.0
547,129.87869261666668,129.99535916666667,59.0,80.0
548,130.24232861666667,130.35596486666668,56.0,87.0
549,130.24232861666667,130.37263151666667,52.0,85.0
550,130.24232861666667,130.37414666666666,64.0,84.0
551,130.96960061666667,131.09535806666668,52.0,58.0
552,131.33323661666668,131.40899411666666,52.0,79.0
553,131.33323661666668,131.70293321666668,56.0,85.0
554,131.33323661666668,131.7211150166667,59.0,88.0
555,129.51505661666667,131.73475136666667,47.0,79.0
556,129.15142061666668,131.75747861666667,40.0,85.0
557,132.06050861666668,132.45747791666668,56.0,83.0
558,132.06050861666668,132.68929586666667,59.0,83.0
559,133.15141661666667,133.31505281666668,63.0,89.0
560,133.15141661666667,133.31656796666667,56.0,86.0
561,132.42414461666667,133.31959826666667,51.0,77.0
562,133.87868861666666,134.01656726666667,56.0,74.0
563,132.06050861666668,134.37111236666667,44.0,85.0
564,134.24232461666668,134.4256577666667,56.0,87.0
565,133.51505261666668,134.43626381666667,51.0,79.0
566,134.24232461666668,134.4529304666667,59.0,99.0
567,134.60596061666666,134.89232396666668,44.0,83.0
568,134.96959661666668,135.13929341666667,56.0,83.0
569,134.96959661666668,135.44838401666667,64.0,82.0
570,135.33323261666666,135.58474751666668,56.0,78.0
571,134.96959661666668,136.20595901666667,49.0,83.0
572,136.06050461666666,136.33323161666667,56.0,85.0
573,136.06050461666666,136.61807981666666,64.0,80.0
574,136.78777661666666,136.97110976666667,56.0,82.0
575,137.15141261666668,137.46959411666668,56.0,83.0
576,137.15141261666668,137.53323041666667,49.0,85.0
577,137.15141261666668,137.56959401666668,64.0,83.0
578,137.51504861666666,137.7423211166667,61.0,84.0
579,137.87868461666667,138.31504781666666,59.0,84.0
580,137.87868461666667,138.32262356666666,56.0,79.0
581,138.60595661666667,138.75747161666666,63.0,85.0
582,138.60595661666667,138.7620170666667,56.0,85.0
583,139.15141061666668,139.22565296666667,59.0,79.0
584,138.2423206166667,139.80595541666668,51.0,69.0
585,137.87868461666667,140.3468639666667,44.0,84.0
586,139.6968646166667,140.38474271666666,59.0,92.0
587,140.06050061666667,140.39534876666667,51.0,89.0
588,140.4241366166667,140.5317122666667,56.0,84.0
589,140.78777261666667,141.24383276666669,61.0,84.0
590,140.78777261666667,141.26504486666667,57.0,79.0
591,141.51504461666667,141.79686251666666,57.0,86.0
592,141.51504461666667,141.88019576666667,61.0,85.0
593,141.51504461666667,141.89231696666667,64.0,84.0
594,142.06049861666668,142.1514076166667,57.0,72.0
595,141.15140861666669,142.53171026666666,52.0,70.0
596,142.24231661666667,142.70595251666668,57.0,74.0
597,142.24231661666667,142.75746761666667,61.0,81.0
598,140.78777261666667,143.06655821666666,45.0,90.0
599,142.60595261666668,143.21049746666668,52.0,79.0
600,142.96958861666667,143.21049746666668,57.0,88.0
601,142.96958861666667,143.2711034666667,61.0,88.0
602,142.96958861666667,143.3211034166667,64.0,85.0
603,143.33322461666668,143.56958801666667,45.0,83.0
604,143.69686061666667,144.23019341666668,56.0,79.0
605,143.69686061666667,144.26352671666666,59.0,80.0
606,144.06049661666668,144.72110201666666,51.0,78.0
607,143.69686061666667,144.80898071666667,44.0,85.0
608,144.42413261666667,144.94685936666667,56.0,84.0
609,144.42413261666667,144.94685936666667,59.0,85.0
610,145.15140461666667,145.5832223666667,64.0,83.0
611,145.15140461666667,145.62716171666668,61.0,84.0
612,145.51504061666668,145.70746466666668,56.0,79.0
613,145.15140461666667,145.97716136666668,49.0,84.0
614,145.87867661666667,146.07716126666668,61.0,88.0
615,145.87867661666667,146.14382786666667,56.0,85.0
616,146.24231261666668,146.40897911666667,59.0,84.0
617,146.60594861666667,147.04382696666667,61.0,83.0
618,146.60594861666667,147.17867531666667,57.0,80.0
619,147.33322061666667,147.52564466666666,61.0,84.0
620,147.33322061666667,147.54382646666667,57.0,76.0
621,147.33322061666667,147.55291736666666,64.0,84.0
622,147.87867461666667,148.03170476666668,61.0,86.0
623,147.87867461666667,148.07867441666667,57.0,85.0
624,147.87867461666667,148.10443196666668,69.0,83.0
625,146.96958461666668,148.57412846666668,52.0,67.0
626,148.42412861666668,148.80594641666667,57.0,78.0
627,148.42412861666668,148.82109791666667,61.0,84.0
628,146.60594861666667,148.8998857166667,45.0,89.0
629,148.78776461666666,149.11958246666669,52.0,74.0
630,148.96958261666668,149.23624901666668,57.0,85.0
631,149.15140061666668,149.27412776666668,61.0,77.0
632,149.51503661666666,149.97564221666667,59.0,77.0
633,149.51503661666666,149.98018766666667,63.0,83.0
634,150.24230861666666,150.40139936666668,66.0,84.0
635,150.24230861666666,150.40897511666668,63.0,87.0
636,150.24230861666666,150.42564176666667,59.0,85.0
637,149.87867261666668,150.44079326666667,54.0,76.0
638,150.60594461666668,150.90745946666667,54.0,74.0
639,150.78776261666667,151.00139876666668,59.0,85.0
640,150.78776261666667,151.06806536666667,63.0,88.0
641,150.78776261666667,151.06806536666667,66.0,85.0
642,151.33321661666668,151.51654976666669,59.0,90.0
643,151.6968526166667,151.7241253166667,59.0,67.0
644,150.96958061666666,151.83776156666667,54.0,72.0
645,151.6968526166667,152.24988236666667,71.0,80.0
646,151.6968526166667,152.29079141666668,63.0,94.0
647,151.6968526166667,152.30442776666666,66.0,88.0
648,152.24230661666667,152.41503371666667,59.0,89.0
649,149.51503661666666,152.42260946666667,47.0,87.0
650,152.06048861666667,152.46048821666668,54.0,87.0
651,152.4241246166667,152.94988166666667,56.0,83.0
652,152.4241246166667,152.98321496666668,59.0,85.0
653,153.1513966166667,153.24533591666668,64.0,78.0
654,153.1513966166667,153.24836621666668,56.0,77.0
655,153.1513966166667,153.24836621666668,59.0,84.0
656,152.78776061666667,153.64533551666668,47.0,71.0
657,153.51503261666667,154.20594101666669,56.0,84.0
658,153.51503261666667,154.20745616666667,64.0,84.0
659,153.51503261666667,154.28472881666667,59.0,92.0
660,152.4241246166667,154.66200116666667,40.0,85.0
661,154.24230461666667,154.69836476666669,47.0,76.0
662,154.6059406166667,154.72715261666667,56.0,85.0
663,154.78775861666668,154.8786676166667,56.0,76.0
664,154.6059406166667,154.92260696666668,59.0,90.0
665,155.33321261666669,155.8589696666667,57.0,83.0
666,155.33321261666669,155.98927256666667,61.0,83.0
667,156.06048461666668,156.16502996666668,57.0,74.0
668,155.69684861666667,156.5559386666667,52.0,62.0
669,155.33321261666669,156.6604840166667,45.0,88.0
670,156.42412061666667,157.2104834666667,64.0,83.0
671,156.42412061666667,157.24230161666668,57.0,87.0
672,157.15139261666667,157.53927101666667,45.0,88.0
673,157.51502861666668,157.6377557666667,57.0,89.0
674,157.51502861666668,157.6529072666667,61.0,84.0
675,157.51502861666668,157.67260421666668,64.0,83.0
676,158.24230061666668,158.76199706666668,60.0,84.0
677,158.24230061666668,159.80593541666667,52.0,84.0
678,158.24230061666668,159.80896571666668,45.0,85.0
679,158.24230061666668,159.85138991666668,57.0,84.0
680,164.06047661666668,164.51350646666668,64.0,82.0
681,164.06047661666668,164.51350646666668,68.0,84.0
682,164.4241126166667,164.78017286666667,59.0,83.0
683,164.78774861666668,164.9665363166667,64.0,75.0
684,164.78774861666668,165.0619907666667,68.0,78.0
685,165.1513846166667,165.49532366666668,59.0,73.0
686,165.51502061666667,165.76047491666668,68.0,79.0
687,165.51502061666667,165.81047486666668,64.0,73.0
688,165.8786566166667,166.0786564166667,59.0,75.0
689,166.24229261666667,166.4089591166667,59.0,84.0
690,166.24229261666667,166.66501946666668,64.0,84.0
691,166.24229261666667,166.68926186666667,68.0,83.0
692,164.06047661666668,166.7513830166667,40.0,77.0
693,164.06047661666668,166.83168596666667,52.0,76.0
694,166.6059286166667,166.9059283166667,59.0,84.0
695,166.96956461666667,167.43926111666667,63.0,87.0
696,166.96956461666667,167.46047321666668,68.0,81.0
697,167.3332006166667,167.7013820666667,59.0,76.0
698,167.69683661666667,167.8135031666667,68.0,78.0
699,167.69683661666667,167.82259406666668,63.0,76.0
700,168.0604726166667,168.2528966666667,59.0,71.0
701,168.42410861666667,168.6135023666667,63.0,79.0
702,168.42410861666667,168.62410841666667,68.0,73.0
703,168.78774461666669,168.93471416666668,59.0,77.0
704,169.15138061666667,169.51501661666668,68.0,85.0
705,169.15138061666667,169.52865296666667,63.0,90.0
706,166.96956461666667,169.6528952666667,40.0,76.0
707,166.96956461666667,169.70895581666667,52.0,74.0
708,169.51501661666668,169.82410721666668,59.0,88.0
709,169.87865261666667,170.26956131666668,62.0,84.0
710,169.87865261666667,170.26956131666668,68.0,82.0
711,170.24228861666668,170.38925816666668,59.0,76.0
712,170.60592461666667,170.8331971166667,62.0,84.0
713,170.60592461666667,170.8377425666667,68.0,78.0
714,170.96956061666668,171.1422877166667,59.0,71.0
715,171.33319661666667,171.56956001666668,62.0,84.0
716,171.33319661666667,171.6604690166667,68.0,79.0
717,171.69683261666668,171.85895366666668,59.0,77.0
718,172.0604686166667,172.21198361666669,59.0,84.0
719,172.0604686166667,172.44380156666668,62.0,92.0
720,172.0604686166667,172.62107411666668,68.0,84.0
721,169.87865261666667,172.64077106666667,52.0,79.0
722,169.87865261666667,172.64683166666669,40.0,84.0
723,172.42410461666668,172.6544074166667,59.0,81.0
724,172.7877406166667,173.28167951666669,59.0,78.0
725,172.7877406166667,173.40137636666668,63.0,82.0
726,173.15137661666668,173.62410341666669,56.0,76.0
727,173.5150126166667,173.88319406666668,63.0,71.0
728,173.5150126166667,173.9725879166667,59.0,82.0
729,173.87864861666668,174.38622386666668,56.0,83.0
730,174.2422846166667,174.68016296666667,63.0,80.0
731,174.2422846166667,174.69379931666668,59.0,79.0
732,173.5150126166667,174.8271325166667,66.0,74.0
733,174.60592061666668,175.0468292666667,56.0,81.0
734,174.9695566166667,175.63016201666667,63.0,84.0
735,174.9695566166667,175.63319231666668,59.0,82.0
736,172.7877406166667,175.6513741166667,40.0,86.0
737,174.9695566166667,175.6619801666667,66.0,78.0
738,175.33319261666668,175.67561651666668,56.0,85.0
739,175.6968286166667,176.12107061666669,61.0,83.0
740,175.6968286166667,176.1437978666667,57.0,85.0
741,176.06046461666668,176.52561566666668,52.0,85.0
742,176.4241006166667,176.87713046666667,61.0,83.0
743,176.4241006166667,176.93773646666668,57.0,84.0
744,176.78773661666668,177.2665240166667,52.0,83.0
745,177.1513726166667,177.6483418166667,61.0,84.0
746,177.1513726166667,177.71955386666667,57.0,84.0
747,177.51500861666668,177.9559172666667,52.0,79.0
748,177.8786446166667,178.27712906666667,57.0,84.0
749,175.6968286166667,178.3710683666667,45.0,92.0
750,177.8786446166667,178.41197741666667,61.0,84.0
751,178.24228061666668,178.64682566666667,52.0,87.0
752,178.6059166166667,179.0831888666667,56.0,73.0
753,178.6059166166667,179.11197671666667,59.0,76.0
754,178.96955261666668,179.38015826666668,52.0,78.0
755,179.3331886166667,179.7362185166667,56.0,81.0
756,179.3331886166667,179.75743061666668,59.0,84.0
757,178.6059166166667,179.7680366666667,44.0,83.0
758,179.69682461666667,179.8483396166667,52.0,84.0
759,180.0604606166667,180.2786422166667,56.0,77.0
760,180.0604606166667,180.53621771666667,61.0,78.0
761,180.0604606166667,180.53621771666667,64.0,76.0
762,180.42409661666667,180.68621756666667,56.0,78.0
763,180.0604606166667,180.8725810166667,37.0,85.0
764,180.7877326166667,181.0831868666667,61.0,84.0
765,180.7877326166667,181.1377322666667,64.0,80.0
766,181.15136861666667,181.26652001666668,56.0,83.0
767,181.5150046166667,181.7104589666667,54.0,80.0
768,181.5150046166667,181.8998527166667,61.0,85.0
769,181.5150046166667,181.90591331666667,57.0,79.0
770,181.87864061666667,182.23470086666669,54.0,83.0
771,182.2422766166667,182.3650037666667,57.0,78.0
772,182.2422766166667,182.4104582666667,61.0,83.0
773,182.60591261666667,182.83166996666668,54.0,78.0
774,182.96954861666669,183.1271242166667,57.0,81.0
775,182.96954861666669,183.14833631666667,61.0,83.0
776,183.33318461666667,183.5119723166667,54.0,74.0
777,181.5150046166667,183.63621461666668,42.0,85.0
778,183.69682061666668,183.9953051666667,57.0,87.0
779,183.69682061666668,184.2453049166667,61.0,86.0
780,184.06045661666667,184.2953048666667,54.0,85.0
781,184.42409261666668,184.53166826666668,35.0,83.0
782,184.42409261666668,184.61803181666667,54.0,78.0
783,184.42409261666668,184.8468194666667,63.0,85.0
784,184.42409261666668,184.8922739666667,59.0,78.0
785,184.78772861666667,185.00136476666668,54.0,78.0
786,185.15136461666668,185.4498491666667,63.0,85.0
787,185.15136461666668,185.6422732166667,59.0,83.0
788,185.5150006166667,185.9271214166667,54.0,80.0
789,185.87863661666668,186.0695455166667,59.0,76.0
790,185.87863661666668,186.2816665166667,66.0,83.0
791,186.2422726166667,186.51348446666668,54.0,84.0
792,186.60590861666668,187.6740893666667,66.0,86.0
793,186.60590861666668,187.6968166166667,59.0,85.0
794,193.24681106666668,196.27559591666667,47.0,55.0
795,193.05893246666668,196.31347466666668,40.0,79.0
796,193.2255989666667,196.41802001666667,52.0,71.0
797,193.3074170666667,196.43317151666668,56.0,74.0
798,193.37408366666668,196.43771696666667,59.0,58.0
799,193.4225684666667,196.4695351166667,64.0,64.0
