,start,end,pitch,velocity
0,12.282725812499999,12.413678062499999,75.0,90.0
1,12.461297062499998,12.571416,73.0,96.0
2,12.639868312499999,12.915165656249998,75.0,92.0
3,12.9970108125,13.080344062499998,73.0,96.0
4,13.175582062499998,13.763379093749998,75.0,92.0
5,14.068438312499998,14.324390437499998,73.0,91.0
6,14.425580812499998,14.66516390625,71.0,86.0
7,14.782723312499998,15.047603999999998,73.0,92.0
8,15.139865812499998,15.883912687499999,71.0,88.0
9,17.2827208125,17.4255778125,73.0,96.0
10,17.639863312499998,17.77230365625,75.0,89.0
11,17.8184345625,17.90920828125,73.0,92.0
12,17.9970058125,18.11158903125,75.0,89.0
13,18.175577062499997,18.285695999999998,73.0,86.0
14,18.354148312499998,18.596707593749997,75.0,92.0
15,18.711290812499996,18.95682628125,78.0,86.0
16,19.425575812499996,19.691944593749998,76.0,86.0
17,19.7827183125,19.985099062499998,75.0,92.0
18,20.139860812499997,20.2410511875,73.0,92.0
19,20.318432062499998,20.79611015625,76.0,90.0
20,20.854145812499997,21.952358999999998,75.0,88.0
21,23.711285812499998,23.827357125,78.0,87.0
22,23.8898570625,23.985095062499997,80.0,87.0
23,24.068428312499996,24.290154281249997,80.0,88.0
24,24.4255708125,24.529737374999996,80.0,91.0
25,24.604142062499996,25.058010656249998,78.0,92.0
26,25.1398558125,25.5981886875,71.0,91.0
27,26.925568312499998,27.395805937499997,73.0,91.0
28,27.461282062499997,27.571400999999998,75.0,86.0
29,27.639853312499998,27.913662562499997,73.0,92.0
30,27.996995812499996,28.3481859375,71.0,87.0
31,28.532709562499996,28.611578531249997,73.0,96.0
32,28.711280812499997,28.808006906249997,73.0,99.0
33,28.889852062499997,28.985090062499996,75.0,89.0
34,29.0684233125,29.308006406249998,76.0,88.0
35,29.425565812499997,29.671101281249996,78.0,89.0
36,29.782708312499995,30.040148531249997,76.0,87.0
37,30.139850812499997,30.391338656249996,75.0,94.0
38,30.496993312499995,30.904730999999998,75.0,91.0
39,31.032707062499995,31.319909156249995,71.0,86.0
40,31.568420812499998,32.126455968749994,71.0,92.0
41,32.2827058125,33.08925262499999,73.0,91.0
42,35.1398458125,35.2707980625,75.0,90.0
43,35.3184170625,35.428535999999994,73.0,96.0
44,35.496988312499994,35.77228565625,75.0,92.0
45,35.854130812499996,35.9374640625,73.0,96.0
46,36.03270206249999,36.62049909375,75.0,92.0
47,36.925558312499994,37.1041295625,73.0,91.0
48,37.282700812499996,37.461272062499994,73.0,91.0
49,37.461272062499994,37.6398433125,71.0,86.0
50,37.6398433125,37.904723999999995,73.0,92.0
51,37.99698581249999,38.741032687499995,71.0,88.0
52,40.1398408125,40.2826978125,73.0,96.0
53,40.49698331249999,40.62942365625,75.0,89.0
54,40.6755545625,40.76632828125,73.0,92.0
55,40.854125812499994,40.96870903124999,75.0,89.0
56,41.0326970625,41.142815999999996,73.0,86.0
57,41.211268312499996,41.45382759374999,75.0,92.0
58,41.5684108125,41.81394628125,78.0,86.0
59,42.282695812499995,42.549064593749996,76.0,86.0
60,42.6398383125,42.84221906249999,75.0,92.0
61,42.9969808125,43.09817118749999,73.0,92.0
62,43.175552062499996,43.65323015625,76.0,90.0
63,43.711265812499995,44.809478999999996,75.0,88.0
64,46.568405812499996,46.684477124999994,78.0,87.0
65,46.746977062499994,46.842215062499996,80.0,87.0
66,46.92554831249999,47.14727428124999,80.0,88.0
67,47.28269081249999,47.386857375,80.0,91.0
68,47.4612620625,47.91513065624999,78.0,92.0
69,47.9969758125,48.45530868749999,71.0,91.0
70,49.78268831249999,50.252925937499995,73.0,91.0
71,50.31840206249999,50.428520999999996,75.0,86.0
72,50.496973312499996,50.770782562499996,73.0,92.0
73,50.85411581249999,51.20530593749999,71.0,87.0
74,51.3898295625,51.46869853124999,73.0,96.0
75,51.568400812499995,51.665126906249995,75.0,99.0
76,51.74697206249999,51.842210062499994,76.0,89.0
77,51.9255433125,52.165126406249996,78.0,88.0
78,52.28268581249999,52.461257062499996,83.0,89.0
79,52.461257062499996,52.81839956249999,83.0,89.0
80,52.996970812499995,53.17554206249999,78.0,87.0
81,53.17554206249999,53.3541133125,78.0,94.0
82,53.3541133125,53.532684562499995,80.0,91.0
83,53.532684562499995,53.71125581249999,78.0,91.0
84,53.71125581249999,54.068398312499994,78.0,91.0
85,54.068398312499994,54.34964803124999,75.0,92.0
86,54.425540812499996,54.65024296874999,73.0,91.0
87,54.78268331249999,55.086254437499996,73.0,99.0
88,55.13982581249999,56.59666959374999,71.0,87.0
89,58.71125081249999,58.97761959374999,75.0,96.0
90,59.06839331249999,59.334762093749994,75.0,96.0
91,59.425535812499994,59.687440312499994,76.0,89.0
92,59.782678312499996,60.022261406249996,78.0,91.0
93,60.13982081249999,60.37345153124999,80.0,87.0
94,60.49696331249999,61.04011753124999,78.0,89.0
95,61.21124831249999,61.43595046874999,83.0,89.0
96,61.56839081249999,61.941902343749994,78.0,89.0
97,62.282675812499996,62.57731837499999,76.0,91.0
98,62.63981831249999,62.91660374999999,73.0,96.0
99,62.99696081249999,63.27821053124999,76.0,91.0
100,63.354103312499994,64.16065012499999,75.0,90.0
101,64.42553081249999,64.67404246874999,71.0,89.0
102,64.7826733125,65.06689921875,71.0,92.0
103,65.13981581249999,65.37939890624999,73.0,96.0
104,65.4969583125,65.73207712499999,75.0,90.0
105,65.8541008125,66.12046959374999,76.0,89.0
106,66.21124331249999,66.71124281249999,78.0,87.0
107,66.92552831249999,67.48356346874999,73.0,99.0
108,67.6398133125,67.9374320625,76.0,87.0
109,67.99695581249999,68.26332459375,75.0,90.0
110,68.35409831249999,68.60409806249999,73.0,101.0
111,68.7112408125,69.77373974999999,75.0,89.0
112,70.13981081249999,70.35856059375,75.0,96.0
113,70.4969533125,70.75141734374999,75.0,96.0
114,70.85409581249999,71.08475034374999,76.0,89.0
115,71.21123831249999,71.4195714375,78.0,87.0
116,71.5683808125,71.78117821874999,80.0,87.0
117,71.92552331249999,72.35111812499999,82.0,88.0
118,72.6398083125,73.09367690625,75.0,94.0
119,73.3540933125,73.58772403124999,75.0,94.0
120,73.7112358125,74.32135424999998,73.0,101.0
121,74.4255208125,75.39426984375,71.0,92.0
122,75.85409081249999,76.10706674999999,71.0,91.0
123,76.21123331249999,76.4552806875,80.0,87.0
124,76.5683758125,76.80200653124999,82.0,89.0
125,76.92551831249999,77.16510140624999,83.0,87.0
126,77.2826608125,77.52522009375,82.0,87.0
127,77.63980331249999,78.18146943749998,80.0,88.0
128,78.71123081249999,79.60259896874999,78.0,91.0
129,79.78265831249999,79.98057478124998,80.0,87.0
130,80.13980081249998,81.32878771875,78.0,88.0
131,81.56837081249999,81.83473959374999,75.0,96.0
132,81.92551331249999,82.19188209375,75.0,96.0
133,82.2826558125,82.5445603125,76.0,89.0
134,82.63979831249999,82.87938140624999,78.0,91.0
135,82.99694081249999,83.23057153124999,80.0,87.0
136,83.3540833125,83.89723753124998,78.0,89.0
137,84.06836831249998,84.29307046874999,83.0,89.0
138,84.4255108125,84.79902234375,78.0,89.0
139,85.1397958125,85.43443837499998,76.0,91.0
140,85.49693831249999,85.77372374999999,73.0,96.0
141,85.85408081249999,86.13533053124999,76.0,91.0
142,86.2112233125,87.01777012499998,75.0,90.0
143,87.2826508125,87.53116246875,71.0,89.0
144,87.63979331249999,87.92401921874999,71.0,92.0
145,87.99693581249998,88.23651890624998,73.0,96.0
146,88.3540783125,88.58919712499998,75.0,90.0
147,88.71122081249999,88.97758959375,76.0,89.0
148,89.06836331249998,89.56836281249998,78.0,87.0
149,89.78264831249999,90.34068346874999,73.0,99.0
150,90.49693331249999,90.79455206249999,76.0,87.0
151,90.85407581249999,91.12044459375,75.0,90.0
152,91.2112183125,91.4612180625,73.0,101.0
153,91.56836081249999,92.63085974999998,75.0,89.0
154,92.99693081249998,93.21568059375,75.0,96.0
155,93.35407331249999,93.60853734374999,75.0,96.0
156,93.71121581249999,93.94187034374998,76.0,89.0
157,94.0683583125,94.27669143749999,78.0,87.0
158,94.42550081249999,94.63829821875,80.0,87.0
159,94.78264331249999,95.208238125,82.0,88.0
160,95.49692831249999,95.95079690624999,75.0,94.0
161,96.21121331249999,96.44484403124999,75.0,94.0
162,96.56835581249999,97.17847425,82.0,101.0
163,97.28264081249999,98.25138984374999,83.0,92.0
164,98.71121081249998,99.03561524999999,80.0,89.0
165,99.0683533125,99.33174590624999,78.0,86.0
166,99.42549581249999,99.69632887499999,80.0,86.0
167,99.78263831249998,100.01329284375,78.0,91.0
168,100.13978081249999,100.34960203124999,80.0,87.0
169,100.49692331249999,101.46418424999999,78.0,94.0
170,101.56835081249999,103.66656299999998,73.0,101.0
171,105.49691831249999,106.12340578124999,73.0,99.0
172,106.21120331249999,106.81536937499999,71.0,88.0
173,117.99690581249999,118.12785806249998,75.0,90.0
174,118.1754770625,118.28559599999998,73.0,96.0
175,118.35404831249998,118.62934565624998,75.0,92.0
176,118.71119081249999,118.79452406249999,73.0,96.0
177,118.88976206249998,119.47755909374999,75.0,92.0
178,119.78261831249999,119.96118956249998,73.0,91.0
179,120.13976081249999,120.31833206249999,73.0,91.0
180,120.31833206249999,120.49690331249998,71.0,86.0
181,120.49690331249998,120.76178399999999,73.0,92.0
182,120.85404581249999,121.59809268749999,71.0,88.0
183,122.99690081249999,123.13975781249998,73.0,96.0
184,123.35404331249998,123.48648365624999,75.0,89.0
185,123.53261456249999,123.62338828124999,73.0,92.0
186,123.71118581249999,123.82576903124999,75.0,89.0
187,123.88975706249998,123.99987599999999,73.0,86.0
188,124.06832831249999,124.31088759374998,75.0,92.0
189,124.42547081249998,124.67100628124999,78.0,86.0
190,125.13975581249998,125.40612459374998,76.0,86.0
191,125.49689831249998,125.69927906249998,75.0,92.0
192,125.85404081249999,125.95523118749999,73.0,92.0
193,126.03261206249998,126.51029015624998,76.0,90.0
194,126.56832581249999,127.66653899999999,75.0,88.0
195,129.4254658125,129.541537125,78.0,87.0
196,129.6040370625,129.6992750625,80.0,87.0
197,129.78260831249997,130.00433428124998,80.0,88.0
198,130.13975081249998,130.243917375,80.0,91.0
199,130.3183220625,130.77219065625,78.0,92.0
200,130.85403581249997,131.3123686875,71.0,91.0
201,132.6397483125,133.10998593749997,73.0,91.0
202,133.17546206249997,133.28558099999998,75.0,86.0
203,133.35403331249998,133.62784256249998,73.0,92.0
204,133.7111758125,134.06236593749998,71.0,87.0
205,134.24688956249997,134.32575853125,73.0,96.0
206,134.42546081249998,134.52218690625,75.0,99.0
207,134.60403206249998,134.69927006249998,76.0,89.0
208,134.7826033125,135.02218640624997,78.0,88.0
209,135.1397458125,135.31831706249997,83.0,89.0
210,135.31831706249997,135.67545956249998,83.0,89.0
211,135.85403081249999,136.0326020625,78.0,87.0
212,136.0326020625,136.2111733125,78.0,94.0
213,136.2111733125,136.3897445625,80.0,91.0
214,136.3897445625,136.56831581249997,78.0,91.0
215,136.56831581249997,136.92545831249998,78.0,91.0
216,136.92545831249998,137.20670803124997,75.0,92.0
217,137.2826008125,137.50730296875,73.0,91.0
218,137.63974331249997,137.9433144375,73.0,99.0
219,137.99688581249998,139.45372959374998,71.0,87.0
220,141.5683108125,141.83467959375,75.0,96.0
221,141.9254533125,142.19182209374998,75.0,96.0
222,142.28259581249998,142.5445003125,76.0,89.0
223,142.6397383125,142.87932140624997,78.0,91.0
224,142.9968808125,143.23051153125,80.0,87.0
225,143.35402331249998,143.89717753124998,78.0,89.0
226,144.0683083125,144.29301046875,83.0,89.0
227,144.42545081249997,144.79896234375,78.0,89.0
228,145.1397358125,145.434378375,76.0,91.0
229,145.49687831249997,145.77366375,73.0,96.0
230,145.85402081249998,146.13527053124997,76.0,91.0
231,146.2111633125,147.01771012499998,75.0,90.0
232,147.2825908125,147.53110246875,71.0,89.0
233,147.63973331249997,147.92395921874999,71.0,92.0
234,147.99687581249998,148.23645890625,73.0,96.0
235,148.3540183125,148.58913712499998,75.0,90.0
236,148.7111608125,148.97752959374998,76.0,89.0
237,149.06830331249998,149.56830281249998,78.0,87.0
238,149.7825883125,150.34062346874998,73.0,99.0
239,150.49687331249999,150.79449206249998,76.0,87.0
240,150.8540158125,151.12038459374998,75.0,90.0
241,151.21115831249998,151.46115806249998,73.0,101.0
242,151.56830081249998,152.63079975,75.0,89.0
243,152.9968708125,153.21562059374997,75.0,96.0
244,153.35401331249997,153.60847734375,75.0,96.0
245,153.71115581249998,153.94181034374998,76.0,89.0
246,154.0682983125,154.2766314375,78.0,87.0
247,154.42544081249997,154.63823821875,80.0,87.0
248,154.78258331249998,155.208178125,82.0,88.0
249,155.49686831249997,155.95073690624997,75.0,94.0
250,156.2111533125,156.44478403124998,75.0,94.0
251,156.56829581249997,157.17841424999997,73.0,101.0
252,157.2825808125,158.25132984374997,71.0,92.0
253,158.7111508125,158.96412675,71.0,91.0
254,159.06829331249997,159.31234068749998,80.0,87.0
255,159.42543581249998,159.65906653124998,82.0,89.0
256,159.7825783125,160.02216140624998,83.0,87.0
257,160.13972081249997,160.38228009374998,82.0,87.0
258,160.49686331249998,161.0385294375,80.0,88.0
259,161.56829081249998,162.45965896874998,78.0,91.0
260,162.63971831249998,162.83763478125,80.0,87.0
261,162.9968608125,164.18584771874998,78.0,88.0
262,164.42543081249997,164.69179959374998,75.0,96.0
263,164.78257331249998,165.04894209375,75.0,96.0
264,165.1397158125,165.40162031249997,76.0,89.0
265,165.4968583125,165.73644140624998,78.0,91.0
266,165.85400081249998,166.08763153124997,80.0,87.0
267,166.21114331249998,166.75429753125,78.0,89.0
268,166.92542831249997,167.15013046874998,83.0,89.0
269,167.28257081249998,167.65608234374997,78.0,89.0
270,167.99685581249997,168.29149837499997,76.0,91.0
271,168.35399831249998,168.63078374999998,73.0,96.0
272,168.7111408125,168.99239053124998,76.0,91.0
273,169.06828331249997,169.874830125,75.0,90.0
274,170.13971081249997,170.38822246874997,71.0,89.0
275,170.49685331249998,170.78107921875,71.0,92.0
276,170.8539958125,171.09357890624997,73.0,96.0
277,171.21113831249997,171.446257125,75.0,90.0
278,171.56828081249998,171.83464959375,76.0,89.0
279,171.9254233125,172.4254228125,78.0,87.0
280,172.63970831249998,173.19774346875,73.0,99.0
281,173.3539933125,173.6516120625,76.0,87.0
282,173.71113581249998,173.97750459374998,75.0,90.0
283,174.06827831249998,174.31827806249999,73.0,101.0
284,174.4254208125,175.48791974999997,75.0,89.0
285,175.85399081249997,176.07274059374998,75.0,96.0
286,176.21113331249998,176.46559734374998,75.0,96.0
287,176.5682758125,176.79893034375,76.0,89.0
288,176.92541831249997,177.13375143749997,78.0,87.0
289,177.28256081249998,177.49535821874997,80.0,87.0
290,177.6397033125,178.06529812499997,82.0,88.0
291,178.35398831249998,178.80785690624998,75.0,94.0
292,179.06827331249997,179.30190403125,75.0,94.0
293,179.42541581249998,180.03553424999998,82.0,101.0
294,180.13970081249997,181.10844984374998,83.0,92.0
295,181.56827081249997,181.89267524999997,80.0,89.0
296,181.92541331249998,182.18880590624997,78.0,86.0
297,182.2825558125,182.55338887499997,80.0,86.0
298,182.63969831249997,182.87035284374997,78.0,91.0
299,182.99684081249998,183.20666203124998,80.0,87.0
300,183.3539833125,184.32124424999998,78.0,94.0
301,184.4254108125,185.85398081249997,73.0,101.0
302,185.85398081249997,186.43284928125,75.0,99.0
303,186.5682658125,187.99534771874997,83.0,92.0
304,210.1396708125,210.40603959374997,75.0,96.0
305,210.49681331249997,210.76318209374998,75.0,96.0
306,210.85395581249998,211.1158603125,76.0,89.0
307,211.21109831249998,211.45068140624997,78.0,91.0
308,211.56824081249997,211.80187153125,80.0,87.0
309,211.92538331249997,212.46853753124998,78.0,89.0
310,212.63966831249996,212.86437046874997,83.0,89.0
311,212.99681081249997,213.37032234375,78.0,89.0
312,213.71109581249996,214.00573837499996,76.0,91.0
313,214.06823831249997,214.34502374999997,73.0,96.0
314,214.42538081249998,214.70663053124997,76.0,91.0
315,214.7825233125,215.58907012499998,75.0,90.0
316,215.8539508125,216.10246246874996,71.0,89.0
317,216.21109331249997,216.49531921874998,71.0,92.0
318,216.56823581249998,216.80781890624996,73.0,96.0
319,216.9253783125,217.16049712499998,75.0,90.0
320,217.28252081249997,217.54888959374998,76.0,89.0
321,217.63966331249998,218.13966281249998,78.0,87.0
322,218.35394831249997,218.91198346874998,73.0,99.0
323,219.06823331249998,219.36585206249998,76.0,87.0
324,219.42537581249996,219.69174459374997,75.0,90.0
325,219.78251831249997,220.03251806249997,73.0,101.0
326,220.13966081249998,221.20215974999996,75.0,89.0
327,221.56823081249996,221.78698059374997,75.0,96.0
328,221.92537331249997,222.17983734374997,75.0,96.0
329,222.28251581249998,222.51317034374998,76.0,89.0
330,222.63965831249996,222.84799143749999,78.0,87.0
331,222.99680081249997,223.20959821875,80.0,87.0
332,223.35394331249998,223.779538125,82.0,88.0
333,224.06822831249997,224.52209690624997,75.0,94.0
334,224.7825133125,225.01614403124998,75.0,94.0
335,225.13965581249997,225.74977424999997,73.0,101.0
336,225.85394081249999,226.82268984374997,71.0,92.0
337,227.28251081249996,227.53548674999996,71.0,91.0
338,227.63965331249997,227.88370068749998,80.0,87.0
339,227.99679581249998,228.23042653124998,82.0,89.0
340,228.35393831249996,228.59352140624998,83.0,87.0
341,228.71108081249997,228.95364009374998,82.0,87.0
342,229.06822331249998,229.6098894375,80.0,88.0
343,230.13965081249998,231.03101896874998,78.0,91.0
344,231.21107831249998,231.40899478125,80.0,87.0
345,231.5682208125,232.75720771874998,78.0,88.0
346,232.99679081249997,233.26315959374998,75.0,96.0
347,233.35393331249998,233.62030209374998,75.0,96.0
348,233.71107581249998,233.97298031249997,76.0,89.0
349,234.06821831249997,234.30780140624998,78.0,91.0
350,234.42536081249997,234.65899153124997,80.0,87.0
351,234.78250331249998,235.32565753125,78.0,89.0
352,235.49678831249997,235.72149046874998,83.0,89.0
353,235.85393081249998,236.22744234374997,78.0,89.0
354,236.56821581249997,236.86285837499997,76.0,91.0
355,236.92535831249998,237.20214374999998,73.0,96.0
356,237.28250081249996,237.56375053124998,76.0,91.0
357,237.63964331249997,238.446190125,75.0,90.0
358,238.71107081249997,238.95958246874997,71.0,89.0
359,239.06821331249998,239.35243921874996,71.0,92.0
360,239.4253558125,239.66493890624997,73.0,96.0
361,239.78249831249997,240.017617125,75.0,90.0
362,240.13964081249998,240.40600959374999,76.0,89.0
363,240.49678331249999,240.9967828125,78.0,87.0
364,241.21106831249998,241.76910346874996,73.0,99.0
365,241.92535331249996,242.22297206249996,76.0,87.0
366,242.28249581249997,242.54886459374998,75.0,90.0
367,242.63963831249998,242.88963806249998,73.0,101.0
368,242.99678081249996,244.05927974999997,75.0,89.0
369,244.42535081249997,244.64410059374998,75.0,96.0
370,244.78249331249998,245.03695734374998,75.0,96.0
371,245.13963581249996,245.37029034374999,76.0,89.0
372,245.49677831249997,245.70511143749997,78.0,87.0
373,245.85392081249998,246.06671821874997,80.0,87.0
374,246.21106331249996,246.63665812499997,82.0,88.0
375,246.92534831249998,247.37921690624998,75.0,94.0
376,247.63963331249997,247.87326403124996,75.0,94.0
377,247.99677581249998,248.60689424999998,82.0,101.0
378,248.71106081249997,249.67980984374998,83.0,92.0
379,250.13963081249997,250.46403524999997,80.0,89.0
380,250.49677331249998,250.76016590624997,78.0,86.0
381,250.85391581249996,251.12474887499997,80.0,86.0
382,251.21105831249997,251.44171284374997,78.0,91.0
383,251.56820081249998,251.77802203124998,80.0,87.0
384,251.92534331249996,252.89260424999998,78.0,94.0
385,252.99677081249996,254.42534081249997,73.0,101.0
386,256.92533831249995,257.73188512499996,73.0,96.0
387,257.9967658125,259.00122909375,71.0,87.0
