,start,end,pitch,velocity
0,0.4970233124999999,0.9955347187499999,75.0,86.0
1,0.4970233124999999,1.0029751875,71.0,78.0
2,1.2113083125,1.3482129374999998,75.0,87.0
3,0.4970233124999999,1.39136765625,59.0,85.0
4,1.2113083125,1.3973200312499998,71.0,87.0
5,0.8541658124999999,1.9077361874999998,66.0,80.0
6,1.5684508124999998,2.470235625,73.0,85.0
7,1.5684508124999998,2.48809275,70.0,85.0
8,2.2827358125,2.7351163124999998,66.0,69.0
9,1.5684508124999998,2.7797591249999996,58.0,85.0
10,2.6398783124999996,2.7871995937499996,73.0,80.0
11,2.6398783124999996,2.8124971874999996,78.0,78.0
12,2.6398783124999996,2.82291384375,70.0,81.0
13,2.9970208124999997,3.8854127812499994,71.0,86.0
14,2.9970208124999997,4.00743646875,68.0,85.0
15,4.068448312499999,4.3258885312499995,71.0,83.0
16,4.068448312499999,4.366067062499999,75.0,87.0
17,3.7113058124999996,4.5877930312499995,63.0,71.0
18,4.425590812499999,5.558030156249999,68.0,72.0
19,5.1398758125,5.636899124999999,63.0,69.0
20,5.497018312499999,5.8467203437499995,80.0,85.0
21,5.497018312499999,5.885410781249999,75.0,85.0
22,2.9970208124999997,5.89433934375,56.0,85.0
23,5.497018312499999,5.897315531249999,71.0,85.0
24,5.854160812499999,5.983624968749999,68.0,78.0
25,6.211303312499999,6.523802999999999,71.0,79.0
26,6.9255883124999995,7.062492937499999,71.0,85.0
27,6.211303312499999,7.333326,59.0,87.0
28,6.9255883124999995,7.3511831249999995,75.0,86.0
29,7.282730812499999,7.486599656249999,71.0,85.0
30,6.568445812499999,7.7440398749999995,66.0,76.0
31,7.639873312499999,8.31100359375,70.0,88.0
32,7.997015812499999,8.425586812499999,73.0,85.0
33,7.639873312499999,8.492551031249999,58.0,85.0
34,8.3541583125,8.58332475,78.0,86.0
35,8.7113008125,11.863083374999999,71.0,79.0
36,11.660702624999999,11.863083374999999,71.0,74.0
37,8.7113008125,11.874988124999998,56.0,81.0
38,8.7113008125,11.87945240625,68.0,89.0
39,11.74998825,13.950878906249999,75.0,85.0
40,11.840761968749998,14.008914562499998,78.0,74.0
41,11.7827263125,14.20683103125,59.0,86.0
42,14.6993900625,15.358615593749999,68.0,70.0
43,14.755937624999998,15.607127249999998,71.0,80.0
44,14.818437562499998,15.790162781249999,75.0,76.0
45,15.525282093749999,15.810996093749997,68.0,72.0
46,15.873496031249998,16.778257031249996,71.0,81.0
47,15.880936499999999,16.863078374999997,68.0,72.0
48,15.159211031249999,16.947899718749998,63.0,72.0
49,14.802068531249999,17.099685281249997,56.0,85.0
50,17.517839624999997,18.098196187499997,71.0,70.0
51,17.601172875,18.43599346875,75.0,84.0
52,17.6696251875,18.4672434375,78.0,72.0
53,18.35266021875,18.7231955625,71.0,69.0
54,17.950874906249997,18.864564468749997,66.0,73.0
55,17.642839499999997,18.989564343749997,59.0,88.0
56,20.4850985625,21.004443281249998,68.0,74.0
57,20.40622959375,21.294621562499998,71.0,70.0
58,20.3541463125,21.330335812499996,75.0,80.0
59,21.5446213125,22.2589063125,80.0,80.0
60,21.534204656249997,22.288668187499997,75.0,80.0
61,21.528252281249998,22.300572937499997,71.0,79.0
62,21.199383562499996,22.336287187499998,68.0,80.0
63,20.8303363125,22.346703843749996,63.0,70.0
64,20.480634281249998,22.48360846875,56.0,85.0
65,23.290155281249998,23.778250031249996,64.0,78.0
66,23.166643499999996,23.809499999999996,68.0,77.0
67,23.1190245,23.8243809375,71.0,72.0
68,24.0237855,24.331820906249998,64.0,94.0
69,23.321405249999998,24.4255708125,52.0,85.0
70,23.688964406249998,24.482118375,59.0,74.0
71,24.790153781249998,25.30801040625,66.0,81.0
72,24.793129968749998,25.37051034375,70.0,83.0
73,25.1398558125,25.773783749999996,61.0,75.0
74,24.797594249999996,25.913664562499996,54.0,86.0
75,25.50741496875,25.935985968749996,66.0,99.0
76,26.157711937499997,26.910687375,73.0,82.0
77,26.19045,26.94193734375,58.0,85.0
78,26.110092937499996,26.983603968749996,70.0,74.0
79,26.215747593749995,26.999972999999997,78.0,81.0
80,27.560984343749997,27.958305375,71.0,77.0
81,27.519317718749996,27.985091062499997,68.0,74.0
82,27.633900937499998,28.141340906249997,56.0,85.0
83,27.645805687499998,28.245507468749995,75.0,85.0
84,28.345209749999995,28.668126093749997,70.0,80.0
85,28.345209749999995,28.715745093749998,66.0,80.0
86,28.352650218749996,28.751459343749996,54.0,82.0
87,29.066935218749997,29.549077593749995,68.0,80.0
88,29.065447124999995,29.791636875,64.0,76.0
89,29.401756312499998,30.105624656249997,59.0,72.0
90,29.766339281249998,30.105624656249997,68.0,84.0
91,29.760386906249998,30.157707937499996,71.0,85.0
92,29.077351874999998,30.163660312499996,52.0,86.0
93,30.471695718749995,30.979135687499998,66.0,80.0
94,30.467231437499997,31.081814156249997,70.0,81.0
95,30.816933468749998,31.415147156249997,61.0,78.0
96,30.47764809375,31.494016124999998,54.0,86.0
97,31.175564062499998,31.610087437499995,66.0,87.0
98,31.552051781249997,31.912170468749995,70.0,89.0
99,31.901753812499997,32.74996725,73.0,81.0
100,32.620503093749996,33.657704437499994,68.0,81.0
101,32.96425274999999,33.94341843749999,76.0,86.0
102,34.016335031249994,34.2469895625,68.0,85.0
103,32.257408218749994,34.540144031249994,64.0,71.0
104,31.906218093749995,34.58181065625,61.0,86.0
105,34.022287406249994,34.70085815624999,73.0,85.0
106,34.38240609375,34.727643843749995,68.0,85.0
107,34.7827033125,35.31692896875,75.0,87.0
108,34.7827033125,35.5684168125,71.0,82.0
109,35.854130812499996,35.934487874999995,71.0,62.0
110,35.496988312499994,36.075856781249996,75.0,88.0
111,35.496988312499994,36.09520199999999,78.0,88.0
112,35.1398458125,36.349666031249996,66.0,75.0
113,36.2112733125,36.669606187499994,75.0,88.0
114,36.925558312499994,37.0713915,71.0,89.0
115,34.7827033125,37.19490328125,59.0,88.0
116,36.925558312499994,37.28121271875,78.0,88.0
117,37.282700812499996,37.42258162499999,71.0,89.0
118,37.6398433125,38.148771374999995,71.0,82.0
119,37.6398433125,38.20383084375,68.0,80.0
120,38.354128312499995,38.54609240625,68.0,83.0
121,38.354128312499995,38.656211343749995,71.0,81.0
122,39.0684133125,39.236567906249995,75.0,81.0
123,39.0684133125,39.26335359375,71.0,74.0
124,39.782698312499996,39.935971968749996,68.0,85.0
125,37.99698581249999,40.135376531249996,63.0,72.0
126,39.782698312499996,40.159186031249995,71.0,90.0
127,39.782698312499996,40.177043156249994,75.0,91.0
128,37.6398433125,40.220197875,56.0,86.0
129,40.49698331249999,40.75442353125,66.0,85.0
130,40.49698331249999,41.01037565625,71.0,84.0
131,40.854125812499994,41.110077937499995,66.0,79.0
132,41.211268312499996,41.241030187499994,66.0,59.0
133,41.211268312499996,41.467220437499996,75.0,90.0
134,41.211268312499996,41.496982312499995,71.0,92.0
135,42.282695812499995,42.44489803125,66.0,85.0
136,40.49698331249999,42.79311196875,59.0,86.0
137,42.6398383125,42.800552437499995,66.0,86.0
138,42.6398383125,43.142813999999994,71.0,88.0
139,42.6398383125,43.15620684374999,75.0,90.0
140,42.9969808125,43.18001634375,66.0,85.0
141,43.35412331249999,43.706801531249994,71.0,85.0
142,43.35412331249999,43.842218062499995,68.0,84.0
143,43.711265812499995,44.218705781249994,63.0,69.0
144,44.0684083125,44.293110468749994,71.0,87.0
145,44.0684083125,44.325848531249996,75.0,86.0
146,44.42555081249999,44.95531218749999,63.0,65.0
147,44.782693312499994,44.982097874999994,68.0,60.0
148,44.782693312499994,45.21126431249999,71.0,79.0
149,45.4969783125,45.64876387499999,68.0,87.0
150,45.4969783125,45.65025196875,71.0,89.0
151,45.139835812499996,45.681501937499995,63.0,69.0
152,43.35412331249999,45.78715659375,56.0,86.0
153,45.85412081249999,46.005906374999995,66.0,91.0
154,46.211263312499995,46.73060803124999,71.0,86.0
155,46.211263312499995,46.815429374999994,68.0,81.0
156,46.568405812499996,47.196381374999994,59.0,72.0
157,46.211263312499995,47.2112623125,52.0,85.0
158,46.92554831249999,47.36900024999999,71.0,87.0
159,46.92554831249999,47.39132165624999,76.0,86.0
160,47.28269081249999,47.531202468749996,68.0,86.0
161,47.639833312499995,48.105606656249996,71.0,85.0
162,47.639833312499995,48.153225656249994,68.0,85.0
163,48.35411831249999,48.59965378125,68.0,86.0
164,47.9969758125,48.72316556249999,63.0,77.0
165,48.35411831249999,48.75441553125,71.0,88.0
166,47.639833312499995,48.773760749999994,56.0,86.0
167,48.35411831249999,48.85411781249999,75.0,90.0
168,49.068403312499996,49.58477184375,70.0,85.0
169,49.068403312499996,49.66810509374999,66.0,81.0
170,49.78268831249999,49.99399762499999,66.0,87.0
171,49.78268831249999,50.162152218749995,70.0,90.0
172,49.78268831249999,50.17108078125,73.0,86.0
173,49.4255458125,50.252925937499995,61.0,76.0
174,49.068403312499996,50.34072346874999,54.0,85.0
175,50.496973312499996,50.726139749999994,71.0,86.0
176,50.496973312499996,50.80203253124999,75.0,94.0
177,50.496973312499996,50.84072296874999,59.0,87.0
178,51.21125831249999,51.602626968749995,73.0,84.0
179,51.21125831249999,51.63834121874999,70.0,86.0
180,51.21125831249999,51.699353062499995,78.0,83.0
181,51.21125831249999,51.717210187499994,54.0,85.0
182,51.9255433125,52.324352437499996,68.0,80.0
183,51.9255433125,52.428518999999994,64.0,81.0
184,52.63982831249999,53.127923062499995,64.0,81.0
185,51.9255433125,53.15322065624999,52.0,86.0
186,52.63982831249999,53.162149218749995,68.0,86.0
187,52.63982831249999,53.185958718749994,71.0,81.0
188,52.28268581249999,53.21125631249999,59.0,79.0
189,53.3541133125,53.805005718749996,70.0,85.0
190,53.3541133125,54.011850749999994,66.0,86.0
191,53.71125581249999,54.18000534375,61.0,71.0
192,53.3541133125,54.23655290625,54.0,85.0
193,54.068398312499994,54.249945749999995,70.0,89.0
194,54.068398312499994,54.28119571874999,73.0,86.0
195,54.78268331249999,55.22762334375,75.0,87.0
196,54.78268331249999,55.31690896874999,71.0,83.0
197,55.13982581249999,55.66512290624999,66.0,74.0
198,55.496968312499995,55.99399162499999,78.0,86.0
199,55.496968312499995,56.276729437499995,71.0,89.0
200,56.21125331249999,56.59666959374999,83.0,85.0
201,56.21125331249999,56.61006243749999,75.0,87.0
202,56.21125331249999,56.635360031249995,78.0,85.0
203,56.56839581249999,56.805002718749996,71.0,86.0
204,55.8541108125,57.03565724999999,66.0,76.0
205,54.78268331249999,57.368990249999996,59.0,87.0
206,56.925538312499995,57.62345428124999,75.0,99.0
207,56.925538312499995,57.62940665624999,71.0,88.0
208,56.925538312499995,57.636847124999996,78.0,89.0
209,57.2826808125,57.65321615625,66.0,85.0
210,57.63982331249999,57.65321615625,66.0,85.0
211,57.63982331249999,57.743989875,54.0,86.0
212,57.63982331249999,57.888334968749994,73.0,81.0
213,58.71125081249999,58.91511965624999,78.0,81.0
214,58.71125081249999,58.922560125,85.0,86.0
215,59.06839331249999,59.184464625,78.0,85.0
216,59.06839331249999,59.190417,90.0,78.0
217,58.354108312499996,59.87047584374999,73.0,82.0
218,57.996965812499994,59.91809484374999,66.0,83.0
219,60.49696331249999,60.84964153124999,78.0,82.0
220,60.49696331249999,61.121962687499995,71.0,87.0
221,61.21124831249999,61.270772062499994,71.0,69.0
222,61.21124831249999,61.394283843749996,78.0,86.0
223,61.21124831249999,61.40321240624999,75.0,90.0
224,61.21124831249999,61.684462124999996,83.0,86.0
225,60.49696331249999,61.76928346874999,59.0,87.0
226,61.56839081249999,61.80648581249999,78.0,83.0
227,61.746962062499996,61.85856909374999,71.0,87.0
228,60.854105812499995,61.86600956249999,66.0,77.0
229,61.925533312499994,62.46868753124999,70.0,94.0
230,61.925533312499994,62.493985124999995,73.0,87.0
231,62.63981831249999,62.796068156249994,70.0,79.0
232,62.282675812499996,62.92850849999999,66.0,81.0
233,61.925533312499994,62.937437062499995,58.0,87.0
234,62.63981831249999,62.97463940624999,73.0,83.0
235,62.63981831249999,63.074341687499995,78.0,88.0
236,62.99696081249999,63.132377343749994,70.0,85.0
237,63.354103312499994,63.888328968749995,71.0,81.0
238,63.354103312499994,63.95380509374999,68.0,82.0
239,64.06838831249999,64.15469775,71.0,96.0
240,64.06838831249999,64.31392378125,75.0,96.0
241,63.711245812499996,64.3838641875,63.0,79.0
242,64.2469595625,64.45082840625,71.0,85.0
243,63.354103312499994,64.48207837499999,56.0,86.0
244,64.42553081249999,64.56094734374999,68.0,87.0
245,64.7826733125,65.29308946875,68.0,86.0
246,64.7826733125,65.39130365624999,64.0,82.0
247,65.4969583125,65.62642246875,64.0,83.0
248,65.13981581249999,65.69785096874999,59.0,80.0
249,64.7826733125,65.71422,52.0,85.0
250,65.4969583125,65.86898174999999,68.0,90.0
251,65.4969583125,65.91660074999999,71.0,87.0
252,65.8541008125,65.95826737499999,64.0,89.0
253,66.21124331249999,66.41808834374999,68.0,86.0
254,66.21124331249999,66.696361875,73.0,86.0
255,66.5683858125,67.03713534375,68.0,86.0
256,66.21124331249999,67.26778987499999,61.0,94.0
257,66.92552831249999,67.29606365625,76.0,94.0
258,67.28267081249999,67.45082540624999,73.0,91.0
259,67.46124206249999,67.5475515,68.0,86.0
260,67.6398133125,68.0862414375,70.0,86.0
261,67.6398133125,68.220169875,66.0,90.0
262,68.35409831249999,68.46719343749999,66.0,80.0
263,68.35409831249999,68.6517170625,70.0,92.0
264,67.6398133125,68.72463365624999,54.0,86.0
265,67.99695581249999,68.72760984374999,61.0,81.0
266,68.35409831249999,68.82284784375,73.0,88.0
267,68.7112408125,68.88237159375,66.0,90.0
268,69.06838331249999,69.2588593125,66.0,89.0
269,69.06838331249999,69.48802574999999,71.0,86.0
270,69.4255258125,69.65022796874999,66.0,88.0
271,69.7826683125,69.99100143749999,66.0,94.0
272,69.7826683125,70.05052518749999,75.0,91.0
273,70.13981081249999,70.31094159374999,71.0,88.0
274,69.06838331249999,70.40915578124999,59.0,86.0
275,70.31838206249999,70.42701290625,66.0,90.0
276,70.4969533125,70.68742931249999,66.0,92.0
277,70.4969533125,70.91510765624999,71.0,86.0
278,70.85409581249999,71.06986940624999,66.0,88.0
279,71.21123831249999,71.37939290624999,66.0,94.0
280,70.4969533125,71.40617859375,59.0,89.0
281,71.21123831249999,71.42998809375,75.0,90.0
282,71.38980956249999,71.58177365625,71.0,86.0
283,71.5683808125,71.70379734375,66.0,92.0
284,71.92552331249999,72.3302848125,67.0,86.0
285,71.92552331249999,72.35558240625,63.0,86.0
286,72.28266581249999,72.80796290625,58.0,83.0
287,72.6398083125,72.90915328124998,63.0,99.0
288,72.6398083125,73.0505221875,75.0,96.0
289,73.1755220625,73.21867678125,75.0,77.0
290,71.92552331249999,73.2648076875,51.0,86.0
291,72.99695081249999,73.27373624999998,58.0,87.0
292,73.1755220625,73.2886171875,63.0,99.0
293,73.3540933125,73.73058103125,70.0,86.0
294,73.3540933125,73.76034290624999,63.0,106.0
295,73.7112358125,74.12343778124999,58.0,86.0
296,73.3540933125,74.16956868749999,51.0,89.0
297,74.06837831249999,74.25290193749998,63.0,94.0
298,74.06837831249999,74.29754474999999,67.0,90.0
299,74.4255208125,74.56540162499999,63.0,102.0
300,74.78266331249999,75.29903184374999,71.0,82.0
301,74.78266331249999,75.3124246875,68.0,81.0
302,75.4969483125,75.72165046874998,68.0,89.0
303,75.4969483125,75.80051943749999,80.0,86.0
304,75.85409081249999,76.04754299999999,75.0,86.0
305,74.78266331249999,76.07581678125,56.0,85.0
306,75.13980581249999,76.08474534374999,63.0,89.0
307,76.0326620625,76.14278099999999,68.0,83.0
308,76.21123331249999,76.66361381249999,71.0,86.0
309,76.21123331249999,76.66807809375,68.0,85.0
310,76.92551831249999,77.0564705625,68.0,91.0
311,76.5683758125,77.0683753125,63.0,86.0
312,76.21123331249999,77.08474434374999,56.0,86.0
313,76.92551831249999,77.124922875,71.0,99.0
314,77.2826608125,77.44486303125,68.0,91.0
315,77.63980331249999,77.7290889375,49.0,89.0
316,77.63980331249999,77.90766018749999,68.0,88.0
317,77.63980331249999,77.9790886875,73.0,86.0
318,78.3540883125,78.69783796875,73.0,90.0
319,78.3540883125,78.86748065625,85.0,91.0
320,77.99694581249999,78.96718293749998,61.0,85.0
321,78.71123081249999,78.99545671874999,68.0,85.0
322,78.8898020625,79.20378984374999,73.0,90.0
323,79.4255158125,79.66956318749999,73.0,94.0
324,79.60408706249999,79.72611074999999,80.0,87.0
325,79.24694456249999,79.77521784374999,68.0,88.0
326,79.06837331249999,79.93890815625,61.0,91.0
327,79.78265831249999,80.18444362499999,73.0,102.0
328,80.13980081249998,80.24991974999999,68.0,85.0
329,80.4969433125,80.70527643749999,78.0,80.0
330,80.4969433125,80.755871625,73.0,86.0
331,80.85408581249999,81.31985915624999,61.0,89.0
332,81.2112283125,81.6219421875,73.0,89.0
333,81.2112283125,81.6457516875,66.0,90.0
334,81.7469420625,81.84664434374999,66.0,68.0
335,81.7469420625,81.84813243749998,70.0,86.0
336,80.4969433125,81.84962053125,54.0,87.0
337,81.56837081249999,81.863013375,61.0,85.0
338,81.92551331249999,82.32134624999999,66.0,86.0
339,81.92551331249999,82.38235809374999,78.0,86.0
340,82.46122706249999,82.65616734374998,66.0,85.0
341,82.2826558125,82.85259571875,61.0,87.0
342,82.63979831249999,82.87045284374999,73.0,88.0
343,82.8183695625,83.00438128124999,70.0,96.0
344,81.92551331249999,83.05944075,54.0,86.0
345,82.99694081249999,83.25586912499999,66.0,90.0
346,83.17551206249999,83.40467849999999,61.0,96.0
347,83.3540833125,83.70676153125,78.0,82.0
348,83.3540833125,83.9790826875,71.0,87.0
349,84.06836831249998,84.1278920625,71.0,69.0
350,84.06836831249998,84.25140384374998,78.0,86.0
351,84.06836831249998,84.26033240624999,75.0,90.0
352,84.06836831249998,84.54158212499999,83.0,86.0
353,83.3540833125,84.62640346874998,59.0,87.0
354,84.4255108125,84.6636058125,78.0,83.0
355,84.60408206249998,84.71568909374999,71.0,87.0
356,83.71122581249999,84.72312956249999,66.0,77.0
357,84.78265331249999,85.32580753124999,70.0,94.0
358,84.78265331249999,85.35110512499999,73.0,87.0
359,85.49693831249999,85.65318815625,70.0,79.0
360,85.1397958125,85.78562849999999,66.0,81.0
361,84.78265331249999,85.79455706249999,58.0,87.0
362,85.49693831249999,85.83175940624999,73.0,83.0
363,85.49693831249999,85.93146168749999,78.0,88.0
364,85.85408081249999,85.98949734374999,70.0,85.0
365,86.2112233125,86.74544896875,71.0,81.0
366,86.2112233125,86.81092509374999,68.0,82.0
367,86.92550831249999,87.01181774999999,71.0,96.0
368,86.92550831249999,87.17104378124999,75.0,96.0
369,86.56836581249999,87.24098418749999,63.0,79.0
370,87.10407956249999,87.30794840624999,71.0,85.0
371,86.2112233125,87.339198375,56.0,86.0
372,87.2826508125,87.41806734375,68.0,87.0
373,87.63979331249999,88.15020946874999,68.0,86.0
374,87.63979331249999,88.24842365624998,64.0,82.0
375,88.3540783125,88.48354246874999,64.0,83.0
376,87.99693581249998,88.55497096874998,59.0,80.0
377,87.63979331249999,88.57133999999999,52.0,85.0
378,88.3540783125,88.72610174999998,68.0,90.0
379,88.3540783125,88.77372075,71.0,87.0
380,88.71122081249999,88.81538737499999,64.0,89.0
381,89.06836331249998,89.27520834375,68.0,86.0
382,89.06836331249998,89.55348187499999,73.0,86.0
383,89.42550581249999,89.89425534374999,68.0,86.0
384,89.06836331249998,90.12490987499999,61.0,94.0
385,89.78264831249999,90.15318365625,76.0,94.0
386,90.1397908125,90.30794540624998,73.0,91.0
387,90.31836206249999,90.40467149999999,68.0,86.0
388,90.49693331249999,90.94336143749999,70.0,86.0
389,90.49693331249999,91.07728987499999,66.0,90.0
390,91.2112183125,91.3243134375,66.0,80.0
391,91.2112183125,91.50883706249999,70.0,92.0
392,90.49693331249999,91.58175365624999,54.0,86.0
393,90.85407581249999,91.58472984374998,61.0,81.0
394,91.2112183125,91.67996784374999,73.0,88.0
395,91.56836081249999,91.73949159374999,66.0,90.0
396,91.92550331249998,92.11597931249999,66.0,89.0
397,91.92550331249998,92.34514574999999,71.0,86.0
398,92.2826458125,92.50734796874998,66.0,88.0
399,92.63978831249999,92.84812143749998,66.0,94.0
400,92.63978831249999,92.9076451875,75.0,91.0
401,92.99693081249998,93.16806159375,71.0,88.0
402,91.92550331249998,93.26627578124999,59.0,86.0
403,93.17550206249999,93.28413290625,66.0,90.0
404,93.35407331249999,93.5445493125,66.0,92.0
405,93.35407331249999,93.77222765625,71.0,86.0
406,93.71121581249999,93.92698940624999,66.0,88.0
407,94.0683583125,94.23651290624998,66.0,94.0
408,93.35407331249999,94.26329859375,59.0,89.0
409,94.0683583125,94.28710809374999,75.0,90.0
410,94.24692956249999,94.43889365624999,71.0,86.0
411,94.42550081249999,94.56091734374999,66.0,92.0
412,94.78264331249999,95.18740481249999,67.0,86.0
413,94.78264331249999,95.21270240624999,63.0,86.0
414,95.1397858125,95.66508290624999,58.0,83.0
415,95.49692831249999,95.76627328125,63.0,99.0
416,95.49692831249999,95.90764218749999,75.0,96.0
417,96.03264206249999,96.07579678124999,75.0,77.0
418,94.78264331249999,96.12192768749999,51.0,86.0
419,95.85407081249998,96.13085625,58.0,87.0
420,96.03264206249999,96.14573718749999,63.0,99.0
421,96.21121331249999,96.58770103124999,70.0,86.0
422,96.21121331249999,96.61746290624998,63.0,106.0
423,96.56835581249999,96.98055778124998,58.0,86.0
424,96.21121331249999,97.02668868749998,51.0,89.0
425,96.92549831249998,97.1100219375,63.0,94.0
426,96.92549831249998,97.15466475,67.0,90.0
427,97.28264081249999,97.42252162499999,63.0,102.0
428,97.63978331249999,98.15615184375,71.0,82.0
429,97.63978331249999,98.1695446875,68.0,81.0
430,98.35406831249999,98.57877046875,68.0,89.0
431,98.35406831249999,98.6576394375,80.0,86.0
432,98.71121081249998,98.90466299999999,75.0,86.0
433,97.63978331249999,98.93293678124999,56.0,85.0
434,97.9969258125,98.94186534375,63.0,89.0
435,98.88978206249999,98.999901,68.0,83.0
436,99.0683533125,99.52073381249998,71.0,86.0
437,99.0683533125,99.52519809374999,68.0,85.0
438,99.78263831249998,99.91359056249999,68.0,91.0
439,99.42549581249999,99.92549531249999,63.0,86.0
440,99.0683533125,99.94186434374998,56.0,86.0
441,99.78263831249998,99.98204287499999,71.0,99.0
442,100.13978081249999,100.30198303124999,68.0,91.0
443,100.49692331249999,100.58918512499999,54.0,86.0
444,100.49692331249999,100.71269690624999,66.0,86.0
445,100.49692331249999,100.7409706875,73.0,84.0
446,101.38977956249998,101.59067221874999,78.0,90.0
447,101.56835081249999,101.71269590624999,85.0,99.0
448,101.74692206249999,101.91507665625,78.0,87.0
449,101.21120831249999,102.17846924999999,73.0,96.0
450,101.9254933125,102.18144543749999,90.0,88.0
451,102.10406456249999,102.24989774999999,78.0,76.0
452,102.63977831249998,102.82579003125,90.0,86.0
453,102.28263581249999,102.86745665624998,73.0,79.0
454,102.63977831249998,102.87340903124999,94.0,87.0
455,100.85406581249998,103.05644456249999,66.0,85.0
456,103.35406331249999,103.60555115624999,97.0,83.0
457,103.35406331249999,103.64126540624999,90.0,84.0
458,103.35406331249999,104.54900259374999,66.0,87.0
459,103.35406331249999,104.56090734374999,73.0,85.0
460,106.21120331249999,106.66953618749999,71.0,86.0
461,106.21120331249999,106.68739331249999,74.0,90.0
462,106.56834581249998,106.87489312499999,66.0,71.0
463,106.21120331249999,106.89572643749999,59.0,88.0
464,106.9254883125,107.06090484375,71.0,87.0
465,106.9254883125,107.06983340624998,74.0,99.0
466,106.9254883125,107.09364290624998,78.0,86.0
467,107.28263081249999,107.72905893749999,74.0,80.0
468,107.28263081249999,107.73501131249999,78.0,61.0
469,107.99691581249999,108.39126065624998,57.0,58.0
470,107.28263081249999,108.40614159375,50.0,88.0
471,108.35405831249999,108.51477243749999,74.0,94.0
472,108.35405831249999,108.60703424999998,78.0,90.0
473,108.35405831249999,108.69483178124999,81.0,87.0
474,109.06834331249999,109.40911678124999,80.0,83.0
475,109.06834331249999,109.43590246874999,76.0,86.0
476,109.60405706249999,109.70971171874999,76.0,89.0
477,109.60405706249999,109.73500931249998,88.0,86.0
478,109.42548581249999,109.97012812499999,59.0,67.0
479,109.06834331249999,110.01030665625,52.0,87.0
480,110.13977081249999,110.45822287499999,83.0,85.0
481,110.13977081249999,110.53560374999999,80.0,86.0
482,110.13977081249999,110.60703224999999,76.0,80.0
483,110.49691331249998,110.90911528124998,59.0,64.0
484,110.8540558125,111.22607924999998,76.0,99.0
485,110.8540558125,111.2528649375,80.0,99.0
486,110.13977081249999,111.34066246874998,52.0,85.0
487,111.21119831249999,111.35256721874998,59.0,79.0
488,111.38976956249999,111.50732896874999,76.0,91.0
489,111.92548331249999,112.24095918749998,71.0,85.0
490,111.92548331249999,112.27518534374998,74.0,94.0
491,111.92548331249999,112.30792340624998,78.0,85.0
492,112.46119706249999,112.61000643749999,71.0,87.0
493,111.92548331249999,112.62935165624998,47.0,85.0
494,112.28262581249999,112.65911353124999,54.0,73.0
495,112.63976831249998,112.75881581249999,74.0,87.0
496,112.63976831249998,112.76625628125,78.0,86.0
497,112.99691081249999,113.29452956249999,74.0,86.0
498,112.99691081249999,113.33173190624998,78.0,89.0
499,112.99691081249999,113.68143393749999,50.0,94.0
500,113.35405331249999,113.69929106249998,57.0,76.0
501,113.71119581249998,113.90613609374999,74.0,76.0
502,114.06833831249999,114.13679062499999,78.0,87.0
503,114.06833831249999,114.16952868749999,74.0,90.0
504,114.06833831249999,114.22607624999999,81.0,89.0
505,114.42548081249998,114.88381368749998,52.0,89.0
506,114.42548081249998,114.89423034374998,76.0,86.0
507,114.42548081249998,114.91655174999998,80.0,89.0
508,115.13976581249999,117.44333493749998,78.0,87.0
509,115.13976581249999,117.45375159374998,82.0,92.0
510,115.13976581249999,117.50137059374998,54.0,88.0
511,117.63976331249998,118.17398896874998,75.0,87.0
512,117.63976331249998,118.42547681249998,71.0,82.0
513,118.71119081249999,118.79154787499999,71.0,62.0
514,118.35404831249998,118.93291678124999,75.0,88.0
515,118.35404831249998,118.95226199999999,78.0,88.0
516,117.99690581249999,119.20672603124999,66.0,75.0
517,119.06833331249999,119.52666618749998,75.0,88.0
518,119.78261831249999,119.92845149999998,71.0,89.0
519,117.63976331249998,120.05196328124998,59.0,88.0
520,119.78261831249999,120.13827271874999,78.0,88.0
521,120.13976081249999,120.27964162499998,71.0,89.0
522,120.49690331249998,121.00583137499999,71.0,82.0
523,120.49690331249998,121.06089084374999,68.0,80.0
524,121.21118831249998,121.40315240624999,68.0,83.0
525,121.21118831249998,121.51327134374999,71.0,81.0
526,121.92547331249999,122.09362790624999,75.0,81.0
527,121.92547331249999,122.12041359374999,71.0,74.0
528,122.63975831249999,122.79303196874999,68.0,85.0
529,120.85404581249999,122.99243653125,63.0,72.0
530,122.63975831249999,123.01624603124999,71.0,90.0
531,122.63975831249999,123.03410315624998,75.0,91.0
532,120.49690331249998,123.07725787499999,56.0,86.0
533,123.35404331249998,123.61148353124999,66.0,85.0
534,123.35404331249998,123.86743565624998,71.0,84.0
535,123.71118581249999,123.96713793749998,66.0,79.0
536,124.06832831249999,124.09809018749999,66.0,59.0
537,124.06832831249999,124.32428043749998,75.0,90.0
538,124.06832831249999,124.35404231249998,71.0,92.0
539,125.13975581249998,125.30195803124998,66.0,85.0
540,123.35404331249998,125.65017196874999,59.0,86.0
541,125.49689831249998,125.65761243749999,66.0,86.0
542,125.49689831249998,125.99987399999999,71.0,88.0
543,125.49689831249998,126.01326684374999,75.0,90.0
544,125.85404081249999,126.03707634374999,66.0,85.0
545,126.21118331249998,126.56386153124998,71.0,85.0
546,126.21118331249998,126.69927806249999,68.0,84.0
547,126.56832581249999,127.07576578124998,63.0,69.0
548,126.92546831249999,127.15017046874999,71.0,87.0
549,126.92546831249999,127.18290853124999,75.0,86.0
550,127.28261081249998,127.81237218749999,63.0,65.0
551,127.63975331249999,127.83915787499998,68.0,60.0
552,127.63975331249999,128.06832431249998,71.0,79.0
553,128.3540383125,128.50582387499998,68.0,87.0
554,128.3540383125,128.50731196874997,71.0,89.0
555,127.99689581249999,128.5385619375,63.0,69.0
556,126.21118331249998,128.64421659374997,56.0,86.0
557,128.71118081249998,128.86296637499998,66.0,91.0
558,129.06832331249998,129.58766803125,71.0,86.0
559,129.06832331249998,129.672489375,68.0,81.0
560,129.4254658125,130.05344137499998,59.0,72.0
561,129.06832331249998,130.0683223125,52.0,85.0
562,129.78260831249997,130.22606025,71.0,87.0
563,129.78260831249997,130.24838165625,76.0,86.0
564,130.13975081249998,130.38826246874999,68.0,86.0
565,130.4968933125,130.96266665624998,71.0,85.0
566,130.4968933125,131.01028565624998,68.0,85.0
567,131.21117831249998,131.45671378125,68.0,86.0
568,130.85403581249997,131.58022556249998,63.0,77.0
569,131.21117831249998,131.61147553125,71.0,88.0
570,130.4968933125,131.63082075,56.0,86.0
571,131.21117831249998,131.71117781249998,75.0,90.0
572,131.92546331249997,132.44183184374998,70.0,85.0
573,131.92546331249997,132.52516509375,66.0,81.0
574,132.6397483125,132.85105762499998,66.0,87.0
575,132.6397483125,133.01921221875,70.0,90.0
576,132.6397483125,133.02814078125,73.0,86.0
577,132.28260581249998,133.10998593749997,61.0,76.0
578,131.92546331249997,133.19778346874998,54.0,85.0
579,133.35403331249998,133.58319974999998,71.0,86.0
580,133.35403331249998,133.65909253125,75.0,94.0
581,133.35403331249998,133.69778296874998,59.0,87.0
582,134.0683183125,134.45968696875,73.0,84.0
583,134.0683183125,134.49540121874998,70.0,86.0
584,134.0683183125,134.55641306249998,78.0,83.0
585,134.0683183125,134.5742701875,54.0,85.0
586,134.7826033125,135.18141243749997,68.0,80.0
587,134.7826033125,135.28557899999998,64.0,81.0
588,135.49688831249998,135.9849830625,64.0,81.0
589,134.7826033125,136.01028065625,52.0,86.0
590,135.49688831249998,136.01920921874998,68.0,86.0
591,135.49688831249998,136.04301871874998,71.0,81.0
592,135.1397458125,136.06831631249997,59.0,79.0
593,136.2111733125,136.66206571874997,70.0,85.0
594,136.2111733125,136.86891075,66.0,86.0
595,136.56831581249997,137.03706534375,61.0,71.0
596,136.2111733125,137.09361290624997,54.0,85.0
597,136.92545831249998,137.10700574999998,70.0,89.0
598,136.92545831249998,137.13825571874997,73.0,86.0
599,137.63974331249997,138.08468334375,75.0,87.0
600,137.63974331249997,138.17396896875,71.0,83.0
601,137.99688581249998,138.52218290624998,66.0,74.0
602,138.3540283125,138.851051625,78.0,86.0
603,138.3540283125,139.13378943749998,71.0,89.0
604,139.06831331249998,139.45372959374998,83.0,85.0
605,139.06831331249998,139.4671224375,75.0,87.0
606,139.06831331249998,139.49242003125,78.0,85.0
607,139.4254558125,139.66206271874998,71.0,86.0
608,138.71117081249997,139.89271724999998,66.0,76.0
609,137.63974331249997,140.22605025,59.0,87.0
610,139.78259831249997,140.48051428124998,75.0,99.0
611,139.78259831249997,140.48646665624997,71.0,88.0
612,139.78259831249997,140.493907125,78.0,89.0
613,140.13974081249998,140.51027615624997,66.0,85.0
614,140.4968833125,140.51027615624997,66.0,85.0
615,140.4968833125,140.60104987499997,54.0,86.0
616,140.4968833125,140.74539496875,73.0,81.0
617,141.5683108125,141.77217965625,78.0,81.0
618,141.5683108125,141.77962012499998,85.0,86.0
619,141.9254533125,142.041524625,78.0,85.0
620,141.9254533125,142.047477,90.0,78.0
621,141.21116831249998,142.72753584375,73.0,82.0
622,140.8540258125,142.77515484375,66.0,83.0
623,143.35402331249998,143.70670153125,78.0,82.0
624,143.35402331249998,143.9790226875,71.0,87.0
625,144.0683083125,144.12783206249998,71.0,69.0
626,144.0683083125,144.25134384375,78.0,86.0
627,144.0683083125,144.26027240624998,75.0,90.0
628,144.0683083125,144.54152212499997,83.0,86.0
629,143.35402331249998,144.62634346874998,59.0,87.0
630,144.42545081249997,144.6635458125,78.0,83.0
631,144.60402206249998,144.71562909374998,71.0,87.0
632,143.71116581249998,144.72306956249997,66.0,77.0
633,144.78259331249998,145.32574753125,70.0,94.0
634,144.78259331249998,145.35104512499998,73.0,87.0
635,145.49687831249997,145.65312815624998,70.0,79.0
636,145.1397358125,145.78556849999998,66.0,81.0
637,144.78259331249998,145.79449706249997,58.0,87.0
638,145.49687831249997,145.83169940624998,73.0,83.0
639,145.49687831249997,145.93140168749997,78.0,88.0
640,145.85402081249998,145.98943734374998,70.0,85.0
641,146.2111633125,146.74538896874998,71.0,81.0
642,146.2111633125,146.81086509374998,68.0,82.0
643,146.92544831249998,147.01175775,71.0,96.0
644,146.92544831249998,147.17098378125,75.0,96.0
645,146.56830581249997,147.24092418749999,63.0,79.0
646,147.10401956249999,147.30788840625,71.0,85.0
647,146.2111633125,147.33913837499998,56.0,86.0
648,147.2825908125,147.41800734375,68.0,87.0
649,147.63973331249997,148.15014946875,68.0,86.0
650,147.63973331249997,148.24836365624998,64.0,82.0
651,148.3540183125,148.48348246875,64.0,83.0
652,147.99687581249998,148.55491096875,59.0,80.0
653,147.63973331249997,148.57127999999997,52.0,85.0
654,148.3540183125,148.72604174999998,68.0,90.0
655,148.3540183125,148.77366074999998,71.0,87.0
656,148.7111608125,148.81532737499998,64.0,89.0
657,149.06830331249998,149.27514834374998,68.0,86.0
658,149.06830331249998,149.55342187499997,73.0,86.0
659,149.4254458125,149.89419534374997,68.0,86.0
660,149.06830331249998,150.124849875,61.0,94.0
661,149.7825883125,150.15312365625,76.0,94.0
662,150.13973081249998,150.30788540625,73.0,91.0
663,150.31830206249998,150.4046115,68.0,86.0
664,150.49687331249999,150.9433014375,70.0,86.0
665,150.49687331249999,151.07722987499997,66.0,90.0
666,151.21115831249998,151.32425343749998,66.0,80.0
667,151.21115831249998,151.50877706249997,70.0,92.0
668,150.49687331249999,151.58169365625,54.0,86.0
669,150.8540158125,151.58466984375,61.0,81.0
670,151.21115831249998,151.67990784375,73.0,88.0
671,151.56830081249998,151.73943159374997,66.0,90.0
672,151.9254433125,152.11591931249998,66.0,89.0
673,151.9254433125,152.34508574999998,71.0,86.0
674,152.28258581249997,152.50728796874998,66.0,88.0
675,152.63972831249998,152.84806143749998,66.0,94.0
676,152.63972831249998,152.9075851875,75.0,91.0
677,152.9968708125,153.16800159374998,71.0,88.0
678,151.9254433125,153.26621578125,59.0,86.0
679,153.1754420625,153.28407290624997,66.0,90.0
680,153.35401331249997,153.5444893125,66.0,92.0
681,153.35401331249997,153.77216765625,71.0,86.0
682,153.71115581249998,153.92692940625,66.0,88.0
683,154.0682983125,154.23645290624998,66.0,94.0
684,153.35401331249997,154.26323859374997,59.0,89.0
685,154.0682983125,154.28704809374997,75.0,90.0
686,154.2468695625,154.43883365624998,71.0,86.0
687,154.42544081249997,154.56085734374997,66.0,92.0
688,154.78258331249998,155.1873448125,67.0,86.0
689,154.78258331249998,155.21264240624998,63.0,86.0
690,155.1397258125,155.66502290625,58.0,83.0
691,155.49686831249997,155.76621328124997,63.0,99.0
692,155.49686831249997,155.90758218749997,75.0,96.0
693,156.03258206249998,156.07573678125,75.0,77.0
694,154.78258331249998,156.12186768749999,51.0,86.0
695,155.85401081249998,156.13079624999997,58.0,87.0
696,156.03258206249998,156.14567718749998,63.0,99.0
697,156.2111533125,156.58764103124997,70.0,86.0
698,156.2111533125,156.61740290625,63.0,106.0
699,156.56829581249997,156.98049778125,58.0,86.0
700,156.2111533125,157.0266286875,51.0,89.0
701,156.92543831249998,157.10996193749997,63.0,94.0
702,156.92543831249998,157.15460474999998,67.0,90.0
703,157.2825808125,157.42246162499998,63.0,102.0
704,157.6397233125,158.15609184374998,71.0,82.0
705,157.6397233125,158.1694846875,68.0,81.0
706,158.35400831249999,158.57871046875,68.0,89.0
707,158.35400831249999,158.65757943749998,80.0,86.0
708,158.7111508125,158.90460299999998,75.0,86.0
709,157.6397233125,158.93287678124997,56.0,85.0
710,157.99686581249998,158.94180534375,63.0,89.0
711,158.88972206249997,158.99984099999998,68.0,83.0
712,159.06829331249997,159.52067381249998,71.0,86.0
713,159.06829331249997,159.52513809374997,68.0,85.0
714,159.7825783125,159.91353056249997,68.0,91.0
715,159.42543581249998,159.92543531249999,63.0,86.0
716,159.06829331249997,159.94180434375,56.0,86.0
717,159.7825783125,159.98198287499997,71.0,99.0
718,160.13972081249997,160.30192303124997,68.0,91.0
719,160.49686331249998,160.58614893749998,49.0,89.0
720,160.49686331249998,160.7647201875,68.0,88.0
721,160.49686331249998,160.83614868749999,73.0,86.0
722,161.21114831249997,161.55489796874997,73.0,90.0
723,161.21114831249997,161.72454065624999,85.0,91.0
724,160.8540058125,161.82424293749997,61.0,85.0
725,161.56829081249998,161.85251671875,68.0,85.0
726,161.74686206249999,162.06084984375,73.0,90.0
727,162.28257581249997,162.52662318749998,73.0,94.0
728,162.46114706249998,162.58317075,80.0,87.0
729,162.1040045625,162.63227784375,68.0,88.0
730,161.9254333125,162.79596815624998,61.0,91.0
731,162.63971831249998,163.041503625,73.0,102.0
732,162.9968608125,163.10697975,68.0,85.0
733,163.35400331249997,163.5623364375,78.0,80.0
734,163.35400331249997,163.612931625,73.0,86.0
735,163.71114581249998,164.17691915625,61.0,89.0
736,164.0682883125,164.4790021875,73.0,89.0
737,164.0682883125,164.50281168749999,66.0,90.0
738,164.60400206249997,164.70370434375,66.0,68.0
739,164.60400206249997,164.7051924375,70.0,86.0
740,163.35400331249997,164.70668053125,54.0,87.0
741,164.42543081249997,164.72007337499997,61.0,85.0
742,164.78257331249998,165.17840625,66.0,86.0
743,164.78257331249998,165.23941809374998,78.0,86.0
744,165.3182870625,165.51322734374997,66.0,85.0
745,165.1397158125,165.70965571874999,61.0,87.0
746,165.4968583125,165.72751284375,73.0,88.0
747,165.67542956249997,165.86144128125,70.0,96.0
748,164.78257331249998,165.91650074999998,54.0,86.0
749,165.85400081249998,166.112929125,66.0,90.0
750,166.03257206249998,166.26173849999998,61.0,96.0
751,166.21114331249998,166.56382153124997,78.0,82.0
752,166.21114331249998,166.83614268749997,71.0,87.0
753,166.92542831249997,166.98495206249999,71.0,69.0
754,166.92542831249997,167.10846384374997,78.0,86.0
755,166.92542831249997,167.11739240625,75.0,90.0
756,166.92542831249997,167.39864212499998,83.0,86.0
757,166.21114331249998,167.48346346875,59.0,87.0
758,167.28257081249998,167.52066581249997,78.0,83.0
759,167.4611420625,167.57274909375,71.0,87.0
760,166.5682858125,167.58018956249998,66.0,77.0
761,167.6397133125,168.18286753124997,70.0,94.0
762,167.6397133125,168.208165125,73.0,87.0
763,168.35399831249998,168.51024815625,70.0,79.0
764,167.99685581249997,168.6426885,66.0,81.0
765,167.6397133125,168.65161706249998,58.0,87.0
766,168.35399831249998,168.68881940625,73.0,83.0
767,168.35399831249998,168.78852168749998,78.0,88.0
768,168.7111408125,168.84655734375,70.0,85.0
769,169.06828331249997,169.60250896875,71.0,81.0
770,169.06828331249997,169.66798509375,68.0,82.0
771,169.7825683125,169.86887774999997,71.0,96.0
772,169.7825683125,170.02810378124997,75.0,96.0
773,169.42542581249998,170.0980441875,63.0,79.0
774,169.9611395625,170.16500840624997,71.0,85.0
775,169.06828331249997,170.19625837499999,56.0,86.0
776,170.13971081249997,170.27512734374997,68.0,87.0
777,170.49685331249998,171.00726946874997,68.0,86.0
778,170.49685331249998,171.10548365625,64.0,82.0
779,171.21113831249997,171.34060246874998,64.0,83.0
780,170.8539958125,171.41203096874997,59.0,80.0
781,170.49685331249998,171.42839999999998,52.0,85.0
782,171.21113831249997,171.58316175,68.0,90.0
783,171.21113831249997,171.63078074999999,71.0,87.0
784,171.56828081249998,171.672447375,64.0,89.0
785,171.9254233125,172.13226834374998,68.0,86.0
786,171.9254233125,172.41054187499998,73.0,86.0
787,172.28256581249997,172.75131534374998,68.0,86.0
788,171.9254233125,172.98196987499998,61.0,94.0
789,172.63970831249998,173.01024365624997,76.0,94.0
790,172.99685081249999,173.16500540624997,73.0,91.0
791,173.1754220625,173.26173149999997,68.0,86.0
792,173.3539933125,173.80042143749998,70.0,86.0
793,173.3539933125,173.93434987499998,66.0,90.0
794,174.06827831249998,174.18137343749999,66.0,80.0
795,174.06827831249998,174.36589706249998,70.0,92.0
796,173.3539933125,174.43881365624998,54.0,86.0
797,173.71113581249998,174.44178984374997,61.0,81.0
798,174.06827831249998,174.53702784374997,73.0,88.0
799,174.4254208125,174.59655159374998,66.0,90.0
800,174.78256331249997,174.9730393125,66.0,89.0
801,174.78256331249997,175.20220575,71.0,86.0
802,175.13970581249998,175.36440796875,66.0,88.0
803,175.4968483125,175.7051814375,66.0,94.0
804,175.4968483125,175.76470518749997,75.0,91.0
805,175.85399081249997,176.02512159375,71.0,88.0
806,174.78256331249997,176.12333578124998,59.0,86.0
807,176.03256206249998,176.14119290624998,66.0,90.0
808,176.21113331249998,176.40160931249997,66.0,92.0
809,176.21113331249998,176.62928765624997,71.0,86.0
810,176.5682758125,176.78404940624998,66.0,88.0
811,176.92541831249997,177.09357290625,66.0,94.0
812,176.21113331249998,177.12035859374998,59.0,89.0
813,176.92541831249997,177.14416809374998,75.0,90.0
814,177.10398956249998,177.29595365625,71.0,86.0
815,177.28256081249998,177.41797734374998,66.0,92.0
816,177.6397033125,178.04446481249997,67.0,86.0
817,177.6397033125,178.06976240625,63.0,86.0
818,177.99684581249997,178.52214290624997,58.0,83.0
819,178.35398831249998,178.62333328124998,63.0,99.0
820,178.35398831249998,178.76470218749998,75.0,96.0
821,178.8897020625,178.93285678124997,75.0,77.0
822,177.6397033125,178.97898768749997,51.0,86.0
823,178.7111308125,178.98791624999998,58.0,87.0
824,178.8897020625,179.0027971875,63.0,99.0
825,179.06827331249997,179.44476103124998,70.0,86.0
826,179.06827331249997,179.47452290624997,63.0,106.0
827,179.42541581249998,179.83761778124997,58.0,86.0
828,179.06827331249997,179.88374868749997,51.0,89.0
829,179.7825583125,179.96708193749998,63.0,94.0
830,179.7825583125,180.01172474999998,67.0,90.0
831,180.13970081249997,180.279581625,63.0,102.0
832,180.49684331249998,181.01321184374999,71.0,82.0
833,180.49684331249998,181.02660468749997,68.0,81.0
834,181.21112831249997,181.43583046874997,68.0,89.0
835,181.21112831249997,181.51469943749998,80.0,86.0
836,181.56827081249997,181.761723,75.0,86.0
837,180.49684331249998,181.78999678124998,56.0,85.0
838,180.85398581249999,181.79892534374997,63.0,89.0
839,181.74684206249998,181.85696099999998,68.0,83.0
840,181.92541331249998,182.3777938125,71.0,86.0
841,181.92541331249998,182.38225809374998,68.0,85.0
842,182.63969831249997,182.77065056249998,68.0,91.0
843,182.2825558125,182.78255531249997,63.0,86.0
844,181.92541331249998,182.79892434374997,56.0,86.0
845,182.63969831249997,182.83910287499998,71.0,99.0
846,182.99684081249998,183.15904303124998,68.0,91.0
847,183.3539833125,183.446245125,54.0,86.0
848,183.3539833125,183.56975690624998,66.0,86.0
849,183.3539833125,183.59803068749997,73.0,84.0
850,184.24683956249999,184.44773221875,78.0,90.0
851,184.4254108125,184.56975590624998,85.0,99.0
852,184.60398206249997,184.77213665624998,78.0,87.0
853,184.06826831249998,185.03552924999997,73.0,96.0
854,184.78255331249997,185.0385054375,90.0,88.0
855,184.96112456249998,185.10695775,78.0,76.0
856,185.4968383125,185.68285003124998,90.0,86.0
857,185.13969581249998,185.72451665625,73.0,79.0
858,185.4968383125,185.73046903124998,94.0,87.0
859,183.71112581249997,185.91350456249998,66.0,85.0
860,186.21112331249998,186.55040868749998,68.0,88.0
861,186.21112331249998,186.56677771875,71.0,92.0
862,186.7468370625,186.86588456249999,68.0,86.0
863,186.92540831249997,187.08612243749997,71.0,89.0
864,186.21112331249998,187.1337414375,56.0,87.0
865,186.5682658125,187.1337414375,63.0,74.0
866,187.28255081249998,187.83463359374997,66.0,89.0
867,187.28255081249998,188.09951428124998,70.0,91.0
868,187.99683581249997,188.21112131249998,66.0,76.0
869,188.35397831249998,188.45963296875,70.0,90.0
870,188.35397831249998,188.48641865624998,66.0,92.0
871,188.35397831249998,188.48939484374998,73.0,89.0
872,187.28255081249998,188.5027876875,54.0,86.0
873,188.71112081249998,189.44772721874998,68.0,91.0
874,188.71112081249998,189.49385812499997,64.0,87.0
875,189.42540581249997,189.88671487499997,59.0,77.0
876,189.78254831249998,189.94028624999999,64.0,96.0
877,189.78254831249998,189.95516718749997,76.0,87.0
878,188.71112081249998,190.34355965624997,52.0,87.0
879,190.31826206249997,190.51766662499998,64.0,81.0
880,190.31826206249997,190.5950475,68.0,87.0
881,190.31826206249997,190.60248796874998,71.0,85.0
882,190.85397581249998,191.08760653124997,64.0,89.0
883,190.67540456249998,191.26915396874998,59.0,78.0
884,190.49683331249997,191.32272534374997,52.0,85.0
885,191.2111183125,191.43284428124997,64.0,99.0
886,191.2111183125,191.43582046874997,68.0,94.0
887,191.2111183125,191.48343946875,71.0,90.0
888,191.56826081249997,191.6694511875,52.0,86.0
889,191.92540331249998,192.33760528124998,68.0,85.0
890,191.92540331249998,192.33909337499998,71.0,85.0
891,192.63968831249997,192.77659293749997,68.0,92.0
892,192.63968831249997,192.82570003124997,71.0,101.0
893,192.63968831249997,192.83314049999998,75.0,99.0
894,192.2825458125,192.97153321874998,63.0,78.0
895,191.92540331249998,193.03998553124998,56.0,87.0
896,192.99683081249998,193.17093778125,68.0,87.0
897,193.3539733125,193.73641340624997,70.0,87.0
898,193.3539733125,193.75724671874997,66.0,90.0
899,193.88968706249997,194.04593690624998,66.0,86.0
900,193.71111581249997,194.15307965625,61.0,81.0
901,194.06825831249998,194.15754393749998,70.0,92.0
902,194.06825831249998,194.16647249999997,73.0,87.0
903,194.06825831249998,194.16796059374997,66.0,74.0
904,193.3539733125,194.18730581249997,54.0,87.0
905,194.4254008125,195.19474528124996,68.0,86.0
906,194.4254008125,195.21409049999997,64.0,86.0
907,195.13968581249998,195.25873331249997,71.0,80.0
908,195.49682831249999,195.60545915625,64.0,96.0
909,195.49682831249999,195.6099234375,76.0,88.0
910,194.4254008125,195.64712578124997,52.0,86.0
911,196.03254206249997,196.1099229375,76.0,73.0
912,196.03254206249997,196.11289912499998,80.0,86.0
913,195.85397081249997,196.29444656249999,59.0,70.0
914,196.21111331249998,196.56379153125,80.0,96.0
915,196.21111331249998,196.58760103125,76.0,91.0
916,196.7468270625,196.82420793749998,83.0,85.0
917,196.7468270625,196.82867221874997,76.0,85.0
918,196.56825581249998,197.01468393749997,59.0,75.0
919,196.92539831249996,197.12480287499997,76.0,90.0
920,196.92539831249996,197.16795759374997,83.0,101.0
921,195.85397081249997,197.17390996874997,52.0,55.0
922,197.63968331249998,198.0920638125,71.0,88.0
923,197.63968331249998,198.10099237499998,68.0,86.0
924,198.35396831249997,198.47003962499997,68.0,86.0
925,198.35396831249997,198.49087293749997,71.0,89.0
926,198.35396831249997,198.52063481249996,75.0,87.0
927,197.63968331249998,198.76765837499997,56.0,87.0
928,197.9968258125,198.80337262499998,63.0,72.0
929,198.71111081249998,198.86140828124996,68.0,80.0
930,199.0682533125,199.43878865624998,70.0,87.0
931,199.0682533125,199.4789671875,66.0,86.0
932,199.42539581249997,199.85247871874998,61.0,76.0
933,199.78253831249998,199.86438346874996,70.0,99.0
934,199.0682533125,199.87182393749998,54.0,87.0
935,199.78253831249998,199.87926440624997,73.0,94.0
936,199.78253831249998,199.89265724999998,66.0,94.0
937,200.1396808125,200.23789499999998,52.0,90.0
938,200.1396808125,200.4372995625,64.0,92.0
939,200.1396808125,200.47450190624997,68.0,90.0
940,201.2111083125,201.40902478124997,76.0,101.0
941,201.38967956249996,201.63075074999998,83.0,96.0
942,201.56825081249997,201.67836974999997,76.0,91.0
943,201.03253706249998,201.70664353124997,71.0,90.0
944,201.74682206249997,201.81081009374998,76.0,77.0
945,201.74682206249997,201.86289337499997,88.0,87.0
946,200.85396581249998,202.09057171874997,64.0,85.0
947,201.92539331249998,202.18878590625,76.0,92.0
948,201.92539331249998,202.19622637499998,88.0,86.0
949,202.2825358125,202.38223809374998,76.0,89.0
950,202.10396456249998,202.45217849999997,71.0,85.0
951,202.10396456249998,202.48640465625,64.0,63.0
952,202.4611070625,202.62479737499999,82.0,86.0
953,202.4611070625,202.63819021874997,83.0,85.0
954,202.4611070625,202.72747584374997,76.0,87.0
955,202.63967831249997,202.91646375,64.0,87.0
956,202.81824956249997,202.99235653124998,71.0,91.0
957,202.99682081249998,203.25277293749997,76.0,92.0
958,203.35396331249999,203.8063438125,71.0,88.0
959,203.35396331249999,203.81527237499998,68.0,86.0
960,204.06824831249997,204.18431962499997,68.0,86.0
961,204.06824831249997,204.20515293749997,71.0,89.0
962,204.06824831249997,204.23491481249997,75.0,87.0
963,203.35396331249999,204.48193837499997,56.0,87.0
964,203.71110581249997,204.51765262499998,63.0,72.0
965,204.42539081249998,204.57568828124997,68.0,80.0
966,204.78253331249996,205.15306865624999,70.0,87.0
967,204.78253331249996,205.19324718749996,66.0,86.0
968,205.13967581249997,205.56675871874998,61.0,76.0
969,205.49681831249998,205.57866346874997,70.0,99.0
970,204.78253331249996,205.58610393749998,54.0,87.0
971,205.49681831249998,205.59354440624998,73.0,94.0
972,205.49681831249998,205.60693725,66.0,94.0
973,205.85396081249996,205.95217499999998,52.0,90.0
974,205.85396081249996,206.1515795625,64.0,92.0
975,205.85396081249996,206.18878190624997,68.0,90.0
976,206.9253883125,207.12330478124997,76.0,101.0
977,207.10395956249997,207.34503074999998,83.0,96.0
978,207.28253081249997,207.39264974999998,76.0,91.0
979,206.74681706249999,207.42092353124997,71.0,90.0
980,207.46110206249998,207.52509009374998,76.0,77.0
981,207.46110206249998,207.57717337499997,88.0,87.0
982,206.56824581249998,207.80485171874997,64.0,85.0
983,207.63967331249998,207.90306590624996,76.0,92.0
984,207.63967331249998,207.91050637499998,88.0,86.0
985,207.9968158125,208.09651809374998,76.0,89.0
986,207.81824456249998,208.16645849999998,71.0,85.0
987,207.81824456249998,208.20068465625,64.0,63.0
988,208.17538706249996,208.339077375,82.0,86.0
989,208.17538706249996,208.35247021874997,83.0,85.0
990,208.17538706249996,208.44175584374997,76.0,87.0
991,208.35395831249997,208.63074374999997,64.0,87.0
992,208.53252956249997,208.70663653124998,80.0,91.0
993,208.71110081249998,208.96705293749997,76.0,92.0
994,209.0682433125,209.16645749999998,54.0,87.0
995,209.0682433125,209.50574287499998,73.0,87.0
996,209.0682433125,209.5682428125,82.0,87.0
997,209.78252831249998,210.01615903124997,73.0,101.0
998,209.96109956249998,210.0920518125,80.0,87.0
999,209.60395706249997,210.17984934374996,70.0,86.0
1000,209.42538581249997,210.35098012499998,61.0,79.0
1001,210.49681331249997,210.95514618749996,73.0,90.0
1002,210.49681331249997,210.97449140624997,78.0,88.0
1003,210.85395581249998,211.31228868749997,70.0,83.0
1004,210.49681331249997,211.35693149999997,66.0,86.0
1005,211.21109831249998,211.84800243749999,82.0,101.0
1006,211.21109831249998,211.85097862499998,73.0,96.0
1007,211.21109831249998,211.86139528124997,78.0,92.0
1008,211.56824081249997,211.93877615625,70.0,87.0
1009,211.92538331249997,212.36288287499997,78.0,84.0
1010,212.28252581249998,212.69175159374998,71.0,78.0
1011,212.63966831249996,213.04294171874997,78.0,86.0
1012,211.92538331249997,213.17389396874998,59.0,86.0
1013,212.99681081249997,213.42091753124998,71.0,84.0
1014,213.35395331249998,213.80038143749996,78.0,85.0
1015,213.71109581249996,214.14859537499999,70.0,86.0
1016,213.35395331249998,214.25425003124997,58.0,86.0
1017,214.06823831249997,214.35544040624998,73.0,86.0
1018,214.06823831249997,214.63222584374998,78.0,85.0
1019,214.42538081249998,214.66496390624997,70.0,84.0
1020,214.7825233125,215.1932371875,71.0,77.0
1021,214.7825233125,215.23192762499997,78.0,86.0
1022,215.13966581249997,215.36585606249997,68.0,71.0
1023,215.49680831249998,215.64264149999997,68.0,86.0
1024,215.49680831249998,215.91049837499997,71.0,85.0
1025,214.7825233125,216.14561718749997,56.0,85.0
1026,215.8539508125,216.27359324999998,68.0,77.0
1027,216.21109331249997,216.63222384374998,76.0,86.0
1028,216.56823581249998,216.98936634374996,68.0,80.0
1029,216.21109331249997,217.05037818749997,52.0,81.0
1030,216.9253783125,217.30781840624996,71.0,85.0
1031,217.28252081249997,217.61734190624998,68.0,89.0
1032,217.63966331249998,218.02359149999998,76.0,86.0
1033,217.99680581249999,218.39115065624998,68.0,84.0
1034,218.35394831249997,218.77210265624998,73.0,87.0
1035,218.71109081249998,219.00275718749998,68.0,87.0
1036,217.63966331249998,219.04293571875,61.0,82.0
1037,219.06823331249998,219.39561393749997,73.0,85.0
1038,219.42537581249996,219.81079209374997,66.0,85.0
1039,219.06823331249998,219.85394681249997,54.0,85.0
1040,219.78251831249997,220.22001787499997,73.0,88.0
1041,220.13966081249998,220.52507709374999,66.0,87.0
1042,220.49680331249996,220.96108856249998,75.0,87.0
1043,220.85394581249997,221.26465968749997,66.0,81.0
1044,221.21108831249998,221.58311174999997,71.0,90.0
1045,221.56823081249996,221.99531371874997,66.0,90.0
1046,221.92537331249997,222.35394431249998,75.0,91.0
1047,222.28251581249998,222.66793209374998,66.0,89.0
1048,220.49680331249996,222.86584856249996,59.0,86.0
1049,222.63965831249996,223.02507459374996,71.0,94.0
1050,222.99680081249997,223.29888384374996,66.0,92.0
1051,223.7110858125,223.99977599999997,63.0,86.0
1052,223.35394331249998,224.13965681249996,75.0,87.0
1053,224.06822831249997,224.46257315625,70.0,85.0
1054,224.42537081249998,224.62328728125,63.0,89.0
1055,224.7825133125,224.97150121874998,63.0,96.0
1056,225.13965581249997,225.48489356249996,63.0,94.0
1057,223.35394331249998,225.86435746874997,51.0,88.0
1058,225.49679831249998,225.86584556249997,67.0,88.0
1059,225.85394081249999,225.96852403124998,63.0,92.0
1060,224.7825133125,226.07715487499996,75.0,88.0
1061,226.21108331249997,226.68132093749998,71.0,82.0
1062,226.21108331249997,226.809297,68.0,79.0
1063,226.92536831249998,227.37477262499996,75.0,92.0
1064,227.28251081249996,227.58012956249996,68.0,85.0
1065,227.63965331249997,227.82417693749997,68.0,85.0
1066,227.63965331249997,228.11584331249998,71.0,82.0
1067,227.99679581249998,228.35096212499997,68.0,80.0
1068,226.56822581249997,228.48191437499997,63.0,75.0
1069,228.35393831249996,228.68280703124998,71.0,90.0
1070,228.35393831249996,228.70959271874997,75.0,92.0
1071,226.21108331249997,228.75125934374998,56.0,85.0
1072,229.06822331249998,229.48191337499998,76.0,91.0
1073,229.42536581249996,229.83756778125,68.0,79.0
1074,229.78250831249997,230.08607943749996,76.0,94.0
1075,230.13965081249998,230.58310274999997,68.0,89.0
1076,230.49679331249996,230.97298331249996,80.0,88.0
1077,230.85393581249997,231.06673321875,68.0,86.0
1078,231.21107831249998,231.38072099999997,68.0,86.0
1079,229.06822331249998,231.4551256875,61.0,86.0
1080,231.21107831249998,231.58161365624997,76.0,85.0
1081,231.5682208125,231.70810162499998,68.0,86.0
1082,231.92536331249997,232.30185103124998,73.0,85.0
1083,231.92536331249997,232.3420295625,66.0,85.0
1084,232.6396483125,232.78845768749997,66.0,86.0
1085,232.6396483125,232.87030284374998,70.0,89.0
1086,232.28250581249998,233.13815971874996,61.0,83.0
1087,231.92536331249997,233.16196921875,54.0,86.0
1088,232.99679081249997,233.20661203124996,66.0,91.0
1089,233.35393331249998,233.74232578124997,66.0,88.0
1090,233.35393331249998,233.76315909374998,70.0,92.0
1091,233.35393331249998,233.77059956249997,73.0,87.0
1092,233.71107581249998,234.26018240624998,61.0,80.0
1093,233.35393331249998,234.30631331249998,54.0,90.0
1094,234.06821831249997,234.7110748125,66.0,99.0
1095,234.42536081249997,234.71702718749998,54.0,92.0
1096,234.06821831249997,234.71702718749998,70.0,111.0
1097,234.78250331249998,235.13518153124997,78.0,82.0
1098,234.78250331249998,235.40750268749997,71.0,87.0
1099,235.49678831249997,235.55631206249998,71.0,69.0
1100,235.49678831249997,235.67982384374997,78.0,86.0
1101,235.49678831249997,235.68875240624996,75.0,90.0
1102,235.49678831249997,235.97000212499998,83.0,86.0
1103,234.78250331249998,236.05482346875,59.0,87.0
1104,235.85393081249998,236.09202581249997,78.0,83.0
1105,236.0325020625,236.14410909374996,71.0,87.0
1106,235.13964581249996,236.15154956249998,66.0,77.0
1107,236.21107331249996,236.75422753124997,70.0,94.0
1108,236.21107331249996,236.77952512499996,73.0,87.0
1109,236.92535831249998,237.08160815624998,70.0,79.0
1110,236.56821581249997,237.21404849999996,66.0,81.0
1111,236.21107331249996,237.22297706249998,58.0,87.0
1112,236.92535831249998,237.26017940624996,73.0,83.0
1113,236.92535831249998,237.35988168749998,78.0,88.0
1114,237.28250081249996,237.41791734374996,70.0,85.0
1115,237.63964331249997,238.17386896874999,71.0,81.0
1116,237.63964331249997,238.23934509374996,68.0,82.0
1117,238.35392831249996,238.44023774999997,71.0,96.0
1118,238.35392831249996,238.59946378124997,75.0,96.0
1119,237.99678581249998,238.66940418749996,63.0,79.0
1120,238.53249956249996,238.73636840624997,71.0,85.0
1121,237.63964331249997,238.76761837499998,56.0,86.0
1122,238.71107081249997,238.84648734374997,68.0,87.0
1123,239.06821331249998,239.57862946874997,68.0,86.0
1124,239.06821331249998,239.67684365624999,64.0,82.0
1125,239.78249831249997,239.91196246874998,64.0,83.0
1126,239.4253558125,239.98339096874997,59.0,80.0
1127,239.06821331249998,239.99975999999998,52.0,85.0
1128,239.78249831249997,240.15452175,68.0,90.0
1129,239.78249831249997,240.20214074999998,71.0,87.0
1130,240.13964081249998,240.24380737499996,64.0,89.0
1131,240.49678331249999,240.70362834374998,68.0,86.0
1132,240.49678331249999,240.98190187499998,73.0,86.0
1133,240.85392581249997,241.32267534374998,68.0,86.0
1134,240.49678331249999,241.55332987499997,61.0,94.0
1135,241.21106831249998,241.58160365624997,76.0,94.0
1136,241.56821081249998,241.73636540624997,73.0,91.0
1137,241.74678206249996,241.83309149999997,68.0,86.0
1138,241.92535331249996,242.37178143749998,70.0,86.0
1139,241.92535331249996,242.50570987499998,66.0,90.0
1140,242.63963831249998,242.75273343749998,66.0,80.0
1141,242.63963831249998,242.93725706249998,70.0,92.0
1142,241.92535331249996,243.01017365624998,54.0,86.0
1143,242.28249581249997,243.01314984374997,61.0,81.0
1144,242.63963831249998,243.10838784374997,73.0,88.0
1145,242.99678081249996,243.16791159374998,66.0,90.0
1146,243.35392331249997,243.54439931249996,66.0,89.0
1147,243.35392331249997,243.77356574999996,71.0,86.0
1148,243.71106581249998,243.93576796874999,66.0,88.0
1149,244.06820831249996,244.2765414375,66.0,94.0
1150,244.06820831249996,244.33606518749997,75.0,91.0
1151,244.42535081249997,244.59648159374998,71.0,88.0
1152,243.35392331249997,244.69469578124998,59.0,86.0
1153,244.60392206249998,244.71255290624998,66.0,90.0
1154,244.78249331249998,244.97296931249997,66.0,92.0
1155,244.78249331249998,245.20064765624997,71.0,86.0
1156,245.13963581249996,245.35540940624998,66.0,88.0
1157,245.49677831249997,245.66493290624996,66.0,94.0
1158,244.78249331249998,245.69171859374998,59.0,89.0
1159,245.49677831249997,245.71552809374998,75.0,90.0
1160,245.67534956249997,245.86731365624996,71.0,86.0
1161,245.85392081249998,245.98933734374998,66.0,92.0
1162,246.21106331249996,246.61582481249997,67.0,86.0
1163,246.21106331249996,246.64112240624996,63.0,86.0
1164,246.56820581249997,247.09350290624997,58.0,83.0
1165,246.92534831249998,247.19469328124998,63.0,99.0
1166,246.92534831249998,247.33606218749998,75.0,96.0
1167,247.46106206249996,247.50421678124997,75.0,77.0
1168,246.21106331249996,247.55034768749996,51.0,86.0
1169,247.28249081249996,247.55927624999998,58.0,87.0
1170,247.46106206249996,247.57415718749996,63.0,99.0
1171,247.63963331249997,248.01612103124998,70.0,86.0
1172,247.63963331249997,248.04588290624997,63.0,106.0
1173,247.99677581249998,248.40897778124997,58.0,86.0
1174,247.63963331249997,248.45510868749997,51.0,89.0
1175,248.35391831249999,248.53844193749998,63.0,94.0
1176,248.35391831249999,248.58308474999998,67.0,90.0
1177,248.71106081249997,248.85094162499996,63.0,102.0
1178,249.06820331249997,249.58457184374998,71.0,82.0
1179,249.06820331249997,249.59796468749997,68.0,81.0
1180,249.78248831249996,250.00719046874997,68.0,89.0
1181,249.78248831249996,250.08605943749998,80.0,86.0
1182,250.13963081249997,250.33308299999996,75.0,86.0
1183,249.06820331249997,250.36135678124998,56.0,85.0
1184,249.42534581249998,250.37028534374997,63.0,89.0
1185,250.31820206249998,250.42832099999998,68.0,83.0
1186,250.49677331249998,250.94915381249996,71.0,86.0
1187,250.49677331249998,250.95361809374998,68.0,85.0
1188,251.21105831249997,251.34201056249998,68.0,91.0
1189,250.85391581249996,251.35391531249996,63.0,86.0
1190,250.49677331249998,251.37028434374997,56.0,86.0
1191,251.21105831249997,251.41046287499998,71.0,99.0
1192,251.56820081249998,251.73040303124998,68.0,91.0
1193,251.92534331249996,252.01760512499996,54.0,86.0
1194,251.92534331249996,252.14111690624998,66.0,86.0
1195,251.92534331249996,252.16939068749997,73.0,84.0
1196,252.81819956249998,253.01909221874996,78.0,90.0
1197,252.99677081249996,253.14111590624998,85.0,99.0
1198,253.17534206249996,253.34349665624998,78.0,87.0
1199,252.63962831249998,253.60688924999997,73.0,96.0
1200,253.35391331249997,253.60986543749996,90.0,88.0
1201,253.53248456249997,253.67831774999996,78.0,76.0
1202,254.06819831249996,254.25421003124998,90.0,86.0
1203,253.71105581249998,254.29587665624996,73.0,79.0
1204,254.06819831249996,254.30182903124998,94.0,87.0
1205,252.28248581249997,254.48486456249998,66.0,85.0
1206,254.74081668749997,256.40896978125,54.0,81.0
1207,254.80480471874998,256.5205768125,82.0,86.0
1208,254.74379287499997,256.54438631249997,78.0,86.0
1209,254.64557868749998,256.54587440625,73.0,84.0
1210,257.63962331249996,258.13813471875,75.0,86.0
1211,257.63962331249996,258.14557518749996,71.0,78.0
1212,258.3539083125,258.4908129375,75.0,87.0
1213,257.63962331249996,258.53396765624996,59.0,85.0
1214,258.3539083125,258.53992003124995,71.0,87.0
1215,257.9967658125,259.05033618749997,66.0,80.0
1216,258.7110508125,259.61283562499995,73.0,85.0
1217,258.7110508125,259.63069275,70.0,85.0
1218,259.42533581249995,259.87771631249996,66.0,69.0
1219,258.7110508125,259.92235912499996,58.0,85.0
1220,259.78247831249996,259.92979959375,73.0,80.0
1221,259.78247831249996,259.9550971875,78.0,78.0
1222,259.78247831249996,259.96551384375,70.0,81.0
1223,260.13962081249997,261.02801278124997,71.0,86.0
1224,260.13962081249997,261.15003646875,68.0,85.0
1225,261.2110483125,261.46848853125,71.0,83.0
1226,261.2110483125,261.50866706249997,75.0,87.0
1227,260.8539058125,261.73039303124995,63.0,71.0
1228,261.56819081249995,262.70063015625,68.0,72.0
1229,262.28247581249997,262.779499125,63.0,69.0
1230,262.6396183125,262.98932034374997,80.0,85.0
1231,262.6396183125,263.02801078125,75.0,85.0
1232,260.13962081249997,263.03693934374996,56.0,85.0
1233,262.6396183125,263.03991553124996,71.0,85.0
1234,262.9967608125,263.12622496874997,68.0,78.0
1235,263.3539033125,263.66640299999995,71.0,79.0
1236,264.06818831249996,264.20509293749996,71.0,85.0
1237,263.3539033125,264.47592599999996,59.0,87.0
1238,264.06818831249996,264.493783125,75.0,86.0
1239,264.42533081249996,264.62919965624997,71.0,85.0
1240,263.71104581249995,264.88663987499996,66.0,76.0
1241,264.7824733125,265.45360359374996,70.0,88.0
1242,265.1396158125,265.56818681249996,73.0,85.0
1243,264.7824733125,265.63515103124996,58.0,85.0
1244,265.4967583125,265.72592475,78.0,86.0
1245,265.85390081249994,269.005683375,71.0,79.0
1246,265.85390081249994,269.017588125,56.0,81.0
1247,265.85390081249994,269.02205240625,68.0,89.0
