,start,end,pitch,velocity
0,0.19171749999999999,0.6031727499999999,58.0,82.0
1,0.5456575,0.920244,53.0,54.0
2,0.8995974999999999,1.2948305,61.0,95.0
3,1.2535375,1.59715425,60.0,96.0
4,1.6074775,1.9437205,58.0,90.0
5,1.9614174999999998,2.15755925,70.0,100.0
6,2.1383875,2.341903,68.0,85.0
7,2.3153574999999997,2.7872775,70.0,92.0
8,2.6692975,2.931803,68.0,86.0
9,3.0232375,4.211886,65.0,83.0
10,4.4389975,5.15130175,63.0,90.0
11,5.5008175,5.7603735,70.0,99.0
12,5.8547575,6.07744475,68.0,93.0
13,6.2086974999999995,6.441707999999999,65.0,92.0
14,6.5626375,6.717486249999999,63.0,89.0
15,6.9165775,7.07142625,61.0,83.0
16,7.0935475,7.2646185,63.0,73.0
17,7.2705174999999995,8.19518575,65.0,81.0
18,7.9783975,8.19518575,65.0,86.0
19,8.3323375,8.73494425,63.0,81.0
20,8.6862775,9.703854999999999,65.0,92.0
21,9.7480975,10.12415875,68.0,90.0
22,10.1020375,10.444179499999999,65.0,97.0
23,10.4559775,10.6152505,63.0,83.0
24,10.1020375,10.942644999999999,70.0,88.0
25,10.8099175,11.069473499999999,63.0,85.0
26,11.163857499999999,11.3526255,61.0,75.0
27,11.3408275,11.54581775,58.0,56.0
28,11.5177975,12.228627,61.0,64.0
29,12.5796175,12.83769875,63.0,93.0
30,12.9335575,13.14444675,53.0,92.0
31,13.287497499999999,13.443821,53.0,88.0
32,13.4644675,13.693053749999999,56.0,74.0
33,13.641437499999999,13.91131675,58.0,89.0
34,13.9953775,14.324246749999999,61.0,81.0
35,14.3493175,15.169278499999999,58.0,89.0
36,15.0571975,15.169278499999999,58.0,92.0
37,15.2341675,15.44210725,56.0,70.0
38,15.411137499999999,15.613178249999999,58.0,89.0
39,15.5881075,15.8063705,61.0,85.0
40,15.765077499999999,16.475907,63.0,95.0
41,16.826897499999998,17.071706,65.0,93.0
42,17.1808375,17.472838,63.0,86.0
43,17.5347775,17.84005075,61.0,86.0
44,17.8887175,18.17629375,58.0,90.0
45,18.0656875,18.193990749999998,56.0,79.0
46,18.2426575,18.452071999999998,58.0,72.0
47,18.596597499999998,20.146559749999998,61.0,89.0
48,30.276617499999997,30.621709,70.0,102.0
49,30.6305575,30.931406499999998,68.0,88.0
50,30.9844975,31.29566975,68.0,97.0
51,31.338437499999998,31.826579749999997,65.0,90.0
52,31.8693475,31.99175175,68.0,89.0
53,32.0463175,32.350116,63.0,89.0
54,32.400257499999995,32.6244195,65.0,89.0
55,32.7541975,33.83518925,65.0,88.0
56,41.9566375,42.300254249999995,68.0,99.0
57,42.3105775,42.637972,65.0,83.0
58,42.664517499999995,42.98158875,63.0,86.0
59,43.0184575,43.351751,68.0,92.0
60,43.3723975,43.695367749999996,65.0,89.0
61,43.7263375,44.11124725,63.0,92.0
62,44.0802775,45.35003725,61.0,86.0
63,52.928777499999995,53.273869,70.0,102.0
64,53.2827175,53.583566499999996,68.0,88.0
65,53.6366575,53.94782975,68.0,97.0
66,53.9905975,54.478739749999995,65.0,90.0
67,54.5215075,54.64391175,68.0,89.0
68,54.698477499999996,55.002275999999995,63.0,89.0
69,55.0524175,55.2765795,65.0,89.0
70,55.4063575,56.487349249999994,65.0,88.0
71,65.67061749999999,65.868234,56.0,86.0
72,65.8475875,66.03783025,58.0,72.0
73,66.0245575,66.1779315,61.0,85.0
74,66.2015275,66.40356824999999,58.0,72.0
75,66.3784975,66.6439525,61.0,81.0
76,66.55546749999999,66.71621524999999,65.0,86.0
77,66.7324375,67.88421724999999,63.0,96.0
78,87.08398749999999,87.18722,68.0,90.0
79,87.26095749999999,87.57802875,68.0,93.0
80,87.6148975,87.9334435,70.0,95.0
81,87.96883749999999,89.4317895,68.0,92.0
82,91.1542975,91.304722,85.0,79.0
83,91.3312675,91.50381325,82.0,86.0
84,91.50823749999999,92.1807235,80.0,81.0
85,98.5870375,98.94245225,70.0,112.0
86,98.9409775,99.19168499999999,68.0,89.0
87,99.2949175,99.63853424999999,70.0,99.0
88,99.64885749999999,99.96887824999999,68.0,89.0
89,100.0027975,100.40540424999999,65.0,88.0
90,100.3567375,100.70477849999999,63.0,92.0
91,100.71067749999999,101.57783049999999,65.0,88.0
92,109.9131175,110.52513875,56.0,83.0
93,110.6209975,111.143059,61.0,90.0
94,111.32887749999999,111.6887165,63.0,97.0
95,111.6828175,112.00578775,65.0,93.0
96,112.0367575,112.4319905,58.0,102.0
97,112.3906975,112.7505365,56.0,78.0
98,112.7446375,113.08825424999999,58.0,90.0
99,113.09857749999999,113.449568,61.0,77.0
100,113.98342749999999,114.07633675,70.0,96.0
101,113.4525175,114.09403375,58.0,39.0
102,114.16039749999999,114.44354949999999,70.0,93.0
103,114.5143375,114.86975224999999,68.0,90.0
104,114.86827749999999,115.19124774999999,58.0,97.0
105,114.86827749999999,115.44048049999999,70.0,83.0
106,115.2222175,115.44048049999999,70.0,93.0
107,115.5761575,115.87258225,70.0,81.0
108,115.93009749999999,116.2899365,68.0,58.0
109,116.63797749999999,116.92850324999999,70.0,83.0
110,116.2840375,117.06712974999999,65.0,83.0
111,116.9919175,117.32963525,73.0,81.0
112,117.3458575,117.66440349999999,77.0,71.0
113,117.69979749999999,118.021293,63.0,89.0
114,118.0537375,118.3073945,68.0,92.0
115,117.69979749999999,118.32066725,75.0,81.0
116,118.40767749999999,118.73949624999999,68.0,89.0
117,118.7616175,119.03444624999999,70.0,86.0
118,119.1155575,119.44442674999999,68.0,89.0
119,119.46949749999999,119.79246775,65.0,89.0
120,119.8234375,120.17442799999999,63.0,86.0
121,120.17737749999999,120.34697374999999,61.0,77.0
122,120.35434749999999,120.56523675,63.0,72.0
123,120.5313175,121.80107724999999,65.0,73.0
124,123.00889749999999,123.13867549999999,65.0,93.0
125,123.3628375,123.69760575,65.0,92.0
126,123.89374749999999,123.97780825,63.0,83.0
127,124.0707175,124.23441475,63.0,77.0
128,124.2476875,124.41728375,61.0,72.0
129,124.4246575,124.79481974999999,58.0,79.0
130,124.77859749999999,125.65164949999999,61.0,82.0
131,125.8404175,125.95692274999999,61.0,90.0
132,126.1943575,126.60286325,53.0,78.0
133,126.7252675,126.82555049999999,56.0,72.0
134,126.9022375,127.00104574999999,56.0,70.0
135,127.0792075,127.23405625,58.0,83.0
136,127.25617749999999,127.41397574999999,61.0,77.0
137,127.6101175,127.990603,58.0,88.0
138,129.0258775,129.406363,58.0,85.0
139,129.3798175,129.7219595,63.0,79.0
140,129.7337575,130.01543475,58.0,86.0
141,130.0876975,130.42983949999999,65.0,88.0
142,130.44163749999998,130.916507,63.0,88.0
143,130.7955775,131.05660824999998,61.0,90.0
144,131.1495175,131.506407,58.0,89.0
145,131.5034575,131.695175,56.0,77.0
146,131.6804275,131.866246,58.0,81.0
147,132.9192175,133.09618749999998,56.0,72.0
148,133.09618749999998,133.276107,58.0,83.0
149,131.8573975,133.49289525,61.0,88.0
150,133.2731575,133.49289525,61.0,83.0
151,133.4501275,133.61235,58.0,79.0
152,133.6270975,133.9043505,56.0,59.0
153,133.8040675,133.98988599999998,58.0,69.0
154,133.98103749999999,134.172755,61.0,79.0
155,134.1580075,134.172755,61.0,83.0
156,134.3349775,134.5001495,63.0,58.0
157,134.5119475,134.73316,65.0,63.0
158,134.6889175,135.924758,63.0,75.0
159,155.0404675,155.1437,68.0,90.0
160,155.2174375,155.53450875,68.0,93.0
161,155.57137749999998,155.88992349999998,70.0,95.0
162,155.9253175,157.3882695,68.0,92.0
163,159.11077749999998,159.261202,85.0,79.0
164,159.2877475,159.46029325,82.0,86.0
165,159.4647175,160.1372035,80.0,81.0
166,166.54351749999998,166.89893225,70.0,112.0
167,166.8974575,167.148165,68.0,89.0
168,167.2513975,167.59501425,70.0,99.0
169,167.6053375,167.92535825,68.0,89.0
170,167.95927749999998,168.36188425,65.0,88.0
171,168.31321749999998,168.6612585,63.0,92.0
172,168.6671575,169.5343105,65.0,88.0
173,177.5156575,177.85485,65.0,93.0
174,177.8695975,178.23091125,68.0,79.0
175,178.2235375,178.57010375,63.0,72.0
176,178.5774775,179.32812525,61.0,77.0
177,179.9932375,180.33980375,58.0,90.0
178,180.3471775,180.72471349999998,53.0,73.0
179,180.70111749999998,181.093401,58.0,97.0
180,181.0550575,181.40752275,61.0,78.0
181,181.4089975,182.24223125,58.0,93.0
182,182.47081749999998,182.827707,56.0,82.0
183,182.8247575,183.13592975,58.0,92.0
184,183.1786975,183.4264555,70.0,96.0
185,183.5326375,183.8393855,70.0,90.0
186,183.8865775,184.22871949999998,68.0,85.0
187,184.24051749999998,185.12831699999998,65.0,85.0
188,185.69757049999998,186.744643,65.0,88.0
189,186.70187525,187.139876,68.0,70.0
190,187.10595675,187.5557555,65.0,75.0
191,187.49824024999998,187.9863825,68.0,69.0
192,187.94214,188.41848424999998,70.0,88.0
193,188.38014074999998,188.95971749999998,68.0,88.0
194,188.909576,193.97386749999998,70.0,107.0
