,start,end,pitch,velocity
0,21.4281175,21.843996999999998,58.0,96.0
1,21.7820575,22.1359975,53.0,61.0
2,22.1359975,22.435371749999998,58.0,86.0
3,22.4899375,22.842402749999998,61.0,95.0
4,22.843877499999998,23.4927675,58.0,85.0
5,23.9056975,24.26701125,56.0,89.0
6,24.2596375,24.58850675,58.0,93.0
7,24.613577499999998,24.81561825,70.0,97.0
8,24.9675175,25.27574025,70.0,83.0
9,25.321457499999998,25.648851999999998,68.0,82.0
10,25.6753975,26.316913749999998,65.0,86.0
11,27.091157499999998,27.448047,63.0,95.0
12,27.4450975,28.281280749999997,68.0,99.0
13,28.1529775,28.44350325,70.0,102.0
14,28.5069175,28.8490595,68.0,90.0
15,28.860857499999998,29.11598925,65.0,88.0
16,29.2147975,29.533343499999997,63.0,88.0
17,29.568737499999997,29.758980249999997,61.0,90.0
18,29.745707499999998,29.9521725,63.0,88.0
19,29.9226775,31.080356249999998,65.0,89.0
20,32.400257499999995,32.5654295,65.0,85.0
21,32.7541975,33.12141025,65.0,97.0
22,33.285107499999995,33.36916825,63.0,82.0
23,33.4620775,33.70836075,63.0,93.0
24,33.8160175,34.11539175,58.0,95.0
25,34.169957499999995,34.8778375,61.0,90.0
26,35.2317775,35.612263,63.0,81.0
27,35.5857175,36.28622375,53.0,89.0
28,36.1166275,36.28917325,56.0,73.0
29,36.2935975,36.64311325,58.0,77.0
30,36.6475375,37.045719999999996,61.0,82.0
31,37.0014775,37.73737775,58.0,83.0
32,38.4172375,38.7711775,58.0,85.0
33,38.7711775,39.3964715,63.0,100.0
34,39.479057499999996,39.79907825,65.0,90.0
35,39.8329975,40.2636245,61.0,93.0
36,40.1869375,40.2636245,61.0,102.0
37,40.5408775,40.85794875,63.0,97.0
38,40.894817499999995,41.22663625,58.0,93.0
39,41.248757499999996,42.70728525,56.0,93.0
40,44.0802775,44.496157,58.0,96.0
41,44.434217499999995,44.7881575,53.0,61.0
42,44.7881575,45.08753175,58.0,86.0
43,45.1420975,45.49456275,61.0,95.0
44,45.4960375,46.1449275,58.0,85.0
45,46.5578575,46.91917125,56.0,89.0
46,46.9117975,47.240666749999995,58.0,93.0
47,47.2657375,47.467778249999995,70.0,97.0
48,47.619677499999995,47.92790025,70.0,83.0
49,47.973617499999996,48.301012,68.0,82.0
50,48.3275575,48.96907375,65.0,86.0
51,49.743317499999996,50.100207,63.0,95.0
52,50.0972575,50.933440749999995,68.0,99.0
53,50.8051375,51.09566325,70.0,102.0
54,51.159077499999995,51.5012195,68.0,90.0
55,51.5130175,51.76814925,65.0,88.0
56,51.8669575,52.185503499999996,63.0,88.0
57,52.2208975,52.411140249999995,61.0,90.0
58,52.3978675,52.6043325,63.0,88.0
59,52.5748375,53.732516249999996,65.0,89.0
60,55.0524175,55.217589499999995,65.0,85.0
61,55.4063575,55.77357025,65.0,97.0
62,55.9372675,56.021328249999996,63.0,82.0
63,56.114237499999994,56.36052075,63.0,93.0
64,56.468177499999996,56.767551749999996,58.0,95.0
65,56.8221175,57.5299975,61.0,90.0
66,57.883937499999995,58.264423,63.0,81.0
67,58.237877499999996,58.93838375,53.0,89.0
68,58.768787499999995,58.94133325,56.0,73.0
69,58.9457575,59.295273249999994,58.0,77.0
70,59.2996975,59.69788,61.0,82.0
71,59.653637499999995,60.389537749999995,58.0,83.0
72,61.069397499999994,61.423337499999995,58.0,85.0
73,61.423337499999995,62.0486315,63.0,100.0
74,62.1312175,62.451238249999996,65.0,90.0
75,62.4851575,62.833198499999995,63.0,97.0
76,62.839097499999994,63.114875749999996,61.0,100.0
77,63.193037499999996,63.54255325,58.0,97.0
78,63.5469775,63.88764475,56.0,90.0
79,63.723947499999994,63.9127155,58.0,93.0
80,63.9009175,64.62944399999999,61.0,97.0
81,66.3784975,66.646902,61.0,92.0
82,66.7324375,67.11144825,63.0,96.0
83,67.2633475,67.42557,61.0,95.0
84,67.44031749999999,67.60843899999999,63.0,69.0
85,67.6172875,67.832601,61.0,85.0
86,67.7942575,67.9358335,63.0,81.0
87,67.9712275,68.19391474999999,65.0,89.0
88,68.1481975,68.28239975,61.0,85.0
89,68.32516749999999,69.14365375,58.0,82.0
90,69.21001749999999,69.43565425,68.0,96.0
91,69.3869875,69.54773525,65.0,74.0
92,69.5639575,70.00195825,63.0,88.0
93,70.09486749999999,70.24086774999999,61.0,78.0
94,70.2718375,70.44733275,63.0,71.0
95,70.4488075,70.664121,61.0,85.0
96,70.6257775,70.80717175,63.0,82.0
97,70.8027475,71.04903075,65.0,83.0
98,70.97971749999999,71.57994074999999,63.0,92.0
99,72.04153749999999,72.24062875,65.0,76.0
100,72.2185075,72.35860875,68.0,69.0
101,72.3954775,72.96030675,70.0,90.0
102,72.92638749999999,73.07533724999999,68.0,83.0
103,73.1033575,73.36438824999999,70.0,92.0
104,73.4572975,73.7699445,73.0,93.0
105,73.81123749999999,74.36426875,70.0,95.0
106,74.8730575,75.0972195,65.0,97.0
107,75.2269975,75.64435175,63.0,99.0
108,75.7579075,75.90095825,61.0,95.0
109,75.9348775,76.07497875,63.0,83.0
110,76.1118475,76.29766599999999,61.0,93.0
111,76.2888175,76.49085825,63.0,96.0
112,76.46578749999999,76.60293924999999,65.0,82.0
113,76.6427575,77.554153,68.0,99.0
114,77.7045775,78.0054265,61.0,97.0
115,78.0585175,78.5068415,63.0,96.0
116,78.5894275,78.7781955,61.0,82.0
117,78.7663975,78.9433675,63.0,90.0
118,78.9433675,79.16015575,61.0,95.0
119,79.12033749999999,79.33417625,63.0,90.0
120,79.2973075,79.43445925,65.0,90.0
121,79.4742775,79.6748435,61.0,93.0
122,79.6512475,80.3532285,58.0,93.0
123,80.5360975,80.7130675,68.0,102.0
124,80.7130675,80.845795,65.0,77.0
125,80.89003749999999,81.21890675,63.0,96.0
126,81.4209475,81.55809925,61.0,93.0
127,81.5979175,81.75276625,63.0,90.0
128,81.77488749999999,81.9636555,61.0,92.0
129,81.9518575,82.10670625,63.0,73.0
130,82.1288275,82.35298949999999,65.0,76.0
131,82.3057975,82.928142,63.0,102.0
132,83.3676175,83.55638549999999,65.0,66.0
133,83.54458749999999,83.7392545,68.0,75.0
134,83.7215575,84.07107325,70.0,89.0
135,84.2524675,84.373397,68.0,89.0
136,84.42943749999999,84.615256,70.0,74.0
137,84.6064075,84.8010745,68.0,89.0
138,84.7833775,84.93527675,70.0,88.0
139,84.9603475,85.17566099999999,73.0,88.0
140,85.1373175,85.28921675,70.0,93.0
141,85.49125749999999,85.97350075,70.0,96.0
142,86.19913749999999,86.50293599999999,65.0,93.0
143,86.5530775,88.28000974999999,68.0,97.0
144,89.3845975,89.800477,58.0,96.0
145,89.73853749999999,90.0924775,53.0,61.0
146,90.0924775,90.39185175,58.0,86.0
147,90.4464175,90.79888274999999,61.0,95.0
148,90.80035749999999,91.4492475,58.0,85.0
149,91.8621775,92.22349125,56.0,89.0
150,92.2161175,92.54498674999999,58.0,93.0
151,92.57005749999999,92.77209825,70.0,97.0
152,92.9239975,93.23222025,70.0,83.0
153,93.2779375,93.60533199999999,68.0,82.0
154,93.6318775,94.27339375,65.0,86.0
155,95.0476375,95.404527,63.0,95.0
156,95.4015775,96.23776074999999,68.0,99.0
157,96.10945749999999,96.39998324999999,70.0,102.0
158,96.4633975,96.8055395,68.0,90.0
159,96.8173375,97.07246925,65.0,88.0
160,97.1712775,97.4898235,63.0,88.0
161,97.5252175,97.71546024999999,61.0,90.0
162,97.7021875,97.9086525,63.0,88.0
163,97.87915749999999,99.03683625,65.0,89.0
164,100.3567375,100.52190949999999,65.0,85.0
165,100.71067749999999,101.07789025,65.0,97.0
166,101.2415875,101.32564825,63.0,82.0
167,101.41855749999999,101.66484075,63.0,93.0
168,101.7724975,102.07187175,58.0,95.0
169,102.1264375,102.8343175,61.0,90.0
170,103.18825749999999,103.568743,63.0,81.0
171,103.5421975,104.24270374999999,53.0,89.0
172,104.07310749999999,104.24565324999999,56.0,73.0
173,104.25007749999999,104.59959325,58.0,77.0
174,104.6040175,105.0022,61.0,82.0
175,104.95795749999999,105.69385774999999,58.0,83.0
176,106.3737175,106.72765749999999,58.0,85.0
177,106.72765749999999,107.35295149999999,63.0,100.0
178,107.4355375,107.75555824999999,65.0,90.0
179,107.78947749999999,108.1080235,63.0,93.0
180,108.1434175,108.3203875,63.0,100.0
181,108.3203875,108.45458975,61.0,83.0
182,108.49735749999999,108.84392375,58.0,100.0
183,108.8512975,109.23325774999999,56.0,89.0
184,109.0282675,109.2996215,58.0,93.0
185,109.2052375,109.77301625,61.0,100.0
186,134.3349775,134.60338199999998,61.0,92.0
187,134.6889175,135.06792825,63.0,96.0
188,135.21982749999998,135.38205,61.0,95.0
189,135.3967975,135.564919,63.0,69.0
190,135.5737675,135.78908099999998,61.0,85.0
191,135.75073749999999,135.8923135,63.0,81.0
192,135.9277075,136.15039475,65.0,89.0
193,136.10467749999998,136.23887975,61.0,85.0
194,136.2816475,137.10013375,58.0,82.0
195,137.1664975,137.39213425,68.0,96.0
196,137.3434675,137.50421525,65.0,74.0
197,137.52043749999999,137.95843825,63.0,88.0
198,138.0513475,138.19734775,61.0,78.0
199,138.2283175,138.40381275,63.0,71.0
200,138.4052875,138.620601,61.0,85.0
201,138.5822575,138.76365174999998,63.0,82.0
202,138.75922749999998,139.00551074999998,65.0,83.0
203,138.9361975,139.53642075,63.0,92.0
204,139.9980175,140.19710874999998,65.0,76.0
205,140.1749875,140.31508875,68.0,69.0
206,140.3519575,140.91678675,70.0,90.0
207,140.8828675,141.03181725,68.0,83.0
208,141.0598375,141.32086825,70.0,92.0
209,141.41377749999998,141.7264245,73.0,93.0
210,141.7677175,142.32074875,70.0,95.0
211,142.8295375,143.0536995,65.0,97.0
212,143.18347749999998,143.60083175,63.0,99.0
213,143.7143875,143.85743825,61.0,95.0
214,143.8913575,144.03145874999998,63.0,83.0
215,144.06832749999998,144.254146,61.0,93.0
216,144.2452975,144.44733825,63.0,96.0
217,144.4222675,144.55941925,65.0,82.0
218,144.5992375,145.51063299999998,68.0,99.0
219,145.6610575,145.9619065,61.0,97.0
220,146.0149975,146.4633215,63.0,96.0
221,146.5459075,146.73467549999998,61.0,82.0
222,146.72287749999998,146.8998475,63.0,90.0
223,146.8998475,147.11663575,61.0,95.0
224,147.0768175,147.29065624999998,63.0,90.0
225,147.2537875,147.39093925,65.0,90.0
226,147.4307575,147.63132349999998,61.0,93.0
227,147.60772749999998,148.3097085,58.0,93.0
228,148.49257749999998,148.6695475,68.0,102.0
229,148.6695475,148.80227499999998,65.0,77.0
230,148.8465175,149.17538675,63.0,96.0
231,149.37742749999998,149.51457925,61.0,93.0
232,149.5543975,149.70924625,63.0,90.0
233,149.7313675,149.9201355,61.0,92.0
234,149.9083375,150.06318625,63.0,73.0
235,150.0853075,150.3094695,65.0,76.0
236,150.26227749999998,150.88462199999998,63.0,102.0
237,151.3240975,151.5128655,65.0,66.0
238,151.5010675,151.6957345,68.0,75.0
239,151.6780375,152.02755324999998,70.0,89.0
240,152.2089475,152.32987699999998,68.0,89.0
241,152.3859175,152.571736,70.0,74.0
242,152.5628875,152.7575545,68.0,89.0
243,152.7398575,152.89175674999998,70.0,88.0
244,152.91682749999998,153.132141,73.0,88.0
245,153.0937975,153.24569674999998,70.0,93.0
246,153.4477375,153.92998075,70.0,96.0
247,154.1556175,154.459416,65.0,93.0
248,154.5095575,156.23648975,68.0,97.0
249,157.34107749999998,157.756957,58.0,96.0
250,157.6950175,158.0489575,53.0,61.0
251,158.0489575,158.34833175,58.0,86.0
252,158.4028975,158.75536275,61.0,95.0
253,158.7568375,159.40572749999998,58.0,85.0
254,159.8186575,160.17997125,56.0,89.0
255,160.1725975,160.50146675,58.0,93.0
256,160.5265375,160.72857825,70.0,97.0
257,160.88047749999998,161.18870024999998,70.0,83.0
258,161.2344175,161.561812,68.0,82.0
259,161.5883575,162.22987375,65.0,86.0
260,163.0041175,163.361007,63.0,95.0
261,163.3580575,164.19424075,68.0,99.0
262,164.0659375,164.35646325,70.0,102.0
263,164.41987749999998,164.76201949999998,68.0,90.0
264,164.77381749999998,165.02894924999998,65.0,88.0
265,165.1277575,165.4463035,63.0,88.0
266,165.4816975,165.67194025,61.0,90.0
267,165.65866749999998,165.8651325,63.0,88.0
268,165.8356375,166.99331625,65.0,89.0
269,168.31321749999998,168.4783895,65.0,85.0
270,168.6671575,169.03437025,65.0,97.0
271,169.19806749999998,169.28212825,63.0,82.0
272,169.3750375,169.62132075,63.0,93.0
273,169.72897749999998,170.02835174999998,58.0,95.0
274,170.08291749999998,170.7907975,61.0,90.0
275,171.1447375,171.52522299999998,63.0,81.0
276,171.49867749999999,172.19918375,53.0,89.0
277,172.0295875,172.20213325,56.0,73.0
278,172.2065575,172.55607325,58.0,77.0
279,172.5604975,172.95868,61.0,82.0
280,172.9144375,173.65033775,58.0,83.0
281,174.3301975,174.6841375,58.0,85.0
282,174.6841375,175.3094315,63.0,100.0
283,175.39201749999998,175.71203824999998,65.0,90.0
284,175.7459575,176.0645035,63.0,93.0
285,176.0998975,176.27686749999998,63.0,100.0
286,176.27686749999998,176.41106975,61.0,83.0
287,176.4538375,176.80040375,58.0,100.0
288,176.8077775,177.18973774999998,56.0,89.0
289,176.9847475,177.2561015,58.0,93.0
290,177.16171749999998,177.72949624999998,61.0,100.0
