,start,end,pitch,velocity
0,0.80981250625,1.083454125,58.0,117.0
1,1.14318300625,1.39321088125,60.0,88.0
2,1.47655350625,1.650183975,63.0,107.0
3,1.80992400625,1.92938176875,65.0,100.0
4,2.14329450625,2.4641636125,67.0,122.0
5,2.64335025625,2.994778325,65.0,117.0
6,3.14340600625,3.35731874375,63.0,122.0
7,3.47677650625,5.32281565,60.0,92.0
8,6.14374050625,6.40488073125,58.0,117.0
9,6.47711100625,6.65768669375,60.0,102.0
10,6.81048150625,6.97716675625,63.0,107.0
11,7.14385200625,7.328594825,65.0,102.0
12,7.47722250625,7.7925354375,67.0,127.0
13,7.97727825625,8.4092708625,70.0,127.0
14,8.47733400625,9.717750075,65.0,127.0
15,11.81103900625,12.21386169375,65.0,117.0
16,12.47778000625,12.7486435375,58.0,117.0
17,12.81115050625,12.9570001,65.0,107.0
18,13.14452100625,13.26120068125,65.0,112.0
19,13.47789150625,13.607072575,67.0,127.0
20,13.81126200625,13.95016638125,65.0,127.0
21,14.14463250625,14.79470498125,63.0,127.0
22,17.14496700625,17.2769261625,65.0,96.0
23,17.47833750625,17.640855625,65.0,96.0
24,17.81170800625,17.93116576875,65.0,96.0
25,18.14507850625,18.3103747125,58.0,112.0
26,18.47844900625,18.70208505,60.0,96.0
27,18.81181950625,18.9576691,63.0,100.0
28,19.14519000625,20.6328558625,60.0,112.0
29,22.47889500625,22.8942190875,68.0,117.0
30,23.14563600625,23.49845311875,68.0,122.0
31,23.47900650625,23.74709195,67.0,117.0
32,23.81237700625,24.00684313125,65.0,100.0
33,24.14574750625,24.27353953125,63.0,96.0
34,24.47911800625,24.65830465,65.0,122.0
35,24.81248850625,26.24042548125,65.0,117.0
36,27.81282300625,28.230925175,68.0,122.0
37,28.47956400625,28.830992075,72.0,127.0
38,28.81293450625,28.96017314375,70.0,99.0
39,29.14630500625,29.2782641625,68.0,102.0
40,29.47967550625,29.67414163125,67.0,112.0
41,29.81304600625,30.91316865625,65.0,112.0
42,33.14675100625,33.55512986875,65.0,127.0
43,33.81349200625,34.07463223125,58.0,100.0
44,34.14686250625,34.28298879375,65.0,117.0
45,34.48023300625,34.6066359875,65.0,107.0
46,34.81360350625,34.92611605,67.0,122.0
47,35.14697400625,35.24420706875,65.0,117.0
48,35.48034450625,36.61380420625,63.0,127.0
49,38.48067900625,38.5820792,65.0,127.0
50,38.81404950625,38.9376744,65.0,122.0
51,39.14742000625,39.2710449,65.0,122.0
52,39.48079050625,39.609971575,58.0,127.0
53,39.81416100625,40.0683560125,60.0,117.0
54,40.14753150625,40.448954,63.0,102.0
55,40.48090200625,42.07830231875,60.0,117.0
56,43.81460700625,43.94517711875,70.0,122.0
57,44.14797750625,44.2799366625,70.0,117.0
58,44.48134800625,44.6021948125,70.0,122.0
59,44.81471850625,44.92306391875,70.0,127.0
60,45.14808900625,45.24810015625,70.0,112.0
61,45.48145950625,45.7078736375,70.0,127.0
62,45.81483000625,45.95373438125,72.0,112.0
63,46.14820050625,46.98718293125,72.0,127.0
64,49.14853500625,49.28327225,72.0,127.0
65,49.48190550625,49.61525370625,72.0,112.0
66,49.81527600625,49.95001325,72.0,122.0
67,50.14864650625,50.3611702,75.0,112.0
68,50.48201700625,50.6195323375,72.0,117.0
69,50.81538750625,50.9806837125,72.0,122.0
70,51.14875800625,52.00718704375,70.0,112.0
71,54.48246300625,54.57969606875,70.0,127.0
72,54.81583350625,54.911677525,70.0,127.0
73,55.14920400625,55.25754941875,70.0,122.0
74,55.48257450625,55.57702948125,70.0,127.0
75,55.81594500625,56.01596730625,72.0,102.0
76,56.14931550625,56.36878441875,75.0,127.0
77,56.48268600625,57.61058953125,72.0,122.0
78,58.81627950625,59.1038115625,70.0,112.0
79,59.14965000625,59.3260585625,72.0,102.0
80,59.48302050625,60.6067569,79.0,127.0
81,62.14998450625,64.5627535,77.0,127.0
82,110.48870700625,110.9040310875,68.0,117.0
83,111.15544800625,111.50826511875,68.0,122.0
84,111.48881850625,111.75690395,67.0,117.0
85,111.82218900625,112.01665513125,65.0,100.0
86,112.15555950625,112.28335153125,63.0,96.0
87,112.48893000625,112.66811665,65.0,122.0
88,112.82230050625,114.25023748125,65.0,117.0
89,115.82263500625,116.240737175,68.0,122.0
90,116.48937600625,116.840804075,72.0,127.0
91,116.82274650625,116.96998514375,70.0,99.0
92,117.15611700625,117.2880761625,68.0,102.0
93,117.48948750625,117.68395363125,67.0,112.0
94,117.82285800625,118.92298065625,65.0,112.0
95,121.15656300625,121.56494186875,65.0,127.0
96,121.82330400625,122.08444423125,58.0,100.0
97,122.15667450625,122.29280079375,65.0,117.0
98,122.49004500625,122.6164479875,65.0,107.0
99,122.82341550625,122.93592805,67.0,122.0
100,123.15678600625,123.25401906875,65.0,117.0
101,123.49015650625,124.62361620625,63.0,127.0
102,126.49049100625,126.5918912,65.0,127.0
103,126.82386150625,126.9474864,65.0,122.0
104,127.15723200625,127.2808569,65.0,122.0
105,127.49060250625,127.619783575,58.0,127.0
106,127.82397300625,128.0781680125,60.0,117.0
107,128.15734350625,128.458766,63.0,102.0
108,128.49071400625,130.08811431875,60.0,117.0
109,131.82441900625,132.2397430875,68.0,117.0
110,132.49116000625,132.84397711875,68.0,122.0
111,132.82453050625,133.09261595,67.0,117.0
112,133.15790100625,133.35236713125,65.0,100.0
113,133.49127150625,133.61906353125,63.0,96.0
114,133.82464200625,134.00382865,65.0,122.0
115,134.15801250625,135.58594948125,65.0,117.0
116,137.15834700625,137.576449175,68.0,122.0
117,137.82508800625,138.176516075,72.0,127.0
118,138.15845850625,138.30569714375,70.0,99.0
119,138.49182900625,138.6237881625,68.0,102.0
120,138.82519950625,139.01966563125,67.0,112.0
121,139.15857000625,140.25869265625,65.0,112.0
122,142.49227500625,142.90065386875,65.0,127.0
123,143.15901600625,143.42015623125,58.0,100.0
124,143.49238650625,143.62851279375,65.0,117.0
125,143.82575700625,143.9521599875,65.0,107.0
126,144.15912750625,144.27164005,67.0,122.0
127,144.49249800625,144.58973106875,65.0,117.0
128,144.82586850625,145.95932820625,63.0,127.0
129,147.82620300625,147.9276032,65.0,127.0
130,148.15957350625,148.2831984,65.0,122.0
131,148.49294400625,148.6165689,65.0,122.0
132,148.82631450625,148.955495575,58.0,127.0
133,149.15968500625,149.4138800125,60.0,117.0
134,149.49305550625,149.794478,63.0,102.0
135,149.82642600625,151.42382631875,60.0,117.0
136,153.16013100625,153.29070111875,70.0,122.0
137,153.49350150625,153.6254606625,70.0,117.0
138,153.82687200625,153.9477188125,70.0,122.0
139,154.16024250625,154.26858791875,70.0,127.0
140,154.49361300625,154.59362415625,70.0,112.0
141,154.82698350625,155.0533976375,70.0,127.0
142,155.16035400625,155.29925838125,72.0,112.0
143,155.49372450625,156.33270693125,72.0,127.0
144,158.49405900625,158.62879625,72.0,127.0
145,158.82742950625,158.96077770625,72.0,112.0
146,159.16080000625,159.29553725,72.0,122.0
147,159.49417050625,159.7066942,75.0,112.0
148,159.82754100625,159.9650563375,72.0,117.0
149,160.16091150625,160.3262077125,72.0,122.0
150,160.49428200625,161.35271104375,70.0,112.0
151,163.82798700625,163.92522006875,70.0,127.0
152,164.16135750625,164.257201525,70.0,127.0
153,164.49472800625,164.60307341875,70.0,122.0
154,164.82809850625,164.92255348125,70.0,127.0
155,165.16146900625,165.36149130625,72.0,102.0
156,165.49483950625,165.71430841875,75.0,127.0
157,165.82821000625,166.95611353125,72.0,122.0
158,168.16180350625,168.4493355625,70.0,112.0
159,168.49517400625,168.6715825625,72.0,102.0
160,168.82854450625,169.9522809,79.0,127.0
161,171.49550850625,173.9082775,77.0,127.0
162,197.16503700625,197.2969961625,68.0,122.0
163,197.49840750625,197.6414790125,68.0,117.0
164,197.83177800625,198.0026303875,68.0,112.0
165,198.16514850625,198.34294610625,67.0,122.0
166,198.49851900625,198.661037125,65.0,97.0
167,198.83188950625,199.038857025,63.0,102.0
168,199.16526000625,199.41528788125,67.0,127.0
169,199.49863050625,202.25449330625,65.0,117.0
170,202.49896500625,202.661483125,68.0,117.0
171,202.83233550625,202.994853625,68.0,107.0
172,203.16570600625,203.34628169375,72.0,127.0
173,203.49907650625,203.739381075,70.0,122.0
174,203.83244700625,204.10469958125,68.0,122.0
175,204.16581750625,204.47140713125,67.0,112.0
176,204.49918800625,206.04380465625,65.0,102.0
177,207.83289300625,208.03569339375,65.0,102.0
178,208.16626350625,208.3982338125,65.0,100.0
179,208.49963400625,208.7343824,58.0,97.0
180,208.83300450625,209.04413915625,65.0,112.0
181,209.16637500625,209.3427835625,65.0,107.0
182,209.49974550625,209.70254589375,67.0,117.0
183,209.83311600625,210.03452735,65.0,127.0
184,210.16648650625,211.97224338125,63.0,122.0
185,213.16682100625,213.3265610375,65.0,112.0
186,213.50019150625,213.640484925,65.0,99.0
187,213.83356200625,213.9655211625,65.0,122.0
188,214.16693250625,214.37528906875,58.0,117.0
189,214.50030300625,214.73644044375,60.0,100.0
190,214.83367350625,215.01147110625,63.0,112.0
191,215.16704400625,216.55886584375,60.0,102.0
192,218.50074900625,218.652154775,68.0,107.0
193,218.83411950625,218.97858005625,68.0,102.0
194,219.16749000625,219.341120475,68.0,107.0
195,219.50086050625,219.69532663125,67.0,117.0
196,219.83423100625,219.9884148625,65.0,107.0
197,220.16760150625,220.3662347625,63.0,100.0
198,220.50097200625,220.67043534375,67.0,127.0
199,220.83434250625,223.25961289375,65.0,112.0
200,223.83467700625,224.024976,68.0,117.0
201,224.16804750625,224.3333437125,68.0,107.0
202,224.50141800625,224.78200484375,72.0,127.0
203,224.83478850625,225.052868375,70.0,112.0
204,225.16815900625,225.35984704375,68.0,112.0
205,225.50152950625,225.71822033125,67.0,112.0
206,225.83490000625,228.41435425,65.0,122.0
207,229.16860500625,229.32139981875,65.0,127.0
208,229.50197550625,229.65477031875,65.0,107.0
209,229.83534600625,230.0673163125,58.0,107.0
210,230.16871650625,230.34373601875,65.0,107.0
211,230.50208700625,230.65488181875,65.0,112.0
212,230.83545750625,231.03270171875,67.0,122.0
213,231.16882800625,231.3341242125,65.0,102.0
214,231.50219850625,233.36351713125,63.0,112.0
215,234.50253300625,234.67755251875,65.0,102.0
216,234.83590350625,234.9845311875,65.0,102.0
217,235.16927400625,235.3151236,65.0,107.0
218,235.50264450625,235.7179462875,58.0,112.0
219,235.83601500625,236.07770861875,60.0,107.0
220,236.16938550625,236.4624737375,63.0,122.0
221,236.50275600625,237.86124079375,60.0,100.0
222,239.83646100625,240.03648330625,68.0,117.0
223,240.16983150625,240.35040719375,68.0,122.0
224,240.50320200625,240.68377769375,68.0,112.0
225,240.83657250625,241.076877075,67.0,122.0
226,241.16994300625,241.37552148125,65.0,117.0
227,241.50331350625,241.78667843125,63.0,102.0
228,241.83668400625,242.15616406875,67.0,127.0
229,242.17005450625,244.15083089375,65.0,122.0
230,245.17038900625,245.3523537375,68.0,127.0
231,245.50375950625,245.65933240625,68.0,122.0
232,245.83713000625,246.099659275,72.0,127.0
233,246.17050050625,246.3524652375,70.0,117.0
234,246.50387100625,246.733063225,68.0,127.0
235,246.83724150625,247.0858803375,67.0,127.0
236,247.17061200625,248.82635215625,65.0,112.0
237,250.50431700625,250.66822416875,65.0,107.0
238,250.83768750625,250.97659188125,65.0,102.0
239,251.17105800625,251.3863597875,58.0,127.0
240,251.50442850625,251.70445080625,65.0,112.0
241,251.83779900625,251.99614999375,65.0,112.0
242,252.17116950625,252.344799975,67.0,127.0
243,252.50454000625,252.68372665,65.0,127.0
244,252.83791050625,254.24640086875,63.0,122.0
245,255.83824500625,256.06049200625,65.0,107.0
246,256.17161550625,256.3174651,65.0,107.0
247,256.50498600625,256.6480575125,65.0,112.0
248,256.83835650625,257.08838438125,58.0,102.0
249,257.17172700625,257.4148096625,60.0,107.0
250,257.50509750625,257.7148431125,63.0,107.0
251,257.83846800625,259.590052175,60.0,100.0
