,start,end,pitch,velocity
0,4.14351750625,4.6366280375,60.0,97.0
1,4.14351750625,4.6366280375,68.0,93.0
2,4.14351750625,4.64357325625,63.0,99.0
3,4.64357325625,5.2005798,63.0,92.0
4,4.64357325625,5.20196884375,60.0,95.0
5,4.64357325625,5.2228045,68.0,88.0
6,3.81014700625,5.29086764375,51.0,76.0
7,5.14362900625,5.772865825,56.0,102.0
8,3.47677650625,5.97983334375,44.0,100.0
9,5.81037000625,6.0312279625,51.0,93.0
10,5.47699950625,6.16596520625,60.0,93.0
11,5.47699950625,6.16735425,63.0,107.0
12,5.47699950625,6.17152138125,68.0,93.0
13,6.47711100625,6.95494205625,46.0,89.0
14,6.81048150625,7.24941933125,58.0,74.0
15,6.81048150625,7.25219741875,55.0,107.0
16,6.81048150625,7.36054283125,51.0,93.0
17,7.31053725625,7.7147489875,55.0,96.0
18,7.31053725625,7.717527075,58.0,90.0
19,7.81059300625,8.3148158875,51.0,88.0
20,6.14374050625,8.4537202625,39.0,81.0
21,7.31053725625,8.539840975,46.0,46.0
22,8.47733400625,8.59679176875,51.0,83.0
23,8.14396350625,8.88293478125,67.0,117.0
24,8.14396350625,8.9121047,63.0,117.0
25,9.14407500625,9.6232951,53.0,102.0
26,9.47744550625,9.8899915,62.0,117.0
27,9.47744550625,9.89971480625,65.0,93.0
28,9.97750125625,10.517839275,58.0,89.0
29,9.97750125625,10.540063975,62.0,96.0
30,9.97750125625,10.540063975,65.0,83.0
31,10.47755700625,10.840097425,53.0,85.0
32,8.81070450625,11.31653943125,46.0,69.0
33,10.97761275625,11.4373862375,53.0,90.0
34,11.14429800625,11.59434818125,58.0,96.0
35,10.81092750625,11.76103343125,62.0,127.0
36,10.81092750625,11.84715414375,65.0,99.0
37,11.81103900625,12.2819248375,53.0,89.0
38,12.14440950625,12.54723219375,58.0,95.0
39,12.14440950625,12.5764021125,65.0,89.0
40,12.14440950625,12.581958287500001,62.0,112.0
41,11.47766850625,12.99450428125,46.0,90.0
42,12.47778000625,13.1042387375,53.0,37.0
43,12.64446525625,13.184803275,58.0,88.0
44,12.64446525625,13.20008275625,62.0,88.0
45,12.64446525625,13.21119510625,65.0,76.0
46,13.47789150625,13.894604631250001,62.0,127.0
47,13.14452100625,13.98905960625,46.0,89.0
48,13.64457675625,14.08907075625,53.0,89.0
49,13.81126200625,14.11129545625,58.0,107.0
50,13.97794725625,14.13074206875,62.0,102.0
51,13.47789150625,14.1932490375,65.0,96.0
52,14.47800300625,15.0461219,55.0,102.0
53,14.81137350625,15.21697428125,60.0,96.0
54,14.81137350625,15.21697428125,63.0,127.0
55,14.81137350625,15.2266975875,67.0,112.0
56,15.14474400625,15.5100625125,55.0,63.0
57,15.31142925625,15.8545453625,63.0,100.0
58,15.31142925625,15.85732345,60.0,97.0
59,15.31142925625,15.88649336875,67.0,99.0
60,15.81148500625,16.19208299375,55.0,97.0
61,16.31154075625,16.4990616625,55.0,96.0
62,16.14485550625,16.51989731875,63.0,127.0
63,14.14463250625,16.5879604625,48.0,96.0
64,16.47822600625,16.73936623125,60.0,127.0
65,16.14485550625,16.78103754375,67.0,127.0
66,16.64491125625,16.840766425,63.0,89.0
67,17.14496700625,17.65335701875,53.0,107.0
68,17.47833750625,17.952001425,62.0,86.0
69,17.81170800625,18.22286495625,53.0,88.0
70,17.97839325625,18.540955975,65.0,72.0
71,17.97839325625,18.5576245,58.0,85.0
72,17.97839325625,18.5715149375,62.0,74.0
73,18.47844900625,18.85765795,53.0,95.0
74,18.97850475625,19.10907486875,53.0,81.0
75,16.81159650625,19.17019279375,46.0,93.0
76,19.14519000625,19.41188640625,58.0,93.0
77,18.81181950625,19.52578799375,65.0,89.0
78,19.31187525625,19.5355113,62.0,63.0
79,19.81193100625,20.3328224125,51.0,78.0
80,20.47867200625,20.83565625,51.0,73.0
81,20.14530150625,21.26764885625,63.0,93.0
82,20.64535725625,21.2690379,56.0,100.0
83,20.14530150625,21.29542973125,60.0,93.0
84,21.14541300625,21.5829617875,51.0,82.0
85,19.47856050625,21.67047154375,44.0,93.0
86,21.81215400625,22.10940936875,56.0,66.0
87,21.47878350625,22.12052171875,60.0,92.0
88,21.47878350625,22.1385792875,63.0,93.0
89,22.81226550625,23.574850525,53.0,90.0
90,23.47900650625,23.99017460625,68.0,86.0
91,23.47900650625,23.9998979125,65.0,81.0
92,23.14563600625,24.174917425,60.0,78.0
93,23.81237700625,24.1999202125,53.0,93.0
94,22.14552450625,24.408276775,41.0,88.0
95,22.47889500625,24.42911243125,48.0,70.0
96,24.31243275625,24.55968254375,53.0,90.0
97,24.14574750625,24.5666277625,65.0,93.0
98,24.47911800625,24.8388803375,60.0,99.0
99,24.64580325625,24.84026938125,65.0,67.0
100,24.14574750625,24.86527216875,68.0,90.0
101,24.81248850625,26.0279017875,46.0,86.0
102,25.14585900625,26.1334691125,53.0,78.0
103,25.47922950625,26.575185025,62.0,112.0
104,25.47922950625,26.608522075,65.0,86.0
105,25.81260000625,26.6890866125,58.0,77.0
106,26.47934100625,26.8835527375,53.0,107.0
107,26.97939675625,27.1363587,53.0,88.0
108,26.14597050625,27.2058108875,46.0,88.0
109,27.14608200625,27.43500310625,62.0,117.0
110,26.81271150625,27.48223059375,65.0,102.0
111,27.31276725625,27.575296525,58.0,93.0
112,28.14619350625,28.88099765,65.0,95.0
113,28.47956400625,29.00184445625,53.0,75.0
114,27.47945250625,29.5005111625,41.0,89.0
115,27.81282300625,29.50328925,48.0,78.0
116,29.14630500625,29.62969223125,53.0,99.0
117,28.81293450625,30.12696989375,68.0,95.0
118,29.47967550625,30.14919459375,65.0,96.0
119,29.81304600625,30.2061453875,60.0,92.0
120,30.47978700625,30.96595231875,53.0,88.0
121,31.47989850625,31.6257481,58.0,55.0
122,31.14652800625,31.63824949375,53.0,86.0
123,31.47989850625,32.21331360625,62.0,107.0
124,31.81326900625,32.23553830625,53.0,92.0
125,30.14641650625,32.76615301875,46.0,96.0
126,32.48001000625,32.8231038125,53.0,92.0
127,32.14663950625,33.20231275625,58.0,112.0
128,30.81315750625,33.25787450625,65.0,107.0
129,33.14675100625,33.64958484375,53.0,89.0
130,32.81338050625,34.2954901875,46.0,93.0
131,33.81349200625,34.45800830625,53.0,79.0
132,34.14686250625,34.864998125,62.0,112.0
133,34.48023300625,35.0566861625,46.0,86.0
134,35.14697400625,35.4567307625,62.0,102.0
135,33.48012150625,35.53035008125,65.0,96.0
136,34.81360350625,35.553963825,58.0,100.0
137,35.48034450625,36.7152044,48.0,92.0
138,35.81371500625,36.85271973125,55.0,82.0
139,36.48045600625,37.17219979375,60.0,81.0
140,36.14708550625,37.22498345625,63.0,96.0
141,36.14708550625,37.23748485,67.0,107.0
142,37.14719700625,37.6041924,55.0,96.0
143,36.81382650625,37.69448024375,48.0,72.0
144,37.48056750625,38.2042593,63.0,97.0
145,37.81393800625,38.232040175,60.0,88.0
146,37.48056750625,38.23898539375,67.0,122.0
147,38.14730850625,39.40300405625,46.0,88.0
148,38.48067900625,39.4710672,53.0,86.0
149,39.31410525625,39.8933365,58.0,92.0
150,38.81404950625,39.92528450625,62.0,107.0
151,38.81404950625,39.93917494375,65.0,86.0
152,39.81416100625,40.25309883125,53.0,96.0
153,39.48079050625,40.2906030125,46.0,89.0
154,40.14753150625,40.8573328625,62.0,112.0
155,40.14753150625,40.893448,65.0,89.0
156,40.48090200625,40.91706174375,58.0,79.0
157,40.81427250625,42.01579535,44.0,82.0
158,41.14764300625,42.13664215625,51.0,99.0
159,41.98106925625,42.58669233125,56.0,81.0
160,41.48101350625,42.59780468125,63.0,92.0
161,41.48101350625,42.61586225,60.0,85.0
162,42.48112500625,42.89783813125,51.0,97.0
163,42.14775450625,42.94228753125,44.0,88.0
164,42.81449550625,43.45067754375,60.0,92.0
165,42.81449550625,43.4631789375,63.0,83.0
166,43.14786600625,43.53402016875,56.0,74.0
167,44.14797750625,44.57580298125,58.0,81.0
168,44.64803325625,45.03974359375,51.0,70.0
169,44.14797750625,45.2939386,63.0,96.0
170,44.14797750625,45.32727565,67.0,86.0
171,44.81471850625,45.366168875,58.0,97.0
172,45.14808900625,45.55646786875,51.0,72.0
173,43.48123650625,45.577303525,39.0,68.0
174,43.81460700625,45.6134186625,46.0,56.0
175,45.48145950625,46.15375668125,63.0,102.0
176,45.48145950625,46.1745923375,67.0,107.0
177,45.81483000625,46.23154313125,58.0,92.0
178,46.14820050625,47.3636137875,44.0,83.0
179,46.48157100625,47.46084685,51.0,82.0
180,47.31499725625,47.933121725,56.0,95.0
181,46.81494150625,47.9386779,60.0,96.0
182,46.81494150625,47.94284503125,63.0,97.0
183,47.48168250625,48.64292308125,44.0,92.0
184,47.81505300625,48.8082192875,51.0,92.0
185,48.48179400625,48.87628243125,56.0,82.0
186,48.14842350625,48.8915619125,60.0,97.0
187,48.14842350625,48.90128521875,63.0,96.0
188,48.81516450625,50.03196683125,44.0,93.0
189,49.14853500625,50.1305889375,51.0,81.0
190,49.98196125625,50.6195323375,56.0,100.0
191,49.48190550625,50.6195323375,60.0,96.0
192,49.48190550625,50.62092138125,63.0,95.0
193,50.48201700625,50.93206718125,51.0,99.0
194,50.14864650625,50.9362343125,44.0,79.0
195,50.81538750625,51.43212293125,60.0,96.0
196,50.81538750625,51.44879145625,63.0,89.0
197,51.14875800625,51.47657233125,56.0,89.0
198,51.48212850625,52.744769275,39.0,83.0
199,52.14886950625,52.75032545,51.0,85.0
200,51.81549900625,52.83227903125,46.0,67.0
201,52.64892525625,53.2364907625,58.0,93.0
202,52.14886950625,53.2642716375,63.0,107.0
203,52.14886950625,53.27955111875,67.0,102.0
204,52.81561050625,53.9976867375,39.0,83.0
205,53.48235150625,54.1532596375,51.0,83.0
206,53.14898100625,54.16853911875,46.0,78.0
207,53.81572200625,54.54913710625,58.0,93.0
208,53.48235150625,54.600531725,63.0,95.0
209,53.48235150625,54.60747694375,67.0,96.0
210,54.14909250625,55.3589496125,39.0,93.0
211,54.48246300625,55.4589607625,46.0,66.0
212,54.81583350625,55.49090876875,51.0,92.0
213,55.31588925625,55.900676675,58.0,97.0
214,54.81583350625,55.9367918125,63.0,102.0
215,54.81583350625,55.956238425,67.0,97.0
216,55.81594500625,56.29099796875,46.0,58.0
217,55.48257450625,56.2951651,39.0,90.0
218,56.14931550625,56.40767764375,51.0,73.0
219,56.14931550625,56.79660989375,63.0,100.0
220,56.14931550625,56.80494415625,67.0,107.0
221,56.48268600625,56.83272503125,58.0,96.0
222,56.81605650625,58.07175205625,44.0,93.0
223,57.14942700625,58.15092755,51.0,89.0
224,57.98285325625,58.567640675,56.0,96.0
225,57.48279750625,58.5815311125,60.0,97.0
226,57.48279750625,58.5843092,63.0,100.0
227,58.48290900625,58.93851535625,51.0,96.0
228,58.14953850625,58.95518388125,44.0,88.0
229,58.81627950625,59.42745875625,60.0,107.0
230,58.81627950625,59.44412728125,63.0,100.0
231,59.14965000625,59.4594067625,56.0,89.0
232,59.48302050625,60.673431,39.0,93.0
233,60.14976150625,60.76094075625,51.0,96.0
234,59.81639100625,60.78038736875,46.0,69.0
235,60.64981725625,61.2540512875,58.0,96.0
236,60.14976150625,61.28461025,63.0,97.0
237,60.14976150625,61.28877738125,67.0,99.0
238,61.14987300625,61.63048214375,46.0,88.0
239,60.81650250625,61.6596520625,39.0,96.0
240,61.48324350625,61.81800305,51.0,88.0
241,61.81661400625,61.89162236875,46.0,35.0
242,61.81661400625,62.14998450625,58.0,97.0
243,61.48324350625,62.14998450625,63.0,117.0
244,61.48324350625,62.14998450625,67.0,117.0
245,62.14998450625,64.59609055,46.0,69.0
246,62.14998450625,64.612759075,53.0,79.0
247,62.14998450625,64.71415926875,62.0,122.0
248,62.14998450625,64.7211044875,58.0,107.0
249,62.14998450625,64.72249353125,65.0,99.0
250,68.81739450625,70.0772571875,44.0,93.0
251,69.15076500625,70.0883695375,51.0,86.0
252,69.98419125625,70.48980318125,56.0,97.0
253,69.48413550625,70.5273073625,60.0,96.0
254,69.48413550625,70.53008545,63.0,92.0
255,70.48424700625,70.9940260625,51.0,97.0
256,70.15087650625,71.0162507625,44.0,100.0
257,70.81761750625,71.580202525,60.0,112.0
258,71.15098800625,71.62048479375,56.0,97.0
259,70.81761750625,71.62048479375,63.0,100.0
260,72.15109950625,72.6303196,67.0,107.0
261,71.48435850625,72.72060744375,39.0,92.0
262,72.15109950625,72.79700485,51.0,93.0
263,71.81772900625,72.82061859375,46.0,70.0
264,72.15109950625,73.21232893125,63.0,100.0
265,72.65115525625,73.3331757375,58.0,107.0
266,72.81784050625,73.7443326875,39.0,95.0
267,73.15121100625,73.7832259125,46.0,85.0
268,73.48458150625,73.90823985,51.0,79.0
269,73.48458150625,74.30689540625,63.0,102.0
270,73.81795200625,74.35273385,67.0,33.0
271,73.81795200625,74.5777589375,58.0,97.0
272,74.15132250625,75.402850925,46.0,81.0
273,74.48469300625,75.5111963375,53.0,96.0
274,75.31811925625,75.8945724125,62.0,85.0
275,74.81806350625,75.93485468125,65.0,99.0
276,75.81817500625,76.2057182125,53.0,97.0
277,75.48480450625,76.60992994375,46.0,85.0
278,76.31823075625,76.7891165875,53.0,65.0
279,76.48491600625,77.20166258125,58.0,99.0
280,76.15154550625,77.2336105875,62.0,127.0
281,76.15154550625,77.2502791125,65.0,95.0
282,76.81828650625,78.04620118125,46.0,93.0
283,77.15165700625,78.14065615625,53.0,93.0
284,77.48502750625,78.6615475625,65.0,89.0
285,77.48502750625,78.669881825,62.0,122.0
286,77.98508325625,78.680994175,58.0,93.0
287,78.15176850625,78.97963858125,46.0,82.0
288,78.48513900625,79.0282551125,53.0,96.0
289,78.81850950625,79.46302580625,62.0,127.0
290,78.81850950625,79.469971025,65.0,95.0
291,79.15188000625,79.5116423375,58.0,95.0
292,79.48525050625,80.71594326875,48.0,83.0
293,79.81862100625,80.7728940625,55.0,97.0
294,80.15199150625,81.25767033125,67.0,107.0
295,80.15199150625,81.2618374625,63.0,96.0
296,80.65204725625,81.28684025,60.0,96.0
297,81.15210300625,81.63271214375,55.0,107.0
298,80.81873250625,81.94107985625,48.0,95.0
299,81.48547350625,82.181384425,67.0,127.0
300,81.81884400625,82.2341680875,63.0,90.0
301,81.98552925625,82.29667505625,60.0,95.0
302,82.15221450625,83.3898524875,46.0,89.0
303,82.48558500625,83.44263615,53.0,88.0
304,82.81895550625,83.91352198125,62.0,97.0
305,82.81895550625,83.92463433125,65.0,95.0
306,83.31901125625,83.93574668125,58.0,99.0
307,83.81906700625,84.36079406875,53.0,102.0
308,83.48569650625,84.38857494375,46.0,82.0
309,84.48580800625,84.892797825,62.0,93.0
310,84.15243750625,84.89557591250001,65.0,107.0
311,84.81917850625,86.07209596875,44.0,89.0
312,85.15254900625,86.14432624375,51.0,88.0
313,85.98597525625,86.604099725,60.0,96.0
314,85.48591950625,86.61937920625,63.0,102.0
315,86.15266050625,87.1736076625,44.0,99.0
316,86.81940150625,87.38057518125,63.0,112.0
317,87.15277200625,87.41113414375,60.0,100.0
318,86.48603100625,87.45002736875,51.0,97.0
319,87.48614250625,88.082042275,56.0,100.0
320,87.48614250625,88.0848203625,44.0,82.0
321,87.48614250625,88.09454366875,60.0,92.0
322,87.48614250625,88.13204785,63.0,92.0
323,91.48658850625,92.77839919375,44.0,90.0
324,91.81995900625,92.815903375,51.0,88.0
325,92.65338525625,93.2409507625,56.0,99.0
326,93.15344100625,93.60071309375,51.0,99.0
327,92.82007050625,93.6243268375,44.0,83.0
328,93.48681150625,94.19522381875,60.0,95.0
329,92.15332950625,94.23411704375,63.0,97.0
330,93.82018200625,94.25078556875,56.0,82.0
331,94.15355250625,95.416193275,39.0,78.0
332,94.82029350625,95.4578645875,51.0,75.0
333,94.48692300625,95.4995359,46.0,59.0
334,94.82029350625,95.982923125,63.0,92.0
335,95.32034925625,95.9857012125,58.0,97.0
336,94.82029350625,96.01764921875,67.0,107.0
337,95.48703450625,96.53992966875,39.0,93.0
338,95.82040500625,96.5968804625,46.0,67.0
339,96.15377550625,96.64271890625,51.0,69.0
340,96.48714600625,96.849686425,58.0,90.0
341,96.15377550625,96.8635768625,63.0,93.0
342,96.15377550625,96.86774399375,67.0,97.0
343,96.82051650625,98.0553764,46.0,95.0
344,97.15388700625,98.15399850625,53.0,77.0
345,97.98731325625,98.5915472875,62.0,97.0
346,97.48725750625,98.62071720625,65.0,95.0
347,98.15399850625,99.30134864375,46.0,88.0
348,98.48736900625,99.4471982375,53.0,92.0
349,99.15411000625,99.6249958375,58.0,97.0
350,98.82073950625,99.8027934375,62.0,127.0
351,98.82073950625,99.850020925,65.0,95.0
352,99.48748050625,100.73345275,46.0,89.0
353,99.82085100625,100.81262824375,53.0,83.0
354,100.15422150625,101.339075825,65.0,99.0
355,100.65427725625,101.3585224375,62.0,88.0
356,100.82096250625,101.861356275,46.0,89.0
357,101.15433300625,102.07110188125,53.0,95.0
358,101.48770350625,102.18222538125,62.0,102.0
359,101.48770350625,102.2113953,65.0,89.0
360,101.82107400625,102.23500904375,58.0,99.0
361,102.15444450625,103.39347153125,48.0,86.0
362,102.48781500625,103.428197625,55.0,92.0
363,103.32124125625,103.9032505875,60.0,96.0
364,102.82118550625,103.9226972,63.0,100.0
365,102.82118550625,103.93380955,67.0,107.0
366,103.82129700625,104.2310649125,55.0,96.0
367,103.48792650625,104.29634996875,48.0,93.0
368,104.15466750625001,104.8589126875,67.0,97.0
369,104.15466750625001,104.86030173125,63.0,95.0
370,104.48803800625,104.86724695,60.0,92.0
371,104.82140850625,106.06738075,46.0,93.0
372,105.15477900625,106.1368329375,53.0,90.0
373,105.98820525625,106.6202201625,58.0,95.0
374,105.48814950625,106.639666775,65.0,93.0
375,105.48814950625,106.66605860625,62.0,96.0
376,106.48826100625,106.9369221375,53.0,95.0
377,106.15489050625,106.95636875,46.0,96.0
378,107.15500200625,107.4758711125,58.0,92.0
379,106.82163150625,107.4786492,62.0,117.0
380,106.82163150625,107.484205375,65.0,89.0
381,107.48837250625,108.72462144375,44.0,90.0
382,107.82174300625,108.79962980625,51.0,93.0
383,108.65516925625,109.23578954375,56.0,99.0
384,108.15511350625,109.24967998125,63.0,97.0
385,108.15511350625,109.2594032875,60.0,96.0
386,109.15522500625,109.80251939375,51.0,96.0
387,108.82185450625,110.06643770625,44.0,86.0
388,109.48859550625,110.15811459375,60.0,102.0
389,109.82196600625,110.18033929375,56.0,93.0
390,109.48859550625,110.1817283375,63.0,95.0
391,110.82207750625,111.584662525,53.0,90.0
392,111.48881850625,111.99998660625,68.0,86.0
393,111.48881850625,112.0097099125,65.0,81.0
394,111.15544800625,112.184729425,60.0,78.0
395,111.82218900625,112.2097322125,53.0,93.0
396,110.15533650625,112.418088775,41.0,88.0
397,110.48870700625,112.43892443125,48.0,70.0
398,112.32224475625,112.56949454375,53.0,90.0
399,112.15555950625,112.5764397625,65.0,93.0
400,112.48893000625,112.8486923375,60.0,99.0
401,112.65561525625,112.85008138125,65.0,67.0
402,112.15555950625,112.87508416875,68.0,90.0
403,112.82230050625,114.0377137875,46.0,86.0
404,113.15567100625,114.1432811125,53.0,78.0
405,113.48904150625,114.584997025,62.0,112.0
406,113.48904150625,114.618334075,65.0,86.0
407,113.82241200625,114.6988986125,58.0,77.0
408,114.48915300625,114.8933647375,53.0,107.0
409,114.98920875625,115.1461707,53.0,88.0
410,114.15578250625,115.2156228875,46.0,88.0
411,115.15589400625,115.44481510625,62.0,117.0
412,114.82252350625,115.49204259375,65.0,102.0
413,115.32257925625,115.585108525,58.0,93.0
414,116.15600550625,116.89080965,65.0,95.0
415,116.48937600625,117.01165645625,53.0,75.0
416,115.48926450625,117.5103231625,41.0,89.0
417,115.82263500625,117.51310125,48.0,78.0
418,117.15611700625,117.63950423125,53.0,99.0
419,116.82274650625,118.13678189375,68.0,95.0
420,117.48948750625,118.15900659375001,65.0,96.0
421,117.82285800625,118.2159573875,60.0,92.0
422,118.48959900625,118.97576431875,53.0,88.0
423,119.48971050625,119.6355601,58.0,55.0
424,119.15634000625,119.64806149375,53.0,86.0
425,119.48971050625,120.22312560625,62.0,107.0
426,119.82308100625,120.24535030625,53.0,92.0
427,118.15622850625,120.77596501875,46.0,96.0
428,120.48982200625,120.8329158125,53.0,92.0
429,120.15645150625,121.21212475625,58.0,112.0
430,118.82296950625,121.26768650625,65.0,107.0
431,121.15656300625,121.65939684375,53.0,89.0
432,120.82319250625,122.3053021875,46.0,93.0
433,121.82330400625,122.46782030625,53.0,79.0
434,122.15667450625,122.874810125,62.0,112.0
435,122.49004500625,123.0664981625,46.0,86.0
436,123.15678600625,123.4665427625,62.0,102.0
437,121.48993350625,123.54016208125,65.0,96.0
438,122.82341550625,123.563775825,58.0,100.0
439,123.49015650625,124.7250164,48.0,92.0
440,123.82352700625,124.86253173125,55.0,82.0
441,124.49026800625,125.18201179375,60.0,81.0
442,124.15689750625,125.23479545625,63.0,96.0
443,124.15689750625,125.24729685,67.0,107.0
444,125.15700900625001,125.6140044,55.0,96.0
445,124.82363850625,125.70429224375,48.0,72.0
446,125.49037950625,126.2140713,63.0,97.0
447,125.82375000625,126.241852175,60.0,88.0
448,125.49037950625,126.24879739375,67.0,122.0
449,126.15712050625,127.41281605625,46.0,88.0
450,126.49049100625,127.4808792,53.0,86.0
451,127.32391725625,127.9031485,58.0,92.0
452,126.82386150625,127.93509650625,62.0,107.0
453,126.82386150625,127.94898694375,65.0,86.0
454,127.82397300625,128.26291083125,53.0,96.0
455,127.49060250625,128.3004150125,46.0,89.0
456,128.15734350625,128.8671448625,62.0,112.0
457,128.15734350625,128.90326,65.0,89.0
458,128.49071400625,128.92687374375,58.0,79.0
459,128.82408450625,130.02560735,44.0,82.0
460,129.15745500625,130.14645415625,51.0,99.0
461,129.99088125625,130.59650433125,56.0,81.0
462,129.49082550625,130.60761668125,63.0,92.0
463,129.49082550625,130.62567425,60.0,85.0
464,130.49093700625,130.90765013125,51.0,97.0
465,130.15756650625,130.95209953125,44.0,88.0
466,130.82430750625,131.46048954375,60.0,92.0
467,130.82430750625,131.4729909375,63.0,83.0
468,131.15767800625,131.49104850625,56.0,74.0
469,132.15778950625,132.920374525,53.0,90.0
470,132.82453050625,133.33569860625,68.0,86.0
471,132.82453050625,133.3454219125,65.0,81.0
472,132.49116000625,133.520441425,60.0,78.0
473,133.15790100625,133.5454442125,53.0,93.0
474,131.49104850625,133.753800775,41.0,88.0
475,131.82441900625,133.77463643125,48.0,70.0
476,133.65795675625,133.90520654375,53.0,90.0
477,133.49127150625,133.9121517625,65.0,93.0
478,133.82464200625,134.1844043375,60.0,99.0
479,133.99132725625,134.18579338125,65.0,67.0
480,133.49127150625,134.21079616875,68.0,90.0
481,134.15801250625,135.3734257875,46.0,86.0
482,134.49138300625,135.4789931125,53.0,78.0
483,134.82475350625,135.920709025,62.0,112.0
484,134.82475350625,135.954046075,65.0,86.0
485,135.15812400625,136.0346106125,58.0,77.0
486,135.82486500625,136.2290767375,53.0,107.0
487,136.32492075625,136.4818827,53.0,88.0
488,135.49149450625,136.5513348875,46.0,88.0
489,136.49160600625,136.78052710625,62.0,117.0
490,136.15823550625,136.82775459375,65.0,102.0
491,136.65829125625,136.920820525,58.0,93.0
492,137.49171750625,138.22652165,65.0,95.0
493,137.82508800625,138.34736845625,53.0,75.0
494,136.82497650625,138.8460351625,41.0,89.0
495,137.15834700625,138.84881325,48.0,78.0
496,138.49182900625,138.97521623125,53.0,99.0
497,138.15845850625,139.47249389375,68.0,95.0
498,138.82519950625,139.49471859375,65.0,96.0
499,139.15857000625,139.5516693875,60.0,92.0
500,139.82531100625,140.31147631875,53.0,88.0
501,140.82542250625,140.9712721,58.0,55.0
502,140.49205200625,140.98377349375,53.0,86.0
503,140.82542250625,141.55883760625,62.0,107.0
504,141.15879300625,141.58106230625,53.0,92.0
505,139.49194050625,142.11167701875,46.0,96.0
506,141.82553400625,142.1686278125,53.0,92.0
507,141.49216350625,142.54783675625,58.0,112.0
508,140.15868150625,142.60339850625,65.0,107.0
509,142.49227500625,142.99510884375,53.0,89.0
510,142.15890450625,143.6410141875,46.0,93.0
511,143.15901600625,143.80353230625,53.0,79.0
512,143.49238650625,144.210522125,62.0,112.0
513,143.82575700625,144.4022101625,46.0,86.0
514,144.49249800625,144.8022547625,62.0,102.0
515,142.82564550625,144.87587408125,65.0,96.0
516,144.15912750625,144.899487825,58.0,100.0
517,144.82586850625,146.0607284,48.0,92.0
518,145.15923900625,146.19824373125,55.0,82.0
519,145.82598000625,146.51772379375,60.0,81.0
520,145.49260950625,146.57050745625,63.0,96.0
521,145.49260950625,146.58300885,67.0,107.0
522,146.49272100625,146.9497164,55.0,96.0
523,146.15935050625,147.04000424375,48.0,72.0
524,146.82609150625,147.5497833,63.0,97.0
525,147.15946200625,147.577564175,60.0,88.0
526,146.82609150625,147.58450939375,67.0,122.0
527,147.49283250625,148.74852805625,46.0,88.0
528,147.82620300625,148.8165912,53.0,86.0
529,148.65962925625,149.2388605,58.0,92.0
530,148.15957350625,149.27080850625,62.0,107.0
531,148.15957350625,149.28469894375,65.0,86.0
532,149.15968500625,149.59862283125,53.0,96.0
533,148.82631450625,149.6361270125,46.0,89.0
534,149.49305550625,150.2028568625,62.0,112.0
535,149.49305550625,150.238972,65.0,89.0
536,149.82642600625,150.26258574375,58.0,79.0
537,150.15979650625,151.36131935,44.0,82.0
538,150.49316700625,151.48216615625,51.0,99.0
539,151.32659325625,151.93221633125,56.0,81.0
540,150.82653750625,151.94332868125,63.0,92.0
541,150.82653750625,151.96138625,60.0,85.0
542,151.82664900625,152.24336213125,51.0,97.0
543,151.49327850625,152.28781153125001,44.0,88.0
544,152.16001950625,152.79620154375,60.0,92.0
545,152.16001950625,152.8087029375,63.0,83.0
546,152.49339000625,152.87954416875,56.0,74.0
547,153.49350150625,153.92132698125,58.0,81.0
548,153.99355725625,154.38526759375,51.0,70.0
549,153.49350150625,154.6394626,63.0,96.0
550,153.49350150625,154.67279965,67.0,86.0
551,154.16024250625,154.711692875,58.0,97.0
552,154.49361300625,154.90199186875,51.0,72.0
553,152.82676050625,154.922827525,39.0,68.0
554,153.16013100625,154.9589426625,46.0,56.0
555,154.82698350625,155.49928068125,63.0,102.0
556,154.82698350625,155.5201163375,67.0,107.0
557,155.16035400625,155.57706713125,58.0,92.0
558,155.49372450625,156.7091377875,44.0,83.0
559,155.82709500625,156.80637085,51.0,82.0
560,156.66052125625,157.278645725,56.0,95.0
561,156.16046550625,157.2842019,60.0,96.0
562,156.16046550625,157.28836903125,63.0,97.0
563,156.82720650625,157.98844708125,44.0,92.0
564,157.16057700625,158.1537432875,51.0,92.0
565,157.82731800625,158.22180643125,56.0,82.0
566,157.49394750625,158.2370859125,60.0,97.0
567,157.49394750625,158.24680921875,63.0,96.0
568,158.16068850625,159.37749083125,44.0,93.0
569,158.49405900625,159.4761129375,51.0,81.0
570,159.32748525625,159.9650563375,56.0,100.0
571,158.82742950625,159.9650563375,60.0,96.0
572,158.82742950625,159.96644538125,63.0,95.0
573,159.82754100625,160.27759118125,51.0,99.0
574,159.49417050625,160.2817583125,44.0,79.0
575,160.16091150625,160.77764693125,60.0,96.0
576,160.16091150625,160.79431545625,63.0,89.0
577,160.49428200625,160.82209633125,56.0,89.0
578,160.82765250625,162.090293275,39.0,83.0
579,161.49439350625,162.09584945,51.0,85.0
580,161.16102300625,162.17780303125,46.0,67.0
581,161.99444925625,162.5820147625,58.0,93.0
582,161.49439350625,162.6097956375,63.0,107.0
583,161.49439350625,162.62507511875,67.0,102.0
584,162.16113450625,163.3432107375,39.0,83.0
585,162.82787550625,163.4987836375,51.0,83.0
586,162.49450500625,163.51406311875,46.0,78.0
587,163.16124600625,163.89466110625,58.0,93.0
588,162.82787550625,163.946055725,63.0,95.0
589,162.82787550625,163.95300094375,67.0,96.0
590,163.49461650625,164.7044736125,39.0,93.0
591,163.82798700625,164.8044847625,46.0,66.0
592,164.16135750625,164.83643276875,51.0,92.0
593,164.66141325625,165.246200675,58.0,97.0
594,164.16135750625,165.2823158125,63.0,102.0
595,164.16135750625,165.301762425,67.0,97.0
596,165.16146900625,165.63652196875,46.0,58.0
597,164.82809850625,165.6406891,39.0,90.0
598,165.49483950625,165.75320164375,51.0,73.0
599,165.49483950625,166.14213389375,63.0,100.0
600,165.49483950625,166.15046815625,67.0,107.0
601,165.82821000625,166.17824903125,58.0,96.0
602,166.16158050625,167.41727605625,44.0,93.0
603,166.49495100625,167.49645155,51.0,89.0
604,167.32837725625,167.913164675,56.0,96.0
605,166.82832150625,167.9270551125,60.0,97.0
606,166.82832150625,167.9298332,63.0,100.0
607,167.82843300625,168.28403935625,51.0,96.0
608,167.49506250625,168.30070788125,44.0,88.0
609,168.16180350625,168.77298275625,60.0,107.0
610,168.16180350625,168.78965128125,63.0,100.0
611,168.49517400625,168.8049307625,56.0,89.0
612,168.82854450625,170.018955,39.0,93.0
613,169.49528550625,170.10646475625,51.0,96.0
614,169.16191500625,170.12591136875,46.0,69.0
615,169.99534125625,170.5995752875,58.0,96.0
616,169.49528550625,170.63013425,63.0,97.0
617,169.49528550625,170.63430138125,67.0,99.0
618,170.49539700625,170.97600614375,46.0,88.0
619,170.16202650625,171.0051760625,39.0,96.0
620,170.82876750625,171.16352705,51.0,88.0
621,171.16213800625,171.23714636875,46.0,35.0
622,171.16213800625,171.49550850625,58.0,97.0
623,170.82876750625,171.49550850625,63.0,117.0
624,170.82876750625,171.49550850625,67.0,117.0
625,171.49550850625,176.25437239375,62.0,107.0
626,171.49550850625,176.2640957,58.0,102.0
627,171.49550850625,176.2724299625,46.0,70.0
628,171.49550850625,176.27659709375,65.0,97.0
629,171.49550850625,176.2779861375,53.0,81.0
630,178.16291850625,179.4227811875,44.0,93.0
631,178.49628900625,179.4338935375,51.0,86.0
632,179.32971525625,179.83532718125,56.0,97.0
633,178.82965950625,179.8728313625,60.0,96.0
634,178.82965950625,179.87560945,63.0,92.0
635,179.82977100625,180.3395500625,51.0,97.0
636,179.49640050625,180.3617747625,44.0,100.0
637,180.16314150625,180.925726525,60.0,112.0
638,180.49651200625,180.96600879375,56.0,97.0
639,180.16314150625,180.96600879375,63.0,100.0
640,181.49662350625,181.9758436,67.0,107.0
641,180.82988250625,182.06613144375,39.0,92.0
642,181.49662350625,182.14252885,51.0,93.0
643,181.16325300625,182.16614259375,46.0,70.0
644,181.49662350625,182.55785293125,63.0,100.0
645,181.99667925625,182.6786997375,58.0,107.0
646,182.16336450625,183.0898566875,39.0,95.0
647,182.49673500625,183.1287499125,46.0,85.0
648,182.83010550625,183.25376385,51.0,79.0
649,182.83010550625,183.65241940625,63.0,102.0
650,183.16347600625,183.69825785,67.0,33.0
651,183.16347600625,183.9232829375,58.0,97.0
652,183.49684650625,184.748374925,46.0,81.0
653,183.83021700625,184.8567203375,53.0,96.0
654,184.66364325625,185.2400964125,62.0,85.0
655,184.16358750625,185.28037868125,65.0,99.0
656,185.16369900625,185.5512422125,53.0,97.0
657,184.83032850625,185.95545394375,46.0,85.0
658,185.66375475625,186.1346405875,53.0,65.0
659,185.83044000625,186.54718658125,58.0,99.0
660,185.49706950625,186.5791345875,62.0,127.0
661,185.49706950625,186.5958031125,65.0,95.0
662,186.16381050625,187.39172518125,46.0,93.0
663,186.49718100625,187.48618015625,53.0,93.0
664,186.83055150625,188.0070715625,65.0,89.0
665,186.83055150625,188.015405825,62.0,122.0
666,187.33060725625,188.026518175,58.0,93.0
667,187.49729250625,188.32516258125,46.0,82.0
668,187.83066300625,188.3737791125,53.0,96.0
669,188.16403350625,188.80854980625,62.0,127.0
670,188.16403350625,188.815495025,65.0,95.0
671,188.49740400625,188.8571663375,58.0,95.0
672,188.83077450625,190.06146726875,48.0,83.0
673,189.16414500625,190.1184180625,55.0,97.0
674,189.49751550625,190.60319433125,67.0,107.0
675,189.49751550625,190.6073614625,63.0,96.0
676,189.99757125625,190.63236425,60.0,96.0
677,190.49762700625,190.97823614375,55.0,107.0
678,190.16425650625,191.28660385625,48.0,95.0
679,190.83099750625,191.526908425,67.0,127.0
680,191.16436800625,191.5796920875,63.0,90.0
681,191.33105325625,191.64219905625,60.0,95.0
682,191.49773850625,192.7353764875,46.0,89.0
683,191.83110900625,192.78816015,53.0,88.0
684,192.16447950625,193.25904598125,62.0,97.0
685,192.16447950625,193.27015833125,65.0,95.0
686,192.66453525625,193.28127068125,58.0,99.0
687,193.16459100625,193.70631806875,53.0,102.0
688,192.83122050625,193.73409894375,46.0,82.0
689,193.83133200625,194.238321825,62.0,93.0
690,193.49796150625,194.2410999125,65.0,107.0
691,194.16470250625,195.41761996875,44.0,89.0
692,194.49807300625,195.48985024375,51.0,88.0
693,195.33149925625,195.949623725,60.0,96.0
694,194.83144350625,195.96490320625,63.0,102.0
695,195.49818450625,196.5191316625,44.0,99.0
696,196.16492550625,196.72609918125,63.0,112.0
697,196.49829600625,196.75665814375,60.0,100.0
698,195.83155500625,196.79555136875,51.0,97.0
699,197.49840750625,198.260992525,53.0,90.0
700,198.16514850625,198.67631660625,68.0,86.0
701,198.16514850625,198.6860399125,65.0,81.0
702,197.83177800625,198.861059425,60.0,78.0
703,198.49851900625,198.8860622125,53.0,93.0
704,196.83166650625,199.094418775,41.0,88.0
705,197.16503700625,199.11525443125,48.0,70.0
706,198.99857475625,199.24582454375,53.0,90.0
707,198.83188950625,199.2527697625,65.0,93.0
708,199.16526000625,199.5250223375,60.0,99.0
709,199.33194525625,199.52641138125,65.0,67.0
710,198.83188950625,199.55141416875,68.0,90.0
711,199.49863050625,200.7140437875,46.0,86.0
712,199.83200100625,200.8196111125,53.0,78.0
713,200.16537150625,201.261327025,62.0,112.0
714,200.16537150625,201.29466407500001,65.0,86.0
715,200.49874200625,201.3752286125,58.0,77.0
716,201.16548300625,201.5696947375,53.0,107.0
717,201.66553875625,201.8225007,53.0,88.0
718,200.83211250625,201.8919528875,46.0,88.0
719,201.83222400625,202.12114510625,62.0,117.0
720,201.49885350625,202.16837259375,65.0,102.0
721,201.99890925625,202.261438525,58.0,93.0
722,202.83233550625,203.56713965,65.0,95.0
723,203.16570600625,203.68798645625,53.0,75.0
724,202.16559450625,204.1866531625,41.0,89.0
725,202.49896500625,204.18943125,48.0,78.0
726,203.83244700625,204.31583423125,53.0,99.0
727,203.49907650625,204.81311189375,68.0,95.0
728,204.16581750625,204.83533659375,65.0,96.0
729,204.49918800625,204.8922873875,60.0,92.0
730,205.16592900625,205.65209431875,53.0,88.0
731,206.16604050625,206.3118901,58.0,55.0
732,205.83267000625,206.32439149375,53.0,86.0
733,206.16604050625,206.89945560625,62.0,107.0
734,206.49941100625,206.92168030625,53.0,92.0
735,204.83255850625,207.45229501875,46.0,96.0
736,207.16615200625,207.5092458125,53.0,92.0
737,206.83278150625,207.88845475625,58.0,112.0
738,205.49929950625,207.94401650625,65.0,107.0
739,207.83289300625,208.33572684375,53.0,89.0
740,207.49952250625,208.9816321875,46.0,93.0
741,208.49963400625,209.14415030625,53.0,79.0
742,208.83300450625,209.551140125,62.0,112.0
743,209.16637500625,209.7428281625,46.0,86.0
744,209.83311600625,210.1428727625,62.0,102.0
745,208.16626350625,210.21649208125,65.0,96.0
746,209.49974550625,210.240105825,58.0,100.0
747,210.16648650625,211.4013464,48.0,92.0
748,210.49985700625,211.53886173125,55.0,82.0
749,211.16659800625,211.85834179375,60.0,81.0
750,210.83322750625,211.91112545625,63.0,96.0
751,210.83322750625,211.92362685,67.0,107.0
752,211.83333900625,212.2903344,55.0,96.0
753,211.49996850625,212.38062224375,48.0,72.0
754,212.16670950625,212.8904013,63.0,97.0
755,212.50008000625,212.918182175,60.0,88.0
756,212.16670950625,212.92512739375,67.0,122.0
757,212.83345050625,214.08914605625,46.0,88.0
758,213.16682100625,214.1572092,53.0,86.0
759,214.00024725625,214.5794785,58.0,92.0
760,213.50019150625,214.61142650625,62.0,107.0
761,213.50019150625,214.62531694375,65.0,86.0
762,214.50030300625,214.93924083125,53.0,96.0
763,214.16693250625,214.9767450125,46.0,89.0
764,215.16704400625,215.50041450625,58.0,79.0
765,214.83367350625,215.50041450625,62.0,112.0
766,214.83367350625,215.50041450625,65.0,89.0
767,216.16715550625,216.62553994375,63.0,95.0
768,216.16715550625,216.629707075,68.0,95.0
769,216.16715550625,216.629707075,72.0,83.0
770,216.66721125625,216.7713895375,63.0,88.0
771,216.66721125625,216.7769457125,72.0,59.0
772,215.50041450625,216.7797238,44.0,92.0
773,215.83378500625,216.87556781875,51.0,63.0
774,216.66721125625,217.2770014625,68.0,85.0
775,216.83389650625,217.82845183125,44.0,75.0
776,217.16726700625,217.86456696875,51.0,82.0
777,217.83400800625,218.1159838875,63.0,95.0
778,217.50063750625,218.12431815,72.0,99.0
779,217.50063750625,218.12848528125,68.0,102.0
780,218.83411950625,219.596704525,53.0,90.0
781,219.50086050625,220.01202860625,68.0,86.0
782,219.50086050625,220.0217519125,65.0,81.0
783,219.16749000625,220.196771425,60.0,78.0
784,219.83423100625,220.2217742125,53.0,93.0
785,218.16737850625,220.430130775,41.0,88.0
786,218.50074900625,220.45096643125,48.0,70.0
787,220.33428675625,220.58153654375,53.0,90.0
788,220.16760150625,220.5884817625,65.0,93.0
789,220.50097200625,220.8607343375,60.0,99.0
790,220.66765725625,220.86212338125,65.0,67.0
791,220.16760150625,220.88712616875,68.0,90.0
792,220.83434250625,222.0497557875,46.0,86.0
793,221.16771300625,222.1553231125,53.0,78.0
794,221.50108350625,222.597039025,62.0,112.0
795,221.50108350625,222.630376075,65.0,86.0
796,221.83445400625,222.7109406125,58.0,77.0
797,222.50119500625,222.9054067375,53.0,107.0
798,223.00125075625,223.1582127,53.0,88.0
799,222.16782450625,223.2276648875,46.0,88.0
800,223.16793600625,223.45685710625,62.0,117.0
801,222.83456550625,223.50408459375,65.0,102.0
802,223.33462125625,223.597150525,58.0,93.0
803,224.16804750625,224.90285165,65.0,95.0
804,224.50141800625,225.02369845625,53.0,75.0
805,223.50130650625,225.5223651625,41.0,89.0
806,223.83467700625,225.52514325,48.0,78.0
807,225.16815900625,225.65154623125,53.0,99.0
808,224.83478850625,226.14882389375,68.0,95.0
809,225.50152950625,226.17104859375,65.0,96.0
810,225.83490000625,226.2279993875,60.0,92.0
811,226.50164100625,226.98780631875,53.0,88.0
812,227.50175250625,227.6476021,58.0,55.0
813,227.16838200625,227.66010349375,53.0,86.0
814,227.50175250625,228.23516760625,62.0,107.0
815,227.83512300625,228.25739230625,53.0,92.0
816,226.16827050625,228.78800701875,46.0,96.0
817,228.50186400625,228.8449578125,53.0,92.0
818,228.16849350625,229.22416675625,58.0,112.0
819,226.83501150625,229.27972850625,65.0,107.0
820,229.16860500625,229.67143884375,53.0,89.0
821,228.83523450625,230.3173441875,46.0,93.0
822,229.83534600625,230.47986230625,53.0,79.0
823,230.16871650625,230.886852125,62.0,112.0
824,230.50208700625,231.0785401625,46.0,86.0
825,231.16882800625,231.4785847625,62.0,102.0
826,229.50197550625,231.55220408125,65.0,96.0
827,230.83545750625,231.575817825,58.0,100.0
828,231.50219850625,232.7370584,48.0,92.0
829,231.83556900625,232.87457373125,55.0,82.0
830,232.50231000625,233.19405379375,60.0,81.0
831,232.16893950625,233.24683745625,63.0,96.0
832,232.16893950625,233.25933885,67.0,107.0
833,233.16905100625,233.6260464,55.0,96.0
834,232.83568050625,233.71633424375,48.0,72.0
835,233.83579200625,234.16916250625,60.0,88.0
836,233.50242150625,234.16916250625,63.0,97.0
837,233.50242150625,234.16916250625,67.0,122.0
838,234.16916250625,235.398466225,46.0,107.0
839,234.50253300625,235.48597598125,53.0,93.0
840,235.33595925625,235.92213571875,62.0,93.0
841,234.83590350625,235.95825085625,65.0,112.0
842,235.83601500625,236.49442174375,53.0,96.0
843,235.50264450625,236.51942453125,46.0,92.0
844,236.16938550625,236.74444961875,62.0,122.0
845,236.50275600625,236.75278388125,58.0,97.0
846,236.16938550625,236.77223049375,65.0,96.0
847,237.50286750625,237.96125194375,63.0,95.0
848,237.50286750625,237.965419075,68.0,95.0
849,237.50286750625,237.965419075,72.0,83.0
850,238.00292325625,238.1071015375,63.0,88.0
851,238.00292325625,238.1126577125,72.0,59.0
852,236.83612650625,238.1154358,44.0,92.0
853,237.16949700625,238.21127981875,51.0,63.0
854,238.00292325625,238.6127134625,68.0,85.0
855,238.16960850625,239.16416383125,44.0,75.0
856,238.50297900625,239.20027896875,51.0,82.0
857,239.16972000625,239.4516958875,63.0,95.0
858,238.83634950625,239.46003015,72.0,99.0
859,238.83634950625,239.46419728125,68.0,102.0
860,240.16983150625,240.932416525,53.0,90.0
861,240.83657250625,241.34774060625,68.0,86.0
862,240.83657250625,241.3574639125,65.0,81.0
863,240.50320200625,241.532483425,60.0,78.0
864,241.16994300625,241.5574862125,53.0,93.0
865,239.50309050625,241.765842775,41.0,88.0
866,239.83646100625,241.78667843125,48.0,70.0
867,241.66999875625,241.91724854375,53.0,90.0
868,241.50331350625,241.9241937625,65.0,93.0
869,241.83668400625,242.1964463375,60.0,99.0
870,242.00336925625,242.19783538125,65.0,67.0
871,241.50331350625,242.22283816875,68.0,90.0
872,242.17005450625,243.3854677875,46.0,86.0
873,242.50342500625,243.4910351125,53.0,78.0
874,242.83679550625,243.932751025,62.0,112.0
875,242.83679550625,243.966088075,65.0,86.0
876,243.17016600625,244.0466526125,58.0,77.0
877,243.83690700625,244.2411187375,53.0,107.0
878,244.33696275625,244.4939247,53.0,88.0
879,243.50353650625,244.5633768875,46.0,88.0
880,244.50364800625,244.79256910625,62.0,117.0
881,244.17027750625,244.83979659375,65.0,102.0
882,244.67033325625,244.932862525,58.0,93.0
883,245.50375950625,246.23856365,65.0,95.0
884,245.83713000625,246.35941045625,53.0,75.0
885,244.83701850625,246.8580771625,41.0,89.0
886,245.17038900625,246.86085525,48.0,78.0
887,246.50387100625,246.98725823125,53.0,99.0
888,246.17050050625,247.48453589375,68.0,95.0
889,246.83724150625,247.50676059375,65.0,96.0
890,247.17061200625,247.5637113875,60.0,92.0
891,247.83735300625,248.32351831875,53.0,88.0
892,248.83746450625,248.9833141,58.0,55.0
893,248.50409400625,248.99581549375,53.0,86.0
894,248.83746450625,249.57087960625,62.0,107.0
895,249.17083500625,249.59310430625,53.0,92.0
896,247.50398250625,250.12371901875,46.0,96.0
897,249.83757600625,250.1806698125,53.0,92.0
898,249.50420550625,250.55987875625,58.0,112.0
899,248.17072350625,250.61544050625,65.0,107.0
900,250.50431700625,251.00715084375,53.0,89.0
901,250.17094650625,251.6530561875,46.0,93.0
902,251.17105800625,251.81557430625,53.0,79.0
903,251.50442850625,252.222564125,62.0,112.0
904,251.83779900625,252.4142521625,46.0,86.0
905,252.50454000625,252.8142967625,62.0,102.0
906,250.83768750625,252.88791608125,65.0,96.0
907,252.17116950625,252.911529825,58.0,100.0
908,252.83791050625,254.0727704,48.0,92.0
909,253.17128100625,254.21028573125,55.0,82.0
910,253.83802200625001,254.52976579375,60.0,81.0
911,253.50465150625,254.58254945625,63.0,96.0
912,253.50465150625,254.59505085,67.0,107.0
913,254.50476300625,254.9617584,55.0,96.0
914,254.17139250625,255.05204624375,48.0,72.0
915,255.17150400625,255.50487450625,60.0,88.0
916,254.83813350625,255.50487450625,63.0,97.0
917,254.83813350625,255.50487450625,67.0,122.0
918,255.50487450625,256.734178225,46.0,107.0
919,255.83824500625,256.82168798125,53.0,93.0
920,256.67167125625,257.25784771875,62.0,93.0
921,256.17161550625,257.29396285625,65.0,112.0
922,257.17172700625,257.83013374375,53.0,96.0
923,256.83835650625,257.85513653125,46.0,92.0
924,257.50509750625,258.08016161875,62.0,122.0
925,257.83846800625,258.08849588125,58.0,97.0
926,257.50509750625,258.10794249375,65.0,96.0
927,258.17183850625,263.95164955,56.0,99.0
928,258.17183850625,263.9544276375,51.0,69.0
929,258.17183850625,263.9544276375,68.0,99.0
930,258.17183850625,263.968318075,72.0,95.0
931,258.17183850625,263.979430425,63.0,99.0
932,258.17183850625,264.001655125,44.0,65.0
