,start,end,pitch,velocity
0,42.622944000000004,43.79097660000001,71.0,87.0
1,43.71584000000001,44.21447380000001,66.0,87.0
2,44.262288000000005,44.603818000000004,71.0,87.0
3,44.808736,45.8640637,71.0,87.0
4,45.901632000000006,47.0013586,74.0,87.0
5,46.99452800000001,47.47950060000001,71.0,87.0
6,47.54097600000001,48.084008700000005,74.0,87.0
7,48.087424000000006,48.367478600000005,71.0,87.0
8,48.360648000000005,48.6270414,73.0,87.0
9,48.633872000000004,49.1973965,69.0,87.0
10,49.18032000000001,50.65231430000001,71.0,87.0
11,52.459008000000004,53.449445000000004,71.0,87.0
12,53.55190400000001,53.821712700000006,66.0,87.0
13,53.82512800000001,54.14958150000001,64.0,87.0
14,54.098352000000006,55.239062200000006,62.0,87.0
15,55.19124800000001,55.67963590000001,59.0,87.0
16,55.73769600000001,56.068980100000005,64.0,87.0
17,56.284144000000005,56.861329700000006,64.0,87.0
18,56.83059200000001,57.39753180000001,66.0,87.0
19,57.923488000000006,58.473351300000004,71.0,87.0
20,57.37704000000001,58.59971740000001,69.0,87.0
21,58.46993600000001,59.02662990000001,73.0,87.0
22,59.01638400000001,59.552586100000006,69.0,87.0
23,59.56283200000001,60.57034550000001,66.0,87.0
24,62.29507200000001,62.592203100000006,66.0,87.0
25,62.84152000000001,63.41187510000001,66.0,87.0
26,63.38796800000001,63.69876030000001,71.0,87.0
27,63.934416000000006,65.095618,71.0,87.0
28,65.57376000000001,66.06556320000001,71.0,87.0
29,66.120208,66.60518060000001,74.0,87.0
30,66.666656,66.9842789,71.0,87.0
31,67.21310400000002,67.70832250000001,78.0,87.0
32,67.75955200000001,68.32649180000001,76.0,87.0
33,68.57922400000001,68.7773114,71.0,87.0
34,68.85244800000001,70.39274830000001,76.0,87.0
35,72.13113600000001,73.10791180000001,74.0,87.0
36,73.22403200000001,73.73291170000002,78.0,87.0
37,73.77048,75.38250160000001,76.0,87.0
38,75.40982400000001,75.67280210000001,74.0,87.0
39,75.95627200000001,76.47539760000001,74.0,87.0
40,76.50272000000001,76.9979385,78.0,87.0
41,77.04916800000001,78.12498750000002,76.0,87.0
42,78.142064,78.63728250000001,78.0,87.0
43,78.68851200000002,79.75408560000001,73.0,87.0
44,79.78140800000001,79.93851180000001,66.0,87.0
45,80.05463200000001,80.23564290000002,66.0,87.0
46,80.32785600000001,80.89821110000001,69.0,87.0
47,80.87430400000001,81.37976840000002,71.0,87.0
48,81.42075200000001,81.93304700000002,73.0,87.0
49,81.9672,83.48700850000002,71.0,87.0
50,85.24588800000001,86.27389330000001,71.0,87.0
51,86.33878400000002,86.9159697,66.0,87.0
52,86.88523200000002,87.1994396,71.0,87.0
53,87.43168000000001,88.35381100000001,71.0,87.0
54,88.52457600000001,89.62430260000001,74.0,87.0
55,89.617472,90.13659760000002,71.0,87.0
56,90.16392000000002,90.49861940000001,73.0,87.0
57,90.71036800000002,91.26706190000002,73.0,87.0
58,91.25681600000001,91.79301810000001,69.0,87.0
59,91.80326400000001,93.35039490000001,71.0,87.0
60,95.08195200000002,96.10995730000002,71.0,87.0
61,96.17484800000001,96.4105037,66.0,87.0
62,96.44807200000001,96.73837250000001,64.0,87.0
63,96.72129600000001,97.03891890000001,62.0,87.0
64,97.26774400000001,97.79028490000002,62.0,87.0
65,97.81419200000002,98.16596790000001,59.0,87.0
66,98.36064000000002,98.74998420000001,64.0,87.0
67,98.90708800000002,99.46378190000001,64.0,87.0
68,99.45353600000001,99.9453392,66.0,87.0
69,99.99998400000001,100.28345390000001,69.0,87.0
70,100.54643200000001,101.0826341,71.0,87.0
71,101.09288000000001,101.61542090000002,73.0,87.0
72,101.63932800000002,103.30599440000002,66.0,87.0
73,104.91801600000001,105.26296130000001,66.0,85.0
74,105.46446400000002,105.86746940000002,66.0,85.0
75,106.01091200000002,106.37293380000001,71.0,85.0
76,106.55736000000002,107.86200460000002,71.0,85.0
77,108.19670400000001,108.66118480000002,71.0,85.0
78,108.74315200000001,109.54916280000002,74.0,85.0
79,109.56282400000002,109.83604800000002,71.0,85.0
80,109.83604800000002,110.33126650000001,78.0,85.0
81,110.38249600000002,111.15776910000001,76.0,85.0
82,111.20216800000001,111.41733190000001,71.0,85.0
83,111.47539200000001,111.84424440000001,76.0,85.0
84,112.02184000000001,113.16255020000001,76.0,85.0
85,114.75408000000002,115.74793230000002,74.0,85.0
86,115.84697600000001,116.29096500000001,78.0,85.0
87,116.39342400000001,117.97470790000001,76.0,85.0
88,117.98153850000001,118.14205760000002,74.0,85.0
89,118.52798650000001,118.61678430000002,74.0,85.0
90,118.80121050000001,119.01637440000002,74.0,85.0
91,119.12566400000001,119.58672950000002,78.0,85.0
92,119.67211200000001,120.43372390000002,76.0,85.0
93,120.76500800000002,121.29096420000002,78.0,85.0
94,121.31145600000002,122.10380560000002,73.0,85.0
95,122.40435200000002,122.90298580000001,66.0,85.0
96,122.95080000000002,123.42552670000002,69.0,85.0
97,123.49724800000001,124.04711130000001,71.0,85.0
98,124.04369600000001,124.54574510000002,73.0,85.0
99,124.59014400000002,126.10312190000002,71.0,85.0
100,127.86883200000001,129.32716510000003,64.0,85.0
101,129.50817600000002,130.58741080000001,76.0,85.0
102,130.60107200000002,130.88454190000002,74.0,85.0
103,130.87429600000002,131.1441047,73.0,85.0
104,131.14752000000001,131.386591,71.0,85.0
105,131.420744,131.6973833,73.0,85.0
106,131.693968,132.72197330000003,71.0,85.0
107,134.42613494375004,135.01102760000003,74.0,85.0
108,134.96089394375002,135.52239089375004,76.0,85.0
109,135.49565294375003,136.04378091875003,78.0,85.0
110,136.03041194375004,136.82586595625003,71.0,85.0
111,136.83255044375002,137.08656096875004,73.0,85.0
112,137.09992994375003,137.33054476250004,71.0,85.0
113,137.36730944375003,137.62131996875004,69.0,85.0
114,137.63468894375004,138.92813727500004,66.0,85.0
115,140.84324294375003,141.75567548750004,66.0,85.0
116,141.91276094375004,142.33054141250003,66.0,85.0
117,142.44751994375002,143.43013960625004,71.0,85.0
118,143.65072769375004,144.61082416250002,78.0,85.0
119,144.60735194375002,144.85040725625,76.0,85.0
120,144.88512944375003,145.09693478750003,78.0,85.0
121,145.16290694375002,147.1385994125,76.0,85.0
122,147.38512694375,148.41984813125,74.0,85.0
123,148.49623694375003,149.08304191250002,71.0,85.0
124,149.05179194375003,149.57956919375002,76.0,85.0
125,149.60734694375003,150.17679081875002,74.0,85.0
126,150.16290194375003,150.73581803750002,76.0,85.0
127,150.71845694375003,152.45109410000003,78.0,85.0
128,157.22589291875002,157.5698081354167,66.0,85.0
129,157.75499325208335,158.02946405000003,66.0,85.0
130,158.28409358541668,158.79665953333335,66.0,85.0
131,158.81319391875002,160.3475848854167,78.0,85.0
132,160.40049491875004,161.52409025208337,76.0,85.0
133,161.52409025208337,162.07184297708338,78.0,85.0
134,162.08588791875005,163.46229220208338,74.0,85.0
135,163.77128091875005,164.41383700000003,64.0,85.0
136,164.3330785854167,164.78953918958337,66.0,85.0
137,164.89487625208338,165.45316268333337,74.0,85.0
138,165.45667391875003,166.55217936875005,71.0,85.0
139,166.58026925208338,167.1350444479167,69.0,85.0
140,167.14206691875003,167.6772971854167,71.0,85.0
141,167.68407225208335,167.97540011875003,73.0,85.0
142,168.2260775854167,168.76130785208338,69.0,85.0
143,168.76808291875003,169.7504675854167,66.0,85.0
144,170.39409891875005,170.7464023854167,62.0,85.0
145,170.93610425208337,171.2240445854167,64.0,85.0
146,171.4781095854167,172.01333985208336,66.0,85.0
147,172.02011491875004,172.58244545208336,71.0,85.0
148,172.96862425208337,173.46659165208337,71.0,85.0
149,173.64613091875003,174.73352911875003,69.0,85.0
150,174.59464025208337,175.1569707854167,71.0,85.0
151,175.27214691875002,176.4882713854167,64.0,85.0
152,176.89816291875005,177.43678071875004,64.0,85.0
153,177.44016825208337,177.7992467854167,66.0,85.0
154,177.9821735854167,178.20913831875004,76.0,85.0
155,178.52417891875004,179.04247151875003,76.0,85.0
156,179.06618425208336,179.6183521854167,78.0,85.0
157,179.6081895854167,180.1468073854167,74.0,85.0
158,180.15019491875003,181.77959845208338,71.0,85.0
159,183.40222691875005,183.6833921854167,71.0,83.0
160,183.94423225208337,184.16780945208336,71.0,83.0
161,184.4862375854167,185.0451805854167,71.0,83.0
162,185.02824291875004,185.75995011875003,78.0,83.0
163,186.1122535854167,186.1833917854167,78.0,83.0
164,186.38325625208336,186.54247031875002,78.0,83.0
165,186.65425891875003,187.76536985208338,76.0,83.0
166,187.7382695854167,188.28366245208338,78.0,80.0
167,188.28027491875002,189.51333705208336,76.0,80.0
168,189.90629091875005,190.2281065854167,76.0,80.0
169,190.44829625208337,190.7565617854167,76.0,80.0
170,190.99030158541672,191.54246951875004,76.0,80.0
171,191.53230691875004,192.5655045854167,81.0,80.0
172,192.6163175854167,193.06685951875005,76.0,78.0
173,193.15832291875003,193.40222531875003,78.0,78.0
174,193.4293255854167,193.70710331875003,79.0,78.0
175,193.70032825208338,194.79818932708338,78.0,78.0
176,196.44638791875005,196.71300827916673,66.0,78.0
177,197.0004042520834,197.2012351729167,66.0,78.0
178,197.55442058541672,197.93876941666673,66.0,78.0
179,198.10843691875004,199.69777127500006,78.0,78.0
180,199.77048591875004,200.11328352500004,76.0,80.0
181,200.3245022520834,200.57380960208337,76.0,80.0
182,200.60151041875005,200.83004215625004,78.0,80.0
183,200.8785185854167,201.42560971458337,74.0,80.0
184,201.43253491875006,202.8487391708334,76.0,80.0
185,203.09458391875006,204.12297673750004,66.0,80.0
186,204.2026165854167,204.7081564895834,73.0,80.0
187,204.75663291875006,205.33835006875006,69.0,80.0
188,205.31064925208338,205.81618915625006,71.0,80.0
189,205.86466558541673,206.42202416250007,73.0,80.0
190,206.41868191875005,207.44809299375007,71.0,80.0
191,209.62723591875005,209.80771708125005,47.0,80.0
192,210.16199491875005,210.22883979375004,47.0,80.0
193,210.29568466875006,210.37589851875006,47.0,80.0
194,210.42937441875006,210.51293051250005,47.0,80.0
195,210.69675391875006,210.82710142500005,47.0,80.0
196,210.96413341875007,211.09782316875004,52.0,80.0
197,211.23151291875004,211.47883895625006,54.0,80.0
198,211.63258216875005,211.68271582500006,54.0,80.0
199,211.76627191875005,211.82643230625004,54.0,80.0
200,212.03365141875005,212.10049629375004,54.0,80.0
201,212.30103091875006,212.38458701250005,54.0,83.0
202,212.56841041875006,212.72549587500006,54.0,83.0
203,212.83578991875007,212.96279518125004,52.0,83.0
204,213.23685916875004,213.31038853125006,52.0,83.0
205,213.37054891875005,213.42736706250005,52.0,83.0
206,213.63792841875005,213.71480002500005,52.0,83.0
207,213.90530791875005,213.99554850000004,52.0,83.0
208,214.17268741875006,214.25624351250005,52.0,83.0
209,214.44006691875006,214.53364974375006,52.0,83.0
210,214.84113616875004,214.91466553125005,52.0,83.0
211,214.97482591875004,215.01827508750006,52.0,83.0
212,215.24220541875005,215.30905029375006,52.0,83.0
213,215.50958491875005,215.59314101250004,52.0,83.0
214,215.77696441875005,215.86052051250005,52.0,83.0
215,216.04434391875006,216.22991811875005,52.0,83.0
216,216.46451191875005,216.54854551875005,52.0,83.0
217,216.74462391875005,216.80764911875005,52.0,83.0
218,216.88467991875007,216.96871351875006,52.0,83.0
219,217.16479191875007,217.25232691875007,52.0,83.0
220,217.44490391875007,217.52193471875006,52.0,83.0
221,217.72501591875005,217.83005791875007,52.0,83.0
222,218.14518391875006,218.22571611875006,52.0,83.0
223,218.42529591875007,218.49182251875007,52.0,83.0
224,218.56535191875005,218.65288691875006,52.0,83.0
225,218.84546391875006,218.94000171875007,52.0,83.0
226,219.12557591875006,219.24462351875005,52.0,83.0
227,219.40568791875006,220.25302671875005,54.0,83.0
228,220.24602391875007,220.54364291875007,52.0,83.0
229,220.52613591875007,221.03383891875006,54.0,83.0
230,221.64658391875005,222.02823651875005,74.0,83.0
231,222.20680791875006,222.74252211875006,74.0,83.0
232,222.76703191875006,223.70890851875006,71.0,83.0
233,223.74742391875006,224.05554711875007,74.0,83.0
234,224.02753591875006,224.30064511875005,76.0,83.0
235,224.30764791875006,225.33242236875006,78.0,83.0
236,225.52008991875005,225.99596120625006,83.0,83.0
237,226.05628291875004,226.78684588125006,76.0,83.0
238,226.86057241875005,227.08175203125006,78.0,83.0
239,227.12866891875004,227.63470106250006,74.0,83.0
240,227.66486191875006,229.10252940000004,76.0,83.0
241,229.27344091875005,230.33912450625004,64.0,83.0
242,230.34582691875005,230.86191268125006,66.0,83.0
243,230.88201991875005,231.70641665625004,69.0,83.0
244,231.68630941875006,231.96781074375005,71.0,83.0
245,231.95440591875004,232.35990187500005,73.0,83.0
246,232.49059891875004,233.15413775625004,73.0,83.0
247,233.29488841875005,233.43899028750005,71.0,83.0
248,233.56298491875006,234.64778848125005,73.0,83.0
249,234.65473291875006,234.80056610625005,71.0,83.0
250,234.93251041875007,235.02278810625006,73.0,83.0
251,235.21028791875005,235.37000998125006,74.0,83.0
252,235.48806541875007,235.60959307500005,71.0,83.0
253,235.76584291875005,237.28667473125006,73.0,83.0
254,237.43250791875005,238.04361841875007,66.0,83.0
255,237.98806291875005,238.55403457500006,68.0,83.0
256,238.54361791875004,239.06445073125005,70.0,83.0
257,239.09917291875007,239.46028366875007,66.0,83.0
258,239.65472791875007,239.94292207500007,66.0,83.0
259,240.21028291875007,240.74847682500007,66.0,83.0
260,240.76583791875007,242.32917958541674,78.0,83.0
261,242.38308791875008,243.46125458541673,76.0,83.0
262,243.46125458541673,243.98686083541673,78.0,83.0
263,244.00033791875006,245.32109208541672,74.0,83.0
264,245.61758791875008,246.23416448125008,64.0,83.0
265,246.1566712520834,246.59467646041674,66.0,83.0
266,246.69575458541672,247.23146864791673,74.0,83.0
267,247.23483791875006,248.28605041875005,71.0,83.0
268,248.31300458541673,248.8453493770834,69.0,83.0
269,248.85208791875007,249.38443271041672,71.0,83.0
270,249.3911712520834,249.68092854375007,73.0,83.0
271,249.93025458541672,250.4625993770834,69.0,83.0
272,250.46933791875006,251.44642646041672,66.0,83.0
273,252.08658791875007,252.43699208541673,62.0,83.0
274,252.6256712520834,252.91205927291674,64.0,83.0
275,253.16475458541674,253.6970993770834,66.0,83.0
276,253.70383791875005,254.2631368770834,71.0,83.0
277,254.6472337520834,255.1425165645834,71.0,83.0
278,255.32108791875007,256.4387751437501,69.0,83.0
279,256.29601758541673,256.8740116020834,71.0,83.0
280,256.99239591875005,258.2423950270834,64.0,83.0
281,258.66370391875006,259.2173246937501,64.0,83.0
282,259.2208065854167,259.5898871020834,66.0,83.0
283,259.7779092520834,260.01119599375005,76.0,83.0
284,260.33501191875007,260.8677413437501,76.0,83.0
285,260.8921145854167,261.4596629270834,78.0,83.0
286,261.4492172520834,262.0028380270834,74.0,83.0
287,262.0063199187501,263.68110981041673,71.0,83.0
288,265.34893591875004,265.62268254166673,71.0,83.0
289,265.8766402520834,266.0943182895834,71.0,83.0
290,266.4043445854167,266.9485396791667,71.0,83.0
291,266.93204891875007,267.64444976875006,78.0,83.0
292,267.98745758541673,268.0567187791667,78.0,83.0
293,268.2513097520834,268.4063229,78.0,83.0
294,268.51516191875004,269.59695580208336,76.0,83.0
295,269.5705705854167,270.10157307083335,78.0,83.0
296,270.09827491875006,271.2988022770834,76.0,83.0
297,271.68138791875003,272.0121676270834,76.0,83.0
298,272.2384905854167,272.55534272708337,76.0,83.0
299,272.7955932520834,273.36314159375,76.0,83.0
300,273.35269591875004,274.4146728770834,81.0,83.0
301,274.4564555770834,275.0065944604167,83.0,83.0
302,275.02400391875005,275.49405929375,78.0,83.0
303,275.6542263104167,276.1556187104167,81.0,83.0
304,276.1277635770834,277.9313834604167,78.0,83.0
305,278.36661991875,278.6260537729167,66.0,83.0
306,278.90570325208336,279.10112096041667,66.0,83.0
307,279.4447865854167,279.8187756479167,66.0,83.0
308,279.98386991875003,281.53036523125,78.0,83.0
309,281.60111991875004,281.93467773125,76.0,83.0
310,282.1402032520833,282.38279075208334,76.0,83.0
311,282.40974491875,282.63211679375,78.0,83.0
312,282.67928658541666,283.21163137708334,74.0,83.0
313,283.21836991875,284.59640168958333,76.0,83.0
314,284.83561991875,285.83629335625,66.0,83.0
315,285.9137865854167,286.4057001270834,73.0,83.0
316,286.45286991875,287.01890741875,69.0,83.0
317,286.99195325208336,287.48386679375,71.0,83.0
318,287.5310365854167,288.07362131875004,73.0,83.0
319,288.07011991875004,289.14855111875005,71.0,83.0
320,291.38594571875007,291.71305704375,71.0,83.0
321,291.92940298125,292.19382579375,71.0,83.0
322,292.45824860625004,292.98709423125,71.0,83.0
323,293.00426454375,294.07225798125,78.0,83.0
324,294.13063704375,294.65604860625,83.0,83.0
325,294.66978485625003,295.05783391875,76.0,83.0
326,295.24327329375,295.47335548125,76.0,85.0
327,295.47678954375,295.74121235625,78.0,85.0
328,295.77211891875004,296.31126673125,74.0,85.0
329,296.29066235625004,297.44107329375004,76.0,85.0
330,297.94244641875,299.07539472708334,66.0,85.0
331,299.0454745458333,299.57073994999996,73.0,85.0
332,299.62060691875,300.09268088958333,69.0,85.0
333,300.09268088958333,300.58470164791663,71.0,85.0
334,300.62791968749997,301.1398872333333,73.0,85.0
335,301.21634991875,302.94174703749997,71.0,85.0
336,304.5408145020833,305.7708663979167,66.0,85.0
337,305.8373556895833,306.38256788125,76.0,85.0
338,306.5953336145833,307.56607727291663,76.0,85.0
339,307.5261836979167,310.49160610625,78.0,85.0
340,310.49160610625,311.0534406208333,74.0,85.0
341,311.0368182979166,311.6385463875,76.0,85.0
342,311.6219240645833,312.41314663541664,74.0,85.0
343,312.51952950208334,313.61327835,74.0,83.0
344,313.84931533541663,317.17045545416664,71.0,80.0
