,start,end,pitch,velocity
0,1.2431692,6.0075127,59.0,95.0
1,1.2704916000000002,6.714479800000001,66.0,95.0
2,6.222676600000001,7.168714700000001,59.0,86.0
3,6.939889600000001,7.677594400000001,66.0,86.0
4,1.2568304000000001,9.897539400000001,47.0,95.0
5,9.846309900000001,17.083330600000004,54.0,100.0
6,7.394124500000001,17.137975400000002,59.0,75.0
7,16.936472700000003,22.274586600000003,52.0,80.0
8,24.504777500000003,25.9426188,47.0,68.0
9,21.997947300000003,26.109968500000004,54.0,73.0
10,7.824452300000001,26.215842800000004,66.0,86.0
11,24.521854000000005,26.229504000000002,59.0,65.0
12,1.2978140000000002,26.273902900000003,71.0,95.0
13,1.2773222000000002,26.318301800000004,62.0,95.0
14,26.977454700000003,27.646853500000002,59.0,86.0
15,27.435104900000002,27.834695000000004,66.0,86.0
16,27.438520200000003,27.838110300000004,71.0,86.0
17,27.428274300000005,27.858602100000002,62.0,86.0
18,27.749312500000002,28.131826100000005,59.0,86.0
19,27.995214100000005,28.883192100000002,71.0,86.0
20,28.002044700000003,28.896853300000004,66.0,86.0
21,27.998629400000002,28.924175700000003,62.0,86.0
22,26.243165200000004,28.982235800000005,47.0,86.0
23,28.524585600000005,29.470623700000004,59.0,84.0
24,29.050541800000005,29.631142800000003,62.0,86.0
25,29.053957100000005,29.651634600000005,66.0,86.0
26,29.060787700000002,29.665295800000003,71.0,86.0
27,30.601088000000004,30.952863900000004,64.0,68.0
28,30.604503300000005,30.956279200000004,68.0,68.0
29,30.594257400000004,30.973355700000003,71.0,68.0
30,30.638656300000005,30.973355700000003,71.0,92.0
31,30.054640000000003,31.666661600000005,59.0,68.0
32,31.168027800000004,32.018437500000005,71.0,90.0
33,31.171443100000005,32.018437500000005,71.0,90.0
34,29.538929700000004,32.523901900000006,52.0,86.0
35,31.185104300000003,32.8483554,64.0,90.0
36,31.181689000000006,32.8483554,68.0,90.0
37,33.285513800000004,35.484967000000005,54.0,86.0
38,33.8387924,35.51228940000001,61.0,86.0
39,34.426224000000005,35.6079178,70.0,86.0
40,34.429639300000005,35.631824900000005,66.0,86.0
41,36.031415,38.41870970000001,47.0,63.0
42,37.14138750000001,38.893436400000006,66.0,70.0
43,36.57103240000001,38.90709760000001,59.0,63.0
44,37.13797220000001,38.90709760000001,62.0,63.0
45,37.13455690000001,38.91051290000001,71.0,63.0
46,39.381824300000005,42.2575069,42.0,73.0
47,39.41256200000001,42.2609222,66.0,73.0
48,39.374993700000005,42.281414000000005,54.0,73.0
49,39.388654900000006,42.288244600000006,61.0,73.0
50,39.392070200000006,42.288244600000006,70.0,73.0
51,43.118162500000004,44.1017689,59.0,92.0
52,42.558053300000005,44.14616780000001,47.0,87.0
53,42.851769100000006,44.1632443,54.0,92.0
54,43.38114060000001,44.2452115,62.0,95.0
55,43.65094930000001,44.3135175,66.0,97.0
56,44.79849010000001,46.0143369,62.0,86.0
57,44.556003800000006,46.06898170000001,57.0,86.0
58,44.29644100000001,46.089473500000004,45.0,97.0
59,45.07512940000001,46.372943400000004,66.0,86.0
60,45.35518400000001,46.601768500000006,71.0,86.0
61,47.2131072,47.513653600000005,62.0,65.0
62,46.69739690000001,48.852451200000004,54.0,70.0
63,46.97062090000001,48.87635830000001,58.0,68.0
64,46.1509489,48.995893800000005,46.0,86.0
65,45.891386100000005,49.04370800000001,42.0,86.0
66,47.4965771,49.04370800000001,61.0,61.0
67,46.42758820000001,49.09152220000001,49.0,86.0
68,49.74042920000001,52.43168560000001,54.0,86.0
69,49.47062050000001,52.43510090000001,50.0,86.0
70,52.42827030000001,52.43510090000001,50.0,65.0
71,49.22813420000001,52.44193150000001,47.0,86.0
72,50.566931800000006,52.44193150000001,66.0,41.0
73,50.86064760000001,52.44193150000001,71.0,68.0
74,50.01023790000001,52.452177400000004,59.0,86.0
75,50.31761490000001,52.455592700000004,62.0,86.0
76,52.98837950000001,53.54848870000001,62.0,65.0
77,53.251357600000006,53.814882100000005,66.0,65.0
78,53.514335700000004,53.869526900000004,71.0,65.0
79,52.72198610000001,53.89684930000001,59.0,65.0
80,53.77389850000001,54.170073300000006,62.0,68.0
81,54.62430820000001,55.20832450000001,62.0,73.0
82,54.07102960000001,55.437149600000005,47.0,68.0
83,54.89753220000001,55.46447200000001,66.0,73.0
84,54.34083830000001,55.577176900000005,59.0,73.0
85,55.18100210000001,55.68988180000001,71.0,86.0
86,55.430319000000004,55.74794190000001,62.0,59.0
87,56.25682160000001,56.89889800000001,64.0,85.0
88,55.96993640000001,57.141384300000006,59.0,86.0
89,55.713788900000004,57.17553730000001,52.0,77.0
90,56.51296910000001,57.26091980000001,67.0,65.0
91,57.073078300000006,57.277996300000005,64.0,70.0
92,56.80668490000001,57.277996300000005,71.0,65.0
93,57.37704000000001,58.16597430000001,59.0,75.0
94,57.95764100000001,58.29575570000001,64.0,51.0
95,57.96105630000001,58.30258630000001,67.0,51.0
96,57.95422570000001,58.333324000000005,71.0,51.0
97,57.36679410000001,58.52799610000001,52.0,70.0
98,58.23428030000001,58.623624500000005,59.0,67.0
99,58.476766600000005,58.80122010000001,71.0,59.0
100,58.490427800000006,58.828542500000005,67.0,86.0
101,58.487012500000006,58.85244960000001,64.0,86.0
102,59.265700900000006,60.22881550000001,54.0,86.0
103,59.542340200000005,60.43714880000001,61.0,86.0
104,59.01979930000001,60.44056410000001,42.0,86.0
105,59.80873360000001,60.44056410000001,66.0,86.0
106,60.08878820000001,60.51228540000001,70.0,86.0
107,60.331274500000006,60.56351490000001,54.0,86.0
108,60.891383700000006,61.83059120000001,54.0,86.0
109,60.604498500000005,62.05941630000001,42.0,86.0
110,61.731547500000005,62.155044700000005,66.0,86.0
111,61.18851480000001,62.20285890000001,61.0,86.0
112,61.97744910000001,62.50340530000001,54.0,67.0
113,62.54780420000001,63.52458000000001,59.0,86.0
114,62.25750370000001,63.715836800000005,47.0,86.0
115,63.64070020000001,63.91392420000001,59.0,87.0
116,63.39479860000001,64.06761270000001,71.0,41.0
117,63.077175700000005,64.18714820000001,66.0,67.0
118,62.793705800000005,64.34766730000001,62.0,86.0
119,64.1529952,64.80190220000001,59.0,85.0
120,63.90709360000001,65.19807700000001,47.0,85.0
121,65.01706610000001,65.50545400000001,59.0,83.0
122,64.46720280000001,65.60449770000001,62.0,85.0
123,64.47061810000001,65.61132830000001,71.0,85.0
124,64.46378750000001,65.63182010000001,66.0,85.0
125,66.086055,66.44466150000001,59.0,84.0
126,66.15777630000001,66.8271751,67.0,86.0
127,66.14753040000001,66.837421,64.0,86.0
128,66.15436100000001,66.8442516,71.0,86.0
129,65.5600988,67.02867780000001,52.0,86.0
130,66.666656,67.05600020000001,59.0,86.0
131,66.9467106,67.2404264,64.0,86.0
132,66.9501259,67.247257,67.0,86.0
133,66.9432953,67.55463400000001,71.0,86.0
134,67.73222960000001,68.32990710000001,59.0,86.0
135,68.28892350000001,68.62362290000002,64.0,86.0
136,68.29233880000001,68.681683,67.0,86.0
137,67.20968870000002,68.70559010000001,52.0,86.0
138,68.28209290000001,68.70900540000001,71.0,86.0
139,68.5382404,68.71242070000001,59.0,86.0
140,68.8251256,70.25272100000001,49.0,86.0
141,69.0710272,70.25272100000001,54.0,86.0
142,69.3579124,70.26296690000001,61.0,86.0
143,69.6345517,70.29028930000001,66.0,77.0
144,69.9248522,70.3483494,70.0,86.0
145,70.96310340000001,71.6290869,61.0,86.0
146,71.23632740000001,71.65982460000001,66.0,86.0
147,70.40640950000001,71.69397760000001,49.0,86.0
148,70.68646410000001,71.7520377,54.0,86.0
149,71.56419620000001,71.98427810000001,70.0,86.0
150,71.81351310000001,72.06283,61.0,86.0
151,72.37362230000001,73.3435675,59.0,86.0
152,73.2103708,73.55873140000001,71.0,86.0
153,72.6058627,73.56556200000001,62.0,86.0
154,72.0696606,73.56897730000001,47.0,86.0
155,72.8961632,73.58605380000002,66.0,86.0
156,73.43919590000002,73.95832150000001,59.0,86.0
157,73.98222860000001,74.45354,59.0,59.0
158,74.28277500000002,74.91802080000001,67.0,86.0
159,74.27935970000001,74.94192790000001,71.0,86.0
160,74.27594440000001,74.94875850000001,64.0,86.0
161,73.71241990000001,75.15026120000002,52.0,86.0
162,74.84288420000001,75.1639224,59.0,86.0
163,75.09561640000001,75.35859450000001,67.0,86.0
164,75.09220110000001,75.36200980000001,71.0,86.0
165,75.09903170000001,75.38591690000001,64.0,86.0
166,75.94944140000001,75.96993320000001,71.0,86.0
167,75.64206440000001,76.34220090000001,59.0,86.0
168,75.90845780000001,76.51638120000001,62.0,86.0
169,75.38250160000001,76.75203690000001,47.0,86.0
170,76.4446599,76.91255600000001,71.0,86.0
171,76.69739210000002,76.96378550000001,59.0,86.0
172,76.1714359,76.96720080000001,66.0,86.0
173,77.22676360000001,77.7219821,59.0,86.0
174,77.54438650000002,78.05668150000001,71.0,59.0
175,77.53755590000002,78.06351210000001,67.0,86.0
176,77.52389470000001,78.06692740000001,64.0,86.0
177,76.97403140000002,78.4221186,52.0,86.0
178,78.08400390000001,78.45968690000001,59.0,86.0
179,78.35039730000001,78.58946830000001,67.0,86.0
180,78.35381260000001,78.65094370000001,64.0,86.0
181,78.34698200000001,78.67826610000002,71.0,86.0
182,78.93441360000001,79.94192710000002,58.0,41.0
183,78.62703660000001,80.01023310000001,54.0,86.0
184,79.17006930000001,80.1161074,61.0,86.0
185,79.6891949,80.15026040000001,70.0,86.0
186,79.4125556,80.18099810000001,66.0,86.0
187,80.51228220000002,80.92553350000001,58.0,61.0
188,80.8264898,81.1304515,66.0,86.0
189,80.81624390000002,81.13728210000001,70.0,86.0
190,80.8230745,81.14069740000001,61.0,86.0
191,80.22881230000002,81.36952250000002,54.0,86.0
192,81.08263730000002,81.4070908,58.0,86.0
193,81.36610720000002,81.74520550000001,61.0,86.0
194,81.36269190000002,81.74862080000001,70.0,86.0
195,81.37293780000002,81.8169268,66.0,86.0
196,82.2540852,82.71515070000001,59.0,70.0
197,82.49657150000002,83.1113255,62.0,70.0
198,82.49315620000002,83.15913970000001,66.0,70.0
199,82.48632560000001,83.17621620000001,71.0,70.0
200,81.90913990000001,83.34356590000002,47.0,86.0
201,83.02935830000001,83.41528720000001,59.0,86.0
202,83.28892110000001,83.46310140000001,71.0,86.0
203,83.28550580000001,83.50408500000002,62.0,86.0
204,83.29575170000001,83.50408500000002,66.0,86.0
205,83.61678990000001,85.30053280000001,66.0,86.0
206,83.60995930000001,85.31077870000001,59.0,86.0
207,83.62020520000002,85.31077870000001,62.0,86.0
208,83.61337460000001,85.31419400000001,71.0,86.0
209,83.59971340000001,85.32102460000002,47.0,86.0
210,85.2219809,85.32102460000002,47.0,86.0
211,85.46446720000002,85.95968570000001,59.0,59.0
212,85.75476770000002,86.43099710000001,71.0,86.0
213,85.74793710000002,86.44465830000001,66.0,86.0
214,85.74110650000001,86.48222660000002,62.0,86.0
215,86.57102440000001,86.68714460000001,71.0,86.0
216,86.55394790000001,86.73154350000002,62.0,86.0
217,86.33195340000002,86.79643420000001,59.0,84.0
218,86.82717190000001,86.89547790000002,71.0,59.0
219,87.09698060000001,87.4931554,59.0,84.0
220,87.40435760000001,87.70490400000001,62.0,86.0
221,87.66050510000001,87.94397500000001,59.0,86.0
222,87.40094230000001,87.95422090000001,66.0,86.0
223,86.86132490000001,87.99178920000001,47.0,86.0
224,87.39069640000001,88.29916620000002,71.0,86.0
225,87.92689850000001,88.4835924,62.0,86.0
226,88.1898766,88.51774540000001,66.0,86.0
227,89.27252670000001,89.4774447,66.0,86.0
228,88.46651590000002,89.890696,42.0,86.0
229,89.55599660000001,89.8941113,70.0,86.0
230,89.55258130000001,89.90777250000001,66.0,86.0
231,89.01296390000002,89.91118780000001,61.0,86.0
232,89.78482170000001,89.98290910000001,54.0,86.0
233,90.3107779,90.72744450000002,54.0,86.0
234,90.6113243,90.96310020000001,66.0,86.0
235,90.61473960000001,90.99042260000002,61.0,86.0
236,90.6010784,90.99042260000002,70.0,86.0
237,90.0443845,91.06214390000001,42.0,86.0
238,90.87430240000002,91.21924770000001,54.0,86.0
239,91.1611876,91.4446575,61.0,86.0
240,91.1680182,91.48222580000001,70.0,86.0
241,91.18167940000001,91.53687060000001,66.0,67.0
242,92.0252585,92.41118740000002,59.0,86.0
243,92.54438410000002,92.78003980000001,59.0,59.0
244,92.27799070000002,92.95080480000001,71.0,86.0
245,92.28140600000002,92.97812720000002,66.0,86.0
246,92.28823660000002,92.99861900000002,62.0,86.0
247,91.70422030000002,93.23085940000001,47.0,86.0
248,92.84834580000002,93.31624190000001,59.0,52.0
249,93.13864630000002,93.4289468,66.0,86.0
250,93.12498510000002,93.4323621,62.0,86.0
251,93.13181570000002,93.44602330000001,71.0,86.0
252,93.715832,94.05053140000001,59.0,86.0
253,93.94124180000001,94.30667890000001,62.0,86.0
254,93.93441120000001,94.32034010000001,71.0,86.0
255,93.94465710000001,94.33058600000001,66.0,86.0
256,94.18031280000001,94.60722530000001,59.0,86.0
257,94.49452040000001,94.87703400000001,62.0,86.0
258,94.49110510000001,94.87703400000001,66.0,86.0
259,94.48768980000001,94.89752580000001,71.0,86.0
260,93.39479380000002,94.94534000000002,47.0,86.0
261,94.77457500000001,94.94875530000002,59.0,86.0
262,95.54643280000002,95.96651470000002,59.0,86.0
263,95.81282620000002,96.14069500000001,62.0,86.0
264,95.8401486,96.15777150000001,71.0,86.0
265,95.82990270000002,96.16118680000001,66.0,86.0
266,95.03413780000001,96.48905560000001,50.0,86.0
267,95.2766241,96.48905560000001,54.0,86.0
268,96.10312670000002,96.50954740000002,59.0,86.0
269,96.39001190000002,96.70080420000001,66.0,86.0
270,96.38659660000002,96.70763480000001,62.0,86.0
271,96.38318130000002,96.74520310000001,71.0,86.0
272,96.94670580000002,97.28823580000001,59.0,86.0
273,97.20285330000002,97.50681500000002,62.0,86.0
274,97.19602270000001,97.60244340000001,71.0,86.0
275,97.20968390000002,97.70831770000001,66.0,86.0
276,96.68031240000002,97.75954720000001,47.0,86.0
277,97.45217020000001,98.02935590000001,59.0,86.0
278,97.72539420000001,98.21719740000002,62.0,24.0
279,98.00886410000001,98.28550340000001,66.0,86.0
280,98.50408260000002,98.88659620000001,59.0,86.0
281,98.83878200000001,99.13591310000001,64.0,86.0
282,98.83195140000001,99.20421910000002,71.0,86.0
283,98.83536670000001,99.22471090000002,67.0,86.0
284,99.06077650000002,99.62088570000002,59.0,86.0
285,98.26501160000001,99.62430100000002,52.0,86.0
286,99.58331740000001,99.79848130000002,67.0,86.0
287,99.32716990000002,99.81897310000001,64.0,86.0
288,99.59697860000001,99.86337200000001,71.0,86.0
289,100.10244300000001,100.46446480000002,59.0,59.0
290,100.43372710000001,100.65913690000001,64.0,86.0
291,100.43714240000001,100.7991642,67.0,86.0
292,100.42689650000001,100.81282540000001,71.0,86.0
293,99.84629550000001,101.05531170000002,52.0,86.0
294,100.68304400000001,101.0758035,59.0,86.0
295,101.00066690000001,101.0792188,71.0,6.0
296,100.96309860000001,101.34902750000002,64.0,86.0
297,101.2192461,101.45831710000002,67.0,86.0
298,101.82375420000001,102.26432790000001,54.0,41.0
299,102.09356290000001,102.4965683,70.0,86.0
300,102.08331700000001,102.53072130000001,61.0,86.0
301,102.37703280000001,102.81419120000001,54.0,67.0
302,101.54369960000001,102.9200655,42.0,86.0
303,102.67416390000001,103.23427310000001,70.0,86.0
304,102.66733330000001,103.24110370000001,61.0,86.0
305,102.67074860000001,103.25818020000001,66.0,86.0
306,103.43919110000002,103.82853530000001,54.0,86.0
307,103.74315280000002,104.01296150000002,61.0,86.0
308,103.18304360000002,104.0539451,42.0,86.0
309,103.74998340000002,104.18031120000002,66.0,86.0
310,103.99246970000002,104.35790680000001,54.0,86.0
311,103.73973750000002,104.36815270000001,70.0,86.0
312,104.26910900000001,104.65503790000001,61.0,86.0
313,104.51159530000001,104.85312530000002,66.0,86.0
314,105.08536570000001,105.90845300000001,59.0,86.0
315,105.33126730000001,105.94943660000001,62.0,86.0
316,104.80872640000001,106.20558410000001,47.0,86.0
317,105.87430000000002,106.22949120000001,71.0,86.0
318,106.12020160000002,106.29779720000002,59.0,86.0
319,105.59424540000002,106.30121250000002,66.0,86.0
320,106.38659500000001,106.83399930000002,66.0,86.0
321,106.38317970000001,106.84424520000002,71.0,86.0
322,106.39001030000001,106.87156760000002,62.0,86.0
323,106.51296110000001,107.11405390000002,59.0,59.0
324,107.01501020000002,107.27457300000002,62.0,86.0
325,107.00476430000002,107.34629430000001,71.0,86.0
326,107.01159490000002,107.35654020000001,66.0,86.0
327,106.41733270000002,107.71856200000002,47.0,86.0
328,107.24383530000001,107.83468220000002,59.0,86.0
329,107.74588440000001,107.89274230000001,66.0,86.0
330,107.55462760000002,107.89615760000001,62.0,86.0
331,107.56145820000002,107.89957290000001,71.0,86.0
332,108.72607550000001,109.10517380000002,59.0,86.0
333,108.64410830000001,109.28276940000002,66.0,86.0
334,108.64752360000001,109.28960000000002,62.0,86.0
335,108.64069300000001,109.29984590000001,71.0,86.0
336,108.05326140000001,109.53550160000002,50.0,86.0
337,109.21104810000001,109.60039230000001,59.0,77.0
338,109.47744150000001,109.75408080000001,62.0,86.0
339,109.47402620000001,109.78481850000001,66.0,86.0
340,109.47061090000001,109.82580210000002,71.0,86.0
341,109.97607530000002,110.39957250000002,59.0,86.0
342,110.28003700000002,110.63864350000001,67.0,86.0
343,110.28686760000001,110.64205880000002,64.0,86.0
344,110.28345230000001,110.64547410000002,71.0,86.0
345,110.54301510000002,110.98017350000002,59.0,86.0
346,110.86063800000001,111.11337020000002,64.0,86.0
347,109.75408080000001,111.13044670000002,52.0,86.0
348,110.86405330000001,111.29779640000001,67.0,86.0
349,110.85380740000001,111.31828820000001,71.0,86.0
350,112.27457220000001,112.45558310000001,66.0,86.0
351,111.75544660000001,112.54779620000002,58.0,86.0
352,112.02867060000001,112.87566500000001,61.0,86.0
353,112.50339730000002,112.87908030000001,70.0,86.0
354,111.40025540000002,112.91323330000002,49.0,86.0
355,112.49656670000002,112.91664860000002,66.0,6.0
356,112.73222240000001,112.94397100000002,58.0,86.0
357,113.26842450000001,113.65776870000002,58.0,86.0
358,113.57238620000001,113.86951730000001,66.0,86.0
359,113.56897090000001,113.87634790000001,61.0,86.0
360,113.56214030000001,113.88317850000001,70.0,86.0
361,113.02593820000001,114.24861560000002,49.0,86.0
362,113.79779600000002,114.24861560000002,58.0,86.0
363,114.08809650000002,114.39888880000001,70.0,86.0
364,114.09492710000002,114.51500900000002,61.0,86.0
365,114.36473580000002,114.62429860000002,66.0,86.0
366,114.86678490000001,115.23905260000002,59.0,84.0
367,115.17074660000002,115.38249520000002,62.0,86.0
368,115.16050070000001,115.48836950000002,71.0,86.0
369,115.16733130000001,115.55326020000001,66.0,86.0
370,114.59697620000001,115.75134760000002,47.0,86.0
371,115.40981760000001,116.01774100000002,59.0,86.0
372,115.68304160000001,116.12020000000001,62.0,86.0
373,115.91528200000002,116.15093770000001,66.0,86.0
374,116.45489940000002,116.82716710000001,59.0,86.0
375,116.76910700000002,117.05599220000002,64.0,86.0
376,116.76569170000002,117.14820530000001,71.0,86.0
377,116.77252230000002,117.17211240000002,67.0,86.0
378,116.21924370000002,117.51022710000001,52.0,86.0
379,117.00476270000001,117.56487190000001,59.0,86.0
380,117.30189380000002,117.69806860000001,64.0,86.0
381,117.55121070000001,117.80052760000001,67.0,86.0
382,118.15571880000002,118.49383350000002,59.0,86.0
383,118.43918870000002,118.74656570000002,62.0,86.0
384,118.43577340000002,118.78754930000001,66.0,86.0
385,118.43235810000002,118.79096460000001,71.0,86.0
386,117.82785000000001,119.20421590000002,47.0,86.0
387,118.69533620000001,119.22129240000001,59.0,86.0
388,118.99588260000002,119.29642900000002,71.0,86.0
389,118.99929790000002,119.34765850000002,62.0,86.0
390,119.22812300000001,119.44670220000002,66.0,86.0
391,119.79506280000001,120.20831410000001,59.0,86.0
392,120.10927040000001,120.36200260000001,64.0,86.0
393,120.10243980000001,120.41323210000002,71.0,86.0
394,120.10585510000001,120.41664740000002,67.0,86.0
395,120.34151080000001,120.69328670000002,59.0,86.0
396,119.56623770000002,120.73427030000002,52.0,86.0
397,120.62498070000001,120.96309540000001,71.0,86.0
398,120.63181130000001,121.01090960000002,64.0,86.0
399,120.64888780000001,121.01090960000002,67.0,86.0
400,121.44123740000002,121.89547230000002,54.0,86.0
401,121.72129200000002,122.04233020000001,70.0,86.0
402,121.71446140000002,122.05599140000001,61.0,86.0
403,121.99110070000002,122.33604600000001,54.0,86.0
404,122.24041760000001,122.52388750000001,61.0,86.0
405,122.25749410000002,122.54437930000002,65.0,86.0
406,122.24383290000002,122.54779460000002,70.0,86.0
407,121.17142870000002,122.60585470000002,42.0,67.0
408,122.49656510000001,122.64683830000001,54.0,86.0
409,123.02252130000002,123.38112780000002,54.0,86.0
410,123.33672890000001,123.59629170000002,66.0,86.0
411,123.34014420000001,123.59970700000001,61.0,86.0
412,123.32989830000001,123.65435180000001,70.0,86.0
413,122.73563610000002,123.66459770000002,42.0,86.0
414,123.56896930000002,123.86610040000002,54.0,86.0
415,123.86610040000002,124.29301290000002,61.0,86.0
416,124.11541730000002,124.37498010000002,66.0,86.0
417,124.70284890000002,125.08194720000002,59.0,86.0
418,124.97948820000002,125.31077230000001,62.0,86.0
419,124.97607290000002,125.33467940000001,71.0,86.0
420,124.98631880000002,125.35858650000002,66.0,86.0
421,125.52935150000002,125.72060830000002,66.0,86.0
422,124.41254840000002,125.74110010000001,47.0,86.0
423,125.23905100000002,125.85380500000002,59.0,86.0
424,125.77183780000001,126.05189240000001,66.0,86.0
425,125.51569030000002,126.07579950000002,62.0,86.0
426,125.51227500000002,126.12361370000002,71.0,86.0
427,126.30803990000001,126.77252070000002,59.0,59.0
428,126.59834040000001,126.97060810000002,62.0,86.0
429,126.59150980000001,127.00476110000001,71.0,86.0
430,126.60175570000001,127.00817640000001,66.0,86.0
431,126.03481590000001,127.50339490000002,47.0,86.0
432,126.90571740000001,127.57853150000001,59.0,86.0
433,127.19601790000002,127.72880470000001,62.0,86.0
434,127.21650970000002,127.73222000000001,66.0,86.0
435,127.19943320000002,127.74588120000001,71.0,86.0
436,128.07716530000002,128.46650950000003,59.0,86.0
437,128.34014340000002,128.76705590000003,71.0,86.0
438,128.34355870000002,128.7773018,64.0,86.0
439,128.34697400000002,128.7807171,67.0,86.0
440,128.5792144,128.98905040000002,59.0,86.0
441,128.89000670000001,129.1359083,64.0,86.0
442,128.88659140000001,129.29984270000003,67.0,86.0
443,128.89342200000002,129.31008860000003,71.0,86.0
444,127.79369540000002,129.31350390000003,52.0,86.0
445,129.1154165,129.3613181,59.0,86.0
446,129.6208809,129.9794874,59.0,86.0
447,129.9282579,130.2219737,64.0,86.0
448,129.9316732,130.4849518,67.0,86.0
449,129.4227935,130.5054436,52.0,86.0
450,130.18099010000003,130.71036160000003,59.0,86.0
451,129.9248426,130.7889135,71.0,86.0
452,130.4815365,131.00749270000003,64.0,86.0
453,130.73085340000003,131.02798450000003,67.0,86.0
454,131.3490227,131.72129040000002,59.0,86.0
455,131.6120008,131.9057166,62.0,86.0
456,131.6051702,132.04232860000002,71.0,86.0
457,131.6085855,132.11746520000003,66.0,86.0
458,131.00749270000003,132.4658258,47.0,86.0
459,131.85790240000003,132.5170553,59.0,84.0
460,132.37702800000002,132.66391320000002,66.0,86.0
461,132.11404990000003,132.69123560000003,62.0,34.0
462,132.95762900000003,133.30257430000003,59.0,86.0
463,133.23426830000002,133.49041580000002,62.0,86.0
464,133.22402240000002,133.56555240000003,71.0,86.0
465,133.22743770000002,133.6167819,66.0,86.0
466,132.65366730000002,133.9548966,47.0,86.0
467,133.75680920000002,134.04369440000002,71.0,86.0
468,133.44601690000002,134.08467800000003,59.0,86.0
469,133.98904960000002,134.35107140000002,66.0,86.0
470,133.73973270000002,134.61998508125004,62.0,86.0
471,134.50634879375002,134.93081375000003,57.0,86.0
472,134.83388868125004,135.17145530000002,62.0,86.0
473,134.82386195000004,135.23495793125002,66.0,86.0
474,134.82720419375002,135.26169588125003,69.0,86.0
475,134.26910420000002,135.61263147500003,50.0,86.0
476,135.08789920625003,135.62934269375003,57.0,86.0
477,135.38870114375004,135.80982385625003,62.0,86.0
478,135.40207011875003,135.85661526875003,69.0,86.0
479,135.41209685000004,135.87666873125002,66.0,86.0
480,136.18081291250004,136.57853991875004,59.0,84.0
481,136.49498382500002,136.79244351875002,64.0,86.0
482,136.49832606875003,136.85260390625004,67.0,86.0
483,136.49164158125004,136.87265736875003,71.0,86.0
484,137.04311180000002,137.25033091250003,64.0,86.0
485,137.05648077500004,137.26035764375004,67.0,86.0
486,135.92011790000004,137.29043783750004,52.0,86.0
487,136.75902108125004,137.33722925000004,59.0,86.0
488,137.32386027500004,137.58455528750002,67.0,86.0
489,137.31717578750002,137.58789753125004,64.0,86.0
490,137.03642731250002,137.60795099375002,71.0,86.0
491,137.85527703125004,138.66075777500004,58.0,86.0
492,137.57452855625004,139.02840458750003,54.0,86.0
493,138.61062411875002,139.03843131875004,70.0,86.0
494,138.31650666875004,139.04177356250003,66.0,86.0
495,138.87131913125003,139.08856497500003,58.0,67.0
496,138.07920736250003,139.09524946250002,61.0,86.0
497,139.42947383750004,139.81048962500003,58.0,86.0
498,139.72693353125004,140.04444668750003,66.0,86.0
499,139.72359128750003,140.06450015000004,61.0,86.0
500,139.72024904375004,140.10794931875003,70.0,86.0
501,139.17880555625004,140.29511496875003,54.0,86.0
502,139.96423283750002,140.41209350000003,58.0,86.0
503,140.29511496875003,140.57252120000004,70.0,86.0
504,140.29177272500004,140.64939280625003,61.0,86.0
505,140.54912549375004,140.76302909375002,66.0,86.0
506,141.08388449375002,141.46824252500002,59.0,86.0
507,141.37800194375004,141.83923158125003,71.0,86.0
508,141.36797521250003,141.84591606875003,62.0,86.0
509,141.37131745625004,141.84591606875003,66.0,86.0
510,141.62198573750004,142.05981966875004,59.0,86.0
511,141.94952562500004,142.25032756250002,62.0,86.0
512,141.93949889375003,142.26369653750004,66.0,86.0
513,141.94618338125002,142.27372326875002,71.0,86.0
514,140.82987396875004,142.38735955625003,47.0,86.0
515,142.18682493125004,142.44083545625003,59.0,86.0
516,142.73161066250003,143.03909708750004,59.0,86.0
517,142.98562118750004,143.25968517500004,62.0,86.0
518,142.98227894375003,143.29644985625004,66.0,86.0
519,142.97559445625004,143.29644985625004,71.0,86.0
520,143.22292049375002,143.61062076875004,59.0,86.0
521,142.51770706250002,143.87131578125002,47.0,86.0
522,143.52706467500002,143.92813392500003,71.0,86.0
523,143.52038018750002,143.96824085000003,62.0,86.0
524,143.78441744375004,144.01837450625004,59.0,86.0
525,144.34346331875003,144.714990725,59.0,86.0
526,144.87124056875,145.06568481875001,59.0,86.0
527,144.6386019125,145.22887910000003,67.0,86.0
528,144.64554635000002,145.24276797500002,64.0,86.0
529,144.64207413125,145.24276797500002,71.0,86.0
530,145.22193466250002,145.54485100625,59.0,59.0
531,144.07957469375003,145.55526766250003,52.0,86.0
532,145.44762888125,145.74276747500002,64.0,86.0
533,145.4441566625,145.74276747500002,67.0,86.0
534,145.43721222500002,145.7913785375,71.0,86.0
535,145.96151725625003,146.28096138125002,59.0,86.0
536,146.2358225375,146.48235006875,64.0,86.0
537,146.22887810000003,146.5413777875,71.0,86.0
538,146.23235031875,146.5622111,67.0,86.0
539,145.68721197500003,147.03096063125003,52.0,86.0
540,146.45457231875002,147.03790506875,59.0,86.0
541,146.78443310000003,147.1385994125,71.0,86.0
542,146.78096088125002,147.20109935000002,64.0,86.0
543,147.01707175625003,147.28443260000003,67.0,86.0
544,147.61429338125,147.96151525625,57.0,86.0
545,147.89207088125002,148.16984838125,62.0,86.0
546,147.88165422500003,148.20109835000002,66.0,86.0
547,147.88512644375,148.21845944375002,69.0,86.0
548,148.131653975,148.53095913125003,57.0,86.0
549,148.41290369375002,148.770542225,66.0,86.0
550,148.41984813125,148.77748666250002,62.0,86.0
551,147.2913770375,148.9024865375,50.0,86.0
552,148.69068119375,148.91637541250003,57.0,86.0
553,148.40943147500002,148.95456981875003,69.0,86.0
554,149.23234731875002,149.64206913125003,56.0,86.0
555,149.54137478750002,149.91984663125,65.0,86.0
556,149.53790256875,149.93373550625003,61.0,86.0
557,149.53443035,149.937207725,68.0,86.0
558,150.11776310000002,150.3608184125,65.0,86.0
559,148.9997086625,150.381651725,49.0,86.0
560,150.11429088125,150.40595725625002,68.0,86.0
561,149.826096725,150.45456831875003,56.0,86.0
562,150.1108186625,150.52748491250003,61.0,86.0
563,150.66984588125,151.33303966250003,66.0,86.0
564,150.67679031875002,151.34345631875001,70.0,86.0
565,151.21498422500002,151.36776185000002,58.0,59.0
566,150.6663736625,151.37123406875003,61.0,86.0
567,150.65248478750001,151.38165072500001,54.0,86.0
568,151.5135950375,151.59692828750002,54.0,86.0
569,151.492761725,151.60040050625003,70.0,86.0
570,151.48581728750003,151.60387272500003,66.0,86.0
571,151.48928950625003,151.61428938125002,61.0,86.0
572,151.50665060000003,151.62123381875003,58.0,86.0
573,151.7844281,151.88165022500002,66.0,86.0
574,151.77053922500002,151.88512244375002,54.0,86.0
575,151.77748366250003,151.88512244375002,58.0,86.0
576,151.78790031875002,151.88512244375002,61.0,86.0
577,151.78095588125,151.8955391,70.0,86.0
578,152.03442785000001,152.13164997500002,58.0,86.0
579,152.04137228750002,152.13512219375002,54.0,86.0
580,152.03095563125,152.13512219375002,66.0,86.0
581,152.02053897500002,152.13512219375002,70.0,86.0
582,152.02748341250003,152.13859441250003,61.0,86.0
583,152.33651088125,152.55526066250002,54.0,86.0
584,152.3191497875,152.5691495375,66.0,86.0
585,152.32609422500002,152.58651063125,61.0,86.0
586,152.32262200625001,152.58651063125,70.0,86.0
587,152.33303866250003,152.6247050375,58.0,86.0
588,153.09692678750002,153.19067669375002,70.0,86.0
589,153.10039900625003,153.19414891250003,66.0,86.0
590,153.09345456875002,153.19762113125003,61.0,86.0
591,153.11081566250002,153.20456556875,54.0,86.0
592,153.10734344375,153.21498222500003,58.0,86.0
593,153.40248203750002,153.47887085000002,70.0,86.0
594,153.40942647500003,153.48581528750003,66.0,86.0
595,153.40595425625003,153.492759725,61.0,86.0
596,153.41289869375,153.49970416250002,54.0,86.0
597,153.41984313125002,153.5066486,58.0,86.0
598,153.64900956875002,153.73928725625,58.0,86.0
599,153.64206513125,153.742759475,54.0,86.0
600,153.66637066250001,153.742759475,66.0,86.0
601,153.65942622500003,153.74623169375002,61.0,86.0
602,153.66289844375,153.74623169375002,70.0,86.0
603,153.96150925625003,156.69348570833336,54.0,86.0
604,153.96845369375,156.72986135625004,66.0,86.0
605,153.95803703750002,156.73978198750004,70.0,86.0
606,153.95456481875001,156.75300949583337,58.0,86.0
607,153.9719259125,156.75962325000003,61.0,86.0
608,157.47721557708337,157.85419956458335,59.0,86.0
609,157.76491388333335,158.2047285354167,71.0,86.0
610,157.76160700625002,158.20803541250004,66.0,86.0
611,157.7682207604167,158.22787667500003,62.0,86.0
612,157.9963952791667,158.4428236854167,59.0,84.0
613,158.35023112708336,158.63462255625004,62.0,86.0
614,158.3436173729167,158.64785006458337,66.0,86.0
615,158.34692425000003,158.66438445000003,71.0,86.0
616,157.22919979583335,158.70406697500002,47.0,86.0
617,158.58832627708335,158.75697700833337,59.0,86.0
618,159.0777440854167,159.4547280729167,59.0,86.0
619,159.37866990000003,159.69943697708337,62.0,86.0
620,159.3753630229167,159.69943697708337,66.0,86.0
621,159.37205614583337,159.7126644854167,71.0,86.0
622,159.6233788041667,160.04335219375002,59.0,86.0
623,159.93422525000003,160.29136797500004,66.0,86.0
624,159.92430461875003,160.2979817291667,71.0,86.0
625,159.92761149583336,160.30128860625004,62.0,86.0
626,158.83303518125004,160.34097113125003,47.0,86.0
627,160.19216166250004,160.36081239375002,59.0,86.0
628,160.70948363541672,161.0465622354167,59.0,86.0
629,161.0044274104167,161.33448353958337,64.0,86.0
630,161.00793864583338,161.38012960000003,67.0,86.0
631,161.00091617500004,161.38715207083337,71.0,86.0
632,161.5837812541667,161.75583178958337,67.0,86.0
633,161.25021388958336,161.79094414375004,59.0,86.0
634,160.4672083916667,161.84361267500003,52.0,86.0
635,161.58027001875004,161.95597220833338,64.0,86.0
636,161.57675878333336,161.95948344375003,71.0,86.0
637,161.81201155625004,162.09642162500003,67.0,86.0
638,162.3878541645834,162.79866870833337,59.0,84.0
639,162.70386535208337,162.98827542083336,64.0,86.0
640,162.69684288125003,163.00934283333336,67.0,86.0
641,162.70035411666672,163.02338777500003,71.0,86.0
642,162.9426293604167,163.4903820854167,59.0,86.0
643,162.0788654479167,163.55709555833337,52.0,86.0
644,163.23055066458338,163.72914609375005,71.0,86.0
645,163.46580343750003,163.73967980000003,67.0,86.0
646,163.22352819375004,163.75021350625005,64.0,86.0
647,164.04164604583337,164.39979205833336,59.0,77.0
648,164.34010105625003,164.66313471458338,62.0,86.0
649,164.34361229166672,164.6806908916667,66.0,86.0
650,164.3330785854167,164.6806908916667,71.0,86.0
651,164.87732007500003,165.0177694916667,66.0,86.0
652,163.7747921541667,165.17226385000004,47.0,86.0
653,164.59291000625004,165.26706720625003,59.0,86.0
654,165.11608408333336,165.43209527083337,66.0,86.0
655,164.87380883958338,165.4426289770834,62.0,86.0
656,164.86678636875004,165.44614021250004,71.0,86.0
657,165.6497918666667,165.75161769375003,59.0,52.0
658,165.91664575833337,166.30990412500003,62.0,86.0
659,165.90962328750004,166.30990412500003,66.0,86.0
660,165.91313452291672,166.32043783125005,71.0,86.0
661,166.2291457104167,166.51355577916672,59.0,86.0
662,165.40751662291672,166.83307820208339,50.0,86.0
663,166.7382748458334,166.9454377354167,59.0,86.0
664,166.49951083750005,166.95597144166672,62.0,86.0
665,166.49599960208337,167.01215120833336,66.0,86.0
666,166.49248836666672,167.11748827083338,71.0,86.0
667,167.28434331875002,167.6976223854167,57.0,86.0
668,167.5756711854167,167.90764945208338,69.0,86.0
669,167.58244625208337,167.9110369854167,64.0,86.0
670,167.5858337854167,167.91442451875002,61.0,86.0
671,167.86361151875002,168.31415345208336,57.0,86.0
672,167.02619615000003,168.36157891875004,52.0,86.0
673,168.12106405208337,168.49708025208338,61.0,86.0
674,168.1244515854167,168.6833945854167,64.0,86.0
675,168.11767651875005,168.7443701854167,69.0,86.0
676,168.9069717854167,169.3134757854167,57.0,86.0
677,169.18474951875004,169.54382805208337,62.0,86.0
678,169.1813619854167,169.55060311875002,69.0,86.0
679,169.18813705208336,169.5675407854167,66.0,86.0
680,169.4557521854167,169.81483071875004,57.0,86.0
681,168.65968185208337,170.10277105208337,50.0,86.0
682,169.74030498541669,170.2890853854167,69.0,86.0
683,169.74708005208336,170.32634825208336,66.0,86.0
684,169.7504675854167,170.34667345208337,62.0,86.0
685,170.0146951854167,170.37716125208337,57.0,86.0
686,170.57025065208336,170.9496543854167,59.0,86.0
687,170.83447825208336,171.15629391875004,62.0,86.0
688,170.82431565208336,171.15968145208336,71.0,86.0
689,170.8378657854167,171.16984405208336,66.0,86.0
690,171.3968087854167,171.8744509854167,66.0,86.0
691,171.38325865208336,171.87783851875002,71.0,86.0
692,171.39342125208336,171.8846135854167,62.0,86.0
693,170.32634825208336,171.88800111875003,47.0,86.0
694,171.08515571875003,171.9151013854167,59.0,86.0
695,172.4435565854167,172.74504705208338,62.0,86.0
696,172.4333939854167,172.77553485208335,71.0,86.0
697,172.44016905208338,172.7789223854167,66.0,86.0
698,172.7077841854167,173.11090065208336,59.0,86.0
699,171.9151013854167,173.42594125208336,54.0,86.0
700,173.01604971875003,173.45642905208337,62.0,86.0
701,173.2768897854167,173.5207921854167,59.0,86.0
702,173.0126621854167,173.52417971875002,66.0,86.0
703,173.00588711875002,173.57838025208338,71.0,86.0
704,173.82228265208337,174.2118489854167,59.0,86.0
705,174.12716065208338,174.45913891875003,64.0,86.0
706,174.11699805208337,174.47946411875003,67.0,86.0
707,174.12377311875002,174.48285165208335,71.0,86.0
708,174.37783811875002,174.72336651875003,59.0,86.0
709,173.56821765208338,175.07228245208336,52.0,86.0
710,174.69626625208338,175.0959951854167,64.0,86.0
711,174.95033125208337,175.1366455854167,59.0,86.0
712,174.68610365208337,175.1366455854167,67.0,86.0
713,174.69287871875002,175.1569707854167,71.0,86.0
714,175.48556151875005,175.83108991875002,59.0,86.0
715,175.75995171875005,176.0512795854167,64.0,86.0
716,175.7565641854167,176.06821725208337,67.0,86.0
717,175.76333925208337,176.07837985208337,71.0,86.0
718,175.99707905208336,176.44084591875003,59.0,86.0
719,175.2077837854167,176.67797325208338,52.0,86.0
720,176.30195705208337,176.7016859854167,64.0,86.0
721,176.31889471875004,176.71523611875003,67.0,86.0
722,176.57634725208337,176.7321737854167,59.0,86.0
723,176.29856951875004,176.77621171875003,71.0,86.0
724,177.11496505208336,177.52824411875002,58.0,86.0
725,177.37919265208336,177.71117091875004,70.0,86.0
726,177.3825801854167,177.73149611875004,61.0,86.0
727,177.37580511875004,177.73488365208337,66.0,86.0
728,177.67052051875004,178.02621151875005,58.0,86.0
729,177.92797305208336,178.28366405208337,61.0,86.0
730,176.82363718541671,178.2870515854167,54.0,86.0
731,177.91781045208336,178.30398925208337,70.0,86.0
732,177.9211979854167,178.3175393854167,66.0,86.0
733,178.1854255854167,178.41577785208338,58.0,86.0
734,178.71049325208338,179.09667205208336,58.0,86.0
735,178.99504605208335,179.24572351875003,66.0,86.0
736,178.99165851875003,179.26604871875003,70.0,86.0
737,179.00182111875003,179.26943625208338,61.0,86.0
738,179.2524985854167,179.58108931875003,58.0,86.0
739,179.5268887854167,179.8114415854167,66.0,86.0
740,179.52011371875003,179.82499171875003,61.0,86.0
741,178.4801409854167,179.84531691875003,54.0,86.0
742,179.5167261854167,179.8520919854167,70.0,86.0
743,179.77417871875002,179.93678031875004,58.0,86.0
744,180.34667185208338,180.7362381854167,59.0,86.0
745,180.62783711875002,180.96320291875003,62.0,86.0
746,180.61767451875002,180.9699779854167,71.0,86.0
747,180.6244495854167,180.97336551875003,66.0,86.0
748,180.8785145854167,181.41374485208337,59.0,86.0
749,181.19016765208337,181.47133291875002,62.0,86.0
750,181.18678011875002,181.4781079854167,66.0,86.0
751,181.1833925854167,181.4882705854167,71.0,86.0
752,180.09938191875003,181.55602125208338,47.0,86.0
753,181.45100771875002,181.6203843854167,59.0,86.0
754,181.95236265208337,182.35886665208338,59.0,86.0
755,182.2606281854167,182.4537175854167,62.0,86.0
756,182.25724065208337,182.46726771875004,66.0,86.0
757,182.25385311875004,182.47065525208336,71.0,86.0
758,181.7220103854167,182.51808071875004,47.0,86.0
759,182.78569585208336,182.9821727854167,62.0,86.0
760,182.7789207854167,182.99911045208336,71.0,86.0
761,182.79247091875004,183.00588551875003,47.0,86.0
762,182.7890833854167,183.00927305208336,66.0,86.0
763,182.77553325208336,183.02959825208336,59.0,86.0
764,183.6630669854167,184.0492457854167,59.0,86.0
765,183.94423225208337,184.3033107854167,71.0,86.0
766,183.9577823854167,184.31008585208338,62.0,86.0
767,183.95439485208337,184.3134733854167,66.0,86.0
768,184.18474711875004,184.5675383854167,59.0,86.0
769,183.4293271854167,184.85886625208337,47.0,86.0
770,184.47268745208336,184.85886625208337,66.0,86.0
771,184.46929991875004,184.86902885208337,62.0,86.0
772,184.4557497854167,184.8927415854167,71.0,86.0
773,184.73352751875004,184.9333919854167,59.0,86.0
774,185.25182011875003,185.6244487854167,59.0,86.0
775,185.5736357854167,185.87512625208336,62.0,86.0
776,185.57024825208336,185.87851378541671,66.0,86.0
777,185.5634731854167,185.88867638541672,71.0,86.0
778,185.83108831875003,186.18000425208336,59.0,86.0
779,185.00791771875004,186.44423185208336,47.0,86.0
780,186.34938091875003,186.66442151875003,59.0,86.0
781,186.1020909854167,186.66780905208338,66.0,86.0
782,186.09870345208338,186.69490931875004,62.0,86.0
783,186.0919283854167,186.72878465208336,71.0,86.0
784,186.89816131875003,187.26401491875004,59.0,86.0
785,187.1894891854167,187.50791731875003,64.0,86.0
786,187.1793265854167,187.51807991875003,71.0,86.0
787,187.18610165208338,187.52824251875003,67.0,86.0
788,187.41645391875005,187.79247011875003,59.0,86.0
789,186.64748385208338,188.0126597854167,52.0,86.0
790,187.69084411875002,188.05669771875003,64.0,86.0
791,187.6874565854167,188.17526138541672,71.0,86.0
792,187.68406905208337,188.2159117854167,67.0,86.0
793,188.53772745208337,188.9374563854167,59.0,86.0
794,188.8561555854167,189.13393331875002,64.0,86.0
795,188.85276805208338,189.14748345208338,67.0,86.0
796,188.84938051875002,189.1610335854167,71.0,86.0
797,189.1102205854167,189.43881131875003,59.0,86.0
798,188.18881151875004,189.68610125208338,52.0,86.0
799,189.60480045208337,189.7809521854167,59.0,86.0
800,189.3642855854167,189.79450231875003,67.0,86.0
801,189.3744481854167,189.79788985208336,64.0,86.0
802,189.36767311875005,189.82837765208336,71.0,86.0
803,190.15358085208337,190.59057265208338,57.0,86.0
804,190.48555911875005,190.78027451875005,69.0,86.0
805,190.4821715854167,190.7870495854167,64.0,86.0
806,190.4923341854167,190.8073747854167,61.0,86.0
807,190.72268645208337,191.1325779854167,57.0,86.0
808,189.9333911854167,191.31211725208337,45.0,86.0
809,190.99707665208336,191.40358065208338,64.0,86.0
810,190.99368911875004,191.4476185854167,61.0,86.0
811,191.00385171875004,191.4577811854167,69.0,86.0
812,191.75588411875003,192.1590005854167,57.0,84.0
813,192.07092471875004,192.36564011875004,64.0,86.0
814,192.0675371854167,192.37919025208336,69.0,86.0
815,192.07431225208336,192.38257778541671,61.0,86.0
816,192.33515231875003,192.67390565208336,57.0,86.0
817,191.5085941854167,192.95845845208336,45.0,86.0
818,192.6366427854167,193.0634719854167,64.0,86.0
819,192.8805451854167,193.08718471875005,57.0,86.0
820,192.62986771875003,193.09057225208338,61.0,86.0
821,192.6264801854167,193.14816031875003,69.0,86.0
822,193.3988377854167,193.82905451875004,54.0,86.0
823,193.71049085208338,194.12715745208337,66.0,86.0
824,193.70032825208338,194.13732005208337,70.0,86.0
825,193.70710331875003,194.15425771875005,61.0,86.0
826,193.14816031875003,194.53366145208338,42.0,86.0
827,193.9476181854167,194.70303811875004,54.0,86.0
828,194.2626587854167,195.0197958604167,66.0,86.0
829,194.26604631875003,195.14444953541673,61.0,86.0
830,194.25588371875003,195.1617625458334,70.0,86.0
831,195.07519749375004,195.45954632500005,54.0,86.0
832,195.35566826250005,195.5980504083334,66.0,86.0
833,195.35220566041673,195.6015130104167,61.0,86.0
834,195.34874305833338,195.65691464375004,70.0,86.0
835,195.6015130104167,196.01702526041672,54.0,86.0
836,194.8189649395834,196.20054317083338,42.0,86.0
837,196.1416789354167,196.33904725416673,54.0,86.0
838,195.88198377916672,196.39444888750006,61.0,86.0
839,195.88544638125006,196.39444888750006,66.0,86.0
840,195.87852117708337,196.4844765416667,70.0,86.0
841,196.74417169791673,197.11467012083338,59.0,86.0
842,197.01079205833338,197.33973925625006,71.0,86.0
843,197.01771726250004,197.34666446041672,62.0,86.0
844,197.01425466041673,197.36051486875004,66.0,86.0
845,197.51979456458338,197.72755068958338,71.0,86.0
846,197.52671976875004,197.7414010979167,62.0,86.0
847,197.5301823708334,197.76217671041672,66.0,86.0
848,196.47062613333338,197.9456946208334,47.0,86.0
849,197.2635620104167,198.03225967291672,59.0,86.0
850,197.85220436458337,198.07381089791673,66.0,86.0
851,197.85912956875006,198.0841987041667,62.0,86.0
852,197.86259217083338,198.09804911250006,71.0,86.0
853,198.32658085000006,198.71092968125006,59.0,86.0
854,198.61743942500004,198.91176060208338,62.0,86.0
855,198.60358901666672,198.93946141875006,71.0,86.0
856,198.61051422083338,198.95331182708338,66.0,86.0
857,198.85635896875004,199.24763300416672,59.0,86.0
858,199.17838096250006,199.56619239583338,62.0,86.0
859,199.1749183604167,199.56619239583338,66.0,86.0
860,199.1714557583334,199.5765802020834,71.0,86.0
861,198.10151171458338,199.60081841666673,47.0,86.0
862,199.43115091458338,199.62159402916672,59.0,86.0
863,199.9540038291667,200.30372663958337,59.0,34.0
864,200.24486240416672,200.55995919375005,64.0,86.0
865,200.23793720000006,200.57034700000006,67.0,86.0
866,200.24139980208338,200.58419740833338,71.0,86.0
867,200.4907071520834,200.8785185854167,59.0,86.0
868,200.76771531875005,200.9096820041667,67.0,86.0
869,199.69430867291672,201.1035877208334,52.0,86.0
870,200.75732751250004,201.11051292500005,71.0,86.0
871,200.7607901145834,201.16937716041673,64.0,86.0
872,201.0135600666667,201.26979262083339,67.0,86.0
873,201.56411379791672,201.97270084375006,59.0,84.0
874,201.9242244145834,202.21854559166673,64.0,86.0
875,201.92076181250005,202.22200819375004,67.0,86.0
876,201.9276870166667,202.24278380625006,71.0,86.0
877,202.1943073770834,202.4955537583334,59.0,86.0
878,202.4747781458334,202.8106505479167,67.0,86.0
879,202.4678529416667,202.81411315000005,64.0,86.0
880,201.30441864166673,202.8418139666667,52.0,86.0
881,202.4643903395834,202.8695147833334,71.0,86.0
882,202.72408549583338,202.8833651916667,59.0,86.0
883,203.29541483958337,203.67283846666672,54.0,86.0
884,203.57588560833338,203.88405719375004,66.0,86.0
885,203.56896040416672,203.91522061250006,70.0,86.0
886,203.56549780208337,203.9602344395834,61.0,86.0
887,203.8355807645834,204.25455561666672,54.0,86.0
888,203.00455626458339,204.49693776250004,42.0,86.0
889,204.39998490416673,204.62159143750006,54.0,86.0
890,204.14375235000006,204.63890444791673,66.0,86.0
891,204.13336454375005,204.67006786666673,61.0,86.0
892,204.1368271458334,204.72893210208338,70.0,86.0
893,204.92283781875005,205.29679884375005,54.0,86.0
894,205.22408420000005,205.48724195833339,66.0,86.0
895,205.2275468020834,205.5010923666667,61.0,86.0
896,205.2171589958334,205.52186797916673,70.0,86.0
897,205.49070456041673,205.8404273708334,54.0,86.0
898,204.67353046875004,206.08973472083338,42.0,86.0
899,205.79541354375004,206.13128594583338,66.0,86.0
900,205.7988761458334,206.19361278333338,61.0,86.0
901,206.04818349583337,206.23516400833338,54.0,86.0
902,205.79195094166673,206.26632742708338,70.0,86.0
903,206.63592776250005,206.95344091875006,59.0,86.0
904,206.86654258125006,207.22082041875007,71.0,86.0
905,206.87322706875005,207.22750490625006,62.0,86.0
906,206.86988482500004,207.25090061250006,66.0,86.0
907,207.13057983750005,207.50825338125006,59.0,34.0
908,206.38751850000006,207.76894839375007,47.0,86.0
909,207.40798606875006,207.77563288125006,66.0,86.0
910,207.41467055625006,207.78900185625005,62.0,86.0
911,207.41132831250005,207.83913551250006,71.0,86.0
912,207.65865435000006,207.91934936250004,59.0,86.0
913,208.22349354375007,208.54769118750005,59.0,86.0
914,208.48753080000006,208.75156805625005,62.0,86.0
915,208.48084631250006,208.77830600625006,71.0,86.0
916,208.48418855625005,208.78164825000005,66.0,86.0
917,208.71814561875004,209.04568550625007,59.0,86.0
918,209.02228980000007,209.29635378750007,62.0,86.0
919,209.01894755625005,209.30638051875005,66.0,86.0
920,209.01226306875006,209.32977622500005,71.0,86.0
921,207.95277180000005,209.38659436875005,47.0,86.0
922,209.24956237500007,209.42335905000004,59.0,86.0
923,209.60718245625006,209.86119298125004,66.0,86.0
924,209.61052470000004,209.87456195625006,71.0,86.0
925,209.61386694375005,209.87790420000005,62.0,86.0
926,209.62389367500006,209.92803785625006,47.0,86.0
927,209.62055143125005,209.93138010000004,59.0,86.0
928,210.03833190000006,210.09849228750005,66.0,86.0
929,210.04835863125007,210.11520350625005,62.0,86.0
930,210.04501638750006,210.11520350625005,71.0,86.0
931,210.19207511250005,210.24220876875006,66.0,86.0
932,210.18204838125004,210.25223550000004,62.0,86.0
933,210.18539062500005,210.25223550000004,71.0,86.0
934,210.05838536250005,210.26226223125005,59.0,86.0
935,210.06506985000004,210.28565793750005,47.0,86.0
936,210.42603217500005,210.48953480625005,66.0,86.0
937,210.42937441875006,210.49956153750006,62.0,86.0
938,210.43271666250004,210.50290378125004,71.0,86.0
939,210.41266320000005,210.50958826875006,47.0,86.0
940,210.41934768750005,210.51627275625006,59.0,86.0
941,210.68338494375004,210.76359879375005,62.0,86.0
942,210.67670045625005,210.76359879375005,71.0,86.0
943,210.67335821250006,210.76694103750006,66.0,86.0
944,210.65998923750004,210.77362552500006,47.0,86.0
945,210.66333148125005,210.77362552500006,59.0,86.0
946,210.90731527500006,211.00089810000006,47.0,86.0
947,210.92068425000005,211.00758258750005,66.0,86.0
948,210.90063078750006,211.01426707500005,59.0,86.0
949,210.93071098125006,211.01426707500005,62.0,86.0
950,210.92736873750005,211.01426707500005,71.0,86.0
951,211.21814394375005,211.31841125625004,66.0,86.0
952,211.21480170000007,211.33178023125006,62.0,86.0
953,211.21145945625005,211.33846471875006,71.0,86.0
954,211.19809048125006,211.34514920625006,47.0,86.0
955,211.20477496875006,211.35517593750006,59.0,86.0
956,211.61252870625006,211.67268909375005,66.0,86.0
957,211.61587095000004,211.68271582500006,62.0,86.0
958,211.60250197500005,211.68940031250006,71.0,86.0
959,211.76961416250006,211.83980128125006,66.0,86.0
960,211.76292967500007,211.83980128125006,71.0,86.0
961,211.61921319375006,211.84314352500004,59.0,86.0
962,211.76627191875005,211.84314352500004,62.0,86.0
963,211.60584421875006,211.85317025625005,47.0,86.0
964,212.03699366250007,212.09715405000006,66.0,86.0
965,212.02028244375006,212.10383853750005,59.0,86.0
966,212.03030917500004,212.10383853750005,62.0,86.0
967,212.02696693125006,212.10718078125007,71.0,86.0
968,212.02362468750005,212.11052302500005,47.0,86.0
969,212.28097745625004,212.35450681875005,66.0,86.0
970,212.28431970000005,212.36119130625005,62.0,86.0
971,212.25423950625006,212.36453355000006,59.0,86.0
972,212.27429296875005,212.36453355000006,71.0,86.0
973,212.25758175000004,212.36787579375004,47.0,86.0
974,212.53833022500007,212.61854407500005,62.0,86.0
975,212.54167246875005,212.61854407500005,66.0,86.0
976,212.52161900625006,212.62857080625005,47.0,86.0
977,212.53164573750004,212.63859753750006,71.0,86.0
978,212.51827676250005,212.66867773125006,59.0,86.0
979,212.82576318750006,212.92937274375006,67.0,86.0
980,212.81907870000006,212.92937274375006,71.0,86.0
981,212.82910543125004,212.94274171875006,64.0,86.0
982,212.83578991875007,212.99621761875005,52.0,86.0
983,212.83913216250005,213.03298230000004,59.0,86.0
984,213.25022814375006,213.31373077500007,67.0,86.0
985,213.25691263125006,213.31707301875005,71.0,86.0
986,213.25357038750005,213.32375750625005,64.0,86.0
987,213.24688590000005,213.32709975000006,52.0,86.0
988,213.39060238125006,213.45744725625005,67.0,86.0
989,213.38057565000005,213.46078950000006,52.0,86.0
990,213.39394462500005,213.46747398750006,64.0,86.0
991,213.40062911250004,213.46747398750006,71.0,86.0
992,213.24020141250006,213.48084296250005,59.0,86.0
993,213.66466636875006,213.72816900000007,67.0,86.0
994,213.65463963750005,213.73151124375005,52.0,86.0
995,213.64795515000006,213.73151124375005,59.0,86.0
996,213.65463963750005,213.73151124375005,71.0,86.0
997,213.66132412500005,213.73485348750006,64.0,86.0
998,213.90530791875005,213.99889074375005,52.0,86.0
999,213.92870362500005,214.00557523125005,64.0,86.0
1000,213.92201913750006,214.00557523125005,67.0,86.0
1001,213.91199240625005,214.00891747500006,59.0,86.0
1002,213.91867689375005,214.00891747500006,71.0,86.0
1003,214.16934517500005,214.24621678125004,52.0,86.0
1004,214.16600293125006,214.25624351250005,59.0,86.0
1005,214.18271415000007,214.25624351250005,67.0,86.0
1006,214.18605639375005,214.25958575625006,64.0,86.0
1007,214.17937190625005,214.25958575625006,71.0,86.0
1008,214.45343589375005,214.54701871875005,52.0,86.0
1009,214.45009365000004,214.55370320625005,59.0,86.0
1010,214.46346262500006,214.55704545000006,67.0,86.0
1011,214.46680486875005,214.56038769375004,64.0,86.0
1012,214.46012038125005,214.56038769375004,71.0,86.0
1013,214.86453187500007,214.91800777500006,67.0,86.0
1014,214.85784738750004,214.92803450625004,52.0,86.0
1015,214.87121636250006,214.92803450625004,64.0,86.0
1016,214.86787411875005,214.92803450625004,71.0,86.0
1017,214.85450514375006,214.94474572500005,59.0,86.0
1018,214.98819489375006,215.06506650000006,52.0,86.0
1019,214.98485265000005,215.07843547500005,59.0,86.0
1020,215.01827508750006,215.07843547500005,67.0,86.0
1021,215.01159060000006,215.08511996250004,64.0,86.0
1022,215.01493284375005,215.08846220625006,71.0,86.0
1023,215.29233907500006,215.34247273125004,67.0,86.0
1024,215.27228561250004,215.34915721875007,52.0,86.0
1025,215.28899683125005,215.34915721875007,64.0,86.0
1026,215.28231234375005,215.34915721875007,71.0,86.0
1027,215.27897010000007,215.35584170625006,59.0,86.0
1028,215.54300735625006,215.60650998750006,64.0,86.0
1029,215.53632286875006,215.60650998750006,67.0,86.0
1030,215.51961165000006,215.60985223125004,52.0,86.0
1031,215.53298062500005,215.60985223125004,71.0,86.0
1032,215.52629613750005,215.61319447500006,59.0,86.0
1033,215.81038685625006,215.87723173125005,64.0,86.0
1034,215.79367563750006,215.88057397500006,52.0,86.0
1035,215.80370236875007,215.88057397500006,67.0,86.0
1036,215.80036012500005,215.88391621875004,71.0,86.0
1037,215.78699115000006,215.90062743750005,59.0,86.0
1038,216.08285931875005,216.19140271875006,66.0,86.0
1039,216.07235511875007,216.20190691875007,61.0,86.0
1040,216.07935791875005,216.20190691875007,70.0,86.0
1041,216.06885371875006,216.22991811875005,54.0,86.0
1042,216.08636071875006,216.23341951875005,42.0,86.0
1043,216.51703291875006,216.54504411875007,66.0,86.0
1044,216.51353151875006,216.57305531875005,61.0,86.0
1045,216.50652871875005,216.57305531875005,70.0,86.0
1046,216.50302731875007,216.57655671875006,42.0,86.0
1047,216.49952591875007,216.58706091875007,54.0,86.0
1048,216.63958191875005,216.72011411875005,54.0,86.0
1049,216.66409171875006,216.72011411875005,66.0,86.0
1050,216.65708891875005,216.72361551875005,61.0,86.0
1051,216.64308331875006,216.72711691875006,42.0,86.0
1052,216.66059031875005,216.72711691875006,70.0,86.0
1053,216.91269111875005,216.95470791875005,66.0,86.0
1054,216.89518411875005,216.96871351875006,42.0,86.0
1055,216.89868551875006,216.96871351875006,54.0,86.0
1056,216.90918971875007,216.97221491875007,61.0,86.0
1057,216.90218691875006,216.97921771875005,70.0,86.0
1058,217.18580031875007,217.23832131875005,66.0,86.0
1059,217.17879751875006,217.25232691875007,61.0,86.0
1060,217.17529611875005,217.25232691875007,70.0,86.0
1061,217.17179471875005,217.25582831875005,54.0,86.0
1062,217.16829331875005,217.25932971875005,42.0,86.0
1063,217.44840531875005,217.50792911875007,66.0,86.0
1064,217.43439971875006,217.51143051875005,54.0,86.0
1065,217.44140251875007,217.51143051875005,61.0,86.0
1066,217.43790111875006,217.51493191875005,42.0,86.0
1067,217.44490391875007,217.51843331875006,70.0,86.0
1068,217.73902151875006,217.80204671875006,66.0,86.0
1069,217.73201871875006,217.81255091875005,61.0,86.0
1070,217.72501591875005,217.82305511875006,42.0,86.0
1071,217.71801311875006,217.82305511875006,54.0,86.0
1072,217.72851731875005,217.82305511875006,70.0,86.0
1073,218.14168251875006,218.18369931875006,66.0,86.0
1074,218.13117831875005,218.19070211875007,70.0,86.0
1075,218.13467971875005,218.19420351875007,61.0,86.0
1076,218.14518391875006,218.19770491875005,42.0,86.0
1077,218.13818111875005,218.20470771875006,54.0,86.0
1078,218.29224271875006,218.33776091875006,66.0,86.0
1079,218.28874131875006,218.34126231875007,70.0,86.0
1080,218.27123431875006,218.34476371875004,54.0,86.0
1081,218.28523991875005,218.34476371875004,61.0,86.0
1082,218.27823711875007,218.34826511875005,42.0,86.0
1083,218.55134631875006,218.60036591875007,66.0,86.0
1084,218.54784491875006,218.60736871875005,61.0,86.0
1085,218.55484771875007,218.61437151875006,42.0,86.0
1086,218.56185051875005,218.61437151875006,54.0,86.0
1087,218.54434351875005,218.61787291875007,70.0,86.0
1088,218.81745271875005,218.86297091875005,66.0,86.0
1089,218.81395131875007,218.86997371875006,61.0,86.0
1090,218.80344711875006,218.87697651875007,54.0,86.0
1091,218.79994571875005,218.88047791875005,42.0,86.0
1092,218.80694851875006,218.88397931875005,70.0,86.0
1093,219.04854511875007,219.12907731875006,42.0,86.0
1094,219.08005771875006,219.13257871875007,66.0,86.0
1095,219.07655631875005,219.13608011875007,61.0,86.0
1096,219.04504371875007,219.13958151875005,54.0,86.0
1097,219.07305491875005,219.14308291875005,70.0,86.0
1098,219.36717251875007,219.43369911875007,61.0,86.0
1099,219.36367111875006,219.43369911875007,66.0,86.0
1100,219.36016971875006,219.43369911875007,70.0,86.0
1101,219.34616411875007,219.44770471875006,42.0,86.0
1102,219.34966551875007,219.45470751875007,54.0,86.0
1103,219.75582791875007,219.78734051875006,66.0,86.0
1104,219.75232651875007,219.80484751875005,61.0,86.0
1105,219.74532371875006,219.80834891875006,42.0,86.0
1106,219.74182231875005,219.81185031875006,54.0,86.0
1107,219.74882511875006,219.81885311875007,70.0,86.0
1108,219.90638811875007,219.94840491875007,66.0,86.0
1109,219.88187831875007,219.95190631875005,42.0,86.0
1110,219.89588391875006,219.95190631875005,61.0,86.0
1111,219.87487551875006,219.95890911875006,54.0,86.0
1112,219.89938531875006,219.95890911875006,70.0,86.0
1113,220.18299871875007,220.22151411875006,66.0,86.0
1114,220.17949731875007,220.23201831875005,42.0,86.0
1115,220.16549171875005,220.23551971875006,54.0,86.0
1116,220.17249451875006,220.23551971875006,61.0,86.0
1117,220.16899311875005,220.24252251875006,70.0,86.0
1118,220.43860091875007,220.48762051875005,66.0,86.0
1119,220.42459531875005,220.49112191875005,61.0,86.0
1120,220.42109391875005,220.49462331875006,54.0,86.0
1121,220.43509951875006,220.49812471875006,42.0,86.0
1122,220.43159811875006,220.50162611875007,70.0,86.0
1123,220.69770451875007,220.76072971875007,42.0,86.0
1124,220.71171011875006,220.76072971875007,66.0,86.0
1125,220.69070171875006,220.76423111875005,54.0,86.0
1126,220.70820871875006,220.76423111875005,61.0,86.0
1127,220.70470731875005,220.77473531875006,70.0,86.0
1128,220.99182211875006,221.05484731875006,61.0,86.0
1129,220.99532351875007,221.05484731875006,66.0,86.0
1130,220.98481931875006,221.05834871875007,42.0,86.0
1131,220.97781651875005,221.06535151875005,54.0,86.0
1132,220.98832071875006,221.06535151875005,70.0,86.0
1133,221.38397891875005,221.42249431875007,66.0,86.0
1134,221.36997331875006,221.42949711875005,61.0,86.0
1135,221.37697611875006,221.43649991875006,42.0,86.0
1136,221.37347471875006,221.43649991875006,54.0,86.0
1137,221.36647191875005,221.43649991875006,70.0,86.0
1138,221.53804051875005,221.60106571875005,42.0,86.0
1139,221.56955311875006,221.60106571875005,66.0,86.0
1140,221.52753631875007,221.60806851875006,54.0,86.0
1141,221.56605171875006,221.61507131875007,61.0,86.0
1142,221.55904891875005,221.62907691875006,70.0,86.0
1143,221.83215811875004,221.86717211875006,66.0,86.0
1144,221.82865671875007,221.87767631875005,61.0,86.0
1145,221.82165391875006,221.88117771875005,42.0,86.0
1146,221.83565951875005,221.88117771875005,54.0,86.0
1147,221.81815251875005,221.89518331875007,70.0,86.0
1148,222.09476311875005,222.14378271875006,66.0,86.0
1149,222.08075751875006,222.15078551875007,54.0,86.0
1150,222.08776031875007,222.15078551875007,61.0,86.0
1151,222.07375471875005,222.15428691875005,42.0,86.0
1152,222.08425891875007,222.15778831875005,70.0,86.0
1153,222.36086951875006,222.42389471875006,42.0,86.0
1154,222.36437091875007,222.42739611875007,54.0,86.0
1155,222.37137371875005,222.42739611875007,61.0,86.0
1156,222.37487511875005,222.42739611875007,66.0,86.0
1157,222.36787231875005,222.43439891875005,70.0,86.0
1158,222.91759211875006,223.33425871875005,59.0,86.0
1159,223.22921671875005,223.58986091875005,71.0,86.0
1160,223.23271811875006,223.60736791875007,66.0,86.0
1161,223.23621951875006,223.61086931875005,62.0,86.0
1162,223.46731191875006,223.84546311875005,59.0,86.0
1163,223.76142951875005,224.10456671875005,62.0,86.0
1164,223.75092531875006,224.10806811875005,71.0,86.0
1165,223.75792811875004,224.11507091875006,66.0,86.0
1166,222.65498711875006,224.16058911875007,47.0,86.0
1167,223.99602331875005,224.29364231875007,59.0,86.0
1168,224.55494251875004,224.94703365000004,59.0,84.0
1169,224.85319987500006,225.13134999375006,62.0,86.0
1170,224.84984866875004,225.16821326250005,66.0,86.0
1171,224.84649746250005,225.17826688125004,71.0,86.0
1172,225.09448672500005,225.43966096875005,59.0,86.0
1173,224.30414651875006,225.68765023125005,47.0,86.0
1174,225.38939287500006,225.83845451250005,62.0,86.0
1175,225.38604166875004,225.87196657500004,66.0,86.0
1176,225.37598805000005,225.88872260625004,71.0,86.0
1177,225.62732851875006,225.91553225625006,59.0,86.0
1178,226.17022393125006,226.53550541250004,59.0,86.0
1179,226.46513008125004,226.75333381875004,64.0,86.0
1180,226.46177887500005,226.77679226250004,67.0,86.0
1181,226.45842766875006,226.78014346875005,71.0,86.0
1182,226.68966090000006,227.05494238125004,59.0,86.0
1183,227.00132308125006,227.33979491250005,64.0,86.0
1184,226.99797187500005,227.33979491250005,67.0,86.0
1185,226.99462066875006,227.38671180000006,71.0,86.0
1186,225.92893708125004,227.41352145000005,52.0,86.0
1187,227.82236861250004,228.12732838125004,59.0,86.0
1188,228.11057235000004,228.38537126250006,64.0,86.0
1189,228.10386993750006,228.40882970625006,67.0,86.0
1190,228.10051873125005,228.41553211875004,71.0,86.0
1191,228.35185920000006,228.61995570000005,59.0,86.0
1192,228.62665811250005,229.00534441875004,64.0,86.0
1193,228.62330690625004,229.00534441875004,67.0,86.0
1194,227.52746246250004,229.01539803750006,52.0,86.0
1195,228.61660449375006,229.06901733750004,71.0,86.0
1196,228.86459375625006,229.08242216250005,59.0,86.0
1197,229.51137656250006,229.87665804375004,57.0,86.0
1198,229.76606823750006,230.04086715000005,64.0,86.0
1199,229.75936582500006,230.05092076875005,69.0,86.0
1200,229.76271703125005,230.06097438750004,61.0,86.0
1201,230.01405750000006,230.32907088750005,57.0,86.0
1202,230.28215400000005,230.64743548125006,64.0,86.0
1203,230.27545158750004,230.66084030625004,61.0,86.0
1204,230.27880279375006,230.68764995625006,69.0,86.0
1205,229.20306558750005,230.72116201875005,52.0,86.0
1206,230.54689929375004,230.74797166875004,57.0,86.0
1207,231.08979470625005,231.52880272500005,58.0,86.0
1208,231.40815930000005,231.72652389375006,66.0,86.0
1209,231.41151050625004,231.72987510000004,61.0,86.0
1210,231.40480809375006,231.72987510000004,70.0,86.0
1211,230.84180544375005,232.18563915000004,54.0,86.0
1212,231.94770350625004,232.18563915000004,66.0,86.0
1213,231.68630941875006,232.20239518125004,58.0,86.0
1214,231.94435230000005,232.20239518125004,70.0,86.0
1215,231.95105471250005,232.20909759375004,61.0,86.0
1216,232.51070615625005,232.87598763750006,66.0,86.0
1217,232.50735495000004,232.89609487500005,70.0,86.0
1218,232.51405736250004,232.90279728750005,61.0,86.0
1219,232.52075977500004,232.90614849375004,54.0,86.0
1220,232.50065253750006,232.91955331875005,58.0,86.0
1221,233.34515651250004,233.41218063750006,54.0,86.0
1222,233.34850771875006,233.42223425625005,61.0,86.0
1223,233.35185892500004,233.42223425625005,66.0,86.0
1224,233.34180530625005,233.42558546250004,70.0,86.0
1225,233.32840048125004,233.43899028750005,58.0,86.0
1226,233.59984818750004,233.67692593125005,54.0,86.0
1227,233.60990180625004,233.69368196250005,66.0,86.0
1228,233.61325301250005,233.69703316875004,61.0,86.0
1229,233.58979456875005,233.70038437500006,58.0,86.0
1230,233.61660421875004,233.70038437500006,70.0,86.0
1231,233.88134951250004,233.92491519375005,54.0,86.0
1232,233.87129589375004,233.94837363750005,61.0,86.0
1233,233.86794468750006,233.94837363750005,66.0,86.0
1234,233.87799830625005,233.95507605000006,70.0,86.0
1235,233.85789106875006,233.96177846250004,58.0,86.0
1236,234.15126120000005,234.22070557500007,54.0,86.0
1237,234.14778898125005,234.25542776250006,66.0,86.0
1238,234.13737232500006,234.25889998125007,70.0,86.0
1239,234.14084454375006,234.26237220000004,61.0,86.0
1240,234.13042788750005,234.28667773125005,58.0,86.0
1241,234.89778823125005,234.96028816875005,66.0,86.0
1242,234.89431601250007,234.97070482500007,61.0,86.0
1243,234.88389935625005,234.97417704375005,70.0,86.0
1244,234.88737157500006,234.98459370000006,54.0,86.0
1245,234.87348270000007,234.99501035625005,58.0,86.0
1246,235.20681570000005,235.27973229375007,54.0,86.0
1247,235.20334348125004,235.29362116875006,58.0,86.0
1248,235.22417679375005,235.29709338750007,66.0,86.0
1249,235.23112123125006,235.30403782500005,61.0,86.0
1250,235.22070457500007,235.30403782500005,70.0,86.0
1251,235.48112098125006,235.54709313750007,54.0,86.0
1252,235.49500985625005,235.56098201250006,61.0,86.0
1253,235.49153763750004,235.56098201250006,66.0,86.0
1254,235.47764876250005,235.56445423125007,58.0,86.0
1255,235.48459320000006,235.56445423125007,70.0,86.0
1256,235.78667623125006,235.85959282500005,54.0,86.0
1257,235.79709288750007,235.87000948125007,61.0,86.0
1258,235.79014845000006,235.87000948125007,66.0,86.0
1259,235.77625957500007,235.88737057500006,58.0,86.0
1260,235.78320401250005,235.88737057500006,70.0,86.0
1261,236.52625882500007,236.59917541875006,61.0,86.0
1262,236.53320326250005,236.59917541875006,66.0,86.0
1263,236.54014770000006,236.60611985625005,54.0,86.0
1264,236.52278660625007,236.60611985625005,70.0,86.0
1265,236.53667548125006,236.62348095000007,58.0,86.0
1266,236.81792520000005,236.89084179375007,54.0,86.0
1267,236.83528629375004,236.90125845000006,61.0,86.0
1268,236.83181407500007,236.90125845000006,66.0,86.0
1269,236.82834185625006,236.90473066875006,70.0,86.0
1270,236.81445298125007,236.91167510625007,58.0,86.0
1271,237.10264713750007,237.14431376250005,54.0,86.0
1272,237.09570270000006,237.15473041875006,66.0,86.0
1273,237.09917491875007,237.15820263750007,61.0,86.0
1274,237.09223048125006,237.16167485625004,70.0,86.0
1275,237.08875826250005,237.16861929375006,58.0,86.0
1276,237.38042463750006,239.00542301250005,54.0,86.0
1277,237.37348020000005,239.00542301250005,66.0,86.0
1278,237.38389685625006,239.02625632500005,61.0,86.0
1279,237.37000798125007,239.02625632500005,70.0,86.0
1280,237.36653576250006,239.04014520000007,58.0,86.0
1281,239.30056160625006,239.65125570000006,59.0,86.0
1282,239.57833910625007,239.89778323125006,71.0,86.0
1283,239.58875576250006,239.90125545000006,62.0,86.0
1284,239.58528354375005,239.90125545000006,66.0,86.0
1285,239.84222773125006,240.19292182500007,59.0,86.0
1286,240.13389410625007,240.43597713750006,62.0,86.0
1287,240.13042188750006,240.45333823125006,66.0,86.0
1288,240.12347745000005,240.47417154375006,71.0,86.0
1289,239.00889523125005,240.48458820000005,47.0,86.0
1290,240.39778273125006,240.56444923125005,59.0,86.0
1291,240.93430146041672,241.3049212520834,59.0,86.0
1292,241.2341665645834,241.54077021041672,62.0,86.0
1293,241.23079729375007,241.54077021041672,66.0,86.0
1294,241.2240587520834,241.54413948125006,71.0,86.0
1295,241.49023114791675,241.79683479375007,59.0,86.0
1296,240.65819913750005,242.08659208541673,47.0,86.0
1297,241.7900962520834,242.16745458541672,66.0,86.0
1298,241.78672698125007,242.19777802291674,62.0,86.0
1299,241.7799884395834,242.28200979375006,71.0,86.0
1300,242.03605302291672,242.28874833541673,59.0,86.0
1301,242.57176708541672,242.94912541875007,59.0,86.0
1302,242.8716321895834,243.17823583541673,67.0,86.0
1303,242.87837073125007,243.18834364791672,64.0,86.0
1304,242.87500146041674,243.1950821895834,71.0,86.0
1305,243.12095823125006,243.45114677291673,59.0,86.0
1306,242.31907177291674,243.7712275020834,52.0,86.0
1307,243.40734625208339,243.77459677291674,67.0,86.0
1308,243.41071552291675,243.77796604375007,64.0,86.0
1309,243.40397698125005,243.81839729375005,71.0,86.0
1310,243.6499337520834,243.86556708541673,59.0,86.0
1311,244.18901708541674,244.57311396041672,59.0,86.0
1312,244.49562073125006,244.7921165645834,67.0,86.0
1313,244.4989900020834,244.79885510625007,64.0,86.0
1314,244.49225146041672,244.80896291875007,71.0,86.0
1315,244.7415775020834,245.04144260625006,59.0,86.0
1316,245.0448118770834,245.33119989791672,64.0,86.0
1317,245.04144260625006,245.36152333541673,67.0,86.0
1318,245.0347040645834,245.38173896041673,71.0,86.0
1319,243.9329525020834,245.42217021041674,52.0,86.0
1320,245.28403010625007,245.44238583541673,59.0,86.0
1321,245.82648271041674,246.18362541875007,59.0,52.0
1322,246.1162400020834,246.42621291875005,64.0,86.0
1323,246.10950146041674,246.42958218958339,67.0,86.0
1324,246.11287073125007,246.42958218958339,71.0,86.0
1325,246.35545823125005,246.65869260625007,59.0,86.0
1326,245.5704181270834,247.0057275020834,52.0,86.0
1327,246.90801864791672,247.16071396041673,59.0,86.0
1328,246.6620618770834,247.1674525020834,67.0,86.0
1329,246.66880041875007,247.18766812708338,64.0,86.0
1330,246.67553896041673,247.18766812708338,71.0,86.0
1331,247.45720979375005,247.80087541875005,59.0,86.0
1332,247.74022854375008,248.05020146041673,62.0,86.0
1333,247.73685927291672,248.0569400020834,66.0,86.0
1334,247.72675146041672,248.06030927291673,71.0,86.0
1335,247.9861853145834,248.3197431270834,59.0,86.0
1336,247.21462229375007,248.6634087520834,47.0,86.0
1337,248.5421150020834,248.69710146041672,59.0,86.0
1338,248.29615823125008,248.77122541875008,66.0,86.0
1339,248.2894196895834,248.79817958541673,71.0,86.0
1340,248.29278896041674,248.80828739791673,62.0,86.0
1341,249.09130614791673,249.4720337520834,57.0,86.0
1342,249.39790979375007,249.6842978145834,69.0,86.0
1343,249.39454052291674,249.69103635625007,61.0,86.0
1344,249.3911712520834,249.69103635625007,64.0,86.0
1345,249.63712802291673,249.95047021041674,57.0,86.0
1346,248.83524156458338,250.23348896041674,45.0,86.0
1347,250.13578010625005,250.2907665645834,57.0,86.0
1348,249.91003896041673,250.4221681270834,64.0,86.0
1349,249.91340823125006,250.49629208541674,69.0,86.0
1350,249.9066696895834,250.78268010625007,61.0,86.0
1351,250.7051868770834,251.0488525020834,54.0,86.0
1352,250.97472854375008,251.29480927291672,66.0,86.0
1353,250.97135927291674,251.31502489791674,61.0,86.0
1354,250.96125146041672,251.31502489791674,70.0,86.0
1355,251.21731604375006,251.55087385625006,54.0,86.0
1356,250.45586083541673,251.95181708541674,42.0,86.0
1357,251.5441353145834,251.9787712520834,66.0,86.0
1358,251.78672281458338,252.02257177291673,54.0,86.0
1359,251.53739677291674,252.03267958541673,61.0,86.0
1360,251.5340275020834,252.06300302291675,70.0,86.0
1361,252.3123290645834,252.69305666875007,59.0,86.0
1362,252.62904052291674,252.89184364791674,62.0,86.0
1363,252.62230198125008,252.90532073125007,66.0,86.0
1364,252.6155634395834,252.92553635625006,71.0,86.0
1365,252.87162802291672,253.21866291875006,59.0,86.0
1366,252.03604885625006,253.48820458541672,47.0,86.0
1367,253.42755771041672,253.66003739791674,59.0,86.0
1368,253.1816009395834,253.9396868770834,62.0,86.0
1369,253.18497021041674,254.00707229375007,66.0,86.0
1370,253.1714931270834,254.05761135625005,71.0,86.0
1371,254.02391864791673,254.38106135625006,59.0,86.0
1372,254.26987541875008,254.5966946895834,62.0,86.0
1373,254.25976760625008,254.61354104375008,71.0,86.0
1374,254.26650614791674,254.6169103145834,66.0,86.0
1375,254.5360478145834,254.8291743770834,59.0,86.0
1376,253.7274228145834,255.19642489791673,50.0,86.0
1377,254.83591291875007,255.25707177291673,62.0,86.0
1378,255.07513114791672,255.3143493770834,59.0,86.0
1379,254.83254364791674,255.32456981041673,66.0,86.0
1380,254.82580510625007,255.55089276875006,71.0,86.0
1381,255.6414219520834,256.00005679375005,59.0,86.0
1382,255.89908193541675,256.2263797520834,64.0,86.0
1383,255.8921181520834,256.2368254270834,71.0,86.0
1384,255.9025638270834,256.24030731875007,67.0,86.0
1385,256.1393324604167,256.5501956770834,59.0,86.0
1386,255.4011714270834,256.8183013354167,52.0,86.0
1387,256.43181136041676,257.0028415937501,64.0,86.0
1388,256.42832946875006,257.0202510520834,67.0,86.0
1389,256.42136568541673,257.0933707770834,71.0,86.0
1390,257.23264644375007,257.5599442604167,59.0,86.0
1391,257.52512534375006,257.77582154375006,64.0,86.0
1392,257.5216434520834,257.83849559375005,67.0,86.0
1393,257.5146796687501,257.84197748541675,71.0,86.0
1394,257.77582154375006,258.1379382770834,59.0,86.0
1395,258.08919179375005,258.4095258270834,64.0,86.0
1396,256.99239591875005,258.4304171770834,52.0,86.0
1397,258.33988799375004,258.49657311875006,59.0,86.0
1398,258.0822280104167,258.6079936520834,71.0,86.0
1399,258.09267368541674,258.6114755437501,67.0,86.0
1400,258.62192121875006,258.87261741875005,42.0,86.0
1401,258.6776314854167,258.87261741875005,42.0,86.0
1402,258.9074363354167,259.3252633354167,54.0,86.0
1403,259.2242884770834,259.55158629375006,66.0,86.0
1404,259.2138428020834,259.56551386041673,58.0,86.0
1405,259.5202492687501,259.8545108687501,54.0,86.0
1406,259.76049979375006,260.0669062604167,58.0,86.0
1407,259.76398168541675,260.07387004375005,61.0,86.0
1408,258.9422552520834,260.1017251770834,42.0,86.0
1409,260.01119599375005,260.19921814375004,54.0,86.0
1410,259.7570179020834,260.2131457104167,66.0,86.0
1411,260.5299978520834,260.89907836875005,54.0,86.0
1412,260.8224767520834,261.1149556520834,61.0,86.0
1413,260.8294405354167,261.12888321875005,58.0,86.0
1414,260.81551296875006,261.12888321875005,66.0,86.0
1415,261.1010280854167,261.44225346875004,54.0,86.0
1416,260.2688559770834,261.6546488604167,42.0,86.0
1417,260.28278354375004,261.6546488604167,42.0,86.0
1418,261.40395266041673,261.68598588541676,58.0,86.0
1419,261.4074345520834,261.70339534375006,61.0,86.0
1420,261.3969888770834,261.7103591270834,66.0,86.0
1421,261.6372394020834,261.81133398541675,54.0,86.0
1422,262.1978239604167,262.52163988541673,59.0,86.0
1423,262.45548394375004,262.7723360854167,62.0,86.0
1424,262.4520020520834,262.77929986875006,71.0,86.0
1425,262.45896583541673,262.7862636520834,66.0,86.0
1426,262.7131439270834,263.1483803854167,59.0,67.0
1427,263.0160685020834,263.33292064375007,62.0,86.0
1428,261.93320019375005,263.34684821041674,47.0,86.0
1429,263.0230322854167,263.35381199375007,66.0,86.0
1430,263.01258661041675,263.3712214520834,71.0,86.0
1431,263.2702465937501,263.4861238770834,59.0,86.0
1432,263.81342169375006,264.13027383541674,59.0,86.0
1433,264.0954549187501,264.3461511187501,62.0,86.0
1434,264.08849113541675,264.3948976020834,71.0,86.0
1435,264.1024187020834,264.39837949375004,66.0,86.0
1436,264.35659679375004,264.6769308270834,59.0,86.0
1437,264.66300326041676,264.9485183770834,62.0,86.0
1438,264.65255758541673,264.95548216041675,71.0,86.0
1439,264.6664851520834,264.9868191854167,66.0,86.0
1440,263.55576171041673,264.99378296875005,47.0,86.0
1441,264.88932621875006,265.0320837770834,59.0,86.0
1442,265.46766939375004,265.8205716666667,59.0,86.0
1443,265.7513104729167,266.071231225,66.0,86.0
1444,265.75460862500006,266.07452937708337,62.0,86.0
1445,265.74801232083337,266.0943182895834,71.0,86.0
1446,266.0052681833334,266.3614686083334,59.0,86.0
1447,266.32848708750004,266.68468751250003,66.0,86.0
1448,266.3317852395834,266.6945819687501,62.0,86.0
1449,265.22358781875005,266.7077745770834,47.0,86.0
1450,266.3218907833334,266.71437088125003,71.0,86.0
1451,266.5923392541667,266.82320990000005,59.0,86.0
1452,267.12004358750005,267.4333680354167,59.0,77.0
1453,267.3937902104167,267.6213627041667,62.0,86.0
1454,267.3838957541667,267.6411516166667,71.0,86.0
1455,267.38719390625005,267.6576423770834,66.0,86.0
1456,267.6213627041667,267.9247926958334,59.0,86.0
1457,267.9181963916667,268.16885595,62.0,86.0
1458,267.91160008750006,268.1919430145834,71.0,86.0
1459,267.9247926958334,268.2150300791667,66.0,86.0
1460,266.8660858770834,268.3337635541667,47.0,86.0
1461,268.15236518958335,268.40302474791673,59.0,86.0
1462,268.7394362604167,269.0659533166667,59.0,86.0
1463,269.00328842708336,269.27043874583336,64.0,86.0
1464,268.9966921229167,269.27043874583336,67.0,86.0
1465,268.9933939708334,269.2737368979167,71.0,86.0
1466,269.2506498333334,269.59695580208336,59.0,86.0
1467,269.5573779770834,269.89378948958336,64.0,86.0
1468,268.49867115833337,269.90038579375005,52.0,86.0
1469,269.55407982500003,269.95315622708335,67.0,86.0
1470,269.79154677500003,269.9762432916667,59.0,86.0
1471,269.5507816729167,270.0026285083334,71.0,86.0
1472,270.3258474125,270.68534598958337,59.0,86.0
1473,270.6457681645834,270.9063221791667,67.0,86.0
1474,270.64906631666673,270.90962033125004,64.0,86.0
1475,270.64247001250004,270.92281293958337,71.0,86.0
1476,270.8832351145834,271.19655956250006,59.0,86.0
1477,271.19655956250006,271.48349879375,67.0,86.0
1478,271.18996325833336,271.4900950979167,64.0,86.0
1479,271.18666510625,271.5065858583334,71.0,86.0
1480,270.07848600625005,271.59233781250003,52.0,86.0
1481,271.4406228166667,271.5956359645834,59.0,86.0
1482,271.94252979375005,272.2907189604167,57.0,86.0
1483,272.21411734375005,272.52748759375004,61.0,86.0
1484,272.21063545208335,272.52748759375004,69.0,86.0
1485,272.2175992354167,272.53793326875,64.0,86.0
1486,272.48222300208334,272.78514757708336,57.0,86.0
1487,271.6987973770834,273.05673512708336,45.0,86.0
1488,272.7503286604167,273.07066269375,61.0,86.0
1489,272.98709729375,273.2308297104167,57.0,86.0
1490,272.7538105520834,273.2308297104167,64.0,86.0
1491,272.75729244375003,273.3143951104167,69.0,86.0
1492,273.5859826604167,273.9341718270834,57.0,86.0
1493,273.86105210208336,274.1291577604167,61.0,86.0
1494,273.86453399375006,274.1291577604167,64.0,86.0
1495,273.8680158854167,274.14656721875,69.0,86.0
1496,274.1291577604167,274.38681774375004,57.0,86.0
1497,273.2969856520834,274.73152501875,45.0,86.0
1498,274.4216366604167,274.73848880208334,61.0,86.0
1499,274.41815476875,274.7558982604167,64.0,86.0
1500,274.64447772708337,274.80464474375003,57.0,86.0
1501,274.42511855208335,274.83249987708336,69.0,86.0
1502,275.2398812020834,275.62985306875004,54.0,77.0
1503,275.54628766875004,275.8213571104167,70.0,86.0
1504,275.5602152354167,275.82832089375006,66.0,86.0
1505,275.56369712708334,275.84921224375006,61.0,86.0
1506,275.8213571104167,276.16258249375005,54.0,86.0
1507,275.00311256875005,276.4202424770834,42.0,86.0
1508,276.0929446604167,276.5003259854167,66.0,86.0
1509,276.0824989854167,276.51773544375004,61.0,86.0
1510,276.32971329375005,276.52818111875,54.0,86.0
1511,276.0859808770834,276.5873732770834,70.0,86.0
1512,276.8694065020834,277.1897405354167,54.0,86.0
1513,277.1792948604167,277.4926651104167,66.0,86.0
1514,277.1688491854167,277.52052024375,70.0,86.0
1515,277.17233107708336,277.53096591875004,61.0,86.0
1516,277.42650916875004,277.76773455208337,54.0,86.0
1517,276.58040949375004,278.07414101875,42.0,86.0
1518,277.9731661604167,278.1751158770834,54.0,86.0
1519,277.7329156354167,278.18904344375005,66.0,86.0
1520,277.7224699604167,278.2134166854167,61.0,86.0
1521,277.72943374375,278.2586812770834,70.0,86.0
1522,278.58899179375004,278.9393959604167,59.0,59.0
1523,278.8450563770833,279.1718756479167,71.0,86.0
1524,278.8551641895834,279.17524491875,62.0,86.0
1525,278.8484256479167,279.18872200208335,66.0,86.0
1526,279.10449023125,279.50543346041667,59.0,86.0
1527,278.26912695208335,279.75475950208335,47.0,86.0
1528,279.66715846041666,279.9468079395834,59.0,86.0
1529,279.41783241875004,279.95354648125004,66.0,86.0
1530,279.4245709604167,279.96365429375004,62.0,86.0
1531,279.4110938770834,280.03777825208334,71.0,86.0
1532,280.20287252291666,280.53979960625,59.0,86.0
1533,280.48926054375,280.73184804375,62.0,86.0
1534,280.47915273125,280.77227929375005,71.0,86.0
1535,280.48589127291666,280.79586418958337,66.0,86.0
1536,280.73521731458334,281.04519023125,59.0,86.0
1537,281.0384516895833,281.24734648125,62.0,86.0
1538,279.95354648125004,281.31473189791666,47.0,86.0
1539,281.03508241875,281.3214704395834,66.0,86.0
1540,281.02834387708333,281.49330325208336,71.0,86.0
1541,281.25071575208335,281.51014960625,59.0,86.0
1542,281.8100147104167,282.11661835625,59.0,86.0
1543,282.08966418958335,282.34235950208335,64.0,86.0
1544,282.07955637708335,282.34909804375,67.0,86.0
1545,282.0829256479167,282.36257512708335,71.0,86.0
1546,282.3255131479167,282.5074537729167,59.0,86.0
1547,282.61190116875,282.85785793958337,64.0,86.0
1548,282.6085318979167,282.8814428354167,67.0,86.0
1549,282.60516262708336,282.9117662729167,71.0,86.0
1550,281.5472115854167,282.99599804375003,52.0,86.0
1551,282.8410115854167,283.04990637708335,59.0,86.0
1552,283.44074179375,283.75745325208334,59.0,86.0
1553,283.74734543958334,283.96634804375003,64.0,86.0
1554,283.74397616875,283.98656366875,67.0,86.0
1555,283.7406068979167,283.99667148125,71.0,86.0
1556,283.97982512708336,284.1920891895833,59.0,86.0
1557,284.27969023125,284.5290162729167,64.0,86.0
1558,284.27295168958335,284.55597043958335,67.0,86.0
1559,284.2763209604167,284.59977096041666,71.0,86.0
1560,283.15098450208336,284.6267251270834,52.0,86.0
1561,284.49195429375004,284.66378710625,59.0,86.0
1562,285.0310376270834,285.41513450208333,54.0,77.0
1563,285.34101054375003,285.6509834604167,70.0,86.0
1564,285.3376412729167,285.69478398125,61.0,86.0
1565,285.61392148125003,285.95084856458334,54.0,86.0
1566,284.7716037729167,286.23386731458334,42.0,86.0
1567,285.8733553354167,286.2675600229167,70.0,86.0
1568,285.87672460625004,286.3484225229167,61.0,86.0
1569,286.09572721041667,286.37537668958333,54.0,67.0
1570,285.88683241875003,286.54047096041666,66.0,86.0
1571,286.68534960625004,287.05596939791667,54.0,86.0
1572,286.99195325208336,287.2581256479167,66.0,86.0
1573,286.98184543958337,287.28171054375,70.0,86.0
1574,286.98858398125003,287.2884490854167,61.0,86.0
1575,287.2480178354167,287.58494491875,54.0,86.0
1576,286.4090693979167,287.8241631479167,42.0,86.0
1577,287.7702548145833,287.98925741875,54.0,86.0
1578,287.54451366875,288.00273450208334,66.0,86.0
1579,287.5411443979167,288.0061037729167,61.0,86.0
1580,287.53777512708336,288.08412551875006,70.0,86.0
1581,288.37124031875004,288.67936351875005,59.0,86.0
1582,288.62684251875004,288.89294891875005,71.0,84.0
1583,288.61983971875003,288.92796291875004,62.0,86.0
1584,288.61633831875,288.97698251875005,66.0,86.0
1585,288.87194051875,289.28160431875006,59.0,52.0
1586,288.11213671875004,289.50919531875,47.0,86.0
1587,289.19056791875005,289.51619811875,62.0,86.0
1588,289.18356511875004,289.57222051875004,66.0,86.0
1589,289.18006371875003,289.61773871875005,71.0,86.0
1590,289.43566591875003,289.70527371875005,59.0,86.0
1591,289.74028771875004,291.22838271875,66.0,86.0
1592,289.74729051875005,291.23188411875003,47.0,86.0
1593,289.75079191875005,291.23538551875004,62.0,86.0
1594,289.74378911875004,291.24588971875005,71.0,86.0
1595,289.75779471875006,291.24939111875005,59.0,86.0
1596,291.65124391875,291.98091391875,59.0,86.0
1597,291.90879860625,292.23503454375003,66.0,86.0
1598,291.90536454375,292.23503454375003,71.0,86.0
1599,291.91223266875,292.24877079375,62.0,86.0
1600,292.15948516875,292.54066610625,59.0,86.0
1601,292.46855079375,292.76731423125,66.0,86.0
1602,292.45824860625004,292.77418235625004,62.0,86.0
1603,291.38944711875,292.79822079375003,47.0,86.0
1604,292.45481454375,292.80852298125,71.0,86.0
1605,292.70893516875003,292.89094048125,59.0,86.0
1606,293.21717641875,293.62239579375,59.0,41.0
1607,293.53997829375004,293.79409891875,62.0,86.0
1608,293.53311016875,293.79409891875,66.0,86.0
1609,293.52624204375,293.80096704375,71.0,86.0
1610,293.79753298125,294.06882391875,59.0,86.0
1611,292.96305579375,294.35728516875,47.0,86.0
1612,294.06882391875,294.41223016875,62.0,86.0
1613,294.06538985625,294.44313673125004,66.0,86.0
1614,294.05852173125004,294.55989485625,71.0,86.0
1615,294.29890610625,294.57019704375,59.0,86.0
1616,294.91016923125,295.23983923125,59.0,86.0
1617,295.19863048125,295.46648735625,64.0,86.0
1618,295.19519641875,295.46648735625,67.0,86.0
1619,295.19176235625,295.48022360625004,71.0,86.0
1620,295.44244891875,295.76181673125,59.0,86.0
1621,294.61483985625,296.07775048125,52.0,86.0
1622,295.72060798125,296.10522298125,64.0,86.0
1623,295.96099235625,296.16703610625,59.0,86.0
1624,295.71373985625,296.16703610625,67.0,86.0
1625,295.71030579375,296.27005798125003,71.0,86.0
1626,296.50700829375,296.85041454375,59.0,77.0
1627,296.81607391875,297.07362860625,67.0,86.0
1628,296.81950798125,297.07706266875,64.0,86.0
1629,296.81263985625003,297.08736485625,71.0,86.0
1630,297.06332641875,297.31401298125,59.0,86.0
1631,297.34491954375,297.62994673125,64.0,86.0
1632,297.33805141875,297.64711704375003,67.0,86.0
1633,297.33461735625,297.68145766875,71.0,86.0
1634,296.25975579375,297.73640266875003,52.0,86.0
1635,297.59560610625,297.76044110625,59.0,86.0
1636,298.1378957145833,298.55012932291663,54.0,77.0
1637,298.49028896041665,298.83603327708335,61.0,86.0
1638,298.48031556666666,298.83603327708335,66.0,86.0
1639,298.4869644958333,298.84268220625,58.0,86.0
1640,298.76954398541665,299.1186127666667,54.0,86.0
1641,299.07871919166666,299.3912188625,58.0,86.0
1642,297.83599048125,299.4045167208333,42.0,86.0
1643,299.07539472708334,299.41781457916665,61.0,86.0
1644,299.3114317125,299.48430387083334,54.0,86.0
1645,299.0720702625,299.57073994999996,66.0,86.0
1646,299.8732662270833,300.1890903625,54.0,86.0
1647,300.14587232291666,300.38523377291665,61.0,86.0
1648,300.14254785833333,300.3885582375,58.0,86.0
1649,300.1358989291667,300.4218028833333,66.0,86.0
1650,300.4018560958333,300.6844355854167,54.0,86.0
1651,299.57073994999996,300.95704168124996,42.0,86.0
1652,300.69773344375,301.02020650833333,58.0,86.0
1653,300.69108451458334,301.0401532958333,61.0,86.0
1654,300.88390346041666,301.07339794166666,54.0,86.0
1655,300.6844355854167,301.18310527291663,66.0,86.0
1656,301.5388229833333,301.87459390624997,59.0,86.0
1657,301.7914822916666,302.06076392291664,62.0,86.0
1658,301.7881578270833,302.07738624583334,71.0,59.0
1659,301.78150889791664,302.1571733958333,66.0,86.0
1660,302.03416820625,302.3898859166666,59.0,86.0
1661,301.2595679583333,302.63257183125,47.0,86.0
1662,302.3167476958333,302.6658164770833,62.0,86.0
1663,302.31009876666667,302.70903451666663,66.0,86.0
1664,302.31342323125,302.722332375,71.0,86.0
1665,302.5394868229167,302.76222594999996,59.0,86.0
1666,303.0880234791667,303.51355494583333,59.0,86.0
1667,303.3839008270833,303.74626746666667,62.0,86.0
1668,303.3805763625,303.75624086041665,66.0,86.0
1669,303.37725189791666,303.76621425416664,71.0,86.0
1670,303.64320906458335,304.02884695625,59.0,77.0
1671,303.97565552291667,304.2981285875,62.0,86.0
1672,303.97233105833334,304.30810198125,66.0,86.0
1673,303.9656821291667,304.3380221625,71.0,86.0
1674,302.82871524166666,304.34799555625,47.0,86.0
1675,304.1817723270833,304.36461787916664,59.0,86.0
1676,304.5507878958333,310.74758987916664,42.0,86.0
1677,305.29214349791664,310.8439993520833,61.0,86.0
1678,304.79347381041663,310.8572972104167,54.0,77.0
1679,305.54812727083333,310.8838929270833,64.0,86.0
1680,313.8725865875,323.3306883270833,47.0,86.0
1681,314.3945275270833,323.39385315416666,54.0,86.0
1682,314.2249798333333,323.51353387916663,50.0,86.0
1683,314.7136761270833,323.5235072729167,66.0,86.0
1684,314.85995256875,323.5268317375,71.0,86.0
1685,314.58734647291664,323.5501029895833,59.0,86.0
