,start,end,pitch,velocity
0,31.035225374999996,31.402212187499998,61.0,122.0
1,31.419840374999996,31.796442562499998,59.0,66.0
2,31.804455374999996,32.0913140625,61.0,89.0
3,32.18907037499999,32.330095875,61.0,95.0
4,32.381377875,32.605736625,64.0,92.0
5,32.573685375,33.2579795625,63.0,99.0
6,33.342915375,33.711504749999996,61.0,122.0
7,33.72753037499999,34.11054281249999,59.0,83.0
8,34.112145375,36.182656124999994,61.0,107.0
9,37.189065375,37.400603624999995,61.0,102.0
10,37.573680374999995,37.7563725,61.0,107.0
11,37.76598787499999,37.983936375,59.0,78.0
12,37.958295375,38.243551499999995,61.0,102.0
13,38.342910374999995,38.685858749999994,64.0,86.0
14,38.727525375,39.288422249999996,61.0,93.0
15,39.49675537499999,39.8284858125,52.0,93.0
16,39.881370374999996,40.30284431249999,59.0,92.0
17,40.26598537499999,42.330085874999995,56.0,79.0
18,43.342905374999994,43.942263749999995,54.0,88.0
19,44.112135374999994,44.4310453125,54.0,99.0
20,44.496750375,44.807647499999995,56.0,93.0
21,44.881365374999994,45.89418487499999,59.0,96.0
22,46.419825374999995,46.5912995625,61.0,99.0
23,46.80444037499999,46.94386331249999,61.0,99.0
24,47.189055374999995,47.2611706875,61.0,102.0
25,47.38136287499999,47.7034779375,61.0,100.0
26,47.765977875,48.003157124999994,64.0,87.0
27,47.958285374999996,48.75155381249999,66.0,100.0
28,49.496745374999996,50.41982137499999,66.0,112.0
29,50.65059037499999,50.862128625,68.0,107.0
30,51.035205375,51.360525562499994,63.0,100.0
31,51.41982037499999,51.67783293749999,61.0,95.0
32,51.804435375,52.1618068125,61.0,102.0
33,52.189050374999994,52.54321668749999,59.0,85.0
34,52.573665375,54.55763774999999,61.0,100.0
35,55.45827787499999,55.600905937499995,56.0,81.0
36,55.65058537499999,55.91981587499999,61.0,81.0
37,56.035200374999995,56.28680268749999,61.0,99.0
38,56.41981537499999,56.653789499999995,61.0,93.0
39,56.7707765625,56.963084062499995,64.0,90.0
40,57.18904537499999,57.326865749999996,63.0,102.0
41,57.573660374999996,57.71628843749999,63.0,102.0
42,57.765967874999994,58.33006987499999,61.0,112.0
43,58.342890374999996,58.759556624999995,59.0,92.0
44,58.72750537499999,59.307632999999996,61.0,102.0
45,61.41981037499999,61.531989749999994,56.0,99.0
46,61.612117874999996,61.72429724999999,56.0,82.0
47,61.804425374999994,62.060835374999996,61.0,102.0
48,62.18904037499999,62.469488812499996,61.0,117.0
49,62.573655374999994,62.79641156249999,61.0,107.0
50,62.95827037499999,63.232308562499995,64.0,97.0
51,63.342885374999994,63.721090124999996,61.0,117.0
52,64.11211537499999,64.41339712499999,52.0,92.0
53,64.496730375,64.84128131249999,59.0,96.0
54,64.881345375,66.42461306249999,56.0,99.0
55,67.958265375,68.28839325,54.0,100.0
56,68.72749537499999,69.009546375,54.0,107.0
57,69.11211037499999,69.36691781249999,56.0,100.0
58,69.496725375,70.2691605,59.0,102.0
59,70.65057037499999,71.00153156249999,59.0,96.0
60,71.035185375,71.62172324999999,61.0,112.0
61,71.80441537499999,72.0816586875,61.0,117.0
62,72.18903037499999,72.49351725,64.0,102.0
63,72.573645375,73.304413875,66.0,127.0
64,74.112105375,74.30761799999999,66.0,127.0
65,74.496720375,74.70024581249999,66.0,127.0
66,74.88133537499999,75.03037368749999,66.0,127.0
67,75.26595037499999,75.39095024999999,66.0,127.0
68,75.45825787499999,75.580052625,68.0,127.0
69,75.65056537499999,75.990308625,63.0,112.0
70,76.035180375,76.291590375,61.0,107.0
71,76.41979537499999,76.69223099999999,61.0,122.0
72,76.80441037499999,77.0880639375,59.0,92.0
73,77.18902537499999,78.25312687499999,61.0,112.0
74,83.34286537499999,83.66658299999999,68.0,127.0
75,83.919787875,84.00472368749999,68.0,122.0
76,84.112095375,84.38613356249999,68.0,127.0
77,84.49671037499999,84.708248625,68.0,117.0
78,84.88132537499999,85.13292768749999,68.0,127.0
79,85.26594037499999,85.34767106249998,66.0,122.0
80,85.45824787499998,85.71946556249999,66.0,127.0
81,86.03517037499999,86.17779843749999,64.0,107.0
82,86.22747787499999,86.336452125,66.0,102.0
83,86.41978537499999,87.50151506249999,66.0,127.0
84,89.49670537499999,89.82683324999999,66.0,127.0
85,90.07362787499999,90.16657649999999,66.0,127.0
86,90.26593537499998,90.48708899999998,66.0,117.0
87,90.650550375,90.79638356249998,66.0,117.0
88,90.84285787499999,90.96946031249999,64.0,97.0
89,91.03516537499999,91.28837024999999,66.0,117.0
90,91.80439537499998,91.95503624999999,64.0,112.0
91,91.99670287499998,92.22747187499999,61.0,96.0
92,92.381317875,92.51433056249999,61.0,100.0
93,92.57362537499999,94.03516237499998,63.0,107.0
94,95.650545375,95.81400674999999,61.0,117.0
95,96.03516037499999,96.18419868749999,61.0,107.0
96,96.41977537499999,96.78676218749999,61.0,122.0
97,96.996697875,97.14894131249999,64.0,100.0
98,97.189005375,98.00150456249999,66.0,117.0
99,98.727465375,99.221054625,68.0,127.0
100,99.49669537499999,99.7290669375,71.0,127.0
101,99.68900287499999,99.84925912499999,68.0,127.0
102,99.88131037499998,100.24188693749998,66.0,112.0
103,100.265925375,101.03355281249999,64.0,107.0
104,101.804385375,102.0111159375,59.0,107.0
105,102.18900037499999,102.394128375,59.0,100.0
106,102.57361537499999,102.81239718749998,59.0,100.0
107,102.95823037499999,103.23066599999999,61.0,112.0
108,103.34284537499998,103.69380656249999,63.0,127.0
109,103.72746037499999,103.8732935625,63.0,122.0
110,103.91976787499999,104.2931649375,66.0,127.0
111,104.49669037499999,104.64252356249999,59.0,97.0
112,104.68899787499998,104.81079262499999,61.0,100.0
113,104.88130537499998,106.59604724999998,61.0,117.0
114,107.95822537499998,108.28835324999999,68.0,127.0
115,108.53514787499999,108.61687856249999,68.0,127.0
116,108.72745537499999,109.06399349999998,68.0,127.0
117,109.11207037499999,109.23707024999999,68.0,122.0
118,109.49668537499998,109.74989024999999,71.0,117.0
119,109.88130037499998,109.95181312499999,68.0,127.0
120,110.073607875,110.28354356249999,68.0,127.0
121,110.65053037499999,110.8091840625,64.0,117.0
122,110.84283787499999,110.94379931249999,66.0,107.0
123,111.03514537499998,112.98225881249999,66.0,127.0
124,113.91975787499999,114.05918081249999,56.0,117.0
125,114.11206537499999,114.49507781249999,66.0,122.0
126,114.68898787499998,114.77873137499999,66.0,122.0
127,114.881295375,115.11847462499999,66.0,112.0
128,115.26591037499999,115.52232037499999,64.0,88.0
129,115.65052537499999,116.10725568749999,66.0,122.0
130,116.419755375,116.66494743749999,64.0,107.0
131,116.80437037499999,117.09122906249999,61.0,107.0
132,117.18898537499999,118.746676125,63.0,127.0
133,120.26590537499999,120.40693087499999,61.0,127.0
134,120.65052037499999,120.82359712499999,61.0,112.0
135,121.03513537499998,121.22103262499999,61.0,122.0
136,121.41975037499999,121.56237843749999,61.0,112.0
137,121.61205787499999,121.71141674999998,64.0,95.0
138,121.80436537499999,122.73705674999998,64.0,102.0
139,123.34282537499999,123.96942731249999,68.0,127.0
140,124.11205537499998,124.41333712499998,71.0,99.0
141,124.49667037499998,124.79955468749999,66.0,117.0
142,124.88128537499999,125.61525899999998,64.0,112.0
143,126.41974537499999,126.63609131249999,59.0,107.0
144,126.80436037499999,127.04794987499999,59.0,97.0
145,127.18897537499998,127.40211618749998,59.0,100.0
146,127.57359037499998,127.73705174999999,59.0,99.0
147,127.76589787499998,127.91493618749999,61.0,102.0
148,127.95820537499999,128.43737156249998,63.0,127.0
149,128.727435375,129.086409375,66.0,127.0
150,129.112050375,129.27390918749998,59.0,96.0
151,129.304357875,129.4277551875,61.0,100.0
152,129.496665375,132.0783935625,61.0,127.0
153,156.99663787499998,157.13926593749997,56.0,81.0
154,157.18894537499997,157.458175875,61.0,81.0
155,157.57356037499997,157.82516268749998,61.0,99.0
156,157.958175375,158.19214949999997,61.0,93.0
157,158.3091365625,158.50144406249998,64.0,90.0
158,158.727405375,158.86522574999998,63.0,102.0
159,159.112020375,159.25464843749998,63.0,102.0
160,159.30432787499998,159.86842987499998,61.0,112.0
161,159.88125037499998,160.29791662499997,59.0,92.0
162,160.26586537499998,160.845993,61.0,102.0
163,162.95817037499998,163.07034975,56.0,99.0
164,163.15047787499998,163.26265725,56.0,82.0
165,163.34278537499998,163.599195375,61.0,102.0
166,163.72740037499997,164.0078488125,61.0,117.0
167,164.11201537499997,164.33477156249998,61.0,107.0
168,164.496630375,164.7706685625,64.0,97.0
169,164.881245375,165.25945012499997,61.0,117.0
170,165.65047537499998,165.95175712499997,52.0,92.0
171,166.03509037499998,166.37964131249998,59.0,96.0
172,166.41970537499998,167.96297306249997,56.0,99.0
173,169.49662537499998,169.82675324999997,54.0,100.0
174,170.26585537499997,170.54790637499997,54.0,107.0
175,170.65047037499997,170.90527781249997,56.0,100.0
176,171.035085375,171.80752049999998,59.0,102.0
177,172.18893037499998,172.53989156249997,59.0,96.0
178,172.57354537499998,173.16008324999999,61.0,112.0
179,173.34277537499997,173.6200186875,61.0,117.0
180,173.72739037499997,174.03187724999998,64.0,102.0
181,174.11200537499997,174.84277387499998,66.0,127.0
182,175.65046537499998,175.84597799999997,66.0,127.0
183,176.03508037499998,176.23860581249997,66.0,127.0
184,176.41969537499998,176.56873368749999,66.0,127.0
185,176.80431037499997,176.92931025,66.0,127.0
186,176.99661787499997,177.118412625,68.0,127.0
187,177.18892537499997,177.52866862499997,63.0,112.0
188,177.573540375,177.82995037499998,61.0,107.0
189,177.958155375,178.23059099999998,61.0,122.0
190,178.342770375,178.6264239375,59.0,92.0
191,178.72738537499998,179.79148687499998,61.0,112.0
192,184.88122537499999,185.204943,68.0,127.0
193,185.45814787499998,185.54308368749997,68.0,122.0
194,185.65045537499998,185.92449356249998,68.0,127.0
195,186.03507037499998,186.246608625,68.0,117.0
196,186.41968537499997,186.67128768749998,68.0,127.0
197,186.80430037499997,186.88603106249997,66.0,122.0
198,186.99660787499997,187.2578255625,66.0,127.0
199,187.573530375,187.71615843749998,64.0,107.0
200,187.765837875,187.87481212499998,66.0,102.0
201,187.958145375,189.0398750625,66.0,127.0
202,191.035065375,191.36519324999998,66.0,127.0
203,191.61198787499998,191.70493649999997,66.0,127.0
204,191.80429537499998,192.02544899999998,66.0,117.0
205,192.18891037499998,192.33474356249997,66.0,117.0
206,192.38121787499998,192.50782031249997,64.0,97.0
207,192.57352537499997,192.82673024999997,66.0,117.0
208,193.34275537499997,193.49339625,64.0,112.0
209,193.53506287499997,193.76583187499998,61.0,96.0
210,193.919677875,194.05269056249998,61.0,100.0
211,194.111985375,195.57352237499998,63.0,107.0
212,197.188905375,197.35236675,61.0,117.0
213,197.573520375,197.72255868749997,61.0,107.0
214,197.95813537499998,198.32512218749997,61.0,122.0
215,198.53505787499998,198.68730131249998,64.0,100.0
216,198.72736537499998,199.5398645625,66.0,117.0
217,200.265825375,200.75941462499998,68.0,127.0
218,201.03505537499998,201.26742693749998,71.0,127.0
219,201.22736287499998,201.387619125,68.0,127.0
220,201.41967037499998,201.78024693749998,66.0,112.0
221,201.80428537499998,202.5719128125,64.0,107.0
222,203.34274537499996,203.54947593749998,59.0,107.0
223,203.727360375,203.932488375,59.0,100.0
224,204.111975375,204.35075718749997,59.0,100.0
225,204.49659037499998,204.76902599999997,61.0,112.0
226,204.88120537499998,205.23216656249997,63.0,127.0
227,205.26582037499998,205.41165356249996,63.0,122.0
228,205.45812787499997,205.83152493749998,66.0,127.0
229,206.03505037499997,206.1808835625,59.0,97.0
230,206.22735787499997,206.349152625,61.0,100.0
231,206.41966537499997,208.13440724999998,61.0,117.0
232,209.49658537499997,209.82671324999998,68.0,127.0
233,210.073507875,210.1552385625,68.0,127.0
234,210.265815375,210.60235349999996,68.0,127.0
235,210.65043037499998,210.77543024999997,68.0,122.0
236,211.03504537499998,211.28825024999998,71.0,117.0
237,211.41966037499998,211.49017312499998,68.0,127.0
238,211.61196787499998,211.82190356249998,68.0,127.0
239,212.18889037499997,212.34754406249996,64.0,117.0
240,212.38119787499997,212.4821593125,66.0,107.0
241,212.57350537499997,214.52061881249998,66.0,127.0
242,215.45811787499997,215.59754081249997,56.0,117.0
243,215.65042537499997,216.03343781249998,66.0,122.0
244,216.22734787499996,216.317091375,66.0,122.0
245,216.41965537499996,216.656834625,66.0,112.0
246,216.804270375,217.06068037499998,64.0,88.0
247,217.18888537499998,217.64561568749997,66.0,122.0
248,217.95811537499998,218.20330743749997,64.0,107.0
249,218.34273037499997,218.62958906249997,61.0,107.0
250,218.72734537499997,220.28503612499998,63.0,127.0
251,221.80426537499997,221.94529087499998,61.0,127.0
252,222.18888037499997,222.36195712499998,61.0,112.0
253,222.57349537499996,222.75939262499998,61.0,122.0
254,222.95811037499996,223.10073843749998,61.0,112.0
255,223.150417875,223.24977674999997,64.0,95.0
256,223.342725375,224.27541674999998,64.0,102.0
257,224.88118537499997,225.50778731249997,68.0,127.0
258,225.65041537499997,225.95169712499998,71.0,99.0
259,226.03503037499996,226.33791468749996,66.0,117.0
260,226.419645375,227.15361899999996,64.0,112.0
261,227.95810537499997,228.17445131249997,59.0,107.0
262,228.34272037499997,228.58630987499998,59.0,97.0
263,228.72733537499997,228.94047618749997,59.0,100.0
264,229.11195037499996,229.27541174999996,59.0,99.0
265,229.30425787499996,229.45329618749997,61.0,102.0
266,229.49656537499996,229.9757315625,63.0,127.0
267,230.26579537499998,230.62476937499997,66.0,127.0
268,230.65041037499998,230.81226918749996,59.0,96.0
269,230.84271787499998,230.96611518749998,61.0,100.0
270,231.03502537499998,233.61675356249998,61.0,127.0
271,234.11194537499998,234.44207324999996,68.0,127.0
272,234.68886787499997,234.77059856249997,68.0,127.0
273,234.88117537499997,235.21771349999997,68.0,127.0
274,235.26579037499997,235.39079024999998,68.0,122.0
275,235.65040537499996,235.90361024999999,71.0,117.0
276,236.03502037499996,236.10553312499997,68.0,127.0
277,236.227327875,236.43726356249996,68.0,127.0
278,236.80425037499998,236.96290406249997,64.0,117.0
279,236.99655787499998,237.09751931249997,66.0,107.0
280,237.18886537499998,239.13597881249999,66.0,127.0
281,240.07347787499998,240.21290081249998,56.0,117.0
282,240.26578537499998,240.64879781249996,66.0,122.0
283,240.84270787499997,240.93245137499997,66.0,122.0
284,241.03501537499997,241.27219462499997,66.0,112.0
285,241.41963037499997,241.67604037499999,64.0,88.0
286,241.80424537499997,242.26097568749998,66.0,122.0
287,242.573475375,242.81866743749998,64.0,107.0
288,242.95809037499998,243.24494906249998,61.0,107.0
289,243.34270537499998,244.900396125,63.0,127.0
290,246.41962537499998,246.56065087499996,61.0,127.0
291,246.80424037499998,246.97731712499998,61.0,112.0
292,247.18885537499997,247.37475262499999,61.0,122.0
293,247.57347037499997,247.71609843749997,61.0,112.0
294,247.76577787499997,247.86513674999998,64.0,95.0
295,247.95808537499997,248.89077674999996,64.0,102.0
296,249.49654537499998,250.12314731249998,68.0,127.0
297,250.26577537499998,250.56705712499996,71.0,99.0
298,250.65039037499997,250.95327468749997,66.0,117.0
299,251.03500537499997,251.76897899999997,64.0,112.0
300,252.57346537499998,252.78981131249998,59.0,107.0
301,252.95808037499998,253.20166987499996,59.0,97.0
302,253.34269537499998,253.55583618749998,59.0,100.0
303,253.72731037499997,253.89077174999997,59.0,99.0
304,253.91961787499997,254.06865618749998,61.0,102.0
305,254.11192537499997,254.59109156249997,63.0,127.0
306,254.88115537499996,255.24012937499998,66.0,127.0
307,255.26577037499996,255.42762918749997,59.0,96.0
308,255.45807787499996,255.58147518749996,61.0,100.0
309,255.65038537499998,258.2321135625,61.0,127.0
310,258.72730537499996,259.05743325,68.0,127.0
311,259.304227875,259.3859585625,68.0,127.0
312,259.49653537499995,259.83307349999995,68.0,127.0
313,259.88115037499995,260.00615024999996,68.0,122.0
314,260.26576537499994,260.51897025,71.0,117.0
315,260.650380375,260.720893125,68.0,127.0
316,260.84268787499997,261.05262356249995,68.0,127.0
317,261.419610375,261.57826406249995,64.0,117.0
318,261.61191787499996,261.7128793125,66.0,107.0
319,261.804225375,263.75133881249997,66.0,127.0
320,264.688837875,264.89556843749995,56.0,76.0
321,264.88114537499996,265.3186449375,71.0,127.0
322,265.458067875,265.547811375,71.0,112.0
323,265.65037537499995,265.86191362499994,71.0,112.0
324,266.03499037499995,266.27216962499995,71.0,127.0
325,266.41960537499995,266.6551820625,71.0,127.0
326,267.188835375,267.31543781249997,66.0,127.0
327,267.38114287499997,267.47889918749996,64.0,93.0
328,267.573450375,267.9564628125,64.0,112.0
329,267.958065375,270.13274268749996,68.0,122.0
330,271.03498537499996,271.176010875,61.0,127.0
331,271.41960037499996,271.59267712499997,61.0,112.0
332,271.80421537499996,271.990112625,61.0,122.0
333,272.18883037499995,272.3314584375,61.0,112.0
334,272.381137875,272.48049675,64.0,95.0
335,272.57344537499995,273.50613675,64.0,102.0
336,274.111905375,274.73850731249996,68.0,127.0
337,274.881135375,275.182417125,71.0,99.0
338,275.265750375,275.5686346875,66.0,117.0
339,275.650365375,276.38433899999995,64.0,112.0
340,277.18882537499996,277.4051713125,59.0,107.0
341,277.57344037499996,277.81702987499995,59.0,97.0
342,277.95805537499996,278.17119618749996,59.0,100.0
343,278.34267037499995,278.50613174999995,59.0,99.0
344,278.534977875,278.6840161875,61.0,102.0
345,278.72728537499995,279.2064515625,63.0,127.0
346,279.49651537499994,279.855489375,66.0,127.0
347,279.88113037499994,280.0429891875,59.0,96.0
348,280.07343787499997,280.19683518749997,61.0,100.0
349,280.265745375,282.62151224999997,61.0,117.0
