,start,end,pitch,velocity
0,2.573715375,4.881405374999999,37.0,44.0
1,2.573715375,4.881405374999999,49.0,40.0
2,2.573715375,4.881405374999999,61.0,44.0
3,2.573715375,4.881405374999999,64.0,52.0
4,2.573715375,4.881405374999999,68.0,44.0
5,4.881405374999999,5.860571062499999,37.0,39.0
6,4.881405374999999,6.0015965625,49.0,53.0
7,4.881405374999999,6.068904187499999,64.0,65.0
8,4.881405374999999,6.123391312499999,61.0,53.0
9,4.881405374999999,6.1682630624999994,68.0,64.0
10,7.189095374999999,8.201914875,49.0,82.0
11,6.419865375,8.698709249999999,37.0,89.0
12,6.804480374999999,8.714734875,44.0,38.0
13,7.573710374999999,8.766016874999998,61.0,73.0
14,8.342940375,8.868580875,49.0,53.0
15,8.727555375,9.424670062499999,64.0,74.0
16,7.958325374999999,9.466336687499998,68.0,93.0
17,9.112170375,9.552875062499998,61.0,44.0
18,10.266015374999998,11.237168249999998,54.0,86.0
19,9.881400374999998,11.608962749999998,49.0,65.0
20,9.496785374999998,11.697103687499999,42.0,56.0
21,11.419860374999999,11.876590687499998,54.0,53.0
22,10.650630374999999,11.939090624999999,57.0,63.0
23,12.189090375,12.637807874999998,57.0,42.0
24,11.035245374999999,12.6971026875,66.0,96.0
25,11.804475374999999,12.733961625,61.0,69.0
26,13.727550374999998,14.230754999999998,63.0,81.0
27,13.342935374999998,14.241972937499998,59.0,88.0
28,12.958320374999998,14.368575374999999,54.0,65.0
29,12.573705375,14.799664687499998,47.0,68.0
30,14.496780374999998,14.830113374999998,54.0,54.0
31,14.112165374999998,15.455112749999998,66.0,97.0
32,14.881395374999999,15.674663812499999,63.0,88.0
33,15.266010374999999,15.682676624999997,59.0,66.0
34,16.419855374999997,17.3060724375,56.0,73.0
35,16.804470374999998,17.647418249999998,60.0,56.0
36,17.573700374999998,17.980751249999997,56.0,90.0
37,16.035240374999997,18.150622874999996,51.0,40.0
38,15.650625374999999,18.214725374999997,44.0,82.0
39,18.342930374999998,18.7932504375,60.0,82.0
40,17.958315374999998,18.801263249999998,63.0,127.0
41,17.189085374999998,18.804468375,68.0,112.0
42,19.304467874999997,19.6361983125,49.0,71.0
43,19.496775375,20.182672124999996,56.0,96.0
44,19.881390375,20.312479687499998,49.0,61.0
45,20.073697874999997,20.410235999999998,52.0,49.0
46,20.458312874999997,20.796453562499998,49.0,88.0
47,20.266005375,20.907030374999998,61.0,96.0
48,20.842927874999997,21.0592738125,49.0,63.0
49,20.650620375,21.200299312499997,52.0,75.0
50,19.112160375,21.310876124999997,44.0,45.0
51,18.727545375,21.3445299375,37.0,73.0
52,21.227542874999997,21.475940062499998,49.0,78.0
53,21.419850375,21.721132124999997,52.0,72.0
54,21.035235375,21.791644874999996,61.0,75.0
55,21.612157874999998,21.794849999999997,56.0,89.0
56,22.189080374999996,22.639400437499997,54.0,90.0
57,22.381387874999998,22.743567,57.0,69.0
58,21.804465374999996,23.1778614375,42.0,50.0
59,21.996772874999998,23.334912562499998,49.0,52.0
60,22.766002874999998,23.4486945,54.0,79.0
61,22.573695374999996,23.467925249999997,66.0,107.0
62,22.958310374999996,23.507989312499998,61.0,81.0
63,23.150617875,23.725937812499996,57.0,77.0
64,23.727540374999997,24.1666425,54.0,90.0
65,23.919847875,24.253180874999998,57.0,82.0
66,23.535232875,24.349334624999997,49.0,47.0
67,23.342925374999997,24.355744874999996,42.0,40.0
68,24.304462875,24.455103749999996,54.0,93.0
69,24.496770374999997,24.798052124999998,61.0,81.0
70,24.112155374999997,24.806064937499997,66.0,102.0
71,24.689077875,24.874975125,57.0,92.0
72,25.458307874999996,25.674653812499997,63.0,88.0
73,25.266000374999997,25.730743499999996,59.0,79.0
74,25.073692874999995,25.737153749999997,54.0,53.0
75,25.650615374999997,26.238755812499996,66.0,97.0
76,24.881385374999997,26.278819874999996,47.0,53.0
77,25.842922874999996,26.384589,54.0,85.0
78,26.035230374999998,26.474332499999996,63.0,107.0
79,26.227537874999996,26.647409249999995,59.0,92.0
80,26.612152874999996,26.940678187499998,54.0,92.0
81,26.419845374999998,27.052857562499998,47.0,69.0
82,26.804460374999998,27.192280499999995,59.0,74.0
83,26.996767874999996,27.221126624999997,63.0,97.0
84,27.381382874999996,27.538433999999995,63.0,92.0
85,27.573690374999998,27.953497687499997,59.0,83.0
86,27.765997874999996,27.971125875,63.0,100.0
87,27.189075374999998,27.985548937499996,66.0,99.0
88,28.342920375,28.791637874999996,49.0,66.0
89,28.535227874999997,28.9374710625,52.0,72.0
90,27.958305375,29.304457874999997,37.0,66.0
91,29.112150374999995,29.347727062499995,56.0,90.0
92,28.727535374999995,29.365355249999997,61.0,97.0
93,28.150612874999997,29.423047499999996,44.0,59.0
94,28.919842874999997,29.445483375,49.0,71.0
95,29.304457874999997,29.496765374999995,52.0,78.0
96,29.496765374999995,30.971122874999995,61.0,57.0
97,29.496765374999995,31.012789499999997,37.0,67.0
98,29.496765374999995,31.017597187499998,56.0,63.0
99,29.496765374999995,31.020802312499995,49.0,58.0
100,29.496765374999995,31.022404874999996,64.0,70.0
101,32.18907037499999,32.68586474999999,56.0,59.0
102,31.804455374999996,32.7307365,49.0,82.0
103,31.035225374999996,33.9871455,37.0,66.0
104,31.419840374999996,34.0496454375,44.0,43.0
105,32.95830037499999,34.102529999999994,49.0,41.0
106,33.342915375,34.54483724999999,56.0,70.0
107,32.573685375,35.206695562499995,61.0,61.0
108,32.573685375,35.360541562499996,64.0,66.0
109,34.881375375,35.8124641875,49.0,69.0
110,36.035220374999994,36.597719812499996,49.0,40.0
111,34.112145375,36.9727194375,37.0,77.0
112,34.496760374999994,37.198680749999994,44.0,37.0
113,36.804450374999995,37.338103687499995,49.0,36.0
114,35.650605375,37.378167749999996,64.0,69.0
115,36.419835375,38.06406449999999,63.0,76.0
116,35.265990374999994,38.203487437499994,56.0,58.0
117,37.958295375,38.8797688125,49.0,77.0
118,37.189065375,39.5528450625,37.0,92.0
119,37.573680374999995,39.57047324999999,44.0,39.0
120,39.112140374999996,39.78361406249999,49.0,38.0
121,38.727525375,39.926242124999995,64.0,77.0
122,39.49675537499999,40.076882999999995,63.0,67.0
123,38.342910374999995,40.165023937499996,56.0,76.0
124,39.881370374999996,40.26919049999999,61.0,63.0
125,41.419830375,41.913419624999996,60.0,76.0
126,41.03521537499999,42.06245793749999,56.0,77.0
127,42.189060375,42.55925231249999,56.0,61.0
128,40.650600374999996,42.608931749999996,51.0,45.0
129,40.26598537499999,42.708290625,44.0,70.0
130,41.80444537499999,42.71149575,63.0,73.0
131,42.958290375,43.37816175,63.0,62.0
132,41.80444537499999,43.381366875,68.0,75.0
133,42.57367537499999,43.3925848125,60.0,79.0
134,44.496750375,44.987134499999996,57.0,69.0
135,44.112135374999994,45.01117293749999,54.0,77.0
136,45.265980375,45.458287874999996,54.0,58.0
137,43.727520375,45.487134,49.0,53.0
138,43.342905374999994,45.5239929375,42.0,75.0
139,44.881365374999994,45.8076465,61.0,72.0
140,46.035210375,46.479120187499994,61.0,81.0
141,45.650595374999995,46.49514581249999,57.0,85.0
142,44.881365374999994,46.519184249999995,66.0,97.0
143,46.419825374999995,47.543221687499994,37.0,82.0
144,46.80444037499999,47.564054999999996,44.0,39.0
145,47.189055374999995,47.69065743749999,49.0,76.0
146,47.57367037499999,47.990336625,56.0,88.0
147,47.958285374999996,48.834887062499995,42.0,69.0
148,48.34290037499999,48.87975881249999,54.0,78.0
149,48.727515374999996,49.46148899999999,61.0,86.0
150,48.727515374999996,49.490335124999994,66.0,88.0
151,49.11213037499999,49.5368094375,57.0,72.0
152,49.88136037499999,50.317257375,54.0,48.0
153,49.496745374999996,50.33809068749999,47.0,70.0
154,50.65059037499999,51.105718124999996,59.0,67.0
155,50.265975375,51.10892325,66.0,92.0
156,50.265975375,51.113730937499994,63.0,83.0
157,51.804435375,52.01276849999999,56.0,53.0
158,51.41982037499999,52.02078131249999,51.0,60.0
159,51.035205375,52.028794125,44.0,50.0
160,52.189050374999994,52.578473062499995,59.0,76.0
161,51.804435375,52.58808843749999,63.0,66.0
162,51.804435375,52.612126874999994,68.0,76.0
163,53.34289537499999,54.233920125,49.0,85.0
164,53.727510374999994,54.333279,56.0,69.0
165,52.573665375,55.0624449375,37.0,76.0
166,54.496740374999995,55.25314987499999,49.0,49.0
167,52.958280374999994,55.277188312499995,44.0,56.0
168,54.88135537499999,55.66180331249999,56.0,72.0
169,54.11212537499999,55.697059687499994,61.0,64.0
170,54.11212537499999,55.70988018749999,64.0,70.0
171,56.804430374999995,57.301224749999996,56.0,59.0
172,56.41981537499999,57.346096499999994,49.0,82.0
173,55.65058537499999,58.60250549999999,37.0,66.0
174,56.035200374999995,58.66500543749999,44.0,43.0
175,57.573660374999996,58.71788999999999,49.0,41.0
176,57.95827537499999,59.160197249999996,56.0,70.0
177,57.18904537499999,59.82205556249999,61.0,61.0
178,57.18904537499999,59.97590156249999,64.0,66.0
179,59.49673537499999,60.42782418749999,49.0,69.0
180,60.65058037499999,61.21307981249999,49.0,40.0
181,58.72750537499999,61.58807943749999,37.0,77.0
182,59.112120374999996,61.81404074999999,44.0,37.0
183,61.41981037499999,61.95346368749999,49.0,36.0
184,60.26596537499999,61.99352774999999,64.0,69.0
185,61.035195374999994,62.679424499999996,63.0,76.0
186,59.881350375,62.81884743749999,56.0,58.0
187,62.573655374999994,63.49512881249999,49.0,77.0
188,61.804425374999994,64.1682050625,37.0,92.0
189,62.18904037499999,64.18583324999999,44.0,39.0
190,63.72750037499999,64.39897406249999,49.0,38.0
191,63.342885374999994,64.541602125,64.0,77.0
192,64.11211537499999,64.69224299999999,63.0,67.0
193,62.95827037499999,64.78038393749999,56.0,76.0
194,64.496730375,64.88455049999999,61.0,63.0
195,66.035190375,66.528779625,60.0,76.0
196,65.65057537499999,66.6778179375,56.0,77.0
197,66.80442037499999,67.17461231249999,56.0,61.0
198,65.26596037499999,67.22429174999999,51.0,45.0
199,64.881345375,67.323650625,44.0,70.0
200,66.419805375,67.32685575,63.0,73.0
201,67.57365037499999,67.99352175,63.0,62.0
202,66.419805375,67.996726875,68.0,75.0
203,67.18903537499999,68.00794481249999,60.0,79.0
204,69.11211037499999,69.60249449999999,57.0,69.0
205,68.72749537499999,69.62653293749999,54.0,77.0
206,69.881340375,70.07364787499999,54.0,58.0
207,68.342880375,70.102494,49.0,53.0
208,67.958265375,70.13935293749999,42.0,75.0
209,69.496725375,70.42300649999999,61.0,72.0
210,70.65057037499999,71.0944801875,61.0,81.0
211,70.26595537499999,71.1105058125,57.0,85.0
212,69.496725375,71.13454424999999,66.0,97.0
213,71.035185375,72.15858168749999,37.0,82.0
214,71.419800375,72.17941499999999,44.0,39.0
215,71.80441537499999,72.30601743749999,49.0,76.0
216,72.18903037499999,72.605696625,56.0,88.0
217,72.573645375,73.4502470625,42.0,69.0
218,72.958260375,73.4951188125,54.0,78.0
219,73.34287537499999,74.076849,61.0,86.0
220,73.34287537499999,74.105695125,66.0,88.0
221,73.72749037499999,74.15216943749999,57.0,72.0
222,74.496720375,74.93261737499999,54.0,48.0
223,74.112105375,74.9534506875,47.0,70.0
224,75.26595037499999,75.72107812499999,59.0,67.0
225,74.88133537499999,75.72428324999998,66.0,92.0
226,74.88133537499999,75.72909093749999,63.0,83.0
227,76.41979537499999,76.62812849999999,56.0,53.0
228,76.035180375,76.63614131249999,51.0,60.0
229,75.65056537499999,76.64415412499999,44.0,50.0
230,76.80441037499999,77.19383306249999,59.0,76.0
231,76.41979537499999,77.20344843749999,63.0,66.0
232,76.41979537499999,77.227486875,68.0,76.0
233,77.958255375,78.84928012499999,49.0,85.0
234,78.34287037499999,78.94863899999999,56.0,69.0
235,77.18902537499999,79.67780493749999,37.0,76.0
236,79.112100375,79.86850987499999,49.0,49.0
237,77.573640375,79.8925483125,44.0,56.0
238,79.496715375,80.2771633125,56.0,72.0
239,78.72748537499999,80.3124196875,61.0,64.0
240,78.72748537499999,80.32524018749999,64.0,70.0
241,80.842867875,81.1297265625,52.0,63.0
242,80.650560375,81.18581624999999,49.0,82.0
243,81.035175375,81.528764625,56.0,112.0
244,80.26594537499999,81.586456875,37.0,88.0
245,80.45825287499999,81.78196949999999,44.0,32.0
246,81.22748287499999,81.85568737499999,49.0,59.0
247,81.61209787499999,81.881328375,56.0,89.0
248,81.61209787499999,81.88293093749999,61.0,99.0
249,81.41979037499999,81.8957514375,52.0,67.0
250,81.99671287499999,82.12652043749999,56.0,95.0
251,81.99671287499999,82.1393409375,61.0,100.0
252,81.99671287499999,82.1457511875,52.0,74.0
253,82.18902037499998,82.522353375,49.0,35.0
254,82.573635375,82.87331456249998,61.0,127.0
255,82.573635375,82.87812224999999,56.0,127.0
256,82.381327875,83.12331431249999,37.0,33.0
257,82.381327875,83.214660375,44.0,37.0
258,82.95825037499999,83.22267318749999,52.0,96.0
259,82.765942875,83.25472443749999,49.0,93.0
260,83.15055787499999,83.272352625,56.0,127.0
261,83.72748037499998,84.18741581249999,49.0,102.0
262,83.919787875,84.20985168749999,52.0,89.0
263,83.34286537499999,84.75151781249998,37.0,97.0
264,83.53517287499999,84.83805618749999,44.0,79.0
265,84.68901787499999,84.84606899999999,52.0,95.0
266,84.304402875,84.849274125,49.0,82.0
267,84.49671037499999,84.85408181249998,56.0,89.0
268,84.112095375,84.89574843749999,61.0,117.0
269,84.88132537499999,85.6810040625,37.0,77.0
270,85.07363287499999,85.695427125,44.0,68.0
271,85.45824787499998,85.753119375,61.0,93.0
272,85.26594037499999,85.83805518749999,49.0,97.0
273,85.842862875,86.08805493749999,61.0,81.0
274,86.03517037499999,86.2691445,64.0,65.0
275,85.650555375,86.30920856249999,68.0,127.0
276,86.22747787499999,86.39254181249999,61.0,117.0
277,86.80440037499999,87.22106662499999,54.0,92.0
278,86.99670787499998,87.37651518749999,57.0,82.0
279,86.41978537499999,87.76754043749999,42.0,83.0
280,86.61209287499999,87.82843781249998,49.0,34.0
281,87.573630375,87.87330956249998,61.0,102.0
282,87.76593787499999,87.89414287499999,57.0,96.0
283,87.189015375,87.89414287499999,66.0,117.0
284,87.381322875,87.93100181249999,54.0,89.0
285,88.34286037499999,88.79638556249999,54.0,93.0
286,88.53516787499998,88.83484706249999,66.0,100.0
287,88.15055287499999,88.96144949999999,49.0,37.0
288,87.95824537499999,88.99189818749998,42.0,85.0
289,88.919782875,89.0592058125,54.0,90.0
290,89.112090375,89.38132087499999,69.0,71.0
291,88.72747537499998,89.38132087499999,73.0,127.0
292,89.30439787499999,89.49189768749999,66.0,92.0
293,89.68901287499999,90.37170449999999,54.0,90.0
294,89.88132037499999,90.37811475,59.0,79.0
295,90.07362787499999,90.7386913125,63.0,102.0
296,89.49670537499999,90.89894756249998,47.0,68.0
297,90.458242875,90.9598449375,54.0,86.0
298,90.650550375,91.0335628125,59.0,90.0
299,90.84285787499999,91.03837049999998,63.0,107.0
300,90.26593537499998,91.04317818749999,66.0,102.0
301,91.41978037499999,91.88612606249998,59.0,89.0
302,91.61208787499999,91.91497218749998,71.0,92.0
303,91.22747287499999,91.9614465,54.0,82.0
304,91.03516537499999,92.04638231249999,47.0,83.0
305,91.99670287499998,92.19862574999999,75.0,102.0
306,92.189010375,92.528753625,71.0,89.0
307,91.80439537499998,92.54477924999999,78.0,127.0
308,92.381317875,92.56080487499999,75.0,107.0
309,92.95824037499999,93.40535531249999,56.0,93.0
310,93.15054787499999,93.41977837499999,60.0,92.0
311,93.34285537499998,93.68580374999999,63.0,122.0
312,92.57362537499999,94.00311112499999,44.0,65.0
313,92.76593287499999,94.0896495,51.0,73.0
314,93.727470375,94.1617648125,60.0,79.0
315,93.53516287499998,94.23708524999999,56.0,100.0
316,93.919777875,94.24189293749998,68.0,112.0
317,94.49670037499999,94.91817431249999,56.0,97.0
318,94.68900787499999,95.01432806249998,68.0,79.0
319,94.30439287499999,95.20182787499999,51.0,92.0
320,94.11208537499999,95.21304581249998,44.0,86.0
321,95.07362287499998,95.28516112499999,56.0,95.0
322,95.265930375,95.4726609375,72.0,71.0
323,94.88131537499999,95.56240443749999,75.0,127.0
324,95.458237875,95.656955625,68.0,99.0
325,96.03516037499999,96.47105737499999,56.0,82.0
326,96.22746787499999,96.5399675625,61.0,73.0
327,95.84285287499999,96.64253156249998,52.0,38.0
328,95.650545375,96.73548018749999,49.0,86.0
329,96.61208287499998,96.74189043749999,56.0,90.0
330,96.41977537499999,97.02233887499999,68.0,117.0
331,96.80439037499998,97.06560806249999,61.0,97.0
332,96.996697875,97.189005375,64.0,63.0
333,97.57362037499999,97.98067124999999,54.0,78.0
334,97.76592787499999,98.0944531875,57.0,86.0
335,97.38131287499999,98.16176081249999,49.0,56.0
336,97.189005375,98.2194530625,42.0,89.0
337,98.15054287499999,98.32682474999999,54.0,90.0
338,97.95823537499999,98.64893981249999,66.0,122.0
339,98.34285037499998,98.66656799999998,61.0,112.0
340,98.535157875,98.72586281249998,57.0,95.0
341,99.11208037499999,99.53996456249999,56.0,85.0
342,99.30438787499999,99.66816956249998,59.0,76.0
343,98.91977287499999,99.86528474999999,51.0,63.0
344,99.68900287499999,99.87169499999999,56.0,92.0
345,98.727465375,99.96784874999999,44.0,61.0
346,99.49669537499999,100.12329731249999,68.0,112.0
347,99.88131037499998,100.12810499999999,63.0,107.0
348,100.07361787499998,100.1922075,59.0,96.0
349,100.65054037499999,101.1200911875,52.0,83.0
350,100.84284787499999,101.21945006249999,59.0,82.0
351,100.265925375,101.3188089375,40.0,77.0
352,100.458232875,101.355667875,47.0,58.0
353,101.22746287499999,101.43419343749999,52.0,76.0
354,101.41977037499998,101.6793855,64.0,95.0
355,101.03515537499999,101.68419318749999,68.0,112.0
356,101.61207787499998,101.88291093749999,59.0,85.0
357,102.18900037499999,102.5335513125,59.0,79.0
358,102.38130787499999,102.547974375,63.0,107.0
359,101.996692875,102.63130762499999,54.0,81.0
360,101.804385375,102.84124331249998,47.0,76.0
361,102.76592287499999,102.91816631249999,54.0,78.0
362,102.57361537499999,103.26111468749998,66.0,112.0
363,102.95823037499999,103.28194799999999,63.0,117.0
364,103.15053787499998,103.32521718749999,59.0,97.0
365,103.91976787499999,104.07681899999999,63.0,117.0
366,103.72746037499999,104.131306125,59.0,85.0
367,103.535152875,104.16015224999998,56.0,99.0
368,103.34284537499998,104.43098531249998,44.0,69.0
369,104.30438287499999,104.477459625,56.0,93.0
370,104.49669037499999,104.78515162499998,59.0,97.0
371,104.68899787499998,104.81880543749999,63.0,117.0
372,104.11207537499999,104.82040799999999,68.0,107.0
373,105.265920375,105.62970206249999,56.0,88.0
374,105.45822787499999,105.77713781249999,61.0,89.0
375,105.073612875,105.93098381249999,52.0,66.0
376,105.84284287499999,105.97745812499998,56.0,99.0
377,104.88130537499998,106.015919625,49.0,92.0
378,106.03515037499999,106.19059893749998,64.0,83.0
379,106.22745787499998,106.28515012499999,37.0,50.0
380,105.65053537499999,106.29316293749999,68.0,112.0
381,106.22745787499998,106.554380625,61.0,107.0
382,106.99668787499999,107.12329031249999,64.0,73.0
383,106.61207287499998,107.26591837499998,49.0,99.0
384,106.804380375,107.29155937499999,61.0,99.0
385,107.38130287499999,107.74508456249998,49.0,97.0
386,107.57361037499999,107.82200756249999,64.0,85.0
387,106.41976537499998,107.842840875,37.0,122.0
388,107.18899537499999,107.89893056249998,68.0,127.0
389,107.76591787499999,107.93418693749999,61.0,117.0
390,108.342840375,108.80277581249999,49.0,102.0
391,108.53514787499999,108.82521168749999,52.0,89.0
392,107.95822537499998,109.3668778125,37.0,97.0
393,108.15053287499998,109.45341618749998,44.0,79.0
394,109.30437787499999,109.46142899999998,52.0,95.0
395,108.91976287499999,109.46463412499999,49.0,82.0
396,109.11207037499999,109.4694418125,56.0,89.0
397,108.72745537499999,109.51110843749998,61.0,117.0
398,109.49668537499998,110.29636406249999,37.0,77.0
399,109.68899287499998,110.31078712499999,44.0,68.0
400,110.073607875,110.36847937499999,61.0,93.0
401,109.88130037499998,110.45341518749998,49.0,97.0
402,110.45822287499999,110.70341493749999,61.0,81.0
403,110.65053037499999,110.88450449999999,64.0,65.0
404,110.26591537499999,110.92456856249999,68.0,127.0
405,110.84283787499999,111.00790181249998,61.0,117.0
406,111.41976037499998,111.83642662499999,54.0,92.0
407,111.612067875,111.99187518749999,57.0,82.0
408,111.03514537499998,112.38290043749998,42.0,83.0
409,111.22745287499998,112.4437978125,49.0,34.0
410,112.18899037499999,112.4886695625,61.0,102.0
411,112.38129787499999,112.50950287499998,57.0,96.0
412,111.80437537499999,112.50950287499998,66.0,117.0
413,111.99668287499999,112.54636181249998,54.0,89.0
414,112.95822037499998,113.41174556249999,54.0,93.0
415,113.15052787499998,113.45020706249998,66.0,100.0
416,112.76591287499998,113.57680949999998,49.0,37.0
417,112.57360537499999,113.6072581875,42.0,85.0
418,113.53514287499999,113.67456581249999,54.0,90.0
419,113.72745037499999,113.99668087499998,69.0,71.0
420,113.34283537499999,113.99668087499998,73.0,127.0
421,113.91975787499999,114.10725768749998,66.0,92.0
422,114.30437287499998,114.98706449999999,54.0,90.0
423,114.49668037499998,114.99347474999999,59.0,79.0
424,114.68898787499998,115.35405131249999,63.0,102.0
425,114.11206537499999,115.5143075625,47.0,68.0
426,115.07360287499999,115.57520493749999,54.0,86.0
427,115.26591037499999,115.64892281249999,59.0,90.0
428,115.45821787499999,115.65373049999998,63.0,107.0
429,114.881295375,115.65853818749999,66.0,102.0
430,116.03514037499998,116.50148606249999,59.0,89.0
431,116.22744787499998,116.5303321875,71.0,92.0
432,115.84283287499998,116.57680649999999,54.0,82.0
433,115.65052537499999,116.66174231249998,47.0,83.0
434,116.61206287499999,116.81398574999999,75.0,102.0
435,116.80437037499999,117.14411362499999,71.0,89.0
436,116.419755375,117.16013924999999,78.0,127.0
437,116.99667787499999,117.17616487499998,75.0,107.0
438,117.57360037499998,118.02071531249999,56.0,93.0
439,117.76590787499998,118.03513837499999,60.0,92.0
440,117.95821537499998,118.30116374999999,63.0,122.0
441,117.18898537499999,118.61847112499999,44.0,65.0
442,117.38129287499999,118.70500949999999,51.0,73.0
443,118.34283037499999,118.77712481249999,60.0,79.0
444,118.150522875,118.85244524999999,56.0,100.0
445,118.53513787499999,118.8572529375,68.0,112.0
446,119.11206037499998,119.53353431249998,56.0,97.0
447,119.30436787499998,119.62968806249998,68.0,79.0
448,118.91975287499999,119.81718787499999,51.0,92.0
449,118.72744537499999,119.82840581249998,44.0,86.0
450,119.688982875,119.90052112499998,56.0,95.0
451,119.88129037499999,120.08802093749999,72.0,71.0
452,119.49667537499998,120.17776443749999,75.0,127.0
453,120.07359787499999,120.27231562499999,68.0,99.0
454,120.65052037499999,121.08641737499998,56.0,82.0
455,120.84282787499998,121.15532756249999,61.0,73.0
456,120.45821287499999,121.25789156249999,52.0,38.0
457,120.26590537499999,121.35084018749998,49.0,86.0
458,121.22744287499998,121.35725043749999,56.0,90.0
459,121.03513537499998,121.63769887499998,68.0,117.0
460,121.41975037499999,121.68096806249999,61.0,97.0
461,121.61205787499999,121.80436537499999,64.0,63.0
462,122.38128787499998,122.65212093749999,56.0,95.0
463,122.18898037499999,122.71301831249998,52.0,90.0
464,122.76590287499998,122.99827443749999,52.0,76.0
465,121.99667287499999,123.16173581249998,47.0,85.0
466,121.80436537499999,123.26429981249998,40.0,67.0
467,122.958210375,123.31558181249999,59.0,72.0
468,123.15051787499999,123.36045356249998,56.0,96.0
469,122.57359537499998,123.37327406249999,64.0,83.0
470,123.72744037499999,124.15532456249998,56.0,85.0
471,123.91974787499998,124.2835295625,59.0,76.0
472,123.53513287499999,124.48064474999998,51.0,63.0
473,124.30436287499998,124.48705499999998,56.0,92.0
474,123.34282537499999,124.58320874999998,44.0,61.0
475,124.11205537499998,124.73865731249998,68.0,112.0
476,124.49667037499998,124.74346499999999,63.0,107.0
477,124.68897787499999,124.80756749999999,59.0,96.0
478,125.26590037499999,125.73545118749999,52.0,83.0
479,125.45820787499999,125.83481006249998,59.0,82.0
480,124.88128537499999,125.93416893749999,40.0,77.0
481,125.07359287499999,125.97102787499999,47.0,58.0
482,125.84282287499998,126.04955343749998,52.0,76.0
483,126.03513037499998,126.29474549999999,64.0,95.0
484,125.65051537499998,126.29955318749998,68.0,112.0
485,126.22743787499999,126.49827093749998,59.0,85.0
486,126.80436037499999,127.14891131249999,59.0,79.0
487,126.99666787499999,127.16333437499999,63.0,107.0
488,126.61205287499999,127.24666762499999,54.0,81.0
489,126.41974537499999,127.45660331249998,47.0,76.0
490,127.38128287499998,127.53352631249999,54.0,78.0
491,127.18897537499998,127.87647468749998,66.0,112.0
492,127.57359037499998,127.89730799999998,63.0,117.0
493,127.76589787499998,127.94057718749998,59.0,97.0
494,128.53512787499997,128.69217899999998,63.0,117.0
495,128.34282037499997,128.746666125,59.0,85.0
496,128.15051287499998,128.77551225,56.0,99.0
497,127.95820537499999,129.0463453125,44.0,69.0
498,128.919742875,129.09281962499998,56.0,93.0
499,129.112050375,129.40051162499998,59.0,97.0
500,129.304357875,129.43416543749998,63.0,117.0
501,128.727435375,129.435768,68.0,107.0
502,129.881280375,130.24506206249998,56.0,88.0
503,130.073587875,130.39249781249998,61.0,89.0
504,129.688972875,130.5463438125,52.0,66.0
505,130.45820287499998,130.59281812499998,56.0,99.0
506,129.496665375,130.631279625,49.0,92.0
507,130.65051037499998,130.80595893749998,64.0,83.0
508,130.84281787499998,130.90051012499998,37.0,50.0
509,130.26589537499999,130.90852293749998,68.0,112.0
510,130.84281787499998,131.16974062499997,61.0,107.0
511,131.61204787499997,131.7386503125,64.0,73.0
512,131.22743287499998,131.881278375,49.0,99.0
513,131.41974037499998,131.90691937499997,61.0,99.0
514,131.996662875,132.3604445625,49.0,97.0
515,132.188970375,132.4373675625,64.0,85.0
516,131.03512537499998,132.458200875,37.0,122.0
517,131.80435537499997,132.51429056249998,68.0,127.0
518,132.381277875,132.5495469375,61.0,117.0
519,132.958200375,133.4181358125,49.0,67.0
520,133.150507875,133.43255887499998,52.0,79.0
521,133.342815375,133.80916106249998,56.0,99.0
522,133.72743037499998,133.9870455,61.0,96.0
523,132.573585375,133.98864806249998,37.0,74.0
524,132.765892875,134.05114799999998,44.0,55.0
525,133.91973787499998,134.07839156249997,56.0,95.0
526,133.53512287499998,134.17294274999998,49.0,89.0
527,134.11204537499998,134.8604420625,37.0,88.0
528,134.30435287499998,134.88928818749997,44.0,62.0
529,134.49666037499998,134.95178812499998,49.0,74.0
530,134.68896787499997,134.9662111875,61.0,86.0
531,135.07358287499997,135.33640312499998,61.0,81.0
532,134.88127537499997,135.41012099999998,68.0,107.0
533,135.265890375,135.503069625,64.0,45.0
534,135.458197875,135.63447975,61.0,96.0
535,136.035120375,136.49665837499998,54.0,71.0
536,136.227427875,136.83319649999999,57.0,71.0
537,136.419735375,136.83640162499998,61.0,99.0
538,135.650505375,137.0463373125,42.0,64.0
539,135.842812875,137.09120906249998,49.0,41.0
540,136.99665787499998,137.1456961875,61.0,107.0
541,136.80435037499998,137.15210643749998,66.0,107.0
542,136.612042875,137.1617218125,54.0,85.0
543,137.57358037499998,138.03672093749998,54.0,72.0
544,137.76588787499998,138.11845162499998,66.0,82.0
545,137.38127287499998,138.1777464375,49.0,66.0
546,137.18896537499998,138.214605375,42.0,82.0
547,138.15050287499997,138.31396425,54.0,92.0
548,138.34281037499997,138.60883575,69.0,52.0
549,137.95819537499997,138.669733125,73.0,100.0
550,138.535117875,138.743451,66.0,93.0
551,139.112040375,139.41332212499998,59.0,45.0
552,138.919732875,139.5511425,54.0,62.0
553,139.304347875,139.56877068749998,63.0,95.0
554,138.727425375,140.1200521875,47.0,65.0
555,139.88127037499999,140.214603375,63.0,95.0
556,139.688962875,140.22742387499997,54.0,88.0
557,140.07357787499998,140.22902643749998,59.0,76.0
558,139.496655375,140.23223156249998,66.0,102.0
559,140.65050037499998,140.87165399999998,59.0,88.0
560,140.45819287499998,140.94216674999998,54.0,79.0
561,140.26588537499998,140.98543593749997,47.0,65.0
562,140.84280787499998,141.131269125,71.0,90.0
563,141.22742287499997,141.41652524999998,75.0,95.0
564,141.03511537499998,141.71139674999998,78.0,117.0
565,141.41973037499997,141.7290249375,71.0,83.0
566,141.61203787499997,141.8155633125,75.0,102.0
567,142.188960375,142.62004968749997,56.0,90.0
568,142.381267875,142.631267625,60.0,82.0
569,142.573575375,142.9101135,63.0,122.0
570,141.804345375,143.144087625,51.0,68.0
571,141.804345375,143.176138875,44.0,39.0
572,142.958190375,143.27229262499998,60.0,93.0
573,142.765882875,143.30113874999998,56.0,97.0
574,143.15049787499999,143.3283823125,68.0,112.0
575,143.72742037499998,144.16972762499998,56.0,100.0
576,143.91972787499998,144.20658656249998,68.0,102.0
577,143.53511287499998,144.36203512499998,51.0,69.0
578,144.30434287499997,144.38286843749998,56.0,83.0
579,143.34280537499998,144.41171456249998,44.0,97.0
580,144.30434287499997,144.547932375,68.0,99.0
581,144.49665037499997,144.72261168749998,72.0,74.0
582,144.11203537499998,144.83318849999998,75.0,127.0
583,144.68895787499997,144.8892781875,68.0,122.0
584,145.265880375,145.69055943749999,49.0,97.0
585,145.458187875,145.769085,52.0,89.0
586,145.650495375,146.07357187499997,56.0,112.0
587,144.88126537499997,146.30434087499998,37.0,82.0
588,146.035110375,146.3379946875,61.0,97.0
589,145.073572875,146.37325106249997,44.0,55.0
590,146.227417875,146.42773818749998,64.0,71.0
591,145.842802875,146.490238125,49.0,97.0
592,146.99664787499998,147.25466043749998,61.0,93.0
593,146.80434037499998,147.26267324999998,49.0,92.0
594,146.41972537499998,147.42933975,37.0,82.0
595,146.61203287499998,147.43094231249998,44.0,39.0
596,147.38126287499998,147.58959599999997,49.0,83.0
597,147.38126287499998,147.59921137499998,61.0,88.0
598,147.57357037499997,147.797929125,64.0,67.0
599,147.18895537499998,147.86523674999998,68.0,117.0
600,147.76587787499997,147.9405571875,61.0,102.0
601,148.342800375,148.78350506249998,54.0,79.0
602,148.535107875,148.89087675,57.0,76.0
603,147.95818537499997,149.36042756249998,42.0,70.0
604,148.919722875,149.387671125,54.0,73.0
605,148.15049287499997,149.42132493749997,49.0,66.0
606,149.112030375,149.46299156249998,57.0,95.0
607,148.727415375,149.5302991875,66.0,112.0
608,149.304337875,149.69215799999998,69.0,78.0
609,149.88126037499998,150.406900875,54.0,73.0
610,150.07356787499998,150.5142725625,57.0,82.0
611,149.68895287499998,150.53991356249998,49.0,63.0
612,149.49664537499999,150.5591443125,42.0,97.0
613,150.45818287499998,150.624849375,54.0,92.0
614,150.65049037499998,150.92933624999998,61.0,97.0
615,150.26587537499998,150.948567,66.0,117.0
616,150.84279787499997,150.996643875,57.0,97.0
617,151.419720375,151.73542518749997,59.0,85.0
618,151.612027875,151.78670718749999,63.0,107.0
619,151.22741287499997,151.87805325,54.0,81.0
620,151.03510537499997,152.36202712499997,47.0,69.0
621,151.804335375,152.46619368749998,66.0,97.0
622,152.188950375,152.5046551875,63.0,100.0
623,151.996642875,152.5174756875,54.0,95.0
624,152.381257875,152.53991156249998,59.0,88.0
625,152.95818037499998,153.188949375,59.0,92.0
626,152.76587287499999,153.27709031249998,54.0,83.0
627,152.573565375,153.31394924999998,47.0,66.0
628,153.15048787499998,153.3572184375,71.0,95.0
629,153.53510287499998,153.6969616875,75.0,99.0
630,153.72741037499998,154.02708956249998,71.0,88.0
631,153.34279537499998,154.028692125,78.0,117.0
632,153.91971787499998,154.09920487499997,75.0,122.0
633,154.49664037499997,154.95657581249998,49.0,79.0
634,154.688947875,154.98542193749998,52.0,66.0
635,154.11202537499997,155.50945987499998,37.0,85.0
636,154.30433287499997,155.56394699999998,44.0,31.0
637,155.073562875,155.63606231249997,49.0,83.0
638,155.265870375,155.94856199999998,52.0,64.0
639,155.458177875,156.09439518749997,61.0,96.0
640,154.881255375,156.15208743749997,64.0,92.0
641,156.03510037499998,156.55433062499998,49.0,95.0
642,156.22740787499998,156.55433062499998,52.0,89.0
643,155.842792875,157.13606081249998,44.0,83.0
644,155.650485375,157.1665095,37.0,81.0
645,156.80433037499998,157.18574024999998,56.0,86.0
646,156.61202287499998,157.2193940625,61.0,90.0
647,156.41971537499998,157.22900943749997,64.0,102.0
648,156.99663787499998,157.2322145625,52.0,78.0
649,158.342790375,158.83958474999997,56.0,59.0
650,157.958175375,158.88445649999997,49.0,82.0
651,157.18894537499997,160.1408655,37.0,66.0
652,157.57356037499997,160.20336543749997,44.0,43.0
653,159.112020375,160.25625,49.0,41.0
654,159.49663537499998,160.69855725,56.0,70.0
655,158.727405375,161.36041556249998,61.0,61.0
656,158.727405375,161.51426156249997,64.0,66.0
657,161.03509537499997,161.96618418749998,49.0,69.0
658,162.188940375,162.7514398125,49.0,40.0
659,160.26586537499998,163.12643943749998,37.0,77.0
660,160.65048037499997,163.35240075,44.0,37.0
661,162.95817037499998,163.4918236875,49.0,36.0
662,161.804325375,163.53188774999998,64.0,69.0
663,162.57355537499998,164.2177845,63.0,76.0
664,161.419710375,164.3572074375,56.0,58.0
665,164.11201537499997,165.03348881249997,49.0,77.0
666,163.34278537499998,165.70656506249998,37.0,92.0
667,163.72740037499997,165.72419324999998,44.0,39.0
668,165.265860375,165.93733406249999,49.0,38.0
669,164.881245375,166.07996212499998,64.0,77.0
670,165.65047537499998,166.23060299999997,63.0,67.0
671,164.496630375,166.3187439375,56.0,76.0
672,166.03509037499998,166.42291049999997,61.0,63.0
673,167.57355037499997,168.06713962499998,60.0,76.0
674,167.18893537499997,168.2161779375,56.0,77.0
675,168.342780375,168.71297231249997,56.0,61.0
676,166.80432037499997,168.76265174999997,51.0,45.0
677,166.41970537499998,168.86201062499998,44.0,70.0
678,167.958165375,168.86521574999998,63.0,73.0
679,169.11201037499998,169.53188174999997,63.0,62.0
680,167.958165375,169.535086875,68.0,75.0
681,168.727395375,169.54630481249998,60.0,79.0
682,170.65047037499997,171.1408545,57.0,69.0
683,170.26585537499997,171.16489293749999,54.0,77.0
684,171.419700375,171.612007875,54.0,58.0
685,169.88124037499998,171.640854,49.0,53.0
686,169.49662537499998,171.6777129375,42.0,75.0
687,171.035085375,171.96136649999997,61.0,72.0
688,172.18893037499998,172.6328401875,61.0,81.0
689,171.804315375,172.6488658125,57.0,85.0
690,171.035085375,172.67290425,66.0,97.0
691,172.57354537499998,173.6969416875,37.0,82.0
692,172.95816037499998,173.717775,44.0,39.0
693,173.34277537499997,173.8443774375,49.0,76.0
694,173.72739037499997,174.144056625,56.0,88.0
695,174.11200537499997,174.9886070625,42.0,69.0
696,174.496620375,175.0334788125,54.0,78.0
697,174.881235375,175.615209,61.0,86.0
698,174.881235375,175.644055125,66.0,88.0
699,175.26585037499999,175.69052943749998,57.0,72.0
700,176.03508037499998,176.470977375,54.0,48.0
701,175.65046537499998,176.4918106875,47.0,70.0
702,176.80431037499997,177.25943812499997,59.0,67.0
703,176.41969537499998,177.26264324999997,66.0,92.0
704,176.41969537499998,177.26745093749997,63.0,83.0
705,177.958155375,178.16648849999999,56.0,53.0
706,177.573540375,178.17450131249998,51.0,60.0
707,177.18892537499997,178.18251412499998,44.0,50.0
708,178.342770375,178.7321930625,59.0,76.0
709,177.958155375,178.74180843749997,63.0,66.0
710,177.958155375,178.765846875,68.0,76.0
711,179.49661537499998,180.387640125,49.0,85.0
712,179.88123037499997,180.48699899999997,56.0,69.0
713,178.72738537499998,181.21616493749997,37.0,76.0
714,180.65046037499997,181.40686987499998,49.0,49.0
715,179.11200037499998,181.43090831249998,44.0,56.0
716,181.035075375,181.81552331249998,56.0,72.0
717,180.26584537499997,181.85077968749997,61.0,64.0
718,180.26584537499997,181.86360018749997,64.0,70.0
719,182.38122787499998,182.66808656249998,52.0,63.0
720,182.18892037499998,182.72417624999997,49.0,82.0
721,182.57353537499998,183.067124625,56.0,112.0
722,181.80430537499998,183.124816875,37.0,88.0
723,181.99661287499998,183.32032949999999,44.0,32.0
724,182.76584287499998,183.39404737499999,49.0,59.0
725,183.15045787499997,183.419688375,56.0,89.0
726,183.15045787499997,183.42129093749998,61.0,99.0
727,182.95815037499997,183.43411143749998,52.0,67.0
728,183.53507287499997,183.6648804375,56.0,95.0
729,183.53507287499997,183.6777009375,61.0,100.0
730,183.53507287499997,183.68411118749998,52.0,74.0
731,183.72738037499997,184.06071337499998,49.0,35.0
732,184.111995375,184.41167456249997,61.0,127.0
733,184.111995375,184.41648224999997,56.0,127.0
734,183.91968787499997,184.66167431249997,37.0,33.0
735,183.91968787499997,184.75302037499998,44.0,37.0
736,184.496610375,184.76103318749998,52.0,96.0
737,184.304302875,184.79308443749997,49.0,93.0
738,184.688917875,184.81071262499998,56.0,127.0
739,185.26584037499998,185.7257758125,49.0,102.0
740,185.45814787499998,185.74821168749997,52.0,89.0
741,184.88122537499999,186.28987781249998,37.0,97.0
742,185.07353287499998,186.37641618749998,44.0,79.0
743,186.22737787499997,186.38442899999998,52.0,95.0
744,185.84276287499998,186.38763412499998,49.0,82.0
745,186.03507037499998,186.39244181249998,56.0,89.0
746,185.65045537499998,186.4341084375,61.0,117.0
747,186.41968537499997,187.21936406249998,37.0,77.0
748,186.61199287499997,187.233787125,44.0,68.0
749,186.99660787499997,187.29147937499997,61.0,93.0
750,186.80430037499997,187.3764151875,49.0,97.0
751,187.381222875,187.6264149375,61.0,81.0
752,187.573530375,187.80750449999996,64.0,65.0
753,187.18891537499997,187.8475685625,68.0,127.0
754,187.765837875,187.93090181249997,61.0,117.0
755,188.34276037499998,188.75942662499997,54.0,92.0
756,188.53506787499998,188.91487518749997,57.0,82.0
757,187.958145375,189.3059004375,42.0,83.0
758,188.15045287499998,189.36679781249998,49.0,34.0
759,189.11199037499998,189.41166956249998,61.0,102.0
760,189.30429787499997,189.43250287499998,57.0,96.0
761,188.72737537499998,189.43250287499998,66.0,117.0
762,188.91968287499998,189.46936181249998,54.0,89.0
763,189.88122037499997,190.3347455625,54.0,93.0
764,189.68891287499997,190.49980949999997,49.0,37.0
765,189.49660537499997,190.53025818749998,42.0,85.0
766,190.45814287499996,190.59756581249997,54.0,90.0
767,191.227372875,191.91006449999998,54.0,90.0
768,191.41968037499998,191.91647475,59.0,79.0
769,191.61198787499998,192.2770513125,63.0,102.0
770,191.035065375,192.43730756249997,47.0,68.0
771,191.99660287499998,192.4982049375,54.0,86.0
772,192.18891037499998,192.5719228125,59.0,90.0
773,191.80429537499998,192.58153818749997,66.0,102.0
774,193.15044787499997,193.27544774999998,63.0,90.0
775,192.95814037499997,193.28346056249998,59.0,76.0
776,192.76583287499997,193.32352462499998,54.0,96.0
777,192.57352537499997,193.39083225,47.0,85.0
778,193.34275537499997,194.10076743749997,49.0,97.0
779,193.34275537499997,194.10076743749997,56.0,97.0
780,193.34275537499997,194.11839562499998,64.0,97.0
781,193.34275537499997,194.1199981875,61.0,86.0
782,193.34275537499997,194.14403662499998,68.0,95.0
783,194.49660037499999,194.9437153125,56.0,93.0
784,194.68890787499998,194.95813837499998,60.0,92.0
785,194.88121537499998,195.22416374999997,63.0,122.0
786,194.111985375,195.541471125,44.0,65.0
787,194.304292875,195.6280095,51.0,73.0
788,195.26583037499998,195.70012481249998,60.0,79.0
789,195.07352287499998,195.77544525,56.0,100.0
790,195.45813787499998,195.78025293749997,68.0,112.0
791,196.03506037499997,196.45653431249997,56.0,97.0
792,196.22736787499997,196.55268806249998,68.0,79.0
793,195.84275287499997,196.74018787499998,51.0,92.0
794,195.65044537499998,196.75140581249997,44.0,86.0
795,196.61198287499997,196.82352112499998,56.0,95.0
796,196.80429037499997,197.01102093749998,72.0,71.0
797,196.41967537499997,197.10076443749998,75.0,127.0
798,196.996597875,197.19531562499998,68.0,99.0
799,197.573520375,198.00941737499997,56.0,82.0
800,197.76582787499999,198.07832756249996,61.0,73.0
801,197.381212875,198.18089156249997,52.0,38.0
802,197.188905375,198.27384018749999,49.0,86.0
803,198.15044287499998,198.28025043749997,56.0,90.0
804,197.95813537499998,198.56069887499999,68.0,117.0
805,198.34275037499998,198.60396806249997,61.0,97.0
806,198.53505787499998,198.72736537499998,64.0,63.0
807,199.11198037499997,199.51903124999998,54.0,78.0
808,199.30428787499997,199.63281318749998,57.0,86.0
809,198.91967287499997,199.7001208125,49.0,56.0
810,198.72736537499998,199.7578130625,42.0,89.0
811,199.68890287499997,199.86518474999997,54.0,90.0
812,199.49659537499997,200.1872998125,66.0,122.0
813,199.88121037499997,200.20492799999997,61.0,112.0
814,200.07351787499996,200.26422281249998,57.0,95.0
815,200.650440375,201.07832456249997,56.0,85.0
816,200.842747875,201.20652956249998,59.0,76.0
817,200.458132875,201.40364474999998,51.0,63.0
818,201.22736287499998,201.41005499999997,56.0,92.0
819,200.265825375,201.50620874999998,44.0,61.0
820,201.03505537499998,201.66165731249998,68.0,112.0
821,201.41967037499998,201.666465,63.0,107.0
822,201.61197787499998,201.73056749999998,59.0,96.0
823,202.18890037499997,202.65845118749996,52.0,83.0
824,202.38120787499997,202.75781006249997,59.0,82.0
825,201.80428537499998,202.85716893749998,40.0,77.0
826,201.99659287499998,202.89402787499998,47.0,58.0
827,202.76582287499997,202.97255343749998,52.0,76.0
828,202.95813037499997,203.21774549999998,64.0,95.0
829,202.57351537499997,203.22255318749998,68.0,112.0
830,203.15043787499997,203.42127093749997,59.0,85.0
831,203.727360375,204.07191131249996,59.0,79.0
832,203.919667875,204.08633437499998,63.0,107.0
833,203.535052875,204.169667625,54.0,81.0
834,203.34274537499996,204.37960331249997,47.0,76.0
835,204.30428287499998,204.4565263125,54.0,78.0
836,204.111975375,204.79947468749998,66.0,112.0
837,204.49659037499998,204.82030799999998,63.0,117.0
838,204.68889787499998,204.86357718749997,59.0,97.0
839,205.45812787499997,205.61517899999998,63.0,117.0
840,205.26582037499998,205.66966612499996,59.0,85.0
841,205.07351287499998,205.69851224999996,56.0,99.0
842,204.88120537499998,205.96934531249997,44.0,69.0
843,205.84274287499997,206.01581962499998,56.0,93.0
844,206.03505037499997,206.32351162499998,59.0,97.0
845,206.22735787499997,206.3571654375,63.0,117.0
846,205.65043537499997,206.35876799999997,68.0,107.0
847,206.804280375,207.16806206249998,56.0,88.0
848,206.996587875,207.31549781249998,61.0,89.0
849,206.61197287499996,207.46934381249997,52.0,66.0
850,207.38120287499999,207.51581812499998,56.0,99.0
851,206.41966537499997,207.55427962499996,49.0,92.0
852,207.57351037499998,207.72895893749998,64.0,83.0
853,207.76581787499998,207.82351012499998,37.0,50.0
854,207.188895375,207.83152293749998,68.0,112.0
855,207.76581787499998,208.09274062499998,61.0,107.0
856,208.53504787499998,208.66165031249997,64.0,73.0
857,208.15043287499998,208.80427837499997,49.0,99.0
858,208.34274037499998,208.82991937499997,61.0,99.0
859,208.91966287499997,209.28344456249997,49.0,97.0
860,209.11197037499997,209.3603675625,64.0,85.0
861,207.95812537499998,209.381200875,37.0,122.0
862,208.72735537499997,209.43729056249998,68.0,127.0
863,209.30427787499997,209.47254693749997,61.0,117.0
864,209.88120037499996,210.34113581249997,49.0,102.0
865,210.073507875,210.36357168749998,52.0,89.0
866,209.49658537499997,210.9052378125,37.0,97.0
867,209.68889287499996,210.99177618749997,44.0,79.0
868,210.84273787499998,210.99978899999996,52.0,95.0
869,210.458122875,211.002994125,49.0,82.0
870,210.65043037499998,211.00780181249996,56.0,89.0
871,210.265815375,211.04946843749997,61.0,117.0
872,211.03504537499998,211.8347240625,37.0,77.0
873,211.22735287499998,211.84914712499997,44.0,68.0
874,211.61196787499998,211.90683937499998,61.0,93.0
875,211.41966037499998,211.99177518749997,49.0,97.0
876,211.99658287499997,212.24177493749997,61.0,81.0
877,212.18889037499997,212.42286449999997,64.0,65.0
878,211.80427537499997,212.46292856249997,68.0,127.0
879,212.38119787499997,212.54626181249998,61.0,117.0
880,212.95812037499996,213.37478662499998,54.0,92.0
881,213.15042787499996,213.53023518749998,57.0,82.0
882,212.57350537499997,213.92126043749997,42.0,83.0
883,212.76581287499997,213.98215781249996,49.0,34.0
884,213.727350375,214.02702956249996,61.0,102.0
885,213.91965787499998,214.04786287499996,57.0,96.0
886,213.342735375,214.04786287499996,66.0,117.0
887,213.535042875,214.08472181249996,54.0,89.0
888,214.49658037499998,214.95010556249997,54.0,93.0
889,214.68888787499998,214.98856706249998,66.0,100.0
890,214.30427287499998,215.11516949999998,49.0,37.0
891,214.11196537499998,215.14561818749996,42.0,85.0
892,215.07350287499997,215.21292581249998,54.0,90.0
893,215.26581037499997,215.53504087499996,69.0,71.0
894,214.88119537499998,215.53504087499996,73.0,127.0
895,215.45811787499997,215.64561768749996,66.0,92.0
896,215.84273287499997,216.52542449999999,54.0,90.0
897,216.03504037499997,216.53183474999997,59.0,79.0
898,216.22734787499996,216.89241131249997,63.0,102.0
899,215.65042537499997,217.05266756249998,47.0,68.0
900,216.611962875,217.11356493749997,54.0,86.0
901,216.804270375,217.18728281249997,59.0,90.0
902,216.99657787499999,217.19209049999998,63.0,107.0
903,216.41965537499996,217.19689818749998,66.0,102.0
904,217.57350037499998,218.03984606249998,59.0,89.0
905,217.76580787499998,218.06869218749998,71.0,92.0
906,217.38119287499998,218.1151665,54.0,82.0
907,217.18888537499998,218.20010231249998,47.0,83.0
908,218.15042287499998,218.35234574999998,75.0,102.0
909,218.34273037499997,218.68247362499997,71.0,89.0
910,217.95811537499998,218.69849924999997,78.0,127.0
911,218.53503787499997,218.71452487499997,75.0,107.0
912,219.11196037499997,219.55907531249997,56.0,93.0
913,219.30426787499997,219.57349837499999,60.0,92.0
914,219.49657537499996,219.83952374999998,63.0,122.0
915,218.72734537499997,220.15683112499997,44.0,65.0
916,218.91965287499997,220.24336949999997,51.0,73.0
917,219.881190375,220.3154848125,60.0,79.0
918,219.68888287499996,220.39080524999997,56.0,100.0
919,220.073497875,220.39561293749998,68.0,112.0
920,220.65042037499998,221.07189431249998,56.0,97.0
921,220.84272787499998,221.16804806249996,68.0,79.0
922,220.45811287499998,221.35554787499998,51.0,92.0
923,220.26580537499999,221.36676581249998,44.0,86.0
924,221.22734287499998,221.43888112499997,56.0,95.0
925,221.41965037499997,221.6263809375,72.0,71.0
926,221.03503537499998,221.71612443749999,75.0,127.0
927,221.61195787499997,221.810675625,68.0,99.0
928,222.18888037499997,222.62477737499998,56.0,82.0
929,222.38118787499997,222.69368756249997,61.0,73.0
930,221.99657287499997,222.79625156249998,52.0,38.0
931,221.80426537499997,222.88920018749997,49.0,86.0
932,222.76580287499996,222.89561043749998,56.0,90.0
933,222.57349537499996,223.17605887499997,68.0,117.0
934,222.95811037499996,223.21932806249998,61.0,97.0
935,223.150417875,223.342725375,64.0,63.0
936,223.91964787499998,224.19048093749998,56.0,95.0
937,223.72734037499998,224.25137831249998,52.0,90.0
938,224.30426287499998,224.53663443749997,52.0,76.0
939,223.53503287499998,224.70009581249997,47.0,85.0
940,223.342725375,224.80265981249997,40.0,67.0
941,224.49657037499998,224.85394181249998,59.0,72.0
942,224.68887787499997,224.89881356249998,56.0,96.0
943,224.11195537499998,224.91163406249999,64.0,83.0
944,225.26580037499997,225.69368456249998,56.0,85.0
945,225.45810787499997,225.82188956249996,59.0,76.0
946,225.07349287499997,226.01900474999997,51.0,63.0
947,225.84272287499996,226.02541499999998,56.0,92.0
948,224.88118537499997,226.12156874999997,44.0,61.0
949,225.65041537499997,226.27701731249996,68.0,112.0
950,226.03503037499996,226.28182499999997,63.0,107.0
951,226.22733787499996,226.3459275,59.0,96.0
952,226.80426037499998,227.27381118749997,52.0,83.0
953,226.99656787499998,227.37317006249998,59.0,82.0
954,226.419645375,227.4725289375,40.0,77.0
955,226.611952875,227.509387875,47.0,58.0
956,227.38118287499998,227.58791343749996,52.0,76.0
957,227.57349037499998,227.8331055,64.0,95.0
958,227.18887537499998,227.83791318749996,68.0,112.0
959,227.76579787499998,228.03663093749998,59.0,85.0
960,228.34272037499997,228.68727131249997,59.0,79.0
961,228.53502787499997,228.701694375,63.0,107.0
962,228.15041287499997,228.78502762499997,54.0,81.0
963,227.95810537499997,228.99496331249998,47.0,76.0
964,228.91964287499997,229.07188631249997,54.0,78.0
965,228.72733537499997,229.41483468749996,66.0,112.0
966,229.11195037499996,229.43566799999996,63.0,117.0
967,229.30425787499996,229.47893718749998,59.0,97.0
968,230.07348787499998,230.23053899999996,63.0,117.0
969,229.88118037499999,230.28502612499997,59.0,85.0
970,229.688872875,230.31387224999997,56.0,99.0
971,229.49656537499996,230.58470531249998,44.0,69.0
972,230.45810287499998,230.631179625,56.0,93.0
973,230.65041037499998,230.93887162499996,59.0,97.0
974,230.84271787499998,230.97252543749997,63.0,117.0
975,230.26579537499998,230.97412799999998,68.0,107.0
976,231.41964037499997,231.78342206249997,56.0,88.0
977,231.61194787499997,231.93085781249997,61.0,89.0
978,231.22733287499997,232.08470381249998,52.0,66.0
979,231.99656287499997,232.13117812499996,56.0,99.0
980,231.03502537499998,232.16963962499997,49.0,92.0
981,232.18887037499996,232.34431893749996,64.0,83.0
982,232.38117787499996,232.43887012499997,37.0,50.0
983,231.80425537499997,232.44688293749996,68.0,112.0
984,232.38117787499996,232.708100625,61.0,107.0
985,233.15040787499998,233.27701031249998,64.0,73.0
986,232.76579287499996,233.41963837499998,49.0,99.0
987,232.958100375,233.44527937499998,61.0,99.0
988,233.53502287499998,233.89880456249998,49.0,97.0
989,233.72733037499998,233.97572756249997,64.0,85.0
990,232.57348537499996,233.99656087499997,37.0,122.0
991,233.34271537499998,234.05265056249996,68.0,127.0
992,233.91963787499998,234.08790693749998,61.0,117.0
993,234.49656037499997,234.95649581249998,49.0,102.0
994,234.68886787499997,234.97893168749997,52.0,89.0
995,234.11194537499998,235.52059781249997,37.0,97.0
996,234.30425287499997,235.60713618749998,44.0,79.0
997,235.45809787499996,235.61514899999997,52.0,95.0
998,235.07348287499997,235.61835412499997,49.0,82.0
999,235.26579037499997,235.62316181249997,56.0,89.0
1000,234.88117537499997,235.66482843749998,61.0,117.0
1001,235.65040537499996,236.45008406249997,37.0,77.0
1002,235.84271287499996,236.46450712499998,44.0,68.0
1003,236.227327875,236.52219937499999,61.0,93.0
1004,236.03502037499996,236.60713518749998,49.0,97.0
1005,236.61194287499998,236.85713493749998,61.0,81.0
1006,236.80425037499998,237.03822449999998,64.0,65.0
1007,236.41963537499998,237.07828856249998,68.0,127.0
1008,236.99655787499998,237.1616218125,61.0,117.0
1009,237.57348037499997,237.99014662499997,54.0,92.0
1010,237.76578787499997,238.14559518749996,57.0,82.0
1011,237.18886537499998,238.53662043749998,42.0,83.0
1012,237.38117287499998,238.59751781249997,49.0,34.0
1013,238.34271037499997,238.64238956249997,61.0,102.0
1014,238.53501787499997,238.66322287499997,57.0,96.0
1015,237.95809537499997,238.66322287499997,66.0,117.0
1016,238.15040287499997,238.70008181249997,54.0,89.0
1017,239.11194037499996,239.56546556249998,54.0,93.0
1018,239.304247875,239.60392706249996,66.0,100.0
1019,238.91963287499996,239.73052949999996,49.0,37.0
1020,238.72732537499996,239.76097818749997,42.0,85.0
1021,239.68886287499998,239.82828581249998,54.0,90.0
1022,239.88117037499998,240.15040087499997,69.0,71.0
1023,239.49655537499999,240.15040087499997,73.0,127.0
1024,240.07347787499998,240.26097768749997,66.0,92.0
1025,240.45809287499998,241.14078449999997,54.0,90.0
1026,240.65040037499998,241.14719474999998,59.0,79.0
1027,240.84270787499997,241.50777131249998,63.0,102.0
1028,240.26578537499998,241.6680275625,47.0,68.0
1029,241.22732287499997,241.72892493749998,54.0,86.0
1030,241.41963037499997,241.80264281249998,59.0,90.0
1031,241.61193787499997,241.80745049999996,63.0,107.0
1032,241.03501537499997,241.81225818749996,66.0,102.0
1033,241.80424537499997,242.54783437499998,47.0,83.0
1034,242.18886037499996,242.65520606249999,59.0,89.0
1035,241.99655287499996,242.73052649999997,54.0,82.0
1036,242.54623181249997,243.30424387499997,49.0,97.0
1037,242.54623181249997,243.30424387499997,56.0,97.0
1038,242.54623181249997,243.32187206249998,64.0,97.0
1039,242.54623181249997,243.32347462499996,61.0,86.0
1040,242.54623181249997,243.34751306249998,68.0,95.0
1041,243.72732037499998,244.17443531249998,56.0,93.0
1042,243.91962787499997,244.18885837499997,60.0,92.0
1043,244.11193537499997,244.45488374999996,63.0,122.0
1044,243.34270537499998,244.77219112499998,44.0,98.0
1045,243.53501287499998,244.85872949999998,51.0,73.0
1046,244.49655037499997,244.93084481249997,60.0,79.0
1047,244.30424287499997,245.00616524999998,56.0,100.0
1048,244.68885787499997,245.0109729375,68.0,112.0
1049,244.88116537499997,245.38757512499998,39.0,92.0
1050,245.26578037499996,245.50295962499996,54.0,77.0
1051,245.07347287499996,245.55424162499997,51.0,86.0
1052,245.45808787499996,245.60712618749997,58.0,75.0
1053,245.842702875,246.3507151875,56.0,79.0
1054,246.03501037499998,246.38276643749998,60.0,88.0
1055,245.65039537499996,246.39077924999998,44.0,88.0
1056,246.22731787499998,246.46770224999997,63.0,73.0
1057,246.80424037499998,247.24013737499996,56.0,82.0
1058,246.99654787499998,247.30904756249998,61.0,73.0
1059,246.61193287499998,247.41161156249998,52.0,38.0
1060,246.41962537499998,247.50456018749998,49.0,86.0
1061,247.38116287499997,247.51097043749996,56.0,90.0
1062,247.18885537499997,247.79141887499998,68.0,117.0
1063,247.57347037499997,247.83468806249996,61.0,97.0
1064,247.76577787499997,247.95808537499997,64.0,63.0
1065,248.34270037499996,248.74975124999997,54.0,78.0
1066,248.53500787499996,248.86353318749997,57.0,86.0
1067,248.15039287499997,248.93084081249998,49.0,56.0
1068,247.95808537499997,248.98853306249998,42.0,89.0
1069,248.91962287499996,249.09590474999996,54.0,90.0
1070,248.72731537499996,249.41801981249998,66.0,122.0
1071,249.111930375,249.43564799999996,61.0,112.0
1072,249.30423787499998,249.49494281249997,57.0,95.0
1073,249.88116037499998,250.30904456249996,56.0,85.0
1074,250.07346787499998,250.43724956249997,59.0,76.0
1075,249.68885287499998,250.63436474999997,51.0,63.0
1076,250.45808287499997,250.64077499999996,56.0,92.0
1077,249.49654537499998,250.73692874999998,44.0,61.0
1078,250.26577537499998,250.89237731249997,68.0,112.0
1079,250.65039037499997,250.89718499999998,63.0,107.0
1080,250.84269787499997,250.96128749999997,59.0,96.0
1081,251.41962037499997,251.88917118749998,52.0,83.0
1082,251.61192787499996,251.98853006249996,59.0,82.0
1083,251.03500537499997,252.08788893749997,40.0,77.0
1084,251.22731287499997,252.12474787499997,47.0,58.0
1085,251.99654287499996,252.20327343749997,52.0,76.0
1086,252.18885037499996,252.44846549999997,64.0,95.0
1087,251.80423537499996,252.45327318749997,68.0,112.0
1088,252.38115787499999,252.65199093749996,59.0,85.0
1089,252.95808037499998,253.30263131249998,59.0,79.0
1090,253.15038787499998,253.31705437499997,63.0,107.0
1091,252.76577287499998,253.40038762499998,54.0,81.0
1092,252.57346537499998,253.61032331249996,47.0,76.0
1093,253.53500287499998,253.68724631249998,54.0,78.0
1094,253.34269537499998,254.03019468749997,66.0,112.0
1095,253.72731037499997,254.05102799999997,63.0,117.0
1096,253.91961787499997,254.09429718749996,59.0,97.0
1097,254.68884787499996,254.84589899999997,63.0,117.0
1098,254.49654037499997,254.90038612499998,59.0,85.0
1099,254.30423287499997,254.92923224999998,56.0,99.0
1100,254.11192537499997,255.20006531249996,44.0,69.0
1101,255.07346287499996,255.24653962499997,56.0,93.0
1102,255.26577037499996,255.55423162499997,59.0,97.0
1103,255.45807787499996,255.58788543749998,63.0,117.0
1104,254.88115537499996,255.58948799999996,68.0,107.0
1105,256.035000375,256.39878206249995,56.0,88.0
1106,256.22730787499995,256.54621781249995,61.0,89.0
1107,255.84269287499998,256.7000638125,52.0,66.0
1108,256.61192287499995,256.746538125,56.0,99.0
1109,255.65038537499998,256.78499962499995,49.0,92.0
1110,256.804230375,256.9596789375,64.0,83.0
1111,256.99653787499994,257.05423012499995,37.0,50.0
1112,256.419615375,257.06224293749995,68.0,112.0
1113,256.99653787499994,257.323460625,61.0,107.0
1114,257.765767875,257.89237031249996,64.0,73.0
1115,257.381152875,258.034998375,49.0,99.0
1116,257.57346037499997,258.060639375,61.0,99.0
1117,258.150382875,258.51416456249996,49.0,97.0
1118,258.34269037499996,258.5910875625,64.0,85.0
1119,257.18884537499997,258.61192087499995,37.0,122.0
1120,257.95807537499996,258.66801056249994,68.0,127.0
1121,258.534997875,258.70326693749996,61.0,117.0
1122,259.11192037499995,259.57185581249996,49.0,102.0
1123,259.304227875,259.59429168749995,52.0,89.0
1124,258.72730537499996,260.13595781249995,37.0,97.0
1125,258.919612875,260.2224961875,44.0,79.0
1126,260.073457875,260.230509,52.0,95.0
1127,259.688842875,260.23371412499995,49.0,82.0
1128,259.88115037499995,260.2385218125,56.0,89.0
1129,259.49653537499995,260.2801884375,61.0,117.0
1130,260.26576537499994,261.0654440625,37.0,77.0
1131,260.45807287499997,261.07986712499996,44.0,68.0
1132,260.84268787499997,261.13755937499997,61.0,93.0
1133,260.650380375,261.2224951875,49.0,97.0
1134,261.22730287499996,261.47249493749996,61.0,81.0
1135,261.419610375,261.65358449999997,64.0,65.0
1136,261.034995375,261.69364856249996,68.0,127.0
1137,261.61191787499996,261.77698181249997,61.0,117.0
1138,262.188840375,262.605506625,54.0,92.0
1139,262.38114787499995,262.7609551875,57.0,82.0
1140,261.804225375,263.15198043749996,42.0,83.0
1141,261.99653287499996,263.2128778125,49.0,34.0
1142,262.958070375,263.25774956249995,61.0,102.0
1143,263.15037787499995,263.278582875,57.0,96.0
1144,262.573455375,263.278582875,66.0,117.0
1145,262.76576287499995,263.31544181249996,54.0,89.0
1146,263.72730037499997,264.1808255625,54.0,93.0
1147,263.919607875,264.2192870625,66.0,100.0
1148,263.53499287499994,264.3458895,49.0,37.0
1149,263.342685375,264.3763381875,42.0,85.0
1150,264.304222875,264.4436458125,54.0,90.0
1151,264.49653037499996,264.76576087499996,69.0,71.0
1152,264.11191537499997,264.76576087499996,73.0,127.0
1153,264.688837875,264.8763376875,66.0,92.0
1154,265.073452875,265.75614449999995,54.0,90.0
1155,265.26576037499996,265.76255475,59.0,79.0
1156,265.458067875,266.1231313125,63.0,102.0
1157,264.88114537499996,266.28338756249997,47.0,68.0
1158,265.842682875,266.3442849375,54.0,86.0
1159,266.03499037499995,266.4180028125,59.0,90.0
1160,266.227297875,266.42281049999997,63.0,107.0
1161,265.65037537499995,266.42761818749995,66.0,102.0
1162,266.611912875,267.17922,54.0,82.0
1163,266.41960537499995,267.2433225,47.0,83.0
1164,266.80422037499994,267.2705660625,59.0,89.0
1165,267.18402768749996,267.94203975,49.0,97.0
1166,267.18402768749996,267.94203975,56.0,97.0
1167,267.18402768749996,267.95966793749994,64.0,97.0
1168,267.18402768749996,267.96127049999996,61.0,86.0
1169,267.18402768749996,267.98530893749995,68.0,95.0
1170,268.342680375,268.78979531249996,56.0,93.0
1171,268.53498787499996,268.80421837499995,60.0,92.0
1172,268.727295375,269.07024375,63.0,122.0
1173,267.958065375,269.38755112499996,44.0,65.0
1174,268.15037287499996,269.4740895,51.0,73.0
1175,269.111910375,269.5462048125,60.0,79.0
1176,268.91960287499995,269.62152525,56.0,100.0
1177,269.30421787499995,269.62633293749997,68.0,112.0
1178,269.881140375,270.3026143125,56.0,97.0
1179,270.07344787499994,270.3987680625,68.0,79.0
1180,269.68883287499995,270.586267875,51.0,92.0
1181,269.496525375,270.5974858125,44.0,86.0
1182,270.458062875,270.669601125,56.0,95.0
1183,270.65037037499997,270.8571009375,72.0,71.0
1184,270.26575537499997,270.9468444375,75.0,127.0
1185,270.842677875,271.04139562499995,68.0,99.0
1186,271.41960037499996,271.85549737499997,56.0,82.0
1187,271.611907875,271.9244075625,61.0,73.0
1188,271.227292875,272.02697156249997,52.0,38.0
1189,271.03498537499996,272.1199201875,49.0,86.0
1190,271.996522875,272.1263304375,56.0,90.0
1191,271.80421537499996,272.406778875,68.0,117.0
1192,272.18883037499995,272.45004806249995,61.0,97.0
1193,272.381137875,272.57344537499995,64.0,63.0
1194,273.150367875,273.4212009375,56.0,95.0
1195,272.95806037499995,273.48209831249994,52.0,90.0
1196,273.53498287499997,273.7673544375,52.0,76.0
1197,272.765752875,273.9308158125,47.0,85.0
1198,272.57344537499995,274.03337981249996,40.0,67.0
1199,273.727290375,274.0846618125,59.0,72.0
1200,273.91959787499997,274.12953356249994,56.0,96.0
1201,273.34267537499994,274.1423540625,64.0,83.0
1202,274.496520375,274.92440456249994,56.0,85.0
1203,274.68882787499996,275.0526095625,59.0,76.0
1204,274.30421287499996,275.24972475,51.0,63.0
1205,275.07344287499996,275.256135,56.0,92.0
1206,274.111905375,275.35228874999996,44.0,61.0
1207,274.881135375,275.50773731249996,68.0,112.0
1208,275.265750375,275.512545,63.0,107.0
1209,275.45805787499995,275.5766475,59.0,96.0
1210,276.034980375,276.5045311875,52.0,83.0
1211,276.22728787499994,276.60389006249994,59.0,82.0
1212,275.650365375,276.70324893749995,40.0,77.0
1213,275.84267287499995,276.740107875,47.0,58.0
1214,276.61190287499994,276.81863343749995,52.0,76.0
1215,276.80421037499997,277.06382549999995,64.0,95.0
1216,276.419595375,277.0686331875,68.0,112.0
1217,276.996517875,277.26735093749994,59.0,85.0
1218,277.57344037499996,277.91799131249996,59.0,79.0
1219,277.765747875,277.93241437499995,63.0,107.0
1220,277.381132875,278.01574762499996,54.0,81.0
1221,277.18882537499996,278.2256833125,47.0,76.0
1222,278.150362875,278.30260631249996,54.0,78.0
1223,277.95805537499996,278.64555468749995,66.0,112.0
1224,278.34267037499995,278.666388,63.0,117.0
1225,278.534977875,278.70965718749994,59.0,97.0
1226,279.304207875,279.461259,63.0,117.0
1227,279.11190037499995,279.51574612499996,59.0,85.0
1228,278.919592875,279.54459225,56.0,99.0
1229,278.72728537499995,279.8154253125,44.0,69.0
1230,279.68882287499997,279.861899625,56.0,93.0
1231,279.88113037499994,280.16959162499995,59.0,97.0
1232,280.07343787499997,280.20324543749996,63.0,117.0
1233,279.49651537499994,280.20484799999997,68.0,107.0
1234,280.650360375,281.01414206249996,56.0,88.0
1235,280.84266787499996,281.16157781249996,61.0,89.0
1236,280.45805287499996,281.31542381249994,52.0,66.0
1237,281.22728287499996,281.361898125,56.0,99.0
1238,280.265745375,281.40035962499996,49.0,92.0
1239,281.419590375,281.5750389375,64.0,83.0
1240,281.61189787499995,281.66959012499996,37.0,50.0
1241,281.034975375,281.67760293749996,68.0,112.0
1242,281.61189787499995,281.93882062499995,61.0,107.0
1243,282.38112787499995,282.5077303125,64.0,73.0
1244,281.99651287499995,282.650358375,49.0,99.0
1245,282.188820375,282.67599937499995,61.0,99.0
1246,282.76574287499994,283.12952456249997,49.0,97.0
1247,282.95805037499997,283.2064475625,64.0,85.0
1248,281.804205375,283.22728087499996,37.0,122.0
1249,282.573435375,283.28337056249995,68.0,127.0
1250,283.15035787499994,283.31862693749997,61.0,117.0
1251,283.72728037499996,284.08785693749996,49.0,67.0
1252,283.919587875,284.22727987499997,61.0,78.0
1253,283.34266537499997,284.6808050625,37.0,76.0
1254,284.304202875,284.8025998125,49.0,61.0
1255,283.534972875,284.80740749999995,44.0,60.0
1256,284.49651037499996,284.88753562499994,64.0,53.0
1257,284.11189537499996,284.93240737499997,68.0,102.0
1258,284.688817875,284.98849706249996,61.0,75.0
1259,285.073432875,285.58625287499996,44.0,67.0
1260,284.88112537499995,285.59426568749996,37.0,76.0
1261,285.26574037499995,285.72567581249996,49.0,72.0
1262,285.458047875,285.74009887499994,61.0,73.0
1263,285.842662875,286.09426518749996,61.0,82.0
1264,286.03497037499994,286.252918875,64.0,39.0
1265,285.65035537499995,286.3202265,68.0,117.0
1266,286.22727787499997,286.384329,61.0,88.0
1267,286.804200375,287.20964868749996,54.0,83.0
1268,286.99650787499996,287.342661375,57.0,75.0
1269,286.41958537499994,287.83785318749995,42.0,55.0
1270,286.61189287499997,287.8666993125,49.0,59.0
1271,287.38112287499996,287.88913518749996,54.0,78.0
1272,287.573430375,288.03657093749996,61.0,67.0
1273,287.76573787499996,288.2449040625,57.0,82.0
1274,287.188815375,288.28977581249995,66.0,117.0
1275,288.15035287499995,288.6968266875,49.0,35.0
1276,288.342660375,288.71765999999997,54.0,81.0
1277,287.958045375,288.7352881875,42.0,85.0
1278,288.53496787499995,288.83785218749995,57.0,86.0
1279,288.91958287499995,289.14714675,61.0,71.0
1280,289.111890375,289.3923388125,57.0,82.0
1281,289.30419787499994,289.432402875,61.0,86.0
1282,288.727275375,289.48047975,66.0,122.0
1283,289.88112037499997,290.179197,59.0,77.0
1284,290.073427875,290.25772256249996,63.0,100.0
1285,289.68881287499994,290.33144043749996,54.0,73.0
1286,289.49650537499997,290.8602860625,47.0,64.0
1287,290.26573537499996,290.9500295625,66.0,102.0
1288,290.458042875,291.03496537499996,54.0,79.0
1289,290.65035037499996,291.137529375,63.0,90.0
1290,290.842657875,291.18079856249994,59.0,82.0
1291,291.611887875,291.77374668749997,63.0,92.0
1292,291.227272875,291.82182356249996,54.0,89.0
1293,291.41958037499995,291.87791324999995,59.0,74.0
1294,291.996502875,292.07022075,54.0,82.0
1295,291.03496537499996,292.07342587499994,47.0,79.0
1296,291.80419537499995,292.50131006249995,66.0,117.0
1297,292.18881037499995,292.53496387499996,63.0,107.0
1298,292.381117875,292.56381,59.0,92.0
1299,292.95804037499994,293.34746306249997,56.0,90.0
1300,293.15034787499997,293.45483475,60.0,78.0
1301,292.57342537499994,293.94361631249996,44.0,68.0
1302,292.76573287499997,294.01893674999997,51.0,75.0
1303,293.53496287499996,294.0365649375,56.0,99.0
1304,293.727270375,294.1615648125,63.0,100.0
1305,293.342655375,294.19682118749995,68.0,127.0
1306,293.91957787499996,294.25611599999996,60.0,97.0
1307,294.68880787499995,294.8090000625,68.0,93.0
1308,294.68880787499995,294.8154103125,63.0,97.0
1309,294.496500375,294.922782,56.0,97.0
1310,294.30419287499996,295.12470487499996,51.0,69.0
1311,295.07342287499995,295.15675612499996,56.0,96.0
1312,294.111885375,295.20643556249996,44.0,81.0
1313,294.881115375,295.26092268749994,63.0,127.0
1314,295.265730375,295.28816624999996,59.0,96.0
1315,295.265730375,295.50130706249996,60.0,100.0
1316,294.881115375,295.54137112499996,68.0,122.0
1317,295.45803787499995,295.7000248125,63.0,122.0
1318,296.03496037499997,296.44361381249996,49.0,99.0
1319,296.22726787499994,296.5525880625,52.0,89.0
1320,295.650345375,297.05579268749995,37.0,66.0
1321,295.84265287499994,297.1519464375,44.0,88.0
1322,296.996497875,297.1743823125,52.0,97.0
1323,296.80419037499996,297.18560025,56.0,99.0
1324,296.41957537499997,297.18560025,61.0,122.0
1325,296.611882875,297.208036125,49.0,93.0
1326,297.18880537499996,297.93399693749996,37.0,77.0
1327,297.381112875,297.9628430625,44.0,73.0
1328,297.765727875,298.034958375,61.0,92.0
1329,297.57342037499996,298.07983012499994,49.0,93.0
1330,298.150342875,298.3955349375,61.0,97.0
1331,298.34265037499995,298.54136812499996,64.0,56.0
1332,297.95803537499995,298.6022655,68.0,127.0
1333,298.534957875,298.68720131249995,61.0,102.0
1334,299.11188037499994,299.53335431249997,54.0,82.0
1335,299.30418787499997,299.682392625,57.0,86.0
1336,298.72726537499994,300.16957162499995,42.0,72.0
1337,298.919572875,300.182392125,49.0,59.0
1338,299.68880287499996,300.3218150625,54.0,92.0
1339,300.07341787499996,300.6679685625,57.0,92.0
1340,299.881110375,300.67918649999996,61.0,99.0
1341,299.49649537499994,300.73687874999996,66.0,102.0
1342,300.45803287499996,300.92437856249995,49.0,34.0
1343,300.265725375,301.0013015625,42.0,86.0
1344,300.650340375,301.0013015625,54.0,93.0
1345,300.84264787499995,301.10707068749997,57.0,93.0
1346,301.22726287499995,301.46604468749996,57.0,72.0
1347,301.034955375,301.5846343125,66.0,112.0
1348,301.419570375,301.7000188125,61.0,107.0
1349,301.61187787499995,301.740082875,57.0,81.0
1350,302.18880037499997,302.49649237499995,59.0,86.0
1351,302.38110787499994,302.53815899999995,63.0,99.0
1352,301.99649287499994,302.64392812499995,54.0,89.0
1353,301.804185375,303.20963268749995,47.0,63.0
1354,302.57341537499997,303.2384788125,66.0,102.0
1355,302.765722875,303.34905562499995,54.0,89.0
1356,302.95803037499996,303.39873506249995,63.0,92.0
1357,303.150337875,303.435594,59.0,82.0
1358,303.72726037499996,304.07181131249996,59.0,92.0
1359,303.919567875,304.0910420625,63.0,93.0
1360,303.534952875,304.24488806249997,54.0,79.0
1361,303.34264537499996,304.36668281249996,47.0,66.0
1362,304.304182875,304.4692468125,63.0,95.0
1363,304.49649037499995,304.82501568749996,59.0,95.0
1364,304.11187537499995,304.8859130625,66.0,97.0
1365,304.688797875,304.9019386875,63.0,100.0
1366,305.26572037499994,305.69360456249996,49.0,85.0
1367,305.45802787499997,305.69841225,52.0,73.0
1368,305.65033537499994,306.0814246875,56.0,102.0
1369,304.88110537499995,306.29136037499995,37.0,72.0
1370,305.073412875,306.336232125,44.0,55.0
1371,305.84264287499997,306.51411656249996,49.0,83.0
1372,306.034950375,306.7288599375,52.0,71.0
1373,306.61187287499996,311.522124375,44.0,52.0
1374,306.804180375,311.54456024999996,49.0,59.0
1375,306.419565375,311.66475243749994,37.0,63.0
1376,306.22725787499996,311.6711626875,61.0,96.0
