,start,end,pitch,velocity
0,15.249983733333334,15.562483400000001,59.0,89.0
1,15.691159733333334,16.02387996666667,59.0,100.0
2,16.132335733333335,16.226085633333334,59.0,92.0
3,16.352923733333334,16.468732433333333,59.0,93.0
4,16.794099733333333,17.746304600000002,54.0,92.0
5,17.897039733333333,18.02020136666667,54.0,74.0
6,18.117627733333336,18.545936100000002,61.0,79.0
7,18.779391733333334,19.01836206666667,63.0,89.0
8,18.999979733333333,20.2444637,59.0,65.0
9,22.308799733333334,22.488946600000002,59.0,95.0
10,22.749975733333336,22.935637300000003,59.0,97.0
11,23.191151733333335,23.284901633333334,59.0,95.0
12,23.411739733333334,23.545930766666668,59.0,92.0
13,23.852915733333337,24.01468026666667,59.0,100.0
14,24.514679733333335,24.68747366666667,59.0,86.0
15,24.955855733333337,25.2407819,51.0,76.0
16,25.397031733333336,25.920928233333335,52.0,95.0
17,26.058795733333334,27.641514633333337,59.0,86.0
18,29.367615733333334,29.591880200000002,59.0,100.0
19,29.808791733333337,30.029379733333336,59.0,93.0
20,30.249967733333335,30.36209996666667,59.0,89.0
21,30.470555733333335,30.9209229,59.0,88.0
22,31.132319733333336,31.2848931,59.0,95.0
23,31.352907733333335,31.87864246666667,61.0,97.0
24,32.01467173333334,32.113936333333335,63.0,102.0
25,32.455847733333336,32.86945023333334,64.0,100.0
26,32.897023733333334,33.033053,59.0,90.0
27,33.117611733333334,33.47606723333334,61.0,95.0
28,33.77937573333334,35.319815266666666,59.0,95.0
29,36.42643173333334,36.69849026666667,63.0,93.0
30,36.86760773333334,37.23893086666667,63.0,95.0
31,37.308783733333335,37.62495986666667,66.0,100.0
32,37.749959733333334,38.09922406666667,66.0,99.0
33,38.19113573333333,38.4870913,59.0,90.0
34,38.63231173333334,38.9723849,59.0,97.0
35,39.07348773333334,39.430105000000005,56.0,95.0
36,39.514663733333336,40.27569233333334,63.0,107.0
37,40.83819173333334,41.05326503333334,64.0,93.0
38,41.05877973333334,42.38782243333333,61.0,90.0
39,47.014655733333335,47.222376100000005,54.0,92.0
40,47.235243733333334,47.84921366666667,59.0,92.0
41,47.89700773333334,48.1047281,61.0,99.0
42,48.11759573333334,48.751786233333334,63.0,97.0
43,48.77935973333334,49.1470064,61.0,99.0
44,49.220535733333335,49.652520566666674,59.0,93.0
45,49.661711733333334,50.130461233333335,58.0,88.0
46,50.10288773333334,50.62678423333334,59.0,93.0
47,50.54406373333334,50.62678423333334,59.0,96.0
48,50.76465173333334,51.13597486666667,59.0,82.0
49,51.426415733333336,51.595533200000006,61.0,90.0
50,51.647003733333335,52.23707663333334,63.0,95.0
51,52.30876773333334,52.38781176666667,61.0,96.0
52,52.52935573333334,53.051414,59.0,88.0
53,52.97053173333334,53.60104576666667,61.0,83.0
54,54.073471733333335,54.327147933333336,66.0,97.0
55,54.51464773333334,54.78486803333334,66.0,100.0
56,54.95582373333334,55.04773540000001,66.0,93.0
57,55.17641173333334,55.38780856666667,66.0,100.0
58,55.61758773333334,55.89516096666667,58.0,90.0
59,56.058763733333336,56.52199853333334,59.0,85.0
60,56.94111573333334,57.08633616666667,56.0,97.0
61,57.16170373333334,57.48339456666667,61.0,100.0
62,57.60287973333334,57.73707076666667,63.0,93.0
63,57.82346773333334,58.17273206666667,64.0,99.0
64,58.485231733333336,58.62861393333334,63.0,86.0
65,58.705819733333335,59.21868683333334,61.0,88.0
66,59.36758373333334,60.082656500000006,63.0,95.0
67,61.132287733333335,61.341846333333336,54.0,96.0
68,61.352875733333335,61.906183966666674,59.0,122.0
69,62.01463973333334,62.19846306666667,61.0,102.0
70,62.23522773333334,62.702139,63.0,117.0
71,62.89699173333334,62.988903400000005,61.0,102.0
72,63.117579733333336,63.63596153333334,59.0,95.0
73,63.77934373333334,63.942946500000005,58.0,93.0
74,63.99993173333334,64.65250456666668,59.0,96.0
75,64.66169573333333,64.71316626666668,59.0,96.0
76,64.88228373333334,65.18007753333333,59.0,97.0
77,65.32345973333334,65.56610653333334,61.0,102.0
78,65.76463573333334,66.17823823333333,63.0,102.0
79,66.42639973333334,66.53853196666667,64.0,99.0
80,66.64698773333333,67.03117850000001,63.0,89.0
81,67.30875173333334,67.78853063333334,59.0,99.0
82,68.19110373333334,68.48338283333334,66.0,117.0
83,68.63227973333333,68.90250003333334,66.0,117.0
84,69.07345573333333,69.24257320000001,68.0,112.0
85,69.29404373333334,69.57529343333334,66.0,112.0
86,69.95580773333334,70.10470463333334,58.0,99.0
87,70.17639573333334,70.76095393333334,59.0,107.0
88,70.83815973333334,70.99257133333334,61.0,100.0
89,71.05874773333333,71.19845346666668,63.0,90.0
90,71.27933573333334,72.2205112,64.0,102.0
91,72.82345173333334,72.95764276666667,56.0,90.0
92,73.04403973333334,73.27749536666667,63.0,100.0
93,73.48521573333333,73.60837736666667,61.0,99.0
94,73.70580373333334,74.18374440000001,59.0,100.0
95,74.36756773333335,74.71499383333334,58.0,92.0
96,74.80874373333334,76.70763876666668,59.0,100.0
97,89.36755173333334,89.58813973333334,59.0,100.0
98,89.80872773333334,89.93372760000001,59.0,100.0
99,90.02931573333333,90.21313906666667,59.0,107.0
100,90.47049173333335,90.85100603333333,59.0,102.0
101,90.91166773333335,91.24254973333333,59.0,96.0
102,91.57343173333334,91.82894616666667,61.0,100.0
103,92.01460773333334,92.11019586666667,63.0,102.0
104,92.23519573333334,92.51276896666667,61.0,100.0
105,92.89695973333335,94.30872293333334,59.0,112.0
106,96.42636773333334,96.60651460000001,59.0,95.0
107,96.86754373333333,97.0532053,59.0,97.0
108,97.30871973333335,97.40246963333334,59.0,95.0
109,97.52930773333334,97.66349876666668,59.0,92.0
110,97.97048373333334,98.13224826666668,59.0,100.0
111,98.63224773333334,98.80504166666667,59.0,86.0
112,99.07342373333334,99.35834990000001,51.0,76.0
113,99.51459973333334,100.03849623333335,52.0,95.0
114,100.17636373333335,101.75908263333334,59.0,86.0
115,101.94106773333334,102.13592046666668,63.0,92.0
116,102.16165573333335,102.75356686666667,61.0,89.0
117,102.82341973333334,102.97599310000001,63.0,75.0
118,103.04400773333334,103.24805163333335,59.0,93.0
119,103.48518373333334,103.70944820000001,59.0,100.0
120,103.92635973333334,104.14694773333333,59.0,93.0
121,104.36753573333334,104.47966796666667,59.0,89.0
122,104.58812373333335,105.03849090000001,59.0,88.0
123,105.24988773333334,105.40246110000001,59.0,95.0
124,105.47047573333334,105.99621046666668,61.0,97.0
125,106.13223973333334,106.23150433333335,63.0,102.0
126,106.57341573333335,106.98701823333334,64.0,100.0
127,107.01459173333335,107.15062100000002,59.0,90.0
128,107.23517973333334,107.59363523333334,61.0,95.0
129,107.89694373333334,109.43738326666667,59.0,95.0
130,110.54399973333334,110.81605826666667,63.0,93.0
131,110.98517573333334,111.35649886666667,63.0,95.0
132,111.42635173333335,111.74252786666668,66.0,100.0
133,111.86752773333335,112.21679206666667,66.0,99.0
134,112.30870373333335,112.60465930000001,59.0,90.0
135,112.74987973333334,113.08995290000001,59.0,97.0
136,113.19105573333334,113.547673,56.0,95.0
137,113.63223173333334,114.39326033333334,63.0,107.0
138,114.95575973333334,115.17083303333334,64.0,93.0
139,115.17634773333334,116.50539043333335,61.0,90.0
140,121.13222373333335,121.33994410000001,54.0,92.0
141,121.35281173333334,121.96678166666668,59.0,92.0
142,122.01457573333334,122.22229610000001,61.0,99.0
143,122.23516373333334,122.86935423333334,63.0,97.0
144,122.89692773333334,123.26457440000001,61.0,99.0
145,123.33810373333334,123.77008856666667,59.0,93.0
146,123.77927973333334,124.24802923333334,58.0,88.0
147,124.22045573333334,124.74435223333334,59.0,93.0
148,124.66163173333334,124.74435223333334,59.0,96.0
149,124.88221973333334,125.25354286666668,59.0,82.0
150,125.54398373333335,125.71310120000001,61.0,90.0
151,125.76457173333334,126.35464463333334,63.0,95.0
152,126.42633573333335,126.50537976666668,61.0,96.0
153,126.64692373333334,127.16898200000001,59.0,88.0
154,127.08809973333334,127.71861376666668,61.0,83.0
155,128.19103973333335,128.44471593333336,66.0,97.0
156,128.63221573333334,128.90243603333334,66.0,100.0
157,129.07339173333335,129.1653034,66.0,93.0
158,129.29397973333334,129.50537656666668,66.0,100.0
159,129.73515573333333,130.01272896666669,58.0,90.0
160,130.17633173333334,130.63956653333335,59.0,85.0
161,131.05868373333334,131.2039041666667,56.0,97.0
162,131.27927173333333,131.60096256666668,61.0,100.0
163,131.72044773333334,131.85463876666668,63.0,93.0
164,131.94103573333334,132.29030006666667,64.0,99.0
165,132.60279973333334,132.74618193333333,63.0,86.0
166,132.82338773333333,133.33625483333336,61.0,88.0
167,133.48515173333334,134.20022450000002,63.0,95.0
168,135.24985573333333,135.45941433333334,54.0,96.0
169,135.47044373333335,136.02375196666668,59.0,122.0
170,136.13220773333333,136.31603106666668,61.0,102.0
171,136.35279573333335,136.81970700000002,63.0,117.0
172,137.01455973333336,137.1064714,61.0,102.0
173,137.23514773333335,137.75352953333334,59.0,95.0
174,137.89691173333335,138.0605145,58.0,93.0
175,138.11749973333335,138.77007256666667,59.0,96.0
176,138.77926373333335,138.83073426666667,59.0,96.0
177,138.99985173333334,139.29764553333334,59.0,97.0
178,139.44102773333336,139.68367453333335,61.0,102.0
179,139.88220373333334,140.29580623333334,63.0,102.0
180,140.54396773333335,140.6560999666667,64.0,99.0
181,140.76455573333334,141.14874650000002,63.0,89.0
182,141.42631973333334,141.90609863333336,59.0,99.0
183,142.30867173333334,142.60095083333334,66.0,117.0
184,142.74984773333335,143.02006803333333,66.0,117.0
185,143.19102373333334,143.36014120000002,68.0,112.0
186,143.41161173333333,143.69286143333335,66.0,112.0
187,144.07337573333334,144.22227263333335,58.0,99.0
188,144.29396373333336,144.87852193333333,59.0,107.0
189,144.95572773333333,145.11013933333334,61.0,100.0
190,145.17631573333335,145.31602146666668,63.0,90.0
191,145.39690373333335,146.3380792,64.0,102.0
192,146.94101973333335,147.0752107666667,56.0,90.0
193,147.16160773333334,147.39506336666668,63.0,100.0
194,147.60278373333335,147.72594536666668,61.0,99.0
195,147.82337173333335,148.3013124,59.0,100.0
196,148.48513573333335,148.83256183333336,58.0,92.0
197,148.92631173333334,149.52741403333334,59.0,100.0
198,149.36748773333335,149.52741403333334,59.0,102.0
199,149.80866373333333,150.04947230000002,59.0,112.0
200,150.24983973333335,150.54947176666667,61.0,112.0
201,150.69101573333336,151.02925066666668,59.0,107.0
202,151.13219173333334,151.23329456666667,54.0,93.0
203,151.35277973333334,151.77741163333334,54.0,90.0
204,152.23513173333333,152.35461690000002,54.0,93.0
205,152.45571973333335,152.72594003333336,56.0,102.0
206,152.89689573333334,153.0200573666667,54.0,89.0
207,153.11748373333336,153.3472629,56.0,112.0
208,153.55865973333334,153.76270363333333,59.0,107.0
209,153.99983573333336,154.39689413333335,63.0,127.0
210,154.66159973333333,154.82520250000002,64.0,102.0
211,154.88218773333335,155.17446683333335,61.0,100.0
212,155.32336373333334,155.82520143333335,63.0,112.0
213,156.42630373333336,156.71490636666667,59.0,107.0
214,156.86747973333334,157.09542066666668,59.0,107.0
215,157.30865573333335,157.54394960000002,61.0,112.0
216,157.74983173333334,158.0016697,59.0,117.0
217,158.19100773333335,158.30497820000002,54.0,117.0
218,158.41159573333334,158.77924240000002,54.0,100.0
219,159.29394773333334,159.4079182,54.0,100.0
220,159.51453573333333,159.99247640000002,64.0,100.0
221,160.17629973333334,160.56784343333334,63.0,127.0
222,160.61747573333335,160.96122536666667,61.0,102.0
223,161.27923973333336,161.8950479,61.0,122.0
224,161.94100373333333,162.06968006666668,59.0,102.0
225,161.94100373333333,162.077033,61.0,107.0
226,162.16159173333335,163.27556113333335,63.0,102.0
227,163.48511973333333,163.6928401,56.0,92.0
228,163.70570773333336,164.31967766666668,61.0,92.0
229,164.36747173333333,164.5751921,63.0,99.0
230,164.58805973333335,165.22225023333334,65.0,97.0
231,165.24982373333336,165.6174704,63.0,99.0
232,165.69099973333334,166.12298456666667,61.0,93.0
233,166.13217573333336,166.60092523333336,60.0,88.0
234,166.57335173333334,167.09724823333335,61.0,93.0
235,167.01452773333335,167.09724823333335,61.0,96.0
236,167.23511573333334,167.60643886666668,61.0,82.0
237,167.89687973333335,168.06599720000003,63.0,90.0
238,168.11746773333334,168.70754063333334,65.0,95.0
239,168.77923173333335,168.85827576666668,63.0,96.0
240,168.99981973333334,169.52187800000002,61.0,88.0
241,169.44099573333335,170.07150976666668,63.0,83.0
242,170.54393573333334,170.79761193333334,68.0,97.0
243,170.98511173333335,171.25533203333336,68.0,100.0
244,171.42628773333334,171.51819940000001,68.0,93.0
245,171.64687573333336,171.85827256666667,68.0,100.0
246,172.08805173333334,172.36562496666667,60.0,90.0
247,172.52922773333336,172.99246253333334,61.0,85.0
248,173.41157973333335,173.55680016666668,58.0,97.0
249,173.63216773333335,173.95385856666667,63.0,100.0
250,174.07334373333336,174.20753476666667,65.0,93.0
251,174.29393173333335,174.6431960666667,66.0,99.0
252,174.95569573333336,175.09907793333335,65.0,86.0
253,175.17628373333335,175.68915083333334,63.0,88.0
254,175.83804773333335,176.5531205,65.0,95.0
255,177.60275173333335,177.81231033333336,56.0,96.0
256,177.82333973333334,178.37664796666667,61.0,122.0
257,178.48510373333335,178.66892706666667,63.0,102.0
258,178.70569173333334,179.172603,65.0,117.0
259,179.36745573333334,179.45936740000002,63.0,102.0
260,179.58804373333334,180.10642553333335,61.0,95.0
261,180.24980773333334,180.41341050000003,60.0,93.0
262,180.47039573333333,181.12296856666669,61.0,96.0
263,181.13215973333334,181.18363026666668,61.0,96.0
264,181.35274773333336,181.65054153333335,61.0,97.0
265,181.79392373333334,182.03657053333336,63.0,102.0
266,182.23509973333336,182.64870223333335,65.0,102.0
267,182.89686373333333,183.00899596666667,66.0,99.0
268,183.11745173333335,183.5016425,65.0,89.0
269,183.77921573333336,184.25899463333334,61.0,99.0
270,184.66156773333336,184.95384683333336,68.0,117.0
271,185.10274373333334,185.37296403333335,68.0,117.0
272,185.54391973333335,185.7130372,70.0,112.0
273,185.76450773333335,186.04575743333334,68.0,112.0
274,186.42627173333335,186.57516863333333,60.0,99.0
275,186.64685973333334,187.23141793333335,61.0,107.0
276,187.30862373333335,187.46303533333335,63.0,100.0
277,187.52921173333334,187.66891746666667,65.0,90.0
278,187.74979973333336,188.69097520000003,66.0,102.0
279,189.29391573333334,189.42810676666667,58.0,90.0
280,189.51450373333336,189.7479593666667,65.0,100.0
281,189.95567973333334,190.0788413666667,63.0,99.0
282,190.17626773333336,190.65420840000002,61.0,100.0
283,190.83803173333334,191.18545783333334,60.0,92.0
284,191.27920773333335,193.5861905666667,61.0,100.0
285,195.24979173333335,195.52552673333335,68.0,107.0
286,195.69096773333334,195.94648216666667,68.0,100.0
287,196.13214373333335,196.4115552,70.0,107.0
288,196.57331973333334,196.7424372,68.0,112.0
289,197.01449573333335,197.21302493333334,60.0,112.0
290,197.23508373333334,197.8839801,61.0,96.0
291,197.92442123333336,198.20383270000002,63.0,88.0
292,198.17442096666667,198.44831773333334,65.0,85.0
293,198.4299354,199.54941950000003,66.0,96.0
294,199.98508080000002,200.2497864,58.0,77.0
295,200.26081580000002,200.5641243,65.0,102.0
296,200.83066813333335,201.00897676666668,63.0,90.0
297,201.18360893333335,201.65787313333334,61.0,93.0
298,202.1560343666667,202.4556664,60.0,92.0
299,202.52368103333336,202.92625413333334,63.0,92.0
300,202.9244159,204.7203698666667,61.0,100.0
