,start,end,pitch,velocity
0,9.907375762500001,10.148492887500002,64.0,112.0
1,10.211944762500002,10.405472981250002,65.0,117.0
2,10.5165137625,10.958138812500001,67.0,122.0
3,11.125651762500002,11.581236225000001,76.0,127.0
4,11.734789762500002,12.070450181250001,74.0,127.0
5,12.191643262500001,12.325526718750002,72.0,122.0
6,12.343927762500002,12.459410175000002,71.0,74.0
7,12.496212262500002,12.647227725000002,74.0,112.0
8,12.953065762500001,13.204335187500002,72.0,127.0
9,13.4099192625,13.553320500000002,71.0,102.0
10,13.562203762500001,13.65991965,69.0,97.0
11,13.714488262500002,13.841392012500002,72.0,117.0
12,14.1713417625,14.446722900000001,71.0,122.0
13,14.780479762500002,14.982891243750002,62.0,99.0
14,15.085048762500001,15.264617568750001,64.0,107.0
15,15.389617762500002,15.793806206250002,65.0,122.0
16,15.998755762500002,16.454340225000003,72.0,127.0
17,16.6078937625,16.840127625,71.0,127.0
18,17.064747262500003,17.198630718750003,65.0,102.0
19,17.217031762500003,17.334417731250003,64.0,90.0
20,17.521600762500004,17.710052831250003,67.0,107.0
21,17.8261697625,18.09837830625,65.0,122.0
22,18.283023262500002,18.432769687500002,67.0,112.0
23,18.435307762500003,18.543175950000002,65.0,88.0
24,18.587592262500003,18.999394931250002,64.0,107.0
25,19.044445762500004,19.43657835,62.0,122.0
26,19.653583762500002,19.851553612500002,64.0,95.0
27,19.958152762500003,20.119320525000003,65.0,107.0
28,20.262721762500004,20.714499112500004,67.0,122.0
29,20.8718597625,21.28873858125,76.0,127.0
30,21.480997762500003,21.761455050000002,74.0,127.0
31,21.937851262500004,22.080617981250004,72.0,117.0
32,22.0901357625,22.213232400000003,71.0,86.0
33,22.2424202625,22.455618562500003,74.0,117.0
34,22.699273762500003,23.010822468750003,72.0,112.0
35,23.156127262500004,23.323640212500003,71.0,127.0
36,23.308411762500004,23.444198775000004,69.0,90.0
37,23.460696262500004,23.770975931250003,72.0,127.0
38,23.917549762500002,24.262093443750004,71.0,127.0
39,24.526687762500003,24.736078950000003,74.0,112.0
40,24.831256762500004,24.987348375000003,76.0,112.0
41,25.1358257625,25.461333881250003,79.0,127.0
42,25.592679262500003,25.740522131250003,76.0,93.0
43,25.744963762500003,25.852197431250005,74.0,93.0
44,25.897248262500003,26.179609106250002,77.0,127.0
45,26.354101762500004,26.653594612500005,76.0,127.0
46,26.810955262500002,26.957529093750004,74.0,96.0
47,26.963239762500002,27.079991212500005,72.0,100.0
48,27.115524262500003,27.420093262500004,76.0,117.0
49,27.572377762500004,28.906136175000004,74.0,127.0
50,31.531774762500003,31.698018675000004,79.0,107.0
51,31.836343762500004,31.994338931250002,77.0,127.0
52,32.1409127625,32.272892662500006,76.0,122.0
53,32.4454817625,32.7678172875,74.0,127.0
54,32.9023352625,33.713250225,72.0,127.0
55,33.663757762500005,33.98482425,71.0,122.0
56,34.120611262500006,34.502591550000005,67.0,107.0
57,34.8820337625,35.2703592375,72.0,127.0
58,35.4911717625,35.763380306250006,72.0,127.0
59,36.100309762500004,36.231655143750004,76.0,117.0
60,36.404878762500005,36.5546251875,64.0,107.0
61,36.709447762500005,36.8414276625,65.0,100.0
62,37.014016762500006,37.19231653125001,67.0,117.0
63,37.31858576250001,37.599043050000006,69.0,112.0
64,37.77543926250001,38.110465162500006,65.0,112.0
65,38.5368617625,38.784958593750005,67.0,102.0
66,38.993715262500004,39.272268993750004,72.0,127.0
67,39.755137762500006,39.95247309375001,72.0,117.0
68,40.21199126250001,40.359834131250004,71.0,112.0
69,40.36427576250001,40.494352106250005,69.0,86.0
70,40.51656026250001,40.858565868750006,76.0,117.0
71,40.9734137625,41.342703675,74.0,127.0
72,41.2779827625,41.411866218750006,79.0,127.0
73,41.5825517625,41.720242331250006,77.0,117.0
74,41.887120762500004,41.98610568750001,76.0,127.0
75,42.191689762500005,42.54828930000001,74.0,117.0
76,42.648543262500006,42.930904106250004,72.0,127.0
77,43.40996576250001,43.734839362500004,71.0,112.0
78,43.86681926250001,44.228494950000005,67.0,97.0
79,44.628241762500004,44.92519653750001,72.0,127.0
80,45.237379762500005,45.4658065125,72.0,127.0
81,45.84651776250001,45.96707632500001,76.0,127.0
82,46.15108676250001,46.290046368750005,64.0,107.0
83,46.45565576250001,46.577483362500004,65.0,117.0
84,46.76022476250001,46.95248394375,67.0,127.0
85,47.0647937625,47.36682468750001,69.0,122.0
86,47.521647262500004,47.999439881250005,65.0,102.0
87,48.283069762500006,48.6916998375,67.0,127.0
88,48.73992326250001,49.07050753125001,72.0,127.0
89,49.50134576250001,49.80654928125001,72.0,122.0
90,49.9581992625,50.195509275000006,69.0,102.0
91,50.415052762500004,50.551474293750005,76.0,127.0
92,50.719621762500005,50.996271937500005,74.0,127.0
93,51.176475262500006,51.505790493750006,71.0,117.0
94,51.63332876250001,51.77101933125001,74.0,122.0
95,51.93789776250001,52.225969275000004,74.0,112.0
96,52.39475126250001,53.10921937500001,72.0,107.0
97,56.201863762500004,56.442980887500006,64.0,112.0
98,56.506432762500005,56.69996098125001,65.0,117.0
99,56.811001762500005,57.252626812500004,67.0,122.0
100,57.42013976250001,57.875724225000006,76.0,127.0
101,58.02927776250001,58.364938181250004,74.0,127.0
102,58.48613126250001,58.62001471875001,72.0,122.0
103,58.63841576250001,58.75389817500001,71.0,96.0
104,58.79070026250001,58.94171572500001,74.0,112.0
105,59.247553762500004,59.49882318750001,72.0,127.0
106,59.704407262500006,59.847808500000006,71.0,102.0
107,59.856691762500006,59.95440765000001,69.0,97.0
108,60.008976262500006,60.13588001250001,72.0,117.0
109,60.46582976250001,60.741210900000006,71.0,122.0
110,61.07496776250001,61.277379243750005,62.0,99.0
111,61.37953676250001,61.559105568750006,64.0,107.0
112,61.68410576250001,62.088294206250005,65.0,122.0
113,62.293243762500005,62.74882822500001,72.0,127.0
114,62.902381762500006,63.13461562500001,71.0,127.0
115,63.35923526250001,63.493118718750004,65.0,102.0
116,63.51151976250001,63.62890573125001,64.0,90.0
117,63.81608876250001,64.00454083125001,67.0,107.0
118,64.1206577625,64.39286630625001,65.0,122.0
119,64.57751126250001,64.72725768750001,67.0,112.0
120,64.7297957625,64.83766395,65.0,88.0
121,64.88208026250001,65.29388293125001,64.0,107.0
122,65.3389337625,65.73106635,62.0,122.0
123,65.9480717625,66.14604161250001,64.0,95.0
124,66.25264076250001,66.41380852500001,65.0,107.0
125,66.55720976250001,67.00898711250001,67.0,122.0
126,67.16634776250001,67.58322658125,76.0,127.0
127,67.77548576250001,68.05594305000001,74.0,127.0
128,68.2323392625,68.37510598125,72.0,117.0
129,68.38462376250001,68.50772040000001,71.0,86.0
130,68.5369082625,68.75010656250001,74.0,117.0
131,68.99376176250001,69.30531046875001,72.0,112.0
132,69.45061526250001,69.61812821250001,71.0,127.0
133,69.6028997625,69.738686775,69.0,90.0
134,69.75518426250001,70.06546393125001,72.0,127.0
135,70.2120377625,70.55658144375,71.0,127.0
136,70.8211757625,71.03056695000001,74.0,112.0
137,71.1257447625,71.28183637500001,76.0,112.0
138,71.4303137625,71.75582188125001,79.0,127.0
139,71.88716726250001,72.03501013125,76.0,93.0
140,72.03945176250001,72.14668543125,74.0,93.0
141,72.19173626250002,72.47409710625001,77.0,127.0
142,72.64858976250001,72.9480826125,76.0,127.0
143,73.1054432625,73.25201709375001,74.0,96.0
144,73.25772776250001,73.3744792125,72.0,100.0
145,73.4100122625,73.7145812625,76.0,117.0
146,73.86686576250001,75.20062417500002,74.0,127.0
147,77.82626276250001,77.99250667500002,79.0,107.0
148,78.13083176250001,78.28882693125001,77.0,127.0
149,78.43540076250001,78.56738066250001,76.0,122.0
150,78.73996976250001,79.06230528750001,74.0,127.0
151,79.1968232625,80.00773822500001,72.0,127.0
152,79.95824576250001,80.27931225,71.0,122.0
153,80.41509926250001,80.79707955,67.0,107.0
154,81.17652176250002,81.5648472375,72.0,127.0
155,81.7856597625,82.05786830625001,72.0,127.0
156,82.3947977625,82.52614314375,76.0,117.0
157,82.6993667625,82.84911318750001,64.0,107.0
158,83.0039357625,83.13591566250001,65.0,100.0
159,83.30850476250001,83.48680453125002,67.0,117.0
160,83.61307376250001,83.89353105,69.0,112.0
161,84.06992726250002,84.40495316250001,65.0,112.0
162,84.83134976250001,85.07944659375,67.0,102.0
163,85.2882032625,85.56675699375,72.0,127.0
164,86.04962576250001,86.24696109375002,72.0,117.0
165,86.50647926250001,86.65432213125001,71.0,112.0
166,86.65876376250002,86.78884010625,69.0,86.0
167,86.81104826250001,87.15305386875,76.0,117.0
168,87.26790176250002,87.63719167500001,74.0,127.0
169,87.57247076250002,87.70635421875001,79.0,127.0
170,87.8770397625,88.01473033125001,77.0,117.0
171,88.1816087625,88.28059368750002,76.0,127.0
172,88.4861777625,88.84277730000001,74.0,117.0
173,88.94303126250001,89.22539210625001,72.0,127.0
174,89.70445376250001,90.02932736250001,71.0,112.0
175,90.16130726250002,90.52298295000001,67.0,97.0
176,90.92272976250001,91.21968453750002,72.0,127.0
177,91.53186776250001,91.76029451250001,72.0,127.0
178,92.14100576250001,92.26156432500001,76.0,127.0
179,92.44557476250002,92.58453436875001,64.0,107.0
180,92.75014376250002,92.8719713625,65.0,117.0
181,93.05471276250002,93.24697194375001,67.0,127.0
182,93.35928176250002,93.66131268750001,69.0,122.0
183,93.81613526250001,94.29392788125001,65.0,102.0
184,94.5775577625,94.98618783750001,67.0,127.0
185,95.03441126250002,95.36499553125002,72.0,127.0
186,95.79583376250001,96.10103728125002,72.0,122.0
187,96.25268726250002,96.48999727500001,69.0,102.0
188,96.70954076250001,96.84596229375,76.0,127.0
189,97.01410976250001,97.29075993750001,74.0,127.0
190,97.4709632625,97.80027849375001,71.0,117.0
191,97.92781676250002,98.06550733125002,74.0,122.0
192,98.23238576250002,98.52045727500001,74.0,112.0
193,98.68923926250001,99.40370737500001,72.0,107.0
194,121.98876776250002,122.13597611250002,69.0,112.0
195,122.29333676250002,122.42975829375001,71.0,112.0
196,122.59790576250002,122.70006328125001,72.0,127.0
197,122.75019026250001,122.83140866250001,71.0,107.0
198,122.90247476250002,123.01986073125002,72.0,97.0
199,123.05475926250001,123.12899795625002,71.0,96.0
200,123.20704376250002,123.31745002500001,72.0,122.0
201,123.35932826250001,123.45133348125002,71.0,112.0
202,123.51161276250002,123.62582613750001,72.0,112.0
203,123.66389726250002,123.74892277500001,71.0,127.0
204,123.81618176250001,123.88851690000001,72.0,122.0
205,123.96846626250002,124.08204511875002,71.0,100.0
206,124.12075076250001,124.24321288125002,72.0,100.0
207,124.27303526250002,124.35869529375002,71.0,97.0
208,124.42531976250001,124.54651284375001,72.0,107.0
209,124.57760426250002,124.67278207500001,71.0,99.0
210,124.72988876250001,124.83839146875002,72.0,122.0
211,124.88217326250002,124.98306174375001,71.0,112.0
212,125.03445776250001,125.10171675000001,72.0,127.0
213,125.18674226250002,125.29841756250002,71.0,127.0
214,125.33902676250001,125.42659035000001,72.0,112.0
215,125.49131126250002,125.61567693750001,71.0,95.0
216,125.64359576250001,125.77049951250001,74.0,117.0
217,125.94816476250001,126.05603295000002,71.0,127.0
218,126.25273376250001,126.46529754375001,67.0,112.0
219,126.86187176250002,127.04207508750001,69.0,107.0
220,127.16644076250002,127.29397903125002,71.0,112.0
221,127.47100976250002,127.64613693750002,72.0,122.0
222,127.92786326250001,128.05540153125003,79.0,117.0
223,128.08014776250002,128.18230528125002,77.0,100.0
224,128.3847167625,128.66707760625002,76.0,122.0
225,128.68928576250002,129.04715433750002,74.0,117.0
226,129.14613926250001,129.22608862500002,72.0,99.0
227,129.29842376250002,129.39740868750002,72.0,102.0
228,129.45070826250003,129.68611471875002,76.0,117.0
229,129.90756176250002,130.2121307625,74.0,127.0
230,138.74006276250003,138.90630667500002,79.0,107.0
231,139.04463176250002,139.20262693125002,77.0,127.0
232,139.3492007625,139.4811806625,76.0,122.0
233,139.65376976250002,139.97610528750002,74.0,127.0
234,140.1106232625,140.921538225,72.0,127.0
235,140.87204576250002,141.19311225,71.0,122.0
236,141.32889926250002,141.71087955000002,67.0,107.0
237,142.09032176250003,142.4786472375,72.0,127.0
238,142.69945976250003,142.97166830625002,72.0,127.0
239,143.30859776250003,143.43994314375,76.0,117.0
240,143.61316676250001,143.7629131875,64.0,107.0
241,143.91773576250003,144.0497156625,65.0,100.0
242,144.22230476250002,144.40060453125002,67.0,117.0
243,144.52687376250003,144.80733105000002,69.0,112.0
244,144.98372726250003,145.31875316250003,65.0,112.0
245,145.7451497625,145.99324659375003,67.0,102.0
246,146.20200326250003,146.48055699375,72.0,127.0
247,146.9634257625,147.16076109375,72.0,117.0
248,147.42027926250003,147.56812213125002,71.0,112.0
249,147.5725637625,147.70264010625002,69.0,86.0
250,147.72484826250002,148.06685386875003,76.0,117.0
251,148.1817017625,148.550991675,74.0,127.0
252,148.48627076250003,148.62015421875003,79.0,127.0
253,148.7908397625,148.92853033125002,77.0,117.0
254,149.09540876250003,149.19439368750002,76.0,127.0
255,149.39997776250001,149.75657730000003,74.0,117.0
256,149.8568312625,150.13919210625002,72.0,127.0
257,150.61825376250002,150.9431273625,71.0,112.0
258,151.0751072625,151.43678295,67.0,97.0
259,151.83652976250002,152.1334845375,72.0,127.0
260,152.44566776250002,152.6740945125,72.0,127.0
261,153.05480576250002,153.17536432500003,76.0,127.0
262,153.3593747625,153.49833436875002,64.0,107.0
263,153.66394376250003,153.78577136250001,65.0,117.0
264,153.9685127625,154.16077194375,67.0,127.0
265,154.27308176250003,154.57511268750002,69.0,122.0
266,154.72993526250002,155.20772788125,65.0,102.0
267,155.49135776250003,155.89998783750002,67.0,127.0
268,155.94821126250002,156.27879553125,72.0,127.0
269,156.70963376250003,157.01483728125,72.0,122.0
270,157.16648726250003,157.40379727500002,69.0,102.0
271,157.62334076250002,157.75976229375001,76.0,127.0
272,157.9279097625,158.20455993750002,74.0,127.0
273,158.38476326250003,158.71407849375,71.0,117.0
274,158.84161676250002,158.97930733125003,74.0,122.0
275,159.1461857625,159.43425727500002,74.0,112.0
276,159.60303926250003,160.31750737500002,72.0,107.0
277,161.58273776250002,161.8847686875,69.0,122.0
278,162.0395912625,162.51738388125003,65.0,102.0
279,162.80101376250002,163.2096438375,67.0,127.0
280,163.2578672625,163.58845153125003,72.0,127.0
281,164.01928976250002,164.32449328125003,72.0,122.0
282,164.47614326250002,164.713453275,69.0,102.0
283,164.9329967625,165.06941829375003,76.0,127.0
284,165.23756576250003,165.5142159375,74.0,127.0
285,165.69441926250002,166.02373449375003,71.0,117.0
286,166.1512727625,166.28896333125002,74.0,122.0
287,166.45584176250003,166.743913275,74.0,112.0
288,166.91269526250002,167.627163375,72.0,107.0
