,start,end,pitch,velocity
0,5.643409762500001,6.049501762500001,36.0,83.0
1,5.643409762500001,6.064730212500001,48.0,117.0
2,6.1002632625,6.467649618750001,64.0,99.0
3,6.1002632625,6.470187693750001,60.0,107.0
4,5.947978762500001,6.485416143750001,55.0,89.0
5,6.557116762500001,6.678944362500001,36.0,55.0
6,6.557116762500001,6.703056075000001,48.0,85.0
7,6.557116762500001,6.7366855687500005,55.0,72.0
8,6.557116762500001,6.741127200000001,60.0,79.0
9,6.557116762500001,6.745568831250001,64.0,77.0
10,6.8616857625000005,7.020949968750001,55.0,81.0
11,7.013970262500001,7.020949968750001,55.0,35.0
12,6.8616857625000005,7.102168368750001,60.0,96.0
13,6.8616857625000005,7.147219200000001,64.0,93.0
14,7.166254762500001,7.2481076812500005,60.0,83.0
15,7.166254762500001,7.2607980562500005,64.0,72.0
16,7.318539262500001,7.638971231250001,60.0,93.0
17,7.318539262500001,7.648489012500001,55.0,85.0
18,7.318539262500001,7.657372275000001,64.0,81.0
19,6.8616857625000005,7.935291487500001,48.0,90.0
20,6.8616857625000005,7.959403200000001,36.0,74.0
21,7.775392762500001,7.968920981250001,67.0,81.0
22,7.775392762500001,7.991763656250001,60.0,86.0
23,7.775392762500001,8.009530181250001,64.0,85.0
24,7.775392762500001,8.0114337375,55.0,86.0
25,8.079961762500002,8.47653598125,48.0,97.0
26,8.079961762500002,8.479708575000002,55.0,79.0
27,8.079961762500002,8.480343093750001,60.0,76.0
28,8.079961762500002,8.487322800000001,64.0,82.0
29,8.079961762500002,8.49049539375,36.0,68.0
30,8.536815262500001,8.854709156250001,67.0,72.0
31,8.536815262500001,8.880089906250001,60.0,76.0
32,8.536815262500001,8.887069612500001,55.0,77.0
33,8.536815262500001,8.894049318750001,64.0,77.0
34,8.536815262500001,8.897856431250002,48.0,88.0
35,8.536815262500001,9.095826281250002,36.0,69.0
36,8.9936687625,9.144684225,48.0,66.0
37,8.9936687625,9.1586436375,67.0,82.0
38,8.9936687625,9.171334012500001,60.0,92.0
39,8.9936687625,9.175141125000001,64.0,85.0
40,8.9936687625,9.184658906250002,55.0,88.0
41,9.298237762500001,9.4809791625,67.0,82.0
42,9.298237762500001,9.491131462500002,60.0,93.0
43,9.298237762500001,9.497476650000001,64.0,85.0
44,9.298237762500001,9.503187318750001,55.0,96.0
45,9.298237762500001,9.528568068750001,36.0,82.0
46,9.298237762500001,9.550776225000002,48.0,112.0
47,10.821082762500001,10.873113300000002,60.0,99.0
48,10.821082762500001,10.890879825,55.0,100.0
49,10.821082762500001,10.894052418750002,64.0,90.0
50,10.973367262500002,11.3401191,60.0,85.0
51,10.973367262500002,11.349002362500002,64.0,79.0
52,10.973367262500002,11.3642308125,55.0,75.0
53,10.5165137625,11.59583015625,36.0,102.0
54,11.430220762500001,11.634535800000002,60.0,107.0
55,11.125651762500002,11.685297300000002,48.0,112.0
56,11.430220762500001,11.702429306250002,64.0,99.0
57,11.582505262500002,11.734789762500002,55.0,95.0
58,12.039358762500001,12.097099968750001,55.0,107.0
59,12.039358762500001,12.101541600000001,59.0,122.0
60,12.039358762500001,12.105348712500001,62.0,96.0
61,11.734789762500002,12.372481106250001,43.0,95.0
62,12.191643262500001,12.399130893750002,55.0,76.0
63,12.191643262500001,12.414993862500001,59.0,92.0
64,12.191643262500001,12.514613306250002,62.0,86.0
65,12.648496762500002,12.836948831250002,59.0,99.0
66,12.343927762500002,12.870578325000002,50.0,97.0
67,12.648496762500002,12.920705306250001,62.0,97.0
68,12.800781262500001,12.941644425000002,55.0,86.0
69,13.257634762500002,13.326162787500001,60.0,99.0
70,13.257634762500002,13.334411531250002,57.0,100.0
71,13.257634762500002,13.341391237500002,64.0,93.0
72,12.953065762500001,13.539995606250002,45.0,100.0
73,13.4099192625,13.546975312500003,60.0,89.0
74,13.4099192625,13.550782425000001,57.0,83.0
75,13.4099192625,13.571087025000002,64.0,85.0
76,13.562203762500001,13.967026725000002,52.0,100.0
77,13.866772762500002,14.069184243750001,60.0,107.0
78,13.866772762500002,14.099006625000001,64.0,100.0
79,14.019057262500002,14.149768125000001,57.0,107.0
80,14.475910762500002,14.673246093750002,55.0,107.0
81,14.475910762500002,14.710048181250002,59.0,99.0
82,14.628195262500002,14.711951737500002,52.0,122.0
83,14.1713417625,14.774769093750002,40.0,107.0
84,14.932764262500001,15.067916756250002,55.0,93.0
85,14.932764262500001,15.092662987500002,59.0,96.0
86,15.085048762500001,15.284922168750002,52.0,100.0
87,15.237333262500002,15.345201450000001,55.0,107.0
88,15.237333262500002,15.364237012500002,59.0,97.0
89,14.780479762500002,15.382638056250002,47.0,107.0
90,15.694186762500001,15.760811231250003,57.0,97.0
91,15.694186762500001,15.763349306250001,53.0,93.0
92,15.694186762500001,15.779846793750002,60.0,100.0
93,15.846471262500001,15.944187150000001,53.0,88.0
94,15.846471262500001,15.969567900000001,57.0,95.0
95,15.846471262500001,15.981623756250002,60.0,79.0
96,15.389617762500002,16.0748980125,41.0,92.0
97,15.998755762500002,16.367411156250004,48.0,99.0
98,16.3033247625,16.49431490625,57.0,117.0
99,16.3033247625,16.536827662500002,60.0,117.0
100,16.4556092625,16.587589162500002,53.0,102.0
101,16.6078937625,17.0152548,40.0,102.0
102,16.912462762500002,17.069188893750002,55.0,107.0
103,16.912462762500002,17.144696625,59.0,100.0
104,17.064747262500003,17.21766628125,52.0,97.0
105,17.369316262500003,17.51969720625,55.0,100.0
106,17.369316262500003,17.56792063125,59.0,102.0
107,17.521600762500004,17.715128981250004,52.0,99.0
108,17.217031762500003,17.7474894375,40.0,102.0
109,17.6738852625,17.766525,55.0,100.0
110,17.6738852625,17.797616418750003,59.0,107.0
111,18.130738762500002,18.20370841875,57.0,93.0
112,18.130738762500002,18.219571387500004,62.0,117.0
113,17.8261697625,18.337591875,38.0,96.0
114,18.283023262500002,18.424520943750004,62.0,96.0
115,18.283023262500002,18.42705901875,57.0,90.0
116,18.283023262500002,18.435942281250004,65.0,99.0
117,18.435307762500003,18.73162801875,45.0,27.0
118,18.892161262500004,18.954344100000004,59.0,81.0
119,18.739876762500003,18.965130918750003,65.0,122.0
120,18.739876762500003,18.98289744375,62.0,122.0
121,18.435307762500003,18.986070037500003,50.0,99.0
122,18.892161262500004,19.038100575,57.0,93.0
123,19.3490147625,19.400410781250002,55.0,92.0
124,19.3490147625,19.424522493750004,59.0,112.0
125,19.3490147625,19.45751746875,62.0,100.0
126,19.5012992625,19.656121837500002,59.0,82.0
127,19.5012992625,19.674522881250002,62.0,72.0
128,19.805868262500002,19.93848268125,59.0,107.0
129,19.044445762500004,19.956883725,43.0,96.0
130,19.653583762500002,19.965132468750003,50.0,99.0
131,19.805868262500002,20.001934556250003,62.0,107.0
132,19.958152762500003,20.245589756250002,55.0,99.0
133,20.110437262500003,20.252569462500002,59.0,100.0
134,20.110437262500003,20.26843243125,62.0,100.0
135,20.5672907625,20.633280712500003,64.0,99.0
136,20.5672907625,20.635184268750002,60.0,107.0
137,20.5672907625,20.642163975000003,55.0,99.0
138,20.262721762500004,20.751301200000004,36.0,95.0
139,20.7195752625,20.845209975000003,55.0,75.0
140,20.7195752625,20.861707462500004,60.0,100.0
141,20.7195752625,20.866149093750003,64.0,90.0
142,21.176428762500002,21.33696200625,64.0,107.0
143,21.176428762500002,21.391530618750004,60.0,127.0
144,20.8718597625,21.439119525000002,48.0,97.0
145,21.328713262500003,21.489881025000003,55.0,99.0
146,21.785566762500004,21.863612568750003,59.0,117.0
147,21.785566762500004,21.877571981250004,62.0,102.0
148,21.480997762500003,21.989881800000003,43.0,100.0
149,21.937851262500004,22.040643300000003,59.0,73.0
150,21.937851262500004,22.052699156250004,62.0,79.0
151,21.937851262500004,22.05587175,55.0,112.0
152,21.937851262500004,22.07427279375,47.0,35.0
153,22.2424202625,22.37122756875,62.0,100.0
154,22.2424202625,22.373131125000004,59.0,107.0
155,22.0901357625,22.65485745,50.0,99.0
156,22.546989262500002,22.694832131250003,59.0,107.0
157,22.546989262500002,22.70561895,62.0,112.0
158,23.003842762500003,23.078715975,60.0,107.0
159,23.003842762500003,23.078715975,64.0,97.0
160,23.003842762500003,23.09457894375,57.0,95.0
161,22.699273762500003,23.188487718750004,45.0,96.0
162,23.156127262500004,23.28366553125,48.0,32.0
163,23.156127262500004,23.284934568750003,57.0,67.0
164,23.156127262500004,23.289376200000003,64.0,86.0
165,23.156127262500004,23.29762494375,60.0,93.0
166,23.308411762500004,23.653589962500003,52.0,97.0
167,23.6129807625,23.815392243750004,64.0,107.0
168,23.6129807625,23.821102912500002,60.0,127.0
169,23.7652652625,23.902321312500003,57.0,92.0
170,24.222118762500003,24.2741493,52.0,81.0
171,24.222118762500003,24.297626493750002,55.0,96.0
172,24.222118762500003,24.317296575000004,59.0,90.0
173,24.374403262500003,24.473388187500003,55.0,92.0
174,24.374403262500003,24.4886166375,52.0,97.0
175,24.374403262500003,24.505748643750003,59.0,81.0
176,23.917549762500002,24.528591318750003,40.0,95.0
177,24.678972262500004,24.864251737500002,55.0,96.0
178,24.678972262500004,24.873135,59.0,92.0
179,24.526687762500003,25.074277443750002,47.0,86.0
180,24.983541262500005,25.081891668750004,55.0,97.0
181,24.983541262500005,25.119962793750002,59.0,97.0
182,25.440394762500002,25.505750193750004,57.0,100.0
183,25.440394762500002,25.51590249375,53.0,95.0
184,25.440394762500002,25.528592868750003,60.0,100.0
185,25.1358257625,25.635192018750004,41.0,92.0
186,25.592679262500003,25.729100793750003,57.0,97.0
187,25.592679262500003,25.73036983125,53.0,81.0
188,25.592679262500003,25.740522131250003,60.0,88.0
189,25.744963762500003,25.776689700000002,41.0,38.0
190,25.744963762500003,26.132020200000003,47.0,54.0
191,26.049532762500004,26.142172500000004,53.0,96.0
192,26.049532762500004,26.160573543750004,57.0,99.0
193,26.049532762500004,26.20245178125,60.0,96.0
194,26.6586707625,26.716411968750002,55.0,99.0
195,26.6586707625,26.724660712500004,52.0,89.0
196,26.6586707625,26.729736862500005,59.0,90.0
197,26.354101762500004,26.819838525,40.0,107.0
198,26.810955262500002,26.894077218750002,52.0,74.0
199,26.810955262500002,26.920092487500003,55.0,90.0
200,26.810955262500002,26.925168637500004,59.0,82.0
201,26.810955262500002,26.937224493750005,43.0,34.0
202,26.963239762500002,27.434687193750005,47.0,95.0
203,27.267808762500003,27.474027356250005,55.0,99.0
204,27.267808762500003,27.501946181250002,59.0,97.0
205,27.420093262500004,27.517174631250004,52.0,89.0
206,27.572377762500004,27.722758706250005,43.0,66.0
207,27.572377762500004,27.733545525000004,59.0,102.0
208,27.572377762500004,27.734814562500002,55.0,102.0
209,27.572377762500004,27.740525231250004,50.0,89.0
210,27.572377762500004,27.741794268750002,62.0,97.0
211,28.181515762500002,28.329358631250003,43.0,77.0
212,28.181515762500002,28.331896706250003,50.0,102.0
213,28.181515762500002,28.341414487500003,59.0,102.0
214,28.181515762500002,28.348394193750003,55.0,97.0
215,28.181515762500002,28.366160718750002,62.0,97.0
216,28.790653762500003,28.908039731250003,55.0,102.0
217,28.790653762500003,28.909308768750005,59.0,112.0
218,28.790653762500003,28.910577806250004,50.0,99.0
219,28.790653762500003,28.928978850000004,43.0,70.0
220,28.790653762500003,28.928978850000004,62.0,100.0
221,29.399791762500005,29.491162462500004,50.0,107.0
222,29.399791762500005,29.491796981250005,55.0,100.0
223,29.399791762500005,29.493066018750003,59.0,117.0
224,29.399791762500005,29.500045725000003,43.0,79.0
225,29.399791762500005,29.510832543750002,62.0,102.0
226,30.008929762500003,30.083168456250004,55.0,102.0
227,30.008929762500003,30.088879125000005,59.0,112.0
228,30.008929762500003,30.090782681250005,50.0,117.0
229,30.008929762500003,30.093955275000003,43.0,78.0
230,30.008929762500003,30.106011131250003,62.0,100.0
231,30.465783262500004,30.510834093750002,55.0,112.0
232,30.465783262500004,30.515275725000002,59.0,112.0
233,30.465783262500004,30.518448318750004,43.0,69.0
234,30.465783262500004,30.526697062500002,62.0,102.0
235,30.465783262500004,30.527966100000004,50.0,100.0
236,30.618067762500004,30.690402900000002,59.0,97.0
237,30.618067762500004,30.695479050000003,43.0,89.0
238,30.618067762500004,30.695479050000003,50.0,92.0
239,30.618067762500004,30.695479050000003,62.0,95.0
240,30.618067762500004,30.697382606250002,55.0,92.0
241,30.846494512500005,30.911215425000005,43.0,96.0
242,30.846494512500005,30.914388018750003,59.0,117.0
243,30.846494512500005,30.916291575000002,50.0,112.0
244,30.846494512500005,30.917560612500004,55.0,107.0
245,30.846494512500005,30.918195131250005,62.0,102.0
246,31.074921262500006,31.241799693750004,59.0,122.0
247,31.074921262500006,31.242434212500005,55.0,112.0
248,31.074921262500006,31.255124587500003,50.0,117.0
249,31.074921262500006,31.258931700000005,62.0,102.0
250,31.074921262500006,31.277967262500002,43.0,102.0
251,32.7500507625,32.80779196875,60.0,122.0
252,32.7500507625,32.819847825000004,64.0,95.0
253,32.7500507625,32.82428945625001,55.0,99.0
254,32.4454817625,32.92708149375,36.0,96.0
255,32.9023352625,33.00956893125,55.0,69.0
256,32.9023352625,33.0165486375,60.0,81.0
257,32.9023352625,33.02035575000001,64.0,76.0
258,33.206904262500004,33.390280181250006,60.0,100.0
259,33.206904262500004,33.399163443750005,64.0,99.0
260,33.0546197625,33.593960700000004,48.0,112.0
261,33.511473262500004,33.6662958375,60.0,99.0
262,33.511473262500004,33.69738725625,64.0,96.0
263,33.511473262500004,33.707539556250005,55.0,89.0
264,33.968326762500006,34.0393928625,59.0,97.0
265,33.968326762500006,34.04256545625,62.0,96.0
266,33.968326762500006,34.04637256875,55.0,93.0
267,34.120611262500006,34.236093675000006,59.0,96.0
268,34.120611262500006,34.241804343750005,55.0,81.0
269,34.120611262500006,34.241804343750005,62.0,90.0
270,33.663757762500005,34.311601406250006,43.0,82.0
271,34.42518026250001,34.6206120375,55.0,82.0
272,34.42518026250001,34.62441915,59.0,95.0
273,34.42518026250001,34.63266789375,62.0,90.0
274,34.72974926250001,34.85601849375001,59.0,96.0
275,34.72974926250001,34.86236368125,55.0,79.0
276,34.272895762500006,34.8744195375,50.0,81.0
277,34.72974926250001,34.882668281250005,62.0,92.0
278,35.1866027625,35.251958193750006,60.0,100.0
279,35.1866027625,35.262745012500005,64.0,95.0
280,35.1866027625,35.267821162500006,57.0,100.0
281,35.3388872625,35.457542268750004,60.0,90.0
282,35.3388872625,35.457542268750004,64.0,92.0
283,35.3388872625,35.458811306250006,57.0,82.0
284,34.8820337625,35.51211088125,45.0,96.0
285,35.6434562625,35.669471531250004,57.0,66.0
286,35.4911717625,35.830639293750004,52.0,89.0
287,35.6434562625,35.854751006250005,60.0,102.0
288,35.6434562625,35.861730712500005,64.0,99.0
289,35.9480252625,36.087619387500006,60.0,102.0
290,35.9480252625,36.1079239875,64.0,95.0
291,35.9480252625,36.122517918750006,57.0,93.0
292,36.404878762500005,36.479751975000006,55.0,95.0
293,36.404878762500005,36.487366200000004,52.0,83.0
294,36.404878762500005,36.488635237500006,59.0,90.0
295,36.557163262500005,36.65932078125,52.0,72.0
296,36.557163262500005,36.66820404375,55.0,88.0
297,36.557163262500005,36.67518375,59.0,82.0
298,36.100309762500004,36.70881324375001,40.0,78.0
299,36.861732262500006,37.04510818125001,55.0,100.0
300,36.861732262500006,37.050818850000006,59.0,97.0
301,36.861732262500006,37.05526048125,52.0,89.0
302,37.166301262500006,37.25323033125,52.0,83.0
303,36.709447762500005,37.26084455625001,47.0,90.0
304,37.166301262500006,37.27607300625,55.0,95.0
305,37.166301262500006,37.298281162500004,59.0,95.0
306,37.62315476250001,37.6891447125,57.0,107.0
307,37.62315476250001,37.69485538125001,64.0,72.0
308,37.62315476250001,37.698027975,60.0,95.0
309,37.62315476250001,37.704373162500005,53.0,97.0
310,37.77543926250001,37.874424187500004,57.0,88.0
311,37.77543926250001,37.874424187500004,60.0,88.0
312,37.77543926250001,37.88584552500001,64.0,76.0
313,37.77543926250001,37.890921675,53.0,78.0
314,37.31858576250001,37.934068950000004,41.0,95.0
315,38.0800082625,38.252597362500005,57.0,93.0
316,38.0800082625,38.257673512500006,53.0,93.0
317,38.0800082625,38.264653218750006,60.0,93.0
318,37.9277237625,38.455643362500005,48.0,85.0
319,38.3845772625,38.511481012500006,57.0,97.0
320,38.3845772625,38.529247537500005,60.0,97.0
321,38.3845772625,38.54447598750001,53.0,93.0
322,38.8414307625,38.909324268750005,55.0,97.0
323,38.8414307625,38.920111087500004,52.0,96.0
324,38.8414307625,38.920111087500004,59.0,89.0
325,38.993715262500004,39.10475604375001,55.0,83.0
326,38.993715262500004,39.10475604375001,59.0,83.0
327,38.993715262500004,39.105390562500006,52.0,71.0
328,38.5368617625,39.142192650000005,40.0,95.0
329,39.298284262500005,39.503233818750005,52.0,95.0
330,39.298284262500005,39.50450285625001,55.0,97.0
331,39.298284262500005,39.51148256250001,59.0,99.0
332,39.145999762500004,39.57049280625,47.0,88.0
333,39.602853262500005,39.68660973750001,52.0,90.0
334,39.602853262500005,39.70374174375001,55.0,95.0
335,39.602853262500005,39.71770115625001,59.0,89.0
336,40.05970676250001,40.1358490125,62.0,122.0
337,40.05970676250001,40.140925162500004,65.0,100.0
338,40.05970676250001,40.149808425,57.0,100.0
339,39.755137762500006,40.307169075000004,38.0,89.0
340,40.21199126250001,40.330011750000004,65.0,88.0
341,40.21199126250001,40.335087900000005,62.0,96.0
342,40.21199126250001,40.345240200000006,57.0,75.0
343,40.21199126250001,40.393463625,45.0,27.0
344,40.51656026250001,40.69105291875,62.0,100.0
345,40.51656026250001,40.69549455000001,65.0,97.0
346,40.51656026250001,40.69993618125,57.0,89.0
347,40.36427576250001,40.90742381250001,50.0,81.0
348,40.82112926250001,40.94930205000001,65.0,95.0
349,40.82112926250001,40.96326146250001,62.0,102.0
350,40.82112926250001,40.98546961875,57.0,93.0
351,41.2779827625,41.29892188125,61.0,95.0
352,41.2779827625,41.33445493125001,59.0,112.0
353,41.2779827625,41.34968338125,62.0,100.0
354,41.2779827625,41.352855975000004,55.0,102.0
355,41.4302672625,41.531155743750006,59.0,96.0
356,41.4302672625,41.536866412500004,55.0,88.0
357,41.4302672625,41.54130804375001,62.0,92.0
358,40.9734137625,41.59333858125,43.0,85.0
359,41.734836262500004,41.87760298125001,59.0,100.0
360,41.5825517625,41.8820446125,50.0,96.0
361,41.734836262500004,41.890293356250005,55.0,96.0
362,41.734836262500004,41.897273062500005,62.0,100.0
363,42.039405262500004,42.173923237500006,59.0,99.0
364,42.039405262500004,42.186613612500004,62.0,97.0
365,42.039405262500004,42.190420725,55.0,93.0
366,42.496258762500005,42.564786787500005,60.0,122.0
367,42.496258762500005,42.56542130625,64.0,97.0
368,42.496258762500005,42.57811168125001,55.0,99.0
369,42.648543262500006,42.75133530000001,64.0,90.0
370,42.648543262500006,42.75831500625001,55.0,73.0
371,42.648543262500006,42.75958404375,60.0,97.0
372,42.191689762500005,42.7614876,36.0,89.0
373,42.95311226250001,43.119990693750005,60.0,112.0
374,42.95311226250001,43.126970400000005,64.0,97.0
375,42.95311226250001,43.13268106875,55.0,95.0
376,42.800827762500006,43.337630625,48.0,92.0
377,43.25768126250001,43.380777900000005,64.0,96.0
378,43.25768126250001,43.43471199375001,55.0,93.0
379,43.25768126250001,43.445498812500006,60.0,117.0
380,43.71453476250001,43.780524712500004,59.0,95.0
381,43.71453476250001,43.787504418750004,62.0,95.0
382,43.71453476250001,43.79511864375001,55.0,95.0
383,43.86681926250001,43.986743306250006,59.0,88.0
384,43.86681926250001,43.99499205000001,62.0,83.0
385,43.86681926250001,44.0013372375,55.0,72.0
386,43.40996576250001,44.20819035,43.0,89.0
387,44.1713882625,44.258317331250005,59.0,97.0
388,44.1713882625,44.2678351125,55.0,92.0
389,44.1713882625,44.2729112625,62.0,92.0
390,44.4759572625,44.606668125000006,55.0,92.0
391,44.4759572625,44.60793716250001,59.0,100.0
392,44.0191037625,44.622531093750005,50.0,73.0
393,44.4759572625,44.6231656125,62.0,93.0
394,44.932810762500004,44.981668706250005,59.0,85.0
395,44.932810762500004,44.992455525000004,60.0,86.0
396,44.932810762500004,44.999435231250004,64.0,82.0
397,44.932810762500004,45.006414937500004,57.0,92.0
398,45.085095262500005,45.19232893125,60.0,97.0
399,45.085095262500005,45.1993086375,64.0,92.0
400,45.085095262500005,45.2081919,57.0,82.0
401,44.628241762500004,45.288141262500005,45.0,76.0
402,45.389664262500006,45.53433453750001,60.0,107.0
403,45.237379762500005,45.54258328125,52.0,71.0
404,45.389664262500006,45.54702491250001,64.0,97.0
405,45.389664262500006,45.55210106250001,57.0,83.0
406,45.694233262500006,45.813522787500006,64.0,93.0
407,45.694233262500006,45.83065479375001,60.0,107.0
408,45.694233262500006,45.86174621250001,57.0,85.0
409,46.15108676250001,46.22469093750001,55.0,89.0
410,46.15108676250001,46.234208718750004,52.0,93.0
411,46.15108676250001,46.236112275,59.0,82.0
412,46.30337126250001,46.40997041250001,55.0,93.0
413,46.30337126250001,46.41695011875001,52.0,81.0
414,46.30337126250001,46.421391750000005,59.0,89.0
415,45.84651776250001,46.484209106250006,40.0,78.0
416,46.60794026250001,46.7424582375,52.0,88.0
417,46.60794026250001,46.75007246250001,55.0,95.0
418,46.60794026250001,46.760859281250006,59.0,93.0
419,46.91250926250001,47.01212870625,52.0,95.0
420,46.91250926250001,47.016570337500006,55.0,93.0
421,46.45565576250001,47.02989523125001,47.0,68.0
422,46.91250926250001,47.046392718750006,59.0,93.0
423,47.3693627625,47.430276562500005,57.0,99.0
424,47.3693627625,47.4429669375,53.0,95.0
425,47.3693627625,47.446139531250004,60.0,97.0
426,47.521647262500004,47.619363150000005,53.0,70.0
427,47.521647262500004,47.62380478125001,57.0,86.0
428,47.521647262500004,47.62951545000001,60.0,76.0
429,47.0647937625,47.67646983750001,41.0,73.0
430,47.826216262500004,47.96200327500001,57.0,99.0
431,47.826216262500004,47.966444906250004,53.0,93.0
432,47.826216262500004,48.00197795625001,60.0,95.0
433,48.130785262500005,48.244998637500004,53.0,95.0
434,48.130785262500005,48.25578545625,57.0,97.0
435,48.130785262500005,48.272917462500004,60.0,95.0
436,47.673931762500004,48.283069762500006,48.0,71.0
437,48.587638762500006,48.654263231250006,59.0,97.0
438,48.587638762500006,48.656166787500005,64.0,99.0
439,48.587638762500006,48.661877456250004,67.0,90.0
440,48.283069762500006,48.81860358750001,40.0,93.0
441,48.73992326250001,48.857943750000004,64.0,97.0
442,48.73992326250001,48.86048182500001,67.0,89.0
443,48.73992326250001,48.864923456250004,59.0,86.0
444,49.04449226250001,49.2399240375,64.0,96.0
445,49.04449226250001,49.25578700625,59.0,92.0
446,49.04449226250001,49.25959411875001,67.0,86.0
447,48.89220776250001,49.390304981250004,52.0,88.0
448,49.34906126250001,49.46644723125001,64.0,97.0
449,49.34906126250001,49.479137606250006,67.0,95.0
450,49.34906126250001,49.488020868750006,59.0,97.0
451,49.80591476250001,49.864925006250004,62.0,99.0
452,49.80591476250001,49.866828562500004,65.0,90.0
453,49.80591476250001,49.87253923125001,57.0,92.0
454,49.50134576250001,49.99563586875001,38.0,83.0
455,49.9581992625,50.050839,57.0,86.0
456,49.9581992625,50.0597222625,65.0,93.0
457,49.9581992625,50.06352937500001,62.0,99.0
458,50.2627682625,50.41568728125001,62.0,107.0
459,50.2627682625,50.42076343125001,57.0,99.0
460,50.2627682625,50.42837765625001,65.0,107.0
461,50.1104837625,50.611119056250004,50.0,89.0
462,50.567337262500004,50.69043390000001,62.0,102.0
463,50.567337262500004,50.71644916875,65.0,95.0
464,50.567337262500004,50.735484731250004,57.0,96.0
465,51.024190762500005,51.095891381250006,55.0,97.0
466,51.024190762500005,51.095891381250006,59.0,100.0
467,51.024190762500005,51.099698493750005,62.0,93.0
468,51.176475262500006,51.281805375000005,59.0,96.0
469,51.176475262500006,51.28243989375001,55.0,79.0
470,51.176475262500006,51.28243989375001,62.0,93.0
471,50.719621762500005,51.35667858750001,43.0,86.0
472,51.481044262500006,51.595257637500005,59.0,99.0
473,51.481044262500006,51.597161193750004,55.0,96.0
474,51.481044262500006,51.609217050000005,62.0,99.0
475,51.328759762500006,51.83129861250001,50.0,81.0
476,51.78561326250001,51.8845981875,55.0,100.0
477,51.78561326250001,51.8845981875,59.0,102.0
478,51.78561326250001,51.90807538125001,62.0,100.0
479,51.93789776250001,51.95185717500001,38.0,86.0
480,52.24246676250001,52.3084567125,64.0,86.0
481,52.24246676250001,52.31289834375001,60.0,95.0
482,52.24246676250001,52.32114708750001,55.0,92.0
483,51.93789776250001,52.367466956250006,36.0,112.0
484,52.39475126250001,52.526731162500006,60.0,90.0
485,52.39475126250001,52.52800020000001,64.0,82.0
486,52.39475126250001,52.532441831250004,55.0,79.0
487,52.69932026250001,52.83130016250001,60.0,96.0
488,52.69932026250001,52.83827986875001,55.0,89.0
489,52.69932026250001,52.84716313125001,64.0,89.0
490,52.54703576250001,52.87444743750001,48.0,74.0
491,52.54703576250001,53.055919800000005,43.0,45.0
492,53.0038892625,53.138407237500004,60.0,100.0
493,53.0038892625,53.15871183750001,55.0,100.0
494,53.0038892625,53.19487940625001,64.0,95.0
495,53.460742762500004,53.52990530625001,60.0,96.0
496,53.460742762500004,53.541326643750004,64.0,86.0
497,53.460742762500004,53.54196116250001,55.0,93.0
498,53.1561737625,53.689804031250006,36.0,92.0
499,53.613027262500005,53.712646706250005,55.0,77.0
500,53.613027262500005,53.719626412500006,60.0,89.0
501,53.613027262500005,53.728509675000005,64.0,79.0
502,53.917596262500005,54.03625126875001,60.0,107.0
503,53.917596262500005,54.04513453125001,64.0,96.0
504,53.917596262500005,54.045769050000004,55.0,99.0
505,53.765311762500005,54.279906468750006,48.0,97.0
506,54.222165262500006,54.37762235625001,60.0,117.0
507,54.222165262500006,54.39348532500001,55.0,100.0
508,54.222165262500006,54.48802861875001,64.0,96.0
509,54.67901876250001,54.75071938125001,60.0,97.0
510,54.67901876250001,54.75198841875001,64.0,95.0
511,54.67901876250001,54.763409756250006,55.0,90.0
512,54.37444976250001,54.95693797500001,36.0,69.0
513,54.83130326250001,54.974069981250004,60.0,86.0
514,54.83130326250001,54.979146131250005,64.0,77.0
515,54.83130326250001,54.991201987500006,55.0,77.0
516,55.13587226250001,55.29196387500001,60.0,99.0
517,55.13587226250001,55.29323291250001,55.0,97.0
518,55.13587226250001,55.308461362500005,64.0,86.0
519,54.98358776250001,55.46899460625001,48.0,77.0
520,54.98358776250001,55.50325861875001,43.0,40.0
521,55.44044126250001,55.511507362500005,64.0,99.0
522,55.44044126250001,55.51214188125001,60.0,112.0
523,55.44044126250001,55.513410918750004,55.0,102.0
524,55.59272576250001,55.723436625000005,60.0,122.0
525,55.59272576250001,55.73866507500001,55.0,117.0
526,55.59272576250001,55.74754833750001,64.0,102.0
527,55.59272576250001,55.751355450000005,43.0,100.0
528,55.59272576250001,55.76087323125001,36.0,73.0
529,55.59272576250001,55.76848745625001,48.0,122.0
530,57.115570762500006,57.16760130000001,60.0,99.0
531,57.115570762500006,57.18536782500001,55.0,100.0
532,57.115570762500006,57.18854041875001,64.0,90.0
533,57.26785526250001,57.634607100000004,60.0,85.0
534,57.26785526250001,57.64349036250001,64.0,79.0
535,57.26785526250001,57.658718812500005,55.0,75.0
536,56.811001762500005,57.890318156250004,36.0,102.0
537,57.72470876250001,57.92902380000001,60.0,107.0
538,57.42013976250001,57.97978530000001,48.0,112.0
539,57.72470876250001,57.996917306250005,64.0,99.0
540,57.87699326250001,58.02927776250001,55.0,95.0
541,58.33384676250001,58.39158796875001,55.0,107.0
542,58.33384676250001,58.396029600000006,59.0,122.0
543,58.33384676250001,58.399836712500004,62.0,96.0
544,58.02927776250001,58.66696910625001,43.0,95.0
545,58.48613126250001,58.693618893750006,55.0,76.0
546,58.48613126250001,58.709481862500006,59.0,92.0
547,58.48613126250001,58.80910130625001,62.0,86.0
548,58.94298476250001,59.13143683125001,59.0,99.0
549,58.63841576250001,59.165066325000005,50.0,97.0
550,58.94298476250001,59.21519330625001,62.0,97.0
551,59.095269262500004,59.23613242500001,55.0,86.0
552,59.552122762500005,59.620650787500004,60.0,99.0
553,59.552122762500005,59.628899531250006,57.0,100.0
554,59.552122762500005,59.635879237500006,64.0,93.0
555,59.247553762500004,59.83448360625001,45.0,100.0
556,59.704407262500006,59.84146331250001,60.0,89.0
557,59.704407262500006,59.84527042500001,57.0,83.0
558,59.704407262500006,59.865575025000005,64.0,85.0
559,59.856691762500006,60.261514725000005,52.0,100.0
560,60.16126076250001,60.36367224375001,60.0,107.0
561,60.16126076250001,60.39349462500001,64.0,100.0
562,60.31354526250001,60.44425612500001,57.0,107.0
563,60.77039876250001,60.96773409375001,55.0,107.0
564,60.77039876250001,61.00453618125001,59.0,99.0
565,60.92268326250001,61.00643973750001,52.0,122.0
566,60.46582976250001,61.06925709375001,40.0,107.0
567,61.22725226250001,61.36240475625001,55.0,93.0
568,61.22725226250001,61.38715098750001,59.0,96.0
569,61.37953676250001,61.57941016875001,52.0,100.0
570,61.53182126250001,61.639689450000006,55.0,107.0
571,61.53182126250001,61.65872501250001,59.0,97.0
572,61.07496776250001,61.67712605625001,47.0,107.0
573,61.98867476250001,62.05529923125001,57.0,97.0
574,61.98867476250001,62.05783730625001,53.0,93.0
575,61.98867476250001,62.074334793750005,60.0,100.0
576,62.140959262500004,62.238675150000006,53.0,88.0
577,62.140959262500004,62.26405590000001,57.0,95.0
578,62.140959262500004,62.27611175625001,60.0,79.0
579,61.68410576250001,62.36938601250001,41.0,92.0
580,62.293243762500005,62.66189915625001,48.0,99.0
581,62.597812762500006,62.788802906250005,57.0,117.0
582,62.597812762500006,62.83131566250001,60.0,117.0
583,62.750097262500006,62.88207716250001,53.0,102.0
584,62.902381762500006,63.30974280000001,40.0,102.0
585,63.20695076250001,63.36367689375001,55.0,107.0
586,63.20695076250001,63.43918462500001,59.0,100.0
587,63.35923526250001,63.512154281250005,52.0,97.0
588,63.66380426250001,63.81418520625001,55.0,100.0
589,63.66380426250001,63.862408631250005,59.0,102.0
590,63.81608876250001,64.00961698125,52.0,99.0
591,63.51151976250001,64.04197743750001,40.0,102.0
592,63.96837326250001,64.061013,55.0,100.0
593,63.96837326250001,64.09210441875001,59.0,107.0
594,64.4252267625,64.49819641875001,57.0,93.0
595,64.4252267625,64.51405938750001,62.0,117.0
596,64.1206577625,64.632079875,38.0,96.0
597,64.57751126250001,64.71900894375001,62.0,96.0
598,64.57751126250001,64.72154701875,57.0,90.0
599,64.57751126250001,64.73043028125001,65.0,99.0
600,64.7297957625,65.02611601875,45.0,27.0
601,65.18664926250001,65.2488321,59.0,81.0
602,65.0343647625,65.25961891875001,65.0,122.0
603,65.0343647625,65.27738544375,62.0,122.0
604,64.7297957625,65.28055803750001,50.0,99.0
605,65.18664926250001,65.332588575,57.0,93.0
606,65.6435027625,65.69489878125,55.0,92.0
607,65.6435027625,65.71901049375,59.0,112.0
608,65.6435027625,65.75200546875001,62.0,100.0
609,65.79578726250001,65.95060983750001,59.0,82.0
610,65.79578726250001,65.96901088125001,62.0,72.0
611,66.10035626250001,66.23297068125001,59.0,107.0
612,65.3389337625,66.25137172500001,43.0,96.0
613,65.9480717625,66.25962046875001,50.0,99.0
614,66.10035626250001,66.29642255625001,62.0,107.0
615,66.25264076250001,66.54007775625001,55.0,99.0
616,66.40492526250002,66.5470574625,59.0,100.0
617,66.40492526250002,66.56292043125,62.0,100.0
618,66.86177876250001,66.92776871250001,64.0,99.0
619,66.86177876250001,66.92967226875001,60.0,107.0
620,66.86177876250001,66.936651975,55.0,99.0
621,66.55720976250001,67.0457892,36.0,95.0
622,67.0140632625,67.139697975,55.0,75.0
623,67.0140632625,67.15619546250001,60.0,100.0
624,67.0140632625,67.16063709375001,64.0,90.0
625,67.47091676250001,67.63145000625,64.0,107.0
626,67.47091676250001,67.68601861875001,60.0,127.0
627,67.16634776250001,67.73360752500001,48.0,97.0
628,67.6232012625,67.784369025,55.0,99.0
629,68.08005476250001,68.15810056875002,59.0,117.0
630,68.08005476250001,68.17205998125002,62.0,102.0
631,67.77548576250001,68.28436980000001,43.0,100.0
632,68.2323392625,68.33513130000001,59.0,73.0
633,68.2323392625,68.34718715625002,62.0,79.0
634,68.2323392625,68.35035975000001,55.0,112.0
635,68.2323392625,68.36876079375001,47.0,35.0
636,68.5369082625,68.66571556875,62.0,100.0
637,68.5369082625,68.667619125,59.0,107.0
638,68.38462376250001,68.94934545000001,50.0,99.0
639,68.8414772625,68.98932013125001,59.0,107.0
640,68.8414772625,69.00010695,62.0,112.0
641,69.29833076250002,69.37320397500001,60.0,107.0
642,69.29833076250002,69.37320397500001,64.0,97.0
643,69.29833076250002,69.38906694375001,57.0,95.0
644,68.99376176250001,69.48297571875001,45.0,96.0
645,69.45061526250001,69.57815353125001,48.0,32.0
646,69.45061526250001,69.57942256875,57.0,67.0
647,69.45061526250001,69.58386420000001,64.0,86.0
648,69.45061526250001,69.59211294375001,60.0,93.0
649,69.6028997625,69.94807796250001,52.0,97.0
650,69.9074687625,70.10988024375001,64.0,107.0
651,69.9074687625,70.11559091250001,60.0,127.0
652,70.05975326250001,70.19680931250001,57.0,92.0
653,70.5166067625,70.5686373,52.0,81.0
654,70.5166067625,70.59211449375,55.0,96.0
655,70.5166067625,70.61178457500002,59.0,90.0
656,70.66889126250001,70.76787618750001,55.0,92.0
657,70.66889126250001,70.7831046375,52.0,97.0
658,70.66889126250001,70.80023664375001,59.0,81.0
659,70.2120377625,70.82307931875,40.0,95.0
660,70.97346026250001,71.15873973750001,55.0,96.0
661,70.97346026250001,71.167623,59.0,92.0
662,70.8211757625,71.36876544375001,47.0,86.0
663,71.27802926250001,71.37637966875,55.0,97.0
664,71.27802926250001,71.41445079375,59.0,97.0
665,71.7348827625,71.80023819375,57.0,100.0
666,71.7348827625,71.81039049375,53.0,95.0
667,71.7348827625,71.82308086875001,60.0,100.0
668,71.4303137625,71.92968001875,41.0,92.0
669,71.88716726250001,72.02358879375001,57.0,97.0
670,71.88716726250001,72.02485783125,53.0,81.0
671,71.88716726250001,72.03501013125,60.0,88.0
672,72.03945176250001,72.0711777,41.0,38.0
673,72.03945176250001,72.42650820000001,47.0,54.0
674,72.34402076250001,72.4366605,53.0,96.0
675,72.34402076250001,72.45506154375,57.0,99.0
676,72.34402076250001,72.49693978125,60.0,96.0
677,72.95315876250001,73.01089996875001,55.0,99.0
678,72.95315876250001,73.01914871250001,52.0,89.0
679,72.95315876250001,73.0242248625,59.0,90.0
680,72.64858976250001,73.11432652500001,40.0,107.0
681,73.1054432625,73.18856521875001,52.0,74.0
682,73.1054432625,73.21458048750002,55.0,90.0
683,73.1054432625,73.21965663750001,59.0,82.0
684,73.1054432625,73.23171249375001,43.0,34.0
685,73.25772776250001,73.72917519375001,47.0,95.0
686,73.56229676250001,73.76851535625,55.0,99.0
687,73.56229676250001,73.79643418125,59.0,97.0
688,73.7145812625,73.81166263125002,52.0,89.0
689,73.86686576250001,74.01724670625,43.0,66.0
690,73.86686576250001,74.02803352500001,59.0,102.0
691,73.86686576250001,74.0293025625,55.0,102.0
692,73.86686576250001,74.03501323125,50.0,89.0
693,73.86686576250001,74.03628226875001,62.0,97.0
694,74.47600376250001,74.62384663125,43.0,77.0
695,74.47600376250001,74.62638470625001,50.0,102.0
696,74.47600376250001,74.6359024875,59.0,102.0
697,74.47600376250001,74.64288219375001,55.0,97.0
698,74.47600376250001,74.66064871875001,62.0,97.0
699,75.08514176250002,75.20252773125002,55.0,102.0
700,75.08514176250002,75.20379676875001,59.0,112.0
701,75.08514176250002,75.20506580625,50.0,99.0
702,75.08514176250002,75.22346685000001,43.0,70.0
703,75.08514176250002,75.22346685000001,62.0,100.0
704,75.6942797625,75.78565046250002,50.0,107.0
705,75.6942797625,75.78628498125,55.0,100.0
706,75.6942797625,75.78755401875001,59.0,117.0
707,75.6942797625,75.79453372500001,43.0,79.0
708,75.6942797625,75.80532054375001,62.0,102.0
709,76.3034177625,76.37765645625001,55.0,102.0
710,76.3034177625,76.383367125,59.0,112.0
711,76.3034177625,76.38527068125,50.0,117.0
712,76.3034177625,76.38844327500001,43.0,78.0
713,76.3034177625,76.40049913125002,62.0,100.0
714,76.76027126250001,76.80532209375001,55.0,112.0
715,76.76027126250001,76.80976372500001,59.0,112.0
716,76.76027126250001,76.81293631875,43.0,69.0
717,76.76027126250001,76.8211850625,62.0,102.0
718,76.76027126250001,76.82245410000002,50.0,100.0
719,76.9125557625,76.98489090000001,59.0,97.0
720,76.9125557625,76.98996705,43.0,89.0
721,76.9125557625,76.98996705,50.0,92.0
722,76.9125557625,76.98996705,62.0,95.0
723,76.9125557625,76.99187060625,55.0,92.0
724,77.1409825125,77.20570342500001,43.0,96.0
725,77.1409825125,77.20887601875,59.0,117.0
726,77.1409825125,77.210779575,50.0,112.0
727,77.1409825125,77.21204861250001,55.0,107.0
728,77.1409825125,77.21268313125,62.0,102.0
729,77.36940926250001,77.53628769375001,59.0,122.0
730,77.36940926250001,77.53692221250002,55.0,112.0
731,77.36940926250001,77.54961258750001,50.0,117.0
732,77.36940926250001,77.5534197,62.0,102.0
733,77.36940926250001,77.57245526250001,43.0,102.0
734,79.04453876250001,79.10227996875001,60.0,122.0
735,79.04453876250001,79.11433582500001,64.0,95.0
736,79.04453876250001,79.11877745625002,55.0,99.0
737,78.73996976250001,79.22156949375001,36.0,96.0
738,79.1968232625,79.30405693125002,55.0,69.0
739,79.1968232625,79.31103663750001,60.0,81.0
740,79.1968232625,79.31484375000001,64.0,76.0
741,79.5013922625,79.68476818125,60.0,100.0
742,79.5013922625,79.69365144375001,64.0,99.0
743,79.34910776250001,79.88844870000001,48.0,112.0
744,79.8059612625,79.9607838375,60.0,99.0
745,79.8059612625,79.99187525625001,64.0,96.0
746,79.8059612625,80.00202755625001,55.0,89.0
747,80.26281476250001,80.33388086250001,59.0,97.0
748,80.26281476250001,80.33705345625,62.0,96.0
749,80.26281476250001,80.34086056875002,55.0,93.0
750,80.41509926250001,80.53058167500001,59.0,96.0
751,80.41509926250001,80.53629234375,55.0,81.0
752,80.41509926250001,80.53629234375,62.0,90.0
753,79.95824576250001,80.60608940625,43.0,82.0
754,80.71966826250001,80.91510003750001,55.0,82.0
755,80.71966826250001,80.91890715000001,59.0,95.0
756,80.71966826250001,80.92715589375001,62.0,90.0
757,81.02423726250001,81.15050649375002,59.0,96.0
758,81.02423726250001,81.15685168125,55.0,79.0
759,80.56738376250001,81.1689075375,50.0,81.0
760,81.02423726250001,81.17715628125,62.0,92.0
761,81.48109076250002,81.54644619375001,60.0,100.0
762,81.48109076250002,81.5572330125,64.0,95.0
763,81.48109076250002,81.56230916250001,57.0,100.0
764,81.63337526250001,81.75203026875,60.0,90.0
765,81.63337526250001,81.75203026875,64.0,92.0
766,81.63337526250001,81.75329930625001,57.0,82.0
767,81.17652176250002,81.80659888125001,45.0,96.0
768,81.93794426250001,81.96395953125001,57.0,66.0
769,81.7856597625,82.12512729375001,52.0,89.0
770,81.93794426250001,82.14923900625001,60.0,102.0
771,81.93794426250001,82.1562187125,64.0,99.0
772,82.24251326250001,82.38210738750001,60.0,102.0
773,82.24251326250001,82.40241198750002,64.0,95.0
774,82.24251326250001,82.41700591875001,57.0,93.0
775,82.6993667625,82.77423997500001,55.0,95.0
776,82.6993667625,82.78185420000001,52.0,83.0
777,82.6993667625,82.7831232375,59.0,90.0
778,82.85165126250001,82.95380878125,52.0,72.0
779,82.85165126250001,82.96269204375001,55.0,88.0
780,82.85165126250001,82.96967175,59.0,82.0
781,82.3947977625,83.00330124375002,40.0,78.0
782,83.15622026250001,83.33959618125002,55.0,100.0
783,83.15622026250001,83.34530685000001,59.0,97.0
784,83.15622026250001,83.34974848125,52.0,89.0
785,83.46078926250001,83.54771833125001,52.0,83.0
786,83.0039357625,83.55533255625001,47.0,90.0
787,83.46078926250001,83.57056100625002,55.0,95.0
788,83.46078926250001,83.5927691625,59.0,95.0
789,83.91764276250001,83.98363271250001,57.0,107.0
790,83.91764276250001,83.98934338125001,64.0,72.0
791,83.91764276250001,83.992515975,60.0,95.0
792,83.91764276250001,83.9988611625,53.0,97.0
793,84.06992726250002,84.16891218750001,57.0,88.0
794,84.06992726250002,84.16891218750001,60.0,88.0
795,84.06992726250002,84.18033352500001,64.0,76.0
796,84.06992726250002,84.18540967500002,53.0,78.0
797,83.61307376250001,84.22855695000001,41.0,95.0
798,84.37449626250002,84.54708536250001,57.0,93.0
799,84.37449626250002,84.5521615125,53.0,93.0
800,84.37449626250002,84.55914121875001,60.0,93.0
801,84.22221176250001,84.75013136250001,48.0,85.0
802,84.6790652625,84.80596901250001,57.0,97.0
803,84.6790652625,84.82373553750001,60.0,97.0
804,84.6790652625,84.83896398750001,53.0,93.0
805,85.13591876250001,85.20381226875001,55.0,97.0
806,85.13591876250001,85.2145990875,52.0,96.0
807,85.13591876250001,85.2145990875,59.0,89.0
808,85.2882032625,85.39924404375002,55.0,83.0
809,85.2882032625,85.39924404375002,59.0,83.0
810,85.2882032625,85.3998785625,52.0,71.0
811,84.83134976250001,85.43668065000001,40.0,95.0
812,85.5927722625,85.79772181875,52.0,95.0
813,85.5927722625,85.79899085625001,55.0,97.0
814,85.5927722625,85.80597056250001,59.0,99.0
815,85.44048776250001,85.86498080625002,47.0,88.0
816,85.8973412625,85.98109773750001,52.0,90.0
817,85.8973412625,85.99822974375002,55.0,95.0
818,85.8973412625,86.01218915625002,59.0,89.0
819,86.35419476250001,86.4303370125,62.0,122.0
820,86.35419476250001,86.43541316250001,65.0,100.0
821,86.35419476250001,86.444296425,57.0,100.0
822,86.04962576250001,86.601657075,38.0,89.0
823,86.50647926250001,86.62449975000001,65.0,88.0
824,86.50647926250001,86.6295759,62.0,96.0
825,86.50647926250001,86.63972820000001,57.0,75.0
826,86.50647926250001,86.68795162500001,45.0,27.0
827,86.81104826250001,86.98554091875,62.0,100.0
828,86.81104826250001,86.98998255000001,65.0,97.0
829,86.81104826250001,86.99442418125001,57.0,89.0
830,86.65876376250002,87.20191181250001,50.0,81.0
831,87.11561726250001,87.24379005000002,65.0,95.0
832,87.11561726250001,87.25774946250002,62.0,102.0
833,87.11561726250001,87.27995761875,57.0,93.0
834,87.57247076250002,87.59340988125001,61.0,95.0
835,87.57247076250002,87.62894293125001,59.0,112.0
836,87.57247076250002,87.64417138125,62.0,100.0
837,87.57247076250002,87.64734397500001,55.0,102.0
838,87.72475526250001,87.82564374375,59.0,96.0
839,87.72475526250001,87.8313544125,55.0,88.0
840,87.72475526250001,87.83579604375001,62.0,92.0
841,87.26790176250002,87.88782658125001,43.0,85.0
842,88.02932426250001,88.17209098125001,59.0,100.0
843,87.8770397625,88.17653261250001,50.0,96.0
844,88.02932426250001,88.18478135625001,55.0,96.0
845,88.02932426250001,88.1917610625,62.0,100.0
846,88.33389326250001,88.4684112375,59.0,99.0
847,88.33389326250001,88.48110161250001,62.0,97.0
848,88.33389326250001,88.48490872500001,55.0,93.0
849,88.7907467625,88.85927478750001,60.0,122.0
850,88.7907467625,88.85990930625002,64.0,97.0
851,88.7907467625,88.87259968125001,55.0,99.0
852,88.94303126250001,89.04582330000001,64.0,90.0
853,88.94303126250001,89.05280300625002,55.0,73.0
854,88.94303126250001,89.05407204375001,60.0,97.0
855,88.4861777625,89.05597560000001,36.0,89.0
856,89.24760026250001,89.41447869375001,60.0,112.0
857,89.24760026250001,89.4214584,64.0,97.0
858,89.24760026250001,89.42716906875,55.0,95.0
859,89.09531576250001,89.63211862500002,48.0,92.0
860,89.55216926250002,89.67526590000001,64.0,96.0
861,89.55216926250002,89.72919999375002,55.0,93.0
862,89.55216926250002,89.7399868125,60.0,117.0
863,90.00902276250001,90.07501271250001,59.0,95.0
864,90.00902276250001,90.08199241875,62.0,95.0
865,90.00902276250001,90.08960664375002,55.0,95.0
866,90.16130726250002,90.28123130625,59.0,88.0
867,90.16130726250002,90.28948005000001,62.0,83.0
868,90.16130726250002,90.29582523750001,55.0,72.0
869,89.70445376250001,90.50267835000001,43.0,89.0
870,90.46587626250002,90.55280533125001,59.0,97.0
871,90.46587626250002,90.56232311250001,55.0,92.0
872,90.46587626250002,90.56739926250002,62.0,92.0
873,90.7704452625,90.90115612500001,55.0,92.0
874,90.7704452625,90.90242516250001,59.0,100.0
875,90.31359176250001,90.91701909375001,50.0,73.0
876,90.7704452625,90.91765361250002,62.0,93.0
877,91.22729876250001,91.27615670625,59.0,85.0
878,91.22729876250001,91.28694352500001,60.0,86.0
879,91.22729876250001,91.29392323125,64.0,82.0
880,91.22729876250001,91.30090293750001,57.0,92.0
881,91.3795832625,91.48681693125,60.0,97.0
882,91.3795832625,91.49379663750001,64.0,92.0
883,91.3795832625,91.50267990000002,57.0,82.0
884,90.92272976250001,91.5826292625,45.0,76.0
885,91.6841522625,91.82882253750002,60.0,107.0
886,91.53186776250001,91.83707128125,52.0,71.0
887,91.6841522625,91.84151291250001,64.0,97.0
888,91.6841522625,91.84658906250002,57.0,83.0
889,91.98872126250001,92.1080107875,64.0,93.0
890,91.98872126250001,92.12514279375002,60.0,107.0
891,91.98872126250001,92.15623421250001,57.0,85.0
892,92.44557476250002,92.51917893750002,55.0,89.0
893,92.44557476250002,92.52869671875001,52.0,93.0
894,92.44557476250002,92.53060027500001,59.0,82.0
895,92.59785926250001,92.70445841250002,55.0,93.0
896,92.59785926250001,92.71143811875001,52.0,81.0
897,92.59785926250001,92.71587975000001,59.0,89.0
898,92.14100576250001,92.77869710625001,40.0,78.0
899,92.90242826250001,93.03694623750002,52.0,88.0
900,92.90242826250001,93.04456046250002,55.0,95.0
901,92.90242826250001,93.05534728125001,59.0,93.0
902,93.20699726250001,93.30661670625001,52.0,95.0
903,93.20699726250001,93.31105833750001,55.0,93.0
904,92.75014376250002,93.32438323125001,47.0,68.0
905,93.20699726250001,93.34088071875001,59.0,93.0
906,93.6638507625,93.72476456250001,57.0,99.0
907,93.6638507625,93.73745493750002,53.0,95.0
908,93.6638507625,93.74062753125001,60.0,97.0
909,93.81613526250001,93.91385115000001,53.0,70.0
910,93.81613526250001,93.91829278125002,57.0,86.0
911,93.81613526250001,93.92400345000001,60.0,76.0
912,93.35928176250002,93.97095783750001,41.0,73.0
913,94.12070426250001,94.25649127500002,57.0,99.0
914,94.12070426250001,94.26093290625,53.0,93.0
915,94.12070426250001,94.29646595625002,60.0,95.0
916,94.42527326250001,94.5394866375,53.0,95.0
917,94.42527326250001,94.55027345625001,57.0,97.0
918,94.42527326250001,94.5674054625,60.0,95.0
919,93.9684197625,94.5775577625,48.0,71.0
920,94.88212676250001,94.94875123125001,59.0,97.0
921,94.88212676250001,94.95065478750001,64.0,99.0
922,94.88212676250001,94.95636545625001,67.0,90.0
923,94.5775577625,95.11309158750001,40.0,93.0
924,95.03441126250002,95.15243175,64.0,97.0
925,95.03441126250002,95.15496982500001,67.0,89.0
926,95.03441126250002,95.15941145625001,59.0,86.0
927,95.33898026250002,95.53441203750002,64.0,96.0
928,95.33898026250002,95.55027500625002,59.0,92.0
929,95.33898026250002,95.55408211875002,67.0,86.0
930,95.18669576250001,95.68479298125001,52.0,88.0
931,95.64354926250002,95.76093523125002,64.0,97.0
932,95.64354926250002,95.77362560625001,67.0,95.0
933,95.64354926250002,95.78250886875001,59.0,97.0
934,96.10040276250001,96.15941300625,62.0,99.0
935,96.10040276250001,96.1613165625,65.0,90.0
936,96.10040276250001,96.16702723125002,57.0,92.0
937,95.79583376250001,96.29012386875002,38.0,83.0
938,96.25268726250002,96.34532700000001,57.0,86.0
939,96.25268726250002,96.35421026250002,65.0,93.0
940,96.25268726250002,96.35801737500002,62.0,99.0
941,96.55725626250002,96.71017528125002,62.0,107.0
942,96.55725626250002,96.71525143125001,57.0,99.0
943,96.55725626250002,96.72286565625001,65.0,107.0
944,96.40497176250001,96.90560705625,50.0,89.0
945,96.8618252625,96.98492190000002,62.0,102.0
946,96.8618252625,97.01093716875002,65.0,95.0
947,96.8618252625,97.02997273125001,57.0,96.0
948,97.31867876250001,97.39037938125001,55.0,97.0
949,97.31867876250001,97.39037938125001,59.0,100.0
950,97.31867876250001,97.39418649375001,62.0,93.0
951,97.4709632625,97.576293375,59.0,96.0
952,97.4709632625,97.57692789375001,55.0,79.0
953,97.4709632625,97.57692789375001,62.0,93.0
954,97.01410976250001,97.65116658750001,43.0,86.0
955,97.77553226250001,97.88974563750001,59.0,99.0
956,97.77553226250001,97.89164919375001,55.0,96.0
957,97.77553226250001,97.90370505000001,62.0,99.0
958,97.62324776250001,98.12578661250001,50.0,81.0
959,98.08010126250001,98.17908618750002,55.0,100.0
960,98.08010126250001,98.17908618750002,59.0,102.0
961,98.08010126250001,98.20256338125002,62.0,100.0
962,98.23238576250002,98.24634517500002,38.0,86.0
963,98.53695476250002,98.60294471250002,64.0,86.0
964,98.53695476250002,98.60738634375001,60.0,95.0
965,98.53695476250002,98.61563508750001,55.0,92.0
966,98.23238576250002,98.66195495625001,36.0,112.0
967,98.68923926250001,98.82121916250001,60.0,90.0
968,98.68923926250001,98.82248820000001,64.0,82.0
969,98.68923926250001,98.82692983125001,55.0,79.0
970,98.99380826250001,99.12578816250002,60.0,96.0
971,98.99380826250001,99.13276786875001,55.0,89.0
972,98.99380826250001,99.14165113125001,64.0,89.0
973,98.84152376250002,99.16893543750001,48.0,74.0
974,98.84152376250002,99.35040780000001,43.0,45.0
975,99.29837726250001,99.4328952375,60.0,100.0
976,99.29837726250001,99.45319983750001,55.0,100.0
977,99.29837726250001,99.48936740625001,64.0,95.0
978,99.7552307625,99.82439330625002,60.0,96.0
979,99.7552307625,99.83581464375001,64.0,86.0
980,99.7552307625,99.83644916250002,55.0,93.0
981,99.45066176250002,99.98429203125,36.0,92.0
982,99.90751526250001,100.00713470625001,55.0,77.0
983,99.90751526250001,100.0141144125,60.0,89.0
984,99.90751526250001,100.02299767500001,64.0,79.0
985,100.21208426250001,100.33073926875001,60.0,107.0
986,100.21208426250001,100.33962253125001,64.0,96.0
987,100.21208426250001,100.34025705000002,55.0,99.0
988,100.0597997625,100.57439446875001,48.0,97.0
989,100.51665326250001,100.67211035625002,60.0,117.0
990,100.51665326250001,100.68797332500002,55.0,100.0
991,100.51665326250001,100.78251661875001,64.0,96.0
992,100.97350676250001,101.04520738125001,60.0,97.0
993,100.97350676250001,101.04647641875002,64.0,95.0
994,100.97350676250001,101.05789775625001,55.0,90.0
995,100.66893776250001,101.25142597500002,36.0,69.0
996,101.12579126250002,101.26855798125001,60.0,86.0
997,101.12579126250002,101.27363413125,64.0,77.0
998,101.12579126250002,101.2856899875,55.0,77.0
999,101.43036026250002,101.58645187500001,60.0,99.0
1000,101.43036026250002,101.58772091250002,55.0,97.0
1001,101.43036026250002,101.60294936250001,64.0,86.0
1002,101.27807576250001,101.76348260625001,48.0,77.0
1003,101.27807576250001,101.79774661875001,43.0,40.0
1004,101.73492926250002,101.80599536250001,64.0,99.0
1005,101.73492926250002,101.80662988125002,60.0,112.0
1006,101.73492926250002,101.80789891875001,55.0,102.0
1007,101.88721376250001,102.017924625,60.0,122.0
1008,101.88721376250001,102.03315307500002,55.0,117.0
1009,101.88721376250001,102.04203633750001,64.0,102.0
1010,101.88721376250001,102.04584345,43.0,100.0
1011,101.88721376250001,102.05536123125002,36.0,73.0
1012,101.88721376250001,102.06297545625002,48.0,122.0
1013,103.41005876250001,103.47604871250002,65.0,97.0
1014,103.41005876250001,103.4925462,69.0,93.0
1015,103.41005876250001,103.49508427500001,60.0,102.0
1016,103.10548976250001,103.5521909625,41.0,78.0
1017,103.56234326250001,103.67274952500001,69.0,72.0
1018,103.56234326250001,103.67465308125001,65.0,72.0
1019,103.56234326250001,103.68226730625001,60.0,69.0
1020,103.86691226250001,103.96970430000002,65.0,99.0
1021,103.86691226250001,103.98176015625002,69.0,88.0
1022,103.86691226250001,103.98937438125002,60.0,93.0
1023,103.71462776250002,104.23937476875001,53.0,89.0
1024,104.17148126250001,104.26856263125,65.0,99.0
1025,104.17148126250001,104.30155760625001,60.0,100.0
1026,104.17148126250001,104.30346116250001,69.0,96.0
1027,103.71462776250002,104.33709065625001,48.0,47.0
1028,104.62833476250002,104.69813182500002,65.0,96.0
1029,104.62833476250002,104.72097450000001,69.0,88.0
1030,104.62833476250002,104.72605065000002,60.0,95.0
1031,104.32376576250002,104.83645691250001,41.0,69.0
1032,104.78061926250001,104.88404581875001,65.0,82.0
1033,104.78061926250001,104.89102552500002,69.0,78.0
1034,104.78061926250001,104.89610167500001,60.0,68.0
1035,104.93290376250002,105.15371628750002,53.0,78.0
1036,104.93290376250002,105.17211733125,48.0,31.0
1037,105.08518826250001,105.22351335000002,65.0,100.0
1038,105.08518826250001,105.26856418125001,60.0,96.0
1039,105.08518826250001,105.27364033125001,69.0,92.0
1040,105.38975726250001,105.49128026250001,65.0,99.0
1041,105.38975726250001,105.50777775000002,69.0,93.0
1042,105.38975726250001,105.56551895625002,60.0,95.0
1043,105.8466107625,105.92592560625002,60.0,97.0
1044,105.8466107625,105.93290531250001,55.0,95.0
1045,105.8466107625,105.93798146250002,64.0,83.0
1046,105.54204176250002,106.00968208125002,36.0,79.0
1047,105.99889526250001,106.11755026875001,60.0,71.0
1048,105.99889526250001,106.11945382500001,64.0,59.0
1049,105.99889526250001,106.13468227500002,55.0,54.0
1050,106.1511797625,106.42148475000002,48.0,81.0
1051,106.30346426250001,106.45194165000001,60.0,96.0
1052,106.30346426250001,106.46463202500001,64.0,81.0
1053,106.30346426250001,106.46590106250001,55.0,89.0
1054,106.1511797625,106.71590145000002,43.0,45.0
1055,106.60803326250002,106.72351567500002,60.0,99.0
1056,106.60803326250002,106.76412487500001,55.0,97.0
1057,106.60803326250002,106.77427717500001,64.0,92.0
1058,107.06488676250001,107.13849093750001,60.0,96.0
1059,107.06488676250001,107.15054679375001,64.0,90.0
1060,107.06488676250001,107.15562294375002,55.0,86.0
1061,106.76031776250001,107.28506476875002,36.0,71.0
1062,107.21717126250002,107.33011560000001,64.0,77.0
1063,107.21717126250002,107.33836434375002,60.0,81.0
1064,107.21717126250002,107.33899886250002,55.0,64.0
1065,107.36945576250001,107.58773021250002,48.0,100.0
1066,107.36945576250001,107.63976075000001,43.0,50.0
1067,107.52174026250002,107.67592831875001,64.0,93.0
1068,107.52174026250002,107.68036995000001,60.0,99.0
1069,107.52174026250002,107.69877099375002,55.0,93.0
1070,107.67402476250001,107.87136009375001,37.0,117.0
1071,107.82630926250002,107.88405046875002,55.0,90.0
1072,107.82630926250002,107.89737536250001,64.0,82.0
1073,107.82630926250002,107.906258625,60.0,97.0
1074,108.28316276250001,108.35422886250001,62.0,112.0
1075,108.28316276250001,108.35676693750001,65.0,99.0
1076,108.28316276250001,108.37009183125001,57.0,102.0
1077,107.97859376250001,108.54204641250001,38.0,81.0
1078,108.43544726250002,108.54775708125001,65.0,97.0
1079,108.43544726250002,108.54839160000002,62.0,102.0
1080,108.43544726250002,108.54966063750001,57.0,76.0
1081,108.58773176250001,108.83900118750002,50.0,95.0
1082,108.7400162625,108.86755453125001,57.0,89.0
1083,108.7400162625,108.87770683125001,62.0,99.0
1084,108.7400162625,108.87897586875002,65.0,92.0
1085,109.04458526250001,109.16260575000001,62.0,112.0
1086,109.04458526250001,109.16831641875001,57.0,96.0
1087,109.04458526250001,109.17529612500002,65.0,99.0
1088,108.58773176250001,109.17846871875001,45.0,47.0
1089,109.50143876250002,109.57440841875001,62.0,102.0
1090,109.50143876250002,109.58836783125001,65.0,96.0
1091,109.50143876250002,109.59027138750001,57.0,96.0
1092,109.19686976250001,109.74826655625002,38.0,82.0
1093,109.65372326250001,109.76476404375002,62.0,77.0
1094,109.65372326250001,109.76476404375002,65.0,72.0
1095,109.65372326250001,109.77999249375002,57.0,71.0
1096,109.95829226250001,110.12072906250002,65.0,97.0
1097,109.95829226250001,110.12263261875002,62.0,97.0
1098,109.95829226250001,110.13341943750001,57.0,89.0
1099,109.80600776250002,110.30600853750002,50.0,96.0
1100,110.26286126250001,110.37390204375001,65.0,99.0
1101,110.26286126250001,110.39737923750002,62.0,117.0
1102,110.26286126250001,110.43798843750001,57.0,95.0
1103,110.71971476250002,110.78824278750001,59.0,96.0
1104,110.71971476250002,110.80220220000001,62.0,92.0
1105,110.71971476250002,110.80664383125001,55.0,95.0
1106,110.87199926250001,110.99192330625002,59.0,81.0
1107,110.87199926250001,111.00017205000002,62.0,78.0
1108,110.87199926250001,111.00905531250001,55.0,72.0
1109,110.41514576250002,111.04395384375002,43.0,89.0
1110,111.17656826250001,111.30220297500001,59.0,97.0
1111,111.17656826250001,111.31743142500001,55.0,97.0
1112,111.17656826250001,111.37961426250001,62.0,95.0
1113,111.48113726250001,111.62136590625002,59.0,97.0
1114,111.02428376250002,111.63342176250002,50.0,93.0
1115,111.48113726250001,111.65753347500001,55.0,97.0
1116,111.48113726250001,111.74636610000002,62.0,93.0
1117,111.93799076250001,111.99446293125001,59.0,100.0
1118,111.93799076250001,112.01096041875002,62.0,96.0
1119,111.93799076250001,112.01984368125001,55.0,99.0
1120,112.09027526250001,112.20448863750002,59.0,85.0
1121,112.09027526250001,112.21527545625001,62.0,79.0
1122,112.09027526250001,112.22098612500001,55.0,79.0
1123,111.63342176250002,112.23621457500002,43.0,89.0
1124,112.24255976250001,112.50271245000002,50.0,99.0
1125,112.39484426250002,112.61502226875001,59.0,97.0
1126,112.39484426250002,112.62009841875002,55.0,96.0
1127,112.39484426250002,112.62834716250002,62.0,88.0
1128,112.69941326250002,112.80157078125002,59.0,99.0
1129,112.69941326250002,112.80855048750001,55.0,95.0
1130,112.69941326250002,112.82885508750002,62.0,95.0
1131,113.15626676250001,113.22479478750002,60.0,99.0
1132,113.15626676250001,113.23811968125001,57.0,93.0
1133,113.15626676250001,113.23811968125001,65.0,86.0
1134,112.85169776250001,113.38025188125002,41.0,85.0
1135,113.30855126250002,113.43291693750001,60.0,85.0
1136,113.30855126250002,113.44370375625002,57.0,69.0
1137,113.30855126250002,113.44497279375001,65.0,76.0
1138,113.46083576250001,113.68608991875001,53.0,78.0
1139,113.61312026250002,113.72987171250001,60.0,95.0
1140,113.61312026250002,113.74700371875001,65.0,89.0
1141,113.61312026250002,113.75271438750002,57.0,93.0
1142,113.30855126250002,113.98494825000002,48.0,15.0
1143,113.91768926250002,114.05157271875001,60.0,99.0
1144,113.91768926250002,114.06743568750001,57.0,96.0
1145,113.91768926250002,114.07124280000001,65.0,90.0
1146,114.37454276250001,114.43862915625002,60.0,107.0
1147,114.37454276250001,114.43926367500002,65.0,97.0
1148,114.37454276250001,114.46464442500002,57.0,102.0
1149,114.06997376250001,114.63025381875002,41.0,73.0
1150,114.52682726250002,114.64738582500001,60.0,81.0
1151,114.52682726250002,114.65500005000001,65.0,77.0
1152,114.52682726250002,114.66515235000001,57.0,69.0
1153,114.67911176250001,114.82885818750002,53.0,93.0
1154,114.67911176250001,114.87454353750002,48.0,20.0
1155,114.83139626250001,115.00461988125001,60.0,95.0
1156,114.83139626250001,115.02365544375002,57.0,85.0
1157,114.83139626250001,115.02365544375002,65.0,93.0
1158,115.13596526250001,115.25208219375001,60.0,97.0
1159,115.13596526250001,115.25335123125001,65.0,88.0
1160,115.13596526250001,115.28761524375001,57.0,99.0
1161,115.59281876250002,115.65817419375001,59.0,81.0
1162,115.59281876250002,115.66198130625001,55.0,90.0
1163,115.59281876250002,115.67720975625001,52.0,90.0
1164,115.74510326250001,115.85931663750002,55.0,86.0
1165,115.28824976250002,115.86629634375001,40.0,79.0
1166,115.74510326250001,115.87835220000001,52.0,79.0
1167,115.74510326250001,115.87835220000001,59.0,90.0
1168,116.04967226250001,116.17974860625002,55.0,93.0
1169,116.04967226250001,116.18799735000002,52.0,93.0
1170,116.04967226250001,116.20512935625001,59.0,92.0
1171,116.35424126250001,116.42784543750001,52.0,88.0
1172,116.35424126250001,116.44243936875002,55.0,97.0
1173,116.35424126250001,116.46972367500001,59.0,88.0
1174,115.89738776250002,116.52429228750002,47.0,93.0
1175,116.81109476250002,116.89104412500001,64.0,102.0
1176,116.81109476250002,116.89167864375001,67.0,97.0
1177,116.81109476250002,116.90056190625002,59.0,107.0
1178,116.50652576250002,117.07442004375001,40.0,85.0
1179,116.96337926250001,117.08520686250002,64.0,88.0
1180,116.96337926250001,117.08901397500001,67.0,82.0
1181,116.96337926250001,117.09599368125001,59.0,75.0
1182,117.11566376250002,117.29205997500002,52.0,63.0
1183,117.11566376250002,117.37898904375001,47.0,16.0
1184,117.26794826250001,117.42721246875001,64.0,102.0
1185,117.26794826250001,117.43609573125002,67.0,97.0
1186,117.26794826250001,117.43926832500001,59.0,95.0
1187,117.57251726250001,117.69688293750002,67.0,89.0
1188,117.57251726250001,117.71084235000002,64.0,100.0
1189,117.57251726250001,117.73876117500001,59.0,92.0
1190,118.02937076250001,118.09536071250001,65.0,90.0
1191,118.02937076250001,118.10043686250002,62.0,97.0
1192,118.02937076250001,118.10741656875001,57.0,96.0
1193,117.72480176250002,118.26287366250001,38.0,86.0
1194,118.18165526250002,118.30157930625002,62.0,86.0
1195,118.18165526250002,118.31426968125001,65.0,74.0
1196,118.18165526250002,118.31934583125002,57.0,79.0
1197,118.33393976250001,118.58901630000001,50.0,83.0
1198,118.48622426250002,118.60741734375001,62.0,99.0
1199,118.48622426250002,118.61820416250002,65.0,95.0
1200,118.48622426250002,118.62708742500001,57.0,96.0
1201,118.79079326250002,118.91706249375001,62.0,107.0
1202,118.79079326250002,118.92086960625001,65.0,95.0
1203,118.79079326250002,118.94180872500002,57.0,99.0
1204,118.18165526250002,118.96718947500001,45.0,24.0
1205,119.24764676250001,119.32125093750001,62.0,102.0
1206,119.24764676250001,119.32251997500002,65.0,89.0
1207,119.24764676250001,119.33838294375002,57.0,92.0
1208,119.39993126250002,119.53000760625001,62.0,88.0
1209,119.39993126250002,119.53698731250002,65.0,78.0
1210,119.39993126250002,119.54777413125001,57.0,76.0
1211,118.94307776250001,119.59663207500002,38.0,73.0
1212,119.70450026250002,119.85361216875002,62.0,102.0
1213,119.70450026250002,119.87137869375002,65.0,93.0
1214,119.70450026250002,119.87518580625002,57.0,93.0
1215,119.55221576250001,120.04587135000001,50.0,93.0
1216,120.00906926250002,120.09599833125002,62.0,100.0
1217,120.00906926250002,120.10615063125002,57.0,95.0
1218,120.00906926250002,120.11503389375001,65.0,93.0
1219,120.46592276250001,120.52874011875001,60.0,99.0
1220,120.46592276250001,120.53381626875002,63.0,99.0
1221,120.16135376250001,120.54523760625001,44.0,107.0
1222,120.46592276250001,120.54650664375002,56.0,97.0
1223,120.61820726250002,120.71782670625001,60.0,89.0
1224,120.61820726250002,120.73432419375001,63.0,88.0
1225,120.61820726250002,120.74828360625001,56.0,74.0
1226,121.07506076250002,121.19054317500002,60.0,112.0
1227,121.07506076250002,121.24130467500001,56.0,102.0
1228,120.77049176250001,121.24257371250002,51.0,72.0
1229,121.07506076250002,121.25018793750002,63.0,102.0
1230,121.68419876250002,121.74828515625002,62.0,95.0
1231,121.68419876250002,121.75272678750001,59.0,97.0
1232,121.68419876250002,121.76034101250002,55.0,97.0
1233,121.37962976250002,121.89739706250002,43.0,95.0
1234,121.83648326250001,121.93800626250001,59.0,86.0
1235,121.83648326250001,121.94308241250002,62.0,83.0
1236,121.83648326250001,121.95323471250002,55.0,71.0
1237,122.14105226250001,122.25526563750002,59.0,97.0
1238,122.14105226250001,122.26605245625001,55.0,96.0
1239,122.14105226250001,122.27303216250002,62.0,92.0
1240,121.98876776250002,122.42531666250001,50.0,96.0
1241,122.44562126250001,122.52049447500002,59.0,93.0
1242,122.44562126250001,122.53128129375001,55.0,92.0
1243,122.44562126250001,122.54650974375002,62.0,88.0
1244,122.90247476250002,122.97227182500002,69.0,97.0
1245,122.90247476250002,122.97925153125001,64.0,95.0
1246,122.90247476250002,122.98115508750001,72.0,89.0
1247,122.59790576250002,123.06300800625002,45.0,100.0
1248,123.05475926250001,123.16580004375001,69.0,96.0
1249,123.05475926250001,123.17151071250001,72.0,90.0
1250,123.05475926250001,123.18356656875001,64.0,93.0
1251,123.35932826250001,123.48242490000001,69.0,100.0
1252,123.35932826250001,123.49638431250001,64.0,97.0
1253,123.35932826250001,123.50399853750001,72.0,95.0
1254,123.20704376250002,123.58585145625001,57.0,92.0
1255,123.20704376250002,123.80412590625002,52.0,41.0
1256,123.66389726250002,123.80476042500001,69.0,107.0
1257,123.66389726250002,123.83902443750002,72.0,100.0
1258,123.66389726250002,123.84346606875002,64.0,102.0
1259,123.96846626250002,124.09473549375002,69.0,102.0
1260,123.96846626250002,124.11186750000002,64.0,100.0
1261,123.96846626250002,124.11567461250002,72.0,99.0
1262,123.81618176250001,124.21592857500002,45.0,83.0
1263,124.27303526250002,124.38534508125001,69.0,100.0
1264,124.27303526250002,124.39740093750001,64.0,107.0
1265,124.12075076250001,124.40374612500001,57.0,71.0
1266,124.27303526250002,124.41326390625001,72.0,99.0
1267,124.12075076250001,124.43293398750002,52.0,64.0
1268,124.57760426250002,124.71656386875001,69.0,99.0
1269,124.57760426250002,124.74067558125002,64.0,93.0
1270,124.57760426250002,124.74448269375002,72.0,95.0
1271,124.72988876250001,124.87582807500002,52.0,90.0
1272,124.42531976250001,124.88978748750002,45.0,85.0
1273,124.88217326250002,125.00146278750002,57.0,102.0
1274,124.88217326250002,125.00209730625002,69.0,99.0
1275,124.88217326250002,125.01224960625001,72.0,96.0
1276,124.88217326250002,125.02620901875001,64.0,92.0
1277,125.18674226250002,125.30793534375002,67.0,117.0
1278,125.18674226250002,125.31681860625001,64.0,102.0
1279,125.18674226250002,125.33775772500002,71.0,102.0
1280,125.03445776250001,125.34410291250002,40.0,95.0
1281,125.49131126250002,125.59029618750002,67.0,99.0
1282,125.33902676250001,125.60235204375002,47.0,62.0
1283,125.49131126250002,125.60679367500002,71.0,97.0
1284,125.49131126250002,125.61123530625001,64.0,95.0
1285,125.49131126250002,125.71846897500002,52.0,96.0
1286,125.79588026250002,125.89486518750002,67.0,100.0
1287,125.79588026250002,125.91136267500002,64.0,95.0
1288,125.79588026250002,125.91516978750002,71.0,95.0
1289,125.64359576250001,125.93864698125002,40.0,85.0
1290,125.94816476250001,126.18547477500002,52.0,90.0
1291,125.94816476250001,126.19562707500002,47.0,73.0
1292,126.10044926250002,126.19562707500002,67.0,99.0
1293,126.10044926250002,126.21529715625002,64.0,89.0
1294,126.10044926250002,126.21720071250002,71.0,97.0
1295,126.40501826250002,126.50844481875002,67.0,97.0
1296,126.40501826250002,126.53001845625002,64.0,92.0
1297,126.40501826250002,126.53509460625001,71.0,93.0
1298,126.25273376250001,126.60996781875002,40.0,72.0
1299,126.55730276250002,126.80857218750002,52.0,88.0
1300,126.70958726250002,126.81808996875002,67.0,97.0
1301,126.70958726250002,126.82570419375001,47.0,42.0
1302,126.70958726250002,126.83522197500001,71.0,95.0
1303,126.70958726250002,126.84473975625002,64.0,90.0
1304,127.01415626250001,127.13344578750002,67.0,95.0
1305,127.01415626250001,127.15438490625002,64.0,85.0
1306,127.01415626250001,127.15565394375001,71.0,90.0
1307,126.86187176250002,127.28001961875002,40.0,89.0
1308,127.16644076250002,127.41453759375001,47.0,76.0
1309,127.31872526250001,127.41771018750002,67.0,99.0
1310,127.31872526250001,127.43293863750002,71.0,96.0
1311,127.31872526250001,127.43991834375002,64.0,92.0
1312,127.31872526250001,127.56428401875002,52.0,97.0
1313,127.62329426250001,127.75019801250002,65.0,97.0
1314,127.62329426250001,127.75337060625002,69.0,92.0
1315,127.62329426250001,127.76225386875002,60.0,97.0
1316,127.47100976250002,127.78826913750001,41.0,90.0
1317,127.77557876250002,128.04080760000002,48.0,96.0
1318,127.92786326250001,128.04461471250002,65.0,100.0
1319,127.92786326250001,128.05793960625002,60.0,96.0
1320,127.92786326250001,128.058574125,69.0,93.0
1321,127.92786326250001,128.18991950625002,53.0,93.0
1322,128.23243226250003,128.3491837125,65.0,112.0
1323,128.23243226250003,128.35616341875001,69.0,96.0
1324,128.23243226250003,128.36314312500002,60.0,99.0
1325,128.08014776250002,128.39804165625003,41.0,83.0
1326,128.3847167625,128.61631610625003,53.0,107.0
1327,128.3847167625,128.62583388750002,48.0,93.0
1328,128.5370012625,128.65184915625002,65.0,96.0
1329,128.5370012625,128.66453953125003,60.0,95.0
1330,128.5370012625,128.66580856875,69.0,93.0
1331,128.84157026250003,128.95197652500002,65.0,96.0
1332,128.84157026250003,128.96974305,69.0,92.0
1333,128.84157026250003,128.97101208750001,60.0,97.0
1334,128.68928576250002,129.05540308125,41.0,79.0
1335,128.9938547625,129.21022565625,53.0,102.0
1336,128.9938547625,129.23814448125,48.0,90.0
1337,129.14613926250001,129.26669782500002,65.0,99.0
1338,129.14613926250001,129.27621560625002,69.0,95.0
1339,129.14613926250001,129.2882714625,60.0,95.0
1340,129.45070826250003,129.59347498125,65.0,97.0
1341,129.45070826250003,129.60553083750003,69.0,90.0
1342,129.45070826250003,129.61949025,60.0,93.0
1343,129.29842376250002,129.71086095,41.0,74.0
1344,129.75527726250002,129.82824691875,69.0,83.0
1345,129.6029927625,129.83649566250003,53.0,107.0
1346,129.75527726250002,129.84093729375002,60.0,99.0
1347,129.75527726250002,129.85743478125002,65.0,97.0
1348,129.6029927625,129.87647034375001,48.0,97.0
1349,129.90756176250002,130.03446551250002,62.0,127.0
1350,129.90756176250002,130.04271425625,67.0,127.0
1351,129.90756176250002,130.07380567500002,71.0,127.0
1352,129.90756176250002,130.11251131875002,43.0,102.0
1353,130.51669976250002,130.66454263125001,67.0,112.0
1354,130.51669976250002,130.66581166875002,62.0,107.0
1355,130.51669976250002,130.6702533,71.0,97.0
1356,130.51669976250002,130.7172076875,43.0,122.0
1357,131.12583776250003,131.23814758125002,67.0,122.0
1358,131.12583776250003,131.24893440000002,62.0,100.0
1359,131.12583776250003,131.2502034375,43.0,122.0
1360,131.12583776250003,131.25401055,71.0,100.0
1361,131.73497576250003,131.85616884375003,67.0,112.0
1362,131.73497576250003,131.86124499375,62.0,112.0
1363,131.73497576250003,131.86505210625,71.0,107.0
1364,131.73497576250003,131.89423996875001,43.0,117.0
1365,132.34411376250003,132.42089053125002,44.0,92.0
1366,132.34411376250003,132.4329463875,60.0,117.0
1367,132.34411376250003,132.49259115,63.0,117.0
1368,132.34411376250003,132.52177901250002,56.0,102.0
1369,132.34411376250003,132.52495160625003,51.0,112.0
1370,132.9532517625,133.04842957500003,60.0,107.0
1371,132.9532517625,133.07127225000002,44.0,97.0
1372,132.9532517625,133.08332810625,51.0,100.0
1373,132.9532517625,133.08332810625,63.0,100.0
1374,132.9532517625,133.10363270625,56.0,107.0
1375,133.5623897625,133.64424268125,60.0,107.0
1376,133.5623897625,133.6550295,51.0,107.0
1377,133.5623897625,133.66835439375,63.0,102.0
1378,133.5623897625,133.6740650625,44.0,122.0
1379,133.5623897625,133.68929351250003,56.0,112.0
1380,134.1715277625,134.251477125,60.0,127.0
1381,134.1715277625,134.28066498750002,63.0,112.0
1382,134.1715277625,134.28193402500003,44.0,99.0
1383,134.1715277625,134.31683255625,51.0,107.0
1384,134.1715277625,134.31746707500002,56.0,107.0
1385,134.7806657625,134.89043750625,65.0,90.0
1386,134.7806657625,134.8923410625,58.0,127.0
1387,134.7806657625,134.89868625000003,46.0,127.0
1388,134.7806657625,134.90185884375,62.0,100.0
1389,135.3898037625,135.50401713750003,46.0,127.0
1390,135.3898037625,135.50401713750003,65.0,86.0
1391,135.3898037625,135.5129004,58.0,127.0
1392,135.3898037625,135.5129004,62.0,102.0
1393,135.9989417625,136.08840890625,65.0,75.0
1394,135.9989417625,136.09919572500002,58.0,127.0
1395,135.9989417625,136.10300283750001,46.0,127.0
1396,135.9989417625,136.10807898750002,62.0,100.0
1397,136.6080797625,136.70896824375,65.0,93.0
1398,136.6080797625,136.7197550625,62.0,112.0
1399,136.6080797625,136.72673476875002,58.0,127.0
1400,136.6080797625,136.73307995625,46.0,127.0
1401,137.2172177625,137.33777632500002,48.0,107.0
1402,137.2172177625,137.42978154375,60.0,112.0
1403,137.6740712625,137.85998525625,60.0,117.0
1404,137.6740712625,137.86633044375003,48.0,99.0
1405,137.82635576250001,137.95579758750003,58.0,127.0
1406,137.82635576250001,137.96341181250003,46.0,112.0
1407,137.97864026250002,138.07508711250003,56.0,122.0
1408,137.97864026250002,138.08587393125,44.0,127.0
1409,138.2832092625,138.56937721875002,43.0,112.0
1410,138.2832092625,138.59412345,55.0,117.0
1411,139.9583387625,140.01607996875,60.0,122.0
1412,139.9583387625,140.02813582500002,64.0,95.0
1413,139.9583387625,140.03257745625,55.0,99.0
1414,139.65376976250002,140.13536949375,36.0,96.0
1415,140.1106232625,140.21785693125003,55.0,69.0
1416,140.1106232625,140.2248366375,60.0,81.0
1417,140.1106232625,140.22864375,64.0,76.0
1418,140.41519226250003,140.59856818125002,60.0,100.0
1419,140.41519226250003,140.60745144375002,64.0,99.0
1420,140.26290776250002,140.8022487,48.0,112.0
1421,140.71976126250001,140.8745838375,60.0,99.0
1422,140.71976126250001,140.90567525625002,64.0,96.0
1423,140.71976126250001,140.91582755625,55.0,89.0
1424,141.1766147625,141.2476808625,59.0,97.0
1425,141.1766147625,141.25085345625,62.0,96.0
1426,141.1766147625,141.25466056875,55.0,93.0
1427,141.32889926250002,141.44438167500002,59.0,96.0
1428,141.32889926250002,141.45009234375001,55.0,81.0
1429,141.32889926250002,141.45009234375001,62.0,90.0
1430,140.87204576250002,141.51988940625003,43.0,82.0
1431,141.63346826250003,141.8289000375,55.0,82.0
1432,141.63346826250003,141.83270715,59.0,95.0
1433,141.63346826250003,141.84095589375002,62.0,90.0
1434,141.93803726250002,142.06430649375002,59.0,96.0
1435,141.93803726250002,142.07065168125,55.0,79.0
1436,141.48118376250002,142.08270753750003,50.0,81.0
1437,141.93803726250002,142.09095628125002,62.0,92.0
1438,142.3948907625,142.46024619375,60.0,100.0
1439,142.3948907625,142.47103301250002,64.0,95.0
1440,142.3948907625,142.47610916250002,57.0,100.0
1441,142.54717526250002,142.66583026875003,60.0,90.0
1442,142.54717526250002,142.66583026875003,64.0,92.0
1443,142.54717526250002,142.66709930625,57.0,82.0
1444,142.09032176250003,142.72039888125002,45.0,96.0
1445,142.8517442625,142.87775953125,57.0,66.0
1446,142.69945976250003,143.03892729375002,52.0,89.0
1447,142.8517442625,143.06303900625002,60.0,102.0
1448,142.8517442625,143.07001871250003,64.0,99.0
1449,143.15631326250002,143.29590738750002,60.0,102.0
1450,143.15631326250002,143.31621198750003,64.0,95.0
1451,143.15631326250002,143.33080591875003,57.0,93.0
1452,143.61316676250001,143.688039975,55.0,95.0
1453,143.61316676250001,143.6956542,52.0,83.0
1454,143.61316676250001,143.69692323750002,59.0,90.0
1455,143.76545126250002,143.86760878125003,52.0,72.0
1456,143.76545126250002,143.87649204375,55.0,88.0
1457,143.76545126250002,143.88347175,59.0,82.0
1458,143.30859776250003,143.91710124375,40.0,78.0
1459,144.0700202625,144.25339618125003,55.0,100.0
1460,144.0700202625,144.25910685000002,59.0,97.0
1461,144.0700202625,144.26354848125,52.0,89.0
1462,144.37458926250002,144.46151833125,52.0,83.0
1463,143.91773576250003,144.46913255625003,47.0,90.0
1464,144.37458926250002,144.48436100625003,55.0,95.0
1465,144.37458926250002,144.50656916250003,59.0,95.0
1466,144.83144276250002,144.8974327125,57.0,107.0
1467,144.83144276250002,144.90314338125,64.0,72.0
1468,144.83144276250002,144.906315975,60.0,95.0
1469,144.83144276250002,144.91266116250003,53.0,97.0
1470,144.98372726250003,145.08271218750002,57.0,88.0
1471,144.98372726250003,145.08271218750002,60.0,88.0
1472,144.98372726250003,145.09413352500002,64.0,76.0
1473,144.98372726250003,145.09920967500003,53.0,78.0
1474,144.52687376250003,145.14235695000002,41.0,95.0
1475,145.2882962625,145.46088536250002,57.0,93.0
1476,145.2882962625,145.46596151250003,53.0,93.0
1477,145.2882962625,145.47294121875,60.0,93.0
1478,145.1360117625,145.66393136250002,48.0,85.0
1479,145.59286526250003,145.71976901250002,57.0,97.0
1480,145.59286526250003,145.7375355375,60.0,97.0
1481,145.59286526250003,145.75276398750003,53.0,93.0
1482,146.04971876250002,146.11761226875,55.0,97.0
1483,146.04971876250002,146.12839908750001,52.0,96.0
1484,146.04971876250002,146.12839908750001,59.0,89.0
1485,146.20200326250003,146.31304404375,55.0,83.0
1486,146.20200326250003,146.31304404375,59.0,83.0
1487,146.20200326250003,146.31367856250003,52.0,71.0
1488,145.7451497625,146.35048065,40.0,95.0
1489,146.50657226250001,146.71152181875001,52.0,95.0
1490,146.50657226250001,146.71279085625002,55.0,97.0
1491,146.50657226250001,146.71977056250003,59.0,99.0
1492,146.3542877625,146.77878080625,47.0,88.0
1493,146.81114126250003,146.89489773750003,52.0,90.0
1494,146.81114126250003,146.91202974375003,55.0,95.0
1495,146.81114126250003,146.92598915625,59.0,89.0
1496,147.26799476250002,147.34413701250003,62.0,122.0
1497,147.26799476250002,147.3492131625,65.0,100.0
1498,147.26799476250002,147.358096425,57.0,100.0
1499,146.9634257625,147.51545707500003,38.0,89.0
1500,147.42027926250003,147.53829975000002,65.0,88.0
1501,147.42027926250003,147.54337590000003,62.0,96.0
1502,147.42027926250003,147.55352820000002,57.0,75.0
1503,147.42027926250003,147.60175162500002,45.0,27.0
1504,147.72484826250002,147.89934091875003,62.0,100.0
1505,147.72484826250002,147.90378255000002,65.0,97.0
1506,147.72484826250002,147.90822418125,57.0,89.0
1507,147.5725637625,148.11571181250002,50.0,81.0
1508,148.0294172625,148.15759005,65.0,95.0
1509,148.0294172625,148.17154946250002,62.0,102.0
1510,148.0294172625,148.19375761875003,57.0,93.0
1511,148.48627076250003,148.50720988125002,61.0,95.0
1512,148.48627076250003,148.54274293125002,59.0,112.0
1513,148.48627076250003,148.55797138125,62.0,100.0
1514,148.48627076250003,148.56114397500002,55.0,102.0
1515,148.6385552625,148.73944374375003,59.0,96.0
1516,148.6385552625,148.74515441250003,55.0,88.0
1517,148.6385552625,148.74959604375002,62.0,92.0
1518,148.1817017625,148.80162658125002,43.0,85.0
1519,148.94312426250002,149.08589098125003,59.0,100.0
1520,148.7908397625,149.09033261250002,50.0,96.0
1521,148.94312426250002,149.09858135625,55.0,96.0
1522,148.94312426250002,149.10556106250002,62.0,100.0
1523,149.2476932625,149.38221123750003,59.0,99.0
1524,149.2476932625,149.3949016125,62.0,97.0
1525,149.2476932625,149.398708725,55.0,93.0
1526,149.70454676250003,149.7730747875,60.0,122.0
1527,149.70454676250003,149.77370930625003,64.0,97.0
1528,149.70454676250003,149.78639968125003,55.0,99.0
1529,149.8568312625,149.95962330000003,64.0,90.0
1530,149.8568312625,149.96660300625,55.0,73.0
1531,149.8568312625,149.96787204375002,60.0,97.0
1532,149.39997776250001,149.96977560000002,36.0,89.0
1533,150.16140026250002,150.32827869375,60.0,112.0
1534,150.16140026250002,150.33525840000001,64.0,97.0
1535,150.16140026250002,150.34096906875,55.0,95.0
1536,150.00911576250002,150.545918625,48.0,92.0
1537,150.4659692625,150.5890659,64.0,96.0
1538,150.4659692625,150.64299999375,55.0,93.0
1539,150.4659692625,150.65378681250002,60.0,117.0
1540,150.9228227625,150.98881271250002,59.0,95.0
1541,150.9228227625,150.99579241875003,62.0,95.0
1542,150.9228227625,151.00340664375003,55.0,95.0
1543,151.0751072625,151.19503130625003,59.0,88.0
1544,151.0751072625,151.20328005000002,62.0,83.0
1545,151.0751072625,151.2096252375,55.0,72.0
1546,150.61825376250002,151.41647835,43.0,89.0
1547,151.37967626250003,151.46660533125,59.0,97.0
1548,151.37967626250003,151.4761231125,55.0,92.0
1549,151.37967626250003,151.4811992625,62.0,92.0
1550,151.6842452625,151.814956125,55.0,92.0
1551,151.6842452625,151.81622516250002,59.0,100.0
1552,151.22739176250002,151.83081909375002,50.0,73.0
1553,151.6842452625,151.8314536125,62.0,93.0
1554,152.1410987625,152.18995670625003,59.0,85.0
1555,152.1410987625,152.200743525,60.0,86.0
1556,152.1410987625,152.20772323125001,64.0,82.0
1557,152.1410987625,152.21470293750002,57.0,92.0
1558,152.29338326250002,152.40061693125003,60.0,97.0
1559,152.29338326250002,152.4075966375,64.0,92.0
1560,152.29338326250002,152.4164799,57.0,82.0
1561,151.83652976250002,152.49642926250002,45.0,76.0
1562,152.59795226250003,152.7426225375,60.0,107.0
1563,152.44566776250002,152.75087128125003,52.0,71.0
1564,152.59795226250003,152.75531291250002,64.0,97.0
1565,152.59795226250003,152.76038906250002,57.0,83.0
1566,152.90252126250002,153.02181078750002,64.0,93.0
1567,152.90252126250002,153.03894279375,60.0,107.0
1568,152.90252126250002,153.07003421250002,57.0,85.0
1569,153.3593747625,153.43297893750002,55.0,89.0
1570,153.3593747625,153.44249671875002,52.0,93.0
1571,153.3593747625,153.44440027500002,59.0,82.0
1572,153.51165926250002,153.6182584125,55.0,93.0
1573,153.51165926250002,153.62523811875002,52.0,81.0
1574,153.51165926250002,153.62967975,59.0,89.0
1575,153.05480576250002,153.69249710625002,40.0,78.0
1576,153.81622826250003,153.95074623750003,52.0,88.0
1577,153.81622826250003,153.95836046250002,55.0,95.0
1578,153.81622826250003,153.96914728125003,59.0,93.0
1579,154.12079726250002,154.22041670625,52.0,95.0
1580,154.12079726250002,154.22485833750002,55.0,93.0
1581,153.66394376250003,154.23818323125002,47.0,68.0
1582,154.12079726250002,154.25468071875002,59.0,93.0
1583,154.5776507625,154.63856456250002,57.0,99.0
1584,154.5776507625,154.65125493750003,53.0,95.0
1585,154.5776507625,154.65442753125,60.0,97.0
1586,154.72993526250002,154.82765115,53.0,70.0
1587,154.72993526250002,154.83209278125003,57.0,86.0
1588,154.72993526250002,154.83780345000002,60.0,76.0
1589,154.27308176250003,154.88475783750002,41.0,73.0
1590,155.0345042625,155.170291275,57.0,99.0
1591,155.0345042625,155.17473290625003,53.0,93.0
1592,155.0345042625,155.21026595625003,60.0,95.0
1593,155.33907326250002,155.4532866375,53.0,95.0
1594,155.33907326250002,155.46407345625002,57.0,97.0
1595,155.33907326250002,155.48120546250001,60.0,95.0
1596,154.88221976250003,155.50087554375003,48.0,71.0
1597,155.79592676250002,155.8466882625,64.0,102.0
1598,155.79592676250002,155.85493700625003,59.0,100.0
1599,155.79592676250002,155.85620604375,67.0,90.0
1600,155.49135776250003,155.89173909375003,40.0,77.0
1601,155.94821126250002,156.05607945000003,64.0,88.0
1602,155.94821126250002,156.06242463750002,67.0,82.0
1603,155.94821126250002,156.06369367500002,47.0,32.0
1604,155.94821126250002,156.06623175000001,59.0,75.0
1605,156.10049576250003,156.19059742500002,47.0,51.0
1606,156.10049576250003,156.34161288750002,52.0,93.0
1607,156.2527802625,156.41775513750002,64.0,100.0
1608,156.2527802625,156.42156225000002,67.0,89.0
1609,156.2527802625,156.43044551250003,59.0,96.0
1610,156.55734926250003,156.65823774375002,64.0,97.0
1611,156.55734926250003,156.66014130000002,59.0,89.0
1612,156.55734926250003,156.66712100625003,67.0,92.0
1613,157.01420276250002,157.07321300625003,65.0,97.0
1614,157.01420276250002,157.07955819375002,62.0,93.0
1615,157.01420276250002,157.08526886250002,69.0,97.0
1616,156.70963376250003,157.16902533750002,50.0,77.0
1617,157.16648726250003,157.2680102625,65.0,81.0
1618,157.16648726250003,157.27625900625003,69.0,88.0
1619,157.16648726250003,157.2832387125,62.0,70.0
1620,157.4710562625,157.61509201875003,65.0,99.0
1621,157.4710562625,157.6334930625,62.0,97.0
1622,157.4710562625,157.637300175,69.0,93.0
1623,157.3187717625,157.66712255625,57.0,97.0
1624,157.77562526250003,157.89872190000003,65.0,102.0
1625,157.77562526250003,157.91521938750003,62.0,95.0
1626,157.77562526250003,157.91966101875002,69.0,92.0
1627,158.23247876250002,158.30735197500002,67.0,122.0
1628,158.23247876250002,158.3136971625,71.0,107.0
1629,158.23247876250002,158.31750427500003,62.0,99.0
1630,157.9279097625,158.3822251875,43.0,82.0
1631,158.38476326250003,158.49136241250002,62.0,78.0
1632,158.38476326250003,158.49643856250003,67.0,100.0
1633,158.38476326250003,158.49643856250003,71.0,95.0
1634,158.5370477625,158.75405317500002,50.0,9.0
1635,158.5370477625,158.80418015625003,55.0,93.0
1636,158.68933226250002,158.81242890000001,62.0,99.0
1637,158.68933226250002,158.81306341875003,67.0,122.0
1638,158.68933226250002,158.820043125,71.0,99.0
1639,158.99390126250003,159.09098263125003,67.0,122.0
1640,158.99390126250003,159.09352070625002,62.0,107.0
1641,158.99390126250003,159.1068456,71.0,112.0
1642,159.1461857625,159.24834328125002,50.0,127.0
1643,159.1461857625,159.25913010000002,62.0,122.0
1644,159.1461857625,159.2692824,57.0,112.0
1645,159.1461857625,159.27055143750002,65.0,102.0
1646,159.45075476250003,159.49897818750003,65.0,78.0
1647,159.45075476250003,159.50278530000003,62.0,97.0
1648,159.45075476250003,159.51357211875003,57.0,95.0
1649,159.45075476250003,159.51737923125003,50.0,122.0
1650,159.60303926250003,160.08781158750003,36.0,112.0
1651,160.05989276250003,160.1334969375,60.0,99.0
1652,160.05989276250003,160.13603501250003,55.0,97.0
1653,160.05989276250003,160.14682183125,64.0,93.0
1654,160.2121772625,160.29910633125002,55.0,82.0
1655,160.2121772625,160.30925863125003,60.0,97.0
1656,160.2121772625,160.31687285625003,64.0,89.0
1657,160.66903076250003,160.73628975000003,60.0,112.0
1658,160.3644617625,160.73819330625003,48.0,112.0
1659,160.66903076250003,160.74453849375,55.0,107.0
1660,160.66903076250003,160.74961464375002,64.0,97.0
1661,160.66903076250003,160.91522403750002,36.0,117.0
1662,160.74517301250003,160.91522403750002,36.0,89.0
1663,160.97359976250002,161.18870161875003,38.0,117.0
1664,161.27816876250003,161.52245848125003,40.0,112.0
1665,161.88730676250003,161.95075863750003,65.0,100.0
1666,161.88730676250003,161.95266219375003,60.0,102.0
1667,161.88730676250003,161.95837286250003,69.0,97.0
1668,161.58273776250002,161.98629168750003,41.0,93.0
1669,162.0395912625,162.13921070625003,69.0,82.0
1670,162.0395912625,162.13984522500002,65.0,89.0
1671,162.0395912625,162.1512665625,60.0,79.0
1672,162.34416026250003,162.52436358750003,65.0,100.0
1673,162.34416026250003,162.53641944375002,60.0,95.0
1674,162.34416026250003,162.53641944375002,69.0,96.0
1675,162.19187576250002,162.53832300000002,53.0,99.0
1676,162.6487292625,162.80291731875002,65.0,97.0
1677,162.6487292625,162.80418635625003,60.0,96.0
1678,162.6487292625,162.82893258750002,69.0,93.0
1679,163.1055827625,163.16332396875,67.0,112.0
1680,163.1055827625,163.17537982500002,64.0,100.0
1681,163.1055827625,163.17918693750002,71.0,100.0
1682,162.80101376250002,163.21408546875003,40.0,88.0
1683,163.2578672625,163.368273525,67.0,88.0
1684,163.2578672625,163.37842582500002,64.0,78.0
1685,163.2578672625,163.38159841875003,71.0,83.0
1686,163.56243626250003,163.74010151250002,67.0,97.0
1687,163.56243626250003,163.75659900000002,64.0,92.0
1688,163.56243626250003,163.75977159375003,71.0,93.0
1689,163.41015176250002,163.86002555625,52.0,97.0
1690,163.86700526250002,163.98439123125002,67.0,100.0
1691,163.86700526250002,164.00723390625,71.0,100.0
1692,163.86700526250002,164.03642176875002,64.0,99.0
1693,164.3238587625,164.37715833750002,65.0,99.0
1694,164.3238587625,164.38540708125,69.0,82.0
1695,164.3238587625,164.38604160000003,62.0,99.0
1696,164.01928976250002,164.41459494375002,38.0,82.0
1697,164.47614326250002,164.56307233125003,69.0,90.0
1698,164.47614326250002,164.57449366875002,65.0,95.0
1699,164.47614326250002,164.57830078125002,62.0,85.0
1700,164.78071226250003,164.92347898125,65.0,100.0
1701,164.78071226250003,164.94188002500002,62.0,97.0
1702,164.78071226250003,164.95076328750002,69.0,97.0
1703,164.62842776250002,165.15444380625001,50.0,97.0
1704,165.08528126250002,165.2591394,69.0,92.0
1705,165.08528126250002,165.26738814375003,62.0,90.0
1706,165.08528126250002,165.26738814375003,65.0,97.0
1707,165.5421347625,165.60685567500002,71.0,107.0
1708,165.5421347625,165.61129730625,67.0,122.0
1709,165.5421347625,165.62398768125001,62.0,99.0
1710,165.23756576250003,165.7324903875,43.0,89.0
1711,165.69441926250002,165.79974937500003,62.0,89.0
1712,165.69441926250002,165.80292196875,67.0,102.0
1713,165.69441926250002,165.80672908125,71.0,95.0
1714,165.84670376250003,166.09416607500003,55.0,100.0
1715,165.84670376250003,166.11383615625002,50.0,59.0
1716,165.9989882625,166.12652653125002,67.0,117.0
1717,165.9989882625,166.12716105,62.0,100.0
1718,165.9989882625,166.13604431250002,71.0,100.0
1719,166.30355726250002,166.37779595625003,67.0,122.0
1720,166.30355726250002,166.38414114375,62.0,102.0
1721,166.30355726250002,166.38858277500003,71.0,100.0
1722,166.76041076250002,166.82766975,67.0,99.0
1723,166.76041076250002,166.83020782500003,64.0,102.0
1724,166.76041076250002,166.8390910875,60.0,97.0
1725,166.45584176250003,166.88921806875,36.0,97.0
1726,166.91269526250002,166.99708625625001,67.0,89.0
1727,166.91269526250002,166.99772077500003,64.0,96.0
1728,166.91269526250002,167.00533500000003,60.0,85.0
1729,167.2172642625,167.30482785,64.0,102.0
1730,167.2172642625,167.31624918750003,60.0,107.0
1731,167.2172642625,167.32767052500003,67.0,97.0
1732,167.06497976250003,167.45140168125002,48.0,97.0
1733,167.52183326250002,167.61701107500002,60.0,99.0
1734,167.52183326250002,167.62081818750002,64.0,99.0
1735,167.52183326250002,167.63795019375002,67.0,95.0
1736,167.97868676250002,168.03896604375,64.0,102.0
1737,167.97868676250002,168.04467671250003,60.0,99.0
1738,167.97868676250002,168.05102190000002,67.0,95.0
1739,167.67411776250003,168.1284331875,36.0,81.0
1740,168.13097126250003,168.22678359375,64.0,89.0
1741,168.13097126250003,168.2324942625,67.0,86.0
1742,168.13097126250003,168.23376330000002,60.0,88.0
1743,168.4355402625,168.55292623125,64.0,99.0
1744,168.4355402625,168.55990593750002,60.0,96.0
1745,168.4355402625,168.57449986875002,67.0,92.0
1746,168.28325576250003,168.65889086250002,48.0,93.0
1747,168.74010926250003,168.860667825,64.0,99.0
1748,168.74010926250003,168.87843435000002,67.0,99.0
1749,168.74010926250003,168.89049020625,60.0,97.0
1750,169.19696276250002,169.27500856875002,55.0,96.0
1751,169.19696276250002,169.28071923750002,64.0,82.0
1752,169.19696276250002,169.28642990625002,60.0,89.0
1753,168.89239376250003,169.34988178125002,36.0,77.0
1754,169.34924726250003,169.469805825,55.0,66.0
1755,169.34924726250003,169.47234390000003,64.0,83.0
1756,169.34924726250003,169.47488197500002,60.0,86.0
1757,169.65381626250002,169.79277586875003,60.0,100.0
1758,169.65381626250002,169.804831725,64.0,96.0
1759,169.65381626250002,169.80546624375003,55.0,95.0
1760,169.5015317625,169.91016183750003,48.0,83.0
1761,169.95838526250003,170.09353775625002,60.0,102.0
1762,169.95838526250003,170.10242101875002,64.0,97.0
1763,169.95838526250003,170.10369005625003,55.0,96.0
1764,170.1106697625,170.46980737500002,36.0,96.0
