,start,end,pitch,velocity
0,38.264344574999996,38.66535122291667,56.0,90.0
1,38.667029075,39.069713574999994,56.0,91.0
2,39.069713574999994,39.472398075,67.0,93.0
3,39.472398075,39.87508257499999,68.0,71.0
4,39.87508257499999,40.277767075,67.0,90.0
5,40.277767075,40.66031735,68.0,84.0
6,40.651928089583336,41.083136075,67.0,88.0
7,41.083136075,41.888505075,63.0,91.0
8,41.888505075,45.10830322291666,56.0,87.0
9,45.10998107499999,45.512665575,56.0,88.0
10,45.512665575,45.915350075,67.0,90.0
11,45.915350075,46.318034575,68.0,85.0
12,46.318034575,46.720719075,67.0,91.0
13,46.720719075,47.123403575,68.0,87.0
14,47.123403575,47.526088075,67.0,93.0
15,47.526088075,47.928772574999996,63.0,95.0
16,47.928772574999996,48.331457074999996,60.0,90.0
17,48.331457074999996,52.358302075,65.0,87.0
18,52.358302075,52.75930872291666,68.0,82.0
19,52.760986575000004,53.163671074999996,68.0,88.0
20,53.163671074999996,53.566355575,65.0,90.0
21,53.566355575,53.969040074999995,68.0,88.0
22,53.969040074999995,54.371724575,70.0,87.0
23,54.371724575,54.774409074999994,72.0,87.0
24,54.774409074999994,56.38514707499999,68.0,89.0
25,56.38514707499999,56.787831575,65.0,89.0
26,56.787831575,57.19051607499999,68.0,89.0
27,57.19051607499999,57.593200575,70.0,87.0
28,57.593200575,57.99588507499999,72.0,89.0
29,57.99588507499999,59.606623075,73.0,88.0
30,59.606623075,60.00762972291666,70.0,87.0
31,60.009307574999994,60.411992075,70.0,87.0
32,60.411992075,60.81467657499999,68.0,86.0
33,60.81467657499999,61.21568322291667,67.0,85.0
34,61.217361075,62.022730075,67.0,87.0
35,62.022730075,64.036152575,63.0,88.0
36,64.036152575,64.43715922291666,56.0,90.0
37,64.438837075,64.841521575,56.0,91.0
38,64.841521575,65.244206075,67.0,93.0
39,65.244206075,65.646890575,68.0,71.0
40,65.646890575,66.04957507499999,67.0,90.0
41,66.04957507499999,66.43212534999999,68.0,84.0
42,66.42373608958333,66.85494407499999,67.0,88.0
43,66.85494407499999,67.257628575,63.0,91.0
44,67.257628575,67.66031307499999,58.0,91.0
45,67.66031307499999,70.88011122291667,56.0,87.0
46,70.881789075,71.28447357499999,56.0,88.0
47,71.28447357499999,71.687158075,67.0,90.0
48,71.687158075,72.08984257499999,68.0,85.0
49,72.08984257499999,72.492527075,67.0,91.0
50,72.492527075,72.89521157499999,68.0,87.0
51,72.89521157499999,73.297896075,70.0,93.0
52,73.297896075,73.70058057499999,72.0,95.0
53,73.70058057499999,74.103265075,65.0,90.0
54,74.103265075,78.12824405416666,68.0,87.0
55,78.12991294583333,78.52877805416665,68.0,82.0
56,78.53044694583332,78.93098094583333,68.0,88.0
57,78.93098094583333,79.33151494583332,65.0,90.0
58,79.33151494583332,79.73204894583333,68.0,88.0
59,79.73204894583333,80.13258294583332,70.0,87.0
60,80.13258294583332,80.53311694583333,72.0,87.0
61,80.53311694583333,82.53411805416665,68.0,89.0
62,82.53578694583332,82.93632094583333,68.0,89.0
63,82.93632094583333,83.33685494583332,70.0,87.0
64,83.33685494583332,83.73815393333332,72.0,89.0
65,83.73815393333332,85.34673193333333,73.0,88.0
66,85.34673193333333,85.74720083125,68.0,86.0
67,85.74887643333332,86.15102093333333,68.0,90.0
68,86.15102093333333,86.55316543333333,70.0,87.0
69,86.55316543333333,86.95369508124999,72.0,87.0
70,86.95537293333332,87.76074193333332,72.0,88.0
71,87.76074193333332,92.19027143333332,70.0,89.0
72,92.19027143333332,92.99564043333332,68.0,83.0
73,92.99564043333332,93.80100943333332,70.0,88.0
74,93.80100943333332,94.20369393333333,77.0,93.0
75,94.20369393333333,94.60470058124999,75.0,87.0
76,94.60637843333332,95.00906293333333,75.0,90.0
77,95.00906293333333,95.20872733124999,73.0,87.0
78,95.21040518333332,95.81443193333332,73.0,88.0
79,95.81443193333332,96.21711643333333,72.0,88.0
80,96.21711643333333,96.61980093333332,68.0,88.0
81,96.61980093333332,97.42516993333332,77.0,90.0
82,97.42516993333332,99.43859243333333,75.0,90.0
83,99.43859243333333,99.84127693333332,68.0,92.0
84,99.84127693333332,100.24396143333333,70.0,87.0
85,100.24396143333333,100.64664593333333,77.0,93.0
86,100.64664593333333,101.04765258124999,75.0,88.0
87,101.04933043333332,101.45201493333332,75.0,93.0
88,101.45201493333332,101.65167933125,73.0,87.0
89,101.65335718333333,102.25738393333333,73.0,88.0
90,102.25738393333333,102.66006843333332,72.0,89.0
91,102.66006843333332,103.06275293333333,70.0,86.0
92,103.06275293333333,103.46543743333332,68.0,87.0
93,103.46543743333332,103.86812193333333,67.0,87.0
94,103.86812193333333,104.26912858124999,72.0,86.0
95,104.27080643333332,105.88154443333332,72.0,87.0
96,105.88154443333332,106.28422893333332,68.0,86.0
97,106.28422893333332,106.68691343333333,67.0,92.0
98,106.68691343333333,107.49228243333332,65.0,93.0
99,107.49228243333332,108.29765143333333,77.0,93.0
100,108.29765143333333,109.10302043333333,75.0,88.0
101,109.10302043333333,109.50570493333332,72.0,89.0
102,109.50570493333332,109.90838943333333,73.0,87.0
103,109.90838943333333,110.71375843333333,75.0,90.0
104,110.71375843333333,111.51912743333332,72.0,88.0
105,111.51912743333332,112.32449643333332,68.0,87.0
106,112.32449643333332,112.72718093333333,65.0,90.0
107,112.72718093333333,113.12986543333332,68.0,86.0
108,113.12986543333332,113.53254993333331,73.0,92.0
109,113.53254993333331,113.93523443333332,72.0,90.0
110,113.93523443333332,114.33624108125,68.0,88.0
111,114.33791893333333,115.14328793333333,68.0,89.0
112,115.14328793333333,115.94865693333333,72.0,88.0
113,115.94865693333333,117.96207943333332,70.0,89.0
114,117.96207943333332,118.76744843333333,68.0,83.0
115,118.76744843333333,119.57281743333331,70.0,88.0
116,119.57281743333331,119.97550193333332,77.0,93.0
117,119.97550193333332,120.37650858125,75.0,87.0
118,120.37818643333333,120.78087093333332,75.0,90.0
119,120.78087093333332,120.98053533125,73.0,87.0
120,120.98221318333333,121.58623993333333,73.0,88.0
121,121.58623993333333,121.98892443333332,72.0,88.0
122,121.98892443333332,122.39160893333332,70.0,88.0
123,122.39160893333332,122.79429343333332,68.0,90.0
124,122.79429343333332,122.99563568333332,70.0,90.0
125,122.99563568333332,123.39832018333331,75.0,90.0
126,123.39832018333331,125.21040043333332,75.0,90.0
127,125.21040043333332,125.61308493333331,68.0,92.0
128,125.61308493333331,126.01576943333332,70.0,87.0
129,126.01576943333332,126.41845393333332,77.0,93.0
130,126.41845393333332,126.81946058124998,75.0,88.0
131,126.82113843333332,127.22382293333332,75.0,93.0
132,127.22382293333332,127.42348733124999,73.0,87.0
133,127.42516518333332,128.02919193333332,73.0,88.0
134,128.02919193333332,128.43187643333331,72.0,89.0
135,128.43187643333331,128.8345609333333,70.0,86.0
136,128.8345609333333,129.23724543333333,68.0,87.0
137,129.23724543333333,129.63992993333332,67.0,87.0
138,129.63992993333332,130.04093658124998,72.0,86.0
139,130.0426144333333,131.6533524333333,72.0,87.0
140,131.6533524333333,132.0560369333333,68.0,86.0
141,132.0560369333333,132.45872143333332,67.0,92.0
142,132.45872143333332,133.2640904333333,65.0,93.0
143,133.2640904333333,134.06778158125,73.0,93.0
144,134.06945943333332,134.87482843333333,73.0,88.0
145,134.87482843333333,135.27751293333333,63.0,89.0
146,135.27751293333333,135.68019743333332,65.0,87.0
147,135.68019743333332,136.4855664333333,72.0,90.0
148,136.4855664333333,137.29093543333332,70.0,88.0
149,137.29093543333332,138.09630443333333,68.0,87.0
150,138.09630443333333,138.49898893333332,65.0,90.0
151,138.49898893333332,138.90167343333331,68.0,86.0
152,138.90167343333331,139.30435793333334,73.0,92.0
153,139.30435793333334,139.70704243333333,72.0,90.0
154,139.70704243333333,140.10804908125,68.0,88.0
155,140.10972693333332,140.9150959333333,68.0,89.0
156,140.9150959333333,141.72046493333332,65.0,88.0
157,141.72046493333332,144.13657193333333,70.0,89.0
158,144.13657193333333,144.53925643333332,68.0,89.0
159,144.53925643333332,144.9419409333333,67.0,86.0
160,144.9419409333333,157.4251604333333,68.0,87.0
161,157.4251604333333,157.82616708125,56.0,90.0
162,157.82784493333332,158.23052943333332,56.0,91.0
163,158.23052943333332,158.6332139333333,67.0,93.0
164,158.6332139333333,159.03589843333333,68.0,71.0
165,159.03589843333333,159.43858293333332,67.0,90.0
166,159.43858293333332,159.82113320833332,68.0,84.0
167,159.81274394791666,160.24395193333334,67.0,88.0
168,160.24395193333334,160.6466364333333,63.0,91.0
169,160.6466364333333,161.04932093333332,58.0,91.0
170,161.04932093333332,164.26911908124998,56.0,87.0
171,164.27079693333332,164.67348143333334,56.0,88.0
172,164.67348143333334,165.0761659333333,67.0,90.0
173,165.0761659333333,165.47885043333332,68.0,85.0
174,165.47885043333332,165.8815349333333,67.0,91.0
175,165.8815349333333,166.2842194333333,68.0,87.0
176,166.2842194333333,166.68690393333333,70.0,93.0
177,166.68690393333333,167.08958843333332,72.0,95.0
178,167.08958843333332,167.4922729333333,65.0,90.0
179,167.4922729333333,171.51744008125,68.0,87.0
180,171.51911793333332,171.92012458124998,68.0,82.0
181,171.9218024333333,172.32448693333333,68.0,88.0
182,172.32448693333333,172.7271714333333,65.0,90.0
183,172.7271714333333,173.12985593333332,68.0,88.0
184,173.12985593333332,173.5325404333333,70.0,87.0
185,173.5325404333333,173.9352249333333,72.0,87.0
186,173.9352249333333,175.94696958125,68.0,89.0
187,175.94864743333332,176.3513319333333,68.0,89.0
188,176.3513319333333,176.75401643333333,70.0,87.0
189,176.75401643333333,177.1567009333333,72.0,89.0
190,177.1567009333333,178.76743893333332,73.0,88.0
191,178.76743893333332,179.16844558124998,68.0,86.0
192,179.17012343333332,179.5728079333333,68.0,90.0
193,179.5728079333333,179.97549243333333,70.0,87.0
194,179.97549243333333,180.37649908125,72.0,87.0
195,180.37817693333332,181.18354593333333,72.0,88.0
196,181.18354593333333,185.61307543333334,70.0,89.0
197,185.61307543333334,186.41844443333332,68.0,83.0
198,186.41844443333332,187.2238134333333,70.0,88.0
199,187.2238134333333,187.62649793333333,77.0,93.0
200,187.62649793333333,188.02750458124999,75.0,87.0
201,188.02918243333332,188.4318669333333,75.0,90.0
202,188.4318669333333,188.63153133124996,73.0,87.0
203,188.63320918333332,189.2372359333333,73.0,88.0
204,189.2372359333333,189.63992043333332,72.0,88.0
205,189.63992043333332,190.0426049333333,68.0,88.0
206,190.0426049333333,190.84797393333332,77.0,90.0
207,190.84797393333332,192.8613964333333,75.0,90.0
208,192.8613964333333,193.26408093333333,68.0,92.0
209,193.26408093333333,193.6667654333333,70.0,87.0
210,193.6667654333333,194.06944993333332,77.0,93.0
211,194.06944993333332,194.47045658124998,75.0,88.0
212,194.4721344333333,194.8748189333333,75.0,93.0
213,194.8748189333333,195.07448333124998,73.0,87.0
214,195.0761611833333,195.68018793333331,73.0,88.0
215,195.68018793333331,196.0828724333333,72.0,89.0
216,196.0828724333333,196.48555693333333,70.0,86.0
217,196.48555693333333,196.88824143333332,68.0,87.0
218,196.88824143333332,197.2909259333333,67.0,87.0
219,197.2909259333333,197.69193258125,72.0,86.0
220,197.69361043333333,199.3043484333333,72.0,87.0
221,199.3043484333333,199.70577457916667,68.0,86.0
222,199.70577457916667,200.10684407916665,67.0,92.0
223,200.10684407916665,200.90898307916666,65.0,93.0
224,200.90898307916666,201.71112207916667,77.0,93.0
225,201.71112207916667,202.51326107916665,75.0,88.0
226,202.51326107916665,202.91433057916666,72.0,89.0
227,202.91433057916666,203.31540007916666,73.0,87.0
228,203.31540007916666,204.11753907916665,75.0,90.0
229,204.11753907916665,204.91967807916666,72.0,88.0
230,204.91967807916666,205.72181707916667,68.0,87.0
231,205.72181707916667,206.12288657916665,65.0,90.0
232,206.12288657916665,206.52395607916665,68.0,86.0
233,206.52395607916665,206.92502557916666,73.0,92.0
234,206.92502557916666,207.32609507916666,72.0,90.0
235,207.32609507916666,207.72702770625,68.0,88.0
236,207.72870555833333,208.53407455833334,68.0,89.0
237,208.53407455833334,209.33944355833333,72.0,88.0
238,209.33944355833333,211.35286605833332,70.0,89.0
239,211.35286605833332,212.15823505833333,68.0,83.0
240,212.15823505833333,212.96360405833332,70.0,88.0
241,212.96360405833332,213.36628855833334,77.0,93.0
242,213.36628855833334,213.76729520625,75.0,87.0
243,213.76897305833333,214.17165755833332,75.0,90.0
244,214.17165755833332,214.37132195625,73.0,87.0
245,214.37299980833333,214.97702655833334,73.0,88.0
246,214.97702655833334,215.37971105833333,72.0,88.0
247,215.37971105833333,215.78239555833332,70.0,88.0
248,215.78239555833332,216.18508005833334,68.0,90.0
249,216.18508005833334,216.38642230833332,70.0,90.0
250,216.38642230833332,216.78910680833334,75.0,90.0
251,216.78910680833334,218.60118705833332,75.0,90.0
252,218.60118705833332,219.00387155833334,68.0,92.0
253,219.00387155833334,219.40655605833334,70.0,87.0
254,219.40655605833334,219.80924055833333,77.0,93.0
255,219.80924055833333,220.21024720625,75.0,88.0
256,220.21192505833332,220.61460955833334,75.0,93.0
257,220.61460955833334,220.81427395625,73.0,87.0
258,220.81595180833332,221.41997855833333,73.0,88.0
259,221.41997855833333,221.82266305833332,72.0,89.0
260,221.82266305833332,222.22534755833334,70.0,86.0
261,222.22534755833334,222.62803205833333,68.0,87.0
262,222.62803205833333,223.03071655833332,67.0,87.0
263,223.03071655833332,223.43172320625,72.0,86.0
264,223.43340105833335,225.04413905833331,72.0,87.0
265,225.04413905833331,225.44682355833334,68.0,86.0
266,225.44682355833334,225.84950805833333,67.0,92.0
267,225.84950805833333,226.65487705833334,65.0,93.0
268,226.65487705833334,227.45856820625,73.0,93.0
269,227.46024605833333,228.26561505833334,73.0,88.0
270,228.26561505833334,228.66829955833333,63.0,89.0
271,228.66829955833333,229.07098405833332,65.0,87.0
272,229.07098405833332,229.87635305833334,72.0,90.0
273,229.87635305833334,230.68172205833332,70.0,88.0
274,230.68172205833332,231.48709105833333,68.0,87.0
275,231.48709105833333,231.88977555833333,65.0,90.0
276,231.88977555833333,232.29246005833332,68.0,86.0
277,232.29246005833332,232.69514455833334,73.0,92.0
278,232.69514455833334,233.09782905833333,72.0,90.0
279,233.09782905833333,233.49883570625,68.0,88.0
280,233.50051355833332,234.30588255833334,68.0,89.0
281,234.30588255833334,235.11125155833332,65.0,88.0
282,235.11125155833332,237.52735855833333,70.0,89.0
283,237.52735855833333,237.93004305833333,68.0,89.0
284,237.93004305833333,238.33272755833332,67.0,86.0
285,238.33272755833332,253.23037620624999,68.0,87.0
286,253.23205405833332,254.03742305833333,68.0,83.0
287,254.03742305833333,254.84279205833332,70.0,88.0
288,254.84279205833332,255.24547655833334,77.0,93.0
289,255.24547655833334,255.64648320625,75.0,87.0
290,255.64816105833333,256.0508455583333,75.0,90.0
291,256.0508455583333,256.25050995624997,73.0,87.0
292,256.2521878083333,256.8562145583333,73.0,88.0
293,256.8562145583333,257.2588990583333,72.0,88.0
294,257.2588990583333,257.66158355833335,70.0,88.0
295,257.66158355833335,258.0642680583333,68.0,90.0
296,258.0642680583333,258.26561030833335,70.0,90.0
297,258.26561030833335,258.6682948083333,75.0,90.0
298,258.6682948083333,260.4803750583333,75.0,90.0
299,260.4803750583333,260.88305955833334,68.0,92.0
300,260.88305955833334,261.2857440583333,70.0,87.0
301,261.2857440583333,261.6884285583333,77.0,93.0
302,261.6884285583333,262.08943520625,75.0,88.0
303,262.09111305833335,262.4937975583333,75.0,93.0
304,262.4937975583333,262.69346195624996,73.0,87.0
305,262.69513980833335,263.29916655833335,73.0,88.0
306,263.29916655833335,263.7018510583333,72.0,89.0
307,263.7018510583333,264.10453555833334,70.0,86.0
308,264.10453555833334,264.5072200583333,68.0,87.0
309,264.5072200583333,264.9099045583333,67.0,87.0
310,264.9099045583333,265.31091120625,72.0,86.0
311,265.31258905833334,266.9233270583333,72.0,87.0
312,266.9233270583333,267.32601155833333,68.0,86.0
313,267.32601155833333,267.7286960583333,67.0,92.0
314,267.7286960583333,268.53406505833334,65.0,93.0
315,268.53406505833334,269.33775620625,73.0,93.0
316,269.3394340583333,270.1448030583333,73.0,88.0
317,270.1448030583333,270.54748755833333,63.0,89.0
318,270.54748755833333,270.95017205833335,65.0,87.0
319,270.95017205833335,271.75554105833334,72.0,90.0
320,271.75554105833334,272.5609100583333,70.0,88.0
321,272.5609100583333,273.3662790583333,68.0,87.0
322,273.3662790583333,273.7689635583333,65.0,90.0
323,273.7689635583333,274.1716480583333,68.0,86.0
324,274.1716480583333,274.5743325583333,73.0,92.0
325,274.5743325583333,274.97701705833333,72.0,90.0
326,274.97701705833333,275.37802370625,68.0,88.0
327,275.3797015583333,276.18507055833334,68.0,89.0
328,276.18507055833334,276.9904395583333,65.0,88.0
329,276.9904395583333,279.40654655833333,70.0,89.0
330,279.40654655833333,279.80923105833335,68.0,89.0
331,279.80923105833335,280.2119155583333,67.0,86.0
332,280.2119155583333,284.19010284791665,68.0,87.0
