,start,end,pitch,velocity
0,0.4513422104166666,0.9161072374999999,66.0,77.0
1,0.4513422104166666,0.9379193145833332,70.0,80.0
2,0.6526844604166666,0.9412750187499999,61.0,73.0
3,0.4513422104166666,1.1275165999999999,54.0,81.0
4,1.2567112104166664,1.838925883333333,66.0,79.0
5,1.4580534604166666,1.8523486999999998,63.0,75.0
6,1.2567112104166664,1.8758386291666664,71.0,78.0
7,1.2567112104166664,1.9832211624999998,59.0,75.0
8,1.8607379604166665,2.4060398874999995,70.0,79.0
9,1.8607379604166665,2.4261741124999996,66.0,79.0
10,2.2634224604166664,2.5771808,61.0,73.0
11,1.8607379604166665,2.5855700604166665,54.0,82.0
12,2.8674492104166664,3.585569902083333,59.0,81.0
13,3.2701337104166663,3.676173914583333,63.0,76.0
14,2.8674492104166664,3.697985991666666,66.0,81.0
15,2.8674492104166664,3.697985991666666,71.0,82.0
16,3.6728182104166662,4.35402615625,47.0,79.0
17,4.075502710416666,4.4395966125,59.0,75.0
18,3.8741604604166664,4.503354991666666,54.0,58.0
19,4.276844960416666,5.050334770833333,63.0,82.0
20,4.4781872104166665,5.120804558333333,46.0,86.0
21,4.679529460416666,5.15939515625,54.0,76.0
22,4.880871710416666,5.273489097916666,58.0,79.0
23,5.0822139604166665,5.555368247916666,61.0,85.0
24,5.283556210416666,5.936240670833333,44.0,86.0
25,5.484898460416666,5.974831268749999,51.0,73.0
26,5.686240710416666,6.129193660416666,56.0,86.0
27,5.887582960416666,6.169462110416666,59.0,87.0
28,6.491609710416666,7.607381345833333,54.0,79.0
29,6.894294210416666,7.627515570833332,66.0,82.0
30,6.692951960416666,7.629193422916666,61.0,82.0
31,6.290267460416666,7.640938387499999,49.0,73.0
32,6.088925210416666,7.694629654166666,42.0,86.0
33,7.699663210416666,8.005032289583333,59.0,72.0
34,7.699663210416666,8.236575877083332,63.0,81.0
35,8.102347710416666,8.285233587499999,59.0,72.0
36,8.505032210416665,8.676173122916666,59.0,70.0
37,8.505032210416665,9.023488504166666,63.0,78.0
38,7.699663210416666,9.251676387499998,47.0,77.0
39,9.310401210416666,9.540266945833332,58.0,72.0
40,9.310401210416666,9.926172925,61.0,77.0
41,9.713085710416665,9.986575599999998,58.0,57.0
42,10.115770210416665,10.320468164583332,58.0,77.0
43,10.115770210416665,10.7818774875,61.0,82.0
44,9.310401210416666,10.864092239583332,46.0,75.0
45,10.518454710416666,10.880870760416666,58.0,82.0
46,10.912749949999998,11.291944520833333,60.0,79.0
47,10.875837204166665,11.355702899999999,56.0,68.0
48,10.914427802083333,11.387582089583333,44.0,81.0
49,11.694629020833332,12.068790035416665,51.0,68.0
50,11.753353843749998,12.083890704166665,55.0,73.0
51,11.746642435416666,12.145971231249998,39.0,67.0
52,11.791944441666665,12.162749752083332,58.0,64.0
53,12.776843614583331,14.420658735416666,51.0,70.0
54,12.580534920833331,16.736835097916664,44.0,86.0
55,12.907716077083332,17.040451979166665,60.0,64.0
56,12.808722804166665,17.045445316666665,56.0,72.0
57,20.546226575000002,20.81300505625,63.0,65.0
58,20.546226575000002,20.824750020833335,56.0,74.0
59,19.7435120125,22.75427991666667,44.0,73.0
60,22.962333575,23.316360364583332,63.0,58.0
61,22.962333575,23.328105329166668,56.0,59.0
62,22.962333575,23.401930820833332,68.0,61.0
63,23.767702575,24.92038695625,63.0,66.0
64,23.767702575,25.012668820833333,56.0,65.0
65,23.365018075000002,25.3985748,51.0,48.0
66,22.962333575,25.51434659375,44.0,72.0
67,26.183809574999998,26.62340682083333,56.0,80.0
68,26.183809574999998,26.856628260416667,63.0,82.0
69,26.787836325,26.989178575,56.0,72.0
70,26.989178575,27.193876529166666,60.0,74.0
71,26.586494075,27.239178535416666,51.0,64.0
72,27.190520825,27.383473814583333,56.0,79.0
73,27.593205325,27.769379793749998,56.0,76.0
74,27.391863075,28.08146028125,51.0,56.0
75,28.398574325,28.512668266666665,56.0,78.0
76,28.197232075,28.646896433333332,51.0,68.0
77,28.599916575,28.777768895833333,56.0,88.0
78,28.599916575,28.80629238125,60.0,97.0
79,28.801258824999998,29.1938762125,51.0,80.0
80,29.002601075,29.247567479166666,56.0,83.0
81,26.183809574999998,29.276090964583332,44.0,84.0
82,29.203943324999997,29.323070822916666,60.0,80.0
83,29.405285575,29.87005060208333,56.0,86.0
84,29.405285575,30.06132573958333,61.0,87.0
85,30.009312325,30.234144504166665,56.0,79.0
86,30.411996825,30.641862560416666,61.0,75.0
87,30.814681325,30.898573929166666,56.0,69.0
88,31.016023575,31.314681245833334,56.0,85.0
89,31.016023575,31.460654377083333,61.0,82.0
90,29.807970075,31.883473102083332,51.0,67.0
91,31.821392574999997,31.999244895833332,56.0,86.0
92,31.821392574999997,32.09152676041667,63.0,86.0
93,32.022734825,32.413674360416664,51.0,75.0
94,32.224077075,32.477432739583335,56.0,79.0
95,29.405285575,32.485822,44.0,86.0
96,32.626761575,33.06132526458333,56.0,82.0
97,32.626761575,33.133472904166666,60.0,81.0
98,33.230788325,33.41870775833333,56.0,80.0
99,33.633472825,33.79622447708333,56.0,81.0
100,33.633472825,33.816358702083335,63.0,84.0
101,34.036157325,34.14186200625,56.0,72.0
102,33.029446074999996,34.39186196666667,51.0,61.0
103,34.237499575,34.65360689166667,60.0,82.0
104,34.237499575,34.66199615208333,56.0,81.0
105,34.841526325,35.005955829166666,56.0,76.0
106,34.640184075,35.31132490833333,51.0,69.0
107,35.244210824999996,35.43716381458333,63.0,86.0
108,35.244210824999996,35.45058663125,56.0,83.0
109,35.445553075,35.62340539583333,51.0,70.0
110,32.626761575,35.742532893749996,44.0,86.0
111,35.848237575,36.08145901458333,56.0,80.0
112,35.848237575,36.297901933333335,61.0,81.0
113,36.250922075,36.34655964375,56.0,69.0
114,36.452264325,36.67038509583333,56.0,85.0
115,36.452264325,36.898572979166666,61.0,84.0
116,36.854948824999994,37.04286825833333,56.0,73.0
117,37.257633325,37.48246550416667,56.0,80.0
118,37.257633325,37.648572860416664,61.0,84.0
119,38.063002325,38.13682781666667,56.0,57.0
120,35.848237575,38.611659956249994,49.0,86.0
121,38.264344574999996,39.03112297708333,56.0,83.0
122,38.264344574999996,39.03447868124999,61.0,86.0
123,39.069713574999994,39.49253229999999,60.0,84.0
124,39.069713574999994,39.52944504583333,56.0,81.0
125,39.87508257499999,40.09991475416666,63.0,86.0
126,39.87508257499999,40.10494831041666,56.0,87.0
127,40.479109324999996,40.651928089583336,60.0,81.0
128,40.479109324999996,40.65863949791667,56.0,78.0
129,40.680451575,40.84488107916667,51.0,51.0
130,40.881793825,41.05125688541666,56.0,77.0
131,40.881793825,41.10494815208333,63.0,81.0
132,41.284478324999995,41.40192797083333,56.0,76.0
133,41.485820575,41.79286750625,60.0,87.0
134,41.485820575,41.80125676666667,56.0,84.0
135,41.083136075,41.96400841875,51.0,71.0
136,39.069713574999994,42.15696140833333,44.0,86.0
137,42.291189575,42.583135837499995,56.0,75.0
138,42.291189575,42.76937741875,61.0,77.0
139,43.096558575,43.27944445208333,61.0,86.0
140,43.096558575,43.28447800833333,65.0,87.0
141,43.096558575,43.29118941666667,56.0,85.0
142,43.700585325,43.80964571041666,56.0,72.0
143,43.700585325,43.81803497083333,61.0,76.0
144,44.103269825,44.23917584375,56.0,80.0
145,44.304612074999994,44.4354845375,61.0,77.0
146,44.707296575,44.92541734583333,56.0,87.0
147,44.707296575,44.962330091666665,61.0,90.0
148,42.291189575,44.98749787291666,49.0,79.0
149,44.707296575,45.13850456041666,65.0,92.0
150,45.10998107499999,45.22743072083333,56.0,83.0
151,45.46568571666667,45.94387356041666,60.0,82.0
152,45.46568571666667,45.974074897916665,56.0,80.0
153,45.915350075,46.417027847916664,51.0,73.0
154,45.46568571666667,46.52441038124999,44.0,85.0
155,46.318034575,46.6603164,60.0,91.0
156,46.318034575,46.663672104166665,63.0,87.0
157,46.318034575,46.67877277291666,56.0,86.0
158,46.922061325,47.03615526666667,60.0,86.0
159,46.922061325,47.05461163958333,63.0,82.0
160,46.922061325,47.05628949166666,56.0,81.0
161,47.324745824999994,47.52944377916666,56.0,87.0
162,47.324745824999994,47.53783303958333,63.0,86.0
163,47.526088075,48.12843697291666,44.0,86.0
164,47.928772574999996,48.14353764166667,60.0,89.0
165,47.928772574999996,48.14521549375,56.0,86.0
166,47.928772574999996,48.19890676041666,63.0,87.0
167,48.331457074999996,48.67709460416667,44.0,84.0
168,48.734141574999995,48.95729590208333,56.0,81.0
169,48.734141574999995,49.15528244791666,61.0,80.0
170,49.136826075,49.25092001666667,56.0,68.0
171,49.539510574999994,49.68548370625,56.0,85.0
172,49.539510574999994,49.68548370625,61.0,86.0
173,49.539510574999994,49.68548370625,65.0,87.0
174,50.143537325,50.2844769,56.0,81.0
175,50.143537325,50.30293327291666,65.0,87.0
176,50.546221824999996,50.6368258375,61.0,80.0
177,50.546221824999996,50.737496962499996,56.0,82.0
178,50.948906324999996,51.078100935416664,56.0,79.0
179,51.15024857499999,51.36836934583333,56.0,81.0
180,51.15024857499999,51.39521497916667,61.0,89.0
181,48.734141574999995,51.62843641875,49.0,82.0
182,51.552933075,51.707295466666665,56.0,81.0
183,51.955617575,52.34655711041667,61.0,82.0
184,51.955617575,52.3482349625,58.0,77.0
185,52.358302075,52.88850333333333,53.0,68.0
186,52.760986575000004,52.90024829791666,61.0,86.0
187,52.760986575000004,52.901926149999994,65.0,85.0
188,52.760986575000004,52.923738227083334,58.0,81.0
189,53.36501332499999,53.55461061041666,61.0,85.0
190,53.36501332499999,53.56299987083332,58.0,78.0
191,53.566355575,53.764342120833334,53.0,72.0
192,53.767697825,53.95561725833333,58.0,80.0
193,53.969040074999995,54.53447622708333,53.0,79.0
194,51.955617575,54.58145608541666,46.0,80.0
195,54.371724575,54.63850305625,58.0,87.0
196,54.371724575,54.63850305625,61.0,90.0
197,55.177093575,55.72742905833333,65.0,66.0
198,55.57977807499999,55.86501292916667,60.0,76.0
199,55.982462575,56.14689207916666,60.0,84.0
200,55.982462575,56.16870415625,65.0,92.0
201,55.982462575,56.20058334583332,68.0,82.0
202,56.586489325,56.729106752083325,60.0,86.0
203,56.586489325,56.75427453333333,68.0,79.0
204,56.989173824999995,57.175415406249996,65.0,77.0
205,57.19051607499999,57.35830128333333,60.0,81.0
206,55.177093575,57.73246229791667,53.0,88.0
207,57.593200575,57.76266363541666,60.0,88.0
208,57.593200575,57.776086452083334,68.0,84.0
209,58.398569574999996,58.89521379166666,58.0,77.0
210,58.398569574999996,58.943871502083326,61.0,80.0
211,58.801254075,59.32809962916666,53.0,68.0
212,59.203938574999995,59.4656835,65.0,89.0
213,59.203938574999995,59.50595195,58.0,86.0
214,59.203938574999995,59.51434121041666,61.0,90.0
215,59.606623075,59.87340155625,53.0,63.0
216,59.807965325,59.962327716666664,58.0,79.0
217,59.807965325,59.97239482916666,61.0,82.0
218,60.009307574999994,60.21903908541667,53.0,65.0
219,60.21064982499999,60.43548200416666,58.0,77.0
220,60.21064982499999,60.50427393958333,61.0,80.0
221,60.411992075,60.96232755833333,53.0,76.0
222,60.81467657499999,61.03279734583333,58.0,87.0
223,58.398569574999996,61.08481076041666,46.0,85.0
224,60.81467657499999,61.27776374999999,61.0,92.0
225,61.217361075,61.452260366666664,58.0,75.0
226,61.62004557499999,61.78447507916667,63.0,82.0
227,61.62004557499999,61.78950863541667,58.0,80.0
228,62.022730075,62.537830664583325,46.0,69.0
229,62.42541457499999,62.75427358333333,55.0,80.0
230,62.42541457499999,62.77440780833332,58.0,83.0
231,63.02944132499999,63.187159420833325,51.0,88.0
232,63.02944132499999,63.19051512499999,63.0,86.0
233,63.432125825,63.71903853124999,58.0,85.0
234,63.633468074999996,63.8851458875,51.0,87.0
235,62.828099075,64.06803176458332,46.0,45.0
236,61.62004557499999,64.27440757083333,39.0,88.0
237,64.036152575,64.30964246458333,51.0,87.0
238,64.036152575,64.59823302291666,55.0,87.0
239,64.438837075,64.7307833375,39.0,92.0
240,64.036152575,64.83145446249999,58.0,87.0
241,64.841521575,65.2643403,60.0,84.0
242,64.841521575,65.30125304583333,56.0,81.0
243,65.646890575,65.87172275416667,63.0,86.0
244,65.646890575,65.87675631041667,56.0,87.0
245,66.25091732499999,66.42373608958333,60.0,81.0
246,66.25091732499999,66.43044749791666,56.0,78.0
247,66.452259575,66.61668907916666,51.0,51.0
248,66.653601825,66.82306488541666,56.0,77.0
249,66.653601825,66.87675615208333,63.0,81.0
250,67.056286325,67.17373597083333,56.0,76.0
251,67.257628575,67.56467550625,60.0,87.0
252,67.257628575,67.57306476666666,56.0,84.0
253,66.85494407499999,67.73581641874999,51.0,71.0
254,64.841521575,67.92876940833332,44.0,86.0
255,68.062997575,68.3549438375,56.0,75.0
256,68.062997575,68.54118541874999,61.0,77.0
257,68.868366575,69.05125245208333,61.0,86.0
258,68.868366575,69.05628600833333,65.0,87.0
259,68.868366575,69.06299741666666,56.0,85.0
260,69.472393325,69.58145371041667,56.0,72.0
261,69.472393325,69.58984297083333,61.0,76.0
262,69.87507782499999,70.01098384375,56.0,80.0
263,70.076420075,70.2072925375,61.0,77.0
264,70.479104575,70.69722534583333,56.0,87.0
265,70.479104575,70.73413809166667,61.0,90.0
266,68.062997575,70.75930587291666,49.0,79.0
267,70.479104575,70.91031256041666,65.0,92.0
268,70.881789075,70.99923872083333,56.0,83.0
269,71.23749371666666,71.71568156041666,60.0,82.0
270,71.23749371666666,71.74588289791666,56.0,80.0
271,71.687158075,72.18883584791666,51.0,73.0
272,71.23749371666666,72.29621838125,44.0,85.0
273,72.08984257499999,72.43212439999999,60.0,91.0
274,72.08984257499999,72.43548010416666,63.0,87.0
275,72.08984257499999,72.45058077291667,56.0,86.0
276,72.693869325,72.80796326666666,60.0,86.0
277,72.693869325,72.82641963958332,63.0,82.0
278,72.693869325,72.82809749166667,56.0,81.0
279,73.096553825,73.30125177916666,56.0,87.0
280,73.096553825,73.30964103958333,63.0,86.0
281,73.297896075,73.90024497291667,44.0,86.0
282,73.70058057499999,73.91534564166666,60.0,89.0
283,73.70058057499999,73.91702349375,56.0,86.0
284,73.70058057499999,73.97071476041666,63.0,87.0
285,74.103265075,74.44890260416666,44.0,84.0
286,74.50594957499999,74.72910390208332,56.0,81.0
287,74.50594957499999,74.92709044791665,61.0,80.0
288,74.908634075,75.02272801666666,56.0,68.0
289,75.311318575,75.45729170624999,56.0,85.0
290,75.311318575,75.45729170624999,61.0,86.0
291,75.311318575,75.45729170624999,65.0,87.0
292,75.91534532499999,76.0562849,56.0,81.0
293,75.91534532499999,76.07474127291665,65.0,87.0
294,76.318029825,76.40863383749999,61.0,80.0
295,76.318029825,76.5093049625,56.0,82.0
296,76.72071432499999,76.84990893541666,56.0,79.0
297,76.922056575,77.14017734583332,56.0,81.0
298,76.922056575,77.16702297916666,61.0,89.0
299,74.50594957499999,77.40024441874999,49.0,82.0
300,77.32474107499999,77.47910346666666,56.0,81.0
301,77.727425575,78.11823070416666,61.0,82.0
302,77.727425575,78.11989959583332,58.0,77.0
303,78.12991294583333,78.65728271249999,53.0,68.0
304,78.53044694583332,78.66896495416665,61.0,86.0
305,78.53044694583332,78.67063384583332,65.0,85.0
306,78.53044694583332,78.69232943749999,58.0,81.0
307,79.13124794583332,79.31983270416666,61.0,85.0
308,79.13124794583332,79.32817716249998,58.0,78.0
309,79.33151494583332,79.5284441625,53.0,72.0
310,79.53178194583333,79.7186978125,58.0,80.0
311,79.73204894583333,80.2944654375,53.0,79.0
312,77.727425575,80.34119440416666,46.0,80.0
313,80.13258294583332,80.39793672083333,58.0,87.0
314,80.13258294583332,80.39793672083333,61.0,90.0
315,80.93365094583332,81.48104741249999,65.0,66.0
316,81.33418494583333,81.61789652916666,60.0,76.0
317,81.73471894583332,81.89827032916666,60.0,84.0
318,81.73471894583332,81.91996592083332,65.0,92.0
319,81.73471894583332,81.95167486249998,68.0,82.0
320,82.33551994583333,82.4773757375,60.0,86.0
321,82.33551994583333,82.50240911249999,68.0,79.0
322,82.73605394583332,82.92130092083332,65.0,77.0
323,82.93632094583333,83.1032101125,60.0,81.0
324,80.93365094583332,83.47537295416666,53.0,88.0
325,83.33685494583332,83.50541300416666,60.0,88.0
326,83.33685494583332,83.51876413749999,68.0,84.0
327,84.14029843333333,84.63627665,58.0,77.0
328,84.14029843333333,84.68486911041666,61.0,80.0
329,84.54244293333333,85.0685819875,53.0,68.0
330,84.94458743333333,85.20598135833333,65.0,89.0
331,84.94458743333333,85.24619580833333,58.0,86.0
332,84.94458743333333,85.25457381874999,61.0,90.0
333,85.34673193333333,85.61315266458332,53.0,63.0
334,85.54780418333333,85.70195957499999,58.0,79.0
335,85.54780418333333,85.71201318749999,61.0,82.0
336,85.74887643333332,85.95832669375,53.0,65.0
337,85.94994868333333,86.1744793625,58.0,77.0
338,85.94994868333333,86.24317904791666,61.0,80.0
339,86.15102093333333,86.70061841666666,53.0,76.0
340,86.55316543333333,86.77099370416666,58.0,87.0
341,84.14029843333333,86.82293736874999,46.0,85.0
342,86.55316543333333,87.01577560833333,61.0,92.0
343,86.95537293333332,87.19027222499999,58.0,75.0
344,87.35805743333333,87.52248693749999,63.0,82.0
345,87.35805743333333,87.52752049374999,58.0,80.0
346,87.76074193333332,88.27584252291666,46.0,69.0
347,88.16342643333333,88.49228544166665,55.0,80.0
348,88.16342643333333,88.51241966666666,58.0,83.0
349,88.76745318333333,88.92517127916666,51.0,88.0
350,88.76745318333333,88.92852698333333,63.0,86.0
351,89.17013768333332,89.45705038958333,58.0,85.0
352,89.37147993333332,89.62315774583332,51.0,87.0
353,88.56611093333332,89.80604362291666,46.0,45.0
354,87.35805743333333,90.01241942916666,39.0,88.0
355,89.77416443333333,90.04765432291666,51.0,87.0
356,89.77416443333333,90.33624488125,55.0,87.0
357,90.17684893333333,90.46879519583332,39.0,92.0
358,89.77416443333333,90.56946632083333,58.0,87.0
359,90.57953343333332,90.74396293749999,63.0,82.0
360,90.57953343333332,90.74899649374998,58.0,80.0
361,90.98221793333333,91.49731852291666,46.0,69.0
362,91.38490243333332,91.71376144166666,55.0,80.0
363,91.38490243333332,91.73389566666665,58.0,83.0
364,91.98892918333333,92.14664727916666,51.0,88.0
365,91.98892918333333,92.15000298333332,63.0,86.0
366,92.39161368333332,92.67852638958333,58.0,85.0
367,92.59295593333333,92.84463374583332,51.0,87.0
368,91.78758693333333,93.02751962291666,46.0,45.0
369,90.57953343333332,93.23389542916667,39.0,88.0
370,92.99564043333332,93.26913032291665,51.0,87.0
371,92.99564043333332,93.55772088124999,55.0,87.0
372,93.39832493333333,93.69027119583332,39.0,92.0
373,92.99564043333332,93.79094232083332,58.0,87.0
374,93.80100943333332,94.20369393333333,56.0,87.0
375,93.80100943333332,94.22550601041665,60.0,87.0
376,93.80100943333332,94.22886171458333,63.0,87.0
377,94.60637843333332,94.78423075416666,56.0,89.0
378,94.60637843333332,94.78590860624999,63.0,90.0
379,95.00906293333333,95.27919711874999,51.0,72.0
380,95.21040518333332,95.39329106041666,56.0,88.0
381,95.21040518333332,95.41678098958333,60.0,91.0
382,95.21040518333332,95.44194877083332,63.0,91.0
383,95.61308968333333,95.77416348333333,56.0,84.0
384,95.81443193333332,96.34798889583332,51.0,77.0
385,96.21711643333333,96.44194861249998,56.0,88.0
386,96.21711643333333,96.44362646458333,60.0,88.0
387,93.80100943333332,96.44530431666666,44.0,87.0
388,96.21711643333333,96.48389491458332,63.0,90.0
389,96.61980093333332,96.77584117708332,44.0,89.0
390,97.02248543333333,97.53255246666666,63.0,87.0
391,97.02248543333333,97.54094172708332,67.0,81.0
392,97.02248543333333,97.54765313541665,60.0,86.0
393,97.02248543333333,98.04597520416665,48.0,88.0
394,97.82785443333333,98.14496847708332,63.0,92.0
395,97.82785443333333,98.15671344166665,60.0,90.0
396,97.82785443333333,98.17684766666666,67.0,91.0
397,98.43188118333333,98.61476706041665,63.0,86.0
398,98.43188118333333,98.62315632083332,60.0,86.0
399,98.43188118333333,98.666780475,67.0,86.0
400,99.03590793333332,99.26074011249999,60.0,89.0
401,98.83456568333332,99.50067296041667,55.0,76.0
402,98.63322343333333,99.54597496666666,48.0,73.0
403,99.43859243333333,99.75235077291666,60.0,88.0
404,99.43859243333333,99.75402862499999,63.0,87.0
405,99.84127693333332,99.9654379875,48.0,87.0
406,100.24396143333333,100.64832378541666,65.0,86.0
407,100.24396143333333,100.68523653124998,60.0,82.0
408,101.04933043333332,101.24060557083332,60.0,92.0
409,101.04933043333332,101.26912905625,65.0,97.0
410,101.04933043333332,101.29597468958332,68.0,90.0
411,100.24396143333333,101.686914225,41.0,88.0
412,101.65335718333333,101.92684707291666,60.0,87.0
413,101.65335718333333,101.96040411458333,65.0,88.0
414,101.65335718333333,101.98724974791665,68.0,83.0
415,102.25738393333333,102.47214899999999,60.0,89.0
416,102.05604168333332,102.75738385416666,48.0,73.0
417,102.66006843333332,102.83456505,60.0,91.0
418,101.85469943333332,102.85805497916665,41.0,87.0
419,102.66006843333332,102.90000128124998,65.0,89.0
420,102.66006843333332,102.99060529375,68.0,86.0
421,103.06275293333333,103.12986701666665,60.0,78.0
422,103.46543743333332,103.78422932916666,60.0,83.0
423,103.46543743333332,103.8312091875,63.0,82.0
424,103.46543743333332,103.861410525,67.0,81.0
425,104.27080643333332,104.48053794375,60.0,87.0
426,104.27080643333332,104.48724935208332,63.0,88.0
427,103.46543743333332,104.49731646458332,48.0,88.0
428,104.27080643333332,104.56275269583332,67.0,86.0
429,104.87483318333332,105.14328951666666,60.0,87.0
430,104.87483318333332,105.15503448125,63.0,87.0
431,104.87483318333332,105.17181300208333,67.0,86.0
432,105.47885993333333,105.68859144374998,60.0,87.0
433,105.27751768333331,105.97550414999999,55.0,71.0
434,105.07617543333332,106.03926252916665,48.0,81.0
435,105.88154443333332,106.10805446458332,63.0,89.0
436,105.88154443333332,106.11644372499998,60.0,88.0
437,105.88154443333332,106.156712175,67.0,88.0
438,106.28422893333332,106.47214836666666,48.0,87.0
439,106.68691343333333,107.13154423541665,61.0,83.0
440,106.68691343333333,107.13154423541665,65.0,87.0
441,107.08959793333332,107.4553696875,56.0,73.0
442,106.68691343333333,107.50738310208332,49.0,92.0
443,107.49228243333332,107.69362468333333,61.0,92.0
444,107.49228243333332,107.97885953749999,65.0,100.0
445,107.89496693333332,108.03087295208333,61.0,81.0
446,108.29765143333333,108.56275206249998,67.0,89.0
447,108.29765143333333,108.56946347083333,63.0,86.0
448,108.90167818333333,109.01241642083332,63.0,77.0
449,108.70033593333332,109.21879222708333,46.0,71.0
450,108.29765143333333,109.22214793124999,39.0,91.0
451,109.10302043333333,109.32449690833332,67.0,89.0
452,109.10302043333333,109.32785261249998,63.0,88.0
453,109.10302043333333,109.34295328124999,70.0,88.0
454,109.90838943333333,110.06778538124999,56.0,86.0
455,109.90838943333333,110.32114104583331,60.0,87.0
456,109.90838943333333,110.35805379166666,44.0,88.0
457,109.90838943333333,110.41006720624999,63.0,88.0
458,110.31107393333332,110.46040276874999,56.0,87.0
459,110.71375843333333,110.93523490833333,55.0,87.0
460,110.71375843333333,111.10134226458332,43.0,91.0
461,110.71375843333333,111.17013419999999,58.0,85.0
462,111.11644293333333,111.20536909375,55.0,88.0
463,111.51912743333332,111.60469788958332,41.0,91.0
464,111.51912743333332,111.70033545833333,53.0,86.0
465,111.51912743333332,111.72046968333332,56.0,86.0
466,112.12315418333333,112.44194607916666,60.0,88.0
467,111.92181193333332,112.55268431666666,53.0,88.0
468,112.32449643333332,112.68523463124998,65.0,93.0
469,112.32449643333332,112.71711382083332,68.0,92.0
470,112.72718093333333,112.81275138958333,60.0,87.0
471,113.12986543333332,113.25738219166666,70.0,87.0
472,113.12986543333332,113.28087212083332,65.0,87.0
473,113.53254993333331,114.0996639375,53.0,74.0
474,113.93523443333332,114.19362365416666,61.0,90.0
475,113.93523443333332,114.19530150624999,58.0,88.0
476,113.93523443333332,114.20704647083332,65.0,92.0
477,114.33791893333333,114.45033502291665,53.0,41.0
478,113.12986543333332,114.55436185208332,46.0,87.0
479,114.53926118333332,114.87818730416666,58.0,87.0
480,114.53926118333332,114.92684501458332,61.0,92.0
481,114.53926118333332,114.94697923958333,65.0,91.0
482,115.14328793333333,115.33791877499999,58.0,87.0
483,114.94194568333333,115.64328785416666,53.0,78.0
484,114.74060343333332,115.67181133958331,46.0,87.0
485,115.54597243333332,115.79597239374999,61.0,92.0
486,115.54597243333332,115.80771735833332,58.0,88.0
487,115.54597243333332,115.82785158333333,65.0,97.0
488,115.94865693333333,116.05268376249998,46.0,85.0
489,116.35134143333332,116.43691188958331,39.0,90.0
490,116.35134143333332,116.55268368333333,58.0,85.0
491,116.35134143333332,116.56442864791666,63.0,86.0
492,116.35134143333332,116.65167695624999,67.0,85.0
493,117.15671043333333,117.50402581458331,67.0,92.0
494,117.15671043333333,117.52416003958332,63.0,92.0
495,117.15671043333333,117.52751574374999,58.0,88.0
496,117.55939493333332,117.67516672708332,51.0,68.0
497,117.76073718333332,117.94026735624999,58.0,87.0
498,117.76073718333332,117.94194520833332,63.0,89.0
499,117.76073718333332,117.95536802499998,67.0,89.0
500,117.96207943333332,118.07785122708333,51.0,75.0
501,118.16342168333333,118.27248206874998,58.0,87.0
502,118.16342168333333,118.29932770208332,63.0,89.0
503,118.16342168333333,118.37650889791665,68.0,86.0
504,118.36476393333332,118.45201224166665,51.0,80.0
505,118.56610618333332,118.77751554583332,58.0,87.0
506,118.56610618333332,118.81442829166666,63.0,89.0
507,118.56610618333332,118.83624036874998,67.0,93.0
508,118.96879068333332,119.0728175125,58.0,86.0
509,119.17013293333332,119.46375704791666,63.0,100.0
510,119.17013293333332,119.54764965208332,58.0,90.0
511,118.76744843333333,119.63322010833332,51.0,84.0
512,119.57281743333331,119.97550193333332,56.0,87.0
513,119.57281743333331,119.99731401041666,60.0,87.0
514,119.57281743333331,120.00066971458332,63.0,87.0
515,120.37818643333333,120.55603875416665,56.0,89.0
516,120.37818643333333,120.55771660624998,63.0,90.0
517,120.78087093333332,121.05100511875,51.0,72.0
518,120.98221318333333,121.16509906041665,56.0,88.0
519,120.98221318333333,121.18858898958332,60.0,91.0
520,120.98221318333333,121.21375677083333,63.0,91.0
521,121.38489768333332,121.54597148333332,56.0,84.0
522,121.58623993333333,122.11979689583333,51.0,77.0
523,121.98892443333332,122.21375661249999,56.0,88.0
524,121.98892443333332,122.21543446458332,60.0,88.0
525,119.57281743333331,122.21711231666666,44.0,87.0
526,121.98892443333332,122.25570291458332,63.0,90.0
527,122.39160893333332,122.54764917708331,44.0,89.0
528,122.79429343333332,123.30436046666665,63.0,87.0
529,122.79429343333332,123.31274972708331,67.0,81.0
530,122.79429343333332,123.31946113541665,60.0,86.0
531,122.79429343333332,123.81778320416666,48.0,88.0
532,123.59966243333332,123.91677647708332,63.0,92.0
533,123.59966243333332,123.92852144166665,60.0,90.0
534,123.59966243333332,123.94865566666665,67.0,91.0
535,124.20368918333332,124.38657506041665,63.0,86.0
536,124.20368918333332,124.39496432083332,60.0,86.0
537,124.20368918333332,124.43858847499999,67.0,86.0
538,124.80771593333333,125.0325481125,60.0,89.0
539,124.60637368333332,125.27248096041666,55.0,76.0
540,124.40503143333332,125.31778296666666,48.0,73.0
541,125.21040043333332,125.52415877291665,60.0,88.0
542,125.21040043333332,125.52583662499998,63.0,87.0
543,125.61308493333331,125.73724598749999,48.0,87.0
544,126.01576943333332,126.42013178541666,65.0,86.0
545,126.01576943333332,126.45704453124999,60.0,82.0
546,126.82113843333332,127.01241357083333,60.0,92.0
547,126.82113843333332,127.04093705624999,65.0,97.0
548,126.82113843333332,127.06778268958331,68.0,90.0
549,126.01576943333332,127.45872222499999,41.0,88.0
550,127.42516518333332,127.69865507291665,60.0,87.0
551,127.42516518333332,127.73221211458332,65.0,88.0
552,127.42516518333332,127.75905774791666,68.0,83.0
553,128.02919193333332,128.243957,60.0,89.0
554,127.82784968333331,128.52919185416664,48.0,73.0
555,128.43187643333331,128.60637305,60.0,91.0
556,127.62650743333333,128.62986297916666,41.0,87.0
557,128.43187643333331,128.67180928124998,65.0,89.0
558,128.43187643333331,128.76241329375,68.0,86.0
559,128.8345609333333,128.90167501666664,60.0,78.0
560,129.23724543333333,129.55603732916666,60.0,83.0
561,129.23724543333333,129.60301718749997,63.0,82.0
562,129.23724543333333,129.633218525,67.0,81.0
563,130.0426144333333,130.25234594375,60.0,87.0
564,130.0426144333333,130.25905735208332,63.0,88.0
565,129.23724543333333,130.2691244645833,48.0,88.0
566,130.0426144333333,130.33456069583332,67.0,86.0
567,130.64664118333332,130.91509751666666,60.0,87.0
568,130.64664118333332,130.92684248125,63.0,87.0
569,130.64664118333332,130.94362100208332,67.0,86.0
570,131.25066793333332,131.46039944375,60.0,87.0
571,131.04932568333334,131.74731214999997,55.0,71.0
572,130.84798343333333,131.81107052916667,48.0,81.0
573,131.6533524333333,131.8798624645833,63.0,89.0
574,131.6533524333333,131.88825172499998,60.0,88.0
575,131.6533524333333,131.928520175,67.0,88.0
576,132.0560369333333,132.24395636666665,48.0,87.0
577,132.45872143333332,132.90335223541666,61.0,83.0
578,132.45872143333332,132.90335223541666,65.0,87.0
579,132.86140593333332,133.2271776875,56.0,73.0
580,132.45872143333332,133.27919110208333,49.0,92.0
581,133.2640904333333,133.46543268333332,61.0,92.0
582,133.2640904333333,133.7506675375,65.0,100.0
583,133.66677493333333,133.80268095208334,61.0,81.0
584,134.06945943333332,134.33456006249997,67.0,89.0
585,134.06945943333332,134.3412714708333,63.0,86.0
586,134.67348618333332,134.7842244208333,63.0,77.0
587,134.4721439333333,134.99060022708332,46.0,71.0
588,134.06945943333332,134.99395593124999,39.0,91.0
589,134.87482843333333,135.0963049083333,67.0,89.0
590,134.87482843333333,135.09966061249997,63.0,88.0
591,134.87482843333333,135.11476128125,70.0,88.0
592,135.68019743333332,135.83959338124998,56.0,86.0
593,135.68019743333332,136.09294904583334,60.0,87.0
594,135.68019743333332,136.12986179166666,44.0,88.0
595,135.68019743333332,136.18187520624997,63.0,88.0
596,136.0828819333333,136.23221076874998,56.0,87.0
597,136.4855664333333,136.70704290833334,55.0,87.0
598,136.4855664333333,136.87315026458333,43.0,91.0
599,136.4855664333333,136.94194219999997,58.0,85.0
600,136.88825093333332,136.97717709375,55.0,88.0
601,137.29093543333332,137.3765058895833,41.0,91.0
602,137.29093543333332,137.47214345833333,53.0,86.0
603,137.29093543333332,137.49227768333333,56.0,86.0
604,137.89496218333332,138.21375407916665,60.0,88.0
605,137.6936199333333,138.32449231666666,53.0,88.0
606,138.09630443333333,138.45704263124998,65.0,93.0
607,138.09630443333333,138.48892182083333,68.0,92.0
608,138.49898893333332,138.58455938958332,60.0,87.0
609,138.90167343333331,139.02919019166666,70.0,87.0
610,138.90167343333331,139.05268012083332,65.0,87.0
611,139.30435793333334,139.8714719375,53.0,74.0
612,139.70704243333333,139.96543165416665,61.0,90.0
613,139.70704243333333,139.96710950624998,58.0,88.0
614,139.70704243333333,139.9788544708333,65.0,92.0
615,140.10972693333332,140.22214302291667,53.0,41.0
616,138.90167343333331,140.32616985208332,46.0,87.0
617,140.3110691833333,140.64999530416665,58.0,87.0
618,140.3110691833333,140.69865301458333,61.0,92.0
619,140.3110691833333,140.71878723958332,65.0,91.0
620,140.9150959333333,141.10972677499998,58.0,87.0
621,140.71375368333332,141.41509585416665,53.0,78.0
622,140.5124114333333,141.44361933958334,46.0,87.0
623,141.31778043333333,141.56778039374998,61.0,92.0
624,141.31778043333333,141.5795253583333,58.0,88.0
625,141.31778043333333,141.59965958333333,65.0,97.0
626,141.72046493333332,141.82449176249997,46.0,85.0
627,142.1231494333333,142.20871988958334,39.0,90.0
628,142.1231494333333,142.32449168333332,58.0,85.0
629,142.1231494333333,142.33623664791665,63.0,86.0
630,142.1231494333333,142.42348495624998,67.0,85.0
631,142.92851843333332,143.27583381458334,67.0,92.0
632,142.92851843333332,143.29596803958333,63.0,92.0
633,142.92851843333332,143.29932374375,58.0,88.0
634,143.33120293333332,143.44697472708333,51.0,68.0
635,143.53254518333333,143.71207535624998,58.0,87.0
636,143.53254518333333,143.71375320833332,63.0,89.0
637,143.53254518333333,143.72717602499998,67.0,89.0
638,143.73388743333334,143.84965922708332,51.0,75.0
639,143.93522968333332,144.04429006875,58.0,87.0
640,143.93522968333332,144.07113570208332,63.0,89.0
641,143.93522968333332,144.14831689791666,68.0,86.0
642,144.13657193333333,144.22382024166666,51.0,80.0
643,144.3379141833333,144.54932354583332,58.0,87.0
644,144.3379141833333,144.58623629166664,63.0,89.0
645,144.3379141833333,144.60804836875,67.0,93.0
646,144.7405986833333,144.8446255125,58.0,86.0
647,144.9419409333333,145.23556504791665,63.0,100.0
648,144.9419409333333,145.31945765208332,58.0,90.0
649,144.53925643333332,145.4050281083333,51.0,84.0
650,145.3446254333333,145.81610186875,68.0,85.0
651,145.3446254333333,145.8580481708333,63.0,88.0
652,146.14999443333332,146.37986016874999,68.0,89.0
653,146.14999443333332,146.40838365416664,72.0,91.0
654,146.14999443333332,146.46207492083332,63.0,90.0
655,146.75402118333332,146.8697929770833,63.0,88.0
656,146.75402118333332,146.908383575,72.0,88.0
657,145.74730993333333,147.21039695,51.0,71.0
658,147.1567056833333,147.30100096249998,63.0,87.0
659,147.1567056833333,147.37482645416665,68.0,87.0
660,147.55939018333333,147.673484125,63.0,87.0
661,147.76073243333332,147.78254451041664,73.0,74.0
662,147.35804793333332,147.9318733458333,51.0,76.0
663,145.3446254333333,147.94361831041664,44.0,87.0
664,147.76073243333332,148.00066528124998,63.0,92.0
665,147.76073243333332,148.1583833770833,68.0,90.0
666,148.1634169333333,148.32449073333333,63.0,86.0
667,148.96878593333332,149.50234289583332,56.0,73.0
668,149.37147043333331,149.63992676666666,61.0,87.0
669,149.37147043333331,149.64160461875,68.0,86.0
670,149.7741549333333,150.07784616041664,56.0,59.0
671,149.97549718333332,150.11140320208332,65.0,84.0
672,149.97549718333332,150.13824883541665,61.0,82.0
673,149.97549718333332,150.15334950416664,68.0,82.0
674,150.17683943333333,150.33455752916666,56.0,56.0
675,150.3781816833333,150.63489305208333,61.0,86.0
676,150.3781816833333,150.7003292833333,65.0,88.0
677,150.3781816833333,150.71710780416666,68.0,85.0
678,150.57952393333332,151.15670504999997,56.0,74.0
679,150.9822084333333,151.16006075416664,61.0,87.0
680,148.5661014333333,151.28254395624998,49.0,89.0
681,150.9822084333333,151.34126877916665,65.0,92.0
682,150.9822084333333,151.35804729999998,68.0,87.0
683,151.38489293333333,151.47885264999996,61.0,85.0
684,151.78757743333333,152.23724179166663,60.0,82.0
685,151.78757743333333,152.27583238958331,56.0,81.0
686,152.19026193333332,152.6936175583333,51.0,69.0
687,152.59294643333334,152.8295235770833,60.0,87.0
688,152.59294643333334,152.86979202708332,63.0,87.0
689,152.59294643333334,152.87650343541665,56.0,86.0
690,153.1969731833333,153.35469127916667,56.0,87.0
691,153.1969731833333,153.35972483541667,63.0,87.0
692,153.5996576833333,153.78925496875,56.0,86.0
693,153.5996576833333,153.84797979166666,63.0,86.0
694,153.80099993333332,154.03589922499998,60.0,73.0
695,152.9956309333333,154.37818104999997,51.0,46.0
696,154.2036844333333,154.438583725,56.0,88.0
697,151.78757743333333,154.44697298541666,44.0,87.0
698,154.2036844333333,154.50905351249997,63.0,87.0
699,154.60636893333333,154.82616755624997,44.0,87.0
700,155.00905343333332,155.20200642291667,58.0,73.0
701,155.00905343333332,155.59462381041664,63.0,83.0
702,155.4117379333333,155.66173789375,58.0,73.0
703,155.81442243333333,156.0459660208333,58.0,87.0
704,155.81442243333333,156.08120091458332,63.0,88.0
705,155.81442243333333,156.08287876666665,67.0,88.0
706,156.41844918333334,156.62482498958332,58.0,82.0
707,156.41844918333334,156.62818069374998,67.0,81.0
708,156.8211336833333,157.1181135020833,63.0,80.0
709,157.0224759333333,157.27750944999997,58.0,85.0
710,155.00905343333332,157.39663694791665,51.0,91.0
711,157.4251604333333,157.6399255,58.0,88.0
712,157.4251604333333,158.10133482291667,63.0,91.0
713,157.82784493333332,158.10469052708333,58.0,82.0
714,158.23052943333332,158.6533481583333,60.0,84.0
715,158.23052943333332,158.69026090416665,56.0,81.0
716,159.03589843333333,159.26073061249997,63.0,86.0
717,159.03589843333333,159.26576416874997,56.0,87.0
718,159.63992518333333,159.81274394791666,60.0,81.0
719,159.63992518333333,159.81945535625,56.0,78.0
720,159.84126743333331,160.00569693749998,51.0,51.0
721,160.0426096833333,160.21207274374999,56.0,77.0
722,160.0426096833333,160.26576401041666,63.0,81.0
723,160.44529418333332,160.56274382916666,56.0,76.0
724,160.6466364333333,160.9536833645833,60.0,87.0
725,160.6466364333333,160.962072625,56.0,84.0
726,160.24395193333334,161.12482427708332,51.0,71.0
727,158.23052943333332,161.31777726666667,44.0,86.0
728,161.4520054333333,161.74395169583332,56.0,75.0
729,161.4520054333333,161.93019327708333,61.0,77.0
730,162.25737443333333,162.44026031041665,61.0,86.0
731,162.25737443333333,162.44529386666665,65.0,87.0
732,162.25737443333333,162.45200527499998,56.0,85.0
733,162.86140118333333,162.97046156874998,56.0,72.0
734,162.86140118333333,162.97885082916665,61.0,76.0
735,163.26408568333332,163.3999917020833,56.0,80.0
736,163.46542793333333,163.5963003958333,61.0,77.0
737,163.86811243333332,164.08623320416666,56.0,87.0
738,163.86811243333332,164.12314594999998,61.0,90.0
739,161.4520054333333,164.14831373124997,49.0,79.0
740,163.86811243333332,164.29932041874997,65.0,92.0
741,164.27079693333332,164.38824657916666,56.0,83.0
742,164.62650157499996,165.10468941874998,60.0,82.0
743,164.62650157499996,165.13489075625,56.0,80.0
744,165.0761659333333,165.57784370624998,51.0,73.0
745,164.62650157499996,165.6852262395833,44.0,85.0
746,165.47885043333332,165.8211322583333,60.0,91.0
747,165.47885043333332,165.82448796249997,63.0,87.0
748,165.47885043333332,165.83958863124997,56.0,86.0
749,166.08287718333332,166.196971125,60.0,86.0
750,166.08287718333332,166.21542749791666,63.0,82.0
751,166.08287718333332,166.21710535,56.0,81.0
752,166.48556168333332,166.6902596375,56.0,87.0
753,166.48556168333332,166.69864889791666,63.0,86.0
754,166.68690393333333,167.28925283125,44.0,86.0
755,167.08958843333332,167.3043535,60.0,89.0
756,167.08958843333332,167.30603135208332,56.0,86.0
757,167.08958843333332,167.35972261874997,63.0,87.0
758,167.4922729333333,167.83791046249996,44.0,84.0
759,167.89495743333333,168.11811176041664,56.0,81.0
760,167.89495743333333,168.31609830624998,61.0,80.0
761,168.2976419333333,168.41173587499998,56.0,68.0
762,168.70032643333332,168.84629956458332,56.0,85.0
763,168.70032643333332,168.84629956458332,61.0,86.0
764,168.70032643333332,168.84629956458332,65.0,87.0
765,169.30435318333332,169.44529275833332,56.0,81.0
766,169.30435318333332,169.46374913124998,65.0,87.0
767,169.7070376833333,169.7976416958333,61.0,80.0
768,169.7070376833333,169.89831282083333,56.0,82.0
769,170.1097221833333,170.23891679374998,56.0,79.0
770,170.3110644333333,170.52918520416665,56.0,81.0
771,170.3110644333333,170.55603083749997,61.0,89.0
772,167.89495743333333,170.78925227708334,49.0,82.0
773,170.7137489333333,170.86811132499997,56.0,81.0
774,171.11643343333333,171.50737296874996,61.0,82.0
775,171.11643343333333,171.50905082083332,58.0,77.0
776,171.51911793333332,172.04931919166665,53.0,68.0
777,171.9218024333333,172.06106415624998,61.0,86.0
778,171.9218024333333,172.06274200833332,65.0,85.0
779,171.9218024333333,172.08455408541664,58.0,81.0
780,172.52582918333331,172.71542646874997,61.0,85.0
781,172.52582918333331,172.72381572916663,58.0,78.0
782,172.7271714333333,172.92515797916667,53.0,72.0
783,172.92851368333334,173.11643311666666,58.0,80.0
784,173.12985593333332,173.69529208541667,53.0,79.0
785,171.11643343333333,173.74227194374998,46.0,80.0
786,173.5325404333333,173.7993189145833,58.0,87.0
787,173.5325404333333,173.7993189145833,61.0,90.0
788,174.33790943333332,174.88824491666665,65.0,66.0
789,174.74059393333332,175.0258287875,60.0,76.0
790,175.1432784333333,175.30770793749997,60.0,84.0
791,175.1432784333333,175.3295200145833,65.0,92.0
792,175.1432784333333,175.36139920416664,68.0,82.0
793,175.7473051833333,175.88992261041665,60.0,86.0
794,175.7473051833333,175.91509039166664,68.0,79.0
795,176.14998968333333,176.33623126458332,65.0,77.0
796,176.3513319333333,176.51911714166664,60.0,81.0
797,174.33790943333332,176.89327815624998,53.0,88.0
798,176.75401643333333,176.92347949375,60.0,88.0
799,176.75401643333333,176.93690231041666,68.0,84.0
800,177.55938543333332,178.05602964999997,58.0,77.0
801,177.55938543333332,178.10468736041665,61.0,80.0
802,177.9620699333333,178.48891548749998,53.0,68.0
803,178.3647544333333,178.62649935833332,65.0,89.0
804,178.3647544333333,178.6667678083333,58.0,86.0
805,178.3647544333333,178.67515706874997,61.0,90.0
806,178.76743893333332,179.0342174145833,53.0,63.0
807,178.9687811833333,179.12314357499997,58.0,79.0
808,178.9687811833333,179.13321068749997,61.0,82.0
809,179.17012343333332,179.37985494375,53.0,65.0
810,179.37146568333333,179.59629786249997,58.0,77.0
811,179.37146568333333,179.66508979791666,61.0,80.0
812,179.5728079333333,180.12314341666666,53.0,76.0
813,179.97549243333333,180.19361320416664,58.0,87.0
814,177.55938543333332,180.24562661874998,46.0,85.0
815,179.97549243333333,180.43857960833333,61.0,92.0
816,180.37817693333332,180.613076225,58.0,75.0
817,180.7808614333333,180.94529093749998,63.0,82.0
818,180.7808614333333,180.95032449374997,58.0,80.0
819,181.18354593333333,181.69864652291665,46.0,69.0
820,181.5862304333333,181.91508944166665,55.0,80.0
821,181.5862304333333,181.93522366666664,58.0,83.0
822,182.1902571833333,182.34797527916663,51.0,88.0
823,182.1902571833333,182.3513309833333,63.0,86.0
824,182.59294168333332,182.87985438958333,58.0,85.0
825,182.7942839333333,183.04596174583332,51.0,87.0
826,181.98891493333332,183.22884762291665,46.0,45.0
827,180.7808614333333,183.43522342916665,39.0,88.0
828,183.19696843333332,183.47045832291664,51.0,87.0
829,183.19696843333332,183.75904888124998,55.0,87.0
830,183.59965293333332,183.8915991958333,39.0,92.0
831,183.19696843333332,183.9922703208333,58.0,87.0
832,184.0023374333333,184.16676693749997,63.0,82.0
833,184.0023374333333,184.17180049374997,58.0,80.0
834,184.40502193333333,184.92012252291664,46.0,69.0
835,184.8077064333333,185.13656544166665,55.0,80.0
836,184.8077064333333,185.15669966666667,58.0,83.0
837,185.4117331833333,185.56945127916663,51.0,88.0
838,185.4117331833333,185.5728069833333,63.0,86.0
839,185.81441768333332,186.10133038958332,58.0,85.0
840,186.0157599333333,186.26743774583332,51.0,87.0
841,185.21039093333331,186.45032362291664,46.0,45.0
842,184.0023374333333,186.65669942916665,39.0,88.0
843,186.41844443333332,186.69193432291667,51.0,87.0
844,186.41844443333332,186.98052488124998,55.0,87.0
845,186.8211289333333,187.11307519583332,39.0,92.0
846,186.41844443333332,187.2137463208333,58.0,87.0
847,187.2238134333333,187.62649793333333,56.0,87.0
848,187.2238134333333,187.64831001041665,60.0,87.0
849,187.2238134333333,187.65166571458332,63.0,87.0
850,188.02918243333332,188.20703475416664,56.0,89.0
851,188.02918243333332,188.20871260624997,63.0,90.0
852,188.4318669333333,188.70200111875,51.0,72.0
853,188.63320918333332,188.81609506041664,56.0,88.0
854,188.63320918333332,188.83958498958333,60.0,91.0
855,188.63320918333332,188.86475277083332,63.0,91.0
856,189.0358936833333,189.1969674833333,56.0,84.0
857,189.2372359333333,189.77079289583332,51.0,77.0
858,189.63992043333332,189.86475261249998,56.0,88.0
859,189.63992043333332,189.86643046458332,60.0,88.0
860,187.2238134333333,189.86810831666665,44.0,87.0
861,189.63992043333332,189.90669891458333,63.0,90.0
862,190.0426049333333,190.1986451770833,44.0,89.0
863,190.4452894333333,190.95535646666664,63.0,87.0
864,190.4452894333333,190.96374572708334,67.0,81.0
865,190.4452894333333,190.97045713541667,60.0,86.0
866,190.4452894333333,191.46877920416665,48.0,88.0
867,191.2506584333333,191.5677724770833,63.0,92.0
868,191.2506584333333,191.57951744166667,60.0,90.0
869,191.2506584333333,191.59965166666666,67.0,91.0
870,191.85468518333332,192.03757106041667,63.0,86.0
871,191.85468518333332,192.04596032083333,60.0,86.0
872,191.85468518333332,192.08958447499998,67.0,86.0
873,192.45871193333332,192.6835441125,60.0,89.0
874,192.2573696833333,192.92347696041665,55.0,76.0
875,192.05602743333333,192.96877896666666,48.0,73.0
876,192.8613964333333,193.17515477291664,60.0,88.0
877,192.8613964333333,193.17683262499997,63.0,87.0
878,193.26408093333333,193.38824198749998,48.0,87.0
879,193.6667654333333,194.07112778541665,65.0,86.0
880,193.6667654333333,194.10804053124997,60.0,82.0
881,194.4721344333333,194.66340957083332,60.0,92.0
882,194.4721344333333,194.69193305624998,65.0,97.0
883,194.4721344333333,194.7187786895833,68.0,90.0
884,193.6667654333333,195.109718225,41.0,88.0
885,195.0761611833333,195.34965107291663,60.0,87.0
886,195.0761611833333,195.3832081145833,65.0,88.0
887,195.0761611833333,195.41005374791666,68.0,83.0
888,195.68018793333331,195.894953,60.0,89.0
889,195.4788456833333,196.18018785416666,48.0,73.0
890,196.0828724333333,196.25736904999997,60.0,91.0
891,195.27750343333332,196.28085897916665,41.0,87.0
892,196.0828724333333,196.32280528125,65.0,89.0
893,196.0828724333333,196.41340929374996,68.0,86.0
894,196.48555693333333,196.55267101666664,60.0,78.0
895,196.88824143333332,197.20703332916665,60.0,83.0
896,196.88824143333332,197.2540131875,63.0,82.0
897,196.88824143333332,197.28421452499998,67.0,81.0
898,197.69361043333333,197.90334194374998,60.0,87.0
899,197.69361043333333,197.9100533520833,63.0,88.0
900,196.88824143333332,197.9201204645833,48.0,88.0
901,197.69361043333333,197.9855566958333,67.0,86.0
902,198.2976371833333,198.56609351666663,60.0,87.0
903,198.2976371833333,198.57783848124998,63.0,87.0
904,198.2976371833333,198.5946170020833,67.0,86.0
905,198.9016639333333,199.11139544374998,60.0,87.0
906,198.7003216833333,199.3982879625,55.0,71.0
907,198.49897943333332,199.46179063333332,48.0,81.0
908,199.3043484333333,199.53030667291665,63.0,89.0
909,199.3043484333333,199.5386622875,60.0,88.0
910,199.3043484333333,199.57876923749998,67.0,88.0
911,199.70577457916667,199.89294034583332,48.0,87.0
912,200.10684407916665,200.54969165208334,61.0,83.0
913,200.10684407916665,200.54969165208334,65.0,87.0
914,200.50791357916665,200.872218375,56.0,73.0
915,200.10684407916665,200.92402318541667,49.0,92.0
916,200.90898307916666,201.10951782916666,61.0,92.0
917,200.90898307916666,201.393608725,65.0,100.0
918,201.31005257916667,201.44541353541666,61.0,81.0
919,201.71112207916667,201.9751595,67.0,89.0
920,201.71112207916667,201.98184399166666,63.0,86.0
921,202.31272632916665,202.42302044166667,63.0,77.0
922,202.11219157916665,202.62856856041665,46.0,71.0
923,201.71112207916667,202.63191080625,39.0,91.0
924,202.51326107916665,202.73384930416665,67.0,89.0
925,202.51326107916665,202.73719155,63.0,88.0
926,202.51326107916665,202.75223165625,70.0,88.0
927,203.31540007916666,203.47415675624998,56.0,86.0
928,203.31540007916666,203.72649631666667,60.0,87.0
929,203.31540007916666,203.76326102083334,44.0,88.0
930,203.31540007916666,203.81506583125,63.0,88.0
931,203.71646957916667,203.86519951875,56.0,87.0
932,204.11753907916665,204.33812730416665,55.0,87.0
933,204.11753907916665,204.50356847291667,43.0,91.0
934,204.11753907916665,204.5720845125,58.0,85.0
935,204.51860857916665,204.60717809375,55.0,88.0
936,204.91967807916666,205.00490534791666,41.0,91.0
937,204.91967807916666,205.10015935416666,53.0,86.0
938,204.91967807916666,205.12021282916666,56.0,86.0
939,205.52128232916667,205.83879568333333,60.0,88.0
940,205.32074757916666,205.94908979583332,53.0,88.0
941,205.72181707916667,206.08110850625,65.0,93.0
942,205.72181707916667,206.11285984166665,68.0,92.0
943,206.12288657916665,206.20811384791665,60.0,87.0
944,206.52395607916665,206.65096142083334,70.0,87.0
945,206.52395607916665,206.67435714166666,65.0,87.0
946,206.92502557916666,207.4904505625,53.0,74.0
947,207.32609507916666,207.58441027916666,61.0,90.0
948,207.32609507916666,207.58608813125,58.0,88.0
949,207.32609507916666,207.59783309583332,65.0,92.0
950,207.72870555833333,207.84112164791665,53.0,41.0
951,206.52395607916665,207.94514847708334,46.0,87.0
952,207.93004780833334,208.26897392916666,58.0,87.0
953,207.93004780833334,208.31763163958334,61.0,92.0
954,207.93004780833334,208.33776586458333,65.0,91.0
955,208.53407455833334,208.7287054,58.0,87.0
956,208.33273230833333,209.03407447916666,53.0,78.0
957,208.13139005833332,209.06259796458332,46.0,87.0
958,208.93675905833334,209.18675901875,61.0,92.0
959,208.93675905833334,209.19850398333332,58.0,88.0
960,208.93675905833334,209.21863820833335,65.0,97.0
961,209.33944355833333,209.44347038749999,46.0,85.0
962,209.74212805833332,209.82769851458332,39.0,90.0
963,209.74212805833332,209.94347030833333,58.0,85.0
964,209.74212805833332,209.95521527291666,63.0,86.0
965,209.74212805833332,210.04246358125,67.0,85.0
966,210.54749705833333,210.89481243958332,67.0,92.0
967,210.54749705833333,210.91494666458334,63.0,92.0
968,210.54749705833333,210.91830236875,58.0,88.0
969,210.95018155833333,211.06595335208334,51.0,68.0
970,211.15152380833334,211.33105398125,58.0,87.0
971,211.15152380833334,211.33273183333333,63.0,89.0
972,211.15152380833334,211.34615465,67.0,89.0
973,211.35286605833332,211.46863785208333,51.0,75.0
974,211.55420830833333,211.66326869375,58.0,87.0
975,211.55420830833333,211.69011432708334,63.0,89.0
976,211.55420830833333,211.76729552291667,68.0,86.0
977,211.75555055833334,211.84279886666667,51.0,80.0
978,211.95689280833332,212.16830217083333,58.0,87.0
979,211.95689280833332,212.20521491666668,63.0,89.0
980,211.95689280833332,212.22702699375,67.0,93.0
981,212.35957730833334,212.4636041375,58.0,86.0
982,212.56091955833332,212.85454367291666,63.0,100.0
983,212.56091955833332,212.93843627708333,58.0,90.0
984,212.15823505833333,213.02400673333332,51.0,84.0
985,212.96360405833332,213.36628855833334,56.0,87.0
986,212.96360405833332,213.38810063541666,60.0,87.0
987,212.96360405833332,213.39145633958333,63.0,87.0
988,213.76897305833333,213.94682537916665,56.0,89.0
989,213.76897305833333,213.94850323125,63.0,90.0
990,214.17165755833332,214.44179174375,51.0,72.0
991,214.37299980833333,214.55588568541665,56.0,88.0
992,214.37299980833333,214.57937561458334,60.0,91.0
993,214.37299980833333,214.60454339583333,63.0,91.0
994,214.77568430833333,214.93675810833332,56.0,84.0
995,214.97702655833334,215.51058352083334,51.0,77.0
996,215.37971105833333,215.6045432375,56.0,88.0
997,215.37971105833333,215.60622108958333,60.0,88.0
998,212.96360405833332,215.60789894166666,44.0,87.0
999,215.37971105833333,215.64648953958334,63.0,90.0
1000,215.78239555833332,215.93843580208332,44.0,89.0
1001,216.18508005833334,216.69514709166666,63.0,87.0
1002,216.18508005833334,216.70353635208332,67.0,81.0
1003,216.18508005833334,216.71024776041668,60.0,86.0
1004,216.18508005833334,217.20856982916666,48.0,88.0
1005,216.99044905833333,217.30756310208332,63.0,92.0
1006,216.99044905833333,217.31930806666668,60.0,90.0
1007,216.99044905833333,217.33944229166667,67.0,91.0
1008,217.59447580833333,217.77736168541668,63.0,86.0
1009,217.59447580833333,217.78575094583334,60.0,86.0
1010,217.59447580833333,217.8293751,67.0,86.0
1011,218.19850255833333,218.4233347375,60.0,89.0
1012,217.99716030833332,218.66326758541666,55.0,76.0
1013,217.79581805833334,218.70856959166667,48.0,73.0
1014,218.60118705833332,218.91494539791665,60.0,88.0
1015,218.60118705833332,218.91662325,63.0,87.0
1016,219.00387155833334,219.1280326125,48.0,87.0
1017,219.40655605833334,219.81091841041666,65.0,86.0
1018,219.40655605833334,219.84783115625,60.0,82.0
1019,220.21192505833332,220.40320019583334,60.0,92.0
1020,220.21192505833332,220.43172368125,65.0,97.0
1021,220.21192505833332,220.45856931458334,68.0,90.0
1022,219.40655605833334,220.84950885,41.0,88.0
1023,220.81595180833332,221.08944169791667,60.0,87.0
1024,220.81595180833332,221.12299873958332,65.0,88.0
1025,220.81595180833332,221.14984437291668,68.0,83.0
1026,221.41997855833333,221.634743625,60.0,89.0
1027,221.21863630833332,221.91997847916667,48.0,73.0
1028,221.82266305833332,221.997159675,60.0,91.0
1029,221.01729405833333,222.02064960416666,41.0,87.0
1030,221.82266305833332,222.06259590625,65.0,89.0
1031,221.82266305833332,222.15319991875,68.0,86.0
1032,222.22534755833334,222.29246164166668,60.0,78.0
1033,222.62803205833333,222.94682395416666,60.0,83.0
1034,222.62803205833333,222.9938038125,63.0,82.0
1035,222.62803205833333,223.02400515,67.0,81.0
1036,223.43340105833335,223.64313256875,60.0,87.0
1037,223.43340105833335,223.64984397708332,63.0,88.0
1038,222.62803205833333,223.65991108958332,48.0,88.0
1039,223.43340105833335,223.72534732083332,67.0,86.0
1040,224.03742780833332,224.30588414166667,60.0,87.0
1041,224.03742780833332,224.31762910625,63.0,87.0
1042,224.03742780833332,224.33440762708332,67.0,86.0
1043,224.64145455833332,224.85118606875,60.0,87.0
1044,224.44011230833334,225.138098775,55.0,71.0
1045,224.23877005833333,225.20185715416667,48.0,81.0
1046,225.04413905833331,225.27064908958334,63.0,89.0
1047,225.04413905833331,225.27903835,60.0,88.0
1048,225.04413905833331,225.3193068,67.0,88.0
1049,225.44682355833334,225.63474299166666,48.0,87.0
1050,225.84950805833333,226.29413886041667,61.0,83.0
1051,225.84950805833333,226.29413886041667,65.0,87.0
1052,226.25219255833332,226.6179643125,56.0,73.0
1053,225.84950805833333,226.66997772708334,49.0,92.0
1054,226.65487705833334,226.85621930833332,61.0,92.0
1055,226.65487705833334,227.1414541625,65.0,100.0
1056,227.05756155833333,227.19346757708334,61.0,81.0
1057,227.46024605833333,227.7253466875,67.0,89.0
1058,227.46024605833333,227.73205809583334,63.0,86.0
1059,228.06427280833333,228.17501104583334,63.0,77.0
1060,227.86293055833332,228.38138685208332,46.0,71.0
1061,227.46024605833333,228.38474255625,39.0,91.0
1062,228.26561505833334,228.48709153333334,67.0,89.0
1063,228.26561505833334,228.4904472375,63.0,88.0
1064,228.26561505833334,228.50554790625,70.0,88.0
1065,229.07098405833332,229.23038000625,56.0,86.0
1066,229.07098405833332,229.48373567083334,60.0,87.0
1067,229.07098405833332,229.52064841666666,44.0,88.0
1068,229.07098405833332,229.57266183125,63.0,88.0
1069,229.47366855833332,229.62299739374998,56.0,87.0
1070,229.87635305833334,230.09782953333334,55.0,87.0
1071,229.87635305833334,230.26393688958333,43.0,91.0
1072,229.87635305833334,230.332728825,58.0,85.0
1073,230.27903755833333,230.36796371875,55.0,88.0
1074,230.68172205833332,230.76729251458332,41.0,91.0
1075,230.68172205833332,230.86293008333334,53.0,86.0
1076,230.68172205833332,230.88306430833333,56.0,86.0
1077,231.28574880833332,231.60454070416665,60.0,88.0
1078,231.08440655833334,231.71527894166667,53.0,88.0
1079,231.48709105833333,231.84782925625,65.0,93.0
1080,231.48709105833333,231.87970844583333,68.0,92.0
1081,231.88977555833333,231.97534601458332,60.0,87.0
1082,232.29246005833332,232.41997681666666,70.0,87.0
1083,232.29246005833332,232.44346674583332,65.0,87.0
1084,232.69514455833334,233.2622585625,53.0,74.0
1085,233.09782905833333,233.35621827916665,61.0,90.0
1086,233.09782905833333,233.35789613125,58.0,88.0
1087,233.09782905833333,233.36964109583334,65.0,92.0
1088,233.50051355833332,233.61292964791667,53.0,41.0
1089,232.29246005833332,233.71695647708333,46.0,87.0
1090,233.70185580833333,234.04078192916666,58.0,87.0
1091,233.70185580833333,234.08943963958333,61.0,92.0
1092,233.70185580833333,234.10957386458333,65.0,91.0
1093,234.30588255833334,234.5005134,58.0,87.0
1094,234.10454030833333,234.80588247916666,53.0,78.0
1095,233.90319805833332,234.83440596458334,46.0,87.0
1096,234.70856705833333,234.95856701875,61.0,92.0
1097,234.70856705833333,234.97031198333332,58.0,88.0
1098,234.70856705833333,234.99044620833334,65.0,97.0
1099,235.11125155833332,235.2152783875,46.0,85.0
1100,235.51393605833334,235.59950651458334,39.0,90.0
1101,235.51393605833334,235.71527830833332,58.0,85.0
1102,235.51393605833334,235.72702327291665,63.0,86.0
1103,235.51393605833334,235.81427158125,67.0,85.0
1104,236.31930505833333,236.66662043958334,67.0,92.0
1105,236.31930505833333,236.68675466458333,63.0,92.0
1106,236.31930505833333,236.69011036875,58.0,88.0
1107,236.72198955833332,236.83776135208333,51.0,68.0
1108,236.92333180833333,237.10286198125,58.0,87.0
1109,236.92333180833333,237.10453983333332,63.0,89.0
1110,236.92333180833333,237.11796264999998,67.0,89.0
1111,237.12467405833334,237.24044585208333,51.0,75.0
1112,237.32601630833332,237.43507669375,58.0,87.0
1113,237.32601630833332,237.46192232708333,63.0,89.0
1114,237.32601630833332,237.53910352291666,68.0,86.0
1115,237.52735855833333,237.61460686666666,51.0,80.0
1116,237.72870080833331,237.94011017083332,58.0,87.0
1117,237.72870080833331,237.97702291666667,63.0,89.0
1118,237.72870080833331,237.99883499375,67.0,93.0
1119,238.13138530833334,238.2354121375,58.0,86.0
1120,238.33272755833332,238.62635167291666,63.0,100.0
1121,238.33272755833332,238.71024427708332,58.0,90.0
1122,237.93004305833333,238.79581473333332,51.0,84.0
1123,238.73541205833334,239.09279455208332,63.0,87.0
1124,238.73541205833334,239.22702271875,56.0,85.0
1125,239.54078105833332,239.71863337916665,60.0,88.0
1126,239.54078105833332,239.78071390624999,56.0,87.0
1127,239.54078105833332,239.79078101875,63.0,88.0
1128,239.13809655833333,240.23205611666666,51.0,74.0
1129,240.14480780833333,240.32433798124998,56.0,91.0
1130,240.14480780833333,240.34111650208334,63.0,89.0
1131,240.34615005833334,240.57937149791667,51.0,71.0
1132,240.54749230833332,240.74547885416666,56.0,93.0
1133,240.54749230833332,240.78071374791665,63.0,93.0
1134,240.95017680833334,241.07769356666665,56.0,80.0
1135,240.74883455833333,241.285747225,51.0,78.0
1136,241.15151905833332,241.32098211875,60.0,95.0
1137,241.15151905833332,241.326015675,56.0,89.0
1138,241.15151905833332,241.36292842083333,63.0,89.0
1139,238.73541205833334,241.38977405416665,44.0,88.0
1140,241.95688805833333,242.32937122083334,60.0,87.0
1141,241.95688805833333,242.37970678333332,65.0,91.0
1142,242.76225705833332,242.87299529583333,60.0,91.0
1143,242.76225705833332,242.87802885208333,68.0,87.0
1144,243.36628380833332,243.50554553125,65.0,90.0
1145,243.36628380833332,243.51225693958332,60.0,87.0
1146,242.35957255833333,243.84614950416665,48.0,68.0
1147,243.76896830833334,244.03742464166666,60.0,88.0
1148,243.76896830833334,244.21359911041665,65.0,95.0
1149,244.17165280833333,244.25051185625,60.0,87.0
1150,244.37299505833334,244.40487424791667,70.0,73.0
1151,244.37299505833334,244.587760125,60.0,93.0
1152,241.95688805833333,244.70353191875,41.0,90.0
1153,244.37299505833334,244.7286997,65.0,100.0
1154,244.77567955833334,244.90822987291665,60.0,81.0
1155,245.17836405833333,245.49715595416666,56.0,73.0
1156,245.17836405833333,245.6867532395833,61.0,84.0
1157,245.58104855833332,245.77400154791667,56.0,78.0
1158,245.9837330583333,246.08608203541667,61.0,91.0
1159,245.9837330583333,246.12467263333332,65.0,92.0
1160,245.9837330583333,246.13138404166665,56.0,88.0
1161,245.17836405833333,246.18675316041666,49.0,91.0
1162,246.58775980833332,246.72869938333332,56.0,83.0
1163,246.58775980833332,246.74212219999998,61.0,86.0
1164,246.58775980833332,246.762256425,65.0,87.0
1165,246.99044430833334,247.10453825,56.0,82.0
1166,247.19178655833332,247.32433687291666,61.0,77.0
1167,247.59447105833334,247.81426968124998,56.0,87.0
1168,247.59447105833334,247.84279316666667,61.0,90.0
1169,247.59447105833334,247.84614887083333,49.0,88.0
1170,247.59447105833334,247.86124953958333,65.0,90.0
1171,248.39984005833333,248.70688698958332,58.0,83.0
1172,248.39984005833333,248.71359839791666,61.0,87.0
1173,248.39984005833333,248.71863195416665,65.0,89.0
1174,248.39984005833333,248.77400107291666,46.0,88.0
1175,249.00386680833333,249.33775937291665,63.0,88.0
1176,249.00386680833333,249.35453789374998,60.0,87.0
1177,249.00386680833333,249.37467211875,48.0,90.0
1178,249.60789355833333,250.12299414791667,56.0,87.0
1179,249.60789355833333,250.13809481666667,49.0,91.0
1180,249.60789355833333,250.1548733375,61.0,88.0
1181,250.21192030833333,250.748832975,58.0,87.0
1182,250.21192030833333,250.77232290416666,63.0,85.0
1183,250.21192030833333,250.78742357291665,51.0,102.0
1184,250.81594705833334,251.07769198333332,39.0,88.0
1185,250.81594705833334,251.08775909583332,63.0,82.0
1186,250.81594705833334,251.09447050416665,58.0,75.0
1187,251.21863155833333,251.44849729375,39.0,88.0
1188,251.21863155833333,251.50554426458334,58.0,82.0
1189,251.21863155833333,251.50889996875,63.0,84.0
1190,251.62131605833332,252.30084615208332,58.0,87.0
1191,251.62131605833332,252.30420185625,63.0,87.0
1192,252.42668505833333,252.5911145625,58.0,91.0
1193,252.42668505833333,252.62634945625,63.0,92.0
1194,252.82936955833333,252.99883261875,58.0,78.0
1195,251.62131605833332,253.0156111395833,39.0,95.0
1196,253.23205405833332,253.3562151125,67.0,34.0
1197,253.23205405833332,253.42332919583333,63.0,70.0
1198,253.23205405833332,253.43004060416666,39.0,80.0
1199,253.23205405833332,253.43004060416666,58.0,70.0
1200,253.6347385583333,253.809235175,63.0,84.0
1201,253.6347385583333,253.82769154791666,58.0,82.0
1202,253.6347385583333,253.83272510416666,67.0,75.0
1203,253.6347385583333,253.83608080833332,39.0,89.0
1204,254.03742305833333,254.27567805416666,63.0,88.0
1205,254.03742305833333,254.292456575,58.0,85.0
1206,254.03742305833333,254.30420153958332,39.0,92.0
1207,254.03742305833333,254.30420153958332,67.0,87.0
1208,254.44010755833332,254.775677975,58.0,85.0
1209,254.44010755833332,254.7857450875,63.0,87.0
1210,254.44010755833332,254.8058793125,67.0,86.0
1211,254.44010755833332,254.82097998125,39.0,93.0
1212,254.84279205833332,255.24547655833334,56.0,87.0
1213,254.84279205833332,255.26728863541666,60.0,87.0
1214,254.84279205833332,255.27064433958333,63.0,87.0
1215,255.64816105833333,255.82601337916665,56.0,89.0
1216,255.64816105833333,255.82769123125,63.0,90.0
1217,256.0508455583333,256.32097974375,51.0,72.0
1218,256.2521878083333,256.4350736854167,56.0,88.0
1219,256.2521878083333,256.45856361458334,60.0,91.0
1220,256.2521878083333,256.48373139583333,63.0,91.0
1221,256.6548723083333,256.8159461083333,56.0,84.0
1222,256.8562145583333,257.38977152083334,51.0,77.0
1223,257.2588990583333,257.4837312375,56.0,88.0
1224,257.2588990583333,257.4854090895833,60.0,88.0
1225,254.84279205833332,257.4870869416667,44.0,87.0
1226,257.2588990583333,257.52567753958334,63.0,90.0
1227,257.66158355833335,257.81762380208335,44.0,89.0
1228,258.0642680583333,258.5743350916667,63.0,87.0
1229,258.0642680583333,258.58272435208335,67.0,81.0
1230,258.0642680583333,258.5894357604167,60.0,86.0
1231,258.0642680583333,259.08775782916666,48.0,88.0
1232,258.8696370583333,259.18675110208335,63.0,92.0
1233,258.8696370583333,259.1984960666667,60.0,90.0
1234,258.8696370583333,259.21863029166667,67.0,91.0
1235,259.4736638083333,259.6565496854167,63.0,86.0
1236,259.4736638083333,259.66493894583334,60.0,86.0
1237,259.4736638083333,259.7085631,67.0,86.0
1238,260.0776905583333,260.3025227375,60.0,89.0
1239,259.8763483083333,260.54245558541663,55.0,76.0
1240,259.67500605833334,260.5877575916667,48.0,73.0
1241,260.4803750583333,260.79413339791665,60.0,88.0
1242,260.4803750583333,260.79581125,63.0,87.0
1243,260.88305955833334,261.00722061249996,48.0,87.0
1244,261.2857440583333,261.69010641041666,65.0,86.0
1245,261.2857440583333,261.72701915625,60.0,82.0
1246,262.09111305833335,262.28238819583333,60.0,92.0
1247,262.09111305833335,262.31091168125,65.0,97.0
1248,262.09111305833335,262.3377573145833,68.0,90.0
1249,261.2857440583333,262.72869685,41.0,88.0
1250,262.69513980833335,262.96862969791664,60.0,87.0
1251,262.69513980833335,263.0021867395833,65.0,88.0
1252,262.69513980833335,263.0290323729167,68.0,83.0
1253,263.29916655833335,263.513931625,60.0,89.0
1254,263.0978243083333,263.7991664791667,48.0,73.0
1255,263.7018510583333,263.876347675,60.0,91.0
1256,262.89648205833333,263.89983760416663,41.0,87.0
1257,263.7018510583333,263.94178390625,65.0,89.0
1258,263.7018510583333,264.03238791875,68.0,86.0
1259,264.10453555833334,264.17164964166665,60.0,78.0
1260,264.5072200583333,264.8260119541667,60.0,83.0
1261,264.5072200583333,264.8729918125,63.0,82.0
1262,264.5072200583333,264.90319315,67.0,81.0
1263,265.31258905833334,265.52232056875,60.0,87.0
1264,265.31258905833334,265.5290319770833,63.0,88.0
1265,264.5072200583333,265.5390990895833,48.0,88.0
1266,265.31258905833334,265.60453532083335,67.0,86.0
1267,265.91661580833335,266.18507214166664,60.0,87.0
1268,265.91661580833335,266.19681710625,63.0,87.0
1269,265.91661580833335,266.21359562708335,67.0,86.0
1270,266.52064255833335,266.73037406875,60.0,87.0
1271,266.3193003083333,267.017286775,55.0,71.0
1272,266.11795805833333,267.08104515416665,48.0,81.0
1273,266.9233270583333,267.14983708958334,63.0,89.0
1274,266.9233270583333,267.15822635,60.0,88.0
1275,266.9233270583333,267.1984948,67.0,88.0
1276,267.32601155833333,267.51393099166665,48.0,87.0
1277,267.7286960583333,268.17332686041664,61.0,83.0
1278,267.7286960583333,268.17332686041664,65.0,87.0
1279,268.1313805583333,268.4971523125,56.0,73.0
1280,267.7286960583333,268.54916572708333,49.0,92.0
1281,268.53406505833334,268.7354073083333,61.0,92.0
1282,268.53406505833334,269.0206421625,65.0,100.0
1283,268.9367495583333,269.0726555770833,61.0,81.0
1284,269.3394340583333,269.6045346875,67.0,89.0
1285,269.3394340583333,269.61124609583334,63.0,86.0
1286,269.9434608083333,270.05419904583334,63.0,77.0
1287,269.74211855833335,270.2605748520833,46.0,71.0
1288,269.3394340583333,270.26393055625,39.0,91.0
1289,270.1448030583333,270.36627953333334,67.0,89.0
1290,270.1448030583333,270.3696352375,63.0,88.0
1291,270.1448030583333,270.38473590625,70.0,88.0
1292,270.95017205833335,271.10956800625,56.0,86.0
1293,270.95017205833335,271.3629236708333,60.0,87.0
1294,270.95017205833335,271.39983641666663,44.0,88.0
1295,270.95017205833335,271.45184983125,63.0,88.0
1296,271.3528565583333,271.50218539375,56.0,87.0
1297,271.75554105833334,271.9770175333333,55.0,87.0
1298,271.75554105833334,272.1431248895833,43.0,91.0
1299,271.75554105833334,272.211916825,58.0,85.0
1300,272.15822555833336,272.24715171875,55.0,88.0
1301,272.5609100583333,272.64648051458335,41.0,91.0
1302,272.5609100583333,272.7421180833333,53.0,86.0
1303,272.5609100583333,272.76225230833336,56.0,86.0
1304,273.1649368083333,273.48372870416665,60.0,88.0
1305,272.96359455833334,273.59446694166667,53.0,88.0
1306,273.3662790583333,273.72701725625,65.0,93.0
1307,273.3662790583333,273.75889644583333,68.0,92.0
1308,273.7689635583333,273.85453401458335,60.0,87.0
1309,274.1716480583333,274.2991648166667,70.0,87.0
1310,274.1716480583333,274.32265474583335,65.0,87.0
1311,274.5743325583333,275.1414465625,53.0,74.0
1312,274.97701705833333,275.2354062791667,61.0,90.0
1313,274.97701705833333,275.23708413124996,58.0,88.0
1314,274.97701705833333,275.24882909583334,65.0,92.0
1315,275.3797015583333,275.49211764791664,53.0,41.0
1316,274.1716480583333,275.5961444770833,46.0,87.0
1317,275.58104380833333,275.91996992916665,58.0,87.0
1318,275.58104380833333,275.9686276395833,61.0,92.0
1319,275.58104380833333,275.98876186458335,65.0,91.0
1320,276.18507055833334,276.3797014,58.0,87.0
1321,275.9837283083333,276.68507047916665,53.0,78.0
1322,275.7823860583333,276.7135939645833,46.0,87.0
1323,276.5877550583333,276.83775501875,61.0,92.0
1324,276.5877550583333,276.8494999833333,58.0,88.0
1325,276.5877550583333,276.8696342083333,65.0,97.0
1326,276.9904395583333,277.0944663875,46.0,85.0
1327,277.39312405833334,277.4786945145833,39.0,90.0
1328,277.39312405833334,277.5944663083333,58.0,85.0
1329,277.39312405833334,277.60621127291665,63.0,86.0
1330,277.39312405833334,277.69345958125,67.0,85.0
1331,278.1984930583333,278.5458084395833,67.0,92.0
1332,278.1984930583333,278.5659426645833,63.0,92.0
1333,278.1984930583333,278.56929836874997,58.0,88.0
1334,278.60117755833335,278.7169493520833,51.0,68.0
1335,278.80251980833333,278.98204998125,58.0,87.0
1336,278.80251980833333,278.9837278333333,63.0,89.0
1337,278.80251980833333,278.99715065,67.0,89.0
1338,279.0038620583333,279.1196338520833,51.0,75.0
1339,279.20520430833335,279.31426469375,58.0,87.0
1340,279.20520430833335,279.34111032708336,63.0,89.0
1341,279.20520430833335,279.41829152291666,68.0,86.0
1342,279.40654655833333,279.4937948666667,51.0,80.0
1343,279.6078888083333,279.81929817083335,58.0,87.0
1344,279.6078888083333,279.85621091666667,63.0,89.0
1345,279.6078888083333,279.87802299375,67.0,93.0
1346,280.01057330833333,280.1146001375,58.0,86.0
1347,280.2119155583333,280.50553967291665,63.0,100.0
1348,280.2119155583333,280.58943227708335,58.0,90.0
1349,279.80923105833335,280.6750027333333,51.0,84.0
1350,280.61460005833334,281.08607649375,68.0,85.0
1351,280.61460005833334,281.1280227958333,63.0,88.0
1352,281.4199690583333,281.64983479374996,68.0,89.0
1353,281.4199690583333,281.6783582791667,72.0,91.0
1354,281.4199690583333,281.7320495458333,63.0,90.0
1355,282.0239958083333,282.13976760208334,63.0,88.0
1356,282.0239958083333,282.1783582,72.0,88.0
1357,281.01728455833336,282.480371575,51.0,71.0
1358,282.4266803083333,282.5709755875,63.0,87.0
1359,282.4266803083333,282.64480107916665,68.0,87.0
1360,282.8293648083333,282.94345875,63.0,87.0
1361,283.0307070583333,283.0525191354167,73.0,74.0
1362,282.6280225583333,283.20184797083334,51.0,76.0
1363,280.61460005833334,283.21359293541667,44.0,87.0
1364,283.0307070583333,283.27063990625,63.0,92.0
1365,283.0307070583333,283.4283580020833,68.0,90.0
1366,283.4333915583333,283.5944653583333,63.0,86.0
1367,284.2387605583333,284.7723175208333,56.0,73.0
1368,284.6414450583333,284.90990139166666,61.0,87.0
1369,284.6414450583333,284.91157924375,68.0,86.0
1370,285.04412955833334,285.3478207854167,56.0,59.0
1371,285.2454718083333,285.3813778270833,65.0,84.0
1372,285.2454718083333,285.40822346041665,61.0,82.0
1373,285.2454718083333,285.42332412916664,68.0,82.0
1374,285.4468140583333,285.6045321541667,56.0,56.0
1375,285.64815630833334,285.9048676770833,61.0,86.0
1376,285.64815630833334,285.97030390833334,65.0,88.0
1377,285.64815630833334,285.98708242916666,68.0,85.0
1378,285.8494985583333,286.426679675,56.0,74.0
1379,286.25218305833334,286.43003537916667,61.0,87.0
1380,283.83607605833333,286.55251858124996,49.0,89.0
1381,286.25218305833334,286.61124340416666,65.0,92.0
1382,286.25218305833334,286.628021925,68.0,87.0
1383,286.6548675583333,286.748827275,61.0,85.0
1384,287.05755205833333,287.50721641666667,60.0,82.0
1385,287.05755205833333,287.5458070145833,56.0,81.0
1386,287.46023655833335,287.96359218333333,51.0,69.0
1387,287.8629210583333,288.09949820208334,60.0,87.0
1388,287.8629210583333,288.1397666520833,63.0,87.0
1389,287.8629210583333,288.14647806041665,56.0,86.0
1390,288.4669478083333,288.62466590416665,56.0,87.0
1391,288.4669478083333,288.62969946041665,63.0,87.0
1392,288.86963230833334,289.05922959375,56.0,86.0
1393,288.86963230833334,289.11795441666663,63.0,86.0
1394,289.0709745583333,289.30587385,60.0,73.0
1395,288.26560555833333,289.648155675,51.0,46.0
1396,289.47365905833334,289.70855835,56.0,88.0
1397,287.05755205833333,289.71694761041664,44.0,87.0
1398,289.47365905833334,289.7790281375,63.0,87.0
1399,289.8763435583333,290.09614218125,44.0,87.0
1400,290.2790280583333,290.47198104791664,58.0,73.0
1401,290.2790280583333,290.86459843541667,63.0,83.0
1402,290.6817125583333,290.93171251875,58.0,73.0
1403,291.0843970583333,291.31594064583334,58.0,87.0
1404,291.0843970583333,291.3511755395833,63.0,88.0
1405,291.0843970583333,291.35285339166666,67.0,88.0
1406,291.6884238083333,291.89479961458335,58.0,82.0
1407,291.6884238083333,291.89815531875,67.0,81.0
1408,292.09110830833333,292.38808812708334,63.0,80.0
1409,292.2924505583333,292.547484075,58.0,85.0
1410,290.2790280583333,292.6666115729166,51.0,91.0
1411,292.69513505833334,292.909900125,58.0,88.0
1412,292.69513505833334,293.37130944791664,63.0,91.0
1413,293.0978195583333,293.3746651520833,58.0,82.0
1414,293.5005040583333,293.97198049375,68.0,85.0
1415,293.5005040583333,294.0139267958333,63.0,88.0
1416,294.3058730583333,294.53573879375,68.0,89.0
1417,294.3058730583333,294.56426227916666,72.0,91.0
1418,294.3058730583333,294.6179535458333,63.0,90.0
1419,294.9098998083333,295.0256716020833,63.0,88.0
1420,294.9098998083333,295.0642622,72.0,88.0
1421,293.90318855833334,295.366275575,51.0,71.0
1422,295.3125843083333,295.4568795875,63.0,87.0
1423,295.3125843083333,295.53070507916664,68.0,87.0
1424,295.71526880833335,295.82936275,63.0,87.0
1425,295.91661105833333,295.93842313541666,73.0,74.0
1426,295.5139265583333,296.0877519708333,51.0,76.0
1427,293.5005040583333,296.09949693541665,44.0,87.0
1428,295.91661105833333,296.15654390625,63.0,92.0
1429,295.91661105833333,296.3142620020833,68.0,90.0
1430,296.31929555833335,296.4803693583333,63.0,86.0
1431,297.12466455833334,297.6582215208333,56.0,73.0
1432,297.52734905833336,297.79580539166665,61.0,87.0
1433,297.52734905833336,297.79748324375,68.0,86.0
1434,297.9300335583333,298.23372478541665,56.0,59.0
1435,298.1313758083333,298.2672818270833,65.0,84.0
1436,298.1313758083333,298.2941274604167,61.0,82.0
1437,298.1313758083333,298.3092281291666,68.0,82.0
1438,298.33271805833334,298.4904361541667,56.0,56.0
1439,298.5340603083333,298.79077167708334,61.0,86.0
1440,298.5340603083333,298.8562079083333,65.0,88.0
1441,298.5340603083333,298.87298642916664,68.0,85.0
1442,298.7354025583333,299.312583675,56.0,74.0
1443,299.1380870583333,299.31593937916665,61.0,87.0
1444,296.7219800583333,299.43842258125,49.0,89.0
1445,299.1380870583333,299.49714740416664,65.0,92.0
1446,299.1380870583333,299.51392592499997,68.0,87.0
1447,299.5407715583333,299.634731275,61.0,85.0
1448,299.9434560583333,300.39312041666665,60.0,82.0
1449,299.9434560583333,300.43171101458336,56.0,81.0
1450,300.34614055833333,300.8494961833333,51.0,69.0
1451,300.7488250583333,300.9854022020833,60.0,87.0
1452,300.7488250583333,301.0256706520833,63.0,87.0
1453,300.7488250583333,301.03238206041664,56.0,86.0
1454,301.3528518083333,301.5105699041667,56.0,87.0
1455,301.3528518083333,301.5156034604166,63.0,87.0
1456,301.7555363083333,301.94513359375,56.0,86.0
1457,301.7555363083333,302.0038584166667,63.0,86.0
1458,301.9568785583333,302.19177785,60.0,73.0
1459,301.1515095583333,302.534059675,51.0,46.0
1460,302.3595630583333,302.59446234999996,56.0,88.0
1461,299.9434560583333,302.6028516104167,44.0,87.0
1462,302.3595630583333,302.6649321375,63.0,87.0
1463,302.76224755833334,302.98204618125,44.0,87.0
1464,303.1649320583333,303.3578850479166,58.0,73.0
1465,303.1649320583333,303.75050243541665,63.0,83.0
1466,303.5676165583333,303.81761651875,58.0,73.0
1467,303.97030105833335,304.2018446458333,58.0,87.0
1468,303.97030105833335,304.2370795395833,63.0,88.0
1469,303.97030105833335,304.23875739166664,67.0,88.0
1470,304.57432780833335,304.78070361458333,58.0,82.0
1471,304.57432780833335,304.78405931875,67.0,81.0
1472,304.9770123083333,305.2739921270833,63.0,80.0
1473,305.17835455833335,305.433388075,58.0,85.0
1474,303.1649320583333,305.55251557291666,51.0,91.0
1475,305.5810390583333,305.795804125,58.0,88.0
1476,305.5810390583333,306.2572134479167,63.0,91.0
1477,305.98372355833334,306.26056915208335,58.0,82.0
1478,306.3864080583333,310.20352154791664,68.0,69.0
1479,306.3864080583333,310.21694436458336,44.0,70.0
1480,306.3864080583333,310.21694436458336,63.0,67.0
