,start,end,pitch,velocity
0,19.713333333333335,19.845000000000002,72.0,83.0
1,19.921666666666667,20.041666666666668,72.0,82.0
2,20.136666666666667,20.450000000000003,72.0,86.0
3,20.52166666666667,20.903333333333336,74.0,87.0
4,20.950000000000003,21.34,76.0,84.0
5,21.37166666666667,22.476666666666667,67.0,85.0
6,22.951666666666668,23.16166666666667,72.0,81.0
7,23.151666666666667,23.433333333333334,69.0,82.0
8,23.351666666666667,23.76,72.0,84.0
9,23.75166666666667,24.208333333333336,74.0,86.0
10,24.151666666666667,24.388333333333335,77.0,83.0
11,24.351666666666667,25.686666666666667,76.0,82.0
12,26.151666666666667,26.28166666666667,72.0,82.0
13,26.35166666666667,26.471666666666668,72.0,82.0
14,26.55166666666667,26.89166666666667,72.0,86.0
15,26.951666666666668,27.291666666666668,74.0,87.0
16,27.35166666666667,27.701666666666668,76.0,83.0
17,27.75166666666667,27.878333333333334,67.0,81.0
18,27.951666666666668,28.078333333333337,67.0,78.0
19,28.151666666666667,28.450000000000003,69.0,81.0
20,28.55166666666667,28.75166666666667,72.0,85.0
21,28.75166666666667,28.951666666666668,72.0,85.0
22,28.951666666666668,29.35166666666667,72.0,85.0
23,29.35166666666667,30.55166666666667,74.0,85.0
24,30.55166666666667,30.96,77.0,81.0
25,30.951666666666668,32.093333333333334,76.0,83.0
26,32.525,32.655,79.0,83.0
27,32.74166666666667,32.85666666666667,79.0,83.0
28,32.95166666666667,33.21666666666667,79.0,84.0
29,33.295,33.44833333333334,79.0,83.0
30,33.55166666666667,33.95166666666667,79.0,84.0
31,33.95166666666667,34.06333333333333,71.0,69.0
32,34.15166666666667,34.28333333333334,71.0,85.0
33,34.35166666666667,34.74333333333333,71.0,83.0
34,35.735,35.86166666666667,72.0,83.0
35,35.943333333333335,36.053333333333335,72.0,84.0
36,36.155,36.50166666666667,72.0,88.0
37,36.53666666666667,36.945,74.0,90.0
38,36.965,37.36333333333334,77.0,83.0
39,37.335,37.693333333333335,76.0,86.0
40,37.766666666666666,38.51166666666667,76.0,85.0
41,38.93833333333333,39.053333333333335,72.0,80.0
42,39.14333333333334,39.25666666666667,72.0,83.0
43,39.34666666666667,39.67166666666667,72.0,90.0
44,39.720000000000006,39.99,79.0,84.0
45,40.13666666666667,40.465,79.0,82.0
46,40.57,40.86166666666667,67.0,81.0
47,40.955000000000005,41.10666666666667,76.0,82.0
48,41.205000000000005,41.315000000000005,79.0,81.0
49,41.400000000000006,41.65166666666667,79.0,82.0
50,41.656666666666666,41.90833333333334,67.0,83.0
51,41.96333333333334,42.13333333333333,72.0,82.0
52,42.22166666666667,42.36166666666667,72.0,81.0
53,42.45666666666667,43.93666666666667,72.0,80.0
54,45.31333333333334,45.445,72.0,83.0
55,45.52166666666667,45.64166666666667,72.0,82.0
56,45.73666666666667,46.050000000000004,72.0,86.0
57,46.12166666666667,46.50333333333334,74.0,87.0
58,46.550000000000004,46.940000000000005,76.0,84.0
59,46.97166666666667,48.07666666666667,67.0,85.0
60,48.55166666666667,48.76166666666667,72.0,81.0
61,48.75166666666667,49.03333333333334,69.0,82.0
62,48.95166666666667,49.36000000000001,72.0,84.0
63,49.35166666666667,49.80833333333334,74.0,86.0
64,49.75166666666667,49.98833333333334,77.0,83.0
65,49.95166666666667,51.28666666666667,76.0,82.0
66,51.75166666666667,51.88166666666667,72.0,82.0
67,51.95166666666667,52.07166666666667,72.0,82.0
68,52.15166666666667,52.49166666666667,72.0,86.0
69,52.55166666666667,52.89166666666667,74.0,87.0
70,52.95166666666667,53.30166666666667,76.0,83.0
71,53.35166666666667,53.47833333333334,67.0,81.0
72,53.55166666666667,53.678333333333335,67.0,78.0
73,53.75166666666667,54.050000000000004,69.0,81.0
74,54.15166666666667,54.351666666666674,72.0,85.0
75,54.351666666666674,54.55166666666667,72.0,85.0
76,54.55166666666667,54.95166666666667,72.0,85.0
77,54.95166666666667,56.15166666666667,74.0,85.0
78,56.15166666666667,56.56,77.0,81.0
79,56.55166666666667,57.693333333333335,76.0,83.0
80,58.12500000000001,58.255,79.0,83.0
81,58.34166666666667,58.45666666666667,79.0,83.0
82,58.55166666666667,58.81666666666667,79.0,84.0
83,58.895,59.04833333333334,79.0,83.0
84,59.15166666666667,59.55166666666667,79.0,84.0
85,59.55166666666667,59.663333333333334,71.0,69.0
86,59.75166666666667,59.88333333333334,71.0,85.0
87,59.95166666666667,60.15166666666667,71.0,83.0
88,60.15166666666667,60.75166666666667,71.0,83.0
89,61.335,61.46166666666667,72.0,83.0
90,61.54333333333334,61.653333333333336,72.0,84.0
91,61.755,62.101666666666674,72.0,88.0
92,62.13666666666667,62.545,74.0,90.0
93,62.565000000000005,62.96333333333334,77.0,83.0
94,62.935,63.29333333333334,76.0,86.0
95,63.366666666666674,64.11166666666666,79.0,85.0
96,64.53833333333334,64.65333333333334,72.0,80.0
97,64.74333333333334,64.85666666666667,72.0,83.0
98,64.94666666666667,65.27166666666668,72.0,90.0
99,65.32166666666667,65.52000000000001,74.0,88.0
100,65.55,66.10833333333333,77.0,83.0
101,66.12333333333333,66.23666666666666,76.0,83.0
102,66.32166666666667,66.46833333333333,76.0,82.0
103,66.555,66.96666666666667,76.0,83.0
104,66.94166666666668,67.50833333333334,74.0,90.0
105,67.71666666666667,68.03,76.0,85.0
106,68.10166666666667,68.765,77.0,82.0
107,68.88000000000001,70.22500000000001,79.0,80.0
108,70.555,70.775,84.0,88.0
109,70.77000000000001,71.08500000000001,81.0,83.0
110,71.11666666666667,71.25166666666667,84.0,82.0
111,71.33666666666667,71.67,84.0,85.0
112,71.745,71.86833333333334,84.0,83.0
113,71.93833333333333,72.05833333333334,81.0,83.0
114,72.14166666666667,72.45333333333333,84.0,84.0
115,72.55166666666668,72.88666666666667,84.0,87.0
116,72.95,73.49666666666667,88.0,86.0
117,73.565,73.68666666666667,83.0,82.0
118,73.78500000000001,73.9,83.0,81.0
119,73.97666666666667,74.08666666666667,83.0,82.0
120,74.17833333333334,74.28333333333333,83.0,82.0
121,74.37666666666667,74.84166666666667,83.0,85.0
122,74.83,74.94333333333334,81.0,80.0
123,75.02333333333334,75.14333333333335,83.0,90.0
124,75.20166666666667,75.325,81.0,82.0
125,75.41000000000001,75.55666666666667,83.0,88.0
126,75.60833333333333,76.02000000000001,84.0,87.0
127,76.03333333333333,76.41166666666668,81.0,83.0
128,76.39666666666668,76.49666666666667,84.0,98.0
129,76.59166666666667,76.71000000000001,84.0,85.0
130,76.76666666666667,76.89333333333335,81.0,82.0
131,76.98166666666667,77.25666666666667,84.0,95.0
132,77.36166666666666,77.51,84.0,86.0
133,77.53833333333334,77.64833333333334,81.0,82.0
134,77.74333333333334,78.045,84.0,97.0
135,78.155,78.29666666666667,84.0,85.0
136,78.32833333333333,78.43333333333334,84.0,81.0
137,78.52000000000001,78.89666666666668,88.0,95.0
138,78.95666666666668,79.2,88.0,85.0
139,79.17333333333333,79.98333333333333,79.0,86.0
140,80.13833333333334,80.45,83.0,86.0
141,80.55833333333334,80.85666666666667,83.0,84.0
142,80.97,81.27000000000001,83.0,85.0
143,81.375,81.67500000000001,83.0,87.0
144,81.76,82.69833333333334,84.0,88.0
145,83.15166666666667,83.35166666666667,84.0,82.0
146,83.355,83.575,84.0,88.0
147,83.57000000000001,83.885,81.0,83.0
148,83.91666666666667,84.05166666666668,84.0,82.0
149,84.13666666666667,84.33666666666667,84.0,85.0
150,84.545,84.66833333333334,84.0,83.0
151,84.73833333333334,84.85833333333333,81.0,83.0
152,84.94166666666668,85.14166666666667,84.0,84.0
153,85.14166666666667,85.34166666666667,84.0,84.0
154,85.35166666666667,85.68666666666667,84.0,87.0
155,85.75,86.29666666666667,88.0,86.0
156,86.36500000000001,86.48666666666668,88.0,82.0
157,86.58500000000001,86.7,86.0,81.0
158,86.77666666666667,86.88666666666667,86.0,82.0
159,86.97833333333334,87.08333333333334,86.0,82.0
160,87.17666666666668,87.57666666666667,86.0,85.0
161,87.62166666666667,88.00166666666668,86.0,87.0
162,88.00666666666667,88.17333333333333,84.0,81.0
163,88.20333333333333,88.49666666666667,88.0,92.0
164,88.59166666666667,88.88000000000001,88.0,82.0
165,89.01166666666667,89.25666666666667,88.0,85.0
166,89.2,89.48166666666667,81.0,82.0
167,89.58833333333334,89.70333333333333,81.0,86.0
168,89.77833333333334,89.93,84.0,87.0
169,89.94666666666667,90.08166666666668,81.0,81.0
170,90.15666666666667,90.31166666666667,84.0,87.0
171,90.33833333333334,90.47,84.0,82.0
172,90.55833333333334,90.93166666666667,84.0,95.0
173,90.83166666666668,91.17666666666668,86.0,85.0
174,91.17666666666668,91.35000000000001,84.0,85.0
175,91.44500000000001,92.23666666666668,84.0,85.0
176,92.74833333333333,92.89833333333334,79.0,82.0
177,92.96333333333334,93.06833333333334,86.0,82.0
178,93.155,93.25,86.0,83.0
179,93.34333333333333,93.44333333333334,86.0,83.0
180,93.53166666666667,93.63166666666667,86.0,83.0
181,93.745,94.07166666666667,86.0,87.0
182,94.14500000000001,94.7,88.0,87.0
183,94.92833333333334,95.06500000000001,88.0,82.0
184,95.15,95.50500000000001,88.0,84.0
185,95.54666666666667,95.79,79.0,80.0
186,95.80166666666668,96.17666666666668,81.0,80.0
187,96.17833333333334,98.36833333333334,84.0,84.0
188,109.15166666666667,109.43333333333334,84.0,80.0
189,109.35166666666667,109.60000000000001,79.0,83.0
190,109.55166666666668,109.84500000000001,81.0,82.0
191,109.95166666666667,110.07166666666667,81.0,81.0
192,110.15166666666667,110.325,81.0,83.0
193,110.35166666666667,110.49166666666667,79.0,81.0
194,110.55166666666668,110.83500000000001,81.0,88.0
195,110.94500000000001,111.06,81.0,82.0
196,111.12833333333334,111.28500000000001,81.0,81.0
197,111.33666666666667,111.67500000000001,79.0,85.0
198,111.72166666666668,111.92166666666667,81.0,82.0
199,111.92166666666667,112.12166666666667,81.0,82.0
200,112.12166666666667,112.52166666666668,81.0,82.0
201,112.74333333333334,113.29666666666667,79.0,82.0
202,113.35666666666667,113.64500000000001,76.0,83.0
203,113.75166666666668,114.57000000000001,76.0,84.0
204,115.51666666666668,115.69500000000001,79.0,78.0
205,115.72500000000001,115.9,72.0,82.0
206,115.94833333333334,116.28666666666668,74.0,82.0
207,116.36000000000001,116.47666666666667,74.0,81.0
208,116.555,116.66333333333334,74.0,81.0
209,116.74666666666667,116.88833333333334,74.0,84.0
210,116.94500000000001,117.215,79.0,84.0
211,117.32666666666667,117.44000000000001,79.0,82.0
212,117.52666666666667,117.64,79.0,81.0
213,117.72833333333334,118.05833333333334,79.0,87.0
214,118.54666666666668,118.65666666666668,79.0,77.0
215,118.73500000000001,118.85166666666667,79.0,75.0
216,118.92833333333334,119.03666666666668,79.0,76.0
217,119.11000000000001,119.22000000000001,79.0,81.0
218,119.32833333333335,119.63166666666667,79.0,82.0
219,119.73666666666668,119.99833333333333,81.0,82.0
220,120.11666666666667,120.88833333333334,83.0,82.0
221,120.935,121.64333333333335,84.0,85.0
222,121.75500000000001,121.97500000000001,84.0,88.0
223,121.97000000000001,122.28500000000001,81.0,83.0
224,122.31666666666668,122.45166666666667,84.0,82.0
225,122.53666666666668,122.87,84.0,85.0
226,122.94500000000001,123.06833333333334,84.0,83.0
227,123.13833333333334,123.25833333333334,81.0,83.0
228,123.34166666666667,123.65333333333334,84.0,84.0
229,123.75166666666668,124.08666666666667,84.0,87.0
230,124.15,124.69666666666667,88.0,86.0
231,124.76500000000001,124.88666666666667,83.0,82.0
232,124.98500000000001,125.10000000000001,83.0,81.0
233,125.17666666666668,125.28666666666668,83.0,82.0
234,125.37833333333334,125.48333333333335,83.0,82.0
235,125.57666666666667,126.04166666666667,83.0,85.0
236,126.03,126.14333333333335,81.0,80.0
237,126.22333333333334,126.34333333333335,83.0,90.0
238,126.40166666666667,126.525,81.0,82.0
239,126.61000000000001,126.75666666666667,83.0,88.0
240,126.80833333333334,127.22000000000001,84.0,87.0
241,127.23333333333335,127.61166666666668,81.0,83.0
242,127.59666666666668,127.69666666666667,84.0,98.0
243,127.79166666666667,127.91000000000001,84.0,85.0
244,127.96666666666667,128.09333333333333,81.0,82.0
245,128.18166666666667,128.45666666666668,84.0,95.0
246,128.56166666666667,128.71,84.0,86.0
247,128.73833333333334,128.84833333333333,81.0,82.0
248,128.94333333333333,129.245,84.0,97.0
249,129.35500000000002,129.49666666666667,84.0,85.0
250,129.52833333333334,129.63333333333335,84.0,81.0
251,129.72,130.09666666666666,88.0,95.0
252,130.15666666666667,130.4,88.0,85.0
253,130.37333333333333,131.18333333333334,79.0,86.0
254,131.33833333333334,131.65,83.0,86.0
255,131.75833333333335,132.05666666666667,83.0,84.0
256,132.17000000000002,132.47,83.0,85.0
257,132.57500000000002,132.875,83.0,87.0
258,132.96,133.89833333333334,84.0,88.0
259,134.3516666666667,134.55166666666668,84.0,82.0
260,134.555,134.775,84.0,88.0
261,134.77,135.085,81.0,83.0
262,135.11666666666667,135.25166666666667,84.0,82.0
263,135.33666666666667,135.53666666666666,84.0,85.0
264,135.745,135.86833333333334,84.0,83.0
265,135.93833333333333,136.05833333333334,81.0,83.0
266,136.14166666666668,136.34166666666667,84.0,84.0
267,136.34166666666667,136.54166666666669,84.0,84.0
268,136.55166666666668,136.88666666666668,84.0,87.0
269,136.95000000000002,137.49666666666667,88.0,86.0
270,137.565,137.68666666666667,88.0,82.0
271,137.785,137.9,86.0,81.0
272,137.9766666666667,138.08666666666667,86.0,82.0
273,138.17833333333334,138.28333333333333,86.0,82.0
274,138.37666666666667,138.77666666666667,86.0,85.0
275,138.8216666666667,139.20166666666668,86.0,87.0
276,139.20666666666668,139.37333333333333,84.0,81.0
277,139.40333333333334,139.6966666666667,88.0,92.0
278,139.79166666666669,140.08,88.0,82.0
279,140.21166666666667,140.45666666666668,88.0,85.0
280,140.4,140.68166666666667,81.0,82.0
281,140.78833333333336,140.90333333333334,81.0,86.0
282,140.97833333333335,141.13,84.0,87.0
283,141.14666666666668,141.28166666666667,81.0,81.0
284,141.35666666666668,141.51166666666668,84.0,87.0
285,141.53833333333336,141.67000000000002,84.0,82.0
286,141.75166666666667,141.95166666666668,88.0,95.0
287,142.03166666666667,142.37666666666667,88.0,85.0
288,142.55166666666668,142.95166666666668,88.0,85.0
289,142.95166666666668,143.55166666666668,88.0,85.0
290,143.95166666666668,144.10333333333335,88.0,82.0
291,144.15166666666667,144.2566666666667,87.0,82.0
292,144.35500000000002,144.45000000000002,87.0,83.0
293,144.54333333333335,144.64333333333335,87.0,83.0
294,144.73166666666668,144.83166666666668,87.0,83.0
295,144.94500000000002,145.27166666666668,87.0,87.0
296,145.345,145.9,91.0,87.0
297,146.12833333333333,146.26500000000001,88.0,82.0
298,146.35000000000002,146.705,88.0,84.0
299,146.74666666666667,146.99,79.0,80.0
300,147.00166666666667,147.37666666666667,81.0,80.0
301,147.37833333333333,149.56833333333336,84.0,84.0
302,154.15666666666667,154.31833333333336,72.0,74.0
303,154.39166666666668,154.53333333333333,72.0,79.0
304,154.6316666666667,155.09333333333333,72.0,82.0
305,155.04833333333335,155.54500000000002,74.0,86.0
306,155.51333333333335,156.03333333333333,76.0,77.0
307,155.96333333333334,157.36666666666667,67.0,77.0
308,157.65833333333333,157.86333333333334,72.0,77.0
309,157.85833333333335,158.1616666666667,69.0,74.0
310,158.10833333333335,158.57833333333335,72.0,83.0
311,158.5366666666667,159.02666666666667,74.0,83.0
312,158.98000000000002,159.315,77.0,77.0
313,159.26166666666668,160.77333333333334,76.0,79.0
314,161.23333333333335,161.41666666666669,72.0,80.0
315,161.49,161.63000000000002,72.0,81.0
316,161.74,162.15666666666667,72.0,81.0
317,162.16,162.47333333333336,79.0,78.0
318,162.59833333333336,163.02666666666667,79.0,77.0
319,163.0,163.74833333333333,67.0,79.0
320,164.16500000000002,164.425,76.0,84.0
321,164.45666666666668,164.63833333333335,79.0,77.0
322,164.7266666666667,165.09333333333333,79.0,75.0
323,165.16500000000002,165.58333333333334,67.0,73.0
324,165.66666666666669,165.97833333333335,71.0,78.0
325,165.95333333333335,166.12,72.0,77.0
326,166.20000000000002,167.70333333333335,72.0,79.0
