,start,end,pitch,velocity
0,6.551666666666667,6.765000000000001,55.0,75.0
1,6.551666666666667,7.028333333333334,67.0,71.0
2,6.551666666666667,7.123333333333334,62.0,72.0
3,6.951666666666667,7.213333333333334,55.0,71.0
4,7.3516666666666675,7.53,55.0,79.0
5,7.3516666666666675,7.78,67.0,77.0
6,7.3516666666666675,7.9750000000000005,62.0,75.0
7,7.751666666666667,7.996666666666667,55.0,68.0
8,8.151666666666667,8.336666666666668,55.0,79.0
9,8.151666666666667,8.703333333333333,60.0,77.0
10,8.551666666666668,8.875,55.0,69.0
11,8.951666666666668,9.021666666666667,55.0,53.0
12,8.951666666666668,9.438333333333334,60.0,77.0
13,9.351666666666667,9.635,55.0,76.0
14,6.551666666666667,9.726666666666667,48.0,82.0
15,9.751666666666667,9.916666666666668,55.0,75.0
16,9.751666666666667,10.351666666666667,59.0,77.0
17,8.951666666666668,10.360000000000001,67.0,76.0
18,10.151666666666667,10.396666666666667,55.0,69.0
19,10.551666666666668,11.116666666666667,59.0,77.0
20,10.951666666666668,11.275,55.0,68.0
21,9.751666666666667,11.351666666666667,48.0,82.0
22,11.351666666666667,11.921666666666667,60.0,77.0
23,10.551666666666668,11.950000000000001,67.0,77.0
24,11.751666666666667,12.151666666666667,55.0,77.0
25,12.151666666666667,12.313333333333334,55.0,82.0
26,12.151666666666667,12.870000000000001,60.0,84.0
27,12.551666666666668,12.88,55.0,82.0
28,12.151666666666667,12.888333333333334,67.0,81.0
29,11.351666666666667,12.893333333333334,48.0,82.0
30,12.951666666666668,13.023333333333333,60.0,70.0
31,12.951666666666668,13.253333333333334,55.0,79.0
32,12.951666666666668,13.506666666666668,62.0,79.0
33,12.951666666666668,13.521666666666668,67.0,76.0
34,13.351666666666668,13.821666666666667,55.0,66.0
35,13.751666666666667,14.206666666666667,62.0,80.0
36,13.751666666666667,14.215000000000002,60.0,75.0
37,13.751666666666667,14.340000000000002,67.0,77.0
38,14.151666666666667,14.413333333333334,55.0,75.0
39,14.551666666666668,14.748333333333335,55.0,77.0
40,14.551666666666668,15.006666666666668,67.0,73.0
41,14.551666666666668,15.083333333333334,60.0,78.0
42,14.951666666666668,15.176666666666668,55.0,70.0
43,15.351666666666668,15.526666666666667,55.0,82.0
44,15.351666666666668,15.815000000000001,60.0,82.0
45,13.351666666666668,15.986666666666668,48.0,73.0
46,12.951666666666668,16.006666666666668,41.0,82.0
47,15.751666666666667,16.03,55.0,81.0
48,16.151666666666667,16.326666666666668,55.0,76.0
49,16.55166666666667,16.775000000000002,55.0,69.0
50,16.151666666666667,16.790000000000003,59.0,76.0
51,15.351666666666668,16.831666666666667,67.0,80.0
52,16.951666666666668,17.101666666666667,55.0,73.0
53,16.951666666666668,17.541666666666668,59.0,76.0
54,17.351666666666667,17.67,55.0,75.0
55,16.951666666666668,17.713333333333335,67.0,69.0
56,16.151666666666667,17.75166666666667,43.0,81.0
57,17.75166666666667,18.393333333333334,67.0,54.0
58,18.151666666666667,18.42,55.0,72.0
59,17.75166666666667,18.55166666666667,60.0,73.0
60,17.75166666666667,18.55166666666667,64.0,69.0
61,18.55166666666667,18.746666666666666,55.0,82.0
62,18.55166666666667,19.241666666666667,60.0,81.0
63,18.55166666666667,19.248333333333335,67.0,67.0
64,18.951666666666668,19.276666666666667,55.0,80.0
65,17.75166666666667,19.30666666666667,43.0,81.0
66,19.351666666666667,19.565,55.0,78.0
67,19.351666666666667,19.901666666666667,62.0,78.0
68,19.75166666666667,19.953333333333333,55.0,71.0
69,20.151666666666667,20.293333333333333,55.0,82.0
70,20.151666666666667,20.643333333333334,62.0,81.0
71,20.55166666666667,20.84,55.0,77.0
72,20.951666666666668,21.116666666666667,55.0,83.0
73,20.951666666666668,21.451666666666668,60.0,80.0
74,21.351666666666667,21.873333333333335,55.0,71.0
75,19.351666666666667,22.138333333333335,48.0,85.0
76,21.75166666666667,22.19666666666667,60.0,83.0
77,22.151666666666667,22.293333333333333,55.0,81.0
78,22.55166666666667,23.198333333333334,60.0,81.0
79,22.55166666666667,23.200000000000003,57.0,76.0
80,22.951666666666668,23.523333333333333,52.0,67.0
81,23.351666666666667,23.80166666666667,60.0,82.0
82,23.351666666666667,23.901666666666667,57.0,81.0
83,23.75166666666667,24.351666666666667,52.0,56.0
84,24.151666666666667,24.360000000000003,57.0,74.0
85,24.55166666666667,24.818333333333335,57.0,77.0
86,22.55166666666667,24.826666666666668,45.0,83.0
87,24.151666666666667,24.830000000000002,60.0,75.0
88,24.951666666666668,25.14666666666667,55.0,81.0
89,24.951666666666668,25.385,59.0,80.0
90,24.951666666666668,25.458333333333336,43.0,81.0
91,25.351666666666667,25.49666666666667,55.0,78.0
92,25.75166666666667,26.14,60.0,76.0
93,25.75166666666667,26.235000000000003,53.0,75.0
94,26.55166666666667,26.775000000000002,57.0,81.0
95,26.55166666666667,26.958333333333336,60.0,81.0
96,26.951666666666668,27.40666666666667,53.0,74.0
97,27.35166666666667,27.835,57.0,75.0
98,27.35166666666667,27.868333333333336,62.0,76.0
99,27.75166666666667,28.221666666666668,53.0,80.0
100,28.151666666666667,28.611666666666668,57.0,80.0
101,28.151666666666667,28.618333333333336,60.0,84.0
102,25.75166666666667,28.69166666666667,41.0,82.0
103,28.55166666666667,28.725,53.0,82.0
104,26.151666666666667,28.76,48.0,69.0
105,28.951666666666668,29.436666666666667,55.0,76.0
106,28.951666666666668,29.53,60.0,80.0
107,29.35166666666667,29.916666666666668,50.0,72.0
108,29.75166666666667,30.373333333333335,55.0,81.0
109,28.951666666666668,30.39666666666667,43.0,82.0
110,30.151666666666667,30.498333333333335,50.0,79.0
111,29.75166666666667,30.500000000000004,60.0,82.0
112,30.55166666666667,31.005000000000003,59.0,76.0
113,30.55166666666667,31.148333333333337,55.0,76.0
114,30.951666666666668,31.76,50.0,71.0
115,31.35166666666667,31.78666666666667,59.0,78.0
116,30.55166666666667,31.830000000000002,43.0,81.0
117,31.35166666666667,31.85166666666667,62.0,77.0
118,31.75166666666667,32.2,55.0,84.0
119,32.15166666666667,32.2,55.0,70.0
120,32.15166666666667,32.61833333333333,60.0,83.0
121,32.15166666666667,32.655,62.0,82.0
122,32.55166666666667,32.83166666666667,55.0,72.0
123,32.95166666666667,33.14833333333333,55.0,85.0
124,32.95166666666667,33.43333333333334,62.0,85.0
125,32.15166666666667,33.63166666666667,48.0,83.0
126,33.35166666666667,33.67333333333333,55.0,82.0
127,33.75166666666667,34.23666666666667,59.0,77.0
128,33.75166666666667,34.25333333333334,62.0,81.0
129,34.15166666666667,34.321666666666665,55.0,76.0
130,34.55166666666667,34.730000000000004,55.0,83.0
131,33.75166666666667,34.775000000000006,43.0,81.0
132,34.55166666666667,34.873333333333335,59.0,84.0
133,34.55166666666667,35.02666666666667,62.0,82.0
134,34.95166666666667,35.22833333333334,43.0,83.0
135,35.35166666666667,35.72,57.0,76.0
136,35.35166666666667,35.775000000000006,60.0,80.0
137,36.15166666666667,36.31333333333333,57.0,79.0
138,36.15166666666667,36.56333333333333,60.0,83.0
139,35.35166666666667,36.74666666666667,45.0,83.0
140,36.55166666666667,36.835,57.0,81.0
141,35.75166666666667,36.88,52.0,75.0
142,36.15166666666667,36.92666666666667,64.0,84.0
143,36.95166666666667,37.36,62.0,79.0
144,36.95166666666667,37.385000000000005,55.0,77.0
145,36.95166666666667,37.39,59.0,72.0
146,37.35166666666667,37.94833333333334,50.0,66.0
147,36.95166666666667,37.998333333333335,43.0,81.0
148,37.75166666666667,38.190000000000005,59.0,86.0
149,37.75166666666667,38.225,55.0,83.0
150,38.15166666666667,38.483333333333334,43.0,86.0
151,37.75166666666667,38.54,62.0,85.0
152,38.55166666666667,38.935,57.0,75.0
153,38.55166666666667,38.94166666666667,60.0,77.0
154,38.55166666666667,38.99666666666667,53.0,74.0
155,39.35166666666667,39.385000000000005,53.0,62.0
156,39.35166666666667,39.598333333333336,57.0,82.0
157,39.35166666666667,39.82333333333334,60.0,84.0
158,38.55166666666667,40.06,41.0,83.0
159,38.95166666666667,40.093333333333334,48.0,65.0
160,40.15166666666667,40.615,57.0,70.0
161,40.15166666666667,40.653333333333336,60.0,73.0
162,39.75166666666667,40.66666666666667,53.0,83.0
163,40.95166666666667,41.155,53.0,82.0
164,40.55166666666667,41.16666666666667,48.0,61.0
165,40.15166666666667,41.19833333333334,41.0,77.0
166,40.95166666666667,41.230000000000004,57.0,83.0
167,40.95166666666667,41.300000000000004,60.0,83.0
168,41.35166666666667,41.531666666666666,41.0,83.0
169,41.75166666666667,42.005,55.0,75.0
170,41.75166666666667,42.38333333333333,62.0,80.0
171,42.15166666666667,42.403333333333336,55.0,83.0
172,42.55166666666667,42.690000000000005,55.0,82.0
173,42.55166666666667,42.913333333333334,60.0,83.0
174,42.95166666666667,43.223333333333336,55.0,82.0
175,43.35166666666667,43.50333333333334,55.0,77.0
176,43.35166666666667,43.85666666666667,59.0,76.0
177,43.75166666666667,44.20666666666667,55.0,73.0
178,44.55166666666667,44.90166666666667,55.0,84.0
179,44.15166666666667,44.91833333333334,60.0,88.0
180,41.75166666666667,44.94833333333334,48.0,83.0
181,44.95166666666667,45.165000000000006,55.0,78.0
182,44.95166666666667,45.50166666666667,62.0,78.0
183,45.35166666666667,45.553333333333335,55.0,71.0
184,45.75166666666667,45.89333333333334,55.0,82.0
185,45.75166666666667,46.24333333333334,62.0,81.0
186,46.15166666666667,46.440000000000005,55.0,77.0
187,46.55166666666667,46.71666666666667,55.0,83.0
188,46.55166666666667,47.05166666666667,60.0,80.0
189,46.95166666666667,47.473333333333336,55.0,71.0
190,44.95166666666667,47.73833333333334,48.0,85.0
191,47.35166666666667,47.79666666666667,60.0,83.0
192,47.75166666666667,47.89333333333334,55.0,81.0
193,48.15166666666667,48.79833333333334,60.0,81.0
194,48.15166666666667,48.800000000000004,57.0,76.0
195,48.55166666666667,49.123333333333335,52.0,67.0
196,48.95166666666667,49.40166666666667,60.0,82.0
197,48.95166666666667,49.50166666666667,57.0,81.0
198,49.35166666666667,49.95166666666667,52.0,56.0
199,49.75166666666667,49.96,57.0,74.0
200,50.15166666666667,50.41833333333334,57.0,77.0
201,48.15166666666667,50.42666666666667,45.0,83.0
202,49.75166666666667,50.43,60.0,75.0
203,50.55166666666667,50.74666666666667,55.0,81.0
204,50.55166666666667,50.98500000000001,59.0,80.0
205,50.55166666666667,51.05833333333334,43.0,81.0
206,50.95166666666667,51.09666666666667,55.0,78.0
207,51.35166666666667,51.74,60.0,76.0
208,51.35166666666667,51.835,53.0,75.0
209,52.15166666666667,52.375,57.0,81.0
210,52.15166666666667,52.55833333333334,60.0,81.0
211,52.55166666666667,53.00666666666667,53.0,74.0
212,52.95166666666667,53.435,57.0,75.0
213,52.95166666666667,53.468333333333334,62.0,76.0
214,53.35166666666667,53.82166666666667,53.0,80.0
215,53.75166666666667,54.21166666666667,57.0,80.0
216,53.75166666666667,54.218333333333334,60.0,84.0
217,51.35166666666667,54.29166666666667,41.0,82.0
218,54.15166666666667,54.325,53.0,82.0
219,51.75166666666667,54.36000000000001,48.0,69.0
220,54.55166666666667,55.03666666666667,55.0,76.0
221,54.55166666666667,55.13,60.0,80.0
222,54.95166666666667,55.51666666666667,50.0,72.0
223,55.351666666666674,55.973333333333336,55.0,81.0
224,54.55166666666667,55.99666666666667,43.0,82.0
225,55.75166666666667,56.098333333333336,50.0,79.0
226,55.351666666666674,56.1,60.0,82.0
227,56.15166666666667,56.605000000000004,59.0,76.0
228,56.15166666666667,56.748333333333335,55.0,76.0
229,56.55166666666667,57.36000000000001,50.0,71.0
230,56.95166666666667,57.38666666666667,59.0,78.0
231,56.15166666666667,57.43000000000001,43.0,81.0
232,56.95166666666667,57.45166666666667,62.0,77.0
233,57.351666666666674,57.800000000000004,55.0,84.0
234,57.75166666666667,57.800000000000004,55.0,70.0
235,57.75166666666667,58.218333333333334,60.0,83.0
236,57.75166666666667,58.255,62.0,82.0
237,58.15166666666667,58.43166666666667,55.0,72.0
238,58.55166666666667,58.748333333333335,55.0,85.0
239,58.55166666666667,59.03333333333334,62.0,85.0
240,57.75166666666667,59.23166666666667,48.0,83.0
241,58.95166666666667,59.27333333333334,55.0,82.0
242,59.351666666666674,59.83666666666667,59.0,77.0
243,59.351666666666674,59.85333333333334,62.0,81.0
244,59.75166666666667,59.921666666666674,55.0,76.0
245,60.15166666666667,60.330000000000005,55.0,83.0
246,59.351666666666674,60.37500000000001,43.0,81.0
247,60.15166666666667,60.473333333333336,59.0,84.0
248,60.15166666666667,60.62666666666667,62.0,82.0
249,60.55166666666667,60.82833333333334,43.0,83.0
250,60.95166666666667,61.32000000000001,57.0,76.0
251,60.95166666666667,61.37500000000001,60.0,80.0
252,61.75166666666667,61.913333333333334,57.0,79.0
253,61.75166666666667,62.163333333333334,60.0,83.0
254,60.95166666666667,62.34666666666667,45.0,83.0
255,62.15166666666667,62.435,57.0,81.0
256,61.351666666666674,62.480000000000004,52.0,75.0
257,61.75166666666667,62.52666666666667,64.0,84.0
258,62.55166666666667,62.96,62.0,79.0
259,62.55166666666667,62.98500000000001,55.0,77.0
260,62.55166666666667,62.99,59.0,72.0
261,62.95166666666667,63.54833333333334,50.0,66.0
262,62.55166666666667,63.598333333333336,43.0,81.0
263,63.351666666666674,63.790000000000006,59.0,86.0
264,63.351666666666674,63.825,55.0,83.0
265,63.75166666666667,64.08333333333334,43.0,86.0
266,63.351666666666674,64.14,62.0,85.0
267,64.15166666666667,64.53500000000001,57.0,75.0
268,64.15166666666667,64.54166666666667,60.0,77.0
269,64.15166666666667,64.59666666666666,53.0,74.0
270,64.95166666666667,64.985,53.0,62.0
271,64.95166666666667,65.19833333333334,57.0,82.0
272,64.95166666666667,65.42333333333333,60.0,84.0
273,64.15166666666667,65.66000000000001,41.0,83.0
274,64.55166666666668,65.69333333333334,48.0,65.0
275,65.75166666666667,66.215,57.0,70.0
276,65.75166666666667,66.25333333333334,60.0,73.0
277,65.35166666666667,66.26666666666667,53.0,83.0
278,66.55166666666668,66.75500000000001,53.0,82.0
279,66.15166666666667,66.76666666666667,48.0,61.0
280,65.75166666666667,66.79833333333333,41.0,77.0
281,66.55166666666668,66.83,57.0,83.0
282,66.55166666666668,66.9,60.0,83.0
283,66.95166666666667,67.13166666666667,41.0,83.0
284,67.35166666666667,67.89666666666668,60.0,77.0
285,67.35166666666667,67.96333333333334,53.0,78.0
286,67.75166666666667,68.30833333333334,48.0,77.0
287,67.35166666666667,68.35666666666667,41.0,78.0
288,68.15166666666667,68.36666666666667,53.0,82.0
289,68.15166666666667,68.43,57.0,82.0
290,68.15166666666667,68.49166666666667,60.0,83.0
291,68.55166666666668,68.83,41.0,84.0
292,68.95166666666667,69.15333333333334,55.0,81.0
293,68.95166666666667,69.19333333333334,59.0,81.0
294,69.35166666666667,69.79166666666667,55.0,88.0
295,69.75166666666667,70.49666666666667,59.0,85.0
296,68.95166666666667,70.53,43.0,86.0
297,69.75166666666667,70.54,62.0,86.0
298,70.15166666666667,70.55833333333334,50.0,81.0
299,70.55166666666668,70.73333333333333,55.0,81.0
300,70.55166666666668,71.10666666666667,64.0,82.0
301,70.95166666666667,71.22,55.0,76.0
302,71.35166666666667,71.51,55.0,82.0
303,71.35166666666667,71.655,60.0,85.0
304,70.55166666666668,71.94500000000001,48.0,90.0
305,71.75166666666667,72.26,55.0,82.0
306,72.15166666666667,72.61833333333334,60.0,83.0
307,72.15166666666667,72.66666666666667,64.0,82.0
308,72.55166666666668,72.85000000000001,55.0,76.0
309,72.95166666666667,73.095,55.0,82.0
310,72.15166666666667,73.13166666666667,48.0,80.0
311,72.95166666666667,73.31666666666668,60.0,95.0
312,73.35166666666667,73.58666666666667,55.0,81.0
313,72.95166666666667,73.63000000000001,64.0,85.0
314,73.35166666666667,73.75166666666667,38.0,82.0
315,73.75166666666667,74.22,59.0,80.0
316,73.75166666666667,74.26333333333334,55.0,80.0
317,74.55166666666668,74.69500000000001,55.0,73.0
318,74.55166666666668,75.01,59.0,82.0
319,74.55166666666668,75.16833333333334,64.0,83.0
320,74.15166666666667,75.20666666666668,47.0,68.0
321,73.75166666666667,75.21666666666667,40.0,86.0
322,74.95166666666667,75.44500000000001,55.0,78.0
323,75.35166666666667,75.74166666666667,59.0,78.0
324,75.35166666666667,75.81,62.0,77.0
325,75.75166666666667,76.29666666666667,47.0,65.0
326,75.35166666666667,76.37166666666667,40.0,82.0
327,76.15166666666667,76.465,55.0,83.0
328,76.15166666666667,76.49166666666667,59.0,86.0
329,76.55166666666668,76.95166666666667,40.0,86.0
330,76.95166666666667,77.44500000000001,60.0,79.0
331,76.95166666666667,77.49166666666667,57.0,75.0
332,77.35166666666667,77.85833333333333,52.0,76.0
333,76.95166666666667,78.03333333333333,45.0,82.0
334,77.75166666666667,78.22166666666668,60.0,86.0
335,77.75166666666667,78.38333333333334,57.0,81.0
336,77.75166666666667,78.38833333333334,64.0,86.0
337,78.15166666666667,78.52666666666667,52.0,79.0
338,78.55166666666668,79.04833333333333,60.0,79.0
339,78.55166666666668,79.12333333333333,57.0,76.0
340,79.35166666666667,79.545,57.0,81.0
341,78.55166666666668,79.75166666666667,45.0,82.0
342,79.35166666666667,79.78333333333333,60.0,88.0
343,79.35166666666667,79.87166666666667,64.0,83.0
344,79.75166666666667,80.00166666666667,57.0,83.0
345,78.95166666666667,80.045,52.0,70.0
346,79.75166666666667,80.15166666666667,45.0,82.0
347,80.15166666666667,80.67166666666667,59.0,80.0
348,80.15166666666667,80.72833333333334,55.0,82.0
349,80.55166666666668,81.11,50.0,70.0
350,80.95166666666667,81.25166666666667,62.0,83.0
351,80.95166666666667,81.605,55.0,82.0
352,80.15166666666667,81.62166666666667,43.0,81.0
353,81.35166666666667,81.715,50.0,75.0
354,81.75166666666667,82.07833333333333,67.0,81.0
355,81.75166666666667,82.10166666666667,55.0,83.0
356,81.75166666666667,82.73166666666667,43.0,82.0
357,82.15166666666667,82.73833333333334,50.0,79.0
358,82.55166666666668,82.85333333333334,59.0,86.0
359,82.55166666666668,82.875,62.0,82.0
360,82.95166666666667,83.245,43.0,82.0
361,83.35166666666667,83.53333333333335,55.0,81.0
362,83.35166666666667,83.90666666666667,64.0,82.0
363,83.75166666666667,84.02000000000001,55.0,76.0
364,84.15166666666667,84.31,55.0,82.0
365,84.15166666666667,84.45500000000001,60.0,85.0
366,83.35166666666667,84.745,48.0,90.0
367,84.55166666666668,85.06,55.0,82.0
368,84.95166666666667,85.41833333333334,60.0,83.0
369,84.95166666666667,85.46666666666667,64.0,82.0
370,85.35166666666667,85.65,55.0,76.0
371,85.75166666666667,85.89500000000001,55.0,82.0
372,84.95166666666667,85.93166666666667,48.0,80.0
373,85.75166666666667,86.11666666666667,60.0,95.0
374,86.15166666666667,86.38666666666667,55.0,81.0
375,85.75166666666667,86.43,64.0,85.0
376,86.15166666666667,86.55166666666668,38.0,82.0
377,86.55166666666668,87.02000000000001,59.0,80.0
378,86.55166666666668,87.06333333333333,55.0,80.0
379,87.35166666666667,87.495,55.0,73.0
380,87.35166666666667,87.81,59.0,82.0
381,87.35166666666667,87.96833333333333,64.0,83.0
382,86.95166666666667,88.00666666666667,47.0,68.0
383,86.55166666666668,88.01666666666667,40.0,86.0
384,87.75166666666668,88.245,55.0,78.0
385,88.15166666666667,88.54166666666667,59.0,78.0
386,88.15166666666667,88.61,62.0,77.0
387,88.55166666666668,89.09666666666668,47.0,65.0
388,88.15166666666667,89.17166666666667,40.0,82.0
389,88.95166666666667,89.265,55.0,83.0
390,88.95166666666667,89.29166666666667,59.0,86.0
391,89.35166666666667,89.75166666666668,40.0,86.0
392,89.75166666666668,90.47333333333334,60.0,81.0
393,89.75166666666668,90.59166666666667,53.0,76.0
394,90.55166666666668,90.78833333333334,57.0,83.0
395,90.95166666666667,91.23,53.0,82.0
396,89.75166666666668,91.245,41.0,83.0
397,90.15166666666667,91.25666666666667,48.0,74.0
398,91.35166666666667,92.51833333333335,57.0,71.0
399,91.35166666666667,92.56500000000001,60.0,77.0
400,91.35166666666667,92.56833333333334,53.0,76.0
401,91.35166666666667,92.72666666666667,41.0,81.0
402,92.95166666666667,93.75833333333334,60.0,81.0
403,92.95166666666667,93.80166666666668,53.0,76.0
404,93.75166666666668,94.21000000000001,56.0,88.0
405,94.15166666666667,94.34,60.0,82.0
406,94.55166666666668,94.86666666666667,53.0,79.0
407,94.55166666666668,95.12666666666668,65.0,77.0
408,95.35166666666667,95.47500000000001,56.0,81.0
409,93.35166666666667,95.50333333333334,48.0,74.0
410,95.35166666666667,95.53500000000001,60.0,82.0
411,92.95166666666667,95.545,41.0,83.0
412,96.15166666666667,96.33500000000001,55.0,82.0
413,96.15166666666667,96.57000000000001,60.0,85.0
414,96.55166666666668,96.71666666666667,55.0,81.0
415,96.95166666666667,97.07166666666667,55.0,86.0
416,96.95166666666667,97.105,60.0,86.0
417,96.95166666666667,97.12,64.0,87.0
418,96.15166666666667,97.13166666666667,48.0,95.0
419,97.75166666666668,97.97166666666668,55.0,80.0
420,97.75166666666668,98.185,60.0,81.0
421,98.15166666666667,98.25833333333334,55.0,69.0
422,98.55166666666668,98.67333333333335,55.0,81.0
423,98.55166666666668,98.81166666666667,60.0,83.0
424,97.75166666666668,98.81833333333334,48.0,84.0
425,98.55166666666668,98.98166666666667,64.0,84.0
426,98.95166666666667,99.05166666666668,55.0,77.0
427,99.35166666666667,99.60666666666667,59.0,79.0
428,99.35166666666667,99.83000000000001,64.0,81.0
429,99.75166666666668,99.90833333333335,59.0,72.0
430,100.15166666666667,100.28833333333334,59.0,83.0
431,100.15166666666667,100.32833333333333,64.0,84.0
432,100.15166666666667,100.36166666666668,67.0,81.0
433,100.95166666666667,101.08833333333334,59.0,73.0
434,100.95166666666667,101.17333333333335,64.0,77.0
435,101.35166666666667,101.46166666666667,59.0,62.0
436,99.35166666666667,101.80000000000001,40.0,80.0
437,101.75166666666668,101.87833333333334,59.0,81.0
438,101.75166666666668,101.98333333333333,64.0,83.0
439,101.75166666666668,102.12166666666667,67.0,79.0
440,102.15166666666667,102.27333333333334,59.0,77.0
441,102.55166666666668,102.92833333333334,60.0,74.0
442,102.55166666666668,102.98,57.0,73.0
443,103.35166666666667,103.46833333333333,57.0,77.0
444,103.35166666666667,103.47500000000001,64.0,83.0
445,102.95166666666667,104.30333333333334,52.0,62.0
446,104.15166666666667,104.34166666666667,57.0,68.0
447,104.15166666666667,104.38333333333334,60.0,69.0
448,104.55166666666668,105.06833333333334,52.0,66.0
449,104.95166666666667,105.08000000000001,60.0,82.0
450,104.95166666666667,105.09333333333333,64.0,82.0
451,104.95166666666667,105.12333333333333,57.0,77.0
452,102.55166666666668,105.13000000000001,45.0,81.0
453,105.35166666666667,105.58833333333334,45.0,80.0
454,105.75166666666668,106.15,55.0,77.0
455,105.75166666666668,106.35166666666667,62.0,78.0
456,106.35166666666667,106.64833333333334,55.0,82.0
457,106.55166666666668,106.67166666666667,62.0,77.0
458,106.15166666666667,106.80333333333334,50.0,77.0
459,106.75166666666668,106.915,55.0,86.0
460,106.75166666666668,106.94833333333334,62.0,82.0
461,106.75166666666668,106.99333333333334,67.0,82.0
462,106.95166666666667,107.24333333333334,50.0,81.0
463,107.15166666666667,107.36833333333334,67.0,81.0
464,107.15166666666667,107.37,71.0,87.0
465,107.35166666666667,107.57000000000001,50.0,82.0
466,107.55166666666668,107.65333333333334,74.0,95.0
467,107.55166666666668,107.67333333333335,67.0,81.0
468,107.75166666666668,107.85166666666667,50.0,71.0
469,107.95166666666667,108.05666666666667,55.0,83.0
470,108.15166666666667,108.355,55.0,79.0
471,108.15166666666667,108.43333333333334,62.0,81.0
472,108.35166666666667,108.575,50.0,83.0
473,105.75166666666668,108.57666666666667,43.0,82.0
474,108.55166666666668,108.96000000000001,55.0,79.0
475,108.95166666666667,109.305,60.0,77.0
476,108.95166666666667,109.37166666666667,53.0,76.0
477,109.55166666666668,109.73166666666667,53.0,78.0
478,109.55166666666668,109.74833333333333,57.0,76.0
479,109.95166666666667,110.11833333333334,65.0,82.0
480,109.95166666666667,110.12333333333333,53.0,83.0
481,108.95166666666667,110.41000000000001,41.0,82.0
482,109.35166666666667,110.41666666666667,48.0,65.0
483,110.35166666666667,111.02666666666667,60.0,79.0
484,110.95166666666667,111.10833333333333,53.0,71.0
485,110.75166666666668,111.25833333333334,48.0,75.0
486,111.15166666666667,111.45500000000001,53.0,76.0
487,111.15166666666667,111.46333333333334,60.0,79.0
488,111.15166666666667,111.46666666666667,57.0,81.0
489,111.35166666666667,111.64,48.0,81.0
490,110.55166666666668,111.665,41.0,82.0
491,111.55166666666668,111.69500000000001,57.0,82.0
492,111.55166666666668,111.69666666666667,53.0,83.0
493,112.15166666666667,112.31333333333335,55.0,76.0
494,112.15166666666667,112.51,59.0,77.0
495,112.55166666666668,112.65666666666668,55.0,74.0
496,112.75166666666668,112.92833333333334,55.0,81.0
497,112.75166666666668,113.025,64.0,83.0
498,112.35166666666667,113.10333333333334,47.0,75.0
499,112.15166666666667,113.13833333333334,40.0,83.0
500,113.15166666666667,113.26666666666668,55.0,81.0
501,113.15166666666667,113.33666666666667,59.0,83.0
502,113.75166666666668,113.935,57.0,73.0
503,113.75166666666668,114.05166666666668,60.0,77.0
504,114.15166666666667,114.23500000000001,57.0,76.0
505,113.95166666666667,114.43,52.0,78.0
506,114.35166666666667,114.57333333333334,57.0,83.0
507,114.35166666666667,114.59333333333333,64.0,86.0
508,114.75166666666668,114.85166666666667,57.0,80.0
509,114.75166666666668,114.95166666666667,60.0,85.0
510,114.55166666666668,115.06166666666667,52.0,81.0
511,114.95166666666667,115.13000000000001,57.0,81.0
512,113.75166666666668,115.13333333333334,45.0,82.0
513,115.35166666666667,115.67,57.0,75.0
514,115.35166666666667,115.89333333333335,65.0,81.0
515,115.75166666666668,115.90833333333335,57.0,76.0
516,115.95166666666667,116.24000000000001,62.0,82.0
517,115.35166666666667,116.41833333333334,50.0,86.0
518,116.35166666666667,116.78,65.0,83.0
519,116.55166666666668,116.85333333333334,57.0,81.0
520,116.75166666666668,117.30166666666668,62.0,74.0
521,117.35166666666667,117.46166666666667,57.0,80.0
522,117.15166666666667,117.64833333333334,45.0,71.0
523,117.55166666666668,117.76833333333335,57.0,82.0
524,117.55166666666668,117.79333333333334,62.0,83.0
525,116.95166666666667,117.89833333333334,38.0,82.0
526,117.75166666666668,117.95666666666668,45.0,72.0
527,117.95166666666667,118.07833333333335,57.0,82.0
528,117.95166666666667,118.53833333333334,65.0,82.0
529,118.35166666666667,118.54,57.0,77.0
530,118.95166666666667,119.21166666666667,55.0,84.0
531,119.15166666666667,119.50166666666668,62.0,68.0
532,119.55166666666668,119.88333333333334,55.0,83.0
533,118.75166666666668,119.995,50.0,58.0
534,118.55166666666668,120.00666666666667,43.0,82.0
535,119.75166666666668,120.26666666666668,62.0,82.0
536,119.95166666666667,120.61333333333334,67.0,82.0
537,120.55166666666668,120.66666666666667,55.0,83.0
538,120.35166666666667,120.79833333333335,50.0,82.0
539,120.75166666666668,120.99333333333334,55.0,83.0
540,120.75166666666668,121.01333333333334,59.0,88.0
541,120.75166666666668,121.02833333333334,62.0,86.0
542,120.15166666666667,121.18,43.0,83.0
543,120.95166666666667,121.23,50.0,84.0
544,121.15166666666667,121.40333333333334,55.0,87.0
545,121.15166666666667,121.61500000000001,59.0,82.0
546,121.15166666666667,121.66166666666668,62.0,86.0
547,121.35166666666667,121.69000000000001,50.0,83.0
548,121.55166666666668,121.71666666666667,55.0,82.0
549,121.75166666666668,121.93333333333334,55.0,81.0
550,121.75166666666668,122.30666666666667,64.0,82.0
551,122.15166666666667,122.42,55.0,76.0
552,122.55166666666668,122.71000000000001,55.0,82.0
553,122.55166666666668,122.855,60.0,85.0
554,121.75166666666668,123.14500000000001,48.0,90.0
555,122.95166666666667,123.46000000000001,55.0,82.0
556,123.35166666666667,123.81833333333334,60.0,83.0
557,123.35166666666667,123.86666666666667,64.0,82.0
558,123.75166666666668,124.05000000000001,55.0,76.0
559,124.15166666666667,124.295,55.0,82.0
560,123.35166666666667,124.33166666666668,48.0,80.0
561,124.15166666666667,124.51666666666668,60.0,95.0
562,124.55166666666668,124.78666666666668,55.0,81.0
563,124.15166666666667,124.83000000000001,64.0,85.0
564,124.55166666666668,124.95166666666667,38.0,82.0
565,124.95166666666667,125.42,59.0,80.0
566,124.95166666666667,125.46333333333334,55.0,80.0
567,125.75166666666668,125.89500000000001,55.0,73.0
568,125.75166666666668,126.21000000000001,59.0,82.0
569,125.75166666666668,126.36833333333334,64.0,83.0
570,125.35166666666667,126.40666666666668,47.0,68.0
571,124.95166666666667,126.41666666666667,40.0,86.0
572,126.15166666666667,126.64500000000001,55.0,78.0
573,126.55166666666668,126.94166666666668,59.0,78.0
574,126.55166666666668,127.01,62.0,77.0
575,126.95166666666667,127.49666666666667,47.0,65.0
576,126.55166666666668,127.57166666666667,40.0,82.0
577,127.35166666666667,127.665,55.0,83.0
578,127.35166666666667,127.69166666666668,59.0,86.0
579,127.75166666666668,128.15166666666667,40.0,86.0
580,128.15166666666667,128.645,60.0,79.0
581,128.15166666666667,128.69166666666666,57.0,75.0
582,128.55166666666668,129.05833333333334,52.0,76.0
583,128.15166666666667,129.23333333333335,45.0,82.0
584,128.95166666666668,129.42166666666668,60.0,86.0
585,128.95166666666668,129.58333333333334,57.0,81.0
586,128.95166666666668,129.58833333333334,64.0,86.0
587,129.3516666666667,129.7266666666667,52.0,79.0
588,129.75166666666667,130.24833333333333,60.0,79.0
589,129.75166666666667,130.32333333333335,57.0,76.0
590,130.55166666666668,130.745,57.0,81.0
591,129.75166666666667,130.95166666666668,45.0,82.0
592,130.55166666666668,130.98333333333335,60.0,88.0
593,130.55166666666668,131.0716666666667,64.0,83.0
594,130.95166666666668,131.20166666666668,57.0,83.0
595,130.15166666666667,131.245,52.0,70.0
596,130.95166666666668,131.3516666666667,45.0,82.0
597,131.3516666666667,131.87166666666667,59.0,80.0
598,131.3516666666667,131.92833333333334,55.0,82.0
599,131.75166666666667,132.31,50.0,70.0
600,132.15166666666667,132.45166666666668,62.0,83.0
601,132.15166666666667,132.805,55.0,82.0
602,131.3516666666667,132.8216666666667,43.0,81.0
603,132.55166666666668,132.91500000000002,50.0,75.0
604,132.95166666666668,133.27833333333334,67.0,81.0
605,132.95166666666668,133.30166666666668,55.0,83.0
606,132.95166666666668,133.93166666666667,43.0,82.0
607,133.3516666666667,133.93833333333333,50.0,79.0
608,133.75166666666667,134.05333333333334,59.0,86.0
609,133.75166666666667,134.07500000000002,62.0,82.0
610,134.15166666666667,134.44500000000002,43.0,82.0
611,134.55166666666668,134.73333333333335,55.0,81.0
612,134.55166666666668,135.10666666666668,64.0,82.0
613,134.95166666666668,135.22,55.0,76.0
614,135.3516666666667,135.51000000000002,55.0,82.0
615,135.3516666666667,135.655,60.0,85.0
616,134.55166666666668,135.94500000000002,48.0,90.0
617,135.75166666666667,136.26000000000002,55.0,82.0
618,136.15166666666667,136.61833333333334,60.0,83.0
619,136.15166666666667,136.66666666666669,64.0,82.0
620,136.55166666666668,136.85000000000002,55.0,76.0
621,136.95166666666668,137.095,55.0,82.0
622,136.15166666666667,137.1316666666667,48.0,80.0
623,136.95166666666668,137.31666666666666,60.0,95.0
624,137.3516666666667,137.58666666666667,55.0,81.0
625,136.95166666666668,137.63,64.0,85.0
626,137.3516666666667,137.75166666666667,38.0,82.0
627,137.75166666666667,138.22,59.0,80.0
628,137.75166666666667,138.26333333333335,55.0,80.0
629,138.55166666666668,138.69500000000002,55.0,73.0
630,138.55166666666668,139.01000000000002,59.0,82.0
631,138.55166666666668,139.16833333333335,64.0,83.0
632,138.15166666666667,139.20666666666668,47.0,68.0
633,137.75166666666667,139.21666666666667,40.0,86.0
634,138.95166666666668,139.44500000000002,55.0,78.0
635,139.3516666666667,139.74166666666667,59.0,78.0
636,139.3516666666667,139.81,62.0,77.0
637,139.75166666666667,140.29666666666668,47.0,65.0
638,139.3516666666667,140.37166666666667,40.0,82.0
639,140.15166666666667,140.465,55.0,83.0
640,140.15166666666667,140.49166666666667,59.0,86.0
641,140.55166666666668,140.95166666666668,40.0,86.0
642,140.95166666666668,141.67333333333335,60.0,81.0
643,140.95166666666668,141.79166666666669,53.0,76.0
644,141.75166666666667,141.98833333333334,57.0,83.0
645,142.15166666666667,142.43,53.0,82.0
646,140.95166666666668,142.44500000000002,41.0,83.0
647,141.3516666666667,142.45666666666668,48.0,74.0
648,142.55166666666668,143.71833333333333,57.0,71.0
649,142.55166666666668,143.76500000000001,60.0,77.0
650,142.55166666666668,143.76833333333335,53.0,76.0
651,142.55166666666668,143.92666666666668,41.0,81.0
652,144.15166666666667,144.95833333333334,60.0,81.0
653,144.15166666666667,145.00166666666667,53.0,76.0
654,144.95166666666668,145.41,56.0,88.0
655,145.3516666666667,145.54000000000002,60.0,82.0
656,145.75166666666667,146.06666666666666,53.0,79.0
657,145.75166666666667,146.32666666666668,65.0,77.0
658,146.55166666666668,146.675,56.0,81.0
659,144.55166666666668,146.70333333333335,48.0,74.0
660,146.55166666666668,146.735,60.0,82.0
661,144.15166666666667,146.745,41.0,83.0
662,147.3516666666667,147.565,55.0,75.0
663,147.3516666666667,147.82833333333335,67.0,71.0
664,147.3516666666667,147.92333333333335,62.0,72.0
665,147.75166666666667,148.01333333333335,55.0,71.0
666,148.15166666666667,148.33,55.0,79.0
667,148.15166666666667,148.58,67.0,77.0
668,148.15166666666667,148.775,62.0,75.0
669,148.55166666666668,148.79666666666668,55.0,68.0
670,148.95166666666668,149.13666666666668,55.0,79.0
671,148.95166666666668,149.50333333333333,60.0,77.0
672,149.3516666666667,149.675,55.0,69.0
673,149.75166666666667,149.8216666666667,55.0,53.0
674,149.75166666666667,150.23833333333334,60.0,77.0
675,150.15166666666667,150.435,55.0,76.0
676,147.3516666666667,150.52666666666667,48.0,82.0
677,150.55166666666668,150.71666666666667,55.0,75.0
678,150.55166666666668,151.15166666666667,59.0,77.0
679,149.75166666666667,151.16,67.0,76.0
680,150.95166666666668,151.1966666666667,55.0,69.0
681,151.3516666666667,151.91666666666669,59.0,77.0
682,151.75166666666667,152.07500000000002,55.0,68.0
683,150.55166666666668,152.15166666666667,48.0,82.0
684,152.15166666666667,152.72166666666666,60.0,77.0
685,151.3516666666667,152.75,67.0,77.0
686,152.55166666666668,152.95166666666668,55.0,77.0
687,152.95166666666668,153.11333333333334,55.0,82.0
688,152.95166666666668,153.67000000000002,60.0,84.0
689,153.3516666666667,153.68,55.0,82.0
690,152.95166666666668,153.68833333333333,67.0,81.0
691,152.15166666666667,153.69333333333336,48.0,82.0
692,153.74666666666667,153.99,55.0,69.0
693,153.74833333333333,154.305,60.0,74.0
694,154.19166666666666,154.69333333333336,55.0,74.0
695,154.60333333333335,154.86,60.0,78.0
696,154.61833333333334,154.91666666666669,64.0,82.0
697,155.46333333333334,155.99,60.0,74.0
698,156.40833333333333,156.7266666666667,55.0,79.0
699,156.87666666666667,157.10666666666668,55.0,67.0
700,153.75333333333333,157.20000000000002,48.0,78.0
701,156.41333333333336,157.24166666666667,62.0,77.0
702,157.25833333333335,157.91333333333336,57.0,69.0
703,157.26000000000002,157.9466666666667,60.0,73.0
704,158.18833333333333,158.705,57.0,68.0
705,158.19333333333336,158.8,60.0,71.0
706,159.07500000000002,159.53833333333336,60.0,63.0
707,159.07000000000002,159.67333333333335,57.0,61.0
708,159.98000000000002,160.15666666666667,60.0,73.0
709,159.98666666666668,160.16,64.0,80.0
710,157.72500000000002,160.18,52.0,67.0
711,157.25333333333333,160.26833333333335,45.0,77.0
712,160.80333333333334,161.235,53.0,67.0
713,160.86833333333334,161.32000000000002,57.0,63.0
714,160.92166666666668,161.33666666666667,60.0,70.0
715,161.775,161.99833333333333,53.0,76.0
716,161.76500000000001,162.05,60.0,75.0
717,162.705,163.02,57.0,67.0
718,162.69833333333335,163.06333333333333,53.0,60.0
719,163.63333333333335,163.83166666666668,53.0,70.0
720,163.62333333333333,163.88000000000002,60.0,77.0
721,161.305,163.97333333333336,48.0,64.0
722,160.875,163.995,41.0,80.0
723,165.0066666666667,165.31,59.0,61.0
724,165.0716666666667,165.31,62.0,60.0
725,164.89000000000001,165.38000000000002,55.0,69.0
726,164.875,166.16500000000002,50.0,72.0
727,164.67666666666668,166.35666666666668,43.0,82.0
728,167.57500000000002,168.30333333333334,55.0,71.0
729,167.84666666666666,168.30833333333334,62.0,74.0
730,168.18833333333333,168.42666666666668,60.0,71.0
731,168.54500000000002,168.69833333333335,67.0,73.0
732,169.21833333333333,169.71,74.0,75.0
733,169.83166666666668,169.99166666666667,67.0,53.0
734,169.92166666666668,170.02666666666667,72.0,64.0
735,169.96333333333334,170.09,79.0,75.0
736,167.32500000000002,170.49833333333333,43.0,65.0
737,167.055,170.54000000000002,36.0,79.0
