,start,end,pitch,velocity
0,15.746161733333336,15.852222000000003,61.0,111.0
1,15.973433733333335,16.07760006666667,63.0,108.0
2,16.200705733333336,16.5454016,66.0,108.0
3,16.655249733333335,16.765097866666668,66.0,94.0
4,16.882521733333334,17.384414066666668,66.0,105.0
5,17.564337733333335,17.685549466666668,68.0,102.0
6,17.791609733333335,17.91282146666667,70.0,87.0
7,18.018881733333334,18.314335333333336,68.0,111.0
8,18.473425733333336,18.5851678,66.0,94.0
9,18.700697733333335,19.052969333333337,66.0,105.0
10,19.382513733333337,19.5226648,66.0,105.0
11,19.609785733333336,19.721527800000004,68.0,105.0
12,19.837057733333335,20.138193133333335,70.0,105.0
13,20.291601733333337,20.422283133333337,70.0,102.0
14,20.518873733333336,20.638191533333337,68.0,97.0
15,20.746145733333336,21.104099133333335,70.0,114.0
16,21.200689733333338,21.299174266666668,73.0,105.0
17,21.427961733333337,22.45257966666667,73.0,114.0
18,23.018865733333335,23.13439566666667,70.0,111.0
19,23.246137733333338,23.337046533333336,73.0,108.0
20,23.473409733333337,23.795378400000004,75.0,108.0
21,23.927953733333336,24.03212006666667,70.0,108.0
22,24.155225733333335,24.59461826666667,70.0,108.0
23,24.837041733333336,24.94688986666667,70.0,111.0
24,25.064313733333336,25.164692200000005,75.0,105.0
25,25.291585733333335,25.57756966666667,73.0,108.0
26,25.746129733333337,25.852190000000004,68.0,108.0
27,25.973401733333336,26.522642400000002,68.0,108.0
28,26.655217733333338,26.75938406666667,63.0,102.0
29,26.882489733333337,26.962034933333335,65.0,109.0
30,27.109761733333336,27.40142746666667,66.0,102.0
31,27.564305733333338,27.700668933333336,66.0,105.0
32,27.791577733333337,28.051046600000003,63.0,102.0
33,28.246121733333336,28.92414986666667,70.0,102.0
34,28.927937733333337,30.28778186666667,68.0,102.0
35,30.291569733333336,30.397630000000003,61.0,111.0
36,30.51884173333334,30.62300806666667,63.0,108.0
37,30.74611373333334,31.090809600000004,66.0,108.0
38,31.200657733333337,31.31050586666667,66.0,94.0
39,31.427929733333336,31.92982206666667,66.0,105.0
40,32.10974573333334,32.23095746666667,68.0,102.0
41,32.33701773333334,32.45822946666667,70.0,87.0
42,32.56428973333334,32.859743333333334,68.0,111.0
43,33.01883373333334,33.1305758,66.0,94.0
44,33.24610573333334,33.59837733333334,66.0,105.0
45,33.927921733333335,34.0680728,66.0,105.0
46,34.15519373333334,34.266935800000006,68.0,105.0
47,34.38246573333334,34.68360113333334,70.0,105.0
48,34.83700973333334,34.96769113333334,70.0,102.0
49,35.06428173333334,35.183599533333336,68.0,97.0
50,35.29155373333334,35.64950713333334,70.0,114.0
51,35.746097733333336,35.84458226666667,73.0,105.0
52,35.973369733333335,36.997987666666674,73.0,114.0
53,37.56427373333334,37.67980366666667,70.0,111.0
54,37.791545733333336,37.88245453333334,73.0,108.0
55,38.018817733333336,38.340786400000006,75.0,108.0
56,38.47336173333334,38.57752806666667,70.0,108.0
57,38.70063373333334,39.14002626666667,70.0,108.0
58,39.38244973333334,39.492297866666675,70.0,111.0
59,39.60972173333334,39.71010020000001,75.0,105.0
60,39.83699373333334,40.12297766666667,73.0,108.0
61,40.291537733333335,40.397598,68.0,108.0
62,40.51880973333334,41.068050400000004,68.0,108.0
63,41.20062573333334,41.30479206666667,63.0,102.0
64,41.42789773333334,41.50744293333334,65.0,109.0
65,41.65516973333334,41.94683546666667,66.0,102.0
66,42.10971373333334,42.24607693333334,66.0,105.0
67,42.336985733333336,42.59645460000001,63.0,102.0
68,43.01880173333334,43.31614926666667,63.0,105.0
69,43.47334573333334,44.53773626666667,61.0,105.0
70,45.29152173333334,45.39758200000001,70.0,111.0
71,45.51879373333334,45.84455026666667,70.0,105.0
72,45.97333773333334,46.083185866666675,70.0,111.0
73,46.20060973333334,46.49606333333334,70.0,111.0
74,46.65515373333334,46.78204726666667,75.0,105.0
75,46.88242573333334,48.06613406666667,75.0,108.0
76,48.92787373333334,49.05855513333334,77.0,109.0
77,49.15514573333334,49.50173553333334,77.0,93.0
78,49.60968973333334,49.74037113333334,77.0,112.0
79,49.83696173333334,50.14756680000001,75.0,114.0
80,50.29150573333334,50.397566000000005,73.0,108.0
81,50.51877773333334,51.693016400000005,70.0,114.0
82,52.10968173333334,52.24604493333334,70.0,114.0
83,52.33695373333334,52.443014000000005,68.0,114.0
84,52.56422573333334,52.653240600000004,66.0,108.0
85,52.79149773333334,52.87672473333334,66.0,100.0
86,53.01876973333334,53.11725426666667,66.0,100.0
87,53.24604173333334,53.336950533333344,66.0,87.0
88,53.47331373333334,53.57937400000001,66.0,105.0
89,53.70058573333334,53.87861546666667,63.0,108.0
90,54.15512973333334,54.46573480000001,75.0,105.0
91,54.60967373333334,54.71005220000001,73.0,100.0
92,54.83694573333334,54.95247566666667,75.0,108.0
93,55.064217733333344,55.15512653333334,73.0,111.0
94,55.29148973333334,55.60209480000001,75.0,108.0
95,55.74603373333334,55.83126073333334,73.0,105.0
96,55.97330573333334,56.28580473333334,75.0,114.0
97,56.42784973333334,56.51118280000001,73.0,102.0
98,56.65512173333334,58.910796333333344,70.0,102.0
99,59.83692973333334,59.94299000000001,70.0,111.0
100,60.06420173333334,60.389958266666675,70.0,105.0
101,60.51874573333334,60.62859386666668,70.0,111.0
102,60.74601773333334,61.04147133333334,70.0,111.0
103,61.200561733333345,61.327455266666675,75.0,105.0
104,61.427833733333344,62.61154206666667,75.0,108.0
105,63.473281733333344,63.603963133333345,77.0,109.0
106,63.700553733333344,64.04714353333334,77.0,93.0
107,64.15509773333333,64.28577913333334,77.0,112.0
108,64.38236973333335,64.6929748,75.0,114.0
109,64.83691373333335,64.942974,73.0,108.0
110,65.06418573333335,66.23842440000001,70.0,114.0
111,66.65508973333334,66.79145293333335,70.0,114.0
112,66.88236173333334,66.98842200000001,68.0,114.0
113,67.10963373333334,67.19864860000001,66.0,108.0
114,67.33690573333334,67.42213273333334,66.0,100.0
115,67.56417773333334,67.66266226666667,66.0,100.0
116,67.79144973333334,67.88235853333335,66.0,87.0
117,68.01872173333334,68.12478200000001,66.0,105.0
118,68.24599373333334,68.42402346666668,63.0,108.0
119,68.70053773333335,68.99599133333334,68.0,111.0
120,69.15508173333335,69.26682380000001,68.0,94.0
121,69.38235373333335,69.488414,68.0,97.0
122,69.60962573333335,69.71947386666668,68.0,97.0
123,69.83689773333334,69.93538226666668,68.0,108.0
124,70.06416973333334,70.17023,68.0,102.0
125,70.29144173333334,70.41075953333335,61.0,102.0
126,70.51871373333334,73.51681020000001,63.0,108.0
127,106.65496173333335,106.76102200000001,61.0,111.0
128,106.88223373333335,106.98640006666668,63.0,108.0
129,107.10950573333335,107.45420160000002,66.0,108.0
130,107.56404973333335,107.67389786666668,66.0,94.0
131,107.79132173333335,108.29321406666668,66.0,105.0
132,108.47313773333335,108.59434946666669,68.0,102.0
133,108.70040973333334,108.82162146666668,70.0,87.0
134,108.92768173333334,109.22313533333335,68.0,111.0
135,109.38222573333334,109.49396780000001,66.0,94.0
136,109.60949773333334,109.96176933333335,66.0,105.0
137,110.29131373333335,110.43146480000001,66.0,105.0
138,110.51858573333335,110.63032780000002,68.0,105.0
139,110.74585773333335,111.04699313333334,70.0,105.0
140,111.20040173333335,111.33108313333335,70.0,102.0
141,111.42767373333335,111.54699153333335,68.0,97.0
142,111.65494573333335,112.01289913333335,70.0,114.0
143,112.10948973333335,112.20797426666668,73.0,105.0
144,112.33676173333335,113.36137966666668,73.0,114.0
145,113.92766573333334,114.04319566666668,70.0,111.0
146,114.15493773333336,114.24584653333335,73.0,108.0
147,114.38220973333335,114.70417840000002,75.0,108.0
148,114.83675373333335,114.94092006666668,70.0,108.0
149,115.06402573333335,115.50341826666669,70.0,108.0
150,115.74584173333335,115.85568986666668,70.0,111.0
151,115.97311373333335,116.07349220000002,75.0,105.0
152,116.20038573333335,116.48636966666668,73.0,108.0
153,116.65492973333335,116.76099000000002,68.0,108.0
154,116.88220173333335,117.43144240000001,68.0,108.0
155,117.56401773333334,117.66818406666668,63.0,102.0
156,117.79128973333334,117.87083493333334,65.0,109.0
157,118.01856173333334,118.31022746666669,66.0,102.0
158,118.47310573333336,118.60946893333335,66.0,105.0
159,118.70037773333335,118.95984660000002,63.0,102.0
160,119.15492173333335,119.83294986666668,70.0,102.0
161,119.83673773333335,121.19658186666668,68.0,102.0
162,121.20036973333335,121.30643000000002,61.0,111.0
163,121.42764173333335,121.53180806666668,63.0,108.0
164,121.65491373333334,121.99960960000001,66.0,108.0
165,122.10945773333334,122.21930586666669,66.0,94.0
166,122.33672973333334,122.83862206666669,66.0,105.0
167,123.01854573333335,123.13975746666668,68.0,102.0
168,123.24581773333335,123.36702946666668,70.0,87.0
169,123.47308973333335,123.76854333333335,68.0,111.0
170,123.92763373333335,124.03937580000002,66.0,94.0
171,124.15490573333335,124.50717733333335,66.0,105.0
172,124.83672173333335,124.97687280000001,66.0,105.0
173,125.06399373333335,125.17573580000001,68.0,105.0
174,125.29126573333335,125.59240113333335,70.0,105.0
175,125.74580973333335,125.87649113333335,70.0,102.0
176,125.97308173333334,126.09239953333335,68.0,97.0
177,126.20035373333334,126.55830713333334,70.0,114.0
178,126.65489773333336,126.75338226666668,73.0,105.0
179,126.88216973333336,127.90678766666669,73.0,114.0
180,128.47307373333334,128.58860366666667,70.0,111.0
181,128.70034573333336,128.79125453333336,73.0,108.0
182,128.92761773333336,129.24958640000003,75.0,108.0
183,129.38216173333336,129.4863280666667,70.0,108.0
184,129.60943373333336,130.04882626666668,70.0,108.0
185,130.29124973333336,130.40109786666667,70.0,111.0
186,130.51852173333336,130.6189002,75.0,105.0
187,130.74579373333336,131.03177766666667,73.0,108.0
188,131.20033773333336,131.30639800000003,68.0,108.0
189,131.42760973333336,131.97685040000002,68.0,108.0
190,132.10942573333335,132.21359206666668,63.0,102.0
191,132.33669773333335,132.41624293333334,65.0,109.0
192,132.56396973333335,132.85563546666668,66.0,102.0
193,133.01851373333335,133.15487693333336,66.0,105.0
194,133.24578573333335,133.50525460000003,63.0,102.0
195,133.92760173333335,134.2249492666667,63.0,105.0
196,134.38214573333335,135.4465362666667,61.0,105.0
197,136.20032173333334,136.306382,70.0,111.0
198,136.42759373333334,136.75335026666667,70.0,105.0
199,136.88213773333334,136.99198586666668,70.0,111.0
200,137.10940973333337,137.40486333333334,70.0,111.0
201,137.56395373333336,137.69084726666668,75.0,105.0
202,137.79122573333336,138.9749340666667,75.0,108.0
203,139.83667373333336,139.96735513333334,77.0,109.0
204,140.06394573333336,140.41053553333336,77.0,93.0
205,140.51848973333335,140.64917113333334,77.0,112.0
206,140.74576173333335,141.0563668,75.0,114.0
207,141.20030573333335,141.30636600000003,73.0,108.0
208,141.42757773333335,142.60181640000002,70.0,114.0
209,143.01848173333335,143.15484493333335,70.0,114.0
210,143.24575373333334,143.35181400000002,68.0,114.0
211,143.47302573333334,143.56204060000002,66.0,108.0
212,143.70029773333334,143.78552473333335,66.0,100.0
213,143.92756973333334,144.02605426666668,66.0,100.0
214,144.15484173333334,144.24575053333336,66.0,87.0
215,144.38211373333334,144.48817400000001,66.0,105.0
216,144.60938573333334,144.7874154666667,63.0,108.0
217,145.06392973333334,145.37453480000002,75.0,105.0
218,145.51847373333337,145.61885220000002,73.0,100.0
219,145.74574573333337,145.8612756666667,75.0,108.0
220,145.97301773333336,146.06392653333336,73.0,111.0
221,146.20028973333336,146.51089480000002,75.0,108.0
222,146.65483373333336,146.74006073333337,73.0,105.0
223,146.88210573333336,147.19460473333336,75.0,114.0
224,147.33664973333336,147.4199828,73.0,102.0
225,147.56392173333336,149.81959633333335,70.0,102.0
226,150.74572973333335,150.85179000000002,70.0,111.0
227,150.97300173333335,151.29875826666668,70.0,105.0
228,151.42754573333335,151.5373938666667,70.0,111.0
229,151.65481773333335,151.95027133333335,70.0,111.0
230,152.10936173333334,152.2362552666667,75.0,105.0
231,152.33663373333334,153.5203420666667,75.0,108.0
232,154.38208173333337,154.51276313333335,77.0,109.0
233,154.60935373333336,154.95594353333334,77.0,93.0
234,155.06389773333336,155.19457913333335,77.0,112.0
235,155.29116973333336,155.60177480000002,75.0,114.0
236,155.74571373333336,155.85177400000003,73.0,108.0
237,155.97298573333336,157.14722440000003,70.0,114.0
238,157.56388973333335,157.70025293333336,70.0,114.0
239,157.79116173333335,157.89722200000003,68.0,114.0
240,158.01843373333335,158.10744860000003,66.0,108.0
241,158.24570573333335,158.33093273333336,66.0,100.0
242,158.47297773333335,158.57146226666669,66.0,100.0
243,158.70024973333335,158.79115853333334,66.0,87.0
244,158.92752173333335,159.03358200000002,66.0,105.0
245,159.15479373333335,159.3328234666667,63.0,108.0
246,159.60933773333335,159.90479133333335,68.0,111.0
247,160.06388173333335,160.1756238,68.0,94.0
248,160.29115373333335,160.39721400000002,68.0,97.0
249,160.51842573333334,160.6282738666667,68.0,97.0
250,160.74569773333334,160.84418226666668,68.0,108.0
251,160.97296973333334,161.07903000000002,68.0,102.0
252,161.20024173333334,161.31955953333335,61.0,102.0
253,161.42751373333334,164.42561020000002,63.0,108.0
254,165.29113773333336,165.39719800000003,70.0,111.0
255,165.51840973333336,165.8441662666667,70.0,105.0
256,165.97295373333336,166.0828018666667,70.0,111.0
257,166.20022573333335,166.49567933333336,70.0,111.0
258,166.65476973333335,166.7816632666667,75.0,105.0
259,166.88204173333335,168.06575006666668,75.0,108.0
260,168.92748973333335,169.05817113333336,77.0,109.0
261,169.15476173333334,169.50135153333335,77.0,93.0
262,169.60930573333334,169.73998713333336,77.0,112.0
263,169.83657773333334,170.14718280000002,75.0,114.0
264,170.29112173333337,170.39718200000002,73.0,108.0
265,170.51839373333337,171.69263240000004,70.0,114.0
266,172.10929773333336,172.24566093333337,70.0,114.0
267,172.33656973333336,172.44263,68.0,114.0
268,172.56384173333336,172.65285660000004,66.0,108.0
269,172.79111373333336,172.87634073333336,66.0,100.0
270,173.01838573333336,173.1168702666667,66.0,100.0
271,173.24565773333336,173.33656653333335,66.0,87.0
272,173.47292973333336,173.57899000000003,66.0,105.0
273,173.70020173333336,173.87823146666668,63.0,108.0
274,174.15474573333336,174.4653508,75.0,105.0
275,174.60928973333336,174.7096682,73.0,100.0
276,174.83656173333335,174.9520916666667,75.0,108.0
277,175.06383373333335,175.15474253333335,73.0,111.0
278,175.29110573333335,175.60171080000003,75.0,108.0
279,175.74564973333335,175.83087673333335,73.0,105.0
280,175.97292173333335,176.28542073333335,75.0,114.0
281,176.42746573333335,176.51079880000003,73.0,102.0
282,176.65473773333335,178.91041233333337,70.0,102.0
283,179.83654573333337,179.942606,70.0,111.0
284,180.06381773333337,180.3895742666667,70.0,105.0
285,180.51836173333336,180.62820986666668,70.0,111.0
286,180.74563373333336,181.04108733333337,70.0,111.0
287,181.20017773333336,181.32707126666668,75.0,105.0
288,181.42744973333336,182.6111580666667,75.0,108.0
289,183.47289773333335,183.60357913333337,77.0,109.0
290,183.70016973333335,184.04675953333336,77.0,93.0
291,184.15471373333335,184.28539513333337,77.0,112.0
292,184.38198573333335,184.69259080000003,75.0,114.0
293,184.83652973333335,184.94259000000002,73.0,108.0
294,185.06380173333335,186.23804040000002,70.0,114.0
295,186.65470573333334,186.79106893333335,70.0,114.0
296,186.88197773333337,186.98803800000002,68.0,114.0
297,187.10924973333337,187.19826460000002,66.0,108.0
298,187.33652173333337,187.42174873333335,66.0,100.0
299,187.56379373333337,187.6622782666667,66.0,100.0
300,187.79106573333337,187.88197453333336,66.0,87.0
301,188.01833773333337,188.124398,66.0,105.0
302,188.24560973333337,188.42363946666669,63.0,108.0
303,188.70015373333337,188.99560733333337,68.0,111.0
304,189.15469773333336,189.26643980000003,68.0,94.0
305,189.38196973333336,189.48803000000004,68.0,97.0
306,189.60924173333336,189.71908986666668,68.0,97.0
307,189.83651373333336,189.9349982666667,68.0,108.0
308,190.06378573333336,190.16984600000004,68.0,102.0
309,190.29105773333336,190.41037553333337,61.0,102.0
310,190.51832973333336,193.5164262,63.0,108.0
