,start,end,pitch,velocity
0,1.6552977333333336,2.2348413333333337,59.0,71.0
1,1.6552977333333336,2.2348413333333337,62.0,59.0
2,1.6552977333333336,2.2954472000000004,69.0,55.0
3,1.6552977333333336,2.7291579333333336,47.0,60.0
4,2.1098417333333335,2.751885133333334,54.0,29.0
5,2.5643857333333338,2.8541575333333338,62.0,109.0
6,2.5643857333333338,2.9128694666666672,59.0,87.0
7,2.5643857333333338,2.9128694666666672,69.0,85.0
8,3.0189297333333336,3.4090800000000003,47.0,71.0
9,3.473473733333334,4.079532400000001,68.0,84.0
10,3.473473733333334,4.0890020666666675,59.0,71.0
11,3.473473733333334,4.090896000000001,64.0,82.0
12,3.473473733333334,4.7367272666666675,52.0,67.0
13,3.9280177333333337,4.767030200000001,56.0,23.0
14,4.3825617333333335,4.791651333333334,59.0,84.0
15,4.3825617333333335,4.8238482000000005,64.0,89.0
16,4.3825617333333335,4.859832933333334,68.0,89.0
17,5.291649733333334,5.907178066666668,59.0,69.0
18,5.291649733333334,5.928011333333334,64.0,80.0
19,5.746193733333334,6.4242218666666675,56.0,41.0
20,5.291649733333334,6.4639944666666675,49.0,89.0
21,6.200737733333334,6.6003576666666675,59.0,97.0
22,6.200737733333334,6.619297,64.0,102.0
23,6.200737733333334,6.664751400000001,68.0,97.0
24,6.655281733333334,7.081416733333334,49.0,89.0
25,7.109825733333334,7.386340000000001,61.0,76.0
26,7.109825733333334,7.623081666666668,66.0,89.0
27,7.564369733333335,7.838990066666668,61.0,89.0
28,8.018913733333335,8.251867533333334,66.0,100.0
29,8.018913733333335,8.361715666666667,61.0,94.0
30,7.109825733333334,8.526487866666669,54.0,67.0
31,8.473457733333335,8.571942266666667,64.0,84.0
32,8.928001733333334,9.606029866666669,59.0,73.0
33,8.928001733333334,9.609817733333335,62.0,70.0
34,9.382545733333334,10.011331600000002,54.0,27.0
35,8.928001733333334,10.132543333333334,47.0,100.0
36,9.837089733333334,10.318148800000001,59.0,92.0
37,9.837089733333334,10.4090576,62.0,93.0
38,9.837089733333334,10.484814933333334,66.0,94.0
39,10.291633733333335,10.598450933333334,54.0,55.0
40,10.291633733333335,10.624966,47.0,1.0
41,10.518905733333336,10.645799266666668,59.0,78.0
42,10.746177733333335,11.342766733333335,64.0,97.0
43,10.746177733333335,11.382539333333336,59.0,84.0
44,10.746177733333335,12.248066866666669,52.0,84.0
45,11.200721733333335,12.255642600000002,56.0,46.0
46,11.655265733333335,12.316248466666668,59.0,92.0
47,11.655265733333335,12.348445333333334,64.0,102.0
48,11.655265733333335,12.367384666666668,68.0,94.0
49,12.564353733333334,13.168518466666669,61.0,78.0
50,12.564353733333334,13.191245666666669,66.0,94.0
51,13.018897733333334,13.562456600000003,56.0,67.0
52,13.473441733333335,13.765107466666668,61.0,100.0
53,13.473441733333335,13.914728200000003,66.0,105.0
54,13.927985733333335,14.193136400000002,61.0,82.0
55,13.700713733333336,14.234802933333334,56.0,78.0
56,12.564353733333334,14.238590800000003,49.0,92.0
57,14.382529733333335,15.700707333333336,49.0,92.0
58,14.382529733333335,15.713964866666668,56.0,87.0
59,14.382529733333335,15.929873266666668,59.0,94.0
60,14.382529733333335,15.929873266666668,65.0,65.0
61,16.200705733333336,16.89577926666667,54.0,71.0
62,16.200705733333336,16.933657933333336,61.0,80.0
63,16.655249733333335,17.295399200000002,49.0,39.0
64,17.109793733333337,17.818124800000003,54.0,89.0
65,17.109793733333337,17.863579200000004,61.0,100.0
66,16.200705733333336,17.950700133333335,42.0,89.0
67,18.018881733333334,18.831379133333336,58.0,94.0
68,18.018881733333334,18.840848800000003,54.0,82.0
69,18.927969733333335,19.15145386666667,54.0,89.0
70,18.018881733333334,19.37872586666667,39.0,85.0
71,19.382513733333337,19.761300400000003,54.0,60.0
72,18.927969733333335,19.785921533333337,58.0,102.0
73,18.927969733333335,19.7953912,63.0,97.0
74,19.837057733333335,20.473419333333336,54.0,80.0
75,19.837057733333335,20.479101133333337,58.0,89.0
76,19.837057733333335,20.927963333333334,42.0,97.0
77,20.291601733333337,20.939326933333337,49.0,34.0
78,20.746145733333336,20.97531166666667,58.0,111.0
79,20.746145733333336,20.984781333333338,54.0,97.0
80,20.746145733333336,21.10031126666667,61.0,94.0
81,21.655233733333336,22.246140933333336,61.0,97.0
82,21.655233733333336,22.308640733333338,56.0,84.0
83,22.109777733333335,22.755609000000003,53.0,31.0
84,21.655233733333336,22.785911933333335,46.0,100.0
85,22.564321733333337,22.99803246666667,56.0,94.0
86,22.564321733333337,23.01507786666667,61.0,100.0
87,22.564321733333337,23.13439566666667,65.0,93.0
88,23.018865733333335,23.302955733333338,46.0,97.0
89,23.473409733333337,24.07757446666667,63.0,80.0
90,23.473409733333337,24.113559200000005,59.0,76.0
91,23.473409733333337,24.641966600000003,47.0,105.0
92,24.382497733333338,24.76507226666667,63.0,97.0
93,24.382497733333338,24.785905533333338,59.0,92.0
94,23.927953733333336,24.83325386666667,54.0,44.0
95,24.837041733333336,25.11166206666667,47.0,82.0
96,24.382497733333338,25.21393446666667,66.0,94.0
97,25.291585733333335,25.922265533333338,61.0,84.0
98,25.291585733333335,25.92415946666667,58.0,78.0
99,25.291585733333335,26.409006400000003,46.0,97.0
100,25.746129733333337,26.48665766666667,53.0,41.0
101,26.200673733333335,26.666581333333337,65.0,90.0
102,26.200673733333335,26.683626733333337,58.0,97.0
103,26.655217733333338,26.909004800000005,46.0,94.0
104,27.109761733333336,27.791577733333337,59.0,92.0
105,27.109761733333336,27.83892606666667,54.0,80.0
106,27.564305733333338,28.227182400000004,51.0,27.0
107,27.109761733333336,28.249909600000002,44.0,100.0
108,28.018849733333337,28.37301526666667,59.0,108.0
109,28.018849733333337,28.386272800000004,54.0,94.0
110,28.018849733333337,28.427939333333338,63.0,102.0
111,28.47339373333334,28.842710733333337,44.0,92.0
112,28.927937733333337,29.187406600000003,56.0,100.0
113,28.927937733333337,29.189300533333338,49.0,102.0
114,28.927937733333337,29.217709533333338,61.0,97.0
115,29.60975373333334,29.689298933333337,54.0,89.0
116,29.60975373333334,29.70823826666667,61.0,94.0
117,29.60975373333334,29.70823826666667,66.0,100.0
118,29.60975373333334,29.761268400000002,47.0,105.0
119,30.064297733333337,30.693083600000005,49.0,55.0
120,30.064297733333337,30.693083600000005,49.0,97.0
121,30.064297733333337,30.75368946666667,61.0,82.0
122,30.74611373333334,30.75368946666667,61.0,80.0
123,30.064297733333337,30.76315913333334,53.0,35.0
124,30.064297733333337,30.766947000000005,56.0,73.0
125,30.064297733333337,30.77641666666667,65.0,82.0
126,30.064297733333337,30.783992400000002,68.0,97.0
127,30.74611373333334,31.44118726666667,54.0,71.0
128,31.200657733333337,31.840807200000004,49.0,39.0
129,31.65520173333334,32.3635328,54.0,89.0
130,31.65520173333334,32.408987200000006,61.0,100.0
131,30.74611373333334,32.49610813333334,42.0,89.0
132,32.56428973333334,33.37678713333334,58.0,94.0
133,32.56428973333334,33.386256800000005,54.0,82.0
134,33.473377733333336,33.69686186666667,54.0,89.0
135,32.56428973333334,33.92413386666667,39.0,85.0
136,33.927921733333335,34.306708400000005,54.0,60.0
137,33.473377733333336,34.33132953333334,58.0,102.0
138,33.473377733333336,34.340799200000006,63.0,97.0
139,34.38246573333334,35.01882733333334,54.0,80.0
140,34.38246573333334,35.02450913333334,58.0,89.0
141,34.38246573333334,35.47337133333334,42.0,97.0
142,34.83700973333334,35.484734933333336,49.0,34.0
143,35.29155373333334,35.52071966666667,58.0,111.0
144,35.29155373333334,35.53018933333334,54.0,97.0
145,35.29155373333334,35.645719266666674,61.0,94.0
146,36.200641733333335,36.79154893333334,61.0,97.0
147,36.200641733333335,36.854048733333336,56.0,84.0
148,36.65518573333334,37.301017,53.0,31.0
149,36.200641733333335,37.33131993333334,46.0,100.0
150,37.10972973333334,37.543440466666674,56.0,94.0
151,37.10972973333334,37.560485866666674,61.0,100.0
152,37.10972973333334,37.67980366666667,65.0,93.0
153,37.56427373333334,37.848363733333336,46.0,97.0
154,38.018817733333336,38.62298246666667,63.0,80.0
155,38.018817733333336,38.658967200000006,59.0,76.0
156,38.018817733333336,39.187374600000005,47.0,105.0
157,38.92790573333334,39.31048026666667,63.0,97.0
158,38.92790573333334,39.331313533333336,59.0,92.0
159,38.47336173333334,39.37866186666667,54.0,44.0
160,39.38244973333334,39.65707006666667,47.0,82.0
161,38.92790573333334,39.75934246666667,66.0,94.0
162,39.83699373333334,40.46767353333334,61.0,84.0
163,39.83699373333334,40.469567466666675,58.0,78.0
164,39.83699373333334,40.954414400000005,46.0,97.0
165,40.291537733333335,41.032065666666675,53.0,41.0
166,40.74608173333334,41.211989333333335,65.0,90.0
167,40.74608173333334,41.229034733333336,58.0,97.0
168,41.20062573333334,41.45441280000001,46.0,94.0
169,41.65516973333334,42.0850926,54.0,94.0
170,41.65516973333334,42.140016666666675,59.0,97.0
171,41.65516973333334,42.158956,44.0,97.0
172,42.56425773333334,43.069937933333335,46.0,97.0
173,42.56425773333334,43.221452600000006,58.0,97.0
174,42.56425773333334,43.30857353333334,61.0,100.0
175,43.70061773333334,43.89190500000001,61.0,100.0
176,43.70061773333334,43.89190500000001,65.0,102.0
177,43.70061773333334,43.91273826666667,49.0,102.0
178,43.70061773333334,43.92978366666667,56.0,105.0
179,44.15516173333334,44.787735466666675,58.0,94.0
180,44.15516173333334,44.96008340000001,63.0,94.0
181,44.15516173333334,45.13811313333334,66.0,105.0
182,44.83697773333334,45.14758280000001,58.0,94.0
183,44.15516173333334,45.22523406666667,51.0,108.0
184,45.06424973333334,45.232809800000005,63.0,100.0
185,45.29152173333334,45.91841366666667,61.0,84.0
186,45.29152173333334,45.99417100000001,66.0,94.0
187,45.74606573333334,46.38810913333334,58.0,69.0
188,45.29152173333334,46.39947273333334,51.0,105.0
189,46.20060973333334,46.755532200000005,61.0,100.0
190,46.20060973333334,46.80098660000001,66.0,105.0
191,46.88242573333334,47.30856073333334,58.0,78.0
192,47.10969773333334,47.636211200000005,61.0,100.0
193,47.10969773333334,47.693029200000005,66.0,105.0
194,47.79151373333334,47.89568006666667,61.0,60.0
195,47.56424173333334,48.07560373333334,58.0,71.0
196,48.01878573333334,48.299087866666675,61.0,97.0
197,48.01878573333334,48.33696653333334,70.0,100.0
198,46.65515373333334,48.338860466666674,51.0,69.0
199,48.01878573333334,48.34454226666667,66.0,111.0
200,48.24605773333334,48.36726946666667,58.0,89.0
201,48.47332973333334,48.61537473333334,61.0,108.0
202,48.92787373333334,49.53014453333334,61.0,89.0
203,48.92787373333334,49.571811066666676,56.0,100.0
204,49.38241773333334,50.00173393333334,53.0,29.0
205,49.83696173333334,50.27256640000001,56.0,108.0
206,49.83696173333334,50.29529360000001,61.0,111.0
207,49.83696173333334,50.56044426666667,65.0,109.0
208,48.92787373333334,50.61726226666667,46.0,102.0
209,50.51877773333334,50.658928800000005,56.0,71.0
210,50.29150573333334,50.76688300000001,53.0,30.0
211,50.74604973333334,51.28013893333334,56.0,82.0
212,50.74604973333334,51.34074480000001,61.0,89.0
213,51.42786573333334,51.482789800000006,56.0,37.0
214,51.20059373333334,51.73468293333334,53.0,23.0
215,51.65513773333334,51.92786413333334,56.0,105.0
216,51.65513773333334,52.01309113333334,61.0,105.0
217,50.74604973333334,52.07369700000001,46.0,87.0
218,51.88240973333334,52.0907424,53.0,70.0
219,52.10968173333334,52.37483240000001,56.0,80.0
220,51.65513773333334,52.37862026666667,65.0,99.0
221,52.33695373333334,52.482786600000004,61.0,78.0
222,52.56422573333334,53.20437520000001,63.0,97.0
223,52.56422573333334,53.21195093333334,59.0,82.0
224,53.01876973333334,53.5736922,54.0,40.0
225,53.47331373333334,53.78391880000001,59.0,100.0
226,52.56422573333334,53.78960060000001,47.0,100.0
227,53.47331373333334,53.87103973333334,63.0,105.0
228,53.70058573333334,53.87672153333334,54.0,55.0
229,53.47331373333334,53.92406986666667,66.0,102.0
230,53.92785773333334,54.15134186666668,47.0,94.0
231,54.38240173333334,54.87293046666667,61.0,97.0
232,54.38240173333334,54.91080913333334,65.0,90.0
233,55.064217733333344,55.168384066666675,61.0,69.0
234,54.38240173333334,55.49035273333334,49.0,105.0
235,54.83694573333334,55.49792846666667,56.0,57.0
236,55.29148973333334,55.753609466666674,61.0,102.0
237,55.29148973333334,55.753609466666674,65.0,109.0
238,55.29148973333334,55.77444273333334,68.0,102.0
239,55.74603373333334,55.85020006666667,49.0,94.0
240,55.97330573333334,56.10398713333334,61.0,94.0
241,56.20057773333334,56.63239453333334,61.0,84.0
242,56.20057773333334,56.81610606666668,66.0,97.0
243,56.65512173333334,57.16837766666667,49.0,51.0
244,57.109665733333344,57.37102853333334,61.0,102.0
245,57.109665733333344,57.42595260000001,66.0,114.0
246,56.20057773333334,57.44678586666667,42.0,105.0
247,57.33693773333334,57.57557333333334,49.0,69.0
248,57.109665733333344,57.67027000000001,70.0,105.0
249,57.56420973333334,57.77822420000001,61.0,117.0
250,58.01875373333334,58.28958620000001,46.0,102.0
251,58.01875373333334,58.29905586666668,58.0,100.0
252,58.01875373333334,58.32367700000001,62.0,102.0
253,58.47329773333334,58.56420653333334,58.0,94.0
254,58.24602573333334,58.68163040000001,50.0,99.0
255,58.47329773333334,58.71193333333334,46.0,8.0
256,58.70056973333334,58.96572040000001,62.0,116.0
257,58.70056973333334,58.977084000000005,58.0,111.0
258,58.70056973333334,59.00170513333334,65.0,105.0
259,58.92784173333334,59.202462066666676,53.0,96.0
260,59.155113733333344,59.429734066666676,58.0,111.0
261,59.155113733333344,59.49791566666667,62.0,105.0
262,59.382385733333344,59.643748533333344,53.0,82.0
263,59.155113733333344,59.713824066666675,65.0,85.0
264,59.155113733333344,59.76496026666668,70.0,100.0
265,59.60965773333334,59.766854200000004,62.0,11.0
266,59.60965773333334,59.84829333333334,58.0,92.0
267,59.83692973333334,60.463821666666675,61.0,84.0
268,59.83692973333334,60.53957900000001,66.0,94.0
269,60.29147373333334,60.93351713333334,58.0,69.0
270,59.83692973333334,60.94488073333334,51.0,105.0
271,60.74601773333334,61.30094020000001,61.0,100.0
272,60.74601773333334,61.34639460000001,66.0,105.0
273,61.427833733333344,61.85396873333334,58.0,78.0
274,61.65510573333334,62.18161920000001,61.0,100.0
275,61.65510573333334,62.23843720000001,66.0,105.0
276,62.33692173333334,62.44108806666667,61.0,60.0
277,62.10964973333334,62.62101173333334,58.0,71.0
278,62.56419373333334,62.844495866666676,61.0,97.0
279,62.56419373333334,62.88237453333334,70.0,100.0
280,61.200561733333345,62.884268466666676,51.0,69.0
281,62.56419373333334,62.88995026666667,66.0,111.0
282,62.79146573333334,62.91267746666667,58.0,89.0
283,63.01873773333334,63.16078273333334,61.0,108.0
284,63.473281733333344,64.07555253333334,61.0,89.0
285,63.473281733333344,64.11721906666668,56.0,100.0
286,63.92782573333334,64.54714193333334,53.0,29.0
287,64.38236973333335,64.81797440000001,56.0,108.0
288,64.38236973333335,64.8407016,61.0,111.0
289,64.38236973333335,65.10585226666667,65.0,109.0
290,63.473281733333344,65.16267026666668,46.0,102.0
291,65.06418573333335,65.20433680000001,56.0,71.0
292,64.83691373333335,65.312291,53.0,30.0
293,65.29145773333335,65.82554693333334,56.0,82.0
294,65.29145773333335,65.8861528,61.0,89.0
295,65.97327373333334,66.02819780000002,56.0,37.0
296,65.74600173333334,66.28009093333334,53.0,23.0
297,66.20054573333334,66.47327213333334,56.0,105.0
298,66.20054573333334,66.55849913333334,61.0,105.0
299,65.29145773333335,66.619105,46.0,87.0
300,66.42781773333334,66.6361504,53.0,70.0
301,66.65508973333334,66.92024040000001,56.0,80.0
302,66.20054573333334,66.92402826666668,65.0,99.0
303,66.88236173333334,67.0281946,61.0,78.0
304,67.10963373333334,67.74978320000001,63.0,97.0
305,67.10963373333334,67.75735893333334,59.0,82.0
306,67.56417773333334,68.1191002,54.0,40.0
307,68.01872173333334,68.3293268,59.0,100.0
308,67.10963373333334,68.33500860000001,47.0,100.0
309,68.01872173333334,68.41644773333334,63.0,105.0
310,68.24599373333334,68.42212953333335,54.0,55.0
311,68.01872173333334,68.46947786666668,66.0,102.0
312,68.47326573333335,68.69674986666668,47.0,94.0
313,68.92780973333335,69.57364100000001,58.0,92.0
314,68.92780973333335,69.60015606666667,61.0,89.0
315,68.92780973333335,69.61530753333334,65.0,82.0
316,69.38235373333335,69.93727620000001,53.0,65.0
317,68.92780973333335,70.0736394,46.0,105.0
318,69.83689773333334,70.1531846,56.0,100.0
319,69.83689773333334,70.24598733333335,61.0,97.0
320,70.06416973333334,70.25166913333334,53.0,82.0
321,69.83689773333334,70.33879006666668,65.0,93.0
322,70.29144173333334,70.61530433333334,46.0,102.0
323,70.74598573333334,71.00545460000001,58.0,92.0
324,70.74598573333334,71.35015046666668,63.0,87.0
325,71.20052973333334,71.49787726666668,58.0,69.0
326,70.74598573333334,71.7838612,51.0,114.0
327,71.65507373333334,71.9145426,58.0,111.0
328,71.65507373333334,71.9145426,66.0,111.0
329,71.65507373333334,71.931588,63.0,117.0
330,72.10961773333334,72.24598093333334,58.0,94.0
331,72.33688973333334,72.59635860000002,58.0,82.0
332,72.33688973333334,72.6645402,65.0,85.0
333,72.79143373333335,73.16453860000001,58.0,92.0
334,71.88234573333334,74.19483833333334,51.0,87.0
335,72.79143373333335,74.24786846666667,63.0,92.0
336,74.38233773333334,74.83877566666668,59.0,92.0
337,74.38233773333334,74.87854826666667,63.0,100.0
338,75.06415373333334,75.09824453333334,63.0,55.0
339,74.83688173333334,75.11718386666668,54.0,30.0
340,75.06415373333334,75.38044060000001,59.0,94.0
341,75.06415373333334,75.44862220000002,66.0,102.0
342,75.51869773333334,75.78763626666668,59.0,87.0
343,75.29142573333334,75.88043900000001,54.0,50.0
344,74.38233773333334,75.89937833333335,47.0,105.0
345,75.74596973333334,75.9713478,63.0,105.0
346,75.97324173333334,76.05846873333334,59.0,76.0
347,76.20051373333334,76.43346753333334,61.0,92.0
348,76.20051373333334,76.55467926666668,65.0,96.0
349,76.65505773333334,76.70240606666668,61.0,27.0
350,76.42778573333334,76.95429920000001,56.0,40.0
351,76.88232973333335,77.17967726666667,61.0,102.0
352,76.88232973333335,77.18725300000001,68.0,102.0
353,77.10960173333335,77.30657080000002,56.0,69.0
354,76.20051373333334,77.36149486666667,49.0,100.0
355,77.33687373333335,77.45808546666667,61.0,94.0
356,77.33687373333335,77.64179700000001,65.0,102.0
357,77.56414573333335,77.84823573333334,61.0,58.0
358,77.79141773333335,77.92778093333334,65.0,65.0
359,78.01868973333335,78.2724768,59.0,102.0
360,78.01868973333335,78.48080946666667,63.0,108.0
361,78.47323373333334,78.57171826666668,59.0,52.0
362,78.24596173333335,78.76489946666668,54.0,52.0
363,78.70050573333334,78.93535346666668,59.0,92.0
364,78.70050573333334,78.96944426666667,66.0,94.0
365,78.92777773333334,79.27626146666668,54.0,71.0
366,78.01868973333335,79.42398826666668,47.0,97.0
367,79.15504973333334,79.46565480000001,63.0,108.0
368,79.38232173333334,79.65694206666667,59.0,89.0
369,79.60959373333334,79.77057806666667,63.0,94.0
370,79.83686573333334,80.31792480000001,65.0,96.0
371,80.29140973333334,80.41262146666668,61.0,84.0
372,80.06413773333334,80.58686333333334,56.0,64.0
373,80.51868173333334,80.7781506,61.0,89.0
374,80.51868173333334,80.78004453333334,65.0,102.0
375,80.51868173333334,80.795196,68.0,94.0
376,79.83686573333334,80.91072593333334,49.0,100.0
377,80.74595373333334,81.01489226666668,56.0,87.0
378,80.97322573333335,81.11527073333335,61.0,89.0
379,80.97322573333335,81.20239166666667,65.0,105.0
380,80.97322573333335,81.31413373333335,68.0,100.0
381,81.65504173333335,81.88799553333334,58.0,97.0
382,81.65504173333335,82.16261586666668,63.0,105.0
383,82.10958573333335,82.22890353333334,58.0,89.0
384,82.33685773333335,82.35579706666668,68.0,58.0
385,81.88231373333335,82.43534226666668,53.0,87.0
386,82.33685773333335,82.58685693333335,58.0,114.0
387,82.33685773333335,82.64935673333335,63.0,114.0
388,82.79140173333334,82.84632580000002,63.0,50.0
389,82.79140173333334,82.95806786666668,58.0,89.0
390,82.56412973333335,82.98458293333334,53.0,65.0
391,83.01867373333334,83.14367333333334,58.0,47.0
392,81.65504173333335,83.16450660000001,46.0,100.0
393,83.01867373333334,83.26299113333334,63.0,87.0
394,83.24594573333334,83.36905140000002,58.0,87.0
395,83.47321773333334,83.73836840000001,58.0,92.0
396,83.47321773333334,83.83495900000001,62.0,96.0
397,83.92776173333334,84.02814020000001,58.0,97.0
398,83.70048973333334,84.18154880000002,53.0,93.0
399,84.15503373333334,84.42586620000002,62.0,109.0
400,84.15503373333334,84.43912373333335,58.0,100.0
401,84.15503373333334,84.44480553333335,65.0,90.0
402,83.47321773333334,84.49215386666668,46.0,92.0
403,84.38230573333334,84.69859260000001,53.0,96.0
404,84.60957773333334,84.82738006666668,58.0,105.0
405,84.60957773333334,84.97889473333335,62.0,112.0
406,84.83684973333334,85.05465206666668,46.0,94.0
407,84.60957773333334,85.11147006666668,65.0,109.0
408,85.06412173333335,85.18533346666668,58.0,94.0
409,85.29139373333335,85.59442306666668,58.0,94.0
410,85.29139373333335,85.61715026666668,62.0,96.0
411,85.29139373333335,85.62283206666667,65.0,87.0
412,85.74593773333335,85.98078546666667,62.0,57.0
413,85.29139373333335,85.98646726666668,46.0,97.0
414,85.74593773333335,85.98836120000001,58.0,71.0
415,85.74593773333335,85.99025513333335,65.0,42.0
416,86.20048173333335,86.42585980000001,58.0,111.0
417,86.20048173333335,86.51108680000002,62.0,112.0
418,86.20048173333335,86.51298073333335,70.0,94.0
419,86.20048173333335,86.53760186666668,65.0,105.0
420,86.65502573333335,86.67585900000002,65.0,4.0
421,86.65502573333335,86.75919206666667,58.0,94.0
422,86.42775373333335,86.96184293333334,53.0,90.0
423,86.88229773333335,87.14744840000002,68.0,78.0
424,86.88229773333335,87.16828166666667,58.0,94.0
425,86.88229773333335,87.17206953333334,62.0,87.0
426,86.88229773333335,87.19479673333335,65.0,77.0
427,87.33684173333334,87.61146206666668,58.0,108.0
428,87.33684173333334,87.62093173333335,62.0,109.0
429,87.33684173333334,87.64934073333335,65.0,109.0
430,87.33684173333334,87.65881040000001,70.0,97.0
431,87.79138573333334,87.84062800000001,62.0,36.0
432,87.79138573333334,87.91070353333335,58.0,94.0
433,87.56411373333334,88.12282406666668,53.0,93.0
434,87.10956973333334,88.14933913333334,46.0,92.0
435,88.01865773333334,88.42774733333334,58.0,111.0
436,88.24592973333334,88.4713078,50.0,93.0
437,88.01865773333334,88.53380760000002,62.0,112.0
438,88.01865773333334,88.6019892,65.0,109.0
439,88.47320173333334,88.60388313333334,53.0,109.0
440,88.70047373333334,88.82168546666668,58.0,114.0
441,88.92774573333334,89.39554726666668,59.0,100.0
442,88.92774573333334,89.43910773333334,63.0,108.0
443,89.38228973333335,89.66637973333334,54.0,76.0
444,89.60956173333335,89.87850026666668,59.0,114.0
445,89.60956173333335,89.89365173333334,66.0,105.0
446,89.83683373333335,90.16827206666667,54.0,78.0
447,90.06410573333335,90.31410493333334,59.0,105.0
448,90.06410573333335,90.40501373333335,63.0,117.0
449,88.92774573333334,90.43152880000001,47.0,100.0
450,90.51864973333335,90.5735738,63.0,44.0
451,90.29137773333335,90.6076646,54.0,76.0
452,90.51864973333335,90.63417966666668,59.0,94.0
453,90.74592173333335,90.98645126666668,61.0,82.0
454,90.74592173333335,91.09251153333335,65.0,96.0
455,90.97319373333335,91.49970720000002,56.0,76.0
456,91.42773773333334,91.69288840000002,68.0,102.0
457,91.42773773333334,91.72887313333335,61.0,97.0
458,90.74592173333335,92.00728133333334,49.0,100.0
459,91.65500973333334,92.00917526666667,56.0,80.0
460,91.88228173333334,92.15690206666667,61.0,102.0
461,92.10955373333334,92.28190166666668,56.0,22.0
462,91.88228173333334,92.37470440000001,65.0,102.0
463,92.10955373333334,92.38417406666667,49.0,51.0
464,92.33682573333334,92.45803746666668,61.0,100.0
465,92.56409773333334,93.07545973333335,59.0,102.0
466,92.56409773333334,93.09061120000001,63.0,102.0
467,93.24591373333334,93.38795873333335,59.0,108.0
468,93.01864173333334,93.75727573333334,54.0,51.0
469,93.70045773333335,93.92015400000001,59.0,114.0
470,93.70045773333335,93.96560840000001,66.0,111.0
471,94.15500173333335,94.20235006666668,66.0,7.0
472,92.56409773333334,94.23833480000002,47.0,97.0
473,93.92772973333335,94.24969840000001,54.0,82.0
474,94.15500173333335,94.31788000000002,59.0,87.0
475,94.83681773333335,94.93719620000002,61.0,108.0
476,94.60954573333335,95.12090773333334,56.0,84.0
477,95.06408973333335,95.34060400000001,61.0,105.0
478,95.06408973333335,95.37658873333335,65.0,112.0
479,95.51863373333335,95.54704273333334,70.0,53.0
480,94.38227373333335,95.61901220000001,49.0,102.0
481,95.51863373333335,95.75726933333334,61.0,102.0
482,95.29136173333335,95.81787520000002,53.0,90.0
483,95.74590573333334,95.91446580000002,49.0,1.0
484,95.74590573333334,95.94287480000001,56.0,49.0
485,95.51863373333335,96.06787440000001,65.0,96.0
486,95.97317773333334,96.16635893333334,61.0,97.0
487,96.20044973333334,96.45991860000001,63.0,94.0
488,96.20044973333334,96.53756986666667,66.0,105.0
489,96.65499373333334,96.73453893333334,63.0,71.0
490,96.42772173333334,96.94097766666668,58.0,84.0
491,96.88226573333334,97.11143166666668,66.0,117.0
492,96.88226573333334,97.11521953333335,63.0,108.0
493,96.20044973333334,97.2553706,51.0,100.0
494,97.10953773333334,97.33491580000002,58.0,87.0
495,97.33680973333334,97.63226333333334,63.0,105.0
496,97.33680973333334,97.91067153333334,66.0,114.0
497,97.79135373333335,97.93150480000001,63.0,64.0
498,98.01862573333335,98.51673020000001,66.0,111.0
499,98.47316973333335,98.80460806666667,53.0,90.0
500,98.70044173333335,98.98642566666668,58.0,111.0
501,98.92771373333335,99.18150080000001,53.0,93.0
502,99.15498573333335,99.42013640000002,58.0,111.0
503,98.01862573333335,99.63036300000002,46.0,100.0
504,99.38225773333335,99.66634773333335,53.0,90.0
505,99.60952973333335,99.72505966666668,58.0,92.0
506,99.15498573333335,99.73452933333334,65.0,112.0
507,99.83680173333335,100.10195240000002,59.0,87.0
508,99.83680173333335,100.21937626666669,63.0,100.0
509,100.29134573333334,100.32354260000001,59.0,12.0
510,100.06407373333334,100.55649640000001,54.0,78.0
511,100.51861773333334,100.78755626666668,59.0,111.0
512,100.51861773333334,100.99399500000001,66.0,102.0
513,100.97316173333334,101.25725173333335,59.0,97.0
514,101.20043373333334,101.34247873333335,63.0,108.0
515,99.83680173333335,101.39740280000001,47.0,100.0
516,100.74588973333334,101.44475113333334,54.0,84.0
517,101.42770573333334,101.71937146666669,66.0,94.0
518,101.65497773333334,102.14171860000002,65.0,109.0
519,102.10952173333335,102.18906693333335,61.0,80.0
520,101.88224973333335,102.45232366666669,56.0,80.0
521,102.33679373333335,102.62277766666668,65.0,102.0
522,102.33679373333335,102.65876240000001,61.0,92.0
523,102.56406573333335,103.05459446666669,53.0,90.0
524,102.79133773333335,103.0564884,61.0,89.0
525,102.79133773333335,103.06217020000001,68.0,100.0
526,103.01860973333335,103.16444260000002,56.0,69.0
527,101.65497773333334,103.29323006666668,49.0,97.0
528,103.24588173333335,103.36519953333335,53.0,61.0
529,103.24588173333335,103.37656313333335,61.0,84.0
530,103.47315373333335,103.96936426666667,61.0,87.0
531,103.47315373333335,104.05837913333335,65.0,90.0
532,103.92769773333335,104.11140926666668,53.0,11.0
533,103.47315373333335,104.21746953333334,56.0,94.0
534,104.15496973333335,104.42959006666668,61.0,105.0
535,104.15496973333335,104.47315053333335,68.0,105.0
536,104.38224173333334,104.62277126666667,56.0,76.0
537,104.60951373333334,104.84436146666668,61.0,97.0
538,103.47315373333335,105.05837593333335,49.0,100.0
539,104.60951373333334,105.16254226666668,65.0,105.0
540,105.06405773333334,105.21557240000001,61.0,42.0
541,105.29132973333334,106.96935466666667,61.0,87.0
542,105.29132973333334,106.98450613333334,65.0,74.0
543,105.29132973333334,106.99397580000002,56.0,89.0
544,105.29132973333334,107.00912726666668,49.0,92.0
545,107.10950573333335,107.80457926666668,54.0,71.0
546,107.10950573333335,107.84245793333335,61.0,80.0
547,107.56404973333335,108.20419920000002,49.0,39.0
548,108.01859373333335,108.72692480000002,54.0,89.0
549,108.01859373333335,108.77237920000002,61.0,100.0
550,107.10950573333335,108.85950013333334,42.0,89.0
551,108.92768173333334,109.74017913333334,58.0,94.0
552,108.92768173333334,109.74964880000002,54.0,82.0
553,109.83676973333334,110.06025386666668,54.0,89.0
554,108.92768173333334,110.28752586666668,39.0,85.0
555,110.29131373333335,110.67010040000001,54.0,60.0
556,109.83676973333334,110.69472153333335,58.0,102.0
557,109.83676973333334,110.70419120000001,63.0,97.0
558,110.74585773333335,111.38221933333335,54.0,80.0
559,110.74585773333335,111.38790113333334,58.0,89.0
560,110.74585773333335,111.83676333333335,42.0,97.0
561,111.20040173333335,111.84812693333335,49.0,34.0
562,111.65494573333335,111.88411166666668,58.0,111.0
563,111.65494573333335,111.89358133333334,54.0,97.0
564,111.65494573333335,112.00911126666668,61.0,94.0
565,112.56403373333335,113.15494093333335,61.0,97.0
566,112.56403373333335,113.21744073333335,56.0,84.0
567,113.01857773333334,113.66440900000002,53.0,31.0
568,112.56403373333335,113.69471193333335,46.0,100.0
569,113.47312173333334,113.90683246666669,56.0,94.0
570,113.47312173333334,113.92387786666669,61.0,100.0
571,113.47312173333334,114.04319566666668,65.0,93.0
572,113.92766573333334,114.21175573333335,46.0,97.0
573,114.38220973333335,114.98637446666667,63.0,80.0
574,114.38220973333335,115.02235920000001,59.0,76.0
575,114.38220973333335,115.55076660000002,47.0,105.0
576,115.29129773333335,115.67387226666668,63.0,97.0
577,115.29129773333335,115.69470553333335,59.0,92.0
578,114.83675373333335,115.74205386666668,54.0,44.0
579,115.74584173333335,116.02046206666668,47.0,82.0
580,115.29129773333335,116.12273446666669,66.0,94.0
581,116.20038573333335,116.83106553333334,61.0,84.0
582,116.20038573333335,116.83295946666668,58.0,78.0
583,116.20038573333335,117.31780640000001,46.0,97.0
584,116.65492973333335,117.39545766666669,53.0,41.0
585,117.10947373333335,117.57538133333335,65.0,90.0
586,117.10947373333335,117.59242673333335,58.0,97.0
587,117.56401773333334,117.81780480000002,46.0,94.0
588,118.01856173333334,118.70037773333335,59.0,92.0
589,118.01856173333334,118.74772606666669,54.0,80.0
590,118.47310573333336,119.13598240000002,51.0,27.0
591,118.01856173333334,119.15870960000001,44.0,100.0
592,118.92764973333335,119.28181526666668,59.0,108.0
593,118.92764973333335,119.29507280000001,54.0,94.0
594,118.92764973333335,119.33673933333336,63.0,102.0
595,119.38219373333335,119.75151073333335,44.0,92.0
596,119.83673773333335,120.09620660000002,56.0,100.0
597,119.83673773333335,120.09810053333335,49.0,102.0
598,119.83673773333335,120.12650953333335,61.0,97.0
599,120.51855373333335,120.59809893333335,54.0,89.0
600,120.51855373333335,120.61703826666668,61.0,94.0
601,120.51855373333335,120.61703826666668,66.0,100.0
602,120.51855373333335,120.67006840000002,47.0,105.0
603,120.97309773333335,121.60188360000002,49.0,55.0
604,120.97309773333335,121.60188360000002,49.0,97.0
605,120.97309773333335,121.66248946666668,61.0,82.0
606,121.65491373333334,121.66248946666668,61.0,80.0
607,120.97309773333335,121.67195913333335,53.0,35.0
608,120.97309773333335,121.67574700000002,56.0,73.0
609,120.97309773333335,121.68521666666668,65.0,82.0
610,120.97309773333335,121.69279240000002,68.0,97.0
611,121.65491373333334,122.34998726666669,54.0,71.0
612,122.10945773333334,122.74960720000001,49.0,39.0
613,122.56400173333336,123.27233280000002,54.0,89.0
614,122.56400173333336,123.31778720000001,61.0,100.0
615,121.65491373333334,123.40490813333335,42.0,89.0
616,123.47308973333335,124.28558713333335,58.0,94.0
617,123.47308973333335,124.29505680000001,54.0,82.0
618,124.38217773333335,124.60566186666668,54.0,89.0
619,123.47308973333335,124.83293386666668,39.0,85.0
620,124.83672173333335,125.21550840000002,54.0,60.0
621,124.38217773333335,125.24012953333335,58.0,102.0
622,124.38217773333335,125.24959920000002,63.0,97.0
623,125.29126573333335,125.92762733333335,54.0,80.0
624,125.29126573333335,125.93330913333335,58.0,89.0
625,125.29126573333335,126.38217133333335,42.0,97.0
626,125.74580973333335,126.39353493333336,49.0,34.0
627,126.20035373333334,126.42951966666668,58.0,111.0
628,126.20035373333334,126.43898933333335,54.0,97.0
629,126.20035373333334,126.55451926666669,61.0,94.0
630,127.10944173333336,127.70034893333334,61.0,97.0
631,127.10944173333336,127.76284873333336,56.0,84.0
632,127.56398573333335,128.20981700000002,53.0,31.0
633,127.10944173333336,128.24011993333335,46.0,100.0
634,128.01852973333334,128.4522404666667,56.0,94.0
635,128.01852973333334,128.4692858666667,61.0,100.0
636,128.01852973333334,128.58860366666667,65.0,93.0
637,128.47307373333334,128.75716373333336,46.0,97.0
638,128.92761773333336,129.53178246666667,63.0,80.0
639,128.92761773333336,129.56776720000002,59.0,76.0
640,128.92761773333336,130.0961746,47.0,105.0
641,129.83670573333336,130.2192802666667,63.0,97.0
642,129.83670573333336,130.24011353333336,59.0,92.0
643,129.38216173333336,130.2874618666667,54.0,44.0
644,130.29124973333336,130.5658700666667,47.0,82.0
645,129.83670573333336,130.6681424666667,66.0,94.0
646,130.74579373333336,131.37647353333335,61.0,84.0
647,130.74579373333336,131.37836746666667,58.0,78.0
648,130.74579373333336,131.8632144,46.0,97.0
649,131.20033773333336,131.9408656666667,53.0,41.0
650,131.65488173333335,132.12078933333336,65.0,90.0
651,131.65488173333335,132.13783473333336,58.0,97.0
652,132.10942573333335,132.3632128,46.0,94.0
653,132.56396973333335,132.9938926,54.0,94.0
654,132.56396973333335,133.04881666666668,59.0,97.0
655,132.56396973333335,133.06775600000003,44.0,97.0
656,133.47305773333335,133.97873793333335,46.0,97.0
657,133.47305773333335,134.1302526,58.0,97.0
658,133.47305773333335,134.21737353333336,61.0,100.0
659,134.60941773333334,134.80070500000002,61.0,100.0
660,134.60941773333334,134.80070500000002,65.0,102.0
661,134.60941773333334,134.8215382666667,49.0,102.0
662,134.60941773333334,134.8385836666667,56.0,105.0
663,135.06396173333334,135.6965354666667,58.0,94.0
664,135.06396173333334,135.86888340000002,63.0,94.0
665,135.06396173333334,136.04691313333336,66.0,105.0
666,135.74577773333334,136.05638280000002,58.0,94.0
667,135.06396173333334,136.1340340666667,51.0,108.0
668,135.97304973333334,136.14160980000003,63.0,100.0
669,136.20032173333334,136.8272136666667,61.0,84.0
670,136.20032173333334,136.902971,66.0,94.0
671,136.65486573333334,137.29690913333334,58.0,69.0
672,136.20032173333334,137.30827273333335,51.0,105.0
673,137.10940973333337,137.66433220000002,61.0,100.0
674,137.10940973333337,137.70978660000003,66.0,105.0
675,137.79122573333336,138.21736073333335,58.0,78.0
676,138.01849773333336,138.5450112,61.0,100.0
677,138.01849773333336,138.60182920000003,66.0,105.0
678,138.70031373333336,138.80448006666668,61.0,60.0
679,138.47304173333336,138.98440373333335,58.0,71.0
680,138.92758573333336,139.20788786666668,61.0,97.0
681,138.92758573333336,139.24576653333335,70.0,100.0
682,137.56395373333336,139.24766046666667,51.0,69.0
683,138.92758573333336,139.2533422666667,66.0,111.0
684,139.15485773333336,139.27606946666668,58.0,89.0
685,139.38212973333336,139.52417473333335,61.0,108.0
686,139.83667373333336,140.43894453333334,61.0,89.0
687,139.83667373333336,140.48061106666668,56.0,100.0
688,140.29121773333335,140.91053393333334,53.0,29.0
689,140.74576173333335,141.18136640000003,56.0,108.0
690,140.74576173333335,141.20409360000002,61.0,111.0
691,140.74576173333335,141.4692442666667,65.0,109.0
692,139.83667373333336,141.52606226666668,46.0,102.0
693,141.42757773333335,141.56772880000003,56.0,71.0
694,141.20030573333335,141.67568300000002,53.0,30.0
695,141.65484973333335,142.18893893333336,56.0,82.0
696,141.65484973333335,142.24954480000002,61.0,89.0
697,142.33666573333335,142.39158980000002,56.0,37.0
698,142.10939373333335,142.64348293333336,53.0,23.0
699,142.56393773333335,142.83666413333336,56.0,105.0
700,142.56393773333335,142.92189113333336,61.0,105.0
701,141.65484973333335,142.98249700000002,46.0,87.0
702,142.79120973333335,142.99954240000002,53.0,70.0
703,143.01848173333335,143.28363240000002,56.0,80.0
704,142.56393773333335,143.2874202666667,65.0,99.0
705,143.24575373333334,143.3915866,61.0,78.0
706,143.47302573333334,144.11317520000003,63.0,97.0
707,143.47302573333334,144.12075093333334,59.0,82.0
708,143.92756973333334,144.48249220000002,54.0,40.0
709,144.38211373333334,144.69271880000002,59.0,100.0
710,143.47302573333334,144.6984006,47.0,100.0
711,144.38211373333334,144.77983973333335,63.0,105.0
712,144.60938573333334,144.78552153333337,54.0,55.0
713,144.38211373333334,144.8328698666667,66.0,102.0
714,144.83665773333334,145.0601418666667,47.0,94.0
715,145.29120173333334,145.7817304666667,61.0,97.0
716,145.29120173333334,145.81960913333336,65.0,90.0
717,145.97301773333336,146.0771840666667,61.0,69.0
718,145.29120173333334,146.39915273333335,49.0,105.0
719,145.74574573333337,146.4067284666667,56.0,57.0
720,146.20028973333336,146.66240946666667,61.0,102.0
721,146.20028973333336,146.66240946666667,65.0,109.0
722,146.20028973333336,146.68324273333334,68.0,102.0
723,146.65483373333336,146.7590000666667,49.0,94.0
724,146.88210573333336,147.01278713333335,61.0,94.0
725,147.10937773333336,147.54119453333334,61.0,84.0
726,147.10937773333336,147.72490606666668,66.0,97.0
727,147.56392173333336,148.0771776666667,49.0,51.0
728,148.01846573333336,148.27982853333336,61.0,102.0
729,148.01846573333336,148.33475260000003,66.0,114.0
730,147.10937773333336,148.35558586666667,42.0,105.0
731,148.24573773333336,148.48437333333337,49.0,69.0
732,148.01846573333336,148.57907000000003,70.0,105.0
733,148.47300973333336,148.68702420000002,61.0,117.0
734,148.92755373333335,149.19838620000002,46.0,102.0
735,148.92755373333335,149.20785586666668,58.0,100.0
736,148.92755373333335,149.23247700000002,62.0,102.0
737,149.38209773333335,149.47300653333335,58.0,94.0
738,149.15482573333335,149.59043040000003,50.0,99.0
739,149.38209773333335,149.62073333333336,46.0,8.0
740,149.60936973333335,149.87452040000002,62.0,116.0
741,149.60936973333335,149.88588400000003,58.0,111.0
742,149.60936973333335,149.91050513333334,65.0,105.0
743,149.83664173333335,150.11126206666668,53.0,96.0
744,150.06391373333335,150.33853406666668,58.0,111.0
745,150.06391373333335,150.40671566666668,62.0,105.0
746,150.29118573333335,150.55254853333335,53.0,82.0
747,150.06391373333335,150.62262406666667,65.0,85.0
748,150.06391373333335,150.67376026666668,70.0,100.0
749,150.51845773333335,150.67565420000003,62.0,11.0
750,150.51845773333335,150.75709333333336,58.0,92.0
751,150.74572973333335,151.37262166666667,61.0,84.0
752,150.74572973333335,151.44837900000002,66.0,94.0
753,151.20027373333335,151.84231713333335,58.0,69.0
754,150.74572973333335,151.85368073333336,51.0,105.0
755,151.65481773333335,152.20974020000003,61.0,100.0
756,151.65481773333335,152.2551946,66.0,105.0
757,152.33663373333334,152.76276873333336,58.0,78.0
758,152.56390573333334,153.0904192,61.0,100.0
759,152.56390573333334,153.1472372,66.0,105.0
760,153.24572173333334,153.3498880666667,61.0,60.0
761,153.01844973333334,153.52981173333336,58.0,71.0
762,153.47299373333334,153.7532958666667,61.0,97.0
763,153.47299373333334,153.79117453333336,70.0,100.0
764,152.10936173333334,153.79306846666668,51.0,69.0
765,153.47299373333334,153.79875026666667,66.0,111.0
766,153.70026573333337,153.8214774666667,58.0,89.0
767,153.92753773333337,154.06958273333336,61.0,108.0
768,154.38208173333337,154.98435253333335,61.0,89.0
769,154.38208173333337,155.0260190666667,56.0,100.0
770,154.83662573333336,155.45594193333335,53.0,29.0
771,155.29116973333336,155.7267744,56.0,108.0
772,155.29116973333336,155.74950160000003,61.0,111.0
773,155.29116973333336,156.0146522666667,65.0,109.0
774,154.38208173333337,156.0714702666667,46.0,102.0
775,155.97298573333336,156.1131368,56.0,71.0
776,155.74571373333336,156.22109100000003,53.0,30.0
777,156.20025773333336,156.73434693333334,56.0,82.0
778,156.20025773333336,156.79495280000003,61.0,89.0
779,156.88207373333336,156.93699780000003,56.0,37.0
780,156.65480173333336,157.18889093333334,53.0,23.0
781,157.10934573333336,157.38207213333337,56.0,105.0
782,157.10934573333336,157.46729913333334,61.0,105.0
783,156.20025773333336,157.52790500000003,46.0,87.0
784,157.33661773333336,157.54495040000003,53.0,70.0
785,157.56388973333335,157.82904040000003,56.0,80.0
786,157.10934573333336,157.8328282666667,65.0,99.0
787,157.79116173333335,157.93699460000002,61.0,78.0
788,158.01843373333335,158.6585832,63.0,97.0
789,158.01843373333335,158.66615893333335,59.0,82.0
790,158.47297773333335,159.02790020000003,54.0,40.0
791,158.92752173333335,159.23812680000003,59.0,100.0
792,158.01843373333335,159.24380860000002,47.0,100.0
793,158.92752173333335,159.32524773333336,63.0,105.0
794,159.15479373333335,159.33092953333335,54.0,55.0
795,158.92752173333335,159.37827786666668,66.0,102.0
796,159.38206573333335,159.60554986666668,47.0,94.0
797,159.83660973333335,160.48244100000002,58.0,92.0
798,159.83660973333335,160.50895606666668,61.0,89.0
799,159.83660973333335,160.52410753333336,65.0,82.0
800,160.29115373333335,160.84607620000003,53.0,65.0
801,159.83660973333335,160.98243940000003,46.0,105.0
802,160.74569773333334,161.06198460000002,56.0,100.0
803,160.74569773333334,161.15478733333336,61.0,97.0
804,160.97296973333334,161.16046913333335,53.0,82.0
805,160.74569773333334,161.24759006666667,65.0,93.0
806,161.20024173333334,161.52410433333336,46.0,102.0
807,161.65478573333334,161.91425460000002,58.0,92.0
808,161.65478573333334,162.25895046666668,63.0,87.0
809,162.10932973333337,162.4066772666667,58.0,69.0
810,161.65478573333334,162.69266120000003,51.0,114.0
811,162.56387373333337,162.82334260000002,58.0,111.0
812,162.56387373333337,162.82334260000002,66.0,111.0
813,162.56387373333337,162.84038800000002,63.0,117.0
814,163.01841773333337,163.15478093333334,58.0,94.0
815,163.24568973333336,163.50515860000002,58.0,82.0
816,163.24568973333336,163.57334020000002,65.0,85.0
817,163.70023373333336,164.07333860000003,58.0,92.0
818,162.79114573333337,165.10363833333335,51.0,87.0
819,163.70023373333336,165.1566684666667,63.0,92.0
820,165.29113773333336,165.91802966666668,61.0,84.0
821,165.29113773333336,165.99378700000003,66.0,94.0
822,165.74568173333336,166.38772513333336,58.0,69.0
823,165.29113773333336,166.39908873333334,51.0,105.0
824,166.20022573333335,166.7551482,61.0,100.0
825,166.20022573333335,166.80060260000002,66.0,105.0
826,166.88204173333335,167.30817673333337,58.0,78.0
827,167.10931373333335,167.63582720000002,61.0,100.0
828,167.10931373333335,167.69264520000002,66.0,105.0
829,167.79112973333335,167.8952960666667,61.0,60.0
830,167.56385773333335,168.07521973333334,58.0,71.0
831,168.01840173333335,168.2987038666667,61.0,97.0
832,168.01840173333335,168.33658253333334,70.0,100.0
833,166.65476973333335,168.3384764666667,51.0,69.0
834,168.01840173333335,168.34415826666668,66.0,111.0
835,168.24567373333335,168.3668854666667,58.0,89.0
836,168.47294573333335,168.61499073333334,61.0,108.0
837,168.92748973333335,169.52976053333336,61.0,89.0
838,168.92748973333335,169.5714270666667,56.0,100.0
839,169.38203373333334,170.00134993333336,53.0,29.0
840,169.83657773333334,170.27218240000002,56.0,108.0
841,169.83657773333334,170.2949096,61.0,111.0
842,169.83657773333334,170.56006026666668,65.0,109.0
843,168.92748973333335,170.6168782666667,46.0,102.0
844,170.51839373333337,170.65854480000002,56.0,71.0
845,170.29112173333337,170.766499,53.0,30.0
846,170.74566573333337,171.27975493333335,56.0,82.0
847,170.74566573333337,171.3403608,61.0,89.0
848,171.42748173333337,171.4824058,56.0,37.0
849,171.20020973333337,171.73429893333335,53.0,23.0
850,171.65475373333337,171.92748013333335,56.0,105.0
851,171.65475373333337,172.01270713333335,61.0,105.0
852,170.74566573333337,172.073313,46.0,87.0
853,171.88202573333336,172.0903584,53.0,70.0
854,172.10929773333336,172.37444840000003,56.0,80.0
855,171.65475373333337,172.37823626666668,65.0,99.0
856,172.33656973333336,172.48240260000003,61.0,78.0
857,172.56384173333336,173.20399120000002,63.0,97.0
858,172.56384173333336,173.21156693333336,59.0,82.0
859,173.01838573333336,173.5733082,54.0,40.0
860,173.47292973333336,173.7835348,59.0,100.0
861,172.56384173333336,173.78921660000003,47.0,100.0
862,173.47292973333336,173.87065573333336,63.0,105.0
863,173.70020173333336,173.87633753333336,54.0,55.0
864,173.47292973333336,173.9236858666667,66.0,102.0
865,173.92747373333336,174.1509578666667,47.0,94.0
866,174.38201773333336,174.87254646666668,61.0,97.0
867,174.38201773333336,174.91042513333335,65.0,90.0
868,175.06383373333335,175.16800006666668,61.0,69.0
869,174.38201773333336,175.48996873333337,49.0,105.0
870,174.83656173333335,175.49754446666668,56.0,57.0
871,175.29110573333335,175.7532254666667,61.0,102.0
872,175.29110573333335,175.7532254666667,65.0,109.0
873,175.29110573333335,175.77405873333336,68.0,102.0
874,175.74564973333335,175.84981606666668,49.0,94.0
875,175.97292173333335,176.10360313333337,61.0,94.0
876,176.20019373333335,176.63201053333336,61.0,84.0
877,176.20019373333335,176.8157220666667,66.0,97.0
878,176.65473773333335,177.1679936666667,49.0,51.0
879,177.10928173333335,177.37064453333335,61.0,102.0
880,177.10928173333335,177.42556860000002,66.0,114.0
881,176.20019373333335,177.4464018666667,42.0,105.0
882,177.33655373333335,177.57518933333336,49.0,69.0
883,177.10928173333335,177.66988600000002,70.0,105.0
884,177.56382573333335,177.7778402,61.0,117.0
885,178.01836973333334,178.28920220000003,46.0,102.0
886,178.01836973333334,178.2986718666667,58.0,100.0
887,178.01836973333334,178.32329300000004,62.0,102.0
888,178.47291373333334,178.56382253333337,58.0,94.0
889,178.24564173333334,178.68124640000002,50.0,99.0
890,178.47291373333334,178.71154933333335,46.0,8.0
891,178.70018573333337,178.9653364,62.0,116.0
892,178.70018573333337,178.97670000000002,58.0,111.0
893,178.70018573333337,179.00132113333336,65.0,105.0
894,178.92745773333337,179.2020780666667,53.0,96.0
895,179.15472973333337,179.4293500666667,58.0,111.0
896,179.15472973333337,179.4975316666667,62.0,105.0
897,179.38200173333337,179.64336453333337,53.0,82.0
898,179.15472973333337,179.7134400666667,65.0,85.0
899,179.15472973333337,179.7645762666667,70.0,100.0
900,179.60927373333337,179.76647020000001,62.0,11.0
901,179.60927373333337,179.84790933333335,58.0,92.0
902,179.83654573333337,180.4634376666667,61.0,84.0
903,179.83654573333337,180.53919500000003,66.0,94.0
904,180.29108973333337,180.93313313333337,58.0,69.0
905,179.83654573333337,180.94449673333335,51.0,105.0
906,180.74563373333336,181.30055620000002,61.0,100.0
907,180.74563373333336,181.34601060000003,66.0,105.0
908,181.42744973333336,181.85358473333335,58.0,78.0
909,181.65472173333336,182.18123520000003,61.0,100.0
910,181.65472173333336,182.23805320000002,66.0,105.0
911,182.33653773333336,182.44070406666668,61.0,60.0
912,182.10926573333336,182.62062773333335,58.0,71.0
913,182.56380973333336,182.84411186666668,61.0,97.0
914,182.56380973333336,182.88199053333335,70.0,100.0
915,181.20017773333336,182.8838844666667,51.0,69.0
916,182.56380973333336,182.8895662666667,66.0,111.0
917,182.79108173333336,182.91229346666668,58.0,89.0
918,183.01835373333336,183.16039873333335,61.0,108.0
919,183.47289773333335,184.07516853333337,61.0,89.0
920,183.47289773333335,184.11683506666668,56.0,100.0
921,183.92744173333335,184.54675793333337,53.0,29.0
922,184.38198573333335,184.81759040000003,56.0,108.0
923,184.38198573333335,184.84031760000002,61.0,111.0
924,184.38198573333335,185.1054682666667,65.0,109.0
925,183.47289773333335,185.16228626666668,46.0,102.0
926,185.06380173333335,185.20395280000002,56.0,71.0
927,184.83652973333335,185.31190700000002,53.0,30.0
928,185.29107373333335,185.82516293333336,56.0,82.0
929,185.29107373333335,185.88576880000002,61.0,89.0
930,185.97288973333335,186.02781380000002,56.0,37.0
931,185.74561773333335,186.27970693333336,53.0,23.0
932,186.20016173333335,186.47288813333336,56.0,105.0
933,186.20016173333335,186.55811513333336,61.0,105.0
934,185.29107373333335,186.61872100000002,46.0,87.0
935,186.42743373333334,186.63576640000002,53.0,70.0
936,186.65470573333334,186.91985640000001,56.0,80.0
937,186.20016173333335,186.92364426666668,65.0,99.0
938,186.88197773333337,187.02781060000004,61.0,78.0
939,187.10924973333337,187.74939920000003,63.0,97.0
940,187.10924973333337,187.75697493333337,59.0,82.0
941,187.56379373333337,188.11871620000002,54.0,40.0
942,188.01833773333337,188.32894280000002,59.0,100.0
943,187.10924973333337,188.3346246,47.0,100.0
944,188.01833773333337,188.41606373333335,63.0,105.0
945,188.24560973333337,188.42174553333336,54.0,55.0
946,188.01833773333337,188.4690938666667,66.0,102.0
947,188.47288173333337,188.6963658666667,47.0,94.0
948,188.92742573333337,189.573257,58.0,92.0
949,188.92742573333337,189.5997720666667,61.0,89.0
950,188.92742573333337,189.61492353333335,65.0,82.0
951,189.38196973333336,189.93689220000002,53.0,65.0
952,188.92742573333337,190.07325540000002,46.0,105.0
953,189.83651373333336,190.15280060000003,56.0,100.0
954,189.83651373333336,190.24560333333335,61.0,97.0
955,190.06378573333336,190.25128513333337,53.0,82.0
956,189.83651373333336,190.3384060666667,65.0,93.0
957,190.29105773333336,190.61492033333334,46.0,102.0
958,190.74560173333336,191.00507060000004,58.0,92.0
959,190.74560173333336,191.3497664666667,63.0,87.0
960,191.20014573333336,191.49749326666668,58.0,69.0
961,190.74560173333336,191.78347720000002,51.0,114.0
962,191.65468973333336,191.91415860000004,58.0,111.0
963,191.65468973333336,191.91415860000004,66.0,111.0
964,191.65468973333336,191.93120400000004,63.0,117.0
965,192.10923373333335,192.24559693333336,58.0,94.0
966,192.33650573333335,192.59597460000003,58.0,82.0
967,192.33650573333335,192.66415620000004,65.0,85.0
968,192.79104973333335,193.16415460000002,58.0,92.0
969,191.88196173333336,194.19445433333337,51.0,87.0
970,192.79104973333335,194.2474844666667,63.0,92.0
971,194.38195373333335,194.96149733333337,59.0,71.0
972,194.38195373333335,194.96149733333337,62.0,59.0
973,194.38195373333335,195.02210320000003,69.0,55.0
974,194.38195373333335,195.45581393333336,47.0,60.0
975,194.83649773333335,195.47854113333335,54.0,29.0
976,195.29104173333337,195.58081353333336,62.0,109.0
977,195.29104173333337,195.6395254666667,59.0,87.0
978,195.29104173333337,195.6395254666667,69.0,85.0
979,195.74558573333337,196.13573600000004,47.0,71.0
980,196.20012973333337,196.80618840000002,68.0,84.0
981,196.20012973333337,196.81565806666669,59.0,71.0
982,196.20012973333337,196.81755200000003,64.0,82.0
983,196.20012973333337,197.46338326666668,52.0,67.0
984,196.65467373333337,197.4936862,56.0,23.0
985,197.10921773333337,197.51830733333335,59.0,84.0
986,197.10921773333337,197.55050420000003,64.0,89.0
987,197.10921773333337,197.58648893333336,68.0,89.0
988,198.01830573333336,198.63383406666668,59.0,69.0
989,198.01830573333336,198.65466733333335,64.0,80.0
990,198.47284973333336,199.1508778666667,56.0,41.0
991,198.01830573333336,199.19065046666668,49.0,89.0
992,198.92739373333336,199.3270136666667,59.0,97.0
993,198.92739373333336,199.34595300000004,64.0,102.0
994,198.92739373333336,199.39140740000002,68.0,97.0
995,199.38193773333336,199.80807273333335,49.0,89.0
996,199.83648173333336,200.11299600000004,61.0,76.0
997,199.83648173333336,200.3497376666667,66.0,89.0
998,200.29102573333336,200.5656460666667,61.0,89.0
999,200.74556973333335,200.97852353333337,66.0,100.0
1000,200.74556973333335,201.0883716666667,61.0,94.0
1001,199.83648173333336,201.2531438666667,54.0,67.0
1002,201.20011373333335,201.2985982666667,64.0,84.0
1003,201.65465773333335,202.33268586666668,59.0,73.0
1004,201.65465773333335,202.33647373333335,62.0,70.0
1005,202.10920173333335,202.73798760000003,54.0,27.0
1006,201.65465773333335,202.85919933333335,47.0,100.0
1007,202.56374573333335,203.04480480000004,59.0,92.0
1008,202.56374573333335,203.13571360000003,62.0,93.0
1009,202.56374573333335,203.21147093333337,66.0,94.0
1010,203.01828973333335,203.32510693333336,54.0,55.0
1011,203.01828973333335,203.35162200000002,47.0,1.0
1012,203.24556173333335,203.3724552666667,59.0,78.0
1013,203.47283373333335,204.06942273333337,64.0,97.0
1014,203.47283373333335,204.10919533333336,59.0,84.0
1015,203.47283373333335,204.9747228666667,52.0,84.0
1016,203.92737773333337,204.98229860000004,56.0,46.0
1017,204.38192173333337,205.0429044666667,59.0,92.0
1018,204.38192173333337,205.07510133333335,64.0,102.0
1019,204.38192173333337,205.0940406666667,68.0,94.0
1020,205.29100973333337,205.8951744666667,61.0,78.0
1021,205.29100973333337,205.9179016666667,66.0,94.0
1022,205.74555373333337,206.28911260000004,56.0,67.0
1023,206.20009773333337,206.4917634666667,61.0,100.0
1024,206.20009773333337,206.64138420000003,66.0,105.0
1025,206.65464173333336,206.91979240000003,61.0,82.0
1026,206.42736973333336,206.96145893333335,56.0,78.0
1027,205.29100973333337,206.96524680000002,49.0,92.0
1028,207.10918573333336,208.42736333333335,49.0,92.0
1029,207.10918573333336,208.4406208666667,56.0,87.0
1030,207.10918573333336,208.6565292666667,59.0,94.0
1031,207.10918573333336,208.6565292666667,65.0,65.0
1032,209.11675506666668,213.12431800000002,42.0,94.0
1033,209.32319380000004,213.1281058666667,49.0,62.0
1034,209.6906168666667,213.33075673333337,61.0,44.0
1035,209.60538986666668,213.34022640000003,58.0,78.0
1036,209.75501060000002,213.39136260000004,66.0,62.0
1037,209.4860720666667,213.4065140666667,54.0,48.0
