,start,end,pitch,velocity
0,26.513671787500005,26.765195725000005,61.0,87.0
1,26.879524787500003,27.115804850000004,66.0,81.0
2,27.245377787500004,27.432877450000003,66.0,86.0
3,27.611230787500006,27.778913412500003,66.0,86.0
4,27.977083787500003,28.071595812500004,66.0,77.0
5,28.160010287500004,28.262144250000006,66.0,79.0
6,28.342936787500005,28.541107162500005,64.0,88.0
7,28.525863287500005,28.708789787500006,66.0,97.0
8,28.708789787500006,28.891716287500007,66.0,97.0
9,28.891716287500007,29.074642787500004,66.0,97.0
10,29.074642787500004,29.257569287500004,66.0,97.0
11,29.257569287500004,29.440495787500005,66.0,97.0
12,29.440495787500005,29.623422287500006,64.0,97.0
13,29.623422287500006,29.806348787500006,64.0,97.0
14,29.806348787500006,29.989275287500003,66.0,97.0
15,29.989275287500003,30.172201787500004,66.0,97.0
16,30.172201787500004,30.355128287500005,66.0,97.0
17,30.355128287500005,30.538054787500005,66.0,97.0
18,30.538054787500005,30.903907787500007,66.0,97.0
19,30.903907787500007,31.269760787500005,64.0,97.0
20,31.269760787500005,31.635613787500006,66.0,97.0
21,31.635613787500006,31.818540287500007,64.0,97.0
22,31.818540287500007,32.18439328750001,64.0,97.0
23,32.18439328750001,32.36731978750001,66.0,97.0
24,32.36731978750001,32.55024628750001,66.0,97.0
25,32.55024628750001,32.7331727875,64.0,97.0
26,32.7331727875,32.9160992875,66.0,97.0
27,32.9160992875,33.099025787500004,66.0,97.0
28,33.099025787500004,33.281952287500005,69.0,97.0
29,33.281952287500005,33.647805287500006,66.0,97.0
30,33.647805287500006,33.83073178750001,66.0,97.0
31,33.83073178750001,34.01365828750001,66.0,97.0
32,34.01365828750001,34.19658478750001,64.0,97.0
33,34.19658478750001,34.37951128750001,66.0,97.0
34,34.37951128750001,34.56243778750001,66.0,97.0
35,34.56243778750001,34.7453642875,69.0,97.0
36,34.7453642875,35.111217287500004,66.0,97.0
37,35.111217287500004,35.294143787500005,66.0,97.0
38,35.294143787500005,35.477070287500005,66.0,97.0
39,35.477070287500005,35.659996787500006,66.0,97.0
40,35.659996787500006,35.84292328750001,66.0,97.0
41,35.84292328750001,36.02584978750001,66.0,97.0
42,36.02584978750001,36.20877628750001,64.0,97.0
43,36.20877628750001,36.57462928750001,66.0,97.0
44,36.57462928750001,36.7575557875,66.0,97.0
45,36.7575557875,36.940482287500004,66.0,97.0
46,36.940482287500004,37.123408787500004,66.0,97.0
47,37.123408787500004,37.489261787500006,66.0,97.0
48,37.489261787500006,37.672188287500006,61.0,97.0
49,37.672188287500006,38.22096778750001,66.0,97.0
50,38.22096778750001,38.40389428750001,66.0,97.0
51,38.40389428750001,38.76974728750001,66.0,97.0
52,38.76974728750001,38.952673787500004,66.0,97.0
53,38.952673787500004,39.135600287500004,66.0,97.0
54,39.135600287500004,39.318526787500005,64.0,97.0
55,39.318526787500005,39.501453287500006,66.0,97.0
56,39.501453287500006,39.86730628750001,66.0,97.0
57,39.86730628750001,40.05023278750001,66.0,97.0
58,40.05023278750001,40.23315928750001,66.0,97.0
59,40.23315928750001,40.41608578750001,66.0,97.0
60,40.41608578750001,40.59901228750001,64.0,97.0
61,40.59901228750001,40.78193878750001,61.0,97.0
62,40.964865287500004,41.147791787500005,66.0,97.0
63,41.147791787500005,41.330718287500005,66.0,97.0
64,41.330718287500005,41.513644787500006,66.0,97.0
65,41.513644787500006,41.69657128750001,66.0,97.0
66,41.69657128750001,41.87949778750001,66.0,97.0
67,41.87949778750001,42.06242428750001,66.0,97.0
68,42.06242428750001,42.42827728750001,66.0,97.0
69,42.42827728750001,42.79413028750001,66.0,97.0
70,42.79413028750001,42.977056787500004,64.0,97.0
71,42.977056787500004,43.159983287500005,61.0,97.0
72,43.159983287500005,43.342909787500005,64.0,97.0
73,43.342909787500005,43.525836287500006,66.0,97.0
74,43.525836287500006,43.89168928750001,61.0,97.0
75,43.89168928750001,44.07461578750001,66.0,97.0
76,44.07461578750001,44.25754228750001,66.0,97.0
77,44.25754228750001,44.44046878750001,66.0,97.0
78,44.44046878750001,44.80632178750001,66.0,97.0
79,44.80632178750001,44.98924828750001,69.0,97.0
80,44.98924828750001,45.355101287500005,69.0,97.0
81,45.355101287500005,45.72095428750001,71.0,97.0
82,45.90388078750001,46.26973378750001,74.0,97.0
83,46.26973378750001,46.45266028750001,73.0,97.0
84,46.45266028750001,46.81851328750001,71.0,97.0
85,46.81851328750001,47.367292787500006,69.0,97.0
86,47.367292787500006,48.83070478750001,66.0,97.0
87,49.196557787500005,49.467898762500006,61.0,89.0
88,49.562410787500006,49.81241033750001,73.0,90.0
89,49.92826378750001,50.15997068750001,71.0,87.0
90,50.29411678750001,50.91301811250001,69.0,87.0
91,51.02582278750001,51.49076097500001,68.0,87.0
92,51.57460228750001,51.92673580000001,66.0,90.0
93,52.12338178750001,52.36880817500001,61.0,91.0
94,52.48923478750001,52.72551485000001,73.0,86.0
95,52.85508778750001,53.07307520000001,71.0,88.0
96,53.22094078750001,53.41606238750001,69.0,87.0
97,53.58679378750001,53.85051282500001,69.0,90.0
98,53.95264678750001,54.27734132500001,69.0,88.0
99,54.31849978750001,54.46026782500001,68.0,86.0
100,54.50142628750001,55.007522937500006,66.0,86.0
101,55.416058787500006,55.70416802500001,71.0,84.0
102,55.78191178750001,56.07916735000001,69.0,87.0
103,56.14776478750001,56.38709362500001,68.0,87.0
104,56.51361778750001,56.61422736250001,68.0,87.0
105,56.69654428750001,56.98617791250001,68.0,92.0
106,57.06239728750001,57.30934806250001,68.0,87.0
107,57.61117678750001,57.84898123750001,68.0,92.0
108,57.97702978750001,58.08221252500001,68.0,84.0
109,58.15995628750001,58.47855327500001,68.0,87.0
110,58.52580928750001,58.89775983750001,64.0,87.0
111,59.07458878750001,59.35812486250001,71.0,87.0
112,59.44044178750001,59.57153911250001,69.0,89.0
113,59.62336828750001,59.86879467500001,71.0,87.0
114,59.98922128750001,60.30781827500001,76.0,86.0
115,60.35507428750001,61.05781692500001,73.0,102.0
116,61.26970678750001,61.541047762500014,71.0,86.0
117,61.63555978750001,61.92824218750001,73.0,90.0
118,62.00141278750001,62.60811901250001,78.0,86.0
119,62.73311878750001,63.17366677500001,66.0,87.0
120,63.28189828750001,63.67519026250001,68.0,87.0
121,63.83067778750001,64.08372611250002,78.0,86.0
122,64.19653078750001,64.42671330000002,76.0,87.0
123,64.56238378750001,64.80933456250001,74.0,87.0
124,64.92823678750001,65.47396751250001,76.0,86.0
125,65.65994278750001,66.15689311250001,68.0,78.0
126,66.20872228750001,66.62488007500001,66.0,86.0
127,67.1233547875,67.40079331250001,71.0,90.0
128,67.4892077875,67.74073172500002,73.0,91.0
129,67.85506078750001,68.069999425,74.0,86.0
130,68.22091378750001,68.4251817125,74.0,91.0
131,68.58676678750001,68.82457123750001,74.0,85.0
132,68.95261978750001,69.04255865000002,66.0,87.0
133,69.1355462875,69.23615586250001,66.0,81.0
134,69.31847278750001,69.56999672500001,65.0,83.0
135,69.68432578750001,69.97700818750002,65.0,85.0
136,70.05017878750002,70.18584927500001,73.0,90.0
137,70.23310528750001,70.74072632500001,71.0,86.0
138,70.78188478750002,72.25901627500001,66.0,82.0
139,72.61114978750001,72.88249076250001,61.0,89.0
140,72.97700278750001,73.22700233750001,73.0,90.0
141,73.34285578750001,73.57456268750002,71.0,87.0
142,73.70870878750002,74.32761011250001,69.0,87.0
143,74.44041478750002,74.90535297500001,68.0,87.0
144,74.98919428750001,75.34132780000002,66.0,90.0
145,75.53797378750001,75.78340017500001,61.0,91.0
146,75.90382678750001,76.14010685000001,73.0,86.0
147,76.26967978750001,76.48766720000002,71.0,88.0
148,76.63553278750001,76.83065438750002,69.0,87.0
149,77.00138578750001,77.26510482500001,69.0,90.0
150,77.36723878750001,77.69193332500001,69.0,88.0
151,77.73309178750002,77.87485982500002,68.0,86.0
152,77.91601828750001,78.42211493750001,66.0,86.0
153,78.83065078750002,79.11876002500001,71.0,84.0
154,79.19650378750002,79.49375935000002,69.0,87.0
155,79.56235678750001,79.80168562500002,68.0,87.0
156,79.92820978750001,80.02881936250002,68.0,87.0
157,80.11113628750002,80.40076991250001,68.0,92.0
158,80.47698928750002,80.72394006250002,68.0,87.0
159,81.02576878750001,81.26357323750001,68.0,92.0
160,81.39162178750001,81.49680452500002,68.0,84.0
161,81.57454828750001,81.89314527500001,68.0,87.0
162,81.94040128750001,82.31235183750002,64.0,87.0
163,82.48918078750002,82.77271686250002,71.0,87.0
164,82.85503378750002,82.98613111250002,69.0,89.0
165,83.03796028750001,83.28338667500002,71.0,87.0
166,83.40381328750001,83.72241027500002,76.0,86.0
167,83.76966628750002,84.47240892500001,73.0,102.0
168,84.68429878750001,84.95563976250001,71.0,86.0
169,85.05015178750001,85.34283418750002,73.0,90.0
170,85.41600478750001,86.02271101250001,78.0,86.0
171,86.14771078750002,86.58825877500001,66.0,87.0
172,86.69649028750001,87.08978226250001,68.0,87.0
173,87.24526978750002,87.49831811250002,78.0,86.0
174,87.61112278750001,87.84130530000002,76.0,87.0
175,87.97697578750001,88.22392656250001,74.0,87.0
176,88.34282878750001,88.88855951250001,76.0,86.0
177,89.07453478750001,89.57148511250001,68.0,78.0
178,89.62331428750002,90.03947207500002,66.0,86.0
179,90.53794678750002,90.81538531250001,71.0,90.0
180,90.90379978750002,91.15532372500002,73.0,91.0
181,91.26965278750002,91.48459142500002,74.0,86.0
182,91.63550578750002,91.83977371250002,74.0,91.0
183,92.00135878750001,92.23916323750002,74.0,85.0
184,92.36721178750001,92.45715065000002,66.0,87.0
185,92.55013828750002,92.65074786250001,66.0,81.0
186,92.73306478750001,92.98458872500002,65.0,83.0
187,93.09891778750001,93.39160018750002,65.0,85.0
188,93.46477078750002,93.60044127500002,73.0,90.0
189,93.64769728750002,94.15531832500001,71.0,86.0
190,94.19647678750002,95.67360827500002,66.0,82.0
191,97.12330078750001,97.35958085000001,61.0,81.0
192,97.48915378750002,97.67665345000002,66.0,86.0
193,97.85500678750002,98.02268941250001,66.0,86.0
194,98.22085978750002,98.31537181250002,66.0,77.0
195,98.40378628750001,98.58671278750002,66.0,79.0
196,98.76963928750001,98.95256578750002,66.0,97.0
197,98.95256578750002,99.13549228750001,66.0,97.0
198,99.13549228750001,99.31841878750002,66.0,97.0
199,99.31841878750002,99.50134528750002,66.0,97.0
200,99.50134528750002,99.68427178750002,66.0,97.0
201,99.68427178750002,99.86719828750002,66.0,97.0
202,99.86719828750002,100.05012478750001,61.0,97.0
203,100.05012478750001,100.23305128750002,66.0,97.0
204,100.41597778750001,100.59890428750002,66.0,97.0
205,100.59890428750002,100.78183078750001,66.0,97.0
206,100.78183078750001,100.96475728750002,66.0,97.0
207,100.96475728750002,101.14768378750001,66.0,97.0
208,101.14768378750001,101.33061028750002,66.0,97.0
209,101.33061028750002,101.51353678750002,66.0,97.0
210,101.51353678750002,101.69646328750002,66.0,97.0
211,101.69646328750002,101.87938978750002,66.0,97.0
212,101.87938978750002,102.06231628750002,66.0,97.0
213,102.06231628750002,102.42816928750001,66.0,97.0
214,102.61109578750002,102.97694878750002,61.0,97.0
215,103.15987528750001,103.34280178750002,66.0,97.0
216,103.34280178750002,103.52572828750002,66.0,97.0
217,103.52572828750002,103.70865478750002,66.0,97.0
218,103.70865478750002,104.07450778750002,69.0,97.0
219,104.44036078750001,104.62328728750002,66.0,97.0
220,104.62328728750002,104.80621378750001,66.0,97.0
221,104.80621378750001,104.98914028750002,66.0,97.0
222,104.98914028750002,105.35499328750002,69.0,97.0
223,105.35499328750002,105.53791978750002,69.0,97.0
224,105.53791978750002,105.72084628750002,69.0,97.0
225,105.72084628750002,105.90377278750002,69.0,97.0
226,105.90377278750002,106.08669928750002,69.0,97.0
227,106.26962578750002,106.45255228750001,69.0,97.0
228,106.45255228750001,106.63547878750002,69.0,97.0
229,106.63547878750002,106.81840528750001,69.0,97.0
230,106.81840528750001,107.00133178750002,69.0,97.0
231,107.00133178750002,107.18425828750001,69.0,97.0
232,107.18425828750001,107.36718478750002,69.0,97.0
233,107.36718478750002,107.55011128750002,69.0,97.0
234,107.55011128750002,107.73303778750002,66.0,97.0
235,107.73303778750002,107.91596428750002,64.0,97.0
236,107.91596428750002,108.28181728750002,66.0,97.0
237,108.28181728750002,108.46474378750001,66.0,97.0
238,108.46474378750001,108.64767028750002,66.0,97.0
239,108.64767028750002,108.83059678750001,66.0,97.0
240,108.83059678750001,109.01352328750002,66.0,97.0
241,109.01352328750002,109.19644978750001,66.0,97.0
242,109.37937628750002,109.56230278750002,66.0,97.0
243,109.56230278750002,109.74522928750002,66.0,97.0
244,109.74522928750002,109.92815578750002,66.0,97.0
245,109.92815578750002,110.11108228750003,66.0,97.0
246,110.11108228750003,110.29400878750002,66.0,97.0
247,110.29400878750002,110.65986178750002,61.0,97.0
248,110.65986178750002,110.84278828750001,66.0,97.0
249,110.84278828750001,111.02571478750002,66.0,97.0
250,111.02571478750002,111.20864128750001,66.0,97.0
251,111.20864128750001,111.39156778750002,66.0,97.0
252,111.39156778750002,111.57449428750002,66.0,97.0
253,111.57449428750002,111.75742078750002,66.0,97.0
254,111.75742078750002,111.94034728750002,61.0,97.0
255,112.12327378750003,112.30620028750002,66.0,97.0
256,112.30620028750002,112.67205328750002,66.0,97.0
257,112.67205328750002,112.85497978750001,66.0,97.0
258,112.85497978750001,113.03790628750002,66.0,97.0
259,113.03790628750002,113.22083278750002,69.0,97.0
260,113.40375928750002,113.58668578750002,64.0,97.0
261,113.58668578750002,113.76961228750002,66.0,97.0
262,113.76961228750002,114.13546528750003,61.0,97.0
263,114.13546528750003,114.31839178750002,69.0,97.0
264,114.31839178750002,114.50131828750003,69.0,97.0
265,114.50131828750003,114.68424478750002,69.0,97.0
266,114.68424478750002,115.05009778750002,71.0,97.0
267,115.05009778750002,115.23302428750002,71.0,97.0
268,115.41595078750002,115.59887728750002,71.0,97.0
269,115.59887728750002,115.96473028750002,69.0,97.0
270,115.96473028750002,116.14765678750003,71.0,97.0
271,116.14765678750003,116.51350978750003,73.0,97.0
272,116.51350978750003,116.87936278750001,71.0,97.0
273,116.87936278750001,117.06228928750002,71.0,97.0
274,117.06228928750002,117.42814228750002,69.0,97.0
275,117.42814228750002,119.07448078750002,66.0,97.0
276,119.44033378750002,119.71167476250002,61.0,89.0
277,119.80618678750002,120.05618633750002,73.0,90.0
278,120.17203978750003,120.40374668750002,71.0,87.0
279,120.53789278750003,121.15679411250002,69.0,87.0
280,121.26959878750002,121.73453697500003,68.0,87.0
281,121.81837828750002,122.17051180000003,66.0,90.0
282,122.36715778750002,122.61258417500002,61.0,91.0
283,122.73301078750002,122.96929085000002,73.0,86.0
284,123.09886378750002,123.31685120000002,71.0,88.0
285,123.46471678750002,123.65983838750002,69.0,87.0
286,123.83056978750002,124.09428882500002,69.0,90.0
287,124.19642278750003,124.52111732500002,69.0,88.0
288,124.56227578750003,124.70404382500003,68.0,86.0
289,124.74520228750002,125.25129893750002,66.0,86.0
290,125.65983478750002,125.94794402500003,71.0,84.0
291,126.02568778750002,126.32294335000002,69.0,87.0
292,126.39154078750002,126.63086962500002,68.0,87.0
293,126.75739378750002,126.85800336250003,68.0,87.0
294,126.94032028750003,127.22995391250002,68.0,92.0
295,127.30617328750002,127.55312406250002,68.0,87.0
296,127.85495278750003,128.09275723750002,68.0,92.0
297,128.2208057875,128.325988525,68.0,84.0
298,128.40373228750002,128.72232927500002,68.0,87.0
299,128.76958528750004,129.14153583750002,64.0,87.0
300,129.31836478750003,129.60190086250003,71.0,87.0
301,129.68421778750002,129.81531511250003,69.0,89.0
302,129.86714428750003,130.11257067500003,71.0,87.0
303,130.2329972875,130.551594275,76.0,86.0
304,130.59885028750003,131.30159292500002,73.0,102.0
305,131.5134827875,131.78482376250003,71.0,86.0
306,131.87933578750003,132.17201818750002,73.0,90.0
307,132.2451887875,132.85189501250002,78.0,86.0
308,132.97689478750002,133.417442775,66.0,87.0
309,133.5256742875,133.91896626250002,68.0,87.0
310,134.07445378750003,134.3275021125,78.0,86.0
311,134.44030678750002,134.6704893,76.0,87.0
312,134.80615978750004,135.05311056250002,74.0,87.0
313,135.17201278750002,135.71774351250002,76.0,86.0
314,135.90371878750003,136.40066911250003,68.0,78.0
315,136.45249828750002,136.86865607500002,66.0,86.0
316,137.36713078750003,137.6445693125,71.0,90.0
317,137.73298378750002,137.98450772500001,73.0,91.0
318,138.09883678750003,138.31377542500002,74.0,86.0
319,138.46468978750002,138.66895771250003,74.0,91.0
320,138.83054278750004,139.06834723750003,74.0,85.0
321,139.19639578750002,139.28633465000001,66.0,87.0
322,139.37932228750003,139.47993186250002,66.0,81.0
323,139.5622487875,139.81377272500004,65.0,83.0
324,139.92810178750003,140.22078418750002,65.0,85.0
325,140.2939547875,140.42962527500003,73.0,90.0
326,140.47688128750002,140.98450232500002,71.0,86.0
327,141.02566078750002,142.50279227500002,66.0,82.0
328,142.85492578750004,143.12626676250002,61.0,89.0
329,143.22077878750002,143.47077833750004,73.0,90.0
330,143.58663178750004,143.81833868750002,71.0,87.0
331,143.95248478750003,144.57138611250002,69.0,87.0
332,144.68419078750003,145.14912897500002,68.0,87.0
333,145.23297028750002,145.5851038,66.0,90.0
334,145.78174978750002,146.02717617500002,61.0,91.0
335,146.14760278750003,146.38388285000002,73.0,86.0
336,146.51345578750002,146.73144320000003,71.0,88.0
337,146.87930878750004,147.07443038750003,69.0,87.0
338,147.24516178750002,147.50888082500003,69.0,90.0
339,147.61101478750004,147.93570932500003,69.0,88.0
340,147.97686778750003,148.118635825,68.0,86.0
341,148.15979428750003,148.66589093750002,66.0,86.0
342,149.07442678750002,149.36253602500003,71.0,84.0
343,149.44027978750003,149.73753535000003,69.0,87.0
344,149.80613278750002,150.04546162500003,68.0,87.0
345,150.17198578750003,150.27259536250003,68.0,87.0
346,150.3549122875,150.64454591250004,68.0,92.0
347,150.72076528750003,150.96771606250002,68.0,87.0
348,151.26954478750002,151.50734923750002,68.0,92.0
349,151.63539778750004,151.740580525,68.0,84.0
350,151.81832428750002,152.13692127500002,68.0,87.0
351,152.18417728750003,152.55612783750001,64.0,87.0
352,152.73295678750003,153.01649286250003,71.0,87.0
353,153.09880978750002,153.22990711250003,69.0,89.0
354,153.28173628750002,153.52716267500003,71.0,87.0
355,153.64758928750004,153.96618627500004,76.0,86.0
356,154.01344228750003,154.71618492500002,73.0,102.0
357,154.92807478750004,155.19941576250002,71.0,86.0
358,155.29392778750002,155.5866101875,73.0,90.0
359,155.65978078750004,156.26648701250002,78.0,86.0
360,156.3914867875,156.83203477500004,66.0,87.0
361,156.94026628750004,157.33355826250002,68.0,87.0
362,157.48904578750003,157.74209411250004,78.0,86.0
363,157.85489878750002,158.08508130000004,76.0,87.0
364,158.22075178750003,158.46770256250002,74.0,87.0
365,158.58660478750002,159.13233551250002,76.0,86.0
366,159.31831078750002,159.81526111250002,68.0,78.0
367,159.86709028750002,160.28324807500002,66.0,86.0
368,160.78172278750003,161.05916131250004,71.0,90.0
369,161.14757578750002,161.39909972500004,73.0,91.0
370,161.51342878750003,161.72836742500002,74.0,86.0
371,161.87928178750002,162.08354971250003,74.0,91.0
372,162.24513478750004,162.48293923750003,74.0,85.0
373,162.61098778750002,162.70092665000004,66.0,87.0
374,162.79391428750003,162.89452386250002,66.0,81.0
375,162.97684078750004,163.22836472500003,65.0,83.0
376,163.34269378750002,163.63537618750001,65.0,85.0
377,163.70854678750004,163.84421727500003,73.0,90.0
378,163.89147328750002,164.39909432500002,71.0,86.0
379,164.44025278750001,165.91738427500002,66.0,82.0
380,166.63537078750002,166.88384595000002,66.0,90.0
381,167.00122378750004,167.26494282500002,66.0,88.0
382,167.36707678750003,167.58658858750002,78.0,88.0
383,167.73292978750004,167.93110016250003,78.0,86.0
384,168.09878278750003,168.27713612500003,78.0,87.0
385,168.46463578750004,168.56829413750003,78.0,84.0
386,168.64756228750002,169.01951283750003,78.0,86.0
387,169.19634178750002,169.47378031250003,78.0,87.0
388,169.56219478750003,169.80914556250002,76.0,87.0
389,169.92804778750002,170.19481560000003,74.0,86.0
390,170.29390078750004,171.72225187500004,76.0,86.0
391,172.48901878750004,172.71462813750003,71.0,88.0
392,172.85487178750003,173.07895675000003,73.0,93.0
393,173.22072478750002,173.46919995000002,74.0,87.0
394,173.58657778750003,173.69176052500003,74.0,87.0
395,173.76950428750004,174.18261330000004,74.0,85.0
396,174.31828378750004,174.59419792500003,74.0,87.0
397,174.68413678750002,174.91584368750003,73.0,97.0
398,175.04998978750004,175.31370882500002,71.0,89.0
399,175.41584278750003,175.52712307500002,69.0,87.0
400,175.59876928750003,176.03474411250002,71.0,86.0
401,176.14754878750003,177.62468027500003,73.0,90.0
402,178.34266678750004,178.59114195000004,71.0,90.0
403,178.70851978750002,178.93412913750004,73.0,92.0
404,179.07437278750004,179.32894550000003,74.0,88.0
405,179.44022578750003,179.62315228750003,74.0,88.0
406,179.80607878750004,179.98900528750002,74.0,88.0
407,179.98900528750002,180.29693156250002,73.0,93.0
408,180.53778478750004,180.90363778750003,76.0,85.0
409,180.90363778750003,181.00272297500004,74.0,84.0
410,181.08656428750004,181.35790526250003,73.0,90.0
411,181.45241728750003,181.89906282500004,71.0,86.0
412,182.00119678750002,183.33960901250003,69.0,78.0
413,184.19631478750003,184.42802168750003,71.0,86.0
414,184.56216778750004,184.83808192500004,69.0,87.0
415,184.92802078750003,185.77405585000002,67.0,87.0
416,186.02557978750002,186.32588412500004,67.0,88.0
417,186.39143278750004,186.96460248750003,69.0,86.0
418,187.12313878750004,187.75271082500004,71.0,85.0
419,187.85484478750004,189.31825678750002,73.0,92.0
420,189.68410978750003,189.96154831250004,73.0,90.0
421,190.04996278750002,190.29996233750003,73.0,90.0
422,190.41581578750004,190.64752268750004,71.0,87.0
423,190.78166878750002,191.40057011250002,69.0,87.0
424,191.51337478750003,191.97831297500002,68.0,87.0
425,192.06215428750002,192.41428780000004,66.0,90.0
426,192.61093378750004,192.85636017500002,61.0,91.0
427,192.97678678750003,193.21306685000005,73.0,86.0
428,193.34263978750005,193.56062720000003,71.0,88.0
429,193.70849278750003,193.90361438750003,69.0,87.0
430,194.07434578750002,194.33806482500003,69.0,90.0
431,194.44019878750004,194.76489332500003,69.0,88.0
432,194.80605178750002,194.94781982500004,68.0,86.0
433,194.98897828750003,195.49507493750002,66.0,86.0
434,195.90361078750004,196.19172002500002,71.0,84.0
435,196.26946378750003,196.56671935000003,69.0,87.0
436,196.63531678750005,196.87464562500003,68.0,87.0
437,197.00116978750003,197.10177936250003,68.0,87.0
438,197.18409628750004,197.47372991250003,68.0,92.0
439,197.54994928750003,197.79690006250004,68.0,87.0
440,198.09872878750002,198.33653323750002,68.0,92.0
441,198.46458178750004,198.56976452500004,68.0,84.0
442,198.64750828750005,198.96610527500005,68.0,87.0
443,199.01336128750003,199.38531183750004,64.0,87.0
444,199.56214078750003,199.84567686250003,71.0,87.0
445,199.92799378750004,200.05909111250003,69.0,89.0
446,200.11092028750002,200.35634667500003,71.0,87.0
447,200.47677328750004,200.79537027500004,76.0,86.0
448,200.84262628750002,201.54536892500005,73.0,102.0
449,201.75725878750004,202.02859976250002,71.0,86.0
450,202.12311178750002,202.41579418750004,73.0,90.0
451,202.48896478750004,203.09567101250005,78.0,86.0
452,203.22067078750004,203.66121877500004,66.0,87.0
453,203.76945028750004,204.16274226250005,68.0,87.0
454,204.31822978750003,204.57127811250004,78.0,86.0
455,204.68408278750005,204.91426530000004,76.0,87.0
456,205.04993578750003,205.29688656250005,74.0,87.0
457,205.41578878750005,205.96151951250005,76.0,86.0
458,206.14749478750002,206.64444511250002,68.0,78.0
459,206.69627428750005,207.11243207500004,66.0,86.0
460,207.61090678750003,207.88834531250004,71.0,90.0
461,207.97675978750004,208.22828372500004,73.0,91.0
462,208.34261278750003,208.55755142500004,74.0,86.0
463,208.70846578750005,208.91273371250003,74.0,91.0
464,209.07431878750003,209.31212323750003,74.0,85.0
465,209.44017178750005,209.53011065000004,66.0,87.0
466,209.62309828750003,209.72370786250005,66.0,81.0
467,209.80602478750004,210.05754872500003,65.0,83.0
468,210.17187778750002,210.46456018750004,65.0,85.0
469,210.53773078750004,210.67340127500003,73.0,90.0
470,210.72065728750005,211.22827832500005,71.0,86.0
471,211.26943678750004,212.74656827500004,66.0,82.0
472,213.09870178750003,213.37004276250005,61.0,89.0
473,213.46455478750005,213.71455433750003,73.0,90.0
474,213.83040778750004,214.06211468750004,71.0,87.0
475,214.19626078750002,214.81516211250005,69.0,87.0
476,214.92796678750003,215.39290497500005,68.0,87.0
477,215.47674628750005,215.82887980000004,66.0,90.0
478,216.02552578750004,216.27095217500005,61.0,91.0
479,216.39137878750003,216.62765885000005,73.0,86.0
480,216.75723178750005,216.97521920000003,71.0,88.0
481,217.12308478750003,217.31820638750003,69.0,87.0
482,217.48893778750005,217.75265682500003,69.0,90.0
483,217.85479078750004,218.17948532500003,69.0,88.0
484,218.22064378750005,218.36241182500004,68.0,86.0
485,218.40357028750003,218.90966693750005,66.0,86.0
486,219.31820278750004,219.60631202500005,71.0,84.0
487,219.68405578750003,219.98131135000003,69.0,87.0
488,220.04990878750004,220.28923762500003,68.0,87.0
489,220.41576178750003,220.51637136250002,68.0,87.0
490,220.59868828750004,220.88832191250003,68.0,92.0
491,220.96454128750003,221.21149206250004,68.0,87.0
492,221.51332078750005,221.75112523750005,68.0,92.0
493,221.87917378750004,221.98435652500004,68.0,84.0
494,222.06210028750004,222.38069727500005,68.0,87.0
495,222.42795328750003,222.79990383750004,64.0,87.0
496,222.97673278750003,223.26026886250003,71.0,87.0
497,223.34258578750004,223.47368311250003,69.0,89.0
498,223.52551228750005,223.77093867500002,71.0,87.0
499,223.89136528750004,224.20996227500004,76.0,86.0
500,224.25721828750005,224.95996092500005,73.0,102.0
501,225.17185078750003,225.44319176250005,71.0,86.0
502,225.53770378750005,225.83038618750004,73.0,90.0
503,225.90355678750004,226.51026301250005,78.0,86.0
504,226.63526278750004,227.07581077500004,66.0,87.0
505,227.18404228750003,227.57733426250005,68.0,87.0
506,227.73282178750003,227.98587011250004,78.0,86.0
507,228.09867478750004,228.32885730000004,76.0,87.0
508,228.46452778750003,228.71147856250005,74.0,87.0
509,228.83038078750005,229.37611151250005,76.0,86.0
510,229.56208678750005,230.05903711250005,68.0,78.0
511,230.11086628750004,230.52702407500004,66.0,86.0
512,231.02549878750003,231.30293731250003,71.0,90.0
513,231.39135178750004,231.64287572500004,73.0,91.0
514,231.75720478750003,231.97214342500004,74.0,86.0
515,232.12305778750004,232.32732571250003,74.0,91.0
516,232.48891078750003,232.72671523750003,74.0,85.0
517,232.85476378750005,232.94470265000004,66.0,87.0
518,233.03769028750003,233.13829986250005,66.0,81.0
519,233.22061678750003,233.47214072500003,65.0,83.0
520,233.58646978750005,233.87915218750004,65.0,85.0
521,233.95232278750004,234.08799327500003,73.0,90.0
522,234.13524928750005,234.64287032500005,71.0,86.0
523,234.68402878750004,236.16116027500004,66.0,82.0
524,236.87914678750005,237.14134143750005,71.0,87.0
525,237.24499978750003,237.45384087500005,73.0,93.0
526,237.61085278750005,237.83341336250004,74.0,88.0
527,237.97670578750004,238.18554687500003,74.0,88.0
528,238.34255878750005,238.52091212500005,74.0,90.0
529,238.70841178750004,238.82426523750004,66.0,87.0
530,238.89133828750005,239.27091077500003,65.0,86.0
531,239.44011778750004,240.72670083750003,65.0,86.0
