,start,end,pitch,velocity
0,3.4649327875000004,3.9374929125000007,61.0,86.0
1,3.4649327875000004,3.9908464750000006,57.0,85.0
2,3.4649327875000004,3.993895250000001,54.0,79.0
3,3.830785787500001,4.301821525000001,49.0,77.0
4,4.1966387875,4.789625525000001,61.0,87.0
5,4.1966387875,4.797247462500001,57.0,79.0
6,4.562491787500001,4.8765156125,49.0,78.0
7,3.4649327875000004,4.897857037500001,42.0,87.0
8,4.745418287500001,4.913100912500001,54.0,88.0
9,5.294197787500001,5.571636312500001,52.0,87.0
10,5.477124287500001,5.818587087500001,56.0,87.0
11,5.111271287500001,5.844501675000001,47.0,75.0
12,4.928344787500001,5.908525950000001,40.0,87.0
13,5.842977287500001,6.347549550000001,59.0,90.0
14,6.391756787500001,6.946633837500001,57.0,82.0
15,6.391756787500001,7.024377600000001,38.0,95.0
16,6.757609787500001,7.060962900000002,45.0,74.0
17,6.940536287500001,7.414620800000002,54.0,89.0
18,7.306389287500001,7.484742625000001,57.0,93.0
19,7.855168787500001,8.295716775,52.0,79.0
20,7.855168787500001,8.431387262500001,56.0,82.0
21,8.221021787500002,8.789618325000001,47.0,80.0
22,8.403948287500002,8.804862200000002,59.0,88.0
23,7.855168787500001,8.814008525000002,40.0,88.0
24,8.952727787500002,9.094495825000001,52.0,86.0
25,8.769801287500002,9.131081125000001,64.0,88.0
26,9.318580787500002,9.527421875000002,54.0,87.0
27,9.318580787500002,9.742360512500001,59.0,86.0
28,9.684433787500002,9.861262737500002,54.0,84.0
29,9.867360287500002,10.274371750000002,62.0,90.0
30,9.318580787500002,10.303335112500001,47.0,97.0
31,10.233213287500002,10.478639675000002,59.0,80.0
32,10.416139787500002,10.516749362500002,54.0,87.0
33,10.781992787500002,11.134126300000002,61.0,86.0
34,11.147845787500001,11.277418725000002,56.0,79.0
35,11.330772287500002,11.695100900000002,65.0,91.0
36,10.781992787500002,11.801808025000001,49.0,90.0
37,11.696625287500002,11.905466375000001,61.0,82.0
38,11.879551787500002,12.015222275000003,56.0,86.0
39,12.245404787500002,12.618879725000003,57.0,78.0
40,12.245404787500002,12.652416250000002,54.0,77.0
41,12.794184287500002,13.213390850000001,61.0,88.0
42,13.160037287500002,13.312476037500002,57.0,88.0
43,13.342963787500002,13.531987837500003,54.0,88.0
44,12.245404787500002,13.571621912500003,42.0,87.0
45,12.611257787500001,13.579243850000003,49.0,80.0
46,13.708816787500002,14.076194175000003,66.0,84.0
47,13.708816787500002,14.096011212500002,54.0,87.0
48,14.074669787500003,14.342961987500003,49.0,79.0
49,14.257596287500002,14.469486150000003,57.0,87.0
50,14.257596287500002,14.472534925000003,54.0,86.0
51,14.257596287500002,14.484730025000003,61.0,88.0
52,14.623449287500003,14.774363650000003,54.0,87.0
53,14.623449287500003,14.833814762500003,61.0,88.0
54,14.806375787500002,14.980155962500003,57.0,82.0
55,14.440522787500003,14.987777900000003,49.0,80.0
56,13.708816787500002,14.999973000000002,42.0,87.0
57,14.989302287500003,15.105155737500002,54.0,87.0
58,15.172228787500003,15.541130562500003,54.0,81.0
59,15.172228787500003,15.559423212500002,57.0,87.0
60,15.721008287500002,15.992349262500003,61.0,88.0
61,15.538081787500003,16.259117075000002,49.0,78.0
62,16.086861287500003,16.260641462500004,57.0,90.0
63,15.172228787500003,16.315519412500002,42.0,87.0
64,16.269787787500004,16.385641237500003,54.0,85.0
65,16.6356407875,17.077713162500004,52.0,76.0
66,16.6356407875,17.112774075000004,56.0,81.0
67,16.6356407875,17.571614712500004,40.0,87.0
68,17.001493787500003,17.582285425000002,47.0,78.0
69,17.184420287500004,17.585334200000002,59.0,92.0
70,17.5502732875,17.698138875,64.0,86.0
71,18.099052787500003,18.504539862500003,54.0,82.0
72,18.099052787500003,18.681368812500004,57.0,80.0
73,18.099052787500003,19.097526600000002,38.0,87.0
74,18.6478322875,19.137160675000004,54.0,87.0
75,18.464905787500005,19.141733837500002,45.0,73.0
76,19.013685287500003,19.268258000000003,57.0,92.0
77,19.196611787500004,19.323135950000005,62.0,65.0
78,19.562464787500005,19.801793625000002,52.0,81.0
79,19.562464787500005,19.949659212500002,57.0,79.0
80,19.928317787500003,20.192036825000002,52.0,79.0
81,20.111244287500003,20.521304525000005,61.0,88.0
82,19.562464787500005,20.602097062500004,45.0,87.0
83,20.477097287500005,20.650877462500002,57.0,88.0
84,20.660023787500002,20.769779687500005,52.0,83.0
85,21.025876787500003,21.231669100000005,54.0,80.0
86,21.025876787500003,21.483193037500005,59.0,81.0
87,21.391729787500005,21.643253725000005,54.0,81.0
88,21.574656287500005,21.970997037500005,62.0,90.0
89,21.025876787500003,21.989289687500005,47.0,87.0
90,21.940509287500003,22.155447925000004,59.0,80.0
91,22.123435787500004,22.291118412500005,54.0,82.0
92,22.489288787500005,22.727093237500004,61.0,86.0
93,22.489288787500005,22.765202925000004,56.0,81.0
94,23.038068287500003,23.263677637500003,56.0,87.0
95,23.038068287500003,23.320079975000002,65.0,86.0
96,22.855141787500003,23.355140887500003,44.0,73.0
97,22.489288787500005,23.402396900000003,37.0,88.0
98,23.403921287500005,23.493860150000003,56.0,82.0
99,23.403921287500005,23.582274625000004,61.0,86.0
100,23.586847787500005,23.696603687500005,56.0,80.0
101,23.952700787500003,24.378004900000004,54.0,81.0
102,23.952700787500003,24.434407237500004,61.0,83.0
103,24.501480287500005,24.826174825000006,57.0,86.0
104,24.867333287500003,25.138674262500004,61.0,86.0
105,25.050259787500003,25.275869137500003,57.0,56.0
106,25.416112787500005,25.832270575000006,66.0,87.0
107,24.318553787500004,26.202696737500005,49.0,80.0
108,26.147818787500004,26.231660100000006,54.0,80.0
109,26.147818787500004,26.428306087500005,57.0,82.0
110,26.147818787500004,26.751476237500004,61.0,87.0
111,23.952700787500003,26.826171225000003,42.0,86.0
112,26.513671787500005,26.832268775000006,54.0,83.0
113,26.330745287500005,26.859707750000005,49.0,85.0
114,26.879524787500003,27.466413975000005,69.0,87.0
115,27.245377787500004,27.554828450000006,61.0,81.0
116,26.879524787500003,27.579218650000005,42.0,86.0
117,27.428304287500005,27.780437800000005,66.0,82.0
118,27.794157287500006,28.252997925000006,69.0,90.0
119,28.342936787500005,28.736228762500005,68.0,82.0
120,28.708789787500006,28.977081987500004,59.0,77.0
121,28.891716287500007,29.053301362500005,64.0,88.0
122,28.342936787500005,29.265191225000006,40.0,85.0
123,29.257569287500004,29.509093225000004,59.0,82.0
124,29.257569287500004,29.547202912500005,64.0,82.0
125,29.257569287500004,29.874946225000006,68.0,86.0
126,29.806348787500006,30.205738312500007,66.0,79.0
127,30.355128287500005,30.626469262500006,62.0,88.0
128,29.806348787500006,30.632566812500006,50.0,88.0
129,30.172201787500004,30.704213025000005,57.0,74.0
130,30.720981287500006,30.856651775000007,66.0,86.0
131,31.269760787500005,31.664577150000007,57.0,74.0
132,31.269760787500005,31.705735612500007,64.0,87.0
133,31.818540287500007,32.08988126250001,57.0,84.0
134,32.18439328750001,32.233173687500006,57.0,77.0
135,32.18439328750001,32.43896600000001,61.0,86.0
136,32.36731978750001,32.61731933750001,57.0,86.0
137,32.55024628750001,32.698111875,61.0,84.0
138,31.269760787500005,32.749941050000004,45.0,86.0
139,31.635613787500006,32.756038600000004,52.0,71.0
140,32.7331727875,33.121891600000005,59.0,83.0
141,32.7331727875,33.17829393750001,66.0,85.0
142,33.099025787500004,33.65847600000001,54.0,81.0
143,32.7331727875,33.66304916250001,47.0,88.0
144,33.281952287500005,33.701158850000006,59.0,86.0
145,33.647805287500006,33.77432945,62.0,93.0
146,33.83073178750001,33.937438912500006,59.0,79.0
147,34.19658478750001,34.43896240000001,56.0,78.0
148,34.19658478750001,34.624937675000005,61.0,81.0
149,34.56243778750001,35.08530270000001,56.0,82.0
150,34.7453642875,35.12646116250001,61.0,85.0
151,34.19658478750001,35.2423146125,49.0,86.0
152,35.111217287500004,35.32768031250001,64.0,89.0
153,35.294143787500005,35.394753362500005,61.0,86.0
154,35.659996787500006,36.0532887625,54.0,77.0
155,35.659996787500006,36.12036181250001,57.0,86.0
156,36.20877628750001,36.56395857500001,54.0,92.0
157,36.57462928750001,36.820055675000006,61.0,88.0
158,36.7575557875,36.89017750000001,57.0,87.0
159,35.659996787500006,36.96487248750001,42.0,86.0
160,36.02584978750001,36.98926268750001,49.0,87.0
161,37.123408787500004,37.542615350000005,54.0,81.0
162,37.123408787500004,37.6569444125,66.0,84.0
163,37.672188287500006,37.93590732500001,54.0,88.0
164,38.03804128750001,38.234687275000006,61.0,90.0
165,38.22096778750001,38.32615052500001,57.0,86.0
166,37.489261787500006,38.330723687500004,49.0,79.0
167,37.123408787500004,38.400845512500005,42.0,86.0
168,38.58682078750001,39.20419772500001,61.0,84.0
169,38.58682078750001,39.22858792500001,54.0,82.0
170,39.135600287500004,39.515172775,57.0,91.0
171,38.952673787500004,39.698099275000004,49.0,77.0
172,39.501453287500006,39.720965087500005,54.0,88.0
173,38.58682078750001,39.72248947500001,42.0,87.0
174,40.05023278750001,40.388646812500006,56.0,77.0
175,40.05023278750001,40.669134112500004,59.0,81.0
176,40.05023278750001,40.940475087500005,40.0,80.0
177,40.41608578750001,40.957243350000006,47.0,76.0
178,40.59901228750001,40.98925548750001,56.0,86.0
179,41.147791787500005,41.27584033750001,59.0,81.0
180,40.964865287500004,41.306328087500006,64.0,86.0
181,41.513644787500006,41.87797340000001,54.0,80.0
182,41.513644787500006,42.100533975000005,57.0,89.0
183,42.06242428750001,42.474008912500004,54.0,87.0
184,41.513644787500006,42.58071603750001,38.0,88.0
185,42.42827728750001,42.63406960000001,57.0,91.0
186,41.87949778750001,42.69656948750001,45.0,70.0
187,42.61120378750001,42.78345957500001,54.0,77.0
188,42.977056787500004,43.19047103750001,52.0,81.0
189,42.977056787500004,43.41150722500001,57.0,86.0
190,43.525836287500006,43.89626245000001,57.0,87.0
191,43.342909787500005,43.90236000000001,52.0,82.0
192,42.977056787500004,44.17522536250001,45.0,77.0
193,43.89168928750001,44.188944850000006,61.0,87.0
194,44.07461578750001,44.21028627500001,57.0,93.0
195,44.44046878750001,44.669126912500005,54.0,80.0
196,44.44046878750001,44.852053412500005,62.0,81.0
197,44.80632178750001,45.07918715000001,54.0,86.0
198,44.98924828750001,45.37644271250001,59.0,82.0
199,44.44046878750001,45.57003992500001,47.0,87.0
200,45.355101287500005,45.63711297500001,62.0,90.0
201,45.538027787500006,45.73010061250001,59.0,80.0
202,45.90388078750001,46.29259960000001,56.0,82.0
203,45.90388078750001,46.390160400000006,61.0,84.0
204,46.45266028750001,46.788025537500005,56.0,87.0
205,45.90388078750001,46.82003767500001,37.0,88.0
206,46.26973378750001,46.82461083750001,44.0,74.0
207,46.81851328750001,46.98772030000001,61.0,89.0
208,47.00143978750001,47.12339078750001,56.0,87.0
209,47.367292787500006,47.769731087500006,54.0,81.0
210,47.367292787500006,47.89320647500001,61.0,82.0
211,47.91607228750001,48.19351081250001,54.0,88.0
212,48.28192528750001,48.521254125000006,61.0,87.0
213,47.73314578750001,48.63101002500001,49.0,77.0
214,48.46485178750001,48.65540022500001,54.0,86.0
215,47.367292787500006,48.66149777500001,42.0,87.0
216,48.83070478750001,49.20875288750001,54.0,81.0
217,48.83070478750001,49.266679612500006,66.0,84.0
218,49.379484287500006,49.615764350000006,54.0,86.0
219,49.562410787500006,49.81393472500001,61.0,87.0
220,49.74533728750001,49.96637347500001,57.0,86.0
221,49.92826378750001,50.25448271250001,54.0,90.0
222,49.196557787500005,50.320031375000006,49.0,79.0
223,48.83070478750001,50.35509228750001,42.0,86.0
224,50.29411678750001,50.35509228750001,42.0,86.0
225,50.29411678750001,50.60661622500001,61.0,82.0
226,50.29411678750001,50.90692056250001,69.0,84.0
227,50.84289628750001,51.23466387500001,61.0,88.0
228,51.20874928750001,51.36576120000001,66.0,83.0
229,50.65996978750001,51.63100462500001,49.0,80.0
230,51.391675787500006,51.64319972500001,61.0,87.0
231,51.57460228750001,51.69045573750001,66.0,80.0
232,52.12338178750001,52.67521006250001,49.0,80.0
233,51.75752878750001,52.71941730000001,42.0,85.0
234,52.30630828750001,52.73923433750001,61.0,87.0
235,52.67216128750001,52.894721862500006,66.0,86.0
236,51.75752878750001,52.91758767500001,69.0,87.0
237,52.85508778750001,52.95569736250001,61.0,86.0
238,53.22094078750001,53.99990280000001,69.0,87.0
239,53.76972028750001,54.17673175000001,62.0,86.0
240,54.13557328750001,54.33526805000001,66.0,80.0
241,53.22094078750001,54.48618241250001,50.0,90.0
242,53.58679378750001,54.57459688750001,57.0,74.0
243,54.31849978750001,54.60813341250001,62.0,81.0
244,54.50142628750001,54.74837706250001,66.0,81.0
245,54.68435278750001,55.32002237500001,69.0,79.0
246,54.68435278750001,55.40843685000001,50.0,87.0
247,55.05020578750001,55.42063195000001,57.0,76.0
248,55.23313228750001,55.63557058750001,62.0,86.0
249,55.59898528750001,55.86117993750001,69.0,86.0
250,55.78191178750001,55.87794820000001,62.0,84.0
251,56.14776478750001,56.52123972500001,59.0,82.0
252,56.14776478750001,56.85508058750001,68.0,80.0
253,56.69654428750001,57.08831187500001,59.0,87.0
254,57.06239728750001,57.23617746250001,64.0,81.0
255,56.51361778750001,57.46940875000001,47.0,76.0
256,56.14776478750001,57.48160385000001,40.0,85.0
257,57.24532378750001,57.50446966250001,59.0,87.0
258,57.42825028750001,57.53495741250001,64.0,80.0
259,57.61117678750001,58.01209070000001,59.0,83.0
260,57.97702978750001,58.43282165000001,47.0,79.0
261,57.61117678750001,58.44501675000001,40.0,86.0
262,57.61117678750001,58.55629703750001,68.0,87.0
263,58.15995628750001,58.59897988750001,59.0,88.0
264,58.52580928750001,58.63099202500001,64.0,91.0
265,59.07458878750001,59.48922218750001,57.0,78.0
266,59.07458878750001,59.68129501250001,61.0,88.0
267,59.62336828750001,60.05172117500001,57.0,83.0
268,59.98922128750001,60.191964825000014,61.0,87.0
269,59.07458878750001,60.35659867500001,45.0,86.0
270,59.44044178750001,60.38251326250001,52.0,82.0
271,60.53800078750001,60.93434153750001,57.0,74.0
272,60.53800078750001,60.98921948750001,61.0,85.0
273,60.53800078750001,61.037999887500014,64.0,85.0
274,61.08678028750001,61.33830422500001,57.0,88.0
275,61.26970678750001,61.45720645000001,61.0,87.0
276,60.90385378750001,61.47854787500001,52.0,83.0
277,60.53800078750001,61.56238918750001,45.0,87.0
278,61.452633287500014,61.57915745000001,57.0,87.0
279,62.00141278750001,62.52580208750001,62.0,78.0
280,62.00141278750001,62.58830197500001,57.0,81.0
281,62.55019228750001,62.97854517500001,54.0,89.0
282,62.00141278750001,62.98616711250001,38.0,92.0
283,62.36726578750001,63.04256945000001,45.0,82.0
284,62.91604528750001,63.08372791250001,57.0,95.0
285,63.09897178750001,63.22549595000001,54.0,82.0
286,63.464824787500014,64.07153101250002,52.0,81.0
287,63.464824787500014,64.07457978750001,56.0,82.0
288,64.01360428750002,64.45262788750001,59.0,86.0
289,64.37945728750002,64.45262788750001,59.0,61.0
290,63.83067778750001,64.55628623750002,47.0,83.0
291,63.464824787500014,64.57457888750001,40.0,87.0
292,64.37945728750002,64.57915205,56.0,82.0
293,64.56238378750001,64.7315908,64.0,85.0
294,64.92823678750001,65.14469981250001,56.0,81.0
295,64.92823678750001,65.47396751250001,64.0,83.0
296,65.29408978750001,65.61421116250001,56.0,86.0
297,65.4770162875,65.8337229625,61.0,87.0
298,64.92823678750001,65.89012530000001,49.0,91.0
299,65.84286928750001,66.259027075,64.0,88.0
300,66.02579578750002,66.48768520000002,61.0,88.0
301,66.94042828750001,67.27274476250001,54.0,87.0
302,67.30628128750001,67.54103696250002,61.0,89.0
303,67.4892077875,67.61573195000001,57.0,86.0
304,66.75750178750002,67.68737816250001,49.0,86.0
305,66.39164878750002,67.72396346250001,42.0,87.0
306,67.85506078750001,68.10810911250002,54.0,79.0
307,67.85506078750001,68.259023475,59.0,86.0
308,68.22091378750001,68.46634017500001,54.0,87.0
309,68.40384028750002,68.8047542,62.0,87.0
310,67.85506078750001,68.83371756250001,47.0,88.0
311,68.76969328750002,68.96938805,59.0,87.0
312,68.95261978750001,69.12944873750001,54.0,88.0
313,69.31847278750001,69.66603313750001,56.0,81.0
314,69.31847278750001,69.85200841250001,61.0,86.0
315,69.86725228750001,70.18280050000001,56.0,87.0
316,69.68432578750001,70.29408078750001,44.0,74.0
317,69.31847278750001,70.30627588750001,37.0,88.0
318,70.23310528750001,70.3428611875,61.0,88.0
319,70.78188478750002,71.18127431250001,54.0,82.0
320,70.78188478750002,71.301700925,61.0,86.0
321,71.33066428750001,71.57609067500002,54.0,86.0
322,71.69651728750001,71.905358375,56.0,88.0
323,71.1477377875,71.9998704,49.0,78.0
324,71.87944378750001,72.03188253750001,57.0,92.0
325,70.78188478750002,72.10962630000002,42.0,86.0
326,72.24529678750001,72.51511337500001,61.0,88.0
327,72.24529678750001,72.57456448750001,54.0,81.0
328,72.79407628750002,73.06694165000002,54.0,78.0
329,72.79407628750002,73.088283075,66.0,85.0
330,73.1599292875,73.24986815000001,54.0,78.0
331,73.1599292875,73.37639231250002,61.0,81.0
332,73.34285578750001,73.51968473750001,57.0,76.0
333,73.52578228750001,73.67974542500001,54.0,87.0
334,72.61114978750001,73.80322081250002,49.0,80.0
335,72.24529678750001,73.84285488750001,42.0,87.0
336,73.70870878750002,73.84285488750001,42.0,86.0
337,73.70870878750002,74.02120822500001,61.0,82.0
338,73.70870878750002,74.32151256250002,69.0,84.0
339,74.25748828750001,74.64925587500001,61.0,88.0
340,74.62334128750001,74.78035320000001,66.0,83.0
341,74.07456178750002,75.04559662500002,49.0,80.0
342,74.80626778750002,75.05779172500002,61.0,87.0
343,74.98919428750001,75.10504773750002,66.0,80.0
344,75.53797378750001,76.08980206250001,49.0,80.0
345,75.1721207875,76.13400930000002,42.0,85.0
346,75.72090028750002,76.1538263375,61.0,87.0
347,76.08675328750002,76.30931386250002,66.0,86.0
348,75.1721207875,76.33217967500002,69.0,87.0
349,76.26967978750001,76.37028936250002,61.0,86.0
350,76.63553278750001,77.41449480000001,69.0,87.0
351,77.18431228750002,77.59132375000002,62.0,86.0
352,77.55016528750001,77.74986005000001,66.0,80.0
353,76.63553278750001,77.90077441250001,50.0,90.0
354,77.00138578750001,77.98918888750002,57.0,74.0
355,77.73309178750002,78.02272541250001,62.0,81.0
356,77.91601828750001,78.16296906250001,66.0,81.0
357,78.09894478750002,78.734614375,69.0,79.0
358,78.09894478750002,78.82302885000001,50.0,87.0
359,78.46479778750002,78.83522395000001,57.0,76.0
360,78.64772428750001,79.05016258750001,62.0,86.0
361,79.01357728750001,79.27577193750001,69.0,86.0
362,79.19650378750002,79.29254020000002,62.0,84.0
363,79.56235678750001,79.93583172500001,59.0,82.0
364,79.56235678750001,80.26967258750001,68.0,80.0
365,80.11113628750002,80.50290387500002,59.0,87.0
366,80.47698928750002,80.65076946250001,64.0,81.0
367,79.92820978750001,80.88400075000001,47.0,76.0
368,79.56235678750001,80.89619585000001,40.0,85.0
369,80.65991578750001,80.91906166250001,59.0,87.0
370,80.84284228750002,80.94954941250002,64.0,80.0
371,81.02576878750001,81.42668270000001,59.0,83.0
372,81.39162178750001,81.84741365000001,47.0,79.0
373,81.02576878750001,81.85960875000002,40.0,86.0
374,81.02576878750001,81.97088903750002,68.0,87.0
375,81.57454828750001,82.01357188750002,59.0,88.0
376,81.94040128750001,82.04558402500001,64.0,91.0
377,82.48918078750002,82.90381418750002,57.0,78.0
378,82.48918078750002,83.09588701250001,61.0,88.0
379,83.03796028750001,83.46631317500001,57.0,83.0
380,83.40381328750001,83.60655682500001,61.0,87.0
381,82.48918078750002,83.77119067500001,45.0,86.0
382,82.85503378750002,83.79710526250001,52.0,82.0
383,83.95259278750001,84.34893353750002,57.0,74.0
384,83.95259278750001,84.40381148750001,61.0,85.0
385,83.95259278750001,84.45259188750002,64.0,85.0
386,84.50137228750002,84.75289622500001,57.0,88.0
387,84.68429878750001,84.87179845000001,61.0,87.0
388,84.31844578750001,84.89313987500002,52.0,83.0
389,83.95259278750001,84.97698118750002,45.0,87.0
390,84.86722528750002,84.99374945000001,57.0,87.0
391,85.41600478750001,85.94039408750001,62.0,78.0
392,85.41600478750001,86.00289397500002,57.0,81.0
393,85.96478428750001,86.39313717500002,54.0,89.0
394,85.41600478750001,86.40075911250001,38.0,92.0
395,85.78185778750002,86.45716145000002,45.0,82.0
396,86.33063728750001,86.49831991250001,57.0,95.0
397,86.51356378750002,86.64008795000001,54.0,82.0
398,86.87941678750002,87.48612301250002,52.0,81.0
399,86.87941678750002,87.48917178750001,56.0,82.0
400,87.42819628750001,87.86721988750001,59.0,86.0
401,87.79404928750002,87.86721988750001,59.0,61.0
402,87.24526978750002,87.97087823750002,47.0,83.0
403,86.87941678750002,87.98917088750001,40.0,87.0
404,87.79404928750002,87.99374405000002,56.0,82.0
405,87.97697578750001,88.14618280000002,64.0,85.0
406,88.34282878750001,88.55929181250002,56.0,81.0
407,88.34282878750001,88.88855951250001,64.0,83.0
408,88.70868178750001,89.02880316250001,56.0,86.0
409,88.89160828750002,89.24831496250002,61.0,87.0
410,88.34282878750001,89.30471730000002,49.0,91.0
411,89.25746128750002,89.67361907500002,64.0,88.0
412,89.44038778750001,89.90227720000001,61.0,88.0
413,90.35502028750001,90.68733676250001,54.0,87.0
414,90.72087328750001,90.95562896250001,61.0,89.0
415,90.90379978750002,91.03032395000001,57.0,86.0
416,90.17209378750002,91.10197016250001,49.0,86.0
417,89.80624078750002,91.13855546250002,42.0,87.0
418,91.26965278750002,91.52270111250002,54.0,79.0
419,91.26965278750002,91.67361547500002,59.0,86.0
420,91.63550578750002,91.88093217500001,54.0,87.0
421,91.81843228750002,92.21934620000002,62.0,87.0
422,91.26965278750002,92.24830956250001,47.0,88.0
423,92.18428528750002,92.38398005000002,59.0,87.0
424,92.36721178750001,92.54404073750001,54.0,88.0
425,92.73306478750001,93.08062513750002,56.0,81.0
426,92.73306478750001,93.26660041250001,61.0,86.0
427,93.28184428750002,93.59739250000001,56.0,87.0
428,93.09891778750001,93.70867278750002,44.0,74.0
429,92.73306478750001,93.72086788750002,37.0,88.0
430,93.64769728750002,93.75745318750002,61.0,88.0
431,94.19647678750002,94.59586631250002,54.0,82.0
432,94.19647678750002,94.71629292500002,61.0,86.0
433,94.74525628750001,94.99068267500002,54.0,86.0
434,95.11110928750001,95.31995037500002,56.0,88.0
435,94.56232978750002,95.41446240000002,49.0,78.0
436,95.29403578750002,95.44647453750002,57.0,92.0
437,94.19647678750002,95.52421830000002,42.0,86.0
438,95.65988878750002,95.92970537500001,61.0,88.0
439,95.65988878750002,95.98915648750001,54.0,81.0
440,96.20866828750002,96.48153365000002,54.0,78.0
441,96.20866828750002,96.50287507500002,66.0,85.0
442,96.57452128750002,96.66446015000001,54.0,78.0
443,96.57452128750002,96.79098431250002,61.0,81.0
444,96.75744778750001,96.93427673750001,57.0,76.0
445,96.94037428750002,97.09433742500002,54.0,87.0
446,96.02574178750001,97.21781281250001,49.0,80.0
447,95.65988878750002,97.25744688750002,42.0,87.0
448,97.12330078750001,97.25744688750002,42.0,86.0
449,97.12330078750001,97.71018997500002,69.0,87.0
450,97.48915378750002,97.79860445000001,61.0,81.0
451,97.67208028750002,98.02421380000001,66.0,82.0
452,98.03793328750001,98.49677392500001,69.0,90.0
453,98.58671278750002,98.98000476250002,68.0,82.0
454,98.95256578750002,99.22085798750001,59.0,77.0
455,99.13549228750001,99.29707736250002,64.0,88.0
456,98.58671278750002,99.50896722500002,40.0,85.0
457,99.50134528750002,99.75286922500001,59.0,82.0
458,99.50134528750002,99.79097891250002,64.0,82.0
459,99.50134528750002,100.11872222500001,68.0,86.0
460,100.05012478750001,100.44951431250001,66.0,79.0
461,100.59890428750002,100.87024526250002,62.0,88.0
462,100.05012478750001,100.87634281250001,50.0,88.0
463,100.41597778750001,100.94798902500001,57.0,74.0
464,100.96475728750002,101.10042777500001,66.0,86.0
465,101.51353678750002,101.90835315000002,57.0,74.0
466,101.51353678750002,101.94951161250002,64.0,87.0
467,102.06231628750002,102.33365726250001,57.0,84.0
468,102.42816928750001,102.47694968750002,57.0,77.0
469,102.42816928750001,102.68274200000002,61.0,86.0
470,102.61109578750002,102.86109533750002,57.0,86.0
471,102.79402228750001,102.94188787500002,61.0,84.0
472,101.51353678750002,102.99371705000001,45.0,86.0
473,101.87938978750002,102.99981460000002,52.0,71.0
474,102.97694878750002,103.36566760000002,59.0,83.0
475,102.97694878750002,103.42206993750001,66.0,85.0
476,103.34280178750002,103.90225200000002,54.0,81.0
477,102.97694878750002,103.90682516250001,47.0,88.0
478,103.52572828750002,103.94493485000002,59.0,86.0
479,103.89158128750002,104.01810545000002,62.0,93.0
480,104.07450778750002,104.18121491250002,59.0,79.0
481,104.44036078750001,104.68273840000002,56.0,78.0
482,104.44036078750001,104.86871367500002,61.0,81.0
483,104.80621378750001,105.32907870000003,56.0,82.0
484,104.98914028750002,105.37023716250002,61.0,85.0
485,104.44036078750001,105.48609061250002,49.0,86.0
486,105.35499328750002,105.57145631250002,64.0,89.0
487,105.53791978750002,105.63852936250002,61.0,86.0
488,105.90377278750002,106.29706476250001,54.0,77.0
489,105.90377278750002,106.36413781250002,57.0,86.0
490,106.45255228750001,106.80773457500001,54.0,92.0
491,106.81840528750001,107.06383167500002,61.0,88.0
492,107.00133178750002,107.13395350000002,57.0,87.0
493,105.90377278750002,107.20864848750001,42.0,86.0
494,106.26962578750002,107.23303868750001,49.0,87.0
495,107.36718478750002,107.78639135000002,54.0,81.0
496,107.36718478750002,107.90072041250002,66.0,84.0
497,107.91596428750002,108.17968332500001,54.0,88.0
498,108.28181728750002,108.47846327500002,61.0,90.0
499,108.46474378750001,108.56992652500001,57.0,86.0
500,107.73303778750002,108.57449968750002,49.0,79.0
501,107.36718478750002,108.64462151250002,42.0,86.0
502,108.83059678750001,109.44797372500003,61.0,84.0
503,108.83059678750001,109.47236392500002,54.0,82.0
504,109.37937628750002,109.75894877500002,57.0,91.0
505,109.19644978750001,109.94187527500002,49.0,77.0
506,109.74522928750002,109.96474108750002,54.0,88.0
507,108.83059678750001,109.96626547500001,42.0,87.0
508,110.29400878750002,110.63242281250002,56.0,77.0
509,110.29400878750002,110.91291011250001,59.0,81.0
510,110.29400878750002,111.18425108750002,40.0,80.0
511,110.65986178750002,111.20101935000002,47.0,76.0
512,110.84278828750001,111.23303148750001,56.0,86.0
513,111.39156778750002,111.51961633750003,59.0,81.0
514,111.20864128750001,111.55010408750002,64.0,86.0
515,111.75742078750002,112.12174940000001,54.0,80.0
516,111.75742078750002,112.34430997500002,57.0,89.0
517,112.30620028750002,112.71778491250002,54.0,87.0
518,111.75742078750002,112.82449203750002,38.0,88.0
519,112.67205328750002,112.87784560000001,57.0,91.0
520,112.12327378750003,112.94034548750003,45.0,70.0
521,112.85497978750001,113.02723557500002,54.0,77.0
522,113.22083278750002,113.43424703750001,52.0,81.0
523,113.22083278750002,113.65528322500002,57.0,86.0
524,113.76961228750002,114.14003845000002,57.0,87.0
525,113.58668578750002,114.14613600000003,52.0,82.0
526,113.22083278750002,114.41900136250003,45.0,77.0
527,114.13546528750003,114.43272085000002,61.0,87.0
528,114.31839178750002,114.45406227500003,57.0,93.0
529,114.68424478750002,114.91290291250002,54.0,80.0
530,114.68424478750002,115.09582941250002,62.0,81.0
531,115.05009778750002,115.32296315000002,54.0,86.0
532,115.23302428750002,115.62021871250002,59.0,82.0
533,114.68424478750002,115.81381592500001,47.0,87.0
534,115.59887728750002,115.88088897500002,62.0,90.0
535,115.78180378750002,115.97387661250002,59.0,80.0
536,116.14765678750003,116.53637560000001,56.0,82.0
537,116.14765678750003,116.63393640000002,61.0,84.0
538,116.69643628750002,117.03180153750002,56.0,87.0
539,116.14765678750003,117.06381367500002,37.0,88.0
540,116.51350978750003,117.06838683750001,44.0,74.0
541,117.06228928750002,117.23149630000002,61.0,89.0
542,117.24521578750002,117.36716678750003,56.0,87.0
543,117.61106878750002,118.01350708750002,54.0,81.0
544,117.61106878750002,118.13698247500002,61.0,82.0
545,118.15984828750003,118.43728681250002,54.0,88.0
546,118.52570128750003,118.76503012500002,61.0,87.0
547,117.97692178750002,118.87478602500002,49.0,77.0
548,118.70862778750002,118.89917622500002,54.0,86.0
549,117.61106878750002,118.90527377500003,42.0,87.0
550,119.07448078750002,119.45252888750002,54.0,81.0
551,119.07448078750002,119.51045561250002,66.0,84.0
552,119.62326028750002,119.85954035000002,54.0,86.0
553,119.80618678750002,120.05771072500002,61.0,87.0
554,119.98911328750002,120.21014947500002,57.0,86.0
555,120.17203978750003,120.49825871250002,54.0,90.0
556,119.44033378750002,120.56380737500002,49.0,79.0
557,119.07448078750002,120.59886828750003,42.0,86.0
558,120.53789278750003,120.59886828750003,42.0,86.0
559,120.53789278750003,120.85039222500002,61.0,82.0
560,120.53789278750003,121.15069656250002,69.0,84.0
561,121.08667228750002,121.47843987500002,61.0,88.0
562,121.45252528750002,121.60953720000002,66.0,83.0
563,120.90374578750001,121.87478062500003,49.0,80.0
564,121.63545178750002,121.88697572500003,61.0,87.0
565,121.81837828750002,121.93423173750003,66.0,80.0
566,122.36715778750002,122.91898606250003,49.0,80.0
567,122.00130478750002,122.96319330000001,42.0,85.0
568,122.55008428750003,122.98301033750002,61.0,87.0
569,122.91593728750001,123.13849786250002,66.0,86.0
570,122.00130478750002,123.16136367500002,69.0,87.0
571,123.09886378750002,123.19947336250002,61.0,86.0
572,123.46471678750002,124.24367880000003,69.0,87.0
573,124.01349628750002,124.42050775000003,62.0,86.0
574,124.37934928750002,124.57904405000002,66.0,80.0
575,123.46471678750002,124.72995841250003,50.0,90.0
576,123.83056978750002,124.81837288750002,57.0,74.0
577,124.56227578750003,124.85190941250002,62.0,81.0
578,124.74520228750002,124.99215306250002,66.0,81.0
579,124.92812878750003,125.56379837500002,69.0,79.0
580,124.92812878750003,125.65221285000003,50.0,87.0
581,125.29398178750002,125.66440795000003,57.0,76.0
582,125.47690828750002,125.87934658750002,62.0,86.0
583,125.84276128750002,126.10495593750002,69.0,86.0
584,126.02568778750002,126.12172420000002,62.0,84.0
585,126.39154078750002,126.76501572500003,59.0,82.0
586,126.39154078750002,127.09885658750002,68.0,80.0
587,126.94032028750003,127.33208787500003,59.0,87.0
588,127.30617328750002,127.47995346250002,64.0,81.0
589,126.75739378750002,127.71318475000002,47.0,76.0
590,126.39154078750002,127.72537985000002,40.0,85.0
591,127.48909978750002,127.74824566250003,59.0,87.0
592,127.67202628750002,127.77873341250002,64.0,80.0
593,127.85495278750003,128.2558667,59.0,83.0
594,128.2208057875,128.67659765000002,47.0,79.0
595,127.85495278750003,128.68879275000003,40.0,86.0
596,127.85495278750003,128.80007303750003,68.0,87.0
597,128.40373228750002,128.84275588750003,59.0,88.0
598,128.76958528750004,128.874768025,64.0,91.0
599,129.31836478750003,129.73299818750002,57.0,78.0
600,129.31836478750003,129.9250710125,61.0,88.0
601,129.86714428750003,130.29549717500004,57.0,83.0
602,130.2329972875,130.435740825,61.0,87.0
603,129.31836478750003,130.600374675,45.0,86.0
604,129.68421778750002,130.62628926250002,52.0,82.0
605,130.78177678750004,131.17811753750001,57.0,74.0
606,130.78177678750004,131.23299548750003,61.0,85.0
607,130.78177678750004,131.28177588750003,64.0,85.0
608,131.33055628750003,131.58208022500003,57.0,88.0
609,131.5134827875,131.70098245000003,61.0,87.0
610,131.14762978750002,131.72232387500003,52.0,83.0
611,130.78177678750004,131.80616518750003,45.0,87.0
612,131.69640928750002,131.82293345000002,57.0,87.0
613,132.2451887875,132.76957808750004,62.0,78.0
614,132.2451887875,132.83207797500003,57.0,81.0
615,132.79396828750004,133.22232117500002,54.0,89.0
616,132.2451887875,133.22994311250002,38.0,92.0
617,132.61104178750003,133.28634545000003,45.0,82.0
618,133.15982128750002,133.32750391250002,57.0,95.0
619,133.34274778750003,133.46927195000004,54.0,82.0
620,133.70860078750002,134.31530701250003,52.0,81.0
621,133.70860078750002,134.31835578750002,56.0,82.0
622,134.2573802875,134.69640388750003,59.0,86.0
623,134.62323328750003,134.69640388750003,59.0,61.0
624,134.07445378750003,134.80006223750001,47.0,83.0
625,133.70860078750002,134.81835488750002,40.0,87.0
626,134.62323328750003,134.82292805000003,56.0,82.0
627,134.80615978750004,134.97536680000002,64.0,85.0
628,135.17201278750002,135.38847581250002,56.0,81.0
629,135.17201278750002,135.71774351250002,64.0,83.0
630,135.5378657875,135.85798716250002,56.0,86.0
631,135.72079228750002,136.07749896250002,61.0,87.0
632,135.17201278750002,136.13390130000002,49.0,91.0
633,136.08664528750003,136.50280307500003,64.0,88.0
634,136.2695717875,136.7314612,61.0,88.0
635,137.18420428750002,137.51652076250002,54.0,87.0
636,137.5500572875,137.7848129625,61.0,89.0
637,137.73298378750002,137.85950795000002,57.0,86.0
638,137.00127778750002,137.93115416250004,49.0,86.0
639,136.63542478750003,137.96773946250002,42.0,87.0
640,138.09883678750003,138.3518851125,54.0,79.0
641,138.09883678750003,138.50279947500002,59.0,86.0
642,138.46468978750002,138.71011617500002,54.0,87.0
643,138.64761628750003,139.04853020000002,62.0,87.0
644,138.09883678750003,139.07749356250002,47.0,88.0
645,139.01346928750002,139.21316405000002,59.0,87.0
646,139.19639578750002,139.37322473750004,54.0,88.0
647,139.5622487875,139.90980913750002,56.0,81.0
648,139.5622487875,140.09578441250002,61.0,86.0
649,140.11102828750003,140.42657650000004,56.0,87.0
650,139.92810178750003,140.53785678750003,44.0,74.0
651,139.5622487875,140.55005188750002,37.0,88.0
652,140.47688128750002,140.58663718750003,61.0,88.0
653,141.02566078750002,141.42505031250002,54.0,82.0
654,141.02566078750002,141.54547692500003,61.0,86.0
655,141.5744402875,141.81986667500001,54.0,86.0
656,141.94029328750003,142.14913437500002,56.0,88.0
657,141.39151378750003,142.24364640000002,49.0,78.0
658,142.12321978750003,142.27565853750002,57.0,92.0
659,141.02566078750002,142.35340230000003,42.0,86.0
660,142.48907278750002,142.75888937500002,61.0,88.0
661,142.48907278750002,142.81834048750002,54.0,81.0
662,143.03785228750002,143.31071765000002,54.0,78.0
663,143.03785228750002,143.33205907500002,66.0,85.0
664,143.40370528750003,143.49364415000002,54.0,78.0
665,143.40370528750003,143.62016831250003,61.0,81.0
666,143.58663178750004,143.76346073750003,57.0,76.0
667,143.76955828750002,143.92352142500002,54.0,87.0
668,142.85492578750004,144.04699681250003,49.0,80.0
669,142.48907278750002,144.08663088750004,42.0,87.0
670,143.95248478750003,144.08663088750004,42.0,86.0
671,143.95248478750003,144.26498422500003,61.0,82.0
672,143.95248478750003,144.56528856250003,69.0,84.0
673,144.50126428750002,144.89303187500002,61.0,88.0
674,144.86711728750004,145.02412920000003,66.0,83.0
675,144.3183377875,145.28937262500003,49.0,80.0
676,145.05004378750002,145.301567725,61.0,87.0
677,145.23297028750002,145.34882373750003,66.0,80.0
678,145.78174978750002,146.33357806250004,49.0,80.0
679,145.41589678750003,146.37778530000003,42.0,85.0
680,145.96467628750003,146.39760233750002,61.0,87.0
681,146.3305292875,146.55308986250003,66.0,86.0
682,145.41589678750003,146.57595567500002,69.0,87.0
683,146.51345578750002,146.6140653625,61.0,86.0
684,146.87930878750004,147.65827080000003,69.0,87.0
685,147.42808828750003,147.83509975,62.0,86.0
686,147.79394128750002,147.99363605000002,66.0,80.0
687,146.87930878750004,148.14455041250002,50.0,90.0
688,147.24516178750002,148.23296488750003,57.0,74.0
689,147.97686778750003,148.26650141250002,62.0,81.0
690,148.15979428750003,148.40674506250002,66.0,81.0
691,148.3427207875,148.97839037500003,69.0,79.0
692,148.3427207875,149.06680485000004,50.0,87.0
693,148.70857378750003,149.07899995000002,57.0,76.0
694,148.89150028750004,149.29393858750004,62.0,86.0
695,149.25735328750002,149.51954793750002,69.0,86.0
696,149.44027978750003,149.53631620000002,62.0,84.0
697,149.80613278750002,150.17960772500004,59.0,82.0
698,149.80613278750002,150.51344858750002,68.0,80.0
699,150.3549122875,150.746679875,59.0,87.0
700,150.72076528750003,150.89454546250002,64.0,81.0
701,150.17198578750003,151.12777675000004,47.0,76.0
702,149.80613278750002,151.13997185000002,40.0,85.0
703,150.90369178750004,151.16283766250004,59.0,87.0
704,151.08661828750002,151.19332541250003,64.0,80.0
705,151.26954478750002,151.67045870000004,59.0,83.0
706,151.63539778750004,152.09118965000002,47.0,79.0
707,151.26954478750002,152.10338475000003,40.0,86.0
708,151.26954478750002,152.21466503750003,68.0,87.0
709,151.81832428750002,152.25734788750003,59.0,88.0
710,152.18417728750003,152.28936002500004,64.0,91.0
711,152.73295678750003,153.14759018750001,57.0,78.0
712,152.73295678750003,153.33966301250004,61.0,88.0
713,153.28173628750002,153.71008917500004,57.0,83.0
714,153.64758928750004,153.85033282500004,61.0,87.0
715,152.73295678750003,154.01496667500004,45.0,86.0
716,153.09880978750002,154.04088126250002,52.0,82.0
717,154.19636878750003,154.5927095375,57.0,74.0
718,154.19636878750003,154.64758748750003,61.0,85.0
719,154.19636878750003,154.69636788750003,64.0,85.0
720,154.74514828750003,154.99667222500003,57.0,88.0
721,154.92807478750004,155.11557445000003,61.0,87.0
722,154.56222178750002,155.13691587500003,52.0,83.0
723,154.19636878750003,155.22075718750003,45.0,87.0
724,155.11100128750002,155.23752545000002,57.0,87.0
725,155.65978078750004,156.18417008750004,62.0,78.0
726,155.65978078750004,156.24666997500003,57.0,81.0
727,156.20856028750003,156.63691317500002,54.0,89.0
728,155.65978078750004,156.64453511250002,38.0,92.0
729,156.02563378750003,156.70093745000003,45.0,82.0
730,156.57441328750002,156.74209591250002,57.0,95.0
731,156.75733978750003,156.88386395000003,54.0,82.0
732,157.12319278750002,157.72989901250003,52.0,81.0
733,157.12319278750002,157.73294778750002,56.0,82.0
734,157.67197228750004,158.11099588750002,59.0,86.0
735,158.03782528750003,158.11099588750002,59.0,61.0
736,157.48904578750003,158.2146542375,47.0,83.0
737,157.12319278750002,158.23294688750002,40.0,87.0
738,158.03782528750003,158.23752005000003,56.0,82.0
739,158.22075178750003,158.38995880000002,64.0,85.0
740,158.58660478750002,158.80306781250002,56.0,81.0
741,158.58660478750002,159.13233551250002,64.0,83.0
742,158.95245778750004,159.27257916250002,56.0,86.0
743,159.13538428750002,159.49209096250001,61.0,87.0
744,158.58660478750002,159.54849330000002,49.0,91.0
745,159.50123728750003,159.91739507500003,64.0,88.0
746,159.68416378750004,160.14605320000004,61.0,88.0
747,160.59879628750002,160.93111276250002,54.0,87.0
748,160.96464928750004,161.19940496250004,61.0,89.0
749,161.14757578750002,161.27409995000002,57.0,86.0
750,160.41586978750001,161.34574616250003,49.0,86.0
751,160.05001678750003,161.38233146250002,42.0,87.0
752,161.51342878750003,161.76647711250004,54.0,79.0
753,161.51342878750003,161.91739147500002,59.0,86.0
754,161.87928178750002,162.12470817500002,54.0,87.0
755,162.06220828750003,162.46312220000002,62.0,87.0
756,161.51342878750003,162.49208556250002,47.0,88.0
757,162.42806128750001,162.62775605000002,59.0,87.0
758,162.61098778750002,162.78781673750004,54.0,88.0
759,162.97684078750004,163.32440113750002,56.0,81.0
760,162.97684078750004,163.51037641250002,61.0,86.0
761,163.52562028750003,163.84116850000004,56.0,87.0
762,163.34269378750002,163.95244878750003,44.0,74.0
763,162.97684078750004,163.96464388750002,37.0,88.0
764,163.89147328750002,164.00122918750003,61.0,88.0
765,164.44025278750001,164.83964231250002,54.0,82.0
766,164.44025278750001,164.96006892500003,61.0,86.0
767,164.98903228750004,165.23445867500004,54.0,86.0
768,165.35488528750003,165.56372637500002,56.0,88.0
769,164.80610578750003,165.65823840000002,49.0,78.0
770,165.53781178750003,165.69025053750002,57.0,92.0
771,164.44025278750001,165.76799430000003,42.0,86.0
772,165.90366478750002,166.17348137500002,61.0,88.0
773,165.90366478750002,166.23293248750002,54.0,81.0
774,166.45244428750001,166.72530965000004,54.0,78.0
775,166.45244428750001,166.74665107500002,66.0,85.0
776,166.81829728750003,166.90823615000002,54.0,78.0
777,166.81829728750003,167.03476031250003,61.0,81.0
778,167.00122378750004,167.17805273750002,57.0,76.0
779,167.18415028750002,167.33811342500002,54.0,87.0
780,166.26951778750004,167.46158881250003,49.0,80.0
781,165.90366478750002,167.50122288750003,42.0,87.0
782,167.36707678750003,167.82134426250002,62.0,88.0
783,167.36707678750003,168.01799025000003,38.0,87.0
784,167.55000328750003,168.05914871250002,45.0,75.0
785,167.73292978750004,168.21311185000002,54.0,84.0
786,167.91585628750002,168.21920940000004,57.0,88.0
787,168.83048878750003,169.08201272500003,52.0,76.0
788,168.83048878750003,169.19329301250002,56.0,78.0
789,169.19634178750002,169.75579200000004,52.0,83.0
790,169.37926828750003,169.76646271250004,59.0,87.0
791,169.01341528750004,169.86097473750002,47.0,80.0
792,168.83048878750003,169.95396237500003,40.0,86.0
793,169.74512128750004,170.00884032500002,64.0,87.0
794,170.29390078750004,170.51341258750003,52.0,82.0
795,170.29390078750004,170.76950968750003,57.0,74.0
796,170.65975378750002,170.85335100000003,52.0,78.0
797,170.84268028750003,171.23902103750004,61.0,85.0
798,171.20853328750002,171.39908172500003,57.0,88.0
799,170.29390078750004,171.68109341250002,45.0,82.0
800,171.75731278750004,172.07743416250003,54.0,82.0
801,171.75731278750004,172.15212915000004,57.0,76.0
802,172.30609228750004,172.45395787500004,54.0,86.0
803,172.48901878750004,172.65517702500003,56.0,78.0
804,172.67194528750002,172.76188415000004,57.0,95.0
805,172.12316578750003,172.98444472500003,49.0,82.0
806,171.75731278750004,173.09724940000004,42.0,87.0
807,173.22072478750002,173.41737077500002,54.0,83.0
808,173.22072478750002,173.62773625000003,59.0,82.0
809,173.58657778750003,173.76950428750004,54.0,80.0
810,173.22072478750002,174.14450361250002,47.0,91.0
811,173.76950428750004,174.20852788750003,62.0,89.0
812,174.13535728750003,174.30303991250003,59.0,85.0
813,174.68413678750002,175.02102642500003,56.0,83.0
814,174.68413678750002,175.15212375000004,59.0,87.0
815,175.23291628750002,175.64297652500002,56.0,87.0
816,175.04998978750004,175.68565937500003,47.0,81.0
817,174.68413678750002,175.71919590000002,40.0,87.0
818,175.59876928750003,175.84724445000003,64.0,88.0
819,175.78169578750004,176.00273197500002,59.0,83.0
820,175.96462228750002,176.16431705000002,56.0,85.0
821,176.69632828750002,177.07894955000003,57.0,90.0
822,177.06218128750004,177.34571736250004,61.0,87.0
823,176.14754878750003,177.42193673750003,45.0,91.0
824,176.51340178750004,177.45090010000004,52.0,86.0
825,177.61096078750003,178.05913071250004,57.0,80.0
826,177.61096078750003,178.21156946250002,64.0,80.0
827,178.15974028750003,178.42498371250002,57.0,79.0
828,178.52559328750004,178.64601990000003,57.0,84.0
829,177.97681378750002,178.66888571250004,52.0,86.0
830,177.61096078750003,178.71156856250002,45.0,88.0
831,178.52559328750004,178.80760497500003,61.0,87.0
832,178.70851978750002,178.86705608750003,57.0,80.0
833,179.44022578750003,180.00120038750003,55.0,92.0
834,179.62315228750003,180.10485873750002,62.0,87.0
835,179.98900528750002,180.42498011250004,59.0,81.0
836,179.07437278750004,180.46004102500004,43.0,100.0
837,179.25729928750002,180.47071173750004,50.0,78.0
838,180.35485828750004,180.93412553750002,67.0,90.0
839,181.08656428750004,181.25424691250004,62.0,87.0
840,180.90363778750003,181.40973443750002,55.0,91.0
841,180.53778478750004,181.46156361250004,43.0,91.0
842,180.72071128750002,181.46613677500002,50.0,87.0
843,181.45241728750003,181.67192908750002,59.0,79.0
844,181.63534378750003,181.74509968750004,55.0,97.0
845,182.00119678750002,182.44326916250003,57.0,76.0
846,182.00119678750002,182.53015925000003,54.0,82.0
847,182.54997628750004,182.95393897500003,61.0,87.0
848,182.91582928750003,183.07284120000003,57.0,87.0
849,183.09875578750004,183.33351146250004,54.0,87.0
850,182.36704978750004,183.33503585000003,49.0,84.0
851,182.00119678750002,183.37162115000004,42.0,87.0
852,183.46460878750003,183.87771780000003,54.0,81.0
853,183.46460878750003,183.88076657500002,66.0,84.0
854,183.83046178750004,184.10485153750002,49.0,79.0
855,184.01338828750002,184.25881467500002,61.0,87.0
856,184.01338828750002,184.27558293750002,54.0,87.0
857,184.19631478750003,184.44478995000003,49.0,84.0
858,183.46460878750003,184.44631433750004,42.0,86.0
859,184.37924128750004,184.47832647500005,61.0,82.0
860,184.37924128750004,184.50119228750003,54.0,82.0
861,184.37924128750004,184.53320442500004,57.0,86.0
862,184.92802078750003,185.29234940000003,67.0,82.0
863,184.92802078750003,185.29539817500003,60.0,83.0
864,185.47680028750003,185.91429950000003,60.0,85.0
865,185.84265328750004,186.20393312500002,64.0,82.0
866,185.84265328750004,186.21460383750002,67.0,77.0
867,184.92802078750003,186.25423791250003,36.0,82.0
868,185.29387378750002,186.31978657500002,43.0,81.0
869,186.39143278750004,186.44935951250002,60.0,67.0
870,186.39143278750004,186.81216373750004,64.0,82.0
871,186.39143278750004,186.83502955000003,67.0,79.0
872,186.39143278750004,187.11094368750003,36.0,88.0
873,186.75728578750002,187.12923633750003,43.0,83.0
874,186.94021228750003,187.28929702500002,60.0,95.0
875,187.30606528750002,187.54539412500003,72.0,86.0
876,187.48899178750003,187.58350381250003,60.0,87.0
877,187.85484478750004,188.19325881250003,61.0,82.0
878,187.85484478750004,188.34417317500004,65.0,87.0
879,188.40362428750004,188.58959956250004,59.0,91.0
880,188.58655078750004,188.76490412500004,65.0,85.0
881,188.76947728750002,188.89600145000003,59.0,88.0
882,188.95240378750003,189.16276926250003,68.0,82.0
883,187.85484478750004,189.17801313750005,49.0,89.0
884,188.22069778750003,189.21764721250003,56.0,83.0
885,189.13533028750004,189.70392682500002,61.0,86.0
886,189.31825678750002,189.73136580000002,73.0,91.0
887,189.68410978750003,190.13532848750003,56.0,87.0
888,190.04996278750002,190.25575510000004,61.0,87.0
889,190.04996278750002,190.38532803750005,65.0,88.0
890,190.04996278750002,190.48441322500003,68.0,86.0
891,190.41581578750004,190.71307135000004,61.0,91.0
892,190.59874228750004,190.73441277500004,65.0,91.0
893,189.31825678750002,190.74660787500002,49.0,90.0
894,190.23288928750003,190.74965665000002,56.0,88.0
895,190.78166878750002,191.09416822500003,61.0,82.0
896,190.78166878750002,191.39447256250003,69.0,84.0
897,191.33044828750005,191.72221587500005,61.0,88.0
898,191.69630128750003,191.85331320000003,66.0,83.0
899,191.14752178750004,192.11855662500002,49.0,80.0
900,190.78166878750002,192.12465417500005,42.0,86.0
901,191.87922778750004,192.13075172500004,61.0,87.0
902,192.06215428750002,192.17800773750002,66.0,80.0
903,192.61093378750004,193.16276206250004,49.0,80.0
904,192.24508078750003,193.20696930000003,42.0,85.0
905,192.79386028750002,193.22678633750004,61.0,87.0
906,193.15971328750004,193.38227386250003,66.0,86.0
907,192.24508078750003,193.40513967500004,69.0,87.0
908,193.34263978750005,193.44324936250004,61.0,86.0
909,193.70849278750003,194.48745480000002,69.0,87.0
910,194.25727228750003,194.66428375000004,62.0,86.0
911,194.62312528750005,194.82282005000005,66.0,80.0
912,193.70849278750003,194.97373441250002,50.0,90.0
913,194.07434578750002,195.06214888750003,57.0,74.0
914,194.80605178750002,195.09568541250005,62.0,81.0
915,194.98897828750003,195.23592906250002,66.0,81.0
916,195.17190478750004,195.80757437500003,69.0,79.0
917,195.17190478750004,195.89598885000004,50.0,87.0
918,195.53775778750003,195.90818395000002,57.0,76.0
919,195.72068428750003,196.12312258750003,62.0,86.0
920,196.08653728750002,196.34873193750005,69.0,86.0
921,196.26946378750003,196.36550020000004,62.0,84.0
922,196.63531678750005,197.00879172500004,59.0,82.0
923,196.63531678750005,197.34263258750002,68.0,80.0
924,197.18409628750004,197.57586387500004,59.0,87.0
925,197.54994928750003,197.72372946250005,64.0,81.0
926,197.00116978750003,197.95696075000004,47.0,76.0
927,196.63531678750005,197.96915585000002,40.0,85.0
928,197.73287578750003,197.99202166250004,59.0,87.0
929,197.91580228750004,198.02250941250003,64.0,80.0
930,198.09872878750002,198.49964270000004,59.0,83.0
931,198.46458178750004,198.92037365000004,47.0,79.0
932,198.09872878750002,198.93256875000003,40.0,86.0
933,198.09872878750002,199.04384903750002,68.0,87.0
934,198.64750828750005,199.08653188750003,59.0,88.0
935,199.01336128750003,199.11854402500003,64.0,91.0
936,199.56214078750003,199.97677418750004,57.0,78.0
937,199.56214078750003,200.16884701250004,61.0,88.0
938,200.11092028750002,200.53927317500003,57.0,83.0
939,200.47677328750004,200.67951682500004,61.0,87.0
940,199.56214078750003,200.84415067500004,45.0,86.0
941,199.92799378750004,200.87006526250005,52.0,82.0
942,201.02555278750003,201.42189353750004,57.0,74.0
943,201.02555278750003,201.47677148750003,61.0,85.0
944,201.02555278750003,201.52555188750003,64.0,85.0
945,201.57433228750003,201.82585622500002,57.0,88.0
946,201.75725878750004,201.94475845000002,61.0,87.0
947,201.39140578750005,201.96609987500003,52.0,83.0
948,201.02555278750003,202.04994118750002,45.0,87.0
949,201.94018528750004,202.06670945000005,57.0,87.0
950,202.48896478750004,203.01335408750003,62.0,78.0
951,202.48896478750004,203.07585397500003,57.0,81.0
952,203.03774428750003,203.46609717500004,54.0,89.0
953,202.48896478750004,203.47371911250005,38.0,92.0
954,202.85481778750002,203.53012145000002,45.0,82.0
955,203.40359728750005,203.57127991250005,57.0,95.0
956,203.58652378750003,203.71304795000003,54.0,82.0
957,203.95237678750004,204.55908301250003,52.0,81.0
958,203.95237678750004,204.56213178750002,56.0,82.0
959,204.50115628750004,204.94017988750002,59.0,86.0
960,204.86700928750003,204.94017988750002,59.0,61.0
961,204.31822978750003,205.04383823750004,47.0,83.0
962,203.95237678750004,205.06213088750005,40.0,87.0
963,204.86700928750003,205.06670405000003,56.0,82.0
964,205.04993578750003,205.21914280000004,64.0,85.0
965,205.41578878750005,205.63225181250004,56.0,81.0
966,205.41578878750005,205.96151951250005,64.0,83.0
967,205.78164178750004,206.10176316250005,56.0,86.0
968,205.96456828750004,206.32127496250004,61.0,87.0
969,205.41578878750005,206.37767730000004,49.0,91.0
970,206.33042128750003,206.74657907500003,64.0,88.0
971,206.51334778750004,206.97523720000004,61.0,88.0
972,207.42798028750005,207.76029676250005,54.0,87.0
973,207.79383328750004,208.02858896250004,61.0,89.0
974,207.97675978750004,208.10328395000005,57.0,86.0
975,207.24505378750004,208.17493016250003,49.0,86.0
976,206.87920078750003,208.21151546250005,42.0,87.0
977,208.34261278750003,208.59566111250004,54.0,79.0
978,208.34261278750003,208.74657547500004,59.0,86.0
979,208.70846578750005,208.95389217500005,54.0,87.0
980,208.89139228750003,209.29230620000004,62.0,87.0
981,208.34261278750003,209.32126956250005,47.0,88.0
982,209.25724528750004,209.45694005000004,59.0,87.0
983,209.44017178750005,209.61700073750004,54.0,88.0
984,209.80602478750004,210.15358513750004,56.0,81.0
985,209.80602478750004,210.33956041250005,61.0,86.0
986,210.35480428750003,210.67035250000004,56.0,87.0
987,210.17187778750002,210.78163278750003,44.0,74.0
988,209.80602478750004,210.79382788750004,37.0,88.0
989,210.72065728750005,210.83041318750003,61.0,88.0
990,211.26943678750004,211.66882631250004,54.0,82.0
991,211.26943678750004,211.78925292500003,61.0,86.0
992,211.81821628750004,212.06364267500004,54.0,86.0
993,212.18406928750002,212.39291037500004,56.0,88.0
994,211.63528978750003,212.48742240000004,49.0,78.0
995,212.36699578750003,212.51943453750005,57.0,92.0
996,211.26943678750004,212.59717830000002,42.0,86.0
997,212.73284878750005,213.00266537500005,61.0,88.0
998,212.73284878750005,213.06211648750005,54.0,81.0
999,213.28162828750004,213.55449365000004,54.0,78.0
1000,213.28162828750004,213.57583507500004,66.0,85.0
1001,213.64748128750003,213.73742015000005,54.0,78.0
1002,213.64748128750003,213.86394431250002,61.0,81.0
1003,213.83040778750004,214.00723673750005,57.0,76.0
1004,214.01333428750004,214.16729742500004,54.0,87.0
1005,213.09870178750003,214.29077281250002,49.0,80.0
1006,212.73284878750005,214.33040688750003,42.0,87.0
1007,214.19626078750002,214.33040688750003,42.0,86.0
1008,214.19626078750002,214.50876022500003,61.0,82.0
1009,214.19626078750002,214.80906456250003,69.0,84.0
1010,214.74504028750005,215.13680787500004,61.0,88.0
1011,215.11089328750003,215.26790520000003,66.0,83.0
1012,214.56211378750004,215.53314862500002,49.0,80.0
1013,215.29381978750004,215.54534372500004,61.0,87.0
1014,215.47674628750005,215.59259973750002,66.0,80.0
1015,216.02552578750004,216.57735406250004,49.0,80.0
1016,215.65967278750003,216.62156130000002,42.0,85.0
1017,216.20845228750005,216.64137833750004,61.0,87.0
1018,216.57430528750004,216.79686586250003,66.0,86.0
1019,215.65967278750003,216.81973167500004,69.0,87.0
1020,216.75723178750005,216.85784136250004,61.0,86.0
1021,217.12308478750003,217.90204680000005,69.0,87.0
1022,217.67186428750003,218.07887575000004,62.0,86.0
1023,218.03771728750004,218.23741205000005,66.0,80.0
1024,217.12308478750003,218.38832641250005,50.0,90.0
1025,217.48893778750005,218.47674088750003,57.0,74.0
1026,218.22064378750005,218.51027741250005,62.0,81.0
1027,218.40357028750003,218.65052106250005,66.0,81.0
1028,218.58649678750004,219.22216637500003,69.0,79.0
1029,218.58649678750004,219.31058085000004,50.0,87.0
1030,218.95234978750003,219.32277595000005,57.0,76.0
1031,219.13527628750003,219.53771458750003,62.0,86.0
1032,219.50112928750005,219.76332393750005,69.0,86.0
1033,219.68405578750003,219.78009220000004,62.0,84.0
1034,220.04990878750004,220.42338372500004,59.0,82.0
1035,220.04990878750004,220.75722458750005,68.0,80.0
1036,220.59868828750004,220.99045587500004,59.0,87.0
1037,220.96454128750003,221.13832146250004,64.0,81.0
1038,220.41576178750003,221.37155275000003,47.0,76.0
1039,220.04990878750004,221.38374785000005,40.0,85.0
1040,221.14746778750003,221.40661366250004,59.0,87.0
1041,221.33039428750004,221.43710141250003,64.0,80.0
1042,221.51332078750005,221.91423470000004,59.0,83.0
1043,221.87917378750004,222.33496565000004,47.0,79.0
1044,221.51332078750005,222.34716075000003,40.0,86.0
1045,221.51332078750005,222.45844103750005,68.0,87.0
1046,222.06210028750004,222.50112388750003,59.0,88.0
1047,222.42795328750003,222.53313602500003,64.0,91.0
1048,222.97673278750003,223.39136618750004,57.0,78.0
1049,222.97673278750003,223.58343901250004,61.0,88.0
1050,223.52551228750005,223.95386517500003,57.0,83.0
1051,223.89136528750004,224.09410882500003,61.0,87.0
1052,222.97673278750003,224.25874267500004,45.0,86.0
1053,223.34258578750004,224.28465726250005,52.0,82.0
1054,224.44014478750003,224.83648553750004,57.0,74.0
1055,224.44014478750003,224.89136348750003,61.0,85.0
1056,224.44014478750003,224.94014388750003,64.0,85.0
1057,224.98892428750003,225.24044822500005,57.0,88.0
1058,225.17185078750003,225.35935045000005,61.0,87.0
1059,224.80599778750005,225.38069187500002,52.0,83.0
1060,224.44014478750003,225.46453318750005,45.0,87.0
1061,225.35477728750004,225.48130145000005,57.0,87.0
1062,225.90355678750004,226.42794608750003,62.0,78.0
1063,225.90355678750004,226.49044597500003,57.0,81.0
1064,226.45233628750003,226.88068917500004,54.0,89.0
1065,225.90355678750004,226.88831111250005,38.0,92.0
1066,226.26940978750005,226.94471345000005,45.0,82.0
1067,226.81818928750005,226.98587191250004,57.0,95.0
1068,227.00111578750003,227.12763995000003,54.0,82.0
1069,227.36696878750004,227.97367501250005,52.0,81.0
1070,227.36696878750004,227.97672378750005,56.0,82.0
1071,227.91574828750004,228.35477188750005,59.0,86.0
1072,228.28160128750005,228.35477188750005,59.0,61.0
1073,227.73282178750003,228.45843023750004,47.0,83.0
1074,227.36696878750004,228.47672288750005,40.0,87.0
1075,228.28160128750005,228.48129605000003,56.0,82.0
1076,228.46452778750003,228.63373480000004,64.0,85.0
1077,228.83038078750005,229.04684381250004,56.0,81.0
1078,228.83038078750005,229.37611151250005,64.0,83.0
1079,229.19623378750003,229.51635516250005,56.0,86.0
1080,229.37916028750004,229.73586696250004,61.0,87.0
1081,228.83038078750005,229.79226930000004,49.0,91.0
1082,229.74501328750003,230.16117107500003,64.0,88.0
1083,229.92793978750004,230.38982920000004,61.0,88.0
1084,230.84257228750005,231.17488876250005,54.0,87.0
1085,231.20842528750003,231.44318096250004,61.0,89.0
1086,231.39135178750004,231.51787595000005,57.0,86.0
1087,230.65964578750004,231.58952216250003,49.0,86.0
1088,230.29379278750005,231.62610746250004,42.0,87.0
1089,231.75720478750003,232.01025311250004,54.0,79.0
1090,231.75720478750003,232.16116747500004,59.0,86.0
1091,232.12305778750004,232.36848417500005,54.0,87.0
1092,232.30598428750005,232.70689820000004,62.0,87.0
1093,231.75720478750003,232.73586156250005,47.0,88.0
1094,232.67183728750004,232.87153205000004,59.0,87.0
1095,232.85476378750005,233.03159273750003,54.0,88.0
1096,233.22061678750003,233.56817713750004,56.0,81.0
1097,233.22061678750003,233.75415241250005,61.0,86.0
1098,233.76939628750003,234.08494450000003,56.0,87.0
1099,233.58646978750005,234.19622478750003,44.0,74.0
1100,233.22061678750003,234.20841988750004,37.0,88.0
1101,234.13524928750005,234.24500518750003,61.0,88.0
1102,234.68402878750004,235.08341831250004,54.0,82.0
1103,234.68402878750004,235.20384492500003,61.0,86.0
1104,235.23280828750003,235.47823467500004,54.0,86.0
1105,235.59866128750005,235.80750237500004,56.0,88.0
1106,235.04988178750003,235.90201440000004,49.0,78.0
1107,235.78158778750003,235.93402653750005,57.0,92.0
1108,234.68402878750004,236.01177030000005,42.0,86.0
1109,236.14744078750005,236.41725737500005,61.0,88.0
1110,236.14744078750005,236.47670848750005,54.0,81.0
1111,236.69622028750004,236.96908565000004,54.0,78.0
1112,236.69622028750004,236.99042707500004,66.0,85.0
1113,237.06207328750003,237.15201215000005,54.0,78.0
1114,237.06207328750003,237.27853631250005,61.0,81.0
1115,237.24499978750003,237.42182873750005,57.0,76.0
1116,237.42792628750004,237.58188942500004,54.0,87.0
1117,236.51329378750003,237.70536481250005,49.0,80.0
1118,236.14744078750005,237.74499888750003,42.0,87.0
1119,237.61085278750005,238.02091302500006,62.0,87.0
1120,237.97670578750004,238.37761970000005,54.0,91.0
1121,238.15963228750005,238.53005845000004,59.0,87.0
1122,237.61085278750005,238.56207058750005,47.0,88.0
1123,238.52548528750003,238.80139942500003,62.0,88.0
1124,238.70841178750004,239.06511846250004,59.0,79.0
1125,239.25719128750004,239.66420275000004,44.0,86.0
1126,239.07426478750006,239.66877591250005,37.0,87.0
1127,239.44011778750004,239.68097101250004,49.0,88.0
1128,239.62304428750005,239.76481232500004,53.0,97.0
1129,240.17182378750005,242.45078310000005,56.0,78.0
1130,239.98889728750004,242.47822207500005,49.0,83.0
1131,240.53767678750003,243.59559811250006,65.0,89.0
1132,240.35475028750005,243.60626882500003,61.0,88.0
1133,244.65657181250003,245.08340031250003,61.0,74.0
1134,245.02090042500004,245.38522903750004,68.0,73.0
1135,245.41266801250003,245.91876466250005,61.0,72.0
1136,245.81510631250003,246.01175230000004,69.0,77.0
1137,244.28004810000004,246.60626342500004,54.0,77.0
1138,246.58492200000003,246.81662890000004,73.0,81.0
1139,248.15656551250004,248.56510136250003,61.0,73.0
1140,248.55747942500005,248.77851561250003,62.0,63.0
1141,248.96753966250003,249.34711215000004,59.0,65.0
1142,248.96296650000005,249.36235602500005,66.0,75.0
1143,247.76022476250003,249.89589165000004,54.0,71.0
1144,249.72820902500004,249.90046481250005,62.0,76.0
1145,249.73278218750005,249.90656236250004,59.0,76.0
1146,247.38065227500005,249.91723307500004,47.0,75.0
1147,250.55290266250003,250.99802381250004,65.0,74.0
1148,250.92942637500005,252.12302178750005,61.0,83.0
1149,251.69162012500004,252.19619238750005,65.0,73.0
1150,251.31052325000005,252.21296065000004,68.0,77.0
1151,250.54680511250004,253.16417845000004,49.0,84.0
1152,252.06509506250003,253.94923801250005,73.0,87.0
1153,252.47972846250005,254.04832320000006,68.0,74.0
1154,252.92180083750006,254.05442075000005,65.0,72.0
1155,253.37301953750006,254.10624992500004,61.0,71.0
1156,254.76783410000004,255.43856460000003,56.0,71.0
1157,254.32576172500004,255.44313776250004,49.0,69.0
1158,255.31661360000004,255.52697907500004,57.0,56.0
1159,253.94466485000004,255.65045446250005,42.0,82.0
1160,256.00411236250005,256.74344030000003,42.0,46.0
1161,256.11844142500007,257.22514675,54.0,71.0
1162,256.203807125,257.26325643750005,57.0,71.0
1163,256.36691658750004,257.29831735000005,66.0,47.0
