,start,end,pitch,velocity
0,24.768671968750006,24.839074250000007,77.0,100.0
1,24.941085718750006,25.027292593750005,77.0,96.0
2,25.113499468750007,25.356315500000004,77.0,110.0
3,25.458326968750008,25.614936125000007,72.0,107.0
4,25.803154468750005,25.873556750000006,77.0,110.0
5,25.975568218750006,26.045970500000006,77.0,96.0
6,26.147981968750006,26.211200343750008,72.0,100.0
7,26.492809468750007,26.558901406250005,77.0,108.0
8,26.665223218750008,26.735625500000005,77.0,102.0
9,26.837636968750008,26.909476031250005,77.0,100.0
10,27.010050718750005,27.084763343750005,77.0,102.0
11,27.182464468750005,27.340510406250008,77.0,114.0
12,27.527291968750006,27.744245937500008,72.0,96.0
13,27.872119468750007,28.057464250000006,77.0,108.0
14,28.21694696875001,28.393671062500008,77.0,108.0
15,28.561774468750006,28.84338359375001,77.0,110.0
16,28.906601968750007,29.110624906250006,72.0,108.0
17,29.251429468750008,29.31895818750001,77.0,108.0
18,29.423843218750008,29.492808718750005,77.0,98.0
19,29.59625696875001,29.663785687500006,77.0,98.0
20,29.768670718750005,29.854877593750007,76.0,107.0
21,29.941084468750006,30.12355568750001,77.0,108.0
22,30.285911968750007,30.461199281250007,72.0,110.0
23,30.97556696875001,31.045969250000006,77.0,110.0
24,31.147980718750006,31.25142896875001,77.0,98.0
25,31.320394468750006,31.495681781250006,72.0,108.0
26,31.665221968750007,31.737061031250008,77.0,100.0
27,31.837635718750008,31.93390006250001,77.0,94.0
28,32.010049468750005,32.260049406250005,76.0,114.0
29,32.354876968750006,32.604876906250006,76.0,114.0
30,32.69970446875001,32.89654350000001,77.0,113.0
31,33.04453196875001,33.264359500000005,76.0,116.0
32,33.38935946875001,33.455451406250006,77.0,108.0
33,33.561773218750005,33.666658250000005,77.0,100.0
34,33.73418696875001,33.88504900000001,72.0,108.0
35,34.07901446875001,34.14654318750001,77.0,108.0
36,34.25142821875001,34.32039371875001,77.0,100.0
37,34.42384196875001,34.49137068750001,77.0,98.0
38,34.59625571875001,34.660910875000006,77.0,98.0
39,34.768669468750005,34.97269240625001,77.0,110.0
40,35.113496968750006,35.23562337500001,72.0,113.0
41,35.45832446875001,35.73562325000001,77.0,108.0
42,35.80315196875001,35.95114043750001,72.0,107.0
43,36.320393218750006,36.39797940625001,77.0,91.0
44,36.49280696875001,36.571829937500006,77.0,94.0
45,36.66522071875001,36.74280690625001,77.0,90.0
46,36.83763446875001,36.91522065625001,77.0,96.0
47,37.01004821875001,37.08045050000001,77.0,91.0
48,37.18246196875001,37.25286425000001,77.0,91.0
49,37.35487571875001,37.42958834375001,77.0,96.0
50,37.527289468750006,37.65803656250001,77.0,116.0
51,37.87211696875001,38.09481806250001,72.0,104.0
52,38.21694446875001,38.29309387500001,77.0,93.0
53,38.38935821875001,38.46407084375001,77.0,93.0
54,38.56177196875001,38.63361103125001,77.0,91.0
55,38.73418571875001,38.89366843750001,77.0,91.0
56,38.90659946875001,39.04740403125001,77.0,110.0
57,39.25142696875001,39.47987518750001,72.0,107.0
58,39.59625446875001,39.66521996875001,77.0,102.0
59,39.76866821875001,39.84050728125001,77.0,93.0
60,39.94108196875001,40.01723137500001,77.0,89.0
61,40.11349571875001,40.21407040625001,77.0,92.0
62,40.285909468750006,40.44539218750001,77.0,108.0
63,40.45832321875001,40.60774846875001,77.0,94.0
64,40.63073696875001,40.79309325000001,72.0,102.0
65,40.97556446875001,41.27297818750001,77.0,104.0
66,41.32039196875001,41.52154134375001,72.0,108.0
67,41.83763321875001,41.91090906250001,77.0,100.0
68,42.01004696875001,42.08332281250001,77.0,100.0
69,42.18246071875001,42.25717334375001,77.0,98.0
70,42.35487446875001,42.47269053125001,77.0,116.0
71,42.52728821875001,42.60631118750001,77.0,100.0
72,42.69970196875001,42.76866746875001,77.0,91.0
73,42.87211571875001,42.95113868750001,77.0,93.0
74,43.044529468750014,43.15659840625001,77.0,116.0
75,43.21694321875001,43.28590871875001,77.0,88.0
76,43.38935696875001,43.45832246875001,77.0,90.0
77,43.56177071875001,43.63935690625001,77.0,88.0
78,43.73418446875001,43.80889709375001,77.0,88.0
79,43.90659821875001,43.98849475000001,77.0,88.0
80,44.07901196875001,44.21119584375001,77.0,107.0
81,44.25142571875001,44.36062109375001,79.0,108.0
82,44.42383946875001,44.53159806250001,79.0,107.0
83,44.76866696875001,44.96694278125001,77.0,107.0
84,46.83763196875001,47.03016065625001,72.0,116.0
85,47.18245946875001,47.37642493750001,72.0,110.0
86,47.52728696875001,47.59194212500001,77.0,108.0
87,47.69970071875001,47.77010300000001,77.0,98.0
88,47.87211446875001,47.94107996875001,77.0,90.0
89,48.04452821875001,48.117804062500014,77.0,90.0
90,48.216941968750014,48.28734425000001,72.0,88.0
91,48.561769468750015,48.63073496875001,77.0,113.0
92,48.73418321875001,48.813206187500015,77.0,104.0
93,48.90659696875001,48.97987281250001,72.0,104.0
94,49.07901071875001,49.18245896875001,72.0,94.0
95,49.25142446875001,49.40803362500001,77.0,117.0
96,49.59625196875001,49.75429790625001,72.0,104.0
97,49.768665718750015,49.965504750000015,72.0,107.0
98,49.94107946875001,49.965504750000015,72.0,102.0
99,50.28590696875001,50.34194143750001,77.0,107.0
100,50.45832071875001,50.522975875000014,77.0,100.0
101,50.63073446875001,50.69826318750001,77.0,96.0
102,50.80314821875001,50.91090681250001,77.0,102.0
103,50.975561968750014,51.10630906250001,72.0,113.0
104,51.320389468750015,51.423837718750015,77.0,94.0
105,51.49280321875001,51.577573312500014,72.0,94.0
106,51.66521696875001,51.732745687500014,72.0,88.0
107,51.83763071875001,51.94251575000001,72.0,88.0
108,52.01004446875001,52.19251568750001,77.0,113.0
109,52.35487196875001,52.41809034375001,77.0,104.0
110,52.527285718750015,52.59768800000001,77.0,94.0
111,52.69969946875001,52.89510171875001,77.0,113.0
112,53.04452696875001,53.11492925000001,77.0,108.0
113,53.21694071875001,53.29452690625001,77.0,100.0
114,53.389354468750014,53.524411906250016,77.0,110.0
115,53.56176821875001,53.639354406250014,77.0,91.0
116,53.734181968750015,53.81176815625001,77.0,94.0
117,53.90659571875001,53.992802593750014,77.0,98.0
118,54.079009468750016,54.20688300000001,77.0,113.0
119,54.25142321875001,54.379296750000016,77.0,113.0
120,54.42383696875001,54.495676031250014,77.0,91.0
121,54.596250718750014,54.66665300000001,77.0,90.0
122,54.76866446875001,54.840503531250015,77.0,89.0
123,54.941078218750015,55.01148050000001,77.0,87.0
124,55.11349196875001,55.281595375000016,77.0,89.0
125,55.45831946875001,55.632170000000016,72.0,94.0
126,55.80314696875001,55.87785959375001,77.0,104.0
127,55.97556071875001,56.053146906250014,77.0,100.0
128,56.147974468750014,56.22699743750001,77.0,96.0
129,56.32038821875001,56.395100843750015,77.0,90.0
130,56.492801968750015,56.57038815625001,77.0,94.0
131,56.66521571875001,56.748549031250015,77.0,93.0
132,56.837629468750016,56.90803175000001,77.0,96.0
133,57.01004321875001,57.08188228125001,77.0,90.0
134,57.18245696875001,57.252859250000014,72.0,91.0
135,57.354870718750014,57.456882187500014,72.0,89.0
136,57.52728446875001,57.599123531250015,77.0,90.0
137,57.87211196875001,58.002859062500015,77.0,110.0
138,58.21693946875001,58.347686562500016,77.0,110.0
139,58.561766968750014,58.62642212500001,80.0,103.0
140,58.73418071875001,58.811766906250014,80.0,97.0
141,58.906594468750015,58.99567490625002,77.0,91.0
142,59.07900821875001,59.17383578125001,77.0,91.0
143,59.251421968750016,59.314640343750014,77.0,109.0
144,59.42383571875001,59.515789718750014,77.0,90.0
145,59.59624946875002,59.715502312500014,77.0,108.0
146,59.94107696875001,60.12785853125001,80.0,109.0
147,60.28590446875001,60.37785846875001,77.0,98.0
148,60.458318218750016,60.53590440625001,77.0,89.0
149,60.63073196875001,60.74998481250002,77.0,90.0
150,60.80314571875002,60.99998475000002,80.0,116.0
151,61.14797321875002,61.24711112500002,77.0,108.0
152,61.320386968750014,61.408030625000016,77.0,91.0
153,61.49280071875001,61.577570812500014,77.0,91.0
154,61.665214468750015,61.79021443750001,77.0,114.0
155,61.83762821875001,61.975559218750014,77.0,96.0
156,62.010041968750016,62.13216837500001,72.0,104.0
157,62.35486946875002,62.45113381250002,77.0,92.0
158,62.44107634375001,62.564639531250016,75.0,87.0
159,62.613490093750016,62.69969696875002,77.0,74.0
160,62.69969696875002,62.830444062500014,75.0,100.0
161,62.872110718750015,62.972685406250015,77.0,78.0
162,62.95831759375002,63.06032906250002,75.0,97.0
163,63.04452446875001,63.29739796875001,77.0,113.0
164,63.38935196875001,63.627857656250015,72.0,113.0
165,63.734179468750014,63.982742625000014,75.0,116.0
166,64.07900696875002,64.14509890625001,77.0,108.0
167,64.25142071875001,64.32325978125002,77.0,91.0
168,64.42383446875002,64.49136318750001,72.0,91.0
169,64.59624821875002,64.69394934375002,72.0,88.0
170,64.76866196875001,64.87354700000002,77.0,100.0
171,65.11348946875002,65.18245496875002,77.0,113.0
172,65.28590321875002,65.35917906250002,77.0,102.0
173,65.45831696875001,65.54165028125001,77.0,104.0
174,65.63073071875002,65.72412150000001,77.0,100.0
175,65.80314446875002,65.88216743750002,72.0,102.0
176,65.97555821875001,66.07756968750002,72.0,104.0
177,66.14797196875001,66.31751215625002,77.0,119.0
178,66.49279946875002,66.56607531250002,77.0,113.0
179,66.66521321875001,66.73848906250002,77.0,113.0
180,66.83762696875002,66.90802925000001,72.0,98.0
181,67.01004071875002,67.09337403125002,72.0,98.0
182,67.18245446875001,67.31894868750001,77.0,114.0
183,67.52728196875002,67.66090262500002,77.0,119.0
184,68.90659196875002,69.12785628125002,77.0,110.0
185,69.07900571875001,69.19538500000002,79.0,108.0
186,69.25141946875002,69.45256884375002,80.0,116.0
187,69.59624696875002,69.75716646875001,80.0,116.0
188,69.76866071875001,69.93101700000001,80.0,113.0
189,70.11348821875002,70.29021231250002,80.0,119.0
190,70.63072946875002,70.80170643750002,79.0,114.0
191,70.97555696875001,71.04021212500001,84.0,108.0
192,71.14797071875002,71.26291321875001,84.0,116.0
193,72.01003946875002,72.19825781250002,89.0,116.0
194,72.35486696875002,72.43676350000001,89.0,113.0
195,72.52728071875002,72.77871743750002,89.0,114.0
196,72.87210821875001,73.07613115625001,87.0,116.0
197,73.21549893750002,73.30457937500002,85.0,109.0
198,73.38934946875001,73.55314253125002,87.0,119.0
199,73.73417696875002,73.81463671875002,80.0,116.0
200,73.90659071875002,74.06751021875002,80.0,119.0
201,74.76865946875002,74.96693528125002,85.0,116.0
202,75.11348696875002,75.17670534375002,85.0,106.0
203,75.28590071875001,75.47268228125002,85.0,109.0
204,75.63072821875002,75.87641781250002,87.0,119.0
205,76.14796946875002,76.41664756250002,82.0,119.0
206,76.49279696875001,76.58044062500002,80.0,103.0
207,76.66521071875002,76.87210721875002,84.0,108.0
208,77.01003821875001,77.29308412500002,82.0,109.0
209,77.52727946875002,77.83044031250002,82.0,119.0
210,77.87210696875002,77.96406096875002,80.0,95.0
211,78.04452071875002,78.30601490625001,79.0,102.0
212,78.38934821875002,78.71262400000002,80.0,109.0
213,78.90658946875001,79.21118709375001,80.0,114.0
214,79.59624446875002,79.82469268750002,79.0,116.0
215,80.28589946875002,80.48704884375002,80.0,116.0
216,80.63072696875003,80.79164646875002,80.0,116.0
217,80.80314071875002,80.96549700000001,80.0,113.0
218,81.14796821875002,81.32469231250002,80.0,119.0
219,81.66520946875002,81.83618643750002,79.0,114.0
220,82.01003696875001,82.07469212500001,84.0,108.0
221,82.18245071875002,82.29739321875002,84.0,116.0
222,83.04451946875002,83.23273781250002,89.0,116.0
223,83.38934696875002,83.47124350000001,89.0,113.0
224,83.56176071875002,83.81319743750002,89.0,114.0
225,83.90658821875002,84.11061115625002,87.0,116.0
226,84.25141571875002,84.34049615625003,85.0,109.0
227,84.42382946875001,84.58762253125002,87.0,119.0
228,84.76865696875002,84.84911671875003,80.0,116.0
229,84.94107071875003,85.10199021875002,80.0,119.0
230,85.80313946875002,86.00141528125002,85.0,116.0
231,86.14796696875003,86.21118534375002,85.0,106.0
232,86.32038071875002,86.50716228125002,85.0,109.0
233,86.66520821875002,86.91089781250002,85.0,119.0
234,87.18244946875002,87.45687468750002,84.0,119.0
235,87.52727696875002,87.66808153125002,82.0,97.0
236,87.69969071875002,87.87210446875002,80.0,113.0
237,87.87210446875002,88.04451821875003,79.0,97.0
238,88.04451821875003,88.30313884375002,80.0,119.0
239,88.56175946875003,88.96405821875003,77.0,116.0
240,89.94106946875002,90.16233378125003,77.0,110.0
241,90.63072446875002,90.74710375000002,79.0,108.0
242,91.32037946875002,91.59336790625002,80.0,116.0
243,91.66520696875003,91.89796553125002,80.0,116.0
244,91.83762071875002,91.89796553125002,80.0,113.0
245,92.18244821875003,92.43244815625002,80.0,119.0
246,92.69968946875002,92.94250550000002,79.0,114.0
247,93.04451696875002,93.18244796875003,84.0,108.0
248,93.21693071875002,93.40371228125002,84.0,116.0
249,94.07899946875003,94.33905687500003,89.0,116.0
250,94.42382696875002,94.57899934375003,89.0,113.0
251,94.59624071875002,94.92095328125002,89.0,114.0
252,94.94106821875002,95.21693021875002,87.0,116.0
253,95.28589571875003,95.44825200000002,85.0,109.0
254,95.45830946875002,95.69394159375003,87.0,119.0
255,95.80313696875002,95.95687256250002,80.0,116.0
256,95.97555071875003,96.20830928125002,80.0,119.0
257,96.83761946875002,97.10917112500002,85.0,116.0
258,97.18244696875003,97.31750440625002,85.0,106.0
259,97.35486071875002,97.61491812500002,85.0,109.0
260,97.69968821875003,98.01865365625002,87.0,119.0
261,98.21692946875002,98.55744662500003,82.0,119.0
262,98.56175696875002,98.72123968750002,80.0,103.0
263,98.73417071875002,99.01434306250002,84.0,108.0
264,99.07899821875003,99.43531996875002,82.0,109.0
265,99.59623946875003,99.97123937500002,82.0,119.0
266,99.94106696875002,100.10486003125003,80.0,95.0
267,100.11348071875003,100.44681396875002,79.0,102.0
268,100.45830821875002,100.85342306250003,80.0,109.0
269,100.97554946875002,101.35342293750003,80.0,114.0
270,101.66520446875002,101.96692853125002,79.0,116.0
271,102.35485946875002,102.62784790625003,80.0,116.0
272,102.69968696875003,102.93244553125002,80.0,116.0
273,102.87210071875002,102.93244553125002,80.0,113.0
274,103.21692821875003,103.46692815625002,80.0,119.0
275,103.73416946875003,103.97698550000003,79.0,114.0
276,104.07899696875002,104.21692796875003,84.0,108.0
277,104.25141071875002,104.43819228125002,84.0,116.0
278,105.11347946875003,105.37353687500003,89.0,116.0
279,105.45830696875002,105.61347934375003,89.0,113.0
280,105.63072071875003,105.95543328125002,89.0,114.0
281,105.97554821875002,106.25141021875002,87.0,116.0
282,106.32037571875003,106.48273200000003,85.0,109.0
283,106.49278946875002,106.72842159375003,87.0,119.0
284,106.83761696875003,106.99135256250003,80.0,116.0
285,107.01003071875003,107.24278928125003,80.0,119.0
286,107.87209946875002,108.14365112500002,85.0,116.0
287,108.21692696875003,108.35198440625003,85.0,106.0
288,108.38934071875002,108.64939812500002,85.0,109.0
289,108.73416821875003,109.05313365625003,85.0,119.0
290,109.25140946875003,109.59767375000003,84.0,119.0
291,109.59623696875002,109.81031737500003,82.0,97.0
292,109.76865071875002,110.02727134375003,80.0,113.0
293,109.94106446875003,110.11347821875003,79.0,97.0
294,110.11347821875003,110.54451259375003,80.0,119.0
295,110.63071946875003,111.10485728125002,77.0,116.0
296,135.11347196875002,135.28588571875002,77.0,110.0
297,135.28588571875002,135.42381671875003,75.0,97.0
298,135.45829946875003,135.67381665625004,77.0,107.0
299,135.80312696875004,135.96979359375004,77.0,113.0
300,136.14795446875004,136.22123031250004,77.0,108.0
301,136.32036821875002,136.43243715625005,77.0,102.0
302,136.49278196875002,136.64077043750004,75.0,113.0
303,136.83760946875003,136.92381634375002,75.0,107.0
304,137.01002321875004,137.16375881250002,75.0,89.0
305,137.18243696875004,137.36347140625003,77.0,84.0
306,137.35485071875004,137.50283918750003,75.0,86.0
307,137.52726446875002,137.67525293750003,77.0,94.0
308,137.87209196875003,138.03875859375003,75.0,93.0
309,138.21691946875004,138.32755162500004,77.0,108.0
310,138.56174696875004,138.63645959375003,75.0,102.0
311,138.73416071875002,138.86059746875003,77.0,93.0
312,138.90657446875002,139.07611465625004,75.0,116.0
313,139.25140196875003,139.38502262500003,77.0,110.0
314,139.59622946875004,139.66950531250004,77.0,110.0
315,139.76864321875004,139.85197653125005,75.0,90.0
316,139.94105696875005,140.07324084375003,77.0,113.0
317,140.11347071875002,140.27151665625004,75.0,87.0
318,140.28588446875003,140.51720625000004,77.0,107.0
319,140.63071196875003,140.87209121875003,75.0,116.0
320,141.32036696875002,141.39364281250005,77.0,98.0
321,141.49278071875003,141.62065425000003,77.0,90.0
322,141.66519446875003,141.82898753125002,72.0,104.0
323,142.01002196875004,142.08042425000002,77.0,102.0
324,142.18243571875004,142.25714834375003,77.0,94.0
325,142.35484946875005,142.51576896875002,77.0,110.0
326,142.69967696875003,142.90082634375003,72.0,114.0
327,143.04450446875003,143.33473428125004,77.0,113.0
328,143.38933196875004,143.58760778125003,72.0,108.0
329,143.73415946875002,143.80025140625003,77.0,110.0
330,143.90657321875003,144.01433181250005,77.0,96.0
331,144.07898696875003,144.26145818750004,72.0,108.0
332,144.42381446875004,144.49134318750004,77.0,108.0
333,144.59622821875004,144.66519371875003,77.0,94.0
334,144.76864196875005,144.84622815625002,77.0,93.0
335,144.94105571875002,145.02726259375004,77.0,108.0
336,145.11346946875003,145.19536600000004,77.0,110.0
337,145.45829696875003,145.70829690625004,72.0,104.0
338,145.80312446875004,146.06749221875003,77.0,113.0
339,146.14795196875002,146.37640018750002,72.0,104.0
340,146.66519321875003,146.74277940625004,77.0,94.0
341,146.83760696875004,146.91231959375003,77.0,94.0
342,147.01002071875004,147.09335403125004,77.0,91.0
343,147.18243446875005,147.26145743750004,77.0,98.0
344,147.35484821875002,147.43674475000003,77.0,96.0
345,147.52726196875003,147.60628493750002,77.0,90.0
346,147.69967571875003,147.77438834375005,77.0,91.0
347,147.87208946875003,147.94967565625004,77.0,94.0
348,148.21691696875004,148.28588246875003,72.0,89.0
349,148.56174446875005,148.63645709375004,77.0,110.0
350,148.73415821875003,148.80743406250002,77.0,92.0
351,148.90657196875003,148.97984781250003,77.0,93.0
352,149.07898571875003,149.15513512500004,77.0,96.0
353,149.25139946875004,149.39938793750002,77.0,116.0
354,149.59622696875005,149.81892806250005,72.0,113.0
355,149.94105446875002,150.00139928125003,77.0,107.0
356,150.11346821875003,150.17956015625003,77.0,100.0
357,150.28588196875003,150.35053712500005,77.0,94.0
358,150.45829571875004,150.52869800000005,77.0,91.0
359,150.63070946875004,150.76145656250003,77.0,113.0
360,150.80312321875004,150.88645653125005,77.0,91.0
361,150.97553696875005,151.17381278125004,72.0,110.0
362,151.32036446875003,151.63070921875004,77.0,100.0
363,151.66519196875004,151.89795053125005,72.0,113.0
364,152.18243321875005,152.25283550000003,77.0,102.0
365,152.35484696875002,152.42524925000004,77.0,93.0
366,152.52726071875003,152.61203081250002,77.0,94.0
367,152.69967446875003,152.88501925000003,77.0,116.0
368,152.87208821875004,152.88501925000003,77.0,90.0
369,153.04450196875004,153.12352493750004,77.0,92.0
370,153.21691571875004,153.30312259375003,77.0,92.0
371,153.38932946875005,153.55168575000005,77.0,116.0
372,153.56174321875002,153.63932940625003,77.0,91.0
373,153.73415696875003,153.81892706250002,77.0,93.0
374,153.90657071875003,153.99421437500004,77.0,93.0
375,154.07898446875004,154.21547868750002,77.0,110.0
376,154.25139821875004,154.33185796875003,77.0,90.0
377,154.42381196875004,154.50283493750004,77.0,96.0
378,154.59622571875005,154.65369696875004,79.0,113.0
379,154.76863946875002,154.98271987500004,79.0,108.0
380,155.11346696875003,155.33904162500005,77.0,114.0
381,157.18243196875002,157.40369628125003,77.0,110.0
382,157.35484571875003,157.47122500000003,79.0,108.0
383,157.52725946875003,157.72840884375003,80.0,116.0
384,157.87208696875004,158.03300646875005,80.0,116.0
385,158.04450071875004,158.20685700000004,80.0,113.0
386,158.38932821875005,158.56605231250003,80.0,119.0
387,158.90656946875004,159.07754643750005,79.0,114.0
388,159.25139696875004,159.31605212500003,84.0,108.0
389,159.42381071875005,159.53875321875003,84.0,116.0
390,160.28587946875004,160.47409781250005,89.0,116.0
391,160.63070696875005,160.71260350000003,89.0,113.0
392,160.80312071875005,161.05455743750005,89.0,114.0
393,161.14794821875003,161.35197115625004,87.0,116.0
394,161.49277571875004,161.58185615625004,85.0,109.0
395,161.66518946875004,161.82898253125003,87.0,119.0
396,162.01001696875005,162.09047671875004,80.0,116.0
397,162.18243071875003,162.34335021875003,80.0,119.0
398,163.04449946875005,163.24277528125003,85.0,116.0
399,163.38932696875003,163.45254534375005,85.0,106.0
400,163.56174071875003,163.74852228125005,85.0,109.0
401,163.90656821875004,164.15225781250004,87.0,119.0
402,164.42380946875005,164.69248756250005,82.0,119.0
403,164.76863696875003,164.85628062500004,80.0,103.0
404,164.94105071875003,165.14794721875003,84.0,108.0
405,165.28587821875004,165.56892412500005,82.0,109.0
406,165.80311946875003,166.10628031250005,82.0,119.0
407,166.14794696875003,166.23990096875005,80.0,95.0
408,166.32036071875004,166.58185490625004,79.0,102.0
409,166.66518821875005,167.01001571875003,80.0,109.0
410,167.18242946875003,167.48702709375004,80.0,114.0
411,167.87208446875005,168.10053268750005,79.0,116.0
412,168.56173946875003,168.76288884375003,80.0,116.0
413,168.90656696875004,169.06748646875005,80.0,116.0
414,169.07898071875005,169.24133700000004,80.0,113.0
415,169.42380821875005,169.60053231250004,80.0,119.0
416,169.94104946875004,170.11202643750005,79.0,114.0
417,170.28587696875005,170.35053212500003,84.0,108.0
418,170.45829071875005,170.57323321875003,84.0,116.0
419,171.32035946875004,171.50857781250005,89.0,116.0
420,171.66518696875005,171.74708350000003,89.0,113.0
421,171.83760071875005,172.08903743750005,89.0,114.0
422,172.18242821875003,172.38645115625005,87.0,116.0
423,172.52725571875004,172.61633615625004,85.0,109.0
424,172.69966946875005,172.86346253125004,87.0,119.0
425,173.04449696875005,173.12495671875004,80.0,116.0
426,173.21691071875003,173.37783021875003,80.0,119.0
427,174.07897946875005,174.27725528125004,85.0,116.0
428,174.42380696875003,174.48702534375005,85.0,106.0
429,174.59622071875003,174.78300228125005,85.0,109.0
430,174.94104821875004,175.18673781250004,85.0,119.0
431,175.45828946875005,175.73271468750005,82.0,119.0
432,175.80311696875003,175.94392153125006,80.0,97.0
433,175.97553071875004,176.26145018750003,79.0,113.0
434,176.32035821875004,176.67811675000004,80.0,119.0
435,176.83759946875003,177.23989821875003,77.0,116.0
436,178.21690946875003,178.43817378125004,77.0,110.0
437,178.90656446875005,179.02294375000005,79.0,108.0
438,179.59621946875004,179.86920790625004,80.0,116.0
439,179.94104696875004,180.17380553125005,80.0,116.0
440,180.11346071875005,180.17380553125005,80.0,113.0
441,180.45828821875006,180.70828815625003,80.0,119.0
442,180.97552946875004,181.21834550000005,79.0,114.0
443,181.32035696875005,181.45828796875006,84.0,108.0
444,181.49277071875005,181.67955228125004,84.0,116.0
445,182.35483946875004,182.61489687500006,89.0,116.0
446,182.69966696875005,182.85483934375003,89.0,113.0
447,182.87208071875006,183.19679328125005,89.0,114.0
448,183.21690821875004,183.49277021875005,87.0,116.0
449,183.56173571875004,183.72409200000004,85.0,109.0
450,183.73414946875005,183.96978159375004,87.0,119.0
451,184.07897696875006,184.23271256250004,80.0,116.0
452,184.25139071875003,184.48414928125004,80.0,119.0
453,185.11345946875005,185.38501112500003,85.0,116.0
454,185.45828696875003,185.59334440625005,85.0,106.0
455,185.63070071875003,185.89075812500005,85.0,109.0
456,185.97552821875004,186.29449365625004,87.0,119.0
457,186.49276946875005,186.83328662500006,82.0,119.0
458,186.83759696875003,186.99707968750005,80.0,103.0
459,187.01001071875004,187.29018306250003,84.0,108.0
460,187.35483821875005,187.71115996875005,82.0,109.0
461,187.87207946875006,188.24707937500006,82.0,119.0
462,188.21690696875004,188.38070003125006,80.0,95.0
463,188.38932071875004,188.72265396875005,79.0,102.0
464,188.73414821875005,189.12926306250006,80.0,109.0
465,189.25138946875003,189.62926293750004,80.0,114.0
466,189.94104446875005,190.24276853125005,79.0,116.0
467,190.63069946875004,190.90368790625004,80.0,116.0
468,190.97552696875005,191.20828553125006,80.0,116.0
469,191.14794071875005,191.20828553125006,80.0,113.0
470,191.49276821875006,191.74276815625004,80.0,119.0
471,192.01000946875004,192.25282550000006,79.0,114.0
472,192.35483696875005,192.49276796875006,84.0,108.0
473,192.52725071875005,192.71403228125004,84.0,116.0
474,193.38931946875005,193.64937687500006,89.0,116.0
475,193.73414696875005,193.88931934375006,89.0,113.0
476,193.90656071875006,194.23127328125005,89.0,114.0
477,194.25138821875004,194.52725021875005,87.0,116.0
478,194.59621571875005,194.75857200000004,85.0,109.0
479,194.76862946875005,195.00426159375004,87.0,119.0
480,195.11345696875006,195.26719256250004,80.0,116.0
481,195.28587071875003,195.51862928125004,80.0,119.0
482,196.14793946875005,196.41949112500004,85.0,116.0
483,196.49276696875003,196.62782440625006,85.0,106.0
484,196.66518071875004,196.92523812500005,85.0,109.0
485,197.01000821875004,197.32897365625004,85.0,119.0
486,197.52724946875006,197.87351375000006,82.0,119.0
487,197.87207696875004,198.08615737500006,80.0,97.0
488,198.04449071875004,198.40368603125006,79.0,113.0
489,198.38931821875005,198.82035259375004,80.0,119.0
490,198.90655946875006,199.38069728125004,77.0,116.0
491,201.32035196875006,201.39075425000004,77.0,100.0
492,201.49276571875004,201.57897259375005,77.0,96.0
493,201.66517946875004,201.90799550000006,77.0,110.0
494,202.01000696875005,202.16661612500005,72.0,107.0
495,202.35483446875006,202.42523675000004,77.0,110.0
496,202.52724821875006,202.59765050000004,77.0,96.0
497,202.69966196875004,202.76288034375006,72.0,100.0
498,203.04448946875004,203.11058140625005,77.0,108.0
499,203.21690321875005,203.28730550000006,77.0,102.0
500,203.38931696875005,203.46115603125006,77.0,100.0
501,203.56173071875006,203.63644334375005,77.0,102.0
502,203.73414446875006,203.89219040625005,77.0,114.0
503,204.07897196875004,204.29592593750004,72.0,96.0
504,204.42379946875005,204.60914425000004,77.0,108.0
505,204.76862696875006,204.94535106250004,77.0,108.0
506,205.11345446875004,205.39506359375005,77.0,110.0
507,205.45828196875004,205.66230490625006,72.0,108.0
508,205.80310946875005,205.87063818750005,77.0,108.0
509,205.97552321875006,206.04448871875005,77.0,98.0
510,206.14793696875006,206.21546568750006,77.0,98.0
511,206.32035071875003,206.40655759375005,76.0,107.0
512,206.49276446875004,206.67523568750005,77.0,108.0
513,206.83759196875005,207.01287928125004,72.0,110.0
514,207.52724696875006,207.59764925000005,77.0,110.0
515,207.69966071875004,207.80310896875005,77.0,98.0
516,207.87207446875004,208.04736178125006,72.0,108.0
517,208.21690196875005,208.28874103125005,77.0,100.0
518,208.38931571875005,208.48558006250005,77.0,94.0
519,208.56172946875006,208.81172940625004,76.0,114.0
520,208.90655696875004,209.15655690625005,76.0,114.0
521,209.25138446875005,209.44822350000004,77.0,113.0
522,209.59621196875005,209.81603950000004,76.0,116.0
523,209.94103946875006,210.00713140625004,77.0,108.0
524,210.11345321875004,210.21833825000004,77.0,100.0
525,210.28586696875004,210.43672900000004,72.0,108.0
526,210.63069446875005,210.69822318750005,77.0,108.0
527,210.80310821875005,210.87207371875004,77.0,100.0
528,210.97552196875006,211.04305068750006,77.0,98.0
529,211.14793571875006,211.21259087500005,77.0,98.0
530,211.32034946875004,211.52437240625005,77.0,110.0
531,211.66517696875005,211.78730337500005,72.0,113.0
532,212.01000446875005,212.28730325000004,77.0,108.0
533,212.35483196875006,212.50282043750005,72.0,107.0
534,212.87207321875005,212.94965940625005,77.0,91.0
535,213.04448696875005,213.12350993750005,77.0,94.0
536,213.21690071875005,213.29448690625006,77.0,90.0
537,213.38931446875006,213.46690065625006,77.0,96.0
538,213.56172821875006,213.63213050000005,77.0,91.0
539,213.73414196875004,213.80454425000005,77.0,91.0
540,213.90655571875004,213.98126834375006,77.0,96.0
541,214.07896946875005,214.20971656250006,77.0,116.0
542,214.42379696875005,214.64649806250006,72.0,104.0
543,214.76862446875006,214.84477387500004,77.0,93.0
544,214.94103821875004,215.01575084375006,77.0,93.0
545,215.11345196875004,215.18529103125005,77.0,91.0
546,215.28586571875005,215.44534843750006,77.0,91.0
547,215.45827946875005,215.59908403125004,77.0,110.0
548,215.80310696875006,216.03155518750006,72.0,107.0
549,216.14793446875004,216.21689996875006,77.0,102.0
550,216.32034821875004,216.39218728125005,77.0,93.0
551,216.49276196875005,216.56891137500006,77.0,89.0
552,216.66517571875005,216.76575040625005,77.0,92.0
553,216.83758946875005,216.99707218750004,77.0,108.0
554,217.01000321875006,217.15942846875006,77.0,94.0
555,217.18241696875006,217.34477325000006,72.0,102.0
556,217.52724446875004,217.82465818750006,77.0,104.0
557,217.87207196875005,218.07322134375005,72.0,108.0
558,218.38931321875006,218.46258906250006,77.0,100.0
559,218.56172696875007,218.63500281250006,77.0,100.0
560,218.73414071875004,218.80885334375006,77.0,98.0
561,218.90655446875004,219.02437053125004,77.0,116.0
562,219.07896821875005,219.15799118750004,77.0,100.0
563,219.25138196875005,219.32034746875004,77.0,91.0
564,219.42379571875006,219.50281868750005,77.0,93.0
565,219.59620946875006,219.70827840625006,77.0,116.0
566,219.76862321875007,219.83758871875006,77.0,88.0
567,219.94103696875004,220.01000246875006,77.0,90.0
568,220.11345071875004,220.19103690625005,77.0,88.0
569,220.28586446875005,220.36057709375007,77.0,88.0
570,220.45827821875005,220.54017475000006,77.0,88.0
571,220.63069196875006,220.76287584375007,77.0,107.0
572,220.80310571875006,220.91230109375005,79.0,108.0
573,220.97551946875006,221.08327806250006,79.0,107.0
574,221.32034696875004,221.51862278125006,77.0,107.0
