,start,end,pitch,velocity
0,3.561780718750001,3.938217406250001,56.0,80.0
1,3.389366968750001,4.053159906250001,53.0,84.0
2,3.044539468750001,4.140803562500001,41.0,89.0
3,3.906608218750001,4.283044906250001,60.0,88.0
4,3.216953218750001,4.369251781250001,48.0,83.0
5,4.251435718750001,4.507182781250001,63.0,86.0
6,4.423849468750001,5.403734281250001,39.0,88.0
7,4.596263218750001,5.445400937500001,48.0,77.0
8,4.768676968750001,5.599136531250001,51.0,86.0
9,4.941090718750001,5.7715502812500015,55.0,87.0
10,5.285918218750001,5.803159468750001,63.0,91.0
11,6.320400718750001,6.777297156250001,53.0,85.0
12,5.803159468750001,6.787354625000002,37.0,89.0
13,5.975573218750001,6.846262656250001,44.0,81.0
14,6.1479869687500015,6.952584468750001,49.0,83.0
15,6.665228218750001,7.048848812500002,56.0,87.0
16,7.010055718750002,7.166664875000001,61.0,90.0
17,7.699710718750002,8.086204875000002,63.0,88.0
18,7.527296968750002,8.106319812500002,60.0,90.0
19,7.354883218750002,8.218388750000003,55.0,87.0
20,7.182469468750002,8.229883000000003,48.0,83.0
21,8.044538218750002,8.484193281250002,67.0,90.0
22,8.389365718750001,8.586204750000002,72.0,88.0
23,8.561779468750002,9.693963093750002,46.0,87.0
24,8.906606968750003,9.698273437500003,58.0,89.0
25,9.079020718750002,9.762928593750003,61.0,85.0
26,8.734193218750002,9.872123968750003,53.0,82.0
27,9.423848218750003,9.931032000000002,65.0,86.0
28,9.768675718750002,9.989940031250002,70.0,89.0
29,10.285916968750003,10.885054750000002,60.0,77.0
30,10.113503218750003,11.001434031250003,55.0,83.0
31,9.941089468750002,11.057468500000002,48.0,88.0
32,10.803158218750003,11.137928250000003,67.0,93.0
33,10.458330718750002,11.262928218750003,64.0,86.0
34,11.147985718750002,11.357755781250003,68.0,88.0
35,12.010054468750003,12.165226843750004,55.0,83.0
36,12.182468218750003,12.238502687500002,56.0,88.0
37,12.354881968750004,12.528732500000004,60.0,75.0
38,12.527295718750002,12.668100281250004,65.0,89.0
39,11.837640718750002,12.856318625000004,53.0,84.0
40,12.699709468750003,13.137927750000003,67.0,110.0
41,11.320399468750002,13.936778125000004,41.0,91.0
42,13.044536968750004,13.968387312500003,53.0,84.0
43,11.665226968750003,14.038789593750003,48.0,82.0
44,13.561778218750003,14.126433250000003,68.0,102.0
45,13.216950718750002,14.149421750000004,60.0,100.0
46,14.596260718750003,15.094823812500003,53.0,92.0
47,14.941088218750004,15.147984718750003,56.0,87.0
48,14.079019468750003,15.196835281250003,41.0,98.0
49,15.113501968750004,15.252869750000004,60.0,88.0
50,14.423846968750004,15.472697281250003,48.0,86.0
51,15.285915718750003,15.624996093750005,63.0,89.0
52,15.975570718750005,16.468386687500004,51.0,87.0
53,15.803156968750004,16.521547593750004,48.0,83.0
54,15.458329468750003,16.556030343750002,39.0,100.0
55,16.320398218750004,16.566087812500005,55.0,87.0
56,16.492811968750004,16.711202718750005,58.0,85.0
57,16.665225718750005,17.041662406250005,63.0,93.0
58,17.354880718750003,17.794535781250005,53.0,86.0
59,16.837639468750005,17.866374843750005,37.0,87.0
60,17.010053218750006,17.900857593750004,44.0,84.0
61,17.182466968750003,18.020110437500005,49.0,88.0
62,17.699708218750004,18.089075937500006,56.0,87.0
63,18.044535718750005,18.265800031250006,63.0,90.0
64,18.734190718750003,18.987064218750003,63.0,91.0
65,18.561776968750003,19.093386031250006,60.0,93.0
66,18.906604468750004,19.130742343750004,67.0,87.0
67,18.389363218750006,19.238500937500003,55.0,87.0
68,18.216949468750006,19.294535406250006,48.0,89.0
69,19.079018218750004,19.441087093750003,72.0,92.0
70,19.423845718750005,19.580454875000004,67.0,87.0
71,19.251431968750005,19.583328437500004,63.0,88.0
72,19.596259468750006,20.124994968750006,70.0,98.0
73,20.113500718750004,20.583328187500005,61.0,88.0
74,19.941086968750003,20.662351156250004,58.0,88.0
75,19.596259468750006,20.711201718750004,46.0,88.0
76,19.768673218750006,20.823270656250006,53.0,82.0
77,20.458328218750005,20.961201656250005,65.0,87.0
78,20.803155718750006,21.182465968750005,70.0,89.0
79,21.320396968750003,21.975569218750007,60.0,88.0
80,21.492810718750004,22.018672656250004,64.0,100.0
81,21.147983218750007,22.047408281250004,55.0,81.0
82,20.975569468750006,22.110626656250005,48.0,91.0
83,21.837638218750005,22.354879468750006,67.0,87.0
84,22.010051968750005,22.390799000000005,72.0,89.0
85,23.216948218750005,23.761488312500006,55.0,80.0
86,22.872120718750004,24.262924968750006,53.0,81.0
87,22.354879468750006,24.293097375000006,41.0,89.0
88,23.734189468750007,24.293097375000006,56.0,82.0
89,22.699706968750004,24.316085875000006,48.0,80.0
90,23.561775718750006,24.316085875000006,60.0,69.0
91,25.113499468750007,25.568959125000006,60.0,91.0
92,25.113499468750007,25.579016593750005,65.0,104.0
93,25.630740718750005,25.660913125000008,60.0,85.0
94,25.630740718750005,26.043096937500007,65.0,110.0
95,25.975568218750006,26.238499187500008,53.0,86.0
96,25.113499468750007,26.270108375000007,41.0,88.0
97,26.147981968750006,26.359188812500005,60.0,86.0
98,26.320395718750007,26.452579593750006,65.0,89.0
99,25.458326968750008,26.464073843750008,48.0,80.0
100,26.492809468750007,26.923843843750006,60.0,94.0
101,26.492809468750007,26.933901312500005,67.0,104.0
102,27.010050718750005,27.341947187500008,60.0,89.0
103,27.010050718750005,27.357751781250006,67.0,108.0
104,27.354878218750006,27.518671281250008,51.0,84.0
105,26.837636968750008,27.530165531250006,48.0,77.0
106,26.492809468750007,27.614935625000008,39.0,87.0
107,27.527291968750006,27.735625250000005,60.0,91.0
108,27.527291968750006,27.807464312500006,67.0,108.0
109,27.872119468750007,27.922406812500007,60.0,98.0
110,27.872119468750007,27.964073468750005,37.0,92.0
111,27.872119468750007,28.679590531250007,68.0,102.0
112,28.21694696875001,28.866372093750005,49.0,88.0
113,28.389360718750005,28.870682437500008,56.0,86.0
114,28.734188218750006,28.91953300000001,65.0,102.0
115,28.906601968750007,29.198268562500008,68.0,94.0
116,29.251429468750008,30.020107437500005,58.0,87.0
117,29.251429468750008,30.027291343750008,67.0,92.0
118,29.768670718750005,30.208325781250007,55.0,89.0
119,29.251429468750008,30.27585450000001,48.0,88.0
120,30.113498218750006,30.304590125000008,58.0,92.0
121,30.285911968750007,30.560337187500007,67.0,96.0
122,30.630739468750008,31.22700368750001,65.0,96.0
123,31.147980718750006,31.25286575000001,58.0,88.0
124,31.320394468750006,31.540222000000007,61.0,84.0
125,31.492808218750007,31.599130031250006,65.0,88.0
126,30.630739468750008,31.724130000000006,46.0,89.0
127,30.97556696875001,31.92815293750001,53.0,84.0
128,31.665221968750007,31.998555218750006,68.0,104.0
129,32.010049468750005,32.49424475000001,67.0,91.0
130,32.354876968750006,32.59481943750001,55.0,78.0
131,32.52729071875001,32.89510671875001,67.0,88.0
132,32.52729071875001,32.98418715625001,64.0,91.0
133,32.87211821875001,33.03878484375001,55.0,81.0
134,32.010049468750005,33.054589437500006,48.0,87.0
135,33.04453196875001,33.33188821875001,67.0,107.0
136,33.38935946875001,33.81895706250001,60.0,88.0
137,33.38935946875001,33.864934062500005,67.0,104.0
138,33.906600718750006,34.22987650000001,68.0,100.0
139,33.906600718750006,34.23562362500001,60.0,100.0
140,34.07901446875001,34.38073853125001,53.0,76.0
141,34.25142821875001,34.65516375000001,60.0,86.0
142,34.25142821875001,34.69539362500001,67.0,98.0
143,34.59625571875001,35.17815212500001,53.0,83.0
144,34.768669468750005,35.50286468750001,60.0,92.0
145,34.768669468750005,35.522979625000005,65.0,102.0
146,35.63073821875001,35.76148531250001,60.0,88.0
147,35.45832446875001,35.90947378125001,53.0,87.0
148,33.73418696875001,35.95114043750001,48.0,78.0
149,33.38935946875001,35.968381812500006,41.0,88.0
150,35.80315196875001,36.04022087500001,67.0,104.0
151,36.14797946875001,36.60343912500001,60.0,91.0
152,36.14797946875001,36.61349659375001,65.0,104.0
153,36.66522071875001,36.69539312500001,60.0,85.0
154,36.66522071875001,37.077576937500005,65.0,110.0
155,37.01004821875001,37.272979187500006,53.0,86.0
156,36.14797946875001,37.30458837500001,41.0,88.0
157,37.18246196875001,37.39366881250001,60.0,86.0
158,37.35487571875001,37.48705959375001,65.0,89.0
159,36.49280696875001,37.49855384375001,48.0,80.0
160,37.527289468750006,37.95832384375001,60.0,94.0
161,37.527289468750006,37.96838131250001,67.0,104.0
162,38.04453071875001,38.376427187500006,60.0,89.0
163,38.04453071875001,38.39223178125001,67.0,108.0
164,38.38935821875001,38.55315128125001,51.0,84.0
165,37.87211696875001,38.56464553125001,48.0,77.0
166,37.527289468750006,38.64941562500001,39.0,87.0
167,38.56177196875001,38.77010525000001,60.0,91.0
168,38.56177196875001,38.84194431250001,67.0,108.0
169,38.90659946875001,38.95688681250001,60.0,98.0
170,38.90659946875001,38.99855346875001,37.0,92.0
171,38.90659946875001,39.71407053125001,68.0,102.0
172,39.25142696875001,39.90085209375001,49.0,88.0
173,39.42384071875001,39.90516243750001,56.0,86.0
174,39.76866821875001,39.95401300000001,65.0,102.0
175,39.94108196875001,40.23274856250001,68.0,94.0
176,40.285909468750006,41.05458743750001,58.0,87.0
177,40.285909468750006,41.06177134375001,67.0,92.0
178,40.80315071875001,41.24280578125001,55.0,89.0
179,40.285909468750006,41.31033450000001,48.0,88.0
180,41.14797821875001,41.339070125000006,58.0,92.0
181,41.32039196875001,41.59481718750001,67.0,96.0
182,41.66521946875001,42.26148368750001,65.0,96.0
183,42.18246071875001,42.28734575000001,58.0,88.0
184,42.35487446875001,42.57470200000001,61.0,84.0
185,42.52728821875001,42.63361003125001,65.0,88.0
186,41.66521946875001,42.75861000000001,46.0,89.0
187,42.01004696875001,42.96263293750001,53.0,84.0
188,42.69970196875001,43.03303521875001,68.0,104.0
189,43.044529468750014,43.52872475000001,67.0,91.0
190,43.38935696875001,43.62929943750001,55.0,78.0
191,43.56177071875001,43.92958671875001,67.0,88.0
192,43.56177071875001,44.01866715625001,64.0,91.0
193,43.90659821875001,44.07326484375001,55.0,81.0
194,43.044529468750014,44.08906943750001,48.0,87.0
195,44.07901196875001,44.36636821875001,67.0,107.0
196,44.42383946875001,44.853437062500014,60.0,88.0
197,44.42383946875001,44.899414062500014,67.0,104.0
198,44.94108071875001,45.26435650000001,68.0,100.0
199,44.94108071875001,45.27010362500001,60.0,100.0
200,45.11349446875001,45.41521853125001,53.0,76.0
201,45.28590821875001,45.68964375000001,60.0,86.0
202,45.28590821875001,45.72987362500001,67.0,98.0
203,45.63073571875001,46.21263212500001,53.0,83.0
204,45.803149468750014,46.53734468750001,60.0,92.0
205,45.803149468750014,46.557459625000014,65.0,102.0
206,46.66521821875001,46.79596531250001,60.0,88.0
207,46.49280446875001,46.94395378125001,53.0,87.0
208,44.76866696875001,46.98562043750001,48.0,78.0
209,44.42383946875001,47.00286181250001,41.0,88.0
210,46.83763196875001,47.07470087500001,67.0,104.0
211,47.18245946875001,47.63791912500001,60.0,91.0
212,47.18245946875001,47.64797659375001,65.0,104.0
213,47.69970071875001,47.72987312500001,60.0,85.0
214,47.69970071875001,48.112056937500014,65.0,110.0
215,48.04452821875001,48.30745918750001,53.0,86.0
216,47.18245946875001,48.33906837500001,41.0,88.0
217,48.216941968750014,48.42814881250001,60.0,86.0
218,48.38935571875001,48.52153959375001,65.0,89.0
219,47.52728696875001,48.53303384375001,48.0,80.0
220,48.561769468750015,48.99280384375001,60.0,94.0
221,48.561769468750015,49.00286131250001,67.0,104.0
222,49.07901071875001,49.41090718750001,60.0,89.0
223,49.07901071875001,49.42671178125001,67.0,108.0
224,49.423838218750014,49.58763128125001,51.0,84.0
225,48.90659696875001,49.59912553125001,48.0,77.0
226,48.561769468750015,49.68389562500001,39.0,87.0
227,49.59625196875001,49.80458525000001,60.0,91.0
228,49.59625196875001,49.87642431250001,67.0,108.0
229,49.94107946875001,49.99136681250001,60.0,98.0
230,49.94107946875001,50.03303346875001,37.0,92.0
231,49.94107946875001,50.74855053125001,68.0,102.0
232,50.28590696875001,50.93533209375001,49.0,88.0
233,50.45832071875001,50.93964243750001,56.0,86.0
234,50.80314821875001,50.98849300000001,65.0,102.0
235,50.975561968750014,51.267228562500016,68.0,94.0
236,51.320389468750015,52.08906743750001,58.0,87.0
237,51.320389468750015,52.09625134375001,67.0,92.0
238,51.83763071875001,52.277285781250015,55.0,89.0
239,51.320389468750015,52.34481450000001,48.0,88.0
240,52.182458218750014,52.373550125000015,58.0,92.0
241,52.35487196875001,52.629297187500015,67.0,96.0
242,52.69969946875001,53.29596368750001,65.0,96.0
243,53.21694071875001,53.32182575000001,58.0,88.0
244,53.389354468750014,53.60918200000001,61.0,84.0
245,53.56176821875001,53.66809003125001,65.0,88.0
246,52.69969946875001,53.793090000000014,46.0,89.0
247,53.04452696875001,53.99711293750001,53.0,84.0
248,53.734181968750015,54.06751521875001,68.0,104.0
249,54.079009468750016,54.56320475000001,67.0,91.0
250,54.42383696875001,54.66377943750001,55.0,78.0
251,54.596250718750014,54.96406671875001,67.0,88.0
252,54.596250718750014,55.05314715625001,64.0,91.0
253,54.941078218750015,55.10774484375001,55.0,81.0
254,54.079009468750016,55.12354943750001,48.0,87.0
255,55.11349196875001,55.40084821875001,67.0,107.0
256,55.45831946875001,55.887917062500016,60.0,88.0
257,55.45831946875001,55.933894062500016,67.0,104.0
258,55.97556071875001,56.298836500000014,68.0,100.0
259,55.97556071875001,56.304583625000014,60.0,100.0
260,56.147974468750014,56.449698531250014,53.0,76.0
261,56.32038821875001,56.72412375000001,60.0,86.0
262,56.32038821875001,56.76435362500001,67.0,98.0
263,56.66521571875001,57.247112125000015,53.0,83.0
264,56.837629468750016,57.57182468750001,60.0,92.0
265,56.837629468750016,57.591939625000016,65.0,102.0
266,57.699698218750015,57.83044531250001,60.0,88.0
267,57.52728446875001,57.97843378125001,53.0,87.0
268,55.80314696875001,58.02010043750001,48.0,78.0
269,55.45831946875001,58.03734181250002,41.0,88.0
270,57.87211196875001,58.109180875000014,67.0,104.0
271,58.21693946875001,58.67239912500001,60.0,91.0
272,58.21693946875001,58.68245659375001,65.0,104.0
273,58.73418071875001,58.764353125000014,60.0,85.0
274,58.73418071875001,59.14653693750002,65.0,110.0
275,59.07900821875001,59.34193918750002,53.0,86.0
276,58.21693946875001,59.37354837500001,41.0,88.0
277,59.251421968750016,59.462628812500014,60.0,86.0
278,59.42383571875001,59.556019593750015,65.0,89.0
279,58.561766968750014,59.567513843750014,48.0,80.0
280,59.59624946875002,60.02728384375001,60.0,94.0
281,59.59624946875002,60.03734131250001,67.0,104.0
282,60.113490718750015,60.44538718750002,60.0,89.0
283,60.113490718750015,60.461191781250015,67.0,108.0
284,60.458318218750016,60.622111281250014,51.0,84.0
285,59.94107696875001,60.63360553125001,48.0,77.0
286,59.59624946875002,60.718375625000014,39.0,87.0
287,60.63073196875001,60.83906525000001,60.0,91.0
288,60.63073196875001,60.910904312500016,67.0,108.0
289,60.97555946875001,61.02584681250001,60.0,98.0
290,60.97555946875001,61.067513468750015,37.0,92.0
291,60.97555946875001,61.78303053125001,68.0,102.0
292,61.320386968750014,61.969812093750015,49.0,88.0
293,61.49280071875001,61.974122437500014,56.0,86.0
294,61.83762821875001,62.022973000000015,65.0,102.0
295,62.010041968750016,62.30170856250002,68.0,94.0
296,62.35486946875002,63.123547437500015,58.0,87.0
297,62.35486946875002,63.130731343750014,67.0,92.0
298,62.872110718750015,63.31176578125002,55.0,89.0
299,62.35486946875002,63.379294500000015,48.0,88.0
300,63.216938218750016,63.40803012500002,58.0,92.0
301,63.38935196875001,63.66377718750002,67.0,96.0
302,63.734179468750014,64.33044368750002,65.0,96.0
303,64.25142071875001,64.35630575000002,58.0,88.0
304,64.42383446875002,64.64366200000002,61.0,84.0
305,64.59624821875002,64.70257003125002,65.0,88.0
306,63.734179468750014,64.82757000000001,46.0,89.0
307,64.07900696875002,65.03159293750002,53.0,84.0
308,64.76866196875001,65.10199521875002,68.0,104.0
309,65.11348946875002,65.59768475000001,67.0,91.0
310,65.45831696875001,65.69825943750001,55.0,78.0
311,65.63073071875002,65.99854671875002,67.0,88.0
312,65.63073071875002,66.08762715625002,64.0,91.0
313,65.97555821875001,66.14222484375001,55.0,81.0
314,65.11348946875002,66.15802943750002,48.0,87.0
315,66.14797196875001,66.43532821875002,67.0,107.0
316,66.49279946875002,66.92239706250001,60.0,88.0
317,66.49279946875002,66.96837406250002,67.0,104.0
318,67.01004071875002,67.33331650000001,68.0,100.0
319,67.01004071875002,67.33906362500002,60.0,100.0
320,67.18245446875001,67.48417853125001,53.0,76.0
321,67.35486821875001,67.75860375000002,60.0,86.0
322,67.35486821875001,67.79883362500001,67.0,98.0
323,67.69969571875002,68.28159212500002,53.0,83.0
324,67.87210946875001,68.60630468750001,60.0,92.0
325,67.87210946875001,68.62641962500001,65.0,102.0
326,68.73417821875002,68.86492531250002,60.0,88.0
327,68.56176446875001,69.01291378125002,53.0,87.0
328,66.83762696875002,69.05458043750002,48.0,78.0
329,66.49279946875002,69.07182181250002,41.0,88.0
330,68.90659196875002,69.14366087500002,67.0,104.0
331,69.25141946875002,69.70687912500001,60.0,91.0
332,69.25141946875002,69.71693659375002,65.0,104.0
333,69.76866071875001,69.79883312500002,60.0,85.0
334,69.76866071875001,70.18101693750002,65.0,110.0
335,70.11348821875002,70.37641918750002,53.0,86.0
336,69.25141946875002,70.40802837500001,41.0,88.0
337,70.28590196875001,70.49710881250002,60.0,86.0
338,70.45831571875001,70.59049959375001,65.0,89.0
339,69.59624696875002,70.60199384375002,48.0,80.0
340,70.63072946875002,71.06176384375001,60.0,94.0
341,70.63072946875002,71.07182131250002,67.0,104.0
342,71.14797071875002,71.47986718750002,60.0,89.0
343,71.14797071875002,71.49567178125001,67.0,108.0
344,71.49279821875001,71.65659128125002,51.0,84.0
345,70.97555696875001,71.66808553125001,48.0,77.0
346,70.63072946875002,71.75285562500002,39.0,87.0
347,71.66521196875001,71.87354525000002,60.0,91.0
348,71.66521196875001,71.94538431250001,67.0,108.0
349,72.01003946875002,72.06032681250002,60.0,98.0
350,72.01003946875002,72.10199346875002,37.0,92.0
351,72.01003946875002,72.81751053125002,68.0,102.0
352,72.35486696875002,73.00429209375002,49.0,88.0
353,72.52728071875002,73.00860243750002,56.0,86.0
354,72.87210821875001,73.05745300000002,65.0,102.0
355,73.04452196875002,73.33618856250001,68.0,94.0
356,73.38934946875001,74.15802743750002,58.0,87.0
357,73.38934946875001,74.16521134375002,67.0,92.0
358,73.90659071875002,74.34624578125002,55.0,89.0
359,73.38934946875001,74.41377450000002,48.0,88.0
360,74.25141821875002,74.44251012500001,58.0,92.0
361,74.42383196875002,74.69825718750002,67.0,96.0
362,74.76865946875002,75.36492368750002,65.0,96.0
363,75.28590071875001,75.39078575000002,58.0,88.0
364,75.45831446875002,75.67814200000002,61.0,84.0
365,75.63072821875002,75.73705003125002,65.0,88.0
366,74.76865946875002,75.86205000000002,46.0,89.0
367,75.11348696875002,76.06607293750002,53.0,84.0
368,75.80314196875001,76.13647521875002,68.0,104.0
369,76.14796946875002,76.63216475000002,67.0,91.0
370,76.49279696875001,76.73273943750002,55.0,78.0
371,76.66521071875002,77.03302671875002,67.0,88.0
372,76.66521071875002,77.12210715625002,64.0,91.0
373,77.01003821875001,77.17670484375002,55.0,81.0
374,76.14796946875002,77.19250943750002,48.0,87.0
375,77.18245196875002,77.46980821875002,67.0,107.0
376,77.52727946875002,77.95687706250001,60.0,88.0
377,77.52727946875002,78.00285406250002,67.0,104.0
378,78.04452071875002,78.36779650000003,68.0,100.0
379,78.04452071875002,78.37354362500002,60.0,100.0
380,78.21693446875003,78.51865853125003,53.0,76.0
381,78.38934821875002,78.79308375000002,60.0,86.0
382,78.38934821875002,78.83331362500002,67.0,98.0
383,78.73417571875002,79.31607212500002,53.0,83.0
384,78.90658946875001,79.64078468750002,60.0,92.0
385,78.90658946875001,79.66089962500001,65.0,102.0
386,79.76865821875002,79.89940531250002,60.0,88.0
387,79.59624446875002,80.04739378125002,53.0,87.0
388,77.87210696875002,80.08906043750002,48.0,78.0
389,77.52727946875002,80.10630181250002,41.0,88.0
390,79.94107196875002,80.17814087500003,67.0,104.0
391,80.28589946875002,80.74135912500002,60.0,91.0
392,80.28589946875002,80.75141659375002,65.0,104.0
393,80.80314071875002,80.83331312500002,60.0,85.0
394,80.80314071875002,81.21549693750002,65.0,110.0
395,81.14796821875002,81.41089918750002,53.0,86.0
396,80.28589946875002,81.44250837500002,41.0,88.0
397,81.32038196875001,81.53158881250002,60.0,86.0
398,81.49279571875002,81.62497959375001,65.0,89.0
399,80.63072696875003,81.63647384375003,48.0,80.0
400,81.66520946875002,82.09624384375002,60.0,94.0
401,81.66520946875002,82.10630131250002,67.0,104.0
402,82.18245071875002,82.51434718750002,60.0,89.0
403,82.18245071875002,82.53015178125003,67.0,108.0
404,82.52727821875001,82.69107128125002,51.0,84.0
405,82.01003696875001,82.70256553125002,48.0,77.0
406,81.66520946875002,82.78733562500003,39.0,87.0
407,82.69969196875002,82.90802525000002,60.0,91.0
408,82.69969196875002,82.97986431250001,67.0,108.0
409,83.04451946875002,83.09480681250002,60.0,98.0
410,83.04451946875002,83.13647346875003,37.0,92.0
411,83.04451946875002,83.85199053125002,68.0,102.0
412,83.38934696875002,84.03877209375003,49.0,88.0
413,83.56176071875002,84.04308243750002,56.0,86.0
414,83.90658821875002,84.09193300000003,65.0,102.0
415,84.07900196875002,84.37066856250001,68.0,94.0
416,84.42382946875001,85.19250743750003,58.0,87.0
417,84.42382946875001,85.19969134375002,67.0,92.0
418,84.94107071875003,85.38072578125002,55.0,89.0
419,84.42382946875001,85.44825450000002,48.0,88.0
420,85.28589821875002,85.47699012500001,58.0,92.0
421,85.45831196875002,85.73273718750002,67.0,96.0
422,85.80313946875002,86.39940368750003,65.0,96.0
423,86.32038071875002,86.42526575000002,58.0,88.0
424,86.49279446875002,86.71262200000002,61.0,84.0
425,86.66520821875002,86.77153003125002,65.0,88.0
426,85.80313946875002,86.89653000000003,46.0,89.0
427,86.14796696875003,87.10055293750003,53.0,84.0
428,86.83762196875001,87.17095521875002,68.0,104.0
429,87.18244946875002,87.66664475000002,67.0,91.0
430,87.52727696875002,87.76721943750002,55.0,78.0
431,87.69969071875002,88.06750671875002,67.0,88.0
432,87.69969071875002,88.15658715625003,64.0,91.0
433,88.04451821875003,88.21118484375002,55.0,81.0
434,87.18244946875002,88.22698943750002,48.0,87.0
435,88.21693196875002,88.50428821875002,67.0,107.0
436,88.56175946875003,88.99135706250001,60.0,88.0
437,88.56175946875003,89.03733406250002,67.0,104.0
438,89.07900071875002,89.40227650000003,68.0,100.0
439,89.07900071875002,89.40802362500003,60.0,100.0
440,89.25141446875003,89.55313853125003,53.0,76.0
441,89.42382821875002,89.82756375000002,60.0,86.0
442,89.42382821875002,89.86779362500002,67.0,98.0
443,89.76865571875003,90.35055212500002,53.0,83.0
444,89.94106946875002,90.67526468750002,60.0,92.0
445,89.94106946875002,90.69537962500002,65.0,102.0
446,90.80313821875002,90.93388531250002,60.0,88.0
447,90.63072446875002,91.08187378125002,53.0,87.0
448,88.90658696875002,91.12354043750003,48.0,78.0
449,88.56175946875003,91.14078181250002,41.0,88.0
450,90.97555196875003,91.21262087500003,67.0,104.0
451,91.32037946875002,91.77583912500002,60.0,91.0
452,91.32037946875002,91.78589659375002,65.0,104.0
453,91.83762071875002,91.86779312500002,60.0,85.0
454,91.83762071875002,92.24997693750002,65.0,110.0
455,92.18244821875003,92.44537918750002,53.0,86.0
456,91.32037946875002,92.47698837500002,41.0,88.0
457,92.35486196875001,92.56606881250002,60.0,86.0
458,92.52727571875002,92.65945959375003,65.0,89.0
459,91.66520696875003,92.67095384375003,48.0,80.0
460,92.69968946875002,93.13072384375002,60.0,94.0
461,92.69968946875002,93.14078131250002,67.0,104.0
462,93.21693071875002,93.54882718750002,60.0,89.0
463,93.21693071875002,93.56463178125003,67.0,108.0
464,93.56175821875003,93.72555128125002,51.0,84.0
465,93.04451696875002,93.73704553125002,48.0,77.0
466,92.69968946875002,93.82181562500003,39.0,87.0
467,93.73417196875002,93.94250525000002,60.0,91.0
468,93.73417196875002,94.01434431250003,67.0,108.0
469,94.07899946875003,94.12928681250003,60.0,98.0
470,94.07899946875003,94.17095346875003,37.0,92.0
471,94.07899946875003,94.88647053125003,68.0,102.0
472,94.42382696875002,95.07325209375003,49.0,88.0
473,94.59624071875002,95.07756243750002,56.0,86.0
474,94.94106821875002,95.12641300000003,65.0,102.0
475,95.11348196875002,95.40514856250002,68.0,94.0
476,95.45830946875002,96.22698743750003,58.0,87.0
477,95.45830946875002,96.23417134375002,67.0,92.0
478,95.97555071875003,96.41520578125002,55.0,89.0
479,95.45830946875002,96.48273450000002,48.0,88.0
480,96.32037821875002,96.51147012500002,58.0,92.0
481,96.49279196875003,96.76721718750002,67.0,96.0
482,96.83761946875002,97.43388368750003,65.0,96.0
483,97.35486071875002,97.45974575000002,58.0,88.0
484,97.52727446875002,97.74710200000003,61.0,84.0
485,97.69968821875003,97.80601003125003,65.0,88.0
486,96.83761946875002,97.93101000000003,46.0,89.0
487,97.18244696875003,98.13503293750003,53.0,84.0
488,97.87210196875003,98.20543521875003,68.0,104.0
489,98.21692946875002,98.70112475000002,67.0,91.0
490,98.56175696875002,98.80169943750002,55.0,78.0
491,98.73417071875002,99.10198671875003,67.0,88.0
492,98.73417071875002,99.19106715625003,64.0,91.0
493,99.07899821875003,99.24566484375002,55.0,81.0
494,98.21692946875002,99.26146943750003,48.0,87.0
495,99.25141196875002,99.53876821875002,67.0,107.0
496,99.59623946875003,100.02583706250002,60.0,88.0
497,99.59623946875003,100.07181406250002,67.0,104.0
498,100.11348071875003,100.43675650000003,68.0,100.0
499,100.11348071875003,100.44250362500003,60.0,100.0
500,100.28589446875003,100.58761853125003,53.0,76.0
501,100.45830821875002,100.86204375000003,60.0,86.0
502,100.45830821875002,100.90227362500002,67.0,98.0
503,100.80313571875003,101.38503212500002,53.0,83.0
504,100.97554946875002,101.70974468750002,60.0,92.0
505,100.97554946875002,101.72985962500002,65.0,102.0
506,101.83761821875002,101.96836531250003,60.0,88.0
507,101.66520446875002,102.11635378125003,53.0,87.0
508,99.94106696875002,102.15802043750003,48.0,78.0
509,99.59623946875003,102.17526181250003,41.0,88.0
510,102.01003196875003,102.24710087500003,67.0,104.0
511,102.35485946875002,102.81031912500002,60.0,91.0
512,102.35485946875002,102.82037659375003,65.0,104.0
513,102.87210071875002,102.90227312500002,60.0,85.0
514,102.87210071875002,103.28445693750002,65.0,110.0
515,103.21692821875003,103.47985918750003,53.0,86.0
516,102.35485946875002,103.51146837500002,41.0,88.0
517,103.38934196875003,103.60054881250002,60.0,86.0
518,103.56175571875002,103.69393959375003,65.0,89.0
519,102.69968696875003,103.70543384375003,48.0,80.0
520,103.73416946875003,104.16520384375002,60.0,94.0
521,103.73416946875003,104.17526131250003,67.0,104.0
522,104.25141071875002,104.58330718750003,60.0,89.0
523,104.25141071875002,104.59911178125003,67.0,108.0
524,104.59623821875003,104.76003128125002,51.0,84.0
525,104.07899696875002,104.77152553125002,48.0,77.0
526,103.73416946875003,104.85629562500003,39.0,87.0
527,104.76865196875002,104.97698525000003,60.0,91.0
528,104.76865196875002,105.04882431250003,67.0,108.0
529,105.11347946875003,105.16376681250003,60.0,98.0
530,105.11347946875003,105.20543346875003,37.0,92.0
531,105.11347946875003,105.92095053125003,68.0,102.0
532,105.45830696875002,106.10773209375003,49.0,88.0
533,105.63072071875003,106.11204243750002,56.0,86.0
534,105.97554821875002,106.16089300000003,65.0,102.0
535,106.14796196875002,106.43962856250002,68.0,94.0
536,106.49278946875002,107.26146743750003,58.0,87.0
537,106.49278946875002,107.26865134375002,67.0,92.0
538,107.01003071875003,107.44968578125003,55.0,89.0
539,106.49278946875002,107.51721450000002,48.0,88.0
540,107.35485821875002,107.54595012500002,58.0,92.0
541,107.52727196875003,107.80169718750003,67.0,96.0
542,107.87209946875002,108.46836368750003,65.0,96.0
543,108.38934071875002,108.49422575000003,58.0,88.0
544,108.56175446875002,108.78158200000003,61.0,84.0
545,108.73416821875003,108.84049003125003,65.0,88.0
546,107.87209946875002,108.96549000000003,46.0,89.0
547,108.21692696875003,109.16951293750003,53.0,84.0
548,108.90658196875003,109.23991521875003,68.0,104.0
549,109.25140946875003,109.73560475000002,67.0,91.0
550,109.59623696875002,109.83617943750002,55.0,78.0
551,109.76865071875002,110.13646671875003,67.0,88.0
552,109.76865071875002,110.22554715625003,64.0,91.0
553,110.11347821875003,110.28014484375002,55.0,81.0
554,109.25140946875003,110.29594943750003,48.0,87.0
555,110.28589196875002,110.57324821875002,67.0,107.0
556,110.63071946875003,111.06031706250003,60.0,88.0
557,111.14796071875003,111.47123650000003,68.0,100.0
558,111.14796071875003,111.47698362500003,60.0,100.0
559,111.32037446875003,111.62209853125003,53.0,76.0
560,111.49278821875002,111.89652375000003,60.0,86.0
561,111.49278821875002,111.93675362500002,67.0,98.0
562,111.83761571875003,112.41951212500003,53.0,83.0
563,112.01002946875002,112.74422468750002,60.0,92.0
564,112.01002946875002,112.76433962500003,65.0,102.0
565,112.87209821875003,113.00284531250003,60.0,88.0
566,112.69968446875002,113.15083378125003,53.0,87.0
567,110.97554696875002,113.19250043750003,48.0,78.0
568,110.63071946875003,113.20974181250003,41.0,88.0
569,113.04451196875003,113.28158087500003,67.0,104.0
570,113.38933946875002,113.96692553125003,77.0,100.0
571,113.38933946875002,113.99422437500003,68.0,92.0
572,113.73416696875003,114.24709787500002,60.0,64.0
573,113.90658071875002,114.25859212500002,72.0,96.0
574,114.25140821875003,114.53876446875003,68.0,89.0
575,114.59623571875002,114.73129315625003,70.0,46.0
576,113.38933946875002,114.79594831250003,53.0,87.0
577,114.76864946875003,115.50428146875002,75.0,100.0
578,114.76864946875003,115.67813200000003,67.0,103.0
579,115.63071821875003,115.82324690625003,70.0,87.0
580,115.80313196875002,116.09479856250003,75.0,102.0
581,114.76864946875003,116.17525831250003,51.0,87.0
582,116.14795946875003,116.90657996875002,73.0,96.0
583,116.14795946875003,116.91807421875002,65.0,91.0
584,116.14795946875003,117.51577521875002,49.0,89.0
585,117.01002821875002,117.52870625000003,73.0,96.0
586,117.52726946875003,118.23272906250003,72.0,92.0
587,117.52726946875003,118.27583250000002,63.0,92.0
588,118.38933821875003,118.85772890625003,72.0,102.0
589,117.52726946875003,118.87209671875003,48.0,87.0
590,118.90657946875002,119.06606218750002,72.0,92.0
591,118.90657946875002,119.41232646875002,58.0,83.0
592,118.90657946875002,119.64077468750003,70.0,91.0
593,118.90657946875002,119.67238387500002,61.0,92.0
594,119.59623446875003,119.88790106250003,58.0,86.0
595,119.76864821875003,119.99278609375003,61.0,93.0
596,119.94106196875003,120.20974006250003,70.0,100.0
597,118.90657946875002,120.27152165625003,46.0,83.0
598,120.28588946875003,120.99565940625003,64.0,93.0
599,120.28588946875003,120.99853296875003,72.0,98.0
600,120.28588946875003,121.17813062500002,67.0,91.0
601,120.28588946875003,121.27295818750002,48.0,84.0
602,121.14795821875003,121.29594668750003,64.0,87.0
603,120.97554446875003,121.31318806250003,55.0,76.0
604,121.32037196875002,121.37640643750002,67.0,44.0
605,121.32037196875002,122.37640618750002,72.0,96.0
606,121.66519946875003,122.39077400000004,65.0,84.0
607,121.66519946875003,122.43244065625002,68.0,88.0
608,122.69968196875003,123.39508409375003,72.0,100.0
609,122.35485446875003,123.39795765625003,60.0,70.0
610,122.69968196875003,123.42669328125002,65.0,92.0
611,123.38933696875003,123.81318743750003,68.0,88.0
612,123.90657821875003,124.05887703125003,65.0,87.0
613,124.07899196875003,124.35772753125003,72.0,107.0
614,121.66519946875003,124.42812981250003,53.0,85.0
615,124.42381946875003,124.42812981250003,53.0,87.0
616,123.73416446875002,124.46261256250003,60.0,87.0
617,124.42381946875003,125.00140553125003,77.0,100.0
618,124.42381946875003,125.02870437500003,68.0,92.0
619,124.76864696875003,125.28157787500002,60.0,64.0
620,124.94106071875002,125.29307212500002,72.0,96.0
621,125.28588821875003,125.57324446875003,68.0,89.0
622,125.63071571875003,125.76577315625003,70.0,46.0
623,125.80312946875003,126.53876146875002,75.0,100.0
624,125.80312946875003,126.71261200000004,67.0,103.0
625,126.66519821875004,126.85772690625004,70.0,87.0
626,126.83761196875002,127.12927856250003,75.0,102.0
627,125.80312946875003,127.20973831250004,51.0,87.0
628,127.18243946875003,127.94105996875003,73.0,96.0
629,127.18243946875003,127.95255421875002,65.0,91.0
630,127.18243946875003,128.55025521875004,49.0,89.0
631,128.04450821875002,128.56318625000003,73.0,96.0
632,128.56174946875004,129.26720906250003,72.0,92.0
633,128.56174946875004,129.31031250000004,63.0,92.0
634,129.42381821875003,129.89220890625003,72.0,102.0
635,128.56174946875004,129.90657671875002,48.0,87.0
636,129.94105946875004,130.10054218750003,72.0,92.0
637,129.94105946875004,130.44680646875003,58.0,83.0
638,129.94105946875004,130.67525468750003,70.0,91.0
639,129.94105946875004,130.70686387500004,61.0,92.0
640,130.63071446875003,130.92238106250002,58.0,86.0
641,130.80312821875003,131.02726609375003,61.0,93.0
642,130.97554196875004,131.24422006250003,70.0,100.0
643,129.94105946875004,131.30600165625003,46.0,83.0
644,131.32036946875004,132.03013940625004,64.0,93.0
645,131.32036946875004,132.03301296875003,72.0,98.0
646,131.32036946875004,132.21261062500002,67.0,91.0
647,131.32036946875004,132.30743818750003,48.0,84.0
648,132.18243821875004,132.33042668750002,64.0,87.0
649,132.01002446875003,132.34766806250002,55.0,76.0
650,132.35485196875004,132.41088643750004,67.0,44.0
651,132.35485196875004,133.41088618750004,72.0,96.0
652,132.69967946875002,133.42525400000002,65.0,84.0
653,132.69967946875002,133.46692065625004,68.0,88.0
654,133.73416196875004,134.42956409375003,72.0,100.0
655,133.38933446875004,134.43243765625004,60.0,70.0
656,133.73416196875004,134.46117328125004,65.0,92.0
657,134.42381696875003,134.84766743750004,68.0,88.0
658,134.94105821875004,135.09335703125004,65.0,87.0
659,135.11347196875002,135.39220753125002,72.0,107.0
660,132.69967946875002,135.46260981250003,53.0,85.0
661,134.76864446875004,135.49709256250003,60.0,87.0
662,135.45829946875003,135.49709256250003,60.0,91.0
663,135.45829946875003,135.92381659375002,65.0,104.0
664,135.97554071875004,136.00571312500003,60.0,85.0
665,135.97554071875004,136.38789693750005,65.0,110.0
666,136.32036821875002,136.58329918750005,53.0,86.0
667,135.45829946875003,136.61490837500003,41.0,88.0
668,136.49278196875002,136.70398881250003,60.0,86.0
669,136.66519571875003,136.79737959375004,65.0,89.0
670,135.80312696875004,136.80887384375004,48.0,80.0
671,136.83760946875003,137.26864384375003,60.0,94.0
672,136.83760946875003,137.27870131250003,67.0,104.0
673,137.35485071875004,137.68674718750003,60.0,89.0
674,137.35485071875004,137.70255178125004,67.0,108.0
675,137.69967821875002,137.86347128125004,51.0,84.0
676,137.18243696875004,137.87496553125004,48.0,77.0
677,136.83760946875003,137.95973562500004,39.0,87.0
678,137.87209196875003,138.08042525000002,60.0,91.0
679,137.87209196875003,138.15226431250002,67.0,108.0
680,138.21691946875004,138.26720681250004,60.0,98.0
681,138.21691946875004,138.30887346875002,37.0,92.0
682,138.21691946875004,139.02439053125002,68.0,102.0
683,138.56174696875004,139.21117209375004,49.0,88.0
684,138.73416071875002,139.21548243750004,56.0,86.0
685,139.07898821875003,139.26433300000002,65.0,102.0
686,139.25140196875003,139.54306856250003,68.0,94.0
687,139.59622946875004,140.36490743750002,58.0,87.0
688,139.59622946875004,140.37209134375004,67.0,92.0
689,140.11347071875002,140.55312578125003,55.0,89.0
690,139.59622946875004,140.62065450000003,48.0,88.0
691,140.45829821875003,140.64939012500002,58.0,92.0
692,140.63071196875003,140.90513718750003,67.0,96.0
693,140.97553946875004,141.57180368750002,65.0,96.0
694,141.49278071875003,141.59766575000003,58.0,88.0
695,141.66519446875003,141.88502200000002,61.0,84.0
696,141.83760821875003,141.94393003125003,65.0,88.0
697,140.97553946875004,142.06893000000002,46.0,89.0
698,141.32036696875002,142.27295293750004,53.0,84.0
699,142.01002196875004,142.34335521875002,68.0,104.0
700,142.35484946875005,142.83904475000003,67.0,91.0
701,142.69967696875003,142.93961943750003,55.0,78.0
702,142.87209071875003,143.23990671875003,67.0,88.0
703,142.87209071875003,143.32898715625004,64.0,91.0
704,143.21691821875004,143.38358484375004,55.0,81.0
705,142.35484946875005,143.39938943750005,48.0,87.0
706,143.38933196875004,143.67668821875003,67.0,107.0
707,143.73415946875002,144.16375706250003,60.0,88.0
708,143.73415946875002,144.20973406250005,67.0,104.0
709,144.25140071875003,144.57467650000004,68.0,100.0
710,144.25140071875003,144.58042362500004,60.0,100.0
711,144.42381446875004,144.72553853125004,53.0,76.0
712,144.59622821875004,144.99996375000003,60.0,86.0
713,144.59622821875004,145.04019362500003,67.0,98.0
714,144.94105571875002,145.52295212500005,53.0,83.0
715,145.11346946875003,145.84766468750004,60.0,92.0
716,145.11346946875003,145.86777962500003,65.0,102.0
717,145.97553821875005,146.10628531250003,60.0,88.0
718,145.80312446875004,146.25427378125002,53.0,87.0
719,144.07898696875003,146.29594043750004,48.0,78.0
720,143.73415946875002,146.31318181250003,41.0,88.0
721,146.14795196875002,146.38502087500004,67.0,104.0
722,146.49277946875003,146.94823912500004,60.0,91.0
723,146.49277946875003,146.95829659375005,65.0,104.0
724,147.01002071875004,147.04019312500003,60.0,85.0
725,147.01002071875004,147.42237693750005,65.0,110.0
726,147.35484821875002,147.61777918750005,53.0,86.0
727,146.49277946875003,147.64938837500003,41.0,88.0
728,147.52726196875003,147.73846881250003,60.0,86.0
729,147.69967571875003,147.83185959375004,65.0,89.0
730,146.83760696875004,147.84335384375004,48.0,80.0
731,147.87208946875003,148.30312384375003,60.0,94.0
732,147.87208946875003,148.31318131250003,67.0,104.0
733,148.38933071875005,148.72122718750003,60.0,89.0
734,148.38933071875005,148.73703178125004,67.0,108.0
735,148.73415821875003,148.89795128125004,51.0,84.0
736,148.21691696875004,148.90944553125004,48.0,77.0
737,147.87208946875003,148.99421562500004,39.0,87.0
738,148.90657196875003,149.11490525000005,60.0,91.0
739,148.90657196875003,149.18674431250002,67.0,108.0
740,149.25139946875004,149.30168681250004,60.0,98.0
741,149.25139946875004,149.34335346875002,37.0,92.0
742,149.25139946875004,150.05887053125002,68.0,102.0
743,149.59622696875005,150.24565209375004,49.0,88.0
744,149.76864071875005,150.24996243750005,56.0,86.0
745,150.11346821875003,150.29881300000002,65.0,102.0
746,150.28588196875003,150.57754856250003,68.0,94.0
747,150.63070946875004,151.39938743750002,58.0,87.0
748,150.63070946875004,151.40657134375004,67.0,92.0
749,151.14795071875002,151.58760578125003,55.0,89.0
750,150.63070946875004,151.65513450000003,48.0,88.0
751,151.49277821875003,151.68387012500003,58.0,92.0
752,151.66519196875004,151.93961718750003,67.0,96.0
753,152.01001946875004,152.60628368750002,65.0,96.0
754,152.52726071875003,152.63214575000003,58.0,88.0
755,152.69967446875003,152.91950200000002,61.0,84.0
756,152.87208821875004,152.97841003125004,65.0,88.0
757,152.01001946875004,153.10341000000003,46.0,89.0
758,152.35484696875002,153.30743293750004,53.0,84.0
759,153.04450196875004,153.37783521875005,68.0,104.0
760,153.38932946875005,153.87352475000003,67.0,91.0
761,153.73415696875003,153.97409943750003,55.0,78.0
762,153.90657071875003,154.27438671875004,67.0,88.0
763,153.90657071875003,154.36346715625004,64.0,91.0
764,154.25139821875004,154.41806484375005,55.0,81.0
765,153.38932946875005,154.43386943750005,48.0,87.0
766,154.42381196875004,154.71116821875003,67.0,107.0
767,154.76863946875002,155.19823706250003,60.0,88.0
768,154.76863946875002,155.24421406250005,67.0,104.0
769,155.28588071875004,155.60915650000004,68.0,100.0
770,155.28588071875004,155.61490362500004,60.0,100.0
771,155.45829446875004,155.76001853125004,53.0,76.0
772,155.63070821875004,156.03444375000004,60.0,86.0
773,155.63070821875004,156.07467362500003,67.0,98.0
774,155.97553571875002,156.55743212500005,53.0,83.0
775,156.14794946875003,156.88214468750004,60.0,92.0
776,156.14794946875003,156.90225962500003,65.0,102.0
777,157.01001821875005,157.14076531250004,60.0,88.0
778,156.83760446875004,157.28875378125005,53.0,87.0
779,155.11346696875003,157.33042043750004,48.0,78.0
780,154.76863946875002,157.34766181250004,41.0,88.0
781,157.18243196875002,157.41950087500004,67.0,104.0
782,157.52725946875003,157.98271912500005,60.0,91.0
783,157.52725946875003,157.99277659375005,65.0,104.0
784,158.04450071875004,158.07467312500003,60.0,85.0
785,158.04450071875004,158.45685693750005,65.0,110.0
786,158.38932821875005,158.65225918750005,53.0,86.0
787,157.52725946875003,158.68386837500003,41.0,88.0
788,158.56174196875003,158.77294881250003,60.0,86.0
789,158.73415571875003,158.86633959375004,65.0,89.0
790,157.87208696875004,158.87783384375004,48.0,80.0
791,158.90656946875004,159.33760384375003,60.0,94.0
792,158.90656946875004,159.34766131250004,67.0,104.0
793,159.42381071875005,159.75570718750004,60.0,89.0
794,159.42381071875005,159.77151178125004,67.0,108.0
795,159.76863821875003,159.93243128125005,51.0,84.0
796,159.25139696875004,159.94392553125004,48.0,77.0
797,158.90656946875004,160.02869562500004,39.0,87.0
798,159.94105196875003,160.14938525000005,60.0,91.0
799,159.94105196875003,160.22122431250003,67.0,108.0
800,160.28587946875004,160.33616681250004,60.0,98.0
801,160.28587946875004,160.37783346875003,37.0,92.0
802,160.28587946875004,161.09335053125002,68.0,102.0
803,160.63070696875005,161.28013209375004,49.0,88.0
804,160.80312071875005,161.28444243750005,56.0,86.0
805,161.14794821875003,161.33329300000003,65.0,102.0
806,161.32036196875003,161.61202856250003,68.0,94.0
807,161.66518946875004,162.43386743750003,58.0,87.0
808,161.66518946875004,162.44105134375005,67.0,92.0
809,162.18243071875003,162.62208578125004,55.0,89.0
810,161.66518946875004,162.68961450000003,48.0,88.0
811,162.52725821875003,162.71835012500003,58.0,92.0
812,162.69967196875004,162.97409718750004,67.0,96.0
813,163.04449946875005,163.64076368750003,65.0,96.0
814,163.56174071875003,163.66662575000004,58.0,88.0
815,163.73415446875003,163.95398200000002,61.0,84.0
816,163.90656821875004,164.01289003125004,65.0,88.0
817,163.04449946875005,164.13789000000003,46.0,89.0
818,163.38932696875003,164.34191293750004,53.0,84.0
819,164.07898196875004,164.41231521875005,68.0,104.0
820,164.42380946875005,164.90800475000003,67.0,91.0
821,164.76863696875003,165.00857943750003,55.0,78.0
822,164.94105071875003,165.30886671875004,67.0,88.0
823,164.94105071875003,165.39794715625004,64.0,91.0
824,165.28587821875004,165.45254484375005,55.0,81.0
825,164.42380946875005,165.46834943750005,48.0,87.0
826,165.45829196875005,165.74564821875003,67.0,107.0
827,165.80311946875003,166.23271706250003,60.0,88.0
828,165.80311946875003,166.27869406250005,67.0,104.0
829,166.32036071875004,166.64363650000004,68.0,100.0
830,166.32036071875004,166.64938362500004,60.0,100.0
831,166.49277446875004,166.79449853125004,53.0,76.0
832,166.66518821875005,167.06892375000004,60.0,86.0
833,166.66518821875005,167.10915362500003,67.0,98.0
834,167.01001571875003,167.59191212500005,53.0,83.0
835,167.18242946875003,167.91662468750005,60.0,92.0
836,167.18242946875003,167.93673962500003,65.0,102.0
837,168.04449821875005,168.17524531250004,60.0,88.0
838,167.87208446875005,168.32323378125005,53.0,87.0
839,166.14794696875003,168.36490043750004,48.0,78.0
840,165.80311946875003,168.38214181250004,41.0,88.0
841,168.21691196875005,168.45398087500004,67.0,104.0
842,168.56173946875003,169.01719912500005,60.0,91.0
843,168.56173946875003,169.02725659375005,65.0,104.0
844,169.07898071875005,169.10915312500003,60.0,85.0
845,169.07898071875005,169.49133693750005,65.0,110.0
846,169.42380821875005,169.68673918750005,53.0,86.0
847,168.56173946875003,169.71834837500003,41.0,88.0
848,169.59622196875003,169.80742881250004,60.0,86.0
849,169.76863571875003,169.90081959375004,65.0,89.0
850,168.90656696875004,169.91231384375004,48.0,80.0
851,169.94104946875004,170.37208384375003,60.0,94.0
852,169.94104946875004,170.38214131250004,67.0,104.0
853,170.45829071875005,170.79018718750004,60.0,89.0
854,170.45829071875005,170.80599178125004,67.0,108.0
855,170.80311821875003,170.96691128125005,51.0,84.0
856,170.28587696875005,170.97840553125005,48.0,77.0
857,169.94104946875004,171.06317562500004,39.0,87.0
858,170.97553196875003,171.18386525000005,60.0,91.0
859,170.97553196875003,171.25570431250003,67.0,108.0
860,171.32035946875004,171.37064681250004,60.0,98.0
861,171.32035946875004,171.41231346875003,37.0,92.0
862,171.32035946875004,172.12783053125005,68.0,102.0
863,171.66518696875005,172.31461209375004,49.0,88.0
864,171.83760071875005,172.31892243750005,56.0,86.0
865,172.18242821875003,172.36777300000003,65.0,102.0
866,172.35484196875004,172.64650856250003,68.0,94.0
867,172.69966946875005,173.46834743750003,58.0,87.0
868,172.69966946875005,173.47553134375005,67.0,92.0
869,173.21691071875003,173.65656578125004,55.0,89.0
870,172.69966946875005,173.72409450000004,48.0,88.0
871,173.56173821875004,173.75283012500003,58.0,92.0
872,173.73415196875004,174.00857718750004,67.0,96.0
873,174.07897946875005,174.67524368750003,65.0,96.0
874,174.59622071875003,174.70110575000004,58.0,88.0
875,174.76863446875004,174.98846200000006,61.0,84.0
876,174.94104821875004,175.04737003125004,65.0,88.0
877,174.07897946875005,175.17237000000003,46.0,89.0
878,174.42380696875003,175.37639293750004,53.0,84.0
879,175.11346196875004,175.44679521875005,68.0,104.0
880,175.45828946875005,175.94248475000003,67.0,91.0
881,175.80311696875003,176.04305943750003,55.0,78.0
882,175.97553071875004,176.34334671875004,67.0,88.0
883,175.97553071875004,176.43242715625004,64.0,91.0
884,176.32035821875004,176.48702484375005,55.0,81.0
885,175.45828946875005,176.50282943750005,48.0,87.0
886,176.49277196875005,176.78012821875004,67.0,107.0
887,176.83759946875003,177.26719706250003,60.0,88.0
888,176.83759946875003,177.31317406250005,67.0,104.0
889,177.35484071875004,177.67811650000004,68.0,100.0
890,177.35484071875004,177.68386362500004,60.0,100.0
891,177.52725446875004,177.82897853125004,53.0,76.0
892,177.69966821875005,178.10340375000004,60.0,86.0
893,177.69966821875005,178.14363362500004,67.0,98.0
894,178.04449571875006,178.62639212500005,53.0,83.0
895,178.21690946875003,178.95110468750005,60.0,92.0
896,178.21690946875003,178.97121962500003,65.0,102.0
897,179.07897821875005,179.20972531250004,60.0,88.0
898,178.90656446875005,179.35771378125006,53.0,87.0
899,177.18242696875004,179.39938043750004,48.0,78.0
900,176.83759946875003,179.41662181250004,41.0,88.0
901,179.25139196875006,179.48846087500004,67.0,104.0
902,179.59621946875004,180.05167912500005,60.0,91.0
903,179.59621946875004,180.06173659375006,65.0,104.0
904,180.11346071875005,180.14363312500004,60.0,85.0
905,180.11346071875005,180.52581693750005,65.0,110.0
906,180.45828821875006,180.72121918750005,53.0,86.0
907,179.59621946875004,180.75282837500004,41.0,88.0
908,180.63070196875003,180.84190881250004,60.0,86.0
909,180.80311571875004,180.93529959375005,65.0,89.0
910,179.94104696875004,180.94679384375004,48.0,80.0
911,180.97552946875004,181.40656384375004,60.0,94.0
912,180.97552946875004,181.41662131250004,67.0,104.0
913,181.49277071875005,181.82466718750004,60.0,89.0
914,181.49277071875005,181.84047178125005,67.0,108.0
915,181.83759821875003,182.00139128125005,51.0,84.0
916,181.32035696875005,182.01288553125005,48.0,77.0
917,180.97552946875004,182.09765562500004,39.0,87.0
918,182.01001196875004,182.21834525000006,60.0,91.0
919,182.01001196875004,182.29018431250003,67.0,108.0
920,182.35483946875004,182.40512681250004,60.0,98.0
921,182.35483946875004,182.44679346875003,37.0,92.0
922,182.35483946875004,183.16231053125006,68.0,102.0
923,182.69966696875005,183.34909209375004,49.0,88.0
924,182.87208071875006,183.35340243750005,56.0,86.0
925,183.21690821875004,183.40225300000003,65.0,102.0
926,183.38932196875004,183.68098856250003,68.0,94.0
927,183.73414946875005,184.50282743750003,58.0,87.0
928,183.73414946875005,184.51001134375005,67.0,92.0
929,184.25139071875003,184.69104578125004,55.0,89.0
930,183.73414946875005,184.75857450000004,48.0,88.0
931,184.59621821875004,184.78731012500003,58.0,92.0
932,184.76863196875004,185.04305718750004,67.0,96.0
933,185.11345946875005,185.70972368750003,65.0,96.0
934,185.63070071875003,185.73558575000004,58.0,88.0
935,185.80311446875004,186.02294200000006,61.0,84.0
936,185.97552821875004,186.08185003125004,65.0,88.0
937,185.11345946875005,186.20685000000003,46.0,89.0
938,185.45828696875003,186.41087293750005,53.0,84.0
939,186.14794196875005,186.48127521875006,68.0,104.0
940,186.49276946875005,186.97696475000004,67.0,91.0
941,186.83759696875003,187.07753943750004,55.0,78.0
942,187.01001071875004,187.37782671875004,67.0,88.0
943,187.01001071875004,187.46690715625004,64.0,91.0
944,187.35483821875005,187.52150484375005,55.0,81.0
945,186.49276946875005,187.53730943750006,48.0,87.0
946,187.52725196875005,187.81460821875004,67.0,107.0
947,187.87207946875006,188.30167706250003,60.0,88.0
948,187.87207946875006,188.34765406250006,67.0,104.0
949,188.38932071875004,188.71259650000005,68.0,100.0
950,188.38932071875004,188.71834362500005,60.0,100.0
951,188.56173446875005,188.86345853125005,53.0,76.0
952,188.73414821875005,189.13788375000004,60.0,86.0
953,188.73414821875005,189.17811362500004,67.0,98.0
954,189.07897571875006,189.66087212500005,53.0,83.0
955,189.25138946875003,189.98558468750005,60.0,92.0
956,189.25138946875003,190.00569962500003,65.0,102.0
957,190.11345821875005,190.24420531250004,60.0,88.0
958,189.94104446875005,190.39219378125006,53.0,87.0
959,188.21690696875004,190.43386043750004,48.0,78.0
960,187.87207946875006,190.45110181250004,41.0,88.0
961,190.28587196875006,190.52294087500005,67.0,104.0
962,190.63069946875004,191.08615912500005,60.0,91.0
963,190.63069946875004,191.09621659375006,65.0,104.0
964,191.14794071875005,191.17811312500004,60.0,85.0
965,191.14794071875005,191.56029693750006,65.0,110.0
966,191.49276821875006,191.75569918750006,53.0,86.0
967,190.63069946875004,191.78730837500004,41.0,88.0
968,191.66518196875003,191.87638881250004,60.0,86.0
969,191.83759571875004,191.96977959375005,65.0,89.0
970,190.97552696875005,191.98127384375005,48.0,80.0
971,192.01000946875004,192.44104384375004,60.0,94.0
972,192.01000946875004,192.45110131250004,67.0,104.0
973,192.52725071875005,192.85914718750004,60.0,89.0
974,192.52725071875005,192.87495178125005,67.0,108.0
975,192.87207821875003,193.03587128125005,51.0,84.0
976,192.35483696875005,193.04736553125005,48.0,77.0
977,192.01000946875004,193.13213562500005,39.0,87.0
978,193.04449196875004,193.25282525000006,60.0,91.0
979,193.04449196875004,193.32466431250003,67.0,108.0
980,193.38931946875005,193.43960681250005,60.0,98.0
981,193.38931946875005,193.48127346875003,37.0,92.0
982,193.38931946875005,194.19679053125006,68.0,102.0
983,193.73414696875005,194.38357209375005,49.0,88.0
984,193.90656071875006,194.38788243750005,56.0,86.0
985,194.25138821875004,194.43673300000003,65.0,102.0
986,194.42380196875004,194.71546856250004,68.0,94.0
987,194.76862946875005,195.53730743750003,58.0,87.0
988,194.76862946875005,195.54449134375005,67.0,92.0
989,195.28587071875003,195.72552578125004,55.0,89.0
990,194.76862946875005,195.79305450000004,48.0,88.0
991,195.63069821875004,195.82179012500004,58.0,92.0
992,195.80311196875004,196.07753718750004,67.0,96.0
993,196.14793946875005,196.74420368750003,65.0,96.0
994,196.66518071875004,196.77006575000004,58.0,88.0
995,196.83759446875004,197.05742200000006,61.0,84.0
996,197.01000821875004,197.11633003125004,65.0,88.0
997,196.14793946875005,197.24133000000003,46.0,89.0
998,196.49276696875003,197.44535293750005,53.0,84.0
999,197.18242196875005,197.51575521875006,68.0,104.0
1000,197.52724946875006,198.01144475000004,67.0,91.0
1001,197.87207696875004,198.11201943750004,55.0,78.0
1002,198.04449071875004,198.41230671875005,67.0,88.0
1003,198.04449071875004,198.50138715625005,64.0,91.0
1004,198.38931821875005,198.55598484375005,55.0,81.0
1005,197.52724946875006,198.57178943750006,48.0,87.0
1006,198.56173196875005,198.84908821875004,67.0,107.0
1007,198.90655946875006,199.33615706250004,60.0,88.0
1008,198.90655946875006,199.38213406250006,67.0,104.0
1009,199.42380071875004,199.74707650000005,68.0,100.0
1010,199.42380071875004,199.75282362500005,60.0,100.0
1011,199.59621446875005,199.89793853125005,53.0,76.0
1012,199.76862821875005,200.17236375000005,60.0,86.0
1013,199.76862821875005,200.21259362500004,67.0,98.0
1014,200.11345571875006,200.69535212500006,53.0,83.0
1015,200.28586946875004,201.02006468750005,60.0,92.0
1016,200.28586946875004,201.04017962500004,65.0,102.0
1017,201.14793821875006,201.27868531250004,60.0,88.0
1018,200.97552446875005,201.42667378125006,53.0,87.0
1019,199.25138696875004,201.46834043750005,48.0,78.0
1020,198.90655946875006,201.48558181250004,41.0,88.0
1021,201.32035196875006,201.55742087500005,67.0,104.0
1022,201.66517946875004,202.12063912500005,60.0,91.0
1023,201.66517946875004,202.13069659375006,65.0,104.0
1024,202.18242071875005,202.21259312500004,60.0,85.0
1025,202.18242071875005,202.59477693750006,65.0,110.0
1026,202.52724821875006,202.79017918750006,53.0,86.0
1027,201.66517946875004,202.82178837500004,41.0,88.0
1028,202.69966196875004,202.91086881250004,60.0,86.0
1029,202.87207571875004,203.00425959375005,65.0,89.0
1030,202.01000696875005,203.01575384375005,48.0,80.0
1031,203.04448946875004,203.47552384375004,60.0,94.0
1032,203.04448946875004,203.48558131250005,67.0,104.0
1033,203.56173071875006,203.89362718750004,60.0,89.0
1034,203.56173071875006,203.90943178125005,67.0,108.0
1035,203.90655821875004,204.07035128125005,51.0,84.0
1036,203.38931696875005,204.08184553125005,48.0,77.0
1037,203.04448946875004,204.16661562500005,39.0,87.0
1038,204.07897196875004,204.28730525000006,60.0,91.0
1039,204.07897196875004,204.35914431250004,67.0,108.0
1040,204.42379946875005,204.47408681250005,60.0,98.0
1041,204.42379946875005,204.51575346875003,37.0,92.0
1042,204.42379946875005,205.23127053125006,68.0,102.0
1043,204.76862696875006,205.41805209375005,49.0,88.0
1044,204.94104071875006,205.42236243750006,56.0,86.0
1045,205.28586821875004,205.47121300000006,65.0,102.0
1046,205.45828196875004,205.74994856250004,68.0,94.0
1047,205.80310946875005,206.57178743750003,58.0,87.0
1048,205.80310946875005,206.57897134375006,67.0,92.0
1049,206.32035071875003,206.76000578125004,55.0,89.0
1050,205.80310946875005,206.82753450000004,48.0,88.0
1051,206.66517821875004,206.85627012500004,58.0,92.0
1052,206.83759196875005,207.11201718750004,67.0,96.0
1053,207.18241946875006,207.77868368750006,65.0,96.0
1054,207.69966071875004,207.80454575000005,58.0,88.0
1055,207.87207446875004,208.09190200000006,61.0,84.0
1056,208.04448821875005,208.15081003125005,65.0,88.0
1057,207.18241946875006,208.27581000000004,46.0,89.0
1058,207.52724696875006,208.47983293750005,53.0,84.0
1059,208.21690196875005,208.55023521875006,68.0,104.0
1060,208.56172946875006,209.04592475000004,67.0,91.0
1061,208.90655696875004,209.14649943750004,55.0,78.0
1062,209.07897071875004,209.44678671875005,67.0,88.0
1063,209.07897071875004,209.53586715625005,64.0,91.0
1064,209.42379821875005,209.59046484375006,55.0,81.0
1065,208.56172946875006,209.60626943750006,48.0,87.0
1066,209.59621196875005,209.88356821875004,67.0,107.0
1067,209.94103946875006,210.37063706250004,60.0,88.0
1068,209.94103946875006,210.41661406250006,67.0,104.0
1069,210.45828071875005,210.78155650000005,68.0,100.0
1070,210.45828071875005,210.78730362500005,60.0,100.0
1071,210.63069446875005,210.93241853125005,53.0,76.0
1072,210.80310821875005,211.20684375000005,60.0,86.0
1073,210.80310821875005,211.24707362500004,67.0,98.0
1074,211.14793571875006,211.72983212500006,53.0,83.0
1075,211.32034946875004,212.05454468750006,60.0,92.0
1076,211.32034946875004,212.07465962500004,65.0,102.0
1077,212.18241821875006,212.31316531250005,60.0,88.0
1078,212.01000446875005,212.46115378125006,53.0,87.0
1079,210.28586696875004,212.50282043750005,48.0,78.0
1080,209.94103946875006,212.52006181250005,41.0,88.0
1081,212.35483196875006,212.59190087500005,67.0,104.0
1082,212.69965946875004,213.15511912500006,60.0,91.0
1083,212.69965946875004,213.16517659375006,65.0,104.0
1084,213.21690071875005,213.24707312500004,60.0,85.0
1085,213.21690071875005,213.62925693750006,65.0,110.0
1086,213.56172821875006,213.82465918750006,53.0,86.0
1087,212.69965946875004,213.85626837500004,41.0,88.0
1088,213.73414196875004,213.94534881250004,60.0,86.0
1089,213.90655571875004,214.03873959375005,65.0,89.0
1090,213.04448696875005,214.05023384375005,48.0,80.0
1091,214.07896946875005,214.51000384375004,60.0,94.0
1092,214.07896946875005,214.52006131250005,67.0,104.0
1093,214.59621071875006,214.92810718750005,60.0,89.0
1094,214.59621071875006,214.94391178125005,67.0,108.0
1095,214.94103821875004,215.10483128125006,51.0,84.0
1096,214.42379696875005,215.11632553125006,48.0,77.0
1097,214.07896946875005,215.20109562500005,39.0,87.0
1098,215.11345196875004,215.32178525000006,60.0,91.0
1099,215.11345196875004,215.39362431250004,67.0,108.0
1100,215.45827946875005,215.50856681250005,60.0,98.0
1101,215.45827946875005,215.55023346875006,37.0,92.0
1102,215.45827946875005,216.26575053125006,68.0,102.0
1103,215.80310696875006,216.45253209375005,49.0,88.0
1104,215.97552071875006,216.45684243750006,56.0,86.0
1105,216.32034821875004,216.50569300000006,65.0,102.0
1106,216.49276196875005,216.78442856250004,68.0,94.0
1107,216.83758946875005,217.60626743750007,58.0,87.0
1108,216.83758946875005,217.61345134375006,67.0,92.0
1109,217.35483071875007,217.79448578125005,55.0,89.0
1110,216.83758946875005,217.86201450000004,48.0,88.0
1111,217.69965821875005,217.89075012500004,58.0,92.0
1112,217.87207196875005,218.14649718750005,67.0,96.0
1113,218.21689946875006,218.81316368750007,65.0,96.0
1114,218.73414071875004,218.83902575000005,58.0,88.0
1115,218.90655446875004,219.12638200000006,61.0,84.0
1116,219.07896821875005,219.18529003125005,65.0,88.0
1117,218.21689946875006,219.31029000000007,46.0,89.0
1118,218.56172696875007,219.51431293750005,53.0,84.0
1119,219.25138196875005,219.58471521875006,68.0,104.0
1120,219.59620946875006,220.08040475000004,67.0,91.0
1121,219.94103696875004,220.18097943750004,55.0,78.0
1122,220.11345071875004,220.48126671875005,67.0,88.0
1123,220.11345071875004,220.57034715625005,64.0,91.0
1124,220.45827821875005,220.62494484375006,55.0,81.0
1125,219.59620946875006,220.64074943750006,48.0,87.0
1126,220.63069196875006,220.91804821875004,67.0,107.0
1127,220.97551946875006,221.40511706250004,60.0,88.0
1128,220.97551946875006,221.45109406250006,67.0,104.0
1129,221.49276071875005,221.81603650000005,68.0,100.0
1130,221.49276071875005,221.82178362500005,60.0,100.0
1131,221.66517446875005,221.96689853125005,53.0,76.0
1132,221.83758821875006,222.24132375000005,60.0,86.0
1133,221.83758821875006,222.28155362500004,67.0,98.0
1134,222.18241571875006,222.76431212500006,53.0,83.0
1135,222.35482946875004,223.08902468750006,60.0,92.0
1136,222.35482946875004,223.10913962500004,65.0,102.0
1137,223.21689821875006,223.34764531250005,60.0,88.0
1138,223.04448446875006,223.49563378125006,53.0,87.0
1139,221.32034696875004,223.53730043750005,48.0,78.0
1140,220.97551946875006,223.55454181250005,41.0,88.0
1141,223.38931196875006,223.62638087500005,67.0,104.0
