,start,end,pitch,velocity
0,24.2521373875,24.506447545833336,72.0,94.0
1,24.510757887500002,24.765068045833335,69.0,66.0
2,24.7693783875,25.023688545833334,69.0,57.0
3,25.0279988875,25.282309045833333,67.0,48.0
4,25.2866193875,25.540929545833336,69.0,52.0
5,25.5452398875,25.799550045833335,67.0,63.0
6,25.803860387500002,26.058170545833335,69.0,62.0
7,26.0624808875,26.316791045833334,72.0,63.0
8,26.3211013875,26.575411545833333,72.0,79.0
9,26.5797218875,26.834032045833336,69.0,65.0
10,26.838342387500003,27.092652545833335,69.0,84.0
11,27.096962887500002,27.351273045833334,67.0,59.0
12,27.3555833875,27.609893545833334,69.0,66.0
13,27.6142038875,27.868514045833333,67.0,64.0
14,27.8728243875,28.127134545833336,69.0,68.0
15,28.131444887500002,28.385755045833335,72.0,76.0
16,28.3900653875,28.644375545833334,77.0,65.0
17,28.6486858875,28.902996045833333,74.0,71.0
18,28.9073063875,29.161616545833333,74.0,71.0
19,29.1659268875,29.420237045833336,72.0,61.0
20,29.424547387500002,29.678857545833335,74.0,60.0
21,29.6831678875,29.937478045833334,72.0,59.0
22,29.9417883875,30.454719045833336,72.0,63.0
23,30.459029387500003,30.842649795833335,65.0,59.0
24,30.8469601375,31.747821545833336,69.0,56.0
25,31.752131887500003,32.00644204583333,65.0,83.0
26,32.0107523875,32.26506254583334,77.0,72.0
27,32.269372887500005,33.040924045833336,74.0,91.0
28,33.0452343875,33.299544545833335,74.0,91.0
29,33.3038548875,33.558165045833334,74.0,82.0
30,33.5624753875,33.81678554583333,74.0,80.0
31,33.8210958875,34.33402654583333,74.0,84.0
32,34.3383368875,34.59264704583333,72.0,79.0
33,34.5969573875,34.85126754583334,74.0,91.0
34,34.855577887500004,35.10988804583334,72.0,67.0
35,35.114198387500004,35.368508545833336,69.0,66.0
36,35.3728188875,35.885749545833335,72.0,86.0
37,35.8900598875,36.144370045833334,65.0,90.0
38,36.1486803875,36.40299054583333,77.0,84.0
39,36.4073008875,37.17885204583334,74.0,90.0
40,37.183162387500005,37.43747254583334,74.0,90.0
41,37.441782887500004,37.69609304583334,74.0,87.0
42,37.7004033875,37.954713545833336,74.0,87.0
43,37.9590238875,38.213334045833335,72.0,65.0
44,38.2176443875,38.471954545833334,69.0,61.0
45,38.4762648875,40.02367754583334,72.0,86.0
46,40.027987887500004,40.282298045833336,65.0,66.0
47,40.2866083875,40.540918545833335,77.0,68.0
48,40.5452288875,41.31678004583333,74.0,84.0
49,41.3210903875,41.57540054583333,74.0,79.0
50,41.5797108875,41.83402104583333,72.0,59.0
51,41.8383313875,42.09264154583334,74.0,66.0
52,42.096951887500005,42.60988254583334,72.0,65.0
53,42.6141928875,42.868503045833336,74.0,66.0
54,42.8728133875,43.385744045833334,76.0,79.0
55,43.3900543875,43.644364545833334,74.0,62.0
56,43.6486748875,44.67884654583334,76.0,93.0
57,44.683156887500004,44.93746704583334,76.0,97.0
58,44.941777387500004,45.196087545833336,77.0,91.0
59,45.2003978875,45.454708045833335,76.0,90.0
60,45.4590183875,45.713328545833335,74.0,90.0
61,45.7176388875,45.971949045833334,72.0,85.0
62,45.9762593875,46.359879795833336,72.0,90.0
63,46.3641901375,46.74781054583333,77.0,93.0
64,46.7521208875,47.00643104583334,79.0,95.0
65,47.010741387500005,53.266509891666665,79.0,97.0
66,53.270974175,53.802223891666664,69.0,93.0
67,53.806688175,54.06307654583333,72.0,95.0
68,54.0673868875,54.83893804583334,77.0,90.0
69,54.843248387500005,55.09755854583334,79.0,95.0
70,55.101868887500004,55.873420045833335,81.0,93.0
71,55.8777303875,56.132040545833334,72.0,93.0
72,56.1363508875,56.64928154583333,74.0,93.0
73,56.6535918875,56.90790204583334,74.0,99.0
74,56.912212387500006,57.16652254583334,77.0,96.0
75,57.170832887500005,57.942384045833336,76.0,96.0
76,57.9466943875,58.201004545833335,74.0,100.0
77,58.2053148875,58.718245545833334,72.0,97.0
78,58.7225558875,59.23548654583334,82.0,98.0
79,59.2397968875,60.787209545833335,81.0,99.0
80,60.7915198875,61.045830045833334,81.0,66.0
81,61.0501403875,61.30445054583333,82.0,68.0
82,61.3087608875,62.08031204583334,81.0,84.0
83,62.084622387500005,62.33893254583334,79.0,68.0
84,62.343242887500004,62.856173545833336,77.0,62.0
85,62.8604838875,63.632035045833334,79.0,74.0
86,63.6363453875,64.14927604583333,76.0,93.0
87,64.1535863875,64.40789654583334,74.0,66.0
88,64.4122068875,65.44237854583334,72.0,91.0
89,65.4466888875,65.70099904583333,72.0,93.0
90,65.7053093875,66.08892979583334,74.0,93.0
91,66.0932401375,66.47686054583333,77.0,99.0
92,66.4811708875,66.73548104583334,77.0,87.0
93,66.7397913875,67.12341179583333,77.0,93.0
94,67.1277221375,67.51134254583333,81.0,98.0
95,67.5156528875,69.83892704583333,79.0,109.0
96,69.8432373875,70.35616804583333,69.0,90.0
97,70.3604783875,70.61478854583333,72.0,84.0
98,70.6190988875,71.39065004583334,77.0,94.0
99,71.3949603875,71.64927054583333,79.0,90.0
100,71.6535808875,72.42513204583334,81.0,90.0
101,72.4294423875,72.68375254583333,72.0,80.0
102,72.6880628875,73.20099354583334,74.0,87.0
103,73.20530388750001,73.45961404583333,74.0,93.0
104,73.4639243875,73.71823454583334,77.0,99.0
105,73.7225448875,74.49409604583333,76.0,99.0
106,74.4984063875,74.75271654583334,74.0,85.0
107,74.7570268875,75.26995754583334,72.0,91.0
108,75.2742678875,76.04581904583334,82.0,97.0
109,76.05012938750001,77.33892154583333,81.0,96.0
110,77.3432318875,77.59754204583334,81.0,93.0
111,77.6018523875,77.85616254583334,82.0,95.0
112,77.86047288750001,78.63202404583333,81.0,94.0
113,78.6363343875,78.89064454583334,79.0,84.0
114,78.8949548875,79.40788554583334,77.0,87.0
115,79.4121958875,80.18374704583334,79.0,90.0
116,80.18805738750001,80.70098804583334,76.0,100.0
117,80.70529838750001,80.95960854583333,74.0,93.0
118,80.9639188875,81.99409054583333,72.0,96.0
119,81.9984008875,82.25271104583334,72.0,95.0
120,82.2570213875,82.76995204583334,74.0,98.0
121,82.7742623875,83.02857254583333,77.0,105.0
122,83.0328828875,83.54581354583334,77.0,105.0
123,83.5501238875,84.06305454583334,81.0,95.0
124,84.0673648875,85.35615704583333,79.0,105.0
125,85.3604673875,85.74408779583334,72.0,98.0
126,85.7483981375,86.13201854583335,77.0,99.0
127,86.13632888750001,86.39063904583334,76.0,97.0
128,86.3949493875,100.95947304583333,77.0,97.0
129,100.9637833875,101.21809354583333,72.0,94.0
130,101.2224038875,101.47671404583333,69.0,66.0
131,101.4810243875,101.73533454583333,69.0,57.0
132,101.73964488749999,101.99395504583333,67.0,48.0
133,101.9982653875,102.25257554583334,69.0,52.0
134,102.2568858875,102.51119604583333,67.0,63.0
135,102.5155063875,102.76981654583334,69.0,62.0
136,102.7741268875,103.02843704583333,72.0,63.0
137,103.0327473875,103.28705754583333,72.0,79.0
138,103.2913678875,103.54567804583333,69.0,65.0
139,103.5499883875,103.80429854583333,69.0,84.0
140,103.8086088875,104.06291904583333,67.0,59.0
141,104.06722938749999,104.32153954583333,69.0,66.0
142,104.3258498875,104.58016004583334,67.0,64.0
143,104.5844703875,104.83878054583333,69.0,68.0
144,104.8430908875,105.09740104583334,72.0,76.0
145,105.1017113875,105.35602154583333,77.0,65.0
146,105.3603318875,105.61464204583334,74.0,71.0
147,105.6189523875,105.87326254583333,74.0,71.0
148,105.8775728875,106.13188304583333,72.0,61.0
149,106.1361933875,106.39050354583333,74.0,60.0
150,106.39481388749999,106.64912404583333,72.0,59.0
151,106.6534343875,107.16636504583333,72.0,63.0
152,107.1706753875,107.55429579583333,65.0,59.0
153,107.55860613749999,108.45946754583333,69.0,56.0
154,108.4637778875,108.71808804583333,65.0,83.0
155,108.7223983875,108.97670854583333,77.0,72.0
156,108.9810188875,109.75257004583334,74.0,91.0
157,109.7568803875,110.01119054583333,74.0,91.0
158,110.0155008875,110.26981104583334,74.0,82.0
159,110.2741213875,110.52843154583333,74.0,80.0
160,110.5327418875,111.04567254583333,74.0,84.0
161,111.0499828875,111.30429304583333,72.0,79.0
162,111.3086033875,111.56291354583334,74.0,91.0
163,111.5672238875,111.82153404583333,72.0,67.0
164,111.8258443875,112.08015454583334,69.0,66.0
165,112.0844648875,112.59739554583334,72.0,86.0
166,112.6017058875,112.85601604583333,65.0,90.0
167,112.8603263875,113.11463654583333,77.0,84.0
168,113.1189468875,113.89049804583334,74.0,90.0
169,113.8948083875,114.14911854583333,74.0,90.0
170,114.1534288875,114.40773904583332,74.0,87.0
171,114.41204938749999,114.66635954583333,74.0,87.0
172,114.6706698875,114.92498004583334,72.0,65.0
173,114.9292903875,115.18360054583333,69.0,61.0
174,115.1879108875,116.73532354583332,72.0,86.0
175,116.73963388749999,116.99394404583333,65.0,66.0
176,116.9982543875,117.25256454583334,77.0,68.0
177,117.2568748875,118.02842604583333,74.0,84.0
178,118.0327363875,118.28704654583333,74.0,79.0
179,118.2913568875,118.54566704583334,72.0,59.0
180,118.54997738750001,118.80428754583333,74.0,66.0
181,118.8085978875,119.32152854583333,72.0,65.0
182,119.3258388875,119.58014904583334,74.0,66.0
183,119.5844593875,120.09739004583334,76.0,79.0
184,120.1017003875,120.35601054583333,74.0,62.0
185,120.3603208875,121.39049254583333,76.0,93.0
186,121.39480288749999,121.64911304583333,76.0,97.0
187,121.6534233875,121.90773354583334,77.0,91.0
188,121.9120438875,122.16635404583333,76.0,90.0
189,122.1706643875,122.42497454583334,74.0,90.0
190,122.4292848875,122.68359504583333,72.0,85.0
191,122.6879053875,123.07152579583334,72.0,90.0
192,123.0758361375,123.45945654583333,77.0,93.0
193,123.4637668875,123.71807704583333,79.0,95.0
194,123.72238738749999,127.88180788333334,79.0,97.0
195,127.88623265,128.41277988333334,69.0,93.0
196,128.41720465,128.67305954583333,72.0,95.0
197,128.6773698875,129.44892104583332,77.0,90.0
198,129.45323138749998,129.70754154583332,79.0,95.0
199,129.7118518875,130.4834030458333,81.0,93.0
200,130.48771338749998,130.74202354583332,72.0,93.0
201,130.7463338875,131.25926454583333,74.0,93.0
202,131.2635748875,131.5178850458333,74.0,99.0
203,131.52219538749998,131.77994610416664,77.0,96.0
204,131.78433206249997,132.56941860416666,76.0,96.0
205,132.5738045625,132.8291355458333,74.0,100.0
206,132.83344588749998,133.3463765458333,72.0,97.0
207,133.35068688749996,134.1222380458333,82.0,98.0
208,134.12654838749998,135.41534054583332,81.0,99.0
209,135.41965088749998,135.6739610458333,81.0,66.0
210,135.67827138749996,135.9325815458333,82.0,68.0
211,135.93689188749997,136.7084430458333,81.0,84.0
212,136.71275338749996,136.96876903749995,79.0,68.0
213,136.97311686249995,137.49050803749995,77.0,62.0
214,137.49485586249995,138.2691620458333,79.0,74.0
215,138.27347238749996,138.78640304583328,76.0,93.0
216,138.79071338749995,139.0450235458333,74.0,66.0
217,139.04933388749996,140.07950554583329,72.0,91.0
218,140.08381588749995,140.3381260458333,72.0,93.0
219,140.34243638749996,140.72605679583327,74.0,93.0
220,140.73036713749994,141.11398754583328,77.0,99.0
221,141.11829788749995,141.3726080458333,77.0,87.0
222,141.37691838749996,141.88984904583327,77.0,93.0
223,141.89415938749994,142.40709004583329,81.0,98.0
224,142.41140038749995,144.47605404583328,79.0,109.0
225,144.48036438749995,144.9932950458333,69.0,90.0
226,144.99760538749996,145.2519155458333,72.0,84.0
227,145.25622588749997,146.0277770458333,77.0,94.0
228,146.03208738749996,146.2863975458333,79.0,90.0
229,146.29070788749996,147.0622590458333,81.0,90.0
230,147.06656938749995,147.3208795458333,72.0,80.0
231,147.32518988749996,147.83812054583328,74.0,87.0
232,147.84243088749994,148.09674104583328,74.0,93.0
233,148.10105138749995,148.3553615458333,77.0,99.0
234,148.35967188749996,149.13122304583328,76.0,99.0
235,149.13553338749995,149.3898435458333,74.0,85.0
236,149.39415388749995,149.9070845458333,72.0,91.0
237,149.91139488749997,150.42432554583328,82.0,97.0
238,150.42863588749995,151.98225203749993,81.0,96.0
239,151.98659986249993,152.24312153749995,81.0,93.0
240,152.24746936249994,152.50399103749993,82.0,95.0
241,152.50833886249995,153.28659953749994,81.0,94.0
242,153.29094736249994,153.54576354583327,79.0,84.0
243,153.55007388749993,154.06300454583325,77.0,87.0
244,154.06731488749992,154.83886604583327,79.0,90.0
245,154.84317638749994,155.3640846041666,76.0,100.0
246,155.36847056249994,155.6272421041666,74.0,93.0
247,155.63162806249994,156.6798721041666,72.0,96.0
248,156.68425806249994,156.9430296041666,72.0,95.0
249,156.94741556249994,157.4693446041666,74.0,98.0
250,157.47373056249995,157.72906154583328,77.0,105.0
251,157.73337188749994,158.24630254583326,77.0,105.0
252,158.25061288749993,158.76354354583327,81.0,95.0
253,158.76785388749994,160.0527601291666,79.0,105.0
254,160.05703363749993,160.4373758791666,72.0,98.0
255,160.44164938749992,160.82366754583327,77.0,99.0
256,160.82797788749994,161.08228804583328,76.0,97.0
257,161.08659838749995,161.47021879583326,79.0,97.0
258,161.47452913749993,165.73745704583328,77.0,97.0
259,165.74176738749995,165.99607754583326,74.0,97.0
260,166.00038788749993,166.25469804583327,74.0,92.0
261,166.25900838749993,166.51331854583327,74.0,97.0
262,166.51762888749994,167.28918004583326,77.0,98.0
263,167.29349038749993,167.80642104583328,76.0,101.0
264,167.81073138749994,168.06504154583328,77.0,98.0
265,168.06935188749995,168.58228254583327,76.0,95.0
266,168.58659288749993,169.09952354583328,72.0,92.0
267,169.10383388749995,169.35814404583326,72.0,84.0
268,169.36245438749992,169.74607479583327,81.0,101.0
269,169.75038513749993,170.13400554583328,81.0,105.0
270,170.13831588749994,170.39262604583328,81.0,100.0
271,170.39693638749995,170.78055679583326,84.0,95.0
272,170.78486713749993,171.16848754583327,79.0,97.0
273,171.17279788749994,171.42710804583328,81.0,97.0
274,171.43141838749995,171.81503879583326,79.0,95.0
275,171.81934913749993,174.01331304583326,77.0,99.0
276,174.01762338749992,174.27193354583326,74.0,98.0
277,174.27624388749993,174.53055404583327,74.0,97.0
278,174.53486438749994,174.78917454583328,74.0,97.0
279,174.79348488749994,175.56503604583327,77.0,101.0
280,175.56934638749993,176.08227704583328,76.0,106.0
281,176.08658738749995,176.34089754583326,77.0,106.0
282,176.34520788749992,176.85813854583327,76.0,98.0
283,176.86244888749994,177.37537954583325,72.0,97.0
284,177.37968988749992,177.63400004583326,72.0,73.0
285,177.63831038749993,178.02193079583327,82.0,100.0
286,178.02624113749994,178.40986154583328,81.0,87.0
287,178.41417188749995,178.66848204583326,82.0,91.0
288,178.67279238749992,179.05641279583327,81.0,93.0
289,179.06072313749993,179.44434354583328,77.0,83.0
290,179.44865388749994,179.70296404583326,77.0,101.0
291,179.70727438749992,180.09089479583326,82.0,107.0
292,180.09520513749993,180.47882554583327,81.0,99.0
293,180.48313588749994,180.73744604583328,82.0,95.0
294,180.74175638749995,180.9995071041666,81.0,99.0
295,181.00389306249994,181.78897960416663,77.0,97.0
296,181.79336556249996,182.3152946041666,69.0,93.0
297,182.31968056249994,182.5750115458333,72.0,95.0
298,182.57932188749996,183.09225254583328,77.0,90.0
299,183.09656288749994,183.6094935458333,79.0,95.0
300,183.61380388749996,184.38535504583328,81.0,93.0
301,184.38966538749995,184.64065177083327,72.0,93.0
302,184.64488906249994,185.14912677083328,74.0,93.0
303,185.15336406249995,185.4033642708333,74.0,99.0
304,185.40760156249993,185.6609255458333,77.0,96.0
305,185.66523588749996,186.43678704583328,76.0,96.0
306,186.44109738749995,186.6954075458333,74.0,100.0
307,186.69971788749996,187.21264854583328,72.0,97.0
308,187.21695888749994,187.7298895458333,82.0,98.0
309,187.73419988749995,189.28781603749994,81.0,99.0
310,189.29216386249993,189.54868553749995,81.0,66.0
311,189.55303336249995,189.80955503749993,82.0,68.0
312,189.81390286249996,190.59216353749994,81.0,84.0
313,190.59651136249994,190.85132754583327,79.0,68.0
314,190.85563788749994,191.36856854583326,77.0,62.0
315,191.37287888749992,192.14838453749994,79.0,74.0
316,192.15273236249993,192.67012353749993,76.0,93.0
317,192.67447136249993,192.93099303749992,74.0,66.0
318,192.93534086249994,193.97276554583325,72.0,91.0
319,193.97707588749992,194.23138604583326,72.0,93.0
320,194.23569638749993,194.61931679583324,74.0,93.0
321,194.6236271374999,195.00724754583325,77.0,99.0
322,195.01155788749992,195.26586804583326,77.0,87.0
323,195.27017838749993,195.52448854583324,77.0,93.0
324,195.5287988874999,196.04172954583325,81.0,98.0
325,196.04603988749992,196.30035004583326,82.0,98.0
326,196.30466038749992,196.55897054583326,81.0,98.0
327,196.56328088749993,198.36931404583325,79.0,109.0
328,198.37362438749992,198.88655504583326,69.0,90.0
329,198.89086538749993,199.14517554583324,72.0,84.0
330,199.1494858874999,199.92103704583326,77.0,94.0
331,199.92534738749993,200.17965754583324,79.0,90.0
332,200.1839678874999,200.95551904583326,81.0,90.0
333,200.95982938749992,201.21413954583326,72.0,80.0
334,201.21844988749993,201.73138054583325,74.0,87.0
335,201.7356908874999,201.99000104583325,74.0,93.0
336,201.99431138749992,202.24862154583326,77.0,99.0
337,202.25293188749993,203.02448304583325,76.0,99.0
338,203.02879338749992,203.2848090374999,74.0,85.0
339,203.2891568624999,203.8065480374999,72.0,91.0
340,203.8108958624999,204.3282870374999,82.0,97.0
341,204.33263486249993,205.89350403749992,81.0,96.0
342,205.89785186249992,206.1543735374999,81.0,93.0
343,206.15872136249993,206.41524303749992,82.0,95.0
344,206.41959086249992,207.19785153749993,81.0,94.0
345,207.20219936249993,207.4587210374999,79.0,84.0
346,207.4630688624999,207.9804600374999,77.0,87.0
347,207.9848078624999,208.75911404583326,79.0,90.0
348,208.76342438749992,209.27635504583324,76.0,100.0
349,209.2806653874999,209.53497554583325,74.0,93.0
350,209.53928588749991,210.56945754583325,72.0,96.0
351,210.5737678874999,210.82807804583325,72.0,95.0
352,210.83238838749992,211.34531904583324,74.0,98.0
353,211.3496293874999,211.60393954583324,77.0,105.0
354,211.6082498874999,212.12118054583325,77.0,105.0
355,212.12549088749992,212.63842154583324,81.0,95.0
356,212.6427318874999,216.9974285916666,79.0,105.0
357,217.0016302749999,217.3755800916666,72.0,98.0
358,217.3797817749999,217.7537315916666,77.0,99.0
359,217.7579332749999,218.00583259166658,76.0,97.0
360,218.01003427499992,218.76213559166658,79.0,97.0
361,218.76633727499993,222.75163391666658,77.0,97.0
