,start,end,pitch,velocity
0,1.4935333875,1.9773692395833333,81.0,34.0
1,2.1400846375,2.3642224041666666,84.0,21.0
2,2.2693948875000003,2.6497825395833337,89.0,60.0
3,2.2693948875000003,3.0193943375,77.0,34.0
4,1.4935333875,3.0668080958333332,65.0,44.0
5,1.7521538875,3.0915925604166667,72.0,49.0
6,3.0452563875000003,3.2101269562500003,91.0,48.0
7,3.4331871375,4.427798477083334,84.0,39.0
8,3.5624973875,4.682108635416667,93.0,53.0
9,3.48814399375,4.692884489583333,89.0,51.0
10,3.5624973875,4.926720525,70.0,57.0
11,5.6314613875,6.272624710416667,69.0,49.0
12,6.1487023875,6.451503889583334,72.0,72.0
13,6.4073228875,6.530167625000001,77.0,73.0
14,6.4073228875,6.959046620833334,65.0,55.0
15,5.6314613875,7.1379258000000005,53.0,56.0
16,5.8900818875,7.172408533333334,60.0,50.0
17,7.1831843875,7.346977370833334,79.0,64.0
18,7.4418048875,7.892235591666667,81.0,56.0
19,7.4418048875,7.895468347916667,77.0,61.0
20,7.4418048875,7.940726935416667,74.0,57.0
21,8.2176663875,9.350208660416667,58.0,47.0
22,8.4762868875,9.369605197916668,60.0,52.0
23,7.9590458875,9.37822588125,53.0,51.0
24,8.4762868875,9.380381052083333,65.0,54.0
25,7.7004253875,9.45581203125,46.0,63.0
26,9.510768887500001,9.78555316875,77.0,69.0
27,9.7693893875,10.140078770833334,62.0,49.0
28,9.7693893875,10.171328747916666,64.0,51.0
29,9.7693893875,10.18641494375,67.0,55.0
30,9.7693893875,10.296328656250001,76.0,58.0
31,9.7693893875,10.342664829166667,48.0,60.0
32,10.2866303875,10.405164783333333,60.0,59.0
33,10.0280098875,10.429949247916667,55.0,52.0
34,10.2866303875,10.579733620833334,77.0,69.0
35,10.5452508875,10.935336808333334,67.0,61.0
36,10.5452508875,11.313569289583334,76.0,72.0
37,10.803871387500001,11.315724460416668,60.0,59.0
38,10.803871387500001,11.318957216666668,65.0,66.0
39,11.321112387500001,11.568957033333334,58.0,61.0
40,11.0624918875,11.590508741666667,53.0,60.0
41,11.321112387500001,11.594819083333334,74.0,69.0
42,10.803871387500001,11.608827693750001,46.0,70.0
43,11.5797328875,11.745681041666668,60.0,57.0
44,11.8383533875,12.37175816875,64.0,67.0
45,11.8383533875,12.37822368125,60.0,67.0
46,11.8383533875,12.397620218750001,45.0,66.0
47,11.5797328875,12.414861585416666,72.0,70.0
48,11.8383533875,12.426715025,67.0,64.0
49,12.0969738875,12.448266733333334,52.0,58.0
50,12.3555943875,12.466585685416668,57.0,48.0
51,12.3555943875,12.56572354375,79.0,57.0
52,12.614214887500001,13.145464497916667,69.0,66.0
53,12.614214887500001,13.178869645833334,60.0,63.0
54,12.614214887500001,13.192878256250001,65.0,67.0
55,13.131455887500001,13.343740214583335,55.0,49.0
56,12.614214887500001,13.431024633333333,50.0,62.0
57,12.614214887500001,13.482748733333334,77.0,75.0
58,13.3900763875,13.543093516666667,69.0,55.0
59,13.543093516666667,13.575421079166667,69.0,55.0
60,13.3900763875,13.61313656875,60.0,52.0
61,13.575421079166667,13.701498572916668,69.0,55.0
62,13.907317387500001,14.429946314583335,62.0,55.0
63,13.6486968875,14.44072216875,65.0,64.0
64,13.6486968875,14.44718768125,70.0,72.0
65,13.907317387500001,14.44718768125,70.0,64.0
66,13.907317387500001,14.675635789583334,43.0,67.0
67,14.1659378875,14.677790960416667,50.0,49.0
68,14.424558387500001,14.740290914583333,77.0,70.0
69,14.6831788875,14.7995581125,67.0,44.0
70,14.424558387500001,14.807101210416667,55.0,47.0
71,14.9417993875,15.296324989583335,60.0,59.0
72,14.9417993875,15.323264625,67.0,59.0
73,14.9417993875,15.32649738125,64.0,63.0
74,14.6831788875,15.401928360416667,76.0,66.0
75,15.2004198875,15.6012816625,52.0,61.0
76,14.9417993875,15.619600614583334,48.0,69.0
77,15.4590403875,15.687488495833334,60.0,47.0
78,15.4590403875,15.745678108333333,67.0,59.0
79,15.717660887500001,16.034471,69.0,66.0
80,15.9762813875,16.44503104375,41.0,69.0
81,15.9762813875,16.44503104375,53.0,69.0
82,15.9762813875,16.978435825000002,62.0,51.0
83,15.9762813875,16.984901337500002,65.0,62.0
84,15.9762813875,17.6831766875,70.0,62.0
85,17.5280043875,17.827573133333335,65.0,55.0
86,17.7866248875,18.08080570625,77.0,55.0
87,17.269383887500002,18.615288072916666,62.0,57.0
88,18.0452453875,19.387916816666667,72.0,69.0
89,19.3383478875,19.387916816666667,72.0,46.0
90,19.3383478875,19.573261508333335,84.0,43.0
91,19.596968387500002,19.908390572916666,77.0,63.0
92,19.596968387500002,19.92994228125,89.0,39.0
93,19.8555888875,19.97520086875,79.0,70.0
94,19.8555888875,20.1206749,91.0,64.0
95,20.1142093875,20.276924785416668,79.0,73.0
96,20.2435196375,20.811407152083333,81.0,62.0
97,20.1142093875,20.824338177083334,93.0,69.0
98,20.3728298875,20.830803689583334,65.0,35.0
99,20.6314503875,20.863131252083335,70.0,48.0
100,20.1142093875,20.8642088375,58.0,76.0
101,20.890070887500002,21.034467333333335,72.0,38.0
102,20.760760637500002,21.130372435416668,96.0,62.0
103,21.1486913875,21.977354572916667,94.0,97.0
104,21.9245528875,22.087268285416666,93.0,49.0
105,21.9245528875,22.175630289583335,84.0,58.0
106,22.053863137500002,22.23813024375,91.0,66.0
107,22.183173387500002,22.328647418750002,79.0,58.0
108,22.3124836375,22.566793795833334,81.0,44.0
109,22.9590348875,23.24028468125,67.0,47.0
110,23.217655387500002,23.390069054166666,69.0,41.0
111,22.183173387500002,23.89976695625,93.0,72.0
112,23.7348963875,23.97735310625,77.0,36.0
113,22.7004143875,24.469809641666668,65.0,45.0
114,24.2521373875,24.469809641666668,65.0,60.0
115,22.4417938875,24.477352739583335,60.0,47.0
116,24.2521373875,24.477352739583335,60.0,58.0
117,24.2521373875,24.53338718125,41.0,69.0
118,22.183173387500002,24.548473377083333,53.0,63.0
119,24.510757887500002,24.548473377083333,53.0,60.0
120,24.2521373875,25.099119525000003,69.0,57.0
121,24.2521373875,25.10342986666667,67.0,56.0
122,25.2866193875,25.433171004166667,60.0,73.0
123,25.5452398875,25.71011045625,65.0,72.0
124,25.0279988875,25.82756726666667,57.0,70.0
125,24.7693783875,25.846963804166666,55.0,63.0
126,25.803860387500002,25.8685155125,65.0,37.0
127,25.803860387500002,26.074334327083335,67.0,58.0
128,26.0624808875,26.2823083125,69.0,55.0
129,26.3211013875,26.65407528125,64.0,64.0
130,26.3211013875,26.689635600000003,67.0,69.0
131,26.838342387500003,26.987049175000003,62.0,42.0
132,26.5797218875,27.308169629166667,60.0,51.0
133,27.096962887500002,27.53446256666667,62.0,54.0
134,27.096962887500002,27.573255641666666,67.0,64.0
135,27.096962887500002,27.587264252083333,64.0,70.0
136,27.6142038875,27.899764022916667,60.0,48.0
137,26.3211013875,27.923470902083334,52.0,70.0
138,27.8728243875,27.984893270833336,64.0,69.0
139,27.8728243875,28.058169079166667,62.0,72.0
140,27.8728243875,28.257522381250002,67.0,76.0
141,28.3900653875,28.829720237500002,60.0,67.0
142,28.3900653875,28.93640119375,65.0,73.0
143,28.260755137500002,28.953642560416668,69.0,47.0
144,28.3900653875,29.082952810416668,46.0,76.0
145,28.6486858875,29.11528037291667,53.0,61.0
146,28.9073063875,29.14760793541667,58.0,60.0
147,29.1659268875,29.42239221666667,69.0,64.0
148,29.424547387500002,29.69717649791667,60.0,63.0
149,29.424547387500002,29.752133354166666,67.0,69.0
150,29.424547387500002,29.7607540375,64.0,69.0
151,29.6831678875,30.098038272916668,55.0,49.0
152,29.424547387500002,30.108814127083335,48.0,82.0
153,29.9417883875,30.186400277083333,60.0,52.0
154,30.2004088875,30.383598408333334,67.0,57.0
155,30.459029387500003,30.912692847916666,41.0,72.0
156,30.459029387500003,30.96010660625,60.0,66.0
157,30.717649887500002,30.97950314375,48.0,59.0
158,30.459029387500003,31.26721845,65.0,69.0
159,30.459029387500003,31.28769257291667,69.0,69.0
160,30.9762703875,31.395451114583334,53.0,60.0
161,31.4935113875,31.672390566666667,60.0,61.0
162,31.2348908875,31.89221799166667,55.0,73.0
163,31.752131887500003,32.090493708333334,65.0,64.0
164,32.0107523875,32.338338354166666,72.0,69.0
165,32.269372887500005,33.06570851041667,65.0,69.0
166,32.269372887500005,33.06786368125,62.0,72.0
167,32.269372887500005,33.09480331666667,70.0,64.0
168,33.0452343875,33.61096673125,58.0,78.0
169,33.3038548875,33.8210958875,65.0,73.0
170,33.3038548875,33.826483814583334,62.0,66.0
171,33.3038548875,33.84803552291667,70.0,73.0
172,33.8210958875,34.16053529375,58.0,59.0
173,32.7866138875,34.214414564583336,53.0,67.0
174,32.527993387500004,34.21980249166667,46.0,80.0
175,34.0797163875,34.25967315208334,70.0,70.0
176,34.0797163875,34.260750737500004,65.0,72.0
177,34.0797163875,34.26613866458334,62.0,66.0
178,34.5969573875,34.888983035416665,60.0,67.0
179,34.5969573875,34.96010367291667,64.0,70.0
180,34.5969573875,35.009672602083334,45.0,76.0
181,34.5969573875,35.05277601875,67.0,66.0
182,34.855577887500004,35.14868112083334,57.0,52.0
183,35.114198387500004,35.3857499125,60.0,66.0
184,35.3728188875,35.82863751875,72.0,70.0
185,35.6314393875,35.97303396458334,65.0,73.0
186,35.6314393875,35.99135291666667,69.0,69.0
187,35.8900598875,36.19070621875,57.0,55.0
188,35.6314393875,36.22303378125,50.0,66.0
189,36.1486803875,36.36096471458333,67.0,70.0
190,36.1486803875,36.40514571666667,64.0,70.0
191,36.4073008875,36.54738699166667,69.0,67.0
192,36.6659213875,37.193938241666665,62.0,60.0
193,36.6659213875,37.24673992708333,70.0,78.0
194,36.6659213875,37.248895097916666,65.0,73.0
195,37.183162387500005,37.78984297708333,58.0,76.0
196,37.441782887500004,37.980575595833336,62.0,64.0
197,37.441782887500004,37.99027386458334,65.0,67.0
198,37.441782887500004,38.00967040208334,70.0,72.0
199,36.9245418875,38.19932543541667,53.0,62.0
200,36.6659213875,38.21441163125,46.0,70.0
201,37.9590238875,38.22195472916667,58.0,61.0
202,38.2176443875,38.43423905625,70.0,66.0
203,38.2176443875,38.50967003541667,62.0,66.0
204,38.4762648875,38.59048894166667,72.0,36.0
205,38.7348853875,39.29415221875,45.0,62.0
206,38.7348853875,39.30492807291667,64.0,61.0
207,38.7348853875,39.32755736666667,60.0,57.0
208,38.7348853875,39.34048839166667,69.0,54.0
209,38.7348853875,39.3555745875,57.0,58.0
210,39.769367387500004,40.2995394125,57.0,62.0
211,39.769367387500004,40.33617731666667,60.0,64.0
212,39.769367387500004,40.34587558541667,50.0,55.0
213,39.769367387500004,40.35557385416667,65.0,63.0
214,39.769367387500004,40.360961781250005,69.0,61.0
215,40.8038493875,41.55277125208333,69.0,58.0
216,40.8038493875,41.649753939583334,65.0,61.0
217,40.8038493875,41.652986695833334,62.0,53.0
218,40.8038493875,42.19824491666667,58.0,66.0
219,41.8383313875,42.39867580416667,65.0,70.0
220,41.8383313875,42.41914992708333,62.0,60.0
221,41.8383313875,42.42238268333333,69.0,67.0
222,40.8038493875,42.44177922083333,46.0,72.0
223,42.355572387500004,42.577554983333336,58.0,59.0
224,42.8728133875,43.564623225,60.0,62.0
225,42.8728133875,43.5840197625,64.0,62.0
226,42.8728133875,43.58617493333333,67.0,62.0
227,42.8728133875,44.21009688958333,58.0,66.0
228,43.9072953875,44.42992431458333,64.0,64.0
229,43.9072953875,44.454708779166666,60.0,55.0
230,43.9072953875,44.526907002083334,67.0,66.0
231,44.424536387500005,44.539838027083334,58.0,56.0
232,42.8728133875,44.607725908333336,46.0,66.0
233,44.941777387500004,45.684233739583334,65.0,70.0
234,44.941777387500004,45.732725083333335,62.0,63.0
235,44.941777387500004,45.735957839583335,69.0,63.0
236,45.9762593875,46.540914145833334,65.0,66.0
237,44.941777387500004,46.56138826875,46.0,69.0
238,45.9762593875,46.56138826875,62.0,58.0
239,45.9762593875,46.576474464583335,69.0,62.0
240,44.941777387500004,46.608802027083335,58.0,67.0
241,47.010741387500005,47.77474944791667,65.0,62.0
242,47.010741387500005,47.8124649375,67.0,61.0
243,47.010741387500005,47.84694767083334,72.0,58.0
244,48.0452233875,48.33293869375,62.0,53.0
245,48.3038438875,48.574317827083334,64.0,57.0
246,48.5624643875,48.73811081041667,65.0,62.0
247,48.8210848875,50.56246292083333,67.0,54.0
248,47.010741387500005,50.744574856250004,60.0,50.0
249,49.0797053875,50.74888519791667,79.0,58.0
250,47.010741387500005,50.857721325,48.0,48.0
251,53.270974175,54.005964518750005,67.0,58.0
252,53.270974175,54.01027486041667,65.0,60.0
253,53.270974175,54.01889554375,60.0,58.0
254,53.270974175,54.04368000833333,69.0,57.0
255,53.270974175,54.05768861875,72.0,58.0
256,53.270974175,54.71501572291667,53.0,59.0
257,54.3260073875,54.90036041458333,60.0,57.0
258,54.3260073875,54.92298970833333,65.0,60.0
259,54.3260073875,54.9337655625,67.0,56.0
260,54.3260073875,54.9337655625,72.0,48.0
261,54.3260073875,54.940231075,69.0,53.0
262,53.270974175,55.016739639583335,41.0,61.0
263,54.843248387500005,55.438075537500005,53.0,61.0
264,55.3604893875,55.99303202708334,62.0,59.0
265,55.3604893875,56.02104924791667,65.0,66.0
266,55.3604893875,56.02859234583334,70.0,63.0
267,56.1363508875,56.45100582916667,62.0,41.0
268,56.3949713875,56.77428145416667,65.0,60.0
269,56.3949713875,56.78074696666667,70.0,72.0
270,55.3604893875,57.03182436875,46.0,76.0
271,56.6535918875,57.04583297916667,62.0,50.0
272,56.912212387500006,57.16544496041667,65.0,63.0
273,57.170832887500005,57.33031552916667,67.0,52.0
274,57.429453387500004,58.18915110625,64.0,64.0
275,57.429453387500004,58.19669420416667,60.0,60.0
276,57.429453387500004,58.223633839583336,67.0,64.0
277,58.2053148875,58.662211104166666,55.0,39.0
278,58.4639353875,59.11479697916667,64.0,72.0
279,58.4639353875,59.12126249166667,60.0,67.0
280,58.4639353875,59.13203834583334,67.0,64.0
281,58.9811763875,59.14173661458334,55.0,49.0
282,57.429453387500004,59.20854691041667,48.0,67.0
283,59.4984173875,60.27751164375,60.0,64.0
284,59.4984173875,60.28613232708334,65.0,66.0
285,59.4984173875,60.296908181250004,67.0,62.0
286,59.4984173875,60.303373693750004,69.0,62.0
287,60.5328993875,61.06738175416667,60.0,64.0
288,60.5328993875,61.07708002291667,65.0,63.0
289,60.5328993875,61.078157608333335,69.0,60.0
290,60.5328993875,61.08354553541667,67.0,63.0
291,59.4984173875,61.211778200000005,53.0,72.0
292,61.0501403875,61.621260658333334,52.0,62.0
293,61.5673813875,62.254880883333335,65.0,66.0
294,61.5673813875,62.25703605416667,62.0,62.0
295,61.5673813875,62.28613086041667,69.0,63.0
296,62.6018633875,63.17944917083334,69.0,64.0
297,62.6018633875,63.203156050000004,62.0,64.0
298,61.5673813875,63.21069914791667,50.0,69.0
299,62.6018633875,63.21069914791667,65.0,72.0
300,63.6363453875,64.20207773125,60.0,70.0
301,63.6363453875,64.3863448375,67.0,72.0
302,63.6363453875,64.40897413125,64.0,70.0
303,63.765655637500004,65.04043918541667,48.0,50.0
304,64.6708273875,65.15681841041666,60.0,66.0
305,64.6708273875,65.24410282916666,64.0,64.0
306,64.6708273875,65.33138724791667,67.0,64.0
307,65.18806838750001,65.36479239583333,48.0,67.0
308,65.7053093875,66.36263649166666,69.0,67.0
309,65.7053093875,66.43483471458333,65.0,73.0
310,65.7053093875,66.45315366666667,62.0,64.0
311,65.7053093875,67.03936013333333,58.0,73.0
312,65.7053093875,67.315222,46.0,72.0
313,66.7397913875,67.34323922083334,65.0,70.0
314,66.7397913875,67.34431680625,62.0,64.0
315,66.7397913875,67.35078231875,69.0,70.0
316,67.2570323875,67.40358400416667,58.0,62.0
317,67.7742733875,68.01457493541668,60.0,62.0
318,67.7742733875,68.14496277083333,67.0,64.0
319,67.7742733875,68.23547994583333,65.0,64.0
320,67.7742733875,68.28181611875,72.0,60.0
321,68.55013488750001,68.86802258541667,65.0,64.0
322,68.8087553875,68.92082427083334,67.0,67.0
323,68.0328938875,69.29905675208333,55.0,67.0
324,69.0673758875,69.30983260625,72.0,67.0
325,69.3259963875,69.52211693333334,77.0,63.0
326,68.2915143875,69.57384103333334,60.0,61.0
327,67.7742733875,69.61802203541667,48.0,75.0
328,69.5846168875,69.77965984791666,55.0,49.0
329,69.5846168875,69.82815119166666,79.0,58.0
330,69.8432373875,70.24625433333334,72.0,62.0
331,69.8432373875,70.26996121250001,84.0,58.0
332,69.8432373875,70.30659911666666,77.0,64.0
333,70.6190988875,71.07922786041667,67.0,76.0
334,70.1018578875,71.19237432916667,60.0,55.0
335,70.3604783875,71.24948635625,65.0,64.0
336,69.8432373875,71.51349478333333,53.0,73.0
337,71.3949603875,71.5372016625,60.0,61.0
338,71.1363398875,71.56629646875001,69.0,75.0
339,71.6535808875,71.75164116041667,65.0,37.0
340,71.6535808875,71.80659801666667,67.0,28.0
341,71.9122013875,72.23008908541667,70.0,67.0
342,72.4294423875,72.82814899166667,58.0,48.0
343,72.6880628875,72.84108001666667,62.0,67.0
344,72.6880628875,73.08461432083334,69.0,75.0
345,72.9466833875,73.21715732708333,58.0,43.0
346,72.17082188750001,73.43482958125,53.0,55.0
347,73.4639243875,73.55767431875,53.0,60.0
348,73.20530388750001,73.56413983125,67.0,70.0
349,73.20530388750001,73.56629500208334,60.0,64.0
350,71.9122013875,73.59107946666667,46.0,67.0
351,73.4639243875,73.59538980833334,58.0,70.0
352,73.7225448875,73.99948433958333,65.0,72.0
353,73.9811653875,74.53827704791667,64.0,73.0
354,73.9811653875,74.54474256041667,60.0,72.0
355,73.9811653875,74.54905290208333,55.0,66.0
356,73.9811653875,74.569527025,48.0,72.0
357,73.9811653875,74.59754424583333,67.0,72.0
358,75.0156473875,75.62340556250001,70.0,66.0
359,75.0156473875,75.64711244166666,58.0,61.0
360,75.0156473875,75.64711244166666,62.0,62.0
361,75.0156473875,75.66004346666666,65.0,66.0
362,75.0156473875,75.69560378541667,46.0,69.0
363,76.05012938750001,76.64280136666667,57.0,62.0
364,76.05012938750001,76.67836168541666,64.0,70.0
365,76.05012938750001,76.73870646875,67.0,64.0
366,76.05012938750001,76.74624956666668,60.0,66.0
367,76.8259908875,77.40249908541666,57.0,37.0
368,76.05012938750001,77.68482646458334,45.0,72.0
369,77.0846113875,77.69667990416667,64.0,76.0
370,77.0846113875,77.70314541666667,60.0,66.0
371,77.0846113875,77.7053005875,67.0,70.0
372,77.6018523875,77.78935225000001,57.0,58.0
373,78.1190933875,78.75055844166667,67.0,63.0
374,78.1190933875,78.8496963,65.0,69.0
375,78.1190933875,78.85508422708334,60.0,64.0
376,78.1190933875,78.85723939791667,69.0,67.0
377,78.1190933875,79.55766991875001,45.0,75.0
378,79.1535753875,79.75379046458333,60.0,70.0
379,79.1535753875,79.76241114791667,65.0,76.0
380,79.1535753875,79.79689388125,69.0,76.0
381,79.6708163875,79.90034208125,45.0,72.0
382,80.18805738750001,80.89603100625,60.0,69.0
383,80.18805738750001,80.92835856875,64.0,70.0
384,80.18805738750001,80.93590166666667,69.0,70.0
385,80.18805738750001,81.40572890833334,57.0,67.0
386,81.2225393875,81.74947865625,60.0,73.0
387,81.2225393875,81.7656424375,64.0,76.0
388,81.2225393875,81.77965104791667,69.0,70.0
389,80.18805738750001,81.79689241458334,45.0,61.0
390,81.7397803875,81.84430617291667,57.0,55.0
391,82.2570213875,82.88525368541667,65.0,78.0
392,82.2570213875,82.8906416125,46.0,88.0
393,82.2570213875,82.89387436875,58.0,73.0
394,82.2570213875,82.89818471041667,62.0,69.0
395,82.2570213875,82.97900361666667,70.0,78.0
396,83.8087443875,83.89279605,58.0,69.0
397,83.8087443875,83.89495122083333,46.0,76.0
398,83.5501238875,83.89495122083333,62.0,67.0
399,83.5501238875,83.89495122083333,70.0,69.0
400,83.5501238875,83.8992615625,65.0,72.0
401,84.3259853875,84.61154552291667,60.0,76.0
402,84.3259853875,84.66326962291667,64.0,72.0
403,84.3259853875,84.68374374583334,67.0,75.0
404,84.3259853875,84.83352811875,72.0,61.0
405,85.1018468875,85.42620009791668,65.0,69.0
406,85.3604673875,85.50594141875,67.0,72.0
407,84.5846058875,85.88956182708333,55.0,55.0
408,84.3259853875,85.89279458333334,48.0,75.0
409,84.84322638750001,85.91326870625,60.0,67.0
410,100.9637833875,101.61141222291667,72.0,66.0
411,100.9637833875,101.6361966875,69.0,56.0
412,100.9637833875,101.72240352083334,77.0,62.0
413,100.9637833875,102.48641158125,65.0,55.0
414,100.9637833875,102.55214429166666,53.0,57.0
415,100.9637833875,102.59524770833333,60.0,63.0
416,101.9982653875,102.60925631875,72.0,69.0
417,101.9982653875,102.61572183125,69.0,58.0
418,101.9982653875,102.65882524791667,77.0,70.0
419,103.0327473875,103.6534365875,76.0,63.0
420,103.0327473875,103.77520373958333,72.0,64.0
421,103.0327473875,103.80429854583333,67.0,61.0
422,104.06722938749999,104.4163670625,76.0,66.0
423,104.06722938749999,104.43037567291667,72.0,73.0
424,103.0327473875,104.4680911625,64.0,58.0
425,104.06722938749999,104.47240150416667,67.0,64.0
426,103.0327473875,104.6491255125,52.0,63.0
427,105.1017113875,105.66636614583334,46.0,66.0
428,105.1017113875,105.70300405,58.0,58.0
429,105.1017113875,105.74071953958334,65.0,69.0
430,105.1017113875,105.75796090625,69.0,67.0
431,105.1017113875,105.77089193124999,62.0,64.0
432,106.1361933875,106.67714126666667,60.0,56.0
433,106.1361933875,106.72563261041667,72.0,66.0
434,106.1361933875,106.73964122083333,67.0,63.0
435,106.1361933875,106.74179639166667,48.0,56.0
436,106.1361933875,106.7439515625,64.0,64.0
437,107.1706753875,107.65989916666666,69.0,63.0
438,107.1706753875,107.69653707083333,60.0,63.0
439,107.1706753875,107.72347670625,65.0,64.0
440,108.2051573875,108.43468308125,65.0,53.0
441,108.2051573875,108.47132098541667,60.0,61.0
442,108.2051573875,108.48101925416667,70.0,70.0
443,107.1706753875,108.76981214583333,41.0,59.0
444,107.6879163875,108.81076039166666,53.0,39.0
445,108.7223983875,108.85925173541666,65.0,59.0
446,108.7223983875,108.87541551666666,60.0,64.0
447,108.7223983875,108.91851893333333,69.0,64.0
448,109.2396393875,109.89804407708333,62.0,66.0
449,109.2396393875,109.94114749375,65.0,70.0
450,109.2396393875,109.95300093333333,70.0,67.0
451,109.2396393875,110.54244015625,58.0,67.0
452,110.2741213875,110.84739682916667,70.0,73.0
453,110.2741213875,110.85170717083334,65.0,76.0
454,110.2741213875,110.89157783125,62.0,66.0
455,109.2396393875,110.90450885625,46.0,73.0
456,110.7913623875,110.94114676041667,58.0,75.0
457,111.3086033875,111.86140470625,64.0,69.0
458,111.3086033875,111.89157709791667,60.0,64.0
459,111.3086033875,111.90127536666667,45.0,67.0
460,111.3086033875,111.95084429583333,57.0,62.0
461,111.3086033875,111.95730980833333,67.0,70.0
462,112.3430853875,112.95623148958333,69.0,69.0
463,112.3430853875,112.96592975833333,50.0,67.0
464,112.3430853875,113.00687800416667,62.0,63.0
465,112.3430853875,113.0154986875,65.0,69.0
466,113.3775673875,114.26765294166667,62.0,64.0
467,113.3775673875,114.26765294166667,65.0,73.0
468,113.3775673875,114.276273625,70.0,72.0
469,113.3775673875,114.75364396458333,58.0,75.0
470,114.41204938749999,115.000411025,62.0,66.0
471,114.41204938749999,115.00472136666667,65.0,75.0
472,114.41204938749999,115.02304031874999,70.0,75.0
473,113.3775673875,115.06614373541666,46.0,72.0
474,114.9292903875,115.08338510208333,58.0,63.0
475,115.4465313875,116.00579821875,45.0,62.0
476,115.4465313875,116.01657407291667,64.0,61.0
477,115.4465313875,116.03920336666667,60.0,57.0
478,115.4465313875,116.05213439166667,69.0,54.0
479,115.4465313875,116.0672205875,57.0,58.0
480,116.4810133875,117.0111854125,57.0,62.0
481,116.4810133875,117.04782331666667,60.0,64.0
482,116.4810133875,117.05752158541667,50.0,55.0
483,116.4810133875,117.06721985416667,65.0,63.0
484,116.4810133875,117.07260778125,69.0,61.0
485,117.5154953875,118.26441725208333,69.0,58.0
486,117.5154953875,118.36139993958334,65.0,61.0
487,117.5154953875,118.36463269583334,62.0,53.0
488,117.5154953875,118.90989091666667,58.0,66.0
489,118.54997738750001,119.11032180416666,65.0,70.0
490,118.54997738750001,119.13079592708334,62.0,60.0
491,118.54997738750001,119.13402868333333,69.0,67.0
492,117.5154953875,119.15342522083333,46.0,72.0
493,119.06721838749999,119.28920098333333,58.0,59.0
494,119.5844593875,120.276269225,60.0,62.0
495,119.5844593875,120.2956657625,64.0,62.0
496,119.5844593875,120.29782093333333,67.0,62.0
497,119.5844593875,120.92174288958333,58.0,66.0
498,120.6189413875,121.14157031458333,64.0,64.0
499,120.6189413875,121.16635477916667,60.0,55.0
500,120.6189413875,121.23855300208334,67.0,66.0
501,121.1361823875,121.25148402708334,58.0,56.0
502,119.5844593875,121.31937190833334,46.0,66.0
503,121.6534233875,122.39587973958334,65.0,70.0
504,121.6534233875,122.44437108333334,62.0,63.0
505,121.6534233875,122.44760383958334,69.0,63.0
506,122.6879053875,123.25256014583333,65.0,66.0
507,121.6534233875,123.27303426875,46.0,69.0
508,122.6879053875,123.27303426875,62.0,58.0
509,122.6879053875,123.28812046458333,69.0,62.0
510,121.6534233875,123.32044802708333,58.0,67.0
511,123.72238738749999,123.99717166875,36.0,70.0
512,123.9810078875,124.29458524374999,48.0,63.0
513,123.72238738749999,124.68790392083334,60.0,70.0
514,123.72238738749999,124.81613658541667,64.0,75.0
515,123.72238738749999,124.82799002499999,67.0,75.0
516,124.2396283875,125.14156738125,52.0,64.0
517,125.0154898875,125.17928287083333,60.0,97.0
518,124.7568693875,125.2223862875,55.0,75.0
519,124.4982488875,125.22669662916667,53.0,82.0
520,125.2741103875,125.61247220833333,65.0,95.0
521,125.53273088750001,125.72346350625,67.0,82.0
522,125.7913513875,126.13079079375,72.0,80.0
523,125.7913513875,126.16204077083333,64.0,80.0
524,125.7913513875,126.17820455208333,67.0,78.0
525,126.3085923875,126.431437125,70.0,93.0
526,126.3085923875,126.45837676041667,65.0,82.0
527,126.04997188749999,126.953713075,55.0,73.0
528,126.5672128875,126.96588118333334,65.0,95.0
529,126.5672128875,126.99796074166666,69.0,95.0
530,126.8258333875,127.10304895,60.0,72.0
531,125.7913513875,127.42163215,48.0,82.0
532,127.08977465,127.444862175,64.0,93.0
533,127.08977465,127.46366743333333,67.0,99.0
534,127.35526065,127.471410775,55.0,69.0
535,127.62074665,127.856365475,65.0,82.0
536,127.75348965,127.89950695,67.0,60.0
537,127.88623265,127.89950695,67.0,58.0
538,127.88623265,127.982471325,69.0,57.0
539,127.88623265,127.982471325,69.0,76.0
540,127.88623265,128.62025786041664,65.0,60.0
541,127.88623265,128.62887854374998,60.0,58.0
542,127.88623265,128.66767161874998,72.0,58.0
543,127.88623265,129.32499872291666,53.0,59.0
544,128.9359903875,129.51034341458333,60.0,57.0
545,128.9359903875,129.53297270833332,65.0,60.0
546,128.9359903875,129.54374856249999,67.0,56.0
547,128.9359903875,129.54374856249999,72.0,48.0
548,128.9359903875,129.55021407499999,69.0,53.0
549,127.88623265,129.62672263958333,41.0,61.0
550,129.45323138749998,130.0480585375,53.0,61.0
551,129.9704723875,130.60301502708333,62.0,59.0
552,129.9704723875,130.63103224791666,65.0,66.0
553,129.9704723875,130.63857534583332,70.0,63.0
554,130.7463338875,131.06098882916666,62.0,41.0
555,131.0049543875,131.38426445416664,65.0,60.0
556,131.0049543875,131.39072996666664,70.0,72.0
557,129.9704723875,131.64288490624998,46.0,76.0
558,131.2635748875,131.6571392708333,62.0,50.0
559,131.52219538749998,131.77884961458332,65.0,63.0
560,131.78433206249997,131.9466125208333,67.0,52.0
561,132.04748956249998,132.81728210624996,64.0,64.0
562,132.04748956249998,132.82482520416664,60.0,60.0
563,132.04748956249998,132.8517648395833,67.0,64.0
564,132.83344588749998,133.29034210416663,55.0,39.0
565,133.09206638749998,133.74292797916664,64.0,72.0
566,133.09206638749998,133.74939349166664,60.0,67.0
567,133.09206638749998,133.7601693458333,67.0,64.0
568,133.60930738749997,133.76986761458332,55.0,49.0
569,132.04748956249998,133.83667791041663,48.0,67.0
570,134.12654838749998,134.90564264374999,60.0,64.0
571,134.12654838749998,134.91426332708332,65.0,66.0
572,134.12654838749998,134.92503918124999,67.0,62.0
573,134.12654838749998,134.93150469375,69.0,62.0
574,135.16103038749998,135.69551275416663,60.0,64.0
575,135.16103038749998,135.70521102291664,65.0,63.0
576,135.16103038749998,135.7062886083333,69.0,60.0
577,135.16103038749998,135.71167653541664,67.0,63.0
578,134.12654838749998,135.83990919999997,53.0,72.0
579,135.67827138749996,136.2493916583333,52.0,62.0
580,136.19551238749997,136.88398644999995,65.0,66.0
581,136.19551238749997,136.88616036249996,62.0,62.0
582,136.19551238749997,136.91550818124995,69.0,63.0
583,137.23398636249996,137.8165761708333,69.0,64.0
584,137.23398636249996,137.84028304999995,62.0,64.0
585,136.19551238749997,137.8478261479166,50.0,69.0
586,137.23398636249996,137.8478261479166,65.0,72.0
587,138.27347238749996,138.83920473124996,60.0,70.0
588,138.27347238749996,139.02347183749995,67.0,72.0
589,138.27347238749996,139.04610113124994,64.0,70.0
590,138.27347238749996,139.54825593541662,48.0,50.0
591,139.30795438749996,139.79394541041663,60.0,66.0
592,139.30795438749996,139.8812298291666,64.0,64.0
593,139.30795438749996,139.96851424791663,67.0,64.0
594,139.82519538749995,140.00191939583328,48.0,67.0
595,140.34243638749996,140.9997634916666,69.0,67.0
596,140.34243638749996,141.0719617145833,65.0,73.0
597,140.34243638749996,141.09028066666662,62.0,64.0
598,140.34243638749996,141.6764871333333,58.0,73.0
599,140.34243638749996,141.95234899999994,46.0,72.0
600,141.37691838749996,141.98036622083328,65.0,70.0
601,141.37691838749996,141.98144380624996,62.0,64.0
602,141.37691838749996,141.98790931874996,69.0,70.0
603,141.89415938749994,142.0407110041666,58.0,62.0
604,142.41140038749995,142.6517019354166,60.0,62.0
605,142.41140038749995,142.7820897708333,67.0,64.0
606,142.41140038749995,142.8726069458333,65.0,64.0
607,142.41140038749995,142.91894311874995,72.0,60.0
608,143.18726188749994,143.50514958541663,65.0,64.0
609,143.44588238749995,143.55795127083329,67.0,67.0
610,142.67002088749996,143.93618375208328,55.0,67.0
611,143.70450288749996,143.94695960624995,72.0,67.0
612,143.96312338749996,144.1592439333333,77.0,63.0
613,142.92864138749997,144.21096803333327,60.0,61.0
614,142.41140038749995,144.25514903541662,48.0,75.0
615,144.22174388749994,144.41678684791663,55.0,49.0
616,144.22174388749994,144.4652781916666,79.0,58.0
617,144.48036438749995,144.8833813333333,72.0,62.0
618,144.48036438749995,144.90708821249996,84.0,58.0
619,144.48036438749995,144.94372611666662,77.0,64.0
620,145.25622588749997,145.71635486041663,67.0,76.0
621,144.73898488749995,145.82950132916662,60.0,55.0
622,144.99760538749996,145.88661335624994,65.0,64.0
623,144.48036438749995,146.1506217833333,53.0,73.0
624,146.03208738749996,146.17432866249996,60.0,61.0
625,145.77346688749995,146.20342346874995,69.0,75.0
626,146.29070788749996,146.38876816041662,65.0,37.0
627,146.42001813749997,146.5730352666666,67.0,28.0
628,146.54932838749994,146.86721608541663,70.0,67.0
629,147.06656938749995,147.46527599166663,58.0,48.0
630,147.32518988749996,147.47820701666663,62.0,67.0
631,147.32518988749996,147.72174132083327,69.0,75.0
632,147.58381038749997,147.8542843270833,58.0,43.0
633,146.80794888749995,148.07195658124996,53.0,55.0
634,148.10105138749995,148.19480131874997,53.0,60.0
635,147.84243088749994,148.20126683124994,67.0,70.0
636,147.84243088749994,148.2034220020833,60.0,64.0
637,146.54932838749994,148.22820646666662,46.0,67.0
638,148.10105138749995,148.2325168083333,58.0,70.0
639,148.35967188749996,148.63661133958328,65.0,72.0
640,148.61829238749996,149.17540404791663,64.0,73.0
641,148.61829238749996,149.18186956041663,60.0,72.0
642,148.61829238749996,149.1861799020833,55.0,66.0
643,148.61829238749996,149.20665402499995,48.0,72.0
644,148.61829238749996,149.23467124583328,67.0,72.0
645,149.65277438749996,150.26053256249995,70.0,66.0
646,149.65277438749996,150.2842394416666,58.0,61.0
647,149.65277438749996,150.2842394416666,62.0,62.0
648,149.65277438749996,150.2971704666666,65.0,66.0
649,149.65277438749996,150.33273078541663,46.0,69.0
650,150.68725638749996,151.28007829999996,57.0,62.0
651,150.68725638749996,151.31594785624995,64.0,70.0
652,150.68725638749996,151.37681740624996,67.0,64.0
653,150.68725638749996,151.38442609999996,60.0,66.0
654,151.46486086249993,152.04638245624994,57.0,37.0
655,150.68725638749996,152.33116499374995,45.0,72.0
656,151.72573036249995,152.34312151249995,64.0,76.0
657,151.72573036249995,152.34964324999993,60.0,66.0
658,151.72573036249995,152.35181716249994,67.0,70.0
659,152.24746936249994,152.43659974999994,57.0,58.0
660,152.76920836249994,153.4056774416666,67.0,63.0
661,152.76920836249994,153.50481529999993,65.0,69.0
662,152.76920836249994,153.51020322708325,60.0,64.0
663,152.76920836249994,153.51235839791659,69.0,67.0
664,152.76920836249994,154.21278891874994,45.0,75.0
665,153.80869438749994,154.40890946458327,60.0,70.0
666,153.80869438749994,154.4175301479166,65.0,76.0
667,153.80869438749994,154.45201288124994,69.0,76.0
668,154.32593538749992,154.55546108124992,45.0,72.0
669,154.84317638749994,155.56254921874995,60.0,69.0
670,154.84317638749994,155.59544390624993,64.0,70.0
671,154.84317638749994,155.60311933333327,69.0,70.0
672,154.84317638749994,156.08118879166662,57.0,67.0
673,155.89478556249995,156.43096896874994,60.0,73.0
674,155.89478556249995,156.44741631249994,64.0,76.0
675,155.89478556249995,156.46167067708328,69.0,70.0
676,154.84317638749994,156.4792145104166,45.0,61.0
677,156.42110056249993,156.52746005208328,57.0,55.0
678,156.94741556249994,157.7053546666666,70.0,70.0
679,156.94741556249994,157.7473804979166,62.0,63.0
680,156.94741556249994,157.7538460104166,65.0,67.0
681,156.94741556249994,158.3066473291666,58.0,70.0
682,156.94741556249994,158.66332810208328,46.0,70.0
683,157.99199238749995,158.69888842083327,65.0,70.0
684,157.99199238749995,158.7139746166666,70.0,70.0
685,158.50923338749993,158.8659141604166,58.0,62.0
686,157.99199238749995,158.8756124291666,62.0,59.0
687,159.02647438749995,159.7418623979166,72.0,66.0
688,159.02647438749995,159.75788805416659,67.0,66.0
689,159.02647438749995,159.76002480833327,65.0,66.0
690,159.67241788749993,160.37861513958327,60.0,51.0
691,160.05703363749993,160.66310731874992,65.0,69.0
692,160.56985463749993,160.70405556458326,60.0,52.0
693,160.05703363749993,160.71806417499994,67.0,67.0
694,159.02647438749995,160.75362449374992,48.0,75.0
695,160.05703363749993,160.96590882083328,72.0,63.0
696,161.08659838749995,161.8538392041666,65.0,67.0
697,161.08659838749995,161.85814954583327,60.0,62.0
698,161.08659838749995,161.87754608333327,69.0,64.0
699,161.86245988749994,162.2773302729166,53.0,35.0
700,162.12108038749994,162.68034721874994,60.0,59.0
701,162.12108038749994,162.84090744583327,67.0,67.0
702,161.08659838749995,163.01655386874992,41.0,63.0
703,162.63832138749993,163.17495892499994,53.0,47.0
704,162.89694188749993,163.4669845729166,60.0,63.0
705,162.89694188749993,163.48207076874994,65.0,64.0
706,163.67280338749993,164.0650444791666,60.0,59.0
707,163.93142388749993,164.29349258749994,65.0,69.0
708,164.19004438749994,164.51870793958327,67.0,72.0
709,164.44866488749994,164.58228547916661,69.0,72.0
710,163.41418288749995,164.88724215208327,53.0,66.0
711,164.70728538749992,165.12431094374995,70.0,48.0
712,164.96590588749993,165.17387987291661,72.0,48.0
713,163.15556238749994,165.38293144374992,41.0,62.0
714,165.22452638749994,165.6038364541666,62.0,72.0
715,165.22452638749994,165.6038364541666,69.0,73.0
716,165.22452638749994,165.6232329916666,65.0,78.0
717,165.74176738749995,166.1016809166666,62.0,54.0
718,165.74176738749995,166.1178446979166,65.0,50.0
719,165.74176738749995,166.13939640624994,69.0,53.0
720,166.25900838749993,166.59737020833327,69.0,62.0
721,166.25900838749993,166.60491330624993,62.0,67.0
722,166.25900838749993,166.61353398958326,65.0,67.0
723,166.00038788749993,166.8937061979166,58.0,30.0
724,165.22452638749994,166.92818893124993,46.0,88.0
725,166.77624938749994,167.06611986458327,65.0,67.0
726,166.77624938749994,167.0779733041666,62.0,64.0
727,167.03486988749992,167.1975852854166,58.0,62.0
728,166.77624938749994,167.23745594583326,69.0,69.0
729,167.03486988749992,167.34090414583326,46.0,75.0
730,167.29349038749993,167.63616254999994,60.0,76.0
731,167.29349038749993,167.65879184374992,67.0,70.0
732,167.29349038749993,167.6598694291666,64.0,70.0
733,167.81073138749994,168.14909320833328,60.0,69.0
734,167.81073138749994,168.16848974583326,64.0,70.0
735,167.81073138749994,168.17172250208327,67.0,69.0
736,167.29349038749993,168.51439466458328,48.0,73.0
737,168.32797238749993,168.66525662291662,67.0,66.0
738,168.32797238749993,168.6814204041666,64.0,70.0
739,168.32797238749993,168.68573074583327,60.0,69.0
740,168.58659288749993,168.9271098791666,48.0,66.0
741,168.84521338749994,169.11676491249995,64.0,76.0
742,168.84521338749994,169.11892008333328,60.0,75.0
743,168.84521338749994,169.3247388979166,67.0,73.0
744,169.10383388749995,169.3441354354166,48.0,59.0
745,169.36245438749992,169.65232486458328,60.0,75.0
746,169.36245438749992,169.67603174374995,69.0,75.0
747,169.36245438749992,169.68249725624995,65.0,75.0
748,169.36245438749992,169.8581436791666,53.0,70.0
749,169.36245438749992,170.18896240208326,41.0,55.0
750,169.87969538749994,170.19650549999994,60.0,62.0
751,169.87969538749994,170.2072813541666,65.0,66.0
752,170.13831588749994,170.27624682083328,53.0,52.0
753,169.87969538749994,170.44542773124994,69.0,63.0
754,170.39693638749995,170.71697925624994,60.0,72.0
755,170.39693638749995,170.7471516479166,64.0,75.0
756,170.39693638749995,170.7665481854166,67.0,73.0
757,170.65555688749993,170.98422043958328,52.0,54.0
758,170.91417738749993,171.1771082291666,64.0,72.0
759,170.91417738749993,171.26008230624993,60.0,66.0
760,170.39693638749995,171.2870219416666,40.0,78.0
761,171.17279788749994,171.3096512354166,52.0,63.0
762,170.91417738749993,171.33443569999994,67.0,69.0
763,171.43141838749995,171.69219405833326,38.0,76.0
764,171.43141838749995,171.7719353791666,60.0,70.0
765,171.43141838749995,171.8527542854166,65.0,73.0
766,171.43141838749995,171.8592197979166,69.0,67.0
767,171.69003888749992,172.01870243958328,50.0,57.0
768,171.94865938749993,172.11352995624995,60.0,53.0
769,171.94865938749993,172.18680576458326,67.0,64.0
770,172.20727988749994,172.31719359999994,60.0,61.0
771,172.20727988749994,172.34305564999994,65.0,69.0
772,172.20727988749994,172.4669779729166,69.0,76.0
773,172.20727988749994,172.77301223124994,53.0,70.0
774,171.94865938749993,172.91740867708327,52.0,67.0
775,172.72452088749995,173.0618051229166,65.0,97.0
776,172.72452088749995,173.0618051229166,72.0,88.0
777,172.98314138749993,173.07689131874994,53.0,66.0
778,172.98314138749993,173.08982234374994,52.0,56.0
779,173.24176188749993,173.40016694374992,67.0,44.0
780,173.50038238749994,174.04995094999992,62.0,55.0
781,173.50038238749994,174.07581299999993,65.0,61.0
782,173.50038238749994,174.11352848958327,70.0,85.0
783,174.01762338749992,174.46482133541662,58.0,88.0
784,174.27624388749993,174.83120037708326,70.0,73.0
785,174.27624388749993,174.83766588958326,65.0,76.0
786,174.27624388749993,174.85706242708326,62.0,69.0
787,174.79348488749994,175.07473468124994,58.0,67.0
788,173.75900288749995,175.1598639291666,53.0,63.0
789,175.05210538749995,175.27839832499993,62.0,67.0
790,175.05210538749995,175.30426037499993,70.0,75.0
791,175.05210538749995,175.31395864374994,65.0,75.0
792,173.50038238749994,175.35813964583326,46.0,80.0
793,175.31072588749993,175.4863723104166,58.0,76.0
794,175.56934638749993,175.91094096458326,60.0,82.0
795,175.56934638749993,175.92710474583328,64.0,75.0
796,175.56934638749993,175.92710474583328,67.0,73.0
797,176.08658738749995,176.28486310416662,60.0,78.0
798,176.21589763749995,176.3171906666666,64.0,72.0
799,176.47451813749993,176.60275080208328,72.0,82.0
800,176.54779394583326,176.63184560833326,76.0,64.0
801,176.6533973166666,176.6921903916666,79.0,44.0
802,176.73313863749993,176.8861557666666,84.0,67.0
803,176.81072478749994,176.9411126229166,88.0,56.0
804,176.88831093749994,176.96481950208326,89.0,56.0
805,175.82796688749994,177.0057677479166,58.0,75.0
806,176.94003503749994,177.0574918479166,91.0,49.0
807,176.99175913749994,177.0704228729166,96.0,95.0
808,177.12106938749994,177.2805520291666,58.0,82.0
809,175.56934638749993,177.3355088854166,46.0,80.0
810,177.63831038749993,178.05318077291662,58.0,85.0
811,177.63831038749993,178.23529270833328,62.0,67.0
812,177.63831038749993,178.25145648958326,65.0,76.0
813,177.63831038749993,178.25899958749994,70.0,75.0
814,178.41417188749995,178.58874072499992,62.0,55.0
815,178.41417188749995,178.6189131166666,70.0,57.0
816,178.15555138749994,178.87537844583326,58.0,57.0
817,178.67279238749992,179.09520587083327,62.0,69.0
818,178.67279238749992,179.16955926458326,65.0,76.0
819,178.67279238749992,179.19649889999994,70.0,73.0
820,179.06072313749993,179.3656798104166,58.0,69.0
821,177.63831038749993,179.55102450208327,46.0,76.0
822,179.44865388749994,179.60598135833328,62.0,56.0
823,179.70727438749992,179.99822244999993,62.0,76.0
824,179.70727438749992,180.0025327916666,43.0,73.0
825,179.70727438749992,180.00684313333326,55.0,72.0
826,179.70727438749992,180.02085174374994,67.0,80.0
827,180.09520513749993,180.36029114999994,65.0,76.0
828,180.35382563749994,180.36029114999994,65.0,67.0
829,180.09520513749993,180.36891183333327,69.0,72.0
830,180.09520513749993,180.46373934999994,45.0,78.0
831,180.35382563749994,180.5553341104166,70.0,82.0
832,180.35382563749994,180.6296875041666,46.0,93.0
833,180.74175638749995,181.2593751354166,64.0,69.0
834,180.74175638749995,181.2692435416666,48.0,78.0
835,180.74175638749995,181.2692435416666,67.0,85.0
836,180.74175638749995,181.27691896874995,72.0,80.0
837,181.79336556249996,182.12560190624995,69.0,72.0
838,181.79336556249996,182.14424222916662,60.0,69.0
839,181.79336556249996,182.15520712499995,65.0,69.0
840,181.79336556249996,182.19139128124993,53.0,60.0
841,181.79336556249996,182.23963682291662,41.0,70.0
842,182.57932188749996,182.9273819770833,65.0,63.0
843,182.57932188749996,182.95755436874995,43.0,69.0
844,182.57932188749996,182.96186471041662,62.0,67.0
845,182.57932188749996,182.97587332083327,55.0,75.0
846,182.57932188749996,183.00927846874995,70.0,76.0
847,183.09656288749994,183.29914894583328,45.0,72.0
848,183.09656288749994,183.31100238541663,57.0,78.0
849,183.09656288749994,183.32501099583328,72.0,80.0
850,183.09656288749994,183.33147650833328,65.0,85.0
851,183.61380388749996,184.2064758666666,58.0,85.0
852,183.61380388749996,184.33147577499994,62.0,75.0
853,183.61380388749996,184.38427746041663,70.0,76.0
854,183.61380388749996,184.53048218749996,65.0,80.0
855,184.64488906249994,184.9764571354166,58.0,67.0
856,184.89912656249996,185.2020929166666,62.0,70.0
857,184.89912656249996,185.24764380208327,65.0,78.0
858,184.89912656249996,185.27942348958328,70.0,64.0
859,185.15336406249995,185.47558085416662,58.0,99.0
860,183.61380388749996,185.48312395208328,46.0,73.0
861,185.40760156249993,185.5833393958333,70.0,52.0
862,185.40760156249993,185.6479945208333,62.0,73.0
863,185.66523588749996,185.9130805333333,65.0,63.0
864,185.79454613749996,185.9421753395833,67.0,69.0
865,185.92385638749997,185.9421753395833,67.0,78.0
866,185.92385638749997,186.34842504166662,72.0,76.0
867,185.92385638749997,186.41308016666662,65.0,78.0
868,186.57040763749995,186.70510581458328,64.0,75.0
869,186.63506276249996,186.74389888958328,65.0,67.0
870,186.73096786458328,186.77622645208328,67.0,60.0
871,186.87105396874995,187.05855383124995,72.0,78.0
872,186.43786463124997,187.0639417583333,60.0,55.0
873,186.95833838749996,187.20618303333328,76.0,59.0
874,187.06178658749997,187.22450198541662,79.0,62.0
875,187.1673899583333,187.3969156520833,84.0,53.0
876,187.3322605270833,187.5197603895833,79.0,67.0
877,187.3710536020833,187.52730348749995,60.0,42.0
878,187.4410966541666,187.60273446666662,76.0,60.0
879,185.92385638749997,187.65338098124997,55.0,75.0
880,185.92385638749997,187.69971715416662,48.0,75.0
881,187.5520879520833,187.70294991041663,72.0,60.0
882,187.7525188395833,187.8710532354166,72.0,37.0
883,187.8839842604166,187.99066521666663,67.0,82.0
884,188.25144088749997,188.59107708124995,53.0,44.0
885,188.51006138749995,188.71825096249995,60.0,55.0
886,188.77042486249994,188.97151176874993,69.0,67.0
887,188.77042486249994,189.11390303749994,53.0,72.0
888,189.03129436249995,189.30085951249995,60.0,78.0
889,189.03129436249995,189.31498994374994,67.0,72.0
890,187.99282038749996,189.36933775624993,41.0,82.0
891,189.29216386249993,189.38781601249994,53.0,67.0
892,189.42259861249994,189.64868551249995,60.0,70.0
893,189.42259861249994,189.67585941874995,64.0,82.0
894,189.42259861249994,189.71498984374995,67.0,62.0
895,189.42259861249994,189.75520722499994,40.0,72.0
896,189.68346811249995,189.81933764374995,52.0,61.0
897,189.81390286249996,189.95303326249996,60.0,80.0
898,190.13564191249995,190.6692156104166,57.0,67.0
899,190.13346799999994,190.9181378416666,69.0,72.0
900,190.13564191249995,190.92244818333327,60.0,85.0
901,190.12477234999994,190.9407671354166,65.0,82.0
902,190.86425857083327,191.2575772479166,57.0,70.0
903,191.13904285208326,191.4903356979166,60.0,72.0
904,191.13581009583328,191.51404257708327,69.0,73.0
905,191.13042216874993,191.52158567499993,65.0,75.0
906,191.39874093749992,191.73534116249994,57.0,67.0
907,190.13998973749995,191.78099332499994,50.0,70.0
908,191.61425802083326,191.80273244999992,65.0,44.0
909,191.62180111874994,191.83642809374993,60.0,63.0
910,191.89838459999993,192.13099323749992,69.0,60.0
911,192.17121061874994,192.65925397499993,64.0,72.0
912,192.18099322499992,192.70490613749993,60.0,70.0
913,192.17447148749994,192.75599308124993,67.0,73.0
914,192.97012346249994,193.04838431249993,60.0,66.0
915,192.97012346249994,193.05055822499992,64.0,72.0
916,192.97338433124992,193.07990604374993,67.0,76.0
917,192.70816700624994,193.11360168749994,57.0,78.0
918,193.27012338749992,193.53316679999992,57.0,55.0
919,193.45707986249994,193.60273199999992,77.0,80.0
920,193.45707986249994,193.60599286874992,69.0,69.0
921,193.71794936249992,193.87255010208324,57.0,55.0
922,192.15273236249993,193.90811042083325,45.0,75.0
923,193.71794936249992,193.93397247083325,76.0,72.0
924,192.41360186249992,193.9415155687499,52.0,57.0
925,193.71794936249992,194.0201793041666,67.0,82.0
926,193.97707588749992,194.27448946249993,72.0,56.0
927,194.23569638749993,194.61608403958326,74.0,70.0
928,194.23569638749993,194.6494891874999,70.0,88.0
929,194.7529373874999,195.1247043562499,58.0,66.0
930,195.01155788749992,195.46737651874992,70.0,82.0
931,195.01155788749992,195.48461788541658,65.0,80.0
932,195.01155788749992,195.49754891041658,62.0,76.0
933,195.5287988874999,195.82513487708326,58.0,63.0
934,194.4943168874999,195.9167296374999,53.0,63.0
935,195.7874193874999,196.0600484979166,62.0,70.0
936,194.23569638749993,196.07405710833325,46.0,82.0
937,195.7874193874999,196.07728986458326,65.0,75.0
938,195.7874193874999,196.09884157291657,70.0,72.0
939,196.04603988749992,196.16888462499992,58.0,76.0
940,196.30466038749992,196.72276352916657,60.0,66.0
941,196.30466038749992,196.75401350624992,65.0,73.0
942,196.30466038749992,196.7647893604166,67.0,72.0
943,196.30466038749992,197.1268580604166,72.0,66.0
944,197.33914238749992,197.44151300208324,72.0,57.0
945,197.0805218874999,197.6268576937499,60.0,80.0
946,197.33914238749992,197.70228867291658,65.0,78.0
947,197.59776288749993,197.77125413958325,67.0,69.0
948,197.8563833874999,197.95013331874992,60.0,53.0
949,196.56328088749993,197.9533660749999,53.0,66.0
950,196.30466038749992,197.95552124583324,48.0,80.0
951,196.8219013874999,197.96414192916657,55.0,53.0
952,197.8563833874999,198.0050901749999,67.0,59.0
953,198.1150038874999,198.2572451624999,70.0,52.0
954,198.37362438749992,198.90056365624991,41.0,70.0
955,198.63224488749992,198.91780502291658,48.0,62.0
956,198.89086538749993,199.20013240208326,53.0,61.0
957,198.37362438749992,199.43935636458326,60.0,88.0
958,198.37362438749992,199.4738390979166,65.0,91.0
959,198.37362438749992,199.47707185416658,69.0,75.0
960,199.66672688749992,199.84237331041658,60.0,95.0
961,199.1494858874999,199.89517499583326,55.0,63.0
962,199.4081063874999,199.90595084999993,57.0,82.0
963,199.92534738749993,200.29172642916657,65.0,62.0
964,200.1839678874999,200.3520712124999,72.0,75.0
965,200.4425883874999,201.05896724583326,65.0,73.0
966,200.4425883874999,201.0665103437499,62.0,80.0
967,200.4425883874999,201.08482929583326,70.0,75.0
968,201.21844988749993,201.46737211874992,60.0,85.0
969,201.21844988749993,201.62362200416658,65.0,80.0
970,201.21844988749993,201.6979753979166,69.0,70.0
971,200.95982938749992,201.81112186666658,58.0,85.0
972,201.7356908874999,202.10961302708324,67.0,82.0
973,200.4425883874999,202.11176819791658,46.0,67.0
974,200.70120888749992,202.12362163749992,53.0,55.0
975,201.7356908874999,202.12362163749992,62.0,82.0
976,201.99431138749992,202.16780263958324,58.0,66.0
977,202.25293188749993,202.54172477916657,65.0,78.0
978,202.5772850979166,202.9199572604166,60.0,72.0
979,202.57944026874992,203.13372211874992,48.0,78.0
980,202.5708195854166,203.13589603124993,64.0,76.0
981,202.57836268333324,203.1728525437499,67.0,75.0
982,203.08267265833325,203.2891568624999,60.0,61.0
983,203.2967655562499,203.4815481187499,69.0,61.0
984,203.5750263562499,203.63154808124992,58.0,54.0
985,203.5587220124999,203.89676540624993,69.0,69.0
986,203.5522002749999,203.9141567062499,62.0,72.0
987,203.5554611437499,203.91741757499992,65.0,73.0
988,204.0924175312499,204.2239392374999,65.0,54.0
989,203.80111325624992,204.3011131312499,58.0,59.0
990,204.07393927499993,204.3282870374999,62.0,59.0
991,203.54676549374992,204.34241746874991,46.0,80.0
992,204.34241746874991,204.5902434937499,69.0,56.0
993,204.62611304999993,205.0880694562499,60.0,72.0
994,204.62393913749992,205.1467650937499,67.0,69.0
995,204.62393913749992,205.1728520437499,64.0,66.0
996,205.3891563374999,205.61524323749993,60.0,73.0
997,205.6598084437499,205.8456779624999,64.0,64.0
998,205.1456781374999,205.9576344562499,57.0,78.0
999,204.6293739187499,206.22502569374993,45.0,76.0
1000,204.8761129874999,206.24567786249992,52.0,69.0
1001,206.15111266874993,206.3195908874999,57.0,61.0
1002,205.91959098749993,206.37719956874992,67.0,66.0
1003,206.4011126062499,206.58915603749992,72.0,61.0
1004,206.68806905624993,206.7685038187499,62.0,55.0
1005,206.6793734062499,207.2011124062499,69.0,69.0
1006,206.67285166874993,207.29893846874992,65.0,70.0
1007,206.68046036249993,207.41741669999993,50.0,73.0
1008,207.18589501874993,207.4206775687499,62.0,67.0
1009,207.48915581249992,207.62067751874991,65.0,26.0
1010,207.4587210374999,207.66306881249992,69.0,58.0
1011,206.9380689937499,207.74676444374992,57.0,61.0
1012,207.71089488749993,208.10546000624993,64.0,66.0
1013,207.70872097499992,208.1195904374999,67.0,72.0
1014,207.97067743124992,208.28480778749991,57.0,59.0
1015,207.69567749999993,208.30219908749993,48.0,72.0
1016,208.24459040624993,208.43583842083325,65.0,57.0
1017,208.50588147291657,208.63519172291657,69.0,52.0
1018,208.75695887499992,209.19230338333324,60.0,61.0
1019,208.75264853333326,209.20523440833324,64.0,70.0
1020,208.74510543541658,209.22463094583324,45.0,73.0
1021,208.74618302083326,209.22678611666657,67.0,66.0
1022,208.98540698333323,209.2548033374999,52.0,58.0
1023,209.2364843854166,209.55760483958323,57.0,63.0
1024,210.0349751791666,210.18044921041658,69.0,55.0
1025,210.02419932499993,210.23863882291658,77.0,73.0
1026,209.77958743541657,210.26881121458325,60.0,73.0
1027,209.4940272999999,210.28174223958325,59.0,63.0
1028,210.30544911874992,210.55113859374993,67.0,67.0
1029,210.3022163624999,210.57269030208326,76.0,61.0
1030,210.55868169166658,210.86363836458324,72.0,64.0
1031,210.81730219166658,211.1847588187499,74.0,69.0
1032,210.83346597291657,211.22893982083323,70.0,61.0
1033,211.61040505833324,211.62549125416658,66.0,47.0
1034,211.35070697291658,211.78066355416658,58.0,64.0
1035,211.62333608333324,211.92505999999992,60.0,44.0
1036,211.6082498874999,212.01557717499992,65.0,55.0
1037,212.11902537499992,212.44553375624992,60.0,78.0
1038,210.83023321666658,212.48001648958325,46.0,72.0
1039,212.1093271062499,212.4875595874999,67.0,73.0
1040,211.0619140812499,212.50264578333324,53.0,63.0
1041,212.36255967916657,212.53174058958325,58.0,70.0
1042,212.63195603333324,212.77743006458326,60.0,54.0
1043,212.90566272916658,213.25049006249992,60.0,67.0
1044,212.93152477916658,213.3517830916666,72.0,40.0
1045,212.9013523874999,213.35393826249992,65.0,67.0
1046,212.90350755833325,213.38842099583326,67.0,61.0
1047,214.46816158333326,214.78066135416657,84.0,45.0
1048,214.73217001041658,215.07053183124992,89.0,44.0
1049,215.01234221874992,215.19553173958326,96.0,46.0
1050,212.9013523874999,216.36612567083324,48.0,76.0
1051,218.07410994583324,218.53629511249991,81.0,52.0
1052,218.61507667499993,219.00583322499992,84.0,57.0
1053,218.89658945833327,219.16234592916658,89.0,56.0
1054,218.89133735416658,219.27369053749993,77.0,47.0
1055,218.3535218874999,219.53629574583326,72.0,49.0
1056,218.0657065791666,219.5909176291666,65.0,66.0
1057,219.92390103333327,220.20331297499993,91.0,47.0
1058,220.22222054999992,220.4512122916666,93.0,58.0
1059,220.74953180833324,221.01108659583326,84.0,43.0
1060,221.01003617499993,221.6833559291666,70.0,57.0
1061,220.47432154999993,221.75793580833326,65.0,40.0
1062,221.02684290833326,221.79259969583325,86.0,57.0
1063,220.1959600291666,221.82411232083325,58.0,73.0
1064,222.11717973333324,222.38503704583326,89.0,49.0
1065,222.32201179583325,222.49217997083326,79.0,44.0
1066,222.38398662499992,222.53629764583326,84.0,59.0
1067,222.38293620416658,222.91129788333325,48.0,49.0
1068,222.4554152416666,222.94281050833325,88.0,58.0
1069,222.6612977249999,222.9470121916666,55.0,53.0
1070,222.95541555833324,223.05205427499993,86.0,48.0
1071,222.93965924583324,223.0667601666666,79.0,48.0
1072,222.9323062999999,223.35877715833325,60.0,59.0
1073,223.24743254999993,223.3818864166666,84.0,66.0
1074,223.25163423333325,223.39974357083327,79.0,59.0
1075,223.9270548291666,224.02684480833327,77.0,70.0
1076,223.9176010416666,224.05730701249993,82.0,72.0
1077,223.60667647499992,224.06045827499992,64.0,51.0
1078,223.2337770791666,224.0688616416666,62.0,64.0
1079,224.39764336249993,224.5268451249999,81.0,63.0
1080,225.57096343333325,226.02264439166657,60.0,41.0
1081,225.63608952499993,226.04050154583325,64.0,44.0
1082,225.69071140833324,226.0825183791666,65.0,49.0
1083,225.78735012499993,226.15184615416658,69.0,33.0
1084,225.63713994583327,226.3703336874999,41.0,63.0
1085,226.09617384999993,226.3913421041666,48.0,39.0
1086,226.37453537083326,226.50163629166659,53.0,49.0
1087,226.56256069999992,226.7064683541666,69.0,53.0
1088,226.7757961291666,226.96592229999993,72.0,56.0
1089,226.98588029583325,227.08251901249992,74.0,50.0
1090,227.1823089916666,227.32411580416658,76.0,61.0
1091,227.40394778749993,227.64974626249992,77.0,52.0
1092,227.64344373749992,227.74638497916658,79.0,47.0
1093,227.91235147083324,228.27474665833324,81.0,38.0
1094,228.18651130833325,228.37558705833325,84.0,47.0
1095,228.50268797916658,228.71907467083327,88.0,37.0
1096,228.96277230416658,229.0835706999999,89.0,40.0
1097,231.18441236666658,231.44491673333326,89.0,42.0
1098,231.30731160416659,231.5215974541666,101.0,47.0
