,start,end,pitch,velocity
0,15.719303887500002,15.886654968750003,64.0,63.0
1,15.965710387500001,16.132034775,67.0,58.0
2,16.212116887500002,16.57248639375,69.0,60.0
3,16.7049298875,16.871254275000002,64.0,65.0
4,16.951336387500003,17.518071337500004,67.0,64.0
5,17.690555887500004,17.814785831250003,64.0,67.0
6,17.936962387500003,18.077619431250003,67.0,58.0
7,18.183368887500002,18.5611921875,69.0,60.0
8,18.6761818875,18.87022700625,69.0,63.0
9,18.922588387500003,19.775770893750003,67.0,64.0
10,20.154620887500002,20.337372375,60.0,62.0
11,20.4010273875,20.57453863125,62.0,59.0
12,20.6474338875,20.840452312500002,64.0,60.0
13,20.893840387500003,21.395893631250004,62.0,63.0
14,21.360986043750003,21.60123238125,64.0,60.0
15,21.879466387500003,23.218275037500003,57.0,60.0
16,24.0971248875,24.259342500000002,60.0,69.0
17,24.3435313875,24.467761331250003,62.0,55.0
18,24.5899378875,24.772689375000002,64.0,56.0
19,24.836344387500002,25.4236132125,62.0,57.0
20,25.575563887500003,25.717247625000002,57.0,60.0
21,25.821970387500002,25.962627431250002,60.0,59.0
22,26.0683768875,26.256261843750003,64.0,60.0
23,26.3147833875,26.461600593750003,62.0,59.0
24,26.561189887500003,26.718274031250004,64.0,59.0
25,26.807596387500002,27.4236126375,62.0,60.0
26,28.0396288875,28.230593925,69.0,59.0
27,28.2860353875,28.435932675000004,67.0,58.0
28,28.532441887500003,28.662831993750004,67.0,59.0
29,28.778848387500002,28.909238493750003,67.0,59.0
30,29.025254887500004,29.368170600000003,67.0,60.0
31,29.518067887500003,29.6741253375,67.0,56.0
32,29.7644743875,30.104310018750002,64.0,63.0
33,30.2572873875,31.22956636875,62.0,59.0
34,31.489319887500002,31.6453773375,64.0,63.0
35,31.7357263875,31.859956331250004,67.0,62.0
36,31.9821328875,32.392810387500006,69.0,64.0
37,32.4749458875,32.6186830125,64.0,63.0
38,32.721352387500005,33.273713625,67.0,60.0
39,33.4605718875,33.62792296875,64.0,63.0
40,33.7069783875,33.8527689,67.0,60.0
41,33.95338488750001,34.33428826875,69.0,60.0
42,34.446197887500006,34.61354896875,69.0,58.0
43,34.6926043875,35.6905507125,67.0,60.0
44,35.9246368875,36.06118715625,60.0,60.0
45,36.171043387500006,36.3394211625,62.0,57.0
46,36.4174498875,36.62073525,64.0,59.0
47,36.663856387500005,37.03243944375001,62.0,60.0
48,37.1566693875,37.53243930000001,64.0,60.0
49,37.6494823875,38.971863937500004,57.0,58.0
50,39.8671408875,40.06118600625,60.0,59.0
51,40.113547387500006,40.23777733125,62.0,53.0
52,40.3599538875,40.526278275,64.0,58.0
53,40.606360387500004,41.20081606875,62.0,59.0
54,41.3455798875,41.51293096875,57.0,58.0
55,41.5919863875,41.738803593750006,60.0,59.0
56,41.83839288750001,42.0108774375,64.0,61.0
57,42.0847993875,42.234696675,62.0,54.0
58,42.331205887500005,42.481103175,64.0,59.0
59,42.577612387500004,43.17206806875,62.0,60.0
60,43.8096448875,44.01806371875,69.0,60.0
61,44.056051387500005,44.176174556250004,67.0,54.0
62,44.3024578875,44.4338746875,67.0,58.0
63,44.548864387500004,44.69157481875,67.0,59.0
64,44.7952708875,45.117652725,67.0,64.0
65,45.2880838875,45.53962385625,67.0,59.0
66,45.5344903875,45.696708,64.0,61.0
67,45.780896887500006,45.93387425625001,69.0,60.0
68,46.0273033875,46.1669337375,71.0,59.0
69,46.273709887500004,46.43284741875,69.0,53.0
70,46.5201163875,47.05194375000001,67.0,61.0
71,47.2593358875,47.39999293125,67.0,63.0
72,47.50574238750001,47.6617998375,69.0,63.0
73,47.7521488875,48.136132350000004,72.0,63.0
74,48.244961887500004,48.381512156250004,72.0,62.0
75,48.4913683875,48.6207318,69.0,63.0
76,48.7377748875,49.076583825,67.0,59.0
77,49.2305878875,49.3928055,67.0,59.0
78,49.4769943875,49.618678125,69.0,59.0
79,49.723400887500006,49.870218093750005,72.0,61.0
80,49.969807387500005,50.12278475625,74.0,62.0
81,50.216213887500004,50.36303109375,72.0,62.0
82,50.4626203875,50.614571062500005,69.0,61.0
83,50.7090268875,51.0457824375,67.0,60.0
84,51.2018398875,51.3578973375,67.0,59.0
85,51.4482463875,51.6576919125,69.0,59.0
86,51.694652887500006,52.069396106250004,67.0,62.0
87,52.187465887500004,52.38356439375,62.0,59.0
88,52.4338723875,52.632024281250004,64.0,55.0
89,52.6802788875,54.7172392875,62.0,61.0
90,55.1443438875,55.3065615,62.0,60.0
91,55.3907503875,55.565288325000004,64.0,59.0
92,55.637156887500005,55.955431950000005,67.0,58.0
93,56.1299698875,56.28705403125,67.0,54.0
94,56.3763763875,56.5242202875,64.0,60.0
95,56.6227828875,56.972885456250005,62.0,58.0
96,57.1155958875,57.306560925,62.0,60.0
97,57.3620023875,57.4975259625,64.0,64.0
98,57.608408887500005,57.72955875,67.0,60.0
99,57.854815387500004,57.990338962500005,69.0,60.0
100,58.1012218875,58.226478525000005,67.0,59.0
101,58.3476283875,58.48828543125,64.0,61.0
102,58.5940348875,58.94208406875,62.0,59.0
103,59.0868478875,59.242905337500005,62.0,58.0
104,59.333254387500006,59.49033853125,55.0,61.0
105,59.579660887500005,60.152556000000004,57.0,60.0
106,60.3188803875,62.649033325000005,64.0,64.0
107,63.02813147083334,63.16850024375,67.0,63.0
108,63.27403297083334,63.4297705875,69.0,63.0
109,63.519934470833334,63.903130975,72.0,63.0
110,64.01173747083334,64.14800788541667,72.0,62.0
111,64.25763897083334,64.38673725833334,69.0,63.0
112,64.50354047083334,64.84165503333334,67.0,59.0
113,64.99534347083333,65.157228625,67.0,59.0
114,65.24124497083334,65.38263833333333,69.0,59.0
115,65.48714647083334,65.63366278125001,72.0,61.0
116,65.73304797083334,65.88571181875,74.0,62.0
117,65.97894947083334,66.12546578125,72.0,62.0
118,66.22485097083333,66.37649022916668,69.0,61.0
119,66.47075247083333,66.80681785416667,67.0,60.0
120,66.96255547083334,67.1182930875,67.0,59.0
121,67.20845697083334,67.41747324583334,69.0,59.0
122,67.45435847083334,67.82833366875,67.0,62.0
123,67.94616147083333,68.14185808125,62.0,59.0
124,68.19206297083333,68.38980876041667,64.0,55.0
125,68.43796447083334,70.47075020416668,62.0,61.0
126,70.89697947083334,71.058864625,62.0,60.0
127,71.14288097083333,71.31706120000001,64.0,59.0
128,71.38878247083333,71.70640524166667,67.0,58.0
129,71.88058547083334,72.03734767708333,67.0,54.0
130,72.12648697083334,72.27402787083334,64.0,60.0
131,72.37238847083334,72.72177351875,62.0,58.0
132,72.86419147083333,73.05476513333333,62.0,60.0
133,73.11009297083334,73.24533879583333,64.0,64.0
134,73.35599447083334,73.47689604166668,67.0,60.0
135,73.60189597083334,73.73714179583334,69.0,60.0
136,73.84779747083334,73.9727974,67.0,59.0
137,74.09369897083334,74.23406774375,64.0,61.0
138,74.33960047083333,74.58550197083333,62.0,59.0
139,74.58550197083333,74.83140347083334,62.0,59.0
140,74.83140347083334,75.07730497083334,62.0,58.0
141,75.07730497083334,75.32320647083334,64.0,58.0
142,75.32320647083334,75.89492745833334,62.0,60.0
143,76.06091097083333,78.386729325,60.0,64.0
144,94.52154565833334,94.68855376041668,64.0,63.0
145,94.76744715833334,94.93343067083335,67.0,58.0
146,95.01334865833334,95.37297960208335,69.0,60.0
147,95.50515165833335,95.67113517083334,64.0,65.0
148,95.75105315833335,96.31662660833335,67.0,64.0
149,96.48875765833334,96.61273299791668,64.0,67.0
150,96.73465915833334,96.87502793125002,67.0,58.0
151,96.98056065833335,97.14961793958335,69.0,60.0
152,97.21929003125001,97.39859320833335,69.0,63.0
153,97.71826515833334,98.56969910208335,67.0,64.0
154,98.94777265833335,99.13014960416668,60.0,62.0
155,99.19367415833335,99.36682979791668,62.0,59.0
156,99.43957565833334,99.63219850000002,64.0,60.0
157,99.68547715833334,100.17010803125001,62.0,63.0
158,100.16498508333335,100.40473904583334,64.0,60.0
159,100.66908315833335,102.00514797500001,57.0,60.0
160,102.88219665833334,103.04408181250001,60.0,69.0
161,103.12809815833334,103.25207349791668,62.0,55.0
162,103.37399965833335,103.55637660416667,64.0,56.0
163,103.61990115833335,104.20596640000001,62.0,57.0
164,104.35760565833334,104.49899902083334,57.0,60.0
165,104.60350715833334,104.74387593125002,60.0,59.0
166,104.84940865833335,105.03690855208335,64.0,60.0
167,105.09531015833335,105.24182646875002,62.0,59.0
168,105.34121165833335,105.49797386458334,64.0,59.0
169,105.58711315833335,106.20186690833334,62.0,60.0
170,106.81662065833335,107.00719432083335,69.0,59.0
171,107.06252215833335,107.21211223750001,67.0,58.0
172,107.30842365833334,107.43854653541668,67.0,59.0
173,107.55432515833334,107.68444803541668,67.0,59.0
174,107.80022665833334,108.14243957916668,67.0,60.0
175,108.29202965833335,108.44776727500002,67.0,56.0
176,108.53793115833335,108.87707031041668,64.0,63.0
177,109.02973415833335,110.00002049375001,62.0,59.0
178,110.25924165833335,110.41497927500001,64.0,63.0
179,110.50514315833334,110.62911849791668,67.0,62.0
180,110.75104465833334,111.16088049166669,69.0,64.0
181,111.24284765833335,111.38629020000002,64.0,63.0
182,111.48874915833335,112.03997835416668,67.0,60.0
183,112.22645365833336,112.39346176041668,64.0,63.0
184,112.47235515833334,112.61784687916668,67.0,60.0
185,112.71825665833335,113.09837939375001,69.0,60.0
186,113.21005965833335,113.37706776041668,69.0,58.0
187,113.45596115833335,114.45186223333334,67.0,60.0
188,114.68546865833335,114.82173907291669,60.0,60.0
189,114.93137015833335,115.09940285000002,62.0,57.0
190,115.17727165833335,115.38014039583335,64.0,59.0
191,115.42317315833336,115.79100081875,62.0,60.0
192,115.91497615833335,116.28997594583335,64.0,60.0
193,116.40677915833335,117.72645054166668,57.0,58.0
194,118.61989265833336,118.81354008958334,60.0,59.0
195,118.86579415833334,118.98976949791668,62.0,53.0
196,119.11169565833335,119.27767917083335,64.0,58.0
197,119.35759715833335,119.95083452708334,62.0,59.0
198,120.09530165833334,120.26230976041668,57.0,58.0
199,120.34120315833334,120.48771946875002,60.0,59.0
200,120.58710465833335,120.75923570833335,64.0,61.0
201,120.83300615833335,120.98259623750002,62.0,54.0
202,121.07890765833335,121.22849773750002,64.0,59.0
203,121.32480915833335,121.91804652708335,62.0,60.0
204,122.55431665833335,122.76230834375002,69.0,60.0
205,122.80021815833335,122.92009513958334,67.0,54.0
206,123.04611965833334,123.17726712500001,67.0,58.0
207,123.29202115833334,123.43443911041669,67.0,59.0
208,123.53792265833334,123.85964378750002,67.0,64.0
209,124.02972565833335,124.28075010625003,67.0,59.0
210,124.27562715833335,124.43751231250002,64.0,61.0
211,124.52152865833335,124.67419250625002,69.0,60.0
212,124.76743015833335,124.90677434166668,71.0,59.0
213,125.01333165833336,125.17214304375003,69.0,53.0
214,125.25923315833336,125.78997056250002,67.0,61.0
215,125.99693765833335,126.13730643125001,67.0,63.0
216,126.24283915833334,126.39857677500001,69.0,63.0
217,126.48874065833334,126.87193716250002,72.0,63.0
218,126.98054365833335,127.11681407291668,72.0,62.0
219,127.22644515833335,127.35554344583335,69.0,63.0
220,127.47234665833335,127.81046122083335,67.0,59.0
221,127.96414965833335,128.12603481250002,67.0,59.0
222,128.21005115833336,128.35144452083335,69.0,59.0
223,128.45595265833336,128.60246896875003,72.0,61.0
224,128.70185415833333,128.85451800625003,74.0,62.0
225,128.94775565833334,129.09427196875,72.0,62.0
226,129.19365715833334,129.34529641666668,69.0,61.0
227,129.43955865833334,129.77562404166667,67.0,60.0
228,129.93136165833334,130.087099275,67.0,59.0
229,130.17726315833335,130.38627943333336,69.0,59.0
230,130.42316465833335,130.79713985625003,67.0,62.0
231,130.91496765833335,131.11066426875,62.0,59.0
232,131.16086915833336,131.3586149479167,64.0,55.0
233,131.40677065833336,133.43955639166668,62.0,61.0
234,133.86578565833335,134.02767081250002,62.0,60.0
235,134.11168715833335,134.28586738750002,64.0,59.0
236,134.35758865833336,134.6752114291667,67.0,58.0
237,134.84939165833336,135.00615386458335,67.0,54.0
238,135.09529315833333,135.24283405833336,64.0,60.0
239,135.34119465833334,135.69057970625002,62.0,58.0
240,135.83299765833334,136.02357132083336,62.0,60.0
241,136.07889915833334,136.21414498333334,64.0,64.0
242,136.32480065833334,136.44570222916667,67.0,60.0
243,136.57070215833335,136.70594798333335,69.0,60.0
244,136.81660365833335,136.94160358750003,67.0,59.0
245,137.06250515833335,137.20287393125002,64.0,61.0
246,137.30840665833335,137.65574252708336,62.0,59.0
247,137.80020965833336,137.95594727500003,62.0,58.0
248,138.04611115833336,138.20287336458335,55.0,61.0
249,138.29201265833336,138.86373364583335,57.0,60.0
250,139.02971715833334,141.3555355125,64.0,64.0
251,141.73463365833334,141.87500243125,67.0,63.0
252,141.98053515833334,142.136272775,69.0,63.0
253,142.22643665833334,142.60963316250002,72.0,63.0
254,142.71823965833335,142.8545100729167,72.0,62.0
255,142.96414115833335,143.09323944583335,69.0,63.0
256,143.21004265833335,143.54815722083336,67.0,59.0
257,143.70184565833335,143.86373081250002,67.0,59.0
258,143.94774715833336,144.08914052083335,69.0,59.0
259,144.19364865833336,144.34016496875,72.0,61.0
260,144.43955015833336,144.59221400625,74.0,62.0
261,144.68545165833336,144.83196796875,72.0,62.0
262,144.93135315833337,145.08299241666668,69.0,61.0
263,145.17725465833337,145.5133200416667,67.0,60.0
264,145.66905765833334,145.824795275,67.0,59.0
265,145.91495915833335,146.12397543333336,69.0,59.0
266,146.16086065833335,146.53483585625003,67.0,62.0
267,146.65266365833335,146.84836026875,62.0,59.0
268,146.89856515833335,147.0963109479167,64.0,55.0
269,147.14446665833336,149.17725239166668,62.0,61.0
270,149.60348165833335,149.76536681250002,62.0,60.0
271,149.84938315833335,150.02356338750002,64.0,59.0
272,150.09528465833336,150.4129074291667,67.0,58.0
273,150.58708765833336,150.74384986458335,67.0,54.0
274,150.83298915833336,150.98053005833336,64.0,60.0
275,151.07889065833336,151.42827570625002,62.0,58.0
276,151.57069365833337,151.76126732083335,62.0,60.0
277,151.81659515833334,151.95184098333334,64.0,64.0
278,152.06249665833334,152.1833982291667,67.0,60.0
279,152.30839815833335,152.44364398333335,69.0,60.0
280,152.55429965833335,152.67929958750003,67.0,59.0
281,152.80020115833335,152.94056993125002,64.0,61.0
282,153.04610265833335,153.29200415833336,62.0,59.0
283,153.29200415833336,153.53790565833336,62.0,59.0
284,153.53790565833336,153.78380715833333,62.0,58.0
285,153.78380715833333,154.02970865833333,64.0,58.0
286,154.02970865833333,154.60532335416667,62.0,60.0
287,154.77267812916668,157.11771108750003,60.0,64.0
288,188.99551445416668,189.13646091041667,67.0,63.0
289,189.2424279541667,189.39880650416669,69.0,63.0
290,189.48934145416666,189.8741149916667,72.0,63.0
291,189.98316845416667,190.11999968541667,72.0,62.0
292,190.23008195416668,190.35971154166668,69.0,63.0
293,190.47699545416668,190.81650151666668,67.0,59.0
294,190.97082245416667,191.13337384166667,67.0,59.0
295,191.21773595416667,191.35971121666668,69.0,59.0
296,191.46464945416668,191.61176874791667,72.0,61.0
297,191.71156295416668,191.86485508541668,74.0,62.0
298,191.95847645416669,192.10559574791668,72.0,62.0
299,192.20538995416666,192.35765327916667,69.0,61.0
300,192.45230345416667,192.78975190416668,67.0,60.0
301,192.94613045416668,193.10250900416668,67.0,59.0
302,193.19304395416668,193.40292042916667,69.0,59.0
303,193.4399574541667,193.81547173541668,67.0,62.0
304,193.93378445416667,194.13028644791666,62.0,59.0
305,194.18069795416667,194.37925756041668,64.0,55.0
306,194.42761145416668,196.4687630541667,62.0,61.0
307,196.89674645416667,197.05929784166668,62.0,60.0
308,197.14365995416668,197.31855701666666,64.0,59.0
309,197.39057345416668,197.7095033916667,67.0,58.0
310,197.88440045416667,198.04180781041669,67.0,54.0
311,198.13131395416667,198.2794620541667,64.0,60.0
312,198.37822745416668,198.72905038541668,62.0,58.0
313,198.8720544541667,199.06341241666667,62.0,60.0
314,199.11896795416666,199.25477037916667,64.0,64.0
315,199.36588145416667,199.48728059166666,67.0,60.0
316,199.61279495416667,199.74859737916668,69.0,60.0
317,199.85970845416668,199.98522281666666,67.0,59.0
318,200.10662195416668,200.24756841041668,64.0,61.0
319,200.35353545416666,200.7023007729167,62.0,59.0
320,200.84736245416667,201.00374100416667,62.0,58.0
321,201.09427595416668,201.25168331041667,55.0,61.0
322,201.34118945416668,201.91526334166667,57.0,60.0
323,202.08192995416667,204.412622775,64.0,64.0
324,204.79172092083334,204.93208969375,67.0,63.0
325,205.03762242083332,205.19336003749999,69.0,63.0
326,205.28352392083332,205.666720425,72.0,63.0
327,205.77532692083332,205.91159733541667,72.0,62.0
328,206.02122842083332,206.15032670833332,69.0,63.0
329,206.26712992083333,206.60524448333334,67.0,59.0
330,206.75893292083333,206.920818075,67.0,59.0
331,207.00483442083333,207.14622778333333,69.0,59.0
332,207.25073592083334,207.39725223125,72.0,61.0
333,207.49663742083334,207.64930126875,74.0,62.0
334,207.74253892083334,207.88905523124998,72.0,62.0
335,207.98844042083334,208.14007967916666,69.0,61.0
336,208.23434192083332,208.57040730416665,67.0,60.0
337,208.72614492083332,208.8818825375,67.0,59.0
338,208.97204642083332,209.18106269583333,69.0,59.0
339,209.21794792083332,209.59192311875,67.0,62.0
340,209.70975092083333,209.90544753125,62.0,59.0
341,209.95565242083333,210.15339821041667,64.0,55.0
342,210.20155392083333,212.23433965416666,62.0,61.0
343,212.66056892083333,212.822454075,62.0,60.0
344,212.90647042083333,213.08065065,64.0,59.0
345,213.15237192083333,213.46999469166667,67.0,58.0
346,213.64417492083334,213.80093712708333,67.0,54.0
347,213.89007642083334,214.03761732083333,64.0,60.0
348,214.13597792083334,214.48536296875,62.0,58.0
349,214.62778092083335,214.81835458333333,62.0,60.0
350,214.87368242083332,215.00892824583332,64.0,64.0
351,215.11958392083332,215.24048549166667,67.0,60.0
352,215.36548542083332,215.50073124583332,69.0,60.0
353,215.61138692083333,215.73638685,67.0,59.0
354,215.85728842083333,215.99765719375,64.0,61.0
355,216.10318992083333,216.34909142083333,62.0,59.0
356,216.34909142083333,216.59499292083333,62.0,59.0
357,216.59499292083333,216.84089442083334,62.0,58.0
358,216.84089442083334,217.08679592083334,64.0,58.0
359,217.08679592083334,217.65851690833333,62.0,60.0
360,217.82450042083332,220.150318775,60.0,64.0
361,220.52941692083334,220.66978569375,67.0,63.0
362,220.77531842083334,220.9310560375,69.0,63.0
363,221.02121992083335,221.404416425,72.0,63.0
364,221.51302292083332,221.64929333541667,72.0,62.0
365,221.75892442083332,221.88802270833332,69.0,63.0
366,222.00482592083333,222.34294048333334,67.0,59.0
367,222.49662892083333,222.658514075,67.0,59.0
368,222.74253042083333,222.88392378333333,69.0,59.0
369,222.98843192083334,223.13494823125,72.0,61.0
370,223.23433342083334,223.38699726875,74.0,62.0
371,223.48023492083334,223.62675123125,72.0,62.0
372,223.72613642083334,223.87777567916666,69.0,61.0
373,223.97203792083334,224.30810330416665,67.0,60.0
374,224.46384092083332,224.6195785375,67.0,59.0
375,224.70974242083332,224.91875869583333,69.0,59.0
376,224.95564392083332,225.32961911875,67.0,62.0
377,225.44744692083333,225.64314353125,62.0,59.0
378,225.69334842083333,225.89109421041667,64.0,55.0
379,225.93924992083333,227.97203565416666,62.0,61.0
380,228.39826492083333,228.560150075,62.0,60.0
381,228.64416642083333,228.81834665,64.0,59.0
382,228.89006792083333,229.20769069166667,67.0,58.0
383,229.38187092083334,229.53863312708333,67.0,54.0
384,229.62777242083334,229.77531332083333,64.0,60.0
385,229.87367392083334,230.22305896875,62.0,58.0
386,230.36547692083334,230.55605058333333,62.0,60.0
387,230.61137842083332,230.74662424583335,64.0,64.0
388,230.85727992083332,230.97818149166667,67.0,60.0
389,231.10318142083332,231.23842724583332,69.0,60.0
390,231.34908292083333,231.47408285,67.0,59.0
391,231.59498442083333,231.73535319375,64.0,61.0
392,231.84088592083333,232.18822178958334,62.0,59.0
393,232.33268892083333,232.4884265375,62.0,58.0
394,232.57859042083334,232.73535262708333,55.0,61.0
395,232.82449192083334,233.39621290833333,57.0,60.0
396,233.56219642083335,235.888014775,64.0,64.0
397,236.26711292083334,236.40748169375001,67.0,63.0
398,236.51301442083334,236.66875203749998,69.0,63.0
399,236.75891592083332,237.142112425,72.0,63.0
400,237.25071892083332,237.38698933541667,72.0,62.0
401,237.49662042083332,237.62571870833332,69.0,63.0
402,237.74252192083333,238.08063648333334,67.0,59.0
403,238.23432492083333,238.396210075,67.0,59.0
404,238.48022642083333,238.62161978333333,69.0,59.0
405,238.72612792083333,238.87264423125,72.0,61.0
406,238.97202942083334,239.12469326875,74.0,62.0
407,239.21793092083334,239.36444723124998,72.0,62.0
408,239.46383242083334,239.61547167916666,69.0,61.0
409,239.70973392083334,240.04579930416668,67.0,60.0
410,240.20153692083335,240.35727453750002,67.0,59.0
411,240.44743842083335,240.65645469583333,69.0,59.0
412,240.69333992083332,241.06731511875,67.0,62.0
413,241.18514292083333,241.38083953125,62.0,59.0
414,241.43104442083333,241.62879021041667,64.0,55.0
415,241.67694592083333,243.70973165416666,62.0,61.0
416,244.13596092083333,244.297846075,62.0,60.0
417,244.38186242083333,244.55604265,64.0,59.0
418,244.62776392083333,244.94538669166667,67.0,58.0
419,245.11956692083334,245.27632912708333,67.0,54.0
420,245.36546842083334,245.51300932083333,64.0,60.0
421,245.61136992083334,245.96075496875,62.0,58.0
422,246.10317292083334,246.29374658333333,62.0,60.0
423,246.34907442083335,246.48432024583335,64.0,64.0
424,246.59497592083335,246.71587749166667,67.0,60.0
425,246.84087742083335,246.97612324583332,69.0,60.0
426,247.08677892083332,247.21177885,67.0,59.0
427,247.33268042083333,247.47304919375,64.0,61.0
428,247.57858192083333,247.82448342083333,62.0,59.0
429,247.82448342083333,248.07038492083333,62.0,59.0
430,248.07038492083333,248.31628642083334,62.0,58.0
431,248.31628642083334,248.56218792083334,64.0,58.0
432,248.56218792083334,249.13390890833332,62.0,60.0
433,249.29989242083334,251.62571077500002,60.0,64.0
