,start,end,pitch,velocity
0,4.4077843875000005,4.778685816666667,53.0,53.0
1,4.4077843875000005,4.99180045,60.0,59.0
2,5.145488887500001,5.503070652083334,57.0,50.0
3,4.8995873875000004,5.609627968750001,53.0,59.0
4,4.653685887500001,5.781759018750001,48.0,51.0
5,5.3913903875,5.8831933875,65.0,59.0
6,4.4077843875000005,5.899586820833334,41.0,60.0
7,5.637291887500001,5.945693352083334,60.0,58.0
8,5.8831933875,6.036881825000001,53.0,58.0
9,6.374996387500001,7.040979616666668,55.0,52.0
10,6.866799387500001,7.153684470833334,59.0,53.0
11,6.374996387500001,7.345282722916668,52.0,54.0
12,6.620897887500001,7.800200497916668,47.0,49.0
13,6.374996387500001,7.857577514583334,40.0,57.0
14,7.358602387500001,7.860651283333334,59.0,54.0
15,7.112700887500001,7.895487329166667,64.0,62.0
16,7.604503887500001,7.922126658333334,52.0,51.0
17,7.850405387500001,7.985651212500001,55.0,51.0
18,8.342208387500001,8.765363885416669,50.0,52.0
19,8.342208387500001,8.877044150000001,53.0,53.0
20,8.588109887500002,8.950814600000001,45.0,49.0
21,8.8340113875,8.980527697916667,57.0,58.0
22,8.342208387500001,9.001019489583335,38.0,58.0
23,9.325814387500001,9.5840109625,48.0,51.0
24,9.325814387500001,9.789953468750001,52.0,58.0
25,9.325814387500001,9.804297722916669,36.0,56.0
26,9.571715887500002,9.815568208333335,43.0,50.0
27,9.817617387500002,9.939543547916667,48.0,65.0
28,10.309420387500001,10.596305470833334,57.0,52.0
29,10.309420387500001,10.813518462500001,60.0,51.0
30,10.309420387500001,11.048149477083335,45.0,58.0
31,10.555321887500002,11.049174066666668,52.0,47.0
32,10.801223387500002,11.161878920833335,57.0,60.0
33,11.0471248875,11.176223175000002,60.0,56.0
34,11.293026387500001,11.531755760416669,55.0,58.0
35,11.293026387500001,11.754091700000002,59.0,59.0
36,11.538927887500002,11.813517895833336,50.0,60.0
37,11.293026387500001,11.815567075000002,43.0,59.0
38,11.784829387500002,11.941591593750001,55.0,60.0
39,12.276632387500001,12.883189420833336,53.0,53.0
40,12.276632387500001,12.920074645833335,57.0,51.0
41,12.768435387500002,13.054295881250003,60.0,51.0
42,13.014336887500003,13.536877575000002,65.0,60.0
43,13.260238387500001,13.782779075000002,53.0,53.0
44,13.506139887500002,13.845279039583335,57.0,55.0
45,13.752041387500002,14.082983822916669,60.0,49.0
46,12.522533887500002,14.146508377083336,48.0,50.0
47,12.276632387500001,14.157778862500003,41.0,59.0
48,14.243844387500001,14.847327652083335,41.0,58.0
49,14.735647387500002,14.859622727083336,53.0,53.0
50,14.489745887500002,14.860647316666668,48.0,47.0
51,13.997942887500002,14.890360414583336,65.0,55.0
52,15.227450387500003,15.640359989583336,55.0,55.0
53,15.227450387500003,15.666999318750003,59.0,52.0
54,15.227450387500003,15.706983562500001,62.0,56.0
55,15.227450387500003,15.787065675000003,43.0,60.0
56,16.212116887500002,16.465710243750003,57.0,52.0
57,16.212116887500002,17.04065874375,60.0,50.0
58,16.7049298875,17.052979068750002,64.0,54.0
59,17.4441493875,17.8219726875,64.0,49.0
60,16.951336387500003,17.98521699375,69.0,58.0
61,16.212116887500002,18.01601780625,45.0,59.0
62,17.690555887500004,18.032444906250003,57.0,49.0
63,16.4585233875,18.050925393750003,52.0,52.0
64,17.936962387500003,18.7398369,64.0,57.0
65,18.922588387500003,19.287064668750002,60.0,58.0
66,18.6761818875,19.296304912500002,57.0,59.0
67,19.4154013875,19.521150843750004,57.0,53.0
68,18.4297753875,19.525257618750004,52.0,58.0
69,18.183368887500002,19.76653065,45.0,60.0
70,19.4154013875,19.826078887500003,60.0,59.0
71,19.661807887500004,19.990349887500003,52.0,64.0
72,19.4154013875,20.03860449375,64.0,60.0
73,19.908214387500003,20.05503159375,57.0,61.0
74,20.154620887500002,20.407187550000003,57.0,59.0
75,20.154620887500002,20.67310123125,62.0,58.0
76,20.6474338875,20.7829574625,57.0,58.0
77,20.893840387500003,21.2593433625,57.0,58.0
78,20.893840387500003,21.430801218750002,65.0,54.0
79,21.3866533875,21.696714900000003,62.0,58.0
80,20.154620887500002,21.930801075,50.0,64.0
81,20.4010273875,21.9759756,53.0,43.0
82,21.633059887500004,22.222382100000004,57.0,46.0
83,22.3722793875,22.658726943750004,57.0,49.0
84,21.879466387500003,22.660780331250002,65.0,51.0
85,22.618685887500003,22.911293606250002,62.0,58.0
86,22.865092387500003,23.204928018750003,57.0,65.0
87,22.1258728875,23.486242106250003,50.0,58.0
88,23.357905387500004,23.57043099375,57.0,45.0
89,23.604311887500003,23.750102400000003,62.0,58.0
90,24.0971248875,24.338397918750005,53.0,53.0
91,24.0971248875,24.558110381250003,57.0,55.0
92,24.5899378875,24.9164265,53.0,60.0
93,24.3435313875,25.203900750000003,48.0,56.0
94,24.0971248875,25.580697356250003,41.0,58.0
95,25.575563887500003,25.8999991125,48.0,59.0
96,24.836344387500002,25.90923935625,60.0,59.0
97,25.821970387500002,25.935933393750002,53.0,60.0
98,26.0683768875,26.34250411875,55.0,56.0
99,26.0683768875,26.573510212500004,59.0,54.0
100,26.561189887500003,27.329156812500003,55.0,64.0
101,26.807596387500002,27.4133457,62.0,56.0
102,27.546815887500003,27.6782326875,55.0,60.0
103,27.300409387500004,27.711086887500002,67.0,59.0
104,26.3147833875,27.720327131250002,50.0,56.0
105,26.0683768875,27.727513987500004,43.0,61.0
106,28.0396288875,28.305542568750003,55.0,55.0
107,28.0396288875,28.678232400000002,64.0,59.0
108,28.532441887500003,28.854823725000003,55.0,60.0
109,28.778848387500002,29.104310306250003,62.0,55.0
110,29.025254887500004,29.31170244375,60.0,54.0
111,29.271661387500004,29.57658943125,55.0,59.0
112,29.518067887500003,29.695685906250002,60.0,53.0
113,28.2860353875,29.703899456250003,52.0,55.0
114,28.0396288875,29.79219511875,48.0,65.0
115,30.0108808875,30.59301624375,59.0,54.0
116,30.0108808875,30.595069631250002,55.0,53.0
117,30.503693887500003,30.776794425000002,62.0,56.0
118,30.2572873875,31.08377585625,50.0,59.0
119,30.996506887500004,31.294248075000002,55.0,61.0
120,30.0108808875,31.401024225,43.0,58.0
121,31.242913387500003,31.5016402125,50.0,63.0
122,30.7501003875,31.5919892625,67.0,60.0
123,31.489319887500002,31.666937906250002,55.0,59.0
124,31.9821328875,32.24701987500001,55.0,59.0
125,31.9821328875,32.55502800000001,64.0,60.0
126,32.4749458875,32.76139344375,55.0,60.0
127,32.721352387500005,33.13716335625,62.0,59.0
128,33.2141653875,33.5098531875,64.0,62.0
129,31.9821328875,33.682337737500006,48.0,61.0
130,32.22853938750001,33.68336443125,52.0,46.0
131,33.4605718875,33.7439393625,62.0,54.0
132,33.7069783875,33.94311795,55.0,60.0
133,33.95338488750001,34.505746125,60.0,59.0
134,34.446197887500006,34.7870602125,55.0,58.0
135,34.6926043875,35.00574598125,62.0,54.0
136,33.95338488750001,35.47083825,48.0,60.0
137,35.1854173875,35.47597171875,64.0,54.0
138,34.1997913875,35.524226325,52.0,51.0
139,35.4318238875,35.56837415625,60.0,51.0
140,35.9246368875,36.066320625,57.0,50.0
141,35.9246368875,36.24291195000001,62.0,54.0
142,36.171043387500006,36.499585387500005,57.0,53.0
143,36.4174498875,36.71416438125,62.0,52.0
144,35.9246368875,36.83326085625001,50.0,58.0
145,36.663856387500005,37.2018439125,65.0,60.0
146,37.1566693875,37.44311694375,62.0,60.0
147,37.4030758875,37.55399986875,57.0,49.0
148,37.89588888750001,38.180283056250005,57.0,51.0
149,37.89588888750001,38.41026245625,62.0,52.0
150,38.388701887500005,38.48418440625,57.0,53.0
151,38.1422953875,38.74085784375001,45.0,47.0
152,38.6351083875,38.988291037500005,57.0,60.0
153,38.6351083875,39.0375723375,65.0,59.0
154,37.89588888750001,39.154615425,38.0,60.0
155,38.8815148875,39.15769550625,45.0,60.0
156,39.1279213875,39.39383506875,62.0,62.0
157,39.3743278875,39.655641975,57.0,58.0
158,39.6207343875,39.71005674375,62.0,54.0
159,39.8671408875,40.15153505625,53.0,55.0
160,39.8671408875,40.38562123125,57.0,46.0
161,40.3599538875,40.53757190625,53.0,58.0
162,40.606360387500004,40.9390091625,53.0,49.0
163,40.606360387500004,41.023198050000005,60.0,60.0
164,40.113547387500006,41.322992625,48.0,54.0
165,39.8671408875,41.3599536,41.0,58.0
166,41.0991733875,41.387674331250004,57.0,58.0
167,41.0991733875,41.39794126875,60.0,37.0
168,41.3455798875,41.470836525,53.0,58.0
169,41.83839288750001,42.43284856875,55.0,54.0
170,41.83839288750001,42.43900873125,59.0,58.0
171,42.331205887500005,42.62792038125001,62.0,52.0
172,42.577612387500004,43.13100031875,67.0,59.0
173,42.0847993875,43.20800235,50.0,54.0
174,41.83839288750001,43.35481955625001,43.0,58.0
175,43.3168318875,43.4811028875,55.0,49.0
176,43.0704253875,43.5385977375,62.0,58.0
177,43.8096448875,44.022170493750004,55.0,57.0
178,43.8096448875,44.32401845625,60.0,54.0
179,44.3024578875,44.4256611375,55.0,54.0
180,44.056051387500005,44.701841756250005,52.0,54.0
181,44.548864387500004,45.10430570625,55.0,58.0
182,43.8096448875,45.118679418750006,48.0,63.0
183,44.548864387500004,45.24188266875,60.0,60.0
184,44.548864387500004,45.2962974375,64.0,60.0
185,45.2880838875,45.472888762500006,55.0,60.0
186,45.0416773875,45.4975294125,52.0,58.0
187,45.780896887500006,46.125865987500006,55.0,60.0
188,45.780896887500006,46.1422930875,59.0,59.0
189,46.273709887500004,46.336338206250005,59.0,43.0
190,46.273709887500004,46.36303224375,62.0,58.0
191,46.0273033875,46.62381245625,50.0,61.0
192,46.5201163875,46.65872004375,55.0,60.0
193,46.5201163875,46.661800125,62.0,62.0
194,46.5201163875,46.67104036875,59.0,64.0
195,46.5201163875,46.73058860625,67.0,58.0
196,46.7665228875,47.11765215,50.0,63.0
197,47.0129293875,47.376378975,67.0,58.0
198,47.0129293875,47.58479780625,71.0,60.0
199,47.50574238750001,47.663853225,67.0,54.0
200,47.2593358875,47.67617355,50.0,61.0
201,45.780896887500006,47.6843871,43.0,62.0
202,47.7521488875,48.03243628125,55.0,58.0
203,47.7521488875,48.081717581250004,64.0,59.0
204,48.244961887500004,48.3517380375,55.0,67.0
205,47.998555387500005,48.62997204375,43.0,48.0
206,48.4913683875,48.671039793750005,55.0,64.0
207,48.4913683875,48.68746689375,64.0,67.0
208,47.7521488875,48.7028673,36.0,58.0
209,48.7377748875,48.807590062500005,43.0,59.0
210,48.9841813875,49.11046471875,55.0,60.0
211,48.9841813875,49.224427725000005,60.0,59.0
212,49.2305878875,49.39177880625,55.0,59.0
213,49.723400887500006,49.942086656250005,55.0,59.0
214,49.723400887500006,50.061183131250004,60.0,59.0
215,50.216213887500004,50.3455773,55.0,60.0
216,49.969807387500005,50.597117268750004,43.0,54.0
217,50.4626203875,50.7726819,55.0,59.0
218,50.4626203875,50.787055612500005,62.0,58.0
219,50.7090268875,51.1032772875,43.0,59.0
220,50.9554333875,51.2264805375,60.0,67.0
221,49.723400887500006,51.23572078125,36.0,58.0
222,51.2018398875,51.327096525,57.0,59.0
223,51.4482463875,51.632024568750005,55.0,60.0
224,51.694652887500006,52.0026610125,57.0,57.0
225,52.187465887500004,52.32504285,50.0,55.0
226,52.4338723875,52.67925219375,57.0,59.0
227,52.4338723875,53.10841018125,50.0,59.0
228,51.941059387500005,53.41847169375,45.0,57.0
229,51.694652887500006,53.42873863125,38.0,60.0
230,53.1730918875,53.50060719375,62.0,63.0
231,53.4194983875,53.62278375,50.0,58.0
232,53.665904887500005,53.87021694375,50.0,39.0
233,53.665904887500005,54.22545298125,62.0,57.0
234,53.665904887500005,54.2613872625,57.0,54.0
235,54.1587178875,54.30553509375,50.0,58.0
236,53.912311387500004,54.51498061875,45.0,48.0
237,54.4051243875,54.5981428125,50.0,59.0
238,54.4051243875,54.646397418750006,57.0,58.0
239,53.665904887500005,54.72237275625,38.0,63.0
240,54.4051243875,54.739826550000004,62.0,61.0
241,54.6515308875,54.794241318750004,45.0,58.0
242,54.8979373875,55.1977319625,38.0,62.0
243,55.1443438875,55.41641773125,62.0,57.0
244,55.3907503875,55.50471339375,57.0,59.0
245,55.637156887500005,55.926684525,55.0,56.0
246,55.637156887500005,55.9698056625,59.0,58.0
247,56.1299698875,56.304507825,62.0,52.0
248,56.3763763875,56.700811612500004,67.0,59.0
249,55.883563387500004,57.01189981875,50.0,50.0
250,56.8691893875,57.13099629375,55.0,56.0
251,55.637156887500005,57.219291956250004,43.0,60.0
252,56.8691893875,57.22955889375,62.0,58.0
253,57.1155958875,57.2305855875,50.0,60.0
254,57.3620023875,57.48417894375,55.0,58.0
255,57.608408887500005,58.173090450000004,59.0,55.0
256,57.608408887500005,58.181304000000004,55.0,57.0
257,58.1012218875,58.242905625,62.0,52.0
258,57.854815387500004,58.509846,50.0,52.0
259,58.3476283875,58.83017445,67.0,57.0
260,58.3476283875,58.883562525,55.0,58.0
261,57.608408887500005,59.09198135625,43.0,59.0
262,58.8404413875,59.099168212500004,50.0,56.0
263,58.3476283875,59.12278216875,62.0,59.0
264,59.0868478875,59.212104525,55.0,59.0
265,59.579660887500005,59.80040004375,55.0,59.0
266,59.579660887500005,60.1299687375,64.0,58.0
267,60.0724738875,60.1915703625,55.0,60.0
268,60.3188803875,60.5529665625,55.0,59.0
269,60.3188803875,60.731611275,62.0,59.0
270,60.8116933875,61.05501980625,60.0,59.0
271,61.0580998875,61.1730895875,57.0,59.0
272,59.579660887500005,61.3209334875,48.0,60.0
273,59.826067387500004,61.358921156250005,52.0,51.0
274,61.304506387500005,61.44721681875,55.0,58.0
275,61.550912887500004,61.80039946875,55.0,56.0
276,61.550912887500004,62.0909538,60.0,59.0
277,62.0437258875,62.194649868750005,55.0,57.0
278,62.2901323875,62.47382850625,55.0,50.0
279,62.2901323875,62.67259888541667,62.0,60.0
280,61.7973193875,62.88673810833333,52.0,59.0
281,61.550912887500004,62.88981187708334,48.0,64.0
282,62.782229970833335,63.02095934375,55.0,60.0
283,63.02813147083334,63.23202479791667,52.0,59.0
284,62.782229970833335,63.37649192916667,64.0,64.0
285,63.27403297083334,63.43796730416667,55.0,62.0
286,63.519934470833334,63.69206552083334,55.0,59.0
287,63.519934470833334,63.84472936875,60.0,59.0
288,63.765835970833336,63.93284407291667,55.0,56.0
289,64.01173747083334,64.13263904166666,60.0,50.0
290,63.519934470833334,64.444114275,48.0,61.0
291,64.25763897083334,64.58858140625,60.0,61.0
292,64.25763897083334,64.60702401875,55.0,58.0
293,64.25763897083334,64.69821249166667,64.0,61.0
294,64.74944197083333,64.9236222,55.0,54.0
295,64.74944197083333,65.07013851041667,60.0,58.0
296,64.99534347083333,65.28837609166666,55.0,59.0
297,65.48714647083334,65.57628576458333,36.0,59.0
298,65.48714647083334,65.65927752083334,55.0,57.0
299,65.48714647083334,65.80579383125,60.0,53.0
300,65.73304797083334,66.03120353958333,55.0,56.0
301,65.97894947083334,66.11521988541666,60.0,49.0
302,66.22485097083333,66.47997377708333,55.0,58.0
303,66.22485097083333,66.52198195,64.0,63.0
304,66.71665397083333,67.01276036041666,55.0,59.0
305,66.96255547083334,67.07423573541666,48.0,65.0
306,66.71665397083333,67.13776028958334,60.0,61.0
307,67.20845697083334,67.31911264583334,55.0,58.0
308,67.45435847083334,67.665423925,57.0,50.0
309,67.45435847083334,67.73099765833334,62.0,53.0
310,67.94616147083333,68.05169419791667,57.0,51.0
311,68.19206297083333,68.34677599791667,65.0,59.0
312,68.19206297083333,68.35497271458334,57.0,58.0
313,68.68386597083334,68.919521575,62.0,61.0
314,68.92976747083334,69.05989034791668,57.0,56.0
315,67.70025997083334,69.0732100125,45.0,57.0
316,67.45435847083334,69.09062803541667,38.0,60.0
317,69.42157047083333,69.67054573958333,57.0,52.0
318,69.42157047083333,69.94923410625,62.0,53.0
319,69.91337347083333,69.97587343541667,57.0,38.0
320,69.66747197083333,70.35497158125,45.0,51.0
321,70.15927497083334,70.51480755625,57.0,59.0
322,70.15927497083334,70.63365994791667,65.0,59.0
323,70.40517647083334,70.78017625833334,45.0,49.0
324,69.42157047083333,70.8682909625,38.0,61.0
325,70.65107797083334,70.87956144791667,62.0,61.0
326,70.89697947083334,71.19411045000001,57.0,59.0
327,71.14288097083333,71.25251205625,62.0,59.0
328,71.38878247083333,71.66542165833334,55.0,62.0
329,71.88058547083334,72.04656898333334,62.0,49.0
330,72.12648697083334,72.43796220416667,67.0,59.0
331,72.12648697083334,72.4420605625,55.0,56.0
332,72.61828997083333,72.79042102083334,62.0,54.0
333,72.61828997083333,72.80271609583333,55.0,53.0
334,71.38878247083333,72.88160949375,43.0,58.0
335,71.63468397083334,72.90824882291668,50.0,58.0
336,73.35599447083334,73.61828940416667,55.0,55.0
337,73.35599447083334,73.69718280208333,59.0,55.0
338,73.84779747083334,74.00353508750001,62.0,56.0
339,74.09369897083334,74.32628080625,67.0,58.0
340,74.09369897083334,74.36521521041666,55.0,59.0
341,74.58550197083333,74.70025600416668,55.0,58.0
342,73.60189597083334,74.73509205,50.0,57.0
343,73.35599447083334,74.76685432708334,43.0,59.0
344,74.58550197083333,74.92361653333333,62.0,58.0
345,74.83140347083334,74.99841157291667,55.0,58.0
346,75.32320647083334,75.41439494375001,36.0,56.0
347,75.32320647083334,75.60291942708334,55.0,58.0
348,75.32320647083334,75.74636196875001,60.0,55.0
349,75.81500947083333,75.88263238333334,55.0,47.0
350,76.06091097083333,76.09882078541668,55.0,38.0
351,76.06091097083333,76.41132060833334,64.0,59.0
352,76.55271397083334,76.812959725,60.0,59.0
353,75.81500947083333,76.8436974125,48.0,54.0
354,76.79861547083334,76.95947603541667,55.0,59.0
355,77.29041847083334,77.42976265416667,55.0,51.0
356,77.29041847083334,77.59267239791667,60.0,53.0
357,77.53631997083333,77.81398374791667,55.0,55.0
358,77.78222147083333,77.84164766666667,60.0,44.0
359,78.02812297083334,78.35804081666667,55.0,60.0
360,78.02812297083334,78.39799981041668,64.0,61.0
361,78.51992597083334,78.67156522916667,55.0,55.0
362,78.76582747083334,79.22996655208334,55.0,51.0
363,78.51992597083334,79.25865506041667,60.0,57.0
364,79.25763047083333,79.25865506041667,60.0,54.0
365,77.29041847083334,79.28119603125,48.0,59.0
366,79.25763047083333,79.56456350625001,53.0,52.0
367,79.750395075,80.27708896875001,57.0,52.0
368,79.996801575,80.47832094375,65.0,58.0
369,79.50398857500001,80.5984441125,48.0,48.0
370,79.25763047083333,80.66312581875,41.0,61.0
371,81.22883407500001,81.98345398125001,52.0,58.0
372,81.721647075,82.02862850625,59.0,51.0
373,81.22883407500001,82.03786875,55.0,54.0
374,81.968053575,82.32842308125001,64.0,61.0
375,81.475240575,82.345876875,47.0,50.0
376,81.22883407500001,82.38386454375001,40.0,60.0
377,83.200086075,83.70213931875,65.0,60.0
378,83.200086075,83.73088674375,50.0,59.0
379,83.44649257500001,83.76579433125,57.0,57.0
380,83.692899075,83.865383625,62.0,59.0
381,85.17133807500001,85.35511625625,55.0,50.0
382,85.17133807500001,85.51322709375,60.0,54.0
383,85.417744575,85.73704633125,55.0,58.0
384,85.664151075,85.80583481250001,60.0,52.0
385,85.910557575,86.29351434375,64.0,65.0
386,86.40337057500001,86.60768263125,60.0,59.0
387,85.17133807500001,86.62102965000001,48.0,59.0
388,87.142590075,87.71651188125,57.0,46.0
389,87.142590075,87.72677881875,53.0,49.0
390,87.635403075,87.9413578125,60.0,56.0
391,87.881809575,88.47646711666668,65.0,58.0
392,87.142590075,88.72339320625001,41.0,59.0
393,87.38899657500001,88.74081122916668,48.0,56.0
394,89.11171265833335,89.55126158958335,52.0,50.0
395,89.11171265833335,89.66191726458334,55.0,53.0
396,89.60351565833335,89.83712208333334,59.0,50.0
397,89.84941715833334,90.35556441250002,64.0,62.0
398,89.35761415833335,90.43650698958335,47.0,55.0
399,89.11171265833335,90.44572829583335,40.0,59.0
400,90.34122015833334,90.45597419166668,59.0,58.0
401,91.07892465833335,91.18240820625002,38.0,61.0
402,91.07892465833335,91.26130160416668,57.0,55.0
403,91.07892465833335,91.60044075625001,65.0,58.0
404,91.32482615833334,91.65167023541667,57.0,54.0
405,91.57072765833334,91.73158822291668,62.0,57.0
406,91.81662915833334,92.37400589166668,65.0,63.0
407,92.30843215833335,92.44982552083334,57.0,55.0
408,92.55433365833335,92.80023515833335,62.0,58.0
409,92.80023515833335,92.92830885625001,57.0,54.0
410,93.04613665833334,93.29716110625002,55.0,55.0
411,93.04613665833334,93.35146435416668,62.0,57.0
412,93.53793965833334,94.01744758333335,55.0,58.0
413,93.78384115833335,94.10248851875001,62.0,58.0
414,94.27564415833335,94.58507021250001,55.0,62.0
415,93.29203815833334,95.02461914375002,50.0,59.0
416,94.76744715833334,95.02769291250002,55.0,54.0
417,94.52154565833334,95.03281586041668,62.0,54.0
418,93.04613665833334,95.04203716666667,43.0,59.0
419,94.02974265833335,95.04716011458335,67.0,59.0
420,95.01334865833334,95.26642228541668,57.0,52.0
421,95.01334865833334,95.84019245208334,60.0,50.0
422,95.50515165833335,95.85248752708334,64.0,54.0
423,96.24285615833334,96.61990512500002,64.0,49.0
424,95.75105315833335,96.78281486875001,69.0,58.0
425,95.01334865833334,96.81355255625002,45.0,59.0
426,96.48875765833334,96.82994598958335,57.0,49.0
427,95.25925015833334,96.84838860208335,52.0,52.0
428,96.73465915833334,97.53588821250001,64.0,57.0
429,97.71826515833334,98.08199446041668,60.0,58.0
430,97.47236365833335,98.09121576666668,57.0,59.0
431,98.21006815833334,98.31560088541667,57.0,53.0
432,97.22646215833335,98.31969924375001,52.0,58.0
433,96.98056065833335,98.56047779583335,45.0,60.0
434,98.21006815833334,98.61990399166667,60.0,59.0
435,98.45596965833334,98.783838325,52.0,64.0
436,98.21006815833334,98.83199403541668,64.0,60.0
437,98.70187115833335,98.84838746875002,57.0,61.0
438,98.94777265833335,99.19982169583335,57.0,59.0
439,98.94777265833335,99.46519039791667,62.0,58.0
440,99.43957565833334,99.57482148333335,57.0,58.0
441,99.68547715833334,100.05023105000001,57.0,58.0
442,99.68547715833334,100.22133751041667,65.0,54.0
443,100.17728015833335,100.48670621250001,62.0,58.0
444,98.94777265833335,100.72031263750002,50.0,64.0
445,99.19367415833335,100.76539457916668,53.0,43.0
446,100.42318165833335,101.01129607916668,57.0,46.0
447,101.16088615833334,101.44674665208335,57.0,49.0
448,100.66908315833335,101.44879583125001,65.0,51.0
449,101.40678765833334,101.69879568958335,62.0,58.0
450,101.65268915833335,101.99182831041668,57.0,65.0
451,100.91498465833334,102.27256585625001,50.0,58.0
452,102.14449215833335,102.35658220208335,57.0,45.0
453,102.39039365833335,102.53588537916667,62.0,58.0
454,102.88219665833334,103.12297521041668,53.0,53.0
455,102.88219665833334,103.34223738125002,57.0,55.0
456,103.37399965833335,103.69981914583335,53.0,60.0
457,103.12809815833334,103.98670422916668,48.0,56.0
458,102.88219665833334,104.36272860625002,41.0,58.0
459,104.35760565833334,104.68137596666668,48.0,59.0
460,103.61990115833335,104.69059727291668,60.0,59.0
461,104.60350715833334,104.71723660208335,53.0,60.0
462,104.84940865833335,105.12297407708334,55.0,56.0
463,104.84940865833335,105.35350673333335,59.0,54.0
464,105.34121165833335,106.10760466666667,55.0,64.0
465,105.58711315833335,106.19162101250001,62.0,56.0
466,106.32481765833334,106.455965125,55.0,60.0
467,106.07891615833334,106.48875199166667,67.0,59.0
468,105.09531015833335,106.49797329791667,50.0,56.0
469,104.84940865833335,106.50514542500001,43.0,61.0
470,106.81662065833335,107.08198936041669,55.0,55.0
471,106.81662065833335,107.45391537916669,64.0,59.0
472,107.30842365833334,107.63014478750002,55.0,60.0
473,107.55432515833334,107.87912005625002,62.0,55.0
474,107.80022665833334,108.08608715208335,60.0,54.0
475,108.04612815833335,108.35043126458335,55.0,59.0
476,108.29202965833335,108.46928365625001,60.0,53.0
477,107.06252215833335,108.47748037291669,52.0,55.0
478,106.81662065833335,108.56559507708334,48.0,65.0
479,108.78383265833335,109.36477495208335,59.0,54.0
480,108.78383265833335,109.36682413125001,55.0,53.0
481,109.27563565833334,109.54817648750002,62.0,56.0
482,109.02973415833335,109.85452877291668,50.0,59.0
483,109.76743865833335,110.06456963750001,55.0,61.0
484,108.78383265833335,110.17112695416668,43.0,58.0
485,110.01334015833335,110.27153673333335,50.0,63.0
486,109.52153715833335,110.36170061666668,67.0,60.0
487,110.25924165833335,110.43649565625002,55.0,59.0
488,110.75104465833334,111.01538877083334,55.0,59.0
489,110.75104465833334,111.32276564583334,64.0,60.0
490,111.24284765833335,111.52870815208334,55.0,60.0
491,111.48874915833335,111.90370793958334,62.0,59.0
492,111.98055215833335,112.27563395833334,64.0,62.0
493,110.75104465833334,112.44776500833335,48.0,61.0
494,110.99694615833334,112.44878959791669,52.0,46.0
495,112.22645365833336,112.50924038333335,62.0,54.0
496,112.47235515833334,112.70801076250001,55.0,60.0
497,112.71825665833335,113.26948585416667,60.0,59.0
498,113.21005965833335,113.55022340000002,55.0,58.0
499,113.45596115833335,113.76846098125002,62.0,54.0
500,112.71825665833335,114.23260006250001,48.0,60.0
501,113.94776415833334,114.23772301041669,64.0,54.0
502,112.96415815833335,114.28587872083335,52.0,51.0
503,114.19366565833334,114.32993607291668,60.0,51.0
504,114.68546865833335,114.82686202083335,57.0,50.0
505,114.68546865833335,115.00309142916669,62.0,54.0
506,114.93137015833335,115.25923882500001,57.0,53.0
507,115.17727165833335,115.47337804791668,62.0,52.0
508,114.68546865833335,115.59223043958335,50.0,58.0
509,115.42317315833336,115.96005810000001,65.0,60.0
510,115.91497615833335,116.20083665208335,62.0,60.0
511,116.16087765833335,116.31149232708334,57.0,49.0
512,116.65268065833335,116.93649197291668,57.0,51.0
513,116.65268065833335,117.16600003958335,62.0,52.0
514,117.14448365833334,117.23977048958335,57.0,53.0
515,116.89858215833334,117.49591788541667,45.0,47.0
516,117.39038515833334,117.74284397500001,57.0,60.0
517,117.39038515833334,117.79202427500002,65.0,59.0
518,116.65268065833335,117.90882748750002,38.0,60.0
519,117.63628665833335,117.91190125625002,45.0,60.0
520,117.88218815833335,118.14755686041669,62.0,62.0
521,118.12808965833335,118.40882720416668,57.0,58.0
522,118.37399115833335,118.46313045208335,62.0,54.0
523,118.61989265833336,118.90370397291667,53.0,55.0
524,118.61989265833336,119.13731039791668,57.0,46.0
525,119.11169565833335,119.28894965625001,53.0,58.0
526,119.35759715833335,119.68956418333335,53.0,49.0
527,119.35759715833335,119.77358052916668,60.0,60.0
528,118.86579415833334,120.07276068750002,48.0,54.0
529,118.61989265833336,120.10964591250001,41.0,58.0
530,119.84940015833335,120.13730983125001,57.0,58.0
531,119.84940015833335,120.14755572708336,60.0,37.0
532,120.09530165833334,120.22030158750002,53.0,58.0
533,120.58710465833335,121.18034202708336,55.0,54.0
534,120.58710465833335,121.18648956458335,59.0,58.0
535,121.07890765833335,121.37501404791668,62.0,52.0
536,121.32480915833335,121.87706294375002,67.0,59.0
537,120.83300615833335,121.95390716250002,50.0,54.0
538,120.58710465833335,122.10042347291667,43.0,58.0
539,122.06251365833336,122.22644799166667,55.0,49.0
540,121.81661215833336,122.28382500833335,62.0,58.0
541,122.55431665833335,122.76640670208334,55.0,57.0
542,122.55431665833335,123.06763603958335,60.0,54.0
543,123.04611965833334,123.16907040833334,55.0,54.0
544,122.80021815833335,123.44468500625001,52.0,54.0
545,123.29202115833334,123.84632412291668,55.0,58.0
546,122.55431665833335,123.86066837708336,48.0,63.0
547,123.29202115833334,123.98361912708336,60.0,60.0
548,123.29202115833334,124.03792237500002,64.0,60.0
549,124.02972565833335,124.21415178333335,55.0,60.0
550,123.78382415833335,124.23874193333336,52.0,58.0
551,124.52152865833335,124.86579075833335,55.0,60.0
552,124.52152865833335,124.88218419166668,59.0,59.0
553,125.01333165833336,125.07583162291668,59.0,43.0
554,125.01333165833336,125.10247095208335,62.0,58.0
555,124.76743015833335,125.36271670625001,50.0,61.0
556,125.25923315833336,125.39755275208336,55.0,60.0
557,125.25923315833336,125.40062652083336,62.0,62.0
558,125.25923315833336,125.40984782708335,59.0,64.0
559,125.25923315833336,125.4692740229167,67.0,58.0
560,125.50513465833335,125.85554429583334,50.0,63.0
561,125.75103615833335,126.11374087083334,67.0,58.0
562,125.75103615833335,126.32173255625003,71.0,60.0
563,126.24283915833334,126.40062595416669,67.0,54.0
564,125.99693765833335,126.41292102916668,50.0,61.0
565,124.52152865833335,126.42111774583336,43.0,62.0
566,126.48874065833334,126.76845361458335,55.0,58.0
567,126.48874065833334,126.81763391458335,64.0,59.0
568,126.98054365833335,127.08710097500001,55.0,67.0
569,126.73464215833334,127.36476475208335,43.0,48.0
570,127.22644515833335,127.40574833541669,55.0,64.0
571,127.22644515833335,127.42214176875001,64.0,67.0
572,126.48874065833334,127.4375106125,36.0,58.0
573,127.47234665833335,127.54201875000001,43.0,59.0
574,127.71824815833335,127.84427267708335,55.0,60.0
575,127.71824815833335,127.95800212083336,60.0,59.0
576,127.96414965833335,128.12501022291667,55.0,59.0
577,128.45595265833336,128.67419023958334,55.0,59.0
578,128.45595265833336,128.79304263125002,60.0,59.0
579,128.94775565833334,129.07685394583336,55.0,60.0
580,128.70185415833333,129.32787839375,43.0,54.0
581,129.19365715833334,129.50308321250003,55.0,59.0
582,129.19365715833334,129.51742746666667,62.0,58.0
583,129.43955865833334,129.83300105833337,43.0,59.0
584,129.68546015833334,129.95595180833334,60.0,67.0
585,128.45595265833336,129.96517311458337,36.0,58.0
586,129.93136165833334,130.05636158750002,57.0,59.0
587,130.17726315833335,130.36066469375,55.0,60.0
588,130.42316465833335,130.73054153333334,57.0,57.0
589,130.91496765833335,131.05226266250003,50.0,55.0
590,131.16086915833336,131.40574606875003,57.0,59.0
591,131.16086915833336,131.83402451458335,50.0,59.0
592,130.66906615833335,132.14345056875,45.0,57.0
593,130.42316465833335,132.15369646458333,38.0,60.0
594,131.89857365833336,132.22541773541667,62.0,63.0
595,132.14447515833336,132.34734389583335,50.0,58.0
596,132.39037665833337,132.59426998541667,50.0,39.0
597,132.39037665833337,132.94877798125003,62.0,57.0
598,132.39037665833337,132.9846386166667,57.0,54.0
599,132.88217965833334,133.02869596875001,50.0,58.0
600,132.63627815833334,133.23771224375002,45.0,48.0
601,133.12808115833334,133.320704,50.0,59.0
602,133.12808115833334,133.3688597104167,57.0,58.0
603,132.39037665833337,133.44467933958336,38.0,63.0
604,133.12808115833334,133.4620973625,62.0,61.0
605,133.37398265833335,133.51640061041667,45.0,58.0
606,133.61988415833335,133.9190643166667,38.0,62.0
607,133.86578565833335,134.1373018979167,62.0,57.0
608,134.11168715833335,134.22541660208336,57.0,59.0
609,134.35758865833336,134.64652292083335,55.0,56.0
610,134.35758865833336,134.68955568333337,59.0,58.0
611,134.84939165833336,135.02357188750003,62.0,52.0
612,135.09529315833333,135.41906346666667,67.0,59.0
613,134.60349015833336,135.7295141104167,50.0,50.0
614,135.58709615833334,135.84836650208337,55.0,56.0
615,134.35758865833336,135.93648120625002,43.0,60.0
616,135.58709615833334,135.94672710208334,62.0,58.0
617,135.83299765833334,135.94775169166667,50.0,60.0
618,136.07889915833334,136.20082531875002,55.0,58.0
619,136.32480065833334,136.88832492916669,59.0,55.0
620,136.32480065833334,136.89652164583336,55.0,57.0
621,136.81660365833335,136.95799702083335,62.0,52.0
622,136.57070215833335,137.22439031250002,50.0,52.0
623,137.06250515833335,137.5440622625,67.0,57.0
624,137.06250515833335,137.59734092083335,55.0,58.0
625,136.32480065833334,137.80533260625003,43.0,59.0
626,137.55430815833336,137.81250473333336,50.0,56.0
627,137.06250515833335,137.83607029375003,62.0,59.0
628,137.80020965833336,137.92520958750004,55.0,59.0
629,138.29201265833336,138.51229941875002,55.0,59.0
630,138.29201265833336,138.841192675,64.0,58.0
631,138.78381565833337,138.90266805000002,55.0,60.0
632,139.02971715833334,139.26332358333335,55.0,59.0
633,139.02971715833334,139.44160217083333,62.0,59.0
634,139.52152015833335,139.76434788958335,60.0,59.0
635,139.76742165833335,139.88217569166667,57.0,59.0
636,138.29201265833336,140.02971659166667,48.0,60.0
637,138.53791415833336,140.06762640625,52.0,51.0
638,140.01332315833335,140.15574111041667,55.0,58.0
639,140.25922465833335,140.50819992708335,55.0,56.0
640,140.25922465833335,140.79815877916667,60.0,59.0
641,140.75102765833336,140.90164232708335,55.0,57.0
642,140.99692915833336,141.18033069375002,55.0,50.0
643,140.99692915833336,141.37910107291668,62.0,60.0
644,140.50512615833335,141.59324029583337,52.0,59.0
645,140.25922465833335,141.59631406458334,48.0,64.0
646,141.48873215833333,141.72746153125001,55.0,60.0
647,141.73463365833334,141.93852698541667,52.0,59.0
648,141.48873215833333,142.08299411666667,64.0,64.0
649,141.98053515833334,142.14446949166668,55.0,62.0
650,142.22643665833334,142.39856770833336,55.0,59.0
651,142.22643665833334,142.55123155625,60.0,59.0
652,142.47233815833334,142.6393462604167,55.0,56.0
653,142.71823965833335,142.83914122916667,60.0,50.0
654,142.22643665833334,143.1506164625,48.0,61.0
655,142.96414115833335,143.29508359375,60.0,61.0
656,142.96414115833335,143.31352620625,55.0,58.0
657,142.96414115833335,143.4047146791667,64.0,61.0
658,143.45594415833335,143.63012438750002,55.0,54.0
659,143.45594415833335,143.7766406979167,60.0,58.0
660,143.70184565833335,143.9948782791667,55.0,59.0
661,144.19364865833336,144.28278795208337,36.0,59.0
662,144.19364865833336,144.36577970833335,55.0,57.0
663,144.19364865833336,144.51229601875002,60.0,53.0
664,144.43955015833336,144.73770572708335,55.0,56.0
665,144.68545165833336,144.82172207291669,60.0,49.0
666,144.93135315833337,145.18647596458334,55.0,58.0
667,144.93135315833337,145.2284841375,64.0,63.0
668,145.42315615833334,145.71926254791668,55.0,59.0
669,145.66905765833334,145.78073792291667,48.0,65.0
670,145.42315615833334,145.84426247708336,60.0,61.0
671,145.91495915833335,146.02561483333335,55.0,58.0
672,146.16086065833335,146.37192611250003,57.0,50.0
673,146.16086065833335,146.43749984583334,62.0,53.0
674,146.65266365833335,146.75819638541668,57.0,51.0
675,146.89856515833335,147.05327818541667,65.0,59.0
676,146.89856515833335,147.06147490208335,57.0,58.0
677,147.39036815833336,147.6260237625,62.0,61.0
678,147.63626965833336,147.76639253541668,57.0,56.0
679,146.40676215833335,147.7797122,45.0,57.0
680,146.16086065833335,147.79713022291668,38.0,60.0
681,148.12807265833334,148.37704792708337,57.0,52.0
682,148.12807265833334,148.65573629375,62.0,53.0
683,148.61987565833334,148.68237562291668,57.0,38.0
684,148.37397415833334,149.06147376875003,45.0,51.0
685,148.86577715833334,149.22130974375003,57.0,59.0
686,148.86577715833334,149.34016213541668,65.0,59.0
687,149.11167865833335,149.48667844583335,45.0,49.0
688,148.12807265833334,149.57479315,38.0,61.0
689,149.35758015833335,149.58606363541668,62.0,61.0
690,149.60348165833335,149.90061263750002,57.0,59.0
691,149.84938315833335,149.95901424375,62.0,59.0
692,150.09528465833336,150.37192384583335,55.0,62.0
693,150.58708765833336,150.75307117083335,62.0,49.0
694,150.83298915833336,151.1444643916667,67.0,59.0
695,150.83298915833336,151.14856275000002,55.0,56.0
696,151.32479215833337,151.49692320833336,62.0,54.0
697,151.32479215833337,151.50921828333335,55.0,53.0
698,150.09528465833336,151.58811168125,43.0,58.0
699,150.34118615833336,151.61475101041668,50.0,58.0
700,152.06249665833334,152.32479159166667,55.0,55.0
701,152.06249665833334,152.40368498958335,59.0,55.0
702,152.55429965833335,152.71003727500002,62.0,56.0
703,152.80020115833335,153.03278299375,67.0,58.0
704,152.80020115833335,153.0717173979167,55.0,59.0
705,153.29200415833336,153.40675819166668,55.0,58.0
706,152.30839815833335,153.4415942375,50.0,57.0
707,152.06249665833334,153.47335651458337,43.0,59.0
708,153.29200415833336,153.63011872083337,62.0,58.0
709,153.53790565833336,153.70491376041667,55.0,58.0
710,154.02970865833333,154.12089713125002,36.0,56.0
711,154.02970865833333,154.3109029166667,55.0,58.0
712,154.02970865833333,154.4555305,60.0,55.0
713,154.5247451291667,154.59292670416667,55.0,47.0
714,154.77267812916668,154.81090113333335,55.0,38.0
715,154.77267812916668,155.12598265416668,64.0,59.0
716,155.26854412916668,155.5309398875,60.0,59.0
717,154.5247451291667,155.56193151250002,48.0,54.0
718,155.51647712916667,155.67866663333334,55.0,59.0
719,156.01234312916668,156.15283849583335,55.0,51.0
720,156.01234312916668,156.31709410833335,60.0,53.0
721,156.26027612916667,156.54023380833334,55.0,55.0
722,156.5082091291667,156.56812627083335,60.0,44.0
723,156.75614212916668,157.08878557083335,55.0,60.0
724,156.75614212916668,157.12907468333336,64.0,61.0
725,157.25200812916668,157.40490014583335,55.0,55.0
726,157.49994112916667,157.96791466666667,55.0,51.0
727,157.25200812916668,157.99684018333335,60.0,57.0
728,156.01234312916668,158.019567375,48.0,59.0
729,158.49163927083333,158.77135222708336,55.0,58.0
730,158.49163927083333,158.82053252708334,64.0,59.0
731,158.98344227083334,159.08999958750002,55.0,67.0
732,158.73754077083333,159.36766336458334,43.0,48.0
733,159.22934377083334,159.40864694791668,55.0,64.0
734,159.22934377083334,159.42504038125,64.0,67.0
735,158.49163927083333,159.440409225,36.0,58.0
736,159.47524527083334,159.5449173625,43.0,59.0
737,159.72114677083334,159.84717128958334,55.0,60.0
738,159.72114677083334,159.96090073333335,60.0,59.0
739,159.96704827083335,160.1279088354167,55.0,59.0
740,160.45885127083335,160.67708885208333,55.0,59.0
741,160.45885127083335,160.79594124375,60.0,59.0
742,160.95065427083335,161.07975255833335,55.0,60.0
743,160.70475277083335,161.33077700625,43.0,54.0
744,161.19655577083336,161.50598182500002,55.0,59.0
745,161.19655577083336,161.52032607916667,62.0,58.0
746,161.44245727083333,161.83589967083336,43.0,59.0
747,161.68835877083333,161.95885042083333,60.0,67.0
748,160.45885127083335,161.96807172708336,36.0,58.0
749,161.93426027083333,162.0592602,57.0,59.0
750,162.18016177083334,162.36356330625,55.0,60.0
751,162.42606327083334,162.73344014583336,57.0,57.0
752,162.91786627083334,163.05516127500002,50.0,55.0
753,163.16376777083335,163.40864468125,57.0,59.0
754,163.16376777083335,163.83692312708334,50.0,59.0
755,162.67196477083334,164.14634918125,45.0,57.0
756,162.42606327083334,164.15659507708335,38.0,60.0
757,163.90147227083335,164.2283163479167,62.0,63.0
758,164.14737377083335,164.35024250833334,50.0,58.0
759,164.39327527083336,164.59716859791666,50.0,39.0
760,164.39327527083336,164.95167659375002,62.0,57.0
761,164.39327527083336,164.98753722916666,57.0,54.0
762,164.88507827083333,165.03159458125,50.0,58.0
763,164.63917677083333,165.24061085625002,45.0,48.0
764,165.13097977083333,165.3236026125,50.0,59.0
765,165.13097977083333,165.37175832291666,57.0,58.0
766,164.39327527083336,165.44757795208335,38.0,63.0
767,165.13097977083333,165.46499597500002,62.0,61.0
768,165.37688127083334,165.5192992229167,45.0,58.0
769,165.62278277083334,165.92196292916668,38.0,62.0
770,165.86868427083334,166.1402005104167,62.0,57.0
771,166.11458577083334,166.22831521458335,57.0,59.0
772,166.36048727083335,166.64942153333334,55.0,56.0
773,166.36048727083335,166.69245429583333,59.0,58.0
774,166.85229027083335,167.02647050000002,62.0,52.0
775,167.09819177083335,167.4219620791667,67.0,59.0
776,166.60638877083335,167.73241272291668,50.0,50.0
777,167.58999477083336,167.85126511458336,55.0,56.0
778,166.36048727083335,167.93937981875,43.0,60.0
779,167.58999477083336,167.94962571458333,62.0,58.0
780,167.83589627083333,167.9506503041667,50.0,60.0
781,168.08179777083333,168.20372393125,55.0,58.0
782,168.32769927083334,168.89122354166668,59.0,55.0
783,168.32769927083334,168.89942025833335,55.0,57.0
784,168.81950227083334,168.96089563333334,62.0,52.0
785,168.57360077083334,169.227288925,50.0,52.0
786,169.06540377083334,169.54696087500002,67.0,57.0
787,169.06540377083334,169.60023953333334,55.0,58.0
788,168.32769927083334,169.80823121875002,43.0,59.0
789,169.55720677083335,169.81540334583335,50.0,56.0
790,169.06540377083334,169.83896890625002,62.0,59.0
791,169.80310827083335,169.9281082,55.0,59.0
792,170.29491127083335,170.51519803125,55.0,59.0
793,170.29491127083335,170.84409128750002,64.0,58.0
794,170.78671427083333,170.9055666625,55.0,60.0
795,171.03261577083333,171.26622219583334,55.0,59.0
796,171.03261577083333,171.44450078333335,62.0,59.0
797,171.52441877083334,171.76724650208334,60.0,59.0
798,171.77032027083334,171.88507430416666,57.0,59.0
799,170.29491127083335,172.0326152041667,48.0,60.0
800,170.54081277083336,172.07052501875,52.0,51.0
801,172.01622177083334,172.1586397229167,55.0,58.0
802,172.26212327083334,172.51109853958334,55.0,56.0
803,172.26212327083334,172.8010573916667,60.0,59.0
804,172.75392627083335,172.90454093958334,55.0,57.0
805,172.99982777083335,173.18322930625,55.0,50.0
806,172.99982777083335,173.38199968541667,62.0,60.0
807,172.50802477083334,173.59613890833333,52.0,59.0
808,172.26212327083334,173.59921267708336,48.0,64.0
809,173.49163077083335,173.73036014375,55.0,60.0
810,173.73753227083336,173.9414255979167,52.0,59.0
811,173.49163077083335,174.0858927291667,64.0,64.0
812,173.98343377083336,174.14736810416667,55.0,62.0
813,174.22933527083333,174.40146632083335,55.0,59.0
814,174.22933527083333,174.55413016875002,60.0,59.0
815,174.47523677083333,174.64224487291668,55.0,56.0
816,174.72113827083334,174.8420398416667,60.0,50.0
817,174.22933527083333,175.153515075,48.0,61.0
818,174.96703977083334,175.29798220625003,60.0,61.0
819,174.96703977083334,175.31642481875002,55.0,58.0
820,174.96703977083334,175.40761329166668,64.0,61.0
821,175.45884277083334,175.633023,55.0,54.0
822,175.45884277083334,175.77953931041668,60.0,58.0
823,175.70474427083334,175.9977768916667,55.0,59.0
824,176.19654727083335,176.28568656458333,36.0,59.0
825,176.19654727083335,176.36867832083334,55.0,57.0
826,176.19654727083335,176.51519463125,60.0,53.0
827,176.44244877083335,176.74060433958334,55.0,56.0
828,176.68835027083335,176.82462068541668,60.0,49.0
829,176.93425177083336,177.18937457708336,55.0,58.0
830,176.93425177083336,177.23138275000002,64.0,63.0
831,177.42605477083333,177.72216116041668,55.0,59.0
832,177.67195627083333,177.7836365354167,48.0,65.0
833,177.42605477083333,177.84716108958335,60.0,61.0
834,177.91785777083334,178.02851344583334,55.0,58.0
835,178.16375927083334,178.374824725,57.0,50.0
836,178.16375927083334,178.44039845833333,62.0,53.0
837,178.65556227083334,178.76109499791667,57.0,51.0
838,178.90146377083335,179.0561767979167,65.0,59.0
839,178.90146377083335,179.06437351458334,57.0,58.0
840,179.39326677083335,179.628922375,62.0,61.0
841,179.63916827083335,179.76929114791668,57.0,56.0
842,178.40966077083334,179.78261081250002,45.0,57.0
843,178.16375927083334,179.80002883541667,38.0,60.0
844,180.13097127083336,180.37994653958333,57.0,52.0
845,180.13097127083336,180.65863490625,62.0,53.0
846,180.62277427083336,180.68527423541667,57.0,38.0
847,180.37687277083336,181.06437238125002,45.0,51.0
848,180.86867577083333,181.22420835625002,57.0,59.0
849,180.86867577083333,181.34306074791667,65.0,59.0
850,181.11457727083334,181.48957705833334,45.0,49.0
851,180.13097127083336,181.57769176250002,38.0,61.0
852,181.36047877083334,181.58896224791667,62.0,61.0
853,181.60638027083334,181.90351125,57.0,59.0
854,181.85228177083334,181.96191285625002,62.0,59.0
855,182.09818327083335,182.37482245833334,55.0,62.0
856,182.58998627083335,182.75596978333334,62.0,49.0
857,182.83588777083335,183.14736300416666,67.0,59.0
858,182.83588777083335,183.15146136250002,55.0,56.0
859,183.32769077083336,183.49982182083335,62.0,54.0
860,183.32769077083336,183.51211689583334,55.0,53.0
861,182.09818327083335,183.59101029375,43.0,58.0
862,182.34408477083335,183.61764962291667,50.0,58.0
863,184.06539527083333,184.3276902041667,55.0,55.0
864,184.06539527083333,184.40658360208334,59.0,55.0
865,184.55719827083334,184.7129358875,62.0,56.0
866,184.80309977083334,185.03568160625002,67.0,58.0
867,184.80309977083334,185.0746160104167,55.0,59.0
868,185.29490277083335,185.40965680416667,55.0,58.0
869,184.31129677083334,185.44449285000002,50.0,57.0
870,184.06539527083333,185.47625512708333,43.0,59.0
871,185.29490277083335,185.63301733333336,62.0,58.0
872,185.54080427083335,185.7078123729167,55.0,58.0
873,186.03260727083335,186.12411621041667,36.0,56.0
874,186.03260727083335,186.31341656041667,55.0,58.0
875,186.03260727083335,186.45744943541666,60.0,55.0
876,186.5263794541667,186.59428066666666,55.0,47.0
877,186.77329295416666,186.81135878541667,55.0,38.0
878,186.77329295416666,187.12514469166666,64.0,59.0
879,187.26711995416667,187.52843674166667,60.0,59.0
880,186.5263794541667,187.55930092916668,48.0,54.0
881,187.51403345416668,187.67555603541666,55.0,59.0
882,188.00786045416666,188.14777810416666,55.0,51.0
883,188.00786045416666,188.31135829791668,60.0,53.0
884,188.25477395416667,188.53358044791668,55.0,55.0
885,188.50168745416667,188.56135821666666,60.0,44.0
886,188.74860095416668,189.07987656666668,55.0,60.0
887,188.74860095416668,189.12000001041667,64.0,61.0
888,189.2424279541667,189.39469127916666,55.0,55.0
889,189.48934145416666,189.77020556041668,55.0,51.0
890,189.48934145416666,189.77020556041668,55.0,58.0
891,189.48934145416666,189.81958826041668,64.0,59.0
892,189.2424279541667,189.98419726041666,60.0,57.0
893,188.00786045416666,190.00683099791667,48.0,59.0
894,189.98316845416667,190.09016430416668,55.0,67.0
895,189.73625495416667,190.3689707979167,43.0,48.0
896,190.23008195416668,190.41012304791667,55.0,64.0
897,190.23008195416668,190.42658394791667,64.0,67.0
898,189.48934145416666,190.44201604166668,36.0,58.0
899,190.47699545416668,190.54695427916667,43.0,59.0
900,190.72390895416666,190.85045212291666,55.0,60.0
901,190.72390895416666,190.96464961666666,60.0,59.0
902,190.97082245416667,191.13234503541668,55.0,59.0
903,191.46464945416668,191.68378518541667,55.0,59.0
904,191.46464945416668,191.80312671041668,60.0,59.0
905,191.95847645416669,192.08810604166666,55.0,60.0
906,191.71156295416668,192.34016357291668,43.0,54.0
907,192.20538995416666,192.51608944166668,55.0,59.0
908,192.20538995416666,192.53049272916667,62.0,58.0
909,192.45230345416667,192.8473650541667,43.0,59.0
910,192.69921695416667,192.97082180416666,60.0,67.0
911,191.46464945416668,192.98008106041667,36.0,58.0
912,192.94613045416668,193.07164481666666,57.0,59.0
913,193.19304395416668,193.37720027291667,55.0,60.0
914,193.4399574541667,193.74859932916667,57.0,57.0
915,193.93378445416667,194.0716444916667,50.0,55.0
916,194.18069795416667,194.42658264791666,57.0,59.0
917,194.18069795416667,194.8566236604167,50.0,59.0
918,193.68687095416666,195.16732314791668,45.0,57.0
919,193.4399574541667,195.17761121041667,38.0,60.0
920,194.92143845416666,195.24962764791667,62.0,63.0
921,195.16835195416667,195.37205559166668,50.0,58.0
922,195.41526545416667,195.61999789791668,50.0,39.0
923,195.41526545416667,195.97596486041667,62.0,57.0
924,195.41526545416667,196.01197307916667,57.0,54.0
925,195.90909245416668,196.05621174791668,50.0,58.0
926,195.66217895416668,196.26608822291666,45.0,48.0
927,196.1560059541667,196.34942152916668,50.0,59.0
928,196.1560059541667,196.39777542291668,57.0,58.0
929,195.41526545416667,196.47390708541667,38.0,63.0
930,196.1560059541667,196.49139679166666,62.0,61.0
931,196.40291945416666,196.54592352291667,45.0,58.0
932,196.64983295416667,196.95024437916666,38.0,62.0
933,196.89674645416667,197.16938011041668,62.0,57.0
934,197.14365995416668,197.25785744791668,57.0,59.0
935,197.39057345416668,197.68069681666668,55.0,56.0
936,197.39057345416668,197.72390667916667,59.0,58.0
937,197.88440045416667,198.05929751666667,62.0,52.0
938,198.13131395416667,198.45641672916668,67.0,59.0
939,197.63748695416666,198.76814502291668,50.0,50.0
940,198.62514095416668,198.88748654791667,55.0,56.0
941,197.39057345416668,198.97596388541666,43.0,60.0
942,198.62514095416668,198.98625194791668,62.0,58.0
943,198.8720544541667,198.98728075416668,50.0,60.0
944,199.11896795416666,199.24139589791668,55.0,58.0
945,199.36588145416667,199.93172489166668,59.0,55.0
946,199.36588145416667,199.9399553416667,55.0,57.0
947,199.85970845416668,200.00168371666666,62.0,52.0
948,199.61279495416667,200.2691733416667,50.0,52.0
949,200.10662195416668,200.59016089166667,67.0,57.0
950,200.10662195416668,200.6436588166667,55.0,58.0
951,199.36588145416667,200.85250648541668,43.0,59.0
952,200.60044895416667,200.85970812916668,50.0,56.0
953,200.10662195416668,200.88337067291667,62.0,59.0
954,200.84736245416667,200.97287681666668,55.0,59.0
955,201.34118945416668,201.56238279791668,55.0,59.0
956,201.34118945416668,201.89262960416667,64.0,58.0
957,201.83501645416666,201.95435797916667,55.0,60.0
958,202.08192995416667,202.31649777916667,55.0,59.0
959,202.08192995416667,202.49551006666667,62.0,59.0
960,202.57575695416668,202.81958403541668,60.0,59.0
961,202.82267045416668,202.93789675416667,57.0,59.0
962,201.34118945416668,203.0860448541667,48.0,60.0
963,201.5881029541667,203.12411068541667,52.0,51.0
964,203.06958395416666,203.21258802291666,55.0,58.0
965,203.31631192083333,203.56528718958333,55.0,56.0
966,203.31631192083333,203.85524604166667,60.0,59.0
967,203.80811492083333,203.95872958958333,55.0,57.0
968,204.05401642083334,204.23741795625,55.0,50.0
969,204.05401642083334,204.43618833541666,62.0,60.0
970,203.56221342083333,204.65032755833332,52.0,59.0
971,203.31631192083333,204.65340132708332,48.0,64.0
972,204.54581942083334,204.78454879375,55.0,60.0
973,204.79172092083334,204.99561424791665,52.0,59.0
974,204.54581942083334,205.14008137916667,64.0,64.0
975,205.03762242083332,205.20155675416666,55.0,62.0
976,205.28352392083332,205.45565497083334,55.0,59.0
977,205.28352392083332,205.60831881875,60.0,59.0
978,205.52942542083332,205.69643352291666,55.0,56.0
979,205.77532692083332,205.89622849166668,60.0,50.0
980,205.28352392083332,206.207703725,48.0,61.0
981,206.02122842083332,206.35217085624998,60.0,61.0
982,206.02122842083332,206.37061346875,55.0,58.0
983,206.02122842083332,206.46180194166666,64.0,61.0
984,206.51303142083333,206.68721165,55.0,54.0
985,206.51303142083333,206.83372796041667,60.0,58.0
986,206.75893292083333,207.05196554166668,55.0,59.0
987,207.25073592083334,207.33987521458334,36.0,59.0
988,207.25073592083334,207.42286697083333,55.0,57.0
989,207.25073592083334,207.56938328125,60.0,53.0
990,207.49663742083334,207.79479298958333,55.0,56.0
991,207.74253892083334,207.87880933541666,60.0,49.0
992,207.98844042083334,208.24356322708334,55.0,58.0
993,207.98844042083334,208.2855714,64.0,63.0
994,208.48024342083332,208.77634981041666,55.0,59.0
995,208.72614492083332,208.83782518541668,48.0,65.0
996,208.48024342083332,208.90134973958334,60.0,61.0
997,208.97204642083332,209.08270209583333,55.0,58.0
998,209.21794792083332,209.429013375,57.0,50.0
999,209.21794792083332,209.49458710833332,62.0,53.0
1000,209.70975092083333,209.81528364791666,57.0,51.0
1001,209.95565242083333,210.11036544791665,65.0,59.0
1002,209.95565242083333,210.11856216458332,57.0,58.0
1003,210.44745542083334,210.683111025,62.0,61.0
1004,210.69335692083334,210.82347979791666,57.0,56.0
1005,209.46384942083333,210.83679946249998,45.0,57.0
1006,209.21794792083332,210.85421748541665,38.0,60.0
1007,211.18515992083334,211.43413518958334,57.0,52.0
1008,211.18515992083334,211.71282355625,62.0,53.0
1009,211.67696292083332,211.73946288541666,57.0,38.0
1010,211.43106142083332,212.11856103125,45.0,51.0
1011,211.92286442083332,212.27839700625,57.0,59.0
1012,211.92286442083332,212.39724939791665,65.0,59.0
1013,212.16876592083332,212.54376570833332,45.0,49.0
1014,211.18515992083334,212.6318804125,38.0,61.0
1015,212.41466742083333,212.64315089791666,62.0,61.0
1016,212.66056892083333,212.9576999,57.0,59.0
1017,212.90647042083333,213.01610150625,62.0,59.0
1018,213.15237192083333,213.42901110833333,55.0,62.0
1019,213.64417492083334,213.81015843333333,62.0,49.0
1020,213.89007642083334,214.20155165416668,67.0,59.0
1021,213.89007642083334,214.2056500125,55.0,56.0
1022,214.38187942083334,214.55401047083333,62.0,54.0
1023,214.38187942083334,214.56630554583333,55.0,53.0
1024,213.15237192083333,214.64519894375,43.0,58.0
1025,213.39827342083333,214.67183827291666,50.0,58.0
1026,215.11958392083332,215.38187885416667,55.0,55.0
1027,215.11958392083332,215.46077225208333,59.0,55.0
1028,215.61138692083333,215.7671245375,62.0,56.0
1029,215.85728842083333,216.08987025625,67.0,58.0
1030,215.85728842083333,216.12880466041668,55.0,59.0
1031,216.34909142083333,216.46384545416666,55.0,58.0
1032,215.36548542083332,216.4986815,50.0,57.0
1033,215.11958392083332,216.53044377708332,43.0,59.0
1034,216.34909142083333,216.68720598333334,62.0,58.0
1035,216.59499292083333,216.76200102291665,55.0,58.0
1036,217.08679592083334,217.17798439375,36.0,56.0
1037,217.08679592083334,217.36650887708333,55.0,58.0
1038,217.08679592083334,217.50995141875,60.0,55.0
1039,217.57859892083334,217.64622183333333,55.0,47.0
1040,217.82450042083332,217.86241023541666,55.0,38.0
1041,217.82450042083332,218.17491005833332,64.0,59.0
1042,218.31630342083332,218.576549175,60.0,59.0
1043,217.57859892083334,218.6072868625,48.0,54.0
1044,218.56220492083332,218.72306548541667,55.0,59.0
1045,219.05400792083333,219.19335210416665,55.0,51.0
1046,219.05400792083333,219.35626184791667,60.0,53.0
1047,219.29990942083333,219.57757319791665,55.0,55.0
1048,219.54581092083333,219.60523711666667,60.0,44.0
1049,219.79171242083333,220.12163026666667,55.0,60.0
1050,219.79171242083333,220.16158926041666,64.0,61.0
1051,220.28351542083334,220.43515467916666,55.0,55.0
1052,220.52941692083334,220.99355600208332,55.0,51.0
1053,220.28351542083334,221.02224451041667,60.0,57.0
1054,219.05400792083333,221.04478548125,48.0,59.0
1055,221.02121992083335,221.30093287708334,55.0,58.0
1056,221.02121992083335,221.35011317708333,64.0,59.0
1057,221.51302292083332,221.6195802375,55.0,67.0
1058,221.26712142083332,221.89724401458332,43.0,48.0
1059,221.75892442083332,221.93822759791666,55.0,64.0
1060,221.75892442083332,221.95462103124999,64.0,67.0
1061,221.02121992083335,221.969989875,36.0,58.0
1062,222.00482592083333,222.0744980125,43.0,59.0
1063,222.25072742083333,222.37675193958333,55.0,60.0
1064,222.25072742083333,222.49048138333333,60.0,59.0
1065,222.49662892083333,222.65748948541668,55.0,59.0
1066,222.98843192083334,223.20666950208334,55.0,59.0
1067,222.98843192083334,223.32552189375,60.0,59.0
1068,223.48023492083334,223.60933320833334,55.0,60.0
1069,223.23433342083334,223.86035765625,43.0,54.0
1070,223.72613642083334,224.035562475,55.0,59.0
1071,223.72613642083334,224.04990672916665,62.0,58.0
1072,223.97203792083334,224.36548032083334,43.0,59.0
1073,224.21793942083332,224.48843107083334,60.0,67.0
1074,222.98843192083334,224.49765237708334,36.0,58.0
1075,224.46384092083332,224.58884085,57.0,59.0
1076,224.70974242083332,224.89314395625001,55.0,60.0
1077,224.95564392083332,225.26302079583334,57.0,57.0
1078,225.44744692083333,225.584741925,50.0,55.0
1079,225.69334842083333,225.93822533125,57.0,59.0
1080,225.69334842083333,226.36650377708332,50.0,59.0
1081,225.20154542083333,226.67592983125,45.0,57.0
1082,224.95564392083332,226.68617572708334,38.0,60.0
1083,226.43105292083334,226.75789699791667,62.0,63.0
1084,226.67695442083334,226.87982315833332,50.0,58.0
1085,226.92285592083334,227.12674924791668,50.0,39.0
1086,226.92285592083334,227.48125724375,62.0,57.0
1087,226.92285592083334,227.51711787916668,57.0,54.0
1088,227.41465892083335,227.56117523125,50.0,58.0
1089,227.16875742083334,227.77019150625,45.0,48.0
1090,227.66056042083332,227.8531832625,50.0,59.0
1091,227.66056042083332,227.90133897291668,57.0,58.0
1092,226.92285592083334,227.97715860208334,38.0,63.0
1093,227.66056042083332,227.994576625,62.0,61.0
1094,227.90646192083332,228.04887987291667,45.0,58.0
1095,228.15236342083332,228.45154357916667,38.0,62.0
1096,228.39826492083333,228.66978116041668,62.0,57.0
1097,228.64416642083333,228.75789586458333,57.0,59.0
1098,228.89006792083333,229.17900218333332,55.0,56.0
1099,228.89006792083333,229.22203494583334,59.0,58.0
1100,229.38187092083334,229.55605115,62.0,52.0
1101,229.62777242083334,229.95154272916668,67.0,59.0
1102,229.13596942083333,230.26199337291666,50.0,50.0
1103,230.11957542083334,230.38084576458334,55.0,56.0
1104,228.89006792083333,230.46896046875,43.0,60.0
1105,230.11957542083334,230.47920636458332,62.0,58.0
1106,230.36547692083334,230.48023095416667,50.0,60.0
1107,230.61137842083332,230.73330458125,55.0,58.0
1108,230.85727992083332,231.42080419166666,59.0,55.0
1109,230.85727992083332,231.42900090833334,55.0,57.0
1110,231.34908292083333,231.49047628333332,62.0,52.0
1111,231.10318142083332,231.756869575,50.0,52.0
1112,231.59498442083333,232.076541525,67.0,57.0
1113,231.59498442083333,232.12982018333332,55.0,58.0
1114,230.85727992083332,232.33781186875,43.0,59.0
1115,232.08678742083333,232.34498399583333,50.0,56.0
1116,231.59498442083333,232.36854955625,62.0,59.0
1117,232.33268892083333,232.45768885,55.0,59.0
1118,232.82449192083334,233.04477868125,55.0,59.0
1119,232.82449192083334,233.3736719375,64.0,58.0
1120,233.31629492083334,233.4351473125,55.0,60.0
1121,233.56219642083335,233.79580284583332,55.0,59.0
1122,233.56219642083335,233.97408143333334,62.0,59.0
1123,234.05399942083332,234.29682715208332,60.0,59.0
1124,234.29990092083332,234.41465495416668,57.0,59.0
1125,232.82449192083334,234.56219585416667,48.0,60.0
1126,233.07039342083334,234.60010566875,52.0,51.0
1127,234.54580242083333,234.68822037291667,55.0,58.0
1128,234.79170392083333,235.04067918958333,55.0,56.0
1129,234.79170392083333,235.33063804166667,60.0,59.0
1130,235.28350692083333,235.43412158958333,55.0,57.0
1131,235.52940842083333,235.71280995625,55.0,50.0
1132,235.52940842083333,235.91158033541666,62.0,60.0
1133,235.03760542083333,236.12571955833334,52.0,59.0
1134,234.79170392083333,236.12879332708334,48.0,64.0
1135,236.02121142083334,236.25994079375,55.0,60.0
1136,236.26711292083334,236.47100624791668,52.0,59.0
1137,236.02121142083334,236.61547337916667,64.0,64.0
1138,236.51301442083334,236.67694875416666,55.0,62.0
1139,236.75891592083332,236.93104697083334,55.0,59.0
1140,236.75891592083332,237.08371081875,60.0,59.0
1141,237.00481742083332,237.17182552291666,55.0,56.0
1142,237.25071892083332,237.37162049166668,60.0,50.0
1143,236.75891592083332,237.683095725,48.0,61.0
1144,237.49662042083332,237.82756285624998,60.0,61.0
1145,237.49662042083332,237.84600546875,55.0,58.0
1146,237.49662042083332,237.93719394166666,64.0,61.0
1147,237.98842342083333,238.16260365,55.0,54.0
1148,237.98842342083333,238.30911996041667,60.0,58.0
1149,238.23432492083333,238.52735754166667,55.0,59.0
1150,238.72612792083333,238.81526721458334,36.0,59.0
1151,238.72612792083333,238.89825897083333,55.0,57.0
1152,238.72612792083333,239.04477528125,60.0,53.0
1153,238.97202942083334,239.27018498958333,55.0,56.0
1154,239.21793092083334,239.35420133541666,60.0,49.0
1155,239.46383242083334,239.71895522708334,55.0,58.0
1156,239.46383242083334,239.7609634,64.0,63.0
1157,239.95563542083335,240.25174181041666,55.0,59.0
1158,240.20153692083335,240.31321718541668,48.0,65.0
1159,239.95563542083335,240.37674173958334,60.0,61.0
1160,240.44743842083335,240.55809409583333,55.0,58.0
1161,240.69333992083332,240.904405375,57.0,50.0
1162,240.69333992083332,240.96997910833335,62.0,53.0
1163,241.18514292083333,241.29067564791666,57.0,51.0
1164,241.43104442083333,241.58575744791668,65.0,59.0
1165,241.43104442083333,241.59395416458335,57.0,58.0
1166,241.92284742083334,242.15850302500002,62.0,61.0
1167,242.16874892083334,242.29887179791666,57.0,56.0
1168,240.93924142083333,242.3121914625,45.0,57.0
1169,240.69333992083332,242.32960948541665,38.0,60.0
1170,242.66055192083334,242.90952718958334,57.0,52.0
1171,242.66055192083334,243.18821555625,62.0,53.0
1172,243.15235492083332,243.21485488541668,57.0,38.0
1173,242.90645342083334,243.59395303125,45.0,51.0
1174,243.39825642083332,243.75378900625,57.0,59.0
1175,243.39825642083332,243.87264139791665,65.0,59.0
1176,243.64415792083332,244.01915770833332,45.0,49.0
1177,242.66055192083334,244.1072724125,38.0,61.0
1178,243.89005942083332,244.11854289791665,62.0,61.0
1179,244.13596092083333,244.4330919,57.0,59.0
1180,244.38186242083333,244.49149350625,62.0,59.0
1181,244.62776392083333,244.90440310833333,55.0,62.0
1182,245.11956692083334,245.28555043333333,62.0,49.0
1183,245.36546842083334,245.67694365416668,67.0,59.0
1184,245.36546842083334,245.6810420125,55.0,56.0
1185,245.85727142083334,246.02940247083333,62.0,54.0
1186,245.85727142083334,246.04169754583333,55.0,53.0
1187,244.62776392083333,246.12059094375002,43.0,58.0
1188,244.87366542083333,246.14723027291666,50.0,58.0
1189,246.59497592083335,246.85727085416667,55.0,55.0
1190,246.59497592083335,246.93616425208333,59.0,55.0
1191,247.08677892083332,247.2425165375,62.0,56.0
1192,247.33268042083333,247.56526225625,67.0,58.0
1193,247.33268042083333,247.60419666041668,55.0,59.0
1194,247.82448342083333,247.93923745416666,55.0,58.0
1195,246.84087742083335,247.9740735,50.0,57.0
1196,246.59497592083335,248.00583577708335,43.0,59.0
1197,247.82448342083333,248.16259798333334,62.0,58.0
1198,248.07038492083333,248.23739302291668,55.0,58.0
1199,248.56218792083334,248.65337639375,36.0,56.0
1200,248.56218792083334,248.84190087708333,55.0,58.0
1201,248.56218792083334,248.98534341875,60.0,55.0
1202,249.05399092083334,249.12161383333333,55.0,47.0
1203,249.29989242083334,249.33780223541666,55.0,38.0
1204,249.29989242083334,249.65030205833335,64.0,59.0
1205,249.79169542083332,250.051941175,60.0,59.0
1206,249.05399092083334,250.08267886250002,48.0,54.0
1207,250.03759692083332,250.19845748541667,55.0,59.0
1208,250.445383575,252.25173501041667,36.0,52.0
1209,250.44026062708332,252.26915303333334,48.0,48.0
1210,250.519154025,252.28862023541666,52.0,48.0
1211,250.5498917125,252.31013661666668,55.0,46.0
