,start,end,pitch,velocity
0,10.655961860416667,11.591857447916667,62.0,68.0
1,9.886732610416667,11.78843825625,43.0,85.0
2,10.143142360416666,11.91664313125,50.0,56.0
3,10.399552110416666,12.2051041,55.0,72.0
4,11.681600860416667,12.497838564583333,67.0,69.0
5,11.681600860416667,12.540573522916667,62.0,36.0
6,12.450830110416666,12.54484701875,55.0,55.0
7,12.707239860416667,13.363221470833333,62.0,74.0
8,12.707239860416667,13.399546185416666,55.0,74.0
9,11.938010610416667,13.559802279166666,43.0,72.0
10,12.194420360416666,13.587580002083333,50.0,61.0
11,13.989288610416667,14.324758033333334,55.0,64.0
12,13.989288610416667,14.5512533125,62.0,67.0
13,14.502108110416666,14.86535525625,55.0,61.0
14,14.758517860416667,15.615353774999999,62.0,68.0
15,13.989288610416667,15.878173768749999,43.0,80.0
16,14.245698360416666,15.914498483333333,50.0,64.0
17,15.784156860416667,16.35253180625,55.0,63.0
18,15.784156860416667,16.6153518,62.0,68.0
19,15.784156860416667,16.670907245833334,67.0,66.0
20,16.553386110416668,17.00637666875,55.0,70.0
21,16.809795860416667,17.055521870833335,62.0,70.0
22,17.322615360416666,17.450820235416668,55.0,83.0
23,17.322615360416666,17.89740055,67.0,80.0
24,16.040566610416665,17.940135508333334,43.0,85.0
25,16.296976360416668,17.959366239583332,50.0,66.0
26,17.579025110416666,17.985007214583334,55.0,87.0
27,18.091844610416665,18.40594655416667,55.0,74.0
28,18.091844610416665,18.643125572916666,62.0,68.0
29,18.604664110416667,18.735005733333335,55.0,69.0
30,18.861073860416667,19.252098729166665,67.0,80.0
31,18.861073860416667,19.30124393125,55.0,72.0
32,19.630303110416666,19.726456766666665,55.0,72.0
33,18.091844610416665,19.982866516666668,43.0,93.0
34,18.348254360416668,20.00637074375,50.0,60.0
35,19.886712860416665,20.40380585625,55.0,83.0
36,19.630303110416666,20.459361302083334,62.0,80.0
37,20.655942110416667,21.014915760416667,55.0,65.0
38,20.912351860416667,21.4743165625,62.0,80.0
39,20.399532360416668,22.049101752083335,50.0,59.0
40,20.14312261041667,22.0512385,43.0,90.0
41,21.681581110416666,22.433716377083332,55.0,66.0
42,21.425171360416666,22.435853125,67.0,87.0
43,21.937990860416665,22.4743145875,62.0,68.0
44,22.707220110416667,22.905937666666667,55.0,66.0
45,22.963629860416667,23.472175864583335,62.0,80.0
46,23.476449360416666,23.824739270833334,55.0,58.0
47,22.19440061041667,24.128157475,43.0,80.0
48,22.450810360416668,24.145251458333334,50.0,58.0
49,23.989268860416665,24.46149015,55.0,87.0
50,23.732859110416666,24.74995111875,62.0,93.0
51,24.758498110416667,25.074736802083333,55.0,69.0
52,25.014907860416667,25.196531433333334,62.0,70.0
53,25.527727360416666,25.79268410208333,67.0,87.0
54,25.784137110416665,26.027726372916668,55.0,69.0
55,24.245678610416668,26.138837264583334,43.0,93.0
56,24.502088360416668,26.155931247916666,50.0,61.0
57,26.040546860416665,26.83969058125,62.0,72.0
58,26.809776110416667,27.158066020833335,55.0,72.0
59,27.066185860416667,27.42729625833333,67.0,80.0
60,27.579005360416666,27.861056085416667,62.0,87.0
61,26.296956610416668,28.13455981875,43.0,87.0
62,27.835415110416665,28.143106810416665,55.0,93.0
63,26.553366360416668,28.15379055,50.0,61.0
64,28.091824860416665,28.918746304166667,62.0,80.0
65,28.861054110416667,29.277719954166667,55.0,72.0
66,29.117463860416667,29.337548895833333,67.0,74.0
67,29.630283360416666,29.888829858333334,62.0,87.0
68,29.886693110416665,30.111051641666666,55.0,87.0
69,28.604644360416668,30.13455586875,50.0,58.0
70,28.348234610416668,30.196521558333334,43.0,80.0
71,30.143102860416665,30.991391783333334,62.0,80.0
72,30.912332110416667,31.24566478541667,55.0,68.0
73,31.168741860416667,31.484980552083332,67.0,80.0
74,31.681561360416666,31.931560866666665,62.0,80.0
75,31.937971110416665,32.17515012916667,55.0,87.0
76,30.655922360416668,32.23497907083333,50.0,55.0
77,30.399512610416668,32.23711581875,43.0,93.0
78,32.194380860416665,32.995661329166666,62.0,83.0
79,32.96361011041667,33.52343806458333,55.0,70.0
80,33.22001986041666,33.615318225,62.0,80.0
81,33.22001986041666,33.792668302083335,67.0,67.0
82,33.73283936041667,34.05335154791667,55.0,80.0
83,32.707200360416664,34.27984682708333,50.0,59.0
84,32.45079061041667,34.29266731458333,43.0,80.0
85,33.989249110416665,34.420872189583335,62.0,83.0
86,34.24565886041667,34.435829425,55.0,66.0
87,35.01488811041666,35.35463102916667,55.0,102.0
88,34.502068610416664,36.367449541666666,43.0,93.0
89,34.75847836041667,36.38240677708333,50.0,56.0
90,35.27129786041667,36.6794147375,62.0,87.0
91,36.04052711041667,36.822576847916665,67.0,68.0
92,36.296936860416665,36.87813229375,55.0,74.0
93,37.06616611041667,37.19864448125,55.0,74.0
94,36.55334661041667,38.33966786875,43.0,83.0
95,36.809756360416664,38.375992583333336,50.0,65.0
96,37.32257586041667,38.64308607291667,55.0,87.0
97,37.32257586041667,38.6794107875,62.0,85.0
98,39.11744411041666,40.17513432916667,55.0,72.0
99,39.373853860416666,40.2178692875,62.0,80.0
100,40.14308311041667,40.41445009583333,67.0,85.0
101,38.604624610416664,40.54479171875,43.0,87.0
102,38.86103436041667,40.55333871041667,50.0,56.0
103,40.399492860416665,40.559748954166665,55.0,69.0
104,40.65590261041667,40.94009008333333,55.0,74.0
105,40.65590261041667,41.0383804875,62.0,69.0
106,41.16872211041667,41.35034568333333,55.0,64.0
107,40.912312360416664,41.59179819791667,50.0,61.0
108,41.93795136041667,42.18795086666667,50.0,56.0
109,40.65590261041667,42.19863460625,43.0,90.0
110,41.42513186041667,42.202908102083335,62.0,80.0
111,42.194361110416665,42.386668422916664,55.0,83.0
112,43.22000011041666,43.553332785416664,55.0,74.0
113,42.707180610416664,43.9614516375,39.0,83.0
114,42.96359036041667,43.97213537708333,46.0,53.0
115,43.476409860416666,44.00632334375,63.0,80.0
116,43.989229360416665,44.226408379166664,58.0,74.0
117,44.24563911041667,44.3973482125,55.0,93.0
118,45.27127811041667,45.53196135625,57.0,87.0
119,44.75845861041667,46.239224916666664,38.0,90.0
120,45.01486836041666,46.24990865625,45.0,68.0
121,45.52768786041667,46.27554963125,62.0,90.0
122,46.296917110416665,46.54477986875,57.0,87.0
123,46.55332686041667,47.24990668125,62.0,87.0
124,47.32255611041666,48.068281133333336,53.0,74.0
125,46.809736610416664,48.33751137083333,41.0,85.0
126,47.06614636041667,48.35674210208333,48.0,64.0
127,48.091785360416665,48.3973403125,60.0,87.0
128,48.34819511041667,48.67298079375,53.0,87.0
129,47.578965860416666,48.7050320125,65.0,85.0
130,48.604604860416664,48.884518837499996,60.0,80.0
131,49.63024386041667,49.84391865208333,58.0,87.0
132,49.37383411041667,50.18579831875,51.0,69.0
133,50.14306336041667,50.55759245625,55.0,70.0
134,48.86101461041667,50.707164810416664,39.0,68.0
135,50.65588286041667,50.724258793749996,55.0,24.0
136,49.11742436041666,50.743489525,46.0,52.0
137,50.65588286041667,51.20289032708333,63.0,83.0
138,51.42511211041667,51.5255392625,51.0,80.0
139,50.912292610416664,52.2178455875,39.0,85.0
140,51.16870236041667,52.2178455875,46.0,67.0
141,51.681521860416666,52.305452252083334,51.0,95.0
142,51.681521860416666,52.3204094875,58.0,68.0
143,52.45075111041667,52.559725254166665,55.0,74.0
144,52.96357061041667,53.561860027083334,58.0,68.0
145,52.96357061041667,53.563996775,55.0,63.0
146,53.476390110416666,53.75416733958333,62.0,70.0
147,53.73279986041667,54.375960983333336,67.0,95.0
148,54.502029110416665,54.60031951458333,55.0,87.0
149,52.96357061041667,54.831088289583334,43.0,93.0
150,53.21998036041666,54.835361785416666,50.0,68.0
151,54.75843886041667,54.999891375,55.0,83.0
152,54.502029110416665,55.01057511458333,62.0,83.0
153,55.27125836041667,55.60672778333333,55.0,80.0
154,55.52766811041667,55.75416338958333,60.0,68.0
155,55.784077860416666,56.410145,63.0,90.0
156,55.014848610416664,56.91655425625,48.0,87.0
157,56.296897360416665,57.10458807291667,55.0,68.0
158,57.32253636041666,57.632364808333335,55.0,80.0
159,57.578946110416666,57.700740741666664,60.0,69.0
160,57.83535586041667,58.1152698375,63.0,95.0
161,58.34817536041667,58.568260395833335,60.0,90.0
162,57.06612661041667,58.638773077083336,48.0,90.0
163,58.604585110416664,58.80116591875,55.0,80.0
164,58.86099486041667,59.01056721458333,60.0,72.0
165,59.11740461041666,59.37808785625,55.0,83.0
166,59.11740461041666,59.59389939583333,58.0,72.0
167,59.63022411041667,59.71142053125,55.0,67.0
168,59.886633860416666,60.36526539375,62.0,80.0
169,59.886633860416666,60.40372685625,55.0,87.0
170,59.37381436041667,60.487060025,50.0,61.0
171,59.11740461041666,60.57039319375,43.0,93.0
172,60.65586311041667,60.87167465,58.0,93.0
173,60.912272860416664,61.07893919791667,55.0,66.0
174,61.16868261041667,61.45287008333333,55.0,80.0
175,61.16868261041667,61.771245522916665,63.0,85.0
176,61.681502110416666,62.00842454166666,55.0,87.0
177,61.93791186041667,62.49132957083334,60.0,93.0
178,61.16868261041667,62.527654285416666,36.0,74.0
179,61.42509236041666,62.54261152083333,43.0,47.0
180,62.45073136041667,62.6280814375,55.0,85.0
181,63.21996061041666,63.521242066666666,57.0,74.0
182,63.21996061041666,63.769104825,62.0,74.0
183,63.73278011041667,64.02978807083333,57.0,80.0
184,63.989189860416666,64.538334075,62.0,93.0
185,63.21996061041666,64.54474431875,38.0,93.0
186,63.47637036041667,64.54688106666667,45.0,60.0
187,64.50200936041666,64.79047032916667,57.0,68.0
188,65.27123861041666,65.59388754583334,53.0,74.0
189,65.27123861041666,65.88875875833334,60.0,68.0
190,65.78405811041667,66.11952753333334,53.0,74.0
191,66.04046786041667,66.51482589791667,57.0,102.0
192,65.52764836041666,66.70926995833334,48.0,56.0
193,65.27123861041666,66.71568020208333,41.0,85.0
194,66.55328736041666,66.83961158125,60.0,93.0
195,66.80969711041666,66.9101242625,53.0,87.0
196,67.32251661041667,67.63875530208334,55.0,80.0
197,67.32251661041667,67.94217350625,63.0,67.0
198,67.83533611041666,68.11097659166667,55.0,65.0
199,68.09174586041667,68.33747187083333,58.0,87.0
200,68.60456536041667,68.75841121041667,63.0,95.0
201,67.32251661041667,69.16866681041667,39.0,87.0
202,67.57892636041667,69.21994876041667,46.0,50.0
203,69.11738486041666,69.66225557916667,55.0,69.0
204,69.88661411041667,70.45926255208333,55.0,68.0
205,70.14302386041666,70.68575783125,67.0,87.0
206,69.37379461041667,70.70712531041667,39.0,93.0
207,69.63020436041667,70.71567230208333,46.0,59.0
208,70.65584336041667,70.93789408541667,63.0,103.0
209,70.91225311041667,71.05755196875,55.0,87.0
210,71.42507261041666,71.72849081458334,55.0,74.0
211,71.42507261041666,71.84387520208334,58.0,87.0
212,71.93789211041667,72.27549828125,55.0,71.0
213,72.19430186041667,72.74985631875,62.0,83.0
214,71.42507261041666,73.29686378541666,43.0,90.0
215,71.68148236041667,73.31182102083334,50.0,65.0
216,72.70712136041666,73.34173549166667,67.0,90.0
217,73.21994086041667,73.56182052708333,55.0,68.0
218,73.47635061041666,73.97848637083334,58.0,71.0
219,73.47635061041666,74.0126743375,62.0,80.0
220,73.47635061041666,74.37378473541666,43.0,93.0
221,74.24557986041667,74.37592148333333,58.0,67.0
222,73.98917011041667,74.38233172708334,55.0,83.0
223,73.73276036041666,74.44002392083333,50.0,63.0
224,74.50198961041667,75.29899658333333,41.0,90.0
225,74.50198961041667,75.30113333125,53.0,74.0
226,74.50198961041667,75.30327007916667,57.0,80.0
227,75.52762861041667,75.90583299166667,58.0,74.0
228,76.04044811041666,76.33531932291666,58.0,83.0
229,76.29685786041667,76.86309605833333,65.0,93.0
230,75.78403836041667,76.91437800833333,53.0,66.0
231,76.80967736041667,77.13873653958333,58.0,95.0
232,75.52762861041667,77.15583052291666,46.0,93.0
233,77.06608711041666,77.39514628958334,53.0,90.0
234,77.32249686041666,77.54044514791667,58.0,103.0
235,78.09172611041667,78.27548643125,60.0,80.0
236,78.34813586041666,78.77548544375,60.0,83.0
237,78.34813586041666,78.88873308333334,67.0,69.0
238,77.83531636041667,78.96779275625,55.0,72.0
239,78.86095536041667,78.97633974791667,63.0,103.0
240,77.57890661041667,79.01480121041666,48.0,87.0
241,79.11736511041667,79.29044169166667,60.0,87.0
242,79.63018461041666,79.92932931874999,60.0,74.0
243,79.63018461041666,80.15368785,65.0,80.0
244,80.14300411041667,80.46351629791667,60.0,69.0
245,80.39941386041667,80.95283157083334,65.0,102.0
246,79.63018461041666,81.12377140416666,41.0,85.0
247,79.88659436041667,81.13231839583334,48.0,59.0
248,80.91223336041666,81.4229161125,69.0,87.0
249,81.16864311041667,81.47633481041666,60.0,80.0
250,81.42505286041667,81.66009513125,65.0,74.0
251,81.68146261041666,81.9613765875,63.0,67.0
252,81.68146261041666,82.13658991666667,39.0,87.0
253,81.93787236041666,82.22205983333333,46.0,56.0
254,81.68146261041666,82.22847007708333,67.0,83.0
255,82.19428211041667,82.49556356666666,63.0,74.0
256,82.45069186041667,82.63017868541667,67.0,71.0
257,82.70710161041667,83.04470778125,62.0,70.0
258,82.70710161041667,83.20710062291667,66.0,64.0
259,82.70710161041667,83.2434253375,38.0,93.0
260,82.96351136041666,83.26479281666667,45.0,61.0
261,83.21992111041666,83.33957899375,62.0,87.0
262,84.24556011041666,84.4100897,55.0,95.0
263,84.50196986041666,84.83957603125,55.0,83.0
264,84.50196986041666,84.85453326666666,62.0,83.0
265,85.01478936041667,85.13231049583334,58.0,102.0
266,85.27119911041666,85.47205341458333,55.0,87.0
267,83.98915036041667,85.54683959166667,50.0,68.0
268,83.73274061041667,85.57461731458334,43.0,93.0
269,85.78401861041667,85.93359096458333,55.0,72.0
270,85.78401861041667,86.07247957916667,60.0,74.0
271,86.04042836041667,86.36948753958333,55.0,85.0
272,86.29683811041667,86.40581225416666,60.0,68.0
273,86.55324786041666,86.81820460208333,55.0,87.0
274,86.55324786041666,86.88230703958334,63.0,87.0
275,87.06606736041667,87.29683613541667,55.0,93.0
276,87.06606736041667,87.34384458958333,60.0,90.0
277,85.78401861041667,87.37375906041666,48.0,80.0
278,87.83529661041666,88.27760342916666,39.0,80.0
279,88.09170636041667,88.32888537916666,46.0,60.0
280,87.83529661041666,88.36093659791666,58.0,68.0
281,88.34811611041667,88.63657707916667,55.0,87.0
282,88.60452586041667,88.73486748333333,63.0,83.0
283,88.86093561041666,89.17290080625,53.0,90.0
284,88.86093561041666,89.37589185833333,57.0,93.0
285,88.86093561041666,89.39084909375,41.0,80.0
286,89.11734536041666,89.44640453958333,48.0,61.0
287,89.37375511041667,89.53401120416666,53.0,93.0
288,89.88657461041667,90.21136029375,55.0,70.0
289,89.88657461041667,90.3587959,62.0,68.0
290,90.39939411041667,90.92503409791667,55.0,80.0
291,90.65580386041667,91.00195702291667,67.0,87.0
292,91.16862336041666,91.45708432916666,62.0,87.0
293,89.88657461041667,91.6921266,43.0,87.0
294,90.14298436041666,91.69853684375,50.0,61.0
295,91.42503311041666,92.2434075625,55.0,87.0
296,91.68144286041667,92.54041552291666,62.0,80.0
297,92.45067211041666,92.56178300208333,55.0,72.0
298,92.19426236041667,93.30537127708334,50.0,59.0
299,92.70708186041666,93.53614005208334,55.0,95.0
300,92.70708186041666,93.81178053333333,67.0,80.0
301,92.70708186041666,93.85451549166666,62.0,87.0
302,93.73272086041666,93.92075467708334,55.0,93.0
303,93.47631111041666,93.95280589583334,50.0,74.0
304,91.93785261041667,93.99554085416666,43.0,80.0
305,93.98913061041667,94.14511320833333,55.0,74.0
306,93.98913061041667,94.31605304166666,60.0,80.0
307,94.24554036041667,94.55750555624999,55.0,80.0
308,94.50195011041667,94.65793270833333,60.0,71.0
309,94.75835986041666,95.01904310625,64.0,87.0
310,94.75835986041666,95.02117985416666,55.0,85.0
311,95.27117936041667,95.410067975,55.0,87.0
312,95.27117936041667,95.54254634583333,60.0,87.0
313,93.98913061041667,95.78827235625,48.0,93.0
314,95.52758911041667,95.82459707083333,55.0,87.0
315,95.78399886041666,96.34169006666667,60.0,80.0
316,96.29681836041667,96.61305705208333,55.0,80.0
317,96.55322811041667,96.68143298541666,60.0,68.0
318,96.04040861041666,96.71134745625,36.0,83.0
319,96.80963786041667,96.98271444166667,55.0,90.0
320,96.80963786041667,97.02117590416667,64.0,95.0
321,97.32245736041666,97.43997849583333,55.0,87.0
322,97.32245736041666,97.52972190833333,60.0,93.0
323,97.57886711041667,97.68997800208334,55.0,95.0
324,98.09168661041667,98.3972415625,53.0,87.0
325,98.09168661041667,98.59595911875,60.0,74.0
326,98.60450611041666,98.77544594375,53.0,87.0
327,98.34809636041666,99.40364983125,48.0,53.0
328,98.09168661041667,99.44211129375,41.0,72.0
329,98.86091586041667,99.48270950416666,60.0,90.0
330,99.37373536041666,99.68997405208333,65.0,93.0
331,99.63014511041666,99.73270901041667,53.0,102.0
332,100.14296461041667,100.41219484791667,51.0,66.0
333,100.14296461041667,100.49339126875,39.0,80.0
334,100.14296461041667,100.60022866458333,58.0,74.0
335,100.39937436041667,100.60450216041667,46.0,55.0
336,100.65578411041666,100.72629679166667,51.0,102.0
337,101.16860361041667,101.46988506666666,57.0,80.0
338,101.16860361041667,101.666465875,38.0,95.0
339,101.42501336041667,101.69424359791667,45.0,66.0
340,101.16860361041667,101.73270506041666,62.0,71.0
341,101.68142311041666,101.95920033958333,57.0,102.0
342,101.93783286041666,102.2177468375,62.0,65.0
343,102.70706211041667,102.90150617083333,55.0,95.0
344,102.96347186041666,103.26689006458334,62.0,102.0
345,103.47629136041667,103.64723119375,55.0,83.0
346,103.47629136041667,103.70064989166667,62.0,93.0
347,102.19424261041667,104.06176028958333,43.0,74.0
348,102.45065236041667,104.07458077708333,50.0,66.0
349,103.98911086041667,104.13654646666667,55.0,93.0
350,104.24552061041666,104.39509296458333,55.0,74.0
351,104.24552061041666,104.54893881458334,60.0,80.0
352,104.50193036041667,104.79680157291666,55.0,93.0
353,104.24552061041666,104.84808352291667,48.0,87.0
354,104.75834011041667,105.08526254166667,60.0,93.0
355,105.01474986041667,105.13654449166667,55.0,87.0
356,105.27115961041666,105.55534708333333,57.0,87.0
357,105.27115961041666,105.8074833375,62.0,74.0
358,105.52756936041666,105.84808154791666,45.0,61.0
359,105.27115961041666,105.85021829583333,38.0,90.0
360,105.78397911041667,106.12372202916667,57.0,102.0
361,106.04038886041667,106.23269617291666,62.0,85.0
362,106.29679861041667,106.75833616041666,39.0,93.0
363,106.55320836041666,106.82671209375,46.0,61.0
364,106.80961811041666,107.00406217083334,51.0,102.0
365,107.06602786041667,107.14508753333334,58.0,93.0
366,107.32243761041667,107.61303532708334,53.0,85.0
367,107.32243761041667,107.81602637916667,57.0,90.0
368,107.32243761041667,107.8972228,41.0,87.0
369,107.83525711041666,107.96559873333334,53.0,102.0
370,107.57884736041666,107.99551320416667,48.0,64.0
371,108.86089611041666,109.15790407083334,51.0,103.0
372,109.11730586041666,109.27542520625,58.0,80.0
373,109.63012536041667,109.70704828541666,63.0,70.0
374,109.63012536041667,109.99123575833333,55.0,74.0
375,109.88653511041666,110.29251721458333,51.0,80.0
376,108.60448636041667,110.37371363541666,46.0,47.0
377,108.34807661041667,110.39080761875,39.0,80.0
378,110.39935461041667,110.71345655416667,55.0,74.0
379,110.39935461041667,110.95063557291667,62.0,68.0
380,110.91217411041667,111.04251573333333,55.0,69.0
381,111.16858386041666,111.55960872916667,67.0,80.0
382,111.16858386041666,111.60875393124999,55.0,72.0
383,111.93781311041667,112.03396676666667,55.0,72.0
384,110.39935461041667,112.29037651666667,43.0,93.0
385,110.65576436041667,112.31388074375,50.0,60.0
386,112.19422286041667,112.71131585625,55.0,83.0
387,111.93781311041667,112.76687130208333,62.0,80.0
388,112.96345211041667,113.32242576041666,55.0,65.0
389,113.21986186041667,113.7818265625,62.0,80.0
390,112.70704236041666,114.35661175208334,50.0,59.0
391,112.45063261041666,114.3587485,43.0,90.0
392,113.98909111041667,114.74122637708334,55.0,66.0
393,113.73268136041666,114.743363125,67.0,87.0
394,114.24550086041667,114.7818245875,62.0,68.0
395,115.01473011041666,115.21344766666667,55.0,66.0
396,115.27113986041667,115.77968586458333,62.0,80.0
397,115.78395936041666,116.13224927083333,55.0,58.0
398,114.50191061041667,116.435667475,43.0,80.0
399,114.75832036041666,116.45276145833333,50.0,58.0
400,116.29677886041667,116.76900015,55.0,87.0
401,116.04036911041666,117.05746111875,62.0,93.0
402,117.06600811041666,117.38224680208333,55.0,69.0
403,117.32241786041666,117.50404143333333,62.0,70.0
404,117.83523736041667,118.10019410208334,67.0,87.0
405,118.09164711041667,118.33523637291667,55.0,69.0
406,116.55318861041667,118.44634726458334,43.0,93.0
407,116.80959836041667,118.46344124791666,50.0,61.0
408,118.34805686041666,119.14720058125,62.0,72.0
409,119.11728611041667,119.46557602083334,55.0,72.0
410,119.37369586041666,119.73480625833334,67.0,80.0
411,119.88651536041667,120.16856608541667,62.0,87.0
412,118.60446661041667,120.44206981875,43.0,87.0
413,120.14292511041667,120.45061681041666,55.0,93.0
414,118.86087636041667,120.46130055,50.0,61.0
415,120.39933486041667,121.22625630416667,62.0,80.0
416,121.16856411041667,121.58522995416666,55.0,72.0
417,121.42497386041667,121.64505889583333,67.0,74.0
418,121.93779336041666,122.19633985833333,62.0,87.0
419,122.19420311041667,122.41856164166667,55.0,87.0
420,120.91215436041666,122.44206586874999,50.0,58.0
421,120.65574461041666,122.50403155833334,43.0,80.0
422,122.45061286041667,123.29890178333333,62.0,80.0
423,123.21984211041666,123.55317478541667,55.0,68.0
424,123.47625186041667,123.79249055208334,67.0,80.0
425,123.98907136041666,124.23907086666667,62.0,80.0
426,124.24548111041666,124.48266012916666,55.0,87.0
427,122.96343236041666,124.54248907083333,50.0,55.0
428,122.70702261041667,124.54462581875,43.0,93.0
429,124.50189086041667,125.30317132916666,62.0,83.0
430,125.27112011041666,125.83094806458334,55.0,70.0
431,125.52752986041666,125.922828225,62.0,80.0
432,125.52752986041666,126.10017830208334,67.0,67.0
433,126.04034936041667,126.36086154791667,55.0,80.0
434,125.01471036041667,126.58735682708333,50.0,59.0
435,124.75830061041667,126.60017731458333,43.0,80.0
436,126.29675911041667,126.72838218958333,62.0,83.0
437,126.55316886041666,126.743339425,55.0,66.0
438,126.80957861041666,127.40786802708334,58.0,68.0
439,126.80957861041666,127.410004775,55.0,63.0
440,127.32239811041667,127.60017533958333,62.0,70.0
441,127.57880786041666,128.22196898333334,67.0,95.0
442,128.34803711041667,128.44632751458334,55.0,87.0
443,126.80957861041666,128.67709628958335,43.0,93.0
444,127.06598836041667,128.68136978541668,50.0,68.0
445,128.60444686041666,128.845899375,55.0,83.0
446,128.34803711041667,128.85658311458334,62.0,83.0
447,129.11726636041666,129.45273578333334,55.0,80.0
448,129.37367611041665,129.60017138958332,60.0,68.0
449,129.63008586041667,130.256153,63.0,90.0
450,128.86085661041668,130.76256225625,48.0,87.0
451,130.14290536041668,130.95059607291665,55.0,68.0
452,131.16854436041666,131.47837280833332,55.0,80.0
453,131.42495411041668,131.54674874166668,60.0,69.0
454,131.68136386041667,131.9612778375,63.0,95.0
455,132.19418336041667,132.41426839583335,60.0,90.0
456,130.91213461041667,132.48478107708334,48.0,90.0
457,132.45059311041666,132.64717391875,55.0,80.0
458,132.70700286041668,132.85657521458333,60.0,72.0
459,132.96341261041667,133.22409585625,55.0,83.0
460,132.96341261041667,133.43990739583333,58.0,72.0
461,133.47623211041667,133.55742853125,55.0,67.0
462,133.73264186041666,134.21127339375,62.0,80.0
463,133.73264186041666,134.24973485625,55.0,87.0
464,133.21982236041666,134.333068025,50.0,61.0
465,132.96341261041667,134.41640119375,43.0,93.0
466,134.50187111041666,134.71768265,58.0,93.0
467,134.75828086041668,134.92494719791668,55.0,66.0
468,135.01469061041666,135.29887808333334,55.0,80.0
469,135.01469061041666,135.61725352291666,63.0,85.0
470,135.52751011041667,135.85443254166665,55.0,87.0
471,135.78391986041666,136.33733757083334,60.0,93.0
472,135.01469061041666,136.37366228541666,36.0,74.0
473,135.27110036041665,136.38861952083334,43.0,47.0
474,136.29673936041667,136.4740894375,55.0,85.0
475,137.06596861041666,137.36725006666666,57.0,74.0
476,137.06596861041666,137.615112825,62.0,74.0
477,137.57878811041667,137.87579607083333,57.0,80.0
478,137.83519786041666,138.384342075,62.0,93.0
479,137.06596861041666,138.39075231875,38.0,93.0
480,137.32237836041668,138.39288906666667,45.0,60.0
481,138.34801736041666,138.63647832916666,57.0,68.0
482,139.11724661041666,139.43989554583334,53.0,74.0
483,139.11724661041666,139.73476675833334,60.0,68.0
484,139.63006611041666,139.96553553333334,53.0,74.0
485,139.88647586041665,140.36083389791668,57.0,102.0
486,139.37365636041667,140.55527795833333,48.0,56.0
487,139.11724661041666,140.56168820208333,41.0,85.0
488,140.39929536041666,140.68561958125,60.0,93.0
489,140.65570511041668,140.7561322625,53.0,87.0
490,141.16852461041665,141.48476330208334,55.0,80.0
491,141.16852461041665,141.78818150625,63.0,67.0
492,141.68134411041666,141.95698459166667,55.0,65.0
493,141.93775386041668,142.18347987083334,58.0,87.0
494,142.45057336041666,142.60441921041667,63.0,95.0
495,141.16852461041665,143.01467481041666,39.0,87.0
496,141.42493436041667,143.06595676041667,46.0,50.0
497,142.96339286041666,143.50826357916665,55.0,69.0
498,143.73262211041666,144.30527055208333,55.0,68.0
499,143.98903186041667,144.53176583125,67.0,87.0
500,143.21980261041668,144.55313331041665,39.0,93.0
501,143.47621236041667,144.56168030208335,46.0,59.0
502,144.50185136041668,144.78390208541666,63.0,103.0
503,144.75826111041667,144.90355996875,55.0,87.0
504,145.27108061041667,145.57449881458334,55.0,74.0
505,145.27108061041667,145.68988320208334,58.0,87.0
506,145.78390011041665,146.12150628125,55.0,71.0
507,146.04030986041667,146.59586431875,62.0,83.0
508,145.27108061041667,147.14287178541667,43.0,90.0
509,145.52749036041666,147.15782902083333,50.0,65.0
510,146.55312936041668,147.18774349166668,67.0,90.0
511,147.06594886041665,147.40782852708332,55.0,68.0
512,147.32235861041667,147.82449437083332,58.0,71.0
513,147.32235861041667,147.8586823375,62.0,80.0
514,147.32235861041667,148.21979273541666,43.0,93.0
515,148.09158786041667,148.22192948333333,58.0,67.0
516,147.83517811041668,148.22833972708332,55.0,83.0
517,147.57876836041666,148.28603192083332,50.0,63.0
518,148.34799761041666,149.14500458333333,41.0,90.0
519,148.34799761041666,149.14714133125,53.0,74.0
520,148.34799761041666,149.14927807916666,57.0,80.0
521,149.37363661041667,149.75184099166665,58.0,74.0
522,149.88645611041667,150.18132732291667,58.0,83.0
523,150.14286586041666,150.70910405833334,65.0,93.0
524,149.63004636041666,150.76038600833334,53.0,66.0
525,150.65568536041667,150.98474453958335,58.0,95.0
526,149.37363661041667,151.00183852291667,46.0,93.0
527,150.91209511041666,151.24115428958333,53.0,90.0
528,151.16850486041668,151.38645314791665,58.0,103.0
529,151.93773411041667,152.12149443125,60.0,80.0
530,152.19414386041666,152.62149344375,60.0,83.0
531,152.19414386041666,152.73474108333332,67.0,69.0
532,151.68132436041665,152.81380075625,55.0,72.0
533,152.70696336041667,152.82234774791667,63.0,103.0
534,151.42491461041666,152.86080921041668,48.0,87.0
535,152.96337311041665,153.13644969166666,60.0,87.0
536,153.47619261041666,153.77533731875,60.0,74.0
537,153.47619261041666,153.99969585,65.0,80.0
538,153.98901211041667,154.30952429791665,60.0,69.0
539,154.24542186041666,154.79883957083334,65.0,102.0
540,153.47619261041666,154.96977940416667,41.0,85.0
541,153.73260236041668,154.97832639583334,48.0,59.0
542,154.75824136041666,155.2689241125,69.0,87.0
543,155.01465111041668,155.32234281041667,60.0,80.0
544,155.27106086041667,155.50610313125,65.0,74.0
545,155.52747061041666,155.8073845875,63.0,67.0
546,155.52747061041666,155.98259791666666,39.0,87.0
547,155.78388036041667,156.06806783333334,46.0,56.0
548,155.52747061041666,156.07447807708334,67.0,83.0
549,156.04029011041666,156.34157156666666,63.0,74.0
550,156.29669986041665,156.47618668541668,67.0,71.0
551,156.55310961041667,156.89071578125,62.0,70.0
552,156.55310961041667,157.05310862291665,66.0,64.0
553,156.55310961041667,157.0894333375,38.0,93.0
554,156.80951936041666,157.11080081666665,45.0,61.0
555,157.06592911041668,157.18558699375,62.0,87.0
556,158.09156811041666,158.2560977,55.0,95.0
557,158.34797786041668,158.68558403125,55.0,83.0
558,158.34797786041668,158.70054126666668,62.0,83.0
559,158.86079736041665,158.97831849583332,58.0,102.0
560,159.11720711041667,159.31806141458333,55.0,87.0
561,157.83515836041667,159.39284759166668,50.0,68.0
562,157.57874861041665,159.42062531458333,43.0,93.0
563,159.63002661041668,159.77959896458333,55.0,72.0
564,159.63002661041668,159.91848757916668,60.0,74.0
565,159.88643636041667,160.21549553958334,55.0,85.0
566,160.14284611041666,160.25182025416666,60.0,68.0
567,160.39925586041667,160.66421260208332,55.0,87.0
568,160.39925586041667,160.72831503958332,63.0,87.0
569,160.91207536041668,161.14284413541665,55.0,93.0
570,160.91207536041668,161.18985258958332,60.0,90.0
571,159.63002661041668,161.21976706041667,48.0,80.0
572,161.68130461041667,162.12361142916666,39.0,80.0
573,161.93771436041666,162.17489337916666,46.0,60.0
574,161.68130461041667,162.20694459791667,58.0,68.0
575,162.19412411041665,162.48258507916665,55.0,87.0
576,162.45053386041667,162.58087548333333,63.0,83.0
577,162.70694361041666,163.01890880625,53.0,90.0
578,162.70694361041666,163.22189985833333,57.0,93.0
579,162.70694361041666,163.23685709375,41.0,80.0
580,162.96335336041668,163.29241253958332,48.0,61.0
581,163.21976311041666,163.38001920416667,53.0,93.0
582,163.73258261041667,164.05736829375,55.0,70.0
583,163.73258261041667,164.2048039,62.0,68.0
584,164.24540211041668,164.77104209791668,55.0,80.0
585,164.50181186041667,164.84796502291667,67.0,87.0
586,165.01463136041667,165.30309232916667,62.0,87.0
587,163.73258261041667,165.5381346,43.0,87.0
588,163.98899236041666,165.54454484375,50.0,61.0
589,165.27104111041666,166.0894155625,55.0,87.0
590,165.52745086041668,166.38642352291666,62.0,80.0
591,166.29668011041667,166.40779100208334,55.0,72.0
592,166.04027036041666,167.15137927708332,50.0,59.0
593,166.55308986041666,167.38214805208332,55.0,95.0
594,166.55308986041666,167.65778853333333,67.0,80.0
595,166.55308986041666,167.70052349166667,62.0,87.0
596,167.57872886041667,167.76676267708334,55.0,93.0
597,167.32231911041666,167.79881389583332,50.0,74.0
598,165.78386061041667,167.84154885416666,43.0,80.0
599,167.83513861041666,167.99112120833334,55.0,74.0
600,167.83513861041666,168.16206104166668,60.0,80.0
601,168.09154836041665,168.40351355625,55.0,80.0
602,168.34795811041667,168.50394070833335,60.0,71.0
603,168.60436786041666,168.86505110625,64.0,87.0
604,168.60436786041666,168.86718785416667,55.0,85.0
605,169.11718736041666,169.256075975,55.0,87.0
606,169.11718736041666,169.38855434583334,60.0,87.0
607,167.83513861041666,169.63428035625,48.0,93.0
608,169.37359711041665,169.67060507083335,55.0,87.0
609,169.63000686041667,170.18769806666666,60.0,80.0
610,170.14282636041668,170.45906505208333,55.0,80.0
611,170.39923611041667,170.52744098541666,60.0,68.0
612,169.88641661041666,170.55735545625,36.0,83.0
613,170.65564586041666,170.82872244166666,55.0,90.0
614,170.65564586041666,170.86718390416667,64.0,95.0
615,171.16846536041666,171.28598649583333,55.0,87.0
616,171.16846536041666,171.37572990833334,60.0,93.0
617,171.42487511041668,171.53598600208332,55.0,95.0
618,171.93769461041666,172.2432495625,53.0,87.0
619,171.93769461041666,172.44196711875,60.0,74.0
620,172.45051411041666,172.62145394375,53.0,87.0
621,172.19410436041667,173.24965783125,48.0,53.0
622,171.93769461041666,173.28811929375,41.0,72.0
623,172.70692386041668,173.32871750416666,60.0,90.0
624,173.21974336041666,173.53598205208334,65.0,93.0
625,173.47615311041667,173.57871701041665,53.0,102.0
626,173.98897261041665,174.25820284791666,51.0,66.0
627,173.98897261041665,174.33939926875,39.0,80.0
628,173.98897261041665,174.44623666458332,58.0,74.0
629,174.24538236041667,174.45051016041666,46.0,55.0
630,174.50179211041666,174.57230479166665,51.0,102.0
631,175.01461161041667,175.31589306666666,57.0,80.0
632,175.01461161041667,175.512473875,38.0,95.0
633,175.27102136041665,175.54025159791667,45.0,66.0
634,175.01461161041667,175.57871306041667,62.0,71.0
635,175.52743111041667,175.80520833958334,57.0,102.0
636,175.78384086041666,176.0637548375,62.0,65.0
637,176.55307011041666,176.74751417083334,55.0,95.0
638,176.80947986041667,177.11289806458333,62.0,102.0
639,177.32229936041668,177.49323919375,55.0,83.0
640,177.32229936041668,177.54665789166665,62.0,93.0
641,176.04025061041668,177.90776828958334,43.0,74.0
642,176.29666036041667,177.92058877708334,50.0,66.0
643,177.83511886041666,177.98255446666667,55.0,93.0
644,178.09152861041667,178.24110096458332,55.0,74.0
645,178.09152861041667,178.39494681458334,60.0,80.0
646,178.34793836041666,178.64280957291666,55.0,93.0
647,178.09152861041667,178.69409152291666,48.0,87.0
648,178.60434811041665,178.93127054166666,60.0,93.0
649,178.86075786041667,178.98255249166667,55.0,87.0
650,179.11716761041666,179.40135508333333,57.0,87.0
651,179.11716761041666,179.6534913375,62.0,74.0
652,179.37357736041668,179.69408954791666,45.0,61.0
653,179.11716761041666,179.69622629583333,38.0,90.0
654,179.62998711041666,179.96973002916667,57.0,102.0
655,179.88639686041665,180.07870417291667,62.0,85.0
656,180.14280661041667,180.60434416041667,39.0,93.0
657,180.39921636041666,180.67272009375,46.0,61.0
658,180.65562611041668,180.85007017083333,51.0,102.0
659,180.91203586041667,180.99109553333332,58.0,93.0
660,181.16844561041665,181.45904332708332,53.0,85.0
661,181.16844561041665,181.66203437916667,57.0,90.0
662,181.16844561041665,181.7432308,41.0,87.0
663,181.68126511041666,181.81160673333332,53.0,102.0
664,181.42485536041667,181.84152120416667,48.0,64.0
665,182.70690411041667,183.00391207083334,51.0,103.0
666,182.96331386041666,183.12143320625,58.0,80.0
667,183.47613336041667,183.55305628541666,63.0,70.0
668,183.47613336041667,183.83724375833333,55.0,74.0
669,183.73254311041666,184.13852521458332,51.0,80.0
670,182.45049436041666,184.21972163541668,46.0,47.0
671,182.19408461041667,184.23681561875,39.0,80.0
672,184.24536261041666,184.56801154583334,55.0,71.0
673,184.24536261041666,184.64920796666667,62.0,80.0
674,184.75818211041667,185.36501851875,55.0,80.0
675,185.01459186041666,185.4483516875,67.0,93.0
676,184.50177236041665,186.09151281041667,50.0,61.0
677,184.24536261041666,186.11074354166666,43.0,90.0
678,186.04023086041667,186.4996316625,55.0,61.0
679,186.04023086041667,186.87997279166666,62.0,72.0
680,186.80946011041667,186.89279327916665,55.0,59.0
681,187.06586986041665,187.33723684583333,55.0,90.0
682,187.06586986041665,187.3842453,62.0,85.0
683,187.06586986041665,187.39492903958333,67.0,70.0
684,186.55305036041668,187.42911700625,50.0,52.0
685,186.29664061041666,187.45048448541667,43.0,80.0
686,188.34791861041666,188.691935025,60.0,69.0
687,188.86073811041666,188.9868062375,60.0,56.0
688,188.34791861041666,188.98894298541666,67.0,74.0
689,189.11714786041668,189.3457798875,64.0,83.0
690,189.11714786041668,189.38637809791666,60.0,74.0
691,188.60432836041667,190.20047905416666,55.0,66.0
692,188.34791861041666,190.21543628958332,48.0,83.0
693,190.14278686041666,190.67056359583333,60.0,71.0
694,190.14278686041666,190.96543480833333,67.0,72.0
695,190.91201611041666,191.23252829791667,60.0,69.0
696,191.16842586041668,191.7047495875,64.0,87.0
697,190.39919661041665,191.84577495,48.0,80.0
698,190.65560636041667,191.88850990833333,55.0,68.0
699,192.45047461041668,192.75175606666667,63.0,68.0
700,192.45047461041668,193.02098630416666,67.0,69.0
701,192.96329411041665,193.05944776666666,63.0,50.0
702,192.45047461041668,194.07012953125,51.0,93.0
703,192.70688436041667,194.13209522083332,58.0,50.0
704,193.21970386041667,194.62354724166667,63.0,90.0
705,193.21970386041667,194.80089731875,67.0,90.0
706,194.75816236041666,195.06158056458332,63.0,102.0
707,194.50175261041667,195.10645227083333,58.0,55.0
708,194.24534286041666,195.11713601041666,51.0,55.0
709,195.01457211041668,195.22824690208333,67.0,80.0
710,195.27098186041667,195.820126075,51.0,51.0
711,195.52739161041666,195.83722005833334,58.0,63.0
712,195.78380136041667,196.05089485,63.0,93.0
713,196.04021111041666,196.20260395208334,67.0,74.0
714,196.55303061041667,196.8842265375,62.0,74.0
715,196.55303061041667,197.12140555625,65.0,83.0
716,197.06585011041668,197.13636279166667,62.0,58.0
717,197.32225986041666,197.61285757708333,62.0,87.0
718,197.32225986041666,197.65986603125,69.0,87.0
719,197.83507936041667,197.98037821875,62.0,87.0
720,197.83507936041667,198.09362585833333,65.0,93.0
721,198.09148911041666,198.13422406875,62.0,41.0
722,196.80944036041666,198.3585826,45.0,54.0
723,196.55303061041667,198.36712959166667,38.0,93.0
724,198.34789886041668,198.40772780208334,65.0,68.0
725,198.34789886041668,198.62994958541665,62.0,93.0
726,198.60430861041667,198.96969250416666,53.0,74.0
727,198.60430861041667,199.03379494166666,60.0,72.0
728,199.11712811041667,199.43550355,53.0,87.0
729,199.37353786041666,199.72182777083333,65.0,95.0
730,199.88635736041667,200.05943394166667,53.0,85.0
731,199.88635736041667,200.22182678333334,60.0,80.0
732,198.86071836041666,200.230373775,48.0,55.0
733,200.14276711041666,200.25815149791666,53.0,83.0
734,198.60430861041667,200.29874970833333,41.0,68.0
735,200.65558661041666,201.01456026041666,55.0,80.0
736,200.65558661041666,201.21541456458334,63.0,65.0
737,201.16840611041667,201.32652545625,55.0,68.0
738,201.42481586041666,201.79447325,63.0,102.0
739,200.91199636041668,201.85216544375,46.0,51.0
740,200.65558661041666,201.87780641875,39.0,72.0
741,201.93763536041666,202.05942999166666,58.0,90.0
742,202.19404511041665,202.27524153125,55.0,87.0
743,202.70686461041666,202.82865924166666,41.0,87.0
744,202.70686461041666,202.86925745208333,53.0,74.0
745,202.70686461041666,202.89489842708332,60.0,71.0
746,203.73250361041667,203.9354946625,65.0,93.0
747,203.98891336041666,204.3201092875,72.0,93.0
748,204.24532311041668,204.70686066041665,65.0,102.0
749,204.50173286041667,204.71968114791667,69.0,83.0
750,203.21968411041667,204.743185375,53.0,55.0
751,203.47609386041665,204.74532212291666,60.0,90.0
752,204.75814261041666,205.13634699166667,58.0,74.0
753,205.27096211041666,205.56583332291666,58.0,83.0
754,205.52737186041668,206.09361005833333,65.0,93.0
755,205.01455236041667,206.14489200833333,53.0,66.0
756,206.04019136041666,206.36925053958333,58.0,95.0
757,204.75814261041666,206.38634452291666,46.0,93.0
758,206.29660111041667,206.62566028958332,53.0,90.0
759,206.55301086041666,206.77095914791667,58.0,103.0
760,207.32224011041666,207.50600043125,60.0,80.0
761,207.57864986041668,208.00599944375,60.0,83.0
762,207.57864986041668,208.11924708333333,67.0,69.0
763,207.06583036041667,208.19830675625,55.0,72.0
764,208.09146936041665,208.20685374791665,63.0,103.0
765,206.80942061041665,208.24531521041666,48.0,87.0
766,208.34787911041667,208.52095569166667,60.0,87.0
767,208.86069861041668,209.15984331875,60.0,74.0
768,208.86069861041668,209.38420185,65.0,80.0
769,209.37351811041665,209.69403029791667,60.0,69.0
770,209.62992786041667,210.18334557083332,65.0,102.0
771,208.86069861041668,210.35428540416666,41.0,85.0
772,209.11710836041667,210.36283239583332,48.0,59.0
773,210.14274736041668,210.6534301125,69.0,87.0
774,210.39915711041667,210.70684881041666,60.0,80.0
775,210.65556686041666,210.89060913125,65.0,74.0
776,210.91197661041667,211.1918905875,63.0,67.0
777,210.91197661041667,211.36710391666668,39.0,87.0
778,211.16838636041666,211.45257383333333,46.0,56.0
779,210.91197661041667,211.45898407708333,67.0,83.0
780,211.42479611041668,211.72607756666667,63.0,74.0
781,211.68120586041667,211.86069268541667,67.0,71.0
782,211.93761561041666,212.27522178125,62.0,70.0
783,211.93761561041666,212.43761462291667,66.0,64.0
784,211.93761561041666,212.47393933749998,38.0,93.0
785,212.19402536041667,212.49530681666667,45.0,61.0
786,212.45043511041666,212.57009299375,62.0,87.0
787,213.47607411041668,213.64060369999999,55.0,95.0
788,213.73248386041666,214.07009003125,55.0,83.0
789,213.73248386041666,214.08504726666666,62.0,83.0
790,214.24530336041667,214.36282449583334,58.0,102.0
791,214.50171311041666,214.70256741458334,55.0,87.0
792,213.21966436041666,214.77735359166667,50.0,68.0
793,212.96325461041667,214.80513131458332,43.0,93.0
794,215.01453261041667,215.16410496458334,55.0,72.0
795,215.01453261041667,215.30299357916667,60.0,74.0
796,215.27094236041665,215.60000153958333,55.0,85.0
797,215.52735211041667,215.63632625416668,60.0,68.0
798,215.78376186041666,216.04871860208334,55.0,87.0
799,215.78376186041666,216.11282103958334,63.0,87.0
800,216.29658136041667,216.52735013541667,55.0,93.0
801,216.29658136041667,216.57435858958334,60.0,90.0
802,215.01453261041667,216.60427306041666,48.0,80.0
803,217.06581061041666,217.50811742916667,39.0,80.0
804,217.32222036041668,217.55939937916668,46.0,60.0
805,217.06581061041666,217.59145059791666,58.0,68.0
806,217.57863011041667,217.86709107916667,55.0,87.0
807,217.83503986041666,217.96538148333335,63.0,83.0
808,218.09144961041667,218.40341480625,53.0,90.0
809,218.09144961041667,218.60640585833335,57.0,93.0
810,218.09144961041667,218.62136309375,41.0,80.0
811,218.34785936041666,218.67691853958334,48.0,61.0
812,218.60426911041665,218.76452520416666,53.0,93.0
813,219.11708861041666,219.44187429375,55.0,70.0
814,219.11708861041666,219.5893099,62.0,68.0
815,219.62990811041666,220.15554809791666,55.0,80.0
816,219.88631786041665,220.23247102291666,67.0,87.0
817,220.39913736041666,220.68759832916666,62.0,87.0
818,219.11708861041666,220.9226406,43.0,87.0
819,219.37349836041668,220.92905084375,50.0,61.0
820,220.65554711041668,221.4739215625,55.0,87.0
821,221.16836661041665,221.54657099166667,58.0,74.0
822,220.91195686041667,221.77092952291667,62.0,80.0
823,221.68118611041666,221.97605732291666,58.0,83.0
824,221.93759586041668,222.50383405833333,65.0,93.0
825,221.42477636041667,222.55511600833333,53.0,66.0
826,222.45041536041666,222.77947453958333,58.0,95.0
827,221.16836661041665,222.79656852291666,46.0,93.0
828,222.70682511041667,223.03588428958332,53.0,90.0
829,222.96323486041666,223.18118314791667,58.0,103.0
830,223.73246411041666,223.91622443125,60.0,80.0
831,223.98887386041667,224.41622344375,60.0,83.0
832,223.98887386041667,224.52947108333333,67.0,69.0
833,223.47605436041667,224.60853075625,55.0,72.0
834,224.50169336041665,224.61707774791665,63.0,103.0
835,223.21964461041668,224.65553921041666,48.0,87.0
836,224.75810311041667,224.93117969166667,60.0,87.0
837,225.27092261041668,225.57006731875,60.0,74.0
838,225.27092261041668,225.79442585,65.0,80.0
839,225.78374211041665,226.10425429791667,60.0,69.0
840,226.04015186041667,226.59356957083332,65.0,102.0
841,225.27092261041668,226.76450940416666,41.0,85.0
842,225.52733236041666,226.77305639583332,48.0,59.0
843,226.55297136041668,227.0636541125,69.0,87.0
844,226.80938111041667,227.11707281041666,60.0,80.0
845,227.06579086041666,227.30083313125,65.0,74.0
846,227.32220061041667,227.6021145875,63.0,67.0
847,227.32220061041667,227.77732791666668,39.0,87.0
848,227.57861036041666,227.86279783333333,46.0,56.0
849,227.32220061041667,227.86920807708333,67.0,83.0
850,227.83502011041668,228.13630156666667,63.0,74.0
851,228.09142986041667,228.27091668541667,67.0,71.0
852,228.34783961041666,228.68544578125,62.0,70.0
853,228.34783961041666,228.84783862291667,66.0,64.0
854,228.34783961041666,228.8841633375,38.0,93.0
855,228.60424936041667,228.90553081666667,45.0,61.0
856,228.86065911041666,228.98031699375,62.0,87.0
857,229.88629811041667,230.05082769999999,55.0,95.0
858,230.14270786041666,230.48031403125,55.0,83.0
859,230.14270786041666,230.49527126666666,62.0,83.0
860,230.65552736041667,230.77304849583334,58.0,102.0
861,230.91193711041666,231.11279141458334,55.0,87.0
862,229.62988836041666,231.18757759166667,50.0,68.0
863,229.37347861041667,231.21535531458332,43.0,93.0
864,231.42475661041667,231.57432896458334,55.0,72.0
865,231.42475661041667,231.71321757916667,60.0,74.0
866,231.68116636041665,232.01022553958333,55.0,85.0
867,231.93757611041667,232.04655025416668,60.0,68.0
868,232.19398586041666,232.45894260208334,55.0,87.0
869,232.19398586041666,232.52304503958334,63.0,87.0
870,232.70680536041667,232.93757413541667,55.0,93.0
871,232.70680536041667,232.98458258958334,60.0,90.0
872,231.42475661041667,233.01449706041666,48.0,80.0
873,233.47603461041666,233.91834142916667,39.0,80.0
874,233.73244436041668,233.96962337916668,46.0,60.0
875,233.47603461041666,234.00167459791666,58.0,68.0
876,233.98885411041667,234.27731507916667,55.0,87.0
877,234.24526386041666,234.37560548333335,63.0,83.0
878,234.50167361041667,234.81363880625,53.0,90.0
879,234.50167361041667,235.01662985833335,57.0,93.0
880,234.50167361041667,235.03158709375,41.0,80.0
881,234.75808336041666,235.08714253958334,48.0,61.0
882,235.01449311041665,235.17474920416666,53.0,93.0
883,235.52731261041666,235.85209829375,55.0,70.0
884,235.52731261041666,235.9995339,62.0,68.0
885,236.04013211041666,236.56577209791666,55.0,80.0
886,236.29654186041665,236.64269502291666,67.0,87.0
887,236.80936136041666,237.09782232916666,62.0,87.0
888,235.52731261041666,237.3328646,43.0,87.0
889,235.78372236041668,237.33927484375,50.0,61.0
890,237.06577111041668,237.8841455625,55.0,87.0
891,237.32218086041667,238.18115352291667,62.0,80.0
892,238.09141011041666,238.20252100208333,55.0,72.0
893,237.83500036041667,238.94610927708334,50.0,59.0
894,238.34781986041668,239.17687805208334,55.0,95.0
895,238.34781986041668,239.45251853333332,67.0,80.0
896,238.34781986041668,239.49525349166666,62.0,87.0
897,239.37345886041666,239.56149267708332,55.0,93.0
898,239.11704911041667,239.59354389583334,50.0,74.0
899,237.57859061041665,239.63627885416668,43.0,80.0
900,239.62986861041668,240.00807299166667,58.0,74.0
901,240.14268811041666,240.43755932291666,58.0,83.0
902,240.39909786041667,240.96533605833332,65.0,93.0
903,239.88627836041667,241.01661800833332,53.0,66.0
904,240.91191736041665,241.24097653958333,58.0,95.0
905,239.62986861041668,241.25807052291665,46.0,93.0
906,241.16832711041667,241.49738628958335,53.0,90.0
907,241.42473686041666,241.64268514791667,58.0,103.0
908,242.19396611041665,242.37772643125,60.0,80.0
909,242.45037586041667,242.87772544375,60.0,83.0
910,242.45037586041667,242.99097308333333,67.0,69.0
911,241.93755636041666,243.07003275625,55.0,72.0
912,242.96319536041668,243.07857974791668,63.0,103.0
913,241.68114661041668,243.11704121041666,48.0,87.0
914,243.21960511041667,243.39268169166667,60.0,87.0
915,243.73242461041667,244.03156931875,60.0,74.0
916,243.73242461041667,244.25592785,65.0,80.0
917,244.24524411041668,244.56575629791666,60.0,69.0
918,244.50165386041667,245.05507157083332,65.0,102.0
919,243.73242461041667,245.22601140416666,41.0,85.0
920,243.98883436041666,245.23455839583335,48.0,59.0
921,245.01447336041667,245.52515611249999,69.0,87.0
922,245.27088311041666,245.57857481041665,60.0,80.0
923,245.52729286041668,245.76233513125,65.0,74.0
924,245.78370261041667,246.0636165875,63.0,67.0
925,245.78370261041667,246.23882991666667,39.0,87.0
926,246.04011236041666,246.32429983333333,46.0,56.0
927,245.78370261041667,246.33071007708332,67.0,83.0
928,246.29652211041667,246.59780356666667,63.0,74.0
929,246.55293186041666,246.73241868541666,67.0,71.0
930,246.80934161041665,247.14694778125,62.0,70.0
931,246.80934161041665,247.30934062291666,66.0,64.0
932,246.80934161041665,247.3456653375,38.0,93.0
933,247.06575136041667,247.36703281666666,45.0,61.0
934,247.32216111041666,247.44181899375,62.0,87.0
935,248.34780011041667,248.5123297,55.0,95.0
936,248.60420986041666,248.94181603125,55.0,83.0
937,248.60420986041666,248.95677326666666,62.0,83.0
938,249.11702936041667,249.23455049583333,58.0,102.0
939,249.37343911041665,249.57429341458334,55.0,87.0
940,248.09139036041665,249.64907959166666,50.0,68.0
941,247.83498061041666,249.67685731458334,43.0,93.0
942,249.88625861041666,250.03583096458334,55.0,72.0
943,249.88625861041666,250.17471957916666,60.0,74.0
944,250.14266836041668,250.47172753958333,55.0,85.0
945,250.39907811041667,250.50805225416667,60.0,68.0
946,250.65548786041666,250.92044460208334,55.0,87.0
947,250.65548786041666,250.98454703958333,63.0,87.0
948,251.16830736041666,251.39907613541666,55.0,93.0
949,251.16830736041666,251.44608458958334,60.0,90.0
950,249.88625861041666,251.47599906041665,48.0,80.0
951,251.93753661041666,252.37984342916667,39.0,80.0
952,252.19394636041667,252.43112537916667,46.0,60.0
953,251.93753661041666,252.46317659791666,58.0,68.0
954,252.45035611041666,252.73881707916667,55.0,87.0
955,252.70676586041665,252.83710748333334,63.0,83.0
956,252.96317561041667,253.27514080625,53.0,90.0
957,252.96317561041667,253.47813185833334,57.0,93.0
958,252.96317561041667,253.49308909375,41.0,80.0
959,253.21958536041666,253.54864453958334,48.0,61.0
960,253.47599511041668,253.63625120416665,53.0,93.0
961,253.98881461041665,254.31360029375,55.0,70.0
962,253.98881461041665,254.46103589999998,62.0,68.0
963,254.50163411041666,255.02727409791666,55.0,80.0
964,254.75804386041668,255.10419702291668,67.0,87.0
965,255.27086336041666,255.55932432916666,62.0,87.0
966,253.98881461041665,255.7943666,43.0,87.0
967,254.24522436041667,255.80077684375,50.0,61.0
968,255.52727311041667,256.3456475625,55.0,87.0
969,256.04009261041665,256.4182969916667,58.0,74.0
970,255.78368286041666,256.64265552291664,62.0,80.0
971,256.5529121104167,256.84778332291665,58.0,83.0
972,256.8093218604167,257.37556005833335,65.0,93.0
973,256.29650236041664,257.4268420083333,53.0,66.0
974,257.32214136041665,257.65120053958333,58.0,95.0
975,256.04009261041665,257.66829452291665,46.0,93.0
976,257.57855111041664,257.9076102895833,53.0,90.0
977,257.8349608604167,258.0529091479167,58.0,103.0
978,258.60419011041665,258.78795043125,60.0,80.0
979,258.86059986041664,259.28794944375,60.0,83.0
980,258.86059986041664,259.40119708333333,67.0,69.0
981,258.34778036041666,259.48025675625,55.0,72.0
982,259.3734193604167,259.4888037479167,63.0,103.0
983,258.0913706104167,259.52726521041666,48.0,87.0
984,259.62982911041667,259.80290569166664,60.0,87.0
985,260.14264861041664,260.44179331875,60.0,74.0
986,260.14264861041664,260.66615185,65.0,80.0
987,260.6554681104167,260.9759802979167,60.0,69.0
988,260.91187786041667,261.46529557083335,65.0,102.0
989,260.14264861041664,261.63623540416665,41.0,85.0
990,260.3990583604167,261.6447823958333,48.0,59.0
991,261.42469736041664,261.9353801125,69.0,87.0
992,261.6811071104167,261.98879881041665,60.0,80.0
993,261.9375168604167,262.17255913125,65.0,74.0
994,262.19392661041667,262.4738405875,63.0,67.0
995,262.19392661041667,262.6490539166667,39.0,87.0
996,262.45033636041666,262.73452383333336,46.0,56.0
997,262.19392661041667,262.74093407708335,67.0,83.0
998,262.70674611041665,263.00802756666667,63.0,74.0
999,262.9631558604167,263.14264268541666,67.0,71.0
1000,263.2195656104167,263.55717178125,62.0,70.0
1001,263.2195656104167,263.71956462291666,66.0,64.0
1002,263.2195656104167,263.7558893375,38.0,93.0
1003,263.47597536041667,263.7772568166667,45.0,61.0
1004,263.73238511041666,263.85204299375,62.0,87.0
1005,264.75802411041667,264.9225537,55.0,95.0
1006,265.01443386041666,265.35204003125,55.0,83.0
1007,265.01443386041666,265.36699726666666,62.0,83.0
1008,265.5272533604167,265.64477449583336,58.0,102.0
1009,265.7836631104167,265.9845174145833,55.0,87.0
1010,264.5016143604167,266.05930359166666,50.0,68.0
1011,264.2452046104167,266.0870813145833,43.0,93.0
1012,266.29648261041666,266.4460549645833,55.0,72.0
1013,266.29648261041666,266.5849435791667,60.0,74.0
1014,266.55289236041665,266.8819515395833,55.0,85.0
1015,266.80930211041664,266.91827625416664,60.0,68.0
1016,267.0657118604167,267.33066860208334,55.0,87.0
1017,267.0657118604167,267.3947710395833,63.0,87.0
1018,267.57853136041666,267.80930013541666,55.0,93.0
1019,267.57853136041666,267.8563085895833,60.0,90.0
1020,266.29648261041666,267.8862230604167,48.0,80.0
1021,268.3477606104167,268.79006742916664,39.0,80.0
1022,268.6041703604167,268.8413493791667,46.0,60.0
1023,268.3477606104167,268.87340059791666,58.0,68.0
1024,268.86058011041666,269.1490410791667,55.0,87.0
1025,269.11698986041665,269.2473314833333,63.0,83.0
1026,269.37339961041664,269.68536480625,53.0,90.0
1027,269.37339961041664,269.88835585833334,57.0,93.0
1028,269.37339961041664,269.90331309375,41.0,80.0
1029,269.6298093604167,269.9588685395833,48.0,61.0
1030,269.8862191104167,270.04647520416665,53.0,93.0
1031,270.39903861041665,270.72382429375,55.0,70.0
1032,270.39903861041665,270.8712599,62.0,68.0
1033,270.9118581104167,271.43749809791666,55.0,80.0
1034,271.1682678604167,271.5144210229167,67.0,87.0
1035,271.68108736041665,271.9695483291667,62.0,87.0
1036,270.39903861041665,272.2045906,43.0,87.0
1037,270.65544836041664,272.21100084375,50.0,61.0
1038,271.93749711041664,272.7558715625,55.0,87.0
1039,272.1939068604167,273.05287952291667,62.0,80.0
