,start,end,pitch,velocity
0,10.566656100000001,10.836100275,51.0,94.0
1,10.8999891,11.159711062500001,53.0,108.0
2,11.2333221,11.5666551,56.0,105.0
3,11.5666551,12.399987600000001,56.0,108.0
4,12.233321100000001,12.6124873875,68.0,104.0
5,11.8999881,12.619431825000001,63.0,115.0
6,12.566654100000001,13.593041962500001,70.0,106.0
7,13.5666531,14.4763744125,68.0,112.0
8,14.5666521,14.9541517125,63.0,115.0
9,14.8999851,15.263873625,68.0,112.0
10,15.2333181,16.280539275000002,70.0,112.0
11,16.2333171,16.9235941875,68.0,112.0
12,17.2333161,17.6347045875,61.0,112.0
13,17.5666491,17.9235931875,68.0,109.0
14,17.899982100000003,18.829147837500003,70.0,112.0
15,18.8999811,19.715258062500002,68.0,112.0
16,19.8999801,20.3041463625,64.0,113.0
17,20.2333131,20.7347014875,68.0,104.0
18,19.5666471,20.758312575,75.0,101.0
19,20.8999791,21.812478187500002,73.0,109.0
20,21.566645100000002,21.9347002875,68.0,109.0
21,21.233312100000003,21.941644725,63.0,94.0
22,21.899978100000002,22.2430333125,70.0,101.0
23,22.2333111,23.274976725000002,63.0,94.0
24,22.2333111,23.3069211375,68.0,99.0
25,30.8985802125,31.14996885,72.0,123.0
26,31.234690987500002,31.8208015125,75.0,105.0
27,31.9110792,32.347189875,77.0,105.0
28,32.3902453875,32.4930230625,75.0,97.0
29,32.548578562500005,33.3124666875,72.0,105.0
30,36.2332971,36.568018987500004,65.0,100.0
31,36.566630100000005,36.7485743625,68.0,111.0
32,36.8402409375,36.93885195,68.0,97.0
33,36.8999631,37.372184850000004,70.0,82.0
34,37.3999626,37.89440655,68.0,108.0
35,37.8999621,38.1541285125,65.0,97.0
36,38.2332951,39.71662695,70.0,97.0
37,41.8999581,42.1874578125,63.0,105.0
38,42.2332911,42.502735275,68.0,111.0
39,42.5666241,42.8430127125,70.0,114.0
40,42.8999571,43.2110679,72.0,108.0
41,43.233290100000005,43.580511975,75.0,102.0
42,43.5666231,45.193010362500004,68.0,87.0
43,51.8999481,52.159670062500005,72.0,105.0
44,52.2332811,52.5221697,75.0,102.0
45,52.5666141,52.79439165,72.0,97.0
46,52.899947100000006,53.177724600000005,77.0,105.0
47,53.2332801,53.5346686875,75.0,97.0
48,53.566613100000005,53.8846683375,72.0,92.0
49,53.8999461,54.219390225000005,75.0,94.0
50,54.233279100000004,55.4957778375,72.0,108.0
51,58.8999411,59.097163125,63.0,97.0
52,59.2332741,59.436051675,65.0,111.0
53,59.566607100000006,60.4318840125,72.0,87.0
54,60.5666061,60.802716975,70.0,102.0
55,60.899939100000005,61.502716275000004,68.0,105.0
56,61.566605100000004,62.0707712625,67.0,102.0
57,62.2332711,62.981881462500006,68.0,97.0
58,63.233270100000006,63.4152143625,63.0,111.0
59,63.399936600000004,63.522158700000006,65.0,111.0
60,63.5666031,63.841602825,68.0,105.0
61,63.899936100000005,64.2110469,70.0,102.0
62,64.2332691,64.5318799125,72.0,114.0
63,64.5666021,64.72771305,77.0,102.0
64,64.7332686,64.886046225,80.0,104.0
65,64.89993510000001,66.0666006,82.0,97.0
66,68.8999311,69.4513194375,79.0,93.0
67,69.56659710000001,69.86104125,75.0,100.0
68,69.8999301,70.1763187125,72.0,94.0
69,70.2332631,71.6485394625,77.0,102.0
70,73.8999261,74.1735369375,72.0,108.0
71,74.2332591,74.508258825,75.0,114.0
72,74.56659210000001,74.79020298750001,72.0,102.0
73,74.8999251,75.2013136875,72.0,108.0
74,75.2332581,75.50548005,70.0,108.0
75,75.5665911,77.0957562375,72.0,108.0
76,84.23324910000001,84.50547105,60.0,108.0
77,84.5665821,84.8443596,61.0,108.0
78,84.8999151,85.1735259375,63.0,111.0
79,85.2332481,85.508247825,65.0,111.0
80,85.56658110000001,85.68324765,67.0,109.0
81,85.7332476,85.852691925,68.0,89.0
82,85.8999141,86.06658060000001,70.0,108.0
83,86.06658060000001,86.2332471,72.0,105.0
84,86.2332471,87.23661705,70.0,108.0
85,87.23661705,87.4978528875,68.0,117.0
86,87.57369555,87.8461673375,70.0,114.0
87,87.91077405,88.1832458375,72.0,114.0
88,88.24785255,88.47678503125,73.0,117.0
89,88.58493105,88.92060505625,75.0,105.0
90,88.92200955,90.34767939999999,82.0,114.0
91,92.9268434875,93.1796210125,75.0,114.0
92,93.26017648749999,93.48378737499999,77.0,114.0
93,93.5935094875,93.7962870625,80.0,114.0
94,93.9268424875,94.11156452499999,82.0,102.0
95,94.26017548749999,95.47545205,84.0,111.0
96,95.59350748749999,96.7323952375,82.0,92.0
97,96.92683948749999,97.62961656249999,77.0,97.0
98,98.2601714875,98.78655985,79.0,99.0
99,98.9268374875,99.43100365,75.0,87.0
100,99.5935034875,101.2476685,82.0,100.0
101,102.2601674875,104.11016563749999,87.0,102.0
102,104.26016548749999,104.4934985875,85.0,94.0
103,104.5934984875,104.80877604999999,84.0,100.0
104,104.9268314875,106.4434966375,82.0,114.0
105,107.5934954875,108.82543869999999,87.0,100.0
106,108.92682748749999,109.1962716625,70.0,114.0
107,109.2601604875,109.52960466249999,72.0,114.0
108,109.5934934875,109.81988215,73.0,117.0
109,109.9268264875,110.25877059999999,75.0,105.0
110,110.2601594875,111.6809914,82.0,114.0
111,114.2601554875,114.5129330125,75.0,114.0
112,114.5934884875,114.817099375,77.0,114.0
113,114.92682148749999,115.1295990625,80.0,114.0
114,115.26015448749999,115.444876525,82.0,102.0
115,115.5934874875,116.80876405,84.0,111.0
116,116.9268194875,118.06570723749999,82.0,92.0
117,118.2601514875,118.9629285625,77.0,97.0
118,119.5934834875,120.11987185,79.0,99.0
119,120.2601494875,120.76431565,75.0,87.0
120,120.9268154875,122.5809805,82.0,100.0
121,123.59347948749999,125.4434776375,87.0,102.0
122,125.5934774875,125.8268105875,85.0,94.0
123,125.9268104875,126.14208805,84.0,100.0
124,126.26014348749999,127.7768086375,82.0,114.0
125,128.9268074875,130.15875069999998,87.0,100.0
126,129.9268064875,130.228195075,77.0,108.0
127,130.2601394875,130.49763925,75.0,105.0
128,130.59347248749998,130.8476389,77.0,105.0
129,130.9268054875,131.4740271625,80.0,105.0
130,131.59347148749998,133.78096929999998,75.0,106.0
131,131.59347148749998,133.8031915,71.0,117.0
132,133.9268024875,134.1934688875,75.0,112.0
133,134.2601354875,136.150411375,73.0,115.0
134,136.2601334875,136.93652170000001,70.0,109.0
135,138.5934644875,138.8601308875,77.0,117.0
136,138.92679748749998,139.45318585,84.0,114.0
137,136.9267994875,139.6601300875,68.0,112.0
138,139.5934634875,142.2490163875,84.0,123.0
139,142.2601274875,144.128181175,75.0,106.0
140,142.2601274875,144.15318115,71.0,113.0
141,144.59345848750002,144.94901368749998,75.0,109.0
142,144.9267914875,146.8323451375,73.0,112.0
143,146.9267894875,147.41984455,73.0,102.0
144,146.9267894875,147.5462333125,70.0,118.0
145,147.5934554875,150.11984185,68.0,115.0
146,147.5934554875,150.211508425,75.0,108.0
147,150.2601194875,151.1587297,68.0,115.0
148,151.2601184875,151.3990072375,70.0,106.0
149,150.2601194875,151.51984045,87.0,114.0
150,151.4267849875,151.561507075,71.0,113.0
151,151.5934514875,152.27132365416668,70.0,115.0
152,151.5934514875,152.7599598875,85.0,111.0
153,152.27132365416668,152.95314165416667,66.0,114.0
154,152.95314165416667,154.05112065416668,68.0,112.0
155,152.95314165416667,154.27889820416667,87.0,102.0
156,161.29555785416667,161.55527981666668,72.0,105.0
157,161.62889085416668,161.91777945416666,75.0,102.0
158,161.96222385416667,162.19000140416668,72.0,97.0
159,162.29555685416668,162.57333435416666,77.0,105.0
160,162.6288898541667,162.93027844166667,75.0,97.0
161,162.96222285416667,163.28027809166667,72.0,92.0
162,163.29555585416668,163.61499997916667,75.0,94.0
163,163.62888885416666,164.89138759166667,72.0,108.0
164,168.29555085416666,168.49277287916667,63.0,97.0
165,168.62888385416667,168.83166142916667,65.0,111.0
166,168.96221685416668,169.82749376666666,72.0,87.0
167,169.9622158541667,170.19832672916667,70.0,102.0
168,170.29554885416667,170.89832602916667,68.0,105.0
169,170.9622148541667,171.46638101666667,67.0,102.0
170,171.62888085416668,172.37749121666667,68.0,97.0
171,172.62887985416668,172.81082411666668,63.0,111.0
172,172.79554635416667,172.91776845416666,65.0,111.0
173,172.96221285416667,173.23721257916668,68.0,105.0
174,173.29554585416668,173.60665665416667,70.0,102.0
175,173.6288788541667,173.92748966666667,72.0,114.0
176,173.96221185416667,174.12332280416666,77.0,102.0
177,174.12887835416666,174.2816559791667,80.0,104.0
178,174.29554485416668,175.46221035416667,82.0,97.0
179,178.2955408541667,178.84692919166667,79.0,93.0
180,178.96220685416668,179.25665100416668,75.0,100.0
181,179.29553985416666,179.57192846666666,72.0,94.0
182,179.62887285416667,181.04414921666668,77.0,102.0
183,183.29553585416667,183.56914669166667,72.0,108.0
184,183.62886885416668,183.90386857916667,75.0,114.0
185,183.96220185416666,184.18581274166667,72.0,102.0
186,184.29553485416668,184.59692344166666,72.0,108.0
187,184.62886785416669,184.90108980416667,70.0,108.0
188,184.96220085416667,186.49136599166667,72.0,108.0
189,193.62885885416668,193.90108080416667,60.0,108.0
190,193.9621918541667,194.23996935416667,61.0,108.0
191,194.29552485416667,194.56913569166667,63.0,111.0
192,194.62885785416668,194.90385757916667,65.0,111.0
193,194.96219085416666,195.07885740416668,67.0,109.0
194,195.12885735416668,195.24830167916667,68.0,89.0
195,195.29552385416667,195.46219035416667,70.0,108.0
196,195.46219035416667,195.62885685416668,72.0,105.0
197,195.62885685416668,196.63113436666669,70.0,108.0
198,196.63113436666669,196.8925962166667,68.0,117.0
199,196.9701824041667,197.2489179666667,70.0,114.0
200,197.3150099041667,197.5937454666667,72.0,114.0
201,197.6598374041667,197.8940327479167,73.0,117.0
202,198.0046649041667,198.3480556229167,75.0,105.0
203,198.3494924041667,199.7832077354167,82.0,114.0
204,202.3623718229167,202.6151493479167,75.0,114.0
205,202.6957048229167,202.9193157104167,77.0,114.0
206,203.0290378229167,203.2318153979167,80.0,114.0
207,203.36237082291672,203.5470928604167,82.0,102.0
208,203.6957038229167,204.9109803854167,84.0,111.0
209,205.0290358229167,206.16792357291672,82.0,92.0
210,206.3623678229167,207.0651448979167,77.0,97.0
211,207.6956998229167,208.2220881854167,79.0,99.0
212,208.3623658229167,208.8665319854167,75.0,87.0
213,209.0290318229167,210.6831968354167,82.0,100.0
214,211.69569582291672,213.5456939729167,87.0,102.0
215,213.6956938229167,213.9290269229167,85.0,94.0
216,214.0290268229167,214.2443043854167,84.0,100.0
217,214.36235982291672,215.8790249729167,82.0,114.0
218,217.0290238229167,218.2609670354167,87.0,100.0
219,218.3623558229167,218.63179999791672,70.0,114.0
220,218.6956888229167,218.9651329979167,72.0,114.0
221,219.02902182291672,219.25541048541672,73.0,117.0
222,219.3623548229167,219.6942989354167,75.0,105.0
223,219.6956878229167,221.11651973541672,82.0,114.0
224,223.6956838229167,223.9484613479167,75.0,114.0
225,224.0290168229167,224.2526277104167,77.0,114.0
226,224.3623498229167,224.5651273979167,80.0,114.0
227,224.6956828229167,224.88040486041672,82.0,102.0
228,225.0290158229167,226.2442923854167,84.0,111.0
229,226.36234782291672,227.5012355729167,82.0,92.0
230,227.6956798229167,228.3984568979167,77.0,97.0
231,229.02901182291671,229.55540018541672,79.0,99.0
232,229.6956778229167,230.1998439854167,75.0,87.0
233,230.3623438229167,232.01650883541672,82.0,100.0
234,233.0290078229167,234.8790059729167,87.0,102.0
235,235.0290058229167,235.2623389229167,85.0,94.0
236,235.3623388229167,235.57761638541672,84.0,100.0
237,235.69567182291672,237.21233697291672,82.0,114.0
238,238.3623358229167,239.59427903541672,87.0,100.0
239,239.6956678229167,239.96511199791672,70.0,114.0
240,240.02900082291671,240.2984449979167,72.0,114.0
241,240.3623338229167,240.58872248541672,73.0,117.0
242,240.6956668229167,241.0276109354167,75.0,105.0
243,241.02899982291672,242.4498317354167,82.0,114.0
244,245.0289958229167,245.2817733479167,75.0,114.0
245,245.3623288229167,245.5859397104167,77.0,114.0
246,245.6956618229167,245.89843939791672,80.0,114.0
247,246.0289948229167,246.2137168604167,82.0,102.0
248,246.3623278229167,247.5776043854167,84.0,111.0
249,247.6956598229167,248.8345475729167,82.0,92.0
250,249.0289918229167,249.7317688979167,77.0,97.0
251,250.36232382291672,250.8887121854167,79.0,99.0
252,251.0289898229167,251.5331559854167,75.0,87.0
253,251.6956558229167,253.34982083541672,82.0,100.0
254,254.3623198229167,256.2123179729167,87.0,102.0
255,256.3623178229167,256.5956509229167,85.0,94.0
256,256.6956508229167,256.9109283854167,84.0,100.0
257,257.0289838229167,258.5456489729167,82.0,114.0
258,259.6956478229167,260.9275910354167,87.0,100.0
259,260.69564682291673,260.9970354104167,77.0,108.0
260,261.0289798229167,261.26647958541673,75.0,105.0
261,261.3623128229167,261.6164792354167,77.0,105.0
262,261.69564582291673,262.2428674979167,80.0,105.0
263,262.3623118229167,264.5498096354167,75.0,106.0
264,262.3623118229167,264.57203183541674,71.0,117.0
265,264.69564282291674,264.9623092229167,75.0,112.0
266,265.0289758229167,266.9192517104167,73.0,115.0
267,267.0289738229167,267.7053620354167,70.0,109.0
268,267.6956398229167,270.4289704229167,68.0,112.0
269,273.0289678229167,274.8970215104167,75.0,106.0
270,273.0289678229167,274.92202148541674,71.0,113.0
271,275.3622988229167,275.7178540229167,75.0,109.0
272,275.6956318229167,277.6011854729167,73.0,112.0
273,277.6956298229167,278.31507364791673,70.0,118.0
274,278.36229582291674,280.8886821854167,68.0,115.0
275,281.0289598229167,281.9275700354167,68.0,115.0
276,282.0289588229167,282.1678475729167,70.0,106.0
277,282.1956253229167,282.3303474104167,71.0,113.0
278,282.3622918229167,283.0289578229167,70.0,115.0
279,283.0289578229167,283.69562382291673,66.0,114.0
280,283.69562382291673,284.7414561104167,68.0,112.0
281,284.3622898229167,284.7414561104167,68.0,104.0
282,284.0289568229167,284.74840054791673,63.0,115.0
283,284.6956228229167,285.7220106854167,70.0,106.0
284,285.6956218229167,286.6053431354167,68.0,112.0
285,286.6956208229167,287.08312043541673,63.0,115.0
286,287.0289538229167,287.3928423479167,68.0,112.0
287,287.3622868229167,288.4095079979167,70.0,112.0
288,288.3622858229167,289.0525629104167,68.0,112.0
289,289.3622848229167,289.7636733104167,61.0,112.0
290,289.6956178229167,290.0525619104167,68.0,109.0
291,290.0289508229167,290.9581165604167,70.0,112.0
292,291.02894982291673,291.8442267854167,68.0,112.0
293,292.02894882291673,292.4331150854167,64.0,113.0
294,292.3622818229167,292.86367021041673,68.0,104.0
295,291.6956158229167,292.88728129791673,75.0,101.0
296,293.02894782291673,293.94144691041674,73.0,109.0
297,293.6956138229167,294.0636690104167,68.0,109.0
298,293.3622808229167,294.0706134479167,63.0,94.0
299,294.02894682291674,294.3720020354167,70.0,101.0
300,294.3622798229167,295.4039454479167,63.0,94.0
301,294.3622798229167,295.4358898604167,68.0,99.0
