,start,end,pitch,velocity
0,22.2333111,23.0346991875,68.0,118.0
1,23.2333101,23.413865475,63.0,118.0
2,23.5666431,23.7874762125,68.0,112.0
3,23.8999761,24.074975925,70.0,115.0
4,24.2333091,24.4346977875,72.0,112.0
5,24.566642100000003,24.7846974375,73.0,106.0
6,24.899975100000002,26.3110848,75.0,112.0
7,26.8999731,27.134695087500003,75.0,115.0
8,27.2333061,27.4374725625,77.0,112.0
9,27.5666391,28.308305025000003,80.0,115.0
10,28.566638100000002,28.7444157,82.0,115.0
11,28.899971100000002,29.2485818625,80.0,115.0
12,29.3999706,29.7763591125,77.0,112.0
13,29.8999701,30.123580987500002,72.0,112.0
14,30.2333031,31.4458018875,75.0,112.0
15,33.2333001,33.4319110125,72.0,106.0
16,33.566633100000004,33.7999662,72.0,109.0
17,33.8999661,34.094410350000004,73.0,106.0
18,34.2332991,34.6569097875,72.0,115.0
19,34.8999651,35.123575987500004,65.0,112.0
20,35.2332981,35.7332976,68.0,115.0
21,35.8999641,37.3152404625,70.0,115.0
22,38.5666281,38.7207946125,70.0,106.0
23,38.8999611,39.0930164625,70.0,109.0
24,39.2332941,39.416627250000005,68.0,106.0
25,39.566627100000005,40.047182175,70.0,112.0
26,40.233293100000004,40.441626225,72.0,112.0
27,40.5666261,41.074958925000004,70.0,115.0
28,41.2332921,42.2374577625,63.0,112.0
29,43.5666231,44.3680111875,68.0,118.0
30,44.566622100000004,44.747177475,63.0,118.0
31,44.8999551,45.1207882125,68.0,112.0
32,45.2332881,45.408287925,70.0,115.0
33,45.5666211,45.7680097875,68.0,112.0
34,45.8999541,47.566619100000004,75.0,106.0
35,48.2332851,48.468007087500006,75.0,115.0
36,48.5666181,48.770784562500005,77.0,112.0
37,48.8999511,49.641617025,80.0,115.0
38,49.899950100000005,50.077727700000004,82.0,115.0
39,50.2332831,50.5818938625,80.0,115.0
40,50.7332826,51.1096711125,77.0,112.0
41,51.233282100000004,51.456892987500005,72.0,112.0
42,51.5666151,52.7791138875,75.0,112.0
43,54.5666121,54.719389725,77.0,104.0
44,54.899945100000004,55.097167125000006,77.0,115.0
45,55.2332781,55.4318890125,80.0,115.0
46,55.5666111,56.0207773125,77.0,115.0
47,56.2332771,56.4624435375,72.0,109.0
48,56.566610100000005,57.063831825,75.0,109.0
49,57.233276100000005,58.319386125,70.0,112.0
50,58.8999411,59.124940875,63.0,115.0
51,59.2332741,59.444385000000004,65.0,112.0
52,59.566607100000006,60.347161875000005,72.0,109.0
53,60.5666061,60.747161475000006,70.0,112.0
54,60.899939100000005,61.386049725,68.0,112.0
55,61.566605100000004,61.8999381,67.0,113.0
56,61.8999381,63.334658887500005,68.0,109.0
57,65.2332681,65.430490125,70.0,112.0
58,65.5666011,65.7485453625,70.0,118.0
59,65.8999341,66.11660055,68.0,115.0
60,66.2332671,66.7263221625,70.0,115.0
61,66.8999331,67.0777107,70.0,118.0
62,67.23326610000001,67.45965476250001,68.0,115.0
63,67.5665991,67.797154425,72.0,115.0
64,67.8999321,69.6790969875,75.0,112.0
65,70.5665961,70.70548485,80.0,112.0
66,70.89992910000001,71.0790955875,80.0,112.0
67,71.2332621,71.419373025,82.0,115.0
68,71.5665951,72.03881685,80.0,118.0
69,72.2332611,72.45409421250001,77.0,115.0
70,72.5665941,73.23326010000001,80.0,115.0
71,73.23326010000001,74.8999251,75.0,115.0
72,75.8999241,76.0874239125,72.0,106.0
73,76.2332571,76.444368,72.0,112.0
74,76.5665901,76.7707565625,75.0,115.0
75,76.89992310000001,77.358255975,75.0,115.0
76,77.5665891,77.8013110875,72.0,115.0
77,77.8999221,78.08186636250001,75.0,112.0
78,78.23325510000001,78.9888099,80.0,112.0
79,79.23325410000001,79.76380912500001,79.0,120.0
80,79.8999201,80.836030275,77.0,106.0
81,81.2332521,81.3999186,77.0,109.0
82,81.5665851,81.74436270000001,77.0,115.0
83,81.89991810000001,82.1374178625,75.0,112.0
84,82.2332511,82.780472775,77.0,112.0
85,82.89991710000001,83.086028025,80.0,115.0
86,83.2332501,83.8513050375,82.0,115.0
87,83.8999161,86.136024975,75.0,112.0
88,88.24785255,88.455717625,75.0,115.0
89,88.58493105,88.7731332125,77.0,112.0
90,88.92200955,89.0933577875,82.0,118.0
91,89.25908805,89.7601799875,82.0,118.0
92,89.9268464875,90.1240685125,80.0,115.0
93,90.2601794875,90.7407345625,77.0,112.0
94,90.9268454875,91.4935115875,84.0,115.0
95,91.5935114875,93.0018434125,82.0,115.0
96,93.5935094875,93.8490647875,80.0,109.0
97,93.9268424875,94.08656454999999,82.0,121.0
98,94.26017548749999,94.4490641875,84.0,115.0
99,94.5935084875,94.7851749625,87.0,106.0
100,94.9268414875,95.0990635375,87.0,106.0
101,95.2601744875,95.41711877499999,87.0,109.0
102,95.9268404875,96.2601734875,87.0,112.0
103,96.2601734875,96.92683948749999,75.0,115.0
104,96.92683948749999,98.9268374875,77.0,106.0
105,98.9268374875,99.1157261875,75.0,115.0
106,99.26017048749999,99.43100365,77.0,109.0
107,99.5935034875,99.76016998749999,82.0,115.0
108,99.9268364875,100.44350263749999,82.0,118.0
109,100.59350248749999,100.772668975,80.0,112.0
110,100.9268354875,101.39627946249999,77.0,112.0
111,101.59350148749999,102.14766759999999,84.0,115.0
112,102.2601674875,103.6657216375,82.0,115.0
113,104.26016548749999,104.4698875,82.0,115.0
114,104.5934984875,104.778220525,80.0,115.0
115,104.9268314875,105.3573866125,85.0,115.0
116,105.4268309875,105.7796084125,84.0,115.0
117,105.9268304875,106.1476636,80.0,115.0
118,106.2601634875,106.78655185,82.0,115.0
119,106.9268294875,107.4907178125,84.0,115.0
120,107.5934954875,109.0657162375,75.0,115.0
121,109.5934934875,109.7990488375,75.0,115.0
122,109.9268264875,110.1129374125,77.0,112.0
123,110.2601594875,110.4296037625,82.0,118.0
124,110.5934924875,111.0934919875,82.0,118.0
125,111.2601584875,111.4573805125,80.0,115.0
126,111.59349148749999,112.0740465625,77.0,112.0
127,112.2601574875,112.8268235875,84.0,115.0
128,112.9268234875,114.3351554125,82.0,115.0
129,114.92682148749999,115.1823767875,80.0,109.0
130,115.26015448749999,115.41987655,82.0,121.0
131,115.5934874875,115.7823761875,84.0,115.0
132,115.9268204875,116.1184869625,87.0,106.0
133,116.26015348749999,116.4323755375,87.0,106.0
134,116.5934864875,116.9268194875,87.0,109.0
135,117.2601524875,117.5934854875,87.0,112.0
136,117.5934854875,118.2601514875,75.0,115.0
137,118.2601514875,120.2601494875,77.0,106.0
138,120.2601494875,120.4490381875,75.0,115.0
139,120.5934824875,120.76431565,77.0,109.0
140,120.9268154875,121.0934819875,82.0,115.0
141,121.2601484875,121.7768146375,82.0,118.0
142,121.9268144875,122.105980975,80.0,112.0
143,122.2601474875,122.7295914625,77.0,112.0
144,122.9268134875,123.4809796,84.0,115.0
145,123.59347948749999,124.99903363749999,82.0,115.0
146,125.5934774875,125.8031995,82.0,115.0
147,125.9268104875,126.111532525,80.0,115.0
148,126.26014348749999,127.26014248749999,85.0,115.0
149,127.26014248749999,127.4809756,84.0,115.0
150,127.5934754875,128.11986385,80.0,115.0
151,128.2601414875,128.8240298125,82.0,115.0
152,128.9268074875,130.3990282375,80.0,115.0
153,152.95314165416667,153.76362094166666,68.0,118.0
154,153.96223185416667,154.1427872291667,63.0,118.0
155,154.29556485416668,154.51639796666666,68.0,112.0
156,154.62889785416667,154.80389767916668,70.0,115.0
157,154.96223085416668,155.16361954166666,68.0,112.0
158,155.2955638541667,156.96222885416668,75.0,106.0
159,157.62889485416667,157.86361684166667,75.0,115.0
160,157.96222785416668,158.16639431666667,77.0,112.0
161,158.29556085416667,159.03722677916667,80.0,115.0
162,159.29555985416667,159.47333745416668,82.0,115.0
163,159.62889285416668,159.97750361666667,80.0,115.0
164,160.12889235416668,160.50528086666668,77.0,112.0
165,160.62889185416668,160.85250274166668,72.0,112.0
166,160.96222485416666,162.17472364166667,75.0,112.0
167,163.96222185416667,164.11499947916667,77.0,104.0
168,164.29555485416668,164.49277687916668,77.0,115.0
169,164.62888785416666,164.82749876666668,80.0,115.0
170,164.96222085416667,165.4163870666667,77.0,115.0
171,165.62888685416667,165.85805329166666,72.0,109.0
172,165.96221985416668,166.45944157916668,75.0,109.0
173,166.62888585416667,167.71499587916668,70.0,112.0
174,168.29555085416666,168.52055062916668,63.0,115.0
175,168.62888385416667,168.83999475416667,65.0,112.0
176,168.96221685416668,169.74277162916667,72.0,109.0
177,169.9622158541667,170.14277122916667,70.0,112.0
178,170.29554885416667,170.78165947916668,68.0,112.0
179,170.9622148541667,171.29554785416667,67.0,113.0
180,171.29554785416667,172.73026864166667,68.0,109.0
181,174.62887785416666,174.82609987916666,70.0,112.0
182,174.96221085416667,175.14415511666667,70.0,118.0
183,175.29554385416668,175.51221030416667,68.0,115.0
184,175.62887685416666,176.12193191666668,70.0,115.0
185,176.29554285416668,176.47332045416667,70.0,118.0
186,176.62887585416667,176.85526451666667,68.0,115.0
187,176.96220885416668,177.19276417916666,72.0,115.0
188,177.2955418541667,179.07470674166666,75.0,112.0
189,179.96220585416668,180.1010946041667,80.0,112.0
190,180.29553885416667,180.47470534166666,80.0,112.0
191,180.62887185416668,180.81498277916668,82.0,115.0
192,180.96220485416669,181.43442660416667,80.0,118.0
193,181.62887085416668,181.84970396666668,77.0,115.0
194,181.96220385416666,182.62886985416668,80.0,115.0
195,182.62886985416668,184.29553485416668,75.0,115.0
196,185.29553385416668,185.48303366666667,72.0,106.0
197,185.6288668541667,185.83997775416668,72.0,112.0
198,185.96219985416667,186.16636631666668,75.0,115.0
199,186.29553285416668,186.75386572916668,75.0,115.0
200,186.96219885416667,187.19692084166667,72.0,115.0
201,187.29553185416668,187.47747611666668,75.0,112.0
202,187.62886485416666,188.38441965416666,80.0,112.0
203,188.62886385416667,189.15941887916668,79.0,120.0
204,189.29552985416666,190.23164002916667,77.0,106.0
205,190.62886185416667,190.79552835416666,77.0,109.0
206,190.96219485416668,191.13997245416667,77.0,115.0
207,191.29552785416666,191.5330276166667,75.0,112.0
208,191.62886085416667,192.17608252916668,77.0,112.0
209,192.29552685416667,192.48163777916668,80.0,115.0
210,192.62885985416668,193.24691479166668,79.0,115.0
211,193.29552585416667,195.53163472916668,75.0,112.0
212,197.6598374041667,197.8724810291667,75.0,115.0
213,198.0046649041667,198.1971935916667,77.0,112.0
214,198.3494924041667,198.5247797166667,82.0,118.0
215,198.6943199041667,199.19570832291672,82.0,118.0
216,199.3623748229167,199.5595968479167,80.0,115.0
217,199.69570782291672,200.1762628979167,77.0,112.0
218,200.3623738229167,200.9290399229167,84.0,115.0
219,201.0290398229167,202.4373717479167,82.0,115.0
220,203.0290378229167,203.2845931229167,80.0,109.0
221,203.36237082291672,203.5220928854167,82.0,121.0
222,203.6957038229167,203.8845925229167,84.0,115.0
223,204.0290368229167,204.2207032979167,87.0,106.0
224,204.36236982291672,204.5345918729167,87.0,106.0
225,204.6957028229167,204.8526471104167,87.0,109.0
226,205.3623688229167,205.6957018229167,87.0,112.0
227,205.6957018229167,206.3623678229167,75.0,115.0
228,206.3623678229167,208.3623658229167,77.0,106.0
229,208.3623658229167,208.5512545229167,75.0,115.0
230,208.6956988229167,208.8665319854167,77.0,109.0
231,209.0290318229167,209.1956983229167,82.0,115.0
232,209.3623648229167,209.8790309729167,82.0,118.0
233,210.0290308229167,210.2081973104167,80.0,112.0
234,210.3623638229167,210.8318077979167,77.0,112.0
235,211.0290298229167,211.5831959354167,84.0,115.0
236,211.69569582291672,213.10124997291672,82.0,115.0
237,213.6956938229167,213.9054158354167,82.0,115.0
238,214.0290268229167,214.2137488604167,80.0,115.0
239,214.36235982291672,214.7929149479167,85.0,115.0
240,214.86235932291672,215.21513674791672,84.0,115.0
241,215.36235882291672,215.58319193541672,80.0,115.0
242,215.6956918229167,216.2220801854167,82.0,115.0
243,216.3623578229167,216.92624614791671,84.0,115.0
244,217.0290238229167,218.5012445729167,75.0,115.0
245,219.02902182291672,219.23457717291672,75.0,115.0
246,219.3623548229167,219.5484657479167,77.0,112.0
247,219.6956878229167,219.8651320979167,82.0,118.0
248,220.02902082291672,220.52902032291672,82.0,118.0
249,220.6956868229167,220.89290884791671,80.0,115.0
250,221.0290198229167,221.5095748979167,77.0,112.0
251,221.69568582291672,222.2623519229167,84.0,115.0
252,222.3623518229167,223.7706837479167,82.0,115.0
253,224.3623498229167,224.6179051229167,80.0,109.0
254,224.6956828229167,224.8554048854167,82.0,121.0
255,225.0290158229167,225.2179045229167,84.0,115.0
256,225.36234882291672,225.5540152979167,87.0,106.0
257,225.6956818229167,225.8679038729167,87.0,106.0
258,226.0290148229167,226.36234782291672,87.0,109.0
259,226.6956808229167,227.0290138229167,87.0,112.0
260,227.0290138229167,227.6956798229167,75.0,115.0
261,227.6956798229167,229.6956778229167,77.0,106.0
262,229.6956778229167,229.8845665229167,75.0,115.0
263,230.02901082291672,230.1998439854167,77.0,109.0
264,230.3623438229167,230.52901032291672,82.0,115.0
265,230.6956768229167,231.2123429729167,82.0,118.0
266,231.3623428229167,231.5415093104167,80.0,112.0
267,231.6956758229167,232.1651197979167,77.0,112.0
268,232.3623418229167,232.91650793541672,84.0,115.0
269,233.0290078229167,234.4345619729167,82.0,115.0
270,235.0290058229167,235.2387278354167,82.0,115.0
271,235.3623388229167,235.5470608604167,80.0,115.0
272,235.69567182291672,236.69567082291672,85.0,115.0
273,236.69567082291672,236.9165039354167,84.0,115.0
274,237.0290038229167,237.5553921854167,80.0,115.0
275,237.6956698229167,238.25955814791672,82.0,115.0
276,238.3623358229167,239.8345565729167,80.0,115.0
277,240.3623338229167,240.5678891729167,75.0,115.0
278,240.6956668229167,240.88177774791671,77.0,112.0
279,241.02899982291672,241.1984440979167,82.0,118.0
280,241.3623328229167,241.8623323229167,82.0,118.0
281,242.02899882291672,242.2262208479167,80.0,115.0
282,242.3623318229167,242.8428868979167,77.0,112.0
283,243.02899782291672,243.5956639229167,84.0,115.0
284,243.6956638229167,245.1039957479167,82.0,115.0
285,245.6956618229167,245.95121712291672,80.0,109.0
286,246.0289948229167,246.1887168854167,82.0,121.0
287,246.3623278229167,246.55121652291672,84.0,115.0
288,246.6956608229167,246.8873272979167,87.0,106.0
289,247.0289938229167,247.2012158729167,87.0,106.0
290,247.3623268229167,247.6956598229167,87.0,109.0
291,248.0289928229167,248.36232582291672,87.0,112.0
292,248.36232582291672,249.0289918229167,75.0,115.0
293,249.0289918229167,251.0289898229167,77.0,106.0
294,251.0289898229167,251.2178785229167,75.0,115.0
295,251.36232282291672,251.5331559854167,77.0,109.0
296,251.6956558229167,251.86232232291673,82.0,115.0
297,252.02898882291672,252.5456549729167,82.0,118.0
298,252.6956548229167,252.8748213104167,80.0,112.0
299,253.0289878229167,253.4984317979167,77.0,112.0
300,253.6956538229167,254.24981993541672,84.0,115.0
301,254.3623198229167,255.7678739729167,82.0,115.0
302,256.3623178229167,256.5720398354167,82.0,115.0
303,256.6956508229167,256.8803728604167,80.0,115.0
304,257.0289838229167,258.0289828229167,85.0,115.0
305,258.0289828229167,258.2498159354167,84.0,115.0
306,258.3623158229167,258.8887041854167,80.0,115.0
307,259.0289818229167,259.5928701479167,82.0,115.0
308,259.6956478229167,261.1678685729167,80.0,115.0
