,start,end,pitch,velocity
0,1.5666651,1.94999805,56.0,101.0
1,1.2333321000000002,2.6444418,51.0,82.0
2,0.8999991,3.3958299375000003,44.0,106.0
3,2.8999971,3.4930520625000003,51.0,64.0
4,2.5666641,3.88332945,56.0,99.0
5,1.8999981000000001,3.8874961125,58.0,112.0
6,3.8999961,5.0347171875,51.0,82.0
7,4.233329100000001,5.20555035,56.0,91.0
8,4.5666621,5.580549975,58.0,109.0
9,5.2333281000000005,5.641661025,51.0,56.0
10,5.5666611,6.1874938125000005,56.0,104.0
11,5.899994100000001,6.2333271,51.0,55.0
12,3.5666631,6.2597159625000005,44.0,101.0
13,6.2333271,6.3652714125,61.0,55.0
14,6.2333271,6.7055488500000004,54.0,76.0
15,6.8999931000000005,7.0847151375,54.0,82.0
16,6.2333271,7.2611038500000005,63.0,69.0
17,6.5666601,7.3152704625,49.0,91.0
18,7.2333261,8.0486030625,54.0,101.0
19,7.2333261,8.1222141,61.0,96.0
20,7.8999921,8.333325,49.0,46.0
21,6.2333271,8.3708249625,42.0,106.0
22,8.2333251,8.5180470375,54.0,106.0
23,8.899991100000001,9.3319351125,56.0,91.0
24,8.899991100000001,9.652768125,61.0,96.0
25,9.5666571,9.9333234,56.0,59.0
26,9.2333241,9.980545575,53.0,50.0
27,8.899991100000001,10.036101075000001,49.0,96.0
28,9.8999901,10.4124895875,61.0,96.0
29,10.566656100000001,10.783322550000001,58.0,101.0
30,10.8999891,11.0888778,58.0,109.0
31,10.8999891,11.2333221,65.0,109.0
32,10.2333231,11.236099875,51.0,101.0
33,11.2333221,11.5666551,63.0,109.0
34,11.2333221,11.597210625,58.0,87.0
35,12.233321100000001,12.4291542375,56.0,73.0
36,11.8999881,12.741653925000001,51.0,66.0
37,12.566654100000001,13.6124863875,56.0,96.0
38,12.566654100000001,13.69443075,60.0,91.0
39,12.566654100000001,13.8263750625,63.0,99.0
40,13.5666531,13.980541575,51.0,73.0
41,11.5666551,14.024985975,44.0,106.0
42,13.899986100000001,14.606929837500001,56.0,89.0
43,14.5666521,15.308318025,51.0,73.0
44,15.2333181,16.073595037500002,63.0,106.0
45,15.2333181,16.08331725,56.0,104.0
46,14.233319100000001,16.713872175000002,44.0,106.0
47,15.899984100000001,16.8291498375,51.0,51.0
48,16.5666501,16.8999831,56.0,94.0
49,16.5666501,17.6458156875,63.0,104.0
50,17.5666491,17.7888711,54.0,94.0
51,17.2333161,18.12775965,49.0,78.0
52,17.899982100000003,18.6735924375,54.0,99.0
53,17.899982100000003,18.8374811625,63.0,96.0
54,18.566648100000002,19.03886985,49.0,52.0
55,18.8999811,19.043036512500002,54.0,99.0
56,16.8999831,19.147203075,42.0,99.0
57,18.8999811,19.3110918,58.0,106.0
58,19.2333141,19.470813862500002,54.0,87.0
59,18.8999811,19.497202725,63.0,74.0
60,19.6041470625,19.9458133875,61.0,114.0
61,19.8999801,20.174979825,47.0,59.0
62,19.5666471,20.1819242625,40.0,104.0
63,20.2333131,20.3513685375,52.0,107.0
64,20.5666461,20.680534875,52.0,55.0
65,20.2333131,20.7485903625,59.0,91.0
66,20.8999791,21.145812187500002,56.0,87.0
67,20.8999791,21.441645225000002,58.0,94.0
68,21.233312100000003,21.6458116875,56.0,67.0
69,20.8999791,21.8097004125,42.0,104.0
70,21.566645100000002,22.219422225000002,54.0,101.0
71,21.566645100000002,22.238866650000002,58.0,96.0
72,22.2333111,22.686088425,56.0,94.0
73,22.2333111,22.9333104,60.0,99.0
74,22.5666441,23.2402545375,51.0,76.0
75,23.2333101,23.8999761,56.0,101.0
76,23.2333101,24.036087075,63.0,106.0
77,23.8999761,24.1958091375,51.0,18.0
78,24.2333091,24.4152533625,56.0,91.0
79,22.2333111,24.430531125,44.0,104.0
80,24.566642100000003,25.051363837500002,56.0,64.0
81,24.2333091,25.2319192125,60.0,104.0
82,25.566641100000002,25.791640875000002,56.0,80.0
83,25.233308100000002,25.93886295,51.0,64.0
84,25.8999741,26.2763626125,56.0,101.0
85,25.8999741,26.37219585,63.0,106.0
86,26.2333071,26.62775115,51.0,62.0
87,26.5666401,26.959695262500002,56.0,101.0
88,26.8999731,27.141639525000002,51.0,54.0
89,26.5666401,27.1430284125,60.0,101.0
90,24.899975100000002,27.191639475000002,44.0,91.0
91,27.5666391,27.952749825,53.0,89.0
92,27.5666391,27.97219425,56.0,99.0
93,27.899972100000003,28.629138037500002,48.0,50.0
94,28.233305100000003,28.808304525,60.0,52.0
95,28.566638100000002,29.168026387500003,65.0,109.0
96,28.899971100000002,29.302748475,48.0,40.0
97,29.2333041,29.44997055,65.0,44.0
98,29.2333041,29.515248262500002,53.0,82.0
99,27.5666391,29.601359287500003,41.0,99.0
100,29.5666371,29.665248112500002,48.0,18.0
101,29.2333041,29.669414775,56.0,104.0
102,29.2333041,29.974970025,60.0,104.0
103,29.8999701,30.059692162500003,53.0,96.0
104,30.8999691,31.1485799625,58.0,104.0
105,30.5666361,31.29441315,55.0,72.0
106,31.899968100000002,32.1444123,55.0,49.0
107,30.2333031,32.2208011125,48.0,89.0
108,31.233302100000003,32.2513566375,58.0,101.0
109,31.233302100000003,32.297189925000005,63.0,109.0
110,32.2333011,32.5930229625,67.0,117.0
111,32.5666341,32.701356187500004,58.0,76.0
112,32.899967100000005,33.666633000000004,56.0,96.0
113,32.899967100000005,33.9457993875,53.0,96.0
114,33.2333001,33.955521600000004,48.0,47.0
115,33.566633100000004,34.1985769125,60.0,94.0
116,34.5666321,34.7874652125,53.0,87.0
117,34.2332991,34.808298525000005,48.0,39.0
118,33.8999661,34.83885405,65.0,109.0
119,32.899967100000005,34.863854025,41.0,94.0
120,34.8999651,35.1680203875,56.0,106.0
121,34.8999651,35.27218695,60.0,101.0
122,35.5666311,36.0180195375,58.0,96.0
123,35.5666311,36.3346858875,61.0,96.0
124,36.2332971,36.491630175000004,58.0,82.0
125,35.8999641,36.6235744875,53.0,76.0
126,36.566630100000005,36.78329655,58.0,61.0
127,36.8999631,37.27218495,53.0,35.0
128,36.566630100000005,37.5235735875,65.0,99.0
129,37.233296100000004,37.574962425,58.0,109.0
130,35.5666311,37.9402398375,46.0,104.0
131,37.5666291,37.999962000000004,53.0,80.0
132,37.8999621,38.111073000000005,58.0,101.0
133,38.2332951,38.686072425,58.0,104.0
134,38.2332951,39.0110721,61.0,94.0
135,38.8999611,39.052738725000005,58.0,66.0
136,38.5666281,39.263849625,53.0,66.0
137,39.2332941,39.686071425,58.0,106.0
138,39.8999601,40.0777377,58.0,89.0
139,39.2332941,40.0874599125,65.0,104.0
140,39.566627100000005,40.141626525,53.0,32.0
141,38.2332951,40.3513485375,46.0,104.0
142,40.233293100000004,40.722181500000005,61.0,112.0
143,40.899959100000004,40.9930145625,39.0,106.0
144,40.899959100000004,41.1457921875,58.0,99.0
145,40.899959100000004,41.276347612500004,63.0,106.0
146,41.8999581,42.1124578875,63.0,109.0
147,41.5666251,42.3263465625,58.0,104.0
148,42.2332911,42.720790612500004,63.0,109.0
149,42.2332911,42.74995725,68.0,104.0
150,42.5666241,42.995790337500004,58.0,82.0
151,41.2332921,43.06106805,51.0,54.0
152,42.8999571,43.0985680125,63.0,109.0
153,43.233290100000005,43.4957898375,63.0,106.0
154,42.8999571,43.5888453,70.0,106.0
155,43.5666231,44.019400425,56.0,94.0
156,43.5666231,44.2666224,60.0,99.0
157,43.899956100000004,44.5735665375,51.0,76.0
158,44.566622100000004,45.2332881,56.0,101.0
159,44.566622100000004,45.369399075000004,63.0,106.0
160,45.2332881,45.5291211375,51.0,18.0
161,45.5666211,45.7485653625,56.0,91.0
162,43.5666231,45.763843125,44.0,104.0
163,45.8999541,46.384675837500005,56.0,64.0
164,45.5666211,46.5652312125,60.0,104.0
165,46.899953100000005,47.124952875000005,56.0,80.0
166,46.5666201,47.27217495,51.0,64.0
167,47.2332861,47.6096746125,56.0,101.0
168,47.2332861,47.705507850000004,63.0,106.0
169,47.566619100000004,47.96106315,51.0,62.0
170,47.8999521,48.293007262500005,56.0,101.0
171,48.2332851,48.474951525,51.0,54.0
172,47.8999521,48.4763404125,60.0,101.0
173,46.233287100000005,48.524951475,44.0,91.0
174,48.8999511,49.286061825000004,53.0,89.0
175,48.8999511,49.30550625,56.0,99.0
176,49.2332841,49.962450037500005,48.0,50.0
177,49.5666171,50.141616525,60.0,52.0
178,49.899950100000005,50.5013383875,65.0,109.0
179,50.2332831,50.636060475,48.0,40.0
180,50.566616100000005,50.78328255,65.0,44.0
181,50.566616100000005,50.8485602625,53.0,82.0
182,48.8999511,50.9346712875,41.0,99.0
183,50.8999491,50.9985601125,48.0,18.0
184,50.566616100000005,51.002726775,56.0,104.0
185,50.566616100000005,51.308282025000004,60.0,104.0
186,51.233282100000004,51.393004162500006,53.0,96.0
187,52.2332811,52.4818919625,58.0,104.0
188,51.8999481,52.62772515,55.0,72.0
189,53.2332801,53.477724300000006,55.0,49.0
190,51.5666151,53.554113112500005,48.0,89.0
191,52.5666141,53.5846686375,58.0,101.0
192,52.5666141,53.630501925000004,63.0,109.0
193,53.566613100000005,53.9263349625,67.0,117.0
194,53.8999461,54.0346681875,58.0,76.0
195,54.233279100000004,54.999945000000004,56.0,96.0
196,54.233279100000004,55.2791113875,53.0,96.0
197,54.5666121,55.288833600000004,48.0,47.0
198,54.899945100000004,55.5318889125,60.0,94.0
199,55.8999441,56.1207772125,53.0,87.0
200,55.5666111,56.141610525000004,48.0,39.0
201,55.2332781,56.17216605,65.0,109.0
202,54.233279100000004,56.197166025,41.0,94.0
203,56.2332771,56.5013323875,56.0,106.0
204,56.2332771,56.605498950000005,60.0,101.0
205,56.8999431,57.3513315375,58.0,96.0
206,56.8999431,57.6679978875,61.0,96.0
207,57.5666091,57.824942175000004,58.0,82.0
208,57.233276100000005,57.9568864875,53.0,76.0
209,57.899942100000004,58.11660855,58.0,61.0
210,58.2332751,58.60549695,53.0,35.0
211,57.899942100000004,58.8568855875,65.0,99.0
212,58.5666081,58.908274425,58.0,109.0
213,56.8999431,59.2735518375,46.0,104.0
214,58.8999411,59.333274,53.0,80.0
215,59.2332741,59.444385000000004,58.0,101.0
216,59.566607100000006,60.320773012500005,51.0,94.0
217,59.566607100000006,60.3318841125,58.0,96.0
218,60.233273100000005,60.391606275,55.0,63.0
219,59.8999401,60.7554948,46.0,89.0
220,60.5666061,61.297160925,58.0,101.0
221,60.5666061,61.3179942375,63.0,115.0
222,61.2332721,61.608271725,46.0,91.0
223,59.566607100000006,61.629105037500004,39.0,106.0
224,61.566605100000004,61.7235493875,58.0,106.0
225,61.566605100000004,62.066604600000005,61.0,104.0
226,62.2332711,62.602715175,56.0,96.0
227,62.2332711,62.9485481625,60.0,101.0
228,62.8999371,63.0554925,56.0,59.0
229,62.5666041,63.259658962500005,51.0,87.0
230,63.233270100000006,63.676325212500004,56.0,106.0
231,63.233270100000006,64.02771375,63.0,106.0
232,63.899936100000005,64.0818803625,56.0,106.0
233,64.2332691,64.430491125,56.0,112.0
234,64.2332691,64.5818798625,61.0,104.0
235,63.5666031,64.741601925,51.0,80.0
236,62.2332711,64.7888241,44.0,104.0
237,64.5666021,64.87493512500001,60.0,112.0
238,64.89993510000001,65.3666013,58.0,96.0
239,64.89993510000001,65.6707676625,61.0,99.0
240,65.5666011,65.7207676125,58.0,67.0
241,65.2332681,65.93882295,53.0,74.0
242,65.8999341,66.7263221625,65.0,101.0
243,65.8999341,66.72771105,58.0,109.0
244,64.89993510000001,67.019377425,46.0,109.0
245,66.5666001,67.063821825,53.0,43.0
246,66.8999331,67.13465508750001,58.0,106.0
247,66.8999331,67.197155025,61.0,99.0
248,67.5665991,67.969376475,60.0,87.0
249,67.5665991,68.31659835,63.0,101.0
250,68.2332651,68.430487125,60.0,85.0
251,67.8999321,68.6263202625,55.0,66.0
252,68.56659810000001,69.086042025,60.0,109.0
253,68.56659810000001,69.1332642,67.0,107.0
254,68.8999311,69.36798618750001,55.0,45.0
255,69.2332641,69.6235414875,60.0,106.0
256,69.56659710000001,69.79715242500001,55.0,55.0
257,67.5665991,69.8554857,48.0,87.0
258,69.8999301,70.0624299375,60.0,96.0
259,69.2332641,70.07354103750001,63.0,109.0
260,70.2332631,70.67215155000001,61.0,91.0
261,70.89992910000001,70.99992900000001,61.0,58.0
262,70.2332631,71.01659565,65.0,99.0
263,70.5665961,71.2679842875,56.0,80.0
264,70.2332631,71.42770635000001,49.0,96.0
265,71.2332621,72.319372125,61.0,99.0
266,71.8999281,72.5096497125,49.0,76.0
267,72.2332611,72.62770515,56.0,104.0
268,71.2332621,72.6485384625,68.0,104.0
269,72.5665941,72.7124272875,61.0,101.0
270,72.8999271,73.2554823,63.0,99.0
271,72.8999271,73.5568708875,67.0,93.0
272,73.5665931,73.68742631250001,63.0,82.0
273,73.23326010000001,73.9985371125,58.0,85.0
274,72.8999271,74.2540924125,51.0,106.0
275,73.8999261,74.68325865,63.0,109.0
276,74.56659210000001,74.7763141125,55.0,1.0
277,74.56659210000001,74.963813925,58.0,89.0
278,73.8999261,74.9777028,67.0,117.0
279,74.8999251,75.2652025125,63.0,106.0
280,75.5665911,75.9818684625,60.0,94.0
281,75.5665911,76.0568683875,63.0,104.0
282,76.2332571,76.44714577500001,60.0,104.0
283,75.8999241,76.630478925,55.0,91.0
284,76.89992310000001,77.3110338,55.0,53.0
285,75.5665911,77.558255775,48.0,94.0
286,76.5665901,77.63047792500001,67.0,117.0
287,77.2332561,77.6429779125,60.0,66.0
288,77.5665891,77.9763109125,63.0,106.0
289,78.23325510000001,78.63881025,60.0,96.0
290,78.5665881,78.94992105,48.0,50.0
291,78.23325510000001,79.03603207500001,41.0,101.0
292,78.23325510000001,79.2929762625,68.0,99.0
293,78.8999211,79.302698475,60.0,99.0
294,79.23325410000001,80.3068641375,65.0,96.0
295,79.8999201,80.36797518750001,56.0,99.0
296,79.5665871,80.4457528875,49.0,101.0
297,80.2332531,80.56936387500001,61.0,109.0
298,80.8999191,81.4110297,58.0,96.0
299,80.8999191,81.62075171250001,61.0,96.0
300,81.5665851,81.741584925,58.0,94.0
301,81.2332521,81.941584725,53.0,67.0
302,81.89991810000001,82.36102875,58.0,109.0
303,81.89991810000001,82.60269517500001,65.0,101.0
304,82.5665841,82.719361725,58.0,91.0
305,82.2332511,82.997139225,53.0,80.0
306,80.8999191,83.0151947625,46.0,104.0
307,82.89991710000001,83.05269472500001,58.0,109.0
308,82.89991710000001,83.0651947125,61.0,109.0
309,83.5665831,83.64991635,39.0,106.0
310,83.5665831,83.8013050875,58.0,99.0
311,83.5665831,83.81658285,63.0,101.0
312,83.5665831,83.924916075,67.0,107.0
313,84.5665821,84.7540819125,63.0,115.0
314,84.23324910000001,84.999915,58.0,109.0
315,84.8999151,85.241581425,67.0,117.0
316,84.8999151,85.2735258375,63.0,112.0
317,85.2332481,85.4513034375,68.0,104.0
318,85.56658110000001,85.68741431250001,70.0,104.0
319,84.0665826,85.802691975,51.0,1.0
320,85.8999141,86.1374138625,63.0,94.0
321,86.2332471,86.636024475,63.0,104.0
322,86.2332471,86.71935772500001,67.0,104.0
323,86.2332471,86.71935772500001,75.0,101.0
324,86.2332471,86.736024375,70.0,104.0
325,86.8999131,87.0905497,63.0,99.0
326,86.56658010000001,87.3349316125,58.0,85.0
327,86.2332471,87.36161699375,51.0,109.0
328,87.57369555,87.691673025,51.0,71.0
329,87.23661705,88.00908861250001,75.0,99.0
330,87.23661705,88.04420095625,70.0,112.0
331,87.23661705,88.07229083125,63.0,109.0
332,87.23661705,88.07509981875,67.0,120.0
333,88.24785255,88.81386353125,63.0,112.0
334,87.91077405,88.815268025,51.0,104.0
335,88.24785255,88.82509948125,67.0,113.0
336,88.24785255,88.83212195,70.0,109.0
337,88.58493105,88.8798747375,58.0,101.0
338,88.92200955,89.30964982500001,58.0,96.0
339,88.92200955,89.35599811875,61.0,96.0
340,88.92200955,89.38934702499999,65.0,101.0
341,89.59351348749999,89.7518466625,58.0,101.0
342,89.25908805,89.99351308749999,53.0,78.0
343,89.9268464875,90.11712407499999,58.0,115.0
344,89.9268464875,90.2157350875,70.0,104.0
345,90.59351248749999,90.72406791249999,58.0,101.0
346,90.9268454875,91.1032342,58.0,106.0
347,90.2601794875,91.12267862499999,53.0,80.0
348,90.9268454875,91.1435119375,61.0,106.0
349,88.92200955,91.3296228625,46.0,104.0
350,91.2601784875,91.4962893625,58.0,99.0
351,90.9268454875,91.5601781875,65.0,104.0
352,91.5935114875,91.7921224,58.0,101.0
353,91.5935114875,92.067122125,63.0,106.0
354,91.92684448749999,92.317121875,58.0,89.0
355,92.2601774875,92.400455125,63.0,89.0
356,91.5935114875,92.700454825,51.0,101.0
357,92.5935104875,92.9990656375,58.0,101.0
358,92.5935104875,93.039343375,63.0,106.0
359,92.5935104875,93.36017638749999,67.0,113.0
360,93.26017648749999,93.67545385,51.0,76.0
361,93.5935094875,93.73795378749999,58.0,115.0
362,93.9268424875,94.0518423625,58.0,96.0
363,93.5935094875,94.0573979125,63.0,112.0
364,94.26017548749999,94.7101750375,60.0,101.0
365,94.26017548749999,94.972674775,63.0,106.0
366,94.5935084875,95.34489662499999,55.0,86.0
367,95.2601744875,96.0254515,60.0,109.0
368,95.9268404875,96.09350698749999,55.0,46.0
369,95.2601744875,96.1601735875,67.0,110.0
370,94.26017548749999,96.2143402,48.0,89.0
371,96.2601734875,96.461562175,60.0,101.0
372,96.2601734875,96.678228625,63.0,106.0
373,96.5935064875,96.77267297499999,60.0,82.0
374,96.92683948749999,97.239339175,60.0,99.0
375,96.92683948749999,97.52683888749999,68.0,101.0
376,97.5935054875,97.7462831125,60.0,76.0
377,97.2601724875,97.9907273125,48.0,64.0
378,97.92683848749999,98.339338075,60.0,104.0
379,97.92683848749999,98.40322689999999,65.0,101.0
380,98.5935044875,98.772670975,60.0,99.0
381,98.2601714875,99.0435040375,48.0,69.0
382,96.92683948749999,99.1018373125,41.0,99.0
383,98.9268374875,99.167115025,68.0,109.0
384,99.26017048749999,99.5296146625,67.0,113.0
385,99.5935034875,100.294891675,65.0,94.0
386,100.2601694875,100.400447125,58.0,89.0
387,99.9268364875,100.63933577499999,53.0,76.0
388,99.5935034875,100.96711322499999,46.0,104.0
389,100.59350248749999,101.26711292499999,58.0,109.0
390,100.59350248749999,101.26711292499999,61.0,104.0
391,101.59350148749999,101.739334675,58.0,112.0
392,101.2601684875,101.8921123,46.0,71.0
393,101.59350148749999,101.9740566625,61.0,112.0
394,101.59350148749999,102.0907232125,65.0,109.0
395,101.9268344875,102.12266762499999,58.0,85.0
396,102.2601674875,102.433778425,58.0,104.0
397,102.2601674875,102.67405596249999,63.0,106.0
398,102.5935004875,103.011555625,58.0,87.0
399,102.92683348749999,103.0379444875,63.0,76.0
400,102.2601674875,103.47544405,51.0,104.0
401,103.2601664875,104.06433235,63.0,112.0
402,103.2601664875,104.13238783749999,58.0,109.0
403,103.2601664875,104.1434989375,67.0,113.0
404,104.26016548749999,104.3351654125,63.0,104.0
405,104.26016548749999,104.41016533749999,58.0,99.0
406,104.26016548749999,104.6143318,68.0,106.0
407,103.9268324875,104.639331775,51.0,99.0
408,104.5934984875,104.917109275,67.0,110.0
409,104.9268314875,105.6240530125,65.0,94.0
410,105.5934974875,105.747664,58.0,101.0
411,105.26016448749999,105.96849711249999,53.0,85.0
412,104.9268314875,106.04488592499999,46.0,87.0
413,105.9268304875,106.7254408,58.0,109.0
414,105.9268304875,106.7323852375,61.0,106.0
415,106.5934964875,107.033773825,46.0,73.0
416,106.9268294875,107.083773775,58.0,112.0
417,106.9268294875,107.3462735125,61.0,106.0
418,107.2601624875,107.4379400875,58.0,78.0
419,107.5934954875,107.667106525,39.0,106.0
420,107.5934954875,107.8490507875,58.0,104.0
421,107.5934954875,107.9629395625,63.0,109.0
422,108.5934944875,108.7698832,63.0,87.0
423,108.5934944875,108.7962720625,67.0,63.0
424,108.92682748749999,109.32960486249999,63.0,115.0
425,108.92682748749999,109.32960486249999,67.0,120.0
426,109.2601604875,109.500438025,68.0,109.0
427,108.2601614875,109.70877114999999,58.0,109.0
428,109.5934934875,109.7768266375,63.0,106.0
429,107.92682848749999,109.8698821,51.0,48.0
430,109.5934934875,109.9379375875,70.0,104.0
431,109.9268264875,110.2212706375,68.0,106.0
432,110.2601594875,110.6434924375,58.0,96.0
433,110.2601594875,110.689325725,61.0,96.0
434,110.2601594875,110.722659025,65.0,101.0
435,110.9268254875,111.08515866249999,58.0,101.0
436,110.5934924875,111.3268250875,53.0,78.0
437,111.2601584875,111.450436075,58.0,115.0
438,111.2601584875,111.5490470875,70.0,104.0
439,111.9268244875,112.0573799125,58.0,101.0
440,112.2601574875,112.4365462,58.0,106.0
441,111.59349148749999,112.455990625,53.0,80.0
442,112.2601574875,112.4768239375,61.0,106.0
443,110.2601594875,112.6629348625,46.0,104.0
444,112.59349048749999,112.8296013625,58.0,99.0
445,112.2601574875,112.89349018749999,65.0,104.0
446,112.9268234875,113.12543439999999,58.0,101.0
447,112.9268234875,113.400434125,63.0,106.0
448,113.2601564875,113.650433875,58.0,89.0
449,113.5934894875,113.733767125,63.0,89.0
450,112.9268234875,114.033766825,51.0,101.0
451,113.9268224875,114.3323776375,58.0,101.0
452,113.9268224875,114.372655375,63.0,106.0
453,113.9268224875,114.6934883875,67.0,113.0
454,114.5934884875,115.00876585,51.0,76.0
455,114.92682148749999,115.0712657875,58.0,115.0
456,115.26015448749999,115.3851543625,58.0,96.0
457,114.92682148749999,115.3907099125,63.0,112.0
458,115.5934874875,116.0434870375,60.0,101.0
459,115.5934874875,116.305986775,63.0,106.0
460,115.9268204875,116.678208625,55.0,86.0
461,116.5934864875,117.3587635,60.0,109.0
462,117.2601524875,117.4268189875,55.0,46.0
463,116.5934864875,117.4934855875,67.0,110.0
464,115.5934874875,117.5476522,48.0,89.0
465,117.5934854875,117.79487417499999,60.0,101.0
466,117.5934854875,118.011540625,63.0,106.0
467,117.9268184875,118.105984975,60.0,82.0
468,118.2601514875,118.572651175,60.0,99.0
469,118.2601514875,118.8601508875,68.0,101.0
470,118.92681748749999,119.0795951125,60.0,76.0
471,118.59348448749999,119.32403931249999,48.0,64.0
472,119.2601504875,119.67265007499999,60.0,104.0
473,119.2601504875,119.7365389,65.0,101.0
474,119.92681648749999,120.10598297499999,60.0,99.0
475,119.5934834875,120.37681603749999,48.0,69.0
476,118.2601514875,120.4351493125,41.0,99.0
477,120.2601494875,120.500427025,68.0,109.0
478,120.5934824875,120.8629266625,67.0,113.0
479,120.9268154875,121.628203675,65.0,94.0
480,121.5934814875,121.733759125,58.0,89.0
481,121.2601484875,121.972647775,53.0,76.0
482,120.9268154875,122.300425225,46.0,104.0
483,121.9268144875,122.600424925,58.0,109.0
484,121.9268144875,122.600424925,61.0,104.0
485,122.9268134875,123.07264667499999,58.0,112.0
486,122.59348048749999,123.2254243,46.0,71.0
487,122.9268134875,123.3073686625,61.0,112.0
488,122.9268134875,123.4240352125,65.0,109.0
489,123.2601464875,123.455979625,58.0,85.0
490,123.59347948749999,123.76709042499999,58.0,104.0
491,123.59347948749999,124.0073679625,63.0,106.0
492,123.9268124875,124.344867625,58.0,87.0
493,124.2601454875,124.3712564875,63.0,76.0
494,123.59347948749999,124.80875605,51.0,104.0
495,124.5934784875,125.39764435000001,63.0,112.0
496,124.5934784875,125.4656998375,58.0,109.0
497,124.5934784875,125.4768109375,67.0,113.0
498,125.5934774875,125.6684774125,63.0,104.0
499,125.5934774875,125.7434773375,58.0,99.0
500,125.5934774875,125.9476438,68.0,106.0
501,125.2601444875,125.972643775,51.0,99.0
502,125.9268104875,126.25042127500001,67.0,110.0
503,126.26014348749999,126.70458748749999,58.0,104.0
504,126.26014348749999,126.9684761125,61.0,96.0
505,126.5934764875,127.2740313625,53.0,74.0
506,126.9268094875,127.31292021249999,58.0,109.0
507,126.26014348749999,127.428197875,46.0,101.0
508,127.26014248749999,127.5351422125,61.0,106.0
509,127.5934754875,127.8073641625,58.0,106.0
510,127.5934754875,127.96291956249999,63.0,106.0
511,127.9268084875,128.1156971875,58.0,104.0
512,127.5934754875,128.422641325,51.0,96.0
513,128.2601414875,128.42958576249998,58.0,109.0
514,128.2601414875,128.66430775,67.0,110.0
515,128.5934744875,128.7323632375,58.0,91.0
516,128.9268074875,129.34208485,56.0,94.0
517,128.9268074875,129.7240289125,60.0,91.0
518,129.5934734875,129.7462511125,56.0,67.0
519,129.2601404875,130.0045841875,51.0,76.0
520,128.9268074875,130.305972775,44.0,101.0
521,129.9268064875,130.54069476249998,56.0,104.0
522,129.9268064875,130.61152802499998,60.0,104.0
523,129.9268064875,130.6809724,63.0,106.0
524,130.9268054875,131.1823607875,56.0,104.0
525,130.59347248749998,131.2573607125,51.0,78.0
526,131.2601384875,131.51708267499998,60.0,59.0
527,131.2601384875,131.589304825,56.0,80.0
528,131.2601384875,131.6129159125,63.0,96.0
529,131.59347148749998,131.6129159125,63.0,101.0
530,131.59347148749998,131.994859975,59.0,66.0
531,131.59347148749998,132.3240263125,66.0,82.0
532,131.9268044875,132.7545814375,54.0,73.0
533,131.59347148749998,132.9851367625,47.0,63.0
534,132.59347048749999,133.39902523749998,63.0,106.0
535,132.2601374875,133.4031919,59.0,107.0
536,132.59347048749999,133.4268029875,66.0,106.0
537,133.2601364875,133.68096939999998,54.0,50.0
538,133.5934694875,133.689302725,59.0,104.0
539,133.5934694875,133.969858,63.0,104.0
540,133.9268024875,134.083746775,59.0,83.0
541,133.5934694875,134.1851355625,66.0,104.0
542,134.2601354875,134.65180176249999,58.0,99.0
543,134.2601354875,135.005968075,61.0,96.0
544,134.5934684875,135.2851344625,53.0,82.0
545,135.2601344875,136.0573559125,58.0,106.0
546,135.2601344875,136.06291146249998,65.0,104.0
547,136.2601334875,136.422633325,58.0,101.0
548,135.9268004875,136.50735546250002,53.0,31.0
549,134.2601354875,136.5767998375,46.0,96.0
550,136.2601334875,136.66013308750001,61.0,96.0
551,136.5934664875,136.6767997375,58.0,69.0
552,136.9267994875,137.35318795,56.0,91.0
553,136.9267994875,137.678187625,63.0,99.0
554,137.5934654875,137.7601319875,56.0,66.0
555,137.2601324875,137.9795762125,51.0,56.0
556,137.9267984875,138.7142977,56.0,104.0
557,137.9267984875,138.7684643125,63.0,106.0
558,138.5934644875,139.1934638875,51.0,69.0
559,136.9267994875,139.4212414375,44.0,99.0
560,138.92679748749998,139.433741425,56.0,101.0
561,138.92679748749998,139.505963575,61.0,104.0
562,139.5934634875,139.9351298125,56.0,96.0
563,139.5934634875,140.0879074375,60.0,96.0
564,140.2601294875,140.43096265,56.0,61.0
565,139.92679648749998,140.6879068375,51.0,74.0
566,139.5934634875,140.9156843875,44.0,101.0
567,140.5934624875,141.4156838875,56.0,101.0
568,140.5934624875,141.444850525,63.0,106.0
569,141.2601284875,141.6351281125,44.0,32.0
570,141.5934614875,141.7156835875,56.0,109.0
571,141.5934614875,142.0545721375,63.0,106.0
572,141.9267944875,142.2212386375,56.0,61.0
573,142.2601274875,142.65318265,59.0,96.0
574,142.2601274875,142.983737875,63.0,101.0
575,142.9267934875,143.0920711,59.0,61.0
576,142.5934604875,143.303182,54.0,71.0
577,142.2601274875,143.4156818875,47.0,83.0
578,143.2601264875,144.1101256375,59.0,117.0
579,143.2601264875,144.303181,63.0,106.0
580,144.2601254875,144.650402875,59.0,110.0
581,143.9267924875,144.90179151249998,54.0,73.0
582,144.59345848750002,144.98651365,63.0,104.0
583,144.9267914875,145.3656799375,58.0,99.0
584,144.9267914875,145.511513125,61.0,94.0
585,145.2601244875,145.99762375,53.0,74.0
586,144.9267914875,146.1323458375,46.0,99.0
587,145.9267904875,146.7254008,65.0,101.0
588,145.9267904875,146.7323452375,61.0,106.0
589,145.9267904875,146.733734125,58.0,106.0
590,146.9267894875,147.055956025,58.0,109.0
591,146.5934564875,147.1712336875,46.0,67.0
592,146.9267894875,147.31290021249998,61.0,104.0
593,147.26012248749998,147.37540015,58.0,73.0
594,147.5934554875,148.01845506249998,56.0,101.0
595,147.5934554875,148.3378991875,60.0,101.0
596,147.9267884875,148.6476211,51.0,47.0
597,147.5934554875,148.969843,44.0,101.0
598,148.5934544875,149.0767873375,60.0,106.0
599,148.5934544875,149.080954,63.0,106.0
600,148.5934544875,149.1365095,56.0,104.0
601,149.5934534875,149.9378975875,44.0,106.0
602,149.9267864875,150.2142862,56.0,96.0
603,150.2601194875,150.4628970625,56.0,76.0
604,150.2601194875,150.689285725,59.0,110.0
605,150.2601194875,150.7962300625,64.0,110.0
606,150.2601194875,150.9073410625,40.0,113.0
607,150.5934524875,151.2809518,56.0,82.0
608,150.9267854875,151.33095175,59.0,120.0
609,151.2601184875,151.4712293875,64.0,99.0
610,151.5934514875,151.99575554583333,54.0,106.0
611,151.5934514875,152.03268735416668,58.0,109.0
612,151.93041465416667,152.23297139166667,49.0,91.0
613,151.5934514875,152.26848274583335,42.0,104.0
614,152.61223265416666,152.9176303,54.0,85.0
615,152.27132365416668,152.93183484166667,58.0,101.0
616,152.27132365416668,152.94888029166668,61.0,94.0
617,152.27132365416668,152.9900734625,66.0,101.0
618,152.95314165416667,153.41501017916667,56.0,94.0
619,152.95314165416667,153.66223215416667,60.0,99.0
620,153.29405065416668,153.96917629166668,51.0,76.0
621,153.96223185416667,154.62889785416667,56.0,101.0
622,153.96223185416667,154.76500882916667,63.0,106.0
623,154.62889785416667,154.92473089166668,51.0,18.0
624,154.96223085416668,155.14417511666667,56.0,91.0
625,152.95314165416667,155.15945287916668,44.0,104.0
626,155.2955638541667,155.78028559166668,56.0,64.0
627,154.96223085416668,155.96084096666667,60.0,104.0
628,156.29556285416666,156.52056262916668,56.0,80.0
629,155.96222985416668,156.66778470416668,51.0,64.0
630,156.62889585416667,157.00528436666667,56.0,101.0
631,156.62889585416667,157.10111760416666,63.0,106.0
632,156.96222885416668,157.3566729041667,51.0,62.0
633,157.29556185416666,157.68861701666668,56.0,101.0
634,157.62889485416667,157.87056127916668,51.0,54.0
635,157.29556185416666,157.87195016666666,60.0,101.0
636,155.62889685416667,157.92056122916668,44.0,91.0
637,158.29556085416667,158.68167157916668,53.0,89.0
638,158.29556085416667,158.70111600416666,56.0,99.0
639,158.62889385416668,159.35805979166668,48.0,50.0
640,158.96222685416666,159.53722627916667,60.0,52.0
641,159.29555985416667,159.89694814166668,65.0,109.0
642,159.62889285416668,160.03167022916668,48.0,40.0
643,159.96222585416666,160.17889230416668,65.0,44.0
644,159.96222585416666,160.2441700166667,53.0,82.0
645,158.29556085416667,160.33028104166667,41.0,99.0
646,160.29555885416667,160.3941698666667,48.0,18.0
647,159.96222585416666,160.39833652916667,56.0,104.0
648,159.96222585416666,160.70389177916667,60.0,104.0
649,160.62889185416668,160.78861391666666,53.0,96.0
650,161.62889085416668,161.87750171666667,58.0,104.0
651,161.29555785416667,162.02333490416666,55.0,72.0
652,162.6288898541667,162.87333405416666,55.0,49.0
653,160.96222485416666,162.94972286666666,48.0,89.0
654,161.96222385416667,162.98027839166667,58.0,101.0
655,161.96222385416667,163.02611167916666,63.0,109.0
656,162.96222285416667,163.32194471666668,67.0,117.0
657,163.29555585416668,163.43027794166667,58.0,76.0
658,163.62888885416666,164.39555475416668,56.0,96.0
659,163.62888885416666,164.67472114166668,53.0,96.0
660,163.96222185416667,164.68444335416666,48.0,47.0
661,164.29555485416668,164.92749866666668,60.0,94.0
662,165.29555385416668,165.5163869666667,53.0,87.0
663,164.96222085416667,165.53722027916666,48.0,39.0
664,164.62888785416666,165.56777580416667,65.0,109.0
665,163.62888885416666,165.5927757791667,41.0,94.0
666,165.62888685416667,165.89694214166667,56.0,106.0
667,165.62888685416667,166.00110870416668,60.0,101.0
668,166.2955528541667,166.74694129166667,58.0,96.0
669,166.2955528541667,167.06360764166666,61.0,96.0
670,166.96221885416668,167.22055192916667,58.0,82.0
671,166.62888585416667,167.35249624166667,53.0,76.0
672,167.29555185416666,167.51221830416668,58.0,61.0
673,167.62888485416667,168.00110670416666,53.0,35.0
674,167.29555185416666,168.25249534166667,65.0,99.0
675,167.96221785416668,168.3038841791667,58.0,109.0
676,166.2955528541667,168.66916159166666,46.0,104.0
677,168.29555085416666,168.72888375416667,53.0,80.0
678,168.62888385416667,168.83999475416667,58.0,101.0
679,168.96221685416668,169.71638276666667,51.0,94.0
680,168.96221685416668,169.72749386666666,58.0,96.0
681,169.62888285416668,169.78721602916667,55.0,63.0
682,169.29554985416667,170.15110455416666,46.0,89.0
683,169.9622158541667,170.69277067916667,58.0,101.0
684,169.9622158541667,170.71360399166667,63.0,115.0
685,170.62888185416668,171.00388147916667,46.0,91.0
686,168.96221685416668,171.02471479166667,39.0,106.0
687,170.9622148541667,171.11915914166667,58.0,106.0
688,170.9622148541667,171.46221435416666,61.0,104.0
689,171.62888085416668,171.99832492916667,56.0,96.0
690,171.62888085416668,172.3441579166667,60.0,101.0
691,172.29554685416667,172.45110225416667,56.0,59.0
692,171.96221385416666,172.65526871666668,51.0,87.0
693,172.62887985416668,173.07193496666667,56.0,106.0
694,172.62887985416668,173.42332350416666,63.0,106.0
695,173.29554585416668,173.47749011666667,56.0,106.0
696,173.6288788541667,173.8261008791667,56.0,112.0
697,173.6288788541667,173.97748961666667,61.0,104.0
698,172.96221285416667,174.13721167916668,51.0,80.0
699,171.62888085416668,174.18443385416668,44.0,104.0
700,173.96221185416667,174.27054487916666,60.0,112.0
701,174.29554485416668,174.76221105416667,58.0,96.0
702,174.29554485416668,175.06637741666668,61.0,99.0
703,174.96221085416667,175.11637736666668,58.0,67.0
704,174.62887785416666,175.33443270416666,53.0,74.0
705,175.29554385416668,176.12193191666668,65.0,101.0
706,175.29554385416668,176.12332080416667,58.0,109.0
707,174.29554485416668,176.41498717916667,46.0,109.0
708,175.96220985416667,176.45943157916668,53.0,43.0
709,176.29554285416668,176.53026484166668,58.0,106.0
710,176.29554285416668,176.59276477916669,61.0,99.0
711,176.96220885416668,177.36498622916668,60.0,87.0
712,176.96220885416668,177.71220810416668,63.0,101.0
713,177.62887485416667,177.82609687916667,60.0,85.0
714,177.2955418541667,178.02193001666666,55.0,66.0
715,177.96220785416668,178.48165177916667,60.0,109.0
716,177.96220785416668,178.52887395416667,67.0,107.0
717,178.2955408541667,178.76359594166667,55.0,45.0
718,178.62887385416667,179.01915124166666,60.0,106.0
719,178.96220685416668,179.19276217916666,55.0,55.0
720,176.96220885416668,179.25109545416666,48.0,87.0
721,179.29553985416666,179.45803969166667,60.0,96.0
722,178.62887385416667,179.46915079166666,63.0,109.0
723,179.62887285416667,180.06776130416668,61.0,91.0
724,180.29553885416667,180.39553875416667,61.0,58.0
725,179.62887285416667,180.41220540416668,65.0,99.0
726,179.96220585416668,180.66359404166667,56.0,80.0
727,179.62887285416667,180.82331610416668,49.0,96.0
728,180.62887185416668,181.7149818791667,61.0,99.0
729,181.29553785416667,181.90525946666668,49.0,76.0
730,181.62887085416668,182.02331490416668,56.0,104.0
731,180.62887185416668,182.04414821666668,68.0,104.0
732,181.96220385416666,182.10803704166668,61.0,101.0
733,182.29553685416667,182.65109205416667,63.0,99.0
734,182.29553685416667,182.95248064166668,67.0,93.0
735,182.96220285416666,183.08303606666666,63.0,82.0
736,182.62886985416668,183.3941468666667,58.0,85.0
737,182.29553685416667,183.64970216666669,51.0,106.0
738,183.29553585416667,184.07886840416668,63.0,109.0
739,183.96220185416666,184.17192386666667,55.0,1.0
740,183.96220185416666,184.35942367916667,58.0,89.0
741,183.29553585416667,184.37331255416666,67.0,117.0
742,184.29553485416668,184.66081226666668,63.0,106.0
743,184.96220085416667,185.37747821666667,60.0,94.0
744,184.96220085416667,185.4524781416667,63.0,104.0
745,185.6288668541667,185.84275552916668,60.0,104.0
746,185.29553385416668,186.02608867916666,55.0,91.0
747,186.29553285416668,186.70664355416667,55.0,53.0
748,184.96220085416667,186.95386552916668,48.0,94.0
749,185.96219985416667,187.02608767916666,67.0,117.0
750,186.6288658541667,187.03858766666667,60.0,66.0
751,186.96219885416667,187.37192066666668,63.0,106.0
752,187.62886485416666,188.0344200041667,60.0,96.0
753,187.96219785416667,188.34553080416669,48.0,50.0
754,187.62886485416666,188.43164182916667,41.0,101.0
755,187.62886485416666,188.68858601666668,68.0,99.0
756,188.29553085416666,188.69830822916668,60.0,99.0
757,188.62886385416667,189.70247389166667,65.0,96.0
758,189.29552985416666,189.76358494166666,56.0,99.0
759,188.96219685416668,189.84136264166668,49.0,101.0
760,189.62886285416667,189.96497362916668,61.0,109.0
761,190.29552885416666,190.80663945416666,58.0,96.0
762,190.29552885416666,191.01636146666667,61.0,96.0
763,190.96219485416668,191.13719467916667,58.0,94.0
764,190.62886185416667,191.33719447916667,53.0,67.0
765,191.29552785416666,191.7566385041667,58.0,109.0
766,191.29552785416666,191.99830492916666,65.0,101.0
767,191.96219385416669,192.11497147916668,58.0,91.0
768,191.62886085416667,192.39274897916667,53.0,80.0
769,190.29552885416666,192.41080451666667,46.0,104.0
770,192.29552685416667,192.44830447916667,58.0,109.0
771,192.29552685416667,192.46080446666667,61.0,109.0
772,192.9621928541667,193.04552610416667,39.0,106.0
773,192.9621928541667,193.19691484166668,58.0,99.0
774,192.9621928541667,193.21219260416666,63.0,101.0
775,192.9621928541667,193.32052582916668,67.0,107.0
776,193.9621918541667,194.14969166666668,63.0,115.0
777,193.62885885416668,194.39552475416667,58.0,109.0
778,194.29552485416667,194.63719117916668,67.0,117.0
779,194.29552485416667,194.66913559166667,63.0,112.0
780,194.62885785416668,194.84691319166666,68.0,104.0
781,194.96219085416666,195.08302406666667,70.0,104.0
782,193.4621923541667,195.19830172916667,51.0,1.0
783,195.29552385416667,195.53302361666667,63.0,94.0
784,195.62885685416668,196.03163422916668,63.0,104.0
785,195.62885685416668,196.11496747916667,67.0,104.0
786,195.62885685416668,196.11496747916667,75.0,101.0
787,195.62885685416668,196.13163412916668,70.0,104.0
788,196.29552285416668,196.48506701666668,63.0,99.0
789,195.96218985416667,196.7294489291667,58.0,85.0
790,195.62885685416668,196.75613431041668,51.0,109.0
791,196.9701824041667,197.0908720291667,51.0,71.0
792,196.63113436666669,197.4155845916667,75.0,99.0
793,196.63113436666669,197.4515041229167,70.0,112.0
794,196.63113436666669,197.4802397479167,63.0,109.0
795,196.63113436666669,197.48311331041668,67.0,120.0
796,197.6598374041667,198.2388602479167,63.0,112.0
797,197.3150099041667,198.2402970291667,51.0,104.0
798,197.6598374041667,198.2503544979167,67.0,113.0
799,197.6598374041667,198.2575384041667,70.0,109.0
800,198.0046649041667,198.3063889666667,58.0,101.0
801,198.3494924041667,198.74570877291671,58.0,96.0
802,198.3494924041667,198.7915420604167,61.0,96.0
803,198.3494924041667,198.8248753604167,65.0,101.0
804,199.0290418229167,199.1873749979167,58.0,101.0
805,198.6943199041667,199.4290414229167,53.0,78.0
806,199.3623748229167,199.5526524104167,58.0,115.0
807,199.3623748229167,199.6512634229167,70.0,104.0
808,200.0290408229167,200.1595962479167,58.0,101.0
809,200.3623738229167,200.5387625354167,58.0,106.0
810,199.69570782291672,200.5582069604167,53.0,80.0
811,200.3623738229167,200.5790402729167,61.0,106.0
812,198.3494924041667,200.7651511979167,46.0,104.0
813,200.69570682291672,200.9318176979167,58.0,99.0
814,200.3623738229167,200.9957065229167,65.0,104.0
815,201.0290398229167,201.22765073541672,58.0,101.0
816,201.0290398229167,201.5026504604167,63.0,106.0
817,201.3623728229167,201.7526502104167,58.0,89.0
818,201.6957058229167,201.8359834604167,63.0,89.0
819,201.0290398229167,202.1359831604167,51.0,101.0
820,202.0290388229167,202.4345939729167,58.0,101.0
821,202.0290388229167,202.4748717104167,63.0,106.0
822,202.0290388229167,202.7957047229167,67.0,113.0
823,202.6957048229167,203.1109821854167,51.0,76.0
824,203.0290378229167,203.1734821229167,58.0,115.0
825,203.36237082291672,203.4873706979167,58.0,96.0
826,203.0290378229167,203.4929262479167,63.0,112.0
827,203.6957038229167,204.1457033729167,60.0,101.0
828,203.6957038229167,204.4082031104167,63.0,106.0
829,204.0290368229167,204.7804249604167,55.0,86.0
830,204.6957028229167,205.4609798354167,60.0,109.0
831,205.3623688229167,205.5290353229167,55.0,46.0
832,204.6957028229167,205.5957019229167,67.0,110.0
833,203.6957038229167,205.64986853541672,48.0,89.0
834,205.6957018229167,205.89709051041672,60.0,101.0
835,205.6957018229167,206.1137569604167,63.0,106.0
836,206.0290348229167,206.2082013104167,60.0,82.0
837,206.3623678229167,206.6748675104167,60.0,99.0
838,206.3623678229167,206.9623672229167,68.0,101.0
839,207.02903382291672,207.18181144791671,60.0,76.0
840,206.6957008229167,207.42625564791672,48.0,64.0
841,207.3623668229167,207.7748664104167,60.0,104.0
842,207.3623668229167,207.8387552354167,65.0,101.0
843,208.02903282291672,208.20819931041672,60.0,99.0
844,207.6956998229167,208.47903237291672,48.0,69.0
845,206.3623678229167,208.53736564791672,41.0,99.0
846,208.3623658229167,208.60264336041672,68.0,109.0
847,208.6956988229167,208.9651429979167,67.0,113.0
848,209.0290318229167,209.7304200104167,65.0,94.0
849,209.6956978229167,209.8359754604167,58.0,89.0
850,209.3623648229167,210.0748641104167,53.0,76.0
851,209.0290318229167,210.4026415604167,46.0,104.0
852,210.0290308229167,210.7026412604167,58.0,109.0
853,210.0290308229167,210.7026412604167,61.0,104.0
854,211.0290298229167,211.17486301041671,58.0,112.0
855,210.69569682291672,211.3276406354167,46.0,71.0
856,211.0290298229167,211.4095849979167,61.0,112.0
857,211.0290298229167,211.5262515479167,65.0,109.0
858,211.3623628229167,211.5581959604167,58.0,85.0
859,211.69569582291672,211.8693067604167,58.0,104.0
860,211.69569582291672,212.1095842979167,63.0,106.0
861,212.0290288229167,212.4470839604167,58.0,87.0
862,212.3623618229167,212.4734728229167,63.0,76.0
863,211.69569582291672,212.9109723854167,51.0,104.0
864,212.69569482291672,213.4998606854167,63.0,112.0
865,212.69569482291672,213.5679161729167,58.0,109.0
866,212.69569482291672,213.5790272729167,67.0,113.0
867,213.6956938229167,213.7706937479167,63.0,104.0
868,213.6956938229167,213.8456936729167,58.0,99.0
869,213.6956938229167,214.0498601354167,68.0,106.0
870,213.3623608229167,214.0748601104167,51.0,99.0
871,214.0290268229167,214.3526376104167,67.0,110.0
872,214.36235982291672,215.05958134791672,65.0,94.0
873,215.0290258229167,215.18319233541672,58.0,101.0
874,214.6956928229167,215.4040254479167,53.0,85.0
875,214.36235982291672,215.4804142604167,46.0,87.0
876,215.36235882291672,216.1609691354167,58.0,109.0
877,215.36235882291672,216.16791357291672,61.0,106.0
878,216.0290248229167,216.4693021604167,46.0,73.0
879,216.3623578229167,216.5193021104167,58.0,112.0
880,216.3623578229167,216.7818018479167,61.0,106.0
881,216.6956908229167,216.87346842291672,58.0,78.0
882,217.0290238229167,217.1026348604167,39.0,106.0
883,217.0290238229167,217.2845791229167,58.0,104.0
884,217.0290238229167,217.3984678979167,63.0,109.0
885,218.02902282291672,218.20541153541672,63.0,87.0
886,218.02902282291672,218.23180039791671,67.0,63.0
887,218.3623558229167,218.7651331979167,63.0,115.0
888,218.3623558229167,218.7651331979167,67.0,120.0
889,218.6956888229167,218.9359663604167,68.0,109.0
890,217.6956898229167,219.1442994854167,58.0,109.0
891,219.02902182291672,219.2123549729167,63.0,106.0
892,217.3623568229167,219.30541043541672,51.0,48.0
893,219.02902182291672,219.3734659229167,70.0,104.0
894,219.3623548229167,219.6567989729167,68.0,106.0
895,219.6956878229167,220.0790207729167,58.0,96.0
896,219.6956878229167,220.1248540604167,61.0,96.0
897,219.6956878229167,220.15818736041672,65.0,101.0
898,220.3623538229167,220.5206869979167,58.0,101.0
899,220.02902082291672,220.7623534229167,53.0,78.0
900,220.6956868229167,220.8859644104167,58.0,115.0
901,220.6956868229167,220.9845754229167,70.0,104.0
902,221.3623528229167,221.49290824791672,58.0,101.0
903,221.69568582291672,221.87207453541671,58.0,106.0
904,221.0290198229167,221.8915189604167,53.0,80.0
905,221.69568582291672,221.9123522729167,61.0,106.0
906,219.6956878229167,222.09846319791671,46.0,104.0
907,222.0290188229167,222.2651296979167,58.0,99.0
908,221.69568582291672,222.3290185229167,65.0,104.0
909,222.3623518229167,222.5609627354167,58.0,101.0
910,222.3623518229167,222.8359624604167,63.0,106.0
911,222.69568482291672,223.0859622104167,58.0,89.0
912,223.0290178229167,223.16929546041672,63.0,89.0
913,222.3623518229167,223.46929516041672,51.0,101.0
914,223.3623508229167,223.7679059729167,58.0,101.0
915,223.3623508229167,223.8081837104167,63.0,106.0
916,223.3623508229167,224.1290167229167,67.0,113.0
917,224.0290168229167,224.4442941854167,51.0,76.0
918,224.3623498229167,224.50679412291672,58.0,115.0
919,224.6956828229167,224.8206826979167,58.0,96.0
920,224.3623498229167,224.8262382479167,63.0,112.0
921,225.0290158229167,225.4790153729167,60.0,101.0
922,225.0290158229167,225.7415151104167,63.0,106.0
923,225.36234882291672,226.1137369604167,55.0,86.0
924,226.0290148229167,226.79429183541671,60.0,109.0
925,226.6956808229167,226.86234732291672,55.0,46.0
926,226.0290148229167,226.9290139229167,67.0,110.0
927,225.0290158229167,226.9831805354167,48.0,89.0
928,227.0290138229167,227.2304025104167,60.0,101.0
929,227.0290138229167,227.44706896041671,63.0,106.0
930,227.36234682291672,227.54151331041672,60.0,82.0
931,227.6956798229167,228.0081795104167,60.0,99.0
932,227.6956798229167,228.2956792229167,68.0,101.0
933,228.36234582291672,228.51512344791672,60.0,76.0
934,228.0290128229167,228.7595676479167,48.0,64.0
935,228.6956788229167,229.1081784104167,60.0,104.0
936,228.6956788229167,229.1720672354167,65.0,101.0
937,229.3623448229167,229.5415113104167,60.0,99.0
938,229.02901182291671,229.8123443729167,48.0,69.0
939,227.6956798229167,229.8706776479167,41.0,99.0
940,229.6956778229167,229.9359553604167,68.0,109.0
941,230.02901082291672,230.2984549979167,67.0,113.0
942,230.3623438229167,231.06373201041671,65.0,94.0
943,231.0290098229167,231.1692874604167,58.0,89.0
944,230.6956768229167,231.40817611041672,53.0,76.0
945,230.3623438229167,231.7359535604167,46.0,104.0
946,231.3623428229167,232.0359532604167,58.0,109.0
947,231.3623428229167,232.0359532604167,61.0,104.0
948,232.3623418229167,232.50817501041672,58.0,112.0
949,232.0290088229167,232.66095263541672,46.0,71.0
950,232.3623418229167,232.74289699791672,61.0,112.0
951,232.3623418229167,232.8595635479167,65.0,109.0
952,232.69567482291671,232.8915079604167,58.0,85.0
953,233.0290078229167,233.2026187604167,58.0,104.0
954,233.0290078229167,233.44289629791672,63.0,106.0
955,233.3623408229167,233.7803959604167,58.0,87.0
956,233.69567382291672,233.8067848229167,63.0,76.0
957,233.0290078229167,234.2442843854167,51.0,104.0
958,234.0290068229167,234.8331726854167,63.0,112.0
959,234.0290068229167,234.90122817291672,58.0,109.0
960,234.0290068229167,234.9123392729167,67.0,113.0
961,235.0290058229167,235.10400574791672,63.0,104.0
962,235.0290058229167,235.1790056729167,58.0,99.0
963,235.0290058229167,235.38317213541671,68.0,106.0
964,234.69567282291672,235.4081721104167,51.0,99.0
965,235.3623388229167,235.6859496104167,67.0,110.0
966,235.69567182291672,236.3928933479167,65.0,94.0
967,236.36233782291671,236.5165043354167,58.0,101.0
968,236.0290048229167,236.7373374479167,53.0,85.0
969,235.69567182291672,236.8137262604167,46.0,87.0
970,236.69567082291672,237.4942811354167,58.0,109.0
971,236.69567082291672,237.50122557291672,61.0,106.0
972,237.36233682291672,237.8026141604167,46.0,73.0
973,237.6956698229167,237.8526141104167,58.0,112.0
974,237.6956698229167,238.11511384791672,61.0,106.0
975,238.0290028229167,238.20678042291672,58.0,78.0
976,238.3623358229167,238.43594686041672,39.0,106.0
977,238.3623358229167,238.61789112291672,58.0,104.0
978,238.3623358229167,238.7317798979167,63.0,109.0
979,239.3623348229167,239.5387235354167,63.0,87.0
980,239.3623348229167,239.56511239791672,67.0,63.0
981,239.6956678229167,240.0984451979167,63.0,115.0
982,239.6956678229167,240.0984451979167,67.0,120.0
983,240.02900082291671,240.2692783604167,68.0,109.0
984,239.0290018229167,240.4776114854167,58.0,109.0
985,240.3623338229167,240.5456669729167,63.0,106.0
986,238.6956688229167,240.6387224354167,51.0,48.0
987,240.3623338229167,240.7067779229167,70.0,104.0
988,240.6956668229167,240.9901109729167,68.0,106.0
989,241.02899982291672,241.4123327729167,58.0,96.0
990,241.02899982291672,241.45816606041672,61.0,96.0
991,241.02899982291672,241.4914993604167,65.0,101.0
992,241.6956658229167,241.8539989979167,58.0,101.0
993,241.3623328229167,242.0956654229167,53.0,78.0
994,242.02899882291672,242.2192764104167,58.0,115.0
995,242.02899882291672,242.3178874229167,70.0,104.0
996,242.6956648229167,242.8262202479167,58.0,101.0
997,243.02899782291672,243.20538653541672,58.0,106.0
998,242.3623318229167,243.2248309604167,53.0,80.0
999,243.02899782291672,243.2456642729167,61.0,106.0
1000,241.02899982291672,243.4317751979167,46.0,104.0
1001,243.3623308229167,243.5984416979167,58.0,99.0
1002,243.02899782291672,243.6623305229167,65.0,104.0
1003,243.6956638229167,243.8942747354167,58.0,101.0
1004,243.6956638229167,244.16927446041672,63.0,106.0
1005,244.02899682291672,244.41927421041672,58.0,89.0
1006,244.3623298229167,244.5026074604167,63.0,89.0
1007,243.6956638229167,244.8026071604167,51.0,101.0
1008,244.69566282291672,245.10121797291671,58.0,101.0
1009,244.69566282291672,245.1414957104167,63.0,106.0
1010,244.69566282291672,245.4623287229167,67.0,113.0
1011,245.3623288229167,245.77760618541672,51.0,76.0
1012,245.6956618229167,245.84010612291672,58.0,115.0
1013,246.0289948229167,246.15399469791672,58.0,96.0
1014,245.6956618229167,246.1595502479167,63.0,112.0
1015,246.3623278229167,246.8123273729167,60.0,101.0
1016,246.3623278229167,247.07482711041672,63.0,106.0
1017,246.6956608229167,247.4470489604167,55.0,86.0
1018,247.3623268229167,248.12760383541672,60.0,109.0
1019,248.0289928229167,248.1956593229167,55.0,46.0
1020,247.3623268229167,248.26232592291672,67.0,110.0
1021,246.3623278229167,248.3164925354167,48.0,89.0
1022,248.36232582291672,248.5637145104167,60.0,101.0
1023,248.36232582291672,248.78038096041672,63.0,106.0
1024,248.6956588229167,248.87482531041672,60.0,82.0
1025,249.0289918229167,249.34149151041672,60.0,99.0
1026,249.0289918229167,249.6289912229167,68.0,101.0
1027,249.6956578229167,249.8484354479167,60.0,76.0
1028,249.36232482291672,250.0928796479167,48.0,64.0
1029,250.0289908229167,250.4414904104167,60.0,104.0
1030,250.0289908229167,250.5053792354167,65.0,101.0
1031,250.6956568229167,250.8748233104167,60.0,99.0
1032,250.36232382291672,251.1456563729167,48.0,69.0
1033,249.0289918229167,251.2039896479167,41.0,99.0
1034,251.0289898229167,251.2692673604167,68.0,109.0
1035,251.36232282291672,251.6317669979167,67.0,113.0
1036,251.6956558229167,252.39704401041672,65.0,94.0
1037,252.3623218229167,252.50259946041672,58.0,89.0
1038,252.02898882291672,252.7414881104167,53.0,76.0
1039,251.6956558229167,253.0692655604167,46.0,104.0
1040,252.6956548229167,253.3692652604167,58.0,109.0
1041,252.6956548229167,253.3692652604167,61.0,104.0
1042,253.6956538229167,253.8414870104167,58.0,112.0
1043,253.3623208229167,253.9942646354167,46.0,71.0
1044,253.6956538229167,254.0762089979167,61.0,112.0
1045,253.6956538229167,254.1928755479167,65.0,109.0
1046,254.0289868229167,254.2248199604167,58.0,85.0
1047,254.3623198229167,254.5359307604167,58.0,104.0
1048,254.3623198229167,254.7762082979167,63.0,106.0
1049,254.6956528229167,255.11370796041672,58.0,87.0
1050,255.0289858229167,255.14009682291672,63.0,76.0
1051,254.3623198229167,255.5775963854167,51.0,104.0
1052,255.3623188229167,256.1664846854167,63.0,112.0
1053,255.3623188229167,256.2345401729167,58.0,109.0
1054,255.3623188229167,256.2456512729167,67.0,113.0
1055,256.3623178229167,256.4373177479167,63.0,104.0
1056,256.3623178229167,256.5123176729167,58.0,99.0
1057,256.3623178229167,256.7164841354167,68.0,106.0
1058,256.0289848229167,256.7414841104167,51.0,99.0
1059,256.6956508229167,257.0192616104167,67.0,110.0
1060,257.0289838229167,257.47342782291673,58.0,104.0
1061,257.0289838229167,257.7373164479167,61.0,96.0
1062,257.3623168229167,258.0428716979167,53.0,74.0
1063,257.6956498229167,258.0817605479167,58.0,109.0
1064,257.0289838229167,258.19703821041674,46.0,101.0
1065,258.0289828229167,258.3039825479167,61.0,106.0
1066,258.3623158229167,258.5762044979167,58.0,106.0
1067,258.3623158229167,258.73175989791673,63.0,106.0
1068,258.6956488229167,258.88453752291673,58.0,104.0
1069,258.3623158229167,259.1914816604167,51.0,96.0
1070,259.0289818229167,259.1984260979167,58.0,109.0
1071,259.0289818229167,259.4331480854167,67.0,110.0
1072,259.3623148229167,259.5012035729167,58.0,91.0
1073,259.6956478229167,260.1109251854167,56.0,94.0
1074,259.6956478229167,260.4928692479167,60.0,91.0
1075,260.3623138229167,260.5150914479167,56.0,67.0
1076,260.0289808229167,260.7734245229167,51.0,76.0
1077,259.6956478229167,261.0748131104167,44.0,101.0
1078,260.69564682291673,261.3095350979167,56.0,104.0
1079,260.69564682291673,261.3803683604167,60.0,104.0
1080,260.69564682291673,261.4498127354167,63.0,106.0
1081,261.69564582291673,261.9512011229167,56.0,104.0
1082,261.3623128229167,262.0262010479167,51.0,78.0
1083,262.0289788229167,262.2859230104167,60.0,59.0
1084,262.0289788229167,262.3581451604167,56.0,80.0
1085,262.0289788229167,262.3817562479167,63.0,96.0
1086,262.3623118229167,262.3817562479167,63.0,101.0
1087,262.3623118229167,262.7637003104167,59.0,66.0
1088,262.3623118229167,263.0928666479167,66.0,82.0
1089,262.69564482291673,263.5234217729167,54.0,73.0
1090,262.3623118229167,263.75397709791673,47.0,63.0
1091,263.3623108229167,264.1678655729167,63.0,106.0
1092,263.0289778229167,264.17203223541674,59.0,107.0
1093,263.3623108229167,264.1956433229167,66.0,106.0
1094,264.0289768229167,264.4498097354167,54.0,50.0
1095,264.3623098229167,264.4581430604167,59.0,104.0
1096,264.3623098229167,264.7386983354167,63.0,104.0
1097,264.69564282291674,264.8525871104167,59.0,83.0
1098,264.3623098229167,264.95397589791673,66.0,104.0
1099,265.0289758229167,265.4206420979167,58.0,99.0
1100,265.0289758229167,265.7748084104167,61.0,96.0
1101,265.3623088229167,266.0539747979167,53.0,82.0
1102,266.0289748229167,266.8261962479167,58.0,106.0
1103,266.0289748229167,266.8317517979167,65.0,104.0
1104,267.0289738229167,267.1914736604167,58.0,101.0
1105,266.69564082291674,267.2761957979167,53.0,31.0
1106,265.0289758229167,267.3456401729167,46.0,96.0
1107,267.0289738229167,267.4289734229167,61.0,96.0
1108,267.3623068229167,267.4456400729167,58.0,69.0
1109,267.6956398229167,268.1220282854167,56.0,91.0
1110,267.6956398229167,268.4470279604167,63.0,99.0
1111,268.3623058229167,268.52897232291673,56.0,66.0
1112,268.0289728229167,268.7484165479167,51.0,56.0
1113,268.6956388229167,269.4831380354167,56.0,104.0
1114,268.6956388229167,269.5373046479167,63.0,106.0
1115,269.3623048229167,269.9623042229167,51.0,69.0
1116,267.6956398229167,270.1900817729167,44.0,99.0
1117,269.6956378229167,270.2025817604167,56.0,101.0
1118,269.6956378229167,270.2748039104167,61.0,104.0
1119,270.3623038229167,270.7039701479167,56.0,96.0
1120,270.3623038229167,270.8567477729167,60.0,96.0
1121,271.0289698229167,271.1998029854167,56.0,61.0
1122,270.6956368229167,271.4567471729167,51.0,74.0
1123,270.3623038229167,271.6845247229167,44.0,101.0
1124,271.3623028229167,272.1845242229167,56.0,101.0
1125,271.3623028229167,272.2136908604167,63.0,106.0
1126,272.0289688229167,272.4039684479167,44.0,32.0
1127,272.3623018229167,272.4845239229167,56.0,109.0
1128,272.3623018229167,272.82341247291674,63.0,106.0
1129,272.6956348229167,272.9900789729167,56.0,61.0
1130,273.0289678229167,273.4220229854167,59.0,96.0
1131,273.0289678229167,273.7525782104167,63.0,101.0
1132,273.6956338229167,273.8609114354167,59.0,61.0
1133,273.3623008229167,274.0720223354167,54.0,71.0
1134,273.0289678229167,274.1845222229167,47.0,83.0
1135,274.0289668229167,274.8789659729167,59.0,117.0
1136,274.0289668229167,275.0720213354167,63.0,106.0
1137,275.0289658229167,275.4192432104167,59.0,110.0
1138,274.6956328229167,275.6706318479167,54.0,73.0
1139,275.3622988229167,275.7553539854167,63.0,104.0
1140,275.6956318229167,276.1345202729167,58.0,99.0
1141,275.6956318229167,276.2803534604167,61.0,94.0
1142,276.0289648229167,276.7664640854167,53.0,74.0
1143,275.6956318229167,276.9011861729167,46.0,99.0
1144,276.6956308229167,277.4942411354167,65.0,101.0
1145,276.6956308229167,277.5011855729167,61.0,106.0
1146,276.6956308229167,277.5025744604167,58.0,106.0
1147,277.6956298229167,277.8247963604167,58.0,109.0
1148,277.36229682291673,277.9400740229167,46.0,67.0
1149,277.6956298229167,278.0817405479167,61.0,104.0
1150,278.0289628229167,278.14424048541673,58.0,73.0
1151,278.36229582291674,278.7872953979167,56.0,101.0
1152,278.36229582291674,279.1067395229167,60.0,101.0
1153,278.6956288229167,279.4164614354167,51.0,47.0
1154,278.36229582291674,279.7386833354167,44.0,101.0
1155,279.36229482291674,279.8456276729167,60.0,106.0
1156,279.36229482291674,279.84979433541673,63.0,106.0
1157,279.36229482291674,279.9053498354167,56.0,104.0
1158,280.36229382291674,280.7067379229167,44.0,106.0
1159,280.6956268229167,280.9831265354167,56.0,96.0
1160,281.0289598229167,281.23173739791673,56.0,76.0
1161,281.0289598229167,281.4581260604167,59.0,110.0
1162,281.0289598229167,281.5650703979167,64.0,110.0
1163,281.0289598229167,281.6761813979167,40.0,113.0
1164,281.36229282291674,282.04979213541674,56.0,82.0
1165,281.6956258229167,282.0997920854167,59.0,120.0
1166,282.0289588229167,282.2400697229167,64.0,99.0
1167,282.3622918229167,282.7595136479167,54.0,106.0
1168,282.3622918229167,282.7956247229167,58.0,109.0
1169,282.6956248229167,282.99145786041674,49.0,91.0
1170,282.3622918229167,283.0261800479167,42.0,104.0
1171,283.3622908229167,283.66090163541674,54.0,85.0
1172,283.0289578229167,283.6747905104167,58.0,101.0
1173,283.0289578229167,283.6914571604167,61.0,94.0
1174,283.0289578229167,283.7317348979167,66.0,101.0
1175,284.3622898229167,284.5581229604167,56.0,73.0
1176,284.0289568229167,284.8706226479167,51.0,66.0
1177,284.6956228229167,285.7414551104167,56.0,96.0
1178,284.6956228229167,285.8233994729167,60.0,91.0
1179,284.6956228229167,285.95534378541674,63.0,99.0
1180,285.6956218229167,286.1095102979167,51.0,73.0
1181,283.69562382291673,286.1539546979167,44.0,106.0
1182,286.0289548229167,286.73589856041673,56.0,89.0
1183,286.6956208229167,287.4372867479167,51.0,73.0
1184,287.3622868229167,288.2025637604167,63.0,106.0
1185,287.3622868229167,288.2122859729167,56.0,104.0
1186,286.3622878229167,288.84284089791674,44.0,106.0
1187,288.0289528229167,288.9581185604167,51.0,51.0
1188,288.6956188229167,289.0289518229167,56.0,94.0
1189,288.6956188229167,289.7747844104167,63.0,104.0
1190,289.6956178229167,289.9178398229167,54.0,94.0
1191,289.3622848229167,290.2567283729167,49.0,78.0
1192,290.0289508229167,290.8025611604167,54.0,99.0
1193,290.0289508229167,290.9664498854167,63.0,96.0
1194,290.6956168229167,291.1678385729167,49.0,52.0
1195,291.02894982291673,291.1720052354167,54.0,99.0
1196,289.0289518229167,291.27617179791673,42.0,99.0
1197,291.02894982291673,291.4400605229167,58.0,106.0
1198,291.3622828229167,291.59978258541673,54.0,87.0
1199,291.02894982291673,291.6261714479167,63.0,74.0
1200,292.02894882291673,292.3039485479167,47.0,59.0
1201,291.6956158229167,292.31089298541673,40.0,104.0
1202,292.3622818229167,292.4803372604167,52.0,107.0
1203,292.6956148229167,292.8095035979167,52.0,55.0
1204,292.3622818229167,292.8775590854167,59.0,91.0
1205,293.02894782291673,293.4983917979167,58.0,94.0
1206,293.02894782291673,293.5456139729167,54.0,87.0
1207,293.3622808229167,293.7747804104167,49.0,67.0
1208,293.02894782291673,293.9386691354167,42.0,104.0
1209,294.02894682291674,294.33450207291673,54.0,74.0
1210,293.6956138229167,294.3483909479167,58.0,101.0
1211,293.6956138229167,294.3678353729167,61.0,96.0
1212,295.02894582291674,295.2247789604167,56.0,73.0
1213,294.6956128229167,295.5372786479167,51.0,66.0
1214,295.3622788229167,296.4081111104167,56.0,96.0
1215,295.3622788229167,296.4900554729167,60.0,91.0
1216,295.3622788229167,296.62199978541673,63.0,99.0
1217,296.3622778229167,296.7761662979167,51.0,73.0
1218,294.3622798229167,296.8206106979167,44.0,106.0
1219,296.6956108229167,297.4025545604167,56.0,89.0
1220,297.3622768229167,298.1039427479167,51.0,73.0
1221,298.0289428229167,298.86921976041674,63.0,106.0
1222,298.0289428229167,298.8789419729167,56.0,104.0
1223,297.02894382291674,299.50949689791673,44.0,106.0
1224,298.6956088229167,299.6247745604167,51.0,51.0
1225,299.3622748229167,299.6956078229167,56.0,94.0
1226,299.3622748229167,300.4414404104167,63.0,104.0
1227,300.3622738229167,300.5844958229167,54.0,94.0
1228,300.0289408229167,300.9233843729167,49.0,78.0
1229,300.6956068229167,301.4692171604167,54.0,99.0
1230,300.6956068229167,301.63310588541674,63.0,96.0
1231,301.3622728229167,301.8344945729167,49.0,52.0
1232,301.6956058229167,301.8386612354167,54.0,99.0
1233,299.6956078229167,301.9428277979167,42.0,99.0
1234,301.6956058229167,302.1067165229167,58.0,106.0
1235,302.0289388229167,302.2664385854167,54.0,87.0
1236,301.6956058229167,302.2928274479167,63.0,74.0
1237,302.6956048229167,302.9706045479167,47.0,59.0
1238,302.3622718229167,302.9775489854167,40.0,104.0
1239,303.0289378229167,303.1469932604167,52.0,107.0
1240,303.3622708229167,303.4761595979167,52.0,55.0
1241,303.0289378229167,303.5442150854167,59.0,91.0
1242,303.6956038229167,304.1650477979167,58.0,94.0
1243,303.6956038229167,304.2122699729167,54.0,87.0
1244,304.0289368229167,304.4414364104167,49.0,67.0
1245,303.6956038229167,304.6053251354167,42.0,104.0
1246,304.6956028229167,305.0011580729167,54.0,74.0
1247,304.3622698229167,305.01504694791674,58.0,101.0
1248,304.3622698229167,305.0344913729167,61.0,96.0
