,start,end,pitch,velocity
0,36.24989306249999,36.448610425,68.0,84.0
1,36.5063025625,36.74561809583333,66.0,85.0
2,36.76271206249999,37.1473263125,68.0,87.0
3,37.275531062499994,37.44753910208333,71.0,84.0
4,37.5319405625,37.99561440833333,73.0,88.0
5,38.0447595625,38.89518440416666,71.0,87.0
6,40.352445062499996,40.52017961041666,66.0,81.0
7,40.60885456249999,40.78620446666666,66.0,79.0
8,40.865264062499996,41.26163041458333,66.0,85.0
9,41.3780830625,41.54154411875,71.0,87.0
10,41.63449256249999,42.04047427083333,73.0,85.0
11,42.14731156249999,43.64730713749999,71.0,86.0
12,44.4549970625,44.61311625416666,73.0,89.0
13,44.711406562499995,44.87273087291666,73.0,87.0
14,44.9678160625,45.28619119166666,73.0,90.0
15,45.48063506249999,45.67828405208333,73.0,92.0
16,45.737044562499996,45.93896704375,71.0,85.0
17,45.99345406249999,46.454991162499994,76.0,85.0
18,46.50627306249999,47.147296812499995,73.0,90.0
19,47.2755015625,47.458193331249994,73.0,87.0
20,47.531911062499994,47.704987474999996,71.0,84.0
21,47.7883205625,47.94430300833333,68.0,85.0
22,48.044730062499994,48.49665180624999,73.0,92.0
23,48.557549062499994,48.94216331249999,71.0,87.0
24,49.070368062499995,49.553272620833326,71.0,84.0
25,49.583187062499995,50.096006062499995,68.0,83.0
26,50.096006062499995,50.77549123749999,66.0,84.0
27,51.6344630625,51.79685574583333,68.0,89.0
28,51.89087256249999,52.08211131458333,69.0,85.0
29,52.1472820625,52.397281324999994,71.0,84.0
30,52.531896312499995,52.76693835416666,71.0,85.0
31,52.916510562499994,53.11522792499999,71.0,86.0
32,53.1729200625,53.55326082083333,71.0,85.0
33,53.557534312499996,53.81394381249999,71.0,83.0
34,53.942148562499995,54.143002670833326,68.0,83.0
35,54.19855806249999,54.93680374791666,75.0,85.0
36,55.22419606249999,55.53722932708333,75.0,88.0
37,55.6088103125,55.897270999999996,76.0,88.0
38,55.993424562499996,56.193210297916664,78.0,84.0
39,56.24983406249999,56.53615800416666,78.0,85.0
40,56.63444831249999,56.889789439583325,76.0,89.0
41,57.0190625625,57.25303623124999,73.0,83.0
42,57.27547206249999,57.57782159791666,76.0,83.0
43,57.66008631249999,57.90794882916666,76.0,85.0
44,58.0447005625,58.24448629791666,78.0,87.0
45,58.301110062499994,58.55751956249999,80.0,83.0
46,58.55751956249999,58.813929062499994,78.0,83.0
47,58.813929062499994,59.6408497,76.0,84.0
48,59.839567062499995,60.00623323749999,71.0,84.0
49,60.09597656249999,60.284010195833325,73.0,92.0
50,60.352386062499995,60.701744006249996,76.0,86.0
51,60.737000312499994,61.03934984791666,73.0,94.0
52,61.12161456249999,61.368408706249994,71.0,85.0
53,61.378024062499996,62.072466458333324,73.0,92.0
54,62.4036620625,62.706011597916664,76.0,86.0
55,62.788276312499995,63.07994211874999,73.0,94.0
56,63.172890562499994,63.39190701041666,71.0,85.0
57,63.42930006249999,63.781863124999994,76.0,94.0
58,63.95707628333333,64.089554525,78.0,85.0
59,64.19852856249999,64.63869820416666,80.0,85.0
60,64.7113475625,67.0190330625,78.0,89.0
61,67.27544256249999,67.47950178958332,71.0,87.0
62,67.5318520625,67.99018404374999,76.0,94.0
63,68.04467106249999,68.22629445833333,78.0,86.0
64,68.30108056249999,68.45813138125,80.0,83.0
65,68.5574900625,69.04680485833333,80.0,90.0
66,69.07030906249999,69.27971015416666,80.0,84.0
67,69.32671856249999,69.82992220624999,80.0,73.0
68,70.09594706249999,70.28077557708333,80.0,85.0
69,70.35235656249999,70.53291158541666,83.0,85.0
70,70.6087660625,71.02756824583332,85.0,89.0
71,71.12158506249999,71.27756750833332,83.0,90.0
72,71.37799456249999,71.92820661458333,83.0,97.0
73,72.14722306249999,72.38547022291667,80.0,80.0
74,72.4036325625,72.50940148125,83.0,94.0
75,72.6600420625,73.07243400833333,78.0,86.0
76,73.17286106249999,73.34914259374999,76.0,85.0
77,73.6856800625,74.05961058333332,76.0,86.0
78,74.19849906249999,74.35448150833332,73.0,90.0
79,74.4549085625,74.64187382291666,71.0,86.0
80,74.7113180625,75.13866722916666,78.0,79.0
81,75.22413706249999,76.22627085833332,80.0,85.0
82,76.5061845625,76.67391911041666,83.0,86.0
83,76.76259406249999,77.13438783749999,83.0,87.0
84,77.2754130625,77.4420792375,81.0,85.0
85,77.5318225625,78.25297428124999,81.0,84.0
86,78.5574605625,78.70062253333333,80.0,70.0
87,78.81387006249999,79.24442434791666,80.0,85.0
88,79.3266890625,79.48267150833333,78.0,84.0
89,79.5830985625,80.16643017499999,76.0,79.0
90,80.3523270625,80.52433510208333,73.0,90.0
91,80.6087365625,80.8010436875,71.0,88.0
92,80.86514606249999,81.21664075208332,80.0,87.0
93,81.3779650625,81.75937419374999,78.0,85.0
94,81.89078406249999,82.26044109166666,78.0,83.0
95,82.4036030625,82.58629483124999,76.0,82.0
96,82.66001256249999,83.68565056249999,78.0,84.0
97,83.68565056249999,83.91748748541666,71.0,87.0
98,83.94206006249999,84.35979387291665,76.0,87.0
99,84.4548790625,84.62688710208333,78.0,84.0
100,84.71128856249999,84.87154449999998,80.0,86.0
101,84.96769806249999,85.31598763333332,80.0,83.0
102,85.48051706249998,85.640773,80.0,83.0
103,85.73692656249999,86.37901868541665,80.0,85.0
104,86.50615506249999,86.65252215208332,80.0,89.0
105,86.76256456249999,86.91427351666665,83.0,90.0
106,87.01897406249999,87.41640878749999,85.0,85.0
107,87.53179306249999,87.6728182875,83.0,94.0
108,87.78820256249999,88.24226105208332,83.0,89.0
109,88.55743106249999,88.76576378124999,80.0,85.0
110,88.81384056249999,88.98584860208332,83.0,89.0
111,89.0702500625,89.48905224583332,78.0,90.0
112,89.58306906249999,89.99973449999999,76.0,87.0
113,90.0958880625,90.52964746666666,76.0,92.0
114,90.60870706249999,90.73477506666666,73.0,89.0
115,90.86511656249999,91.05849206041665,71.0,84.0
116,91.1215260625,91.51575566874999,78.0,85.0
117,91.63434506249999,92.43241963124999,80.0,87.0
118,92.9163925625,93.03498195625,83.0,94.0
119,93.1728020625,93.46874136041666,83.0,92.0
120,93.68562106249999,93.82130442291665,81.0,83.0
121,93.9420305625,94.62472085625,81.0,85.0
122,94.9676685625,95.13540311041666,80.0,80.0
123,95.22407806249998,95.61296580416666,80.0,84.0
124,95.73689706249999,95.94416140833333,78.0,84.0
125,95.9933065625,96.46980088333332,76.0,84.0
126,96.76253506249999,96.94950032291666,73.0,89.0
127,97.0189445625,97.22300378958333,71.0,89.0
128,97.27535406249999,97.627917125,80.0,86.0
129,97.7881730625,98.45590613541665,78.0,87.0
130,98.8138110625,98.95269954166666,73.0,92.0
131,99.07022056249998,99.22833975416665,71.0,87.0
132,99.32663006249999,99.72406478749998,80.0,90.0
133,99.8394490625,100.20696934583333,78.0,84.0
134,100.35226806249999,100.80632655208332,80.0,84.0
135,100.8650870625,101.28282087291666,83.0,85.0
136,101.37790606249999,101.85546875624999,73.0,79.0
137,101.8907250625,104.50930708124999,76.0,85.0
138,145.01693966666664,145.21565702916664,68.0,84.0
139,145.27334916666663,145.5126647,66.0,85.0
140,145.52975866666665,145.91437291666665,68.0,87.0
141,146.04257766666663,146.21458570624998,71.0,84.0
142,146.29898716666665,146.7626610125,73.0,88.0
143,146.81180616666666,147.66223100833332,71.0,87.0
144,149.11949166666665,149.2872262145833,66.0,81.0
145,149.37590116666664,149.5532510708333,66.0,79.0
146,149.63231066666665,150.02867701875,66.0,85.0
147,150.14512966666663,150.30859072291665,71.0,87.0
148,150.40153916666665,150.80752087499997,73.0,85.0
149,150.91435816666663,152.41435374166664,71.0,86.0
150,153.22204366666665,153.3801628583333,73.0,89.0
151,153.47845316666664,153.6397774770833,73.0,87.0
152,153.73486266666663,154.0532377958333,73.0,90.0
153,154.24768166666664,154.44533065624998,73.0,92.0
154,154.50409116666665,154.70601364791665,71.0,85.0
155,154.76050066666664,155.22203776666663,76.0,85.0
156,155.27331966666665,155.91434341666664,73.0,90.0
157,156.04254816666665,156.22523993541665,73.0,87.0
158,156.29895766666664,156.47203407916663,71.0,84.0
159,156.55536716666666,156.7113496125,68.0,85.0
160,156.81177666666665,157.26369841041665,73.0,92.0
161,157.32459566666665,157.70920991666665,71.0,87.0
162,157.83741466666663,158.320319225,71.0,84.0
163,158.35023366666664,158.86305266666665,68.0,83.0
164,158.86305266666665,159.54253784166664,66.0,84.0
165,160.40150966666664,160.56390234999998,68.0,89.0
166,160.65791916666666,160.84915791874997,69.0,85.0
167,160.91432866666665,161.16432792916663,71.0,84.0
168,161.29894291666665,161.53398495833332,71.0,85.0
169,161.68355716666665,161.88227452916664,71.0,86.0
170,161.93996666666663,162.32030742499998,71.0,85.0
171,162.32458091666663,162.58099041666665,71.0,83.0
172,162.70919516666663,162.91004927499998,68.0,83.0
173,162.96560466666665,163.70385035208332,75.0,85.0
174,163.99124266666664,164.30427593124998,75.0,88.0
175,164.37585691666663,164.66431760416665,76.0,88.0
176,164.76047116666663,164.9602569020833,78.0,84.0
177,165.01688066666665,165.30320460833332,78.0,85.0
178,165.40149491666665,165.65683604375,76.0,89.0
179,165.78610916666665,166.02008283541664,73.0,83.0
180,166.04251866666664,166.34486820208332,76.0,83.0
181,166.42713291666664,166.67499543333332,76.0,85.0
182,166.81174716666663,167.0115329020833,78.0,87.0
183,167.06815666666665,167.32456616666664,80.0,83.0
184,167.32456616666664,167.58097566666663,78.0,83.0
185,167.58097566666663,168.40789630416663,76.0,84.0
186,168.60661366666665,168.77327984166664,71.0,84.0
187,168.86302316666664,169.05105679999997,73.0,92.0
188,169.11943266666665,169.46882721041666,76.0,86.0
189,169.50415900416664,169.8071559020833,73.0,94.0
190,169.88959675416666,170.13691931041666,71.0,85.0
191,170.14655525416666,170.84248452499997,73.0,92.0
192,171.17438925416664,171.4773861520833,76.0,86.0
193,171.55982700416666,171.85211729791666,73.0,94.0
194,171.94526475416666,172.1647501395833,71.0,85.0
195,172.20222325416665,172.55554119166666,76.0,94.0
196,172.73112949999998,172.86389139166664,78.0,85.0
197,172.97309875416664,173.4142108458333,80.0,85.0
198,173.48701575416666,175.79964225416666,78.0,89.0
199,176.05660075416665,176.26109689375,71.0,87.0
200,176.31355925416665,176.77287257291664,76.0,94.0
201,176.82747625416664,177.009488525,78.0,86.0
202,177.08443475416664,177.24182183541666,80.0,83.0
203,177.34139325416666,177.831755725,80.0,90.0
204,177.85531025416665,178.0651596958333,80.0,84.0
205,178.11226875416665,178.61654981041664,80.0,73.0
206,178.88314425416664,179.06836850624998,80.0,85.0
207,179.14010275416666,179.32104436458332,83.0,85.0
208,179.39706125416666,179.81618368749997,85.0,89.0
209,179.91020050416662,180.06618294999998,83.0,90.0
210,180.16661000416664,180.71682205624998,83.0,97.0
211,180.93583850416664,181.17408566458332,80.0,80.0
212,181.19224800416663,181.29801692291664,83.0,94.0
213,181.44865750416665,181.86104944999997,78.0,86.0
214,181.96147650416663,182.13775803541662,76.0,85.0
215,182.47429550416663,182.84822602499997,76.0,86.0
216,182.98711450416664,183.14309694999997,73.0,90.0
217,183.24352400416663,183.43048926458331,71.0,86.0
218,183.49993350416665,183.9272826708333,78.0,79.0
219,184.01275250416663,185.01488629999997,80.0,85.0
220,185.29480000416663,185.4625345520833,83.0,86.0
221,185.55120950416665,185.92300327916664,83.0,87.0
222,186.06402850416663,186.23069467916665,81.0,85.0
223,186.32043800416665,187.04158972291663,81.0,84.0
224,187.34607600416663,187.48923797499998,80.0,70.0
225,187.60248550416662,188.0330397895833,80.0,85.0
226,188.11530450416663,188.27128694999996,78.0,84.0
227,188.37171400416665,188.95504561666664,76.0,79.0
228,189.14094250416665,189.31295054374996,73.0,90.0
229,189.39735200416663,189.58965912916665,71.0,88.0
230,189.65376150416662,190.00525619374997,80.0,87.0
231,190.16658050416663,190.54798963541663,78.0,85.0
232,190.67939950416664,191.0490565333333,78.0,83.0
233,191.19221850416665,191.37491027291662,76.0,82.0
234,191.44862800416664,192.47426600416662,78.0,84.0
235,192.47426600416662,192.7061029270833,71.0,87.0
236,192.73067550416664,193.1484093145833,76.0,87.0
237,193.24349450416665,193.41550254374997,78.0,84.0
238,193.49990400416664,193.66015994166665,80.0,86.0
239,193.75631350416663,194.10460307499997,80.0,83.0
240,194.26913250416663,194.42938844166665,80.0,83.0
241,194.52554200416662,195.1676341270833,80.0,85.0
242,195.29477050416665,195.44113759374997,80.0,89.0
243,195.55118000416664,195.7028889583333,83.0,90.0
244,195.80758950416663,196.20502422916664,85.0,85.0
245,196.32040850416664,196.46143372916663,83.0,94.0
246,196.57681800416663,197.03087649374996,83.0,89.0
247,197.34604650416662,197.55437922291662,80.0,85.0
248,197.60245600416664,197.77446404374996,83.0,89.0
249,197.85886550416663,198.27766768749996,78.0,90.0
250,198.37168450416664,198.78834994166664,76.0,87.0
251,198.88450350416664,199.3182629083333,76.0,92.0
252,199.39732250416662,199.5233905083333,73.0,89.0
253,199.65373200416664,199.8471075020833,71.0,84.0
254,199.91014150416663,200.30437111041664,78.0,85.0
255,200.42296050416664,201.22103507291664,80.0,87.0
256,201.70500800416664,201.82359739791664,83.0,94.0
257,201.96141750416663,202.2573568020833,83.0,92.0
258,202.47423650416664,202.6099198645833,81.0,83.0
259,202.73064600416663,203.41333629791663,81.0,85.0
260,203.75628400416664,203.9240185520833,80.0,80.0
261,204.01269350416663,204.4015812458333,80.0,84.0
262,204.52551250416664,204.73277684999996,78.0,84.0
263,204.78192200416663,205.25841632499996,76.0,84.0
264,205.55115050416663,205.7381157645833,73.0,89.0
265,205.80756000416665,206.01161923124997,71.0,89.0
266,206.06396950416664,206.41653256666663,80.0,86.0
267,206.57678850416664,207.2445215770833,78.0,87.0
268,207.60242650416663,207.7413149833333,73.0,92.0
269,207.85883600416662,208.0169551958333,71.0,87.0
270,208.11524550416664,208.51268022916662,80.0,90.0
271,208.62806450416664,208.99558478749998,78.0,84.0
272,209.14088350416662,209.59494199374996,80.0,84.0
273,209.65370250416663,210.0714363145833,83.0,85.0
274,210.16652150416664,210.64408419791664,73.0,79.0
275,210.67934050416665,212.73061650416662,76.0,85.0
276,212.98702600416664,213.19108523124996,71.0,87.0
277,213.24343550416663,213.70176748541664,76.0,94.0
278,213.75625450416663,213.93787789999996,78.0,86.0
279,214.01266400416662,214.16971482291663,80.0,83.0
280,214.26907350416664,214.75838829999998,80.0,90.0
281,214.78189250416665,214.9912935958333,80.0,84.0
282,215.03830200416664,215.54150564791664,80.0,73.0
283,215.80753050416664,215.99235901874997,80.0,85.0
284,216.06394000416662,216.2444950270833,83.0,85.0
285,216.32034950416664,216.73915168749997,85.0,89.0
286,216.83316850416662,216.98915094999995,83.0,90.0
287,217.08957800416664,217.63979005624998,83.0,97.0
288,217.85880650416664,218.0970536645833,80.0,80.0
289,218.11521600416663,218.22098492291664,83.0,94.0
290,218.37162550416662,218.78401744999996,78.0,86.0
291,218.88444450416662,219.06072603541662,76.0,85.0
292,219.39726350416663,219.77119402499997,76.0,86.0
293,219.91008250416664,220.06606494999997,73.0,90.0
294,220.16649200416663,220.3534572645833,71.0,86.0
295,220.42290150416665,220.8502506708333,78.0,79.0
296,220.93572050416662,221.93785429999997,80.0,85.0
297,222.21776800416663,222.3855025520833,83.0,86.0
298,222.47417750416662,222.84597127916663,83.0,87.0
299,222.98699650416663,223.15366267916664,81.0,85.0
300,223.24340600416662,223.96455772291662,81.0,84.0
301,224.26904400416663,224.41220597499995,80.0,70.0
302,224.52545350416665,224.95600778958328,80.0,85.0
303,225.03827250416663,225.19425494999996,78.0,84.0
304,225.29468200416665,225.87801361666664,76.0,79.0
305,226.06391050416664,226.23591854374996,73.0,90.0
306,226.32032000416663,226.51262712916662,71.0,88.0
307,226.57672950416662,226.92822419374997,80.0,87.0
308,227.08954850416663,227.47095763541662,78.0,85.0
309,227.60236750416664,227.9720245333333,78.0,83.0
310,228.11518650416662,228.29787827291665,76.0,82.0
311,228.37159600416663,229.39723400416665,78.0,84.0
312,229.39723400416665,229.6290709270833,71.0,87.0
313,229.65364350416664,230.0713773145833,76.0,87.0
314,230.16646250416665,230.33847054374996,78.0,84.0
315,230.42287200416663,230.58312794166665,80.0,86.0
316,230.67928150416662,231.02757107499997,80.0,83.0
317,231.19210050416663,231.35235644166664,80.0,83.0
318,231.44851000416662,232.0906021270833,80.0,85.0
319,232.21773850416662,232.36410559374997,80.0,89.0
320,232.47414800416664,232.62585695833332,83.0,90.0
321,232.73055750416663,233.12799222916664,85.0,85.0
322,233.24337650416663,233.38440172916663,83.0,94.0
323,233.49978600416662,233.95384449374995,83.0,89.0
324,234.26901450416665,234.47734722291665,80.0,85.0
325,234.52542400416664,234.69743204374996,83.0,89.0
326,234.78183350416663,235.20063568749998,78.0,90.0
327,235.29465250416663,235.71131794166664,76.0,87.0
328,235.80747150416664,236.2412309083333,76.0,92.0
329,236.32029050416662,236.4463585083333,73.0,89.0
330,236.57670000416664,236.7700755020833,71.0,84.0
331,236.83310950416663,237.22733911041664,78.0,85.0
332,237.34592850416664,238.14400307291663,80.0,87.0
333,238.62797600416664,238.74656539791664,83.0,94.0
334,238.88438550416663,239.1803248020833,83.0,92.0
335,239.39720450416664,239.5328878645833,81.0,83.0
336,239.65361400416663,240.33630429791663,81.0,85.0
337,240.67925200416664,240.8469865520833,80.0,80.0
338,240.93566150416663,241.32454924583328,80.0,84.0
339,241.44848050416664,241.65574484999996,78.0,84.0
340,241.70489000416663,242.18138432499995,76.0,84.0
341,242.47411850416663,242.66108376458328,73.0,89.0
342,242.73052800416662,242.93458723124996,71.0,89.0
343,242.98693750416663,243.33950056666663,80.0,86.0
344,243.49975650416664,244.1674895770833,78.0,87.0
345,244.52539450416663,244.6642829833333,73.0,92.0
346,244.78180400416664,244.9399231958333,71.0,87.0
347,245.03821350416663,245.43564822916665,80.0,90.0
348,245.55103250416664,245.91855278749995,78.0,84.0
349,246.06385150416662,246.51790999374998,80.0,84.0
350,246.57667050416663,246.99440431458328,83.0,85.0
351,247.08948950416664,247.5670521979166,73.0,79.0
352,247.60230850416661,250.22089052291665,76.0,85.0
353,252.47622574999997,252.84801952499998,73.0,94.0
354,252.8277204395833,253.19737746874995,71.0,94.0
355,253.08626668541663,253.81703376041662,80.0,93.0
356,253.7956663020833,254.83305640416663,78.0,93.0
357,255.07771380208328,255.34480703124996,73.0,93.0
358,255.34480703124996,255.6866863645833,71.0,93.0
359,255.7080538229166,256.42920554166665,80.0,93.0
360,256.40783808333333,257.2817671291666,78.0,93.0
361,257.3554848604166,257.82450057083327,80.0,93.0
362,257.80313311249995,259.72940948124995,83.0,93.0
363,259.9612464041666,260.8212866020833,73.0,93.0
364,260.79991914374995,262.72940063125,76.0,93.0
