,start,end,pitch,velocity
0,3.6698609687499997,3.998919827083333,56.0,64.0
1,3.473280352083333,4.107893864583333,52.0,73.0
2,3.9369541979166662,4.2756284125,59.0,72.0
3,3.3151611604166664,4.838660939583333,47.0,70.0
4,3.1741359354166665,5.0192159625,40.0,83.0
5,4.9615238249999996,5.0192159625,40.0,83.0
6,4.212594410416666,5.0769081,64.0,77.0
7,4.469003910416666,5.575838252083333,59.0,80.0
8,5.460453977083333,5.901691991666666,56.0,71.0
9,5.716863477083333,6.0160078937499994,59.0,75.0
10,4.699772460416666,6.06728979375,52.0,78.0
11,5.208317968749999,6.236092714583333,47.0,72.0
12,6.218998747916666,6.598271133333332,59.0,77.0
13,5.983956706249999,6.614296727083333,64.0,83.0
14,6.4839552312499995,6.893142058333333,56.0,76.0
15,6.735022866666666,6.949765822916666,52.0,78.0
16,7.777754833333333,8.04805318125,59.0,79.0
17,7.513866722916666,8.097198335416666,54.0,74.0
18,8.038437824999999,8.337582241666667,63.0,83.0
19,8.268138002083333,8.554461943749999,59.0,80.0
20,7.257457222916666,8.712581135416666,51.0,75.0
21,7.007457960416666,8.78523049375,47.0,87.0
22,8.520274010416665,9.063007452083333,54.0,81.0
23,8.764931408333332,9.324758816666666,59.0,81.0
24,9.284160645833332,9.59292041875,54.0,75.0
25,9.550185502083332,10.104671045833332,59.0,76.0
26,9.796979645833332,10.325824239583332,54.0,75.0
27,10.07368823125,10.405952208333332,63.0,84.0
28,10.323687493749999,10.630310520833332,59.0,80.0
29,9.030956264583333,10.927318191666666,47.0,87.0
30,10.577960247916666,10.971121481249998,54.0,84.0
31,10.843985104166666,11.378171562499999,59.0,81.0
32,11.357872477083331,11.660222012499998,56.0,72.0
33,11.872828222916665,12.185861487499999,56.0,67.0
34,11.629239197916666,12.201887081249998,61.0,81.0
35,12.154878672916665,12.470048683333331,64.0,83.0
36,12.395262579166666,12.744620522916666,61.0,83.0
37,12.646330214583331,12.995688158333332,56.0,79.0
38,11.121762062499998,13.001030022916666,49.0,84.0
39,12.896329477083333,13.45829363125,61.0,78.0
40,13.396328002083331,13.684788689583332,56.0,75.0
41,13.909147002083332,14.175171858333332,56.0,76.0
42,13.647395637499999,14.222180266666665,61.0,75.0
43,13.151670604166666,14.46470091875,49.0,86.0
44,14.402735289583331,14.695469468749998,56.0,78.0
45,14.168761620833331,14.761708589583332,64.0,84.0
46,14.683717366666665,15.067263243749998,61.0,83.0
47,14.935853374999999,15.234997791666665,56.0,80.0
48,15.993542562499998,16.315122810416664,66.0,71.0
49,15.737133062499998,16.35785772708333,59.0,84.0
50,16.249952062499997,16.539481122916666,71.0,87.0
51,16.506361562499997,16.822599945833332,66.0,83.0
52,15.224314062499998,17.13670158333333,47.0,85.0
53,15.480723562499998,17.18905185625,54.0,76.0
54,16.762771062499997,17.557640512499997,59.0,85.0
55,17.019180562499997,17.79695604583333,66.0,80.0
56,17.788409062499998,18.333279249999997,59.0,83.0
57,18.044818562499998,18.35464670833333,66.0,76.0
58,17.531999562499998,18.654859497916664,54.0,72.0
59,17.275590062499997,18.708278143749997,47.0,85.0
60,18.301228062499998,18.778790756249997,71.0,86.0
61,18.5576375625,18.86212384375,66.0,84.0
62,18.8140470625,19.286267891666665,59.0,83.0
63,19.0704565625,19.345028402083333,66.0,70.0
64,19.8396850625,20.25528212708333,57.0,71.0
65,20.0960945625,20.36746128333333,61.0,74.0
66,20.3525040625,20.64310149583333,64.0,85.0
67,20.608913562499996,20.9166049625,61.0,82.0
68,19.3268660625,21.199723785416666,45.0,84.0
69,19.5832755625,21.209339141666664,52.0,72.0
70,20.865323062499996,21.22109124375,57.0,82.0
71,21.121732562499997,21.44758630208333,61.0,77.0
72,21.890961062499997,22.244592497916663,61.0,76.0
73,22.147370562499997,22.408053554166663,64.0,81.0
74,22.660189562499998,22.897368349999997,64.0,83.0
75,22.403780062499997,23.007410760416665,69.0,90.0
76,21.634551562499997,23.042667066666663,52.0,68.0
77,21.378142062499997,23.134547137499997,45.0,79.0
78,22.916599062499998,23.30335005833333,61.0,77.0
79,23.173008562499998,23.308691922916665,64.0,70.0
80,23.429418062499998,23.752066683333332,59.0,83.0
81,23.429418062499998,23.98390360625,64.0,83.0
82,23.9422370625,24.275569412499998,59.0,83.0
83,23.6858275625,24.349287143749997,54.0,73.0
84,24.1986465625,24.758473970833332,64.0,85.0
85,24.7114655625,25.035182556249996,59.0,83.0
86,23.429418062499998,25.356762804166664,47.0,80.0
87,24.9678750625,25.375993516666664,64.0,87.0
88,25.224284562499996,25.392019110416665,59.0,85.0
89,24.4550560625,25.39949772083333,54.0,77.0
90,25.480694062499996,25.745650545833332,59.0,81.0
91,25.480694062499996,26.01167540208333,63.0,83.0
92,25.993513062499996,26.340734260416664,59.0,84.0
93,25.737103562499996,26.350349616666666,54.0,76.0
94,26.506332062499997,26.904835160416663,54.0,79.0
95,25.480694062499996,26.99564685833333,47.0,85.0
96,26.249922562499997,27.00205709583333,66.0,87.0
97,26.762741562499997,27.084321810416665,59.0,83.0
98,27.019151062499997,27.34820992083333,63.0,83.0
99,27.275560562499997,27.57897847083333,59.0,83.0
100,28.044789062499998,28.346070225,52.0,83.0
101,27.531970062499997,28.61743694583333,64.0,84.0
102,28.301198562499998,28.734957966666663,59.0,86.0
103,28.557608062499998,28.91871810833333,52.0,84.0
104,28.8140175625,29.353545885416665,64.0,83.0
105,29.0704270625,29.406964531249997,59.0,81.0
106,27.788379562499998,29.459314804166663,47.0,70.0
107,27.531970062499997,29.48922924583333,40.0,83.0
108,29.3268365625,29.709314066666664,52.0,83.0
109,29.583246062499995,30.150552081249998,64.0,84.0
110,29.839655562499996,30.314013137499998,52.0,79.0
111,30.096065062499996,30.388799241666664,59.0,81.0
112,30.352474562499996,30.820421899999996,64.0,85.0
113,30.608884062499996,30.999908549999997,59.0,78.0
114,30.865293562499996,31.387727918749995,52.0,84.0
115,31.121703062499996,31.410163749999995,59.0,84.0
116,29.583246062499995,31.488154972916664,40.0,85.0
117,31.378112562499997,32.307596999999994,64.0,84.0
118,32.1473410625,32.70610009791666,59.0,74.0
119,32.403750562499994,32.89627047708333,52.0,74.0
120,32.6601600625,32.984945429166665,64.0,83.0
121,32.916569562499994,33.281953099999996,59.0,76.0
122,31.890931562499997,33.525542124999994,47.0,67.0
123,31.634522062499997,33.53088398958333,40.0,83.0
124,33.1729790625,34.196480316666666,52.0,84.0
125,33.429388562499994,34.27447153958333,64.0,83.0
126,34.1986170625,34.7627179625,59.0,76.0
127,34.455026562499995,34.95609346041666,52.0,75.0
128,34.7114360625,35.1857936375,64.0,84.0
129,34.967845562499996,35.31293001458333,59.0,78.0
130,35.2242550625,35.390921237499995,52.0,84.0
131,33.942207562499995,35.47852781666666,47.0,72.0
132,33.6857980625,35.52980971666666,40.0,76.0
133,35.7370740625,36.03515010624999,52.0,75.0
134,36.24989306249999,36.623823583333326,52.0,73.0
135,35.7370740625,37.63129924374999,40.0,83.0
136,35.993483562499996,37.658008566666666,47.0,70.0
137,37.275531062499994,38.081084241666666,52.0,74.0
138,38.301169062499994,38.81826155416666,52.0,78.0
139,38.0447595625,39.051166849999994,47.0,70.0
140,37.788350062499994,39.13236319166666,40.0,83.0
141,39.326807062499995,39.609925885416665,52.0,83.0
142,40.86205894374999,43.680426697916666,59.0,85.0
143,40.352445062499996,43.69217879999999,54.0,74.0
144,39.839626062499995,43.73384534375,47.0,84.0
145,44.4549970625,44.7883294125,56.0,77.0
146,44.9678160625,45.28725956458333,61.0,79.0
147,43.9421780625,45.74238642708333,49.0,84.0
148,46.50627306249999,46.87058822708333,54.0,82.0
149,47.01909206249999,47.326783462499996,59.0,78.0
150,45.99345406249999,47.53404780833333,47.0,84.0
151,48.557549062499994,49.121649962499994,49.0,77.0
152,49.070368062499995,49.69216109999999,54.0,85.0
153,48.044730062499994,50.006262737499995,42.0,83.0
154,50.608825062499996,50.98916582083333,54.0,84.0
155,51.121644062499996,51.42719871666666,63.0,85.0
156,50.096006062499995,51.86736835833333,47.0,94.0
157,52.6601010625,52.97954456458333,51.0,84.0
158,53.1729200625,53.71672187708333,56.0,83.0
159,52.1472820625,54.07996866874999,44.0,84.0
160,54.71137706249999,55.00411124166666,51.0,77.0
161,55.22419606249999,55.54470793749999,56.0,84.0
162,54.19855806249999,56.14299677083333,44.0,85.0
163,56.76265306249999,57.33850606458333,56.0,80.0
164,56.24983406249999,57.67718027916666,49.0,88.0
165,57.27547206249999,57.899401845833324,61.0,86.0
166,58.813929062499994,59.60345664791666,54.0,84.0
167,59.326748062499995,59.890848962499994,59.0,84.0
168,58.301110062499994,60.15260032708333,47.0,87.0
169,60.865205062499996,61.41114362291666,49.0,77.0
170,61.378024062499996,61.911142147916664,54.0,85.0
171,60.352386062499995,62.24340612499999,42.0,85.0
172,62.91648106249999,63.239129683333324,49.0,79.0
173,63.42930006249999,63.760495666666664,54.0,87.0
174,62.4036620625,64.30963934583333,42.0,85.0
175,64.9677570625,65.29574754791666,59.0,75.0
176,65.48057606249999,66.02865136874999,61.0,83.0
177,64.45493806249999,66.40578700833332,47.0,85.0
178,67.0190330625,67.36945937916666,54.0,81.0
179,66.50621406249999,67.72202244166667,47.0,92.0
180,67.5318520625,67.92821841458333,59.0,84.0
181,69.07030906249999,69.39295768333332,52.0,83.0
182,68.5574900625,69.40791490416666,56.0,78.0
183,69.32671856249999,69.62479460624999,59.0,80.0
184,68.8138995625,70.27436533958333,47.0,71.0
185,68.5574900625,70.31496351041666,40.0,83.0
186,69.8395375625,70.46880921041667,59.0,84.0
187,70.09594706249999,70.49551853333332,56.0,83.0
188,70.35235656249999,70.57030463749999,52.0,83.0
189,69.5831280625,70.81389366249999,64.0,87.0
190,70.8651755625,71.20384977708332,59.0,75.0
191,71.12158506249999,71.48055836249999,54.0,85.0
192,71.37799456249999,71.57243843333333,59.0,83.0
193,71.6344040625,71.92606986874999,63.0,97.0
194,70.6087660625,72.01688156666665,47.0,97.0
195,71.89081356249999,72.21987242083333,59.0,85.0
196,72.14722306249999,72.27329106666666,54.0,87.0
197,72.6600420625,72.95918647916666,56.0,78.0
198,72.6600420625,73.44956964791666,64.0,83.0
199,73.17286106249999,73.55961205833333,56.0,78.0
200,73.4292705625,73.61409907708332,61.0,79.0
201,73.6856800625,74.02114915833333,64.0,89.0
202,72.91645156249999,74.12157621249999,44.0,71.0
203,73.94208956249999,74.23375536875,61.0,82.0
204,72.6600420625,74.30960984583332,37.0,86.0
205,74.19849906249999,74.5574723625,56.0,79.0
206,74.4549085625,74.63866870416666,61.0,80.0
207,74.7113180625,74.88653122083332,54.0,82.0
208,74.7113180625,75.03503505625,59.0,80.0
209,75.22413706249999,75.49550378333332,59.0,75.0
210,74.96772756249999,75.53182846249999,54.0,78.0
211,75.4805465625,75.80853704791666,63.0,88.0
212,75.7369560625,76.00832278333333,59.0,84.0
213,74.7113180625,76.07349353125,47.0,89.0
214,75.99336556249999,76.25939041874999,54.0,84.0
215,76.24977506249999,76.37050120208333,59.0,73.0
216,76.76259406249999,76.91323464374999,52.0,83.0
217,76.76259406249999,77.10661014166666,57.0,84.0
218,77.01900356249999,77.52754907083333,52.0,78.0
219,77.2754130625,77.59913005624999,57.0,74.0
220,77.5318225625,78.02327410416666,61.0,83.0
221,77.78823206249999,78.09806020833332,57.0,79.0
222,78.04464156249999,78.37049530208333,52.0,85.0
223,78.3010510625,78.57455452916666,57.0,92.0
224,76.76259406249999,78.68993880416666,45.0,88.0
225,78.5574605625,78.71985324583332,52.0,84.0
226,78.81387006249999,79.02433952708333,52.0,87.0
227,78.81387006249999,79.34164628333332,56.0,86.0
228,79.3266890625,79.65574792083332,52.0,84.0
229,78.81387006249999,79.66643164999999,40.0,83.0
230,79.07027956249999,79.6728418875,47.0,73.0
231,79.5830985625,79.72732890625,56.0,87.0
232,79.83950806249999,80.012584475,56.0,77.0
233,79.83950806249999,80.17711390416666,61.0,84.0
234,80.09591756249999,80.37369452083333,56.0,77.0
235,79.83950806249999,80.45809598125,49.0,84.0
236,80.3523270625,80.52433510208333,61.0,84.0
237,80.6087365625,80.72839432916666,56.0,43.0
238,80.86514606249999,81.13117091874999,54.0,83.0
239,80.86514606249999,81.49869120208332,57.0,75.0
240,81.3779650625,81.70809229374998,54.0,86.0
241,81.63437456249999,81.884373825,61.0,84.0
242,81.89078406249999,82.42817563958333,66.0,86.0
243,82.1471935625,82.46984218333333,61.0,87.0
244,82.4036030625,82.68138002083333,57.0,85.0
245,81.12155556249999,82.70488422499999,49.0,75.0
246,80.86514606249999,82.79783266874999,42.0,84.0
247,82.66001256249999,82.82774711041665,54.0,82.0
248,82.91642206249999,83.10445569583332,54.0,83.0
249,82.91642206249999,83.43885641874999,59.0,83.0
250,83.4292410625,83.79462459999999,54.0,88.0
251,83.68565056249999,83.89398328124999,61.0,85.0
252,83.94206006249999,84.23372586874999,63.0,83.0
253,84.1984695625,84.50081909791666,61.0,86.0
254,83.1728315625,84.54782750624999,51.0,73.0
255,82.91642206249999,84.59163079583332,47.0,87.0
256,84.4548790625,84.64825456041666,59.0,85.0
257,84.96769806249999,85.31491926041666,52.0,81.0
258,84.96769806249999,85.53073058958333,56.0,75.0
259,85.48051706249998,86.03927609791666,59.0,86.0
260,85.99333606249999,86.31598468333333,64.0,92.0
261,86.2497455625,86.57880442083332,59.0,85.0
262,86.50615506249999,86.8138464625,56.0,84.0
263,84.96769806249999,86.87367534583332,40.0,78.0
264,85.2241075625,86.87794883749999,47.0,79.0
265,86.76256456249999,86.91320514374999,59.0,84.0
266,87.01897406249999,87.08734992916666,54.0,78.0
267,87.01897406249999,87.29995613958333,59.0,87.0
268,87.2753835625,87.53286143541666,54.0,85.0
269,87.53179306249999,88.05956928333332,59.0,84.0
270,87.78820256249999,88.08307348749999,54.0,83.0
271,88.0446120625,88.35230346249999,63.0,89.0
272,88.3010215625,88.57238828333332,59.0,85.0
273,87.01897406249999,88.77751588333332,47.0,94.0
274,88.55743106249999,88.90358388749999,54.0,82.0
275,88.81384056249999,89.09802775833333,59.0,83.0
276,89.0702500625,89.39183031041665,61.0,83.0
277,89.3266595625,89.68563286249999,56.0,78.0
278,89.58306906249999,89.88328185208333,61.0,79.0
279,89.83947856249999,90.15251182708333,64.0,86.0
280,90.0958880625,90.41319481874999,61.0,84.0
281,90.35229756249998,90.68990340416666,56.0,82.0
282,89.0702500625,90.83199700208333,37.0,86.0
283,90.0958880625,90.8522960875,44.0,64.0
284,90.60870706249999,90.88862076666666,61.0,84.0
285,90.86511656249999,91.07558602708332,66.0,78.0
286,90.86511656249999,91.08199626458332,64.0,79.0
287,91.1215260625,91.44096956458333,59.0,83.0
288,91.37793556249999,91.75293445624999,54.0,84.0
289,91.63434506249999,91.89609642708332,59.0,83.0
290,91.89075456249999,92.18242036874999,63.0,94.0
291,92.1471640625,92.47622292083332,59.0,84.0
292,92.40357356249999,92.63327373958333,54.0,81.0
293,91.1215260625,92.86083717083332,47.0,85.0
294,92.9163925625,93.13113551874999,54.0,85.0
295,92.65998306249999,93.26147701458332,66.0,87.0
296,93.9420305625,94.22835450416666,61.0,83.0
297,93.68562106249999,94.25399545416666,57.0,83.0
298,94.19844006249998,94.52108868333332,64.0,89.0
299,94.45484956249999,94.75613072499999,61.0,85.0
300,93.42921156249999,94.91852340833333,52.0,75.0
301,94.71125906249999,94.99971975,57.0,83.0
302,93.1728020625,95.04993327708333,45.0,97.0
303,94.9676685625,95.19843711249999,61.0,75.0
304,95.22407806249998,95.56168390416666,56.0,74.0
305,95.22407806249998,95.77535848749999,59.0,82.0
306,95.73689706249999,96.16317785624999,56.0,84.0
307,95.9933065625,96.25826304583332,59.0,89.0
308,95.48048756249999,96.47834786666665,51.0,78.0
309,96.24971606249999,96.53390325833332,63.0,94.0
310,96.50612556249999,96.78817601249999,59.0,89.0
311,95.22407806249998,96.79779136874998,44.0,84.0
312,96.76253506249999,97.06702134374999,56.0,86.0
313,97.0189445625,97.11723487083333,59.0,84.0
314,97.27535406249999,97.94629225416665,54.0,77.0
315,97.7881730625,98.05633466458332,61.0,84.0
316,97.27535406249999,98.20377012708332,57.0,79.0
317,98.0445825625,98.44308566041666,66.0,85.0
318,98.30099206249999,98.61723044583333,61.0,89.0
319,98.55740156249999,98.86936645416665,57.0,86.0
320,97.53176356249999,98.98902422083333,49.0,73.0
321,98.8138110625,99.15355364999999,54.0,84.0
322,99.07022056249998,99.22620300833333,57.0,85.0
323,97.27535406249999,99.23368161874998,42.0,83.0
324,99.32663006249999,99.59265491874999,54.0,80.0
325,99.32663006249999,99.87791048749999,59.0,84.0
326,99.8394490625,100.26038799166666,54.0,87.0
327,100.09585856249998,100.35760992708332,59.0,87.0
328,100.35226806249999,100.61722454583332,63.0,97.0
329,99.58303956249999,100.6727799375,51.0,75.0
330,99.32663006249999,100.78068560208332,47.0,92.0
331,100.60867756249999,100.92171082708332,59.0,84.0
332,100.8650870625,100.99649693125,54.0,84.0
333,101.37790606249999,101.62470020624998,56.0,76.0
334,101.37790606249999,102.05952798333333,64.0,80.0
335,101.8907250625,102.22512578541665,56.0,76.0
336,102.14713456249999,102.42384314791666,59.0,84.0
337,102.40354406249999,102.72512431041666,64.0,85.0
338,102.6599535625,102.98901242083332,59.0,85.0
339,101.37790606249999,103.28174659999999,40.0,84.0
340,101.63431556249999,103.30738754999999,47.0,74.0
341,102.91636306249998,103.71336925833333,56.0,83.0
342,103.17277256249999,104.02640252291665,64.0,83.0
343,103.94200106249998,104.30524785416665,59.0,81.0
344,104.19841056249999,104.53708477708332,56.0,79.0
345,104.7112295625,105.00075862291665,59.0,85.0
346,103.6855915625,105.00823723333332,47.0,75.0
347,103.42918206249999,105.03067306458333,40.0,78.0
348,104.45482006249999,105.07874984583333,64.0,86.0
349,104.96763906249998,105.29135605625,56.0,89.0
350,105.22404856249999,105.46870596041666,59.0,87.0
351,105.48045806249999,105.87789278749999,67.0,73.0
352,105.48045806249999,105.88323465208332,60.0,72.0
353,105.99327706249998,106.07233665833333,64.0,72.0
354,105.99327706249998,106.09584086249998,60.0,72.0
355,105.99327706249998,106.10438784583333,67.0,75.0
356,105.48045806249999,106.24327632499998,48.0,86.0
357,106.50609606249999,106.58729240416666,55.0,83.0
358,106.50609606249999,106.58942914999999,48.0,92.0
359,106.50609606249999,106.59477101458332,64.0,82.0
360,106.50609606249999,106.60224962499998,60.0,78.0
361,106.50609606249999,106.60972823541665,67.0,84.0
362,107.01891506249999,107.10759001458332,64.0,71.0
363,107.01891506249999,107.12682072708333,60.0,73.0
364,107.01891506249999,107.13964120208333,67.0,74.0
365,107.01891506249999,107.15032493124998,48.0,81.0
366,107.01891506249999,107.18878635624999,55.0,74.0
367,107.53173406249999,107.90459621041666,62.0,79.0
368,107.53173406249999,107.91314319374999,59.0,77.0
369,108.04455306249999,108.13002289583332,59.0,69.0
370,108.04455306249999,108.13109126874998,62.0,74.0
371,108.04455306249999,108.13322801458332,66.0,61.0
372,108.5573720625,108.62895304791665,62.0,89.0
373,108.5573720625,108.63856840416666,59.0,87.0
374,108.5573720625,108.65566237083333,66.0,84.0
375,107.53173406249999,108.89177278541666,47.0,81.0
376,109.07019106249999,109.15031903124999,62.0,84.0
377,109.07019106249999,109.16420787916665,59.0,78.0
378,109.07019106249999,109.19625906666666,47.0,85.0
379,109.07019106249999,109.20266930416666,66.0,79.0
380,109.5830100625,109.91313729374998,60.0,74.0
381,109.5830100625,109.92061590416665,64.0,79.0
382,109.5830100625,109.93450475208333,67.0,76.0
383,110.09582906249999,110.191982625,64.0,79.0
384,110.09582906249999,110.21335008333332,67.0,83.0
385,110.09582906249999,110.22830730416666,60.0,81.0
386,109.5830100625,110.28279432291666,48.0,90.0
387,110.6086480625,110.74753654166666,48.0,90.0
388,110.6086480625,110.74967328749999,55.0,84.0
389,110.6086480625,110.76783562708333,64.0,77.0
390,110.6086480625,110.77317749166666,60.0,79.0
391,110.6086480625,110.79240820416666,67.0,79.0
392,111.12146706249999,111.19197967499998,67.0,77.0
393,111.12146706249999,111.20586852291666,60.0,78.0
394,111.6342860625,111.8265931875,59.0,74.0
395,111.6342860625,111.84155040833332,62.0,77.0
396,111.6342860625,111.85116576458333,66.0,76.0
397,112.14710506249999,112.24112187916666,59.0,59.0
398,112.14710506249999,112.26142096458332,62.0,72.0
399,112.14710506249999,112.27210469375,66.0,71.0
400,112.65992406249998,112.81163301666666,59.0,85.0
401,112.65992406249998,112.81270138958332,62.0,90.0
402,112.65992406249998,112.87146189999999,66.0,84.0
403,111.6342860625,113.0445383125,47.0,85.0
404,113.17274306249999,113.24752916666665,62.0,84.0
405,113.17274306249999,113.25073428541666,59.0,75.0
406,113.17274306249999,113.25607614999998,66.0,78.0
407,113.68556206249998,114.01248417499998,58.0,81.0
408,113.68556206249998,114.04346698958332,65.0,84.0
409,113.68556206249998,114.12466333124999,62.0,83.0
410,114.4547905625,114.76996057291666,62.0,90.0
411,114.19838106249999,114.95051559583332,58.0,84.0
412,114.71120006249998,114.98149841041665,65.0,97.0
413,113.94197156249999,115.41525781458333,53.0,74.0
414,114.96760956249999,115.45371923958332,70.0,88.0
415,113.68556206249998,115.58940259999999,46.0,84.0
416,115.22401906249999,115.59474446458333,65.0,97.0
417,115.4804285625,115.70051338333332,58.0,92.0
418,115.99324756249999,116.51995541041666,57.0,76.0
419,116.24965706249999,116.57444242916665,60.0,68.0
420,116.50606656249998,116.80841609791665,64.0,84.0
421,116.76247606249999,117.10862888749999,60.0,76.0
422,115.73683806249998,117.43020913541666,45.0,100.0
423,117.01888556249999,117.54559341041666,57.0,89.0
424,117.27529506249999,117.60862741249998,60.0,85.0
425,117.53170456249998,117.93127603333332,64.0,85.0
426,118.3009330625,118.91738423541665,56.0,85.0
427,118.55734256249998,119.04238386666665,59.0,83.0
428,118.81375206249999,119.09687088541665,62.0,88.0
429,119.07016156249999,119.56695496874998,65.0,79.0
430,119.3265710625,119.80733887499999,62.0,94.0
431,118.04452356249999,119.83618494374998,50.0,84.0
432,119.58298056249998,119.86075752083332,56.0,84.0
433,117.78811406249999,119.88212497916666,44.0,85.0
434,120.60861856249998,120.91524158958332,61.0,85.0
435,120.3522090625,120.93554067499998,57.0,85.0
436,120.09579956249999,121.18981342916665,52.0,79.0
437,119.83939006249999,121.47400062499999,45.0,94.0
438,121.37784706249998,121.56267557708333,52.0,84.0
439,121.12143756249999,121.78810226249999,57.0,88.0
440,121.63425656249998,121.87570884166665,61.0,88.0
441,120.86502806249999,121.95690518333332,64.0,92.0
442,122.40348506249998,122.74215927708332,50.0,89.0
443,122.65989456249999,122.79450954999999,54.0,84.0
444,122.14707556249999,123.06373952499999,45.0,72.0
445,122.91630406249999,123.14066237499999,50.0,88.0
446,121.89066606249999,123.16202983333332,38.0,97.0
447,122.91630406249999,123.21544847916665,57.0,90.0
448,122.91630406249999,123.21651685208332,54.0,97.0
449,123.1727135625,123.27207224374999,45.0,84.0
450,122.91630406249999,123.32014902499999,62.0,84.0
451,123.42912306249998,123.54664408333332,50.0,99.0
452,124.45476106249998,124.77847805624998,55.0,88.0
453,123.94194206249999,124.79236690416666,52.0,81.0
454,124.71117056249999,124.85753765208332,59.0,83.0
455,124.1983515625,125.10540016874998,47.0,84.0
456,124.96758006249999,125.23894678333332,52.0,84.0
457,124.96758006249999,125.36074129583332,55.0,87.0
458,124.96758006249999,125.37997200833333,59.0,84.0
459,123.94194206249999,125.49856140208333,40.0,85.0
460,124.96758006249999,125.51245024999999,64.0,85.0
461,125.22398956249998,125.52313397916666,47.0,86.0
462,125.48039906249998,125.58723635416665,52.0,94.0
463,125.99321806249999,126.34578112499999,55.0,94.0
464,125.99321806249999,126.45582353541666,37.0,85.0
465,126.24962756249998,126.74428422291665,49.0,86.0
466,126.50603706249998,126.79449774999999,52.0,83.0
467,126.76244656249999,126.92483924583333,55.0,90.0
468,127.01885606249999,127.51116052083331,61.0,85.0
469,127.01885606249999,127.80193222916665,42.0,84.0
470,127.53369264583331,127.80407814583332,54.0,92.0
471,127.27618264583332,127.81909956249999,49.0,84.0
472,127.79120264583332,127.97897035416665,61.0,86.0
473,128.04871264583332,128.57017039583332,62.0,87.0
474,128.30622264583332,128.63454789583332,54.0,84.0
475,128.5637326458333,128.89313085416666,59.0,87.0
476,128.04871264583332,129.0712419375,47.0,94.0
477,128.8212426458333,129.1066495625,54.0,87.0
478,129.07875264583333,129.41780747916664,57.0,88.0
479,129.33626264583333,129.65385831249998,54.0,85.0
480,129.59377264583333,129.8545015208333,57.0,94.0
481,129.85128264583332,129.9499948125,54.0,83.0
482,129.07875264583333,129.96716214583333,45.0,84.0
483,130.10879264583332,130.61201010416664,56.0,85.0
484,130.6238126458333,130.88346856249998,62.0,99.0
485,130.36630264583331,130.94033535416665,59.0,84.0
486,130.8813226458333,131.2987034375,66.0,87.0
487,131.13883264583333,131.49076297916665,62.0,99.0
488,131.39634264583333,132.04762835416665,59.0,84.0
489,131.65385264583333,132.16350785416665,56.0,79.0
490,130.10879264583332,132.21930168749998,44.0,90.0
491,132.16887264583332,132.4735928125,54.0,83.0
492,132.16887264583332,132.66242888333332,62.0,79.0
493,132.68384209166663,132.90225681666664,54.0,74.0
494,132.68384209166663,132.90546879791665,59.0,74.0
495,133.19775909166665,133.45150561041663,54.0,84.0
496,133.19775909166665,133.4911200458333,59.0,86.0
497,132.16887264583332,133.5714195770833,35.0,84.0
498,133.19775909166665,133.74700788541665,62.0,87.0
499,133.71167609166665,133.8380140208333,54.0,88.0
500,134.22559309166664,134.57784036874997,57.0,63.0
501,134.22559309166664,134.59175895416664,61.0,78.0
502,134.22559309166664,134.61317216249998,54.0,77.0
503,134.73951009166663,134.89903849374997,54.0,68.0
504,134.73951009166663,134.9879033083333,57.0,71.0
505,135.25342709166665,135.54250540416663,66.0,85.0
506,135.51038559166665,135.82301843333332,61.0,85.0
507,135.76734409166664,135.99218277916665,57.0,85.0
508,134.22559309166664,136.04678646041663,42.0,83.0
509,136.02430259166664,136.13350995416664,54.0,84.0
510,136.28126109166664,136.39689241666665,35.0,84.0
511,136.28126109166664,136.44186015416665,54.0,81.0
512,136.28126109166664,136.6228017645833,59.0,83.0
513,136.28126109166664,136.82301526249998,64.0,84.0
514,136.53821959166663,136.86262969791665,54.0,82.0
515,136.79517809166663,136.9664837583333,59.0,82.0
516,137.05213659166665,137.48254207916665,64.0,94.0
517,137.56605359166664,137.8015988833333,59.0,86.0
518,137.82301209166664,138.1163730458333,64.0,90.0
519,137.30909509166665,138.13457427291664,54.0,84.0
520,138.07997059166664,138.24592295624998,59.0,84.0
521,138.33692909166663,138.62814872499996,59.0,83.0
522,138.33692909166663,138.73093212499998,63.0,84.0
523,138.85084609166665,139.17846817916663,59.0,75.0
524,139.10780459166665,139.4557692270833,66.0,70.0
525,139.36476309166665,139.62707489374998,63.0,84.0
526,139.62172159166664,139.96861556666664,59.0,85.0
527,139.87868009166664,140.23199802916665,71.0,86.0
528,138.33692909166663,140.26304718125,47.0,85.0
529,138.59388759166663,140.2684004833333,54.0,72.0
530,140.39259709166663,141.00501484999998,63.0,79.0
531,140.39259709166663,141.03820532291664,66.0,74.0
532,140.13563859166663,141.0970916458333,59.0,76.0
533,140.90651409166665,141.63028053333332,54.0,69.0
534,141.42043109166664,141.98145714999998,63.0,78.0
535,141.42043109166664,142.0028703583333,59.0,67.0
536,140.39259709166663,142.20415451666665,47.0,86.0
537,141.93434809166664,142.23841564999998,54.0,70.0
538,142.44826509166663,143.2394831395833,47.0,85.0
539,142.44826509166663,143.42899003333332,71.0,78.0
540,142.44826509166663,143.44290861874998,59.0,77.0
541,144.50393309166665,144.80219671041664,52.0,75.0
542,144.50393309166665,145.0628797020833,59.0,78.0
543,145.52975866666665,147.11949756666664,64.0,83.0
544,145.01693966666664,147.82996555625,52.0,73.0
545,144.50393309166665,147.95817030624997,40.0,83.0
546,144.76053016666665,147.98487962916664,47.0,70.0
547,145.27334916666663,148.06073410624998,59.0,76.0
548,148.09385366666663,148.37697248958332,52.0,83.0
549,148.35026316666665,148.93466315208332,59.0,78.0
550,149.11949166666665,149.4218412020833,59.0,74.0
551,148.86308216666666,151.6461936145833,54.0,78.0
552,149.37590116666664,151.70281737916665,63.0,85.0
553,150.14512966666663,151.7711932458333,66.0,80.0
554,148.60667266666664,151.83743236666663,47.0,84.0
555,149.63231066666665,151.91221847083332,59.0,77.0
556,151.93999616666665,152.2776020083333,54.0,83.0
557,152.45281516666665,152.6622162583333,54.0,84.0
558,152.19640566666664,152.72204514166665,63.0,84.0
559,152.96563416666663,154.29896356666666,61.0,73.0
560,153.22204366666665,154.41648458749998,56.0,77.0
561,152.70922466666664,154.50943303124998,49.0,84.0
562,153.47845316666664,154.55537306666665,64.0,82.0
563,154.50409116666665,154.80750907499998,56.0,75.0
564,155.01691016666663,155.9891295208333,59.0,73.0
565,155.52972916666664,156.00515511458332,63.0,84.0
566,155.27331966666665,156.22844505416666,54.0,82.0
567,154.76050066666664,156.30109441249996,47.0,84.0
568,156.55536716666666,156.89724649999997,54.0,73.0
569,157.32459566666665,157.88869656666665,61.0,77.0
570,157.83741466666663,158.45920770416666,66.0,85.0
571,157.06818616666664,158.71561720416665,49.0,76.0
572,156.81177666666665,158.77330934166665,42.0,83.0
573,158.60664316666663,159.16753894791665,61.0,83.0
574,159.11946216666664,159.40364936249998,59.0,83.0
575,159.37587166666665,160.3673217333333,54.0,84.0
576,159.63228116666664,160.5051418395833,59.0,83.0
577,158.86305266666665,160.6344149625,47.0,94.0
578,160.40150966666664,160.66112428541663,54.0,84.0
579,160.91432866666665,161.18249026874997,56.0,76.0
580,161.17073816666664,163.66004706249998,51.0,75.0
581,160.91432866666665,163.70598709791665,59.0,78.0
582,161.42714766666666,163.82243974583332,56.0,84.0
583,160.91432866666665,163.90043096875,44.0,84.0
584,163.96667008958332,164.2551307770833,56.0,78.0
585,163.96880683541664,164.25726752291664,44.0,78.0
586,164.37265179791663,164.63867665416666,57.0,87.0
587,164.37478854375,164.64081339999998,45.0,87.0
588,161.68355716666665,164.6717962145833,63.0,84.0
589,164.73376184375,164.91431686666664,59.0,91.0
590,164.73589858958331,164.91538523958332,47.0,91.0
591,165.78610916666665,166.6920894,56.0,77.0
592,165.52969966666666,166.7230722145833,61.0,80.0
593,165.27329016666664,166.80426855624998,52.0,72.0
594,165.01688066666665,167.06174642916665,49.0,102.0
595,167.58097566666663,168.5371694270833,63.0,84.0
596,167.32456616666664,168.5499899020833,54.0,84.0
597,167.06815666666665,168.91964693124999,47.0,87.0
598,168.86302316666664,169.11515917499997,54.0,83.0
599,168.60661366666665,169.6626167458333,64.0,84.0
600,170.14655525416666,170.68081480208332,66.0,85.0
601,169.88959675416666,172.2996533520833,57.0,65.0
602,169.63263825416664,172.35318637291664,61.0,77.0
603,172.20222325416665,172.53412798333332,66.0,87.0
604,169.11943266666665,172.69044440416664,42.0,85.0
605,169.37584216666664,172.72149355624998,49.0,71.0
606,172.45918175416665,172.76646129374998,61.0,85.0
607,172.71614025416665,173.01485451041665,57.0,83.0
608,172.97309875416664,173.2793076333333,61.0,78.0
609,173.23005725416664,173.52234754791664,57.0,81.0
610,173.48701575416666,173.75039821666664,52.0,82.0
611,173.74397425416666,174.0726670020833,57.0,75.0
612,174.00093275416666,174.27395116041666,52.0,80.0
613,174.51484975416665,174.79750410416665,52.0,85.0
614,174.25789125416665,174.80714004791665,61.0,83.0
615,174.77180825416664,175.06945184999998,57.0,86.0
616,173.23005725416664,175.185083175,45.0,85.0
617,175.02876675416664,175.2514641208333,52.0,85.0
618,175.29750251874998,175.58551017083332,54.0,84.0
619,175.28572525416666,175.83711536874998,63.0,87.0
620,175.28572525416666,176.50413680833333,47.0,92.0
621,177.85531025416665,178.1786497,52.0,83.0
622,177.34139325416666,178.19363894583333,56.0,78.0
623,178.11226875416665,178.41098301041666,59.0,80.0
624,177.59835175416666,179.06194454374997,47.0,71.0
625,177.34139325416666,179.1026296395833,40.0,83.0
626,178.62618575416664,179.25680473958332,59.0,84.0
627,178.88314425416664,179.28357125,56.0,83.0
628,179.14010275416666,179.35851747916666,52.0,83.0
629,178.36922725416665,179.60250910416664,64.0,87.0
630,179.65379100416664,179.99246521874997,59.0,75.0
631,179.91020050416662,180.26917380416663,54.0,85.0
632,180.16661000416664,180.36105387499998,59.0,83.0
633,180.42301950416663,180.71468531041663,63.0,97.0
634,179.39706125416666,180.8054970083333,47.0,97.0
635,180.67942900416665,181.00848786249998,59.0,85.0
636,180.93583850416664,181.0619065083333,54.0,87.0
637,181.44865750416665,181.7478019208333,56.0,78.0
638,181.44865750416665,182.2381850895833,64.0,83.0
639,181.96147650416663,182.34822749999998,56.0,78.0
640,182.21788600416664,182.40271451874997,61.0,79.0
641,182.47429550416663,182.80976459999997,64.0,89.0
642,181.70506700416664,182.91019165416662,44.0,71.0
643,182.73070500416662,183.02237081041665,61.0,82.0
644,181.44865750416665,183.09822528749996,37.0,86.0
645,182.98711450416664,183.34608780416664,56.0,79.0
646,183.24352400416663,183.4272841458333,61.0,80.0
647,183.49993350416665,183.67514666249997,54.0,82.0
648,183.49993350416665,183.82365049791665,59.0,80.0
649,184.01275250416663,184.28411922499998,59.0,75.0
650,183.75634300416664,184.32044390416664,54.0,78.0
651,184.26916200416665,184.5971524895833,63.0,88.0
652,184.52557150416663,184.79693822499996,59.0,84.0
653,183.49993350416665,184.86210897291664,47.0,89.0
654,184.78198100416662,185.04800586041662,54.0,84.0
655,185.03839050416664,185.15911664374997,59.0,73.0
656,185.55120950416665,185.70185008541662,52.0,83.0
657,185.55120950416665,185.8952255833333,57.0,84.0
658,185.80761900416664,186.31616451249997,52.0,78.0
659,186.06402850416663,186.38774549791663,57.0,74.0
660,186.32043800416665,186.8118895458333,61.0,83.0
661,186.57684750416664,186.88667564999997,57.0,79.0
662,186.83325700416663,187.15911074374998,52.0,85.0
663,187.08966650416664,187.3631699708333,57.0,92.0
664,185.55120950416665,187.4785542458333,45.0,88.0
665,187.34607600416663,187.50846868749997,52.0,84.0
666,187.60248550416662,187.81295496874998,52.0,87.0
667,187.60248550416662,188.13026172499997,56.0,86.0
668,188.11530450416663,188.44436336249996,52.0,84.0
669,187.60248550416662,188.45504709166664,40.0,83.0
670,187.85889500416664,188.46145732916665,47.0,73.0
671,188.37171400416665,188.51594434791664,56.0,87.0
672,188.62812350416664,188.80119991666663,56.0,77.0
673,188.62812350416664,188.9657293458333,61.0,84.0
674,188.88453300416663,189.16230996249996,56.0,77.0
675,188.62812350416664,189.24671142291663,49.0,84.0
676,189.14094250416665,189.31295054374996,61.0,84.0
677,189.39735200416663,189.5170097708333,56.0,43.0
678,189.65376150416662,189.91978636041662,54.0,83.0
679,189.65376150416662,190.28730664374996,57.0,75.0
680,190.16658050416663,190.49670773541663,54.0,86.0
681,190.42299000416665,190.67298926666663,61.0,84.0
682,190.67939950416664,191.21679108124997,66.0,86.0
683,190.93580900416663,191.25845762499998,61.0,87.0
684,191.19221850416665,191.46999546249998,57.0,85.0
685,189.91017100416664,191.49349966666665,49.0,75.0
686,189.65376150416662,191.58644811041663,42.0,84.0
687,191.44862800416664,191.6163625520833,54.0,82.0
688,191.70503750416663,191.89307113749996,54.0,83.0
689,191.70503750416663,192.22747186041664,59.0,83.0
690,192.21785650416663,192.58324004166664,54.0,88.0
691,192.47426600416662,192.68259872291662,61.0,85.0
692,192.73067550416664,193.02234131041664,63.0,83.0
693,192.98708500416663,193.2894345395833,61.0,86.0
694,191.96144700416664,193.33644294791662,51.0,73.0
695,191.70503750416663,193.38024623749996,47.0,87.0
696,193.24349450416665,193.4368700020833,59.0,85.0
697,193.75631350416663,194.1035347020833,52.0,81.0
698,193.75631350416663,194.31934603124998,56.0,75.0
699,194.26913250416663,194.8278915395833,59.0,86.0
700,194.78195150416664,195.10460012499996,64.0,92.0
701,195.03836100416663,195.36741986249996,59.0,85.0
702,195.29477050416665,195.60246190416663,56.0,84.0
703,193.75631350416663,195.66229078749996,40.0,78.0
704,194.01272300416665,195.66656427916664,47.0,79.0
705,195.55118000416664,195.70182058541664,59.0,84.0
706,195.80758950416663,195.8759653708333,54.0,78.0
707,195.80758950416663,196.08857158124997,59.0,87.0
708,196.06399900416665,196.3214768770833,54.0,85.0
709,196.32040850416664,196.84818472499995,59.0,84.0
710,196.57681800416663,196.87168892916662,54.0,83.0
711,196.83322750416664,197.14091890416663,63.0,89.0
712,197.08963700416663,197.36100372499996,59.0,85.0
713,195.80758950416663,197.56613132499996,47.0,94.0
714,197.34604650416662,197.69219932916664,54.0,82.0
715,197.60245600416664,197.88664319999998,59.0,83.0
716,197.85886550416663,198.1804457520833,61.0,83.0
717,198.11527500416662,198.47424830416662,56.0,78.0
718,198.37168450416664,198.67189729374996,61.0,79.0
719,198.62809400416663,198.94112726874997,64.0,86.0
720,198.88450350416664,199.20181026041664,61.0,84.0
721,199.14091300416663,199.4785188458333,56.0,82.0
722,197.85886550416663,199.62061244374996,37.0,86.0
723,198.88450350416664,199.64091152916663,44.0,64.0
724,199.39732250416662,199.6772362083333,61.0,84.0
725,199.65373200416664,199.86420146874997,66.0,78.0
726,199.65373200416664,199.87061170624997,64.0,79.0
727,199.91014150416663,200.22958500624998,59.0,83.0
728,200.16655100416665,200.54154989791664,54.0,84.0
729,200.42296050416664,200.68471186874996,59.0,83.0
730,200.67937000416663,200.97103581041662,63.0,94.0
731,200.93577950416665,201.26483836249997,59.0,84.0
732,201.19218900416664,201.42188918124998,54.0,81.0
733,199.91014150416663,201.64945261249997,47.0,85.0
734,201.70500800416664,201.91975096041665,54.0,85.0
735,201.44859850416663,202.05009245624996,66.0,87.0
736,202.73064600416663,203.0169699458333,61.0,83.0
737,202.47423650416664,203.0426108958333,57.0,83.0
738,202.98705550416662,203.30970412499997,64.0,89.0
739,203.24346500416664,203.54474616666664,61.0,85.0
740,202.21782700416662,203.70713884999998,52.0,75.0
741,203.49987450416663,203.78833519166665,57.0,83.0
742,201.96141750416663,203.83854871874996,45.0,97.0
743,203.75628400416664,203.98705255416664,61.0,75.0
744,204.01269350416663,204.3502993458333,56.0,74.0
745,204.01269350416663,204.56397392916665,59.0,82.0
746,204.52551250416664,204.95179329791662,56.0,84.0
747,204.78192200416663,205.04687848749995,59.0,89.0
748,204.26910300416662,205.2669633083333,51.0,78.0
749,205.03833150416665,205.32251869999996,63.0,94.0
750,205.29474100416664,205.57679145416662,59.0,89.0
751,204.01269350416663,205.58640681041663,44.0,84.0
752,205.55115050416663,205.85563678541664,56.0,86.0
753,205.80756000416665,205.90585031249998,59.0,84.0
754,206.06396950416664,206.7349076958333,54.0,77.0
755,206.57678850416664,206.84495010624997,61.0,84.0
756,206.06396950416664,206.99238556874997,57.0,79.0
757,206.83319800416663,207.2317011020833,66.0,85.0
758,207.08960750416662,207.40584588749996,61.0,89.0
759,207.34601700416664,207.6579818958333,57.0,86.0
760,206.32037900416663,207.77763966249998,49.0,73.0
761,207.60242650416663,207.94216909166664,54.0,84.0
762,207.85883600416662,208.01481844999998,57.0,85.0
763,206.06396950416664,208.02229706041663,42.0,83.0
764,208.11524550416664,208.38127036041664,54.0,80.0
765,208.11524550416664,208.66652592916662,59.0,84.0
766,208.62806450416664,209.0490034333333,54.0,87.0
767,208.88447400416663,209.14622536874998,59.0,87.0
768,209.14088350416662,209.40583998749997,63.0,97.0
769,208.37165500416663,209.46139537916665,51.0,75.0
770,208.11524550416664,209.56930104374996,47.0,92.0
771,209.39729300416664,209.71032626874995,59.0,84.0
772,209.65370250416663,209.78511237291664,54.0,84.0
773,210.16652150416664,210.48917012499996,52.0,80.0
774,210.16652150416664,210.75946847291664,64.0,83.0
775,210.67934050416665,211.0842538395833,52.0,72.0
776,210.93575000416664,211.48916717499998,59.0,90.0
777,211.44856900416664,211.7380980645833,56.0,83.0
778,210.42293100416663,211.9977126833333,47.0,77.0
779,211.70497850416663,212.03510573541664,59.0,87.0
780,210.16652150416664,212.0457894645833,40.0,85.0
781,211.96138800416662,212.06715692291664,52.0,83.0
782,212.21779750416664,212.37698506874997,54.0,85.0
783,212.21459238541664,212.51266842916664,66.0,88.0
784,212.21779750416664,212.52548890416665,59.0,88.0
785,212.22420774166665,213.1547605520833,35.0,97.0
786,212.21779750416664,213.16651265416664,47.0,99.0
787,213.2380936395833,213.39728120416663,54.0,85.0
788,213.2348885208333,213.5329645645833,66.0,88.0
789,213.2380936395833,213.5457850395833,59.0,88.0
790,213.2445038770833,214.17612506041664,35.0,97.0
791,213.2380936395833,214.1868087895833,47.0,99.0
792,214.4945001895833,214.88979816874996,47.0,77.0
793,214.77120877499996,215.1194983458333,56.0,78.0
794,214.26907350416664,215.13338719374997,40.0,83.0
795,214.2573214020833,215.14407092291663,52.0,83.0
796,215.03830200416664,215.33637804791664,59.0,80.0
797,215.55112100416665,215.93253013541664,59.0,84.0
798,215.26907055416663,215.97312830624998,52.0,83.0
799,215.28189102916664,216.1419312270833,40.0,83.0
800,215.80753050416664,216.20710197499997,56.0,83.0
801,216.0233418333333,216.3662895395833,52.0,74.0
802,215.29471150416663,216.52547710416664,64.0,87.0
803,216.57675900416663,216.91543321874997,59.0,75.0
804,216.83316850416662,217.19214180416662,54.0,85.0
805,216.33637509791663,217.20068878749996,35.0,83.0
806,216.3246229958333,217.21137251666664,47.0,83.0
807,217.08957800416664,217.28402187499995,59.0,83.0
808,217.34598750416663,217.63765331041662,63.0,97.0
809,217.60239700416662,217.93145586249997,59.0,85.0
810,217.85880650416664,217.9848745083333,54.0,87.0
811,217.3502609958333,218.21457468541664,35.0,83.0
812,217.33850889374997,218.2252584145833,47.0,83.0
813,218.07675457916662,218.3085915020833,59.0,82.0
814,218.37162550416662,218.6707699208333,56.0,78.0
815,218.6002573083333,218.95175199791663,52.0,79.0
816,218.37162550416662,219.1611530895833,64.0,83.0
817,218.38337760624995,219.2476912958333,37.0,83.0
818,218.37055713124997,219.2573066520833,49.0,83.0
819,218.88444450416662,219.27119549999998,56.0,78.0
820,219.14085400416664,219.32568251874997,61.0,79.0
821,219.39726350416663,219.73273259999996,64.0,89.0
822,219.65367300416665,219.94533881041664,61.0,82.0
823,219.40046862291663,220.26478231249996,37.0,83.0
824,219.91008250416664,220.26905580416664,56.0,79.0
825,219.3887165208333,220.27546604166662,49.0,83.0
826,220.16649200416663,220.3502521458333,61.0,80.0
827,220.42290150416665,220.59811466249997,54.0,82.0
828,220.42290150416665,220.74661849791664,59.0,80.0
829,220.93572050416662,221.20708722499995,59.0,75.0
830,220.67931100416664,221.24341190416663,54.0,78.0
831,220.43251686041663,221.29789892291663,35.0,83.0
832,220.4207647583333,221.30751427916664,47.0,83.0
833,221.19213000416664,221.5201204895833,63.0,88.0
834,221.44853950416663,221.71990622499996,59.0,84.0
835,221.70494900416662,221.97097386041662,54.0,84.0
836,221.96135850416664,222.08208464374997,59.0,73.0
837,221.45388136874996,222.31926343124996,35.0,83.0
838,221.44212926666663,222.32887878749997,47.0,83.0
839,222.18251169791662,222.37375044999996,54.0,71.0
840,222.47417750416662,222.62481808541662,52.0,83.0
841,222.47417750416662,222.8181935833333,57.0,84.0
842,222.73058700416664,223.23913251249996,52.0,78.0
843,222.98699650416663,223.31071349791662,57.0,74.0
844,222.48699797916663,223.35131166874996,33.0,83.0
845,222.4752458770833,223.36092702499997,45.0,83.0
846,223.24340600416662,223.7348575458333,61.0,83.0
847,223.49981550416663,223.80964364999997,57.0,79.0
848,223.75622500416662,224.08207874374997,52.0,85.0
849,224.01263450416664,224.2861379708333,57.0,92.0
850,223.50836248749997,224.3726761770833,33.0,83.0
851,223.49554201249998,224.3822915333333,45.0,83.0
852,224.26904400416663,224.43143668749997,52.0,84.0
853,224.53720560624996,224.87160632916664,40.0,83.0
854,224.52545350416665,224.87160632916664,52.0,87.0
855,224.52545350416665,225.05322972499997,56.0,86.0
856,225.03827250416663,225.36733136249995,52.0,84.0
857,224.78186300416664,225.38442532916662,47.0,73.0
858,225.29468200416665,225.43891234791664,56.0,87.0
859,225.55109150416664,225.72416791666663,56.0,77.0
860,225.55109150416664,225.8886973458333,61.0,84.0
861,225.80750100416662,226.08527796249996,56.0,77.0
862,225.55109150416664,226.16967942291663,49.0,84.0
863,225.55215987708328,226.17608966041664,37.0,97.0
864,226.06391050416664,226.23591854374996,61.0,84.0
865,226.32032000416663,226.4399777708333,56.0,43.0
866,226.57672950416662,226.84275436041662,54.0,83.0
867,226.57672950416662,227.21027464374998,57.0,75.0
868,227.08954850416663,227.41967573541663,54.0,86.0
869,226.58954997916663,227.45386366874996,30.0,83.0
870,226.5777978770833,227.46454739791665,42.0,83.0
871,227.34595800416662,227.59595726666663,61.0,84.0
872,227.60236750416664,228.13975908124996,66.0,86.0
873,227.85877700416663,228.18142562499997,61.0,87.0
874,228.11518650416662,228.39296346249995,57.0,85.0
875,226.83313900416664,228.41646766666662,49.0,75.0
876,227.6130512333333,228.4784332958333,30.0,83.0
877,227.60129913124996,228.4880486520833,42.0,83.0
878,228.37159600416663,228.5393305520833,54.0,82.0
879,228.62800550416662,228.81603913749996,54.0,83.0
880,228.62800550416662,229.15043986041664,59.0,83.0
881,228.63975760624996,229.50407129583328,35.0,83.0
882,229.14082450416663,229.50620804166664,54.0,88.0
883,228.62693713124997,229.5136866520833,47.0,83.0
884,229.39723400416665,229.60556672291665,61.0,85.0
885,229.65364350416664,229.94530931041663,63.0,83.0
886,229.91005300416663,230.2124025395833,61.0,86.0
887,228.88441500416664,230.25941094791665,51.0,73.0
888,230.16646250416665,230.3598380020833,59.0,85.0
889,229.6611221145833,230.52543580416665,35.0,83.0
890,229.6483016395833,230.53505116041663,47.0,83.0
891,230.67928150416662,231.0265027020833,52.0,81.0
892,230.67928150416662,231.24231403124998,56.0,75.0
893,231.19210050416663,231.7508595395833,59.0,86.0
894,231.70491950416664,232.02756812499996,64.0,92.0
895,231.96132900416663,232.29038786249995,59.0,85.0
896,232.21773850416662,232.52542990416663,56.0,84.0
897,230.67928150416662,232.58525878749998,40.0,78.0
898,230.93569100416664,232.58953227916663,47.0,79.0
899,232.47414800416664,232.62478858541664,59.0,84.0
900,232.73055750416663,232.7989333708333,54.0,78.0
901,232.73055750416663,233.01153958124996,59.0,87.0
902,232.98696700416662,233.2444448770833,54.0,85.0
903,233.24337650416663,233.77115272499998,59.0,84.0
904,233.49978600416662,233.79465692916665,54.0,83.0
905,233.75619550416664,234.06388690416662,63.0,89.0
906,234.01260500416663,234.28397172499996,59.0,85.0
907,232.73055750416663,234.48909932499996,47.0,94.0
908,234.26901450416665,234.61516732916664,54.0,82.0
909,234.52542400416664,234.80961119999995,59.0,83.0
910,234.78183350416663,235.1034137520833,61.0,83.0
911,235.03824300416665,235.39721630416665,56.0,78.0
912,235.29465250416663,235.59486529374996,61.0,79.0
913,235.55106200416662,235.86409526874996,64.0,86.0
914,235.80747150416664,236.12477826041663,61.0,84.0
915,236.06388100416663,236.4014868458333,56.0,82.0
916,234.78183350416663,236.54358044374996,37.0,86.0
917,235.80747150416664,236.56387952916663,44.0,64.0
918,236.32029050416662,236.6002042083333,61.0,84.0
919,236.57670000416664,236.78716946874997,66.0,78.0
920,236.57670000416664,236.79357970624997,64.0,79.0
921,236.83310950416663,237.15255300624997,59.0,83.0
922,237.08951900416662,237.46451789791664,54.0,84.0
923,237.34592850416664,237.60767986874995,59.0,83.0
924,237.60233800416663,237.89400381041662,63.0,94.0
925,237.85874750416662,238.18780636249997,59.0,84.0
926,238.11515700416663,238.34485718124995,54.0,81.0
927,236.83310950416663,238.57242061249997,47.0,85.0
928,238.62797600416664,238.84271896041662,54.0,85.0
929,238.37156650416662,238.97306045624998,66.0,87.0
930,239.65361400416663,239.9399379458333,61.0,83.0
931,239.39720450416664,239.9655788958333,57.0,83.0
932,239.91002350416665,240.23267212499997,64.0,89.0
933,240.16643300416663,240.46771416666664,61.0,85.0
934,239.14079500416665,240.63010684999995,52.0,75.0
935,240.42284250416662,240.71130319166662,57.0,83.0
936,238.88438550416663,240.76151671874996,45.0,97.0
937,240.67925200416664,240.91002055416664,61.0,75.0
938,240.93566150416663,241.2732673458333,56.0,74.0
939,240.93566150416663,241.48694192916662,59.0,82.0
940,241.44848050416664,241.87476129791662,56.0,84.0
941,241.70489000416663,241.96984648749998,59.0,89.0
942,241.19207100416662,242.1899313083333,51.0,78.0
943,241.96129950416662,242.24548669999996,63.0,94.0
944,242.21770900416664,242.49975945416662,59.0,89.0
945,240.93566150416663,242.50937481041663,44.0,84.0
946,242.47411850416663,242.77860478541663,56.0,86.0
947,242.73052800416662,242.82881831249995,59.0,84.0
948,242.98693750416663,243.6578756958333,54.0,77.0
949,243.49975650416664,243.76791810624997,61.0,84.0
950,242.98693750416663,243.91535356874996,57.0,79.0
951,243.75616600416663,244.1546691020833,66.0,85.0
952,244.01257550416665,244.32881388749996,61.0,89.0
953,244.26898500416664,244.5809498958333,57.0,86.0
954,243.24334700416662,244.70060766249998,49.0,73.0
955,244.52539450416663,244.8651370916666,54.0,84.0
956,244.78180400416664,244.93778644999998,57.0,85.0
957,242.98693750416663,244.94526506041663,42.0,83.0
958,245.03821350416663,245.30423836041663,54.0,80.0
959,245.03821350416663,245.58949392916662,59.0,84.0
960,245.55103250416664,245.9719714333333,54.0,87.0
961,245.80744200416663,246.06919336874995,59.0,87.0
962,246.06385150416662,246.32880798749994,63.0,97.0
963,245.29462300416662,246.38436337916664,51.0,75.0
964,245.03821350416663,246.49226904374996,47.0,92.0
965,246.32026100416664,246.63329426874998,59.0,84.0
966,246.57667050416663,246.70808037291664,54.0,84.0
967,247.08735275833328,247.25508730624995,37.0,85.0
968,246.99226756874998,247.4815823645833,56.0,70.0
969,247.05636994374996,247.71662440624996,61.0,76.0
970,247.1386346583333,247.8117095958333,64.0,78.0
971,248.6674763020833,249.0681161458333,68.0,83.0
972,248.39717795416664,249.09482546874995,64.0,85.0
973,248.12901635208328,249.11512455416664,61.0,77.0
974,249.24546604999995,249.32986751041665,68.0,70.0
975,249.62794355416662,249.66213148749995,68.0,62.0
976,247.8886324458333,249.71341338749997,56.0,74.0
977,250.5777270770833,250.72409416666665,64.0,73.0
978,249.59589236666665,251.1161870270833,61.0,76.0
979,249.9783698708333,251.30956252499996,56.0,58.0
980,247.62794945416664,251.4901175479166,49.0,71.0
981,248.9431165145833,251.79780894791662,73.0,92.0
982,251.09481956874998,251.81276616874996,64.0,67.0
983,250.58841080624995,251.8405438645833,68.0,78.0
984,253.4302827645833,253.94417013749995,49.0,77.0
985,253.20912957083328,253.9719478333333,42.0,83.0
986,253.59801731249996,255.83839531874997,54.0,76.0
987,253.7764355895833,255.86189952291664,57.0,78.0
988,254.23369919791662,255.90890793124996,66.0,70.0
989,253.96019573124997,255.91959166041664,61.0,76.0
990,255.85335253958328,256.3415989625,35.0,82.0
991,256.6578373458333,256.83198213124996,59.0,71.0
992,256.8202300291666,256.9516398979166,61.0,75.0
993,257.00505854374995,257.2368954666666,63.0,82.0
994,257.1952289229166,257.4612537791666,66.0,73.0
995,257.40890350624994,257.6193729708333,71.0,76.0
996,257.6642446333333,258.899283725,73.0,79.0
997,256.5125386291666,259.29671844999996,54.0,73.0
998,256.2753598416666,259.40462411458327,47.0,83.0
999,259.04458244166665,259.565948425,75.0,79.0
1000,260.9398759958333,261.1620975625,72.0,69.0
1001,260.9975681333333,261.1620975625,75.0,83.0
1002,261.0595337625,261.17278129166664,79.0,72.0
1003,261.104405425,261.32876373749997,84.0,76.0
1004,261.7208565979166,262.32876078749996,48.0,84.0
1005,261.9954284375,262.48046974166664,52.0,76.0
1006,262.2977779729166,262.5851702875,55.0,72.0
1007,262.5477772354166,263.13324559374996,60.0,75.0
1008,263.0969209145833,263.44093699375,48.0,83.0
1009,262.8469216520833,263.47191980833327,52.0,71.0
1010,261.4131651979166,263.57021011666666,43.0,84.0
1011,261.02427745624993,263.58516733749997,36.0,84.0
1012,263.3661508895833,264.12469566041665,60.0,79.0
1013,263.6225603895833,264.1674305770833,48.0,77.0
1014,264.0723453875,264.3971307541666,55.0,73.0
1015,263.85119219374997,264.6823863229166,52.0,80.0
1016,264.6407197791666,265.2090941708333,48.0,65.0
1017,264.9847358583333,265.28388027499994,52.0,64.0
1018,264.3394386166666,265.41315339791663,60.0,76.0
1019,266.8362261229166,266.98579833124995,52.0,73.0
1020,266.99861880624997,267.11400308124996,54.0,73.0
1021,267.1738319645833,267.31592556249996,56.0,74.0
1022,267.35759210624997,267.55630946875,59.0,79.0
1023,267.55096760416666,267.66848862499995,64.0,79.0
1024,267.7347277458333,267.85545388541664,66.0,77.0
1025,267.9590860583333,268.18558111666664,68.0,78.0
1026,268.1738290145833,268.41314454791666,71.0,71.0
1027,268.42917014166665,268.719767575,76.0,58.0
1028,268.68451126874993,269.0552366708333,71.0,69.0
1029,269.01891199166664,269.2657061354166,68.0,57.0
1030,269.4900644479166,269.65032038541665,64.0,57.0
1031,266.64285062499994,270.30630135624995,47.0,65.0
1032,266.3554583104166,270.44732658124997,40.0,85.0
1033,271.1695466729166,272.20052653749997,47.0,49.0
1034,270.97937629374997,272.24219308125,40.0,47.0
1035,271.24540114999996,272.31697918541664,52.0,51.0
1036,271.43236641041665,272.3426201354166,56.0,60.0
1037,271.39604173124997,272.3661243395833,59.0,60.0
