,start,end,pitch,velocity
0,0.7785706500000001,3.5946392625000003,62.0,71.0
1,0.8589277125000001,3.5964249750000006,65.0,71.0
2,0.7267849875000001,3.6214249500000006,57.0,65.0
3,0.7910706375000001,3.6892820250000007,50.0,64.0
4,4.0857102,7.085707200000001,53.0,57.0
5,4.22142435,7.332135525000001,62.0,72.0
6,4.142853000000001,7.351778362500001,58.0,67.0
7,4.199995800000001,7.446421125000001,46.0,73.0
8,7.749992250000001,10.107132750000002,62.0,59.0
9,7.776777937500001,10.178561250000001,65.0,62.0
10,7.733920837500001,10.305346837500002,57.0,54.0
11,7.683920887500001,10.474989525000002,50.0,83.0
12,11.001774712500001,13.769781125000002,57.0,57.0
13,11.044631812500002,13.975454683333334,61.0,68.0
14,11.091060337500002,14.283965020833334,45.0,76.0
15,11.112488887500001,14.454177620833335,64.0,67.0
16,14.548149160416667,17.425805929166668,62.0,78.0
17,14.544603064583335,17.47722431875,57.0,66.0
18,14.51446125,17.49318175,38.0,79.0
19,14.51446125,17.672259589583334,50.0,100.0
20,14.603113645833334,17.8229686625,65.0,79.0
21,17.49318175,17.91871325,38.0,80.0
22,17.947082016666666,20.748497725,53.0,69.0
23,20.89743375,21.119064739583333,53.0,83.0
24,17.998500406250002,21.2484972375,62.0,79.0
25,17.9719046875,21.25381638125,58.0,69.0
26,17.91871325,21.2697738125,46.0,81.0
27,21.322965250000003,24.250267360416665,48.0,83.0
28,21.385021927083336,24.365515475000002,60.0,76.0
29,21.358426208333334,24.49849406875,55.0,76.0
30,21.420482885416668,24.5995578,64.0,83.0
31,24.30168575,24.727217250000002,36.0,72.0
32,24.727217250000002,27.468349329166667,38.0,75.0
33,24.8016852625,27.973667985416668,57.0,74.0
34,24.76445125625,27.998490656250002,45.0,74.0
35,24.82828098125,27.998490656250002,62.0,72.0
36,24.8655149875,28.0144480875,65.0,67.0
37,28.131469250000002,30.239623222916666,57.0,84.0
38,28.131469250000002,30.25380760625,62.0,84.0
39,28.150972777083332,30.4399776375,65.0,84.0
40,30.684658250000002,30.84955170625,57.0,76.0
41,30.684658250000002,31.03217564166667,62.0,82.0
42,30.684658250000002,31.053452216666667,65.0,78.0
43,28.131469250000002,31.07295574375,50.0,77.0
44,31.11018975,31.512671627083332,45.0,76.0
45,31.53572125,32.00557894791667,57.0,76.0
46,31.53572125,32.11550791875,53.0,71.0
47,32.812315749999996,32.99139358958334,53.0,60.0
48,32.80522355833334,33.04458502708333,57.0,68.0
49,32.80522355833334,33.108414752083334,60.0,74.0
50,32.386784250000005,33.24316639375,48.0,62.0
51,33.66337875,33.85841402083334,53.0,60.0
52,31.53572125,34.29635685625,41.0,78.0
53,34.08891025,34.3123142875,57.0,70.0
54,34.08891025,34.37259791666666,60.0,70.0
55,34.51444175,34.61905157708333,53.0,79.0
56,34.93997325,35.16869643125,57.0,70.0
57,34.93997325,35.44706495416666,62.0,71.0
58,35.36550475,35.796355393750005,57.0,66.0
59,34.93997325,36.408056925,50.0,82.0
60,36.216567749999996,36.51621284791666,57.0,79.0
61,36.64209925,37.10841085208334,60.0,74.0
62,36.64209925,37.140325714583334,57.0,66.0
63,37.49316225,37.64919046666667,57.0,73.0
64,37.49316225,37.684651425,60.0,75.0
65,37.49316225,37.71479323958333,64.0,80.0
66,36.64209925,37.7910343,45.0,75.0
67,37.91869375,38.324721722916664,52.0,65.0
68,38.34422525,38.5676292875,57.0,68.0
69,38.34422525,38.85663609791666,62.0,72.0
70,38.76975675,39.211245681250006,57.0,60.0
71,39.195288250000004,39.6101814625,62.0,65.0
72,39.620819749999995,40.03039381875,64.0,70.0
73,38.34422525,41.26923505208334,50.0,78.0
74,40.04635125,41.385306364583336,62.0,73.0
75,40.04635125,41.408520627083334,65.0,73.0
76,41.346020689583334,41.75673456458333,50.0,70.0
77,41.75494885208334,42.04244856458334,58.0,70.0
78,42.183519852083336,42.258519777083336,53.0,57.0
79,41.75494885208334,42.70316218958334,62.0,76.0
80,42.612090852083334,42.70316218958334,62.0,78.0
81,42.612090852083334,43.354947252083335,58.0,82.0
82,43.897803852083335,44.072803677083336,53.0,74.0
83,41.75494885208334,44.13173218958334,46.0,70.0
84,43.46923285208334,44.23173208958334,58.0,68.0
85,43.46923285208334,44.235303514583336,62.0,75.0
86,44.32637485208333,44.44958901458334,53.0,78.0
87,44.32637485208333,44.67280307708334,46.0,74.0
88,44.32637485208333,44.81030293958334,62.0,82.0
89,44.32637485208333,44.81744578958334,58.0,82.0
90,44.75494585208334,44.906731414583334,53.0,82.0
91,45.183516852083336,45.437088027083334,55.0,76.0
92,45.183516852083336,45.731730589583336,60.0,76.0
93,45.612087852083334,46.129944477083335,55.0,71.0
94,45.183516852083336,46.61387256458334,48.0,82.0
95,46.04065885208334,46.73172958958334,60.0,70.0
96,46.04065885208334,46.753158139583334,64.0,79.0
97,46.897800852083336,47.57994302708334,60.0,70.0
98,46.897800852083336,47.61208585208334,64.0,78.0
99,47.75494285208334,48.09601393958334,48.0,81.0
100,47.75494285208334,48.224585239583334,60.0,78.0
101,48.18351385208334,48.38351365208334,55.0,80.0
102,47.75494285208334,48.40494220208333,64.0,82.0
103,48.612084852083335,50.913868264583336,57.0,72.0
104,48.681727639583336,51.069225252083335,65.0,77.0
105,48.669227652083336,51.17279657708334,62.0,72.0
106,51.18351085208334,51.36565352708334,62.0,79.0
107,51.18351085208334,51.374582089583335,65.0,78.0
108,51.18351085208334,51.37636780208334,57.0,83.0
109,48.612084852083335,51.52993907708334,50.0,80.0
110,51.612081852083335,51.82636735208334,45.0,100.0
111,52.040614858333335,52.31011814166667,57.0,74.0
112,52.040614858333335,52.62040152708333,62.0,77.0
113,52.46614635833333,52.96791891875,57.0,79.0
114,52.89167785833333,53.044159979166665,62.0,80.0
115,52.89167785833333,53.065436554166666,65.0,82.0
116,52.040614858333335,53.65940760625,50.0,82.0
117,53.742740858333335,54.24628646666667,62.0,75.0
118,54.16827235833333,54.411179922916666,57.0,62.0
119,54.59380385833333,54.77465474583333,57.0,83.0
120,53.742740858333335,54.8243000875,50.0,75.0
121,54.59380385833333,54.93422905833334,65.0,82.0
122,54.59380385833333,54.99983183125,62.0,84.0
123,55.019335358333336,55.13103737708333,57.0,76.0
124,55.019335358333336,55.23210110833333,50.0,78.0
125,55.23210110833333,55.444866858333334,38.0,77.0
126,55.444866858333334,55.982100377083334,57.0,71.0
127,55.444866858333334,56.13458249791667,53.0,70.0
128,56.29592985833334,56.49096512916667,57.0,72.0
129,56.29592985833334,56.50160341666667,60.0,76.0
130,55.444866858333334,57.00869512083334,41.0,76.0
131,56.721461358333336,57.2498296375,53.0,78.0
132,55.87039835833333,57.35975860833334,48.0,64.0
133,57.146992858333334,57.4519571,41.0,81.0
134,57.146992858333334,57.881034695833335,60.0,79.0
135,57.57252435833333,58.11862311666667,48.0,74.0
136,57.99805585833333,58.39167249583333,57.0,79.0
137,57.99805585833333,58.41117602291667,53.0,79.0
138,58.01401328958333,58.448410029166666,60.0,81.0
139,57.57252435833333,58.48564403541667,41.0,79.0
140,58.423587358333336,58.63635310833333,45.0,79.0
141,58.63635310833333,58.849283497916666,48.0,75.0
142,58.849283497916666,59.092140397916666,57.0,75.0
143,58.849283497916666,59.534997097916666,62.0,81.0
144,59.27785449791667,59.77071114791667,57.0,71.0
145,59.70642549791667,60.19392501041667,62.0,79.0
146,60.13499649791667,60.41713907291667,57.0,69.0
147,58.849283497916666,60.426067635416665,50.0,83.0
148,59.70642549791667,60.426067635416665,65.0,79.0
149,60.563567497916665,60.99213849791667,64.0,76.0
150,60.563567497916665,61.07963841041667,57.0,71.0
151,60.563567497916665,61.26713822291667,60.0,75.0
152,61.206423997916666,61.47963801041667,57.0,77.0
153,60.99213849791667,61.54392366041667,52.0,79.0
154,61.42070949791667,61.72785204791667,60.0,76.0
155,61.42070949791667,61.86892333541667,64.0,76.0
156,60.563567497916665,61.959994672916665,45.0,80.0
157,61.63499499791667,62.03320888541667,52.0,73.0
158,61.849280497916666,62.117137372916666,60.0,82.0
159,62.277800839583335,62.57035374583334,57.0,78.0
160,62.277800839583335,63.056168875000004,62.0,78.0
161,62.70333233958334,63.141275175000004,57.0,78.0
162,63.12886383958334,63.48524647083334,62.0,78.0
163,62.277800839583335,63.784891568750005,50.0,78.0
164,63.12886383958334,63.85758653333334,65.0,78.0
165,63.55439533958334,63.93560064166667,57.0,78.0
166,63.979926839583335,64.26538755416667,50.0,78.0
167,63.979926839583335,64.36113214166667,57.0,78.0
168,63.979926839583335,64.74942963541667,62.0,78.0
169,64.61822408958334,64.87708908541667,57.0,77.0
170,64.83098983958334,65.226379525,62.0,77.0
171,65.04375558958334,65.23524476458334,57.0,74.0
172,64.40545833958333,65.24588305208334,50.0,77.0
173,64.83098983958334,65.25652133958334,65.0,77.0
174,65.25652133958334,65.46928708958333,50.0,72.0
175,65.46928708958333,65.68205283958333,48.0,69.0
176,65.46928708958333,65.70687551041667,57.0,69.0
177,65.25652133958334,65.7476556125,64.0,70.0
178,65.68205283958333,66.14127225,58.0,65.0
179,65.68205283958333,66.28843522708334,62.0,65.0
180,66.10758433958334,66.66786748125,53.0,69.0
181,66.53311583958333,67.08276069375,62.0,80.0
182,66.53311583958333,67.09517202916668,58.0,77.0
183,65.68205283958333,67.36112921666667,46.0,65.0
184,66.95864733958334,67.59162544583333,53.0,68.0
185,67.38417883958334,67.72815013541667,46.0,72.0
186,67.38417883958334,67.84339825,62.0,72.0
187,67.38417883958334,68.07212143125,58.0,72.0
188,67.80971033958333,68.30793680416667,53.0,83.0
189,68.23524183958334,68.502972075,58.0,87.0
190,68.23524183958334,68.5136103625,62.0,82.0
191,67.80971033958333,68.53134084166668,46.0,77.0
192,68.66077333958334,68.84517032291667,58.0,89.0
193,69.08630483958333,69.33630459583334,55.0,78.0
194,69.08630483958333,69.57389301666667,60.0,78.0
195,69.51183633958334,69.96219051041668,55.0,77.0
196,69.93736783958333,70.07921167291667,60.0,77.0
197,69.93736783958333,70.18914064375001,64.0,82.0
198,69.08630483958333,70.55261546666667,48.0,77.0
199,70.78843083958334,71.04374973958333,55.0,69.0
200,70.78843083958334,71.29552254375,60.0,73.0
201,71.21396233958333,71.44445856875001,55.0,66.0
202,71.63949383958334,71.83807520625001,55.0,84.0
203,71.63949383958334,71.89303969166667,60.0,84.0
204,71.63949383958334,72.02779133333334,64.0,85.0
205,70.78843083958334,72.22535952708333,48.0,79.0
206,72.49321640208333,72.69857333958333,57.0,76.0
207,72.49321640208333,72.96643021458334,62.0,78.0
208,72.92178740208334,73.16107287708333,57.0,71.0
209,73.35035840208333,73.55750105208334,62.0,83.0
210,73.35035840208333,73.78071511458333,65.0,81.0
211,72.49321640208333,73.82178650208333,50.0,77.0
212,73.77892940208334,74.01107202708333,57.0,78.0
213,74.20750040208333,74.43071446458333,57.0,82.0
214,74.20750040208333,74.68249992708333,62.0,83.0
215,74.63607140208333,74.72535702708333,57.0,85.0
216,74.20750040208333,75.03428528958334,50.0,84.0
217,74.85035690208333,75.03964242708334,57.0,85.0
218,75.06464240208334,75.27892790208334,50.0,85.0
219,75.06464240208334,75.33428498958334,62.0,85.0
220,75.06464240208334,75.40571348958333,65.0,85.0
221,75.27892790208334,75.49321340208333,38.0,85.0
222,75.27892790208334,75.50928481458334,57.0,85.0
223,75.49321340208333,75.64499896458334,62.0,85.0
224,75.49321340208333,75.70749890208333,50.0,85.0
225,75.70749890208333,75.83964162708334,57.0,85.0
226,75.70749890208333,75.92178440208333,48.0,85.0
227,75.92178440208333,76.41464105208334,58.0,89.0
228,76.35035540208334,76.81642636458334,53.0,84.0
229,75.92178440208333,77.09499751458333,46.0,89.0
230,76.77892640208333,77.11106892708334,62.0,82.0
231,76.77892640208333,77.22178310208334,58.0,82.0
232,77.20749740208333,77.44499716458333,53.0,81.0
233,77.42178290208334,77.55749705208333,58.0,80.0
234,77.42178290208334,77.63606840208334,46.0,81.0
235,77.63606840208334,78.12713933958334,60.0,79.0
236,78.06463940208333,78.45392472708333,55.0,82.0
237,77.63606840208334,78.59678172708334,48.0,79.0
238,78.49321040208333,78.79142438958334,64.0,83.0
239,78.49321040208333,78.87892430208333,60.0,82.0
240,78.92178140208334,79.01285273958334,55.0,77.0
241,79.35035240208333,79.91999468958333,60.0,68.0
242,79.35035240208333,80.00035175208333,53.0,72.0
243,79.77892340208334,80.31285143958334,48.0,83.0
244,80.20749440208334,80.43249417708333,53.0,82.0
245,80.20749440208334,80.63606540208333,60.0,83.0
246,79.35035240208333,80.71285103958334,41.0,82.0
247,80.63606540208333,80.77713668958333,48.0,80.0
248,80.20749440208334,80.80035095208333,57.0,82.0
249,80.85035090208333,81.06463640208334,41.0,81.0
250,81.06463640208334,81.28606475208333,57.0,79.0
251,81.06463640208334,81.49856453958333,62.0,79.0
252,81.49320740208333,81.78606425208334,57.0,78.0
253,81.70749290208333,81.91820697708333,62.0,77.0
254,81.06463640208334,81.99856403958333,50.0,79.0
255,81.92177840208333,82.30927801458333,65.0,76.0
256,82.13606390208334,82.35570653958334,57.0,76.0
257,82.35034940208334,82.50213496458333,62.0,76.0
258,82.35034940208334,82.56463490208333,50.0,76.0
259,82.56463490208333,82.77892040208333,48.0,77.0
260,82.77892040208333,83.28249132708333,58.0,79.0
261,82.77892040208333,83.52177680208334,62.0,79.0
262,83.20749140208333,83.87356216458333,53.0,80.0
263,83.63606240208334,83.92534782708333,58.0,80.0
264,82.77892040208333,83.93606210208334,46.0,77.0
265,83.63606240208334,84.06463340208333,65.0,80.0
266,84.06463340208333,84.34268530416666,62.0,80.0
267,84.06463340208333,84.367507975,58.0,80.0
268,84.27885557916666,84.49162132916666,46.0,81.0
269,84.49162132916666,84.70438707916666,55.0,82.0
270,84.49162132916666,84.99693998541666,60.0,82.0
271,84.91715282916667,85.21679792708333,55.0,82.0
272,85.34268432916666,85.56076922291666,55.0,82.0
273,84.49162132916666,85.60509542083334,48.0,82.0
274,85.34268432916666,85.83736469791667,60.0,82.0
275,85.76821582916666,85.93842842916666,55.0,79.0
276,85.34268432916666,86.00403120208333,64.0,82.0
277,86.19374732916667,86.64587454791666,57.0,79.0
278,86.19374732916667,86.83913677083333,60.0,79.0
279,86.83204457916666,87.11041310208333,57.0,79.0
280,87.04481032916667,87.32849799583333,65.0,79.0
281,87.25757607916667,87.55722117708333,60.0,79.0
282,86.61927882916666,87.58913603958334,48.0,79.0
283,86.19374732916667,87.68310757916666,41.0,79.0
284,87.68310757916666,87.89587332916666,41.0,79.0
285,87.47034182916667,87.89764637708333,57.0,79.0
286,87.68310757916666,88.34977359583333,60.0,79.0
287,88.32140482916667,88.59977335208333,57.0,79.0
288,88.53417057916667,88.64587259791666,60.0,79.0
289,88.10863907916666,88.84977310833332,48.0,79.0
290,88.74693632916666,89.11927639166666,57.0,79.0
291,88.74693632916666,89.12814163125,60.0,79.0
292,88.74693632916666,89.20615573958332,65.0,79.0
293,87.89587332916666,89.21147488333332,41.0,79.0
294,89.17246782916666,89.42601368125,48.0,79.0
295,89.59799932916667,89.9951620625,62.0,79.0
296,89.59799932916667,90.027076925,55.0,79.0
297,90.02353082916666,90.57079472916666,50.0,79.0
298,90.44936627916667,90.87972299166667,55.0,79.0
299,90.44936627916667,90.96365147916666,58.0,79.0
300,89.59799932916667,91.09222277916666,43.0,79.0
301,90.87793727916666,91.19579410416667,50.0,79.0
302,91.09222277916666,91.30650827916666,43.0,79.0
303,91.09222277916666,91.35650822916666,55.0,79.0
304,91.09222277916666,91.71543644166667,58.0,79.0
305,91.73507927916665,92.02972184166666,55.0,79.0
306,91.94936477916666,92.09222177916666,58.0,79.0
307,91.52079377916667,92.31722155416666,50.0,79.0
308,92.16365027916666,92.53686419166667,55.0,79.0
309,92.16365027916666,92.61007840416666,62.0,79.0
310,91.30650827916666,92.64936407916666,43.0,79.0
311,92.59222127916667,92.72972114166666,50.0,79.0
312,93.02079227916666,93.45114899166666,57.0,79.0
313,93.02079227916666,93.52793462916667,61.0,79.0
314,93.66364877916666,93.77436295416666,57.0,79.0
315,93.44936327916666,93.98329131666667,52.0,79.0
316,93.87793427916667,94.12436260416666,61.0,79.0
317,94.09221977916667,94.34221952916666,57.0,79.0
318,93.02079227916666,94.41900516666666,45.0,79.0
319,94.30650527916666,94.53686219166666,52.0,79.0
320,94.52079077916666,94.65293350416667,57.0,79.0
321,94.52079077916666,94.73507627916666,45.0,79.0
322,94.73507627916666,94.97257604166666,62.0,79.0
323,94.94936177916667,95.20114724166666,57.0,79.0
324,95.16364727916667,95.35650422916666,62.0,79.0
325,95.37793277916666,95.58328971666666,57.0,79.0
326,94.73507627916666,95.71900386666667,50.0,79.0
327,95.59221827916666,95.95828934166666,65.0,79.0
328,95.80650377916666,95.98328931666666,57.0,79.0
329,96.02078927916666,96.23507477916667,50.0,79.0
330,96.02078927916666,96.24221762916666,64.0,79.0
331,96.23507477916667,96.44936027916667,48.0,79.0
332,96.23507477916667,96.45114599166666,57.0,79.0
333,96.44936027916667,96.97078832916667,62.0,79.0
334,96.87793127916666,97.54400204166666,53.0,79.0
335,97.30650227916666,97.72614471666667,58.0,78.0
336,96.44936027916667,97.90114454166667,46.0,79.0
337,97.30650227916666,98.03328726666666,62.0,79.0
338,97.73507327916667,98.0599716375,53.0,77.0
339,97.94935877916666,98.16280841666666,46.0,78.0
340,97.94935877916666,98.39685074166667,58.0,78.0
341,98.58833991666667,98.92344597291667,58.0,75.0
342,99.01387141666667,99.26032507708334,58.0,74.0
343,99.01387141666667,99.27450946041667,62.0,74.0
344,99.01387141666667,99.27450946041667,65.0,74.0
345,98.37557416666667,99.3152895625,53.0,75.0
346,98.37557416666667,99.46599863541667,46.0,75.0
347,99.43940291666667,99.59720418125,58.0,74.0
348,99.86493441666667,100.29046591666668,45.0,74.0
349,99.86493441666667,100.34188430625001,57.0,74.0
350,99.86493441666667,100.40571403125,61.0,74.0
351,100.29046591666668,100.71599741666667,45.0,75.0
352,100.29046591666668,100.8472029625,52.0,76.0
353,100.71599741666667,101.07769919166667,64.0,78.0
354,100.71599741666667,101.08656443125,61.0,78.0
355,100.71599741666667,101.09365662291667,57.0,78.0
356,100.71599741666667,101.14152891666667,45.0,76.0
357,101.14152891666667,101.38089038541666,52.0,79.0
358,101.14152891666667,101.56706041666666,45.0,78.0
359,101.35429466666668,101.62911709375,61.0,79.0
360,101.35429466666668,101.62911709375,64.0,79.0
361,101.35429466666668,101.63975538125,57.0,79.0
362,101.56706041666666,101.77982616666667,45.0,79.0
363,101.77982616666667,101.93762743125001,57.0,79.0
364,101.77982616666667,101.99259191666667,45.0,79.0
365,101.77982616666667,102.04932945,64.0,79.0
366,101.77982616666667,102.07592516875,61.0,79.0
367,102.20535766666667,102.48372618958334,55.0,79.0
368,101.99259191666667,102.60429344791667,52.0,79.0
369,102.41812341666667,102.84365491666667,45.0,79.0
370,102.63088916666666,102.921669025,52.0,79.0
371,102.41812341666667,103.02095970833334,61.0,79.0
372,102.84365491666667,103.05642066666667,45.0,79.0
373,102.84365491666667,103.16457658958333,57.0,79.0
374,103.05642066666667,103.26918641666667,48.0,79.0
375,103.26918641666667,103.55110103541666,57.0,79.0
376,103.26918641666667,103.83833479791667,62.0,79.0
377,103.69471791666666,104.18230609375,57.0,79.0
378,104.12024941666667,104.34719955,62.0,79.0
379,103.26918641666667,104.43407889791666,50.0,79.0
380,104.12024941666667,104.47840509583334,65.0,79.0
381,104.33301516666667,104.72840485208333,57.0,80.0
382,104.54578091666667,104.81528420000001,62.0,80.0
383,104.75854666666667,105.35606381458334,65.0,69.0
384,105.39684391666667,105.65925500833333,57.0,72.0
385,105.60960966666667,105.72663082916667,60.0,77.0
386,105.18407816666667,105.97840363333333,52.0,76.0
387,104.97131241666666,106.1237935625,45.0,83.0
388,105.82237541666667,106.155708425,60.0,82.0
389,105.82237541666667,106.16102756875,57.0,77.0
390,105.82237541666667,106.18407719166667,64.0,83.0
391,106.24790691666666,106.42521170833334,52.0,82.0
392,106.67343841666667,106.90925378958333,58.0,71.0
393,106.67343841666667,107.15038830625001,46.0,82.0
394,107.09896991666668,107.22131022291667,58.0,80.0
395,106.67343841666667,107.24435984583333,62.0,77.0
396,107.52450141666667,107.72662887916667,55.0,82.0
397,107.52450141666667,107.98372082708333,60.0,82.0
398,107.52450141666667,107.99081301875,48.0,81.0
399,107.95003291666667,108.04932360000001,55.0,77.0
400,108.37770473124999,108.77949004375,57.0,72.0
401,108.37770473124999,109.01520409375,60.0,76.0
402,109.02056123125,109.15270395625,57.0,72.0
403,109.23484673125,109.32056093125,57.0,78.0
404,109.23484673125,109.45806079375,60.0,84.0
405,108.80627573125,109.53306071875,48.0,68.0
406,109.23484673125,109.59913208124999,65.0,82.0
407,109.44913223124999,109.60270350625,57.0,78.0
408,108.37770473124999,109.60627493125,41.0,81.0
409,109.66341773125,110.00806024375,64.0,85.0
410,109.87770323125,110.09377444375,57.0,75.0
411,110.09198873125,110.51341688125,62.0,79.0
412,110.52055973125,110.77770233125,57.0,77.0
413,110.94913073125,111.14555910624999,57.0,78.0
414,110.09198873125,111.37413030625,50.0,83.0
415,110.94913073125,111.38663029375,65.0,77.0
416,110.94913073125,111.44734451875,62.0,81.0
417,111.37770173125,111.67234429375,57.0,77.0
418,111.80627273124999,112.34912933125,64.0,82.0
419,111.80627273124999,112.39734356875,60.0,77.0
420,112.44912923125,112.57591481875,57.0,74.0
421,112.23484373125,112.73484323125,52.0,77.0
422,112.66341473125,112.86341453125,57.0,82.0
423,111.80627273124999,112.99912868125,45.0,83.0
424,112.87770023125,113.09555715625,52.0,82.0
425,112.66341473125,113.09555715625,64.0,83.0
426,113.09198573124999,113.24377129375,57.0,82.0
427,113.52055673125,113.93484203125,58.0,78.0
428,113.52055673125,114.04198478125,62.0,83.0
429,114.16341323124999,114.26877026874999,58.0,71.0
430,113.94912773125,114.47591291875,53.0,67.0
431,113.52055673125,114.58305566874999,46.0,91.0
432,114.37769873124999,114.70805554374999,58.0,81.0
433,114.37769873124999,114.77591261875,62.0,82.0
434,114.37769873124999,114.78305546874999,65.0,81.0
435,114.80626973125,114.94019816875,53.0,78.0
436,115.23484073125,115.436302075,55.0,78.0
437,115.23484073125,115.8242017375,60.0,79.0
438,115.87580306875,115.98256444375001,55.0,85.0
439,115.23484073125,116.2156601125,48.0,82.0
440,116.08932581875,116.2156601125,55.0,89.0
441,116.08932581875,116.31174535,60.0,93.0
442,116.08932581875,116.37402281875,64.0,91.0
443,116.30284856875001,116.43452093125,48.0,84.0
444,116.51637131875,116.74412891875001,55.0,86.0
445,116.94341681875,117.1622776375,57.0,78.0
446,116.94341681875,117.49857596875,62.0,76.0
447,117.37046231875,117.55551536875001,57.0,71.0
448,117.79750781875,117.9451943875,57.0,81.0
449,116.94341681875,117.96654666250001,50.0,84.0
450,117.79750781875,118.11067451875,62.0,83.0
451,117.79750781875,118.1160125875,65.0,78.0
452,118.01103056875,118.13914421875,50.0,83.0
453,118.22455331875,118.4291792875,57.0,83.0
454,118.43807606875001,118.610673625,62.0,81.0
455,118.65159881875,119.09643788125,57.0,83.0
456,118.65159881875,119.12490758125,60.0,85.0
457,119.07864431875001,119.6177892625,52.0,76.0
458,118.65159881875,119.749461625,45.0,84.0
459,119.50568981875,119.79750424375,57.0,83.0
460,119.50568981875,119.849105575,60.0,88.0
461,119.50568981875,119.8953688375,64.0,87.0
462,119.93273531875,120.05373154375,52.0,78.0
463,120.35978081875,120.7352249875,58.0,77.0
464,120.35978081875,120.8562212125,46.0,83.0
465,120.78682631875,120.945189025,53.0,73.0
466,120.35978081875,121.03237748125,62.0,80.0
467,121.00034906875,121.08575816875,58.0,82.0
468,121.21387181875001,121.43629135,55.0,83.0
469,121.21387181875001,121.68006315625,60.0,84.0
470,121.21387181875001,121.71920899375,48.0,87.0
471,121.64091731875,121.756575475,55.0,84.0
472,122.06796281875,122.45230376875,57.0,77.0
473,122.06796281875,122.74767690625,60.0,82.0
474,122.70853106875,122.8562176375,57.0,80.0
475,122.92205381875,123.1337972125,60.0,87.0
476,122.49500831875,123.14447335,48.0,76.0
477,122.92205381875,123.21030953125,65.0,84.0
478,122.06796281875,123.23166180625,41.0,82.0
479,123.13557656875,123.30639476875,57.0,82.0
480,123.34909931875,123.6747215125,64.0,89.0
481,123.56262206875,123.71564670625,57.0,73.0
482,123.77614481875,124.00746113125,57.0,78.0
483,123.77614481875,124.27436456875,62.0,80.0
484,124.20319031875,124.42383049375,57.0,78.0
485,124.63023581875001,124.78681916875,57.0,82.0
486,124.63023581875001,125.0127974125,62.0,84.0
487,124.63023581875001,125.1195587875,65.0,82.0
488,123.77614481875,125.14269041875,50.0,83.0
489,125.05728131875,125.33486089375,57.0,83.0
490,125.48432681875,125.93628330625,60.0,77.0
491,125.48432681875,125.95051815625,64.0,83.0
492,125.91137231875,126.18895189375,57.0,72.0
493,126.12489506875,126.21920095,60.0,73.0
494,125.69784956875,126.468310825,52.0,76.0
495,126.33841781875,126.56261670625,57.0,82.0
496,125.48432681875,126.70140649375,45.0,80.0
497,126.55194056875,126.71564134375001,52.0,75.0
498,126.33841781875,126.74766975625,64.0,86.0
499,126.33841781875,126.75834589375,60.0,87.0
500,126.76546331875,126.8917976125,57.0,82.0
501,127.19250881875,127.81172479375,58.0,76.0
502,127.19250881875,127.9309416625,62.0,77.0
503,127.61955431875,128.1409057,53.0,76.0
504,127.19250881875,128.24232900625,46.0,84.0
505,128.04659981875,128.24944643125,58.0,82.0
506,128.04659981875,128.3864568625,62.0,84.0
507,128.26012256875,128.4006917125,53.0,79.0
508,128.04659981875,128.5003356625,65.0,83.0
509,128.47364531875002,128.7209758375,58.0,85.0
510,128.68716806875,128.82595785625,62.0,76.0
511,128.90069081875,129.158697475,55.0,79.0
512,128.90069081875,129.4113660625,60.0,82.0
513,129.32773631875,129.557273275,55.0,82.0
514,128.90069081875,130.2369873625,48.0,91.0
515,130.18182731875,130.47008303125,55.0,70.0
516,129.75478181875,130.667591575,64.0,82.0
517,130.60887281875,131.79748279375,48.0,74.0
518,130.60887281875,132.062606875,60.0,73.0
519,132.31705481875,133.18182195625,65.0,79.0
520,132.74410031875,133.23164393125,57.0,66.0
521,133.17114581875,133.6035293875,62.0,78.0
522,134.02523681875,134.58395468125,65.0,74.0
523,134.45228231875,134.653349575,57.0,69.0
524,132.31705481875,135.00744146875002,38.0,79.0
525,134.87932781875,135.26011005625,62.0,78.0
526,134.87932781875,135.31704945625,65.0,77.0
527,135.30637331875,135.41847276250002,57.0,82.0
528,135.73341881875,136.219183075,62.0,79.0
529,135.73341881875,136.22452114375,58.0,69.0
530,136.16046431875,136.56971625625,53.0,69.0
531,136.58750981875,136.80459128125,58.0,68.0
532,137.01455531875,137.3544123625,53.0,58.0
533,137.44160081875,137.59462545625001,62.0,71.0
534,137.44160081875,137.6177570875,58.0,67.0
535,135.73341881875,138.6640185625,46.0,81.0
536,138.29569181875002,138.78679414375,58.0,87.0
537,138.29569181875002,138.80814641875,62.0,80.0
538,138.72273731875,138.94515685,53.0,83.0
539,139.14978281875,139.39533398125,57.0,74.0
540,139.14978281875,139.664016775,62.0,78.0
541,139.57682831875002,140.04835772500002,57.0,81.0
542,139.14978281875,140.31704051875,50.0,87.0
543,140.00387381875,140.4220225375,62.0,83.0
544,140.00387381875,140.45227159375,65.0,82.0
545,140.43091931875,140.59639945,57.0,82.0
546,140.85796481875,141.34550843125,58.0,75.0
547,141.28501031875,141.59817701875,53.0,72.0
548,140.85796481875,141.8099204125,46.0,84.0
549,141.71205581875,142.49853128125,53.0,71.0
550,141.71205581875,142.56614681875,58.0,71.0
551,141.71205581875,142.696039825,62.0,78.0
552,143.63376056875,143.9878524625,61.0,87.0
553,143.42023781875,144.0163221625,57.0,87.0
554,142.99319231875,144.03233636875,52.0,83.0
555,142.56614681875,144.03767443750002,45.0,84.0
556,143.84728331875,144.40600118125,64.0,83.0
557,144.06080606875,144.46827865,69.0,84.0
558,144.70137431875,144.9629396875,55.0,89.0
559,144.91489706875,145.0198790875,61.0,89.0
560,144.48785156875,145.20849085,52.0,86.0
561,145.12841981875,145.38820583125,57.0,83.0
562,145.12841981875,145.43980716250002,61.0,82.0
563,145.12841981875,145.51987819375,64.0,86.0
564,145.55546531875,145.5892730875,64.0,58.0
565,144.27432881875,145.87219073125,45.0,87.0
566,145.34194256875,145.9593791875,52.0,93.0
567,145.55546531875,145.9736140375,57.0,91.0
568,145.76898806875,145.97539339375,61.0,77.0
569,145.98251081875,146.2867807375,57.0,78.0
570,145.98251081875,146.4469228,65.0,78.0
571,146.40955631875,146.93980448125,45.0,70.0
572,146.83660181875,146.9985232375,57.0,83.0
573,145.98251081875,147.01809615625,38.0,87.0
574,146.83660181875,147.0696974875,62.0,83.0
575,146.83660181875,147.10706396875,65.0,85.0
576,147.26364731875,147.535888825,57.0,86.0
577,147.47717006875,147.60884243125,62.0,79.0
578,147.47717006875,147.69071824375,45.0,100.0
579,147.69071824375,147.92286086875,57.0,82.0
580,147.69071824375,148.11928924375002,50.0,86.0
581,147.69071824375,148.14964635625,62.0,82.0
582,147.69071824375,148.19607488125,65.0,80.0
583,148.11928924375002,148.33893188125,57.0,78.0
584,148.11928924375002,148.54786024375,50.0,100.0
585,148.54786024375,148.70321723125,57.0,83.0
586,148.54786024375,148.78178858125,62.0,88.0
587,148.54786024375,148.84250280625,65.0,83.0
588,148.76214574375,148.87821705625,50.0,82.0
589,148.97643124375,149.33357374375,57.0,83.0
590,149.19071674375002,149.42821650625,62.0,77.0
591,149.83357324375,150.38357269375,53.0,78.0
592,150.26214424375001,150.60678675625002,65.0,82.0
593,150.26214424375001,150.65857241875,58.0,83.0
594,149.40500224375,150.69071524375,46.0,85.0
595,150.69071524375,150.93357214375,53.0,66.0
596,150.90500074375,151.11928624375,46.0,100.0
597,150.90500074375,151.25321468125,58.0,75.0
598,150.90500074375,151.46392875625,62.0,79.0
599,151.54785724375,151.82642839375,58.0,84.0
600,151.76214274375002,151.86214264375002,62.0,81.0
601,151.33357174375,152.05499959375,53.0,80.0
602,151.11928624375,152.09964240625,46.0,84.0
603,151.97642824375,152.31214219375,58.0,84.0
604,151.97642824375,152.35857071875,62.0,86.0
605,151.97642824375,152.37285641875002,65.0,83.0
606,152.40499924375,152.83357024375002,46.0,93.0
607,152.83357024375002,153.23892698125002,65.0,86.0
608,153.04785574375,153.31392690625,57.0,74.0
609,153.26214124375,153.48356959375002,62.0,78.0
610,153.47642674375,153.59428376875002,57.0,76.0
611,153.69071224375,153.81214069375,57.0,83.0
612,152.83357024375002,153.86392635625,38.0,83.0
613,153.69071224375,154.08714041875,65.0,83.0
614,153.90499774375002,154.12106895625,57.0,82.0
615,154.11928324375,154.38892583125,62.0,77.0
616,154.33356874375,154.54785424375,38.0,100.0
617,154.33356874375,154.59785419375,57.0,82.0
618,154.97642524375001,155.24785354375,58.0,80.0
619,155.19071074375,155.33178203125001,62.0,83.0
620,154.76213974375,155.49606758125,53.0,72.0
621,154.54785424375,155.54963895625,46.0,87.0
622,155.40499624375002,155.64963885625,58.0,82.0
623,155.40499624375002,155.70856736875,62.0,83.0
624,155.40499624375002,155.81928154375,65.0,84.0
625,155.61928174375,155.82463868125,53.0,82.0
626,155.83356724375,156.05320988125,58.0,87.0
627,156.04785274375,156.25142396875,62.0,82.0
628,156.69070924375,156.98356609375,57.0,82.0
629,156.47642374375002,157.02463748125,52.0,76.0
630,156.90499474375,157.17642304375,61.0,93.0
631,157.33356574375,157.42285136875,57.0,77.0
632,157.33356574375,157.62642259375,61.0,88.0
633,157.54785124375002,157.67999396875,57.0,84.0
634,156.26213824375,157.81213669375,45.0,86.0
635,157.54785124375002,157.87642234375,52.0,81.0
636,157.11928024375,157.88177948125,49.0,82.0
637,157.97642224375,158.23535055625,57.0,83.0
638,157.97642224375,158.23713626875,64.0,88.0
639,157.97642224375,158.26213624375,61.0,88.0
640,158.40499324375,158.49070744375,57.0,84.0
641,158.61927874375002,158.73356434375,61.0,87.0
642,158.61927874375002,158.73535005625,57.0,84.0
643,158.61927874375002,158.74249290625,69.0,80.0
644,158.19070774375,158.91749273125,52.0,78.0
645,158.83356424375,159.03356404375,61.0,96.0
646,158.83356424375,159.04070689375,57.0,91.0
647,158.83356424375,159.08177828125,69.0,83.0
648,159.04784974375002,159.26749238125,52.0,81.0
649,157.97642224375,159.27106380625,45.0,86.0
650,159.26213524375,159.48356359375,67.0,77.0
651,159.26213524375,159.64249200625,57.0,83.0
652,159.69070624375001,159.99606308125,57.0,78.0
653,159.69070624375001,160.15677720625,65.0,78.0
654,160.11927724375,160.65141956875001,45.0,70.0
655,160.54784824375,160.71034808125,57.0,83.0
656,159.69070624375001,160.72999091875002,38.0,87.0
657,160.54784824375,160.78177658125,62.0,83.0
658,160.54784824375,160.81927654375,65.0,85.0
659,160.97641924375,161.24963325625,57.0,86.0
660,161.19070474375002,161.32284746875,62.0,79.0
661,161.40499024375,161.63713286875,57.0,82.0
662,161.40499024375,161.83356124375,50.0,86.0
663,161.40499024375,161.86391835625,62.0,82.0
664,161.40499024375,161.91034688125,65.0,80.0
665,161.83356124375,162.05320388125,57.0,78.0
666,161.83356124375,162.26198605000002,50.0,100.0
667,162.26198605000002,162.41679004375,57.0,83.0
668,162.26198605000002,162.49508171875001,62.0,88.0
669,162.26198605000002,162.55557983125001,65.0,83.0
670,162.4755088,162.59116695625,50.0,82.0
671,162.68903155,163.04490280000002,57.0,83.0
672,162.90255430000002,163.13920868125,62.0,77.0
673,163.54312255,164.091164275,53.0,78.0
674,163.11607705,164.1836908,46.0,85.0
675,163.97016805,164.31358380625,65.0,82.0
676,163.97016805,164.3651851375,58.0,83.0
677,164.39721355,164.6107363,46.0,100.0
678,164.39721355,164.639206,53.0,66.0
679,164.6107363,164.95771076875002,58.0,75.0
680,164.6107363,165.16767480625,62.0,79.0
681,165.25130455000001,165.52888412500002,58.0,84.0
682,165.4648273,165.56447125,62.0,81.0
683,165.0377818,165.756641725,53.0,80.0
684,164.82425905,165.80112563125002,46.0,84.0
685,165.67835005,166.01286902500001,58.0,84.0
686,165.67835005,166.0591322875,62.0,86.0
687,165.67835005,166.07336713750001,65.0,83.0
688,166.10539555,166.2157156375,46.0,93.0
689,166.53244105000002,166.67478955,55.0,77.0
690,166.53244105000002,166.97372140000002,64.0,82.0
691,166.7459638,167.00752916875,55.0,77.0
692,166.95948655,167.18546479375001,60.0,78.0
693,167.17300930000002,167.41500175000002,55.0,82.0
694,167.38653205,167.6605529125,62.0,83.0
695,167.6000548,167.84738531875,55.0,81.0
696,167.81357755000002,168.0591287125,60.0,83.0
697,166.53244105000002,168.11606811250002,48.0,84.0
698,168.0271003,168.33137021875,55.0,87.0
699,168.24062305,168.4932916375,60.0,84.0
700,168.24062305,168.55734846250002,64.0,85.0
701,168.4541458,168.71749052500002,55.0,85.0
702,168.66766855,168.88652936875002,60.0,78.0
703,168.8811913,168.96126233125,55.0,73.0
704,169.09471405,169.24595933125,55.0,89.0
705,168.24062305,169.2833258125,48.0,88.0
706,169.09471405,169.40788075,64.0,87.0
707,169.3082368,169.5537879625,55.0,79.0
708,169.52175955,169.7886629875,60.0,78.0
709,169.94880505,172.51107805,57.0,75.0
710,169.94880505,172.55200324375,62.0,78.0
711,170.37585055,172.6356329875,45.0,59.0
712,170.80289605000002,172.72460080000002,50.0,72.0
713,172.93812355,173.33847870625002,57.0,66.0
714,169.94880505,173.34203741875,38.0,85.0
715,173.36516905000002,173.6356312,57.0,74.0
716,173.36516905000002,173.94701854375,62.0,77.0
717,173.79221455,174.29577236875,57.0,79.0
718,174.21926005,174.3722846875,62.0,80.0
719,174.21926005,174.3936369625,65.0,82.0
720,175.07335105,175.578688225,62.0,71.0
721,175.50039655,175.74416835625001,57.0,62.0
722,175.92744205,176.1089363875,57.0,83.0
723,175.92744205,176.26907845,65.0,82.0
724,173.36516905000002,176.304665575,50.0,82.0
725,175.92744205,176.33491463125,62.0,84.0
726,176.35448755000002,176.46658699375,57.0,76.0
727,176.78153305,177.32067799375,57.0,71.0
728,176.78153305,177.47370263125,53.0,70.0
729,177.63562405000002,177.8313532375,57.0,72.0
730,177.63562405000002,177.842029375,60.0,76.0
731,178.06266955,178.5929177125,53.0,78.0
732,177.20857855,178.7032378,48.0,64.0
733,178.48971505,179.2263685375,60.0,80.0
734,178.91676055,179.464802275,48.0,74.0
735,179.1302833,179.54487330625,53.0,81.0
736,179.34380605,179.7388231375,57.0,84.0
737,176.78153305,179.84736386875,41.0,76.0
738,179.77085155,179.92209683125,48.0,79.0
739,180.19789705,180.4398895,57.0,75.0
740,180.19789705,181.073340325,62.0,81.0
741,180.62494255000001,181.116044875,57.0,71.0
742,181.47903355,181.7601718375,57.0,69.0
743,180.19789705,181.76906861875,50.0,83.0
744,181.05198805,181.76906861875,65.0,82.0
745,181.90607905000002,182.33312455,64.0,76.0
746,181.90607905000002,182.42031300625,57.0,71.0
747,181.90607905000002,182.60714541250002,60.0,75.0
748,182.54664730000002,182.81888880625002,57.0,77.0
749,182.33312455,182.88294563125,52.0,79.0
750,182.76017005,183.20678846875,64.0,89.0
751,181.90607905000002,183.2975356375,45.0,80.0
752,182.9736928,183.37048924375,52.0,73.0
753,183.18721555000002,183.4541189875,60.0,82.0
754,184.04130655,184.48219320625,57.0,70.0
755,183.61426105,184.57326454374999,62.0,78.0
756,183.61426105,185.13040684375,50.0,79.0
757,184.46969321875,185.33933520625,65.0,80.0
758,184.89826421875,185.47326364375,57.0,69.0
759,185.32683521875,186.10183444375,62.0,74.0
760,185.96969171875,186.23040574375,57.0,78.0
761,185.32683521875,186.56433398125,50.0,76.0
762,186.39826271875,186.59111966875,57.0,81.0
763,186.18397721875,186.61254821875,65.0,84.0
764,186.82683371875,187.06611919375,57.0,73.0
765,186.61254821875,187.10719058125,64.0,84.0
766,187.04111921875,187.65183289375,62.0,69.0
767,187.46969021875,188.03397536875,53.0,69.0
768,187.89826121875,188.45183209375,62.0,80.0
769,187.89826121875,188.46433208125,58.0,77.0
770,188.32683221875,188.96433158125,53.0,68.0
771,187.04111921875,189.08754574375,46.0,80.0
772,188.75540321875,189.44825966875,58.0,76.0
773,189.61254521875,189.88218780625,58.0,87.0
774,189.39825971875,189.90004493125,53.0,83.0
775,189.18397421875,189.91075920625,46.0,77.0
776,189.82683071875,190.10718758125,62.0,82.0
777,190.04111621875,190.22683031875,58.0,89.0
778,190.46968721875,190.72147268125,55.0,78.0
779,190.46968721875,190.96075815625,60.0,78.0
780,190.89825821875,191.35182919375,55.0,77.0
781,191.32682921875,191.46968621875,60.0,77.0
782,191.32682921875,191.58040039375,64.0,82.0
783,190.46968721875,191.94647145625,48.0,77.0
784,192.18397121875,192.44111381875,55.0,69.0
785,192.18397121875,192.69468499375,60.0,73.0
786,192.61254221875,192.84468484375,55.0,66.0
787,193.04111321875,193.24111301875,55.0,84.0
788,192.18397121875,193.26075585625,48.0,79.0
789,193.04111321875,193.29647010625,60.0,84.0
790,193.04111321875,193.43218425625,64.0,85.0
791,193.89825521875,194.10361215625,57.0,76.0
792,193.89825521875,194.37146903125,62.0,78.0
793,194.32682621875,194.56611169375,57.0,71.0
794,194.75539721875,194.96253986875,62.0,83.0
795,194.75539721875,195.18575393125,65.0,81.0
796,193.89825521875,195.22682531875,50.0,77.0
797,195.18396821875,195.41611084375,57.0,78.0
798,195.61253921875,195.83575328125,57.0,82.0
799,195.61253921875,196.08736712500001,62.0,83.0
800,196.04110386250002,196.130071675,57.0,85.0
801,195.61253921875,196.43790030625001,50.0,84.0
802,196.2546266125,196.44323837500002,57.0,85.0
803,196.46814936250001,196.68167211250002,50.0,85.0
804,196.46814936250001,196.73683215625002,62.0,85.0
805,196.46814936250001,196.80800640625,65.0,85.0
806,196.68167211250002,196.8951948625,38.0,85.0
807,196.68167211250002,196.91120906875,57.0,85.0
808,196.8951948625,197.04644014375,62.0,85.0
809,196.8951948625,197.10871761250002,50.0,85.0
810,197.10871761250002,197.240389975,57.0,85.0
811,197.10871761250002,197.32224036250003,48.0,85.0
812,197.32224036250003,197.8133426875,58.0,89.0
813,197.74928586250002,198.21369784375,53.0,84.0
814,197.32224036250003,198.49127741875,46.0,89.0
815,198.1763313625,198.50729162500002,62.0,82.0
816,198.1763313625,198.6176117125,58.0,82.0
817,198.6033768625,198.84003124375002,53.0,81.0
818,198.8168996125,198.95213068750002,58.0,80.0
819,198.8168996125,199.03042236250002,46.0,81.0
820,199.03042236250002,199.51974533125002,60.0,79.0
821,199.4574678625,199.845367525,55.0,82.0
822,199.03042236250002,199.987716025,48.0,79.0
823,199.8845133625,200.18166585625002,64.0,83.0
824,199.8845133625,200.26885431250003,60.0,82.0
825,200.31155886250002,200.40230603125002,55.0,77.0
826,200.7386043625,201.30621900625002,60.0,68.0
827,200.7386043625,201.3862900375,53.0,72.0
828,201.1656498625,201.69767738125,48.0,83.0
829,201.59269536250002,201.81689425000002,53.0,82.0
830,201.59269536250002,202.01974086250002,60.0,83.0
831,200.7386043625,202.09625318125,41.0,82.0
832,202.01974086250002,202.16031000625,48.0,80.0
833,201.59269536250002,202.1834416375,57.0,82.0
834,202.23326361250002,202.4467863625,41.0,81.0
835,202.4467863625,202.6674265375,57.0,79.0
836,202.4467863625,202.87916993125,62.0,79.0
837,202.87383186250003,203.1656462875,57.0,78.0
838,203.0873546125,203.29731865000002,62.0,77.0
839,202.4467863625,203.37738968125,50.0,79.0
840,203.30087736250002,203.68699766875002,65.0,76.0
841,203.5144001125,203.73326093125002,57.0,76.0
842,203.7279228625,203.87916814375,62.0,76.0
843,203.7279228625,203.94144561250002,50.0,76.0
844,203.94144561250002,204.1549683625,48.0,77.0
845,204.1549683625,204.656746825,58.0,79.0
846,204.1549683625,204.8951805625,62.0,79.0
847,204.58201386250002,205.24571374375,53.0,80.0
848,205.0090593625,205.297315075,58.0,80.0
849,204.1549683625,205.3079912125,46.0,77.0
850,205.0090593625,205.4361048625,65.0,80.0
851,205.4361048625,205.7136844375,62.0,80.0
852,205.4361048625,205.738595425,58.0,80.0
853,205.6496276125,205.86315036250002,46.0,81.0
854,205.86315036250002,206.0766731125,55.0,82.0
855,205.86315036250002,206.37026689375,60.0,82.0
856,206.2901958625,206.59090706875,55.0,82.0
857,206.7172413625,206.93610218125002,55.0,82.0
858,205.86315036250002,206.9805860875,48.0,82.0
859,206.7172413625,207.21368175625003,60.0,82.0
860,207.14428686250002,207.31478333750002,55.0,79.0
861,206.7172413625,207.38038611041668,64.0,82.0
862,207.5701022375,208.02222945625002,57.0,79.0
863,207.5701022375,208.2154916791667,60.0,79.0
864,208.2083994875,208.48676801041668,57.0,79.0
865,208.42116523750002,208.70485290416667,65.0,79.0
866,208.6339309875,208.9335760854167,60.0,79.0
867,207.99563373750001,208.96549094791666,48.0,79.0
868,207.5701022375,209.0594624875,41.0,79.0
869,209.0594624875,209.2722282375,41.0,79.0
870,208.8466967375,209.2740012854167,57.0,79.0
871,209.0594624875,209.72612850416667,60.0,79.0
872,209.6977597375,209.9761282604167,57.0,79.0
873,209.91052548750002,210.02222750625,60.0,79.0
874,209.48499398750002,210.22612801666668,48.0,79.0
875,210.1232912375,210.4956313,57.0,79.0
876,210.1232912375,210.50449653958336,60.0,79.0
877,210.1232912375,210.58251064791668,65.0,79.0
878,209.2722282375,210.58782979166668,41.0,79.0
879,210.54882273750002,210.80236858958335,48.0,79.0
880,210.97435423750002,211.37151697083334,62.0,79.0
881,210.97435423750002,211.40343183333334,55.0,79.0
882,211.3998857375,211.94598449583333,50.0,79.0
883,211.8254172375,212.25272178541667,55.0,79.0
884,211.8254172375,212.33605503750002,58.0,79.0
885,210.97435423750002,212.4637144875,43.0,79.0
886,212.2509487375,212.56655126666666,50.0,79.0
887,212.4637144875,212.67648023750002,43.0,79.0
888,212.4637144875,212.72612557916668,55.0,79.0
889,212.4637144875,213.08250821041668,58.0,79.0
890,213.10201173750002,213.39456464375002,55.0,79.0
891,213.3147774875,213.45662132083334,58.0,79.0
892,212.8892459875,213.68002535833335,50.0,79.0
893,213.5275432375,213.89811025208334,55.0,79.0
894,213.5275432375,213.9708052166667,62.0,79.0
895,212.67648023750002,214.00981227083335,43.0,79.0
896,213.9530747375,214.08959942708336,50.0,79.0
897,214.3786062375,214.80591078541667,57.0,79.0
898,214.3786062375,214.88215184583333,61.0,79.0
899,215.0169034875,215.12683245833335,57.0,79.0
900,214.8041377375,215.33427906458334,52.0,79.0
901,215.22966923750002,215.47434985,61.0,79.0
902,215.4424349875,215.69066169583334,57.0,79.0
903,214.3786062375,215.76690275625,45.0,79.0
904,215.65520073750002,215.88392391875,52.0,79.0
905,215.8679664875,215.99917203333334,57.0,79.0
906,215.8679664875,216.0807322375,45.0,79.0
907,216.0807322375,216.31654761041668,62.0,79.0
908,216.29349798750002,216.54349774375,57.0,79.0
909,216.5062637375,216.69775291250002,62.0,79.0
910,216.71902948750002,216.92292999791667,57.0,79.0
911,216.0807322375,217.05768163958334,50.0,79.0
912,216.9317952375,217.29527006041667,65.0,79.0
913,217.1445609875,217.32009273125,57.0,79.0
914,217.35732673750002,217.5700924875,50.0,79.0
915,217.35732673750002,217.5771846791667,64.0,79.0
916,217.5700924875,217.78285823750002,48.0,79.0
917,217.5700924875,217.78463128541668,57.0,79.0
918,217.78285823750002,218.30058822916666,62.0,79.0
919,218.2083897375,218.86973661041668,53.0,79.0
920,218.6339212375,219.05058749791667,58.0,78.0
921,217.78285823750002,219.22434619375002,46.0,79.0
922,218.6339212375,219.35555173958335,62.0,79.0
923,219.0594527375,219.38214745833335,53.0,77.0
924,219.2722184875,219.48498423750002,46.0,78.0
925,219.2722184875,219.7190265625,58.0,78.0
926,219.91051573750002,220.24562179375002,58.0,75.0
927,220.3360472375,220.58250089791667,58.0,74.0
928,220.3360472375,220.59668528125002,62.0,74.0
929,220.3360472375,220.59668528125002,65.0,74.0
930,219.6977499875,220.63746538333334,53.0,75.0
931,219.6977499875,220.78817445625,46.0,75.0
932,220.7615787375,220.91938000208336,58.0,74.0
933,221.1871102375,221.6126417375,45.0,74.0
934,221.1871102375,221.66406012708333,57.0,74.0
935,221.1871102375,221.72788985208334,61.0,74.0
936,221.6126417375,222.03817323750002,45.0,75.0
937,221.6126417375,222.16937878333334,52.0,76.0
938,222.03817323750002,222.39987501250002,64.0,78.0
939,222.03817323750002,222.40874025208333,61.0,78.0
940,222.03817323750002,222.41583244375002,57.0,78.0
941,222.03817323750002,222.4637047375,45.0,76.0
942,222.4637047375,222.70306620625,52.0,79.0
943,222.4637047375,222.8892362375,45.0,78.0
944,222.6764704875,222.95129291458335,61.0,79.0
945,222.6764704875,222.95129291458335,64.0,79.0
946,222.6764704875,222.96193120208335,57.0,79.0
947,222.8892362375,223.10200198750002,45.0,79.0
948,223.10200198750002,223.25980325208334,57.0,79.0
949,223.10200198750002,223.3147677375,45.0,79.0
950,223.10200198750002,223.37150527083335,64.0,79.0
951,223.10200198750002,223.39810098958336,61.0,79.0
952,223.52753348750002,223.80590201041667,55.0,79.0
953,223.3147677375,223.92646926875,52.0,79.0
954,223.7402992375,224.16583073750002,45.0,79.0
955,223.9530649875,224.24384484583334,52.0,79.0
956,223.7402992375,224.3431355291667,61.0,79.0
957,224.16583073750002,224.3785964875,45.0,79.0
958,224.16583073750002,224.48675241041667,57.0,79.0
959,224.3785964875,224.59136223750002,48.0,79.0
960,224.59136223750002,224.87327685625002,57.0,79.0
961,224.59136223750002,225.16051061875,62.0,79.0
962,225.0168937375,225.50448191458335,57.0,79.0
963,225.4424252375,225.66937537083334,62.0,79.0
964,224.59136223750002,225.75625471875,50.0,79.0
965,225.4424252375,225.8005809166667,65.0,79.0
966,225.65519098750002,226.05058067291668,57.0,80.0
967,225.8679567375,226.13746002083334,62.0,80.0
968,226.0807224875,226.67823963541667,65.0,69.0
969,226.71901973750002,226.98143082916667,57.0,72.0
970,226.9317854875,227.04880665000002,60.0,77.0
971,226.5062539875,227.30057945416667,52.0,76.0
972,226.29348823750001,227.44596938333333,45.0,83.0
973,227.14455123750002,227.47788424583334,60.0,82.0
974,227.14455123750002,227.48320338958334,57.0,77.0
975,227.14455123750002,227.5062530125,64.0,83.0
976,227.5700827375,227.74738752916667,52.0,82.0
977,227.9956142375,228.23142961041668,58.0,71.0
978,227.9956142375,228.47256412708333,46.0,82.0
979,228.4211457375,228.54348604375002,58.0,80.0
980,227.9956142375,228.56653566666668,62.0,77.0
981,228.84667723750002,229.0488047,55.0,82.0
982,228.84667723750002,229.30589664791668,60.0,82.0
983,228.84667723750002,229.31298883958334,48.0,81.0
984,229.27220873750002,229.37149942083335,55.0,77.0
985,229.6977402375,230.09667601875,57.0,72.0
986,229.6977402375,230.33071834375002,60.0,76.0
987,230.33603748750002,230.46724303333335,57.0,72.0
988,230.5488032375,230.63390953750002,57.0,78.0
989,230.5488032375,230.77043422708334,60.0,84.0
990,230.1232717375,230.84490223958335,48.0,68.0
991,230.5488032375,230.9105050125,65.0,82.0
992,230.7615689875,230.91405110833335,57.0,78.0
993,229.6977402375,230.91759720416667,41.0,81.0
994,230.97433473750002,231.31653298541667,64.0,85.0
995,231.1871004875,231.40163928541668,57.0,75.0
996,231.39986623750002,231.81830554583334,62.0,79.0
997,231.8253977375,232.08146732916668,57.0,77.0
998,232.2522855291667,232.44801471666668,57.0,78.0
999,231.39986623750002,232.6757723166667,50.0,83.0
1000,232.2522855291667,232.6882278104167,65.0,77.0
1001,232.2522855291667,232.7487259229167,62.0,81.0
1002,232.6793310291667,232.97292481041669,57.0,77.0
1003,233.10637652916668,233.64730082916668,64.0,82.0
1004,233.10637652916668,233.69534344791668,60.0,77.0
1005,233.74694477916668,233.8732790729167,57.0,74.0
1006,233.5334220291667,234.03164177916668,52.0,77.0
1007,233.9604675291667,234.1597554291667,57.0,82.0
1008,233.10637652916668,234.29498650416667,45.0,83.0
1009,234.17399027916667,234.39107174166668,52.0,82.0
1010,233.9604675291667,234.39107174166668,64.0,83.0
1011,234.38751302916668,234.53875831041668,57.0,82.0
1012,234.81455852916667,235.2273691791667,58.0,78.0
1013,234.81455852916667,235.33413055416668,62.0,83.0
1014,235.45512677916668,235.56010879791668,58.0,71.0
1015,235.2416040291667,235.76651412291667,53.0,67.0
1016,234.81455852916667,235.8732754979167,46.0,91.0
1017,235.6686495291667,235.9978304354167,58.0,81.0
1018,235.6686495291667,236.06544597291668,62.0,82.0
1019,235.6686495291667,236.0725633979167,65.0,81.0
1020,236.09569502916668,236.22914674791667,53.0,78.0
1021,236.5227405291667,236.72380778541668,55.0,78.0
1022,236.5227405291667,237.1117074479167,60.0,79.0
1023,237.1633087791667,237.2700701541667,55.0,85.0
1024,236.5227405291667,237.50316582291669,48.0,82.0
1025,237.37683152916668,237.50316582291669,55.0,89.0
1026,237.37683152916668,237.5992510604167,60.0,93.0
1027,237.37683152916668,237.66152852916667,64.0,91.0
1028,237.5903542791667,237.72202664166667,48.0,84.0
1029,237.8038770291667,238.0316346291667,55.0,86.0
1030,238.2309225291667,238.44978334791668,57.0,78.0
1031,238.2309225291667,238.7860816791667,62.0,76.0
1032,238.65796802916668,238.84302107916668,57.0,71.0
1033,239.0850135291667,239.23270009791668,57.0,81.0
1034,238.2309225291667,239.25405237291668,50.0,84.0
1035,239.0850135291667,239.39818022916668,62.0,83.0
1036,239.0850135291667,239.4035182979167,65.0,78.0
1037,239.29853627916668,239.4266499291667,50.0,83.0
1038,239.5120590291667,239.71668499791667,57.0,83.0
1039,239.72558177916667,239.8981793354167,62.0,81.0
1040,239.93910452916668,240.38394359166668,57.0,83.0
1041,239.93910452916668,240.4124132916667,60.0,85.0
1042,240.36615002916668,240.9052949729167,52.0,76.0
1043,239.93910452916668,241.03696733541668,45.0,84.0
1044,240.7931955291667,241.08500995416668,57.0,83.0
1045,240.7931955291667,241.13661128541668,60.0,88.0
1046,240.7931955291667,241.1828745479167,64.0,87.0
1047,241.2202410291667,241.34123725416669,52.0,78.0
1048,241.64728652916668,242.0227306979167,58.0,77.0
1049,241.64728652916668,242.1437269229167,46.0,83.0
1050,242.0743320291667,242.2326947354167,53.0,73.0
1051,241.64728652916668,242.3198831916667,62.0,80.0
1052,242.28785477916668,242.3732638791667,58.0,82.0
1053,242.5013775291667,242.7237970604167,55.0,83.0
1054,242.5013775291667,242.96756886666668,60.0,84.0
1055,242.5013775291667,243.00671470416668,48.0,87.0
1056,242.92842302916668,243.0440811854167,55.0,84.0
1057,243.3554685291667,243.7398094791667,57.0,77.0
1058,243.3554685291667,244.03518261666667,60.0,82.0
1059,243.99603677916667,244.14372334791668,57.0,80.0
1060,244.20955952916668,244.42130292291668,60.0,87.0
1061,243.7825140291667,244.4319790604167,48.0,76.0
1062,244.20955952916668,244.4978152416667,65.0,84.0
1063,243.3554685291667,244.5191675166667,41.0,82.0
1064,244.4230822791667,244.59390047916668,57.0,82.0
1065,244.63660502916667,244.96222722291668,64.0,89.0
1066,244.85012777916668,245.0031524166667,57.0,73.0
1067,245.0636505291667,245.29496684166668,57.0,78.0
1068,245.0636505291667,245.56228343541667,62.0,80.0
1069,245.49085493541668,245.71228328541667,57.0,78.0
1070,245.91942593541668,246.07656863541666,57.0,82.0
1071,245.91942593541668,246.3033541229167,62.0,84.0
1072,245.91942593541668,246.41049687291667,65.0,82.0
1073,245.0636505291667,246.43371113541667,50.0,83.0
1074,246.3479969354167,246.62656808541666,57.0,83.0
1075,246.77656793541667,247.23013891041668,60.0,77.0
1076,246.77656793541667,247.24442461041667,64.0,83.0
1077,247.20513893541667,247.48371008541667,57.0,72.0
1078,247.4194244354167,247.5140671979167,60.0,73.0
1079,246.99085343541668,247.7640669479167,52.0,76.0
1080,247.63370993541668,247.8587097104167,57.0,82.0
1081,246.77656793541667,247.99799528541666,45.0,80.0
1082,247.84799543541666,248.01228098541668,52.0,75.0
1083,247.63370993541668,248.04442381041667,64.0,86.0
1084,247.63370993541668,248.05513808541667,60.0,87.0
1085,248.06228093541668,248.18906652291668,57.0,82.0
1086,248.49085193541669,249.11227988541668,58.0,76.0
1087,248.49085193541669,249.2316556604167,62.0,77.0
1088,248.9194229354167,249.44161969791668,53.0,76.0
1089,248.49085193541669,249.5430430041667,46.0,84.0
1090,249.34731381666668,249.55016042916668,58.0,82.0
1091,249.34731381666668,249.68717086041667,62.0,84.0
1092,249.5608365666667,249.70140571041668,53.0,79.0
1093,249.34731381666668,249.80104966041668,65.0,83.0
1094,249.77435931666668,250.02168983541668,58.0,85.0
1095,249.98788206666669,250.1266718541667,62.0,76.0
1096,250.2014048166667,250.45941147291668,55.0,79.0
1097,250.2014048166667,250.7120800604167,60.0,82.0
1098,250.6284503166667,250.8579872729167,55.0,82.0
1099,250.2014048166667,251.5377013604167,48.0,91.0
1100,251.05549581666668,251.69606406666668,64.0,82.0
1101,251.4825413166667,251.7707970291667,55.0,70.0
1102,251.9095868166667,252.19250446041667,57.0,79.0
1103,251.9095868166667,252.4807601729167,62.0,79.0
1104,252.33663231666668,252.82595528541668,57.0,79.0
1105,252.76367781666667,252.9914354166667,62.0,79.0
1106,251.9095868166667,253.0786238729167,50.0,79.0
1107,252.76367781666667,253.12310777916667,65.0,79.0
1108,252.97720056666668,253.37399701041667,57.0,80.0
1109,253.1907233166667,253.46118546666668,62.0,80.0
1110,253.40424606666667,254.0038891229167,65.0,69.0
1111,254.04481431666667,254.30815904166667,57.0,72.0
1112,254.25833706666668,254.3757745791667,60.0,77.0
1113,253.8312915666667,254.62844316666667,52.0,76.0
1114,253.61776881666668,254.7743503791667,45.0,83.0
1115,254.4718598166667,254.80637879166667,60.0,82.0
1116,254.4718598166667,254.81171686041668,57.0,77.0
1117,254.4718598166667,254.8348484916667,64.0,83.0
1118,254.89890531666668,255.0768409416667,52.0,82.0
1119,255.32595081666668,255.5626051979167,58.0,71.0
1120,255.32595081666668,255.8045976479167,46.0,82.0
1121,255.7529963166667,255.87577189791668,58.0,80.0
1122,255.32595081666668,255.8989035291667,62.0,77.0
1123,256.1800418166667,256.3828884291667,55.0,82.0
1124,256.1800418166667,256.6408950854167,60.0,82.0
1125,256.1800418166667,256.64801251041666,48.0,81.0
1126,256.6070873166667,256.7067312666667,55.0,77.0
1127,257.03507989791666,257.43686521041667,57.0,72.0
1128,257.03507989791666,257.6725792604167,60.0,76.0
1129,257.67793639791665,257.81007912291665,57.0,72.0
1130,257.89222189791667,257.97793609791665,57.0,78.0
1131,257.89222189791667,258.1154359604167,60.0,84.0
1132,257.46365089791664,258.19043588541666,48.0,68.0
1133,257.89222189791667,258.25650724791666,65.0,82.0
1134,258.1065073979167,258.2600786729167,57.0,78.0
1135,257.03507989791666,258.26365009791664,41.0,81.0
1136,258.32079289791665,258.66543541041665,64.0,85.0
1137,258.53507839791666,258.7511496104167,57.0,75.0
1138,258.7493638979167,259.1707920479167,62.0,79.0
1139,259.17793489791666,259.43507749791667,57.0,77.0
1140,259.6065058979167,259.8029342729167,57.0,78.0
1141,258.7493638979167,260.03150547291665,50.0,83.0
1142,259.6065058979167,260.04400546041666,65.0,77.0
1143,259.6065058979167,260.1047196854167,62.0,81.0
1144,260.03507689791667,260.32971946041664,57.0,77.0
1145,260.46364789791664,261.00650449791664,64.0,82.0
1146,260.46364789791664,261.05471873541666,60.0,77.0
1147,261.10650439791664,261.23328998541666,57.0,74.0
1148,260.8922188979167,261.3922183979167,52.0,77.0
1149,261.32078989791665,261.52078969791665,57.0,82.0
1150,260.46364789791664,261.65650384791667,45.0,83.0
1151,261.53507539791667,261.75293232291665,52.0,82.0
1152,261.32078989791665,261.75293232291665,64.0,83.0
1153,261.7493608979167,261.90114646041667,57.0,82.0
1154,262.17793189791666,262.5922171979167,58.0,78.0
1155,262.17793189791666,262.69935994791666,62.0,83.0
1156,262.82078839791666,262.9261454354167,58.0,71.0
1157,262.60650289791664,263.13328808541667,53.0,67.0
1158,262.17793189791666,263.24043083541665,46.0,91.0
1159,263.0350738979167,263.36543071041666,58.0,81.0
1160,263.0350738979167,263.43328778541667,62.0,82.0
1161,263.0350738979167,263.44043063541665,65.0,81.0
1162,263.46364489791665,263.59757333541666,53.0,78.0
1163,263.8922158979167,264.09400141041664,55.0,78.0
1164,263.8922158979167,264.48328673541664,60.0,79.0
1165,264.5350723979167,264.64221514791666,55.0,85.0
1166,263.8922158979167,264.87614348541666,48.0,82.0
1167,264.74935789791664,264.87614348541666,55.0,89.0
1168,264.74935789791664,264.97257196041664,60.0,93.0
1169,264.74935789791664,265.0350718979167,64.0,91.0
1170,264.96364339791666,265.09578612291665,48.0,84.0
1171,265.1779288979167,265.40650009791665,55.0,86.0
1172,265.60649989791665,265.82614253541664,57.0,78.0
1173,265.60649989791665,266.16364219791666,62.0,76.0
1174,266.0350708979167,266.22078499791667,57.0,71.0
1175,266.46364189791666,266.6118560354167,57.0,81.0
1176,265.60649989791665,266.6332845854167,50.0,84.0
1177,266.46364189791666,266.7779272979167,62.0,83.0
1178,266.46364189791666,266.78328443541665,65.0,78.0
1179,266.6779273979167,266.80649869791665,50.0,83.0
1180,266.8922128979167,267.09756983541666,57.0,83.0
1181,267.10649839791665,267.2797125104167,62.0,81.0
1182,267.32078389791667,267.7672120229167,57.0,83.0
1183,267.32078389791667,267.79578342291666,60.0,85.0
1184,267.74935489791665,268.2904257854167,52.0,76.0
1185,267.32078389791667,268.4225685104167,45.0,84.0
1186,268.1779258979167,268.47078274791664,57.0,83.0
1187,268.1779258979167,268.5225684104167,60.0,88.0
1188,268.1779258979167,268.56899693541664,64.0,87.0
1189,268.60649689791666,268.72792534791665,52.0,78.0
1190,269.0350678979167,269.4118532354167,58.0,77.0
1191,269.0350678979167,269.5332816854167,46.0,83.0
1192,269.46363889791667,269.6225673104167,53.0,73.0
1193,269.0350678979167,269.7100672229167,62.0,80.0
1194,269.6779243979167,269.76363859791667,58.0,82.0
1195,269.89220989791664,270.11542396041665,55.0,83.0
1196,269.89220989791664,270.36006657291665,60.0,84.0
1197,269.89220989791664,270.3993522479167,48.0,87.0
1198,270.3207808979167,270.43685221041665,55.0,84.0
1199,270.74935189791665,271.13506579791664,57.0,77.0
1200,270.74935189791665,271.4314940729167,60.0,82.0
1201,271.39220839791665,271.54042253541667,57.0,80.0
1202,271.60649389791666,271.8189936854167,60.0,87.0
1203,271.1779228979167,271.82970796041667,48.0,76.0
1204,271.60649389791666,271.89577932291667,65.0,84.0
1205,270.74935189791665,271.91720787291666,41.0,82.0
1206,271.8207793979167,271.99220779791665,57.0,82.0
1207,272.03506489791664,272.36185028541666,64.0,89.0
1208,272.24935039791666,272.40292167291665,57.0,73.0
1209,272.4636358979167,272.69577852291667,57.0,78.0
1210,272.4636358979167,272.9636353979167,62.0,80.0
1211,272.89220689791665,273.11363524791665,57.0,78.0
1212,273.3207778979167,273.47792059791664,57.0,82.0
1213,273.3207778979167,273.70470608541666,62.0,84.0
1214,273.3207778979167,273.81184883541664,65.0,82.0
1215,272.4636358979167,273.83506309791665,50.0,83.0
1216,273.74934889791666,274.02792004791667,57.0,83.0
1217,274.17791989791664,274.6314908729167,60.0,77.0
1218,274.17791989791664,274.64577657291665,64.0,83.0
1219,274.6064908979167,274.8850620479167,57.0,72.0
1220,274.8207763979167,274.91541916041666,60.0,73.0
1221,274.39220539791665,275.1654189104167,52.0,76.0
1222,275.03506189791665,275.26006167291666,57.0,82.0
1223,274.17791989791664,275.3993472479167,45.0,80.0
1224,275.24934739791667,275.41363294791665,52.0,75.0
1225,275.03506189791665,275.44577577291665,64.0,86.0
1226,275.03506189791665,275.45649004791665,60.0,87.0
1227,275.4636328979167,275.59041848541665,57.0,82.0
1228,275.89220389791666,276.51363184791666,58.0,76.0
1229,275.89220389791666,276.63327458541664,62.0,77.0
1230,276.32077489791664,276.84398866041664,53.0,76.0
1231,275.89220389791666,276.94577427291665,46.0,84.0
1232,276.74934589791667,276.9529171229167,58.0,82.0
1233,276.74934589791667,277.09041698541665,62.0,84.0
1234,276.9636313979167,277.10470268541667,53.0,79.0
1235,276.74934589791667,277.20470258541667,65.0,83.0
1236,277.17791689791665,277.42613093541667,58.0,85.0
1237,277.39220239791666,277.5314879729167,62.0,76.0
1238,277.6064878979167,277.86541621041664,55.0,79.0
1239,277.6064878979167,278.1189873854167,60.0,82.0
1240,278.03505889791666,278.26541581041664,55.0,82.0
1241,277.6064878979167,278.94755798541667,48.0,91.0
1242,278.89220089791667,279.18148632291667,55.0,70.0
1243,278.4636298979167,279.37970041041666,64.0,82.0
1244,279.32077189791664,280.51362784791667,48.0,74.0
1245,279.32077189791664,280.77969901041666,60.0,73.0
1246,281.03505589791666,281.9029121729167,65.0,79.0
1247,281.46362689791664,281.95291212291664,57.0,66.0
1248,281.8921978979167,282.3261260354167,62.0,78.0
1249,282.7493398979167,283.31005362291666,65.0,74.0
1250,283.17791089791666,283.37969641041667,57.0,69.0
1251,281.03505589791666,283.73505319791667,38.0,79.0
1252,283.60648189791664,283.98862437291666,62.0,78.0
1253,283.60648189791664,284.04576717291667,65.0,77.0
1254,284.03505289791667,284.1475527854167,57.0,82.0
1255,284.46362389791665,284.95112341041664,62.0,79.0
1256,284.46362389791665,284.95648054791667,58.0,69.0
1257,284.8921948979167,285.3029087729167,53.0,69.0
1258,285.32076589791666,285.53862282291664,58.0,68.0
1259,285.7493368979167,286.0904079854167,53.0,58.0
1260,286.17790789791667,286.33147917291666,62.0,71.0
1261,286.17790789791667,286.35469343541666,58.0,67.0
1262,284.46362389791665,287.40469238541664,46.0,81.0
1263,287.0350498979167,287.52790654791664,58.0,87.0
1264,287.0350498979167,287.5493350979167,62.0,80.0
1265,287.46362089791666,287.68683496041666,53.0,83.0
1266,287.8921918979167,288.15237164791665,55.0,76.0
1267,287.8921918979167,288.4931695645833,60.0,76.0
1268,288.3455319083333,288.90149086875,55.0,82.0
1269,288.8188296583333,289.1756841520833,60.0,74.0
1270,288.8188296583333,289.21399056666667,64.0,83.0
1271,287.8921918979167,289.4688061791666,48.0,83.0
1272,289.7900609833333,290.02339431666667,55.0,73.0
1273,289.7900609833333,290.3717198458333,60.0,71.0
1274,290.2927091083333,290.87387465,55.0,75.0
1275,289.7900609833333,290.98594353333334,48.0,78.0
1276,290.809219525,291.11525378333334,60.0,82.0
1277,290.809219525,291.2100813,64.0,85.0
1278,292.5139596541667,292.74240776249997,50.0,72.0
1279,292.69068366249996,292.94714899166667,52.0,82.0
1280,292.86309732916664,293.14542470833334,53.0,71.0
1281,293.05490753333333,293.2704246166667,57.0,61.0
1282,294.46007891666665,295.26826797916664,62.0,68.0
1283,294.3587858875,295.27904383333333,57.0,52.0
1284,292.27258052083334,295.30275071249997,45.0,66.0
1285,291.86740840416667,295.35231964166667,38.0,88.0
