,start,end,pitch,velocity
0,29.3378085,29.7415243125,69.0,107.0
1,29.743213500000003,29.944226812500002,69.0,104.0
2,29.945916000000004,30.1486185,69.0,93.0
3,30.1486185,30.554023500000003,72.0,104.0
4,30.554023500000003,30.9594285,69.0,102.0
5,30.9594285,31.7702385,67.0,100.0
6,31.7702385,32.1756435,65.0,98.0
7,32.1756435,32.5810485,67.0,108.0
8,32.5810485,32.9864535,65.0,113.0
9,32.9864535,35.8242885,62.0,113.0
10,35.8242885,36.228004312500005,69.0,114.0
11,36.2296935,36.63340931250001,69.0,113.0
12,36.635098500000005,37.0405035,69.0,114.0
13,37.0405035,37.4459085,72.0,108.0
14,37.4459085,37.8513135,74.0,116.0
15,37.8513135,38.66212350000001,77.0,113.0
16,38.66212350000001,39.11651493750001,74.0,114.0
17,39.0675285,39.4729335,72.0,108.0
18,39.4729335,42.3090793125,69.0,107.0
19,42.3107685,42.716173500000004,69.0,114.0
20,42.716173500000004,43.52698350000001,74.0,110.0
21,43.52698350000001,43.9323885,77.0,108.0
22,43.9323885,44.743198500000005,74.0,110.0
23,44.743198500000005,45.14860350000001,72.0,107.0
24,45.14860350000001,45.5540085,69.0,96.0
25,45.5540085,46.162116000000005,65.0,96.0
26,46.162116000000005,46.364818500000005,67.0,100.0
27,46.364818500000005,46.77022350000001,69.0,114.0
28,46.77022350000001,47.1739393125,67.0,100.0
29,47.1756285,48.795559312500004,67.0,107.0
30,48.7972485,49.405356000000005,67.0,107.0
31,49.405356000000005,49.608058500000006,69.0,104.0
32,49.608058500000006,50.01346350000001,72.0,107.0
33,50.01346350000001,50.4188685,69.0,107.0
34,50.4188685,50.822584312500005,67.0,108.0
35,50.824273500000004,51.050624625000005,67.0,96.0
36,51.026976000000005,51.229678500000006,69.0,92.0
37,51.229678500000006,51.653664562500005,65.0,100.0
38,51.63508350000001,51.861434625,67.0,87.0
39,51.837786,52.0404885,65.0,91.0
40,52.0404885,55.2837285,62.0,94.0
41,55.2837285,55.687444312500006,69.0,107.0
42,55.689133500000004,55.89014681250001,69.0,104.0
43,55.891836000000005,56.094538500000006,69.0,93.0
44,56.094538500000006,56.49994350000001,72.0,104.0
45,56.49994350000001,56.9053485,69.0,102.0
46,56.9053485,57.716158500000006,67.0,100.0
47,57.716158500000006,58.12156350000001,65.0,98.0
48,58.12156350000001,58.5269685,67.0,108.0
49,58.5269685,58.932373500000004,65.0,113.0
50,58.932373500000004,61.7702085,62.0,113.0
51,61.7702085,62.173924312500006,69.0,114.0
52,62.175613500000004,62.57932931250001,69.0,113.0
53,62.581018500000006,62.98642350000001,69.0,114.0
54,62.98642350000001,63.3918285,72.0,108.0
55,63.3918285,63.797233500000004,74.0,116.0
56,63.797233500000004,64.60804350000001,77.0,113.0
57,64.60804350000001,65.0624349375,74.0,114.0
58,65.01344850000001,65.41885350000001,72.0,108.0
59,65.41885350000001,68.2549993125,69.0,107.0
60,68.25668850000001,68.66209350000001,69.0,114.0
61,68.66209350000001,69.4729035,74.0,110.0
62,69.4729035,69.8783085,77.0,108.0
63,69.8783085,70.6891185,74.0,110.0
64,70.6891185,71.09452350000001,72.0,107.0
65,71.09452350000001,71.49992850000001,69.0,96.0
66,71.49992850000001,72.10803600000001,65.0,96.0
67,72.10803600000001,72.3107385,67.0,100.0
68,72.3107385,72.7161435,69.0,114.0
69,72.7161435,73.11985931250001,67.0,100.0
70,73.1215485,74.7414793125,67.0,107.0
71,74.74316850000001,75.35127600000001,67.0,107.0
72,75.35127600000001,75.55397850000001,69.0,104.0
73,75.55397850000001,75.9593835,72.0,107.0
74,75.9593835,76.3647885,69.0,107.0
75,76.3647885,76.76850431250001,67.0,108.0
76,76.7701935,76.99654462500001,67.0,96.0
77,76.972896,77.1755985,69.0,92.0
78,77.1755985,77.59958456250001,65.0,100.0
79,77.58100350000001,77.807354625,67.0,87.0
80,77.78370600000001,77.98640850000001,65.0,91.0
81,77.98640850000001,81.22964850000001,62.0,94.0
82,81.22964850000001,81.83606681250001,74.0,116.0
83,81.83775600000001,82.4458635,74.0,116.0
84,82.4458635,82.8512685,69.0,98.0
85,82.8512685,83.2566735,72.0,104.0
86,83.2566735,83.6620785,74.0,110.0
87,83.6620785,84.06748350000001,79.0,114.0
88,84.06748350000001,84.47288850000001,77.0,108.0
89,84.47288850000001,87.7144393125,74.0,108.0
90,87.71612850000001,88.32254681250001,74.0,104.0
91,88.32423600000001,88.52524931250001,74.0,96.0
92,88.52693850000001,88.9323435,74.0,102.0
93,88.9323435,89.3377485,77.0,113.0
94,89.3377485,89.74146431250001,74.0,110.0
95,89.7431535,90.14855850000001,74.0,113.0
96,90.14855850000001,90.55396350000001,72.0,107.0
97,90.55396350000001,90.95936850000001,74.0,110.0
98,90.95936850000001,91.21274662500001,69.0,98.0
99,91.16207100000001,91.36477350000001,72.0,88.0
100,91.36477350000001,94.2009193125,69.0,89.0
101,94.20260850000001,94.60801350000001,69.0,114.0
102,94.60801350000001,95.4188235,74.0,113.0
103,95.4188235,95.8242285,77.0,110.0
104,95.8242285,96.2296335,74.0,110.0
105,96.2296335,96.46274137500001,77.0,87.0
106,96.432336,96.6603763125,74.0,84.0
107,96.63503850000001,97.04044350000001,72.0,89.0
108,97.04044350000001,97.24990275,69.0,102.0
109,97.24314600000001,97.45260525,67.0,87.0
110,97.44584850000001,98.05395600000001,65.0,98.0
111,98.05395600000001,98.31071250000001,67.0,88.0
112,98.25665850000001,98.6620635,69.0,100.0
113,98.6620635,99.06577931250001,67.0,100.0
114,99.0674685,100.6873993125,67.0,107.0
115,100.68908850000001,101.29719600000001,67.0,107.0
116,101.29719600000001,101.49989850000001,69.0,102.0
117,101.49989850000001,101.9053035,72.0,102.0
118,101.9053035,102.3107085,69.0,108.0
119,102.3107085,102.71442431250001,67.0,108.0
120,102.7161135,102.918816,67.0,85.0
121,102.918816,103.12827525000002,69.0,86.0
122,103.12151850000001,103.52692350000001,65.0,88.0
123,103.52692350000001,103.72962600000001,67.0,89.0
124,103.72962600000001,103.93739606250001,65.0,84.0
125,103.93232850000001,107.17556850000001,62.0,89.0
126,107.17556850000001,107.78198681250001,74.0,116.0
127,107.78367600000001,108.39178350000002,74.0,116.0
128,108.39178350000002,108.7971885,69.0,98.0
129,108.7971885,109.2025935,72.0,104.0
130,109.2025935,109.60799850000001,74.0,110.0
131,109.60799850000001,110.01340350000001,79.0,114.0
132,110.01340350000001,110.41880850000001,77.0,108.0
133,110.41880850000001,113.6603593125,74.0,108.0
134,113.66204850000001,114.26846681250001,74.0,104.0
135,114.27015600000001,114.47116931250001,74.0,96.0
136,114.47285850000002,114.87826350000002,74.0,102.0
137,114.87826350000002,115.2836685,77.0,113.0
138,115.2836685,115.68738431250001,74.0,110.0
139,115.6890735,116.09447850000001,74.0,113.0
140,116.09447850000001,116.49988350000001,72.0,107.0
141,116.49988350000001,116.90528850000001,74.0,110.0
142,116.90528850000001,117.15866662500001,69.0,98.0
143,117.10799100000001,117.31069350000001,72.0,88.0
144,117.31069350000001,120.1468393125,69.0,89.0
145,120.14852850000001,120.55393350000001,69.0,114.0
146,120.55393350000001,121.36474350000002,74.0,113.0
147,121.36474350000002,121.7701485,77.0,110.0
148,121.7701485,122.1755535,74.0,110.0
149,122.1755535,122.40866137500001,77.0,87.0
150,122.37825600000001,122.6062963125,74.0,84.0
151,122.58095850000001,122.98636350000001,72.0,89.0
152,122.98636350000001,123.19582275,69.0,102.0
153,123.18906600000001,123.39852525,67.0,87.0
154,123.39176850000001,123.99987600000001,65.0,98.0
155,123.99987600000001,124.25663250000001,67.0,88.0
156,124.20257850000002,124.60798350000002,69.0,100.0
157,124.60798350000002,125.01169931250001,67.0,100.0
158,125.0133885,126.6333193125,67.0,107.0
159,126.63500850000001,127.24311600000001,67.0,107.0
160,127.24311600000001,127.44581850000002,69.0,102.0
161,127.44581850000002,127.85122350000002,72.0,102.0
162,127.85122350000002,128.2566285,69.0,108.0
163,128.2566285,128.6603443125,67.0,108.0
164,128.6620335,128.86473600000002,67.0,85.0
165,128.86473600000002,129.07419525,69.0,86.0
166,129.0674385,129.4728435,65.0,88.0
167,129.4728435,129.67554600000003,67.0,89.0
168,129.67554600000003,129.8833160625,65.0,84.0
169,129.8782485,133.1214885,62.0,89.0
170,133.1214885,133.72959600000002,67.0,104.0
171,133.72959600000002,133.97114981250002,65.0,108.0
172,133.9322985,134.3377035,67.0,108.0
173,134.3377035,134.7431085,69.0,108.0
174,134.7431085,135.1468243125,72.0,110.0
175,135.1485135,135.5539185,72.0,108.0
176,135.5539185,135.9593235,69.0,96.0
177,135.9593235,136.3647285,72.0,104.0
178,136.3647285,139.6079685,74.0,110.0
179,165.55388850000003,165.95760431250002,69.0,107.0
180,165.9592935,166.1603068125,69.0,104.0
181,166.16199600000002,166.3646985,69.0,93.0
182,166.3646985,166.7701035,72.0,104.0
183,166.7701035,167.1755085,69.0,102.0
184,167.1755085,167.9863185,67.0,100.0
185,167.9863185,168.3917235,65.0,98.0
186,168.3917235,168.7971285,67.0,108.0
187,168.7971285,169.20253350000002,65.0,113.0
188,169.20253350000002,172.04036850000003,62.0,113.0
189,172.04036850000003,172.44408431250002,69.0,114.0
190,172.4457735,172.84948931250003,69.0,113.0
191,172.8511785,173.2565835,69.0,114.0
192,173.2565835,173.6619885,72.0,108.0
193,173.6619885,174.0673935,74.0,116.0
194,174.0673935,174.8782035,77.0,113.0
195,174.8782035,175.3325949375,74.0,114.0
196,175.2836085,175.68901350000002,72.0,108.0
197,175.68901350000002,178.52515931250002,69.0,107.0
198,178.52684850000003,178.93225350000003,69.0,114.0
199,178.93225350000003,179.7430635,74.0,110.0
200,179.7430635,180.1484685,77.0,108.0
201,180.1484685,180.9592785,74.0,110.0
202,180.9592785,181.3646835,72.0,107.0
203,181.3646835,181.7700885,69.0,96.0
204,181.7700885,182.378196,65.0,96.0
205,182.378196,182.58089850000002,67.0,100.0
206,182.58089850000002,182.98630350000002,69.0,114.0
207,182.98630350000002,183.39001931250002,67.0,100.0
208,183.39170850000002,185.01163931250002,67.0,107.0
209,185.01332850000003,185.62143600000002,67.0,107.0
210,185.62143600000002,185.8241385,69.0,104.0
211,185.8241385,186.2295435,72.0,107.0
212,186.2295435,186.6349485,69.0,107.0
213,186.6349485,187.0386643125,67.0,108.0
214,187.0403535,187.26670462500002,67.0,96.0
215,187.24305600000002,187.4457585,69.0,92.0
216,187.4457585,187.86974456250002,65.0,100.0
217,187.8511635,188.07751462500002,67.0,87.0
218,188.05386600000003,188.25656850000001,65.0,91.0
219,188.25656850000001,191.49980850000003,62.0,94.0
220,191.49980850000003,192.1062268125,74.0,116.0
221,192.10791600000002,192.7160235,74.0,116.0
222,192.7160235,193.1214285,69.0,98.0
223,193.1214285,193.5268335,72.0,104.0
224,193.5268335,193.9322385,74.0,110.0
225,193.9322385,194.3376435,79.0,114.0
226,194.3376435,194.74304850000001,77.0,108.0
227,194.74304850000001,197.98459931250002,74.0,108.0
228,197.98628850000003,198.5927068125,74.0,104.0
229,198.59439600000002,198.79540931250003,74.0,96.0
230,198.7970985,199.2025035,74.0,102.0
231,199.2025035,199.6079085,77.0,113.0
232,199.6079085,200.0116243125,74.0,110.0
233,200.0133135,200.4187185,74.0,113.0
234,200.4187185,200.8241235,72.0,107.0
235,200.8241235,201.22952850000001,74.0,110.0
236,201.22952850000001,201.48290662500003,69.0,98.0
237,201.43223100000003,201.63493350000002,72.0,88.0
238,201.63493350000002,204.47107931250002,69.0,89.0
239,204.47276850000003,204.87817350000003,69.0,114.0
240,204.87817350000003,205.6889835,74.0,113.0
241,205.6889835,206.0943885,77.0,110.0
242,206.0943885,206.4997935,74.0,110.0
243,206.4997935,206.732901375,77.0,87.0
244,206.70249600000002,206.9305363125,74.0,84.0
245,206.9051985,207.3106035,72.0,89.0
246,207.3106035,207.52006275000002,69.0,102.0
247,207.51330600000003,207.72276525,67.0,87.0
248,207.71600850000002,208.32411600000003,65.0,98.0
249,208.32411600000003,208.58087250000003,67.0,88.0
250,208.52681850000002,208.93222350000002,69.0,100.0
251,208.93222350000002,209.33593931250002,67.0,100.0
252,209.33762850000002,210.95755931250002,67.0,107.0
253,210.95924850000003,211.56735600000002,67.0,107.0
254,211.56735600000002,211.77005850000003,69.0,102.0
255,211.77005850000003,212.1754635,72.0,102.0
256,212.1754635,212.5808685,69.0,108.0
257,212.5808685,212.98458431250003,67.0,108.0
258,212.9862735,213.18897600000003,67.0,85.0
259,213.18897600000003,213.39843525,69.0,86.0
260,213.3916785,213.7970835,65.0,88.0
261,213.7970835,213.99978600000003,67.0,89.0
262,213.99978600000003,214.20755606250003,65.0,84.0
263,214.20248850000002,217.44572850000003,62.0,89.0
264,217.44572850000003,218.0521468125,74.0,116.0
265,218.05383600000002,218.6619435,74.0,116.0
266,218.6619435,219.0673485,69.0,98.0
267,219.0673485,219.4727535,72.0,104.0
268,219.4727535,219.8781585,74.0,110.0
269,219.8781585,220.2835635,79.0,114.0
270,220.2835635,220.68896850000002,77.0,108.0
271,220.68896850000002,223.93051931250002,74.0,108.0
272,223.93220850000003,224.5386268125,74.0,104.0
273,224.54031600000002,224.74132931250003,74.0,96.0
274,224.74301850000003,225.1484235,74.0,102.0
275,225.1484235,225.5538285,77.0,113.0
276,225.5538285,225.95754431250003,74.0,110.0
277,225.9592335,226.3646385,74.0,113.0
278,226.3646385,226.7700435,72.0,107.0
279,226.7700435,227.17544850000002,74.0,110.0
280,227.17544850000002,227.42882662500003,69.0,98.0
281,227.37815100000003,227.58085350000002,72.0,88.0
282,227.58085350000002,230.41699931250002,69.0,89.0
283,230.41868850000003,230.82409350000003,69.0,114.0
284,230.82409350000003,231.6349035,74.0,113.0
285,231.6349035,232.0403085,77.0,110.0
286,232.0403085,232.4457135,74.0,110.0
287,232.4457135,232.678821375,77.0,87.0
288,232.64841600000003,232.8764563125,74.0,84.0
289,232.8511185,233.25652350000001,72.0,89.0
290,233.25652350000001,233.46598275000002,69.0,102.0
291,233.45922600000003,233.66868525,67.0,87.0
292,233.66192850000002,234.27003600000003,65.0,98.0
293,234.27003600000003,234.52679250000003,67.0,88.0
294,234.47273850000002,234.87814350000002,69.0,100.0
295,234.87814350000002,235.28185931250002,67.0,100.0
296,235.28354850000002,236.90347931250002,67.0,107.0
297,236.90516850000003,237.51327600000002,67.0,107.0
298,237.51327600000002,237.71597850000003,69.0,102.0
299,237.71597850000003,238.1213835,72.0,102.0
300,238.1213835,238.5267885,69.0,108.0
301,238.5267885,238.93050431250003,67.0,108.0
302,238.9321935,239.13489600000003,67.0,85.0
303,239.13489600000003,239.34435525000004,69.0,86.0
304,239.3375985,239.74300350000001,65.0,88.0
305,239.74300350000001,239.94570600000003,67.0,89.0
306,239.94570600000003,240.15347606250003,65.0,84.0
307,240.14840850000002,243.39164850000003,62.0,89.0
308,243.39164850000003,243.99975600000002,67.0,104.0
309,243.99975600000002,244.24130981250002,65.0,108.0
310,244.20245850000003,244.6078635,67.0,108.0
311,244.6078635,245.0132685,69.0,108.0
312,245.0132685,245.41698431250003,72.0,110.0
313,245.4186735,245.8240785,72.0,108.0
314,245.8240785,246.22948350000001,69.0,96.0
315,246.22948350000001,246.63488850000002,72.0,104.0
316,246.63488850000002,249.87812850000003,74.0,110.0
317,249.87812850000003,250.4744116875,67.0,100.0
318,250.48623600000002,250.76664112500004,65.0,84.0
319,250.68893850000003,251.09434350000004,67.0,91.0
320,251.09434350000004,251.52001875000002,69.0,88.0
321,251.4997485,251.79704550000002,72.0,83.0
322,251.95582912500004,252.3967070625,72.0,86.0
323,252.405153,252.86630118750003,69.0,84.0
324,252.91866600000003,253.75481381250003,72.0,87.0
325,253.72947600000003,255.09602868750002,74.0,87.0
