,start,end,pitch,velocity
0,0.9594585000000001,2.8310782500000005,62.0,81.0
1,0.5540535000000001,2.8597944375,57.0,79.0
2,1.3648635000000002,2.87161875,65.0,67.0
3,1.7702685000000002,2.9172268125,74.0,72.0
4,3.3918885000000003,4.5320900625,50.0,90.0
5,4.2026985,4.6266845625,62.0,91.0
6,3.7972935000000003,4.7719546875,57.0,81.0
7,4.6081035,5.503372875,65.0,88.0
8,5.4189135,6.0945885,57.0,77.0
9,5.0135085,6.104723625000001,48.0,85.0
10,5.8243185,6.256750500000001,62.0,88.0
11,6.2297235,6.655398750000001,64.0,86.0
12,7.0405335000000004,7.883438062500001,53.0,71.0
13,6.6351285,7.9053975,46.0,82.0
14,7.4459385000000005,8.038843312500001,58.0,77.0
15,8.2567485,9.505058062500002,50.0,86.0
16,9.0675585,9.50674725,64.0,87.0
17,8.6621535,9.584449875,57.0,71.0
18,9.4729635,10.280395125,65.0,88.0
19,9.8783685,11.057421375,50.0,85.0
20,10.2837735,11.0945835,57.0,80.0
21,10.6891785,11.124988875000001,62.0,84.0
22,11.0945835,11.594583000000002,65.0,87.0
23,11.4999885,12.721271062500001,50.0,82.0
24,11.9053935,13.131743625,62.0,69.0
25,12.3107985,13.266878625,65.0,76.0
26,13.5270135,15.780389625000002,52.0,70.0
27,13.1216085,15.809105812500002,45.0,81.0
28,14.7432285,15.842889562500002,67.0,78.0
29,13.9324185,15.935794875000001,60.0,82.0
30,14.3378235,15.954375937500002,64.0,77.0
31,16.3648485,17.581063500000003,50.0,87.0
32,16.770253500000003,17.777009250000003,57.0,77.0
33,17.1756585,17.783766,62.0,78.0
34,17.1756585,17.783766,65.0,84.0
35,17.783766,17.88511725,50.0,97.0
36,18.391873500000003,19.084440375000003,57.0,77.0
37,17.9864685,19.1266700625,50.0,83.0
38,18.7972785,19.405386,62.0,85.0
39,18.7972785,19.405386,65.0,87.0
40,19.6080885,20.851330500000003,41.0,87.0
41,20.4188985,20.8766683125,65.0,86.0
42,21.027006000000004,21.12835725,41.0,97.0
43,20.013493500000003,21.12835725,53.0,75.0
44,20.4188985,21.2297085,60.0,84.0
45,21.2297085,22.469572125000003,43.0,86.0
46,21.635113500000003,22.47970725,50.0,80.0
47,22.0405185,22.8597744375,58.0,83.0
48,22.0405185,22.9053825,67.0,84.0
49,23.256733500000003,23.9594355,53.0,71.0
50,23.6621385,23.996597625000003,65.0,79.0
51,22.8513285,24.008421937500003,46.0,83.0
52,23.6621385,24.0455840625,62.0,82.0
53,23.6621385,24.081057,58.0,81.0
54,24.270246000000004,24.37159725,46.0,97.0
55,24.4729485,25.684095937500004,48.0,90.0
56,24.878353500000003,25.684095937500004,55.0,75.0
57,25.2837585,26.033757750000003,64.0,84.0
58,25.2837585,26.140176562500002,60.0,81.0
59,26.9053785,27.209432250000003,69.0,97.0
60,26.9053785,27.310783500000003,64.0,78.0
61,27.7161885,27.81753975,62.0,71.0
62,26.499973500000003,28.206052875,57.0,80.0
63,26.0945685,28.236458250000002,50.0,85.0
64,27.81753975,28.351323000000004,62.0,71.0
65,27.7161885,28.359768937500004,69.0,69.0
66,27.310783500000003,28.410444562500004,65.0,77.0
67,30.1486185,30.572604562500004,62.0,88.0
68,29.3378085,30.6030099375,50.0,104.0
69,29.743213500000003,30.619901812500004,57.0,83.0
70,30.554023500000003,31.353009187500003,65.0,93.0
71,31.364833500000003,32.10131925,57.0,80.0
72,30.9594285,32.124967875,48.0,86.0
73,31.7702385,32.6807105625,60.0,86.0
74,33.7972635,34.192533375000004,64.0,86.0
75,32.9864535,35.2753025625,53.0,76.0
76,33.391858500000005,35.3090863125,58.0,79.0
77,32.5810485,35.3158430625,46.0,83.0
78,34.2026685,35.907058687500005,65.0,82.0
79,34.2026685,36.2313826875,62.0,84.0
80,35.8242885,36.964490062500005,50.0,88.0
81,36.2296935,36.979692750000005,57.0,73.0
82,36.635098500000005,37.6401650625,62.0,78.0
83,37.0405035,37.761786562500006,65.0,84.0
84,37.8513135,38.626650562500004,58.0,71.0
85,37.4459085,38.68577212500001,46.0,85.0
86,38.256718500000005,38.704353187500004,70.0,83.0
87,38.256718500000005,39.091177125,62.0,82.0
88,39.0675285,40.1739463125,69.0,83.0
89,39.0675285,40.2955678125,60.0,83.0
90,40.28374350000001,40.6671890625,62.0,77.0
91,39.4729335,41.760093375000004,52.0,64.0
92,39.0675285,41.7617825625,45.0,80.0
93,39.878338500000005,41.8563770625,57.0,77.0
94,40.6891485,42.048944437500005,64.0,77.0
95,40.6891485,42.05401200000001,69.0,73.0
96,40.6891485,42.0894849375,60.0,71.0
97,42.3107685,44.96617125,50.0,87.0
98,42.716173500000004,44.96617125,57.0,77.0
99,43.121578500000005,45.371576250000004,62.0,78.0
100,43.9323885,45.886778437500006,65.0,82.0
101,43.52698350000001,45.90873787500001,69.0,81.0
102,45.5540085,46.6908316875,41.0,84.0
103,46.364818500000005,46.787115375000006,57.0,67.0
104,46.77022350000001,47.192520375,65.0,76.0
105,45.959413500000004,47.1975879375,53.0,71.0
106,48.39184350000001,48.795559312500004,62.0,76.0
107,47.986438500000006,48.8428565625,60.0,73.0
108,47.581033500000004,48.87832950000001,55.0,74.0
109,47.1756285,48.91718081250001,48.0,76.0
110,48.7972485,49.97967975,43.0,83.0
111,49.202653500000004,50.06920668750001,50.0,79.0
112,49.608058500000006,50.12326068750001,58.0,77.0
113,50.01346350000001,50.787111375,62.0,66.0
114,50.4188685,51.665488875,45.0,78.0
115,50.824273500000004,51.700961812500005,52.0,65.0
116,51.229678500000006,51.7651509375,60.0,78.0
117,51.63508350000001,52.35636656250001,64.0,71.0
118,53.25670350000001,53.61818962500001,67.0,70.0
119,52.851298500000006,54.545553562500004,62.0,77.0
120,52.445893500000004,54.63508050000001,57.0,72.0
121,53.6621085,54.645215625000006,65.0,76.0
122,52.0404885,54.653661562500005,50.0,86.0
123,56.094538500000006,56.518524562500005,62.0,88.0
124,55.2837285,56.548929937500006,50.0,104.0
125,55.689133500000004,56.565821812500005,57.0,83.0
126,56.49994350000001,57.29892918750001,65.0,93.0
127,57.310753500000004,58.047239250000004,57.0,80.0
128,56.9053485,58.070887875000004,48.0,86.0
129,57.716158500000006,58.626630562500004,60.0,86.0
130,59.74318350000001,60.138453375000005,64.0,86.0
131,58.932373500000004,61.2212225625,53.0,76.0
132,59.337778500000006,61.25500631250001,58.0,79.0
133,58.5269685,61.26176306250001,46.0,83.0
134,60.1485885,61.852978687500006,65.0,82.0
135,60.1485885,62.1773026875,62.0,84.0
136,61.7702085,62.910410062500006,50.0,88.0
137,62.175613500000004,62.925612750000006,57.0,73.0
138,62.581018500000006,63.586085062500004,62.0,78.0
139,62.98642350000001,63.70770656250001,65.0,84.0
140,63.797233500000004,64.5725705625,58.0,71.0
141,63.3918285,64.631692125,46.0,85.0
142,64.2026385,64.6502731875,70.0,83.0
143,64.2026385,65.037097125,62.0,82.0
144,65.01344850000001,66.11986631250001,69.0,83.0
145,65.01344850000001,66.24148781250001,60.0,83.0
146,66.2296635,66.6131090625,62.0,77.0
147,65.41885350000001,67.70601337500001,52.0,64.0
148,65.01344850000001,67.7077025625,45.0,80.0
149,65.8242585,67.8022970625,57.0,77.0
150,66.6350685,67.99486443750001,64.0,77.0
151,66.6350685,67.999932,69.0,73.0
152,66.6350685,68.0354049375,60.0,71.0
153,68.25668850000001,70.91209125,50.0,87.0
154,68.66209350000001,70.91209125,57.0,77.0
155,69.0674985,71.31749625,62.0,78.0
156,69.8783085,71.8326984375,65.0,82.0
157,69.4729035,71.854657875,69.0,81.0
158,71.49992850000001,72.63675168750001,41.0,84.0
159,72.3107385,72.733035375,57.0,67.0
160,72.7161435,73.138440375,65.0,76.0
161,71.90533350000001,73.1435079375,53.0,71.0
162,74.33776350000001,74.7414793125,62.0,76.0
163,73.9323585,74.7887765625,60.0,73.0
164,73.5269535,74.82424950000001,55.0,74.0
165,73.1215485,74.86310081250001,48.0,76.0
166,74.74316850000001,75.92559975,43.0,83.0
167,75.14857350000001,76.0151266875,50.0,79.0
168,75.55397850000001,76.06918068750001,58.0,77.0
169,75.9593835,76.73303137500001,62.0,66.0
170,76.3647885,77.61140887500001,45.0,78.0
171,76.7701935,77.64688181250001,52.0,65.0
172,77.1755985,77.71107093750001,60.0,78.0
173,77.58100350000001,78.3022865625,64.0,71.0
174,79.2026235,79.564109625,67.0,70.0
175,78.79721850000001,80.4914735625,62.0,77.0
176,78.39181350000001,80.5810005,57.0,72.0
177,79.6080285,80.591135625,65.0,76.0
178,77.98640850000001,80.5995815625,50.0,86.0
179,81.22964850000001,81.48471581250001,77.0,87.0
180,81.22964850000001,81.69417506250001,69.0,87.0
181,81.22964850000001,81.74653987500001,62.0,86.0
182,81.22964850000001,81.7617425625,65.0,86.0
183,81.22964850000001,82.243161,50.0,87.0
184,81.63505350000001,82.4458635,57.0,38.0
185,82.04045850000001,82.5117418125,69.0,87.0
186,82.04045850000001,82.5421471875,62.0,87.0
187,82.04045850000001,82.5793093125,65.0,88.0
188,82.8512685,83.24991675000001,69.0,87.0
189,82.8512685,83.307349125,62.0,86.0
190,82.8512685,83.31917343750001,65.0,87.0
191,82.4458635,83.6620785,50.0,100.0
192,83.6620785,83.86478100000001,65.0,91.0
193,83.6620785,83.945862,69.0,89.0
194,83.6620785,83.96444306250001,62.0,89.0
195,83.2566735,83.99147006250001,57.0,64.0
196,84.06748350000001,84.27018600000001,65.0,97.0
197,84.06748350000001,84.47288850000001,50.0,100.0
198,84.27018600000001,84.47288850000001,69.0,97.0
199,84.47288850000001,85.04045550000001,69.0,88.0
200,84.47288850000001,85.0691716875,65.0,89.0
201,84.47288850000001,85.07423925,62.0,87.0
202,85.28369850000001,85.83775200000001,69.0,86.0
203,85.28369850000001,85.89856275000001,65.0,84.0
204,85.28369850000001,85.9002519375,62.0,84.0
205,84.47288850000001,86.4999135,46.0,83.0
206,86.0945085,86.59957556250001,69.0,87.0
207,86.0945085,86.6891025,65.0,84.0
208,86.0945085,86.692480875,62.0,85.0
209,86.9053185,87.158696625,69.0,85.0
210,86.9053185,87.20937225,65.0,85.0
211,84.87829350000001,87.28031812500001,58.0,42.0
212,86.9053185,87.4036288125,62.0,83.0
213,87.31072350000001,87.41207475,65.0,97.0
214,87.51342600000001,87.61477725,69.0,97.0
215,87.31072350000001,87.71612850000001,46.0,100.0
216,87.71612850000001,88.13842537500001,69.0,87.0
217,87.71612850000001,88.19416856250001,62.0,87.0
218,87.71612850000001,88.19923612500001,65.0,88.0
219,87.71612850000001,88.729641,50.0,76.0
220,88.12153350000001,88.88335706250001,57.0,58.0
221,88.52693850000001,88.99484343750001,69.0,88.0
222,88.52693850000001,89.00835693750001,62.0,88.0
223,88.52693850000001,89.0320055625,65.0,89.0
224,89.3377485,89.80565343750001,69.0,83.0
225,89.3377485,89.962747875,65.0,80.0
226,89.3377485,89.96612625,62.0,77.0
227,88.9323435,90.14855850000001,50.0,80.0
228,90.14855850000001,90.55396350000001,62.0,85.0
229,90.14855850000001,90.55396350000001,65.0,83.0
230,90.14855850000001,90.55396350000001,69.0,85.0
231,90.55396350000001,90.65531475,62.0,97.0
232,90.55396350000001,90.85801725,50.0,100.0
233,90.75666600000001,90.85801725,65.0,97.0
234,90.95936850000001,91.53707062500001,69.0,85.0
235,90.95936850000001,91.55396250000001,64.0,87.0
236,90.95936850000001,91.59619218750001,60.0,82.0
237,90.95936850000001,92.0218674375,57.0,73.0
238,91.77017850000001,92.30396175000001,69.0,86.0
239,90.95936850000001,92.33098875,45.0,74.0
240,91.77017850000001,92.42051568750001,60.0,82.0
241,91.77017850000001,92.42727243750001,64.0,86.0
242,92.1755835,92.624907375,57.0,70.0
243,92.5809885,93.19923112500001,69.0,86.0
244,92.5809885,93.20936625,60.0,81.0
245,92.5809885,93.22625812500002,64.0,86.0
246,93.39179850000001,93.6975414375,60.0,81.0
247,92.9863935,93.78875756250001,52.0,66.0
248,92.5809885,93.79044675000002,45.0,77.0
249,93.59450100000001,93.88841962500001,64.0,86.0
250,93.189096,94.19923012500001,57.0,80.0
251,93.79720350000001,94.6705134375,69.0,87.0
252,94.20260850000001,94.7515944375,65.0,87.0
253,94.20260850000001,94.76679712500001,62.0,84.0
254,94.20260850000001,95.4188235,50.0,82.0
255,95.01341850000001,95.46949912500001,69.0,86.0
256,95.01341850000001,95.4880801875,65.0,86.0
257,95.01341850000001,95.48976937500001,62.0,85.0
258,95.4188235,95.92557975000001,57.0,50.0
259,95.8242285,96.26510643750001,69.0,84.0
260,95.8242285,96.3022685625,65.0,83.0
261,95.8242285,96.30902531250001,62.0,82.0
262,95.4188235,96.432336,50.0,100.0
263,96.63503850000001,96.92895712500001,69.0,87.0
264,96.63503850000001,96.93909225,62.0,88.0
265,96.2296335,96.94247062500001,57.0,54.0
266,96.63503850000001,96.95091656250001,65.0,87.0
267,97.04044350000001,97.14179475,62.0,97.0
268,97.24314600000001,97.34449725,65.0,97.0
269,97.04044350000001,97.44584850000001,50.0,100.0
270,97.44584850000001,97.94078043750001,69.0,83.0
271,97.44584850000001,97.9475371875,65.0,81.0
272,97.44584850000001,97.95260475,60.0,78.0
273,97.85125350000001,98.3917935,53.0,64.0
274,98.25665850000001,98.7955093125,60.0,83.0
275,98.25665850000001,98.800576875,69.0,84.0
276,97.44584850000001,98.864766,41.0,84.0
277,98.25665850000001,98.87490112500001,65.0,82.0
278,99.0674685,99.4458465,67.0,78.0
279,99.0674685,99.5117248125,64.0,86.0
280,99.0674685,99.5319950625,60.0,82.0
281,99.0674685,100.08098100000001,48.0,78.0
282,99.4728735,100.25496731250001,55.0,46.0
283,99.87827850000001,100.30902131250001,60.0,85.0
284,99.87827850000001,100.3123996875,67.0,86.0
285,99.87827850000001,100.31915643750001,64.0,86.0
286,100.28368350000001,100.68908850000001,48.0,100.0
287,100.68908850000001,101.1265880625,67.0,80.0
288,100.68908850000001,101.1265880625,67.0,89.0
289,100.68908850000001,101.324223,58.0,87.0
290,101.09449350000001,101.61645243750002,50.0,65.0
291,101.49989850000001,101.96104668750002,58.0,86.0
292,101.49989850000001,102.08773575000001,67.0,89.0
293,101.9053035,102.15699243750001,50.0,73.0
294,100.68908850000001,102.3107085,43.0,82.0
295,102.3107085,102.80901881250001,64.0,85.0
296,102.3107085,102.82253231250002,60.0,79.0
297,102.3107085,102.84787012500001,67.0,79.0
298,102.3107085,103.08097800000002,48.0,84.0
299,103.12151850000001,103.42557225000002,60.0,83.0
300,103.12151850000001,103.64347743750001,67.0,79.0
301,103.12151850000001,103.7144233125,57.0,83.0
302,103.52692350000001,103.72962600000001,60.0,85.0
303,103.12151850000001,103.827598875,45.0,77.0
304,103.72962600000001,103.93232850000001,64.0,90.0
305,103.93232850000001,104.3225308125,57.0,80.0
306,103.93232850000001,104.4509090625,62.0,83.0
307,103.93232850000001,104.65698993750001,65.0,87.0
308,103.93232850000001,104.94584100000002,50.0,88.0
309,104.74313850000001,105.253273125,65.0,87.0
310,104.74313850000001,105.28367850000001,62.0,88.0
311,105.1485435,105.86982656250001,57.0,38.0
312,105.5539485,106.24144781250001,65.0,86.0
313,105.5539485,106.24482618750001,62.0,86.0
314,105.1485435,106.56746100000001,50.0,82.0
315,106.36475850000001,106.62996093750002,62.0,88.0
316,106.56746100000001,106.82252831250001,64.0,87.0
317,106.162056,106.91712281250001,57.0,73.0
318,106.77016350000001,106.97286600000001,50.0,90.0
319,107.17556850000001,107.66712206250001,69.0,86.0
320,106.77016350000001,107.67218962500002,65.0,87.0
321,107.17556850000001,107.70259500000002,62.0,84.0
322,107.58097350000001,108.18401343750001,57.0,75.0
323,107.98637850000001,108.41205375000001,69.0,84.0
324,107.98637850000001,108.44921587500001,65.0,85.0
325,107.98637850000001,108.45090506250001,62.0,86.0
326,108.39178350000002,108.888404625,57.0,79.0
327,108.7971885,109.25664750000001,69.0,86.0
328,108.7971885,109.28705287500001,62.0,86.0
329,108.7971885,109.297188,65.0,86.0
330,109.2025935,109.73637675,57.0,78.0
331,107.17556850000001,109.7448226875,50.0,85.0
332,109.60799850000001,110.01340350000001,62.0,87.0
333,110.01340350000001,110.11475475,62.0,97.0
334,109.60799850000001,110.12995743750001,69.0,87.0
335,110.21610600000001,110.31745725,65.0,97.0
336,110.01340350000001,110.41880850000001,48.0,84.0
337,110.41880850000001,110.91205125,69.0,89.0
338,110.41880850000001,110.95259175000001,62.0,88.0
339,110.82421350000001,111.3123886875,58.0,75.0
340,110.41880850000001,111.65022618750001,46.0,84.0
341,111.22961850000002,111.92218537500001,62.0,89.0
342,111.22961850000002,111.93907725000001,69.0,88.0
343,111.63502350000002,112.09110412500002,58.0,78.0
344,112.0404285,112.65867112500001,69.0,89.0
345,112.0404285,112.6907656875,62.0,89.0
346,112.64853600000001,113.02353562500001,53.0,74.0
347,112.85123850000001,113.25664350000001,62.0,92.0
348,112.0404285,113.28873806250002,46.0,78.0
349,113.25664350000001,113.36475150000001,58.0,77.0
350,112.85123850000001,113.40867037500001,69.0,94.0
351,113.45934600000001,113.56069725,62.0,97.0
352,113.66204850000001,114.1215075,69.0,87.0
353,113.66204850000001,114.185696625,62.0,86.0
354,113.66204850000001,114.18738581250001,65.0,87.0
355,113.66204850000001,114.67556100000002,50.0,82.0
356,114.47285850000002,114.93738506250001,69.0,88.0
357,114.47285850000002,114.9779255625,62.0,87.0
358,114.47285850000002,114.9948174375,65.0,88.0
359,114.06745350000001,115.374884625,57.0,52.0
360,115.2836685,115.74650587500001,69.0,84.0
361,115.2836685,115.76508693750002,62.0,86.0
362,115.2836685,115.79042475000001,65.0,85.0
363,114.87826350000002,115.89177600000001,50.0,89.0
364,115.6890735,116.26001887500001,57.0,64.0
365,116.09447850000001,116.49988350000001,62.0,87.0
366,116.49988350000001,116.60123475000002,62.0,97.0
367,116.09447850000001,116.60123475000002,65.0,88.0
368,116.09447850000001,116.65191037500001,69.0,87.0
369,116.49988350000001,116.70258600000001,50.0,86.0
370,116.70258600000001,116.80393725,65.0,97.0
371,116.90528850000001,117.45596362500001,69.0,88.0
372,116.90528850000001,117.51339600000001,64.0,87.0
373,116.90528850000001,117.523531125,60.0,87.0
374,116.90528850000001,118.26339525000002,45.0,81.0
375,117.71609850000002,118.30055737500001,69.0,87.0
376,117.71609850000002,118.37826000000001,60.0,86.0
377,117.71609850000002,118.4711653125,64.0,89.0
378,118.12150350000002,118.65021918750001,52.0,76.0
379,118.5269085,119.12657006250001,60.0,84.0
380,118.5269085,119.14008356250001,69.0,87.0
381,118.5269085,119.1434619375,64.0,86.0
382,119.13501600000001,119.45089406250001,52.0,71.0
383,119.33771850000001,119.74312350000001,64.0,92.0
384,119.33771850000001,119.82589368750001,60.0,88.0
385,119.74312350000001,119.84447475000002,64.0,97.0
386,119.74312350000001,119.85460987500001,52.0,72.0
387,118.5269085,119.94582600000001,45.0,71.0
388,119.33771850000001,119.96609625,69.0,89.0
389,119.94582600000001,120.04717725,60.0,97.0
390,120.14852850000001,120.59109562500001,69.0,86.0
391,120.14852850000001,120.59278481250001,65.0,89.0
392,120.14852850000001,120.61981181250002,62.0,87.0
393,120.55393350000001,121.0421086875,57.0,68.0
394,120.14852850000001,121.45089206250002,50.0,84.0
395,120.95933850000002,121.5117028125,69.0,87.0
396,121.16204100000002,121.62825675,57.0,68.0
397,120.95933850000002,121.65528375000001,62.0,88.0
398,121.567446,122.24987775000001,69.0,91.0
399,121.7701485,122.30731012500001,62.0,84.0
400,122.37825600000001,122.50494506250001,62.0,40.0
401,122.1755535,122.7785934375,57.0,75.0
402,121.7701485,122.79379612500001,50.0,80.0
403,122.58095850000001,122.91541762500002,69.0,78.0
404,122.58095850000001,123.053931,60.0,88.0
405,122.98636350000001,123.38501175000002,62.0,87.0
406,123.39176850000001,123.88838962500002,65.0,84.0
407,123.39176850000001,123.89852475,69.0,80.0
408,123.39176850000001,123.99311925,60.0,85.0
409,123.79717350000001,124.24818656250001,53.0,63.0
410,123.39176850000001,124.60629431250001,41.0,83.0
411,124.20257850000002,124.8157535625,69.0,86.0
412,124.20257850000002,124.85629406250001,60.0,86.0
413,124.20257850000002,124.9103480625,65.0,86.0
414,124.60798350000002,125.03703712500001,53.0,81.0
415,125.0133885,125.4914285625,67.0,79.0
416,125.0133885,125.56237443750001,64.0,89.0
417,125.0133885,125.5691311875,60.0,82.0
418,125.82419850000001,126.22960350000001,60.0,84.0
419,125.82419850000001,126.24649537500001,67.0,85.0
420,125.4187935,126.25156293750001,55.0,67.0
421,125.82419850000001,126.280279125,64.0,88.0
422,126.22960350000001,126.33095475000002,60.0,97.0
423,126.43230600000001,126.53365725,64.0,97.0
424,125.0133885,126.63500850000001,48.0,76.0
425,126.63500850000001,127.06744050000002,67.0,84.0
426,126.63500850000001,127.07419725000001,62.0,88.0
427,126.63500850000001,127.16203500000002,58.0,93.0
428,127.04041350000001,127.47622387500002,55.0,42.0
429,127.44581850000002,127.82419650000001,58.0,86.0
430,127.44581850000002,127.83602081250001,67.0,89.0
431,126.63500850000001,127.87825050000001,43.0,81.0
432,127.44581850000002,127.89176400000001,62.0,91.0
433,127.85122350000002,128.22791231250002,55.0,82.0
434,128.2566285,128.77014150000002,67.0,87.0
435,128.2566285,128.86304681250002,60.0,86.0
436,128.6620335,129.1502086875,52.0,71.0
437,129.0674385,129.4728435,67.0,89.0
438,128.2566285,129.51000562500002,45.0,79.0
439,129.0674385,129.5927758125,60.0,86.0
440,129.4728435,129.60122175,52.0,75.0
441,129.67554600000003,129.77689725000002,57.0,97.0
442,129.8782485,130.4643965625,69.0,87.0
443,129.8782485,130.57081537500002,62.0,81.0
444,130.2836535,130.7701395,57.0,60.0
445,129.8782485,131.11473375,50.0,76.0
446,130.68905850000002,131.31067950000002,62.0,83.0
447,130.68905850000002,131.45763881250002,67.0,88.0
448,131.09446350000002,131.5116928125,57.0,64.0
449,131.49986850000002,132.31067850000002,50.0,74.0
450,131.49986850000002,132.46608375000002,62.0,83.0
451,132.31067850000002,132.46608375000002,62.0,83.0
452,131.49986850000002,132.4711513125,65.0,84.0
453,132.31067850000002,132.618110625,69.0,82.0
454,132.71608350000002,133.1214885,50.0,81.0
455,133.1214885,133.7684473125,67.0,85.0
456,133.1214885,133.8562850625,58.0,84.0
457,133.1214885,134.13500100000002,43.0,73.0
458,133.9322985,134.3377035,58.0,84.0
459,133.9322985,134.42554125,67.0,86.0
460,134.3377035,134.54040600000002,43.0,100.0
461,134.7431085,135.32418900000002,67.0,87.0
462,134.7431085,135.40358081250002,60.0,83.0
463,135.5539185,136.10966118750002,60.0,86.0
464,134.7431085,136.16202600000003,45.0,77.0
465,135.5539185,136.31743125,67.0,89.0
466,136.3647285,137.1130385625,62.0,83.0
467,136.3647285,137.11472775000001,69.0,87.0
468,136.77013350000001,137.31743025,57.0,66.0
469,136.3647285,137.65020018750002,50.0,74.0
470,137.17553850000002,137.9373620625,67.0,87.0
471,137.58094350000002,138.03364575,57.0,69.0
472,137.98634850000002,138.6434424375,65.0,86.0
473,137.17553850000002,138.6535775625,62.0,80.0
474,138.79715850000002,139.4306038125,62.0,79.0
475,138.79715850000002,139.44918487500001,65.0,84.0
476,137.98634850000002,139.513374,50.0,81.0
477,139.6079685,140.7481700625,50.0,90.0
478,140.4187785,140.8427645625,62.0,91.0
479,140.0133735,140.9880346875,57.0,81.0
480,140.8241835,141.719452875,65.0,88.0
481,141.6349935,142.31066850000002,57.0,77.0
482,141.2295885,142.32080362500002,48.0,85.0
483,142.0403985,142.47283050000001,62.0,88.0
484,142.4458035,142.87147875000002,64.0,86.0
485,143.25661350000001,144.0995180625,53.0,71.0
486,142.8512085,144.12147750000003,46.0,82.0
487,143.66201850000002,144.2549233125,58.0,77.0
488,144.47282850000002,145.72113806250002,50.0,86.0
489,145.28363850000002,145.72282725000002,64.0,87.0
490,144.87823350000002,145.80052987500002,57.0,71.0
491,145.68904350000003,146.49647512500002,65.0,88.0
492,146.09444850000003,147.27350137500002,50.0,85.0
493,146.4998535,147.3106635,57.0,80.0
494,146.9052585,147.34106887500002,62.0,84.0
495,147.3106635,147.810663,65.0,87.0
496,147.7160685,148.9373510625,50.0,82.0
497,148.1214735,149.34782362500002,62.0,69.0
498,148.5268785,149.482958625,65.0,76.0
499,149.74309350000001,151.996469625,52.0,70.0
500,149.3376885,152.0251858125,45.0,81.0
501,150.95930850000002,152.0589695625,67.0,78.0
502,150.14849850000002,152.151874875,60.0,82.0
503,150.55390350000002,152.1704559375,64.0,77.0
504,152.58092850000003,153.2025495,69.0,89.0
505,152.58092850000003,153.2819413125,65.0,91.0
506,152.58092850000003,153.2886980625,62.0,88.0
507,152.9863335,153.30221156250002,57.0,65.0
508,153.3917385,153.901873125,69.0,88.0
509,153.3917385,153.9204541875,62.0,88.0
510,153.3917385,153.92383256250002,65.0,88.0
511,153.99984600000002,154.09612968750002,65.0,85.0
512,153.99984600000002,154.107954,62.0,84.0
513,153.99984600000002,154.107954,69.0,84.0
514,153.7971435,154.4880211875,57.0,42.0
515,154.40525100000002,154.83599381250002,69.0,81.0
516,154.40525100000002,154.847818125,62.0,83.0
517,154.40525100000002,154.8663991875,65.0,85.0
518,152.58092850000003,155.15356106250002,50.0,89.0
519,154.81065600000002,155.19916912500003,57.0,65.0
520,155.0133585,155.4609931875,62.0,92.0
521,155.4187635,155.47957425,50.0,80.0
522,155.0133585,155.6941010625,69.0,91.0
523,155.0133585,155.73295237500002,65.0,94.0
524,155.8241685,156.48295162500003,69.0,89.0
525,155.8241685,156.49815431250002,60.0,89.0
526,155.8241685,156.5268705,65.0,94.0
527,156.432276,156.78362700000002,53.0,67.0
528,155.8241685,157.08261318750002,41.0,88.0
529,156.63497850000002,157.270113,69.0,93.0
530,156.63497850000002,157.3106535,60.0,91.0
531,156.63497850000002,157.33092375,65.0,100.0
532,157.04038350000002,157.35288318750003,53.0,84.0
533,157.44578850000002,158.18734181250002,64.0,98.0
534,157.44578850000002,158.199166125,67.0,93.0
535,157.44578850000002,158.20592287500003,60.0,90.0
536,158.053896,158.3190984375,55.0,77.0
537,158.66200350000003,158.75490881250002,55.0,83.0
538,157.44578850000002,158.80389525,48.0,86.0
539,158.25659850000002,158.8562600625,64.0,102.0
540,158.25659850000002,158.87484112500002,67.0,96.0
541,158.25659850000002,158.89342218750002,60.0,91.0
542,159.06740850000003,159.61808362500003,67.0,98.0
543,159.06740850000003,159.67551600000002,62.0,96.0
544,159.06740850000003,159.74815106250003,58.0,88.0
545,159.67551600000002,159.95423193750003,55.0,74.0
546,159.8782185,160.239704625,58.0,89.0
547,159.8782185,160.33936668750002,67.0,108.0
548,159.06740850000003,160.38328556250002,43.0,86.0
549,159.8782185,160.65524475,62.0,96.0
550,160.2836235,160.665379875,55.0,69.0
551,160.6890285,161.21098743750002,69.0,87.0
552,160.6890285,161.22956850000003,60.0,86.0
553,160.6890285,161.22956850000003,64.0,91.0
554,161.29713600000002,161.75490581250003,69.0,86.0
555,161.29713600000002,161.783622,60.0,85.0
556,161.29713600000002,161.79544631250002,64.0,88.0
557,161.70254100000002,161.955919125,52.0,80.0
558,160.6890285,162.17720268750003,45.0,82.0
559,161.9052435,162.19240537500002,69.0,90.0
560,161.9052435,162.19916212500002,60.0,91.0
561,161.9052435,162.2481485625,64.0,94.0
562,162.3106485,162.9880126875,65.0,89.0
563,162.3106485,163.0403775,69.0,88.0
564,162.3106485,163.091053125,62.0,92.0
565,162.3106485,164.34780862500003,50.0,71.0
566,163.12145850000002,164.523484125,69.0,84.0
567,163.12145850000002,164.52686250000002,65.0,85.0
568,163.12145850000002,164.58936243750003,62.0,80.0
569,164.74307850000002,165.01672687500002,62.0,88.0
570,165.14848350000003,165.486321,62.0,78.0
571,164.945781,165.5555776875,65.0,86.0
572,165.14848350000003,165.5555776875,69.0,92.0
573,164.540376,165.57584793750001,50.0,89.0
574,165.55388850000003,165.57584793750001,50.0,104.0
575,166.3646985,166.7886845625,62.0,88.0
576,165.9592935,166.83598181250002,57.0,83.0
577,166.7701035,167.56908918750003,65.0,93.0
578,167.5809135,168.31739925000002,57.0,80.0
579,167.1755085,168.34104787500002,48.0,86.0
580,167.9863185,168.8967905625,60.0,86.0
581,170.01334350000002,170.40861337500002,64.0,86.0
582,169.20253350000002,171.4913825625,53.0,76.0
583,169.60793850000002,171.5251663125,58.0,79.0
584,168.7971285,171.53192306250003,46.0,83.0
585,170.41874850000002,172.12313868750002,65.0,82.0
586,170.41874850000002,172.4474626875,62.0,84.0
587,172.04036850000003,173.1805700625,50.0,88.0
588,172.4457735,173.19577275,57.0,73.0
589,172.8511785,173.85624506250002,62.0,78.0
590,173.2565835,173.97786656250003,65.0,84.0
591,174.0673935,174.8427305625,58.0,71.0
592,173.6619885,174.901852125,46.0,85.0
593,174.4727985,174.9204331875,70.0,83.0
594,174.4727985,175.307257125,62.0,82.0
595,175.2836085,176.39002631250003,69.0,83.0
596,175.2836085,176.51164781250003,60.0,83.0
597,176.49982350000002,176.8832690625,62.0,77.0
598,175.68901350000002,177.976173375,52.0,64.0
599,175.2836085,177.9778625625,45.0,80.0
600,176.09441850000002,178.0724570625,57.0,77.0
601,176.90522850000002,178.26502443750002,64.0,77.0
602,176.90522850000002,178.270092,69.0,73.0
603,176.90522850000002,178.3055649375,60.0,71.0
604,178.52684850000003,181.18225125,50.0,87.0
605,178.93225350000003,181.18225125,57.0,77.0
606,179.3376585,181.58765625,62.0,78.0
607,180.1484685,182.1028584375,65.0,82.0
608,179.7430635,182.12481787500002,69.0,81.0
609,181.7700885,182.9069116875,41.0,84.0
610,182.58089850000002,183.00319537500002,57.0,67.0
611,182.98630350000002,183.40860037500002,65.0,76.0
612,182.17549350000002,183.4136679375,53.0,71.0
613,184.60792350000003,185.01163931250002,62.0,76.0
614,184.20251850000002,185.0589365625,60.0,73.0
615,183.79711350000002,185.0944095,55.0,74.0
616,183.39170850000002,185.13326081250003,48.0,76.0
617,185.01332850000003,186.19575975,43.0,83.0
618,185.41873350000003,186.28528668750002,50.0,79.0
619,185.8241385,186.33934068750003,58.0,77.0
620,186.2295435,187.00319137500003,62.0,66.0
621,186.6349485,187.88156887500003,45.0,78.0
622,187.0403535,187.9170418125,52.0,65.0
623,187.4457585,187.98123093750002,60.0,78.0
624,187.8511635,188.5724465625,64.0,71.0
625,189.47278350000002,189.83426962500002,67.0,70.0
626,189.06737850000002,190.7616335625,62.0,77.0
627,188.66197350000002,190.85116050000002,57.0,72.0
628,189.87818850000002,190.86129562500003,65.0,76.0
629,188.25656850000001,190.86974156250002,50.0,86.0
630,191.49980850000003,191.75487581250002,77.0,87.0
631,191.49980850000003,191.96433506250003,69.0,87.0
632,191.49980850000003,192.01669987500003,62.0,86.0
633,191.49980850000003,192.03190256250002,65.0,86.0
634,191.49980850000003,192.51332100000002,50.0,87.0
635,191.90521350000003,192.7160235,57.0,38.0
636,192.3106185,192.78190181250002,69.0,87.0
637,192.3106185,192.8123071875,62.0,87.0
638,192.3106185,192.84946931250002,65.0,88.0
639,193.1214285,193.52007675000002,69.0,87.0
640,193.1214285,193.577509125,62.0,86.0
641,193.1214285,193.58933343750002,65.0,87.0
642,192.7160235,193.9322385,50.0,100.0
643,193.9322385,194.13494100000003,65.0,91.0
644,193.9322385,194.216022,69.0,89.0
645,193.9322385,194.2346030625,62.0,89.0
646,193.5268335,194.26163006250002,57.0,64.0
647,194.3376435,194.54034600000003,65.0,97.0
648,194.3376435,194.74304850000001,50.0,100.0
649,194.54034600000003,194.74304850000001,69.0,97.0
650,194.74304850000001,195.3106155,69.0,88.0
651,194.74304850000001,195.33933168750002,65.0,89.0
652,194.74304850000001,195.34439925,62.0,87.0
653,195.55385850000002,196.10791200000003,69.0,86.0
654,195.55385850000002,196.16872275000003,65.0,84.0
655,195.55385850000002,196.1704119375,62.0,84.0
656,194.74304850000001,196.77007350000002,46.0,83.0
657,196.36466850000002,196.8697355625,69.0,87.0
658,196.36466850000002,196.95926250000002,65.0,84.0
659,196.36466850000002,196.962640875,62.0,85.0
660,197.17547850000003,197.428856625,69.0,85.0
661,197.17547850000003,197.47953225,65.0,85.0
662,195.14845350000002,197.550478125,58.0,42.0
663,197.17547850000003,197.67378881250002,62.0,83.0
664,197.58088350000003,197.68223475000002,65.0,97.0
665,197.783586,197.88493725,69.0,97.0
666,197.58088350000003,197.98628850000003,46.0,100.0
667,197.98628850000003,198.40858537500003,69.0,87.0
668,197.98628850000003,198.46432856250001,62.0,87.0
669,197.98628850000003,198.46939612500003,65.0,88.0
670,197.98628850000003,198.99980100000002,50.0,76.0
671,198.39169350000003,199.15351706250001,57.0,58.0
672,198.7970985,199.2650034375,69.0,88.0
673,198.7970985,199.27851693750003,62.0,88.0
674,198.7970985,199.30216556250002,65.0,89.0
675,199.6079085,200.07581343750002,69.0,83.0
676,199.6079085,200.23290787500002,65.0,80.0
677,199.6079085,200.23628625,62.0,77.0
678,199.2025035,200.4187185,50.0,80.0
679,200.4187185,200.8241235,62.0,85.0
680,200.4187185,200.8241235,65.0,83.0
681,200.4187185,200.8241235,69.0,85.0
682,200.8241235,200.92547475,62.0,97.0
683,200.8241235,201.12817725000002,50.0,100.0
684,201.02682600000003,201.12817725000002,65.0,97.0
685,201.22952850000001,201.80723062500002,69.0,85.0
686,201.22952850000001,201.82412250000002,64.0,87.0
687,201.22952850000001,201.8663521875,60.0,82.0
688,201.22952850000001,202.29202743750002,57.0,73.0
689,202.04033850000002,202.57412175000002,69.0,86.0
690,201.22952850000001,202.60114875000002,45.0,74.0
691,202.04033850000002,202.6906756875,60.0,82.0
692,202.04033850000002,202.69743243750003,64.0,86.0
693,202.44574350000002,202.89506737500002,57.0,70.0
694,202.85114850000002,203.46939112500002,69.0,86.0
695,202.85114850000002,203.47952625000002,60.0,81.0
696,202.85114850000002,203.49641812500002,64.0,86.0
697,203.66195850000003,203.9677014375,60.0,81.0
698,203.25655350000002,204.05891756250003,52.0,66.0
699,202.85114850000002,204.06060675,45.0,77.0
700,203.864661,204.15857962500002,64.0,86.0
701,203.459256,204.46939012500002,57.0,80.0
702,204.06736350000003,204.9406734375,69.0,87.0
703,204.47276850000003,205.02175443750002,65.0,87.0
704,204.47276850000003,205.03695712500001,62.0,84.0
705,204.47276850000003,205.6889835,50.0,82.0
706,205.2835785,205.73965912500003,69.0,86.0
707,205.2835785,205.7582401875,65.0,86.0
708,205.2835785,205.759929375,62.0,85.0
709,205.6889835,206.19573975000003,57.0,50.0
710,206.0943885,206.5352664375,69.0,84.0
711,206.0943885,206.57242856250002,65.0,83.0
712,206.0943885,206.57918531250002,62.0,82.0
713,205.6889835,206.70249600000002,50.0,100.0
714,206.9051985,207.19911712500001,69.0,87.0
715,206.9051985,207.20925225000002,62.0,88.0
716,206.4997935,207.21263062500003,57.0,54.0
717,206.9051985,207.22107656250003,65.0,87.0
718,207.3106035,207.41195475,62.0,97.0
719,207.51330600000003,207.61465725000002,65.0,97.0
720,207.3106035,207.71600850000002,50.0,100.0
721,207.71600850000002,208.21094043750003,69.0,83.0
722,207.71600850000002,208.21769718750002,65.0,81.0
723,207.71600850000002,208.22276475,60.0,78.0
724,208.12141350000002,208.6619535,53.0,64.0
725,208.52681850000002,209.0656693125,60.0,83.0
726,208.52681850000002,209.07073687500002,69.0,84.0
727,207.71600850000002,209.134926,41.0,84.0
728,208.52681850000002,209.145061125,65.0,82.0
729,209.33762850000002,209.71600650000002,67.0,78.0
730,209.33762850000002,209.7818848125,64.0,86.0
731,209.33762850000002,209.80215506250002,60.0,82.0
732,209.33762850000002,210.351141,48.0,78.0
733,209.74303350000002,210.52512731250002,55.0,46.0
734,210.14843850000003,210.57918131250003,60.0,85.0
735,210.14843850000003,210.5825596875,67.0,86.0
736,210.14843850000003,210.58931643750003,64.0,86.0
737,210.55384350000003,210.95924850000003,48.0,100.0
738,210.95924850000003,211.39674806250002,67.0,80.0
739,210.95924850000003,211.39674806250002,67.0,89.0
740,210.95924850000003,211.59438300000002,58.0,87.0
741,211.36465350000003,211.88661243750002,50.0,65.0
742,211.77005850000003,212.23120668750002,58.0,86.0
743,211.77005850000003,212.35789575,67.0,89.0
744,212.1754635,212.4271524375,50.0,73.0
745,210.95924850000003,212.5808685,43.0,82.0
746,212.5808685,213.07917881250003,64.0,85.0
747,212.5808685,213.09269231250002,60.0,79.0
748,212.5808685,213.11803012500002,67.0,79.0
749,212.5808685,213.35113800000002,48.0,84.0
750,213.3916785,213.69573225000002,60.0,83.0
751,213.3916785,213.91363743750003,67.0,79.0
752,213.3916785,213.9845833125,57.0,83.0
753,213.7970835,213.99978600000003,60.0,85.0
754,213.3916785,214.097758875,45.0,77.0
755,213.99978600000003,214.20248850000002,64.0,90.0
756,214.20248850000002,214.59269081250002,57.0,80.0
757,214.20248850000002,214.72106906250002,62.0,83.0
758,214.20248850000002,214.92714993750002,65.0,87.0
759,214.20248850000002,215.216001,50.0,88.0
760,215.01329850000002,215.52343312500003,65.0,87.0
761,215.01329850000002,215.5538385,62.0,88.0
762,215.41870350000002,216.1399865625,57.0,38.0
763,215.82410850000002,216.51160781250002,65.0,86.0
764,215.82410850000002,216.51498618750003,62.0,86.0
765,215.41870350000002,216.837621,50.0,82.0
766,216.63491850000003,216.90012093750002,62.0,88.0
767,216.837621,217.09268831250003,64.0,87.0
768,216.432216,217.18728281250003,57.0,73.0
769,217.04032350000003,217.24302600000001,50.0,90.0
770,217.44572850000003,217.93728206250003,69.0,86.0
771,217.04032350000003,217.94234962500002,65.0,87.0
772,217.44572850000003,217.972755,62.0,84.0
773,217.85113350000003,218.45417343750003,57.0,75.0
774,218.25653850000003,218.68221375000002,69.0,84.0
775,218.25653850000003,218.71937587500003,65.0,85.0
776,218.25653850000003,218.72106506250003,62.0,86.0
777,218.6619435,219.15856462500003,57.0,79.0
778,219.0673485,219.52680750000002,69.0,86.0
779,219.0673485,219.55721287500003,62.0,86.0
780,219.0673485,219.567348,65.0,86.0
781,219.4727535,220.00653675,57.0,78.0
782,217.44572850000003,220.0149826875,50.0,85.0
783,219.8781585,220.2835635,62.0,87.0
784,220.2835635,220.38491475,62.0,97.0
785,219.8781585,220.40011743750003,69.0,87.0
786,220.48626600000003,220.58761725000002,65.0,97.0
787,220.2835635,220.68896850000002,48.0,84.0
788,220.68896850000002,221.18221125000002,69.0,89.0
789,220.68896850000002,221.22275175000001,62.0,88.0
790,221.09437350000002,221.5825486875,58.0,75.0
791,220.68896850000002,221.92038618750001,46.0,84.0
792,221.49977850000002,222.19234537500003,62.0,89.0
793,221.49977850000002,222.20923725000003,69.0,88.0
794,221.90518350000002,222.36126412500002,58.0,78.0
795,222.31058850000002,222.92883112500002,69.0,89.0
796,222.31058850000002,222.9609256875,62.0,89.0
797,222.918696,223.29369562500003,53.0,74.0
798,223.12139850000003,223.52680350000003,62.0,92.0
799,222.31058850000002,223.55889806250002,46.0,78.0
800,223.52680350000003,223.63491150000002,58.0,77.0
801,223.12139850000003,223.67883037500002,69.0,94.0
802,223.72950600000001,223.83085725,62.0,97.0
803,223.93220850000003,224.3916675,69.0,87.0
804,223.93220850000003,224.45585662500002,62.0,86.0
805,223.93220850000003,224.45754581250003,65.0,87.0
806,223.93220850000003,224.94572100000002,50.0,82.0
807,224.74301850000003,225.20754506250003,69.0,88.0
808,224.74301850000003,225.24808556250002,62.0,87.0
809,224.74301850000003,225.26497743750002,65.0,88.0
810,224.33761350000003,225.64504462500003,57.0,52.0
811,225.5538285,226.01666587500003,69.0,84.0
812,225.5538285,226.03524693750003,62.0,86.0
813,225.5538285,226.06058475000003,65.0,85.0
814,225.1484235,226.16193600000003,50.0,89.0
815,225.9592335,226.53017887500002,57.0,64.0
816,226.3646385,226.7700435,62.0,87.0
817,226.7700435,226.87139475,62.0,97.0
818,226.3646385,226.87139475,65.0,88.0
819,226.3646385,226.92207037500003,69.0,87.0
820,226.7700435,226.97274600000003,50.0,86.0
821,226.97274600000003,227.07409725000002,65.0,97.0
822,227.17544850000002,227.726123625,69.0,88.0
823,227.17544850000002,227.78355600000003,64.0,87.0
824,227.17544850000002,227.793691125,60.0,87.0
825,227.17544850000002,228.53355525,45.0,81.0
826,227.98625850000002,228.57071737500002,69.0,87.0
827,227.98625850000002,228.64842000000002,60.0,86.0
828,227.98625850000002,228.7413253125,64.0,89.0
829,228.39166350000002,228.92037918750003,52.0,76.0
830,228.79706850000002,229.3967300625,60.0,84.0
831,228.79706850000002,229.41024356250003,69.0,87.0
832,228.79706850000002,229.4136219375,64.0,86.0
833,229.405176,229.72105406250003,52.0,71.0
834,229.60787850000003,230.01328350000003,64.0,92.0
835,229.60787850000003,230.09605368750002,60.0,88.0
836,230.01328350000003,230.11463475000002,64.0,97.0
837,230.01328350000003,230.12476987500003,52.0,72.0
838,228.79706850000002,230.21598600000002,45.0,71.0
839,229.60787850000003,230.23625625000003,69.0,89.0
840,230.21598600000002,230.31733725,60.0,97.0
841,230.41868850000003,230.861255625,69.0,86.0
842,230.41868850000003,230.86294481250002,65.0,89.0
843,230.41868850000003,230.88997181250002,62.0,87.0
844,230.82409350000003,231.31226868750002,57.0,68.0
845,230.41868850000003,231.7210520625,50.0,84.0
846,231.22949850000003,231.7818628125,69.0,87.0
847,231.43220100000002,231.89841675000002,57.0,68.0
848,231.22949850000003,231.92544375000003,62.0,88.0
849,231.83760600000002,232.52003775000003,69.0,91.0
850,232.0403085,232.57747012500002,62.0,84.0
851,232.64841600000003,232.77510506250002,62.0,40.0
852,232.4457135,233.0487534375,57.0,75.0
853,232.0403085,233.06395612500003,50.0,80.0
854,232.8511185,233.185577625,69.0,78.0
855,232.8511185,233.324091,60.0,88.0
856,233.25652350000001,233.65517175000002,62.0,87.0
857,233.66192850000002,234.15854962500003,65.0,84.0
858,233.66192850000002,234.16868475,69.0,80.0
859,233.66192850000002,234.26327925,60.0,85.0
860,234.06733350000002,234.51834656250003,53.0,63.0
861,233.66192850000002,234.87645431250002,41.0,83.0
862,234.47273850000002,235.08591356250002,69.0,86.0
863,234.47273850000002,235.12645406250002,60.0,86.0
864,234.47273850000002,235.18050806250002,65.0,86.0
865,234.87814350000002,235.30719712500002,53.0,81.0
866,235.28354850000002,235.7615885625,67.0,79.0
867,235.28354850000002,235.83253443750002,64.0,89.0
868,235.28354850000002,235.8392911875,60.0,82.0
869,236.09435850000003,236.49976350000003,60.0,84.0
870,236.09435850000003,236.51665537500003,67.0,85.0
871,235.68895350000003,236.52172293750002,55.0,67.0
872,236.09435850000003,236.55043912500003,64.0,88.0
873,236.49976350000003,236.60111475000002,60.0,97.0
874,236.70246600000002,236.80381725,64.0,97.0
875,235.28354850000002,236.90516850000003,48.0,76.0
876,236.90516850000003,237.3376005,67.0,84.0
877,236.90516850000003,237.34435725000003,62.0,88.0
878,236.90516850000003,237.432195,58.0,93.0
879,237.31057350000003,237.74638387500002,55.0,42.0
880,237.71597850000003,238.09435650000003,58.0,86.0
881,237.71597850000003,238.1061808125,67.0,89.0
882,236.90516850000003,238.1484105,43.0,81.0
883,237.71597850000003,238.16192400000003,62.0,91.0
884,238.1213835,238.49807231250003,55.0,82.0
885,238.5267885,239.04030150000003,67.0,87.0
886,238.5267885,239.13320681250002,60.0,86.0
887,238.9321935,239.42036868750003,52.0,71.0
888,239.3375985,239.74300350000001,67.0,89.0
889,238.5267885,239.78016562500002,45.0,79.0
890,239.3375985,239.8629358125,60.0,86.0
891,239.74300350000001,239.87138175,52.0,75.0
892,239.94570600000003,240.04705725000002,57.0,97.0
893,240.14840850000002,240.73455656250002,69.0,87.0
894,240.14840850000002,240.84097537500003,62.0,81.0
895,240.55381350000002,241.04029950000003,57.0,60.0
896,240.14840850000002,241.38489375000003,50.0,76.0
897,240.95921850000002,241.58083950000002,62.0,83.0
898,240.95921850000002,241.72779881250003,67.0,88.0
899,241.36462350000002,241.78185281250003,57.0,64.0
900,241.77002850000002,242.58083850000003,50.0,74.0
901,241.77002850000002,242.73624375000003,62.0,83.0
902,242.58083850000003,242.73624375000003,62.0,83.0
903,241.77002850000002,242.74131131250002,65.0,84.0
904,242.58083850000003,242.88827062500002,69.0,82.0
905,242.98624350000003,243.39164850000003,50.0,81.0
906,243.39164850000003,244.03860731250003,67.0,85.0
907,243.39164850000003,244.1264450625,58.0,84.0
908,243.39164850000003,244.40516100000002,43.0,73.0
909,244.20245850000003,244.6078635,58.0,84.0
910,244.20245850000003,244.69570125,67.0,86.0
911,244.6078635,244.81056600000002,43.0,100.0
912,245.0132685,245.59434900000002,67.0,87.0
913,245.0132685,245.67374081250003,60.0,83.0
914,245.8240785,246.37982118750003,60.0,86.0
915,245.0132685,246.43218600000003,45.0,77.0
916,245.8240785,246.58759125000003,67.0,89.0
917,246.63488850000002,247.3831985625,62.0,83.0
918,246.63488850000002,247.38488775000002,69.0,87.0
919,247.04029350000002,247.58759025000003,57.0,66.0
920,246.63488850000002,247.92036018750002,50.0,74.0
921,247.44569850000002,248.20752206250003,67.0,87.0
922,247.85110350000002,248.30380575,57.0,69.0
923,248.25650850000002,248.91360243750003,65.0,86.0
924,247.44569850000002,248.9237375625,62.0,80.0
925,249.06731850000003,249.7007638125,62.0,79.0
926,249.06731850000003,249.71934487500002,65.0,84.0
927,248.25650850000002,249.78353400000003,50.0,81.0
928,249.87812850000003,251.0183300625,50.0,90.0
929,250.28353350000003,251.48623500000002,55.0,72.0
930,250.68893850000003,251.543667375,58.0,83.0
931,251.09434350000004,251.66866725000003,62.0,80.0
932,251.4997485,252.83927418750002,45.0,82.0
933,252.3105585,252.86461200000002,60.0,73.0
934,251.9051535,252.87305793750002,52.0,67.0
935,252.71596350000002,253.49636812500003,64.0,82.0
936,253.93217850000002,254.65177237500004,62.0,73.0
937,254.33758350000002,254.71427231250001,65.0,77.0
938,253.52677350000002,254.80548843750003,57.0,67.0
939,254.74298850000002,255.45075806250003,69.0,83.0
940,253.12136850000002,255.9710278125,50.0,81.0
941,255.55379850000003,256.38487875000004,62.0,69.0
942,255.14839350000003,256.408527375,57.0,67.0
943,255.95920350000003,256.83082425000003,65.0,75.0
944,257.17541850000003,257.6162964375,62.0,71.0
945,257.5808235,257.96764743750003,65.0,75.0
946,256.7700135,258.00143118750003,57.0,78.0
947,257.98622850000004,258.5994035625,69.0,75.0
948,258.3916335,258.9473761875,57.0,66.0
949,258.79703850000004,259.2379164375,65.0,81.0
950,256.36460850000003,259.31224068750004,50.0,79.0
951,259.2024435,260.4980503125,62.0,69.0
952,259.60784850000005,260.5757529375,69.0,67.0
953,259.60784850000005,260.594334,50.0,64.0
