,start,end,pitch,velocity
0,28.517129941666663,28.70891080833333,61.0,122.0
1,28.722609441666663,28.967472512499995,59.0,71.0
2,28.928088941666662,29.080486237499997,61.0,95.0
3,29.13356844166666,29.393842474999996,61.0,96.0
4,29.544527441666663,29.78254119583333,59.0,95.0
5,29.750006941666662,29.888705604166663,61.0,102.0
6,29.95548644166666,30.24487007083333,61.0,107.0
7,30.366445441666663,30.97432229583333,57.0,100.0
8,30.982883941666664,31.08562369166666,64.0,112.0
9,31.188363441666663,31.393842941666662,64.0,95.0
10,31.393842941666662,33.30480229166666,61.0,90.0
11,35.09247394166666,35.291104125,61.0,117.0
12,35.297953441666664,35.50000828333333,59.0,67.0
13,35.50343294166666,35.76028231666666,61.0,112.0
14,35.914391941666665,36.04110429999999,59.0,96.0
15,36.11987144166666,36.445213983333325,61.0,107.0
16,36.53083044166666,36.89555655416666,61.0,112.0
17,37.14726894166666,37.43494024166666,61.0,127.0
18,37.55822794166666,37.74658415,59.0,107.0
19,37.76370744166666,38.16781712499999,61.0,102.0
20,38.38014594166666,40.39213271249999,52.0,97.0
21,41.66781794166666,41.859598808333324,66.0,117.0
22,41.87329744166666,42.02740706666666,64.0,68.0
23,42.07877694166666,42.32535234166666,66.0,122.0
24,42.48973594166666,42.62672227499999,64.0,100.0
25,42.69521544166666,43.04281826249999,66.0,122.0
26,43.10617444166666,43.38699642499999,69.0,112.0
27,43.51713344166666,43.70891430833333,69.0,117.0
28,43.72261294166666,43.83048967916666,69.0,127.0
29,43.928092441666664,44.19007880416666,69.0,117.0
30,44.33905144166666,44.48288709166666,61.0,92.0
31,44.54453094166666,44.94521596666666,61.0,73.0
32,44.95548994166666,45.57706542916666,64.0,102.0
33,48.243161941666656,48.342477033333324,59.0,93.0
34,48.44864144166666,48.54453187499999,59.0,72.0
35,48.65412094166666,48.88871003749999,59.0,97.0
36,48.85960044166666,49.09590186666666,61.0,112.0
37,49.06507994166666,49.375011520833326,64.0,99.0
38,49.47603894166666,49.99487467916666,64.0,122.0
39,50.70891594166666,50.93151873333333,59.0,99.0
40,50.914395441666656,51.195217424999996,61.0,86.0
41,51.11987494166666,53.561656333333325,57.0,92.0
42,54.81850594166666,55.010286808333326,61.0,122.0
43,55.02398544166666,55.26884851249999,59.0,71.0
44,55.229464941666656,55.789396579166656,61.0,95.0
45,55.84590344166666,56.08391719583332,59.0,95.0
46,56.05138294166666,56.19008160416666,61.0,102.0
47,56.46234194166666,56.54967072916666,61.0,127.0
48,56.66782144166666,56.753437899999994,61.0,99.0
49,56.873300941666656,57.133574974999995,61.0,127.0
50,57.28425994166666,57.44693121249999,59.0,127.0
51,57.48973944166666,57.73802717083333,57.0,97.0
52,57.69521894166666,58.14384918333332,64.0,117.0
53,58.10617794166666,60.047959216666655,61.0,117.0
54,61.39384994166666,61.592480124999994,61.0,117.0
55,61.59932944166666,61.80138428333333,59.0,67.0
56,61.80480894166666,62.06165831666666,61.0,112.0
57,62.215767941666655,62.34248029999999,59.0,96.0
58,62.42124744166666,62.74658998333332,61.0,107.0
59,62.832206441666656,63.19693255416666,61.0,112.0
60,63.44864494166666,63.73631624166666,61.0,127.0
61,63.859603941666656,64.04796015,59.0,107.0
62,64.06508344166666,64.46919312499999,61.0,102.0
63,64.68152194166666,66.69350871249999,52.0,97.0
64,67.96919394166666,68.16097480833332,66.0,117.0
65,68.17467344166666,68.32878306666666,64.0,68.0
66,68.38015294166665,68.62672834166666,66.0,122.0
67,68.79111194166666,68.90926265416665,69.0,127.0
68,68.99659144166665,69.26200246249999,69.0,122.0
69,69.61302994166665,69.88700260833332,69.0,117.0
70,70.02398894166666,70.263715025,69.0,127.0
71,70.43494794166665,70.57878359166666,61.0,92.0
72,70.64042744166666,71.29796184166666,61.0,73.0
73,71.25686594166666,72.750016975,64.0,102.0
74,74.54453794166666,74.64385303333333,59.0,93.0
75,74.75001744166666,74.845907875,59.0,72.0
76,74.95549694166665,75.1900860375,59.0,97.0
77,75.16097644166666,75.39727786666666,61.0,112.0
78,75.57193544166665,75.80481220833332,61.0,112.0
79,75.98289444166666,76.1661136625,64.0,112.0
80,76.18837394166665,76.55652471249999,64.0,99.0
81,76.80481244166666,77.34248379999998,61.0,117.0
82,77.42125094166666,79.57364870416666,57.0,90.0
83,81.11988194166666,81.30652582083333,69.0,117.0
84,81.32536144166666,81.52741628333332,66.0,97.0
85,81.53084094166665,81.68837522499999,69.0,112.0
86,81.73632044166665,81.95207391666665,69.0,112.0
87,82.14727944166665,82.26029316666666,69.0,112.0
88,82.35275894166665,82.58049872083332,69.0,127.0
89,82.76371794166666,82.86132070416666,69.0,127.0
90,82.96919744166665,83.28084134999999,69.0,122.0
91,83.58563594166665,83.98803329583332,66.0,127.0
92,83.99659494166666,85.75515699583332,64.0,117.0
93,87.69522594166665,87.88700680833333,69.0,112.0
94,87.90070544166666,88.11645891666666,66.0,96.0
95,88.10618494166665,88.22604798333332,69.0,102.0
96,88.31166444166665,88.5462535375,69.0,122.0
97,88.72262344166666,88.96919884166665,69.0,127.0
98,89.13358244166666,89.60960994999999,69.0,127.0
99,89.75002094166665,89.88187028749999,69.0,112.0
100,89.95550044166666,90.21748680416665,69.0,100.0
101,90.36645944166665,90.48118549583332,61.0,96.0
102,90.57193894166666,90.97091163749998,61.0,112.0
103,90.98289794166665,92.52228186249998,64.0,99.0
104,94.27056994166665,94.46920012499999,69.0,112.0
105,94.47604944166666,94.66954263749999,66.0,92.0
106,94.68152894166666,94.84420021249998,69.0,102.0
107,94.88700844166665,95.08906328333332,69.0,112.0
108,95.29796744166666,95.41954281249998,69.0,100.0
109,95.50344694166665,95.65413190833333,69.0,122.0
110,95.70892644166665,95.96235115833332,73.0,127.0
111,96.11988544166665,96.67639242083332,73.0,127.0
112,96.73632394166665,97.14385828333332,66.0,122.0
113,97.14728294166666,99.20036561249998,64.0,117.0
114,100.84591394166665,100.92810574166666,59.0,107.0
115,101.05139344166665,101.13872222916665,59.0,96.0
116,101.25687294166666,101.51029765833331,59.0,100.0
117,101.46235244166665,101.67981824583332,61.0,117.0
118,101.87331144166666,102.04796901666666,61.0,112.0
119,102.07879094166665,102.23461289583332,64.0,107.0
120,102.28427044166665,102.51372254999998,64.0,112.0
121,102.90070894166665,103.22091449583331,61.0,127.0
122,103.31166794166666,103.50173647916665,59.0,102.0
123,103.51714744166665,103.95892836666665,61.0,107.0
124,103.92810644166666,106.55310705416665,57.0,97.0
125,107.42125794166665,107.61303880833331,61.0,122.0
126,107.62673744166665,107.87160051249998,59.0,71.0
127,107.83221694166666,107.98461423749998,61.0,95.0
128,108.03769644166665,108.29797047499999,61.0,96.0
129,108.44865544166665,108.54454587499998,61.0,122.0
130,108.65413494166665,108.88187472083332,61.0,117.0
131,109.47605294166665,109.88016262499998,61.0,122.0
132,109.88701194166666,110.02399827499998,57.0,93.0
133,110.09249144166665,110.37160109583331,64.0,122.0
134,110.70892994166665,112.56680708749998,61.0,117.0
135,113.99660194166665,114.19523212499999,61.0,117.0
136,114.20208144166665,114.40413628333332,59.0,67.0
137,114.40756094166665,114.66441031666665,61.0,112.0
138,114.81851994166665,114.94523229999999,59.0,96.0
139,115.02399944166665,115.34934198333332,61.0,107.0
140,115.43495844166665,115.79968455416665,61.0,112.0
141,115.84591744166666,116.04454762499998,52.0,97.0
142,116.05139694166665,116.33906824166665,61.0,127.0
143,116.46235594166664,116.65071214999999,59.0,107.0
144,116.66783544166665,117.07194512499998,61.0,102.0
145,117.28427394166665,119.29626071249999,52.0,97.0
146,120.57194594166666,120.76372680833332,66.0,117.0
147,120.77742544166665,120.93153506666665,64.0,68.0
148,120.98290494166665,121.22948034166664,66.0,122.0
149,121.39386394166665,121.49146670416665,69.0,112.0
150,121.59934344166665,121.92811064166665,69.0,107.0
151,122.21578194166665,122.31167237499999,69.0,112.0
152,122.42126144166664,122.51886420416665,69.0,97.0
153,122.62674094166665,122.82708345416665,69.0,122.0
154,122.83222044166665,122.94865882499998,69.0,127.0
155,123.24317944166665,123.38701509166665,61.0,92.0
156,123.44865894166665,123.84934396666665,61.0,73.0
157,123.85961794166666,126.32023495416665,64.0,102.0
158,127.14728994166664,127.24660503333331,59.0,93.0
159,127.35276944166665,127.44865987499998,59.0,72.0
160,127.55824894166665,127.79283803749998,59.0,97.0
161,127.96920794166665,128.21578334166665,61.0,112.0
162,128.17468744166666,128.47263271666665,64.0,112.0
163,128.79112594166665,128.9589342,64.0,127.0
164,129.20208494166664,129.57708502916665,61.0,122.0
165,129.61304394166666,129.8356467333333,59.0,99.0
166,129.81852344166666,130.099345425,61.0,86.0
167,130.43496194166664,132.9229762208333,57.0,95.0
168,160.02400994166663,160.2106538208333,69.0,117.0
169,160.22948944166666,160.43154428333332,66.0,97.0
170,160.43496894166665,160.59250322499997,69.0,112.0
171,160.64044844166665,160.85620191666663,69.0,112.0
172,161.05140744166664,161.16442116666664,69.0,112.0
173,161.25688694166664,161.48462672083332,69.0,127.0
174,161.66784594166666,161.76544870416663,69.0,127.0
175,161.87332544166665,162.18496935,69.0,122.0
176,162.48976394166664,162.89216129583332,66.0,127.0
177,162.90072294166666,164.6592849958333,64.0,117.0
178,166.59935394166664,166.7911348083333,69.0,112.0
179,166.80483344166663,167.02058691666664,66.0,96.0
180,167.01031294166665,167.13017598333332,69.0,102.0
181,167.21579244166665,167.45038153749996,69.0,122.0
182,167.62675144166664,167.87332684166665,69.0,127.0
183,168.03771044166663,168.51373794999998,69.0,127.0
184,168.65414894166665,168.78599828749998,69.0,112.0
185,168.85962844166664,169.12161480416665,69.0,100.0
186,169.27058744166663,169.38531349583332,61.0,96.0
187,169.47606694166663,169.87503963749998,61.0,112.0
188,169.88702594166665,171.42640986249998,64.0,99.0
189,173.17469794166664,173.37332812499997,69.0,112.0
190,173.38017744166663,173.5736706375,66.0,92.0
191,173.58565694166666,173.74832821249998,69.0,102.0
192,173.79113644166665,173.99319128333332,69.0,112.0
193,174.20209544166664,174.32367081249998,69.0,100.0
194,174.40757494166664,174.5582599083333,69.0,122.0
195,174.61305444166663,174.8664791583333,73.0,127.0
196,175.02401344166665,175.5805204208333,73.0,127.0
197,175.64045194166664,176.0479862833333,66.0,122.0
198,176.05141094166663,178.10449361249997,64.0,117.0
199,179.75004194166664,179.83223374166664,59.0,107.0
200,179.95552144166663,180.04285022916665,59.0,96.0
201,180.16100094166663,180.4144256583333,59.0,100.0
202,180.36648044166665,180.58394624583332,61.0,117.0
203,180.77743944166664,180.95209701666664,61.0,112.0
204,180.98291894166664,181.1387408958333,64.0,107.0
205,181.18839844166664,181.41785054999997,64.0,112.0
206,181.80483694166665,182.1250424958333,61.0,127.0
207,182.21579594166664,182.40586447916664,59.0,102.0
208,182.42127544166664,182.86305636666665,61.0,107.0
209,182.83223444166663,185.45723505416663,57.0,97.0
210,186.32538594166664,186.51716680833331,61.0,122.0
211,186.53086544166663,186.77572851249997,59.0,71.0
212,186.73634494166663,186.88874223749997,61.0,95.0
213,186.94182444166665,187.20209847499999,61.0,96.0
214,187.35278344166665,187.44867387499997,61.0,122.0
215,187.55826294166664,187.7860027208333,61.0,117.0
216,188.38018094166665,188.78429062499998,61.0,122.0
217,188.79113994166664,188.92812627499998,57.0,93.0
218,188.99661944166664,189.2757290958333,64.0,122.0
219,189.61305794166665,191.47093508749998,61.0,117.0
220,192.90072994166664,193.09936012499998,61.0,117.0
221,193.10620944166664,193.3082642833333,59.0,67.0
222,193.31168894166663,193.56853831666663,61.0,112.0
223,193.72264794166665,193.84936029999997,59.0,96.0
224,193.92812744166665,194.2534699833333,61.0,107.0
225,194.33908644166664,194.70381255416663,61.0,112.0
226,194.75004544166663,194.94867562499996,52.0,97.0
227,194.95552494166665,195.24319624166665,61.0,127.0
228,195.36648394166664,195.55484014999996,59.0,107.0
229,195.57196344166664,195.97607312499997,61.0,102.0
230,196.18840194166663,198.20038871249997,52.0,97.0
231,199.47607394166664,199.66785480833332,66.0,117.0
232,199.68155344166664,199.83566306666663,64.0,68.0
233,199.88703294166663,200.13360834166664,66.0,122.0
234,200.29799194166665,200.39559470416663,69.0,112.0
235,200.50347144166665,200.83223864166663,69.0,107.0
236,201.11990994166663,201.21580037499996,69.0,112.0
237,201.32538944166663,201.42299220416663,69.0,97.0
238,201.53086894166663,201.73121145416664,69.0,122.0
239,201.73634844166665,201.85278682499998,69.0,127.0
240,202.14730744166664,202.29114309166664,61.0,92.0
241,202.35278694166664,202.75347196666664,61.0,73.0
242,202.76374594166663,205.22436295416665,64.0,102.0
243,206.05141794166664,206.1507330333333,59.0,93.0
244,206.25689744166664,206.35278787499996,59.0,72.0
245,206.46237694166663,206.69696603749998,59.0,97.0
246,206.87333594166662,207.11991134166664,61.0,112.0
247,207.07881544166665,207.37676071666664,64.0,112.0
248,207.69525394166664,207.86306219999997,64.0,127.0
249,208.10621294166663,208.48121302916664,61.0,122.0
250,208.51717194166665,208.7397747333333,59.0,99.0
251,208.72265144166664,209.00347342499998,61.0,86.0
252,209.33908994166663,210.57196694166663,57.0,95.0
