,start,end,pitch,velocity
0,1.8047949416666664,2.253425183333333,49.0,96.0
1,1.8047949416666664,2.297945741666666,45.0,83.0
2,2.2157539416666663,2.6815074749999996,52.0,89.0
3,2.6267129416666664,3.078767841666666,49.0,83.0
4,3.0376719416666664,3.5325350708333327,52.0,75.0
5,3.448630941666666,3.9126721458333327,49.0,68.0
6,3.859589941666666,4.357877729166666,52.0,76.0
7,4.270548941666666,4.705480549999999,49.0,83.0
8,2.6267129416666664,4.897261416666666,45.0,23.0
9,4.681507941666666,4.9212340249999995,52.0,82.0
10,1.8047949416666664,5.0633573458333325,33.0,83.0
11,5.092466941666666,5.534247866666666,52.0,95.0
12,5.092466941666666,5.577056095833332,56.0,102.0
13,5.5034259416666655,5.972604133333332,49.0,79.0
14,5.914384941666666,6.325343941666666,52.0,61.0
15,5.914384941666666,6.395549437499999,56.0,76.0
16,6.325343941666666,6.779111170833333,49.0,89.0
17,6.736302941666666,7.226029083333333,56.0,78.0
18,6.736302941666666,7.231166070833332,52.0,68.0
19,7.147261941666666,7.626714108333332,49.0,68.0
20,7.558220941666666,8.005138854166665,52.0,56.0
21,7.558220941666666,8.1010292875,56.0,88.0
22,7.969179941666666,8.284248508333333,49.0,62.0
23,5.092466941666666,8.359590991666666,37.0,64.0
24,8.380138941666665,8.8407554875,49.0,99.0
25,8.380138941666665,8.921234958333333,52.0,97.0
26,9.202056941666665,9.654111841666666,49.0,72.0
27,9.613015941666665,10.1455503125,52.0,90.0
28,10.023974941666665,10.541098349999999,49.0,86.0
29,8.791097941666665,10.563358629166665,45.0,76.0
30,10.434933941666666,10.914386108333332,52.0,76.0
31,10.845892941666666,11.398975262499999,49.0,78.0
32,11.256851941666666,11.470893087499999,52.0,72.0
33,8.380138941666665,11.703769854166666,33.0,67.0
34,11.667810941666666,12.092468574999998,52.0,66.0
35,11.667810941666666,12.107879537499999,56.0,97.0
36,12.078769941666666,12.568496083333331,49.0,64.0
37,12.489728941666664,12.972605766666664,52.0,66.0
38,12.489728941666664,12.998290704166665,56.0,67.0
39,12.900687941666664,13.390414083333331,49.0,63.0
40,13.311646941666664,13.75514019583333,52.0,66.0
41,13.311646941666664,13.761989512499998,56.0,72.0
42,13.722605941666664,14.236304691666664,49.0,59.0
43,14.133564941666664,14.525688320833332,52.0,61.0
44,14.133564941666664,14.60274313333333,56.0,81.0
45,14.544523941666665,14.803085645833331,49.0,63.0
46,11.667810941666666,14.945208966666664,37.0,89.0
47,14.955482941666665,15.453770729166665,54.0,96.0
48,14.955482941666665,15.467469362499997,50.0,77.0
49,15.777400941666665,16.2277435125,54.0,88.0
50,15.571921441666664,16.28253804583333,50.0,33.0
51,16.188359941666665,16.691784716666664,45.0,72.0
52,16.599318941666663,17.080483437499996,54.0,63.0
53,16.599318941666663,17.101031387499997,50.0,69.0
54,17.010277941666665,17.503428741666664,45.0,59.0
55,17.421236941666663,17.897264449999998,50.0,67.0
56,17.421236941666663,17.909250754166663,54.0,62.0
57,14.955482941666665,18.207196029166663,38.0,72.0
58,17.832195941666665,18.289387829166664,45.0,78.0
59,18.243154941666663,18.556511179166662,49.0,79.0
60,18.243154941666663,18.703771487499996,52.0,85.0
61,18.654113941666665,19.232881199999998,49.0,63.0
62,19.065072941666664,19.561648399999996,52.0,81.0
63,19.886990941666664,20.383566399999996,52.0,78.0
64,19.476031941666665,20.436648604166663,49.0,73.0
65,20.297949941666666,20.81336102083333,45.0,77.0
66,20.708908941666664,21.13185424583333,49.0,92.0
67,20.708908941666664,21.140415891666663,52.0,82.0
68,18.243154941666663,21.335621416666665,33.0,66.0
69,21.119867941666662,21.566785854166664,45.0,85.0
70,21.530826941666664,22.032539387499998,54.0,86.0
71,21.530826941666664,22.039388704166665,50.0,73.0
72,21.941785941666662,22.443498387499996,45.0,58.0
73,22.352744941666664,22.78082723333333,54.0,64.0
74,22.352744941666664,22.864731362499995,50.0,66.0
75,22.763703941666662,23.27911502083333,45.0,51.0
76,23.174662941666664,23.821923366666663,50.0,50.0
77,23.174662941666664,23.852745291666665,54.0,61.0
78,23.585621941666663,24.10103302083333,45.0,61.0
79,23.996580941666664,24.376718016666665,54.0,69.0
80,21.530826941666664,24.410964599999996,38.0,64.0
81,24.407539941666663,24.68493726666666,45.0,66.0
82,23.996580941666664,24.72260850833333,50.0,72.0
83,24.818498941666665,28.125006562499998,47.0,112.0
84,24.818498941666665,28.186650412499997,56.0,79.0
85,24.818498941666665,28.198636716666662,52.0,74.0
86,24.818498941666665,28.207198362499994,40.0,75.0
87,28.10617094166666,28.53425323333333,61.0,100.0
88,28.10617094166666,28.55480118333333,57.0,90.0
89,28.517129941666663,28.97089717083333,52.0,74.0
90,28.928088941666662,29.398979462499994,57.0,71.0
91,28.928088941666662,29.419527412499995,61.0,75.0
92,29.339047941666664,29.81165079166666,52.0,71.0
93,29.750006941666662,30.26541802083333,61.0,66.0
94,29.750006941666662,30.279116654166664,57.0,67.0
95,28.10617094166666,30.522267395833328,33.0,66.0
96,28.10617094166666,30.583911245833328,45.0,92.0
97,30.160965941666664,30.630144133333328,52.0,63.0
98,30.571924941666662,31.000007233333328,61.0,85.0
99,30.571924941666662,31.01541819583333,57.0,74.0
100,30.982883941666664,31.433226512499996,52.0,75.0
101,31.393842941666662,31.876719766666664,61.0,99.0
102,31.393842941666662,31.883569083333327,56.0,89.0
103,31.80480194166666,32.29281575416666,52.0,78.0
104,32.21576094166666,32.666103512499994,56.0,60.0
105,32.21576094166666,32.707199412499996,61.0,89.0
106,32.626719941666664,33.09418580416666,52.0,59.0
107,33.03767894166666,33.50685713333333,56.0,61.0
108,33.03767894166666,33.582199616666664,61.0,75.0
109,31.393842941666662,33.594185920833326,49.0,69.0
110,31.393842941666662,33.638706479166665,37.0,78.0
111,33.44863794166666,33.8681585875,52.0,72.0
112,33.85959694166666,34.330487462499995,56.0,88.0
113,33.85959694166666,34.378432679166664,61.0,99.0
114,34.270555941666665,34.686651929166665,52.0,90.0
115,34.68151494166666,35.12329586666666,57.0,85.0
116,34.68151494166666,35.13699449999999,61.0,95.0
117,35.09247394166666,35.582200083333326,52.0,62.0
118,35.50343294166666,35.950350854166665,57.0,72.0
119,35.50343294166666,35.974323462499996,61.0,77.0
120,35.914391941666665,36.4109674,52.0,64.0
121,36.32535094166666,36.833912704166664,57.0,68.0
122,36.32535094166666,36.84076202083333,61.0,81.0
123,34.68151494166666,36.934940125,33.0,63.0
124,34.68151494166666,36.969186708333325,45.0,66.0
125,36.73630994166666,37.214049779166665,52.0,63.0
126,37.14726894166666,37.537679991666664,57.0,82.0
127,37.14726894166666,37.55480328333333,61.0,96.0
128,37.55822794166666,38.01541982916666,52.0,74.0
129,37.96918694166666,38.433228145833326,56.0,95.0
130,37.96918694166666,38.441789791666665,61.0,96.0
131,38.38014594166666,38.84761180416666,52.0,67.0
132,38.79110494166666,39.25000915833333,56.0,69.0
133,38.79110494166666,39.26713244999999,61.0,85.0
134,39.20206394166666,39.68836542499999,52.0,53.0
135,39.613022941666664,40.08562579166666,56.0,69.0
136,39.613022941666664,40.125009362499995,61.0,85.0
137,40.02398194166666,40.47946149999999,52.0,61.0
138,37.96918694166666,40.50343410833333,37.0,89.0
139,37.96918694166666,40.55480398333333,49.0,88.0
140,40.43494094166666,40.83905062499999,61.0,99.0
141,40.43494094166666,40.85959857499999,56.0,92.0
142,40.84589994166666,41.244872637499995,52.0,89.0
143,41.256858941666664,41.72261247499999,54.0,99.0
144,41.256858941666664,41.73117412083333,57.0,95.0
145,41.66781794166666,42.13699613333333,50.0,73.0
146,42.07877694166666,42.50000991666666,57.0,82.0
147,42.07877694166666,42.511996220833325,54.0,75.0
148,42.48973594166666,42.96576345,50.0,54.0
149,42.90069494166666,43.29281832083333,57.0,74.0
150,42.90069494166666,43.323640245833325,54.0,70.0
151,41.256858941666664,43.36644847499999,38.0,70.0
152,43.31165394166666,43.77911980416666,50.0,58.0
153,43.72261294166666,44.09761302916666,57.0,92.0
154,43.72261294166666,44.14898290416666,54.0,89.0
155,44.13357194166666,44.527407649999994,50.0,82.0
156,44.54453094166666,45.047955716666664,61.0,100.0
157,44.54453094166666,45.05309270416666,57.0,96.0
158,44.95548994166666,45.45891471666666,52.0,75.0
159,45.36644894166666,45.84076412083333,57.0,82.0
160,45.36644894166666,45.89555865416666,61.0,92.0
161,45.77740794166666,46.26199709583333,52.0,56.0
162,46.18836694166666,46.63528485416666,57.0,79.0
163,46.18836694166666,46.68151774166666,61.0,92.0
164,46.59932594166666,47.09418907083332,52.0,58.0
165,44.54453094166666,47.09761372916666,33.0,63.0
166,44.54453094166666,47.191791833333326,45.0,78.0
167,47.01028494166666,47.39384667499999,57.0,76.0
168,47.01028494166666,47.419531612499995,61.0,95.0
169,47.42124394166666,47.851038562499994,52.0,79.0
170,47.83220294166666,48.31679209583333,56.0,93.0
171,47.83220294166666,48.33734004583333,59.0,88.0
172,48.243161941666656,48.69692917083333,52.0,69.0
173,48.65412094166666,49.13014844999999,56.0,79.0
174,48.65412094166666,49.14555941249999,59.0,79.0
175,49.06507994166666,49.54624443749999,52.0,55.0
176,49.47603894166666,50.01542262916666,56.0,77.0
177,49.47603894166666,50.05138154166666,59.0,79.0
178,49.88699794166666,50.41610765416666,52.0,56.0
179,47.83220294166666,50.63357345833332,40.0,75.0
180,50.29795694166666,50.72090224583333,59.0,90.0
181,50.29795694166666,50.84932693333332,56.0,90.0
182,50.70891594166666,51.10446397916666,52.0,73.0
183,51.11987494166666,51.58562847499999,57.0,86.0
184,51.11987494166666,51.59590244999999,61.0,97.0
185,51.53083394166666,52.02912172916666,52.0,75.0
186,51.94179294166666,52.42466976666666,57.0,72.0
187,51.94179294166666,52.42466976666666,61.0,81.0
188,52.35275194166666,52.893847958333325,52.0,56.0
189,52.76371094166666,53.402409720833326,57.0,68.0
190,52.76371094166666,53.42638232916666,61.0,77.0
191,53.17466994166666,53.669533070833324,52.0,59.0
192,53.58562894166666,54.11473865416666,57.0,97.0
193,53.58562894166666,54.11987564166666,61.0,102.0
194,51.11987494166666,54.23288936666666,33.0,69.0
195,51.94179294166666,54.25343731666666,45.0,49.0
196,53.99658794166666,54.39556063749999,52.0,77.0
197,54.40754694166666,54.90069774166666,57.0,96.0
198,54.40754694166666,55.08905394999999,61.0,117.0
199,54.81850594166666,55.34076633749999,52.0,77.0
200,54.40754694166666,55.46919102499999,45.0,92.0
201,55.229464941666656,55.85104042916666,57.0,99.0
202,55.229464941666656,55.869876049999995,61.0,112.0
203,55.64042394166666,56.193506262499994,52.0,58.0
204,56.05138294166666,56.67124609999999,57.0,95.0
205,56.05138294166666,56.72432830416666,61.0,112.0
206,54.40754694166666,56.91097218333333,33.0,77.0
207,56.46234194166666,57.07535578333332,45.0,83.0
208,56.873300941666656,57.441794224999995,57.0,95.0
209,56.873300941666656,57.67980797916666,61.0,112.0
210,57.28425994166666,57.92295872083333,52.0,35.0
211,58.10617794166666,58.724328770833324,49.0,92.0
212,58.92809594166666,59.607890620833324,49.0,93.0
213,58.51713694166666,59.993164683333326,56.0,117.0
214,58.51713694166666,60.26542502083333,52.0,66.0
215,59.75001394166666,60.28939762916666,49.0,81.0
216,57.69521894166666,60.448644241666656,37.0,97.0
217,59.33905494166666,60.57706892916666,61.0,99.0
218,60.16097294166666,60.655836070833324,56.0,122.0
219,60.571931941666655,61.916110337499994,52.0,76.0
220,61.80480894166666,62.29795974166666,57.0,90.0
221,62.215767941666655,62.72261737499999,52.0,6.0
222,61.39384994166666,62.832206441666656,45.0,99.0
223,60.98289094166666,63.43152164999999,33.0,73.0
224,62.215767941666655,63.43665863749999,40.0,47.0
225,63.03768594166666,63.547960033333325,45.0,65.0
226,63.44864494166666,63.82878201666666,57.0,86.0
227,62.62672694166666,63.851042295833324,61.0,95.0
228,63.859603941666656,64.34419309583332,52.0,60.0
229,64.68152194166666,65.30309742916666,49.0,102.0
230,64.27056294166665,65.54967282916665,61.0,96.0
231,64.27056294166665,65.83049481249999,56.0,89.0
232,65.50343994166666,65.969193475,49.0,63.0
233,65.09248094166665,66.05994692083333,52.0,74.0
234,65.91439894166666,66.65926212916666,56.0,82.0
235,64.27056294166665,67.09248140833333,37.0,90.0
236,66.73631694166666,67.16439923333333,61.0,122.0
237,66.94179644166665,67.23631705833333,56.0,95.0
238,67.14727594166666,67.57535823333332,52.0,79.0
239,67.55823494166665,68.28426250833333,57.0,92.0
240,67.55823494166665,68.31508443333333,54.0,95.0
241,67.96919394166666,68.558235175,45.0,52.0
242,68.38015294166665,69.02570103749999,54.0,66.0
243,68.79111194166666,69.36645454166666,45.0,38.0
244,69.20207094166666,69.8476190375,54.0,55.0
245,68.38015294166665,69.84933136666666,57.0,66.0
246,69.61302994166665,69.93666015416666,45.0,40.0
247,67.55823494166665,69.96576974999999,38.0,74.0
248,68.38015294166665,70.05823552499999,50.0,72.0
249,70.02398894166666,70.4383726,57.0,95.0
250,70.02398894166666,70.46919452499999,54.0,107.0
251,70.84590694166666,71.50857832916665,57.0,93.0
252,71.25686594166666,71.77227702083333,45.0,67.0
253,70.84590694166666,72.3030990625,61.0,107.0
254,71.66782494166665,72.35789359583332,57.0,72.0
255,72.07878394166666,72.75172930416666,45.0,66.0
256,72.48974294166666,73.23631845833333,61.0,93.0
257,70.84590694166666,73.38700342499999,33.0,81.0
258,70.43494794166665,73.40070205833332,52.0,63.0
259,72.90070194166665,73.62844183749999,45.0,45.0
260,73.31166094166666,74.11645564999999,57.0,107.0
261,74.54453794166666,74.80652430416666,47.0,55.0
262,74.13357894166666,74.85275719166665,59.0,79.0
263,74.13357894166666,74.85446952083332,56.0,88.0
264,74.13357894166666,74.87159281249998,40.0,76.0
265,74.13357894166666,75.030839425,52.0,86.0
266,74.95549694166665,75.66953820416666,56.0,88.0
267,74.95549694166665,75.66953820416666,59.0,77.0
268,75.77741494166666,76.64727815833332,56.0,74.0
269,75.77741494166666,76.70720967916665,59.0,72.0
270,77.01029194166665,77.36816873749999,56.0,69.0
271,77.42125094166666,78.02912779583332,57.0,88.0
272,76.59933294166666,78.52227859583333,52.0,92.0
273,78.24316894166665,79.11303215833333,45.0,71.0
274,78.65412794166666,79.52912814583333,52.0,72.0
275,79.06508694166665,79.72090901249999,59.0,93.0
276,79.68152544166665,79.83563506666665,52.0,20.0
277,79.47604594166665,79.97090907083333,45.0,86.0
278,79.88700494166666,80.28255297916665,59.0,127.0
279,77.42125094166666,80.3167995625,33.0,74.0
280,77.83220994166666,80.31851189166666,40.0,42.0
281,80.09248444166666,80.48118316249999,45.0,100.0
282,80.29796394166665,80.53769002499999,52.0,102.0
283,80.70892294166666,81.28084088333333,54.0,127.0
284,80.70892294166666,81.39556693749999,50.0,96.0
285,80.70892294166666,81.41097789999999,57.0,100.0
286,81.32536144166666,81.65584097083332,45.0,28.0
287,81.53084094166665,81.81337525416666,61.0,95.0
288,81.32536144166666,82.10275888333332,42.0,37.0
289,81.53084094166665,82.2277589125,50.0,95.0
290,81.53084094166665,82.23803288749998,54.0,127.0
291,81.53084094166665,82.25515617916666,57.0,97.0
292,81.94179994166666,82.4846082875,45.0,51.0
293,82.35275894166665,82.9161152375,50.0,97.0
294,82.35275894166665,82.94351250416665,54.0,122.0
295,82.35275894166665,82.95549880833332,57.0,93.0
296,82.76371794166666,83.26543038749999,45.0,85.0
297,83.17467694166666,83.50515647083333,57.0,99.0
298,80.70892294166666,83.59933457499999,38.0,107.0
299,83.17467694166666,83.6044715625,54.0,127.0
300,83.58563594166665,83.66269075416666,45.0,85.0
301,83.17467694166666,83.8202250375,50.0,96.0
302,83.99659494166666,84.45378682916666,61.0,117.0
303,83.99659494166666,84.4674854625,57.0,102.0
304,83.99659494166666,84.47604710833332,52.0,99.0
305,84.40755394166665,84.85618418333333,45.0,82.0
306,84.81851294166665,85.05138970833332,52.0,102.0
307,84.81851294166665,85.05138970833332,57.0,122.0
308,84.81851294166665,85.05652669583333,61.0,127.0
309,85.22947194166666,85.86645839166665,45.0,99.0
310,85.64043094166665,86.00173239583332,52.0,99.0
311,85.64043094166665,86.03769130833332,57.0,117.0
312,85.64043094166665,86.07193789166665,61.0,122.0
313,86.25686944166665,86.31851329166665,61.0,51.0
314,86.25686944166665,86.33734891249999,57.0,58.0
315,86.25686944166665,86.40070509166665,52.0,107.0
316,86.05138994166666,86.62673254166666,45.0,112.0
317,86.46234894166666,86.76714353333332,57.0,127.0
318,86.46234894166666,86.77056819166665,52.0,95.0
319,86.46234894166666,86.78084216666666,61.0,127.0
320,83.99659494166666,86.85618464999999,33.0,86.0
321,86.87330794166665,86.95036275416665,57.0,82.0
322,86.87330794166665,86.95549974166666,61.0,67.0
323,86.87330794166665,87.11132169583333,52.0,127.0
324,86.66782844166666,87.13700663333331,45.0,86.0
325,87.28426694166666,87.55995193749999,57.0,107.0
326,87.28426694166666,87.56337659583332,54.0,122.0
327,87.28426694166666,87.57022591249999,50.0,112.0
328,87.69522594166665,87.78255472916665,57.0,69.0
329,87.69522594166665,87.78426705833333,54.0,99.0
330,87.69522594166665,87.79111637499999,50.0,81.0
331,87.28426694166666,87.93666435416665,45.0,117.0
332,87.90070544166666,87.9863219,57.0,77.0
333,87.90070544166666,87.98974655833332,50.0,61.0
334,87.90070544166666,87.99317121666665,54.0,89.0
335,87.69522594166665,88.00344519166666,42.0,37.0
336,88.10618494166665,88.21234934999998,50.0,100.0
337,88.10618494166665,88.24145894583332,57.0,102.0
338,88.10618494166665,88.24659593333332,54.0,127.0
339,88.51714394166666,88.62673300833332,57.0,62.0
340,88.51714394166666,88.62844533749998,54.0,92.0
341,88.51714394166666,88.63700698333332,50.0,77.0
342,88.10618494166665,88.78426729166665,45.0,99.0
343,88.72262344166666,88.82536319166665,50.0,59.0
344,88.72262344166666,88.83563716666666,57.0,73.0
345,88.72262344166666,88.83906182499999,54.0,92.0
346,88.92810294166665,89.18323998749999,50.0,90.0
347,88.92810294166665,89.21406191249999,54.0,112.0
348,88.92810294166665,89.21748657083332,57.0,90.0
349,89.33906194166666,89.42810305833332,54.0,64.0
350,89.33906194166666,89.42981538749999,57.0,55.0
351,89.33906194166666,89.43495237499998,50.0,56.0
352,88.92810294166665,89.54796609999998,45.0,100.0
353,89.54454144166665,89.61645926666665,57.0,66.0
354,89.54454144166665,89.62673324166666,54.0,89.0
355,89.75002094166665,89.82878808333332,45.0,97.0
356,87.28426694166666,89.84933603333332,38.0,100.0
357,89.75002094166665,90.03255525416665,54.0,107.0
358,89.75002094166665,90.20892515833332,57.0,86.0
359,89.75002094166665,90.21234981666666,50.0,86.0
360,90.16097994166665,90.297966275,54.0,122.0
361,90.57193894166666,90.84762393749999,57.0,99.0
362,90.57193894166666,90.85104859583332,61.0,102.0
363,90.57193894166666,90.85276092499998,52.0,96.0
364,90.98289794166665,91.07536371666666,52.0,78.0
365,90.98289794166665,91.08221303333332,61.0,79.0
366,90.98289794166665,91.08392536249998,57.0,90.0
367,90.57193894166666,91.26714458333332,45.0,102.0
368,91.18837744166666,91.2739939,52.0,55.0
369,91.18837744166666,91.29282952083332,57.0,75.0
370,91.18837744166666,91.29454184999999,61.0,75.0
371,91.39385694166666,91.59591178333332,52.0,95.0
372,91.39385694166666,91.59762411249999,61.0,100.0
373,91.39385694166666,91.6181720625,57.0,99.0
374,91.80481594166666,91.90755569166666,61.0,86.0
375,91.80481594166666,91.90926802083332,52.0,72.0
376,91.80481594166666,91.90926802083332,57.0,92.0
377,91.39385694166666,92.05652832916665,45.0,122.0
378,92.01029544166666,92.09762422916666,61.0,68.0
379,92.01029544166666,92.10618587499998,52.0,55.0
380,92.01029544166666,92.11474752083332,57.0,69.0
381,92.21577494166665,92.45207636666666,52.0,90.0
382,92.21577494166665,92.46235034166665,61.0,112.0
383,92.21577494166665,92.47091198749999,57.0,99.0
384,92.62673394166666,92.71748738749999,57.0,89.0
385,92.62673394166666,92.71919971666665,52.0,72.0
386,92.62673394166666,92.72433670416666,61.0,90.0
387,92.21577494166665,92.87673399999998,45.0,99.0
388,90.57193894166666,93.11817241249999,33.0,72.0
389,93.03769294166665,93.15584365416666,45.0,117.0
390,93.03769294166665,93.26714504999998,52.0,95.0
391,93.03769294166665,93.30139163333332,57.0,117.0
392,93.03769294166665,93.33221355833332,61.0,117.0
393,93.44865194166665,93.67125473333331,52.0,99.0
394,93.85961094166666,94.14728224166666,50.0,117.0
395,93.85961094166666,94.31851515833333,54.0,112.0
396,93.85961094166666,94.39899462916665,57.0,97.0
397,94.27056994166665,94.45550149166665,50.0,69.0
398,93.85961094166666,94.83050157916665,45.0,102.0
399,93.85961094166666,94.87673446666665,38.0,86.0
400,94.68152894166666,95.09933725833332,50.0,102.0
401,94.68152894166666,95.10104958749999,54.0,127.0
402,94.68152894166666,95.11474822083332,57.0,96.0
403,95.29796744166666,95.38187157083333,57.0,64.0
404,95.09248794166665,95.38700855833332,38.0,51.0
405,95.29796744166666,95.39557020416666,54.0,82.0
406,95.09248794166665,95.39899486249999,45.0,55.0
407,95.29796744166666,95.40413184999998,50.0,71.0
408,95.50344694166665,95.72947439166666,50.0,95.0
409,95.50344694166665,95.73974836666666,54.0,122.0
410,95.50344694166665,95.75687165833332,57.0,95.0
411,95.50344694166665,96.06851556666665,45.0,86.0
412,95.91440594166666,96.08735118749999,50.0,88.0
413,95.91440594166666,96.113036125,57.0,76.0
414,95.50344694166665,96.11988544166665,38.0,76.0
415,95.91440594166666,96.12844708749999,54.0,90.0
416,96.32536494166665,96.39214577916665,38.0,88.0
417,96.32536494166665,96.40413208333332,45.0,99.0
418,96.32536494166665,96.58735130416666,54.0,122.0
419,96.32536494166665,96.77228285416665,50.0,90.0
420,96.32536494166665,96.78255682916665,57.0,92.0
421,96.73632394166665,96.85447465416665,54.0,100.0
422,97.14728294166666,97.41611862083332,61.0,107.0
423,97.14728294166666,97.42810492499999,57.0,100.0
424,97.14728294166666,97.44009122916665,52.0,97.0
425,97.55824194166665,97.64899538749998,57.0,83.0
426,97.55824194166665,97.65242004583332,61.0,90.0
427,97.55824194166665,97.66269402083331,52.0,78.0
428,97.76372144166665,97.83563926666665,61.0,47.0
429,97.14728294166666,97.84077625416666,45.0,100.0
430,97.76372144166665,97.85105022916666,57.0,55.0
431,97.96920094166666,98.15070783333331,57.0,95.0
432,97.96920094166666,98.16098180833332,61.0,102.0
433,98.38015994166665,98.52399559166665,57.0,92.0
434,97.96920094166666,98.58735177083332,45.0,107.0
435,98.38015994166665,98.58735177083332,61.0,95.0
436,98.58563944166666,98.89043403333332,52.0,72.0
437,98.79111894166665,99.11132449583332,57.0,96.0
438,98.79111894166665,99.27570809583332,61.0,112.0
439,98.79111894166665,99.28426974166665,45.0,90.0
440,99.20207794166666,99.69865339999998,52.0,85.0
441,97.14728294166666,99.71920134999999,33.0,76.0
442,99.61303694166665,99.74659861666666,45.0,117.0
443,99.61303694166665,100.00002333333332,57.0,97.0
444,99.61303694166665,100.02057128333333,61.0,112.0
445,100.02399594166666,100.30653025416666,52.0,89.0
446,100.43495494166665,100.98803726249999,59.0,100.0
447,100.43495494166665,101.02913316249999,52.0,95.0
448,100.43495494166665,101.11132496249999,56.0,107.0
449,100.43495494166665,101.36646200833331,47.0,99.0
450,101.25687294166666,101.52913327916666,52.0,92.0
451,101.25687294166666,101.72433880416665,56.0,127.0
452,101.25687294166666,101.75002374166665,59.0,100.0
453,101.66783194166665,101.77742100833332,52.0,35.0
454,101.87331144166666,101.96406488749999,52.0,52.0
455,101.87331144166666,101.96406488749999,59.0,59.0
456,101.87331144166666,101.98632516666665,56.0,63.0
457,101.66783194166665,102.19351699583332,47.0,79.0
458,102.07879094166665,102.63016093333331,59.0,99.0
459,102.07879094166665,102.65242121249999,52.0,95.0
460,102.07879094166665,102.69180478333332,56.0,112.0
461,102.48974994166666,102.90070894166665,47.0,79.0
462,100.84591394166665,102.99146238749998,44.0,37.0
463,100.43495494166665,103.15755831666665,40.0,90.0
464,103.10618844166665,103.19009257083331,47.0,76.0
465,102.90070894166665,103.31338027083332,59.0,102.0
466,102.90070894166665,103.33221589166665,56.0,127.0
467,103.31166794166666,103.57536663333332,52.0,88.0
468,103.72262694166665,104.02742153333332,61.0,117.0
469,103.72262694166665,104.03427084999998,57.0,117.0
470,103.72262694166665,104.07022976249999,52.0,97.0
471,104.13358594166665,104.23290103333332,52.0,51.0
472,104.13358594166665,104.23803802083332,57.0,70.0
473,104.13358594166665,104.24317500833332,61.0,72.0
474,103.72262694166665,104.36132572083332,45.0,102.0
475,104.33906544166665,104.40413394999999,61.0,32.0
476,104.33906544166665,104.43838053333332,57.0,45.0
477,104.54454494166666,104.67810661666665,52.0,96.0
478,104.54454494166666,104.70550388333332,57.0,100.0
479,104.54454494166666,104.70721621249999,61.0,100.0
480,104.95550394166665,105.02570943749998,52.0,68.0
481,104.95550394166665,105.03255875416666,61.0,77.0
482,104.95550394166665,105.03598341249999,57.0,78.0
483,104.54454494166666,105.17639440416666,45.0,100.0
484,105.16098344166666,105.40755884166666,52.0,82.0
485,105.16098344166666,105.42639446249999,61.0,107.0
486,105.16098344166666,105.43495610833332,57.0,102.0
487,105.36646294166665,105.77742194166665,45.0,92.0
488,105.57194244166665,106.05653159583332,61.0,100.0
489,105.57194244166665,106.05824392499999,57.0,99.0
490,105.98290144166666,106.27399739999998,45.0,96.0
491,103.72262694166665,106.59933994166666,33.0,69.0
492,106.18838094166665,106.73118928749999,57.0,97.0
493,106.18838094166665,106.78427149166666,61.0,102.0
494,106.39386044166665,106.86988794999999,45.0,76.0
495,106.59933994166666,106.90070987499999,52.0,74.0
496,107.01029894166665,107.50858672916665,57.0,99.0
497,107.01029894166665,107.51372371666665,61.0,99.0
498,107.42125794166665,107.90071010833331,52.0,66.0
499,107.83221694166666,108.31851842499998,57.0,83.0
500,107.83221694166666,108.32536774166665,61.0,92.0
501,108.24317594166665,108.71406646249999,52.0,69.0
502,108.65413494166665,109.15927204583332,57.0,81.0
503,108.65413494166665,109.17468300833332,61.0,90.0
504,107.01029894166665,109.37845017916665,33.0,64.0
505,109.06509394166665,109.54968309583332,52.0,69.0
506,107.01029894166665,109.56166939999999,45.0,100.0
507,109.47605294166665,109.88358728333331,57.0,79.0
508,109.47605294166665,109.89899824583331,61.0,92.0
509,109.88701194166666,110.38187507083332,52.0,70.0
510,110.29797094166665,110.76372447499999,56.0,96.0
511,110.29797094166665,110.79112174166666,61.0,99.0
512,110.70892994166665,111.21749170416665,52.0,72.0
513,111.11988894166664,111.58050548749999,61.0,88.0
514,111.11988894166664,111.58735480416665,56.0,79.0
515,111.53084794166665,111.98975215833332,52.0,62.0
516,110.29797094166665,112.35105361249998,49.0,67.0
517,110.29797094166665,112.41269746249998,37.0,69.0
518,111.94180694166666,112.45550569166664,56.0,68.0
519,111.94180694166666,112.46406733749998,61.0,81.0
520,112.35276594166665,112.82194413333332,52.0,75.0
521,112.76372494166665,113.16783462499998,61.0,102.0
522,112.76372494166665,113.20036887916665,56.0,100.0
523,113.17468394166666,113.66098542499998,52.0,86.0
524,113.58564294166665,114.10790333749999,57.0,92.0
525,113.58564294166665,114.14728690833331,61.0,100.0
526,113.99660194166665,114.48119109583332,52.0,69.0
527,114.40756094166665,114.89215009583332,61.0,93.0
528,114.40756094166665,114.89899941249999,57.0,89.0
529,114.81851994166665,115.31509539999999,52.0,59.0
530,113.58564294166665,115.61304067499998,33.0,63.0
531,113.58564294166665,115.67125986666665,45.0,81.0
532,115.22947894166666,115.74146536249998,61.0,78.0
533,115.22947894166666,115.75687632499998,57.0,69.0
534,115.64043794166665,116.19352026249999,52.0,57.0
535,116.05139694166665,116.46235594166664,57.0,86.0
536,116.05139694166665,116.47776690416666,61.0,100.0
537,116.46235594166664,116.91954782916665,52.0,73.0
538,116.87331494166665,117.34934244999998,56.0,93.0
539,116.87331494166665,117.40413698333332,61.0,100.0
540,117.28427394166665,117.76201377916665,52.0,73.0
541,117.69523294166665,118.16954812083331,56.0,83.0
542,117.69523294166665,118.20893169166665,61.0,90.0
543,118.10619194166665,118.57708246249999,52.0,58.0
544,118.51715094166666,119.01372639999998,56.0,72.0
545,118.51715094166666,119.08735655416665,61.0,79.0
546,116.87331494166665,119.12674012499998,49.0,68.0
547,116.87331494166665,119.17982232916665,37.0,63.0
548,118.92810994166665,119.32365797916665,52.0,55.0
549,119.33906894166665,119.75687725833332,61.0,112.0
550,119.33906894166665,119.79454849999998,56.0,77.0
551,119.75002794166664,120.14043899166666,52.0,86.0
552,120.16098694166665,120.64900075416665,57.0,90.0
553,120.16098694166665,120.66098705833332,54.0,93.0
554,120.57194594166666,121.03085015833332,50.0,63.0
555,120.98290494166665,121.43324751249999,54.0,90.0
556,120.98290494166665,121.44694614583332,57.0,86.0
557,121.39386394166665,121.87160377916665,50.0,56.0
558,121.80482294166664,122.27057647499998,54.0,89.0
559,121.80482294166664,122.30996004583332,57.0,89.0
560,122.21578194166665,122.72776836249999,50.0,55.0
561,120.16098694166665,122.82708345416665,38.0,61.0
562,120.16098694166665,122.94009717916666,45.0,70.0
563,122.62674094166665,123.01715199166665,57.0,89.0
564,122.62674094166665,123.02400130833331,54.0,88.0
565,123.03769994166665,123.47948086666665,50.0,82.0
566,123.44865894166665,123.92468644999998,57.0,90.0
567,123.44865894166665,123.95208371666665,61.0,97.0
568,123.85961794166666,124.33564544999999,52.0,68.0
569,124.27057694166665,124.73290581666664,57.0,77.0
570,124.27057694166665,124.76030308333331,61.0,88.0
571,124.68153594166665,125.16270043749998,52.0,58.0
572,125.09249494166664,125.59934437499999,57.0,74.0
573,125.09249494166664,125.65927589583332,61.0,73.0
574,125.50345394166665,126.00002939999999,52.0,69.0
575,125.91441294166665,126.34420756249999,61.0,99.0
576,125.91441294166665,126.39728976666665,57.0,92.0
577,123.44865894166665,126.60619392499999,45.0,82.0
578,126.32537194166665,126.78941314583332,52.0,78.0
579,126.73633094166665,127.21749543749998,56.0,99.0
580,126.73633094166665,127.29283792083332,59.0,100.0
581,127.14728994166664,127.61304347499998,52.0,73.0
582,127.55824894166665,128.00859151249998,56.0,93.0
583,127.55824894166665,128.0479750833333,59.0,90.0
584,127.96920794166665,128.46235874166666,52.0,57.0
585,128.38016694166666,128.8818793875,56.0,82.0
586,128.38016694166666,128.93838624999998,59.0,82.0
587,126.73633094166665,129.03085202499997,40.0,72.0
588,128.79112594166665,129.28085208333331,52.0,63.0
589,129.20208494166664,129.60448229583332,59.0,99.0
590,129.20208494166664,129.64215353749998,56.0,112.0
591,129.61304394166666,130.12160570416665,52.0,68.0
592,130.02400294166665,130.51372908333332,57.0,90.0
593,130.02400294166665,130.58050992083332,61.0,99.0
594,130.43496194166664,130.96407165416664,52.0,61.0
595,130.84592094166666,131.39557860416664,57.0,74.0
596,130.84592094166666,131.45037313749998,61.0,93.0
597,131.25687994166665,131.76886636249998,52.0,48.0
598,130.02400294166665,131.93324996249999,45.0,88.0
599,132.07879794166664,132.17982536249997,52.0,31.0
600,131.66783894166664,132.33564731666664,61.0,90.0
601,131.66783894166664,132.34249663333333,57.0,79.0
602,130.02400294166665,132.62845560416665,33.0,62.0
603,132.48975694166666,132.88188032083332,57.0,122.0
604,132.48975694166666,132.88359264999997,61.0,127.0
605,132.90071594166665,132.98290774166665,52.0,99.0
606,132.07879794166664,133.19866121666664,45.0,78.0
607,133.31167494166664,133.52571608749997,47.0,102.0
608,133.31167494166664,133.52571608749997,50.0,107.0
609,133.31167494166664,133.56167499999998,54.0,117.0
610,133.72263394166666,134.25859297083332,47.0,92.0
611,134.13359294166665,134.383593,62.0,122.0
612,134.13359294166665,134.38530532916664,59.0,99.0
613,134.13359294166665,134.414414925,66.0,127.0
614,133.31167494166664,135.1986616833333,35.0,97.0
615,134.54455194166664,135.20208634166664,47.0,86.0
616,134.95551094166666,135.31681239583332,62.0,127.0
617,134.95551094166666,135.33393568749997,59.0,102.0
618,134.95551094166666,135.3442096625,66.0,127.0
619,135.36646994166665,135.94010021249997,47.0,85.0
620,135.77742894166664,135.98804542916665,59.0,112.0
621,135.36646994166665,136.07023722916665,35.0,65.0
622,135.77742894166664,136.160990675,62.0,127.0
623,135.77742894166664,136.17126464999998,66.0,127.0
624,136.18838794166666,136.35448387083332,59.0,107.0
625,136.59934694166665,136.88530591249997,57.0,112.0
626,136.59934694166665,137.01201827083332,61.0,127.0
627,136.59934694166665,137.0171552583333,64.0,112.0
628,137.01030594166664,137.1147580208333,57.0,86.0
629,136.59934694166665,137.61647046666664,45.0,112.0
630,136.59934694166665,137.61818279583332,33.0,89.0
631,137.42126494166664,137.79112804166664,61.0,122.0
632,137.42126494166664,137.80653900416664,57.0,122.0
633,137.83222394166665,138.45379942916665,33.0,54.0
634,137.83222394166665,138.48290902499997,45.0,88.0
635,138.24318294166665,138.66441591666666,57.0,122.0
636,138.24318294166665,138.69523784166665,52.0,96.0
637,138.24318294166665,138.7123611333333,61.0,127.0
638,138.65414194166664,139.037703675,33.0,65.0
639,138.65414194166664,139.12332013333332,45.0,100.0
640,139.06510094166666,139.4846215875,61.0,127.0
641,139.06510094166666,139.49489556249998,57.0,127.0
642,139.47605994166665,139.5291421458333,52.0,90.0
643,139.88701894166664,140.19352586249997,59.0,112.0
644,139.88701894166664,140.3972930333333,62.0,107.0
645,139.88701894166664,140.4281149583333,66.0,117.0
646,139.88701894166664,140.89558082083332,47.0,102.0
647,140.70893694166665,141.133594575,59.0,112.0
648,140.70893694166665,141.17297814583333,62.0,127.0
649,140.70893694166665,141.19523842499999,66.0,122.0
650,141.11989594166664,141.67811525,47.0,97.0
651,141.53085494166666,141.9435262708333,59.0,100.0
652,141.53085494166666,141.97777285416666,62.0,122.0
653,141.53085494166666,142.03256738749997,66.0,122.0
654,141.94181394166665,142.43496474166665,47.0,88.0
655,139.88701894166664,142.54112915,35.0,71.0
656,142.35277294166664,142.76373194166663,62.0,122.0
657,142.35277294166664,142.76373194166663,66.0,127.0
658,142.76373194166663,143.0377046083333,59.0,102.0
659,143.17469094166665,143.48975950833332,64.0,95.0
660,143.17469094166665,143.49318416666665,61.0,112.0
661,143.17469094166665,143.56510199166664,57.0,122.0
662,143.99660894166664,144.07880074166664,57.0,112.0
663,143.99660894166664,144.09934869166665,52.0,96.0
664,143.99660894166664,144.11475965416665,61.0,122.0
665,143.17469094166665,144.14044459166664,45.0,107.0
666,144.40756794166666,144.92982833749997,45.0,112.0
667,143.17469094166665,144.98975985833331,33.0,70.0
668,144.81852694166665,145.2414722458333,57.0,127.0
669,144.81852694166665,145.2568832083333,52.0,99.0
670,144.81852694166665,145.27058184166665,61.0,127.0
671,145.22948594166664,145.4931846333333,45.0,99.0
672,145.22948594166664,145.49489696249998,33.0,74.0
673,145.64044494166666,145.90414363333332,52.0,112.0
674,145.64044494166666,145.91270527916666,57.0,127.0
675,145.64044494166666,145.95722583749998,33.0,89.0
676,145.64044494166666,146.05140394166665,61.0,127.0
677,145.64044494166666,146.2123628833333,45.0,117.0
678,146.05140394166665,146.22263685833332,52.0,127.0
679,146.46236294166664,147.11476035416663,50.0,117.0
680,146.46236294166664,147.13530830416664,54.0,127.0
681,146.46236294166664,147.13702063333332,57.0,127.0
682,146.46236294166664,147.43325357916666,45.0,107.0
683,147.28428094166665,147.71236323333332,50.0,100.0
684,147.28428094166665,147.72948652499997,54.0,127.0
685,147.28428094166665,147.75688379166664,57.0,102.0
686,147.90071944166664,147.95380164583332,54.0,35.0
687,147.90071944166664,147.98633589999997,57.0,30.0
688,147.69523994166664,148.20551403333332,45.0,67.0
689,148.10619894166663,148.5394182208333,50.0,97.0
690,148.10619894166663,148.59934974166666,54.0,117.0
691,148.10619894166663,148.72263744166665,57.0,97.0
692,148.51715794166665,149.02400737499997,45.0,72.0
693,146.46236294166664,149.23119920416664,38.0,99.0
694,149.13359644166664,149.28770606666666,45.0,72.0
695,148.92811694166664,149.31852799166666,54.0,127.0
696,148.92811694166664,149.43839103333332,57.0,102.0
697,149.33907594166664,149.65585683749998,50.0,89.0
698,149.75003494166666,149.95893909999998,50.0,92.0
699,149.75003494166666,149.96578841666664,53.0,102.0
700,149.75003494166666,149.9880486958333,57.0,100.0
701,149.75003494166666,150.8561995833333,45.0,100.0
702,150.57195294166664,151.27572022916664,65.0,99.0
703,150.57195294166664,151.28256954583333,57.0,107.0
704,150.57195294166664,151.28256954583333,62.0,117.0
705,150.57195294166664,151.63017236666664,50.0,74.0
706,151.39387094166665,152.0736656208333,57.0,96.0
707,151.39387094166665,152.0907889125,62.0,99.0
708,151.39387094166665,152.0907889125,65.0,93.0
709,151.80482994166664,152.24661086666666,50.0,52.0
710,152.21578894166666,152.46750132916665,57.0,102.0
711,152.21578894166666,152.6027753333333,65.0,102.0
712,152.21578894166666,152.6130493083333,62.0,112.0
713,152.42126844166665,152.619898625,50.0,70.0
714,149.75003494166666,152.73804933749997,38.0,82.0
715,150.98291194166666,152.98120007916665,45.0,43.0
716,153.03770694166664,153.7551728625,52.0,117.0
717,153.03770694166664,153.76030984999997,55.0,102.0
718,153.03770694166664,153.77743314166665,59.0,99.0
719,153.85962494166665,154.53257030416665,52.0,99.0
720,153.85962494166665,154.5565429125,59.0,96.0
721,153.85962494166665,154.56339222916665,55.0,100.0
722,153.03770694166664,155.02572110416665,40.0,83.0
723,154.68154294166663,155.3305156958333,52.0,72.0
724,154.68154294166663,155.3459266583333,55.0,72.0
725,154.68154294166663,155.34763898749998,59.0,71.0
726,155.09250194166665,155.58907739999998,40.0,64.0
727,155.50346094166665,155.77743360833333,52.0,100.0
728,155.50346094166665,155.94010487916665,59.0,107.0
729,155.50346094166665,156.04455695833332,55.0,117.0
730,155.91441994166664,156.15072136666666,52.0,67.0
731,156.32537894166666,157.0154475958333,52.0,100.0
732,156.32537894166666,157.02229691249997,57.0,127.0
733,156.32537894166666,157.0257215708333,61.0,122.0
734,156.32537894166666,157.31168054166665,45.0,102.0
735,156.32537894166666,157.4109956333333,33.0,75.0
736,157.14729694166664,157.61133814583332,52.0,99.0
737,157.14729694166664,157.62846143749996,57.0,122.0
738,157.14729694166664,157.64044774166663,61.0,127.0
739,157.76373544166665,157.82366696249997,61.0,45.0
740,157.76373544166665,157.85106422916664,57.0,61.0
741,157.76373544166665,157.88188615416664,52.0,77.0
742,157.55825594166666,158.07024236249998,33.0,72.0
743,157.55825594166666,158.0993519583333,45.0,99.0
744,157.96921494166665,158.39558490416664,52.0,102.0
745,157.96921494166665,158.4229821708333,57.0,112.0
746,157.96921494166665,158.44524244999997,61.0,122.0
747,158.38017394166664,158.84592747499997,45.0,107.0
748,158.38017394166664,158.8544891208333,33.0,70.0
749,158.79113294166663,159.0976398625,61.0,127.0
750,158.79113294166663,159.10791383749998,57.0,127.0
751,159.20209194166665,159.64729752499997,61.0,127.0
752,159.20209194166665,159.6507221833333,57.0,107.0
753,159.61305094166664,159.6507221833333,57.0,100.0
754,159.20209194166665,159.66270848749997,52.0,97.0
755,159.20209194166665,159.6661331458333,45.0,107.0
756,159.20209194166665,159.6729824625,33.0,79.0
757,159.61305094166664,160.1849688833333,54.0,127.0
758,159.61305094166664,160.29969493749996,50.0,96.0
759,160.22948944166666,160.55996897083332,45.0,28.0
760,160.43496894166665,160.71750325416664,61.0,95.0
761,160.22948944166666,161.00688688333332,42.0,37.0
762,160.43496894166665,161.13188691249997,50.0,95.0
763,160.43496894166665,161.14216088749998,54.0,127.0
764,160.43496894166665,161.15928417916663,57.0,97.0
765,160.84592794166664,161.38873628749997,45.0,51.0
766,161.25688694166664,161.82024323749997,50.0,97.0
767,161.25688694166664,161.84764050416663,54.0,122.0
768,161.25688694166664,161.8596268083333,57.0,93.0
769,161.66784594166666,162.1695583875,45.0,85.0
770,162.07880494166665,162.4092844708333,57.0,99.0
771,159.61305094166664,162.503462575,38.0,107.0
772,162.07880494166665,162.50859956249997,54.0,127.0
773,162.48976394166664,162.56681875416663,45.0,85.0
774,162.07880494166665,162.72435303749998,50.0,96.0
775,162.90072294166666,163.35791482916665,61.0,117.0
776,162.90072294166666,163.37161346249997,57.0,102.0
777,162.90072294166666,163.3801751083333,52.0,99.0
778,163.31168194166665,163.7603121833333,45.0,82.0
779,163.72264094166664,163.9555177083333,52.0,102.0
780,163.72264094166664,163.9555177083333,57.0,122.0
781,163.72264094166664,163.9606546958333,61.0,127.0
782,164.13359994166663,164.77058639166665,45.0,99.0
783,164.54455894166665,164.90586039583332,52.0,99.0
784,164.54455894166665,164.94181930833332,57.0,117.0
785,164.54455894166665,164.97606589166665,61.0,122.0
786,165.16099744166664,165.22264129166663,61.0,51.0
787,165.16099744166664,165.2414769125,57.0,58.0
788,165.16099744166664,165.30483309166664,52.0,107.0
789,164.95551794166664,165.53086054166664,45.0,112.0
790,165.36647694166663,165.6712715333333,57.0,127.0
791,165.36647694166663,165.67469619166664,52.0,95.0
792,165.36647694166663,165.68497016666663,61.0,127.0
793,162.90072294166666,165.76031264999997,33.0,86.0
794,165.77743594166665,165.85449075416665,57.0,82.0
795,165.77743594166665,165.85962774166666,61.0,67.0
796,165.77743594166665,166.0154496958333,52.0,127.0
797,165.57195644166666,166.04113463333331,45.0,86.0
798,166.18839494166664,166.46407993749997,57.0,107.0
799,166.18839494166664,166.4675045958333,54.0,122.0
800,166.18839494166664,166.47435391249996,50.0,112.0
801,166.59935394166664,166.68668272916665,57.0,69.0
802,166.59935394166664,166.6883950583333,54.0,99.0
803,166.59935394166664,166.695244375,50.0,81.0
804,166.18839494166664,166.84079235416664,45.0,117.0
805,166.80483344166663,166.89044989999996,57.0,77.0
806,166.80483344166663,166.89387455833332,50.0,61.0
807,166.80483344166663,166.89729921666665,54.0,89.0
808,166.59935394166664,166.90757319166664,42.0,37.0
809,167.01031294166665,167.11647734999997,50.0,100.0
810,167.01031294166665,167.14558694583332,57.0,102.0
811,167.01031294166665,167.1507239333333,54.0,127.0
812,167.42127194166665,167.53086100833332,57.0,62.0
813,167.42127194166665,167.53257333749997,54.0,92.0
814,167.42127194166665,167.5411349833333,50.0,77.0
815,167.01031294166665,167.68839529166664,45.0,99.0
816,167.62675144166664,167.72949119166665,50.0,59.0
817,167.62675144166664,167.73976516666664,57.0,73.0
818,167.62675144166664,167.74318982499997,54.0,92.0
819,167.83223094166664,168.0873679875,50.0,90.0
820,167.83223094166664,168.1181899125,54.0,112.0
821,167.83223094166664,168.12161457083332,57.0,90.0
822,168.24318994166666,168.33223105833332,54.0,64.0
823,168.24318994166666,168.33394338749997,57.0,55.0
824,168.24318994166666,168.33908037499998,50.0,56.0
825,167.83223094166664,168.45209409999998,45.0,100.0
826,168.44866944166665,168.52058726666664,57.0,66.0
827,168.44866944166665,168.53086124166666,54.0,89.0
828,168.65414894166665,168.73291608333332,45.0,97.0
829,166.18839494166664,168.7534640333333,38.0,100.0
830,168.65414894166665,168.93668325416664,54.0,107.0
831,168.65414894166665,169.11305315833332,57.0,86.0
832,168.65414894166665,169.11647781666665,50.0,86.0
833,169.06510794166664,169.20209427499998,54.0,122.0
834,169.47606694166663,169.7517519375,57.0,99.0
835,169.47606694166663,169.75517659583332,61.0,102.0
836,169.47606694166663,169.75688892499997,52.0,96.0
837,169.88702594166665,169.97949171666664,52.0,78.0
838,169.88702594166665,169.9863410333333,61.0,79.0
839,169.88702594166665,169.98805336249998,57.0,90.0
840,169.47606694166663,170.17127258333332,45.0,102.0
841,170.09250544166665,170.17812189999998,52.0,55.0
842,170.09250544166665,170.1969575208333,57.0,75.0
843,170.09250544166665,170.19866985,61.0,75.0
844,170.29798494166664,170.5000397833333,52.0,95.0
845,170.29798494166664,170.5017521125,61.0,100.0
846,170.29798494166664,170.52230006249997,57.0,99.0
847,170.70894394166663,170.81168369166664,61.0,86.0
848,170.70894394166663,170.81339602083332,52.0,72.0
849,170.70894394166663,170.81339602083332,57.0,92.0
850,170.29798494166664,170.96065632916665,45.0,122.0
851,170.91442344166666,171.00175222916664,61.0,68.0
852,170.91442344166666,171.01031387499998,52.0,55.0
853,170.91442344166666,171.01887552083332,57.0,69.0
854,171.11990294166665,171.35620436666665,52.0,90.0
855,171.11990294166665,171.36647834166664,61.0,112.0
856,171.11990294166665,171.37503998749997,57.0,99.0
857,171.53086194166664,171.6216153875,57.0,89.0
858,171.53086194166664,171.62332771666664,52.0,72.0
859,171.53086194166664,171.62846470416665,61.0,90.0
860,171.11990294166665,171.78086199999998,45.0,99.0
861,169.47606694166663,172.0223004125,33.0,72.0
862,171.94182094166663,172.05997165416665,45.0,117.0
863,171.94182094166663,172.17127304999997,52.0,95.0
864,171.94182094166663,172.2055196333333,57.0,117.0
865,171.94182094166663,172.23634155833332,61.0,117.0
866,172.35277994166665,172.5753827333333,52.0,99.0
867,172.76373894166665,173.05141024166664,50.0,117.0
868,172.76373894166665,173.2226431583333,54.0,112.0
869,172.76373894166665,173.30312262916664,57.0,97.0
870,173.17469794166664,173.35962949166665,50.0,69.0
871,172.76373894166665,173.73462957916664,45.0,102.0
872,172.76373894166665,173.78086246666663,38.0,86.0
873,173.58565694166666,174.0034652583333,50.0,102.0
874,173.58565694166666,174.0051775875,54.0,127.0
875,173.58565694166666,174.0188762208333,57.0,96.0
876,174.20209544166664,174.2859995708333,57.0,64.0
877,173.99661594166665,174.2911365583333,38.0,51.0
878,174.20209544166664,174.29969820416665,54.0,82.0
879,173.99661594166665,174.30312286249998,45.0,55.0
880,174.20209544166664,174.30825984999998,50.0,71.0
881,174.40757494166664,174.63360239166664,50.0,95.0
882,174.40757494166664,174.64387636666663,54.0,122.0
883,174.40757494166664,174.6609996583333,57.0,95.0
884,174.40757494166664,174.97264356666665,45.0,86.0
885,174.81853394166663,174.99147918749998,50.0,88.0
886,174.81853394166663,175.01716412499997,57.0,76.0
887,174.40757494166664,175.02401344166665,38.0,76.0
888,174.81853394166663,175.03257508749996,54.0,90.0
889,175.22949294166665,175.29627377916665,38.0,88.0
890,175.22949294166665,175.3082600833333,45.0,99.0
891,175.22949294166665,175.49147930416663,54.0,122.0
892,175.22949294166665,175.67641085416665,50.0,90.0
893,175.22949294166665,175.68668482916664,57.0,92.0
894,175.64045194166664,175.75860265416665,54.0,100.0
895,176.05141094166663,176.3202466208333,61.0,107.0
896,176.05141094166663,176.33223292499997,57.0,100.0
897,176.05141094166663,176.34421922916664,52.0,97.0
898,176.46236994166665,176.55312338749997,57.0,83.0
899,176.46236994166665,176.5565480458333,61.0,90.0
900,176.46236994166665,176.5668220208333,52.0,78.0
901,176.66784944166665,176.73976726666663,61.0,47.0
902,176.05141094166663,176.74490425416664,45.0,100.0
903,176.66784944166665,176.75517822916663,57.0,55.0
904,176.87332894166664,177.0548358333333,57.0,95.0
905,176.87332894166664,177.06510980833332,61.0,102.0
906,177.28428794166663,177.42812359166663,57.0,92.0
907,176.87332894166664,177.4914797708333,45.0,107.0
908,177.28428794166663,177.4914797708333,61.0,95.0
909,177.48976744166663,177.7945620333333,52.0,72.0
910,177.69524694166665,178.0154524958333,57.0,96.0
911,177.69524694166665,178.1798360958333,61.0,112.0
912,177.69524694166665,178.18839774166665,45.0,90.0
913,178.10620594166664,178.60278139999997,52.0,85.0
914,176.05141094166663,178.62332934999998,33.0,76.0
915,178.51716494166664,178.65072661666665,45.0,117.0
916,178.51716494166664,178.90415133333332,57.0,97.0
917,178.51716494166664,178.9246992833333,61.0,112.0
918,178.92812394166666,179.21065825416665,52.0,89.0
919,179.33908294166665,179.8921652625,59.0,100.0
920,179.33908294166665,179.93326116249997,52.0,95.0
921,179.33908294166665,180.01545296249998,56.0,107.0
922,179.33908294166665,180.2705900083333,47.0,99.0
923,180.16100094166663,180.43326127916663,52.0,92.0
924,180.16100094166663,180.62846680416664,56.0,127.0
925,180.16100094166663,180.65415174166665,59.0,100.0
926,180.57195994166665,180.68154900833332,52.0,35.0
927,180.77743944166664,180.8681928875,52.0,52.0
928,180.77743944166664,180.8681928875,59.0,59.0
929,180.77743944166664,180.89045316666665,56.0,63.0
930,180.57195994166665,181.09764499583332,47.0,79.0
931,180.98291894166664,181.5342889333333,59.0,99.0
932,180.98291894166664,181.5565492125,52.0,95.0
933,180.98291894166664,181.5959327833333,56.0,112.0
934,181.39387794166663,181.80483694166665,47.0,79.0
935,179.75004194166664,181.89559038749996,44.0,37.0
936,179.33908294166665,182.06168631666665,40.0,90.0
937,182.01031644166665,182.0942205708333,47.0,76.0
938,181.80483694166665,182.21750827083332,59.0,102.0
939,181.80483694166665,182.23634389166665,56.0,127.0
940,182.21579594166664,182.4794946333333,52.0,88.0
941,182.62675494166663,182.9315495333333,61.0,117.0
942,182.62675494166663,182.93839884999997,57.0,117.0
943,182.62675494166663,182.97435776249998,52.0,97.0
944,183.03771394166665,183.1370290333333,52.0,51.0
945,183.03771394166665,183.14216602083332,57.0,70.0
946,183.03771394166665,183.1473030083333,61.0,72.0
947,182.62675494166663,183.2654537208333,45.0,102.0
948,183.24319344166665,183.30826194999997,61.0,32.0
949,183.24319344166665,183.3425085333333,57.0,45.0
950,183.44867294166664,183.58223461666665,52.0,96.0
951,183.44867294166664,183.60963188333332,57.0,100.0
952,183.44867294166664,183.61134421249997,61.0,100.0
953,183.85963194166663,183.92983743749997,52.0,68.0
954,183.85963194166663,183.93668675416663,61.0,77.0
955,183.85963194166663,183.9401114125,57.0,78.0
956,183.44867294166664,184.08052240416663,45.0,100.0
957,184.06511144166663,184.31168684166664,52.0,82.0
958,184.06511144166663,184.33052246249997,61.0,107.0
959,184.06511144166663,184.3390841083333,57.0,102.0
960,184.27059094166665,184.68154994166665,45.0,92.0
961,184.47607044166665,184.9606595958333,61.0,100.0
962,184.47607044166665,184.96237192499999,57.0,99.0
963,184.88702944166664,185.17812539999997,45.0,96.0
964,182.62675494166663,185.50346794166663,33.0,69.0
965,185.09250894166664,185.6353172875,57.0,97.0
966,185.09250894166664,185.68839949166664,61.0,102.0
967,185.29798844166663,185.77401594999998,45.0,76.0
968,185.50346794166663,185.80483787499998,52.0,74.0
969,185.91442694166665,186.41271472916665,57.0,99.0
970,185.91442694166665,186.41785171666663,61.0,99.0
971,186.32538594166664,186.8048381083333,52.0,66.0
972,186.73634494166663,187.22264642499997,57.0,83.0
973,186.73634494166663,187.22949574166665,61.0,92.0
974,187.14730394166665,187.61819446249999,52.0,69.0
975,187.55826294166664,188.0634000458333,57.0,81.0
976,187.55826294166664,188.0788110083333,61.0,90.0
977,185.91442694166665,188.28257817916665,33.0,64.0
978,187.96922194166663,188.45381109583332,52.0,69.0
979,185.91442694166665,188.46579739999999,45.0,100.0
980,188.38018094166665,188.7877152833333,57.0,79.0
981,188.38018094166665,188.8031262458333,61.0,92.0
982,188.79113994166664,189.28600307083332,52.0,70.0
983,189.20209894166663,189.66785247499996,56.0,96.0
984,189.20209894166663,189.69524974166663,61.0,99.0
985,189.61305794166665,190.12161970416665,52.0,72.0
986,190.02401694166664,190.48463348749996,61.0,88.0
987,190.02401694166664,190.49148280416665,56.0,79.0
988,190.43497594166664,190.8938801583333,52.0,62.0
989,189.20209894166663,191.25518161249997,49.0,67.0
990,189.20209894166663,191.31682546249996,37.0,69.0
991,190.84593494166663,191.35963369166663,56.0,68.0
992,190.84593494166663,191.36819533749997,61.0,81.0
993,191.25689394166665,191.7260721333333,52.0,75.0
994,191.66785294166664,192.07196262499997,61.0,102.0
995,191.66785294166664,192.10449687916665,56.0,100.0
996,192.07881194166663,192.56511342499996,52.0,86.0
997,192.48977094166665,193.01203133749996,57.0,92.0
998,192.48977094166665,193.0514149083333,61.0,100.0
999,192.90072994166664,193.3853190958333,52.0,69.0
1000,193.31168894166663,193.79627809583332,61.0,93.0
1001,193.31168894166663,193.80312741249998,57.0,89.0
1002,193.72264794166665,194.21922339999998,52.0,59.0
1003,192.48977094166665,194.51716867499997,33.0,63.0
1004,192.48977094166665,194.57538786666663,45.0,81.0
1005,194.13360694166664,194.64559336249997,61.0,78.0
1006,194.13360694166664,194.66100432499996,57.0,69.0
1007,194.54456594166663,195.09764826249997,52.0,57.0
1008,194.95552494166665,195.36648394166664,57.0,86.0
1009,194.95552494166665,195.38189490416664,61.0,100.0
1010,195.36648394166664,195.82367582916663,52.0,73.0
1011,195.77744294166664,196.25347044999998,56.0,93.0
1012,195.77744294166664,196.30826498333332,61.0,100.0
1013,196.18840194166663,196.66614177916665,52.0,73.0
1014,196.59936094166665,197.0736761208333,56.0,83.0
1015,196.59936094166665,197.11305969166665,61.0,90.0
1016,197.01031994166664,197.48121046249997,52.0,58.0
1017,197.42127894166663,197.91785439999998,56.0,72.0
1018,197.42127894166663,197.99148455416665,61.0,79.0
1019,195.77744294166664,198.03086812499998,49.0,68.0
1020,195.77744294166664,198.08395032916664,37.0,63.0
1021,197.83223794166665,198.22778597916664,52.0,55.0
1022,198.24319694166664,198.66100525833332,61.0,112.0
1023,198.24319694166664,198.69867649999998,56.0,77.0
1024,198.65415594166663,199.04456699166664,52.0,86.0
1025,199.06511494166665,199.55312875416664,57.0,90.0
1026,199.06511494166665,199.5651150583333,54.0,93.0
1027,199.47607394166664,199.9349781583333,50.0,63.0
1028,199.88703294166663,200.33737551249996,54.0,90.0
1029,199.88703294166663,200.3510741458333,57.0,86.0
1030,200.29799194166665,200.77573177916665,50.0,56.0
1031,200.70895094166664,201.17470447499997,54.0,89.0
1032,200.70895094166664,201.2140880458333,57.0,89.0
1033,201.11990994166663,201.63189636249996,50.0,55.0
1034,199.06511494166665,201.73121145416664,38.0,61.0
1035,199.06511494166665,201.84422517916664,45.0,70.0
1036,201.53086894166663,201.92127999166664,57.0,89.0
1037,201.53086894166663,201.9281293083333,54.0,88.0
1038,201.94182794166665,202.38360886666663,50.0,82.0
1039,202.35278694166664,202.82881444999998,57.0,90.0
1040,202.35278694166664,202.85621171666665,61.0,97.0
1041,202.76374594166663,203.23977344999997,52.0,68.0
1042,203.17470494166665,203.63703381666664,57.0,77.0
1043,203.17470494166665,203.6644310833333,61.0,88.0
1044,203.58566394166664,204.06682843749996,52.0,58.0
1045,203.99662294166663,204.50347237499997,57.0,74.0
1046,203.99662294166663,204.56340389583332,61.0,73.0
1047,204.40758194166665,204.90415739999997,52.0,69.0
1048,204.81854094166664,205.24833556249996,61.0,99.0
1049,204.81854094166664,205.30141776666665,57.0,92.0
1050,202.35278694166664,205.51032192499997,45.0,82.0
1051,205.22949994166663,205.64045894166665,52.0,78.0
1052,205.6164863333333,205.64045894166665,52.0,83.0
1053,205.61991099166664,206.36477417916663,59.0,82.0
1054,205.61819866249996,206.3767604833333,56.0,88.0
1055,206.48292489166664,207.13874696249997,59.0,77.0
1056,205.61819866249996,207.14559627916663,28.0,70.0
1057,206.47778790416663,207.15415792499996,56.0,89.0
1058,206.4795002333333,207.15929491249997,52.0,79.0
1059,205.61477400416663,207.17470587499997,40.0,88.0
1060,207.2603223333333,208.23806228749996,28.0,63.0
1061,207.25176068749997,208.6010760708333,40.0,69.0
1062,207.26545932083332,208.61991169166663,56.0,90.0
1063,207.26374699166664,208.6216240208333,52.0,75.0
1064,207.26717164999997,208.64388429999997,59.0,78.0
1065,208.80826789999998,209.36306254999997,33.0,49.0
1066,209.02402137499996,209.48635024999996,45.0,52.0
1067,208.7654596708333,209.65073384999997,52.0,75.0
1068,208.84422681249998,209.6747064583333,57.0,77.0
1069,208.9401172458333,209.79285717083332,61.0,93.0
1070,210.0753914833333,210.6866929958333,57.0,78.0
1071,210.27744632499997,210.71409026249998,61.0,86.0
1072,210.4760765083333,210.7175149208333,64.0,77.0
1073,210.6661450458333,210.81854234166664,68.0,74.0
1074,210.94183004166663,211.53087127499998,69.0,57.0
1075,211.1952547583333,211.67470692499998,73.0,69.0
1076,211.43840549999996,211.6884055583333,76.0,73.0
1077,211.6473096583333,211.76374804166664,80.0,76.0
1078,211.90415903333331,212.3716248958333,81.0,61.0
1079,212.14559744583332,212.40929613749998,85.0,57.0
1080,212.39046051666665,212.45724135416663,88.0,59.0
1081,212.70381675416664,213.0753921833333,92.0,95.0
1082,213.04285792916664,213.16957028749997,93.0,61.0
1083,213.61135121249998,214.46922812499997,97.0,60.0
1084,209.7568982583333,214.47607744166663,49.0,34.0
1085,209.90244623749996,214.48121442916664,52.0,75.0
1086,213.60278956666664,214.49662539166664,93.0,38.0
1087,213.66957040416665,214.50005004999997,100.0,66.0
1088,209.61991192499997,214.57196787499996,45.0,41.0
1089,215.28258447916664,216.54970806249997,33.0,56.0
