,start,end,pitch,velocity
0,25.681604,26.107496431250002,73.0,75.0
1,26.110175,26.5369602875,73.0,87.0
2,26.538746000000003,26.9655312875,76.0,86.0
3,26.967317,27.3941022875,75.0,86.0
4,27.395888,27.80709479375,73.0,86.0
5,27.809680999999998,28.23123261875,73.0,75.0
6,28.223474,28.6355428625,71.0,77.0
7,28.637266999999998,29.0493358625,68.0,83.0
8,29.05106,29.484030408333332,73.0,95.0
9,29.485841999999998,29.7005156125,80.0,95.0
10,29.703233,29.9016022875,80.0,91.0
11,29.920624,30.126239654166667,75.0,66.0
12,30.138015,30.34453645,73.0,66.0
13,30.355406,30.7766010625,71.0,75.0
14,30.790188,32.53470875,73.0,99.0
15,32.542008,32.964880425000004,73.0,90.0
16,32.96754,33.39129895,73.0,89.0
17,33.393072000000004,33.853178475,76.0,90.0
18,33.818604,34.24236295,75.0,90.0
19,34.244136000000005,34.67935378125001,73.0,79.0
20,34.68209100000001,35.155117968750005,73.0,76.0
21,35.120046,35.5499024375,71.0,92.0
22,35.551701,35.9815574375,68.0,65.0
23,35.983356,37.2615968875,73.0,103.0
24,37.263332999999996,37.6782638875,66.0,96.0
25,37.68,39.40761840625,68.0,101.0
26,39.406706,39.84009896875,71.0,101.0
27,39.844661,40.0618136875,71.0,92.0
28,40.0636385,40.2807911875,73.0,83.0
29,40.282616,40.731519875,76.0,95.0
30,40.720571,41.1567011875,75.0,101.0
31,41.158526,41.578419162500005,73.0,105.0
32,41.58106,42.852884949999996,73.0,106.0
33,42.854658,43.25714035,71.0,97.0
34,43.28019,43.3830269,71.0,91.0
35,43.386573,43.70394895,73.0,83.0
36,43.705722,44.12948095,80.0,90.0
37,44.131254,44.554126425,75.0,90.0
38,44.556786,44.78944959375,75.0,81.0
39,44.775763500000004,46.2942074375,73.0,90.0
40,46.296006,46.718878425,78.0,100.0
41,46.721537999999995,46.93253095,78.0,90.0
42,46.934304,47.18430405,76.0,93.0
43,47.14707,47.569942425,78.0,97.0
44,47.572601999999996,47.995474425,78.0,100.0
45,47.998134,48.63465895,78.0,111.0
46,48.636432,48.8598363,76.0,91.0
47,48.849198,49.272070424999995,78.0,97.0
48,49.27473,49.65948185,78.0,100.0
49,49.700261999999995,50.11842778125,73.0,93.0
50,50.131916999999994,50.99342843749999,83.0,90.0
51,50.99522699999999,51.42508343749999,80.0,101.0
52,51.42688199999999,51.85673843749999,78.0,106.0
53,51.858537,52.67494385,76.0,97.0
54,52.715723999999994,53.139482949999994,75.0,91.0
55,53.141256,54.82668974999999,76.0,95.0
56,54.828438,55.46496295,75.0,108.0
57,55.466736,55.699892075,80.0,97.0
58,55.679502,56.10326095,75.0,99.0
59,56.105033999999996,56.528792949999996,80.0,99.0
60,56.530566,56.9604224375,75.0,103.0
61,56.962221,57.8237324375,73.0,103.0
62,57.825531,58.2553874375,71.0,100.0
63,58.257186,61.7086274375,73.0,116.0
64,61.710426,62.133298425,80.0,111.0
65,62.135957999999995,62.559716949999995,80.0,108.0
66,62.56149,62.98524895,83.0,98.0
67,62.987021999999996,63.4444689,80.0,109.0
68,63.412554,63.835426425,78.0,106.0
69,63.838086,65.11202242499999,78.0,105.0
70,65.114682,65.537554425,78.0,106.0
71,65.54021399999999,65.963086425,78.0,97.0
72,65.965746,66.39253128749999,78.0,96.0
73,66.394317,66.8211022875,75.0,96.0
74,66.82288799999999,67.04390218333333,76.0,91.0
75,67.040279,67.25585840833332,75.0,61.0
76,67.25766999999999,68.54780828749999,73.0,71.0
77,68.54959399999998,68.98801165624998,80.0,101.0
78,68.99076899999999,69.43010577083332,80.0,98.0
79,69.43194399999999,69.86491440833332,85.0,98.0
80,69.86672599999999,70.08230540833333,80.0,99.0
81,70.08411699999999,70.29969640833332,78.0,98.0
82,70.30150799999998,70.71643888749999,80.0,105.0
83,70.71817499999999,71.94994681874998,78.0,103.0
84,71.96817599999999,72.39715284374998,78.0,103.0
85,72.42272099999998,72.87537206249999,78.0,101.0
86,72.87726599999999,73.32991706249999,83.0,100.0
87,73.33181099999999,73.56950015624999,80.0,105.0
88,73.55908349999999,73.78446206249998,78.0,97.0
89,73.78635599999998,77.17197077083333,80.0,109.0
90,77.17380899999999,78.02221342499999,83.0,105.0
91,78.02487299999999,78.87416395,83.0,103.0
92,78.875937,79.31432941874999,80.0,101.0
93,79.304508,80.1598642875,78.0,109.0
94,80.16165,80.58754243125,75.0,109.0
95,80.590221,81.01099444166667,75.0,119.0
96,81.012755,85.91688728749999,73.0,106.0
97,94.322341,94.7045511625,73.0,75.0
98,94.706955,95.08996644166666,73.0,87.0
99,95.09156899999999,95.51234244166666,76.0,86.0
100,95.51410299999999,95.93487644166666,75.0,86.0
101,95.93663699999999,96.378303225,73.0,86.0
102,96.381081,96.8488544375,73.0,75.0
103,96.849831,97.28280140833333,71.0,77.0
104,97.284613,97.71758340833333,68.0,83.0
105,97.71939499999999,98.15236540833332,73.0,95.0
106,98.15417699999999,98.3688506125,80.0,95.0
107,98.371568,98.5699372875,80.0,91.0
108,98.58895899999999,98.78738537499999,75.0,66.0
109,98.79874899999999,98.9980495,73.0,66.0
110,99.00853899999998,99.41500712499999,71.0,75.0
111,99.428119,101.10825876666665,73.0,99.0
112,101.11530099999999,101.53519416249999,73.0,90.0
113,101.53783499999999,101.95860844166666,73.0,89.0
114,101.96036899999999,102.41089019374999,76.0,90.0
115,102.37703599999999,102.79196688749998,75.0,90.0
116,102.79370299999998,103.23866549374998,73.0,79.0
117,103.24146399999998,103.72404639374997,73.0,76.0
118,103.68922499999998,104.11601028749998,71.0,92.0
119,104.11779599999998,104.54458128749998,68.0,65.0
120,104.54636699999998,104.97007882291665,73.0,103.0
121,104.98754199999998,105.43853841874997,73.0,103.0
122,105.42871699999998,105.82782374374997,64.0,103.0
123,105.85728799999998,106.28407328749998,66.0,96.0
124,106.28585899999997,108.02794005624999,68.0,101.0
125,108.02707199999999,108.43939871874998,71.0,101.0
126,108.443739,108.65033638749999,71.0,92.0
127,108.65207249999999,108.85866988749999,73.0,83.0
128,108.86040599999998,109.28748967499999,76.0,95.0
129,109.27707299999999,109.6920038875,75.0,101.0
130,109.69373999999999,110.12895778125,73.0,105.0
131,110.131695,111.43740240833333,73.0,106.0
132,111.43921399999999,111.83606674999999,71.0,97.0
133,111.85879399999999,112.069458125,71.0,91.0
134,112.06858399999999,112.25652087499999,73.0,83.0
135,112.278374,112.69620574999999,80.0,90.0
136,112.697954,113.11491162499999,75.0,90.0
137,113.11753399999999,113.35364487499999,75.0,81.0
138,113.339756,114.83246432083331,73.0,90.0
139,114.83416499999998,115.26005743124999,78.0,100.0
140,115.26273599999999,115.47523578749998,78.0,90.0
141,115.47702149999998,115.72880696249999,76.0,93.0
142,115.69130699999998,116.11719943124999,78.0,97.0
143,116.11987799999999,116.54577043124999,78.0,100.0
144,116.54844899999999,117.18951978749999,78.0,111.0
145,117.19130549999998,117.41630527499998,76.0,91.0
146,117.40559099999999,117.83148343124998,78.0,97.0
147,117.83416199999999,118.23305772916666,78.0,100.0
148,118.275337,118.70272528125,73.0,93.0
149,118.716512,119.5726178875,83.0,90.0
150,119.574354,119.98928488749999,80.0,101.0
151,119.99102099999999,120.41477995,78.0,106.0
152,120.416553,121.22683684999998,76.0,97.0
153,121.26761699999999,121.69137595,75.0,91.0
154,121.69314899999999,123.39350395,76.0,95.0
155,123.395277,124.03180194999999,75.0,108.0
156,124.03357499999998,124.266731075,80.0,97.0
157,124.24634099999999,124.67009995,75.0,99.0
158,124.67187299999999,125.09563194999998,80.0,99.0
159,125.097405,125.5335351875,75.0,103.0
160,125.53536,126.4094451875,73.0,103.0
161,126.41127,126.8474001875,71.0,100.0
162,126.84922499999999,130.28942044166666,73.0,116.0
163,130.291181,130.714053425,80.0,111.0
164,130.716713,131.14047195,80.0,108.0
165,131.142245,131.56600394999998,83.0,98.0
166,131.567777,132.02591764999997,80.0,109.0
167,131.99330899999998,132.42537361249998,78.0,106.0
168,132.428091,133.7297196125,78.0,105.0
169,133.73243699999998,134.15832943124997,78.0,106.0
170,134.16100799999998,134.58690043124997,78.0,97.0
171,134.589579,135.01636428749998,78.0,96.0
172,135.01814999999996,135.4449352875,75.0,96.0
173,135.44672099999997,135.66457792499997,76.0,91.0
174,135.66100649999998,135.87350628749996,75.0,61.0
175,135.87529199999997,137.15921928749998,73.0,71.0
176,137.161005,137.58689743124998,80.0,101.0
177,137.58957599999997,138.0163612875,80.0,98.0
178,138.01814699999997,138.44493228749997,85.0,98.0
179,138.44671799999998,138.65921778749998,80.0,99.0
180,138.66100349999996,138.87350328749997,78.0,98.0
181,138.87528899999998,139.30207428749998,80.0,105.0
182,139.30386,140.15653771874997,78.0,103.0
183,140.16100199999997,140.57260873124997,78.0,103.0
184,140.58957299999997,140.99403688124997,78.0,103.0
185,141.01814399999998,141.2306437875,78.0,101.0
186,141.23242949999997,141.43689358125,78.0,101.0
187,141.44671499999998,141.87350028749998,83.0,100.0
188,141.875286,142.09939291874997,80.0,105.0
189,142.08957149999998,142.30207128749998,78.0,97.0
190,142.30385699999997,145.73063928749997,80.0,109.0
191,145.73242499999998,146.58688843124997,83.0,105.0
192,146.589567,147.4449232875,83.0,103.0
193,147.44670899999997,147.88825609374996,80.0,101.0
194,147.87836399999998,148.73987543749996,78.0,109.0
195,148.74167399999996,149.17063115624998,75.0,109.0
196,149.17332899999997,149.43052343749997,75.0,119.0
197,152.57826899999998,153.00416143124997,80.0,111.0
198,153.00683999999998,153.43362528749998,80.0,108.0
199,153.435411,153.86219628749998,83.0,98.0
200,149.38915649999996,154.26844588125,73.0,106.0
201,153.86398199999996,154.29255299999997,80.0,109.0
202,154.29255299999997,154.71844543125,78.0,106.0
203,154.72112399999997,156.00415843124998,78.0,105.0
204,156.006837,156.43272943124998,78.0,106.0
205,156.43540799999997,156.86130043125,78.0,97.0
206,156.86397899999997,157.29076428749997,78.0,96.0
207,157.29254999999998,157.49790693749998,76.0,96.0
208,157.50683549999997,157.72379956874997,75.0,96.0
209,157.72112099999998,157.938977925,76.0,91.0
210,157.93540649999997,158.14790628749998,75.0,61.0
211,158.149692,159.43361928749997,73.0,71.0
212,159.43540499999997,159.86129743124997,80.0,101.0
213,159.86397599999998,160.29076128749998,80.0,98.0
214,160.29254699999998,160.71933228749998,85.0,98.0
215,160.721118,160.93361778749997,80.0,99.0
216,160.93540349999998,161.1479032875,78.0,98.0
217,161.14968899999997,161.5764742875,80.0,105.0
218,161.57825999999997,162.43093771875,78.0,103.0
219,162.43540199999998,162.8479015875,78.0,103.0
220,162.863973,163.26843688124998,78.0,103.0
221,163.29254399999996,163.50504378749997,78.0,101.0
222,163.50682949999998,163.71129358124998,78.0,101.0
223,163.72111499999997,164.14790028749997,83.0,100.0
224,164.14968599999997,164.37379291874998,80.0,105.0
225,164.3639715,164.57647128749997,78.0,97.0
226,164.57825699999998,168.00503928749998,80.0,109.0
227,168.006825,168.90625945624998,83.0,105.0
228,168.909079,169.7895907708333,83.0,103.0
229,169.791429,170.24271426041665,80.0,101.0
230,170.23260399999998,171.11311577083333,78.0,109.0
231,171.11495399999998,171.64895957291665,83.0,109.0
232,171.66642274999998,180.92643224999998,85.0,106.0
