,start,end,pitch,velocity
0,1.7142840000000001,2.1303550125000004,68.0,59.0
1,1.7142840000000001,2.1696406875000003,64.0,48.0
2,1.7142840000000001,2.1705335437500004,73.0,53.0
3,2.571426,2.9776755937500003,68.0,59.0
4,2.571426,3.0267826875000003,64.0,39.0
5,3.4285680000000003,3.8214247500000007,66.0,53.0
6,3.4285680000000003,3.8616032812500003,63.0,39.0
7,1.7142840000000001,4.710709575000001,49.0,57.0
8,6.857136000000001,7.071421500000001,61.0,76.0
9,6.857136000000001,7.260707025000001,64.0,82.0
10,6.857136000000001,7.260707025000001,68.0,77.0
11,7.285707000000001,7.853563575000001,56.0,35.0
12,7.714278000000001,7.902670668750001,63.0,50.0
13,7.714278000000001,7.916956368750001,66.0,72.0
14,8.571420000000002,9.079455206250001,68.0,62.0
15,8.571420000000002,9.093740906250002,64.0,57.0
16,7.714278000000001,9.500883356250002,61.0,18.0
17,8.142849000000002,9.574097568750002,56.0,33.0
18,9.428562000000001,9.6339189375,63.0,60.0
19,9.428562000000001,9.66516890625,64.0,62.0
20,9.428562000000001,9.762490237500002,68.0,69.0
21,9.642847500000002,9.960704325000002,61.0,29.0
22,6.857136000000001,10.0142757,49.0,86.0
23,9.857133000000001,10.0517756625,63.0,26.0
24,9.857133000000001,10.079454206250002,66.0,56.0
25,9.642847500000002,10.147311281250001,56.0,34.0
26,10.285704,10.7767749375,68.0,72.0
27,10.285704,10.786596356250001,64.0,68.0
28,11.142846000000002,11.574095568750002,68.0,53.0
29,11.142846000000002,11.651774062500001,64.0,38.0
30,11.999988000000002,12.499061575000002,63.0,41.0
31,11.999988000000002,12.509246750000003,64.0,45.0
32,11.999988000000002,12.522209700000001,68.0,50.0
33,10.714275,13.217579375000001,56.0,22.0
34,12.888876000000002,13.333320000000002,63.0,50.0
35,12.888876000000002,13.357394050000002,64.0,54.0
36,10.285704,13.437023600000002,49.0,77.0
37,12.888876000000002,13.472208750000002,68.0,60.0
38,13.333320000000002,13.533319800000001,61.0,17.0
39,13.555542000000003,13.853303625,56.0,41.0
40,13.777764000000001,14.2040233125,68.0,60.0
41,13.777764000000001,14.2148146875,63.0,44.0
42,13.777764000000001,14.216613250000002,64.0,56.0
43,14.641074000000001,15.040354875000002,68.0,54.0
44,14.641074000000001,15.0781246875,63.0,39.0
45,14.641074000000001,15.083520375,64.0,53.0
46,13.777764000000001,15.709315839583335,49.0,53.0
47,15.504384000000002,16.59126931875,68.0,47.0
48,15.504384000000002,16.6776180375,63.0,47.0
49,15.504384000000002,16.685019356250002,64.0,54.0
50,17.110184,17.6333977625,66.0,101.0
51,17.110184,17.70036198125,61.0,77.0
52,17.110184,17.7583976375,69.0,59.0
53,17.110184,18.13607583125,54.0,68.0
54,17.967326,18.4262541125,66.0,85.0
55,17.967326,18.51821830625,61.0,60.0
56,17.967326,18.66107530625,69.0,42.0
57,18.6101825,18.66107530625,69.0,17.0
58,18.395897,18.8369679875,54.0,2.0
59,18.824468,19.3619674625,66.0,85.0
60,18.824468,19.40750313125,61.0,60.0
61,19.253039,19.9869668375,54.0,10.0
62,17.110184,20.18071664375,42.0,90.0
63,19.68161,20.38785929375,66.0,94.0
64,19.68161,20.40571641875,69.0,21.0
65,19.68161,20.41643069375,61.0,63.0
66,20.3244665,20.55214484375,45.0,51.0
67,20.110181,20.56821625625,49.0,50.0
68,20.538752000000002,21.11821570625,66.0,78.0
69,20.538752000000002,21.142322825,61.0,53.0
70,20.538752000000002,21.211965612500002,69.0,37.0
71,20.538752000000002,21.779822187500002,54.0,41.0
72,21.395894000000002,21.93607203125,66.0,68.0
73,21.395894000000002,22.017321950000003,69.0,15.0
74,21.395894000000002,22.020893375,61.0,41.0
75,20.538752000000002,23.361070606250003,42.0,57.0
76,22.253036,23.97356999375,49.0,69.0
77,23.96732,23.97356999375,49.0,69.0
78,25.681604,25.687853993750004,49.0,66.0
79,25.681604,26.260174850000002,68.0,82.0
80,25.681604,26.26999626875,64.0,80.0
81,25.681604,26.32713906875,61.0,69.0
82,26.538746000000003,26.971781281250003,61.0,59.0
83,26.538746000000003,26.980709843750002,68.0,60.0
84,26.538746000000003,27.0048169625,64.0,69.0
85,27.395888,27.80881893125,64.0,60.0
86,27.395888,27.8183016875,68.0,66.0
87,27.395888,27.8596809875,63.0,53.0
88,27.809680999999998,28.372611893749998,56.0,19.0
89,28.223474,28.72261180625,66.0,85.0
90,28.223474,28.75881869375,63.0,53.0
91,28.637266999999998,29.1162773,56.0,63.0
92,29.05106,29.983123912499998,64.0,69.0
93,29.05106,30.046529620833333,68.0,72.0
94,29.920624,30.40975375,61.0,60.0
95,29.05106,30.425152279166667,49.0,66.0
96,29.485841999999998,30.7993120625,56.0,31.0
97,30.355406,30.84128275,63.0,66.0
98,30.790188,31.57029534375,64.0,74.0
99,31.228143,31.643287843750002,56.0,25.0
100,30.790188,31.677046875000002,68.0,66.0
101,30.790188,32.0547830625,49.0,66.0
102,31.666098,32.05752028125,61.0,44.0
103,31.666098,32.085804875,66.0,94.0
104,31.666098,32.115001875,63.0,60.0
105,32.104053,32.52649709375,68.0,69.0
106,32.542008,32.766298825,63.0,68.0
107,32.96754,33.404596825000006,56.0,51.0
108,32.104053,33.7157671,64.0,66.0
109,32.542008,33.769845125,68.0,66.0
110,33.393072000000004,33.7760508,61.0,54.0
111,32.542008,33.890412525,49.0,82.0
112,33.818604,34.179419675000005,56.0,74.0
113,34.244136000000005,34.71402521875,66.0,53.0
114,34.244136000000005,34.7350105625,63.0,65.0
115,34.244136000000005,34.7605579375,59.0,60.0
116,34.68209100000001,35.26303171875,54.0,56.0
117,35.120046,35.57778015625,63.0,74.0
118,35.120046,35.586772968750005,66.0,87.0
119,35.120046,35.5930679375,59.0,62.0
120,34.244136000000005,35.61644925,47.0,71.0
121,35.551701,35.653319781250005,54.0,74.0
122,35.983356,36.47706140625,64.0,84.0
123,35.983356,36.52921971875,61.0,80.0
124,35.983356,36.65242125,57.0,69.0
125,35.983356,37.27288161875,45.0,33.0
126,36.846666,37.2789580125,64.0,74.0
127,36.846666,37.34579834375,61.0,66.0
128,36.846666,37.389201156249996,69.0,36.0
129,37.263332999999996,37.42392340625,57.0,59.0
130,37.68,38.25608615,59.0,69.0
131,37.68,38.256991945833335,63.0,66.0
132,38.549564,39.00224211875,63.0,88.0
133,38.114782,39.035277799999996,56.0,51.0
134,38.549564,39.035277799999996,58.0,71.0
135,37.68,39.15759910625,44.0,82.0
136,38.978134999999995,39.35402748125,59.0,78.0
137,38.978134999999995,39.435903,66.0,98.0
138,39.406706,39.435903,66.0,94.0
139,39.406706,39.931339593749996,61.0,66.0
140,39.406706,39.9778723125,63.0,78.0
141,39.406706,40.04265315625,71.0,76.0
142,39.844661,40.30542615625,54.0,56.0
143,40.282616,40.61199465625,71.0,65.0
144,40.282616,40.691373999999996,59.0,37.0
145,40.282616,40.720571,63.0,76.0
146,40.282616,40.720571,66.0,92.0
147,39.406706,40.8063371875,47.0,92.0
148,40.720571,41.15761359375,54.0,90.0
149,41.158526,41.66908791666667,68.0,88.0
150,41.158526,41.67613015,64.0,85.0
151,42.003594,42.297033775,63.0,72.0
152,42.21636,42.49472885,64.0,76.0
153,41.792327,42.527530275,61.0,72.0
154,42.429126,42.6241615,66.0,78.0
155,41.158526,42.649870725,49.0,90.0
156,41.58106,42.6915374,56.0,65.0
157,42.641892,42.8723885,68.0,74.0
158,42.854658,42.8723885,68.0,87.0
159,42.854658,43.367955975,63.0,90.0
160,42.854658,43.41671485,59.0,69.0
161,42.854658,44.132140525,44.0,82.0
162,43.28019,44.135686625,51.0,75.0
163,43.705722,44.21104125,63.0,90.0
164,43.705722,44.26068665,59.0,75.0
165,43.705722,44.369729225,68.0,94.0
166,43.705722,44.5695596875,56.0,48.0
167,44.556786,44.8943763125,61.0,76.0
168,44.556786,44.899850750000006,64.0,90.0
169,45.213718500000006,45.54690471875,68.0,44.0
170,45.432696,45.7618329375,76.0,92.0
171,45.6485235,45.8265811875,75.0,97.0
172,45.432696,45.95517840625,61.0,62.0
173,44.556786,45.990250375,49.0,88.0
174,45.864351,46.03791228125,73.0,71.0
175,44.994741000000005,46.1952865,56.0,63.0
176,46.0801785,46.296006,71.0,78.0
177,46.296006,46.988382025,61.0,69.0
178,46.296006,47.011431675,66.0,75.0
179,46.296006,47.034481325,69.0,99.0
180,46.296006,47.405048775,54.0,76.0
181,47.14707,47.617814775,66.0,86.0
182,47.14707,47.623133925,61.0,74.0
183,47.14707,47.637318324999995,69.0,82.0
184,46.296006,47.697602024999995,42.0,97.0
185,47.572601999999996,47.70912685,54.0,72.0
186,47.998134,48.766751174999996,61.0,72.0
187,47.998134,48.79068735,66.0,99.0
188,47.998134,48.816396575,69.0,83.0
189,47.998134,49.114268975,42.0,77.0
190,47.998134,49.128453375,54.0,85.0
191,48.849198,49.27473,66.0,96.0
192,48.849198,49.293347024999996,61.0,82.0
193,48.849198,49.3137371,69.0,54.0
194,49.27473,49.3243754,54.0,60.0
195,49.27473,49.396183924999995,42.0,103.0
196,49.700261999999995,49.93227656249999,68.0,88.0
197,49.700261999999995,49.93677296874999,64.0,88.0
198,49.700261999999995,49.94216865625,61.0,81.0
199,49.700261999999995,49.95745643749999,49.0,63.0
200,49.700261999999995,49.95835571874999,37.0,91.0
201,50.131916999999994,50.73173759375,49.0,86.0
202,50.131916999999994,51.034795374999995,37.0,96.0
203,50.131916999999994,51.03929178124999,64.0,72.0
204,50.131916999999994,51.03929178124999,68.0,91.0
205,50.131916999999994,51.04378818749999,61.0,74.0
206,50.99522699999999,51.15619834374999,49.0,72.0
207,51.42688199999999,51.926882375,68.0,76.0
208,51.42688199999999,52.007817687499994,64.0,79.0
209,51.42688199999999,52.189472499999994,61.0,72.0
210,51.42688199999999,52.794624725,58.0,56.0
211,51.42688199999999,52.8469297,46.0,74.0
212,53.141256,54.50151525,64.0,74.0
213,53.141256,54.50238937499999,57.0,47.0
214,53.141256,54.50238937499999,61.0,72.0
215,53.141256,54.538228499999995,69.0,60.0
216,53.141256,54.560081624999995,45.0,68.0
217,54.828438,57.4927969375,68.0,78.0
218,54.828438,57.50268903125,63.0,88.0
219,54.828438,57.50808471875,60.0,45.0
220,54.828438,57.56384015625,56.0,45.0
221,54.828438,57.5899193125,44.0,65.0
222,58.257186,59.00269015625,61.0,85.0
223,58.257186,59.0143808125,64.0,72.0
224,59.120496,59.82103609375,64.0,72.0
225,58.257186,59.839921000000004,56.0,50.0
226,59.552151,59.90466925,59.0,66.0
227,59.983806,60.0899211875,61.0,84.0
228,60.1996335,60.361504125,63.0,65.0
229,60.415461,60.7266123125,64.0,78.0
230,60.6312885,60.9172599375,66.0,63.0
231,60.847116,60.98380675,68.0,56.0
232,61.0629435,61.2733753125,71.0,62.0
233,60.1996335,61.34441853125,56.0,54.0
234,60.847116,61.34621709375,61.0,44.0
235,58.257186,61.36060559375,49.0,60.0
236,61.278771,61.447835875,73.0,68.0
237,61.4945985,61.68794396875,75.0,68.0
238,61.710426,62.202447375,52.0,72.0
239,61.710426,62.372660175,64.0,86.0
240,61.710426,62.386844575,68.0,82.0
241,61.710426,62.399255925,59.0,68.0
242,61.710426,62.405461599999995,71.0,63.0
243,62.348724,62.576560924999995,52.0,47.0
244,62.56149,62.759185075,71.0,63.0
245,61.710426,62.82567445,40.0,86.0
246,62.56149,62.86113545,59.0,86.0
247,62.56149,62.8700007,68.0,92.0
248,62.56149,62.877979425,64.0,90.0
249,62.774256,62.938263125,52.0,63.0
250,62.987021999999996,63.089858899999996,68.0,82.0
251,62.987021999999996,63.26893695,59.0,60.0
252,63.412554,63.6997881,59.0,69.0
253,63.412554,63.719291649999995,63.0,82.0
254,63.412554,63.767164,66.0,86.0
255,63.199788,63.8274477,71.0,78.0
256,64.263618,64.53046202499999,66.0,97.0
257,64.05085199999999,64.54907905,59.0,65.0
258,63.838086,64.61645495,54.0,76.0
259,63.412554,64.651029425,47.0,82.0
260,64.476384,64.653689,71.0,69.0
261,64.68915,64.970178425,73.0,69.0
262,64.901916,64.998547225,75.0,65.0
263,65.114682,65.542873575,56.0,50.0
264,65.114682,65.792873625,63.0,96.0
265,65.114682,65.798192775,68.0,72.0
266,65.114682,65.8841857,60.0,47.0
267,65.75298,66.02556736874999,56.0,45.0
268,65.965746,66.46663835625,51.0,88.0
269,65.114682,66.4961026125,44.0,65.0
270,66.1800315,66.5246740125,56.0,82.0
271,66.394317,66.54788827499999,60.0,48.0
272,66.60860249999999,66.80056659374999,63.0,91.0
273,66.82288799999999,67.43792337083333,64.0,90.0
274,66.82288799999999,67.53574932083333,68.0,74.0
275,67.69245199999999,67.98173742499999,63.0,72.0
276,67.475061,68.06745162499999,61.0,57.0
277,67.25766999999999,68.11745157499999,56.0,56.0
278,66.82288799999999,68.13709441249999,49.0,77.0
279,67.90673749999999,68.19334435625,64.0,76.0
280,68.121023,68.43798696874998,66.0,79.0
281,68.33530849999998,68.52459402499998,68.0,79.0
282,68.54959399999998,68.85382092708332,61.0,72.0
283,68.54959399999998,69.00915129166665,64.0,77.0
284,68.54959399999998,69.02569535416666,68.0,72.0
285,69.21135649999998,69.53429892916665,63.0,68.0
286,68.99076899999999,69.57505974166665,61.0,78.0
287,69.43194399999999,69.73085662499999,64.0,72.0
288,68.77018149999998,69.83049416666665,56.0,60.0
289,68.54959399999998,69.90748681249998,49.0,82.0
290,69.649335,70.01708810833333,66.0,94.0
291,69.86672599999999,70.10585609999998,68.0,77.0
292,70.08411699999999,70.41522336874998,71.0,90.0
293,70.30150799999998,70.78327921874998,66.0,76.0
294,70.30150799999998,70.79195978124999,61.0,68.0
295,70.30150799999998,70.79977228749999,70.0,85.0
296,70.71817499999999,71.20428649999998,54.0,47.0
297,71.13484199999998,71.66262019999998,66.0,88.0
298,71.13484199999998,71.66609242499999,61.0,76.0
299,71.13484199999998,71.67130076249998,70.0,94.0
300,71.55150899999998,71.73032858749998,54.0,68.0
301,70.30150799999998,71.73206469999998,42.0,85.0
302,71.96817599999999,72.55908449999998,54.0,69.0
303,71.96817599999999,72.57707690624999,63.0,84.0
304,71.96817599999999,72.58370568749999,59.0,68.0
305,71.96817599999999,73.00889465624998,47.0,53.0
306,73.10453849999999,73.23995503124999,47.0,65.0
307,72.87726599999999,73.27593984374998,59.0,72.0
308,71.96817599999999,73.27972771874998,35.0,81.0
309,72.87726599999999,73.28540953124998,54.0,74.0
310,72.87726599999999,73.31950040624999,63.0,88.0
311,73.78635599999998,74.15876969999998,64.0,90.0
312,73.78635599999998,74.19497658749998,59.0,88.0
313,73.78635599999998,74.20704554999999,56.0,72.0
314,73.78635599999998,74.20963175624999,52.0,69.0
315,73.78635599999998,74.24842484999998,40.0,82.0
316,74.61394199999998,75.34704937499998,51.0,57.0
317,74.61394199999998,75.56659599999999,61.0,81.0
318,74.61394199999998,75.58875912499998,54.0,77.0
319,74.61394199999998,75.59851089999998,39.0,77.0
320,74.61394199999998,75.60648962499998,57.0,54.0
321,75.85028399999999,75.94587191666666,51.0,77.0
322,75.85028399999999,75.95598217708333,39.0,81.0
323,75.85028399999999,75.95782040625,63.0,84.0
324,75.85028399999999,75.96149686458332,54.0,77.0
325,75.85028399999999,75.96884978124999,57.0,54.0
326,76.07087149999998,76.17013587499999,51.0,65.0
327,76.07087149999998,76.17473144791666,63.0,76.0
328,76.07087149999998,76.17656967708332,39.0,82.0
329,76.07087149999998,76.17656967708332,57.0,48.0
330,76.07087149999998,76.18024613541665,54.0,65.0
331,76.29145899999999,76.38796603124999,51.0,76.0
332,76.29145899999999,76.39807629166665,63.0,72.0
333,76.29145899999999,76.40542920833332,39.0,81.0
334,76.29145899999999,76.40542920833332,57.0,53.0
335,76.29145899999999,76.40634832291666,54.0,68.0
336,76.51204649999998,76.60303884374999,63.0,65.0
337,76.51204649999998,76.60763441666666,51.0,70.0
338,76.51204649999998,76.62417847916666,39.0,72.0
339,76.51204649999998,76.62969316666666,57.0,48.0
340,76.51204649999998,76.63153139583332,54.0,78.0
341,76.73263399999999,76.81994988541665,63.0,60.0
342,76.73263399999999,76.83281748958332,51.0,72.0
343,76.73263399999999,76.84752332291666,54.0,69.0
344,76.73263399999999,76.85119978124999,57.0,45.0
345,76.73263399999999,76.85303801041665,39.0,78.0
346,76.95322149999998,77.04880941666666,51.0,84.0
347,76.95322149999998,77.05708144791666,63.0,97.0
348,76.95322149999998,77.06167702083332,54.0,81.0
349,76.95322149999998,77.06535347916666,57.0,68.0
350,76.95322149999998,77.06811082291665,39.0,85.0
351,77.17380899999999,78.65430574999999,63.0,69.0
352,77.17380899999999,78.68622065,39.0,78.0
353,77.17380899999999,78.69685894999999,51.0,55.0
354,77.17380899999999,78.71636249999999,54.0,63.0
355,77.17380899999999,78.729660375,57.0,66.0
356,79.94736449999999,80.17504284374999,47.0,33.0
357,79.94736449999999,80.19468568125,59.0,70.0
358,79.94736449999999,80.215221375,54.0,74.0
359,79.94736449999999,80.27504274374999,63.0,99.0
360,80.590221,82.28758522708333,61.0,90.0
361,80.590221,82.31972810833334,64.0,81.0
362,80.590221,82.37568053125,56.0,65.0
363,80.590221,82.42925199999999,49.0,68.0
364,82.42925199999999,82.52275594791666,61.0,69.0
365,82.42925199999999,82.53259846875,64.0,60.0
366,82.42925199999999,82.53948823333333,49.0,62.0
367,82.42925199999999,82.55523626666665,37.0,72.0
368,82.42925199999999,82.56606303958333,56.0,53.0
369,82.66547249999999,82.75897644791665,61.0,69.0
370,82.66547249999999,82.76881896875,64.0,60.0
371,82.66547249999999,82.77570873333332,49.0,62.0
372,82.66547249999999,82.79145676666666,37.0,72.0
373,82.66547249999999,82.80228353958333,56.0,53.0
374,82.901693,82.99354896874999,49.0,56.0
375,82.901693,83.00680653124999,64.0,62.0
376,82.901693,83.011541375,61.0,74.0
377,82.901693,83.0172231875,37.0,62.0
378,82.901693,83.0247989375,56.0,54.0
379,83.12896549999999,83.23407903124999,49.0,53.0
380,83.12896549999999,83.23407903124999,61.0,77.0
381,83.12896549999999,83.23407903124999,64.0,60.0
382,83.12896549999999,83.24260174999999,56.0,59.0
383,83.12896549999999,83.25396537499999,37.0,68.0
384,83.35623799999999,83.44976937499999,64.0,59.0
385,83.35623799999999,83.45064349999998,49.0,56.0
386,83.35623799999999,83.460258875,61.0,63.0
387,83.35623799999999,83.4716225,37.0,72.0
388,83.35623799999999,83.47511899999999,56.0,56.0
389,83.56602799999999,83.66393,64.0,62.0
390,83.56602799999999,83.66480412499999,49.0,53.0
391,83.56602799999999,83.66830062499999,61.0,76.0
392,83.56602799999999,83.68753137499999,56.0,60.0
393,83.56602799999999,83.698020875,37.0,70.0
394,83.77581799999999,83.85349649374999,64.0,57.0
395,83.77581799999999,83.86242505624999,61.0,72.0
396,83.77581799999999,83.86778219374999,49.0,50.0
397,83.77581799999999,83.89278216874999,56.0,57.0
398,83.77581799999999,83.90617501249999,37.0,54.0
399,83.99010349999999,84.05349629374999,64.0,60.0
400,83.99010349999999,84.08117483749999,61.0,82.0
401,83.99010349999999,84.08742483124999,49.0,53.0
402,83.99010349999999,84.10171053124999,56.0,57.0
403,83.99010349999999,84.11331766249998,37.0,72.0
404,84.20438899999999,85.71063749374999,64.0,91.0
405,84.20438899999999,85.76242315624998,61.0,81.0
406,84.20438899999999,85.77135171874998,56.0,74.0
407,84.20438899999999,85.78831598749998,49.0,86.0
408,84.20438899999999,85.81153024999999,37.0,88.0
409,85.91867299999998,86.01510147499998,61.0,72.0
410,85.91867299999998,86.02760146249999,49.0,50.0
411,85.91867299999998,86.03385145624999,56.0,60.0
412,85.91867299999998,86.03385145624999,64.0,69.0
413,85.91867299999998,86.05974428749998,37.0,72.0
414,86.13295849999999,86.22938697499998,61.0,72.0
415,86.13295849999999,86.24188696249999,49.0,50.0
416,86.13295849999999,86.24813695625,56.0,60.0
417,86.13295849999999,86.24813695625,64.0,69.0
418,86.13295849999999,86.27402978749998,37.0,72.0
419,86.34724399999999,86.45974388749998,49.0,51.0
420,86.34724399999999,86.46510102499998,61.0,78.0
421,86.34724399999999,86.48206529374998,56.0,54.0
422,86.34724399999999,86.48474386249998,64.0,60.0
423,86.34724399999999,86.50438669999998,37.0,74.0
424,86.56152949999999,86.65795797499999,49.0,57.0
425,86.56152949999999,86.66956510624999,61.0,81.0
426,86.56152949999999,86.67938652499998,64.0,54.0
427,86.56152949999999,86.68206509374998,56.0,60.0
428,86.56152949999999,86.70438649999998,37.0,70.0
429,86.775815,86.87492204374999,49.0,56.0
430,86.775815,86.88385060625,61.0,78.0
431,86.775815,86.88831488749999,64.0,60.0
432,86.775815,86.90081487499998,56.0,60.0
433,86.775815,86.92581484999998,37.0,65.0
434,86.99010049999998,87.09367182499999,49.0,69.0
435,86.99010049999998,87.11063609374999,61.0,78.0
436,86.99010049999998,87.11688608749999,64.0,60.0
437,86.99010049999998,87.12760036249999,56.0,56.0
438,86.99010049999998,87.15795747499999,37.0,56.0
439,87.20438599999999,87.29992161874999,64.0,56.0
440,87.20438599999999,87.30170733124999,61.0,79.0
441,87.20438599999999,87.32760016249999,49.0,63.0
442,87.20438599999999,87.33563586874999,56.0,54.0
443,87.20438599999999,87.35349299374998,37.0,60.0
444,87.63295699999999,87.72224262499999,64.0,72.0
445,87.63295699999999,87.72670690624999,61.0,82.0
446,87.63295699999999,87.73206404374999,49.0,70.0
447,87.63295699999999,87.74456403125,37.0,86.0
448,87.63295699999999,87.74456403125,56.0,54.0
449,87.8472425,87.90795672499999,59.0,53.0
450,87.8472425,87.92759956249999,47.0,54.0
451,87.8472425,87.92759956249999,64.0,68.0
452,87.8472425,87.93563526874999,35.0,111.0
453,87.8472425,87.9472424,54.0,60.0
454,87.8472425,87.94902811249999,61.0,88.0
455,88.06152799999998,89.42134806874999,49.0,90.0
456,89.34724099999998,89.42134806874999,49.0,72.0
457,88.06152799999998,89.43116948749999,37.0,91.0
458,89.34724099999998,89.43116948749999,37.0,85.0
459,89.56152649999999,89.66420496874998,49.0,50.0
460,89.56152649999999,89.67491924374998,37.0,76.0
461,88.06152799999998,89.77849056874999,61.0,88.0
462,88.06152799999998,89.79277626874999,56.0,72.0
463,88.06152799999998,89.81688338749998,64.0,70.0
464,89.77581199999999,89.83384765624999,49.0,57.0
465,89.77581199999999,89.88027618124998,37.0,65.0
466,89.99009749999999,90.10884738124999,49.0,68.0
467,89.99009749999999,90.12759736249998,37.0,84.0
468,90.20438299999999,90.32134716874998,49.0,68.0
469,90.20438299999999,90.33474001249999,37.0,76.0
470,90.41866849999998,90.54277551874999,37.0,68.0
471,90.41866849999998,90.54366837499998,49.0,65.0
472,90.63295399999998,90.73563246874998,49.0,92.0
473,90.63295399999998,90.75527530624998,37.0,91.0
474,91.252608,91.77332029999998,37.0,106.0
475,91.252608,91.77332029999998,49.0,103.0
476,91.252608,91.77332029999998,52.0,99.0
477,91.252608,91.77332029999998,56.0,96.0
478,91.252608,91.77332029999998,61.0,103.0
479,91.88813499999999,92.53202037499999,44.0,84.0
480,91.88813499999999,92.53202037499999,56.0,86.0
481,91.88813499999999,92.53202037499999,59.0,92.0
482,91.88813499999999,92.53202037499999,63.0,99.0
483,91.88813499999999,92.53202037499999,68.0,101.0
484,92.53561749999999,93.09946684375,56.0,86.0
485,92.53561749999999,93.1417330625,44.0,84.0
486,92.53561749999999,93.20525190833332,59.0,92.0
487,92.53561749999999,93.45920771458333,63.0,99.0
488,92.53561749999999,93.5106317875,68.0,101.0
489,94.322341,94.8415699,68.0,82.0
490,94.322341,94.85038397083333,64.0,80.0
491,94.322341,94.90166583749999,61.0,69.0
492,95.09156899999999,95.51850439583333,61.0,59.0
493,95.09156899999999,95.52730718749999,68.0,60.0
494,95.09156899999999,95.55107472499999,64.0,69.0
495,95.93663699999999,96.38015507499999,64.0,60.0
496,95.93663699999999,96.390846625,68.0,66.0
497,95.93663699999999,96.437721625,63.0,53.0
498,96.381081,97.00653367916667,56.0,19.0
499,96.849831,97.3742867875,66.0,85.0
500,94.322341,97.37609837916666,49.0,66.0
501,96.849831,97.4123302125,63.0,53.0
502,97.284613,97.78461229999999,56.0,63.0
503,97.71939499999999,98.64927362499999,64.0,69.0
504,97.71939499999999,98.71046237499999,68.0,72.0
505,98.58895899999999,99.06098649999998,61.0,60.0
506,97.71939499999999,99.07584662499998,49.0,66.0
507,98.15417699999999,99.43686025,56.0,31.0
508,99.00853899999998,99.47706999999998,63.0,66.0
509,99.428119,100.17780368749999,64.0,74.0
510,99.84769899999999,100.24822602083333,56.0,25.0
511,99.428119,100.28079634999999,68.0,66.0
512,99.428119,100.64523192499999,49.0,66.0
513,100.27023299999999,100.64787276249999,61.0,44.0
514,100.27023299999999,100.67516141666665,66.0,94.0
515,100.27023299999999,100.70333034999999,63.0,60.0
516,100.69276699999999,101.10033625416666,68.0,69.0
517,101.11530099999999,101.33801162916666,63.0,68.0
518,101.53783499999999,101.97165373124999,56.0,51.0
519,100.69276699999999,102.27634147499998,64.0,66.0
520,101.11530099999999,102.32929290624999,68.0,66.0
521,101.96036899999999,102.33536929999998,61.0,54.0
522,101.11530099999999,102.44734855624999,49.0,82.0
523,102.37703599999999,102.73033489374998,56.0,74.0
524,102.79370299999998,103.27411323958331,66.0,53.0
525,102.79370299999998,103.29556845416664,63.0,65.0
526,102.79370299999998,103.32168784583331,59.0,60.0
527,103.24146399999998,103.83118914374998,54.0,56.0
528,103.68922499999998,104.14368883124997,63.0,74.0
529,103.68922499999998,104.15261739374998,66.0,87.0
530,103.68922499999998,104.15886738749998,59.0,62.0
531,102.79370299999998,104.18208164999997,47.0,71.0
532,104.11779599999998,104.21868875624997,54.0,74.0
533,104.54636699999998,105.05096090624997,64.0,84.0
534,104.54636699999998,105.10426955208331,61.0,80.0
535,104.54636699999998,105.23018824999997,58.0,69.0
536,104.54636699999998,105.86710941874998,46.0,50.0
537,105.42871699999998,105.87335941249998,64.0,74.0
538,105.42871699999998,105.94210934374998,61.0,66.0
539,105.42871699999998,105.98675215624998,69.0,36.0
540,105.85728799999998,106.02246640624998,57.0,59.0
541,106.28585899999997,106.85371557499998,59.0,69.0
542,106.28585899999997,106.85460843124997,63.0,66.0
543,107.14300099999998,107.6283055375,63.0,88.0
544,106.71442999999998,107.66087586666666,56.0,51.0
545,107.14300099999998,107.66087586666666,58.0,71.0
546,106.28585899999997,107.78147411249999,44.0,82.0
547,107.60453799999999,107.97513552916666,59.0,78.0
548,107.60453799999999,108.05484979999999,66.0,98.0
549,108.02707199999999,108.05484979999999,66.0,94.0
550,108.02707199999999,108.52620434375,61.0,66.0
551,108.02707199999999,108.57047521249999,63.0,78.0
552,108.02707199999999,108.63210720624998,71.0,76.0
553,108.443739,108.88210740624999,54.0,56.0
554,108.86040599999998,109.17377430625,71.0,65.0
555,108.86040599999998,109.24929519999999,59.0,37.0
556,108.86040599999998,109.27707299999999,63.0,76.0
557,108.86040599999998,109.27707299999999,66.0,92.0
558,108.02707199999999,109.35867028749999,47.0,92.0
559,109.27707299999999,109.69287194374999,54.0,90.0
560,109.69373999999999,110.22293562499999,68.0,88.0
561,109.69373999999999,110.230234875,64.0,85.0
562,110.56965,110.86946842083333,63.0,72.0
563,110.131695,110.8875843375,61.0,72.0
564,110.787041,111.07146089166666,64.0,76.0
565,111.004432,111.20370708333333,66.0,78.0
566,109.69373999999999,111.2299751625,49.0,90.0
567,110.131695,111.27254756666666,56.0,65.0
568,111.221823,111.45669649999999,68.0,74.0
569,111.43921399999999,111.45669649999999,68.0,87.0
570,111.43921399999999,111.94533237499999,63.0,90.0
571,111.43921399999999,111.99340925,59.0,69.0
572,111.43921399999999,112.69882812499999,44.0,82.0
573,111.85879399999999,112.70232462499999,51.0,75.0
574,112.278374,112.77662525,63.0,90.0
575,112.278374,112.82557625,59.0,75.0
576,112.278374,112.933093625,68.0,94.0
577,112.278374,113.13049695,56.0,48.0
578,113.11753399999999,113.46012624999999,61.0,76.0
579,113.11753399999999,113.4656818,64.0,90.0
580,113.7842,114.11743587499998,68.0,44.0
581,114.00642199999999,114.32635174999999,76.0,92.0
582,114.21621199999998,114.38928874999999,75.0,97.0
583,114.00642199999999,114.51188629791665,61.0,62.0
584,113.11753399999999,114.54504954166664,49.0,88.0
585,114.42600199999998,114.59011753958332,73.0,71.0
586,113.561978,114.73892696666665,56.0,63.0
587,114.63008349999998,114.83416499999998,71.0,78.0
588,114.83416499999998,115.53148573124999,61.0,69.0
589,114.83416499999998,115.55469999374998,66.0,111.0
590,114.83416499999998,115.57791425624998,69.0,99.0
591,114.83416499999998,115.95112816874999,54.0,76.0
592,115.69130699999998,116.16541366874999,66.0,113.0
593,115.69130699999998,116.17077080624999,61.0,74.0
594,115.69130699999998,116.18505650624998,69.0,109.0
595,114.83416499999998,116.24577073124999,42.0,97.0
596,116.11987799999999,116.25737786249998,54.0,72.0
597,116.54844899999999,117.32255536874999,61.0,72.0
598,116.54844899999999,117.34666248749998,65.0,99.0
599,116.54844899999999,117.37255531874999,69.0,83.0
600,116.54844899999999,117.67255501874999,42.0,77.0
601,116.54844899999999,117.68684071874999,54.0,85.0
602,117.40559099999999,117.83416199999999,65.0,96.0
603,117.40559099999999,117.85346340624999,61.0,82.0
604,117.40559099999999,117.87460304166666,69.0,54.0
605,117.83416199999999,117.88563241666665,54.0,60.0
606,117.83416199999999,117.96008069791665,42.0,103.0
607,118.275337,118.51246856249999,68.0,88.0
608,118.275337,118.51706413541666,64.0,88.0
609,118.275337,118.52257882291666,61.0,81.0
610,118.275337,118.53820377083332,49.0,63.0
611,118.275337,118.53912288541666,37.0,91.0
612,118.716512,119.32001351875,49.0,86.0
613,119.36602049999999,119.52140256874999,49.0,72.0
614,118.716512,119.612548475,37.0,96.0
615,118.716512,119.61688875624999,64.0,72.0
616,118.716512,119.61688875624999,68.0,91.0
617,118.716512,119.6212290375,61.0,74.0
618,119.99102099999999,120.4839289,68.0,76.0
619,119.99102099999999,120.56371614999999,64.0,79.0
620,119.99102099999999,120.74279419999999,61.0,72.0
621,119.99102099999999,121.34651772499998,58.0,56.0
622,119.99102099999999,121.39882269999998,46.0,74.0
623,121.69314899999999,123.06371664999999,64.0,74.0
624,121.69314899999999,123.06460317499999,57.0,47.0
625,121.69314899999999,123.06460317499999,61.0,72.0
626,121.69314899999999,123.10095069999998,69.0,60.0
627,121.69314899999999,123.12311382499999,45.0,68.0
628,123.395277,126.07367968749999,68.0,78.0
629,123.395277,126.08371615624999,63.0,88.0
630,123.395277,126.08919059374999,60.0,45.0
631,123.395277,126.14575978124999,56.0,45.0
632,123.395277,126.17221956249999,44.0,65.0
633,126.84922499999999,127.60560978125,61.0,85.0
634,126.84922499999999,127.6174710625,64.0,72.0
635,127.94411249999999,128.30177575,59.0,66.0
636,127.725135,128.43589946875,64.0,72.0
637,126.84922499999999,128.45506,56.0,50.0
638,128.812312,128.89593852083334,61.0,57.0
639,126.84922499999999,128.933790525,49.0,60.0
640,128.812312,128.933790525,49.0,47.0
641,128.812312,128.9522763875,56.0,39.0
642,128.812312,128.954917225,37.0,25.0
643,129.023579,129.11864915,49.0,47.0
644,129.023579,129.13361389583332,61.0,56.0
645,129.023579,129.13361389583332,64.0,30.0
646,129.023579,129.1476983625,56.0,38.0
647,129.023579,129.16442366666666,37.0,68.0
648,129.234846,129.32815559166667,49.0,48.0
649,129.234846,129.35720480416666,61.0,79.0
650,129.234846,129.36072592083335,56.0,54.0
651,129.234846,129.36776815416667,37.0,68.0
652,129.234846,129.3748103875,64.0,53.0
653,129.446113,129.53942259166666,49.0,54.0
654,129.446113,129.546464825,61.0,78.0
655,129.446113,129.55262677916667,64.0,54.0
656,129.446113,129.5649506875,56.0,60.0
657,129.446113,129.57199292083334,37.0,76.0
658,129.65738,129.74628819583333,49.0,68.0
659,129.65738,129.75421070833335,64.0,60.0
660,129.65738,129.76389377916666,61.0,74.0
661,129.65738,129.77973880416667,37.0,72.0
662,129.65738,129.7814993625,56.0,63.0
663,129.868647,129.94875240416667,49.0,76.0
664,129.868647,129.96371715,64.0,66.0
665,129.868647,129.98132273333334,61.0,74.0
666,129.868647,130.0033297125,37.0,76.0
667,129.868647,130.0033297125,56.0,68.0
668,130.079914,130.159139125,64.0,68.0
669,130.079914,130.16001940416666,49.0,60.0
670,130.079914,130.17498415,61.0,79.0
671,130.079914,130.1776249875,56.0,59.0
672,130.079914,130.180265825,37.0,65.0
673,130.291181,130.783202375,52.0,72.0
674,130.291181,130.953415175,64.0,86.0
675,130.291181,130.967599575,68.0,82.0
676,130.291181,130.980010925,59.0,68.0
677,130.291181,130.9862166,71.0,63.0
678,130.929479,131.157315925,52.0,47.0
679,131.142245,131.339940075,71.0,63.0
680,130.291181,131.40642945,40.0,86.0
681,131.142245,131.44189045,59.0,86.0
682,131.142245,131.4507557,68.0,92.0
683,131.142245,131.458734425,64.0,90.0
684,131.355011,131.519018125,52.0,63.0
685,131.567777,131.6706139,66.0,82.0
686,131.567777,131.84969195,59.0,60.0
687,131.99330899999998,132.28678684999997,59.0,69.0
688,131.99330899999998,132.30671435833332,63.0,82.0
689,131.99330899999998,132.3556273333333,66.0,86.0
690,131.780543,132.41722144999997,71.0,78.0
691,132.86287299999998,133.13551754583332,66.0,97.0
692,132.645482,133.15453925833333,59.0,65.0
693,132.428091,133.22337974166666,54.0,76.0
694,131.99330899999998,133.25870577916666,47.0,82.0
695,133.08026399999997,133.26142316666665,71.0,69.0
696,133.297655,133.58479227916666,73.0,69.0
697,133.51504599999998,133.61377774583332,75.0,65.0
698,133.73243699999998,134.16368656874997,56.0,50.0
699,133.73243699999998,134.41547203124998,63.0,96.0
700,133.73243699999998,134.42082916874998,68.0,72.0
701,133.73243699999998,134.50743622499996,60.0,47.0
702,134.37529349999997,134.64940036874998,56.0,45.0
703,134.589579,135.09047135624996,51.0,88.0
704,133.73243699999998,135.11993561249997,44.0,65.0
705,134.80386449999997,135.14850701249998,56.0,82.0
706,135.01814999999996,135.17172127499998,60.0,48.0
707,135.23243549999998,135.42439959374997,63.0,91.0
708,135.44672099999997,136.05297039374997,64.0,90.0
709,135.44672099999997,136.14939886874998,68.0,74.0
710,136.30386299999998,136.59314842499998,63.0,72.0
711,136.0895775,136.67886262499997,61.0,57.0
712,135.87529199999997,136.72886257499997,56.0,56.0
713,135.44672099999997,136.74850541249998,49.0,77.0
714,136.51814849999997,136.80475535624998,64.0,76.0
715,136.73243399999998,137.04939796875,66.0,79.0
716,136.94671949999997,137.13600502499997,68.0,79.0
717,137.161005,137.45654041874997,61.0,72.0
718,137.161005,137.60743312499997,64.0,77.0
719,137.161005,137.62350453749997,68.0,72.0
720,137.80386149999998,138.11903975624998,63.0,68.0
721,137.58957599999997,138.15921828749998,61.0,78.0
722,138.01814699999997,138.31278956249997,64.0,72.0
723,137.37529049999998,138.41100374999996,56.0,60.0
724,137.161005,138.48689653124998,49.0,82.0
725,138.2324325,138.59493213749997,66.0,94.0
726,138.44671799999998,138.68243205,68.0,77.0
727,138.66100349999996,138.99225316874998,71.0,90.0
728,138.87528899999998,139.37082421875,66.0,76.0
729,138.87528899999998,139.37975278124998,61.0,68.0
730,138.87528899999998,139.3877884875,70.0,85.0
731,139.30386,139.8038595,54.0,47.0
732,139.73243099999996,140.27528759999998,66.0,88.0
733,139.73243099999996,140.27885902499997,61.0,76.0
734,139.73243099999996,140.28421616249997,70.0,94.0
735,140.16100199999997,140.34493038749997,54.0,68.0
736,138.87528899999998,140.34671609999998,42.0,85.0
737,140.58957299999997,141.14671529999998,54.0,69.0
738,140.58957299999997,141.16367956874998,63.0,84.0
739,140.58957299999997,141.1699295625,59.0,68.0
740,140.58957299999997,141.57082201874996,47.0,53.0
741,141.66100049999997,141.78867894374997,47.0,65.0
742,141.44671499999998,141.82260748124997,59.0,72.0
743,140.58957299999997,141.82617890624996,35.0,81.0
744,141.44671499999998,141.83153604374996,54.0,74.0
745,141.44671499999998,141.86367886875,63.0,88.0
746,142.30385699999997,142.68957089999998,64.0,90.0
747,142.30385699999997,142.72707086249997,59.0,88.0
748,142.30385699999997,142.73957084999998,56.0,72.0
749,142.30385699999997,142.74224941874996,52.0,69.0
750,142.30385699999997,142.78242794999997,40.0,82.0
751,143.16099899999998,143.935998225,51.0,57.0
752,143.16099899999998,144.16099799999998,61.0,81.0
753,143.16099899999998,144.18331940624998,54.0,77.0
754,143.16099899999998,144.19314082499997,39.0,77.0
755,143.16099899999998,144.20117653124998,57.0,54.0
756,144.446712,144.53956904999998,51.0,77.0
757,144.446712,144.54939046874998,39.0,81.0
758,144.446712,144.55117618124999,63.0,84.0
759,144.446712,144.55474760624998,54.0,77.0
760,144.446712,144.56189045624998,57.0,54.0
761,144.66099749999998,144.757425975,51.0,65.0
762,144.66099749999998,144.76189025624998,63.0,76.0
763,144.66099749999998,144.76367596874996,39.0,82.0
764,144.66099749999998,144.76367596874996,57.0,48.0
765,144.66099749999998,144.76724739374998,54.0,65.0
766,144.87528299999997,144.96903290624996,51.0,76.0
767,144.87528299999997,144.978854325,63.0,72.0
768,144.87528299999997,144.98599717499997,39.0,81.0
769,144.87528299999997,144.98599717499997,57.0,53.0
770,144.87528299999997,144.98689003124997,54.0,68.0
771,145.08956849999998,145.17796126874998,63.0,65.0
772,145.08956849999998,145.18242554999998,51.0,70.0
773,145.08956849999998,145.19849696249997,39.0,72.0
774,145.08956849999998,145.20385409999997,57.0,48.0
775,145.08956849999998,145.20563981249998,54.0,78.0
776,145.30385399999997,145.38867534374998,63.0,60.0
777,145.30385399999997,145.40117533125,51.0,72.0
778,145.30385399999997,145.41546103124998,54.0,69.0
779,145.30385399999997,145.41903245624997,57.0,45.0
780,145.30385399999997,145.42081816874997,39.0,78.0
781,145.5181395,145.61099654999998,51.0,84.0
782,145.5181395,145.61903225624997,63.0,97.0
783,145.5181395,145.6234965375,54.0,81.0
784,145.5181395,145.62706796249998,57.0,68.0
785,145.5181395,145.62974653124996,39.0,85.0
786,145.73242499999998,146.31367441874997,63.0,92.0
787,145.73242499999998,146.33956725,68.0,86.0
788,145.73242499999998,146.36546008124998,59.0,79.0
789,145.73242499999998,146.92617380624998,56.0,54.0
790,145.73242499999998,147.02885227499996,44.0,79.0
791,147.44670899999997,148.38825646874997,56.0,56.0
792,147.44670899999997,148.42332843749998,63.0,84.0
793,147.44670899999997,148.46289681249996,59.0,65.0
794,147.44670899999997,148.46469537499996,68.0,84.0
795,147.44670899999997,148.51865224999997,44.0,70.0
796,149.17332899999997,150.90606787499996,37.0,69.0
797,149.17332899999997,150.91218674999996,49.0,50.0
798,149.17332899999997,150.98124262499996,64.0,74.0
799,149.17332899999997,150.99522862499995,68.0,74.0
800,149.17332899999997,151.00047337499996,61.0,72.0
801,151.10973899999996,151.19278087499995,61.0,57.0
802,151.10973899999996,151.23036824999997,49.0,47.0
803,151.10973899999996,151.24872487499997,56.0,39.0
804,151.10973899999996,151.25134724999995,37.0,25.0
805,151.31952899999996,151.41393449999995,49.0,47.0
806,151.31952899999996,151.42879462499997,61.0,56.0
807,151.31952899999996,151.42879462499997,64.0,30.0
808,151.31952899999996,151.44278062499995,56.0,38.0
809,151.31952899999996,151.45938899999996,37.0,68.0
810,151.52931899999996,151.62197624999996,49.0,48.0
811,151.52931899999996,151.65082237499996,61.0,79.0
812,151.52931899999996,151.65431887499997,56.0,54.0
813,151.52931899999996,151.66131187499997,37.0,68.0
814,151.52931899999996,151.66830487499996,64.0,53.0
815,151.73910899999996,151.83176624999996,49.0,54.0
816,151.73910899999996,151.83875924999995,61.0,78.0
817,151.73910899999996,151.84487812499995,64.0,54.0
818,151.73910899999996,151.85711587499998,56.0,60.0
819,151.73910899999996,151.86410887499997,37.0,76.0
820,151.73910899999996,151.88596199999998,76.0,18.0
821,151.94889899999995,152.03718562499998,49.0,68.0
822,151.94889899999995,152.04505274999997,64.0,60.0
823,151.94889899999995,152.05466812499998,61.0,74.0
824,151.94889899999995,152.07040237499996,37.0,72.0
825,151.94889899999995,152.07215062499998,56.0,63.0
826,152.15868899999995,152.25047212499996,49.0,76.0
827,152.15868899999995,152.25309449999997,64.0,66.0
828,152.15868899999995,152.27057699999997,61.0,74.0
829,152.15868899999995,152.29243012499995,37.0,76.0
830,152.15868899999995,152.29243012499995,56.0,68.0
831,152.36847899999995,152.44715024999996,64.0,68.0
832,152.36847899999995,152.44802437499996,49.0,60.0
833,152.36847899999995,152.46288449999997,61.0,79.0
834,152.36847899999995,152.46550687499996,56.0,59.0
835,152.36847899999995,152.46812924999998,37.0,65.0
836,152.57826899999998,153.07380421874998,52.0,72.0
837,152.57826899999998,153.24523261874998,64.0,86.0
838,152.57826899999998,153.25951831874997,68.0,82.0
839,152.57826899999998,153.27201830624998,59.0,68.0
840,152.57826899999998,153.27826829999998,71.0,63.0
841,153.22112549999997,153.45058955624998,52.0,47.0
842,153.435411,153.63451794374998,71.0,63.0
843,152.57826899999998,153.70148216249999,40.0,86.0
844,153.435411,153.73719641249997,59.0,86.0
845,153.435411,153.746124975,68.0,92.0
846,153.435411,153.75416068124997,64.0,90.0
847,153.64969649999998,153.81487490624997,52.0,63.0
848,153.86398199999996,153.96755332499998,66.0,82.0
849,153.86398199999996,154.14791028749997,59.0,60.0
850,154.29255299999997,154.58183842499997,59.0,69.0
851,154.29255299999997,154.6014812625,63.0,82.0
852,154.29255299999997,154.64969549999998,66.0,86.0
853,154.07826749999998,154.71040972499998,71.0,78.0
854,155.14969499999998,155.41844473125,66.0,97.0
855,154.9354095,155.43719471249997,59.0,65.0
856,154.72112399999997,155.50505178749998,54.0,76.0
857,154.29255299999997,155.53987318125,47.0,82.0
858,155.36398049999997,155.54255174999997,71.0,69.0
859,155.57826599999999,155.86130143124998,73.0,69.0
860,155.79255149999997,155.88987283125,75.0,65.0
861,156.006837,156.43808656874998,56.0,50.0
862,156.006837,156.68987203125,63.0,96.0
863,156.006837,156.69522916875,68.0,72.0
864,156.006837,156.78183622499998,60.0,47.0
865,156.64969349999998,156.92380036874997,56.0,45.0
866,156.86397899999997,157.36487135624998,51.0,88.0
867,156.006837,157.3943356125,44.0,65.0
868,157.0782645,157.4229070125,56.0,82.0
869,157.29254999999998,157.44612127499997,60.0,48.0
870,157.50683549999997,157.69879959374998,63.0,91.0
871,157.72112099999998,158.32737039375,64.0,90.0
872,157.72112099999998,158.42379886874997,68.0,74.0
873,158.578263,158.86754842499997,63.0,72.0
874,158.36397749999998,158.95326262499998,61.0,57.0
875,158.149692,159.00326257499998,56.0,56.0
876,157.72112099999998,159.02290541249997,49.0,77.0
877,158.79254849999998,159.07915535624997,64.0,76.0
878,159.00683399999997,159.32379796874997,66.0,79.0
879,159.2211195,159.410405025,68.0,79.0
880,159.43540499999997,159.73094041874998,61.0,72.0
881,159.43540499999997,159.88183312499999,64.0,77.0
882,159.43540499999997,159.89790453749998,68.0,72.0
883,160.07826149999997,160.39343975625,63.0,68.0
884,159.86397599999998,160.43361828749997,61.0,78.0
885,160.29254699999998,160.5871895625,64.0,72.0
886,159.6496905,160.68540374999998,56.0,60.0
887,159.43540499999997,160.76129653124997,49.0,82.0
888,160.50683249999997,160.86933213749998,66.0,94.0
889,160.721118,160.95683204999997,68.0,77.0
890,160.93540349999998,161.26665316874997,71.0,90.0
891,161.14968899999997,161.64522421874997,66.0,76.0
892,161.14968899999997,161.65415278125,61.0,68.0
893,161.14968899999997,161.66218848749998,70.0,85.0
894,161.57825999999997,162.07825949999997,54.0,47.0
895,162.00683099999998,162.54968759999997,66.0,88.0
896,162.00683099999998,162.553259025,61.0,76.0
897,162.00683099999998,162.5586161625,70.0,94.0
898,162.43540199999998,162.61933038749999,54.0,68.0
899,161.14968899999997,162.62111609999997,42.0,85.0
900,162.863973,163.42111529999997,54.0,69.0
901,162.863973,163.43807956874997,63.0,84.0
902,162.863973,163.44432956249997,59.0,68.0
903,162.863973,163.84522201874998,47.0,53.0
904,163.9354005,164.06307894374999,47.0,65.0
905,163.72111499999997,164.09700748125,59.0,72.0
906,162.863973,164.10057890624998,35.0,81.0
907,163.72111499999997,164.10593604374998,54.0,74.0
908,163.72111499999997,164.13807886874997,63.0,88.0
909,164.57825699999998,164.9639709,64.0,90.0
910,164.57825699999998,165.00147086249999,59.0,88.0
911,164.57825699999998,165.01397084999996,56.0,72.0
912,164.57825699999998,165.01664941874998,52.0,69.0
913,164.57825699999998,165.05682794999998,40.0,82.0
914,165.435399,166.21039822499998,51.0,57.0
915,165.435399,166.435398,61.0,81.0
916,165.435399,166.45771940624996,54.0,77.0
917,165.435399,166.467540825,39.0,77.0
918,165.435399,166.47557653124997,57.0,54.0
919,166.72111199999998,166.81396904999997,51.0,77.0
920,166.72111199999998,166.82379046875,39.0,81.0
921,166.72111199999998,166.82557618124997,63.0,84.0
922,166.72111199999998,166.82914760625,54.0,77.0
923,166.72111199999998,166.83629045624997,57.0,54.0
924,166.93539749999997,167.03182597499998,51.0,65.0
925,166.93539749999997,167.03629025624997,63.0,76.0
926,166.93539749999997,167.03807596874998,39.0,82.0
927,166.93539749999997,167.03807596874998,57.0,48.0
928,166.93539749999997,167.04164739374997,54.0,65.0
929,167.14968299999998,167.24343290624998,51.0,76.0
930,167.14968299999998,167.25325432499997,63.0,72.0
931,167.14968299999998,167.26039717499998,39.0,81.0
932,167.14968299999998,167.26039717499998,57.0,53.0
933,167.14968299999998,167.26129003124998,54.0,68.0
934,167.36396849999997,167.45236126874997,63.0,65.0
935,167.36396849999997,167.45682555,51.0,70.0
936,167.36396849999997,167.4728969625,39.0,72.0
937,167.36396849999997,167.4782541,57.0,48.0
938,167.36396849999997,167.48003981249997,54.0,78.0
939,167.578254,167.66307534374997,63.0,60.0
940,167.578254,167.67557533124997,51.0,72.0
941,167.578254,167.68986103125,54.0,69.0
942,167.578254,167.69343245624998,57.0,45.0
943,167.578254,167.69521816875,39.0,78.0
944,167.79253949999998,167.88539654999997,51.0,84.0
945,167.79253949999998,167.89343225624998,63.0,97.0
946,167.79253949999998,167.89789653749997,54.0,81.0
947,167.79253949999998,167.90146796249996,57.0,68.0
948,167.79253949999998,167.90414653124998,39.0,85.0
949,168.006825,168.61866599375,63.0,92.0
950,168.006825,168.64592158333332,68.0,86.0
951,168.006825,168.67317717291667,59.0,79.0
952,168.006825,169.25558519791664,56.0,54.0
953,168.006825,169.361283375,44.0,79.0
954,169.791429,170.75466108333333,56.0,56.0
955,169.791429,170.7895874375,63.0,84.0
956,169.791429,170.83002847916666,59.0,65.0
957,169.791429,170.83278582291666,68.0,84.0
958,169.791429,170.88701358333333,44.0,70.0
959,171.556129,173.3272628020833,37.0,69.0
960,171.556129,173.33369660416665,49.0,50.0
961,171.556129,173.40630665625,64.0,74.0
962,171.556129,173.42101248958332,68.0,74.0
963,171.556129,173.42652717708333,61.0,72.0
964,174.20317899999998,174.35759025,76.0,18.0
