,start,end,pitch,velocity
0,18.2742543875,18.5520313875,63.0,114.0
1,18.5520313875,18.863373108333334,61.0,90.0
2,18.8298083875,19.107585387500002,63.0,102.0
3,19.107585387500002,19.438602979166667,61.0,87.0
4,19.3853623875,19.6631393875,63.0,93.0
5,19.6631393875,19.939758983333334,66.0,102.0
6,19.9409163875,22.4409093875,66.0,107.0
7,22.4409093875,22.7186863875,56.0,104.0
8,22.7186863875,23.5520173875,59.0,114.0
9,23.5520173875,24.107571387500002,61.0,113.0
10,24.107571387500002,26.884183983333333,59.0,114.0
11,26.885341387500002,27.161960983333334,59.0,92.0
12,27.1631183875,27.4408953875,59.0,102.0
13,27.4408953875,27.7186723875,61.0,102.0
14,27.7186723875,27.9964493875,63.0,104.0
15,27.9964493875,29.1075573875,59.0,100.0
16,29.1075573875,29.39690842916667,56.0,91.0
17,29.385334387500002,29.687416875,59.0,96.0
18,29.6631113875,29.950147620833334,61.0,96.0
19,29.9408883875,30.234869045833335,63.0,91.0
20,30.2186653875,31.0519963875,59.0,94.0
21,31.0519963875,31.6075503875,56.0,92.0
22,31.6075503875,32.4408813875,61.0,91.0
23,32.4408813875,35.774205387500004,63.0,108.0
24,35.774205387500004,36.051982387500004,54.0,114.0
25,36.051982387500004,36.3297593875,63.0,114.0
26,36.3297593875,36.67582323333333,61.0,90.0
27,36.6075363875,36.89688742916667,63.0,107.0
28,36.8853133875,37.1630903875,61.0,91.0
29,37.1630903875,37.4408673875,63.0,94.0
30,37.4408673875,37.71748698333334,66.0,110.0
31,37.7186443875,40.2186373875,66.0,114.0
32,40.2186373875,40.4964143875,54.0,91.0
33,40.4964143875,41.329745387500004,59.0,108.0
34,41.329745387500004,41.8852993875,61.0,113.0
35,41.8852993875,44.66191198333333,59.0,102.0
36,44.6630693875,44.93968898333333,59.0,87.0
37,44.9408463875,45.2186233875,59.0,102.0
38,45.2186233875,45.517233662500004,61.0,87.0
39,45.4964003875,45.777649600000004,63.0,90.0
40,45.7741773875,46.8852853875,59.0,88.0
41,46.8852853875,47.1630623875,54.0,93.0
42,47.1630623875,47.44662640833334,59.0,107.0
43,47.4408393875,47.7186163875,61.0,94.0
44,47.7186163875,48.02880070416667,63.0,93.0
45,47.9963933875,48.5519473875,59.0,98.0
46,48.5519473875,49.1075013875,54.0,104.0
47,49.1075013875,49.6630553875,66.0,96.0
48,49.6630553875,51.051940387500004,63.0,96.0
49,51.051940387500004,51.607494387500005,64.0,107.0
50,51.607494387500005,52.43966798333334,66.0,113.0
51,52.4408253875,52.7186023875,66.0,110.0
52,52.7186023875,53.1352678875,75.0,114.0
53,53.1352678875,53.5519333875,73.0,110.0
54,53.5519333875,54.10632998333333,71.0,113.0
55,54.1074873875,54.66188398333333,71.0,117.0
56,54.6630413875,55.21743798333333,71.0,110.0
57,55.2185953875,55.4963723875,71.0,102.0
58,55.4963723875,55.7741493875,68.0,94.0
59,55.7741493875,56.051926387500004,66.0,90.0
60,56.051926387500004,56.468591887500004,78.0,113.0
61,56.468591887500004,56.884099983333336,80.0,119.0
62,56.885257387500005,57.7185883875,80.0,120.0
63,57.7185883875,57.9963653875,71.0,117.0
64,57.9963653875,58.2741423875,73.0,110.0
65,58.2741423875,58.5519193875,75.0,117.0
66,58.5519193875,59.10631598333333,78.0,119.0
67,59.1074733875,59.6630273875,78.0,119.0
68,59.6630273875,60.2185813875,71.0,119.0
69,60.2185813875,63.2741283875,73.0,119.0
70,63.2741283875,63.55074798333334,71.0,117.0
71,63.5519053875,63.82852498333334,71.0,110.0
72,63.8296823875,64.10630198333334,71.0,114.0
73,64.1074593875,64.3852363875,71.0,116.0
74,64.3852363875,64.6630133875,68.0,113.0
75,64.6630133875,64.9407903875,66.0,110.0
76,64.9407903875,65.3574558875,78.0,120.0
77,65.3574558875,65.77296398333334,80.0,120.0
78,65.7741213875,66.3296753875,80.0,120.0
79,66.3296753875,66.60629498333334,71.0,110.0
80,66.6074523875,66.8852293875,71.0,113.0
81,66.8852293875,67.1630063875,73.0,107.0
82,67.1630063875,67.4407833875,75.0,117.0
83,67.4407833875,67.9963373875,78.0,116.0
84,67.9963373875,68.2741143875,71.0,96.0
85,68.2741143875,68.5518913875,78.0,114.0
86,68.5518913875,68.8296683875,75.0,108.0
87,68.8296683875,69.10628798333333,73.0,107.0
88,69.10744538750001,70.4963303875,73.0,117.0
89,70.4963303875,70.7741073875,75.0,117.0
90,70.7741073875,71.3296613875,73.0,116.0
91,71.3296613875,72.16183498333334,71.0,117.0
92,72.1629923875,72.71738898333334,71.0,114.0
93,72.7185463875,72.99516598333334,71.0,116.0
94,72.9963233875,73.2741003875,71.0,110.0
95,73.2741003875,73.5518773875,68.0,104.0
96,73.5518773875,73.8296543875,66.0,113.0
97,73.8296543875,74.1074313875,78.0,119.0
98,74.1074313875,75.2185393875,80.0,119.0
99,75.2185393875,75.49515898333334,71.0,113.0
100,75.4963163875,75.7740933875,71.0,114.0
101,75.7740933875,76.0518703875,73.0,110.0
102,76.0518703875,76.3296473875,75.0,117.0
103,76.3296473875,76.88404398333334,78.0,119.0
104,76.8852013875,77.16182098333333,78.0,119.0
105,77.1629783875,77.7185323875,78.0,119.0
106,77.7185323875,77.9963093875,71.0,114.0
107,77.9963093875,79.66181398333333,73.0,117.0
108,79.66297138750001,79.94074838750001,73.0,116.0
109,79.94074838750001,80.21852538750001,75.0,108.0
110,80.21852538750001,81.05069898333333,71.0,108.0
111,81.0518563875,81.32847598333333,71.0,119.0
112,81.3296333875,81.60625298333333,71.0,113.0
113,81.6074103875,82.4407413875,71.0,117.0
114,82.4407413875,82.7185183875,68.0,107.0
115,82.7185183875,82.9962953875,78.0,117.0
116,82.9962953875,83.55069198333334,80.0,116.0
117,83.5518493875,84.3851803875,80.0,119.0
118,84.3851803875,84.6629573875,71.0,113.0
119,84.6629573875,85.2185113875,75.0,114.0
120,85.2185113875,85.77290798333334,78.0,117.0
121,85.7740653875,86.3296193875,78.0,119.0
122,86.3296193875,86.8851733875,75.0,117.0
123,86.8851733875,89.3851663875,73.0,119.0
124,98.2740303875,98.5518073875,63.0,114.0
125,98.5518073875,98.86314910833333,61.0,90.0
126,98.8295843875,99.1073613875,63.0,102.0
127,99.1073613875,99.43837897916667,61.0,87.0
128,99.3851383875,99.66291538750001,63.0,93.0
129,99.66291538750001,99.93953498333333,66.0,102.0
130,99.94069238750001,102.4406853875,66.0,107.0
131,102.4406853875,102.7184623875,56.0,104.0
132,102.7184623875,103.5517933875,59.0,114.0
133,103.5517933875,104.1073473875,61.0,113.0
134,104.1073473875,106.88395998333334,59.0,114.0
135,106.8851173875,107.16173698333334,59.0,92.0
136,107.1628943875,107.4406713875,59.0,102.0
137,107.4406713875,107.7184483875,61.0,102.0
138,107.7184483875,107.9962253875,63.0,104.0
139,107.9962253875,109.1073333875,59.0,100.0
140,109.1073333875,109.39668442916667,56.0,91.0
141,109.3851103875,109.68719287500001,59.0,96.0
142,109.6628873875,109.94992362083333,61.0,96.0
143,109.94066438750001,110.23464504583333,63.0,91.0
144,110.21844138750001,111.05177238750001,59.0,94.0
145,111.05177238750001,111.60732638750001,56.0,92.0
146,111.60732638750001,112.4406573875,61.0,91.0
147,112.4406573875,115.7739813875,63.0,108.0
148,115.7739813875,116.0517583875,54.0,114.0
149,116.0517583875,116.3295353875,63.0,114.0
150,116.3295353875,116.67559923333333,61.0,90.0
151,116.6073123875,116.89666342916667,63.0,107.0
152,116.8850893875,117.1628663875,61.0,91.0
153,117.1628663875,117.4406433875,63.0,94.0
154,117.4406433875,117.71726298333334,66.0,110.0
155,117.7184203875,120.21841338750001,66.0,114.0
156,120.21841338750001,120.49619038750001,54.0,91.0
157,120.49619038750001,121.32952138750001,59.0,108.0
158,121.32952138750001,121.88507538750001,61.0,113.0
159,121.88507538750001,124.66168798333334,59.0,102.0
160,124.6628453875,124.93946498333334,59.0,87.0
161,124.9406223875,125.2183993875,59.0,102.0
162,125.2183993875,125.5170096625,61.0,87.0
163,125.4961763875,125.7774256,63.0,90.0
164,125.7739533875,126.8850613875,59.0,88.0
165,126.8850613875,127.1628383875,54.0,93.0
166,127.1628383875,127.44640240833334,59.0,107.0
167,127.4406153875,127.7183923875,61.0,94.0
168,127.7183923875,128.02857670416668,63.0,93.0
169,127.9961693875,128.5517233875,59.0,98.0
170,128.5517233875,129.1072773875,66.0,104.0
171,129.1072773875,132.4406013875,63.0,96.0
172,132.4406013875,132.7183783875,66.0,110.0
173,132.7183783875,133.1350438875,75.0,114.0
174,133.1350438875,133.5517093875,73.0,110.0
175,133.5517093875,134.10610598333335,71.0,113.0
176,134.1072633875,134.66165998333332,71.0,117.0
177,134.6628173875,135.21721398333332,71.0,110.0
178,135.2183713875,135.4961483875,71.0,102.0
179,135.4961483875,135.77392538750001,68.0,94.0
180,135.77392538750001,136.0517023875,66.0,90.0
181,136.0517023875,136.4683678875,78.0,113.0
182,136.4683678875,136.88387598333333,80.0,119.0
183,136.88503338750002,137.7183643875,80.0,120.0
184,137.7183643875,137.9961413875,71.0,117.0
185,137.9961413875,138.2739183875,73.0,110.0
186,138.2739183875,138.5516953875,75.0,117.0
187,138.5516953875,139.10609198333333,78.0,119.0
188,139.1072493875,139.38386898333334,78.0,119.0
189,139.3850263875,139.6628033875,78.0,119.0
190,139.6628033875,140.2183573875,71.0,119.0
191,140.2183573875,143.2739043875,73.0,119.0
192,143.2739043875,143.55052398333333,71.0,117.0
193,143.5516813875,143.82830098333335,71.0,110.0
194,143.8294583875,144.10607798333334,71.0,114.0
195,144.1072353875,144.3850123875,71.0,116.0
196,144.3850123875,144.6627893875,68.0,113.0
197,144.6627893875,144.9405663875,66.0,110.0
198,144.9405663875,145.3572318875,78.0,120.0
199,145.3572318875,145.77273998333334,80.0,120.0
200,145.7738973875,146.3294513875,80.0,120.0
201,146.3294513875,146.60607098333332,71.0,110.0
202,146.60722838750002,146.8850053875,71.0,113.0
203,146.8850053875,147.16278238750002,73.0,107.0
204,147.16278238750002,147.4405593875,75.0,117.0
205,147.4405593875,147.9961133875,78.0,116.0
206,147.9961133875,148.27389038750002,71.0,96.0
207,148.27389038750002,148.5516673875,78.0,114.0
208,148.5516673875,148.8294443875,75.0,108.0
209,148.8294443875,149.10606398333334,73.0,107.0
210,149.1072213875,150.4961063875,73.0,117.0
211,150.4961063875,150.7738833875,75.0,117.0
212,150.7738833875,151.3294373875,73.0,116.0
213,151.3294373875,152.16161098333333,71.0,117.0
214,152.1627683875,152.71716498333333,71.0,114.0
215,152.7183223875,152.99494198333335,71.0,116.0
216,152.9960993875,153.2738763875,71.0,110.0
217,153.2738763875,153.5516533875,68.0,104.0
218,153.5516533875,153.8294303875,66.0,113.0
219,153.8294303875,154.1072073875,78.0,119.0
220,154.1072073875,155.2183153875,80.0,119.0
221,155.2183153875,155.49493498333334,71.0,113.0
222,155.4960923875,155.7738693875,71.0,114.0
223,155.7738693875,156.0516463875,73.0,110.0
224,156.0516463875,156.32942338750001,75.0,117.0
225,156.32942338750001,156.88381998333332,78.0,119.0
226,156.88497738750002,157.16159698333334,78.0,119.0
227,157.1627543875,157.7183083875,78.0,119.0
228,157.7183083875,157.99608538750002,71.0,114.0
229,157.99608538750002,159.66158998333333,73.0,117.0
230,159.6627473875,159.9405243875,73.0,116.0
231,159.9405243875,160.2183013875,75.0,108.0
232,160.2183013875,161.05047498333334,71.0,108.0
233,161.0516323875,161.32825198333333,71.0,119.0
234,161.3294093875,161.60602898333335,71.0,113.0
235,161.6071863875,162.4405173875,71.0,117.0
236,162.4405173875,162.7182943875,68.0,107.0
237,162.7182943875,162.9960713875,78.0,117.0
238,162.9960713875,163.55046798333333,80.0,116.0
239,163.5516253875,164.3849563875,80.0,119.0
240,164.3849563875,164.6627333875,71.0,113.0
241,164.6627333875,165.2182873875,75.0,114.0
242,165.2182873875,165.77268398333334,78.0,117.0
243,165.7738413875,166.3293953875,78.0,119.0
244,166.3293953875,166.8849493875,75.0,117.0
245,166.8849493875,170.3571618875,73.0,119.0
246,185.7737853875,186.0515623875,66.0,110.0
247,186.0515623875,186.4682278875,75.0,114.0
248,186.4682278875,186.8848933875,73.0,110.0
249,186.8848933875,187.43928998333334,71.0,113.0
250,187.4404473875,187.99484398333334,71.0,117.0
251,187.9960013875,188.55039798333334,71.0,110.0
252,188.5515553875,188.82933238750002,71.0,102.0
253,188.82933238750002,189.1071093875,68.0,94.0
254,189.1071093875,189.38488638750002,66.0,90.0
255,189.38488638750002,189.8015518875,78.0,113.0
256,189.8015518875,190.21705998333334,80.0,119.0
257,190.2182173875,191.0515483875,80.0,120.0
258,191.0515483875,191.3293253875,71.0,117.0
259,191.3293253875,191.6071023875,73.0,110.0
260,191.6071023875,191.8848793875,75.0,117.0
261,191.8848793875,192.43927598333335,78.0,119.0
262,192.4404333875,192.9959873875,78.0,119.0
263,192.9959873875,193.5515413875,71.0,119.0
264,193.5515413875,196.6070883875,73.0,119.0
265,196.6070883875,196.88370798333335,71.0,117.0
266,196.8848653875,197.16148498333334,71.0,110.0
267,197.1626423875,197.43926198333332,71.0,114.0
268,197.44041938750001,197.7181963875,71.0,116.0
269,197.7181963875,197.99597338750002,68.0,113.0
270,197.99597338750002,198.2737503875,66.0,110.0
271,198.2737503875,198.6904158875,78.0,120.0
272,198.6904158875,199.10592398333333,80.0,120.0
273,199.10708138750002,199.66263538750002,80.0,120.0
274,199.66263538750002,199.93925498333334,71.0,110.0
275,199.9404123875,200.21818938750002,71.0,113.0
276,200.21818938750002,200.4959663875,73.0,107.0
277,200.4959663875,200.7737433875,75.0,117.0
278,200.7737433875,201.3292973875,78.0,116.0
279,201.3292973875,201.6070743875,71.0,96.0
280,201.6070743875,201.8848513875,78.0,114.0
281,201.8848513875,202.1626283875,75.0,108.0
282,202.1626283875,202.43924798333333,73.0,107.0
283,202.4404053875,203.8292903875,73.0,117.0
284,203.8292903875,204.1070673875,75.0,117.0
285,204.1070673875,204.6626213875,73.0,116.0
286,204.6626213875,205.49479498333335,71.0,117.0
287,205.4959523875,206.05034898333335,71.0,114.0
288,206.0515063875,206.32812598333334,71.0,116.0
289,206.3292833875,206.6070603875,71.0,110.0
290,206.6070603875,206.8848373875,68.0,104.0
291,206.8848373875,207.1626143875,66.0,113.0
292,207.1626143875,207.4403913875,78.0,119.0
293,207.4403913875,208.5514993875,80.0,119.0
294,208.5514993875,208.82811898333333,71.0,113.0
295,208.82927638750002,209.1070533875,71.0,114.0
296,209.1070533875,209.38483038750002,73.0,110.0
297,209.38483038750002,209.6626073875,75.0,117.0
298,209.6626073875,210.21700398333334,78.0,119.0
299,210.2181613875,210.49478098333333,78.0,119.0
300,210.49593838750002,211.0514923875,78.0,119.0
301,211.0514923875,211.3292693875,71.0,114.0
302,211.3292693875,212.99477398333335,73.0,117.0
303,212.9959313875,213.2737083875,73.0,116.0
304,213.2737083875,213.5514853875,75.0,108.0
305,213.5514853875,214.38365898333333,71.0,108.0
306,214.3848163875,214.66143598333335,71.0,119.0
307,214.6625933875,214.93921298333333,71.0,113.0
308,214.9403703875,215.7737013875,71.0,117.0
309,215.7737013875,216.0514783875,68.0,107.0
310,216.0514783875,216.3292553875,78.0,117.0
311,216.3292553875,216.88365198333335,80.0,116.0
312,216.8848093875,217.4403633875,80.0,119.0
313,217.4403633875,217.99591738750001,71.0,113.0
314,217.99591738750001,218.2736943875,73.0,114.0
315,218.2736943875,218.55147138750002,75.0,114.0
316,218.55147138750002,219.10586798333333,78.0,117.0
317,219.10702538750002,219.66257938750002,78.0,119.0
318,219.66257938750002,220.21813338750002,75.0,117.0
319,220.21813338750002,222.7181263875,73.0,119.0
320,231.60699038750002,231.8847673875,63.0,114.0
321,231.8847673875,232.19610910833333,61.0,90.0
322,232.1625443875,232.4403213875,63.0,102.0
323,232.4403213875,232.77133897916667,61.0,87.0
324,232.7180983875,232.9958753875,63.0,93.0
325,232.9958753875,233.27249498333333,66.0,102.0
326,233.2736523875,235.7736453875,66.0,107.0
327,235.7736453875,236.0514223875,56.0,104.0
328,236.0514223875,236.8847533875,59.0,114.0
329,236.8847533875,237.4403073875,61.0,113.0
330,237.4403073875,240.21691998333333,59.0,114.0
331,240.21807738750002,240.49469698333334,59.0,92.0
332,240.4958543875,240.77363138750002,59.0,102.0
333,240.77363138750002,241.0514083875,61.0,102.0
334,241.0514083875,241.32918538750002,63.0,104.0
335,241.32918538750002,242.4402933875,59.0,100.0
336,242.4402933875,242.72964442916668,56.0,91.0
337,242.7180703875,243.020152875,59.0,96.0
338,242.9958473875,243.28288362083333,61.0,96.0
339,243.2736243875,243.56760504583335,63.0,91.0
340,243.5514013875,244.3847323875,59.0,94.0
341,244.3847323875,244.9402863875,56.0,92.0
342,244.9402863875,245.7736173875,61.0,91.0
343,245.7736173875,247.1625023875,63.0,108.0
