,start,end,pitch,velocity
0,9.9409443875,9.995342383333334,63.0,85.0
1,9.9409443875,10.002286808333334,59.0,78.0
2,9.9409443875,10.012703445833333,66.0,81.0
3,10.2187213875,11.168950208333333,59.0,86.0
4,10.2187213875,11.187468675,66.0,87.0
5,10.2187213875,11.199042716666668,63.0,94.0
6,9.385390387500001,11.494180779166667,47.0,100.0
7,9.6631673875,11.609921195833333,54.0,87.0
8,11.3298293875,11.657374766666667,59.0,85.0
9,11.3298293875,11.659689575,63.0,86.0
10,11.3298293875,11.659689575,66.0,86.0
11,12.1631603875,12.209456554166668,66.0,84.0
12,12.1631603875,12.212928766666668,59.0,84.0
13,12.1631603875,12.222188000000001,63.0,88.0
14,11.885383387500001,12.787001233333333,54.0,85.0
15,12.4409373875,13.092555933333333,66.0,91.0
16,12.4409373875,13.1145466125,63.0,90.0
17,12.4409373875,13.12496325,59.0,88.0
18,12.9964913875,13.5728786625,54.0,71.0
19,11.6076063875,13.59718415,47.0,91.0
20,13.5520453875,13.793942858333333,66.0,82.0
21,13.5520453875,13.8298223875,59.0,76.0
22,13.5520453875,13.855285279166667,63.0,80.0
23,14.1075993875,14.1770436375,63.0,84.0
24,14.1075993875,14.179358445833333,66.0,83.0
25,14.1075993875,14.1909324875,59.0,81.0
26,14.385376387500001,14.43051515,66.0,82.0
27,14.385376387500001,14.442089191666668,63.0,87.0
28,14.385376387500001,14.449033616666666,59.0,86.0
29,14.6631533875,15.568243445833334,66.0,90.0
30,14.6631533875,15.571715658333334,59.0,87.0
31,14.6631533875,15.575187870833334,63.0,96.0
32,15.4964843875,15.768474366666666,54.0,76.0
33,13.8298223875,15.785835429166667,47.0,94.0
34,15.774261387500001,16.053195791666667,66.0,88.0
35,15.774261387500001,16.057825408333333,59.0,87.0
36,15.774261387500001,16.0659272375,63.0,88.0
37,16.6075923875,16.66662,63.0,91.0
38,16.6075923875,16.668934808333333,59.0,86.0
39,16.6075923875,16.668934808333333,66.0,87.0
40,16.0520383875,17.137683495833333,47.0,89.0
41,16.329815387500002,17.158516770833334,54.0,85.0
42,16.8853693875,17.488376958333333,59.0,88.0
43,16.8853693875,17.51383985,63.0,93.0
44,16.8853693875,17.5173120625,66.0,91.0
45,18.8298083875,18.886521191666667,63.0,81.0
46,18.8298083875,18.894623020833333,59.0,84.0
47,18.5520313875,19.359899495833332,54.0,78.0
48,19.107585387500002,19.719852191666668,59.0,84.0
49,19.107585387500002,19.727954020833334,63.0,88.0
50,19.107585387500002,19.7325836375,66.0,83.0
51,18.2742543875,20.277721,47.0,92.0
52,19.6631393875,20.312443125,54.0,67.0
53,19.9409163875,20.791608450000002,63.0,82.0
54,19.9409163875,20.800867683333333,59.0,80.0
55,19.9409163875,20.800867683333333,66.0,84.0
56,21.0520243875,21.108737191666666,59.0,81.0
57,21.0520243875,21.108737191666666,63.0,84.0
58,21.0520243875,21.119153829166667,66.0,84.0
59,20.7742473875,21.455958441666667,54.0,83.0
60,21.3298013875,21.886512791666668,66.0,91.0
61,21.3298013875,21.9131330875,59.0,91.0
62,21.3298013875,21.924707129166666,63.0,96.0
63,20.4964703875,22.307807908333334,47.0,89.0
64,21.8853553875,22.327483779166666,54.0,65.0
65,22.1631323875,22.679334645833332,66.0,88.0
66,22.1631323875,22.701325325,59.0,87.0
67,22.1631323875,22.70942715416667,63.0,88.0
68,22.9964633875,23.055491,68.0,74.0
69,22.9964633875,23.0589632125,64.0,77.0
70,22.9964633875,23.087898316666667,59.0,79.0
71,23.2742403875,23.32400876666667,68.0,75.0
72,23.2742403875,23.3367402125,64.0,77.0
73,22.7186863875,24.700162320833336,52.0,90.0
74,23.5520173875,25.0034022125,68.0,92.0
75,23.5520173875,25.0172910625,64.0,94.0
76,23.5520173875,25.018448466666666,59.0,89.0
77,25.2186793875,25.284651425,64.0,80.0
78,25.2186793875,25.299697679166666,68.0,81.0
79,25.2186793875,25.310114316666667,59.0,77.0
80,25.4964563875,25.5450673625,64.0,80.0
81,25.4964563875,25.547382170833334,59.0,79.0
82,24.9409023875,26.120297233333336,52.0,88.0
83,25.7742333875,26.395759425,68.0,96.0
84,25.7742333875,26.408490870833333,64.0,102.0
85,25.7742333875,26.422379720833334,59.0,92.0
86,26.3297873875,26.7881194375,52.0,82.0
87,26.607564387500002,27.09714635,59.0,90.0
88,26.607564387500002,27.11219260416667,64.0,94.0
89,26.607564387500002,27.117979625,68.0,91.0
90,27.7186723875,27.770755575,68.0,75.0
91,27.7186723875,27.780014808333334,64.0,82.0
92,27.7186723875,27.78927404166667,61.0,81.0
93,27.4408953875,28.345985445833335,56.0,86.0
94,27.1631183875,29.200149720833334,49.0,92.0
95,27.9964493875,29.709407554166667,68.0,90.0
96,27.9964493875,29.714037170833333,61.0,89.0
97,27.9964493875,29.73602785,64.0,93.0
98,29.9408883875,29.999916000000002,64.0,80.0
99,29.9408883875,30.002230808333334,68.0,79.0
100,29.9408883875,30.009175233333334,61.0,79.0
101,29.6631113875,30.465192475000002,56.0,80.0
102,30.2186653875,31.072829662500002,68.0,90.0
103,30.2186653875,31.079774087500002,61.0,88.0
104,30.2186653875,31.084403704166668,64.0,93.0
105,31.0519963875,31.2533847125,56.0,70.0
106,29.385334387500002,31.270745775,49.0,87.0
107,31.3297733875,31.667735404166667,68.0,77.0
108,31.3297733875,31.696670508333334,61.0,75.0
109,31.3297733875,31.701300125,64.0,77.0
110,32.1631043875,32.2394930625,63.0,81.0
111,31.885327387500002,32.73717685416667,54.0,78.0
112,32.4408813875,33.354073275,66.0,87.0
113,32.4408813875,33.356388083333336,59.0,83.0
114,32.4408813875,33.359860295833336,63.0,87.0
115,31.6075503875,33.616804020833335,47.0,89.0
116,33.2742123875,33.83208119583333,54.0,65.0
117,33.5519893875,33.9964325875,66.0,79.0
118,33.5519893875,34.0658768375,59.0,71.0
119,33.5519893875,34.06703424166667,63.0,77.0
120,34.3853203875,34.443190595833336,63.0,86.0
121,34.3853203875,34.45360723333334,59.0,85.0
122,34.3853203875,34.45707944583334,66.0,87.0
123,34.1075433875,34.87490235,54.0,83.0
124,34.6630973875,35.2742067875,66.0,91.0
125,34.6630973875,35.277679,63.0,94.0
126,34.6630973875,35.28925304166667,59.0,88.0
127,35.2186513875,35.54735417083334,54.0,68.0
128,33.8297663875,35.84712185,47.0,88.0
129,35.4964283875,36.10985259583333,59.0,89.0
130,35.4964283875,36.10985259583333,63.0,98.0
131,35.4964283875,36.11216740416667,66.0,91.0
132,36.6075363875,36.65846217083333,63.0,87.0
133,36.6075363875,36.66193438333333,59.0,85.0
134,36.6075363875,36.66887880833333,66.0,87.0
135,36.3297593875,37.120266433333335,54.0,85.0
136,36.8853133875,37.46748768333333,59.0,89.0
137,36.8853133875,37.4721173,63.0,94.0
138,36.8853133875,37.47327470416667,66.0,91.0
139,36.051982387500004,38.0033658125,47.0,88.0
140,37.4408673875,38.29618906666667,54.0,73.0
141,37.7186443875,38.5728086625,59.0,73.0
142,37.7186443875,38.5728086625,66.0,80.0
143,37.7186443875,38.594799341666665,63.0,79.0
144,38.8297523875,38.882992979166666,63.0,80.0
145,38.8297523875,38.885307787500004,66.0,78.0
146,38.8297523875,38.887622595833335,59.0,77.0
147,38.5519753875,39.296186266666666,54.0,76.0
148,39.1075293875,39.71285176666667,66.0,98.0
149,39.1075293875,39.724425808333336,59.0,96.0
150,39.1075293875,39.72674061666667,63.0,108.0
151,38.1353098875,39.950119620833334,47.0,87.0
152,39.6630833875,40.03692493333333,54.0,74.0
153,39.9408603875,40.409609075,59.0,88.0
154,39.9408603875,40.490627366666665,66.0,88.0
155,39.9408603875,40.513775450000004,63.0,91.0
156,41.051968387500004,41.10868119166667,64.0,82.0
157,41.051968387500004,41.11331080833333,71.0,79.0
158,40.774191387500004,41.50104120416667,59.0,79.0
159,41.329745387500004,42.01377125,71.0,89.0
160,41.329745387500004,42.0380767375,68.0,94.0
161,41.329745387500004,42.08090069166667,64.0,89.0
162,40.4964143875,42.48020512916667,52.0,83.0
163,41.8852993875,42.76955617083333,59.0,71.0
164,42.4408533875,43.00913883333333,71.0,77.0
165,42.4408533875,43.03228691666667,64.0,78.0
166,42.4408533875,43.03691653333333,68.0,83.0
167,43.2741843875,43.31816574583333,71.0,75.0
168,43.2741843875,43.344786041666666,68.0,82.0
169,43.2741843875,43.349415658333335,64.0,81.0
170,42.9964073875,43.71399797083333,59.0,78.0
171,43.5519613875,44.11677462083333,71.0,89.0
172,43.5519613875,44.1387653,64.0,88.0
173,43.5519613875,44.1387653,68.0,96.0
174,44.1075153875,44.49871799583333,59.0,75.0
175,42.7186303875,44.51839386666667,52.0,87.0
176,44.3852923875,44.962837066666665,71.0,88.0
177,44.3852923875,44.966309279166666,64.0,89.0
178,44.3852923875,44.967466683333335,68.0,96.0
179,45.4964003875,45.54385395833334,64.0,73.0
180,45.2186233875,46.14801893333333,56.0,84.0
181,45.7741773875,46.74060986666667,68.0,92.0
182,45.7741773875,46.742924675,64.0,102.0
183,45.7741773875,46.752183908333336,61.0,93.0
184,44.9408463875,47.003340612500004,49.0,90.0
185,46.6075083875,47.135284687500004,56.0,70.0
186,47.7186163875,47.770699575,64.0,83.0
187,47.7186163875,47.77648659583333,61.0,84.0
188,47.7186163875,47.792690254166665,68.0,86.0
189,47.4408393875,48.2325038375,56.0,83.0
190,47.9963933875,48.58782691666667,64.0,108.0
191,47.9963933875,48.591299129166664,68.0,102.0
192,47.9963933875,48.598243554166665,61.0,100.0
193,48.5519473875,48.951251825,56.0,71.0
194,47.1630623875,48.98365914166667,49.0,91.0
195,48.8297243875,49.37370434583333,61.0,86.0
196,48.8297243875,49.37486175,64.0,87.0
197,48.8297243875,49.37949136666667,68.0,86.0
198,49.9408323875,49.983656341666666,63.0,75.0
199,49.6630553875,50.41768290416667,54.0,84.0
200,50.2186093875,50.87717235833333,66.0,93.0
201,50.2186093875,50.8852741875,63.0,100.0
202,50.2186093875,50.893376016666664,59.0,91.0
203,49.3852783875,51.39800423333333,47.0,92.0
204,50.7741633875,51.5519389875,54.0,68.0
205,51.329717387500004,51.7186051875,66.0,77.0
206,51.329717387500004,51.842447433333334,59.0,81.0
207,51.329717387500004,51.8922158125,63.0,84.0
208,52.1630483875,52.22439080833333,59.0,78.0
209,52.1630483875,52.23133523333333,63.0,81.0
210,51.607494387500005,52.6491581375,47.0,90.0
211,51.8852713875,52.828555783333336,54.0,86.0
212,52.4408253875,53.01952747083333,66.0,90.0
213,52.4408253875,53.0449903625,59.0,87.0
214,52.4408253875,53.063508829166665,63.0,92.0
215,52.7186023875,53.783414220833336,46.0,88.0
216,53.5519333875,53.8054049,66.0,82.0
217,53.5519333875,53.84822885416667,59.0,82.0
218,53.5519333875,53.86558991666667,63.0,87.0
219,54.3852643875,54.784568825,56.0,87.0
220,54.6630413875,55.234799045833334,68.0,96.0
221,54.6630413875,55.237113854166665,63.0,100.0
222,54.6630413875,55.238271258333334,59.0,91.0
223,54.1074873875,55.5727610625,51.0,77.0
224,55.2185953875,55.804241895833336,56.0,82.0
225,53.8297103875,55.82738997916667,44.0,88.0
226,55.4963723875,56.110954,59.0,88.0
227,55.4963723875,56.12947246666667,68.0,91.0
228,55.4963723875,56.27646279583333,63.0,91.0
229,56.607480387500004,57.10979379583333,52.0,91.0
230,56.885257387500005,57.47090389583334,68.0,108.0
231,56.885257387500005,57.48479274583333,64.0,114.0
232,56.885257387500005,57.48710755416667,59.0,94.0
233,57.4408113875,57.75215310833333,52.0,91.0
234,56.051926387500004,57.9963653875,40.0,92.0
235,56.329703387500004,58.0658096375,47.0,86.0
236,57.9963653875,58.209327754166665,52.0,86.0
237,57.7185883875,58.40261425,68.0,107.0
238,57.7185883875,58.5831693,59.0,98.0
239,57.7185883875,58.6665024,64.0,116.0
240,58.8296963875,58.908399870833335,66.0,83.0
241,58.8296963875,58.92113131666667,59.0,82.0
242,58.8296963875,58.922288720833336,63.0,85.0
243,58.5519193875,59.27645439583333,54.0,87.0
244,59.1074733875,59.62946266666667,66.0,113.0
245,59.1074733875,59.631777475,59.0,108.0
246,59.1074733875,59.63409228333334,63.0,116.0
247,59.5241388875,60.07390586666667,54.0,88.0
248,58.2741423875,60.17807224166667,47.0,98.0
249,59.9408043875,60.687330075,66.0,104.0
250,59.9408043875,60.69543190416667,59.0,102.0
251,59.9408043875,60.76256134583333,63.0,114.0
252,61.0519123875,61.469735291666666,54.0,89.0
253,61.329689387500004,61.90723406666667,58.0,110.0
254,61.329689387500004,61.909548875,66.0,104.0
255,61.329689387500004,61.91880810833334,61.0,116.0
256,61.885243387500005,62.17806664166667,54.0,108.0
257,60.4963583875,62.48362134166667,42.0,100.0
258,62.4407973875,62.65260235,54.0,89.0
259,60.7741353875,62.679222645833335,49.0,87.0
260,62.163020387500005,62.845888845833336,58.0,110.0
261,62.163020387500005,62.87482395,66.0,107.0
262,62.163020387500005,62.936166370833334,61.0,116.0
263,63.2741283875,63.8331546,56.0,107.0
264,63.5519053875,64.13639449166666,68.0,110.0
265,63.5519053875,64.13755189583334,59.0,107.0
266,63.5519053875,64.14102410833334,63.0,113.0
267,64.1074593875,64.55305999166667,56.0,107.0
268,62.9963513875,64.59125432916667,51.0,91.0
269,62.7185743875,64.62250424166668,44.0,100.0
270,64.3852363875,65.00097540416667,59.0,110.0
271,64.3852363875,65.0102346375,63.0,117.0
272,64.3852363875,65.04032714583333,68.0,108.0
273,65.4963443875,65.56694604166667,64.0,87.0
274,65.4963443875,65.56810344583333,68.0,88.0
275,65.0796788875,65.88986180416667,59.0,84.0
276,65.7741213875,66.32736057916667,71.0,108.0
277,65.7741213875,66.3366198125,68.0,119.0
278,65.7741213875,66.340092025,64.0,110.0
279,64.9407903875,66.92921074583333,52.0,110.0
280,66.3296753875,66.93846997916667,59.0,91.0
281,66.6074523875,67.270644975,64.0,104.0
282,66.6074523875,67.29379305833334,68.0,113.0
283,66.6074523875,67.29726527083334,71.0,100.0
284,67.7185603875,68.15142954583334,59.0,88.0
285,67.9963373875,68.58314130000001,66.0,110.0
286,67.9963373875,68.58892832083333,71.0,104.0
287,67.9963373875,68.59124312916667,63.0,107.0
288,68.5518913875,68.9130014875,59.0,93.0
289,67.4407833875,69.0032790125,54.0,86.0
290,67.1630063875,69.02874190416667,47.0,107.0
291,68.8296683875,69.46045365833334,71.0,98.0
292,68.8296683875,69.46276846666667,63.0,108.0
293,68.8296683875,69.46971289166667,66.0,114.0
294,69.94077638750001,70.3088309125,54.0,100.0
295,70.2185533875,70.756746325,58.0,107.0
296,70.2185533875,70.75906113333333,61.0,114.0
297,70.2185533875,70.78336662083333,66.0,107.0
298,70.7741073875,71.06461583333333,54.0,108.0
299,69.38522238750001,71.3296613875,42.0,104.0
300,71.0518843875,71.47086469583334,58.0,104.0
301,71.0518843875,71.48822575833333,66.0,102.0
302,71.3296613875,71.52294788333333,54.0,85.0
303,71.0518843875,71.53683673333333,61.0,113.0
304,69.66299938750001,71.59239213333333,49.0,84.0
305,71.6074383875,72.33544560833333,68.0,102.0
306,71.6074383875,72.33776041666667,63.0,104.0
307,71.6074383875,72.34586224583333,59.0,102.0
308,72.1629923875,72.63637069166667,51.0,88.0
309,72.4407693875,73.03683253333334,68.0,107.0
310,72.4407693875,73.05419359583334,59.0,114.0
311,72.4407693875,73.076184275,63.0,114.0
312,72.9963233875,73.29146145,51.0,93.0
313,71.6074383875,73.4164611,44.0,89.0
314,73.2741003875,73.69539550416667,59.0,110.0
315,73.5518773875,73.71159916250001,44.0,96.0
316,73.2741003875,73.71275656666667,68.0,100.0
317,73.2741003875,73.756737925,63.0,114.0
318,73.8296543875,74.52293948333333,64.0,113.0
319,73.8296543875,74.53451352500001,68.0,100.0
320,73.8296543875,74.54955977916667,59.0,107.0
321,74.3852083875,74.8852069875,47.0,87.0
322,74.6629853875,75.22432640833334,64.0,116.0
323,74.6629853875,75.23474304583334,59.0,113.0
324,74.6629853875,75.2393726625,68.0,108.0
325,75.2185393875,75.57849208333333,47.0,96.0
326,73.8296543875,75.83775061666667,40.0,108.0
327,75.7740933875,75.87941716666667,47.0,94.0
328,75.4963163875,75.88173197500001,68.0,108.0
329,75.4963163875,75.93612997083333,59.0,110.0
330,75.4963163875,75.95580584166667,64.0,117.0
331,76.3296473875,76.38636019166667,54.0,79.0
332,76.0518703875,76.65835017083333,63.0,114.0
333,76.0518703875,76.71274816666667,59.0,104.0
334,76.0518703875,76.7220074,66.0,110.0
335,76.6074243875,77.14793213333334,54.0,98.0
336,76.8852013875,77.465060875,66.0,108.0
337,76.8852013875,77.4720053,63.0,117.0
338,76.8852013875,77.48820895833333,59.0,110.0
339,76.0518703875,77.8296431875,47.0,108.0
340,77.4407553875,77.8296431875,54.0,104.0
341,77.9963093875,78.0935313375,47.0,104.0
342,77.7185323875,78.09584614583333,59.0,107.0
343,77.7185323875,78.10163316666667,66.0,102.0
344,77.7185323875,78.1907532875,63.0,116.0
345,78.2740863875,78.87593655416667,66.0,94.0
346,78.2740863875,78.88751059583333,58.0,104.0
347,78.2740863875,78.89098280833333,61.0,114.0
348,78.8296403875,79.26482435416666,54.0,88.0
349,79.1074173875,79.68496206666667,66.0,108.0
350,79.1074173875,79.687276875,58.0,110.0
351,79.1074173875,79.687276875,61.0,116.0
352,79.66297138750001,79.99051676666667,54.0,94.0
353,78.2740863875,80.25093270416667,42.0,108.0
354,79.94074838750001,80.25787712916667,58.0,110.0
355,78.5518633875,80.26250674583333,49.0,87.0
356,79.94074838750001,80.2879696375,66.0,108.0
357,80.21852538750001,80.38750639583334,54.0,80.0
358,79.94074838750001,80.39676562916667,61.0,114.0
359,80.49630238750001,81.08194889583334,68.0,100.0
360,80.49630238750001,81.103939575,63.0,110.0
361,80.49630238750001,81.10509697916667,59.0,100.0
362,81.0518563875,81.5101884375,56.0,90.0
363,81.3296333875,81.91180768333334,63.0,117.0
364,81.3296333875,81.92106691666667,68.0,113.0
365,81.3296333875,81.92453912916667,59.0,108.0
366,80.49630238750001,82.16527919583334,44.0,93.0
367,80.7740793875,82.2046309375,51.0,86.0
368,81.8851873875,82.2115753625,56.0,100.0
369,82.4407413875,82.56689844166667,44.0,94.0
370,82.1629643875,82.57500027083333,68.0,107.0
371,82.1629643875,82.60972239583333,63.0,116.0
372,82.1629643875,82.64907413750001,59.0,110.0
373,82.7185183875,83.34120182916666,68.0,102.0
374,82.7185183875,83.35277587083334,64.0,116.0
375,82.7185183875,83.40138684583333,59.0,110.0
376,83.2740723875,83.6282380625,52.0,86.0
377,83.5518493875,84.14791253333334,64.0,117.0
378,83.5518493875,84.1490699375,68.0,108.0
379,83.5518493875,84.15369955416666,59.0,114.0
380,84.1074033875,84.37360634583334,52.0,104.0
381,82.7185183875,84.68031845,40.0,107.0
382,82.9962953875,84.74050346666667,47.0,82.0
383,84.3851803875,84.770595975,68.0,107.0
384,84.3851803875,84.79837367500001,59.0,110.0
385,84.3851803875,84.82499397083333,64.0,117.0
386,84.6629573875,84.9060122625,52.0,107.0
387,85.07962288750001,85.312261125,54.0,82.0
388,84.9407343875,85.5830937,63.0,108.0
389,84.9407343875,85.59698255,66.0,100.0
390,84.9407343875,85.61202880416667,59.0,96.0
391,85.4962883875,86.006703625,54.0,88.0
392,85.7740653875,86.38633219166667,66.0,107.0
393,85.7740653875,86.39674882916667,63.0,116.0
394,85.7740653875,86.40485065833333,59.0,107.0
395,86.3296193875,86.70114612500001,54.0,100.0
396,84.9407343875,86.72660901666667,47.0,107.0
397,86.8851733875,86.98702495416667,47.0,92.0
398,86.6073963875,86.99744159166667,59.0,107.0
399,86.6073963875,87.01364525,66.0,104.0
400,86.6073963875,87.1073949875,63.0,114.0
401,87.1629503875,87.77174497916667,61.0,108.0
402,87.1629503875,87.77637459583333,66.0,91.0
403,87.1629503875,87.77753200000001,58.0,104.0
404,87.7185043875,88.1629475875,54.0,85.0
405,87.9962813875,88.58887232083333,66.0,96.0
406,87.9962813875,88.61549261666667,58.0,108.0
407,87.9962813875,88.62012223333333,61.0,114.0
408,88.5518353875,88.85391787500001,54.0,88.0
409,87.1629503875,89.12243564166667,42.0,102.0
410,88.8296123875,89.12590785416667,66.0,88.0
411,88.8296123875,89.14326891666667,58.0,88.0
412,88.8296123875,89.17567623333333,61.0,90.0
413,87.4407273875,89.39789783333333,49.0,78.0
414,89.3851663875,89.96155366250001,47.0,100.0
415,89.66294338750001,90.1212754375,54.0,84.0
416,89.94072038750001,90.35970069583334,71.0,107.0
417,90.0796088875,90.5865519125,59.0,82.0
418,90.49627438750001,90.90136584583334,73.0,110.0
419,90.49627438750001,91.1004393625,61.0,86.0
420,91.0518283875,91.13979110416666,63.0,81.0
421,91.0518283875,91.6073823875,75.0,102.0
422,91.6073823875,91.97080729583334,71.0,102.0
423,91.6073823875,92.11085320000001,47.0,86.0
424,91.8851593875,92.16872340833334,54.0,75.0
425,92.1629363875,92.47427810833334,59.0,83.0
426,92.1629363875,92.53677793333334,73.0,102.0
427,92.4407133875,93.08075789166666,61.0,86.0
428,92.7184903875,93.09233193333334,75.0,102.0
429,92.9962673875,93.30297949166668,63.0,89.0
430,93.2740443875,93.7601541375,78.0,108.0
431,93.8295983875,94.31918035,47.0,86.0
432,94.1073753875,94.367791325,54.0,73.0
433,94.3851523875,94.63052207083334,59.0,80.0
434,94.3851523875,94.71038295833334,66.0,88.0
435,94.3851523875,94.72311440416667,71.0,91.0
436,94.6629293875,95.25204810833334,61.0,86.0
437,94.9407063875,95.25204810833334,66.0,94.0
438,94.9407063875,95.26593695833334,73.0,104.0
439,95.2184833875,95.54371395833334,63.0,88.0
440,95.4962603875,95.9823701375,75.0,104.0
441,95.4962603875,96.3643135125,66.0,104.0
442,96.0518143875,96.40482265833333,71.0,102.0
443,96.0518143875,96.5795906875,47.0,86.0
444,96.3295913875,96.60968319583334,54.0,81.0
445,96.6073683875,96.88051577083334,59.0,81.0
446,96.6073683875,96.93954338333333,73.0,102.0
447,96.6073683875,96.96500627500001,66.0,96.0
448,96.8851453875,97.42796794166667,61.0,85.0
449,97.1629223875,97.47426410833333,66.0,91.0
450,97.1629223875,97.49509738333333,75.0,102.0
451,97.4406993875,97.756670725,63.0,87.0
452,97.7184763875,98.15366035416668,78.0,107.0
453,97.7184763875,98.17102141666668,66.0,110.0
454,98.8295843875,98.88629719166667,63.0,81.0
455,98.8295843875,98.89439902083333,59.0,84.0
456,98.5518073875,99.35967549583333,54.0,78.0
457,99.1073613875,99.71962819166667,59.0,84.0
458,99.1073613875,99.72773002083333,63.0,88.0
459,99.1073613875,99.7323596375,66.0,83.0
460,98.2740303875,100.277497,47.0,92.0
461,99.66291538750001,100.312219125,54.0,67.0
462,99.94069238750001,100.79138445,63.0,82.0
463,99.94069238750001,100.80064368333333,59.0,80.0
464,99.94069238750001,100.80064368333333,66.0,84.0
465,101.05180038750001,101.10851319166667,59.0,81.0
466,101.05180038750001,101.10851319166667,63.0,84.0
467,101.05180038750001,101.11892982916667,66.0,84.0
468,100.77402338750001,101.45573444166666,54.0,83.0
469,101.32957738750001,101.88628879166667,66.0,91.0
470,101.32957738750001,101.9129090875,59.0,91.0
471,101.32957738750001,101.92448312916667,63.0,96.0
472,100.49624638750001,102.30758390833334,47.0,89.0
473,101.8851313875,102.32725977916667,54.0,65.0
474,102.1629083875,102.67911064583333,66.0,88.0
475,102.1629083875,102.701101325,59.0,87.0
476,102.1629083875,102.70920315416667,63.0,88.0
477,102.9962393875,103.055267,68.0,74.0
478,102.9962393875,103.0587392125,64.0,77.0
479,102.9962393875,103.08767431666666,59.0,79.0
480,103.2740163875,103.32378476666666,68.0,75.0
481,103.2740163875,103.3365162125,64.0,77.0
482,102.7184623875,104.69993832083334,52.0,90.0
483,103.5517933875,105.0031782125,68.0,92.0
484,103.5517933875,105.0170670625,64.0,94.0
485,103.5517933875,105.01822446666667,59.0,89.0
486,105.2184553875,105.284427425,64.0,80.0
487,105.2184553875,105.29947367916667,68.0,81.0
488,105.2184553875,105.30989031666667,59.0,77.0
489,105.4962323875,105.5448433625,64.0,80.0
490,105.4962323875,105.54715817083334,59.0,79.0
491,104.9406783875,106.12007323333333,52.0,88.0
492,105.7740093875,106.395535425,68.0,96.0
493,105.7740093875,106.40826687083333,64.0,102.0
494,105.7740093875,106.42215572083333,59.0,92.0
495,106.3295633875,106.7878954375,52.0,82.0
496,106.6073403875,107.09692235,59.0,90.0
497,106.6073403875,107.11196860416666,64.0,94.0
498,106.6073403875,107.117755625,68.0,91.0
499,107.7184483875,107.770531575,68.0,75.0
500,107.7184483875,107.77979080833333,64.0,82.0
501,107.7184483875,107.78905004166667,61.0,81.0
502,107.4406713875,108.34576144583333,56.0,86.0
503,107.1628943875,109.19992572083333,49.0,92.0
504,107.9962253875,109.70918355416667,68.0,90.0
505,107.9962253875,109.71381317083333,61.0,89.0
506,107.9962253875,109.73580385,64.0,93.0
507,109.94066438750001,109.999692,64.0,80.0
508,109.94066438750001,110.00200680833333,68.0,79.0
509,109.94066438750001,110.00895123333333,61.0,79.0
510,109.6628873875,110.464968475,56.0,80.0
511,110.21844138750001,111.0726056625,68.0,90.0
512,110.21844138750001,111.0795500875,61.0,88.0
513,110.21844138750001,111.08417970416667,64.0,93.0
514,111.05177238750001,111.2531607125,56.0,70.0
515,109.3851103875,111.270521775,49.0,87.0
516,111.32954938750001,111.66751140416667,68.0,77.0
517,111.32954938750001,111.69644650833334,61.0,75.0
518,111.32954938750001,111.701076125,64.0,77.0
519,112.1628803875,112.2392690625,63.0,81.0
520,111.8851033875,112.73695285416667,54.0,78.0
521,112.4406573875,113.353849275,66.0,87.0
522,112.4406573875,113.35616408333334,59.0,83.0
523,112.4406573875,113.35963629583334,63.0,87.0
524,111.60732638750001,113.61658002083334,47.0,89.0
525,113.2739883875,113.83185719583334,54.0,65.0
526,113.5517653875,113.9962085875,66.0,79.0
527,113.5517653875,114.0656528375,59.0,71.0
528,113.5517653875,114.06681024166667,63.0,77.0
529,114.3850963875,114.44296659583334,63.0,86.0
530,114.3850963875,114.45338323333334,59.0,85.0
531,114.3850963875,114.45685544583334,66.0,87.0
532,114.1073193875,114.87467835,54.0,83.0
533,114.6628733875,115.2739827875,66.0,91.0
534,114.6628733875,115.277455,63.0,94.0
535,114.6628733875,115.28902904166667,59.0,88.0
536,115.2184273875,115.54713017083334,54.0,68.0
537,113.8295423875,115.84689785,47.0,88.0
538,115.4962043875,116.10962859583334,59.0,89.0
539,115.4962043875,116.10962859583334,63.0,98.0
540,115.4962043875,116.11194340416667,66.0,91.0
541,116.6073123875,116.65823817083334,63.0,87.0
542,116.6073123875,116.66171038333334,59.0,85.0
543,116.6073123875,116.66865480833333,66.0,87.0
544,116.3295353875,117.12004243333334,54.0,85.0
545,116.8850893875,117.46726368333334,59.0,89.0
546,116.8850893875,117.4718933,63.0,94.0
547,116.8850893875,117.47305070416667,66.0,91.0
548,116.0517583875,118.0031418125,47.0,88.0
549,117.4406433875,118.29596506666667,54.0,73.0
550,117.5795318875,118.4336961625,66.0,80.0
551,117.7184203875,118.5725846625,59.0,73.0
552,117.7184203875,118.59457534166667,63.0,79.0
553,118.8295283875,118.88276897916667,63.0,80.0
554,118.8295283875,118.88508378750001,66.0,78.0
555,118.8295283875,118.88739859583333,59.0,77.0
556,118.5517513875,119.29596226666666,54.0,76.0
557,119.1073053875,119.71262776666667,66.0,98.0
558,119.1073053875,119.72420180833333,59.0,96.0
559,119.1073053875,119.72651661666667,63.0,108.0
560,118.1350858875,119.94989562083333,47.0,87.0
561,119.6628593875,120.03670093333334,54.0,74.0
562,119.9406363875,120.409385075,59.0,88.0
563,119.9406363875,120.49040336666667,66.0,88.0
564,119.9406363875,120.51355145000001,63.0,91.0
565,121.05174438750001,121.10845719166667,64.0,82.0
566,121.05174438750001,121.11308680833334,71.0,79.0
567,120.77396738750001,121.50081720416667,59.0,79.0
568,121.32952138750001,122.01354725,71.0,89.0
569,121.32952138750001,122.0378527375,68.0,94.0
570,121.32952138750001,122.08067669166667,64.0,89.0
571,120.49619038750001,122.47998112916667,52.0,83.0
572,121.88507538750001,122.76933217083334,59.0,71.0
573,122.4406293875,123.00891483333334,71.0,77.0
574,122.4406293875,123.03206291666667,64.0,78.0
575,122.4406293875,123.03669253333334,68.0,83.0
576,123.2739603875,123.31794174583334,71.0,75.0
577,123.2739603875,123.34456204166666,68.0,82.0
578,123.2739603875,123.34919165833334,64.0,81.0
579,122.9961833875,123.71377397083333,59.0,78.0
580,123.5517373875,124.11655062083334,71.0,89.0
581,123.5517373875,124.1385413,64.0,88.0
582,123.5517373875,124.1385413,68.0,96.0
583,124.1072913875,124.49849399583334,59.0,75.0
584,122.7184063875,124.51816986666667,52.0,87.0
585,124.3850683875,124.96261306666666,71.0,88.0
586,124.3850683875,124.96608527916666,64.0,89.0
587,124.3850683875,124.96724268333334,68.0,96.0
588,125.4961763875,125.54362995833334,64.0,73.0
589,125.2183993875,126.14779493333333,56.0,84.0
590,125.7739533875,126.74038586666667,68.0,92.0
591,125.7739533875,126.74270067500001,64.0,102.0
592,125.7739533875,126.75195990833333,61.0,93.0
593,124.9406223875,127.00311661250001,49.0,90.0
594,126.6072843875,127.1350606875,56.0,70.0
595,127.7183923875,127.770475575,64.0,83.0
596,127.7183923875,127.77626259583333,61.0,84.0
597,127.7183923875,127.79246625416667,68.0,86.0
598,127.4406153875,128.23227983750002,56.0,83.0
599,127.9961693875,128.58760291666667,64.0,108.0
600,127.9961693875,128.59107512916668,68.0,102.0
601,127.9961693875,128.59801955416668,61.0,100.0
602,128.5517233875,128.951027825,56.0,71.0
603,127.1628383875,128.98343514166666,49.0,91.0
604,128.8295003875,129.37348034583334,61.0,86.0
605,128.8295003875,129.37463775,64.0,87.0
606,128.8295003875,129.37926736666668,68.0,86.0
607,129.9406083875,129.98343234166666,63.0,75.0
608,129.6628313875,130.41745890416666,54.0,84.0
609,130.2183853875,130.87694835833332,66.0,93.0
610,130.2183853875,130.8850501875,63.0,100.0
611,130.2183853875,130.89315201666668,59.0,91.0
612,129.3850543875,131.39778023333335,47.0,92.0
613,130.7739393875,131.5517149875,54.0,68.0
614,131.3294933875,131.7183811875,66.0,77.0
615,131.3294933875,131.84222343333334,59.0,81.0
616,131.3294933875,131.8919918125,63.0,84.0
617,132.1628243875,132.22416680833334,59.0,78.0
618,132.1628243875,132.23111123333334,63.0,81.0
619,131.6072703875,132.6489341375,47.0,90.0
620,131.8850473875,132.82833178333334,54.0,86.0
621,132.4406013875,133.01930347083334,66.0,90.0
622,132.4406013875,133.0447663625,59.0,87.0
623,132.4406013875,133.06328482916666,63.0,92.0
624,132.7183783875,133.78319022083335,46.0,88.0
625,133.5517093875,133.8051809,66.0,82.0
626,133.5517093875,133.84800485416667,59.0,82.0
627,133.5517093875,133.86536591666666,63.0,87.0
628,134.3850403875,134.784344825,56.0,87.0
629,134.6628173875,135.23457504583334,68.0,96.0
630,134.6628173875,135.23688985416666,63.0,100.0
631,134.6628173875,135.23804725833332,59.0,91.0
632,134.1072633875,135.5725370625,51.0,77.0
633,135.2183713875,135.80401789583334,56.0,82.0
634,133.8294863875,135.82716597916667,44.0,88.0
635,135.4961483875,136.11073,59.0,88.0
636,135.4961483875,136.12924846666667,68.0,91.0
637,135.4961483875,136.27623879583334,63.0,91.0
638,136.6072563875,137.10956979583332,52.0,91.0
639,136.88503338750002,137.47067989583334,68.0,108.0
640,136.88503338750002,137.48456874583334,64.0,114.0
641,136.88503338750002,137.48688355416667,59.0,94.0
642,137.44058738750002,137.75192910833334,52.0,91.0
643,136.0517023875,137.9961413875,40.0,92.0
644,136.32947938750002,138.0655856375,47.0,86.0
645,137.9961413875,138.20910375416668,52.0,86.0
646,137.7183643875,138.40239025,68.0,107.0
647,137.7183643875,138.5829453,59.0,98.0
648,137.7183643875,138.6662784,64.0,116.0
649,138.8294723875,138.90817587083333,66.0,83.0
650,138.8294723875,138.92090731666667,59.0,82.0
651,138.8294723875,138.92206472083333,63.0,85.0
652,138.5516953875,139.27623039583332,54.0,87.0
653,139.1072493875,139.62923866666668,66.0,113.0
654,139.1072493875,139.631553475,59.0,108.0
655,139.1072493875,139.63386828333333,63.0,116.0
656,139.5239148875,140.07368186666667,54.0,88.0
657,138.2739183875,140.17784824166668,47.0,98.0
658,139.9405803875,140.687106075,66.0,104.0
659,139.9405803875,140.69520790416667,59.0,102.0
660,139.9405803875,140.76233734583334,63.0,114.0
661,141.0516883875,141.46951129166666,54.0,89.0
662,141.3294653875,141.90701006666666,58.0,110.0
663,141.3294653875,141.909324875,66.0,104.0
664,141.3294653875,141.91858410833333,61.0,116.0
665,141.8850193875,142.17784264166667,54.0,108.0
666,140.4961343875,142.48339734166666,42.0,100.0
667,142.4405733875,142.65237835,54.0,89.0
668,140.7739113875,142.67899864583333,49.0,87.0
669,142.1627963875,142.84566484583334,58.0,110.0
670,142.1627963875,142.87459995,66.0,107.0
671,142.1627963875,142.93594237083335,61.0,116.0
672,143.2739043875,143.8329306,56.0,107.0
673,143.5516813875,144.13617049166666,68.0,110.0
674,143.5516813875,144.13732789583332,59.0,107.0
675,143.5516813875,144.14080010833334,63.0,113.0
676,144.1072353875,144.55283599166668,56.0,107.0
677,142.9961273875,144.59103032916667,51.0,91.0
678,142.7183503875,144.62228024166666,44.0,100.0
679,144.3850123875,145.00075140416666,59.0,110.0
680,144.3850123875,145.01001063750002,63.0,117.0
681,144.3850123875,145.04010314583334,68.0,108.0
682,145.4961203875,145.56672204166668,64.0,87.0
683,145.4961203875,145.56787944583334,68.0,88.0
684,145.0794548875,145.88963780416668,59.0,84.0
685,145.7738973875,146.32713657916668,71.0,108.0
686,145.7738973875,146.3363958125,68.0,119.0
687,145.7738973875,146.33986802500002,64.0,110.0
688,144.9405663875,146.92898674583333,52.0,110.0
689,146.3294513875,146.93824597916668,59.0,91.0
690,146.60722838750002,147.270420975,64.0,104.0
691,146.60722838750002,147.29356905833333,68.0,113.0
692,146.60722838750002,147.29704127083335,71.0,100.0
693,147.71833638750002,148.15120554583334,59.0,88.0
694,147.9961133875,148.5829173,66.0,110.0
695,147.9961133875,148.58870432083333,71.0,104.0
696,147.9961133875,148.59101912916668,63.0,107.0
697,148.5516673875,148.9127774875,59.0,93.0
698,147.4405593875,149.0030550125,54.0,86.0
699,147.16278238750002,149.02851790416668,47.0,107.0
700,148.8294443875,149.46022965833333,71.0,98.0
701,148.8294443875,149.46254446666666,63.0,108.0
702,148.8294443875,149.46948889166666,66.0,114.0
703,149.9405523875,150.3086069125,54.0,100.0
704,150.2183293875,150.756522325,58.0,107.0
705,150.2183293875,150.75883713333334,61.0,114.0
706,150.2183293875,150.78314262083333,66.0,107.0
707,150.7738833875,151.06439183333333,54.0,108.0
708,149.3849983875,151.3294373875,42.0,104.0
709,151.0516603875,151.47064069583334,58.0,104.0
710,151.0516603875,151.48800175833333,66.0,102.0
711,151.3294373875,151.52272388333333,54.0,85.0
712,151.0516603875,151.53661273333333,61.0,113.0
713,149.6627753875,151.59216813333333,49.0,84.0
714,151.6072143875,152.33522160833334,68.0,102.0
715,151.6072143875,152.33753641666667,63.0,104.0
716,151.6072143875,152.34563824583333,59.0,102.0
717,152.1627683875,152.63614669166668,51.0,88.0
718,152.4405453875,153.03660853333335,68.0,107.0
719,152.4405453875,153.05396959583334,59.0,114.0
720,152.4405453875,153.075960275,63.0,114.0
721,152.9960993875,153.29123745,51.0,93.0
722,151.6072143875,153.41623710000002,44.0,89.0
723,153.2738763875,153.69517150416667,59.0,110.0
724,153.5516533875,153.7113751625,44.0,96.0
725,153.2738763875,153.71253256666668,68.0,100.0
726,153.2738763875,153.756513925,63.0,114.0
727,153.8294303875,154.52271548333334,64.0,113.0
728,153.8294303875,154.534289525,68.0,100.0
729,153.8294303875,154.54933577916668,59.0,107.0
730,154.3849843875,154.8849829875,47.0,87.0
731,154.6627613875,155.22410240833332,64.0,116.0
732,154.6627613875,155.23451904583334,59.0,113.0
733,154.6627613875,155.2391486625,68.0,108.0
734,155.2183153875,155.57826808333334,47.0,96.0
735,153.8294303875,155.83752661666668,40.0,108.0
736,155.7738693875,155.87919316666668,47.0,94.0
737,155.4960923875,155.881507975,68.0,108.0
738,155.4960923875,155.93590597083335,59.0,110.0
739,155.4960923875,155.95558184166666,64.0,117.0
740,156.32942338750001,156.38613619166668,54.0,79.0
741,156.0516463875,156.65812617083333,63.0,114.0
742,156.0516463875,156.71252416666667,59.0,104.0
743,156.0516463875,156.7217834,66.0,110.0
744,156.6072003875,157.14770813333334,54.0,98.0
745,156.88497738750002,157.464836875,66.0,108.0
746,156.88497738750002,157.4717813,63.0,117.0
747,156.88497738750002,157.48798495833333,59.0,110.0
748,156.0516463875,157.8294191875,47.0,108.0
749,157.44053138750002,157.8294191875,54.0,104.0
750,157.99608538750002,158.0933073375,47.0,104.0
751,157.7183083875,158.09562214583335,59.0,107.0
752,157.7183083875,158.10140916666668,66.0,102.0
753,157.7183083875,158.1905292875,63.0,116.0
754,158.2738623875,158.87571255416668,66.0,94.0
755,158.2738623875,158.88728659583333,58.0,104.0
756,158.2738623875,158.89075880833335,61.0,114.0
757,158.8294163875,159.26460035416667,54.0,88.0
758,159.1071933875,159.68473806666668,66.0,108.0
759,159.1071933875,159.687052875,58.0,110.0
760,159.1071933875,159.687052875,61.0,116.0
761,159.6627473875,159.99029276666667,54.0,94.0
762,158.2738623875,160.25070870416667,42.0,108.0
763,159.9405243875,160.25765312916667,58.0,110.0
764,158.55163938750002,160.26228274583335,49.0,87.0
765,159.9405243875,160.2877456375,66.0,108.0
766,160.2183013875,160.38728239583332,54.0,80.0
767,159.9405243875,160.39654162916668,61.0,114.0
768,160.4960783875,161.08172489583333,68.0,100.0
769,160.4960783875,161.103715575,63.0,110.0
770,160.4960783875,161.10487297916666,59.0,100.0
771,161.0516323875,161.5099644375,56.0,90.0
772,161.3294093875,161.91158368333333,63.0,117.0
773,161.3294093875,161.92084291666666,68.0,113.0
774,161.3294093875,161.92431512916667,59.0,108.0
775,160.4960783875,162.16505519583333,44.0,93.0
776,160.7738553875,162.2044069375,51.0,86.0
777,161.8849633875,162.2113513625,56.0,100.0
778,162.4405173875,162.56667444166666,44.0,94.0
779,162.1627403875,162.57477627083333,68.0,107.0
780,162.1627403875,162.60949839583333,63.0,116.0
781,162.1627403875,162.6488501375,59.0,110.0
782,162.7182943875,163.34097782916666,68.0,102.0
783,162.7182943875,163.35255187083334,64.0,116.0
784,162.7182943875,163.40116284583334,59.0,110.0
785,163.2738483875,163.6280140625,52.0,86.0
786,163.5516253875,164.14768853333334,64.0,117.0
787,163.5516253875,164.1488459375,68.0,108.0
788,163.5516253875,164.15347555416668,59.0,114.0
789,164.1071793875,164.37338234583333,52.0,104.0
790,162.7182943875,164.68009445,40.0,107.0
791,162.9960713875,164.74027946666666,47.0,82.0
792,164.3849563875,164.77037197500002,68.0,107.0
793,164.3849563875,164.798149675,59.0,110.0
794,164.3849563875,164.82476997083333,64.0,117.0
795,164.6627333875,164.9057882625,52.0,107.0
796,165.0793988875,165.31203712500002,54.0,82.0
797,164.9405103875,165.5828697,63.0,108.0
798,164.9405103875,165.59675855,66.0,100.0
799,164.9405103875,165.61180480416667,59.0,96.0
800,165.4960643875,166.006479625,54.0,88.0
801,165.7738413875,166.38610819166666,66.0,107.0
802,165.7738413875,166.39652482916668,63.0,116.0
803,165.7738413875,166.40462665833334,59.0,107.0
804,166.3293953875,166.700922125,54.0,100.0
805,164.9405103875,166.72638501666668,47.0,107.0
806,166.8849493875,166.98680095416668,47.0,92.0
807,166.60717238750001,166.99721759166667,59.0,107.0
808,166.60717238750001,167.01342125,66.0,104.0
809,166.60717238750001,167.1071709875,63.0,114.0
810,167.16272638750002,167.77152097916667,61.0,108.0
811,167.16272638750002,167.77615059583334,66.0,91.0
812,167.16272638750002,167.777308,58.0,104.0
813,167.71828038750002,168.1627235875,54.0,85.0
814,167.9960573875,168.58864832083333,66.0,96.0
815,167.9960573875,168.61526861666667,58.0,108.0
816,167.9960573875,168.61989823333334,61.0,114.0
817,168.5516113875,168.853693875,54.0,88.0
818,167.16272638750002,169.12221164166667,42.0,102.0
819,168.82938838750002,169.12568385416668,66.0,88.0
820,168.82938838750002,169.14304491666667,58.0,88.0
821,168.82938838750002,169.17545223333335,61.0,90.0
822,167.4405033875,169.39767383333333,49.0,78.0
823,169.3849423875,169.83748741666668,66.0,93.0
824,169.3849423875,169.99720919166668,63.0,104.0
825,169.3849423875,170.04697757083335,59.0,90.0
826,169.9404963875,170.34790265416666,54.0,74.0
827,170.2182733875,170.70901275416668,66.0,102.0
828,170.2182733875,170.77266998333334,63.0,113.0
829,170.2182733875,170.79581806666667,59.0,98.0
830,169.3849423875,171.04350255833333,47.0,96.0
831,171.0516043875,171.3710479375,59.0,92.0
832,171.0516043875,171.49720499166668,66.0,94.0
833,171.0516043875,171.52382528750002,63.0,104.0
834,171.6071583875,172.24373067916667,66.0,96.0
835,171.6071583875,172.27150837916668,58.0,93.0
836,171.6071583875,172.3016008875,63.0,104.0
837,172.1627123875,172.61294260833333,51.0,73.0
838,172.4404893875,173.00414521666667,66.0,92.0
839,172.4404893875,173.0238210875,58.0,93.0
840,172.4404893875,173.0446543625,63.0,98.0
841,172.9960433875,173.2877092375,51.0,82.0
842,173.2738203875,173.55738440833335,58.0,100.0
843,171.6071583875,173.57474547083334,39.0,88.0
844,173.2738203875,173.6661804,66.0,98.0
845,173.5515973875,173.72057839583334,51.0,80.0
846,173.2738203875,173.74141167083334,63.0,104.0
847,173.8293743875,174.47289110416668,68.0,100.0
848,173.8293743875,174.4821503375,64.0,110.0
849,173.8293743875,174.50529842083333,59.0,90.0
850,174.3849283875,174.77613099583334,52.0,82.0
851,174.6627053875,175.2390926625,59.0,98.0
852,174.6627053875,175.25066670416666,68.0,92.0
853,174.6627053875,175.25413891666668,64.0,107.0
854,175.0793708875,175.4543698375,52.0,87.0
855,175.4960363875,175.83862802083334,68.0,89.0
856,173.8293743875,175.84325763750002,40.0,91.0
857,175.4960363875,175.85714648750002,59.0,98.0
858,175.4960363875,175.86293350833333,64.0,104.0
859,175.7738133875,176.03654413333334,52.0,83.0
860,176.0515903875,176.61061660000001,66.0,100.0
861,176.0515903875,176.66501459583333,61.0,114.0
862,176.0515903875,176.71246816666667,58.0,98.0
863,176.6071443875,177.09209673333334,54.0,84.0
864,176.3293673875,177.09556894583335,49.0,82.0
865,176.88492138750001,177.49487338333333,66.0,98.0
866,176.88492138750001,177.49603078750002,58.0,104.0
867,176.88492138750001,177.49834559583334,61.0,114.0
868,177.44047538750002,177.71940979166666,49.0,91.0
869,177.7182523875,177.96593687916666,58.0,104.0
870,177.7182523875,178.00528862083334,66.0,107.0
871,176.0515903875,178.03306632083334,42.0,89.0
872,177.7182523875,178.1626955875,61.0,113.0
873,177.99602938750002,178.27496379166666,49.0,84.0
874,178.2738063875,178.86986953333334,68.0,108.0
875,178.2738063875,178.881443575,63.0,114.0
876,178.2738063875,178.90806387083333,59.0,100.0
877,178.8293603875,179.24834069583335,56.0,88.0
878,179.10713738750002,179.70320053333333,68.0,102.0
879,179.10713738750002,179.71940419166668,59.0,98.0
880,179.10713738750002,179.72634861666668,63.0,110.0
881,179.66269138750002,179.99486638333335,56.0,87.0
882,178.55158338750002,180.05042178333335,51.0,80.0
883,178.2738063875,180.09556054583334,44.0,91.0
884,179.9404683875,180.27264338333333,68.0,107.0
885,179.9404683875,180.3050507,59.0,107.0
886,179.9404683875,180.38259677916668,63.0,113.0
887,180.4960223875,181.14764093333335,64.0,107.0
888,180.4960223875,181.15227055,59.0,93.0
889,180.4960223875,181.1696316125,68.0,91.0
890,181.0515763875,181.97402750833334,52.0,73.0
891,181.3293533875,182.37680415833333,59.0,91.0
892,181.3293533875,182.4161559,68.0,91.0
893,181.3293533875,182.44856321666668,64.0,93.0
894,180.4960223875,182.464766875,40.0,88.0
895,182.1626843875,182.520322275,52.0,71.0
896,182.7182383875,183.409208675,70.0,89.0
897,182.7182383875,183.42078271666668,61.0,94.0
898,182.7182383875,183.42078271666668,66.0,93.0
899,183.5515693875,184.12448445,66.0,90.0
900,183.5515693875,184.1279566625,61.0,88.0
901,183.5515693875,184.12911406666666,70.0,88.0
902,184.1071233875,184.68003845,54.0,75.0
903,184.3849003875,184.74022346666666,70.0,83.0
904,182.7182383875,184.77031597500002,42.0,88.0
905,184.3849003875,184.79114925000002,66.0,83.0
906,184.3849003875,184.80272329166667,61.0,84.0
907,185.4960083875,185.55735080833333,59.0,78.0
908,185.4960083875,185.56429523333333,63.0,81.0
909,184.9404543875,185.9821181375,47.0,90.0
910,185.2182313875,186.16151578333333,54.0,86.0
911,185.7737853875,186.35248747083332,66.0,90.0
912,185.7737853875,186.3779503625,59.0,87.0
913,185.7737853875,186.39646882916668,63.0,92.0
914,186.0515623875,187.11637422083334,46.0,88.0
915,186.8848933875,187.1383649,66.0,82.0
916,186.8848933875,187.18118885416666,59.0,82.0
917,186.8848933875,187.19854991666668,63.0,87.0
918,187.71822438750002,188.117528825,56.0,87.0
919,187.9960013875,188.56775904583333,68.0,96.0
920,187.9960013875,188.57007385416668,63.0,100.0
921,187.9960013875,188.57123125833334,59.0,91.0
922,187.4404473875,188.9057210625,51.0,77.0
923,188.5515553875,189.13720189583333,56.0,82.0
924,187.16267038750001,189.16034997916668,44.0,88.0
925,188.82933238750002,189.443914,59.0,88.0
926,188.82933238750002,189.46243246666668,68.0,91.0
927,188.82933238750002,189.60942279583332,63.0,91.0
928,189.94044038750002,190.44275379583334,52.0,91.0
929,190.2182173875,190.80386389583333,68.0,108.0
930,190.2182173875,190.81775274583333,64.0,114.0
931,190.2182173875,190.82006755416668,59.0,94.0
932,190.7737713875,191.08511310833333,52.0,91.0
933,189.38488638750002,191.3293253875,40.0,92.0
934,189.6626633875,191.3987696375,47.0,86.0
935,191.3293253875,191.54228775416667,52.0,86.0
936,191.0515483875,191.73557425,68.0,107.0
937,191.0515483875,191.9161293,59.0,98.0
938,191.0515483875,191.9994624,64.0,116.0
939,192.1626563875,192.24135987083335,66.0,83.0
940,192.1626563875,192.25409131666666,59.0,82.0
941,192.1626563875,192.25524872083335,63.0,85.0
942,191.8848793875,192.60941439583334,54.0,87.0
943,192.4404333875,192.96242266666667,66.0,113.0
944,192.4404333875,192.964737475,59.0,108.0
945,192.4404333875,192.96705228333335,63.0,116.0
946,192.8570988875,193.40686586666666,54.0,88.0
947,191.6071023875,193.51103224166667,47.0,98.0
948,193.2737643875,194.020290075,66.0,104.0
949,193.2737643875,194.02839190416668,59.0,102.0
950,193.2737643875,194.09552134583333,63.0,114.0
951,194.3848723875,194.80269529166668,54.0,89.0
952,194.6626493875,195.24019406666667,58.0,110.0
953,194.6626493875,195.242508875,66.0,104.0
954,194.6626493875,195.25176810833335,61.0,116.0
955,195.2182033875,195.51102664166666,54.0,108.0
956,193.8293183875,195.81658134166668,42.0,100.0
957,195.7737573875,195.98556235,54.0,89.0
958,194.1070953875,196.01218264583335,49.0,87.0
959,195.4959803875,196.17884884583333,58.0,110.0
960,195.4959803875,196.20778395,66.0,107.0
961,195.4959803875,196.26912637083333,61.0,116.0
962,196.6070883875,197.16611460000001,56.0,107.0
963,196.8848653875,197.46935449166668,68.0,110.0
964,196.8848653875,197.47051189583334,59.0,107.0
965,196.8848653875,197.47398410833333,63.0,113.0
966,197.44041938750001,197.88601999166667,56.0,107.0
967,196.3293113875,197.92421432916666,51.0,91.0
968,196.0515343875,197.95546424166668,44.0,100.0
969,197.7181963875,198.33393540416668,59.0,110.0
970,197.7181963875,198.3431946375,63.0,117.0
971,197.7181963875,198.37328714583333,68.0,108.0
972,198.8293043875,198.89990604166667,64.0,87.0
973,198.8293043875,198.90106344583333,68.0,88.0
974,198.4126388875,199.22282180416667,59.0,84.0
975,199.10708138750002,199.66032057916667,71.0,108.0
976,199.10708138750002,199.66957981250002,68.0,119.0
977,199.10708138750002,199.673052025,64.0,110.0
978,198.2737503875,200.26217074583334,52.0,110.0
979,199.66263538750002,200.27142997916667,59.0,91.0
980,199.9404123875,200.603604975,64.0,104.0
981,199.9404123875,200.62675305833335,68.0,113.0
982,199.9404123875,200.63022527083334,71.0,100.0
983,201.0515203875,201.48438954583335,59.0,88.0
984,201.3292973875,201.9161013,66.0,110.0
985,201.3292973875,201.92188832083335,71.0,104.0
986,201.3292973875,201.92420312916667,63.0,107.0
987,201.8848513875,202.2459614875,59.0,93.0
988,200.7737433875,202.33623901250002,54.0,86.0
989,200.4959663875,202.36170190416667,47.0,107.0
990,202.1626283875,202.79341365833335,71.0,98.0
991,202.1626283875,202.79572846666667,63.0,108.0
992,202.1626283875,202.80267289166667,66.0,114.0
993,203.2737363875,203.6417909125,54.0,100.0
994,203.5515133875,204.089706325,58.0,107.0
995,203.5515133875,204.09202113333333,61.0,114.0
996,203.5515133875,204.11632662083335,66.0,107.0
997,204.1070673875,204.39757583333335,54.0,108.0
998,202.7181823875,204.6626213875,42.0,104.0
999,204.3848443875,204.80382469583333,58.0,104.0
1000,204.3848443875,204.82118575833334,66.0,102.0
1001,204.6626213875,204.85590788333334,54.0,85.0
1002,204.3848443875,204.86979673333335,61.0,113.0
1003,202.9959593875,204.92535213333335,49.0,84.0
1004,204.9403983875,205.66840560833333,68.0,102.0
1005,204.9403983875,205.67072041666668,63.0,104.0
1006,204.9403983875,205.67882224583335,59.0,102.0
1007,205.4959523875,205.96933069166667,51.0,88.0
1008,205.7737293875,206.36979253333334,68.0,107.0
1009,205.7737293875,206.38715359583333,59.0,114.0
1010,205.7737293875,206.40914427500002,63.0,114.0
1011,206.3292833875,206.62442145,51.0,93.0
1012,204.9403983875,206.7494211,44.0,89.0
1013,206.6070603875,207.02835550416668,59.0,110.0
1014,206.8848373875,207.0445591625,44.0,96.0
1015,206.6070603875,207.04571656666667,68.0,100.0
1016,206.6070603875,207.089697925,63.0,114.0
1017,207.1626143875,207.85589948333333,64.0,113.0
1018,207.1626143875,207.867473525,68.0,100.0
1019,207.1626143875,207.88251977916667,59.0,107.0
1020,207.71816838750001,208.2181669875,47.0,87.0
1021,207.9959453875,208.55728640833334,64.0,116.0
1022,207.9959453875,208.56770304583333,59.0,113.0
1023,207.9959453875,208.5723326625,68.0,108.0
1024,208.5514993875,208.91145208333333,47.0,96.0
1025,207.1626143875,209.17071061666667,40.0,108.0
1026,209.1070533875,209.21237716666667,47.0,94.0
1027,208.82927638750002,209.214691975,68.0,108.0
1028,208.82927638750002,209.26908997083333,59.0,110.0
1029,208.82927638750002,209.28876584166667,64.0,117.0
1030,209.6626073875,209.71932019166667,54.0,79.0
1031,209.38483038750002,209.99131017083334,63.0,114.0
1032,209.38483038750002,210.04570816666669,59.0,104.0
1033,209.38483038750002,210.0549674,66.0,110.0
1034,209.94038438750002,210.48089213333333,54.0,98.0
1035,210.2181613875,210.798020875,66.0,108.0
1036,210.2181613875,210.8049653,63.0,117.0
1037,210.2181613875,210.82116895833335,59.0,110.0
1038,209.38483038750002,211.1626031875,47.0,108.0
1039,210.7737153875,211.1626031875,54.0,104.0
1040,211.3292693875,211.4264913375,47.0,104.0
1041,211.0514923875,211.42880614583333,59.0,107.0
1042,211.0514923875,211.43459316666667,66.0,102.0
1043,211.0514923875,211.52371328750002,63.0,116.0
1044,211.6070463875,212.20889655416667,66.0,94.0
1045,211.6070463875,212.22047059583335,58.0,104.0
1046,211.6070463875,212.22394280833333,61.0,114.0
1047,212.1626003875,212.59778435416666,54.0,88.0
1048,212.4403773875,213.01792206666667,66.0,108.0
1049,212.4403773875,213.020236875,58.0,110.0
1050,212.4403773875,213.020236875,61.0,116.0
1051,212.9959313875,213.32347676666666,54.0,94.0
1052,211.6070463875,213.58389270416666,42.0,108.0
1053,213.2737083875,213.59083712916666,58.0,110.0
1054,211.8848233875,213.59546674583333,49.0,87.0
1055,213.2737083875,213.6209296375,66.0,108.0
1056,213.5514853875,213.72046639583334,54.0,80.0
1057,213.2737083875,213.72972562916667,61.0,114.0
1058,213.8292623875,214.41490889583335,68.0,100.0
1059,213.8292623875,214.436899575,63.0,110.0
1060,213.8292623875,214.43805697916667,59.0,100.0
1061,214.3848163875,214.8431484375,56.0,90.0
1062,214.6625933875,215.24476768333335,63.0,117.0
1063,214.6625933875,215.25402691666667,68.0,113.0
1064,214.6625933875,215.25749912916666,59.0,108.0
1065,213.8292623875,215.49823919583335,44.0,93.0
1066,214.1070393875,215.5375909375,51.0,86.0
1067,215.2181473875,215.5445353625,56.0,100.0
1068,215.7737013875,215.89985844166668,44.0,94.0
1069,215.4959243875,215.90796027083334,68.0,107.0
1070,215.4959243875,215.94268239583334,63.0,116.0
1071,215.4959243875,215.9820341375,59.0,110.0
1072,216.0514783875,216.67416182916668,68.0,102.0
1073,216.0514783875,216.68573587083333,64.0,116.0
1074,216.0514783875,216.73434684583333,59.0,110.0
1075,216.6070323875,216.96119806250002,52.0,86.0
1076,216.8848093875,217.48087253333333,64.0,117.0
1077,216.8848093875,217.48202993750002,68.0,108.0
1078,216.8848093875,217.48665955416666,59.0,114.0
1079,217.4403633875,217.70656634583335,52.0,104.0
1080,216.0514783875,218.01327845,40.0,107.0
1081,216.3292553875,218.07346346666668,47.0,82.0
1082,217.7181403875,218.103555975,68.0,107.0
1083,217.7181403875,218.131333675,59.0,110.0
1084,217.7181403875,218.15795397083335,64.0,117.0
1085,217.99591738750001,218.2389722625,52.0,107.0
1086,218.4125828875,218.645221125,54.0,82.0
1087,218.2736943875,218.9160537,63.0,108.0
1088,218.2736943875,218.92994255,66.0,100.0
1089,218.2736943875,218.94498880416668,59.0,96.0
1090,218.8292483875,219.33966362500001,54.0,88.0
1091,219.10702538750002,219.71929219166668,66.0,107.0
1092,219.10702538750002,219.72970882916667,63.0,116.0
1093,219.10702538750002,219.73781065833333,59.0,107.0
1094,219.66257938750002,220.034106125,54.0,100.0
1095,218.2736943875,220.05956901666667,47.0,107.0
1096,220.21813338750002,220.31998495416667,47.0,92.0
1097,219.9403563875,220.33040159166669,59.0,107.0
1098,219.9403563875,220.34660525,66.0,104.0
1099,219.9403563875,220.4403549875,63.0,114.0
1100,220.4959103875,221.10470497916668,61.0,108.0
1101,220.4959103875,221.10933459583333,66.0,91.0
1102,220.4959103875,221.110492,58.0,104.0
1103,221.0514643875,221.4959075875,54.0,85.0
1104,221.32924138750002,221.92183232083335,66.0,96.0
1105,221.32924138750002,221.94845261666669,58.0,108.0
1106,221.32924138750002,221.95308223333333,61.0,114.0
1107,221.8847953875,222.186877875,54.0,88.0
1108,220.4959103875,222.45539564166668,42.0,102.0
1109,222.1625723875,222.45886785416667,66.0,88.0
1110,222.1625723875,222.47622891666668,58.0,88.0
1111,222.1625723875,222.50863623333333,61.0,90.0
1112,220.77368738750002,222.73085783333335,49.0,78.0
1113,223.2736803875,223.32807838333335,63.0,85.0
1114,223.2736803875,223.33502280833335,59.0,78.0
1115,223.2736803875,223.34543944583334,66.0,81.0
1116,223.5514573875,224.50168620833333,59.0,86.0
1117,223.5514573875,224.520204675,66.0,87.0
1118,223.5514573875,224.53177871666668,63.0,94.0
1119,222.7181263875,224.82691677916668,47.0,100.0
1120,222.9959033875,224.94265719583333,54.0,87.0
1121,224.6625653875,224.99011076666667,59.0,85.0
1122,224.6625653875,224.992425575,63.0,86.0
1123,224.6625653875,224.992425575,66.0,86.0
1124,225.4958963875,225.54219255416666,66.0,84.0
1125,225.4958963875,225.54566476666668,59.0,84.0
1126,225.4958963875,225.554924,63.0,88.0
1127,225.2181193875,226.11973723333332,54.0,85.0
1128,225.7736733875,226.42529193333334,66.0,91.0
1129,225.7736733875,226.4472826125,63.0,90.0
1130,225.7736733875,226.45769925000002,59.0,88.0
1131,226.3292273875,226.9056146625,54.0,71.0
1132,224.9403423875,226.92992015000002,47.0,91.0
1133,226.8847813875,227.12667885833335,66.0,82.0
1134,226.8847813875,227.1625583875,59.0,76.0
1135,226.8847813875,227.18802127916666,63.0,80.0
1136,227.4403353875,227.5097796375,63.0,84.0
1137,227.4403353875,227.51209444583333,66.0,83.0
1138,227.4403353875,227.5236684875,59.0,81.0
1139,227.7181123875,227.76325115,66.0,82.0
1140,227.7181123875,227.77482519166668,63.0,87.0
1141,227.7181123875,227.78176961666668,59.0,86.0
1142,227.9958893875,228.90097944583334,66.0,90.0
1143,227.9958893875,228.90445165833333,59.0,87.0
1144,227.9958893875,228.90792387083334,63.0,96.0
1145,228.82922038750002,229.10121036666666,54.0,76.0
1146,227.1625583875,229.11857142916668,47.0,94.0
1147,229.1069973875,229.38593179166668,66.0,88.0
1148,229.1069973875,229.39056140833333,59.0,87.0
1149,229.1069973875,229.39866323750002,63.0,88.0
1150,229.94032838750002,229.999356,63.0,91.0
1151,229.94032838750002,230.00167080833333,59.0,86.0
1152,229.94032838750002,230.00167080833333,66.0,87.0
1153,229.38477438750002,230.47041949583334,47.0,89.0
1154,229.6625513875,230.49125277083334,54.0,85.0
1155,230.2181053875,230.82111295833334,59.0,88.0
1156,230.2181053875,230.84657585,63.0,93.0
1157,230.2181053875,230.8500480625,66.0,91.0
1158,232.1625443875,232.3153217375,59.0,70.0
1159,231.8847673875,232.77249638333333,54.0,78.0
1160,232.4403213875,233.33383740416667,66.0,86.0
1161,232.4403213875,233.339624425,59.0,86.0
1162,232.4403213875,233.339624425,63.0,88.0
1163,231.60699038750002,233.62666065833335,47.0,87.0
1164,233.2736523875,233.881289575,54.0,60.0
1165,233.5514293875,234.16716840416666,66.0,80.0
1166,233.5514293875,234.19147389166667,63.0,78.0
1167,233.5514293875,234.19610350833335,59.0,76.0
1168,234.3847603875,234.44957502083335,63.0,71.0
1169,234.1069833875,234.83730541666668,54.0,77.0
1170,234.6625373875,235.23082283333335,66.0,87.0
1171,234.6625373875,235.2389246625,59.0,87.0
1172,234.6625373875,235.2458690875,63.0,89.0
1173,235.2180913875,235.63128467500002,54.0,75.0
1174,233.8292063875,235.67410862916668,47.0,87.0
1175,235.4958683875,236.089616725,59.0,82.0
1176,235.4958683875,236.0930889375,66.0,84.0
1177,235.4958683875,236.09424634166666,63.0,86.0
1178,236.6069763875,236.7319760375,64.0,80.0
1179,236.3291993875,237.08498430833333,59.0,84.0
1180,236.8847533875,237.5930847375,71.0,85.0
1181,236.8847533875,237.60234397083335,68.0,88.0
1182,236.8847533875,237.6104458,64.0,86.0
1183,237.4403073875,237.91137088333335,59.0,70.0
1184,236.0514223875,238.00049100416666,52.0,91.0
1185,237.9958613875,238.76322035,71.0,74.0
1186,237.9958613875,238.80720170833334,64.0,76.0
1187,237.9958613875,238.8083591125,68.0,80.0
1188,238.8291923875,239.0097474375,64.0,79.0
1189,238.55141538750001,239.2319690375,59.0,84.0
1190,239.10696938750002,239.73543985,71.0,92.0
1191,239.10696938750002,239.7771064,64.0,94.0
1192,239.66252338750002,240.06645744166667,59.0,73.0
1193,238.2736383875,240.08844812083333,52.0,87.0
1194,239.9403003875,240.44377120000001,68.0,88.0
1195,239.9403003875,240.45071562500002,64.0,84.0
1196,239.9403003875,240.4611322625,71.0,83.0
1197,240.77363138750002,241.43103695416667,56.0,70.0
1198,240.4958543875,242.20881255416668,49.0,90.0
1199,241.32918538750002,242.811820125,61.0,85.0
1200,241.32918538750002,242.8152923375,64.0,88.0
1201,241.32918538750002,242.85580148333335,68.0,88.0
1202,243.2736243875,243.49584598750002,61.0,77.0
1203,242.9958473875,244.66366679166669,56.0,84.0
1204,242.7180703875,244.700703725,49.0,88.0
1205,243.5514013875,245.13473028750002,68.0,87.0
1206,243.5514013875,245.14167471250002,61.0,87.0
1207,243.5514013875,245.1486191375,64.0,89.0
1208,246.24468088333333,246.44259699583333,61.0,77.0
1209,246.228477225,246.46343027083333,66.0,81.0
1210,246.74583688750002,246.89398462083335,66.0,81.0
1211,246.81065152083335,246.97847512500002,70.0,76.0
1212,247.35231667083335,247.50162180833334,78.0,78.0
1213,247.3326408,247.50740882916668,70.0,84.0
1214,245.7736173875,248.4958319875,59.0,82.0
1215,245.3569518875,248.5027764125,54.0,69.0
1216,244.9402863875,248.5097208375,47.0,83.0
1217,247.91712990416667,248.5166652625,73.0,81.0
1218,247.93217615833333,248.52245228333334,82.0,80.0
