,start,end,pitch,velocity
0,9.6447407,9.8898065875,62.0,92.0
1,10.0394777,10.2516488375,62.0,90.0
2,10.4342147,10.690793750000001,62.0,93.0
3,10.8289517,10.957241225,62.0,86.0
4,11.0263202,11.6315836,65.0,96.0
5,11.6184257,11.6315836,65.0,112.0
6,12.0131627,12.1184259,65.0,99.0
7,12.2105312,12.7812551125,63.0,102.0
8,12.8026367,13.3865185125,62.0,89.0
9,15.9605327,16.21711175,58.0,100.0
10,16.3552697,16.555927675,58.0,95.0
11,16.7500067,16.9523094125,58.0,93.0
12,17.1447437,17.2516516375,58.0,99.0
13,17.3421122,17.9128361125,60.0,93.0
14,17.9342177,18.1430993625,60.0,90.0
15,18.3289547,18.4621784375,58.0,99.0
16,18.5263232,19.0641523625,60.0,90.0
17,19.1184287,20.4621792375,62.0,99.0
18,22.2763247,22.51974585,62.0,99.0
19,22.6710617,22.9079039,62.0,96.0
20,23.065798700000002,23.299351425,62.0,96.0
21,23.4605357,23.759877925,62.0,93.0
22,23.8552727,24.1595491375,65.0,93.0
23,24.2500097,24.4062597625,65.0,100.0
24,24.6447467,24.7648125375,65.0,99.0
25,25.0394837,25.2220495625,63.0,117.0
26,25.2368522,26.1365236125,62.0,90.0
27,28.592116700000002,28.8306036375,58.0,97.0
28,28.9868537,29.207248525,58.0,97.0
29,29.3815907,29.5838934125,58.0,99.0
30,29.7763277,29.8815909,58.0,100.0
31,29.9736962,30.4983674625,60.0,93.0
32,30.5658017,30.9687623875,60.0,107.0
33,31.1579072,31.3141572625,58.0,97.0
34,31.3552757,31.710539,57.0,92.0
35,31.7500127,33.733566125,58.0,90.0
36,34.9079087,35.0789614,62.0,97.0
37,35.3026457,35.4868563,62.0,89.0
38,35.6973827,35.90133015,62.0,88.0
39,36.0921197,36.3273171625,62.0,97.0
40,36.4868567,36.82238315,65.0,100.0
41,36.8815937,37.1529753875,65.0,122.0
42,37.2763307,37.5773176625,65.0,97.0
43,37.6710677,37.944094125,65.0,107.0
44,38.0658047,38.7023181125,67.0,122.0
45,39.2500157,39.4391605125,65.0,100.0
46,39.4473842,40.3174503375,62.0,92.0
47,41.2237007,41.483569225000004,63.0,117.0
48,41.6184377,41.88817465,63.0,99.0
49,42.0131747,42.292780075,63.0,112.0
50,42.4079117,42.7187670875,63.0,102.0
51,42.8026487,43.0789646,65.0,99.0
52,43.1973857,43.536201625000004,65.0,99.0
53,43.7894912,44.0000176,60.0,93.0
54,43.986859700000004,44.345412475,58.0,88.0
55,44.3815967,45.6102156125,60.0,86.0
56,47.539492700000004,47.79607175,62.0,96.0
57,47.9342297,48.202321912500004,62.0,95.0
58,48.3289667,48.5839010125,62.0,96.0
59,48.7237037,49.0131775,62.0,95.0
60,49.1184407,49.3964013375,65.0,97.0
61,49.5131777,49.7516646375,65.0,90.0
62,49.9079147,50.1036384625,65.0,96.0
63,50.3026517,50.6184413,65.0,97.0
64,50.6973887,51.26975735,67.0,102.0
65,52.0789682,52.266468275,65.0,77.0
66,52.2763367,52.7352184625,62.0,99.0
67,53.8552847,54.1102190125,58.0,107.0
68,54.2500217,54.460548100000004,58.0,93.0
69,54.644758700000004,54.8964035375,58.0,97.0
70,55.0394957,55.3141668625,58.0,102.0
71,55.4342327,55.8026539,60.0,97.0
72,55.8289697,56.2319303875,60.0,95.0
73,56.421075200000004,56.615154225,58.0,89.0
74,56.6184437,56.963838575000004,57.0,79.0
75,57.0131807,58.4292996875,58.0,93.0
76,58.9868657,59.3158132,58.0,95.0
77,59.3816027,59.746734425,62.0,99.0
78,59.7763397,60.213839875,65.0,100.0
79,60.1710767,61.115156025,67.0,100.0
80,60.9605507,61.115156025,67.0,93.0
81,61.3552877,61.6398272875,67.0,99.0
82,61.7500247,62.1990380375,67.0,99.0
83,62.5394987,62.911209375,67.0,107.0
84,62.9342357,63.2944332125,62.0,86.0
85,63.3289727,63.792788675000004,65.0,92.0
86,64.1184467,64.384894175,62.0,102.0
87,64.5131837,64.6727232375,60.0,76.0
88,64.7105522,65.28292085,58.0,82.0
89,65.6973947,65.9589079625,58.0,107.0
90,66.0921317,66.2154870125,58.0,102.0
91,66.2895002,66.740158275,60.0,99.0
92,67.2763427,67.48029015,60.0,93.0
93,67.6710797,67.7812771125,60.0,78.0
94,67.8684482,68.48029055,62.0,90.0
95,68.4605537,68.990159175,60.0,88.0
96,69.2500277,69.838843725,60.0,100.0
97,70.0395017,71.3964101375,60.0,99.0
98,71.6184497,71.9391735125,58.0,96.0
99,72.0131867,72.430950025,62.0,97.0
100,72.4079237,72.74345015,65.0,95.0
101,72.8026607,73.3174635375,67.0,97.0
102,73.5921347,73.8700953375,67.0,102.0
103,73.9868717,74.2220691625,67.0,93.0
104,74.3816087,74.9523326125,67.0,117.0
105,75.1710827,75.470424925,67.0,100.0
106,75.5658197,75.9556224875,62.0,96.0
107,75.9605567,76.4720700625,65.0,92.0
108,76.7500307,77.0806229375,62.0,107.0
109,77.1447677,77.292794075,60.0,83.0
110,77.3421362,78.029636475,58.0,95.0
111,78.32897870000001,78.602005125,58.0,97.0
112,78.7237157,78.84871575,58.0,96.0
113,78.9210842,79.5115449625,60.0,92.0
114,79.9079267,80.1135188875,60.0,93.0
115,80.3026637,80.437532175,60.0,85.0
116,80.5000322,81.04608505,62.0,85.0
117,81.0921377,81.2911509375,60.0,90.0
118,81.6842432,81.8684538,62.0,81.0
119,81.88161170000001,82.26812501250001,60.0,88.0
120,82.6710857,84.720428625,58.0,93.0
121,110.6974127,110.9424785875,62.0,92.0
122,111.09214970000001,111.3043208375,62.0,90.0
123,111.4868867,111.74346575,62.0,93.0
124,111.8816237,112.009913225,62.0,86.0
125,112.0789922,112.6842556,65.0,96.0
126,112.6710977,112.6842556,65.0,112.0
127,113.0658347,113.1710979,65.0,99.0
128,113.2632032,113.8339271125,63.0,102.0
129,113.8553087,114.4391905125,62.0,89.0
130,117.0132047,117.26978375,58.0,100.0
131,117.4079417,117.60859967500001,58.0,95.0
132,117.8026787,118.0049814125,58.0,93.0
133,118.19741570000001,118.3043236375,58.0,99.0
134,118.3947842,118.9655081125,60.0,93.0
135,118.9868897,119.1957713625,60.0,90.0
136,119.3816267,119.5148504375,58.0,99.0
137,119.57899520000001,120.1168243625,60.0,90.0
138,120.1711007,121.5148512375,62.0,99.0
139,123.3289967,123.57241785000001,62.0,99.0
140,123.7237337,123.9605759,62.0,96.0
141,124.1184707,124.352023425,62.0,96.0
142,124.5132077,124.812549925,62.0,93.0
143,124.9079447,125.2122211375,65.0,93.0
144,125.30268170000001,125.4589317625,65.0,100.0
145,125.6974187,125.81748453750001,65.0,99.0
146,126.0921557,126.2747215625,63.0,117.0
147,126.2895242,127.1891956125,62.0,90.0
148,129.6447887,129.8832756375,58.0,97.0
149,130.0395257,130.259920525,58.0,97.0
150,130.4342627,130.6365654125,58.0,99.0
151,130.8289997,130.9342629,58.0,100.0
152,131.0263682,131.5510394625,60.0,93.0
153,131.6184737,132.0214343875,60.0,107.0
154,132.2105792,132.3668292625,58.0,97.0
155,132.4079477,132.763211,57.0,92.0
156,132.80268470000001,134.786238125,58.0,90.0
157,135.9605807,136.1316334,62.0,97.0
158,136.3553177,136.5395283,62.0,89.0
159,136.7500547,136.95400215,62.0,88.0
160,137.1447917,137.3799891625,62.0,97.0
161,137.5395287,137.87505515,65.0,100.0
162,137.9342657,138.2056473875,65.0,122.0
163,138.3290027,138.6299896625,65.0,97.0
164,138.7237397,138.996766125,65.0,107.0
165,139.1184767,139.7549901125,67.0,122.0
166,140.3026877,140.4918325125,65.0,100.0
167,140.5000562,141.3701223375,62.0,92.0
168,142.2763727,142.536241225,63.0,117.0
169,142.6711097,142.94084665,63.0,99.0
170,143.0658467,143.345452075,63.0,112.0
171,143.4605837,143.7714390875,63.0,102.0
172,143.8553207,144.1316366,65.0,99.0
173,144.2500577,144.588873625,65.0,99.0
174,144.84216320000002,145.0526896,60.0,93.0
175,145.0395317,145.398084475,58.0,88.0
176,145.4342687,146.66288761250001,60.0,86.0
177,148.5921647,148.84874375,62.0,96.0
178,148.9869017,149.2549939125,62.0,95.0
179,149.3816387,149.6365730125,62.0,96.0
180,149.7763757,150.0658495,62.0,95.0
181,150.1711127,150.4490733375,65.0,97.0
182,150.5658497,150.8043366375,65.0,90.0
183,150.9605867,151.1563104625,65.0,96.0
184,151.3553237,151.6711133,65.0,97.0
185,151.7500607,152.32242935,67.0,102.0
186,153.1316402,153.319140275,65.0,77.0
187,153.3290087,153.7878904625,62.0,99.0
188,154.9079567,155.1628910125,58.0,107.0
189,155.3026937,155.5132201,58.0,93.0
190,155.6974307,155.9490755375,58.0,97.0
191,156.0921677,156.3668388625,58.0,102.0
192,156.4869047,156.8553259,60.0,97.0
193,156.8816417,157.2846023875,60.0,95.0
194,157.4737472,157.667826225,58.0,89.0
195,157.6711157,158.016510575,57.0,79.0
196,158.0658527,159.4819716875,58.0,93.0
197,160.0395377,160.3684852,58.0,95.0
198,160.4342747,160.799406425,62.0,99.0
199,160.8290117,161.266511875,65.0,100.0
200,161.22374870000002,162.167828025,67.0,100.0
201,162.0132227,162.167828025,67.0,93.0
202,162.4079597,162.6924992875,67.0,99.0
203,162.8026967,163.2517100375,67.0,99.0
204,163.5921707,163.963881375,67.0,107.0
205,163.9869077,164.3471052125,62.0,86.0
206,164.3816447,164.845460675,65.0,92.0
207,165.1711187,165.437566175,62.0,102.0
208,165.56585570000001,165.7253952375,60.0,76.0
209,165.7632242,166.33559285,58.0,82.0
210,166.7500667,167.0115799625,58.0,107.0
211,167.1448037,167.2681590125,58.0,102.0
212,167.3421722,167.792830275,60.0,99.0
213,168.32901470000002,168.53296215,60.0,93.0
214,168.7237517,168.8339491125,60.0,78.0
215,168.9211202,169.53296255,62.0,90.0
216,169.5132257,170.042831175,60.0,88.0
217,170.3026997,170.891515725,60.0,100.0
218,171.0921737,172.4490821375,60.0,99.0
219,172.67112170000001,172.9918455125,58.0,96.0
220,173.0658587,173.483622025,62.0,97.0
221,173.4605957,173.79612215,65.0,95.0
222,173.8553327,174.3701355375,67.0,97.0
223,174.6448067,174.9227673375,67.0,102.0
224,175.0395437,175.2747411625,67.0,93.0
225,175.4342807,176.0050046125,67.0,117.0
226,176.2237547,176.523096925,67.0,100.0
227,176.6184917,177.0082944875,62.0,96.0
228,177.0132287,177.5247420625,65.0,92.0
229,177.8027027,178.1332949375,62.0,107.0
230,178.1974397,178.345466075,60.0,83.0
231,178.3948082,179.082308475,58.0,95.0
232,179.3816507,179.654677125,58.0,97.0
233,179.77638770000002,179.90138775,58.0,96.0
234,179.9737562,180.5642169625,60.0,92.0
235,180.9605987,181.1661908875,60.0,93.0
236,181.3553357,181.490204175,60.0,85.0
237,181.5527042,182.09875705,62.0,85.0
238,182.1448097,182.3438229375,60.0,90.0
239,182.7369152,182.9211258,62.0,81.0
240,182.9342837,183.3207970125,60.0,88.0
241,183.7237577,184.9079687,58.0,93.0
242,185.3027057,185.6316532,58.0,95.0
243,185.6974427,186.062574425,62.0,99.0
244,186.0921797,186.529679875,65.0,100.0
245,186.4869167,187.430996025,67.0,100.0
246,187.2763907,187.430996025,67.0,93.0
247,187.6711277,187.9556672875,67.0,99.0
248,188.0658647,188.5148780375,67.0,99.0
249,188.8553387,189.227049375,67.0,107.0
250,189.2500757,189.6102732125,62.0,86.0
251,189.6448127,190.108628675,65.0,92.0
252,190.4342867,190.700734175,62.0,102.0
253,190.8290237,190.9885632375,60.0,76.0
254,191.0263922,191.59876085,58.0,82.0
255,192.0132347,192.27474796250002,58.0,107.0
256,192.4079717,192.53132701250001,58.0,102.0
257,192.6053402,193.055998275,60.0,99.0
258,193.5921827,193.79613015,60.0,93.0
259,193.98691970000002,194.0971171125,60.0,78.0
260,194.1842882,194.79613055000002,62.0,90.0
261,194.7763937,195.305999175,60.0,88.0
262,195.5658677,196.154683725,60.0,100.0
263,196.3553417,197.7122501375,60.0,99.0
264,197.9342897,198.2550135125,58.0,96.0
265,198.32902670000001,198.746790025,62.0,97.0
266,198.7237637,199.05929015,65.0,95.0
267,199.1185007,199.6333035375,67.0,97.0
268,199.9079747,200.1859353375,67.0,102.0
269,200.3027117,200.5379091625,67.0,93.0
270,200.6974487,201.2681726125,67.0,117.0
271,201.4869227,201.786264925,67.0,100.0
272,201.8816597,202.2714624875,62.0,96.0
273,202.2763967,202.7879100625,65.0,92.0
274,203.0658707,203.3964629375,62.0,107.0
275,203.4606077,203.608634075,60.0,83.0
276,203.6579762,204.345476475,58.0,95.0
277,204.6448187,204.917845125,58.0,97.0
278,205.0395557,205.16455575,58.0,96.0
279,205.2369242,205.8273849625,60.0,92.0
280,206.2237667,206.4293588875,60.0,93.0
281,206.6185037,206.753372175,60.0,85.0
282,206.8158722,207.36192505,62.0,85.0
283,207.4079777,207.6069909375,60.0,90.0
284,208.0000832,208.1842938,62.0,81.0
285,208.19745170000002,208.58396501250002,60.0,88.0
286,208.9869257,210.1711367,58.0,93.0
287,210.5658737,210.8948212,58.0,95.0
288,210.9606107,211.32574242500002,62.0,99.0
289,211.3553477,211.792847875,65.0,100.0
290,211.7500847,212.694164025,67.0,100.0
291,212.53955870000001,212.694164025,67.0,93.0
292,212.9342957,213.2188352875,67.0,99.0
293,213.3290327,213.7780460375,67.0,99.0
294,214.1185067,214.49021737500001,67.0,107.0
295,214.5132437,214.8734412125,62.0,86.0
296,214.9079807,215.371796675,65.0,92.0
297,215.6974547,215.96390217500002,62.0,102.0
298,216.0921917,216.2517312375,60.0,76.0
299,216.2895602,216.86192885,58.0,82.0
300,217.2764027,217.5379159625,58.0,107.0
301,217.6711397,217.7944950125,58.0,102.0
302,217.8685082,218.31916627500001,60.0,99.0
303,218.8553507,219.05929815,60.0,93.0
304,219.2500877,219.3602851125,60.0,78.0
305,219.4474562,220.05929855,62.0,90.0
306,220.0395617,220.569167175,60.0,88.0
307,220.8290357,221.417851725,60.0,100.0
308,221.6185097,222.97541813750001,60.0,99.0
309,223.1974577,223.5181815125,58.0,96.0
310,223.5921947,224.009958025,62.0,97.0
311,223.9869317,224.32245815,65.0,95.0
312,224.3816687,224.8964715375,67.0,97.0
313,225.1711427,225.4491033375,67.0,102.0
314,225.5658797,225.8010771625,67.0,93.0
315,225.9606167,226.5313406125,67.0,117.0
316,226.75009070000002,227.049432925,67.0,100.0
317,227.1448277,227.5346304875,62.0,96.0
318,227.5395647,228.0510780625,65.0,92.0
319,228.3290387,228.6596309375,62.0,107.0
320,228.7237757,228.871802075,60.0,83.0
321,228.92114420000001,229.608644475,58.0,95.0
322,229.9079867,230.181013125,58.0,97.0
323,230.3027237,230.42772375,58.0,96.0
324,230.5000922,231.0905529625,60.0,92.0
325,231.4869347,231.6925268875,60.0,93.0
326,231.8816717,232.016540175,60.0,85.0
327,232.0790402,232.62509305,62.0,85.0
328,232.6711457,232.8701589375,60.0,90.0
329,234.6662122875,234.963909775,62.0,97.0
330,235.0527256,235.3767388875,60.0,81.0
331,235.4227915375,238.556016475,58.0,89.0
