,start,end,pitch,velocity
0,0.46710545000000003,0.7549345125,51.0,45.0
1,0.5657897000000001,1.07236885,55.0,50.0
2,0.86184245,1.1069083375,51.0,58.0
3,0.1710527,1.312500525,39.0,53.0
4,1.3552637,1.6825664625,58.0,59.0
5,1.5526322000000001,1.7154612125,55.0,41.0
6,0.9605267,1.726974375,63.0,73.0
7,2.04605345,2.233553525,50.0,62.0
8,2.1447377,2.621711575,57.0,60.0
9,2.3421062,2.8009879625,50.0,56.0
10,1.7500007,2.94079065,38.0,63.0
11,2.9342117,3.2976986875,62.0,62.0
12,3.1315802,3.3174355375,57.0,56.0
13,2.5394747,3.32236975,65.0,75.0
14,3.62500145,3.9013173500000002,48.0,31.0
15,3.9210542,4.17763325,48.0,66.0
16,3.7236857,4.2220411625,55.0,49.0
17,3.23026445,4.4473702,36.0,60.0
18,4.41447545,4.549343925,48.0,59.0
19,4.5131597,4.83552825,60.0,64.0
20,4.1184227,4.911186175,63.0,71.0
21,5.20394945,5.3865153125,53.0,53.0
22,5.3026337,5.5838838125,58.0,56.0
23,5.5000022,5.7088838625000005,53.0,40.0
24,4.9078967,6.292765675,46.0,62.0
25,6.0921077,6.4523052125,53.0,57.0
26,6.2894762,6.4983578625,58.0,56.0
27,5.6973707000000005,6.5000026,62.0,73.0
28,6.78289745,6.9325685625,53.0,53.0
29,6.8815817,7.1694107625,58.0,58.0
30,7.0789502,7.279608175,53.0,41.0
31,6.4868447,7.911187375,46.0,56.0
32,7.6710557,8.0049374125,53.0,43.0
33,7.2763187,8.036187425,62.0,70.0
34,7.8684242,8.0477005875,58.0,38.0
35,8.36184545,8.6003323875,46.0,37.0
36,8.75658245,8.96710885,46.0,53.0
37,8.4605297,8.9753325375,53.0,52.0
38,8.0657927,9.509872225,34.0,82.0
39,9.15131945,9.6842144,46.0,41.0
40,9.2500037,9.76974075,53.0,55.0
41,8.8552667,9.8815829,62.0,74.0
42,9.54605645,9.9210566,58.0,50.0
43,10.0394777,10.5148068375,53.0,57.0
44,10.33553045,10.5394779,58.0,60.0
45,9.6447407,11.077307062500001,34.0,79.0
46,9.94079345,11.23026765,46.0,61.0
47,10.8289517,11.23026765,53.0,54.0
48,10.4342147,11.240136075,62.0,85.0
49,11.12500445,11.3289519,58.0,53.0
50,11.6184257,11.83553105,53.0,62.0
51,11.51974145,11.861846850000001,46.0,43.0
52,11.91447845,12.0805969375,46.0,59.0
53,11.2236887,12.3602023125,34.0,74.0
54,12.30921545,12.430926025,46.0,52.0
55,12.6052682,12.7582287875,53.0,48.0
56,12.4078997,12.759873525,58.0,73.0
57,12.0131627,12.7944130125,62.0,82.0
58,13.09868945,13.332242175,50.0,58.0
59,13.1973737,13.649676512500001,55.0,68.0
60,12.8026367,14.200663575,43.0,63.0
61,13.49342645,14.284545187500001,50.0,45.0
62,14.1842162,14.388163650000001,55.0,40.0
63,13.9868477,14.4062557625,58.0,59.0
64,13.592110700000001,14.422703137500001,62.0,83.0
65,14.67763745,14.8815849,50.0,52.0
66,14.7763217,15.1365192125,55.0,60.0
67,15.07237445,15.305927175,50.0,52.0
68,14.3815847,15.5279667375,43.0,58.0
69,15.1710587,15.8371773875,62.0,79.0
70,15.5657957,15.8470458125,58.0,55.0
71,15.7631642,15.95395375,55.0,48.0
72,16.1579012,16.3815855,51.0,35.0
73,16.3552697,16.7319145875,55.0,64.0
74,16.65132245,17.1200726375,51.0,42.0
75,15.9605327,17.1365200125,39.0,75.0
76,17.1447437,17.404612225,58.0,57.0
77,16.7500067,17.4342175,63.0,88.0
78,17.3421122,17.557572812500002,55.0,50.0
79,17.83553345,18.0378361625,48.0,52.0
80,17.9342177,18.3815863,53.0,43.0
81,18.23027045,18.491783712500002,48.0,48.0
82,17.5394807,18.5279679375,41.0,53.0
83,18.7236917,18.9786260125,57.0,63.0
84,18.3289547,19.029612875,60.0,79.0
85,18.9210602,19.1102050125,53.0,39.0
86,19.41448145,19.5707315125,46.0,36.0
87,19.513165700000002,19.88816585,53.0,58.0
88,19.1184287,20.53290295,34.0,68.0
89,19.80921845,20.648034575,46.0,56.0
90,20.3026397,20.73027145,53.0,39.0
91,20.5000082,20.733560925,58.0,38.0
92,19.9079027,20.8421136,62.0,70.0
93,21.289482200000002,21.509877025,53.0,41.0
94,21.0921137,21.6266533875,46.0,40.0
95,20.6973767,21.96711405,34.0,47.0
96,21.78290345,22.180929925,46.0,27.0
97,21.8815877,22.2483641625,53.0,58.0
98,22.0789562,22.269745750000002,58.0,56.0
99,21.4868507,22.273035225,62.0,82.0
100,22.57237745,22.8273117625,46.0,52.0
101,22.6710617,23.1184303,53.0,50.0
102,22.96711445,23.16448295,46.0,45.0
103,22.2763247,23.498364662500002,34.0,72.0
104,23.36185145,23.552641,46.0,67.0
105,23.4605357,23.7516542375,53.0,63.0
106,23.6579042,23.8240226875,58.0,45.0
107,23.065798700000002,23.865141125,62.0,82.0
108,24.15132545,24.317443937500002,57.0,52.0
109,24.2500097,24.5312598125,62.0,56.0
110,24.54606245,24.74343095,57.0,55.0
111,23.8552727,25.090470562500002,45.0,55.0
112,25.0394837,25.34869435,62.0,67.0
113,24.6447467,25.3602075125,65.0,73.0
114,25.2368522,25.4210628,57.0,49.0
115,25.73027345,25.970405125,50.0,52.0
116,25.8289577,26.2352078625,55.0,69.0
117,25.4342207,26.797708087500002,43.0,63.0
118,26.12501045,26.871721275,50.0,34.0
119,26.8158002,27.062510825,55.0,44.0
120,26.6184317,27.11185295,58.0,52.0
121,26.2236947,27.1184319,62.0,75.0
122,27.30922145,27.529616275,50.0,36.0
123,27.4079057,27.7154716125,55.0,60.0
124,27.703958450000002,28.108563875,50.0,31.0
125,27.0131687,28.1266559875,43.0,40.0
126,27.8026427,28.2911297375,58.0,73.0
127,27.8026427,28.458892962500002,62.0,81.0
128,28.1973797,28.527971937500002,55.0,66.0
129,28.3947482,28.6184325,58.0,60.0
130,28.88816945,29.0904721625,51.0,46.0
131,28.9868537,29.3996828125,55.0,59.0
132,29.28290645,29.6167881625,51.0,53.0
133,28.592116700000002,29.6299460625,39.0,40.0
134,29.3815907,29.86185405,58.0,70.0
135,29.3815907,30.1365252125,63.0,85.0
136,29.9736962,30.154617325,58.0,65.0
137,29.7763277,30.2023147125,55.0,59.0
138,30.46711745,30.674354375,48.0,56.0
139,30.5658017,30.930933425,53.0,58.0
140,30.7631702,31.167775625,48.0,48.0
141,30.1710647,31.266459875,41.0,61.0
142,30.9605387,31.435867837500002,57.0,69.0
143,30.9605387,31.6858679375,60.0,78.0
144,31.5526442,31.6973811,57.0,57.0
145,31.3552757,31.7483679625,53.0,56.0
146,32.04606545,32.2286313125,53.0,59.0
147,31.7500127,32.289486600000004,46.0,48.0
148,32.1447497,32.41448665,58.0,48.0
149,32.5394867,33.026329,58.0,66.0
150,32.44080245,33.0542895375,46.0,60.0
151,32.9342237,33.36185545,53.0,67.0
152,33.1315922,33.3815923,58.0,62.0
153,32.5394867,33.4062633625,62.0,86.0
154,33.3289607,33.582250275,46.0,67.0
155,33.62501345,33.845408275,46.0,56.0
156,33.7236977,34.0263294,58.0,69.0
157,34.1184347,34.61185595,58.0,90.0
158,34.019750450000004,34.726987575,46.0,58.0
159,34.1184347,34.8865271125,62.0,92.0
160,34.7105402,34.924356075,58.0,64.0
161,34.5131717,34.92764555,53.0,79.0
162,35.20396145,35.378303625,53.0,68.0
163,35.3026457,35.6266589875,58.0,69.0
164,35.59869845,35.825672225,53.0,59.0
165,35.6973827,36.154619725,58.0,69.0
166,36.0921197,36.4227119375,53.0,78.0
167,34.9079087,36.450672475,46.0,76.0
168,36.2894882,36.4654751125,58.0,70.0
169,35.6973827,36.4720540625,62.0,89.0
170,36.78290945,37.00659375,57.0,62.0
171,36.8815937,37.174356975,62.0,66.0
172,37.17764645,37.3306070375,57.0,67.0
173,37.2763307,37.71712035,62.0,76.0
174,36.4868567,37.799357225,45.0,61.0
175,37.8684362,38.0477125875,62.0,69.0
176,37.2763307,38.075673125,65.0,76.0
177,37.6710677,38.1036336625,57.0,79.0
178,38.36185745,38.569094375,50.0,53.0
179,38.4605417,38.8733708125,55.0,76.0
180,38.8552787,39.299357825,58.0,96.0
181,38.0658047,39.49343685,43.0,63.0
182,38.6579102,39.55922635,50.0,52.0
183,38.8552787,39.6463974375,62.0,90.0
184,39.2500157,39.65133165,55.0,76.0
185,39.4473842,39.6924500875,58.0,63.0
186,39.94080545,40.1135028875,50.0,55.0
187,40.0394897,40.4128451125,55.0,76.0
188,40.33554245,40.6792925875,50.0,40.0
189,39.6447527,40.7319241875,43.0,56.0
190,40.4342267,40.8700821375,58.0,79.0
191,40.4342267,40.9161347875,62.0,81.0
192,40.8289637,41.167779625,55.0,58.0
193,41.0263322,41.2385033375,58.0,50.0
194,41.51975345,41.7088982625,51.0,52.0
195,41.6184377,42.0279773375,55.0,56.0
196,41.91449045,42.210543200000004,51.0,56.0
197,41.2237007,42.2286353125,39.0,61.0
198,42.0131747,42.490148575,58.0,73.0
199,42.0131747,42.7549513125,63.0,97.0
200,42.4079117,42.7713986875,55.0,63.0
201,42.6052802,42.7763329,58.0,78.0
202,43.09870145,43.30922785,48.0,57.0
203,43.1973857,43.5674516375,53.0,56.0
204,43.5921227,44.05922815,57.0,66.0
205,42.8026487,44.2023203125,41.0,66.0
206,43.986859700000004,44.29607035,53.0,55.0
207,43.49343845,44.34870195,48.0,54.0
208,44.1842282,44.373373012500004,57.0,58.0
209,43.5921227,44.401333550000004,60.0,72.0
210,44.67764945,44.8569258375,48.0,55.0
211,44.7763337,45.1595575375,53.0,63.0
212,45.1710707,45.6299524625,57.0,73.0
213,44.3815967,45.7763341,41.0,57.0
214,45.07238645,45.94080785,48.0,41.0
215,45.5658077,45.9556104875,53.0,52.0
216,45.763176200000004,46.0345578875,57.0,63.0
217,45.1710707,46.05265,60.0,83.0
218,46.25659745,46.4819264875,48.0,61.0
219,46.3552817,46.7352160625,53.0,69.0
220,46.65133445,46.8700845375,48.0,58.0
221,46.9473872,47.154624125,48.0,95.0
222,45.9605447,47.194097825,41.0,61.0
223,46.7500187,47.220413625,57.0,83.0
224,46.7500187,47.4457426625,60.0,93.0
225,47.1447557,47.463834775,53.0,82.0
226,47.3421242,47.4654795125,57.0,50.0
227,47.83554545,48.01975605,53.0,65.0
228,47.9342297,48.240150875,58.0,64.0
229,48.23028245,48.404624625000004,53.0,48.0
230,48.3289667,48.792782675,58.0,64.0
231,47.539492700000004,48.9490327375,46.0,81.0
232,48.7237037,49.021401187500004,53.0,65.0
233,48.9210722,49.0970591125,58.0,64.0
234,48.3289667,49.09870385,62.0,75.0
235,49.315809200000004,49.5279803375,57.0,63.0
236,49.5131777,49.7911383375,62.0,63.0
237,49.80923045,49.944098925,57.0,63.0
238,49.9079147,50.34870435,62.0,71.0
239,49.1184407,50.4720596625,45.0,85.0
240,49.9079147,50.6464018375,65.0,69.0
241,50.5000202,50.654625525,62.0,57.0
242,50.3026517,50.6858755375,57.0,76.0
243,50.99344145,51.1990336375,50.0,50.0
244,51.092125700000004,51.4950863875,55.0,72.0
245,51.4868627,51.9391655125,58.0,74.0
246,50.6973887,52.1447577,43.0,57.0
247,51.8815997,52.220415625,55.0,66.0
248,51.38817845,52.2253498375,50.0,50.0
249,52.0789682,52.332257775,58.0,65.0
250,51.4868627,52.343770937500004,62.0,74.0
251,52.57238945,52.7812711125,50.0,53.0
252,52.6710737,53.0773238625,55.0,67.0
253,52.96712645,53.200679175,50.0,51.0
254,52.2763367,53.32238975,43.0,50.0
255,53.0658107,53.496731925,58.0,73.0
256,53.0658107,53.6973899,62.0,88.0
257,53.4605477,53.8733768125,55.0,68.0
258,53.6579162,53.891468925,58.0,63.0
259,54.15133745,54.305942775,51.0,45.0
260,54.2500217,54.6069297375,55.0,70.0
261,54.54607445,54.8766666875,51.0,43.0
262,53.8552847,55.000022,39.0,70.0
263,54.644758700000004,55.1003509875,58.0,62.0
264,54.644758700000004,55.4029826875,63.0,92.0
265,55.2368642,55.4260090125,58.0,65.0
266,55.0394957,55.44081165,55.0,69.0
267,55.730285450000004,55.957259225,48.0,59.0
268,55.8289697,56.2121935375,53.0,58.0
269,56.12502245,56.4128515125,48.0,61.0
270,55.4342327,56.430943625,41.0,58.0
271,56.2237067,56.6464042375,57.0,75.0
272,56.2237067,56.9621938375,60.0,82.0
273,56.8158122,56.96712805,57.0,61.0
274,56.6184437,56.9917991125,53.0,56.0
275,57.30923345,57.4654835125,53.0,46.0
276,57.0131807,57.5477203875,46.0,41.0
277,57.4079177,57.6792993875,58.0,48.0
278,57.70397045,57.8042994375,53.0,34.0
279,57.8026547,58.2681154125,58.0,68.0
280,57.70397045,58.4523260125,46.0,50.0
281,58.1973917,58.63818135,53.0,68.0
282,57.8026547,58.69081295,62.0,81.0
283,58.3947602,58.700681375,58.0,64.0
284,58.5921287,58.7944314125,46.0,90.0
285,58.88818145,59.0411420375,46.0,68.0
286,58.9868657,59.161207875,58.0,95.0
287,58.9868657,59.162852612500004,62.0,99.0
288,59.7763397,60.0526556,58.0,127.0
289,59.9737082,60.062524025,53.0,90.0
290,59.7763397,60.075681925,62.0,122.0
291,60.5658137,60.9605507,55.0,88.0
292,60.9605507,61.4128535125,58.0,127.0
293,60.9605507,61.424366675,62.0,102.0
294,60.1710767,61.6135114875,43.0,79.0
295,61.3552877,61.6266693875,55.0,92.0
296,60.46712945,61.63818255,50.0,69.0
297,61.5526562,61.667787825,62.0,96.0
298,61.5526562,61.67765625,58.0,102.0
299,62.04607745,62.25660385,50.0,64.0
300,62.144761700000004,62.555946075,55.0,89.0
301,62.44081445,62.927656750000004,50.0,71.0
302,61.7500247,62.9654857125,43.0,73.0
303,62.5394987,63.003314675,58.0,102.0
304,62.5394987,63.273051625,62.0,96.0
305,62.9342357,63.2763411,55.0,95.0
306,63.1316042,63.299367425,58.0,96.0
307,63.62502545,63.8043018375,48.0,64.0
308,63.7237097,64.1052888,53.0,92.0
309,64.01976245,64.1990388375,48.0,85.0
310,63.3289727,64.226999375,41.0,72.0
311,64.1184467,64.6003547875,57.0,96.0
312,64.5131837,64.81910487500001,53.0,90.0
313,64.1184467,64.845420675,60.0,99.0
314,64.80923645,64.9358812375,57.0,75.0
315,64.9079207,65.07239445,46.0,77.0
316,65.20397345,65.394763,46.0,59.0
317,65.3026577,65.76976315,53.0,85.0
318,65.50002620000001,65.9868685,46.0,65.0
319,65.6973947,66.2089080625,58.0,99.0
320,65.6973947,66.4342371,62.0,93.0
321,66.0921317,66.4654871125,53.0,88.0
322,66.2895002,66.48028975,58.0,90.0
323,66.78292145,67.0016715375,48.0,55.0
324,66.8816057,67.332263775,55.0,77.0
325,67.17765845,67.4358822375,48.0,70.0
326,66.4868687,67.6579218,36.0,61.0
327,67.2763427,67.7220665625,60.0,95.0
328,67.57239545,67.9161455875,48.0,65.0
329,67.8684482,68.0773298625,60.0,82.0
330,67.2763427,68.09871145,63.0,99.0
331,67.6710797,68.154632525,55.0,86.0
332,68.36186945,68.5806195375,48.0,60.0
333,68.4605537,68.8404880625,53.0,77.0
334,68.75660645,69.00660655,48.0,51.0
335,68.8552907,69.3207514125,57.0,97.0
336,68.0658167,69.4852251625,41.0,66.0
337,69.2500277,69.5526594,53.0,77.0
338,69.15134345,69.6168041625,48.0,61.0
339,69.4473962,69.6299620625,57.0,95.0
340,68.8552907,69.661212075,60.0,102.0
341,69.94081745,70.121738575,48.0,63.0
342,70.0395017,70.3964097375,53.0,90.0
343,70.33555445,70.588844025,48.0,73.0
344,70.4342387,70.8684494,57.0,99.0
345,70.4342387,70.8947652,60.0,102.0
346,69.6447647,71.11187055,41.0,67.0
347,70.6316072,71.115160025,48.0,75.0
348,70.8289757,71.1299626625,53.0,82.0
349,71.0263442,71.2812785125,57.0,92.0
350,71.0263442,71.3306206375,60.0,95.0
351,71.51976545,71.77634450000001,48.0,63.0
352,71.6184497,72.003318275,53.0,122.0
353,71.91450245,72.134897275,48.0,93.0
354,71.22371270000001,72.4737132,41.0,85.0
355,72.0131867,72.5378579625,55.0,127.0
356,72.4079237,72.746739625,57.0,117.0
357,72.2105552,72.7845685875,48.0,117.0
358,73.09871345,73.3108845875,50.0,59.0
359,73.1973977,73.6069373375,55.0,92.0
360,73.49345045,73.8026611,50.0,75.0
361,73.5921347,74.055950675,58.0,117.0
362,72.8026607,74.1973981,43.0,77.0
363,73.88818745,74.37174027500001,50.0,42.0
364,73.9868717,74.378319225,55.0,66.0
365,74.1842402,74.4194376625,58.0,96.0
366,73.5921347,74.4424639875,62.0,100.0
367,74.67766145,74.8997010125,50.0,63.0
368,74.77634570000001,75.213845875,55.0,96.0
369,75.07239845,75.30924065,50.0,79.0
370,75.3684512,75.5658197,50.0,62.0
371,74.3816087,75.5806223375,43.0,86.0
372,75.1710827,75.621740775,58.0,122.0
373,75.1710827,75.9029908875,62.0,102.0
374,75.5658197,75.911214575,55.0,93.0
375,75.7631882,75.924372475,58.0,102.0
376,76.1579252,76.3799647625,48.0,59.0
377,76.3552937,76.8158202,53.0,92.0
378,76.65134645,76.9161491875,48.0,53.0
379,76.9473992,77.1727282375,48.0,82.0
380,76.7500307,77.220425625,57.0,107.0
381,75.9605567,77.2648335375,41.0,74.0
382,76.7500307,77.4473994,60.0,107.0
383,77.44082045,77.55595207500001,57.0,90.0
384,77.1447677,77.5904915625,53.0,92.0
385,77.83555745,78.01647857500001,46.0,56.0
386,78.1316102,78.3240444875,46.0,74.0
387,77.9342417,78.3964129375,53.0,90.0
388,77.5395047,78.65134725,34.0,95.0
389,78.5263472,78.6891762125,46.0,88.0
390,78.32897870000001,78.7779920375,58.0,112.0
391,78.7237157,79.06582110000001,53.0,85.0
392,78.32897870000001,79.0674658375,62.0,100.0
393,78.9210842,79.1052948,58.0,99.0
394,79.5131897,79.9128609125,55.0,92.0
395,79.7105582,79.957268825,48.0,53.0
396,79.9079267,80.2500321,60.0,97.0
397,79.1184527,80.305953175,36.0,73.0
398,79.41450545000001,80.312532125,43.0,48.0
399,80.1052952,80.46713745,48.0,67.0
400,79.9079267,80.680953325,63.0,117.0
401,80.5000322,80.6990454375,60.0,79.0
402,80.3026637,80.7056243875,55.0,95.0
403,80.99345345,81.2154930125,48.0,60.0
404,81.0921377,81.4622036375,53.0,78.0
405,81.2895062,81.5279931375,48.0,58.0
406,81.6842432,81.84871695,48.0,68.0
407,80.6974007,81.8569406375,41.0,72.0
408,81.4868747,81.95562488750001,57.0,95.0
409,81.4868747,82.17601971250001,60.0,100.0
410,81.88161170000001,82.1974013,53.0,82.0
411,82.0789802,82.200690775,57.0,83.0
412,82.57240145,82.7582567875,50.0,53.0
413,82.8684542,83.1200990375,50.0,59.0
414,82.6710857,83.1464148375,53.0,69.0
415,83.0658227,83.5411518375,62.0,97.0
416,83.0658227,83.5510202625,58.0,102.0
417,83.2631912,83.7154940125,50.0,63.0
418,82.2763487,83.7648361375,46.0,97.0
419,83.4605597,83.8075993125,53.0,82.0
420,83.6579282,83.8865467125,58.0,83.0
421,83.6579282,83.9079283,62.0,76.0
422,84.15134945,84.378323225,50.0,42.0
423,84.4474022,84.6447707,50.0,54.0
424,84.2500337,84.6825996625,53.0,90.0
425,84.8421392,85.0247050625,50.0,45.0
426,83.8552967,85.0575998125,46.0,88.0
427,84.6447707,85.09871825,58.0,89.0
428,84.6447707,85.34871835,62.0,95.0
429,85.0395077,85.36187625,53.0,74.0
430,85.2368762,85.411218375,58.0,89.0
431,85.43424470000001,85.58556055,46.0,65.0
432,85.8289817,86.3043108375,53.0,78.0
433,86.2237187,86.710561,58.0,102.0
434,85.73029745,86.9128637125,46.0,56.0
435,86.6184557,86.9260216125,53.0,90.0
436,86.8158242,87.0000348,58.0,77.0
437,86.2237187,87.003324275,62.0,93.0
438,87.30924545,87.51977185,57.0,69.0
439,87.4079297,87.7105614,62.0,63.0
440,87.70398245,87.86187725,57.0,71.0
441,87.0131927,88.161219475,45.0,65.0
442,87.8026667,88.2352326625,62.0,82.0
443,88.3947722,88.5658249,62.0,81.0
444,87.8026667,88.5806275375,65.0,89.0
445,88.1974037,88.6398380875,57.0,95.0
446,88.88819345,89.11516722500001,50.0,57.0
447,88.98687770000001,89.4029962875,55.0,74.0
448,89.3816147,89.8552991,58.0,99.0
449,88.5921407,90.0312860125,43.0,66.0
450,89.28293045,90.1052992,50.0,58.0
451,89.7763517,90.161220275,55.0,83.0
452,89.3816147,90.2220755625,62.0,89.0
453,89.9737202,90.263194,58.0,63.0
454,90.46714145,90.67766785,50.0,58.0
455,90.5658257,91.0016811375,55.0,77.0
456,90.86187845,91.0872074875,50.0,69.0
457,90.1710887,91.3289839,43.0,71.0
458,91.25661545,91.3437865375,50.0,69.0
459,90.9605627,91.4737208,58.0,107.0
460,90.9605627,91.7319445875,62.0,100.0
461,91.3552997,91.8816157,55.0,96.0
462,92.04608945,92.2418132125,51.0,76.0
463,92.1447737,92.5872080875,55.0,88.0
464,92.44082645,92.6464186375,51.0,63.0
465,91.7500367,92.871747675,39.0,78.0
466,92.53951070000001,92.983589825,58.0,100.0
467,92.53951070000001,93.2977346875,63.0,112.0
468,93.1316162,93.31253732500001,58.0,75.0
469,92.9342477,93.34872155000001,55.0,83.0
470,93.7237217,94.0921429,53.0,74.0
471,93.9210902,94.2056297875,50.0,72.0
472,94.3158272,94.4194456625,50.0,47.0
473,93.62503745000001,94.4983930625,45.0,63.0
474,93.3289847,94.5279983375,38.0,60.0
475,94.1184587,94.5872088875,57.0,90.0
476,94.1184587,94.8421432,62.0,95.0
477,94.5131957,94.8602353125,53.0,90.0
478,94.71056420000001,94.8898405875,57.0,83.0
479,95.20398545,95.44082765,48.0,75.0
480,95.3026697,95.740169875,55.0,81.0
481,95.5000382,95.75990672500001,48.0,79.0
482,94.9079327,95.970433125,36.0,65.0
483,95.6974067,96.029643675,60.0,97.0
484,95.8947752,96.049380525,48.0,69.0
485,95.6974067,96.4523412125,63.0,102.0
486,96.2895122,96.4786570125,60.0,89.0
487,96.0921437,96.5608938875,55.0,89.0
488,96.78293345,97.0214203875,48.0,75.0
489,96.8816177,97.1842494,57.0,97.0
490,96.8816177,97.1924730875,60.0,102.0
491,97.17767045000001,97.2385257375,53.0,34.0
492,97.0789862,97.2944468125,48.0,82.0
493,97.2763547,97.5543153375,53.0,100.0
494,97.2763547,97.588854825,57.0,100.0
495,97.2763547,97.5937890375,60.0,102.0
496,96.4868807,97.74346015,41.0,82.0
497,97.4737232,97.82240755,48.0,93.0
498,97.6710917,97.9210918,57.0,107.0
499,97.6710917,97.977012875,60.0,112.0
500,97.8684602,98.036223425,53.0,77.0
501,98.36188145,98.5789868,53.0,73.0
502,98.4605657,98.773065825,58.0,79.0
503,98.75661845,98.9161579875,53.0,71.0
504,98.8553027,99.352013425,58.0,85.0
505,98.0658287,99.58556615,46.0,102.0
506,99.2500397,99.6003687875,53.0,90.0
507,99.4474082,99.654645125,58.0,92.0
508,98.8553027,99.674381975,62.0,93.0
509,99.94082945,100.1431321625,57.0,79.0
510,100.0395137,100.3470796125,62.0,70.0
511,100.2368822,100.4391849125,57.0,77.0
512,100.4342507,100.89477720000001,62.0,81.0
513,99.6447767,100.9622114375,45.0,78.0
514,101.0263562,101.194119425,62.0,72.0
515,100.4342507,101.24346155,65.0,85.0
516,100.8289877,101.253329975,57.0,99.0
517,101.51977745,101.7385275375,50.0,60.0
518,101.81583020000001,102.049382925,50.0,58.0
519,101.6184617,102.0970803125,55.0,81.0
520,102.2105672,102.358593575,50.0,52.0
521,101.2237247,102.4391857125,43.0,69.0
522,102.0131987,102.470435725,58.0,97.0
523,102.0131987,102.779646375,62.0,93.0
524,102.4079357,102.79115953750001,55.0,79.0
525,102.6053042,102.79115953750001,58.0,86.0
526,103.0411596375,103.286225525,52.0,72.0
527,103.1398438875,103.62504145,58.0,69.0
528,103.3947782,103.6710941,52.0,64.0
529,103.5740545875,103.99346265,64.0,69.0
530,103.7582651875,104.11681796250001,52.0,36.0
531,102.7368832,104.1842522,40.0,65.0
532,104.1760285125,104.3076075125,64.0,68.0
533,103.95069947500001,104.3273443625,58.0,89.0
534,103.5707651125,104.36188385,67.0,70.0
535,104.5789892,104.75662085,53.0,68.0
536,104.7763577,105.08556835,58.0,66.0
537,104.9737262,105.154647325,53.0,66.0
538,104.28293645000001,105.3701079375,46.0,73.0
539,105.1710947,105.602015925,58.0,69.0
540,105.7632002,105.9655029125,58.0,59.0
541,105.1710947,105.9786608125,62.0,77.0
542,105.5658317,105.9885292375,53.0,72.0
543,106.1579372,106.3865557125,48.0,56.0
544,106.3553057,106.76977955,53.0,74.0
545,106.5526742,106.884911175,48.0,62.0
546,105.9605687,107.009911225,41.0,65.0
547,106.7500427,107.1957665625,57.0,83.0
548,106.7500427,107.483595625,60.0,89.0
549,107.3421482,107.49346405,57.0,68.0
550,107.1447797,107.5970825125,53.0,72.0
551,107.7368852,107.9523458125,46.0,48.0
552,108.1316222,108.3339249125,46.0,77.0
553,107.9342537,108.3668196625,53.0,76.0
554,108.3289907,108.805964575,58.0,100.0
555,107.44083245,108.9095830375,34.0,77.0
556,108.7237277,109.21057,53.0,82.0
557,108.92109620000001,109.2253726375,58.0,78.0
558,108.3289907,109.2253726375,62.0,100.0
559,109.3158332,109.5214253875,46.0,66.0
560,109.7105702,109.89642553750001,46.0,76.0
561,109.5132017,109.9605703,53.0,71.0
562,109.9079387,110.657939,58.0,90.0
563,110.3026757,110.6760311125,53.0,72.0
564,109.1184647,110.680965325,34.0,72.0
565,109.9079387,110.6826100625,62.0,89.0
566,111.09214970000001,111.5674788375,53.0,57.0
567,111.38820245,111.5921499,58.0,60.0
568,110.6974127,112.1299790625,34.0,79.0
569,110.99346545,112.28293965,46.0,61.0
570,111.8816237,112.28293965,53.0,54.0
571,111.4868867,112.292808075,62.0,85.0
572,112.17767645,112.38162390000001,58.0,53.0
573,112.6710977,112.88820305,53.0,62.0
574,112.57241345,112.91451885000001,46.0,43.0
575,112.96715045,113.1332689375,46.0,59.0
576,112.2763607,113.4128743125,34.0,74.0
577,113.36188745,113.483598025,46.0,52.0
578,113.6579402,113.8109007875,53.0,48.0
579,113.4605717,113.812545525,58.0,73.0
580,113.0658347,113.8470850125,62.0,82.0
581,114.15136145,114.384914175,50.0,58.0
582,114.2500457,114.7023485125,55.0,68.0
583,113.8553087,115.25333557500001,43.0,63.0
584,114.54609845,115.3372171875,50.0,45.0
585,115.2368882,115.44083565,55.0,40.0
586,115.0395197,115.4589277625,58.0,59.0
587,114.64478270000001,115.4753751375,62.0,83.0
588,115.73030945000001,115.93425690000001,50.0,52.0
589,115.8289937,116.1891912125,55.0,60.0
590,116.12504645,116.358599175,50.0,52.0
591,115.4342567,116.5806387375,43.0,58.0
592,116.2237307,116.8898493875,62.0,79.0
593,116.6184677,116.8997178125,58.0,55.0
594,116.8158362,117.00662575,55.0,48.0
595,117.2105732,117.4342575,51.0,35.0
596,117.4079417,117.7845865875,55.0,64.0
597,117.70399445,118.1727446375,51.0,42.0
598,117.0132047,118.1891920125,39.0,75.0
599,118.19741570000001,118.457284225,58.0,57.0
600,117.8026787,118.4868895,63.0,88.0
601,118.3947842,118.6102448125,55.0,50.0
602,118.88820545,119.0905081625,48.0,52.0
603,118.9868897,119.4342583,53.0,43.0
604,119.28294245000001,119.5444557125,48.0,48.0
605,118.5921527,119.5806399375,41.0,53.0
606,119.7763637,120.0312980125,57.0,63.0
607,119.3816267,120.082284875,60.0,79.0
608,119.9737322,120.1628770125,53.0,39.0
609,120.46715345,120.6234035125,46.0,36.0
610,120.5658377,120.94083785000001,53.0,58.0
611,120.1711007,121.58557495,34.0,68.0
612,120.86189045,121.700706575,46.0,56.0
613,121.3553117,121.78294345,53.0,39.0
614,121.5526802,121.78623292500001,58.0,38.0
615,120.9605747,121.8947856,62.0,70.0
616,122.3421542,122.562549025,53.0,41.0
617,122.1447857,122.6793253875,46.0,40.0
618,121.75004870000001,123.01978605000001,34.0,47.0
619,122.83557545000001,123.233601925,46.0,27.0
620,122.9342597,123.3010361625,53.0,58.0
621,123.1316282,123.32241775,58.0,56.0
622,122.5395227,123.325707225,62.0,82.0
623,123.62504945,123.8799837625,46.0,52.0
624,123.7237337,124.1711023,53.0,50.0
625,124.01978645,124.21715495000001,46.0,45.0
626,123.3289967,124.5510366625,34.0,72.0
627,124.41452345,124.605313,46.0,67.0
628,124.5132077,124.8043262375,53.0,63.0
629,124.7105762,124.8766946875,58.0,45.0
630,124.1184707,124.917813125,62.0,82.0
631,125.20399745,125.3701159375,57.0,52.0
632,125.30268170000001,125.5839318125,62.0,56.0
633,125.59873445,125.79610295,57.0,55.0
634,124.9079447,126.1431425625,45.0,55.0
635,126.0921557,126.40136635,62.0,67.0
636,125.6974187,126.4128795125,65.0,73.0
637,126.2895242,126.4737348,57.0,49.0
638,126.78294545,127.023077125,50.0,52.0
639,126.8816297,127.2878798625,55.0,69.0
640,126.4868927,127.8503800875,43.0,63.0
641,127.17768245,127.924393275,50.0,34.0
642,127.8684722,128.115182825,55.0,44.0
643,127.6711037,128.16452495000001,58.0,52.0
644,127.2763667,128.1711039,62.0,75.0
645,128.36189345,128.582288275,50.0,36.0
646,128.4605777,128.7681436125,55.0,60.0
647,128.75663045,129.161235875,50.0,31.0
648,128.0658407,129.1793279875,43.0,40.0
649,128.8553147,129.3438017375,58.0,73.0
650,128.8553147,129.5115649625,62.0,81.0
651,129.2500517,129.5806439375,55.0,66.0
652,129.4474202,129.6711045,58.0,60.0
653,129.94084145,130.1431441625,51.0,46.0
654,130.0395257,130.4523548125,55.0,59.0
655,130.33557845,130.6694601625,51.0,53.0
656,129.6447887,130.6826180625,39.0,40.0
657,130.4342627,130.91452605,58.0,70.0
658,130.4342627,131.1891972125,63.0,85.0
659,131.0263682,131.207289325,58.0,65.0
660,130.8289997,131.2549867125,55.0,59.0
661,131.51978945,131.727026375,48.0,56.0
662,131.6184737,131.983605425,53.0,58.0
663,131.8158422,132.220447625,48.0,48.0
664,131.2237367,132.319131875,41.0,61.0
665,132.0132107,132.4885398375,57.0,69.0
666,132.0132107,132.7385399375,60.0,78.0
667,132.6053162,132.7500531,57.0,57.0
668,132.4079477,132.8010399625,53.0,56.0
669,133.09873745,133.2813033125,53.0,59.0
670,132.80268470000001,133.3421586,46.0,48.0
671,133.1974217,133.46715865,58.0,48.0
672,133.5921587,134.079001,58.0,66.0
673,133.49347445,134.1069615375,46.0,60.0
674,133.9868957,134.41452745,53.0,67.0
675,134.1842642,134.4342643,58.0,62.0
676,133.5921587,134.4589353625,62.0,86.0
677,134.3816327,134.634922275,46.0,67.0
678,134.67768545,134.898080275,46.0,56.0
679,134.7763697,135.0790014,58.0,69.0
680,135.1711067,135.66452795,58.0,90.0
681,135.07242245,135.779659575,46.0,58.0
682,135.1711067,135.9391991125,62.0,92.0
683,135.7632122,135.977028075,58.0,64.0
684,135.5658437,135.98031755,53.0,79.0
685,136.25663345,136.430975625,53.0,68.0
686,136.3553177,136.6793309875,58.0,69.0
687,136.65137045,136.878344225,53.0,59.0
688,136.7500547,137.207291725,58.0,69.0
689,137.1447917,137.4753839375,53.0,78.0
690,135.9605807,137.503344475,46.0,76.0
691,137.3421602,137.5181471125,58.0,70.0
692,136.7500547,137.5247260625,62.0,89.0
693,137.83558145,138.05926575,57.0,62.0
694,137.9342657,138.227028975,62.0,66.0
695,138.23031845,138.3832790375,57.0,67.0
696,138.3290027,138.76979235,62.0,76.0
697,137.5395287,138.852029225,45.0,61.0
698,138.9211082,139.1003845875,62.0,69.0
699,138.3290027,139.128345125,65.0,76.0
700,138.7237397,139.1563056625,57.0,79.0
701,139.41452945,139.621766375,50.0,53.0
702,139.5132137,139.92604281250001,55.0,76.0
703,139.90795070000001,140.352029825,58.0,96.0
704,139.1184767,140.54610885,43.0,63.0
705,139.7105822,140.61189835,50.0,52.0
706,139.90795070000001,140.69906943750001,62.0,90.0
707,140.3026877,140.70400365,55.0,76.0
708,140.5000562,140.7451220875,58.0,63.0
709,140.99347745,141.1661748875,50.0,55.0
710,141.0921617,141.4655171125,55.0,76.0
711,141.38821445,141.7319645875,50.0,40.0
712,140.6974247,141.7845961875,43.0,56.0
713,141.4868987,141.9227541375,58.0,79.0
714,141.4868987,141.9688067875,62.0,81.0
715,141.8816357,142.220451625,55.0,58.0
716,142.0790042,142.2911753375,58.0,50.0
717,142.57242545,142.76157026250002,51.0,52.0
718,142.6711097,143.0806493375,55.0,56.0
719,142.96716245,143.2632152,51.0,56.0
720,142.2763727,143.2813073125,39.0,61.0
721,143.0658467,143.542820575,58.0,73.0
722,143.0658467,143.8076233125,63.0,97.0
723,143.4605837,143.8240706875,55.0,63.0
724,143.6579522,143.8290049,58.0,78.0
725,144.15137345,144.36189985000001,48.0,57.0
726,144.2500577,144.6201236375,53.0,56.0
727,144.6447947,145.11190015,57.0,66.0
728,143.8553207,145.2549923125,41.0,66.0
729,145.0395317,145.34874235,53.0,55.0
730,144.54611045000001,145.40137395,48.0,54.0
731,145.2369002,145.4260450125,57.0,58.0
732,144.6447947,145.45400555,60.0,72.0
733,145.73032145,145.9095978375,48.0,55.0
734,145.8290057,146.2122295375,53.0,63.0
735,146.2237427,146.6826244625,57.0,73.0
736,145.4342687,146.82900610000002,41.0,57.0
737,146.12505845,146.99347985,48.0,41.0
738,146.6184797,147.0082824875,53.0,52.0
739,146.8158482,147.0872298875,57.0,63.0
740,146.2237427,147.105322,60.0,83.0
741,147.30926945,147.5345984875,48.0,61.0
742,147.4079537,147.7878880625,53.0,69.0
743,147.70400645,147.9227565375,48.0,58.0
744,148.0000592,148.207296125,48.0,95.0
745,147.01321670000002,148.246769825,41.0,61.0
746,147.8026907,148.273085625,57.0,83.0
747,147.8026907,148.4984146625,60.0,93.0
748,148.1974277,148.516506775,53.0,82.0
749,148.3947962,148.5181515125,57.0,50.0
750,148.88821745,149.07242805,53.0,65.0
751,148.9869017,149.292822875,58.0,64.0
752,149.28295445,149.457296625,53.0,48.0
753,149.3816387,149.845454675,58.0,64.0
754,148.5921647,150.0017047375,46.0,81.0
755,149.7763757,150.0740731875,53.0,65.0
756,149.9737442,150.1497311125,58.0,64.0
757,149.3816387,150.15137585,62.0,75.0
758,150.3684812,150.5806523375,57.0,63.0
759,150.5658497,150.8438103375,62.0,63.0
760,150.86190245,150.996770925,57.0,63.0
761,150.9605867,151.40137635,62.0,71.0
762,150.1711127,151.5247316625,45.0,85.0
763,150.9605867,151.6990738375,65.0,69.0
764,151.5526922,151.707297525,62.0,57.0
765,151.3553237,151.7385475375,57.0,76.0
766,152.04611345,152.2517056375,50.0,50.0
767,152.1447977,152.5477583875,55.0,72.0
768,152.5395347,152.9918375125,58.0,74.0
769,151.7500607,153.19742970000001,43.0,57.0
770,152.9342717,153.273087625,55.0,66.0
771,152.44085045,153.2780218375,50.0,50.0
772,153.1316402,153.384929775,58.0,65.0
773,152.5395347,153.3964429375,62.0,74.0
774,153.62506145,153.8339431125,50.0,53.0
775,153.7237457,154.1299958625,55.0,67.0
776,154.01979845,154.253351175,50.0,51.0
777,153.3290087,154.37506175000001,43.0,50.0
778,154.11848270000002,154.549403925,58.0,73.0
779,154.11848270000002,154.7500619,62.0,88.0
780,154.5132197,154.9260488125,55.0,68.0
781,154.7105882,154.944140925,58.0,63.0
782,155.20400945,155.358614775,51.0,45.0
783,155.3026937,155.6596017375,55.0,70.0
784,155.59874645,155.9293386875,51.0,43.0
785,154.9079567,156.052694,39.0,70.0
786,155.6974307,156.1530229875,58.0,62.0
787,155.6974307,156.45565468750002,63.0,92.0
788,156.28953620000001,156.4786810125,58.0,65.0
789,156.0921677,156.49348365,55.0,69.0
790,156.78295745,157.009931225,48.0,59.0
791,156.8816417,157.26486553750001,53.0,58.0
792,157.17769445,157.4655235125,48.0,61.0
793,156.4869047,157.483615625,41.0,58.0
794,157.2763787,157.6990762375,57.0,75.0
795,157.2763787,158.0148658375,60.0,82.0
796,157.8684842,158.01980005000001,57.0,61.0
797,157.6711157,158.0444711125,53.0,56.0
798,158.36190545,158.51815551250002,53.0,46.0
799,158.0658527,158.6003923875,46.0,41.0
800,158.4605897,158.7319713875,58.0,48.0
801,158.75664245000002,158.8569714375,53.0,34.0
802,158.8553267,159.3207874125,58.0,68.0
803,158.75664245000002,159.5049980125,46.0,50.0
804,159.2500637,159.69085335,53.0,68.0
805,158.8553267,159.74348495,62.0,81.0
806,159.4474322,159.753353375,58.0,64.0
807,159.6448007,159.8471034125,46.0,90.0
808,159.94085345,160.0938140375,46.0,68.0
809,160.0395377,160.213879875,58.0,95.0
810,160.0395377,160.2155246125,62.0,99.0
811,160.8290117,161.1053276,58.0,127.0
812,161.0263802,161.115196025,53.0,90.0
813,160.8290117,161.128353925,62.0,122.0
814,161.6184857,162.0132227,55.0,88.0
815,162.0132227,162.4655255125,58.0,127.0
816,162.0132227,162.477038675,62.0,102.0
817,161.22374870000002,162.6661834875,43.0,79.0
818,162.4079597,162.6793413875,55.0,92.0
819,161.51980145,162.69085455,50.0,69.0
820,162.6053282,162.720459825,62.0,96.0
821,162.6053282,162.73032825,58.0,102.0
822,163.09874945,163.30927585,50.0,64.0
823,163.1974337,163.608618075,55.0,89.0
824,163.49348645,163.98032875,50.0,71.0
825,162.8026967,164.0181577125,43.0,73.0
826,163.5921707,164.055986675,58.0,102.0
827,163.5921707,164.325723625,62.0,96.0
828,163.9869077,164.3290131,55.0,95.0
829,164.1842762,164.35203942500002,58.0,96.0
830,164.67769745,164.8569738375,48.0,64.0
831,164.7763817,165.1579608,53.0,92.0
832,165.07243445,165.2517108375,48.0,85.0
833,164.3816447,165.279671375,41.0,72.0
834,165.1711187,165.6530267875,57.0,96.0
835,165.56585570000001,165.871776875,53.0,90.0
836,165.1711187,165.89809267500002,60.0,99.0
837,165.86190845000002,165.9885532375,57.0,75.0
838,165.9605927,166.12506645,46.0,77.0
839,166.25664545,166.447435,46.0,59.0
840,166.3553297,166.82243515,53.0,85.0
841,166.5526982,167.03954050000002,46.0,65.0
842,166.7500667,167.2615800625,58.0,99.0
843,166.7500667,167.4869091,62.0,93.0
844,167.1448037,167.5181591125,53.0,88.0
845,167.3421722,167.53296175,58.0,90.0
846,167.83559345,168.0543435375,48.0,55.0
847,167.9342777,168.384935775,55.0,77.0
848,168.23033045,168.4885542375,48.0,70.0
849,167.5395407,168.7105938,36.0,61.0
850,168.32901470000002,168.7747385625,60.0,95.0
851,168.62506745,168.9688175875,48.0,65.0
852,168.9211202,169.1300018625,60.0,82.0
853,168.32901470000002,169.15138345,63.0,99.0
854,168.7237517,169.207304525,55.0,86.0
855,169.41454145,169.6332915375,48.0,60.0
856,169.5132257,169.89316006250002,53.0,77.0
857,169.80927845,170.05927855000002,48.0,51.0
858,169.9079627,170.3734234125,57.0,97.0
859,169.1184887,170.5378971625,41.0,66.0
860,170.3026997,170.6053314,53.0,77.0
861,170.20401545,170.6694761625,48.0,61.0
862,170.50006820000002,170.6826340625,57.0,95.0
863,169.9079627,170.713884075,60.0,102.0
864,170.99348945,171.174410575,48.0,63.0
865,171.0921737,171.4490817375,53.0,90.0
866,171.38822645,171.64151602500002,48.0,73.0
867,171.4869107,171.9211214,57.0,99.0
868,171.4869107,171.9474372,60.0,102.0
869,170.6974367,172.16454255,41.0,67.0
870,171.6842792,172.167832025,48.0,75.0
871,171.8816477,172.1826346625,53.0,82.0
872,172.0790162,172.3339505125,57.0,92.0
873,172.0790162,172.3832926375,60.0,95.0
874,172.57243745,172.8290165,48.0,63.0
875,172.67112170000001,173.055990275,53.0,122.0
876,172.96717445000002,173.18756927500002,48.0,93.0
877,172.2763847,173.5263852,41.0,85.0
878,173.0658587,173.5905299625,55.0,127.0
879,173.4605957,173.799411625,57.0,117.0
880,173.2632272,173.8372405875,48.0,117.0
881,174.15138545,174.3635565875,50.0,59.0
882,174.2500697,174.6596093375,55.0,92.0
883,174.54612245,174.8553331,50.0,75.0
884,174.6448067,175.108622675,58.0,117.0
885,173.8553327,175.2500701,43.0,77.0
886,174.94085945,175.424412275,50.0,42.0
887,175.0395437,175.430991225,55.0,66.0
888,175.2369122,175.4721096625,58.0,96.0
889,174.6448067,175.4951359875,62.0,100.0
890,175.73033345,175.9523730125,50.0,63.0
891,175.8290177,176.266517875,55.0,96.0
892,176.12507045,176.36191265,50.0,79.0
893,176.4211232,176.6184917,50.0,62.0
894,175.4342807,176.6332943375,43.0,86.0
895,176.2237547,176.674412775,58.0,122.0
896,176.2237547,176.9556628875,62.0,102.0
897,176.6184917,176.963886575,55.0,93.0
898,176.8158602,176.977044475,58.0,102.0
899,177.2105972,177.4326367625,48.0,59.0
900,177.4079657,177.8684922,53.0,92.0
901,177.70401845,177.9688211875,48.0,53.0
902,178.0000712,178.2254002375,48.0,82.0
903,177.8027027,178.273097625,57.0,107.0
904,177.0132287,178.3175055375,41.0,74.0
905,177.8027027,178.5000714,60.0,107.0
906,178.49349245,178.608624075,57.0,90.0
907,178.1974397,178.6431635625,53.0,92.0
908,178.88822945,179.069150575,46.0,56.0
909,179.1842822,179.3767164875,46.0,74.0
910,178.9869137,179.4490849375,53.0,90.0
911,178.5921767,179.70401925000002,34.0,95.0
912,179.5790192,179.7418482125,46.0,88.0
913,179.3816507,179.83066403750001,58.0,112.0
914,179.77638770000002,180.1184931,53.0,85.0
915,179.3816507,180.1201378375,62.0,100.0
916,179.9737562,180.1579668,58.0,99.0
917,180.5658617,180.9655329125,55.0,92.0
918,180.7632302,181.009940825,48.0,53.0
919,180.9605987,181.3027041,60.0,97.0
920,180.1711247,181.35862517500001,36.0,73.0
921,180.46717745,181.365204125,43.0,48.0
922,181.1579672,181.51980945,48.0,67.0
923,180.9605987,181.733625325,63.0,117.0
924,181.5527042,181.7517174375,60.0,79.0
925,181.3553357,181.7582963875,55.0,95.0
926,182.04612545,182.2681650125,48.0,60.0
927,182.1448097,182.5148756375,53.0,78.0
928,182.3421782,182.5806651375,48.0,58.0
929,182.7369152,182.90138895,48.0,68.0
930,181.7500727,182.9096126375,41.0,72.0
931,182.5395467,183.0082968875,57.0,95.0
932,182.5395467,183.2286917125,60.0,100.0
933,182.9342837,183.2500733,53.0,82.0
934,183.1316522,183.253362775,57.0,83.0
935,183.62507345,183.8109287875,50.0,53.0
936,183.9211262,184.1727710375,50.0,59.0
937,183.7237577,184.1990868375,53.0,69.0
938,184.1184947,184.5938238375,62.0,97.0
939,184.1184947,184.6036922625,58.0,102.0
940,184.3158632,184.7681660125,50.0,63.0
941,183.3290207,184.8175081375,46.0,97.0
942,184.5132317,184.8602713125,53.0,82.0
943,184.71060020000002,184.9392187125,58.0,83.0
944,184.71060020000002,184.9606003,62.0,76.0
945,185.20402145,185.430995225,50.0,42.0
946,185.5000742,185.6974427,50.0,54.0
947,185.3027057,185.7352716625,53.0,90.0
948,185.8948112,186.0773770625,50.0,45.0
949,184.9079687,186.1102718125,46.0,88.0
950,185.6974427,186.15139025,58.0,89.0
951,185.6974427,186.40139035,62.0,95.0
952,186.0921797,186.41454825,53.0,74.0
953,186.2895482,186.463890375,58.0,89.0
954,186.88165370000002,187.2763907,55.0,88.0
955,187.2763907,187.7286935125,58.0,127.0
956,187.2763907,187.740206675,62.0,102.0
957,186.4869167,187.9293514875,43.0,79.0
958,187.6711277,187.9425093875,55.0,92.0
959,186.78296945,187.95402255,50.0,69.0
960,187.8684962,187.983627825,62.0,96.0
961,187.8684962,187.99349625,58.0,102.0
962,188.36191745,188.57244385,50.0,64.0
963,188.4606017,188.871786075,55.0,89.0
964,188.75665445,189.24349675,50.0,71.0
965,188.0658647,189.2813257125,43.0,73.0
966,188.8553387,189.319154675,58.0,102.0
967,188.8553387,189.588891625,62.0,96.0
968,189.2500757,189.5921811,55.0,95.0
969,189.4474442,189.615207425,58.0,96.0
970,189.94086545,190.1201418375,48.0,64.0
971,190.0395497,190.4211288,53.0,92.0
972,190.33560245,190.5148788375,48.0,85.0
973,189.6448127,190.542839375,41.0,72.0
974,190.4342867,190.9161947875,57.0,96.0
975,190.8290237,191.134944875,53.0,90.0
976,190.4342867,191.161260675,60.0,99.0
977,191.12507645,191.2517212375,57.0,75.0
978,191.2237607,191.38823445,46.0,77.0
979,191.51981345000002,191.710603,46.0,59.0
980,191.6184977,192.08560315,53.0,85.0
981,191.81586620000002,192.3027085,46.0,65.0
982,192.0132347,192.5247480625,58.0,99.0
983,192.0132347,192.7500771,62.0,93.0
984,192.4079717,192.7813271125,53.0,88.0
985,192.6053402,192.79612975,58.0,90.0
986,193.09876145,193.3175115375,48.0,55.0
987,193.1974457,193.648103775,55.0,77.0
988,193.49349845,193.7517222375,48.0,70.0
989,192.8027087,193.9737618,36.0,61.0
990,193.5921827,194.0379065625,60.0,95.0
991,193.88823545,194.2319855875,48.0,65.0
992,194.1842882,194.3931698625,60.0,82.0
993,193.5921827,194.41455145,63.0,99.0
994,193.98691970000002,194.470472525,55.0,86.0
995,194.67770945,194.8964595375,48.0,60.0
996,194.7763937,195.1563280625,53.0,77.0
997,195.07244645,195.32244655,48.0,51.0
998,195.1711307,195.6365914125,57.0,97.0
999,194.3816567,195.8010651625,41.0,66.0
1000,195.5658677,195.8684994,53.0,77.0
1001,195.46718345,195.9326441625,48.0,61.0
1002,195.7632362,195.9458020625,57.0,95.0
1003,195.1711307,195.977052075,60.0,102.0
1004,196.25665745,196.437578575,48.0,63.0
1005,196.3553417,196.7122497375,53.0,90.0
1006,196.65139445,196.904684025,48.0,73.0
1007,196.7500787,197.1842894,57.0,99.0
1008,196.7500787,197.2106052,60.0,102.0
1009,195.9606047,197.42771055,41.0,67.0
1010,196.9474472,197.431000025,48.0,75.0
1011,197.1448157,197.4458026625,53.0,82.0
1012,197.3421842,197.5971185125,57.0,92.0
1013,197.3421842,197.6464606375,60.0,95.0
1014,197.83560545,198.0921845,48.0,63.0
1015,197.9342897,198.319158275,53.0,122.0
1016,198.23034245,198.450737275,48.0,93.0
1017,197.5395527,198.7895532,41.0,85.0
1018,198.32902670000001,198.8536979625,55.0,127.0
1019,198.7237637,199.062579625,57.0,117.0
1020,198.5263952,199.1004085875,48.0,117.0
1021,199.41455345,199.6267245875,50.0,59.0
1022,199.5132377,199.9227773375,55.0,92.0
1023,199.80929045,200.1185011,50.0,75.0
1024,199.9079747,200.371790675,58.0,117.0
1025,199.1185007,200.5132381,43.0,77.0
1026,200.20402745,200.68758027500002,50.0,42.0
1027,200.3027117,200.694159225,55.0,66.0
1028,200.5000802,200.7352776625,58.0,96.0
1029,199.9079747,200.7583039875,62.0,100.0
1030,200.99350145,201.2155410125,50.0,63.0
1031,201.09218570000002,201.529685875,55.0,96.0
1032,201.38823845,201.62508065,50.0,79.0
1033,201.6842912,201.8816597,50.0,62.0
1034,200.6974487,201.8964623375,43.0,86.0
1035,201.4869227,201.93758077500001,58.0,122.0
1036,201.4869227,202.2188308875,62.0,102.0
1037,201.8816597,202.227054575,55.0,93.0
1038,202.0790282,202.240212475,58.0,102.0
1039,202.4737652,202.6958047625,48.0,59.0
1040,202.6711337,203.1316602,53.0,92.0
1041,202.96718645,203.2319891875,48.0,53.0
1042,203.26323920000002,203.4885682375,48.0,82.0
1043,203.0658707,203.536265625,57.0,107.0
1044,202.2763967,203.5806735375,41.0,74.0
1045,203.0658707,203.7632394,60.0,107.0
1046,203.75666045,203.871792075,57.0,90.0
1047,203.4606077,203.90633156250001,53.0,92.0
1048,204.15139745,204.33231857500002,46.0,56.0
1049,204.4474502,204.6398844875,46.0,74.0
1050,204.2500817,204.7122529375,53.0,90.0
1051,203.8553447,204.96718725,34.0,95.0
1052,204.8421872,205.0050162125,46.0,88.0
1053,204.6448187,205.0938320375,58.0,112.0
1054,205.0395557,205.3816611,53.0,85.0
1055,204.6448187,205.3833058375,62.0,100.0
1056,205.2369242,205.4211348,58.0,99.0
1057,205.8290297,206.2287009125,55.0,92.0
1058,206.0263982,206.273108825,48.0,53.0
1059,206.2237667,206.5658721,60.0,97.0
1060,205.43429270000001,206.621793175,36.0,73.0
1061,205.73034545000002,206.628372125,43.0,48.0
1062,206.4211352,206.78297745,48.0,67.0
1063,206.2237667,206.996793325,63.0,117.0
1064,206.8158722,207.0148854375,60.0,79.0
1065,206.6185037,207.0214643875,55.0,95.0
1066,207.30929345,207.5313330125,48.0,60.0
1067,207.4079777,207.7780436375,53.0,78.0
1068,207.6053462,207.8438331375,48.0,58.0
1069,208.0000832,208.16455695,48.0,68.0
1070,207.0132407,208.1727806375,41.0,72.0
1071,207.8027147,208.2714648875,57.0,95.0
1072,207.8027147,208.4918597125,60.0,100.0
1073,208.19745170000002,208.5132413,53.0,82.0
1074,208.3948202,208.516530775,57.0,83.0
1075,208.88824145,209.0740967875,50.0,53.0
1076,209.1842942,209.4359390375,50.0,59.0
1077,208.9869257,209.4622548375,53.0,69.0
1078,209.3816627,209.8569918375,62.0,97.0
1079,209.3816627,209.8668602625,58.0,102.0
1080,209.5790312,210.0313340125,50.0,63.0
1081,208.5921887,210.0806761375,46.0,97.0
1082,209.7763997,210.1234393125,53.0,82.0
1083,209.9737682,210.20238671250002,58.0,83.0
1084,209.9737682,210.2237683,62.0,76.0
1085,210.46718945,210.694163225,50.0,42.0
1086,210.7632422,210.9606107,50.0,54.0
1087,210.5658737,210.9984396625,53.0,90.0
1088,211.1579792,211.3405450625,50.0,45.0
1089,210.1711367,211.3734398125,46.0,88.0
1090,210.9606107,211.41455825,58.0,89.0
1091,210.9606107,211.66455835,62.0,95.0
1092,211.3553477,211.67771625,53.0,74.0
1093,211.5527162,211.727058375,58.0,89.0
1094,212.1448217,212.53955870000001,55.0,88.0
1095,212.53955870000001,212.9918615125,58.0,127.0
1096,212.53955870000001,213.003374675,62.0,102.0
1097,211.7500847,213.1925194875,43.0,79.0
1098,212.9342957,213.2056773875,55.0,92.0
1099,212.04613745,213.21719055,50.0,69.0
1100,213.1316642,213.246795825,62.0,96.0
1101,213.1316642,213.25666425,58.0,102.0
1102,213.62508545,213.83561185,50.0,64.0
1103,213.7237697,214.134954075,55.0,89.0
1104,214.01982245,214.50666475,50.0,71.0
1105,213.3290327,214.5444937125,43.0,73.0
1106,214.1185067,214.582322675,58.0,102.0
1107,214.1185067,214.852059625,62.0,96.0
1108,214.5132437,214.8553491,55.0,95.0
1109,214.7106122,214.878375425,58.0,96.0
1110,215.20403345,215.3833098375,48.0,64.0
1111,215.30271770000002,215.6842968,53.0,92.0
1112,215.59877045,215.7780468375,48.0,85.0
1113,214.9079807,215.806007375,41.0,72.0
1114,215.6974547,216.1793627875,57.0,96.0
1115,216.0921917,216.398112875,53.0,90.0
1116,215.6974547,216.424428675,60.0,99.0
1117,216.38824445,216.5148892375,57.0,75.0
1118,216.4869287,216.65140245,46.0,77.0
1119,216.78298145,216.973771,46.0,59.0
1120,216.8816657,217.34877115,53.0,85.0
1121,217.0790342,217.5658765,46.0,65.0
1122,217.2764027,217.7879160625,58.0,99.0
1123,217.2764027,218.0132451,62.0,93.0
1124,217.6711397,218.04449511250002,53.0,88.0
1125,217.8685082,218.05929775,58.0,90.0
1126,218.36192945,218.5806795375,48.0,55.0
1127,218.4606137,218.911271775,55.0,77.0
1128,218.75666645,219.0148902375,48.0,70.0
1129,218.0658767,219.2369298,36.0,61.0
1130,218.8553507,219.3010745625,60.0,95.0
1131,219.15140345,219.4951535875,48.0,65.0
1132,219.4474562,219.6563378625,60.0,82.0
1133,218.8553507,219.67771945,63.0,99.0
1134,219.2500877,219.733640525,55.0,86.0
1135,219.94087745000002,220.1596275375,48.0,60.0
1136,220.0395617,220.4194960625,53.0,77.0
1137,220.33561445,220.58561455,48.0,51.0
1138,220.4342987,220.8997594125,57.0,97.0
1139,219.64482470000002,221.0642331625,41.0,66.0
1140,220.8290357,221.1316674,53.0,77.0
1141,220.73035145,221.1958121625,48.0,61.0
1142,221.0264042,221.20897006250001,57.0,95.0
1143,220.4342987,221.240220075,60.0,102.0
1144,221.51982545,221.700746575,48.0,63.0
1145,221.6185097,221.9754177375,53.0,90.0
1146,221.91456245,222.167852025,48.0,73.0
1147,222.0132467,222.4474574,57.0,99.0
1148,222.0132467,222.4737732,60.0,102.0
1149,221.2237727,222.69087855,41.0,67.0
1150,222.2106152,222.694168025,48.0,75.0
1151,222.4079837,222.7089706625,53.0,82.0
1152,222.6053522,222.8602865125,57.0,92.0
1153,222.6053522,222.9096286375,60.0,95.0
1154,223.09877345,223.3553525,48.0,63.0
1155,223.1974577,223.582326275,53.0,122.0
1156,223.49351045,223.713905275,48.0,93.0
1157,222.8027207,224.0527212,41.0,85.0
1158,223.5921947,224.11686596250001,55.0,127.0
1159,223.9869317,224.325747625,57.0,117.0
1160,223.7895632,224.3635765875,48.0,117.0
1161,224.67772145,224.88989258750001,50.0,59.0
1162,224.7764057,225.18594533750002,55.0,92.0
1163,225.07245845,225.3816691,50.0,75.0
1164,225.1711427,225.634958675,58.0,117.0
1165,224.3816687,225.7764061,43.0,77.0
1166,225.46719545,225.950748275,50.0,42.0
1167,225.5658797,225.957327225,55.0,66.0
1168,225.7632482,225.9984456625,58.0,96.0
1169,225.1711427,226.0214719875,62.0,100.0
1170,226.25666945,226.4787090125,50.0,63.0
1171,226.3553537,226.792853875,55.0,96.0
1172,226.65140645,226.88824865,50.0,79.0
1173,226.9474592,227.1448277,50.0,62.0
1174,225.9606167,227.1596303375,43.0,86.0
1175,226.75009070000002,227.200748775,58.0,122.0
1176,226.75009070000002,227.4819988875,62.0,102.0
1177,227.1448277,227.490222575,55.0,93.0
1178,227.3421962,227.503380475,58.0,102.0
1179,227.7369332,227.9589727625,48.0,59.0
1180,227.9343017,228.3948282,53.0,92.0
1181,228.23035445,228.4951571875,48.0,53.0
1182,228.5264072,228.7517362375,48.0,82.0
1183,228.3290387,228.799433625,57.0,107.0
1184,227.5395647,228.8438415375,41.0,74.0
1185,228.3290387,229.0264074,60.0,107.0
1186,229.01982845,229.134960075,57.0,90.0
1187,228.7237757,229.1694995625,53.0,92.0
1188,229.41456545,229.595486575,46.0,56.0
1189,229.7106182,229.9030524875,46.0,74.0
1190,229.5132497,229.9754209375,53.0,90.0
1191,229.1185127,230.23035525,34.0,95.0
1192,230.1053552,230.2681842125,46.0,88.0
1193,229.9079867,230.3570000375,58.0,112.0
1194,230.3027237,230.6448291,53.0,85.0
1195,229.9079867,230.6464738375,62.0,100.0
1196,230.5000922,230.6843028,58.0,99.0
1197,231.0921977,231.4918689125,55.0,92.0
1198,231.2895662,231.53627682500002,48.0,53.0
1199,231.4869347,231.82904010000001,60.0,97.0
1200,230.6974607,231.884961175,36.0,73.0
1201,230.99351345,231.891540125,43.0,48.0
1202,231.68430320000002,232.04614545,48.0,67.0
1203,231.4869347,232.259961325,63.0,117.0
1204,231.8816717,232.2764087,55.0,95.0
1205,232.0790402,232.2764087,60.0,79.0
1206,232.57246145,232.8027247,53.0,66.0
1207,232.6711457,233.1070011375,60.0,76.0
1208,232.96719845,233.2517380375,53.0,73.0
1209,233.0658827,233.509961825,65.0,86.0
1210,233.0658827,233.5346328875,69.0,88.0
1211,232.2764087,233.6596329375,41.0,88.0
1212,233.36193545,233.78298825000002,53.0,35.0
1213,233.85535670000002,235.31094938750002,53.0,79.0
1214,233.6579882,235.3208178125,65.0,90.0
1215,233.4606197,235.3372651875,60.0,74.0
1216,233.85535670000002,235.3421994,69.0,92.0
1217,233.85535670000002,235.3570020375,41.0,75.0
1218,235.4343047,236.595489375,58.0,62.0
1219,235.4343047,236.6201604375,62.0,53.0
1220,235.4343047,236.6267393875,65.0,50.0
1221,235.4343047,236.6497657125,34.0,83.0
1222,237.4079897,237.8027267,55.0,88.0
1223,237.8027267,238.25502951250002,58.0,127.0
1224,237.8027267,238.266542675,62.0,102.0
1225,237.0132527,238.4556874875,43.0,79.0
1226,238.19746370000001,238.4688453875,55.0,92.0
1227,237.30930545,238.48035855,50.0,69.0
1228,238.3948322,238.509963825,62.0,96.0
1229,238.3948322,238.51983225,58.0,102.0
1230,238.88825345,239.09877985,50.0,64.0
1231,238.9869377,239.398122075,55.0,89.0
1232,239.28299045,239.76983275,50.0,71.0
1233,238.5922007,239.8076617125,43.0,73.0
1234,239.3816747,239.845490675,58.0,102.0
1235,239.3816747,240.115227625,62.0,96.0
1236,239.7764117,240.1185171,55.0,95.0
1237,239.9737802,240.141543425,58.0,96.0
1238,240.46720145,240.64647783750002,48.0,64.0
1239,240.5658857,240.9474648,53.0,92.0
1240,240.86193845,241.0412148375,48.0,85.0
1241,240.1711487,241.06917537500001,41.0,72.0
1242,240.96062270000002,241.4425307875,57.0,96.0
1243,241.3553597,241.66128087500002,53.0,90.0
1244,240.96062270000002,241.687596675,60.0,99.0
1245,241.65141245,241.7780572375,57.0,75.0
1246,241.7500967,241.91457045,46.0,77.0
1247,242.04614945,242.236939,46.0,59.0
1248,242.1448337,242.61193915,53.0,85.0
1249,242.3422022,242.8290445,46.0,65.0
1250,242.5395707,243.0510840625,58.0,99.0
1251,242.5395707,243.2764131,62.0,93.0
1252,242.9343077,243.3076631125,53.0,88.0
1253,243.13167620000002,243.32246575,58.0,90.0
1254,243.62509745,243.8438475375,48.0,55.0
1255,243.7237817,244.174439775,55.0,77.0
1256,244.01983445,244.2780582375,48.0,70.0
1257,243.3290447,244.5000978,36.0,61.0
1258,244.1185187,244.5642425625,60.0,95.0
1259,244.41457145,244.7583215875,48.0,65.0
1260,244.7106242,244.9195058625,60.0,82.0
1261,244.1185187,244.94088745,63.0,99.0
1262,244.5132557,244.996808525,55.0,86.0
1263,245.20404545,245.4227955375,48.0,60.0
1264,245.30272970000001,245.6826640625,53.0,77.0
1265,245.59878245000002,245.84878255,48.0,51.0
1266,245.6974667,246.1629274125,57.0,97.0
1267,244.9079927,246.3274011625,41.0,66.0
1268,246.0922037,246.3948354,53.0,77.0
1269,245.99351945,246.4589801625,48.0,61.0
1270,246.2895722,246.4721380625,57.0,95.0
1271,245.6974667,246.503388075,60.0,102.0
1272,246.78299345,246.963914575,48.0,63.0
1273,246.8816777,247.2385857375,53.0,90.0
1274,247.17773045,247.431020025,48.0,73.0
1275,247.2764147,247.7106254,57.0,99.0
1276,247.2764147,247.7369412,60.0,102.0
1277,246.4869407,247.95404655000002,41.0,67.0
1278,247.4737832,247.957336025,48.0,75.0
1279,247.6711517,247.97213866250002,53.0,82.0
1280,247.8685202,248.1234545125,57.0,92.0
1281,247.8685202,248.1727966375,60.0,95.0
1282,248.36194145,248.61852050000002,48.0,63.0
1283,248.4606257,248.845494275,53.0,122.0
1284,248.75667845,248.977073275,48.0,93.0
1285,248.06588870000002,249.31588920000002,41.0,85.0
1286,248.8553627,249.3800339625,55.0,127.0
1287,249.2500997,249.588915625,57.0,117.0
1288,249.0527312,249.6267445875,48.0,117.0
1289,249.94088945000001,250.1530605875,50.0,59.0
1290,250.0395737,250.4491133375,55.0,92.0
1291,250.33562645,250.6448371,50.0,75.0
1292,250.4343107,250.89812667500001,58.0,117.0
1293,249.6448367,251.0395741,43.0,77.0
1294,250.73036345,251.213916275,50.0,42.0
1295,250.8290477,251.220495225,55.0,66.0
1296,251.0264162,251.2616136625,58.0,96.0
1297,250.4343107,251.28463998750001,62.0,100.0
1298,251.51983745,251.7418770125,50.0,63.0
1299,251.6185217,252.056021875,55.0,96.0
1300,251.91457445,252.15141665000002,50.0,79.0
1301,252.2106272,252.40799570000001,50.0,62.0
1302,251.2237847,252.4227983375,43.0,86.0
1303,252.0132587,252.463916775,58.0,122.0
1304,252.0132587,252.7451668875,62.0,102.0
1305,252.40799570000001,252.753390575,55.0,93.0
1306,252.6053642,252.766548475,58.0,102.0
1307,253.0001012,253.2221407625,48.0,59.0
1308,253.1974697,253.6579962,53.0,92.0
1309,253.49352245,253.7583251875,48.0,53.0
1310,253.7895752,254.0149042375,48.0,82.0
1311,253.5922067,254.062601625,57.0,107.0
1312,252.8027327,254.1070095375,41.0,74.0
1313,253.5922067,254.2895754,60.0,107.0
1314,254.28299645,254.39812807500002,57.0,90.0
1315,253.9869437,254.4326675625,53.0,92.0
1316,254.67773345,254.858654575,46.0,56.0
1317,254.9737862,255.1662204875,46.0,74.0
1318,254.7764177,255.2385889375,53.0,90.0
1319,254.3816807,255.49352325,34.0,95.0
1320,255.3685232,255.5313522125,46.0,88.0
1321,255.17115470000002,255.6201680375,58.0,112.0
1322,255.5658917,255.90799710000002,53.0,85.0
1323,255.17115470000002,255.9096418375,62.0,100.0
1324,255.7632602,255.9474708,58.0,99.0
1325,256.3553657,256.7550369125,55.0,92.0
1326,256.5527342,256.799444825,48.0,53.0
1327,256.7501027,257.0922081,60.0,97.0
1328,255.9606287,257.148129175,36.0,73.0
1329,256.25668145000003,257.154708125,43.0,48.0
1330,256.9474712,257.30931345,48.0,67.0
1331,256.7501027,257.523129325,63.0,117.0
1332,257.3422082,257.5412214375,60.0,79.0
1333,257.1448397,257.5478003875,55.0,95.0
1334,257.83562945,258.0576690125,48.0,60.0
1335,257.9343137,258.3043796375,53.0,78.0
1336,258.1316822,258.3701691375,48.0,58.0
1337,258.5264192,258.69089295,48.0,68.0
1338,257.5395767,258.6991166375,41.0,72.0
1339,258.3290507,258.7978008875,57.0,95.0
1340,258.3290507,259.0181957125,60.0,100.0
1341,258.7237877,259.0395773,53.0,82.0
1342,258.9211562,259.042866775,57.0,83.0
1343,259.41457745,259.6004327875,50.0,53.0
1344,259.7106302,259.9622750375,50.0,59.0
1345,259.5132617,259.9885908375,53.0,69.0
1346,259.9079987,260.3833278375,62.0,97.0
1347,259.9079987,260.3931962625,58.0,102.0
1348,260.1053672,260.5576700125,50.0,63.0
1349,259.1185247,260.6070121375,46.0,97.0
1350,260.3027357,260.6497753125,53.0,82.0
1351,260.5001042,260.72872271250003,58.0,83.0
1352,260.5001042,260.7501043,62.0,76.0
1353,260.99352545,261.220499225,50.0,42.0
1354,261.2895782,261.4869467,50.0,54.0
1355,261.0922097,261.5247756625,53.0,90.0
1356,261.6843152,261.8668810625,50.0,45.0
1357,260.6974727,261.8997758125,46.0,88.0
1358,261.4869467,261.94089425,58.0,89.0
1359,261.4869467,262.19089435,62.0,95.0
1360,261.8816837,262.20405225,53.0,74.0
1361,262.0790522,262.253394375,58.0,89.0
1362,262.6711577,263.0658947,55.0,88.0
1363,263.0658947,263.5181975125,58.0,127.0
1364,263.0658947,263.529710675,62.0,102.0
1365,262.2764207,263.7188554875,43.0,79.0
1366,263.4606317,263.7320133875,55.0,92.0
1367,262.57247345,263.74352655,50.0,69.0
1368,263.6580002,263.773131825,62.0,96.0
1369,263.6580002,263.78300025,58.0,102.0
1370,264.15142145,264.36194785,50.0,64.0
1371,264.2501057,264.661290075,55.0,89.0
1372,264.54615845,265.03300075,50.0,71.0
1373,263.8553687,265.07082971250003,43.0,73.0
1374,264.6448427,265.108658675,58.0,102.0
1375,264.6448427,265.378395625,62.0,96.0
1376,265.0395797,265.3816851,55.0,95.0
1377,265.23694820000003,265.404711425,58.0,96.0
1378,265.73036945,265.9096458375,48.0,64.0
1379,265.82905370000003,266.2106328,53.0,92.0
1380,266.12510645,266.3043828375,48.0,85.0
1381,265.4343167,266.332343375,41.0,72.0
1382,266.2237907,266.7056987875,57.0,96.0
1383,266.6185277,266.924448875,53.0,90.0
1384,266.2237907,266.950764675,60.0,99.0
1385,266.91458045,267.0412252375,57.0,75.0
1386,267.0132647,267.17773845,46.0,77.0
1387,267.30931745,267.500107,46.0,59.0
1388,267.4080017,267.87510715,53.0,85.0
1389,267.6053702,268.0922125,46.0,65.0
1390,267.8027387,268.3142520625,58.0,99.0
1391,267.8027387,268.5395811,62.0,93.0
1392,268.1974757,268.5708311125,53.0,88.0
1393,268.3948442,268.58563375,58.0,90.0
1394,268.88826545,269.1070155375,48.0,55.0
1395,268.9869497,269.437607775,55.0,77.0
1396,269.28300245,269.5412262375,48.0,70.0
1397,268.5922127,269.7632658,36.0,61.0
1398,269.3816867,269.8274105625,60.0,95.0
1399,269.67773945,270.0214895875,48.0,65.0
1400,269.9737922,270.1826738625,60.0,82.0
1401,269.3816867,270.20405545,63.0,99.0
1402,269.7764237,270.259976525,55.0,86.0
1403,270.46721345000003,270.6859635375,48.0,60.0
1404,270.5658977,270.9458320625,53.0,77.0
1405,270.86195045,271.11195055,48.0,51.0
1406,270.9606347,271.4260954125,57.0,97.0
1407,270.17116070000003,271.5905691625,41.0,66.0
1408,271.3553717,271.6580034,53.0,77.0
1409,271.25668745,271.7221481625,48.0,61.0
1410,271.5527402,271.7353060625,57.0,95.0
1411,270.9606347,271.766556075,60.0,102.0
1412,272.04616145,272.227082575,48.0,63.0
1413,272.1448457,272.5017537375,53.0,90.0
1414,272.44089845,272.694188025,48.0,73.0
1415,272.5395827,272.9737934,57.0,99.0
1416,272.5395827,273.0001092,60.0,102.0
1417,271.7501087,273.21721455,41.0,67.0
1418,272.7369512,273.220504025,48.0,75.0
1419,272.9343197,273.2353066625,53.0,82.0
1420,273.1316882,273.3866225125,57.0,92.0
1421,273.1316882,273.4359646375,60.0,95.0
1422,273.62510945,273.8816885,48.0,63.0
1423,273.7237937,274.10866227500003,53.0,122.0
1424,274.01984645,274.240241275,48.0,93.0
1425,273.3290567,274.5790572,41.0,85.0
1426,274.1185307,274.64320196250003,55.0,127.0
1427,274.51326770000003,274.852083625,57.0,117.0
1428,274.3158992,274.8899125875,48.0,117.0
1429,275.20405745,275.41622858750003,50.0,59.0
1430,275.3027417,275.71228133750003,55.0,92.0
1431,275.59879445,275.9080051,50.0,75.0
1432,275.6974787,276.161294675,58.0,117.0
1433,274.9080047,276.3027421,43.0,77.0
1434,275.99353145,276.477084275,50.0,42.0
1435,276.0922157,276.483663225,55.0,66.0
1436,276.2895842,276.5247816625,58.0,96.0
1437,275.6974787,276.5478079875,62.0,100.0
1438,276.78300545,277.0050450125,50.0,63.0
1439,276.8816897,277.319189875,55.0,96.0
1440,277.17774245,277.41458465,50.0,79.0
1441,277.4737952,277.6711637,50.0,62.0
1442,276.4869527,277.6859663375,43.0,86.0
1443,277.2764267,277.727084775,58.0,122.0
1444,277.2764267,278.0083348875,62.0,102.0
1445,277.6711637,278.016558575,55.0,93.0
1446,277.8685322,278.029716475,58.0,102.0
1447,278.2632692,278.4853087625,48.0,59.0
1448,278.4606377,278.9211642,53.0,92.0
1449,278.75669045,279.0214931875,48.0,53.0
1450,279.0527432,279.2780722375,48.0,82.0
1451,278.8553747,279.325769625,57.0,107.0
1452,278.0659007,279.3701775375,41.0,74.0
1453,278.8553747,279.5527434,60.0,107.0
1454,279.2501117,279.6448487,53.0,92.0
1455,279.54616445,279.6448487,57.0,90.0
