,start,end,pitch,velocity
0,16.435416666666665,16.81458333333333,70.0,87.0
1,16.935416666666665,17.802083333333332,70.0,78.0
2,17.935416666666665,18.39375,67.0,80.0
3,18.435416666666665,18.883333333333333,65.0,80.0
4,19.185416666666665,19.435416666666665,70.0,78.0
5,19.435416666666665,19.9,65.0,77.0
6,19.935416666666665,20.3125,63.0,77.0
7,20.435416666666665,20.827083333333334,65.0,80.0
8,20.935416666666665,21.47083333333333,65.0,80.0
9,21.435416666666665,21.935416666666665,60.0,77.0
10,21.935416666666665,22.3375,58.0,73.0
11,22.435416666666665,24.160416666666666,58.0,76.0
12,24.435416666666665,24.870833333333334,63.0,80.0
13,24.935416666666665,25.741666666666667,63.0,78.0
14,25.935416666666665,26.210416666666667,63.0,76.0
15,26.204166666666666,26.397916666666667,60.0,70.0
16,26.435416666666665,27.1125,63.0,79.0
17,27.185416666666665,27.3375,70.0,78.0
18,27.435416666666665,27.672916666666666,70.0,78.0
19,27.672916666666666,27.891666666666666,60.0,70.0
20,27.935416666666665,28.339583333333334,63.0,77.0
21,28.435416666666665,28.83125,67.0,76.0
22,28.920833333333334,29.125,65.0,71.0
23,29.185416666666665,29.435416666666665,65.0,78.0
24,29.435416666666665,31.47083333333333,65.0,79.0
25,32.43541666666667,32.8,70.0,78.0
26,32.93541666666667,33.83125,70.0,78.0
27,33.93541666666667,34.327083333333334,67.0,80.0
28,34.43541666666667,35.04375,72.0,77.0
29,35.18541666666667,35.3375,72.0,77.0
30,35.43541666666667,35.78958333333333,72.0,78.0
31,35.93541666666667,36.2875,70.0,79.0
32,36.43541666666667,36.78541666666666,72.0,77.0
33,36.93541666666667,37.354166666666664,67.0,76.0
34,37.43541666666667,37.97708333333333,67.0,77.0
35,37.93541666666667,38.34375,65.0,76.0
36,38.43541666666667,38.87291666666667,65.0,80.0
37,38.93541666666667,39.18541666666667,63.0,76.0
38,39.18541666666667,39.46875,62.0,71.0
39,39.43541666666667,40.30416666666667,60.0,77.0
40,40.43541666666667,41.18541666666667,65.0,78.0
41,41.18541666666667,41.2875,65.0,80.0
42,41.43541666666667,41.81666666666666,65.0,78.0
43,41.93541666666667,42.31041666666667,65.0,78.0
44,42.43541666666667,42.83541666666667,65.0,80.0
45,42.93541666666667,44.233333333333334,70.0,81.0
46,44.43541666666667,44.93541666666667,60.0,78.0
47,44.93541666666667,47.704166666666666,58.0,73.0
48,48.43541666666667,49.16041666666666,67.0,77.0
49,49.18541666666667,49.4,65.0,78.0
50,49.43541666666667,49.84166666666667,67.0,71.0
51,49.93541666666667,50.36666666666667,65.0,78.0
52,50.43541666666667,51.45625,67.0,77.0
53,52.43541666666667,52.891666666666666,60.0,82.0
54,52.93541666666667,54.08125,67.0,75.0
55,54.18541666666667,54.4,60.0,76.0
56,54.43541666666667,54.833333333333336,63.0,76.0
57,54.93541666666667,56.19583333333333,63.0,77.0
58,56.43541666666667,57.13125,65.0,76.0
59,57.18541666666667,57.3375,63.0,76.0
60,57.43541666666667,57.84166666666667,65.0,81.0
61,57.93541666666667,58.42916666666667,65.0,78.0
62,58.43541666666667,58.86875,63.0,77.0
63,58.93541666666667,59.81458333333333,70.0,78.0
64,59.93541666666667,60.452083333333334,67.0,74.0
65,60.43541666666667,60.90833333333333,70.0,77.0
66,60.93541666666667,63.89375,65.0,77.0
67,64.43541666666667,65.33125,67.0,76.0
68,65.43541666666667,66.175,67.0,78.0
69,66.43541666666667,66.82708333333333,67.0,75.0
70,66.93541666666667,67.80833333333334,67.0,77.0
71,67.93541666666667,68.3125,67.0,81.0
72,68.43541666666667,68.8875,67.0,75.0
73,68.93541666666667,69.88125,70.0,77.0
74,69.93541666666667,70.41458333333333,62.0,79.0
75,70.43541666666667,70.93541666666667,60.0,77.0
76,70.93541666666667,71.47916666666667,58.0,72.0
77,71.43541666666667,72.19166666666666,60.0,76.0
78,72.93541666666667,73.34791666666666,60.0,82.0
79,73.43541666666667,73.81458333333333,60.0,78.0
80,73.93541666666667,74.30208333333333,60.0,80.0
81,74.43541666666667,75.27464924166667,65.0,79.0
82,75.44061540416666,76.36708474166666,65.0,79.0
83,76.44901740416667,76.82926899166667,58.0,77.0
84,76.95321840416666,77.45741940416666,58.0,78.0
85,77.45741940416666,77.91750281666667,58.0,78.0
86,77.96162040416667,78.32506529166666,60.0,82.0
87,78.46582140416666,80.01854946249999,58.0,78.0
88,80.45863186874999,80.94623491041666,72.0,79.0
89,80.95449936874999,81.93729892083333,70.0,82.0
90,81.9539655875,82.19563225416665,67.0,77.0
91,82.2039655875,82.34354892083333,65.0,80.0
92,82.4539655875,82.9539655875,65.0,80.0
93,82.9539655875,84.25813225416665,63.0,76.0
94,84.4539655875,84.77271558749999,72.0,78.0
95,84.9539655875,85.93938225416666,70.0,71.0
96,85.9539655875,86.20188225416666,67.0,79.0
97,86.2039655875,86.37063225416665,65.0,77.0
98,86.4539655875,86.91854892083333,65.0,82.0
99,86.9539655875,88.32479892083333,63.0,77.0
100,88.9539655875,89.32479892083333,65.0,81.0
101,89.4539655875,89.80188225416666,65.0,79.0
102,89.9539655875,90.2789655875,65.0,82.0
103,90.4539655875,91.1664655875,70.0,76.0
104,91.2039655875,91.4164655875,67.0,77.0
105,91.4539655875,92.2477155875,70.0,79.0
106,92.4539655875,92.88729892083333,63.0,77.0
107,92.9539655875,93.4789655875,63.0,78.0
108,93.4539655875,93.90813225416666,60.0,75.0
109,93.9539655875,94.12063225416665,63.0,77.0
110,94.2039655875,94.4039655875,63.0,76.0
111,94.4539655875,94.92688225416666,65.0,77.0
112,94.9539655875,95.47271558749999,67.0,67.0
113,95.4539655875,96.30396558749999,65.0,79.0
114,96.9539655875,97.30396558749999,65.0,82.0
115,97.4539655875,97.79354892083333,65.0,77.0
116,97.9539655875,98.30396558749999,65.0,79.0
117,98.4539655875,99.1414655875,70.0,74.0
118,99.2039655875,99.4164655875,67.0,76.0
119,99.4539655875,100.27063225416666,70.0,79.0
120,100.4539655875,100.89563225416666,67.0,78.0
121,100.9539655875,101.36646558749999,75.0,83.0
122,101.4539655875,101.94563225416665,72.0,77.0
123,101.9539655875,102.07479892083333,70.0,76.0
124,102.2039655875,102.3727155875,67.0,76.0
125,102.4539655875,102.92896558749999,70.0,80.0
126,102.9539655875,104.05813225416665,65.0,80.0
127,104.9539655875,105.4539655875,67.0,79.0
128,105.4539655875,105.77479892083332,67.0,77.0
129,105.9539655875,106.31229892083333,67.0,81.0
130,106.4539655875,106.81854892083332,67.0,78.0
131,106.9539655875,107.3727155875,70.0,80.0
132,107.4539655875,108.43313225416665,58.0,77.0
133,108.4539655875,109.00604892083332,60.0,78.0
134,109.2039655875,109.38104892083332,60.0,75.0
135,109.4539655875,109.80396558749999,60.0,76.0
136,109.9539655875,110.2664655875,60.0,76.0
137,110.4539655875,111.02479892083332,60.0,77.0
138,111.2039655875,111.3914655875,60.0,76.0
139,111.4539655875,111.8602155875,60.0,79.0
140,111.9539655875,112.4164655875,60.0,76.0
141,112.4539655875,112.92063225416666,60.0,68.0
142,112.9539655875,113.56021558749998,65.0,83.0
143,113.7039655875,114.0477155875,60.0,80.0
144,114.2039655875,114.43729892083333,60.0,72.0
145,114.4539655875,116.32063225416667,58.0,77.0
146,148.58423771666668,148.96340438333334,70.0,87.0
147,149.08423771666668,149.95090438333332,70.0,78.0
148,150.08423771666668,150.54257105,67.0,80.0
149,150.58423771666668,151.03215438333334,65.0,80.0
150,151.33423771666668,151.58423771666668,70.0,78.0
151,151.58423771666668,152.04882105,65.0,77.0
152,152.08423771666668,152.46132105,63.0,77.0
153,152.58423771666668,152.97590438333333,65.0,80.0
154,153.08423771666668,153.61965438333334,65.0,80.0
155,153.58423771666668,154.08423771666668,60.0,77.0
156,154.08423771666668,154.48632105,58.0,73.0
157,154.58423771666668,156.30923771666667,58.0,76.0
158,156.58423771666668,157.01965438333332,63.0,80.0
159,157.08423771666668,157.89048771666666,63.0,78.0
160,158.08423771666668,158.36757105,63.0,76.0
161,158.32173771666666,158.57173771666666,60.0,71.0
162,158.58423771666668,159.26132105,63.0,79.0
163,159.33423771666668,159.48632105,70.0,78.0
164,159.58423771666668,159.99257105,70.0,78.0
165,159.81757105,160.04048771666666,60.0,75.0
166,160.08423771666668,160.48840438333332,63.0,77.0
167,160.58423771666668,160.98007105,67.0,76.0
168,161.07382105,161.25090438333334,65.0,75.0
169,161.33423771666668,161.58423771666668,65.0,78.0
170,161.58423771666668,163.61965438333334,65.0,79.0
171,164.58423771666668,164.94882105,70.0,78.0
172,165.08423771666668,165.98007105,70.0,78.0
173,166.08423771666668,166.47590438333333,67.0,80.0
174,166.58423771666668,167.19257105,72.0,77.0
175,167.33423771666668,167.48632105000002,72.0,77.0
176,167.58423771666668,167.93840438333334,72.0,78.0
177,168.08423771666668,168.43632105,70.0,79.0
178,168.58423771666668,168.93423771666667,72.0,77.0
179,169.08423771666668,169.50298771666667,67.0,76.0
180,169.40507105,169.51965438333332,70.0,74.0
181,169.58423771666668,169.82382105,67.0,77.0
182,169.95715438333332,170.08215438333332,70.0,74.0
183,170.08423771666668,170.49257105,65.0,73.0
184,170.58423771666668,171.02173771666668,65.0,80.0
185,171.08423771666668,171.33423771666668,63.0,76.0
186,171.33423771666668,171.61757105,62.0,71.0
187,171.58423771666668,172.45298771666666,60.0,77.0
188,172.58423771666668,173.33423771666668,65.0,78.0
189,173.33423771666668,173.43632105,65.0,80.0
190,173.58423771666668,173.96548771666667,65.0,78.0
191,174.08423771666668,174.45923771666668,65.0,78.0
192,174.58423771666668,174.98423771666666,65.0,80.0
193,175.09257105,175.27173771666668,67.0,76.0
194,175.34257105,176.10715438333332,70.0,81.0
195,176.06340438333334,176.64257105000002,60.0,84.0
196,176.58423771666668,176.64257105000002,60.0,78.0
197,177.08423771666668,179.85298771666666,58.0,73.0
198,180.58423771666668,181.30923771666667,67.0,77.0
199,181.33423771666668,181.54882105000002,65.0,78.0
200,181.58423771666668,181.99048771666668,67.0,71.0
201,182.08423771666668,182.51548771666666,65.0,78.0
202,182.58423771666668,183.60507105,67.0,77.0
203,184.58423771666668,185.04048771666666,60.0,82.0
204,185.84673771666667,186.13215438333333,60.0,79.0
205,185.08423771666668,186.23007105,67.0,75.0
206,186.33423771666668,186.54882105000002,60.0,76.0
207,186.58423771666668,186.98215438333332,63.0,76.0
208,187.08423771666668,188.34465438333334,63.0,77.0
209,188.58423771666668,189.28007105,65.0,76.0
210,189.33423771666668,189.48632105000002,65.0,76.0
211,189.58423771666668,189.99048771666668,65.0,81.0
212,190.08423771666668,190.28007105,65.0,78.0
213,190.33215438333332,190.68007105,65.0,74.0
214,190.58423771666668,191.01757105000002,63.0,77.0
215,191.08423771666668,191.96340438333334,70.0,78.0
216,192.08423771666668,192.60090438333333,67.0,74.0
217,192.58423771666668,193.05715438333334,70.0,77.0
218,193.08423771666668,196.04257105,65.0,77.0
219,196.58423771666668,197.48007105,67.0,76.0
220,197.58423771666668,198.32382105,67.0,78.0
221,198.58423771666668,198.97590438333333,67.0,75.0
222,199.08423771666668,199.95715438333332,67.0,77.0
223,200.58423771666668,201.03632105,67.0,75.0
224,201.08423771666668,202.03007105,70.0,77.0
225,202.08423771666668,202.56340438333334,62.0,79.0
226,202.58423771666668,203.08423771666668,60.0,77.0
227,203.08423771666668,203.62798771666667,58.0,72.0
228,203.58423771666668,204.34048771666667,60.0,76.0
229,205.08423771666668,205.49673771666667,60.0,82.0
230,205.58423771666668,205.96340438333334,60.0,78.0
231,206.08423771666668,206.45090438333332,60.0,80.0
232,206.58423771666668,207.41965438333332,65.0,79.0
233,207.58423771666668,208.50298771666667,65.0,79.0
234,208.58423771666668,208.96132105,58.0,77.0
235,209.08423771666668,209.58423771666668,58.0,78.0
236,209.58423771666668,210.04048771666666,58.0,78.0
237,210.08423771666668,210.44465438333333,60.0,82.0
238,210.58423771666668,212.14048771666666,58.0,78.0
239,212.58423771666668,213.07590438333335,72.0,79.0
240,213.08423771666668,214.06757105,70.0,82.0
241,214.08423771666668,214.32590438333335,67.0,77.0
242,214.33423771666668,214.47382105,65.0,80.0
243,214.58423771666668,215.08423771666668,65.0,80.0
244,215.08423771666668,216.21965438333334,63.0,76.0
245,216.08215438333332,216.33632104999998,60.0,82.0
246,216.31548771666667,216.49465438333334,58.0,82.0
247,216.58423771666668,216.90298771666667,72.0,78.0
248,217.08423771666668,218.06965438333333,70.0,71.0
249,218.08423771666668,218.33215438333332,67.0,79.0
250,218.33423771666668,218.50090438333334,65.0,77.0
251,218.58423771666668,219.04882105000002,65.0,82.0
252,219.08423771666668,220.45507105000002,63.0,77.0
253,221.08423771666668,221.45507105000002,65.0,81.0
254,221.58423771666668,221.93215438333334,65.0,79.0
255,222.08423771666668,222.40923771666667,65.0,82.0
256,222.58423771666668,223.29673771666666,70.0,76.0
257,223.33423771666668,223.54673771666666,67.0,77.0
258,223.58423771666668,224.37798771666667,70.0,79.0
259,224.58423771666668,225.01757105000002,63.0,77.0
260,225.08423771666668,225.60923771666666,63.0,78.0
261,225.58423771666668,226.03840438333333,60.0,75.0
262,226.08423771666668,226.25090438333334,63.0,77.0
263,226.33423771666668,226.53423771666667,63.0,76.0
264,226.58423771666668,227.05715438333334,65.0,77.0
265,227.08423771666668,227.38007105,67.0,67.0
266,227.34465438333334,228.43423771666667,65.0,79.0
267,229.08423771666668,229.43423771666667,65.0,82.0
268,229.58423771666668,229.92382105000002,65.0,77.0
269,230.08423771666668,230.43423771666667,65.0,79.0
270,230.58423771666668,231.27173771666668,70.0,74.0
271,231.33423771666668,231.54673771666666,67.0,76.0
272,231.58423771666668,232.40090438333334,70.0,79.0
273,232.58423771666668,233.02590438333334,67.0,78.0
274,233.08423771666668,233.49673771666667,75.0,83.0
275,233.58423771666668,234.07590438333335,72.0,77.0
276,234.08423771666668,234.20507105000002,70.0,76.0
277,234.33423771666668,234.50298771666667,70.0,76.0
278,234.58423771666668,235.05923771666667,70.0,80.0
279,235.08423771666668,236.18840438333334,65.0,80.0
280,237.08423771666668,237.58423771666668,67.0,79.0
281,237.58423771666668,237.90507105,67.0,77.0
282,238.08423771666668,238.44257105,67.0,81.0
283,238.58423771666668,238.94882105,67.0,78.0
284,239.08423771666668,239.50298771666667,70.0,80.0
285,239.58423771666668,240.56340438333334,58.0,77.0
286,240.58423771666668,241.13632105,60.0,78.0
287,241.33423771666668,241.51132105,60.0,75.0
288,241.58423771666668,241.93423771666667,60.0,76.0
289,242.08423771666668,242.39673771666668,60.0,76.0
290,242.58423771666668,243.15507105,60.0,77.0
291,243.33423771666668,243.52173771666668,60.0,76.0
292,243.58423771666668,243.99048771666668,60.0,79.0
293,244.08423771666668,244.54673771666666,60.0,76.0
294,244.58423771666668,245.05090438333332,60.0,68.0
295,245.08465965,245.69858356249998,65.0,83.0
296,245.84415314999998,246.19225433749997,60.0,80.0
297,246.35048214999998,246.58676901666666,60.0,72.0
298,246.60364664999997,246.90825536249997,60.0,77.0
299,247.12193015416665,248.51504434791664,58.0,77.0
300,248.65121448124995,249.15334184791664,72.0,79.0
301,249.16185248124995,250.1661072145833,70.0,82.0
302,250.18312848124995,250.42993684791662,67.0,77.0
303,250.43844748124997,250.58100058958328,65.0,80.0
304,250.69376648124995,251.20440448124995,65.0,80.0
305,251.20440448124995,252.1703613645833,63.0,76.0
306,252.19376560624997,252.48721198124997,60.0,85.0
307,252.42603056041665,252.58214866874997,58.0,85.0
308,252.7319376645833,253.0547224020833,72.0,78.0
309,253.2382666645833,254.23615673541664,70.0,71.0
310,254.2509246645833,254.50197946041663,67.0,79.0
311,254.5040891645833,254.67286549791663,65.0,77.0
312,254.75725366458332,255.22771769374998,65.0,82.0
313,255.2635826645833,256.65176800625,63.0,77.0
314,256.69607179375,260.59480509375,65.0,92.0
315,260.79100758124997,268.0230734645833,70.0,82.0
