,start,end,pitch,velocity
0,0.39375,0.49374999999999997,39.0,78.0
1,0.26875,0.6083333333333333,58.0,63.0
2,0.3458333333333333,0.8645833333333334,63.0,70.0
3,0.4145833333333333,0.9479166666666666,67.0,67.0
4,1.4729166666666667,1.6708333333333334,63.0,67.0
5,1.4625,1.6916666666666667,70.0,70.0
6,2.1916666666666664,2.3604166666666666,63.0,61.0
7,2.2604166666666665,2.377083333333333,67.0,58.0
8,2.34375,2.45625,70.0,66.0
9,2.4229166666666666,2.5520833333333335,75.0,83.0
10,0.90625,2.8979166666666667,51.0,71.0
11,4.4,4.489583333333333,45.0,71.0
12,4.279166666666667,5.65625,69.0,49.0
13,4.3625,5.68125,72.0,72.0
14,4.425,5.9375,75.0,75.0
15,6.439583333333333,7.675,72.0,80.0
16,6.36875,7.7375,63.0,73.0
17,6.3875,7.7375,67.0,61.0
18,6.30625,7.772916666666666,60.0,61.0
19,6.402083333333334,7.779166666666667,48.0,76.0
20,8.41875,8.991666666666667,62.0,72.0
21,8.275,9.0375,55.0,69.0
22,8.379166666666666,9.445833333333333,58.0,67.0
23,8.927083333333334,9.502083333333333,50.0,54.0
24,8.402083333333334,9.529166666666667,43.0,80.0
25,9.408333333333333,9.591666666666667,55.0,76.0
26,10.20625,10.4,53.0,67.0
27,10.279166666666667,10.445833333333333,57.0,66.0
28,10.38125,10.4875,41.0,77.0
29,10.352083333333333,10.510416666666666,60.0,69.0
30,10.404166666666667,10.822916666666666,65.0,65.0
31,11.125,11.61875,57.0,75.0
32,10.895833333333334,11.68125,53.0,76.0
33,11.43125,11.733333333333333,60.0,78.0
34,11.639583333333333,12.204166666666666,65.0,77.0
35,11.8875,12.252083333333333,69.0,78.0
36,12.116666666666667,12.43125,72.0,71.0
37,13.393749999999999,13.88125,63.0,76.0
38,13.877083333333333,13.997916666666667,65.0,82.0
39,12.891666666666666,14.0875,53.0,78.0
40,12.41875,14.164583333333333,46.0,76.0
41,14.299999999999999,14.5875,58.0,62.0
42,14.347916666666666,14.858333333333333,62.0,64.0
43,14.40625,15.0125,65.0,65.0
44,14.456249999999999,15.039583333333333,70.0,64.0
45,14.941666666666666,16.285416666666666,53.0,72.0
46,14.404166666666667,16.289583333333333,46.0,76.0
47,15.422916666666666,16.302083333333332,62.0,70.0
48,15.427083333333334,16.31458333333333,58.0,74.0
49,15.424999999999999,16.320833333333333,65.0,77.0
50,16.435416666666665,16.777083333333334,58.0,66.0
51,16.435416666666665,16.9875,63.0,71.0
52,17.435416666666665,17.685416666666665,63.0,77.0
53,17.435416666666665,17.7125,67.0,76.0
54,16.935416666666665,17.922916666666666,46.0,57.0
55,16.435416666666665,17.985416666666666,39.0,78.0
56,18.435416666666665,18.789583333333333,63.0,77.0
57,18.435416666666665,18.9,67.0,78.0
58,18.935416666666665,19.147916666666667,58.0,74.0
59,19.435416666666665,19.958333333333332,63.0,77.0
60,19.435416666666665,19.975,67.0,77.0
61,19.435416666666665,20.0125,58.0,75.0
62,19.935416666666665,20.039583333333333,39.0,77.0
63,20.435416666666665,21.027083333333334,62.0,68.0
64,20.435416666666665,21.289583333333333,58.0,71.0
65,21.435416666666665,21.547916666666666,62.0,77.0
66,20.935416666666665,21.597916666666666,53.0,58.0
67,21.435416666666665,21.6,65.0,78.0
68,20.435416666666665,21.685416666666665,46.0,77.0
69,21.935416666666665,22.529166666666665,53.0,70.0
70,22.435416666666665,22.9125,62.0,68.0
71,22.435416666666665,22.93125,65.0,76.0
72,22.435416666666665,23.00208333333333,58.0,65.0
73,23.435416666666665,23.754166666666666,58.0,73.0
74,23.435416666666665,23.8125,62.0,77.0
75,23.435416666666665,23.910416666666666,65.0,79.0
76,22.935416666666665,24.004166666666666,53.0,52.0
77,23.935416666666665,24.39375,62.0,79.0
78,24.435416666666665,24.683333333333334,63.0,75.0
79,24.435416666666665,24.920833333333334,60.0,70.0
80,24.935416666666665,25.558333333333334,55.0,69.0
81,25.435416666666665,25.870833333333334,67.0,72.0
82,25.435416666666665,25.912499999999998,60.0,76.0
83,25.935416666666665,26.572916666666668,55.0,57.0
84,26.435416666666665,26.972916666666666,63.0,71.0
85,26.435416666666665,27.004166666666666,60.0,71.0
86,27.435416666666665,27.991666666666667,63.0,77.0
87,26.935416666666665,28.00208333333333,55.0,64.0
88,27.435416666666665,28.006249999999998,67.0,79.0
89,24.435416666666665,28.097916666666666,48.0,76.0
90,27.935416666666665,28.097916666666666,60.0,77.0
91,28.435416666666665,29.520833333333332,58.0,70.0
92,28.935416666666665,29.729166666666668,53.0,71.0
93,28.435416666666665,29.947916666666668,62.0,65.0
94,29.435416666666665,29.98125,65.0,77.0
95,29.935416666666665,30.506249999999998,58.0,75.0
96,30.435416666666665,30.7,62.0,75.0
97,30.435416666666665,30.7125,70.0,72.0
98,30.435416666666665,30.724999999999998,65.0,78.0
99,31.435416666666665,31.660416666666666,65.0,80.0
100,31.435416666666665,31.670833333333334,62.0,77.0
101,30.935416666666665,31.672916666666666,53.0,71.0
102,31.435416666666665,31.7125,58.0,70.0
103,28.435416666666665,31.758333333333333,46.0,77.0
104,31.935416666666665,32.520833333333336,58.0,82.0
105,32.43541666666667,32.8625,63.0,74.0
106,32.93541666666667,33.202083333333334,58.0,76.0
107,32.43541666666667,33.60625,39.0,78.0
108,33.43541666666667,33.96458333333333,67.0,77.0
109,33.43541666666667,33.97708333333333,63.0,75.0
110,33.93541666666667,34.50416666666666,58.0,76.0
111,34.43541666666667,34.983333333333334,67.0,74.0
112,34.43541666666667,35.045833333333334,63.0,76.0
113,34.93541666666667,35.264583333333334,58.0,68.0
114,35.43541666666667,35.55833333333333,63.0,76.0
115,34.43541666666667,35.65625,51.0,70.0
116,35.43541666666667,35.66041666666666,58.0,77.0
117,35.43541666666667,35.71041666666667,67.0,68.0
118,35.93541666666667,36.46458333333333,62.0,83.0
119,36.43541666666667,36.854166666666664,63.0,76.0
120,36.43541666666667,37.11666666666667,60.0,73.0
121,36.93541666666667,37.62083333333333,55.0,68.0
122,37.43541666666667,37.9,63.0,78.0
123,37.43541666666667,37.922916666666666,60.0,77.0
124,37.43541666666667,37.94583333333333,67.0,78.0
125,37.93541666666667,38.58125,55.0,65.0
126,38.43541666666667,38.71458333333333,60.0,73.0
127,38.43541666666667,38.94166666666666,63.0,70.0
128,38.93541666666667,39.50625,60.0,70.0
129,39.43541666666667,39.6875,55.0,65.0
130,36.43541666666667,39.8375,48.0,75.0
131,39.43541666666667,39.954166666666666,63.0,73.0
132,39.93541666666667,40.30416666666667,60.0,68.0
133,40.43541666666667,40.97083333333333,65.0,73.0
134,40.93541666666667,41.260416666666664,60.0,71.0
135,41.43541666666667,41.672916666666666,60.0,78.0
136,40.43541666666667,41.73125,41.0,76.0
137,41.43541666666667,42.077083333333334,65.0,77.0
138,41.93541666666667,42.375,60.0,69.0
139,42.43541666666667,42.99791666666667,68.0,64.0
140,42.43541666666667,43.045833333333334,65.0,72.0
141,42.93541666666667,43.21666666666667,60.0,76.0
142,42.43541666666667,43.733333333333334,41.0,77.0
143,43.43541666666667,43.87916666666666,65.0,77.0
144,43.43541666666667,43.8875,60.0,80.0
145,43.93541666666667,44.08541666666667,41.0,79.0
146,44.43541666666667,45.03333333333333,62.0,67.0
147,44.43541666666667,45.06041666666667,58.0,72.0
148,44.93541666666667,45.50625,65.0,75.0
149,45.43541666666667,46.03541666666666,70.0,79.0
150,44.43541666666667,46.28958333333333,46.0,76.0
151,45.93541666666667,46.60208333333333,58.0,79.0
152,46.43541666666667,46.83125,62.0,67.0
153,46.43541666666667,47.25,65.0,76.0
154,47.43541666666667,47.90416666666667,63.0,76.0
155,46.43541666666667,47.925,46.0,76.0
156,46.93541666666667,47.98125,53.0,76.0
157,47.93541666666667,48.27916666666667,62.0,83.0
158,48.43541666666667,48.69583333333333,58.0,72.0
159,48.43541666666667,48.97291666666666,67.0,74.0
160,48.93541666666667,49.125,58.0,73.0
161,49.43541666666667,49.7,58.0,76.0
162,49.43541666666667,49.8375,67.0,76.0
163,49.93541666666667,50.175,65.0,79.0
164,48.43541666666667,50.19375,39.0,79.0
165,50.43541666666667,51.22708333333333,58.0,72.0
166,50.43541666666667,51.40208333333333,67.0,74.0
167,50.93541666666667,51.675,46.0,65.0
168,51.43541666666667,51.74166666666667,58.0,81.0
169,50.43541666666667,51.75833333333333,39.0,78.0
170,51.43541666666667,51.887499999999996,63.0,78.0
171,51.93541666666667,52.05833333333333,39.0,80.0
172,52.43541666666667,53.025,60.0,72.0
173,52.43541666666667,53.052083333333336,63.0,72.0
174,53.43541666666667,53.739583333333336,63.0,77.0
175,53.43541666666667,53.77291666666667,60.0,74.0
176,53.43541666666667,53.83541666666667,67.0,77.0
177,53.93541666666667,54.175,65.0,66.0
178,52.93541666666667,54.2125,55.0,63.0
179,52.43541666666667,54.229166666666664,48.0,76.0
180,54.18541666666667,54.489583333333336,63.0,78.0
181,54.43541666666667,54.93125,65.0,72.0
182,54.93541666666667,55.49375,63.0,75.0
183,55.43541666666667,56.00625,60.0,85.0
184,54.43541666666667,56.016666666666666,48.0,77.0
185,55.93541666666667,56.041666666666664,55.0,68.0
186,56.43541666666667,57.16458333333333,65.0,76.0
187,57.43541666666667,57.59375,60.0,77.0
188,57.43541666666667,57.697916666666664,65.0,78.0
189,56.93541666666667,57.92916666666667,48.0,70.0
190,56.43541666666667,58.14791666666667,41.0,77.0
191,57.93541666666667,58.239583333333336,56.0,71.0
192,58.43541666666667,58.75,56.0,74.0
193,58.43541666666667,59.475,60.0,74.0
194,58.43541666666667,59.72291666666666,41.0,77.0
195,59.93541666666667,60.05625,41.0,79.0
196,59.93541666666667,60.110416666666666,56.0,74.0
197,59.43541666666667,60.3625,65.0,83.0
198,60.43541666666667,60.80625,58.0,65.0
199,60.43541666666667,60.80833333333333,62.0,75.0
200,60.93541666666667,62.135416666666664,53.0,77.0
201,60.43541666666667,62.141666666666666,46.0,76.0
202,61.43541666666667,62.141666666666666,65.0,78.0
203,61.93541666666667,62.53541666666666,58.0,77.0
204,62.43541666666667,62.775,70.0,77.0
205,62.43541666666667,63.208333333333336,46.0,78.0
206,62.93541666666667,63.24375,53.0,70.0
207,62.93541666666667,63.49375,72.0,77.0
208,63.43541666666667,63.547916666666666,53.0,73.0
209,63.43541666666667,63.55,70.0,80.0
210,63.43541666666667,63.60208333333333,46.0,75.0
211,63.68541666666667,63.85208333333333,67.0,83.0
212,63.93541666666667,64.17083333333333,65.0,90.0
213,64.18541666666667,64.34791666666666,63.0,77.0
214,64.43541666666667,64.625,39.0,79.0
215,64.43541666666667,64.78958333333333,63.0,76.0
216,64.43541666666667,64.98333333333333,67.0,77.0
217,65.43541666666667,65.48125,67.0,58.0
218,64.93541666666667,65.5625,51.0,77.0
219,65.43541666666667,65.74791666666667,58.0,75.0
220,65.43541666666667,65.89583333333333,63.0,74.0
221,65.93541666666667,66.45208333333333,55.0,62.0
222,66.43541666666667,66.6125,58.0,73.0
223,66.43541666666667,66.65,63.0,74.0
224,66.43541666666667,66.77916666666667,67.0,68.0
225,66.43541666666667,67.67083333333333,51.0,76.0
226,66.93541666666667,67.76666666666667,58.0,63.0
227,67.43541666666667,67.85625,67.0,80.0
228,67.43541666666667,67.88541666666667,63.0,78.0
229,67.93541666666667,68.03125,51.0,79.0
230,68.43541666666667,69.12083333333334,62.0,68.0
231,68.43541666666667,69.25416666666666,55.0,71.0
232,68.93541666666667,69.60208333333333,50.0,72.0
233,68.43541666666667,69.62916666666666,43.0,80.0
234,69.43541666666667,69.65,58.0,79.0
235,69.43541666666667,69.67083333333333,55.0,77.0
236,69.43541666666667,69.7875,62.0,77.0
237,69.93541666666667,70.01875,43.0,77.0
238,70.43541666666667,71.15,60.0,71.0
239,70.43541666666667,71.175,63.0,76.0
240,70.93541666666667,71.56041666666667,55.0,77.0
241,70.43541666666667,71.67083333333333,48.0,78.0
242,71.43541666666667,71.77916666666667,60.0,77.0
243,71.43541666666667,72.01875,63.0,77.0
244,71.93541666666667,72.27291666666666,48.0,78.0
245,71.43541666666667,72.32291666666667,67.0,73.0
246,72.43541666666667,73.14375,60.0,64.0
247,72.43541666666667,73.15208333333334,63.0,72.0
248,72.93541666666667,73.58958333333334,55.0,72.0
249,72.43541666666667,73.66041666666666,48.0,76.0
250,73.43541666666667,73.67083333333333,60.0,76.0
251,73.43541666666667,73.91875,67.0,77.0
252,73.43541666666667,73.92083333333333,63.0,76.0
253,73.93541666666667,74.53958333333333,60.0,80.0
254,74.43541666666667,74.96372529166666,65.0,78.0
255,74.93641440416667,75.32296850416667,60.0,80.0
256,75.44061540416666,75.72212762916666,65.0,79.0
257,75.44061540416666,75.87969044166667,48.0,70.0
258,74.43541666666667,75.93011054166666,41.0,77.0
259,75.69271590416666,75.95952226666667,63.0,82.0
260,75.94481640416666,76.19061439166666,60.0,83.0
261,76.44901740416667,76.88809244166666,58.0,69.0
262,76.44901740416667,77.07086530416666,63.0,71.0
263,76.95321840416666,77.68851152916666,53.0,82.0
264,77.45741940416666,77.95741872916666,65.0,78.0
265,77.45741940416666,78.00363715416667,58.0,76.0
266,76.44901740416667,78.16540164166666,46.0,76.0
267,77.96162040416667,78.30195607916666,63.0,78.0
268,78.46582140416666,78.83766964166666,65.0,77.0
269,78.46582140416666,78.83977047916666,58.0,72.0
270,78.97002240416666,79.33259942083332,58.0,74.0
271,78.97002240416666,79.43590515,53.0,78.0
272,78.46582140416666,79.45450018124998,46.0,78.0
273,79.46689686874998,79.89251647291665,58.0,81.0
274,79.46689686874998,79.98135939999999,70.0,78.0
275,79.71483061874999,80.06607009791665,46.0,81.0
276,79.96276436874999,80.06607009791665,53.0,82.0
277,80.21069811874999,80.35739225416665,58.0,80.0
278,80.45863186874999,80.59499543124998,64.0,73.0
279,80.45863186874999,80.72722676458332,67.0,69.0
280,80.45863186874999,80.76441682708332,70.0,78.0
281,80.70656561874999,81.06438225416666,64.0,69.0
282,80.95449936874999,81.12063225416667,67.0,76.0
283,81.2039655875,81.62688225416666,72.0,80.0
284,80.45863186874999,81.9539655875,40.0,79.0
285,81.4539655875,81.98104892083333,64.0,70.0
286,81.7039655875,82.14354892083333,67.0,72.0
287,81.9539655875,82.33729892083332,72.0,75.0
288,82.2039655875,82.36229892083333,64.0,49.0
289,82.4539655875,82.85813225416666,72.0,76.0
290,82.9539655875,83.27063225416666,65.0,77.0
291,83.2039655875,83.34979892083332,68.0,77.0
292,82.7039655875,83.55604892083332,48.0,63.0
293,83.4539655875,83.76854892083333,65.0,85.0
294,82.4539655875,83.79979892083333,41.0,78.0
295,83.7039655875,83.88313225416665,48.0,75.0
296,83.4539655875,83.94979892083333,68.0,81.0
297,83.9539655875,84.07063225416665,41.0,79.0
298,83.4539655875,84.37688225416666,72.0,81.0
299,84.4539655875,84.62688225416666,70.0,70.0
300,84.4539655875,84.65813225416666,65.0,77.0
301,84.9539655875,85.26854892083333,58.0,71.0
302,84.7039655875,85.54979892083333,53.0,69.0
303,85.2039655875,85.76854892083333,65.0,77.0
304,85.7039655875,85.91229892083332,62.0,78.0
305,85.4539655875,85.94563225416665,58.0,77.0
306,84.4539655875,86.16646558749999,46.0,78.0
307,86.2039655875,86.35813225416666,58.0,76.0
308,85.9539655875,86.41021558749999,70.0,78.0
309,86.4539655875,86.68104892083332,58.0,74.0
310,86.4539655875,86.90813225416666,63.0,77.0
311,86.9539655875,87.27479892083332,58.0,72.0
312,87.2039655875,87.32063225416665,63.0,66.0
313,86.7039655875,87.63104892083332,46.0,65.0
314,86.4539655875,87.77271558749999,39.0,81.0
315,87.9539655875,88.18938225416666,39.0,82.0
316,87.4539655875,88.44979892083333,58.0,77.0
317,87.4539655875,88.47063225416666,63.0,82.0
318,87.4539655875,88.48313225416666,67.0,80.0
319,88.4539655875,88.77479892083332,58.0,71.0
320,88.4539655875,89.22479892083332,70.0,73.0
321,88.9539655875,89.3727155875,58.0,76.0
322,89.2039655875,89.48104892083333,62.0,76.0
323,89.4539655875,89.75813225416665,65.0,73.0
324,89.7039655875,90.05813225416665,58.0,77.0
325,89.9539655875,90.24354892083332,62.0,78.0
326,88.4539655875,90.3227155875,46.0,79.0
327,88.7039655875,90.34979892083332,53.0,71.0
328,90.2039655875,91.02063225416666,65.0,69.0
329,90.4539655875,91.02271558749999,70.0,77.0
330,90.4539655875,91.68313225416665,46.0,78.0
331,91.4539655875,91.69563225416665,58.0,78.0
332,90.9539655875,91.71229892083332,53.0,69.0
333,91.4539655875,91.71229892083332,62.0,85.0
334,91.4539655875,91.75604892083332,65.0,78.0
335,91.9539655875,92.15813225416666,46.0,77.0
336,92.4539655875,93.21021558749999,60.0,76.0
337,92.4539655875,93.3289655875,67.0,69.0
338,92.9539655875,93.58104892083333,55.0,70.0
339,93.4539655875,93.83104892083333,63.0,81.0
340,93.4539655875,93.84771558749999,60.0,77.0
341,94.2039655875,94.2977155875,65.0,61.0
342,93.7039655875,94.33521558749999,55.0,69.0
343,93.9539655875,94.34563225416666,60.0,71.0
344,93.9539655875,94.35188225416665,63.0,77.0
345,92.4539655875,94.40604892083333,48.0,76.0
346,94.4539655875,95.26229892083333,65.0,77.0
347,94.9539655875,95.2914655875,60.0,78.0
348,95.4539655875,95.6539655875,60.0,78.0
349,95.4539655875,95.71854892083333,65.0,80.0
350,94.4539655875,95.82479892083333,53.0,85.0
351,95.7039655875,95.94979892083333,63.0,77.0
352,95.9539655875,96.10604892083333,60.0,78.0
353,96.4539655875,97.2664655875,65.0,77.0
354,96.4539655875,97.3102155875,58.0,70.0
355,97.4539655875,97.74146558749999,70.0,78.0
356,97.7039655875,98.03521558749999,65.0,77.0
357,97.9539655875,98.2664655875,58.0,73.0
358,96.4539655875,98.2789655875,46.0,79.0
359,96.9539655875,98.3102155875,53.0,78.0
360,98.2039655875,99.24979892083333,65.0,73.0
361,98.9539655875,99.30813225416665,58.0,69.0
362,99.2039655875,99.3227155875,62.0,66.0
363,98.7039655875,99.55396558749999,53.0,72.0
364,99.4539655875,99.76229892083333,58.0,76.0
365,98.4539655875,99.77479892083332,46.0,77.0
366,99.4539655875,99.80188225416666,62.0,77.0
367,99.7039655875,99.86229892083333,53.0,76.0
368,99.4539655875,99.93104892083332,70.0,76.0
369,99.4539655875,99.94979892083333,65.0,80.0
370,99.9539655875,100.21854892083333,46.0,78.0
371,100.4539655875,101.06854892083332,60.0,70.0
372,100.4539655875,101.09354892083333,63.0,76.0
373,100.9539655875,101.71229892083332,55.0,67.0
374,100.4539655875,101.75813225416665,48.0,78.0
375,101.4539655875,101.82479892083333,60.0,78.0
376,101.4539655875,101.83521558749999,63.0,81.0
377,101.4539655875,101.8539655875,67.0,79.0
378,101.9539655875,102.0727155875,48.0,80.0
379,102.4539655875,102.74354892083332,60.0,76.0
380,102.4539655875,102.91438225416665,65.0,78.0
381,102.4539655875,103.24979892083333,41.0,79.0
382,102.9539655875,103.2664655875,60.0,77.0
383,103.4539655875,103.68313225416665,65.0,90.0
384,103.4539655875,103.87688225416666,41.0,79.0
385,103.4539655875,103.99354892083332,60.0,83.0
386,103.9539655875,104.24146558749999,63.0,85.0
387,104.4539655875,105.04354892083333,60.0,77.0
388,104.4539655875,105.05396558749999,63.0,78.0
389,104.4539655875,105.06229892083333,67.0,77.0
390,104.9539655875,105.61229892083333,55.0,65.0
391,105.4539655875,105.7039655875,60.0,76.0
392,104.4539655875,105.73104892083333,48.0,80.0
393,105.4539655875,105.93313225416665,63.0,78.0
394,105.4539655875,106.0102155875,67.0,76.0
395,106.4539655875,106.75604892083332,58.0,72.0
396,106.9539655875,107.25396558749999,58.0,57.0
397,106.4539655875,107.35188225416665,67.0,67.0
398,107.4539655875,107.71438225416665,63.0,77.0
399,107.4539655875,107.77063225416666,58.0,77.0
400,106.4539655875,107.8102155875,39.0,78.0
401,107.4539655875,107.81229892083333,46.0,69.0
402,107.9539655875,108.32479892083333,62.0,90.0
403,108.4539655875,108.78313225416666,63.0,76.0
404,108.4539655875,108.97479892083332,60.0,76.0
405,108.9539655875,109.6227155875,55.0,69.0
406,109.4539655875,109.80188225416666,63.0,78.0
407,108.4539655875,109.84354892083333,48.0,77.0
408,109.4539655875,109.84563225416666,67.0,78.0
409,109.9539655875,110.23729892083333,58.0,77.0
410,110.2039655875,110.47688225416665,60.0,78.0
411,110.4539655875,110.94146558749999,63.0,72.0
412,110.9539655875,111.6227155875,46.0,63.0
413,110.4539655875,111.65188225416665,39.0,77.0
414,111.4539655875,111.75813225416665,58.0,77.0
415,111.4539655875,111.81438225416666,63.0,78.0
416,111.9539655875,112.28313225416666,39.0,78.0
417,112.4539655875,112.67063225416666,60.0,72.0
418,112.4539655875,113.10813225416666,65.0,73.0
419,112.9539655875,113.25604892083332,60.0,71.0
420,112.4539655875,113.7602155875,41.0,78.0
421,113.4539655875,113.8539655875,60.0,81.0
422,113.4539655875,113.97479892083332,65.0,85.0
423,113.9539655875,114.21438225416665,63.0,79.0
424,114.2039655875,114.3602155875,60.0,65.0
425,114.4539655875,114.92479892083333,63.0,77.0
426,114.4539655875,115.19979892083333,46.0,77.0
427,114.9539655875,115.24354892083332,58.0,80.0
428,115.4539655875,115.58521558749999,53.0,80.0
429,115.4539655875,115.6414655875,58.0,77.0
430,115.9539655875,116.11646558749999,53.0,92.0
431,115.4539655875,116.12479892083333,46.0,82.0
432,115.4539655875,116.24979892083333,62.0,80.0
433,116.2039655875,116.37688225416666,58.0,87.0
434,116.4539655875,116.77063225416666,58.0,74.0
435,116.4539655875,117.0414655875,63.0,76.0
436,116.9539655875,117.5414655875,46.0,78.0
437,117.4539655875,117.61229892083333,58.0,77.0
438,117.4539655875,117.70604892083333,63.0,82.0
439,116.4539655875,117.7914655875,39.0,78.0
440,117.4539655875,117.82479892083333,67.0,81.0
441,117.7039655875,117.96854892083333,46.0,75.0
442,117.9539655875,118.28729892083332,63.0,72.0
443,118.2039655875,118.34979892083332,58.0,70.0
444,118.4539655875,118.89354892083333,58.0,71.0
445,118.4539655875,119.13104892083332,63.0,77.0
446,119.2039655875,119.33521558749999,58.0,68.0
447,118.9539655875,119.52271558749999,46.0,65.0
448,119.4539655875,119.69146558749999,58.0,79.0
449,119.4539655875,119.72063225416666,63.0,83.0
450,118.4539655875,119.86646558749999,39.0,78.0
451,119.7039655875,119.87688225416666,46.0,67.0
452,119.4539655875,120.0164655875,67.0,77.0
453,119.9539655875,120.28729892083332,58.0,76.0
454,120.4539655875,120.80813225416665,63.0,80.0
455,120.4539655875,120.81854892083332,60.0,77.0
456,120.9539655875,121.20188225416666,63.0,67.0
457,121.2039655875,121.31854892083332,60.0,69.0
458,120.9539655875,121.56229892083333,55.0,68.0
459,121.4539655875,121.75604892083332,60.0,78.0
460,121.4539655875,121.77271558749999,63.0,76.0
461,121.4539655875,121.89771558749999,67.0,73.0
462,121.7039655875,122.0414655875,55.0,67.0
463,120.4539655875,122.0789655875,48.0,78.0
464,121.9539655875,122.31021558749998,63.0,68.0
465,122.2039655875,122.37063225416665,60.0,63.0
466,122.4539655875,122.86854892083332,63.0,72.0
467,122.4539655875,122.87479892083333,60.0,71.0
468,122.9539655875,123.14563225416666,63.0,76.0
469,123.2039655875,123.31854892083332,60.0,71.0
470,122.9539655875,123.52896558749998,55.0,58.0
471,123.4539655875,123.68729892083333,60.0,81.0
472,123.4539655875,123.77063225416666,63.0,85.0
473,123.4539655875,123.7914655875,67.0,78.0
474,122.4539655875,123.82479892083333,48.0,77.0
475,123.7039655875,123.92896558749999,55.0,70.0
476,123.9539655875,124.09146558749998,60.0,78.0
477,124.4539655875,124.78521558749999,60.0,77.0
478,124.4539655875,124.92688225416666,67.0,66.0
479,124.9539655875,125.19563225416667,63.0,71.0
480,125.2039655875,125.28313225416666,60.0,58.0
481,124.7039655875,125.5789655875,55.0,62.0
482,125.4539655875,125.68521558749998,60.0,78.0
483,125.4539655875,125.78521558749999,67.0,80.0
484,124.4539655875,126.14979892083332,48.0,76.0
485,125.9539655875,126.24146558749999,63.0,74.0
486,125.7039655875,126.33938225416665,55.0,64.0
487,126.2039655875,126.35188225416667,60.0,69.0
488,126.4539655875,126.78313225416666,60.0,70.0
489,126.4539655875,126.93729892083333,63.0,72.0
490,126.9539655875,127.2602155875,60.0,69.0
491,127.2039655875,127.31854892083332,63.0,70.0
492,126.7039655875,127.52063225416666,55.0,64.0
493,127.4539655875,127.72271558749999,60.0,76.0
494,126.4539655875,127.75188225416666,48.0,77.0
495,127.4539655875,127.80813225416665,63.0,82.0
496,127.4539655875,127.87688225416666,67.0,78.0
497,127.7039655875,127.88729892083333,55.0,78.0
498,127.9539655875,128.10813225416666,48.0,77.0
499,128.2039655875,128.50396558749998,60.0,76.0
500,128.4539655875,128.50396558749998,60.0,77.0
501,128.4539655875,128.80813225416665,65.0,77.0
502,128.9539655875,129.2810489208333,60.0,82.0
503,129.2039655875,129.30188225416666,65.0,80.0
504,128.7039655875,129.5727155875,48.0,64.0
505,129.4539655875,129.7352155875,60.0,80.0
506,129.4539655875,129.75396558749998,65.0,90.0
507,129.4539655875,129.78313225416667,68.0,82.0
508,129.9539655875,130.0789655875,60.0,80.0
509,129.7039655875,130.12688225416667,48.0,76.0
510,128.4539655875,130.2414655875,41.0,81.0
511,130.2039655875,130.33938225416665,60.0,72.0
512,130.2039655875,130.34563225416667,65.0,76.0
513,130.4539655875,130.74771558749998,60.0,78.0
514,130.4539655875,130.81438225416667,65.0,79.0
515,130.4539655875,131.18521558749998,41.0,82.0
516,130.7039655875,131.19354892083334,48.0,70.0
517,130.9539655875,131.26229892083333,60.0,76.0
518,131.2039655875,131.2977155875,65.0,71.0
519,131.4539655875,131.73313225416666,58.0,78.0
520,131.4539655875,131.8039655875,62.0,77.0
521,131.4539655875,131.8352155875,46.0,79.0
522,131.7039655875,131.86438225416666,53.0,79.0
523,131.9539655875,132.27479892083332,58.0,87.0
524,132.2039655875,132.33104892083333,62.0,77.0
525,132.4539655875,132.57479892083333,39.0,81.0
526,132.4539655875,132.6789655875,58.0,77.0
527,132.4539655875,132.84146558749998,63.0,80.0
528,132.7039655875,132.94563225416667,58.0,65.0
529,132.9539655875,133.25396558749998,63.0,68.0
530,133.2039655875,133.33313225416666,58.0,68.0
531,133.4539655875,133.5789655875,58.0,77.0
532,133.4539655875,133.59979892083334,55.0,71.0
533,133.4539655875,133.76229892083333,63.0,78.0
534,133.4539655875,133.85604892083333,67.0,75.0
535,133.7039655875,133.88104892083334,58.0,71.0
536,133.9539655875,134.26854892083333,63.0,70.0
537,134.2039655875,134.3747989208333,58.0,71.0
538,134.4539655875,134.58104892083333,58.0,75.0
539,134.4539655875,134.7102155875,63.0,77.0
540,134.7039655875,134.87063225416665,58.0,72.0
541,134.9539655875,135.08313225416666,63.0,70.0
542,135.2039655875,135.30813225416665,58.0,73.0
543,135.4539655875,135.5852155875,58.0,78.0
544,135.4539655875,135.7414655875,63.0,81.0
545,134.4539655875,135.86229892083333,39.0,79.0
546,135.7039655875,135.9602155875,58.0,71.0
547,135.4539655875,135.9997989208333,67.0,81.0
548,135.9539655875,136.26229892083333,63.0,72.0
549,136.2039655875,136.33938225416665,58.0,72.0
550,136.4539655875,136.62271558749998,60.0,77.0
551,136.4539655875,136.75188225416667,63.0,76.0
552,136.7039655875,136.9477155875,60.0,72.0
553,136.9539655875,137.1039655875,63.0,70.0
554,137.2039655875,137.35604892083333,60.0,56.0
555,137.4539655875,137.67479892083333,60.0,76.0
556,137.4539655875,137.79979892083333,63.0,78.0
557,137.4539655875,137.79979892083333,67.0,70.0
558,136.4539655875,138.3039655875,48.0,79.0
559,137.7039655875,138.3352155875,55.0,71.0
560,137.9539655875,138.52479892083332,60.0,78.0
561,138.2039655875,138.56854892083334,63.0,74.0
562,138.7039655875,139.36438225416666,55.0,76.0
563,138.4539655875,139.44354892083334,72.0,82.0
564,139.2039655875,139.7914655875,60.0,73.0
565,139.4539655875,139.79563225416666,55.0,78.0
566,138.9539655875,139.94563225416667,67.0,83.0
567,138.4539655875,139.9477155875,48.0,77.0
568,139.7039655875,139.97688225416667,63.0,80.0
569,139.9539655875,140.07688225416666,60.0,76.0
570,140.4539655875,141.00813225416667,58.0,72.0
571,140.4539655875,141.0290005958333,62.0,71.0
572,140.9539655875,141.1634541958333,65.0,74.0
573,141.4575714458333,141.60883174583333,58.0,76.0
574,141.4575714458333,141.63194095833333,70.0,75.0
575,141.96177244583333,142.07131866666666,62.0,61.0
576,140.4539655875,142.08614915833334,46.0,76.0
577,141.96177244583333,142.1391152,65.0,66.0
578,142.4696233,142.67513154166667,60.0,69.0
579,142.4696233,143.03318198333332,65.0,72.0
580,142.9780973,143.3848765,60.0,71.0
581,143.4865713,143.67301176666666,60.0,78.0
582,142.4696233,143.73233373333332,41.0,71.0
583,143.4865713,143.86368951666665,65.0,78.0
584,143.9950453,144.04165541666666,60.0,50.0
585,144.5035193,145.60918677916666,65.0,76.0
586,144.5035193,145.69839834166666,58.0,70.0
587,145.51167646666667,146.05524459166665,62.0,83.0
588,145.0119933,146.30213240416666,53.0,78.0
589,144.5035193,146.30835646666665,46.0,76.0
590,146.00960146666665,146.31665521666667,65.0,77.0
591,146.50752646666666,146.74819021666667,58.0,71.0
592,146.50752646666666,146.86229802916665,70.0,74.0
593,147.50507105,147.66757105,82.0,76.0
594,147.50507105,147.69048771666667,70.0,79.0
595,147.75507105,147.98632105,77.0,68.0
596,146.50752646666666,148.37173771666667,46.0,77.0
597,148.00507105,148.37590438333334,70.0,77.0
598,148.50507105,148.84673771666667,58.0,66.0
599,148.50507105,149.05715438333334,63.0,71.0
600,149.50507105,149.75507105,63.0,77.0
601,149.50507105,149.78215438333334,67.0,76.0
602,149.00507105,149.99257105,46.0,57.0
603,148.50507105,150.05507105,39.0,78.0
604,150.50507105,150.85923771666666,63.0,77.0
605,150.50507105,150.96965438333334,67.0,78.0
606,151.00507105,151.21757105,58.0,74.0
607,151.50507105,152.02798771666667,63.0,77.0
608,151.50507105,152.04465438333332,67.0,77.0
609,151.50507105,152.08215438333335,58.0,75.0
610,152.00507105,152.10923771666666,39.0,77.0
611,152.50507105,153.09673771666667,62.0,68.0
612,152.50507105,153.35923771666666,58.0,71.0
613,153.50507105,153.61757105,62.0,77.0
614,153.00507105,153.66757105,53.0,58.0
615,153.50507105,153.66965438333332,65.0,78.0
616,152.50507105,153.75507105,46.0,77.0
617,154.00507105,154.59882105,53.0,70.0
618,154.50507105,154.98215438333332,62.0,68.0
619,154.50507105,155.00090438333334,65.0,76.0
620,154.50507105,155.07173771666666,58.0,65.0
621,155.50507105,155.82382105,58.0,73.0
622,155.50507105,155.88215438333333,62.0,77.0
623,155.50507105,155.98007105,65.0,79.0
624,155.00507105,156.07382105,53.0,52.0
625,156.00507105,156.46340438333334,62.0,79.0
626,156.50507105,156.75298771666667,63.0,75.0
627,156.50507105,156.99048771666668,60.0,70.0
628,157.00507105,157.62798771666667,55.0,69.0
629,157.50507105,157.94048771666667,67.0,72.0
630,157.50507105,157.98215438333332,60.0,76.0
631,158.00507105,158.64257105,55.0,57.0
632,158.50507105,159.04257105,63.0,71.0
633,158.50507105,159.07382105,60.0,71.0
634,159.50507105,160.06132105,63.0,77.0
635,159.00507105,160.07173771666666,55.0,64.0
636,159.50507105,160.07590438333332,67.0,79.0
637,156.50507105,160.16757105,48.0,76.0
638,160.00507105,160.16757105,60.0,77.0
639,160.50507105,161.59048771666667,58.0,70.0
640,161.00507105,161.79882105,53.0,71.0
641,160.50507105,162.01757105,62.0,65.0
642,161.50507105,162.05090438333332,65.0,77.0
643,162.00507105,162.57590438333332,58.0,75.0
644,162.50507105,162.76965438333332,62.0,75.0
645,162.50507105,162.78215438333334,70.0,72.0
646,162.50507105,162.79465438333332,65.0,78.0
647,163.50507105,163.73007105,65.0,80.0
648,163.50507105,163.74048771666668,62.0,77.0
649,163.00507105,163.74257105,53.0,71.0
650,163.50507105,163.78215438333334,58.0,70.0
651,160.50507105,163.82798771666666,46.0,77.0
652,164.00507105,164.59048771666667,58.0,82.0
653,164.50507105,164.93215438333334,63.0,74.0
654,165.00507105,165.27173771666668,58.0,76.0
655,164.50507105,165.67590438333332,39.0,78.0
656,165.50507105,166.03423771666667,67.0,77.0
657,165.50507105,166.04673771666666,63.0,75.0
658,166.00507105,166.57382105,58.0,76.0
659,166.50507105,167.05298771666668,67.0,74.0
660,166.50507105,167.11548771666668,63.0,76.0
661,167.00507105,167.33423771666668,58.0,68.0
662,167.50507105,167.62798771666667,63.0,76.0
663,166.50507105,167.72590438333333,51.0,70.0
664,167.50507105,167.73007105,58.0,77.0
665,167.50507105,167.78007105,67.0,68.0
666,168.00507105,168.53423771666667,62.0,83.0
667,168.50507105,168.92382105000002,63.0,76.0
668,168.50507105,169.18632105,60.0,73.0
669,169.00507105,169.69048771666667,55.0,68.0
670,169.50507105,169.96965438333334,63.0,78.0
671,169.50507105,169.99257105,60.0,77.0
672,169.50507105,170.01548771666666,67.0,78.0
673,170.00507105,170.65090438333334,55.0,65.0
674,170.50507105,170.78423771666667,60.0,73.0
675,170.50507105,171.01132105,63.0,70.0
676,171.00507105,171.57590438333332,60.0,70.0
677,171.50507105,171.75715438333333,55.0,65.0
678,168.50507105,171.90715438333334,48.0,75.0
679,171.50507105,172.02382105,63.0,73.0
680,172.00507105,172.37382105,60.0,68.0
681,172.50507105,173.04048771666666,65.0,73.0
682,173.00507105,173.33007105000002,60.0,71.0
683,173.50507105,173.74257105,60.0,78.0
684,172.50507105,173.80090438333332,41.0,76.0
685,173.50507105,174.14673771666668,65.0,77.0
686,174.00507105,174.44465438333333,60.0,69.0
687,174.50507105,175.06757105,68.0,64.0
688,174.50507105,175.11548771666668,65.0,72.0
689,175.00507105,175.28632105,60.0,76.0
690,174.50507105,175.80298771666668,41.0,77.0
691,175.50507105,175.94882105,65.0,77.0
692,175.50507105,175.95715438333332,60.0,80.0
693,176.00507105,176.15507105,41.0,79.0
694,176.50507105,177.10298771666666,62.0,67.0
695,176.50507105,177.13007105,58.0,72.0
696,177.00507105,177.57590438333332,65.0,75.0
697,177.50507105,178.10507105,70.0,79.0
698,176.50507105,178.35923771666666,46.0,76.0
699,178.00507105,178.67173771666666,58.0,79.0
700,178.50507105,178.90090438333334,62.0,67.0
701,178.50507105,179.31965438333333,65.0,76.0
702,179.50507105,179.97382105,63.0,76.0
703,178.50507105,179.99465438333334,46.0,76.0
704,179.00507105,180.05090438333332,53.0,76.0
705,180.00507105,180.34882105,62.0,83.0
706,180.50507105,180.76548771666666,58.0,72.0
707,180.50507105,181.04257105,67.0,74.0
708,181.00507105,181.19465438333333,58.0,73.0
709,181.50507105,181.76965438333332,58.0,76.0
710,181.50507105,181.90715438333334,67.0,76.0
711,182.00507105,182.24465438333334,65.0,79.0
712,180.50507105,182.26340438333332,39.0,79.0
713,182.50507105,183.29673771666666,58.0,72.0
714,182.50507105,183.47173771666667,67.0,74.0
715,183.00507105,183.74465438333334,46.0,65.0
716,183.50507105,183.81132105,58.0,81.0
717,182.50507105,183.82798771666666,39.0,78.0
718,183.50507105,183.95715438333332,63.0,78.0
719,184.00507105,184.12798771666667,39.0,80.0
720,184.50507105,185.09465438333334,60.0,72.0
721,184.50507105,185.12173771666667,63.0,72.0
722,185.50507105,185.80923771666667,63.0,77.0
723,185.50507105,185.84257105,60.0,74.0
724,185.50507105,185.90507105,67.0,77.0
725,186.00507105,186.24465438333334,65.0,66.0
726,185.00507105,186.28215438333334,55.0,63.0
727,184.50507105,186.29882105000002,48.0,76.0
728,186.25507105,186.55923771666667,63.0,78.0
729,186.50507105,187.00090438333334,65.0,72.0
730,187.00507105,187.56340438333334,63.0,75.0
731,187.50507105,188.07590438333332,60.0,85.0
732,186.50507105,188.08632105,48.0,77.0
733,188.00507105,188.11132105000002,55.0,68.0
734,188.50507105,189.23423771666666,65.0,76.0
735,189.50507105,189.66340438333333,60.0,77.0
736,189.50507105,189.76757105000002,65.0,78.0
737,189.00507105,189.99882105,48.0,70.0
738,188.50507105,190.21757105,41.0,77.0
739,190.00507105,190.30923771666667,56.0,71.0
740,190.50507105,190.81965438333333,56.0,74.0
741,190.50507105,191.54465438333332,60.0,74.0
742,190.50507105,191.79257105,41.0,77.0
743,192.00507105,192.12590438333334,41.0,79.0
744,192.00507105,192.18007105,56.0,74.0
745,191.50507105,192.43215438333334,65.0,83.0
746,192.50507105,192.87590438333334,58.0,65.0
747,192.50507105,192.87798771666667,62.0,75.0
748,193.00507105,194.20507105000002,53.0,77.0
749,192.50507105,194.21132105,46.0,76.0
750,193.50507105,194.21132105,65.0,78.0
751,194.00507105,194.60507105,58.0,77.0
752,194.50507105,194.84465438333334,70.0,77.0
753,194.50507105,195.27798771666667,46.0,78.0
754,195.00507105,195.31340438333334,53.0,70.0
755,195.00507105,195.56340438333334,72.0,77.0
756,195.50507105,195.61757105,53.0,73.0
757,195.50507105,195.61965438333334,70.0,80.0
758,195.50507105,195.67173771666666,46.0,75.0
759,195.75507105,195.92173771666666,67.0,83.0
760,196.00507105,196.24048771666668,65.0,90.0
761,196.25507105,196.41757105,63.0,77.0
762,196.50507105,196.69465438333333,39.0,79.0
763,196.50507105,196.85923771666666,63.0,76.0
764,196.50507105,197.05298771666668,67.0,77.0
765,197.50507105,197.55090438333332,67.0,58.0
766,197.00507105,197.63215438333333,51.0,77.0
767,197.50507105,197.81757105,58.0,75.0
768,197.50507105,197.96548771666667,63.0,74.0
769,198.00507105,198.52173771666668,55.0,62.0
770,198.50507105,198.68215438333334,58.0,73.0
771,198.50507105,198.71965438333334,63.0,74.0
772,198.50507105,198.84882105,67.0,68.0
773,198.50507105,199.74048771666668,51.0,76.0
774,199.00507105,199.83632105,58.0,63.0
775,199.50507105,199.92590438333332,67.0,80.0
776,199.50507105,199.95507105000002,63.0,78.0
777,200.00507105,200.10090438333333,51.0,79.0
778,200.50507105,201.19048771666667,62.0,68.0
779,200.50507105,201.32382105,55.0,71.0
780,201.00507105,201.67173771666666,50.0,72.0
781,200.50507105,201.69882105,43.0,80.0
782,201.50507105,201.71965438333334,58.0,79.0
783,201.50507105,201.74048771666668,55.0,77.0
784,201.50507105,201.85715438333332,62.0,77.0
785,202.00507105,202.08840438333334,43.0,77.0
786,202.50507105,203.21965438333334,60.0,71.0
787,202.50507105,203.24465438333334,63.0,76.0
788,203.00507105,203.63007105,55.0,77.0
789,202.50507105,203.74048771666668,48.0,78.0
790,203.50507105,203.84882105,60.0,77.0
791,203.50507105,204.08840438333334,63.0,77.0
792,204.00507105,204.34257105,48.0,78.0
793,203.50507105,204.39257105000002,67.0,73.0
794,204.50507105,205.21340438333334,60.0,64.0
795,204.50507105,205.22173771666667,63.0,72.0
796,205.00507105,205.65923771666667,55.0,72.0
797,204.50507105,205.73007105,48.0,76.0
798,205.50507105,205.74048771666668,60.0,76.0
799,205.50507105,205.98840438333332,67.0,77.0
800,205.50507105,205.99048771666668,63.0,76.0
801,206.00507105,206.60923771666666,60.0,80.0
802,206.50507105,207.03215438333334,65.0,78.0
803,207.00507105,207.38840438333332,60.0,80.0
804,207.50507105,207.78423771666667,65.0,79.0
805,207.50507105,207.94048771666667,48.0,70.0
806,206.50507105,207.99048771666668,41.0,77.0
807,207.75507105,208.01965438333332,63.0,82.0
808,208.00507105,208.24882105,60.0,83.0
809,208.50507105,208.94048771666667,58.0,69.0
810,208.50507105,209.12173771666667,63.0,71.0
811,209.00507105,209.73423771666666,53.0,82.0
812,209.50507105,210.00090438333334,65.0,78.0
813,209.50507105,210.04673771666666,58.0,76.0
814,208.50507105,210.20715438333332,46.0,76.0
815,210.00507105,210.34257105,63.0,78.0
816,210.50507105,210.87382105,65.0,77.0
817,210.50507105,210.87590438333334,58.0,72.0
818,211.00507105,211.36965438333334,58.0,74.0
819,211.00507105,211.47382105,53.0,78.0
820,210.50507105,211.49257104999998,46.0,78.0
821,211.50507105,211.93423771666667,58.0,81.0
822,211.50507105,212.02382104999998,70.0,78.0
823,211.75507105,212.10923771666666,46.0,81.0
824,212.00507105,212.10923771666666,53.0,82.0
825,212.25507105,212.40298771666667,58.0,80.0
826,212.50507105,212.64257105000002,64.0,73.0
827,212.50507105,212.77590438333334,67.0,69.0
828,212.50507105,212.81340438333334,70.0,78.0
829,212.75507105,213.11548771666668,64.0,69.0
830,213.00507105,213.17173771666666,67.0,76.0
831,213.25507105,213.67798771666668,72.0,80.0
832,212.50507105,214.00507105,40.0,79.0
833,213.50507105,214.03215438333334,64.0,70.0
834,213.75507105,214.19465438333333,67.0,72.0
835,214.00507105,214.38840438333335,72.0,75.0
836,214.25507105,214.41340438333333,64.0,49.0
837,214.50507105,214.90923771666667,72.0,76.0
838,215.00507105,215.32173771666666,65.0,77.0
839,215.25507105,215.40090438333334,68.0,77.0
840,214.75507105,215.60715438333335,48.0,63.0
841,215.50507105,215.81965438333333,65.0,85.0
842,214.50507105,215.85090438333333,41.0,78.0
843,215.75507105,215.93423771666667,48.0,75.0
844,215.50507105,216.00090438333334,68.0,81.0
845,216.00507105,216.12173771666667,41.0,79.0
846,215.50507105,216.42798771666668,72.0,81.0
847,216.50507105,216.67798771666668,70.0,70.0
848,216.50507105,216.70923771666668,65.0,77.0
849,217.00507105,217.31965438333333,58.0,71.0
850,216.75507105,217.60090438333333,53.0,69.0
851,217.25507105,217.81965438333333,65.0,77.0
852,217.75507105,217.96340438333334,62.0,78.0
853,217.50507105,217.99673771666667,58.0,77.0
854,216.50507105,218.21757105,46.0,78.0
855,218.25507105,218.40923771666667,58.0,76.0
856,218.00507105,218.46132104999998,70.0,78.0
857,218.50507105,218.73215438333335,58.0,74.0
858,218.50507105,218.95923771666668,63.0,77.0
859,219.00507105,219.32590438333335,58.0,72.0
860,219.25507105,219.37173771666667,63.0,66.0
861,218.75507105,219.68215438333334,46.0,65.0
862,218.50507105,219.82382105,39.0,81.0
863,220.00507105,220.24048771666668,39.0,82.0
864,219.50507105,220.50090438333334,58.0,77.0
865,219.50507105,220.52173771666668,63.0,82.0
866,219.50507105,220.53423771666667,67.0,80.0
867,220.50507105,220.82590438333335,58.0,71.0
868,220.50507105,221.27590438333334,70.0,73.0
869,221.00507105,221.42382105000002,58.0,76.0
870,221.25507105,221.53215438333334,62.0,76.0
871,221.50507105,221.80923771666667,65.0,73.0
872,221.75507105,222.10923771666666,58.0,77.0
873,222.00507105,222.29465438333335,62.0,78.0
874,220.50507105,222.37382105,46.0,79.0
875,220.75507105,222.40090438333334,53.0,71.0
876,222.25507105,223.07173771666666,65.0,69.0
877,222.50507105,223.07382105,70.0,77.0
878,222.50507105,223.73423771666666,46.0,78.0
879,223.50507105,223.74673771666667,58.0,78.0
880,223.00507105,223.76340438333335,53.0,69.0
881,223.50507105,223.76340438333335,62.0,85.0
882,223.50507105,223.80715438333334,65.0,78.0
883,224.00507105,224.20923771666668,46.0,77.0
884,224.50507105,225.26132105,60.0,76.0
885,224.50507105,225.38007105,67.0,69.0
886,225.00507105,225.63215438333333,55.0,70.0
887,225.50507105,225.88215438333333,63.0,81.0
888,225.50507105,225.89882104999998,60.0,77.0
889,226.25507105,226.34882105,65.0,61.0
890,225.75507105,226.38632105,55.0,69.0
891,226.00507105,226.39673771666668,60.0,71.0
892,226.00507105,226.40298771666667,63.0,77.0
893,224.50507105,226.45715438333332,48.0,76.0
894,226.50507105,227.31340438333334,65.0,77.0
895,227.00507105,227.34257105,60.0,78.0
896,227.50507105,227.70507105000002,60.0,78.0
897,227.50507105,227.76965438333332,65.0,80.0
898,226.50507105,227.87590438333334,53.0,85.0
899,227.75507105,228.00090438333334,63.0,77.0
900,228.00507105,228.15715438333334,60.0,78.0
901,228.50507105,229.31757105,65.0,77.0
902,228.50507105,229.36132105000002,58.0,70.0
903,229.50507105,229.79257105,70.0,78.0
904,229.75507105,230.08632104999998,65.0,77.0
905,230.00507105,230.31757105,58.0,73.0
906,228.50507105,230.33007105000002,46.0,79.0
907,229.00507105,230.36132105000002,53.0,78.0
908,230.25507105,231.30090438333332,65.0,73.0
909,231.00507105,231.35923771666666,58.0,69.0
910,231.25507105,231.37382105,62.0,66.0
911,230.75507105,231.60507105,53.0,72.0
912,231.50507105,231.81340438333334,58.0,76.0
913,230.50507105,231.82590438333335,46.0,77.0
914,231.50507105,231.85298771666666,62.0,77.0
915,231.75507105,231.91340438333333,53.0,76.0
916,231.50507105,231.98215438333335,70.0,76.0
917,231.50507105,232.00090438333334,65.0,80.0
918,232.00507105,232.26965438333332,46.0,78.0
919,232.50507105,233.11965438333334,60.0,70.0
920,232.50507105,233.14465438333332,63.0,76.0
921,233.00507105,233.76340438333335,55.0,67.0
922,232.50507105,233.80923771666667,48.0,78.0
923,233.50507105,233.87590438333334,60.0,78.0
924,233.50507105,233.88632105,63.0,81.0
925,233.50507105,233.90507105,67.0,79.0
926,234.00507105,234.12382105,48.0,80.0
927,234.50507105,234.79465438333335,60.0,76.0
928,234.50507105,234.96548771666667,65.0,78.0
929,234.50507105,235.30090438333332,41.0,79.0
930,235.00507105,235.31757105,60.0,77.0
931,235.50507105,235.73423771666666,65.0,90.0
932,235.50507105,235.92798771666668,41.0,79.0
933,235.50507105,236.04465438333335,60.0,83.0
934,236.00507105,236.29257105,63.0,85.0
935,236.50507105,237.09465438333334,60.0,77.0
936,236.50507105,237.10507105,63.0,78.0
937,236.50507105,237.11340438333332,67.0,77.0
938,237.00507105,237.66340438333333,55.0,65.0
939,237.50507105,237.75507105,60.0,76.0
940,236.50507105,237.78215438333334,48.0,80.0
941,237.50507105,237.98423771666666,63.0,78.0
942,237.50507105,238.06132105,67.0,76.0
943,238.50507105,238.80715438333334,58.0,72.0
944,239.00507105,239.30507104999998,58.0,57.0
945,238.50507105,239.40298771666667,67.0,67.0
946,239.50507105,239.76548771666666,63.0,77.0
947,239.50507105,239.82173771666666,58.0,77.0
948,238.50507105,239.86132105000002,39.0,78.0
949,239.50507105,239.86340438333332,46.0,69.0
950,240.00507105,240.37590438333334,62.0,90.0
951,240.50507105,240.83423771666668,63.0,76.0
952,240.50507105,241.02590438333334,60.0,76.0
953,241.00507105,241.67382105000002,55.0,69.0
954,241.50507105,241.85298771666666,63.0,78.0
955,240.50507105,241.89465438333332,48.0,77.0
956,241.50507105,241.89673771666668,67.0,78.0
957,242.00507105,242.28840438333333,58.0,77.0
958,242.25507105,242.52798771666667,60.0,78.0
959,242.50507105,242.99257104999998,63.0,72.0
960,243.00507105,243.67382105000002,46.0,63.0
961,242.50507105,243.70298771666666,39.0,77.0
962,243.50507105,243.80923771666667,58.0,77.0
963,243.50507105,243.86548771666668,63.0,78.0
964,244.00507105,244.33423771666668,39.0,78.0
965,244.50507105,244.72173771666667,60.0,72.0
966,244.50507105,245.160609,65.0,73.0
967,245.00507105,245.3103979958333,60.0,71.0
968,244.50507105,245.82094640416665,41.0,78.0
969,245.51081989166664,245.91588309166664,60.0,81.0
970,245.51081989166664,246.03824593333331,65.0,85.0
971,246.01714889166666,246.28086191249997,63.0,79.0
972,246.27031339166666,246.42854120416666,60.0,65.0
973,246.52347789166666,247.00227227083332,63.0,77.0
974,246.52347789166666,247.28432299583332,46.0,77.0
975,247.03218674166664,247.3291947020833,58.0,80.0
976,247.54500624166664,247.67962136041663,53.0,80.0
977,247.54500624166664,247.73731355416663,58.0,77.0
978,248.05782574166665,248.22449207916665,53.0,92.0
979,247.54500624166664,248.2330390708333,46.0,82.0
980,247.54500624166664,248.3612439458333,62.0,80.0
981,248.31423549166664,248.49158556874997,58.0,87.0
982,248.5192996645833,248.6086613145833,40.0,77.0
983,248.5320656145833,248.68738467291664,64.0,70.0
984,248.52993795624997,248.86823563124997,67.0,71.0
985,248.7873846145833,249.47036293958328,64.0,69.0
986,249.3810012895833,249.83206485624996,70.0,62.0
987,249.07887380624996,249.8597244145833,67.0,69.0
988,249.62568199791662,250.13844765624995,60.0,57.0
989,249.82780953958328,250.33419222291664,64.0,70.0
990,250.05972429791663,250.46185172291663,67.0,78.0
991,250.27249013124995,250.65972394791663,72.0,75.0
992,251.12142580624996,251.3852554395833,53.0,75.0
993,251.35546822291664,251.49589367291662,55.0,79.0
994,251.63631912291663,252.0618507895833,56.0,80.0
995,250.8107876895833,252.17248902291664,48.0,64.0
996,250.53419210624998,252.2635833395833,41.0,77.0
997,251.88951046458328,252.55050310624998,60.0,81.0
998,252.3711782520833,252.61379423124998,56.0,71.0
999,252.11504224791662,252.9471274895833,65.0,77.0
1000,253.11379411874998,253.46400501041663,58.0,76.0
1001,253.63278134374997,253.93024963124998,58.0,77.0
1002,253.6306716395833,253.9724437145833,63.0,76.0
1003,252.8775072520833,254.35219046458332,53.0,71.0
1004,252.61379423124998,254.3964942520833,46.0,77.0
1005,254.1243424145833,254.49565034791664,58.0,76.0
1006,254.12645211874997,254.50619886874998,65.0,76.0
1007,255.08214810624997,255.4787724895833,58.0,77.0
1008,255.35429994374996,255.49565012291663,63.0,77.0
1009,255.61590326041664,255.7192787645833,63.0,72.0
1010,254.82898360624998,255.86695805624996,46.0,59.0
1011,255.60957414791665,256.16442634375,67.0,82.0
1012,255.8458610145833,256.1813039770833,58.0,79.0
1013,254.60113555624997,256.3078862270833,39.0,80.0
1014,256.12012255624995,256.56316043124997,63.0,77.0
1015,256.3564094229166,256.70873001875,58.0,76.0
1016,256.48088196875,256.75936291874996,60.0,68.0
1017,256.55894102291666,256.86062871875,65.0,72.0
1018,256.62223214791663,257.0737088395833,68.0,73.0
1019,257.08425736041664,257.55894079791665,60.0,75.0
1020,257.34164126875,257.6749745270833,65.0,80.0
1021,256.87328694375,257.74881417291664,48.0,72.0
1022,256.59058658541664,257.7804597354166,41.0,81.0
1023,257.63278044375,258.0230757145833,68.0,74.0
1024,257.8838352395833,258.2319364270833,60.0,78.0
1025,258.15809678125,258.4724427020833,65.0,77.0
1026,258.4344680270833,258.65387726041666,68.0,76.0
1027,258.9386873229166,259.79944662291666,60.0,70.0
1028,258.69185193541665,259.83109218541665,53.0,77.0
1029,259.2129488645833,259.9724423645833,65.0,78.0
1030,259.4914298145833,260.0800372770833,72.0,72.0
1031,260.58214686875,260.86062781874995,58.0,66.0
1032,260.66020592291665,260.9661130270833,62.0,62.0
1033,260.66653503541664,261.13277965624997,46.0,77.0
1034,260.93868687291666,261.15176699374996,53.0,70.0
1035,260.7192776395833,261.1686446270833,65.0,75.0
1036,260.7635814270833,261.17919314791664,70.0,70.0
1037,261.19607078124994,261.4724420270833,58.0,80.0
1038,261.46822261874996,261.59691457291666,65.0,77.0
1039,262.30577517291664,262.64543754374995,70.0,80.0
1040,262.5926949395833,262.7129480770833,75.0,87.0
1041,262.91758938124997,263.0146357729166,77.0,92.0
1042,263.2445935270833,263.3901631145833,82.0,79.0
1043,263.58214619374996,263.74670311874996,84.0,63.0
1044,263.94923471874995,264.1496566145833,87.0,67.0
1045,264.34163969375,264.4724413520833,89.0,71.0
1046,262.00830688541663,264.78467756875,65.0,71.0
1047,261.7382647520833,264.80999401875,58.0,76.0
1048,266.4787700145833,266.6876307270833,58.0,79.0
1049,266.7361539229166,266.82476149791665,65.0,69.0
1050,267.04417073124995,267.18552091041664,70.0,66.0
1051,267.4028204395833,267.5589385479166,72.0,72.0
1052,267.7572507395833,267.89860091875,75.0,78.0
1053,268.0969131104166,268.2488118104166,77.0,68.0
1054,268.58214506875,268.7699087395833,82.0,51.0
1055,268.97033063541664,269.13910696874996,84.0,66.0
1056,269.45767229791664,269.62433892708333,86.0,60.0
1057,269.67075241875,269.79311526041664,87.0,60.0
1058,269.87961313125,270.01885360625,89.0,69.0
1059,270.10324177291665,270.27834721874996,91.0,64.0
1060,270.43868473541664,270.73615302291665,94.0,67.0
1061,266.22982492291663,271.28467610624995,53.0,72.0
1062,265.9218081145833,271.3015537395833,46.0,76.0
