,start,end,pitch,velocity
0,43.60858149999999,44.19031168749999,74.0,86.0
1,43.60858149999999,44.21114499999999,86.0,99.0
2,44.37781149999999,44.89383662499999,88.0,100.0
3,44.37781149999999,44.93229812499999,76.0,73.0
4,45.14704149999999,47.05569343749999,72.0,84.0
5,45.14704149999999,47.05889856249999,84.0,82.0
6,51.37213949999999,52.312764499999986,69.0,86.0
7,51.37213949999999,52.34557699999999,81.0,95.0
8,52.87213949999999,53.77995199999999,71.0,98.0
9,52.87213949999999,53.79870199999999,83.0,90.0
10,54.37213949999999,55.47838949999999,72.0,84.0
11,54.37213949999999,55.49088949999999,84.0,96.0
12,55.49713949999999,55.94088949999999,86.0,82.0
13,55.49713949999999,55.95026449999999,74.0,78.0
14,56.62213949999999,56.828389499999986,88.0,94.0
15,56.62213949999999,56.84557699999999,76.0,82.0
16,57.37213949999999,58.38858727499999,72.0,90.0
17,57.37213949999999,58.390232012499986,84.0,91.0
18,58.951087499999986,59.886214487499984,74.0,74.0
19,58.951087499999986,59.91627779166665,86.0,79.0
20,60.470075499999986,61.31343029583332,84.0,71.0
21,60.470075499999986,61.326088529166654,72.0,76.0
22,61.22956949999998,61.326088529166654,72.0,95.0
23,61.989063499999986,62.70220381249999,76.0,95.0
24,62.758293499999986,63.54835681249999,79.0,91.0
25,63.52752349999999,65.08243087499999,81.0,94.0
26,65.06598349999999,65.90479962499998,80.0,98.0
27,65.85545749999999,66.62519464999998,83.0,93.0
28,66.64493149999998,67.97263451249998,81.0,84.0
29,106.57890649999996,106.76969604999995,76.0,90.0
30,106.77627499999996,106.96706454999995,77.0,90.0
31,106.97364349999995,108.92734788749995,79.0,90.0
32,109.01068124999995,109.08321213958328,77.0,81.0
33,109.07240966666662,109.15728623958329,79.0,78.0
34,109.13413808333328,109.22434752499996,77.0,73.0
35,109.19586649999995,109.55820842916661,76.0,86.0
36,109.57561349999995,109.96010733749995,74.0,83.0
37,109.95536049999995,109.96010733749995,74.0,90.0
38,110.52498099999995,111.08827238333329,76.0,80.0
39,111.09460149999995,112.25934849999994,72.0,90.0
40,112.27434849999995,112.73588649999995,71.0,100.0
41,112.65896349999994,112.78396337499994,72.0,90.0
42,112.85127099999994,114.42819249999995,81.0,100.0
43,114.38973099999994,115.67338356249995,79.0,84.0
44,115.73588349999994,115.92819099999994,76.0,101.0
45,115.92819099999994,116.13171643749995,77.0,93.0
46,116.12049849999994,116.46024174999994,79.0,86.0
47,116.50511349999995,116.88812593749995,77.0,90.0
48,116.88972849999995,117.27274093749995,76.0,91.0
49,117.27434349999994,119.90895849999994,74.0,91.0
50,119.72145849999994,119.93980262499994,76.0,94.0
51,119.90895849999994,120.08265962499993,81.0,99.0
52,120.10376349999994,120.33590612499994,83.0,84.0
53,120.29856849999994,120.58428249999994,84.0,99.0
54,120.68817849999994,121.04911599999994,83.0,98.0
55,121.82279349999993,122.04394712499993,83.0,93.0
56,122.01510099999993,122.14651112499993,84.0,93.0
57,122.20740849999993,122.48945949999994,86.0,98.0
58,122.59202349999994,122.87727962499993,84.0,103.0
59,122.78433099999994,122.90452318749993,83.0,90.0
60,122.97663849999994,123.12727937499993,84.0,86.0
61,123.16894599999993,123.31157406249993,83.0,80.0
62,123.36125349999993,123.95259906249993,81.0,95.0
63,124.89971349999993,125.11445687499993,72.0,95.0
64,125.09202099999993,125.28272593749993,74.0,84.0
65,125.28432849999993,125.67375118749993,76.0,86.0
66,125.66894349999994,126.05195593749994,74.0,84.0
67,126.05355849999994,126.64169893749994,72.0,96.0
68,127.96238899999994,128.11516683124995,76.0,95.0
69,128.14757424999993,128.27720392499992,74.0,78.0
70,128.33275949999995,128.85127819999994,76.0,90.0
71,128.88831524999995,129.45158705208328,79.0,90.0
72,129.44387099999994,130.6312168145833,74.0,90.0
73,175.48695500000005,175.87652326250003,79.0,50.0
74,175.48695500000005,176.09451067500004,84.0,78.0
75,175.67682850000003,176.39176623750004,86.0,78.0
76,175.67682850000003,176.40701011250002,91.0,72.0
77,236.5141185000001,237.0095444375001,72.0,76.0
78,236.5141185000001,237.0568004500001,64.0,58.0
79,236.5141185000001,237.0568004500001,67.0,72.0
80,237.2458245000001,237.5217386375001,60.0,69.0
81,236.5141185000001,237.5293605750001,48.0,62.0
82,236.8799715000001,237.66350667500012,55.0,71.0
83,237.6116775000001,238.42570042500012,72.0,79.0
84,237.9775305000001,238.62234641250012,62.0,57.0
85,237.9775305000001,238.7377175250001,67.0,73.0
86,238.3433835000001,238.89594544166678,55.0,63.0
87,238.70923650000012,238.92442646666677,59.0,58.0
88,237.9775305000001,239.06683159166678,47.0,79.0
89,239.08898350000013,239.18708480833345,71.0,76.0
90,239.4687305000001,239.77067825000012,41.0,68.0
91,239.4687305000001,240.2576907500001,69.0,72.0
92,239.4687305000001,240.2771712500001,65.0,63.0
93,239.8583405000001,240.3339893750001,53.0,53.0
94,239.4687305000001,240.3502231250001,60.0,29.0
95,240.24795050000012,240.41515812500012,57.0,54.0
96,240.63756050000012,240.90379400000012,69.0,68.0
97,241.0271705000001,241.34210525000012,71.0,75.0
98,241.0271705000001,241.3518455000001,67.0,63.0
99,241.0271705000001,241.3664558750001,62.0,61.0
100,241.0271705000001,241.6245725000001,43.0,70.0
101,241.4167805000001,241.7901567500001,50.0,61.0
102,241.8063905000001,241.8940527500001,64.0,73.0
103,241.8063905000001,241.9313903750001,72.0,83.0
104,241.8063905000001,242.2560653750001,55.0,55.0
105,242.1960005000001,242.33074062500012,57.0,61.0
106,242.58561050000012,242.8496730000001,72.0,74.0
107,242.58561050000012,242.86998550000013,76.0,69.0
108,242.58561050000012,242.94029800000013,67.0,48.0
109,243.33561050000012,243.5434230000001,67.0,74.0
110,243.33561050000012,243.58717300000012,60.0,56.0
111,242.58561050000012,243.60123550000012,48.0,73.0
112,242.96061050000012,243.79967300000013,55.0,55.0
113,243.52311050000012,244.0199855000001,69.0,68.0
114,243.89811050000012,244.10279800000012,67.0,45.0
115,244.08561050000012,244.67154800000012,62.0,72.0
116,244.83561050000012,244.96061050000012,67.0,58.0
117,244.83561050000012,244.9981105000001,74.0,62.0
118,244.83561050000012,245.0043605000001,59.0,57.0
119,244.46061050000012,245.0981105000001,55.0,63.0
120,244.83561050000012,245.12623550000012,62.0,53.0
121,244.08561050000012,245.15123550000013,47.0,75.0
122,245.21061050000012,245.50904800000012,67.0,62.0
123,245.58561050000012,245.92154800000012,41.0,61.0
124,245.58561050000012,246.30592300000012,69.0,59.0
125,245.58561050000012,246.36998550000013,65.0,68.0
126,245.96061050000012,246.47154800000013,53.0,59.0
127,246.33561050000012,246.47779800000012,57.0,57.0
128,245.58561050000012,246.48561050000012,60.0,55.0
129,246.71061050000012,246.8012355000001,60.0,42.0
130,246.71061050000012,246.9027980000001,65.0,62.0
131,246.71061050000012,247.00904800000012,69.0,61.0
132,247.08561050000012,247.32936050000012,71.0,72.0
133,247.08561050000012,247.4340480000001,62.0,59.0
134,247.08561050000012,247.4731105000001,67.0,68.0
135,248.02311050000012,248.2934230000001,67.0,55.0
136,248.02311050000012,248.36217300000013,72.0,60.0
137,248.02311050000012,248.39029800000012,62.0,39.0
138,247.08561050000012,248.57154800000012,43.0,62.0
139,248.58561050000012,249.11686050000012,65.0,78.0
140,249.14811050000012,249.33717300000012,60.0,62.0
141,250.27311050000012,250.5121730000001,36.0,75.0
142,250.08561050000012,250.59498550000012,60.0,69.0
143,250.08561050000012,250.63561050000013,55.0,10.0
144,250.27311050000012,250.79811050000012,64.0,71.0
145,251.39811050000012,251.5434230000001,62.0,56.0
146,251.58561050000012,251.7168605000001,67.0,56.0
147,251.58561050000012,251.7402980000001,64.0,73.0
148,251.77311050000012,251.84654800000013,72.0,79.0
149,251.96061050000012,252.0918605000001,74.0,80.0
150,252.14811050000012,252.29654800000012,76.0,73.0
151,252.33561050000012,252.41529800000012,77.0,59.0
152,252.52311050000012,252.70436050000012,79.0,55.0
153,252.71061050000012,252.89811050000012,84.0,37.0
154,252.89811050000012,253.07154800000012,86.0,68.0
155,253.08561050000012,253.28248550000012,88.0,57.0
156,253.27311050000012,253.38561050000013,91.0,71.0
157,251.21061050000012,253.5918605000001,60.0,62.0
158,253.46061050000012,253.59654800000013,96.0,72.0
159,250.83561050000012,253.5981105000001,48.0,17.0
160,251.02311050000012,253.60904800000012,55.0,62.0
