,start,end,pitch,velocity
0,0.5909085000000001,1.55844,67.0,91.0
1,1.5649335,2.33766,77.0,98.0
2,2.3441535,2.72727,77.0,95.0
3,2.7337635000000002,3.11688,76.0,82.0
4,3.1233735,3.50649,76.0,86.0
5,3.5129835000000003,3.8961,74.0,84.0
6,3.9025935,4.28079825,72.0,86.0
7,4.2872085,4.47310575,74.0,81.0
8,4.479516,5.05002825,76.0,86.0
9,5.0564385,5.43464325,77.0,95.0
10,5.4410535,5.81925825,77.0,91.0
11,5.8256685,6.20387325,76.0,86.0
12,6.210283499999999,6.588488249999999,76.0,93.0
13,6.594898499999999,6.973103249999999,74.0,90.0
14,6.9795134999999995,7.35771825,72.0,90.0
15,7.3641285,7.55002575,74.0,84.0
16,7.556436,8.12694825,76.0,83.0
17,8.1333585,8.511563249999998,79.0,86.0
18,8.5179735,8.896178249999998,79.0,86.0
19,8.9025885,9.280793249999999,77.0,84.0
20,9.2872035,9.651401158333334,76.0,84.0
21,9.657574,10.021771658333334,74.0,72.0
22,10.0279445,10.392142158333334,72.0,84.0
23,10.398315,10.762512658333334,74.0,78.0
24,10.7686855,11.167334241666667,76.0,80.0
25,11.174091,11.370036991666666,77.0,84.0
26,11.376793750000001,11.572739741666666,77.0,84.0
27,11.5794965,13.0732465,74.0,90.0
28,13.0794965,13.8232465,67.0,84.0
29,13.8294965,14.5732465,77.0,90.0
30,14.5794965,14.962613,77.0,80.0
31,14.969106499999999,15.352222999999999,76.0,79.0
32,15.3587165,15.741833,76.0,82.0
33,15.7483265,16.131443,74.0,84.0
34,16.1379365,16.506686499999997,72.0,83.0
35,16.5129365,16.694186499999997,74.0,80.0
36,16.7004365,17.256686499999997,76.0,84.0
37,17.2629365,17.631686499999997,77.0,93.0
38,17.6379365,18.006686499999997,77.0,86.0
39,18.0129365,18.381686499999997,76.0,84.0
40,18.3879365,18.771053,76.0,90.0
41,18.7775465,19.160663,74.0,84.0
42,19.167156499999997,19.355468,72.0,93.0
43,19.3619615,19.550272999999997,72.0,80.0
44,19.5567665,19.745078,74.0,79.0
45,19.751571499999997,20.329493,76.0,83.0
46,20.335986499999997,20.719102999999997,79.0,84.0
47,20.725596499999998,21.108712999999998,79.0,84.0
48,21.1152065,21.498323,77.0,86.0
49,21.504816499999997,21.887932999999997,76.0,86.0
50,21.894426499999998,22.277542999999998,74.0,84.0
51,22.2840365,23.056762999999997,72.0,84.0
52,23.063256499999998,23.432006499999996,71.0,86.0
53,23.438256499999998,24.182006499999996,74.0,86.0
54,24.188256499999998,26.78980095,72.0,90.0
55,26.7958985,27.1646485,67.0,83.0
56,27.1708985,27.5396485,69.0,82.0
57,27.5458985,27.93405655,72.0,90.0
58,27.9406355,28.32879355,74.0,84.0
59,28.3353725,28.72353055,76.0,84.0
60,28.7301095,29.11826755,74.0,86.0
61,29.1248465,29.50305125,72.0,90.0
62,29.5094615,29.88766625,74.0,84.0
63,29.8940765,30.27228125,76.0,90.0
64,30.2786915,30.65689625,79.0,84.0
65,30.6633065,32.19535625,76.0,79.0
66,32.2017665,32.5705165,76.0,90.0
67,32.5767665,32.9455165,74.0,86.0
68,32.9517665,33.3205165,72.0,84.0
69,33.3267665,33.6955165,69.0,80.0
70,33.7017665,34.0705165,72.0,90.0
71,34.0767665,34.4455165,74.0,80.0
72,34.4517665,34.8205165,72.0,82.0
73,34.8267665,35.0080165,67.0,81.0
74,35.0142665,35.765057883333334,76.0,84.0
75,35.771387,35.95493138333333,76.0,86.0
76,35.961260499999995,36.349418549999996,77.0,91.0
77,36.355997499999994,36.744155549999995,76.0,82.0
78,36.75073449999999,37.138892549999994,74.0,83.0
79,37.14547149999999,37.33626105,72.0,93.0
80,37.342839999999995,37.53362954999999,72.0,86.0
81,37.54020849999999,37.91841324999999,74.0,84.0
82,37.92482349999999,38.30302824999999,76.0,82.0
83,38.30943849999999,39.04400665833332,74.0,83.0
84,39.05017949999999,39.493080889583325,67.0,90.0
85,39.42054999999999,39.87888349374999,69.0,83.0
86,39.79092049999999,40.10419221458333,72.0,90.0
87,40.16129099999999,40.506970133333326,74.0,86.0
88,40.53166149999999,40.87941756249999,76.0,84.0
89,40.91627649999999,41.25762231249999,74.0,81.0
90,41.30089149999999,41.64704499999999,72.0,84.0
91,41.68550649999999,42.04608306249999,74.0,90.0
92,42.07012149999999,42.53806974999999,76.0,84.0
93,42.45473649999999,42.794479749999994,79.0,83.0
94,42.83935149999999,43.640632749999995,76.0,86.0
95,45.14704149999999,46.79287318749999,74.0,78.0
96,46.68550149999999,47.49960324999999,72.0,98.0
97,47.454731499999994,47.81050037499999,71.0,91.0
98,48.60857649999999,49.17575736249999,72.0,93.0
99,47.83934649999999,49.415889037499994,74.0,95.0
100,50.17740249999999,50.71213949999999,72.0,90.0
101,50.57213949999999,50.91713949999999,76.0,86.0
102,50.97213949999999,51.40495199999999,79.0,83.0
103,51.37213949999999,52.50338949999999,81.0,91.0
104,52.49713949999999,52.89245199999999,79.0,80.0
105,52.87213949999999,53.18932699999999,81.0,90.0
106,53.24713949999999,53.29245199999999,81.0,43.0
107,53.24713949999999,53.61588949999999,79.0,79.0
108,53.62213949999999,53.96276449999999,76.0,94.0
109,53.99713949999999,54.38151449999999,74.0,83.0
110,54.37213949999999,54.76120199999999,76.0,90.0
111,54.74713949999999,55.15026449999999,79.0,82.0
112,55.12213949999999,56.04870199999999,76.0,83.0
113,56.24713949999999,56.30651449999999,74.0,63.0
114,56.24713949999999,56.72370199999999,72.0,78.0
115,56.62213949999999,56.937764499999986,76.0,86.0
116,56.99713949999999,57.351826999999986,79.0,83.0
117,57.37213949999999,58.26687669999999,81.0,90.0
118,58.556350499999986,58.79648217499999,79.0,83.0
119,58.951087499999986,59.197923049999986,81.0,95.0
120,59.33083449999999,59.53020167499999,79.0,83.0
121,59.71058149999999,60.00646770416665,76.0,98.0
122,60.090328499999984,60.27703744166665,74.0,82.0
123,60.28020199999999,62.104447999999984,76.0,84.0
124,62.37367849999998,62.80156268749999,72.0,98.0
125,62.758293499999986,63.09322906249999,76.0,86.0
126,63.14290849999998,63.50829274999999,79.0,90.0
127,63.52752349999999,64.44098412499999,81.0,90.0
128,64.29675349999998,64.44098412499999,81.0,95.0
129,65.06598349999999,65.36203624999999,80.0,103.0
130,65.4607205,65.93276016249999,76.0,90.0
131,65.85545749999999,66.16466814999998,83.0,91.0
132,66.25019449999999,66.56104988749999,84.0,83.0
133,66.64493149999998,66.77330990833332,81.0,84.0
134,66.78006666666666,67.07229646458332,83.0,81.0
135,67.05033699999998,67.29526948958332,81.0,91.0
136,67.45574249999999,67.78513446874999,76.0,98.0
137,67.86114799999999,68.06385074999999,74.0,98.0
138,68.06385074999999,68.26655349999999,74.0,98.0
139,68.46925624999999,68.78851308124999,72.0,100.0
140,71.83822749999999,72.02177188333333,69.0,84.0
141,72.02810099999999,72.21164538333332,69.0,83.0
142,72.2179745,72.62769606666666,76.0,86.0
143,72.6346405,73.04436206666666,77.0,93.0
144,73.0513065,73.46102806666666,79.0,84.0
145,73.4679725,73.87769406666666,72.0,83.0
146,73.8846385,75.10108699999999,72.0,86.0
147,75.1075805,75.295892,69.0,86.0
148,75.3023855,75.490697,69.0,80.0
149,75.49719049999999,75.91861864999998,76.0,86.0
150,75.9257615,76.34718964999999,77.0,84.0
151,76.35433249999998,76.77576065,79.0,79.0
152,76.78290349999999,77.41861714999999,72.0,82.0
153,77.42575999999998,77.84718815,74.0,82.0
154,77.85433099999999,79.77575764999999,72.0,86.0
155,80.79984849999998,81.88870383333331,67.0,91.0
156,81.69537049999998,82.48870383333332,77.0,98.0
157,82.49537049999998,82.88870383333331,77.0,95.0
158,82.89537049999998,83.28870383333332,76.0,82.0
159,83.29537049999998,83.66412049999998,76.0,86.0
160,83.67037049999998,84.03912049999998,74.0,84.0
161,84.04537049999998,84.41412049999998,72.0,86.0
162,84.42037049999998,84.60162049999998,74.0,81.0
163,84.60787049999998,85.16412049999998,76.0,86.0
164,85.17037049999998,85.53912049999998,77.0,95.0
165,85.54537049999998,85.91412049999998,77.0,91.0
166,85.92037049999998,86.28912049999998,76.0,86.0
167,86.29537049999998,86.66412049999998,76.0,93.0
168,86.67037049999998,87.03912049999998,74.0,90.0
169,87.04537049999998,87.42848699999998,72.0,90.0
170,87.43498049999998,87.62329199999998,74.0,84.0
171,87.62978549999998,88.20770699999997,76.0,83.0
172,88.21420049999998,88.59731699999998,79.0,86.0
173,88.60381049999998,88.98692699999998,79.0,86.0
174,88.99342049999997,89.37653699999997,77.0,84.0
175,89.38303049999998,89.76614699999998,76.0,84.0
176,89.77264049999998,90.15575699999998,74.0,72.0
177,90.16225049999997,90.52644815833331,72.0,84.0
178,90.53262099999998,90.8968186583333,74.0,78.0
179,90.90299149999997,91.2764093833333,76.0,80.0
180,91.28273849999997,91.4662828833333,77.0,84.0
181,91.47261199999997,91.6561563833333,77.0,84.0
182,91.66248549999997,93.10224340833331,74.0,90.0
183,93.10826749999997,93.89116254999996,67.0,84.0
184,93.89774149999997,94.68063654999997,77.0,90.0
185,94.68721549999997,95.06542024999996,77.0,80.0
186,95.07183049999996,95.45003524999997,76.0,79.0
187,95.45644549999996,95.83465024999997,76.0,82.0
188,95.84106049999997,96.21926524999996,74.0,84.0
189,96.22567549999997,96.60388024999996,72.0,83.0
190,96.61029049999996,96.79618774999996,74.0,80.0
191,96.80259799999996,97.38306354999996,76.0,84.0
192,97.38964249999997,97.77780054999995,77.0,93.0
193,97.78437949999996,98.15779738333329,77.0,86.0
194,98.16412649999995,98.53754438333328,76.0,84.0
195,98.54387349999996,98.91729138333329,76.0,90.0
196,98.92362049999996,99.29703838333329,74.0,84.0
197,99.30336749999995,99.48691188333329,72.0,93.0
198,99.49324099999995,99.6767853833333,72.0,80.0
199,99.68311449999996,99.86665888333329,74.0,79.0
200,99.87298799999996,100.43627938333329,76.0,83.0
201,100.44260849999996,100.8160263833333,79.0,84.0
202,100.82235549999996,101.19577338333329,79.0,84.0
203,101.20210249999995,101.57552038333328,77.0,86.0
204,101.58184949999996,101.9552673833333,76.0,86.0
205,101.96159649999996,102.33501438333329,74.0,84.0
206,102.34134349999997,103.09450838333329,72.0,84.0
207,103.10083749999995,103.51055906666662,71.0,86.0
208,103.51750349999996,103.93416949999995,74.0,86.0
209,103.93416949999995,104.30916949999995,74.0,86.0
210,104.68416949999995,107.33784115833329,72.0,90.0
211,131.35498249999998,131.73318725,67.0,83.0
212,131.73959749999997,132.11780224999998,69.0,82.0
213,132.12421249999997,132.50241724999998,72.0,90.0
214,132.50882749999997,132.88703224999998,74.0,84.0
215,132.89344249999996,133.27164724999997,76.0,84.0
216,133.2780575,133.65626224999997,74.0,86.0
217,133.66267249999999,134.04087724999997,72.0,90.0
218,134.04728749999998,134.42549225,74.0,84.0
219,134.43190249999998,134.8053203833333,76.0,90.0
220,134.8116495,135.18506738333332,79.0,84.0
221,135.19139649999997,136.7040553833333,76.0,79.0
222,136.71038449999998,137.09350099999997,76.0,90.0
223,137.09999449999998,137.48311099999998,74.0,86.0
224,137.48960449999998,137.87272099999998,72.0,84.0
225,137.8792145,138.262331,69.0,80.0
226,138.26882449999997,138.65194099999997,72.0,90.0
227,138.65843449999997,139.04155099999997,74.0,80.0
228,139.04804449999997,139.41679449999998,72.0,82.0
229,139.42304449999997,139.60429449999998,67.0,81.0
230,139.61054449999997,140.35429449999998,76.0,84.0
231,140.36054449999997,140.54179449999998,76.0,86.0
232,140.54804449999997,140.91679449999998,77.0,91.0
233,140.92304449999997,141.29179449999998,76.0,82.0
234,141.29804449999997,141.66679449999998,74.0,83.0
235,141.67304449999997,141.85429449999998,72.0,93.0
236,141.86054449999997,142.04179449999998,72.0,86.0
237,142.04804449999997,142.43116099999997,74.0,84.0
238,142.43765449999998,142.82077099999998,76.0,82.0
239,142.82726449999998,143.599991,74.0,83.0
240,143.60648449999997,144.07239312499996,67.0,90.0
241,143.99609449999997,144.47823687499996,69.0,83.0
242,144.38570449999997,144.71524962499998,72.0,90.0
243,144.77531449999998,145.13895049999996,74.0,86.0
244,145.16492449999998,145.51268056249998,76.0,84.0
245,145.54953949999998,145.8908853125,74.0,81.0
246,145.93415449999998,146.27592679999998,72.0,84.0
247,146.3139015,146.66991431249997,74.0,90.0
248,146.69364849999997,147.14426594166665,76.0,84.0
249,147.06401899999997,147.3911796083333,79.0,83.0
250,147.43438949999998,148.18292104166665,76.0,86.0
251,149.73982149999998,151.3804154625,74.0,78.0
252,151.2782815,152.05604015,72.0,98.0
253,152.0099875,152.375119225,71.0,91.0
254,153.1744615,153.72965612500002,72.0,93.0
255,152.4047245,153.966668875,74.0,95.0
256,154.7132965,155.23082295,72.0,90.0
257,155.0979115,155.4254432875,76.0,86.0
258,155.47765850000002,155.8906333625,79.0,83.0
259,155.8574055,157.00297561666667,81.0,91.0
260,156.9966465,157.39696312916666,79.0,80.0
261,157.3763935,157.69759617083335,81.0,90.0
262,157.75614050000001,157.80202659583335,81.0,43.0
263,157.75614050000001,158.12955838333335,79.0,79.0
264,158.13588750000002,158.48082435833334,76.0,94.0
265,158.5156345,158.904875175,74.0,83.0
266,158.8953815,159.2893690125,76.0,90.0
267,159.27512850000002,159.683721625,79.0,82.0
268,159.6548755,160.6051950625,76.0,83.0
269,160.8087205,160.869617875,74.0,63.0
270,160.8087205,161.2975020625,72.0,78.0
271,161.1933355,161.517053125,76.0,86.0
272,161.57795050000001,161.9417321875,79.0,83.0
273,161.9625655,162.8343595,81.0,90.0
274,163.1164105,163.350384625,79.0,83.0
275,163.5010255,163.741766325,81.0,95.0
276,163.871396,164.0658405125,79.0,83.0
277,164.2417665,164.55764495208334,76.0,98.0
278,164.647172,164.84649637083334,74.0,82.0
279,164.84987475,166.67157150000003,76.0,84.0
280,166.94429850000003,167.3766300375,72.0,98.0
281,167.3339085,167.66460484583334,76.0,86.0
282,167.71365550000002,168.07441515,79.0,90.0
283,168.0934025,168.995301625,81.0,90.0
284,168.8528965,168.995301625,81.0,95.0
285,169.6123905,169.89720075,80.0,103.0
286,169.9921375,170.448183125,76.0,90.0
287,170.37188450000002,170.67707900000002,83.0,91.0
288,170.76149450000003,171.06831237500003,84.0,83.0
289,171.15110450000003,171.274481,81.0,84.0
290,171.2809745,171.56181837500003,83.0,81.0
291,171.54071450000004,171.77610387500002,81.0,91.0
292,171.9303245,172.246882625,76.0,98.0
293,172.31993450000002,172.51473950000002,74.0,98.0
294,172.51473950000002,172.70954450000002,74.0,98.0
295,172.90434950000002,173.21116737500003,72.0,100.0
296,176.82634230833335,177.02497225000002,69.0,84.0
297,177.03182155833338,177.23045150000004,69.0,83.0
298,177.23678061666672,177.61019850000005,76.0,86.0
299,177.6165276166667,177.98994550000003,77.0,93.0
300,177.9962746166667,178.36969250000004,79.0,84.0
301,178.37602161666672,178.74943950000005,72.0,83.0
302,178.75690218333338,180.02957650000005,72.0,86.0
303,180.03598675000006,180.22188400000005,69.0,86.0
304,180.22829425000006,180.41419150000004,69.0,80.0
305,180.4203643416667,180.78456200000005,76.0,86.0
306,180.7907348416667,181.15493250000006,77.0,84.0
307,181.16088487500005,181.51207500000007,79.0,79.0
308,181.51802737500006,182.04778875000005,72.0,82.0
309,182.05374112500004,182.40493125000006,74.0,82.0
310,182.41088362500005,184.00366950000006,72.0,86.0
311,184.71761601666674,185.86716700000005,67.0,91.0
312,185.68362261666672,186.43678750000004,77.0,98.0
313,186.4431166166667,186.81653450000005,77.0,95.0
314,186.82286361666672,187.19628150000005,76.0,82.0
315,187.20269175000004,187.58089650000005,76.0,86.0
316,187.58730675000007,187.96551150000005,74.0,84.0
317,187.97192175000006,188.35012650000004,72.0,86.0
318,188.35653675000006,188.54243400000004,74.0,81.0
319,188.54884425000006,189.11935650000007,76.0,86.0
320,189.12576675000005,189.50397150000006,77.0,95.0
321,189.51038175000005,189.88858650000006,77.0,91.0
322,189.89499675000005,190.27320150000006,76.0,86.0
323,190.27961175000004,190.65781650000005,76.0,93.0
324,190.66422675000007,191.04243150000005,74.0,90.0
325,191.04884175000007,191.42704650000005,72.0,90.0
326,191.43345675000006,191.61935400000004,74.0,84.0
327,191.62576425000006,192.19627650000007,76.0,83.0
328,192.20268675000005,192.58089150000006,79.0,86.0
329,192.58730175000005,192.96550650000006,79.0,86.0
330,192.97191675000005,193.35012150000006,77.0,84.0
331,193.35621905000005,193.71597450000004,76.0,84.0
332,193.72207205000007,194.08182750000006,74.0,72.0
333,194.08792505000005,194.44768050000005,72.0,84.0
334,194.45377805000007,194.81353350000006,74.0,78.0
335,194.81963105000005,195.17938650000005,76.0,80.0
336,195.18548405000007,195.36231300000006,77.0,84.0
337,195.36841055000005,195.54523950000006,77.0,84.0
338,195.55133705000006,197.06641950000008,74.0,90.0
339,197.07299845000006,197.85589350000006,67.0,84.0
340,197.86247245000007,198.64536750000008,77.0,90.0
341,198.65194645000005,199.04010450000007,77.0,80.0
342,199.04668345000007,199.43484150000006,76.0,79.0
343,199.44142045000007,199.82957850000008,76.0,82.0
344,199.83615745000006,200.22431550000007,74.0,84.0
345,200.23056550000007,200.59931550000007,72.0,83.0
346,200.60556550000007,200.78681550000007,74.0,80.0
347,200.79306550000007,201.34931550000007,76.0,84.0
348,201.35556550000007,201.72431550000007,77.0,93.0
349,201.73056550000007,202.09931550000007,77.0,86.0
350,202.10556550000007,202.47431550000007,76.0,84.0
351,202.48056550000007,202.84931550000007,76.0,90.0
352,202.85556550000007,203.22431550000007,74.0,84.0
353,203.23056550000007,203.41181550000007,72.0,93.0
354,203.41806550000007,203.59931550000007,72.0,80.0
355,203.60556550000007,203.78681550000007,74.0,79.0
356,203.79306550000007,204.37972100000007,76.0,83.0
357,204.3864777583334,204.78512650000008,79.0,84.0
358,204.7918832583334,205.19053200000008,79.0,84.0
359,205.1972887583334,205.59593750000008,77.0,86.0
360,205.6026942583334,206.00134300000008,76.0,86.0
361,206.0080997583334,206.40674850000008,74.0,84.0
362,206.41256245000008,207.10442250000008,72.0,84.0
363,207.1102364500001,207.4532595000001,71.0,86.0
364,207.4590734500001,207.80876316666675,74.0,86.0
365,207.80876316666675,208.20876316666676,74.0,86.0
366,208.20876316666676,208.36542983333342,74.0,86.0
367,209.40904093333342,210.4940490000001,67.0,91.0
368,210.24404918333343,211.2699105000001,77.0,98.0
369,208.60876316666676,211.6545255000001,72.0,90.0
370,211.27632075000008,211.6545255000001,77.0,95.0
371,211.6609357500001,212.0391405000001,76.0,82.0
372,212.0455507500001,212.42375550000008,76.0,86.0
373,212.4301657500001,212.80837050000008,74.0,84.0
374,212.8147807500001,213.1929855000001,72.0,86.0
375,213.1993957500001,213.3852930000001,74.0,81.0
376,213.3917032500001,213.9622155000001,76.0,86.0
377,213.9686257500001,214.3468305000001,77.0,95.0
378,214.35324075000008,214.7314455000001,77.0,91.0
379,214.7378557500001,215.1160605000001,76.0,86.0
380,215.1224707500001,215.50067550000009,76.0,93.0
381,215.5070857500001,215.88529050000008,74.0,90.0
382,215.8917007500001,216.2699055000001,72.0,90.0
383,216.2763157500001,216.4622130000001,74.0,84.0
384,216.4686232500001,217.0391355000001,76.0,83.0
385,217.0455457500001,217.4237505000001,79.0,86.0
386,217.42992334166675,217.7941210000001,79.0,86.0
387,217.80029384166676,218.1644915000001,77.0,84.0
388,218.17066434166676,218.5348620000001,76.0,84.0
389,218.54103484166677,218.9052325000001,74.0,72.0
390,218.9118114500001,219.2999695000001,72.0,84.0
391,219.3065484500001,219.6947065000001,74.0,78.0
392,219.70128545000009,220.0894435000001,76.0,80.0
393,220.0960224500001,220.28681200000008,77.0,84.0
394,220.2933909500001,220.4841805000001,77.0,84.0
395,220.49035334166675,221.9941515000001,74.0,90.0
396,222.00056175000012,222.7633815000001,67.0,84.0
397,222.7697917500001,223.53261150000012,77.0,90.0
398,223.53878434166677,223.90298200000012,77.0,80.0
399,223.90915484166678,224.27335250000013,76.0,79.0
400,224.27976275000012,224.65796750000013,76.0,82.0
401,224.66437775000014,225.04258250000012,74.0,84.0
402,225.04899275000014,225.42719750000012,72.0,83.0
403,225.43360775000014,225.61950500000012,74.0,80.0
404,225.62591525000013,226.19642750000014,76.0,84.0
405,226.20283775000013,226.58104250000014,77.0,93.0
406,226.58745275000012,226.96565750000013,77.0,86.0
407,226.97206775000012,227.35027250000013,76.0,84.0
408,227.3566016166668,227.73001950000014,76.0,90.0
409,227.7363486166668,228.10976650000012,74.0,84.0
410,228.1160956166668,228.29964000000012,72.0,93.0
411,228.3059691166668,228.48951350000013,72.0,80.0
412,228.4958426166668,228.67938700000013,74.0,79.0
413,228.6857161166668,229.25887050000014,76.0,83.0
414,229.26536400000015,229.64848050000015,79.0,84.0
415,229.65505945000015,230.04321750000014,79.0,84.0
416,230.04979645000014,230.43795450000016,77.0,86.0
417,230.44453345000014,230.83269150000015,76.0,86.0
418,230.83927045000016,231.22742850000014,74.0,84.0
419,231.23620042500013,232.28005950000014,72.0,84.0
420,232.28949345833348,232.84609700000013,71.0,86.0
421,232.85553095833347,233.41927735000013,74.0,86.0
422,233.41927735000013,233.84784835000013,74.0,86.0
423,233.84784835000013,234.0157053250001,74.0,86.0
424,234.2764193500001,236.8799715000001,72.0,90.0
