,start,end,pitch,velocity
0,18.806640625,19.2734375,78.0,119.0
1,19.275390625,19.509765625,78.0,113.0
2,19.509765625,19.9765625,76.0,106.0
3,19.978515625,21.6171875,76.0,104.0
4,21.619140625,21.8515625,76.0,104.0
5,21.853515625,22.322265625,76.0,96.0
6,22.322265625,22.556640625,78.0,97.0
7,22.556640625,22.83203125,74.0,96.0
8,22.791015625,26.306640625,71.0,107.0
9,26.306640625,26.7734375,74.0,86.0
10,26.775390625,27.0078125,74.0,90.0
11,27.009765625,27.2421875,74.0,87.0
12,27.244140625,29.119140625,74.0,91.0
13,29.119140625,29.4453125,76.0,94.0
14,29.353515625,29.822265625,74.0,93.0
15,29.822265625,30.0546875,76.0,88.0
16,30.056640625,30.994140625,76.0,91.0
17,30.994140625,31.931640625,78.0,97.0
18,33.337890625,33.572265625,78.0,109.0
19,33.572265625,33.806640625,81.0,110.0
20,33.806640625,34.0390625,83.0,108.0
21,34.041015625,34.2734375,83.0,102.0
22,34.275390625,34.5078125,83.0,102.0
23,34.509765625,34.7421875,83.0,102.0
24,34.744140625,34.978515625,83.0,108.0
25,34.978515625,35.2109375,81.0,91.0
26,35.212890625,35.681640625,81.0,104.0
27,35.681640625,36.3828125,76.0,114.0
28,36.384765625,36.619140625,76.0,108.0
29,36.619140625,36.853515625,74.0,91.0
30,36.853515625,37.087890625,76.0,94.0
31,37.087890625,37.322265625,74.0,102.0
32,37.322265625,37.556640625,76.0,93.0
33,37.556640625,37.7890625,81.0,117.0
34,37.791015625,38.0234375,81.0,93.0
35,38.025390625,38.259765625,81.0,110.0
36,38.259765625,38.494140625,78.0,106.0
37,38.494140625,38.728515625,81.0,116.0
38,38.728515625,38.962890625,78.0,109.0
39,38.962890625,39.197265625,76.0,95.0
40,39.197265625,39.4296875,74.0,104.0
41,39.431640625,40.837890625,74.0,90.0
42,40.837890625,41.072265625,78.0,106.0
43,41.072265625,41.306640625,81.0,98.0
44,41.306640625,41.5390625,83.0,102.0
45,41.541015625,41.7734375,83.0,93.0
46,41.775390625,42.009765625,83.0,100.0
47,42.009765625,42.244140625,81.0,102.0
48,42.244140625,42.7109375,83.0,104.0
49,42.712890625,43.181640625,83.0,113.0
50,43.181640625,44.119140625,76.0,96.0
51,44.119140625,44.587890625,74.0,104.0
52,44.587890625,44.822265625,76.0,98.0
53,44.822265625,48.3359375,78.0,113.0
54,48.337890625,48.572265625,78.0,116.0
55,48.572265625,48.806640625,81.0,108.0
56,48.806640625,49.0390625,83.0,107.0
57,49.041015625,49.2734375,83.0,98.0
58,49.275390625,49.509765625,83.0,102.0
59,49.509765625,49.744140625,81.0,113.0
60,49.744140625,50.212890625,83.0,107.0
61,50.212890625,50.681640625,81.0,108.0
62,50.681640625,51.3828125,76.0,110.0
63,51.384765625,51.619140625,76.0,108.0
64,51.619140625,51.875,74.0,104.0
65,51.853515625,52.087890625,76.0,102.0
66,52.087890625,52.349609375,74.0,104.0
67,52.322265625,52.556640625,76.0,107.0
68,52.556640625,52.791015625,78.0,116.0
69,52.791015625,53.0234375,81.0,108.0
70,53.025390625,53.2578125,81.0,108.0
71,53.259765625,53.4921875,81.0,104.0
72,53.494140625,53.7265625,81.0,116.0
73,53.728515625,53.962890625,81.0,107.0
74,53.962890625,54.197265625,86.0,113.0
75,54.197265625,54.666015625,85.0,113.0
76,54.666015625,55.837890625,83.0,108.0
77,55.837890625,56.099609375,71.0,108.0
78,56.072265625,56.306640625,74.0,107.0
79,56.306640625,56.541015625,78.0,113.0
80,56.541015625,57.244140625,76.0,110.0
81,57.244140625,57.48046875,71.0,108.0
82,57.478515625,57.712890625,74.0,93.0
83,57.712890625,57.9453125,78.0,119.0
84,57.947265625,58.416015625,78.0,113.0
85,58.416015625,58.884765625,76.0,104.0
86,58.884765625,59.14453125,78.0,113.0
87,59.119140625,59.353515625,76.0,100.0
88,59.353515625,59.587890625,74.0,104.0
89,59.587890625,60.056640625,76.0,107.0
90,60.056640625,61.931640625,74.0,108.0
91,93.806640625,94.2734375,78.0,119.0
92,94.275390625,94.509765625,78.0,113.0
93,94.509765625,94.9765625,76.0,106.0
94,94.978515625,96.6171875,76.0,104.0
95,96.619140625,96.8515625,76.0,104.0
96,96.853515625,97.322265625,76.0,96.0
97,97.322265625,97.556640625,78.0,97.0
98,97.556640625,97.83203125,74.0,96.0
99,97.791015625,101.306640625,71.0,107.0
100,101.306640625,101.7734375,74.0,86.0
101,101.775390625,102.0078125,74.0,90.0
102,102.009765625,102.2421875,74.0,87.0
103,102.244140625,104.119140625,74.0,91.0
104,104.119140625,104.4453125,76.0,94.0
105,104.353515625,104.822265625,74.0,93.0
106,104.822265625,105.0546875,76.0,88.0
107,105.056640625,105.994140625,76.0,91.0
108,105.994140625,108.3359375,78.0,97.0
109,108.337890625,108.572265625,78.0,109.0
110,108.572265625,108.806640625,81.0,110.0
111,108.806640625,109.0390625,83.0,108.0
112,109.041015625,109.2734375,83.0,102.0
113,109.275390625,109.5078125,83.0,102.0
114,109.509765625,109.7421875,83.0,102.0
115,109.744140625,109.978515625,83.0,108.0
116,109.978515625,110.2109375,81.0,91.0
117,110.212890625,110.681640625,81.0,104.0
118,110.681640625,111.3828125,76.0,114.0
119,111.384765625,111.619140625,76.0,108.0
120,111.619140625,111.853515625,74.0,91.0
121,111.853515625,112.087890625,76.0,94.0
122,112.087890625,112.322265625,74.0,102.0
123,112.322265625,112.556640625,76.0,93.0
124,112.556640625,112.7890625,81.0,117.0
125,112.791015625,113.0234375,81.0,93.0
126,113.025390625,113.259765625,81.0,110.0
127,113.259765625,113.494140625,78.0,106.0
128,113.494140625,113.728515625,81.0,116.0
129,113.728515625,113.962890625,78.0,109.0
130,113.962890625,114.197265625,76.0,95.0
131,114.197265625,114.4296875,74.0,104.0
132,114.431640625,115.837890625,74.0,90.0
133,115.837890625,116.072265625,78.0,106.0
134,116.072265625,116.306640625,81.0,98.0
135,116.306640625,116.5390625,83.0,102.0
136,116.541015625,116.7734375,83.0,93.0
137,116.775390625,117.009765625,83.0,100.0
138,117.009765625,117.244140625,81.0,102.0
139,117.244140625,117.7109375,83.0,104.0
140,117.712890625,118.181640625,83.0,113.0
141,118.181640625,119.119140625,76.0,96.0
142,119.119140625,119.587890625,74.0,104.0
143,119.587890625,119.822265625,76.0,98.0
144,119.822265625,123.3359375,78.0,113.0
145,123.337890625,123.572265625,78.0,116.0
146,123.572265625,123.806640625,81.0,108.0
147,123.806640625,124.0390625,83.0,107.0
148,124.041015625,124.2734375,83.0,98.0
149,124.275390625,124.509765625,83.0,102.0
150,124.509765625,124.744140625,81.0,113.0
151,124.744140625,125.212890625,83.0,107.0
152,125.212890625,125.681640625,81.0,108.0
153,125.681640625,126.3828125,76.0,110.0
154,126.384765625,126.619140625,76.0,108.0
155,126.619140625,126.875,74.0,104.0
156,126.853515625,127.087890625,76.0,102.0
157,127.087890625,127.349609375,74.0,104.0
158,127.322265625,127.556640625,76.0,107.0
159,127.556640625,127.791015625,78.0,116.0
160,127.791015625,128.0234375,81.0,108.0
161,128.025390625,128.2578125,81.0,108.0
162,128.259765625,128.4921875,81.0,104.0
163,128.494140625,128.7265625,81.0,116.0
164,128.728515625,128.962890625,81.0,107.0
165,128.962890625,129.197265625,86.0,113.0
166,129.197265625,129.666015625,85.0,113.0
167,129.666015625,130.837890625,83.0,108.0
168,130.837890625,131.099609375,71.0,108.0
169,131.072265625,131.306640625,74.0,107.0
170,131.306640625,131.541015625,78.0,113.0
171,131.541015625,132.244140625,76.0,110.0
172,132.244140625,132.48046875,71.0,108.0
173,132.478515625,132.712890625,74.0,93.0
174,132.712890625,132.9453125,78.0,119.0
175,132.947265625,133.416015625,78.0,113.0
176,133.416015625,133.884765625,76.0,104.0
177,133.884765625,134.14453125,78.0,113.0
178,134.119140625,134.353515625,76.0,100.0
179,134.353515625,134.587890625,74.0,104.0
180,134.587890625,135.056640625,76.0,107.0
181,135.056640625,138.806640625,74.0,108.0
182,138.806640625,139.041015625,81.0,113.0
183,139.041015625,139.5078125,74.0,108.0
184,139.509765625,140.212890625,74.0,114.0
185,140.212890625,140.4453125,69.0,108.0
186,140.447265625,140.681640625,69.0,113.0
187,140.681640625,140.9140625,76.0,116.0
188,140.916015625,141.1484375,76.0,116.0
189,141.150390625,141.384765625,76.0,107.0
190,141.384765625,141.6171875,74.0,104.0
191,141.619140625,142.0859375,74.0,114.0
192,142.087890625,142.345703125,74.0,117.0
193,142.322265625,142.556640625,76.0,107.0
194,142.556640625,143.025390625,78.0,116.0
195,143.025390625,143.962890625,81.0,117.0
196,143.962890625,144.197265625,83.0,117.0
197,144.197265625,144.666015625,81.0,116.0
198,144.666015625,146.306640625,78.0,113.0
199,146.306640625,146.775390625,76.0,110.0
200,146.775390625,147.009765625,78.0,116.0
201,147.009765625,147.478515625,76.0,113.0
202,147.478515625,148.181640625,74.0,117.0
203,148.181640625,148.4140625,76.0,114.0
204,148.416015625,148.6484375,76.0,108.0
205,148.650390625,148.884765625,76.0,110.0
206,148.884765625,149.3515625,74.0,116.0
207,149.353515625,149.587890625,74.0,114.0
208,149.587890625,150.0546875,78.0,106.0
209,150.056640625,153.806640625,78.0,119.0
210,153.806640625,154.041015625,81.0,113.0
211,154.041015625,154.5078125,74.0,108.0
212,154.509765625,155.212890625,74.0,114.0
213,155.212890625,155.4453125,69.0,108.0
214,155.447265625,155.681640625,69.0,113.0
215,155.681640625,155.9140625,76.0,116.0
216,155.916015625,156.3828125,76.0,116.0
217,156.384765625,156.6171875,76.0,104.0
218,156.619140625,156.853515625,76.0,114.0
219,156.853515625,157.322265625,74.0,117.0
220,157.322265625,157.556640625,76.0,107.0
221,157.556640625,158.025390625,78.0,116.0
222,158.025390625,158.4921875,81.0,117.0
223,158.494140625,158.751953125,81.0,116.0
224,158.728515625,159.197265625,78.0,95.0
225,159.197265625,159.505859375,85.0,119.0
226,159.431640625,161.3046875,86.0,117.0
227,161.306640625,161.5390625,86.0,117.0
228,161.541015625,161.775390625,86.0,110.0
229,161.775390625,162.009765625,83.0,110.0
230,162.009765625,162.7109375,86.0,120.0
231,162.712890625,162.947265625,86.0,117.0
232,162.947265625,163.181640625,83.0,110.0
233,163.181640625,163.650390625,86.0,120.0
234,163.650390625,164.119140625,83.0,117.0
235,164.119140625,164.369140625,81.0,119.0
236,164.353515625,164.8203125,83.0,110.0
237,164.822265625,165.525390625,83.0,117.0
238,168.337890625,168.572265625,80.0,109.0
239,168.572265625,168.806640625,83.0,110.0
240,168.806640625,169.0390625,85.0,108.0
241,169.041015625,169.2734375,85.0,102.0
242,169.275390625,169.5078125,85.0,102.0
243,169.509765625,169.7421875,85.0,102.0
244,169.744140625,169.978515625,85.0,108.0
245,169.978515625,170.2109375,83.0,91.0
246,170.212890625,170.681640625,83.0,104.0
247,170.681640625,171.3828125,78.0,114.0
248,171.384765625,171.619140625,78.0,108.0
249,171.619140625,171.853515625,76.0,91.0
250,171.853515625,172.087890625,78.0,94.0
251,172.087890625,172.322265625,76.0,102.0
252,172.322265625,172.556640625,78.0,93.0
253,172.556640625,172.7890625,83.0,117.0
254,172.791015625,173.0234375,83.0,93.0
255,173.025390625,173.259765625,83.0,110.0
256,173.259765625,173.494140625,80.0,106.0
257,173.494140625,173.728515625,83.0,116.0
258,173.728515625,173.962890625,80.0,109.0
259,173.962890625,174.197265625,78.0,95.0
260,174.197265625,174.4296875,76.0,104.0
261,174.431640625,175.837890625,76.0,90.0
262,175.837890625,176.072265625,80.0,106.0
263,176.072265625,176.306640625,83.0,98.0
264,176.306640625,176.5390625,85.0,102.0
265,176.541015625,176.7734375,85.0,93.0
266,176.775390625,177.009765625,85.0,100.0
267,177.009765625,177.244140625,83.0,102.0
268,177.244140625,177.7109375,85.0,104.0
269,177.712890625,178.181640625,85.0,113.0
270,178.181640625,179.119140625,78.0,96.0
271,179.119140625,179.587890625,76.0,104.0
272,179.587890625,179.822265625,78.0,98.0
273,179.822265625,183.3359375,80.0,113.0
274,183.337890625,183.572265625,80.0,116.0
275,183.572265625,183.806640625,83.0,108.0
276,183.806640625,184.0390625,85.0,107.0
277,184.041015625,184.2734375,85.0,98.0
278,184.275390625,184.509765625,85.0,102.0
279,184.509765625,184.744140625,83.0,113.0
280,184.744140625,185.212890625,85.0,107.0
281,185.212890625,185.681640625,83.0,108.0
282,185.681640625,186.3828125,78.0,110.0
283,186.384765625,186.619140625,78.0,108.0
284,186.619140625,186.875,76.0,104.0
285,186.853515625,187.087890625,78.0,102.0
286,187.087890625,187.349609375,76.0,104.0
287,187.322265625,187.556640625,78.0,107.0
288,187.556640625,187.791015625,80.0,116.0
289,187.791015625,188.0234375,83.0,108.0
290,188.025390625,188.2578125,83.0,108.0
291,188.259765625,188.4921875,83.0,104.0
292,188.494140625,188.7265625,83.0,116.0
293,188.728515625,188.962890625,83.0,107.0
294,188.962890625,189.197265625,88.0,113.0
295,189.197265625,189.666015625,87.0,113.0
296,189.666015625,190.837890625,85.0,108.0
297,190.837890625,191.099609375,73.0,108.0
298,191.072265625,191.306640625,76.0,107.0
299,191.306640625,191.541015625,80.0,113.0
300,191.541015625,192.244140625,78.0,110.0
301,192.244140625,192.48046875,73.0,108.0
302,192.478515625,192.712890625,76.0,93.0
303,192.712890625,192.9453125,80.0,119.0
304,192.947265625,193.416015625,80.0,113.0
305,193.416015625,193.884765625,78.0,104.0
306,193.884765625,194.14453125,80.0,113.0
307,194.119140625,194.353515625,78.0,100.0
308,194.353515625,194.587890625,76.0,104.0
309,194.587890625,195.056640625,78.0,107.0
310,195.056640625,197.740234375,76.0,108.0
311,198.376953125,198.505859375,68.0,105.0
312,198.603515625,198.87109375,68.0,104.0
313,198.861328125,199.001953125,69.0,104.0
314,199.1171875,199.48046875,69.0,102.0
315,199.642578125,199.87890625,69.0,102.0
316,199.857421875,200.189453125,71.0,99.0
317,200.091796875,200.380859375,68.0,96.0
318,200.337890625,200.466796875,71.0,96.0
319,200.595703125,201.16015625,71.0,96.0
320,201.27734375,201.42578125,71.0,96.0
321,201.533203125,201.77734375,71.0,96.0
322,201.7890625,202.099609375,64.0,94.0
323,202.068359375,202.6953125,69.0,87.0
324,202.69140625,205.2421875,68.0,79.0
