,start,end,pitch,velocity
0,16.664583333333333,16.983333333333334,72.0,94.0
1,17.164583333333333,17.2875,71.0,99.0
2,17.414583333333333,19.48125,72.0,99.0
3,21.164583333333333,21.289583333333333,72.0,93.0
4,21.414583333333333,21.535416666666666,74.0,93.0
5,21.664583333333333,21.977083333333333,71.0,89.0
6,22.164583333333333,22.304166666666667,67.0,88.0
7,22.414583333333333,24.022916666666667,71.0,89.0
8,25.164583333333333,25.34375,69.0,87.0
9,25.414583333333333,25.577083333333334,65.0,84.0
10,25.664583333333333,27.077083333333334,69.0,90.0
11,28.664583333333333,28.835416666666667,69.0,90.0
12,28.914583333333333,29.433333333333334,72.0,93.0
13,29.664583333333333,29.9375,67.0,86.0
14,30.164583333333333,30.349999999999998,60.0,86.0
15,30.414583333333333,32.275,62.0,89.0
16,32.66458333333333,33.0125,62.0,90.0
17,33.16458333333333,33.34166666666667,64.0,89.0
18,33.41458333333333,33.57083333333333,62.0,88.0
19,33.66458333333333,33.827083333333334,64.0,92.0
20,34.16458333333333,35.75208333333333,64.0,90.0
21,36.41458333333333,36.56666666666666,64.0,92.0
22,36.66458333333333,36.97708333333333,74.0,95.0
23,37.16458333333333,37.3375,72.0,88.0
24,37.41458333333333,37.56666666666666,71.0,88.0
25,37.66458333333333,39.49791666666667,72.0,89.0
26,41.16458333333333,41.31666666666666,74.0,93.0
27,41.41458333333333,41.57083333333333,76.0,88.0
28,41.66458333333333,42.02708333333333,74.0,93.0
29,42.16458333333333,43.75625,72.0,91.0
30,44.16458333333333,44.327083333333334,69.0,90.0
31,44.41458333333333,44.91041666666666,71.0,89.0
32,44.91458333333333,45.25416666666666,72.0,89.0
33,45.41458333333333,45.583333333333336,72.0,89.0
34,45.66458333333333,47.5125,67.0,88.0
35,48.66458333333333,48.983333333333334,72.0,94.0
36,49.16458333333333,49.2875,71.0,99.0
37,49.41458333333333,51.481249999999996,72.0,99.0
38,53.16458333333333,53.28958333333333,72.0,93.0
39,53.41458333333333,53.53541666666666,74.0,93.0
40,53.66458333333333,54.19166666666666,76.0,92.0
41,54.41458333333333,54.56666666666666,71.0,90.0
42,54.66458333333333,55.0625,71.0,90.0
43,55.16458333333333,55.354166666666664,69.0,89.0
44,55.41458333333333,55.614583333333336,67.0,89.0
45,55.66458333333333,56.67916666666667,71.0,89.0
46,57.16458333333333,57.34375,69.0,87.0
47,57.41458333333333,57.577083333333334,65.0,84.0
48,57.66458333333333,59.077083333333334,69.0,90.0
49,61.16458333333333,61.37708333333333,69.0,90.0
50,61.41458333333333,61.59375,72.0,90.0
51,61.66458333333333,61.94166666666666,67.0,89.0
52,62.16458333333333,62.329166666666666,60.0,89.0
53,62.41458333333333,62.75833333333333,62.0,88.0
54,62.91458333333333,63.25416666666666,64.0,90.0
55,63.41458333333333,64.47083333333333,62.0,90.0
56,64.66458333333333,65.0125,62.0,90.0
57,65.16458333333333,65.34166666666667,64.0,89.0
58,65.41458333333333,65.57083333333333,62.0,88.0
59,65.66458333333333,65.82708333333333,62.0,92.0
60,66.16458333333333,67.75208333333333,64.0,90.0
61,68.41458333333333,68.56666666666666,64.0,92.0
62,68.66458333333333,68.97708333333333,74.0,95.0
63,69.16458333333333,69.3375,72.0,88.0
64,69.41458333333333,69.56666666666666,71.0,88.0
65,69.66458333333333,69.91041666666666,71.0,88.0
66,70.16458333333333,71.99791666666667,72.0,89.0
67,72.66458333333333,73.02916666666667,72.0,92.0
68,73.16458333333333,73.31666666666666,74.0,93.0
69,73.41458333333333,73.57083333333333,76.0,88.0
70,73.66458333333333,74.02708333333334,74.0,93.0
71,74.16458333333333,75.75625,72.0,91.0
72,76.41458333333333,76.49791666666667,69.0,92.0
73,76.66458333333333,77.07291666666667,69.0,89.0
74,77.16458333333333,77.3,71.0,91.0
75,77.41458333333333,77.78333333333333,72.0,90.0
76,77.91458333333333,79.60833333333333,74.0,93.0
77,80.66458333333333,81.02916666666667,72.0,94.0
78,81.16458333333333,81.31458333333333,74.0,97.0
79,81.41458333333333,83.37708333333333,76.0,94.0
80,84.66458333333333,85.02916666666667,72.0,94.0
81,85.16458333333333,85.31458333333333,74.0,97.0
82,85.41458333333333,87.37708333333333,76.0,94.0
83,89.16458333333333,89.29583333333333,79.0,95.0
84,89.41458333333333,89.53958333333333,79.0,93.0
85,89.66458333333333,90.01458333333333,79.0,95.0
86,90.16458333333333,90.29583333333333,77.0,90.0
87,90.41458333333333,91.33333333333333,77.0,92.0
88,91.66458333333333,92.01666666666667,77.0,99.0
89,92.16458333333333,92.54791666666667,76.0,95.0
90,92.66458333333333,92.99791666666667,74.0,99.0
91,93.16458333333333,93.34375,72.0,93.0
92,93.41458333333333,94.90833333333333,74.0,99.0
93,96.66458333333333,97.1125,74.0,99.0
94,97.16458333333333,97.36875,72.0,92.0
95,97.41458333333333,99.36666666666666,76.0,90.0
96,100.66458333333333,101.16875,76.0,97.0
97,101.16458333333333,102.18541666666667,83.0,99.0
98,102.16458333333333,103.96666666666667,79.0,84.0
99,105.16458333333333,105.31041666666667,79.0,92.0
100,105.41458333333333,105.55208333333333,79.0,92.0
101,105.66458333333333,106.05,79.0,97.0
102,106.16458333333333,106.28541666666666,77.0,88.0
103,106.41458333333333,107.52291666666666,77.0,95.0
104,107.66458333333333,108.34583333333333,77.0,97.0
105,108.41458333333333,108.79791666666667,76.0,92.0
106,108.91458333333333,109.32083333333333,74.0,99.0
107,109.41458333333333,109.62291666666667,72.0,87.0
108,109.66458333333333,111.57708333333333,74.0,99.0
109,112.16458333333333,112.4875,67.0,93.0
110,112.66458333333333,113.02916666666667,76.0,95.0
111,113.16458333333333,113.36041666666667,71.0,93.0
112,113.41458333333333,114.10416666666667,74.0,104.0
113,114.16458333333333,116.88541666666667,72.0,88.0
114,128.66458333333333,128.98333333333332,72.0,94.0
115,129.16458333333333,129.2875,71.0,99.0
116,129.41458333333333,131.48125,72.0,99.0
117,133.16458333333333,133.28958333333333,72.0,93.0
118,133.41458333333333,133.53541666666666,74.0,93.0
119,133.66458333333333,134.19166666666666,76.0,92.0
120,134.41458333333333,134.56666666666666,71.0,90.0
121,134.66458333333333,135.0625,71.0,90.0
122,135.16458333333333,135.35416666666666,69.0,89.0
123,135.41458333333333,135.61458333333334,67.0,89.0
124,135.66458333333333,136.67916666666667,71.0,89.0
125,137.16458333333333,137.34375,69.0,87.0
126,137.41458333333333,137.57708333333332,65.0,84.0
127,137.66458333333333,139.07708333333332,69.0,90.0
128,141.16458333333333,141.37708333333333,69.0,90.0
129,141.41458333333333,141.59375,72.0,90.0
130,141.66458333333333,141.94166666666666,67.0,89.0
131,142.16458333333333,142.32916666666665,60.0,89.0
132,142.41458333333333,142.75833333333333,62.0,88.0
133,142.91458333333333,143.25416666666666,64.0,90.0
134,143.41458333333333,144.47083333333333,62.0,90.0
135,144.66458333333333,145.0125,62.0,90.0
136,145.16458333333333,145.34166666666667,64.0,89.0
137,145.41458333333333,145.57083333333333,62.0,88.0
138,145.66458333333333,145.82708333333332,62.0,92.0
139,146.16458333333333,147.75208333333333,64.0,90.0
140,148.41458333333333,148.56666666666666,64.0,92.0
141,148.66458333333333,148.97708333333333,74.0,95.0
142,149.16458333333333,149.3375,72.0,88.0
143,149.41458333333333,149.56666666666666,71.0,88.0
144,149.66458333333333,149.91041666666666,71.0,88.0
145,150.16458333333333,151.99791666666667,72.0,89.0
146,152.66458333333333,153.02916666666667,72.0,92.0
147,153.16458333333333,153.31666666666666,74.0,93.0
148,153.41458333333333,153.57083333333333,76.0,88.0
149,153.66458333333333,154.02708333333334,74.0,93.0
150,154.16458333333333,155.75625,72.0,91.0
151,156.41458333333333,156.49791666666667,69.0,92.0
152,156.66458333333333,157.07291666666666,69.0,89.0
153,157.16458333333333,157.3,71.0,91.0
154,157.41458333333333,157.78333333333333,72.0,90.0
155,157.91458333333333,159.60833333333332,74.0,93.0
156,160.66458333333333,161.02916666666667,72.0,94.0
157,161.16458333333333,161.31458333333333,74.0,97.0
158,161.41458333333333,163.37708333333333,76.0,94.0
159,164.66458333333333,165.02916666666667,72.0,94.0
160,165.16458333333333,165.31458333333333,74.0,97.0
161,165.41458333333333,167.37708333333333,76.0,94.0
162,169.16458333333333,169.29583333333332,79.0,95.0
163,169.41458333333333,169.53958333333333,79.0,93.0
164,169.66458333333333,170.01458333333332,79.0,95.0
165,170.16458333333333,170.29583333333332,77.0,90.0
166,170.41458333333333,171.33333333333334,77.0,92.0
167,171.66458333333333,172.01666666666665,77.0,99.0
168,172.16458333333333,172.54791666666665,76.0,95.0
169,172.66458333333333,172.99791666666667,74.0,99.0
170,173.16458333333333,173.34375,72.0,93.0
171,173.41458333333333,174.90833333333333,74.0,99.0
172,176.66458333333333,177.1125,74.0,99.0
173,177.16458333333333,177.36875,72.0,92.0
174,177.41458333333333,179.36666666666667,76.0,90.0
175,180.66458333333333,181.16875,76.0,97.0
176,181.16458333333333,182.18541666666667,83.0,99.0
177,182.16458333333333,183.96666666666667,79.0,84.0
178,185.16458333333333,185.31041666666667,79.0,92.0
179,185.41458333333333,185.55208333333334,79.0,92.0
180,185.66458333333333,186.05,79.0,97.0
181,186.16458333333333,186.28541666666666,77.0,88.0
182,186.41458333333333,187.52291666666667,77.0,95.0
183,187.66458333333333,188.34583333333333,77.0,97.0
184,188.41458333333333,188.79791666666665,76.0,92.0
185,188.91458333333333,189.32083333333333,74.0,99.0
186,189.41458333333333,189.62291666666667,72.0,87.0
187,189.66458333333333,191.57708333333332,74.0,99.0
188,192.66458333333333,193.02916666666667,72.0,94.0
189,193.16458333333333,193.31458333333333,74.0,97.0
190,193.41458333333333,195.37708333333333,76.0,94.0
191,196.66458333333333,197.02916666666667,72.0,94.0
192,197.16458333333333,197.31458333333333,74.0,97.0
193,197.41458333333333,199.37708333333333,76.0,94.0
194,201.16458333333333,201.29583333333332,79.0,95.0
195,201.41458333333333,201.53958333333333,79.0,93.0
196,201.66458333333333,202.01458333333332,79.0,95.0
197,202.16458333333333,202.29583333333332,77.0,90.0
198,202.41458333333333,203.33333333333334,77.0,92.0
199,203.66458333333333,204.01666666666665,77.0,99.0
200,204.16458333333333,204.54791666666665,76.0,95.0
201,204.66458333333333,204.99791666666667,74.0,99.0
202,205.16458333333333,205.34375,72.0,93.0
203,205.41458333333333,206.90833333333333,74.0,99.0
204,208.66458333333333,209.11249999999998,74.0,99.0
205,209.16458333333333,209.36875,72.0,92.0
206,209.41458333333333,211.36666666666667,76.0,90.0
207,212.66458333333333,213.16875,76.0,97.0
208,213.16458333333333,214.18541666666667,83.0,99.0
209,214.16458333333333,215.96666666666667,79.0,84.0
210,217.16458333333333,217.31041666666667,79.0,92.0
211,217.41458333333333,217.55208333333334,79.0,92.0
212,217.66458333333333,218.04999999999998,79.0,97.0
213,218.16458333333333,218.28541666666666,77.0,88.0
214,218.41458333333333,219.52291666666667,77.0,95.0
215,219.66458333333333,220.34583333333333,77.0,97.0
216,220.41458333333333,220.79791666666665,76.0,92.0
217,220.91458333333333,221.32083333333333,74.0,99.0
218,221.41458333333333,221.62291666666667,72.0,87.0
219,221.66458333333333,223.57708333333332,74.0,99.0
220,224.16458333333333,224.48749999999998,67.0,93.0
221,224.66458333333333,225.02916666666667,76.0,95.0
222,225.16458333333333,225.36041666666665,71.0,93.0
223,225.41458333333333,226.10416666666666,74.0,104.0
224,226.16458333333333,228.88541666666666,72.0,88.0
