,start,end,pitch,velocity
0,1.6645833333333333,2.2645833333333334,64.0,86.0
1,1.6645833333333333,2.30625,60.0,82.0
2,2.6645833333333333,2.747916666666667,67.0,89.0
3,2.6645833333333333,2.75625,60.0,92.0
4,3.1645833333333333,3.4729166666666664,55.0,45.0
5,3.4145833333333333,3.5541666666666667,67.0,81.0
6,3.4145833333333333,3.5770833333333334,60.0,87.0
7,3.6645833333333333,3.9791666666666665,55.0,62.0
8,3.9145833333333333,4.1125,60.0,69.0
9,4.414583333333333,4.520833333333333,60.0,77.0
10,4.164583333333333,4.7625,55.0,77.0
11,4.664583333333333,4.935416666666667,60.0,90.0
12,4.664583333333333,4.952083333333333,64.0,92.0
13,1.6645833333333333,4.977083333333333,48.0,89.0
14,5.664583333333333,6.1375,67.0,84.0
15,5.664583333333333,6.177083333333333,59.0,82.0
16,6.664583333333333,6.6812499999999995,59.0,55.0
17,6.664583333333333,6.777083333333334,64.0,90.0
18,6.664583333333333,6.8125,67.0,87.0
19,7.164583333333333,7.279166666666667,59.0,77.0
20,7.414583333333333,7.827083333333333,64.0,87.0
21,7.414583333333333,7.860416666666667,59.0,87.0
22,8.414583333333333,8.508333333333333,59.0,78.0
23,6.914583333333333,8.747916666666667,47.0,67.0
24,8.664583333333333,8.854166666666666,59.0,92.0
25,5.664583333333333,8.914583333333333,40.0,88.0
26,8.664583333333333,9.041666666666666,67.0,86.0
27,9.164583333333333,9.233333333333333,64.0,88.0
28,9.164583333333333,9.25625,59.0,84.0
29,9.664583333333333,10.147916666666667,57.0,80.0
30,9.664583333333333,10.197916666666666,60.0,83.0
31,10.414583333333333,10.741666666666667,57.0,81.0
32,10.664583333333333,11.03125,65.0,93.0
33,10.914583333333333,11.05625,57.0,84.0
34,11.664583333333333,12.15625,60.0,81.0
35,11.664583333333333,12.1875,57.0,79.0
36,10.164583333333333,12.75,48.0,57.0
37,12.664583333333333,12.789583333333333,57.0,88.0
38,9.664583333333333,12.924999999999999,41.0,89.0
39,12.664583333333333,13.152083333333334,65.0,89.0
40,12.914583333333333,13.1875,57.0,87.0
41,13.164583333333333,13.279166666666667,60.0,81.0
42,13.664583333333333,14.179166666666667,55.0,84.0
43,13.664583333333333,14.383333333333333,62.0,85.0
44,14.414583333333333,14.9375,55.0,82.0
45,14.664583333333333,15.004166666666666,62.0,77.0
46,14.914583333333333,15.28125,67.0,84.0
47,14.164583333333333,15.4125,50.0,76.0
48,15.164583333333333,15.45,55.0,73.0
49,13.664583333333333,15.470833333333333,43.0,89.0
50,15.664583333333333,16.172916666666666,62.0,65.0
51,15.664583333333333,16.389583333333334,55.0,76.0
52,16.664583333333333,16.79375,55.0,89.0
53,16.664583333333333,16.804166666666667,62.0,87.0
54,16.164583333333333,16.8125,50.0,55.0
55,15.664583333333333,16.84583333333333,43.0,82.0
56,17.664583333333333,18.108333333333334,67.0,82.0
57,17.664583333333333,18.154166666666665,60.0,81.0
58,18.164583333333333,18.760416666666668,55.0,67.0
59,18.664583333333333,18.8375,60.0,84.0
60,18.664583333333333,18.947916666666668,67.0,88.0
61,19.164583333333333,19.266666666666666,60.0,78.0
62,18.914583333333333,19.452083333333334,55.0,73.0
63,17.664583333333333,19.49375,48.0,90.0
64,19.414583333333333,20.460416666666667,60.0,84.0
65,19.414583333333333,20.522916666666667,67.0,85.0
66,20.664583333333333,20.945833333333333,60.0,92.0
67,20.414583333333333,21.102083333333333,55.0,80.0
68,20.164583333333333,21.133333333333333,48.0,53.0
69,20.914583333333333,21.239583333333332,62.0,94.0
70,21.664583333333333,22.264583333333334,64.0,89.0
71,22.914583333333333,23.0625,59.0,88.0
72,22.914583333333333,23.091666666666665,67.0,82.0
73,23.414583333333333,23.514583333333334,59.0,84.0
74,22.164583333333333,23.914583333333333,47.0,55.0
75,23.664583333333333,23.925,59.0,89.0
76,23.664583333333333,24.204166666666666,64.0,87.0
77,24.164583333333333,24.48125,47.0,66.0
78,24.414583333333333,24.747916666666665,59.0,88.0
79,24.664583333333333,24.775,47.0,68.0
80,24.414583333333333,24.997916666666665,62.0,88.0
81,21.664583333333333,25.2125,40.0,88.0
82,24.914583333333333,25.25208333333333,47.0,79.0
83,25.164583333333333,25.3,59.0,93.0
84,25.414583333333333,25.60625,62.0,88.0
85,25.664583333333333,26.210416666666667,57.0,84.0
86,25.664583333333333,26.266666666666666,60.0,89.0
87,26.164583333333333,26.777083333333334,52.0,74.0
88,26.664583333333333,26.941666666666666,57.0,85.0
89,26.664583333333333,27.04375,60.0,91.0
90,25.664583333333333,27.545833333333334,45.0,88.0
91,26.914583333333333,27.55,52.0,73.0
92,27.414583333333333,28.18958333333333,60.0,94.0
93,28.164583333333333,28.30625,55.0,90.0
94,27.914583333333333,28.58125,52.0,83.0
95,28.414583333333333,28.914583333333333,55.0,94.0
96,28.414583333333333,29.15,60.0,91.0
97,29.164583333333333,29.36875,52.0,76.0
98,27.664583333333333,29.37708333333333,45.0,89.0
99,29.664583333333333,30.079166666666666,62.0,87.0
100,29.414583333333333,30.110416666666666,57.0,87.0
101,30.414583333333333,30.59375,57.0,76.0
102,30.164583333333333,31.008333333333333,45.0,68.0
103,30.914583333333333,31.0875,57.0,88.0
104,31.164583333333333,31.5125,45.0,72.0
105,29.664583333333333,31.522916666666667,38.0,89.0
106,30.914583333333333,31.7375,65.0,92.0
107,31.414583333333333,31.84583333333333,57.0,82.0
108,32.16458333333333,32.28333333333333,57.0,75.0
109,31.914583333333333,32.514583333333334,45.0,76.0
110,32.41458333333333,32.77291666666667,62.0,93.0
111,32.41458333333333,32.8,57.0,93.0
112,31.664583333333333,32.916666666666664,38.0,88.0
113,32.66458333333333,32.94583333333333,45.0,72.0
114,32.91458333333333,33.075,57.0,89.0
115,32.91458333333333,33.21875,65.0,90.0
116,33.66458333333333,34.141666666666666,59.0,80.0
117,33.66458333333333,34.2,64.0,78.0
118,34.41458333333333,34.514583333333334,59.0,74.0
119,34.66458333333333,34.99791666666667,59.0,92.0
120,34.66458333333333,35.072916666666664,67.0,88.0
121,35.16458333333333,35.22083333333333,59.0,49.0
122,33.66458333333333,35.45,40.0,90.0
123,34.16458333333333,35.46458333333333,47.0,67.0
124,35.41458333333333,35.99791666666667,59.0,91.0
125,35.41458333333333,36.197916666666664,64.0,91.0
126,36.16458333333333,36.275,59.0,83.0
127,36.41458333333333,37.04375,59.0,90.0
128,35.91458333333333,37.104166666666664,47.0,80.0
129,35.66458333333333,37.11666666666667,40.0,89.0
130,36.41458333333333,37.12083333333333,64.0,92.0
131,37.16458333333333,37.302083333333336,62.0,95.0
132,37.66458333333333,38.18541666666667,57.0,82.0
133,37.66458333333333,38.2,60.0,84.0
134,38.41458333333333,38.55,57.0,69.0
135,38.16458333333333,38.78333333333333,52.0,69.0
136,38.66458333333333,38.93541666666667,57.0,91.0
137,38.91458333333333,38.99375,52.0,72.0
138,38.66458333333333,39.05833333333333,60.0,91.0
139,39.16458333333333,39.56875,52.0,73.0
140,39.41458333333333,39.608333333333334,55.0,88.0
141,39.41458333333333,39.62083333333333,59.0,90.0
142,39.66458333333333,40.010416666666664,52.0,75.0
143,39.91458333333333,40.197916666666664,57.0,87.0
144,39.91458333333333,40.25,60.0,89.0
145,40.41458333333333,40.59166666666667,57.0,77.0
146,40.16458333333333,40.79375,52.0,82.0
147,40.91458333333333,41.01875,52.0,58.0
148,40.66458333333333,41.083333333333336,60.0,88.0
149,37.66458333333333,41.08541666666667,45.0,88.0
150,40.66458333333333,41.09375,57.0,90.0
151,40.66458333333333,41.114583333333336,64.0,99.0
152,41.16458333333333,41.35208333333333,45.0,88.0
153,41.66458333333333,42.19166666666666,57.0,84.0
154,41.66458333333333,42.46875,65.0,88.0
155,42.41458333333333,42.5,57.0,76.0
156,42.66458333333333,42.92916666666667,57.0,89.0
157,42.66458333333333,43.09791666666666,65.0,90.0
158,43.41458333333333,43.916666666666664,64.0,97.0
159,42.16458333333333,43.9875,45.0,61.0
160,43.91458333333333,44.53541666666666,65.0,92.0
161,41.66458333333333,44.55,38.0,90.0
162,44.41458333333333,44.56458333333333,57.0,79.0
163,44.16458333333333,44.59583333333333,45.0,83.0
164,44.66458333333333,45.072916666666664,57.0,89.0
165,44.66458333333333,45.18125,60.0,92.0
166,44.66458333333333,45.1875,38.0,93.0
167,45.16458333333333,45.49166666666667,57.0,80.0
168,45.66458333333333,46.44166666666666,62.0,87.0
169,46.41458333333333,46.78125,55.0,74.0
170,46.66458333333333,46.96458333333333,62.0,84.0
171,46.16458333333333,46.99375,50.0,69.0
172,47.16458333333333,47.483333333333334,50.0,81.0
173,45.66458333333333,47.54375,43.0,88.0
174,46.91458333333333,47.56458333333333,67.0,90.0
175,47.41458333333333,47.572916666666664,55.0,75.0
176,47.66458333333333,48.208333333333336,55.0,88.0
177,47.66458333333333,48.26875,62.0,84.0
178,48.41458333333333,48.53333333333333,55.0,81.0
179,48.16458333333333,48.81875,50.0,71.0
180,48.66458333333333,49.49166666666667,55.0,94.0
181,48.66458333333333,49.55833333333333,62.0,90.0
182,47.66458333333333,49.6375,43.0,88.0
183,49.16458333333333,49.65625,50.0,87.0
184,49.66458333333333,50.108333333333334,67.0,82.0
185,49.66458333333333,50.15416666666667,60.0,81.0
186,50.16458333333333,50.760416666666664,55.0,67.0
187,50.66458333333333,50.8375,60.0,84.0
188,50.66458333333333,50.947916666666664,67.0,88.0
189,51.16458333333333,51.266666666666666,60.0,78.0
190,50.91458333333333,51.452083333333334,55.0,73.0
191,49.66458333333333,51.49375,48.0,90.0
192,51.41458333333333,52.46041666666667,60.0,84.0
193,51.41458333333333,52.52291666666667,67.0,85.0
194,52.66458333333333,52.94583333333333,60.0,92.0
195,52.41458333333333,53.10208333333333,55.0,80.0
196,52.16458333333333,53.13333333333333,48.0,53.0
197,52.91458333333333,53.239583333333336,62.0,94.0
198,53.66458333333333,54.264583333333334,64.0,89.0
199,54.91458333333333,55.0625,59.0,88.0
200,54.91458333333333,55.09166666666667,67.0,82.0
201,55.41458333333333,55.514583333333334,59.0,84.0
202,54.16458333333333,55.91458333333333,47.0,55.0
203,55.66458333333333,55.925,59.0,89.0
204,55.66458333333333,56.204166666666666,64.0,87.0
205,56.16458333333333,56.481249999999996,47.0,66.0
206,56.41458333333333,56.74791666666667,59.0,88.0
207,56.66458333333333,56.775,47.0,68.0
208,56.41458333333333,56.99791666666667,62.0,88.0
209,53.66458333333333,57.2125,40.0,88.0
210,56.91458333333333,57.25208333333333,47.0,79.0
211,57.16458333333333,57.3,59.0,93.0
212,57.41458333333333,57.606249999999996,62.0,88.0
213,57.66458333333333,58.21041666666667,57.0,84.0
214,57.66458333333333,58.266666666666666,60.0,89.0
215,58.16458333333333,58.77708333333333,52.0,74.0
216,58.66458333333333,58.94166666666666,57.0,85.0
217,58.66458333333333,59.043749999999996,60.0,91.0
218,57.66458333333333,59.545833333333334,45.0,88.0
219,58.91458333333333,59.55,52.0,73.0
220,59.41458333333333,60.18958333333333,60.0,94.0
221,60.16458333333333,60.30625,55.0,90.0
222,59.91458333333333,60.58125,52.0,83.0
223,60.41458333333333,60.91458333333333,55.0,94.0
224,60.41458333333333,61.15,60.0,91.0
225,61.16458333333333,61.36875,52.0,76.0
226,59.66458333333333,61.37708333333333,45.0,89.0
227,61.66458333333333,62.079166666666666,62.0,87.0
228,61.41458333333333,62.110416666666666,57.0,87.0
229,62.41458333333333,62.59375,57.0,76.0
230,62.16458333333333,63.00833333333333,45.0,68.0
231,62.91458333333333,63.0875,57.0,88.0
232,63.16458333333333,63.512499999999996,45.0,72.0
233,61.66458333333333,63.52291666666667,38.0,89.0
234,62.91458333333333,63.7375,65.0,92.0
235,63.41458333333333,63.84583333333333,57.0,82.0
236,64.16458333333333,64.28333333333333,57.0,75.0
237,63.91458333333333,64.51458333333333,45.0,76.0
238,64.41458333333333,64.77291666666666,62.0,93.0
239,64.41458333333333,64.8,57.0,93.0
240,63.66458333333333,64.91666666666667,38.0,88.0
241,64.66458333333333,64.94583333333333,45.0,72.0
242,64.91458333333333,65.075,57.0,89.0
243,64.91458333333333,65.21875,65.0,90.0
244,65.66458333333333,66.14166666666667,59.0,80.0
245,65.66458333333333,66.2,64.0,78.0
246,66.41458333333333,66.51458333333333,59.0,74.0
247,66.66458333333333,66.99791666666667,59.0,92.0
248,66.66458333333333,67.07291666666667,67.0,88.0
249,67.16458333333333,67.22083333333333,59.0,49.0
250,65.66458333333333,67.45,40.0,90.0
251,66.16458333333333,67.46458333333334,47.0,67.0
252,67.41458333333333,67.99791666666667,59.0,91.0
253,67.41458333333333,68.19791666666667,64.0,91.0
254,68.16458333333333,68.275,59.0,83.0
255,68.41458333333333,69.04375,59.0,90.0
256,67.91458333333333,69.10416666666667,47.0,80.0
257,67.66458333333333,69.11666666666666,40.0,89.0
258,68.41458333333333,69.12083333333334,64.0,92.0
259,69.16458333333333,69.30208333333333,62.0,95.0
260,69.66458333333333,70.18541666666667,57.0,82.0
261,69.66458333333333,70.2,60.0,84.0
262,70.41458333333333,70.55,57.0,69.0
263,70.16458333333333,70.78333333333333,52.0,69.0
264,70.66458333333333,70.93541666666667,57.0,91.0
265,70.91458333333333,70.99375,52.0,72.0
266,70.66458333333333,71.05833333333334,60.0,91.0
267,71.16458333333333,71.56875,52.0,73.0
268,71.41458333333333,71.60833333333333,55.0,88.0
269,71.41458333333333,71.62083333333334,59.0,90.0
270,71.66458333333333,72.01041666666667,52.0,75.0
271,71.91458333333333,72.19791666666667,57.0,87.0
272,71.91458333333333,72.25,60.0,89.0
273,72.41458333333333,72.59166666666667,57.0,77.0
274,72.16458333333333,72.79375,52.0,82.0
275,72.91458333333333,73.01875,52.0,58.0
276,72.66458333333333,73.08333333333333,60.0,88.0
277,69.66458333333333,73.08541666666666,45.0,88.0
278,72.66458333333333,73.09375,57.0,90.0
279,72.66458333333333,73.11458333333333,64.0,99.0
280,73.16458333333333,73.35208333333333,45.0,88.0
281,73.66458333333333,74.19166666666666,57.0,84.0
282,73.66458333333333,74.46875,65.0,88.0
283,74.41458333333333,74.5,57.0,76.0
284,74.66458333333333,74.92916666666666,57.0,89.0
285,74.66458333333333,75.09791666666666,65.0,90.0
286,75.41458333333333,75.91666666666667,64.0,97.0
287,74.16458333333333,75.9875,45.0,61.0
288,75.91458333333333,76.53541666666666,65.0,92.0
289,73.66458333333333,76.55,38.0,90.0
290,76.41458333333333,76.56458333333333,57.0,79.0
291,76.16458333333333,76.59583333333333,45.0,83.0
292,76.66458333333333,77.07291666666667,57.0,89.0
293,76.66458333333333,77.18125,60.0,92.0
294,76.66458333333333,77.1875,38.0,93.0
295,77.16458333333333,77.49166666666666,57.0,80.0
296,77.66458333333333,78.44166666666666,62.0,87.0
297,78.41458333333333,78.78125,55.0,74.0
298,78.66458333333333,78.96458333333334,62.0,84.0
299,78.16458333333333,78.99375,50.0,69.0
300,79.16458333333333,79.48333333333333,50.0,81.0
301,77.66458333333333,79.54375,43.0,88.0
302,78.91458333333333,79.56458333333333,67.0,90.0
303,79.41458333333333,79.57291666666667,55.0,75.0
304,79.66458333333333,80.20833333333333,55.0,88.0
305,79.66458333333333,80.26875,62.0,84.0
306,80.41458333333333,80.53333333333333,55.0,81.0
307,80.16458333333333,80.81875,50.0,71.0
308,80.66458333333333,81.49166666666666,55.0,94.0
309,80.66458333333333,81.55833333333334,62.0,90.0
310,79.66458333333333,81.6375,43.0,88.0
311,81.16458333333333,81.65625,50.0,87.0
312,81.66458333333333,82.49375,64.0,89.0
313,81.66458333333333,82.51458333333333,60.0,88.0
314,82.16458333333333,82.84166666666667,55.0,77.0
315,82.66458333333333,83.11458333333333,64.0,91.0
316,82.66458333333333,83.20625,67.0,90.0
317,82.66458333333333,83.20833333333333,60.0,90.0
318,81.66458333333333,83.51666666666667,48.0,87.0
319,83.16458333333333,83.55625,55.0,72.0
320,83.41458333333333,83.84375,60.0,95.0
321,83.41458333333333,83.88333333333333,67.0,88.0
322,84.41458333333333,84.72291666666666,64.0,104.0
323,84.16458333333333,84.72708333333333,60.0,102.0
324,84.66458333333333,85.0,55.0,81.0
325,84.91458333333333,85.17708333333333,60.0,90.0
326,84.91458333333333,85.18125,64.0,97.0
327,84.91458333333333,85.21875,67.0,90.0
328,83.66458333333333,85.22916666666667,48.0,75.0
329,85.16458333333333,85.26041666666667,55.0,84.0
330,85.66458333333333,86.225,67.0,84.0
331,86.41458333333333,86.50416666666666,59.0,77.0
332,86.66458333333333,86.7875,59.0,88.0
333,86.66458333333333,86.79166666666667,67.0,89.0
334,86.91458333333333,87.08125,59.0,95.0
335,86.91458333333333,87.1,67.0,90.0
336,85.66458333333333,87.47291666666666,40.0,88.0
337,86.16458333333333,87.525,47.0,75.0
338,87.41458333333333,87.96458333333334,59.0,90.0
339,87.41458333333333,88.03333333333333,64.0,90.0
340,88.16458333333333,88.28541666666666,59.0,90.0
341,87.91458333333333,88.51041666666667,47.0,80.0
342,88.41458333333333,88.99166666666666,59.0,95.0
343,88.41458333333333,89.00833333333333,64.0,94.0
344,87.66458333333333,89.31666666666666,40.0,90.0
345,89.16458333333333,89.36458333333333,59.0,91.0
346,89.16458333333333,89.57291666666667,64.0,94.0
347,89.66458333333333,89.89375,60.0,85.0
348,89.66458333333333,90.18958333333333,64.0,89.0
349,90.41458333333333,90.51875,57.0,76.0
350,90.16458333333333,90.7375,48.0,72.0
351,90.66458333333333,90.78541666666666,60.0,94.0
352,90.66458333333333,90.79583333333333,57.0,92.0
353,90.91458333333333,91.2,60.0,99.0
354,90.91458333333333,91.225,57.0,91.0
355,89.66458333333333,91.54166666666667,41.0,89.0
356,92.16458333333333,92.24791666666667,57.0,71.0
357,91.91458333333333,92.53333333333333,48.0,74.0
358,92.41458333333333,92.71458333333334,65.0,89.0
359,92.41458333333333,92.7375,60.0,90.0
360,92.41458333333333,92.75625,57.0,88.0
361,92.66458333333333,93.05416666666666,48.0,72.0
362,92.91458333333333,93.13333333333333,60.0,90.0
363,92.91458333333333,93.13958333333333,57.0,89.0
364,91.66458333333333,93.14583333333333,41.0,89.0
365,93.66458333333333,94.20208333333333,55.0,83.0
366,93.66458333333333,94.26666666666667,62.0,83.0
367,93.66458333333333,94.30833333333334,59.0,82.0
368,94.41458333333333,94.77708333333334,55.0,80.0
369,94.91458333333333,94.95625,55.0,61.0
370,94.16458333333333,94.97291666666666,50.0,69.0
371,94.91458333333333,95.16041666666666,67.0,90.0
372,93.66458333333333,95.52291666666666,43.0,88.0
373,95.16458333333333,95.53125,50.0,82.0
374,95.41458333333333,95.56041666666667,55.0,82.0
375,95.66458333333333,96.11041666666667,55.0,81.0
376,95.66458333333333,96.12708333333333,59.0,89.0
377,95.66458333333333,96.14791666666666,62.0,88.0
378,96.16458333333333,96.47708333333333,50.0,66.0
379,96.41458333333333,96.60416666666667,67.0,89.0
380,96.41458333333333,96.63333333333333,55.0,92.0
381,96.91458333333333,96.9875,55.0,83.0
382,96.66458333333333,97.01458333333333,50.0,78.0
383,95.66458333333333,97.05833333333334,43.0,88.0
384,96.91458333333333,97.19583333333333,59.0,91.0
385,97.41458333333333,97.525,55.0,86.0
386,96.91458333333333,97.55416666666666,62.0,89.0
387,97.66458333333333,98.00208333333333,55.0,89.0
388,98.16458333333333,98.24791666666667,55.0,65.0
389,97.66458333333333,98.3,60.0,85.0
390,98.66458333333333,98.80208333333333,55.0,92.0
391,97.66458333333333,98.81041666666667,48.0,88.0
392,98.66458333333333,99.01458333333333,64.0,93.0
393,98.91458333333333,99.16666666666667,55.0,82.0
394,99.41458333333333,99.725,55.0,84.0
395,99.41458333333333,99.74166666666666,60.0,89.0
396,99.41458333333333,99.95833333333333,64.0,89.0
397,99.91458333333333,100.20208333333333,55.0,84.0
398,100.41458333333333,100.64166666666667,55.0,91.0
399,100.41458333333333,100.76458333333333,64.0,104.0
400,100.91458333333333,101.15,62.0,89.0
401,99.66458333333333,101.26041666666667,48.0,89.0
402,100.91458333333333,101.27083333333333,55.0,89.0
403,101.16458333333333,101.4375,60.0,83.0
404,101.41458333333333,101.73958333333333,62.0,79.0
405,101.66458333333333,102.275,64.0,90.0
406,102.66458333333333,102.81666666666666,59.0,89.0
407,102.66458333333333,102.95,67.0,88.0
408,102.91458333333333,103.12083333333334,59.0,80.0
409,101.66458333333333,103.48125,40.0,92.0
410,102.16458333333333,103.50833333333333,47.0,73.0
411,103.41458333333333,103.96041666666666,59.0,90.0
412,103.41458333333333,104.13958333333333,64.0,90.0
413,103.91458333333333,104.59583333333333,47.0,77.0
414,104.41458333333333,104.78125,64.0,95.0
415,104.16458333333333,104.80833333333334,59.0,88.0
416,104.66458333333333,104.86874999999999,47.0,46.0
417,104.91458333333333,105.14583333333333,59.0,93.0
418,104.91458333333333,105.17916666666666,64.0,97.0
419,103.66458333333333,105.29375,40.0,89.0
420,104.91458333333333,105.45625,67.0,89.0
421,105.41458333333333,105.49583333333334,64.0,58.0
422,105.41458333333333,105.53125,59.0,86.0
423,105.16458333333333,105.575,47.0,80.0
424,105.66458333333333,106.21458333333334,65.0,89.0
425,105.66458333333333,106.21666666666667,60.0,84.0
426,106.66458333333333,106.925,60.0,89.0
427,106.66458333333333,106.94583333333333,69.0,90.0
428,106.91458333333333,107.0625,65.0,82.0
429,105.66458333333333,107.50416666666666,41.0,88.0
430,106.16458333333333,107.55208333333333,48.0,75.0
431,107.41458333333333,107.92708333333333,60.0,89.0
432,107.41458333333333,108.04375,65.0,86.0
433,108.16458333333333,108.22916666666667,60.0,76.0
434,107.91458333333333,108.52916666666667,48.0,75.0
435,108.41458333333333,109.1625,60.0,95.0
436,108.41458333333333,109.31875,65.0,94.0
437,107.66458333333333,109.40208333333334,41.0,84.0
438,109.41458333333333,109.52291666666666,60.0,83.0
439,109.16458333333333,109.52499999999999,48.0,89.0
440,109.66458333333333,110.65416666666667,67.0,85.0
441,110.66458333333333,110.97708333333333,62.0,88.0
442,110.41458333333333,110.98333333333333,55.0,86.0
443,110.91458333333333,111.27708333333334,67.0,90.0
444,109.66458333333333,111.49791666666667,43.0,88.0
445,110.16458333333333,111.5125,50.0,76.0
446,111.41458333333333,111.96875,55.0,89.0
447,111.41458333333333,111.99583333333334,67.0,89.0
448,111.41458333333333,112.01458333333333,62.0,89.0
449,112.16458333333333,112.24791666666667,55.0,81.0
450,111.91458333333333,112.50625,50.0,78.0
451,112.41458333333333,112.76041666666667,62.0,93.0
452,112.41458333333333,112.77291666666666,55.0,97.0
453,112.66458333333333,113.06875,50.0,85.0
454,111.66458333333333,113.1875,43.0,88.0
455,112.91458333333333,113.26666666666667,55.0,92.0
456,112.91458333333333,113.32291666666667,62.0,92.0
457,113.66458333333333,114.29791666666667,64.0,86.0
458,113.66458333333333,114.32291666666667,60.0,78.0
459,114.16458333333333,114.75625,55.0,78.0
460,114.66458333333333,114.8,64.0,99.0
461,114.66458333333333,114.82916666666667,60.0,90.0
462,115.16458333333333,115.2375,60.0,68.0
463,114.91458333333333,115.46458333333334,55.0,74.0
464,115.41458333333333,115.69791666666667,67.0,86.0
465,115.41458333333333,115.76875,60.0,89.0
466,115.66458333333333,115.98541666666667,55.0,76.0
467,115.91458333333333,116.43958333333333,60.0,84.0
468,115.91458333333333,116.46249999999999,64.0,90.0
469,116.41458333333333,116.8125,55.0,62.0
470,113.66458333333333,116.83749999999999,48.0,88.0
471,116.66458333333333,116.92708333333333,60.0,94.0
472,116.66458333333333,117.175,64.0,99.0
473,117.16458333333333,117.22916666666667,59.0,88.0
474,117.66458333333333,117.93333333333334,59.0,88.0
475,117.66458333333333,118.24374999999999,64.0,90.0
476,118.16458333333333,118.37708333333333,59.0,79.0
477,118.66458333333333,118.82916666666667,64.0,89.0
478,118.66458333333333,118.85416666666667,67.0,89.0
479,117.66458333333333,118.95,47.0,88.0
480,118.91458333333333,118.98125,59.0,70.0
481,119.16458333333333,119.22083333333333,64.0,78.0
482,119.41458333333333,119.80416666666666,67.0,89.0
483,119.41458333333333,119.8125,64.0,94.0
484,119.41458333333333,119.81666666666666,59.0,93.0
485,119.91458333333333,120.1125,59.0,84.0
486,119.91458333333333,120.30208333333333,64.0,89.0
487,119.91458333333333,120.38958333333333,69.0,87.0
488,120.41458333333333,120.58333333333333,59.0,88.0
489,120.66458333333333,120.8875,59.0,84.0
490,120.66458333333333,121.09583333333333,67.0,88.0
491,120.66458333333333,121.14375,64.0,89.0
492,120.66458333333333,121.1875,47.0,86.0
493,121.41458333333333,121.52499999999999,64.0,83.0
494,121.16458333333333,121.53958333333333,59.0,89.0
495,121.66458333333333,122.21875,57.0,82.0
496,121.66458333333333,122.44583333333333,60.0,90.0
497,122.41458333333333,122.50416666666666,55.0,82.0
498,122.66458333333333,122.80208333333333,55.0,90.0
499,122.66458333333333,122.81666666666666,60.0,90.0
500,122.16458333333333,123.01458333333333,52.0,77.0
501,122.91458333333333,123.14166666666667,55.0,92.0
502,122.91458333333333,123.17916666666666,60.0,99.0
503,123.41458333333333,123.75416666666666,64.0,97.0
504,123.41458333333333,123.76666666666667,60.0,90.0
505,123.41458333333333,123.78958333333333,57.0,88.0
506,123.16458333333333,124.0125,52.0,83.0
507,123.91458333333333,124.32291666666667,57.0,84.0
508,123.91458333333333,124.39375,60.0,86.0
509,124.41458333333333,124.74166666666666,52.0,76.0
510,124.66458333333333,124.9375,57.0,93.0
511,121.66458333333333,124.99166666666666,45.0,89.0
512,124.66458333333333,125.00625,60.0,104.0
513,124.91458333333333,125.11874999999999,52.0,75.0
514,125.41458333333333,125.45625,60.0,74.0
515,125.16458333333333,125.48125,45.0,89.0
516,125.41458333333333,125.83541666666666,57.0,90.0
517,126.16458333333333,126.32708333333333,55.0,88.0
518,125.91458333333333,126.53333333333333,50.0,73.0
519,126.41458333333333,126.79166666666667,55.0,90.0
520,126.41458333333333,126.79166666666667,62.0,94.0
521,126.66458333333333,127.10208333333333,50.0,66.0
522,126.91458333333333,127.10416666666667,62.0,90.0
523,126.91458333333333,127.125,55.0,92.0
524,126.91458333333333,127.17708333333333,67.0,88.0
525,127.41458333333333,127.52708333333334,55.0,74.0
526,125.66458333333333,127.53333333333333,43.0,90.0
527,127.66458333333333,127.94791666666667,55.0,86.0
528,127.66458333333333,128.00833333333333,62.0,86.0
529,128.16458333333333,128.25416666666666,55.0,80.0
530,127.91458333333333,128.50208333333333,50.0,77.0
531,128.41458333333333,128.71458333333334,59.0,89.0
532,128.41458333333333,128.72291666666666,62.0,89.0
533,128.41458333333333,128.73333333333332,55.0,89.0
534,128.66458333333333,129.08125,50.0,80.0
535,128.91458333333333,129.3125,55.0,89.0
536,129.16458333333333,129.72916666666666,50.0,86.0
537,127.66458333333333,129.74375,43.0,89.0
538,129.66458333333333,130.10833333333332,67.0,82.0
539,129.66458333333333,130.15416666666667,60.0,81.0
540,130.16458333333333,130.76041666666666,55.0,67.0
541,130.66458333333333,130.8375,60.0,84.0
542,130.66458333333333,130.94791666666666,67.0,88.0
543,131.16458333333333,131.26666666666665,60.0,78.0
544,130.91458333333333,131.45208333333332,55.0,73.0
545,129.66458333333333,131.49375,48.0,90.0
546,131.41458333333333,132.46041666666667,60.0,84.0
547,131.41458333333333,132.52291666666667,67.0,85.0
548,132.66458333333333,132.94583333333333,60.0,92.0
549,132.41458333333333,133.10208333333333,55.0,80.0
550,132.16458333333333,133.13333333333333,48.0,53.0
551,132.91458333333333,133.23958333333334,62.0,94.0
552,133.66458333333333,134.26458333333332,64.0,89.0
553,134.91458333333333,135.0625,59.0,88.0
554,134.91458333333333,135.09166666666667,67.0,82.0
555,135.41458333333333,135.51458333333332,59.0,84.0
556,134.16458333333333,135.91458333333333,47.0,55.0
557,135.66458333333333,135.925,59.0,89.0
558,135.66458333333333,136.20416666666665,64.0,87.0
559,136.16458333333333,136.48125,47.0,66.0
560,136.41458333333333,136.74791666666667,59.0,88.0
561,136.66458333333333,136.775,47.0,68.0
562,136.41458333333333,136.99791666666667,62.0,88.0
563,133.66458333333333,137.2125,40.0,88.0
564,136.91458333333333,137.25208333333333,47.0,79.0
565,137.16458333333333,137.3,59.0,93.0
566,137.41458333333333,137.60625,62.0,88.0
567,137.66458333333333,138.21041666666667,57.0,84.0
568,137.66458333333333,138.26666666666665,60.0,89.0
569,138.16458333333333,138.77708333333334,52.0,74.0
570,138.66458333333333,138.94166666666666,57.0,85.0
571,138.66458333333333,139.04375,60.0,91.0
572,137.66458333333333,139.54583333333332,45.0,88.0
573,138.91458333333333,139.55,52.0,73.0
574,139.41458333333333,140.18958333333333,60.0,94.0
575,140.16458333333333,140.30625,55.0,90.0
576,139.91458333333333,140.58125,52.0,83.0
577,140.41458333333333,140.91458333333333,55.0,94.0
578,140.41458333333333,141.15,60.0,91.0
579,141.16458333333333,141.36875,52.0,76.0
580,139.66458333333333,141.37708333333333,45.0,89.0
581,141.66458333333333,142.07916666666665,62.0,87.0
582,141.41458333333333,142.11041666666665,57.0,87.0
583,142.41458333333333,142.59375,57.0,76.0
584,142.16458333333333,143.00833333333333,45.0,68.0
585,142.91458333333333,143.0875,57.0,88.0
586,143.16458333333333,143.5125,45.0,72.0
587,141.66458333333333,143.52291666666667,38.0,89.0
588,142.91458333333333,143.7375,65.0,92.0
589,143.41458333333333,143.84583333333333,57.0,82.0
590,144.16458333333333,144.28333333333333,57.0,75.0
591,143.91458333333333,144.51458333333332,45.0,76.0
592,144.41458333333333,144.77291666666667,62.0,93.0
593,144.41458333333333,144.8,57.0,93.0
594,143.66458333333333,144.91666666666666,38.0,88.0
595,144.66458333333333,144.94583333333333,45.0,72.0
596,144.91458333333333,145.075,57.0,89.0
597,144.91458333333333,145.21875,65.0,90.0
598,145.66458333333333,146.14166666666665,59.0,80.0
599,145.66458333333333,146.2,64.0,78.0
600,146.41458333333333,146.51458333333332,59.0,74.0
601,146.66458333333333,146.99791666666667,59.0,92.0
602,146.66458333333333,147.07291666666666,67.0,88.0
603,147.16458333333333,147.22083333333333,59.0,49.0
604,145.66458333333333,147.45,40.0,90.0
605,146.16458333333333,147.46458333333334,47.0,67.0
606,147.41458333333333,147.99791666666667,59.0,91.0
607,147.41458333333333,148.19791666666666,64.0,91.0
608,148.16458333333333,148.275,59.0,83.0
609,148.41458333333333,149.04375,59.0,90.0
610,147.91458333333333,149.10416666666666,47.0,80.0
611,147.66458333333333,149.11666666666667,40.0,89.0
612,148.41458333333333,149.12083333333334,64.0,92.0
613,149.16458333333333,149.30208333333334,62.0,95.0
614,149.66458333333333,150.18541666666667,57.0,82.0
615,149.66458333333333,150.2,60.0,84.0
616,150.41458333333333,150.55,57.0,69.0
617,150.16458333333333,150.78333333333333,52.0,69.0
618,150.66458333333333,150.93541666666667,57.0,91.0
619,150.91458333333333,150.99375,52.0,72.0
620,150.66458333333333,151.05833333333334,60.0,91.0
621,151.16458333333333,151.56875,52.0,73.0
622,151.41458333333333,151.60833333333332,55.0,88.0
623,151.41458333333333,151.62083333333334,59.0,90.0
624,151.66458333333333,152.01041666666666,52.0,75.0
625,151.91458333333333,152.19791666666666,57.0,87.0
626,151.91458333333333,152.25,60.0,89.0
627,152.41458333333333,152.59166666666667,57.0,77.0
628,152.16458333333333,152.79375,52.0,82.0
629,152.91458333333333,153.01875,52.0,58.0
630,152.66458333333333,153.08333333333334,60.0,88.0
631,149.66458333333333,153.08541666666667,45.0,88.0
632,152.66458333333333,153.09375,57.0,90.0
633,152.66458333333333,153.11458333333334,64.0,99.0
634,153.16458333333333,153.35208333333333,45.0,88.0
635,153.66458333333333,154.19166666666666,57.0,84.0
636,153.66458333333333,154.46875,65.0,88.0
637,154.41458333333333,154.5,57.0,76.0
638,154.66458333333333,154.92916666666667,57.0,89.0
639,154.66458333333333,155.09791666666666,65.0,90.0
640,155.41458333333333,155.91666666666666,64.0,97.0
641,154.16458333333333,155.9875,45.0,61.0
642,155.91458333333333,156.53541666666666,65.0,92.0
643,153.66458333333333,156.55,38.0,90.0
644,156.41458333333333,156.56458333333333,57.0,79.0
645,156.16458333333333,156.59583333333333,45.0,83.0
646,156.66458333333333,157.07291666666666,57.0,89.0
647,156.66458333333333,157.18125,60.0,92.0
648,156.66458333333333,157.1875,38.0,93.0
649,157.16458333333333,157.49166666666667,57.0,80.0
650,157.66458333333333,158.44166666666666,62.0,87.0
651,158.41458333333333,158.78125,55.0,74.0
652,158.66458333333333,158.96458333333334,62.0,84.0
653,158.16458333333333,158.99375,50.0,69.0
654,159.16458333333333,159.48333333333332,50.0,81.0
655,157.66458333333333,159.54375,43.0,88.0
656,158.91458333333333,159.56458333333333,67.0,90.0
657,159.41458333333333,159.57291666666666,55.0,75.0
658,159.66458333333333,160.20833333333334,55.0,88.0
659,159.66458333333333,160.26875,62.0,84.0
660,160.41458333333333,160.53333333333333,55.0,81.0
661,160.16458333333333,160.81875,50.0,71.0
662,160.66458333333333,161.49166666666667,55.0,94.0
663,160.66458333333333,161.55833333333334,62.0,90.0
664,159.66458333333333,161.6375,43.0,88.0
665,161.16458333333333,161.65625,50.0,87.0
666,161.66458333333333,162.49375,64.0,89.0
667,161.66458333333333,162.51458333333332,60.0,88.0
668,162.16458333333333,162.84166666666667,55.0,77.0
669,162.66458333333333,163.11458333333334,64.0,91.0
670,162.66458333333333,163.20625,67.0,90.0
671,162.66458333333333,163.20833333333334,60.0,90.0
672,161.66458333333333,163.51666666666665,48.0,87.0
673,163.16458333333333,163.55625,55.0,72.0
674,163.41458333333333,163.84375,60.0,95.0
675,163.41458333333333,163.88333333333333,67.0,88.0
676,164.41458333333333,164.72291666666666,64.0,104.0
677,164.16458333333333,164.72708333333333,60.0,102.0
678,164.66458333333333,165.0,55.0,81.0
679,164.91458333333333,165.17708333333334,60.0,90.0
680,164.91458333333333,165.18125,64.0,97.0
681,164.91458333333333,165.21875,67.0,90.0
682,163.66458333333333,165.22916666666666,48.0,75.0
683,165.16458333333333,165.26041666666666,55.0,84.0
684,165.66458333333333,166.225,67.0,84.0
685,166.41458333333333,166.50416666666666,59.0,77.0
686,166.66458333333333,166.7875,59.0,88.0
687,166.66458333333333,166.79166666666666,67.0,89.0
688,166.91458333333333,167.08125,59.0,95.0
689,166.91458333333333,167.1,67.0,90.0
690,165.66458333333333,167.47291666666666,40.0,88.0
691,166.16458333333333,167.525,47.0,75.0
692,167.41458333333333,167.96458333333334,59.0,90.0
693,167.41458333333333,168.03333333333333,64.0,90.0
694,168.16458333333333,168.28541666666666,59.0,90.0
695,167.91458333333333,168.51041666666666,47.0,80.0
696,168.41458333333333,168.99166666666667,59.0,95.0
697,168.41458333333333,169.00833333333333,64.0,94.0
698,167.66458333333333,169.31666666666666,40.0,90.0
699,169.16458333333333,169.36458333333334,59.0,91.0
700,169.16458333333333,169.57291666666666,64.0,94.0
701,169.66458333333333,169.89375,60.0,85.0
702,169.66458333333333,170.18958333333333,64.0,89.0
703,170.41458333333333,170.51875,57.0,76.0
704,170.16458333333333,170.7375,48.0,72.0
705,170.66458333333333,170.78541666666666,60.0,94.0
706,170.66458333333333,170.79583333333332,57.0,92.0
707,170.91458333333333,171.2,60.0,99.0
708,170.91458333333333,171.225,57.0,91.0
709,169.66458333333333,171.54166666666666,41.0,89.0
710,172.16458333333333,172.24791666666667,57.0,71.0
711,171.91458333333333,172.53333333333333,48.0,74.0
712,172.41458333333333,172.71458333333334,65.0,89.0
713,172.41458333333333,172.7375,60.0,90.0
714,172.41458333333333,172.75625,57.0,88.0
715,172.66458333333333,173.05416666666667,48.0,72.0
716,172.91458333333333,173.13333333333333,60.0,90.0
717,172.91458333333333,173.13958333333332,57.0,89.0
718,171.66458333333333,173.14583333333334,41.0,89.0
719,173.66458333333333,174.20208333333332,55.0,83.0
720,173.66458333333333,174.26666666666665,62.0,83.0
721,173.66458333333333,174.30833333333334,59.0,82.0
722,174.41458333333333,174.77708333333334,55.0,80.0
723,174.91458333333333,174.95625,55.0,61.0
724,174.16458333333333,174.97291666666666,50.0,69.0
725,174.91458333333333,175.16041666666666,67.0,90.0
726,173.66458333333333,175.52291666666667,43.0,88.0
727,175.16458333333333,175.53125,50.0,82.0
728,175.41458333333333,175.56041666666667,55.0,82.0
729,175.66458333333333,176.11041666666665,55.0,81.0
730,175.66458333333333,176.12708333333333,59.0,89.0
731,175.66458333333333,176.14791666666667,62.0,88.0
732,176.16458333333333,176.47708333333333,50.0,66.0
733,176.41458333333333,176.60416666666666,67.0,89.0
734,176.41458333333333,176.63333333333333,55.0,92.0
735,176.91458333333333,176.9875,55.0,83.0
736,176.66458333333333,177.01458333333332,50.0,78.0
737,175.66458333333333,177.05833333333334,43.0,88.0
738,176.91458333333333,177.19583333333333,59.0,91.0
739,177.41458333333333,177.525,55.0,86.0
740,176.91458333333333,177.55416666666667,62.0,89.0
741,177.66458333333333,178.00208333333333,55.0,89.0
742,178.16458333333333,178.24791666666667,55.0,65.0
743,177.66458333333333,178.3,60.0,85.0
744,178.66458333333333,178.80208333333334,55.0,92.0
745,177.66458333333333,178.81041666666667,48.0,88.0
746,178.66458333333333,179.01458333333332,64.0,93.0
747,178.91458333333333,179.16666666666666,55.0,82.0
748,179.41458333333333,179.725,55.0,84.0
749,179.41458333333333,179.74166666666667,60.0,89.0
750,179.41458333333333,179.95833333333334,64.0,89.0
751,179.91458333333333,180.20208333333332,55.0,84.0
752,180.41458333333333,180.64166666666665,55.0,91.0
753,180.41458333333333,180.76458333333332,64.0,104.0
754,180.91458333333333,181.15,62.0,89.0
755,179.66458333333333,181.26041666666666,48.0,89.0
756,180.91458333333333,181.27083333333334,55.0,89.0
757,181.16458333333333,181.4375,60.0,83.0
758,181.41458333333333,181.73958333333334,62.0,79.0
759,181.66458333333333,182.275,64.0,90.0
760,182.66458333333333,182.81666666666666,59.0,89.0
761,182.66458333333333,182.95,67.0,88.0
762,182.91458333333333,183.12083333333334,59.0,80.0
763,181.66458333333333,183.48125,40.0,92.0
764,182.16458333333333,183.50833333333333,47.0,73.0
765,183.41458333333333,183.96041666666667,59.0,90.0
766,183.41458333333333,184.13958333333332,64.0,90.0
767,183.91458333333333,184.59583333333333,47.0,77.0
768,184.41458333333333,184.78125,64.0,95.0
769,184.16458333333333,184.80833333333334,59.0,88.0
770,184.66458333333333,184.86875,47.0,46.0
771,184.91458333333333,185.14583333333334,59.0,93.0
772,184.91458333333333,185.17916666666667,64.0,97.0
773,183.66458333333333,185.29375,40.0,89.0
774,184.91458333333333,185.45625,67.0,89.0
775,185.41458333333333,185.49583333333334,64.0,58.0
776,185.41458333333333,185.53125,59.0,86.0
777,185.16458333333333,185.575,47.0,80.0
778,185.66458333333333,186.21458333333334,65.0,89.0
779,185.66458333333333,186.21666666666667,60.0,84.0
780,186.66458333333333,186.925,60.0,89.0
781,186.66458333333333,186.94583333333333,69.0,90.0
782,186.91458333333333,187.0625,65.0,82.0
783,185.66458333333333,187.50416666666666,41.0,88.0
784,186.16458333333333,187.55208333333334,48.0,75.0
785,187.41458333333333,187.92708333333334,60.0,89.0
786,187.41458333333333,188.04375,65.0,86.0
787,188.16458333333333,188.22916666666666,60.0,76.0
788,187.91458333333333,188.52916666666667,48.0,75.0
789,188.41458333333333,189.1625,60.0,95.0
790,188.41458333333333,189.31875,65.0,94.0
791,187.66458333333333,189.40208333333334,41.0,84.0
792,189.41458333333333,189.52291666666667,60.0,83.0
793,189.16458333333333,189.525,48.0,89.0
794,189.66458333333333,190.65416666666667,67.0,85.0
795,190.66458333333333,190.97708333333333,62.0,88.0
796,190.41458333333333,190.98333333333332,55.0,86.0
797,190.91458333333333,191.27708333333334,67.0,90.0
798,189.66458333333333,191.49791666666667,43.0,88.0
799,190.16458333333333,191.5125,50.0,76.0
800,191.41458333333333,191.96875,55.0,89.0
801,191.41458333333333,191.99583333333334,67.0,89.0
802,191.41458333333333,192.01458333333332,62.0,89.0
803,192.16458333333333,192.24791666666667,55.0,81.0
804,191.91458333333333,192.50625,50.0,78.0
805,192.41458333333333,192.76041666666666,62.0,93.0
806,192.41458333333333,192.77291666666667,55.0,97.0
807,192.66458333333333,193.06875,50.0,85.0
808,191.66458333333333,193.1875,43.0,88.0
809,192.91458333333333,193.26666666666665,55.0,92.0
810,192.91458333333333,193.32291666666666,62.0,92.0
811,193.66458333333333,194.49375,64.0,89.0
812,193.66458333333333,194.51458333333332,60.0,88.0
813,194.16458333333333,194.84166666666667,55.0,77.0
814,194.66458333333333,195.11458333333334,64.0,91.0
815,194.66458333333333,195.20625,67.0,90.0
816,194.66458333333333,195.20833333333334,60.0,90.0
817,193.66458333333333,195.51666666666665,48.0,87.0
818,195.16458333333333,195.55625,55.0,72.0
819,195.41458333333333,195.84375,60.0,95.0
820,195.41458333333333,195.88333333333333,67.0,88.0
821,196.41458333333333,196.72291666666666,64.0,104.0
822,196.16458333333333,196.72708333333333,60.0,102.0
823,196.66458333333333,197.0,55.0,81.0
824,196.91458333333333,197.17708333333334,60.0,90.0
825,196.91458333333333,197.18125,64.0,97.0
826,196.91458333333333,197.21875,67.0,90.0
827,195.66458333333333,197.22916666666666,48.0,75.0
828,197.16458333333333,197.26041666666666,55.0,84.0
829,197.66458333333333,198.225,67.0,84.0
830,198.41458333333333,198.50416666666666,59.0,77.0
831,198.66458333333333,198.7875,59.0,88.0
832,198.66458333333333,198.79166666666666,67.0,89.0
833,198.91458333333333,199.08125,59.0,95.0
834,198.91458333333333,199.1,67.0,90.0
835,197.66458333333333,199.47291666666666,40.0,88.0
836,198.16458333333333,199.525,47.0,75.0
837,199.41458333333333,199.96458333333334,59.0,90.0
838,199.41458333333333,200.03333333333333,64.0,90.0
839,200.16458333333333,200.28541666666666,59.0,90.0
840,199.91458333333333,200.51041666666666,47.0,80.0
841,200.41458333333333,200.99166666666667,59.0,95.0
842,200.41458333333333,201.00833333333333,64.0,94.0
843,199.66458333333333,201.31666666666666,40.0,90.0
844,201.16458333333333,201.36458333333334,59.0,91.0
845,201.16458333333333,201.57291666666666,64.0,94.0
846,201.66458333333333,201.89375,60.0,85.0
847,201.66458333333333,202.18958333333333,64.0,89.0
848,202.41458333333333,202.51875,57.0,76.0
849,202.16458333333333,202.7375,48.0,72.0
850,202.66458333333333,202.78541666666666,60.0,94.0
851,202.66458333333333,202.79583333333332,57.0,92.0
852,202.91458333333333,203.2,60.0,99.0
853,202.91458333333333,203.225,57.0,91.0
854,201.66458333333333,203.54166666666666,41.0,89.0
855,204.16458333333333,204.24791666666667,57.0,71.0
856,203.91458333333333,204.53333333333333,48.0,74.0
857,204.41458333333333,204.71458333333334,65.0,89.0
858,204.41458333333333,204.7375,60.0,90.0
859,204.41458333333333,204.75625,57.0,88.0
860,204.66458333333333,205.05416666666667,48.0,72.0
861,204.91458333333333,205.13333333333333,60.0,90.0
862,204.91458333333333,205.13958333333332,57.0,89.0
863,203.66458333333333,205.14583333333334,41.0,89.0
864,205.66458333333333,206.20208333333332,55.0,83.0
865,205.66458333333333,206.26666666666665,62.0,83.0
866,205.66458333333333,206.30833333333334,59.0,82.0
867,206.41458333333333,206.77708333333334,55.0,80.0
868,206.91458333333333,206.95624999999998,55.0,61.0
869,206.16458333333333,206.97291666666666,50.0,69.0
870,206.91458333333333,207.16041666666666,67.0,90.0
871,205.66458333333333,207.52291666666667,43.0,88.0
872,207.16458333333333,207.53125,50.0,82.0
873,207.41458333333333,207.56041666666667,55.0,82.0
874,207.66458333333333,208.11041666666665,55.0,81.0
875,207.66458333333333,208.12708333333333,59.0,89.0
876,207.66458333333333,208.14791666666667,62.0,88.0
877,208.16458333333333,208.47708333333333,50.0,66.0
878,208.41458333333333,208.60416666666666,67.0,89.0
879,208.41458333333333,208.63333333333333,55.0,92.0
880,208.91458333333333,208.98749999999998,55.0,83.0
881,208.66458333333333,209.01458333333332,50.0,78.0
882,207.66458333333333,209.05833333333334,43.0,88.0
883,208.91458333333333,209.19583333333333,59.0,91.0
884,209.41458333333333,209.525,55.0,86.0
885,208.91458333333333,209.55416666666667,62.0,89.0
886,209.66458333333333,210.00208333333333,55.0,89.0
887,210.16458333333333,210.24791666666667,55.0,65.0
888,209.66458333333333,210.29999999999998,60.0,85.0
889,210.66458333333333,210.80208333333334,55.0,92.0
890,209.66458333333333,210.81041666666667,48.0,88.0
891,210.66458333333333,211.01458333333332,64.0,93.0
892,210.91458333333333,211.16666666666666,55.0,82.0
893,211.41458333333333,211.725,55.0,84.0
894,211.41458333333333,211.74166666666667,60.0,89.0
895,211.41458333333333,211.95833333333334,64.0,89.0
896,211.91458333333333,212.20208333333332,55.0,84.0
897,212.41458333333333,212.64166666666665,55.0,91.0
898,212.41458333333333,212.76458333333332,64.0,104.0
899,212.91458333333333,213.15,62.0,89.0
900,211.66458333333333,213.26041666666666,48.0,89.0
901,212.91458333333333,213.27083333333334,55.0,89.0
902,213.16458333333333,213.4375,60.0,83.0
903,213.41458333333333,213.73958333333334,62.0,79.0
904,213.66458333333333,214.275,64.0,90.0
905,214.66458333333333,214.81666666666666,59.0,89.0
906,214.66458333333333,214.95,67.0,88.0
907,214.91458333333333,215.12083333333334,59.0,80.0
908,213.66458333333333,215.48125,40.0,92.0
909,214.16458333333333,215.50833333333333,47.0,73.0
910,215.41458333333333,215.96041666666667,59.0,90.0
911,215.41458333333333,216.13958333333332,64.0,90.0
912,215.91458333333333,216.59583333333333,47.0,77.0
913,216.41458333333333,216.78125,64.0,95.0
914,216.16458333333333,216.80833333333334,59.0,88.0
915,216.66458333333333,216.86875,47.0,46.0
916,216.91458333333333,217.14583333333334,59.0,93.0
917,216.91458333333333,217.17916666666667,64.0,97.0
918,215.66458333333333,217.29375,40.0,89.0
919,216.91458333333333,217.45624999999998,67.0,89.0
920,217.41458333333333,217.49583333333334,64.0,58.0
921,217.41458333333333,217.53125,59.0,86.0
922,217.16458333333333,217.575,47.0,80.0
923,217.66458333333333,218.21458333333334,65.0,89.0
924,217.66458333333333,218.21666666666667,60.0,84.0
925,218.66458333333333,218.92499999999998,60.0,89.0
926,218.66458333333333,218.94583333333333,69.0,90.0
927,218.91458333333333,219.0625,65.0,82.0
928,217.66458333333333,219.50416666666666,41.0,88.0
929,218.16458333333333,219.55208333333334,48.0,75.0
930,219.41458333333333,219.92708333333334,60.0,89.0
931,219.41458333333333,220.04375,65.0,86.0
932,220.16458333333333,220.22916666666666,60.0,76.0
933,219.91458333333333,220.52916666666667,48.0,75.0
934,220.41458333333333,221.1625,60.0,95.0
935,220.41458333333333,221.31875,65.0,94.0
936,219.66458333333333,221.40208333333334,41.0,84.0
937,221.41458333333333,221.52291666666667,60.0,83.0
938,221.16458333333333,221.525,48.0,89.0
939,221.66458333333333,222.65416666666667,67.0,85.0
940,222.66458333333333,222.97708333333333,62.0,88.0
941,222.41458333333333,222.98333333333332,55.0,86.0
942,222.91458333333333,223.27708333333334,67.0,90.0
943,221.66458333333333,223.49791666666667,43.0,88.0
944,222.16458333333333,223.5125,50.0,76.0
945,223.41458333333333,223.96875,55.0,89.0
946,223.41458333333333,223.99583333333334,67.0,89.0
947,223.41458333333333,224.01458333333332,62.0,89.0
948,224.16458333333333,224.24791666666667,55.0,81.0
949,223.91458333333333,224.50625,50.0,78.0
950,224.41458333333333,224.76041666666666,62.0,93.0
951,224.41458333333333,224.77291666666667,55.0,97.0
952,224.66458333333333,225.06875,50.0,85.0
953,223.66458333333333,225.1875,43.0,88.0
954,224.91458333333333,225.26666666666665,55.0,92.0
955,224.91458333333333,225.32291666666666,62.0,92.0
956,225.66458333333333,226.29791666666665,64.0,86.0
957,225.66458333333333,226.32291666666666,60.0,78.0
958,226.16458333333333,226.75625,55.0,78.0
959,226.66458333333333,226.79999999999998,64.0,99.0
960,226.66458333333333,226.82916666666665,60.0,90.0
961,227.16458333333333,227.23749999999998,60.0,68.0
962,226.91458333333333,227.46458333333334,55.0,74.0
963,227.41458333333333,227.69791666666666,67.0,86.0
964,227.41458333333333,227.76874999999998,60.0,89.0
965,227.66458333333333,227.98541666666665,55.0,76.0
966,227.91458333333333,228.43958333333333,60.0,84.0
967,227.91458333333333,228.4625,64.0,90.0
968,228.41458333333333,228.8125,55.0,62.0
969,225.66458333333333,228.8375,48.0,88.0
970,228.66458333333333,228.92708333333334,60.0,94.0
971,228.66458333333333,229.17499999999998,64.0,99.0
972,229.16458333333333,229.22916666666666,59.0,88.0
973,229.66458333333333,229.93333333333334,59.0,88.0
974,229.66458333333333,230.24375,64.0,90.0
975,230.16458333333333,230.37708333333333,59.0,79.0
976,230.66458333333333,230.82916666666665,64.0,89.0
977,230.66458333333333,230.85416666666666,67.0,89.0
978,229.66458333333333,230.95,47.0,88.0
979,230.91458333333333,230.98125,59.0,70.0
980,231.16458333333333,231.22083333333333,64.0,78.0
981,231.41458333333333,231.80416666666667,67.0,89.0
982,231.41458333333333,231.8125,64.0,94.0
983,231.41458333333333,231.81666666666666,59.0,93.0
984,231.91458333333333,232.11249999999998,59.0,84.0
985,231.91458333333333,232.30208333333334,64.0,89.0
986,231.91458333333333,232.38958333333332,69.0,87.0
987,232.41458333333333,232.58333333333334,59.0,88.0
988,232.66458333333333,232.8875,59.0,84.0
989,232.66458333333333,233.09583333333333,67.0,88.0
990,232.66458333333333,233.14374999999998,64.0,89.0
991,232.66458333333333,233.1875,47.0,86.0
992,233.41458333333333,233.525,64.0,83.0
993,233.16458333333333,233.53958333333333,59.0,89.0
994,233.66458333333333,234.21875,57.0,82.0
995,233.66458333333333,234.44583333333333,60.0,90.0
996,234.41458333333333,234.50416666666666,55.0,82.0
997,234.66458333333333,234.80208333333334,55.0,90.0
998,234.66458333333333,234.81666666666666,60.0,90.0
999,234.16458333333333,235.01458333333332,52.0,77.0
1000,234.91458333333333,235.14166666666665,55.0,92.0
1001,234.91458333333333,235.17916666666667,60.0,99.0
1002,235.41458333333333,235.75416666666666,64.0,97.0
1003,235.41458333333333,235.76666666666665,60.0,90.0
1004,235.41458333333333,235.78958333333333,57.0,88.0
1005,235.16458333333333,236.0125,52.0,83.0
1006,235.91458333333333,236.32291666666666,57.0,84.0
1007,235.91458333333333,236.39374999999998,60.0,86.0
1008,236.41458333333333,236.74166666666667,52.0,76.0
1009,236.66458333333333,236.9375,57.0,93.0
1010,233.66458333333333,236.99166666666667,45.0,89.0
1011,236.66458333333333,237.00625,60.0,104.0
1012,236.91458333333333,237.11875,52.0,75.0
1013,237.41458333333333,237.45624999999998,60.0,74.0
1014,237.16458333333333,237.48125,45.0,89.0
1015,237.41458333333333,237.83541666666667,57.0,90.0
1016,238.16458333333333,238.32708333333332,55.0,88.0
1017,237.91458333333333,238.53333333333333,50.0,73.0
1018,238.41458333333333,238.79166666666666,55.0,90.0
1019,238.41458333333333,238.79166666666666,62.0,94.0
1020,238.66458333333333,239.10208333333333,50.0,66.0
1021,238.91458333333333,239.10416666666666,62.0,90.0
1022,238.91458333333333,239.125,55.0,92.0
1023,238.91458333333333,239.17708333333334,67.0,88.0
1024,239.41458333333333,239.52708333333334,55.0,74.0
1025,237.66458333333333,239.53333333333333,43.0,90.0
1026,239.66458333333333,239.94791666666666,55.0,86.0
1027,239.66458333333333,240.00833333333333,62.0,86.0
1028,240.16458333333333,240.25416666666666,55.0,80.0
1029,239.91458333333333,240.50208333333333,50.0,77.0
1030,240.41458333333333,240.71458333333334,59.0,89.0
1031,240.41458333333333,240.72291666666666,62.0,89.0
1032,240.41458333333333,240.73333333333332,55.0,89.0
1033,240.66458333333333,241.08124999999998,50.0,80.0
1034,240.91458333333333,241.3125,55.0,89.0
1035,241.16458333333333,241.72916666666666,50.0,86.0
1036,239.66458333333333,241.74375,43.0,89.0
1037,241.66458333333333,242.26458333333332,64.0,86.0
1038,241.66458333333333,242.30625,60.0,82.0
1039,242.66458333333333,242.74791666666667,67.0,89.0
1040,242.66458333333333,242.75625,60.0,92.0
1041,243.16458333333333,243.47291666666666,55.0,45.0
1042,243.41458333333333,243.55416666666667,67.0,81.0
1043,243.41458333333333,243.57708333333332,60.0,87.0
1044,243.66458333333333,243.97916666666666,55.0,62.0
1045,243.91458333333333,244.11249999999998,60.0,69.0
1046,244.41458333333333,244.52083333333334,60.0,77.0
1047,244.16458333333333,244.7625,55.0,77.0
1048,244.66458333333333,244.93541666666667,60.0,90.0
1049,244.66458333333333,244.95208333333332,64.0,92.0
1050,241.66458333333333,244.97708333333333,48.0,89.0
1051,245.66458333333333,246.1375,67.0,84.0
1052,245.66458333333333,246.17708333333334,59.0,82.0
1053,246.66458333333333,246.68125,59.0,55.0
1054,246.66458333333333,246.77708333333334,64.0,90.0
1055,246.66458333333333,246.8125,67.0,87.0
1056,247.16458333333333,247.27916666666667,59.0,77.0
1057,247.41458333333333,247.82708333333332,64.0,87.0
1058,247.41458333333333,247.86041666666665,59.0,87.0
1059,248.41458333333333,248.50833333333333,59.0,78.0
1060,246.91458333333333,248.74791666666667,47.0,67.0
1061,248.66458333333333,248.85416666666666,59.0,92.0
1062,245.66458333333333,248.91458333333333,40.0,88.0
1063,248.66458333333333,249.04166666666666,67.0,86.0
1064,249.16458333333333,249.23333333333332,64.0,88.0
1065,249.16458333333333,249.25625,59.0,84.0
1066,249.66458333333333,250.14791666666667,57.0,80.0
1067,249.66458333333333,250.19791666666666,60.0,83.0
1068,250.41458333333333,250.74166666666667,57.0,81.0
1069,250.66458333333333,251.03125,65.0,93.0
1070,250.91458333333333,251.05625,57.0,84.0
1071,251.66458333333333,252.15625,60.0,81.0
1072,251.66458333333333,252.1875,57.0,79.0
1073,250.16458333333333,252.75,48.0,57.0
1074,252.66458333333333,252.78958333333333,57.0,88.0
1075,249.66458333333333,252.92499999999998,41.0,89.0
1076,252.66458333333333,253.15208333333334,65.0,89.0
1077,252.91458333333333,253.1875,57.0,87.0
1078,253.16458333333333,253.27916666666667,60.0,81.0
1079,253.66458333333333,254.17916666666667,55.0,84.0
1080,253.66458333333333,254.38333333333333,62.0,85.0
1081,254.41458333333333,254.9375,55.0,82.0
1082,254.66458333333333,255.00416666666666,62.0,77.0
1083,254.91458333333333,255.28125,67.0,84.0
1084,254.16458333333333,255.4125,50.0,76.0
1085,255.16458333333333,255.45,55.0,73.0
1086,253.66458333333333,255.47083333333333,43.0,89.0
1087,255.66458333333333,256.17291666666665,62.0,65.0
1088,255.66458333333333,256.38958333333335,55.0,76.0
1089,256.6645833333333,256.79375,55.0,89.0
1090,256.6645833333333,256.8041666666667,62.0,87.0
1091,256.1645833333333,256.8125,50.0,55.0
1092,255.66458333333333,256.8458333333333,43.0,82.0
1093,257.6791666666667,258.59166666666664,48.0,82.0
1094,257.58958333333334,258.79583333333335,55.0,77.0
1095,257.6666666666667,258.86875,60.0,77.0
1096,257.75625,258.94166666666666,64.0,70.0
