,start,end,pitch,velocity
0,12.722190416666667,12.818023510416667,61.0,115.0
1,12.888856666666667,12.951356510416668,63.0,109.0
2,13.055522916666668,13.123578302083335,66.0,118.0
3,13.222189166666668,13.305522291666668,68.0,112.0
4,13.388855416666667,13.498577364583333,70.0,112.0
5,13.722187916666668,13.927742958333335,66.0,112.0
6,14.055520416666667,14.29579759375,63.0,118.0
7,14.388852916666668,15.376350447916668,68.0,115.0
8,16.05551541666667,16.283292625,68.0,112.0
9,16.388847916666666,16.580514104166667,65.0,115.0
10,16.722180416666667,16.908291062500002,61.0,115.0
11,17.055512916666668,17.8249554375,66.0,118.0
12,18.055510416666667,18.15412128125,61.0,112.0
13,18.222176666666666,18.293009822916666,63.0,112.0
14,18.38884291666667,18.46245384375,66.0,115.0
15,18.555509166666667,18.64578671875,68.0,112.0
16,18.72217541666667,18.8249529375,70.0,109.0
17,19.055507916666667,19.265229614583333,66.0,112.0
18,19.388840416666667,19.548562239583333,63.0,115.0
19,19.72217291666667,20.208282812500002,68.0,115.0
20,20.388837916666667,20.519393145833334,61.0,115.0
21,20.722170416666668,20.852725645833335,68.0,115.0
22,21.05550291666667,22.276333197916667,66.0,118.0
23,24.05549541666667,24.469383270833333,66.0,115.0
24,24.722160416666668,25.069381770833335,66.0,115.0
25,25.388825416666666,25.584658260416667,65.0,115.0
26,25.722157916666667,25.809657697916666,66.0,115.0
27,25.88882416666667,26.115212489583335,65.0,115.0
28,26.722155416666666,26.863821729166666,65.0,112.0
29,27.055487916666667,27.148543239583336,66.0,115.0
30,27.22215416666667,27.319376145833335,65.0,115.0
31,27.555486666666667,27.6665975,61.0,115.0
32,27.888819166666668,28.51242871875,63.0,115.0
33,29.05548291666667,29.144371583333335,63.0,115.0
34,29.222149166666668,29.301315635416668,65.0,112.0
35,29.388815416666667,29.876314197916667,66.0,115.0
36,30.05548041666667,30.449923875000003,66.0,115.0
37,30.722145416666667,30.89992275,65.0,115.0
38,31.055477916666668,31.1415888125,66.0,112.0
39,31.22214416666667,31.3999215,65.0,115.0
40,31.555476666666667,31.787420531250003,63.0,112.0
41,31.888809166666668,33.18880591666667,61.0,115.0
42,34.72213541666667,35.0915789375,66.0,118.0
43,35.38880041666667,35.83879929166667,66.0,118.0
44,36.05546541666667,36.22907609375,68.0,112.0
45,36.38879791666667,36.466575500000005,70.0,112.0
46,36.55546416666667,36.73601927083334,68.0,118.0
47,37.38879541666667,37.5582394375,68.0,112.0
48,37.72212791666667,37.80407215625,70.0,115.0
49,37.88879416666667,38.03184936458334,68.0,115.0
50,38.22212666666667,38.344348583333336,65.0,115.0
51,38.555459166666665,39.42351255208334,66.0,118.0
52,39.72212291666667,39.81101158333333,61.0,115.0
53,39.88878916666667,39.96240009375,63.0,115.0
54,40.05545541666667,40.15545516666667,66.0,118.0
55,40.38878791666667,40.473509927083335,70.0,115.0
56,40.55545416666667,40.67212054166667,68.0,112.0
57,40.88878666666667,40.98878641666667,66.0,115.0
58,41.38878541666667,41.537396156250004,68.0,109.0
59,41.72211791666667,41.799895500000005,70.0,112.0
60,41.88878416666667,42.02072828125,68.0,115.0
61,42.22211666666667,42.38600514583334,66.0,115.0
62,42.72211541666667,43.79433495833334,66.0,115.0
63,44.722110416666666,44.81794351041667,61.0,115.0
64,44.88877666666667,44.95127651041667,63.0,109.0
65,45.05544291666667,45.123498302083334,66.0,118.0
66,45.22210916666667,45.30544229166667,68.0,112.0
67,45.38877541666667,45.498497364583336,70.0,112.0
68,45.72210791666667,45.927662958333336,66.0,112.0
69,46.05544041666667,46.295717593750005,63.0,118.0
70,46.38877291666667,47.37627044791667,68.0,115.0
71,48.05543541666667,48.283212625000004,68.0,112.0
72,48.388767916666666,48.58043410416667,65.0,115.0
73,48.72210041666667,48.9082110625,61.0,115.0
74,49.05543291666667,49.824875437500005,66.0,118.0
75,50.05543041666667,50.15404128125,61.0,112.0
76,50.22209666666667,50.29292982291667,63.0,112.0
77,50.38876291666667,50.46237384375,66.0,115.0
78,50.55542916666667,50.645706718750006,68.0,112.0
79,50.72209541666667,50.824872937500004,70.0,109.0
80,51.055427916666666,51.265149614583336,66.0,112.0
81,51.38876041666667,51.548482239583336,63.0,115.0
82,51.72209291666667,52.208202812500005,68.0,115.0
83,52.38875791666667,52.51931314583334,61.0,115.0
84,52.72209041666667,52.852645645833334,68.0,115.0
85,53.05542291666667,54.27625319791667,70.0,118.0
86,55.38875041666667,55.48458351041667,61.0,115.0
87,55.55541666666667,55.61791651041667,63.0,109.0
88,55.72208291666667,55.790138302083335,66.0,118.0
89,55.88874916666667,55.972082291666666,68.0,112.0
90,56.05541541666667,56.16513736458334,70.0,112.0
91,56.38874791666667,56.59430295833334,66.0,112.0
92,56.72208041666667,56.962357593750006,63.0,118.0
93,57.05541291666667,58.04291044791667,68.0,115.0
94,58.72207541666667,58.949852625000005,68.0,112.0
95,59.05540791666667,59.24707410416667,65.0,115.0
96,59.38874041666667,59.5748510625,61.0,115.0
97,59.72207291666667,60.491515437500006,66.0,118.0
98,60.72207041666667,60.82068128125,61.0,112.0
99,60.88873666666667,60.95956982291667,63.0,112.0
100,61.05540291666667,61.12901384375,66.0,115.0
101,61.22206916666667,61.31234671875,68.0,112.0
102,61.38873541666667,61.491512937500005,70.0,109.0
103,61.72206791666667,61.93178961458334,66.0,112.0
104,62.05540041666667,62.21512223958334,63.0,115.0
105,62.38873291666667,62.874842812500006,68.0,115.0
106,63.05539791666667,63.18595314583334,61.0,115.0
107,63.38873041666667,63.519285645833335,68.0,115.0
108,63.72206291666667,64.94289319791667,66.0,118.0
109,77.38869541666666,77.80258327083334,66.0,115.0
110,78.05536041666667,78.40258177083334,66.0,115.0
111,78.72202541666667,78.91785826041666,65.0,115.0
112,79.05535791666667,79.14285769791667,66.0,115.0
113,79.22202416666667,79.44841248958333,65.0,115.0
114,80.05535541666667,80.19702172916666,65.0,112.0
115,80.38868791666667,80.48174323958334,66.0,115.0
116,80.55535416666667,80.65257614583334,65.0,115.0
117,80.88868666666667,80.9997975,61.0,115.0
118,81.22201916666667,81.84562871875,63.0,115.0
119,82.38868291666667,82.47757158333334,63.0,115.0
120,82.55534916666667,82.63451563541668,65.0,112.0
121,82.72201541666666,83.20951419791668,66.0,115.0
122,83.38868041666667,83.783123875,66.0,115.0
123,84.05534541666667,84.23312275,65.0,115.0
124,84.38867791666667,84.47478881250001,66.0,112.0
125,84.55534416666667,84.73312150000001,65.0,115.0
126,84.88867666666667,85.12062053125,63.0,112.0
127,85.22200916666667,86.52200591666667,61.0,115.0
128,88.05533541666667,88.42477893750001,66.0,118.0
129,88.72200041666667,89.17199929166667,66.0,118.0
130,89.38866541666667,89.56227609375,68.0,112.0
131,89.72199791666667,89.79977550000001,70.0,112.0
132,89.88866416666667,90.06921927083334,68.0,118.0
133,90.72199541666667,90.89143943750001,68.0,112.0
134,91.05532791666667,91.13727215625,70.0,115.0
135,91.22199416666668,91.36504936458334,68.0,115.0
136,91.55532666666667,91.67754858333333,65.0,115.0
137,91.88865916666667,92.75671255208334,66.0,118.0
138,93.05532291666667,93.14421158333334,61.0,115.0
139,93.22198916666667,93.29560009375001,63.0,115.0
140,93.38865541666667,93.48865516666667,66.0,118.0
141,93.72198791666668,93.80670992708333,70.0,115.0
142,93.88865416666667,94.00532054166668,68.0,112.0
143,94.22198666666667,94.32198641666668,66.0,115.0
144,94.72198541666667,94.87059615625,68.0,109.0
145,95.05531791666667,95.13309550000001,70.0,112.0
146,95.22198416666667,95.35392828125,68.0,115.0
147,95.55531666666667,95.71920514583334,66.0,115.0
148,96.05531541666667,97.12753495833334,66.0,115.0
149,98.05531041666667,98.15114351041667,61.0,115.0
150,98.22197666666668,98.28447651041667,63.0,109.0
151,98.38864291666667,98.45669830208334,66.0,118.0
152,98.55530916666667,98.63864229166667,68.0,112.0
153,98.72197541666667,98.83169736458333,70.0,112.0
154,99.05530791666668,99.26086295833333,66.0,112.0
155,99.38864041666668,99.62891759375,63.0,118.0
156,99.72197291666667,100.70947044791667,68.0,115.0
157,101.38863541666667,101.61641262500001,68.0,112.0
158,101.72196791666667,101.91363410416668,65.0,115.0
159,102.05530041666667,102.2414110625,61.0,115.0
160,102.38863291666667,103.1580754375,66.0,118.0
161,103.38863041666667,103.48724128125001,61.0,112.0
162,103.55529666666668,103.62612982291667,63.0,112.0
163,103.72196291666667,103.79557384375,66.0,115.0
164,103.88862916666668,103.97890671875001,68.0,112.0
165,104.05529541666667,104.15807293750001,70.0,109.0
166,104.38862791666668,104.59834961458334,66.0,112.0
167,104.72196041666668,104.88168223958334,63.0,115.0
168,105.05529291666667,105.54140281250001,68.0,115.0
169,105.72195791666667,105.85251314583334,61.0,115.0
170,106.05529041666668,106.18584564583334,68.0,115.0
171,106.38862291666668,107.60945319791668,70.0,118.0
172,108.72195041666667,108.81778351041667,61.0,115.0
173,108.88861666666668,108.95111651041667,63.0,109.0
174,109.05528291666667,109.12333830208334,66.0,118.0
175,109.22194916666668,109.30528229166667,68.0,112.0
176,109.38861541666667,109.49833736458334,70.0,112.0
177,109.72194791666668,109.92750295833333,66.0,112.0
178,110.05528041666668,110.29555759375,63.0,118.0
179,110.38861291666667,111.37611044791667,68.0,115.0
180,112.05527541666667,112.28305262500001,68.0,112.0
181,112.38860791666667,112.58027410416668,65.0,115.0
182,112.72194041666667,112.90805106250001,61.0,115.0
183,113.05527291666667,113.8247154375,66.0,118.0
184,114.05527041666667,114.15388128125001,61.0,112.0
185,114.22193666666668,114.29276982291667,63.0,112.0
186,114.38860291666667,114.46221384375,66.0,115.0
187,114.55526916666668,114.64554671875001,68.0,112.0
188,114.72193541666667,114.82471293750001,70.0,109.0
189,115.05526791666668,115.26498961458334,66.0,112.0
190,115.38860041666668,115.54832223958334,63.0,115.0
191,115.72193291666667,116.20804281250001,68.0,115.0
192,116.38859791666667,116.51915314583334,61.0,115.0
193,116.72193041666667,116.85248564583334,68.0,115.0
194,117.05526291666668,118.27609319791668,66.0,118.0
195,140.72187041666666,140.81770351041666,61.0,115.0
196,140.88853666666668,140.95103651041669,63.0,109.0
197,141.05520291666667,141.12325830208334,66.0,118.0
198,141.22186916666666,141.30520229166666,68.0,112.0
199,141.38853541666668,141.49825736458334,70.0,112.0
200,141.72186791666667,141.92742295833335,66.0,112.0
201,142.05520041666668,142.29547759375,63.0,118.0
202,142.38853291666666,143.37603044791666,68.0,115.0
203,144.05519541666666,144.282972625,68.0,112.0
204,144.38852791666667,144.58019410416668,65.0,115.0
205,144.7218604166667,144.9079710625,61.0,115.0
206,145.05519291666667,145.8246354375,66.0,118.0
207,146.05519041666668,146.15380128125,61.0,112.0
208,146.22185666666667,146.29268982291669,63.0,112.0
209,146.3885229166667,146.46213384375,66.0,115.0
210,146.55518916666668,146.64546671875001,68.0,112.0
211,146.72185541666667,146.8246329375,70.0,109.0
212,147.05518791666668,147.26490961458333,66.0,112.0
213,147.38852041666667,147.54824223958335,63.0,115.0
214,147.72185291666668,148.2079628125,68.0,115.0
215,148.38851791666667,148.51907314583335,61.0,115.0
216,148.72185041666668,148.85240564583333,68.0,115.0
217,149.05518291666667,150.27601319791668,70.0,118.0
218,151.38851041666666,151.48434351041666,61.0,115.0
219,151.55517666666668,151.6176765104167,63.0,109.0
220,151.72184291666667,151.78989830208334,66.0,118.0
221,151.88850916666667,151.97184229166666,68.0,112.0
222,152.05517541666669,152.16489736458334,70.0,112.0
223,152.38850791666667,152.59406295833335,66.0,112.0
224,152.72184041666668,152.96211759375,63.0,118.0
225,153.05517291666666,154.04267044791666,68.0,115.0
226,154.72183541666666,154.94961262500001,68.0,112.0
227,155.05516791666668,155.24683410416668,65.0,115.0
228,155.3885004166667,155.5746110625,61.0,115.0
229,155.72183291666667,156.4912754375,66.0,118.0
230,156.72183041666668,156.82044128125,61.0,112.0
231,156.88849666666667,156.9593298229167,63.0,112.0
232,157.0551629166667,157.12877384375,66.0,115.0
233,157.22182916666668,157.31210671875002,68.0,112.0
234,157.38849541666667,157.4912729375,70.0,109.0
235,157.72182791666668,157.93154961458333,66.0,112.0
236,158.05516041666667,158.21488223958335,63.0,115.0
237,158.38849291666668,158.8746028125,68.0,115.0
238,159.05515791666667,159.18571314583335,61.0,115.0
239,159.38849041666668,159.51904564583333,68.0,115.0
240,159.72182291666667,160.94265319791668,66.0,118.0
241,172.72179041666666,172.81762351041667,61.0,115.0
242,172.88845666666668,172.9509565104167,63.0,109.0
243,173.05512291666668,173.12317830208335,66.0,118.0
244,173.22178916666667,173.30512229166666,68.0,112.0
245,173.3884554166667,173.49817736458334,70.0,112.0
246,173.72178791666667,173.92734295833336,66.0,112.0
247,174.05512041666668,174.29539759375,63.0,118.0
248,174.38845291666667,175.37595044791667,68.0,115.0
249,176.05511541666667,176.28289262500002,68.0,112.0
250,176.38844791666668,176.58011410416668,65.0,115.0
251,176.7217804166667,176.9078910625,61.0,115.0
252,177.05511291666667,177.8245554375,66.0,118.0
253,178.05511041666668,178.15372128125,61.0,112.0
254,178.22177666666667,178.2926098229167,63.0,112.0
255,178.38844291666666,178.46205384375,66.0,115.0
256,178.55510916666668,178.64538671875002,68.0,112.0
257,178.72177541666667,178.82455293750002,70.0,109.0
258,179.05510791666669,179.26482961458333,66.0,112.0
259,179.38844041666667,179.54816223958335,63.0,115.0
260,179.72177291666668,180.2078828125,68.0,115.0
261,180.38843791666667,180.51899314583335,61.0,115.0
262,180.7217704166667,180.85232564583333,68.0,115.0
263,181.05510291666667,182.2759331979167,66.0,118.0
