,start,end,pitch,velocity
0,3.055547916666667,3.5819354895833335,59.0,59.0
1,2.7222154166666668,3.6486019895833337,47.0,65.0
2,2.888881666666667,3.67915746875,54.0,49.0
3,3.222214166666667,4.0333232500000005,66.0,100.0
4,4.2222116666666665,4.815265739583333,56.0,71.0
5,4.055545416666667,4.884710010416667,49.0,97.0
6,4.388877916666667,4.994431958333333,61.0,87.0
7,4.5555441666666665,5.013876354166667,65.0,80.0
8,5.555541666666667,6.44581721875,53.0,73.0
9,5.388875416666667,6.47915046875,46.0,84.0
10,5.888874166666667,6.631927864583334,61.0,94.0
11,5.722207916666667,6.698594364583334,58.0,87.0
12,6.722205416666667,7.068037885416667,51.0,102.0
13,6.888871666666667,7.7485917395833335,54.0,71.0
14,7.055537916666667,7.851369260416667,58.0,100.0
15,7.222204166666667,7.955535666666667,66.0,94.0
16,8.222201666666667,8.949977625,54.0,52.0
17,8.055535416666666,8.959699822916667,47.0,63.0
18,8.388867916666667,8.981921989583334,59.0,82.0
19,8.555534166666668,9.181921489583333,63.0,84.0
20,9.388865416666667,9.619420395833334,56.0,69.0
21,9.722197916666667,9.929141843750001,56.0,58.0
22,9.388865416666667,9.940252927083334,61.0,89.0
23,9.888864166666668,10.29997425,65.0,94.0
24,9.388865416666667,10.311085333333335,49.0,82.0
25,11.222194166666668,11.822192666666668,61.0,89.0
26,10.888861666666667,11.880525854166667,49.0,69.0
27,11.055527916666668,11.906914677083334,54.0,76.0
28,11.722192916666668,11.919414645833333,58.0,89.0
29,10.722195416666667,11.947192354166667,42.0,97.0
30,12.055525416666667,12.430524479166667,61.0,73.0
31,12.055525416666667,12.4416355625,58.0,78.0
32,12.055525416666667,12.5083020625,66.0,92.0
33,12.055525416666667,12.60413515625,54.0,52.0
34,12.388857916666668,12.856912302083334,49.0,46.0
35,12.055525416666667,12.934689885416667,42.0,87.0
36,12.722190416666667,12.952745395833334,58.0,94.0
37,12.722190416666667,12.96246759375,54.0,84.0
38,12.722190416666667,13.001356385416667,61.0,89.0
39,13.388855416666667,13.74579896875,59.0,90.0
40,13.388855416666667,13.826354322916668,63.0,92.0
41,13.388855416666667,14.152742395833334,47.0,109.0
42,13.888854166666668,14.170797906250002,59.0,109.0
43,13.722187916666668,14.18746453125,54.0,76.0
44,14.055520416666667,14.268019885416667,66.0,102.0
45,14.388852916666668,15.105517791666667,65.0,105.0
46,14.388852916666668,15.149962125,61.0,84.0
47,15.055517916666668,15.456905802083334,56.0,97.0
48,14.722185416666667,15.513850104166668,49.0,111.0
49,15.388850416666667,15.543016697916668,61.0,111.0
50,15.388850416666667,15.615238739583335,65.0,111.0
51,15.388850416666667,15.765238364583334,68.0,111.0
52,15.722182916666668,15.822182666666668,61.0,97.0
53,16.05551541666667,16.37079240625,58.0,111.0
54,16.05551541666667,16.3916256875,61.0,111.0
55,16.55551416666667,16.669402770833333,58.0,102.0
56,16.722180416666667,16.82218016666667,61.0,105.0
57,16.722180416666667,16.8666245,58.0,111.0
58,16.722180416666667,16.881902239583333,65.0,111.0
59,16.388847916666666,16.88745778125,53.0,80.0
60,16.05551541666667,16.951346510416666,46.0,102.0
61,17.055512916666668,17.744400083333336,58.0,111.0
62,17.055512916666668,17.75412228125,63.0,108.0
63,18.055510416666667,18.22634332291667,58.0,117.0
64,17.722177916666666,18.38745403125,54.0,94.0
65,17.38884541666667,18.413842854166667,51.0,100.0
66,18.055510416666667,18.418009510416667,63.0,114.0
67,18.055510416666667,18.456898302083335,66.0,108.0
68,18.38884291666667,18.4916204375,58.0,102.0
69,18.72217541666667,19.081896739583335,59.0,96.0
70,18.72217541666667,19.094396708333335,63.0,102.0
71,19.22217416666667,19.348562739583333,59.0,99.0
72,18.72217541666667,19.47078465625,47.0,109.0
73,19.055507916666667,19.481895739583333,54.0,76.0
74,19.388840416666667,19.49717347916667,63.0,92.0
75,19.388840416666667,19.515228989583335,59.0,79.0
76,19.388840416666667,19.5416178125,66.0,108.0
77,19.72217291666667,20.434671135416668,65.0,108.0
78,19.72217291666667,20.459671072916667,61.0,94.0
79,20.388837916666667,20.823559052083333,56.0,66.0
80,20.722170416666668,20.893003322916666,61.0,117.0
81,20.05550541666667,20.936058770833334,49.0,108.0
82,20.722170416666668,21.13050272916667,68.0,111.0
83,20.722170416666668,21.140224927083334,65.0,111.0
84,21.05550291666667,21.256891302083336,61.0,100.0
85,21.38883541666667,21.790223302083334,58.0,100.0
86,21.38883541666667,21.851334260416667,54.0,92.0
87,22.055500416666668,22.10966694791667,54.0,82.0
88,21.722167916666667,22.148555739583333,49.0,66.0
89,22.055500416666668,22.441610562500003,58.0,108.0
90,22.055500416666668,22.45966607291667,61.0,102.0
91,22.555499166666667,22.694387708333334,54.0,89.0
92,22.38883291666667,22.862442843750003,49.0,73.0
93,22.72216541666667,23.11244221875,66.0,102.0
94,22.72216541666667,23.148553239583336,61.0,102.0
95,22.72216541666667,23.158275437500002,58.0,111.0
96,22.72216541666667,23.162442093750002,54.0,89.0
97,23.055497916666667,23.508274562500002,49.0,84.0
98,23.388830416666668,23.711051833333336,54.0,117.0
99,21.38883541666667,23.819384895833334,42.0,97.0
100,23.388830416666668,23.877718083333335,58.0,111.0
101,23.72216291666667,23.931884614583335,49.0,92.0
102,23.888829166666667,24.05549541666667,54.0,89.0
103,24.22216166666667,24.71382710416667,54.0,69.0
104,24.05549541666667,24.738827041666667,47.0,102.0
105,24.55549416666667,24.84716010416667,63.0,94.0
106,24.55549416666667,24.863826729166668,66.0,94.0
107,24.388827916666667,24.872160041666667,59.0,102.0
108,25.55549166666667,26.019379395833333,56.0,66.0
109,25.388825416666666,26.056879302083335,49.0,102.0
110,25.88882416666667,26.130490229166668,65.0,102.0
111,25.722157916666667,26.151323510416667,61.0,87.0
112,26.88882166666667,27.383264875000002,53.0,60.0
113,27.22215416666667,27.38465376041667,61.0,111.0
114,27.055487916666667,27.4082648125,58.0,87.0
115,26.722155416666666,27.441598062500002,46.0,94.0
116,28.055485416666667,28.7332615,51.0,105.0
117,28.22215166666667,28.773539177083336,54.0,82.0
118,28.55548416666667,28.802705770833334,66.0,102.0
119,28.388817916666667,28.831872364583337,58.0,111.0
120,29.88881416666667,30.119369145833335,63.0,100.0
121,29.88881416666667,30.134646885416668,66.0,102.0
122,29.722147916666668,30.147146854166667,59.0,93.0
123,29.55548166666667,30.169369020833336,54.0,60.0
124,29.388815416666667,30.181868989583336,47.0,72.0
125,31.22214416666667,31.401310385416668,65.0,111.0
126,31.055477916666668,31.431865864583337,61.0,97.0
127,30.88881166666667,31.452699145833336,56.0,73.0
128,30.722145416666667,31.494365708333333,49.0,105.0
129,32.05547541666667,32.448529989583335,58.0,87.0
130,32.05547541666667,32.52352980208334,54.0,76.0
131,32.38880791666667,32.81519573958334,49.0,43.0
132,32.72214041666667,33.027695208333334,66.0,100.0
133,32.72214041666667,33.05269514583333,54.0,100.0
134,33.055472916666666,33.520749531250004,49.0,40.0
135,33.38880541666667,33.79019330208334,54.0,73.0
136,33.38880541666667,33.91935964583333,58.0,71.0
137,33.38880541666667,33.941581812500004,61.0,89.0
138,33.72213791666667,34.32769195833333,49.0,73.0
139,34.055470416666665,34.63046897916667,58.0,108.0
140,34.38880291666667,34.63463563541667,49.0,29.0
141,34.055470416666665,34.64019117708334,61.0,100.0
142,34.055470416666665,34.64019117708334,66.0,100.0
143,33.88880416666667,34.658246687500004,54.0,89.0
144,32.05547541666667,34.71796876041667,42.0,94.0
145,34.888801666666666,35.38046710416667,54.0,69.0
146,34.72213541666667,35.40546704166667,47.0,102.0
147,35.22213416666667,35.51380010416667,63.0,94.0
148,35.22213416666667,35.53046672916667,66.0,94.0
149,35.05546791666667,35.53880004166667,59.0,102.0
150,36.22213166666667,36.686019395833334,56.0,66.0
151,36.05546541666667,36.72351930208333,49.0,102.0
152,36.55546416666667,36.79713022916667,65.0,102.0
153,36.38879791666667,36.81796351041667,61.0,87.0
154,37.555461666666666,38.049904875,53.0,60.0
155,37.88879416666667,38.05129376041667,61.0,111.0
156,37.72212791666667,38.0749048125,58.0,87.0
157,37.38879541666667,38.1082380625,46.0,94.0
158,38.72212541666667,39.3999015,51.0,105.0
159,38.88879166666667,39.44017917708334,54.0,82.0
160,39.22212416666667,39.469345770833336,66.0,102.0
161,39.05545791666667,39.498512364583334,58.0,111.0
162,40.55545416666667,40.78600914583333,63.0,100.0
163,40.55545416666667,40.801286885416665,66.0,102.0
164,40.38878791666667,40.81378685416667,59.0,93.0
165,40.222121666666666,40.83600902083334,54.0,60.0
166,40.05545541666667,40.84850898958334,47.0,72.0
167,41.88878416666667,42.067950385416665,65.0,111.0
168,41.72211791666667,42.09850586458334,61.0,97.0
169,41.55545166666667,42.11933914583334,56.0,73.0
170,41.38878541666667,42.161005708333334,49.0,105.0
171,42.72211541666667,43.115169989583336,58.0,87.0
172,42.72211541666667,43.19016980208333,54.0,76.0
173,43.05544791666667,43.48183573958334,49.0,43.0
174,43.38878041666667,43.694335208333335,66.0,100.0
175,43.38878041666667,43.719335145833334,54.0,100.0
176,43.72211291666667,44.187389531250005,49.0,40.0
177,44.05544541666667,44.45683330208333,54.0,73.0
178,44.05544541666667,44.58599964583333,58.0,71.0
179,44.05544541666667,44.608221812500005,61.0,89.0
180,44.38877791666667,44.99433195833333,49.0,73.0
181,44.722110416666666,45.297108979166666,58.0,108.0
182,45.05544291666667,45.30127563541667,49.0,29.0
183,44.722110416666666,45.30683117708334,61.0,100.0
184,44.722110416666666,45.30683117708334,66.0,100.0
185,44.55544416666667,45.324886687500005,54.0,89.0
186,42.72211541666667,45.38460876041667,42.0,94.0
187,45.38877541666667,45.745718968750005,59.0,90.0
188,45.38877541666667,45.82627432291667,63.0,92.0
189,45.38877541666667,46.15266239583334,47.0,109.0
190,45.88877416666667,46.170717906250005,59.0,109.0
191,45.72210791666667,46.187384531250004,54.0,76.0
192,46.05544041666667,46.267939885416666,66.0,102.0
193,46.38877291666667,47.10543779166667,65.0,105.0
194,46.38877291666667,47.149882125000005,61.0,84.0
195,47.05543791666667,47.45682580208334,56.0,97.0
196,46.72210541666667,47.51377010416667,49.0,111.0
197,47.38877041666667,47.542936697916666,61.0,111.0
198,47.38877041666667,47.615158739583336,65.0,111.0
199,47.38877041666667,47.765158364583336,68.0,111.0
200,47.72210291666667,47.822102666666666,61.0,97.0
201,48.05543541666667,48.37071240625,58.0,111.0
202,48.05543541666667,48.391545687500006,61.0,111.0
203,48.55543416666667,48.66932277083333,58.0,102.0
204,48.72210041666667,48.82210016666667,61.0,105.0
205,48.72210041666667,48.8665445,58.0,111.0
206,48.72210041666667,48.881822239583336,65.0,111.0
207,48.388767916666666,48.88737778125,53.0,80.0
208,48.05543541666667,48.951266510416666,46.0,102.0
209,49.05543291666667,49.744320083333335,58.0,111.0
210,49.05543291666667,49.75404228125,63.0,108.0
211,50.05543041666667,50.22626332291667,58.0,117.0
212,49.72209791666667,50.387374031250005,54.0,94.0
213,49.38876541666667,50.41376285416667,51.0,100.0
214,50.05543041666667,50.41792951041667,63.0,114.0
215,50.05543041666667,50.456818302083335,66.0,108.0
216,50.38876291666667,50.4915404375,58.0,102.0
217,50.72209541666667,51.08181673958334,59.0,96.0
218,50.72209541666667,51.09431670833334,63.0,102.0
219,51.22209416666667,51.34848273958334,59.0,99.0
220,50.72209541666667,51.47070465625,47.0,109.0
221,51.055427916666666,51.48181573958334,54.0,76.0
222,51.38876041666667,51.49709347916667,63.0,92.0
223,51.38876041666667,51.51514898958334,59.0,79.0
224,51.38876041666667,51.5415378125,66.0,108.0
225,51.72209291666667,52.43459113541667,65.0,108.0
226,51.72209291666667,52.459591072916666,61.0,94.0
227,52.38875791666667,52.823479052083336,56.0,66.0
228,52.72209041666667,52.89292332291667,61.0,117.0
229,52.05542541666667,52.93597877083334,49.0,108.0
230,52.72209041666667,53.13042272916667,68.0,111.0
231,52.72209041666667,53.140144927083334,65.0,111.0
232,53.05542291666667,53.256811302083335,61.0,100.0
233,53.38875541666667,53.79014330208334,58.0,100.0
234,53.38875541666667,53.85125426041667,54.0,92.0
235,54.05542041666667,54.10958694791667,54.0,82.0
236,53.722087916666666,54.14847573958333,49.0,66.0
237,54.05542041666667,54.441530562500006,58.0,108.0
238,54.05542041666667,54.45958607291667,61.0,102.0
239,54.55541916666667,54.69430770833333,54.0,89.0
240,54.38875291666667,54.862362843750006,49.0,73.0
241,54.72208541666667,55.11236221875,66.0,102.0
242,54.72208541666667,55.14847323958334,61.0,102.0
243,54.72208541666667,55.158195437500005,58.0,111.0
244,54.72208541666667,55.162362093750005,54.0,89.0
245,55.05541791666667,55.5081945625,49.0,84.0
246,55.38875041666667,55.71097183333334,54.0,117.0
247,53.38875541666667,55.81930489583333,42.0,97.0
248,55.38875041666667,55.87763808333334,58.0,111.0
249,55.72208291666667,55.931804614583335,49.0,92.0
250,55.88874916666667,56.05541541666667,54.0,89.0
251,56.05541541666667,56.412358968750006,59.0,90.0
252,56.05541541666667,56.49291432291667,63.0,92.0
253,56.05541541666667,56.81930239583334,47.0,109.0
254,56.55541416666667,56.837357906250006,59.0,109.0
255,56.38874791666667,56.854024531250005,54.0,76.0
256,56.72208041666667,56.93457988541667,66.0,102.0
257,57.05541291666667,57.77207779166667,65.0,105.0
258,57.05541291666667,57.816522125000006,61.0,84.0
259,57.72207791666667,58.12346580208334,56.0,97.0
260,57.38874541666667,58.18041010416667,49.0,111.0
261,58.05541041666667,58.20957669791667,61.0,111.0
262,58.05541041666667,58.28179873958334,65.0,111.0
263,58.05541041666667,58.43179836458334,68.0,111.0
264,58.38874291666667,58.48874266666667,61.0,97.0
265,58.72207541666667,59.03735240625,58.0,111.0
266,58.72207541666667,59.0581856875,61.0,111.0
267,59.22207416666667,59.33596277083333,58.0,102.0
268,59.38874041666667,59.48874016666667,61.0,105.0
269,59.38874041666667,59.533184500000004,58.0,111.0
270,59.38874041666667,59.54846223958334,65.0,111.0
271,59.05540791666667,59.55401778125,53.0,80.0
272,58.72207541666667,59.61790651041667,46.0,102.0
273,59.72207291666667,60.410960083333336,58.0,111.0
274,59.72207291666667,60.42068228125,63.0,108.0
275,60.72207041666667,60.89290332291667,58.0,117.0
276,60.38873791666667,61.054014031250006,54.0,94.0
277,60.05540541666667,61.08040285416667,51.0,100.0
278,60.72207041666667,61.08456951041667,63.0,114.0
279,60.72207041666667,61.123458302083336,66.0,108.0
280,61.05540291666667,61.1581804375,58.0,102.0
281,61.38873541666667,61.74845673958334,59.0,96.0
282,61.38873541666667,61.76095670833334,63.0,102.0
283,61.88873416666667,62.01512273958333,59.0,99.0
284,61.38873541666667,62.13734465625,47.0,109.0
285,61.72206791666667,62.14845573958333,54.0,76.0
286,62.05540041666667,62.16373347916667,63.0,92.0
287,62.05540041666667,62.18178898958334,59.0,79.0
288,62.05540041666667,62.208177812500004,66.0,108.0
289,62.38873291666667,63.10123113541667,65.0,108.0
290,62.38873291666667,63.12623107291667,61.0,94.0
291,63.05539791666667,63.49011905208334,56.0,66.0
292,63.38873041666667,63.55956332291667,61.0,117.0
293,62.72206541666667,63.60261877083334,49.0,108.0
294,63.38873041666667,63.79706272916667,68.0,111.0
295,63.38873041666667,63.806784927083335,65.0,111.0
296,63.72206291666667,63.923451302083336,61.0,100.0
297,64.05539541666667,64.45678330208334,58.0,100.0
298,64.05539541666667,64.51789426041667,54.0,92.0
299,64.72206041666666,64.77622694791667,54.0,82.0
300,64.38872791666667,64.81511573958333,49.0,66.0
301,64.72206041666666,65.1081705625,58.0,108.0
302,64.72206041666666,65.12622607291667,61.0,102.0
303,65.22205916666667,65.36094770833334,54.0,89.0
304,65.05539291666668,65.52900284375,49.0,73.0
305,65.38872541666667,65.77900221875001,66.0,102.0
306,65.38872541666667,65.81511323958334,61.0,102.0
307,65.38872541666667,65.8248354375,58.0,111.0
308,65.38872541666667,65.82900209375,54.0,89.0
309,65.72205791666667,66.17483456250001,49.0,84.0
310,66.05539041666667,66.37761183333333,54.0,117.0
311,64.05539541666667,66.48594489583334,42.0,97.0
312,66.05539041666667,66.54427808333334,58.0,111.0
313,66.38872291666667,66.59844461458334,49.0,92.0
314,66.55538916666667,66.72205541666668,54.0,89.0
315,66.72205541666668,67.09705447916667,59.0,90.0
316,66.72205541666668,67.21233196875001,63.0,105.0
317,67.22205416666667,67.50122013541667,59.0,102.0
318,67.05538791666667,67.72344180208334,54.0,69.0
319,66.72205541666668,67.73177511458334,47.0,112.0
320,67.72205291666667,67.87205254166668,59.0,90.0
321,67.38872041666667,67.90677467708333,66.0,94.0
322,68.05538541666667,68.83177236458334,65.0,73.0
323,68.05538541666667,68.84288344791668,49.0,105.0
324,68.05538541666667,68.86093895833334,61.0,76.0
325,69.38871541666667,69.74288119791667,58.0,89.0
326,69.38871541666667,69.85676980208333,61.0,89.0
327,69.88871416666667,70.20399115625,58.0,82.0
328,70.05538041666667,70.34704635416666,61.0,82.0
329,69.72204791666667,70.53037922916667,53.0,67.0
330,70.38871291666668,70.62621232291667,65.0,97.0
331,69.38871541666667,70.63454563541667,46.0,102.0
332,70.72204541666667,71.46232134375,63.0,89.0
333,70.72204541666667,71.46926577083333,58.0,84.0
334,70.72204541666667,71.48037685416666,51.0,89.0
335,72.55537416666667,72.93592877083334,59.0,105.0
336,72.05537541666666,72.98453976041667,47.0,105.0
337,72.38870791666668,72.98453976041667,54.0,78.0
338,72.88870666666666,73.29009455208333,63.0,102.0
339,72.88870666666666,73.33870554166667,66.0,105.0
340,73.22203916666668,73.35120551041668,59.0,90.0
341,73.72203791666666,73.983148375,61.0,94.0
342,73.55537166666667,74.19009230208334,56.0,80.0
343,73.38870541666667,74.25120326041667,49.0,97.0
344,74.05537041666668,74.2748143125,61.0,111.0
345,74.05537041666668,74.34286969791667,65.0,111.0
346,74.72203541666667,75.08731228125001,58.0,108.0
347,74.72203541666667,75.12064553125,54.0,111.0
348,75.05536791666667,75.49286682291667,49.0,57.0
349,75.38870041666667,75.56231109375,61.0,108.0
350,75.38870041666667,75.65258864583333,54.0,108.0
351,75.88869916666667,75.99981000000001,54.0,94.0
352,75.72203291666668,76.15953182291668,49.0,53.0
353,76.05536541666667,76.39425345833334,66.0,102.0
354,76.05536541666667,76.43036447916667,54.0,105.0
355,76.72203041666667,77.32202891666667,58.0,84.0
356,76.72203041666667,77.33036222916667,54.0,87.0
357,76.72203041666667,77.33314,61.0,92.0
358,76.38869791666667,77.34702885416667,49.0,67.0
359,74.72203541666667,77.35119551041667,42.0,97.0
360,77.55536166666667,78.04702710416667,54.0,69.0
361,77.38869541666666,78.07202704166667,47.0,102.0
362,77.88869416666667,78.18036010416667,63.0,94.0
363,77.88869416666667,78.19702672916667,66.0,94.0
364,77.72202791666668,78.20536004166667,59.0,102.0
365,78.88869166666667,79.35257939583333,56.0,66.0
366,78.72202541666667,79.39007930208334,49.0,102.0
367,79.22202416666667,79.46369022916667,65.0,102.0
368,79.05535791666667,79.48452351041666,61.0,87.0
369,80.22202166666668,80.716464875,53.0,60.0
370,80.55535416666667,80.71785376041667,61.0,111.0
371,80.38868791666667,80.7414648125,58.0,87.0
372,80.05535541666667,80.77479806250001,46.0,94.0
373,81.38868541666668,82.0664615,51.0,105.0
374,81.55535166666667,82.10673917708334,54.0,82.0
375,81.88868416666666,82.13590577083333,66.0,102.0
376,81.72201791666667,82.16507236458334,58.0,111.0
377,83.22201416666667,83.45256914583334,63.0,100.0
378,83.22201416666667,83.46784688541668,66.0,102.0
379,83.05534791666668,83.48034685416667,59.0,93.0
380,82.88868166666667,83.50256902083333,54.0,60.0
381,82.72201541666666,83.51506898958334,47.0,72.0
382,84.55534416666667,84.73451038541667,65.0,111.0
383,84.38867791666667,84.76506586458333,61.0,97.0
384,84.22201166666667,84.78589914583334,56.0,73.0
385,84.05534541666667,84.82756570833334,49.0,105.0
386,85.38867541666667,85.78172998958334,58.0,87.0
387,85.38867541666667,85.85672980208334,54.0,76.0
388,85.72200791666667,86.14839573958334,49.0,43.0
389,86.05534041666667,86.36089520833333,66.0,100.0
390,86.05534041666667,86.38589514583333,54.0,100.0
391,86.38867291666668,86.85394953125001,49.0,40.0
392,86.72200541666668,87.12339330208334,54.0,73.0
393,86.72200541666668,87.25255964583334,58.0,71.0
394,86.72200541666668,87.27478181250001,61.0,89.0
395,87.05533791666667,87.66089195833334,49.0,73.0
396,87.38867041666667,87.96366897916667,58.0,108.0
397,87.72200291666667,87.96783563541668,49.0,29.0
398,87.38867041666667,87.97339117708334,61.0,100.0
399,87.38867041666667,87.97339117708334,66.0,100.0
400,87.22200416666666,87.9914466875,54.0,89.0
401,85.38867541666667,88.05116876041667,42.0,94.0
402,88.22200166666667,88.71366710416667,54.0,69.0
403,88.05533541666667,88.73866704166667,47.0,102.0
404,88.55533416666667,88.84700010416667,63.0,94.0
405,88.55533416666667,88.86366672916667,66.0,94.0
406,88.38866791666668,88.87200004166667,59.0,102.0
407,89.55533166666667,90.01921939583333,56.0,66.0
408,89.38866541666667,90.05671930208334,49.0,102.0
409,89.88866416666667,90.13033022916667,65.0,102.0
410,89.72199791666667,90.15116351041667,61.0,87.0
411,90.88866166666668,91.383104875,53.0,60.0
412,91.22199416666668,91.38449376041667,61.0,111.0
413,91.05532791666667,91.4081048125,58.0,87.0
414,90.72199541666667,91.4414380625,46.0,94.0
415,92.05532541666668,92.7331015,51.0,105.0
416,92.22199166666667,92.77337917708334,54.0,82.0
417,92.55532416666667,92.80254577083333,66.0,102.0
418,92.38865791666667,92.83171236458334,58.0,111.0
419,93.88865416666667,94.11920914583334,63.0,100.0
420,93.88865416666667,94.13448688541668,66.0,102.0
421,93.72198791666668,94.14698685416667,59.0,93.0
422,93.55532166666667,94.16920902083334,54.0,60.0
423,93.38865541666667,94.18170898958334,47.0,72.0
424,95.22198416666667,95.40115038541667,65.0,111.0
425,95.05531791666667,95.43170586458334,61.0,97.0
426,94.88865166666668,95.45253914583334,56.0,73.0
427,94.72198541666667,95.49420570833334,49.0,105.0
428,96.05531541666667,96.44836998958334,58.0,87.0
429,96.05531541666667,96.52336980208334,54.0,76.0
430,96.38864791666667,96.81503573958334,49.0,43.0
431,96.72198041666667,97.02753520833333,66.0,100.0
432,96.72198041666667,97.05253514583333,54.0,100.0
433,97.05531291666667,97.52058953125001,49.0,40.0
434,97.38864541666668,97.79003330208334,54.0,73.0
435,97.38864541666668,97.91919964583334,58.0,71.0
436,97.38864541666668,97.94142181250001,61.0,89.0
437,97.72197791666667,98.32753195833334,49.0,73.0
438,98.05531041666667,98.63030897916667,58.0,108.0
439,98.38864291666667,98.63447563541668,49.0,29.0
440,98.05531041666667,98.64003117708334,61.0,100.0
441,98.05531041666667,98.64003117708334,66.0,100.0
442,97.88864416666667,98.6580866875,54.0,89.0
443,96.05531541666667,98.71780876041667,42.0,94.0
444,98.72197541666667,99.07891896875,59.0,90.0
445,98.72197541666667,99.15947432291667,63.0,92.0
446,98.72197541666667,99.48586239583334,47.0,109.0
447,99.22197416666667,99.50391790625001,59.0,109.0
448,99.05530791666668,99.52058453125001,54.0,76.0
449,99.38864041666668,99.60113988541667,66.0,102.0
450,99.72197291666667,100.43863779166668,65.0,105.0
451,99.72197291666667,100.48308212500001,61.0,84.0
452,100.38863791666667,100.79002580208333,56.0,97.0
453,100.05530541666667,100.84697010416667,49.0,111.0
454,100.72197041666668,100.87613669791668,61.0,111.0
455,100.72197041666668,100.94835873958334,65.0,111.0
456,100.72197041666668,101.09835836458333,68.0,111.0
457,101.05530291666668,101.15530266666667,61.0,97.0
458,101.38863541666667,101.70391240625001,58.0,111.0
459,101.38863541666667,101.7247456875,61.0,111.0
460,101.88863416666668,102.00252277083334,58.0,102.0
461,102.05530041666667,102.15530016666668,61.0,105.0
462,102.05530041666667,102.19974450000001,58.0,111.0
463,102.05530041666667,102.21502223958333,65.0,111.0
464,101.72196791666667,102.22057778125,53.0,80.0
465,101.38863541666667,102.28446651041668,46.0,102.0
466,102.38863291666667,103.07752008333334,58.0,111.0
467,102.38863291666667,103.08724228125,63.0,108.0
468,103.38863041666667,103.55946332291667,58.0,117.0
469,103.05529791666667,103.72057403125001,54.0,94.0
470,102.72196541666668,103.74696285416667,51.0,100.0
471,103.38863041666667,103.75112951041667,63.0,114.0
472,103.38863041666667,103.79001830208334,66.0,108.0
473,103.72196291666667,103.82474043750001,58.0,102.0
474,104.05529541666667,104.41501673958334,59.0,96.0
475,104.05529541666667,104.42751670833334,63.0,102.0
476,104.55529416666667,104.68168273958334,59.0,99.0
477,104.05529541666667,104.80390465625001,47.0,109.0
478,104.38862791666668,104.81501573958334,54.0,76.0
479,104.72196041666668,104.83029347916667,63.0,92.0
480,104.72196041666668,104.84834898958334,59.0,79.0
481,104.72196041666668,104.8747378125,66.0,108.0
482,105.05529291666667,105.76779113541667,65.0,108.0
483,105.05529291666667,105.79279107291667,61.0,94.0
484,105.72195791666667,106.15667905208333,56.0,66.0
485,106.05529041666668,106.22612332291668,61.0,117.0
486,105.38862541666667,106.26917877083334,49.0,108.0
487,106.05529041666668,106.46362272916667,68.0,111.0
488,106.05529041666668,106.47334492708335,65.0,111.0
489,106.38862291666668,106.59001130208334,61.0,100.0
490,106.72195541666667,107.12334330208334,58.0,100.0
491,106.72195541666667,107.18445426041667,54.0,92.0
492,107.38862041666667,107.44278694791667,54.0,82.0
493,107.05528791666667,107.48167573958334,49.0,66.0
494,107.38862041666667,107.77473056250001,58.0,108.0
495,107.38862041666667,107.79278607291667,61.0,102.0
496,107.88861916666667,108.02750770833335,54.0,89.0
497,107.72195291666667,108.19556284375001,49.0,73.0
498,108.05528541666668,108.44556221875001,66.0,102.0
499,108.05528541666668,108.48167323958334,61.0,102.0
500,108.05528541666668,108.4913954375,58.0,111.0
501,108.05528541666668,108.49556209375001,54.0,89.0
502,108.38861791666668,108.8413945625,49.0,84.0
503,108.72195041666667,109.04417183333334,54.0,117.0
504,106.72195541666667,109.15250489583335,42.0,97.0
505,108.72195041666667,109.21083808333334,58.0,111.0
506,109.05528291666667,109.26500461458333,49.0,92.0
507,109.22194916666668,109.38861541666667,54.0,89.0
508,109.38861541666667,109.74555896875,59.0,90.0
509,109.38861541666667,109.82611432291667,63.0,92.0
510,109.38861541666667,110.15250239583334,47.0,109.0
511,109.88861416666667,110.17055790625001,59.0,109.0
512,109.72194791666668,110.18722453125001,54.0,76.0
513,110.05528041666668,110.26777988541667,66.0,102.0
514,110.38861291666667,111.10527779166667,65.0,105.0
515,110.38861291666667,111.14972212500001,61.0,84.0
516,111.05527791666667,111.45666580208334,56.0,97.0
517,110.72194541666667,111.51361010416667,49.0,111.0
518,111.38861041666667,111.54277669791668,61.0,111.0
519,111.38861041666667,111.61499873958334,65.0,111.0
520,111.38861041666667,111.76499836458333,68.0,111.0
521,111.72194291666668,111.82194266666667,61.0,97.0
522,112.05527541666667,112.37055240625,58.0,111.0
523,112.05527541666667,112.3913856875,61.0,111.0
524,112.55527416666668,112.66916277083334,58.0,102.0
525,112.72194041666667,112.82194016666668,61.0,105.0
526,112.72194041666667,112.86638450000001,58.0,111.0
527,112.72194041666667,112.88166223958333,65.0,111.0
528,112.38860791666667,112.88721778125,53.0,80.0
529,112.05527541666667,112.95110651041668,46.0,102.0
530,113.05527291666667,113.74416008333334,58.0,111.0
531,113.05527291666667,113.75388228125,63.0,108.0
532,114.05527041666667,114.22610332291667,58.0,117.0
533,113.72193791666668,114.38721403125001,54.0,94.0
534,113.38860541666668,114.41360285416667,51.0,100.0
535,114.05527041666667,114.41776951041668,63.0,114.0
536,114.05527041666667,114.45665830208334,66.0,108.0
537,114.38860291666667,114.49138043750001,58.0,102.0
538,114.72193541666667,115.08165673958334,59.0,96.0
539,114.72193541666667,115.09415670833334,63.0,102.0
540,115.22193416666667,115.34832273958334,59.0,99.0
541,114.72193541666667,115.47054465625001,47.0,109.0
542,115.05526791666668,115.48165573958335,54.0,76.0
543,115.38860041666668,115.49693347916667,63.0,92.0
544,115.38860041666668,115.51498898958334,59.0,79.0
545,115.38860041666668,115.5413778125,66.0,108.0
546,115.72193291666667,116.43443113541667,65.0,108.0
547,115.72193291666667,116.45943107291667,61.0,94.0
548,116.38859791666667,116.82331905208333,56.0,66.0
549,116.72193041666667,116.89276332291668,61.0,117.0
550,116.05526541666667,116.93581877083334,49.0,108.0
551,116.72193041666667,117.13026272916667,68.0,111.0
552,116.72193041666667,117.13998492708333,65.0,111.0
553,117.05526291666668,117.25665130208334,61.0,100.0
554,117.38859541666667,117.78998330208334,58.0,100.0
555,117.38859541666667,117.85109426041667,54.0,92.0
556,118.05526041666667,118.10942694791667,54.0,82.0
557,117.72192791666667,118.14831573958334,49.0,66.0
558,118.05526041666667,118.44137056250001,58.0,108.0
559,118.05526041666667,118.45942607291667,61.0,102.0
560,118.55525916666667,118.69414770833335,54.0,89.0
561,118.38859291666667,118.86220284375001,49.0,73.0
562,118.72192541666668,119.11220221875,66.0,102.0
563,118.72192541666668,119.14831323958335,61.0,102.0
564,118.72192541666668,119.1580354375,58.0,111.0
565,118.72192541666668,119.16220209375001,54.0,89.0
566,119.05525791666668,119.5080345625,49.0,84.0
567,119.38859041666667,119.71081183333334,54.0,117.0
568,117.38859541666667,119.81914489583335,42.0,97.0
569,119.38859041666667,119.87747808333334,58.0,111.0
570,119.72192291666667,119.93164461458333,49.0,92.0
571,119.88858916666668,120.05525541666667,54.0,89.0
572,120.05525541666667,120.50108763541667,63.0,101.0
573,120.05525541666667,120.50664317708333,59.0,96.0
574,120.05525541666667,120.5080320625,54.0,99.0
575,120.72192041666668,120.93580877083333,54.0,109.0
576,120.72192041666668,120.95386428125,59.0,106.0
577,120.72192041666668,120.96358647916668,63.0,106.0
578,120.05525541666667,121.116363875,47.0,104.0
579,121.38858541666667,121.73997342708334,61.0,106.0
580,121.38858541666667,121.783028875,65.0,107.0
581,121.38858541666667,121.79552884375,56.0,106.0
582,121.38858541666667,122.18997230208333,49.0,101.0
583,122.05525041666667,122.26080545833334,56.0,106.0
584,122.05525041666667,122.38024960416668,61.0,112.0
585,122.05525041666667,122.42052728125,65.0,117.0
586,122.72191541666668,123.13580327083334,61.0,104.0
587,122.72191541666668,123.17330317708334,58.0,99.0
588,122.72191541666668,123.18024760416667,65.0,101.0
589,123.05524791666667,123.32885834375,53.0,55.0
590,122.72191541666668,123.41080258333334,46.0,99.0
591,123.38858041666667,123.56219109375,58.0,101.0
592,123.38858041666667,123.72885734375001,61.0,109.0
593,123.38858041666667,123.72885734375001,65.0,113.0
594,123.72191291666667,123.84969037500001,58.0,74.0
595,124.05524541666668,124.42746670833334,54.0,104.0
596,124.05524541666668,124.533022,51.0,106.0
597,124.38857791666668,124.74413258333334,46.0,59.0
598,124.72191041666667,124.8246879375,51.0,94.0
599,124.05524541666668,124.82885459375001,39.0,104.0
600,124.72191041666667,125.066354,54.0,106.0
601,124.72191041666667,125.08718728125001,58.0,106.0
602,125.38857541666667,125.83162986458333,54.0,94.0
603,125.38857541666667,125.85662980208333,59.0,104.0
604,125.38857541666667,126.15385128125001,47.0,91.0
605,126.05524041666668,126.18024010416667,54.0,106.0
606,126.05524041666668,126.38440626041667,59.0,109.0
607,126.05524041666668,126.41496173958333,63.0,106.0
608,126.72190541666667,127.12329330208334,56.0,99.0
609,126.72190541666667,127.13301550000001,61.0,106.0
610,126.72190541666667,127.13301550000001,65.0,101.0
611,127.38857041666667,127.53857004166667,56.0,104.0
612,126.72190541666667,127.60662542708334,49.0,106.0
613,127.38857041666667,127.74690285416668,65.0,117.0
614,127.38857041666667,127.75384728125,61.0,106.0
615,127.72190291666668,127.83162486458335,56.0,87.0
616,128.05523541666668,128.49551209375,58.0,101.0
617,128.05523541666668,128.53023422916667,54.0,96.0
618,128.3885679166667,128.8246779375,49.0,87.0
619,128.72190041666667,128.9746775625,61.0,112.0
620,128.72190041666667,128.99551084375,58.0,112.0
621,128.72190041666667,129.00245527083334,54.0,106.0
622,129.05523291666668,129.45384303125002,49.0,78.0
623,129.38856541666667,129.65523141666668,58.0,112.0
624,129.38856541666667,129.70384240625,61.0,115.0
625,129.72189791666668,130.47328492708334,49.0,82.0
626,128.05523541666668,130.483007125,42.0,101.0
627,130.05523041666666,130.53717365625002,58.0,118.0
628,130.05523041666666,130.55522916666666,61.0,115.0
629,130.05523041666666,130.55522916666666,66.0,106.0
630,130.38856291666667,130.58995130208334,54.0,91.0
631,130.72189541666668,131.16772763541667,63.0,101.0
632,130.72189541666668,131.17328317708333,59.0,96.0
633,130.72189541666668,131.1746720625,54.0,99.0
634,131.38856041666668,131.60244877083335,54.0,109.0
635,131.38856041666668,131.62050428125002,59.0,106.0
636,131.38856041666668,131.63022647916668,63.0,106.0
637,130.72189541666668,131.78300387500002,47.0,104.0
638,132.05522541666667,132.40661342708333,61.0,106.0
639,132.05522541666667,132.44966887500001,65.0,107.0
640,132.05522541666667,132.46216884375002,56.0,106.0
641,132.05522541666667,132.85661230208333,49.0,101.0
642,132.72189041666667,132.92744545833335,56.0,106.0
643,132.72189041666667,133.04688960416667,61.0,112.0
644,132.72189041666667,133.08716728125,65.0,117.0
645,133.38855541666666,133.80244327083335,61.0,104.0
646,133.38855541666666,133.83994317708334,58.0,99.0
647,133.38855541666666,133.84688760416668,65.0,101.0
648,133.72188791666667,133.99549834375,53.0,55.0
649,133.38855541666666,134.07744258333335,46.0,99.0
650,134.05522041666669,134.22883109375002,58.0,101.0
651,134.05522041666669,134.39549734375,61.0,109.0
652,134.05522041666669,134.39549734375,65.0,113.0
653,134.38855291666667,134.516330375,58.0,74.0
654,134.72188541666668,135.09410670833333,54.0,104.0
655,134.72188541666668,135.19966200000002,51.0,106.0
656,135.05521791666666,135.41077258333334,46.0,59.0
657,135.38855041666667,135.49132793750002,51.0,94.0
658,134.72188541666668,135.49549459375,39.0,104.0
659,135.38855041666667,135.73299400000002,54.0,106.0
660,135.38855041666667,135.75382728125,58.0,106.0
661,136.05521541666667,136.49826986458334,54.0,94.0
662,136.05521541666667,136.52326980208335,59.0,104.0
663,136.05521541666667,136.82049128125,47.0,91.0
664,136.72188041666666,136.84688010416667,54.0,106.0
665,136.72188041666666,137.05104626041668,59.0,109.0
666,136.72188041666666,137.08160173958333,63.0,106.0
667,137.3885454166667,137.78993330208334,56.0,99.0
668,137.3885454166667,137.7996555,61.0,106.0
669,137.3885454166667,137.7996555,65.0,101.0
670,138.05521041666668,138.20521004166667,56.0,104.0
671,137.3885454166667,138.27326542708335,49.0,106.0
672,138.05521041666668,138.41354285416668,65.0,117.0
673,138.05521041666668,138.42048728125002,61.0,106.0
674,138.38854291666667,138.49826486458335,56.0,87.0
675,138.72187541666668,139.16215209375,58.0,101.0
676,138.72187541666668,139.19687422916667,54.0,96.0
677,139.05520791666666,139.4913179375,49.0,87.0
678,139.38854041666667,139.6413175625,61.0,112.0
679,139.38854041666667,139.66215084375,58.0,112.0
680,139.38854041666667,139.66909527083334,54.0,106.0
681,139.72187291666668,140.12048303125002,49.0,78.0
682,140.05520541666667,140.32187141666668,58.0,112.0
683,140.05520541666667,140.37048240625,61.0,115.0
684,140.38853791666668,141.13992492708334,49.0,82.0
685,138.72187541666668,141.149647125,42.0,101.0
686,140.72187041666666,141.20381365625002,58.0,118.0
687,140.72187041666666,141.22186916666666,61.0,115.0
688,140.72187041666666,141.22186916666666,66.0,106.0
689,141.05520291666667,141.25659130208334,54.0,91.0
690,141.38853541666668,141.83436763541667,63.0,101.0
691,141.38853541666668,141.83992317708334,59.0,96.0
692,141.38853541666668,141.8413120625,54.0,99.0
693,142.05520041666668,142.26908877083335,54.0,109.0
694,142.05520041666668,142.28714428125,59.0,106.0
695,142.05520041666668,142.29686647916668,63.0,106.0
696,141.38853541666668,142.44964387500002,47.0,104.0
697,142.72186541666667,143.07325342708333,61.0,106.0
698,142.72186541666667,143.11630887500002,65.0,107.0
699,142.72186541666667,143.12880884375,56.0,106.0
700,142.72186541666667,143.52325230208334,49.0,101.0
701,143.38853041666667,143.59408545833335,56.0,106.0
702,143.38853041666667,143.71352960416667,61.0,112.0
703,143.38853041666667,143.75380728125,65.0,117.0
704,144.05519541666666,144.46908327083335,61.0,104.0
705,144.05519541666666,144.50658317708334,58.0,99.0
706,144.05519541666666,144.51352760416668,65.0,101.0
707,144.38852791666667,144.66213834375,53.0,55.0
708,144.05519541666666,144.74408258333335,46.0,99.0
709,144.7218604166667,144.89547109375002,58.0,101.0
710,144.7218604166667,145.06213734375,61.0,109.0
711,144.7218604166667,145.06213734375,65.0,113.0
712,145.05519291666667,145.182970375,58.0,74.0
713,145.38852541666668,145.76074670833333,54.0,104.0
714,145.38852541666668,145.86630200000002,51.0,106.0
715,145.72185791666666,146.07741258333334,46.0,59.0
716,146.05519041666668,146.15796793750002,51.0,94.0
717,145.38852541666668,146.16213459375,39.0,104.0
718,146.05519041666668,146.39963400000002,54.0,106.0
719,146.05519041666668,146.42046728125,58.0,106.0
720,146.72185541666667,147.16490986458334,54.0,94.0
721,146.72185541666667,147.18990980208335,59.0,104.0
722,146.72185541666667,147.48713128125002,47.0,91.0
723,147.38852041666667,147.51352010416667,54.0,106.0
724,147.38852041666667,147.71768626041668,59.0,109.0
725,147.38852041666667,147.74824173958334,63.0,106.0
726,148.0551854166667,148.45657330208334,56.0,99.0
727,148.0551854166667,148.4662955,61.0,106.0
728,148.0551854166667,148.4662955,65.0,101.0
729,148.72185041666668,148.87185004166668,56.0,104.0
730,148.0551854166667,148.93990542708335,49.0,106.0
731,148.72185041666668,149.08018285416668,65.0,117.0
732,148.72185041666668,149.08712728125002,61.0,106.0
733,149.05518291666667,149.16490486458335,56.0,87.0
734,149.38851541666668,149.82879209375,58.0,101.0
735,149.38851541666668,149.86351422916667,54.0,96.0
736,149.72184791666666,150.15795793750002,49.0,87.0
737,150.05518041666667,150.3079575625,61.0,112.0
738,150.05518041666667,150.32879084375,58.0,112.0
739,150.05518041666667,150.33573527083334,54.0,106.0
740,150.38851291666668,150.78712303125002,49.0,78.0
741,150.72184541666667,150.98851141666668,58.0,112.0
742,150.72184541666667,151.03712240625,61.0,115.0
743,151.05517791666668,151.80656492708334,49.0,82.0
744,149.38851541666668,151.816287125,42.0,101.0
745,151.38851041666666,151.87045365625002,58.0,118.0
746,151.38851041666666,151.88850916666667,61.0,115.0
747,151.38851041666666,151.88850916666667,66.0,106.0
748,151.72184291666667,151.92323130208334,54.0,91.0
749,152.05517541666669,152.41211896875,59.0,90.0
750,152.05517541666669,152.49267432291668,63.0,92.0
751,152.05517541666669,152.81906239583333,47.0,109.0
752,152.5551741666667,152.83711790625,59.0,109.0
753,152.38850791666667,152.85378453125,54.0,76.0
754,152.72184041666668,152.93433988541668,66.0,102.0
755,153.05517291666666,153.77183779166668,65.0,105.0
756,153.05517291666666,153.81628212500001,61.0,84.0
757,153.7218379166667,154.12322580208334,56.0,97.0
758,153.38850541666667,154.18017010416668,49.0,111.0
759,154.05517041666667,154.20933669791668,61.0,111.0
760,154.05517041666667,154.28155873958335,65.0,111.0
761,154.05517041666667,154.43155836458334,68.0,111.0
762,154.38850291666668,154.48850266666668,61.0,97.0
763,154.72183541666666,155.03711240625,58.0,111.0
764,154.72183541666666,155.0579456875,61.0,111.0
765,155.22183416666667,155.33572277083334,58.0,102.0
766,155.3885004166667,155.48850016666668,61.0,105.0
767,155.3885004166667,155.5329445,58.0,111.0
768,155.3885004166667,155.54822223958334,65.0,111.0
769,155.05516791666668,155.55377778125,53.0,80.0
770,154.72183541666666,155.61766651041668,46.0,102.0
771,155.72183291666667,156.41072008333333,58.0,111.0
772,155.72183291666667,156.42044228125002,63.0,108.0
773,156.72183041666668,156.89266332291666,58.0,117.0
774,156.38849791666667,157.05377403125001,54.0,94.0
775,156.05516541666668,157.08016285416667,51.0,100.0
776,156.72183041666668,157.08432951041667,63.0,114.0
777,156.72183041666668,157.12321830208333,66.0,108.0
778,157.0551629166667,157.1579404375,58.0,102.0
779,157.38849541666667,157.74821673958334,59.0,96.0
780,157.38849541666667,157.76071670833335,63.0,102.0
781,157.88849416666667,158.01488273958333,59.0,99.0
782,157.38849541666667,158.13710465625002,47.0,109.0
783,157.72182791666668,158.14821573958335,54.0,76.0
784,158.05516041666667,158.16349347916668,63.0,92.0
785,158.05516041666667,158.18154898958335,59.0,79.0
786,158.05516041666667,158.2079378125,66.0,108.0
787,158.38849291666668,159.10099113541668,65.0,108.0
788,158.38849291666668,159.12599107291666,61.0,94.0
789,159.05515791666667,159.48987905208335,56.0,66.0
790,159.38849041666668,159.55932332291667,61.0,117.0
791,158.72182541666666,159.60237877083335,49.0,108.0
792,159.38849041666668,159.79682272916668,68.0,111.0
793,159.38849041666668,159.80654492708334,65.0,111.0
794,159.72182291666667,159.92321130208333,61.0,100.0
795,160.05515541666668,160.45654330208333,58.0,100.0
796,160.05515541666668,160.51765426041666,54.0,92.0
797,160.72182041666667,160.77598694791666,54.0,82.0
798,160.38848791666666,160.81487573958333,49.0,66.0
799,160.72182041666667,161.1079305625,58.0,108.0
800,160.72182041666667,161.12598607291667,61.0,102.0
801,161.22181916666668,161.36070770833334,54.0,89.0
802,161.05515291666669,161.52876284375,49.0,73.0
803,161.38848541666667,161.77876221875002,66.0,102.0
804,161.38848541666667,161.81487323958333,61.0,102.0
805,161.38848541666667,161.82459543750002,58.0,111.0
806,161.38848541666667,161.82876209375002,54.0,89.0
807,161.72181791666668,162.1745945625,49.0,84.0
808,162.05515041666666,162.37737183333334,54.0,117.0
809,160.05515541666668,162.48570489583335,42.0,97.0
810,162.05515041666666,162.54403808333333,58.0,111.0
811,162.38848291666667,162.59820461458335,49.0,92.0
812,162.55514916666667,162.7218154166667,54.0,89.0
813,162.7218154166667,163.07875896875,59.0,90.0
814,162.7218154166667,163.15931432291669,63.0,92.0
815,162.7218154166667,163.48570239583333,47.0,109.0
816,163.2218141666667,163.50375790625,59.0,109.0
817,163.05514791666667,163.52042453125,54.0,76.0
818,163.38848041666668,163.60097988541668,66.0,102.0
819,163.72181291666666,164.43847779166668,65.0,105.0
820,163.72181291666666,164.48292212500002,61.0,84.0
821,164.3884779166667,164.78986580208334,56.0,97.0
822,164.05514541666668,164.84681010416668,49.0,111.0
823,164.72181041666667,164.87597669791668,61.0,111.0
824,164.72181041666667,164.94819873958335,65.0,111.0
825,164.72181041666667,165.09819836458334,68.0,111.0
826,165.05514291666668,165.15514266666668,61.0,97.0
827,165.38847541666667,165.70375240625,58.0,111.0
828,165.38847541666667,165.7245856875,61.0,111.0
829,165.88847416666667,166.00236277083334,58.0,102.0
830,166.0551404166667,166.15514016666668,61.0,105.0
831,166.0551404166667,166.19958450000001,58.0,111.0
832,166.0551404166667,166.21486223958334,65.0,111.0
833,165.72180791666668,166.22041778125,53.0,80.0
834,165.38847541666667,166.28430651041668,46.0,102.0
835,166.38847291666667,167.07736008333333,58.0,111.0
836,166.38847291666667,167.08708228125002,63.0,108.0
837,167.38847041666668,167.55930332291666,58.0,117.0
838,167.05513791666667,167.72041403125002,54.0,94.0
839,166.72180541666668,167.74680285416667,51.0,100.0
840,167.38847041666668,167.75096951041667,63.0,114.0
841,167.38847041666668,167.78985830208333,66.0,108.0
842,167.7218029166667,167.8245804375,58.0,102.0
843,168.05513541666667,168.41485673958334,59.0,96.0
844,168.05513541666667,168.42735670833335,63.0,102.0
845,168.55513416666668,168.68152273958333,59.0,99.0
846,168.05513541666667,168.80374465625002,47.0,109.0
847,168.38846791666668,168.81485573958335,54.0,76.0
848,168.72180041666667,168.83013347916668,63.0,92.0
849,168.72180041666667,168.84818898958335,59.0,79.0
850,168.72180041666667,168.8745778125,66.0,108.0
851,169.05513291666668,169.76763113541668,65.0,108.0
852,169.05513291666668,169.79263107291666,61.0,94.0
853,169.72179791666667,170.15651905208335,56.0,66.0
854,170.05513041666669,170.22596332291667,61.0,117.0
855,169.38846541666666,170.26901877083336,49.0,108.0
856,170.05513041666669,170.46346272916668,68.0,111.0
857,170.05513041666669,170.47318492708334,65.0,111.0
858,170.38846291666667,170.58985130208333,61.0,100.0
859,170.72179541666668,171.12318330208333,58.0,100.0
860,170.72179541666668,171.18429426041666,54.0,92.0
861,171.38846041666667,171.44262694791666,54.0,82.0
862,171.05512791666666,171.48151573958333,49.0,66.0
863,171.38846041666667,171.7745705625,58.0,108.0
864,171.38846041666667,171.79262607291668,61.0,102.0
865,171.88845916666668,172.02734770833334,54.0,89.0
866,171.7217929166667,172.19540284375,49.0,73.0
867,172.05512541666667,172.44540221875002,66.0,102.0
868,172.05512541666667,172.48151323958334,61.0,102.0
869,172.05512541666667,172.4912354375,58.0,111.0
870,172.05512541666667,172.49540209375002,54.0,89.0
871,172.38845791666668,172.8412345625,49.0,84.0
872,172.72179041666666,173.04401183333334,54.0,117.0
873,170.72179541666668,173.15234489583335,42.0,97.0
874,172.72179041666666,173.21067808333333,58.0,111.0
875,173.05512291666668,173.26484461458335,49.0,92.0
876,173.22178916666667,173.3884554166667,54.0,89.0
877,173.3884554166667,173.74539896875,59.0,90.0
878,173.3884554166667,173.8259543229167,63.0,92.0
879,173.3884554166667,174.15234239583333,47.0,109.0
880,173.88845416666666,174.17039790625,59.0,109.0
881,173.72178791666667,174.18706453125,54.0,76.0
882,174.05512041666668,174.26761988541668,66.0,102.0
883,174.38845291666667,175.1051177916667,65.0,105.0
884,174.38845291666667,175.14956212500002,61.0,84.0
885,175.0551179166667,175.45650580208334,56.0,97.0
886,174.72178541666668,175.51345010416668,49.0,111.0
887,175.38845041666667,175.54261669791669,61.0,111.0
888,175.38845041666667,175.61483873958335,65.0,111.0
889,175.38845041666667,175.76483836458334,68.0,111.0
890,175.72178291666668,175.82178266666668,61.0,97.0
891,176.05511541666667,176.37039240625,58.0,111.0
892,176.05511541666667,176.3912256875,61.0,111.0
893,176.55511416666667,176.66900277083334,58.0,102.0
894,176.7217804166667,176.82178016666668,61.0,105.0
895,176.7217804166667,176.86622450000002,58.0,111.0
896,176.7217804166667,176.88150223958334,65.0,111.0
897,176.38844791666668,176.88705778125,53.0,80.0
898,176.05511541666667,176.95094651041668,46.0,102.0
899,177.05511291666667,177.74400008333333,58.0,111.0
900,177.05511291666667,177.75372228125002,63.0,108.0
901,178.05511041666668,178.22594332291666,58.0,117.0
902,177.72177791666667,178.38705403125002,54.0,94.0
903,177.38844541666668,178.41344285416668,51.0,100.0
904,178.05511041666668,178.41760951041667,63.0,114.0
905,178.05511041666668,178.45649830208333,66.0,108.0
906,178.38844291666666,178.4912204375,58.0,102.0
907,178.72177541666667,179.08149673958334,59.0,96.0
908,178.72177541666667,179.09399670833335,63.0,102.0
909,179.22177416666668,179.34816273958333,59.0,99.0
910,178.72177541666667,179.47038465625002,47.0,109.0
911,179.05510791666669,179.48149573958335,54.0,76.0
912,179.38844041666667,179.49677347916668,63.0,92.0
913,179.38844041666667,179.51482898958335,59.0,79.0
914,179.38844041666667,179.5412178125,66.0,108.0
915,179.72177291666668,180.43427113541668,65.0,108.0
916,179.72177291666668,180.45927107291666,61.0,94.0
917,180.38843791666667,180.82315905208335,56.0,66.0
918,180.7217704166667,180.89260332291667,61.0,117.0
919,180.05510541666666,180.93565877083336,49.0,108.0
920,180.7217704166667,181.13010272916668,68.0,111.0
921,180.7217704166667,181.13982492708334,65.0,111.0
922,181.05510291666667,181.25649130208333,61.0,100.0
923,181.38843541666668,181.78982330208333,58.0,100.0
924,181.38843541666668,181.85093426041666,54.0,92.0
925,182.05510041666668,182.10926694791667,54.0,82.0
926,181.72176791666666,182.14815573958333,49.0,66.0
927,182.05510041666668,182.4412105625,58.0,108.0
928,182.05510041666668,182.45926607291668,61.0,102.0
929,182.55509916666668,182.69398770833334,54.0,89.0
930,182.3884329166667,182.86204284375,49.0,73.0
931,182.72176541666667,183.11204221875002,66.0,102.0
932,182.72176541666667,183.14815323958334,61.0,102.0
933,182.72176541666667,183.1578754375,58.0,111.0
934,182.72176541666667,183.16204209375002,54.0,89.0
935,183.05509791666668,183.5078745625,49.0,84.0
936,183.38843041666667,183.71065183333334,54.0,117.0
937,181.38843541666668,183.81898489583335,42.0,97.0
938,183.38843041666667,183.87731808333334,58.0,111.0
939,183.72176291666668,183.93148461458335,49.0,92.0
940,183.88842916666667,184.0550954166667,54.0,89.0
941,184.0550954166667,184.44120556250002,59.0,104.0
942,184.0550954166667,184.57314967708334,63.0,109.0
943,184.38842791666667,184.7175937604167,54.0,71.0
944,184.55509416666666,184.7342603854167,59.0,107.0
945,184.0550954166667,184.73564927083333,47.0,113.0
946,184.72176041666668,184.8634267291667,66.0,109.0
947,185.05509291666667,185.89536859375002,65.0,104.0
948,185.05509291666667,185.91342410416667,61.0,82.0
949,185.7217579166667,186.1259235729167,56.0,99.0
950,185.05509291666667,186.14814573958336,49.0,104.0
951,186.05509041666667,186.19814561458335,65.0,115.0
952,186.05509041666667,186.1995345,68.0,109.0
953,186.05509041666667,186.22592332291669,61.0,109.0
954,186.72175541666667,187.06897677083333,58.0,109.0
955,186.72175541666667,187.10508779166668,61.0,106.0
956,186.72175541666667,187.31758726041667,46.0,112.0
957,187.05508791666668,187.33147611458335,53.0,94.0
958,187.22175416666667,187.39953150000002,58.0,112.0
959,187.3884204166667,187.48008685416667,65.0,109.0
960,187.72175291666667,188.58008410416667,66.0,109.0
961,187.72175291666667,188.5911951875,63.0,104.0
962,188.38841791666667,188.75091701041669,58.0,109.0
963,187.72175291666667,188.77869471875002,51.0,109.0
964,188.72175041666668,188.85091676041668,66.0,115.0
965,188.72175041666668,188.85230564583335,70.0,104.0
966,188.72175041666668,188.86063895833334,63.0,109.0
967,189.38841541666667,189.76063670833335,59.0,110.0
968,189.38841541666667,189.8745253125,63.0,112.0
969,189.38841541666667,189.92869184375002,47.0,117.0
970,189.7217479166667,189.93841404166668,54.0,91.0
971,189.88841416666668,190.08008035416668,59.0,110.0
972,190.05508041666667,190.16341347916668,63.0,115.0
973,190.38841291666668,191.26757738541667,61.0,96.0
974,190.38841291666668,191.2745218125,65.0,112.0
975,190.38841291666668,191.52313230208335,49.0,106.0
976,191.05507791666668,191.53146561458334,56.0,101.0
977,191.3884104166667,191.55924332291667,65.0,109.0
978,191.3884104166667,191.56618775,61.0,109.0
979,192.06618650000001,193.79257107291667,49.0,80.0
980,191.91757576041667,193.816182125,42.0,104.0
981,192.21896389583335,193.916181875,66.0,73.0
982,192.15229739583333,193.9300707291667,61.0,87.0
983,192.0911864375,193.93423738541668,58.0,104.0
984,192.0175755104167,193.94395958333334,54.0,96.0
