,start,end,pitch,velocity
0,38.2,38.40208333333333,74.0,112.0
1,38.53333333333333,38.7125,74.0,96.0
2,38.86666666666667,39.052083333333336,74.0,102.0
3,39.2,39.47291666666666,74.0,122.0
4,39.53333333333333,39.83958333333333,69.0,79.0
5,39.86666666666667,40.22083333333333,73.0,107.0
6,40.2,41.85625,71.0,122.0
7,41.86666666666667,42.21041666666667,64.0,102.0
8,42.2,42.74583333333333,76.0,117.0
9,42.86666666666667,43.0875,73.0,117.0
10,43.2,43.4875,73.0,122.0
11,43.53333333333333,43.645833333333336,69.0,86.0
12,43.86666666666667,44.166666666666664,68.0,112.0
13,44.2,45.72708333333333,66.0,95.0
14,46.2,46.425,74.0,127.0
15,46.53333333333333,46.7125,74.0,112.0
16,46.86666666666667,46.96875,74.0,117.0
17,47.2,47.47083333333333,74.0,122.0
18,47.53333333333333,47.6125,69.0,107.0
19,47.86666666666667,48.19166666666666,66.0,96.0
20,48.2,49.577083333333334,71.0,99.0
21,49.86666666666667,50.204166666666666,64.0,93.0
22,50.53333333333333,50.64375,73.0,117.0
23,50.2,50.729166666666664,76.0,122.0
24,50.86666666666667,50.99583333333333,73.0,112.0
25,51.2,51.514583333333334,73.0,127.0
26,51.53333333333333,51.87916666666666,71.0,93.0
27,51.86666666666667,51.9625,73.0,117.0
28,52.199999999999996,53.981249999999996,73.0,127.0
29,54.199999999999996,54.46041666666667,74.0,127.0
30,54.53333333333333,54.78125,74.0,95.0
31,54.86666666666667,55.077083333333334,74.0,107.0
32,55.199999999999996,55.46041666666667,74.0,102.0
33,55.53333333333333,55.822916666666664,69.0,96.0
34,55.86666666666667,56.177083333333336,66.0,112.0
35,56.199999999999996,56.96041666666667,71.0,112.0
36,57.86666666666667,58.09166666666667,64.0,86.0
37,58.199999999999996,58.577083333333334,76.0,112.0
38,58.53333333333333,58.84791666666666,78.0,127.0
39,58.86666666666667,59.0375,76.0,127.0
40,59.199999999999996,59.43333333333333,76.0,127.0
41,59.53333333333333,59.864583333333336,73.0,127.0
42,59.86666666666667,60.22708333333333,71.0,117.0
43,60.199999999999996,61.262499999999996,73.0,127.0
44,61.86666666666667,62.168749999999996,66.0,112.0
45,62.199999999999996,62.391666666666666,74.0,112.0
46,62.53333333333333,62.74791666666667,74.0,93.0
47,62.86666666666667,63.12083333333333,74.0,90.0
48,63.199999999999996,63.42916666666667,74.0,122.0
49,63.53333333333333,63.85,69.0,99.0
50,63.86666666666667,64.19583333333333,73.0,107.0
51,64.2,65.15416666666667,71.0,112.0
52,65.86666666666666,66.14791666666666,64.0,96.0
53,66.2,66.45208333333333,74.0,127.0
54,66.53333333333333,66.99375,74.0,127.0
55,67.2,67.52291666666666,78.0,127.0
56,67.53333333333333,67.8375,76.0,122.0
57,67.86666666666666,68.19791666666667,73.0,100.0
58,68.2,69.79583333333333,76.0,122.0
59,69.86666666666666,70.22708333333333,78.0,127.0
60,70.2,71.23333333333333,80.0,122.0
61,71.2,71.5125,66.0,127.0
62,71.53333333333333,71.9,69.0,96.0
63,71.86666666666666,72.14375,73.0,127.0
64,72.2,72.49583333333334,78.0,127.0
65,72.53333333333333,72.81041666666667,78.0,127.0
66,72.86666666666666,73.13125,76.0,100.0
67,73.2,73.55833333333334,78.0,127.0
68,73.86666666666666,74.19375,80.0,122.0
69,74.2,74.40416666666667,73.0,127.0
70,75.2,75.43541666666667,73.0,127.0
71,75.53333333333333,75.79583333333333,76.0,122.0
72,75.86666666666666,76.07708333333333,73.0,122.0
73,76.2,76.70625,78.0,127.0
74,76.86666666666666,77.10416666666667,76.0,112.0
75,77.2,77.49791666666667,71.0,117.0
76,77.53333333333333,77.82916666666667,73.0,127.0
77,77.86666666666666,78.175,76.0,107.0
78,78.2,78.97291666666666,73.0,127.0
79,79.2,79.39791666666666,73.0,127.0
80,79.53333333333333,79.83958333333334,71.0,127.0
81,79.86666666666666,80.22916666666667,69.0,112.0
82,80.2,80.475,73.0,127.0
83,80.53333333333333,80.6875,71.0,99.0
84,80.86666666666666,81.03958333333333,71.0,112.0
85,81.2,81.38541666666667,71.0,122.0
86,81.53333333333333,81.68541666666667,69.0,122.0
87,81.53333333333333,81.73333333333333,71.0,117.0
88,81.86666666666666,82.08541666666666,66.0,127.0
89,82.2,82.8625,71.0,127.0
90,83.2,83.40416666666667,78.0,127.0
91,83.53333333333333,83.78541666666666,76.0,117.0
92,83.86666666666666,84.125,73.0,127.0
93,84.2,84.40625,78.0,127.0
94,84.53333333333333,84.73125,76.0,112.0
95,84.86666666666666,85.05833333333334,73.0,127.0
96,85.2,85.43125,78.0,127.0
97,85.53333333333333,85.80208333333333,76.0,102.0
98,85.86666666666666,86.13958333333333,73.0,122.0
99,86.2,87.07708333333333,76.0,127.0
100,87.2,87.50833333333333,81.0,127.0
101,87.53333333333333,87.81458333333333,80.0,122.0
102,87.86666666666666,88.17916666666666,81.0,97.0
103,88.2,88.42083333333333,78.0,127.0
104,88.53333333333333,88.8375,78.0,127.0
105,88.86666666666666,89.16875,76.0,96.0
106,89.2,89.60416666666667,78.0,127.0
107,89.86666666666666,90.15,80.0,122.0
108,90.2,90.87083333333334,73.0,127.0
109,91.2,91.42708333333333,73.0,127.0
110,91.53333333333333,91.78333333333333,76.0,117.0
111,91.86666666666666,92.175,73.0,127.0
112,92.2,92.49791666666667,78.0,127.0
113,92.53333333333333,92.72708333333333,76.0,112.0
114,92.86666666666666,93.12916666666666,76.0,112.0
115,93.2,93.52708333333334,71.0,112.0
116,93.53333333333333,93.86041666666667,73.0,100.0
117,93.86666666666666,94.17291666666667,76.0,99.0
118,94.2,95.14375,73.0,127.0
119,95.2,95.41875,73.0,127.0
120,95.53333333333333,95.83541666666666,71.0,122.0
121,95.86666666666666,96.14375,69.0,97.0
122,96.2,96.475,73.0,127.0
123,96.53333333333333,96.78125,71.0,117.0
124,96.86666666666666,97.15416666666667,69.0,102.0
125,97.2,97.43125,71.0,127.0
126,97.53333333333333,97.75625,71.0,117.0
127,97.86666666666666,98.1125,73.0,127.0
128,98.2,98.88958333333333,71.0,127.0
129,99.2,99.48958333333333,71.0,127.0
130,99.53333333333333,99.80833333333334,69.0,122.0
131,99.86666666666666,100.04583333333333,66.0,127.0
132,100.2,100.4,76.0,127.0
133,100.53333333333333,100.67916666666666,76.0,127.0
134,100.86666666666666,101.07291666666667,76.0,122.0
135,101.2,101.37916666666666,76.0,122.0
136,101.86666666666666,102.14791666666666,78.0,127.0
137,102.2,102.59166666666667,80.0,127.0
138,103.2,103.73125,68.0,127.0
139,103.86666666666666,104.19791666666667,69.0,100.0
140,104.2,106.03541666666666,66.0,122.0
141,140.2,140.40208333333334,74.0,112.0
142,140.53333333333333,140.7125,74.0,96.0
143,140.86666666666667,141.05208333333334,74.0,102.0
144,141.2,141.47291666666666,74.0,122.0
145,141.53333333333333,141.83958333333334,69.0,79.0
146,141.86666666666667,142.22083333333333,73.0,107.0
147,142.2,143.85625,71.0,122.0
148,143.86666666666667,144.21041666666667,64.0,102.0
149,144.2,144.74583333333334,76.0,117.0
150,144.86666666666667,145.0875,73.0,117.0
151,145.2,145.4875,73.0,122.0
152,145.53333333333333,145.64583333333334,69.0,86.0
153,145.86666666666667,146.16666666666666,68.0,112.0
154,146.2,147.72708333333333,66.0,95.0
155,148.2,148.425,74.0,127.0
156,148.53333333333333,148.7125,74.0,112.0
157,148.86666666666667,148.96875,74.0,117.0
158,149.2,149.47083333333333,74.0,122.0
159,149.53333333333333,149.6125,69.0,107.0
160,149.86666666666667,150.19166666666666,66.0,96.0
161,150.2,151.57708333333332,71.0,99.0
162,151.86666666666667,152.20416666666665,64.0,93.0
163,152.53333333333333,152.64375,73.0,117.0
164,152.2,152.72916666666666,76.0,122.0
165,152.86666666666667,152.99583333333334,73.0,112.0
166,153.2,153.51458333333332,73.0,127.0
167,153.53333333333333,153.87916666666666,71.0,93.0
168,153.86666666666667,153.9625,73.0,117.0
169,154.2,155.98125,73.0,127.0
170,156.2,156.46041666666667,74.0,127.0
171,156.53333333333333,156.78125,74.0,95.0
172,156.86666666666667,157.07708333333332,74.0,107.0
173,157.2,157.46041666666667,74.0,102.0
174,157.53333333333333,157.82291666666666,69.0,96.0
175,157.86666666666667,158.17708333333334,66.0,112.0
176,158.2,158.96041666666667,71.0,112.0
177,159.86666666666667,160.09166666666667,64.0,86.0
178,160.2,160.57708333333332,76.0,112.0
179,160.53333333333333,160.84791666666666,78.0,127.0
180,160.86666666666667,161.0375,76.0,127.0
181,161.2,161.43333333333334,76.0,127.0
182,161.53333333333333,161.86458333333334,73.0,127.0
183,161.86666666666667,162.22708333333333,71.0,117.0
184,162.2,163.2625,73.0,127.0
185,163.86666666666667,164.16875,66.0,112.0
186,164.2,164.39166666666665,74.0,112.0
187,164.53333333333333,164.74791666666667,74.0,93.0
188,164.86666666666667,165.12083333333334,74.0,90.0
189,165.2,165.42916666666667,74.0,122.0
190,165.53333333333333,165.85,69.0,99.0
191,165.86666666666667,166.19583333333333,73.0,107.0
192,166.2,167.15416666666667,71.0,112.0
193,167.86666666666667,168.14791666666667,64.0,96.0
194,168.2,168.45208333333332,74.0,127.0
195,168.53333333333333,168.99375,74.0,127.0
196,169.2,169.52291666666667,78.0,127.0
197,169.53333333333333,169.8375,76.0,122.0
198,169.86666666666667,170.19791666666666,73.0,100.0
199,170.2,171.79583333333332,76.0,122.0
200,171.86666666666667,172.22708333333333,78.0,127.0
201,172.2,173.23333333333332,80.0,122.0
202,173.2,173.5125,66.0,127.0
203,173.53333333333333,173.9,69.0,96.0
204,173.86666666666667,174.14375,73.0,127.0
205,174.2,174.49583333333334,78.0,127.0
206,174.53333333333333,174.81041666666667,78.0,127.0
207,174.86666666666667,175.13125,76.0,100.0
208,175.2,175.55833333333334,78.0,127.0
209,175.86666666666667,176.19375,80.0,122.0
210,176.2,176.40416666666667,73.0,127.0
211,177.2,177.43541666666667,73.0,127.0
212,177.53333333333333,177.79583333333332,76.0,122.0
213,177.86666666666667,178.07708333333332,73.0,122.0
214,178.2,178.70625,78.0,127.0
215,178.86666666666667,179.10416666666666,76.0,112.0
216,179.2,179.49791666666667,71.0,117.0
217,179.53333333333333,179.82916666666665,73.0,127.0
218,179.86666666666667,180.175,76.0,107.0
219,180.2,180.97291666666666,73.0,127.0
220,181.2,181.39791666666667,73.0,127.0
221,181.53333333333333,181.83958333333334,71.0,127.0
222,181.86666666666667,182.22916666666666,69.0,112.0
223,182.2,182.475,73.0,127.0
224,182.53333333333333,182.6875,71.0,99.0
225,182.86666666666667,183.03958333333333,71.0,112.0
226,183.2,183.38541666666666,71.0,122.0
227,183.53333333333333,183.68541666666667,69.0,122.0
228,183.53333333333333,183.73333333333332,71.0,117.0
229,183.86666666666667,184.08541666666667,66.0,127.0
230,184.2,184.8625,71.0,127.0
231,185.2,185.40416666666667,78.0,127.0
232,185.53333333333333,185.78541666666666,76.0,117.0
233,185.86666666666667,186.125,73.0,127.0
234,186.2,186.40625,78.0,127.0
235,186.53333333333333,186.73125,76.0,112.0
236,186.86666666666667,187.05833333333334,73.0,127.0
237,187.2,187.43125,78.0,127.0
238,187.53333333333333,187.80208333333334,76.0,102.0
239,187.86666666666667,188.13958333333332,73.0,122.0
240,188.2,189.07708333333332,76.0,127.0
241,189.2,189.50833333333333,81.0,127.0
242,189.53333333333333,189.81458333333333,80.0,122.0
243,189.86666666666667,190.17916666666667,81.0,97.0
244,190.2,190.42083333333332,78.0,127.0
245,190.53333333333333,190.8375,78.0,127.0
246,190.86666666666667,191.16875,76.0,96.0
247,191.2,191.60416666666666,78.0,127.0
248,191.86666666666667,192.15,80.0,122.0
249,192.2,192.87083333333334,73.0,127.0
250,193.2,193.42708333333334,73.0,127.0
251,193.53333333333333,193.78333333333333,76.0,117.0
252,193.86666666666667,194.175,73.0,127.0
253,194.2,194.49791666666667,78.0,127.0
254,194.53333333333333,194.72708333333333,76.0,112.0
255,194.86666666666667,195.12916666666666,76.0,112.0
256,195.2,195.52708333333334,71.0,112.0
257,195.53333333333333,195.86041666666665,73.0,100.0
258,195.86666666666667,196.17291666666665,76.0,99.0
259,196.2,197.14375,73.0,127.0
260,197.2,197.41875,73.0,127.0
261,197.53333333333333,197.83541666666667,71.0,122.0
262,197.86666666666667,198.14375,69.0,97.0
263,198.2,198.475,73.0,127.0
264,198.53333333333333,198.78125,71.0,117.0
265,198.86666666666667,199.15416666666667,69.0,102.0
266,199.2,199.43125,71.0,127.0
267,199.53333333333333,199.75625,71.0,117.0
268,199.86666666666667,200.1125,73.0,127.0
269,200.2,200.88958333333332,71.0,127.0
270,201.2,201.48958333333334,71.0,127.0
271,201.53333333333333,201.80833333333334,69.0,122.0
272,201.86666666666667,202.04583333333332,66.0,127.0
273,202.2,202.4,76.0,127.0
274,202.53333333333333,202.67916666666667,76.0,127.0
275,202.86666666666667,203.07291666666666,76.0,122.0
276,203.2,203.37916666666666,76.0,122.0
277,203.86666666666667,204.14791666666667,78.0,127.0
278,204.2,204.59166666666667,80.0,127.0
279,205.2,205.73125,68.0,127.0
280,205.86666666666667,206.19791666666666,69.0,100.0
281,206.2,208.03541666666666,66.0,122.0
282,209.2,209.5125,66.0,127.0
283,209.53333333333333,209.9,69.0,96.0
284,209.86666666666667,210.14374999999998,73.0,127.0
285,210.2,210.49583333333334,78.0,127.0
286,210.53333333333333,210.81041666666667,78.0,127.0
287,210.86666666666667,211.13125,76.0,100.0
288,211.2,211.55833333333334,78.0,127.0
289,211.86666666666667,212.19375,80.0,122.0
290,212.2,212.40416666666667,73.0,127.0
291,213.2,213.43541666666667,73.0,127.0
292,213.53333333333333,213.79583333333332,76.0,122.0
293,213.86666666666667,214.07708333333332,73.0,122.0
294,214.2,214.70624999999998,78.0,127.0
295,214.86666666666667,215.10416666666666,76.0,112.0
296,215.2,215.49791666666667,71.0,117.0
297,215.53333333333333,215.82916666666665,73.0,127.0
298,215.86666666666667,216.17499999999998,76.0,107.0
299,216.2,216.97291666666666,73.0,127.0
300,217.2,217.39791666666667,73.0,127.0
301,217.53333333333333,217.83958333333334,71.0,127.0
302,217.86666666666667,218.22916666666666,69.0,112.0
303,218.2,218.475,73.0,127.0
304,218.53333333333333,218.6875,71.0,99.0
305,218.86666666666667,219.03958333333333,71.0,112.0
306,219.2,219.38541666666666,71.0,122.0
307,219.53333333333333,219.68541666666667,69.0,122.0
308,219.53333333333333,219.73333333333332,71.0,117.0
309,219.86666666666667,220.08541666666667,66.0,127.0
310,220.2,220.86249999999998,71.0,127.0
311,221.2,221.40416666666667,78.0,127.0
312,221.53333333333333,221.78541666666666,76.0,117.0
313,221.86666666666667,222.125,73.0,127.0
314,222.2,222.40625,78.0,127.0
315,222.53333333333333,222.73125,76.0,112.0
316,222.86666666666667,223.05833333333334,73.0,127.0
317,223.2,223.43125,78.0,127.0
318,223.53333333333333,223.80208333333334,76.0,102.0
319,223.86666666666667,224.13958333333332,73.0,122.0
320,224.2,225.07708333333332,76.0,127.0
321,225.2,225.50833333333333,81.0,127.0
322,225.53333333333333,225.81458333333333,80.0,122.0
323,225.86666666666667,226.17916666666667,81.0,97.0
324,226.2,226.42083333333332,78.0,127.0
325,226.53333333333333,226.8375,78.0,127.0
326,226.86666666666667,227.16875,76.0,96.0
327,227.2,227.60416666666666,78.0,127.0
328,227.86666666666667,228.15,80.0,122.0
329,228.2,228.87083333333334,73.0,127.0
330,229.2,229.42708333333334,73.0,127.0
331,229.53333333333333,229.78333333333333,76.0,117.0
332,229.86666666666667,230.17499999999998,73.0,127.0
333,230.2,230.49791666666667,78.0,127.0
334,230.53333333333333,230.72708333333333,76.0,112.0
335,230.86666666666667,231.12916666666666,76.0,112.0
336,231.2,231.52708333333334,71.0,112.0
337,231.53333333333333,231.86041666666665,73.0,100.0
338,231.86666666666667,232.17291666666665,76.0,99.0
339,232.2,233.14374999999998,73.0,127.0
340,233.2,233.41875,73.0,127.0
341,233.53333333333333,233.83541666666667,71.0,122.0
342,233.86666666666667,234.14374999999998,69.0,97.0
343,234.2,234.475,73.0,127.0
344,234.53333333333333,234.78125,71.0,117.0
345,234.86666666666667,235.15416666666667,69.0,102.0
346,235.2,235.43125,71.0,127.0
347,235.53333333333333,235.75625,71.0,117.0
348,235.86666666666667,236.11249999999998,73.0,127.0
349,236.2,236.88958333333332,71.0,127.0
350,237.2,237.48958333333334,71.0,127.0
351,237.53333333333333,237.80833333333334,69.0,122.0
352,237.86666666666667,238.04583333333332,66.0,127.0
353,238.2,238.4,76.0,127.0
354,238.53333333333333,238.67916666666667,76.0,127.0
355,238.86666666666667,239.07291666666666,76.0,122.0
356,239.2,239.37916666666666,76.0,122.0
357,239.86666666666667,240.14791666666667,78.0,127.0
358,240.2,240.59166666666667,80.0,127.0
359,241.2,241.73125,68.0,127.0
360,241.86666666666667,242.19791666666666,69.0,100.0
361,242.2,244.03541666666666,66.0,122.0
