,start,end,pitch,velocity
0,3.560416666666667,3.7729166666666667,52.0,76.0
1,3.7104166666666667,3.935416666666667,54.0,86.0
2,3.9375,4.30625,56.0,49.0
3,4.4375,4.8875,57.0,64.0
4,4.825,5.2125,56.0,84.0
5,2.04375,8.635416666666666,42.0,55.0
6,5.247916666666667,8.8125,61.0,24.0
7,10.283333333333333,10.716666666666667,59.0,61.0
8,10.672916666666666,10.99375,61.0,100.0
9,10.947916666666666,11.227083333333333,62.0,67.0
10,11.227083333333333,11.529166666666667,66.0,72.0
11,11.479166666666666,11.785416666666666,68.0,89.0
12,11.779166666666667,12.085416666666667,69.0,91.0
13,12.04375,12.31875,71.0,74.0
14,12.347916666666666,12.597916666666666,71.0,63.0
15,12.833333333333334,13.920833333333333,73.0,56.0
16,14.935416666666667,15.291666666666666,69.0,92.0
17,15.152083333333334,15.383333333333333,71.0,38.0
18,8.947916666666666,15.633333333333333,47.0,68.0
19,15.36875,15.639583333333333,68.0,33.0
20,15.547916666666666,15.75625,69.0,22.0
21,15.73125,16.079166666666666,66.0,19.0
22,16.022916666666667,16.475,68.0,25.0
23,16.391666666666666,17.6125,69.0,20.0
24,16.9625,17.635416666666668,57.0,16.0
25,17.5375,18.797916666666666,42.0,63.0
26,18.2625,19.214583333333334,73.0,88.0
27,18.72083333333333,19.30625,57.0,55.0
28,18.979166666666668,19.354166666666668,42.0,62.0
29,19.25208333333333,19.47083333333333,71.0,88.0
30,19.475,19.725,71.0,61.0
31,19.475,19.935416666666665,57.0,70.0
32,19.639583333333334,20.18958333333333,42.0,60.0
33,19.895833333333332,20.30625,69.0,67.0
34,20.110416666666666,20.539583333333333,57.0,65.0
35,20.245833333333334,20.71875,42.0,62.0
36,20.497916666666665,20.95625,68.0,75.0
37,20.71875,21.583333333333332,57.0,75.0
38,21.597916666666666,22.0,57.0,34.0
39,21.954166666666666,23.835416666666667,61.0,24.0
40,20.933333333333334,24.091666666666665,42.0,63.0
41,24.433333333333334,25.458333333333332,56.0,64.0
42,24.01875,29.004166666666666,49.0,33.0
43,24.785416666666666,29.858333333333334,59.0,35.0
44,23.997916666666665,29.9,44.0,19.0
45,26.0875,29.958333333333332,56.0,31.0
46,25.18125,30.197916666666668,65.0,36.0
47,26.645833333333332,30.485416666666666,68.0,16.0
48,30.866666666666667,31.322916666666668,54.0,69.0
49,30.2,32.15208333333333,42.0,73.0
50,30.53333333333333,32.3375,49.0,63.0
51,31.53333333333333,32.3625,54.0,57.0
52,31.2,32.8875,66.0,93.0
53,31.2,32.93541666666667,61.0,88.0
54,31.866666666666667,33.1875,57.0,76.0
55,32.2,34.020833333333336,42.0,64.0
56,32.86666666666667,34.2125,54.0,64.0
57,32.53333333333333,34.235416666666666,49.0,66.0
58,33.86666666666667,34.979166666666664,66.0,58.0
59,33.2,35.12083333333333,61.0,100.0
60,33.53333333333333,35.5625,57.0,77.0
61,34.86666666666667,35.802083333333336,54.0,66.0
62,34.2,35.80833333333333,42.0,75.0
63,34.53333333333333,35.84375,49.0,52.0
64,35.2,35.84375,66.0,90.0
65,35.53333333333333,35.93125,61.0,82.0
66,36.2,37.22708333333333,49.0,43.0
67,36.2,37.229166666666664,54.0,38.0
68,36.2,37.239583333333336,42.0,44.0
69,36.2,37.260416666666664,61.0,56.0
70,36.2,37.28541666666666,66.0,60.0
71,35.86666666666667,37.297916666666666,57.0,68.0
72,38.53333333333333,39.4625,54.0,99.0
73,39.53333333333333,39.677083333333336,54.0,61.0
74,38.2,39.68541666666667,47.0,69.0
75,38.86666666666667,39.96666666666667,59.0,83.0
76,39.2,40.0,66.0,112.0
77,39.86666666666667,40.23125,62.0,93.0
78,40.86666666666667,41.34375,52.0,66.0
79,40.2,41.4375,40.0,81.0
80,40.53333333333333,41.46875,47.0,55.0
81,41.2,42.075,68.0,102.0
82,41.53333333333333,42.104166666666664,64.0,66.0
83,41.86666666666667,42.202083333333334,59.0,71.0
84,42.86666666666667,43.2875,61.0,54.0
85,42.53333333333333,43.34375,56.0,72.0
86,42.2,43.35,49.0,73.0
87,43.53333333333333,44.15208333333333,56.0,67.0
88,43.2,44.15833333333333,64.0,81.0
89,43.86666666666667,44.22083333333333,61.0,66.0
90,44.86666666666667,45.5,54.0,89.0
91,44.53333333333333,45.65208333333333,49.0,52.0
92,44.2,45.675,42.0,76.0
93,45.53333333333333,46.19166666666666,61.0,102.0
94,45.2,46.22083333333333,66.0,100.0
95,45.86666666666667,46.235416666666666,57.0,86.0
96,46.53333333333333,47.19583333333333,54.0,77.0
97,46.2,47.235416666666666,47.0,78.0
98,46.86666666666667,47.483333333333334,59.0,88.0
99,47.2,47.84791666666666,66.0,117.0
100,47.53333333333333,48.25,62.0,77.0
101,47.86666666666667,48.297916666666666,59.0,88.0
102,48.86666666666667,49.81041666666667,52.0,74.0
103,48.2,49.864583333333336,40.0,86.0
104,48.53333333333333,49.88333333333333,47.0,63.0
105,49.86666666666667,50.145833333333336,59.0,68.0
106,49.53333333333333,50.15,56.0,92.0
107,49.2,50.15,64.0,75.0
108,50.86666666666667,51.21666666666667,61.0,122.0
109,50.2,51.235416666666666,45.0,96.0
110,50.53333333333333,51.2875,57.0,81.0
111,51.2,52.172916666666666,64.0,102.0
112,51.53333333333333,52.19375,61.0,112.0
113,51.86666666666667,52.21666666666667,57.0,99.0
114,52.86666666666667,53.38125,49.0,90.0
115,52.53333333333333,53.639583333333334,44.0,36.0
116,52.199999999999996,53.672916666666666,37.0,97.0
117,53.53333333333333,53.71875,49.0,89.0
118,53.86666666666667,54.1625,56.0,107.0
119,53.199999999999996,54.166666666666664,61.0,117.0
120,54.86666666666667,55.40416666666667,50.0,93.0
121,55.53333333333333,55.71041666666667,50.0,78.0
122,54.199999999999996,55.80833333333333,38.0,75.0
123,54.53333333333333,56.166666666666664,45.0,72.0
124,55.199999999999996,56.25208333333333,66.0,117.0
125,55.86666666666667,56.27708333333333,62.0,78.0
126,56.86666666666667,57.16041666666666,56.0,93.0
127,56.53333333333333,57.4,47.0,68.0
128,57.53333333333333,57.793749999999996,47.0,96.0
129,56.199999999999996,57.87083333333333,40.0,65.0
130,57.199999999999996,58.114583333333336,59.0,99.0
131,57.86666666666667,58.11666666666667,56.0,117.0
132,58.53333333333333,59.045833333333334,57.0,102.0
133,58.199999999999996,59.12708333333333,45.0,117.0
134,59.199999999999996,59.24583333333333,44.0,26.0
135,59.199999999999996,59.24583333333333,44.0,112.0
136,58.86666666666667,59.327083333333334,64.0,112.0
137,59.53333333333333,60.15208333333333,56.0,88.0
138,59.86666666666667,60.172916666666666,64.0,99.0
139,60.53333333333333,61.233333333333334,54.0,60.0
140,60.199999999999996,61.33541666666667,42.0,100.0
141,60.86666666666667,61.489583333333336,57.0,83.0
142,61.53333333333333,62.21041666666667,61.0,97.0
143,61.199999999999996,62.25,66.0,117.0
144,61.86666666666667,62.262499999999996,57.0,81.0
145,62.86666666666667,63.18125,59.0,70.0
146,62.53333333333333,63.416666666666664,54.0,86.0
147,62.199999999999996,63.481249999999996,47.0,83.0
148,63.199999999999996,63.614583333333336,62.0,99.0
149,63.86666666666667,64.18541666666667,62.0,99.0
150,63.53333333333333,64.23333333333333,59.0,97.0
151,64.86666666666666,65.30625,56.0,93.0
152,64.53333333333333,65.65833333333333,47.0,77.0
153,64.2,65.68333333333334,40.0,76.0
154,65.53333333333333,66.08333333333333,56.0,100.0
155,65.86666666666666,66.13333333333333,59.0,70.0
156,65.2,66.14791666666666,64.0,79.0
157,66.86666666666666,67.3,50.0,93.0
158,66.2,67.48125,38.0,89.0
159,66.53333333333333,67.4875,45.0,76.0
160,67.86666666666666,68.2,57.0,95.0
161,67.2,68.2,66.0,127.0
162,67.53333333333333,68.20208333333333,62.0,83.0
163,68.86666666666666,69.3375,49.0,95.0
164,69.2,69.8875,56.0,127.0
165,69.53333333333333,70.08125,49.0,93.0
166,68.2,70.08958333333334,37.0,96.0
167,68.53333333333333,70.1375,44.0,58.0
168,69.86666666666666,70.15833333333333,53.0,90.0
169,70.2,71.27916666666667,49.0,68.0
170,70.2,71.2875,44.0,69.0
171,70.2,71.2875,61.0,72.0
172,70.2,71.28958333333333,65.0,75.0
173,70.2,71.29375,56.0,76.0
174,70.2,71.31458333333333,37.0,66.0
175,72.7,73.02708333333334,57.0,89.0
176,72.86666666666666,73.09583333333333,61.0,112.0
177,73.03333333333333,73.27916666666667,66.0,117.0
178,73.2,73.35208333333333,61.0,127.0
179,72.53333333333333,73.42083333333333,54.0,100.0
180,72.36666666666666,73.5,49.0,70.0
181,72.2,73.61041666666667,42.0,96.0
182,73.36666666666666,73.62708333333333,57.0,97.0
183,73.53333333333333,73.66041666666666,61.0,122.0
184,73.7,73.99791666666667,66.0,122.0
185,73.86666666666666,74.00833333333333,61.0,127.0
186,74.03333333333333,74.24166666666666,57.0,99.0
187,74.7,75.04583333333333,52.0,90.0
188,74.86666666666666,75.05625,56.0,122.0
189,75.03333333333333,75.24375,61.0,107.0
190,75.2,75.35416666666667,56.0,127.0
191,74.53333333333333,75.51875,49.0,102.0
192,74.36666666666666,75.58125,44.0,88.0
193,75.36666666666666,75.60208333333333,52.0,95.0
194,74.2,75.63541666666667,37.0,89.0
195,75.53333333333333,75.66666666666667,56.0,102.0
196,75.86666666666666,76.06458333333333,56.0,99.0
197,75.7,76.12916666666666,61.0,112.0
198,76.03333333333333,76.15416666666667,52.0,99.0
199,76.53333333333333,76.875,50.0,100.0
200,76.7,76.94791666666667,57.0,89.0
201,76.86666666666666,76.99791666666667,62.0,92.0
202,76.2,77.07291666666667,38.0,78.0
203,76.36666666666666,77.175,45.0,99.0
204,77.03333333333333,77.18541666666667,66.0,112.0
205,77.2,77.77916666666667,40.0,90.0
206,77.36666666666666,77.8125,47.0,99.0
207,77.53333333333333,77.88333333333333,52.0,102.0
208,77.7,77.94791666666667,59.0,95.0
209,77.86666666666666,78.08333333333333,68.0,112.0
210,78.03333333333333,78.18333333333334,64.0,97.0
211,78.53333333333333,78.75625,57.0,86.0
212,78.7,78.83958333333334,61.0,122.0
213,78.86666666666666,79.13333333333333,64.0,97.0
214,79.03333333333333,79.1875,61.0,127.0
215,78.36666666666666,79.20625,52.0,95.0
216,79.2,79.48541666666667,57.0,117.0
217,78.2,79.67916666666666,45.0,76.0
218,79.36666666666666,79.76875,52.0,107.0
219,79.53333333333333,79.77916666666667,64.0,100.0
220,79.7,79.86666666666666,61.0,112.0
221,79.86666666666666,80.15416666666667,57.0,100.0
222,80.03333333333333,80.16041666666666,61.0,127.0
223,80.53333333333333,80.76041666666667,59.0,97.0
224,80.7,80.87708333333333,62.0,95.0
225,80.86666666666666,81.06666666666666,59.0,95.0
226,81.03333333333333,81.175,62.0,93.0
227,81.2,81.40625,66.0,127.0
228,81.36666666666666,81.47708333333333,62.0,97.0
229,81.53333333333333,81.80416666666666,59.0,92.0
230,81.7,81.87708333333333,61.0,100.0
231,81.86666666666666,81.94375,66.0,35.0
232,80.2,82.075,47.0,77.0
233,81.86666666666666,82.07708333333333,62.0,86.0
234,82.03333333333333,82.20625,59.0,93.0
235,80.36666666666666,82.21041666666666,54.0,102.0
236,82.53333333333333,82.69375,59.0,93.0
237,82.7,82.85625,62.0,96.0
238,82.86666666666666,83.11875,59.0,95.0
239,83.03333333333333,83.15416666666667,62.0,96.0
240,82.36666666666666,83.4125,54.0,107.0
241,83.2,83.42708333333333,66.0,127.0
242,83.36666666666666,83.51458333333333,62.0,86.0
243,82.2,83.56666666666666,47.0,89.0
244,83.53333333333333,83.7125,59.0,99.0
245,83.7,83.85208333333333,62.0,99.0
246,83.86666666666666,84.04791666666667,59.0,97.0
247,84.03333333333333,84.26041666666667,66.0,112.0
248,84.7,84.86666666666666,57.0,96.0
249,84.86666666666666,85.03125,62.0,99.0
250,85.03333333333333,85.19375,57.0,100.0
251,84.53333333333333,85.325,50.0,92.0
252,85.2,85.35625,66.0,127.0
253,85.36666666666666,85.525,57.0,64.0
254,85.53333333333333,85.67916666666666,62.0,95.0
255,85.7,85.89791666666666,57.0,96.0
256,84.2,86.08958333333334,38.0,93.0
257,85.86666666666666,86.10416666666667,66.0,122.0
258,84.36666666666666,86.16041666666666,45.0,95.0
259,86.03333333333333,86.18958333333333,57.0,112.0
260,86.7,86.8875,59.0,97.0
261,86.86666666666666,87.02083333333333,64.0,90.0
262,87.03333333333333,87.16666666666667,59.0,112.0
263,87.2,87.34166666666667,64.0,95.0
264,87.2,87.375,68.0,122.0
265,87.36666666666666,87.56041666666667,59.0,96.0
266,87.53333333333333,87.73958333333333,68.0,100.0
267,87.53333333333333,87.75416666666666,64.0,85.0
268,86.53333333333333,87.87708333333333,52.0,95.0
269,87.7,87.89791666666666,59.0,90.0
270,86.36666666666666,88.09583333333333,47.0,99.0
271,87.86666666666666,88.10416666666667,64.0,88.0
272,87.86666666666666,88.13125,68.0,97.0
273,88.03333333333333,88.14166666666667,59.0,102.0
274,86.2,88.14583333333333,40.0,88.0
275,88.7,89.02708333333334,57.0,89.0
276,88.86666666666666,89.09583333333333,61.0,112.0
277,89.03333333333333,89.27916666666667,66.0,117.0
278,89.2,89.35208333333333,61.0,127.0
279,88.53333333333333,89.42083333333333,54.0,100.0
280,88.36666666666666,89.5,49.0,70.0
281,88.2,89.61041666666667,42.0,96.0
282,89.36666666666666,89.62708333333333,57.0,97.0
283,89.53333333333333,89.66041666666666,61.0,122.0
284,89.7,89.99791666666667,66.0,122.0
285,89.86666666666666,90.00833333333333,61.0,127.0
286,90.03333333333333,90.24166666666666,57.0,99.0
287,90.7,91.04583333333333,52.0,90.0
288,90.86666666666666,91.05625,56.0,122.0
289,91.03333333333333,91.24375,61.0,107.0
290,91.2,91.35416666666667,56.0,127.0
291,90.53333333333333,91.51875,49.0,102.0
292,90.36666666666666,91.58125,44.0,88.0
293,91.36666666666666,91.60208333333333,52.0,95.0
294,90.2,91.63541666666667,37.0,89.0
295,91.53333333333333,91.66666666666667,56.0,102.0
296,91.86666666666666,92.06458333333333,56.0,99.0
297,91.7,92.12916666666666,61.0,112.0
298,92.03333333333333,92.15416666666667,52.0,99.0
299,92.53333333333333,92.875,50.0,100.0
300,92.7,92.94791666666667,57.0,89.0
301,92.86666666666666,92.99791666666667,62.0,92.0
302,92.2,93.07291666666667,38.0,78.0
303,92.36666666666666,93.175,45.0,99.0
304,93.03333333333333,93.18541666666667,66.0,112.0
305,93.2,93.77916666666667,40.0,90.0
306,93.36666666666666,93.8125,47.0,99.0
307,93.53333333333333,93.88333333333333,52.0,102.0
308,93.7,93.94791666666667,59.0,95.0
309,93.86666666666666,94.08333333333333,68.0,112.0
310,94.03333333333333,94.18333333333334,64.0,97.0
311,94.53333333333333,94.75625,57.0,86.0
312,94.7,94.83958333333334,61.0,122.0
313,94.86666666666666,95.13333333333333,64.0,97.0
314,95.03333333333333,95.1875,61.0,127.0
315,94.36666666666666,95.20625,52.0,95.0
316,95.2,95.48541666666667,57.0,117.0
317,94.2,95.67916666666666,45.0,76.0
318,95.36666666666666,95.76875,52.0,107.0
319,95.53333333333333,95.77916666666667,64.0,100.0
320,95.7,95.86666666666666,61.0,112.0
321,95.86666666666666,96.15416666666667,57.0,100.0
322,96.03333333333333,96.16041666666666,61.0,127.0
323,96.53333333333333,96.76041666666667,59.0,97.0
324,96.7,96.87708333333333,62.0,95.0
325,96.86666666666666,97.06666666666666,59.0,95.0
326,97.03333333333333,97.175,62.0,93.0
327,97.2,97.40625,66.0,127.0
328,97.36666666666666,97.47708333333333,62.0,97.0
329,97.53333333333333,97.80416666666666,59.0,92.0
330,97.7,97.87708333333333,61.0,100.0
331,97.86666666666666,97.94375,66.0,35.0
332,96.2,98.075,47.0,77.0
333,97.86666666666666,98.07708333333333,62.0,86.0
334,98.03333333333333,98.20625,59.0,93.0
335,96.36666666666666,98.21041666666666,54.0,102.0
336,98.53333333333333,98.69375,59.0,93.0
337,98.7,98.85625,62.0,96.0
338,98.86666666666666,99.11875,59.0,95.0
339,99.03333333333333,99.15416666666667,62.0,96.0
340,98.36666666666666,99.4125,54.0,107.0
341,99.2,99.42708333333333,66.0,127.0
342,99.36666666666666,99.51458333333333,62.0,86.0
343,98.2,99.56666666666666,47.0,89.0
344,99.53333333333333,99.7125,59.0,99.0
345,99.7,99.85208333333333,62.0,99.0
346,99.86666666666666,100.04791666666667,59.0,97.0
347,100.03333333333333,100.2,66.0,112.0
348,100.7,100.90625,53.0,81.0
349,100.86666666666666,101.03541666666666,56.0,102.0
350,101.03333333333333,101.20208333333333,53.0,86.0
351,101.2,101.44791666666667,61.0,127.0
352,101.36666666666666,101.51458333333333,56.0,90.0
353,101.53333333333333,101.76875,53.0,78.0
354,101.7,101.8375,56.0,122.0
355,100.2,102.10208333333333,37.0,96.0
356,100.53333333333333,102.11458333333333,49.0,96.0
357,101.86666666666666,102.12083333333334,61.0,117.0
358,100.36666666666666,102.13958333333333,44.0,73.0
359,102.03333333333333,102.14791666666666,56.0,127.0
360,102.2,102.53958333333333,49.0,100.0
361,102.2,102.54583333333333,56.0,117.0
362,102.2,102.54791666666667,53.0,97.0
363,102.2,102.55,44.0,89.0
364,102.2,102.59375,61.0,102.0
365,102.2,102.6125,37.0,90.0
366,104.53333333333333,105.3,54.0,86.0
367,104.86666666666666,105.34166666666667,57.0,71.0
368,104.2,106.11041666666667,42.0,95.0
369,105.53333333333333,106.29166666666667,54.0,83.0
370,105.2,106.87083333333334,66.0,127.0
371,105.86666666666666,106.87916666666666,61.0,99.0
372,106.86666666666666,107.35833333333333,57.0,65.0
373,106.2,108.07083333333333,42.0,75.0
374,107.2,108.17916666666666,66.0,117.0
375,107.86666666666666,108.19583333333333,57.0,75.0
376,107.53333333333333,108.19791666666667,61.0,88.0
377,106.53333333333333,108.2,54.0,97.0
378,108.2,108.30624999999999,57.0,66.0
379,108.2,108.99374999999999,62.0,82.0
380,108.2,109.0125,61.0,95.0
381,108.2,109.3125,66.0,85.0
382,108.86666666666666,109.48333333333333,50.0,73.0
383,108.2,110.02499999999999,38.0,68.0
384,109.2,110.14791666666666,62.0,85.0
385,109.53333333333333,110.19166666666666,61.0,53.0
386,109.7,110.20625,66.0,7.0
387,108.53333333333333,110.22083333333333,45.0,54.0
388,109.86666666666666,110.23333333333333,57.0,58.0
389,110.86666666666666,111.18333333333334,52.0,75.0
390,110.2,111.3125,40.0,76.0
391,110.53333333333333,111.37291666666667,47.0,53.0
392,111.2,112.15625,68.0,99.0
393,111.53333333333333,112.16875,64.0,66.0
394,111.86666666666666,112.24374999999999,59.0,83.0
395,112.2,113.62708333333333,37.0,83.0
396,112.53333333333333,113.65208333333334,44.0,37.0
397,112.86666666666666,113.73333333333333,49.0,78.0
398,113.86666666666666,114.16666666666667,52.0,85.0
399,113.53333333333333,114.175,56.0,90.0
400,113.2,114.21875,61.0,107.0
401,114.53333333333333,115.38125,49.0,72.0
402,114.2,115.39166666666667,42.0,95.0
403,114.86666666666666,115.4375,54.0,73.0
404,115.53333333333333,116.14375,61.0,97.0
405,115.2,116.17916666666666,66.0,127.0
406,115.86666666666666,116.23541666666667,57.0,75.0
407,116.53333333333333,117.1875,54.0,72.0
408,116.2,117.21875,47.0,69.0
409,116.86666666666666,117.425,59.0,78.0
410,117.2,118.01875,66.0,122.0
411,117.53333333333333,118.23125,62.0,76.0
412,118.86666666666666,119.22708333333333,52.0,75.0
413,117.86666666666666,119.32291666666667,59.0,83.0
414,118.2,119.52916666666667,40.0,81.0
415,118.53333333333333,119.53958333333333,47.0,55.0
416,119.2,120.19166666666666,68.0,127.0
417,119.53333333333333,120.19375,64.0,92.0
418,119.86666666666666,120.25208333333333,59.0,90.0
419,120.86666666666666,121.48541666666667,50.0,86.0
420,120.2,121.52708333333334,38.0,81.0
421,120.53333333333333,121.55624999999999,45.0,67.0
422,121.2,121.71458333333334,62.0,112.0
423,121.86666666666666,122.21458333333334,66.0,127.0
424,121.53333333333333,122.26458333333333,57.0,92.0
425,122.86666666666666,123.37083333333334,49.0,92.0
426,122.53333333333333,123.64375,44.0,37.0
427,122.2,123.68958333333333,37.0,93.0
428,123.53333333333333,123.85416666666667,49.0,127.0
429,123.2,123.88958333333333,56.0,127.0
430,123.2,124.11874999999999,61.0,122.0
431,123.86666666666666,124.2,53.0,117.0
432,124.86666666666666,125.14999999999999,57.0,95.0
433,125.03333333333333,125.16458333333333,61.0,117.0
434,125.2,125.29375,57.0,35.0
435,124.7,125.3125,54.0,112.0
436,125.36666666666666,125.56458333333333,54.0,27.0
437,124.2,125.71666666666667,42.0,102.0
438,124.53333333333333,125.72291666666666,49.0,37.0
439,125.53333333333333,125.89375,61.0,127.0
440,125.2,126.09791666666666,66.0,122.0
441,125.86666666666666,126.20416666666667,57.0,96.0
442,126.03333333333333,126.25416666666666,61.0,127.0
443,126.7,126.89583333333333,57.0,88.0
444,126.86666666666666,127.05833333333334,61.0,100.0
445,127.03333333333333,127.22708333333333,57.0,89.0
446,127.2,127.42083333333333,64.0,107.0
447,127.36666666666666,127.50625,61.0,97.0
448,127.53333333333333,127.79791666666667,57.0,72.0
449,127.7,127.8625,61.0,100.0
450,126.2,128.15208333333334,45.0,86.0
451,128.03333333333333,128.15625,57.0,89.0
452,128.03333333333333,128.20833333333334,61.0,107.0
453,126.53333333333333,128.23958333333334,52.0,74.0
454,127.86666666666666,128.2625,64.0,93.0
455,128.7,128.89583333333334,59.0,85.0
456,128.86666666666667,129.03958333333333,63.0,117.0
457,129.03333333333333,129.1875,59.0,92.0
458,129.2,129.39166666666665,66.0,127.0
459,129.36666666666667,129.64791666666667,59.0,85.0
460,129.53333333333333,129.67083333333332,63.0,127.0
461,128.53333333333333,129.73125,54.0,88.0
462,128.2,129.79583333333332,47.0,93.0
463,129.7,130.00625,66.0,122.0
464,129.86666666666667,130.02291666666667,63.0,122.0
465,130.03333333333333,130.2,59.0,102.0
466,130.2,130.40625,66.0,92.0
467,130.2,130.41041666666666,62.0,93.0
468,130.2,130.42083333333332,57.0,89.0
469,130.2,130.67916666666667,38.0,86.0
470,130.53333333333333,130.70208333333332,50.0,71.0
471,130.53333333333333,130.71041666666667,62.0,88.0
472,130.53333333333333,130.74166666666667,66.0,86.0
473,130.53333333333333,130.74375,57.0,74.0
474,130.86666666666667,131.01458333333332,38.0,58.0
475,130.86666666666667,131.02916666666667,50.0,74.0
476,130.86666666666667,131.0375,62.0,78.0
477,130.86666666666667,131.05,66.0,77.0
478,130.86666666666667,131.05208333333334,57.0,76.0
479,131.2,131.35833333333332,38.0,71.0
480,131.2,131.37916666666666,62.0,100.0
481,131.2,131.38125,50.0,86.0
482,131.2,131.39166666666665,66.0,99.0
483,131.2,131.39375,57.0,92.0
484,131.53333333333333,131.69166666666666,62.0,96.0
485,131.53333333333333,131.70208333333332,50.0,92.0
486,131.53333333333333,131.71458333333334,38.0,71.0
487,131.53333333333333,131.71458333333334,66.0,100.0
488,131.53333333333333,131.72083333333333,57.0,89.0
489,131.86666666666667,131.98958333333334,38.0,71.0
490,131.86666666666667,132.0125,50.0,99.0
491,131.86666666666667,132.0125,62.0,100.0
492,131.86666666666667,132.04166666666666,57.0,93.0
493,131.86666666666667,132.04583333333332,66.0,96.0
494,132.7,132.83333333333334,57.0,86.0
495,132.86666666666667,133.03541666666666,61.0,97.0
496,133.03333333333333,133.2875,57.0,86.0
497,132.36666666666667,133.42708333333334,49.0,65.0
498,133.2,133.43333333333334,66.0,127.0
499,132.53333333333333,133.45416666666665,54.0,79.0
500,132.2,133.46875,42.0,100.0
501,133.36666666666667,133.54166666666666,61.0,102.0
502,133.53333333333333,133.79375,57.0,102.0
503,133.7,133.82916666666665,61.0,117.0
504,133.86666666666667,134.09166666666667,66.0,102.0
505,134.03333333333333,134.19375,61.0,127.0
506,134.53333333333333,134.71041666666667,57.0,100.0
507,134.7,134.85625,61.0,102.0
508,134.86666666666667,135.15,57.0,102.0
509,135.03333333333333,135.17291666666665,61.0,127.0
510,135.2,135.39583333333334,64.0,117.0
511,135.36666666666667,135.50416666666666,61.0,100.0
512,134.2,135.58125,45.0,88.0
513,134.36666666666667,135.7375,52.0,97.0
514,135.53333333333333,135.78333333333333,57.0,97.0
515,135.7,135.87708333333333,61.0,122.0
516,135.86666666666667,136.125,64.0,96.0
517,136.03333333333333,136.19375,61.0,117.0
518,136.53333333333333,136.72083333333333,59.0,95.0
519,136.7,136.86666666666667,63.0,112.0
520,136.86666666666667,137.07916666666665,59.0,99.0
521,137.03333333333333,137.14166666666665,63.0,122.0
522,137.2,137.40208333333334,66.0,122.0
523,137.36666666666667,137.52708333333334,63.0,107.0
524,136.36666666666667,137.61666666666667,54.0,100.0
525,137.53333333333333,137.78333333333333,59.0,100.0
526,137.7,137.83958333333334,63.0,127.0
527,136.2,137.89791666666667,47.0,86.0
528,137.86666666666667,138.06666666666666,66.0,117.0
529,138.03333333333333,138.12708333333333,59.0,69.0
530,138.03333333333333,138.16875,63.0,117.0
531,138.2,138.37291666666667,49.0,96.0
532,138.2,138.38958333333332,56.0,96.0
533,138.2,138.39166666666665,61.0,62.0
534,138.2,138.39791666666667,37.0,83.0
535,138.2,138.42916666666667,65.0,70.0
536,138.53333333333333,138.71666666666667,49.0,95.0
537,138.53333333333333,138.73541666666665,61.0,86.0
538,138.53333333333333,138.74166666666667,37.0,81.0
539,138.53333333333333,138.74166666666667,65.0,66.0
540,138.53333333333333,138.74375,56.0,96.0
541,138.86666666666667,139.03125,65.0,79.0
542,138.86666666666667,139.06458333333333,61.0,83.0
543,138.86666666666667,139.06666666666666,49.0,83.0
544,138.86666666666667,139.07291666666666,56.0,97.0
545,138.86666666666667,139.09375,37.0,77.0
546,139.2,139.42708333333334,56.0,100.0
547,139.2,139.42708333333334,61.0,96.0
548,139.2,139.4375,49.0,90.0
549,139.2,139.43958333333333,65.0,77.0
550,139.2,139.46458333333334,37.0,78.0
551,140.53333333333333,141.4625,54.0,99.0
552,141.53333333333333,141.67708333333334,54.0,61.0
553,140.2,141.68541666666667,47.0,69.0
554,140.86666666666667,141.96666666666667,59.0,83.0
555,141.2,142.0,66.0,112.0
556,141.86666666666667,142.23125,62.0,93.0
557,142.86666666666667,143.34375,52.0,66.0
558,142.2,143.4375,40.0,81.0
559,142.53333333333333,143.46875,47.0,55.0
560,143.2,144.075,68.0,102.0
561,143.53333333333333,144.10416666666666,64.0,66.0
562,143.86666666666667,144.20208333333332,59.0,71.0
563,144.86666666666667,145.2875,61.0,54.0
564,144.53333333333333,145.34375,56.0,72.0
565,144.2,145.35,49.0,73.0
566,145.53333333333333,146.15208333333334,56.0,67.0
567,145.2,146.15833333333333,64.0,81.0
568,145.86666666666667,146.22083333333333,61.0,66.0
569,146.86666666666667,147.5,54.0,89.0
570,146.53333333333333,147.65208333333334,49.0,52.0
571,146.2,147.675,42.0,76.0
572,147.53333333333333,148.19166666666666,61.0,102.0
573,147.2,148.22083333333333,66.0,100.0
574,147.86666666666667,148.23541666666665,57.0,86.0
575,148.53333333333333,149.19583333333333,54.0,77.0
576,148.2,149.23541666666665,47.0,78.0
577,148.86666666666667,149.48333333333332,59.0,88.0
578,149.2,149.84791666666666,66.0,117.0
579,149.53333333333333,150.25,62.0,77.0
580,149.86666666666667,150.29791666666665,59.0,88.0
581,150.86666666666667,151.81041666666667,52.0,74.0
582,150.2,151.86458333333334,40.0,86.0
583,150.53333333333333,151.88333333333333,47.0,63.0
584,151.86666666666667,152.14583333333334,59.0,68.0
585,151.53333333333333,152.15,56.0,92.0
586,151.2,152.15,64.0,75.0
587,152.86666666666667,153.21666666666667,61.0,122.0
588,152.2,153.23541666666665,45.0,96.0
589,152.53333333333333,153.2875,57.0,81.0
590,153.2,154.17291666666665,64.0,102.0
591,153.53333333333333,154.19375,61.0,112.0
592,153.86666666666667,154.21666666666667,57.0,99.0
593,154.86666666666667,155.38125,49.0,90.0
594,154.53333333333333,155.63958333333332,44.0,36.0
595,154.2,155.67291666666665,37.0,97.0
596,155.53333333333333,155.71875,49.0,89.0
597,155.86666666666667,156.1625,56.0,107.0
598,155.2,156.16666666666666,61.0,117.0
599,156.86666666666667,157.40416666666667,50.0,93.0
600,157.53333333333333,157.71041666666667,50.0,78.0
601,156.2,157.80833333333334,38.0,75.0
602,156.53333333333333,158.16666666666666,45.0,72.0
603,157.2,158.25208333333333,66.0,117.0
604,157.86666666666667,158.27708333333334,62.0,78.0
605,158.86666666666667,159.16041666666666,56.0,93.0
606,158.53333333333333,159.4,47.0,68.0
607,159.53333333333333,159.79375,47.0,96.0
608,158.2,159.87083333333334,40.0,65.0
609,159.2,160.11458333333334,59.0,99.0
610,159.86666666666667,160.11666666666667,56.0,117.0
611,160.53333333333333,161.04583333333332,57.0,102.0
612,160.2,161.12708333333333,45.0,117.0
613,161.2,161.24583333333334,44.0,26.0
614,161.2,161.24583333333334,44.0,112.0
615,160.86666666666667,161.32708333333332,64.0,112.0
616,161.53333333333333,162.15208333333334,56.0,88.0
617,161.86666666666667,162.17291666666665,64.0,99.0
618,162.53333333333333,163.23333333333332,54.0,60.0
619,162.2,163.33541666666667,42.0,100.0
620,162.86666666666667,163.48958333333334,57.0,83.0
621,163.53333333333333,164.21041666666667,61.0,97.0
622,163.2,164.25,66.0,117.0
623,163.86666666666667,164.2625,57.0,81.0
624,164.86666666666667,165.18125,59.0,70.0
625,164.53333333333333,165.41666666666666,54.0,86.0
626,164.2,165.48125,47.0,83.0
627,165.2,165.61458333333334,62.0,99.0
628,165.86666666666667,166.18541666666667,62.0,99.0
629,165.53333333333333,166.23333333333332,59.0,97.0
630,166.86666666666667,167.30625,56.0,93.0
631,166.53333333333333,167.65833333333333,47.0,77.0
632,166.2,167.68333333333334,40.0,76.0
633,167.53333333333333,168.08333333333334,56.0,100.0
634,167.86666666666667,168.13333333333333,59.0,70.0
635,167.2,168.14791666666667,64.0,79.0
636,168.86666666666667,169.3,50.0,93.0
637,168.2,169.48125,38.0,89.0
638,168.53333333333333,169.4875,45.0,76.0
639,169.86666666666667,170.2,57.0,95.0
640,169.2,170.2,66.0,127.0
641,169.53333333333333,170.20208333333332,62.0,83.0
642,170.86666666666667,171.3375,49.0,95.0
643,171.2,171.8875,56.0,127.0
644,171.53333333333333,172.08125,49.0,93.0
645,170.2,172.08958333333334,37.0,96.0
646,170.53333333333333,172.1375,44.0,58.0
647,171.86666666666667,172.15833333333333,53.0,90.0
648,172.2,173.27916666666667,49.0,68.0
649,172.2,173.2875,44.0,69.0
650,172.2,173.2875,61.0,72.0
651,172.2,173.28958333333333,65.0,75.0
652,172.2,173.29375,56.0,76.0
653,172.2,173.31458333333333,37.0,66.0
654,174.7,175.02708333333334,57.0,89.0
655,174.86666666666667,175.09583333333333,61.0,112.0
656,175.03333333333333,175.27916666666667,66.0,117.0
657,175.2,175.35208333333333,61.0,127.0
658,174.53333333333333,175.42083333333332,54.0,100.0
659,174.36666666666667,175.5,49.0,70.0
660,174.2,175.61041666666665,42.0,96.0
661,175.36666666666667,175.62708333333333,57.0,97.0
662,175.53333333333333,175.66041666666666,61.0,122.0
663,175.7,175.99791666666667,66.0,122.0
664,175.86666666666667,176.00833333333333,61.0,127.0
665,176.03333333333333,176.24166666666667,57.0,99.0
666,176.7,177.04583333333332,52.0,90.0
667,176.86666666666667,177.05625,56.0,122.0
668,177.03333333333333,177.24375,61.0,107.0
669,177.2,177.35416666666666,56.0,127.0
670,176.53333333333333,177.51875,49.0,102.0
671,176.36666666666667,177.58125,44.0,88.0
672,177.36666666666667,177.60208333333333,52.0,95.0
673,176.2,177.63541666666666,37.0,89.0
674,177.53333333333333,177.66666666666666,56.0,102.0
675,177.86666666666667,178.06458333333333,56.0,99.0
676,177.7,178.12916666666666,61.0,112.0
677,178.03333333333333,178.15416666666667,52.0,99.0
678,178.53333333333333,178.875,50.0,100.0
679,178.7,178.94791666666666,57.0,89.0
680,178.86666666666667,178.99791666666667,62.0,92.0
681,178.2,179.07291666666666,38.0,78.0
682,178.36666666666667,179.175,45.0,99.0
683,179.03333333333333,179.18541666666667,66.0,112.0
684,179.2,179.77916666666667,40.0,90.0
685,179.36666666666667,179.8125,47.0,99.0
686,179.53333333333333,179.88333333333333,52.0,102.0
687,179.7,179.94791666666666,59.0,95.0
688,179.86666666666667,180.08333333333334,68.0,112.0
689,180.03333333333333,180.18333333333334,64.0,97.0
690,180.53333333333333,180.75625,57.0,86.0
691,180.7,180.83958333333334,61.0,122.0
692,180.86666666666667,181.13333333333333,64.0,97.0
693,181.03333333333333,181.1875,61.0,127.0
694,180.36666666666667,181.20625,52.0,95.0
695,181.2,181.48541666666665,57.0,117.0
696,180.2,181.67916666666667,45.0,76.0
697,181.36666666666667,181.76875,52.0,107.0
698,181.53333333333333,181.77916666666667,64.0,100.0
699,181.7,181.86666666666667,61.0,112.0
700,181.86666666666667,182.15416666666667,57.0,100.0
701,182.03333333333333,182.16041666666666,61.0,127.0
702,182.53333333333333,182.76041666666666,59.0,97.0
703,182.7,182.87708333333333,62.0,95.0
704,182.86666666666667,183.06666666666666,59.0,95.0
705,183.03333333333333,183.175,62.0,93.0
706,183.2,183.40625,66.0,127.0
707,183.36666666666667,183.47708333333333,62.0,97.0
708,183.53333333333333,183.80416666666667,59.0,92.0
709,183.7,183.87708333333333,61.0,100.0
710,183.86666666666667,183.94375,66.0,35.0
711,182.2,184.075,47.0,77.0
712,183.86666666666667,184.07708333333332,62.0,86.0
713,184.03333333333333,184.20625,59.0,93.0
714,182.36666666666667,184.21041666666667,54.0,102.0
715,184.53333333333333,184.69375,59.0,93.0
716,184.7,184.85625,62.0,96.0
717,184.86666666666667,185.11875,59.0,95.0
718,185.03333333333333,185.15416666666667,62.0,96.0
719,184.36666666666667,185.4125,54.0,107.0
720,185.2,185.42708333333334,66.0,127.0
721,185.36666666666667,185.51458333333332,62.0,86.0
722,184.2,185.56666666666666,47.0,89.0
723,185.53333333333333,185.7125,59.0,99.0
724,185.7,185.85208333333333,62.0,99.0
725,185.86666666666667,186.04791666666665,59.0,97.0
726,186.03333333333333,186.26041666666666,66.0,112.0
727,186.7,186.86666666666667,57.0,96.0
728,186.86666666666667,187.03125,62.0,99.0
729,187.03333333333333,187.19375,57.0,100.0
730,186.53333333333333,187.325,50.0,92.0
731,187.2,187.35625,66.0,127.0
732,187.36666666666667,187.525,57.0,64.0
733,187.53333333333333,187.67916666666667,62.0,95.0
734,187.7,187.89791666666667,57.0,96.0
735,186.2,188.08958333333334,38.0,93.0
736,187.86666666666667,188.10416666666666,66.0,122.0
737,186.36666666666667,188.16041666666666,45.0,95.0
738,188.03333333333333,188.18958333333333,57.0,112.0
739,188.7,188.8875,59.0,97.0
740,188.86666666666667,189.02083333333334,64.0,90.0
741,189.03333333333333,189.16666666666666,59.0,112.0
742,189.2,189.34166666666667,64.0,95.0
743,189.2,189.375,68.0,122.0
744,189.36666666666667,189.56041666666667,59.0,96.0
745,189.53333333333333,189.73958333333334,68.0,100.0
746,189.53333333333333,189.75416666666666,64.0,85.0
747,188.53333333333333,189.87708333333333,52.0,95.0
748,189.7,189.89791666666667,59.0,90.0
749,188.36666666666667,190.09583333333333,47.0,99.0
750,189.86666666666667,190.10416666666666,64.0,88.0
751,189.86666666666667,190.13125,68.0,97.0
752,190.03333333333333,190.14166666666665,59.0,102.0
753,188.2,190.14583333333334,40.0,88.0
754,190.7,191.02708333333334,57.0,89.0
755,190.86666666666667,191.09583333333333,61.0,112.0
756,191.03333333333333,191.27916666666667,66.0,117.0
757,191.2,191.35208333333333,61.0,127.0
758,190.53333333333333,191.42083333333332,54.0,100.0
759,190.36666666666667,191.5,49.0,70.0
760,190.2,191.61041666666665,42.0,96.0
761,191.36666666666667,191.62708333333333,57.0,97.0
762,191.53333333333333,191.66041666666666,61.0,122.0
763,191.7,191.99791666666667,66.0,122.0
764,191.86666666666667,192.00833333333333,61.0,127.0
765,192.03333333333333,192.24166666666667,57.0,99.0
766,192.7,193.04583333333332,52.0,90.0
767,192.86666666666667,193.05625,56.0,122.0
768,193.03333333333333,193.24375,61.0,107.0
769,193.2,193.35416666666666,56.0,127.0
770,192.53333333333333,193.51875,49.0,102.0
771,192.36666666666667,193.58125,44.0,88.0
772,193.36666666666667,193.60208333333333,52.0,95.0
773,192.2,193.63541666666666,37.0,89.0
774,193.53333333333333,193.66666666666666,56.0,102.0
775,193.86666666666667,194.06458333333333,56.0,99.0
776,193.7,194.12916666666666,61.0,112.0
777,194.03333333333333,194.15416666666667,52.0,99.0
778,194.53333333333333,194.875,50.0,100.0
779,194.7,194.94791666666666,57.0,89.0
780,194.86666666666667,194.99791666666667,62.0,92.0
781,194.2,195.07291666666666,38.0,78.0
782,194.36666666666667,195.175,45.0,99.0
783,195.03333333333333,195.18541666666667,66.0,112.0
784,195.2,195.77916666666667,40.0,90.0
785,195.36666666666667,195.8125,47.0,99.0
786,195.53333333333333,195.88333333333333,52.0,102.0
787,195.7,195.94791666666666,59.0,95.0
788,195.86666666666667,196.08333333333334,68.0,112.0
789,196.03333333333333,196.18333333333334,64.0,97.0
790,196.53333333333333,196.75625,57.0,86.0
791,196.7,196.83958333333334,61.0,122.0
792,196.86666666666667,197.13333333333333,64.0,97.0
793,197.03333333333333,197.1875,61.0,127.0
794,196.36666666666667,197.20625,52.0,95.0
795,197.2,197.48541666666665,57.0,117.0
796,196.2,197.67916666666667,45.0,76.0
797,197.36666666666667,197.76875,52.0,107.0
798,197.53333333333333,197.77916666666667,64.0,100.0
799,197.7,197.86666666666667,61.0,112.0
800,197.86666666666667,198.15416666666667,57.0,100.0
801,198.03333333333333,198.16041666666666,61.0,127.0
802,198.53333333333333,198.76041666666666,59.0,97.0
803,198.7,198.87708333333333,62.0,95.0
804,198.86666666666667,199.06666666666666,59.0,95.0
805,199.03333333333333,199.175,62.0,93.0
806,199.2,199.40625,66.0,127.0
807,199.36666666666667,199.47708333333333,62.0,97.0
808,199.53333333333333,199.80416666666667,59.0,92.0
809,199.7,199.87708333333333,61.0,100.0
810,199.86666666666667,199.94375,66.0,35.0
811,198.2,200.075,47.0,77.0
812,199.86666666666667,200.07708333333332,62.0,86.0
813,200.03333333333333,200.20625,59.0,93.0
814,198.36666666666667,200.21041666666667,54.0,102.0
815,200.53333333333333,200.69375,59.0,93.0
816,200.7,200.85625,62.0,96.0
817,200.86666666666667,201.11875,59.0,95.0
818,201.03333333333333,201.15416666666667,62.0,96.0
819,200.36666666666667,201.4125,54.0,107.0
820,201.2,201.42708333333334,66.0,127.0
821,201.36666666666667,201.51458333333332,62.0,86.0
822,200.2,201.56666666666666,47.0,89.0
823,201.53333333333333,201.7125,59.0,99.0
824,201.7,201.85208333333333,62.0,99.0
825,201.86666666666667,202.04791666666665,59.0,97.0
826,202.03333333333333,202.2,66.0,112.0
827,202.74166666666667,202.94791666666666,53.0,81.0
828,202.90833333333333,203.07708333333332,56.0,102.0
829,203.075,203.24375,53.0,86.0
830,203.24166666666667,203.49166666666667,61.0,127.0
831,203.40833333333333,203.55833333333334,56.0,90.0
832,203.575,203.8125,53.0,78.0
833,203.74166666666667,203.87916666666666,56.0,122.0
834,202.24166666666667,204.14583333333334,37.0,96.0
835,202.575,204.15625,49.0,96.0
836,203.90833333333333,204.1625,61.0,117.0
837,202.40833333333333,204.18333333333334,44.0,73.0
838,204.075,204.19166666666666,56.0,127.0
839,204.2,204.53958333333333,49.0,100.0
840,204.2,204.54583333333332,56.0,117.0
841,204.2,204.54791666666665,53.0,97.0
842,204.2,204.55,44.0,89.0
843,204.2,204.59375,61.0,102.0
844,204.2,204.6125,37.0,90.0
845,206.53333333333333,207.05833333333334,49.0,28.0
846,206.2,207.0875,57.0,83.0
847,206.2,207.09166666666667,61.0,100.0
848,206.2,207.09583333333333,66.0,83.0
849,206.86666666666667,207.10416666666666,54.0,60.0
850,207.2,207.44166666666666,57.0,78.0
851,207.2,207.45208333333332,66.0,89.0
852,207.2,207.45624999999998,61.0,92.0
853,207.53333333333333,207.76874999999998,66.0,112.0
854,207.53333333333333,207.78125,57.0,97.0
855,207.53333333333333,207.78958333333333,61.0,122.0
856,207.2,207.81458333333333,49.0,45.0
857,207.2,207.83541666666667,54.0,66.0
858,206.2,207.89166666666665,42.0,89.0
859,207.86666666666667,208.06875,66.0,112.0
860,207.86666666666667,208.08124999999998,57.0,112.0
861,207.86666666666667,208.13541666666666,61.0,127.0
862,208.2,208.4375,59.0,86.0
863,208.2,208.44583333333333,66.0,83.0
864,208.2,208.45416666666665,47.0,65.0
865,208.2,208.45833333333334,62.0,86.0
866,208.53333333333333,208.75,47.0,79.0
867,208.53333333333333,208.77708333333334,62.0,99.0
868,208.53333333333333,208.77916666666667,59.0,93.0
869,208.53333333333333,208.78333333333333,66.0,95.0
870,208.86666666666667,209.0875,66.0,122.0
871,208.86666666666667,209.09166666666667,59.0,99.0
872,208.86666666666667,209.09375,62.0,127.0
873,208.86666666666667,209.13958333333332,47.0,97.0
874,209.2,209.46875,47.0,127.0
875,209.2,209.49166666666667,59.0,127.0
876,209.53333333333333,209.78333333333333,45.0,99.0
877,209.53333333333333,209.82291666666666,57.0,107.0
878,209.86666666666667,210.21875,56.0,117.0
879,209.86666666666667,210.24166666666667,44.0,93.0
880,210.2,210.33333333333334,61.0,88.0
881,210.2,210.34375,66.0,69.0
882,210.2,210.34791666666666,57.0,81.0
883,210.53333333333333,210.58958333333334,66.0,66.0
884,210.53333333333333,210.60833333333332,61.0,86.0
885,210.53333333333333,210.63333333333333,57.0,71.0
886,210.7,210.77291666666667,66.0,56.0
887,210.7,210.77708333333334,61.0,56.0
888,210.7,210.79583333333332,57.0,52.0
889,210.86666666666667,210.93125,66.0,75.0
890,210.86666666666667,210.93333333333334,61.0,78.0
891,210.86666666666667,210.9625,57.0,58.0
892,210.2,211.05833333333334,54.0,97.0
893,211.03333333333333,211.09375,66.0,75.0
894,211.03333333333333,211.09583333333333,57.0,45.0
895,211.03333333333333,211.10416666666666,61.0,82.0
896,211.2,211.26666666666665,61.0,122.0
897,211.2,211.27291666666667,57.0,86.0
898,211.2,211.27291666666667,66.0,99.0
899,211.53333333333333,211.64166666666665,61.0,96.0
900,211.53333333333333,211.66875,66.0,90.0
901,211.2,211.69583333333333,54.0,86.0
902,210.2,211.86666666666667,42.0,96.0
903,211.86666666666667,211.89583333333334,66.0,70.0
904,211.86666666666667,211.96041666666667,61.0,99.0
905,212.2,212.30208333333334,61.0,78.0
906,212.2,212.30416666666667,64.0,82.0
907,212.2,212.35208333333333,56.0,99.0
908,212.53333333333333,212.575,61.0,36.0
909,212.53333333333333,212.62708333333333,64.0,62.0
910,212.53333333333333,212.6375,56.0,56.0
911,212.7,212.73749999999998,61.0,34.0
912,212.7,212.75625,64.0,40.0
913,212.7,212.76041666666666,56.0,41.0
914,212.86666666666667,212.92083333333332,61.0,42.0
915,212.86666666666667,212.92083333333332,64.0,66.0
916,212.86666666666667,212.93125,56.0,59.0
917,213.03333333333333,213.07291666666666,56.0,40.0
918,213.03333333333333,213.08124999999998,64.0,77.0
919,213.03333333333333,213.09375,61.0,78.0
920,212.2,213.12291666666667,49.0,76.0
921,213.2,213.25625,56.0,93.0
922,213.2,213.25833333333333,64.0,97.0
923,213.2,213.26041666666666,61.0,97.0
924,213.2,213.26458333333332,49.0,76.0
925,213.53333333333333,213.61249999999998,61.0,78.0
926,213.53333333333333,213.61458333333334,64.0,78.0
927,213.53333333333333,213.63333333333333,56.0,83.0
928,213.86666666666667,213.92083333333332,61.0,86.0
929,214.2,214.29375,57.0,85.0
930,214.2,214.29583333333332,66.0,97.0
931,214.2,214.29791666666665,62.0,96.0
932,214.53333333333333,214.61875,57.0,66.0
933,214.53333333333333,214.62291666666667,62.0,79.0
934,214.53333333333333,214.63958333333332,66.0,82.0
935,214.7,214.75,62.0,37.0
936,214.86666666666667,214.93125,62.0,90.0
937,214.86666666666667,214.94166666666666,66.0,86.0
938,214.86666666666667,214.94375,57.0,74.0
939,214.2,215.17499999999998,50.0,74.0
940,215.2,215.37083333333334,59.0,92.0
941,215.2,215.38958333333332,68.0,92.0
942,215.2,215.40625,64.0,92.0
943,215.2,215.45833333333334,52.0,90.0
944,215.53333333333333,215.66041666666666,64.0,88.0
945,215.53333333333333,215.66875,68.0,92.0
946,215.86666666666667,215.99791666666667,59.0,86.0
947,216.2,216.325,64.0,81.0
948,216.2,216.32708333333332,57.0,92.0
949,216.2,216.32708333333332,61.0,96.0
950,216.53333333333333,216.60208333333333,64.0,67.0
951,216.53333333333333,216.60625,61.0,88.0
952,216.53333333333333,216.61666666666667,57.0,78.0
953,216.7,216.775,64.0,57.0
954,216.7,216.77708333333334,61.0,67.0
955,216.7,216.78125,57.0,48.0
956,216.86666666666667,216.93333333333334,61.0,66.0
957,216.86666666666667,216.93958333333333,57.0,49.0
958,216.86666666666667,216.94583333333333,64.0,60.0
959,216.2,216.98125,45.0,85.0
960,217.03333333333333,217.08541666666667,64.0,58.0
961,217.03333333333333,217.10208333333333,61.0,69.0
962,217.2,217.26458333333332,45.0,83.0
963,217.2,217.26666666666665,57.0,86.0
964,217.2,217.27291666666667,61.0,107.0
965,217.2,217.28333333333333,64.0,92.0
966,217.53333333333333,217.57708333333332,57.0,57.0
967,217.53333333333333,217.625,64.0,85.0
968,217.53333333333333,217.63333333333333,61.0,117.0
969,217.7,217.75416666666666,61.0,90.0
970,217.7,217.79583333333332,57.0,81.0
971,217.86666666666667,217.91666666666666,64.0,66.0
972,218.2,218.29791666666665,62.0,90.0
973,218.2,218.32083333333333,59.0,76.0
974,218.2,218.32291666666666,66.0,86.0
975,218.53333333333333,218.59375,62.0,85.0
976,218.53333333333333,218.60625,66.0,74.0
977,218.53333333333333,218.61041666666665,59.0,67.0
978,218.7,218.75833333333333,62.0,41.0
979,218.7,218.76041666666666,66.0,46.0
980,218.86666666666667,218.92916666666667,66.0,63.0
981,218.86666666666667,218.93541666666667,62.0,78.0
982,218.86666666666667,218.94791666666666,59.0,68.0
983,219.03333333333333,219.07708333333332,62.0,48.0
984,219.03333333333333,219.09166666666667,66.0,56.0
985,218.03333333333333,219.13333333333333,47.0,72.0
986,219.2,219.24375,59.0,73.0
987,219.2,219.27291666666667,62.0,102.0
988,219.2,219.275,54.0,99.0
989,219.2,219.27916666666667,66.0,96.0
990,219.53333333333333,219.5875,66.0,92.0
991,219.53333333333333,219.60833333333332,62.0,95.0
992,219.86666666666667,219.97291666666666,62.0,67.0
993,219.86666666666667,219.99375,66.0,43.0
994,220.2,220.30833333333334,62.0,86.0
995,220.2,220.31458333333333,59.0,74.0
996,220.2,220.31458333333333,66.0,69.0
997,220.53333333333333,220.57916666666665,66.0,82.0
998,220.53333333333333,220.59375,59.0,67.0
999,220.53333333333333,220.59375,62.0,90.0
1000,220.7,220.72916666666666,59.0,33.0
1001,220.7,220.75416666666666,62.0,51.0
1002,220.7,220.7625,66.0,42.0
1003,220.86666666666667,220.92916666666667,62.0,97.0
1004,220.86666666666667,220.93541666666667,66.0,78.0
1005,220.86666666666667,220.95416666666665,59.0,78.0
1006,221.03333333333333,221.0625,62.0,40.0
1007,221.03333333333333,221.075,66.0,50.0
1008,220.2,221.23333333333332,47.0,67.0
1009,221.2,221.25,54.0,77.0
1010,221.2,221.25833333333333,62.0,122.0
1011,221.2,221.26458333333332,66.0,97.0
1012,221.2,221.27083333333334,59.0,95.0
1013,221.53333333333333,221.58541666666667,66.0,71.0
1014,221.53333333333333,221.61875,62.0,89.0
1015,221.86666666666667,221.90625,66.0,50.0
1016,221.86666666666667,221.97083333333333,62.0,74.0
1017,222.2,222.38958333333332,50.0,102.0
1018,222.2,222.40416666666667,66.0,100.0
1019,222.2,222.41666666666666,57.0,96.0
1020,222.2,222.42708333333334,62.0,102.0
1021,222.53333333333333,222.71875,50.0,102.0
1022,222.53333333333333,222.73333333333332,57.0,97.0
1023,222.53333333333333,222.74166666666667,62.0,117.0
1024,222.53333333333333,222.74791666666667,66.0,122.0
1025,223.2,223.34583333333333,50.0,127.0
1026,223.2,223.41666666666666,66.0,112.0
1027,223.2,223.42916666666667,57.0,107.0
1028,223.2,223.42916666666667,62.0,102.0
1029,223.53333333333333,223.69166666666666,50.0,117.0
1030,223.53333333333333,223.7,62.0,112.0
1031,223.53333333333333,223.70624999999998,57.0,100.0
1032,223.53333333333333,223.70833333333334,66.0,117.0
1033,224.2,224.32916666666665,59.0,102.0
1034,224.2,224.33333333333334,64.0,127.0
1035,224.2,224.33333333333334,68.0,127.0
1036,224.2,224.34791666666666,52.0,127.0
1037,224.7,224.86249999999998,68.0,99.0
1038,224.7,224.87083333333334,59.0,99.0
1039,224.7,224.87083333333334,64.0,99.0
1040,224.7,224.8875,52.0,112.0
1041,225.2,225.36041666666665,52.0,112.0
1042,225.2,225.39374999999998,59.0,93.0
1043,225.2,225.40625,68.0,97.0
1044,225.2,225.42708333333334,64.0,99.0
1045,225.53333333333333,225.69166666666666,52.0,117.0
1046,225.53333333333333,225.70624999999998,59.0,90.0
1047,225.53333333333333,225.71875,68.0,97.0
1048,225.53333333333333,225.73749999999998,64.0,92.0
1049,225.86666666666667,226.08541666666667,59.0,99.0
1050,225.86666666666667,226.10625,64.0,97.0
1051,225.86666666666667,226.11458333333334,68.0,99.0
1052,225.86666666666667,226.11875,52.0,122.0
1053,226.7,226.9,57.0,97.0
1054,226.86666666666667,227.02291666666667,61.0,112.0
1055,227.03333333333333,227.20624999999998,57.0,99.0
1056,227.2,227.37708333333333,66.0,127.0
1057,226.53333333333333,227.38541666666666,54.0,102.0
1058,226.36666666666667,227.38958333333332,49.0,52.0
1059,226.2,227.49166666666667,42.0,99.0
1060,227.36666666666667,227.54999999999998,57.0,93.0
1061,227.53333333333333,227.6875,61.0,117.0
1062,227.7,227.8875,57.0,96.0
1063,227.86666666666667,228.08541666666667,66.0,117.0
1064,228.03333333333333,228.23125,61.0,127.0
1065,228.7,228.9125,52.0,97.0
1066,228.86666666666667,229.02291666666667,56.0,112.0
1067,229.03333333333333,229.20624999999998,52.0,92.0
1068,228.53333333333333,229.32083333333333,49.0,95.0
1069,229.2,229.35208333333333,61.0,127.0
1070,228.36666666666667,229.375,44.0,90.0
1071,228.2,229.46458333333334,37.0,96.0
1072,229.36666666666667,229.56666666666666,52.0,75.0
1073,229.53333333333333,229.6875,56.0,122.0
1074,229.7,229.96875,52.0,88.0
1075,229.86666666666667,230.08958333333334,61.0,122.0
1076,230.03333333333333,230.14583333333334,56.0,127.0
1077,230.7,230.8375,57.0,107.0
1078,230.53333333333333,230.90833333333333,50.0,97.0
1079,230.2,231.0125,38.0,83.0
1080,230.86666666666667,231.02291666666667,62.0,95.0
1081,230.36666666666667,231.13958333333332,45.0,107.0
1082,231.03333333333333,231.16666666666666,57.0,117.0
1083,231.53333333333333,231.66875,56.0,112.0
1084,231.2,231.72916666666666,40.0,97.0
1085,231.36666666666667,231.75,47.0,112.0
1086,231.7,231.86875,59.0,97.0
1087,231.86666666666667,232.0625,56.0,122.0
1088,232.03333333333333,232.15833333333333,59.0,95.0
1089,232.53333333333333,232.74583333333334,57.0,92.0
1090,232.7,232.90208333333334,61.0,102.0
1091,232.86666666666667,233.04791666666665,64.0,99.0
1092,233.03333333333333,233.20208333333332,61.0,122.0
1093,233.2,233.48749999999998,57.0,127.0
1094,233.36666666666667,233.50625,61.0,112.0
1095,232.2,233.875,45.0,88.0
1096,233.53333333333333,233.90416666666667,64.0,92.0
1097,233.7,234.00833333333333,57.0,92.0
1098,233.86666666666667,234.07916666666665,61.0,122.0
1099,232.36666666666667,234.125,52.0,82.0
1100,234.03333333333333,234.17083333333332,64.0,86.0
1101,234.53333333333333,234.72916666666666,59.0,96.0
1102,234.7,234.84375,62.0,74.0
1103,234.86666666666667,235.09375,59.0,92.0
1104,235.03333333333333,235.1375,62.0,88.0
1105,234.36666666666667,235.30833333333334,54.0,99.0
1106,235.2,235.44583333333333,66.0,122.0
1107,235.36666666666667,235.5625,59.0,86.0
1108,235.53333333333333,235.6875,62.0,89.0
1109,235.7,235.90625,59.0,93.0
1110,234.2,235.90833333333333,47.0,77.0
1111,235.86666666666667,236.1,66.0,99.0
1112,236.03333333333333,236.19583333333333,62.0,97.0
1113,236.53333333333333,236.72083333333333,59.0,92.0
1114,236.7,236.84791666666666,62.0,95.0
1115,236.86666666666667,237.0875,59.0,99.0
1116,237.03333333333333,237.13125,62.0,83.0
1117,236.36666666666667,237.28125,54.0,99.0
1118,236.2,237.38125,47.0,78.0
1119,237.2,237.47291666666666,66.0,127.0
1120,237.36666666666667,237.5875,62.0,74.0
1121,237.53333333333333,237.73125,59.0,92.0
1122,237.7,237.84166666666667,62.0,88.0
1123,237.86666666666667,238.05625,66.0,112.0
1124,238.03333333333333,238.17499999999998,62.0,96.0
1125,238.2,238.41458333333333,49.0,96.0
1126,238.2,238.4375,37.0,54.0
1127,238.2,238.44166666666666,65.0,81.0
1128,238.2,238.45416666666665,56.0,102.0
1129,238.2,238.45624999999998,44.0,100.0
1130,238.2,238.46458333333334,61.0,107.0
1131,238.53333333333333,238.72291666666666,65.0,60.0
1132,238.53333333333333,238.74583333333334,49.0,72.0
1133,238.53333333333333,238.75625,37.0,59.0
1134,238.53333333333333,238.75833333333333,44.0,69.0
1135,238.53333333333333,238.76041666666666,61.0,75.0
1136,238.53333333333333,238.76874999999998,56.0,90.0
1137,238.86666666666667,239.03958333333333,65.0,72.0
1138,238.86666666666667,239.04166666666666,61.0,82.0
1139,238.86666666666667,239.04583333333332,56.0,93.0
1140,238.86666666666667,239.06666666666666,49.0,81.0
1141,238.86666666666667,239.07916666666665,37.0,63.0
1142,238.86666666666667,239.0875,44.0,67.0
1143,239.2,239.68541666666667,37.0,76.0
1144,239.2,239.69166666666666,65.0,96.0
1145,239.2,239.69375,49.0,100.0
1146,239.2,239.71041666666667,56.0,112.0
1147,239.2,239.7125,61.0,122.0
1148,239.2,239.71666666666667,44.0,73.0
1149,239.86666666666667,240.11041666666665,49.0,90.0
1150,239.86666666666667,240.11041666666665,65.0,79.0
1151,239.86666666666667,240.11666666666667,37.0,67.0
1152,239.86666666666667,240.12708333333333,44.0,64.0
1153,239.86666666666667,240.13333333333333,56.0,100.0
1154,239.86666666666667,240.13333333333333,61.0,100.0
1155,240.2,240.4625,44.0,72.0
1156,240.2,240.46458333333334,61.0,122.0
1157,240.2,240.46666666666667,65.0,102.0
1158,240.2,240.47291666666666,56.0,117.0
1159,240.2,240.48541666666665,49.0,97.0
1160,240.2,240.50416666666666,37.0,78.0
1161,242.7,242.92708333333334,57.0,86.0
1162,242.86666666666667,243.02708333333334,61.0,112.0
1163,243.03333333333333,243.2,57.0,89.0
1164,243.2,243.35416666666666,66.0,127.0
1165,242.36666666666667,243.40833333333333,49.0,44.0
1166,242.53333333333333,243.4625,54.0,100.0
1167,242.2,243.52291666666667,42.0,95.0
1168,243.36666666666667,243.56458333333333,57.0,82.0
1169,243.53333333333333,243.69375,61.0,122.0
1170,243.7,243.88125,57.0,97.0
1171,243.86666666666667,244.05208333333334,66.0,122.0
1172,244.03333333333333,244.1875,61.0,127.0
1173,244.53333333333333,244.72708333333333,57.0,86.0
1174,244.7,244.84375,61.0,122.0
1175,244.86666666666667,245.10833333333332,57.0,107.0
1176,245.03333333333333,245.14374999999998,61.0,112.0
1177,245.2,245.4,64.0,107.0
1178,245.36666666666667,245.61249999999998,57.0,93.0
1179,245.53333333333333,245.68958333333333,61.0,117.0
1180,245.7,245.86041666666665,64.0,100.0
1181,244.2,245.88541666666666,45.0,86.0
1182,245.86666666666667,246.09583333333333,57.0,97.0
1183,244.36666666666667,246.11249999999998,52.0,96.0
1184,246.03333333333333,246.18333333333334,61.0,127.0
1185,246.53333333333333,246.69166666666666,59.0,95.0
1186,246.7,246.84166666666667,63.0,97.0
1187,246.86666666666667,247.02708333333334,59.0,97.0
1188,247.03333333333333,247.1625,66.0,127.0
1189,246.36666666666667,247.23749999999998,54.0,93.0
1190,247.2,247.39791666666667,59.0,112.0
1191,247.36666666666667,247.5125,63.0,127.0
1192,246.2,247.55208333333334,47.0,70.0
1193,247.53333333333333,247.70208333333332,59.0,90.0
1194,247.7,247.90416666666667,66.0,117.0
1195,247.86666666666667,248.075,63.0,127.0
1196,248.03333333333333,248.16875,59.0,102.0
1197,248.7,248.85625,57.0,99.0
1198,248.86666666666667,249.01041666666666,62.0,96.0
1199,249.03333333333333,249.19166666666666,57.0,112.0
1200,248.53333333333333,249.33333333333334,50.0,95.0
1201,248.2,249.37291666666667,38.0,77.0
1202,249.2,249.37708333333333,66.0,127.0
1203,248.36666666666667,249.38333333333333,45.0,99.0
1204,249.36666666666667,249.55625,57.0,89.0
1205,249.53333333333333,249.67291666666665,62.0,112.0
1206,249.7,249.9,57.0,99.0
1207,249.86666666666667,250.09583333333333,66.0,127.0
1208,250.03333333333333,250.16666666666666,62.0,102.0
1209,250.7,250.89583333333334,57.0,97.0
1210,250.86666666666667,251.01041666666666,61.0,122.0
1211,251.03333333333333,251.1625,57.0,107.0
1212,251.2,251.38541666666666,66.0,127.0
1213,251.36666666666667,251.52708333333334,57.0,93.0
1214,250.36666666666667,251.63541666666666,49.0,66.0
1215,251.53333333333333,251.65833333333333,61.0,127.0
1216,250.2,251.6625,42.0,83.0
1217,250.53333333333333,251.66458333333333,54.0,72.0
1218,251.7,251.85625,57.0,97.0
1219,251.86666666666667,252.075,66.0,127.0
1220,252.03333333333333,252.16666666666666,61.0,122.0
1221,252.53333333333333,252.68125,57.0,89.0
1222,252.7,252.86041666666665,61.0,107.0
1223,253.03333333333333,253.13958333333332,61.0,122.0
1224,252.86666666666667,253.15416666666667,57.0,102.0
1225,253.2,253.38125,64.0,100.0
1226,253.36666666666667,253.6,57.0,100.0
1227,253.53333333333333,253.75208333333333,61.0,127.0
1228,253.7,253.91458333333333,64.0,96.0
1229,252.2,253.93958333333333,45.0,82.0
1230,253.86666666666667,254.10833333333332,57.0,93.0
1231,252.36666666666667,254.11041666666665,52.0,93.0
1232,254.03333333333333,254.17499999999998,61.0,127.0
1233,254.53333333333333,254.68333333333334,59.0,97.0
1234,254.7,254.85625,63.0,112.0
1235,254.86666666666667,255.05625,59.0,102.0
1236,255.03333333333333,255.16458333333333,63.0,117.0
1237,255.2,255.41041666666666,66.0,127.0
1238,254.36666666666667,255.48125,54.0,102.0
1239,255.36666666666667,255.6,59.0,112.0
1240,254.2,255.60416666666666,47.0,83.0
1241,255.53333333333333,255.6875,63.0,127.0
1242,255.7,255.93958333333333,66.0,112.0
1243,255.86666666666667,256.08958333333334,63.0,127.0
1244,256.0333333333333,256.16875,59.0,100.0
1245,256.2,256.25,65.0,71.0
1246,256.2,256.2708333333333,37.0,63.0
1247,256.2,256.2708333333333,44.0,96.0
1248,256.2,256.2708333333333,61.0,117.0
1249,256.2,256.2729166666667,49.0,97.0
1250,256.2,256.27916666666664,56.0,112.0
1251,256.3666666666667,256.43541666666664,44.0,89.0
1252,256.3666666666667,256.43541666666664,65.0,53.0
1253,256.3666666666667,256.45,61.0,71.0
1254,256.3666666666667,256.4583333333333,49.0,97.0
1255,256.3666666666667,256.46875,56.0,71.0
1256,256.3666666666667,256.47291666666666,37.0,72.0
1257,256.7,256.76458333333335,65.0,72.0
1258,256.7,256.77916666666664,44.0,86.0
1259,256.7,256.78125,56.0,117.0
1260,256.7,256.7916666666667,49.0,95.0
1261,256.7,256.7916666666667,61.0,127.0
1262,256.7,256.8041666666667,37.0,55.0
1263,257.0333333333333,257.2104166666667,61.0,112.0
1264,257.0333333333333,257.21875,56.0,127.0
1265,257.0333333333333,257.21875,65.0,96.0
1266,257.0333333333333,257.2291666666667,49.0,100.0
1267,257.0333333333333,257.2375,44.0,78.0
1268,257.0333333333333,257.25625,37.0,79.0
1269,260.2083333333333,262.325,54.0,59.0
1270,260.22291666666666,262.33958333333334,49.0,49.0
1271,260.10625,262.3458333333333,61.0,55.0
1272,260.2083333333333,262.3625,57.0,69.0
1273,260.04375,262.37083333333334,64.0,66.0
1274,259.9875,262.38125,66.0,58.0
1275,260.1666666666667,262.41875,42.0,53.0
