,start,end,pitch,velocity
0,9.873967958333335,10.290800458333335,72.0,84.0
1,10.350347958333336,10.590522875000001,70.0,79.0
2,10.826727958333334,11.148284458333334,67.0,79.0
3,11.064917958333336,11.323949583333334,70.0,84.0
4,11.303107958333335,12.857297708333336,72.0,80.0
5,12.732247958333335,13.090525416666669,70.0,90.0
6,13.208627958333334,14.078021458333335,70.0,93.0
7,14.161387958333336,14.870003208333335,68.0,90.0
8,15.114147958333335,16.259444875000003,63.0,62.0
9,19.877947958333337,20.35234304166667,67.0,56.0
10,20.354327958333336,20.85849679166667,70.0,80.0
11,20.830707958333335,21.30510304166667,72.0,98.0
12,21.307087958333337,21.831105958333335,70.0,66.0
13,21.783467958333336,22.27671975,72.0,93.0
14,22.259847958333335,22.744167625000003,74.0,83.0
15,22.736227958333338,23.209630583333336,67.0,84.0
16,23.212607958333336,24.16338304166667,67.0,96.0
17,24.165367958333338,25.591530583333338,70.0,103.0
18,25.594507958333338,26.067910583333337,70.0,99.0
19,26.070887958333337,26.544290583333336,70.0,99.0
20,26.547267958333336,27.033572541666672,70.0,99.0
21,27.02364795833334,27.497050583333337,68.0,96.0
22,27.500027958333337,28.21261304166667,68.0,96.0
23,28.214597958333336,28.45080304166667,58.0,75.0
24,28.45278795833334,28.92718304166667,68.0,77.0
25,28.929167958333338,29.403563041666672,67.0,66.0
26,29.405547958333337,29.76084804166667,65.0,69.0
27,29.762832958333338,30.35632304166667,63.0,43.0
28,30.358307958333338,35.12012304166667,67.0,55.0
29,35.12210795833334,35.595510583333336,68.0,96.0
30,35.59848795833334,36.071890583333335,68.0,74.0
31,36.074867958333336,36.54926304166667,68.0,80.0
32,36.55124795833334,36.78745304166667,67.0,77.0
33,36.78943795833334,37.53576662500001,65.0,77.0
34,37.50400795833334,37.74021304166667,63.0,65.0
35,37.742197958333335,39.88392304166667,67.0,80.0
36,39.88590795833334,40.360303041666675,63.0,99.0
37,40.36228795833334,40.836683041666674,65.0,93.0
38,40.83866795833334,41.31306304166667,63.0,69.0
39,41.31504795833334,42.183449,67.0,99.0
40,42.26780795833334,43.81405804166667,65.0,89.0
41,43.69694795833334,44.233867916666675,67.0,94.0
42,44.17332795833334,44.64772304166667,65.0,96.0
43,44.64970795833334,45.18464300000001,63.0,75.0
44,45.126087958333336,50.364283041666674,65.0,94.0
45,50.36626795833334,50.63621662500001,67.0,90.0
46,50.60445795833334,51.31704304166667,70.0,97.0
47,51.31902795833334,51.79342304166667,72.0,105.0
48,51.79540795833334,52.26980304166668,70.0,86.0
49,52.27178795833334,52.790843666666674,72.0,100.0
50,52.74816795833334,53.260276458333344,74.0,99.0
51,53.22454795833334,53.69795058333334,67.0,84.0
52,53.70092795833334,54.65170304166667,67.0,93.0
53,54.65368795833334,56.07985058333334,70.0,98.0
54,56.08282795833334,56.55623058333334,70.0,108.0
55,56.55920795833334,57.032610583333344,70.0,105.0
56,57.035587958333345,57.56456825000001,70.0,106.0
57,57.511967958333344,57.98537058333334,68.0,91.0
58,58.46472795833334,58.70093304166667,58.0,83.0
59,57.98834795833334,58.820028041666674,68.0,95.0
60,58.94110795833334,59.415503041666675,68.0,76.0
61,59.41748795833334,59.85218470833334,67.0,86.0
62,59.893867958333345,60.36826304166667,65.0,87.0
63,60.370247958333344,60.84464304166668,63.0,66.0
64,60.84662795833334,61.126501208333345,67.0,66.0
65,61.08481795833334,61.322015500000006,65.0,55.0
66,61.32300795833334,65.60844304166667,67.0,65.0
67,65.61042795833335,66.08383058333334,68.0,96.0
68,66.08680795833334,66.56021058333334,68.0,80.0
69,66.56318795833334,67.03758304166668,68.0,86.0
70,67.03956795833334,67.51396304166667,67.0,82.0
71,67.51594795833334,67.99034304166668,65.0,89.0
72,67.99232795833335,68.46870795833334,63.0,67.0
73,68.46870795833334,68.94310304166667,67.0,87.0
74,68.94508795833335,69.89586304166667,70.0,81.0
75,69.89784795833334,70.84862304166667,75.0,108.0
76,70.85060795833334,71.32500304166668,77.0,106.0
77,71.32698795833335,71.83413416666667,79.0,92.0
78,71.80336795833334,72.27776304166667,75.0,106.0
79,72.27974795833335,74.18328304166668,72.0,98.0
80,74.18526795833334,74.73806725000001,79.0,111.0
81,74.66164795833335,75.13604304166668,77.0,106.0
82,75.13802795833334,75.37423304166667,75.0,101.0
83,75.37621795833334,75.56379258333334,77.0,101.0
84,75.61440795833335,76.56518304166667,77.0,93.0
85,76.56716795833334,77.99333058333335,79.0,98.0
86,77.99630795833335,78.94708304166667,79.0,101.0
87,78.94906795833334,79.89984304166668,77.0,106.0
88,79.90182795833334,80.37523058333335,75.0,105.0
89,80.37820795833335,80.85161058333334,75.0,99.0
90,80.85458795833334,81.32898304166667,75.0,99.0
91,81.33096795833335,81.80536304166668,70.0,93.0
92,81.80734795833334,82.28174304166667,75.0,100.0
93,82.28372795833334,82.51993304166668,77.0,101.0
94,82.52191795833335,83.71088304166668,79.0,108.0
95,83.71286795833335,84.18627058333334,74.0,111.0
96,84.18924795833334,84.66265058333335,74.0,92.0
97,84.66562795833335,85.14002304166668,74.0,96.0
98,85.14200795833335,85.61640304166667,70.0,101.0
99,85.61838795833334,86.10568500000001,74.0,108.0
100,86.09476795833335,86.33990516666668,75.0,103.0
101,86.33295795833335,88.47468304166668,77.0,108.0
102,88.47666795833335,88.95007058333334,79.0,114.0
103,88.95304795833334,89.42744304166668,79.0,100.0
104,89.42942795833335,89.92565712500001,80.0,98.0
105,89.90580795833334,90.38020304166668,79.0,91.0
106,90.38218795833335,90.86551516666668,75.0,87.0
107,90.85856795833335,91.80934304166668,77.0,99.0
108,91.81132795833335,93.23848304166668,79.0,106.0
109,93.24046795833334,94.19422041666668,79.0,98.0
110,94.19322795833335,95.14400304166668,77.0,99.0
111,95.14598795833335,95.61939058333334,75.0,109.0
112,95.62236795833334,96.09577058333335,75.0,95.0
113,96.09874795833335,96.57314304166668,75.0,99.0
114,96.57512795833334,97.04952304166667,70.0,96.0
115,97.05150795833335,97.56361645833334,75.0,103.0
116,97.52788795833335,97.76409304166668,77.0,108.0
117,97.76607795833334,98.95504304166668,79.0,109.0
118,98.95702795833334,99.43043058333335,74.0,101.0
119,99.43340795833335,99.90681058333335,74.0,103.0
120,99.90978795833335,100.38418304166667,74.0,98.0
121,100.38616795833335,100.86056304166668,70.0,93.0
122,100.86254795833335,101.33694304166669,74.0,101.0
123,101.33892795833334,101.81332304166668,75.0,101.0
124,101.81530795833335,102.05151304166668,77.0,90.0
125,102.05349795833335,102.76608304166668,79.0,79.0
126,102.76806795833335,103.24246304166668,75.0,97.0
127,103.24444795833335,104.43341304166668,72.0,90.0
128,104.43539795833335,104.67160304166669,70.0,98.0
129,104.67358795833334,105.14798304166668,80.0,95.0
130,105.14996795833335,105.62436304166668,79.0,96.0
131,105.62634795833335,106.10074304166668,75.0,96.0
132,106.10272795833335,106.57712304166668,72.0,98.0
133,106.57910795833335,108.48264304166668,70.0,93.0
134,108.48462795833335,109.43540304166669,79.0,108.0
135,109.43738795833335,110.38816304166669,77.0,109.0
136,110.39014795833334,110.86355058333335,75.0,108.0
137,110.86652795833335,111.33993058333336,75.0,99.0
138,111.34290795833336,111.81631058333335,75.0,98.0
139,111.81928795833335,112.29368304166668,75.0,97.0
140,112.29566795833335,112.81968595833335,74.0,100.0
141,112.77204795833335,113.00825304166668,75.0,97.0
142,113.01023795833335,114.19920304166668,70.0,90.0
143,114.20118795833335,114.71499981250001,67.0,90.0
144,114.67732835416668,118.93404240416668,72.0,103.0
145,118.93602652916667,119.20586752916667,67.0,90.0
146,119.17412152916667,119.88642240416667,70.0,97.0
147,119.88840652916667,120.36261240416667,72.0,105.0
148,120.36459652916668,120.83880240416667,70.0,86.0
149,120.84078652916666,121.35963521666667,72.0,100.0
150,121.31697652916667,121.82888077916667,74.0,99.0
151,121.79316652916667,122.26638034166668,67.0,84.0
152,122.26935652916667,123.21975240416667,67.0,93.0
153,123.22173652916668,124.64733034166667,70.0,98.0
154,124.65030652916667,125.12352034166668,70.0,108.0
155,125.12649652916667,125.36260740416667,70.0,105.0
156,125.36459152916667,126.07689240416667,70.0,106.0
157,126.07887652916668,126.31498740416667,68.0,91.0
158,126.31697152916666,127.26736740416668,68.0,95.0
159,127.26935152916667,127.50546240416668,58.0,83.0
160,127.50744652916667,127.98165240416667,68.0,76.0
161,127.98363652916667,128.45784240416668,67.0,86.0
162,128.45982652916666,128.93403240416666,65.0,87.0
163,128.93601652916666,129.41022240416666,63.0,66.0
164,129.41220652916667,129.69196815416666,67.0,66.0
165,129.65030152916668,129.88740446666668,65.0,55.0
166,129.88839652916667,134.17212240416666,67.0,65.0
167,134.17410652916666,134.64831240416666,68.0,104.0
168,134.65029652916667,135.12450240416666,68.0,96.0
169,135.12648652916667,136.07589034166668,70.0,100.0
170,136.07886652916667,136.55307240416667,70.0,93.0
171,136.55505652916668,137.02926240416667,74.0,101.0
172,137.03124652916668,137.51934127916667,75.0,105.0
173,137.50743652916668,138.45783240416668,77.0,98.0
174,138.4598165291667,139.36953784166667,79.0,106.0
175,139.41219652916666,139.90326746666668,77.0,97.0
176,139.88838652916667,140.48163990416668,75.0,97.0
177,140.36457652916667,140.87747284166667,79.0,108.0
178,140.84076652916667,141.07687740416668,75.0,108.0
179,141.07886152916666,142.74354240416667,77.0,108.0
180,142.74552652916668,143.21973240416668,79.0,94.0
181,143.22171652916668,143.69592240416668,80.0,96.0
182,143.6979065291667,144.17211240416668,82.0,97.0
183,144.17409652916666,144.41020740416667,79.0,90.0
184,144.41219152916668,147.50544240416667,82.0,105.0
185,147.50742652916668,148.45782240416668,84.0,108.0
186,148.45980652916668,150.37237875208334,82.0,108.0
187,150.37347935,150.77563076250001,82.0,101.0
188,150.91845095000002,151.35204329583334,80.0,100.0
189,151.5039564291667,151.96137913333334,79.0,90.0
190,151.8089827625,152.43663387083336,75.0,74.0
191,152.76502501250005,153.23842763750005,75.0,109.0
192,152.2791030625,153.23942009583337,77.0,95.0
193,153.24140501250005,153.71480763750006,75.0,95.0
194,153.71778501250006,154.19218009583338,75.0,99.0
195,154.19416501250004,154.66856009583339,70.0,96.0
196,154.67054501250004,155.1449400958334,75.0,103.0
197,155.14692501250005,155.3831300958334,77.0,108.0
198,155.38511501250005,156.57408009583338,79.0,109.0
199,156.57606501250004,157.04946763750004,74.0,101.0
200,157.05244501250004,157.52584763750005,74.0,103.0
201,157.52882501250005,158.00322009583337,74.0,98.0
202,158.00520501250006,158.47960009583338,70.0,93.0
203,158.48158501250003,158.95598009583338,74.0,101.0
204,158.95796501250004,159.19417009583339,75.0,101.0
205,159.19615501250004,161.33788009583338,77.0,90.0
206,161.33986501250004,161.81326763750005,79.0,97.0
207,161.81624501250005,162.2906400958334,79.0,99.0
208,162.29262501250005,162.76702009583337,80.0,98.0
209,162.76900501250006,163.24340009583338,79.0,99.0
210,163.24538501250004,163.72771976250004,75.0,97.0
211,163.72176501250004,164.67254009583337,77.0,108.0
212,164.67452501250006,166.10068763750004,79.0,63.0
213,166.10366501250004,167.09314597083338,79.0,96.0
214,167.05642501250006,168.00720009583338,77.0,96.0
215,168.00918501250004,168.48258763750005,75.0,105.0
216,168.48556501250005,168.95896763750005,75.0,94.0
217,168.96194501250005,169.43634009583337,75.0,99.0
218,169.43832501250006,169.91272009583338,70.0,87.0
219,169.91470501250006,170.38910009583338,75.0,103.0
220,170.39108501250004,170.6272900958334,77.0,105.0
221,170.62927501250005,171.81824009583337,79.0,105.0
222,171.82022501250006,172.29362763750004,74.0,103.0
223,172.29660501250004,172.77000763750004,74.0,97.0
224,172.77298501250004,173.2473800958334,74.0,99.0
225,173.24936501250005,173.72376009583337,70.0,99.0
226,173.72574501250006,174.22197417916672,74.0,103.0
227,174.20212501250006,174.67552763750004,75.0,99.0
228,174.67850501250004,174.91471009583339,75.0,97.0
229,174.91669501250004,175.65806138750006,77.0,100.0
230,175.63126501250005,176.12352434583337,75.0,93.0
231,176.10764501250006,176.34583501250006,72.0,91.0
232,176.34583501250006,176.58204009583338,70.0,91.0
233,176.58402501250004,177.2966100958334,68.0,91.0
234,177.29859501250004,177.5348000958334,70.0,66.0
235,177.53678501250005,178.0111800958334,80.0,87.0
236,178.01316501250005,178.46671847083337,79.0,91.0
237,178.48954501250006,178.96394009583338,75.0,90.0
238,178.96592501250007,181.34584009583338,70.0,91.0
239,181.34782501250004,182.3075322208334,79.0,109.0
240,182.30058501250005,183.25136009583338,77.0,100.0
241,183.25334501250006,183.72774009583338,75.0,100.0
242,183.72972501250004,184.20312763750005,75.0,98.0
243,184.20610501250005,184.67950763750005,75.0,96.0
244,184.68248501250005,185.1568800958334,75.0,96.0
245,185.15886501250006,185.63326009583338,74.0,98.0
246,185.63524501250004,186.10964009583338,75.0,97.0
247,186.11162501250004,187.06240009583337,70.0,75.0
248,187.06438501250005,187.38991134583338,67.0,96.0
249,187.54076501250006,189.2061100958334,72.0,101.0
250,188.96990501250005,190.00603151250004,79.0,106.0
251,189.92266501250006,190.8734400958334,77.0,97.0
252,190.87542501250005,191.3498200958334,75.0,97.0
253,191.35180501250005,191.82620009583337,75.0,97.0
254,191.82818501250006,192.30158763750006,75.0,90.0
255,192.30456501250006,192.77896009583338,75.0,91.0
256,192.78094501250007,193.2851138458334,74.0,90.0
257,193.25732501250005,193.7317200958334,75.0,66.0
258,193.73370501250005,194.68448009583338,70.0,61.0
259,194.68646501250004,195.29087213750006,67.0,96.0
260,195.16284501250004,198.13823509583338,72.0,105.0
261,212.31299650000005,213.26377158333338,79.0,99.0
262,213.26575650000004,214.21653158333336,77.0,106.0
263,214.21851650000005,214.69291158333337,75.0,109.0
264,214.69489650000003,215.16929158333338,75.0,95.0
265,215.17127650000003,215.64567158333338,75.0,99.0
266,215.64765650000004,216.12205158333336,70.0,96.0
267,216.12403650000005,216.59843158333337,75.0,103.0
268,216.60041650000005,217.07481158333337,77.0,108.0
269,217.07679650000003,218.02757158333338,79.0,109.0
270,218.02955650000004,218.50295912500005,74.0,101.0
271,218.50593650000005,218.98033158333337,74.0,103.0
272,218.98231650000005,219.45671158333337,74.0,98.0
273,219.45869650000003,219.93309158333338,70.0,93.0
274,219.93507650000004,220.40947158333339,74.0,101.0
275,220.41145650000004,220.6476615833334,75.0,101.0
276,220.64964650000005,222.7913715833334,77.0,90.0
277,222.79335650000004,223.26675912500005,79.0,105.0
278,223.26973650000005,223.74413158333337,79.0,99.0
279,223.74611650000003,224.22051158333338,80.0,97.0
280,224.22249650000003,224.69689158333338,79.0,100.0
281,224.69887650000004,225.1891509166667,75.0,103.0
282,225.17525650000005,225.88784158333337,77.0,109.0
283,225.88982650000003,227.55417912500005,79.0,100.0
284,227.55715650000005,228.52083354166672,79.0,109.0
285,228.50991650000003,229.46069158333339,77.0,109.0
286,229.46267650000004,229.93707158333336,79.0,106.0
287,229.93905650000005,230.41245912500005,75.0,93.0
288,230.41543650000006,230.88983158333338,75.0,89.0
289,230.89181650000003,231.36621158333338,70.0,101.0
290,231.36819650000004,231.8425915833334,75.0,109.0
291,231.84457650000004,232.31897158333337,77.0,103.0
292,232.32095650000005,233.27173158333338,79.0,98.0
293,233.27371650000003,233.62802412500005,74.0,109.0
294,233.63100150000005,234.22349912500005,74.0,98.0
295,234.22647650000005,234.70087158333337,74.0,100.0
296,234.70285650000005,235.17725158333337,70.0,100.0
297,235.17923650000003,235.65363158333338,79.0,103.0
298,235.65561650000004,236.13001158333338,77.0,99.0
299,236.13199650000004,236.6063915833334,79.0,106.0
300,236.60837650000005,237.08177912500005,82.0,97.0
301,237.08475650000005,237.82314550000004,82.0,97.0
302,237.79932650000003,238.82949825000003,75.0,90.0
303,238.75208650000005,238.98829158333336,70.0,84.0
304,238.99027650000005,239.46467158333337,84.0,92.0
305,239.46665650000006,239.94005912500003,82.0,93.0
306,239.94303650000003,240.4273561666667,82.0,97.0
307,240.41941650000004,240.9057210833334,79.0,93.0
308,240.89579650000005,242.79833912500004,82.0,106.0
309,242.80131650000004,244.82295412500005,82.0,111.0
310,244.82593150000005,245.27353020833337,82.0,96.0
311,245.18321650000004,245.65661912500005,80.0,86.0
312,245.65959650000005,246.13299912500005,80.0,79.0
313,246.13597650000003,246.60937912500003,80.0,69.0
314,246.61235650000003,247.08675158333338,80.0,78.0
315,247.08873650000004,247.57801845833336,79.0,77.0
316,247.56511650000004,248.15860658333338,77.0,66.0
317,248.16059150000004,249.46865158333338,75.0,57.0
318,249.47063650000004,249.74455500000005,79.0,79.0
319,249.70882650000004,250.06412658333338,75.0,53.0
320,250.06611150000003,253.71240341666672,77.0,63.0
