,start,end,pitch,velocity
0,1.6177070833333336,1.862844291666667,70.0,55.0
1,1.6941263750000002,2.485115666666667,74.0,37.0
2,1.7755079583333335,2.728267958333334,79.0,69.0
3,2.728267958333334,3.2800747916666673,77.0,73.0
4,1.7755079583333335,3.3287052500000005,56.0,53.0
5,3.681027958333334,3.9976221666666674,75.0,82.0
6,4.157407958333334,4.47201725,75.0,76.0
7,3.681027958333334,4.563323416666667,51.0,68.0
8,4.157407958333334,4.5851575,58.0,59.0
9,4.633787958333334,5.100243375000001,75.0,75.0
10,4.633787958333334,5.228270500000001,63.0,43.0
11,5.110167958333334,5.594487625000001,70.0,71.0
12,5.586547958333334,6.096671541666668,75.0,80.0
13,6.062927958333334,6.3646352916666675,77.0,76.0
14,5.110167958333334,6.734822250000001,65.0,60.0
15,6.5393079583333344,6.736807166666668,67.0,71.0
16,6.301117958333334,6.941253583333334,79.0,74.0
17,7.253877958333335,7.443437500000001,65.0,63.0
18,7.372972958333334,7.539705958333334,70.0,72.0
19,7.492067958333334,7.740182541666668,74.0,84.0
20,7.968447958333335,8.326725416666667,74.0,76.0
21,8.444827958333335,8.929147625,74.0,79.0
22,7.492067958333334,9.00953675,50.0,73.0
23,7.968447958333335,9.030378375000002,58.0,56.0
24,8.921207958333335,9.444233500000001,70.0,62.0
25,8.444827958333335,9.643717625,62.0,58.0
26,9.397587958333334,9.903741708333335,74.0,82.0
27,9.873967958333335,10.117120250000001,75.0,79.0
28,9.397587958333334,10.437684291666669,65.0,52.0
29,10.350347958333336,10.652055291666668,58.0,61.0
30,10.112157958333334,10.916049208333336,77.0,82.0
31,11.303107958333335,11.74772929166667,44.0,68.0
32,11.303107958333335,12.264800083333336,68.0,69.0
33,11.779487958333336,12.354121333333335,56.0,59.0
34,12.255867958333335,12.907913083333336,79.0,76.0
35,12.732247958333335,12.907913083333336,79.0,80.0
36,13.208627958333334,13.655234208333335,80.0,83.0
37,13.685007958333335,14.081991291666668,79.0,75.0
38,12.255867958333335,14.329113416666669,60.0,60.0
39,12.732247958333335,14.337053083333336,63.0,50.0
40,14.161387958333336,14.633798125000002,77.0,79.0
41,14.161387958333336,14.756862958333336,67.0,40.0
42,15.114147958333335,16.506567000000004,60.0,49.0
43,15.114147958333335,16.515499125,56.0,58.0
44,15.114147958333335,16.554205000000003,51.0,54.0
45,17.138762958333334,17.292594,44.0,5.0
46,18.925187958333336,19.436304000000003,75.0,39.0
47,18.925187958333336,19.452183333333338,70.0,49.0
48,18.925187958333336,19.45913054166667,67.0,26.0
49,19.877947958333337,20.35829779166667,75.0,59.0
50,19.877947958333337,20.436702000000004,70.0,62.0
51,19.877947958333337,20.45357379166667,67.0,53.0
52,20.830707958333335,21.46687375,70.0,59.0
53,20.830707958333335,21.479775708333335,67.0,57.0
54,20.830707958333335,21.536345833333336,75.0,62.0
55,18.925187958333336,22.151670000000003,51.0,54.0
56,21.783467958333336,22.164571958333337,75.0,69.0
57,21.783467958333336,22.203277833333335,70.0,71.0
58,21.783467958333336,22.215187333333336,67.0,61.0
59,22.259847958333335,22.39184491666667,51.0,71.0
60,22.736227958333338,23.163977500000005,74.0,75.0
61,22.736227958333338,23.25230629166667,70.0,62.0
62,22.736227958333338,23.26719316666667,65.0,58.0
63,23.688987958333335,24.102843083333337,74.0,59.0
64,23.688987958333335,24.123684708333336,65.0,38.0
65,23.688987958333335,24.146511250000003,70.0,52.0
66,24.641747958333337,25.82773566666667,74.0,51.0
67,24.641747958333337,25.87239629166667,70.0,41.0
68,24.641747958333337,25.947823125000003,65.0,28.0
69,22.736227958333338,25.980574250000004,50.0,71.0
70,26.547267958333336,27.032580083333336,68.0,57.0
71,26.547267958333336,27.064338750000005,63.0,48.0
72,26.547267958333336,27.082203000000003,72.0,58.0
73,27.500027958333337,27.918845375000004,68.0,71.0
74,27.500027958333337,27.94167191666667,63.0,47.0
75,27.500027958333337,27.969460750000003,72.0,56.0
76,26.547267958333336,28.505388250000003,56.0,55.0
77,28.45278795833334,28.981768250000005,68.0,62.0
78,28.45278795833334,28.99268529166667,72.0,42.0
79,28.45278795833334,29.001617416666672,63.0,32.0
80,29.405547958333337,29.759855583333337,63.0,56.0
81,29.405547958333337,29.761840500000005,68.0,75.0
82,29.405547958333337,29.82535783333334,72.0,58.0
83,30.358307958333338,31.17510116666667,67.0,47.0
84,30.358307958333338,31.382524958333338,55.0,58.0
85,30.358307958333338,31.399396750000005,70.0,62.0
86,30.358307958333338,31.423215750000004,74.0,59.0
87,34.16934795833334,34.603052250000005,68.0,76.0
88,34.16934795833334,34.609007000000005,65.0,63.0
89,34.16934795833334,34.640765666666674,72.0,75.0
90,35.12210795833334,35.56275945833334,68.0,72.0
91,35.12210795833334,35.57268404166667,65.0,53.0
92,35.12210795833334,35.63421645833334,72.0,60.0
93,34.16934795833334,35.92897658333334,53.0,68.0
94,36.074867958333336,36.487730625000005,70.0,71.0
95,36.074867958333336,36.62468987500001,63.0,63.0
96,36.074867958333336,36.62568233333334,72.0,52.0
97,36.43215295833334,36.72989045833334,68.0,2.0
98,37.02762795833334,37.43850570833334,74.0,72.0
99,37.02762795833334,37.505000416666675,65.0,62.0
100,37.02762795833334,37.517902375000006,70.0,67.0
101,36.074867958333336,37.69356750000001,58.0,69.0
102,37.98038795833334,38.50639087500001,67.0,55.0
103,37.98038795833334,38.526240041666675,70.0,55.0
104,37.98038795833334,38.54807412500001,75.0,61.0
105,37.98038795833334,39.198134333333336,63.0,37.0
106,38.933147958333336,39.408535500000006,70.0,62.0
107,38.933147958333336,39.43930170833334,67.0,58.0
108,38.933147958333336,39.484954791666674,75.0,51.0
109,39.40952795833334,40.007980333333336,63.0,42.0
110,39.88590795833334,40.294800791666674,65.0,47.0
111,39.88590795833334,40.329536833333336,70.0,67.0
112,39.88590795833334,40.348393541666674,67.0,57.0
113,39.88590795833334,40.383129583333336,75.0,48.0
114,40.83866795833334,40.98852916666667,72.0,51.0
115,40.83866795833334,41.300161083333336,65.0,69.0
116,37.98038795833334,41.30611583333334,51.0,39.0
117,40.83866795833334,41.32001025,67.0,73.0
118,40.83866795833334,41.32001025,70.0,79.0
119,40.83866795833334,41.36169350000001,75.0,73.0
120,41.31504795833334,41.410323958333336,63.0,69.0
121,41.79142795833334,42.39087279166667,68.0,76.0
122,41.79142795833334,42.54073400000001,73.0,80.0
123,41.79142795833334,42.54470383333334,65.0,75.0
124,41.79142795833334,43.064752000000006,61.0,63.0
125,42.74418795833334,43.17987716666667,68.0,76.0
126,42.74418795833334,43.241409583333336,73.0,71.0
127,42.74418795833334,43.24537941666667,65.0,57.0
128,43.22056795833334,44.08499916666667,61.0,58.0
129,41.79142795833334,44.184245000000004,49.0,75.0
130,43.69694795833334,44.342045875000004,68.0,78.0
131,43.69694795833334,44.39960845833334,73.0,80.0
132,43.69694795833334,44.413502875000006,65.0,69.0
133,44.64970795833334,45.050661125000005,68.0,84.0
134,44.64970795833334,45.050661125000005,73.0,81.0
135,44.64970795833334,45.06654045833334,65.0,78.0
136,44.64970795833334,45.07448012500001,61.0,58.0
137,44.64970795833334,45.156854166666676,49.0,68.0
138,45.126087958333336,45.156854166666676,49.0,86.0
139,45.61437745833334,46.931369666666676,58.0,56.0
140,45.611400083333336,46.96114341666667,70.0,76.0
141,45.61536991666667,46.987939791666676,77.0,60.0
142,45.611400083333336,46.99091716666668,65.0,58.0
143,45.60147550000001,47.01572862500001,74.0,73.0
144,47.42263654166668,48.331728375000004,74.0,30.0
145,47.33827758333334,48.35653983333334,70.0,53.0
146,47.291632041666674,48.36150212500001,65.0,47.0
147,45.598498125000006,48.40616275000001,46.0,72.0
148,47.49210862500001,48.48158958333334,77.0,59.0
149,49.41350795833334,50.146934666666674,67.0,82.0
150,49.41350795833334,50.146934666666674,70.0,86.0
151,49.41350795833334,50.159836625000004,75.0,84.0
152,50.36626795833334,51.09076254166667,75.0,90.0
153,50.36626795833334,51.09274745833334,67.0,84.0
154,50.36626795833334,51.10961925000001,70.0,90.0
155,51.31902795833334,52.09612283333334,75.0,86.0
156,51.31902795833334,52.097115291666675,67.0,82.0
157,51.31902795833334,52.10207758333334,70.0,86.0
158,49.41350795833334,52.55860841666667,51.0,83.0
159,52.27178795833334,52.809700375000006,75.0,90.0
160,52.27178795833334,52.83947412500001,70.0,90.0
161,52.27178795833334,52.84840625000001,67.0,90.0
162,49.41350795833334,52.85833083333334,39.0,95.0
163,52.74816795833334,53.20569125000001,51.0,76.0
164,53.22454795833334,53.94308779166668,77.0,78.0
165,53.22454795833334,53.97782383333334,65.0,91.0
166,53.22454795833334,53.99668054166668,74.0,84.0
167,53.22454795833334,53.99965791666668,70.0,91.0
168,54.177307958333344,54.86905141666667,65.0,78.0
169,54.177307958333344,54.879968458333344,70.0,84.0
170,54.177307958333344,54.904779916666676,74.0,84.0
171,55.13006795833334,55.879374000000006,65.0,82.0
172,55.13006795833334,55.88731366666668,70.0,90.0
173,55.13006795833334,55.904185458333345,74.0,86.0
174,53.22454795833334,56.39148250000001,50.0,90.0
175,56.08282795833334,56.58104204166668,70.0,90.0
176,56.08282795833334,56.610815791666674,74.0,90.0
177,56.08282795833334,56.62868004166668,65.0,83.0
178,56.55920795833334,56.99588962500001,50.0,84.0
179,57.035587958333345,57.81367529166668,68.0,94.0
180,57.035587958333345,57.814667750000005,63.0,86.0
181,57.035587958333345,57.84841133333334,72.0,84.0
182,57.98834795833334,58.728721875000005,63.0,86.0
183,57.98834795833334,58.75254087500001,68.0,91.0
184,57.98834795833334,58.75750316666667,72.0,82.0
185,58.94110795833334,59.74102937500001,63.0,83.0
186,58.94110795833334,59.745991666666676,68.0,93.0
187,58.94110795833334,59.75492379166668,72.0,80.0
188,57.035587958333345,60.22634150000001,44.0,98.0
189,59.893867958333345,60.44468233333334,63.0,90.0
190,59.893867958333345,60.461554125000006,68.0,94.0
191,59.893867958333345,60.506214750000005,72.0,84.0
192,60.370247958333344,60.78112570833334,44.0,91.0
193,60.84662795833334,61.58600941666668,74.0,91.0
194,60.84662795833334,61.62372283333334,65.0,86.0
195,60.84662795833334,61.62372283333334,70.0,86.0
196,61.79938795833334,62.343255125000006,74.0,84.0
197,61.79938795833334,62.44845570833334,70.0,86.0
198,61.79938795833334,62.44944816666668,65.0,84.0
199,62.75214795833334,63.29303775000001,74.0,84.0
200,62.75214795833334,63.29601512500001,70.0,84.0
201,62.75214795833334,63.35953245833334,65.0,84.0
202,60.84662795833334,63.568941166666676,43.0,86.0
203,63.704907958333344,64.23984300000001,69.0,90.0
204,63.704907958333344,64.24778266666668,73.0,79.0
205,63.704907958333344,64.27160166666667,64.0,84.0
206,63.704907958333344,64.30435279166667,42.0,84.0
207,64.65766795833335,65.40498908333335,65.0,86.0
208,64.65766795833335,65.40498908333335,68.0,86.0
209,64.65766795833335,65.41689858333335,75.0,83.0
210,64.65766795833335,65.42086841666668,72.0,83.0
211,65.61042795833335,66.34186975000001,65.0,83.0
212,65.61042795833335,66.34484712500002,68.0,86.0
213,65.61042795833335,66.35278679166667,75.0,84.0
214,65.61042795833335,66.36668120833335,72.0,81.0
215,64.65766795833335,66.55822566666667,41.0,86.0
216,66.56318795833334,67.18645179166667,65.0,84.0
217,66.56318795833334,67.23111241666668,72.0,86.0
218,66.56318795833334,67.23905208333335,68.0,90.0
219,66.56318795833334,67.88514245833335,46.0,82.0
220,67.51594795833334,68.04294333333334,63.0,90.0
221,67.51594795833334,68.11638525000001,72.0,82.0
222,67.51594795833334,68.11737770833334,68.0,93.0
223,67.99232795833335,68.36053000000001,46.0,86.0
224,68.46870795833334,68.89248766666668,39.0,90.0
225,68.46870795833334,68.964937125,75.0,90.0
226,68.46870795833334,69.00066562500001,70.0,93.0
227,68.46870795833334,69.02349216666667,67.0,93.0
228,68.46870795833334,69.10983604166668,51.0,83.0
229,69.42146795833334,69.85814962500001,74.0,99.0
230,69.42146795833334,69.98121445833334,50.0,90.0
231,69.42146795833334,69.98518429166667,65.0,91.0
232,69.42146795833334,69.99312395833334,70.0,94.0
233,70.37422795833335,71.08879795833334,75.0,91.0
234,70.37422795833335,71.11261695833335,67.0,86.0
235,70.37422795833335,71.14636054166668,72.0,86.0
236,70.37422795833335,71.54830616666668,60.0,83.0
237,70.37422795833335,71.70312966666668,48.0,86.0
238,71.32698795833335,71.71404670833334,75.0,86.0
239,71.32698795833335,71.858945625,67.0,86.0
240,71.32698795833335,71.88375708333335,72.0,90.0
241,71.80336795833334,71.89467412500001,60.0,74.0
242,71.80336795833334,71.92147050000001,48.0,86.0
243,72.27974795833335,72.98836320833334,69.0,86.0
244,72.27974795833335,72.98935566666668,65.0,90.0
245,72.27974795833335,73.02706908333334,72.0,82.0
246,72.27974795833335,73.03302383333335,75.0,91.0
247,72.27974795833335,73.496501875,57.0,105.0
248,73.23250795833334,73.74362400000001,69.0,84.0
249,73.23250795833334,73.74461645833334,75.0,82.0
250,73.23250795833334,73.75255612500001,72.0,75.0
251,73.23250795833334,73.75652595833334,65.0,86.0
252,73.70888795833335,74.458194,57.0,75.0
253,74.18526795833334,74.681497125,65.0,90.0
254,74.18526795833334,74.70035383333334,69.0,82.0
255,74.18526795833334,74.70432366666668,75.0,79.0
256,74.18526795833334,74.73707479166667,72.0,79.0
257,72.27974795833335,75.36827829166668,45.0,109.0
258,74.66164795833335,75.39705958333334,57.0,71.0
259,75.13802795833334,75.53997358333335,72.0,86.0
260,75.13802795833334,75.55486045833334,69.0,98.0
261,75.13802795833334,75.56676995833334,75.0,94.0
262,75.13802795833334,75.59257387500001,67.0,91.0
263,75.61440795833335,75.73449541666668,45.0,84.0
264,76.09078795833335,76.49670341666668,58.0,80.0
265,76.09078795833335,76.63167775000001,75.0,82.0
266,76.09078795833335,76.63267020833334,72.0,86.0
267,76.09078795833335,76.65748166666668,63.0,101.0
268,76.09078795833335,76.81726745833335,68.0,76.0
269,76.68626295833334,77.22417537500002,58.0,54.0
270,77.04354795833335,77.41869720833334,75.0,84.0
271,77.04354795833335,77.45244079166667,68.0,101.0
272,77.04354795833335,77.51893550000001,63.0,98.0
273,76.09078795833335,77.52687516666668,46.0,93.0
274,77.04354795833335,77.54771679166667,72.0,84.0
275,77.51992795833334,77.62810591666668,58.0,90.0
276,77.99630795833335,78.35061558333335,58.0,84.0
277,77.99630795833335,78.46474829166668,74.0,94.0
278,77.99630795833335,78.52826562500002,65.0,86.0
279,77.99630795833335,78.53422037500002,70.0,94.0
280,78.47268795833334,78.62056425000002,58.0,72.0
281,77.99630795833335,78.68110420833334,46.0,90.0
282,78.94906795833334,79.16443141666667,75.0,83.0
283,78.94906795833334,79.41453091666668,48.0,84.0
284,78.94906795833334,79.5197315,68.0,94.0
285,79.42544795833335,79.52667870833335,50.0,98.0
286,78.94906795833334,79.56538458333334,63.0,96.0
287,78.94906795833334,79.60607537500002,72.0,84.0
288,79.90182795833334,80.34843420833334,75.0,94.0
289,79.90182795833334,80.35736633333335,70.0,95.0
290,79.90182795833334,80.37324566666668,67.0,93.0
291,80.61639795833335,80.78511587500002,67.0,69.0
292,80.37820795833335,80.89924858333335,63.0,80.0
293,80.85458795833334,81.16324250000001,67.0,84.0
294,80.85458795833334,81.18507658333334,70.0,91.0
295,80.85458795833334,81.19003887500001,75.0,95.0
296,80.14001795833335,81.23966179166668,58.0,79.0
297,81.09277795833334,81.47189704166668,63.0,78.0
298,79.90182795833334,81.49670850000001,51.0,86.0
299,81.33096795833335,81.51358029166668,74.0,90.0
300,81.33096795833335,81.51755012500001,67.0,78.0
301,81.56915795833335,81.666418875,67.0,72.0
302,81.56915795833335,81.79742337500001,58.0,78.0
303,81.56915795833335,82.327396125,75.0,82.0
304,82.16463295833334,82.34029808333335,67.0,1.0
305,81.56915795833335,82.35617741666668,70.0,83.0
306,82.52191795833335,82.69162833333334,67.0,78.0
307,82.28372795833334,82.85538395833335,63.0,80.0
308,82.76010795833335,83.06677758333335,67.0,84.0
309,82.76010795833335,83.077694625,75.0,95.0
310,82.76010795833335,83.08464183333335,70.0,90.0
311,82.99829795833334,83.24244270833334,63.0,79.0
312,83.23648795833334,83.30397512500001,70.0,57.0
313,81.80734795833334,83.37443966666667,51.0,91.0
314,82.04553795833334,83.39726620833335,58.0,78.0
315,83.23648795833334,83.43894945833334,67.0,82.0
316,83.47467795833334,83.62553162500001,75.0,90.0
317,83.71286795833335,84.17932337500001,74.0,86.0
318,83.71286795833335,84.23688595833335,70.0,90.0
319,83.71286795833335,84.24085579166668,65.0,84.0
320,84.42743795833334,84.56638212500002,65.0,76.0
321,84.18924795833334,84.71326595833335,62.0,72.0
322,83.95105795833335,84.71624333333334,58.0,72.0
323,84.66562795833335,85.00504870833335,65.0,84.0
324,84.90381795833335,85.007033625,58.0,80.0
325,84.66562795833335,85.01100345833335,70.0,86.0
326,84.66562795833335,85.01497329166668,74.0,90.0
327,83.71286795833335,85.02192050000001,50.0,95.0
328,85.14200795833335,85.41989629166667,65.0,60.0
329,85.14200795833335,85.557848,72.0,81.0
330,85.38019795833334,85.58662929166668,48.0,76.0
331,85.61838795833334,86.01834866666668,46.0,86.0
332,85.85657795833335,86.08087354166668,53.0,78.0
333,86.09476795833335,86.33891270833334,58.0,68.0
334,85.61838795833334,86.50266833333335,70.0,90.0
335,85.61838795833334,86.59198958333334,74.0,90.0
336,85.61838795833334,86.59992925000002,65.0,84.0
337,86.57114795833334,86.85995333333335,62.0,81.0
338,86.33295795833335,86.88476479166668,60.0,78.0
339,86.80933795833334,86.96614637500001,65.0,83.0
340,87.04752795833335,87.20731375000001,70.0,86.0
341,87.28571795833335,87.33137104166669,70.0,54.0
342,87.28571795833335,87.48023979166668,72.0,84.0
343,87.52390795833334,87.72736191666668,44.0,83.0
344,87.76209795833334,88.00922008333335,56.0,75.0
345,87.52390795833334,88.23153075000002,68.0,90.0
346,87.52390795833334,88.24542516666668,63.0,86.0
347,87.52390795833334,88.26031204166668,75.0,84.0
348,87.52390795833334,88.26626679166668,72.0,84.0
349,88.47666795833335,88.55904200000002,75.0,39.0
350,88.47666795833335,88.66126520833335,63.0,94.0
351,88.00028795833335,88.74661662500002,58.0,75.0
352,88.23847795833335,88.74661662500002,60.0,79.0
353,88.71485795833334,88.76150350000002,63.0,23.0
354,88.71485795833334,88.89945520833335,68.0,90.0
355,88.95304795833334,89.01061054166668,68.0,55.0
356,88.95304795833334,89.103901625,70.0,82.0
357,89.19123795833335,89.24086087500001,70.0,56.0
358,89.19123795833335,89.37682766666668,72.0,81.0
359,89.42942795833335,89.87007945833335,44.0,91.0
360,89.66761795833335,89.91771745833334,51.0,84.0
361,89.90580795833334,90.187666125,56.0,79.0
362,89.42942795833335,90.47051675000002,63.0,84.0
363,89.42942795833335,90.48143379166667,68.0,90.0
364,89.42942795833335,90.78413358333334,75.0,98.0
365,90.62037795833335,90.81390733333335,63.0,98.0
366,90.38218795833335,90.90719841666667,60.0,76.0
367,90.85856795833335,90.92208529166668,63.0,31.0
368,90.14399795833334,90.93002495833335,58.0,78.0
369,90.85856795833335,91.05408225000001,68.0,84.0
370,91.09675795833334,91.40442004166668,75.0,90.0
371,91.33494795833334,91.84705645833334,70.0,86.0
372,91.33494795833334,91.87186791666667,74.0,91.0
373,91.33494795833334,91.89270954166668,65.0,84.0
374,91.81132795833335,92.26885125000001,53.0,71.0
375,92.28770795833334,92.67476670833335,63.0,83.0
376,92.28770795833334,92.69759325000001,68.0,93.0
377,92.28770795833334,92.70156308333334,58.0,61.0
378,91.33494795833334,92.73431420833334,46.0,90.0
379,92.28770795833334,92.74225387500002,72.0,86.0
380,92.76408795833335,92.873258375,53.0,94.0
381,93.00227795833335,93.05785562500002,70.0,69.0
382,93.00227795833335,93.09159920833335,65.0,56.0
383,93.24046795833334,93.47766550000001,70.0,90.0
384,93.24046795833334,93.522326125,46.0,91.0
385,93.24046795833334,93.52629595833335,65.0,90.0
386,93.24046795833334,93.54217529166668,58.0,83.0
387,93.24046795833334,93.59775295833334,74.0,94.0
388,93.71684795833335,93.80914658333334,70.0,76.0
389,93.95503795833335,94.09894441666668,67.0,84.0
390,93.95503795833335,94.10092933333334,75.0,84.0
391,93.95503795833335,94.10192179166668,70.0,98.0
392,93.95503795833335,94.55944508333334,60.0,74.0
393,93.95503795833335,94.57929425000002,48.0,84.0
394,94.43141795833334,94.76091412500001,77.0,96.0
395,94.43141795833334,94.77977083333334,70.0,96.0
396,94.43141795833334,94.78473312500002,67.0,93.0
397,94.66960795833334,94.79565016666668,50.0,90.0
398,94.90779795833335,95.07353850000001,74.0,83.0
399,95.14598795833335,95.54793358333335,51.0,86.0
400,95.14598795833335,95.55488079166668,67.0,90.0
401,95.38417795833335,95.60053387500001,58.0,75.0
402,95.14598795833335,95.69184004166668,70.0,90.0
403,95.62236795833334,95.90819595833335,63.0,84.0
404,95.14598795833335,96.08683845833335,75.0,84.0
405,96.09874795833335,96.36671170833334,67.0,79.0
406,95.86055795833335,96.37564383333334,65.0,80.0
407,96.33693795833335,96.51061816666667,70.0,79.0
408,96.57512795833334,96.77858191666668,79.0,83.0
409,96.81331795833334,96.85301629166668,79.0,58.0
410,96.81331795833334,97.36810216666667,70.0,82.0
411,96.81331795833334,97.41474770833335,77.0,91.0
412,97.76607795833334,97.89410508333334,70.0,79.0
413,97.76607795833334,97.90303720833334,67.0,81.0
414,97.76607795833334,97.91792408333335,75.0,90.0
415,97.52788795833335,98.09259675000001,63.0,75.0
416,98.00426795833334,98.30796020833334,67.0,84.0
417,98.00426795833334,98.34368870833335,70.0,90.0
418,98.00426795833334,98.35758312500002,75.0,93.0
419,97.28969795833335,98.46179125000002,58.0,79.0
420,98.24245795833335,98.61562229166668,63.0,68.0
421,98.48064795833335,98.64043375000001,65.0,93.0
422,98.48064795833335,98.66822258333335,70.0,95.0
423,97.05150795833335,98.69402650000002,51.0,86.0
424,98.59974295833335,98.70097370833335,58.0,78.0
425,98.95702795833334,99.35698866666668,46.0,90.0
426,99.19521795833334,99.43142304166668,53.0,78.0
427,99.43340795833335,99.71923595833334,58.0,57.0
428,98.95702795833334,99.90780304166668,70.0,90.0
429,98.95702795833334,99.92070500000001,65.0,84.0
430,98.95702795833334,100.04773966666669,74.0,90.0
431,99.90978795833335,100.14500058333334,62.0,83.0
432,99.67159795833335,100.18469891666668,60.0,73.0
433,100.14797795833334,100.33257520833335,65.0,84.0
434,100.38616795833335,100.58565208333334,70.0,84.0
435,100.62435795833335,100.66207137500001,70.0,30.0
436,100.62435795833335,100.81689487500002,72.0,79.0
437,100.62435795833335,100.82781191666668,48.0,81.0
438,100.86254795833335,101.24861425000002,46.0,86.0
439,101.10073795833335,101.34984500000002,53.0,79.0
440,101.33892795833334,101.60986908333335,58.0,72.0
441,100.86254795833335,101.77858700000002,70.0,84.0
442,100.86254795833335,101.78751912500002,65.0,84.0
443,100.86254795833335,101.81729287500002,74.0,84.0
444,101.57711795833335,101.94730491666668,60.0,75.0
445,101.81530795833335,101.94829737500001,62.0,80.0
446,102.05349795833335,102.21229129166669,65.0,83.0
447,102.29168795833334,102.44849637500002,70.0,86.0
448,102.52987795833334,102.64698804166669,72.0,79.0
449,102.76806795833335,103.54317791666668,75.0,95.0
450,102.76806795833335,103.54516283333335,68.0,86.0
451,102.76806795833335,103.55211004166668,63.0,83.0
452,103.72082795833335,104.07811295833335,56.0,78.0
453,103.24444795833335,104.16842666666668,51.0,72.0
454,103.72082795833335,104.38577504166668,75.0,84.0
455,103.72082795833335,104.39569962500002,68.0,94.0
456,102.76806795833335,104.43936779166668,44.0,90.0
457,103.72082795833335,104.45822450000001,72.0,84.0
458,104.19720795833335,104.53563625000001,56.0,72.0
459,103.72082795833335,104.54655329166668,63.0,95.0
460,104.43539795833335,104.73809775000001,51.0,82.0
461,104.67358795833334,104.97033300000001,63.0,81.0
462,104.67358795833334,105.01499362500002,68.0,90.0
463,104.67358795833334,105.05072212500002,72.0,83.0
464,105.14996795833335,105.28692720833335,63.0,75.0
465,105.14996795833335,105.37227862500002,70.0,80.0
466,104.67358795833334,105.40800712500001,56.0,81.0
467,105.38815795833335,105.49534345833335,51.0,5.0
468,105.38815795833335,105.72658625000001,72.0,82.0
469,105.38815795833335,105.74048066666668,63.0,90.0
470,105.38815795833335,105.75139770833334,68.0,91.0
471,105.62634795833335,105.94790445833335,56.0,84.0
472,105.86453795833334,106.05211258333335,63.0,86.0
473,106.10272795833335,106.15929808333335,63.0,39.0
474,104.67358795833334,106.24464950000001,44.0,83.0
475,106.10272795833335,106.26549112500001,56.0,84.0
476,106.10272795833335,106.28137045833334,68.0,86.0
477,106.34091795833335,106.50467358333334,70.0,80.0
478,106.57910795833335,107.11801283333335,74.0,86.0
479,106.57910795833335,107.19939441666668,65.0,84.0
480,106.57910795833335,107.22420587500001,70.0,84.0
481,107.05548795833334,107.58149087500001,53.0,79.0
482,107.53186795833335,107.98641387500001,74.0,90.0
483,107.53186795833335,108.04496891666668,58.0,82.0
484,106.57910795833335,108.06184070833335,46.0,90.0
485,107.53186795833335,108.10054658333335,70.0,84.0
486,107.53186795833335,108.11047116666668,65.0,86.0
487,108.00824795833334,108.40622375000001,53.0,90.0
488,108.48462795833335,110.00209675000002,46.0,91.0
489,108.48462795833335,110.02293837500001,74.0,94.0
490,108.48462795833335,110.11027470833335,70.0,86.0
491,108.48462795833335,110.12714650000001,65.0,90.0
492,108.48462795833335,110.12813895833335,58.0,84.0
493,110.39014795833334,111.09380091666668,63.0,76.0
494,110.39014795833334,111.12555958333336,68.0,80.0
495,110.39014795833334,111.28832275000002,44.0,79.0
496,110.39014795833334,111.64064545833335,72.0,73.0
497,110.39014795833334,111.84310695833335,75.0,54.0
498,111.34290795833336,111.84707679166668,63.0,75.0
499,110.39014795833334,111.90166200000002,56.0,62.0
500,111.81928795833335,112.00190029166669,68.0,84.0
501,112.29566795833335,112.50606912500001,75.0,69.0
502,112.29566795833335,112.99932091666668,67.0,77.0
503,112.29566795833335,113.19285029166669,70.0,80.0
504,113.24842795833335,113.75855154166668,67.0,80.0
505,113.72480795833334,114.09400245833335,70.0,80.0
506,112.29566795833335,114.11682900000001,55.0,72.0
507,114.20118795833335,114.98949051666668,65.0,56.0
508,114.20118795833335,114.99740375,68.0,72.0
509,114.20118795833335,115.22095259166667,72.0,72.0
510,115.98211407916668,116.81128337500002,75.0,6.0
511,116.92603874583334,117.26527300416667,75.0,51.0
512,114.20118795833335,117.4159711125,53.0,75.0
513,117.86583386250001,117.98761477916668,39.0,94.0
514,117.98364652916668,118.64436015416668,75.0,84.0
515,117.98364652916668,118.72769340416667,70.0,83.0
516,117.98364652916668,118.81400284166666,67.0,57.0
517,118.93602652916667,119.35467690416667,70.0,90.0
518,118.93602652916667,119.37650227916667,75.0,90.0
519,118.93602652916667,119.41221652916667,67.0,83.0
520,119.65031152916667,119.82789071666667,67.0,55.0
521,119.41221652916667,120.19396177916667,63.0,57.0
522,119.88840652916667,120.40328696666667,75.0,84.0
523,120.36459652916668,120.46082659166667,63.0,50.0
524,119.88840652916667,120.46975515416668,67.0,84.0
525,119.88840652916667,120.62253277916668,70.0,86.0
526,120.60269152916668,120.94693721666667,63.0,57.0
527,120.84078652916666,121.14634177916668,67.0,91.0
528,120.84078652916666,121.16519096666667,70.0,86.0
529,120.84078652916666,121.17213540416667,75.0,91.0
530,121.07888152916667,121.31400034166667,63.0,80.0
531,118.45983652916667,121.36261140416667,51.0,71.0
532,118.93602652916667,121.36955584166667,58.0,80.0
533,121.31697652916667,121.37451615416667,70.0,52.0
534,121.31697652916667,121.54614296666666,67.0,78.0
535,121.79316652916667,122.23661846666667,62.0,79.0
536,121.79316652916667,122.32590409166667,74.0,82.0
537,121.79316652916667,122.39336434166667,65.0,80.0
538,121.79316652916667,122.44197540416667,70.0,83.0
539,122.26935652916667,122.75348302916667,62.0,56.0
540,122.74554652916667,122.90526859166667,65.0,90.0
541,122.74554652916667,122.98959390416667,70.0,86.0
542,122.74554652916667,123.06796684166667,74.0,94.0
543,123.22173652916668,123.67312496666668,62.0,51.0
544,123.45983152916668,123.74554552916668,82.0,84.0
545,123.45983152916668,123.75546615416667,77.0,84.0
546,123.45983152916668,123.78423596666667,74.0,80.0
547,124.17411652916667,124.33383859166668,65.0,68.0
548,123.93602152916667,124.72272709166667,62.0,73.0
549,124.65030652916667,124.72272709166667,62.0,73.0
550,124.41221152916667,124.74653659166667,70.0,80.0
551,124.41221152916667,124.75149690416667,65.0,78.0
552,124.41221152916667,124.78324290416667,74.0,86.0
553,124.88840152916667,125.03919502916668,65.0,79.0
554,121.79316652916667,125.13443302916667,50.0,86.0
555,125.12649652916667,125.41022640416666,70.0,82.0
556,125.60268652916668,126.02728927916667,56.0,78.0
557,125.60268652916668,126.17113834166668,63.0,77.0
558,125.60268652916668,126.21082084166667,68.0,80.0
559,125.60268652916668,126.28720965416667,72.0,59.0
560,125.60268652916668,126.30605884166667,75.0,86.0
561,126.07887652916668,126.71379652916667,56.0,61.0
562,126.55506652916667,127.07391521666668,63.0,86.0
563,126.55506652916667,127.11558184166667,75.0,81.0
564,126.55506652916667,127.12451040416667,68.0,86.0
565,126.55506652916667,127.14931196666667,72.0,78.0
566,127.03125652916667,127.36954984166667,56.0,61.0
567,125.60268652916668,127.37748634166667,44.0,53.0
568,127.26935152916667,127.39931171666667,63.0,69.0
569,127.50744652916667,127.70883521666667,56.0,76.0
570,127.50744652916667,127.90129534166667,63.0,80.0
571,127.50744652916667,127.90625565416667,72.0,78.0
572,127.50744652916667,128.30109652916667,68.0,83.0
573,128.22173152916668,128.65823902916668,56.0,76.0
574,128.45982652916666,129.00546090416668,63.0,84.0
575,128.45982652916666,129.03919102916666,68.0,93.0
576,128.45982652916666,129.03919102916666,72.0,84.0
577,127.50744652916667,129.05506402916666,44.0,82.0
578,128.93601652916666,129.08581796666667,56.0,80.0
579,129.41220652916667,130.08184871666668,74.0,91.0
580,129.41220652916667,130.12351534166666,65.0,84.0
581,129.41220652916667,130.15823752916668,70.0,81.0
582,129.41220652916667,130.19891209166667,58.0,80.0
583,129.41220652916667,130.27430884166668,46.0,82.0
584,130.36458652916667,130.71776077916667,74.0,90.0
585,130.36458652916667,130.82589559166667,65.0,90.0
586,130.36458652916667,130.9003002791667,70.0,84.0
587,131.07887152916666,131.54712502916666,55.0,86.0
588,131.07887152916666,131.63839477916667,43.0,83.0
589,131.31696652916668,131.72371215416666,65.0,84.0
590,131.31696652916668,131.82887077916666,74.0,86.0
591,131.31696652916668,131.83283902916668,70.0,90.0
592,131.79315652916668,131.8715294666667,55.0,93.0
593,131.79315652916668,131.87351359166666,43.0,90.0
594,132.26934652916668,132.56894940416666,54.0,94.0
595,132.26934652916668,132.77033809166667,69.0,84.0
596,132.26934652916668,132.83978246666666,64.0,86.0
597,132.26934652916668,132.84077452916668,73.0,98.0
598,132.74553652916666,132.88839352916668,54.0,84.0
599,132.26934652916668,132.90625065416668,42.0,103.0
600,133.22172652916666,133.65624990416666,53.0,83.0
601,133.22172652916666,133.95386865416668,63.0,90.0
602,133.22172652916666,133.95982102916668,75.0,80.0
603,133.22172652916666,133.96577340416667,68.0,86.0
604,133.22172652916666,133.99751940416667,72.0,82.0
605,133.93601152916668,134.56795534166667,53.0,69.0
606,134.17410652916666,134.74255834166667,75.0,84.0
607,134.17410652916666,134.80307415416667,63.0,90.0
608,134.17410652916666,134.80605034166666,68.0,86.0
609,134.17410652916666,134.98858984166668,72.0,81.0
610,133.22172652916666,135.06497865416668,41.0,91.0
611,134.65029652916667,135.13938334166667,53.0,26.0
612,135.12648652916667,135.72668434166667,63.0,90.0
613,135.12648652916667,135.83283502916666,72.0,86.0
614,135.12648652916667,135.86259690416668,68.0,94.0
615,136.07886652916667,136.11259665416668,68.0,62.0
616,135.60267652916667,136.14434265416668,58.0,57.0
617,136.07886652916667,136.37648527916667,74.0,81.0
618,135.12648652916667,136.62648502916667,46.0,90.0
619,136.55505652916668,136.66120721666667,58.0,84.0
620,136.07886652916667,136.66319134166667,70.0,84.0
621,136.07886652916667,136.66517546666668,65.0,84.0
622,137.03124652916668,137.54612696666666,70.0,90.0
623,137.03124652916668,137.57588884166668,67.0,94.0
624,137.03124652916668,137.58977771666667,75.0,90.0
625,137.03124652916668,137.86457902916666,51.0,84.0
626,137.98362652916666,138.45882446666667,65.0,84.0
627,137.98362652916666,138.49354665416666,70.0,93.0
628,137.98362652916666,138.50842759166667,74.0,93.0
629,138.4598165291667,138.67608615416668,72.0,81.0
630,137.98362652916666,138.75842734166667,50.0,82.0
631,138.69791152916667,138.90426052916666,74.0,83.0
632,138.93600652916666,139.71775177916666,75.0,84.0
633,138.93600652916666,139.72370415416668,67.0,84.0
634,138.93600652916666,139.74949777916666,70.0,90.0
635,138.93600652916666,140.1760846541667,60.0,76.0
636,138.93600652916666,140.20386240416667,48.0,84.0
637,139.88838652916667,140.27429884166668,75.0,90.0
638,139.88838652916667,140.30108452916667,67.0,91.0
639,139.88838652916667,140.36358446666668,70.0,95.0
640,140.36457652916667,140.42906059166668,60.0,73.0
641,140.36457652916667,140.45485421666666,48.0,95.0
642,140.84076652916667,141.56894040416668,65.0,90.0
643,140.84076652916667,141.57687690416668,75.0,86.0
644,140.84076652916667,141.58084515416667,69.0,84.0
645,140.84076652916667,141.58084515416667,72.0,78.0
646,140.84076652916667,141.94195590416666,57.0,90.0
647,141.79314652916668,142.28917777916666,69.0,84.0
648,140.84076652916667,142.29215396666666,45.0,99.0
649,141.79314652916668,142.30405871666667,72.0,79.0
650,141.79314652916668,142.31199521666667,65.0,83.0
651,141.79314652916668,142.32786821666667,75.0,91.0
652,142.26933652916668,142.38639990416667,57.0,94.0
653,142.50743152916667,142.61556634166666,65.0,63.0
654,142.74552652916668,143.03322465416667,57.0,86.0
655,142.74552652916668,143.08282777916668,65.0,83.0
656,142.74552652916668,143.09870077916668,75.0,86.0
657,142.74552652916668,143.14235152916666,72.0,75.0
658,142.74552652916668,143.19989115416666,69.0,79.0
659,143.22171652916668,143.52330352916667,57.0,86.0
660,143.45981152916667,143.76933502916668,65.0,90.0
661,143.45981152916667,143.83282702916668,75.0,94.0
662,143.93600152916667,143.98560465416668,75.0,53.0
663,143.6979065291667,144.04215221666666,57.0,76.0
664,143.93600152916667,144.28322340416668,65.0,90.0
665,143.93600152916667,144.29413609166667,72.0,86.0
666,144.17409652916666,144.31992971666668,57.0,98.0
667,142.74552652916668,144.33084240416667,45.0,86.0
668,144.65028652916666,144.94592115416668,58.0,84.0
669,144.65028652916666,145.10365909166666,75.0,53.0
670,144.65028652916666,145.14929396666668,72.0,86.0
671,144.65028652916666,145.19195265416667,68.0,94.0
672,144.65028652916666,145.20881771666666,63.0,93.0
673,145.36457152916668,145.50842059166666,63.0,84.0
674,145.12647652916667,145.7326267166667,58.0,79.0
675,145.60266652916667,145.88342021666668,63.0,90.0
676,145.60266652916667,145.89929321666668,68.0,95.0
677,145.60266652916667,145.95980902916668,72.0,90.0
678,145.84076152916668,146.31794359166668,58.0,73.0
679,146.07885652916667,146.32687215416667,63.0,86.0
680,144.65028652916666,146.33084040416668,46.0,84.0
681,146.31695152916666,146.49254659166667,68.0,82.0
682,146.31695152916666,146.50345927916666,53.0,83.0
683,146.55504652916667,146.78123677916668,74.0,90.0
684,146.55504652916667,146.82885577916667,65.0,90.0
685,146.55504652916667,146.88639540416668,70.0,86.0
686,147.03123652916668,147.15822052916667,65.0,80.0
687,146.79314152916666,147.3248870291667,58.0,71.0
688,147.26933152916666,147.50544240416667,70.0,90.0
689,147.26933152916666,147.51040271666668,67.0,90.0
690,147.26933152916666,147.51833921666667,75.0,84.0
691,147.50742652916668,147.81595796666667,58.0,76.0
692,147.74552152916667,147.88937059166668,68.0,86.0
693,147.74552152916667,147.91417215416666,77.0,100.0
694,146.55504652916667,148.04512440416667,46.0,90.0
695,147.98361652916668,148.12250527916666,58.0,91.0
696,148.45980652916668,148.7544490916667,65.0,84.0
697,148.45980652916668,148.79413159166668,70.0,86.0
698,148.45980652916668,148.79809984166667,74.0,96.0
699,148.45980652916668,148.8437347166667,58.0,81.0
700,148.9359965291667,149.19294071666667,58.0,80.0
701,148.9359965291667,149.2385755916667,65.0,76.0
702,148.9359965291667,149.32190884166667,72.0,83.0
703,149.41218652916666,149.48758327916667,70.0,84.0
704,149.41218652916666,149.64730534166668,65.0,86.0
705,149.41218652916666,149.65226565416668,58.0,80.0
706,149.41218652916666,149.78222584166667,74.0,90.0
707,148.45980652916668,149.96377327916667,46.0,84.0
708,149.88837652916666,149.96377327916667,65.0,86.0
709,149.88837652916666,149.96972565416667,70.0,94.0
710,149.88837652916666,150.00047959166668,58.0,86.0
711,149.88837652916666,150.00047959166668,75.0,93.0
712,150.12650701666666,150.19416403541666,58.0,52.0
713,150.37347935,150.56718458333333,65.0,99.0
714,150.37347935,150.60646608333334,77.0,95.0
715,150.37347935,150.63051817083334,58.0,91.0
716,150.37347935,150.66716897083333,46.0,90.0
717,150.91845095000002,151.01196209583335,67.0,98.0
718,150.91845095000002,151.22527089583335,58.0,83.0
719,150.91845095000002,151.22773249583335,46.0,86.0
720,151.5039564291667,151.5832699,68.0,99.0
721,151.5039564291667,151.6086688166667,80.0,100.0
722,151.5039564291667,151.6480371375,58.0,86.0
723,151.5039564291667,151.78459325416668,46.0,91.0
724,151.8089827625,152.03932518333335,34.0,97.0
725,152.12066853750002,152.18364403750002,58.0,74.0
726,152.12066853750002,152.21542466250003,70.0,94.0
727,152.12066853750002,152.21542466250003,82.0,84.0
728,152.12066853750002,152.2499171291667,46.0,103.0
729,152.4393170791667,152.67380283750003,34.0,97.0
730,152.76502501250005,152.94366751250004,39.0,98.0
731,152.76502501250005,153.1838424291667,75.0,95.0
732,152.76502501250005,153.1957519291667,79.0,93.0
733,152.76502501250005,153.2374351791667,70.0,86.0
734,153.47959501250006,153.89741997083337,58.0,75.0
735,153.71778501250006,153.98674122083338,67.0,90.0
736,153.71778501250006,154.06018313750005,70.0,86.0
737,153.71778501250006,154.1187381791667,75.0,94.0
738,154.19416501250004,154.3023429708334,65.0,94.0
739,154.19416501250004,154.35692817916672,74.0,86.0
740,153.71778501250006,154.40853601250004,63.0,94.0
741,153.24140501250005,154.49785726250005,51.0,79.0
742,154.43235501250004,154.5048044708334,58.0,69.0
743,154.43235501250004,155.00996576250006,70.0,84.0
744,154.43235501250004,155.13799288750005,67.0,93.0
745,154.43235501250004,155.1568495958334,75.0,93.0
746,155.38511501250005,155.50619492916672,65.0,84.0
747,155.38511501250005,155.5389460541667,70.0,84.0
748,155.62330501250005,155.73049051250004,67.0,79.0
749,155.62330501250005,155.7761435958334,72.0,83.0
750,154.90873501250005,155.89623105416672,58.0,79.0
751,155.14692501250005,155.9786050958334,63.0,91.0
752,155.86149501250006,156.0292204708334,67.0,84.0
753,155.86149501250006,156.06395651250006,74.0,98.0
754,154.67054501250004,156.1929760958334,51.0,95.0
755,156.09968501250006,156.1959534708334,67.0,76.0
756,156.09968501250006,156.2108403458334,58.0,82.0
757,156.09968501250006,156.2376367208334,75.0,90.0
758,156.09968501250006,156.36764876250004,70.0,80.0
759,156.33787501250004,156.50262309583337,77.0,93.0
760,156.57606501250004,156.6127859708334,77.0,75.0
761,156.57606501250004,156.98396538750004,46.0,86.0
762,156.81425501250004,157.02961847083338,53.0,80.0
763,156.57606501250004,157.29063501250005,70.0,91.0
764,156.57606501250004,157.3134615541667,65.0,84.0
765,157.05244501250004,157.32636351250005,58.0,68.0
766,156.57606501250004,157.43751884583338,74.0,96.0
767,157.29063501250005,157.63402559583338,60.0,78.0
768,157.52882501250005,157.64692755416672,62.0,93.0
769,157.76701501250005,157.92481588750005,65.0,83.0
770,158.00520501250006,158.1401793458334,70.0,80.0
771,158.24339501250006,158.5728911791667,65.0,84.0
772,158.24339501250006,158.60068001250005,77.0,94.0
773,158.24339501250006,158.72374484583338,70.0,83.0
774,158.95796501250004,159.21699663750005,58.0,84.0
775,159.19615501250004,159.30830280416671,67.0,86.0
776,159.19615501250004,159.35594080416672,75.0,98.0
777,159.43434501250005,159.67253501250005,58.0,80.0
778,159.67253501250005,159.79361492916672,74.0,96.0
779,158.71977501250004,159.80750934583338,53.0,80.0
780,159.67253501250005,159.83926801250004,65.0,91.0
781,159.91072501250005,159.96431776250006,65.0,27.0
782,159.91072501250005,159.99409151250003,58.0,84.0
783,159.91072501250005,160.03279738750004,53.0,56.0
784,158.48158501250003,160.03775967916673,46.0,84.0
785,160.14891501250005,160.3047309708334,70.0,90.0
786,160.38710501250006,160.4962754291667,70.0,91.0
787,160.38710501250006,160.7662240958334,44.0,84.0
788,160.62529501250006,160.84165092916672,51.0,83.0
789,160.86348501250004,161.13938842916673,56.0,83.0
790,160.50620001250005,161.47186197083337,72.0,84.0
791,161.33986501250004,161.6336326791667,60.0,86.0
792,161.10167501250004,161.6366100541667,58.0,75.0
793,161.57805501250004,161.74776538750004,63.0,99.0
794,161.81624501250005,161.97702326250004,68.0,93.0
795,162.05443501250005,162.2618588041667,70.0,84.0
796,162.29262501250005,162.61914380416673,68.0,79.0
797,162.29262501250005,162.62112872083338,63.0,82.0
798,162.29262501250005,162.66479688750005,44.0,91.0
799,162.29262501250005,162.70350276250005,72.0,96.0
800,162.53081501250006,162.76404272083337,51.0,80.0
801,162.76900501250006,163.01811205416672,56.0,84.0
802,163.00719501250006,163.5331979291667,58.0,79.0
803,163.48357501250004,163.62946638750006,72.0,91.0
804,163.48357501250004,163.78131251250005,80.0,96.0
805,163.24538501250004,163.79619938750005,60.0,82.0
806,163.72176501250004,163.87758097083338,58.0,83.0
807,163.72176501250004,163.9678946791667,79.0,83.0
808,163.72176501250004,164.02545726250005,70.0,86.0
809,163.95995501250005,164.15943913750004,75.0,94.0
810,164.19814501250005,164.55642247083338,77.0,95.0
811,164.19814501250005,164.61497751250005,70.0,90.0
812,164.19814501250005,165.7086665958334,46.0,86.0
813,164.67452501250006,165.72851576250005,58.0,90.0
814,164.43633501250005,165.88234680416673,53.0,83.0
815,166.10366501250004,166.40834972083337,63.0,95.0
816,166.10366501250004,166.42522151250006,68.0,84.0
817,166.10366501250004,166.43415363750006,72.0,86.0
818,166.34185501250005,166.64554726250006,56.0,76.0
819,166.10366501250004,166.67432855416672,44.0,91.0
820,166.58004501250005,166.7596799708334,63.0,86.0
821,166.81823501250005,166.99687751250005,68.0,91.0
822,167.05642501250006,167.12490463750004,65.0,75.0
823,167.05642501250006,167.3879060958334,67.0,90.0
824,167.05642501250006,167.38989101250004,74.0,99.0
825,167.05642501250006,167.4295893458334,71.0,95.0
826,167.05642501250006,167.54372205416672,43.0,96.0
827,167.29461501250006,167.68167376250005,55.0,90.0
828,167.53280501250003,167.8295500541667,67.0,93.0
829,167.77099501250004,167.93574309583337,72.0,82.0
830,168.00918501250004,168.36448509583337,67.0,98.0
831,168.00918501250004,168.41708538750004,75.0,91.0
832,168.00918501250004,168.4776253458334,48.0,94.0
833,168.24737501250004,168.50938401250005,55.0,84.0
834,168.48556501250005,168.60664492916672,67.0,84.0
835,168.48556501250005,168.68207176250004,74.0,90.0
836,168.48556501250005,168.7793326791667,60.0,84.0
837,168.72375501250005,168.8974352208334,67.0,90.0
838,168.72375501250005,168.90537488750005,75.0,86.0
839,168.72375501250005,169.1177609708334,62.0,83.0
840,168.96194501250005,169.1177609708334,67.0,86.0
841,168.96194501250005,169.1306629291667,75.0,96.0
842,169.20013501250006,169.29044872083338,67.0,72.0
843,169.20013501250006,169.33113951250004,75.0,78.0
844,168.96194501250005,169.49787251250004,63.0,84.0
845,169.43832501250006,169.5524577208334,67.0,84.0
846,169.43832501250006,169.56337476250005,62.0,84.0
847,169.43832501250006,169.59017113750005,74.0,93.0
848,169.67651501250006,170.2074802208334,75.0,93.0
849,169.67651501250006,170.2680201791667,67.0,91.0
850,170.62927501250005,170.73050576250006,63.0,84.0
851,170.62927501250005,170.73050576250006,67.0,84.0
852,170.62927501250005,170.73050576250006,72.0,82.0
853,170.39108501250004,170.86151026250005,60.0,84.0
854,170.86746501250005,171.09970026250005,63.0,84.0
855,170.86746501250005,171.1096248458334,72.0,84.0
856,170.15289501250004,171.19398380416672,55.0,83.0
857,170.86746501250005,171.2584935958334,67.0,86.0
858,170.98656001250004,171.45897017916673,60.0,75.0
859,169.91470501250006,171.5175252208334,48.0,84.0
860,171.34384501250005,171.52546488750005,62.0,84.0
861,171.34384501250005,171.56714813750006,70.0,90.0
862,171.58203501250006,171.68425822083339,67.0,82.0
863,171.58203501250006,171.70113001250004,55.0,84.0
864,171.58203501250006,171.7259414708334,72.0,84.0
865,171.82022501250006,172.04055076250006,43.0,91.0
866,172.05841501250006,172.34622792916673,55.0,80.0
867,171.82022501250006,172.6340408458334,67.0,93.0
868,171.82022501250006,172.70549784583338,70.0,95.0
869,172.77298501250004,173.0697300541667,65.0,93.0
870,172.53479501250004,173.0806470958334,62.0,83.0
871,172.29660501250004,173.14813426250004,58.0,79.0
872,173.01117501250005,173.17393817916673,67.0,86.0
873,173.24936501250005,173.41113572083339,70.0,84.0
874,173.48755501250005,173.6920014291667,72.0,83.0
875,173.72574501250006,174.02249005416672,74.0,91.0
876,173.72574501250006,174.05921101250004,70.0,86.0
877,173.72574501250006,174.09196213750005,65.0,83.0
878,174.20212501250006,174.46611892916673,55.0,83.0
879,174.44031501250004,174.7539318458334,70.0,84.0
880,174.44031501250004,174.7569092208334,62.0,94.0
881,174.44031501250004,174.7688187208334,65.0,91.0
882,174.91669501250004,175.07846572083338,62.0,91.0
883,173.72574501250006,175.25611576250006,43.0,86.0
884,174.67850501250004,175.28985934583338,55.0,90.0
885,173.96393501250006,175.29283672083338,50.0,84.0
886,175.15488501250005,175.32856522083338,65.0,93.0
887,175.39307501250005,175.54293622083338,67.0,80.0
888,175.63126501250005,176.0818410958334,56.0,90.0
889,175.63126501250005,176.2634609708334,68.0,84.0
890,175.63126501250005,176.2942271791667,63.0,98.0
891,175.63126501250005,176.4401185541667,60.0,95.0
892,176.10764501250006,176.80633567916672,56.0,79.0
893,176.58402501250004,177.06834467916673,60.0,86.0
894,176.58402501250004,177.17950001250006,68.0,93.0
895,175.63126501250005,177.19339442916672,44.0,84.0
896,176.58402501250004,177.20629638750006,63.0,93.0
897,177.06040501250004,177.29264026250004,56.0,83.0
898,177.29859501250004,177.45937326250004,60.0,81.0
899,176.82221501250004,177.49807913750004,51.0,80.0
900,177.53678501250005,178.02606697083337,68.0,90.0
901,177.53678501250005,178.04492367916671,60.0,83.0
902,177.53678501250005,178.07568988750006,63.0,94.0
903,178.25135501250006,178.4260276791667,60.0,83.0
904,178.01316501250005,178.52825088750006,56.0,83.0
905,177.77497501250005,178.84087526250005,51.0,83.0
906,178.48954501250006,178.8627093458334,60.0,83.0
907,177.53678501250005,178.8785886791667,44.0,94.0
908,178.72773501250006,179.09990688750005,56.0,95.0
909,178.96592501250007,179.2438133458334,51.0,94.0
910,179.20411501250004,179.3132854291667,47.0,76.0
911,178.48954501250006,179.37779522083338,63.0,93.0
912,178.48954501250006,179.38275751250006,68.0,91.0
913,180.15687501250005,180.32956276250005,63.0,93.0
914,179.91868501250005,180.47843151250004,58.0,91.0
915,180.39506501250005,180.74242542916673,65.0,93.0
916,179.44230501250004,180.9915324708334,46.0,94.0
917,180.87144501250006,181.0004645958334,63.0,94.0
918,180.63325501250006,181.02329113750005,58.0,78.0
919,179.68049501250005,181.14734842916673,53.0,84.0
920,181.10963501250006,181.45798788750005,68.0,90.0
921,181.10963501250006,181.4629501791667,60.0,86.0
922,181.10963501250006,181.48279934583337,63.0,94.0
923,181.58601501250004,182.01277209583338,70.0,96.0
924,181.58601501250004,182.0991159708334,62.0,96.0
925,182.06239501250005,182.63405101250004,58.0,83.0
926,181.34782501250004,182.70749292916673,46.0,84.0
927,181.82420501250004,182.7332968458334,53.0,83.0
928,182.30058501250005,182.78688959583337,63.0,94.0
929,182.77696501250006,182.9030072208334,50.0,95.0
930,182.30058501250005,182.92285638750005,60.0,86.0
931,182.30058501250005,182.9367508041667,68.0,86.0
932,183.25334501250006,183.99173401250005,63.0,82.0
933,183.25334501250006,184.0195228458334,68.0,84.0
934,183.25334501250006,184.0711306791667,72.0,77.0
935,184.20610501250005,184.52865397083337,63.0,75.0
936,184.44429501250005,184.61996013750004,68.0,80.0
937,184.68248501250005,184.91869009583337,70.0,75.0
938,184.92067501250006,185.17871417916672,72.0,72.0
939,183.25334501250006,185.19657842916672,56.0,80.0
940,185.15886501250006,186.32202617916673,65.0,79.0
941,185.15886501250006,186.34088288750004,70.0,80.0
942,185.15886501250006,186.54433684583339,55.0,78.0
943,187.06438501250005,187.85537430416673,69.0,83.0
944,187.06438501250005,187.8662913458334,65.0,76.0
945,187.06438501250005,187.91889163750005,72.0,74.0
946,188.96990501250005,189.11976622083338,77.0,55.0
947,188.96990501250005,189.12969080416673,89.0,60.0
948,187.06438501250005,190.19162122083338,53.0,73.0
949,191.35180501250005,191.68229363750004,68.0,57.0
950,191.58999501250005,191.88277022083338,72.0,71.0
951,191.82818501250006,192.08324680416672,80.0,80.0
952,192.06637501250006,192.27776863750006,75.0,73.0
953,191.11361501250005,192.50901142916672,63.0,73.0
954,190.87542501250005,192.54176255416672,56.0,79.0
955,192.30456501250006,192.99233863750004,72.0,73.0
956,192.54275501250004,193.02111992916673,68.0,75.0
957,193.25732501250005,193.53719826250006,65.0,44.0
958,193.49551501250005,193.7734033458334,70.0,71.0
959,193.73370501250005,194.00166876250006,77.0,79.0
960,193.97189501250006,194.22794926250006,74.0,80.0
961,193.01913501250004,194.3420819708334,62.0,76.0
962,192.78094501250007,194.35200655416673,55.0,79.0
963,194.44827501250006,194.83831113750006,65.0,63.0
964,194.68646501250004,194.83831113750006,65.0,76.0
965,194.21008501250006,194.87006980416672,70.0,72.0
966,194.68646501250004,195.79007867916673,69.0,84.0
967,194.68646501250004,195.82084488750004,72.0,82.0
968,194.68646501250004,195.8932943458334,77.0,83.0
969,194.68646501250004,198.0697554708334,53.0,76.0
970,194.68646501250004,198.0905970958334,41.0,79.0
971,196.59198501250006,198.0935744708334,89.0,83.0
972,196.47289001250005,198.11044626250006,77.0,73.0
973,196.59198501250006,198.17396359583338,81.0,84.0
974,198.49750501250006,199.05427413750004,51.0,94.0
975,198.97388501250006,199.05427413750004,51.0,55.0
976,198.49750501250006,199.26467530416673,75.0,99.0
977,198.49750501250006,199.2845244708334,67.0,84.0
978,198.49750501250006,199.41552897083338,70.0,93.0
979,199.45026501250004,199.90778830416673,70.0,90.0
980,199.45026501250004,199.92962238750005,75.0,93.0
981,199.45026501250004,199.9514564708334,67.0,84.0
982,200.16483501250005,200.27996017916672,67.0,60.0
983,199.92664501250005,200.35141717916673,51.0,61.0
984,198.49750501250006,200.38516076250005,39.0,100.0
985,200.40302501250005,200.66404155416672,67.0,83.0
986,200.40302501250005,200.6928228458334,70.0,82.0
987,200.40302501250005,200.70175497083338,75.0,84.0
988,200.87940501250006,200.9846055958334,65.0,78.0
989,200.87940501250006,201.03720588750005,74.0,83.0
990,200.64121501250006,201.16225563750004,51.0,59.0
991,201.11759501250006,201.40937776250007,67.0,91.0
992,201.11759501250006,201.42029480416673,75.0,80.0
993,201.11759501250006,201.43319676250005,70.0,90.0
994,201.35578501250006,201.7021529708334,51.0,81.0
995,200.40302501250005,201.82621026250007,39.0,90.0
996,201.59397501250004,201.90064463750005,74.0,100.0
997,201.59397501250004,201.9195013458334,67.0,90.0
998,201.83216501250007,201.9254560958334,51.0,84.0
999,202.07035501250004,202.18548017916672,77.0,73.0
1000,202.30854501250005,202.7859174708334,77.0,86.0
1001,202.30854501250005,202.8067590958334,70.0,90.0
1002,202.30854501250005,202.85638201250006,65.0,90.0
1003,202.78492501250005,203.08365497083338,62.0,80.0
1004,203.02311501250006,203.33673184583338,65.0,86.0
1005,203.02311501250006,203.53522351250007,70.0,91.0
1006,203.73768501250004,203.8071570958334,65.0,39.0
1007,202.30854501250005,203.8825839291667,50.0,95.0
1008,203.49949501250006,203.91335013750006,62.0,82.0
1009,203.73768501250004,203.93220684583338,72.0,84.0
1010,203.97587501250007,204.04003653750007,65.0,37.0
1011,203.97587501250007,204.14454027500008,74.0,83.0
1012,202.54673501250005,204.1642121625001,58.0,78.0
1013,204.22012173750008,204.7550953708334,77.0,84.0
1014,204.22012173750008,204.76635903958342,70.0,83.0
1015,204.22012173750008,204.8064167583334,65.0,82.0
1016,204.22012173750008,205.1331106833334,50.0,90.0
1017,204.61840223750008,205.2781469083334,58.0,76.0
1018,205.2188382833334,205.64417453750008,50.0,33.0
1019,205.2188382833334,205.9970041333334,62.0,79.0
1020,205.2188382833334,206.0686051666667,67.0,82.0
1021,205.2188382833334,206.0826796208334,70.0,83.0
1022,205.9804119083334,206.10187205833338,58.0,90.0
1023,205.2188382833334,206.11978500000006,75.0,84.0
1024,206.59643650000004,207.19488887500003,70.0,93.0
1025,206.59643650000004,207.34673500000005,75.0,90.0
1026,206.59643650000004,207.38345595833337,67.0,90.0
1027,207.54919650000005,207.66332920833338,75.0,84.0
1028,207.54919650000005,207.69012558333338,67.0,83.0
1029,207.31100650000005,207.85487366666672,60.0,78.0
1030,207.78738650000003,207.95411950000005,65.0,80.0
1031,207.78738650000003,208.10100333333338,74.0,84.0
1032,206.59643650000004,208.2121586666667,48.0,90.0
1033,208.02557650000003,208.27071370833337,60.0,68.0
1034,207.07281650000004,208.4175975416667,55.0,75.0
1035,208.26376650000003,208.64288558333337,70.0,79.0
1036,208.26376650000003,208.68556129166672,67.0,79.0
1037,209.21652650000004,209.52915087500003,62.0,81.0
1038,209.45471650000005,209.56686429166672,63.0,75.0
1039,208.74014650000004,209.65420062500004,55.0,80.0
1040,209.21652650000004,209.67305733333336,67.0,83.0
1041,208.97833650000004,209.73458975000003,60.0,83.0
1042,209.69290650000005,209.96980237500003,62.0,83.0
1043,209.69290650000005,210.0194252916667,70.0,84.0
1044,208.50195650000003,210.02141020833338,48.0,78.0
1045,209.69290650000005,210.0224026666667,63.0,90.0
1046,209.93109650000005,210.0581311666667,55.0,80.0
1047,210.40747650000003,210.44915975000004,60.0,56.0
1048,210.40747650000003,211.0019590416667,62.0,84.0
1049,210.40747650000003,211.00890625000005,65.0,80.0
1050,210.40747650000003,211.12601633333338,70.0,80.0
1051,211.36023650000004,211.39298762500005,62.0,51.0
1052,211.36023650000004,211.47436920833337,65.0,76.0
1053,211.36023650000004,211.70958183333337,60.0,81.0
1054,211.59842650000004,211.77706900000004,62.0,84.0
1055,211.83661650000005,212.00334950000004,65.0,79.0
1056,210.40747650000003,212.06984420833336,46.0,84.0
1057,211.12204650000004,212.11450483333337,58.0,73.0
1058,212.07480650000005,212.12343695833337,65.0,63.0
1059,210.88385650000004,212.2077959166667,53.0,74.0
1060,212.07480650000005,212.36559679166672,62.0,84.0
1061,212.07480650000005,212.37750629166672,70.0,84.0
1062,212.07480650000005,212.4191895416667,60.0,78.0
1063,212.31299650000005,212.69211558333336,46.0,82.0
1064,212.55118650000003,212.69807033333336,60.0,69.0
1065,212.55118650000003,212.74868570833337,53.0,77.0
1066,212.78937650000003,212.94519245833337,63.0,78.0
1067,213.02756650000003,213.22407325000003,65.0,76.0
1068,213.26575650000004,213.55555433333336,60.0,80.0
1069,213.26575650000004,213.5833431666667,63.0,90.0
1070,213.26575650000004,213.59624512500005,46.0,84.0
1071,213.26575650000004,213.5982300416667,68.0,82.0
1072,213.50394650000004,213.7024381666667,50.0,83.0
1073,213.74213650000004,213.87611837500003,58.0,67.0
1074,213.74213650000004,213.89993737500004,67.0,84.0
1075,214.21851650000005,214.39715900000004,39.0,98.0
1076,214.21851650000005,214.6373339166667,75.0,95.0
1077,214.21851650000005,214.6492434166667,79.0,93.0
1078,214.21851650000005,214.6909266666667,70.0,86.0
1079,214.93308650000003,215.35091145833337,58.0,75.0
1080,215.17127650000003,215.44023270833338,67.0,90.0
1081,215.17127650000003,215.51367462500005,70.0,86.0
1082,215.17127650000003,215.57222966666671,75.0,94.0
1083,215.64765650000004,215.75583445833337,65.0,94.0
1084,215.64765650000004,215.81041966666672,74.0,86.0
1085,215.17127650000003,215.86202750000004,63.0,94.0
1086,214.69489650000003,215.95134875000005,51.0,79.0
1087,215.88584650000004,215.95829595833337,58.0,69.0
1088,215.88584650000004,216.46345725000003,70.0,84.0
1089,215.88584650000004,216.59148437500005,67.0,93.0
1090,215.88584650000004,216.61034108333337,75.0,93.0
1091,216.83860650000003,216.9596864166667,65.0,84.0
1092,216.83860650000003,216.9924375416667,70.0,84.0
1093,217.07679650000003,217.18398200000004,67.0,79.0
1094,217.07679650000003,217.22963508333336,72.0,83.0
1095,216.36222650000005,217.3497225416667,58.0,79.0
1096,216.60041650000005,217.43209658333336,63.0,91.0
1097,217.31498650000003,217.48271195833337,67.0,84.0
1098,217.31498650000003,217.51744800000003,74.0,98.0
1099,216.12403650000005,217.64646758333336,51.0,95.0
1100,217.55317650000003,217.64944495833336,67.0,76.0
1101,217.55317650000003,217.66433183333336,58.0,82.0
1102,217.55317650000003,217.69112820833337,75.0,90.0
1103,217.55317650000003,217.82114025000004,70.0,80.0
1104,217.79136650000004,217.95611458333337,77.0,93.0
1105,218.02955650000004,218.0662774583334,77.0,75.0
1106,218.02955650000004,218.43745687500004,46.0,86.0
1107,218.26774650000004,218.4831099583334,53.0,80.0
1108,218.02955650000004,218.74412650000005,70.0,91.0
1109,218.02955650000004,218.7669530416667,65.0,84.0
1110,218.50593650000005,218.77985500000005,58.0,68.0
1111,218.02955650000004,218.89101033333338,74.0,96.0
1112,218.74412650000005,219.08751708333338,60.0,78.0
1113,218.98231650000005,219.1004190416667,62.0,93.0
1114,219.22050650000003,219.37830737500005,65.0,83.0
1115,219.45869650000003,219.59367083333336,70.0,80.0
1116,219.69688650000003,220.0263826666667,65.0,84.0
1117,219.69688650000003,220.05417150000005,77.0,94.0
1118,219.69688650000003,220.17723633333338,70.0,83.0
1119,220.41145650000004,220.67048812500005,58.0,84.0
1120,220.64964650000005,220.76179429166672,67.0,86.0
1121,220.64964650000005,220.8094322916667,75.0,98.0
1122,220.88783650000005,221.12602650000005,58.0,80.0
1123,221.12602650000005,221.2471064166667,74.0,96.0
1124,220.17326650000004,221.26100083333338,53.0,80.0
1125,221.12602650000005,221.29275950000005,65.0,91.0
1126,221.36421650000005,221.41780925000003,65.0,27.0
1127,221.36421650000005,221.44758300000004,58.0,84.0
1128,221.36421650000005,221.48628887500004,53.0,56.0
1129,219.93507650000004,221.4912511666667,46.0,84.0
1130,221.60240650000003,221.75822245833336,70.0,90.0
1131,221.84059650000003,221.9497669166667,70.0,91.0
1132,221.84059650000003,222.21971558333337,44.0,84.0
1133,222.07878650000004,222.2951424166667,51.0,83.0
1134,222.31697650000004,222.5928799166667,56.0,83.0
1135,221.95969150000005,222.92535345833338,72.0,84.0
1136,222.79335650000004,223.0871241666667,60.0,86.0
1137,222.55516650000004,223.0901015416667,58.0,75.0
1138,223.03154650000005,223.20125687500004,63.0,99.0
1139,223.26973650000005,223.43051475000004,68.0,93.0
1140,223.50792650000005,223.7153502916667,70.0,84.0
1141,223.74611650000003,224.0726352916667,68.0,79.0
1142,223.74611650000003,224.07462020833339,63.0,82.0
1143,223.74611650000003,224.11828837500005,44.0,91.0
1144,223.74611650000003,224.15699425000003,72.0,96.0
1145,223.98430650000003,224.21753420833338,51.0,80.0
1146,224.22249650000003,224.4716035416667,56.0,84.0
1147,224.46068650000004,224.9866894166667,58.0,79.0
1148,224.93706650000004,225.08295787500003,72.0,91.0
1149,224.93706650000004,225.23480400000005,80.0,96.0
1150,224.69887650000004,225.24969087500006,60.0,82.0
1151,225.17525650000005,225.33107245833338,58.0,83.0
1152,225.17525650000005,225.4213861666667,79.0,83.0
1153,225.17525650000005,225.47894875000003,70.0,86.0
1154,225.41344650000005,225.61293062500005,75.0,94.0
1155,225.65163650000005,226.00991395833339,77.0,95.0
1156,225.65163650000005,226.06846900000005,70.0,90.0
1157,225.65163650000005,227.16215808333337,46.0,86.0
1158,226.12801650000003,227.18200725000003,58.0,90.0
1159,225.88982650000003,227.3358382916667,53.0,83.0
1160,227.55715650000005,227.86184120833337,63.0,95.0
1161,227.55715650000005,227.87871300000003,68.0,84.0
1162,227.55715650000005,227.88764512500003,72.0,86.0
1163,227.79534650000005,228.09903875000003,56.0,76.0
1164,227.55715650000005,228.12782004166672,44.0,91.0
1165,228.03353650000005,228.21317145833336,63.0,86.0
1166,228.27172650000006,228.45036900000005,68.0,91.0
1167,228.50991650000003,228.57839612500004,65.0,75.0
1168,228.50991650000003,228.8413975833334,67.0,90.0
1169,228.50991650000003,228.84338250000005,74.0,99.0
1170,228.50991650000003,228.88308083333337,71.0,95.0
1171,228.50991650000003,228.9972135416667,43.0,96.0
1172,228.74810650000003,229.13516525000006,55.0,90.0
1173,228.98629650000004,229.2830415416667,67.0,93.0
1174,229.22448650000004,229.38923458333338,72.0,82.0
1175,229.46267650000004,229.81797658333338,67.0,98.0
1176,229.46267650000004,229.87057687500004,75.0,91.0
1177,229.46267650000004,229.93111683333336,48.0,94.0
1178,229.70086650000005,229.96287550000005,55.0,84.0
1179,229.93905650000005,230.0601364166667,67.0,84.0
1180,229.93905650000005,230.13556325000005,74.0,90.0
1181,229.93905650000005,230.23282416666672,60.0,84.0
1182,230.17724650000005,230.35092670833336,67.0,90.0
1183,230.17724650000005,230.35886637500005,75.0,86.0
1184,230.17724650000005,230.5712524583334,62.0,83.0
1185,230.41543650000006,230.5712524583334,67.0,86.0
1186,230.41543650000006,230.5841544166667,75.0,96.0
1187,230.65362650000003,230.74394020833338,67.0,72.0
1188,230.65362650000003,230.78463100000005,75.0,78.0
1189,230.41543650000006,230.95136400000004,63.0,84.0
1190,230.89181650000003,231.0059492083334,67.0,84.0
1191,230.89181650000003,231.01686625000005,62.0,84.0
1192,230.89181650000003,231.04366262500005,74.0,93.0
1193,231.13000650000004,231.66097170833336,75.0,93.0
1194,231.13000650000004,231.72151166666671,67.0,91.0
1195,232.08276650000005,232.18399725000003,63.0,84.0
1196,232.08276650000005,232.18399725000003,67.0,84.0
1197,232.08276650000005,232.18399725000003,72.0,82.0
1198,231.84457650000004,232.31500175000005,60.0,84.0
1199,232.32095650000005,232.55319175000005,63.0,84.0
1200,232.32095650000005,232.56311633333337,72.0,84.0
1201,231.60638650000004,232.6474752916667,55.0,83.0
1202,232.32095650000005,232.7119850833334,67.0,86.0
1203,232.44005150000004,232.9124616666667,60.0,75.0
1204,231.36819650000004,232.97101670833337,48.0,84.0
1205,232.79733650000003,232.97895637500005,62.0,84.0
1206,232.79733650000003,233.02063962500006,70.0,90.0
1207,233.03552650000003,233.1377497083334,67.0,82.0
1208,233.03552650000003,233.15462150000005,55.0,84.0
1209,233.03552650000003,233.17943295833336,72.0,84.0
1210,233.27371650000003,233.49404225000004,43.0,91.0
1211,233.51190650000004,233.7997194166667,55.0,80.0
1212,233.27371650000003,234.08753233333337,67.0,93.0
1213,233.27371650000003,234.15898933333338,70.0,95.0
1214,234.22647650000005,234.52322154166671,65.0,93.0
1215,233.98828650000004,234.53413858333337,62.0,83.0
1216,233.75009650000004,234.60162575000004,58.0,79.0
1217,234.46466650000005,234.6274296666667,67.0,86.0
1218,234.70285650000005,234.8646272083334,70.0,84.0
1219,234.94104650000003,235.1454929166667,72.0,83.0
1220,235.17923650000003,235.4759815416667,74.0,91.0
1221,235.17923650000003,235.51270250000005,70.0,86.0
1222,235.17923650000003,235.54545362500005,65.0,83.0
1223,235.65561650000004,235.9196104166667,55.0,83.0
1224,235.89380650000004,236.20742333333337,70.0,84.0
1225,235.89380650000004,236.21040070833337,62.0,94.0
1226,235.89380650000004,236.22231020833337,65.0,91.0
1227,236.37018650000005,236.53195720833338,62.0,91.0
1228,235.17923650000003,236.70960725000003,43.0,86.0
1229,236.13199650000004,236.74335083333338,55.0,90.0
1230,235.41742650000003,236.74632820833338,50.0,84.0
1231,236.60837650000005,236.78205670833339,65.0,93.0
1232,236.84656650000005,236.99642770833339,67.0,80.0
1233,237.08475650000005,237.53533258333337,56.0,90.0
1234,237.08475650000005,237.71695245833337,68.0,84.0
1235,237.08475650000005,237.7477186666667,63.0,98.0
1236,237.08475650000005,237.8936100416667,60.0,95.0
1237,237.56113650000003,238.2598271666667,56.0,79.0
1238,238.03751650000004,238.5218361666667,60.0,86.0
1239,238.03751650000004,238.63299150000006,68.0,93.0
1240,237.08475650000005,238.64688591666672,44.0,84.0
1241,238.03751650000004,238.65978787500003,63.0,93.0
1242,238.51389650000004,238.74613175000005,56.0,83.0
1243,238.75208650000005,238.91286475000004,60.0,81.0
1244,238.27570650000004,238.95157062500004,51.0,80.0
1245,238.99027650000005,239.47955845833337,68.0,90.0
1246,238.99027650000005,239.49841516666672,60.0,83.0
1247,238.99027650000005,239.52918137500004,63.0,94.0
1248,239.70484650000003,239.8795191666667,60.0,83.0
1249,239.46665650000006,239.98174237500004,56.0,83.0
1250,239.22846650000005,240.29436675000005,51.0,83.0
1251,239.94303650000003,240.31620083333337,60.0,83.0
1252,240.18122650000004,240.55339837500003,56.0,95.0
1253,240.41941650000004,240.69730483333336,51.0,94.0
1254,239.94303650000003,240.83128670833338,63.0,93.0
1255,239.94303650000003,240.83624900000004,68.0,91.0
1256,238.99027650000005,240.8769397916667,44.0,94.0
1257,241.61036650000005,241.78305425000005,63.0,93.0
1258,241.37217650000005,241.93192300000004,58.0,91.0
1259,241.84855650000003,242.1959169166667,65.0,93.0
1260,240.89579650000005,242.44502395833337,46.0,94.0
1261,242.32493650000004,242.45395608333337,63.0,94.0
1262,242.08674650000006,242.47678262500006,58.0,78.0
1263,241.13398650000005,242.6008399166667,53.0,84.0
1264,242.56312650000004,242.91147937500006,68.0,90.0
1265,242.56312650000004,242.9164416666667,60.0,86.0
1266,242.56312650000004,242.93629083333337,63.0,94.0
1267,243.03950650000004,243.4662635833334,70.0,96.0
1268,243.03950650000004,243.55260745833337,62.0,96.0
1269,243.51588650000005,244.08754250000004,58.0,83.0
1270,242.80131650000004,244.1609844166667,46.0,84.0
1271,243.27769650000005,244.18678833333337,53.0,83.0
1272,243.75407650000005,244.24038108333338,63.0,94.0
1273,244.23045650000006,244.3564987083334,50.0,95.0
1274,243.75407650000005,244.37634787500005,60.0,86.0
1275,243.75407650000005,244.3902422916667,68.0,86.0
1276,244.70683650000004,245.38071570833338,72.0,72.0
1277,244.70683650000004,245.63875487500005,75.0,84.0
1278,244.70683650000004,246.11215750000005,68.0,51.0
1279,244.70683650000004,246.18659187500003,56.0,59.0
1280,244.70683650000004,246.19453154166672,63.0,79.0
1281,244.70683650000004,246.30667933333336,80.0,83.0
1282,246.61235650000003,247.7983442083334,74.0,82.0
1283,246.61235650000003,247.8072763333334,77.0,80.0
1284,246.61235650000003,247.81521600000005,67.0,55.0
1285,246.61235650000003,247.83308025000005,70.0,70.0
1286,246.61235650000003,247.84895958333337,62.0,75.0
1287,246.61235650000003,247.94919787500004,55.0,46.0
1288,248.75606650000003,251.04070558333336,72.0,63.0
1289,248.75606650000003,251.0536075416667,69.0,77.0
1290,248.75606650000003,251.09032850000006,65.0,60.0
1291,248.99425650000003,251.16377041666672,75.0,3.0
1292,251.37516404166672,255.35492195833336,77.0,61.0
1293,251.4942590416667,255.41049962500006,81.0,75.0
1294,251.6133540416667,255.43928091666672,89.0,73.0
1295,251.6133540416667,255.49188120833338,84.0,78.0
1296,248.75606650000003,255.7519052916667,53.0,49.0
1297,248.75606650000003,255.76480725000005,60.0,57.0
