,start,end,pitch,velocity
0,19.353434083333333,19.893304377083336,73.0,109.0
1,19.870675083333335,20.102355947916667,75.0,97.0
2,20.129295583333334,21.392225691666667,75.0,101.0
3,21.422398083333334,21.921320131250003,73.0,101.0
4,21.939639083333333,22.20688026666667,75.0,101.0
5,22.198259583333336,22.705802314583334,78.0,99.0
6,22.715500583333334,23.47412071666667,75.0,103.0
7,23.491362083333335,24.02261169375,73.0,109.0
8,24.008603083333334,24.2586029,75.0,106.0
9,24.267223583333333,25.50105888541667,75.0,106.0
10,25.560326083333333,26.138989452083333,73.0,98.0
11,26.077567083333335,26.354506535416668,75.0,105.0
12,26.336187583333334,26.883600975,80.0,106.0
13,26.853428583333333,27.431014366666666,78.0,106.0
14,27.370669583333335,27.902996779166667,75.0,108.0
15,27.887910583333333,28.14545349791667,73.0,87.0
16,28.146531083333336,29.483814585416667,71.0,92.0
17,29.439633583333336,29.6443748125,68.0,98.0
18,29.698254083333335,30.21657266875,71.0,99.0
19,30.215495083333334,30.45040870416667,73.0,106.0
20,30.474115583333333,31.31355462291667,73.0,108.0
21,31.249977083333334,31.488123460416666,68.0,92.0
22,31.508597583333334,32.0107523875,71.0,101.0
23,32.02583858333333,33.538768508333334,73.0,108.0
24,33.577561583333335,33.83725966875,68.0,93.0
25,33.836182083333334,34.35019032708333,71.0,101.0
26,34.35342308333333,34.620664266666665,73.0,99.0
27,34.61204358333333,35.16484490208334,75.0,105.0
28,35.12928458333334,35.85880991041667,73.0,106.0
29,35.905146083333335,36.448249133333334,73.0,114.0
30,36.422387083333334,36.676697241666666,75.0,109.0
31,36.68100758333333,37.9331618375,75.0,105.0
32,37.974110083333336,38.49997176666667,73.0,109.0
33,38.491351083333335,38.76721295,75.0,105.0
34,38.749971583333334,39.266134997916666,78.0,91.0
35,39.26721258333333,40.04307408333334,75.0,101.0
36,40.04307408333334,40.56139266875,73.0,111.0
37,40.560315083333336,40.76828906875,75.0,108.0
38,40.818935583333335,41.83402104583333,75.0,108.0
39,41.85341758333333,42.09479671666667,66.0,86.0
40,42.11203808333333,42.662684231250005,73.0,91.0
41,42.62927908333334,42.88682199791667,75.0,94.0
42,42.887899583333336,43.42561470625,80.0,90.0
43,43.405140583333335,43.93423502291667,78.0,97.0
44,43.92238158333333,44.44716568125,75.0,98.0
45,44.43962258333333,44.66483793541667,73.0,90.0
46,44.69824308333334,46.0279834875,71.0,82.0
47,45.991345583333334,46.24565574166667,68.0,92.0
48,46.249966083333334,46.79414671875,71.0,99.0
49,46.76720708333333,46.994577606250004,73.0,98.0
50,47.02582758333334,47.83724940208334,73.0,97.0
51,47.801689083333336,48.06138716875,68.0,90.0
52,48.060309583333336,48.80061076458333,71.0,98.0
53,48.83617108333333,49.05276575208334,73.0,91.0
54,49.09479158333333,49.662679097916666,73.0,90.0
55,49.61203258333334,50.397592352083336,75.0,93.0
56,50.387894083333336,50.89328164375,71.0,100.0
57,50.905135083333334,51.176686608333334,73.0,97.0
58,51.163755583333334,51.685306925,75.0,98.0
59,51.68099658333333,52.44715981458334,73.0,91.0
60,52.45685808333334,53.48702974166667,71.0,83.0
61,53.491340083333334,53.73379680208333,68.0,99.0
62,53.74996058333333,54.0064259125,71.0,96.0
63,54.00858108333333,54.28013260833333,68.0,95.0
64,54.26720158333334,55.04845101041667,71.0,96.0
65,55.04306308333334,55.295218070833336,68.0,91.0
66,55.301683583333336,56.09263127916667,71.0,93.0
67,56.077545083333334,56.31030353333333,73.0,94.0
68,56.33616558333333,57.65405254791667,71.0,93.0
69,57.629268083333336,57.842629995833335,68.0,91.0
70,57.887888583333336,58.140043570833335,71.0,90.0
71,58.146509083333335,58.40081924166667,68.0,80.0
72,58.405129583333334,59.21655140208333,71.0,91.0
73,59.18099108333334,59.42560297291667,68.0,101.0
74,59.43961158333334,60.147585202083334,71.0,97.0
75,60.08616283333333,60.451464289583335,75.0,106.0
76,60.474093583333335,61.748877131250005,71.0,98.0
77,61.76719608333334,62.193919908333335,75.0,105.0
78,62.28443708333334,62.75103156875,75.0,99.0
79,62.801678083333336,63.3296949375,75.0,99.0
80,63.318919083333334,63.81676354583334,80.0,109.0
81,63.83616008333333,64.34047005833334,78.0,106.0
82,64.35340108333334,64.56568541041666,75.0,97.0
83,64.61202158333333,65.11417638750001,75.0,93.0
84,65.12926258333333,67.40512298333334,73.0,84.0
85,67.45684708333333,67.98163118125001,66.0,96.0
86,67.97408808333334,68.48378598541667,73.0,97.0
87,68.49132908333334,68.73701855833333,75.0,96.0
88,68.74994958333333,69.55167313333334,75.0,106.0
89,69.52581108333334,69.77365572916666,73.0,106.0
90,69.78443158333333,70.52365517916667,75.0,98.0
91,70.56029308333333,70.83399977916667,78.0,106.0
92,70.81891358333334,71.35124077916667,80.0,109.0
93,71.33615458333334,72.14003330416666,78.0,111.0
94,72.11201608333333,72.59585193541668,71.0,108.0
95,72.62925708333334,73.16266186458334,73.0,106.0
96,73.14649808333334,73.67774769375,75.0,101.0
97,73.66373908333334,74.22085074375,80.0,96.0
98,74.18098008333334,74.71115210833334,78.0,98.0
99,74.69822108333334,74.94391055833334,75.0,105.0
100,74.95684158333334,76.71115064166666,78.0,101.0
101,76.76718508333333,77.02688316875,78.0,98.0
102,77.02580558333334,77.314598475,80.0,99.0
103,77.28442608333333,78.26826156875,83.0,99.0
104,78.31890808333334,78.83076115625,80.0,103.0
105,78.83614908333334,79.37601937708334,78.0,99.0
106,79.35339008333334,79.88895003541667,75.0,97.0
107,79.87063108333334,80.11416538750001,78.0,95.0
108,80.12925158333334,80.97192337916667,75.0,98.0
109,80.90511308333333,81.16050082708334,71.0,114.0
110,81.16373358333334,81.42450925416667,73.0,98.0
111,81.42235408333333,81.9503709375,75.0,106.0
112,81.93959508333333,82.39110337291667,71.0,106.0
113,82.19821558333334,82.7133014125,68.0,92.0
114,82.71545658333334,83.43851639791667,75.0,101.0
115,83.49131808333334,84.48592942291667,73.0,100.0
116,84.00855908333334,84.53873110833334,66.0,92.0
117,84.52580008333334,85.0796789875,73.0,98.0
118,85.04304108333334,85.28873055833334,75.0,96.0
119,85.30166158333334,86.12601442708333,75.0,97.0
120,86.07752308333333,86.32967807083334,73.0,99.0
121,86.33614358333334,87.10122922916668,75.0,97.0
122,87.11200508333334,87.37816868125,78.0,105.0
123,87.37062558333334,87.84907350833333,80.0,95.0
124,87.88786658333333,88.67665910833334,78.0,103.0
125,88.66372808333334,89.19928803541667,71.0,99.0
126,89.18096908333334,89.70467559583334,73.0,95.0
127,89.69821008333334,90.22407176666667,75.0,96.0
128,90.21545108333333,90.72838174166667,80.0,91.0
129,90.73269208333333,91.23915722916666,78.0,99.0
130,91.24993308333333,91.50963116875,75.0,91.0
131,91.50855358333334,93.27902642291667,78.0,105.0
132,93.31889708333334,93.5688969,78.0,114.0
133,93.57751758333333,93.85661220625,80.0,100.0
134,93.83613808333334,94.85445630208334,83.0,101.0
135,94.87062008333334,95.37169730208333,80.0,105.0
136,95.38786108333333,95.89971415625,78.0,106.0
137,95.90510208333333,96.47083442708333,75.0,98.0
138,96.42234308333333,96.68096358333334,78.0,97.0
139,96.68096358333334,97.69066111875,75.0,105.0
140,97.71544558333333,97.98591952291667,71.0,96.0
141,97.97406608333334,98.48699674166667,68.0,99.0
142,98.49130708333334,98.78548790208333,75.0,101.0
143,98.74992758333333,99.77255614375001,73.0,108.0
144,99.78440958333334,100.02471113125,71.0,98.0
145,100.04303008333333,100.55380557083333,71.0,103.0
146,100.56027108333333,101.081822425,68.0,97.0
147,101.07751208333333,101.60121859583333,71.0,105.0
148,101.59475308333333,101.84259772916667,73.0,105.0
149,101.85337358333334,101.97837349166667,63.0,78.0
150,102.11199408333334,102.23160606458333,63.0,82.0
151,101.85337358333334,102.37600251041667,73.0,108.0
152,102.37061458333334,102.48052829583334,63.0,78.0
153,102.62923508333334,102.7951832375,63.0,97.0
154,103.14647608333334,103.24453635625001,63.0,95.0
155,103.40509658333333,103.52147580833334,63.0,91.0
156,103.53440683333334,103.76501011250001,63.0,70.0
157,103.66371708333334,103.76501011250001,63.0,93.0
158,103.92233758333333,104.11630295833334,63.0,93.0
159,104.43957858333334,104.5408716125,63.0,93.0
160,104.69819908333334,104.79841452708334,63.0,93.0
161,104.95681958333334,105.05272468541668,63.0,93.0
162,105.21544008333333,105.31565552708334,63.0,95.0
163,105.47406058333334,105.53763812291668,63.0,99.0
164,105.60337083333334,105.79733620833333,63.0,93.0
165,105.73268108333333,105.79733620833333,63.0,97.0
166,102.37061458333334,106.2477669125,71.0,98.0
167,106.24992208333333,106.3770771625,63.0,75.0
168,106.50854258333334,106.62707697916667,63.0,75.0
169,106.76716308333334,106.89108540625,63.0,82.0
170,107.28440408333334,107.39647296666666,63.0,97.0
171,107.54302458333333,107.65509346666667,63.0,101.0
172,107.80164508333334,107.91048121041668,63.0,95.0
173,108.06026558333333,108.16910171041667,63.0,95.0
174,108.57750658333333,108.68634271041667,63.0,95.0
175,108.83612708333334,108.94496321041667,63.0,95.0
176,109.09474758333334,109.20358371041667,63.0,95.0
177,109.35336808333334,109.46220421041667,63.0,95.0
178,109.61198858333334,109.72082471041666,63.0,95.0
179,109.87060908333333,109.97944521041667,64.0,95.0
180,110.12922958333334,110.23806571041668,61.0,95.0
181,110.38785008333333,110.49668621041667,63.0,95.0
182,110.64647058333334,110.75530671041668,63.0,95.0
183,110.90509108333333,111.01392721041667,63.0,95.0
184,111.42233208333334,111.53116821041667,63.0,95.0
185,111.68095258333334,111.78978871041667,63.0,95.0
186,111.81026283333334,111.91909896041668,63.0,95.0
187,111.93957308333334,112.04840921041666,63.0,95.0
188,112.19819358333334,112.305952125,63.0,95.0
189,112.71543458333333,112.823193125,63.0,95.0
190,112.97405508333334,113.08181362500001,63.0,95.0
191,113.23267558333333,113.340434125,63.0,95.0
192,113.49129608333334,113.59905462500001,63.0,95.0
193,113.62060633333334,113.72836487500001,61.0,95.0
194,113.74991658333333,113.857675125,61.0,95.0
195,113.87922683333333,113.986985375,59.0,95.0
196,114.52577808333334,114.65508833333334,63.0,95.0
197,114.78439858333334,114.91370883333333,63.0,95.0
198,115.04301908333333,115.17232933333334,63.0,95.0
199,115.56026008333333,115.68957033333334,63.0,95.0
200,115.81888058333334,115.94819083333334,63.0,95.0
201,116.07750108333333,116.20681133333333,63.0,95.0
202,116.33612158333334,116.46543183333334,63.0,95.0
203,116.59474208333334,116.72405233333333,63.0,95.0
204,118.14646508333334,118.66047332708334,66.0,100.0
205,118.66370608333334,119.20357637708334,73.0,109.0
206,119.18094708333334,119.41370553333334,75.0,97.0
207,119.43956758333334,120.70357527708333,75.0,101.0
208,120.73267008333333,121.23159213125001,73.0,101.0
209,121.24991108333334,121.51715226666667,75.0,101.0
210,121.50853158333334,122.01607431458334,78.0,99.0
211,122.02577258333334,122.78439271666667,75.0,103.0
212,122.80163408333334,123.33288369375,73.0,109.0
213,123.31887508333334,123.56887490000001,75.0,106.0
214,123.57749558333335,124.81133088541667,75.0,106.0
215,124.87059808333333,125.44926145208333,73.0,98.0
216,125.38783908333333,125.66477853541667,75.0,105.0
217,125.64645958333334,126.193872975,80.0,106.0
218,126.16370058333334,126.74128636666667,78.0,106.0
219,126.68094158333334,127.21326877916667,75.0,108.0
220,127.19818258333333,127.45680308333334,73.0,87.0
221,127.45680308333334,128.79516417083335,71.0,92.0
222,128.74990558333334,128.95572439791667,68.0,98.0
223,129.00852608333335,129.52684466875002,71.0,99.0
224,129.52576708333333,129.76175828958333,73.0,106.0
225,129.78438758333334,130.62490420833333,73.0,108.0
226,130.56024908333333,130.79947304583334,68.0,92.0
227,130.81886958333334,131.32102438750002,71.0,101.0
228,131.33611058333335,132.85011809375,73.0,108.0
229,132.88783358333333,133.14860925416667,68.0,93.0
230,133.14645408333334,133.66046232708334,71.0,101.0
231,133.66369508333335,133.93201385208334,73.0,99.0
232,133.92231558333333,134.47511690208333,75.0,105.0
233,134.43955658333334,135.16908191041668,73.0,106.0
234,135.21541808333333,135.75959871875,73.0,114.0
235,135.73265908333335,135.98696924166669,75.0,109.0
236,135.99127958333335,137.24451142291667,75.0,105.0
237,137.28438208333333,137.81024376666667,73.0,109.0
238,137.80162308333334,138.07748495,75.0,105.0
239,138.06024358333335,138.57640699791668,78.0,91.0
240,138.57748458333333,139.35334608333335,75.0,101.0
241,139.35334608333335,139.87166466875001,73.0,111.0
242,139.87058708333333,140.07856106875002,75.0,108.0
243,140.12920758333334,141.14537063125002,75.0,108.0
244,141.16368958333334,141.40506871666668,66.0,86.0
245,141.42231008333334,141.97295623125,73.0,91.0
246,141.93955108333333,142.19817158333333,75.0,94.0
247,142.19817158333333,142.73696429166668,80.0,90.0
248,142.71541258333335,143.24558460833333,78.0,97.0
249,143.23265358333333,143.75743768125,75.0,98.0
250,143.74989458333334,143.97618752083335,73.0,90.0
251,144.00851508333335,145.33933307291667,71.0,82.0
252,145.30161758333333,145.55592774166666,68.0,92.0
253,145.56023808333333,146.10549630416668,71.0,99.0
254,146.07747908333334,146.30592719166668,73.0,98.0
255,146.33609958333335,147.14752140208333,73.0,97.0
256,147.11196108333334,147.37273675416668,68.0,90.0
257,147.37058158333335,148.11196035,71.0,98.0
258,148.14644308333334,148.36303775208333,73.0,91.0
259,148.40506358333334,148.97295109791668,73.0,90.0
260,148.92230458333333,149.70786435208333,75.0,93.0
261,149.69816608333335,150.20463122916667,71.0,100.0
262,150.21540708333333,150.48803619375002,73.0,97.0
263,150.47402758333334,150.99665651041667,75.0,98.0
264,150.99126858333335,151.7585094,73.0,91.0
265,151.76713008333334,152.79730174166667,71.0,83.0
266,152.80161208333334,153.04406880208333,68.0,99.0
267,153.06023258333335,153.31777549791667,71.0,96.0
268,153.31885308333335,153.59148219375,68.0,95.0
269,153.57747358333333,154.35872301041667,71.0,96.0
270,154.35333508333335,154.60549007083333,68.0,91.0
271,154.61195558333333,155.40290327916668,71.0,93.0
272,155.38781708333335,155.62057553333335,73.0,94.0
273,155.64643758333335,156.96540213333333,71.0,93.0
274,156.93954008333333,157.15290199583333,68.0,91.0
275,157.19816058333333,157.45139315625,71.0,90.0
276,157.45678108333334,157.71109124166668,68.0,80.0
277,157.71540158333335,158.49665101041668,71.0,91.0
278,158.49126308333334,158.73587497291666,68.0,101.0
279,158.74988358333334,159.25742631458334,71.0,97.0
280,159.26712458333333,159.75311560625002,75.0,106.0
281,159.78436558333334,161.06022671666668,71.0,98.0
282,161.07746808333334,161.50526949375,75.0,105.0
283,161.59470908333333,162.06238115416667,75.0,99.0
284,162.11195008333334,162.63996693750002,75.0,99.0
285,162.62919108333335,162.8856564125,80.0,109.0
286,162.88781158333333,163.65936274166668,78.0,106.0
287,163.66367308333335,163.87595741041667,75.0,97.0
288,163.92229358333333,164.42552597291666,75.0,93.0
289,164.43953458333334,166.71539498333334,73.0,84.0
290,166.76711908333334,167.29190318125,66.0,96.0
291,167.28436008333335,167.79405798541669,73.0,97.0
292,167.80160108333334,168.04836814375,75.0,96.0
293,168.06022158333334,168.86194513333334,75.0,106.0
294,168.83608308333334,169.08392772916667,73.0,106.0
295,169.09470358333334,169.83500476458335,75.0,98.0
296,169.87056508333333,170.14534936458335,78.0,106.0
297,170.12918558333334,170.66151277916669,80.0,109.0
298,170.64642658333335,171.45138288958333,78.0,111.0
299,171.42228808333334,171.90612393541667,71.0,108.0
300,171.93952908333333,172.47401145,73.0,106.0
301,172.45677008333334,172.98801969375,75.0,101.0
302,172.97401108333335,173.53220032916667,80.0,96.0
303,173.49125208333334,174.02142410833335,78.0,98.0
304,174.00849308333335,174.25526014375,75.0,105.0
305,174.26711358333333,176.07422432708333,78.0,101.0
306,176.07745708333334,176.33715516875,78.0,98.0
307,176.33607758333335,176.62594806041668,80.0,99.0
308,176.59469808333333,177.37163716875,83.0,99.0
309,177.37055958333335,177.62810249791667,80.0,99.0
310,177.62918008333335,178.14103315625002,80.0,103.0
311,178.14642108333334,178.68629137708334,78.0,99.0
312,178.66366208333335,179.20029962083333,75.0,97.0
313,179.18090308333333,179.4255149729167,78.0,95.0
314,179.43952358333334,180.28219537916667,75.0,98.0
315,180.21538508333333,180.47077282708335,71.0,114.0
316,180.47400558333334,180.73478125416668,73.0,98.0
317,180.73262608333334,181.26172052291668,75.0,106.0
318,181.24986708333333,181.7013753729167,71.0,106.0
319,181.50848758333333,182.0235734125,68.0,92.0
320,182.02572858333335,182.74878839791668,75.0,101.0
321,182.80159008333334,183.30805522916668,73.0,100.0
322,183.31883108333335,183.84900310833333,66.0,92.0
323,183.83607208333333,184.38995098750001,73.0,98.0
324,184.35331308333335,184.60870082708334,75.0,96.0
325,184.61193358333335,185.40288127916668,75.0,97.0
326,185.38779508333334,185.64426041250002,73.0,99.0
327,185.64641558333335,186.42227708333334,75.0,97.0
328,186.42227708333334,186.68844068125,78.0,105.0
329,186.68089758333335,187.18736272916667,80.0,95.0
330,187.19813858333333,187.98800869375,78.0,103.0
331,187.97400008333335,188.50956003541668,71.0,99.0
332,188.49124108333334,189.01494759583335,73.0,95.0
333,189.00848208333335,189.53542135208335,75.0,96.0
334,189.52572308333333,190.03973132708333,80.0,91.0
335,190.04296408333335,190.54942922916666,78.0,99.0
336,190.56020508333333,190.82098075416667,75.0,91.0
337,190.81882558333334,192.58929842291667,78.0,105.0
338,192.62916908333335,192.88024648541668,78.0,114.0
339,192.88778958333333,193.16796179166667,80.0,100.0
340,193.14641008333334,194.16472830208335,83.0,101.0
341,194.18089208333333,194.68196930208333,80.0,105.0
342,194.69813308333335,195.21106374166666,78.0,106.0
343,195.21537408333333,195.7821840125,75.0,98.0
344,195.73261508333334,195.99123558333335,78.0,97.0
345,195.99123558333335,197.00093311875,75.0,105.0
346,197.02571758333335,197.29619152291667,71.0,96.0
347,197.28433808333335,197.79834632708335,68.0,99.0
348,197.80157908333334,198.09575990208333,75.0,101.0
349,198.06019958333334,199.08390572916667,73.0,108.0
350,199.09468158333334,199.33606071666668,71.0,98.0
351,199.35330208333335,199.86407757083333,71.0,103.0
352,199.87054308333333,200.392094425,68.0,97.0
353,200.38778408333334,200.91256818125,71.0,105.0
354,200.90502508333333,201.15286972916667,73.0,105.0
355,201.16364558333333,201.68735209583335,73.0,108.0
356,201.43842986458336,201.79187788125,71.0,99.0
357,201.68088658333335,201.79187788125,71.0,98.0
358,201.93950708333335,202.24015341458335,66.0,103.0
359,202.45674808333334,202.56773938125002,71.0,97.0
360,202.71536858333334,202.80265300208333,71.0,97.0
361,202.84467883333335,202.92765291041667,71.0,72.0
362,202.97398908333335,203.09791140625,71.0,97.0
363,203.10329933333335,203.22722165625,66.0,97.0
364,203.81558329375,203.91472115208333,71.0,101.0
365,204.04403140208333,204.14316926041667,71.0,99.0
366,204.26709158333335,204.3683846125,71.0,101.0
367,204.52571208333333,204.65178957708335,71.0,101.0
368,204.78433258333334,204.92765144375,75.0,82.0
369,205.04295308333334,205.22290984791667,73.0,109.0
370,205.30157358333335,205.4524355416667,71.0,103.0
371,205.81881458333334,205.87700419583334,71.0,103.0
372,205.94812483333334,206.0440299354167,71.0,93.0
373,206.07743508333334,206.28971941041667,66.0,113.0
374,206.59467608333335,206.702434625,71.0,95.0
375,206.85329658333333,206.95997753958335,71.0,103.0
376,207.11191708333334,207.22398596666667,71.0,101.0
377,207.37053758333334,207.49230473541667,66.0,106.0
378,207.88777858333333,207.9826061,66.0,103.0
379,208.14639908333334,208.25092486875002,66.0,95.0
380,208.40501958333334,208.50307985625,66.0,101.0
381,208.66364008333335,208.76170035625,66.0,99.0
382,208.92226058333335,209.03109671041668,66.0,97.0
383,209.18088108333333,209.33497579791668,73.0,106.0
384,209.43950158333334,209.71536345,71.0,106.0
385,209.69812208333335,209.78863925833335,66.0,106.0
386,209.95674258333335,210.02570805000002,66.0,103.0
387,210.08605283333335,210.16256139791668,66.0,93.0
388,210.21536308333333,210.48260426666667,71.0,103.0
389,210.73260408333334,210.82419884375,66.0,106.0
390,210.99122458333335,211.07635383125,66.0,106.0
391,211.12053483333335,211.18626754375,66.0,55.0
392,211.24984508333335,211.39855187083333,66.0,109.0
393,211.50846558333333,211.72182749583334,71.0,101.0
394,212.02570658333335,212.06342207291667,76.0,62.0
395,212.02570658333335,212.12807719791667,66.0,103.0
396,212.28432708333335,212.38454252708334,66.0,95.0
397,212.54294758333333,212.65286129583333,66.0,93.0
398,212.80156808333334,212.91363696666667,66.0,95.0
399,213.06018858333334,213.18411090625,66.0,95.0
400,213.31880908333335,213.4632055291667,73.0,106.0
401,213.57742958333336,213.90717072083334,71.0,101.0
402,214.09467058333334,214.16794639166667,66.0,103.0
403,214.22398083333334,214.31449800833335,66.0,78.0
404,214.35329108333335,214.71212702708334,71.0,99.0
405,214.87053208333333,214.9588940875,66.0,101.0
406,215.12915258333334,215.22829044166667,66.0,103.0
407,215.38777308333334,215.49768679583335,66.0,99.0
408,215.64639358333335,216.1356173625,73.0,103.0
409,216.42225508333334,216.94596159583335,66.0,96.0
410,216.93949608333335,217.4481164,73.0,97.0
411,217.45673708333334,217.70242655833334,75.0,96.0
412,217.71535758333334,218.51600354791668,75.0,106.0
413,218.49121908333333,218.73798614375002,73.0,106.0
414,218.74983958333334,219.48906317916666,75.0,98.0
415,219.52570108333333,219.79940777916667,78.0,106.0
416,219.78432158333334,220.31557119375,80.0,109.0
417,220.30156258333335,221.10544130416667,78.0,111.0
418,221.07742408333334,221.56125993541667,71.0,108.0
419,221.59466508333335,222.10867332708335,73.0,106.0
420,222.11190608333334,222.64207810833335,75.0,101.0
421,222.62914708333335,223.1442329125,80.0,96.0
422,223.14638808333333,223.67548252291667,78.0,98.0
423,223.66362908333335,223.90931855833335,75.0,105.0
424,223.92224958333335,225.72936032708336,78.0,101.0
425,225.73259308333334,225.99121358333335,78.0,98.0
426,225.99121358333335,226.28000647500002,80.0,99.0
427,226.24983408333335,227.02569558333334,83.0,99.0
428,227.02569558333334,227.28431608333335,80.0,99.0
429,227.28431608333335,227.79616915625002,80.0,103.0
430,227.80155708333334,228.34142737708333,78.0,99.0
431,228.31879808333335,228.85435803541668,75.0,97.0
432,228.83603908333333,229.0795733875,78.0,95.0
433,229.09465958333334,229.93733137916666,75.0,98.0
434,229.87052108333333,230.12590882708335,71.0,114.0
435,230.12914158333334,230.38883966875,73.0,98.0
436,230.38776208333334,230.91577893750002,75.0,106.0
437,230.90500308333336,231.3554337875,71.0,106.0
438,231.16362358333333,231.6787094125,68.0,92.0
439,231.68086458333335,232.4028468125,75.0,101.0
440,232.45672608333334,232.96319122916668,73.0,100.0
441,232.97396708333335,233.50413910833333,66.0,92.0
442,233.49120808333333,234.0450869875,73.0,98.0
443,234.00844908333335,234.26383682708334,75.0,96.0
444,234.26706958333335,235.05801727916668,75.0,97.0
445,235.04293108333334,235.29939641250002,73.0,99.0
446,235.30155158333335,236.07849066875002,75.0,97.0
447,236.07741308333334,236.34249909583335,78.0,105.0
448,236.33603358333335,236.84142114375,80.0,95.0
449,236.85327458333333,237.64206710833335,78.0,103.0
450,237.62913608333335,238.16469603541668,71.0,99.0
451,238.14637708333333,238.67008359583335,73.0,95.0
452,238.66361808333335,239.18947976666666,75.0,96.0
453,239.18085908333333,239.69378974166668,80.0,91.0
454,239.69810008333334,240.2045652291667,78.0,99.0
455,240.21534108333336,240.47503916875002,75.0,91.0
456,240.47396158333333,240.99120258333335,80.0,105.0
457,240.99120258333335,242.23150339791667,78.0,105.0
458,241.76706408333334,242.28214991250002,85.0,106.0
459,242.28430508333335,242.83710640208335,87.0,103.0
460,242.80154608333333,243.33171810833335,85.0,105.0
461,243.31878708333335,244.25197605416668,83.0,105.0
462,244.09464858333334,244.60973441250002,80.0,106.0
463,244.61188958333335,244.89098420625,78.0,95.0
464,244.87051008333333,245.4125355479167,75.0,98.0
465,245.38775108333334,245.65175951041667,78.0,97.0
466,245.64637158333335,246.6786984125,75.0,109.0
467,246.68085358333335,246.93731891250002,71.0,109.0
468,246.93947408333335,247.4545599125,68.0,97.0
469,247.45671508333334,247.75628382916668,75.0,99.0
470,247.71533558333334,248.7476624125,73.0,103.0
471,248.74981758333334,249.00520532708333,71.0,119.0
472,249.00843808333335,249.5235239125,71.0,108.0
473,249.52567908333333,250.0407649125,68.0,93.0
474,250.04292008333334,250.61080759791668,71.0,106.0
475,250.56016108333336,250.81554882708335,73.0,100.0
476,251.59464308333335,251.85649633958334,75.0,103.0
477,250.81878158333333,252.11511683958335,73.0,100.0
478,251.85326358333333,252.11511683958335,73.0,100.0
479,252.11188408333334,252.43731487916668,75.0,97.0
480,252.62912508333335,252.90390936458334,75.0,97.0
481,252.88774558333336,253.18515915833333,73.0,95.0
482,253.14636608333333,253.54722785833334,75.0,91.0
483,253.66360708333335,253.94270170625,75.0,95.0
484,253.92222758333335,254.22933942708335,73.0,92.0
485,254.18084808333333,254.41899446041668,75.0,95.0
486,254.43946858333334,254.6970114979167,78.0,89.0
487,254.69808908333334,255.03321814791667,75.0,103.0
488,255.60326083333334,255.8985192375,75.0,103.0
489,255.86188133333334,256.2476569125,73.0,94.0
490,256.2498120833333,256.76382032708335,75.0,101.0
491,256.76705308333334,257.0439925354167,75.0,97.0
492,257.02567358333334,257.3414061104167,73.0,97.0
493,257.28429408333335,257.7993799125,75.0,98.0
494,257.80153508333336,258.07308660833337,71.0,97.0
495,258.06015558333337,258.3317071083333,73.0,93.0
496,258.3187760833333,258.8414050104167,75.0,100.0
497,258.83601708333333,259.86726632708337,71.0,97.0
498,259.87049908333336,260.13235233958335,71.0,109.0
499,260.12911958333336,260.3855849125,73.0,106.0
500,260.38774008333337,260.92222245,75.0,105.0
501,260.9049810833333,261.42006691250003,68.0,114.0
502,261.42222208333334,262.1959284125,66.0,101.0
503,262.19808358333336,262.4545489125,68.0,98.0
504,262.45670408333336,262.9717899125,71.0,100.0
505,262.9739450833333,263.4890309125,73.0,100.0
506,263.49118608333333,264.00519432708336,75.0,99.0
507,264.00842708333334,264.2648924125,75.0,99.0
508,264.26704758333335,264.5235129125,73.0,97.0
509,264.52566808333336,264.7821334125,75.0,105.0
510,264.78428858333336,265.0407539125,78.0,101.0
511,265.04290908333337,265.32846921875,71.0,99.0
512,265.3015295833333,265.590322475,73.0,105.0
513,265.5601500833333,266.07415832708335,75.0,108.0
514,266.07739108333334,266.3338564125,75.0,106.0
515,266.33601158333335,266.5924769125,73.0,99.0
516,266.59463208333335,267.1097179125,75.0,97.0
517,267.11187308333336,268.1441999125,71.0,100.0
518,268.14635508333333,268.40282041250003,75.0,105.0
519,268.40497558333334,268.6614409125,73.0,99.0
520,268.66359608333335,269.1776043270833,75.0,97.0
521,269.18083708333336,269.4491558520833,75.0,105.0
522,269.43945758333336,269.75950045208333,73.0,100.0
523,269.69807808333337,270.21208632708334,75.0,100.0
524,270.2153190833333,270.4717844125,75.0,108.0
525,270.47393958333333,270.75949971875,73.0,101.0
526,270.73256008333334,270.9890254125,75.0,103.0
527,270.99118058333335,271.2476459125,78.0,91.0
528,271.24980108333335,272.28105032708334,75.0,111.0
529,272.2842830833333,272.54613633958337,75.0,106.0
530,272.5429035833333,272.79936891250003,73.0,97.0
531,272.80152408333333,273.31553232708336,75.0,97.0
532,273.31876508333335,273.6086355604167,75.0,97.0
533,273.57738558333335,273.88773018333336,73.0,94.0
534,273.83600608333336,274.3510919125,75.0,97.0
535,274.3532470833334,274.6355744625,71.0,97.0
536,274.6118675833333,274.89742771875,73.0,97.0
537,274.8704880833333,275.4157463041667,75.0,100.0
538,275.38772908333334,276.4189783270833,71.0,101.0
539,276.42221108333337,276.69807295,71.0,122.0
540,276.6808315833334,276.9372969125,73.0,101.0
541,276.9394520833333,277.45453791250003,75.0,106.0
542,277.45669308333333,277.98363235208336,68.0,100.0
543,277.97393408333335,278.7476404125,66.0,99.0
544,278.74979558333337,279.0062609125,68.0,106.0
545,279.0084160833334,279.5439760354167,71.0,106.0
546,279.52565708333333,280.04074291250004,73.0,97.0
547,280.04289808333334,280.55690632708337,75.0,109.0
548,280.56013908333335,280.8166044125,75.0,105.0
549,280.81875958333336,281.0752249125,73.0,93.0
550,281.07738008333337,281.3338454125,75.0,98.0
551,281.3360005833333,281.5924659125,78.0,90.0
552,281.5946210833333,281.90496568333333,71.0,93.0
553,281.85324158333333,282.10970691250003,73.0,105.0
554,282.11186208333334,282.62587032708336,75.0,109.0
555,282.62910308333335,282.8855684125,75.0,103.0
556,282.88772358333335,283.19160267083333,73.0,100.0
557,283.14634408333336,283.6614299125,75.0,105.0
558,283.6635850833333,284.314446675,71.0,101.0
