,start,end,pitch,velocity
0,19.353434083333333,19.886838864583336,66.0,72.0
1,19.353434083333333,19.9137785,63.0,64.0
2,19.353434083333333,19.950416404166667,71.0,66.0
3,19.870675083333335,20.407312620833334,59.0,61.0
4,20.129295583333334,20.681019316666667,61.0,63.0
5,20.129295583333334,20.717657220833335,66.0,69.0
6,20.646536583333333,21.107743141666667,59.0,44.0
7,20.905157083333336,21.141148289583334,63.0,61.0
8,19.353434083333333,21.186406877083336,47.0,73.0
9,19.612054583333332,21.207958585416666,54.0,58.0
10,21.163777583333335,21.46334632916667,71.0,66.0
11,21.422398083333334,21.977354572916667,70.0,75.0
12,21.422398083333334,21.98597525625,66.0,60.0
13,21.422398083333334,21.994595939583334,61.0,69.0
14,22.198259583333336,22.744595389583335,61.0,61.0
15,21.939639083333333,23.003215889583334,58.0,62.0
16,22.715500583333334,23.0366210375,66.0,61.0
17,21.681018583333334,23.054939989583335,54.0,62.0
18,21.422398083333334,23.071103770833336,46.0,82.0
19,22.974121083333333,23.290931195833334,68.0,70.0
20,23.232741583333333,23.494594839583335,70.0,70.0
21,23.491362083333335,23.9029997125,63.0,72.0
22,23.491362083333335,23.99674964375,44.0,76.0
23,23.749982583333335,24.026922035416668,51.0,57.0
24,24.008603083333334,24.338344220833335,56.0,59.0
25,23.491362083333335,24.529076839583336,71.0,59.0
26,24.008603083333334,24.561404402083333,63.0,34.0
27,24.267223583333333,24.92562827291667,58.0,55.0
28,24.525844083333336,24.934248956250002,59.0,67.0
29,24.784464583333335,25.1573091375,63.0,60.0
30,25.043085083333334,25.420239979166666,71.0,76.0
31,25.560326083333333,26.074334327083335,66.0,70.0
32,25.560326083333333,26.077567083333335,70.0,72.0
33,25.560326083333333,26.117437743750003,61.0,67.0
34,26.336187583333334,26.539851227083336,61.0,64.0
35,26.594808083333334,26.894376829166667,66.0,62.0
36,25.560326083333333,26.982738833333336,42.0,72.0
37,25.818946583333336,27.030152591666667,51.0,50.0
38,26.853428583333333,27.096962887500002,70.0,69.0
39,26.077567083333335,27.09804047291667,54.0,58.0
40,27.112049083333336,27.257523114583336,73.0,72.0
41,27.629290083333334,27.995669125000003,59.0,69.0
42,27.629290083333334,28.0150656625,64.0,72.0
43,27.629290083333334,28.117436277083335,68.0,69.0
44,28.146531083333336,28.42993604791667,66.0,63.0
45,27.887910583333333,28.595884202083333,56.0,57.0
46,28.405151583333335,28.9460994625,64.0,72.0
47,28.405151583333335,28.956875316666668,59.0,66.0
48,28.922392583333334,29.215495816666667,56.0,49.0
49,27.629290083333334,29.24997855,52.0,60.0
50,29.181013083333333,29.377133629166668,59.0,59.0
51,29.439633583333336,29.624978275,68.0,63.0
52,29.698254083333335,29.939633216666667,39.0,73.0
53,29.956874583333335,30.29200364791667,51.0,60.0
54,29.698254083333335,30.400839775,59.0,72.0
55,29.698254083333335,30.483813852083333,66.0,62.0
56,30.732736083333336,31.036615170833336,63.0,69.0
57,30.474115583333333,31.045235854166666,59.0,55.0
58,30.991356583333335,31.207951252083333,66.0,82.0
59,30.215495083333334,31.217649520833334,54.0,48.0
60,31.249977083333334,31.501054485416667,68.0,61.0
61,31.508597583333334,31.85342491666667,71.0,64.0
62,31.767218083333333,32.113123002083334,61.0,62.0
63,31.767218083333333,32.31032113333333,64.0,73.0
64,31.767218083333333,32.38036418541667,68.0,73.0
65,32.54307958333334,32.935320675,63.0,73.0
66,32.54307958333334,33.02044992291667,66.0,72.0
67,32.02583858333333,33.0581654125,56.0,56.0
68,32.28445908333333,33.2650618125,61.0,59.0
69,33.060320583333336,33.323251425,64.0,70.0
70,33.060320583333336,33.387906550000004,68.0,72.0
71,33.318941083333335,33.42993238125,56.0,59.0
72,31.767218083333333,33.4331651375,49.0,70.0
73,33.577561583333335,33.71225976041667,59.0,48.0
74,33.836182083333334,34.27906968958334,71.0,75.0
75,33.836182083333334,34.29415588541667,64.0,72.0
76,33.836182083333334,34.296311056250005,68.0,64.0
77,33.836182083333334,34.30816449583333,59.0,78.0
78,34.35342308333333,34.68424180625,54.0,67.0
79,34.61204358333333,34.793077933333336,70.0,78.0
80,34.61204358333333,34.80062103125,66.0,72.0
81,34.61204358333333,34.802776202083336,61.0,70.0
82,34.999974333333334,35.22950002708333,54.0,27.0
83,35.12928458333334,35.41699988958334,68.0,69.0
84,33.836182083333334,35.421310231250004,42.0,75.0
85,35.12928458333334,35.43316367083334,71.0,70.0
86,34.09480258333333,35.44501711041667,49.0,67.0
87,35.12928458333334,35.46010330625,64.0,73.0
88,35.38790508333334,35.512904991666666,54.0,52.0
89,35.905146083333335,36.464412914583335,66.0,73.0
90,35.905146083333335,36.562473187500004,63.0,73.0
91,35.905146083333335,36.58294731041667,71.0,70.0
92,36.68100758333333,36.83833505416667,63.0,63.0
93,36.422387083333334,36.977343572916666,59.0,54.0
94,36.93962808333333,37.28553300208333,63.0,69.0
95,36.93962808333333,37.31570539375,66.0,76.0
96,36.93962808333333,37.321093320833334,71.0,75.0
97,36.163766583333334,37.39113637291667,54.0,35.0
98,37.19824858333333,37.6228172375,59.0,54.0
99,35.905146083333335,37.70363614375,47.0,76.0
100,37.45686908333334,37.716567168750004,63.0,69.0
101,37.71548958333334,37.94070493541667,71.0,69.0
102,37.71548958333334,38.007515231250004,54.0,66.0
103,37.974110083333336,38.42023044583333,70.0,75.0
104,37.974110083333336,38.4827304,66.0,69.0
105,37.974110083333336,38.51936830416667,61.0,72.0
106,38.749971583333334,39.115273039583336,61.0,73.0
107,38.232730583333336,39.227341922916665,54.0,57.0
108,39.00859208333333,39.32755736666667,66.0,59.0
109,39.26721258333333,39.481652081250004,68.0,69.0
110,38.491351083333335,39.59803130625,58.0,54.0
111,37.974110083333336,39.6723847,46.0,63.0
112,39.52583308333333,39.67992779791667,54.0,69.0
113,39.52583308333333,39.75751394791667,70.0,63.0
114,39.78445358333334,39.92130693125,73.0,62.0
115,39.913763833333334,39.99350515416667,70.0,18.0
116,40.04307408333334,40.48165134791667,44.0,75.0
117,40.30169458333334,40.5064358125,51.0,59.0
118,40.560315083333336,40.90945275833334,56.0,45.0
119,40.04307408333334,40.989194079166666,66.0,72.0
120,40.04307408333334,40.99996993333333,71.0,73.0
121,40.04307408333334,41.03229749583333,63.0,72.0
122,41.336176583333334,41.44824546666667,71.0,72.0
123,41.336176583333334,41.49458163958334,63.0,66.0
124,41.077556083333334,41.5409178125,59.0,67.0
125,40.818935583333335,41.56570227708333,58.0,64.0
126,41.59479708333333,41.74458145625,63.0,72.0
127,41.59479708333333,41.757512481250004,71.0,75.0
128,41.85341758333333,41.9935036875,70.0,63.0
129,41.85341758333333,42.00966746875,61.0,66.0
130,42.11203808333333,42.48380505208333,61.0,69.0
131,42.11203808333333,42.545227420833335,70.0,73.0
132,42.62927908333334,42.97410641666667,54.0,49.0
133,42.887899583333336,43.251045868750005,59.0,73.0
134,42.37065858333334,43.28552860208333,51.0,62.0
135,42.887899583333336,43.29845962708333,66.0,78.0
136,43.146520083333336,43.418071608333335,54.0,58.0
137,42.11203808333333,43.73703689166667,42.0,69.0
138,43.405140583333335,43.754278258333336,59.0,82.0
139,43.405140583333335,43.75966618541667,63.0,66.0
140,43.663761083333334,43.76828686875,51.0,62.0
141,43.92238158333333,44.10341593333334,61.0,47.0
142,44.05169183333334,44.185312425,63.0,70.0
143,44.18100208333333,44.63897588541667,64.0,59.0
144,44.18100208333333,44.72518271875,59.0,70.0
145,44.18100208333333,44.77906198958333,56.0,69.0
146,44.69824308333334,45.20470822916667,52.0,66.0
147,44.95686358333334,45.457940802083336,59.0,72.0
148,44.95686358333334,45.48595802291667,64.0,66.0
149,44.95686358333334,45.51505282916667,56.0,66.0
150,44.43962258333333,45.61957861458333,47.0,70.0
151,45.474104583333336,45.87819911458333,52.0,56.0
152,44.18100208333333,46.01181970625,40.0,72.0
153,45.732725083333335,46.02475073125,56.0,73.0
154,45.991345583333334,46.314621208333335,47.0,70.0
155,45.991345583333334,46.359879795833336,66.0,69.0
156,46.249966083333334,46.719793325000005,63.0,75.0
157,46.249966083333334,46.739189862500005,59.0,78.0
158,46.249966083333334,46.84587081875,54.0,76.0
159,47.02582758333334,47.24565500833334,54.0,78.0
160,46.76720708333333,47.31893081666667,51.0,66.0
161,47.28444808333334,47.446085895833335,59.0,57.0
162,46.50858658333333,47.57216338958334,47.0,56.0
163,46.249966083333334,47.573240975000004,39.0,75.0
164,47.54306858333334,47.619577147916665,51.0,47.0
165,47.54306858333334,47.71655983541667,61.0,82.0
166,47.801689083333336,48.04630097291667,63.0,67.0
167,48.060309583333336,48.19931810208333,66.0,66.0
168,48.060309583333336,48.374964525,38.0,54.0
169,48.318930083333335,48.773671129166665,37.0,73.0
170,48.577550583333334,48.858800377083334,44.0,62.0
171,48.318930083333335,48.97086926041667,59.0,72.0
172,48.83617108333333,49.16483463541667,49.0,50.0
173,48.318930083333335,49.23164493125,64.0,69.0
174,48.318930083333335,49.25535181041667,56.0,66.0
175,49.09479158333333,49.83401517916667,51.0,59.0
176,49.61203258333334,49.83401517916667,56.0,73.0
177,49.35341208333333,49.83940310625,52.0,72.0
178,49.87065308333334,50.15190287708334,59.0,70.0
179,50.12927358333334,50.3275493,64.0,61.0
180,50.387894083333336,50.8253937625,42.0,75.0
181,50.646514583333335,50.888971302083334,49.0,60.0
182,50.387894083333336,50.908367839583335,68.0,95.0
183,50.905135083333334,51.1228073375,66.0,72.0
184,50.905135083333334,51.22302278125,54.0,59.0
185,51.163755583333334,51.57647079791667,64.0,91.0
186,51.42237608333333,51.87496195833334,58.0,70.0
187,51.163755583333334,51.87819471458334,56.0,61.0
188,51.68099658333333,52.0021170375,61.0,88.0
189,52.19823758333334,52.392202958333336,61.0,70.0
190,52.45685808333334,52.977331839583336,63.0,76.0
191,52.45685808333334,53.00858181666667,56.0,80.0
192,52.45685808333334,53.02582318333334,59.0,80.0
193,52.974099083333336,53.64004687083334,52.0,78.0
194,53.232719583333335,53.7995295125,56.0,62.0
195,53.491340083333334,53.853408783333336,63.0,80.0
196,53.491340083333334,53.8641846375,59.0,73.0
197,53.74996058333333,54.118494795833335,52.0,45.0
198,54.00858108333333,54.338322220833334,56.0,58.0
199,54.26720158333334,54.44931351875,59.0,64.0
200,54.52582208333334,54.78120982708334,51.0,76.0
201,54.52582208333334,54.83508909791667,56.0,73.0
202,54.52582208333334,54.883580441666666,59.0,73.0
203,54.52582208333334,54.89758905208333,63.0,75.0
204,55.04306308333334,55.35664043958334,51.0,55.0
205,55.560304083333335,55.867415927083336,51.0,51.0
206,55.818924583333335,56.09155369375,64.0,70.0
207,55.818924583333335,56.109872645833335,73.0,75.0
208,52.45685808333334,56.113105402083335,40.0,73.0
209,55.818924583333335,56.12388125625,68.0,91.0
210,52.715478583333336,56.15620881875,47.0,66.0
211,56.077545083333334,56.19500189375,51.0,56.0
212,56.465475833333336,56.56892403333334,73.0,66.0
213,56.33616558333333,56.57215678958334,71.0,78.0
214,56.59478608333333,56.973018564583334,44.0,72.0
215,56.85340658333334,57.064613325,51.0,60.0
216,56.59478608333333,57.08293227708334,68.0,88.0
217,56.59478608333333,57.238104577083334,75.0,72.0
218,56.59478608333333,57.2585787,71.0,64.0
219,57.11202708333334,57.42129409791667,56.0,56.0
220,57.37064758333334,57.525819883333334,68.0,85.0
221,57.37064758333334,57.532285395833334,73.0,85.0
222,57.629268083333336,57.992414368750005,59.0,69.0
223,57.887888583333336,57.99349195416667,68.0,64.0
224,57.887888583333336,58.02581951666667,63.0,67.0
225,57.37064758333334,58.05275915208333,58.0,69.0
226,58.146509083333335,58.247802112500004,68.0,75.0
227,58.146509083333335,58.342629629166666,70.0,75.0
228,58.405129583333334,59.192844522916666,63.0,75.0
229,58.405129583333334,59.19499969375,71.0,73.0
230,59.18099108333334,59.51073222083333,56.0,78.0
231,59.43961158333334,59.781206160416666,63.0,76.0
232,59.43961158333334,59.82861991875,71.0,72.0
233,59.69823208333334,60.048447343750006,56.0,45.0
234,59.95685258333334,60.252110987500004,66.0,82.0
235,59.95685258333334,60.27689545208334,61.0,78.0
236,59.95685258333334,60.284438550000004,70.0,91.0
237,60.215473083333336,60.37818848125,56.0,55.0
238,58.66375008333333,60.40297294583333,44.0,67.0
239,58.92237058333333,60.40836087291667,51.0,50.0
240,60.732714083333335,61.0926276125,68.0,70.0
241,60.732714083333335,61.131420687500004,63.0,85.0
242,60.732714083333335,61.13249827291667,59.0,80.0
243,60.732714083333335,61.147584468750004,64.0,88.0
244,61.24995508333333,61.40836013958334,59.0,66.0
245,60.732714083333335,61.61094619791667,52.0,82.0
246,61.50857558333333,61.8426270625,59.0,82.0
247,61.50857558333333,61.90512701666667,66.0,78.0
248,62.02581658333334,62.24779917916667,59.0,69.0
249,60.732714083333335,62.36417840416667,40.0,73.0
250,61.76719608333334,62.3727990875,52.0,51.0
251,62.28443708333334,62.442842139583334,64.0,69.0
252,62.28443708333334,62.64327302708334,47.0,46.0
253,62.543057583333336,62.94607452916667,59.0,80.0
254,62.543057583333336,62.95038487083334,68.0,75.0
255,62.543057583333336,62.96654865208333,64.0,76.0
256,63.060298583333335,63.27689325208333,59.0,72.0
257,63.318919083333334,63.462237943750004,64.0,70.0
258,62.801678083333336,63.616332658333334,52.0,85.0
259,63.57753958333333,63.916978989583335,59.0,70.0
260,63.57753958333333,63.923444502083335,64.0,76.0
261,63.57753958333333,63.936375527083335,68.0,66.0
262,63.83616008333333,64.14865985416667,52.0,97.0
263,64.09478058333333,64.27581493333334,59.0,78.0
264,62.543057583333336,64.44068550208334,40.0,70.0
265,64.35340108333334,64.56891816666666,52.0,99.0
266,64.35340108333334,64.6227974375,64.0,70.0
267,64.61202158333333,64.745642175,68.0,52.0
268,64.87064208333334,64.92452135416667,54.0,44.0
269,64.87064208333334,65.20146080625,71.0,69.0
270,64.87064208333334,65.21331424583333,68.0,76.0
271,64.87064208333334,65.21654700208333,64.0,88.0
272,64.87064208333334,65.23486595416666,59.0,80.0
273,65.38788308333334,65.51180540625,59.0,58.0
274,65.12926258333333,65.81137415208333,54.0,60.0
275,65.64650358333334,66.16051182708334,68.0,85.0
276,65.64650358333334,66.35232203125,64.0,93.0
277,65.64650358333334,66.44930471875,59.0,88.0
278,66.42236508333333,66.6917614375,54.0,88.0
279,64.87064208333334,66.71546831666667,42.0,78.0
280,66.68098558333334,66.81029583333334,59.0,75.0
281,66.16374458333334,66.85878717708333,49.0,69.0
282,66.93960608333333,67.38141610416668,66.0,76.0
283,66.93960608333333,67.39542471458334,61.0,73.0
284,66.93960608333333,67.50964876875,58.0,69.0
285,66.93960608333333,67.73701929166667,42.0,69.0
286,67.45684708333333,67.80598475833334,54.0,82.0
287,67.19822658333334,67.88680366458334,49.0,67.0
288,67.71546758333334,67.92451915416667,56.0,82.0
289,67.97408808333334,68.27150165833334,56.0,76.0
290,67.97408808333334,68.32645851458334,64.0,85.0
291,67.97408808333334,68.4115877625,59.0,82.0
292,67.97408808333334,68.52473423125001,42.0,69.0
293,68.49132908333334,68.6055531375,58.0,85.0
294,68.49132908333334,68.61632899166666,61.0,85.0
295,68.49132908333334,68.63249277291666,46.0,80.0
296,68.49132908333334,68.63464794375,66.0,78.0
297,69.00857008333334,69.33076812291667,63.0,88.0
298,69.00857008333334,69.3426215625,66.0,85.0
299,69.00857008333334,69.3620181,71.0,78.0
300,69.00857008333334,69.46438871458334,47.0,76.0
301,69.26719058333333,69.52150074166667,54.0,60.0
302,69.52581108333334,69.83507809791666,59.0,46.0
303,69.78443158333333,70.13895718541667,66.0,61.0
304,69.78443158333333,70.14757786875,71.0,64.0
305,69.78443158333333,70.24456055625001,75.0,64.0
306,70.04305208333334,70.38895700208333,63.0,67.0
307,69.78443158333333,70.42667249166666,61.0,59.0
308,70.30167258333334,70.67236196666667,66.0,69.0
309,70.56029308333333,70.76395672708334,73.0,70.0
310,70.81891358333334,71.0883099375,75.0,69.0
311,71.07753408333333,71.42774934375001,73.0,80.0
312,71.07753408333333,71.46007690625001,66.0,72.0
313,71.85339558333334,72.08615403333333,61.0,82.0
314,71.33615458333334,72.36955899791667,54.0,63.0
315,72.11201608333333,72.41266241458334,66.0,66.0
316,72.37063658333334,72.57430022708334,68.0,73.0
317,71.59477508333333,72.61093813125001,58.0,62.0
318,71.07753408333333,72.71654150208333,46.0,72.0
319,72.62925708333334,72.75748974791667,54.0,70.0
320,72.88787758333333,72.98809302708334,73.0,59.0
321,72.62925708333334,73.0861533,70.0,75.0
322,73.14649808333334,73.58615293333334,44.0,76.0
323,73.40511858333333,73.67235976666667,51.0,67.0
324,73.14649808333334,73.76610969791668,63.0,78.0
325,73.14649808333334,73.82214413958333,66.0,69.0
326,73.14649808333334,73.83615275,71.0,73.0
327,73.66373908333334,73.98054919583333,56.0,49.0
328,73.92235958333333,74.31783343125001,58.0,67.0
329,74.18098008333334,74.55597980833333,59.0,78.0
330,74.18098008333334,74.728393475,66.0,80.0
331,74.18098008333334,74.73270381666667,71.0,75.0
332,74.18098008333334,74.75748828125,63.0,75.0
333,74.43960058333333,74.8124451375,58.0,62.0
334,74.69822108333334,74.86847957916667,56.0,63.0
335,74.95684158333334,75.16266039791667,71.0,73.0
336,75.21546208333334,75.61632385833333,70.0,70.0
337,75.21546208333334,75.61847902916666,66.0,73.0
338,75.21546208333334,75.64326349375,61.0,70.0
339,75.99132358333334,76.30921128125,59.0,82.0
340,76.24994408333333,76.45037497083334,61.0,88.0
341,75.47408258333334,76.58399556250001,51.0,67.0
342,76.50856458333334,76.79843506041667,63.0,69.0
343,75.73270308333333,76.8555470875,54.0,69.0
344,75.21546208333334,76.95037460416667,42.0,70.0
345,76.76718508333333,77.13033136875,66.0,76.0
346,77.15511583333334,77.23270198333334,63.0,30.0
347,77.28442608333333,77.85339118333334,64.0,82.0
348,77.28442608333333,77.89218425833333,59.0,80.0
349,77.28442608333333,77.8964946,56.0,69.0
350,77.80166708333334,78.42989938125001,52.0,62.0
351,78.06028758333333,78.46977004166666,56.0,69.0
352,78.31890808333334,78.8598559625,64.0,73.0
353,78.31890808333334,78.88464042708334,59.0,75.0
354,77.54304658333334,78.89757145208334,47.0,64.0
355,78.83614908333334,79.1055454375,52.0,59.0
356,77.28442608333333,79.11308853541667,40.0,75.0
357,79.09476958333333,79.40080384166667,47.0,67.0
358,79.35339008333334,79.71114844166667,39.0,75.0
359,79.61201058333333,79.87386383958334,47.0,66.0
360,79.35339008333334,79.87925176666667,54.0,73.0
361,79.87063108333334,80.17558775625,51.0,62.0
362,79.35339008333334,80.22623427083333,63.0,80.0
363,80.38787208333333,80.857699325,59.0,66.0
364,80.12925158333334,80.95791476875,54.0,70.0
365,80.64649258333334,80.961147525,63.0,80.0
366,80.90511308333333,81.14756980208334,66.0,76.0
367,81.42235408333333,81.943905425,64.0,70.0
368,81.42235408333333,81.95575886458333,68.0,73.0
369,81.42235408333333,81.96222437708333,61.0,78.0
370,81.16373358333334,82.04196569791667,71.0,64.0
371,82.19821558333334,82.42666369166668,61.0,60.0
372,81.68097458333334,82.51071535416666,56.0,60.0
373,81.93959508333333,82.77472378125,59.0,69.0
374,82.45683608333334,82.80166341666667,61.0,60.0
375,82.45683608333334,82.88032715208334,64.0,73.0
376,82.45683608333334,82.91157712916667,71.0,75.0
377,82.71545658333334,82.97407708333334,56.0,66.0
378,81.42235408333333,83.01718050000001,49.0,73.0
379,82.97407708333334,83.02472359791668,71.0,40.0
380,82.97407708333334,83.24024068125,66.0,72.0
381,83.23269758333333,83.54196459791667,71.0,72.0
382,83.49131808333334,83.82105922083333,61.0,67.0
383,83.49131808333334,83.9158867375,66.0,75.0
384,83.49131808333334,84.03657630416667,70.0,80.0
385,84.00855908333334,84.07213662291667,66.0,56.0
386,83.74993858333333,84.09368833125001,49.0,61.0
387,84.00855908333334,84.13248140625001,63.0,73.0
388,84.00855908333334,84.15511070000001,71.0,82.0
389,83.49131808333334,84.34476573333333,42.0,76.0
390,84.00855908333334,84.37924846666667,54.0,70.0
391,84.26717958333333,84.48916217916667,49.0,69.0
392,84.52580008333334,84.62601552708334,66.0,80.0
393,84.52580008333334,84.66911894375001,73.0,82.0
394,84.78442058333334,84.88463602708333,46.0,52.0
395,84.52580008333334,85.09584276875,44.0,70.0
396,85.04304108333334,85.18097201666667,68.0,72.0
397,85.04304108333334,85.19498062708334,46.0,85.0
398,85.04304108333334,85.2219202625,76.0,80.0
399,85.30166158333334,85.39433392916666,76.0,40.0
400,85.56028208333333,85.94282490625001,75.0,78.0
401,85.56028208333333,85.95575593125001,71.0,76.0
402,85.56028208333333,85.98808349375,66.0,85.0
403,86.33614358333334,86.53657447083334,63.0,59.0
404,86.07752308333333,86.62816923125,59.0,75.0
405,85.81890258333334,86.9288155625,54.0,57.0
406,86.59476408333333,86.94282417291667,71.0,82.0
407,86.59476408333333,86.99454827291667,63.0,70.0
408,86.59476408333333,87.02148790833334,66.0,82.0
409,86.85338458333334,87.193901575,59.0,53.0
410,85.56028208333333,87.19713433125,47.0,72.0
411,87.37062558333334,87.45575483125,66.0,45.0
412,87.11200508333334,87.48269446666667,54.0,70.0
413,87.37062558333334,87.56135820208334,71.0,70.0
414,87.62924608333334,87.70790981875,71.0,60.0
415,87.62924608333334,88.10122849583334,61.0,85.0
416,87.62924608333334,88.124935375,70.0,80.0
417,88.14648708333334,88.47515063541667,58.0,73.0
418,88.40510758333333,88.80381418750001,66.0,93.0
419,87.88786658333333,88.97946061041667,54.0,63.0
420,88.40510758333333,89.00747783125,61.0,76.0
421,88.92234858333333,89.32536552916667,58.0,54.0
422,87.62924608333334,89.39325341041668,46.0,73.0
423,89.31027933333334,89.45359819375,54.0,62.0
424,89.18096908333334,89.45683095,66.0,88.0
425,89.43958958333333,89.6572618375,68.0,61.0
426,89.56889983333333,89.6960549125,70.0,72.0
427,89.69821008333334,90.17019249583333,63.0,80.0
428,89.69821008333334,90.17127008125,71.0,76.0
429,89.69821008333334,90.18204593541667,66.0,72.0
430,90.21545108333333,90.56566634375001,56.0,69.0
431,90.47407158333334,90.89325231041667,71.0,70.0
432,90.47407158333334,90.99777809583334,63.0,72.0
433,90.47407158333334,91.03333841458334,66.0,75.0
434,89.95683058333334,91.27687271875,51.0,70.0
435,91.24993308333333,91.41695882291667,63.0,91.0
436,90.99131258333334,91.43851053125,56.0,53.0
437,91.24993308333333,91.4417432875,71.0,72.0
438,91.24993308333333,91.45036397083334,66.0,91.0
439,89.69821008333334,91.54950182916667,44.0,73.0
440,91.50855358333334,91.71221722708334,51.0,58.0
441,91.76717408333333,92.21437203125001,39.0,73.0
442,92.02579458333334,92.28441508333334,47.0,48.0
443,91.76717408333333,92.52579421666667,61.0,75.0
444,92.28441508333334,92.57428556041667,51.0,72.0
445,91.76717408333333,92.70682856666667,66.0,75.0
446,92.80165608333334,93.31997466875,59.0,88.0
447,93.06027658333333,93.39863840416668,63.0,80.0
448,92.54303558333334,93.41587977083334,54.0,70.0
449,93.31889708333334,93.63139685416667,66.0,93.0
450,93.57751758333333,94.15833612291667,71.0,73.0
451,93.83613808333334,94.25208605416667,59.0,75.0
452,93.83613808333334,94.29518947083334,64.0,78.0
453,93.83613808333334,94.3447584,68.0,76.0
454,94.35337908333334,94.54303411666668,59.0,61.0
455,94.09475858333333,94.92342176875,56.0,64.0
456,94.61199958333334,95.17018882916668,59.0,70.0
457,94.61199958333334,95.18204226875001,64.0,76.0
458,93.83613808333334,95.65402468125001,52.0,78.0
459,95.38786108333333,95.69389534166667,59.0,85.0
460,95.64648158333334,95.82428317708333,68.0,88.0
461,95.12924058333334,95.83936937291666,56.0,56.0
462,95.90510208333333,96.41587757083333,66.0,95.0
463,96.68096358333334,96.90941169166668,66.0,78.0
464,96.42234308333333,96.96544613333333,63.0,62.0
465,96.93958408333334,97.15617875208333,71.0,91.0
466,97.19820458333334,97.23807524375,71.0,46.0
467,97.19820458333334,97.32212690625,63.0,66.0
468,95.90510208333333,97.3641527375,51.0,70.0
469,97.19820458333334,97.38354927500001,73.0,88.0
470,96.16372258333334,97.39648030000001,59.0,62.0
471,97.45682508333334,97.69066111875,75.0,75.0
472,97.71544558333333,97.8296696375,78.0,70.0
473,97.71544558333333,97.9072557875,75.0,39.0
474,97.97406608333334,98.42018644583334,68.0,67.0
475,97.97406608333334,98.48699674166667,49.0,70.0
476,98.23268658333333,98.53764325625,56.0,61.0
477,98.62061733333334,98.71113450833333,68.0,31.0
478,97.97406608333334,98.78117756041667,76.0,76.0
479,98.49130708333334,98.85445336875,61.0,58.0
480,98.74992758333333,99.09798767291667,68.0,80.0
481,98.74992758333333,99.16479796875001,75.0,91.0
482,99.00854808333334,99.21867723958334,64.0,51.0
483,98.74992758333333,99.22406516666668,63.0,57.0
484,99.26716858333334,99.49346152083334,71.0,95.0
485,100.04303008333333,100.22621960416667,73.0,88.0
486,100.04303008333333,100.27147819166667,66.0,80.0
487,100.56027108333333,100.89432256250001,54.0,63.0
488,100.81889158333334,101.19927923541667,64.0,73.0
489,100.81889158333334,101.24777057916667,59.0,73.0
490,101.07751208333333,101.47083076041667,54.0,51.0
491,100.30165058333334,101.48052902916668,49.0,63.0
492,101.33613258333334,101.62277030416666,58.0,88.0
493,100.04303008333333,101.64108925625,42.0,73.0
494,101.33613258333334,101.64216684166666,61.0,82.0
495,101.33613258333334,101.65402028125,66.0,72.0
496,102.11199408333334,102.64863162083334,66.0,73.0
497,102.11199408333334,102.65617471875001,63.0,75.0
498,102.11199408333334,102.67664884166668,71.0,76.0
499,102.88785558333333,103.06242442083334,63.0,61.0
500,102.62923508333334,103.25207945416668,59.0,61.0
501,103.14647608333334,103.26932082083334,63.0,72.0
502,103.14647608333334,103.45682068333333,66.0,93.0
503,103.14647608333334,103.47406205,71.0,73.0
504,102.37061458333334,103.68526879166667,54.0,55.0
505,103.66371708333334,103.77686355208334,66.0,66.0
506,103.40509658333333,103.87492382500001,59.0,61.0
507,102.11199408333334,103.96328582916667,47.0,78.0
508,103.66371708333334,103.96975134166667,63.0,62.0
509,103.92233758333333,104.23268218333334,54.0,62.0
510,104.18095808333334,104.49669061041666,70.0,73.0
511,104.18095808333334,104.60875949375,66.0,72.0
512,104.18095808333334,104.67341461875,61.0,75.0
513,104.95681958333334,105.13354359166667,61.0,59.0
514,104.69819908333334,105.24022454791667,58.0,48.0
515,105.21544008333333,105.52793985416668,66.0,73.0
516,105.21544008333333,105.53440536666668,70.0,78.0
517,105.21544008333333,105.54087087916668,61.0,73.0
518,104.43957858333334,105.56565534375001,54.0,56.0
519,105.47406058333334,105.89324131041667,58.0,52.0
520,105.73268108333333,105.95143092291667,68.0,80.0
521,104.18095808333334,106.03656017083334,46.0,73.0
522,105.99130158333334,106.10444805208334,54.0,70.0
523,105.99130158333334,106.20789625208334,70.0,76.0
524,106.24992208333333,106.66048212708334,44.0,73.0
525,106.24992208333333,106.69496486041668,63.0,70.0
526,106.50854258333334,106.74453378958334,51.0,57.0
527,106.24992208333333,106.76285274166668,71.0,69.0
528,106.24992208333333,106.79733547500001,66.0,76.0
529,106.76716308333334,107.08720595208334,56.0,47.0
530,107.02578358333334,107.35552472083334,58.0,56.0
531,107.28440408333334,107.58181765833334,59.0,62.0
532,107.54302458333333,107.79625715625001,58.0,61.0
533,107.28440408333334,107.94819670000001,63.0,75.0
534,107.28440408333334,107.97944667708333,66.0,76.0
535,107.28440408333334,107.9999208,71.0,76.0
536,107.80164508333334,108.0969034875,56.0,47.0
537,108.06026558333333,108.35229123125,51.0,64.0
538,108.31888608333334,108.7046616625,42.0,76.0
539,108.57750658333333,108.79733400833334,51.0,60.0
540,108.31888608333334,108.81673054583334,61.0,75.0
541,108.83612708333334,109.17987683125,54.0,64.0
542,108.31888608333334,109.27147159166667,66.0,73.0
543,108.31888608333334,109.40185942708334,70.0,78.0
544,109.61198858333334,109.83181600833333,63.0,85.0
545,109.35336808333334,109.89000562083334,59.0,64.0
546,109.09474758333334,109.91155732916667,58.0,54.0
547,109.87060908333333,110.13677268125001,66.0,95.0
548,110.12922958333334,110.38785008333333,71.0,67.0
549,110.38785008333333,110.85121181250001,40.0,64.0
550,110.64647058333334,110.91802210833333,47.0,56.0
551,110.38785008333333,111.15940124166667,64.0,76.0
552,110.38785008333333,111.16694433958334,68.0,75.0
553,110.38785008333333,111.17664260833334,59.0,76.0
554,110.90509108333333,111.23806497708334,52.0,58.0
555,111.16371158333334,111.5494871625,54.0,49.0
556,111.42233208333334,111.77685768541667,56.0,75.0
557,111.42233208333334,111.78440078333334,68.0,75.0
558,111.42233208333334,111.82642661458334,59.0,78.0
559,111.42233208333334,111.92556447291668,64.0,78.0
560,111.68095258333334,112.0150040625,54.0,67.0
561,111.93957308333334,112.10013331041667,52.0,66.0
562,112.19819358333334,112.38461586041667,66.0,66.0
563,112.45681408333334,112.71543458333333,59.0,78.0
564,112.45681408333334,112.72836560833333,64.0,72.0
565,112.45681408333334,112.78871039166667,68.0,70.0
566,112.45681408333334,112.89108100625,40.0,70.0
567,112.71543458333333,112.97728783958334,47.0,72.0
568,112.97405508333334,113.24237385208333,52.0,64.0
569,113.23267558333333,113.36737376041667,71.0,52.0
570,113.23267558333333,113.56026155,76.0,78.0
571,113.23267558333333,113.56672706250001,68.0,67.0
572,113.23267558333333,113.58612360000001,54.0,69.0
573,113.74991658333333,114.00745949791667,66.0,69.0
574,113.49129608333334,114.05918359791667,56.0,54.0
575,113.74991658333333,114.06672669583334,75.0,78.0
576,114.00853708333334,114.12922665,54.0,64.0
577,114.52577808333334,114.995605325,42.0,69.0
578,114.78439858333334,115.047329425,49.0,61.0
579,115.04301908333333,115.35551885416668,54.0,58.0
580,114.52577808333334,115.56349283958333,73.0,62.0
581,114.52577808333334,115.56564801041667,66.0,76.0
582,114.52577808333334,115.57211352291667,61.0,82.0
583,114.52577808333334,115.60120832916667,70.0,69.0
584,115.56026008333333,116.04517352083334,58.0,66.0
585,115.30163958333334,116.07642349791666,56.0,63.0
586,115.81888058333334,116.17125101458333,61.0,80.0
587,116.07750108333333,116.27469921458334,66.0,62.0
588,116.33612158333334,116.3727594875,66.0,39.0
589,116.33612158333334,116.59474208333334,68.0,76.0
590,116.59474208333334,116.883534975,61.0,69.0
591,116.59474208333334,117.02577625,70.0,80.0
592,117.11198308333334,117.23159506458333,63.0,73.0
593,117.11198308333334,117.24883643125,71.0,59.0
594,117.62922408333334,117.71543091666668,64.0,73.0
595,117.62922408333334,117.73806021041668,73.0,76.0
596,116.59474208333334,117.93956868333333,42.0,73.0
597,116.85336258333334,117.98051692916667,49.0,62.0
598,117.11198308333334,118.00961173541667,54.0,75.0
599,118.14646508333334,118.23482708750001,68.0,67.0
600,118.14646508333334,118.24237018541668,76.0,75.0
601,118.66370608333334,119.11521437291667,71.0,80.0
602,118.66370608333334,119.12814539791667,75.0,78.0
603,118.66370608333334,119.159395375,66.0,73.0
604,119.56887783333333,119.87060175,59.0,23.0
605,119.69818808333333,120.2585325,66.0,66.0
606,119.69818808333333,120.271463525,63.0,63.0
607,119.69818808333333,120.27469628125,61.0,62.0
608,119.69818808333333,120.27685145208333,71.0,46.0
609,118.66370608333334,120.33611865,47.0,70.0
610,120.21542908333333,120.35120484583334,59.0,39.0
611,120.73267008333333,121.22189386250001,58.0,59.0
612,120.73267008333333,121.35551445416667,66.0,72.0
613,120.73267008333333,121.36090238125,61.0,69.0
614,120.73267008333333,121.36521272291667,70.0,70.0
615,121.50853158333334,121.78331586458334,58.0,41.0
616,121.76715208333334,122.10659148958334,66.0,76.0
617,121.76715208333334,122.10659148958334,70.0,73.0
618,121.76715208333334,122.1141345875,61.0,80.0
619,122.02577258333334,122.20896210416667,58.0,55.0
620,122.28439308333334,122.40400506458334,66.0,59.0
621,122.28439308333334,122.42447918750001,68.0,46.0
622,120.73267008333333,122.74021171458334,46.0,64.0
623,122.54301358333333,122.78978064375,70.0,70.0
624,122.80163408333334,123.2908578625,71.0,59.0
625,122.80163408333334,123.30917681458334,63.0,72.0
626,122.80163408333334,123.33180610833334,66.0,58.0
627,123.57749558333335,123.7757713,63.0,55.0
628,123.31887508333334,123.96650391875,56.0,48.0
629,123.06025458333333,124.17124514791666,51.0,49.0
630,123.83611608333334,124.24559854166667,71.0,66.0
631,123.83611608333334,124.32965020416667,63.0,46.0
632,123.83611608333334,124.34796915625,66.0,66.0
633,124.09473658333334,124.42663289166667,56.0,46.0
634,122.80163408333334,124.43094323333334,44.0,63.0
635,124.35335708333334,124.86413257083333,51.0,64.0
636,124.61197758333334,124.98913247916667,73.0,61.0
637,124.87059808333333,125.340425325,42.0,60.0
638,125.12921858333334,125.418011475,51.0,51.0
639,125.38783908333333,125.73051124583334,54.0,44.0
640,124.87059808333333,125.88460596041668,66.0,62.0
641,124.87059808333333,125.95249384166667,61.0,63.0
642,125.51714933333334,125.96434728125,73.0,1.0
643,124.87059808333333,125.9675800375,70.0,69.0
644,126.16370058333334,126.39214869166668,61.0,57.0
645,125.64645958333334,126.39753661875001,56.0,69.0
646,125.90508008333333,126.40507971666668,58.0,61.0
647,126.42232108333334,126.71650190208334,66.0,62.0
648,126.68094158333334,126.97835515833334,71.0,62.0
649,126.93956208333334,127.37813934791667,40.0,69.0
650,127.19818258333333,127.46326859583334,47.0,56.0
651,127.45680308333334,127.8037855875,52.0,45.0
652,126.93956208333334,128.06132850208334,59.0,58.0
653,126.93956208333334,128.0624060875,64.0,63.0
654,126.93956208333334,128.11628535833333,68.0,67.0
655,127.58611333333334,128.28762143958335,71.0,1.0
656,128.23266458333333,128.41693168958335,59.0,59.0
657,127.71542358333333,128.54624193958333,54.0,58.0
658,128.49128508333334,128.76606936458333,64.0,64.0
659,127.97404408333334,128.94063820208333,56.0,60.0
660,128.74990558333334,128.96326749583335,68.0,46.0
661,129.00852608333335,129.64214630833334,66.0,67.0
662,129.00852608333335,129.64645665,59.0,72.0
663,129.78438758333334,130.07749081666668,63.0,73.0
664,129.78438758333334,130.08395632916668,59.0,63.0
665,129.00852608333335,130.19387004166668,51.0,60.0
666,130.30162858333333,130.38783541666666,66.0,70.0
667,130.30162858333333,130.40399919791668,59.0,75.0
668,130.68955933333334,130.78546443541669,65.0,91.0
669,130.68955933333334,130.80055063125002,67.0,59.0
670,130.68955933333334,130.86089541458333,60.0,82.0
671,130.68955933333334,130.90184366041666,50.0,76.0
672,131.07749008333334,131.62921381666666,64.0,70.0
673,131.07749008333334,131.6378345,68.0,70.0
674,131.07749008333334,131.65399828125,59.0,72.0
675,131.85335158333334,132.21434269791666,59.0,62.0
676,131.59473108333333,132.37813568125,56.0,61.0
677,131.07749008333334,132.45787700208334,49.0,73.0
678,132.37059258333335,132.45895458750002,59.0,58.0
679,132.37059258333335,132.46110975833335,64.0,76.0
680,132.88783358333333,133.09041964166667,56.0,55.0
681,133.14645408333334,133.43847973125,56.0,42.0
682,133.14645408333334,133.47511763541667,64.0,67.0
683,133.14645408333334,133.49882451458333,59.0,72.0
684,133.14645408333334,133.98589312291668,42.0,73.0
685,133.92231558333333,134.00636724583333,64.0,73.0
686,133.40507458333335,134.0106775875,49.0,60.0
687,133.92231558333333,134.0106775875,59.0,80.0
688,133.92231558333333,134.02037585625,56.0,80.0
689,133.66369508333335,134.0236086125,54.0,58.0
690,134.43955658333334,134.75205635416668,46.0,70.0
691,134.43955658333334,134.79300460000002,61.0,88.0
692,134.43955658333334,134.79300460000002,66.0,69.0
693,134.43955658333334,134.80270286875,58.0,76.0
694,135.21541808333333,135.84149521041667,63.0,70.0
695,135.21541808333333,135.85873657708333,54.0,76.0
696,135.21541808333333,135.89645206666668,59.0,75.0
697,135.47403858333334,135.99343475416669,61.0,21.0
698,135.21541808333333,136.36304655208335,47.0,60.0
699,136.24990008333333,136.57425329375002,63.0,73.0
700,136.24990008333333,136.57748605,61.0,66.0
701,136.24990008333333,136.59580500208335,59.0,73.0
702,136.24990008333333,136.61304636875,54.0,70.0
703,136.50852058333334,136.89860650416668,47.0,54.0
704,136.76714108333334,136.96218404375,61.0,63.0
705,136.76714108333334,137.00528746041667,54.0,69.0
706,135.21541808333333,137.2951579375,35.0,75.0
707,137.02576158333335,137.31886481666666,63.0,51.0
708,137.28438208333333,137.90614886875,54.0,75.0
709,137.28438208333333,138.12382112291667,58.0,67.0
710,137.28438208333333,138.13567456250001,61.0,66.0
711,137.28438208333333,138.36627784166666,46.0,70.0
712,138.31886408333335,138.73588963958335,54.0,70.0
713,138.31886408333335,138.77144995833333,58.0,69.0
714,138.31886408333335,138.81132061875002,61.0,73.0
715,138.83610508333334,139.03976872708333,54.0,61.0
716,138.57748458333333,139.0796393875,46.0,63.0
717,139.09472558333334,139.36519952291667,45.0,70.0
718,139.35334608333335,139.61088899791667,54.0,73.0
719,139.35334608333335,139.65938034166666,59.0,78.0
720,139.35334608333335,139.78761300625,63.0,73.0
721,139.09472558333334,139.85119054583333,66.0,69.0
722,140.12920758333334,140.2240351,59.0,82.0
723,139.35334608333335,140.82748293333333,44.0,78.0
724,140.64644858333335,140.83394844583333,63.0,78.0
725,139.87058708333333,140.85981049583333,56.0,55.0
726,139.61196658333333,140.86627600833333,51.0,64.0
727,140.90506908333333,141.03114657708335,63.0,50.0
728,140.90506908333333,141.07748275,71.0,73.0
729,141.16368958333334,141.35981012916668,70.0,66.0
730,141.42231008333334,141.73588743958334,61.0,70.0
731,141.42231008333334,141.75420639166668,66.0,73.0
732,141.93955108333333,142.08933545625,61.0,66.0
733,142.19817158333333,142.30161978333334,66.0,91.0
734,141.68093058333335,142.44493864375,58.0,59.0
735,142.45679208333334,142.77899012291667,58.0,35.0
736,141.42231008333334,142.97726583958334,51.0,73.0
737,143.23265358333333,143.44817066666667,71.0,69.0
738,143.36196383333333,143.47403271666667,73.0,70.0
739,143.49127408333334,143.98804096041667,68.0,69.0
740,143.49127408333334,144.11304086875,75.0,88.0
741,144.26713558333333,144.426618225,73.0,66.0
742,144.26713558333333,144.42769581041668,68.0,78.0
743,143.74989458333334,144.6927818229167,59.0,61.0
744,144.00851508333335,144.95894542083334,64.0,58.0
745,144.78437658333334,144.96756610416668,71.0,88.0
746,144.78437658333334,145.08825567083335,66.0,73.0
747,143.49127408333334,145.14105735625,52.0,69.0
748,145.04299708333335,145.24127280000002,59.0,52.0
749,145.56023808333333,145.94278090625,66.0,73.0
750,146.33609958333335,146.5279097875,66.0,78.0
751,146.59472008333333,146.78545270208335,71.0,78.0
752,146.07747908333334,146.84579748541668,63.0,58.0
753,145.56023808333333,147.06023698333334,51.0,69.0
754,145.81885858333334,147.06993525208333,59.0,66.0
755,146.85334058333333,147.08178869166667,73.0,82.0
756,147.11196108333334,147.41152982916668,75.0,70.0
757,147.37058158333335,147.50743493125,78.0,70.0
758,147.49989183333335,147.61627105833333,75.0,39.0
759,147.62920208333333,148.03221902916667,49.0,70.0
760,147.88782258333333,148.13889998541669,56.0,51.0
761,148.14644308333334,148.50958936875,61.0,51.0
762,147.62920208333333,148.76497711250002,68.0,59.0
763,147.62920208333333,148.76605469791667,76.0,70.0
764,148.40506358333334,149.004201075,63.0,58.0
765,148.66368408333335,149.02036485625,64.0,69.0
766,148.92230458333333,149.28329569791669,68.0,70.0
767,149.18092508333334,149.48480417083334,71.0,69.0
768,149.43954558333334,149.57101100416668,76.0,64.0
769,149.56885583333334,149.71864020625,68.0,41.0
770,149.69816608333335,149.77575223333335,71.0,31.0
771,149.69816608333335,150.07208822291668,42.0,69.0
772,149.69816608333335,150.1033382,78.0,67.0
773,149.95678658333333,150.18631227708335,49.0,50.0
774,150.21540708333333,150.50958790208333,54.0,41.0
775,150.47402758333334,150.62488954166668,68.0,63.0
776,150.47402758333334,150.659372275,76.0,73.0
777,150.47402758333334,150.89428589583335,56.0,56.0
778,150.73264808333334,151.0925616125,58.0,64.0
779,150.99126858333335,151.10441505208334,66.0,67.0
780,150.99126858333335,151.10441505208334,75.0,78.0
781,151.24988908333333,151.34579418541668,58.0,58.0
782,151.76713008333334,152.37488825833333,64.0,73.0
783,151.76713008333334,152.37596584375,61.0,70.0
784,151.76713008333334,152.38889686875,68.0,69.0
785,151.76713008333334,152.40613823541668,71.0,67.0
786,152.54299158333333,152.73695695833334,61.0,57.0
787,152.28437108333333,152.91799130833334,56.0,59.0
788,152.80161208333334,153.32424101041667,64.0,78.0
789,152.80161208333334,153.32747376666669,61.0,66.0
790,152.80161208333334,153.32747376666669,71.0,72.0
791,152.80161208333334,153.33286169375,68.0,73.0
792,151.76713008333334,153.64751663541668,49.0,73.0
793,153.57747358333333,153.9373871125,61.0,66.0
794,153.31885308333335,154.15182661041666,56.0,54.0
795,154.09471458333334,154.51389531041667,61.0,76.0
796,154.09471458333334,154.5365246041667,68.0,75.0
797,154.09471458333334,154.64536073125,71.0,60.0
798,154.09471458333334,154.65936934166666,64.0,85.0
799,154.87057608333333,155.16475690208333,56.0,73.0
800,155.12919658333334,155.43199808541667,61.0,91.0
801,155.12919658333334,155.43846359791667,64.0,99.0
802,155.12919658333334,155.44277393958333,71.0,73.0
803,155.12919658333334,155.44708428125,68.0,88.0
804,155.38781708333335,155.50419630833335,56.0,69.0
805,154.61195558333333,155.51712733333335,49.0,67.0
806,155.77574783333333,155.89428222916666,70.0,70.0
807,155.90505808333333,156.38027325208333,71.0,70.0
808,155.90505808333333,156.40290254583334,63.0,80.0
809,155.64643758333335,156.41260081458333,68.0,76.0
810,156.42229908333334,156.79191088125,56.0,50.0
811,156.68091958333335,157.0020400375,63.0,76.0
812,156.68091958333335,157.18522955833333,68.0,76.0
813,156.68091958333335,157.22294504791668,71.0,78.0
814,157.45678108333334,157.54729825833334,63.0,48.0
815,157.19816058333333,157.72078951041667,56.0,50.0
816,157.71540158333335,157.81561702708333,63.0,76.0
817,157.71540158333335,157.81992736875,68.0,80.0
818,157.71540158333335,157.82531529583335,71.0,69.0
819,157.97402208333335,158.2304874125,56.0,35.0
820,158.23264258333333,158.32315975833333,61.0,85.0
821,158.23264258333333,158.32962527083333,70.0,85.0
822,158.36195283333333,158.66259916458333,56.0,45.0
823,158.74988358333334,158.89751278541667,63.0,80.0
824,158.74988358333334,158.92014207916668,71.0,75.0
825,159.00850408333335,159.37380553958334,56.0,48.0
826,159.26712458333333,159.40397793125,66.0,70.0
827,159.26712458333333,159.42768481041668,63.0,72.0
828,159.26712458333333,159.48802959375,73.0,78.0
829,159.52574508333333,159.60871916041668,56.0,56.0
830,156.16367858333334,159.62596052708335,51.0,56.0
831,155.90505808333333,159.63889155208335,44.0,70.0
832,160.04298608333335,160.30591692500002,40.0,72.0
833,160.04298608333335,160.43091683333333,59.0,72.0
834,160.04298608333335,160.43738234583333,63.0,80.0
835,160.04298608333335,160.64320116041668,64.0,80.0
836,160.30160658333335,160.65828735625,52.0,60.0
837,160.04298608333335,160.65828735625,68.0,76.0
838,160.81884758333334,161.44384712500002,56.0,72.0
839,160.56022708333333,161.45893332083335,54.0,64.0
840,161.33608858333335,161.49664881041667,59.0,80.0
841,161.59470908333333,161.74449345625,64.0,67.0
842,161.85332958333333,162.22294138125,66.0,73.0
843,162.11195008333334,162.46539810000002,68.0,70.0
844,162.11195008333334,162.48587222291667,64.0,54.0
845,161.85332958333333,162.51604461458334,59.0,72.0
846,162.88781158333333,163.05807007916667,59.0,52.0
847,162.62919108333335,163.26281130833334,52.0,75.0
848,162.37057058333335,163.34363021458333,47.0,60.0
849,163.14643208333334,163.50526802708333,64.0,80.0
850,163.14643208333334,163.50850078333335,68.0,80.0
851,163.14643208333334,163.51173353958333,59.0,76.0
852,163.40505258333334,163.57746625000001,47.0,47.0
853,162.11195008333334,163.59039727500002,40.0,70.0
854,163.40505258333334,163.59686278750002,52.0,88.0
855,163.66367308333335,163.80591435833335,59.0,66.0
856,164.18091408333333,164.65181891041667,54.0,95.0
857,164.18091408333333,164.84255152916668,59.0,85.0
858,164.18091408333333,164.86841357916668,68.0,88.0
859,164.18091408333333,164.90828423958334,64.0,95.0
860,164.18091408333333,164.94384455833335,71.0,70.0
861,164.95677558333335,165.30914601458335,54.0,59.0
862,165.21539608333333,165.67768022708333,71.0,70.0
863,165.21539608333333,165.685223325,59.0,95.0
864,165.21539608333333,165.71324054583334,64.0,99.0
865,165.21539608333333,165.74449052291666,68.0,91.0
866,164.18091408333333,165.78543876875,42.0,73.0
867,165.73263708333334,165.8274646,54.0,76.0
868,166.24987808333333,166.49448997291668,66.0,85.0
869,166.24987808333333,166.53974856041668,78.0,78.0
870,166.24987808333333,166.63134332083334,54.0,91.0
871,166.24987808333333,166.85871384375,42.0,72.0
872,166.76711908333334,166.87811038125,68.0,75.0
873,166.76711908333334,166.90612760208333,80.0,80.0
874,166.76711908333334,167.18306705416668,54.0,88.0
875,167.28436008333335,167.33823935416666,73.0,61.0
876,167.28436008333335,167.34254969583333,71.0,48.0
877,167.28436008333335,167.35009279375,83.0,73.0
878,167.28436008333335,167.35224796458334,85.0,76.0
879,167.28436008333335,167.84793725625002,56.0,60.0
880,167.80160108333334,167.88457516041666,58.0,64.0
881,167.80160108333334,167.88888550208333,73.0,88.0
882,167.80160108333334,167.91043721041666,85.0,80.0
883,168.06022158333334,168.36086791458334,87.0,78.0
884,168.06022158333334,168.4115144291667,75.0,82.0
885,168.31884208333335,168.64104012291668,63.0,88.0
886,168.31884208333335,168.6528935625,66.0,85.0
887,168.31884208333335,168.6722901,71.0,78.0
888,168.31884208333335,168.77466071458335,47.0,76.0
889,168.57746258333333,168.83177274166667,54.0,60.0
890,168.83608308333334,169.14535009791666,59.0,46.0
891,169.09470358333334,169.44922918541667,66.0,61.0
892,169.09470358333334,169.45784986875,71.0,64.0
893,169.09470358333334,169.55483255625,75.0,64.0
894,169.35332408333335,169.69922900208334,63.0,67.0
895,169.09470358333334,169.73694449166666,61.0,59.0
896,169.61194458333333,169.98263396666667,66.0,69.0
897,169.87056508333333,170.07422872708335,73.0,70.0
898,170.12918558333334,170.3985819375,75.0,69.0
899,170.38780608333334,170.73802134375,73.0,80.0
900,170.38780608333334,170.77034890625,66.0,72.0
901,171.16366758333334,171.39642603333334,61.0,82.0
902,170.64642658333335,171.67983099791667,54.0,63.0
903,171.42228808333334,171.72293441458334,66.0,66.0
904,171.68090858333335,171.88457222708334,68.0,73.0
905,170.90504708333333,171.92121013125,58.0,62.0
906,170.38780608333334,172.02681350208334,46.0,72.0
907,171.93952908333333,172.06776174791668,54.0,70.0
908,172.19814958333333,172.29836502708335,73.0,59.0
909,171.93952908333333,172.3964253,70.0,75.0
910,172.45677008333334,172.89642493333335,44.0,76.0
911,172.71539058333335,172.98263176666669,51.0,67.0
912,172.45677008333334,173.07638169791667,63.0,78.0
913,172.45677008333334,173.13241613958334,66.0,69.0
914,172.45677008333334,173.14642475,71.0,73.0
915,172.97401108333335,173.29082119583333,56.0,49.0
916,173.23263158333333,173.62810543125002,58.0,67.0
917,173.49125208333334,173.86625180833335,59.0,78.0
918,173.49125208333334,174.03866547500002,66.0,80.0
919,173.49125208333334,174.04297581666668,71.0,75.0
920,173.49125208333334,174.06776028125,63.0,75.0
921,173.74987258333334,174.12271713750002,58.0,62.0
922,174.00849308333335,174.1787515791667,56.0,63.0
923,174.26711358333333,174.47293239791668,71.0,73.0
924,174.52573408333333,174.92659585833334,70.0,70.0
925,174.52573408333333,174.92875102916668,66.0,73.0
926,174.52573408333333,174.95353549375,61.0,70.0
927,175.30159558333335,175.61948328125,59.0,82.0
928,175.56021608333333,175.76064697083333,61.0,88.0
929,174.78435458333334,175.8942675625,51.0,67.0
930,175.81883658333334,176.10870706041666,63.0,69.0
931,175.04297508333335,176.1658190875,54.0,69.0
932,174.52573408333333,176.26064660416668,42.0,70.0
933,176.07745708333334,176.44060336875,66.0,76.0
934,176.46538783333335,176.54297398333335,63.0,30.0
935,176.59469808333333,177.16366318333334,64.0,82.0
936,176.59469808333333,177.20245625833334,59.0,80.0
937,176.59469808333333,177.2067666,56.0,69.0
938,177.11193908333334,177.74017138125,52.0,62.0
939,177.37055958333335,177.78004204166666,56.0,69.0
940,177.62918008333335,178.1701279625,64.0,73.0
941,177.62918008333335,178.19491242708335,59.0,75.0
942,176.85331858333333,178.20784345208335,47.0,64.0
943,178.14642108333334,178.4158174375,52.0,59.0
944,176.59469808333333,178.42336053541666,40.0,75.0
945,178.40504158333334,178.71107584166668,47.0,67.0
946,178.66366208333335,179.02142044166666,39.0,75.0
947,178.92228258333333,179.18413583958335,47.0,66.0
948,178.66366208333335,179.18952376666667,54.0,73.0
949,179.18090308333333,179.48585975625,51.0,62.0
950,178.66366208333335,179.53650627083334,63.0,80.0
951,179.69814408333335,180.167971325,59.0,66.0
952,179.43952358333334,180.26818676875,54.0,70.0
953,179.95676458333335,180.271419525,63.0,80.0
954,180.21538508333333,180.45784180208335,66.0,76.0
955,180.73262608333334,181.254177425,64.0,70.0
956,180.73262608333334,181.26603086458334,68.0,73.0
957,180.73262608333334,181.27249637708334,61.0,78.0
958,180.47400558333334,181.35223769791668,71.0,64.0
959,181.50848758333333,181.73693569166667,61.0,60.0
960,180.99124658333335,181.82098735416668,56.0,60.0
961,181.24986708333333,182.08499578125,59.0,69.0
962,181.76710808333334,182.11193541666668,61.0,60.0
963,181.76710808333334,182.19059915208334,64.0,73.0
964,181.76710808333334,182.22184912916669,71.0,75.0
965,182.02572858333335,182.28434908333335,56.0,66.0
966,180.73262608333334,182.32745250000002,49.0,73.0
967,182.28434908333335,182.33499559791667,71.0,40.0
968,182.28434908333335,182.55051268125,66.0,72.0
969,182.54296958333333,182.8522365979167,71.0,72.0
970,182.80159008333334,183.13133122083335,61.0,67.0
971,182.80159008333334,183.22615873750001,66.0,75.0
972,182.80159008333334,183.34684830416668,70.0,80.0
973,183.31883108333335,183.38240862291667,66.0,56.0
974,183.06021058333334,183.40396033125,49.0,61.0
975,183.31883108333335,183.44275340625,63.0,73.0
976,183.31883108333335,183.46538270000002,71.0,82.0
977,182.80159008333334,183.65503773333333,42.0,76.0
978,183.31883108333335,183.68952046666666,54.0,70.0
979,183.57745158333333,183.79943417916667,49.0,69.0
980,183.83607208333333,183.93628752708335,66.0,80.0
981,183.83607208333333,183.97939094375002,73.0,82.0
982,184.09469258333334,184.19490802708333,46.0,52.0
983,183.83607208333333,184.40611476875,44.0,70.0
984,184.35331308333335,184.49124401666668,68.0,72.0
985,184.35331308333335,184.50525262708334,46.0,85.0
986,184.35331308333335,184.53219226250002,76.0,80.0
987,184.61193358333335,184.70460592916666,76.0,40.0
988,184.87055408333333,185.25309690625,75.0,78.0
989,184.87055408333333,185.26602793125,71.0,76.0
990,184.87055408333333,185.29835549375,66.0,85.0
991,185.64641558333335,185.84684647083333,63.0,59.0
992,185.38779508333334,185.93844123125,59.0,75.0
993,185.12917458333334,186.2390875625,54.0,57.0
994,185.90503608333333,186.25309617291668,71.0,82.0
995,185.90503608333333,186.3048202729167,63.0,70.0
996,185.90503608333333,186.33175990833334,66.0,82.0
997,186.16365658333333,186.504173575,59.0,53.0
998,184.87055408333333,186.50740633125,47.0,72.0
999,186.68089758333335,186.76602683125,66.0,45.0
1000,186.42227708333334,186.79296646666668,54.0,70.0
1001,186.68089758333335,186.87163020208334,71.0,70.0
1002,186.93951808333335,187.01818181875,71.0,60.0
1003,186.93951808333335,187.41150049583334,61.0,85.0
1004,186.93951808333335,187.435207375,70.0,80.0
1005,187.45675908333334,187.78542263541667,58.0,73.0
1006,187.71537958333334,188.11408618750002,66.0,93.0
1007,187.19813858333333,188.28973261041668,54.0,63.0
1008,187.71537958333334,188.31774983125,61.0,76.0
1009,188.23262058333333,188.63563752916667,58.0,54.0
1010,186.93951808333335,188.7035254104167,46.0,73.0
1011,188.62055133333334,188.76387019375,54.0,62.0
1012,188.49124108333334,188.76710295,66.0,88.0
1013,188.74986158333334,188.9675338375,68.0,61.0
1014,188.87917183333334,189.00632691250001,70.0,72.0
1015,189.00848208333335,189.48046449583333,63.0,80.0
1016,189.00848208333335,189.48154208125,71.0,76.0
1017,189.00848208333335,189.49231793541668,66.0,72.0
1018,189.52572308333333,189.87593834375,56.0,69.0
1019,189.78434358333334,190.20352431041667,71.0,70.0
1020,189.78434358333334,190.30805009583335,63.0,72.0
1021,189.78434358333334,190.34361041458334,66.0,75.0
1022,189.26710258333335,190.58714471875,51.0,70.0
1023,190.56020508333333,190.72723082291668,63.0,91.0
1024,190.30158458333335,190.74878253125001,56.0,53.0
1025,190.56020508333333,190.7520152875,71.0,72.0
1026,190.56020508333333,190.76063597083333,66.0,91.0
1027,189.00848208333335,190.85977382916667,44.0,73.0
1028,190.81882558333334,191.02248922708335,51.0,58.0
1029,191.07744608333334,191.52464403125,39.0,73.0
1030,191.33606658333335,191.59468708333335,47.0,48.0
1031,191.07744608333334,191.83606621666667,61.0,75.0
1032,191.59468708333335,191.88455756041668,51.0,72.0
1033,191.07744608333334,192.01710056666667,66.0,75.0
1034,192.11192808333334,192.63024666875,59.0,88.0
1035,192.37054858333335,192.7089104041667,63.0,80.0
1036,191.85330758333333,192.72615177083335,54.0,70.0
1037,192.62916908333335,192.94166885416666,66.0,93.0
1038,192.88778958333333,193.46860812291666,71.0,73.0
1039,193.14641008333334,193.56235805416668,59.0,75.0
1040,193.14641008333334,193.60546147083335,64.0,78.0
1041,193.14641008333334,193.65503040000002,68.0,76.0
1042,193.66365108333335,193.8533061166667,59.0,61.0
1043,193.40503058333334,194.23369376875002,56.0,64.0
1044,193.92227158333333,194.48046082916667,59.0,70.0
1045,193.92227158333333,194.49231426875002,64.0,76.0
1046,193.14641008333334,194.96429668125,52.0,78.0
1047,194.69813308333335,195.0041673416667,59.0,85.0
1048,194.95675358333335,195.13455517708334,68.0,88.0
1049,194.43951258333334,195.14964137291668,56.0,56.0
1050,195.21537408333333,195.72614957083334,66.0,95.0
1051,195.99123558333335,196.2196836916667,66.0,78.0
1052,195.73261508333334,196.27571813333333,63.0,62.0
1053,196.24985608333333,196.46645075208335,71.0,91.0
1054,196.50847658333333,196.54834724375002,71.0,46.0
1055,196.50847658333333,196.63239890625002,63.0,66.0
1056,195.21537408333333,196.6744247375,51.0,70.0
1057,196.50847658333333,196.693821275,73.0,88.0
1058,195.47399458333334,196.7067523,59.0,62.0
1059,196.76709708333334,197.00093311875,75.0,75.0
1060,197.02571758333335,197.13994163750002,78.0,70.0
1061,197.02571758333335,197.21752778750002,75.0,39.0
1062,197.28433808333335,197.73045844583334,68.0,67.0
1063,197.28433808333335,197.79726874166667,49.0,70.0
1064,197.54295858333333,197.84791525625002,56.0,61.0
1065,197.93088933333334,198.02140650833334,68.0,31.0
1066,197.28433808333335,198.09144956041666,76.0,76.0
1067,197.80157908333334,198.16472536875,61.0,58.0
1068,198.06019958333334,198.40825967291667,68.0,80.0
1069,198.06019958333334,198.47506996875,75.0,91.0
1070,198.31882008333335,198.52894923958334,64.0,51.0
1071,198.06019958333334,198.5343371666667,63.0,57.0
1072,198.57744058333333,198.80373352083333,71.0,95.0
1073,199.35330208333335,199.53649160416668,73.0,88.0
1074,199.35330208333335,199.58175019166669,66.0,80.0
1075,199.87054308333333,200.2045945625,54.0,63.0
1076,200.12916358333334,200.50955123541667,64.0,73.0
1077,200.12916358333334,200.55804257916668,59.0,73.0
1078,200.38778408333334,200.78110276041667,54.0,51.0
1079,199.61192258333335,200.7908010291667,49.0,63.0
1080,200.64640458333335,200.93304230416666,58.0,88.0
1081,199.35330208333335,200.95136125625,42.0,73.0
1082,200.64640458333335,200.95243884166666,61.0,82.0
1083,200.64640458333335,200.96429228125,66.0,72.0
1084,201.42226608333334,201.95890362083335,66.0,73.0
1085,201.42226608333334,201.96644671875,63.0,75.0
1086,201.42226608333334,201.9869208416667,71.0,76.0
1087,202.19812758333333,202.37269642083334,63.0,61.0
1088,201.93950708333335,202.56235145416667,59.0,61.0
1089,202.45674808333334,202.57959282083334,63.0,72.0
1090,202.45674808333334,202.76709268333335,66.0,93.0
1091,202.45674808333334,202.78433405,71.0,73.0
1092,201.68088658333335,202.99554079166668,54.0,55.0
1093,202.97398908333335,203.08713555208334,66.0,66.0
1094,202.71536858333334,203.185195825,59.0,61.0
1095,201.42226608333334,203.27355782916666,47.0,78.0
1096,202.97398908333335,203.28002334166666,63.0,62.0
1097,203.23260958333333,203.54295418333334,54.0,62.0
1098,203.49123008333333,203.80696261041666,70.0,73.0
1099,203.49123008333333,203.91903149375,66.0,72.0
1100,203.49123008333333,203.98368661875,61.0,75.0
1101,204.26709158333335,204.44381559166666,61.0,59.0
1102,204.00847108333335,204.55049654791668,58.0,48.0
1103,204.52571208333333,204.83821185416667,66.0,73.0
1104,204.52571208333333,204.84467736666667,70.0,78.0
1105,204.52571208333333,204.85114287916667,61.0,73.0
1106,203.74985058333334,204.87592734375002,54.0,56.0
1107,204.78433258333334,205.20351331041667,58.0,52.0
1108,205.04295308333334,205.26170292291667,68.0,80.0
1109,203.49123008333333,205.34683217083335,46.0,73.0
1110,205.30157358333335,205.41472005208334,54.0,70.0
1111,205.30157358333335,205.51816825208334,70.0,76.0
1112,205.56019408333333,205.97075412708335,44.0,73.0
1113,205.56019408333333,206.0052368604167,63.0,70.0
1114,205.81881458333334,206.05480578958336,51.0,57.0
1115,205.56019408333333,206.07312474166667,71.0,69.0
1116,205.56019408333333,206.107607475,66.0,76.0
1117,206.07743508333334,206.39747795208334,56.0,47.0
1118,206.33605558333335,206.66579672083333,58.0,56.0
1119,206.59467608333335,206.89208965833333,59.0,62.0
1120,206.85329658333333,207.10652915625002,58.0,61.0
1121,206.59467608333335,207.2584687,63.0,75.0
1122,206.59467608333335,207.28971867708333,66.0,76.0
1123,206.59467608333335,207.3101928,71.0,76.0
1124,207.11191708333334,207.4071754875,56.0,47.0
1125,207.37053758333334,207.66256323125,51.0,64.0
1126,207.62915808333335,208.0149336625,42.0,76.0
1127,207.88777858333333,208.10760600833333,51.0,60.0
1128,207.62915808333335,208.12700254583334,61.0,75.0
1129,208.14639908333334,208.49014883125,54.0,64.0
1130,207.62915808333335,208.58174359166668,66.0,73.0
1131,207.62915808333335,208.71213142708334,70.0,78.0
1132,208.92226058333335,209.14208800833333,63.0,85.0
1133,208.66364008333335,209.20027762083333,59.0,64.0
1134,208.40501958333334,209.22182932916667,58.0,54.0
1135,209.18088108333333,209.44704468125002,66.0,95.0
1136,209.43950158333334,209.69812208333335,71.0,67.0
1137,209.69812208333335,210.1614838125,40.0,64.0
1138,209.95674258333335,210.22829410833333,47.0,56.0
1139,209.69812208333335,210.46967324166667,64.0,76.0
1140,209.69812208333335,210.47721633958335,68.0,75.0
1141,209.69812208333335,210.48691460833334,59.0,76.0
1142,210.21536308333333,210.54833697708335,52.0,58.0
1143,210.47398358333334,210.8597591625,54.0,49.0
1144,210.73260408333334,211.08712968541667,56.0,75.0
1145,210.73260408333334,211.09467278333335,68.0,75.0
1146,210.73260408333334,211.13669861458334,59.0,78.0
1147,210.73260408333334,211.23583647291667,64.0,78.0
1148,210.99122458333335,211.3252760625,54.0,67.0
1149,211.24984508333335,211.41040531041668,52.0,66.0
1150,211.50846558333333,211.69488786041669,66.0,66.0
1151,211.76708608333334,212.02570658333335,59.0,78.0
1152,211.76708608333334,212.03863760833335,64.0,72.0
1153,211.76708608333334,212.09898239166668,68.0,70.0
1154,211.76708608333334,212.20135300625,40.0,70.0
1155,212.02570658333335,212.28755983958334,47.0,72.0
1156,212.28432708333335,212.55264585208334,52.0,64.0
1157,212.54294758333333,212.67764576041668,71.0,52.0
1158,212.54294758333333,212.87053355,76.0,78.0
1159,212.54294758333333,212.8769990625,68.0,67.0
1160,212.54294758333333,212.8963956,54.0,69.0
1161,213.06018858333334,213.31773149791667,66.0,69.0
1162,212.80156808333334,213.36945559791667,56.0,54.0
1163,213.06018858333334,213.37699869583335,75.0,78.0
1164,213.31880908333335,213.43949865000002,54.0,64.0
1165,213.83605008333333,214.31880835,63.0,72.0
1166,213.83605008333333,214.3769979625,59.0,97.0
1167,213.83605008333333,214.43195481875,56.0,95.0
1168,214.61191158333335,214.78432525,56.0,93.0
1169,214.87053208333333,215.2433766375,59.0,91.0
1170,215.38777308333334,215.42764374375,59.0,82.0
1171,214.35329108333335,215.46859198958333,52.0,95.0
1172,213.83605008333333,215.65609185208334,40.0,75.0
1173,215.38777308333334,215.70889353750002,56.0,91.0
1174,215.64639358333335,215.80264346875,52.0,67.0
1175,215.38777308333334,215.81234173750002,63.0,101.0
1176,214.09467058333334,215.81341932291667,47.0,75.0
1177,215.90501408333336,216.36406547083334,42.0,67.0
1178,215.90501408333336,216.40932405833334,61.0,95.0
1179,215.90501408333336,216.4211774979167,58.0,101.0
1180,216.16363458333333,216.42441025416667,49.0,64.0
1181,215.90501408333336,216.49122055,66.0,80.0
1182,216.42225508333334,216.73583243958333,54.0,88.0
1183,216.68087558333335,217.02354774583335,56.0,72.0
1184,216.93949608333335,217.06880633333336,58.0,85.0
1185,217.19811658333333,217.33496993125001,61.0,97.0
1186,217.32742683333333,217.486909475,66.0,76.0
1187,217.45673708333334,217.54402150208335,68.0,97.0
1188,217.58604733333334,217.758461,70.0,93.0
1189,217.71535758333334,217.93949535000002,71.0,75.0
1190,217.84466783333335,218.02785735416668,73.0,69.0
1191,217.97397808333335,218.06234008750002,75.0,78.0
1192,217.97397808333335,218.29617612291668,63.0,88.0
1193,217.97397808333335,218.3080295625,66.0,85.0
1194,217.97397808333335,218.3274261,71.0,78.0
1195,217.97397808333335,218.42979671458335,47.0,76.0
1196,218.23259858333333,218.48690874166667,54.0,60.0
1197,218.49121908333333,218.8004860979167,59.0,46.0
1198,218.74983958333334,219.10436518541667,66.0,61.0
1199,218.74983958333334,219.11298586875,71.0,64.0
1200,218.74983958333334,219.20996855625,75.0,64.0
1201,219.00846008333335,219.35436500208334,63.0,67.0
1202,218.74983958333334,219.39208049166666,61.0,59.0
1203,219.26708058333335,219.63776996666667,66.0,69.0
1204,219.52570108333333,219.72936472708335,73.0,70.0
1205,219.78432158333334,220.0537179375,75.0,69.0
1206,220.04294208333334,220.39315734375,73.0,80.0
1207,220.04294208333334,220.42548490625,66.0,72.0
1208,220.81880358333333,221.05156203333334,61.0,82.0
1209,220.30156258333335,221.33496699791667,54.0,63.0
1210,221.07742408333334,221.37807041458333,66.0,66.0
1211,221.33604458333335,221.53970822708334,68.0,73.0
1212,220.56018308333333,221.57634613125,58.0,62.0
1213,220.04294208333334,221.68194950208334,46.0,72.0
1214,221.59466508333335,221.72289774791668,54.0,70.0
1215,221.85328558333333,221.95350102708335,73.0,59.0
1216,221.59466508333335,222.0515613,70.0,75.0
1217,222.11190608333334,222.55156093333335,44.0,76.0
1218,222.37052658333334,222.63776776666668,51.0,67.0
1219,222.11190608333334,222.73151769791667,63.0,78.0
1220,222.11190608333334,222.78755213958334,66.0,69.0
1221,222.11190608333334,222.80156075000002,71.0,73.0
1222,222.62914708333335,222.94595719583333,56.0,49.0
1223,222.88776758333333,223.28324143125002,58.0,67.0
1224,223.14638808333333,223.52138780833334,59.0,78.0
1225,223.14638808333333,223.69380147500001,66.0,80.0
1226,223.14638808333333,223.69811181666668,71.0,75.0
1227,223.14638808333333,223.72289628125,63.0,75.0
1228,223.40500858333334,223.77785313750002,58.0,62.0
1229,223.66362908333335,223.83388757916669,56.0,63.0
1230,223.92224958333335,224.12806839791668,71.0,73.0
1231,224.18087008333333,224.58173185833334,70.0,70.0
1232,224.18087008333333,224.58388702916668,66.0,73.0
1233,224.18087008333333,224.60867149375,61.0,70.0
1234,224.95673158333335,225.27461928125,59.0,82.0
1235,225.21535208333333,225.41578297083333,61.0,88.0
1236,224.43949058333334,225.5494035625,51.0,67.0
1237,225.47397258333334,225.76384306041666,63.0,69.0
1238,224.69811108333334,225.8209550875,54.0,69.0
1239,224.18087008333333,225.91578260416668,42.0,70.0
1240,225.73259308333334,226.09573936875,66.0,76.0
1241,226.12052383333335,226.19810998333335,63.0,30.0
1242,226.24983408333335,226.81879918333334,64.0,82.0
1243,226.24983408333335,226.85759225833334,59.0,80.0
1244,226.24983408333335,226.8619026,56.0,69.0
1245,226.76707508333334,227.39530738125,52.0,62.0
1246,227.02569558333334,227.4351780416667,56.0,69.0
1247,227.28431608333335,227.8252639625,64.0,73.0
1248,227.28431608333335,227.85004842708335,59.0,75.0
1249,226.50845458333333,227.86297945208335,47.0,64.0
1250,227.80155708333334,228.0709534375,52.0,59.0
1251,226.24983408333335,228.07849653541666,40.0,75.0
1252,228.06017758333334,228.36621184166668,47.0,67.0
1253,228.31879808333335,228.67655644166666,39.0,75.0
1254,228.57741858333335,228.83927183958335,47.0,66.0
1255,228.31879808333335,228.84465976666667,54.0,73.0
1256,228.83603908333333,229.14099575625002,51.0,62.0
1257,228.31879808333335,229.19164227083334,63.0,80.0
1258,229.35328008333335,229.823107325,59.0,66.0
1259,229.09465958333334,229.92332276875,54.0,70.0
1260,229.61190058333335,229.926555525,63.0,80.0
1261,229.87052108333333,230.11297780208335,66.0,76.0
1262,230.38776208333334,230.90931342500002,64.0,70.0
1263,230.38776208333334,230.92116686458334,68.0,73.0
1264,230.38776208333334,230.92763237708334,61.0,78.0
1265,230.12914158333334,231.00737369791668,71.0,64.0
1266,231.16362358333333,231.39207169166667,61.0,60.0
1267,230.64638258333335,231.47612335416667,56.0,60.0
1268,230.90500308333336,231.74013178125,59.0,69.0
1269,231.42224408333334,231.76707141666668,61.0,60.0
1270,231.42224408333334,231.84573515208334,64.0,73.0
1271,231.42224408333334,231.87698512916668,71.0,75.0
1272,231.68086458333335,231.93948508333335,56.0,66.0
1273,230.38776208333334,231.98258850000002,49.0,73.0
1274,231.93948508333335,231.99013159791667,71.0,40.0
1275,231.93948508333335,232.20564868125,66.0,72.0
1276,232.19810558333333,232.50737259791669,71.0,72.0
1277,232.45672608333334,232.78646722083334,61.0,67.0
1278,232.45672608333334,232.8812947375,66.0,75.0
1279,232.45672608333334,233.00198430416668,70.0,80.0
1280,232.97396708333335,233.03754462291667,66.0,56.0
1281,232.71534658333334,233.05909633125,49.0,61.0
1282,232.97396708333335,233.09788940625,63.0,73.0
1283,232.97396708333335,233.12051870000002,71.0,82.0
1284,232.45672608333334,233.31017373333333,42.0,76.0
1285,232.97396708333335,233.34465646666666,54.0,70.0
1286,233.23258758333336,233.45457017916667,49.0,69.0
1287,233.49120808333333,233.59142352708335,66.0,80.0
1288,233.49120808333333,233.63452694375002,73.0,82.0
1289,233.74982858333334,233.85004402708336,46.0,52.0
1290,233.49120808333333,234.06125076875,44.0,70.0
1291,234.00844908333335,234.14638001666668,68.0,72.0
1292,234.00844908333335,234.16038862708334,46.0,85.0
1293,234.00844908333335,234.18732826250002,76.0,80.0
1294,234.26706958333335,234.3597419291667,76.0,40.0
1295,234.52569008333333,234.90823290625002,75.0,78.0
1296,234.52569008333333,234.92116393125002,71.0,76.0
1297,234.52569008333333,234.95349149375002,66.0,85.0
1298,235.30155158333335,235.50198247083335,63.0,59.0
1299,235.04293108333334,235.59357723125,59.0,75.0
1300,234.78431058333334,235.8942235625,54.0,57.0
1301,235.56017208333336,235.90823217291668,71.0,82.0
1302,235.56017208333336,235.95995627291668,63.0,70.0
1303,235.56017208333336,235.98689590833334,66.0,82.0
1304,235.81879258333333,236.159309575,59.0,53.0
1305,234.52569008333333,236.16254233125002,47.0,72.0
1306,236.33603358333335,236.42116283125,66.0,45.0
1307,236.07741308333334,236.44810246666668,54.0,70.0
1308,236.33603358333335,236.52676620208334,71.0,70.0
1309,236.59465408333335,236.67331781875,71.0,60.0
1310,236.59465408333335,237.06663649583334,61.0,85.0
1311,236.59465408333335,237.090343375,70.0,80.0
1312,237.11189508333334,237.44055863541666,58.0,73.0
1313,237.37051558333334,237.76922218750002,66.0,93.0
1314,236.85327458333333,237.94486861041668,54.0,63.0
1315,237.37051558333334,237.97288583125,61.0,76.0
1316,237.88775658333336,238.29077352916667,58.0,54.0
1317,236.59465408333335,238.3586614104167,46.0,73.0
1318,238.27568733333334,238.41900619375002,54.0,62.0
1319,238.14637708333333,238.42223895,66.0,88.0
1320,238.40499758333334,238.6226698375,68.0,61.0
1321,238.53430783333334,238.6614629125,70.0,72.0
1322,238.66361808333335,239.13560049583333,63.0,80.0
1323,238.66361808333335,239.13667808125,71.0,76.0
1324,238.66361808333335,239.14745393541668,66.0,72.0
1325,239.18085908333333,239.53107434375002,56.0,69.0
1326,239.43947958333334,239.85866031041667,71.0,70.0
1327,239.43947958333334,239.96318609583335,63.0,72.0
1328,239.43947958333334,239.99874641458334,66.0,75.0
1329,238.92223858333335,240.24228071875,51.0,70.0
1330,240.21534108333336,240.38236682291668,63.0,91.0
1331,239.95672058333335,240.40391853125,56.0,53.0
1332,240.21534108333336,240.4071512875,71.0,72.0
1333,240.21534108333336,240.41577197083333,66.0,91.0
1334,238.66361808333335,240.51490982916667,44.0,73.0
1335,240.47396158333333,240.67762522708335,51.0,58.0
1336,240.73258208333334,241.17978003125,39.0,73.0
1337,240.99120258333335,241.24982308333335,47.0,48.0
1338,240.73258208333334,241.49120221666666,61.0,75.0
1339,241.24982308333335,241.53969356041668,51.0,72.0
1340,240.73258208333334,241.67223656666667,66.0,75.0
1341,241.76706408333334,242.28538266875,59.0,88.0
1342,242.02568458333334,242.3640464041667,63.0,80.0
1343,241.50844358333333,242.38128777083335,54.0,70.0
1344,242.28430508333335,242.59680485416666,66.0,93.0
1345,242.54292558333333,243.12374412291666,71.0,73.0
1346,242.80154608333333,243.21749405416668,59.0,75.0
1347,242.80154608333333,243.26059747083335,64.0,78.0
1348,242.80154608333333,243.3101664,68.0,76.0
1349,243.31878708333335,243.50844211666669,59.0,61.0
1350,243.06016658333334,243.88882976875,56.0,64.0
1351,243.57740758333335,244.13559682916667,59.0,70.0
1352,243.57740758333335,244.14745026875002,64.0,76.0
1353,242.80154608333333,244.61943268125,52.0,78.0
1354,244.35326908333334,244.65930334166669,59.0,85.0
1355,244.61188958333335,244.78969117708334,68.0,88.0
1356,244.09464858333334,244.80477737291667,56.0,56.0
1357,244.87051008333333,245.38128557083334,66.0,95.0
1358,245.64637158333335,245.8748196916667,66.0,78.0
1359,245.38775108333334,245.93085413333336,63.0,62.0
1360,245.90499208333335,246.12158675208335,71.0,91.0
1361,246.16361258333333,246.20348324375001,71.0,46.0
1362,246.16361258333333,246.28753490625002,63.0,66.0
1363,244.87051008333333,246.3295607375,51.0,70.0
1364,246.16361258333333,246.348957275,73.0,88.0
1365,245.12913058333334,246.3618883,59.0,62.0
1366,246.42223308333334,246.65606911875,75.0,75.0
1367,246.68085358333335,246.79507763750001,78.0,70.0
1368,246.68085358333335,246.87266378750002,75.0,39.0
1369,246.93947408333335,247.38559444583333,68.0,67.0
1370,246.93947408333335,247.45240474166667,49.0,70.0
1371,247.19809458333333,247.50305125625002,56.0,61.0
1372,247.58602533333334,247.67654250833334,68.0,31.0
1373,246.93947408333335,247.7465855604167,76.0,76.0
1374,247.45671508333334,247.81986136875,61.0,58.0
1375,247.71533558333334,248.06339567291667,68.0,80.0
1376,247.71533558333334,248.13020596875,75.0,91.0
1377,247.97395608333335,248.18408523958334,64.0,51.0
1378,247.71533558333334,248.1894731666667,63.0,57.0
1379,248.23257658333335,248.45886952083333,71.0,95.0
1380,249.00843808333335,249.19162760416668,73.0,88.0
1381,249.00843808333335,249.23688619166668,66.0,80.0
1382,249.52567908333333,249.8597305625,54.0,63.0
1383,249.78429958333334,250.16468723541666,64.0,73.0
1384,249.78429958333334,250.21317857916668,59.0,73.0
1385,250.04292008333334,250.43623876041667,54.0,51.0
1386,249.26705858333335,250.44593702916669,49.0,63.0
1387,250.30154058333335,250.5881783041667,58.0,88.0
1388,249.00843808333335,250.60649725625,42.0,73.0
1389,250.30154058333335,250.6075748416667,61.0,82.0
1390,250.30154058333335,250.61942828125,66.0,72.0
1391,251.07740208333334,251.61403962083335,66.0,73.0
1392,251.07740208333334,251.62158271875,63.0,75.0
1393,251.07740208333334,251.6420568416667,71.0,76.0
1394,251.85326358333333,252.02783242083333,63.0,61.0
1395,251.59464308333335,252.21748745416667,59.0,61.0
1396,252.11188408333334,252.23472882083334,63.0,72.0
1397,252.11188408333334,252.42222868333334,66.0,93.0
1398,252.11188408333334,252.43947005,71.0,73.0
1399,251.33602258333335,252.65067679166668,54.0,55.0
1400,252.62912508333335,252.74227155208334,66.0,66.0
1401,252.37050458333334,252.84033182500002,59.0,61.0
1402,251.07740208333334,252.9286938291667,47.0,78.0
1403,252.62912508333335,252.9351593416667,63.0,62.0
1404,252.88774558333336,253.19809018333333,54.0,62.0
1405,253.14636608333333,253.4620986104167,70.0,73.0
1406,253.14636608333333,253.57416749375,66.0,72.0
1407,253.14636608333333,253.63882261875,61.0,75.0
1408,253.92222758333335,254.0989515916667,61.0,59.0
1409,253.66360708333335,254.20563254791668,58.0,48.0
1410,254.18084808333333,254.49334785416667,66.0,73.0
1411,254.18084808333333,254.49981336666667,70.0,78.0
1412,254.18084808333333,254.50627887916667,61.0,73.0
1413,253.40498658333334,254.53106334375002,54.0,56.0
1414,254.43946858333334,254.85864931041667,58.0,52.0
1415,254.69808908333334,254.91683892291667,68.0,80.0
1416,253.14636608333333,255.00196817083335,46.0,73.0
1417,254.95670958333335,255.06985605208334,54.0,70.0
1418,254.95670958333335,255.17330425208334,70.0,76.0
1419,255.21533008333336,255.62589012708335,44.0,73.0
1420,255.21533008333336,255.6603728604167,63.0,70.0
1421,255.47395058333333,255.70994178958335,51.0,57.0
1422,255.21533008333336,255.72826074166667,71.0,69.0
1423,255.21533008333336,255.762743475,66.0,76.0
1424,255.73257108333334,256.05261395208333,56.0,47.0
1425,255.99119158333335,256.32093272083335,58.0,56.0
1426,256.2498120833333,256.54722565833333,59.0,62.0
1427,256.50843258333333,256.76166515625,58.0,61.0
1428,256.2498120833333,256.9136047,63.0,75.0
1429,256.2498120833333,256.94485467708336,66.0,76.0
1430,256.2498120833333,256.9653288,71.0,76.0
1431,256.76705308333334,257.0623114875,56.0,47.0
1432,257.02567358333334,257.31769923125,51.0,64.0
1433,257.28429408333335,257.6700696625,42.0,76.0
1434,257.54291458333336,257.76274200833336,51.0,60.0
1435,257.28429408333335,257.78213854583333,61.0,75.0
1436,257.80153508333336,258.14528483125,54.0,64.0
1437,257.28429408333335,258.23687959166665,66.0,73.0
1438,257.28429408333335,258.36726742708333,70.0,78.0
1439,258.5773965833333,258.79722400833333,63.0,85.0
1440,258.3187760833333,258.85541362083336,59.0,64.0
1441,258.06015558333337,258.8769653291667,58.0,54.0
1442,258.83601708333333,259.10218068125,66.0,95.0
1443,259.09463758333334,259.35325808333334,71.0,67.0
1444,259.35325808333334,259.8166198125,40.0,64.0
1445,259.61187858333335,259.88343010833336,47.0,56.0
1446,259.35325808333334,260.1248092416667,64.0,76.0
1447,259.35325808333334,260.13235233958335,68.0,75.0
1448,259.35325808333334,260.14205060833336,59.0,76.0
1449,259.87049908333336,260.2034729770833,52.0,58.0
1450,260.12911958333336,260.5148951625,54.0,49.0
1451,260.38774008333337,260.74226568541667,56.0,75.0
1452,260.38774008333337,260.7498087833333,68.0,75.0
1453,260.38774008333337,260.79183461458337,59.0,78.0
1454,260.38774008333337,260.8909724729167,64.0,78.0
1455,260.6463605833333,260.9804120625,54.0,67.0
1456,260.9049810833333,261.0655413104167,52.0,66.0
1457,261.16360158333333,261.3500238604167,66.0,66.0
1458,261.42222208333334,261.68084258333334,59.0,78.0
1459,261.42222208333334,261.69377360833334,64.0,72.0
1460,261.42222208333334,261.7541183916667,68.0,70.0
1461,261.42222208333334,261.85648900625,40.0,70.0
1462,261.68084258333334,261.94269583958334,47.0,72.0
1463,261.93946308333335,262.2077818520834,52.0,64.0
1464,262.19808358333336,262.33278176041665,71.0,52.0
1465,262.19808358333336,262.52566955000003,76.0,78.0
1466,262.19808358333336,262.5321350625,68.0,67.0
1467,262.19808358333336,262.55153160000003,54.0,69.0
1468,262.71532458333337,262.9728674979167,66.0,69.0
1469,262.45670408333336,263.0245915979167,56.0,54.0
1470,262.71532458333337,263.03213469583335,75.0,78.0
1471,262.9739450833333,263.09463465,54.0,64.0
1472,263.49118608333333,264.0062719125,40.0,73.0
1473,263.74980658333334,264.0450649875,47.0,73.0
1474,264.00842708333334,264.32631478125,52.0,61.0
1475,263.49118608333333,264.48687500833336,68.0,85.0
1476,263.49118608333333,264.57092667083333,59.0,85.0
1477,263.49118608333333,264.5741594270833,64.0,85.0
1478,264.26704758333335,264.87588334375,54.0,57.0
1479,264.52566808333336,264.9114436625,56.0,91.0
1480,264.78428858333336,264.94377122500003,59.0,95.0
1481,265.04290908333337,265.25842616666665,64.0,95.0
1482,265.3015295833333,265.4879518604167,66.0,63.0
1483,265.5601500833333,266.08385659583337,42.0,72.0
1484,265.81877058333333,266.10217554791666,49.0,70.0
1485,266.07739108333334,266.41467531875,54.0,73.0
1486,265.5601500833333,266.60971827916666,70.0,72.0
1487,265.5601500833333,266.66683030625,66.0,82.0
1488,265.5601500833333,266.6679078916667,61.0,82.0
1489,266.33601158333335,266.99010593125,56.0,59.0
1490,266.59463208333335,267.00303695625,58.0,70.0
1491,266.85325258333336,267.03644210416667,61.0,76.0
1492,267.11187308333336,267.3015281166667,66.0,93.0
1493,267.37049358333337,267.45346766041666,66.0,51.0
1494,267.6291140833333,268.0860103,71.0,88.0
1495,267.6291140833333,268.1485102541667,66.0,101.0
1496,267.6291140833333,268.2142429645833,63.0,93.0
1497,268.40497558333334,268.56769098125,63.0,70.0
1498,268.14635508333333,268.7077770854167,59.0,91.0
1499,268.66359608333335,269.00734583125,71.0,75.0
1500,268.66359608333335,269.03967339375004,66.0,97.0
1501,268.66359608333335,269.0450613208333,63.0,88.0
1502,267.8877345833333,269.05475958958334,54.0,69.0
1503,269.18083708333336,269.2562680625,71.0,63.0
1504,268.92221658333335,269.33062145625,59.0,72.0
1505,269.18083708333336,269.41467311875,63.0,66.0
1506,267.6291140833333,269.51165580625,47.0,72.0
1507,269.43945758333336,269.6301902020833,73.0,75.0
1508,269.43945758333336,269.6970004979167,54.0,64.0
1509,269.69807808333337,270.15712947083335,73.0,48.0
1510,269.69807808333337,270.1754484229167,70.0,73.0
1511,269.69807808333337,270.2153190833333,66.0,80.0
1512,269.69807808333337,270.3220000395834,61.0,91.0
1513,270.47393958333333,270.61618085833334,61.0,93.0
1514,270.60324983333334,270.76488764583337,66.0,70.0
1515,270.73256008333334,270.8284651854167,68.0,85.0
1516,270.86187033333334,271.0385943416667,70.0,95.0
1517,270.2153190833333,271.1937666416667,58.0,75.0
1518,270.99118058333335,271.1959218125,71.0,62.0
1519,269.9566985833333,271.3209217208333,54.0,67.0
1520,271.12049083333335,271.33061998958334,73.0,85.0
1521,269.69807808333337,271.35432686875004,46.0,70.0
1522,271.24980108333335,271.41790440833336,75.0,93.0
1523,271.37911133333336,271.61725771041665,78.0,67.0
1524,271.50842158333336,271.69699903125,76.0,78.0
1525,271.76704208333337,272.19807625,75.0,91.0
1526,271.76704208333337,272.2196279583333,44.0,75.0
1527,272.02566258333337,272.28751583958336,51.0,64.0
1528,272.2842830833333,272.4760932875,75.0,70.0
1529,272.2842830833333,272.59139492708334,56.0,51.0
1530,272.2842830833333,272.61402422083336,66.0,54.0
1531,272.5429035833333,272.7401017145833,73.0,85.0
1532,272.5429035833333,272.86402403750003,58.0,64.0
1533,272.80152408333333,273.13773073333334,66.0,76.0
1534,272.80152408333333,273.16251519791666,75.0,101.0
1535,272.80152408333333,273.17113588125,59.0,70.0
1536,273.31876508333335,273.4653167,66.0,78.0
1537,273.31876508333335,273.53320458125,73.0,95.0
1538,273.06014458333334,273.64958380625,58.0,69.0
1539,273.57738558333335,273.7185492729167,75.0,72.0
1540,273.57738558333335,273.74872166458334,56.0,66.0
1541,273.83600608333336,274.3424712291667,73.0,88.0
1542,273.83600608333336,274.36294535208333,70.0,88.0
1543,273.83600608333336,274.39850567083334,66.0,82.0
1544,274.6118675833333,274.83277259375,66.0,82.0
1545,274.8704880833333,275.0418241645833,68.0,97.0
1546,274.09462658333337,275.05152243333333,58.0,58.0
1547,274.3532470833334,275.236867125,63.0,80.0
1548,275.12910858333333,275.392039425,70.0,82.0
1549,273.83600608333336,275.4480738666667,51.0,75.0
1550,275.38772908333334,275.47932384375,58.0,62.0
1551,275.38772908333334,275.5105738208334,73.0,73.0
1552,275.90497008333335,276.42975418125,40.0,73.0
1553,276.16359058333336,276.4588489875,47.0,75.0
1554,276.42221108333337,276.7325556833333,52.0,59.0
1555,275.90497008333335,276.95884862083335,64.0,82.0
1556,275.90497008333335,277.01380547708334,68.0,73.0
1557,275.90497008333335,277.02027098958337,71.0,64.0
1558,275.90497008333335,277.03104684375,59.0,80.0
1559,276.6808315833334,277.31337422291665,54.0,67.0
1560,277.1980725833333,277.3510897125,59.0,82.0
1561,276.9394520833333,277.41358966666667,56.0,72.0
1562,277.45669308333333,277.6528136291667,64.0,80.0
1563,277.71531358333334,277.9178996416667,71.0,69.0
1564,277.97393408333335,278.37587344375004,71.0,62.0
1565,277.97393408333335,278.50841645,63.0,88.0
1566,277.97393408333335,278.5385888416667,66.0,88.0
1567,278.74979558333337,278.9847092041667,63.0,85.0
1568,279.0084160833334,279.12802806458336,63.0,55.0
1569,278.49117508333336,279.33923480625003,59.0,69.0
1570,279.0084160833334,279.3941916625,66.0,76.0
1571,277.97393408333335,279.59677772083336,47.0,75.0
1572,278.23255458333335,279.6215621854167,54.0,61.0
1573,279.52565708333333,279.63018286875,59.0,69.0
1574,279.52565708333333,279.6441914791667,63.0,91.0
1575,279.52565708333333,279.6571225041667,71.0,76.0
1576,280.04289808333334,280.38018231875003,71.0,61.0
1577,280.04289808333334,280.40496678333335,68.0,72.0
1578,280.04289808333334,280.41897539375003,61.0,82.0
1579,280.04289808333334,280.42220815,64.0,82.0
1580,280.56013908333335,280.9049664166667,61.0,78.0
1581,280.81875958333336,281.19914723541666,64.0,72.0
1582,280.30151858333335,281.3187592166667,56.0,59.0
1583,280.04289808333334,281.6743624041667,49.0,69.0
1584,281.3360005833333,281.6840606729167,61.0,85.0
1585,281.5946210833333,281.6851382583333,56.0,64.0
1586,281.3360005833333,281.71854340625003,68.0,91.0
1587,282.11186208333334,282.4631549291667,54.0,93.0
1588,282.11186208333334,282.66681857291667,71.0,64.0
1589,282.11186208333334,282.67112891458333,68.0,72.0
1590,282.11186208333334,282.6786720125,64.0,88.0
1591,282.11186208333334,282.69699096458334,59.0,93.0
1592,282.11186208333334,282.7379392104167,42.0,73.0
1593,282.62910308333335,282.762723675,54.0,76.0
1594,283.14634408333336,283.4653093666667,54.0,91.0
1595,283.14634408333336,283.70345574375,70.0,78.0
1596,283.14634408333336,283.7271626229167,42.0,67.0
1597,283.14634408333336,283.75517984375,61.0,80.0
1598,283.14634408333336,283.76811086875,66.0,82.0
1599,283.6635850833333,283.78858499166665,54.0,88.0
