,start,end,pitch,velocity
0,23.090217835416667,23.4794939125,64.0,122.0
1,23.607814835416665,23.963662772916667,67.0,117.0
2,24.125411835416667,24.467241520833333,69.0,122.0
3,24.643008835416666,24.861909233333332,69.0,117.0
4,24.901807335416667,25.127177695833332,67.0,97.0
5,25.160605835416668,25.529393697916667,69.0,117.0
6,25.678202835416666,26.048069025,64.0,107.0
7,26.195799835416665,26.33059072083333,62.0,107.0
8,26.325199085416667,26.45352000833333,64.0,74.0
9,26.454598335416666,27.013171764583333,62.0,93.0
10,27.230993835416665,27.65585470625,64.0,102.0
11,27.748590835416667,28.1766866875,67.0,102.0
12,28.266187835416666,28.605860866666667,69.0,102.0
13,28.783784835416665,29.0307217375,69.0,122.0
14,29.042583335416666,29.3477499,67.0,90.0
15,29.301381835416667,29.51057728958333,69.0,102.0
16,29.560180335416668,29.692814566666666,67.0,93.0
17,29.818978835416665,30.297756060416667,67.0,107.0
18,30.336575835416667,31.144242820833334,64.0,117.0
19,31.371769835416664,31.788004089583332,64.0,112.0
20,31.889366835416666,32.28619120208333,67.0,122.0
21,32.40696383541667,32.733696941666665,69.0,117.0
22,32.92456083541666,33.163949447916664,69.0,117.0
23,33.18335933541667,33.471272666666664,67.0,102.0
24,33.442157835416666,33.806632389583335,69.0,107.0
25,33.95975483541667,34.4719602,64.0,112.0
26,34.47735183541666,35.33354353958333,62.0,100.0
27,35.51254583541667,35.76271771875,67.0,107.0
28,36.03014283541667,36.25982650416667,67.0,127.0
29,36.288941335416666,36.5229383125,64.0,100.0
30,36.547739835416664,36.87447294166667,62.0,100.0
31,36.80653833541667,37.04161363958333,64.0,117.0
32,37.065336835416666,37.292863849999996,62.0,112.0
33,37.32413533541666,37.6228319375,60.0,97.0
34,37.58293383541667,37.84065400833333,62.0,117.0
35,37.841732335416665,38.056319425,60.0,90.0
36,38.10053083541666,39.365408504166666,57.0,99.0
37,39.65332183541667,40.03397129583333,57.0,102.0
38,40.170918835416664,41.50265278333333,62.0,112.0
39,41.72370983541666,42.22405360208333,67.0,117.0
40,42.241306835416665,43.122300062499995,64.0,107.0
41,43.794097835416665,44.017311541666665,64.0,127.0
42,44.05289633541667,44.347279629166664,62.0,92.0
43,44.31169483541667,44.57911995208333,60.0,89.0
44,44.570493335416664,45.636958820833335,57.0,107.0
45,45.864485835416666,46.29581666875,67.0,117.0
46,46.38208283541667,46.640881335416665,67.0,102.0
47,46.640881335416665,46.88458325625,64.0,99.0
48,46.89967983541666,47.19514145625,62.0,99.0
49,47.15847833541667,47.38169204166667,64.0,95.0
50,47.417276835416665,47.656665447916666,62.0,90.0
51,47.67607533541666,47.96291033958333,60.0,76.0
52,47.93487383541667,48.144069289583335,62.0,99.0
53,48.193672335416665,48.39316284583333,60.0,93.0
54,48.45247083541666,49.55883442291667,57.0,86.0
55,62.42758983541667,62.8168659125,64.0,122.0
56,62.94518683541666,63.301034772916665,67.0,117.0
57,63.462783835416666,63.80461352083333,69.0,122.0
58,63.98038083541667,64.19928123333334,69.0,117.0
59,64.23917933541667,64.46454969583333,67.0,97.0
60,64.49797783541666,64.86676569791666,69.0,117.0
61,65.01557483541667,65.43288741666666,64.0,96.0
62,65.53317183541667,65.6765893375,62.0,107.0
63,65.66257108541666,65.79736197083334,64.0,62.0
64,65.79197033541666,66.368875325,62.0,90.0
65,66.56836583541667,66.99322670625,64.0,102.0
66,67.08596283541667,67.5140586875,67.0,102.0
67,67.60355983541666,67.94323286666666,69.0,102.0
68,68.12115683541667,68.3680937375,69.0,122.0
69,68.37995533541667,68.6851219,67.0,90.0
70,68.63875383541667,68.84794928958333,69.0,102.0
71,68.89755233541666,69.03018656666667,67.0,93.0
72,69.15635083541666,69.63512806041666,67.0,107.0
73,69.67394783541667,70.48161482083333,64.0,106.0
74,70.70914183541666,71.12537608958333,64.0,112.0
75,71.22673883541667,71.62356320208333,67.0,122.0
76,71.74433583541666,72.07106894166667,69.0,117.0
77,72.26193283541666,72.50132144791667,69.0,117.0
78,72.52073133541667,72.80864466666667,67.0,102.0
79,72.77952983541667,73.14400438958333,69.0,107.0
80,73.29712683541666,73.8093322,64.0,112.0
81,73.81472383541667,74.67091553958333,62.0,100.0
82,74.84991783541666,75.10008971875,67.0,107.0
83,75.36751483541667,75.59719850416667,67.0,115.0
84,75.62631333541667,75.8603103125,64.0,100.0
85,75.88511183541667,76.21184494166667,62.0,100.0
86,76.14391033541666,76.37898563958333,64.0,117.0
87,76.40270883541666,76.63023584999999,62.0,112.0
88,76.66150733541666,76.9602039375,60.0,97.0
89,76.92030583541667,77.17802600833333,62.0,117.0
90,77.17910433541667,77.393691425,60.0,96.0
91,77.43790283541666,78.70278050416667,57.0,99.0
92,78.99069383541666,79.37134329583333,57.0,102.0
93,79.50829083541666,81.03304533125,62.0,112.0
94,81.06108183541666,81.56142560208333,67.0,117.0
95,81.57867883541667,82.4596720625,64.0,107.0
96,83.13146983541667,83.35468354166666,64.0,127.0
97,83.39026833541666,83.68465162916667,62.0,92.0
98,83.64906683541666,83.91649195208333,60.0,89.0
99,83.90786533541666,84.97433082083333,57.0,107.0
100,85.20185783541666,85.63318866875,67.0,117.0
101,85.71945483541667,85.97825333541667,67.0,102.0
102,85.97825333541667,86.22195525625,64.0,99.0
103,86.23705183541666,86.53251345625,62.0,99.0
104,86.49585033541666,86.71906404166667,64.0,95.0
105,86.75464883541666,86.99403744791667,62.0,90.0
106,87.01344733541667,87.30028233958333,60.0,76.0
107,87.27224583541667,87.48144128958333,62.0,99.0
108,87.53104433541667,87.73053484583333,60.0,93.0
109,87.78984283541666,88.89620642291666,57.0,86.0
110,110.04651383541666,110.4357899125,64.0,122.0
111,110.56411083541667,110.91995877291666,67.0,117.0
112,111.08170783541667,111.42353752083334,69.0,122.0
113,111.59930483541666,111.81820523333333,69.0,117.0
114,111.85810333541666,112.08347369583333,67.0,97.0
115,112.11690183541667,112.48568969791667,69.0,117.0
116,112.63449883541666,113.004365025,64.0,107.0
117,113.15209583541666,113.28688672083334,62.0,107.0
118,113.28149508541667,113.40981600833334,64.0,74.0
119,113.41089433541666,113.96946776458333,62.0,93.0
120,114.18728983541666,114.61215070624999,64.0,102.0
121,114.70488683541666,115.1329826875,67.0,102.0
122,115.22248383541667,115.56215686666667,69.0,102.0
123,115.74008083541666,115.9870177375,69.0,122.0
124,115.99887933541666,116.30404589999999,67.0,90.0
125,116.25767783541666,116.46687328958333,69.0,102.0
126,116.51647633541667,116.64911056666666,67.0,93.0
127,116.77527483541667,117.25405206041667,67.0,107.0
128,117.29287183541666,118.10053882083334,64.0,117.0
129,118.32806583541667,118.74430008958333,64.0,112.0
130,118.84566283541666,119.24248720208332,67.0,122.0
131,119.36325983541667,119.68999294166666,69.0,117.0
132,119.88085683541667,120.12024544791666,69.0,117.0
133,120.13965533541666,120.42756866666666,67.0,102.0
134,120.39845383541666,120.76292838958334,69.0,107.0
135,120.91605083541667,121.42825619999999,64.0,112.0
136,121.43364783541666,122.28983953958333,62.0,100.0
137,122.46884183541667,122.71901371874999,67.0,107.0
138,122.98643883541666,123.21612250416666,67.0,127.0
139,123.24523733541666,123.4792343125,64.0,100.0
140,123.50403583541666,123.83076894166666,62.0,100.0
141,123.76283433541667,123.99790963958333,64.0,117.0
142,124.02163283541667,124.24915985,62.0,112.0
143,124.28043133541667,124.57912793749999,60.0,97.0
144,124.53922983541666,124.79695000833333,62.0,117.0
145,124.79802833541666,125.01261542499999,60.0,90.0
146,125.05682683541666,126.32170450416666,57.0,99.0
147,126.60961783541666,126.99026729583333,57.0,102.0
148,127.12721483541667,128.54952825833334,62.0,112.0
149,128.68000583541667,129.18034960208334,67.0,117.0
150,129.19760283541666,130.0785960625,64.0,107.0
151,130.75039383541667,130.97360754166667,64.0,127.0
152,131.00919233541666,131.30357562916666,62.0,92.0
153,131.26799083541667,131.53541595208333,60.0,89.0
154,131.52678933541665,132.59325482083332,57.0,107.0
155,132.82078183541665,133.25211266875,67.0,117.0
156,133.33837883541668,133.59717733541666,67.0,102.0
157,133.59717733541666,133.84087925625,64.0,99.0
158,133.85597583541667,134.15143745625,62.0,99.0
159,134.11477433541666,134.33798804166668,64.0,95.0
160,134.37357283541667,134.61296144791666,62.0,90.0
161,134.63237133541665,134.91920633958333,60.0,76.0
162,134.89116983541666,135.10036528958332,62.0,99.0
163,135.14996833541667,135.34945884583334,60.0,93.0
164,135.40876683541666,136.51513042291666,57.0,86.0
165,149.38388583541666,149.7731619125,64.0,122.0
166,149.90148283541666,150.25733077291667,67.0,117.0
167,150.41907983541665,150.76090952083334,69.0,122.0
168,150.93667683541668,151.15557723333333,69.0,117.0
169,151.19547533541666,151.42084569583332,67.0,97.0
170,151.45427383541667,151.82306169791667,69.0,117.0
171,151.97187083541667,152.38918341666667,64.0,96.0
172,152.48946783541666,152.6328853375,62.0,107.0
173,152.61886708541667,152.75365797083333,64.0,62.0
174,152.74826633541667,153.32517132499999,62.0,90.0
175,153.52466183541665,153.94952270625,64.0,102.0
176,154.04225883541667,154.4703546875,67.0,102.0
177,154.55985583541667,154.89952886666666,69.0,102.0
178,155.07745283541666,155.32438973749998,69.0,122.0
179,155.33625133541668,155.6414179,67.0,90.0
180,155.59504983541666,155.80424528958332,69.0,102.0
181,155.85384833541667,155.98648256666667,67.0,93.0
182,156.11264683541665,156.59142406041667,67.0,107.0
183,156.63024383541665,157.43791082083334,64.0,106.0
184,157.66543783541667,158.08167208958332,64.0,112.0
185,158.18303483541666,158.57985920208333,67.0,122.0
186,158.70063183541666,159.02736494166666,69.0,117.0
187,159.21822883541665,159.45761744791668,69.0,117.0
188,159.47702733541666,159.76494066666666,67.0,102.0
189,159.73582583541668,160.10030038958334,69.0,107.0
190,160.25342283541667,160.7656282,64.0,112.0
191,160.77101983541667,161.62721153958333,62.0,100.0
192,161.80621383541666,162.05638571875,67.0,107.0
193,162.32381083541665,162.55349450416665,67.0,115.0
194,162.58260933541666,162.8166063125,64.0,100.0
195,162.84140783541667,163.16814094166665,62.0,100.0
196,163.10020633541666,163.33528163958334,64.0,117.0
197,163.35900483541667,163.58653185,62.0,112.0
198,163.61780333541665,163.9164999375,60.0,97.0
199,163.87660183541666,164.13432200833333,62.0,117.0
200,164.13540033541668,164.349987425,60.0,96.0
201,164.39419883541666,165.65907650416665,57.0,99.0
202,165.94698983541667,166.32763929583334,57.0,102.0
203,166.46458683541667,167.86749037083334,62.0,112.0
204,168.01737783541665,168.51772160208333,67.0,117.0
205,168.53497483541668,169.41596806249999,64.0,107.0
206,170.08776583541666,170.31097954166665,64.0,127.0
207,170.34656433541667,170.64094762916667,62.0,92.0
208,170.60536283541666,170.87278795208334,60.0,89.0
209,170.86416133541667,171.93062682083334,57.0,107.0
210,172.15815383541667,172.58948466875,67.0,117.0
211,172.67575083541666,172.93454933541668,67.0,102.0
212,172.93454933541668,173.17825125625,64.0,99.0
213,173.19334783541666,173.48880945625,62.0,99.0
214,173.45214633541667,173.67536004166666,64.0,95.0
215,173.71094483541665,173.95033344791665,62.0,90.0
216,173.96974333541667,174.25657833958334,60.0,76.0
217,174.22854183541665,174.43773728958334,62.0,99.0
218,174.48734033541666,174.68683084583333,60.0,93.0
219,174.74613883541667,175.85250242291667,57.0,86.0
