,start,end,pitch,velocity
0,2.3863378354166667,2.783162202083333,45.0,69.0
1,2.7745355854166664,2.85648844375,57.0,71.0
2,2.7745355854166664,2.8608017520833333,52.0,66.0
3,2.7745355854166664,2.8748200041666667,60.0,68.0
4,2.9039348354166665,3.2026314375,40.0,60.0
5,3.1627333354166667,3.2220413249999997,57.0,88.0
6,3.1627333354166667,3.23174626875,52.0,86.0
7,3.1627333354166667,3.23821623125,60.0,79.0
8,3.4215318354166664,3.8108079125,45.0,61.0
9,3.8097295854166666,3.8733508833333334,52.0,59.0
10,3.8097295854166666,3.8776641916666668,57.0,71.0
11,3.8097295854166666,3.8884474625,60.0,71.0
12,4.197927335416667,4.261548633333334,52.0,77.0
13,3.9391288354166667,4.262626960416666,40.0,61.0
14,4.197927335416667,4.264783614583333,57.0,89.0
15,4.197927335416667,4.278801866666667,60.0,81.0
16,4.456725835416667,4.909623210416666,45.0,52.0
17,4.844923585416667,4.91393651875,52.0,72.0
18,4.844923585416667,4.91393651875,57.0,74.0
19,4.844923585416667,4.941973022916667,60.0,74.0
20,4.974322835416666,5.265471147916666,40.0,66.0
21,5.233121335416667,5.290272670833334,52.0,68.0
22,5.233121335416667,5.291350997916666,57.0,77.0
23,5.233121335416667,5.313995866666667,60.0,75.0
24,5.8801175854166665,5.948052191666666,57.0,72.0
25,5.8801175854166665,5.9588354625,52.0,67.0
26,5.8801175854166665,5.966383752083333,60.0,72.0
27,5.491919835416667,5.99442025625,45.0,42.0
28,6.268315335416666,6.322231689583333,60.0,68.0
29,6.268315335416666,6.333014960416667,57.0,73.0
30,6.268315335416666,6.355659829166666,52.0,64.0
31,6.009516835416666,6.3707564083333335,40.0,63.0
32,6.5271138354166665,6.697489514583333,57.0,85.0
33,6.5271138354166665,6.701802822916666,52.0,72.0
34,6.5271138354166665,6.711507766666666,60.0,78.0
35,6.5271138354166665,6.7352309625,45.0,62.0
36,7.3142926062499996,7.440456875,62.0,66.0
37,7.311057625,7.44369185625,55.0,61.0
38,7.316449260416666,7.4857466125,59.0,71.0
39,7.300274354166667,7.490059920833333,43.0,88.0
40,7.557994527083333,7.76718998125,57.0,73.0
41,7.5633861625,7.7693466354166665,64.0,72.0
42,7.554759545833333,7.771503289583333,45.0,58.0
43,7.5569162,7.775816597916666,60.0,72.0
44,8.346251624999999,8.473494220833333,55.0,68.0
45,8.353799914583334,8.486434145833334,62.0,64.0
46,8.34948660625,8.515548977083332,59.0,72.0
47,8.321450102083332,8.518783958333334,43.0,93.0
48,8.605050125,8.839047102083333,64.0,70.0
49,8.60181514375,8.84120375625,57.0,69.0
50,8.584561910416667,8.843360410416667,45.0,73.0
51,8.59534518125,8.845517064583333,60.0,71.0
52,10.667889835416666,11.001092904166667,45.0,89.0
53,11.056087585416666,11.119708883333333,52.0,77.0
54,11.056087585416666,11.130492154166667,57.0,81.0
55,11.056087585416666,11.136962116666666,60.0,71.0
56,11.185486835416667,11.443207008333333,40.0,68.0
57,11.444285335416666,11.513298268749999,52.0,78.0
58,11.444285335416666,11.520846558333334,57.0,93.0
59,11.444285335416666,11.527316520833333,60.0,78.0
60,11.703083835416667,12.125788052083333,45.0,66.0
61,12.091281585416667,12.171077789583332,52.0,79.0
62,12.091281585416667,12.176469425,57.0,85.0
63,12.091281585416667,12.190487677083333,60.0,78.0
64,12.220680835416667,12.40615309375,40.0,64.0
65,12.479479335416666,12.550648922916666,52.0,73.0
66,12.479479335416666,12.550648922916666,57.0,83.0
67,12.479479335416666,12.562510520833333,60.0,76.0
68,12.738277835416666,13.139415510416667,45.0,66.0
69,13.126475585416665,13.193331864583334,52.0,66.0
70,13.126475585416665,13.197645172916666,57.0,78.0
71,13.126475585416665,13.206271789583333,60.0,74.0
72,13.255874835416666,13.479088541666666,40.0,61.0
73,13.514673335416667,13.578294633333334,52.0,59.0
74,13.514673335416667,13.591234558333333,57.0,75.0
75,13.514673335416667,13.599861175,60.0,67.0
76,13.773471835416666,14.197254379166667,45.0,54.0
77,14.161669585416666,14.226369210416665,60.0,75.0
78,14.161669585416666,14.232839172916666,57.0,81.0
79,14.161669585416666,14.23715248125,52.0,72.0
80,14.549867335416666,14.610253652083333,52.0,56.0
81,14.549867335416666,14.628585212499999,57.0,76.0
82,14.549867335416666,14.63829015625,60.0,73.0
83,14.291068835416667,14.642603464583333,40.0,63.0
84,14.808665835416667,15.216273472916667,45.0,61.0
85,15.196863585416667,15.26587651875,52.0,59.0
86,15.196863585416667,15.271268154166666,60.0,69.0
87,15.196863585416667,15.2755814625,57.0,79.0
88,15.585061335416666,15.640056016666666,52.0,78.0
89,15.326262835416665,15.643290997916667,40.0,65.0
90,15.585061335416666,15.6637792125,57.0,89.0
91,15.585061335416666,15.664857539583332,60.0,79.0
92,15.843859835416666,16.218039333333333,38.0,72.0
93,16.232057585416666,16.26979903333333,62.0,74.0
94,16.232057585416666,16.290287247916666,57.0,72.0
95,16.232057585416666,16.290287247916666,65.0,72.0
96,16.361456835416668,16.578200579166666,36.0,89.0
97,16.361456835416668,16.578200579166666,48.0,89.0
98,16.578200579166666,16.662310091666665,62.0,77.0
99,16.580357233333334,16.665545072916665,57.0,75.0
100,16.583592214583334,16.667701727083333,65.0,72.0
101,16.620255335416665,16.908168666666665,38.0,73.0
102,16.620255335416665,16.908168666666665,50.0,73.0
103,16.879053835416666,17.27803485625,45.0,73.0
104,17.267251585416666,17.35028277083333,52.0,65.0
105,17.267251585416666,17.357831060416665,57.0,77.0
106,17.267251585416666,17.36969265833333,60.0,72.0
107,17.396650835416665,17.667310933333333,40.0,71.0
108,17.655449335416666,17.7212272875,52.0,75.0
109,17.655449335416666,17.7212272875,57.0,88.0
110,17.655449335416666,17.733088885416667,60.0,79.0
111,17.914247835416667,18.338030379166668,45.0,60.0
112,18.302445585416667,18.373615172916665,57.0,73.0
113,18.302445585416667,18.383320116666667,52.0,70.0
114,18.302445585416667,18.389790079166666,60.0,73.0
115,18.431844835416666,18.699269952083334,40.0,71.0
116,18.690643335416667,18.761812922916665,52.0,72.0
117,18.690643335416667,18.76612623125,57.0,81.0
118,18.690643335416667,18.774752847916666,60.0,74.0
119,18.949441835416668,19.379694341666667,45.0,73.0
120,19.337639585416667,19.412044154166665,52.0,58.0
121,19.337639585416667,19.418514116666667,57.0,70.0
122,19.337639585416667,19.428219060416666,60.0,69.0
123,19.467038835416666,19.751717185416666,40.0,63.0
124,19.725837335416667,19.79592859583333,57.0,81.0
125,19.725837335416667,19.802398558333334,52.0,71.0
126,19.725837335416667,19.807790193749998,60.0,73.0
127,19.984635835416665,20.406261725,45.0,59.0
128,20.372833585416664,20.438611537499998,52.0,49.0
129,20.372833585416664,20.438611537499998,57.0,72.0
130,20.372833585416664,20.453708116666665,60.0,72.0
131,20.761031335416668,20.832200922916666,52.0,67.0
132,20.761031335416668,20.83651423125,57.0,74.0
133,20.761031335416668,20.845140847916667,60.0,68.0
134,20.502232835416667,20.906605491666667,40.0,67.0
135,21.019829835416665,21.479197172916667,45.0,59.0
136,21.408027585416665,21.479197172916667,52.0,58.0
137,21.408027585416665,21.493215425,57.0,78.0
138,21.408027585416665,21.50615535,60.0,71.0
139,21.796225335416665,21.85876830625,57.0,82.0
140,21.796225335416665,21.860924960416668,52.0,70.0
141,21.796225335416665,21.870629904166666,60.0,74.0
142,21.537426835416667,21.9137629875,40.0,63.0
143,22.443221585416666,22.516547827083333,52.0,68.0
144,22.055023835416666,22.520861135416666,45.0,64.0
145,22.443221585416666,22.5219394625,57.0,79.0
146,22.443221585416666,22.53164440625,60.0,70.0
147,22.831419335416665,22.88102238125,52.0,79.0
148,22.831419335416665,22.895040633333334,57.0,92.0
149,22.831419335416665,22.895040633333334,60.0,79.0
150,22.572620835416664,22.93925204375,40.0,61.0
151,23.090217835416667,23.474102277083333,45.0,100.0
152,23.478415585416666,23.558211789583332,52.0,78.0
153,23.478415585416666,23.567916733333334,57.0,86.0
154,23.478415585416666,23.57330836875,60.0,76.0
155,23.607814835416665,23.8935715125,40.0,82.0
156,23.866613335416666,23.93886125,52.0,67.0
157,23.866613335416666,23.9453312125,57.0,88.0
158,23.866613335416666,23.951801175,60.0,78.0
159,24.125411835416667,24.522236202083334,45.0,88.0
160,24.513609585416667,24.5923274625,52.0,75.0
161,24.513609585416667,24.5923274625,57.0,82.0
162,24.513609585416667,24.600954079166666,60.0,75.0
163,24.643008835416666,24.920138895833333,40.0,71.0
164,24.901807335416667,24.9675852875,52.0,75.0
165,24.901807335416667,24.979446885416667,57.0,73.0
166,24.901807335416667,24.994543464583334,60.0,73.0
167,25.160605835416668,25.619973172916666,45.0,77.0
168,25.548803585416668,25.628599789583333,57.0,79.0
169,25.548803585416668,25.636148079166666,52.0,67.0
170,25.548803585416668,25.636148079166666,60.0,70.0
171,25.920826429166667,25.94562795208333,55.0,102.0
172,25.678202835416666,25.971507802083334,40.0,69.0
173,25.937001335416667,26.001700960416667,52.0,74.0
174,25.937001335416667,26.001700960416667,57.0,83.0
175,25.937001335416667,26.014640885416664,60.0,81.0
176,26.195799835416665,26.480478185416665,38.0,65.0
177,26.583997585416665,26.667028770833333,65.0,75.0
178,26.583997585416665,26.672420406249998,62.0,90.0
179,26.583997585416665,26.673498733333332,57.0,66.0
180,26.583997585416665,26.67996869583333,38.0,100.0
181,26.713396835416667,26.952785447916668,48.0,85.0
182,26.972195335416664,27.055226520833333,57.0,81.0
183,26.972195335416664,27.057383175,62.0,89.0
184,26.972195335416664,27.062774810416666,65.0,81.0
185,26.972195335416664,27.185704097916666,50.0,75.0
186,27.230993835416665,27.618113258333334,45.0,81.0
187,27.619191585416665,27.706536079166668,52.0,70.0
188,27.619191585416665,27.70761440625,57.0,82.0
189,27.619191585416665,27.7237893125,60.0,73.0
190,28.007389335416665,28.078558922916667,57.0,83.0
191,28.007389335416665,28.08395055833333,52.0,74.0
192,28.007389335416665,28.087185539583334,60.0,76.0
193,27.748590835416667,28.12169200625,40.0,42.0
194,28.266187835416666,28.705066958333333,45.0,60.0
195,28.654385585416666,28.740651752083334,57.0,73.0
196,28.654385585416666,28.7460433875,52.0,65.0
197,28.654385585416666,28.75574833125,60.0,72.0
198,28.783784835416665,29.09218638125,40.0,70.0
199,29.042583335416666,29.115909577083332,57.0,81.0
200,29.042583335416666,29.118066231249998,52.0,72.0
201,29.042583335416666,29.120222885416666,60.0,68.0
202,29.301381835416667,29.760749172916665,45.0,71.0
203,29.689579585416666,29.760749172916665,57.0,75.0
204,29.689579585416666,29.76506248125,52.0,60.0
205,29.689579585416666,29.785550695833333,60.0,70.0
206,30.077777335416666,30.152181904166667,52.0,69.0
207,30.077777335416666,30.154338558333333,57.0,77.0
208,29.818978835416665,30.16404350208333,40.0,71.0
209,30.077777335416666,30.1694351375,60.0,72.0
210,30.336575835416667,30.757123397916665,45.0,69.0
211,30.724773585416667,30.81103975208333,52.0,64.0
212,30.724773585416667,30.81103975208333,57.0,74.0
213,30.724773585416667,30.820744695833334,60.0,72.0
214,30.854172835416666,31.120519625,40.0,66.0
215,31.112971335416667,31.176592633333332,52.0,75.0
216,31.112971335416667,31.187375904166664,57.0,86.0
217,31.112971335416667,31.187375904166664,60.0,75.0
218,31.371769835416664,31.795552379166665,45.0,68.0
219,31.759967585416668,31.834372154166665,52.0,63.0
220,31.759967585416668,31.840842116666664,57.0,77.0
221,31.759967585416668,31.84839040625,60.0,72.0
222,31.889366835416666,32.205316670833334,40.0,59.0
223,32.148165335416664,32.21609994166666,52.0,72.0
224,32.148165335416664,32.22256990416667,57.0,85.0
225,32.148165335416664,32.233353175,60.0,76.0
226,32.40696383541667,32.829668052083335,45.0,70.0
227,32.795161585416665,32.86309619166666,52.0,67.0
228,32.795161585416665,32.868487827083335,57.0,81.0
229,32.795161585416665,32.87603611666667,60.0,72.0
230,32.92456083541666,33.22757074583333,40.0,66.0
231,33.18335933541667,33.24482397916667,52.0,72.0
232,33.18335933541667,33.25884223125,57.0,79.0
233,33.18335933541667,33.264233866666665,60.0,71.0
234,33.442157835416666,33.861627070833336,45.0,85.0
235,33.83035558541667,33.91015178958333,52.0,64.0
236,33.83035558541667,33.915543425,60.0,71.0
237,33.83035558541667,33.92093506041667,57.0,82.0
238,34.218553335416665,34.291879577083336,57.0,88.0
239,34.218553335416665,34.291879577083336,60.0,88.0
240,33.95975483541667,34.3102111375,40.0,76.0
241,34.47735183541666,34.94211080833333,50.0,90.0
242,34.865549585416666,34.95289407916667,62.0,86.0
243,34.865549585416666,34.953972406249996,65.0,77.0
244,34.865549585416666,34.961520695833336,57.0,74.0
245,35.25374733541667,35.32276026875,57.0,82.0
246,35.25374733541667,35.3324652125,65.0,85.0
247,35.25374733541667,35.33354353958333,62.0,93.0
248,34.994948835416665,35.34971844583333,45.0,72.0
249,35.90074358541666,35.98485309791666,62.0,83.0
250,35.90074358541666,35.988088079166666,65.0,78.0
251,35.90074358541666,35.992401387499996,57.0,72.0
252,35.51254583541667,36.0441610875,50.0,69.0
253,36.03014283541667,36.352562633333335,45.0,92.0
254,36.288941335416666,36.3547192875,65.0,73.0
255,36.288941335416666,36.368737539583336,62.0,85.0
256,36.288941335416666,36.373050847916666,57.0,75.0
257,36.547739835416664,36.93485925833333,40.0,82.0
258,36.93593758541667,37.008185499999996,55.0,71.0
259,36.93593758541667,37.01142048125,52.0,64.0
260,36.93593758541667,37.03730033125,59.0,72.0
261,37.065336835416666,37.37373838125,47.0,83.0
262,37.32413533541666,37.38128667083333,52.0,75.0
263,37.32413533541666,37.39206994166667,55.0,90.0
264,37.32413533541666,37.413636483333335,59.0,88.0
265,37.58293383541667,37.93015515625,45.0,92.0
266,37.971131585416664,38.044457827083335,52.0,72.0
267,37.971131585416664,38.05092778958333,57.0,86.0
268,37.971131585416664,38.060632733333335,60.0,73.0
269,38.10053083541666,38.415402343749996,40.0,77.0
270,38.35932933541667,38.4251072875,52.0,77.0
271,38.35932933541667,38.42834226875,57.0,95.0
272,38.35932933541667,38.4380472125,60.0,82.0
273,38.618127835416665,39.05161532291667,45.0,58.0
274,39.00632558541667,39.0721035375,52.0,45.0
275,39.00632558541667,39.087200116666665,57.0,71.0
276,39.00632558541667,39.10229669583333,60.0,69.0
277,39.13572483541667,39.41177656875,40.0,78.0
278,39.394523335416665,39.44843968958333,52.0,65.0
279,39.394523335416665,39.46677125,57.0,89.0
280,39.394523335416665,39.472162885416665,60.0,77.0
281,39.91212033541667,39.96280170833333,62.0,83.0
282,39.91212033541667,39.96711501666667,65.0,71.0
283,39.91212033541667,39.982211595833334,57.0,79.0
284,39.91212033541667,39.998386502083335,50.0,54.0
285,39.65332183541667,40.0037781375,38.0,93.0
286,40.041519585416665,40.11592415416666,62.0,78.0
287,40.041519585416665,40.119159135416666,57.0,71.0
288,40.041519585416665,40.12239411666667,50.0,82.0
289,40.041519585416665,40.12239411666667,65.0,75.0
290,40.170918835416664,40.48686867083333,33.0,75.0
291,40.42971733541667,40.487946997916666,62.0,93.0
292,40.42971733541667,40.49118197916667,57.0,82.0
293,40.42971733541667,40.49980859583333,65.0,85.0
294,40.42971733541667,40.50735688541666,50.0,89.0
295,40.947314335416664,40.99260407291666,62.0,93.0
296,40.947314335416664,41.000152362499996,57.0,92.0
297,40.947314335416664,41.00338734375,65.0,86.0
298,40.947314335416664,41.0130922875,50.0,74.0
299,40.688515835416666,41.04975540833333,38.0,76.0
300,41.07671358541666,41.15219648125,62.0,68.0
301,41.07671358541666,41.159744770833335,57.0,61.0
302,41.07671358541666,41.16082309791667,65.0,69.0
303,41.07671358541666,41.16297975208333,50.0,71.0
304,41.464911335416666,41.52314099791666,62.0,88.0
305,41.464911335416666,41.52529765208333,65.0,78.0
306,41.464911335416666,41.53608092291667,57.0,85.0
307,41.464911335416666,41.54578586666666,50.0,83.0
308,41.20611283541667,41.58460564166666,33.0,79.0
309,41.98250833541667,42.02779807291667,67.0,79.0
310,41.98250833541667,42.0353463625,64.0,93.0
311,41.98250833541667,42.040737997916665,59.0,92.0
312,41.98250833541667,42.047207960416664,52.0,71.0
313,41.72370983541666,42.09896766041667,40.0,89.0
314,42.11190758541667,42.161510631249996,67.0,65.0
315,42.11190758541667,42.17337222916667,59.0,68.0
316,42.11190758541667,42.17876386458333,64.0,72.0
317,42.11190758541667,42.18954713541667,52.0,76.0
318,42.50010533541666,42.5400034375,67.0,78.0
319,42.50010533541666,42.546473399999996,59.0,75.0
320,42.50010533541666,42.54970838125,64.0,88.0
321,42.50010533541666,42.564804960416666,52.0,96.0
322,42.241306835416665,42.59931142708333,35.0,73.0
323,43.017702335416665,43.058678764583334,67.0,88.0
324,43.017702335416665,43.062992072916664,59.0,90.0
325,43.017702335416665,43.06946203541666,64.0,95.0
326,43.017702335416665,43.08995025,52.0,92.0
327,42.75890383541667,43.20317459375,40.0,81.0
328,43.147101585416664,43.21503619166666,67.0,78.0
329,43.147101585416664,43.220427827083334,59.0,79.0
330,43.147101585416664,43.220427827083334,64.0,83.0
331,43.147101585416664,43.22797611666667,52.0,81.0
332,43.27650083541666,43.56764914791667,35.0,78.0
333,43.53529933541667,43.582745727083335,67.0,86.0
334,43.53529933541667,43.59784230625,59.0,86.0
335,43.53529933541667,43.598920633333336,52.0,93.0
336,43.53529933541667,43.59999896041666,64.0,95.0
337,43.53529933541667,43.66254193125,40.0,79.0
338,44.05289633541667,44.090637783333335,64.0,78.0
339,44.05289633541667,44.0927944375,60.0,95.0
340,44.05289633541667,44.097107745833334,57.0,92.0
341,43.794097835416665,44.181217258333334,45.0,97.0
342,44.18229558541667,44.24483855625,60.0,63.0
343,44.18229558541667,44.246995210416664,57.0,53.0
344,44.18229558541667,44.25562182708333,64.0,68.0
345,44.570493335416664,44.6168614,60.0,92.0
346,44.570493335416664,44.61793972708333,57.0,85.0
347,44.570493335416664,44.62656634375,64.0,89.0
348,44.570493335416664,44.64489790416667,45.0,96.0
349,44.31169483541667,44.693422622916664,40.0,83.0
350,44.82929183541667,45.117205166666665,45.0,107.0
351,45.088090335416666,45.1279884375,57.0,95.0
352,45.088090335416666,45.1279884375,60.0,95.0
353,45.088090335416666,45.1409283625,64.0,93.0
354,45.217489585416665,45.297285789583334,60.0,75.0
355,45.217489585416665,45.297285789583334,64.0,67.0
356,45.217489585416665,45.3091473875,57.0,63.0
357,45.217489585416665,45.333948910416666,45.0,67.0
358,45.346888835416664,45.618627260416666,40.0,89.0
359,45.60568733541667,45.659603689583335,60.0,96.0
360,45.60568733541667,45.66283867083333,57.0,90.0
361,45.60568733541667,45.67254361458333,64.0,90.0
362,45.60568733541667,45.675778595833336,45.0,92.0
363,46.12328433541666,46.17288738125,67.0,77.0
364,46.12328433541666,46.176122362499996,64.0,86.0
365,46.12328433541666,46.192297268749996,59.0,86.0
366,45.864485835416666,46.253761912499996,40.0,97.0
367,46.25268358541666,46.30767826666666,67.0,58.0
368,46.25268358541666,46.3184615375,59.0,59.0
369,46.25268358541666,46.3184615375,64.0,67.0
370,46.25268358541666,46.32600982708333,52.0,62.0
371,46.640881335416665,46.69156270833333,67.0,92.0
372,46.640881335416665,46.695876016666666,64.0,100.0
373,46.640881335416665,46.702345979166665,59.0,95.0
374,46.640881335416665,46.70558096041667,52.0,92.0
375,46.38208283541667,46.736852445833335,35.0,96.0
376,47.15847833541667,47.2048464,62.0,81.0
377,47.15847833541667,47.20808138125,57.0,86.0
378,47.15847833541667,47.20808138125,65.0,71.0
379,47.15847833541667,47.21994297916667,50.0,81.0
380,46.89967983541666,47.28572093125,38.0,85.0
381,47.287877585416666,47.351498883333335,57.0,63.0
382,47.287877585416666,47.3601255,62.0,86.0
383,47.287877585416666,47.36551713541667,65.0,81.0
384,47.287877585416666,47.37090877083333,50.0,75.0
385,47.67607533541666,47.724600054166665,57.0,89.0
386,47.67607533541666,47.724600054166665,65.0,83.0
387,47.67607533541666,47.73430499791667,50.0,92.0
388,47.67607533541666,47.73430499791667,62.0,97.0
389,47.417276835416665,47.75371488541666,33.0,83.0
390,48.193672335416665,48.2400404,64.0,90.0
391,48.193672335416665,48.24758868958333,69.0,93.0
392,48.193672335416665,48.26160694166666,72.0,95.0
393,48.193672335416665,48.26376359583333,57.0,86.0
394,47.93487383541667,48.271311885416665,45.0,99.0
395,48.32307158541666,48.3888495375,69.0,71.0
396,48.32307158541666,48.39100619166666,64.0,71.0
397,48.32307158541666,48.40286778958333,72.0,74.0
398,48.32307158541666,48.40933775208333,57.0,92.0
399,48.71126933541667,48.75979405416667,64.0,86.0
400,48.71126933541667,48.76195070833333,69.0,96.0
401,48.71126933541667,48.77812561458333,72.0,96.0
402,48.71126933541667,48.78243892291667,57.0,90.0
403,48.45247083541666,48.824493679166665,40.0,96.0
404,49.22886633541667,49.270921091666665,64.0,88.0
405,49.22886633541667,49.27199941875,57.0,63.0
406,49.22886633541667,49.27199941875,69.0,88.0
407,49.22886633541667,49.2817043625,72.0,92.0
408,48.970067835416664,49.314054174999995,45.0,99.0
409,49.35826558541667,49.41541692083333,69.0,85.0
410,49.35826558541667,49.42080855625,72.0,75.0
411,49.35826558541667,49.428356845833335,64.0,74.0
412,49.35826558541667,49.443453425,57.0,77.0
413,49.487664835416666,49.74215002708333,40.0,85.0
414,49.746463335416664,49.78851809166667,64.0,71.0
415,49.746463335416664,49.7928314,69.0,85.0
416,49.746463335416664,49.80253634375,72.0,79.0
417,49.746463335416664,49.8122412875,57.0,100.0
418,49.746463335416664,49.920073995833334,43.0,90.0
419,50.00526183541667,50.33846490416666,45.0,89.0
420,50.393459585416664,50.45708088333333,52.0,77.0
421,50.393459585416664,50.46786415416666,57.0,81.0
422,50.393459585416664,50.47433411666667,60.0,71.0
423,50.52285883541666,50.78057900833333,40.0,68.0
424,50.78165733541667,50.85067026875,52.0,78.0
425,50.78165733541667,50.858218558333334,57.0,93.0
426,50.78165733541667,50.86468852083333,60.0,78.0
427,51.040455835416665,51.46316005208333,45.0,66.0
428,51.42865358541667,51.50844978958333,52.0,79.0
429,51.42865358541667,51.513841424999995,57.0,85.0
430,51.42865358541667,51.527859677083335,60.0,78.0
431,51.55805283541667,51.74352509375,40.0,64.0
432,51.816851335416665,51.88802092291667,52.0,73.0
433,51.816851335416665,51.88802092291667,57.0,83.0
434,51.816851335416665,51.89988252083333,60.0,76.0
435,52.07564983541666,52.47678751041666,45.0,66.0
436,52.463847585416666,52.53070386458333,52.0,66.0
437,52.463847585416666,52.53501717291667,57.0,78.0
438,52.463847585416666,52.543643789583335,60.0,74.0
439,52.593246835416664,52.816460541666665,40.0,61.0
440,52.85204533541666,52.91566663333333,52.0,59.0
441,52.85204533541666,52.928606558333335,57.0,75.0
442,52.85204533541666,52.937233174999996,60.0,67.0
443,53.11084383541667,53.53462637916667,45.0,54.0
444,53.49904158541666,53.563741210416666,60.0,75.0
445,53.49904158541666,53.570211172916665,57.0,81.0
446,53.49904158541666,53.57452448125,52.0,72.0
447,53.887239335416666,53.94762565208333,52.0,56.0
448,53.887239335416666,53.9659572125,57.0,76.0
449,53.887239335416666,53.975662156249996,60.0,73.0
450,53.62844083541667,53.97997546458333,40.0,63.0
451,54.146037835416664,54.55364547291666,45.0,61.0
452,54.53423558541667,54.60324851875,52.0,59.0
453,54.53423558541667,54.608640154166665,60.0,69.0
454,54.53423558541667,54.6129534625,57.0,79.0
455,54.92243333541666,54.977428016666664,52.0,78.0
456,54.663634835416666,54.98066299791667,40.0,65.0
457,54.92243333541666,55.0011512125,57.0,89.0
458,54.92243333541666,55.00222953958333,60.0,79.0
459,55.18123183541667,55.55541133333333,38.0,72.0
460,55.569429585416664,55.60717103333333,62.0,74.0
461,55.569429585416664,55.62765924791667,57.0,72.0
462,55.569429585416664,55.62765924791667,65.0,72.0
463,55.69882883541666,55.915572579166664,36.0,89.0
464,55.69882883541666,55.915572579166664,48.0,89.0
465,55.915572579166664,55.99968209166666,62.0,77.0
466,55.91772923333333,56.00291707291667,57.0,75.0
467,55.92096421458333,56.005073727083335,65.0,72.0
468,55.95762733541667,56.24554066666666,38.0,73.0
469,55.95762733541667,56.24554066666666,50.0,73.0
470,56.216425835416665,56.61540685625,45.0,73.0
471,56.60462358541667,56.68765477083333,52.0,65.0
472,56.60462358541667,56.69520306041667,57.0,77.0
473,56.60462358541667,56.70706465833333,60.0,72.0
474,56.73402283541667,57.004682933333335,40.0,71.0
475,56.992821335416664,57.0585992875,52.0,75.0
476,56.992821335416664,57.0585992875,57.0,88.0
477,56.992821335416664,57.070460885416665,60.0,79.0
478,57.25161983541666,57.67540237916666,45.0,60.0
479,57.639817585416665,57.71098717291667,57.0,73.0
480,57.639817585416665,57.72069211666666,52.0,70.0
481,57.639817585416665,57.72716207916667,60.0,73.0
482,57.769216835416664,58.03664195208333,40.0,71.0
483,58.02801533541667,58.09918492291666,52.0,72.0
484,58.02801533541667,58.10349823125,57.0,81.0
485,58.02801533541667,58.11212484791667,60.0,74.0
486,58.286813835416666,58.717066341666666,45.0,73.0
487,58.67501158541666,58.74941615416667,52.0,58.0
488,58.67501158541666,58.755886116666666,57.0,70.0
489,58.67501158541666,58.76559106041667,60.0,69.0
490,58.80441083541667,59.08908918541667,40.0,63.0
491,59.063209335416666,59.13330059583333,57.0,81.0
492,59.063209335416666,59.13977055833333,52.0,71.0
493,59.063209335416666,59.14516219375,60.0,73.0
494,59.32200783541666,59.743633724999995,45.0,59.0
495,59.71020558541667,59.7759835375,52.0,49.0
496,59.71020558541667,59.7759835375,57.0,72.0
497,59.71020558541667,59.79108011666666,60.0,72.0
498,60.09840333541666,60.169572922916664,52.0,67.0
499,60.09840333541666,60.17388623125,57.0,74.0
500,60.09840333541666,60.18251284791666,60.0,68.0
501,59.839604835416665,60.24397749166666,40.0,67.0
502,60.35720183541667,60.816569172916665,45.0,59.0
503,60.74539958541666,60.816569172916665,52.0,58.0
504,60.74539958541666,60.830587425,57.0,78.0
505,60.74539958541666,60.843527349999995,60.0,71.0
506,61.13359733541667,61.19614030625,57.0,82.0
507,61.13359733541667,61.19829696041666,52.0,70.0
508,61.13359733541667,61.208001904166665,60.0,74.0
509,60.87479883541666,61.251134987499995,40.0,63.0
510,61.78059358541667,61.85391982708333,52.0,68.0
511,61.392395835416664,61.85823313541667,45.0,64.0
512,61.78059358541667,61.859311462499996,57.0,79.0
513,61.78059358541667,61.86901640625,60.0,70.0
514,62.168791335416664,62.21839438125,52.0,79.0
515,62.168791335416664,62.23241263333333,57.0,92.0
516,62.168791335416664,62.23241263333333,60.0,79.0
517,61.909992835416666,62.27662404375,40.0,61.0
518,62.42758983541667,62.811474277083335,45.0,100.0
519,62.815787585416665,62.895583789583334,52.0,78.0
520,62.815787585416665,62.90528873333333,57.0,86.0
521,62.815787585416665,62.91068036875,60.0,76.0
522,62.94518683541666,63.2309435125,40.0,82.0
523,63.20398533541667,63.27623325,52.0,67.0
524,63.20398533541667,63.282703212499996,57.0,88.0
525,63.20398533541667,63.289173175,60.0,78.0
526,63.462783835416666,63.85960820208333,45.0,88.0
527,63.85098158541666,63.9296994625,52.0,75.0
528,63.85098158541666,63.9296994625,57.0,82.0
529,63.85098158541666,63.938326079166664,60.0,75.0
530,63.98038083541667,64.25751089583333,40.0,71.0
531,64.23917933541667,64.3049572875,52.0,75.0
532,64.23917933541667,64.31681888541667,57.0,73.0
533,64.23917933541667,64.33191546458333,60.0,73.0
534,64.49797783541666,64.95734517291666,45.0,77.0
535,64.88617558541667,64.96597178958334,57.0,79.0
536,64.88617558541667,64.97352007916666,52.0,67.0
537,64.88617558541667,64.97352007916666,60.0,70.0
538,65.01557483541667,65.30887980208333,40.0,69.0
539,65.27437333541667,65.33907296041666,52.0,74.0
540,65.27437333541667,65.33907296041666,57.0,83.0
541,65.27437333541667,65.35201288541667,60.0,81.0
542,65.53317183541667,66.00440077083333,50.0,65.0
543,65.92136958541667,66.00440077083333,65.0,75.0
544,65.92136958541667,66.00979240625,62.0,90.0
545,65.92136958541667,66.01087073333333,57.0,66.0
546,66.30956733541666,66.39259852083333,57.0,81.0
547,66.30956733541666,66.394755175,62.0,89.0
548,66.30956733541666,66.40014681041667,65.0,81.0
549,66.05076883541666,66.42387000625,45.0,73.0
550,66.56836583541667,66.95548525833333,45.0,81.0
551,66.95656358541666,67.04390807916667,52.0,70.0
552,66.95656358541666,67.04498640625,57.0,82.0
553,66.95656358541666,67.0611613125,60.0,73.0
554,67.34476133541666,67.41593092291666,57.0,83.0
555,67.34476133541666,67.42132255833333,52.0,74.0
556,67.34476133541666,67.42455753958333,60.0,76.0
557,67.08596283541667,67.45906400625,40.0,42.0
558,67.60355983541666,68.04243895833334,45.0,60.0
559,67.99175758541666,68.07802375208333,57.0,73.0
560,67.99175758541666,68.0834153875,52.0,65.0
561,67.99175758541666,68.09312033124999,60.0,72.0
562,68.12115683541667,68.42955838125,40.0,70.0
563,68.37995533541667,68.45328157708333,57.0,81.0
564,68.37995533541667,68.45543823125,52.0,72.0
565,68.37995533541667,68.45759488541667,60.0,68.0
566,68.63875383541667,69.09812117291666,45.0,71.0
567,69.02695158541667,69.09812117291666,57.0,75.0
568,69.02695158541667,69.10243448125,52.0,60.0
569,69.02695158541667,69.12292269583334,60.0,70.0
570,69.41514933541667,69.48955390416667,52.0,69.0
571,69.41514933541667,69.49171055833334,57.0,77.0
572,69.15635083541666,69.50141550208333,40.0,71.0
573,69.41514933541667,69.5068071375,60.0,72.0
574,69.67394783541667,70.09449539791666,45.0,69.0
575,70.06214558541666,70.14841175208333,52.0,64.0
576,70.06214558541666,70.14841175208333,57.0,74.0
577,70.06214558541666,70.15811669583333,60.0,72.0
578,70.19154483541666,70.457891625,40.0,66.0
579,70.45034333541666,70.51396463333333,52.0,75.0
580,70.45034333541666,70.52474790416666,57.0,86.0
581,70.45034333541666,70.52474790416666,60.0,75.0
582,70.70914183541666,71.13292437916667,45.0,68.0
583,71.09733958541666,71.17174415416666,52.0,63.0
584,71.09733958541666,71.17821411666667,57.0,77.0
585,71.09733958541666,71.18576240624999,60.0,72.0
586,71.22673883541667,71.54268867083333,40.0,59.0
587,71.48553733541667,71.55347194166667,52.0,72.0
588,71.48553733541667,71.55994190416666,57.0,85.0
589,71.48553733541667,71.57072517499999,60.0,76.0
590,71.74433583541666,72.16704005208334,45.0,70.0
591,72.13253358541667,72.20046819166666,52.0,67.0
592,72.13253358541667,72.20585982708333,57.0,81.0
593,72.13253358541667,72.21340811666667,60.0,72.0
594,72.26193283541666,72.56494274583333,40.0,66.0
595,72.52073133541667,72.58219597916667,52.0,72.0
596,72.52073133541667,72.59621423125,57.0,79.0
597,72.52073133541667,72.60160586666666,60.0,71.0
598,72.77952983541667,73.19899907083334,45.0,85.0
599,73.16772758541667,73.24752378958333,52.0,64.0
600,73.16772758541667,73.252915425,60.0,71.0
601,73.16772758541667,73.25830706041667,57.0,82.0
602,73.55592533541666,73.62925157708334,57.0,88.0
603,73.55592533541666,73.62925157708334,60.0,88.0
604,73.29712683541666,73.64758313749999,40.0,76.0
605,73.81472383541667,74.27948280833333,50.0,90.0
606,74.20292158541666,74.29026607916667,62.0,86.0
607,74.20292158541666,74.29134440625,65.0,77.0
608,74.20292158541666,74.29889269583333,57.0,74.0
609,74.59111933541666,74.66013226875,57.0,82.0
610,74.59111933541666,74.6698372125,65.0,85.0
611,74.59111933541666,74.67091553958333,62.0,93.0
612,74.33232083541667,74.68709044583333,45.0,72.0
613,75.23811558541666,75.32222509791667,62.0,83.0
614,75.23811558541666,75.32546007916666,65.0,78.0
615,75.23811558541666,75.3297733875,57.0,72.0
616,74.84991783541666,75.3815330875,50.0,69.0
617,75.36751483541667,75.68993463333334,45.0,92.0
618,75.62631333541667,75.69209128749999,65.0,73.0
619,75.62631333541667,75.70610953958334,62.0,85.0
620,75.62631333541667,75.71042284791666,57.0,75.0
621,75.88511183541667,76.27223125833333,40.0,82.0
622,76.27330958541667,76.3455575,55.0,71.0
623,76.27330958541667,76.34879248125,52.0,64.0
624,76.27330958541667,76.37467233125,59.0,72.0
625,76.40270883541666,76.71111038125,47.0,83.0
626,76.66150733541666,76.71865867083334,52.0,75.0
627,76.66150733541666,76.72944194166666,55.0,90.0
628,76.66150733541666,76.75100848333334,59.0,88.0
629,76.92030583541667,77.26752715625,45.0,92.0
630,77.30850358541666,77.38182982708334,52.0,72.0
631,77.30850358541666,77.38829978958333,57.0,86.0
632,77.30850358541666,77.39800473333334,60.0,73.0
633,77.43790283541666,77.75277434375,40.0,77.0
634,77.69670133541666,77.7624792875,52.0,77.0
635,77.69670133541666,77.76571426875,57.0,95.0
636,77.69670133541666,77.7754192125,60.0,82.0
637,77.95549983541666,78.38898732291666,45.0,58.0
638,78.34369758541666,78.4094755375,52.0,45.0
639,78.34369758541666,78.42457211666667,57.0,71.0
640,78.34369758541666,78.43966869583333,60.0,69.0
641,78.47309683541667,78.74914856875,40.0,78.0
642,78.73189533541667,78.78581168958333,52.0,65.0
643,78.73189533541667,78.80414325,57.0,89.0
644,78.73189533541667,78.80953488541667,60.0,77.0
645,79.24949233541666,79.30017370833333,62.0,83.0
646,79.24949233541666,79.30448701666667,65.0,71.0
647,79.24949233541666,79.31958359583334,57.0,79.0
648,79.24949233541666,79.33575850208334,50.0,54.0
649,78.99069383541666,79.3411501375,38.0,93.0
650,79.37889158541667,79.45329615416667,62.0,78.0
651,79.37889158541667,79.45653113541667,57.0,71.0
652,79.37889158541667,79.45976611666667,50.0,82.0
653,79.37889158541667,79.45976611666667,65.0,75.0
654,79.50829083541666,79.82424067083333,33.0,75.0
655,79.76708933541667,79.82531899791667,62.0,93.0
656,79.76708933541667,79.82855397916667,57.0,82.0
657,79.76708933541667,79.83718059583333,65.0,85.0
658,79.76708933541667,79.84472888541667,50.0,89.0
659,80.28468633541667,80.32997607291666,62.0,93.0
660,80.28468633541667,80.33752436249999,57.0,92.0
661,80.28468633541667,80.34075934375,65.0,86.0
662,80.28468633541667,80.3504642875,50.0,74.0
663,80.02588783541667,80.38712740833333,38.0,76.0
664,80.41408558541667,80.48956848125,62.0,68.0
665,80.41408558541667,80.49711677083333,57.0,61.0
666,80.41408558541667,80.49819509791666,65.0,69.0
667,80.41408558541667,80.50035175208333,50.0,71.0
668,80.80228333541666,80.86051299791666,62.0,88.0
669,80.80228333541666,80.86266965208333,65.0,78.0
670,80.80228333541666,80.87345292291667,57.0,85.0
671,80.80228333541666,80.88315786666666,50.0,83.0
672,80.54348483541666,80.92197764166666,33.0,79.0
673,81.31988033541667,81.36517007291667,67.0,79.0
674,81.31988033541667,81.3727183625,64.0,93.0
675,81.31988033541667,81.37810999791667,59.0,92.0
676,81.31988033541667,81.38457996041666,52.0,71.0
677,81.06108183541666,81.43633966041666,40.0,89.0
678,81.44927958541666,81.49888263125,67.0,65.0
679,81.44927958541666,81.51074422916666,59.0,68.0
680,81.44927958541666,81.51613586458333,64.0,72.0
681,81.44927958541666,81.52691913541666,52.0,76.0
682,81.83747733541666,81.87737543749999,67.0,78.0
683,81.83747733541666,81.8838454,59.0,75.0
684,81.83747733541666,81.88708038125,64.0,88.0
685,81.83747733541666,81.90217696041667,52.0,96.0
686,81.57867883541667,81.93668342708334,35.0,73.0
687,82.35507433541666,82.39605076458334,67.0,88.0
688,82.35507433541666,82.40036407291666,59.0,90.0
689,82.35507433541666,82.40683403541667,64.0,95.0
690,82.35507433541666,82.42732225,52.0,92.0
691,82.09627583541666,82.54054659375,40.0,81.0
692,82.48447358541667,82.55240819166667,67.0,78.0
693,82.48447358541667,82.55779982708333,59.0,79.0
694,82.48447358541667,82.55779982708333,64.0,83.0
695,82.48447358541667,82.56534811666667,52.0,81.0
696,82.61387283541667,82.90502114791667,35.0,78.0
697,82.87267133541667,82.92011772708334,67.0,86.0
698,82.87267133541667,82.93521430625,59.0,86.0
699,82.87267133541667,82.93629263333334,52.0,93.0
700,82.87267133541667,82.93737096041666,64.0,95.0
701,82.87267133541667,82.99991393124999,40.0,79.0
702,83.39026833541666,83.42800978333334,64.0,78.0
703,83.39026833541666,83.43016643749999,60.0,95.0
704,83.39026833541666,83.43447974583333,57.0,92.0
705,83.13146983541667,83.51858925833334,45.0,97.0
706,83.51966758541667,83.58221055625,60.0,63.0
707,83.51966758541667,83.58436721041666,57.0,53.0
708,83.51966758541667,83.59299382708333,64.0,68.0
709,83.90786533541666,83.95423339999999,60.0,92.0
710,83.90786533541666,83.95531172708333,57.0,85.0
711,83.90786533541666,83.96393834375,64.0,89.0
712,83.90786533541666,83.98226990416667,45.0,96.0
713,83.64906683541666,84.03079462291666,40.0,83.0
714,84.42546233541667,84.4653604375,57.0,95.0
715,84.42546233541667,84.4653604375,60.0,95.0
716,84.42546233541667,84.4783003625,64.0,93.0
717,84.55486158541666,84.63465778958333,60.0,75.0
718,84.55486158541666,84.63465778958333,64.0,67.0
719,84.55486158541666,84.64651938749999,57.0,63.0
720,84.16666383541667,84.64975436875,45.0,99.0
721,84.68426083541667,84.95599926041666,40.0,89.0
722,84.94305933541666,84.99697568958334,60.0,96.0
723,84.94305933541666,85.00021067083333,57.0,90.0
724,84.94305933541666,85.00991561458333,64.0,90.0
725,84.94305933541666,85.01315059583334,45.0,92.0
726,85.46065633541666,85.51025938125,67.0,77.0
727,85.46065633541666,85.5134943625,64.0,86.0
728,85.46065633541666,85.52966926875,59.0,86.0
729,85.20185783541666,85.5911339125,40.0,97.0
730,85.59005558541666,85.64505026666666,67.0,58.0
731,85.59005558541666,85.6558335375,59.0,59.0
732,85.59005558541666,85.6558335375,64.0,67.0
733,85.59005558541666,85.66338182708333,52.0,62.0
734,85.97825333541667,86.02893470833334,67.0,92.0
735,85.97825333541667,86.03324801666666,64.0,100.0
736,85.97825333541667,86.03971797916667,59.0,95.0
737,85.97825333541667,86.04295296041667,52.0,92.0
738,85.71945483541667,86.07422444583334,35.0,96.0
739,86.49585033541666,86.5422184,62.0,81.0
740,86.49585033541666,86.54545338125,57.0,86.0
741,86.49585033541666,86.54545338125,65.0,71.0
742,86.49585033541666,86.55731497916666,50.0,81.0
743,86.23705183541666,86.62309293125,38.0,85.0
744,86.62524958541667,86.68887088333334,57.0,63.0
745,86.62524958541667,86.6974975,62.0,86.0
746,86.62524958541667,86.70288913541667,65.0,81.0
747,86.62524958541667,86.70828077083333,50.0,75.0
748,87.01344733541667,87.06197205416666,57.0,89.0
749,87.01344733541667,87.06197205416666,65.0,83.0
750,87.01344733541667,87.07167699791667,50.0,92.0
751,87.01344733541667,87.07167699791667,62.0,97.0
752,86.75464883541666,87.09108688541666,33.0,83.0
753,87.53104433541667,87.5774124,64.0,90.0
754,87.53104433541667,87.58496068958333,69.0,93.0
755,87.53104433541667,87.59897894166666,72.0,95.0
756,87.53104433541667,87.60113559583333,57.0,86.0
757,87.27224583541667,87.60868388541667,45.0,99.0
758,87.66044358541666,87.7262215375,69.0,71.0
759,87.66044358541666,87.72837819166666,64.0,71.0
760,87.66044358541666,87.74023978958333,72.0,74.0
761,87.66044358541666,87.74670975208333,57.0,92.0
762,88.04864133541666,88.09716605416666,64.0,86.0
763,88.04864133541666,88.09932270833333,69.0,96.0
764,88.04864133541666,88.11549761458333,72.0,96.0
765,88.04864133541666,88.11981092291667,57.0,90.0
766,87.78984283541666,88.16186567916667,40.0,96.0
767,88.56623833541667,88.60829309166667,64.0,88.0
768,88.56623833541667,88.60937141875,57.0,63.0
769,88.56623833541667,88.60937141875,69.0,88.0
770,88.56623833541667,88.6190763625,72.0,92.0
771,88.30743983541666,88.651426175,45.0,99.0
772,88.69563758541666,88.75278892083332,69.0,85.0
773,88.69563758541666,88.75818055625,72.0,75.0
774,88.69563758541666,88.76572884583334,64.0,74.0
775,88.69563758541666,88.780825425,57.0,77.0
776,88.82503683541667,89.07952202708333,40.0,85.0
777,89.08383533541667,89.12589009166666,64.0,71.0
778,89.08383533541667,89.1302034,69.0,85.0
779,89.08383533541667,89.13990834375,72.0,79.0
780,89.08383533541667,89.1496132875,57.0,100.0
781,89.08383533541667,89.25744599583334,43.0,90.0
782,89.34263383541666,89.73945820208333,45.0,69.0
783,89.73083158541667,89.81278444375,57.0,71.0
784,89.73083158541667,89.81709775208333,52.0,66.0
785,89.73083158541667,89.83111600416666,60.0,68.0
786,89.86023083541666,90.1589274375,40.0,60.0
787,90.11902933541667,90.178337325,57.0,88.0
788,90.11902933541667,90.18804226875,52.0,86.0
789,90.11902933541667,90.19451223125,60.0,79.0
790,90.37782783541667,90.76710391249999,45.0,61.0
791,90.76602558541667,90.82964688333333,52.0,59.0
792,90.76602558541667,90.83396019166666,57.0,71.0
793,90.76602558541667,90.84474346249999,60.0,71.0
794,91.15422333541666,91.21784463333333,52.0,77.0
795,90.89542483541666,91.21892296041666,40.0,61.0
796,91.15422333541666,91.22107961458333,57.0,89.0
797,91.15422333541666,91.23509786666666,60.0,81.0
798,91.41302183541667,91.86591921041666,45.0,52.0
799,91.80121958541666,91.87023251875,52.0,72.0
800,91.80121958541666,91.87023251875,57.0,74.0
801,91.80121958541666,91.89826902291666,60.0,74.0
802,91.93061883541667,92.22176714791667,40.0,66.0
803,92.18941733541666,92.24656867083333,52.0,68.0
804,92.18941733541666,92.24764699791666,57.0,77.0
805,92.18941733541666,92.27029186666667,60.0,75.0
806,92.83641358541666,92.90434819166667,57.0,72.0
807,92.83641358541666,92.9151314625,52.0,67.0
808,92.83641358541666,92.92267975208333,60.0,72.0
809,92.44821583541666,92.95071625625,45.0,42.0
810,93.22461133541667,93.27852768958333,60.0,68.0
811,93.22461133541667,93.28931096041667,57.0,73.0
812,93.22461133541667,93.31195582916666,52.0,64.0
813,92.96581283541667,93.32705240833333,40.0,63.0
814,93.48340983541667,93.65378551458333,57.0,85.0
815,93.48340983541667,93.65809882291667,52.0,72.0
816,93.48340983541667,93.66780376666667,60.0,78.0
817,93.48340983541667,93.69152696249999,45.0,62.0
818,94.27058860625,94.396752875,62.0,66.0
819,94.267353625,94.39998785625,55.0,61.0
820,94.27274526041667,94.4420426125,59.0,71.0
821,94.25657035416667,94.44635592083333,43.0,88.0
822,94.51429052708333,94.72348598125,57.0,73.0
823,94.5196821625,94.72564263541666,64.0,72.0
824,94.51105554583333,94.72779928958333,45.0,58.0
825,94.5132122,94.73211259791667,60.0,72.0
826,95.302547625,95.42979022083333,55.0,68.0
827,95.31009591458333,95.44273014583334,62.0,64.0
828,95.30578260624999,95.47184497708334,59.0,72.0
829,95.27774610208333,95.47507995833332,43.0,93.0
830,95.561346125,95.79534310208334,64.0,70.0
831,95.55811114375,95.79749975624999,57.0,69.0
832,95.54085791041666,95.79965641041666,45.0,73.0
833,95.55164118124999,95.80181306458333,60.0,71.0
834,97.62418583541667,97.95738890416666,45.0,89.0
835,98.01238358541667,98.07600488333333,52.0,77.0
836,98.01238358541667,98.08678815416667,57.0,81.0
837,98.01238358541667,98.09325811666666,60.0,71.0
838,98.14178283541666,98.39950300833333,40.0,68.0
839,98.40058133541666,98.46959426875,52.0,78.0
840,98.40058133541666,98.47714255833333,57.0,93.0
841,98.40058133541666,98.48361252083333,60.0,78.0
842,98.65937983541666,99.08208405208333,45.0,66.0
843,99.04757758541666,99.12737378958333,52.0,79.0
844,99.04757758541666,99.132765425,57.0,85.0
845,99.04757758541666,99.14678367708333,60.0,78.0
846,99.17697683541667,99.36244909375,40.0,64.0
847,99.43577533541666,99.50694492291666,52.0,73.0
848,99.43577533541666,99.50694492291666,57.0,83.0
849,99.43577533541666,99.51880652083334,60.0,76.0
850,99.69457383541666,100.09571151041666,45.0,66.0
851,100.08277158541667,100.14962786458334,52.0,66.0
852,100.08277158541667,100.15394117291666,57.0,78.0
853,100.08277158541667,100.16256778958333,60.0,74.0
854,100.21217083541667,100.43538454166666,40.0,61.0
855,100.47096933541667,100.53459063333334,52.0,59.0
856,100.47096933541667,100.54753055833334,57.0,75.0
857,100.47096933541667,100.556157175,60.0,67.0
858,100.72976783541667,101.15355037916666,45.0,54.0
859,101.11796558541667,101.18266521041666,60.0,75.0
860,101.11796558541667,101.18913517291666,57.0,81.0
861,101.11796558541667,101.19344848125,52.0,72.0
862,101.50616333541666,101.56654965208332,52.0,56.0
863,101.50616333541666,101.5848812125,57.0,76.0
864,101.50616333541666,101.59458615625,60.0,73.0
865,101.24736483541666,101.59889946458333,40.0,63.0
866,101.76496183541667,102.17256947291666,45.0,61.0
867,102.15315958541666,102.22217251875,52.0,59.0
868,102.15315958541666,102.22756415416666,60.0,69.0
869,102.15315958541666,102.2318774625,57.0,79.0
870,102.54135733541666,102.59635201666667,52.0,78.0
871,102.28255883541667,102.59958699791666,40.0,65.0
872,102.54135733541666,102.6200752125,57.0,89.0
873,102.54135733541666,102.62115353958333,60.0,79.0
874,102.80015583541666,103.17433533333333,38.0,72.0
875,103.18835358541666,103.22609503333334,62.0,74.0
876,103.18835358541666,103.24658324791666,57.0,72.0
877,103.18835358541666,103.24658324791666,65.0,72.0
878,103.31775283541667,103.53449657916667,36.0,89.0
879,103.31775283541667,103.53449657916667,48.0,89.0
880,103.53449657916667,103.61860609166666,62.0,77.0
881,103.53665323333333,103.62184107291667,57.0,75.0
882,103.53988821458333,103.62399772708334,65.0,72.0
883,103.57655133541667,103.86446466666666,38.0,73.0
884,103.57655133541667,103.86446466666666,50.0,73.0
885,103.83534983541666,104.23433085625,45.0,73.0
886,104.22354758541667,104.30657877083333,52.0,65.0
887,104.22354758541667,104.31412706041667,57.0,77.0
888,104.22354758541667,104.32598865833333,60.0,72.0
889,104.35294683541666,104.62360693333333,40.0,71.0
890,104.61174533541666,104.6775232875,52.0,75.0
891,104.61174533541666,104.6775232875,57.0,88.0
892,104.61174533541666,104.68938488541666,60.0,79.0
893,104.87054383541667,105.29432637916666,45.0,60.0
894,105.25874158541666,105.32991117291667,57.0,73.0
895,105.25874158541666,105.33961611666666,52.0,70.0
896,105.25874158541666,105.34608607916667,60.0,73.0
897,105.38814083541666,105.65556595208334,40.0,71.0
898,105.64693933541666,105.71810892291667,52.0,72.0
899,105.64693933541666,105.72242223125,57.0,81.0
900,105.64693933541666,105.73104884791667,60.0,74.0
901,105.90573783541666,106.33599034166666,45.0,73.0
902,106.29393558541666,106.36834015416666,52.0,58.0
903,106.29393558541666,106.37481011666667,57.0,70.0
904,106.29393558541666,106.38451506041666,60.0,69.0
905,106.42333483541667,106.70801318541666,40.0,63.0
906,106.68213333541667,106.75222459583333,57.0,81.0
907,106.68213333541667,106.75869455833333,52.0,71.0
908,106.68213333541667,106.76408619375,60.0,73.0
909,106.94093183541666,107.362557725,45.0,59.0
910,107.32912958541667,107.3949075375,52.0,49.0
911,107.32912958541667,107.3949075375,57.0,72.0
912,107.32912958541667,107.41000411666667,60.0,72.0
913,107.71732733541667,107.78849692291666,52.0,67.0
914,107.71732733541667,107.79281023125,57.0,74.0
915,107.71732733541667,107.80143684791666,60.0,68.0
916,107.45852883541666,107.86290149166666,40.0,67.0
917,107.97612583541667,108.43549317291667,45.0,59.0
918,108.36432358541667,108.43549317291667,52.0,58.0
919,108.36432358541667,108.449511425,57.0,78.0
920,108.36432358541667,108.46245135,60.0,71.0
921,108.75252133541666,108.81506430625,57.0,82.0
922,108.75252133541666,108.81722096041666,52.0,70.0
923,108.75252133541666,108.82692590416666,60.0,74.0
924,108.49372283541666,108.8700589875,40.0,63.0
925,109.39951758541666,109.47284382708332,52.0,68.0
926,109.01131983541666,109.47715713541666,45.0,64.0
927,109.39951758541666,109.4782354625,57.0,79.0
928,109.39951758541666,109.48794040625,60.0,70.0
929,109.78771533541666,109.83731838125,52.0,79.0
930,109.78771533541666,109.85133663333333,57.0,92.0
931,109.78771533541666,109.85133663333333,60.0,79.0
932,109.52891683541667,109.89554804375,40.0,61.0
933,110.04651383541666,110.43039827708333,45.0,100.0
934,110.43471158541666,110.51450778958333,52.0,78.0
935,110.43471158541666,110.52421273333333,57.0,86.0
936,110.43471158541666,110.52960436875,60.0,76.0
937,110.56411083541667,110.8498675125,40.0,82.0
938,110.82290933541667,110.89515725,52.0,67.0
939,110.82290933541667,110.9016272125,57.0,88.0
940,110.82290933541667,110.908097175,60.0,78.0
941,111.08170783541667,111.47853220208333,45.0,88.0
942,111.46990558541667,111.5486234625,52.0,75.0
943,111.46990558541667,111.5486234625,57.0,82.0
944,111.46990558541667,111.55725007916666,60.0,75.0
945,111.59930483541666,111.87643489583333,40.0,71.0
946,111.85810333541666,111.9238812875,52.0,75.0
947,111.85810333541666,111.93574288541666,57.0,73.0
948,111.85810333541666,111.95083946458332,60.0,73.0
949,112.11690183541667,112.57626917291667,45.0,77.0
950,112.50509958541666,112.58489578958333,57.0,79.0
951,112.50509958541666,112.59244407916667,52.0,67.0
952,112.50509958541666,112.59244407916667,60.0,70.0
953,112.63449883541666,112.92780380208333,40.0,69.0
954,112.89329733541666,112.95799696041666,52.0,74.0
955,112.89329733541666,112.95799696041666,57.0,83.0
956,112.89329733541666,112.97093688541666,60.0,81.0
957,113.15209583541666,113.62332477083334,50.0,65.0
958,113.54029358541666,113.62332477083334,65.0,75.0
959,113.54029358541666,113.62871640624999,62.0,90.0
960,113.54029358541666,113.62979473333333,57.0,66.0
961,113.92849133541667,114.01152252083332,57.0,81.0
962,113.92849133541667,114.013679175,62.0,89.0
963,113.92849133541667,114.01907081041666,65.0,81.0
964,113.66969283541667,114.04279400624999,45.0,73.0
965,114.18728983541666,114.57440925833333,45.0,81.0
966,114.57548758541667,114.66283207916666,52.0,70.0
967,114.57548758541667,114.66391040625,57.0,82.0
968,114.57548758541667,114.6800853125,60.0,73.0
969,114.96368533541667,115.03485492291667,57.0,83.0
970,114.96368533541667,115.04024655833334,52.0,74.0
971,114.96368533541667,115.04348153958333,60.0,76.0
972,114.70488683541666,115.07798800625,40.0,42.0
973,115.22248383541667,115.66136295833333,45.0,60.0
974,115.61068158541666,115.69694775208333,57.0,73.0
975,115.61068158541666,115.7023393875,52.0,65.0
976,115.61068158541666,115.71204433125,60.0,72.0
977,115.74008083541666,116.04848238125,40.0,70.0
978,115.99887933541666,116.07220557708332,57.0,81.0
979,115.99887933541666,116.07436223124999,52.0,72.0
980,115.99887933541666,116.07651888541666,60.0,68.0
981,116.25767783541666,116.71704517291667,45.0,71.0
982,116.64587558541666,116.71704517291667,57.0,75.0
983,116.64587558541666,116.72135848125,52.0,60.0
984,116.64587558541666,116.74184669583333,60.0,70.0
985,117.03407333541666,117.10847790416666,52.0,69.0
986,117.03407333541666,117.11063455833333,57.0,77.0
987,116.77527483541667,117.12033950208333,40.0,71.0
988,117.03407333541666,117.1257311375,60.0,72.0
989,117.29287183541666,117.71341939791667,45.0,69.0
990,117.68106958541667,117.76733575208333,52.0,64.0
991,117.68106958541667,117.76733575208333,57.0,74.0
992,117.68106958541667,117.77704069583334,60.0,72.0
993,117.81046883541666,118.076815625,40.0,66.0
994,118.06926733541667,118.13288863333334,52.0,75.0
995,118.06926733541667,118.14367190416667,57.0,86.0
996,118.06926733541667,118.14367190416667,60.0,75.0
997,118.32806583541667,118.75184837916666,45.0,68.0
998,118.71626358541667,118.79066815416667,52.0,63.0
999,118.71626358541667,118.79713811666666,57.0,77.0
1000,118.71626358541667,118.80468640625,60.0,72.0
1001,118.84566283541666,119.16161267083334,40.0,59.0
1002,119.10446133541666,119.17239594166666,52.0,72.0
1003,119.10446133541666,119.17886590416667,57.0,85.0
1004,119.10446133541666,119.189649175,60.0,76.0
1005,119.36325983541667,119.78596405208333,45.0,70.0
1006,119.75145758541666,119.81939219166667,52.0,67.0
1007,119.75145758541666,119.82478382708334,57.0,81.0
1008,119.75145758541666,119.83233211666666,60.0,72.0
1009,119.88085683541667,120.18386674583333,40.0,66.0
1010,120.13965533541666,120.20111997916666,52.0,72.0
1011,120.13965533541666,120.21513823125,57.0,79.0
1012,120.13965533541666,120.22052986666667,60.0,71.0
1013,120.39845383541666,120.81792307083333,45.0,85.0
1014,120.78665158541666,120.86644778958333,52.0,64.0
1015,120.78665158541666,120.87183942499999,60.0,71.0
1016,120.78665158541666,120.87723106041666,57.0,82.0
1017,121.17484933541667,121.24817557708333,57.0,88.0
1018,121.17484933541667,121.24817557708333,60.0,88.0
1019,120.91605083541667,121.2665071375,40.0,76.0
1020,121.43364783541666,121.89840680833333,50.0,90.0
1021,121.82184558541667,121.90919007916666,62.0,86.0
1022,121.82184558541667,121.91026840625,65.0,77.0
1023,121.82184558541667,121.91781669583332,57.0,74.0
1024,122.21004333541666,122.27905626875,57.0,82.0
1025,122.21004333541666,122.28876121249999,65.0,85.0
1026,122.21004333541666,122.28983953958333,62.0,93.0
1027,121.95124483541666,122.30601444583333,45.0,72.0
1028,122.85703958541666,122.94114909791666,62.0,83.0
1029,122.85703958541666,122.94438407916667,65.0,78.0
1030,122.85703958541666,122.94869738749999,57.0,72.0
1031,122.46884183541667,123.0004570875,50.0,69.0
1032,122.98643883541666,123.30885863333333,45.0,92.0
1033,123.24523733541666,123.3110152875,65.0,73.0
1034,123.24523733541666,123.32503353958333,62.0,85.0
1035,123.24523733541666,123.32934684791667,57.0,75.0
1036,123.50403583541666,123.89115525833333,40.0,82.0
1037,123.89223358541666,123.96448149999999,55.0,71.0
1038,123.89223358541666,123.96771648125,52.0,64.0
1039,123.89223358541666,123.99359633125,59.0,72.0
1040,124.02163283541667,124.33003438125,47.0,83.0
1041,124.28043133541667,124.33758267083333,52.0,75.0
1042,124.28043133541667,124.34836594166666,55.0,90.0
1043,124.28043133541667,124.36993248333333,59.0,88.0
1044,124.53922983541666,124.88645115624999,45.0,92.0
1045,124.92742758541667,125.00075382708333,52.0,72.0
1046,124.92742758541667,125.00722378958334,57.0,86.0
1047,124.92742758541667,125.01692873333333,60.0,73.0
1048,125.05682683541666,125.37169834375,40.0,77.0
1049,125.31562533541667,125.38140328749999,52.0,77.0
1050,125.31562533541667,125.38463826875,57.0,95.0
1051,125.31562533541667,125.39434321249999,60.0,82.0
1052,125.57442383541667,126.00791132291667,45.0,58.0
1053,125.96262158541667,126.0283995375,52.0,45.0
1054,125.96262158541667,126.04349611666666,57.0,71.0
1055,125.96262158541667,126.05859269583333,60.0,69.0
1056,126.09202083541666,126.36807256875,40.0,78.0
1057,126.35081933541666,126.40473568958333,52.0,65.0
1058,126.35081933541666,126.42306725,57.0,89.0
1059,126.35081933541666,126.42845888541666,60.0,77.0
1060,126.86841633541667,126.91909770833333,62.0,83.0
1061,126.86841633541667,126.92341101666666,65.0,71.0
1062,126.86841633541667,126.93850759583333,57.0,79.0
1063,126.86841633541667,126.95468250208333,50.0,54.0
1064,126.60961783541666,126.9600741375,38.0,93.0
1065,126.99781558541666,127.07222015416666,62.0,78.0
1066,126.99781558541666,127.07545513541666,57.0,71.0
1067,126.99781558541666,127.07869011666666,50.0,82.0
1068,126.99781558541666,127.07869011666666,65.0,75.0
1069,127.12721483541667,127.44316467083333,33.0,75.0
1070,127.38601333541666,127.44424299791666,62.0,93.0
1071,127.38601333541666,127.44747797916666,57.0,82.0
1072,127.38601333541666,127.45610459583332,65.0,85.0
1073,127.38601333541666,127.46365288541666,50.0,89.0
1074,127.90361033541666,127.94890007291666,62.0,93.0
1075,127.90361033541666,127.9564483625,57.0,92.0
1076,127.90361033541666,127.95968334375,65.0,86.0
1077,127.90361033541666,127.9693882875,50.0,74.0
1078,127.64481183541666,128.00605140833332,38.0,76.0
1079,128.03300958541666,128.10849248125,62.0,68.0
1080,128.03300958541666,128.11604077083334,57.0,61.0
1081,128.03300958541666,128.11711909791666,65.0,69.0
1082,128.03300958541666,128.11927575208333,50.0,71.0
1083,128.42120733541665,128.47943699791665,62.0,88.0
1084,128.42120733541665,128.48159365208332,65.0,78.0
1085,128.42120733541665,128.49237692291666,57.0,85.0
1086,128.42120733541665,128.50208186666666,50.0,83.0
1087,128.16240883541667,128.54090164166666,33.0,79.0
1088,128.93880433541668,128.98409407291666,67.0,79.0
1089,128.93880433541668,128.9916423625,64.0,93.0
1090,128.93880433541668,128.99703399791667,59.0,92.0
1091,128.93880433541668,129.00350396041665,52.0,71.0
1092,128.68000583541667,129.05526366041667,40.0,89.0
1093,129.06820358541665,129.11780663125,67.0,65.0
1094,129.06820358541665,129.12966822916667,59.0,68.0
1095,129.06820358541665,129.13505986458333,64.0,72.0
1096,129.06820358541665,129.14584313541667,52.0,76.0
1097,129.45640133541667,129.4962994375,67.0,78.0
1098,129.45640133541667,129.5027694,59.0,75.0
1099,129.45640133541667,129.50600438125,64.0,88.0
1100,129.45640133541667,129.52110096041667,52.0,96.0
1101,129.19760283541666,129.55560742708332,35.0,73.0
1102,129.97399833541667,130.01497476458334,67.0,88.0
1103,129.97399833541667,130.01928807291665,59.0,90.0
1104,129.97399833541667,130.02575803541666,64.0,95.0
1105,129.97399833541667,130.04624625,52.0,92.0
1106,129.71519983541666,130.15947059375,40.0,81.0
1107,130.10339758541667,130.17133219166666,67.0,78.0
1108,130.10339758541667,130.17672382708332,59.0,79.0
1109,130.10339758541667,130.17672382708332,64.0,83.0
1110,130.10339758541667,130.18427211666668,52.0,81.0
1111,130.23279683541665,130.52394514791666,35.0,78.0
1112,130.49159533541666,130.53904172708334,67.0,86.0
1113,130.49159533541666,130.55413830625,59.0,86.0
1114,130.49159533541666,130.55521663333332,52.0,93.0
1115,130.49159533541666,130.55629496041666,64.0,95.0
1116,130.49159533541666,130.61883793125,40.0,79.0
1117,131.00919233541666,131.04693378333334,64.0,78.0
1118,131.00919233541666,131.04909043749998,60.0,95.0
1119,131.00919233541666,131.05340374583332,57.0,92.0
1120,130.75039383541667,131.13751325833334,45.0,97.0
1121,131.13859158541666,131.20113455625,60.0,63.0
1122,131.13859158541666,131.20329121041667,57.0,53.0
1123,131.13859158541666,131.21191782708334,64.0,68.0
1124,131.52678933541665,131.57315739999999,60.0,92.0
1125,131.52678933541665,131.57423572708333,57.0,85.0
1126,131.52678933541665,131.58286234375,64.0,89.0
1127,131.52678933541665,131.60119390416665,45.0,96.0
1128,131.26799083541667,131.64971862291665,40.0,83.0
1129,132.04438633541668,132.0842844375,57.0,95.0
1130,132.04438633541668,132.0842844375,60.0,95.0
1131,132.04438633541668,132.0972243625,64.0,93.0
1132,132.17378558541665,132.25358178958334,60.0,75.0
1133,132.17378558541665,132.25358178958334,64.0,67.0
1134,132.17378558541665,132.2654433875,57.0,63.0
1135,131.78558783541666,132.26867836875,45.0,99.0
1136,132.30318483541666,132.57492326041665,40.0,89.0
1137,132.56198333541667,132.61589968958333,60.0,96.0
1138,132.56198333541667,132.61913467083332,57.0,90.0
1139,132.56198333541667,132.62883961458334,64.0,90.0
1140,132.56198333541667,132.63207459583333,45.0,92.0
1141,133.07958033541667,133.12918338125,67.0,77.0
1142,133.07958033541667,133.1324183625,64.0,86.0
1143,133.07958033541667,133.14859326875,59.0,86.0
1144,132.82078183541665,133.2100579125,40.0,97.0
1145,133.20897958541667,133.26397426666665,67.0,58.0
1146,133.20897958541667,133.2747575375,59.0,59.0
1147,133.20897958541667,133.2747575375,64.0,67.0
1148,133.20897958541667,133.28230582708332,52.0,62.0
1149,133.59717733541666,133.64785870833333,67.0,92.0
1150,133.59717733541666,133.65217201666667,64.0,100.0
1151,133.59717733541666,133.65864197916667,59.0,95.0
1152,133.59717733541666,133.66187696041666,52.0,92.0
1153,133.33837883541668,133.69314844583334,35.0,96.0
1154,134.11477433541666,134.1611424,62.0,81.0
1155,134.11477433541666,134.16437738125,57.0,86.0
1156,134.11477433541666,134.16437738125,65.0,71.0
1157,134.11477433541666,134.17623897916667,50.0,81.0
1158,133.85597583541667,134.24201693125,38.0,85.0
1159,134.24417358541666,134.30779488333334,57.0,63.0
1160,134.24417358541666,134.3164215,62.0,86.0
1161,134.24417358541666,134.32181313541668,65.0,81.0
1162,134.24417358541666,134.32720477083333,50.0,75.0
1163,134.63237133541665,134.68089605416665,57.0,89.0
1164,134.63237133541665,134.68089605416665,65.0,83.0
1165,134.63237133541665,134.69060099791668,50.0,92.0
1166,134.63237133541665,134.69060099791668,62.0,97.0
1167,134.37357283541667,134.71001088541666,33.0,83.0
1168,135.14996833541667,135.1963364,64.0,90.0
1169,135.14996833541667,135.20388468958333,69.0,93.0
1170,135.14996833541667,135.21790294166667,72.0,95.0
1171,135.14996833541667,135.22005959583333,57.0,86.0
1172,134.89116983541666,135.22760788541666,45.0,99.0
1173,135.27936758541665,135.3451455375,69.0,71.0
1174,135.27936758541665,135.34730219166667,64.0,71.0
1175,135.27936758541665,135.35916378958333,72.0,74.0
1176,135.27936758541665,135.36563375208334,57.0,92.0
1177,135.66756533541667,135.71609005416667,64.0,86.0
1178,135.66756533541667,135.71824670833334,69.0,96.0
1179,135.66756533541667,135.73442161458334,72.0,96.0
1180,135.66756533541667,135.73873492291668,57.0,90.0
1181,135.40876683541666,135.78078967916667,40.0,96.0
1182,136.18516233541666,136.22721709166666,64.0,88.0
1183,136.18516233541666,136.22829541875,57.0,63.0
1184,136.18516233541666,136.22829541875,69.0,88.0
1185,136.18516233541666,136.2380003625,72.0,92.0
1186,135.92636383541665,136.270350175,45.0,99.0
1187,136.31456158541667,136.37171292083332,69.0,85.0
1188,136.31456158541667,136.37710455625,72.0,75.0
1189,136.31456158541667,136.38465284583333,64.0,74.0
1190,136.31456158541667,136.399749425,57.0,77.0
1191,136.44396083541668,136.69844602708332,40.0,85.0
1192,136.70275933541666,136.74481409166665,64.0,71.0
1193,136.70275933541666,136.7491274,69.0,85.0
1194,136.70275933541666,136.75883234375,72.0,79.0
1195,136.70275933541666,136.7685372875,57.0,100.0
1196,136.70275933541666,136.87636999583333,43.0,90.0
1197,136.96155783541667,137.29476090416665,45.0,89.0
1198,137.34975558541666,137.41337688333334,52.0,77.0
1199,137.34975558541666,137.42416015416666,57.0,81.0
1200,137.34975558541666,137.43063011666666,60.0,71.0
1201,137.47915483541667,137.73687500833333,40.0,68.0
1202,137.73795333541668,137.80696626875,52.0,78.0
1203,137.73795333541668,137.81451455833334,57.0,93.0
1204,137.73795333541668,137.82098452083332,60.0,78.0
1205,137.99675183541666,138.41945605208332,45.0,66.0
1206,138.38494958541668,138.46474578958333,52.0,79.0
1207,138.38494958541668,138.470137425,57.0,85.0
1208,138.38494958541668,138.48415567708332,60.0,78.0
1209,138.51434883541665,138.69982109375,40.0,64.0
1210,138.77314733541667,138.84431692291668,52.0,73.0
1211,138.77314733541667,138.84431692291668,57.0,83.0
1212,138.77314733541667,138.85617852083334,60.0,76.0
1213,139.03194583541665,139.43308351041665,45.0,66.0
1214,139.42014358541667,139.48699986458334,52.0,66.0
1215,139.42014358541667,139.49131317291668,57.0,78.0
1216,139.42014358541667,139.49993978958332,60.0,74.0
1217,139.54954283541667,139.77275654166667,40.0,61.0
1218,139.80834133541666,139.87196263333334,52.0,59.0
1219,139.80834133541666,139.88490255833332,57.0,75.0
1220,139.80834133541666,139.893529175,60.0,67.0
1221,140.06713983541667,140.49092237916668,45.0,54.0
1222,140.45533758541666,140.52003721041666,60.0,75.0
1223,140.45533758541666,140.52650717291667,57.0,81.0
1224,140.45533758541666,140.53082048125,52.0,72.0
1225,140.84353533541668,140.90392165208334,52.0,56.0
1226,140.84353533541668,140.9222532125,57.0,76.0
1227,140.84353533541668,140.93195815625,60.0,73.0
1228,140.58473683541666,140.93627146458334,40.0,63.0
1229,141.10233383541666,141.50994147291667,45.0,61.0
1230,141.49053158541668,141.55954451875,52.0,59.0
1231,141.49053158541668,141.56493615416667,60.0,69.0
1232,141.49053158541668,141.56924946249998,57.0,79.0
1233,141.87872933541666,141.93372401666667,52.0,78.0
1234,141.61993083541665,141.93695899791666,40.0,65.0
1235,141.87872933541666,141.9574472125,57.0,89.0
1236,141.87872933541666,141.95852553958332,60.0,79.0
1237,142.13752783541668,142.51170733333333,38.0,72.0
1238,142.52572558541667,142.56346703333332,62.0,74.0
1239,142.52572558541667,142.58395524791666,57.0,72.0
1240,142.52572558541667,142.58395524791666,65.0,72.0
1241,142.65512483541667,142.84275374791667,36.0,89.0
1242,142.65512483541667,142.87186857916666,48.0,89.0
1243,142.87186857916666,142.95597809166665,62.0,77.0
1244,142.87402523333333,142.95921307291667,57.0,75.0
1245,142.87726021458332,142.96136972708334,65.0,72.0
1246,142.91392333541665,143.17272183541667,38.0,73.0
1247,142.91392333541665,143.17272183541667,50.0,73.0
1248,143.17272183541667,143.49190665208334,45.0,55.0
1249,143.56091958541666,143.64395077083333,52.0,65.0
1250,143.56091958541666,143.65149906041665,57.0,77.0
1251,143.56091958541666,143.66336065833332,60.0,72.0
1252,143.69031883541666,143.96097893333334,40.0,71.0
1253,143.94911733541667,144.0148952875,52.0,75.0
1254,143.94911733541667,144.0148952875,57.0,88.0
1255,143.94911733541667,144.02675688541666,60.0,79.0
1256,144.20791583541666,144.63169837916666,45.0,60.0
1257,144.59611358541667,144.66728317291665,57.0,73.0
1258,144.59611358541667,144.67698811666665,52.0,70.0
1259,144.59611358541667,144.68345807916666,60.0,73.0
1260,144.72551283541665,144.99293795208334,40.0,71.0
1261,144.98431133541666,145.05548092291667,52.0,72.0
1262,144.98431133541666,145.05979423125,57.0,81.0
1263,144.98431133541666,145.06842084791666,60.0,74.0
1264,145.24310983541667,145.67336234166666,45.0,73.0
1265,145.63130758541666,145.70571215416666,52.0,58.0
1266,145.63130758541666,145.71218211666667,57.0,70.0
1267,145.63130758541666,145.72188706041666,60.0,69.0
1268,145.76070683541667,146.04538518541668,40.0,63.0
1269,146.01950533541665,146.08959659583334,57.0,81.0
1270,146.01950533541665,146.09606655833332,52.0,71.0
1271,146.01950533541665,146.10145819375,60.0,73.0
1272,146.27830383541666,146.699929725,45.0,59.0
1273,146.66650158541665,146.7322795375,52.0,49.0
1274,146.66650158541665,146.7322795375,57.0,72.0
1275,146.66650158541665,146.74737611666666,60.0,72.0
1276,147.05469933541667,147.12586892291665,52.0,67.0
1277,147.05469933541667,147.13018223125,57.0,74.0
1278,147.05469933541667,147.13880884791666,60.0,68.0
1279,146.79590083541666,147.20027349166665,40.0,67.0
1280,147.31349783541665,147.77286517291665,45.0,59.0
1281,147.70169558541667,147.77286517291665,52.0,58.0
1282,147.70169558541667,147.78688342499998,57.0,78.0
1283,147.70169558541667,147.79982335,60.0,71.0
1284,148.08989333541666,148.15243630625,57.0,82.0
1285,148.08989333541666,148.15459296041666,52.0,70.0
1286,148.08989333541666,148.16429790416666,60.0,74.0
1287,147.83109483541665,148.2074309875,40.0,63.0
1288,148.73688958541666,148.81021582708334,52.0,68.0
1289,148.34869183541667,148.81452913541668,45.0,64.0
1290,148.73688958541666,148.8156074625,57.0,79.0
1291,148.73688958541666,148.82531240625,60.0,70.0
1292,149.12508733541665,149.17469038125,52.0,79.0
1293,149.12508733541665,149.18870863333333,57.0,92.0
1294,149.12508733541665,149.18870863333333,60.0,79.0
1295,148.86628883541667,149.23292004375,40.0,61.0
1296,149.38388583541666,149.76777027708334,45.0,100.0
1297,149.77208358541665,149.85187978958334,52.0,78.0
1298,149.77208358541665,149.86158473333333,57.0,86.0
1299,149.77208358541665,149.86697636875,60.0,76.0
1300,149.90148283541666,150.18723951249999,40.0,82.0
1301,150.16028133541667,150.23252925,52.0,67.0
1302,150.16028133541667,150.2389992125,57.0,88.0
1303,150.16028133541667,150.24546917499998,60.0,78.0
1304,150.41907983541665,150.81590420208332,45.0,88.0
1305,150.80727758541667,150.8859954625,52.0,75.0
1306,150.80727758541667,150.8859954625,57.0,82.0
1307,150.80727758541667,150.89462207916665,60.0,75.0
1308,150.93667683541668,151.21380689583333,40.0,71.0
1309,151.19547533541666,151.26125328749998,52.0,75.0
1310,151.19547533541666,151.27311488541667,57.0,73.0
1311,151.19547533541666,151.28821146458333,60.0,73.0
1312,151.45427383541667,151.91364117291667,45.0,77.0
1313,151.84247158541666,151.92226778958332,57.0,79.0
1314,151.84247158541666,151.92981607916667,52.0,67.0
1315,151.84247158541666,151.92981607916667,60.0,70.0
1316,151.97187083541667,152.26517580208332,40.0,69.0
1317,152.23066933541665,152.29536896041665,52.0,74.0
1318,152.23066933541665,152.29536896041665,57.0,83.0
1319,152.23066933541665,152.30830888541666,60.0,81.0
1320,152.48946783541666,152.96069677083332,50.0,65.0
1321,152.87766558541665,152.96069677083332,65.0,75.0
1322,152.87766558541665,152.96608840625,62.0,90.0
1323,152.87766558541665,152.96716673333333,57.0,66.0
1324,153.26586333541667,153.34889452083334,57.0,81.0
1325,153.26586333541667,153.351051175,62.0,89.0
1326,153.26586333541667,153.35644281041667,65.0,81.0
1327,153.00706483541666,153.38016600625,45.0,73.0
1328,153.52466183541665,153.91178125833332,45.0,81.0
1329,153.91285958541667,154.00020407916665,52.0,70.0
1330,153.91285958541667,154.00128240625,57.0,82.0
1331,153.91285958541667,154.0174573125,60.0,73.0
1332,154.30105733541666,154.37222692291667,57.0,83.0
1333,154.30105733541666,154.37761855833332,52.0,74.0
1334,154.30105733541666,154.38085353958334,60.0,76.0
1335,154.04225883541667,154.41536000624998,40.0,42.0
1336,154.55985583541667,154.99873495833333,45.0,60.0
1337,154.94805358541666,155.03431975208332,57.0,73.0
1338,154.94805358541666,155.0397113875,52.0,65.0
1339,154.94805358541666,155.04941633125,60.0,72.0
1340,155.07745283541666,155.38585438125,40.0,70.0
1341,155.33625133541668,155.40957757708333,57.0,81.0
1342,155.33625133541668,155.41173423125,52.0,72.0
1343,155.33625133541668,155.41389088541666,60.0,68.0
1344,155.59504983541666,156.05441717291666,45.0,71.0
1345,155.98324758541665,156.05441717291666,57.0,75.0
1346,155.98324758541665,156.05873048125,52.0,60.0
1347,155.98324758541665,156.07921869583333,60.0,70.0
1348,156.37144533541667,156.44584990416666,52.0,69.0
1349,156.37144533541667,156.44800655833333,57.0,77.0
1350,156.11264683541665,156.45771150208333,40.0,71.0
1351,156.37144533541667,156.46310313749998,60.0,72.0
1352,156.63024383541665,157.05079139791667,45.0,69.0
1353,157.01844158541667,157.10470775208333,52.0,64.0
1354,157.01844158541667,157.10470775208333,57.0,74.0
1355,157.01844158541667,157.11441269583332,60.0,72.0
1356,157.14784083541667,157.41418762499998,40.0,66.0
1357,157.40663933541666,157.47026063333334,52.0,75.0
1358,157.40663933541666,157.48104390416665,57.0,86.0
1359,157.40663933541666,157.48104390416665,60.0,75.0
1360,157.66543783541667,158.08922037916668,45.0,68.0
1361,158.05363558541666,158.12804015416665,52.0,63.0
1362,158.05363558541666,158.13451011666666,57.0,77.0
1363,158.05363558541666,158.14205840625,60.0,72.0
1364,158.18303483541666,158.49898467083332,40.0,59.0
1365,158.44183333541667,158.50976794166667,52.0,72.0
1366,158.44183333541667,158.51623790416667,57.0,85.0
1367,158.44183333541667,158.527021175,60.0,76.0
1368,158.70063183541666,159.12333605208332,45.0,70.0
1369,159.08882958541668,159.15676419166667,52.0,67.0
1370,159.08882958541668,159.16215582708332,57.0,81.0
1371,159.08882958541668,159.16970411666665,60.0,72.0
1372,159.21822883541665,159.52123874583333,40.0,66.0
1373,159.47702733541666,159.53849197916665,52.0,72.0
1374,159.47702733541666,159.55251023124998,57.0,79.0
1375,159.47702733541666,159.55790186666667,60.0,71.0
1376,159.73582583541668,160.15529507083332,45.0,85.0
1377,160.12402358541667,160.20381978958332,52.0,64.0
1378,160.12402358541667,160.209211425,60.0,71.0
1379,160.12402358541667,160.21460306041666,57.0,82.0
1380,160.51222133541665,160.58554757708333,57.0,88.0
1381,160.51222133541665,160.58554757708333,60.0,88.0
1382,160.25342283541667,160.6038791375,40.0,76.0
1383,160.77101983541667,161.23577880833332,50.0,90.0
1384,161.15921758541666,161.24656207916667,62.0,86.0
1385,161.15921758541666,161.24764040624999,65.0,77.0
1386,161.15921758541666,161.25518869583334,57.0,74.0
1387,161.54741533541667,161.61642826874998,57.0,82.0
1388,161.54741533541667,161.6261332125,65.0,85.0
1389,161.54741533541667,161.62721153958333,62.0,93.0
1390,161.28861683541666,161.64338644583333,45.0,72.0
1391,162.19441158541667,162.27852109791667,62.0,83.0
1392,162.19441158541667,162.28175607916666,65.0,78.0
1393,162.19441158541667,162.2860693875,57.0,72.0
1394,161.80621383541666,162.33782908749998,50.0,69.0
1395,162.32381083541665,162.64623063333332,45.0,92.0
1396,162.58260933541666,162.6483872875,65.0,73.0
1397,162.58260933541666,162.66240553958332,62.0,85.0
1398,162.58260933541666,162.66671884791666,57.0,75.0
1399,162.84140783541667,163.22852725833332,40.0,82.0
1400,163.22960558541666,163.3018535,55.0,71.0
1401,163.22960558541666,163.30508848125,52.0,64.0
1402,163.22960558541666,163.33096833125,59.0,72.0
1403,163.35900483541667,163.66740638125,47.0,83.0
1404,163.61780333541665,163.67495467083333,52.0,75.0
1405,163.61780333541665,163.68573794166667,55.0,90.0
1406,163.61780333541665,163.70730448333333,59.0,88.0
1407,163.87660183541666,164.22382315625,45.0,92.0
1408,164.26479958541665,164.33812582708333,52.0,72.0
1409,164.26479958541665,164.34459578958334,57.0,86.0
1410,164.26479958541665,164.35430073333333,60.0,73.0
1411,164.39419883541666,164.70907034375,40.0,77.0
1412,164.65299733541667,164.7187752875,52.0,77.0
1413,164.65299733541667,164.72201026874998,57.0,95.0
1414,164.65299733541667,164.7317152125,60.0,82.0
1415,164.91179583541665,165.34528332291666,45.0,58.0
1416,165.29999358541667,165.3657715375,52.0,45.0
1417,165.29999358541667,165.38086811666668,57.0,71.0
1418,165.29999358541667,165.39596469583333,60.0,69.0
1419,165.42939283541665,165.70544456874998,40.0,78.0
1420,165.68819133541666,165.74210768958332,52.0,65.0
1421,165.68819133541666,165.76043925,57.0,89.0
1422,165.68819133541666,165.76583088541668,60.0,77.0
1423,166.20578833541666,166.25646970833333,62.0,83.0
1424,166.20578833541666,166.26078301666666,65.0,71.0
1425,166.20578833541666,166.27587959583332,57.0,79.0
1426,166.20578833541666,166.29205450208332,50.0,54.0
1427,165.94698983541667,166.2974461375,38.0,93.0
1428,166.33518758541666,166.40959215416666,62.0,78.0
1429,166.33518758541666,166.41282713541665,57.0,71.0
1430,166.33518758541666,166.41606211666667,50.0,82.0
1431,166.33518758541666,166.41606211666667,65.0,75.0
1432,166.46458683541667,166.78053667083333,33.0,75.0
1433,166.72338533541665,166.78161499791668,62.0,93.0
1434,166.72338533541665,166.78484997916667,57.0,82.0
1435,166.72338533541665,166.79347659583334,65.0,85.0
1436,166.72338533541665,166.80102488541667,50.0,89.0
1437,167.24098233541667,167.28627207291666,62.0,93.0
1438,167.24098233541667,167.29382036249999,57.0,92.0
1439,167.24098233541667,167.29705534375,65.0,86.0
1440,167.24098233541667,167.3067602875,50.0,74.0
1441,166.98218383541666,167.34342340833334,38.0,76.0
1442,167.37038158541665,167.44586448125,62.0,68.0
1443,167.37038158541665,167.45341277083332,57.0,61.0
1444,167.37038158541665,167.45449109791667,65.0,69.0
1445,167.37038158541665,167.45664775208334,50.0,71.0
1446,167.75857933541667,167.81680899791667,62.0,88.0
1447,167.75857933541667,167.81896565208334,65.0,78.0
1448,167.75857933541667,167.82974892291665,57.0,85.0
1449,167.75857933541667,167.83945386666667,50.0,83.0
1450,167.49978083541666,167.87827364166665,33.0,79.0
1451,168.27617633541666,168.32146607291665,67.0,79.0
1452,168.27617633541666,168.3290143625,64.0,93.0
1453,168.27617633541666,168.33440599791666,59.0,92.0
1454,168.27617633541666,168.34087596041667,52.0,71.0
1455,168.01737783541665,168.39263566041666,40.0,89.0
1456,168.40557558541667,168.45517863125,67.0,65.0
1457,168.40557558541667,168.46704022916666,59.0,68.0
1458,168.40557558541667,168.47243186458334,64.0,72.0
1459,168.40557558541667,168.48321513541666,52.0,76.0
1460,168.79377333541666,168.8336714375,67.0,78.0
1461,168.79377333541666,168.8401414,59.0,75.0
1462,168.79377333541666,168.84337638124998,64.0,88.0
1463,168.79377333541666,168.85847296041666,52.0,96.0
1464,168.53497483541668,168.89297942708333,35.0,73.0
1465,169.31137033541665,169.35234676458333,67.0,88.0
1466,169.31137033541665,169.35666007291667,59.0,90.0
1467,169.31137033541665,169.36313003541667,64.0,95.0
1468,169.31137033541665,169.38361824999998,52.0,92.0
1469,169.05257183541667,169.49684259375,40.0,81.0
1470,169.44076958541666,169.50870419166665,67.0,78.0
1471,169.44076958541666,169.51409582708334,59.0,79.0
1472,169.44076958541666,169.51409582708334,64.0,83.0
1473,169.44076958541666,169.52164411666666,52.0,81.0
1474,169.57016883541667,169.86131714791665,35.0,78.0
1475,169.82896733541665,169.87641372708333,67.0,86.0
1476,169.82896733541665,169.89151030624998,59.0,86.0
1477,169.82896733541665,169.89258863333333,52.0,93.0
1478,169.82896733541665,169.89366696041665,64.0,95.0
1479,169.82896733541665,169.95620993125,40.0,79.0
1480,170.34656433541667,170.38430578333333,64.0,78.0
1481,170.34656433541667,170.3864624375,60.0,95.0
1482,170.34656433541667,170.39077574583334,52.0,92.0
1483,170.34656433541667,170.39077574583334,57.0,92.0
1484,170.08776583541666,170.47488525833333,45.0,97.0
1485,170.47596358541665,170.53850655624998,60.0,63.0
1486,170.47596358541665,170.54066321041665,52.0,53.0
1487,170.47596358541665,170.54066321041665,57.0,53.0
1488,170.47596358541665,170.54928982708333,64.0,68.0
1489,170.86416133541667,170.9105294,60.0,92.0
1490,170.86416133541667,170.91160772708332,52.0,85.0
1491,170.86416133541667,170.91160772708332,57.0,85.0
1492,170.86416133541667,170.92023434375,64.0,89.0
1493,170.60536283541666,170.98709062291667,40.0,83.0
1494,171.38175833541666,171.4216564375,52.0,95.0
1495,171.38175833541666,171.4216564375,57.0,95.0
1496,171.38175833541666,171.4216564375,60.0,95.0
1497,171.38175833541666,171.4345963625,64.0,93.0
1498,171.51115758541667,171.59095378958332,60.0,75.0
1499,171.51115758541667,171.59095378958332,64.0,67.0
1500,171.51115758541667,171.6028153875,52.0,63.0
1501,171.51115758541667,171.6028153875,57.0,63.0
1502,171.12295983541665,171.60605036875,45.0,99.0
1503,171.64055683541667,171.91229526041667,40.0,89.0
1504,171.76995608541665,171.93386180208333,45.0,90.0
1505,171.89935533541666,171.95327168958332,60.0,96.0
1506,171.89935533541666,171.95650667083333,52.0,90.0
1507,171.89935533541666,171.95650667083333,57.0,90.0
1508,171.89935533541666,171.96621161458333,64.0,90.0
1509,172.41695233541665,172.46655538125,67.0,77.0
1510,172.41695233541665,172.4697903625,64.0,86.0
1511,172.41695233541665,172.48596526875,59.0,86.0
1512,172.15815383541667,172.5474299125,40.0,97.0
1513,172.54635158541666,172.60134626666667,67.0,58.0
1514,172.54635158541666,172.61212953749998,59.0,59.0
1515,172.54635158541666,172.61212953749998,64.0,67.0
1516,172.54635158541666,172.61967782708334,52.0,62.0
1517,172.93454933541668,172.98523070833332,67.0,92.0
1518,172.93454933541668,172.98954401666666,64.0,100.0
1519,172.93454933541668,172.99601397916666,59.0,95.0
1520,172.93454933541668,172.99924896041665,52.0,92.0
1521,172.67575083541666,173.03052044583333,35.0,96.0
1522,173.45214633541667,173.4985144,62.0,81.0
1523,173.45214633541667,173.50174938125,57.0,86.0
1524,173.45214633541667,173.50174938125,65.0,71.0
1525,173.45214633541667,173.51361097916666,50.0,81.0
1526,173.19334783541666,173.57938893125,38.0,85.0
1527,173.58154558541665,173.64516688333333,57.0,63.0
1528,173.58154558541665,173.6537935,62.0,86.0
1529,173.58154558541665,173.65918513541666,65.0,81.0
1530,173.58154558541665,173.66457677083332,50.0,75.0
1531,173.96974333541667,174.01826805416667,57.0,89.0
1532,173.96974333541667,174.01826805416667,65.0,83.0
1533,173.96974333541667,174.02797299791666,50.0,92.0
1534,173.96974333541667,174.02797299791666,62.0,97.0
1535,173.71094483541665,174.04738288541665,33.0,83.0
1536,174.48734033541666,174.5337084,64.0,90.0
1537,174.48734033541666,174.54125668958332,69.0,93.0
1538,174.48734033541666,174.55527494166665,72.0,95.0
1539,174.48734033541666,174.55743159583332,52.0,86.0
1540,174.48734033541666,174.55743159583332,57.0,86.0
1541,174.22854183541665,174.56497988541668,45.0,99.0
1542,174.61673958541667,174.6825175375,69.0,71.0
1543,174.61673958541667,174.68467419166666,64.0,71.0
1544,174.61673958541667,174.69653578958332,72.0,74.0
1545,174.61673958541667,174.70300575208333,52.0,92.0
1546,174.61673958541667,174.70300575208333,57.0,92.0
1547,175.00493733541666,175.05346205416666,64.0,86.0
1548,175.00493733541666,175.05561870833333,69.0,96.0
1549,175.00493733541666,175.07179361458333,72.0,96.0
1550,175.00493733541666,175.07610692291667,52.0,90.0
1551,175.00493733541666,175.07610692291667,57.0,90.0
1552,174.74613883541667,175.11816167916666,40.0,96.0
1553,175.52253433541665,175.56458909166668,64.0,88.0
1554,175.52253433541665,175.56566741875,52.0,63.0
1555,175.52253433541665,175.56566741875,57.0,63.0
1556,175.52253433541665,175.56566741875,69.0,88.0
1557,175.52253433541665,175.5753723625,72.0,92.0
1558,175.26373583541667,175.607722175,45.0,99.0
1559,175.65193358541666,175.70908492083333,69.0,85.0
1560,175.65193358541666,175.71447655625,72.0,75.0
1561,175.65193358541666,175.72202484583332,64.0,74.0
1562,175.65193358541666,175.737121425,52.0,77.0
1563,175.65193358541666,175.737121425,57.0,77.0
1564,175.78133283541666,176.03581802708334,40.0,85.0
1565,176.04013133541667,176.08218609166667,64.0,71.0
1566,176.04013133541667,176.0864994,69.0,85.0
1567,176.04013133541667,176.09620434375,72.0,79.0
1568,176.04013133541667,176.1059092875,52.0,100.0
1569,176.04013133541667,176.1059092875,57.0,100.0
1570,176.04013133541667,176.21374199583332,43.0,90.0
1571,176.29892983541666,176.67203100625,45.0,107.0
1572,176.68712758541668,176.77015877083332,64.0,67.0
1573,176.68712758541668,176.77770706041667,69.0,79.0
1574,176.68712758541668,176.77770706041667,72.0,69.0
1575,177.07532533541666,177.12600670833334,72.0,69.0
1576,176.81652683541665,177.14218161458334,40.0,83.0
1577,177.07532533541666,177.15188655833333,69.0,95.0
1578,177.07532533541666,177.16590481041666,64.0,78.0
1579,177.33412383541668,177.77300295833334,40.0,76.0
1580,177.72232158541667,177.79564782708334,67.0,69.0
1581,177.72232158541667,177.8010394625,64.0,81.0
1582,177.72232158541667,177.80427444375,59.0,73.0
1583,178.11051933541665,178.16874899791665,64.0,89.0
1584,178.11051933541665,178.17737561458333,59.0,78.0
1585,178.11051933541665,178.18384557708333,67.0,73.0
1586,177.85172083541667,178.18708055833332,35.0,69.0
1587,178.36931783541667,178.47715054374999,40.0,112.0
1588,178.36931783541667,178.47715054374999,52.0,112.0
1589,178.49871708541667,178.6680144375,38.0,67.0
1590,178.49871708541667,178.6680144375,50.0,67.0
1591,178.62811633541665,178.77476881875,40.0,93.0
1592,178.62811633541665,178.77476881875,52.0,93.0
1593,178.75751558541666,178.91818632083334,43.0,57.0
1594,178.75751558541666,178.91818632083334,55.0,57.0
1595,178.88691483541666,179.0173924125,45.0,102.0
1596,178.88691483541666,179.0173924125,57.0,102.0
1597,179.01631408541667,179.13169508333334,48.0,83.0
1598,179.01631408541667,179.13169508333334,60.0,83.0
1599,179.14571333541667,179.25785935208333,45.0,97.0
1600,179.14571333541667,179.25785935208333,57.0,97.0
1601,179.27511258541665,179.38186696666665,43.0,83.0
1602,179.27511258541665,179.38186696666665,55.0,83.0
1603,179.40451183541666,179.67517193333333,45.0,112.0
1604,179.40451183541666,179.67517193333333,57.0,112.0
1605,180.43970583541667,181.25384278333334,45.0,127.0
1606,180.43970583541667,181.25492111041666,69.0,88.0
1607,180.43970583541667,181.275409325,57.0,93.0
1608,181.47489983541666,182.27717518541667,69.0,90.0
1609,181.47489983541666,182.2911934375,57.0,96.0
1610,181.47489983541666,182.30305503541666,45.0,100.0
1611,182.51009383541665,186.44814434375,45.0,127.0
1612,182.51009383541665,186.4837291375,69.0,89.0
1613,182.51009383541665,186.51823560416665,57.0,96.0
