,start,end,pitch,velocity
0,38.898496266666676,39.16298865,69.0,89.0
1,39.333278266666674,39.710089333333336,71.0,89.0
2,39.76806026666667,40.44559555000001,67.0,92.0
3,40.63762426666667,40.96371076666667,69.0,94.0
4,41.072406266666675,41.42385505000001,71.0,93.0
5,41.507188266666674,42.16660763333334,67.0,95.0
6,42.37675226666667,42.65030260833334,69.0,90.0
7,42.811534266666676,43.132185991666674,71.0,95.0
8,43.246316266666675,43.96551815833334,74.0,100.0
9,44.11588026666667,44.43109721666667,74.0,99.0
10,44.55066226666667,44.84957489166668,76.0,99.0
11,44.985444266666676,45.69921138333334,67.0,93.0
12,45.85500826666667,46.15935566666668,64.0,93.0
13,46.28979026666667,46.56334060833334,67.0,93.0
14,46.72457226666668,47.42746983333334,69.0,93.0
15,47.59413626666667,47.96007778333334,69.0,95.0
16,48.02891826666667,48.44739594166668,67.0,93.0
17,48.46370026666668,49.210076033333344,64.0,93.0
18,49.333264266666674,49.65391599166667,64.0,97.0
19,49.76804626666667,50.07420525833334,67.0,93.0
20,50.20282826666667,50.51442203333334,69.0,94.0
21,50.63761026666668,50.98905905000001,71.0,92.0
22,51.072392266666675,51.403913541666675,69.0,94.0
23,51.507174266666674,51.862246233333344,67.0,89.0
24,51.94195626666667,52.70463635833334,69.0,97.0
25,52.811520266666676,53.11767925833334,71.0,94.0
26,53.246302266666675,53.60862060000001,69.0,93.0
27,53.68108426666667,54.441952766666674,67.0,93.0
28,54.55064826666668,54.845937708333345,69.0,94.0
29,54.985430266666675,55.32057472500001,71.0,95.0
30,55.420212266666674,56.197385091666675,67.0,92.0
31,56.28977626666668,56.58506570833334,69.0,95.0
32,56.724558266666676,57.13941275833334,71.0,94.0
33,57.159340266666675,57.48723835833334,74.0,99.0
34,58.02890426666668,58.326005300000006,74.0,99.0
35,58.46368626666668,58.735425016666674,76.0,95.0
36,58.898468266666676,59.697380191666674,67.0,93.0
37,59.76803226666667,60.094118766666675,64.0,92.0
38,60.20281426666668,60.51803121666668,67.0,90.0
39,60.63759626666668,61.39302999166668,69.0,91.0
40,61.50716026666667,61.82781199166668,69.0,93.0
41,61.94194226666668,62.36404312500001,67.0,89.0
42,62.37672426666668,63.139404358333344,64.0,95.0
43,63.246288266666674,63.55607044166668,62.0,94.0
44,63.68107026666668,64.50534447500002,64.0,94.0
45,64.55063426666668,66.54157350833334,67.0,93.0
46,66.72454426666668,67.03976121666668,71.0,97.0
47,67.15932626666668,67.46367366666668,74.0,102.0
48,67.59410826666668,67.907513625,74.0,100.0
49,68.02889026666668,68.41113610833334,74.0,99.0
50,68.46367226666668,68.75171534166668,74.0,94.0
51,68.89845426666668,69.18287415833335,76.0,94.0
52,69.33323626666667,70.04156860833335,74.0,100.0
53,70.20280026666667,70.48722015833334,76.0,95.0
54,70.63758226666668,70.97091513333335,78.0,99.0
55,71.07236426666668,71.429247825,79.0,92.0
56,71.50714626666668,71.80605889166668,76.0,97.0
57,71.94192826666668,72.28975386666667,76.0,95.0
58,72.37671026666668,72.76982565833335,74.0,100.0
59,72.81149226666668,73.49808550833335,71.0,95.0
60,73.68105626666667,73.98540366666668,71.0,94.0
61,74.11583826666669,74.44192476666667,69.0,94.0
62,74.55062026666668,75.29699603333334,67.0,93.0
63,75.42018426666668,75.77706782500002,67.0,95.0
64,75.85496626666668,76.18467595000001,76.0,94.0
65,76.28974826666668,77.01076175000001,74.0,99.0
66,77.15931226666667,77.49264513333334,71.0,93.0
67,77.59409426666667,77.88757211666668,69.0,97.0
68,78.02887626666669,78.73720860833335,67.0,90.0
69,78.89844026666668,79.07959943333334,67.0,94.0
70,79.11583126666667,79.52343939166668,64.0,97.0
71,79.55061326666667,79.67380150000001,69.0,87.0
72,79.76800426666668,80.50351048333334,69.0,95.0
73,80.63756826666668,80.95278521666668,71.0,97.0
74,81.07235026666667,81.37669766666669,74.0,102.0
75,81.50713226666667,81.82053762500001,74.0,100.0
76,81.94191426666669,82.32416010833334,74.0,99.0
77,82.37669626666668,82.66473934166667,74.0,94.0
78,82.81147826666668,83.09589815833334,76.0,94.0
79,83.24626026666668,83.95459260833334,74.0,100.0
80,84.11582426666668,84.40024415833335,76.0,95.0
81,84.55060626666668,84.88393913333334,78.0,99.0
82,84.98538826666667,85.34227182500001,79.0,92.0
83,85.42017026666667,85.71908289166667,76.0,97.0
84,85.85495226666669,86.20277786666668,76.0,95.0
85,86.28973426666668,86.68284965833335,74.0,100.0
86,86.72451626666668,87.41110950833335,71.0,95.0
87,87.59408026666668,87.89842766666668,71.0,94.0
88,88.02886226666668,88.35494876666668,69.0,94.0
89,88.46364426666668,89.21002003333335,67.0,93.0
90,89.33320826666667,89.69009182500001,67.0,95.0
91,89.76799026666669,90.09769995000002,76.0,94.0
92,90.20277226666668,90.92378575000001,74.0,99.0
93,91.07233626666668,91.40566913333335,71.0,93.0
94,91.50711826666668,91.80059611666668,69.0,97.0
95,91.94190026666668,92.65023260833335,67.0,90.0
96,92.81146426666668,93.14660872500002,64.0,98.0
97,93.24624626666669,93.57957913333335,67.0,94.0
98,93.68102826666669,95.82414120833334,67.0,94.0
99,127.5940242666667,127.85851665000003,69.0,89.0
100,128.0288062666667,128.40561733333337,71.0,89.0
101,128.46358826666668,129.14112355000003,67.0,92.0
102,129.33315226666667,129.65923876666668,69.0,94.0
103,129.76793426666669,130.11938305,71.0,93.0
104,130.2027162666667,130.86213563333337,67.0,95.0
105,131.0722802666667,131.34583060833336,69.0,90.0
106,131.50706226666668,131.82771399166668,71.0,95.0
107,131.9418442666667,132.66104615833336,74.0,100.0
108,132.8114082666667,133.1266252166667,74.0,99.0
109,133.2461902666667,133.5451028916667,76.0,99.0
110,133.68097226666669,134.39473938333336,67.0,93.0
111,134.55053626666668,134.8548836666667,64.0,93.0
112,134.9853182666667,135.25886860833336,67.0,93.0
113,135.42010026666668,136.12299783333336,69.0,93.0
114,136.28966426666668,136.65560578333336,69.0,95.0
115,136.7244462666667,137.14292394166668,67.0,93.0
116,137.1592282666667,137.90560403333336,64.0,93.0
117,138.0287922666667,138.34944399166667,64.0,97.0
118,138.46357426666668,138.76973325833336,67.0,93.0
119,138.8983562666667,139.20995003333334,69.0,94.0
120,139.33313826666668,139.68458705000003,71.0,92.0
121,139.7679202666667,140.0994415416667,69.0,94.0
122,140.20270226666668,140.55777423333336,67.0,89.0
123,140.6374842666667,141.40016435833334,69.0,97.0
124,141.5070482666667,141.81320725833336,71.0,94.0
125,141.9418302666667,142.30414860000002,69.0,93.0
126,142.37661226666668,143.1374807666667,67.0,93.0
127,143.24617626666668,143.54146570833336,69.0,94.0
128,143.6809582666667,144.01610272500002,71.0,95.0
129,144.11574026666668,144.89291309166668,67.0,92.0
130,144.9853042666667,145.28059370833336,69.0,95.0
131,145.4200862666667,145.83494075833335,71.0,94.0
132,145.8548682666667,146.18276635833337,74.0,99.0
133,146.7244322666667,147.02153330000002,74.0,99.0
134,147.15921426666668,147.43095301666668,76.0,95.0
135,147.5939962666667,148.3929081916667,67.0,93.0
136,148.4635602666667,148.7896467666667,64.0,92.0
137,148.8983422666667,149.21355921666668,67.0,90.0
138,149.3331242666667,150.0885579916667,69.0,91.0
139,150.20268826666668,150.5233399916667,69.0,93.0
140,150.6374702666667,151.05957112500002,67.0,89.0
141,151.07225226666668,151.83493235833336,64.0,95.0
142,151.94181626666668,152.2515984416667,62.0,94.0
143,152.3765982666667,153.200872475,64.0,94.0
144,153.2461622666667,155.23710150833335,67.0,93.0
145,155.4200722666667,155.7352892166667,71.0,97.0
146,155.85485426666668,156.1592016666667,74.0,102.0
147,156.2896362666667,156.60304162500003,74.0,100.0
148,156.7244182666667,157.10666410833335,74.0,99.0
149,157.1592002666667,157.44724334166668,74.0,94.0
150,157.5939822666667,157.87840215833336,76.0,94.0
151,158.02876426666668,158.73709660833336,74.0,100.0
152,158.89832826666668,159.18274815833337,76.0,95.0
153,159.3331102666667,159.66644313333336,78.0,99.0
154,159.76789226666668,160.12477582500003,79.0,92.0
155,160.2026742666667,160.5015868916667,76.0,97.0
156,160.6374562666667,160.9852818666667,76.0,95.0
157,161.0722382666667,161.46535365833336,74.0,100.0
158,161.5070202666667,162.19361350833336,71.0,95.0
159,162.3765842666667,162.68093166666668,71.0,94.0
160,162.81136626666668,163.13745276666668,69.0,94.0
161,163.2461482666667,163.99252403333335,67.0,93.0
162,164.1157122666667,164.472595825,67.0,95.0
163,164.5504942666667,164.88020395000004,76.0,94.0
164,164.9852762666667,165.70628975000002,74.0,99.0
165,165.85484026666668,166.18817313333335,71.0,93.0
166,166.2896222666667,166.58310011666669,69.0,97.0
167,166.72440426666668,167.43273660833336,67.0,90.0
168,167.5939682666667,167.77512743333335,67.0,94.0
169,167.8113592666667,168.2189673916667,64.0,97.0
170,168.24614126666668,168.36932950000002,69.0,87.0
171,168.4635322666667,169.19903848333337,69.0,95.0
172,169.3330962666667,169.64831321666668,71.0,97.0
173,169.76787826666668,170.0722256666667,74.0,102.0
174,170.2026602666667,170.51606562500004,74.0,100.0
175,170.63744226666668,171.01968810833336,74.0,99.0
176,171.0722242666667,171.36026734166668,74.0,94.0
177,171.5070062666667,171.79142615833337,76.0,94.0
178,171.9417882666667,172.65012060833337,74.0,100.0
179,172.8113522666667,173.09577215833335,76.0,95.0
180,173.2461342666667,173.57946713333337,78.0,99.0
181,173.68091626666669,174.03779982500004,79.0,92.0
182,174.1156982666667,174.41461089166668,76.0,97.0
183,174.55048026666668,174.8983058666667,76.0,95.0
184,174.9852622666667,175.37837765833336,74.0,100.0
185,175.4200442666667,176.10663750833336,71.0,95.0
186,176.2896082666667,176.5939556666667,71.0,94.0
187,176.7243902666667,177.0504767666667,69.0,94.0
188,177.1591722666667,177.90554803333336,67.0,93.0
189,178.0287362666667,178.38561982500002,67.0,95.0
190,178.46351826666668,178.79322795000002,76.0,94.0
191,178.8983002666667,179.61931375000003,74.0,99.0
192,179.7678642666667,180.10119713333336,71.0,93.0
193,180.2026462666667,180.4961241166667,69.0,97.0
194,180.6374282666667,181.34576060833336,67.0,90.0
195,181.50699226666669,181.84213672500002,64.0,98.0
196,181.9417742666667,182.27510713333336,67.0,94.0
197,182.37655626666668,184.51966920833337,67.0,94.0
198,184.9852482666667,185.3004652166667,71.0,97.0
199,185.42003026666669,185.7243776666667,74.0,102.0
200,185.8548122666667,186.16821762500004,74.0,100.0
201,186.28959426666668,186.67184010833336,74.0,99.0
202,186.7243762666667,187.01241934166669,74.0,94.0
203,187.1591582666667,187.44357815833337,76.0,94.0
204,187.5939402666667,188.30227260833337,74.0,100.0
205,188.4635042666667,188.74792415833338,76.0,95.0
206,188.8982862666667,189.23161913333337,78.0,99.0
207,189.3330682666667,189.68995182500004,79.0,92.0
208,189.7678502666667,190.06676289166668,76.0,97.0
209,190.20263226666668,190.5504578666667,76.0,95.0
210,190.6374142666667,191.03052965833336,74.0,100.0
211,191.0721962666667,191.75878950833336,71.0,95.0
212,191.9417602666667,192.2461076666667,71.0,94.0
213,192.3765422666667,192.7026287666667,69.0,94.0
214,192.8113242666667,193.55770003333336,67.0,93.0
215,193.6808882666667,194.03777182500002,67.0,95.0
216,194.11567026666668,194.44537995000002,76.0,94.0
217,194.5504522666667,195.27146575000003,74.0,99.0
218,195.4200162666667,195.75334913333336,71.0,93.0
219,195.8547982666667,196.1482761166667,69.0,97.0
220,196.2895802666667,196.99791260833337,67.0,90.0
221,197.1591442666667,197.34030343333336,67.0,94.0
222,197.3765352666667,197.7841433916667,64.0,97.0
223,197.8113172666667,197.93450550000003,69.0,87.0
224,198.02870826666668,198.76421448333338,69.0,95.0
225,198.8982722666667,199.2134892166667,71.0,97.0
226,199.3330542666667,199.6374016666667,74.0,102.0
227,199.7678362666667,200.08124162500002,74.0,100.0
228,200.2026182666667,200.58486410833336,74.0,99.0
229,200.6374002666667,200.9254433416667,74.0,94.0
230,201.0721822666667,201.35660215833337,76.0,94.0
231,201.5069642666667,202.21529660833338,74.0,100.0
232,202.3765282666667,202.66094815833335,76.0,95.0
233,202.8113102666667,203.14464313333337,78.0,99.0
234,203.2460922666667,203.60297582500004,79.0,92.0
235,203.6808742666667,203.9797868916667,76.0,97.0
236,204.1156562666667,204.4634818666667,76.0,95.0
237,204.5504382666667,204.94355365833337,74.0,100.0
238,204.9852202666667,205.67181350833337,71.0,95.0
239,205.8547842666667,206.1591316666667,71.0,94.0
240,206.2895662666667,206.6156527666667,69.0,94.0
241,206.7243482666667,207.47072403333337,67.0,93.0
242,207.5939122666667,207.95079582500003,67.0,95.0
243,208.0286942666667,208.35840395000002,76.0,94.0
244,208.4634762666667,209.18448975000004,74.0,99.0
245,209.3330402666667,209.66637313333337,71.0,93.0
246,209.7678222666667,210.0613001166667,69.0,97.0
247,210.2026042666667,210.91093660833337,67.0,90.0
248,211.0721682666667,211.40731272500003,64.0,98.0
249,211.5069502666667,211.84028313333337,67.0,94.0
250,211.9417322666667,214.08484520833338,67.0,94.0
251,216.2895522666667,216.6047692166667,72.0,97.0
252,216.7243342666667,217.0286816666667,75.0,102.0
253,217.1591162666667,217.47252162500004,75.0,100.0
254,217.5938982666667,217.97614410833336,75.0,99.0
255,218.0286802666667,218.3167233416667,75.0,94.0
256,218.4634622666667,218.74788215833337,77.0,94.0
257,218.8982442666667,219.60657660833337,75.0,100.0
258,219.7678082666667,220.05222815833338,77.0,95.0
259,220.2025902666667,220.53592313333337,79.0,99.0
260,220.6373722666667,220.99425582500004,80.0,92.0
261,221.0721542666667,221.37106689166671,77.0,97.0
262,221.5069362666667,221.8547618666667,77.0,95.0
263,221.9417182666667,222.33483365833337,75.0,100.0
264,222.3765002666667,223.06309350833337,72.0,95.0
265,223.2460642666667,223.5504116666667,72.0,94.0
266,223.6808462666667,224.0069327666667,70.0,94.0
267,224.1156282666667,224.86200403333336,68.0,93.0
268,224.9851922666667,225.34207582500002,68.0,95.0
269,225.4199742666667,225.74968395000005,77.0,94.0
270,225.8547562666667,226.57576975000003,75.0,99.0
271,226.7243202666667,227.05765313333336,72.0,93.0
272,227.1591022666667,227.4525801166667,70.0,97.0
273,227.5938842666667,228.30221660833337,68.0,90.0
274,228.4634482666667,228.64460743333336,68.0,94.0
275,228.6808392666667,229.0884473916667,65.0,97.0
276,229.1156212666667,229.23880950000003,70.0,87.0
277,229.3330122666667,230.06851848333338,70.0,95.0
278,230.2025762666667,230.5177932166667,72.0,97.0
279,230.6373582666667,230.9417056666667,75.0,102.0
280,231.0721402666667,231.38554562500005,75.0,100.0
281,231.5069222666667,231.88916810833337,75.0,99.0
282,231.9417042666667,232.2297473416667,75.0,94.0
283,232.37648626666672,232.66090615833338,77.0,94.0
284,232.8112682666667,233.51960060833338,75.0,100.0
285,233.6808322666667,233.96525215833336,77.0,95.0
286,234.1156142666667,234.44894713333338,79.0,99.0
287,234.5503962666667,234.90727982500005,80.0,92.0
288,234.9851782666667,235.2840908916667,77.0,97.0
289,235.4199602666667,235.7677858666667,77.0,95.0
290,235.8547422666667,236.24785765833337,75.0,100.0
291,236.28952426666672,236.97611750833337,72.0,95.0
292,237.1590882666667,237.4634356666667,72.0,94.0
293,237.5938702666667,237.9199567666667,70.0,94.0
294,238.0286522666667,238.77502803333337,68.0,93.0
295,238.8982162666667,239.25509982500003,68.0,95.0
296,239.3329982666667,239.66270795000003,77.0,94.0
297,239.7677802666667,240.48879375000004,75.0,99.0
298,240.6373442666667,240.97067713333337,72.0,93.0
299,241.07212626666671,241.3656041166667,70.0,97.0
300,241.5069082666667,242.21524060833337,68.0,90.0
301,242.3764722666667,242.71161672500003,65.0,98.0
302,242.8112542666667,243.14458713333337,68.0,94.0
303,243.2460362666667,245.38914920833338,68.0,94.0
304,245.8547282666667,246.1590756666667,72.0,94.0
305,246.2895102666667,246.6155967666667,70.0,94.0
306,246.7242922666667,247.47066803333337,68.0,93.0
307,247.5938562666667,247.95073982500003,68.0,95.0
308,248.02863826666672,248.35834795000005,77.0,94.0
309,248.4634202666667,249.18443375000004,75.0,99.0
310,249.3329842666667,249.66631713333337,72.0,93.0
311,249.7677662666667,250.0612441166667,70.0,97.0
312,250.2025482666667,252.16575879375003,68.0,90.0
313,252.94929014375003,253.25806985625005,65.0,96.0
314,253.21156688750006,253.74356085000005,68.0,96.0
315,253.85330785625004,257.8561168270834,68.0,100.0
