,start,end,pitch,velocity
0,8.463756266666667,9.076074250000001,67.0,81.0
1,8.463756266666667,9.086943800000002,62.0,80.0
2,8.898538266666668,9.414841891666669,50.0,61.0
3,9.333320266666668,9.525348983333334,62.0,87.0
4,8.463756266666667,9.650348808333336,43.0,90.0
5,9.333320266666668,9.840565933333336,67.0,87.0
6,9.333320266666668,9.847812300000001,71.0,92.0
7,10.202884266666668,10.702883566666669,66.0,82.0
8,10.202884266666668,10.70650675,69.0,84.0
9,9.768102266666668,10.744550175000002,62.0,81.0
10,11.072448266666669,11.373172483333335,62.0,93.0
11,11.072448266666669,11.547085283333335,66.0,93.0
12,10.202884266666668,11.679331475000001,50.0,85.0
13,10.637666266666669,11.740925591666668,57.0,63.0
14,11.072448266666669,11.742737183333336,69.0,91.0
15,11.94201226666667,12.443823158333336,67.0,83.0
16,11.94201226666667,12.503605683333335,64.0,86.0
17,12.376794266666668,12.836938550000003,59.0,81.0
18,11.94201226666667,12.931141316666668,52.0,93.0
19,12.811576266666668,13.012662941666669,67.0,83.0
20,12.811576266666668,13.039836816666668,64.0,87.0
21,12.811576266666668,13.048894775000003,71.0,87.0
22,13.681140266666668,14.119545450000002,62.0,82.0
23,13.681140266666668,14.153965691666668,66.0,81.0
24,14.115922266666669,14.639472258333335,45.0,62.0
25,13.681140266666668,14.688385233333335,38.0,82.0
26,14.550704266666669,14.731863433333336,62.0,89.0
27,14.550704266666669,14.865921216666669,66.0,93.0
28,14.550704266666669,14.983674675000003,69.0,89.0
29,15.42026826666667,16.01265874166667,67.0,86.0
30,15.42026826666667,16.047078983333336,60.0,82.0
31,16.289832266666668,16.541643508333337,64.0,91.0
32,16.289832266666668,16.556136241666668,60.0,88.0
33,15.85505026666667,16.623165133333337,55.0,81.0
34,15.42026826666667,16.634034683333336,48.0,87.0
35,17.15939626666667,17.75178674166667,62.0,83.0
36,17.15939626666667,17.78439539166667,66.0,82.0
37,17.15939626666667,17.788018575000002,59.0,82.0
38,17.59417826666667,18.12135144166667,54.0,71.0
39,18.02896026666667,18.309756975000003,66.0,85.0
40,18.02896026666667,18.313380158333334,62.0,87.0
41,17.15939626666667,18.315191750000004,47.0,87.0
42,18.02896026666667,18.345988808333335,59.0,87.0
43,18.89852426666667,19.563378408333335,55.0,78.0
44,18.89852426666667,19.57243636666667,61.0,83.0
45,19.33330626666667,19.960116983333336,52.0,83.0
46,18.89852426666667,19.99634881666667,45.0,93.0
47,19.76808826666667,20.08330521666667,55.0,84.0
48,19.76808826666667,20.08873999166667,64.0,88.0
49,19.76808826666667,20.11953705,61.0,85.0
50,20.202870266666668,20.565188600000003,45.0,92.0
51,20.63765226666667,20.78982596666667,50.0,88.0
52,20.63765226666667,20.80069551666667,62.0,87.0
53,20.63765226666667,20.809753475000004,66.0,80.0
54,20.63765226666667,20.815188250000002,57.0,83.0
55,21.07243426666667,21.166637033333338,62.0,91.0
56,21.07243426666667,21.184752950000004,57.0,88.0
57,21.07243426666667,21.19199931666667,50.0,92.0
58,21.07243426666667,21.210115233333337,66.0,82.0
59,21.50721626666667,21.58873789166667,57.0,82.0
60,21.50721626666667,21.59598425833334,62.0,88.0
61,21.50721626666667,21.601419033333336,50.0,94.0
62,21.50721626666667,21.601419033333336,66.0,82.0
63,21.72460726666667,21.798882525000003,50.0,93.0
64,21.72460726666667,21.802505708333335,62.0,91.0
65,21.72460726666667,21.804317300000005,66.0,88.0
66,21.72460726666667,21.80612889166667,57.0,85.0
67,21.94199826666667,22.016273525000003,62.0,89.0
68,21.94199826666667,22.02351989166667,57.0,84.0
69,21.94199826666667,22.027143075000005,66.0,87.0
70,21.94199826666667,22.036201033333338,50.0,95.0
71,22.159389266666672,22.302505008333338,62.0,98.0
72,22.159389266666672,22.307939783333335,57.0,93.0
73,22.159389266666672,22.316997741666672,50.0,104.0
74,22.159389266666672,22.32786729166667,66.0,96.0
75,22.37678026666667,22.63764946666667,55.0,92.0
76,22.37678026666667,22.71373631666667,62.0,90.0
77,22.81156226666667,23.101416933333336,55.0,93.0
78,23.02895326666667,23.144895133333335,59.0,92.0
79,22.59417126666667,23.32243111666667,50.0,81.0
80,23.24634426666667,23.510836650000005,55.0,99.0
81,23.24634426666667,23.510836650000005,59.0,102.0
82,22.37678026666667,23.548880075000003,43.0,95.0
83,23.24634426666667,23.56156121666667,62.0,97.0
84,23.46373526666667,23.63764806666667,50.0,91.0
85,23.68112626666667,23.85503906666667,43.0,93.0
86,24.115908266666672,24.30069061666667,57.0,91.0
87,24.115908266666672,24.411197708333336,62.0,94.0
88,24.115908266666672,24.652139400000003,66.0,93.0
89,24.55069026666667,24.86047244166667,57.0,94.0
90,24.76808126666667,24.884023133333336,62.0,89.0
91,24.33329926666667,25.249964650000003,50.0,82.0
92,24.115908266666672,25.284384891666672,42.0,91.0
93,24.98547226666667,25.443804958333338,57.0,94.0
94,24.98547226666667,25.49271793333334,62.0,98.0
95,24.98547226666667,25.550688866666672,66.0,98.0
96,25.42025426666667,25.56155841666667,42.0,94.0
97,25.85503626666667,26.11047069166667,59.0,93.0
98,25.85503626666667,26.260832800000003,64.0,95.0
99,26.28981826666667,26.570614975000005,59.0,89.0
100,26.50720926666667,26.623151133333337,64.0,89.0
101,26.072427266666672,26.81880303333334,47.0,84.0
102,26.72460026666667,26.970976733333337,59.0,98.0
103,26.72460026666667,27.027136075000005,64.0,100.0
104,25.85503626666667,27.05612154166667,40.0,95.0
105,26.941991266666673,27.099599741666673,47.0,93.0
106,26.72460026666667,27.19742569166667,67.0,94.0
107,27.15938226666667,27.31155596666667,59.0,94.0
108,27.59416426666667,27.999960800000004,59.0,93.0
109,27.59416426666667,28.09959834166667,62.0,94.0
110,28.24633726666667,28.326047300000006,59.0,92.0
111,28.028946266666672,28.53619193333334,54.0,83.0
112,28.46372826666667,28.71916269166667,59.0,100.0
113,27.59416426666667,28.79524954166667,47.0,95.0
114,28.68111926666667,28.833292966666672,54.0,91.0
115,28.46372826666667,28.954669608333337,66.0,94.0
116,28.898510266666673,29.021698500000003,59.0,94.0
117,29.33329226666667,29.577857141666673,60.0,90.0
118,29.33329226666667,29.621335341666672,64.0,94.0
119,29.76807426666667,29.998146408333337,60.0,89.0
120,29.55068326666667,30.385827025000005,55.0,87.0
121,29.33329226666667,30.443797958333338,48.0,98.0
122,30.20285626666667,30.663000550000003,64.0,104.0
123,30.20285626666667,30.69198601666667,60.0,98.0
124,30.63763826666667,30.760826500000004,55.0,93.0
125,31.072420266666672,31.373144483333338,59.0,88.0
126,31.072420266666672,31.485463166666673,62.0,93.0
127,31.072420266666672,31.61770935833334,66.0,85.0
128,31.50720226666667,31.81154966666667,59.0,89.0
129,31.724593266666673,31.81879603333334,62.0,82.0
130,31.28981126666667,32.02169430000001,54.0,84.0
131,31.941984266666672,32.235462116666675,59.0,95.0
132,31.072420266666672,32.24089689166667,47.0,94.0
133,32.15937526666667,32.316983741666675,54.0,87.0
134,31.941984266666672,32.37857785833334,62.0,96.0
135,31.941984266666672,32.48365017500001,66.0,95.0
136,32.37676626666667,32.68473685000001,47.0,95.0
137,32.81154826666667,33.10140293333334,57.0,87.0
138,32.81154826666667,33.164808641666674,60.0,93.0
139,32.81154826666667,33.210098433333336,64.0,94.0
140,33.246330266666675,33.57241676666667,57.0,93.0
141,33.02893926666667,33.58328631666667,52.0,83.0
142,32.81154826666667,33.61770655833334,45.0,94.0
143,33.68111226666667,33.89850326666667,57.0,94.0
144,33.68111226666667,34.139444958333335,66.0,86.0
145,33.68111226666667,34.143068141666674,62.0,94.0
146,33.68111226666667,34.146691325000006,50.0,98.0
147,34.11589426666667,34.29343025000001,57.0,93.0
148,34.55067626666667,35.101400133333335,59.0,93.0
149,34.55067626666667,35.195602900000004,55.0,89.0
150,34.98545826666667,35.58509510833334,50.0,82.0
151,35.420240266666674,35.66661673333334,59.0,91.0
152,35.420240266666674,35.70103697500001,55.0,89.0
153,35.420240266666674,35.73183403333334,62.0,90.0
154,35.85502226666667,36.38944180833334,50.0,78.0
155,36.28980426666667,36.434731600000006,59.0,91.0
156,34.55067626666667,36.43835478333334,43.0,92.0
157,36.28980426666667,36.44197796666667,55.0,89.0
158,36.28980426666667,36.456470700000004,62.0,90.0
159,37.159368266666675,37.412991100000006,62.0,89.0
160,37.159368266666675,37.44741134166667,59.0,91.0
161,37.594150266666674,37.84052673333334,55.0,78.0
162,38.02893226666667,38.219149391666676,55.0,81.0
163,38.02893226666667,38.26987395833334,59.0,82.0
164,38.02893226666667,38.289801466666674,62.0,86.0
165,38.898496266666676,39.66661113333334,59.0,87.0
166,38.898496266666676,39.68835023333334,62.0,88.0
167,39.333278266666674,39.69559660000001,55.0,89.0
168,39.76806026666667,40.56697219166667,62.0,89.0
169,40.63762426666667,40.91479779166667,55.0,88.0
170,40.20284226666667,40.93653689166667,50.0,82.0
171,40.63762426666667,40.94378325833334,59.0,91.0
172,39.76806026666667,40.951029625000004,43.0,93.0
173,41.507188266666674,42.04160780833334,64.0,93.0
174,41.94197026666667,42.46552025833334,59.0,90.0
175,42.37675226666667,42.543418700000004,64.0,89.0
176,42.37675226666667,42.55791143333334,67.0,86.0
177,41.507188266666674,42.56153461666668,52.0,94.0
178,43.246316266666675,44.01805431666667,59.0,83.0
179,43.246316266666675,44.15392369166668,62.0,80.0
180,43.68109826666667,44.572401366666675,54.0,82.0
181,43.246316266666675,44.81334305833334,47.0,93.0
182,44.11588026666667,44.858632850000006,66.0,94.0
183,44.55066226666667,44.86044444166667,59.0,92.0
184,44.985444266666676,45.22095118333334,59.0,91.0
185,44.985444266666676,45.46732765000001,64.0,94.0
186,45.420226266666674,45.730008441666676,59.0,89.0
187,45.85500826666667,46.03979061666667,59.0,98.0
188,44.985444266666676,46.33145687500001,52.0,94.0
189,46.28979026666667,46.69377520833334,59.0,94.0
190,45.85500826666667,46.70283316666667,64.0,95.0
191,45.85500826666667,46.72094908333334,67.0,89.0
192,46.72457226666668,47.25174544166667,60.0,88.0
193,46.72457226666668,47.27710772500001,57.0,84.0
194,47.59413626666667,47.79522294166667,57.0,88.0
195,47.159354266666675,47.81333885833334,52.0,82.0
196,46.72457226666668,47.887614116666676,45.0,93.0
197,47.59413626666667,47.91841117500001,60.0,93.0
198,47.59413626666667,48.01804871666668,64.0,95.0
199,48.02891826666667,48.244497675000005,57.0,93.0
200,48.46370026666668,48.719134691666675,55.0,94.0
201,48.46370026666668,49.050655966666675,60.0,92.0
202,48.898482266666676,49.173844200000005,55.0,83.0
203,49.333264266666674,49.54340890000001,55.0,94.0
204,49.333264266666674,49.97094453333334,60.0,95.0
205,49.333264266666674,49.97275612500001,64.0,95.0
206,49.76804626666667,49.99087204166668,55.0,87.0
207,48.46370026666668,50.04159660833334,48.0,93.0
208,50.20282826666667,50.409349716666675,55.0,93.0
209,50.20282826666667,50.89485628333334,64.0,94.0
210,50.63761026666668,50.93652289166668,55.0,87.0
211,51.072392266666675,51.23362392500001,55.0,95.0
212,51.072392266666675,51.40934831666667,60.0,93.0
213,50.20282826666667,51.523478591666674,48.0,94.0
214,51.507174266666674,51.75898550833334,55.0,94.0
215,51.94195626666667,52.24811525833334,57.0,86.0
216,51.94195626666667,52.35681075833334,62.0,89.0
217,52.811520266666676,53.59593945833334,54.0,95.0
218,52.37673826666668,53.61586696666667,45.0,87.0
219,51.94195626666667,53.61767855833334,38.0,99.0
220,52.811520266666676,53.63217129166667,57.0,94.0
221,53.246302266666675,53.64485243333334,50.0,100.0
222,53.68108426666667,54.47999619166667,62.0,89.0
223,54.55064826666668,54.82782179166667,55.0,88.0
224,54.11586626666668,54.84956089166668,50.0,82.0
225,54.55064826666668,54.85680725833334,59.0,91.0
226,53.68108426666667,54.86405362500001,43.0,93.0
227,55.420212266666674,55.95463180833334,64.0,93.0
228,55.85499426666667,56.37854425833334,59.0,90.0
229,56.28977626666668,56.45644270000001,64.0,89.0
230,56.28977626666668,56.470935433333345,67.0,86.0
231,55.420212266666674,56.47455861666668,52.0,94.0
232,57.159340266666675,57.93107831666668,59.0,83.0
233,57.159340266666675,58.06694769166668,62.0,80.0
234,57.59412226666667,58.485425366666675,54.0,82.0
235,57.159340266666675,58.726367058333345,47.0,93.0
236,58.02890426666668,58.77165685000001,66.0,94.0
237,58.46368626666668,58.77346844166667,59.0,92.0
238,58.898468266666676,59.13397518333334,59.0,91.0
239,58.898468266666676,59.38035165000001,64.0,94.0
240,59.333250266666674,59.643032441666676,59.0,89.0
241,59.76803226666667,59.95281461666668,59.0,98.0
242,58.898468266666676,60.24448087500001,52.0,94.0
243,60.20281426666668,60.60679920833334,59.0,94.0
244,59.76803226666667,60.61585716666668,64.0,95.0
245,59.76803226666667,60.633973083333345,67.0,89.0
246,60.63759626666668,61.16476944166668,60.0,88.0
247,60.63759626666668,61.19013172500001,57.0,84.0
248,61.50716026666667,61.70824694166668,57.0,88.0
249,61.072378266666675,61.726362858333346,52.0,82.0
250,60.63759626666668,61.800638116666676,45.0,93.0
251,61.50716026666667,61.83143517500001,60.0,93.0
252,61.50716026666667,61.93107271666668,64.0,95.0
253,61.94194226666668,62.15752167500001,57.0,93.0
254,62.37672426666668,62.56331820833334,55.0,87.0
255,62.37672426666668,62.71911509166668,48.0,100.0
256,62.37672426666668,62.860419241666676,60.0,88.0
257,62.37672426666668,62.882158341666674,64.0,94.0
258,62.811506266666676,62.91295540000001,55.0,90.0
259,63.246288266666674,63.45280971666668,57.0,92.0
260,63.246288266666674,63.57237476666668,38.0,99.0
261,63.246288266666674,63.70099777500001,62.0,93.0
262,63.68107026666668,63.795200541666674,57.0,91.0
263,64.11585226666668,64.56331540833334,59.0,88.0
264,64.11585226666668,64.58686610000001,62.0,91.0
265,64.11585226666668,64.61041679166668,55.0,88.0
266,64.55063426666668,65.07237266666668,50.0,78.0
267,64.98541626666668,65.21186522500001,55.0,95.0
268,64.98541626666668,65.21367681666668,62.0,100.0
269,64.98541626666668,65.23722750833335,59.0,95.0
270,65.42019826666667,65.65208200000001,55.0,96.0
271,65.20280726666668,65.67925587500001,50.0,94.0
272,64.11585226666668,65.73179203333335,43.0,94.0
273,65.63758926666668,65.755342725,59.0,93.0
274,65.85498026666667,66.26983475833335,67.0,92.0
275,65.85498026666667,66.29882022500001,59.0,93.0
276,65.85498026666667,66.320559325,55.0,89.0
277,66.28976226666667,66.80063111666668,50.0,84.0
278,66.72454426666668,66.99447142500001,55.0,94.0
279,66.72454426666668,67.06874668333334,59.0,98.0
280,66.72454426666668,67.07055827500001,62.0,96.0
281,67.15932626666668,67.4781664,55.0,95.0
282,65.85498026666667,67.48541276666668,43.0,94.0
283,66.94193526666668,67.51077505,50.0,91.0
284,67.59410826666668,68.07055687500001,62.0,94.0
285,67.59410826666668,68.09773075000001,59.0,96.0
286,67.59410826666668,68.114035075,55.0,93.0
287,68.02889026666668,68.61403437500002,50.0,93.0
288,67.59410826666668,68.68468645000002,43.0,96.0
289,68.46367226666668,68.79881672500001,55.0,95.0
290,68.46367226666668,68.80787468333334,59.0,98.0
291,68.46367226666668,68.82780219166668,62.0,98.0
292,68.89845426666668,69.14845391666668,43.0,95.0
293,69.33323626666667,69.58142432500001,57.0,90.0
294,69.33323626666667,69.82417760833334,62.0,94.0
295,69.33323626666667,69.831423975,66.0,89.0
296,69.76801826666667,69.96729335,57.0,88.0
297,69.33323626666667,70.36584351666667,42.0,96.0
298,70.20280026666667,70.42381445000001,57.0,95.0
299,70.20280026666667,70.64482863333335,62.0,97.0
300,70.20280026666667,70.67019091666668,66.0,97.0
301,70.63758226666668,70.72816185,57.0,93.0
302,71.07236426666668,71.31692914166668,59.0,89.0
303,71.07236426666668,71.53069695833335,67.0,87.0
304,71.07236426666668,71.54337810000001,64.0,95.0
305,71.50714626666668,71.68287065833334,59.0,91.0
306,71.94192826666668,72.10134833333335,59.0,102.0
307,71.07236426666668,72.29518864166668,52.0,99.0
308,71.94192826666668,72.35134798333334,67.0,98.0
309,72.15931926666667,72.385768225,59.0,92.0
310,72.37671026666668,72.54699988333334,64.0,94.0
311,72.59410126666668,72.68105766666667,59.0,87.0
312,72.81149226666668,73.02526008333335,57.0,92.0
313,72.81149226666668,73.34410021666667,62.0,94.0
314,73.24627426666667,73.48178118333334,57.0,82.0
315,73.68105626666667,73.84591110833334,57.0,94.0
316,72.81149226666668,73.91112840833334,50.0,97.0
317,73.68105626666667,74.048809375,62.0,96.0
318,73.68105626666667,74.05062096666668,66.0,96.0
319,74.11583826666669,74.16475124166668,57.0,85.0
320,74.55062026666668,74.78250400000002,55.0,91.0
321,74.55062026666668,75.11040209166669,60.0,89.0
322,74.55062026666668,75.12670641666668,64.0,94.0
323,74.98540226666668,75.31148876666668,55.0,94.0
324,74.55062026666668,75.55967682500001,48.0,99.0
325,75.42018426666668,75.603155025,55.0,96.0
326,75.42018426666668,75.86583581666667,64.0,100.0
327,75.42018426666668,75.88576332500001,60.0,99.0
328,75.85496626666668,75.92742993333334,55.0,88.0
329,76.28974826666668,76.766196875,62.0,91.0
330,76.28974826666668,76.81148666666668,59.0,86.0
331,76.28974826666668,76.82235621666668,66.0,81.0
332,76.72453026666668,77.23902230000002,54.0,84.0
333,77.15931226666667,77.41293510000001,59.0,98.0
334,77.15931226666667,77.42561624166667,62.0,97.0
335,76.28974826666668,77.50170309166668,47.0,95.0
336,77.37670326666668,77.54155810833335,54.0,93.0
337,77.15931226666667,77.65749997500001,66.0,97.0
338,77.59409426666667,77.73358682500002,59.0,97.0
339,78.02887626666669,78.47996259166668,60.0,94.0
340,78.02887626666669,78.50713646666668,57.0,93.0
341,78.46365826666668,78.96909234166668,52.0,82.0
342,78.02887626666669,79.15568628333335,45.0,94.0
343,78.89844026666668,79.21184562500001,57.0,94.0
344,78.89844026666668,79.22452676666668,64.0,99.0
345,78.89844026666668,79.23901950000001,60.0,99.0
346,79.11583126666667,79.24807745833334,52.0,95.0
347,79.33322226666668,79.48177278333334,45.0,95.0
348,79.55061326666667,79.67017831666668,57.0,94.0
349,79.76800426666668,79.96365616666668,57.0,94.0
350,79.76800426666668,80.04517779166667,62.0,95.0
351,80.20278626666668,80.27706152500001,57.0,93.0
352,80.42017726666668,80.50169889166668,62.0,85.0
353,80.42017726666668,80.52343799166668,57.0,87.0
354,80.42017726666668,80.52343799166668,66.0,84.0
355,79.98539526666669,80.68829283333335,45.0,87.0
356,80.63756826666668,80.91836497500002,57.0,97.0
357,79.76800426666668,80.96184317500001,38.0,100.0
358,80.85495926666668,81.00532137500001,45.0,94.0
359,80.63756826666668,81.07235026666667,62.0,102.0
360,80.63756826666668,81.09952414166668,66.0,97.0
361,81.07235026666667,81.20459645833334,57.0,97.0
362,81.50713226666667,82.01981270833335,62.0,93.0
363,81.50713226666667,82.05060976666668,59.0,91.0
364,81.50713226666667,82.06329090833334,55.0,90.0
365,81.94191426666669,82.49444972500001,50.0,86.0
366,82.37669626666668,82.68466685000001,55.0,96.0
367,81.50713226666667,82.69191321666668,43.0,94.0
368,82.37669626666668,82.700971175,59.0,100.0
369,82.37669626666668,82.70821754166668,62.0,97.0
370,82.59408726666668,82.72271027500001,50.0,91.0
371,82.81147826666668,82.98176788333335,43.0,95.0
372,83.24626026666668,83.46183967500001,57.0,93.0
373,83.24626026666668,83.76075230000001,62.0,94.0
374,83.68104226666668,83.94915783333335,57.0,95.0
375,83.24626026666668,84.20459225833335,42.0,97.0
376,84.11582426666668,84.32415730833334,57.0,97.0
377,84.11582426666668,84.42017166666668,62.0,100.0
378,84.11582426666668,84.592272875,66.0,95.0
379,84.55060626666668,84.68828723333334,57.0,93.0
380,84.98538826666667,85.43103981666668,64.0,93.0
381,84.98538826666667,85.46183687500002,59.0,90.0
382,85.42017026666667,86.09770555000001,47.0,82.0
383,85.85495226666669,86.10314032500001,59.0,96.0
384,85.85495226666669,86.13031420000002,64.0,100.0
385,84.98538826666667,86.13937215833334,40.0,99.0
386,85.85495226666669,86.27342994166668,67.0,93.0
387,86.28973426666668,86.41835727500002,40.0,95.0
388,86.28973426666668,86.44190796666668,59.0,98.0
389,86.72451626666668,86.98900865000002,59.0,94.0
390,86.72451626666668,87.15024030833335,62.0,93.0
391,86.72451626666668,87.23900830000001,66.0,94.0
392,87.37668926666667,87.49081954166668,59.0,97.0
393,87.15929826666668,87.65748597500001,54.0,93.0
394,87.59408026666668,87.85132628333335,59.0,98.0
395,86.72451626666668,87.87850015833335,50.0,97.0
396,87.59408026666668,87.94190586666669,62.0,99.0
397,87.81147126666669,87.97089133333334,54.0,90.0
398,87.59408026666668,88.13212299166668,66.0,98.0
399,88.02886226666668,88.22451416666668,47.0,97.0
400,88.46364426666668,88.95458560833335,64.0,94.0
401,88.46364426666668,88.99262903333334,60.0,90.0
402,88.46364426666668,89.51617902500001,48.0,97.0
403,88.89842626666668,89.55784563333334,55.0,92.0
404,89.33320826666667,89.63393248333335,64.0,99.0
405,89.33320826666667,89.65204840000001,60.0,94.0
406,89.33320826666667,89.72994684166667,67.0,94.0
407,89.76799026666669,89.90023645833335,48.0,94.0
408,90.20277226666668,90.63574267500002,62.0,93.0
409,90.20277226666668,90.63755426666668,59.0,93.0
410,90.20277226666668,90.72269907500001,66.0,92.0
411,90.63755426666668,91.18284335833334,54.0,79.0
412,91.07233626666668,91.35675615833335,59.0,96.0
413,90.20277226666668,91.36943730000002,47.0,95.0
414,91.07233626666668,91.42197345833334,62.0,100.0
415,91.28972726666669,91.46364006666668,54.0,92.0
416,91.07233626666668,91.54697328333334,66.0,97.0
417,91.50711826666668,91.74262518333335,47.0,95.0
418,91.94190026666668,92.37124749166668,57.0,93.0
419,91.94190026666668,92.37849385833334,60.0,94.0
420,91.94190026666668,92.46182707500002,45.0,94.0
421,92.37668226666668,92.47450821666668,52.0,89.0
422,92.81146426666668,93.04153640833334,57.0,94.0
423,92.81146426666668,93.11037689166668,38.0,97.0
424,92.81146426666668,93.26617377500001,62.0,94.0
425,93.24624626666669,93.36399972500001,57.0,98.0
426,93.68102826666669,93.99262203333335,55.0,89.0
427,93.68102826666669,94.08682480000002,62.0,93.0
428,94.11581026666668,94.69914278333334,55.0,88.0
429,94.33320126666668,94.78428759166668,62.0,97.0
430,94.76798326666668,95.10131613333334,67.0,94.0
431,93.89841926666668,95.19733049166668,50.0,89.0
432,93.68102826666669,95.26254779166668,43.0,95.0
433,94.98537426666668,95.26798256666667,55.0,93.0
434,95.42015626666668,96.06870608333335,62.0,93.0
435,95.42015626666668,96.11943065000001,55.0,92.0
436,95.85493826666668,96.59587925833335,50.0,79.0
437,95.42015626666668,96.66834292500002,43.0,93.0
438,96.28972026666668,97.09225537500002,55.0,90.0
439,96.28972026666668,97.10855970000001,62.0,93.0
440,97.15928426666669,97.30421160000002,64.0,94.0
441,97.15928426666669,97.30602319166668,71.0,93.0
442,97.81145726666668,98.05421055000002,64.0,93.0
443,97.59406626666669,98.09406556666669,59.0,93.0
444,97.37667526666668,98.26254359166668,47.0,93.0
445,97.15928426666669,98.32051452500002,40.0,98.0
446,98.24623926666668,98.46725345000002,64.0,97.0
447,98.02884826666669,98.57232576666668,68.0,99.0
448,98.68102126666668,98.78609358333335,64.0,88.0
449,98.46363026666668,98.79696313333335,59.0,95.0
450,99.33319426666668,99.65928076666668,63.0,89.0
451,99.11580326666669,99.72812125000002,59.0,93.0
452,99.55058526666669,99.92739633333335,66.0,104.0
453,99.76797626666668,100.01435273333335,54.0,93.0
454,98.89841226666668,100.02159910000002,47.0,98.0
455,100.20275826666668,100.47087383333334,63.0,94.0
456,99.98536726666669,100.49442452500001,59.0,97.0
457,100.42014926666668,100.53246795000001,66.0,93.0
458,100.63754026666668,100.82775739166668,61.0,71.0
459,100.63754026666668,100.92196015833335,64.0,90.0
460,101.07232226666669,101.37485807500002,61.0,93.0
461,100.85493126666668,101.62485772500001,56.0,89.0
462,101.50710426666669,101.67377070000002,61.0,100.0
463,101.50710426666669,101.69732139166668,64.0,102.0
464,100.63754026666668,102.04514699166668,49.0,96.0
465,101.72449526666668,102.22449456666668,56.0,89.0
466,101.94188626666669,102.52159560000001,61.0,92.0
467,102.15927726666668,102.69731999166669,64.0,100.0
468,102.81145026666668,102.94369645833335,61.0,93.0
469,103.02884126666669,103.08862379166668,64.0,77.0
470,103.02884126666669,103.09224697500001,61.0,76.0
471,102.59405926666668,103.31688434166668,56.0,94.0
472,102.37666826666668,103.40202915000002,49.0,95.0
473,103.24623226666668,103.45818849166669,64.0,107.0
474,103.24623226666668,103.47086963333335,61.0,97.0
475,103.24623226666668,103.49260873333336,68.0,97.0
476,103.46362326666669,103.62304333333336,56.0,95.0
477,103.68101426666668,103.75166634166668,49.0,93.0
478,104.11579626666668,104.28427429166668,59.0,86.0
479,104.11579626666668,104.45456390833336,64.0,94.0
480,104.55057826666668,104.82594020000002,59.0,95.0
481,104.76796926666668,104.88572272500002,64.0,93.0
482,104.33318726666668,105.22449036666669,47.0,88.0
483,104.98536026666669,105.27883811666668,68.0,104.0
484,104.11579626666668,105.28970766666669,40.0,92.0
485,105.20275126666668,105.42738863333335,64.0,95.0
486,105.63753326666668,105.71180852500002,64.0,89.0
487,105.42014226666669,105.71362011666669,59.0,97.0
488,105.85492426666669,106.10130073333335,59.0,92.0
489,106.07231526666668,106.24622806666669,51.0,74.0
490,105.85492426666669,106.51615522500002,63.0,95.0
491,106.50709726666668,106.81687944166669,59.0,94.0
492,106.72448826666668,106.98173428333335,63.0,98.0
493,106.28970626666668,106.98354587500002,54.0,92.0
494,105.85492426666669,107.15745867500002,47.0,96.0
495,106.94187926666669,107.21542960833335,66.0,97.0
496,107.15927026666668,107.24441507500002,59.0,89.0
497,107.59405226666668,107.69187821666668,37.0,93.0
498,107.59405226666668,108.28970346666668,61.0,88.0
499,107.59405226666668,108.41470329166668,64.0,99.0
500,108.46361626666669,108.93463010000002,61.0,90.0
501,108.68100726666668,109.01252854166668,64.0,95.0
502,108.24622526666668,109.21904999166668,56.0,85.0
503,109.11578926666668,109.40020915833335,61.0,94.0
504,108.02883426666668,109.42919462500002,49.0,94.0
505,109.55057126666668,109.81687524166668,61.0,89.0
506,109.33318026666669,110.02158510000002,56.0,93.0
507,109.98535326666668,110.05962852500002,64.0,94.0
508,109.98535326666668,110.09223717500002,61.0,88.0
509,109.98535326666668,110.11397627500001,68.0,92.0
510,110.20274426666668,110.48354097500001,64.0,100.0
511,110.20274426666668,110.49622211666669,61.0,96.0
512,110.20274426666668,110.55962782500002,68.0,94.0
513,110.42013526666669,110.56868578333335,56.0,93.0
514,110.63752626666668,110.73354062500002,49.0,95.0
515,111.07230826666668,111.15382989166669,38.0,97.0
516,111.07230826666668,111.79513334166668,62.0,93.0
517,111.07230826666668,111.85853905000002,66.0,86.0
518,111.07230826666668,112.06143731666668,69.0,93.0
519,111.94187226666668,112.42919042500002,62.0,95.0
520,111.72448126666669,112.45636430000002,57.0,87.0
521,112.15926326666668,112.46542225833335,66.0,104.0
522,112.59404526666668,112.87303038333336,62.0,95.0
523,113.02882726666668,113.50889905833336,62.0,84.0
524,113.24621826666669,113.50889905833336,66.0,97.0
525,113.46360926666668,113.63752206666669,69.0,86.0
526,112.37665426666669,113.67194230833336,54.0,95.0
527,113.68100026666669,113.70636255000002,69.0,70.0
528,113.68100026666669,113.91107240833335,62.0,81.0
529,112.81143626666669,113.96904334166669,57.0,93.0
530,111.50709026666668,114.04875337500002,50.0,92.0
531,113.68100026666669,114.14657932500002,74.0,109.0
532,113.89839126666668,114.17556479166669,69.0,94.0
533,114.11578226666668,114.35310077500002,66.0,99.0
534,114.33317326666669,114.43281080833336,62.0,92.0
535,114.55056426666668,114.64114385000002,40.0,96.0
536,114.55056426666668,115.26433138333336,64.0,91.0
537,114.55056426666668,115.37665006666668,68.0,85.0
538,115.42012826666668,115.66469314166669,64.0,96.0
539,115.63751926666669,115.83498275833335,68.0,104.0
540,115.20273726666669,115.88027255000002,59.0,89.0
541,114.98534626666668,116.13570697500002,52.0,95.0
542,116.07230126666668,116.16831562500002,64.0,88.0
543,116.28969226666669,116.57230056666668,64.0,93.0
544,116.28969226666669,116.62845990833335,68.0,92.0
545,116.28969226666669,116.77338724166668,71.0,93.0
546,116.72447426666669,116.79874952500002,64.0,89.0
547,116.28969226666669,117.00708256666668,59.0,88.0
548,116.94186526666668,117.24258948333335,64.0,97.0
549,116.94186526666668,117.27700972500001,68.0,97.0
550,116.94186526666668,117.28787927500002,76.0,95.0
551,116.94186526666668,117.30056041666668,71.0,96.0
552,117.15925626666669,117.37845885833335,59.0,93.0
553,116.28969226666669,117.40019795833335,52.0,98.0
554,117.37664726666668,117.52700937500002,71.0,93.0
555,117.37664726666668,117.53787892500002,68.0,87.0
556,117.37664726666668,117.56142961666669,64.0,100.0
557,118.02882026666668,118.12302303333335,38.0,97.0
558,118.02882026666668,118.97265952500001,62.0,89.0
559,118.02882026666668,119.02519568333335,66.0,89.0
560,118.02882026666668,119.22447076666668,69.0,93.0
561,119.33316626666668,119.39294879166668,69.0,78.0
562,119.33316626666668,119.60128183333335,66.0,104.0
563,119.11577526666669,119.63389048333335,62.0,94.0
564,119.55055726666669,119.67012231666669,69.0,87.0
565,118.89838426666668,119.99439722500001,57.0,91.0
566,119.76794826666668,120.28244030000002,62.0,93.0
567,119.76794826666668,120.28968666666668,69.0,97.0
568,119.76794826666668,120.29149825833335,66.0,95.0
569,119.76794826666668,120.29874462500001,74.0,98.0
570,120.20273026666669,120.48715015833335,57.0,83.0
571,120.42012126666668,121.04330880000002,62.0,95.0
572,120.42012126666668,121.09946814166669,74.0,94.0
573,120.42012126666668,121.10127973333336,66.0,94.0
574,120.85490326666668,121.12120724166668,54.0,94.0
575,118.46360226666668,121.12301883333335,50.0,92.0
576,121.07229426666669,121.18098976666668,57.0,95.0
577,120.42012126666668,121.36758370833336,69.0,93.0
578,121.28968526666668,121.41830827500002,62.0,94.0
579,121.50707626666669,121.77156865000002,67.0,92.0
580,121.50707626666669,121.81504685000002,62.0,94.0
581,122.37664026666668,122.55417625000003,59.0,95.0
582,122.37664026666668,122.57229216666668,62.0,94.0
583,122.37664026666668,122.58497330833335,55.0,93.0
584,122.81142226666668,123.02519008333336,59.0,93.0
585,122.81142226666668,123.03424804166669,55.0,93.0
586,122.81142226666668,123.05961032500002,62.0,93.0
587,123.24620426666668,123.38388523333336,55.0,92.0
588,123.24620426666668,123.38569682500003,59.0,93.0
589,123.24620426666668,123.38750841666669,62.0,93.0
590,123.24620426666668,123.48533436666669,67.0,89.0
591,124.11576826666669,124.29149265833335,67.0,90.0
592,124.11576826666669,124.33859404166668,74.0,98.0
593,124.33315926666668,124.50344888333335,71.0,86.0
594,124.55055026666669,124.69185441666669,67.0,89.0
595,121.94185826666669,124.71359351666669,50.0,82.0
596,121.50707626666669,124.80960787500003,43.0,93.0
597,124.98533226666669,125.57772274166669,79.0,88.0
598,124.98533226666669,125.63388208333335,74.0,91.0
599,124.98533226666669,125.66286755000002,67.0,83.0
600,124.98533226666669,125.67011391666668,71.0,93.0
601,125.85489626666669,126.12482342500002,71.0,87.0
602,125.85489626666669,126.17192480833336,74.0,89.0
603,126.28967826666668,126.49076494166668,67.0,70.0
604,124.98533226666669,126.54692428333335,43.0,93.0
605,126.72446026666668,127.62119814166668,43.0,94.0
606,126.72446026666668,127.92916872500003,67.0,82.0
607,126.72446026666668,127.93641509166669,71.0,86.0
608,126.72446026666668,127.93641509166669,74.0,91.0
609,128.46358826666668,129.26250019166667,62.0,89.0
610,129.33315226666667,129.6103257916667,55.0,88.0
611,128.8983702666667,129.6320648916667,50.0,82.0
612,129.33315226666667,129.63931125833335,59.0,91.0
613,128.46358826666668,129.646557625,43.0,93.0
614,130.2027162666667,130.73713580833336,64.0,93.0
615,130.63749826666668,131.16104825833335,59.0,90.0
616,131.0722802666667,131.2389467,64.0,89.0
617,131.0722802666667,131.25343943333334,67.0,86.0
618,130.2027162666667,131.2570626166667,52.0,94.0
619,131.9418442666667,132.71358231666667,59.0,83.0
620,131.9418442666667,132.8494516916667,62.0,80.0
621,132.37662626666668,133.2679293666667,54.0,82.0
622,131.9418442666667,133.50887105833334,47.0,93.0
623,132.8114082666667,133.55416085000002,66.0,94.0
624,133.2461902666667,133.55597244166668,59.0,92.0
625,133.68097226666669,133.91647918333337,59.0,91.0
626,133.68097226666669,134.16285565,64.0,94.0
627,134.1157542666667,134.42553644166668,59.0,89.0
628,134.55053626666668,134.7353186166667,59.0,98.0
629,133.68097226666669,135.026984875,52.0,94.0
630,134.9853182666667,135.38930320833336,59.0,94.0
631,134.55053626666668,135.3983611666667,64.0,95.0
632,134.55053626666668,135.41647708333335,67.0,89.0
633,135.42010026666668,135.94727344166668,60.0,88.0
634,135.42010026666668,135.97263572500003,57.0,84.0
635,136.28966426666668,136.49075094166668,57.0,88.0
636,135.8548822666667,136.50886685833336,52.0,82.0
637,135.42010026666668,136.5831421166667,45.0,93.0
638,136.28966426666668,136.613939175,60.0,93.0
639,136.28966426666668,136.7135767166667,64.0,95.0
640,136.7244462666667,136.94002567500002,57.0,93.0
641,137.1592282666667,137.41466269166668,55.0,94.0
642,137.1592282666667,137.74618396666668,60.0,92.0
643,137.5940102666667,137.86937220000002,55.0,83.0
644,138.0287922666667,138.23893690000003,55.0,94.0
645,138.0287922666667,138.66647253333335,60.0,95.0
646,138.0287922666667,138.668284125,64.0,95.0
647,138.46357426666668,138.6864000416667,55.0,87.0
648,137.1592282666667,138.73712460833335,48.0,93.0
649,138.8983562666667,139.1048777166667,55.0,93.0
650,138.8983562666667,139.59038428333335,64.0,94.0
651,139.33313826666668,139.6320508916667,55.0,87.0
652,139.7679202666667,139.929151925,55.0,95.0
653,139.7679202666667,140.1048763166667,60.0,93.0
654,138.8983562666667,140.2190065916667,48.0,94.0
655,140.20270226666668,140.45451350833335,55.0,94.0
656,140.6374842666667,140.94364325833337,57.0,86.0
657,140.6374842666667,141.05233875833335,62.0,89.0
658,141.5070482666667,142.29146745833336,54.0,95.0
659,141.0722662666667,142.31139496666668,45.0,87.0
660,140.6374842666667,142.31320655833335,38.0,99.0
661,141.5070482666667,142.32769929166668,57.0,94.0
662,141.9418302666667,142.34038043333337,50.0,100.0
663,142.37661226666668,143.17552419166668,62.0,89.0
664,143.24617626666668,143.52334979166667,55.0,88.0
665,142.8113942666667,143.5450888916667,50.0,82.0
666,143.24617626666668,143.55233525833336,59.0,91.0
667,142.37661226666668,143.55958162500002,43.0,93.0
668,144.11574026666668,144.65015980833334,64.0,93.0
669,144.5505222666667,145.07407225833336,59.0,90.0
670,144.9853042666667,145.15197070000002,64.0,89.0
671,144.9853042666667,145.16646343333335,67.0,86.0
672,144.11574026666668,145.17008661666668,52.0,94.0
673,145.8548682666667,146.62660631666668,59.0,83.0
674,145.8548682666667,146.76247569166668,62.0,80.0
675,146.28965026666668,147.1809533666667,54.0,82.0
676,145.8548682666667,147.42189505833335,47.0,93.0
677,146.7244322666667,147.46718485000002,66.0,94.0
678,147.15921426666668,147.4689964416667,59.0,92.0
679,147.5939962666667,147.82950318333334,59.0,91.0
680,147.5939962666667,148.07587965000002,64.0,94.0
681,148.02877826666668,148.3385604416667,59.0,89.0
682,148.4635602666667,148.6483426166667,59.0,98.0
683,147.5939962666667,148.94000887500002,52.0,94.0
684,148.8983422666667,149.30232720833337,59.0,94.0
685,148.4635602666667,149.3113851666667,64.0,95.0
686,148.4635602666667,149.32950108333335,67.0,89.0
687,149.3331242666667,149.8602974416667,60.0,88.0
688,149.3331242666667,149.885659725,57.0,84.0
689,150.20268826666668,150.40377494166668,57.0,88.0
690,149.7679062666667,150.42189085833337,52.0,82.0
691,149.3331242666667,150.4961661166667,45.0,93.0
692,150.20268826666668,150.52696317500002,60.0,93.0
693,150.20268826666668,150.6266007166667,64.0,95.0
694,150.6374702666667,150.85304967500002,57.0,93.0
695,151.07225226666668,151.25884620833335,55.0,87.0
696,151.07225226666668,151.4146430916667,48.0,100.0
697,151.07225226666668,151.5559472416667,60.0,88.0
698,151.07225226666668,151.5776863416667,64.0,94.0
699,151.5070342666667,151.6084834,55.0,90.0
700,151.94181626666668,152.1483377166667,57.0,92.0
701,151.94181626666668,152.26790276666668,38.0,99.0
702,151.94181626666668,152.39652577500001,62.0,93.0
703,152.3765982666667,152.4907285416667,57.0,91.0
704,152.8113802666667,153.25884340833335,59.0,88.0
705,152.8113802666667,153.28239410000003,62.0,91.0
706,152.8113802666667,153.3059447916667,55.0,88.0
707,153.2461622666667,153.7679006666667,50.0,78.0
708,153.6809442666667,153.90739322500002,55.0,95.0
709,153.6809442666667,153.9092048166667,62.0,100.0
710,153.6809442666667,153.93275550833334,59.0,95.0
711,154.11572626666668,154.34761000000003,55.0,96.0
712,153.8983352666667,154.37478387500002,50.0,94.0
713,152.8113802666667,154.42732003333336,43.0,94.0
714,154.3331172666667,154.45087072500002,59.0,93.0
715,154.5505082666667,154.96536275833336,67.0,92.0
716,154.5505082666667,154.994348225,59.0,93.0
717,154.5505082666667,155.01608732500003,55.0,89.0
718,154.98529026666668,155.4961591166667,50.0,84.0
719,155.4200722666667,155.68999942500002,55.0,94.0
720,155.4200722666667,155.76427468333335,59.0,98.0
721,155.4200722666667,155.76608627500002,62.0,96.0
722,155.85485426666668,156.17369440000002,55.0,95.0
723,154.5505082666667,156.18094076666668,43.0,94.0
724,155.63746326666669,156.20630305000003,50.0,91.0
725,156.2896362666667,156.5450706916667,55.0,91.0
726,156.2896362666667,156.6700705166667,62.0,93.0
727,156.7244182666667,157.03057725833335,55.0,93.0
728,156.9418092666667,157.05231635833337,59.0,95.0
729,157.1592002666667,157.2515914416667,55.0,76.0
730,157.1592002666667,157.48890995000002,67.0,98.0
731,156.50702726666668,157.65195320000004,50.0,90.0
732,157.37659126666668,157.66644593333336,62.0,94.0
733,156.2896362666667,157.72804005000003,43.0,94.0
734,157.5939822666667,157.83130077500002,59.0,94.0
735,157.8113732666667,157.92188035833337,55.0,97.0
736,158.02876426666668,158.3820246416667,62.0,93.0
737,158.4635462666667,158.83492255833335,57.0,94.0
738,158.6809372666667,158.8494152916667,62.0,87.0
739,158.89832826666668,158.9907194416667,62.0,88.0
740,158.2461552666667,159.22984954166668,45.0,88.0
741,159.1157192666667,159.3331102666667,62.0,89.0
742,158.02876426666668,159.45629850000003,42.0,97.0
743,158.89832826666668,159.55955922500002,66.0,98.0
744,159.3331102666667,159.63202289166668,57.0,93.0
745,159.55050126666669,159.7461531666667,62.0,88.0
746,159.76789226666668,160.00339918333336,59.0,93.0
747,159.76789226666668,160.22260177500002,64.0,94.0
748,160.2026742666667,160.48709415833335,59.0,94.0
749,160.42006526666668,160.53781872500002,64.0,90.0
750,159.9852832666667,160.72803585000003,47.0,90.0
751,160.6374562666667,160.89289069166668,59.0,96.0
752,160.6374562666667,161.06318030833336,64.0,96.0
753,159.76789226666668,161.07767304166669,40.0,96.0
754,160.8548472666667,161.08129622500002,47.0,90.0
755,160.6374562666667,161.12296283333336,67.0,95.0
756,161.0722382666667,161.25883220833336,59.0,96.0
757,161.5070202666667,161.64107805000003,57.0,93.0
758,161.5070202666667,161.76607787500004,62.0,94.0
759,161.7244112666667,161.95267181666668,57.0,89.0
760,161.94180226666668,162.1863671416667,62.0,91.0
761,162.1591932666667,162.29687423333337,57.0,83.0
762,161.5070202666667,162.66643893333335,50.0,104.0
763,162.5939752666667,162.7841923916667,57.0,93.0
764,162.3765842666667,162.83491695833337,66.0,104.0
765,162.81136626666668,163.04868477500003,62.0,94.0
766,163.0287572666667,163.15013390833334,57.0,92.0
767,163.2461482666667,163.41462629166668,60.0,87.0
768,163.2461482666667,163.7135389166667,64.0,89.0
769,163.68093026666668,163.95629220000004,60.0,93.0
770,163.4635392666667,164.00701676666668,55.0,84.0
771,163.2461482666667,164.00882835833335,48.0,98.0
772,163.8983212666667,164.01607472500004,64.0,86.0
773,164.1157122666667,164.24795845833336,60.0,90.0
774,164.1157122666667,164.2787555166667,64.0,94.0
775,164.1157122666667,164.44361035833336,67.0,93.0
776,164.33310326666668,164.53600153333335,60.0,89.0
777,164.1157122666667,164.5831029166667,55.0,92.0
778,164.1157122666667,164.64650862500002,48.0,97.0
779,164.5504942666667,164.89107350000003,64.0,93.0
780,164.7678852666667,164.90013145833336,60.0,81.0
781,164.9852762666667,165.12295723333335,59.0,91.0
782,164.9852762666667,165.24976865000002,62.0,89.0
783,165.20266726666668,165.3711452916667,59.0,87.0
784,165.4200582666667,165.59940584166668,62.0,83.0
785,165.6374492666667,165.72440566666668,59.0,90.0
786,165.85484026666668,166.02512988333336,59.0,93.0
787,165.85484026666668,166.18273835833335,54.0,93.0
788,166.0722312666667,166.25157884166669,59.0,93.0
789,165.85484026666668,166.28056430833337,66.0,95.0
790,164.9852762666667,166.34215842500004,47.0,94.0
791,166.2896222666667,166.50882485833336,62.0,93.0
792,166.5070132666667,166.63382468333336,59.0,90.0
793,166.72440426666668,166.9526648166667,57.0,93.0
794,166.72440426666668,167.0341864416667,60.0,90.0
795,167.1591862666667,167.5070118666667,57.0,93.0
796,167.3765772666667,167.53056255833337,60.0,94.0
797,167.5939682666667,167.86389542500004,64.0,102.0
798,166.9417952666667,167.88019975000003,52.0,80.0
799,167.8113592666667,168.04324300000002,57.0,94.0
800,168.0287502666667,168.1972282916667,60.0,94.0
801,166.72440426666668,168.23708330833335,45.0,93.0
802,168.24614126666668,168.35664835833336,57.0,90.0
803,168.4635322666667,168.59215527500004,57.0,93.0
804,168.4635322666667,168.6754884916667,62.0,94.0
805,168.6809232666667,168.90737222500002,57.0,87.0
806,168.8983142666667,169.11932845000004,62.0,87.0
807,169.11570526666668,169.23708190833335,57.0,93.0
808,169.3330962666667,169.45628450000004,57.0,95.0
809,169.3330962666667,169.63744366666668,66.0,98.0
810,169.5504872666667,169.7298348416667,57.0,94.0
811,168.4635322666667,169.8167912416667,50.0,98.0
812,169.76787826666668,169.95990698333335,62.0,93.0
813,169.9852692666667,170.08671840000002,57.0,93.0
814,170.2026602666667,170.4091817166667,55.0,93.0
815,170.2026602666667,170.4907033416667,59.0,94.0
816,170.63744226666668,170.91642738333337,55.0,93.0
817,170.8548332666667,170.98707945833337,59.0,88.0
818,171.0722242666667,171.35664415833335,62.0,104.0
819,171.2896152666667,171.55229605833335,55.0,91.0
820,171.5070062666667,171.68454225000002,59.0,93.0
821,170.4200512666667,171.72802045000003,50.0,87.0
822,170.2026602666667,171.73889000000003,43.0,93.0
823,171.7243972666667,171.81860003333335,55.0,82.0
824,171.9417882666667,172.2787443166667,62.0,93.0
825,172.3765702666667,172.6754828916667,57.0,96.0
826,172.5939612666667,172.7407001916667,62.0,95.0
827,172.8113522666667,173.10301852500004,66.0,109.0
828,173.02874326666668,173.20084447500003,62.0,95.0
829,172.15917926666668,173.22439516666668,50.0,86.0
830,171.9417882666667,173.25881540833336,42.0,94.0
831,173.2461342666667,173.5124382416667,57.0,95.0
832,173.4635252666667,173.57403235833337,62.0,90.0
833,173.68091626666669,173.9091768166667,59.0,93.0
834,173.68091626666669,174.1156982666667,64.0,96.0
835,174.1156982666667,174.4037413416667,59.0,94.0
836,174.3330892666667,174.4526543166667,64.0,95.0
837,174.55048026666668,174.79685673333336,59.0,94.0
838,174.55048026666668,174.84576970833336,67.0,93.0
839,173.8983072666667,174.90192905000004,47.0,87.0
840,173.68091626666669,174.9689579416667,40.0,96.0
841,174.7678712666667,174.9798274916667,64.0,95.0
842,174.9852622666667,175.29142125833337,59.0,93.0
843,175.2026532666667,175.32946468333336,64.0,92.0
844,175.4200442666667,175.53236295000002,59.0,91.0
845,175.4200442666667,175.66823232500002,62.0,93.0
846,175.6374352666667,175.95446380833337,59.0,87.0
847,175.8548262666667,176.11931865000003,62.0,95.0
848,176.07221726666668,176.61388317500004,66.0,100.0
849,176.2896082666667,176.67366570000002,54.0,94.0
850,176.5069992666667,176.79323075000002,59.0,95.0
851,175.4200442666667,176.86388282500002,47.0,95.0
852,176.7243902666667,176.99794060833335,62.0,95.0
853,176.94178126666668,177.0559115416667,59.0,89.0
854,177.1591722666667,177.40736032500004,60.0,93.0
855,177.1591722666667,177.5776499416667,64.0,95.0
856,177.59395426666669,177.87837415833337,60.0,93.0
857,177.8113452666667,177.91822917500002,64.0,96.0
858,177.3765632666667,177.92185235833335,55.0,78.0
859,177.1591722666667,177.92547554166669,48.0,97.0
860,178.0287362666667,178.2461272666667,60.0,95.0
861,178.2461272666667,178.5069964666667,55.0,93.0
862,178.0287362666667,178.55409785000003,67.0,94.0
863,178.0287362666667,178.5776485416667,48.0,94.0
864,178.46351826666668,178.7678656666667,60.0,95.0
865,178.6809092666667,178.80772068333337,64.0,94.0
866,178.8983002666667,179.07583625000004,59.0,93.0
867,178.8983002666667,179.36206773333336,62.0,87.0
868,179.3330822666667,179.6374296666667,59.0,93.0
869,179.5504732666667,179.99431322500004,62.0,90.0
870,179.7678642666667,180.14648692500003,54.0,87.0
871,178.8983002666667,180.38380543333335,47.0,93.0
872,180.2026462666667,180.44721114166668,62.0,92.0
873,179.98525526666668,180.46713865000004,59.0,94.0
874,180.4200372666667,180.54866027500003,66.0,95.0
875,180.6374282666667,180.8656888166667,57.0,93.0
876,180.6374282666667,180.98525386666668,60.0,96.0
877,180.85481926666668,181.11568846666668,52.0,94.0
878,180.6374282666667,181.18452895000001,45.0,94.0
879,181.0722102666667,181.35844175000003,57.0,93.0
880,181.2896012666667,181.44177496666669,60.0,93.0
881,181.50699226666669,181.71351371666668,57.0,93.0
882,181.7243832666667,181.89467288333336,45.0,90.0
883,181.50699226666669,181.91097720833335,38.0,97.0
884,181.50699226666669,181.91097720833335,62.0,93.0
885,181.9417742666667,182.15735367500002,57.0,94.0
886,182.1591652666667,182.25880280833337,62.0,94.0
887,182.37655626666668,182.64648342500004,55.0,93.0
888,182.37655626666668,182.80228030833337,59.0,93.0
889,182.8113382666667,183.11930885000004,55.0,89.0
890,182.5939472666667,183.3113375666667,50.0,87.0
891,183.2461202666667,183.50517787500002,55.0,95.0
892,183.2461202666667,183.73706160833336,62.0,97.0
893,183.4635112666667,183.81314845833336,50.0,89.0
894,182.37655626666668,183.86930780000003,43.0,94.0
895,183.6809022666667,183.99974240000003,55.0,89.0
896,184.1156842666667,184.6700313166667,59.0,92.0
897,184.1156842666667,184.67727768333336,55.0,83.0
898,184.1156842666667,184.7135095166667,62.0,88.0
899,184.5504662666667,185.02329169166669,50.0,77.0
900,184.9852482666667,185.25336383333337,55.0,97.0
901,184.9852482666667,185.28234930000002,59.0,104.0
902,184.9852482666667,185.32401590833337,62.0,100.0
903,184.1156842666667,185.66278355000003,43.0,94.0
904,185.2026392666667,185.74792835833335,50.0,102.0
905,185.42003026666669,185.81314565833335,55.0,104.0
906,185.6374212666667,185.82039202500002,59.0,95.0
907,185.6374212666667,185.8330731666667,62.0,93.0
908,185.8548122666667,186.1102466916667,55.0,91.0
909,185.8548122666667,186.2352465166667,62.0,93.0
910,186.28959426666668,186.59575325833336,55.0,93.0
911,186.5069852666667,186.61749235833335,59.0,95.0
912,186.7243762666667,186.81676744166668,55.0,76.0
913,186.7243762666667,187.05408595000003,67.0,98.0
914,186.0722032666667,187.21712920000002,50.0,90.0
915,186.9417672666667,187.23162193333337,62.0,94.0
916,185.8548122666667,187.29321605000004,43.0,94.0
917,187.1591582666667,187.39647677500002,59.0,94.0
918,187.3765492666667,187.48705635833338,55.0,97.0
919,187.5939402666667,187.94720064166668,62.0,93.0
920,188.0287222666667,188.40009855833335,57.0,94.0
921,188.2461132666667,188.4145912916667,62.0,87.0
922,188.4635042666667,188.5558954416667,62.0,88.0
923,187.81133126666668,188.7950255416667,45.0,88.0
924,188.6808952666667,188.8982862666667,62.0,89.0
925,187.5939402666667,189.02147450000004,42.0,97.0
926,188.4635042666667,189.12473522500002,66.0,98.0
927,188.8982862666667,189.1971988916667,57.0,93.0
928,189.1156772666667,189.3113291666667,62.0,88.0
929,189.3330682666667,189.56857518333337,59.0,93.0
930,189.3330682666667,189.78777777500002,64.0,94.0
931,189.7678502666667,190.05227015833336,59.0,94.0
932,189.9852412666667,190.10299472500003,64.0,90.0
933,189.5504592666667,190.29321185000003,47.0,90.0
934,190.20263226666668,190.4580666916667,59.0,96.0
935,190.20263226666668,190.62835630833337,64.0,96.0
936,189.3330682666667,190.6428490416667,40.0,96.0
937,190.4200232666667,190.64647222500002,47.0,90.0
938,190.20263226666668,190.68813883333337,67.0,95.0
939,190.6374142666667,190.82400820833337,59.0,96.0
940,191.0721962666667,191.20625405000004,57.0,93.0
941,191.0721962666667,191.33125387500002,62.0,94.0
942,191.2895872666667,191.5178478166667,57.0,89.0
943,191.5069782666667,191.7515431416667,62.0,91.0
944,191.72436926666668,191.86205023333335,57.0,83.0
945,191.0721962666667,192.23161493333336,50.0,104.0
946,192.1591512666667,192.3493683916667,57.0,93.0
947,191.9417602666667,192.40009295833337,66.0,104.0
948,192.3765422666667,192.61386077500003,62.0,94.0
949,192.5939332666667,192.71530990833335,57.0,92.0
950,192.8113242666667,192.9798022916667,60.0,87.0
951,192.8113242666667,193.2787149166667,64.0,89.0
952,193.2461062666667,193.52146820000004,60.0,93.0
953,193.0287152666667,193.5721927666667,55.0,84.0
954,192.8113242666667,193.57400435833335,48.0,98.0
955,193.4634972666667,193.58125072500002,64.0,86.0
956,193.6808882666667,193.81313445833337,60.0,90.0
957,193.6808882666667,193.8439315166667,64.0,94.0
958,193.6808882666667,194.00878635833337,67.0,93.0
959,193.8982792666667,194.10117753333336,60.0,89.0
960,193.6808882666667,194.1482789166667,55.0,92.0
961,193.6808882666667,194.21168462500003,48.0,97.0
962,194.11567026666668,194.45624950000004,64.0,93.0
963,194.3330612666667,194.46530745833337,60.0,81.0
964,194.5504522666667,194.68813323333336,59.0,91.0
965,194.5504522666667,194.81494465000003,62.0,89.0
966,194.7678432666667,194.9363212916667,59.0,87.0
967,194.9852342666667,195.1645818416667,62.0,83.0
968,195.2026252666667,195.2895816666667,59.0,90.0
969,195.4200162666667,195.59030588333337,59.0,93.0
970,195.4200162666667,195.74791435833336,54.0,93.0
971,195.63740726666668,195.8167548416667,59.0,93.0
972,195.4200162666667,195.84574030833338,66.0,95.0
973,194.5504522666667,195.90733442500004,47.0,94.0
974,195.8547982666667,196.07400085833336,62.0,93.0
975,196.0721892666667,196.19900068333337,59.0,90.0
976,196.2895802666667,196.5178408166667,57.0,93.0
977,196.2895802666667,196.5993624416667,60.0,90.0
978,196.7243622666667,197.0721878666667,57.0,93.0
979,196.9417532666667,197.09573855833335,60.0,94.0
980,197.1591442666667,197.42907142500002,64.0,102.0
981,196.5069712666667,197.44537575000004,52.0,80.0
982,197.3765352666667,197.60841900000003,57.0,94.0
983,197.5939262666667,197.76240429166668,60.0,94.0
984,196.2895802666667,197.80225930833336,45.0,93.0
985,197.8113172666667,197.92182435833337,57.0,90.0
986,198.02870826666668,198.15733127500002,57.0,93.0
987,198.02870826666668,198.2406644916667,62.0,94.0
988,198.2460992666667,198.47254822500003,57.0,87.0
989,198.4634902666667,198.68450445000002,62.0,87.0
990,198.6808812666667,198.80225790833336,57.0,93.0
991,198.8982722666667,199.02146050000002,57.0,95.0
992,198.8982722666667,199.2026196666667,66.0,98.0
993,199.1156632666667,199.2950108416667,57.0,94.0
994,198.02870826666668,199.3819672416667,50.0,98.0
995,199.3330542666667,199.52508298333336,62.0,93.0
996,199.55044526666669,199.65189440000003,57.0,93.0
997,199.7678362666667,199.9743577166667,55.0,93.0
998,199.7678362666667,200.0558793416667,59.0,94.0
999,200.2026182666667,200.48160338333335,55.0,93.0
1000,200.4200092666667,200.55225545833338,59.0,88.0
1001,200.6374002666667,200.92182015833336,62.0,104.0
1002,200.8547912666667,201.11747205833336,55.0,91.0
1003,201.0721822666667,201.24971825000003,59.0,93.0
1004,199.9852272666667,201.29319645000004,50.0,87.0
1005,199.7678362666667,201.30406600000003,43.0,93.0
1006,201.2895732666667,201.38377603333336,55.0,82.0
1007,201.5069642666667,201.8439203166667,62.0,93.0
1008,201.9417462666667,202.2406588916667,57.0,96.0
1009,202.1591372666667,202.3058761916667,62.0,95.0
1010,202.3765282666667,202.66819452500002,66.0,109.0
1011,202.5939192666667,202.76602047500003,62.0,95.0
1012,201.7243552666667,202.7895711666667,50.0,86.0
1013,201.5069642666667,202.82399140833337,42.0,94.0
1014,202.8113102666667,203.0776142416667,57.0,95.0
1015,203.0287012666667,203.13920835833338,62.0,90.0
1016,203.2460922666667,203.4743528166667,59.0,93.0
1017,203.2460922666667,203.6808742666667,64.0,96.0
1018,203.6808742666667,203.9689173416667,59.0,94.0
1019,203.8982652666667,204.0178303166667,64.0,95.0
1020,204.1156562666667,204.36203273333336,59.0,94.0
1021,204.1156562666667,204.41094570833337,67.0,93.0
1022,203.46348326666669,204.46710505000004,47.0,87.0
1023,203.2460922666667,204.5341339416667,40.0,96.0
1024,204.3330472666667,204.5450034916667,64.0,95.0
1025,204.5504382666667,204.85659725833335,59.0,93.0
1026,204.7678292666667,204.89464068333336,64.0,92.0
1027,204.9852202666667,205.09753895000003,59.0,91.0
1028,204.9852202666667,205.23340832500003,62.0,93.0
1029,205.2026112666667,205.51963980833335,59.0,87.0
1030,205.4200022666667,205.68449465000003,62.0,95.0
1031,205.6373932666667,206.17905917500002,66.0,100.0
1032,205.8547842666667,206.23884170000002,54.0,94.0
1033,206.0721752666667,206.35840675000003,59.0,95.0
1034,204.9852202666667,206.42905882500003,47.0,95.0
1035,206.2895662666667,206.56311660833336,62.0,95.0
1036,206.5069572666667,206.6210875416667,59.0,89.0
1037,206.7243482666667,206.97253632500002,60.0,93.0
1038,206.7243482666667,207.1428259416667,64.0,95.0
1039,207.1591302666667,207.44355015833335,60.0,93.0
1040,207.37652126666669,207.48340517500003,64.0,96.0
1041,206.9417392666667,207.48702835833336,55.0,78.0
1042,206.7243482666667,207.4906515416667,48.0,97.0
1043,207.5939122666667,207.8113032666667,60.0,95.0
1044,207.8113032666667,208.0721724666667,55.0,93.0
1045,207.5939122666667,208.11927385000004,67.0,94.0
1046,207.5939122666667,208.1428245416667,48.0,94.0
1047,208.0286942666667,208.3330416666667,60.0,95.0
1048,208.2460852666667,208.37289668333338,64.0,94.0
1049,208.4634762666667,208.64101225000005,59.0,93.0
1050,208.4634762666667,208.92724373333337,62.0,87.0
1051,208.8982582666667,209.2026056666667,59.0,93.0
1052,209.1156492666667,209.55948922500002,62.0,90.0
1053,209.3330402666667,209.71166292500004,54.0,87.0
1054,208.4634762666667,209.94898143333336,47.0,93.0
1055,209.7678222666667,210.0123871416667,62.0,92.0
1056,209.5504312666667,210.03231465000005,59.0,94.0
1057,209.9852132666667,210.11383627500004,66.0,95.0
1058,210.2026042666667,210.4308648166667,57.0,93.0
1059,210.2026042666667,210.5504298666667,60.0,96.0
1060,210.4199952666667,210.6808644666667,52.0,94.0
1061,210.2026042666667,210.74970495000002,45.0,94.0
1062,210.6373862666667,210.92361775000003,57.0,93.0
1063,210.8547772666667,211.0069509666667,60.0,93.0
1064,211.0721682666667,211.2786897166667,57.0,93.0
1065,211.28955926666669,211.45984888333336,45.0,90.0
1066,211.0721682666667,211.47615320833336,38.0,97.0
1067,211.0721682666667,211.47615320833336,62.0,93.0
1068,211.5069502666667,211.72252967500003,57.0,94.0
1069,211.7243412666667,211.82397880833338,62.0,94.0
1070,211.9417322666667,212.21165942500002,55.0,93.0
1071,211.9417322666667,212.36745630833337,59.0,93.0
1072,212.3765142666667,212.68448485000005,55.0,89.0
1073,212.1591232666667,212.8765135666667,50.0,87.0
1074,212.8112962666667,213.07035387500002,55.0,95.0
1075,212.8112962666667,213.30223760833337,62.0,97.0
1076,213.0286872666667,213.37832445833337,50.0,89.0
1077,211.9417322666667,213.43448380000004,43.0,94.0
1078,213.2460782666667,213.56491840000004,55.0,89.0
1079,213.6808602666667,213.92904832500002,39.0,100.0
1080,213.6808602666667,214.0449901916667,75.0,87.0
1081,213.6808602666667,214.0721640666667,63.0,90.0
1082,214.1156422666667,214.2134682166667,39.0,93.0
1083,214.1156422666667,214.23701890833337,46.0,87.0
1084,214.5504242666667,214.64100385000003,39.0,99.0
1085,214.5504242666667,214.64643862500003,46.0,94.0
1086,214.5504242666667,214.7297718416667,63.0,84.0
1087,214.5504242666667,214.73701820833335,51.0,93.0
1088,214.9852062666667,215.14100315000005,39.0,99.0
1089,214.9852062666667,215.14100315000005,46.0,94.0
1090,214.9852062666667,215.26419138333335,63.0,91.0
1091,214.9852062666667,215.27687252500004,51.0,94.0
1092,215.4199882666667,215.68448065000004,39.0,109.0
1093,215.4199882666667,215.71165452500003,46.0,104.0
1094,215.4199882666667,215.74969795000004,63.0,93.0
1095,215.4199882666667,215.75513272500004,51.0,96.0
1096,215.8547702666667,216.09752355000003,39.0,95.0
1097,215.8547702666667,216.1156394666667,46.0,92.0
1098,215.8547702666667,216.1699872166667,63.0,94.0
1099,215.8547702666667,216.17179880833336,51.0,94.0
1100,216.2895522666667,216.59752285000005,39.0,99.0
1101,216.2895522666667,216.6047692166667,63.0,93.0
1102,216.2895522666667,216.60658080833338,51.0,94.0
1103,216.2895522666667,216.61201558333337,46.0,95.0
1104,216.7243342666667,217.09208737500003,51.0,94.0
1105,216.7243342666667,217.10295692500003,39.0,100.0
1106,216.7243342666667,217.1156380666667,46.0,95.0
1107,216.7243342666667,217.11744965833336,63.0,92.0
1108,217.1591162666667,217.4145506916667,56.0,91.0
1109,217.1591162666667,217.5395505166667,63.0,93.0
1110,217.5938982666667,217.90005725833336,56.0,93.0
1111,217.8112892666667,217.92179635833338,60.0,95.0
1112,218.0286802666667,218.12107144166671,56.0,76.0
1113,218.0286802666667,218.35838995000003,68.0,98.0
1114,217.3765072666667,218.52143320000005,51.0,90.0
1115,218.2460712666667,218.53592593333337,63.0,94.0
1116,217.1591162666667,218.59752005000004,44.0,94.0
1117,218.4634622666667,218.70078077500003,60.0,94.0
1118,218.6808532666667,218.79136035833338,56.0,97.0
1119,218.8982442666667,219.2515046416667,63.0,93.0
1120,219.3330262666667,219.70440255833336,58.0,94.0
1121,219.5504172666667,219.7188952916667,63.0,87.0
1122,219.7678082666667,219.8601994416667,63.0,88.0
1123,219.11563526666671,220.0993295416667,46.0,88.0
1124,219.9851992666667,220.2025902666667,63.0,89.0
1125,218.8982442666667,220.32577850000004,43.0,97.0
1126,219.7678082666667,220.42903922500003,67.0,98.0
1127,220.2025902666667,220.5015028916667,58.0,93.0
1128,220.4199812666667,220.6156331666667,63.0,88.0
1129,220.6373722666667,220.87287918333337,60.0,93.0
1130,220.6373722666667,221.09208177500003,65.0,94.0
1131,221.0721542666667,221.35657415833336,60.0,94.0
1132,221.2895452666667,221.40729872500003,65.0,90.0
1133,220.8547632666667,221.59751585000004,48.0,90.0
1134,221.5069362666667,221.7623706916667,60.0,96.0
1135,221.5069362666667,221.93266030833337,65.0,96.0
1136,220.6373722666667,221.9471530416667,41.0,96.0
1137,221.7243272666667,221.95077622500003,48.0,90.0
1138,221.5069362666667,221.99244283333337,68.0,95.0
1139,221.9417182666667,222.12831220833337,60.0,96.0
1140,222.3765002666667,222.51055805000004,58.0,93.0
1141,222.3765002666667,222.63555787500005,63.0,94.0
1142,222.5938912666667,222.8221518166667,58.0,89.0
1143,222.8112822666667,223.0558471416667,63.0,91.0
1144,223.02867326666671,223.16635423333338,58.0,83.0
1145,222.3765002666667,223.53591893333336,51.0,104.0
1146,223.4634552666667,223.6536723916667,58.0,93.0
1147,223.2460642666667,223.70439695833338,67.0,104.0
1148,223.6808462666667,223.91816477500004,63.0,94.0
1149,223.8982372666667,224.01961390833335,58.0,92.0
1150,224.1156282666667,224.2841062916667,61.0,87.0
1151,224.1156282666667,224.5830189166667,65.0,89.0
1152,224.5504102666667,224.82577220000005,61.0,93.0
1153,224.3330192666667,224.8764967666667,56.0,84.0
1154,224.1156282666667,224.87830835833336,49.0,98.0
1155,224.7678012666667,224.88555472500005,65.0,86.0
1156,224.9851922666667,225.11743845833337,61.0,90.0
1157,224.9851922666667,225.1482355166667,65.0,94.0
1158,224.9851922666667,225.31309035833337,68.0,93.0
1159,225.2025832666667,225.40548153333336,61.0,89.0
1160,224.9851922666667,225.4525829166667,56.0,92.0
1161,224.9851922666667,225.51598862500003,49.0,97.0
1162,225.4199742666667,225.76055350000004,65.0,93.0
1163,225.6373652666667,225.76961145833337,61.0,81.0
1164,225.8547562666667,225.99243723333336,60.0,91.0
1165,225.8547562666667,226.11924865000003,63.0,89.0
1166,226.0721472666667,226.2406252916667,60.0,87.0
1167,226.2895382666667,226.4688858416667,63.0,83.0
1168,226.5069292666667,226.5938856666667,60.0,90.0
1169,226.7243202666667,226.89460988333337,60.0,93.0
1170,226.7243202666667,227.05221835833336,55.0,93.0
1171,226.94171126666672,227.1210588416667,60.0,93.0
1172,226.7243202666667,227.15004430833338,67.0,95.0
1173,225.8547562666667,227.21163842500005,48.0,94.0
1174,227.1591022666667,227.37830485833337,63.0,93.0
1175,227.3764932666667,227.50330468333337,60.0,90.0
1176,227.5938842666667,227.8221448166667,58.0,93.0
1177,227.5938842666667,227.9036664416667,61.0,90.0
1178,228.0286662666667,228.3764918666667,58.0,93.0
1179,228.2460572666667,228.40004255833338,61.0,94.0
1180,228.4634482666667,228.73337542500005,65.0,102.0
1181,227.8112752666667,228.74967975000004,53.0,80.0
1182,228.6808392666667,228.91272300000003,58.0,94.0
1183,228.8982302666667,229.0667082916667,61.0,94.0
1184,227.5938842666667,229.10656330833336,46.0,93.0
1185,229.1156212666667,229.22612835833337,58.0,90.0
1186,229.3330122666667,229.46163527500005,58.0,93.0
1187,229.3330122666667,229.5449684916667,63.0,94.0
1188,229.5504032666667,229.77685222500003,58.0,87.0
1189,229.7677942666667,229.98880845000002,63.0,87.0
1190,229.9851852666667,230.10656190833336,58.0,93.0
1191,230.2025762666667,230.32576450000005,58.0,95.0
1192,230.2025762666667,230.5069236666667,67.0,98.0
1193,230.4199672666667,230.5993148416667,58.0,94.0
1194,229.3330122666667,230.6862712416667,51.0,98.0
1195,230.6373582666667,230.82938698333336,63.0,93.0
1196,230.85474926666672,230.95619840000003,58.0,93.0
1197,231.0721402666667,231.2786617166667,56.0,93.0
1198,231.0721402666667,231.3601833416667,60.0,94.0
1199,231.5069222666667,231.78590738333338,56.0,93.0
1200,231.7243132666667,231.85655945833338,60.0,88.0
1201,231.9417042666667,232.22612415833336,63.0,104.0
1202,232.1590952666667,232.42177605833336,56.0,91.0
1203,232.37648626666672,232.55402225000003,60.0,93.0
1204,231.2895312666667,232.59750045000004,51.0,87.0
1205,231.0721402666667,232.60837000000004,44.0,93.0
1206,232.5938772666667,232.68808003333336,56.0,82.0
1207,232.8112682666667,233.1482243166667,63.0,93.0
1208,233.2460502666667,233.5449628916667,58.0,96.0
1209,233.4634412666667,233.6101801916667,63.0,95.0
1210,233.6808322666667,233.97249852500005,67.0,109.0
1211,233.8982232666667,234.07032447500004,63.0,95.0
1212,233.0286592666667,234.0938751666667,51.0,86.0
1213,232.8112682666667,234.12829540833337,43.0,94.0
1214,234.1156142666667,234.3819182416667,58.0,95.0
1215,234.3330052666667,234.44351235833338,63.0,90.0
1216,234.5503962666667,234.7786568166667,60.0,93.0
1217,234.5503962666667,234.9851782666667,65.0,96.0
1218,234.9851782666667,235.2732213416667,60.0,94.0
1219,235.2025692666667,235.3221343166667,65.0,95.0
1220,235.4199602666667,235.66633673333337,60.0,94.0
1221,235.4199602666667,235.71524970833337,68.0,93.0
1222,234.76778726666672,235.77140905000005,48.0,87.0
1223,234.5503962666667,235.8384379416667,41.0,96.0
1224,235.6373512666667,235.8493074916667,65.0,95.0
1225,235.8547422666667,236.16090125833338,60.0,93.0
1226,236.0721332666667,236.19894468333337,65.0,92.0
1227,236.28952426666672,236.40184295000003,60.0,91.0
1228,236.28952426666672,236.53771232500003,63.0,93.0
1229,236.5069152666667,236.82394380833338,60.0,87.0
1230,236.7243062666667,236.98879865000004,63.0,95.0
1231,236.9416972666667,237.48336317500005,67.0,100.0
1232,237.1590882666667,237.54314570000003,55.0,94.0
1233,237.3764792666667,237.66271075000003,60.0,95.0
1234,236.28952426666672,237.73336282500003,48.0,95.0
1235,237.5938702666667,237.86742060833336,63.0,95.0
1236,237.8112612666667,237.9253915416667,60.0,89.0
1237,238.0286522666667,238.27684032500002,61.0,93.0
1238,238.0286522666667,238.4471299416667,65.0,95.0
1239,238.4634342666667,238.74785415833338,61.0,93.0
1240,238.68082526666672,238.78770917500003,65.0,96.0
1241,238.2460432666667,238.79133235833336,56.0,78.0
1242,238.0286522666667,238.7949555416667,49.0,97.0
1243,238.8982162666667,239.1156072666667,61.0,95.0
1244,239.1156072666667,239.3764764666667,56.0,93.0
1245,238.8982162666667,239.42357785000004,68.0,94.0
1246,238.8982162666667,239.4471285416667,49.0,94.0
1247,239.3329982666667,239.6373456666667,61.0,95.0
1248,239.5503892666667,239.67720068333338,65.0,94.0
1249,239.7677802666667,239.94531625000005,60.0,93.0
1250,239.7677802666667,240.23154773333337,63.0,87.0
1251,240.20256226666672,240.5069096666667,60.0,93.0
1252,240.4199532666667,240.86379322500002,63.0,90.0
1253,240.6373442666667,241.01596692500004,55.0,87.0
1254,239.7677802666667,241.25328543333336,48.0,93.0
1255,241.07212626666671,241.3166911416667,63.0,92.0
1256,240.8547352666667,241.33661865000005,60.0,94.0
1257,241.2895172666667,241.41814027500004,67.0,95.0
1258,241.5069082666667,241.73516881666671,58.0,93.0
1259,241.5069082666667,241.8547338666667,61.0,96.0
1260,241.7242992666667,241.9851684666667,53.0,94.0
1261,241.5069082666667,242.05400895000002,46.0,94.0
1262,241.9416902666667,242.22792175000004,58.0,93.0
1263,242.1590812666667,242.3112549666667,61.0,93.0
1264,242.3764722666667,242.5829937166667,58.0,93.0
1265,242.59386326666672,242.76415288333337,46.0,90.0
1266,242.3764722666667,242.78045720833336,39.0,97.0
1267,242.3764722666667,242.78045720833336,63.0,93.0
1268,242.8112542666667,243.02683367500003,58.0,94.0
1269,243.0286452666667,243.12828280833338,63.0,94.0
1270,243.2460362666667,243.51596342500002,56.0,93.0
1271,243.2460362666667,243.67176030833338,60.0,93.0
1272,243.6808182666667,243.98878885000005,56.0,89.0
1273,243.4634272666667,244.18081756666672,51.0,87.0
1274,244.11560026666672,244.37465787500003,56.0,95.0
1275,244.11560026666672,244.60654160833337,63.0,97.0
1276,244.3329912666667,244.68262845833337,51.0,89.0
1277,243.2460362666667,244.73878780000004,44.0,94.0
1278,244.5503822666667,244.86922240000004,56.0,89.0
1279,244.98516426666671,245.55943882500003,63.0,87.0
1280,244.98516426666671,245.59023588333338,68.0,88.0
1281,244.98516426666671,245.61197498333337,60.0,91.0
1282,244.98516426666671,245.8166848416667,56.0,78.0
1283,244.98516426666671,246.1210322416667,44.0,95.0
1284,245.4199462666667,246.2623363916667,51.0,77.0
1285,245.8547282666667,246.60653880833337,60.0,94.0
1286,245.8547282666667,246.6264663166667,56.0,83.0
1287,245.8547282666667,246.63914745833338,63.0,87.0
1288,246.7242922666667,247.34747980000003,61.0,77.0
1289,246.7242922666667,247.6590735666667,65.0,85.0
1290,246.7242922666667,247.71704450000004,68.0,77.0
1291,246.7242922666667,247.75871110833336,49.0,87.0
1292,247.5938562666667,247.80943567500003,61.0,78.0
1293,247.1590742666667,247.84023273333338,56.0,71.0
1294,248.4634202666667,249.33479585833337,60.0,81.0
1295,248.89820226666671,249.53769412500003,55.0,87.0
1296,248.4634202666667,249.59747665000003,48.0,88.0
1297,249.7677662666667,250.17175120833338,60.0,66.0
1298,249.3329842666667,250.22066418333338,63.0,80.0
1299,249.3329842666667,250.32935968333337,67.0,85.0
1300,250.53588113333336,253.53708766875005,53.0,85.0
1301,250.77682282500004,253.54080790625005,58.0,63.0
1302,250.2568960166667,253.55196861875004,46.0,93.0
1303,250.97066313333337,253.55196861875004,61.0,68.0
1304,253.73054001875005,253.9974265770834,56.0,92.0
1305,253.73054001875005,254.07351342708338,63.0,90.0
1306,254.17133937708337,254.46119404375006,56.0,93.0
1307,254.38873037708336,254.50467224375004,60.0,92.0
1308,253.95375426875006,254.68220822708338,51.0,81.0
1309,254.60612137708338,254.87061376041672,56.0,99.0
1310,254.60612137708338,254.87061376041672,60.0,102.0
1311,253.73054001875005,254.9086571854167,44.0,95.0
1312,254.60612137708338,254.92133832708336,63.0,97.0
1313,254.82351237708338,254.9974251770834,51.0,91.0
1314,255.04090337708337,255.21481617708338,44.0,93.0
1315,255.47568537708338,255.6604677270834,58.0,91.0
1316,255.47568537708338,255.77097481875003,63.0,94.0
1317,255.47568537708338,256.0119165104167,67.0,93.0
1318,255.91046737708336,256.2202495520834,58.0,94.0
1319,256.1278583770834,256.24380024375006,63.0,89.0
1320,255.69307637708337,256.6097417604167,51.0,82.0
1321,255.47568537708338,256.64416200208336,43.0,91.0
1322,256.34524937708335,256.80358206875,58.0,94.0
1323,256.34524937708335,256.85249504375,63.0,98.0
1324,256.34524937708335,256.9104659770834,67.0,98.0
1325,256.7800313770834,256.9213355270834,43.0,94.0
1326,257.2148133770834,257.47024780208335,60.0,93.0
1327,257.2148133770834,257.6206099104167,65.0,95.0
1328,257.64959537708336,257.9303920854167,60.0,89.0
1329,257.8669863770834,257.98292824375005,65.0,89.0
1330,257.4322043770834,258.17858014375,48.0,84.0
1331,258.0843773770834,258.33075384375,60.0,98.0
1332,258.0843773770834,258.3869131854167,65.0,100.0
1333,257.2148133770834,258.4158986520834,41.0,95.0
1334,258.30176837708336,258.4593768520834,48.0,93.0
1335,258.0843773770834,258.5572028020834,68.0,94.0
1336,258.5191593770834,258.6713330770834,60.0,94.0
1337,258.95394137708337,259.3597379104167,60.0,93.0
1338,258.95394137708337,259.45937545208335,63.0,94.0
1339,259.6061143770834,259.6858244104167,60.0,92.0
1340,259.38872337708335,259.89596904375003,55.0,83.0
1341,259.8235053770834,260.07893980208337,60.0,100.0
1342,258.95394137708337,260.1550266520834,48.0,95.0
1343,260.04089637708336,260.19307007708335,55.0,91.0
1344,259.8235053770834,260.31444671875005,67.0,94.0
1345,260.2582873770834,260.3814756104167,60.0,94.0
1346,260.69306937708336,260.9376342520834,61.0,90.0
1347,260.69306937708336,260.9811124520834,65.0,94.0
1348,261.1278513770834,261.35792351875006,61.0,89.0
1349,260.9104603770834,261.7456041354167,56.0,87.0
1350,260.69306937708336,261.80357506875004,49.0,98.0
1351,261.5626333770834,262.0227776604167,65.0,104.0
1352,261.5626333770834,262.0517631270834,61.0,98.0
1353,261.99741537708337,262.1206036104167,56.0,93.0
1354,262.43219737708336,262.73292159375006,60.0,88.0
1355,262.43219737708336,262.84524027708335,63.0,93.0
1356,262.43219737708336,262.97748646875004,67.0,85.0
1357,262.8669793770834,263.1713267770834,60.0,89.0
1358,263.08437037708336,263.17857314375004,63.0,82.0
1359,262.6495883770834,263.38147141041674,55.0,84.0
1360,263.3017613770834,263.59523922708337,60.0,95.0
1361,262.43219737708336,263.6006740020834,48.0,94.0
1362,263.5191523770834,263.67676085208336,55.0,87.0
1363,263.3017613770834,263.73835496875006,63.0,96.0
1364,263.3017613770834,263.84342728541674,67.0,95.0
1365,263.73654337708336,264.04451396041674,48.0,95.0
1366,264.17132537708335,264.8162520104167,65.0,96.0
1367,264.17132537708335,264.84161429375007,58.0,88.0
1368,264.17132537708335,264.84161429375007,61.0,91.0
1369,264.6061073770834,265.2184253604167,53.0,87.0
1370,265.0408893770834,265.33074404375003,61.0,98.0
1371,265.0408893770834,265.3597295104167,58.0,94.0
1372,265.0408893770834,265.3615411020834,65.0,98.0
1373,264.17132537708335,265.38509179375006,46.0,94.0
1374,265.47567137708336,265.8379897104167,61.0,97.0
1375,265.9104533770834,266.0119025104167,39.0,98.0
1376,265.9104533770834,266.2292935104167,58.0,88.0
1377,265.9104533770834,266.31624991041673,63.0,92.0
1378,266.78001737708337,267.53726269375005,58.0,94.0
1379,266.3452353770834,267.5680597520834,51.0,94.0
1380,266.78001737708337,267.58617566875006,63.0,95.0
1381,266.78001737708337,267.5879872604167,67.0,96.0
1382,267.21479937708335,267.5934220354167,55.0,93.0
1383,267.6495813770834,267.9104505770834,56.0,92.0
1384,267.6495813770834,267.98653742708336,63.0,90.0
1385,268.0843633770834,268.37421804375003,56.0,93.0
1386,268.3017543770834,268.41769624375,60.0,92.0
1387,267.86697237708336,268.5952322270834,51.0,81.0
1388,268.51914537708336,268.7836377604167,56.0,99.0
1389,268.51914537708336,268.7836377604167,60.0,102.0
1390,267.6495813770834,268.8216811854167,44.0,95.0
1391,268.51914537708336,268.8343623270834,63.0,97.0
1392,268.7365363770834,268.91044917708336,51.0,91.0
1393,268.9539273770834,269.1278401770834,44.0,93.0
1394,269.3887093770834,269.57349172708336,58.0,91.0
1395,269.3887093770834,269.68399881875007,63.0,94.0
1396,269.3887093770834,269.9249405104167,67.0,93.0
1397,269.82349137708337,270.1332735520834,58.0,94.0
1398,270.0408823770834,270.15682424375007,63.0,89.0
1399,269.60610037708335,270.5227657604167,51.0,82.0
1400,269.3887093770834,270.55718600208337,43.0,91.0
1401,270.25827337708336,270.71660606875,58.0,94.0
1402,270.25827337708336,270.76551904375003,63.0,98.0
1403,270.25827337708336,270.8234899770834,67.0,98.0
1404,270.6930553770834,270.8343595270834,43.0,94.0
1405,271.1278373770834,271.38327180208336,60.0,93.0
1406,271.1278373770834,271.5336339104167,65.0,95.0
1407,271.56261937708337,271.8434160854167,60.0,89.0
1408,271.7800103770834,271.89595224375006,65.0,89.0
1409,271.3452283770834,272.09160414375003,48.0,84.0
1410,271.9974013770834,272.24377784375,60.0,98.0
1411,271.9974013770834,272.2999371854167,65.0,100.0
1412,271.1278373770834,272.3289226520834,41.0,95.0
1413,272.21479237708337,272.3724008520834,48.0,93.0
1414,271.9974013770834,272.4702268020834,68.0,94.0
1415,272.4321833770834,272.5843570770834,60.0,94.0
1416,272.8669653770834,273.2727619104167,60.0,93.0
1417,272.8669653770834,273.37239945208336,63.0,94.0
1418,273.5191383770834,273.59884841041674,60.0,92.0
1419,273.30174737708336,273.80899304375004,55.0,83.0
1420,273.7365293770834,273.9919638020834,60.0,100.0
1421,272.8669653770834,274.0680506520834,48.0,95.0
1422,273.95392037708336,274.10609407708336,55.0,91.0
1423,273.7365293770834,274.22747071875006,67.0,94.0
1424,274.1713113770834,274.2944996104167,60.0,94.0
1425,274.60609337708337,274.85065825208335,61.0,90.0
1426,274.60609337708337,274.8941364520834,65.0,94.0
1427,275.04087537708335,275.27094751875006,61.0,89.0
1428,274.8234843770834,275.65862813541673,56.0,87.0
1429,274.60609337708337,275.71659906875004,49.0,98.0
1430,275.4756573770834,275.9358016604167,65.0,104.0
1431,275.4756573770834,275.96478712708335,61.0,98.0
1432,275.9104393770834,276.0336276104167,56.0,93.0
1433,276.34522137708336,276.64594559375007,60.0,88.0
1434,276.34522137708336,276.75826427708336,63.0,93.0
1435,276.34522137708336,276.89051046875005,67.0,85.0
1436,276.7800033770834,277.0843507770834,60.0,89.0
1437,276.99739437708337,277.09159714375005,63.0,82.0
1438,276.5626123770834,277.2944954104167,55.0,84.0
1439,277.2147853770834,277.5082632270834,60.0,95.0
1440,276.34522137708336,277.5136980020834,48.0,94.0
1441,277.43217637708335,277.58978485208337,55.0,87.0
1442,277.2147853770834,277.65137896875007,63.0,96.0
1443,277.2147853770834,277.7564512854167,67.0,95.0
1444,277.6495673770834,277.9575379604167,48.0,95.0
1445,278.08434937708336,278.37420404375007,58.0,87.0
1446,278.08434937708336,278.4376097520834,61.0,93.0
1447,278.08434937708336,278.48289954375,65.0,94.0
1448,278.5191313770834,278.84521787708337,58.0,93.0
1449,278.3017403770834,278.85608742708337,53.0,83.0
1450,278.08434937708336,278.89050766875005,46.0,94.0
1451,278.9539133770834,279.1713043770834,58.0,94.0
1452,278.9539133770834,279.41224606875005,67.0,86.0
1453,278.9539133770834,279.4158692520834,63.0,94.0
1454,278.9539133770834,279.4194924354167,51.0,98.0
1455,279.38869537708337,279.56623136041674,58.0,93.0
1456,279.82347737708335,280.30354916875007,56.0,89.0
1457,279.82347737708335,280.31079553541673,63.0,85.0
1458,279.82347737708335,280.31441871875006,60.0,88.0
1459,279.82347737708335,280.3506505520834,68.0,89.0
1460,280.47565037708335,280.5770995104167,56.0,85.0
1461,280.2582593770834,280.8162296104167,51.0,80.0
1462,280.6930413770834,280.9647801270834,56.0,94.0
1463,280.6930413770834,280.97383808541673,63.0,87.0
1464,280.6930413770834,280.97746126875006,60.0,93.0
1465,280.6930413770834,281.05717130208336,68.0,93.0
1466,279.82347737708335,281.23470728541673,44.0,99.0
1467,280.9104323770834,281.3162289104167,51.0,82.0
1468,281.12782337708336,281.43398236875004,56.0,90.0
1469,281.3452143770834,281.4738373854167,60.0,88.0
1470,281.5626053770834,282.00463374375005,56.0,87.0
1471,281.5626053770834,282.0136917020834,63.0,84.0
1472,281.5626053770834,282.0553583104167,60.0,95.0
1473,281.5626053770834,282.07528581875005,68.0,89.0
1474,282.2147783770834,282.3325318354167,56.0,85.0
1475,281.9973873770834,282.6151401354167,51.0,89.0
1476,281.5626053770834,282.6966617604167,44.0,104.0
1477,282.43216937708337,282.9104295770834,63.0,95.0
1478,282.43216937708337,282.9194875354167,56.0,94.0
1479,282.43216937708337,282.9448498187501,60.0,99.0
1480,282.43216937708337,282.9484730020834,68.0,93.0
1481,282.86695137708335,283.1549944520834,51.0,89.0
1482,283.3017333770834,283.72745741875,63.0,94.0
1483,283.3017333770834,283.7727472104167,67.0,89.0
1484,283.7365153770834,284.03723959375003,58.0,86.0
1485,283.9539063770834,284.0607902854167,63.0,83.0
1486,283.51912437708336,284.28723924375004,46.0,86.0
1487,284.17129737708336,284.6477459854167,58.0,95.0
1488,284.17129737708336,284.67854304375004,63.0,96.0
1489,283.3017333770834,284.78542695208336,39.0,98.0
1490,284.6060793770834,284.89049926875003,46.0,94.0
1491,284.17129737708336,284.8923108604167,67.0,94.0
1492,284.82347037708337,284.94484701875007,58.0,89.0
1493,285.0408613770834,285.33071604375004,60.0,93.0
1494,285.0408613770834,285.49738247708336,65.0,94.0
1495,285.4756433770834,285.78180236875005,60.0,87.0
1496,285.6930343770834,285.81441101875004,65.0,88.0
1497,285.2582523770834,286.02636724375003,48.0,89.0
1498,285.91042537708336,286.3343378270834,65.0,100.0
1499,285.91042537708336,286.35064215208337,60.0,95.0
1500,285.0408613770834,286.3995551270834,41.0,96.0
1501,285.91042537708336,286.43216377708336,68.0,95.0
1502,286.3452073770834,286.45752606041674,48.0,93.0
1503,286.7799893770834,287.1640468104167,60.0,89.0
1504,286.7799893770834,287.3651334854167,67.0,86.0
1505,287.4321623770834,287.54266946875003,60.0,91.0
1506,287.21477137708337,287.6966547604167,55.0,94.0
1507,287.6495533770834,287.90679939375,60.0,97.0
1508,287.6495533770834,287.96658191875,63.0,97.0
1509,287.86694437708337,288.02998762708336,55.0,93.0
1510,286.7799893770834,288.0462919520834,48.0,98.0
1511,287.6495533770834,288.3107843354167,67.0,98.0
1512,288.0843353770834,288.37962481875,60.0,94.0
1513,288.30172637708336,288.44665371041674,63.0,89.0
1514,288.5191173770834,289.06440646875006,65.0,94.0
1515,288.5191173770834,289.1042614854167,61.0,91.0
1516,288.95389937708336,289.5499130354167,56.0,87.0
1517,288.5191173770834,289.65317376041673,49.0,96.0
1518,289.3886813770834,289.7183910604167,65.0,98.0
1519,289.3886813770834,289.73650697708337,61.0,94.0
1520,289.3886813770834,289.79266631875004,68.0,93.0
1521,289.8234633770834,290.0843325770834,49.0,95.0
1522,290.25824537708337,290.89592564375005,60.0,90.0
1523,290.25824537708337,290.89592564375005,63.0,87.0
1524,290.25824537708337,290.89592564375005,67.0,85.0
1525,290.25824537708337,291.3488235604167,48.0,95.0
1526,290.69302737708335,291.3723742520834,55.0,79.0
1527,291.1278093770834,291.5662145604167,60.0,95.0
1528,291.1278093770834,291.5788957020834,63.0,95.0
1529,291.1278093770834,291.6115043520834,67.0,94.0
1530,291.5625913770834,291.72382303541673,48.0,95.0
1531,291.99737337708336,292.11331524375004,39.0,93.0
1532,291.99737337708336,292.2999091854167,58.0,87.0
1533,291.99737337708336,292.35425693541674,63.0,93.0
1534,291.99737337708336,292.4176626437501,67.0,84.0
1535,293.3017193770834,293.59519722708336,67.0,93.0
1536,293.08432837708335,293.5988204104167,63.0,93.0
1537,292.4321553770834,293.60606677708336,51.0,90.0
1538,292.8669373770834,293.61331314375,58.0,97.0
1539,293.5191103770834,293.65497975208336,70.0,85.0
1540,293.73650137708336,294.18939929375006,75.0,94.0
1541,293.73650137708336,294.26910932708336,70.0,94.0
1542,293.73650137708336,294.30715275208337,63.0,89.0
1543,293.73650137708336,294.30715275208337,67.0,87.0
1544,294.1712833770834,294.76548544375004,58.0,85.0
1545,294.6060653770834,294.7854129520834,63.0,93.0
1546,293.73650137708336,294.8288911520834,51.0,96.0
1547,294.6060653770834,294.9792532604167,67.0,93.0
1548,295.04084737708337,295.2582383770834,63.0,76.0
1549,294.6060653770834,295.4249048104167,70.0,93.0
1550,295.47562937708335,295.66584650208335,68.0,87.0
1551,295.47562937708335,295.70570151875006,63.0,85.0
1552,295.9104113770834,296.06983144375005,51.0,75.0
1553,295.47562937708335,296.1151212354167,44.0,93.0
1554,296.3451933770834,296.5879466604167,60.0,86.0
1555,296.3451933770834,296.62417849375004,63.0,90.0
1556,296.70026534375006,297.0227286604167,56.0,86.0
1557,297.1441053020834,297.3778006270834,60.0,84.0
1558,297.14591689375004,297.4357715604167,63.0,88.0
1559,297.5680177520834,298.0499011354167,56.0,81.0
1560,298.0517127270834,298.2075096104167,60.0,74.0
1561,298.03178521875003,298.2636689520834,63.0,83.0
1562,298.02091566875004,298.35787171875006,68.0,89.0
1563,298.4756251770834,298.7075089104167,56.0,82.0
1564,299.0843199770834,301.11511423541674,51.0,79.0
1565,298.89591444375003,301.1549692520834,44.0,88.0
1566,299.03178381875006,301.63322945208336,56.0,81.0
1567,299.1277981770834,301.6640265104167,60.0,82.0
1568,299.20026184375007,301.66946128541673,63.0,79.0
1569,299.2509864104167,301.69482356875005,68.0,74.0
