,start,end,pitch,velocity
0,23.381055475000004,23.602091662500005,68.0,83.0
1,23.746908475000005,23.978615375000004,70.0,85.0
2,24.112761475000003,24.361236637500003,73.0,85.0
3,24.478614475000004,25.082271925000004,75.0,89.0
4,25.210320475000003,25.896294850000004,73.0,84.0
5,25.942026475000006,26.626476462500005,70.0,83.0
6,26.673732475000005,26.983183137500006,75.0,72.0
7,27.039585475000006,27.278914312500003,77.0,85.0
8,27.405438475000004,27.986230112500007,75.0,86.0
9,28.137144475000007,28.826167625000004,73.0,84.0
10,28.868850475000006,29.506044450000005,68.0,76.0
11,29.600556475000005,29.894763262500007,70.0,85.0
12,29.966409475000006,30.213360250000004,73.0,81.0
13,30.332262475000004,31.225553550000004,75.0,85.0
14,31.429821475000004,31.704211225000005,73.0,83.0
15,31.795674475000006,32.038052087500006,70.0,84.0
16,32.16152747500001,32.429819675000005,68.0,82.0
17,32.52738047500001,32.7926239,70.0,86.0
18,32.893233475,33.52280551250001,77.0,85.0
19,33.624939475000005,35.45115570000001,77.0,83.0
20,35.820057475000006,36.062435087500006,73.0,83.0
21,36.18591047500001,36.70725100000001,75.0,89.0
22,36.91761647500001,37.672188287500006,73.0,85.0
23,37.649322475000005,38.275845737500006,70.0,83.0
24,38.38102847500001,38.59901588750001,75.0,85.0
25,38.74688147500001,38.99535663750001,77.0,80.0
26,39.112734475,39.69962366250001,75.0,89.0
27,39.844440475000006,40.54565872500001,73.0,85.0
28,40.57614647500001,41.18590147500001,68.0,83.0
29,41.307852475000004,41.58071783750001,70.0,78.0
30,41.673705475000006,41.922180637500006,73.0,84.0
31,42.03955847500001,43.09595901250001,75.0,85.0
32,43.13711747500001,43.49534853750001,73.0,78.0
33,43.502970475000005,44.18589607500001,70.0,83.0
34,44.23467647500001,44.934370337500006,77.0,84.0
35,44.96638247500001,46.941988675000005,73.0,85.0
36,47.527353475000005,47.775828637500005,73.0,85.0
37,47.89320647500001,48.49686392500001,75.0,89.0
38,48.62491247500001,49.31088685000001,73.0,84.0
39,49.35661847500001,50.04106846250001,70.0,83.0
40,50.08832447500001,50.397775137500005,75.0,72.0
41,50.45417747500001,50.693506312500006,77.0,85.0
42,50.82003047500001,51.40082211250001,75.0,86.0
43,51.551736475000006,52.24075962500001,73.0,84.0
44,52.28344247500001,52.92063645000001,68.0,76.0
45,53.01514847500001,53.309355262500006,70.0,85.0
46,53.38100147500001,53.62795225000001,73.0,81.0
47,53.746854475000006,54.47551170000001,75.0,85.0
48,54.47856047500001,54.752950225000006,73.0,83.0
49,54.84441347500001,55.08679108750001,70.0,84.0
50,55.21026647500001,55.93892370000001,68.0,82.0
51,55.94197247500001,56.670629700000006,80.0,85.0
52,56.67367847500001,58.49989470000001,77.0,83.0
53,59.23464947500001,59.47702708750001,73.0,83.0
54,59.60050247500001,60.12184300000001,75.0,89.0
55,60.33220847500001,61.08678028750001,73.0,85.0
56,61.06391447500001,61.69043773750001,75.0,83.0
57,61.795620475000014,62.01360788750001,75.0,85.0
58,62.16147347500001,62.40994863750001,73.0,80.0
59,62.52732647500001,63.11421566250001,75.0,89.0
60,63.25903247500001,63.96025072500001,77.0,85.0
61,63.99073847500001,64.60049347500001,77.0,83.0
62,64.72244447500002,64.99530983750002,75.0,78.0
63,65.088297475,65.3367726375,73.0,84.0
64,65.454150475,66.18280770000001,70.0,85.0
65,66.18585647500001,66.91451370000001,77.0,78.0
66,66.91756247500001,67.28036670000002,75.0,83.0
67,67.28341547500001,67.61878072500001,73.0,79.0
68,67.64926847500001,67.9754874,70.0,84.0
69,68.01512147500002,71.30474970000002,73.0,83.0
70,73.502916475,73.78797693750002,73.0,85.0
71,73.86876947500001,74.19193962500002,75.0,89.0
72,74.23462247500001,74.96023092500002,77.0,84.0
73,74.96632847500001,75.51815675000002,82.0,86.0
74,75.69803447500001,76.01815585000001,80.0,86.0
75,76.06388747500002,76.38096007500002,77.0,85.0
76,76.42974047500002,76.76358133750001,75.0,85.0
77,76.79559347500002,77.19498300000001,73.0,84.0
78,77.16144647500002,77.90077441250001,75.0,92.0
79,77.89315247500001,78.53491961250002,77.0,84.0
80,78.62485847500001,79.22089398750002,77.0,85.0
81,79.35656447500001,79.65686881250001,75.0,92.0
82,79.72241747500001,80.01357548750002,73.0,85.0
83,80.08827047500002,80.38400165000002,70.0,86.0
84,80.45412347500002,80.69040353750002,82.0,85.0
85,80.81997647500002,81.08826867500001,82.0,84.0
86,81.18582947500002,81.42820708750001,82.0,84.0
87,81.55168247500002,81.79406008750001,80.0,84.0
88,81.91753547500001,82.25442511250002,77.0,87.0
89,82.28338847500001,82.59588791250002,75.0,92.0
90,82.64924147500001,83.31997197500002,80.0,85.0
91,83.38094747500001,84.97088363750001,77.0,87.0
92,85.21021247500002,85.49527293750002,73.0,85.0
93,85.57606547500002,85.89923562500002,75.0,89.0
94,85.94191847500001,86.66752692500002,77.0,84.0
95,86.67362447500001,87.22545275000002,82.0,86.0
96,87.40533047500001,87.72545185000001,80.0,86.0
97,87.77118347500002,88.08825607500002,77.0,85.0
98,88.13703647500002,88.47087733750001,75.0,85.0
99,88.50288947500002,88.90227900000002,73.0,84.0
100,88.86874247500002,89.60807041250001,75.0,92.0
101,89.60044847500002,90.24221561250002,77.0,84.0
102,90.33215447500001,90.92818998750002,77.0,85.0
103,91.06386047500001,91.36416481250002,75.0,92.0
104,91.42971347500001,91.72087148750002,73.0,85.0
105,91.79556647500002,92.09129765000002,70.0,86.0
106,92.16141947500002,92.39769953750002,77.0,85.0
107,92.52727247500002,92.79556467500002,77.0,84.0
108,92.89312547500002,93.13550308750001,77.0,84.0
109,93.25897847500002,93.98763570000001,75.0,84.0
110,93.99068447500002,94.32604972500002,73.0,84.0
111,94.35653747500001,94.74373190000001,70.0,83.0
112,94.72239047500001,95.44037698750002,75.0,85.0
113,95.45409647500001,97.58519020000001,73.0,83.0
114,108.25895147500002,108.47998766250002,68.0,83.0
115,108.62480447500002,108.85651137500003,70.0,85.0
116,108.99065747500002,109.23913263750002,73.0,85.0
117,109.35651047500002,109.96016792500002,75.0,89.0
118,110.08821647500002,110.77419085000002,73.0,84.0
119,110.81992247500001,111.50437246250002,70.0,83.0
120,111.55162847500002,111.86107913750001,75.0,72.0
121,111.91748147500002,112.15681031250001,77.0,85.0
122,112.28333447500002,112.86412611250002,75.0,86.0
123,113.01504047500002,113.70406362500002,73.0,84.0
124,113.74674647500002,114.38394045000003,68.0,76.0
125,114.47845247500003,114.77265926250001,70.0,85.0
126,114.84430547500001,115.09125625000001,73.0,81.0
127,115.21015847500001,116.10344955000002,75.0,85.0
128,116.30771747500002,116.58210722500002,73.0,83.0
129,116.67357047500002,116.91594808750003,70.0,84.0
130,117.03942347500002,117.30771567500003,68.0,82.0
131,117.40527647500002,117.67051990000002,70.0,86.0
132,117.77112947500002,118.40070151250002,77.0,85.0
133,118.50283547500003,120.32905170000002,77.0,83.0
134,120.69795347500002,120.94033108750003,73.0,83.0
135,121.06380647500002,121.58514700000002,75.0,89.0
136,121.79551247500002,122.55008428750003,73.0,85.0
137,122.52721847500003,123.15374173750003,70.0,83.0
138,123.25892447500001,123.47691188750002,75.0,85.0
139,123.62477747500002,123.87325263750002,77.0,80.0
140,123.99063047500002,124.57751966250002,75.0,89.0
141,124.72233647500002,125.42355472500002,73.0,85.0
142,125.45404247500002,126.06379747500002,68.0,83.0
143,126.18574847500003,126.45861383750002,70.0,78.0
144,126.55160147500003,126.80007663750003,73.0,84.0
145,126.91745447500003,127.97385501250002,75.0,85.0
146,128.01501347500002,128.37324453750003,73.0,78.0
147,128.38086647500003,129.063792075,70.0,83.0
148,129.11257247500004,129.81226633750003,77.0,84.0
149,129.844278475,131.81988467500003,73.0,85.0
150,132.40524947500003,132.65372463750003,73.0,85.0
151,132.77110247500002,133.37475992500003,75.0,89.0
152,133.50280847500002,134.18878285000002,73.0,84.0
153,134.23451447500003,134.9189644625,70.0,83.0
154,134.96622047500003,135.2756711375,75.0,72.0
155,135.33207347500002,135.57140231250003,77.0,85.0
156,135.69792647500003,136.27871811250003,75.0,86.0
157,136.42963247500003,137.11865562500003,73.0,84.0
158,137.16133847500004,137.79853245,68.0,76.0
159,137.893044475,138.1872512625,70.0,85.0
160,138.25889747500003,138.50584825,73.0,81.0
161,138.624750475,139.35340770000002,75.0,85.0
162,139.35645647500002,139.63084622500003,73.0,83.0
163,139.72230947500003,139.9646870875,70.0,84.0
164,140.08816247500002,140.81681970000002,68.0,82.0
165,140.81986847500002,141.54852570000003,80.0,85.0
166,141.55157447500002,143.37779070000002,77.0,83.0
167,144.11254547500002,144.35492308750003,73.0,83.0
168,144.47839847500003,144.99973900000003,75.0,89.0
169,145.21010447500004,145.96467628750003,73.0,85.0
170,145.94181047500004,146.5683337375,75.0,83.0
171,146.673516475,146.89150388750002,75.0,85.0
172,147.03936947500003,147.28784463750003,73.0,80.0
173,147.40522247500002,147.99211166250004,75.0,89.0
174,148.13692847500002,148.83814672500003,77.0,85.0
175,148.86863447500002,149.47838947500003,77.0,83.0
176,149.60034047500002,149.87320583750002,75.0,78.0
177,149.96619347500004,150.21466863750004,73.0,84.0
178,150.33204647500003,151.06070370000003,70.0,85.0
179,151.06375247500003,151.79240970000004,77.0,78.0
180,151.79545847500003,152.15826270000002,75.0,83.0
181,152.16131147500002,152.49667672500001,73.0,79.0
182,152.52716447500003,152.8533834,70.0,84.0
183,152.89301747500002,156.18264570000002,73.0,83.0
184,158.38081247500003,158.66587293750004,73.0,85.0
185,158.74666547500001,159.06983562500002,75.0,89.0
186,159.11251847500003,159.83812692500004,77.0,84.0
187,159.84422447500003,160.39605275000002,82.0,86.0
188,160.57593047500004,160.89605185000002,80.0,86.0
189,160.94178347500002,161.25885607500004,77.0,85.0
190,161.30763647500004,161.64147733750002,75.0,85.0
191,161.67348947500003,162.07287900000003,73.0,84.0
192,162.03934247500004,162.77867041250002,75.0,92.0
193,162.77104847500001,163.41281561250003,77.0,84.0
194,163.50275447500002,164.09878998750003,77.0,85.0
195,164.23446047500002,164.53476481250001,75.0,92.0
196,164.60031347500004,164.89147148750004,73.0,85.0
197,164.96616647500002,165.26189765000004,70.0,86.0
198,165.33201947500004,165.56829953750002,82.0,85.0
199,165.69787247500003,165.96616467500002,82.0,84.0
200,166.06372547500004,166.30610308750002,82.0,84.0
201,166.42957847500003,166.67195608750004,80.0,84.0
202,166.79543147500002,167.13232111250002,77.0,87.0
203,167.16128447500003,167.47378391250004,75.0,92.0
204,167.52713747500002,168.19786797500004,80.0,85.0
205,168.25884347500002,169.84877963750003,77.0,87.0
206,170.08810847500004,170.37316893750003,73.0,85.0
207,170.45396147500003,170.77713162500004,75.0,89.0
208,170.81981447500004,171.54542292500003,77.0,84.0
209,171.55152047500002,172.10334875000004,82.0,86.0
210,172.28322647500002,172.60334785000003,80.0,86.0
211,172.64907947500004,172.96615207500002,77.0,85.0
212,173.01493247500002,173.34877333750003,75.0,85.0
213,173.38078547500004,173.78017500000004,73.0,84.0
214,173.74663847500003,174.48596641250003,75.0,92.0
215,174.47834447500003,175.12011161250004,77.0,84.0
216,175.21005047500003,175.80608598750004,77.0,85.0
217,175.94175647500003,176.24206081250003,75.0,92.0
218,176.30760947500002,176.59876748750003,73.0,85.0
219,176.67346247500004,176.96919365000002,70.0,86.0
220,177.03931547500002,177.27559553750004,77.0,85.0
221,177.40516847500004,177.67346067500003,77.0,84.0
222,177.77102147500003,178.01339908750003,77.0,84.0
223,178.13687447500004,178.86553170000002,75.0,84.0
224,178.86858047500004,179.20394572500004,73.0,84.0
225,179.23443347500003,179.62162790000002,70.0,83.0
226,179.60028647500002,180.31827298750002,75.0,85.0
227,180.33199247500002,181.42650270000004,73.0,83.0
228,181.79540447500003,182.08046493750004,73.0,85.0
229,182.16125747500004,182.48442762500002,75.0,89.0
230,182.52711047500003,183.25271892500004,77.0,84.0
231,183.25881647500003,183.81064475000002,82.0,86.0
232,183.99052247500003,184.31064385000002,80.0,86.0
233,184.35637547500002,184.67344807500004,77.0,85.0
234,184.72222847500004,185.05606933750002,75.0,85.0
235,185.08808147500002,185.48747100000003,73.0,84.0
236,185.45393447500004,186.19326241250002,75.0,92.0
237,186.18564047500004,186.82740761250002,77.0,84.0
238,186.91734647500004,187.51338198750003,77.0,85.0
239,187.64905247500002,187.94935681250004,75.0,92.0
240,188.01490547500003,188.30606348750004,73.0,85.0
241,188.38075847500002,188.67648965000004,70.0,86.0
242,188.74661147500004,188.98289153750002,82.0,85.0
243,189.11246447500002,189.38075667500004,82.0,84.0
244,189.47831747500004,189.72069508750002,82.0,84.0
245,189.84417047500003,190.08654808750003,80.0,84.0
246,190.21002347500004,190.54691311250002,77.0,87.0
247,190.57587647500003,190.88837591250004,75.0,92.0
248,190.94172947500005,191.61245997500004,80.0,85.0
249,191.67343547500002,193.26337163750003,77.0,87.0
250,193.50270047500004,193.78776093750002,73.0,85.0
251,193.86855347500003,194.19172362500004,75.0,89.0
252,194.23440647500004,194.96001492500002,77.0,84.0
253,194.96611247500005,195.51794075000004,82.0,86.0
254,195.69781847500005,196.01793985000003,80.0,86.0
255,196.06367147500004,196.38074407500002,77.0,85.0
256,196.42952447500002,196.76336533750003,75.0,85.0
257,196.79537747500004,197.19476700000004,73.0,84.0
258,197.16123047500002,197.90055841250003,75.0,92.0
259,197.89293647500003,198.53470361250004,77.0,84.0
260,198.62464247500003,199.22067798750004,77.0,85.0
261,199.35634847500003,199.65665281250003,75.0,92.0
262,199.72220147500005,200.01335948750003,73.0,85.0
263,200.08805447500004,200.38378565000002,70.0,86.0
264,200.45390747500002,200.69018753750004,77.0,85.0
265,200.81976047500004,201.08805267500003,77.0,84.0
266,201.18561347500003,201.42799108750003,77.0,84.0
267,201.55146647500004,202.28012370000005,75.0,84.0
268,202.28317247500004,202.61853772500004,73.0,84.0
269,202.64902547500003,203.03621990000005,70.0,83.0
270,203.01487847500005,203.73286498750002,75.0,85.0
271,203.74658447500005,205.87767820000005,73.0,83.0
