,start,end,pitch,velocity
0,1.0640224750000002,1.5289606625000003,54.0,65.0
1,1.0640224750000002,1.8048748000000003,61.0,64.0
2,1.4298754750000002,2.1859716750000002,49.0,48.0
3,1.0640224750000002,2.2698129875000004,42.0,51.0
4,1.7957284750000002,2.3246909375,58.0,60.0
5,2.161581475,2.3353616500000003,54.0,57.0
6,2.5274344750000006,3.0457262250000006,56.0,56.0
7,2.5274344750000006,3.3460305625000006,63.0,56.0
8,3.2591404750000006,3.4237743250000006,56.0,48.0
9,2.8932874750000006,3.4359694250000006,51.0,53.0
10,2.5274344750000006,3.4877986000000005,44.0,56.0
11,3.9908464750000006,4.390236000000001,56.0,56.0
12,3.9908464750000006,4.713406150000001,60.0,56.0
13,3.9908464750000006,4.885661937500001,41.0,56.0
14,4.356699475000001,4.905478975000001,48.0,54.0
15,4.7225524750000005,5.256088100000001,56.0,54.0
16,5.454258475000001,5.954257575000001,58.0,51.0
17,5.454258475000001,6.025903787500001,61.0,51.0
18,6.185964475000001,6.419195762500001,58.0,62.0
19,6.185964475000001,6.576207675000001,65.0,69.0
20,5.820111475000001,6.6844391875000015,53.0,58.0
21,5.454258475000001,6.7347439750000015,46.0,51.0
22,6.551817475000001,6.824682837500001,63.0,66.0
23,6.917670475000001,7.329255100000001,58.0,56.0
24,6.917670475000001,7.711876362500002,63.0,66.0
25,6.917670475000001,7.727120237500001,51.0,68.0
26,7.283523475000001,7.7682787000000015,54.0,44.0
27,7.649376475000001,7.8444980750000015,58.0,60.0
28,8.381082475000001,8.836874337500001,56.0,59.0
29,8.381082475000001,9.146325000000001,63.0,63.0
30,9.112788475000002,9.559434012500002,56.0,64.0
31,8.746935475,9.626507062500002,51.0,55.0
32,8.381082475000001,9.641750937500001,44.0,63.0
33,9.478641475000002,9.756080000000003,61.0,57.0
34,9.844494475000001,10.638700362500002,65.0,70.0
35,9.844494475000001,11.155467725000001,49.0,66.0
36,10.576200475000002,11.167662825000003,56.0,65.0
37,10.210347475000003,11.172235987500002,53.0,54.0
38,10.942053475000002,11.204248125000001,63.0,57.0
39,11.307906475000001,11.493881750000002,56.0,64.0
40,11.673759475000002,11.963393100000003,56.0,66.0
41,11.307906475000001,12.024368600000003,65.0,69.0
42,12.039612475000002,12.230160912500002,56.0,69.0
43,12.039612475000002,12.391745987500002,61.0,64.0
44,11.307906475000001,12.503026275000002,49.0,70.0
45,12.405465475000002,12.535038412500002,59.0,53.0
46,12.771318475000003,13.551804875000002,58.0,63.0
47,12.771318475000003,13.879548187500003,42.0,69.0
48,13.503024475000002,13.890218900000002,61.0,69.0
49,13.137171475000002,13.925279812500003,49.0,61.0
50,12.771318475000003,14.035035712500003,66.0,67.0
51,13.868877475000003,14.054852750000002,58.0,61.0
52,14.234730475000003,15.056375337500002,60.0,58.0
53,14.600583475000002,15.285033462500003,51.0,66.0
54,14.234730475000003,15.367350387500002,44.0,68.0
55,14.966436475000002,15.484728225000003,63.0,66.0
56,14.234730475000003,15.592959737500003,68.0,51.0
57,15.698142475000003,16.414604600000004,68.0,69.0
58,16.063995475000002,16.545701925000003,48.0,64.0
59,15.698142475000003,16.554848250000003,41.0,70.0
60,16.429848475000004,16.797225862500003,65.0,68.0
61,16.795701475,17.074664387500004,63.0,68.0
62,17.161554475000003,17.437468612500002,61.0,59.0
63,17.161554475000003,17.617346337500003,65.0,68.0
64,17.893260475,18.134113700000004,58.0,60.0
65,17.893260475,18.239296437500002,61.0,64.0
66,17.527407475000004,18.278930512500004,53.0,61.0
67,17.161554475000003,18.303320712500003,46.0,68.0
68,18.259113475000003,18.525881287500003,60.0,62.0
69,18.624966475000004,19.123441187500003,58.0,57.0
70,18.624966475000004,19.253014125000004,63.0,61.0
71,18.990819475000002,19.4588064375,46.0,54.0
72,18.624966475000004,19.480147862500004,39.0,70.0
73,19.356672475000003,19.896305650000002,61.0,62.0
74,20.088378475000003,20.519780137500003,56.0,58.0
75,20.088378475000003,20.733194387500003,63.0,64.0
76,20.454231475000004,21.254534912500002,51.0,62.0
77,20.820084475000005,21.295693375000003,56.0,70.0
78,20.088378475000003,21.309412862500004,44.0,68.0
79,21.551790475000004,21.739290137500003,56.0,60.0
80,21.551790475000004,21.951180000000004,61.0,62.0
81,21.917643475000006,22.265203825000004,56.0,67.0
82,22.283496475000003,22.635629987500003,61.0,61.0
83,22.649349475000005,22.698129875000003,61.0,34.0
84,22.283496475000003,22.759105375000004,66.0,64.0
85,22.649349475000005,23.071604812500006,56.0,68.0
86,23.015202475000002,23.664591550000004,61.0,68.0
87,23.015202475000002,23.859713150000005,65.0,68.0
88,23.746908475000005,23.977090987500006,56.0,64.0
89,21.551790475000004,24.411541425000003,37.0,64.0
90,24.112761475000003,24.416114587500005,56.0,66.0
91,23.746908475000005,24.431358462500004,61.0,64.0
92,24.478614475000004,24.943552662500004,54.0,65.0
93,24.478614475000004,25.219466800000003,61.0,64.0
94,24.844467475000005,25.600563675000004,49.0,48.0
95,24.478614475000004,25.684404987500006,42.0,68.0
96,25.210320475000003,25.739282937500004,58.0,60.0
97,25.576173475000004,25.749953650000005,54.0,57.0
98,25.942026475000006,26.460318225000005,56.0,55.0
99,25.942026475000006,26.760622562500004,63.0,57.0
100,26.673732475000005,26.838366325000006,56.0,66.0
101,26.307879475000004,26.850561425000006,51.0,53.0
102,25.942026475000006,26.902390600000004,44.0,65.0
103,27.405438475000004,27.804828000000004,56.0,57.0
104,27.405438475000004,28.127998150000003,60.0,60.0
105,27.405438475000004,28.300253937500006,41.0,68.0
106,27.771291475000005,28.320070975000004,48.0,54.0
107,28.137144475000007,28.670680100000006,56.0,71.0
108,28.868850475000006,29.368849575000006,58.0,56.0
109,28.868850475000006,29.440495787500005,61.0,63.0
110,29.600556475000005,29.833787762500005,58.0,62.0
111,29.600556475000005,29.990799675000005,65.0,69.0
112,29.234703475000003,30.099031187500007,53.0,58.0
113,28.868850475000006,30.149335975000007,46.0,68.0
114,29.966409475000006,30.239274837500005,63.0,66.0
115,30.332262475000004,30.743847100000007,58.0,56.0
116,30.332262475000004,31.126468362500006,63.0,66.0
117,30.332262475000004,31.141712237500006,51.0,68.0
118,30.698115475000005,31.182870700000006,54.0,44.0
119,31.063968475000006,31.259090075000007,58.0,60.0
120,31.795674475000006,32.251466337500005,56.0,59.0
121,31.795674475000006,32.560917,63.0,63.0
122,32.52738047500001,32.974026012500005,56.0,64.0
123,32.16152747500001,33.0410990625,51.0,55.0
124,31.795674475000006,33.056342937500006,44.0,63.0
125,32.893233475,33.170672,61.0,57.0
126,33.259086475000004,34.05329236250001,65.0,70.0
127,33.259086475000004,34.57005972500001,49.0,66.0
128,33.990792475000006,34.58225482500001,56.0,65.0
129,33.624939475000005,34.58682798750001,53.0,54.0
130,34.35664547500001,34.618840125000006,63.0,57.0
131,34.72249847500001,34.908473750000006,56.0,64.0
132,35.088351475,35.377985100000004,56.0,66.0
133,34.72249847500001,35.43896060000001,65.0,69.0
134,35.454204475000004,35.6447529125,56.0,69.0
135,35.454204475000004,35.80633798750001,61.0,64.0
136,34.72249847500001,35.91761827500001,49.0,70.0
137,35.820057475000006,35.94963041250001,59.0,53.0
138,36.18591047500001,36.96639687500001,58.0,63.0
139,36.18591047500001,37.294140187500005,42.0,69.0
140,36.91761647500001,37.30481090000001,61.0,69.0
141,36.55176347500001,37.33987181250001,49.0,61.0
142,36.18591047500001,37.4496277125,66.0,67.0
143,37.283469475000004,37.46944475000001,58.0,61.0
144,37.649322475000005,38.47096733750001,60.0,58.0
145,38.01517547500001,38.69962546250001,51.0,66.0
146,37.649322475000005,38.78194238750001,44.0,68.0
147,38.38102847500001,38.899320225000004,63.0,66.0
148,37.649322475000005,39.00755173750001,68.0,51.0
149,39.112734475,39.82919660000001,68.0,69.0
150,39.478587475000005,39.96029392500001,48.0,64.0
151,39.112734475,39.969440250000005,41.0,70.0
152,39.844440475000006,40.211817862500006,65.0,68.0
153,40.21029347500001,40.489256387500006,63.0,68.0
154,40.57614647500001,40.852060612500004,61.0,59.0
155,40.57614647500001,41.03193833750001,65.0,68.0
156,41.307852475000004,41.548705700000006,58.0,60.0
157,41.307852475000004,41.65388843750001,61.0,64.0
158,40.94199947500001,41.69352251250001,53.0,61.0
159,40.57614647500001,41.71791271250001,46.0,68.0
160,41.673705475000006,41.940473287500005,60.0,62.0
161,42.03955847500001,42.538033187500005,58.0,57.0
162,42.03955847500001,42.667606125000006,63.0,61.0
163,42.40541147500001,42.87339843750001,46.0,54.0
164,42.03955847500001,42.89473986250001,39.0,70.0
165,42.77126447500001,43.31089765000001,61.0,62.0
166,43.502970475000005,43.934372137500006,56.0,58.0
167,43.502970475000005,44.147786387500005,63.0,64.0
168,43.868823475000006,44.669126912500005,51.0,62.0
169,44.23467647500001,44.710285375000005,56.0,70.0
170,43.502970475000005,44.72400486250001,44.0,68.0
171,44.96638247500001,45.153882137500005,56.0,60.0
172,44.96638247500001,45.36577200000001,61.0,62.0
173,45.332235475000004,45.67979582500001,56.0,67.0
174,45.698088475000006,46.05022198750001,61.0,61.0
175,46.06394147500001,46.112721875000005,61.0,34.0
176,45.698088475000006,46.17369737500001,66.0,64.0
177,46.06394147500001,46.486196812500005,56.0,68.0
178,46.42979447500001,47.07918355000001,61.0,68.0
179,46.42979447500001,47.27430515000001,65.0,68.0
180,47.16150047500001,47.391682987500005,56.0,64.0
181,44.96638247500001,47.82613342500001,37.0,64.0
182,47.527353475000005,47.83070658750001,56.0,66.0
183,47.16150047500001,47.84595046250001,61.0,64.0
184,47.89320647500001,48.35814466250001,54.0,65.0
185,47.89320647500001,48.634058800000005,61.0,64.0
186,48.25905947500001,49.01515567500001,49.0,48.0
187,47.89320647500001,49.09899698750001,42.0,68.0
188,48.62491247500001,49.15387493750001,58.0,60.0
189,48.99076547500001,49.16454565000001,54.0,57.0
190,49.35661847500001,49.87491022500001,56.0,55.0
191,49.35661847500001,50.17521456250001,63.0,57.0
192,50.08832447500001,50.25295832500001,56.0,66.0
193,49.722471475000006,50.26515342500001,51.0,53.0
194,49.35661847500001,50.31698260000001,44.0,65.0
195,50.82003047500001,51.21942000000001,56.0,57.0
196,50.82003047500001,51.54259015000001,60.0,60.0
197,50.82003047500001,51.71484593750001,41.0,68.0
198,51.18588347500001,51.734662975000006,48.0,54.0
199,51.551736475000006,52.08527210000001,56.0,71.0
200,52.28344247500001,52.78344157500001,58.0,56.0
201,52.28344247500001,52.85508778750001,61.0,63.0
202,53.01514847500001,53.24837976250001,58.0,62.0
203,53.01514847500001,53.40539167500001,65.0,69.0
204,52.64929547500001,53.51362318750001,53.0,58.0
205,52.28344247500001,53.56392797500001,46.0,68.0
206,53.38100147500001,53.65386683750001,63.0,66.0
207,53.746854475000006,54.15843910000001,58.0,56.0
208,53.746854475000006,54.54106036250001,63.0,66.0
209,53.746854475000006,54.55630423750001,51.0,68.0
210,54.11270747500001,54.59746270000001,54.0,44.0
211,54.47856047500001,54.67368207500001,58.0,60.0
212,55.21026647500001,55.66605833750001,56.0,59.0
213,55.21026647500001,55.97550900000001,63.0,63.0
214,55.94197247500001,56.38861801250001,56.0,64.0
215,55.57611947500001,56.45569106250001,51.0,55.0
216,55.21026647500001,56.47093493750001,44.0,63.0
217,56.30782547500001,56.58526400000001,61.0,57.0
218,56.67367847500001,57.46788436250001,65.0,70.0
219,56.67367847500001,57.98465172500001,49.0,66.0
220,57.40538447500001,57.99684682500001,56.0,65.0
221,57.03953147500001,58.00141998750001,53.0,54.0
222,57.77123747500001,58.03343212500001,63.0,57.0
223,58.13709047500001,58.32306575000001,56.0,64.0
224,58.50294347500001,58.79257710000001,56.0,66.0
225,58.13709047500001,58.85355260000001,65.0,69.0
226,58.86879647500001,59.05934491250001,56.0,69.0
227,58.86879647500001,59.22092998750001,61.0,64.0
228,58.13709047500001,59.33221027500001,49.0,70.0
229,59.23464947500001,59.36422241250001,59.0,53.0
230,59.60050247500001,60.38098887500001,58.0,63.0
231,59.60050247500001,60.70873218750001,42.0,69.0
232,60.33220847500001,60.71940290000001,61.0,69.0
233,59.96635547500001,60.75446381250001,49.0,61.0
234,59.60050247500001,60.86421971250001,66.0,67.0
235,60.69806147500001,60.88403675000001,58.0,61.0
236,61.06391447500001,61.88555933750001,60.0,58.0
237,61.42976747500001,62.11421746250001,51.0,66.0
238,61.06391447500001,62.19653438750001,44.0,68.0
239,61.795620475000014,62.31391222500001,63.0,66.0
240,61.06391447500001,62.42214373750001,68.0,51.0
241,62.52732647500001,63.24378860000001,68.0,69.0
242,62.89317947500001,63.37488592500001,48.0,64.0
243,62.52732647500001,63.38403225000001,41.0,70.0
244,63.25903247500001,63.62640986250001,65.0,68.0
245,63.62488547500001,63.90384838750001,63.0,68.0
246,63.99073847500001,64.26665261250001,61.0,59.0
247,63.99073847500001,64.44653033750001,65.0,68.0
248,64.72244447500002,64.96329770000001,58.0,60.0
249,64.72244447500002,65.06848043750001,61.0,64.0
250,64.35659147500002,65.10811451250001,53.0,61.0
251,63.99073847500001,65.13250471250001,46.0,68.0
252,65.088297475,65.35506528750001,60.0,62.0
253,65.454150475,65.95262518750002,58.0,57.0
254,65.454150475,66.082198125,63.0,61.0
255,65.82000347500001,66.28799043750001,46.0,54.0
256,65.454150475,66.30933186250002,39.0,70.0
257,66.18585647500001,66.72548965000001,61.0,62.0
258,66.91756247500001,67.3489641375,56.0,58.0
259,66.91756247500001,67.56237838750002,63.0,64.0
260,67.28341547500001,68.08371891250002,51.0,62.0
261,67.64926847500001,68.12487737500001,56.0,70.0
262,66.91756247500001,68.13859686250001,44.0,68.0
263,68.38097447500002,68.56847413750002,56.0,60.0
264,68.38097447500002,68.780364,61.0,62.0
265,68.74682747500002,69.09438782500001,56.0,67.0
266,69.11268047500002,69.46481398750001,61.0,61.0
267,69.478533475,69.52731387500002,61.0,34.0
268,69.11268047500002,69.58828937500002,66.0,64.0
269,69.478533475,69.90078881250001,56.0,68.0
270,69.84438647500001,70.49377555000001,61.0,68.0
271,69.84438647500001,70.68889715000002,65.0,68.0
272,70.57609247500001,70.80627498750002,56.0,64.0
273,68.38097447500002,71.24072542500001,37.0,64.0
274,70.94194547500001,71.24529858750002,56.0,66.0
275,70.57609247500001,71.26054246250001,61.0,64.0
276,71.30779847500001,71.71938310000002,63.0,71.0
277,71.30779847500001,71.86724868750001,56.0,75.0
278,72.03950447500002,72.24986995000002,56.0,73.0
279,72.03950447500002,72.26816260000001,60.0,78.0
280,72.40535747500002,72.6263936625,56.0,62.0
281,72.40535747500002,72.6629789625,60.0,67.0
282,71.30779847500001,72.89011270000002,44.0,91.0
283,71.67365147500001,72.90535657500001,51.0,64.0
284,72.77121047500002,73.05017338750001,56.0,75.0
285,72.77121047500002,73.10657572500001,68.0,76.0
286,72.77121047500002,73.11114888750001,63.0,69.0
287,72.77121047500002,73.14925857500002,60.0,77.0
288,73.13706347500002,73.32913630000002,56.0,65.0
289,73.502916475,74.17822013750002,56.0,69.0
290,73.502916475,74.19346401250002,60.0,77.0
291,73.502916475,74.20565911250002,63.0,74.0
292,74.23462247500001,74.67821923750002,61.0,68.0
293,74.23462247500001,74.698036275,66.0,68.0
294,74.60047547500001,75.12334038750001,49.0,53.0
295,74.23462247500001,75.12943793750001,42.0,70.0
296,74.96632847500001,75.41754717500001,61.0,68.0
297,75.33218147500001,75.52577868750001,42.0,68.0
298,74.96632847500001,75.58675418750002,66.0,69.0
299,74.96632847500001,75.61876632500001,70.0,64.0
300,75.69803447500001,76.09742400000002,68.0,61.0
301,75.69803447500001,76.10352155000001,63.0,67.0
302,76.06388747500002,76.50748423750001,51.0,59.0
303,75.69803447500001,76.58217922500002,44.0,70.0
304,76.42974047500002,76.59132555000001,63.0,65.0
305,76.42974047500002,76.91602008750002,72.0,69.0
306,76.42974047500002,77.01967843750002,68.0,68.0
307,76.79559347500002,77.04101986250001,63.0,50.0
308,77.16144647500002,77.20260493750001,63.0,45.0
309,77.16144647500002,77.31998277500001,65.0,48.0
310,77.16144647500002,77.67364067500002,68.0,63.0
311,77.527299475,78.03034735000001,48.0,62.0
312,77.89315247500001,78.24833476250001,65.0,72.0
313,77.89315247500001,78.27120057500001,72.0,71.0
314,77.16144647500002,78.32607852500001,41.0,70.0
315,78.25900547500001,78.39162718750002,48.0,69.0
316,78.62485847500001,78.87333363750001,70.0,59.0
317,78.62485847500001,78.91906526250001,73.0,67.0
318,78.99071147500001,79.14467461250001,72.0,69.0
319,78.62485847500001,79.26967438750002,46.0,68.0
320,79.35656447500001,79.54711291250001,53.0,61.0
321,79.35656447500001,79.59894208750002,46.0,27.0
322,79.35656447500001,79.73461257500001,68.0,69.0
323,79.72241747500001,79.87180745000002,65.0,69.0
324,80.08827047500002,80.56235498750002,63.0,68.0
325,80.08827047500002,80.56845253750001,66.0,67.0
326,80.45412347500002,80.90991533750001,46.0,49.0
327,80.81997647500002,80.97393961250002,63.0,68.0
328,80.08827047500002,81.03643950000001,39.0,71.0
329,80.81997647500002,81.25290252500001,70.0,64.0
330,80.81997647500002,81.26357323750001,66.0,69.0
331,81.18582947500002,81.39162178750001,63.0,60.0
332,81.55168247500002,82.03338892500001,63.0,68.0
333,81.55168247500002,82.06997422500001,68.0,64.0
334,82.28338847500001,82.43735161250001,63.0,71.0
335,82.28338847500001,82.45259548750002,68.0,70.0
336,81.91753547500001,82.46783936250002,51.0,61.0
337,81.55168247500002,82.56082700000002,44.0,69.0
338,82.64924147500001,82.88552153750001,63.0,63.0
339,82.64924147500001,82.92820438750002,66.0,69.0
340,83.01509447500001,83.11875282500002,37.0,66.0
341,83.01509447500001,83.55777642500001,61.0,63.0
342,83.01509447500001,83.56997152500001,65.0,65.0
343,83.74680047500001,84.14771438750002,66.0,69.0
344,83.74680047500001,84.15228755000001,61.0,68.0
345,83.38094747500001,84.38094567500002,49.0,61.0
346,84.11265347500002,84.45411627500002,56.0,68.0
347,84.47850647500002,84.87942038750002,68.0,69.0
348,84.47850647500002,84.89618865000001,65.0,73.0
349,84.84435947500002,85.32149276250001,56.0,71.0
350,84.47850647500002,85.33063908750002,49.0,75.0
351,85.21021247500002,85.57149231250001,61.0,70.0
352,85.21021247500002,85.63551658750002,65.0,74.0
353,85.57606547500002,85.68277260000002,49.0,71.0
354,85.94191847500001,86.41447860000001,66.0,60.0
355,85.94191847500001,86.45258828750002,70.0,60.0
356,86.67362447500001,86.82911200000001,66.0,69.0
357,86.30777147500001,86.93429473750001,49.0,64.0
358,85.94191847500001,86.97850197500001,42.0,67.0
359,87.03947747500001,87.29709896250002,66.0,66.0
360,86.67362447500001,87.34130620000002,70.0,69.0
361,86.67362447500001,87.35350130000002,73.0,69.0
362,87.40533047500001,87.85197601250002,72.0,68.0
363,87.40533047500001,87.88703692500002,68.0,66.0
364,88.13703647500002,88.33063368750001,68.0,64.0
365,87.77118347500002,88.34130440000001,51.0,64.0
366,87.40533047500001,88.45106030000001,44.0,69.0
367,88.13703647500002,88.51813335000001,75.0,69.0
368,88.13703647500002,88.75441341250001,72.0,66.0
369,88.50288947500002,88.76660851250001,68.0,68.0
370,88.86874247500002,89.09130305000002,68.0,68.0
371,88.86874247500002,89.42514391250002,72.0,69.0
372,89.23459547500002,89.43124146250001,68.0,69.0
373,89.60044847500002,89.84435047500001,68.0,67.0
374,89.60044847500002,89.86874067500001,72.0,71.0
375,89.60044847500002,89.99983800000001,48.0,70.0
376,89.60044847500002,90.01965503750002,75.0,73.0
377,88.86874247500002,90.04861840000001,41.0,70.0
378,89.96630147500001,90.16599623750001,73.0,68.0
379,90.33215447500001,90.37026416250002,44.0,45.0
380,90.33215447500001,90.58672718750002,70.0,62.0
381,90.33215447500001,90.69648308750001,77.0,67.0
382,90.69800747500001,91.05014098750001,75.0,69.0
383,90.33215447500001,91.13550668750001,46.0,61.0
384,91.06386047500001,91.24068942500001,53.0,65.0
385,91.06386047500001,91.42818908750002,72.0,69.0
386,91.42971347500001,91.73001781250002,68.0,68.0
387,91.79556647500002,91.89770043750002,39.0,70.0
388,92.16141947500002,92.62178450000002,51.0,68.0
389,92.52727247500002,92.65989418750002,58.0,74.0
390,91.79556647500002,92.92513761250001,70.0,66.0
391,92.89312547500002,93.12483237500001,63.0,70.0
392,93.25897847500002,93.70257523750001,68.0,65.0
393,93.25897847500002,93.78184338750002,63.0,64.0
394,93.62483147500002,94.09739160000002,51.0,69.0
395,93.25897847500002,94.15989148750002,44.0,69.0
396,94.35653747500001,94.46934215000002,44.0,66.0
397,93.99068447500002,94.48458602500001,63.0,68.0
398,93.99068447500002,94.58214682500001,66.0,69.0
399,94.72239047500001,94.82452443750002,37.0,64.0
400,94.72239047500001,95.31232843750001,61.0,63.0
401,94.72239047500001,95.33824302500001,66.0,63.0
402,95.45409647500001,95.97391261250002,66.0,70.0
403,95.45409647500001,96.00440036250002,61.0,71.0
404,95.81994947500002,96.42513131250001,56.0,67.0
405,96.18580247500002,96.76202095000002,61.0,64.0
406,96.18580247500002,96.76354533750002,65.0,70.0
407,96.91750847500002,97.35958085000001,63.0,61.0
408,96.55165547500002,97.63397060000001,56.0,56.0
409,97.28336147500002,97.64159253750002,61.0,61.0
410,95.08824347500001,97.67817783750002,49.0,62.0
411,97.64921447500002,98.11415266250002,54.0,65.0
412,97.64921447500002,98.39006680000001,61.0,64.0
413,98.01506747500002,98.77116367500001,49.0,48.0
414,97.64921447500002,98.85500498750002,42.0,68.0
415,98.38092047500001,98.90988293750002,58.0,60.0
416,98.74677347500001,98.92055365000002,54.0,57.0
417,99.11262647500001,99.63091822500002,56.0,55.0
418,99.11262647500001,99.93122256250001,63.0,57.0
419,99.84433247500002,100.00896632500002,56.0,66.0
420,99.47847947500001,100.02116142500002,51.0,53.0
421,99.11262647500001,100.07299060000001,44.0,65.0
422,100.57603847500002,100.97542800000002,56.0,57.0
423,100.57603847500002,101.29859815000002,60.0,60.0
424,100.57603847500002,101.47085393750002,41.0,68.0
425,100.94189147500002,101.49067097500001,48.0,54.0
426,101.30774447500002,101.84128010000002,56.0,71.0
427,102.03945047500002,102.53944957500002,58.0,56.0
428,102.03945047500002,102.61109578750002,61.0,63.0
429,102.77115647500001,103.00438776250002,58.0,62.0
430,102.77115647500001,103.16139967500001,65.0,69.0
431,102.40530347500001,103.26963118750002,53.0,58.0
432,102.03945047500002,103.31993597500002,46.0,68.0
433,103.13700947500001,103.40987483750001,63.0,66.0
434,103.50286247500001,103.91444710000002,58.0,56.0
435,103.50286247500001,104.29706836250001,63.0,66.0
436,103.50286247500001,104.31231223750002,51.0,68.0
437,103.86871547500002,104.35347070000002,54.0,44.0
438,104.23456847500002,104.42969007500002,58.0,60.0
439,104.96627447500002,105.42206633750001,56.0,59.0
440,104.96627447500002,105.73151700000003,63.0,63.0
441,105.69798047500002,106.14462601250001,56.0,64.0
442,105.33212747500002,106.21169906250002,51.0,55.0
443,104.96627447500002,106.22694293750001,44.0,63.0
444,106.06383347500002,106.34127200000002,61.0,57.0
445,106.41596698750001,107.04706341250002,63.0,60.0
446,107.12328278750002,107.62480627500001,60.0,75.0
447,106.40377188750001,107.65072086250002,56.0,60.0
448,107.49828211250002,107.73456217500002,63.0,82.0
449,106.73913713750002,108.04248845000002,51.0,70.0
450,106.40986943750002,108.65071906250002,44.0,60.0
451,107.86413511250002,108.93273075000002,60.0,63.0
452,107.86108633750001,108.93730391250001,63.0,60.0
453,107.85651317500002,108.95407217500002,56.0,60.0
454,107.84431807500002,108.96474288750002,68.0,60.0
455,109.35651047500002,109.82144866250002,54.0,65.0
456,109.35651047500002,110.09736280000001,61.0,64.0
457,109.72236347500002,110.47845967500002,49.0,48.0
458,109.35651047500002,110.56230098750002,42.0,68.0
459,110.08821647500002,110.61717893750001,58.0,60.0
460,110.45406947500003,110.62784965000002,54.0,57.0
461,110.81992247500001,111.33821422500002,56.0,55.0
462,110.81992247500001,111.63851856250002,63.0,57.0
463,111.55162847500002,111.71626232500002,56.0,66.0
464,111.18577547500001,111.72845742500002,51.0,53.0
465,110.81992247500001,111.78028660000003,44.0,65.0
466,112.28333447500002,112.68272400000002,56.0,57.0
467,112.28333447500002,113.00589415000002,60.0,60.0
468,112.28333447500002,113.17814993750002,41.0,68.0
469,112.64918747500002,113.19796697500001,48.0,54.0
470,113.01504047500002,113.54857610000002,56.0,71.0
471,113.74674647500002,114.24674557500002,58.0,56.0
472,113.74674647500002,114.31839178750002,61.0,63.0
473,114.47845247500003,114.71168376250002,58.0,62.0
474,114.47845247500003,114.86869567500003,65.0,69.0
475,114.11259947500002,114.97692718750002,53.0,58.0
476,113.74674647500002,115.02723197500002,46.0,68.0
477,114.84430547500001,115.11717083750003,63.0,66.0
478,115.21015847500001,115.62174310000002,58.0,56.0
479,115.21015847500001,116.00436436250003,63.0,66.0
480,115.21015847500001,116.01960823750002,51.0,68.0
481,115.57601147500002,116.06076670000002,54.0,44.0
482,115.94186447500002,116.13698607500002,58.0,60.0
483,116.67357047500002,117.12936233750003,56.0,59.0
484,116.67357047500002,117.43881300000002,63.0,63.0
485,117.40527647500002,117.85192201250003,56.0,64.0
486,117.03942347500002,117.91899506250002,51.0,55.0
487,116.67357047500002,117.93423893750003,44.0,63.0
488,117.77112947500002,118.04856800000002,61.0,57.0
489,118.13698247500002,118.93118836250002,65.0,70.0
490,118.13698247500002,119.44795572500001,49.0,66.0
491,118.86868847500003,119.46015082500001,56.0,65.0
492,118.50283547500003,119.46472398750002,53.0,54.0
493,119.23454147500001,119.49673612500003,63.0,57.0
494,119.60039447500002,119.78636975000002,56.0,64.0
495,119.96624747500002,120.25588110000002,56.0,66.0
496,119.60039447500002,120.31685660000002,65.0,69.0
497,120.33210047500002,120.52264891250002,56.0,69.0
498,120.33210047500002,120.68423398750002,61.0,64.0
499,119.60039447500002,120.79551427500002,49.0,70.0
500,120.69795347500002,120.82752641250002,59.0,53.0
501,121.06380647500002,121.84429287500002,58.0,63.0
502,121.06380647500002,122.17203618750003,42.0,69.0
503,121.79551247500002,122.18270690000003,61.0,69.0
504,121.42965947500002,122.21776781250001,49.0,61.0
505,121.06380647500002,122.32752371250002,66.0,67.0
506,122.16136547500003,122.34734075000001,58.0,61.0
507,122.52721847500003,123.34886333750002,60.0,58.0
508,122.89307147500003,123.57752146250002,51.0,66.0
509,122.52721847500003,123.65983838750002,44.0,68.0
510,123.25892447500001,123.77721622500002,63.0,66.0
511,122.52721847500003,123.88544773750002,68.0,51.0
512,123.99063047500002,124.70709260000002,68.0,69.0
513,124.35648347500002,124.83818992500002,48.0,64.0
514,123.99063047500002,124.84733625000003,41.0,70.0
515,124.72233647500002,125.08971386250002,65.0,68.0
516,125.08818947500002,125.36715238750003,63.0,68.0
517,125.45404247500002,125.72995661250002,61.0,59.0
518,125.45404247500002,125.90983433750002,65.0,68.0
519,126.18574847500003,126.42660170000002,58.0,60.0
520,126.18574847500003,126.53178443750002,61.0,64.0
521,125.81989547500002,126.57141851250002,53.0,61.0
522,125.45404247500002,126.59580871250002,46.0,68.0
523,126.55160147500003,126.81836928750002,60.0,62.0
524,126.91745447500003,127.41592918750003,58.0,57.0
525,126.91745447500003,127.54550212500003,63.0,61.0
526,127.28330747500002,127.75129443750002,46.0,54.0
527,126.91745447500003,127.77263586250002,39.0,70.0
528,127.64916047500002,128.18879365000004,61.0,62.0
529,128.38086647500003,128.8122681375,56.0,58.0
530,128.38086647500003,129.0256823875,63.0,64.0
531,128.74671947500002,129.5470229125,51.0,62.0
532,129.11257247500004,129.58818137500003,56.0,70.0
533,128.38086647500003,129.60190086250003,44.0,68.0
534,129.844278475,130.03177813750003,56.0,60.0
535,129.844278475,130.243668,61.0,62.0
536,130.21013147500003,130.55769182500003,56.0,67.0
537,130.575984475,130.92811798750003,61.0,61.0
538,130.94183747500003,130.99061787500003,61.0,34.0
539,130.575984475,131.051593375,66.0,64.0
540,130.94183747500003,131.36409281250002,56.0,68.0
541,131.30769047500002,131.95707955000003,61.0,68.0
542,131.30769047500002,132.15220115000002,65.0,68.0
543,132.03939647500002,132.2695789875,56.0,64.0
544,129.844278475,132.70402942500002,37.0,64.0
545,132.40524947500003,132.70860258750002,56.0,66.0
546,132.03939647500002,132.72384646250003,61.0,64.0
547,132.77110247500002,133.23604066250002,54.0,65.0
548,132.77110247500002,133.5119548,61.0,64.0
549,133.13695547500004,133.893051675,49.0,48.0
550,132.77110247500002,133.97689298750004,42.0,68.0
551,133.50280847500002,134.03177093750003,58.0,60.0
552,133.868661475,134.04244165000003,54.0,57.0
553,134.23451447500003,134.75280622500003,56.0,55.0
554,134.23451447500003,135.05311056250002,63.0,57.0
555,134.96622047500003,135.13085432500003,56.0,66.0
556,134.600367475,135.14304942500002,51.0,53.0
557,134.23451447500003,135.1948786,44.0,65.0
558,135.69792647500003,136.09731600000003,56.0,57.0
559,135.69792647500003,136.42048615000002,60.0,60.0
560,135.69792647500003,136.59274193750002,41.0,68.0
561,136.06377947500002,136.612558975,48.0,54.0
562,136.42963247500003,136.96316810000002,56.0,71.0
563,137.16133847500004,137.66133757500003,58.0,56.0
564,137.16133847500004,137.73298378750002,61.0,63.0
565,137.893044475,138.12627576250003,58.0,62.0
566,137.893044475,138.28328767500003,65.0,69.0
567,137.52719147500002,138.39151918750002,53.0,58.0
568,137.16133847500004,138.44182397500003,46.0,68.0
569,138.25889747500003,138.53176283750003,63.0,66.0
570,138.624750475,139.03633510000003,58.0,56.0
571,138.624750475,139.4189563625,63.0,66.0
572,138.624750475,139.43420023750002,51.0,68.0
573,138.99060347500003,139.47535870000002,54.0,44.0
574,139.35645647500002,139.55157807500004,58.0,60.0
575,140.08816247500002,140.54395433750003,56.0,59.0
576,140.08816247500002,140.85340500000004,63.0,63.0
577,140.81986847500002,141.2665140125,56.0,64.0
578,140.45401547500003,141.33358706250002,51.0,55.0
579,140.08816247500002,141.34883093750003,44.0,63.0
580,141.18572147500004,141.46316000000002,61.0,57.0
581,141.55157447500002,142.34578036250002,65.0,70.0
582,141.55157447500002,142.862547725,49.0,66.0
583,142.28328047500003,142.87474282500003,56.0,65.0
584,141.917427475,142.87931598750004,53.0,54.0
585,142.649133475,142.911328125,63.0,57.0
586,143.01498647500003,143.20096175000003,56.0,64.0
587,143.38083947500002,143.67047310000004,56.0,66.0
588,143.01498647500003,143.73144860000002,65.0,69.0
589,143.74669247500003,143.93724091250002,56.0,69.0
590,143.74669247500003,144.09882598750002,61.0,64.0
591,143.01498647500003,144.21010627500002,49.0,70.0
592,144.11254547500002,144.24211841250002,59.0,53.0
593,144.47839847500003,145.25888487500004,58.0,63.0
594,144.47839847500003,145.58662818750003,42.0,69.0
595,145.21010447500004,145.59729890000003,61.0,69.0
596,144.84425147500002,145.63235981250003,49.0,61.0
597,144.47839847500003,145.74211571250004,66.0,67.0
598,145.57595747500002,145.76193275000003,58.0,61.0
599,145.94181047500004,146.76345533750003,60.0,58.0
600,146.30766347500003,146.99211346250001,51.0,66.0
601,145.94181047500004,147.07443038750003,44.0,68.0
602,146.673516475,147.19180822500002,63.0,66.0
603,145.94181047500004,147.30003973750001,68.0,51.0
604,147.40522247500002,148.12168460000004,68.0,69.0
605,147.77107547500003,148.25278192500002,48.0,64.0
606,147.40522247500002,148.26192825000004,41.0,70.0
607,148.13692847500002,148.50430586250002,65.0,68.0
608,148.50278147500003,148.78174438750003,63.0,68.0
609,148.86863447500002,149.14454861250002,61.0,59.0
610,148.86863447500002,149.32442633750003,65.0,68.0
611,149.60034047500002,149.84119370000002,58.0,60.0
612,149.60034047500002,149.94637643750002,61.0,64.0
613,149.23448747500004,149.98601051250003,53.0,61.0
614,148.86863447500002,150.01040071250003,46.0,68.0
615,149.96619347500004,150.23296128750002,60.0,62.0
616,150.33204647500003,150.83052118750004,58.0,57.0
617,150.33204647500003,150.96009412500004,63.0,61.0
618,150.697899475,151.16588643750003,46.0,54.0
619,150.33204647500003,151.18722786250004,39.0,70.0
620,151.06375247500003,151.60338565000004,61.0,62.0
621,151.79545847500003,152.22686013750004,56.0,58.0
622,151.79545847500003,152.44027438750004,63.0,64.0
623,152.16131147500002,152.96161491250004,51.0,62.0
624,152.52716447500003,153.00277337500003,56.0,70.0
625,151.79545847500003,153.01649286250003,44.0,68.0
626,153.25887047500004,153.44637013750003,56.0,60.0
627,153.25887047500004,153.65826,61.0,62.0
628,153.62472347500002,153.97228382500003,56.0,67.0
629,153.99057647500004,154.34270998750003,61.0,61.0
630,154.35642947500003,154.40520987500003,61.0,34.0
631,153.99057647500004,154.46618537500004,66.0,64.0
632,154.35642947500003,154.77868481250002,56.0,68.0
633,154.72228247500001,155.37167155000003,61.0,68.0
634,154.72228247500001,155.56679315000002,65.0,68.0
635,155.45398847500002,155.68417098750004,56.0,64.0
636,153.25887047500004,156.11862142500001,37.0,64.0
637,155.81984147500003,156.12319458750002,56.0,66.0
638,155.45398847500002,156.13843846250003,61.0,64.0
639,156.18569447500002,156.55916941250004,68.0,68.0
640,156.18569447500002,156.58051083750001,56.0,67.0
641,156.91740047500002,157.04544902500004,56.0,57.0
642,156.91740047500002,157.1018513625,60.0,62.0
643,156.91740047500002,157.30764367500004,63.0,65.0
644,157.28325347500004,157.37928988750002,56.0,66.0
645,156.18569447500002,157.54849690000003,44.0,69.0
646,156.55154747500004,157.56526516250003,51.0,63.0
647,157.64910647500002,157.89453286250003,63.0,71.0
648,157.64910647500002,158.04392283750002,68.0,66.0
649,158.38081247500003,158.53172683750003,63.0,69.0
650,157.64910647500002,159.06983562500002,44.0,73.0
651,158.01495947500004,159.09117705000003,51.0,68.0
652,158.38081247500003,159.10337215000004,68.0,68.0
653,158.38081247500003,159.12014041250004,72.0,69.0
654,158.74666547500001,159.13081112500004,63.0,62.0
655,159.11251847500003,159.55611523750002,61.0,68.0
656,159.11251847500003,159.575932275,66.0,68.0
657,159.47837147500002,160.00123638750003,49.0,53.0
658,159.11251847500003,160.00733393750002,42.0,70.0
659,159.84422447500003,160.29544317500003,61.0,68.0
660,160.21007747500002,160.40367468750003,42.0,68.0
661,159.84422447500003,160.46465018750004,66.0,69.0
662,159.84422447500003,160.49666232500002,70.0,64.0
663,160.57593047500004,160.97532000000004,68.0,61.0
664,160.57593047500004,160.98141755000003,63.0,67.0
665,160.94178347500002,161.38538023750002,51.0,59.0
666,160.57593047500004,161.46007522500003,44.0,70.0
667,161.30763647500004,161.46922155000001,63.0,65.0
668,161.30763647500004,161.79391608750004,72.0,69.0
669,161.30763647500004,161.89757443750003,68.0,68.0
670,161.67348947500003,161.91891586250003,63.0,50.0
671,162.03934247500004,162.08050093750003,63.0,45.0
672,162.03934247500004,162.19787877500002,65.0,48.0
673,162.03934247500004,162.55153667500002,68.0,63.0
674,162.40519547500003,162.90824335000002,48.0,62.0
675,162.77104847500001,163.12623076250003,65.0,72.0
676,162.77104847500001,163.14909657500002,72.0,71.0
677,162.03934247500004,163.20397452500004,41.0,70.0
678,163.13690147500003,163.26952318750003,48.0,69.0
679,163.50275447500002,163.75122963750002,70.0,59.0
680,163.50275447500002,163.79696126250002,73.0,67.0
681,163.86860747500003,164.02257061250003,72.0,69.0
682,163.50275447500002,164.14757038750002,46.0,68.0
683,164.23446047500002,164.42500891250003,53.0,61.0
684,164.23446047500002,164.47683808750003,46.0,27.0
685,164.23446047500002,164.61250857500002,68.0,69.0
686,164.60031347500004,164.74970345000003,65.0,69.0
687,164.96616647500002,165.44025098750004,63.0,68.0
688,164.96616647500002,165.44634853750003,66.0,67.0
689,165.33201947500004,165.78781133750002,46.0,49.0
690,165.69787247500003,165.85183561250003,63.0,68.0
691,164.96616647500002,165.91433550000002,39.0,71.0
692,165.69787247500003,166.13079852500002,70.0,64.0
693,165.69787247500003,166.14146923750002,66.0,69.0
694,166.06372547500004,166.26951778750004,63.0,60.0
695,166.42957847500003,166.91128492500002,63.0,68.0
696,166.42957847500003,166.94787022500003,68.0,64.0
697,167.16128447500003,167.31524761250003,63.0,71.0
698,167.16128447500003,167.33049148750004,68.0,70.0
699,166.79543147500002,167.34573536250002,51.0,61.0
700,166.42957847500003,167.43872300000004,44.0,69.0
701,167.52713747500002,167.76341753750003,63.0,63.0
702,167.52713747500002,167.80610038750004,66.0,69.0
703,167.89299047500003,167.99664882500002,37.0,66.0
704,167.89299047500003,168.43567242500004,61.0,63.0
705,167.89299047500003,168.44786752500002,65.0,65.0
706,168.62469647500004,169.02561038750002,66.0,69.0
707,168.62469647500004,169.03018355000003,61.0,68.0
708,168.25884347500002,169.25884167500004,49.0,61.0
709,168.99054947500002,169.33201227500004,56.0,68.0
710,169.35640247500004,169.75731638750003,68.0,69.0
711,169.35640247500004,169.77408465000002,65.0,73.0
712,169.72225547500003,170.19938876250004,56.0,71.0
713,169.35640247500004,170.20853508750002,49.0,75.0
714,170.08810847500004,170.44938831250002,61.0,70.0
715,170.08810847500004,170.51341258750003,65.0,74.0
716,170.45396147500003,170.56066860000004,49.0,71.0
717,170.81981447500004,171.29237460000002,66.0,60.0
718,170.81981447500004,171.33048428750004,70.0,60.0
719,171.55152047500002,171.70700800000003,66.0,69.0
720,171.18566747500003,171.81219073750003,49.0,64.0
721,170.81981447500004,171.85639797500002,42.0,67.0
722,171.91737347500003,172.17499496250002,66.0,66.0
723,171.55152047500002,172.21920220000004,70.0,69.0
724,171.55152047500002,172.23139730000003,73.0,69.0
725,172.28322647500002,172.72987201250004,72.0,68.0
726,172.28322647500002,172.76493292500004,68.0,66.0
727,173.01493247500002,173.20852968750003,68.0,64.0
728,172.64907947500004,173.21920040000003,51.0,64.0
729,172.28322647500002,173.32895630000004,44.0,69.0
730,173.01493247500002,173.39602935000002,75.0,69.0
731,173.01493247500002,173.63230941250004,72.0,66.0
732,173.38078547500004,173.64450451250002,68.0,68.0
733,173.74663847500003,173.96919905000004,68.0,68.0
734,173.74663847500003,174.30303991250003,72.0,69.0
735,174.11249147500004,174.30913746250002,68.0,69.0
736,174.47834447500003,174.72224647500002,68.0,67.0
737,174.47834447500003,174.74663667500002,72.0,71.0
738,174.47834447500003,174.87773400000003,48.0,70.0
739,174.47834447500003,174.89755103750002,75.0,73.0
740,173.74663847500003,174.92651440000003,41.0,70.0
741,174.84419747500004,175.04389223750002,73.0,68.0
742,175.21005047500003,175.24816016250003,44.0,45.0
743,175.21005047500003,175.46462318750002,70.0,62.0
744,175.21005047500003,175.57437908750003,77.0,67.0
745,175.57590347500002,175.92803698750004,75.0,69.0
746,175.21005047500003,176.01340268750002,46.0,61.0
747,175.94175647500003,176.11858542500002,53.0,65.0
748,175.94175647500003,176.30608508750004,72.0,69.0
749,176.30760947500002,176.60791381250004,68.0,68.0
750,176.67346247500004,176.77559643750004,39.0,70.0
751,177.03931547500002,177.49968050000004,51.0,68.0
752,177.40516847500004,177.53779018750004,58.0,74.0
753,176.67346247500004,177.80303361250003,70.0,66.0
754,177.77102147500003,178.00272837500003,63.0,70.0
755,178.13687447500004,178.58047123750003,68.0,65.0
756,178.13687447500004,178.65973938750003,63.0,64.0
757,178.50272747500003,178.97528760000003,51.0,69.0
758,178.13687447500004,179.03778748750003,44.0,69.0
759,179.23443347500003,179.34723815000004,44.0,66.0
760,178.86858047500004,179.36248202500002,63.0,68.0
761,178.86858047500004,179.46004282500004,66.0,69.0
762,179.60028647500002,179.70242043750002,37.0,64.0
763,179.60028647500002,180.19022443750004,61.0,63.0
764,179.60028647500002,180.21613902500002,66.0,63.0
765,180.33199247500002,180.85180861250004,66.0,70.0
766,180.33199247500002,180.88229636250003,61.0,71.0
767,180.69784547500004,181.30302731250003,56.0,67.0
768,181.06369847500002,181.63991695000004,61.0,64.0
769,181.06369847500002,181.64144133750003,65.0,70.0
770,181.79540447500003,182.23747685000004,63.0,61.0
771,181.42955147500004,182.51186660000002,56.0,56.0
772,182.16125747500004,182.51948853750002,61.0,61.0
773,179.96613947500003,182.55607383750004,49.0,62.0
774,182.52711047500003,182.97070723750002,61.0,68.0
775,182.52711047500003,182.99052427500004,66.0,68.0
776,182.89296347500004,183.41582838750003,49.0,53.0
777,182.52711047500003,183.42192593750002,42.0,70.0
778,183.25881647500003,183.71003517500003,61.0,68.0
779,183.62466947500002,183.81826668750003,42.0,68.0
780,183.25881647500003,183.87924218750004,66.0,69.0
781,183.25881647500003,183.91125432500004,70.0,64.0
782,183.99052247500003,184.38991200000004,68.0,61.0
783,183.99052247500003,184.39600955000003,63.0,67.0
784,184.35637547500002,184.79997223750004,51.0,59.0
785,183.99052247500003,184.87466722500002,44.0,70.0
786,184.72222847500004,184.88381355000004,63.0,65.0
787,184.72222847500004,185.20850808750004,72.0,69.0
788,184.72222847500004,185.31216643750003,68.0,68.0
789,185.08808147500002,185.33350786250003,63.0,50.0
790,185.45393447500004,185.49509293750003,63.0,45.0
791,185.45393447500004,185.61247077500002,65.0,48.0
792,185.45393447500004,185.96612867500002,68.0,63.0
793,185.81978747500003,186.32283535000002,48.0,62.0
794,186.18564047500004,186.54082276250003,65.0,72.0
795,186.18564047500004,186.56368857500004,72.0,71.0
796,185.45393447500004,186.61856652500003,41.0,70.0
797,186.55149347500003,186.68411518750003,48.0,69.0
798,186.91734647500004,187.16582163750004,70.0,59.0
799,186.91734647500004,187.21155326250002,73.0,67.0
800,187.28319947500003,187.43716261250003,72.0,69.0
801,186.91734647500004,187.56216238750002,46.0,68.0
802,187.64905247500002,187.83960091250003,53.0,61.0
803,187.64905247500002,187.89143008750003,46.0,27.0
804,187.64905247500002,188.02710057500002,68.0,69.0
805,188.01490547500003,188.16429545000003,65.0,69.0
806,188.38075847500002,188.85484298750004,63.0,68.0
807,188.38075847500002,188.86094053750003,66.0,67.0
808,188.74661147500004,189.20240333750004,46.0,49.0
809,189.11246447500002,189.26642761250002,63.0,68.0
810,188.38075847500002,189.32892750000002,39.0,71.0
811,189.11246447500002,189.54539052500004,70.0,64.0
812,189.11246447500002,189.55606123750005,66.0,69.0
813,189.47831747500004,189.68410978750003,63.0,60.0
814,189.84417047500003,190.32587692500005,63.0,68.0
815,189.84417047500003,190.36246222500003,68.0,64.0
816,190.57587647500003,190.72983961250003,63.0,71.0
817,190.57587647500003,190.74508348750004,68.0,70.0
818,190.21002347500004,190.76032736250002,51.0,61.0
819,189.84417047500003,190.85331500000004,44.0,69.0
820,190.94172947500005,191.17800953750003,63.0,63.0
821,190.94172947500005,191.22069238750004,66.0,69.0
822,191.30758247500003,191.41124082500002,37.0,66.0
823,191.30758247500003,191.85026442500003,61.0,63.0
824,191.30758247500003,191.86245952500002,65.0,65.0
825,192.03928847500003,192.44020238750002,66.0,69.0
826,192.03928847500003,192.44477555000003,61.0,68.0
827,191.67343547500002,192.67343367500004,49.0,61.0
828,192.40514147500002,192.74660427500004,56.0,68.0
829,192.77099447500004,193.17190838750003,68.0,69.0
830,192.77099447500004,193.18867665000005,65.0,73.0
831,193.13684747500002,193.61398076250003,56.0,71.0
832,192.77099447500004,193.62312708750002,49.0,75.0
833,193.50270047500004,193.86398031250005,61.0,70.0
834,193.50270047500004,193.92800458750003,65.0,74.0
835,193.86855347500003,193.97526060000004,49.0,71.0
836,194.23440647500004,194.70696660000004,66.0,60.0
837,194.23440647500004,194.74507628750004,70.0,60.0
838,194.96611247500005,195.12160000000003,66.0,69.0
839,194.60025947500003,195.22678273750003,49.0,64.0
840,194.23440647500004,195.27098997500002,42.0,67.0
841,195.33196547500003,195.58958696250002,66.0,66.0
842,194.96611247500005,195.63379420000004,70.0,69.0
843,194.96611247500005,195.64598930000002,73.0,69.0
844,195.69781847500005,196.14446401250004,72.0,68.0
845,195.69781847500005,196.17952492500004,68.0,66.0
846,196.42952447500002,196.62312168750003,68.0,64.0
847,196.06367147500004,196.63379240000003,51.0,64.0
848,195.69781847500005,196.74354830000004,44.0,69.0
849,196.42952447500002,196.81062135000005,75.0,69.0
850,196.42952447500002,197.04690141250003,72.0,66.0
851,196.79537747500004,197.05909651250005,68.0,68.0
852,197.16123047500002,197.38379105000004,68.0,68.0
853,197.16123047500002,197.71763191250002,72.0,69.0
854,197.52708347500004,197.72372946250005,68.0,69.0
855,197.89293647500003,198.13683847500005,68.0,67.0
856,197.89293647500003,198.16122867500005,72.0,71.0
857,197.89293647500003,198.29232600000003,48.0,70.0
858,197.89293647500003,198.31214303750002,75.0,73.0
859,197.16123047500002,198.34110640000003,41.0,70.0
860,198.25878947500004,198.45848423750004,73.0,68.0
861,198.62464247500003,198.66275216250003,44.0,45.0
862,198.62464247500003,198.87921518750002,70.0,62.0
863,198.62464247500003,198.98897108750003,77.0,67.0
864,198.99049547500005,199.34262898750004,75.0,69.0
865,198.62464247500003,199.42799468750005,46.0,61.0
866,199.35634847500003,199.53317742500005,53.0,65.0
867,199.35634847500003,199.72067708750004,72.0,69.0
868,199.72220147500005,200.02250581250004,68.0,68.0
869,200.08805447500004,200.19018843750004,39.0,70.0
870,200.45390747500002,200.91427250000004,51.0,68.0
871,200.81976047500004,200.95238218750004,58.0,74.0
872,200.08805447500004,201.21762561250003,70.0,66.0
873,201.18561347500003,201.41732037500003,63.0,70.0
874,201.55146647500004,201.99506323750003,68.0,65.0
875,201.55146647500004,202.07433138750002,63.0,64.0
876,201.91731947500003,202.38987960000003,51.0,69.0
877,201.55146647500004,202.45237948750002,44.0,69.0
878,202.64902547500003,202.76183015000004,44.0,66.0
879,202.28317247500004,202.77707402500005,63.0,68.0
880,202.28317247500004,202.87463482500004,66.0,69.0
881,203.01487847500005,203.11701243750002,37.0,64.0
882,203.01487847500005,203.60481643750003,61.0,63.0
883,203.01487847500005,203.63073102500005,66.0,63.0
884,203.74658447500005,204.26640061250004,66.0,70.0
885,203.74658447500005,204.29688836250003,61.0,71.0
886,204.11243747500004,204.71761931250003,56.0,67.0
887,204.47829047500002,205.05450895000004,61.0,64.0
888,204.47829047500002,205.05603333750003,65.0,70.0
889,205.20999647500003,205.65206885000003,63.0,61.0
890,204.84414347500004,205.92645860000005,56.0,56.0
891,205.57584947500004,205.93408053750002,61.0,61.0
892,203.38073147500003,205.97066583750004,49.0,62.0
893,205.94170247500003,206.40664066250002,54.0,65.0
894,205.94170247500003,206.68255480000005,61.0,64.0
895,206.30755547500004,207.06365167500005,49.0,48.0
896,205.94170247500003,207.14749298750004,42.0,68.0
897,206.67340847500003,207.20237093750004,58.0,60.0
898,207.03926147500005,207.21304165000004,54.0,57.0
899,207.40511447500003,207.92340622500004,56.0,55.0
900,207.40511447500003,208.22371056250003,63.0,57.0
901,208.13682047500004,208.30145432500004,56.0,66.0
902,207.77096747500005,208.31364942500002,51.0,53.0
903,207.40511447500003,208.36547860000005,44.0,65.0
904,208.86852647500004,209.26791600000004,56.0,57.0
905,208.86852647500004,209.59108615000002,60.0,60.0
906,208.86852647500004,209.76334193750003,41.0,68.0
907,209.23437947500003,209.78315897500005,48.0,54.0
908,209.60023247500004,210.13376810000003,56.0,71.0
909,210.33193847500004,210.83193757500004,58.0,56.0
910,210.33193847500004,210.90358378750003,61.0,63.0
911,211.06364447500005,211.29687576250004,58.0,62.0
912,211.06364447500005,211.45388767500003,65.0,69.0
913,210.69779147500003,211.56211918750003,53.0,58.0
914,210.33193847500004,211.61242397500004,46.0,68.0
915,211.42949747500003,211.70236283750003,63.0,66.0
916,211.79535047500005,212.20693510000004,58.0,56.0
917,211.79535047500005,212.58955636250005,63.0,66.0
918,211.79535047500005,212.60480023750003,51.0,68.0
919,212.16120347500004,212.64595870000005,54.0,44.0
920,212.52705647500002,212.72217807500004,58.0,60.0
921,213.37004276250005,213.99809041250003,68.0,64.0
922,213.13986025000003,214.04839520000004,56.0,50.0
923,213.21455523750004,214.14138283750003,60.0,57.0
924,213.30906726250004,214.17491936250005,63.0,56.0
925,213.75266402500003,214.29382158750005,51.0,54.0
926,213.21303085000002,214.35327270000005,44.0,62.0
927,214.19778517500004,214.56668695000005,56.0,68.0
928,214.90662536250005,215.56363637500004,56.0,56.0
929,215.00113738750005,216.04686721250005,61.0,57.0
930,215.03772268750004,216.44473235000004,65.0,61.0
931,215.96912345000004,216.65814660000004,56.0,65.0
932,215.44625853750003,216.70540261250002,44.0,41.0
933,214.97064963750003,216.82125606250003,37.0,62.0
934,217.23588946250004,218.95997172500003,44.0,54.0
935,217.03162153750003,218.99045947500005,37.0,52.0
936,216.52095172500003,219.04381303750003,63.0,64.0
937,217.43405983750003,219.05905691250004,56.0,55.0
