,start,end,pitch,velocity
0,19.641666666666666,20.164583333333333,68.0,86.0
1,20.141666666666666,21.59583333333333,77.0,88.0
2,21.641666666666666,22.170833333333334,68.0,85.0
3,22.141666666666666,23.360416666666666,75.0,85.0
4,23.891666666666666,24.15,77.0,85.0
5,24.141666666666666,24.379166666666666,75.0,84.0
6,24.391666666666666,24.547916666666666,73.0,78.0
7,24.641666666666666,24.777083333333334,73.0,83.0
8,24.891666666666666,25.06458333333333,72.0,84.0
9,25.141666666666666,25.631249999999998,73.0,85.0
10,25.641666666666666,26.014583333333334,80.0,87.0
11,26.141666666666666,27.23125,80.0,84.0
12,27.641666666666666,28.15833333333333,73.0,83.0
13,28.141666666666666,29.414583333333333,82.0,83.0
14,29.641666666666666,30.175,85.0,87.0
15,30.141666666666666,31.28333333333333,80.0,82.0
16,31.891666666666666,32.06458333333333,85.0,81.0
17,32.141666666666666,32.33958333333333,85.0,84.0
18,32.391666666666666,32.52916666666667,84.0,85.0
19,32.641666666666666,32.84166666666667,84.0,84.0
20,32.891666666666666,33.02708333333333,82.0,83.0
21,33.141666666666666,33.33541666666667,82.0,84.0
22,33.391666666666666,33.52291666666667,80.0,75.0
23,33.641666666666666,33.827083333333334,80.0,79.0
24,33.891666666666666,34.391666666666666,77.0,85.0
25,34.391666666666666,34.635416666666664,75.0,83.0
26,34.641666666666666,34.920833333333334,73.0,85.0
27,34.891666666666666,35.68541666666667,75.0,84.0
28,35.641666666666666,36.20625,68.0,83.0
29,36.141666666666666,37.30416666666667,77.0,83.0
30,37.641666666666666,37.90625,80.0,85.0
31,37.891666666666666,38.41875,82.0,84.0
32,38.391666666666666,39.4125,80.0,84.0
33,39.891666666666666,40.03958333333333,84.0,84.0
34,40.141666666666666,40.32083333333333,84.0,84.0
35,40.391666666666666,40.516666666666666,82.0,76.0
36,40.641666666666666,40.80416666666667,82.0,83.0
37,40.891666666666666,41.05625,80.0,81.0
38,41.141666666666666,41.47291666666666,82.0,85.0
39,41.641666666666666,41.82083333333333,80.0,84.0
40,41.891666666666666,42.33541666666667,77.0,85.0
41,42.391666666666666,42.80625,80.0,83.0
42,42.891666666666666,43.641666666666666,73.0,87.0
43,43.641666666666666,44.141666666666666,73.0,76.0
44,44.141666666666666,45.11875,82.0,83.0
45,45.641666666666666,46.00833333333333,89.0,88.0
46,46.141666666666666,46.37083333333333,87.0,84.0
47,46.391666666666666,47.37291666666667,85.0,84.0
48,47.891666666666666,48.33541666666667,85.0,87.0
49,48.391666666666666,48.52291666666667,87.0,88.0
50,48.641666666666666,48.85208333333333,87.0,84.0
51,48.891666666666666,49.06875,85.0,87.0
52,49.141666666666666,49.74583333333333,87.0,88.0
53,49.891666666666666,50.31666666666666,85.0,90.0
54,50.391666666666666,50.53541666666666,87.0,85.0
55,50.641666666666666,50.82083333333333,87.0,85.0
56,50.891666666666666,51.05833333333333,85.0,86.0
57,51.141666666666666,51.65,87.0,90.0
58,51.641666666666666,52.1875,85.0,85.0
59,52.141666666666666,53.422916666666666,87.0,86.0
60,53.641666666666666,53.81458333333333,89.0,87.0
61,53.891666666666666,54.574999999999996,89.0,89.0
62,54.641666666666666,54.90416666666667,87.0,85.0
63,54.891666666666666,55.56666666666666,85.0,88.0
64,55.641666666666666,55.81875,89.0,87.0
65,55.891666666666666,56.63333333333333,87.0,86.0
66,56.641666666666666,56.91041666666666,85.0,85.0
67,56.891666666666666,57.62708333333333,84.0,85.0
68,57.891666666666666,58.03958333333333,80.0,85.0
69,58.141666666666666,58.322916666666664,85.0,89.0
70,58.391666666666666,58.51875,84.0,84.0
71,58.641666666666666,58.770833333333336,85.0,90.0
72,58.891666666666666,59.03958333333333,87.0,85.0
73,59.141666666666666,59.52291666666667,89.0,87.0
74,59.641666666666666,59.793749999999996,85.0,85.0
75,59.891666666666666,60.40416666666667,84.0,85.0
76,60.391666666666666,60.58125,85.0,83.0
77,60.641666666666666,60.875,84.0,85.0
78,60.891666666666666,61.043749999999996,85.0,80.0
79,61.141666666666666,61.702083333333334,84.0,80.0
80,61.641666666666666,61.824999999999996,80.0,84.0
81,61.891666666666666,62.354166666666664,78.0,84.0
82,62.391666666666666,63.19166666666666,85.0,87.0
83,63.641666666666666,63.88125,78.0,87.0
84,63.891666666666666,64.34166666666667,77.0,90.0
85,64.39166666666667,64.68125,89.0,90.0
86,64.64166666666667,64.91875,87.0,84.0
87,64.89166666666667,65.74583333333334,85.0,84.0
88,65.90833333333333,66.01875,85.0,84.0
89,66.14166666666667,66.40833333333333,87.0,90.0
90,66.39166666666667,66.56875,89.0,84.0
91,66.64166666666667,66.80625,87.0,88.0
92,66.89166666666667,67.14791666666666,89.0,89.0
93,67.14166666666667,67.47083333333333,87.0,87.0
94,67.64166666666667,67.82708333333333,82.0,83.0
95,67.89166666666667,68.31666666666666,87.0,89.0
96,68.39166666666667,68.59583333333333,89.0,85.0
97,68.64166666666667,68.85416666666667,87.0,83.0
98,68.89166666666667,69.04375,89.0,88.0
99,69.14166666666667,69.60625,87.0,92.0
100,69.64166666666667,69.81458333333333,89.0,87.0
101,69.89166666666667,70.575,89.0,89.0
102,70.64166666666667,70.90416666666667,87.0,85.0
103,70.89166666666667,71.56666666666666,85.0,88.0
104,71.64166666666667,71.81875,89.0,87.0
105,71.89166666666667,72.63333333333333,87.0,86.0
106,72.64166666666667,72.91041666666666,85.0,85.0
107,72.89166666666667,73.62708333333333,84.0,85.0
108,73.89166666666667,74.03958333333333,80.0,85.0
109,74.14166666666667,74.32291666666667,82.0,89.0
110,74.39166666666667,74.51875,84.0,84.0
111,74.64166666666667,74.77083333333333,85.0,90.0
112,74.89166666666667,75.03958333333333,87.0,85.0
113,75.14166666666667,75.52291666666666,89.0,87.0
114,75.64166666666667,75.79375,94.0,85.0
115,75.89166666666667,76.40416666666667,92.0,85.0
116,77.64166666666667,77.89166666666667,80.0,84.0
117,77.89166666666667,78.39166666666667,82.0,87.0
118,78.64166666666667,78.8,89.0,89.0
119,78.89166666666667,79.5,90.0,89.0
120,79.64166666666667,79.83125,89.0,85.0
121,79.89166666666667,80.39166666666667,87.0,85.0
122,80.39166666666667,81.27916666666667,85.0,87.0
123,81.89166666666667,82.05833333333334,77.0,86.0
124,82.14166666666667,82.5875,78.0,89.0
125,82.64166666666667,83.75,85.0,87.0
126,84.14166666666667,84.55833333333334,78.0,85.0
127,84.64166666666667,84.84166666666667,87.0,84.0
128,84.89166666666667,85.83125,85.0,84.0
129,85.89166666666667,86.17708333333333,84.0,76.0
130,86.14166666666667,88.375,85.0,86.0
131,89.64166666666667,90.16458333333333,68.0,86.0
132,90.14166666666667,91.59583333333333,77.0,88.0
133,91.64166666666667,92.17083333333333,68.0,85.0
134,92.14166666666667,93.36041666666667,75.0,85.0
135,93.64166666666667,93.9,77.0,85.0
136,93.89166666666667,94.39166666666667,75.0,84.0
137,94.39166666666667,94.54791666666667,73.0,78.0
138,94.64166666666667,94.77708333333334,73.0,83.0
139,94.89166666666667,95.06458333333333,72.0,84.0
140,95.14166666666667,95.63125,73.0,85.0
141,95.64166666666667,96.01458333333333,80.0,87.0
142,96.14166666666667,97.23125,80.0,84.0
143,97.64166666666667,98.15833333333333,73.0,83.0
144,98.14166666666667,99.41458333333333,82.0,83.0
145,99.64166666666667,100.175,85.0,87.0
146,100.14166666666667,101.28333333333333,80.0,82.0
147,101.89166666666667,102.06458333333333,85.0,81.0
148,102.14166666666667,102.33958333333334,85.0,84.0
149,102.39166666666667,102.52916666666667,84.0,85.0
150,102.64166666666667,102.84166666666667,84.0,84.0
151,102.89166666666667,103.02708333333334,82.0,83.0
152,103.14166666666667,103.33541666666666,82.0,84.0
153,103.39166666666667,103.52291666666666,80.0,75.0
154,103.64166666666667,103.82708333333333,80.0,79.0
155,103.89166666666667,104.39166666666667,77.0,85.0
156,104.39166666666667,104.63541666666667,75.0,83.0
157,104.64166666666667,104.92083333333333,73.0,85.0
158,104.89166666666667,105.68541666666667,75.0,84.0
159,105.64166666666667,106.20625,68.0,83.0
160,106.14166666666667,107.30416666666666,77.0,83.0
161,107.64166666666667,107.90625,80.0,85.0
162,107.89166666666667,108.41875,82.0,84.0
163,108.39166666666667,109.4125,80.0,84.0
164,109.89166666666667,110.03958333333333,84.0,84.0
165,110.14166666666667,110.32083333333333,84.0,84.0
166,110.39166666666667,110.51666666666667,82.0,76.0
167,110.64166666666667,110.80416666666666,82.0,83.0
168,110.89166666666667,111.05624999999999,80.0,81.0
169,111.14166666666667,111.47291666666666,82.0,85.0
170,111.64166666666667,111.82083333333333,80.0,84.0
171,111.89166666666667,112.28333333333333,89.0,85.0
172,111.89166666666667,112.28333333333333,89.0,87.0
173,112.39166666666667,112.7625,90.0,90.0
174,112.89166666666667,113.31041666666667,89.0,87.0
175,113.39166666666667,113.57708333333333,87.0,85.0
176,113.64166666666667,113.90625,85.0,82.0
177,113.89166666666667,114.15208333333334,87.0,81.0
178,114.14166666666667,114.39166666666667,85.0,86.0
179,114.39166666666667,114.56458333333333,82.0,86.0
180,114.64166666666667,114.91041666666666,85.0,89.0
181,115.14166666666667,115.40208333333334,89.0,87.0
182,115.39166666666667,115.61874999999999,87.0,89.0
183,115.64166666666667,115.85625,85.0,89.0
184,115.89166666666667,116.42083333333333,87.0,85.0
185,116.39166666666667,116.62083333333334,82.0,97.0
186,116.64166666666667,117.14166666666667,85.0,84.0
187,117.14166666666667,117.41041666666666,89.0,89.0
188,117.39166666666667,117.60625,87.0,88.0
189,117.64166666666667,117.86666666666666,85.0,85.0
190,117.89166666666667,118.68541666666667,89.0,89.0
191,118.64166666666667,118.91875,90.0,90.0
192,118.89166666666667,119.64999999999999,92.0,90.0
193,119.64166666666667,119.90208333333334,89.0,84.0
194,119.89166666666667,123.28958333333333,92.0,90.0
195,123.64166666666667,123.81458333333333,89.0,87.0
196,123.89166666666667,124.575,89.0,89.0
197,124.64166666666667,124.90416666666667,87.0,85.0
198,124.89166666666667,125.56666666666666,85.0,88.0
199,125.64166666666667,125.81875,89.0,87.0
200,125.89166666666667,126.63333333333333,87.0,86.0
201,126.64166666666667,126.91041666666666,85.0,85.0
202,126.89166666666667,127.62708333333333,84.0,85.0
203,127.89166666666667,128.03958333333333,80.0,85.0
204,128.14166666666665,128.32291666666666,85.0,89.0
205,128.39166666666665,128.51875,84.0,84.0
206,128.64166666666665,128.77083333333334,85.0,90.0
207,128.89166666666665,129.03958333333333,87.0,85.0
208,129.14166666666665,129.52291666666667,89.0,87.0
209,129.64166666666665,129.79375,85.0,85.0
210,129.89166666666665,130.40416666666667,84.0,85.0
211,130.39166666666665,130.58125,85.0,83.0
212,130.64166666666665,130.875,84.0,85.0
213,130.89166666666665,131.04375,85.0,80.0
214,131.14166666666665,131.70208333333332,84.0,80.0
215,131.64166666666665,131.825,80.0,84.0
216,131.89166666666665,132.35416666666666,78.0,84.0
217,132.39166666666665,133.19166666666666,85.0,87.0
218,133.64166666666665,133.88125,78.0,87.0
219,133.89166666666665,134.34166666666667,77.0,90.0
220,134.39166666666665,134.68125,89.0,90.0
221,134.64166666666665,134.91875,87.0,84.0
222,134.89166666666665,135.74583333333334,85.0,84.0
223,135.90833333333333,136.01875,85.0,84.0
224,136.14166666666665,136.40833333333333,87.0,90.0
225,136.39166666666665,136.56875,89.0,84.0
226,136.64166666666665,136.80625,87.0,88.0
227,136.89166666666665,137.14791666666667,89.0,89.0
228,137.14166666666665,137.47083333333333,87.0,87.0
229,137.64166666666665,137.82708333333332,82.0,83.0
230,137.89166666666665,138.31666666666666,87.0,89.0
231,138.39166666666665,138.59583333333333,89.0,85.0
232,138.64166666666665,138.85416666666666,87.0,83.0
233,138.89166666666665,139.04375,89.0,88.0
234,139.14166666666665,139.60625,87.0,92.0
235,139.64166666666665,139.81458333333333,89.0,87.0
236,139.89166666666665,140.575,89.0,89.0
237,140.64166666666665,140.90416666666667,87.0,85.0
238,140.89166666666665,141.56666666666666,85.0,88.0
239,141.64166666666665,141.81875,89.0,87.0
240,141.89166666666665,142.63333333333333,87.0,86.0
241,142.64166666666665,142.91041666666666,85.0,85.0
242,142.89166666666665,143.62708333333333,84.0,85.0
243,143.89166666666665,144.03958333333333,80.0,85.0
244,144.14166666666665,144.32291666666666,82.0,89.0
245,144.39166666666665,144.51875,84.0,84.0
246,144.64166666666665,144.77083333333334,85.0,90.0
247,144.89166666666665,145.03958333333333,87.0,85.0
248,145.14166666666665,145.52291666666667,89.0,87.0
249,145.64166666666665,145.79375,94.0,85.0
250,145.89166666666665,146.40416666666667,92.0,85.0
251,147.64166666666665,147.89166666666665,80.0,84.0
252,147.89166666666665,148.39166666666665,82.0,87.0
253,148.64166666666665,148.8,89.0,89.0
254,148.89166666666665,149.5,90.0,89.0
255,149.64166666666665,149.83125,89.0,85.0
256,149.89166666666665,150.39166666666665,87.0,85.0
257,150.39166666666665,151.27916666666667,85.0,87.0
258,151.89166666666665,152.05833333333334,77.0,86.0
259,152.14166666666665,152.5875,78.0,89.0
260,152.64166666666665,153.14166666666665,85.0,87.0
261,153.14166666666665,153.75,85.0,87.0
262,153.89166666666665,154.14166666666665,77.0,88.0
263,154.14166666666665,154.55833333333334,78.0,85.0
264,154.64166666666665,154.84166666666667,87.0,84.0
265,154.89166666666665,155.83125,85.0,84.0
266,155.89166666666665,156.17708333333334,84.0,76.0
267,156.14166666666665,158.375,85.0,86.0
268,160.64166666666665,160.83125,85.0,92.0
269,160.89166666666665,161.13125,84.0,84.0
270,161.14166666666665,161.42083333333332,85.0,97.0
271,161.64166666666665,161.85208333333333,85.0,92.0
272,161.89166666666665,162.12708333333333,84.0,86.0
273,162.14166666666665,162.45625,85.0,94.0
274,162.64166666666665,162.80416666666667,92.0,87.0
275,162.89166666666665,163.14166666666665,89.0,87.0
276,163.14166666666665,163.30625,87.0,82.0
277,163.39166666666665,163.64166666666665,85.0,87.0
278,163.64166666666665,163.89166666666665,82.0,87.0
279,163.89166666666665,164.14166666666665,85.0,87.0
280,164.39166666666665,164.56875,82.0,89.0
281,164.64166666666665,164.82708333333332,85.0,90.0
282,164.89166666666665,165.10208333333333,90.0,87.0
283,165.14166666666665,165.37916666666666,89.0,90.0
284,165.39166666666665,165.6375,87.0,84.0
285,165.64166666666665,165.9125,85.0,88.0
286,165.89166666666665,166.175,87.0,83.0
287,166.14166666666665,166.89166666666665,85.0,94.0
288,166.89166666666665,167.38333333333333,82.0,86.0
289,167.39166666666665,168.225,80.0,87.0
290,168.64166666666665,168.80625,85.0,99.0
291,168.89166666666665,169.06458333333333,84.0,87.0
292,169.14166666666665,169.425,85.0,92.0
293,169.64166666666665,169.83541666666667,85.0,100.0
294,169.89166666666665,170.10208333333333,84.0,85.0
295,170.14166666666665,170.56875,85.0,89.0
296,170.64166666666665,170.81458333333333,92.0,84.0
297,170.89166666666665,171.40625,89.0,92.0
298,171.39166666666665,171.66666666666666,85.0,84.0
299,171.64166666666665,171.88125,82.0,92.0
300,171.89166666666665,172.10833333333332,85.0,76.0
301,172.14166666666665,173.42291666666665,90.0,92.0
302,173.64166666666665,173.85416666666666,87.0,90.0
303,173.89166666666665,174.05,89.0,87.0
304,174.14166666666665,174.53541666666666,90.0,90.0
305,174.64166666666665,174.83125,90.0,86.0
306,174.89166666666665,175.64166666666665,89.0,87.0
307,175.64166666666665,176.16875,85.0,88.0
308,176.14166666666665,176.89166666666665,92.0,90.0
309,177.14166666666665,178.49166666666667,94.0,90.0
310,180.14166666666665,180.64166666666665,91.0,89.0
311,180.64166666666665,180.90416666666667,91.0,85.0
312,180.89166666666665,181.39166666666665,89.0,88.0
313,181.39166666666665,181.56875,87.0,87.0
314,181.89166666666665,182.63333333333333,89.0,86.0
315,182.64166666666665,182.91041666666666,87.0,85.0
316,182.89166666666665,183.62708333333333,86.0,85.0
317,183.89166666666665,184.03958333333333,82.0,85.0
318,184.14166666666665,184.32291666666666,87.0,89.0
319,184.39166666666665,184.51875,86.0,84.0
320,184.64166666666665,184.77083333333334,87.0,90.0
321,184.89166666666665,185.03958333333333,89.0,85.0
322,185.14166666666665,185.52291666666667,91.0,87.0
323,185.64166666666665,185.79375,87.0,85.0
324,185.89166666666665,186.40416666666667,86.0,85.0
325,186.39166666666665,186.58125,87.0,83.0
326,186.64166666666665,186.875,86.0,85.0
327,186.89166666666665,187.04375,87.0,80.0
328,187.14166666666665,187.70208333333332,86.0,80.0
329,187.64166666666665,187.825,82.0,84.0
330,187.89166666666665,188.35416666666666,80.0,84.0
331,188.39166666666665,189.19166666666666,87.0,87.0
332,189.64166666666665,189.88125,80.0,87.0
333,189.89166666666665,190.34166666666667,79.0,90.0
334,190.39166666666665,190.68125,91.0,90.0
335,190.64166666666665,190.91875,89.0,84.0
336,190.89166666666665,191.74583333333334,87.0,84.0
337,191.90833333333333,192.01875,87.0,84.0
338,192.14166666666665,192.40833333333333,89.0,90.0
339,192.39166666666665,192.56875,91.0,84.0
340,192.64166666666665,192.80625,89.0,88.0
341,192.89166666666665,193.14791666666667,91.0,89.0
342,193.14166666666665,193.47083333333333,89.0,87.0
343,193.64166666666665,193.82708333333332,84.0,83.0
344,193.89166666666665,194.31666666666666,89.0,89.0
345,194.39166666666665,194.59583333333333,91.0,85.0
346,194.64166666666665,194.85416666666666,89.0,83.0
347,194.89166666666665,195.04375,91.0,88.0
348,195.14166666666665,195.60625,89.0,92.0
349,195.89166666666665,196.06458333333333,87.0,87.0
350,196.14166666666665,196.64166666666665,94.0,89.0
351,196.64166666666665,197.14166666666665,91.0,85.0
352,197.64166666666665,197.89166666666665,91.0,87.0
353,197.89166666666665,198.63333333333333,89.0,86.0
354,198.64166666666665,198.91041666666666,91.0,85.0
355,198.89166666666665,199.62708333333333,89.0,85.0
356,199.89166666666665,200.03958333333333,82.0,85.0
357,200.14166666666665,200.32291666666666,84.0,89.0
358,200.39166666666665,200.51875,86.0,84.0
359,200.64166666666665,200.77083333333334,87.0,90.0
360,200.89166666666665,201.03958333333333,89.0,85.0
361,201.14166666666665,201.52291666666667,91.0,87.0
362,201.64166666666665,201.79375,96.0,85.0
363,201.89166666666665,203.14166666666665,94.0,85.0
364,203.64166666666665,203.89166666666665,82.0,84.0
365,203.89166666666665,204.39166666666665,84.0,87.0
366,204.64166666666665,204.8,91.0,89.0
367,204.89166666666665,205.5,92.0,89.0
368,205.64166666666665,205.83124999999998,91.0,85.0
369,205.89166666666665,206.39166666666665,89.0,85.0
370,206.39166666666665,207.27916666666667,87.0,87.0
371,207.89166666666665,208.05833333333334,79.0,86.0
372,208.14166666666665,208.5875,80.0,89.0
373,208.64166666666665,209.64166666666665,87.0,87.0
374,209.89166666666665,210.14166666666665,79.0,88.0
375,210.14166666666665,210.55833333333334,80.0,85.0
376,210.64166666666665,210.84166666666667,89.0,84.0
377,210.89166666666665,211.83124999999998,87.0,84.0
378,211.89166666666665,212.17708333333334,86.0,76.0
379,212.14166666666665,214.375,87.0,86.0
380,215.89166666666665,216.10625,82.0,83.0
381,216.14166666666665,216.50416666666666,84.0,89.0
382,216.64166666666665,216.80208333333334,91.0,94.0
383,216.89166666666665,217.5625,92.0,87.0
384,217.64166666666665,218.09166666666667,91.0,89.0
385,218.14166666666665,218.40625,89.0,84.0
386,218.39166666666665,219.52708333333334,87.0,84.0
387,219.89166666666665,220.04999999999998,79.0,79.0
388,220.14166666666665,220.63958333333332,80.0,87.0
389,220.64166666666665,220.99375,87.0,90.0
390,221.14166666666665,222.47708333333333,87.0,89.0
391,222.86666666666667,223.41875,80.0,88.0
392,223.36875,223.93958333333333,89.0,86.0
393,223.91458333333333,225.09583333333333,87.0,84.0
394,225.71666666666667,226.15208333333334,86.0,85.0
395,226.325,226.6375,91.0,87.0
396,226.60208333333333,226.91666666666666,89.0,78.0
397,226.88958333333332,229.97916666666666,87.0,79.0
