,start,end,pitch,velocity
0,4.141666666666667,4.43125,58.0,69.0
1,4.141666666666667,4.685416666666667,61.0,72.0
2,4.891666666666667,5.779166666666667,61.0,76.0
3,4.641666666666667,5.822916666666667,58.0,72.0
4,4.141666666666667,5.960416666666666,46.0,83.0
5,4.391666666666667,6.079166666666667,53.0,73.0
6,5.141666666666667,6.7124999999999995,65.0,74.0
7,6.391666666666667,7.754166666666666,53.0,70.0
8,6.891666666666667,7.754166666666666,60.0,75.0
9,6.641666666666667,7.7625,56.0,73.0
10,6.141666666666667,7.822916666666667,44.0,77.0
11,7.141666666666667,8.122916666666667,65.0,65.0
12,8.141666666666666,9.533333333333333,54.0,73.0
13,8.141666666666666,9.575,58.0,75.0
14,8.391666666666666,9.625,49.0,69.0
15,8.141666666666666,9.639583333333333,42.0,83.0
16,8.641666666666666,9.664583333333333,61.0,76.0
17,8.891666666666666,9.825,66.0,58.0
18,10.141666666666666,10.277083333333334,56.0,74.0
19,10.141666666666666,10.470833333333333,61.0,76.0
20,10.141666666666666,10.579166666666666,49.0,83.0
21,10.391666666666666,10.679166666666667,56.0,78.0
22,10.641666666666666,10.80625,61.0,76.0
23,11.141666666666666,11.420833333333333,60.0,75.0
24,11.141666666666666,11.614583333333334,65.0,83.0
25,11.141666666666666,11.66875,41.0,85.0
26,11.391666666666666,11.69375,48.0,72.0
27,11.641666666666666,11.916666666666666,60.0,76.0
28,11.891666666666666,12.129166666666666,65.0,73.0
29,12.141666666666666,12.441666666666666,58.0,72.0
30,12.141666666666666,12.666666666666666,61.0,75.0
31,12.641666666666666,12.954166666666666,58.0,73.0
32,12.891666666666666,13.222916666666666,61.0,75.0
33,12.141666666666666,13.487499999999999,46.0,83.0
34,12.391666666666666,13.539583333333333,53.0,74.0
35,13.141666666666666,14.16875,65.0,79.0
36,14.141666666666666,14.629166666666666,60.0,69.0
37,14.641666666666666,15.05625,56.0,71.0
38,14.891666666666666,15.229166666666666,60.0,72.0
39,14.391666666666666,15.302083333333334,48.0,71.0
40,14.141666666666666,15.327083333333333,41.0,80.0
41,15.141666666666666,15.454166666666666,65.0,84.0
42,16.141666666666666,16.741666666666667,61.0,78.0
43,16.641666666666666,17.33125,54.0,73.0
44,16.891666666666666,17.4125,58.0,81.0
45,16.391666666666666,17.4875,49.0,73.0
46,16.141666666666666,17.552083333333332,42.0,82.0
47,17.391666666666666,17.65833333333333,61.0,79.0
48,18.141666666666666,18.679166666666667,61.0,78.0
49,18.391666666666666,19.270833333333332,49.0,72.0
50,18.641666666666666,19.297916666666666,54.0,74.0
51,18.891666666666666,19.310416666666665,58.0,73.0
52,18.141666666666666,19.352083333333333,42.0,79.0
53,19.141666666666666,19.360416666666666,66.0,75.0
54,20.141666666666666,20.858333333333334,61.0,76.0
55,20.141666666666666,21.20625,49.0,80.0
56,20.641666666666666,21.245833333333334,56.0,79.0
57,21.141666666666666,21.295833333333334,61.0,69.0
58,21.141666666666666,21.352083333333333,65.0,74.0
59,22.141666666666666,23.320833333333333,60.0,75.0
60,22.141666666666666,23.435416666666665,44.0,77.0
61,23.141666666666666,23.435416666666665,63.0,76.0
62,22.641666666666666,23.46875,51.0,67.0
63,24.141666666666666,25.16875,65.0,79.0
64,25.141666666666666,25.472916666666666,58.0,72.0
65,24.141666666666666,25.645833333333332,46.0,76.0
66,24.641666666666666,25.675,53.0,69.0
67,25.391666666666666,25.679166666666667,60.0,74.0
68,25.641666666666666,25.766666666666666,61.0,83.0
69,26.141666666666666,27.23125,56.0,72.0
70,26.141666666666666,27.258333333333333,60.0,76.0
71,27.141666666666666,27.558333333333334,68.0,83.0
72,26.641666666666666,27.560416666666665,51.0,67.0
73,26.141666666666666,27.629166666666666,44.0,77.0
74,27.391666666666666,27.662499999999998,63.0,81.0
75,27.641666666666666,27.785416666666666,56.0,77.0
76,28.141666666666666,29.25208333333333,54.0,73.0
77,28.641666666666666,29.58125,49.0,63.0
78,28.141666666666666,29.641666666666666,58.0,73.0
79,28.141666666666666,29.65,42.0,81.0
80,29.141666666666666,29.672916666666666,66.0,80.0
81,29.641666666666666,29.7625,54.0,72.0
82,30.141666666666666,31.162499999999998,53.0,77.0
83,30.141666666666666,31.1875,56.0,78.0
84,30.641666666666666,31.2,60.0,75.0
85,31.141666666666666,31.308333333333334,65.0,86.0
86,30.141666666666666,31.335416666666667,41.0,83.0
87,32.141666666666666,32.71041666666667,66.0,77.0
88,32.641666666666666,32.96666666666667,58.0,72.0
89,32.891666666666666,33.166666666666664,63.0,78.0
90,32.391666666666666,33.2875,46.0,68.0
91,32.141666666666666,33.360416666666666,39.0,84.0
92,33.141666666666666,34.07083333333333,66.0,83.0
93,34.391666666666666,34.84166666666667,53.0,80.0
94,34.141666666666666,34.84375,46.0,84.0
95,34.641666666666666,34.9375,58.0,79.0
96,34.891666666666666,35.016666666666666,61.0,87.0
97,35.141666666666666,35.4375,56.0,78.0
98,35.141666666666666,35.67916666666667,60.0,83.0
99,35.641666666666666,35.8,56.0,82.0
100,35.391666666666666,35.827083333333334,51.0,72.0
101,35.141666666666666,35.858333333333334,44.0,83.0
102,36.141666666666666,36.77291666666667,56.0,78.0
103,36.141666666666666,37.18333333333333,61.0,80.0
104,36.141666666666666,37.81875,49.0,83.0
105,36.641666666666666,37.86666666666667,53.0,66.0
106,37.141666666666666,38.1,65.0,87.0
107,38.141666666666666,38.65,60.0,80.0
108,38.641666666666666,38.97708333333333,56.0,83.0
109,38.391666666666666,39.58125,51.0,72.0
110,38.141666666666666,39.735416666666666,44.0,77.0
111,38.891666666666666,40.0375,63.0,83.0
112,40.141666666666666,40.65833333333333,61.0,73.0
113,40.641666666666666,41.15208333333333,58.0,86.0
114,40.391666666666666,41.22708333333333,53.0,83.0
115,40.891666666666666,41.2375,61.0,83.0
116,40.141666666666666,41.25208333333333,46.0,75.0
117,41.141666666666666,41.27916666666667,70.0,79.0
118,42.141666666666666,42.44166666666666,56.0,74.0
119,42.141666666666666,42.666666666666664,59.0,72.0
120,42.141666666666666,42.77708333333333,61.0,71.0
121,42.641666666666666,43.06666666666666,56.0,76.0
122,43.141666666666666,43.36666666666667,59.0,74.0
123,42.391666666666666,43.675,44.0,75.0
124,43.391666666666666,43.7,56.0,78.0
125,42.141666666666666,43.708333333333336,37.0,79.0
126,43.141666666666666,43.725,65.0,84.0
127,43.641666666666666,43.827083333333334,61.0,74.0
128,44.141666666666666,44.416666666666664,54.0,73.0
129,44.141666666666666,44.775,58.0,74.0
130,44.641666666666666,45.416666666666664,61.0,69.0
131,44.141666666666666,45.59166666666667,42.0,84.0
132,44.391666666666666,45.59583333333333,49.0,74.0
133,45.141666666666666,45.72083333333333,66.0,84.0
134,46.141666666666666,46.41875,58.0,75.0
135,46.141666666666666,46.75625,61.0,76.0
136,46.141666666666666,47.447916666666664,46.0,83.0
137,46.641666666666666,47.46041666666667,58.0,75.0
138,46.391666666666666,47.46666666666667,53.0,76.0
139,47.141666666666666,47.516666666666666,70.0,76.0
140,48.141666666666666,48.39375,59.0,74.0
141,48.141666666666666,48.68541666666667,63.0,66.0
142,48.391666666666666,49.75416666666666,54.0,63.0
143,48.641666666666666,49.775,59.0,76.0
144,48.891666666666666,49.8,63.0,80.0
145,49.141666666666666,49.83125,66.0,76.0
146,48.141666666666666,49.85,47.0,85.0
147,50.141666666666666,50.68333333333333,63.0,81.0
148,50.641666666666666,50.97708333333333,56.0,84.0
149,50.891666666666666,51.16875,63.0,83.0
150,51.141666666666666,51.28333333333333,68.0,84.0
151,51.391666666666666,51.57083333333333,63.0,87.0
152,50.391666666666666,51.824999999999996,51.0,81.0
153,50.141666666666666,51.889583333333334,44.0,82.0
154,51.641666666666666,51.949999999999996,68.0,76.0
155,51.891666666666666,51.96041666666667,63.0,31.0
156,52.141666666666666,52.37708333333333,63.0,84.0
157,52.141666666666666,52.520833333333336,72.0,83.0
158,52.641666666666666,53.26875,63.0,84.0
159,52.891666666666666,53.30625,68.0,83.0
160,52.391666666666666,53.475,51.0,74.0
161,53.391666666666666,53.71041666666667,63.0,85.0
162,52.141666666666666,53.72291666666666,44.0,84.0
163,53.641666666666666,53.952083333333334,51.0,80.0
164,53.391666666666666,54.172916666666666,68.0,84.0
165,53.891666666666666,54.177083333333336,63.0,83.0
166,54.141666666666666,54.24583333333333,37.0,83.0
167,54.141666666666666,54.55833333333333,56.0,83.0
168,54.141666666666666,54.6875,61.0,83.0
169,54.891666666666666,55.50416666666666,56.0,71.0
170,54.641666666666666,55.53125,49.0,81.0
171,55.141666666666666,55.66458333333333,61.0,87.0
172,55.391666666666666,55.67916666666667,65.0,89.0
173,55.641666666666666,55.766666666666666,68.0,89.0
174,56.141666666666666,57.14791666666667,56.0,71.0
175,56.141666666666666,57.15833333333333,60.0,76.0
176,57.141666666666666,57.45625,68.0,83.0
177,57.391666666666666,57.59166666666667,63.0,90.0
178,56.141666666666666,57.64375,44.0,83.0
179,56.641666666666666,57.672916666666666,51.0,74.0
180,57.641666666666666,57.81458333333333,56.0,88.0
181,58.141666666666666,58.672916666666666,61.0,78.0
182,58.141666666666666,58.71666666666667,58.0,76.0
183,58.641666666666666,58.975,65.0,84.0
184,58.891666666666666,59.00833333333333,61.0,79.0
185,59.141666666666666,59.4375,70.0,85.0
186,58.391666666666666,59.62083333333333,53.0,74.0
187,59.391666666666666,59.64375,65.0,85.0
188,58.141666666666666,59.65416666666667,46.0,84.0
189,59.641666666666666,59.762499999999996,58.0,85.0
190,60.141666666666666,60.670833333333334,60.0,78.0
191,60.141666666666666,60.697916666666664,56.0,75.0
192,60.641666666666666,61.043749999999996,63.0,80.0
193,60.891666666666666,61.08125,60.0,80.0
194,61.141666666666666,61.43541666666667,68.0,86.0
195,60.391666666666666,61.708333333333336,51.0,74.0
196,61.391666666666666,61.71875,63.0,85.0
197,60.141666666666666,61.77708333333333,44.0,83.0
198,61.641666666666666,61.795833333333334,56.0,85.0
199,62.141666666666666,62.47083333333333,58.0,79.0
200,62.141666666666666,62.708333333333336,61.0,78.0
201,62.641666666666666,63.114583333333336,66.0,82.0
202,62.891666666666666,63.229166666666664,58.0,74.0
203,63.141666666666666,63.41458333333333,61.0,85.0
204,62.391666666666666,63.66041666666666,49.0,76.0
205,63.391666666666666,63.670833333333334,58.0,84.0
206,62.141666666666666,63.72083333333333,42.0,84.0
207,63.641666666666666,63.78541666666666,66.0,83.0
208,64.14166666666667,64.65208333333334,65.0,85.0
209,64.39166666666667,64.74375,56.0,78.0
210,64.64166666666667,64.94166666666666,61.0,75.0
211,64.89166666666667,65.41666666666667,65.0,89.0
212,64.14166666666667,65.56458333333333,41.0,77.0
213,65.39166666666667,66.10208333333333,61.0,85.0
214,65.64166666666667,66.10416666666667,56.0,85.0
215,66.14166666666667,66.69583333333333,66.0,84.0
216,66.89166666666667,67.31041666666667,63.0,85.0
217,66.64166666666667,67.34166666666667,59.0,84.0
218,66.39166666666667,67.59166666666667,54.0,71.0
219,66.14166666666667,67.62083333333334,47.0,88.0
220,67.39166666666667,67.68125,66.0,86.0
221,67.64166666666667,67.7625,59.0,84.0
222,68.14166666666667,68.44375,57.0,83.0
223,68.14166666666667,68.51458333333333,45.0,92.0
224,68.39166666666667,68.60208333333333,52.0,78.0
225,68.14166666666667,68.61458333333333,64.0,74.0
226,68.64166666666667,68.88541666666667,57.0,85.0
227,68.89166666666667,68.96041666666666,64.0,81.0
228,69.14166666666667,69.46458333333334,56.0,79.0
229,69.14166666666667,69.70208333333333,63.0,84.0
230,69.64166666666667,69.84583333333333,56.0,92.0
231,69.39166666666667,69.85833333333333,51.0,84.0
232,69.14166666666667,69.9,44.0,85.0
233,70.14166666666667,70.30833333333334,56.0,84.0
234,70.14166666666667,70.47708333333333,61.0,83.0
235,70.39166666666667,70.6875,56.0,86.0
236,70.64166666666667,70.81458333333333,61.0,77.0
237,70.89166666666667,71.44166666666666,65.0,84.0
238,71.39166666666667,71.7,56.0,81.0
239,71.64166666666667,71.77291666666666,61.0,84.0
240,70.14166666666667,71.81041666666667,49.0,90.0
241,72.14166666666667,72.37083333333334,56.0,78.0
242,72.14166666666667,72.44375,63.0,83.0
243,72.64166666666667,73.25208333333333,56.0,84.0
244,72.89166666666667,73.44375,63.0,83.0
245,73.39166666666667,73.52916666666667,66.0,78.0
246,73.39166666666667,73.72291666666666,68.0,79.0
247,72.14166666666667,73.90208333333334,44.0,84.0
248,73.64166666666667,73.95,56.0,89.0
249,72.39166666666667,73.95208333333333,51.0,78.0
250,73.89166666666667,74.02083333333333,63.0,83.0
251,74.14166666666667,74.41041666666666,58.0,79.0
252,74.14166666666667,74.66875,61.0,83.0
253,74.64166666666667,74.95625,58.0,83.0
254,74.89166666666667,75.4875,65.0,84.0
255,75.39166666666667,75.66666666666667,70.0,84.0
256,74.14166666666667,75.69791666666667,46.0,85.0
257,74.39166666666667,75.70208333333333,53.0,73.0
258,75.64166666666667,75.77708333333334,58.0,84.0
259,76.14166666666667,76.42083333333333,56.0,84.0
260,76.14166666666667,76.68333333333334,59.0,82.0
261,76.39166666666667,76.7,51.0,83.0
262,76.14166666666667,76.71041666666666,44.0,85.0
263,76.64166666666667,76.80625,56.0,87.0
264,77.14166666666667,77.44583333333333,56.0,83.0
265,77.14166666666667,77.72916666666667,61.0,82.0
266,77.39166666666667,77.8625,44.0,77.0
267,77.14166666666667,77.88333333333333,37.0,84.0
268,77.89166666666667,77.94583333333333,61.0,41.0
269,77.89166666666667,78.01458333333333,59.0,90.0
270,77.64166666666667,78.08125,56.0,83.0
271,78.64166666666667,79.425,54.0,81.0
272,78.89166666666667,79.47291666666666,61.0,79.0
273,78.39166666666667,79.68958333333333,49.0,78.0
274,79.39166666666667,79.69166666666666,66.0,84.0
275,78.14166666666667,79.70833333333333,42.0,87.0
276,79.64166666666667,79.77708333333334,54.0,85.0
277,80.14166666666667,80.67916666666666,53.0,82.0
278,80.14166666666667,80.71875,56.0,83.0
279,80.64166666666667,81.17083333333333,60.0,78.0
280,80.89166666666667,81.175,53.0,88.0
281,80.39166666666667,81.53958333333333,48.0,75.0
282,80.14166666666667,81.5625,41.0,85.0
283,81.14166666666667,81.625,65.0,88.0
284,81.39166666666667,81.67708333333333,60.0,83.0
285,81.64166666666667,81.76875,53.0,88.0
286,82.14166666666667,82.53958333333333,51.0,79.0
287,82.14166666666667,82.94791666666667,54.0,79.0
288,82.64166666666667,82.95208333333333,58.0,77.0
289,82.14166666666667,83.56041666666667,39.0,87.0
290,82.39166666666667,83.58333333333333,46.0,74.0
291,83.64166666666667,84.00833333333333,51.0,84.0
292,83.39166666666667,84.05,58.0,81.0
293,82.89166666666667,84.12291666666667,63.0,86.0
294,84.14166666666667,84.70625,63.0,82.0
295,84.64166666666667,85.68333333333334,56.0,86.0
296,84.89166666666667,85.77291666666666,63.0,84.0
297,84.39166666666667,85.81666666666666,51.0,71.0
298,84.14166666666667,85.8625,44.0,83.0
299,86.14166666666667,86.51458333333333,61.0,78.0
300,86.39166666666667,86.79583333333333,56.0,71.0
301,86.64166666666667,86.93958333333333,61.0,79.0
302,86.14166666666667,87.4875,49.0,86.0
303,86.89166666666667,87.51041666666667,65.0,79.0
304,88.14166666666667,88.53333333333333,45.0,87.0
305,88.39166666666667,88.69583333333333,52.0,76.0
306,88.64166666666667,88.92083333333333,57.0,87.0
307,88.89166666666667,89.02291666666666,64.0,72.0
308,89.64166666666667,89.92708333333333,56.0,87.0
309,89.14166666666667,90.01666666666667,44.0,85.0
310,89.39166666666667,90.03333333333333,51.0,75.0
311,90.14166666666667,90.85833333333333,61.0,76.0
312,90.14166666666667,91.20625,49.0,80.0
313,90.64166666666667,91.24583333333334,56.0,79.0
314,91.14166666666667,91.29583333333333,61.0,69.0
315,91.14166666666667,91.35208333333333,65.0,74.0
316,92.14166666666667,93.32083333333333,60.0,75.0
317,92.14166666666667,93.43541666666667,44.0,77.0
318,93.14166666666667,93.43541666666667,63.0,76.0
319,92.64166666666667,93.46875,51.0,67.0
320,94.14166666666667,95.16875,65.0,79.0
321,95.14166666666667,95.47291666666666,58.0,72.0
322,94.14166666666667,95.64583333333333,46.0,76.0
323,94.64166666666667,95.675,53.0,69.0
324,95.39166666666667,95.67916666666666,60.0,74.0
325,95.64166666666667,95.76666666666667,61.0,83.0
326,96.14166666666667,97.23125,56.0,72.0
327,96.14166666666667,97.25833333333333,60.0,76.0
328,97.14166666666667,97.55833333333334,68.0,83.0
329,96.64166666666667,97.56041666666667,51.0,67.0
330,96.14166666666667,97.62916666666666,44.0,77.0
331,97.39166666666667,97.6625,63.0,81.0
332,97.64166666666667,97.78541666666666,56.0,77.0
333,98.14166666666667,99.25208333333333,54.0,73.0
334,98.64166666666667,99.58125,49.0,63.0
335,98.14166666666667,99.64166666666667,58.0,73.0
336,98.14166666666667,99.65,42.0,81.0
337,99.14166666666667,99.67291666666667,66.0,80.0
338,99.64166666666667,99.7625,54.0,72.0
339,100.14166666666667,101.1625,53.0,77.0
340,100.14166666666667,101.1875,56.0,78.0
341,100.64166666666667,101.2,60.0,75.0
342,101.14166666666667,101.30833333333334,65.0,86.0
343,100.14166666666667,101.33541666666666,41.0,83.0
344,102.14166666666667,102.71041666666666,66.0,77.0
345,102.64166666666667,102.96666666666667,58.0,72.0
346,102.89166666666667,103.16666666666667,63.0,78.0
347,102.39166666666667,103.2875,46.0,68.0
348,102.14166666666667,103.36041666666667,39.0,84.0
349,103.14166666666667,104.07083333333333,66.0,83.0
350,104.39166666666667,104.84166666666667,53.0,80.0
351,104.14166666666667,104.84375,46.0,84.0
352,104.64166666666667,104.9375,58.0,79.0
353,104.89166666666667,105.01666666666667,61.0,87.0
354,105.14166666666667,105.4375,56.0,78.0
355,105.14166666666667,105.67916666666666,60.0,83.0
356,105.64166666666667,105.8,56.0,82.0
357,105.39166666666667,105.82708333333333,51.0,72.0
358,105.14166666666667,105.85833333333333,44.0,83.0
359,106.14166666666667,106.77291666666666,56.0,78.0
360,106.14166666666667,107.18333333333334,61.0,80.0
361,106.14166666666667,107.81875,49.0,83.0
362,106.64166666666667,107.86666666666666,53.0,66.0
363,107.14166666666667,108.1,65.0,87.0
364,108.14166666666667,108.64999999999999,60.0,80.0
365,108.64166666666667,108.97708333333333,56.0,83.0
366,108.39166666666667,109.58125,51.0,72.0
367,108.14166666666667,109.73541666666667,44.0,77.0
368,108.89166666666667,110.0375,63.0,83.0
369,110.14166666666667,110.65833333333333,61.0,73.0
370,110.64166666666667,111.15208333333334,58.0,86.0
371,110.39166666666667,111.22708333333333,53.0,83.0
372,110.89166666666667,111.2375,61.0,83.0
373,110.14166666666667,111.25208333333333,46.0,75.0
374,111.14166666666667,111.27916666666667,70.0,79.0
375,112.14166666666667,112.44166666666666,56.0,74.0
376,112.14166666666667,112.66666666666667,59.0,72.0
377,112.14166666666667,112.77708333333334,61.0,71.0
378,112.64166666666667,113.06666666666666,56.0,76.0
379,113.14166666666667,113.36666666666666,59.0,74.0
380,112.39166666666667,113.675,44.0,75.0
381,113.39166666666667,113.7,56.0,78.0
382,112.14166666666667,113.70833333333333,37.0,79.0
383,113.14166666666667,113.725,65.0,84.0
384,113.64166666666667,113.82708333333333,61.0,74.0
385,114.14166666666667,114.41666666666667,54.0,73.0
386,114.14166666666667,114.77499999999999,58.0,74.0
387,114.64166666666667,115.41666666666667,61.0,69.0
388,114.14166666666667,115.59166666666667,42.0,84.0
389,114.39166666666667,115.59583333333333,49.0,74.0
390,115.14166666666667,115.72083333333333,66.0,84.0
391,116.14166666666667,116.41875,58.0,75.0
392,116.14166666666667,116.75625,61.0,76.0
393,116.14166666666667,117.44791666666667,46.0,83.0
394,116.64166666666667,117.46041666666666,58.0,75.0
395,116.39166666666667,117.46666666666667,53.0,76.0
396,117.14166666666667,117.51666666666667,70.0,76.0
397,118.14166666666667,118.39375,59.0,74.0
398,118.14166666666667,118.68541666666667,63.0,66.0
399,118.39166666666667,119.75416666666666,54.0,63.0
400,118.64166666666667,119.77499999999999,59.0,76.0
401,118.89166666666667,119.8,63.0,80.0
402,119.14166666666667,119.83125,66.0,76.0
403,118.14166666666667,119.85,47.0,85.0
404,120.14166666666667,120.68333333333334,63.0,81.0
405,120.64166666666667,120.97708333333333,56.0,84.0
406,120.89166666666667,121.16875,63.0,83.0
407,121.14166666666667,121.28333333333333,68.0,84.0
408,121.39166666666667,121.57083333333333,63.0,87.0
409,120.39166666666667,121.825,51.0,81.0
410,120.14166666666667,121.88958333333333,44.0,82.0
411,121.64166666666667,121.95,68.0,76.0
412,121.89166666666667,121.96041666666666,63.0,31.0
413,122.14166666666667,122.37708333333333,63.0,84.0
414,122.14166666666667,122.52083333333333,72.0,83.0
415,122.64166666666667,123.26875,63.0,84.0
416,122.89166666666667,123.30624999999999,68.0,83.0
417,122.39166666666667,123.475,51.0,74.0
418,123.39166666666667,123.71041666666666,63.0,85.0
419,122.14166666666667,123.72291666666666,44.0,84.0
420,123.64166666666667,123.95208333333333,51.0,80.0
421,123.39166666666667,124.17291666666667,68.0,84.0
422,123.89166666666667,124.17708333333333,63.0,83.0
423,124.14166666666667,124.24583333333334,37.0,83.0
424,124.14166666666667,124.55833333333334,56.0,83.0
425,124.14166666666667,124.6875,61.0,83.0
426,124.89166666666667,125.50416666666666,56.0,71.0
427,124.64166666666667,125.53125,49.0,81.0
428,125.14166666666667,125.66458333333333,61.0,87.0
429,125.39166666666667,125.67916666666666,65.0,89.0
430,125.64166666666667,125.76666666666667,68.0,89.0
431,126.14166666666667,127.14791666666666,56.0,71.0
432,126.14166666666667,127.15833333333333,60.0,76.0
433,127.14166666666667,127.45625,68.0,83.0
434,127.39166666666667,127.59166666666667,63.0,90.0
435,126.14166666666667,127.64375,44.0,83.0
436,126.64166666666667,127.67291666666667,51.0,74.0
437,127.64166666666667,127.81458333333333,56.0,88.0
438,128.14166666666665,128.67291666666665,61.0,78.0
439,128.14166666666665,128.71666666666667,58.0,76.0
440,128.64166666666665,128.975,65.0,84.0
441,128.89166666666665,129.00833333333333,61.0,79.0
442,129.14166666666665,129.4375,70.0,85.0
443,128.39166666666665,129.62083333333334,53.0,74.0
444,129.39166666666665,129.64375,65.0,85.0
445,128.14166666666665,129.65416666666667,46.0,84.0
446,129.64166666666665,129.7625,58.0,85.0
447,130.14166666666665,130.67083333333332,60.0,78.0
448,130.14166666666665,130.69791666666666,56.0,75.0
449,130.64166666666665,131.04375,63.0,80.0
450,130.89166666666665,131.08125,60.0,80.0
451,131.14166666666665,131.43541666666667,68.0,86.0
452,130.39166666666665,131.70833333333334,51.0,74.0
453,131.39166666666665,131.71875,63.0,85.0
454,130.14166666666665,131.77708333333334,44.0,83.0
455,131.64166666666665,131.79583333333332,56.0,85.0
456,132.14166666666665,132.47083333333333,58.0,79.0
457,132.14166666666665,132.70833333333334,61.0,78.0
458,132.64166666666665,133.11458333333334,66.0,82.0
459,132.89166666666665,133.22916666666666,58.0,74.0
460,133.14166666666665,133.41458333333333,61.0,85.0
461,132.39166666666665,133.66041666666666,49.0,76.0
462,133.39166666666665,133.67083333333332,58.0,84.0
463,132.14166666666665,133.72083333333333,42.0,84.0
464,133.64166666666665,133.78541666666666,66.0,83.0
465,134.14166666666665,134.65208333333334,65.0,85.0
466,134.39166666666665,134.74375,56.0,78.0
467,134.64166666666665,134.94166666666666,61.0,75.0
468,134.89166666666665,135.41666666666666,65.0,89.0
469,134.14166666666665,135.56458333333333,41.0,77.0
470,135.39166666666665,136.10208333333333,61.0,85.0
471,135.64166666666665,136.10416666666666,56.0,85.0
472,136.14166666666665,136.69583333333333,66.0,84.0
473,136.89166666666665,137.31041666666667,63.0,85.0
474,136.64166666666665,137.34166666666667,59.0,84.0
475,136.39166666666665,137.59166666666667,54.0,71.0
476,136.14166666666665,137.62083333333334,47.0,88.0
477,137.39166666666665,137.68125,66.0,86.0
478,137.64166666666665,137.7625,59.0,84.0
479,138.14166666666665,138.44375,57.0,83.0
480,138.14166666666665,138.51458333333332,45.0,92.0
481,138.39166666666665,138.60208333333333,52.0,78.0
482,138.14166666666665,138.61458333333334,64.0,74.0
483,138.64166666666665,138.88541666666666,57.0,85.0
484,138.89166666666665,138.96041666666667,64.0,81.0
485,139.14166666666665,139.46458333333334,56.0,79.0
486,139.14166666666665,139.70208333333332,63.0,84.0
487,139.64166666666665,139.84583333333333,56.0,92.0
488,139.39166666666665,139.85833333333332,51.0,84.0
489,139.14166666666665,139.9,44.0,85.0
490,140.14166666666665,140.30833333333334,56.0,84.0
491,140.14166666666665,140.47708333333333,61.0,83.0
492,140.39166666666665,140.6875,56.0,86.0
493,140.64166666666665,140.81458333333333,61.0,77.0
494,140.89166666666665,141.44166666666666,65.0,84.0
495,141.39166666666665,141.7,56.0,81.0
496,141.64166666666665,141.77291666666667,61.0,84.0
497,140.14166666666665,141.81041666666667,49.0,90.0
498,142.14166666666665,142.37083333333334,56.0,78.0
499,142.14166666666665,142.44375,63.0,83.0
500,142.64166666666665,143.25208333333333,56.0,84.0
501,142.89166666666665,143.44375,63.0,83.0
502,143.39166666666665,143.52916666666667,66.0,78.0
503,143.39166666666665,143.72291666666666,68.0,79.0
504,142.14166666666665,143.90208333333334,44.0,84.0
505,143.64166666666665,143.95,56.0,89.0
506,142.39166666666665,143.95208333333332,51.0,78.0
507,143.89166666666665,144.02083333333334,63.0,83.0
508,144.14166666666665,144.41041666666666,58.0,79.0
509,144.14166666666665,144.66875,61.0,83.0
510,144.64166666666665,144.95625,58.0,83.0
511,144.89166666666665,145.4875,65.0,84.0
512,145.39166666666665,145.66666666666666,70.0,84.0
513,144.14166666666665,145.69791666666666,46.0,85.0
514,144.39166666666665,145.70208333333332,53.0,73.0
515,145.64166666666665,145.77708333333334,58.0,84.0
516,146.14166666666665,146.42083333333332,56.0,84.0
517,146.14166666666665,146.68333333333334,59.0,82.0
518,146.39166666666665,146.7,51.0,83.0
519,146.14166666666665,146.71041666666667,44.0,85.0
520,146.64166666666665,146.80625,56.0,87.0
521,147.14166666666665,147.44583333333333,56.0,83.0
522,147.14166666666665,147.72916666666666,61.0,82.0
523,147.39166666666665,147.8625,44.0,77.0
524,147.14166666666665,147.88333333333333,37.0,84.0
525,147.89166666666665,147.94583333333333,61.0,41.0
526,147.89166666666665,148.01458333333332,59.0,90.0
527,147.64166666666665,148.08125,56.0,83.0
528,148.64166666666665,149.425,54.0,81.0
529,148.89166666666665,149.47291666666666,61.0,79.0
530,148.39166666666665,149.68958333333333,49.0,78.0
531,149.39166666666665,149.69166666666666,66.0,84.0
532,148.14166666666665,149.70833333333334,42.0,87.0
533,149.64166666666665,149.77708333333334,54.0,85.0
534,150.14166666666665,150.67916666666667,53.0,82.0
535,150.14166666666665,150.71875,56.0,83.0
536,150.64166666666665,151.17083333333332,60.0,78.0
537,150.89166666666665,151.175,53.0,88.0
538,150.39166666666665,151.53958333333333,48.0,75.0
539,150.14166666666665,151.5625,41.0,85.0
540,151.14166666666665,151.625,65.0,88.0
541,151.39166666666665,151.67708333333334,60.0,83.0
542,151.64166666666665,151.76875,53.0,88.0
543,152.14166666666665,152.42708333333334,58.0,79.0
544,152.14166666666665,152.6625,63.0,83.0
545,152.64166666666665,152.96041666666667,58.0,85.0
546,152.14166666666665,152.975,39.0,86.0
547,152.39166666666665,153.0,46.0,78.0
548,152.89166666666665,153.07083333333333,63.0,85.0
549,153.14166666666665,153.45625,60.0,83.0
550,153.14166666666665,153.69166666666666,65.0,86.0
551,153.14166666666665,153.96666666666667,41.0,87.0
552,153.64166666666665,154.01458333333332,60.0,85.0
553,153.39166666666665,154.025,48.0,77.0
554,153.89166666666665,154.06458333333333,65.0,84.0
555,154.14166666666665,154.45208333333332,61.0,84.0
556,154.14166666666665,154.6125,66.0,84.0
557,154.14166666666665,154.99375,42.0,85.0
558,154.64166666666665,154.99791666666667,61.0,86.0
559,154.39166666666665,155.01875,49.0,84.0
560,154.89166666666665,155.09166666666667,66.0,84.0
561,155.14166666666665,155.46458333333334,63.0,83.0
562,155.14166666666665,155.57916666666665,68.0,81.0
563,155.64166666666665,156.06041666666667,63.0,90.0
564,155.89166666666665,156.1,68.0,83.0
565,155.39166666666665,156.11666666666667,51.0,83.0
566,155.14166666666665,156.125,44.0,86.0
567,156.14166666666665,156.26458333333332,56.0,86.0
568,156.14166666666665,156.42708333333334,61.0,89.0
569,156.14166666666665,156.48125,49.0,100.0
570,156.39166666666665,156.675,56.0,84.0
571,156.64166666666665,156.78125,61.0,82.0
572,156.89166666666665,157.16041666666666,58.0,87.0
573,156.89166666666665,157.45208333333332,63.0,85.0
574,156.89166666666665,157.4875,39.0,94.0
575,157.39166666666665,157.49166666666667,58.0,83.0
576,157.64166666666665,157.81875,60.0,85.0
577,157.64166666666665,157.95833333333334,65.0,94.0
578,157.89166666666665,158.20833333333334,60.0,83.0
579,157.64166666666665,158.25208333333333,41.0,90.0
580,158.14166666666665,158.26875,65.0,80.0
581,158.39166666666665,158.72291666666666,61.0,76.0
582,158.39166666666665,158.91666666666666,66.0,85.0
583,158.39166666666665,158.92083333333332,42.0,88.0
584,159.14166666666665,159.35416666666666,56.0,83.0
585,159.14166666666665,159.35833333333332,68.0,83.0
586,159.14166666666665,159.425,80.0,85.0
587,159.14166666666665,159.43958333333333,44.0,85.0
588,159.64166666666665,159.95,81.0,86.0
589,159.64166666666665,160.13125,57.0,84.0
590,159.64166666666665,160.16041666666666,69.0,80.0
591,159.64166666666665,160.18125,45.0,92.0
592,160.14166666666665,160.45625,46.0,86.0
593,160.14166666666665,160.45625,61.0,83.0
594,160.14166666666665,160.46666666666667,65.0,86.0
595,160.14166666666665,160.475,58.0,79.0
596,162.14166666666665,162.45833333333334,58.0,77.0
597,162.14166666666665,162.55,61.0,81.0
598,162.14166666666665,162.59583333333333,65.0,84.0
599,162.14166666666665,162.70625,53.0,79.0
600,162.64166666666665,162.7625,58.0,85.0
601,162.64166666666665,162.7625,58.0,86.0
602,162.64166666666665,162.99375,61.0,90.0
603,162.64166666666665,163.0,70.0,83.0
604,162.64166666666665,163.00208333333333,65.0,86.0
605,163.14166666666665,163.33541666666667,61.0,88.0
606,163.14166666666665,163.33958333333334,58.0,86.0
607,163.14166666666665,163.41041666666666,53.0,79.0
608,162.14166666666665,163.4375,46.0,85.0
609,163.14166666666665,163.45833333333334,65.0,88.0
610,164.14166666666665,164.65416666666667,39.0,89.0
611,164.14166666666665,164.98958333333334,63.0,86.0
612,164.14166666666665,165.00416666666666,58.0,86.0
613,165.14166666666665,165.77708333333334,60.0,87.0
614,165.14166666666665,165.87083333333334,56.0,89.0
615,165.14166666666665,166.03958333333333,44.0,86.0
616,166.14166666666665,166.32291666666666,56.0,83.0
617,166.14166666666665,166.72291666666666,61.0,87.0
618,166.64166666666665,166.72291666666666,61.0,55.0
619,166.14166666666665,166.85208333333333,65.0,86.0
620,166.64166666666665,166.85833333333332,56.0,94.0
621,166.14166666666665,166.94375,49.0,89.0
622,167.14166666666665,167.55208333333334,61.0,85.0
623,167.14166666666665,167.56875,58.0,84.0
624,167.14166666666665,167.57083333333333,46.0,86.0
625,167.64166666666665,168.0,60.0,86.0
626,167.64166666666665,168.02291666666667,56.0,85.0
627,167.64166666666665,168.03958333333333,44.0,85.0
628,168.14166666666665,168.70208333333332,58.0,85.0
629,168.14166666666665,168.74166666666667,54.0,85.0
630,168.14166666666665,168.88125,42.0,88.0
631,168.64166666666665,168.97083333333333,49.0,72.0
632,169.14166666666665,169.6,65.0,84.0
633,169.14166666666665,169.65208333333334,53.0,83.0
634,169.14166666666665,169.76458333333332,41.0,86.0
635,170.14166666666665,170.44166666666666,51.0,78.0
636,170.14166666666665,170.44375,46.0,77.0
637,170.14166666666665,170.50416666666666,54.0,85.0
638,170.14166666666665,170.50833333333333,58.0,83.0
639,170.64166666666665,170.68125,54.0,59.0
640,170.14166666666665,170.6875,39.0,84.0
641,170.64166666666665,170.69166666666666,58.0,54.0
642,170.64166666666665,170.74583333333334,51.0,90.0
643,170.14166666666665,170.79375,63.0,85.0
644,171.14166666666665,171.44583333333333,56.0,84.0
645,171.14166666666665,171.56875,61.0,84.0
646,171.14166666666665,171.60208333333333,49.0,94.0
647,171.64166666666665,172.01875,46.0,83.0
648,171.64166666666665,172.025,61.0,85.0
649,171.64166666666665,172.04166666666666,58.0,83.0
650,172.14166666666665,172.46875,59.0,77.0
651,172.14166666666665,172.6875,63.0,83.0
652,172.64166666666665,173.00208333333333,59.0,69.0
653,173.14166666666665,173.40416666666667,59.0,83.0
654,172.14166666666665,173.49791666666667,47.0,90.0
655,173.39166666666665,173.5125,54.0,55.0
656,173.14166666666665,173.52916666666667,63.0,86.0
657,173.14166666666665,173.6125,66.0,84.0
658,173.64166666666665,173.76666666666665,59.0,89.0
659,174.14166666666665,174.4375,45.0,94.0
660,174.14166666666665,174.45625,57.0,85.0
661,174.39166666666665,174.53958333333333,52.0,83.0
662,174.14166666666665,174.63958333333332,69.0,77.0
663,174.64166666666665,174.7625,57.0,94.0
664,175.14166666666665,175.45625,54.0,83.0
665,175.14166666666665,175.63541666666666,66.0,84.0
666,175.14166666666665,175.76458333333332,42.0,86.0
667,175.64166666666665,175.775,54.0,92.0
668,175.39166666666665,175.78541666666666,49.0,84.0
669,176.14166666666665,176.66875,56.0,83.0
670,176.14166666666665,176.69791666666666,44.0,89.0
671,176.14166666666665,176.72291666666666,68.0,81.0
672,176.64166666666665,176.77291666666667,51.0,90.0
673,177.14166666666665,177.46666666666667,58.0,84.0
674,177.14166666666665,177.66458333333333,62.0,92.0
675,177.14166666666665,177.70833333333334,65.0,88.0
676,177.64166666666665,178.01875,58.0,92.0
677,177.89166666666665,178.0375,62.0,90.0
678,177.89166666666665,178.04583333333332,65.0,86.0
679,177.14166666666665,179.7375,46.0,88.0
680,177.39166666666665,179.74583333333334,53.0,79.0
681,178.14166666666665,180.0875,58.0,87.0
682,178.14166666666665,180.09583333333333,62.0,89.0
683,178.14166666666665,180.11875,65.0,89.0
684,178.14166666666665,180.125,70.0,86.0
685,180.14166666666665,180.24583333333334,39.0,83.0
686,180.14166666666665,180.55833333333334,58.0,83.0
687,180.14166666666665,180.6875,63.0,83.0
688,180.89166666666665,181.50416666666666,58.0,71.0
689,180.64166666666665,181.53125,51.0,81.0
690,181.14166666666665,181.66458333333333,63.0,87.0
691,181.39166666666665,181.67916666666667,67.0,89.0
692,181.64166666666665,181.76666666666665,70.0,89.0
693,182.14166666666665,183.14791666666667,58.0,71.0
694,182.14166666666665,183.15833333333333,62.0,76.0
695,183.14166666666665,183.45625,70.0,83.0
696,183.39166666666665,183.59166666666667,65.0,90.0
697,182.14166666666665,183.64375,46.0,83.0
698,182.64166666666665,183.67291666666665,53.0,74.0
699,183.64166666666665,183.81458333333333,58.0,88.0
700,184.14166666666665,184.67291666666665,63.0,78.0
701,184.14166666666665,184.71666666666667,60.0,76.0
702,184.64166666666665,184.975,67.0,84.0
703,184.89166666666665,185.00833333333333,63.0,79.0
704,185.14166666666665,185.4375,72.0,85.0
705,184.39166666666665,185.62083333333334,55.0,74.0
706,185.39166666666665,185.64375,67.0,85.0
707,184.14166666666665,185.65416666666667,48.0,84.0
708,185.64166666666665,185.7625,60.0,85.0
709,186.14166666666665,186.67083333333332,62.0,78.0
710,186.14166666666665,186.69791666666666,58.0,75.0
711,186.64166666666665,187.04375,65.0,80.0
712,186.89166666666665,187.08125,62.0,80.0
713,187.14166666666665,187.43541666666667,70.0,86.0
714,186.39166666666665,187.70833333333334,53.0,74.0
715,187.39166666666665,187.71875,65.0,85.0
716,186.14166666666665,187.77708333333334,46.0,83.0
717,187.64166666666665,187.79583333333332,58.0,85.0
718,188.14166666666665,188.47083333333333,60.0,79.0
719,188.14166666666665,188.70833333333334,63.0,78.0
720,188.64166666666665,189.11458333333334,68.0,82.0
721,188.89166666666665,189.22916666666666,60.0,74.0
722,189.14166666666665,189.41458333333333,63.0,85.0
723,188.39166666666665,189.66041666666666,51.0,76.0
724,189.39166666666665,189.67083333333332,60.0,84.0
725,188.14166666666665,189.72083333333333,44.0,84.0
726,189.64166666666665,189.78541666666666,68.0,83.0
727,190.14166666666665,190.65208333333334,67.0,85.0
728,190.39166666666665,190.74375,58.0,78.0
729,190.64166666666665,190.94166666666666,63.0,75.0
730,190.89166666666665,191.41666666666666,67.0,89.0
731,190.14166666666665,191.56458333333333,43.0,77.0
732,191.39166666666665,192.10208333333333,63.0,85.0
733,191.64166666666665,192.10416666666666,58.0,85.0
734,192.14166666666665,192.69583333333333,68.0,84.0
735,192.89166666666665,193.31041666666667,65.0,85.0
736,192.64166666666665,193.34166666666667,61.0,84.0
737,192.39166666666665,193.59166666666667,56.0,71.0
738,192.14166666666665,193.62083333333334,49.0,88.0
739,193.39166666666665,193.68125,68.0,86.0
740,193.64166666666665,193.7625,61.0,84.0
741,194.14166666666665,194.44375,59.0,83.0
742,194.14166666666665,194.51458333333332,47.0,92.0
743,194.39166666666665,194.60208333333333,54.0,78.0
744,194.14166666666665,194.61458333333334,66.0,74.0
745,194.64166666666665,194.88541666666666,59.0,85.0
746,194.89166666666665,194.96041666666667,66.0,81.0
747,195.14166666666665,195.46458333333334,58.0,79.0
748,195.14166666666665,195.70208333333332,65.0,84.0
749,195.64166666666665,195.84583333333333,58.0,92.0
750,195.39166666666665,195.85833333333332,53.0,84.0
751,195.14166666666665,195.9,46.0,85.0
752,196.14166666666665,196.30833333333334,58.0,84.0
753,196.14166666666665,196.47708333333333,63.0,83.0
754,196.39166666666665,196.6875,58.0,86.0
755,196.64166666666665,196.81458333333333,63.0,77.0
756,196.89166666666665,197.44166666666666,67.0,84.0
757,197.39166666666665,197.7,58.0,81.0
758,197.64166666666665,197.77291666666667,63.0,84.0
759,196.14166666666665,197.81041666666667,51.0,90.0
760,198.14166666666665,198.37083333333334,58.0,78.0
761,198.14166666666665,198.44375,65.0,83.0
762,198.64166666666665,199.25208333333333,58.0,84.0
763,198.89166666666665,199.44375,65.0,83.0
764,199.39166666666665,199.52916666666667,68.0,78.0
765,199.39166666666665,199.72291666666666,70.0,79.0
766,198.14166666666665,199.90208333333334,46.0,84.0
767,199.64166666666665,199.95,58.0,89.0
768,198.39166666666665,199.95208333333332,53.0,78.0
769,199.89166666666665,200.02083333333334,65.0,83.0
770,200.14166666666665,200.41041666666666,60.0,79.0
771,200.14166666666665,200.66875,63.0,83.0
772,200.64166666666665,200.95625,60.0,83.0
773,200.89166666666665,201.4875,67.0,84.0
774,201.39166666666665,201.66666666666666,72.0,84.0
775,200.14166666666665,201.69791666666666,48.0,85.0
776,200.39166666666665,201.70208333333332,55.0,73.0
777,201.64166666666665,201.77708333333334,60.0,84.0
778,202.14166666666665,202.42083333333332,58.0,84.0
779,202.14166666666665,202.68333333333334,61.0,82.0
780,202.39166666666665,202.7,53.0,83.0
781,202.14166666666665,202.71041666666667,46.0,85.0
782,202.64166666666665,202.80625,58.0,87.0
783,203.14166666666665,203.44583333333333,58.0,83.0
784,203.14166666666665,203.72916666666666,63.0,82.0
785,203.39166666666665,203.8625,46.0,77.0
786,203.14166666666665,203.88333333333333,39.0,84.0
787,203.89166666666665,203.94583333333333,63.0,41.0
788,203.89166666666665,204.01458333333332,61.0,90.0
789,203.64166666666665,204.08125,58.0,83.0
790,204.64166666666665,205.42499999999998,56.0,81.0
791,204.89166666666665,205.47291666666666,63.0,79.0
792,204.39166666666665,205.68958333333333,51.0,78.0
793,205.39166666666665,205.69166666666666,68.0,84.0
794,204.14166666666665,205.70833333333334,44.0,87.0
795,205.64166666666665,205.77708333333334,56.0,85.0
796,206.14166666666665,206.75625,60.0,79.0
797,206.14166666666665,206.88333333333333,63.0,77.0
798,206.14166666666665,206.96041666666667,67.0,78.0
799,206.89166666666665,207.24583333333334,60.0,83.0
800,206.14166666666665,207.40833333333333,48.0,84.0
801,206.64166666666665,207.42499999999998,55.0,74.0
802,207.14166666666665,207.44583333333333,63.0,80.0
803,207.64166666666665,207.98749999999998,60.0,78.0
804,207.39166666666665,208.13333333333333,67.0,76.0
805,208.56875,209.39583333333334,61.0,83.0
806,208.32291666666666,209.4375,44.0,71.0
807,208.09791666666666,209.475,37.0,82.0
808,208.83124999999998,210.07916666666665,65.0,83.0
809,209.33333333333334,210.13333333333333,73.0,85.0
810,209.56875,210.16875,61.0,73.0
811,210.61666666666667,211.04999999999998,58.0,76.0
812,210.88958333333332,211.09583333333333,62.0,68.0
813,210.36041666666665,211.13541666666666,53.0,73.0
814,210.1,211.19166666666666,46.0,84.0
815,212.03541666666666,212.25416666666666,67.0,72.0
816,212.15,212.27083333333334,39.0,83.0
817,211.97083333333333,212.27083333333334,63.0,71.0
818,212.18125,212.62916666666666,75.0,84.0
819,212.13333333333333,212.64166666666665,70.0,69.0
820,213.36875,213.67916666666667,65.0,79.0
821,213.63541666666666,214.02708333333334,67.0,64.0
822,214.15416666666667,215.32708333333332,63.0,63.0
823,213.125,215.35208333333333,58.0,76.0
824,214.13333333333333,215.37708333333333,70.0,69.0
825,212.63541666666666,215.42499999999998,51.0,72.0
826,216.02291666666667,216.71458333333334,65.0,73.0
827,216.09166666666667,216.77708333333334,68.0,75.0
828,216.15,217.15625,72.0,73.0
829,216.59791666666666,217.19791666666666,48.0,64.0
830,216.10833333333332,217.23333333333332,41.0,83.0
831,217.11875,217.66041666666666,65.0,84.0
832,217.61041666666665,218.1875,68.0,83.0
833,218.68333333333334,219.55625,53.0,69.0
834,218.15,219.69583333333333,46.0,79.0
835,219.25208333333333,220.0875,62.0,70.0
836,219.26041666666666,220.09791666666666,65.0,65.0
837,218.15208333333334,220.11458333333334,70.0,72.0
838,220.75625,221.80833333333334,48.0,74.0
839,220.21875,221.81458333333333,41.0,84.0
840,221.29166666666666,221.88958333333332,53.0,89.0
841,221.82916666666665,222.08958333333334,56.0,83.0
842,222.32291666666666,222.91875,46.0,77.0
843,222.50208333333333,222.92083333333332,53.0,71.0
844,222.58541666666667,224.85625,58.0,73.0
845,222.67916666666667,224.92291666666665,62.0,69.0
846,222.81041666666667,224.94375,65.0,77.0
847,222.95624999999998,224.975,70.0,79.0
848,226.81666666666666,227.33124999999998,67.0,74.0
849,226.72083333333333,227.35,60.0,74.0
850,226.7875,227.57916666666665,63.0,76.0
851,227.79375,227.85625,63.0,57.0
852,227.5375,227.88125,60.0,79.0
853,227.26874999999998,227.93958333333333,55.0,69.0
854,226.775,228.06458333333333,48.0,84.0
855,227.78333333333333,228.15833333333333,72.0,84.0
856,228.6625,229.34375,58.0,67.0
857,229.31666666666666,230.08958333333334,53.0,66.0
858,228.73541666666665,230.08958333333334,62.0,71.0
859,228.85208333333333,230.11875,65.0,74.0
860,229.825,230.125,70.0,46.0
861,228.82916666666665,230.12708333333333,46.0,79.0
862,230.79791666666665,231.31041666666667,56.0,52.0
863,230.89374999999998,231.35625,60.0,74.0
864,230.98749999999998,231.39791666666667,63.0,75.0
865,231.01874999999998,231.56458333333333,68.0,82.0
866,230.96458333333334,231.58541666666667,44.0,82.0
867,232.00416666666666,232.55208333333334,63.0,79.0
868,232.02916666666667,232.55833333333334,39.0,68.0
869,232.1,232.56666666666666,67.0,71.0
870,231.90416666666667,232.57291666666666,58.0,67.0
871,232.99583333333334,233.41041666666666,53.0,74.0
872,233.14791666666667,233.85625,60.0,72.0
873,233.06875,233.87708333333333,56.0,77.0
874,233.18958333333333,234.29375,65.0,71.0
875,233.70624999999998,234.62916666666666,48.0,68.0
876,233.14166666666665,234.67499999999998,41.0,83.0
877,234.24166666666667,234.85208333333333,56.0,79.0
878,234.78541666666666,234.88125,53.0,79.0
879,235.7875,236.6875,55.0,72.0
880,235.4375,236.71875,48.0,79.0
881,235.36875,236.76041666666666,60.0,72.0
882,236.42083333333332,236.79375,72.0,44.0
883,235.42083333333332,236.81875,63.0,73.0
884,236.07916666666665,236.83958333333334,67.0,64.0
885,237.47916666666666,237.98749999999998,65.0,68.0
886,237.1625,239.50416666666666,51.0,75.0
887,237.39583333333334,239.50625,60.0,56.0
888,237.91458333333333,239.50833333333333,63.0,73.0
889,237.22916666666666,239.5125,56.0,62.0
890,236.97916666666666,239.54375,44.0,79.0
891,240.03125,240.21875,63.0,73.0
892,240.17083333333332,240.33958333333334,65.0,77.0
893,240.325,240.43333333333334,67.0,77.0
894,240.5375,240.6625,70.0,72.0
895,240.74791666666667,240.88333333333333,75.0,79.0
896,240.95,241.075,77.0,74.0
897,241.225,241.39791666666667,79.0,70.0
898,241.49375,241.84166666666667,82.0,70.0
899,241.86041666666665,242.1,79.0,72.0
900,242.80625,242.94166666666666,70.0,69.0
901,242.87083333333334,243.04999999999998,74.0,66.0
902,243.5875,243.79999999999998,63.0,52.0
903,243.65,243.86666666666667,70.0,66.0
904,239.85625,244.80416666666667,46.0,64.0
905,239.61666666666667,244.85416666666666,39.0,85.0
