,start,end,pitch,velocity
0,1.9609375,2.5009765625,64.0,84.0
1,1.94140625,2.515625,55.0,64.0
2,1.845703125,2.5205078125,52.0,74.0
3,2.6650390625,2.7685546875,52.0,84.0
4,2.6650390625,2.7685546875,55.0,85.0
5,2.6728515625,2.7705078125,64.0,86.0
6,3.345703125,3.4521484375,64.0,84.0
7,3.3681640625,3.4697265625,52.0,83.0
8,3.3681640625,3.470703125,55.0,83.0
9,1.9619140625,3.568359375,40.0,87.0
10,4.0712890625,4.16796875,55.0,89.0
11,4.046875,4.16796875,64.0,89.0
12,4.0712890625,4.1728515625,52.0,88.0
13,4.5400390625,4.751953125,40.0,81.0
14,4.7744140625,4.8701171875,55.0,87.0
15,4.7744140625,4.87890625,52.0,86.0
16,4.8017578125,4.923828125,64.0,86.0
17,5.2431640625,5.3173828125,55.0,85.0
18,5.2431640625,5.318359375,52.0,84.0
19,5.27734375,5.3662109375,64.0,85.0
20,5.5947265625,5.9404296875,52.0,76.0
21,5.6845703125,5.9609375,55.0,83.0
22,5.7421875,5.982421875,64.0,83.0
23,6.4150390625,6.4814453125,55.0,81.0
24,6.4150390625,6.48828125,52.0,82.0
25,6.412109375,6.494140625,64.0,85.0
26,7.1181640625,7.2158203125,55.0,86.0
27,7.1181640625,7.216796875,52.0,87.0
28,7.09765625,7.236328125,64.0,86.0
29,5.7119140625,7.279296875,40.0,89.0
30,7.8056640625,7.8994140625,64.0,88.0
31,7.8212890625,7.90234375,55.0,88.0
32,7.8212890625,7.90625,52.0,87.0
33,7.5869140625,8.2314453125,40.0,84.0
34,8.5244140625,8.6005859375,55.0,87.0
35,8.5244140625,8.6083984375,52.0,89.0
36,8.2900390625,8.6123046875,40.0,90.0
37,8.544921875,8.63671875,64.0,92.0
38,8.9931640625,9.08203125,52.0,89.0
39,8.9931640625,9.091796875,55.0,87.0
40,9.0029296875,9.1259765625,64.0,86.0
41,9.236328125,9.314453125,64.0,71.0
42,9.2275390625,9.4140625,52.0,94.0
43,9.345703125,9.4140625,52.0,74.0
44,9.4609375,10.0009765625,64.0,84.0
45,9.44140625,10.015625,55.0,64.0
46,10.1650390625,10.2685546875,52.0,84.0
47,10.1650390625,10.2685546875,55.0,85.0
48,10.1728515625,10.2705078125,64.0,86.0
49,10.845703125,10.9521484375,64.0,84.0
50,10.8681640625,10.9697265625,52.0,83.0
51,10.8681640625,10.970703125,55.0,83.0
52,9.4619140625,11.068359375,40.0,87.0
53,11.5712890625,11.66796875,55.0,89.0
54,11.546875,11.66796875,64.0,89.0
55,11.5712890625,11.6728515625,52.0,88.0
56,12.0400390625,12.251953125,40.0,81.0
57,12.2744140625,12.3701171875,55.0,87.0
58,12.2744140625,12.37890625,52.0,86.0
59,12.3017578125,12.423828125,64.0,86.0
60,12.7431640625,12.8173828125,55.0,85.0
61,12.7431640625,12.818359375,52.0,84.0
62,12.77734375,12.8662109375,64.0,85.0
63,13.0947265625,13.4404296875,52.0,76.0
64,13.1845703125,13.4609375,55.0,83.0
65,13.2421875,13.482421875,64.0,83.0
66,13.9150390625,13.9814453125,55.0,81.0
67,13.9150390625,13.98828125,52.0,82.0
68,13.912109375,13.994140625,64.0,85.0
69,14.6181640625,14.7158203125,55.0,86.0
70,14.6181640625,14.716796875,52.0,87.0
71,14.59765625,14.736328125,64.0,86.0
72,13.2119140625,14.779296875,40.0,89.0
73,15.3056640625,15.3994140625,64.0,88.0
74,15.3212890625,15.40234375,55.0,88.0
75,15.3212890625,15.40625,52.0,87.0
76,15.0869140625,15.7314453125,40.0,84.0
77,16.0244140625,16.1005859375,55.0,87.0
78,16.0244140625,16.1083984375,52.0,89.0
79,15.7900390625,16.1123046875,40.0,90.0
80,16.044921875,16.13671875,64.0,92.0
81,16.4931640625,16.58203125,52.0,89.0
82,16.4931640625,16.591796875,55.0,87.0
83,16.5029296875,16.6259765625,64.0,86.0
84,16.736328125,16.814453125,64.0,71.0
85,16.7275390625,16.9140625,52.0,94.0
86,16.845703125,16.9140625,52.0,74.0
87,16.9609375,17.5009765625,64.0,84.0
88,16.94140625,17.515625,55.0,64.0
89,17.6650390625,17.7685546875,52.0,84.0
90,17.6650390625,17.7685546875,55.0,85.0
91,17.6728515625,17.7705078125,64.0,86.0
92,18.345703125,18.4521484375,64.0,84.0
93,18.3681640625,18.4697265625,52.0,83.0
94,18.3681640625,18.470703125,55.0,83.0
95,16.9619140625,18.568359375,40.0,87.0
96,19.0712890625,19.16796875,55.0,89.0
97,19.046875,19.16796875,64.0,89.0
98,19.0712890625,19.1728515625,52.0,88.0
99,19.5400390625,19.751953125,40.0,81.0
100,19.7744140625,19.8701171875,55.0,87.0
101,19.7744140625,19.87890625,52.0,86.0
102,19.8017578125,19.923828125,64.0,86.0
103,20.2431640625,20.3173828125,55.0,85.0
104,20.2431640625,20.318359375,52.0,84.0
105,20.27734375,20.3662109375,64.0,85.0
106,20.5947265625,20.9404296875,52.0,76.0
107,20.6845703125,20.9609375,55.0,83.0
108,20.7421875,20.982421875,64.0,83.0
109,21.4150390625,21.4814453125,55.0,81.0
110,21.4150390625,21.48828125,52.0,82.0
111,21.412109375,21.494140625,64.0,85.0
112,22.1181640625,22.2158203125,55.0,86.0
113,22.1181640625,22.216796875,52.0,87.0
114,22.09765625,22.236328125,64.0,86.0
115,20.7119140625,22.279296875,40.0,89.0
116,22.8056640625,22.8994140625,64.0,88.0
117,22.8212890625,22.90234375,55.0,88.0
118,22.8212890625,22.90625,52.0,87.0
119,22.5869140625,23.2314453125,40.0,84.0
120,23.5244140625,23.6005859375,55.0,87.0
121,23.5244140625,23.6083984375,52.0,89.0
122,23.2900390625,23.6123046875,40.0,90.0
123,23.544921875,23.63671875,64.0,92.0
124,23.9931640625,24.08203125,52.0,89.0
125,23.9931640625,24.091796875,55.0,87.0
126,24.0029296875,24.1259765625,64.0,86.0
127,24.236328125,24.314453125,64.0,71.0
128,24.2275390625,24.4140625,52.0,94.0
129,24.4619140625,25.009765625,67.0,84.0
130,24.4619140625,25.0205078125,64.0,84.0
131,24.4619140625,25.0322265625,52.0,90.0
132,25.1650390625,25.404296875,52.0,89.0
133,25.1650390625,25.4091796875,59.0,84.0
134,25.1650390625,25.73046875,71.0,84.0
135,25.1650390625,25.734375,67.0,84.0
136,25.1650390625,25.7470703125,64.0,83.0
137,25.6337890625,25.841796875,52.0,89.0
138,25.8681640625,25.958984375,64.0,85.0
139,25.8681640625,26.0458984375,67.0,86.0
140,25.8681640625,26.1025390625,71.0,88.0
141,26.1025390625,26.197265625,64.0,80.0
142,26.3369140625,26.80859375,66.0,87.0
143,26.3369140625,26.8125,62.0,84.0
144,26.3369140625,26.826171875,69.0,83.0
145,26.3369140625,26.939453125,50.0,87.0
146,26.8056640625,26.95703125,57.0,69.0
147,27.0400390625,27.3564453125,62.0,85.0
148,27.0400390625,27.384765625,66.0,90.0
149,27.0400390625,27.568359375,69.0,85.0
150,27.5087890625,27.6240234375,62.0,84.0
151,27.0400390625,27.7900390625,57.0,82.0
152,27.0400390625,27.80859375,50.0,86.0
153,27.7431640625,27.87890625,62.0,84.0
154,27.7431640625,27.8896484375,66.0,85.0
155,27.7431640625,27.91015625,69.0,84.0
156,28.2119140625,28.7333984375,60.0,78.0
157,28.2119140625,28.7333984375,64.0,85.0
158,28.6806640625,28.9287109375,55.0,72.0
159,28.2119140625,28.9521484375,48.0,87.0
160,28.9150390625,29.4169921875,67.0,83.0
161,28.9150390625,29.44921875,64.0,89.0
162,28.9150390625,29.462890625,60.0,84.0
163,29.3837890625,29.669921875,48.0,83.0
164,29.6181640625,29.728515625,60.0,84.0
165,29.6181640625,29.904296875,64.0,89.0
166,29.6181640625,29.9482421875,67.0,85.0
167,29.8525390625,29.9541015625,60.0,76.0
168,30.0869140625,30.6162109375,67.0,77.0
169,30.0869140625,30.638671875,62.0,79.0
170,30.7900390625,31.01171875,62.0,85.0
171,30.7900390625,31.142578125,67.0,85.0
172,30.5556640625,31.3232421875,50.0,70.0
173,30.7900390625,31.3359375,71.0,85.0
174,31.2587890625,31.3447265625,67.0,65.0
175,31.2587890625,31.3740234375,62.0,82.0
176,31.4931640625,31.6181640625,62.0,85.0
177,30.0869140625,31.630859375,43.0,83.0
178,31.4931640625,31.8193359375,67.0,84.0
179,31.7275390625,31.8310546875,62.0,79.0
180,31.4931640625,31.8427734375,71.0,84.0
181,31.9619140625,32.4609375,64.0,83.0
182,31.9619140625,32.4736328125,67.0,79.0
183,31.9619140625,32.4892578125,71.0,80.0
184,32.6650390625,32.978515625,64.0,85.0
185,32.6650390625,33.052734375,67.0,85.0
186,32.6650390625,33.091796875,71.0,87.0
187,33.1337890625,33.2724609375,64.0,79.0
188,33.3681640625,33.4970703125,64.0,85.0
189,32.4306640625,33.5234375,47.0,70.0
190,33.3681640625,33.607421875,67.0,87.0
191,33.6025390625,33.6904296875,64.0,81.0
192,31.9619140625,33.7158203125,40.0,85.0
193,33.3681640625,33.7353515625,71.0,85.0
194,33.8369140625,34.1982421875,60.0,86.0
195,33.8369140625,34.337890625,64.0,85.0
196,34.3056640625,34.3671875,60.0,66.0
197,33.8369140625,34.369140625,67.0,77.0
198,34.5400390625,34.7763671875,60.0,87.0
199,33.8369140625,34.9453125,36.0,83.0
200,34.5400390625,35.0419921875,64.0,94.0
201,34.5400390625,35.05078125,67.0,88.0
202,35.0087890625,35.119140625,60.0,85.0
203,35.2431640625,35.3525390625,60.0,86.0
204,35.2431640625,35.3701171875,64.0,94.0
205,35.2431640625,35.423828125,67.0,84.0
206,35.4775390625,35.5498046875,62.0,50.0
207,35.7119140625,35.984375,62.0,79.0
208,35.7119140625,36.19921875,66.0,84.0
209,35.7119140625,36.2119140625,69.0,83.0
210,36.1806640625,36.2646484375,62.0,67.0
211,36.4150390625,36.603515625,62.0,85.0
212,36.4150390625,36.7578125,66.0,92.0
213,36.4150390625,36.9599609375,69.0,85.0
214,36.8837890625,36.9833984375,62.0,78.0
215,36.4150390625,36.9990234375,45.0,74.0
216,35.7119140625,37.03515625,38.0,87.0
217,37.1181640625,37.224609375,62.0,85.0
218,37.1181640625,37.4111328125,66.0,94.0
219,37.3525390625,37.4716796875,62.0,79.0
220,37.1181640625,37.4951171875,69.0,86.0
221,37.5869140625,38.0419921875,67.0,83.0
222,37.5869140625,38.056640625,71.0,84.0
223,37.5869140625,38.0595703125,64.0,84.0
224,38.2900390625,38.4599609375,67.0,86.0
225,38.2900390625,38.4755859375,64.0,89.0
226,38.2900390625,38.4990234375,71.0,90.0
227,38.7587890625,38.873046875,64.0,70.0
228,38.9931640625,39.1025390625,64.0,87.0
229,37.5869140625,39.154296875,52.0,78.0
230,37.5869140625,39.173828125,40.0,83.0
231,38.9931640625,39.33984375,67.0,85.0
232,38.9931640625,39.376953125,71.0,86.0
233,39.2275390625,39.4072265625,64.0,87.0
234,39.4619140625,39.6015625,59.0,83.0
235,39.4619140625,39.744140625,64.0,84.0
236,39.4619140625,39.81640625,67.0,77.0
237,39.6962890625,39.8271484375,59.0,82.0
238,39.4619140625,40.125,40.0,86.0
239,40.1650390625,40.3017578125,59.0,87.0
240,40.1650390625,40.3203125,64.0,90.0
241,40.1650390625,40.3662109375,67.0,83.0
242,40.6337890625,40.68359375,67.0,58.0
243,40.6337890625,40.7177734375,64.0,65.0
244,40.6337890625,40.7724609375,59.0,67.0
245,40.8681640625,40.9580078125,59.0,86.0
246,40.8681640625,40.978515625,40.0,83.0
247,40.8681640625,41.001953125,64.0,88.0
248,40.8681640625,41.1005859375,67.0,84.0
249,41.1025390625,41.212890625,59.0,83.0
250,41.3369140625,41.6728515625,59.0,82.0
251,41.3369140625,41.841796875,62.0,74.0
252,41.8056640625,41.9140625,59.0,84.0
253,41.3369140625,42.16796875,47.0,77.0
254,42.0400390625,42.212890625,59.0,87.0
255,42.0400390625,42.220703125,62.0,85.0
256,42.0400390625,42.248046875,66.0,84.0
257,42.5087890625,42.626953125,59.0,85.0
258,42.7431640625,42.8427734375,59.0,84.0
259,42.7431640625,42.9375,62.0,87.0
260,42.7431640625,43.0498046875,66.0,85.0
261,42.9775390625,43.0517578125,59.0,72.0
262,43.2119140625,43.4365234375,57.0,84.0
263,43.2119140625,43.744140625,66.0,78.0
264,43.2119140625,43.75390625,62.0,83.0
265,43.6806640625,43.822265625,57.0,67.0
266,43.9150390625,44.1689453125,57.0,84.0
267,43.9150390625,44.453125,62.0,85.0
268,43.9150390625,44.46484375,66.0,83.0
269,44.3837890625,44.5078125,57.0,80.0
270,43.2119140625,44.64453125,50.0,85.0
271,44.6181640625,44.712890625,57.0,84.0
272,44.6181640625,44.8818359375,62.0,87.0
273,44.6181640625,44.888671875,66.0,85.0
274,44.8525390625,44.94921875,57.0,75.0
275,45.0869140625,45.5498046875,55.0,84.0
276,45.0869140625,45.5517578125,59.0,87.0
277,45.0869140625,45.65234375,43.0,83.0
278,45.5556640625,45.6904296875,50.0,76.0
279,45.7900390625,46.068359375,59.0,80.0
280,45.7900390625,46.34765625,63.0,77.0
281,46.2587890625,46.3857421875,59.0,85.0
282,45.7900390625,46.587890625,47.0,88.0
283,46.4931640625,46.59765625,59.0,86.0
284,46.4931640625,46.6943359375,63.0,88.0
285,46.4931640625,46.7919921875,66.0,83.0
286,46.7275390625,46.8642578125,59.0,84.0
287,46.9619140625,47.1494140625,59.0,84.0
288,46.9619140625,47.453125,64.0,89.0
289,47.4306640625,47.5361328125,59.0,79.0
290,47.6650390625,47.794921875,59.0,84.0
291,47.6650390625,48.1826171875,64.0,92.0
292,47.6650390625,48.1845703125,67.0,84.0
293,46.9619140625,48.189453125,40.0,88.0
294,48.1337890625,48.25390625,59.0,84.0
295,48.3681640625,48.4619140625,59.0,86.0
296,48.3681640625,48.55078125,64.0,89.0
297,48.3681640625,48.595703125,67.0,83.0
298,48.6025390625,48.708984375,59.0,83.0
299,48.8369140625,49.23828125,61.0,80.0
300,48.8369140625,49.275390625,64.0,84.0
301,48.8369140625,49.3515625,57.0,83.0
302,49.5400390625,49.748046875,57.0,87.0
303,49.5400390625,49.826171875,61.0,92.0
304,49.5400390625,50.0546875,64.0,88.0
305,49.3056640625,50.06640625,52.0,73.0
306,50.0087890625,50.1181640625,57.0,75.0
307,48.8369140625,50.15625,45.0,84.0
308,50.2431640625,50.337890625,57.0,85.0
309,50.2431640625,50.4658203125,61.0,92.0
310,50.2431640625,50.572265625,64.0,87.0
311,50.4775390625,50.591796875,57.0,80.0
312,50.7119140625,50.9248046875,55.0,84.0
313,50.7119140625,51.01953125,60.0,85.0
314,50.7119140625,51.03125,64.0,85.0
315,51.1806640625,51.2548828125,55.0,84.0
316,51.1806640625,51.4599609375,60.0,94.0
317,51.4150390625,51.4990234375,55.0,82.0
318,50.7119140625,51.517578125,48.0,87.0
319,51.1806640625,51.5703125,64.0,90.0
320,51.6494140625,51.7705078125,57.0,79.0
321,51.6494140625,52.0234375,62.0,84.0
322,51.8837890625,52.041015625,57.0,72.0
323,52.1181640625,52.2177734375,57.0,78.0
324,51.6494140625,52.294921875,50.0,88.0
325,52.1181640625,52.423828125,62.0,82.0
326,52.1181640625,52.43359375,66.0,84.0
327,52.3525390625,52.435546875,57.0,72.0
328,52.5869140625,52.830078125,59.0,83.0
329,52.5869140625,53.140625,64.0,87.0
330,53.0556640625,53.1865234375,59.0,83.0
331,53.2900390625,53.4677734375,59.0,86.0
332,53.2900390625,53.6044921875,64.0,92.0
333,53.2900390625,53.611328125,67.0,85.0
334,53.7587890625,53.89453125,59.0,82.0
335,53.9931640625,54.08203125,59.0,87.0
336,53.9931640625,54.37109375,64.0,94.0
337,53.9931640625,54.3896484375,67.0,86.0
338,54.2275390625,54.4091796875,59.0,87.0
339,52.5869140625,54.4765625,40.0,87.0
340,54.4619140625,54.4765625,40.0,86.0
341,54.4619140625,54.6015625,59.0,83.0
342,54.4619140625,54.744140625,64.0,84.0
343,54.4619140625,54.81640625,67.0,77.0
344,54.6962890625,54.8271484375,59.0,82.0
345,55.1650390625,55.3017578125,59.0,87.0
346,55.1650390625,55.3203125,64.0,90.0
347,55.1650390625,55.3662109375,67.0,83.0
348,55.6337890625,55.68359375,67.0,58.0
349,55.6337890625,55.7177734375,64.0,65.0
350,55.6337890625,55.7724609375,59.0,67.0
351,55.8681640625,55.9580078125,59.0,86.0
352,55.8681640625,55.978515625,40.0,83.0
353,55.8681640625,56.001953125,64.0,88.0
354,55.8681640625,56.1005859375,67.0,84.0
355,56.1025390625,56.212890625,59.0,83.0
356,56.3369140625,56.6728515625,59.0,82.0
357,56.3369140625,56.841796875,62.0,74.0
358,56.8056640625,56.9140625,59.0,84.0
359,56.3369140625,57.16796875,47.0,77.0
360,57.0400390625,57.212890625,59.0,87.0
361,57.0400390625,57.220703125,62.0,85.0
362,57.0400390625,57.248046875,66.0,84.0
363,57.5087890625,57.626953125,59.0,85.0
364,57.7431640625,57.8427734375,59.0,84.0
365,57.7431640625,57.9375,62.0,87.0
366,57.7431640625,58.0498046875,66.0,85.0
367,57.9775390625,58.0517578125,59.0,72.0
368,58.2119140625,58.4365234375,57.0,84.0
369,58.2119140625,58.744140625,66.0,78.0
370,58.2119140625,58.75390625,62.0,83.0
371,58.6806640625,58.822265625,57.0,67.0
372,58.9150390625,59.1689453125,57.0,84.0
373,58.9150390625,59.453125,62.0,85.0
374,58.9150390625,59.46484375,66.0,83.0
375,59.3837890625,59.5078125,57.0,80.0
376,58.2119140625,59.64453125,50.0,85.0
377,59.6181640625,59.712890625,57.0,84.0
378,59.6181640625,59.8818359375,62.0,87.0
379,59.6181640625,59.888671875,66.0,85.0
380,59.8525390625,59.94921875,57.0,75.0
381,60.0869140625,60.5498046875,55.0,84.0
382,60.0869140625,60.5517578125,59.0,87.0
383,60.0869140625,60.65234375,43.0,83.0
384,60.5556640625,60.6904296875,50.0,76.0
385,60.7900390625,61.068359375,59.0,80.0
386,60.7900390625,61.34765625,63.0,77.0
387,61.2587890625,61.3857421875,59.0,85.0
388,60.7900390625,61.587890625,47.0,88.0
389,61.4931640625,61.59765625,59.0,86.0
390,61.4931640625,61.6943359375,63.0,88.0
391,61.4931640625,61.7919921875,66.0,83.0
392,61.7275390625,61.8642578125,59.0,84.0
393,61.9619140625,62.1494140625,59.0,84.0
394,61.9619140625,62.453125,64.0,89.0
395,62.4306640625,62.5361328125,59.0,79.0
396,62.6650390625,62.794921875,59.0,84.0
397,62.6650390625,63.1826171875,64.0,92.0
398,62.6650390625,63.1845703125,67.0,84.0
399,61.9619140625,63.189453125,40.0,88.0
400,63.1337890625,63.25390625,59.0,84.0
401,63.3681640625,63.4619140625,59.0,86.0
402,63.3681640625,63.55078125,64.0,89.0
403,63.3681640625,63.595703125,67.0,83.0
404,63.6025390625,63.708984375,59.0,83.0
405,63.8369140625,64.23828125,61.0,80.0
406,63.8369140625,64.275390625,64.0,84.0
407,63.8369140625,64.3515625,57.0,83.0
408,64.5400390625,64.748046875,57.0,87.0
409,64.5400390625,64.826171875,61.0,92.0
410,64.5400390625,65.0546875,64.0,88.0
411,64.3056640625,65.06640625,52.0,73.0
412,65.0087890625,65.1181640625,57.0,75.0
413,63.8369140625,65.15625,45.0,84.0
414,65.2431640625,65.337890625,57.0,85.0
415,65.2431640625,65.4658203125,61.0,92.0
416,65.2431640625,65.572265625,64.0,87.0
417,65.4775390625,65.591796875,57.0,80.0
418,65.7119140625,65.9248046875,55.0,84.0
419,65.7119140625,66.01953125,60.0,85.0
420,65.7119140625,66.03125,64.0,85.0
421,66.1806640625,66.2548828125,55.0,84.0
422,66.1806640625,66.4599609375,60.0,94.0
423,66.4150390625,66.4990234375,55.0,82.0
424,65.7119140625,66.517578125,48.0,87.0
425,66.1806640625,66.5703125,64.0,90.0
426,66.6494140625,66.7705078125,57.0,79.0
427,66.6494140625,67.0234375,62.0,84.0
428,66.8837890625,67.041015625,57.0,72.0
429,67.1181640625,67.2177734375,57.0,78.0
430,66.6494140625,67.294921875,50.0,88.0
431,67.1181640625,67.423828125,62.0,82.0
432,67.1181640625,67.43359375,66.0,84.0
433,67.3525390625,67.435546875,57.0,72.0
434,67.5869140625,67.830078125,59.0,83.0
435,67.5869140625,68.140625,64.0,87.0
436,68.0556640625,68.1865234375,59.0,83.0
437,68.2900390625,68.4677734375,59.0,86.0
438,68.2900390625,68.6044921875,64.0,92.0
439,68.2900390625,68.611328125,67.0,85.0
440,68.7587890625,68.89453125,59.0,82.0
441,68.9931640625,69.08203125,59.0,87.0
442,68.9931640625,69.37109375,64.0,94.0
443,68.9931640625,69.3896484375,67.0,86.0
444,69.2275390625,69.4091796875,59.0,87.0
445,67.5869140625,69.4765625,40.0,87.0
446,69.4619140625,69.6005859375,55.0,83.0
447,69.4619140625,69.7841796875,60.0,76.0
448,69.4619140625,69.8037109375,64.0,85.0
449,69.6962890625,69.810546875,55.0,83.0
450,69.9306640625,70.0458984375,55.0,85.0
451,69.9306640625,70.0986328125,60.0,89.0
452,69.9306640625,70.224609375,64.0,89.0
453,70.1650390625,70.232421875,55.0,84.0
454,69.4619140625,70.3056640625,48.0,89.0
455,70.3994140625,70.724609375,62.0,84.0
456,70.3994140625,70.8193359375,57.0,76.0
457,70.3994140625,70.908203125,50.0,88.0
458,70.8681640625,70.9208984375,57.0,73.0
459,70.8681640625,71.16015625,62.0,84.0
460,70.8681640625,71.181640625,66.0,77.0
461,71.1025390625,71.2216796875,57.0,83.0
462,71.3369140625,71.6455078125,59.0,85.0
463,71.3369140625,71.6962890625,64.0,89.0
464,71.8056640625,71.8916015625,64.0,51.0
465,71.8056640625,71.9150390625,59.0,84.0
466,71.3369140625,71.955078125,40.0,85.0
467,72.0400390625,72.1123046875,40.0,84.0
468,72.0400390625,72.185546875,59.0,89.0
469,72.0400390625,72.5390625,64.0,97.0
470,72.0400390625,72.5419921875,67.0,84.0
471,72.5087890625,72.6396484375,59.0,82.0
472,72.7431640625,72.8408203125,59.0,89.0
473,72.7431640625,72.9072265625,64.0,94.0
474,72.7431640625,72.947265625,67.0,86.0
475,72.9775390625,73.0537109375,59.0,84.0
476,73.2119140625,73.3662109375,55.0,85.0
477,73.2119140625,73.5419921875,60.0,85.0
478,73.4462890625,73.58203125,55.0,79.0
479,73.6806640625,73.7275390625,55.0,76.0
480,73.2119140625,73.9248046875,48.0,86.0
481,73.6806640625,73.9765625,60.0,88.0
482,73.9150390625,74.013671875,55.0,84.0
483,73.6806640625,74.0302734375,64.0,90.0
484,74.1494140625,74.2861328125,57.0,79.0
485,74.1494140625,74.486328125,62.0,83.0
486,74.3837890625,74.5341796875,57.0,78.0
487,74.6181640625,74.66015625,57.0,68.0
488,74.1494140625,74.8388671875,50.0,85.0
489,74.6181640625,74.900390625,62.0,84.0
490,74.6181640625,74.900390625,66.0,79.0
491,74.8525390625,74.97265625,57.0,75.0
492,75.0869140625,75.3251953125,55.0,83.0
493,75.0869140625,75.39453125,59.0,84.0
494,75.0869140625,75.6396484375,43.0,84.0
495,75.5556640625,75.6396484375,59.0,85.0
496,75.5556640625,75.646484375,55.0,83.0
497,75.7900390625,76.115234375,59.0,87.0
498,75.7900390625,76.1533203125,63.0,87.0
499,76.2587890625,76.3740234375,59.0,84.0
500,76.4931640625,76.5966796875,59.0,87.0
501,75.7900390625,76.6318359375,47.0,85.0
502,76.4931640625,76.6748046875,63.0,84.0
503,76.4931640625,76.7744140625,66.0,83.0
504,76.7275390625,76.8046875,59.0,83.0
505,76.9619140625,77.1337890625,55.0,83.0
506,76.9619140625,77.291015625,60.0,85.0
507,77.1962890625,77.3369140625,55.0,78.0
508,77.4306640625,77.4619140625,55.0,70.0
509,77.4306640625,77.5830078125,60.0,88.0
510,77.6650390625,77.71875,60.0,66.0
511,76.9619140625,77.7412109375,48.0,92.0
512,77.4306640625,77.74609375,64.0,88.0
513,77.6650390625,77.7587890625,55.0,85.0
514,77.8994140625,78.01953125,57.0,83.0
515,77.8994140625,78.2314453125,62.0,83.0
516,78.1337890625,78.263671875,57.0,82.0
517,78.3681640625,78.64453125,66.0,83.0
518,78.3681640625,78.65625,62.0,80.0
519,77.8994140625,78.6962890625,50.0,88.0
520,78.6025390625,78.7392578125,57.0,76.0
521,78.8369140625,78.9833984375,59.0,85.0
522,78.8369140625,79.1044921875,64.0,90.0
523,78.8369140625,79.1279296875,67.0,85.0
524,78.8369140625,79.2646484375,40.0,88.0
525,79.3056640625,79.359375,59.0,80.0
526,79.3056640625,79.576171875,67.0,84.0
527,79.5400390625,79.5830078125,59.0,71.0
528,79.3056640625,79.5849609375,64.0,88.0
529,79.7744140625,79.96484375,59.0,81.0
530,80.0087890625,80.0859375,59.0,73.0
531,79.7744140625,80.095703125,62.0,84.0
532,79.7744140625,80.271484375,47.0,85.0
533,80.2431640625,80.326171875,59.0,85.0
534,80.2431640625,80.453125,62.0,85.0
535,80.2431640625,80.466796875,66.0,86.0
536,80.4775390625,80.5361328125,59.0,71.0
537,80.7119140625,81.0751953125,55.0,81.0
538,80.7119140625,81.0830078125,60.0,83.0
539,81.1806640625,81.326171875,55.0,87.0
540,81.1806640625,81.4599609375,60.0,92.0
541,80.7119140625,81.541015625,48.0,88.0
542,81.6494140625,81.927734375,57.0,83.0
543,81.6494140625,81.9384765625,62.0,88.0
544,82.1181640625,82.2392578125,57.0,87.0
545,81.6494140625,82.265625,50.0,97.0
546,82.1181640625,82.38671875,62.0,89.0
547,82.1181640625,82.40625,66.0,92.0
548,82.3525390625,82.4365234375,57.0,77.0
549,82.5869140625,82.6396484375,53.0,77.0
550,82.5869140625,82.8896484375,55.0,82.0
551,82.5869140625,82.8955078125,52.0,85.0
552,83.0556640625,83.169921875,52.0,83.0
553,83.0556640625,83.3251953125,55.0,84.0
554,83.2900390625,83.37890625,52.0,77.0
555,83.5244140625,83.5732421875,55.0,73.0
556,83.5244140625,83.5927734375,52.0,75.0
557,83.7587890625,83.853515625,52.0,83.0
558,83.7587890625,83.8544921875,55.0,85.0
559,83.9931640625,84.1728515625,52.0,89.0
560,84.2275390625,84.3173828125,52.0,82.0
561,83.9931640625,84.3203125,55.0,99.0
562,82.5869140625,84.4619140625,40.0,92.0
563,83.9931640625,84.4619140625,47.0,70.0
564,84.4619140625,85.009765625,67.0,84.0
565,84.4619140625,85.0205078125,64.0,84.0
566,84.4619140625,85.0322265625,52.0,90.0
567,85.1650390625,85.404296875,52.0,89.0
568,85.1650390625,85.4091796875,59.0,84.0
569,85.1650390625,85.73046875,71.0,84.0
570,85.1650390625,85.734375,67.0,84.0
571,85.1650390625,85.7470703125,64.0,83.0
572,85.6337890625,85.841796875,52.0,89.0
573,85.8681640625,85.958984375,64.0,85.0
574,85.8681640625,86.0458984375,67.0,86.0
575,85.8681640625,86.1025390625,71.0,88.0
576,86.1025390625,86.197265625,64.0,80.0
577,86.3369140625,86.80859375,66.0,87.0
578,86.3369140625,86.8125,62.0,84.0
579,86.3369140625,86.826171875,69.0,83.0
580,86.3369140625,86.939453125,50.0,87.0
581,86.8056640625,86.95703125,57.0,69.0
582,87.0400390625,87.3564453125,62.0,85.0
583,87.0400390625,87.384765625,66.0,90.0
584,87.0400390625,87.568359375,69.0,85.0
585,87.5087890625,87.6240234375,62.0,84.0
586,87.0400390625,87.7900390625,57.0,82.0
587,87.0400390625,87.80859375,50.0,86.0
588,87.7431640625,87.87890625,62.0,84.0
589,87.7431640625,87.8896484375,66.0,85.0
590,87.7431640625,87.91015625,69.0,84.0
591,88.2119140625,88.7333984375,60.0,78.0
592,88.2119140625,88.7333984375,64.0,85.0
593,88.6806640625,88.9287109375,55.0,72.0
594,88.2119140625,88.9521484375,48.0,87.0
595,88.9150390625,89.4169921875,67.0,83.0
596,88.9150390625,89.44921875,64.0,89.0
597,88.9150390625,89.462890625,60.0,84.0
598,89.3837890625,89.669921875,48.0,83.0
599,89.6181640625,89.728515625,60.0,84.0
600,89.6181640625,89.904296875,64.0,89.0
601,89.6181640625,89.9482421875,67.0,85.0
602,89.8525390625,89.9541015625,60.0,76.0
603,90.0869140625,90.6162109375,67.0,77.0
604,90.0869140625,90.638671875,62.0,79.0
605,90.7900390625,91.01171875,62.0,85.0
606,90.7900390625,91.142578125,67.0,85.0
607,90.5556640625,91.3232421875,50.0,70.0
608,90.7900390625,91.3359375,71.0,85.0
609,91.2587890625,91.3447265625,67.0,65.0
610,91.2587890625,91.3740234375,62.0,82.0
611,91.4931640625,91.6181640625,62.0,85.0
612,90.0869140625,91.630859375,43.0,83.0
613,91.4931640625,91.8193359375,67.0,84.0
614,91.7275390625,91.8310546875,62.0,79.0
615,91.4931640625,91.8427734375,71.0,84.0
616,91.9619140625,92.4609375,64.0,83.0
617,91.9619140625,92.4736328125,67.0,79.0
618,91.9619140625,92.4892578125,71.0,80.0
619,92.6650390625,92.978515625,64.0,85.0
620,92.6650390625,93.052734375,67.0,85.0
621,92.6650390625,93.091796875,71.0,87.0
622,93.1337890625,93.2724609375,64.0,79.0
623,93.3681640625,93.4970703125,64.0,85.0
624,92.4306640625,93.5234375,47.0,70.0
625,93.3681640625,93.607421875,67.0,87.0
626,93.6025390625,93.6904296875,64.0,81.0
627,91.9619140625,93.7158203125,40.0,85.0
628,93.3681640625,93.7353515625,71.0,85.0
629,93.8369140625,94.1982421875,60.0,86.0
630,93.8369140625,94.337890625,64.0,85.0
631,94.3056640625,94.3671875,60.0,66.0
632,93.8369140625,94.369140625,67.0,77.0
633,94.5400390625,94.7763671875,60.0,87.0
634,93.8369140625,94.9453125,36.0,83.0
635,94.5400390625,95.0419921875,64.0,94.0
636,94.5400390625,95.05078125,67.0,88.0
637,95.0087890625,95.119140625,60.0,85.0
638,95.2431640625,95.3525390625,60.0,86.0
639,95.2431640625,95.3701171875,64.0,94.0
640,95.2431640625,95.423828125,67.0,84.0
641,95.4775390625,95.5498046875,62.0,50.0
642,95.7119140625,95.984375,62.0,79.0
643,95.7119140625,96.19921875,66.0,84.0
644,95.7119140625,96.2119140625,69.0,83.0
645,96.1806640625,96.2646484375,62.0,67.0
646,96.4150390625,96.603515625,62.0,85.0
647,96.4150390625,96.7578125,66.0,92.0
648,96.4150390625,96.9599609375,69.0,85.0
649,96.8837890625,96.9833984375,62.0,78.0
650,96.4150390625,96.9990234375,45.0,74.0
651,95.7119140625,97.03515625,38.0,87.0
652,97.1181640625,97.224609375,62.0,85.0
653,97.1181640625,97.4111328125,66.0,94.0
654,97.3525390625,97.4716796875,62.0,79.0
655,97.1181640625,97.4951171875,69.0,86.0
656,97.5869140625,98.0419921875,67.0,83.0
657,97.5869140625,98.056640625,71.0,84.0
658,97.5869140625,98.0595703125,64.0,84.0
659,98.2900390625,98.4599609375,67.0,86.0
660,98.2900390625,98.4755859375,64.0,89.0
661,98.2900390625,98.4990234375,71.0,90.0
662,98.7587890625,98.873046875,64.0,70.0
663,98.9931640625,99.1025390625,64.0,87.0
664,97.5869140625,99.154296875,52.0,78.0
665,97.5869140625,99.173828125,40.0,83.0
666,98.9931640625,99.33984375,67.0,85.0
667,98.9931640625,99.376953125,71.0,86.0
668,99.2275390625,99.4072265625,64.0,87.0
669,99.4619140625,99.6015625,59.0,83.0
670,99.4619140625,99.744140625,64.0,84.0
671,99.4619140625,99.81640625,67.0,77.0
672,99.6962890625,99.8271484375,59.0,82.0
673,99.4619140625,100.125,40.0,86.0
674,100.1650390625,100.3017578125,59.0,87.0
675,100.1650390625,100.3203125,64.0,90.0
676,100.1650390625,100.3662109375,67.0,83.0
677,100.6337890625,100.68359375,67.0,58.0
678,100.6337890625,100.7177734375,64.0,65.0
679,100.6337890625,100.7724609375,59.0,67.0
680,100.8681640625,100.9580078125,59.0,86.0
681,100.8681640625,100.978515625,40.0,83.0
682,100.8681640625,101.001953125,64.0,88.0
683,100.8681640625,101.1005859375,67.0,84.0
684,101.1025390625,101.212890625,59.0,83.0
685,101.3369140625,101.6728515625,59.0,82.0
686,101.3369140625,101.841796875,62.0,74.0
687,101.8056640625,101.9140625,59.0,84.0
688,101.3369140625,102.16796875,47.0,77.0
689,102.0400390625,102.212890625,59.0,87.0
690,102.0400390625,102.220703125,62.0,85.0
691,102.0400390625,102.248046875,66.0,84.0
692,102.5087890625,102.626953125,59.0,85.0
693,102.7431640625,102.8427734375,59.0,84.0
694,102.7431640625,102.9375,62.0,87.0
695,102.7431640625,103.0498046875,66.0,85.0
696,102.9775390625,103.0517578125,59.0,72.0
697,103.2119140625,103.4365234375,57.0,84.0
698,103.2119140625,103.744140625,66.0,78.0
699,103.2119140625,103.75390625,62.0,83.0
700,103.6806640625,103.822265625,57.0,67.0
701,103.9150390625,104.1689453125,57.0,84.0
702,103.9150390625,104.453125,62.0,85.0
703,103.9150390625,104.46484375,66.0,83.0
704,104.3837890625,104.5078125,57.0,80.0
705,103.2119140625,104.64453125,50.0,85.0
706,104.6181640625,104.712890625,57.0,84.0
707,104.6181640625,104.8818359375,62.0,87.0
708,104.6181640625,104.888671875,66.0,85.0
709,104.8525390625,104.94921875,57.0,75.0
710,105.0869140625,105.5498046875,55.0,84.0
711,105.0869140625,105.5517578125,59.0,87.0
712,105.0869140625,105.65234375,43.0,83.0
713,105.5556640625,105.6904296875,50.0,76.0
714,105.7900390625,106.068359375,59.0,80.0
715,105.7900390625,106.34765625,63.0,77.0
716,106.2587890625,106.3857421875,59.0,85.0
717,105.7900390625,106.587890625,47.0,88.0
718,106.4931640625,106.59765625,59.0,86.0
719,106.4931640625,106.6943359375,63.0,88.0
720,106.4931640625,106.7919921875,66.0,83.0
721,106.7275390625,106.8642578125,59.0,84.0
722,106.9619140625,107.1494140625,59.0,84.0
723,106.9619140625,107.453125,64.0,89.0
724,107.4306640625,107.5361328125,59.0,79.0
725,107.6650390625,107.794921875,59.0,84.0
726,107.6650390625,108.1826171875,64.0,92.0
727,107.6650390625,108.1845703125,67.0,84.0
728,106.9619140625,108.189453125,40.0,88.0
729,108.1337890625,108.25390625,59.0,84.0
730,108.3681640625,108.4619140625,59.0,86.0
731,108.3681640625,108.55078125,64.0,89.0
732,108.3681640625,108.595703125,67.0,83.0
733,108.6025390625,108.708984375,59.0,83.0
734,108.8369140625,109.23828125,61.0,80.0
735,108.8369140625,109.275390625,64.0,84.0
736,108.8369140625,109.3515625,57.0,83.0
737,109.5400390625,109.748046875,57.0,87.0
738,109.5400390625,109.826171875,61.0,92.0
739,109.5400390625,110.0546875,64.0,88.0
740,109.3056640625,110.06640625,52.0,73.0
741,110.0087890625,110.1181640625,57.0,75.0
742,108.8369140625,110.15625,45.0,84.0
743,110.2431640625,110.337890625,57.0,85.0
744,110.2431640625,110.4658203125,61.0,92.0
745,110.2431640625,110.572265625,64.0,87.0
746,110.4775390625,110.591796875,57.0,80.0
747,110.7119140625,110.9248046875,55.0,84.0
748,110.7119140625,111.01953125,60.0,85.0
749,110.7119140625,111.03125,64.0,85.0
750,111.1806640625,111.2548828125,55.0,84.0
751,111.1806640625,111.4599609375,60.0,94.0
752,111.4150390625,111.4990234375,55.0,82.0
753,110.7119140625,111.517578125,48.0,87.0
754,111.1806640625,111.5703125,64.0,90.0
755,111.6494140625,111.7705078125,57.0,79.0
756,111.6494140625,112.0234375,62.0,84.0
757,111.8837890625,112.041015625,57.0,72.0
758,112.1181640625,112.2177734375,57.0,78.0
759,111.6494140625,112.294921875,50.0,88.0
760,112.1181640625,112.423828125,62.0,82.0
761,112.1181640625,112.43359375,66.0,84.0
762,112.3525390625,112.435546875,57.0,72.0
763,112.5869140625,112.830078125,59.0,83.0
764,112.5869140625,113.140625,64.0,87.0
765,113.0556640625,113.1865234375,59.0,83.0
766,113.2900390625,113.4677734375,59.0,86.0
767,113.2900390625,113.6044921875,64.0,92.0
768,113.2900390625,113.611328125,67.0,85.0
769,113.7587890625,113.89453125,59.0,82.0
770,113.9931640625,114.08203125,59.0,87.0
771,113.9931640625,114.37109375,64.0,94.0
772,113.9931640625,114.3896484375,67.0,86.0
773,114.2275390625,114.4091796875,59.0,87.0
774,112.5869140625,114.4765625,40.0,87.0
775,114.4619140625,114.4765625,40.0,86.0
776,114.4619140625,114.6015625,59.0,83.0
777,114.4619140625,114.744140625,64.0,84.0
778,114.4619140625,114.81640625,67.0,77.0
779,114.6962890625,114.8271484375,59.0,82.0
780,115.1650390625,115.3017578125,59.0,87.0
781,115.1650390625,115.3203125,64.0,90.0
782,115.1650390625,115.3662109375,67.0,83.0
783,115.6337890625,115.68359375,67.0,58.0
784,115.6337890625,115.7177734375,64.0,65.0
785,115.6337890625,115.7724609375,59.0,67.0
786,115.8681640625,115.9580078125,59.0,86.0
787,115.8681640625,115.978515625,40.0,83.0
788,115.8681640625,116.001953125,64.0,88.0
789,115.8681640625,116.1005859375,67.0,84.0
790,116.1025390625,116.212890625,59.0,83.0
791,116.3369140625,116.6728515625,59.0,82.0
792,116.3369140625,116.841796875,62.0,74.0
793,116.8056640625,116.9140625,59.0,84.0
794,116.3369140625,117.16796875,47.0,77.0
795,117.0400390625,117.212890625,59.0,87.0
796,117.0400390625,117.220703125,62.0,85.0
797,117.0400390625,117.248046875,66.0,84.0
798,117.5087890625,117.626953125,59.0,85.0
799,117.7431640625,117.8427734375,59.0,84.0
800,117.7431640625,117.9375,62.0,87.0
801,117.7431640625,118.0498046875,66.0,85.0
802,117.9775390625,118.0517578125,59.0,72.0
803,118.2119140625,118.4365234375,57.0,84.0
804,118.2119140625,118.744140625,66.0,78.0
805,118.2119140625,118.75390625,62.0,83.0
806,118.6806640625,118.822265625,57.0,67.0
807,118.9150390625,119.1689453125,57.0,84.0
808,118.9150390625,119.453125,62.0,85.0
809,118.9150390625,119.46484375,66.0,83.0
810,119.3837890625,119.5078125,57.0,80.0
811,118.2119140625,119.64453125,50.0,85.0
812,119.6181640625,119.712890625,57.0,84.0
813,119.6181640625,119.8818359375,62.0,87.0
814,119.6181640625,119.888671875,66.0,85.0
815,119.8525390625,119.94921875,57.0,75.0
816,120.0869140625,120.5498046875,55.0,84.0
817,120.0869140625,120.5517578125,59.0,87.0
818,120.0869140625,120.65234375,43.0,83.0
819,120.5556640625,120.6904296875,50.0,76.0
820,120.7900390625,121.068359375,59.0,80.0
821,120.7900390625,121.34765625,63.0,77.0
822,121.2587890625,121.3857421875,59.0,85.0
823,120.7900390625,121.587890625,47.0,88.0
824,121.4931640625,121.59765625,59.0,86.0
825,121.4931640625,121.6943359375,63.0,88.0
826,121.4931640625,121.7919921875,66.0,83.0
827,121.7275390625,121.8642578125,59.0,84.0
828,121.9619140625,122.1494140625,59.0,84.0
829,121.9619140625,122.453125,64.0,89.0
830,122.4306640625,122.5361328125,59.0,79.0
831,122.6650390625,122.794921875,59.0,84.0
832,122.6650390625,123.1826171875,64.0,92.0
833,122.6650390625,123.1845703125,67.0,84.0
834,121.9619140625,123.189453125,40.0,88.0
835,123.1337890625,123.25390625,59.0,84.0
836,123.3681640625,123.4619140625,59.0,86.0
837,123.3681640625,123.55078125,64.0,89.0
838,123.3681640625,123.595703125,67.0,83.0
839,123.6025390625,123.708984375,59.0,83.0
840,123.8369140625,124.23828125,61.0,80.0
841,123.8369140625,124.275390625,64.0,84.0
842,123.8369140625,124.3515625,57.0,83.0
843,124.5400390625,124.748046875,57.0,87.0
844,124.5400390625,124.826171875,61.0,92.0
845,124.5400390625,125.0546875,64.0,88.0
846,124.3056640625,125.06640625,52.0,73.0
847,125.0087890625,125.1181640625,57.0,75.0
848,123.8369140625,125.15625,45.0,84.0
849,125.2431640625,125.337890625,57.0,85.0
850,125.2431640625,125.4658203125,61.0,92.0
851,125.2431640625,125.572265625,64.0,87.0
852,125.4775390625,125.591796875,57.0,80.0
853,125.7119140625,125.9248046875,55.0,84.0
854,125.7119140625,126.01953125,60.0,85.0
855,125.7119140625,126.03125,64.0,85.0
856,126.1806640625,126.2548828125,55.0,84.0
857,126.1806640625,126.4599609375,60.0,94.0
858,126.4150390625,126.4990234375,55.0,82.0
859,125.7119140625,126.517578125,48.0,87.0
860,126.1806640625,126.5703125,64.0,90.0
861,126.6494140625,126.7705078125,57.0,79.0
862,126.6494140625,127.0234375,62.0,84.0
863,126.8837890625,127.041015625,57.0,72.0
864,127.1181640625,127.2177734375,57.0,78.0
865,126.6494140625,127.294921875,50.0,88.0
866,127.1181640625,127.423828125,62.0,82.0
867,127.1181640625,127.43359375,66.0,84.0
868,127.3525390625,127.435546875,57.0,72.0
869,127.5869140625,127.830078125,59.0,83.0
870,127.5869140625,128.140625,64.0,87.0
871,128.0556640625,128.1865234375,59.0,83.0
872,128.2900390625,128.4677734375,59.0,86.0
873,128.2900390625,128.6044921875,64.0,92.0
874,128.2900390625,128.611328125,67.0,85.0
875,128.7587890625,128.89453125,59.0,82.0
876,128.9931640625,129.08203125,59.0,87.0
877,128.9931640625,129.37109375,64.0,94.0
878,128.9931640625,129.3896484375,67.0,86.0
879,129.2275390625,129.4091796875,59.0,87.0
880,127.5869140625,129.4765625,40.0,87.0
881,129.4619140625,129.6005859375,55.0,83.0
882,129.4619140625,129.7841796875,60.0,76.0
883,129.4619140625,129.8037109375,64.0,85.0
884,129.6962890625,129.810546875,55.0,83.0
885,129.9306640625,130.0458984375,55.0,85.0
886,129.9306640625,130.0986328125,60.0,89.0
887,129.9306640625,130.224609375,64.0,89.0
888,130.1650390625,130.232421875,55.0,84.0
889,129.4619140625,130.3056640625,48.0,89.0
890,130.3994140625,130.724609375,62.0,84.0
891,130.3994140625,130.8193359375,57.0,76.0
892,130.3994140625,130.908203125,50.0,88.0
893,130.8681640625,130.9208984375,57.0,73.0
894,130.8681640625,131.16015625,62.0,84.0
895,130.8681640625,131.181640625,66.0,77.0
896,131.1025390625,131.2216796875,57.0,83.0
897,131.3369140625,131.6455078125,59.0,85.0
898,131.3369140625,131.6962890625,64.0,89.0
899,131.8056640625,131.8916015625,64.0,51.0
900,131.8056640625,131.9150390625,59.0,84.0
901,131.3369140625,131.955078125,40.0,85.0
902,132.0400390625,132.1123046875,40.0,84.0
903,132.0400390625,132.185546875,59.0,89.0
904,132.0400390625,132.5390625,64.0,97.0
905,132.0400390625,132.5419921875,67.0,84.0
906,132.5087890625,132.6396484375,59.0,82.0
907,132.7431640625,132.8408203125,59.0,89.0
908,132.7431640625,132.9072265625,64.0,94.0
909,132.7431640625,132.947265625,67.0,86.0
910,132.9775390625,133.0537109375,59.0,84.0
911,133.2119140625,133.3662109375,55.0,85.0
912,133.2119140625,133.5419921875,60.0,85.0
913,133.4462890625,133.58203125,55.0,79.0
914,133.6806640625,133.7275390625,55.0,76.0
915,133.2119140625,133.9248046875,48.0,86.0
916,133.6806640625,133.9765625,60.0,88.0
917,133.9150390625,134.013671875,55.0,84.0
918,133.6806640625,134.0302734375,64.0,90.0
919,134.1494140625,134.2861328125,57.0,79.0
920,134.1494140625,134.486328125,62.0,83.0
921,134.3837890625,134.5341796875,57.0,78.0
922,134.6181640625,134.66015625,57.0,68.0
923,134.1494140625,134.8388671875,50.0,85.0
924,134.6181640625,134.900390625,62.0,84.0
925,134.6181640625,134.900390625,66.0,79.0
926,134.8525390625,134.97265625,57.0,75.0
927,135.0869140625,135.3251953125,55.0,83.0
928,135.0869140625,135.39453125,59.0,84.0
929,135.0869140625,135.6396484375,43.0,84.0
930,135.5556640625,135.6396484375,59.0,85.0
931,135.5556640625,135.646484375,55.0,83.0
932,135.7900390625,136.115234375,59.0,87.0
933,135.7900390625,136.1533203125,63.0,87.0
934,136.2587890625,136.3740234375,59.0,84.0
935,136.4931640625,136.5966796875,59.0,87.0
936,135.7900390625,136.6318359375,47.0,85.0
937,136.4931640625,136.6748046875,63.0,84.0
938,136.4931640625,136.7744140625,66.0,83.0
939,136.7275390625,136.8046875,59.0,83.0
940,136.9619140625,137.1337890625,55.0,83.0
941,136.9619140625,137.291015625,60.0,85.0
942,137.1962890625,137.3369140625,55.0,78.0
943,137.4306640625,137.4619140625,55.0,70.0
944,137.4306640625,137.5830078125,60.0,88.0
945,137.6650390625,137.71875,60.0,66.0
946,136.9619140625,137.7412109375,48.0,92.0
947,137.4306640625,137.74609375,64.0,88.0
948,137.6650390625,137.7587890625,55.0,85.0
949,137.8994140625,138.01953125,57.0,83.0
950,137.8994140625,138.2314453125,62.0,83.0
951,138.1337890625,138.263671875,57.0,82.0
952,138.3681640625,138.64453125,66.0,83.0
953,138.3681640625,138.65625,62.0,80.0
954,137.8994140625,138.6962890625,50.0,88.0
955,138.6025390625,138.7392578125,57.0,76.0
956,138.8369140625,138.9833984375,59.0,85.0
957,138.8369140625,139.1044921875,64.0,90.0
958,138.8369140625,139.1279296875,67.0,85.0
959,138.8369140625,139.2646484375,40.0,88.0
960,139.3056640625,139.359375,59.0,80.0
961,139.3056640625,139.576171875,67.0,84.0
962,139.5400390625,139.5830078125,59.0,71.0
963,139.3056640625,139.5849609375,64.0,88.0
964,139.7744140625,139.96484375,59.0,81.0
965,140.0087890625,140.0859375,59.0,73.0
966,139.7744140625,140.095703125,62.0,84.0
967,139.7744140625,140.271484375,47.0,85.0
968,140.2431640625,140.326171875,59.0,85.0
969,140.2431640625,140.453125,62.0,85.0
970,140.2431640625,140.466796875,66.0,86.0
971,140.4775390625,140.5361328125,59.0,71.0
972,140.7119140625,141.0751953125,55.0,81.0
973,140.7119140625,141.0830078125,60.0,83.0
974,141.1806640625,141.326171875,55.0,87.0
975,141.1806640625,141.4599609375,60.0,92.0
976,140.7119140625,141.541015625,48.0,88.0
977,141.6494140625,141.927734375,57.0,83.0
978,141.6494140625,141.9384765625,62.0,88.0
979,142.1181640625,142.2392578125,57.0,87.0
980,141.6494140625,142.265625,50.0,97.0
981,142.1181640625,142.38671875,62.0,89.0
982,142.1181640625,142.40625,66.0,92.0
983,142.3525390625,142.4365234375,57.0,77.0
984,142.5869140625,142.6396484375,53.0,77.0
985,142.5869140625,142.8896484375,55.0,82.0
986,142.5869140625,142.8955078125,52.0,85.0
987,143.0556640625,143.169921875,52.0,83.0
988,143.0556640625,143.3251953125,55.0,84.0
989,143.2900390625,143.37890625,52.0,77.0
990,143.5244140625,143.5732421875,55.0,73.0
991,143.5244140625,143.5927734375,52.0,75.0
992,143.7587890625,143.853515625,52.0,83.0
993,143.7587890625,143.8544921875,55.0,85.0
994,143.9931640625,144.1728515625,52.0,89.0
995,144.2275390625,144.3173828125,52.0,82.0
996,143.9931640625,144.3203125,55.0,99.0
997,142.5869140625,144.4619140625,40.0,92.0
998,143.9931640625,144.4619140625,47.0,70.0
999,144.4609375,145.0009765625,64.0,84.0
1000,144.44140625,145.015625,55.0,64.0
1001,144.345703125,145.0205078125,52.0,74.0
1002,145.1650390625,145.2685546875,52.0,84.0
1003,145.1650390625,145.2685546875,55.0,85.0
1004,145.1728515625,145.2705078125,64.0,86.0
1005,145.845703125,145.9521484375,64.0,84.0
1006,145.8681640625,145.9697265625,52.0,83.0
1007,145.8681640625,145.970703125,55.0,83.0
1008,144.4619140625,146.068359375,40.0,87.0
1009,146.5712890625,146.66796875,55.0,89.0
1010,146.546875,146.66796875,64.0,89.0
1011,146.5712890625,146.6728515625,52.0,88.0
1012,147.0400390625,147.251953125,40.0,81.0
1013,147.2744140625,147.3701171875,55.0,87.0
1014,147.2744140625,147.37890625,52.0,86.0
1015,147.3017578125,147.423828125,64.0,86.0
1016,147.7431640625,147.8173828125,55.0,85.0
1017,147.7431640625,147.818359375,52.0,84.0
1018,147.77734375,147.8662109375,64.0,85.0
1019,148.0947265625,148.4404296875,52.0,76.0
1020,148.1845703125,148.4609375,55.0,83.0
1021,148.2421875,148.482421875,64.0,83.0
1022,148.9150390625,148.9814453125,55.0,81.0
1023,148.9150390625,148.98828125,52.0,82.0
1024,148.912109375,148.994140625,64.0,85.0
1025,149.6181640625,149.7158203125,55.0,86.0
1026,149.6181640625,149.716796875,52.0,87.0
1027,149.59765625,149.736328125,64.0,86.0
1028,148.2119140625,149.779296875,40.0,89.0
1029,150.3056640625,150.3994140625,64.0,88.0
1030,150.3212890625,150.40234375,55.0,88.0
1031,150.3212890625,150.40625,52.0,87.0
1032,150.0869140625,150.7314453125,40.0,84.0
1033,151.0244140625,151.1005859375,55.0,87.0
1034,151.0244140625,151.1083984375,52.0,89.0
1035,150.7900390625,151.1123046875,40.0,90.0
1036,151.044921875,151.13671875,64.0,92.0
1037,151.4931640625,151.58203125,52.0,89.0
1038,151.4931640625,151.591796875,55.0,87.0
1039,151.5029296875,151.6259765625,64.0,86.0
1040,151.736328125,151.814453125,64.0,71.0
1041,151.7275390625,151.9140625,52.0,94.0
1042,151.845703125,151.9140625,52.0,74.0
1043,151.9609375,152.5009765625,64.0,84.0
1044,151.94140625,152.515625,55.0,64.0
1045,152.6650390625,152.7685546875,52.0,84.0
1046,152.6650390625,152.7685546875,55.0,85.0
1047,152.6728515625,152.7705078125,64.0,86.0
1048,153.345703125,153.4521484375,64.0,84.0
1049,153.3681640625,153.4697265625,52.0,83.0
1050,153.3681640625,153.470703125,55.0,83.0
1051,151.9619140625,153.568359375,40.0,87.0
1052,154.0712890625,154.16796875,55.0,89.0
1053,154.046875,154.16796875,64.0,89.0
1054,154.0712890625,154.1728515625,52.0,88.0
1055,154.5400390625,154.751953125,40.0,81.0
1056,154.7744140625,154.8701171875,55.0,87.0
1057,154.7744140625,154.87890625,52.0,86.0
1058,154.8017578125,154.923828125,64.0,86.0
1059,155.2431640625,155.3173828125,55.0,85.0
1060,155.2431640625,155.318359375,52.0,84.0
1061,155.27734375,155.3662109375,64.0,85.0
1062,155.5947265625,155.9404296875,52.0,76.0
1063,155.6845703125,155.9609375,55.0,83.0
1064,155.7421875,155.982421875,64.0,83.0
1065,156.4150390625,156.4814453125,55.0,81.0
1066,156.4150390625,156.48828125,52.0,82.0
1067,156.412109375,156.494140625,64.0,85.0
1068,157.1181640625,157.2158203125,55.0,86.0
1069,157.1181640625,157.216796875,52.0,87.0
1070,157.09765625,157.236328125,64.0,86.0
1071,155.7119140625,157.279296875,40.0,89.0
1072,157.8056640625,157.8994140625,64.0,88.0
1073,157.8212890625,157.90234375,55.0,88.0
1074,157.8212890625,157.90625,52.0,87.0
1075,157.5869140625,158.2314453125,40.0,84.0
1076,158.5244140625,158.6005859375,55.0,87.0
1077,158.5244140625,158.6083984375,52.0,89.0
1078,158.2900390625,158.6123046875,40.0,90.0
1079,158.544921875,158.63671875,64.0,92.0
1080,158.9931640625,159.08203125,52.0,89.0
1081,158.9931640625,159.091796875,55.0,87.0
1082,159.0029296875,159.1259765625,64.0,86.0
1083,159.236328125,159.314453125,64.0,71.0
1084,159.2275390625,159.4140625,52.0,94.0
1085,159.345703125,159.4140625,52.0,74.0
1086,159.4609375,160.0009765625,64.0,84.0
1087,159.44140625,160.015625,55.0,64.0
1088,160.1650390625,160.2685546875,52.0,84.0
1089,160.1650390625,160.2685546875,55.0,85.0
1090,160.1728515625,160.2705078125,64.0,86.0
1091,160.845703125,160.9521484375,64.0,84.0
1092,160.8681640625,160.9697265625,52.0,83.0
1093,160.8681640625,160.970703125,55.0,83.0
1094,159.4619140625,161.068359375,40.0,87.0
1095,161.5712890625,161.66796875,55.0,89.0
1096,161.546875,161.66796875,64.0,89.0
1097,161.5712890625,161.6728515625,52.0,88.0
1098,162.0400390625,162.251953125,40.0,81.0
1099,162.2744140625,162.3701171875,55.0,87.0
1100,162.2744140625,162.37890625,52.0,86.0
1101,162.3017578125,162.423828125,64.0,86.0
1102,162.7431640625,162.8173828125,55.0,85.0
1103,162.7431640625,162.818359375,52.0,84.0
1104,162.77734375,162.8662109375,64.0,85.0
1105,163.0947265625,163.4404296875,52.0,76.0
1106,163.1845703125,163.4609375,55.0,83.0
1107,163.2421875,163.482421875,64.0,83.0
1108,163.9150390625,163.9814453125,55.0,81.0
1109,163.9150390625,163.98828125,52.0,82.0
1110,163.912109375,163.994140625,64.0,85.0
1111,164.6181640625,164.7158203125,55.0,86.0
1112,164.6181640625,164.716796875,52.0,87.0
1113,164.59765625,164.736328125,64.0,86.0
1114,163.2119140625,164.779296875,40.0,89.0
1115,165.3056640625,165.3994140625,64.0,88.0
1116,165.3212890625,165.40234375,55.0,88.0
1117,165.3212890625,165.40625,52.0,87.0
1118,165.0869140625,165.7314453125,40.0,84.0
1119,166.0244140625,166.1005859375,55.0,87.0
1120,166.0244140625,166.1083984375,52.0,89.0
1121,165.7900390625,166.1123046875,40.0,90.0
1122,166.044921875,166.13671875,64.0,92.0
1123,166.4931640625,166.58203125,52.0,89.0
1124,166.4931640625,166.591796875,55.0,87.0
1125,166.5029296875,166.6259765625,64.0,86.0
1126,166.736328125,166.814453125,64.0,71.0
1127,166.7275390625,166.9140625,52.0,94.0
1128,166.9619140625,167.509765625,67.0,84.0
1129,166.9619140625,167.5205078125,64.0,84.0
1130,166.9619140625,167.5322265625,52.0,90.0
1131,167.6650390625,167.904296875,52.0,89.0
1132,167.6650390625,167.9091796875,59.0,84.0
1133,167.6650390625,168.23046875,71.0,84.0
1134,167.6650390625,168.234375,67.0,84.0
1135,167.6650390625,168.2470703125,64.0,83.0
1136,168.1337890625,168.341796875,52.0,89.0
1137,168.3681640625,168.458984375,64.0,85.0
1138,168.3681640625,168.5458984375,67.0,86.0
1139,168.3681640625,168.6025390625,71.0,88.0
1140,168.6025390625,168.697265625,64.0,80.0
1141,168.8369140625,169.30859375,66.0,87.0
1142,168.8369140625,169.3125,62.0,84.0
1143,168.8369140625,169.326171875,69.0,83.0
1144,168.8369140625,169.439453125,50.0,87.0
1145,169.3056640625,169.45703125,57.0,69.0
1146,169.5400390625,169.8564453125,62.0,85.0
1147,169.5400390625,169.884765625,66.0,90.0
1148,169.5400390625,170.068359375,69.0,85.0
1149,170.0087890625,170.1240234375,62.0,84.0
1150,169.5400390625,170.2900390625,57.0,82.0
1151,169.5400390625,170.30859375,50.0,86.0
1152,170.2431640625,170.37890625,62.0,84.0
1153,170.2431640625,170.3896484375,66.0,85.0
1154,170.2431640625,170.41015625,69.0,84.0
1155,170.7119140625,171.2333984375,60.0,78.0
1156,170.7119140625,171.2333984375,64.0,85.0
1157,171.1806640625,171.4287109375,55.0,72.0
1158,170.7119140625,171.4521484375,48.0,87.0
1159,171.4150390625,171.9169921875,67.0,83.0
1160,171.4150390625,171.94921875,64.0,89.0
1161,171.4150390625,171.962890625,60.0,84.0
1162,171.8837890625,172.169921875,48.0,83.0
1163,172.1181640625,172.228515625,60.0,84.0
1164,172.1181640625,172.404296875,64.0,89.0
1165,172.1181640625,172.4482421875,67.0,85.0
1166,172.3525390625,172.4541015625,60.0,76.0
1167,172.5869140625,173.1162109375,67.0,77.0
1168,172.5869140625,173.138671875,62.0,79.0
1169,173.2900390625,173.51171875,62.0,85.0
1170,173.2900390625,173.642578125,67.0,85.0
1171,173.0556640625,173.8232421875,50.0,70.0
1172,173.2900390625,173.8359375,71.0,85.0
1173,173.7587890625,173.8447265625,67.0,65.0
1174,173.7587890625,173.8740234375,62.0,82.0
1175,173.9931640625,174.1181640625,62.0,85.0
1176,172.5869140625,174.130859375,43.0,83.0
1177,173.9931640625,174.3193359375,67.0,84.0
1178,174.2275390625,174.3310546875,62.0,79.0
1179,173.9931640625,174.3427734375,71.0,84.0
1180,174.4619140625,174.9609375,64.0,83.0
1181,174.4619140625,174.9736328125,67.0,79.0
1182,174.4619140625,174.9892578125,71.0,80.0
1183,175.1650390625,175.478515625,64.0,85.0
1184,175.1650390625,175.552734375,67.0,85.0
1185,175.1650390625,175.591796875,71.0,87.0
1186,175.6337890625,175.7724609375,64.0,79.0
1187,175.8681640625,175.9970703125,64.0,85.0
1188,174.9306640625,176.0234375,47.0,70.0
1189,175.8681640625,176.107421875,67.0,87.0
1190,176.1025390625,176.1904296875,64.0,81.0
1191,174.4619140625,176.2158203125,40.0,85.0
1192,175.8681640625,176.2353515625,71.0,85.0
1193,176.3369140625,176.6982421875,60.0,86.0
1194,176.3369140625,176.837890625,64.0,85.0
1195,176.8056640625,176.8671875,60.0,66.0
1196,176.3369140625,176.869140625,67.0,77.0
1197,177.0400390625,177.2763671875,60.0,87.0
1198,176.3369140625,177.4453125,36.0,83.0
1199,177.0400390625,177.5419921875,64.0,94.0
1200,177.0400390625,177.55078125,67.0,88.0
1201,177.5087890625,177.619140625,60.0,85.0
1202,177.7431640625,177.8525390625,60.0,86.0
1203,177.7431640625,177.8701171875,64.0,94.0
1204,177.7431640625,177.923828125,67.0,84.0
1205,177.9775390625,178.0498046875,62.0,50.0
1206,178.2119140625,178.484375,62.0,79.0
1207,178.2119140625,178.69921875,66.0,84.0
1208,178.2119140625,178.7119140625,69.0,83.0
1209,178.6806640625,178.7646484375,62.0,67.0
1210,178.9150390625,179.103515625,62.0,85.0
1211,178.9150390625,179.2578125,66.0,92.0
1212,178.9150390625,179.4599609375,69.0,85.0
1213,179.3837890625,179.4833984375,62.0,78.0
1214,178.9150390625,179.4990234375,45.0,74.0
1215,178.2119140625,179.53515625,38.0,87.0
1216,179.6181640625,179.724609375,62.0,85.0
1217,179.6181640625,179.9111328125,66.0,94.0
1218,179.8525390625,179.9716796875,62.0,79.0
1219,179.6181640625,179.9951171875,69.0,86.0
1220,180.0869140625,180.5419921875,67.0,83.0
1221,180.0869140625,180.556640625,71.0,84.0
1222,180.0869140625,180.5595703125,64.0,84.0
1223,180.7900390625,180.9599609375,67.0,86.0
1224,180.7900390625,180.9755859375,64.0,89.0
1225,180.7900390625,180.9990234375,71.0,90.0
1226,181.2587890625,181.373046875,64.0,70.0
1227,181.4931640625,181.6025390625,64.0,87.0
1228,180.0869140625,181.654296875,52.0,78.0
1229,180.0869140625,181.673828125,40.0,83.0
1230,181.4931640625,181.83984375,67.0,85.0
1231,181.4931640625,181.876953125,71.0,86.0
1232,181.7275390625,181.9072265625,64.0,87.0
1233,181.9619140625,182.1005859375,55.0,83.0
1234,181.9619140625,182.2841796875,60.0,76.0
1235,181.9619140625,182.3037109375,64.0,85.0
1236,182.1962890625,182.310546875,55.0,83.0
1237,182.4306640625,182.5458984375,55.0,85.0
1238,182.4306640625,182.5986328125,60.0,89.0
1239,182.4306640625,182.724609375,64.0,89.0
1240,182.6650390625,182.732421875,55.0,84.0
1241,181.9619140625,182.8056640625,48.0,89.0
1242,182.8994140625,183.224609375,62.0,84.0
1243,182.8994140625,183.3193359375,57.0,76.0
1244,182.8994140625,183.408203125,50.0,88.0
1245,183.3681640625,183.4208984375,57.0,73.0
1246,183.3681640625,183.66015625,62.0,84.0
1247,183.3681640625,183.681640625,66.0,77.0
1248,183.6025390625,183.7216796875,57.0,83.0
1249,183.8369140625,184.1455078125,59.0,85.0
1250,183.8369140625,184.1962890625,64.0,89.0
1251,184.3056640625,184.3916015625,64.0,51.0
1252,184.3056640625,184.4150390625,59.0,84.0
1253,183.8369140625,184.455078125,40.0,85.0
1254,184.5400390625,184.6123046875,40.0,84.0
1255,184.5400390625,184.685546875,59.0,89.0
1256,184.5400390625,185.0390625,64.0,97.0
1257,184.5400390625,185.0419921875,67.0,84.0
1258,185.0087890625,185.1396484375,59.0,82.0
1259,185.2431640625,185.3408203125,59.0,89.0
1260,185.2431640625,185.4072265625,64.0,94.0
1261,185.2431640625,185.447265625,67.0,86.0
1262,185.4775390625,185.5537109375,59.0,84.0
1263,185.7119140625,185.8662109375,55.0,85.0
1264,185.7119140625,186.0419921875,60.0,85.0
1265,185.9462890625,186.08203125,55.0,79.0
1266,186.1806640625,186.2275390625,55.0,76.0
1267,185.7119140625,186.4248046875,48.0,86.0
1268,186.1806640625,186.4765625,60.0,88.0
1269,186.4150390625,186.513671875,55.0,84.0
1270,186.1806640625,186.5302734375,64.0,90.0
1271,186.6494140625,186.7861328125,57.0,79.0
1272,186.6494140625,186.986328125,62.0,83.0
1273,186.8837890625,187.0341796875,57.0,78.0
1274,187.1181640625,187.16015625,57.0,68.0
1275,186.6494140625,187.3388671875,50.0,85.0
1276,187.1181640625,187.400390625,62.0,84.0
1277,187.1181640625,187.400390625,66.0,79.0
1278,187.3525390625,187.47265625,57.0,75.0
1279,187.5869140625,187.8251953125,55.0,83.0
1280,187.5869140625,187.89453125,59.0,84.0
1281,187.5869140625,188.1396484375,43.0,84.0
1282,188.0556640625,188.1396484375,59.0,85.0
1283,188.0556640625,188.146484375,55.0,83.0
1284,188.2900390625,188.615234375,59.0,87.0
1285,188.2900390625,188.6533203125,63.0,87.0
1286,188.7587890625,188.8740234375,59.0,84.0
1287,188.9931640625,189.0966796875,59.0,87.0
1288,188.2900390625,189.1318359375,47.0,85.0
1289,188.9931640625,189.1748046875,63.0,84.0
1290,188.9931640625,189.2744140625,66.0,83.0
1291,189.2275390625,189.3046875,59.0,83.0
1292,189.4619140625,189.6337890625,55.0,83.0
1293,189.4619140625,189.791015625,60.0,85.0
1294,189.6962890625,189.8369140625,55.0,78.0
1295,189.9306640625,189.9619140625,55.0,70.0
1296,189.9306640625,190.0830078125,60.0,88.0
1297,190.1650390625,190.21875,60.0,66.0
1298,189.4619140625,190.2412109375,48.0,92.0
1299,189.9306640625,190.24609375,64.0,88.0
1300,190.1650390625,190.2587890625,55.0,85.0
1301,190.3994140625,190.51953125,57.0,83.0
1302,190.3994140625,190.7314453125,62.0,83.0
1303,190.6337890625,190.763671875,57.0,82.0
1304,190.8681640625,191.14453125,66.0,83.0
1305,190.8681640625,191.15625,62.0,80.0
1306,190.3994140625,191.1962890625,50.0,88.0
1307,191.1025390625,191.2392578125,57.0,76.0
1308,191.3369140625,191.4833984375,59.0,85.0
1309,191.3369140625,191.6044921875,64.0,90.0
1310,191.3369140625,191.6279296875,67.0,85.0
1311,191.3369140625,191.7646484375,40.0,88.0
1312,191.8056640625,191.859375,59.0,80.0
1313,191.8056640625,192.076171875,67.0,84.0
1314,192.0400390625,192.0830078125,59.0,71.0
1315,191.8056640625,192.0849609375,64.0,88.0
1316,192.2744140625,192.46484375,59.0,81.0
1317,192.5087890625,192.5859375,59.0,73.0
1318,192.2744140625,192.595703125,62.0,84.0
1319,192.2744140625,192.771484375,47.0,85.0
1320,192.7431640625,192.826171875,59.0,85.0
1321,192.7431640625,192.953125,62.0,85.0
1322,192.7431640625,192.966796875,66.0,86.0
1323,192.9775390625,193.0361328125,59.0,71.0
1324,193.2119140625,193.5751953125,55.0,81.0
1325,193.2119140625,193.5830078125,60.0,83.0
1326,193.6806640625,193.826171875,55.0,87.0
1327,193.6806640625,193.9599609375,60.0,92.0
1328,193.2119140625,194.041015625,48.0,88.0
1329,194.1494140625,194.427734375,57.0,83.0
1330,194.1494140625,194.4384765625,62.0,88.0
1331,194.6181640625,194.7392578125,57.0,87.0
1332,194.1494140625,194.765625,50.0,97.0
1333,194.6181640625,194.88671875,62.0,89.0
1334,194.6181640625,194.90625,66.0,92.0
1335,194.8525390625,194.9365234375,57.0,77.0
1336,195.0869140625,195.1396484375,53.0,77.0
1337,195.0869140625,195.3896484375,55.0,82.0
1338,195.0869140625,195.3955078125,52.0,85.0
1339,195.5556640625,195.669921875,52.0,83.0
1340,195.5556640625,195.8251953125,55.0,84.0
1341,195.7900390625,195.87890625,52.0,77.0
1342,196.0244140625,196.0732421875,55.0,73.0
1343,196.0244140625,196.0927734375,52.0,75.0
1344,196.2587890625,196.353515625,52.0,83.0
1345,196.2587890625,196.3544921875,55.0,85.0
1346,196.4931640625,196.6728515625,52.0,89.0
1347,196.7275390625,196.8173828125,52.0,82.0
1348,196.4931640625,196.8203125,55.0,99.0
1349,195.0869140625,196.9619140625,40.0,92.0
1350,196.4931640625,196.9619140625,47.0,70.0
1351,196.9619140625,197.1005859375,55.0,83.0
1352,196.9619140625,197.2841796875,60.0,76.0
1353,196.9619140625,197.3037109375,64.0,85.0
1354,197.1962890625,197.310546875,55.0,83.0
1355,197.4306640625,197.5458984375,55.0,85.0
1356,197.4306640625,197.5986328125,60.0,89.0
1357,197.4306640625,197.724609375,64.0,89.0
1358,197.6650390625,197.732421875,55.0,84.0
1359,196.9619140625,197.8056640625,48.0,89.0
1360,197.8994140625,198.224609375,62.0,84.0
1361,197.8994140625,198.3193359375,57.0,76.0
1362,197.8994140625,198.408203125,50.0,88.0
1363,198.3681640625,198.4208984375,57.0,73.0
1364,198.3681640625,198.66015625,62.0,84.0
1365,198.3681640625,198.681640625,66.0,77.0
1366,198.6025390625,198.7216796875,57.0,83.0
1367,198.8369140625,199.1455078125,59.0,85.0
1368,198.8369140625,199.1962890625,64.0,89.0
1369,199.3056640625,199.3916015625,64.0,51.0
1370,199.3056640625,199.4150390625,59.0,84.0
1371,198.8369140625,199.455078125,40.0,85.0
1372,199.5400390625,199.6123046875,40.0,84.0
1373,199.5400390625,199.685546875,59.0,89.0
1374,199.5400390625,200.0390625,64.0,97.0
1375,199.5400390625,200.0419921875,67.0,84.0
1376,200.0087890625,200.1396484375,59.0,82.0
1377,200.2431640625,200.3408203125,59.0,89.0
1378,200.2431640625,200.4072265625,64.0,94.0
1379,200.2431640625,200.447265625,67.0,86.0
1380,200.4775390625,200.5537109375,59.0,84.0
1381,200.7119140625,200.8662109375,55.0,85.0
1382,200.7119140625,201.0419921875,60.0,85.0
1383,200.9462890625,201.08203125,55.0,79.0
1384,201.1806640625,201.2275390625,55.0,76.0
1385,200.7119140625,201.4248046875,48.0,86.0
1386,201.1806640625,201.4765625,60.0,88.0
1387,201.4150390625,201.513671875,55.0,84.0
1388,201.1806640625,201.5302734375,64.0,90.0
1389,201.6494140625,201.7861328125,57.0,79.0
1390,201.6494140625,201.986328125,62.0,83.0
1391,201.8837890625,202.0341796875,57.0,78.0
1392,202.1181640625,202.16015625,57.0,68.0
1393,201.6494140625,202.3388671875,50.0,85.0
1394,202.1181640625,202.400390625,62.0,84.0
1395,202.1181640625,202.400390625,66.0,79.0
1396,202.3525390625,202.47265625,57.0,75.0
1397,202.5869140625,202.8251953125,55.0,83.0
1398,202.5869140625,202.89453125,59.0,84.0
1399,202.5869140625,203.1396484375,43.0,84.0
1400,203.0556640625,203.1396484375,59.0,85.0
1401,203.0556640625,203.146484375,55.0,83.0
1402,203.2900390625,203.615234375,59.0,87.0
1403,203.2900390625,203.6533203125,63.0,87.0
1404,203.7587890625,203.8740234375,59.0,84.0
1405,203.9931640625,204.0966796875,59.0,87.0
1406,203.2900390625,204.1318359375,47.0,85.0
1407,203.9931640625,204.1748046875,63.0,84.0
1408,203.9931640625,204.2744140625,66.0,83.0
1409,204.2275390625,204.3046875,59.0,83.0
1410,204.4619140625,204.6337890625,55.0,83.0
1411,204.4619140625,204.791015625,60.0,85.0
1412,204.6962890625,204.8369140625,55.0,78.0
1413,204.9306640625,204.9619140625,55.0,70.0
1414,204.9306640625,205.0830078125,60.0,88.0
1415,205.1650390625,205.21875,60.0,66.0
1416,204.4619140625,205.2412109375,48.0,92.0
1417,204.9306640625,205.24609375,64.0,88.0
1418,205.1650390625,205.2587890625,55.0,85.0
1419,205.3994140625,205.51953125,57.0,83.0
1420,205.3994140625,205.7314453125,62.0,83.0
1421,205.6337890625,205.763671875,57.0,82.0
1422,205.8681640625,206.14453125,66.0,83.0
1423,205.8681640625,206.15625,62.0,80.0
1424,205.3994140625,206.1962890625,50.0,88.0
1425,206.1025390625,206.2392578125,57.0,76.0
1426,206.3369140625,206.4833984375,59.0,85.0
1427,206.3369140625,206.6044921875,64.0,90.0
1428,206.3369140625,206.6279296875,67.0,85.0
1429,206.3369140625,206.7646484375,40.0,88.0
1430,206.8056640625,206.859375,59.0,80.0
1431,206.8056640625,207.076171875,67.0,84.0
1432,207.0400390625,207.0830078125,59.0,71.0
1433,206.8056640625,207.0849609375,64.0,88.0
1434,207.2744140625,207.46484375,59.0,81.0
1435,207.5087890625,207.5859375,59.0,73.0
1436,207.2744140625,207.595703125,62.0,84.0
1437,207.2744140625,207.771484375,47.0,85.0
1438,207.7431640625,207.826171875,59.0,85.0
1439,207.7431640625,207.953125,62.0,85.0
1440,207.7431640625,207.966796875,66.0,86.0
1441,207.9775390625,208.0361328125,59.0,71.0
1442,208.2119140625,208.5751953125,55.0,81.0
1443,208.2119140625,208.5830078125,60.0,83.0
1444,208.6806640625,208.826171875,55.0,87.0
1445,208.6806640625,208.9599609375,60.0,92.0
1446,208.2119140625,209.041015625,48.0,88.0
1447,209.1494140625,209.427734375,57.0,83.0
1448,209.1494140625,209.4384765625,62.0,88.0
1449,209.6181640625,209.7392578125,57.0,87.0
1450,209.1494140625,209.765625,50.0,97.0
1451,209.6181640625,209.88671875,62.0,89.0
1452,209.6181640625,209.90625,66.0,92.0
1453,209.8525390625,209.9365234375,57.0,77.0
1454,210.0869140625,210.1396484375,53.0,77.0
1455,210.0869140625,210.3896484375,55.0,82.0
1456,210.0869140625,210.3955078125,52.0,85.0
1457,210.5556640625,210.669921875,52.0,83.0
1458,210.5556640625,210.8251953125,55.0,84.0
1459,210.7900390625,210.87890625,52.0,77.0
1460,211.0244140625,211.0732421875,55.0,73.0
1461,211.0244140625,211.0927734375,52.0,75.0
1462,211.2587890625,211.353515625,52.0,83.0
1463,211.2587890625,211.3544921875,55.0,85.0
1464,211.4931640625,211.6728515625,52.0,89.0
1465,211.7275390625,211.8173828125,52.0,82.0
1466,211.4931640625,211.8203125,55.0,99.0
1467,210.0869140625,211.9619140625,40.0,92.0
1468,211.4931640625,211.9619140625,47.0,70.0
1469,211.9619140625,212.2451171875,48.0,83.0
1470,211.9619140625,212.265625,52.0,84.0
1471,211.9619140625,212.3154296875,55.0,83.0
1472,211.9619140625,212.3935546875,36.0,85.0
1473,212.8994140625,212.9912109375,38.0,88.0
1474,212.8994140625,213.095703125,50.0,79.0
1475,212.8994140625,213.1181640625,54.0,75.0
1476,212.8994140625,213.1513671875,57.0,80.0
1477,214.7744140625,215.162109375,50.0,92.0
1478,214.7744140625,215.169921875,57.0,79.0
1479,214.7744140625,215.1728515625,62.0,84.0
1480,214.7744140625,215.19140625,66.0,83.0
1481,215.2431640625,215.6640625,57.0,83.0
1482,215.2431640625,215.6787109375,62.0,87.0
1483,215.2431640625,215.68359375,50.0,100.0
1484,215.2431640625,215.693359375,66.0,85.0
1485,215.7119140625,216.259765625,67.0,84.0
1486,215.7119140625,216.2705078125,64.0,84.0
1487,215.7119140625,216.2822265625,52.0,90.0
1488,216.4150390625,216.654296875,52.0,89.0
1489,216.4150390625,216.6591796875,59.0,84.0
1490,216.4150390625,216.98046875,71.0,84.0
1491,216.4150390625,216.984375,67.0,84.0
1492,216.4150390625,216.9970703125,64.0,83.0
1493,216.8837890625,217.091796875,52.0,89.0
1494,217.1181640625,217.208984375,64.0,85.0
1495,217.1181640625,217.2958984375,67.0,86.0
1496,217.1181640625,217.3525390625,71.0,88.0
1497,217.3525390625,217.447265625,64.0,80.0
1498,217.5869140625,218.05859375,66.0,87.0
1499,217.5869140625,218.0625,62.0,84.0
1500,217.5869140625,218.076171875,69.0,83.0
1501,217.5869140625,218.189453125,50.0,87.0
1502,218.0556640625,218.20703125,57.0,69.0
1503,218.2900390625,218.6064453125,62.0,85.0
1504,218.2900390625,218.634765625,66.0,90.0
1505,218.2900390625,218.818359375,69.0,85.0
1506,218.7587890625,218.8740234375,62.0,84.0
1507,218.2900390625,219.0400390625,57.0,82.0
1508,218.2900390625,219.05859375,50.0,86.0
1509,218.9931640625,219.12890625,62.0,84.0
1510,218.9931640625,219.1396484375,66.0,85.0
1511,218.9931640625,219.16015625,69.0,84.0
1512,219.4619140625,219.9833984375,60.0,78.0
1513,219.4619140625,219.9833984375,64.0,85.0
1514,219.9306640625,220.1787109375,55.0,72.0
1515,219.4619140625,220.2021484375,48.0,87.0
1516,220.1650390625,220.6669921875,67.0,83.0
1517,220.1650390625,220.69921875,64.0,89.0
1518,220.1650390625,220.712890625,60.0,84.0
1519,220.6337890625,220.919921875,48.0,83.0
1520,220.8681640625,220.978515625,60.0,84.0
1521,220.8681640625,221.154296875,64.0,89.0
1522,220.8681640625,221.1982421875,67.0,85.0
1523,221.1025390625,221.2041015625,60.0,76.0
1524,221.3369140625,221.8662109375,67.0,77.0
1525,221.3369140625,221.888671875,62.0,79.0
1526,222.0400390625,222.26171875,62.0,85.0
1527,222.0400390625,222.392578125,67.0,85.0
1528,221.8056640625,222.5732421875,50.0,70.0
1529,222.0400390625,222.5859375,71.0,85.0
1530,222.5087890625,222.5947265625,67.0,65.0
1531,222.5087890625,222.6240234375,62.0,82.0
1532,222.7431640625,222.8681640625,62.0,85.0
1533,221.3369140625,222.880859375,43.0,83.0
1534,222.7431640625,223.0693359375,67.0,84.0
1535,222.9775390625,223.0810546875,62.0,79.0
1536,222.7431640625,223.0927734375,71.0,84.0
1537,223.2119140625,223.7109375,64.0,83.0
1538,223.2119140625,223.7236328125,67.0,79.0
1539,223.2119140625,223.7392578125,71.0,80.0
1540,223.9150390625,224.228515625,64.0,85.0
1541,223.9150390625,224.302734375,67.0,85.0
1542,223.9150390625,224.341796875,71.0,87.0
1543,224.3837890625,224.5224609375,64.0,79.0
1544,224.6181640625,224.7470703125,64.0,85.0
1545,223.6806640625,224.7734375,47.0,70.0
1546,224.6181640625,224.857421875,67.0,87.0
1547,224.8525390625,224.9404296875,64.0,81.0
1548,223.2119140625,224.9658203125,40.0,85.0
1549,224.6181640625,224.9853515625,71.0,85.0
1550,225.0869140625,225.4482421875,60.0,86.0
1551,225.0869140625,225.587890625,64.0,85.0
1552,225.5556640625,225.6171875,60.0,66.0
1553,225.0869140625,225.619140625,67.0,77.0
1554,225.7900390625,226.0263671875,60.0,87.0
1555,225.0869140625,226.1953125,36.0,83.0
1556,225.7900390625,226.2919921875,64.0,94.0
1557,225.7900390625,226.30078125,67.0,88.0
1558,226.2587890625,226.369140625,60.0,85.0
1559,226.4931640625,226.6025390625,60.0,86.0
1560,226.4931640625,226.6201171875,64.0,94.0
1561,226.4931640625,226.673828125,67.0,84.0
1562,226.7275390625,226.7998046875,62.0,50.0
1563,226.9619140625,227.234375,62.0,79.0
1564,226.9619140625,227.44921875,66.0,84.0
1565,226.9619140625,227.4619140625,69.0,83.0
1566,227.4306640625,227.5146484375,62.0,67.0
1567,227.6650390625,227.853515625,62.0,85.0
1568,227.6650390625,228.0078125,66.0,92.0
1569,227.6650390625,228.2099609375,69.0,85.0
1570,228.1337890625,228.2333984375,62.0,78.0
1571,228.3681640625,228.474609375,62.0,85.0
1572,228.3681640625,228.6611328125,66.0,94.0
1573,228.6025390625,228.7216796875,62.0,79.0
1574,228.3681640625,228.7451171875,69.0,86.0
1575,227.6650390625,229.5048828125,45.0,74.0
1576,226.9619140625,229.5400390625,38.0,87.0
1577,230.6171875,234.333984375,52.0,75.0
1578,230.681640625,234.3603515625,40.0,86.0
1579,230.666015625,234.3642578125,55.0,78.0
1580,230.7236328125,234.40625,64.0,49.0
