,start,end,pitch,velocity
0,24.488979925,24.6924682625,73.0,107.0
1,24.856176925,25.1667643875,73.0,122.0
2,25.223373925,25.4391021625,71.0,64.0
3,25.590570924999998,25.8766785875,71.0,85.0
4,25.957767925,27.0868987,66.0,100.0
5,27.059358924999998,27.3271067375,73.0,112.0
6,27.426555925,27.7799830375,75.0,112.0
7,28.160020325,29.7926393375,75.0,117.0
8,30.355138325,30.477089325,73.0,122.0
9,30.720991325,30.995381075,73.0,112.0
10,31.086844325,31.2972098,71.0,83.0
11,31.452697325,31.675257900000002,68.0,96.0
12,31.818550325,32.788060775,75.0,107.0
13,32.916109325,33.198611033333336,73.0,112.0
14,33.28042924583333,33.695580916666664,71.0,92.0
15,34.007702245833336,35.58649071666667,68.0,102.0
16,36.18952124583333,36.33800615,73.0,122.0
17,36.55315774583333,36.8834609,73.0,117.0
18,36.91679424583333,37.05770338958333,71.0,90.0
19,37.280430745833335,37.4198247375,71.0,93.0
20,37.644067245833334,38.65467368541667,68.0,102.0
21,38.734976745833336,38.84406769583333,73.0,117.0
22,39.098613245833334,39.36982546875,75.0,112.0
23,39.82588624583333,41.46679595208333,73.0,112.0
24,42.007705245833336,42.21831138541667,73.0,117.0
25,42.371341745833334,42.63043275208334,73.0,117.0
26,42.73497824583333,42.991038947916664,71.0,89.0
27,43.09861474583333,43.34558453541667,75.0,102.0
28,43.462251245833336,44.05164540625,73.0,122.0
29,44.18952424583333,44.41073645,73.0,95.0
30,44.55316074583334,44.88649420416667,78.0,112.0
31,44.91679724583334,45.284979202083335,75.0,102.0
32,45.64407024583333,47.055801925,73.0,100.0
33,47.836288325,48.051226962499996,73.0,100.0
34,48.202141325,48.44299455,73.0,102.0
35,48.567994325,48.750920825,73.0,100.0
36,48.933847325,49.1823224875,73.0,107.0
37,49.299700324999996,50.2493937375,66.0,107.0
38,50.397259325,50.6548808125,73.0,122.0
39,50.763112325,50.9246974,75.0,122.0
40,51.494818325,52.964327875,75.0,112.0
41,53.689936325,53.9124969,73.0,122.0
42,54.055789325,54.2128012375,73.0,127.0
43,54.421642325,54.5481664875,73.0,117.0
44,54.787495325,54.9124951,73.0,122.0
45,55.153348324999996,56.034444300000004,71.0,102.0
46,56.250907325,56.470419125,73.0,117.0
47,56.616760325,57.031393725,75.0,122.0
48,57.348466325000004,59.0222438,71.0,112.0
49,59.54670892916667,59.74578307291667,73.0,112.0
50,59.91707942916667,60.11152394166667,73.0,107.0
51,60.28744992916667,60.424795656250005,71.0,90.0
52,60.65782042916667,60.82911678541667,71.0,95.0
53,61.02819092916667,61.890845552083334,68.0,102.0
54,62.13930242916667,62.287036525000005,73.0,117.0
55,62.506548325000004,62.9531938625,75.0,117.0
56,63.238254325,64.6071543,73.0,112.0
57,65.43337232500001,65.5827623,73.0,122.0
58,65.79922532500001,65.9684323375,73.0,117.0
59,66.165078325,66.2916024875,71.0,93.0
60,66.530931325,66.66355303750001,75.0,112.0
61,66.896784325,67.4013565875,73.0,122.0
62,67.628490325,67.8144656,73.0,97.0
63,67.994343325,68.26263552500001,78.0,127.0
64,68.360196325,68.8632442,80.0,102.0
65,69.091902325,70.2001320375,78.0,127.0
66,70.55531432500001,70.77025296250001,66.0,112.0
67,70.921167325,71.2946422625,75.0,107.0
68,71.287020325,71.78701942500001,78.0,127.0
69,72.018726325,72.6482983625,78.0,127.0
70,72.750432325,72.95927341250001,78.0,112.0
71,73.116285325,73.3098825375,78.0,127.0
72,73.48213832500001,73.652869725,75.0,112.0
73,73.84799132500001,74.07207628750001,75.0,112.0
74,74.213844325,74.4806121375,82.0,112.0
75,74.57969732500001,74.7915871875,82.0,127.0
76,74.945550325,75.4623176875,83.0,122.0
77,75.677256325,76.3495112125,82.0,122.0
78,76.408962325,76.5141450625,80.0,117.0
79,76.59188882500001,76.7092666625,82.0,100.0
80,76.774815325,77.171156075,83.0,117.0
81,77.14066832500001,77.34493625,82.0,127.0
82,77.50652132500001,77.616277225,80.0,112.0
83,77.87237432500001,78.561397475,80.0,127.0
84,78.60408032500001,79.04462831250001,78.0,122.0
85,79.335786325,79.71840758750001,75.0,117.0
86,80.067492325,80.4684062375,73.0,117.0
87,80.799198325,81.83273305,71.0,100.0
88,82.262610325,82.37998816250001,71.0,89.0
89,82.445536825,82.53547568750001,73.0,100.0
90,82.62846332500001,82.94706031250001,75.0,122.0
91,82.994316325,83.41809605,73.0,102.0
92,83.726022325,84.45163077500001,71.0,102.0
93,84.823581325,84.97449568750001,71.0,100.0
94,85.18943432500001,85.30833655,80.0,107.0
95,85.55528732500001,85.77784790000001,80.0,127.0
96,85.92114032500001,86.20772517500001,78.0,117.0
97,86.65284632500001,87.311381725,75.0,117.0
98,87.38455232500002,87.5811983125,75.0,122.0
99,87.750405325,87.8830270375,73.0,127.0
100,88.116258325,88.3525383875,71.0,95.0
101,88.482111325,88.7549766875,73.0,112.0
102,88.847964325,88.95467145,73.0,127.0
103,89.21381732500001,89.41351208750001,73.0,127.0
104,89.57967032500001,89.6909506125,73.0,127.0
105,89.762596825,89.86168201250001,71.0,92.0
106,89.94552332500001,90.19094971250001,71.0,102.0
107,90.31137632500001,90.60863188750001,68.0,112.0
108,91.043082325,91.52783755000002,80.0,127.0
109,91.774788325,91.98362941250001,78.0,122.0
110,92.140641325,92.34795802500001,78.0,112.0
111,92.506494325,93.3464318375,73.0,117.0
112,93.96990632500001,94.08575977500001,71.0,97.0
113,94.152832825,94.25496678750001,73.0,107.0
114,94.335759325,94.616246625,75.0,122.0
115,94.70161232500001,95.11929450000001,78.0,127.0
116,95.43331832500002,95.87843947500001,78.0,127.0
117,96.16502432500002,96.3586215375,78.0,122.0
118,96.530877325,96.73514525000002,78.0,127.0
119,96.89673032500001,97.0750836625,75.0,127.0
120,97.26258332500001,97.433314725,75.0,122.0
121,97.62843632500001,97.83422863750002,82.0,127.0
122,97.99428932500001,98.189410925,82.0,127.0
123,98.360142325,98.9104462125,83.0,127.0
124,99.091848325,99.5019085625,82.0,127.0
125,100.18940732500002,100.4958092125,83.0,122.0
126,100.555260325,100.8037354875,82.0,127.0
127,100.92111332500001,101.14977145,82.0,122.0
128,101.28696632500001,101.44855140000001,80.0,112.0
129,101.65281932500001,101.84489215,80.0,117.0
130,102.01867232500001,102.38909848750001,82.0,127.0
131,102.75037832500001,103.31440170000002,83.0,127.0
132,103.48208432500002,103.71226683750001,82.0,127.0
133,103.847937325,104.0476320875,82.0,122.0
134,104.21379032500002,105.171105675,80.0,122.0
135,105.67720232500001,105.77171435000001,80.0,122.0
136,105.860128825,105.95921401250001,82.0,112.0
137,106.04305532500001,106.32811578750001,83.0,112.0
138,106.40890832500001,106.93177323750001,82.0,127.0
139,107.140614325,107.95768602500002,80.0,122.0
140,108.23817332500002,108.52018501250001,80.0,127.0
141,108.604026325,108.7823796625,78.0,100.0
142,108.96987932500001,109.19701306250002,78.0,117.0
143,109.33573232500001,109.62384156250002,80.0,117.0
144,110.06743832500001,110.79152238750001,75.0,122.0
145,110.79914432500001,111.1024974375,75.0,122.0
146,111.164997325,111.40737493750001,73.0,112.0
147,111.53085032500002,111.85859363750001,71.0,102.0
148,111.896703325,112.11164196250002,73.0,122.0
149,112.26255632500002,112.43328772500001,73.0,117.0
150,112.628409325,112.890603975,73.0,122.0
151,112.99426232500001,113.4851151,80.0,127.0
152,113.72596832500001,114.45005238750001,78.0,127.0
153,114.45767432500001,114.88297843750001,80.0,122.0
154,115.189380325,116.8067554625,73.0,127.0
155,117.38449832500001,117.56437605000002,73.0,127.0
156,117.56742482500002,117.74120500000001,75.0,100.0
157,117.75035132500001,117.96071680000001,73.0,127.0
158,118.11620432500001,118.42260621250001,71.0,122.0
159,118.84791032500002,121.14058912500002,71.0,107.0
160,121.77473432500001,122.23509935000001,75.0,117.0
161,122.50644032500001,123.0460735,78.0,127.0
162,123.23814632500002,125.628385925,80.0,127.0
163,127.62838232500002,128.012527975,78.0,122.0
164,128.36008832500002,128.8097826375,75.0,127.0
165,129.09179432500002,129.59636658750003,73.0,127.0
166,129.823500325,132.82501931250002,71.0,117.0
167,153.23809232500003,153.4530309625,73.0,100.0
168,153.603945325,153.84479855,73.0,102.0
169,153.969798325,154.152724825,73.0,100.0
170,154.33565132500001,154.58412648750001,73.0,107.0
171,154.70150432500003,155.6511977375,66.0,107.0
172,155.79906332500002,156.0566848125,73.0,122.0
173,156.16491632500004,156.3265014,75.0,122.0
174,156.896622325,158.366131875,75.0,112.0
175,159.09174032500002,159.31430090000003,73.0,122.0
176,159.457593325,159.61460523750003,73.0,127.0
177,159.82344632500002,159.94997048750002,73.0,117.0
178,160.18929932500004,160.31429910000003,73.0,122.0
179,160.55515232500002,161.43624830000002,71.0,102.0
180,161.652711325,161.872223125,73.0,117.0
181,162.018564325,162.433197725,75.0,122.0
182,162.75027032500003,164.42404780000004,71.0,112.0
183,164.945388325,165.14203431250002,73.0,112.0
184,165.31124132500003,165.50331415000002,73.0,107.0
185,165.67709432500004,165.8127648125,71.0,90.0
186,166.042947325,166.2121543375,71.0,95.0
187,166.40880032500002,167.2609329375,68.0,102.0
188,167.506359325,167.652700525,73.0,117.0
189,167.87221232500002,168.3188578625,75.0,117.0
190,168.60391832500002,169.97281830000003,73.0,112.0
191,170.79903632500003,170.94842630000002,73.0,122.0
192,171.16488932500002,171.33409633750003,73.0,117.0
193,171.530742325,171.6572664875,71.0,93.0
194,171.89659532500002,172.02921703750002,75.0,112.0
195,172.26244832500004,172.76702058750004,73.0,122.0
196,172.994154325,173.18012960000001,73.0,97.0
197,173.36000732500003,173.62829952500002,78.0,127.0
198,173.72586032500004,174.22890820000003,80.0,102.0
199,174.45756632500002,175.56579603750004,78.0,127.0
200,175.92097832500002,176.1359169625,66.0,112.0
201,176.28683132500004,176.66030626250003,75.0,107.0
202,176.65268432500002,177.15268342500002,78.0,127.0
203,177.38439032500003,178.01396236250002,78.0,127.0
204,178.11609632500003,178.32493741250002,78.0,112.0
205,178.48194932500002,178.67554653750003,78.0,127.0
206,178.84780232500003,179.01853372500003,75.0,112.0
207,179.21365532500002,179.43774028750002,75.0,112.0
208,179.579508325,179.8462761375,82.0,112.0
209,179.94536132500002,180.15725118750004,82.0,127.0
210,180.31121432500004,180.82798168750003,83.0,122.0
211,181.042920325,181.71517521250001,82.0,122.0
212,181.77462632500004,181.87980906250004,80.0,117.0
213,181.95755282500002,182.07493066250004,82.0,100.0
214,182.14047932500003,182.53682007500004,83.0,117.0
215,182.50633232500002,182.71060025000003,82.0,127.0
216,182.87218532500003,182.981941225,80.0,112.0
217,183.23803832500002,183.92706147500002,80.0,127.0
218,183.96974432500002,184.41029231250002,78.0,122.0
219,184.70145032500002,185.08407158750003,75.0,117.0
220,185.43315632500003,185.83407023750004,73.0,117.0
221,186.16486232500003,187.19839705000004,71.0,100.0
222,187.628274325,187.74565216250002,71.0,89.0
223,187.81120082500001,187.9011396875,73.0,100.0
224,187.99412732500002,188.31272431250002,75.0,122.0
225,188.35998032500004,188.78376005,73.0,102.0
226,189.091686325,189.81729477500002,71.0,102.0
227,190.18924532500003,190.34015968750003,71.0,100.0
228,190.55509832500002,190.67400055000002,80.0,107.0
229,190.92095132500003,191.14351190000002,80.0,127.0
230,191.28680432500002,191.57338917500002,78.0,117.0
231,192.01851032500002,192.67704572500003,75.0,117.0
232,192.75021632500003,192.94686231250003,75.0,122.0
233,193.116069325,193.24869103750004,73.0,127.0
234,193.48192232500003,193.7182023875,71.0,95.0
235,193.84777532500001,194.1206406875,73.0,112.0
236,194.21362832500003,194.32033545000002,73.0,127.0
237,194.57948132500002,194.77917608750002,73.0,127.0
238,194.94533432500003,195.05661461250003,73.0,127.0
239,195.128260825,195.22734601250002,71.0,92.0
240,195.31118732500002,195.55661371250002,71.0,102.0
241,195.67704032500004,195.97429588750003,68.0,112.0
242,196.40874632500004,196.89350155000002,80.0,127.0
243,197.140452325,197.34929341250003,78.0,122.0
244,197.50630532500003,197.71362202500003,78.0,112.0
245,197.87215832500002,198.71209583750002,73.0,117.0
246,199.33557032500002,199.45142377500002,71.0,97.0
247,199.51849682500003,199.62063078750003,73.0,107.0
248,199.70142332500004,199.98191062500004,75.0,122.0
249,200.06727632500002,200.48495850000003,78.0,127.0
250,200.79898232500003,201.24410347500003,78.0,127.0
251,201.53068832500003,201.72428553750004,78.0,122.0
252,201.89654132500002,202.10080925000003,78.0,127.0
253,202.26239432500003,202.44074766250003,75.0,127.0
254,202.62824732500002,202.79897872500004,75.0,122.0
255,202.99410032500003,203.19989263750003,82.0,127.0
256,203.35995332500002,203.555074925,82.0,127.0
257,203.72580632500004,204.27611021250001,83.0,127.0
258,204.45751232500004,204.86757256250002,82.0,127.0
259,205.55507132500003,205.86147321250002,83.0,122.0
260,205.92092432500002,206.16939948750002,82.0,127.0
261,206.28677732500003,206.51543545000004,82.0,122.0
262,206.65263032500002,206.81421540000002,80.0,112.0
263,207.01848332500003,207.21055615000003,80.0,117.0
264,207.38433632500002,207.75476248750002,82.0,127.0
265,208.11604232500002,208.68006570000003,83.0,127.0
266,208.84774832500003,209.07793083750002,82.0,127.0
267,209.21360132500004,209.41329608750002,82.0,122.0
268,209.57945432500003,210.53676967500002,80.0,122.0
269,211.04286632500003,211.13737835000003,80.0,122.0
270,211.22579282500004,211.32487801250002,82.0,112.0
271,211.40871932500002,211.69377978750003,83.0,112.0
272,211.77457232500004,212.29743723750002,82.0,127.0
273,212.50627832500004,213.32335002500002,80.0,122.0
274,213.60383732500003,213.88584901250002,80.0,127.0
275,213.96969032500002,214.14804366250002,78.0,100.0
276,214.33554332500003,214.56267706250003,78.0,117.0
277,214.70139632500002,214.98950556250003,80.0,117.0
278,215.43310232500002,216.15718638750002,75.0,122.0
279,216.16480832500002,216.46816143750002,75.0,122.0
280,216.53066132500004,216.77303893750002,73.0,112.0
281,216.89651432500003,217.22425763750002,71.0,102.0
282,217.26236732500004,217.47730596250003,73.0,122.0
283,217.62822032500003,217.79895172500002,73.0,117.0
284,217.99407332500002,218.25626797500004,73.0,122.0
285,218.35992632500003,218.85077910000004,80.0,127.0
286,219.09163232500003,219.81571638750003,78.0,127.0
287,219.82333832500004,220.24864243750002,80.0,122.0
288,220.55504432500004,222.17241946250002,73.0,127.0
289,222.75016232500002,222.93004005000003,73.0,127.0
290,222.93308882500003,223.10686900000002,75.0,100.0
291,223.11601532500003,223.32638080000004,73.0,127.0
292,223.48186832500002,223.78827021250004,71.0,122.0
293,224.21357432500002,226.50625312500003,71.0,107.0
294,227.14039832500004,227.60076335000002,75.0,117.0
295,227.87210432500004,228.41173750000004,78.0,127.0
296,228.60381032500004,230.99404992500004,80.0,127.0
297,232.99404632500003,233.37819197500002,78.0,122.0
298,233.72575232500003,234.17544663750004,75.0,127.0
299,234.45745832500003,234.96203058750004,73.0,127.0
300,235.18916432500004,238.19068331250003,71.0,117.0
