,start,end,pitch,velocity
0,1.355568925,1.82986505,59.0,83.0
1,0.6211749249999999,3.26193335,52.0,76.0
2,0.9883719249999999,3.48225155,54.0,89.0
3,1.722765925,3.8479185625,66.0,112.0
4,4.293144925,4.68176175,59.0,97.0
5,3.558750925,5.67319365,52.0,85.0
6,3.925947925,5.7848827375,54.0,86.0
7,4.660341925,6.4626672,66.0,117.0
8,7.230720925,7.63157765,61.0,112.0
9,6.496326925,8.889227374999999,51.0,102.0
10,6.863523925,9.0498760625,54.0,92.0
11,7.597917925,9.7628502375,66.0,117.0
12,10.168296925,10.547733825,61.0,112.0
13,10.535493924999999,12.30721945,66.0,122.0
14,9.801099924999999,12.3332292375,54.0,86.0
15,9.433902925,12.3393491875,51.0,99.0
16,13.105872925,13.564869175,61.0,102.0
17,12.371478925,15.1820659625,49.0,99.0
18,12.738675924999999,15.260095325,54.0,102.0
19,13.473069924999999,15.74663135,66.0,112.0
20,16.043448925,16.406055962499998,61.0,100.0
21,15.676251924999999,18.2741707,54.0,92.0
22,15.309054925,18.2848806125,49.0,100.0
23,16.410645925,18.2940605375,66.0,117.0
24,19.348221925,20.829249824999998,64.0,102.0
25,18.246630924999998,20.994488475,42.0,86.0
26,18.613827925,21.012848325,49.0,100.0
27,18.981024925,21.0296781875,54.0,97.0
28,21.184206924999998,23.387388925,42.0,62.0
29,21.184206924999998,23.387388925,49.0,55.0
30,21.184206924999998,23.387388925,54.0,66.0
31,21.184206924999998,23.387388925,58.0,97.0
32,21.184206924999998,23.387388925,61.0,112.0
33,24.856176925,25.7282698,59.0,86.0
34,24.121782924999998,26.9752096125,47.0,85.0
35,24.488979925,27.151158175,54.0,61.0
36,25.957767925,27.1741079875,59.0,82.0
37,25.223373925,27.8564824125,78.0,112.0
38,25.590570924999998,27.8626023625,75.0,122.0
39,26.692161925,27.9298378125,71.0,61.0
40,26.324964925,28.006057187499998,73.0,85.0
41,27.793752925,28.6950803375,59.0,95.0
42,28.891726325,29.8627611625,59.0,61.0
43,29.257579325,29.9816633875,73.0,97.0
44,28.525873325,29.9969072625,75.0,122.0
45,27.426555925,29.99843165,54.0,66.0
46,27.059358924999998,30.01062675,47.0,83.0
47,28.160020325,30.0121511375,78.0,107.0
48,29.623432325,30.074651025,71.0,76.0
49,31.086844325,31.4847094625,75.0,97.0
50,30.720991325,31.6097092375,56.0,96.0
51,31.452697325,31.813977162500002,71.0,86.0
52,32.001476825,32.1508668,71.0,24.0
53,32.184403325,32.5944635625,70.0,96.0
54,29.989285325,32.781963225,44.0,89.0
55,30.355138325,32.9359263625,51.0,68.0
56,32.550256325,33.03345945625,71.0,65.0
57,31.818550325,33.06073219375,56.0,77.0
58,33.64406574583333,34.43649028541667,56.0,62.0
59,34.007702245833336,34.998611708333335,71.0,81.0
60,34.73497524583333,35.43346035625,56.0,92.0
61,35.09861174583333,35.481945222916664,70.0,112.0
62,33.28042924583333,35.55921797916667,51.0,71.0
63,32.916109325,35.650127104166664,44.0,77.0
64,35.46224824583334,35.8925514375,71.0,92.0
65,36.91679424583333,37.44255201875,64.0,82.0
66,36.55315774583333,37.46073384375,52.0,78.0
67,37.644067245833334,37.96376433541667,52.0,55.0
68,35.825884745833335,38.5470978875,40.0,86.0
69,36.18952124583333,38.7834616125,47.0,55.0
70,38.00770374583333,39.248613302083335,68.0,96.0
71,38.37134024583334,39.71528014375,66.0,73.0
72,37.280430745833335,39.79406805208333,71.0,99.0
73,39.46224974583333,40.4198258625,52.0,81.0
74,39.82588624583333,40.61528048125,64.0,76.0
75,38.734976745833336,41.23649283541667,40.0,79.0
76,40.91679574583333,41.32134135208334,66.0,88.0
77,40.553159245833335,41.38800804375,52.0,56.0
78,39.098613245833334,41.41831108541667,47.0,48.0
79,40.18952274583334,41.733462718750005,71.0,107.0
80,41.28043224583333,41.844068820833336,68.0,89.0
81,42.73497824583333,43.17437235,66.0,97.0
82,42.007705245833336,43.300129972916665,54.0,89.0
83,42.371341745833334,43.463766397916665,61.0,85.0
84,41.64406874583334,44.39558492916667,42.0,93.0
85,43.462251245833336,44.56073650625,49.0,27.0
86,43.462251245833336,45.04558517291667,54.0,55.0
87,44.18952424583333,45.54861566458334,61.0,49.0
88,43.09861474583333,45.67740359166667,70.0,99.0
89,43.825887745833334,45.722858154166666,66.0,88.0
90,45.280433745833335,46.1975717625,54.0,78.0
91,45.64407024583333,46.5466565,61.0,53.0
92,44.91679724583334,46.7798877875,49.0,42.0
93,44.55316074583334,46.821046249999995,42.0,81.0
94,46.00770674583333,46.830192575,70.0,100.0
95,46.372876325,46.93080215,54.0,72.0
96,47.104582324999996,47.23567965,66.0,63.0
97,46.738729325,47.5710449,68.0,72.0
98,48.202141325,48.680799,59.0,78.0
99,48.567994325,48.970432625,63.0,96.0
100,47.836288325,49.067993425,54.0,53.0
101,48.933847325,49.7463458625,66.0,117.0
102,47.470435325,50.220430375,47.0,79.0
103,49.665553325,50.241771799999995,63.0,79.0
104,50.031406325,50.311893624999996,66.0,56.0
105,49.299700324999996,50.4170763625,54.0,68.0
106,51.128965324999996,51.9719516125,59.0,82.0
107,52.226524325,52.622865075,59.0,90.0
108,51.860671325,52.622865075,75.0,122.0
109,50.763112325,52.72347465,54.0,58.0
110,50.397259325,52.7432916875,47.0,71.0
111,52.592377325,53.0542667375,73.0,127.0
112,52.958230325,53.4856684,75.0,92.0
113,51.494818325,53.4902415625,78.0,117.0
114,53.324083325,53.58932675,71.0,74.0
115,54.421642325,54.8591415375,63.0,122.0
116,53.689936325,55.0054827375,56.0,92.0
117,54.055789325,55.3774332875,59.0,75.0
118,53.324083325,56.1091392875,44.0,95.0
119,55.153348324999996,56.3286510875,56.0,64.0
120,55.885054325,56.4627971875,59.0,75.0
121,55.519201325,56.49176055,63.0,107.0
122,54.787495325,56.5710287,68.0,112.0
123,57.348466325000004,57.7539534,63.0,112.0
124,56.616760325,57.8682824625,56.0,100.0
125,56.982613325,58.2280379125,59.0,82.0
126,58.080172325,58.2798670875,56.0,96.0
127,56.250907325,58.531391025,44.0,86.0
128,58.446025325,59.2097434625,63.0,127.0
129,58.811878325,59.214316625,59.0,92.0
130,57.714319325,59.2493775375,68.0,102.0
131,59.91707942916667,60.821400733333334,52.0,99.0
132,61.02819092916667,61.37849969375,52.0,73.0
133,60.28744992916667,61.44022811041667,59.0,85.0
134,59.177731324999996,61.93714186458334,40.0,82.0
135,59.54670892916667,62.18096911041667,47.0,72.0
136,61.76893192916667,62.988254775,59.0,89.0
137,60.65782042916667,63.107157,68.0,117.0
138,61.39856142916667,63.274839625000006,64.0,97.0
139,62.872401325000006,63.802277700000005,52.0,85.0
140,63.238254325,64.2534964,59.0,70.0
141,62.13930242916667,64.2778866,40.0,88.0
142,63.969960325,64.2900817,52.0,69.0
143,62.506548325000004,64.3342889375,47.0,63.0
144,64.335813325,65.0263608625,64.0,97.0
145,63.604107325,65.037031575,68.0,117.0
146,64.701666325,65.049226675,59.0,79.0
147,66.165078325,66.56904101250001,61.0,96.0
148,65.79922532500001,66.6422116125,54.0,97.0
149,65.067519325,67.84495335,42.0,85.0
150,67.628490325,68.0050140375,58.0,79.0
151,65.43337232500001,68.0080628125,49.0,72.0
152,67.262637325,68.043123725,61.0,100.0
153,66.530931325,68.085806575,66.0,122.0
154,66.896784325,68.50348875,54.0,66.0
155,68.360196325,70.14372970000001,49.0,30.0
156,68.726049325,70.2214734625,54.0,63.0
157,67.994343325,70.2519612125,42.0,78.0
158,69.091902325,70.2580587625,73.0,93.0
159,70.921167325,71.201654625,59.0,90.0
160,70.921167325,71.2123253375,63.0,112.0
161,70.921167325,71.2412887,66.0,107.0
162,71.652873325,71.74128780000001,71.0,72.0
163,71.652873325,71.768726775,75.0,112.0
164,71.652873325,71.7854950375,78.0,97.0
165,72.018726325,72.4714694125,59.0,63.0
166,71.287020325,72.6025667375,54.0,85.0
167,72.384579325,72.9745172875,66.0,112.0
168,72.384579325,72.9928099375,63.0,127.0
169,72.933358825,73.24280948750001,54.0,44.0
170,70.921167325,73.2946386625,47.0,89.0
171,73.116285325,73.427260375,63.0,127.0
172,73.116285325,73.4486018,66.0,117.0
173,73.48213832500001,73.52939433750001,59.0,74.0
174,73.84799132500001,74.14982005,67.0,100.0
175,73.84799132500001,74.2656735,70.0,102.0
176,73.84799132500001,74.408965925,63.0,112.0
177,74.57969732500001,75.00957460000001,67.0,102.0
178,74.57969732500001,75.0629281625,70.0,107.0
179,74.57969732500001,75.19707426250001,63.0,97.0
180,74.945550325,75.4501225875,58.0,33.0
181,75.311403325,75.713841625,67.0,66.0
182,75.311403325,75.75195131250001,70.0,69.0
183,75.311403325,75.78701222500001,63.0,63.0
184,74.213844325,75.91963393750001,55.0,30.0
185,75.677256325,75.9470729125,58.0,55.0
186,73.84799132500001,75.9851826,51.0,78.0
187,76.043109325,76.3144503,67.0,112.0
188,76.043109325,76.3312185625,70.0,122.0
189,76.774815325,77.3144485,63.0,99.0
190,76.774815325,77.3251192125,59.0,93.0
191,77.14066832500001,77.524813975,56.0,74.0
192,76.774815325,77.7580452625,44.0,112.0
193,77.50652132500001,77.8220695375,63.0,127.0
194,77.87237432500001,78.0217643,59.0,89.0
195,78.23822732500001,78.707738675,61.0,117.0
196,78.23822732500001,78.787006825,58.0,112.0
197,78.60408032500001,78.86779936250001,54.0,90.0
198,78.23822732500001,79.16353053750001,42.0,100.0
199,78.969933325,79.17420125000001,61.0,112.0
200,78.969933325,79.204689,58.0,112.0
201,79.701639325,80.30834555000001,59.0,99.0
202,79.701639325,80.32206503750001,56.0,117.0
203,79.701639325,80.48669888750001,53.0,96.0
204,80.067492325,80.58425968750001,48.0,62.0
205,80.433345325,81.0827344,59.0,79.0
206,80.433345325,81.09188072500001,56.0,89.0
207,80.799198325,81.9470621125,48.0,56.0
208,79.701639325,81.97754986250001,41.0,76.0
209,81.16505132500001,82.01261077500001,53.0,73.0
210,81.16505132500001,82.0568180125,56.0,72.0
211,81.16505132500001,82.06291556250001,59.0,69.0
212,82.62846332500001,82.74736555000001,52.0,86.0
213,82.62846332500001,82.7549874875,56.0,93.0
214,82.62846332500001,82.7656582,59.0,92.0
215,83.360169325,83.76718078750001,68.0,96.0
216,83.360169325,83.866265975,64.0,97.0
217,83.360169325,83.96992432500001,59.0,93.0
218,83.726022325,84.35711875000001,52.0,72.0
219,84.091875325,84.646752375,64.0,66.0
220,84.091875325,84.65132553750001,59.0,54.0
221,84.091875325,84.65132553750001,68.0,59.0
222,84.457728325,84.83120326250001,52.0,59.0
223,82.62846332500001,84.896751925,40.0,82.0
224,84.823581325,84.945532325,68.0,97.0
225,84.823581325,84.9470567125,64.0,95.0
226,83.17724282500001,84.96382497500001,47.0,23.0
227,84.823581325,85.01870292500001,59.0,92.0
228,85.55528732500001,85.92876226250002,63.0,88.0
229,85.55528732500001,85.9409573625,66.0,92.0
230,85.55528732500001,86.1177863125,58.0,89.0
231,86.28699332500001,86.68028530000001,66.0,96.0
232,86.28699332500001,86.8830288375,63.0,97.0
233,86.28699332500001,86.89065077500001,58.0,93.0
234,85.92114032500001,87.238211125,51.0,85.0
235,87.018699325,87.49278383750001,58.0,73.0
236,87.018699325,87.5019301625,66.0,95.0
237,87.018699325,87.60101535000001,63.0,99.0
238,87.38455232500002,87.74735655,51.0,70.0
239,86.65284632500001,87.81442960000001,46.0,33.0
240,85.55528732500001,87.88760020000001,39.0,92.0
241,87.750405325,88.02479507500001,63.0,112.0
242,87.750405325,88.07509986250001,66.0,102.0
243,88.116258325,88.1848557625,58.0,93.0
244,88.482111325,88.8525374875,64.0,90.0
245,88.482111325,88.8754033,68.0,93.0
246,88.482111325,89.02479327500001,61.0,99.0
247,88.847964325,89.37845117500001,49.0,70.0
248,89.21381732500001,89.61473123750001,64.0,88.0
249,89.21381732500001,89.6360726625,68.0,89.0
250,88.482111325,89.701621325,37.0,96.0
251,89.57967032500001,89.73363346250001,49.0,55.0
252,89.21381732500001,89.73515785000001,61.0,96.0
253,89.94552332500001,90.104059625,64.0,95.0
254,89.94552332500001,90.33576652500001,68.0,99.0
255,90.31137632500001,90.37235182500001,64.0,1.0
256,89.94552332500001,90.47905895000001,61.0,99.0
257,89.94552332500001,90.78546083750001,37.0,79.0
258,89.94552332500001,90.78546083750001,49.0,90.0
259,90.67722932500001,90.96076540000001,64.0,107.0
260,90.67722932500001,91.02326528750001,68.0,117.0
261,91.043082325,91.06899691250001,61.0,65.0
262,91.40893532500002,91.8189955625,61.0,122.0
263,91.40893532500002,92.0263122625,58.0,127.0
264,91.774788325,92.2458240625,54.0,67.0
265,91.40893532500002,92.317470275,42.0,112.0
266,92.140641325,92.35100680000001,61.0,95.0
267,92.140641325,92.36777506250002,58.0,102.0
268,92.506494325,92.67417695,58.0,82.0
269,92.506494325,92.6878964375,54.0,92.0
270,92.506494325,92.6878964375,61.0,77.0
271,92.506494325,92.756493875,42.0,88.0
272,92.872347325,93.2656393,58.0,127.0
273,92.872347325,93.4074073375,61.0,117.0
274,92.872347325,93.4196024375,54.0,117.0
275,92.872347325,93.5171632375,42.0,117.0
276,93.60405332500001,93.66960198750002,58.0,127.0
277,93.60405332500001,93.6817970875,49.0,93.0
278,93.60405332500001,93.689419025,61.0,107.0
279,94.335759325,94.78850241250001,66.0,99.0
280,94.335759325,94.87691688750002,59.0,92.0
281,94.335759325,94.89520953750001,63.0,112.0
282,94.70161232500001,95.2763064125,54.0,56.0
283,95.067465325,95.60404972500001,66.0,92.0
284,95.067465325,95.62996431250001,59.0,88.0
285,95.067465325,95.63606186250001,63.0,97.0
286,95.43331832500002,95.9622807875,54.0,42.0
287,95.799171325,96.33880450000001,59.0,73.0
288,95.799171325,96.35099960000001,66.0,73.0
289,95.799171325,96.36167031250001,63.0,69.0
290,96.16502432500002,96.4714262125,54.0,97.0
291,94.335759325,96.4775237625,47.0,86.0
292,96.530877325,96.84490115,63.0,127.0
293,96.530877325,96.89520593750001,66.0,117.0
294,96.89673032500001,96.95160827500001,59.0,90.0
295,97.26258332500001,97.384534325,51.0,58.0
296,97.26258332500001,97.64977775,70.0,93.0
297,97.26258332500001,97.66502162500001,67.0,92.0
298,97.26258332500001,97.80221650000001,63.0,100.0
299,97.99428932500001,98.3433740625,67.0,99.0
300,97.99428932500001,98.37233742500001,70.0,95.0
301,97.99428932500001,98.591849225,63.0,97.0
302,97.26258332500001,98.71075145,39.0,96.0
303,98.360142325,98.780873275,51.0,55.0
304,98.72599532500001,99.01258017500001,63.0,95.0
305,98.72599532500001,99.17873841250001,67.0,99.0
306,98.72599532500001,99.2168481,70.0,97.0
307,99.45770132500002,99.524774375,51.0,59.0
308,99.45770132500002,99.53544508750001,67.0,107.0
309,99.45770132500002,99.55983528750001,58.0,100.0
310,99.45770132500002,99.561359675,70.0,107.0
311,99.45770132500002,99.60556691250001,63.0,102.0
312,100.18940732500002,100.4775165625,63.0,96.0
313,100.18940732500002,100.73818682500001,56.0,112.0
314,100.18940732500002,100.73971121250001,59.0,100.0
315,100.92111332500001,100.99428392500002,59.0,99.0
316,100.92111332500001,101.0095278,63.0,96.0
317,100.92111332500001,101.02629606250001,56.0,97.0
318,100.18940732500002,101.06745452500002,44.0,117.0
319,101.28696632500001,101.63147790000001,44.0,85.0
320,101.65281932500001,101.8098312375,58.0,96.0
321,101.65281932500001,101.81288001250002,61.0,88.0
322,101.65281932500001,101.82050195000001,54.0,100.0
323,102.38452532500001,102.47751296250001,66.0,100.0
324,102.38452532500001,102.48513490000002,70.0,96.0
325,102.38452532500001,102.4958056125,61.0,96.0
326,101.65281932500001,102.50190316250001,42.0,117.0
327,102.38452532500001,102.50342755000001,54.0,69.0
328,103.116231325,103.707693675,65.0,90.0
329,103.116231325,103.7214131625,71.0,96.0
330,103.116231325,103.73513265000001,68.0,107.0
331,103.847937325,103.91501037500001,71.0,85.0
332,103.847937325,103.94092496250002,65.0,88.0
333,103.847937325,103.94092496250002,68.0,102.0
334,104.21379032500002,104.3799485625,53.0,66.0
335,103.48208432500002,105.31134932500001,48.0,57.0
336,103.116231325,105.38147115000001,41.0,75.0
337,104.579643325,105.43025155000001,53.0,93.0
338,104.579643325,105.4683612375,56.0,99.0
339,104.579643325,105.48360511250002,59.0,90.0
340,106.04305532500001,106.13909173750001,52.0,89.0
341,106.04305532500001,106.15281122500001,56.0,97.0
342,106.04305532500001,106.16653071250002,59.0,95.0
343,106.77476132500001,107.40280897500001,68.0,102.0
344,106.77476132500001,107.41652846250001,59.0,95.0
345,106.77476132500001,107.43329672500002,64.0,99.0
346,107.140614325,107.77018636250001,52.0,68.0
347,107.50646732500002,108.02018591250001,59.0,69.0
348,107.50646732500002,108.04457611250001,68.0,66.0
349,107.50646732500002,108.061344375,64.0,66.0
350,107.872320325,108.29000250000001,52.0,61.0
351,106.40890832500001,108.32506341250001,47.0,60.0
352,108.23817332500002,108.34030728750001,59.0,95.0
353,108.23817332500002,108.34183167500001,64.0,97.0
354,106.04305532500001,108.36164871250001,40.0,78.0
355,108.23817332500002,108.36317310000001,68.0,102.0
356,108.96987932500001,109.29914702500001,70.0,93.0
357,108.96987932500001,109.4851223,63.0,97.0
358,108.96987932500001,109.50951250000001,66.0,112.0
359,109.33573232500001,109.79914612500002,51.0,64.0
360,109.70158532500001,110.26103553750002,70.0,117.0
361,110.06743832500001,110.61012027500001,51.0,76.0
362,109.70158532500001,110.79609555000002,66.0,127.0
363,110.43329132500001,111.0079854125,63.0,102.0
364,110.79914432500001,111.06286336250001,51.0,92.0
365,108.96987932500001,111.27780200000001,39.0,112.0
366,111.164997325,111.48816747500001,66.0,127.0
367,111.164997325,111.48816747500001,70.0,107.0
368,111.53085032500002,111.63145990000001,63.0,72.0
369,111.896703325,112.02322748750001,64.0,93.0
370,111.896703325,112.225971025,68.0,99.0
371,111.896703325,112.39822681250001,61.0,100.0
372,112.26255632500002,112.79609195,49.0,71.0
373,112.628409325,113.14670107500001,68.0,97.0
374,112.628409325,113.17109127500001,64.0,95.0
375,111.896703325,113.24273748750001,37.0,97.0
376,112.99426232500001,113.26712768750002,49.0,68.0
377,113.36011532500001,113.52932233750002,64.0,93.0
378,113.36011532500001,113.72139516250002,68.0,97.0
379,113.36011532500001,113.88145585000001,61.0,97.0
380,113.36011532500001,114.20767477500002,37.0,78.0
381,114.09182132500001,114.21072355000001,64.0,102.0
382,114.09182132500001,114.26407711250002,68.0,112.0
383,113.36011532500001,114.35249158750001,49.0,88.0
384,114.82352732500001,115.29913622500001,58.0,117.0
385,114.82352732500001,115.56895281250002,61.0,102.0
386,115.55523332500002,115.89364735000001,58.0,102.0
387,115.921086325,115.98511060000001,61.0,88.0
388,115.189380325,116.1451712875,54.0,93.0
389,114.82352732500001,116.17565903750001,42.0,100.0
390,116.28693932500002,116.99425512500001,54.0,83.0
391,116.28693932500002,117.03541358750002,61.0,90.0
392,116.28693932500002,117.05065746250001,66.0,96.0
393,116.28693932500002,117.06742572500002,70.0,93.0
394,116.28693932500002,117.19090111250001,42.0,75.0
395,117.75035132500001,117.98968016250001,68.0,90.0
396,117.75035132500001,117.99577771250001,71.0,81.0
397,117.75035132500001,118.01864352500002,64.0,82.0
398,118.84791032500002,118.92870286250002,56.0,95.0
399,118.48205732500001,120.183273775,52.0,76.0
400,117.75035132500001,120.18632255000001,40.0,76.0
401,118.11620432500001,120.21376152500001,47.0,64.0
402,119.213763325,120.561321875,59.0,66.0
403,119.945469325,120.64059002500002,68.0,71.0
404,119.57961632500002,120.64821196250001,64.0,63.0
405,121.40888132500001,121.83418543750001,63.0,90.0
406,121.77473432500001,122.19394088750002,66.0,88.0
407,121.04302832500002,122.408879525,51.0,68.0
408,122.50644032500001,122.73357406250001,51.0,39.0
409,120.67717532500001,122.88753720000001,39.0,93.0
410,122.87229332500002,122.96070780000002,66.0,112.0
411,122.14058732500001,122.9652809625,70.0,112.0
412,123.60399932500002,123.67869431250001,37.0,93.0
413,123.60399932500002,125.16039896250001,61.0,90.0
414,124.70155832500001,125.32198403750002,56.0,67.0
415,124.33570532500002,125.71222723750002,52.0,38.0
416,125.43326432500001,125.73204427500002,56.0,54.0
417,123.969852325,125.86619037500002,49.0,72.0
418,125.06741132500002,125.87076353750001,68.0,89.0
419,125.79911732500001,125.90125128750002,64.0,58.0
420,126.53082332500001,128.11466193750002,54.0,92.0
421,126.53082332500001,128.11466193750002,58.0,72.0
422,126.53082332500001,128.1207594875,64.0,57.0
423,126.53082332500001,128.1451496875,61.0,57.0
424,126.53082332500001,128.44697841250002,42.0,72.0
425,129.457647325,129.95154887500001,59.0,78.0
426,129.457647325,130.23356056250003,70.0,82.0
427,129.457647325,130.28081657500002,63.0,95.0
428,129.457647325,130.35856033750002,66.0,89.0
429,130.189353325,130.42410900000002,59.0,59.0
430,129.823500325,131.13142480000002,54.0,82.0
431,130.55520632500003,131.3646560875,70.0,88.0
432,130.55520632500003,131.3890462875,63.0,102.0
433,130.55520632500003,131.45459495,59.0,86.0
434,130.55520632500003,131.46526566250003,66.0,96.0
435,131.65276532500002,132.1192279,70.0,107.0
436,129.457647325,132.2289838,47.0,72.0
437,131.65276532500002,132.23050818750002,63.0,127.0
438,131.65276532500002,132.2457520625,66.0,107.0
439,132.01861832500003,132.27776420000004,59.0,62.0
440,131.286912325,132.36160551250003,54.0,67.0
441,132.38447132500002,132.72745851250002,70.0,88.0
442,132.38447132500002,132.7335560625,59.0,89.0
443,132.38447132500002,132.96831173750002,63.0,107.0
444,132.38447132500002,133.268616075,66.0,93.0
445,133.11617732500002,133.2945306625,59.0,82.0
446,132.750324325,133.93782218750002,54.0,99.0
447,133.482030325,134.3798945625,63.0,117.0
448,133.482030325,134.4073335375,70.0,93.0
449,133.482030325,134.4164798625,66.0,107.0
450,133.482030325,134.43019935,59.0,97.0
451,134.213736325,134.58568687500002,54.0,75.0
452,132.38447132500002,134.65580870000002,47.0,82.0
453,134.57958932500003,134.814345,70.0,89.0
454,134.57958932500003,134.829588875,63.0,122.0
455,134.57958932500003,134.835686425,66.0,107.0
456,135.311295325,135.71373362500003,58.0,107.0
457,135.311295325,135.7183067875,66.0,97.0
458,135.311295325,135.732026275,63.0,102.0
459,135.67714832500002,136.29604965000001,51.0,51.0
460,136.04300132500003,136.30214720000004,58.0,82.0
461,136.40885432500002,136.95153627500002,51.0,63.0
462,136.40885432500002,137.06586533750001,63.0,117.0
463,136.40885432500002,137.30976733750003,66.0,102.0
464,136.40885432500002,137.353974575,58.0,96.0
465,137.14056032500002,137.66799840000002,51.0,59.0
466,137.506413325,138.06586353750004,66.0,112.0
467,135.311295325,138.073485475,39.0,92.0
468,137.506413325,138.12836342500003,63.0,112.0
469,137.872266325,138.146656075,58.0,66.0
470,136.225927825,138.152753625,46.0,21.0
471,137.872266325,138.17257066250002,51.0,36.0
472,138.238119325,139.0414715375,66.0,96.0
473,138.238119325,139.07195928750002,63.0,99.0
474,138.238119325,139.1024470375,58.0,102.0
475,138.238119325,139.75945805000003,51.0,92.0
476,139.335678325,140.10092085000002,66.0,99.0
477,139.335678325,140.19085971250001,58.0,99.0
478,139.335678325,140.19238410000003,63.0,107.0
479,138.78689882500004,140.2731766375,46.0,22.0
480,140.06738432500003,140.39360325,51.0,72.0
481,138.238119325,140.44695681250002,39.0,76.0
482,140.43323732500002,140.5231761875,63.0,127.0
483,140.43323732500002,140.52927373750003,66.0,122.0
484,141.16494332500002,141.2945162625,64.0,97.0
485,141.16494332500002,141.9439053375,68.0,107.0
486,141.16494332500002,141.9530516625,61.0,100.0
487,141.530796325,141.96981992500002,64.0,16.0
488,142.262502325,142.38292893750003,64.0,83.0
489,141.896649325,142.90579385,49.0,90.0
490,142.262502325,143.04908627500004,68.0,102.0
491,142.262502325,143.1146349375,61.0,102.0
492,143.360061325,143.60396332500002,64.0,112.0
493,142.99420832500002,143.83414583750002,49.0,71.0
494,141.16494332500002,143.89512133750003,37.0,90.0
495,143.360061325,143.92408470000004,68.0,127.0
496,143.72591432500002,144.61158346250002,61.0,78.0
497,144.823473325,145.02011931250001,61.0,69.0
498,145.18932632500002,145.29603345,64.0,99.0
499,144.09176732500003,145.719813175,49.0,100.0
500,145.555179325,145.9713371125,64.0,19.0
501,145.18932632500002,146.01097118750002,68.0,117.0
502,145.18932632500002,146.06432475000003,61.0,112.0
503,144.09176732500003,146.10853198750002,37.0,89.0
504,145.921032325,146.2167635,49.0,72.0
505,146.28688532500001,146.3341413375,68.0,42.0
506,146.28688532500001,146.42255581250004,61.0,117.0
507,147.01859132500002,147.13139600000002,58.0,112.0
508,147.01859132500002,147.5871878625,61.0,99.0
509,147.201517825,147.63901703750003,58.0,23.0
510,147.01859132500002,147.81737037500002,54.0,99.0
511,147.75029732500002,147.83566302500003,58.0,27.0
512,147.75029732500002,147.92560188750002,61.0,59.0
513,147.01859132500002,148.71828338750004,42.0,112.0
514,148.11615032500004,148.7975515375,61.0,96.0
515,148.11615032500004,148.98200242500002,58.0,107.0
516,148.11615032500004,149.012490175,54.0,99.0
517,148.847856325,149.43017235000002,42.0,74.0
518,149.21370932500002,149.57651355000002,58.0,122.0
519,149.21370932500002,149.61309885000003,61.0,107.0
520,149.579562325,149.89358615000003,42.0,93.0
521,149.945415325,152.83108086250002,58.0,107.0
522,149.945415325,152.86156861250004,54.0,97.0
523,149.945415325,152.86156861250004,61.0,95.0
524,149.945415325,152.8707149375,66.0,93.0
525,149.945415325,152.872239325,42.0,90.0
526,153.603945325,154.082603,59.0,78.0
527,153.969798325,154.37223662500003,63.0,96.0
528,153.23809232500003,154.46979742500002,54.0,53.0
529,154.33565132500001,155.14814986250002,66.0,117.0
530,152.872239325,155.622234375,47.0,79.0
531,155.06735732500002,155.6435758,63.0,79.0
532,155.433210325,155.713697625,66.0,56.0
533,154.70150432500003,155.8188803625,54.0,68.0
534,156.53076932500002,157.37375561250002,59.0,82.0
535,157.628328325,158.02466907500002,59.0,90.0
536,157.26247532500003,158.02466907500002,75.0,122.0
537,156.16491632500004,158.12527865,54.0,58.0
538,155.79906332500002,158.14509568750003,47.0,71.0
539,157.994181325,158.4560707375,73.0,127.0
540,158.36003432500002,158.88747240000004,75.0,92.0
541,156.896622325,158.89204556250002,78.0,117.0
542,158.72588732500003,158.99113075000002,71.0,74.0
543,159.82344632500002,160.26094553750002,63.0,122.0
544,159.09174032500002,160.40728673750002,56.0,92.0
545,159.457593325,160.77923728750002,59.0,75.0
546,158.72588732500003,161.51094328750003,44.0,95.0
547,160.55515232500002,161.73045508750002,56.0,64.0
548,161.28685832500003,161.8646011875,59.0,75.0
549,160.921005325,161.89356455,63.0,107.0
550,160.18929932500004,161.97283270000003,68.0,112.0
551,162.75027032500003,163.15575740000003,63.0,112.0
552,162.018564325,163.27008646250002,56.0,100.0
553,162.38441732500002,163.6298419125,59.0,82.0
554,163.481976325,163.68167108750004,56.0,96.0
555,161.652711325,163.93319502500003,44.0,86.0
556,163.84782932500002,164.61154746250003,63.0,127.0
557,164.21368232500004,164.616120625,59.0,92.0
558,163.11612332500002,164.6511815375,68.0,102.0
559,165.31124132500003,166.2045324,52.0,99.0
560,166.40880032500002,166.75483628750004,52.0,73.0
561,165.67709432500004,166.81581178750002,59.0,85.0
562,164.57953532500002,167.30666456250003,40.0,82.0
563,164.945388325,167.54751778750003,47.0,72.0
564,167.14050632500002,168.353918775,59.0,89.0
565,166.042947325,168.472821,68.0,117.0
566,166.77465332500003,168.640503625,64.0,97.0
567,168.23806532500004,169.16794170000003,52.0,85.0
568,168.60391832500002,169.61916040000003,59.0,70.0
569,167.506359325,169.64355060000003,40.0,88.0
570,169.33562432500003,169.6557457,52.0,69.0
571,167.87221232500002,169.69995293750003,47.0,63.0
572,169.70147732500004,170.39202486250002,64.0,97.0
573,168.969771325,170.40269557500002,68.0,117.0
574,170.067330325,170.41489067500004,59.0,79.0
575,171.530742325,171.93470501250002,61.0,96.0
576,171.16488932500002,172.00787561250002,54.0,97.0
577,170.43318332500002,173.21061735,42.0,85.0
578,172.994154325,173.37067803750003,58.0,79.0
579,170.79903632500003,173.37372681250002,49.0,72.0
580,172.62830132500002,173.40878772500002,61.0,100.0
581,171.89659532500002,173.45147057500003,66.0,122.0
582,172.26244832500004,173.86915275,54.0,66.0
583,173.72586032500004,175.50939370000003,49.0,30.0
584,174.091713325,175.58713746250004,54.0,63.0
585,173.36000732500003,175.6176252125,42.0,78.0
586,174.45756632500002,175.62372276250002,73.0,93.0
587,176.28683132500004,176.56731862500004,59.0,90.0
588,176.28683132500004,176.57798933750001,63.0,112.0
589,176.28683132500004,176.60695270000002,66.0,107.0
590,177.018537325,177.10695180000002,71.0,72.0
591,177.018537325,177.13439077500004,75.0,112.0
592,177.018537325,177.1511590375,78.0,97.0
593,177.38439032500003,177.8371334125,59.0,63.0
594,176.65268432500002,177.96823073750002,54.0,85.0
595,177.75024332500004,178.3401812875,66.0,112.0
596,177.75024332500004,178.35847393750004,63.0,127.0
597,178.299022825,178.60847348750002,54.0,44.0
598,176.28683132500004,178.66030266250004,47.0,89.0
599,178.48194932500002,178.79292437500004,63.0,127.0
600,178.48194932500002,178.81426580000004,66.0,117.0
601,178.84780232500003,178.89505833750002,59.0,74.0
602,179.21365532500002,179.51548405000003,67.0,100.0
603,179.21365532500002,179.63133750000003,70.0,102.0
604,179.21365532500002,179.77462992500003,63.0,112.0
605,179.94536132500002,180.37523860000002,67.0,102.0
606,179.94536132500002,180.42859216250002,70.0,107.0
607,179.94536132500002,180.56273826250003,63.0,97.0
608,180.31121432500004,180.81578658750004,58.0,33.0
609,180.67706732500002,181.07950562500002,67.0,66.0
610,180.67706732500002,181.11761531250002,70.0,69.0
611,180.67706732500002,181.15267622500002,63.0,63.0
612,179.579508325,181.28529793750002,55.0,30.0
613,181.042920325,181.31273691250004,58.0,55.0
614,179.21365532500002,181.3508466,51.0,78.0
615,181.40877332500003,181.6801143,67.0,112.0
616,181.40877332500003,181.69688256250004,70.0,122.0
617,182.14047932500003,182.6801125,63.0,99.0
618,182.14047932500003,182.69078321250004,59.0,93.0
619,182.50633232500002,182.890477975,56.0,74.0
620,182.14047932500003,183.12370926250003,44.0,112.0
621,182.87218532500003,183.18773353750004,63.0,127.0
622,183.23803832500002,183.3874283,59.0,89.0
623,183.603891325,184.073402675,61.0,117.0
624,183.603891325,184.15267082500003,58.0,112.0
625,183.96974432500002,184.2334633625,54.0,90.0
626,183.603891325,184.52919453750002,42.0,100.0
627,184.33559732500004,184.53986525000002,61.0,112.0
628,184.33559732500004,184.570353,58.0,112.0
629,185.067303325,185.67400955000002,59.0,99.0
630,185.067303325,185.68772903750002,56.0,117.0
631,185.067303325,185.85236288750002,53.0,96.0
632,185.43315632500003,185.94992368750002,48.0,62.0
633,185.79900932500004,186.44839840000003,59.0,79.0
634,185.79900932500004,186.45754472500002,56.0,89.0
635,186.16486232500003,187.31272611250003,48.0,56.0
636,185.067303325,187.34321386250002,41.0,76.0
637,186.53071532500002,187.37827477500002,53.0,73.0
638,186.53071532500002,187.42248201250004,56.0,72.0
639,186.53071532500002,187.42857956250003,59.0,69.0
640,187.99412732500002,188.11302955000002,52.0,86.0
641,187.99412732500002,188.12065148750003,56.0,93.0
642,187.99412732500002,188.13132220000003,59.0,92.0
643,188.72583332500002,189.1328447875,68.0,96.0
644,188.72583332500002,189.231929975,64.0,97.0
645,188.72583332500002,189.335588325,59.0,93.0
646,189.091686325,189.72278275000002,52.0,72.0
647,189.45753932500003,190.01241637500004,64.0,66.0
648,189.45753932500003,190.01698953750002,59.0,54.0
649,189.45753932500003,190.01698953750002,68.0,59.0
650,189.82339232500004,190.1968672625,52.0,59.0
651,187.99412732500002,190.26241592500003,40.0,82.0
652,190.18924532500003,190.31119632500003,68.0,97.0
653,190.18924532500003,190.31272071250004,64.0,95.0
654,188.54290682500005,190.32948897500003,47.0,23.0
655,190.18924532500003,190.38436692500002,59.0,92.0
656,190.92095132500003,191.29442626250002,63.0,88.0
657,190.92095132500003,191.30662136250004,66.0,92.0
658,190.92095132500003,191.48345031250003,58.0,89.0
659,191.65265732500004,192.04594930000002,66.0,96.0
660,191.65265732500004,192.24869283750002,63.0,97.0
661,191.65265732500004,192.25631477500002,58.0,93.0
662,191.28680432500002,192.60387512500003,51.0,85.0
663,192.38436332500004,192.85844783750002,58.0,73.0
664,192.38436332500004,192.8675941625,66.0,95.0
665,192.38436332500004,192.96667935000002,63.0,99.0
666,192.75021632500003,193.11302055000002,51.0,70.0
667,192.01851032500002,193.18009360000002,46.0,33.0
668,190.92095132500003,193.25326420000002,39.0,92.0
669,193.116069325,193.39045907500002,63.0,112.0
670,193.116069325,193.44076386250003,66.0,102.0
671,193.48192232500003,193.55051976250002,58.0,93.0
672,193.84777532500001,194.21820148750004,64.0,90.0
673,193.84777532500001,194.24106730000003,68.0,93.0
674,193.84777532500001,194.39045727500002,61.0,99.0
675,194.21362832500003,194.74411517500002,49.0,70.0
676,194.57948132500002,194.98039523750003,64.0,88.0
677,194.57948132500002,195.00173666250004,68.0,89.0
678,193.84777532500001,195.06728532500003,37.0,96.0
679,194.94533432500003,195.09929746250003,49.0,55.0
680,194.57948132500002,195.10082185000002,61.0,96.0
681,195.31118732500002,195.46972362500003,64.0,95.0
682,195.31118732500002,195.70143052500003,68.0,99.0
683,195.67704032500004,195.73801582500002,64.0,1.0
684,195.31118732500002,195.84472295000003,61.0,99.0
685,195.31118732500002,196.15112483750002,37.0,79.0
686,195.31118732500002,196.15112483750002,49.0,90.0
687,196.04289332500002,196.32642940000002,64.0,107.0
688,196.04289332500002,196.38892928750002,68.0,117.0
689,196.40874632500004,196.43466091250002,61.0,65.0
690,196.77459932500003,197.18465956250003,61.0,122.0
691,196.77459932500003,197.39197626250004,58.0,127.0
692,197.140452325,197.61148806250003,54.0,67.0
693,196.77459932500003,197.68313427500001,42.0,112.0
694,197.50630532500003,197.71667080000003,61.0,95.0
695,197.50630532500003,197.73343906250003,58.0,102.0
696,197.87215832500002,198.03984095,58.0,82.0
697,197.87215832500002,198.05356043750004,54.0,92.0
698,197.87215832500002,198.05356043750004,61.0,77.0
699,197.87215832500002,198.12215787500003,42.0,88.0
700,198.23801132500003,198.6313033,58.0,127.0
701,198.23801132500003,198.77307133750003,61.0,117.0
702,198.23801132500003,198.7852664375,54.0,117.0
703,198.23801132500003,198.88282723750004,42.0,117.0
704,198.96971732500003,199.03526598750003,58.0,127.0
705,198.96971732500003,199.04746108750004,49.0,93.0
706,198.96971732500003,199.05508302500002,61.0,107.0
707,199.70142332500004,200.15416641250002,66.0,99.0
708,199.70142332500004,200.24258088750003,59.0,92.0
709,199.70142332500004,200.26087353750003,63.0,112.0
710,200.06727632500002,200.64197041250003,54.0,56.0
711,200.43312932500004,200.96971372500002,66.0,92.0
712,200.43312932500004,200.99562831250003,59.0,88.0
713,200.43312932500004,201.00172586250002,63.0,97.0
714,200.79898232500003,201.32794478750003,54.0,42.0
715,201.164835325,201.70446850000002,59.0,73.0
716,201.164835325,201.71666360000003,66.0,73.0
717,201.164835325,201.72733431250003,63.0,69.0
718,201.53068832500003,201.83709021250002,54.0,97.0
719,199.70142332500004,201.84318776250004,47.0,86.0
720,201.89654132500002,202.21056515000004,63.0,127.0
721,201.89654132500002,202.26086993750002,66.0,117.0
722,202.26239432500003,202.31727227500002,59.0,90.0
723,202.62824732500002,202.750198325,51.0,58.0
724,202.62824732500002,203.01544175000004,70.0,93.0
725,202.62824732500002,203.03068562500002,67.0,92.0
726,202.62824732500002,203.16788050000002,63.0,100.0
727,203.35995332500002,203.7090380625,67.0,99.0
728,203.35995332500002,203.73800142500002,70.0,95.0
729,203.35995332500002,203.957513225,63.0,97.0
730,202.62824732500002,204.07641545,39.0,96.0
731,203.72580632500004,204.14653727500001,51.0,55.0
732,204.09165932500002,204.37824417500002,63.0,95.0
733,204.09165932500002,204.54440241250003,67.0,99.0
734,204.09165932500002,204.58251210000003,70.0,97.0
735,204.82336532500003,204.89043837500003,51.0,59.0
736,204.82336532500003,204.90110908750003,67.0,107.0
737,204.82336532500003,204.92549928750003,58.0,100.0
738,204.82336532500003,204.92702367500002,70.0,107.0
739,204.82336532500003,204.97123091250003,63.0,102.0
740,205.55507132500003,205.84318056250004,63.0,96.0
741,205.55507132500003,206.10385082500002,56.0,112.0
742,205.55507132500003,206.10537521250004,59.0,100.0
743,206.28677732500003,206.35994792500003,59.0,99.0
744,206.28677732500003,206.37519180000004,63.0,96.0
745,206.28677732500003,206.39196006250003,56.0,97.0
746,205.55507132500003,206.43311852500003,44.0,117.0
747,206.65263032500002,206.99714190000003,44.0,85.0
748,207.01848332500003,207.17549523750003,58.0,96.0
749,207.01848332500003,207.17854401250003,61.0,88.0
750,207.01848332500003,207.18616595000003,54.0,100.0
751,207.75018932500004,207.84317696250002,66.0,100.0
752,207.75018932500004,207.85079890000003,70.0,96.0
753,207.75018932500004,207.86146961250003,61.0,96.0
754,207.01848332500003,207.86756716250002,42.0,117.0
755,207.75018932500004,207.86909155000004,54.0,69.0
756,208.48189532500004,209.07335767500004,65.0,90.0
757,208.48189532500004,209.08707716250004,71.0,96.0
758,208.48189532500004,209.10079665000004,68.0,107.0
759,209.21360132500004,209.28067437500002,71.0,85.0
760,209.21360132500004,209.30658896250003,65.0,88.0
761,209.21360132500004,209.30658896250003,68.0,102.0
762,209.57945432500003,209.7456125625,53.0,66.0
763,208.84774832500003,210.67701332500002,48.0,57.0
764,208.48189532500004,210.74713515000002,41.0,75.0
765,209.94530732500002,210.79591555000002,53.0,93.0
766,209.94530732500002,210.83402523750001,56.0,99.0
767,209.94530732500002,210.84926911250002,59.0,90.0
768,211.40871932500002,211.50475573750003,52.0,89.0
769,211.40871932500002,211.51847522500003,56.0,97.0
770,211.40871932500002,211.53219471250003,59.0,95.0
771,212.14042532500002,212.76847297500004,68.0,102.0
772,212.14042532500002,212.78219246250003,59.0,95.0
773,212.14042532500002,212.79896072500003,64.0,99.0
774,212.50627832500004,213.13585036250004,52.0,68.0
775,212.87213132500003,213.38584991250002,59.0,69.0
776,212.87213132500003,213.41024011250002,68.0,66.0
777,212.87213132500003,213.42700837500004,64.0,66.0
778,213.23798432500004,213.65566650000002,52.0,61.0
779,211.77457232500004,213.69072741250002,47.0,60.0
780,213.60383732500003,213.70597128750003,59.0,95.0
781,213.60383732500003,213.70749567500002,64.0,97.0
782,211.40871932500002,213.72731271250004,40.0,78.0
783,213.60383732500003,213.72883710000002,68.0,102.0
784,214.33554332500003,214.66481102500003,70.0,93.0
785,214.33554332500003,214.85078630000004,63.0,97.0
786,214.33554332500003,214.87517650000004,66.0,112.0
787,214.70139632500002,215.16481012500003,51.0,64.0
788,215.06724932500003,215.62669953750003,70.0,117.0
789,215.43310232500002,215.97578427500002,51.0,76.0
790,215.06724932500003,216.16175955000003,66.0,127.0
791,215.79895532500004,216.37364941250004,63.0,102.0
792,216.16480832500002,216.42852736250003,51.0,92.0
793,214.33554332500003,216.64346600000002,39.0,112.0
794,216.53066132500004,216.85383147500002,66.0,127.0
795,216.53066132500004,216.85383147500002,70.0,107.0
796,216.89651432500003,216.99712390000002,63.0,72.0
797,217.26236732500004,217.38889148750002,64.0,93.0
798,217.26236732500004,217.59163502500002,68.0,99.0
799,217.26236732500004,217.76389081250002,61.0,100.0
800,217.62822032500003,218.16175595000004,49.0,71.0
801,217.99407332500002,218.51236507500002,68.0,97.0
802,217.99407332500002,218.53675527500002,64.0,95.0
803,217.26236732500004,218.60840148750003,37.0,97.0
804,218.35992632500003,218.63279168750003,49.0,68.0
805,218.72577932500002,218.89498633750003,64.0,93.0
806,218.72577932500002,219.08705916250003,68.0,97.0
807,218.72577932500002,219.24711985000002,61.0,97.0
808,218.72577932500002,219.57333877500002,37.0,78.0
809,219.45748532500002,219.57638755000002,64.0,102.0
810,219.45748532500002,219.62974111250003,68.0,112.0
811,218.72577932500002,219.71815558750004,49.0,88.0
812,220.18919132500002,220.66480022500002,58.0,117.0
813,220.18919132500002,220.93461681250002,61.0,102.0
814,220.92089732500003,221.25931135000002,58.0,102.0
815,221.28675032500004,221.35077460000002,61.0,88.0
816,220.55504432500004,221.51083528750004,54.0,93.0
817,220.18919132500002,221.54132303750004,42.0,100.0
818,221.65260332500003,222.35991912500003,54.0,83.0
819,221.65260332500003,222.40107758750003,61.0,90.0
820,221.65260332500003,222.41632146250004,66.0,96.0
821,221.65260332500003,222.43308972500003,70.0,93.0
822,221.65260332500003,222.55656511250004,42.0,75.0
823,223.11601532500003,223.35534416250002,68.0,90.0
824,223.11601532500003,223.36144171250004,71.0,81.0
825,223.11601532500003,223.38430752500003,64.0,82.0
826,224.21357432500002,224.29436686250003,56.0,95.0
827,223.84772132500004,225.54893777500004,52.0,76.0
828,223.11601532500003,225.55198655000004,40.0,76.0
829,223.48186832500002,225.57942552500003,47.0,64.0
830,224.57942732500004,225.92698587500004,59.0,66.0
831,225.31113332500004,226.00625402500003,68.0,71.0
832,224.94528032500003,226.01387596250004,64.0,63.0
833,226.77454532500002,227.19984943750003,63.0,90.0
834,227.14039832500004,227.55960488750003,66.0,88.0
835,226.40869232500003,227.77454352500004,51.0,68.0
836,227.87210432500004,228.09923806250004,51.0,39.0
837,226.04283932500002,228.25320120000003,39.0,93.0
838,228.23795732500002,228.32637180000003,66.0,112.0
839,227.50625132500002,228.33094496250004,70.0,112.0
840,228.96966332500003,229.04435831250004,37.0,93.0
841,228.96966332500003,230.52606296250002,61.0,90.0
842,230.06722232500005,230.68764803750003,56.0,67.0
843,229.70136932500003,231.07789123750004,52.0,38.0
844,230.79892832500002,231.09770827500003,56.0,54.0
845,229.33551632500004,231.23185437500004,49.0,72.0
846,230.43307532500003,231.23642753750002,68.0,89.0
847,231.16478132500004,231.26691528750004,64.0,58.0
848,231.89648732500004,233.45288696250003,70.0,107.0
849,231.89648732500004,233.45441135000004,66.0,97.0
850,231.89648732500004,233.45898451250002,42.0,90.0
851,231.89648732500004,233.52148440000002,61.0,82.0
852,231.89648732500004,233.84770332500003,54.0,73.0
853,234.82331132500002,235.27910318750003,59.0,86.0
854,234.82331132500002,235.68154148750003,63.0,117.0
855,234.82331132500002,235.69373658750004,70.0,74.0
856,234.82331132500002,235.71965117500002,66.0,99.0
857,235.55501732500002,236.03062622500002,59.0,52.0
858,236.10379682500005,236.26995506250003,59.0,36.0
859,234.82331132500002,237.23336796250004,51.0,89.0
860,235.92087032500004,237.41019691250003,70.0,99.0
861,235.92087032500004,237.45440415000004,63.0,95.0
862,235.92087032500004,237.49251383750004,66.0,97.0
863,237.38428232500004,237.82178153750004,59.0,45.0
864,237.75013532500003,238.52757295000004,70.0,92.0
865,237.75013532500003,238.57330457500004,63.0,89.0
866,237.75013532500003,238.60988987500002,66.0,93.0
867,238.29891482500003,238.82482851250003,59.0,50.0
868,237.75013532500003,239.89494853750003,51.0,92.0
869,238.84769432500002,239.93153383750004,70.0,90.0
870,239.94525332500004,240.01385076250003,59.0,90.0
871,238.84769432500002,240.04586290000003,63.0,92.0
872,238.84769432500002,240.05043606250004,66.0,96.0
873,240.67695932500004,241.55348213750003,68.0,99.0
874,240.67695932500004,241.55653091250002,64.0,93.0
875,240.67695932500004,241.68305507500003,61.0,102.0
876,241.77451832500003,242.86293100000003,68.0,95.0
877,241.40866532500004,242.91476017500003,56.0,57.0
878,241.77451832500003,242.97421128750003,64.0,79.0
879,240.67695932500004,243.03823556250003,49.0,112.0
880,241.77451832500003,243.09768667500003,61.0,61.0
881,243.59158822500004,245.72420633750002,42.0,50.0
882,243.58853945000004,245.72725511250005,49.0,81.0
883,243.57939312500002,245.73335266250004,58.0,92.0
884,243.58396628750003,245.74249898750003,66.0,83.0
885,243.57786873750004,245.74402337500004,70.0,83.0
886,243.58244190000002,245.74707215000004,61.0,112.0
887,243.59463700000003,245.75164531250005,54.0,86.0
888,247.84462935000005,255.90254167500004,54.0,88.0
889,248.05042166250004,256.0092488,63.0,96.0
890,247.98029983750004,256.01382196250006,59.0,94.0
891,248.14645807500003,256.01839512500004,66.0,108.0
892,247.63883703750002,256.033639,47.0,84.0
893,248.27907978750002,256.0717486875001,70.0,116.0
