,start,end,pitch,velocity
0,37.70450775,38.012949,63.0,91.0
1,38.09411775,38.407429125,63.0,95.0
2,38.48372775,38.784052125,68.0,90.0
3,38.87333775,39.19151925,68.0,94.0
4,39.26294775,39.571389,70.0,92.0
5,39.65255775,39.95775225,70.0,91.0
6,40.042167750000004,40.3311285,72.0,90.0
7,40.43177775,40.725608625,72.0,96.0
8,40.82138775,41.150932875,70.0,91.0
9,41.210997750000004,41.51619225,68.0,92.0
10,41.60060775,42.207750000000004,70.0,92.0
11,42.379827750000004,42.6687885,63.0,95.0
12,42.76943775,42.930151875,65.0,92.0
13,42.964242750000004,43.277554125,67.0,90.0
14,43.35385275,44.563267125,68.0,93.0
15,45.10709775,45.456123375000004,68.0,85.0
16,45.49670775,45.800278875000004,67.0,93.0
17,45.88631775,46.181772,65.0,94.0
18,46.27592775,48.193133625,63.0,93.0
19,48.61358775,48.926899125,56.0,99.0
20,49.00319775,49.5778725,67.0,95.0
21,49.58761275,49.748326875000004,68.0,88.0
22,49.78241775,50.767806375,65.0,92.0
23,51.34085775,51.637935375,65.0,92.0
24,51.73046775,52.095727125,63.0,94.0
25,52.12007775,52.446376125,61.0,92.0
26,52.50968775,53.32786875,63.0,92.0
27,54.45773775,54.735334875,63.0,91.0
28,54.847347750000004,55.160659125,61.0,91.0
29,55.23695775,55.550269125,60.0,96.0
30,55.62656775,56.303515125000004,63.0,92.0
31,56.40578775,56.998319625,61.0,92.0
32,57.37981275,57.57461775,53.0,92.0
33,57.57461775,57.96422775,61.0,92.0
34,57.96422775,58.2402015,60.0,92.0
35,58.353837750000004,58.67201925,60.0,90.0
36,58.74344775,60.69149775,58.0,90.0
37,62.63954775,62.947989,63.0,91.0
38,63.02915775,63.342469125,63.0,95.0
39,63.41876775,63.719092125,68.0,90.0
40,63.80837775,64.12655925,68.0,94.0
41,64.19798775,64.506429,70.0,92.0
42,64.58759775,64.89279225,70.0,91.0
43,64.97720775,65.2661685,72.0,90.0
44,65.36681775,65.66064862500001,72.0,96.0
45,65.75642775,66.085972875,70.0,91.0
46,66.14603775,66.45123225,68.0,92.0
47,66.53564775,67.14279,70.0,92.0
48,67.31486775,67.6038285,63.0,95.0
49,67.70447775,67.86519187500001,65.0,92.0
50,67.89928275,68.212594125,67.0,90.0
51,68.28889275,69.498307125,68.0,93.0
52,69.65252775,70.001553375,68.0,85.0
53,70.04213775,70.391163375,68.0,85.0
54,70.43174775,70.735318875,67.0,93.0
55,70.82135775,71.116812,65.0,94.0
56,71.21096775,73.128173625,63.0,93.0
57,73.54862775000001,73.861939125,56.0,99.0
58,73.93823775,74.5129125,67.0,95.0
59,74.52265275,74.683366875,68.0,88.0
60,74.71745775000001,75.70284637500001,65.0,92.0
61,76.27589775,76.572975375,65.0,92.0
62,76.66550775,76.978819125,67.0,90.0
63,77.05511775000001,77.32135125,68.0,85.0
64,77.44472775,77.728818375,70.0,91.0
65,77.83433775,78.134662125,70.0,94.0
66,78.22394775000001,79.00316775,68.0,90.0
67,79.00316775,79.78238775,63.0,83.0
68,79.78238775,80.082712125,63.0,97.0
69,80.17199775,80.41225725,72.0,93.0
70,80.56160775000001,81.30024337500001,73.0,94.0
71,81.34082775,82.280761875,70.0,91.0
72,82.31485275,82.472320125,63.0,92.0
73,82.50965775,82.78238475,72.0,92.0
74,82.89926775,83.222319375,73.0,91.0
75,83.28887775,83.585955375,72.0,94.0
76,83.67848775,87.103809,70.0,97.0
77,87.57458775,87.85543162500001,72.0,94.0
78,87.96419775,88.26289875,72.0,99.0
79,88.35380775,88.4869245,72.0,94.0
80,88.54861275,88.65900225,73.0,86.0
81,88.74341775,89.053482375,73.0,92.0
82,89.13302775,89.415495,72.0,93.0
83,89.52263775,89.852182875,70.0,94.0
84,89.91224775,90.394390125,72.0,94.0
85,90.69146775,90.97880512500001,72.0,96.0
86,91.08107775,91.368415125,72.0,95.0
87,91.47068775,91.753155,73.0,91.0
88,91.86029775,92.20445325,73.0,92.0
89,92.24990775,92.624907375,72.0,94.0
90,92.63951775,92.98692,70.0,91.0
91,93.02912775,93.6687375,72.0,96.0
92,93.80834775,94.090815,72.0,101.0
93,94.19795775,94.459321125,72.0,99.0
94,94.58756775,94.865164875,73.0,92.0
95,94.97717775,95.222307375,75.0,101.0
96,95.36678775,95.6817225,68.0,91.0
97,95.75639775,96.04860525000001,67.0,92.0
98,96.14600775,96.49341,68.0,91.0
99,96.53561775,96.858669375,70.0,93.0
100,96.92522775,97.2012015,68.0,91.0
101,97.31483775,97.585941375,70.0,92.0
102,97.70444775,97.98366825000001,72.0,96.0
103,98.09405775,98.381395125,73.0,93.0
104,98.48366775,98.771005125,72.0,101.0
105,98.87327775,99.155745,70.0,96.0
106,99.26288775,99.58756275,68.0,95.0
107,100.04210775,100.31321137500001,65.0,106.0
108,100.43171775,100.732042125,65.0,97.0
109,100.82132775000001,101.09405475,75.0,104.0
110,101.21093775,101.493405,75.0,106.0
111,101.60054775,101.913859125,73.0,92.0
112,101.99015775000001,102.2921055,72.0,91.0
113,102.37976775,102.855416625,73.0,94.0
114,103.15898775000001,103.439831625,63.0,93.0
115,103.54859775,103.845675375,63.0,97.0
116,103.93820775,104.220675,75.0,101.0
117,104.32781775000001,104.637882375,73.0,95.0
118,104.71742775,104.9934015,72.0,95.0
119,105.10703775,105.39112837500001,70.0,94.0
120,105.49664775000001,105.897621375,72.0,91.0
121,106.27586775,106.545348,65.0,94.0
122,106.66547775000001,106.96255537500001,65.0,97.0
123,107.05508775,107.3700225,70.0,92.0
124,107.44469775,107.73690525,70.0,92.0
125,107.83430775000001,108.098917875,72.0,92.0
126,108.22391775,108.60054075000001,72.0,97.0
127,108.61352775,109.105410375,73.0,93.0
128,109.39274775,109.71092925,65.0,96.0
129,109.78235775,110.069695125,70.0,91.0
130,110.17196775000001,110.46417525,72.0,94.0
131,110.56157775,110.87975925,73.0,92.0
132,110.95118775,111.24988875,72.0,92.0
133,111.34079775000001,111.693070125,70.0,94.0
134,111.73040775,114.277483125,68.0,94.0
135,137.44466775,137.753109,63.0,91.0
136,137.83427775,138.147589125,63.0,95.0
137,138.22388775000002,138.524212125,68.0,90.0
138,138.61349775,138.93167925,68.0,94.0
139,139.00310775,139.311549,70.0,92.0
140,139.39271775,139.69791225,70.0,91.0
141,139.78232775,140.0712885,72.0,90.0
142,140.17193775,140.465768625,72.0,96.0
143,140.56154775000002,140.891092875,70.0,91.0
144,140.95115775,141.25635225,68.0,92.0
145,141.34076775,141.94791,70.0,92.0
146,142.11998775,142.4089485,63.0,95.0
147,142.50959775,142.670311875,65.0,92.0
148,142.70440275,143.017714125,67.0,90.0
149,143.09401275,144.303427125,68.0,93.0
150,144.45764775,144.806673375,68.0,85.0
151,144.84725775,145.196283375,68.0,85.0
152,145.23686775000002,145.540438875,67.0,93.0
153,145.62647775,145.921932,65.0,94.0
154,146.01608775,147.933293625,63.0,93.0
155,148.35374775,148.667059125,56.0,99.0
156,148.74335775,149.31803250000002,67.0,95.0
157,149.32777275,149.488486875,68.0,88.0
158,149.52257775,150.507966375,65.0,92.0
159,151.08101775,151.37809537500002,65.0,92.0
160,151.47062775,151.783939125,67.0,90.0
161,151.86023775,152.12647125,68.0,85.0
162,152.24984775000001,152.533938375,70.0,91.0
163,152.63945775,152.939782125,70.0,94.0
164,153.02906775,153.80828775,68.0,90.0
165,153.80828775,154.58750775000001,63.0,83.0
166,154.58750775000001,154.88783212500002,63.0,97.0
167,154.97711775,155.21737725,72.0,93.0
168,155.36672775,156.105363375,73.0,94.0
169,156.14594775,157.085881875,70.0,91.0
170,157.11997275000002,157.277440125,63.0,92.0
171,157.31477775,157.58750475,72.0,92.0
172,157.70438775,158.027439375,73.0,91.0
173,158.09399775,158.391075375,72.0,94.0
174,158.48360775,161.908929,70.0,97.0
175,162.37970775,162.660551625,72.0,94.0
176,162.76931775,163.06801875,72.0,99.0
177,163.15892775,163.2920445,72.0,94.0
178,163.35373275,163.46412225,73.0,86.0
179,163.54853775,163.858602375,73.0,92.0
180,163.93814775,164.220615,72.0,93.0
181,164.32775775000002,164.657302875,70.0,94.0
182,164.71736775,165.19951012500002,72.0,94.0
183,165.49658775,165.783925125,72.0,96.0
184,165.88619775,166.173535125,72.0,95.0
185,166.27580775,166.558275,73.0,91.0
186,166.66541775000002,167.00957325000002,73.0,92.0
187,167.05502775,167.430027375,72.0,94.0
188,167.44463775,167.79204000000001,70.0,91.0
189,167.83424775,168.4738575,72.0,96.0
190,168.61346775,168.895935,72.0,101.0
191,169.00307775000002,169.264441125,72.0,99.0
192,169.39268775,169.670284875,73.0,92.0
193,169.78229775,170.027427375,75.0,101.0
194,170.17190775,170.4868425,68.0,91.0
195,170.56151775,170.85372525,67.0,92.0
196,170.95112775,171.29853,68.0,91.0
197,171.34073775000002,171.663789375,70.0,93.0
198,171.73034775,172.0063215,68.0,91.0
199,172.11995775,172.391061375,70.0,92.0
200,172.50956775,172.78878825,72.0,96.0
201,172.89917775,173.186515125,73.0,93.0
202,173.28878775,173.576125125,72.0,101.0
203,173.67839775000002,173.960865,70.0,96.0
204,174.06800775,174.39268275,68.0,95.0
205,174.84722775,175.118331375,65.0,106.0
206,175.23683775,175.537162125,65.0,97.0
207,175.62644775,175.89917475000001,75.0,104.0
208,176.01605775000002,176.298525,75.0,106.0
209,176.40566775,176.718979125,73.0,92.0
210,176.79527775,177.0972255,72.0,91.0
211,177.18488775,177.660536625,73.0,94.0
212,177.96410775,178.244951625,63.0,93.0
213,178.35371775000002,178.650795375,63.0,97.0
214,178.74332775,179.02579500000002,75.0,101.0
215,179.13293775,179.443002375,73.0,95.0
216,179.52254775,179.7985215,72.0,95.0
217,179.91215775,180.196248375,70.0,94.0
218,180.30176775,180.70274137500002,72.0,91.0
219,181.08098775,181.350468,65.0,94.0
220,181.47059775,181.767675375,65.0,97.0
221,181.86020775,182.1751425,70.0,92.0
222,182.24981775,182.54202525,70.0,92.0
223,182.63942775,182.904037875,72.0,92.0
224,183.02903775000001,183.40566075,72.0,97.0
225,183.41864775,183.910530375,73.0,93.0
226,184.19786775,184.51604925,65.0,96.0
227,184.58747775,184.874815125,70.0,91.0
228,184.97708775,185.26929525,72.0,94.0
229,185.36669775000001,185.68487925,73.0,92.0
230,185.75630775,186.05500875,72.0,92.0
231,186.14591775,186.498190125,70.0,94.0
232,186.53552775,187.31474775,68.0,94.0
233,187.31474775,187.595591625,72.0,94.0
234,187.70435775,188.00305875,72.0,99.0
235,188.09396775,188.22708450000002,72.0,94.0
236,188.28877275,188.39916225000002,73.0,86.0
237,188.48357775,188.793642375,73.0,92.0
238,188.87318775,189.155655,72.0,93.0
239,189.26279775,189.592342875,70.0,94.0
240,189.65240775,190.134550125,72.0,94.0
241,190.43162775000002,190.718965125,72.0,96.0
242,190.82123775,191.10857512500002,72.0,95.0
243,191.21084775,191.493315,73.0,91.0
244,191.60045775,191.94461325,73.0,92.0
245,191.99006775,192.365067375,72.0,94.0
246,192.37967775,192.72708,70.0,91.0
247,192.76928775000002,193.4088975,72.0,96.0
248,193.54850775,193.830975,72.0,101.0
249,193.93811775,194.199481125,72.0,99.0
250,194.32772775,194.605324875,73.0,92.0
251,194.71733775,194.96246737500002,75.0,101.0
252,195.10694775000002,195.4218825,68.0,91.0
253,195.49655775,195.78876525,67.0,92.0
254,195.88616775,196.23357000000001,68.0,91.0
255,196.27577775,196.598829375,70.0,93.0
256,196.66538775,196.9413615,68.0,91.0
257,197.05499775,197.326101375,70.0,92.0
258,197.44460775000002,197.72382825,72.0,96.0
259,197.83421775,198.12155512500001,73.0,93.0
260,198.22382775,198.511165125,72.0,101.0
261,198.61343775,198.895905,70.0,96.0
262,199.00304775,199.32772275,68.0,95.0
263,199.78226775000002,200.053371375,65.0,106.0
264,200.17187775,200.472202125,65.0,97.0
265,200.56148775,200.83421475,75.0,104.0
266,200.95109775,201.233565,75.0,106.0
267,201.34070775,201.654019125,73.0,92.0
268,201.73031775,202.0322655,72.0,91.0
269,202.11992775000002,202.595576625,73.0,94.0
270,202.89914775,203.179991625,63.0,93.0
271,203.28875775,203.58583537500002,63.0,97.0
272,203.67836775,203.960835,75.0,101.0
273,204.06797775,204.378042375,73.0,95.0
274,204.45758775000002,204.7335615,72.0,95.0
275,204.84719775,205.131288375,70.0,94.0
276,205.23680775,205.637781375,72.0,91.0
277,206.01602775,206.285508,65.0,94.0
278,206.40563775,206.702715375,65.0,97.0
279,206.79524775000002,207.1101825,70.0,92.0
280,207.18485775,207.47706525,70.0,92.0
281,207.57446775,207.83907787500002,72.0,92.0
282,207.96407775,208.34070075,72.0,97.0
283,208.35368775,208.845570375,73.0,93.0
284,209.13290775000002,209.45108925,65.0,96.0
285,209.52251775,209.809855125,70.0,91.0
286,209.91212775,210.20433525,72.0,94.0
287,210.30173775,210.61991925,73.0,92.0
288,210.69134775,210.99004875,72.0,92.0
289,211.08095775,211.433230125,70.0,94.0
290,211.47056775000001,214.017643125,68.0,94.0
291,219.04982922499997,219.3297644895833,73.0,94.0
292,219.43817872499997,219.73591334166665,73.0,99.0
293,219.82652822499998,219.95921430416664,73.0,94.0
294,220.02070297499998,220.13073533333332,74.0,86.0
295,220.21487772499998,220.5239392020833,74.0,92.0
296,220.60322722499998,220.88478061249998,73.0,93.0
297,220.991576725,221.3200556770833,71.0,94.0
298,221.37992622499996,221.86050873124998,73.0,94.0
299,222.15662522499997,222.44303298124998,73.0,96.0
300,222.54497472499997,222.83138248125,73.0,95.0
301,222.93332422499998,223.21487761249998,74.0,91.0
302,223.32167372499998,223.66471578333332,74.0,92.0
303,223.710023225,224.08380961874997,73.0,94.0
304,224.098372725,224.44465102916664,71.0,91.0
305,224.48672222499997,225.12426265416664,73.0,96.0
306,225.26342122499997,225.54497461249997,73.0,101.0
307,225.65177072499998,225.9122885145833,73.0,99.0
308,226.04012022499998,226.31681924375,74.0,92.0
309,226.42846972499999,226.67280628541664,76.0,101.0
310,226.816819225,227.1307350708333,69.0,91.0
311,227.20516872499996,227.49643084999997,68.0,92.0
312,227.59351822499997,227.93979652916664,69.0,91.0
313,227.98186772499997,228.30387418541665,71.0,93.0
314,228.37021722499998,228.6452981208333,69.0,91.0
315,228.75856672499998,229.02879325208332,71.0,92.0
316,229.14691622499998,229.42523336666665,73.0,96.0
317,229.535265725,229.82167348124997,74.0,93.0
318,229.92361522499996,230.21002298124998,73.0,101.0
319,230.31196472499997,230.59351811249996,71.0,96.0
320,230.70031422499997,231.0239388083333,69.0,95.0
321,231.47701322499998,231.74723975208332,66.0,106.0
322,231.86536272499998,232.1647154645833,66.0,97.0
323,232.253712225,232.52555687499998,76.0,104.0
324,232.64206172499996,232.9236151125,76.0,106.0
325,233.03041122499997,233.34270894791663,74.0,92.0
326,233.41876072499997,233.71973158749998,73.0,91.0
327,233.80711022499997,234.28122023958332,74.0,94.0
328,234.58380922499998,234.86374448958333,64.0,93.0
329,234.97215872499999,235.26827521874998,64.0,97.0
330,235.360508225,235.6420616125,76.0,101.0
331,235.74885772499997,236.0579192020833,74.0,95.0
332,236.13720722499997,236.4122881208333,73.0,95.0
333,236.52555672499997,236.80872823541665,71.0,94.0
334,236.91390622499998,237.31358258541664,73.0,91.0
335,237.69060522499998,237.95921362916664,66.0,94.0
336,238.078954725,238.37507121874998,66.0,97.0
337,238.46730422499996,238.7812200708333,71.0,92.0
338,238.85565372499997,239.14691584999997,71.0,92.0
339,239.24400322499997,239.50775726041664,73.0,92.0
340,239.63235272499998,240.00775724166664,73.0,97.0
341,240.02070222499998,240.51099346874997,74.0,93.0
342,240.797401225,241.11455331666664,66.0,96.0
343,241.185750725,241.48754195625,71.0,91.0
344,241.60329237708333,241.94410710833333,73.0,94.0
345,242.05949148333332,242.44286471666666,74.0,92.0
346,242.53172389583332,242.91188897916666,73.0,92.0
347,243.02759139583333,243.47732707291667,71.0,94.0
348,243.52504488541666,244.43153501041667,69.0,94.0
349,244.43153501041667,244.71237888541668,73.0,94.0
350,244.82114501041667,245.11984601041667,73.0,99.0
351,245.21075501041668,245.34387176041668,73.0,94.0
352,245.40556001041668,245.51594951041668,74.0,86.0
353,245.60036501041668,245.91042963541668,74.0,92.0
354,245.98997501041666,246.27244226041668,73.0,93.0
355,246.37958501041666,246.70913013541667,71.0,94.0
356,246.76919501041667,247.25133738541666,73.0,94.0
357,247.54841501041668,247.83575238541667,73.0,96.0
358,247.93802501041668,248.22536238541667,73.0,95.0
359,248.32763501041666,248.61010226041668,74.0,91.0
360,248.71724501041666,249.06140051041666,74.0,92.0
361,249.10685501041667,249.48185463541668,73.0,94.0
362,249.49646501041667,249.84386726041666,71.0,91.0
363,249.88607501041668,250.52568476041668,73.0,96.0
364,250.66529501041668,250.94776226041668,73.0,101.0
365,251.05490501041666,251.31626838541666,73.0,99.0
366,251.44451501041667,251.72211213541667,74.0,92.0
367,251.83412501041667,252.07925463541667,76.0,101.0
368,252.22373501041668,252.53866976041667,69.0,91.0
369,252.61334501041668,252.90555251041667,68.0,92.0
370,253.00295501041666,253.35035726041667,69.0,91.0
371,253.39256501041666,253.71561663541667,71.0,93.0
372,253.78217501041667,254.05814876041666,69.0,91.0
373,254.17178501041667,254.44288863541667,71.0,92.0
374,254.56139501041667,254.84061551041668,73.0,96.0
375,254.95100501041668,255.23834238541667,74.0,93.0
376,255.34061501041668,255.62795238541668,73.0,101.0
377,255.73022501041666,256.01269226041666,71.0,96.0
378,256.1198350104167,256.44451001041665,69.0,95.0
379,256.89905501041665,257.17015863541667,66.0,106.0
380,257.28866501041665,257.58898938541665,66.0,97.0
381,257.67827501041666,257.9510020104167,76.0,104.0
382,258.06788501041666,258.3503522604167,76.0,106.0
383,258.45749501041666,258.7708063854167,74.0,92.0
384,258.84710501041667,259.1490527604167,73.0,91.0
385,259.2367150104167,259.71236388541666,74.0,94.0
386,260.0159350104167,260.29677888541664,64.0,93.0
387,260.4055450104167,260.7026226354167,64.0,97.0
388,260.7951550104167,261.07762226041666,76.0,101.0
389,261.18476501041664,261.4948296354167,74.0,95.0
390,261.57437501041665,261.8503487604167,73.0,95.0
391,261.96398501041665,262.2480756354167,71.0,94.0
392,262.35359501041665,262.75456863541666,73.0,91.0
393,263.13281501041666,263.4022952604167,66.0,94.0
394,263.52242501041667,263.81950263541665,66.0,97.0
395,263.9120350104167,264.2269697604167,71.0,92.0
396,264.3016450104167,264.5938525104167,71.0,92.0
397,264.6912550104167,264.9558651354167,73.0,92.0
398,265.0808650104167,265.4574880104167,73.0,97.0
399,265.4704750104167,265.96235763541665,74.0,93.0
400,266.24969501041664,266.5678765104167,66.0,96.0
401,266.63964035416666,266.93073246666665,74.0,91.0
402,267.03503710416663,267.33305035416663,73.0,94.0
403,267.43238810416665,267.7568914208333,71.0,92.0
404,267.82973910416666,268.82311660416667,69.0,92.0
405,269.41914310416666,269.85788483333334,68.0,82.0
406,269.8164941041667,272.1840100333333,69.0,91.0
