,start,end,pitch,velocity
0,13.15907775,13.39933725,56.0,84.0
1,12.76946775,13.410700875,51.0,78.0
2,13.15907775,13.62011625,60.0,84.0
3,13.548687750000001,14.0194665,56.0,83.0
4,13.93829775,14.2857,60.0,83.0
5,13.93829775,14.300310375,63.0,84.0
6,14.32790775,14.751608625000001,51.0,55.0
7,12.379857750000001,14.89933575,44.0,86.0
8,14.71751775,15.108751125,60.0,82.0
9,14.71751775,15.17855625,63.0,88.0
10,15.10712775,15.264595125,56.0,71.0
11,15.496737750000001,15.9934905,58.0,77.0
12,15.496737750000001,16.040568375,63.0,86.0
13,16.27595775,16.527580875,58.0,79.0
14,15.88634775,16.543814625,51.0,64.0
15,16.27595775,16.551931500000002,63.0,82.0
16,16.66556775,17.18504775,51.0,57.0
17,17.055177750000002,17.448034500000002,58.0,75.0
18,17.055177750000002,17.485372125,63.0,80.0
19,17.83439775,17.991865125,58.0,89.0
20,17.44478775,18.0064755,51.0,57.0
21,15.496737750000001,18.10712475,43.0,83.0
22,18.224007750000002,18.3830985,58.0,78.0
23,17.83439775,18.631474875000002,63.0,89.0
24,18.61361775,18.97076025,65.0,84.0
25,18.61361775,19.06816275,60.0,79.0
26,19.39283775,19.6298505,65.0,89.0
27,19.39283775,19.634720625,60.0,83.0
28,19.00322775,20.261343375,48.0,74.0
29,20.17205775,20.5389405,60.0,81.0
30,20.17205775,20.560044375,63.0,84.0
31,20.56166775,21.056797125,48.0,74.0
32,18.61361775,21.116862,41.0,79.0
33,20.95127775,21.189913875000002,60.0,87.0
34,20.95127775,21.267835875,65.0,91.0
35,21.73049775,21.982120875,58.0,78.0
36,21.73049775,22.193159625,63.0,85.0
37,22.12010775,22.277575125000002,58.0,79.0
38,22.50971775,22.693159125,58.0,78.0
39,22.50971775,22.74997725,63.0,81.0
40,23.28893775,23.451275250000002,58.0,80.0
41,23.28893775,23.642833500000002,63.0,82.0
42,23.67854775,23.878222875000002,58.0,79.0
43,21.73049775,24.194781,51.0,87.0
44,24.06815775,24.2532225,58.0,86.0
45,24.06815775,24.376599,63.0,90.0
46,24.84737775,25.095754125,56.0,87.0
47,24.84737775,25.384714875,61.0,87.0
48,25.23698775,25.728870375,56.0,85.0
49,25.626597750000002,26.08114275,61.0,81.0
50,26.01620775,26.49023325,56.0,77.0
51,24.84737775,26.715882375,49.0,90.0
52,26.40581775,26.858739375,65.0,90.0
53,26.40581775,26.8895835,61.0,84.0
54,26.79542775,26.996726250000002,56.0,59.0
55,27.18503775,27.371725875,56.0,90.0
56,27.18503775,27.417180375,61.0,91.0
57,27.18503775,27.443154375,65.0,91.0
58,27.96425775,28.547049375,63.0,84.0
59,27.96425775,28.5519195,60.0,83.0
60,28.35386775,28.8506205,55.0,79.0
61,28.74347775,28.93178925,60.0,89.0
62,27.96425775,28.95776325,48.0,85.0
63,28.74347775,29.1752955,67.0,87.0
64,29.13308775,29.342503125,60.0,78.0
65,28.74347775,29.39932125,63.0,90.0
66,29.52269775,30.043801125,65.0,90.0
67,29.52269775,30.097372500000002,60.0,87.0
68,29.91230775,30.3571125,48.0,69.0
69,29.52269775,30.410683875,41.0,88.0
70,30.30191775,30.475618875000002,60.0,86.0
71,30.30191775,30.553540875,65.0,90.0
72,30.30191775,30.586008375000002,68.0,84.0
73,31.08113775,31.74347475,56.0,85.0
74,31.08113775,31.74347475,61.0,85.0
75,31.47074775,32.02918875,53.0,75.0
76,31.860357750000002,32.284058625,56.0,85.0
77,31.860357750000002,32.348993625,61.0,84.0
78,32.24996775,32.72724,53.0,75.0
79,32.63957775,33.066525375,58.0,80.0
80,32.63957775,33.108733125,61.0,84.0
81,33.02918775,33.491849625,53.0,74.0
82,31.08113775,33.59412225,46.0,87.0
83,33.41879775,33.660680625,56.0,86.0
84,33.80840775,33.969121875,46.0,84.0
85,33.41879775,34.09412175,61.0,86.0
86,34.19801775,34.663926375,63.0,84.0
87,34.19801775,34.673666625,58.0,83.0
88,34.58762775,35.15905575,46.0,74.0
89,34.97723775,35.4869775,58.0,83.0
90,34.97723775,35.556782625000004,63.0,85.0
91,35.75645775,36.0194445,58.0,77.0
92,35.75645775,36.28892475,63.0,79.0
93,35.36684775,36.663924375,46.0,70.0
94,34.19801775,36.709378875,39.0,90.0
95,36.53567775,36.74996325,63.0,86.0
96,36.53567775,36.766197,67.0,85.0
97,38.09411775,38.4999615,58.0,82.0
98,37.70450775,38.683402875,51.0,75.0
99,38.48372775,38.94476625,60.0,85.0
100,39.26294775,39.702882375,56.0,75.0
101,38.87333775,39.712622625,51.0,57.0
102,39.65255775,39.840869250000004,60.0,86.0
103,37.31489775,39.84736275,44.0,87.0
104,39.65255775,39.900934125,63.0,89.0
105,40.43177775,41.30190675,63.0,84.0
106,40.82138775,42.0713865,51.0,73.0
107,41.210997750000004,42.1233345,58.0,80.0
108,41.60060775,42.219113625,63.0,84.0
109,42.379827750000004,42.91229475,51.0,54.0
110,40.43177775,43.1103465,43.0,81.0
111,42.76943775,43.160671125,67.0,91.0
112,43.15904775,43.534047375,58.0,81.0
113,43.548657750000004,44.374955625,68.0,82.0
114,43.93826775,45.26943525,60.0,79.0
115,44.32787775,45.663915375,63.0,90.0
116,44.717487750000004,45.8895645,68.0,90.0
117,45.49670775,46.040538375000004,60.0,74.0
118,43.548657750000004,46.05514875,53.0,90.0
119,45.88631775,46.348979625,63.0,90.0
120,46.27592775,46.706122125,68.0,78.0
121,46.66553775,47.823004125000004,67.0,79.0
122,47.44475775,47.99021175,58.0,76.0
123,47.83436775,48.012939,63.0,80.0
124,47.05514775,48.9804705,55.0,62.0
125,48.22397775,48.995080875,58.0,82.0
126,48.22397775,49.027548375,67.0,77.0
127,46.66553775,49.180145625,48.0,83.0
128,49.00319775,49.3051455,63.0,85.0
129,49.78241775,50.584365,65.0,86.0
130,49.78241775,50.610339,61.0,81.0
131,50.56163775,50.754819375000004,63.0,82.0
132,50.17202775,51.337611,56.0,74.0
133,50.95124775,51.735337875,68.0,86.0
134,50.95124775,51.748324875,61.0,83.0
135,51.73046775,52.271051625,56.0,69.0
136,49.78241775,52.300272375,49.0,90.0
137,52.12007775,52.306765875,65.0,93.0
138,52.12007775,52.33436325,61.0,88.0
139,52.89929775,53.415531,60.0,82.0
140,52.89929775,53.73695925,63.0,83.0
141,53.28890775,53.741829375,55.0,76.0
142,52.89929775,53.917153875000004,48.0,83.0
143,53.678517750000005,54.3181275,60.0,89.0
144,54.45773775,54.641179125,60.0,83.0
145,54.45773775,54.9544905,65.0,86.0
146,55.23695775,55.363581,65.0,81.0
147,54.847347750000004,55.36682775,60.0,90.0
148,54.45773775,55.383061500000004,53.0,90.0
149,55.23695775,55.415529,68.0,85.0
150,56.016177750000004,56.475592875000004,56.0,82.0
151,56.016177750000004,56.857086,61.0,81.0
152,56.79539775,57.475591875,56.0,92.0
153,57.96422775,58.116825,56.0,78.0
154,57.185007750000004,58.15903275,65.0,91.0
155,56.40578775,58.365201375,53.0,80.0
156,56.016177750000004,58.45773375,46.0,86.0
157,58.353837750000004,58.592473875,56.0,89.0
158,58.353837750000004,58.631434875000004,61.0,86.0
159,59.13305775,59.24344725,39.0,91.0
160,59.13305775,59.384680875,58.0,79.0
161,59.13305775,59.4739665,63.0,86.0
162,60.30188775,60.597342000000005,65.0,90.0
163,59.91227775,60.83435475,58.0,84.0
164,60.69149775,61.225588125,63.0,82.0
165,61.08110775,61.52915925,58.0,76.0
166,60.69149775,61.540522875,67.0,85.0
167,59.522667750000004,61.58110725,51.0,88.0
168,61.47071775,61.654159125,63.0,78.0
169,62.24993775,62.7596775,56.0,79.0
170,62.24993775,62.87980725,63.0,83.0
171,63.02915775,63.4609755,58.0,81.0
172,63.41876775,64.05513075,60.0,83.0
173,64.19798775,64.647662625,56.0,83.0
174,62.63954775,64.779156,51.0,76.0
175,62.24993775,64.909026,44.0,84.0
176,64.58759775,64.991818125,60.0,90.0
177,64.58759775,65.04863625,63.0,90.0
178,64.97720775,65.128181625,56.0,86.0
179,65.36681775,65.758051125,58.0,84.0
180,65.36681775,66.212596125,63.0,88.0
181,66.14603775,66.423634875,55.0,86.0
182,65.75642775,66.792141,51.0,75.0
183,66.53564775,67.53564675,55.0,90.0
184,66.53564775,67.745062125,63.0,90.0
185,65.36681775,68.04863325,43.0,80.0
186,67.31486775,68.05188,51.0,67.0
187,67.70447775,68.309996625,55.0,87.0
188,68.48369775,69.25642425,56.0,84.0
189,69.26291775,69.79538475,53.0,92.0
190,69.65252775,69.943111875,56.0,86.0
191,70.04213775,70.134670125,56.0,73.0
192,70.04213775,70.58596837500001,60.0,88.0
193,68.87330775,70.97720175,48.0,76.0
194,68.48369775,70.98369525,41.0,87.0
195,70.82135775,70.991812125,56.0,88.0
196,70.82135775,71.030773125,60.0,89.0
197,71.60057775,72.459343125,63.0,84.0
198,72.37979775,73.18499175,58.0,90.0
199,71.99018775,73.34732925,55.0,76.0
200,71.60057775,73.965835125,48.0,90.0
201,72.76940775,74.011289625,67.0,90.0
202,73.93823775,74.129796,58.0,84.0
203,73.93823775,74.3830425,63.0,89.0
204,74.32784775,74.537263125,58.0,77.0
205,74.71745775000001,74.93499,56.0,87.0
206,74.71745775000001,75.348950625,61.0,84.0
207,75.10706775,75.61356075,56.0,90.0
208,75.49667775,76.272651,65.0,91.0
209,75.88628775000001,76.322975625,56.0,84.0
210,76.27589775,76.6947285,61.0,83.0
211,74.71745775000001,77.21907862500001,49.0,86.0
212,77.05511775000001,77.298624,56.0,87.0
213,77.05511775000001,77.326221375,61.0,84.0
214,77.05511775000001,77.41226025,65.0,90.0
215,77.83433775,78.339207375,60.0,85.0
216,77.83433775,78.43173975,63.0,85.0
217,78.22394775000001,78.71745375,55.0,79.0
218,78.61355775,78.738557625,60.0,75.0
219,77.83433775,78.878167875,48.0,89.0
220,78.61355775,78.959336625,63.0,87.0
221,78.61355775,78.998297625,67.0,79.0
222,79.39277775000001,79.85381625000001,60.0,83.0
223,79.78238775,80.21095875,56.0,77.0
224,79.39277775000001,80.228815875,53.0,90.0
225,79.39277775000001,80.337582,68.0,88.0
226,80.17199775,80.59407525,60.0,92.0
227,80.56160775000001,80.7077115,65.0,86.0
228,80.95121775,81.49667175,58.0,80.0
229,80.95121775,81.819723375,61.0,81.0
230,81.73043775000001,82.2271905,56.0,91.0
231,82.12004775,82.89115087500001,61.0,93.0
232,82.89926775,83.13303375,56.0,76.0
233,80.95121775,83.498293125,46.0,89.0
234,81.34082775,83.508033375,53.0,81.0
235,83.28887775,83.540500875,56.0,92.0
236,83.28887775,83.5778385,61.0,94.0
237,83.28887775,83.654137125,65.0,94.0
238,83.67848775,83.952838125,46.0,91.0
239,84.06809775,84.306733875,58.0,85.0
240,84.06809775,84.637902375,63.0,89.0
241,84.45770775,85.09569412500001,58.0,89.0
242,84.84731775,85.271018625,63.0,88.0
243,85.23692775,85.363551,65.0,95.0
244,85.62653775,85.78887525,58.0,78.0
245,85.62653775,86.10381,67.0,92.0
246,86.01614775,86.2791345,58.0,83.0
247,84.06809775,86.615173125,51.0,91.0
248,86.40575775,86.813224875,63.0,92.0
249,86.79536775,86.965822125,61.0,96.0
250,87.18497775,87.719068125,56.0,86.0
251,87.18497775,87.79536675,63.0,88.0
252,87.96419775,88.163872875,56.0,84.0
253,87.96419775,88.41224925,60.0,86.0
254,88.35380775,88.413872625,56.0,58.0
255,87.57458775,88.94471625,51.0,77.0
256,88.74341775,89.08270312500001,56.0,91.0
257,88.74341775,89.1752355,63.0,89.0
258,89.52263775,89.611923375,56.0,76.0
259,89.13302775,89.939845125,51.0,79.0
260,87.18497775,89.98367625,44.0,90.0
261,89.52263775,89.998286625,60.0,92.0
262,89.52263775,90.00153337500001,63.0,91.0
263,89.91224775,90.064845,56.0,96.0
264,90.30185775,90.8505585,58.0,84.0
265,90.30185775,90.85380525000001,63.0,87.0
266,90.69146775,91.30185675,51.0,78.0
267,91.08107775,91.5778305,58.0,90.0
268,91.47068775,91.69796025000001,63.0,77.0
269,91.86029775,92.24341425,58.0,88.0
270,91.86029775,92.32133625,67.0,91.0
271,92.63951775,92.8245825,58.0,89.0
272,92.63951775,93.095686125,63.0,91.0
273,90.30185775,93.103803,43.0,90.0
274,93.02912775,93.199582125,58.0,90.0
275,91.66549275,93.2141925,51.0,77.0
276,93.41873775,93.63951675,60.0,82.0
277,93.41873775,93.8895165,65.0,90.0
278,93.80834775,94.29536025,60.0,86.0
279,94.19795775,94.63951575,65.0,86.0
280,94.58756775,94.787242875,60.0,71.0
281,94.97717775,95.19633337500001,60.0,90.0
282,94.97717775,95.42522925,68.0,89.0
283,93.41873775,95.947956,53.0,85.0
284,95.75639775,95.9544495,60.0,91.0
285,95.75639775,96.18172200000001,65.0,93.0
286,96.14600775,96.293734875,60.0,80.0
287,96.53561775,97.134643125,60.0,85.0
288,96.53561775,97.144383375,63.0,85.0
289,96.92522775,97.566460875,55.0,77.0
290,97.31483775,97.81970737500001,67.0,90.0
291,97.31483775,97.91223975,60.0,90.0
292,97.70444775,98.21094075,55.0,70.0
293,98.09405775,98.60055075,63.0,86.0
294,98.48366775,98.93334262500001,55.0,61.0
295,96.53561775,98.98042050000001,48.0,91.0
296,98.87327775,99.108667125,60.0,106.0
297,99.26288775,99.389511,48.0,91.0
298,99.65249775000001,99.8895105,56.0,92.0
299,99.65249775000001,100.1232765,61.0,89.0
300,100.04210775,100.55509425,56.0,86.0
301,100.82132775000001,101.051847,56.0,76.0
302,100.43171775,101.077821,65.0,97.0
303,101.21093775,101.402496,56.0,80.0
304,101.21093775,101.60054775,61.0,81.0
305,99.65249775000001,102.12002775,49.0,91.0
306,101.99015775000001,102.22067700000001,56.0,93.0
307,101.99015775000001,102.24989775,61.0,95.0
308,101.99015775000001,102.298599,65.0,99.0
309,102.76937775,103.34080575,63.0,90.0
310,102.76937775,103.413857625,58.0,90.0
311,103.54859775,103.624896375,58.0,72.0
312,103.15898775000001,103.660610625,55.0,76.0
313,102.76937775,103.861909125,48.0,91.0
314,103.54859775,103.89924675,67.0,96.0
315,103.54859775,103.99177912500001,63.0,95.0
316,103.93820775,104.03074012500001,58.0,70.0
317,104.32781775000001,104.6297655,60.0,83.0
318,104.32781775000001,104.845674375,65.0,89.0
319,104.71742775,105.186583125,60.0,84.0
320,104.32781775000001,105.33431025,53.0,90.0
321,105.10703775,105.465803625,65.0,92.0
322,105.10703775,105.47716725000001,68.0,88.0
323,105.88625775,106.53560775,61.0,89.0
324,105.88625775,106.556711625,56.0,90.0
325,106.27586775,106.910607375,53.0,84.0
326,106.66547775000001,106.991776125,56.0,83.0
327,106.66547775000001,107.0843085,61.0,84.0
328,107.05508775,107.60378850000001,53.0,75.0
329,107.44469775,107.745022125,65.0,89.0
330,107.44469775,107.76774937500001,61.0,81.0
331,107.44469775,107.793723375,58.0,79.0
332,107.83430775000001,108.254761875,53.0,72.0
333,105.88625775,108.355411125,46.0,91.0
334,108.22391775,108.397618875,58.0,85.0
335,108.22391775,108.7596315,61.0,91.0
336,109.00313775000001,109.0972935,39.0,91.0
337,108.61352775,109.103787,58.0,82.0
338,109.00313775000001,110.01612375,63.0,85.0
339,110.17196775000001,110.45768175,58.0,89.0
340,110.56157775,110.848915125,58.0,82.0
341,110.56157775,111.01612275000001,67.0,81.0
342,111.34079775000001,111.530732625,58.0,84.0
343,109.78235775,112.072939875,51.0,90.0
344,111.34079775000001,112.076186625,63.0,86.0
345,111.73040775,112.0972905,58.0,84.0
346,112.89923775,113.13949725,56.0,84.0
347,112.50962775,113.150860875,51.0,78.0
348,112.89923775,113.36027625,60.0,84.0
349,113.28884775,113.7596265,56.0,83.0
350,113.67845775,114.02586000000001,60.0,83.0
351,113.67845775,114.040470375,63.0,84.0
352,114.06806775,114.491768625,51.0,55.0
353,112.12001775,114.63949575000001,44.0,86.0
354,114.45767775,114.848911125,60.0,82.0
355,114.45767775,114.91871625,63.0,88.0
356,114.84728775,115.004755125,56.0,71.0
357,115.23689775,115.7336505,58.0,77.0
358,115.23689775,115.78072837500001,63.0,86.0
359,116.01611775,116.267740875,58.0,79.0
360,115.62650775,116.283974625,51.0,64.0
361,116.01611775,116.2920915,63.0,82.0
362,116.40572775,116.92520775,51.0,57.0
363,116.79533775,117.18819450000001,58.0,75.0
364,116.79533775,117.225532125,63.0,80.0
365,117.57455775,117.732025125,58.0,89.0
366,117.18494775,117.7466355,51.0,57.0
367,115.23689775,117.84728475,43.0,83.0
368,117.96416775,118.1232585,58.0,78.0
369,117.57455775,118.371634875,63.0,89.0
370,118.35377775,118.71092025,65.0,84.0
371,118.35377775,118.80832275,60.0,79.0
372,119.13299775,119.3700105,65.0,89.0
373,119.13299775,119.374880625,60.0,83.0
374,118.74338775,120.001503375,48.0,74.0
375,119.91221775,120.2791005,60.0,81.0
376,119.91221775,120.300204375,63.0,84.0
377,120.30182775,120.796957125,48.0,74.0
378,118.35377775,120.857022,41.0,79.0
379,120.69143775,120.930073875,60.0,87.0
380,120.69143775,121.007995875,65.0,91.0
381,121.47065775,121.722280875,58.0,78.0
382,121.47065775,121.933319625,63.0,85.0
383,121.86026775,122.017735125,58.0,79.0
384,122.24987775,122.433319125,58.0,78.0
385,122.24987775,122.49013725,63.0,81.0
386,123.02909775,123.19143525,58.0,80.0
387,123.02909775,123.3829935,63.0,82.0
388,123.41870775,123.61838287500001,58.0,79.0
389,121.47065775,123.93494100000001,51.0,87.0
390,123.80831775,123.9933825,58.0,86.0
391,123.80831775,124.116759,63.0,90.0
392,124.58753775,124.835914125,56.0,87.0
393,124.58753775,125.124874875,61.0,87.0
394,124.97714775,125.469030375,56.0,85.0
395,125.36675775,125.82130275,61.0,81.0
396,125.75636775000001,126.23039325,56.0,77.0
397,124.58753775,126.45604237500001,49.0,90.0
398,126.14597775,126.598899375,65.0,90.0
399,126.14597775,126.6297435,61.0,84.0
400,126.53558775,126.73688625,56.0,59.0
401,126.92519775000001,127.111885875,56.0,90.0
402,126.92519775000001,127.157340375,61.0,91.0
403,126.92519775000001,127.18331437500001,65.0,91.0
404,127.70441775,128.287209375,63.0,84.0
405,127.70441775,128.2920795,60.0,83.0
406,128.09402775,128.5907805,55.0,79.0
407,128.48363775,128.67194925,60.0,89.0
408,127.70441775,128.69792325,48.0,85.0
409,128.48363775,128.9154555,67.0,87.0
410,128.87324775,129.082663125,60.0,78.0
411,128.48363775,129.13948125,63.0,90.0
412,129.26285775,129.783961125,65.0,90.0
413,129.26285775,129.8375325,60.0,87.0
414,129.65246775,130.0972725,48.0,69.0
415,129.26285775,130.150843875,41.0,88.0
416,130.04207775,130.215778875,60.0,86.0
417,130.04207775,130.293700875,65.0,90.0
418,130.04207775,130.326168375,68.0,84.0
419,130.82129775,131.48363475,56.0,85.0
420,130.82129775,131.48363475,61.0,85.0
421,131.21090775,131.76934875,53.0,75.0
422,131.60051775,132.024218625,56.0,85.0
423,131.60051775,132.089153625,61.0,84.0
424,131.99012775,132.4674,53.0,75.0
425,132.37973775,132.806685375,58.0,80.0
426,132.37973775,132.848893125,61.0,84.0
427,132.76934775,133.232009625,53.0,74.0
428,130.82129775,133.33428225,46.0,87.0
429,133.15895775,133.400840625,56.0,86.0
430,133.54856775,133.70928187500002,46.0,84.0
431,133.15895775,133.83428175,61.0,86.0
432,133.93817775,134.404086375,63.0,84.0
433,133.93817775,134.413826625,58.0,83.0
434,134.32778775,134.89921575,46.0,74.0
435,134.71739775,135.2271375,58.0,83.0
436,134.71739775,135.296942625,63.0,85.0
437,135.49661775,135.7596045,58.0,77.0
438,135.49661775,136.02908475,63.0,79.0
439,135.10700775,136.404084375,46.0,70.0
440,133.93817775,136.449538875,39.0,90.0
441,136.27583775,136.49012325,63.0,86.0
442,136.27583775,136.506357,67.0,85.0
443,137.05505775,137.5647975,56.0,79.0
444,137.05505775,137.68492725000002,63.0,83.0
445,137.83427775,138.2660955,58.0,81.0
446,138.22388775000002,138.86025075,60.0,83.0
447,139.00310775,139.452782625,56.0,83.0
448,137.44466775,139.58427600000002,51.0,76.0
449,137.05505775,139.714146,44.0,84.0
450,139.39271775,139.796938125,60.0,90.0
451,139.39271775,139.85375625,63.0,90.0
452,139.78232775,139.933301625,56.0,86.0
453,140.17193775,140.563171125,58.0,84.0
454,140.17193775,141.017716125,63.0,88.0
455,140.95115775,141.228754875,55.0,86.0
456,140.56154775000002,141.597261,51.0,75.0
457,141.34076775,142.34076675,55.0,90.0
458,141.34076775,142.550182125,63.0,90.0
459,140.17193775,142.85375325,43.0,80.0
460,142.11998775,142.857,51.0,67.0
461,142.50959775,143.115116625,55.0,87.0
462,143.28881775,144.06154425,56.0,84.0
463,144.06803775,144.60050475,53.0,92.0
464,144.45764775,144.74823187500002,56.0,86.0
465,144.84725775,144.939790125,56.0,73.0
466,144.84725775,145.391088375,60.0,88.0
467,143.67842775,145.78232175,48.0,76.0
468,143.28881775,145.78881525,41.0,87.0
469,145.62647775,145.796932125,56.0,88.0
470,145.62647775,145.835893125,60.0,89.0
471,146.40569775,147.264463125,63.0,84.0
472,147.18491775,147.99011175,58.0,90.0
473,146.79530775,148.15244925,55.0,76.0
474,146.40569775,148.770955125,48.0,90.0
475,147.57452775000002,148.816409625,67.0,90.0
476,148.74335775,148.93491600000002,58.0,84.0
477,148.74335775,149.1881625,63.0,89.0
478,149.13296775,149.342383125,58.0,77.0
479,149.52257775,149.74011000000002,56.0,87.0
480,149.52257775,150.154070625,61.0,84.0
481,149.91218775000002,150.41868075,56.0,90.0
482,150.30179775,151.077771,65.0,91.0
483,150.69140775,151.12809562500001,56.0,84.0
484,151.08101775,151.4998485,61.0,83.0
485,149.52257775,152.024198625,49.0,86.0
486,151.86023775,152.103744,56.0,87.0
487,151.86023775,152.131341375,61.0,84.0
488,151.86023775,152.21738025,65.0,90.0
489,152.63945775,153.14432737500002,60.0,85.0
490,152.63945775,153.23685975,63.0,85.0
491,153.02906775,153.52257375,55.0,79.0
492,153.41867775,153.54367762500002,60.0,75.0
493,152.63945775,153.683287875,48.0,89.0
494,153.41867775,153.764456625,63.0,87.0
495,153.41867775,153.803417625,67.0,79.0
496,154.19789775,154.65893625,60.0,83.0
497,154.58750775000001,155.01607875,56.0,77.0
498,154.19789775,155.033935875,53.0,90.0
499,154.19789775,155.142702,68.0,88.0
500,154.97711775,155.39919525,60.0,92.0
501,155.36672775,155.5128315,65.0,86.0
502,155.75633775,156.30179175,58.0,80.0
503,155.75633775,156.624843375,61.0,81.0
504,156.53555775,157.0323105,56.0,91.0
505,156.92516775,157.696270875,61.0,93.0
506,157.70438775,157.93815375,56.0,76.0
507,155.75633775,158.303413125,46.0,89.0
508,156.14594775,158.313153375,53.0,81.0
509,158.09399775,158.345620875,56.0,92.0
510,158.09399775,158.3829585,61.0,94.0
511,158.09399775,158.459257125,65.0,94.0
512,158.48360775,158.75795812500002,46.0,91.0
513,158.87321775,159.111853875,58.0,85.0
514,158.87321775,159.443022375,63.0,89.0
515,159.26282775,159.900814125,58.0,89.0
516,159.65243775,160.076138625,63.0,88.0
517,160.04204775,160.16867100000002,65.0,95.0
518,160.43165775,160.59399525,58.0,78.0
519,160.43165775,160.90893,67.0,92.0
520,160.82126775,161.08425450000001,58.0,83.0
521,158.87321775,161.420293125,51.0,91.0
522,161.21087775,161.618344875,63.0,92.0
523,161.60048775,161.770942125,61.0,96.0
524,161.99009775,162.2790585,60.0,90.0
525,161.99009775,162.2920455,63.0,90.0
526,161.99009775,162.30827925,56.0,88.0
527,162.76931775,162.900811125,60.0,92.0
528,162.76931775,162.93165525,63.0,90.0
529,163.15892775,163.62645975,56.0,79.0
530,163.54853775,163.7595765,60.0,91.0
531,163.54853775,163.780680375,63.0,91.0
532,163.54853775,163.805031,68.0,86.0
533,163.93814775,164.194641,56.0,71.0
534,164.32775775000002,164.680030125,60.0,97.0
535,164.32775775000002,164.71087425000002,63.0,93.0
536,161.99009775,164.744965125,44.0,91.0
537,164.71736775,164.780679375,56.0,85.0
538,162.37970775,164.79366637500002,51.0,78.0
539,165.10697775,165.335873625,58.0,86.0
540,165.10697775,165.592366875,63.0,91.0
541,165.10697775,165.6167175,67.0,91.0
542,165.49658775,165.946262625,58.0,84.0
543,165.88619775,166.12645725000002,67.0,90.0
544,165.88619775,166.32126225,63.0,90.0
545,166.27580775,166.459249125,58.0,79.0
546,166.66541775000002,166.92515775,67.0,92.0
547,166.66541775000002,167.118339375,63.0,90.0
548,167.05502775,167.363469,58.0,66.0
549,165.10697775,167.558274,43.0,89.0
550,167.44463775,167.89918275,67.0,92.0
551,167.83424775,167.968987875,43.0,99.0
552,167.44463775,167.97710475,63.0,91.0
553,168.22385775,168.468987375,60.0,85.0
554,168.22385775,168.6946365,65.0,93.0
555,168.61346775,169.04853225,60.0,77.0
556,169.00307775000002,169.17840225,65.0,92.0
557,169.00307775000002,169.233597,68.0,87.0
558,169.39268775,169.605349875,60.0,78.0
559,169.78229775,169.95275212500002,65.0,86.0
560,169.78229775,169.986843,68.0,83.0
561,170.17190775,170.400803625,60.0,77.0
562,168.22385775,170.7725565,41.0,96.0
563,170.95112775,171.1491795,41.0,96.0
564,170.56151775,171.384568875,65.0,97.0
565,170.56151775,171.397555875,60.0,92.0
566,170.56151775,171.43164675,68.0,91.0
567,171.34073775000002,171.62969850000002,58.0,83.0
568,171.34073775000002,171.858594375,63.0,88.0
569,171.34073775000002,171.869958,67.0,83.0
570,171.73034775,171.991711125,58.0,79.0
571,172.11995775,172.702749375,67.0,97.0
572,171.34073775000002,172.81800900000002,39.0,88.0
573,172.11995775,172.81800900000002,63.0,94.0
574,172.50956775,172.891060875,58.0,79.0
575,172.89917775,173.16216450000002,58.0,90.0
576,172.89917775,173.44463175,63.0,92.0
577,173.28878775,173.5777485,58.0,92.0
578,172.89917775,173.904046875,39.0,99.0
579,173.67839775000002,174.1232025,67.0,93.0
580,173.67839775000002,174.134566125,63.0,96.0
581,174.06800775,174.2141115,58.0,91.0
582,174.45761775,174.73034475,56.0,86.0
583,174.45761775,174.949500375,61.0,91.0
584,174.84722775,175.27742212500002,56.0,93.0
585,175.23683775,175.35534412500002,61.0,88.0
586,175.23683775,175.39917525,65.0,92.0
587,175.62644775,175.73683725,56.0,68.0
588,176.01605775000002,176.4608625,65.0,95.0
589,176.01605775000002,176.494953375,61.0,92.0
590,176.40566775,176.56800525,56.0,85.0
591,174.45761775,176.6167065,37.0,91.0
592,176.79527775,176.98358925,56.0,94.0
593,176.79527775,177.251446125,61.0,95.0
594,177.18488775,177.280666875,56.0,83.0
595,176.79527775,177.280666875,65.0,95.0
596,177.57449775,178.043653125,60.0,90.0
597,177.57449775,178.08099075,63.0,86.0
598,178.35371775000002,178.532289,60.0,92.0
599,177.96410775,178.5517695,55.0,74.0
600,177.57449775,178.589107125,48.0,92.0
601,178.35371775000002,178.793652375,63.0,92.0
602,178.35371775000002,178.7985225,67.0,92.0
603,178.74332775,178.865080875,60.0,91.0
604,179.13293775,179.595599625,56.0,97.0
605,179.13293775,179.68650862500002,53.0,96.0
606,179.91215775,179.960859,53.0,86.0
607,179.13293775,180.287157375,41.0,93.0
608,179.52254775,180.293650875,48.0,82.0
609,180.30176775,180.45111825,53.0,101.0
610,179.91215775,180.520923375,65.0,92.0
611,180.69137775000002,180.73033875000002,56.0,83.0
612,180.69137775000002,181.326117375,61.0,85.0
613,180.69137775000002,181.39267575,58.0,80.0
614,181.08098775,181.6816365,53.0,86.0
615,181.47059775,181.90241550000002,58.0,85.0
616,181.47059775,181.920272625,61.0,88.0
617,181.86020775,182.374817625,53.0,75.0
618,182.24981775,182.623194,65.0,92.0
619,182.24981775,182.66540175,61.0,91.0
620,180.69137775000002,183.19624537500002,46.0,90.0
621,182.63942775,183.23033625,53.0,77.0
622,183.02903775000001,183.285531,58.0,90.0
623,183.02903775000001,183.32124525,61.0,92.0
624,183.02903775000001,183.33423225,65.0,95.0
625,183.41864775,183.5647515,46.0,91.0
626,183.80825775,183.91864725,39.0,93.0
627,183.80825775,184.34721825,58.0,90.0
628,184.19786775,184.53390637500002,46.0,76.0
629,183.80825775,185.079360375,63.0,91.0
630,184.97708775,185.19137325,58.0,96.0
631,185.36669775000001,185.59397025,58.0,93.0
632,185.36669775000001,185.78390512500002,67.0,92.0
633,185.36669775000001,185.81150250000002,63.0,95.0
634,185.75630775,185.94461925000002,58.0,78.0
635,186.14591775,186.324489,58.0,95.0
636,186.14591775,186.926761125,67.0,95.0
637,186.53552775,186.952735125,58.0,94.0
638,184.58747775,186.99981300000002,51.0,89.0
639,186.92513775,187.2140985,60.0,90.0
640,186.92513775,187.22708550000002,63.0,90.0
641,186.92513775,187.24331925,56.0,88.0
642,187.70435775,187.835851125,60.0,92.0
643,187.70435775,187.86669525,63.0,90.0
644,188.09396775,188.56149975,56.0,79.0
645,188.48357775,188.6946165,60.0,91.0
646,188.48357775,188.71572037500002,63.0,91.0
647,188.48357775,188.740071,68.0,86.0
648,188.87318775,189.129681,56.0,71.0
649,189.26279775,189.61507012500002,60.0,97.0
650,189.26279775,189.64591425,63.0,93.0
651,186.92513775,189.680005125,44.0,91.0
652,189.65240775,189.715719375,56.0,85.0
653,187.31474775,189.728706375,51.0,78.0
654,190.04201775,190.270913625,58.0,86.0
655,190.04201775,190.527406875,63.0,91.0
656,190.04201775,190.5517575,67.0,91.0
657,190.43162775000002,190.88130262500002,58.0,84.0
658,190.82123775,191.06149725,67.0,90.0
659,190.82123775,191.25630225,63.0,90.0
660,191.21084775,191.394289125,58.0,79.0
661,191.60045775,191.86019775,67.0,92.0
662,191.60045775,192.053379375,63.0,90.0
663,191.99006775,192.298509,58.0,66.0
664,190.04201775,192.493314,43.0,89.0
665,192.37967775,192.83422275,67.0,92.0
666,192.76928775000002,192.904027875,43.0,99.0
667,192.37967775,192.91214475,63.0,91.0
668,193.15889775,193.404027375,60.0,85.0
669,193.15889775,193.62967650000002,65.0,93.0
670,193.54850775,193.98357225,60.0,77.0
671,193.93811775,194.11344225,65.0,92.0
672,193.93811775,194.16863700000002,68.0,87.0
673,194.32772775,194.54038987500002,60.0,78.0
674,194.71733775,194.887792125,65.0,86.0
675,194.71733775,194.921883,68.0,83.0
676,195.10694775000002,195.335843625,60.0,77.0
677,193.15889775,195.7075965,41.0,96.0
678,195.88616775,196.08421950000002,41.0,96.0
679,195.49655775,196.319608875,65.0,97.0
680,195.49655775,196.332595875,60.0,92.0
681,195.49655775,196.36668675,68.0,91.0
682,196.27577775,196.5647385,58.0,83.0
683,196.27577775,196.793634375,63.0,88.0
684,196.27577775,196.804998,67.0,83.0
685,196.66538775,196.926751125,58.0,79.0
686,197.05499775,197.637789375,67.0,97.0
687,196.27577775,197.753049,39.0,88.0
688,197.05499775,197.753049,63.0,94.0
689,197.44460775000002,197.826100875,58.0,79.0
690,197.83421775,198.0972045,58.0,90.0
691,197.83421775,198.37967175,63.0,92.0
692,198.22382775,198.5127885,58.0,92.0
693,197.83421775,198.839086875,39.0,99.0
694,198.61343775,199.0582425,67.0,93.0
695,198.61343775,199.069606125,63.0,96.0
696,199.00304775,199.14915150000002,58.0,91.0
697,199.39265775,199.66538475000002,56.0,86.0
698,199.39265775,199.884540375,61.0,91.0
699,199.78226775000002,200.212462125,56.0,93.0
700,200.17187775,200.290384125,61.0,88.0
701,200.17187775,200.33421525,65.0,92.0
702,200.56148775,200.67187725,56.0,68.0
703,200.95109775,201.3959025,65.0,95.0
704,200.95109775,201.429993375,61.0,92.0
705,201.34070775,201.50304525,56.0,85.0
706,199.39265775,201.5517465,37.0,91.0
707,201.73031775,201.91862925,56.0,94.0
708,201.73031775,202.18648612500002,61.0,95.0
709,202.11992775000002,202.215706875,56.0,83.0
710,201.73031775,202.215706875,65.0,95.0
711,202.50953775,202.978693125,60.0,90.0
712,202.50953775,203.01603075,63.0,86.0
713,203.28875775,203.467329,60.0,92.0
714,202.89914775,203.4868095,55.0,74.0
715,202.50953775,203.524147125,48.0,92.0
716,203.28875775,203.728692375,63.0,92.0
717,203.28875775,203.7335625,67.0,92.0
718,203.67836775,203.800120875,60.0,91.0
719,204.06797775,204.530639625,56.0,97.0
720,204.06797775,204.621548625,53.0,96.0
721,204.84719775,204.89589900000001,53.0,86.0
722,204.06797775,205.222197375,41.0,93.0
723,204.45758775000002,205.228690875,48.0,82.0
724,205.23680775,205.38615825,53.0,101.0
725,204.84719775,205.455963375,65.0,92.0
726,205.62641775,205.66537875,56.0,83.0
727,205.62641775,206.261157375,61.0,85.0
728,205.62641775,206.32771575,58.0,80.0
729,206.01602775,206.6166765,53.0,86.0
730,206.40563775,206.8374555,58.0,85.0
731,206.40563775,206.855312625,61.0,88.0
732,206.79524775000002,207.309857625,53.0,75.0
733,207.18485775,207.558234,65.0,92.0
734,207.18485775,207.60044175000002,61.0,91.0
735,205.62641775,208.131285375,46.0,90.0
736,207.57446775,208.16537625,53.0,77.0
737,207.96407775,208.220571,58.0,90.0
738,207.96407775,208.25628525,61.0,92.0
739,207.96407775,208.26927225,65.0,95.0
740,208.35368775,208.49979150000001,46.0,91.0
741,208.74329775,208.85368725,39.0,93.0
742,208.74329775,209.28225825,58.0,90.0
743,209.13290775000002,209.468946375,46.0,76.0
744,208.74329775,210.014400375,63.0,91.0
745,209.91212775,210.12641325,58.0,96.0
746,210.30173775,210.52901025,58.0,93.0
747,210.30173775,210.718945125,67.0,92.0
748,210.30173775,210.7465425,63.0,95.0
749,210.69134775,210.87965925,58.0,78.0
750,211.08095775,211.25952900000001,58.0,95.0
751,211.08095775,211.861801125,67.0,95.0
752,211.47056775000001,211.88777512500002,58.0,94.0
753,209.52251775,211.934853,51.0,89.0
754,212.621540625,212.80335862500002,61.0,95.0
755,212.623164,213.220566,68.0,95.0
756,213.0062805,213.22543612500002,61.0,91.0
757,212.624787375,213.241669875,65.0,104.0
758,211.91212575,213.272514,41.0,92.0
759,213.387773625,213.654007125,63.0,89.0
760,213.389397,213.865045875,67.0,90.0
761,213.774136875,213.95108475,63.0,82.0
762,214.17186375,214.365045375,63.0,96.0
763,214.170240375,214.501408875,67.0,99.0
764,214.527382875,214.848811125,63.0,91.0
765,213.39913725,214.8504345,39.0,95.0
766,214.923486375,215.41212225,68.0,88.0
767,214.921863,215.43809625,64.0,91.0
768,214.921863,215.449459875,71.0,88.0
769,215.728680375,215.921862,64.0,91.0
770,215.727057,216.020887875,68.0,91.0
771,216.12640725,216.16861500000002,68.0,79.0
772,215.72381025,216.220563,76.0,90.0
773,215.725433625,216.23679675,71.0,91.0
774,215.30822625000002,216.345562875,47.0,74.0
775,216.098809875,216.350433,64.0,101.0
776,214.926733125,216.36666675,40.0,101.0
777,216.517640625,217.4626405125,68.0,91.0
778,216.507900375,217.4886991125,71.0,92.0
779,216.511147125,217.4935851,64.0,94.0
780,216.511147125,217.4952137625,76.0,90.0
781,217.5245296875,218.62989213749998,68.0,99.0
782,217.5147577125,218.64050533124998,71.0,97.0
783,217.5180150375,218.64993928125,76.0,91.0
784,216.520887375,218.65465625624998,47.0,92.0
785,216.519264,218.75371273124998,40.0,94.0
786,218.6864958375,218.94950560416663,61.0,90.0
787,218.6864958375,218.96245058749997,64.0,90.0
788,218.6864958375,218.97863181666665,57.0,88.0
789,219.43817872499997,219.56924668124998,61.0,92.0
790,219.43817872499997,219.59999101666665,64.0,90.0
791,219.82652822499998,220.29254762499997,57.0,79.0
792,220.21487772499998,220.42523370416663,61.0,91.0
793,220.21487772499998,220.44626930208332,64.0,91.0
794,220.21487772499998,220.47054114583332,69.0,86.0
795,220.60322722499998,220.8588906458333,57.0,71.0
796,220.991576725,221.34270939791665,61.0,97.0
797,220.991576725,221.37345373333332,64.0,93.0
798,218.6864958375,221.4074343145833,45.0,91.0
799,221.37992622499996,221.44303301875,57.0,85.0
800,219.04982922499997,221.4559780020833,52.0,78.0
801,221.76827572499997,221.99643105624997,59.0,86.0
802,221.76827572499997,222.25209447708332,64.0,91.0
803,221.76827572499997,222.27636632083332,68.0,91.0
804,222.15662522499997,222.60484527291663,59.0,84.0
805,222.54497472499997,222.78445691666664,68.0,90.0
806,222.54497472499997,222.97863166666664,64.0,90.0
807,222.93332422499998,223.11617211458332,59.0,79.0
808,223.32167372499998,223.58057339166663,68.0,92.0
809,223.32167372499998,223.77313001874998,64.0,90.0
810,223.710023225,224.01746657916664,59.0,66.0
811,221.76827572499997,224.21164132916664,44.0,89.0
812,224.098372725,224.55144714166664,68.0,92.0
813,224.48672222499997,224.6210264270833,44.0,99.0
814,224.098372725,224.62911704166663,64.0,91.0
815,224.87507172499997,225.11940828541665,61.0,85.0
816,224.87507172499997,225.3443273708333,66.0,93.0
817,225.26342122499997,225.69707816666664,61.0,77.0
818,225.65177072499998,225.82652799999997,66.0,92.0
819,225.65177072499998,225.88154417916664,69.0,87.0
820,226.04012022499998,226.2520943270833,61.0,78.0
821,226.42846972499999,226.59837263125,66.0,86.0
822,226.42846972499999,226.63235321249996,69.0,83.0
823,226.816819225,227.04497455624997,61.0,77.0
824,224.87507172499997,227.41552470416664,42.0,96.0
825,227.59351822499997,227.7909292208333,42.0,96.0
826,227.20516872499996,228.02555704374998,66.0,97.0
827,227.20516872499996,228.0385020270833,61.0,92.0
828,227.20516872499996,228.0724826083333,69.0,91.0
829,227.98186772499997,228.26989360416664,59.0,83.0
830,227.98186772499997,228.49804893541665,64.0,88.0
831,227.98186772499997,228.5093757958333,68.0,83.0
832,228.37021722499998,228.6307350145833,59.0,79.0
833,228.75856672499998,229.3394728520833,68.0,97.0
834,227.98186772499997,229.45435957916663,40.0,88.0
835,228.75856672499998,229.45435957916663,64.0,94.0
836,229.14691622499998,229.52717511041664,59.0,79.0
837,229.535265725,229.79740163749997,59.0,90.0
838,229.535265725,230.07895502499997,64.0,92.0
839,229.92361522499996,230.21164110416663,59.0,92.0
840,229.535265725,230.53688381041664,40.0,99.0
841,230.31196472499997,230.75533040416664,68.0,93.0
842,230.31196472499997,230.7666572645833,64.0,96.0
843,230.70031422499997,230.84594528749997,59.0,91.0
844,231.08866372499998,231.36050837499997,57.0,86.0
845,231.08866372499998,231.57895496874997,62.0,91.0
846,231.47701322499998,231.90581579791663,57.0,93.0
847,231.86536272499998,231.98348569791665,62.0,88.0
848,231.86536272499998,232.02717501666663,66.0,92.0
849,232.253712225,232.3637445833333,57.0,68.0
850,232.64206172499996,233.08542740416664,66.0,95.0
851,232.64206172499996,233.11940798541664,62.0,92.0
852,233.03041122499997,233.19222351666664,57.0,85.0
853,231.08866372499998,233.24076720416664,38.0,91.0
854,233.41876072499997,233.6064629833333,57.0,94.0
855,233.41876072499997,233.8734532645833,62.0,95.0
856,233.80711022499997,233.90257947708332,57.0,83.0
857,233.41876072499997,233.90257947708332,66.0,95.0
858,234.19545972499998,234.66309724791665,61.0,90.0
859,234.19545972499998,234.70031407499997,64.0,86.0
860,234.97215872499999,235.1501522458333,61.0,92.0
861,234.58380922499998,235.1695697208333,56.0,74.0
862,234.19545972499998,235.20678654791664,49.0,92.0
863,234.97215872499999,235.41067003541664,64.0,92.0
864,234.97215872499999,235.41552440416663,68.0,92.0
865,235.360508225,235.48186744375,61.0,91.0
866,235.74885772499997,236.21002275624997,57.0,97.0
867,235.74885772499997,236.3006376395833,54.0,96.0
868,236.52555672499997,236.57410041249997,54.0,86.0
869,235.74885772499997,236.89934311874998,42.0,93.0
870,236.13720722499997,236.90581561041665,49.0,82.0
871,236.91390622499998,237.0627735333333,54.0,101.0
872,236.52555672499997,237.13235281874998,66.0,92.0
873,237.30225572499998,237.34109067499998,57.0,83.0
874,237.30225572499998,237.93494178541664,62.0,85.0
875,237.30225572499998,238.00128482499997,59.0,80.0
876,237.69060522499998,238.28931070416664,54.0,86.0
877,238.078954725,238.5093754208333,59.0,85.0
878,238.078954725,238.52717477291665,62.0,88.0
879,238.46730422499996,238.9802491895833,54.0,75.0
880,238.85565372499997,239.22782199583332,66.0,92.0
881,238.85565372499997,239.26989319166665,62.0,91.0
882,237.30225572499998,239.79901938541664,47.0,90.0
883,239.24400322499997,239.83299996666665,54.0,77.0
884,239.63235272499998,239.88801614583332,59.0,90.0
885,239.63235272499998,239.92361484999998,62.0,92.0
886,239.63235272499998,239.93655983333332,66.0,95.0
887,240.02070222499998,240.16633328749998,47.0,91.0
888,240.40905172499998,240.51908408333333,40.0,93.0
889,240.40905172499998,240.9462685333333,59.0,90.0
890,240.797401225,241.13235266874997,47.0,76.0
891,240.40905172499998,241.72082963958334,64.0,91.0
892,241.60329237708333,241.85179960833332,59.0,96.0
893,242.05949148333332,242.3326286,59.0,93.0
894,242.05949148333332,242.56684784374997,68.0,92.0
895,242.05949148333332,242.60197179166664,64.0,95.0
896,242.53172389583332,242.7713931875,59.0,78.0
897,243.02759139583333,243.25533551041667,59.0,95.0
898,243.02759139583333,244.02504457291667,68.0,95.0
899,243.52504488541666,244.05823957291665,59.0,94.0
900,241.185750725,244.11660026041667,52.0,89.0
901,244.02296988541667,244.33088576041666,61.0,90.0
902,244.02296988541667,244.34387276041667,64.0,90.0
903,244.02296988541667,244.36010651041667,57.0,88.0
904,244.82114501041667,244.95263838541666,61.0,92.0
905,244.82114501041667,244.98348251041668,64.0,90.0
906,245.21075501041668,245.67828701041668,57.0,79.0
907,245.60036501041668,245.81140376041668,61.0,91.0
908,245.60036501041668,245.83250763541668,64.0,91.0
909,245.60036501041668,245.85685826041666,69.0,86.0
910,245.98997501041666,246.24646826041666,57.0,71.0
911,246.37958501041666,246.73185738541667,61.0,97.0
912,246.37958501041666,246.76270151041666,64.0,93.0
913,244.02296988541667,246.79679238541667,45.0,91.0
914,246.76919501041667,246.83250663541668,57.0,85.0
915,244.43153501041667,246.84549363541666,52.0,78.0
916,247.15880501041667,247.38770088541668,59.0,86.0
917,247.15880501041667,247.64419413541668,64.0,91.0
918,247.15880501041667,247.66854476041667,68.0,91.0
919,247.54841501041668,247.99808988541668,59.0,84.0
920,247.93802501041668,248.17828451041666,68.0,90.0
921,247.93802501041668,248.37308951041666,64.0,90.0
922,248.32763501041666,248.51107638541666,59.0,79.0
923,248.71724501041666,248.97698501041668,68.0,92.0
924,248.71724501041666,249.17016663541668,64.0,90.0
925,249.10685501041667,249.41529626041668,59.0,66.0
926,247.15880501041667,249.61010126041668,44.0,89.0
927,249.49646501041667,249.95101001041667,68.0,92.0
928,249.88607501041668,250.02081513541668,44.0,99.0
929,249.49646501041667,250.02893201041667,64.0,91.0
930,250.27568501041668,250.52081463541668,61.0,85.0
931,250.27568501041668,250.74646376041667,66.0,93.0
932,250.66529501041668,251.10035951041667,61.0,77.0
933,251.05490501041666,251.23022951041668,66.0,92.0
934,251.05490501041666,251.28542426041668,69.0,87.0
935,251.44451501041667,251.65717713541667,61.0,78.0
936,251.83412501041667,252.00457938541666,66.0,86.0
937,251.83412501041667,252.03867026041667,69.0,83.0
938,252.22373501041668,252.45263088541668,61.0,77.0
939,250.27568501041668,252.82438376041668,42.0,96.0
940,253.00295501041666,253.20100676041667,42.0,96.0
941,252.61334501041668,253.43639613541666,66.0,97.0
942,252.61334501041668,253.44938313541667,61.0,92.0
943,252.61334501041668,253.48347401041667,69.0,91.0
944,253.39256501041666,253.68152576041666,59.0,83.0
945,253.39256501041666,253.91042163541667,64.0,88.0
946,253.39256501041666,253.92178526041667,68.0,83.0
947,253.78217501041667,254.04353838541667,59.0,79.0
948,254.17178501041667,254.75457663541667,68.0,97.0
949,253.39256501041666,254.86983626041666,40.0,88.0
950,254.17178501041667,254.86983626041666,64.0,94.0
951,254.56139501041667,254.94288813541667,59.0,79.0
952,254.95100501041668,255.21399176041666,59.0,90.0
953,254.95100501041668,255.49645901041666,64.0,92.0
954,255.34061501041668,255.62957576041669,59.0,92.0
955,254.95100501041668,255.95587413541668,40.0,99.0
956,255.73022501041666,256.1750297604167,68.0,93.0
957,255.73022501041666,256.1863933854167,64.0,96.0
958,256.1198350104167,256.26593876041665,59.0,91.0
959,256.5094450104167,256.7821720104167,57.0,86.0
960,256.5094450104167,257.00132763541666,62.0,91.0
961,256.89905501041665,257.3292493854167,57.0,93.0
962,257.28866501041665,257.4071713854167,62.0,88.0
963,257.28866501041665,257.4510025104167,66.0,92.0
964,257.67827501041666,257.78866451041665,57.0,68.0
965,258.06788501041666,258.51268976041666,66.0,95.0
966,258.06788501041666,258.54678063541667,62.0,92.0
967,258.45749501041666,258.6198325104167,57.0,85.0
968,256.5094450104167,258.66853376041666,38.0,91.0
969,258.84710501041667,259.03541651041667,57.0,94.0
970,258.84710501041667,259.3032733854167,62.0,95.0
971,259.2367150104167,259.33249413541665,57.0,83.0
972,258.84710501041667,259.33249413541665,66.0,95.0
973,259.6263250104167,260.0954803854167,61.0,90.0
974,259.6263250104167,260.13281801041666,64.0,86.0
975,260.4055450104167,260.5841162604167,61.0,92.0
976,260.0159350104167,260.6035967604167,56.0,74.0
977,259.6263250104167,260.6409343854167,49.0,92.0
978,260.4055450104167,260.84547963541667,64.0,92.0
979,260.4055450104167,260.8503497604167,68.0,92.0
980,260.7951550104167,260.9169081354167,61.0,91.0
981,261.18476501041664,261.6474268854167,57.0,97.0
982,261.18476501041664,261.7383358854167,54.0,96.0
983,261.96398501041665,262.0126862604167,54.0,86.0
984,261.18476501041664,262.3389846354167,42.0,93.0
985,261.57437501041665,262.34547813541667,49.0,82.0
986,262.35359501041665,262.5029455104167,54.0,101.0
987,261.96398501041665,262.5727506354167,66.0,92.0
988,262.74320501041666,262.7821660104167,57.0,83.0
989,262.74320501041666,263.37794463541667,62.0,85.0
990,262.74320501041666,263.44450301041667,59.0,80.0
991,263.13281501041666,263.73346376041667,54.0,86.0
992,263.52242501041667,263.95424276041666,59.0,85.0
993,263.52242501041667,263.9720998854167,62.0,88.0
994,263.9120350104167,264.4266448854167,54.0,75.0
995,264.3016450104167,264.67502126041666,66.0,92.0
996,264.3016450104167,264.71722901041664,62.0,91.0
997,262.74320501041666,265.2480726354167,47.0,90.0
998,264.6912550104167,265.2821635104167,54.0,77.0
999,265.0808650104167,265.3373582604167,59.0,90.0
1000,265.0808650104167,265.37307251041665,62.0,92.0
1001,265.0808650104167,265.38605951041666,66.0,95.0
1002,265.4704750104167,265.61657876041664,47.0,91.0
1003,265.8828122604167,269.95060006666665,68.0,77.0
1004,265.9347602604167,269.9588782125,71.0,82.0
1005,265.8357343854167,269.97046761666667,64.0,80.0
1006,265.97696801041667,269.98040139166665,76.0,91.0
1007,265.9039161354167,270.0217921208333,40.0,91.0
1008,271.3918030333333,271.6320625333333,57.0,84.0
1009,271.0021930333333,271.6434261583333,52.0,78.0
1010,271.3918030333333,271.85284153333333,61.0,84.0
1011,271.7814130333333,272.25219178333333,57.0,83.0
1012,272.1710230333333,272.51842528333333,61.0,83.0
1013,272.1710230333333,272.5330356583333,64.0,84.0
1014,272.5606330333333,272.9843339083333,52.0,55.0
1015,270.61119610416665,273.1320610333333,45.0,86.0
1016,272.9502430333333,273.34147640833334,61.0,82.0
1017,272.9502430333333,273.4112815333333,64.0,88.0
1018,273.3398530333333,273.49732040833334,57.0,71.0
1019,273.72946303333333,274.2262157833333,59.0,77.0
1020,273.72946303333333,274.27329365833333,64.0,86.0
1021,274.5086830333333,274.7603061583333,59.0,79.0
1022,274.11907303333334,274.7765399083333,52.0,64.0
1023,274.5086830333333,274.78465678333333,64.0,82.0
1024,274.8982930333333,275.41777303333333,52.0,57.0
1025,275.2879030333333,275.6807597833333,59.0,75.0
1026,275.2879030333333,275.71809740833334,64.0,80.0
1027,276.0671230333333,276.2245904083333,59.0,89.0
1028,275.6775130333333,276.23920078333333,52.0,57.0
1029,273.72946303333333,276.33985003333333,44.0,83.0
1030,276.4567330333333,276.6158237833333,59.0,78.0
1031,276.0671230333333,276.8642001583333,64.0,89.0
1032,276.8463430333333,277.2034855333333,66.0,84.0
1033,276.8463430333333,277.3008880333333,61.0,79.0
1034,277.6255630333333,277.8625757833333,66.0,89.0
1035,277.6255630333333,277.8674459083333,61.0,83.0
1036,277.2359530333333,278.49406865833333,49.0,74.0
1037,278.40478303333333,278.77166578333333,61.0,81.0
1038,278.40478303333333,278.7927696583333,64.0,84.0
1039,278.79439303333334,279.2895224083333,49.0,74.0
1040,276.8463430333333,279.34958728333334,42.0,79.0
1041,279.1840030333333,279.4226391583333,61.0,87.0
1042,279.1840030333333,279.5005611583333,66.0,91.0
1043,279.9632230333333,280.21484615833333,59.0,78.0
1044,279.9632230333333,280.42588490833333,64.0,85.0
1045,280.3528330333333,280.5103004083333,59.0,79.0
1046,280.7424430333333,280.92588440833333,59.0,78.0
1047,280.7424430333333,280.98270253333334,64.0,81.0
1048,281.5216630333333,281.6840005333333,59.0,80.0
1049,281.5216630333333,281.8755587833333,64.0,82.0
1050,281.9112730333333,282.1109481583333,59.0,79.0
1051,279.9632230333333,282.4275062833333,52.0,87.0
1052,282.3008830333333,282.4859477833333,59.0,86.0
1053,282.3008830333333,282.6093242833333,64.0,90.0
1054,283.08010303333333,283.3284794083333,57.0,87.0
1055,283.08010303333333,283.6174401583333,62.0,87.0
1056,283.46971303333333,283.9615956583333,57.0,85.0
1057,283.85932303333334,284.31386803333334,62.0,81.0
1058,284.2489330333333,284.7229585333333,57.0,77.0
1059,283.08010303333333,284.9486076583333,50.0,90.0
1060,284.6385430333333,285.09146465833334,66.0,90.0
1061,284.6385430333333,285.1223087833333,62.0,84.0
1062,285.0281530333333,285.2294515333333,57.0,59.0
1063,285.4177630333333,285.6044511583333,57.0,90.0
1064,285.4177630333333,285.6499056583333,62.0,91.0
1065,285.4177630333333,285.6758796583333,66.0,91.0
1066,286.1969830333333,286.7797746583333,64.0,84.0
1067,286.1969830333333,286.7846447833333,61.0,83.0
1068,286.5865930333333,287.0833457833333,56.0,79.0
1069,286.9762030333333,287.1645145333333,61.0,89.0
1070,286.1969830333333,287.19048853333334,49.0,85.0
1071,286.9762030333333,287.4080207833333,68.0,87.0
1072,287.3658130333333,287.5752284083333,61.0,78.0
1073,286.9762030333333,287.6320465333333,64.0,90.0
1074,287.75542303333333,288.2765264083333,66.0,90.0
1075,287.75542303333333,288.3300977833333,61.0,87.0
1076,288.14503303333333,288.58983778333334,49.0,69.0
1077,287.75542303333333,288.6434091583333,42.0,88.0
1078,288.5346430333333,288.7083441583333,61.0,86.0
1079,288.5346430333333,288.7862661583333,66.0,90.0
1080,288.5346430333333,288.8187336583333,69.0,84.0
1081,289.3138630333333,289.9762000333333,57.0,85.0
1082,289.3138630333333,289.9762000333333,62.0,85.0
1083,289.7034730333333,290.2619140333333,54.0,75.0
1084,290.0930830333333,290.5167839083333,57.0,85.0
1085,290.0930830333333,290.5817189083333,62.0,84.0
1086,290.4826930333333,290.9599652833333,54.0,75.0
1087,290.8723030333333,291.29925065833334,59.0,80.0
1088,290.8723030333333,291.3414584083333,62.0,84.0
1089,291.2619130333333,291.7245749083333,54.0,74.0
1090,289.3138630333333,291.8268475333333,47.0,87.0
1091,291.6515230333333,291.8934059083333,57.0,86.0
1092,292.0411330333333,292.2018471583333,47.0,84.0
1093,291.6515230333333,292.3268470333333,62.0,86.0
1094,292.43074303333333,292.8966516583333,64.0,84.0
1095,292.43074303333333,292.9063919083333,59.0,83.0
1096,292.82035303333333,293.3917810333333,47.0,74.0
1097,293.20996303333334,293.71970278333333,59.0,83.0
1098,293.20996303333334,293.7895079083333,64.0,85.0
1099,293.9891830333333,294.25216978333333,59.0,77.0
1100,293.9891830333333,294.5216500333333,64.0,79.0
1101,293.5995730333333,294.89664965833333,47.0,70.0
1102,292.43074303333333,294.94210415833334,40.0,90.0
1103,294.7684030333333,294.9826885333333,64.0,86.0
1104,294.7684030333333,294.9989222833333,68.0,85.0
1105,295.4096361583333,296.1466484083333,55.0,79.0
1106,295.5833372833333,296.1580120333333,67.0,90.0
1107,295.5573632833333,296.3138560333333,62.0,80.0
1108,295.4794412833333,296.42911565833333,59.0,85.0
1109,296.3771676583333,298.8008665333333,55.0,79.0
1110,295.9583369083333,298.8706716583333,50.0,75.0
1111,295.54112953333333,299.1888531583333,43.0,90.0
1112,296.7992451583333,300.0005406583333,62.0,87.0
1113,297.35119265833333,300.0995665333333,67.0,84.0
1114,300.54924140833333,300.8106047833333,59.0,82.0
1115,300.7521632833333,301.0541110333333,61.0,75.0
1116,300.9907994083333,301.3528120333333,64.0,77.0
1117,301.2521627833333,301.65962990833333,57.0,59.0
1118,300.3414494083333,302.2472916583333,52.0,79.0
1119,300.07359253333334,302.3414474083333,45.0,86.0
