,start,end,pitch,velocity
0,28.17347071875,28.771530625,67.0,83.0
1,28.690711718750002,30.0452365875,76.0,83.0
2,31.79415771875,32.23596773958334,76.0,82.0
3,32.31139871875,32.51075202083334,74.0,82.0
4,32.57001921875,32.8512690125,72.0,76.0
5,32.828639718750004,33.49674267708333,71.0,82.0
6,33.60450121875,33.757518347916665,71.0,79.0
7,33.86312171875,34.12174221875,71.0,81.0
8,34.12174221875,34.63898321875,69.0,76.0
9,34.63898321875,35.67346521875,67.0,74.0
10,36.44932671875,36.60988694583334,67.0,79.0
11,36.70794721875,36.86419710416667,67.0,79.0
12,36.96656771875,37.60018794375,69.0,81.0
13,37.742429218750004,38.8447991,77.0,81.0
14,39.03553171875,39.573246841666666,76.0,85.0
15,39.55277271875,39.8210914875,79.0,77.0
16,39.81139321875,40.675616722916665,72.0,83.0
17,40.84587521875,40.99350442083333,76.0,83.0
18,41.10449571875,41.73596077291667,76.0,86.0
19,41.88035721875,42.64113252291667,74.0,85.0
20,42.656218718750004,43.234882087500004,69.0,82.0
21,43.17345971875,44.60018281041667,74.0,83.0
22,45.242423718750004,45.840483625000005,67.0,83.0
23,45.75966471875,47.1141895875,76.0,83.0
24,48.34586971875,48.60449021875,76.0,82.0
25,48.60449021875,48.86311071875,76.0,82.0
26,48.86311071875,49.12173121875,74.0,82.0
27,49.12173121875,49.38035171875,72.0,82.0
28,49.38035171875,49.897592718750005,71.0,76.0
29,50.156213218750004,50.67345421875,71.0,82.0
30,50.93207471875,51.19069521875,69.0,81.0
31,51.19069521875,52.483797718750004,67.0,76.0
32,53.00103871875,53.51827971875,67.0,79.0
33,53.51827971875,54.15189994375,69.0,81.0
34,54.29414121875,55.396511100000005,77.0,81.0
35,55.58724371875,56.12495884166667,76.0,85.0
36,56.10448471875,56.3728034875,79.0,77.0
37,56.36310521875,57.22732872291667,72.0,83.0
38,57.397587218750004,57.545216420833334,76.0,83.0
39,57.656207718750004,58.28767277291667,76.0,86.0
40,58.43206921875,59.192844522916666,74.0,85.0
41,59.725171718750005,60.303835087500005,76.0,82.0
42,60.50103321875,61.27689471875,74.0,83.0
43,61.27689471875,61.79413571875,69.0,82.0
44,61.79413571875,63.86309971875,72.0,82.0
45,69.03550971875,69.54844037708334,81.0,82.0
46,69.55275071875,70.10231928125,79.0,81.0
47,70.06999171875,70.32968980416668,76.0,87.0
48,70.32861221875001,70.58615513333334,79.0,81.0
49,70.58723271875,70.85447390208334,76.0,83.0
50,70.84585321875001,71.15404264791667,79.0,82.0
51,71.10447371875,71.68744742916667,76.0,83.0
52,71.62171471875,71.89326624375,74.0,82.0
53,71.88033521875,72.37602451041667,72.0,82.0
54,72.39757621875,73.2348600875,76.0,82.0
55,73.69067871875001,73.83723033541666,72.0,82.0
56,73.94929921875,74.16912664375,72.0,83.0
57,74.20791971875,74.88572094583334,83.0,83.0
58,74.98378121875,75.38895333541667,79.0,81.0
59,75.50102221875001,75.76179788958333,79.0,81.0
60,75.75964271875,76.29412508541667,76.0,85.0
61,76.27688371875,77.48593455625,79.0,77.0
62,78.08722721875,78.36847701250001,79.0,83.0
63,78.34584771875001,79.15403678125,81.0,82.0
64,79.12170921875,79.8555448875,84.0,81.0
65,79.89757071875,80.05920853125001,72.0,84.0
66,80.15619121875001,80.35338935,72.0,80.0
67,80.41481171875,81.16588875416667,76.0,83.0
68,81.19067321875,81.86093134791668,79.0,79.0
69,81.96653471875,82.20575868125,76.0,86.0
70,82.22515521875,82.49239640208333,79.0,79.0
71,82.48377571875001,83.02903393958334,76.0,88.0
72,83.00101671875001,83.15403384791666,74.0,83.0
73,83.25963721875,83.54627493958334,74.0,87.0
74,83.53980942708334,83.89972295625,72.0,87.0
75,83.88463676041667,84.24455028958333,69.0,84.0
76,84.22299858125001,84.76825680208334,72.0,83.0
77,84.81136021875,85.65726477083334,74.0,85.0
78,85.58722171875,86.10015237708333,81.0,82.0
79,86.10446271875,86.65403128125,79.0,81.0
80,86.62170371875,86.88140180416667,76.0,87.0
81,86.88032421875,87.13786713333333,79.0,81.0
82,87.13894471875,87.40618590208334,76.0,83.0
83,87.39756521875,87.70575464791666,79.0,82.0
84,87.65618571875001,88.23915942916668,76.0,83.0
85,88.17342671875001,88.44497824375,74.0,82.0
86,88.43204721875,88.92773651041666,72.0,82.0
87,88.94928821875,89.7865720875,76.0,82.0
88,89.98377021875001,90.24239071875,72.0,82.0
89,90.24239071875,90.38894233541667,72.0,82.0
90,90.50101121875001,90.72083864375,72.0,83.0
91,90.75963171875,91.43743294583334,83.0,83.0
92,91.53549321875,91.94066533541667,79.0,81.0
93,92.05273421875,92.31350988958334,79.0,81.0
94,92.31135471875001,92.84583708541668,76.0,85.0
95,92.82859571875001,94.03764655625001,79.0,77.0
96,94.38031871875,94.63893921875001,79.0,82.0
97,94.63893921875001,94.9201890125,79.0,83.0
98,94.89755971875,95.70574878125001,81.0,82.0
99,95.67342121875001,96.4072568875,84.0,81.0
100,96.44928271875,96.61092053125,72.0,84.0
101,96.70790321875,96.90510135000001,72.0,80.0
102,96.96652371875,97.71760075416667,76.0,83.0
103,97.74238521875,98.41264334791667,79.0,79.0
104,98.51824671875,98.75747068125,76.0,86.0
105,98.77686721875,99.04410840208334,79.0,79.0
106,99.03548771875,99.58074593958334,76.0,88.0
107,99.81134921875001,100.32859021875001,74.0,87.0
108,100.58721071875,100.72837440833334,67.0,83.0
109,100.84583121875,101.055960375,67.0,82.0
110,101.10445171875,101.728373675,76.0,83.0
111,101.88031321875,102.49561449166667,74.0,86.0
112,102.65617471875001,102.86845904583333,67.0,80.0
113,102.91479521875,103.64755330208334,69.0,82.0
114,103.69065671875,106.79194754791668,72.0,81.0
115,123.86305571875,124.461115625,67.0,83.0
116,124.38029671875,125.73482158750001,76.0,83.0
117,126.96650171875001,127.40831173958334,76.0,82.0
118,127.48374271875001,127.68309602083333,74.0,82.0
119,127.74236321875,128.0236130125,72.0,76.0
120,128.00098371875,128.66908667708333,71.0,82.0
121,128.77684521875,128.92986234791667,71.0,79.0
122,129.03546571875,129.29408621875,71.0,81.0
123,129.29408621875,129.81132721875,69.0,76.0
124,129.81132721875,130.84580921875,67.0,74.0
125,131.62167071875,131.78223094583333,67.0,79.0
126,131.88029121875002,132.03654110416667,67.0,79.0
127,132.13891171875,132.77253194375,69.0,81.0
128,132.91477321875,134.0171431,77.0,81.0
129,134.20787571875002,134.74559084166668,76.0,85.0
130,134.72511671875,134.9934354875,79.0,77.0
131,134.98373721875,135.84796072291667,72.0,83.0
132,136.01821921875,136.16584842083333,76.0,83.0
133,136.27683971875,136.90830477291667,76.0,86.0
134,137.05270121875,137.81347652291666,74.0,85.0
135,137.82856271875,138.4072260875,69.0,82.0
136,138.34580371875,139.77252681041668,74.0,83.0
137,140.41476771875,141.012827625,67.0,83.0
138,140.93200871875,142.2865335875,76.0,83.0
139,143.51821371875002,143.77683421875,76.0,82.0
140,143.77683421875,144.03545471875,76.0,82.0
141,144.03545471875,144.29407521875,74.0,82.0
142,144.29407521875,144.55269571875002,72.0,82.0
143,144.55269571875002,145.06993671875,71.0,76.0
144,145.32855721875,145.84579821875002,71.0,82.0
145,146.10441871875,146.36303921875,69.0,81.0
146,146.36303921875,147.65614171875,67.0,76.0
147,148.17338271875002,148.69062371875,67.0,79.0
148,148.69062371875,149.32424394375002,69.0,81.0
149,149.46648521875,150.5688551,77.0,81.0
150,150.75958771875,151.29730284166666,76.0,85.0
151,151.27682871875,151.5451474875,79.0,77.0
152,151.53544921875002,152.39967272291668,72.0,83.0
153,152.56993121875,152.71756042083334,76.0,83.0
154,152.82855171875,153.46001677291667,76.0,86.0
155,153.60441321875,154.36518852291667,74.0,85.0
156,154.89751571875001,155.47617908750001,76.0,82.0
157,155.67337721875,156.44923871875,74.0,83.0
158,156.44923871875,156.96647971875,69.0,82.0
159,156.96647971875,159.03544371875,72.0,82.0
160,164.20785371875002,164.72078437708333,81.0,82.0
161,164.72509471875,165.27466328125,79.0,81.0
162,165.24233571875,165.50203380416667,76.0,87.0
163,165.50095621875002,165.75849913333334,79.0,81.0
164,165.75957671875,166.02681790208334,76.0,83.0
165,166.01819721875,166.32638664791668,79.0,82.0
166,166.27681771875,166.85979142916668,76.0,83.0
167,166.79405871875,167.06561024375,74.0,82.0
168,167.05267921875,167.54836851041668,72.0,82.0
169,167.56992021875,168.40720408750002,76.0,82.0
170,168.86302271875002,169.0095743354167,72.0,82.0
171,169.12164321875,169.34147064375,72.0,83.0
172,169.38026371875,170.05806494583334,83.0,83.0
173,170.15612521875002,170.56129733541667,79.0,81.0
174,170.67336621875,170.93414188958334,79.0,81.0
175,170.93198671875,171.46646908541666,76.0,85.0
176,171.44922771875,172.65827855625,79.0,77.0
177,173.25957121875,173.5408210125,79.0,83.0
178,173.51819171875002,174.32638078125,81.0,82.0
179,174.29405321875,175.0278888875,84.0,81.0
180,175.06991471875,175.23155253125,72.0,84.0
181,175.32853521875,175.52573335,72.0,80.0
182,175.58715571875,176.33823275416668,76.0,83.0
183,176.36301721875,177.03327534791669,79.0,79.0
184,177.13887871875,177.37810268125,76.0,86.0
185,177.39749921875,177.66474040208334,79.0,79.0
186,177.65611971875,178.20137793958335,76.0,88.0
187,178.17336071875002,178.32637784791666,74.0,83.0
188,178.43198121875,178.71861893958334,74.0,87.0
189,178.71215342708334,179.07206695625,72.0,87.0
190,179.05698076041668,179.41689428958335,69.0,84.0
191,179.39534258125002,179.94060080208334,72.0,83.0
192,179.98370421875,180.82960877083335,74.0,85.0
193,180.75956571875,181.27249637708334,81.0,82.0
194,181.27680671875,181.82637528125,79.0,81.0
195,181.79404771875,182.05374580416668,76.0,87.0
196,182.05266821875,182.31021113333335,79.0,81.0
197,182.31128871875,182.57852990208335,76.0,83.0
198,182.56990921875,182.8780986479167,79.0,82.0
199,182.82852971875002,183.4115034291667,76.0,83.0
200,183.34577071875,183.61732224375,74.0,82.0
201,183.60439121875,184.10008051041666,72.0,82.0
202,184.12163221875,184.9589160875,76.0,82.0
203,185.15611421875002,185.41473471875,72.0,82.0
204,185.41473471875,185.56128633541667,72.0,82.0
205,185.67335521875,185.89318264375,72.0,83.0
206,185.93197571875,186.60977694583335,83.0,83.0
207,186.70783721875,187.11300933541668,79.0,81.0
208,187.22507821875,187.48585388958335,79.0,81.0
209,187.48369871875002,188.01818108541667,76.0,85.0
210,188.00093971875,189.20999055625,79.0,77.0
211,189.55266271875,189.81128321875002,79.0,82.0
212,189.81128321875002,190.0925330125,79.0,83.0
213,190.06990371875,190.87809278125002,81.0,82.0
214,190.84576521875002,191.57960088750002,84.0,81.0
215,191.62162671875,191.78326453125,72.0,84.0
216,191.88024721875001,192.07744535,72.0,80.0
217,192.13886771875002,192.88994475416666,76.0,83.0
218,192.91472921875,193.58498734791667,79.0,79.0
219,193.69059071875,193.92981468125,76.0,86.0
220,193.94921121875,194.21645240208335,79.0,79.0
221,194.20783171875001,194.75308993958333,76.0,88.0
222,194.98369321875,195.50093421875002,74.0,87.0
223,195.75955471875,195.90071840833335,67.0,83.0
224,196.01817521875,196.22830437500002,67.0,82.0
225,196.27679571875,196.900717675,76.0,83.0
226,197.05265721875,197.66795849166667,74.0,86.0
227,197.82851871875002,198.04080304583334,67.0,80.0
228,198.08713921875,198.81989730208335,69.0,82.0
229,198.86300071875002,201.96429154791667,72.0,81.0
230,213.86298971875001,214.37592037708333,82.0,82.0
231,214.38023071875,214.92979928125,80.0,81.0
232,214.89747171875,215.15716980416667,77.0,87.0
233,215.15609221875002,215.41363513333334,80.0,81.0
234,215.41471271875,215.68195390208334,77.0,83.0
235,215.67333321875,215.98152264791668,80.0,82.0
236,215.93195371875,216.51492742916668,77.0,83.0
237,216.44919471875002,216.72074624375,75.0,82.0
238,216.70781521875,217.20350451041668,73.0,82.0
239,217.22505621875,218.06234008750002,77.0,82.0
240,218.51815871875002,218.6647103354167,73.0,82.0
241,218.77677921875002,218.99660664375,73.0,83.0
242,219.03539971875,219.71320094583334,84.0,83.0
243,219.81126121875002,220.21643333541667,80.0,81.0
244,220.32850221875,220.58927788958334,80.0,81.0
245,220.58712271875,221.1216050854167,77.0,85.0
246,221.10436371875002,222.31341455625,80.0,77.0
247,222.91470721875,223.1959570125,80.0,83.0
248,223.17332771875002,223.98151678125,82.0,82.0
249,223.94918921875,224.6830248875,85.0,81.0
250,224.72505071875,224.88668853125,73.0,84.0
251,224.98367121875,225.18086935,73.0,80.0
252,225.24229171875,225.99336875416668,77.0,83.0
253,226.01815321875,226.68841134791668,80.0,79.0
254,226.79401471875002,227.03323868125,77.0,86.0
255,227.05263521875,227.31987640208334,80.0,79.0
256,227.31125571875,227.85651393958335,77.0,88.0
257,227.82849671875002,227.9815138479167,75.0,83.0
258,228.08711721875,228.37375493958334,75.0,87.0
259,228.36728942708334,228.72720295625,73.0,87.0
260,228.71211676041668,229.07203028958335,70.0,84.0
261,229.05047858125002,229.59573680208334,73.0,83.0
262,229.63884021875,230.48474477083334,75.0,85.0
263,230.41470171875,230.92763237708334,82.0,82.0
264,230.93194271875,231.48151128125002,80.0,81.0
265,231.44918371875002,231.70888180416668,77.0,87.0
266,231.70780421875,231.96534713333335,80.0,81.0
267,231.96642471875,232.23366590208335,77.0,83.0
268,232.22504521875,232.5332346479167,80.0,82.0
269,232.48366571875002,233.06663942916668,77.0,83.0
270,233.00090671875,233.27245824375,75.0,82.0
271,233.25952721875,233.7552165104167,73.0,82.0
272,233.77676821875002,234.6140520875,77.0,82.0
273,234.81125021875002,235.06987071875,73.0,82.0
274,235.06987071875,235.21642233541667,73.0,82.0
275,235.32849121875,235.54831864375,73.0,83.0
276,235.58711171875,236.26491294583334,84.0,83.0
277,236.36297321875,236.76814533541668,80.0,81.0
278,236.88021421875,237.14098988958335,80.0,81.0
279,237.13883471875002,237.67331708541667,77.0,85.0
280,237.65607571875,238.86512655625,80.0,77.0
281,239.20779871875,239.46641921875002,80.0,82.0
282,239.46641921875002,239.7476690125,80.0,83.0
283,239.72503971875,240.53322878125002,82.0,82.0
284,240.50090121875002,241.23473688750002,85.0,81.0
285,241.27676271875,241.43840053125,73.0,84.0
286,241.53538321875,241.73258135,73.0,80.0
287,241.79400371875002,242.54508075416666,77.0,83.0
288,242.56986521875,243.24012334791666,80.0,79.0
289,243.34572671875,243.58495068125,77.0,86.0
290,243.60434721875,243.87158840208335,80.0,79.0
291,243.86296771875,244.40822593958333,77.0,88.0
292,244.63882921875,245.15607021875002,75.0,87.0
293,245.41469071875002,245.55585440833335,68.0,83.0
294,245.67331121875,245.88344037500002,68.0,82.0
295,245.93193171875,246.555853675,77.0,83.0
296,246.70779321875,247.32309449166667,75.0,86.0
297,247.48365471875002,247.69593904583334,68.0,80.0
298,247.74227521875002,248.47503330208335,70.0,82.0
299,248.51813671875001,251.61942754791667,73.0,81.0
