,start,end,pitch,velocity
0,4.8976257187500005,5.428875329166667,50.0,77.0
1,5.41486671875,5.64115965625,52.0,77.0
2,5.93210771875,6.286633320833333,48.0,71.0
3,5.93210771875,6.380383252083334,55.0,79.0
4,4.38038471875,7.352365297916667,43.0,63.0
5,3.86314371875,7.421330764583334,36.0,81.0
6,9.03555371875,9.566803329166667,50.0,77.0
7,9.55279471875,9.77908765625,52.0,77.0
8,10.07003571875,10.424561320833334,48.0,71.0
9,10.07003571875,10.518311252083334,55.0,79.0
10,8.51831271875,11.490293297916667,43.0,63.0
11,8.00107171875,11.559258764583333,36.0,81.0
12,13.17348171875,13.715507183333333,50.0,77.0
13,13.690722718750001,14.016153514583333,52.0,84.0
14,14.207963718750001,15.24244571875,48.0,72.0
15,14.207963718750001,15.280161208333334,55.0,75.0
16,12.65624071875,15.308178429166666,43.0,67.0
17,12.13899971875,15.3814542375,36.0,81.0
18,17.31140971875,17.853435183333335,50.0,77.0
19,17.82865071875,18.154081514583336,52.0,84.0
20,18.34589171875,19.38037371875,48.0,72.0
21,18.34589171875,19.418089208333335,55.0,75.0
22,16.79416871875,19.44610642916667,43.0,67.0
23,16.276927718750002,19.5193822375,36.0,81.0
24,20.41485571875,20.975200135416667,64.0,81.0
25,20.41485571875,21.150846558333335,55.0,76.0
26,20.93209671875,21.285544735416668,60.0,74.0
27,20.93209671875,22.162699264583335,43.0,50.0
28,20.41485571875,22.32972500416667,36.0,76.0
29,21.96657871875,22.711190241666667,55.0,71.0
30,21.44933771875,22.863129785416668,62.0,74.0
31,23.51830171875,23.83511183125,50.0,81.0
32,23.00106071875,23.928861762500002,43.0,54.0
33,22.483819718750002,24.08511164791667,36.0,48.0
34,24.55278371875,25.23920562916667,48.0,69.0
35,25.58726571875,26.088342937500002,48.0,86.0
36,24.55278371875,26.151920477083333,55.0,74.0
37,26.104506718750002,26.245670408333336,60.0,78.0
38,26.62174771875,27.71226416041667,60.0,73.0
39,26.62174771875,27.92778124375,64.0,81.0
40,25.070024718750002,27.982738100000002,43.0,67.0
41,24.55278371875,28.05062598125,36.0,77.0
42,27.13898871875,28.334030945833334,67.0,76.0
43,27.65622971875,28.450410170833333,72.0,80.0
44,29.20795271875,29.996745243750002,55.0,58.0
45,29.725193718750003,30.70579644791667,62.0,70.0
46,30.24243471875,32.10450231875,55.0,59.0
47,28.690711718750002,32.18963156666667,48.0,77.0
48,30.75967571875,32.812475937500004,60.0,67.0
49,30.75967571875,34.37066445,64.0,74.0
50,33.86312171875,34.49781952916667,55.0,73.0
51,34.89760371875,35.82971510416667,64.0,82.0
52,34.38036271875,35.84587888541667,59.0,81.0
53,33.34588071875,35.92562020625,47.0,57.0
54,32.828639718750004,35.9676460375,40.0,75.0
55,36.96656771875,38.020446256250004,57.0,70.0
56,36.96656771875,38.04092037916667,60.0,77.0
57,38.001049718750004,38.72518711875,53.0,83.0
58,37.48380871875,38.85557495416667,48.0,70.0
59,36.96656771875,38.867428393750004,41.0,81.0
60,39.03553171875,39.540919279166665,55.0,73.0
61,39.03553171875,40.031220643750004,59.0,76.0
62,39.03553171875,41.07971125416667,40.0,73.0
63,39.55277271875,41.080788839583334,47.0,65.0
64,40.070013718750005,41.093719864583335,52.0,78.0
65,41.10449571875,42.15837425625,53.0,76.0
66,41.10449571875,42.175615622916666,50.0,70.0
67,41.10449571875,42.450399904166666,38.0,82.0
68,41.62173671875,42.46117575833333,45.0,67.0
69,42.13897771875,42.478417125,57.0,73.0
70,43.17345971875,43.86095921458333,59.0,73.0
71,43.17345971875,44.25427789166667,55.0,67.0
72,43.69070071875,44.382510556250004,50.0,69.0
73,43.17345971875,44.42561397291667,43.0,77.0
74,44.20794171875,45.11419105416667,62.0,74.0
75,44.72518271875,45.13897551875,55.0,73.0
76,44.20794171875,45.141130689583335,59.0,73.0
77,46.27690571875,46.73164676458334,62.0,73.0
78,46.79414671875,47.14328439375,60.0,71.0
79,46.79414671875,47.14651715,64.0,75.0
80,45.75966471875,47.720870177083334,55.0,72.0
81,47.828628718750004,48.518283385416666,55.0,50.0
82,45.242423718750004,48.577550583333334,48.0,83.0
83,48.34586971875,48.7758263,64.0,79.0
84,48.34586971875,48.796300422916666,60.0,75.0
85,49.38035171875,50.251040735416666,67.0,78.0
86,50.41483371875,50.99888501458334,59.0,82.0
87,50.93207471875,51.662677631250006,64.0,83.0
88,51.96655671875,52.58616833333333,59.0,67.0
89,49.897592718750005,52.80168541666667,47.0,56.0
90,49.38035171875,52.919142227083334,40.0,76.0
91,52.483797718750004,52.9848749375,67.0,78.0
92,53.00103871875,53.1271162125,59.0,86.0
93,53.51827971875,54.142201675,53.0,72.0
94,53.51827971875,54.638968552083334,57.0,67.0
95,53.51827971875,55.39866627083334,41.0,78.0
96,54.03552071875,55.44500244375,48.0,67.0
97,55.070002718750004,55.560304083333335,60.0,81.0
98,54.552761718750006,55.59478681666667,53.0,81.0
99,56.62172571875,57.17991496458333,55.0,80.0
100,57.138966718750005,57.35879414375,52.0,87.0
101,55.58724371875,57.39327687708334,40.0,83.0
102,56.10448471875,57.42883719583334,47.0,67.0
103,57.656207718750004,58.46870712291667,50.0,74.0
104,57.656207718750004,58.868491312500005,53.0,59.0
105,58.69068971875,59.237025525,57.0,81.0
106,58.17344871875,59.271508258333334,45.0,54.0
107,57.656207718750004,59.31137891875,38.0,82.0
108,59.20793071875,59.35448233541667,53.0,81.0
109,59.725171718750005,60.843705381250004,55.0,75.0
110,60.75965371875,61.438532531250004,62.0,80.0
111,60.24241271875,61.6034031,50.0,66.0
112,59.725171718750005,61.628187564583335,43.0,78.0
113,61.27689471875,61.87603221041667,55.0,82.0
114,61.79413571875,62.81568669375,60.0,76.0
115,62.82861771875,63.142195075000004,62.0,64.0
116,62.311376718750004,63.43745347916667,55.0,79.0
117,63.34585871875,63.75103083541667,64.0,74.0
118,64.38034071875,64.63141812083333,55.0,42.0
119,64.89758171875,65.15189187708333,55.0,79.0
120,64.89758171875,65.29952107916667,60.0,79.0
121,61.79413571875,65.38033998541667,48.0,82.0
122,65.93206371875,66.60339943333334,53.0,74.0
123,65.93206371875,66.93852849791666,60.0,77.0
124,66.96654571875,67.36848507916667,57.0,72.0
125,67.48378671875,67.93421742291667,65.0,76.0
126,68.51826871875001,68.961156325,53.0,68.0
127,66.44930471875,69.22839750833333,48.0,68.0
128,69.03550971875,69.62602652708334,57.0,79.0
129,69.03550971875,69.92236251666667,60.0,79.0
130,69.55275071875,69.94606939583333,53.0,80.0
131,65.93206371875,70.00318142291667,41.0,81.0
132,69.29413021875,70.01395727708334,48.0,76.0
133,70.06999171875,70.38249148958333,55.0,81.0
134,70.06999171875,70.58507754791667,60.0,80.0
135,70.58723271875,70.94283590625,55.0,74.0
136,70.84585321875001,71.14326679375,60.0,80.0
137,70.32861221875001,71.46330966250001,43.0,72.0
138,70.06999171875,71.51395617708333,36.0,79.0
139,71.36309421875,71.70792155208333,64.0,84.0
140,71.62171471875,71.97408515000001,55.0,76.0
141,71.88033521875,72.00641271250001,60.0,71.0
142,72.13895571875,72.29197284791667,55.0,81.0
143,72.13895571875,72.48917097916667,64.0,82.0
144,72.39757621875,72.73162769791666,55.0,73.0
145,72.65619671875,72.78011904166667,60.0,69.0
146,72.91481721875,73.0538257375,60.0,77.0
147,72.91481721875,73.51610988125,67.0,82.0
148,72.13895571875,73.64434254583334,48.0,82.0
149,73.43205821875,73.70468732916667,60.0,82.0
150,73.69067871875001,73.81783379791666,55.0,82.0
151,74.20791971875,74.47516090208333,52.0,75.0
152,74.20791971875,74.67128144791667,55.0,76.0
153,74.72516071875,74.99240190208333,52.0,82.0
154,74.98378121875,75.39110850625,59.0,82.0
155,75.50102221875001,75.90296157916667,55.0,83.0
156,74.20791971875,76.1443407125,40.0,84.0
157,74.46654021875,76.15296139583333,47.0,69.0
158,76.01826321875001,76.40727155416667,52.0,87.0
159,76.27688371875,76.83291779375,64.0,84.0
160,76.79412471875,77.03334868125,52.0,81.0
161,76.53550421875,77.15188307708334,47.0,71.0
162,77.05274521875,77.65511546666667,59.0,79.0
163,76.27688371875,77.75533091041667,40.0,83.0
164,77.56998621875,78.1551151,55.0,81.0
165,77.82860671875001,78.39541664791668,52.0,81.0
166,78.86308871875,79.49455377291667,53.0,82.0
167,79.12170921875,79.50317445625001,60.0,81.0
168,79.63895021875,79.9331310375,57.0,82.0
169,78.60446821875,80.00532926041667,48.0,68.0
170,78.34584771875001,80.00856201666667,41.0,86.0
171,80.15619121875001,80.26718251666667,57.0,70.0
172,79.89757071875,80.28011354166667,53.0,82.0
173,80.41481171875,80.71869080625001,52.0,80.0
174,80.41481171875,80.90726825416667,55.0,81.0
175,80.93205271875,81.86955203125001,52.0,82.0
176,81.19067321875,82.00425020833333,59.0,79.0
177,81.70791421875,82.01610364791667,55.0,75.0
178,80.67343221875001,82.124939775,47.0,70.0
179,80.41481171875,82.25209485416667,40.0,78.0
180,82.22515521875,82.31674997916667,52.0,82.0
181,81.96653471875,82.45791366875001,64.0,84.0
182,82.48377571875001,83.04627530625001,62.0,77.0
183,83.00101671875001,83.35123197916667,57.0,83.0
184,83.25963721875,83.7995075125,62.0,82.0
185,82.74239621875,83.82752473333333,45.0,72.0
186,82.48377571875001,83.909421225,38.0,84.0
187,83.77687821875,84.3620071,65.0,82.0
188,84.03549871875,84.36955019791667,57.0,78.0
189,84.29411921875,85.04627383958334,62.0,70.0
190,85.06998071875,85.23808404375,55.0,81.0
191,84.81136021875,85.40510978333333,50.0,73.0
192,85.32860121875001,85.69282508958334,55.0,79.0
193,85.32860121875001,85.70791128541667,62.0,85.0
194,85.58722171875,85.99885934791666,50.0,79.0
195,85.84584221875001,86.0171783,55.0,80.0
196,85.84584221875001,86.22299711458334,62.0,83.0
197,85.84584221875001,86.24131606666667,67.0,75.0
198,84.55273971875,86.27256604375,43.0,82.0
199,86.10446271875,86.33183324166667,55.0,82.0
200,86.62170371875,86.75963465208334,55.0,81.0
201,86.62170371875,86.92450522083334,60.0,78.0
202,86.88032421875,87.22191879583333,55.0,79.0
203,87.13894471875,87.28334116458333,60.0,75.0
204,87.39756521875,87.92342690208334,62.0,82.0
205,86.62170371875,88.0926078125,48.0,86.0
206,87.91480621875,88.43204721875,60.0,84.0
207,88.43204721875,88.76502111250001,55.0,84.0
208,88.69066771875,89.1270898125,64.0,83.0
209,88.94928821875,89.30381382083334,55.0,78.0
210,89.20790871875,89.35446033541668,60.0,76.0
211,89.46652921875,89.89109787291667,55.0,81.0
212,89.46652921875,90.04734775833333,62.0,81.0
213,88.69066771875,90.07428739375,48.0,84.0
214,89.98377021875001,90.2908820625,60.0,83.0
215,90.24239071875,90.36739062708334,55.0,83.0
216,90.75963171875,91.02795048750001,59.0,75.0
217,90.75963171875,91.36738989375,64.0,81.0
218,91.27687271875,91.42773467708334,59.0,81.0
219,91.53549321875,91.83290679375,59.0,80.0
220,91.53549321875,91.89217399166667,67.0,75.0
221,92.05273421875,92.20682893333334,64.0,82.0
222,91.01825221875,92.53764765625,47.0,70.0
223,90.75963171875,92.65941480833334,40.0,82.0
224,92.56997521875,92.88247498958334,59.0,82.0
225,92.82859571875001,93.39217289166668,64.0,82.0
226,93.34583671875001,93.47622455416668,59.0,83.0
227,93.60445721875,94.05057758125001,64.0,84.0
228,93.60445721875,94.06889653333333,59.0,82.0
229,94.12169821875,94.45143935625,67.0,82.0
230,93.08721621875,94.49023243125,47.0,71.0
231,92.82859571875001,94.51178413958334,40.0,82.0
232,94.38031871875,94.52794792083334,59.0,82.0
233,94.89755971875,95.18204226875001,53.0,77.0
234,94.89755971875,95.42342140208333,57.0,76.0
235,95.41480071875,95.60230058125,53.0,80.0
236,95.67342121875001,96.05596404166667,60.0,81.0
237,96.19066221875,96.32320522500001,57.0,83.0
238,95.15618021875001,96.50316198958333,48.0,75.0
239,94.89755971875,96.6529463625,41.0,81.0
240,96.96652371875,97.25747178125,59.0,77.0
241,96.96652371875,97.56781638125,64.0,81.0
242,97.48376471875001,97.61415255416667,59.0,83.0
243,97.74238521875,98.09044530833334,59.0,83.0
244,97.74238521875,98.24992795,67.0,81.0
245,98.25962621875,98.57320357500001,64.0,82.0
246,97.22514421875,98.61415182083334,47.0,71.0
247,96.96652371875,98.67557418958334,40.0,83.0
248,98.51824671875,98.68096211666668,59.0,81.0
249,99.03548771875,99.28548753541666,57.0,73.0
250,99.03548771875,99.54410803541667,62.0,76.0
251,99.55272871875,99.75962511875001,57.0,78.0
252,99.29410821875,100.27471094791667,45.0,68.0
253,99.03548771875,100.34583158541668,38.0,83.0
254,99.81134921875001,100.37169363541668,65.0,84.0
255,100.32859021875001,100.60229691458333,62.0,83.0
256,100.58721071875,100.86846051250001,57.0,82.0
257,100.84583121875,101.59798583958333,62.0,77.0
258,101.62169271875,101.73376160208333,55.0,82.0
259,101.88031321875,102.53225239583334,55.0,84.0
260,101.88031321875,102.61091613125001,62.0,82.0
261,102.65617471875001,102.866303875,59.0,87.0
262,101.36307221875,102.90832970625,50.0,75.0
263,101.10445171875,102.99992446666667,43.0,81.0
264,102.91479521875,103.1055278375,55.0,68.0
265,103.17341571875001,103.47621722083333,60.0,82.0
266,103.43203621875,103.78117389375001,55.0,79.0
267,103.69065671875,103.83720833541668,60.0,74.0
268,103.94927721875,104.53548368541666,62.0,81.0
269,104.46651821875001,104.7736300625,60.0,79.0
270,104.72513871875,105.05703502708334,55.0,82.0
271,103.17341571875001,105.12384532291667,48.0,86.0
272,104.98375921875001,105.56565534375001,64.0,81.0
273,105.75962071875,105.86953443125,55.0,87.0
274,105.50100021875001,106.07750841666667,50.0,77.0
275,106.01824121875,106.383542675,55.0,86.0
276,106.01824121875,106.43311160416667,62.0,83.0
277,106.27686171875,106.66479246875001,50.0,85.0
278,106.53548221875,106.72837000833334,55.0,86.0
279,106.53548221875,107.10660248958334,59.0,88.0
280,107.05272321875,107.26931788750001,55.0,82.0
281,106.79410271875001,107.31026613333334,50.0,84.0
282,105.24237971875,107.32750750000001,43.0,83.0
283,107.31134371875001,107.650783125,55.0,81.0
284,107.31134371875001,107.90401569791668,60.0,78.0
285,107.82858471875001,108.0451793875,55.0,83.0
286,108.08720521875,108.13892931875,55.0,50.0
287,108.08720521875,108.40078257500001,64.0,83.0
288,108.60444621875,108.90293737916667,60.0,90.0
289,107.56996421875,109.19927336875,43.0,63.0
290,107.31134371875001,109.228368175,36.0,80.0
291,108.86306671875,109.68203163541668,55.0,82.0
292,109.12168721875,109.97405728333334,64.0,81.0
293,109.89754871875,110.09690202083334,55.0,77.0
294,109.63892821875001,110.32319495833333,43.0,69.0
295,110.15616921875001,110.53547928541667,55.0,66.0
296,110.15616921875001,110.53763445625,60.0,82.0
297,110.67341021875,110.76931532083334,55.0,82.0
298,110.41478971875,110.91909969375,43.0,71.0
299,109.38030771875,111.00099618541667,36.0,74.0
300,110.67341021875,111.00853928333333,60.0,86.0
301,110.93203071875,111.44388379166666,55.0,81.0
302,111.44927171875,111.99237476875001,60.0,83.0
303,111.96651271875001,112.12384018958333,53.0,78.0
304,112.22513321875,112.87276205416667,60.0,82.0
305,112.22513321875,113.01715850000001,53.0,82.0
306,113.00099471875001,113.16047736041668,55.0,74.0
307,113.00099471875001,113.2951755375,57.0,70.0
308,111.70789221875,113.3339686125,48.0,71.0
309,111.44927171875,113.33935653958333,36.0,82.0
310,113.25961521875,113.7736234625,53.0,81.0
311,114.03547671875,114.18741626250001,53.0,80.0
312,114.29409721875001,114.6400021375,53.0,82.0
313,114.29409721875001,114.65077799166667,60.0,80.0
314,114.81133821875001,115.10013111041667,57.0,83.0
315,113.51823571875,115.40508778333334,36.0,81.0
316,113.77685621875,115.41263088125001,48.0,73.0
317,115.06995871875,115.58935488958333,53.0,82.0
318,116.10444071875,116.24452682291667,55.0,83.0
319,116.36306121875,116.86198326666667,55.0,81.0
320,116.36306121875,117.15185374375001,60.0,79.0
321,117.13892271875001,117.4654311,55.0,81.0
322,115.84582021875,117.52685346875,50.0,72.0
323,115.58719971875,117.53978449375,36.0,83.0
324,117.39754321875,117.57103447083334,60.0,76.0
325,117.65616371875001,117.95573246458333,55.0,81.0
326,117.65616371875001,118.20142193958334,59.0,80.0
327,118.17340471875,118.28439601666668,55.0,69.0
328,117.91478421875,118.56672339583334,50.0,73.0
329,118.43202521875,118.99991273333333,55.0,81.0
330,118.43202521875,119.11198161666667,59.0,82.0
331,118.43202521875,119.31025733333334,62.0,81.0
332,118.94926621875001,119.34258489583334,50.0,77.0
333,117.65616371875001,119.51715373333334,36.0,81.0
334,119.20788671875,119.56241232083333,55.0,85.0
335,119.46650721875001,119.57642093125,59.0,78.0
336,119.72512771875,120.00961026875001,53.0,76.0
337,119.72512771875,120.24775664583333,57.0,81.0
338,120.24236871875,120.58827363750001,53.0,81.0
339,120.50098921875001,121.06025605,60.0,84.0
340,119.98374821875001,121.61844529583334,48.0,68.0
341,119.72512771875,121.63784183333334,41.0,81.0
342,121.27685071875,122.081807025,53.0,82.0
343,121.53547121875,122.35551372083334,60.0,75.0
344,121.01823021875,122.37059991666668,65.0,83.0
345,122.31133271875001,122.469737775,53.0,80.0
346,122.56995321875,123.1486165875,53.0,78.0
347,122.56995321875,123.39753881875001,60.0,82.0
348,122.56995321875,123.74990925,65.0,81.0
349,123.34581471875,123.78115922708334,53.0,86.0
350,123.60443521875,123.8468919375,60.0,75.0
351,121.79409171875001,123.86952123125,41.0,81.0
352,122.05271221875,123.87167640208334,48.0,71.0
353,123.86305571875,123.87167640208334,48.0,83.0
354,124.12167621875001,124.48158974791667,55.0,71.0
355,124.38029671875,124.64753790208334,60.0,72.0
356,124.63891721875001,125.09473585,62.0,81.0
357,125.15615821875001,125.38352874166667,60.0,82.0
358,125.67339921875,125.99451967291667,55.0,72.0
359,125.93201971875,126.35120044583334,64.0,82.0
360,126.19064021875,126.53331238125,55.0,76.0
361,126.44926071875001,126.56779511458333,60.0,72.0
362,126.70788121875,127.06025165,55.0,77.0
363,126.70788121875,127.06887233333333,64.0,83.0
364,125.93201971875,127.62921675000001,48.0,83.0
365,127.22512221875,127.91262171458334,60.0,77.0
366,127.48374271875001,128.11197501666666,55.0,73.0
367,128.51822471875,129.18956043333333,52.0,78.0
368,128.25960421875,129.39645683333333,47.0,67.0
369,129.29408621875,129.85874097708333,59.0,74.0
370,128.00098371875,129.86412890416668,40.0,83.0
371,129.81132721875,130.38891300208334,52.0,77.0
372,128.77684521875,130.64968867291668,64.0,84.0
373,130.58718871875,131.32317955833335,52.0,74.0
374,130.06994771875,131.51714493333333,40.0,81.0
375,130.32856821875,131.51930010416666,47.0,65.0
376,130.84580921875,131.66692930625,59.0,81.0
377,131.62167071875,131.9287825625,52.0,77.0
378,131.36305021875,132.19925650208333,64.0,81.0
379,131.88029121875002,132.25744611458333,59.0,67.0
380,132.65615271875,133.00636797916667,53.0,76.0
381,132.91477321875,133.51391071041667,60.0,81.0
382,133.43201421875,134.02468619791668,57.0,74.0
383,133.94925521875,134.0494706625,60.0,42.0
384,132.13891171875,134.05485858958335,41.0,78.0
385,132.39753221875,134.05701376041668,48.0,71.0
386,133.94925521875,134.56455649166668,65.0,76.0
387,134.20787571875002,134.74990118333335,64.0,82.0
388,134.72511671875,135.10011644375,59.0,82.0
389,134.98373721875,135.30916801458335,64.0,86.0
390,134.46649621875,135.49990063333334,47.0,71.0
391,134.20787571875002,135.56563334375,40.0,82.0
392,135.50097821875,135.80377972083335,67.0,81.0
393,135.75959871875,135.88675379791667,59.0,82.0
394,136.27683971875,136.44602062916667,57.0,72.0
395,136.27683971875,136.58071880625002,62.0,77.0
396,136.53546021875002,136.88028755208333,57.0,76.0
397,136.79408071875,137.08287361041667,62.0,74.0
398,137.05270121875,137.54300258333333,65.0,81.0
399,137.56994221875001,137.84795925625,57.0,81.0
400,136.27683971875,137.97619192083334,50.0,82.0
401,137.82856271875,138.19925210208334,62.0,75.0
402,138.08718321875,138.53869150833333,57.0,73.0
403,138.86304471875002,139.18847551458333,55.0,83.0
404,138.60442421875,139.68308722083333,50.0,72.0
405,139.63890621875,139.9589490875,55.0,77.0
406,138.34580371875,140.35334535,43.0,82.0
407,139.89752671875002,140.37597464375,50.0,81.0
408,139.12166521875,140.40937979166668,62.0,81.0
409,140.15614721875,140.4373970125,55.0,83.0
410,140.67338821875,140.99235350208335,55.0,84.0
411,140.93200871875,141.21110334166667,60.0,78.0
412,141.19062921875002,141.5171376,64.0,82.0
413,141.70787021875,142.0279130875,60.0,81.0
414,140.41476771875,142.11519750625,48.0,86.0
415,141.96649071875,142.48480930416667,55.0,78.0
416,142.22511121875002,142.78868839166668,60.0,77.0
417,142.74235221875,143.11196401666666,55.0,78.0
418,143.00097271875,143.29407595208335,60.0,74.0
419,143.25959321875,143.7412739,64.0,77.0
420,143.77683421875,144.06778228125,60.0,75.0
421,142.48373171875,144.08717881875,48.0,87.0
422,144.03545471875,144.17015289583333,55.0,82.0
423,144.55269571875002,144.84256619583334,59.0,74.0
424,144.55269571875002,145.14644528333335,64.0,77.0
425,145.06993671875,145.42769507708334,59.0,71.0
426,144.81131621875,145.56347083958335,47.0,70.0
427,144.55269571875002,145.57316910833333,40.0,83.0
428,145.32855721875,145.85441890208335,67.0,78.0
429,145.84579821875002,146.14428937916668,64.0,81.0
430,146.10441871875,146.46433224791667,59.0,81.0
431,146.36303921875,146.84148714375002,64.0,81.0
432,146.88028021875002,147.50204700416668,47.0,67.0
433,147.39752121875,147.9244604875,59.0,82.0
434,147.13890071875,147.97510700208335,52.0,76.0
435,147.65614171875,148.19708959791666,47.0,77.0
436,146.62165971875,148.25096886875,40.0,81.0
437,147.91476221875,148.25635679583334,57.0,72.0
438,148.43200321875,148.57855483541667,52.0,81.0
439,149.20786471875002,149.39967492291666,53.0,80.0
440,149.46648521875,149.71756262083335,53.0,70.0
441,149.46648521875,149.82747633333335,60.0,82.0
442,149.98372621875,150.28868289166667,57.0,83.0
443,148.94924421875,150.51928617083334,48.0,73.0
444,148.69062371875,150.54407063541666,41.0,82.0
445,150.24234671875,150.62919988333334,53.0,82.0
446,150.75958771875,151.04945819583335,52.0,78.0
447,150.75958771875,151.280061475,55.0,74.0
448,151.27682871875,151.62704397916667,52.0,79.0
449,151.53544921875002,151.74019044791666,55.0,83.0
450,152.05269021875,152.10872466041667,55.0,63.0
451,151.01820821875,152.21432803125,47.0,70.0
452,150.75958771875,152.27144005833333,40.0,82.0
453,152.31131071875,152.4309227,52.0,86.0
454,152.05269021875,152.49773299583333,64.0,85.0
455,152.82855171875,153.01712916666668,57.0,74.0
456,152.82855171875,153.13135322083335,62.0,75.0
457,153.08717221875,153.43199955208334,57.0,74.0
458,153.34579271875,153.51389604375,62.0,73.0
459,153.60441321875,154.12704214583334,65.0,82.0
460,152.82855171875,154.39212815833335,50.0,82.0
461,154.12165421875,154.39320574375,62.0,78.0
462,154.38027471875,154.7585072,57.0,75.0
463,154.63889521875,155.49449803958333,62.0,75.0
464,155.41475671875,155.53544628541667,55.0,77.0
465,155.15613621875,155.84148054375,50.0,73.0
466,155.67337721875,156.21648026875002,55.0,83.0
467,155.67337721875,156.52574728333335,62.0,81.0
468,156.44923871875,156.91475561875,55.0,83.0
469,156.19061821875002,156.93522974166666,50.0,82.0
470,156.70785921875,156.95354869375,59.0,79.0
471,154.89751571875001,156.9632469625,43.0,82.0
472,156.95678145,157.97725483958334,60.0,76.0
473,157.99126345000002,158.30376322083333,62.0,64.0
474,157.47402245,158.599021625,55.0,79.0
475,158.50850445,158.91259898125,64.0,74.0
476,159.54298645,159.79298626666667,55.0,42.0
477,160.06022745,160.31346002291667,55.0,79.0
478,160.06022745,160.46216681041668,60.0,79.0
479,156.95678145,160.54190813125,48.0,82.0
480,161.09470945,161.76604516458335,53.0,74.0
481,161.09470945,162.10009664375,60.0,77.0
482,162.12919145,162.53113081041667,57.0,72.0
483,162.64643245000002,163.09578556875002,65.0,76.0
484,163.68091445000002,164.12380205625,53.0,68.0
485,161.61195045,164.38996565416667,48.0,68.0
486,164.19815545,164.78867225833335,57.0,79.0
487,164.19815545,165.08500824791668,60.0,79.0
488,164.71539645000001,165.10763754166666,53.0,80.0
489,161.09470945,165.16474956875,41.0,81.0
490,164.45677595,165.17552542291668,48.0,76.0
491,165.24233571875,165.55483548958333,55.0,81.0
492,165.24233571875,165.75742154791666,60.0,80.0
493,165.75957671875,166.11517990625,55.0,74.0
494,166.01819721875,166.31561079375,60.0,80.0
495,165.50095621875002,166.6356536625,43.0,72.0
496,165.24233571875,166.68630017708335,36.0,79.0
497,166.53543821875002,166.88026555208333,64.0,84.0
498,166.79405871875,167.14642915000002,55.0,76.0
499,167.05267921875,167.17875671250002,60.0,71.0
500,167.31129971875,167.46431684791668,55.0,81.0
501,167.31129971875,167.66151497916667,64.0,82.0
502,167.56992021875,167.90397169791666,55.0,73.0
503,167.82854071875002,167.95246304166668,60.0,69.0
504,168.08716121875,168.22616973750002,60.0,77.0
505,168.08716121875,168.68845388125,67.0,82.0
506,167.31129971875,168.81668654583333,48.0,82.0
507,168.60440221875,168.87703132916667,60.0,82.0
508,168.86302271875002,168.9901777979167,55.0,82.0
509,169.38026371875,169.64750490208334,52.0,75.0
510,169.38026371875,169.84362544791668,55.0,76.0
511,169.89750471875,170.16474590208335,52.0,82.0
512,170.15612521875002,170.56345250625,59.0,82.0
513,170.67336621875,171.07530557916667,55.0,83.0
514,169.38026371875,171.3166847125,40.0,84.0
515,169.63888421875,171.32530539583334,47.0,69.0
516,171.19060721875002,171.57961555416668,52.0,87.0
517,171.44922771875,172.00526179375,64.0,84.0
518,171.96646871875,172.20569268125,52.0,81.0
519,171.70784821875,172.32422707708335,47.0,71.0
520,172.22508921875,172.82745946666668,59.0,79.0
521,171.44922771875,172.92767491041667,40.0,83.0
522,172.74233021875,173.3274591,55.0,81.0
523,173.00095071875,173.56776064791669,52.0,81.0
524,174.03543271875,174.66689777291668,53.0,82.0
525,174.29405321875,174.67551845625002,60.0,81.0
526,174.81129421875002,175.1054750375,57.0,82.0
527,173.77681221875,175.17767326041667,48.0,68.0
528,173.51819171875002,175.18090601666668,41.0,86.0
529,175.32853521875,175.43952651666666,57.0,70.0
530,175.06991471875,175.45245754166666,53.0,82.0
531,175.58715571875,175.89103480625002,52.0,80.0
532,175.58715571875,176.07961225416668,55.0,81.0
533,176.10439671875,177.04189603125002,52.0,82.0
534,176.36301721875,177.17659420833334,59.0,79.0
535,176.88025821875001,177.18844764791666,55.0,75.0
536,175.84577621875002,177.297283775,47.0,70.0
537,175.58715571875,177.42443885416668,40.0,78.0
538,177.39749921875,177.48909397916668,52.0,82.0
539,177.13887871875,177.63025766875,64.0,84.0
540,177.65611971875,178.21861930625002,62.0,77.0
541,178.17336071875002,178.52357597916668,57.0,83.0
542,178.43198121875,178.9718515125,62.0,82.0
543,177.91474021875,178.99986873333333,45.0,72.0
544,177.65611971875,179.081765225,38.0,84.0
545,178.94922221875,179.5343511,65.0,82.0
546,179.20784271875002,179.54189419791666,57.0,78.0
547,179.46646321875,180.21861783958335,62.0,70.0
548,180.24232471875,180.41042804375002,55.0,81.0
549,179.98370421875,180.57745378333334,50.0,73.0
550,180.50094521875002,180.86516908958333,55.0,79.0
551,180.50094521875002,180.88025528541667,62.0,85.0
552,180.75956571875,181.17120334791667,50.0,79.0
553,181.01818621875,181.1895223,55.0,80.0
554,181.01818621875,181.39534111458335,62.0,83.0
555,181.01818621875,181.41366006666667,67.0,75.0
556,179.72508371875,181.44491004375,43.0,82.0
557,181.27680671875,181.50417724166667,55.0,82.0
558,181.79404771875,181.93197865208333,55.0,81.0
559,181.79404771875,182.09684922083335,60.0,78.0
560,182.05266821875,182.39426279583333,55.0,79.0
561,182.31128871875,182.45568516458334,60.0,75.0
562,182.56990921875,183.09577090208333,62.0,82.0
563,181.79404771875,183.26495181250002,48.0,86.0
564,183.08715021875,183.60439121875,60.0,84.0
565,183.60439121875,183.9373651125,55.0,84.0
566,183.86301171875002,184.2994338125,64.0,83.0
567,184.12163221875,184.47615782083335,55.0,78.0
568,184.38025271875,184.52680433541667,60.0,76.0
569,184.63887321875,185.06344187291668,55.0,81.0
570,184.63887321875,185.21969175833334,62.0,81.0
571,183.86301171875002,185.24663139375,48.0,84.0
572,185.15611421875002,185.4632260625,60.0,83.0
573,185.41473471875,185.53973462708333,55.0,83.0
574,185.93197571875,186.2002944875,59.0,75.0
575,185.93197571875,186.53973389375,64.0,81.0
576,186.44921671875,186.60007867708333,59.0,81.0
577,186.70783721875,187.00525079375,59.0,80.0
578,186.70783721875,187.06451799166666,67.0,75.0
579,187.22507821875,187.37917293333334,64.0,82.0
580,186.19059621875002,187.70999165625,47.0,70.0
581,185.93197571875,187.83175880833335,40.0,82.0
582,187.74231921875,188.05481898958334,59.0,82.0
583,188.00093971875,188.56451689166667,64.0,82.0
584,188.51818071875002,188.64856855416667,59.0,83.0
585,188.77680121875,189.22292158125,64.0,84.0
586,188.77680121875,189.24124053333335,59.0,82.0
587,189.29404221875,189.62378335625002,67.0,82.0
588,188.25956021875,189.66257643125002,47.0,71.0
589,188.00093971875,189.68412813958335,40.0,82.0
590,189.55266271875,189.70029192083334,59.0,82.0
591,190.06990371875,190.35438626875,53.0,77.0
592,190.06990371875,190.59576540208334,57.0,76.0
593,190.58714471875,190.77464458125002,53.0,80.0
594,190.84576521875002,191.22830804166668,60.0,81.0
595,191.36300621875,191.49554922500002,57.0,83.0
596,190.32852421875,191.67550598958334,48.0,75.0
597,190.06990371875,191.8252903625,41.0,81.0
598,192.13886771875002,192.42981578125,59.0,77.0
599,192.13886771875002,192.74016038125,64.0,81.0
600,192.65610871875,192.78649655416666,59.0,83.0
601,192.91472921875,193.26278930833334,59.0,83.0
602,192.91472921875,193.42227195,67.0,81.0
603,193.43197021875,193.74554757500002,64.0,82.0
604,192.39748821875,193.78649582083335,47.0,71.0
605,192.13886771875002,193.84791818958334,40.0,83.0
606,193.69059071875,193.8533061166667,59.0,81.0
607,194.20783171875001,194.4578315354167,57.0,73.0
608,194.20783171875001,194.71645203541667,62.0,76.0
609,194.72507271875,194.93196911875,57.0,78.0
610,194.46645221875002,195.44705494791668,45.0,68.0
611,194.20783171875001,195.51817558541669,38.0,83.0
612,194.98369321875,195.5440376354167,65.0,84.0
613,195.50093421875002,195.77464091458333,62.0,83.0
614,195.75955471875,196.04080451250002,57.0,82.0
615,196.01817521875,196.77032983958335,62.0,77.0
616,196.79403671875002,196.90610560208333,55.0,82.0
617,197.05265721875,197.70459639583333,55.0,84.0
618,197.05265721875,197.78326013125002,62.0,82.0
619,197.82851871875002,198.038647875,59.0,87.0
620,196.53541621875002,198.08067370625,50.0,75.0
621,196.27679571875,198.17226846666668,43.0,81.0
622,198.08713921875,198.27787183750002,55.0,68.0
623,198.34575971875,198.67981119791668,53.0,76.0
624,198.34575971875,198.943819625,60.0,81.0
625,198.86300071875002,198.99769889583334,53.0,81.0
626,198.60438021875,199.1895091,48.0,72.0
627,199.12162121875002,199.7067501,53.0,84.0
628,199.12162121875002,199.8166638125,57.0,84.0
629,199.12162121875002,199.89317237708335,60.0,84.0
630,199.63886221875,200.23907729583334,48.0,82.0
631,198.34575971875,200.25955141875002,41.0,83.0
632,199.89748271875,200.27356002916667,53.0,83.0
633,200.41472371875,200.73368900208334,53.0,82.0
634,200.41472371875,200.80265446875,60.0,78.0
635,200.93196471875,201.0321801625,60.0,38.0
636,200.93196471875,201.11515423958335,53.0,77.0
637,200.67334421875,201.24769724583334,48.0,83.0
638,201.19058521875002,201.58498148125,56.0,83.0
639,201.19058521875002,201.58498148125,60.0,82.0
640,201.19058521875002,201.5882142375,53.0,81.0
641,201.70782621875,201.80696407708334,53.0,76.0
642,201.44920571875,201.88023988541667,48.0,83.0
643,201.70782621875,202.02894667291667,56.0,83.0
644,200.41472371875,202.03864494166666,41.0,85.0
645,201.70782621875,202.07205008958334,60.0,82.0
646,201.96644671875,202.39748088541668,53.0,85.0
647,202.48368771875002,202.76817026875,58.0,86.0
648,202.74230821875,203.07635969791667,53.0,82.0
649,203.00092871875,203.15394584791667,58.0,73.0
650,202.48368771875002,203.41364393333333,46.0,92.0
651,203.25954921875,203.64640238333334,58.0,82.0
652,203.25954921875,203.6647213354167,53.0,81.0
653,203.25954921875,203.99661764375,62.0,82.0
654,203.77679021875,204.05911759791667,58.0,92.0
655,204.03541071875,204.40394493125,53.0,83.0
656,204.29403121875,204.85760839166667,62.0,83.0
657,204.81127221875002,205.11407372083335,58.0,90.0
658,205.06989271875,205.18627194375,53.0,81.0
659,204.55265171875,205.47722000625,46.0,90.0
660,205.32851321875,205.64963367291668,62.0,81.0
661,205.32851321875,205.67010779583333,53.0,82.0
662,205.32851321875,205.67980606458335,58.0,82.0
663,205.58713371875,205.9729092979167,46.0,69.0
664,205.84575421875002,206.00631444583334,53.0,81.0
665,205.84575421875002,206.19489189375,58.0,85.0
666,206.10437471875,206.31342628958333,53.0,84.0
667,206.62161571875,206.91902929375001,55.0,78.0
668,206.62161571875,207.00739129791668,58.0,78.0
669,206.62161571875,207.02678783541668,63.0,76.0
670,207.13885671875002,207.31450314166668,55.0,72.0
671,207.39747721875,207.77463211458334,63.0,83.0
672,207.91471821875,207.97829575833333,63.0,60.0
673,207.91471821875,208.08928705625001,58.0,83.0
674,206.62161571875,208.44920058541666,39.0,85.0
675,208.43195921875,208.48476090416668,63.0,48.0
676,206.88023621875,208.51493329583334,46.0,70.0
677,208.17333871875002,208.85760545833335,55.0,82.0
678,208.43195921875,209.34898440833334,67.0,82.0
679,209.46644121875002,209.74984618333335,58.0,82.0
680,209.20782071875,209.79294960000001,55.0,83.0
681,208.94920021875,210.12376832291667,46.0,70.0
682,208.69057971875,210.14316486041668,39.0,83.0
683,209.98368221875,210.26816476875,58.0,85.0
684,209.98368221875,210.28863889166666,63.0,83.0
685,210.24230271875,210.35221643125,55.0,88.0
686,210.75954371875,211.10113829583335,56.0,79.0
687,210.75954371875,211.10437105208334,63.0,81.0
688,211.27678471875,211.41902599375,56.0,86.0
689,211.53540521875001,211.81342225625002,60.0,84.0
690,211.53540521875001,211.85113774583334,63.0,84.0
691,211.53540521875001,211.85437050208336,56.0,86.0
692,212.05264621875,212.25199952083335,56.0,80.0
693,211.01816421875,212.27031847291667,51.0,68.0
694,212.05264621875,212.27247364375,60.0,81.0
695,210.75954371875,212.28648225416669,44.0,87.0
696,212.05264621875,212.30049086458334,63.0,80.0
697,212.05264621875,212.38454252708334,68.0,77.0
698,212.56988721875,212.78324913125002,56.0,82.0
699,212.82850771875002,213.15178334375,60.0,80.0
700,212.82850771875002,213.18411090625,63.0,76.0
701,212.82850771875002,213.193809175,56.0,79.0
702,213.34574871875,213.56557614375,60.0,75.0
703,213.34574871875,213.5860502666667,63.0,73.0
704,212.82850771875002,213.64962780625,44.0,95.0
705,213.34574871875,213.69380880833333,68.0,74.0
706,213.34574871875,213.71320534583333,56.0,79.0
707,213.86298971875001,214.19057568541666,56.0,83.0
708,213.86298971875001,214.20781705208333,60.0,84.0
709,213.86298971875001,214.2476877125,63.0,82.0
710,213.86298971875001,214.38023071875,68.0,81.0
711,214.38023071875,214.85221313125,56.0,95.0
712,214.63885121875,214.86945449791668,63.0,75.0
713,213.86298971875001,214.89316137708335,44.0,86.0
714,214.12161021875002,214.90178206041668,51.0,82.0
715,214.89747171875,215.20997148958335,56.0,81.0
716,214.89747171875,215.41255754791666,61.0,80.0
717,215.41471271875,215.77031590625,56.0,74.0
718,215.67333321875,215.97074679375,61.0,80.0
719,215.15609221875002,216.2907896625,44.0,72.0
720,214.89747171875,216.34143617708335,37.0,79.0
721,216.19057421875002,216.53540155208333,65.0,84.0
722,216.44919471875002,216.80156515000002,56.0,76.0
723,216.70781521875,216.83389271250002,61.0,71.0
724,216.96643571875,217.11945284791668,56.0,81.0
725,216.96643571875,217.31665097916667,65.0,82.0
726,217.22505621875,217.5591076979167,56.0,73.0
727,217.48367671875002,217.60759904166667,61.0,69.0
728,217.74229721875,217.8813057375,61.0,77.0
729,217.74229721875,218.34358988125,68.0,82.0
730,216.96643571875,218.47182254583333,49.0,82.0
731,218.25953821875,218.53216732916667,61.0,82.0
732,218.51815871875002,218.64531379791669,56.0,82.0
733,219.03539971875,219.30264090208334,53.0,75.0
734,219.03539971875,219.49876144791668,56.0,76.0
735,219.55264071875,219.81988190208335,53.0,82.0
736,219.81126121875002,220.21858850625,60.0,82.0
737,220.32850221875,220.73044157916667,56.0,83.0
738,219.03539971875,220.9718207125,41.0,84.0
739,219.29402021875,220.98044139583334,48.0,69.0
740,220.84574321875002,221.23475155416668,53.0,87.0
741,221.10436371875002,221.66039779375,65.0,84.0
742,221.62160471875,221.86082868125,53.0,81.0
743,221.36298421875,221.97936307708335,48.0,71.0
744,221.88022521875,222.48259546666668,60.0,79.0
745,221.10436371875002,222.58281091041667,41.0,83.0
746,222.39746621875,222.9825951,56.0,81.0
747,222.65608671875,223.22289664791668,53.0,81.0
748,223.69056871875,224.32203377291668,54.0,82.0
749,223.94918921875,224.33065445625002,61.0,81.0
750,224.46643021875002,224.7606110375,58.0,82.0
751,223.43194821875002,224.83280926041667,49.0,68.0
752,223.17332771875002,224.83604201666668,42.0,86.0
753,224.98367121875,225.0946625166667,58.0,70.0
754,224.72505071875,225.1075935416667,54.0,82.0
755,225.24229171875,225.54617080625002,53.0,80.0
756,225.24229171875,225.73474825416667,56.0,81.0
757,225.75953271875,226.69703203125002,53.0,82.0
758,226.01815321875,226.83173020833334,60.0,79.0
759,226.53539421875,226.8435836479167,56.0,75.0
760,225.50091221875002,226.952419775,48.0,70.0
761,225.24229171875,227.07957485416668,41.0,78.0
762,227.05263521875,227.14422997916668,53.0,82.0
763,226.79401471875002,227.28539366875,65.0,84.0
764,227.31125571875,227.87375530625002,63.0,77.0
765,227.82849671875002,228.17871197916668,58.0,83.0
766,228.08711721875,228.62698751250002,63.0,82.0
767,227.56987621875,228.65500473333333,46.0,72.0
768,227.31125571875,228.736901225,39.0,84.0
769,228.60435821875,229.1894871,66.0,82.0
770,228.86297871875,229.1970301979167,58.0,78.0
771,229.12159921875002,229.87375383958334,63.0,70.0
772,229.89746071875,230.06556404375002,56.0,81.0
773,229.63884021875,230.23258978333334,51.0,73.0
774,230.15608121875002,230.52030508958333,56.0,79.0
775,230.15608121875002,230.53539128541667,63.0,85.0
776,230.41470171875,230.82633934791667,51.0,79.0
777,230.67332221875,230.84465830000002,56.0,80.0
778,230.67332221875,231.05047711458334,63.0,83.0
779,230.67332221875,231.06879606666666,68.0,75.0
780,229.38021971875,231.10004604375,44.0,82.0
781,230.93194271875,231.15931324166667,56.0,82.0
782,231.44918371875002,231.58711465208333,56.0,81.0
783,231.44918371875002,231.75198522083335,61.0,78.0
784,231.70780421875,232.04939879583335,56.0,79.0
785,231.96642471875,232.11082116458334,61.0,75.0
786,232.22504521875,232.75090690208333,63.0,82.0
787,231.44918371875002,232.92008781250001,49.0,86.0
788,232.74228621875,233.25952721875,61.0,84.0
789,233.25952721875,233.5925011125,56.0,84.0
790,233.51814771875001,233.9545698125,65.0,83.0
791,233.77676821875002,234.13129382083335,56.0,78.0
792,234.03538871875,234.18194033541667,61.0,76.0
793,234.29400921875,234.71857787291668,56.0,81.0
794,234.29400921875,234.87482775833334,63.0,81.0
795,233.51814771875001,234.90176739375002,49.0,84.0
796,234.81125021875002,235.1183620625,61.0,83.0
797,235.06987071875,235.19487062708333,56.0,83.0
798,235.58711171875,235.8554304875,60.0,75.0
799,235.58711171875,236.19486989375,65.0,81.0
800,236.10435271875002,236.25521467708333,60.0,81.0
801,236.36297321875,236.66038679375,60.0,80.0
802,236.36297321875,236.7196539916667,68.0,75.0
803,236.88021421875,237.03430893333334,65.0,82.0
804,235.84573221875002,237.36512765625,48.0,70.0
805,235.58711171875,237.48689480833335,41.0,82.0
806,237.39745521875,237.70995498958334,60.0,82.0
807,237.65607571875,238.21965289166667,65.0,82.0
808,238.17331671875002,238.30370455416667,60.0,83.0
809,238.43193721875002,238.87805758125,65.0,84.0
810,238.43193721875002,238.89637653333335,60.0,82.0
811,238.94917821875,239.27891935625001,68.0,82.0
812,237.91469621875,239.31771243125002,48.0,71.0
813,237.65607571875,239.33926413958335,41.0,82.0
814,239.20779871875,239.35542792083334,60.0,82.0
815,239.72503971875,240.00952226875,54.0,77.0
816,239.72503971875,240.25090140208334,58.0,76.0
817,240.24228071875,240.42978058125001,54.0,80.0
818,240.50090121875002,240.88344404166668,61.0,81.0
819,241.01814221875,241.15068522500002,58.0,83.0
820,239.98366021875,241.33064198958334,49.0,75.0
821,239.72503971875,241.4804263625,42.0,81.0
822,241.79400371875002,242.08495178125,60.0,77.0
823,241.79400371875002,242.39529638125,65.0,81.0
824,242.31124471875,242.4416325541667,60.0,83.0
825,242.56986521875,242.91792530833334,60.0,83.0
826,242.56986521875,243.07740795,68.0,81.0
827,243.08710621875002,243.40068357500002,65.0,82.0
828,242.05262421875,243.44163182083335,48.0,71.0
829,241.79400371875002,243.50305418958334,41.0,83.0
830,243.34572671875,243.50844211666669,60.0,81.0
831,243.86296771875,244.1129675354167,58.0,73.0
832,243.86296771875,244.37158803541666,63.0,76.0
833,244.38020871875,244.58710511875,58.0,78.0
834,244.12158821875002,245.10219094791668,46.0,68.0
835,243.86296771875,245.17331158541668,39.0,83.0
836,244.63882921875,245.19917363541668,66.0,84.0
837,245.15607021875002,245.42977691458336,63.0,83.0
838,245.41469071875002,245.69594051250002,58.0,82.0
839,245.67331121875,246.42546583958335,63.0,77.0
840,246.44917271875002,246.56124160208336,56.0,82.0
841,246.70779321875,247.35973239583333,56.0,84.0
842,246.70779321875,247.43839613125002,63.0,82.0
843,247.48365471875002,247.693783875,60.0,87.0
844,246.19055221875,247.73580970625002,51.0,75.0
845,245.93193171875,247.82740446666668,44.0,81.0
846,247.74227521875002,247.9330078375,56.0,68.0
847,249.03537771875,249.56662732916666,51.0,77.0
848,249.55261871875,249.77891165625002,53.0,77.0
849,250.06985971875,250.42438532083335,49.0,71.0
850,250.06985971875,250.51813525208334,56.0,79.0
851,248.51813671875001,251.49011729791667,44.0,63.0
852,248.00089571875,251.55908276458334,37.0,81.0
853,253.17330571875002,253.70455532916668,51.0,77.0
854,253.69054671875,253.91683965625,53.0,77.0
855,254.20778771875,254.56231332083334,49.0,71.0
856,254.20778771875,254.65606325208336,56.0,79.0
857,252.65606471875,255.62804529791669,44.0,63.0
858,252.13882371875002,255.69701076458335,37.0,81.0
859,257.31123371875003,257.85325918333336,51.0,77.0
860,257.82847471875,258.15390551458336,53.0,84.0
861,258.34571571875,259.38019771875,49.0,72.0
862,258.34571571875,259.41791320833335,56.0,75.0
863,256.79399271875,259.44593042916665,44.0,67.0
864,256.27675171875,259.5192062375,37.0,81.0
865,261.44916171875,261.99118718333335,51.0,77.0
866,261.96640271875003,262.29183351458335,53.0,84.0
867,262.48364371875,263.51812571875,49.0,72.0
868,262.48364371875,263.55584120833333,56.0,75.0
869,260.93192071875,263.5838584291667,44.0,67.0
870,260.41467971875,263.65713423750003,37.0,81.0
871,264.55260771875,265.11295213541666,65.0,81.0
872,264.55260771875,265.2885985583333,56.0,76.0
873,265.06984871875,265.42329673541667,61.0,74.0
874,265.06984871875,266.30045126458333,44.0,50.0
875,264.55260771875,266.46747700416665,37.0,76.0
876,266.10433071875,266.8489422416667,56.0,71.0
877,265.58708971875,267.00088178541665,63.0,74.0
878,267.65605371875,267.97286383125004,51.0,81.0
879,267.13881271875,268.0666137625,44.0,54.0
880,266.62157171875003,268.22286364791665,37.0,48.0
881,268.69053571875,269.37695762916667,49.0,69.0
882,269.72501771875,270.2260949375,49.0,86.0
883,268.69053571875,270.28967247708334,56.0,74.0
884,270.24225871875,270.38342240833333,61.0,78.0
885,270.75949971875,271.85001616041666,61.0,73.0
886,270.75949971875,272.06553324375,65.0,81.0
887,269.20777671875,272.1204901,44.0,67.0
888,268.69053571875,272.18837798125,37.0,77.0
889,271.27674071875003,272.47178294583335,68.0,76.0
890,271.79398171875,272.58816217083336,73.0,80.0
891,273.01919633750003,274.27997127500004,65.0,69.0
892,272.79505857083336,274.2907471291667,56.0,64.0
893,272.88988608750003,274.32199710625,61.0,63.0
894,272.76380859375,274.3532470833334,37.0,76.0
