,start,end,pitch,velocity
0,35.40929602083334,35.92155066666667,69.0,108.0
1,36.291648520833334,36.45096216666667,62.0,98.0
2,36.58576602083333,36.92522663541667,65.0,113.0
3,37.17400102083334,37.525716531250005,69.0,102.0
4,37.762236020833335,38.12375544791667,65.0,110.0
5,38.35047102083334,38.599245406250006,67.0,110.0
6,38.64458852083334,38.91051976041667,65.0,104.0
7,38.93870602083334,39.32350975,62.0,107.0
8,40.11517602083334,40.286744562500004,62.0,116.0
9,40.40929352083334,40.533067968750004,74.0,92.0
10,40.703411020833336,40.90071484375,74.0,107.0
11,40.997528520833335,41.3014499375,72.0,108.0
12,41.29164602083333,41.72301835416667,67.0,108.0
13,41.87988102083334,42.12375344791667,65.0,113.0
14,42.17399852083334,42.49630228125,67.0,108.0
15,42.468116020833335,42.87988052083334,69.0,104.0
16,44.82105602083334,45.55512428125,69.0,113.0
17,45.703408520833335,45.923996645833334,77.0,113.0
18,45.997526020833334,46.62987864583334,74.0,110.0
19,46.58576102083334,47.11394703125001,72.0,108.0
20,47.173996020833336,47.658064406250006,74.0,107.0
21,47.76223102083334,47.920319177083336,62.0,113.0
22,48.05634852083334,48.33330916666667,69.0,107.0
23,48.35046602083334,48.685024677083334,67.0,100.0
24,49.52693602083334,49.82105352083334,67.0,113.0
25,49.82105352083334,50.104141614583334,69.0,102.0
26,50.11517102083334,50.43257282291667,67.0,91.0
27,50.409288520833336,50.694827593750006,65.0,100.0
28,50.703406020833334,51.238944968750005,72.0,102.0
29,51.29164102083334,51.56369970833334,69.0,107.0
30,51.58575852083334,51.941150500000006,67.0,96.0
31,51.879876020833336,52.28183660416667,69.0,110.0
32,54.23281602083334,54.74507066666667,69.0,108.0
33,55.115168520833336,55.27448216666667,62.0,98.0
34,55.409286020833335,55.74874663541667,65.0,113.0
35,55.99752102083334,56.31369733333334,67.0,98.0
36,56.29163852083334,56.50242272916667,69.0,104.0
37,56.58575602083334,56.947275447916674,65.0,110.0
38,57.173991020833334,57.42276540625,67.0,110.0
39,57.46810852083334,57.73403976041667,65.0,104.0
40,57.76222602083334,58.14702975,62.0,107.0
41,58.93869602083334,59.11026456250001,62.0,116.0
42,59.23281352083334,59.356587968750006,74.0,92.0
43,59.52693102083334,59.724234843750004,74.0,107.0
44,59.82104852083334,60.124969937500005,72.0,108.0
45,60.115166020833335,60.54653835416667,67.0,108.0
46,60.70340102083334,60.94727344791667,65.0,113.0
47,60.99751852083334,61.319822281250005,67.0,108.0
48,61.29163602083334,61.70340052083334,69.0,104.0
49,63.64457602083334,64.37864428125,69.0,113.0
50,64.52692852083334,64.74751664583334,77.0,113.0
51,64.82104602083334,65.45339864583333,74.0,110.0
52,65.40928102083333,65.93746703125001,72.0,108.0
53,65.99751602083334,66.48158440625001,62.0,107.0
54,66.58575102083334,66.74383917708334,65.0,113.0
55,66.87986852083334,67.15682916666667,69.0,107.0
56,67.17398602083334,67.50854467708334,67.0,100.0
57,68.35045602083333,68.64457352083333,67.0,113.0
58,68.64457352083333,68.92766161458334,69.0,102.0
59,68.93869102083333,69.25609282291667,67.0,91.0
60,69.23280852083334,69.25609282291667,67.0,100.0
61,69.52692602083334,70.06246496875,72.0,102.0
62,70.11516102083334,70.31123935416667,60.0,104.0
63,70.40927852083334,70.75364109375,60.0,102.0
64,70.99751352083334,71.3308466875,62.0,110.0
65,73.05633602083334,73.82961994791667,74.0,117.0
66,73.93868852083334,74.12741391666667,69.0,114.0
67,74.23280602083334,74.73648223958334,77.0,116.0
68,74.82104102083333,75.33574664583334,74.0,116.0
69,75.40927602083333,75.91050126041667,72.0,113.0
70,75.99751102083334,76.28182460416667,67.0,113.0
71,76.29162852083334,76.56001073958333,72.0,113.0
72,76.58574602083334,76.88353998958334,69.0,110.0
73,77.76221602083334,78.06368645833334,67.0,114.0
74,78.05633352083333,78.352902,69.0,107.0
75,78.35045102083333,78.66540184375,67.0,96.0
76,78.64456852083335,78.92643112500001,69.0,98.0
77,78.93868602083334,79.25241135416667,67.0,107.0
78,79.23280352083334,79.43010734375001,65.0,107.0
79,79.52692102083334,79.808783625,65.0,107.0
80,79.82103852083334,80.17030305208334,67.0,104.0
81,80.11515602083334,80.44726369791667,69.0,104.0
82,82.46809602083334,83.08206630208333,74.0,108.0
83,83.35044852083334,83.64946797916667,69.0,114.0
84,83.64456602083334,83.97422271875,67.0,114.0
85,84.23280102083334,84.57103614583333,67.0,114.0
86,84.52691852083333,84.77814388541667,69.0,107.0
87,84.82103602083333,85.33451615625,72.0,110.0
88,85.40927102083334,85.6396630625,69.0,108.0
89,85.70338852083334,85.96074133333335,72.0,113.0
90,85.99750602083334,86.28304509375,74.0,108.0
91,87.17397602083334,87.34309358333334,74.0,108.0
92,87.46809352083334,87.61515227083333,74.0,100.0
93,87.76221102083333,87.94358347916668,74.0,100.0
94,88.05632852083333,88.38966168750001,77.0,108.0
95,88.35044602083335,88.65314194791668,76.0,116.0
96,88.93868102083334,89.22299460416667,74.0,110.0
97,89.23279852083334,89.43010234375001,72.0,104.0
98,89.52691602083334,90.02078832291667,72.0,107.0
99,91.87985602083334,92.65313994791667,74.0,117.0
100,92.76220852083334,92.95093391666667,69.0,114.0
101,93.05632602083334,93.56000223958334,77.0,116.0
102,93.64456102083334,94.15926664583334,74.0,116.0
103,94.23279602083333,94.73402126041667,72.0,113.0
104,94.82103102083335,95.10534460416667,67.0,113.0
105,95.11514852083334,95.38353073958334,72.0,113.0
106,95.40926602083334,95.70705998958334,69.0,110.0
107,96.58573602083334,96.88720645833334,67.0,114.0
108,96.87985352083334,97.176422,69.0,107.0
109,97.17397102083333,97.48892184375,67.0,96.0
110,97.46808852083333,97.74995112500001,69.0,98.0
111,97.76220602083335,98.07593135416667,67.0,107.0
112,98.05632352083335,98.25362734375001,65.0,107.0
113,98.35044102083334,98.632303625,65.0,107.0
114,98.64455852083334,98.99382305208334,67.0,104.0
115,98.93867602083334,99.27078369791667,69.0,104.0
116,101.29161602083335,101.90558630208334,74.0,108.0
117,102.17396852083334,102.47298797916667,69.0,114.0
118,102.46808602083334,102.79774271875,67.0,114.0
119,103.05632102083334,103.39455614583333,67.0,114.0
120,103.35043852083334,103.60166388541667,69.0,107.0
121,103.64455602083333,104.15803615625,72.0,110.0
122,104.23279102083335,104.46318306250001,69.0,108.0
123,104.52690852083335,104.78426133333335,72.0,113.0
124,104.82102602083334,105.10656509375,74.0,108.0
125,105.99749602083334,106.16661358333334,74.0,108.0
126,106.29161352083334,106.43867227083334,74.0,100.0
127,106.58573102083334,106.76710347916668,74.0,100.0
128,106.87984852083333,107.21318168750001,77.0,108.0
129,107.17396602083335,107.47666194791667,76.0,116.0
130,107.76220102083334,108.04651460416667,74.0,110.0
131,108.05631852083334,108.25362234375001,72.0,104.0
132,108.35043602083334,108.84430832291667,74.0,107.0
133,129.52321955208333,130.03424870833334,69.0,108.0
134,130.40557205208333,130.56366020833335,62.0,98.0
135,130.69968955208336,131.03915016666667,65.0,113.0
136,131.28792455208335,131.63841457291667,69.0,102.0
137,131.87615955208335,132.23645348958334,65.0,110.0
138,132.46439455208335,132.71194344791667,67.0,110.0
139,132.75851205208335,133.02444329166667,65.0,104.0
140,133.05262955208335,133.43743328125,62.0,107.0
141,134.22909955208334,134.40066809375,62.0,116.0
142,134.52321705208334,134.64576601041668,74.0,92.0
143,134.81733455208334,135.01341288541667,74.0,107.0
144,135.11145205208334,135.41414797916667,72.0,108.0
145,135.40556955208334,135.83694188541668,67.0,108.0
146,135.99380455208333,136.23767697916668,65.0,113.0
147,136.28792205208333,136.60900032291667,67.0,108.0
148,136.58203955208333,136.99380405208333,69.0,104.0
149,138.93497955208335,139.6690478125,69.0,113.0
150,139.81733205208334,140.03792017708335,77.0,113.0
151,140.11144955208334,140.74380217708335,74.0,110.0
152,140.69968455208334,141.22787056250002,72.0,108.0
153,141.28791955208334,141.77076244791667,74.0,107.0
154,141.87615455208334,142.03424270833335,62.0,113.0
155,142.17027205208333,142.4472326979167,69.0,107.0
156,142.46438955208333,142.79772271875,67.0,100.0
157,143.64085955208336,143.93375156250002,67.0,113.0
158,143.93497705208335,144.21806514583335,69.0,102.0
159,144.22909455208335,144.54649635416666,67.0,91.0
160,144.52321205208335,144.80752563541668,65.0,100.0
161,144.81732955208335,145.3528685,72.0,102.0
162,145.40556455208335,145.67639775,69.0,107.0
163,145.69968205208335,146.05507403125,67.0,96.0
164,145.99379955208335,146.39453464583335,69.0,110.0
165,148.34673955208333,148.85776870833334,69.0,108.0
166,149.22909205208333,149.38718020833335,62.0,98.0
167,149.52320955208336,149.86267016666667,65.0,113.0
168,150.11144455208336,150.426395375,67.0,98.0
169,150.40556205208335,150.6163462604167,69.0,104.0
170,150.69967955208335,151.05997348958334,65.0,110.0
171,151.28791455208335,151.53546344791667,67.0,110.0
172,151.58203205208335,151.84796329166667,65.0,104.0
173,151.87614955208335,152.26095328125,62.0,107.0
174,153.05261955208334,153.22418809375,62.0,116.0
175,153.34673705208334,153.46928601041668,74.0,92.0
176,153.64085455208334,153.83693288541667,74.0,107.0
177,153.93497205208334,154.23766797916667,72.0,108.0
178,154.22908955208334,154.66046188541668,67.0,108.0
179,154.81732455208333,155.06119697916668,65.0,113.0
180,155.11144205208333,155.43252032291667,67.0,108.0
181,155.40555955208333,155.81732405208334,69.0,104.0
182,157.75849955208335,158.4925678125,69.0,113.0
183,158.64085205208335,158.86144017708335,77.0,113.0
184,158.93496955208334,159.56732217708335,74.0,110.0
185,159.52320455208334,160.05139056250002,72.0,108.0
186,160.11143955208334,160.59428244791667,62.0,107.0
187,160.69967455208334,160.85776270833335,65.0,113.0
188,160.99379205208334,161.2707526979167,69.0,107.0
189,161.28790955208333,161.62124271875,67.0,100.0
190,162.46437955208336,162.75727156250002,67.0,113.0
191,162.75849705208336,163.04158514583335,69.0,102.0
192,163.05261455208336,163.37001635416667,67.0,91.0
193,163.34673205208335,163.37001635416667,67.0,100.0
194,163.64084955208335,164.1763885,72.0,102.0
195,164.22908455208335,164.42516288541668,60.0,104.0
196,164.52320205208335,164.867564625,60.0,102.0
197,165.11143705208335,165.44477021875002,62.0,110.0
198,167.17393602083334,167.94721994791666,74.0,117.0
199,168.05261205208333,168.2413374479167,69.0,114.0
200,168.34672955208333,168.85040577083333,77.0,116.0
201,168.93496455208336,169.44967017708333,74.0,116.0
202,169.52319955208336,170.0244247916667,72.0,113.0
203,170.11143455208335,170.39452264583335,67.0,113.0
204,170.40555205208335,170.67270878125,72.0,113.0
205,170.69966955208335,170.99746352083335,69.0,110.0
206,171.87613955208334,172.17760998958335,67.0,114.0
207,172.17025705208334,172.46682553125,69.0,107.0
208,172.46437455208334,172.779325375,67.0,96.0
209,172.75849205208334,173.04035465625,69.0,98.0
210,173.05260955208334,173.36633488541668,67.0,107.0
211,173.34672705208334,173.544030875,65.0,107.0
212,173.64084455208334,173.92270715625,65.0,107.0
213,173.93496205208334,174.28300109375002,67.0,104.0
214,174.22907955208333,174.55996173958334,69.0,104.0
215,176.58201955208335,177.19476434375002,74.0,108.0
216,177.46437205208335,177.76216602083335,69.0,114.0
217,177.75848955208335,178.08814625000002,67.0,114.0
218,178.34672455208334,178.68495967708336,67.0,114.0
219,178.64084205208334,178.89084192708336,69.0,107.0
220,178.93495955208334,179.44721419791668,72.0,110.0
221,179.52319455208334,179.75358659375001,69.0,108.0
222,179.81731205208334,180.07466486458335,72.0,113.0
223,180.11142955208334,180.396968625,74.0,108.0
224,181.28789955208336,181.45701711458335,74.0,108.0
225,181.58201705208336,181.72907580208334,74.0,100.0
226,181.87613455208336,182.05628152083335,74.0,100.0
227,182.17025205208336,182.50235972916667,77.0,108.0
228,182.46436955208335,182.7670654791667,76.0,116.0
229,183.05260455208335,183.33691813541668,74.0,110.0
230,183.34672205208335,183.54402587500002,72.0,104.0
231,183.64083955208335,184.13348636458335,72.0,107.0
232,185.99377955208334,186.7670634791667,74.0,117.0
233,186.87613205208334,187.0648574479167,69.0,114.0
234,187.17024955208333,187.67392577083334,77.0,116.0
235,187.75848455208336,188.27319017708334,74.0,116.0
236,188.34671955208336,188.8479447916667,72.0,113.0
237,188.93495455208335,189.21804264583335,67.0,113.0
238,189.22907205208335,189.49622878125,72.0,113.0
239,189.52318955208335,189.82098352083335,69.0,110.0
240,190.69965955208335,191.00112998958335,67.0,114.0
241,190.99377705208335,191.29034553125,69.0,107.0
242,191.28789455208334,191.60284537500002,67.0,96.0
243,191.58201205208334,191.86387465625,69.0,98.0
244,191.87612955208334,192.18985488541668,67.0,107.0
245,192.17024705208334,192.367550875,65.0,107.0
246,192.46436455208334,192.74622715625,65.0,107.0
247,192.75848205208334,193.10652109375002,67.0,104.0
248,193.05259955208334,193.38348173958335,69.0,104.0
249,195.40553955208335,196.01828434375003,74.0,108.0
250,196.28789205208335,196.58568602083335,69.0,114.0
251,196.58200955208335,196.91166625000002,67.0,114.0
252,197.17024455208335,197.50847967708336,67.0,114.0
253,197.46436205208335,197.71436192708336,69.0,107.0
254,197.75847955208334,198.27073419791668,72.0,110.0
255,198.34671455208334,198.57710659375002,69.0,108.0
256,198.64083205208334,198.89818486458336,72.0,113.0
257,198.93494955208334,199.220488625,74.0,108.0
258,200.11141955208336,200.28053711458335,74.0,108.0
259,200.40553705208336,200.55259580208335,74.0,100.0
260,200.69965455208336,200.87980152083335,74.0,100.0
261,200.99377205208336,201.32587972916667,77.0,108.0
262,201.28788955208336,201.5905854791667,76.0,116.0
263,201.87612455208335,202.16043813541668,74.0,110.0
264,202.17024205208335,202.36754587500002,72.0,104.0
265,202.46435955208335,202.95700636458335,74.0,107.0
266,204.82097602083334,205.59425994791667,74.0,117.0
267,205.69965205208334,205.88837744791667,69.0,114.0
268,205.99376955208334,206.49744577083334,77.0,116.0
269,206.58200455208336,207.09671017708334,74.0,116.0
270,207.17023955208336,207.6714647916667,72.0,113.0
271,207.75847455208336,208.04156264583335,67.0,113.0
272,208.05259205208336,208.31974878125,72.0,113.0
273,208.34670955208335,208.64450352083335,69.0,110.0
274,209.52685602083335,209.82097352083335,67.0,114.0
275,209.82097352083335,210.11509102083335,67.0,107.0
276,210.11509102083335,210.43004184375002,67.0,96.0
277,210.40553205208334,210.68739465625,69.0,98.0
278,210.69964955208334,211.01337488541668,67.0,107.0
279,210.99376705208334,211.191070875,65.0,107.0
280,211.28788455208334,211.56974715625,65.0,107.0
281,211.58200205208334,212.17023705208334,72.0,104.0
282,212.17391352083334,212.50602119791668,69.0,104.0
283,214.22905955208336,214.84180434375003,74.0,108.0
284,215.11141205208335,215.40920602083335,69.0,114.0
285,215.40552955208335,215.73518625000003,67.0,114.0
286,215.99376455208335,216.33199967708336,67.0,114.0
287,216.28788205208335,216.53788192708336,69.0,107.0
288,216.58199955208335,217.09425419791668,72.0,110.0
289,217.17023455208334,217.40062659375002,69.0,108.0
290,217.46435205208334,217.72170486458336,72.0,113.0
291,217.75846955208334,218.044008625,74.0,108.0
292,218.93493955208334,219.10405711458336,74.0,108.0
293,219.22905705208336,219.37611580208335,74.0,100.0
294,219.52317455208336,219.70332152083336,74.0,100.0
295,219.81729205208336,220.14939972916667,77.0,108.0
296,220.11140955208336,220.4141054791667,76.0,116.0
297,220.69964455208336,220.98395813541669,74.0,110.0
298,220.99376205208335,221.19106587500002,72.0,104.0
299,221.28787955208335,221.78052636458335,72.0,107.0
300,223.64081955208334,224.41410347916667,74.0,117.0
301,224.52317205208334,224.71189744791667,69.0,114.0
302,224.81728955208334,225.32096577083334,77.0,116.0
303,225.40552455208336,225.92023017708334,74.0,116.0
304,225.99375955208336,226.4949847916667,72.0,113.0
305,226.58199455208336,226.86508264583335,67.0,113.0
306,226.87611205208336,227.14326878125001,72.0,113.0
307,227.17022955208336,227.46802352083336,69.0,110.0
308,228.05625852083335,228.35772895833335,65.0,114.0
309,228.35037602083335,228.64694450000002,67.0,107.0
310,228.64449352083335,228.64694450000002,67.0,96.0
311,229.23272852083335,229.52684602083335,69.0,97.0
312,229.52684602083335,229.84057135416668,67.0,107.0
313,229.81728705208334,230.40552205208334,65.0,107.0
314,230.40919852083334,230.75846305208336,72.0,104.0
315,230.99743352083334,231.32954119791668,69.0,104.0
316,233.05257955208336,233.66532434375003,74.0,108.0
317,233.93493205208335,234.23272602083335,69.0,114.0
318,234.22904955208335,234.55870625000003,67.0,114.0
319,234.81728455208335,235.15551967708336,67.0,114.0
320,235.11140205208335,235.36140192708336,69.0,107.0
321,235.40551955208335,235.91777419791669,72.0,110.0
322,235.99375455208335,236.22414659375002,69.0,108.0
323,236.28787205208334,236.54522486458336,72.0,113.0
324,236.58198955208334,236.867528625,74.0,108.0
325,237.75845955208334,237.92757711458336,74.0,108.0
326,238.05257705208336,238.19963580208335,74.0,100.0
327,238.34669455208336,238.52684152083336,74.0,100.0
328,238.64081205208336,238.97291972916668,77.0,108.0
329,238.93492955208336,239.2376254791667,76.0,116.0
330,239.23272352083336,239.82095852083336,74.0,110.0
331,239.81728205208336,240.01458587500002,72.0,104.0
332,240.11139955208336,240.60404636458335,74.0,107.0
333,242.46801602083335,242.63713358333334,74.0,108.0
334,242.76213352083334,242.90919227083336,74.0,100.0
335,243.05625102083334,243.23762347916667,74.0,100.0
336,243.35036852083334,243.68370168750002,77.0,108.0
337,243.64448602083334,243.94718194791668,76.0,116.0
338,244.08566227083335,244.53051498958334,74.0,110.0
339,244.52683852083334,247.02683727083334,72.0,104.0
340,247.17389602083335,250.85036477083335,74.0,114.0
