,start,end,pitch,velocity
0,16.585776020833336,17.23038354166667,50.0,96.0
1,16.585776020833336,17.248765885416667,62.0,90.0
2,17.468128520833336,17.75611857291667,57.0,88.0
3,17.174011020833333,18.0588145,74.0,100.0
4,17.174011020833333,18.073520375,65.0,98.0
5,17.174011020833333,18.07597135416667,69.0,107.0
6,17.762246020833334,18.395824135416667,62.0,100.0
7,17.762246020833334,18.421559416666668,50.0,94.0
8,18.644598520833334,18.740186708333336,57.0,87.0
9,18.350481020833335,19.020823822916668,74.0,96.0
10,18.350481020833335,19.022049312500002,69.0,110.0
11,18.350481020833335,19.053912041666667,65.0,96.0
12,18.938716020833336,19.49876476041667,53.0,90.0
13,18.938716020833336,19.537980427083333,41.0,96.0
14,19.821068520833336,19.96935276041667,48.0,96.0
15,19.526951020833334,20.162980114583334,72.0,91.0
16,19.526951020833334,20.164205604166668,69.0,107.0
17,19.526951020833334,20.170333052083336,65.0,96.0
18,20.115186020833335,20.74141119791667,41.0,104.0
19,20.115186020833335,20.743862177083336,53.0,89.0
20,20.703421020833336,21.216901156250003,65.0,93.0
21,20.703421020833336,21.25244035416667,72.0,92.0
22,20.997538520833334,21.285528572916668,48.0,88.0
23,20.703421020833336,21.313714833333336,69.0,107.0
24,21.291656020833337,21.88846944791667,43.0,90.0
25,21.291656020833337,21.890920427083334,55.0,102.0
26,22.174008520833336,22.2573418125,50.0,87.0
27,21.879891020833334,22.528175010416668,62.0,98.0
28,21.879891020833334,22.560037739583336,67.0,107.0
29,21.879891020833334,22.569841656250002,70.0,89.0
30,22.468126020833335,23.117635500000002,48.0,93.0
31,22.468126020833335,23.121311968750003,36.0,104.0
32,23.056361020833336,23.486507864583334,64.0,104.0
33,23.056361020833336,23.534301958333334,72.0,91.0
34,23.056361020833336,23.555135281250003,67.0,110.0
35,23.350478520833335,23.648272489583334,36.0,110.0
36,23.644596020833337,24.234056510416668,41.0,102.0
37,23.644596020833337,24.236507489583335,53.0,93.0
38,24.526948520833336,24.758566052083335,48.0,89.0
39,24.232831020833334,25.187487406250003,69.0,96.0
40,24.232831020833334,25.19361485416667,65.0,104.0
41,24.232831020833334,25.194840343750002,60.0,91.0
42,25.115183520833334,25.4926343125,41.0,104.0
43,25.115183520833334,25.501212739583334,53.0,91.0
44,25.703418520833335,25.848026291666667,48.0,92.0
45,25.409301020833336,25.912977239583334,60.0,100.0
46,25.409301020833336,25.942388989583336,65.0,104.0
47,25.409301020833336,25.9485164375,69.0,100.0
48,25.997536020833333,26.60170238541667,62.0,96.0
49,25.997536020833333,26.604153364583336,50.0,91.0
50,26.585771020833334,27.148270739583335,69.0,92.0
51,26.585771020833334,27.15317269791667,65.0,88.0
52,26.879888520833337,27.166653083333337,57.0,88.0
53,26.585771020833334,27.166653083333337,74.0,88.0
54,27.174006020833335,27.791652770833334,43.0,98.0
55,27.174006020833335,27.791652770833334,55.0,90.0
56,27.762241020833336,28.078417333333334,62.0,96.0
57,27.762241020833336,28.08331929166667,67.0,107.0
58,27.762241020833336,28.089446739583334,70.0,103.0
59,28.056358520833335,28.40072109375,50.0,92.0
60,28.350476020833334,29.050230572916668,67.0,85.0
61,28.350476020833334,29.052681552083335,60.0,85.0
62,28.350476020833334,29.06493644791667,64.0,91.0
63,28.350476020833334,29.382338250000004,48.0,102.0
64,29.232828520833337,29.383563739583334,60.0,83.0
65,28.938711020833335,29.455867625000003,55.0,87.0
66,29.232828520833337,29.475475458333335,67.0,87.0
67,29.232828520833337,29.49508329166667,64.0,86.0
68,29.526946020833336,29.96199482291667,69.0,96.0
69,29.526946020833336,29.992632062500004,62.0,88.0
70,29.526946020833336,30.025720281250003,65.0,93.0
71,29.526946020833336,30.20954371875,50.0,89.0
72,30.115181020833337,30.40317107291667,62.0,93.0
73,30.115181020833337,30.411749500000003,69.0,98.0
74,30.115181020833337,30.4191024375,65.0,98.0
75,30.409298520833335,30.605376854166668,50.0,89.0
76,30.703416020833334,31.28552357291667,46.0,86.0
77,30.703416020833334,31.312484343750004,58.0,86.0
78,31.585768520833337,31.862729166666668,46.0,97.0
79,31.291651020833335,31.90071934375,62.0,92.0
80,31.291651020833335,31.968121270833336,70.0,91.0
81,31.291651020833335,32.05758201041667,65.0,100.0
82,31.879886020833336,32.49140532291667,48.0,93.0
83,32.46812102083334,32.813709083333336,64.0,89.0
84,32.46812102083334,32.8308659375,72.0,93.0
85,32.46812102083334,32.99875801041667,67.0,98.0
86,32.762238520833336,33.01714035416667,48.0,84.0
87,33.056356020833334,33.92032617708334,62.0,91.0
88,33.056356020833334,33.92032617708334,69.0,91.0
89,33.056356020833334,33.921551666666666,65.0,91.0
90,33.056356020833334,34.426453375,50.0,98.0
91,33.93870852083334,34.59066897916667,62.0,94.0
92,33.93870852083334,34.60169838541667,69.0,102.0
93,33.93870852083334,34.6249826875,65.0,102.0
94,34.526943520833335,34.89091392708334,50.0,93.0
95,34.82106102083333,35.09924715625,62.0,107.0
96,34.82106102083333,35.106600093750004,69.0,108.0
97,34.82106102083333,35.11885498958333,65.0,113.0
98,35.11517852083334,35.4190999375,50.0,102.0
99,35.40929602083334,35.4190999375,50.0,87.0
100,35.40929602083334,35.856599718750005,62.0,85.0
101,35.40929602083334,35.85905069791667,69.0,87.0
102,35.40929602083334,35.94483496875,65.0,88.0
103,35.997531020833335,36.21689365625,62.0,80.0
104,35.70341352083334,36.67155029166667,57.0,79.0
105,36.291648520833334,36.94483446875,69.0,91.0
106,36.291648520833334,36.94728544791667,65.0,89.0
107,36.291648520833334,36.94973642708334,62.0,89.0
108,36.87988352083334,37.25488333333334,57.0,84.0
109,37.468118520833336,37.81860854166667,57.0,84.0
110,37.17400102083334,38.10169663541667,69.0,88.0
111,37.17400102083334,38.10904957291667,62.0,86.0
112,37.17400102083334,38.124980937500005,65.0,87.0
113,38.35047102083334,38.617627750000004,62.0,75.0
114,38.05635352083333,38.893362906250005,57.0,76.0
115,38.64458852083334,39.28919604166667,69.0,93.0
116,38.64458852083334,39.31860779166667,65.0,94.0
117,38.64458852083334,39.33699013541667,62.0,91.0
118,39.232823520833335,39.598019416666666,57.0,88.0
119,37.762236020833335,39.66664683333334,50.0,91.0
120,39.526941020833334,40.09801916666667,69.0,93.0
121,39.82105852083333,40.13723483333334,65.0,88.0
122,39.526941020833334,40.35537197916667,62.0,104.0
123,40.11517602083334,40.959538343750005,43.0,94.0
124,40.703411020833336,41.03796967708334,58.0,106.0
125,40.40929352083334,41.28429308333334,55.0,88.0
126,40.997528520833335,41.30635189583334,62.0,88.0
127,41.29164602083333,41.519587083333334,60.0,84.0
128,41.29164602083333,41.602920375000004,64.0,88.0
129,40.703411020833336,41.61272429166667,67.0,96.0
130,41.58576352083334,42.17277303125,55.0,86.0
131,41.29164602083333,42.18747890625,48.0,88.0
132,41.87988102083334,42.20341027083334,72.0,96.0
133,41.87988102083334,42.21689065625,64.0,91.0
134,41.87988102083334,42.455861125000006,60.0,93.0
135,42.17399852083334,42.46689053125,67.0,89.0
136,42.468116020833335,42.805125656250006,65.0,87.0
137,42.468116020833335,42.960762833333334,69.0,88.0
138,42.468116020833335,43.220566625000004,72.0,87.0
139,43.35046852083334,43.662968364583335,67.0,102.0
140,42.762233520833334,43.68257619791667,60.0,83.0
141,43.05635102083334,43.69360560416667,65.0,90.0
142,43.35046852083334,44.03184072916667,72.0,108.0
143,43.64458602083334,44.07473286458334,69.0,84.0
144,43.938703520833336,44.50610519791667,60.0,87.0
145,42.468116020833335,44.53551694791667,53.0,86.0
146,44.232821020833335,44.537967927083336,69.0,114.0
147,44.232821020833335,44.57718359375,72.0,114.0
148,44.82105602083334,45.511006656250004,74.0,88.0
149,44.82105602083334,45.55512428125,69.0,87.0
150,44.82105602083334,45.56125172916667,65.0,85.0
151,45.40929102083334,45.959535843750004,62.0,80.0
152,45.703408520833335,46.27816313541667,74.0,87.0
153,45.703408520833335,46.295319989583334,65.0,86.0
154,45.703408520833335,46.372525833333334,69.0,90.0
155,46.29164352083334,46.606594343750004,62.0,86.0
156,45.11517352083334,46.632329625000004,57.0,74.0
157,44.82105602083334,46.78429033333334,50.0,89.0
158,46.58576102083334,46.93992751041667,65.0,96.0
159,46.87987852083334,47.173996020833336,69.0,87.0
160,46.58576102083334,47.4190939375,74.0,88.0
161,47.173996020833336,47.468113520833334,70.0,86.0
162,47.173996020833336,47.48281939583334,67.0,87.0
163,47.76223102083334,48.32595622916667,55.0,82.0
164,48.05634852083334,48.60536785416667,62.0,91.0
165,48.05634852083334,48.61394628125,67.0,91.0
166,48.05634852083334,48.644583520833336,58.0,86.0
167,48.644583520833336,48.97178923958334,55.0,88.0
168,48.938701020833335,49.18992638541667,58.0,97.0
169,47.173996020833336,49.22914205208334,43.0,87.0
170,47.468113520833334,49.24507341666667,50.0,79.0
171,48.938701020833335,49.24752439583334,67.0,102.0
172,48.938701020833335,49.438700770833336,62.0,102.0
173,49.232818520833334,49.48036741666667,55.0,88.0
174,49.52693602083334,49.7867398125,60.0,86.0
175,49.52693602083334,50.012229895833336,64.0,92.0
176,49.52693602083334,50.085759270833336,67.0,89.0
177,50.11517102083334,50.632327625,60.0,85.0
178,50.409288520833336,51.139680312500005,64.0,94.0
179,50.409288520833336,51.17521951041667,72.0,91.0
180,50.99752352083334,51.33575864583334,60.0,89.0
181,49.82105352083334,51.363944906250005,55.0,74.0
182,49.52693602083334,51.41418997916667,48.0,87.0
183,51.29164102083334,51.449729177083334,67.0,100.0
184,51.29164102083334,51.45218015625,72.0,83.0
185,51.29164102083334,51.48159190625,64.0,92.0
186,51.879876020833336,52.470562,69.0,90.0
187,51.879876020833336,52.517130604166674,60.0,88.0
188,51.879876020833336,52.58943448958334,64.0,96.0
189,52.76222852083334,52.90070884375,69.0,104.0
190,52.76222852083334,52.911738250000006,60.0,110.0
191,52.468111020833334,53.32963019791667,57.0,85.0
192,53.35046352083334,53.727914312500005,60.0,108.0
193,53.35046352083334,53.73404176041667,69.0,110.0
194,53.35046352083334,53.76712997916667,64.0,116.0
195,53.644581020833336,53.946051458333336,57.0,113.0
196,52.173993520833335,53.95340439583334,52.0,81.0
197,51.879876020833336,54.00610044791667,45.0,84.0
198,53.938698520833334,54.08575727083334,69.0,110.0
199,53.938698520833334,54.18624741666667,60.0,113.0
200,53.938698520833334,54.205855250000006,64.0,119.0
201,54.23281602083334,54.97178623958334,65.0,89.0
202,54.23281602083334,54.9926195625,69.0,91.0
203,54.82105102083334,55.411737,62.0,83.0
204,55.115168520833336,55.81124660416667,69.0,93.0
205,55.115168520833336,55.8308544375,65.0,87.0
206,55.70340352083334,56.02570728125001,62.0,83.0
207,54.23281602083334,56.33698163541667,50.0,88.0
208,56.29163852083334,56.435020802083336,62.0,82.0
209,55.99752102083334,56.45217765625,69.0,83.0
210,55.99752102083334,56.46565804166667,65.0,88.0
211,54.52693352083334,56.569824656250006,57.0,64.0
212,56.58575602083334,57.18502042708334,69.0,88.0
213,56.58575602083334,57.30389291666667,65.0,93.0
214,57.173991020833334,57.49384380208334,62.0,89.0
215,56.879873520833335,57.648255489583335,57.0,77.0
216,57.46810852083334,58.15928464583334,69.0,107.0
217,57.46810852083334,58.18256894791667,65.0,107.0
218,58.05634352083334,58.420313927083335,57.0,81.0
219,56.58575602083334,58.46443155208334,50.0,84.0
220,58.644578520833335,58.96075483333334,65.0,92.0
221,58.350461020833336,58.97423521875,69.0,89.0
222,58.350461020833336,59.025705781250004,62.0,98.0
223,58.93869602083334,59.86639163541667,43.0,93.0
224,59.23281352083334,59.868842614583336,50.0,87.0
225,59.82104852083334,59.87374457291667,67.0,84.0
226,59.82104852083334,59.87374457291667,67.0,90.0
227,59.82104852083334,60.0367346875,58.0,86.0
228,59.52693102083334,60.115166020833335,55.0,93.0
229,59.82104852083334,60.297763968750004,62.0,86.0
230,60.40928352083334,60.87006760416667,55.0,88.0
231,60.115166020833335,60.922763656250005,48.0,88.0
232,60.70340102083334,61.36271441666667,67.0,96.0
233,60.99751852083334,61.3896751875,64.0,88.0
234,60.70340102083334,62.11271404166667,60.0,100.0
235,62.17398852083334,62.629870645833336,60.0,102.0
236,62.17398852083334,62.66050788541667,65.0,104.0
237,61.879871020833335,62.69237061458334,53.0,88.0
238,62.76222352083334,63.15070371875,65.0,81.0
239,62.17398852083334,63.20094879166667,57.0,100.0
240,62.76222352083334,63.21565466666667,60.0,86.0
241,61.585753520833336,63.398252614583335,48.0,83.0
242,63.05634102083334,63.41295848958334,53.0,110.0
243,61.29163602083334,63.4484976875,41.0,93.0
244,63.350458520833335,63.56001723958334,57.0,91.0
245,63.350458520833335,63.6543799375,60.0,96.0
246,63.350458520833335,63.67276228125,65.0,100.0
247,63.64457602083334,63.67276228125,65.0,88.0
248,63.64457602083334,64.15560517708334,74.0,88.0
249,63.64457602083334,64.39947760416668,69.0,92.0
250,64.23281102083334,64.867614625,62.0,86.0
251,64.52692852083334,65.26344776041667,65.0,91.0
252,64.52692852083334,65.28060461458334,69.0,98.0
253,65.11516352083333,65.44359472916668,62.0,92.0
254,63.93869352083334,65.51222214583333,57.0,77.0
255,63.64457602083334,65.57594760416667,50.0,88.0
256,65.40928102083333,65.98158465625,65.0,110.0
257,65.40928102083333,65.98648661458334,69.0,113.0
258,66.58575102083334,67.23280952083334,55.0,88.0
259,66.87986852083334,67.5220250625,67.0,92.0
260,66.87986852083334,67.5955544375,58.0,89.0
261,65.99751602083334,67.86393665625,43.0,93.0
262,66.29163352083334,67.9043778125,50.0,86.0
263,67.76222102083334,68.15805415625,67.0,100.0
264,67.46810352083334,68.21565216666667,55.0,96.0
265,67.76222102083334,68.22177961458334,62.0,104.0
266,68.35045602083333,68.65560292708334,60.0,88.0
267,68.35045602083333,68.90560280208334,64.0,93.0
268,68.35045602083333,69.06981840625001,67.0,89.0
269,68.93869102083333,69.38231825000001,60.0,86.0
270,69.23280852083334,69.90070034375,64.0,98.0
271,69.23280852083334,69.91418072916667,67.0,98.0
272,69.82104352083334,70.22545508333334,60.0,91.0
273,68.64457352083333,70.32104327083334,55.0,80.0
274,68.35045602083333,70.3602589375,48.0,84.0
275,70.11516102083334,70.53918041666667,67.0,102.0
276,70.11516102083334,70.64947447916667,64.0,107.0
277,70.70339602083334,71.20339577083334,69.0,91.0
278,70.70339602083334,71.23035654166667,62.0,89.0
279,71.29163102083334,71.39457214583334,69.0,64.0
280,71.29163102083334,71.41172900000001,62.0,46.0
281,70.70339602083334,71.53795442708333,65.0,90.0
282,70.99751352083334,71.87864053125,57.0,76.0
283,71.58574852083333,72.21442467708334,69.0,98.0
284,71.58574852083333,72.24138544791667,62.0,93.0
285,71.58574852083333,72.25609132291667,65.0,98.0
286,72.46810102083334,72.74506166666667,62.0,108.0
287,72.46810102083334,72.78060086458333,69.0,108.0
288,72.17398352083333,72.78305184375,57.0,91.0
289,72.46810102083334,72.80265967708334,65.0,110.0
290,70.70339602083334,72.81123810416668,50.0,92.0
291,73.05633602083334,73.70829647916668,69.0,102.0
292,73.05633602083334,73.75854155208334,62.0,100.0
293,73.05633602083334,73.78917879166667,65.0,108.0
294,73.64457102083334,74.2720216875,57.0,88.0
295,73.93868852083334,74.59800191666668,69.0,102.0
296,73.93868852083334,74.6249626875,62.0,104.0
297,73.93868852083334,74.64089405208334,65.0,104.0
298,74.52692352083334,74.94604095833334,57.0,91.0
299,73.05633602083334,74.98403113541667,50.0,92.0
300,74.82104102083333,75.44236423958334,69.0,86.0
301,75.11515852083333,75.46074658333333,65.0,108.0
302,74.82104102083333,75.68501117708334,62.0,108.0
303,75.99751102083334,76.7131969375,53.0,107.0
304,76.29162852083334,76.88108901041667,57.0,104.0
305,76.29162852083334,76.955843875,65.0,102.0
306,76.58574602083334,77.03427520833334,60.0,81.0
307,76.87986352083334,77.3161378125,53.0,100.0
308,77.17398102083334,77.514667125,57.0,113.0
309,75.70339352083334,77.51711810416667,48.0,87.0
310,75.40927602083333,77.53304946875001,41.0,104.0
311,77.46809852083334,77.80633364583333,60.0,91.0
312,77.17398102083334,77.82594147916667,65.0,93.0
313,77.76221602083334,78.64947047916667,43.0,94.0
314,78.05633352083333,78.66049988541667,50.0,88.0
315,78.35045102083333,78.92520563541667,55.0,114.0
316,78.64456852083335,78.95339189583333,58.0,109.0
317,78.64456852083335,79.08451928125001,67.0,89.0
318,79.23280352083334,79.64824448958333,55.0,90.0
319,78.93868602083334,79.70829347916667,48.0,92.0
320,79.82103852083334,80.16049913541667,64.0,98.0
321,79.52692102083334,80.19481284375,67.0,94.0
322,79.52692102083334,80.37250883333334,60.0,113.0
323,80.99750852083334,81.39089067708333,57.0,110.0
324,81.29162602083333,81.39456714583334,60.0,78.0
325,80.99750852083334,81.40804753125,65.0,93.0
326,80.70339102083334,81.602900375,53.0,107.0
327,80.40927352083334,81.74015520833333,48.0,78.0
328,81.58574352083333,81.94358647916667,65.0,98.0
329,81.58574352083333,81.98647861458333,60.0,102.0
330,81.87986102083335,82.17765498958335,53.0,113.0
331,81.87986102083335,82.19236086458334,48.0,38.0
332,80.11515602083334,82.23647848958333,41.0,94.0
333,82.17397852083334,82.41417447916668,60.0,102.0
334,82.17397852083334,82.4484881875,65.0,96.0
335,82.46809602083334,82.78059586458333,69.0,88.0
336,82.46809602083334,82.85044877083334,65.0,89.0
337,82.46809602083334,82.86147817708334,62.0,86.0
338,82.46809602083334,83.11515452083334,50.0,89.0
339,82.76221352083334,83.13721333333334,57.0,86.0
340,83.05633102083334,83.29039953125,65.0,110.0
341,83.05633102083334,83.31123285416668,69.0,98.0
342,83.35044852083334,83.39946810416667,50.0,77.0
343,83.05633102083334,83.53794842708334,62.0,100.0
344,83.64456602083334,83.88598746875,58.0,90.0
345,83.64456602083334,83.95584037500001,67.0,92.0
346,83.64456602083334,84.00731093750001,62.0,91.0
347,84.23280102083334,84.44971267708334,58.0,100.0
348,84.23280102083334,84.47544795833333,67.0,108.0
349,83.64456602083334,84.49505579166667,43.0,91.0
350,83.93868352083334,84.54652635416667,50.0,88.0
351,84.23280102083334,84.64211454166667,62.0,110.0
352,84.52691852083333,84.78182035416667,55.0,89.0
353,84.82103602083333,85.13353586458334,64.0,102.0
354,84.82103602083333,85.13843782291667,60.0,90.0
355,84.82103602083333,85.15927114583334,67.0,94.0
356,85.11515352083335,85.4337808125,55.0,87.0
357,85.40927102083334,85.70951596875001,60.0,100.0
358,84.82103602083333,85.72299635416667,48.0,87.0
359,85.40927102083334,85.76833946875,67.0,108.0
360,85.40927102083334,85.87005510416667,64.0,110.0
361,85.70338852083334,86.00730993750001,55.0,88.0
362,85.99750602083334,86.34186859375001,69.0,98.0
363,85.99750602083334,86.34799604166668,62.0,89.0
364,85.99750602083334,86.36882936458333,65.0,98.0
365,86.29162352083334,86.61515277083333,57.0,87.0
366,85.99750602083334,86.69603508333334,50.0,89.0
367,86.58574102083334,86.85167226041668,62.0,104.0
368,86.58574102083334,86.87863303125,69.0,107.0
369,86.58574102083334,86.89211341666667,65.0,110.0
370,86.87985852083334,86.99873101041668,50.0,102.0
371,87.17397602083334,87.87250508333334,62.0,104.0
372,87.17397602083334,87.87740704166667,70.0,106.0
373,87.17397602083334,88.05755401041667,46.0,95.0
374,87.76221102083333,88.08206380208334,58.0,93.0
375,87.46809352083334,88.08941673958334,53.0,85.0
376,88.05632852083333,88.43623029166667,62.0,92.0
377,88.05632852083333,88.60167138541668,70.0,106.0
378,88.93868102083334,89.24627890625001,72.0,90.0
379,88.35044602083335,89.31245534375,48.0,94.0
380,88.93868102083334,89.31368083333334,64.0,91.0
381,88.93868102083334,89.32716121875,67.0,100.0
382,89.23279852083334,89.4631905625,60.0,85.0
383,88.64456352083334,89.55387679166667,55.0,83.0
384,89.52691602083334,89.59554343750001,67.0,87.0
385,89.52691602083334,89.61270029166667,72.0,84.0
386,89.52691602083334,89.61392578125,64.0,85.0
387,90.11515102083334,90.46196457291667,60.0,93.0
388,90.40926852083334,90.66784682291667,67.0,110.0
389,90.40926852083334,90.67519976041667,64.0,102.0
390,90.40926852083334,90.68255269791668,72.0,100.0
391,90.99750352083333,91.31735630208334,60.0,88.0
392,89.82103352083334,91.34799354166667,55.0,85.0
393,89.52691602083334,91.37495431250001,48.0,93.0
394,91.29162102083335,91.55877775,64.0,107.0
395,91.29162102083335,91.57838558333334,67.0,113.0
396,91.29162102083335,91.58206205208334,72.0,100.0
397,91.87985602083334,92.397012625,62.0,93.0
398,91.87985602083334,92.50363021875,69.0,91.0
399,91.87985602083334,92.57593410416668,65.0,96.0
400,92.46809102083334,92.95461038541667,62.0,96.0
401,92.17397352083334,93.04529661458334,57.0,80.0
402,92.76220852083334,93.44358072916667,69.0,104.0
403,92.76220852083334,93.47299247916668,65.0,107.0
404,93.35044352083334,93.70706098958334,57.0,87.0
405,91.87985602083334,94.00853142708334,50.0,100.0
406,93.64456102083334,94.02568828125001,69.0,108.0
407,93.64456102083334,94.04161964583334,65.0,113.0
408,94.23279602083333,94.82470748958335,69.0,90.0
409,94.23279602083333,94.85044277083334,60.0,88.0
410,94.23279602083333,94.87862903125,65.0,100.0
411,94.82103102083335,95.27078569791668,53.0,86.0
412,95.11514852083334,95.6837756875,69.0,92.0
413,95.11514852083334,95.69970705208334,60.0,90.0
414,95.11514852083334,95.70460901041668,65.0,102.0
415,95.70338352083334,95.98647161458334,53.0,86.0
416,95.99750102083334,96.22299110416667,69.0,100.0
417,94.23279602083333,96.24137344791667,41.0,92.0
418,95.99750102083334,96.30387341666668,60.0,102.0
419,94.52691352083335,96.32348125,48.0,75.0
420,96.29161852083334,96.56735367708335,53.0,91.0
421,96.58573602083334,96.93254957291667,67.0,110.0
422,96.58573602083334,97.04284363541667,58.0,93.0
423,97.17397102083333,97.45215715625001,58.0,100.0
424,96.58573602083334,97.485245375,43.0,91.0
425,96.87985352083334,97.49014733333334,50.0,87.0
426,97.17397102083333,97.5220100625,67.0,113.0
427,97.46808852083333,97.73524525,55.0,89.0
428,97.76220602083335,98.09186271875001,67.0,93.0
429,97.76220602083335,98.09431369791668,64.0,98.0
430,97.76220602083335,98.10411761458334,60.0,88.0
431,98.05632352083335,98.42519588541667,55.0,87.0
432,97.76220602083335,98.49014683333334,48.0,87.0
433,98.35044102083334,98.64210754166668,60.0,110.0
434,98.35044102083334,98.68622516666667,67.0,110.0
435,98.93867602083334,99.58696001041668,69.0,93.0
436,98.93867602083334,99.67029330208334,65.0,94.0
437,98.93867602083334,99.67396977083334,60.0,87.0
438,99.52691102083334,99.99382255208334,53.0,87.0
439,99.82102852083334,100.41416547916667,69.0,93.0
440,99.82102852083334,100.44235173958334,60.0,92.0
441,99.82102852083334,100.44970467708335,65.0,104.0
442,100.40926352083333,100.72298885416667,53.0,94.0
443,98.93867602083334,100.92519463541667,41.0,96.0
444,99.23279352083334,100.96686128125,48.0,81.0
445,100.70338102083333,101.02691027083334,60.0,104.0
446,100.70338102083333,101.06367495833334,69.0,100.0
447,100.70338102083333,101.11269454166667,65.0,110.0
448,100.99749852083335,101.19970430208335,53.0,89.0
449,101.29161602083335,101.64823348958335,69.0,91.0
450,101.29161602083335,101.6690668125,62.0,88.0
451,101.29161602083335,101.68254719791668,65.0,94.0
452,101.58573352083334,101.999949,57.0,86.0
453,101.29161602083335,102.00239997916667,50.0,86.0
454,101.87985102083334,102.19112537500001,65.0,104.0
455,101.87985102083334,102.19235086458335,69.0,91.0
456,101.87985102083334,102.39333115625001,62.0,96.0
457,102.46808602083334,102.75607607291667,67.0,96.0
458,102.46808602083334,102.79896820833333,58.0,91.0
459,102.46808602083334,102.83695838541668,62.0,89.0
460,102.76220352083334,103.17151704166668,50.0,85.0
461,102.46808602083334,103.21563466666667,43.0,88.0
462,103.05632102083334,103.32960519791668,58.0,97.0
463,103.05632102083334,103.35656596875,67.0,113.0
464,103.05632102083334,103.37494831250001,62.0,113.0
465,103.35043852083334,103.48891884375001,43.0,89.0
466,103.64455602083333,103.99382055208333,72.0,87.0
467,103.64455602083333,104.04896758333334,67.0,91.0
468,103.64455602083333,104.05754601041667,64.0,88.0
469,103.64455602083333,104.51955558333334,48.0,88.0
470,104.23279102083335,104.54774184375,64.0,89.0
471,104.23279102083335,104.56367320833334,72.0,93.0
472,103.93867352083335,104.57225163541668,55.0,80.0
473,104.23279102083335,104.72298685416668,67.0,100.0
474,104.52690852083335,104.80754563541667,60.0,86.0
475,104.82102602083334,105.16293761458334,62.0,88.0
476,104.82102602083334,105.16906506250001,69.0,89.0
477,104.82102602083334,105.18254544791668,65.0,98.0
478,105.11514352083334,105.50117273958334,57.0,84.0
479,104.82102602083334,105.51342763541668,50.0,91.0
480,105.40926102083334,105.749947125,62.0,108.0
481,105.40926102083334,105.749947125,69.0,110.0
482,105.70337852083334,105.80999611458334,48.0,100.0
483,105.40926102083334,105.87984902083335,65.0,114.0
484,105.99749602083334,106.35901544791668,62.0,88.0
485,105.99749602083334,106.36759387500001,70.0,97.0
486,105.99749602083334,106.38475072916667,65.0,96.0
487,106.58573102083334,106.87372107291668,62.0,98.0
488,106.29161352083334,106.88352498958334,53.0,84.0
489,105.99749602083334,106.88475047916667,46.0,95.0
490,106.58573102083334,106.8896524375,70.0,100.0
491,106.58573102083334,106.89455439583334,65.0,110.0
492,106.87984852083333,107.00117198958334,58.0,89.0
493,107.17396602083335,107.49504429166667,72.0,90.0
494,107.17396602083335,107.53180897916667,64.0,88.0
495,107.17396602083335,107.55999523958334,67.0,93.0
496,107.46808352083335,107.83450490625,55.0,86.0
497,107.17396602083335,107.85656371875001,48.0,88.0
498,107.76220102083334,108.10043614583334,64.0,100.0
499,107.76220102083334,108.10166163541668,67.0,102.0
500,107.76220102083334,108.15680866666668,72.0,91.0
501,108.05631852083334,108.20950471875001,48.0,91.0
502,108.35043602083334,108.57224963541667,62.0,89.0
503,108.35043602083334,108.99994550000001,69.0,91.0
504,108.35043602083334,109.07592585416667,65.0,94.0
505,108.93867102083334,109.24014145833334,62.0,113.0
506,109.23278852083334,109.45092566666668,69.0,100.0
507,109.23278852083334,109.485239375,64.0,104.0
508,108.64455352083334,109.57960207291667,57.0,84.0
509,109.52690602083334,109.82715096875,65.0,98.0
510,109.52690602083334,109.87126859375,69.0,92.0
511,108.35043602083334,110.19724882291668,50.0,89.0
512,109.82102352083334,110.20705273958335,57.0,88.0
513,110.11514102083333,110.40190558333335,74.0,102.0
514,110.11514102083333,110.41170950000001,65.0,96.0
515,110.11514102083333,110.41783694791667,69.0,108.0
516,110.40925852083335,110.71563091666667,50.0,102.0
517,110.65803290625001,110.95582687500001,65.0,66.0
518,110.64945447916668,110.96072883333333,70.0,78.0
519,110.65803290625001,110.96440530208334,62.0,63.0
520,110.65313094791668,111.92151266666667,46.0,90.0
521,111.867591125,112.16415960416667,62.0,45.0
522,111.85288525000001,112.16415960416667,70.0,53.0
523,111.85043427083335,112.17028705208334,65.0,47.0
524,112.16048313541667,112.50239472916668,46.0,52.0
525,112.45950259375,112.74259068750001,65.0,66.0
526,112.45950259375,112.74871813541668,70.0,75.0
527,110.65803290625001,112.75607107291667,34.0,88.0
528,112.46563004166667,112.75852205208334,62.0,69.0
529,112.70950246875,112.7720024375,46.0,65.0
530,113.05631602083334,113.45460013541667,65.0,59.0
531,113.04283563541668,113.67886472916668,62.0,80.0
532,113.04283563541668,113.68254119791668,70.0,71.0
533,113.04283563541668,114.86881511458334,46.0,76.0
534,114.80018769791667,115.06734442708334,70.0,76.0
535,114.80263867708334,115.07102089583334,62.0,61.0
536,114.80018769791667,115.07592285416668,65.0,67.0
537,113.05141406250002,115.13842282291668,34.0,77.0
538,115.09920715625,115.15557967708334,45.0,58.0
539,115.4043540625,115.73155978125001,64.0,69.0
540,115.38842269791668,115.73401076041668,61.0,71.0
541,115.39577563541667,115.75852055208334,69.0,74.0
542,116.03670668750001,116.24749089583334,64.0,47.0
543,116.02322630208334,116.26342226041668,69.0,43.0
544,116.02322630208334,116.26464775000001,61.0,39.0
545,116.57959857291668,116.79896120833334,64.0,50.0
546,116.57102014583334,116.80386316666667,61.0,36.0
547,116.57347112500001,116.80753963541667,69.0,44.0
548,115.39577563541667,117.17886297916668,45.0,77.0
549,117.15190220833334,117.39332365625,64.0,51.0
550,117.15190220833334,117.39945110416667,69.0,51.0
551,117.14454927083334,117.40925502083334,61.0,44.0
552,117.749941125,118.01464687500001,69.0,62.0
553,117.74381367708334,118.01709785416668,61.0,52.0
554,117.75116661458334,118.01709785416668,64.0,59.0
555,118.36023493750001,118.5808230625,69.0,47.0
556,118.35288200000001,118.58449953125,64.0,44.0
557,118.35043102083334,118.58572502083334,61.0,38.0
558,117.43744128125,118.99748952083334,45.0,55.0
559,118.92150916666668,119.05998948958334,64.0,83.0
560,118.91415622916668,119.06244046875001,69.0,92.0
561,118.91415622916668,119.06856791666668,61.0,95.0
562,115.4043540625,119.15680316666668,33.0,79.0
563,119.17763648958334,119.30753838541668,64.0,68.0
564,119.176411,119.32224426041668,61.0,62.0
565,119.176411,119.32224426041668,69.0,73.0
566,119.03057773958334,119.53057748958334,45.0,80.0
567,119.27812663541667,119.58695001041667,33.0,98.0
568,119.46685203125001,119.67395977083333,61.0,80.0
569,119.46440105208335,119.67763623958334,69.0,75.0
570,119.47665594791667,119.70214603125001,64.0,83.0
571,119.59185196875,119.89577338541667,45.0,94.0
572,119.75239110416668,119.91415572916668,33.0,102.0
573,120.073469375,120.38474372916667,62.0,79.0
574,120.073469375,120.3896456875,69.0,82.0
575,120.073469375,120.40802803125001,65.0,71.0
576,120.073469375,120.74871413541668,50.0,85.0
577,120.073469375,121.00116498958334,38.0,83.0
578,120.66170437500001,121.00606694791668,62.0,87.0
579,120.95582187500001,121.02812576041667,50.0,74.0
580,120.66170437500001,121.04160614583334,65.0,90.0
581,120.66170437500001,121.04650810416668,69.0,84.0
582,121.26219427083335,121.66170387500001,58.0,59.0
583,121.26587073958335,121.6690568125,62.0,65.0
584,121.26219427083335,121.68008621875,67.0,66.0
585,121.24993937500001,121.92273315625,43.0,94.0
586,121.82224301041667,121.97542920833334,58.0,68.0
587,121.82714496875,121.98768410416668,62.0,55.0
588,121.81489007291668,122.01587036458334,67.0,60.0
589,121.24993937500001,122.16415460416667,31.0,95.0
590,122.132291875,122.17886047916667,43.0,68.0
591,122.426409375,122.71685040625,48.0,85.0
592,122.426409375,122.74013470833334,60.0,81.0
593,122.426409375,122.74258568750001,64.0,69.0
594,122.426409375,122.75974254166668,67.0,84.0
595,122.867585625,123.09307570833334,48.0,80.0
596,123.014644375,123.28792855208334,60.0,90.0
597,122.426409375,123.34185009375001,36.0,88.0
598,123.014644375,123.34185009375001,64.0,90.0
599,123.014644375,123.34675205208335,67.0,99.0
600,123.308761875,123.37984027083334,48.0,81.0
601,123.60287937500001,123.92150666666667,50.0,83.0
602,123.60287937500001,123.96684978125,69.0,83.0
603,123.60287937500001,123.97665369791667,62.0,84.0
604,123.60287937500001,123.99993800000001,65.0,83.0
605,124.04405562500001,124.27444766666667,50.0,84.0
606,124.19111437500001,124.44233973958335,62.0,97.0
607,124.19111437500001,124.46194757291667,69.0,99.0
608,124.19111437500001,124.4631730625,65.0,99.0
609,124.48523187500001,124.53547694791668,50.0,80.0
610,123.60287937500001,124.57591810416667,38.0,84.0
611,124.77934937500001,125.08204530208334,46.0,87.0
612,124.77934937500001,125.13229037500001,62.0,72.0
613,124.77934937500001,125.15312369791667,58.0,85.0
614,124.77934937500001,125.16415310416667,65.0,86.0
615,125.22052562500001,125.45949609375,46.0,79.0
616,125.367584375,125.63229012500001,58.0,104.0
617,125.367584375,125.68866264583335,62.0,88.0
618,124.77934937500001,125.71194694791667,34.0,92.0
619,125.661701875,125.71194694791667,46.0,90.0
620,125.367584375,125.71562341666667,65.0,93.0
621,125.955819375,126.26831921875001,48.0,90.0
622,125.955819375,126.32959369791668,60.0,84.0
623,125.955819375,126.32959369791668,67.0,82.0
624,125.955819375,126.34797604166667,64.0,83.0
625,126.396995625,126.67150529166668,48.0,76.0
626,126.54405437500002,126.87861303125001,60.0,110.0
627,126.83817187500001,126.90925027083334,48.0,75.0
628,126.54405437500002,126.90925027083334,64.0,99.0
629,126.54405437500002,126.91782869791668,67.0,96.0
630,125.955819375,126.92150516666668,36.0,96.0
631,127.13228937500001,127.48645586458335,65.0,58.0
632,127.13228937500001,127.51096565625001,62.0,75.0
633,127.13228937500001,127.52812251041668,50.0,97.0
634,127.13228937500001,127.52812251041668,69.0,71.0
635,127.57346562500001,127.83694588541668,50.0,88.0
636,127.72052437500001,127.98523012500002,62.0,106.0
637,127.72052437500001,128.00483795833335,65.0,95.0
638,127.13228937500001,128.02444579166666,38.0,96.0
639,127.72052437500001,128.02934775,69.0,99.0
640,128.014641875,128.06733792708334,50.0,68.0
641,128.30875937500002,128.64209254166667,50.0,87.0
642,128.30875937500002,128.67395527083335,69.0,80.0
643,128.30875937500002,128.68008271875001,62.0,88.0
644,128.30875937500002,128.69478859375002,65.0,75.0
645,128.749935625,128.98768060416668,50.0,76.0
646,128.30875937500002,129.18130795833335,38.0,88.0
647,128.89699437500002,129.22542558333333,62.0,100.0
648,128.89699437500002,129.24625890625,69.0,96.0
649,128.89699437500002,129.25361184375,65.0,95.0
650,129.19111187500002,129.28179810416668,50.0,91.0
651,129.52689602083333,129.97419971875001,62.0,85.0
652,129.52689602083333,129.97665069791668,69.0,87.0
653,129.52689602083333,130.06243496875,65.0,88.0
654,130.11513102083333,130.33449365625,62.0,80.0
655,129.82101352083333,130.7891502916667,57.0,79.0
656,130.40924852083333,131.06243446875,69.0,91.0
657,130.40924852083333,131.06488544791668,65.0,89.0
658,130.40924852083333,131.06733642708335,62.0,89.0
659,130.99748352083336,131.37248333333335,57.0,84.0
660,129.52689602083333,131.65679691666668,50.0,87.0
661,131.58571852083335,131.93620854166667,57.0,84.0
662,131.29160102083335,132.21929663541667,69.0,88.0
663,131.29160102083335,132.22664957291667,62.0,86.0
664,131.29160102083335,132.2425809375,65.0,87.0
665,132.46807102083335,132.73522775,62.0,75.0
666,132.17395352083335,133.01096290625,57.0,76.0
667,132.76218852083335,133.40679604166667,69.0,93.0
668,132.76218852083335,133.43620779166667,65.0,94.0
669,132.76218852083335,133.45459013541668,62.0,91.0
670,133.35042352083335,133.71561941666667,57.0,88.0
671,131.87983602083335,133.78424683333336,50.0,91.0
672,133.64454102083334,134.21561916666667,69.0,93.0
673,133.93865852083334,134.25483483333335,65.0,88.0
674,133.64454102083334,134.4729719791667,62.0,104.0
675,134.23277602083334,135.07713834375002,43.0,94.0
676,134.82101102083334,135.15556967708335,58.0,106.0
677,134.52689352083334,135.40189308333333,55.0,88.0
678,135.11512852083334,135.42395189583334,62.0,88.0
679,135.40924602083334,135.63718708333334,60.0,84.0
680,135.40924602083334,135.720520375,64.0,88.0
681,134.82101102083334,135.73032429166668,67.0,96.0
682,135.70336352083334,136.29037303125,55.0,86.0
683,135.40924602083334,136.30507890625,48.0,88.0
684,135.99748102083333,136.32101027083334,72.0,96.0
685,135.99748102083333,136.33449065625,64.0,91.0
686,135.99748102083333,136.57346112500002,60.0,93.0
687,136.29159852083333,136.58449053125,67.0,89.0
688,136.58571602083333,136.92272565625,65.0,87.0
689,136.58571602083333,137.07836283333333,69.0,88.0
690,136.58571602083333,137.338166625,72.0,87.0
691,137.46806852083336,137.78056836458333,67.0,102.0
692,136.87983352083333,137.80017619791667,60.0,83.0
693,137.17395102083336,137.81120560416667,65.0,90.0
694,137.46806852083336,138.14944072916668,72.0,108.0
695,137.76218602083335,138.19233286458334,69.0,84.0
696,138.05630352083335,138.62370519791668,60.0,87.0
697,136.58571602083333,138.6531169479167,53.0,86.0
698,138.35042102083335,138.65556792708335,69.0,114.0
699,138.35042102083335,138.69478359375,72.0,114.0
700,138.93865602083335,139.62860665625,74.0,88.0
701,138.93865602083335,139.67272428125,69.0,87.0
702,138.93865602083335,139.67885172916667,65.0,85.0
703,139.52689102083335,140.07713584375,62.0,80.0
704,139.82100852083335,140.39576313541667,74.0,87.0
705,139.82100852083335,140.41291998958334,65.0,86.0
706,139.82100852083335,140.49012583333334,69.0,90.0
707,140.40924352083334,140.72419434375,62.0,86.0
708,139.23277352083335,140.74992962500002,57.0,74.0
709,138.93865602083335,140.90189033333334,50.0,89.0
710,140.70336102083334,141.0575275104167,65.0,96.0
711,140.99747852083334,141.29159602083334,69.0,87.0
712,140.70336102083334,141.53669393750002,74.0,88.0
713,141.29159602083334,141.58571352083334,70.0,86.0
714,141.29159602083334,141.60041939583334,67.0,87.0
715,141.87983102083334,142.4435562291667,55.0,82.0
716,142.17394852083333,142.72296785416668,62.0,91.0
717,142.17394852083333,142.73154628125002,67.0,91.0
718,142.17394852083333,142.76218352083333,58.0,86.0
719,142.76218352083333,143.08938923958334,55.0,88.0
720,143.05630102083333,143.30752638541668,58.0,97.0
721,141.29159602083334,143.34674205208336,43.0,87.0
722,141.58571352083334,143.36267341666667,50.0,79.0
723,143.05630102083333,143.36512439583333,67.0,102.0
724,143.05630102083333,143.55630077083333,62.0,102.0
725,143.35041852083333,143.59796741666668,55.0,88.0
726,143.64453602083336,143.9043398125,60.0,86.0
727,143.64453602083336,144.12982989583335,64.0,92.0
728,143.64453602083336,144.20335927083335,67.0,89.0
729,144.23277102083335,144.749927625,60.0,85.0
730,144.52688852083335,145.2572803125,64.0,94.0
731,144.52688852083335,145.29281951041668,72.0,91.0
732,145.11512352083335,145.45335864583333,60.0,89.0
733,143.93865352083336,145.48154490625,55.0,74.0
734,143.64453602083336,145.5317899791667,48.0,87.0
735,145.40924102083335,145.56732917708334,67.0,100.0
736,145.40924102083335,145.56978015625,72.0,83.0
737,145.40924102083335,145.59919190625,64.0,92.0
738,145.99747602083335,146.588162,69.0,90.0
739,145.99747602083335,146.6347306041667,60.0,88.0
740,145.99747602083335,146.70703448958335,64.0,96.0
741,146.87982852083334,147.01830884375002,69.0,104.0
742,146.87982852083334,147.02933825000002,60.0,110.0
743,146.58571102083334,147.44723019791667,57.0,85.0
744,147.46806352083334,147.8455143125,60.0,108.0
745,147.46806352083334,147.85164176041667,69.0,110.0
746,147.46806352083334,147.88472997916668,64.0,116.0
747,147.76218102083334,148.06365145833334,57.0,113.0
748,146.29159352083335,148.07100439583334,52.0,81.0
749,145.99747602083335,148.1237004479167,45.0,84.0
750,148.05629852083334,148.20335727083335,69.0,110.0
751,148.05629852083334,148.30384741666668,60.0,113.0
752,148.05629852083334,148.32345525000002,64.0,119.0
753,148.35041602083334,149.08938623958335,65.0,89.0
754,148.35041602083334,149.11021956250002,69.0,91.0
755,148.93865102083333,149.529337,62.0,83.0
756,149.23276852083333,149.92884660416667,69.0,93.0
757,149.23276852083333,149.9484544375,65.0,87.0
758,149.82100352083336,150.14330728125,62.0,83.0
759,148.35041602083334,150.45458163541667,50.0,88.0
760,150.40923852083336,150.55262080208334,62.0,82.0
761,150.11512102083336,150.56977765625,69.0,83.0
762,150.11512102083336,150.58325804166668,65.0,88.0
763,148.64453352083333,150.68742465625002,57.0,64.0
764,150.70335602083335,151.30262042708335,69.0,88.0
765,150.70335602083335,151.42149291666666,65.0,93.0
766,151.29159102083335,151.61144380208336,62.0,89.0
767,150.99747352083335,151.76585548958334,57.0,77.0
768,151.58570852083335,152.27688464583335,69.0,107.0
769,151.58570852083335,152.3001689479167,65.0,107.0
770,152.17394352083335,152.53791392708334,57.0,81.0
771,150.70335602083335,152.58203155208335,50.0,84.0
772,152.76217852083334,153.07835483333335,65.0,92.0
773,152.46806102083335,153.09183521875002,69.0,89.0
774,152.46806102083335,153.14330578125,62.0,98.0
775,153.05629602083334,153.9839916354167,43.0,93.0
776,153.35041352083334,153.98644261458335,50.0,87.0
777,153.93864852083334,153.9913445729167,67.0,84.0
778,153.93864852083334,153.9913445729167,67.0,90.0
779,153.93864852083334,154.1543346875,58.0,86.0
780,153.64453102083334,154.23276602083334,55.0,93.0
781,153.93864852083334,154.41536396875,62.0,86.0
782,154.52688352083334,154.9876676041667,55.0,88.0
783,154.23276602083334,155.04036365625,48.0,88.0
784,154.82100102083334,155.4803144166667,67.0,96.0
785,155.11511852083333,155.5072751875,64.0,88.0
786,154.82100102083334,156.23031404166667,60.0,100.0
787,156.29158852083336,156.74747064583335,60.0,102.0
788,156.29158852083336,156.7781078854167,65.0,104.0
789,155.99747102083333,156.80997061458334,53.0,88.0
790,156.87982352083336,157.26830371875002,65.0,81.0
791,156.29158852083336,157.31854879166667,57.0,100.0
792,156.87982352083336,157.33325466666668,60.0,86.0
793,155.70335352083333,157.51585261458334,48.0,83.0
794,157.17394102083335,157.53055848958334,53.0,110.0
795,155.40923602083333,157.56609768750002,41.0,93.0
796,157.46805852083335,157.67761723958336,57.0,91.0
797,157.46805852083335,157.77197993750002,60.0,96.0
798,157.46805852083335,157.79036228125,65.0,100.0
799,157.76217602083335,157.79036228125,65.0,88.0
800,157.76217602083335,158.27320517708336,74.0,88.0
801,157.76217602083335,158.51707760416667,69.0,92.0
802,158.35041102083335,158.985214625,62.0,86.0
803,158.64452852083335,159.3810477604167,65.0,91.0
804,158.64452852083335,159.39820461458334,69.0,98.0
805,159.23276352083334,159.5611947291667,62.0,92.0
806,158.05629352083335,159.62982214583334,57.0,77.0
807,157.76217602083335,159.69354760416667,50.0,88.0
808,159.52688102083334,160.09918465625,65.0,110.0
809,159.52688102083334,160.10408661458334,69.0,113.0
810,160.70335102083334,161.35040952083335,55.0,88.0
811,160.99746852083334,161.63962506250002,67.0,92.0
812,160.99746852083334,161.7131544375,58.0,89.0
813,160.11511602083334,161.98153665625,43.0,93.0
814,160.40923352083334,162.0219778125,50.0,86.0
815,161.87982102083333,162.27565415625,67.0,100.0
816,161.58570352083333,162.33325216666668,55.0,96.0
817,161.87982102083333,162.33937961458335,62.0,104.0
818,162.46805602083336,162.77320292708333,60.0,88.0
819,162.46805602083336,163.02320280208335,64.0,93.0
820,162.46805602083336,163.18741840625,67.0,89.0
821,163.05629102083336,163.49991825,60.0,86.0
822,163.35040852083335,164.01830034375,64.0,98.0
823,163.35040852083335,164.03178072916668,67.0,98.0
824,163.93864352083335,164.34305508333335,60.0,91.0
825,162.76217352083336,164.43864327083335,55.0,80.0
826,162.46805602083336,164.4778589375,48.0,84.0
827,164.23276102083335,164.6567804166667,67.0,102.0
828,164.23276102083335,164.76707447916667,64.0,107.0
829,164.82099602083335,165.32099577083335,69.0,91.0
830,164.82099602083335,165.3479565416667,62.0,89.0
831,165.40923102083335,165.51217214583335,69.0,64.0
832,165.40923102083335,165.52932900000002,62.0,46.0
833,164.82099602083335,165.65555442708336,65.0,90.0
834,165.11511352083335,165.99624053125,57.0,76.0
835,165.70334852083334,166.33202467708335,69.0,98.0
836,165.70334852083334,166.35898544791667,62.0,93.0
837,165.70334852083334,166.37369132291667,65.0,98.0
838,166.58570102083334,166.86266166666667,62.0,108.0
839,166.58570102083334,166.89820086458334,69.0,108.0
840,166.29158352083334,166.90065184375,57.0,91.0
841,166.58570102083334,166.92025967708335,65.0,110.0
842,164.82099602083335,166.9288381041667,50.0,92.0
843,167.17393602083334,167.8258964791667,69.0,102.0
844,167.17393602083334,167.87614155208334,62.0,100.0
845,167.17393602083334,167.90677879166668,65.0,108.0
846,167.76217102083334,168.3896216875,57.0,88.0
847,168.05628852083333,168.71560191666669,69.0,102.0
848,168.05628852083333,168.74256268750003,62.0,104.0
849,168.05628852083333,168.75849405208334,65.0,104.0
850,168.64452352083333,169.06364095833334,57.0,91.0
851,167.17393602083334,169.10163113541668,50.0,92.0
852,168.93864102083336,169.55996423958334,69.0,86.0
853,169.23275852083336,169.57834658333334,65.0,108.0
854,168.93864102083336,169.80261117708335,62.0,108.0
855,170.11511102083335,170.83079693750003,53.0,107.0
856,170.40922852083335,170.99868901041668,57.0,104.0
857,170.40922852083335,171.073443875,65.0,102.0
858,170.70334602083335,171.15187520833334,60.0,81.0
859,170.99746352083335,171.4337378125,53.0,100.0
860,171.29158102083335,171.632267125,57.0,113.0
861,169.82099352083335,171.63471810416667,48.0,87.0
862,169.52687602083336,171.65064946875,41.0,104.0
863,171.58569852083335,171.92393364583336,60.0,91.0
864,171.29158102083335,171.94354147916667,65.0,93.0
865,171.87981602083335,172.76707047916668,43.0,94.0
866,172.17393352083334,172.77809988541668,50.0,88.0
867,172.46805102083334,173.04280563541667,55.0,114.0
868,172.76216852083334,173.07099189583334,58.0,109.0
869,172.76216852083334,173.20211928125002,67.0,89.0
870,173.35040352083334,173.76584448958334,55.0,90.0
871,173.05628602083334,173.82589347916667,48.0,92.0
872,173.93863852083334,174.27809913541668,64.0,98.0
873,173.64452102083334,174.31241284375002,67.0,94.0
874,173.64452102083334,174.49010883333335,60.0,113.0
875,175.11510852083336,175.50849067708336,57.0,110.0
876,175.40922602083336,175.51216714583336,60.0,78.0
877,175.11510852083336,175.52564753125,65.0,93.0
878,174.82099102083333,175.720500375,53.0,107.0
879,174.52687352083333,175.85775520833334,48.0,78.0
880,175.70334352083336,176.06118647916668,65.0,98.0
881,175.70334352083336,176.10407861458336,60.0,102.0
882,175.99746102083336,176.29525498958336,53.0,113.0
883,175.99746102083336,176.30996086458336,48.0,38.0
884,174.23275602083334,176.35407848958334,41.0,94.0
885,176.29157852083335,176.53177447916667,60.0,102.0
886,176.29157852083335,176.56608818750001,65.0,96.0
887,176.58569602083335,176.89819586458336,69.0,88.0
888,176.58569602083335,176.96804877083335,65.0,89.0
889,176.58569602083335,176.97907817708335,62.0,86.0
890,176.58569602083335,177.23275452083334,50.0,89.0
891,176.87981352083335,177.25481333333335,57.0,86.0
892,177.17393102083335,177.40799953125,65.0,110.0
893,177.17393102083335,177.42883285416667,69.0,98.0
894,177.46804852083335,177.51706810416667,50.0,77.0
895,177.17393102083335,177.65554842708335,62.0,100.0
896,177.76216602083335,178.00358746875003,58.0,90.0
897,177.76216602083335,178.07344037500002,67.0,92.0
898,177.76216602083335,178.1249109375,62.0,91.0
899,178.35040102083335,178.56731267708335,58.0,100.0
900,178.35040102083335,178.59304795833336,67.0,108.0
901,177.76216602083335,178.61265579166667,43.0,91.0
902,178.05628352083335,178.66412635416668,50.0,88.0
903,178.35040102083335,178.75971454166668,62.0,110.0
904,178.64451852083334,178.8994203541667,55.0,89.0
905,178.93863602083334,179.25113586458335,64.0,102.0
906,178.93863602083334,179.25603782291668,60.0,90.0
907,178.93863602083334,179.27687114583335,67.0,94.0
908,179.23275352083334,179.5513808125,55.0,87.0
909,179.52687102083334,179.82711596875,60.0,100.0
910,178.93863602083334,179.84059635416668,48.0,87.0
911,179.52687102083334,179.88593946875002,67.0,108.0
912,179.52687102083334,179.9876551041667,64.0,110.0
913,179.82098852083334,180.1249099375,55.0,88.0
914,180.11510602083334,180.45946859375002,69.0,98.0
915,180.11510602083334,180.46559604166669,62.0,89.0
916,180.11510602083334,180.48642936458336,65.0,98.0
917,180.40922352083334,180.73275277083334,57.0,87.0
918,180.11510602083334,180.81363508333334,50.0,89.0
919,180.70334102083334,180.9692722604167,62.0,104.0
920,180.70334102083334,180.99623303125,69.0,107.0
921,180.70334102083334,181.00971341666667,65.0,110.0
922,180.99745852083333,181.11633101041667,50.0,102.0
923,181.29157602083333,181.99010508333333,62.0,104.0
924,181.29157602083333,181.99500704166667,70.0,106.0
925,181.29157602083333,182.1751540104167,46.0,95.0
926,181.87981102083336,182.19966380208334,58.0,93.0
927,181.58569352083336,182.20701673958334,53.0,85.0
928,182.17392852083336,182.55383029166669,62.0,92.0
929,182.17392852083336,182.71927138541668,70.0,106.0
930,183.05628102083335,183.36387890625002,72.0,90.0
931,182.46804602083336,183.43005534375,48.0,94.0
932,183.05628102083335,183.43128083333335,64.0,91.0
933,183.05628102083335,183.44476121875002,67.0,100.0
934,183.35039852083335,183.58079056250003,60.0,85.0
935,182.76216352083335,183.6714767916667,55.0,83.0
936,183.64451602083335,183.7131434375,67.0,87.0
937,183.64451602083335,183.73030029166668,72.0,84.0
938,183.64451602083335,183.73152578125,64.0,85.0
939,184.23275102083335,184.57956457291667,60.0,93.0
940,184.52686852083335,184.78544682291667,67.0,110.0
941,184.52686852083335,184.79279976041667,64.0,102.0
942,184.52686852083335,184.80015269791667,72.0,100.0
943,185.11510352083334,185.43495630208335,60.0,88.0
944,183.93863352083335,185.4655935416667,55.0,85.0
945,183.64451602083335,185.4925543125,48.0,93.0
946,185.40922102083334,185.67637775,64.0,107.0
947,185.40922102083334,185.69598558333334,67.0,113.0
948,185.40922102083334,185.69966205208334,72.0,100.0
949,185.99745602083334,186.514612625,62.0,93.0
950,185.99745602083334,186.62123021875001,69.0,91.0
951,185.99745602083334,186.69353410416667,65.0,96.0
952,186.58569102083334,187.07221038541667,62.0,96.0
953,186.29157352083334,187.16289661458336,57.0,80.0
954,186.87980852083334,187.5611807291667,69.0,104.0
955,186.87980852083334,187.59059247916667,65.0,107.0
956,187.46804352083333,187.82466098958335,57.0,87.0
957,185.99745602083334,188.12613142708335,50.0,100.0
958,187.76216102083336,188.14328828125002,69.0,108.0
959,187.76216102083336,188.15921964583336,65.0,113.0
960,188.35039602083336,188.94230748958336,69.0,90.0
961,188.35039602083336,188.96804277083334,60.0,88.0
962,188.35039602083336,188.99622903125,65.0,100.0
963,188.93863102083336,189.38838569791668,53.0,86.0
964,189.23274852083335,189.8013756875,69.0,92.0
965,189.23274852083335,189.81730705208335,60.0,90.0
966,189.23274852083335,189.82220901041669,65.0,102.0
967,189.82098352083335,190.10407161458335,53.0,86.0
968,190.11510102083335,190.3405911041667,69.0,100.0
969,188.35039602083336,190.35897344791667,41.0,92.0
970,190.11510102083335,190.4214734166667,60.0,102.0
971,188.64451352083336,190.44108125000002,48.0,75.0
972,190.40921852083335,190.68495367708334,53.0,91.0
973,190.70333602083335,191.05014957291667,67.0,110.0
974,190.70333602083335,191.16044363541667,58.0,93.0
975,191.29157102083335,191.56975715625,58.0,100.0
976,190.70333602083335,191.60284537500002,43.0,91.0
977,190.99745352083335,191.60774733333335,50.0,87.0
978,191.29157102083335,191.63961006250003,67.0,113.0
979,191.58568852083334,191.85284525,55.0,89.0
980,191.87980602083334,192.20946271875002,67.0,93.0
981,191.87980602083334,192.21191369791669,64.0,98.0
982,191.87980602083334,192.22171761458335,60.0,88.0
983,192.17392352083334,192.5427958854167,55.0,87.0
984,191.87980602083334,192.60774683333335,48.0,87.0
985,192.46804102083334,192.75970754166667,60.0,110.0
986,192.46804102083334,192.80382516666668,67.0,110.0
987,193.05627602083334,193.70456001041669,69.0,93.0
988,193.05627602083334,193.78789330208335,65.0,94.0
989,193.05627602083334,193.79156977083335,60.0,87.0
990,193.64451102083333,194.11142255208335,53.0,87.0
991,193.93862852083333,194.5317654791667,69.0,93.0
992,193.93862852083333,194.55995173958334,60.0,92.0
993,193.93862852083333,194.56730467708334,65.0,104.0
994,194.52686352083336,194.84058885416667,53.0,94.0
995,193.05627602083334,195.04279463541667,41.0,96.0
996,193.35039352083334,195.08446128125001,48.0,81.0
997,194.82098102083336,195.14451027083334,60.0,104.0
998,194.82098102083336,195.18127495833335,69.0,100.0
999,194.82098102083336,195.2302945416667,65.0,110.0
1000,195.11509852083336,195.31730430208336,53.0,89.0
1001,195.40921602083336,195.76583348958334,69.0,91.0
1002,195.40921602083336,195.78666681250002,62.0,88.0
1003,195.40921602083336,195.8001471979167,65.0,94.0
1004,195.70333352083335,196.11754900000003,57.0,86.0
1005,195.40921602083336,196.1199999791667,50.0,86.0
1006,195.99745102083335,196.30872537500002,65.0,104.0
1007,195.99745102083335,196.30995086458336,69.0,91.0
1008,195.99745102083335,196.51093115625002,62.0,96.0
1009,196.58568602083335,196.87367607291668,67.0,96.0
1010,196.58568602083335,196.91656820833336,58.0,91.0
1011,196.58568602083335,196.95455838541668,62.0,89.0
1012,196.87980352083335,197.28911704166669,50.0,85.0
1013,196.58568602083335,197.33323466666667,43.0,88.0
1014,197.17392102083335,197.44720519791667,58.0,97.0
1015,197.17392102083335,197.47416596875001,67.0,113.0
1016,197.17392102083335,197.49254831250002,62.0,113.0
1017,197.46803852083335,197.60651884375002,43.0,89.0
1018,197.76215602083334,198.11142055208336,72.0,87.0
1019,197.76215602083334,198.16656758333335,67.0,91.0
1020,197.76215602083334,198.17514601041668,64.0,88.0
1021,197.76215602083334,198.63715558333334,48.0,88.0
1022,198.35039102083334,198.66534184375,64.0,89.0
1023,198.35039102083334,198.68127320833335,72.0,93.0
1024,198.05627352083334,198.6898516354167,55.0,80.0
1025,198.35039102083334,198.84058685416667,67.0,100.0
1026,198.64450852083334,198.92514563541667,60.0,86.0
1027,198.93862602083334,199.28053761458335,62.0,88.0
1028,198.93862602083334,199.28666506250002,69.0,89.0
1029,198.93862602083334,199.3001454479167,65.0,98.0
1030,199.23274352083334,199.61877273958333,57.0,84.0
1031,198.93862602083334,199.63102763541667,50.0,91.0
1032,199.52686102083334,199.86754712500002,62.0,108.0
1033,199.52686102083334,199.86754712500002,69.0,110.0
1034,199.82097852083334,199.92759611458334,48.0,100.0
1035,199.52686102083334,199.99744902083336,65.0,114.0
1036,200.11509602083333,200.47661544791669,62.0,88.0
1037,200.11509602083333,200.48519387500002,70.0,97.0
1038,200.11509602083333,200.5023507291667,65.0,96.0
1039,200.70333102083336,200.9913210729167,62.0,98.0
1040,200.40921352083336,201.00112498958336,53.0,84.0
1041,200.11509602083333,201.0023504791667,46.0,95.0
1042,200.70333102083336,201.00725243750003,70.0,100.0
1043,200.70333102083336,201.01215439583333,65.0,110.0
1044,200.99744852083336,201.11877198958334,58.0,89.0
1045,201.29156602083336,201.61264429166667,72.0,90.0
1046,201.29156602083336,201.64940897916668,64.0,88.0
1047,201.29156602083336,201.67759523958335,67.0,93.0
1048,201.58568352083336,201.95210490625,55.0,86.0
1049,201.29156602083336,201.97416371875002,48.0,88.0
1050,201.87980102083336,202.21803614583334,64.0,100.0
1051,201.87980102083336,202.21926163541667,67.0,102.0
1052,201.87980102083336,202.2744086666667,72.0,91.0
1053,202.17391852083335,202.32710471875,48.0,91.0
1054,202.46803602083335,202.6898496354167,62.0,89.0
1055,202.46803602083335,203.1175455,69.0,91.0
1056,202.46803602083335,203.1935258541667,65.0,94.0
1057,203.05627102083335,203.35774145833335,62.0,113.0
1058,203.35038852083335,203.5685256666667,69.0,100.0
1059,203.35038852083335,203.602839375,64.0,104.0
1060,202.76215352083335,203.69720207291667,57.0,84.0
1061,203.64450602083335,203.94475096875001,65.0,98.0
1062,203.64450602083335,203.98886859375003,69.0,92.0
1063,202.46803602083335,204.31484882291667,50.0,89.0
1064,203.93862352083335,204.32465273958334,57.0,88.0
1065,204.23274102083334,204.51950558333334,74.0,102.0
1066,204.23274102083334,204.5293095,65.0,96.0
1067,204.23274102083334,204.53543694791668,69.0,108.0
1068,204.52685852083334,204.83323091666668,50.0,102.0
1069,204.82097602083334,204.83323091666668,50.0,90.0
1070,205.40921102083334,205.9655832916667,62.0,87.0
1071,205.70332852083334,206.33935761458335,69.0,88.0
1072,205.70332852083334,206.37122034375002,65.0,89.0
1073,205.11509352083334,206.82955344791668,57.0,75.0
1074,206.29156352083334,206.94965142708335,62.0,88.0
1075,206.58568102083333,207.17269053125003,65.0,94.0
1076,206.87979852083336,207.24254343750002,69.0,88.0
1077,207.76215102083336,208.3896016875,65.0,88.0
1078,208.05626852083336,208.64695450000002,72.0,88.0
1079,208.64450352083335,208.8896014375,65.0,89.0
1080,207.46803352083336,208.94597395833335,60.0,80.0
1081,208.05626852083336,208.98764060416667,67.0,88.0
1082,207.17391602083336,209.05136606250002,53.0,85.0
1083,208.93862102083335,209.54523836458335,69.0,107.0
1084,209.52685602083335,209.83935586458335,67.0,88.0
1085,209.52685602083335,210.02930675000002,62.0,78.0
1086,209.52685602083335,210.40798303125,43.0,86.0
1087,209.82097352083335,210.4545516354167,50.0,80.0
1088,210.11509102083335,210.6420515416667,55.0,87.0
1089,210.40920852083335,210.7596985416667,58.0,86.0
1090,210.40920852083335,210.77808088541667,67.0,90.0
1091,211.29156102083334,211.54033540625002,60.0,91.0
1092,210.99744352083334,211.58567852083334,55.0,82.0
1093,210.70332602083334,211.6310216354167,48.0,87.0
1094,211.58567852083334,211.95209990625003,67.0,88.0
1095,211.58567852083334,212.00234497916668,64.0,91.0
1096,212.76214852083334,213.10528560416668,57.0,87.0
1097,212.46803102083334,213.18126595833334,53.0,91.0
1098,212.76214852083334,213.41165800000002,65.0,88.0
1099,213.05626602083336,213.49499129166668,60.0,84.0
1100,211.87979602083334,213.71067745833335,41.0,92.0
1101,212.17391352083334,213.78788330208334,48.0,83.0
1102,213.35038352083336,214.0587165,53.0,87.0
1103,213.64450102083336,214.23518700000002,60.0,89.0
1104,213.64450102083336,214.27685364583334,65.0,88.0
1105,214.82097102083335,215.06851991666667,62.0,88.0
1106,214.52685352083336,215.10283362500002,57.0,75.0
1107,214.23273602083336,215.18494142708334,50.0,88.0
1108,215.11508852083335,215.367539375,74.0,87.0
1109,215.11508852083335,215.44229423958336,65.0,87.0
1110,215.40920602083335,216.3074898854167,43.0,89.0
1111,215.70332352083335,216.3332251666667,50.0,85.0
1112,215.99744102083335,216.53420545833336,55.0,89.0
1113,216.29155852083335,216.57709759375,67.0,87.0
1114,216.29155852083335,216.58445053125,58.0,85.0
1115,216.58567602083335,217.48886184375002,45.0,89.0
1116,216.87979352083335,217.49866576041669,52.0,81.0
1117,217.17391102083334,217.75846955208334,57.0,88.0
1118,217.46802852083334,217.79400875000002,60.0,91.0
1119,217.46802852083334,217.9214596666667,69.0,88.0
1120,218.35038102083334,218.41165550000002,69.0,87.0
1121,218.05626352083334,218.6163122604167,57.0,87.0
1122,217.76214602083334,218.64449852083334,50.0,88.0
1123,218.35038102083334,218.99989050000002,62.0,110.0
1124,218.64449852083334,219.50724318750002,64.0,94.0
1125,219.82096852083336,220.0979291666667,62.0,88.0
1126,219.52685102083336,220.22415459375003,58.0,90.0
1127,220.11508602083336,220.53787992708334,65.0,110.0
1128,219.23273352083334,220.91165425000003,53.0,64.0
1129,220.40920352083336,220.9631248125,58.0,95.0
1130,218.93861602083334,220.97292872916668,46.0,86.0
1131,220.70332102083336,221.31606581250003,62.0,88.0
1132,220.99743852083336,221.53052648958334,65.0,91.0
1133,221.87979102083335,222.17145754166668,67.0,108.0
1134,221.87979102083335,222.18493792708335,64.0,98.0
1135,222.17390852083335,222.56851616666668,60.0,107.0
1136,222.46802602083335,222.7817513541667,72.0,110.0
1137,222.46802602083335,222.79768271875002,64.0,113.0
1138,222.76214352083335,223.06483944791668,60.0,110.0
1139,221.58567352083335,223.11385903125003,55.0,87.0
1140,221.29155602083335,223.18371193750002,48.0,94.0
1141,223.05626102083335,223.54523136458334,67.0,116.0
1142,223.05626102083335,223.62366269791667,72.0,107.0
1143,223.35037852083335,223.65797640625001,48.0,110.0
1144,223.64449602083334,224.19841731250003,69.0,94.0
1145,223.64449602083334,224.39817211458336,62.0,89.0
1146,223.64449602083334,224.40184858333336,65.0,102.0
1147,224.23273102083334,224.86018168750002,57.0,91.0
1148,223.64449602083334,224.94719144791668,50.0,107.0
1149,224.52684852083334,225.13591684375,69.0,110.0
1150,224.52684852083334,225.17023055208335,62.0,108.0
1151,224.52684852083334,225.1861619166667,65.0,116.0
1152,225.11508352083334,225.51826959375,50.0,108.0
1153,225.70331852083336,225.80993611458334,50.0,94.0
1154,225.40920102083334,226.09670067708336,62.0,114.0
1155,225.40920102083334,226.13714183333335,69.0,107.0
1156,225.40920102083334,226.14817123958335,65.0,116.0
1157,225.99743602083336,226.66042588541669,53.0,107.0
1158,225.99743602083336,226.6824846979167,41.0,104.0
1159,226.87978852083336,226.94473946875002,53.0,108.0
1160,226.87978852083336,227.2817491041667,41.0,104.0
1161,226.58567102083336,227.50846467708334,69.0,108.0
1162,226.58567102083336,227.54645485416668,65.0,116.0
1163,226.58567102083336,227.55870975000002,60.0,108.0
1164,227.46802352083336,227.84547431250002,53.0,98.0
1165,227.46802352083336,227.86508214583336,41.0,104.0
1166,227.76214102083335,228.17635650000003,60.0,107.0
1167,227.76214102083335,228.20944471875,65.0,114.0
1168,228.05625852083335,228.21679765625,41.0,81.0
1169,228.05625852083335,228.2927780104167,53.0,98.0
1170,228.35037602083335,228.89816986458334,67.0,98.0
1171,228.35037602083335,229.01581686458334,58.0,89.0
1172,228.35037602083335,229.04890508333335,62.0,98.0
1173,228.35037602083335,229.20454226041667,43.0,91.0
1174,228.64449352083335,229.25723831250002,50.0,85.0
1175,229.23272852083335,229.48517937500003,58.0,89.0
1176,228.93861102083335,229.514591125,55.0,87.0
1177,229.23272852083335,229.58934598958334,67.0,104.0
1178,229.23272852083335,229.89081642708334,62.0,98.0
1179,229.52684602083335,230.17022805208336,48.0,94.0
1180,229.82096352083335,230.20086529166667,55.0,87.0
1181,230.40919852083334,230.51336513541668,48.0,96.0
1182,230.11508102083334,230.75723756250002,67.0,88.0
1183,230.11508102083334,230.78052186458336,64.0,107.0
1184,230.11508102083334,230.82463948958335,60.0,96.0
1185,230.99743352083334,231.32586472916668,53.0,92.0
1186,231.29155102083334,231.92880560416668,65.0,100.0
1187,231.29155102083334,232.01091340625,57.0,104.0
1188,231.29155102083334,232.03052123958335,60.0,110.0
1189,231.58566852083334,232.22537408333335,53.0,86.0
1190,232.17390352083336,232.54890333333336,65.0,96.0
1191,232.17390352083336,232.5611582291667,57.0,96.0
1192,232.17390352083336,232.58566802083334,60.0,98.0
1193,230.70331602083334,232.6751287604167,41.0,107.0
1194,232.46802102083336,232.88101101041667,53.0,113.0
1195,232.76213852083336,232.97537370833334,57.0,91.0
1196,232.76213852083336,233.08566777083334,60.0,90.0
1197,232.76213852083336,233.10037364583334,65.0,89.0
1198,233.05625602083336,233.7449811666667,50.0,100.0
1199,233.35037352083336,233.7486576354167,57.0,88.0
1200,233.93860852083336,234.04890258333336,50.0,104.0
1201,233.64449102083336,234.15797115625003,65.0,113.0
1202,233.64449102083336,234.21434367708335,69.0,104.0
1203,233.64449102083336,234.37120634375,62.0,108.0
1204,234.82096102083335,235.06973540625,67.0,102.0
1205,234.82096102083335,235.0807648125,58.0,97.0
1206,234.82096102083335,235.08199030208334,62.0,98.0
1207,234.23272602083335,235.11998047916668,43.0,104.0
1208,234.52684352083335,235.15919614583336,50.0,88.0
1209,235.11507852083335,235.38223525,55.0,96.0
1210,235.40919602083335,235.78787230208334,69.0,102.0
1211,235.40919602083335,235.81483307291668,60.0,94.0
1212,235.40919602083335,235.8258624791667,64.0,107.0
1213,235.70331352083335,236.28297009375,52.0,84.0
1214,235.40919602083335,236.30012694791668,45.0,94.0
1215,235.99743102083335,236.36385240625,69.0,108.0
1216,235.99743102083335,236.367528875,60.0,108.0
1217,235.99743102083335,236.4778229375,64.0,119.0
1218,236.29154852083335,236.55257780208336,57.0,94.0
1219,236.58566602083334,236.94963642708336,69.0,96.0
1220,236.58566602083334,236.97537170833334,65.0,110.0
1221,236.58566602083334,236.98272464583334,62.0,102.0
1222,236.87978352083334,237.2523323541667,57.0,87.0
1223,236.58566602083334,237.28909704166668,50.0,98.0
1224,237.17390102083334,237.4778224375,69.0,110.0
1225,237.17390102083334,237.49375380208335,62.0,113.0
1226,237.46801852083334,237.54399887500003,48.0,100.0
1227,237.17390102083334,237.59914590625002,65.0,117.0
1228,237.76213602083334,238.14816523958336,62.0,89.0
1229,237.76213602083334,238.15796915625,65.0,100.0
1230,237.76213602083334,238.15796915625,70.0,90.0
1231,237.76213602083334,238.6163022604167,46.0,91.0
1232,238.05625352083334,238.62978264583336,53.0,82.0
1233,238.35037102083336,238.68125320833335,62.0,104.0
1234,238.35037102083336,238.68860614583335,70.0,95.0
1235,238.64448852083336,238.80625314583335,58.0,93.0
1236,238.35037102083336,238.84179234375003,65.0,113.0
1237,238.93860602083336,239.3111548541667,72.0,91.0
1238,238.93860602083336,239.32340975000002,64.0,91.0
1239,238.93860602083336,239.3258607291667,67.0,96.0
1240,239.23272352083336,239.65061546875,55.0,88.0
1241,238.93860602083336,239.68492917708335,48.0,91.0
1242,239.52684102083336,239.85772320833334,72.0,96.0
1243,239.52684102083336,239.87242908333334,64.0,96.0
1244,239.82095852083336,239.97291922916668,48.0,91.0
1245,239.52684102083336,240.06360545833334,67.0,94.0
1246,240.11507602083336,240.36385040625,62.0,89.0
1247,240.11507602083336,240.59791891666669,65.0,98.0
1248,240.11507602083336,240.61017381250002,69.0,88.0
1249,240.70331102083335,241.17512451041668,62.0,107.0
1250,240.99742852083335,241.55380079166667,65.0,107.0
1251,240.99742852083335,241.6089478229167,74.0,107.0
1252,240.99742852083335,241.6346831041667,69.0,116.0
1253,241.58566352083335,241.90183983333336,62.0,104.0
1254,241.87978102083335,242.26090828125,65.0,113.0
1255,241.87978102083335,242.28051611458335,74.0,107.0
1256,242.17389852083335,242.46556504166668,62.0,84.0
1257,240.40919352083336,242.49742777083335,57.0,80.0
1258,240.11507602083336,242.53541794791667,50.0,88.0
1259,242.46801602083335,242.86384915625,62.0,96.0
1260,242.46801602083335,242.86384915625,70.0,90.0
1261,242.46801602083335,242.8883589479167,65.0,107.0
1262,242.46801602083335,243.3454665625,46.0,87.0
1263,243.05625102083334,243.35772145833334,58.0,86.0
1264,243.05625102083334,243.39816261458336,62.0,93.0
1265,243.05625102083334,243.41531946875003,70.0,93.0
1266,243.05625102083334,243.54154489583334,65.0,100.0
1267,242.76213352083334,243.59546643750002,53.0,77.0
1268,243.64448602083334,244.05012307291668,72.0,89.0
1269,243.64448602083334,244.07218188541668,64.0,88.0
1270,243.64448602083334,244.07953482291668,67.0,91.0
1271,244.23272102083334,244.61384828125003,72.0,88.0
1272,244.23272102083334,244.6199757291667,64.0,88.0
1273,244.23272102083334,244.63835807291667,67.0,88.0
1274,244.82095602083336,246.74620015625,72.0,89.0
1275,244.82095602083336,246.75600407291668,64.0,89.0
1276,244.82095602083336,246.76335701041668,67.0,89.0
1277,244.52683852083334,246.81360208333336,60.0,84.0
1278,243.93860352083334,246.81972953125,55.0,82.0
1279,243.64448602083334,246.84301383333334,48.0,87.0
1280,247.17389602083335,247.46433705208335,62.0,91.0
1281,247.17389602083335,247.8736505729167,69.0,92.0
1282,247.17389602083335,247.91531721875,65.0,96.0
1283,247.76213102083335,248.12732691666668,62.0,88.0
1284,247.46801352083335,248.31850329166667,57.0,86.0
1285,248.05624852083335,248.71678740625,69.0,102.0
1286,248.05624852083335,248.78051286458336,65.0,107.0
1287,247.17389602083335,249.0758558541667,50.0,100.0
1288,248.64448352083335,249.09914015625003,57.0,86.0
1289,249.23271852083334,249.35159101041668,50.0,90.0
1290,248.93860102083335,249.3736498229167,69.0,98.0
1291,248.93860102083335,249.41654195833334,65.0,108.0
1292,250.11507102083334,250.34668855208335,62.0,102.0
1293,250.11507102083334,250.34791404166668,69.0,92.0
1294,249.82095352083334,250.57095314583336,57.0,86.0
1295,250.40918852083334,250.7817373541667,62.0,93.0
1296,250.40918852083334,250.9802666666667,69.0,88.0
1297,250.40918852083334,251.01580586458334,65.0,107.0
1298,250.99742352083337,251.36384490625002,57.0,87.0
1299,249.52683602083334,251.57708009375003,50.0,108.0
1300,251.29154102083336,251.71923688541668,62.0,113.0
1301,251.58565852083336,251.94717794791669,57.0,86.0
1302,251.29154102083336,251.97168773958336,69.0,110.0
1303,252.76090303125002,253.13222637500002,69.0,89.0
1304,252.46801102083336,253.18124595833336,62.0,83.0
1305,253.11506952083334,253.51335363541668,65.0,87.0
1306,253.47903992708336,253.55256930208336,62.0,77.0
1307,254.38590221875,255.0464411041667,81.0,38.0
1308,252.17389352083336,255.28296059375,57.0,88.0
1309,253.88590246875003,255.31604881250001,74.0,76.0
1310,254.75477458333336,255.32340175000002,77.0,73.0
1311,251.87977602083336,255.33443115625002,50.0,91.0
