,start,end,pitch,velocity
0,16.42879315833333,16.546848524999998,64.0,113.0
1,16.845459158333334,17.184000283333333,68.0,117.0
2,17.262125158333333,17.54337470833333,66.0,113.0
3,17.678791158333333,17.970457358333334,69.0,119.0
4,18.095457158333332,18.4166372,69.0,116.0
5,18.928789158333334,19.012122358333333,68.0,91.0
6,19.345455158333333,19.611079733333334,66.0,110.0
7,19.762121158333333,20.154481641666667,71.0,113.0
8,21.845451158333333,22.166631199999998,75.0,116.0
9,22.262117158333332,22.503436216666664,76.0,114.0
10,22.67878315833333,22.9791299,76.0,117.0
11,23.928781158333333,24.244752875,80.0,114.0
12,24.345447158333332,25.1666264,75.0,113.0
13,25.17877915833333,25.920097416666664,73.0,116.0
14,26.012111158333333,26.404471641666664,71.0,117.0
15,28.928773158333332,29.175300541666665,71.0,107.0
16,29.34543915833333,29.71870245,73.0,110.0
17,29.76210515833333,30.025993624999998,76.0,91.0
18,30.178771158333333,30.567659425,76.0,114.0
19,30.595437158333333,30.991269858333332,73.0,116.0
20,31.012103158333332,31.388838666666665,78.0,117.0
21,31.42876915833333,31.79335190833333,76.0,110.0
22,31.84543515833333,32.21522623333333,75.0,117.0
23,32.26210115833333,32.63189223333333,76.0,114.0
24,32.67876715833333,32.99126665833333,71.0,117.0
25,33.09543315833333,33.34022443333333,78.0,114.0
26,33.512099158333335,33.843695849999996,78.0,113.0
27,34.13709815833333,34.26383406666667,75.0,117.0
28,34.345431158333334,34.586750216666665,76.0,116.0
29,36.01209515833333,36.359316825,73.0,91.0
30,36.42876115833333,36.713482925,71.0,114.0
31,36.84542715833333,37.09195454166667,73.0,114.0
32,37.26209315833333,37.54507881666667,76.0,114.0
33,37.67875915833333,37.973897574999995,76.0,116.0
34,39.34542315833333,39.933963883333334,75.0,116.0
35,40.17875515833333,40.789865291666665,73.0,117.0
36,41.01208715833333,41.609308424999995,71.0,116.0
37,43.09541715833333,43.213472525,64.0,113.0
38,43.51208315833333,43.85062428333333,68.0,117.0
39,43.92874915833333,44.20999870833333,66.0,113.0
40,44.34541515833333,44.63708135833333,69.0,119.0
41,44.76208115833333,45.083261199999995,69.0,116.0
42,45.59541315833333,45.67874635833333,68.0,91.0
43,46.01207915833333,46.27770373333333,66.0,110.0
44,46.42874515833333,46.82110564166666,71.0,113.0
45,48.51207515833333,48.833255199999996,75.0,116.0
46,48.92874115833333,49.17006021666666,76.0,114.0
47,49.34540715833333,49.645753899999995,76.0,117.0
48,50.59540515833333,50.911376874999995,80.0,114.0
49,51.01207115833333,51.8332504,75.0,113.0
50,52.26206915833333,53.00338741666666,73.0,116.0
51,53.09540115833333,53.487761641666665,71.0,117.0
52,55.595397158333334,55.841924541666664,71.0,107.0
53,56.01206315833333,56.38532645,73.0,110.0
54,56.42872915833333,56.692617625,76.0,91.0
55,56.84539515833333,57.234283424999994,76.0,114.0
56,57.26206115833333,57.65789385833333,73.0,116.0
57,57.67872715833333,58.05546266666666,78.0,117.0
58,58.09539315833333,58.459975908333334,76.0,110.0
59,58.51205915833333,58.88185023333333,75.0,117.0
60,58.92872515833333,59.29851623333333,76.0,114.0
61,59.34539115833333,59.65789065833333,71.0,117.0
62,59.76205715833333,60.00684843333333,78.0,114.0
63,60.178723158333334,60.510319849999995,78.0,113.0
64,60.80372215833333,60.93045806666667,75.0,117.0
65,61.01205515833333,61.253374216666664,76.0,116.0
66,62.26205315833333,62.597122066666664,76.0,116.0
67,62.67871915833333,63.05198245,80.0,119.0
68,63.09538515833333,63.51205115833333,78.0,114.0
69,63.51205115833333,63.890522774999994,80.0,114.0
70,63.92871715833333,64.36448035,78.0,113.0
71,64.34538315833333,64.75684083333333,80.0,116.0
72,64.97038215833334,65.34711766666666,81.0,107.0
73,65.59538115833332,65.84711686666667,80.0,113.0
74,66.22038015833333,66.41829650833333,78.0,114.0
75,66.63704615833333,66.88530965,78.0,113.0
76,68.92870915833333,69.27245860833332,71.0,98.0
77,69.34537515833333,69.69780515,71.0,117.0
78,70.17870715833332,70.44954005833333,80.0,117.0
79,70.59537315833333,70.87141438333333,78.0,119.0
80,71.01203915833332,71.275927625,81.0,123.0
81,71.42870515833333,71.70648249166666,80.0,116.0
82,71.84537115833334,72.1457179,76.0,119.0
83,72.26203715833333,72.50162010833333,78.0,114.0
84,72.67870315833333,73.02939704166667,80.0,119.0
85,73.92870115833333,74.19779795,78.0,116.0
86,74.34536715833333,74.63529725,78.0,117.0
87,76.01203115833333,76.34536395833332,71.0,116.0
88,76.84536315833333,77.13008492499999,80.0,116.0
89,77.26202915833333,77.52418151666666,78.0,114.0
90,77.67869515833333,77.90786145833333,81.0,113.0
91,78.09536115833333,78.348832975,80.0,113.0
92,78.51202715833332,78.72036015833334,76.0,113.0
93,78.92869315833333,79.19778995,78.0,113.0
94,79.34535915833332,79.73077520833333,80.0,117.0
95,80.59535715833333,80.81931513333333,78.0,116.0
96,81.01202315833334,81.31931433333332,78.0,116.0
97,81.84535515833333,82.16306298333333,76.0,110.0
98,82.26202115833333,82.515492975,75.0,113.0
99,82.67868715833333,83.14222808333334,73.0,117.0
100,83.51201915833333,83.74812989166666,85.0,116.0
101,83.92868515833332,84.15264313333333,83.0,114.0
102,84.34535115833333,84.6248646,83.0,119.0
103,84.76201715833334,85.12833601666667,81.0,116.0
104,85.17868315833333,85.557154775,80.0,116.0
105,85.59534915833333,85.92694585,78.0,116.0
106,86.01201515833333,86.32104244166666,83.0,119.0
107,86.42868115833333,86.65958356666667,81.0,119.0
108,86.84534715833333,87.109235625,81.0,119.0
109,87.26201315833333,87.49291556666667,80.0,117.0
110,87.67867915833332,87.93562319166666,80.0,117.0
111,88.51201115833332,88.75853854166667,80.0,116.0
112,88.92867715833333,89.15437124166667,80.0,114.0
113,89.34534315833334,89.71166201666666,78.0,119.0
114,89.76200915833333,90.02242540833333,80.0,110.0
115,90.17867515833333,90.47728579166666,83.0,113.0
116,90.59534115833333,90.859229625,81.0,119.0
117,91.01200715833333,91.2915206,81.0,123.0
118,91.42867315833332,91.97728339166666,80.0,114.0
119,92.26200515833332,92.50853254166667,78.0,116.0
120,92.67867115833333,92.93040686666666,76.0,117.0
121,93.09533715833332,93.47207266666666,78.0,117.0
122,95.59533315833333,95.93908260833332,71.0,98.0
123,96.01199915833332,96.36442914999999,71.0,117.0
124,96.84533115833332,97.11616405833333,80.0,117.0
125,97.26199715833333,97.53803838333333,78.0,119.0
126,97.67866315833332,97.942551625,81.0,123.0
127,98.09532915833333,98.37310649166666,80.0,116.0
128,98.51199515833333,98.81234189999999,76.0,119.0
129,98.92866115833333,99.16824410833333,78.0,114.0
130,99.34532715833333,99.69602104166667,80.0,119.0
131,100.59532515833332,100.86442195,78.0,116.0
132,101.01199115833333,101.30192124999999,78.0,117.0
133,102.26198915833334,102.59532195833333,71.0,116.0
134,102.67865515833333,103.01198795833332,71.0,116.0
135,103.51198715833333,103.79670892499999,80.0,116.0
136,103.92865315833333,104.19080551666666,78.0,114.0
137,104.34531915833333,104.57448545833333,81.0,113.0
138,104.76198515833333,105.01545697499999,80.0,113.0
139,105.17865115833332,105.38698415833333,76.0,113.0
140,105.59531715833333,105.86441395,78.0,113.0
141,106.01198315833332,106.39739920833333,80.0,117.0
142,107.26198115833333,107.48593913333333,78.0,116.0
143,107.67864715833333,107.98593833333332,78.0,116.0
144,108.51197915833333,108.82968698333333,76.0,110.0
145,108.92864515833332,109.182116975,75.0,113.0
146,109.34531115833333,109.80885208333333,73.0,117.0
147,110.17864315833333,110.41475389166666,85.0,116.0
148,110.59530915833332,110.81926713333333,83.0,114.0
149,111.01197515833333,111.2914886,83.0,119.0
150,111.42864115833333,111.79496001666666,81.0,116.0
151,111.84530715833333,112.223778775,80.0,116.0
152,112.26197315833333,112.59356985,78.0,116.0
153,112.67863915833333,112.98766644166666,83.0,119.0
154,113.09530515833333,113.32620756666667,81.0,119.0
155,113.51197115833332,113.775859625,81.0,119.0
156,113.92863715833333,114.15953956666667,80.0,117.0
157,114.34530315833332,114.60224719166666,80.0,117.0
158,115.17863515833332,115.42516254166667,80.0,116.0
159,115.59530115833333,115.82099524166667,80.0,114.0
160,116.01196715833333,116.37828601666666,78.0,119.0
161,116.42863315833333,116.68904940833333,80.0,110.0
162,116.84529915833333,117.14390979166666,83.0,113.0
163,117.26196515833333,117.525853625,81.0,119.0
164,117.67863115833333,117.9581446,81.0,123.0
165,118.09529715833332,118.64390739166666,80.0,114.0
166,118.92862915833332,119.17515654166667,78.0,116.0
167,119.34529515833333,119.59703086666666,76.0,117.0
168,119.76196115833332,120.13869666666666,78.0,117.0
169,122.26195715833333,122.59008163333333,76.0,113.0
170,122.67862315833332,123.04146979999999,80.0,119.0
171,123.09528915833333,123.36612205833333,76.0,114.0
172,123.51195515833332,123.84181574166666,76.0,116.0
173,123.92862115833333,124.202926275,73.0,114.0
174,124.34528715833332,124.67514774166666,76.0,117.0
175,125.17861915833333,125.51542417499999,83.0,116.0
176,125.59528515833333,125.98764564166666,85.0,114.0
177,126.01195115833333,126.338339525,83.0,114.0
178,126.42861715833332,126.78278325833332,83.0,114.0
179,126.84528315833333,127.37132398333333,76.0,116.0
180,128.92861315833332,129.25326541666666,76.0,113.0
181,129.34527915833334,129.63868146666667,80.0,116.0
182,129.76194515833333,130.0414586,76.0,114.0
183,130.17861115833333,130.56923553333334,76.0,114.0
184,130.59527715833332,130.90604055,73.0,114.0
185,131.01194315833334,131.37826201666667,76.0,117.0
186,131.84527515833332,132.16471909166665,83.0,114.0
187,132.26194115833331,132.64909331666667,85.0,114.0
188,132.67860715833334,132.96853725,83.0,114.0
189,133.09527315833333,133.3747866,83.0,113.0
190,133.51193915833332,133.9997856,76.0,113.0
191,148.09524915833333,148.21330452499998,64.0,113.0
192,148.51191515833332,148.85045628333333,68.0,117.0
193,148.92858115833332,149.20983070833333,66.0,113.0
194,149.34524715833334,149.63691335833332,69.0,119.0
195,149.97024615833334,150.2914262,69.0,116.0
196,150.80357815833332,150.88691135833332,68.0,106.0
197,151.22024415833332,151.48586873333332,66.0,110.0
198,151.63691015833334,152.02927064166667,71.0,113.0
199,153.51190715833332,153.8330872,75.0,116.0
200,153.92857315833334,154.16989221666665,76.0,114.0
201,154.34523915833333,154.6455859,76.0,117.0
202,155.1785711583333,155.49454287499998,80.0,114.0
203,156.01190315833333,156.8330824,75.0,113.0
204,156.84523515833334,157.58655341666665,73.0,116.0
205,157.67856715833332,158.07092764166666,71.0,117.0
206,160.59522915833332,160.84175654166665,71.0,107.0
207,161.01189515833332,161.38515845,73.0,110.0
208,161.42856115833334,161.692449625,76.0,91.0
209,161.84522715833333,162.234115425,76.0,114.0
210,162.26189315833332,162.65772585833332,73.0,116.0
211,162.67855915833331,163.05529466666667,78.0,117.0
212,163.09522515833334,163.45980790833332,76.0,110.0
213,163.51189115833333,163.88168223333332,75.0,117.0
214,163.92855715833332,164.29834823333331,76.0,114.0
215,164.3452231583333,164.6577226583333,71.0,117.0
216,164.76188915833333,165.00668043333332,78.0,114.0
217,165.17855515833332,165.51015185,78.0,113.0
218,165.80355415833333,165.93029006666666,75.0,117.0
219,166.01188715833334,166.25320621666665,76.0,116.0
220,167.2618851583333,167.59695406666665,76.0,116.0
221,167.67855115833333,168.05181445,80.0,119.0
222,168.09521715833333,168.51188315833332,78.0,114.0
223,168.51188315833332,168.890354775,80.0,114.0
224,168.92854915833334,169.36431235,78.0,113.0
225,169.34521515833333,169.7566728333333,80.0,116.0
226,169.97021415833333,170.34694966666666,81.0,107.0
227,170.59521315833334,170.84694886666665,80.0,113.0
228,171.22021215833334,171.41812850833333,78.0,114.0
229,171.42854515833332,171.67680865,78.0,113.0
230,173.92854115833333,174.27229060833332,71.0,98.0
231,174.34520715833332,174.69763715,71.0,117.0
232,175.17853915833334,175.44937205833332,80.0,117.0
233,175.59520515833333,175.87124638333333,78.0,119.0
234,176.01187115833332,176.27575962499998,81.0,123.0
235,176.4285371583333,176.70631449166666,80.0,116.0
236,176.84520315833333,177.1455499,76.0,119.0
237,177.26186915833333,177.50145210833332,78.0,114.0
238,177.67853515833332,178.02922904166667,80.0,119.0
239,178.92853315833332,179.19762995,78.0,116.0
240,179.34519915833332,179.63512925,78.0,117.0
241,181.0118631583333,181.34519595833333,71.0,116.0
242,181.84519515833333,182.129916925,80.0,116.0
243,182.26186115833332,182.52401351666666,78.0,114.0
244,182.67852715833334,182.9076934583333,81.0,113.0
245,183.09519315833333,183.348664975,80.0,113.0
246,183.51185915833332,183.72019215833333,76.0,113.0
247,183.92852515833331,184.19762194999998,78.0,113.0
248,184.34519115833334,184.73060720833334,80.0,117.0
249,185.5951891583333,185.81914713333333,78.0,116.0
250,186.01185515833333,186.31914633333332,78.0,116.0
251,186.84518715833332,187.16289498333333,76.0,110.0
252,187.26185315833334,187.515324975,75.0,113.0
253,187.67851915833333,188.14206008333332,73.0,117.0
254,188.51185115833331,188.74796189166665,85.0,116.0
255,188.92851715833334,189.15247513333333,83.0,114.0
256,189.34518315833333,189.6246966,83.0,119.0
257,189.76184915833332,190.12816801666665,81.0,116.0
258,190.1785151583333,190.55698677499998,80.0,116.0
259,190.59518115833333,190.92677784999998,78.0,116.0
260,191.01184715833332,191.32087444166666,83.0,119.0
261,191.42851315833332,191.65941556666667,81.0,119.0
262,191.84517915833334,192.109067625,81.0,119.0
263,192.26184515833333,192.49274756666665,80.0,117.0
264,192.67851115833332,192.93545519166665,80.0,117.0
265,193.51184315833333,193.75837054166666,80.0,116.0
266,193.92850915833333,194.15420324166666,80.0,114.0
267,194.34517515833332,194.71149401666665,78.0,119.0
268,194.7618411583333,195.02225740833333,80.0,110.0
269,195.17850715833333,195.47711779166667,83.0,113.0
270,195.59517315833332,195.85906162499998,81.0,119.0
271,196.01183915833332,196.29135259999998,81.0,123.0
272,196.42850515833334,196.97711539166664,80.0,114.0
273,197.26183715833332,197.50836454166665,78.0,116.0
274,197.6785031583333,197.93023886666666,76.0,117.0
275,198.09516915833333,198.47190466666666,78.0,117.0
276,200.59516515833332,200.93891460833333,71.0,98.0
277,201.01183115833334,201.36426115,71.0,117.0
278,201.84516315833332,202.11599605833334,80.0,117.0
279,202.2618291583333,202.5378703833333,78.0,119.0
280,202.67849515833333,202.942383625,81.0,123.0
281,203.09516115833333,203.37293849166664,80.0,116.0
282,203.51182715833332,203.8121739,76.0,119.0
283,203.9284931583333,204.16807610833334,78.0,114.0
284,204.34515915833333,204.69585304166665,80.0,119.0
285,205.59515715833334,205.86425394999998,78.0,116.0
286,206.01182315833333,206.30175325,78.0,117.0
287,207.26182115833333,207.59515395833333,71.0,116.0
288,207.67848715833333,208.01181995833332,71.0,116.0
289,208.5118191583333,208.796540925,80.0,116.0
290,208.92848515833333,209.19063751666667,78.0,114.0
291,209.34515115833332,209.57431745833333,81.0,113.0
292,209.76181715833332,210.015288975,80.0,113.0
293,210.17848315833334,210.38681615833332,76.0,113.0
294,210.59514915833333,210.86424595,78.0,113.0
295,211.01181515833332,211.39723120833332,80.0,117.0
296,212.26181315833333,212.48577113333332,78.0,116.0
297,212.67847915833332,212.98577033333333,78.0,116.0
298,213.51181115833333,213.82951898333332,76.0,110.0
299,213.92847715833332,214.18194897499998,75.0,113.0
300,214.34514315833331,214.80868408333333,73.0,117.0
301,215.17847515833333,215.41458589166666,85.0,116.0
302,215.59514115833332,215.8190991333333,83.0,114.0
303,216.0118071583333,216.29132059999998,83.0,119.0
304,216.42847315833333,216.79479201666666,81.0,116.0
305,216.84513915833332,217.223610775,80.0,116.0
306,217.26180515833332,217.59340185,78.0,116.0
307,217.6784711583333,217.98749844166665,83.0,119.0
308,218.09513715833333,218.32603956666665,81.0,119.0
309,218.51180315833332,218.77569162499998,81.0,119.0
310,218.92846915833331,219.15937156666666,80.0,117.0
311,219.34513515833333,219.60207919166666,80.0,117.0
312,220.17846715833332,220.42499454166665,80.0,116.0
313,220.5951331583333,220.82082724166665,80.0,114.0
314,221.01179915833333,221.37811801666666,78.0,119.0
315,221.42846515833332,221.68888140833332,80.0,110.0
316,221.84513115833332,222.14374179166666,83.0,113.0
317,222.26179715833334,222.525685625,81.0,119.0
318,222.67846315833333,222.9579766,81.0,123.0
319,223.09512915833332,223.64373939166666,80.0,114.0
320,223.92846115833333,224.17498854166666,78.0,116.0
321,224.34512715833333,224.59686286666667,75.0,117.0
322,224.76179315833332,225.13852866666664,78.0,117.0
323,227.26178915833333,227.5899136333333,76.0,113.0
324,227.67845515833332,228.04130179999999,80.0,119.0
325,228.0951211583333,228.36595405833333,76.0,114.0
326,228.51178715833333,228.84164774166666,76.0,116.0
327,228.92845315833333,229.20275827499998,73.0,114.0
328,229.34511915833332,229.67497974166665,76.0,117.0
329,230.17845115833333,230.515256175,83.0,116.0
330,230.59511715833332,230.98747764166666,85.0,114.0
331,231.01178315833332,231.33817152499998,83.0,114.0
332,231.42844915833334,231.78261525833332,83.0,114.0
333,231.84511515833333,232.37115598333332,76.0,116.0
334,233.92844515833332,234.25309741666666,76.0,113.0
335,234.3451111583333,234.63851346666667,80.0,116.0
336,234.76177715833333,235.0412906,76.0,114.0
337,235.17844315833332,235.5690675333333,76.0,114.0
338,235.59510915833332,235.90587255,73.0,114.0
339,236.01177515833334,236.37809401666667,76.0,117.0
340,236.84510715833332,237.16455109166665,83.0,114.0
341,237.2617731583333,237.64892531666666,85.0,114.0
342,237.88677215833332,238.17670224999998,83.0,114.0
343,238.30343815833334,238.5829516,83.0,113.0
344,238.72010415833333,239.20795059999998,76.0,113.0
