,start,end,pitch,velocity
0,0.5954851583333333,1.078123275,59.0,85.0
1,1.0121511583333334,1.4687476499999998,66.0,116.0
2,1.4288171583333333,1.9236080333333332,59.0,83.0
3,1.8454831583333333,2.3194407333333333,68.0,117.0
4,0.17881915833333334,2.684023483333333,52.0,100.0
5,4.1371461583333335,4.611103733333334,60.0,87.0
6,4.553812158333333,4.984367025,66.0,108.0
7,4.970478158333333,5.539921691666667,60.0,86.0
8,5.387144158333333,6.225684483333333,68.0,116.0
9,3.7204801583333333,6.251726108333333,52.0,98.0
10,7.470474158333333,7.940959516666666,59.0,83.0
11,7.887140158333333,8.326375566666666,66.0,102.0
12,8.303806158333334,8.807277574999999,59.0,84.0
13,8.720472158333333,9.638873466666666,68.0,114.0
14,7.053808158333333,9.701373366666667,52.0,96.0
15,10.907968658333333,11.404495641666665,52.0,85.0
16,11.324634658333332,11.815953316666667,66.0,113.0
17,11.741300658333333,12.420119016666666,52.0,77.0
18,10.491302658333332,12.460049508333332,45.0,87.0
19,12.157966658333333,13.059006883333332,64.0,108.0
20,16.42879315833333,16.918375708333333,59.0,84.0
21,16.845459158333334,17.321152841666667,66.0,93.0
22,17.678791158333333,17.795110416666667,68.0,107.0
23,17.887124158333332,18.003443416666666,69.0,107.0
24,16.012127158333332,19.09545555833333,52.0,90.0
25,17.262125158333333,19.137122158333334,59.0,78.0
26,19.762121158333333,20.072884549999998,63.0,74.0
27,19.345455158333333,20.451356166666667,56.0,102.0
28,20.178787158333332,20.88191103333333,71.0,107.0
29,20.59545315833333,21.784687366666667,56.0,86.0
30,21.01211915833333,21.802048449999997,66.0,102.0
31,22.67878315833333,23.920100616666666,45.0,88.0
32,23.09544915833333,24.14232248333333,52.0,84.0
33,23.512115158333334,24.487808041666664,61.0,100.0
34,24.345447158333332,25.536417475,47.0,100.0
35,24.76211315833333,25.586764616666667,54.0,86.0
36,25.17877915833333,25.999958399999997,63.0,113.0
37,26.428777158333332,26.89752640833333,59.0,78.0
38,26.84544315833333,27.661414075,64.0,94.0
39,27.67877515833333,28.579815383333333,63.0,91.0
40,27.26210915833333,28.590232033333333,59.0,78.0
41,26.012111158333333,28.690926316666665,52.0,94.0
42,30.178771158333333,30.722173066666667,61.0,91.0
43,29.34543915833333,30.732589716666666,45.0,87.0
44,29.76210515833333,30.741270258333333,52.0,83.0
45,31.012103158333332,32.296823325,45.0,85.0
46,31.012103158333332,32.34196214166666,66.0,87.0
47,31.012103158333332,32.463489724999995,63.0,76.0
48,31.012103158333332,32.498211891666664,59.0,69.0
49,32.67876715833333,33.949598458333334,44.0,86.0
50,33.09543315833333,33.96522343333333,51.0,82.0
51,33.512099158333335,33.96695954166667,63.0,113.0
52,33.928765158333334,34.33675061666666,66.0,91.0
53,34.76209715833333,35.52945704166667,56.0,83.0
54,34.345431158333334,35.670081816666666,49.0,87.0
55,35.17876315833333,36.0832756,61.0,90.0
56,36.84542715833333,37.74646738333333,57.0,88.0
57,36.01209515833333,38.887090558333334,42.0,86.0
58,36.42876115833333,38.94785435,49.0,84.0
59,37.26209315833333,39.166604,54.0,78.0
60,37.67875915833333,39.319381533333335,61.0,88.0
61,40.59542115833333,41.432225375,63.0,86.0
62,40.17875515833333,41.52771133333333,59.0,78.0
63,41.42875315833333,41.914863491666665,61.0,86.0
64,39.76208915833333,42.06590491666667,54.0,78.0
65,39.34542315833333,42.18048806666666,47.0,88.0
66,41.84541915833333,42.61798736666667,59.0,91.0
67,43.09541715833333,43.58499970833333,59.0,84.0
68,43.51208315833333,43.987776841666665,66.0,93.0
69,42.678751158333334,45.76207955833333,52.0,90.0
70,43.92874915833333,45.80374615833333,59.0,78.0
71,46.42874515833333,46.73950855,63.0,74.0
72,46.01207915833333,47.11798016666666,56.0,102.0
73,46.845411158333334,47.54853503333333,71.0,107.0
74,47.262077158333334,48.451311366666665,56.0,86.0
75,47.67874315833333,48.46867245,66.0,102.0
76,49.34540715833333,50.586724616666665,45.0,88.0
77,49.76207315833333,50.80894648333333,52.0,84.0
78,50.17873915833333,51.15443204166667,61.0,100.0
79,51.01207115833333,52.203041475,47.0,100.0
80,51.428737158333334,52.25338861666666,54.0,86.0
81,51.84540315833333,52.666582399999996,63.0,113.0
82,53.09540115833333,53.56415040833333,59.0,78.0
83,53.51206715833333,54.328038074999995,64.0,94.0
84,54.34539915833333,55.24643938333333,63.0,91.0
85,53.92873315833333,55.25685603333333,59.0,78.0
86,52.67873515833333,55.35755031666666,52.0,94.0
87,56.84539515833333,57.38879706666666,61.0,91.0
88,56.01206315833333,57.399213716666665,45.0,87.0
89,56.42872915833333,57.40789425833333,52.0,83.0
90,57.67872715833333,58.963447325,45.0,85.0
91,57.67872715833333,59.00858614166666,66.0,87.0
92,57.67872715833333,59.130113724999994,63.0,76.0
93,57.67872715833333,59.16483589166666,59.0,69.0
94,59.34539115833333,60.61622245833333,44.0,86.0
95,59.76205715833333,60.63184743333333,51.0,82.0
96,60.178723158333334,60.63358354166667,63.0,113.0
97,60.59538915833333,61.00337461666666,66.0,91.0
98,61.42872115833333,62.196081041666666,56.0,83.0
99,61.01205515833333,62.336705816666665,49.0,87.0
100,61.84538715833333,62.7498996,61.0,90.0
101,63.51205115833333,64.41309138333332,57.0,88.0
102,62.67871915833333,65.55371455833333,42.0,86.0
103,63.09538515833333,65.61447835,49.0,84.0
104,63.92871715833333,65.83322799999999,54.0,78.0
105,64.34538315833333,65.98600553333333,61.0,88.0
106,67.26204515833334,68.098849375,63.0,86.0
107,66.84537915833333,68.19433533333333,59.0,78.0
108,68.09537715833333,68.58148749166666,61.0,86.0
109,66.42871315833332,68.73252891666667,54.0,78.0
110,66.01204715833333,68.84711206666667,47.0,88.0
111,68.51204315833333,69.28461136666667,59.0,91.0
112,69.76204115833333,70.34363745,59.0,87.0
113,70.17870715833332,71.015511375,71.0,107.0
114,70.59537315833333,71.2915526,59.0,85.0
115,71.01203915833332,71.88356554166667,68.0,100.0
116,71.42870515833333,72.28113435,59.0,75.0
117,71.84537115833334,72.31238429999999,64.0,98.0
118,69.34537515833333,72.338425925,52.0,100.0
119,72.26203715833333,72.67523094166667,68.0,86.0
120,72.26203715833333,72.70300867499999,42.0,102.0
121,73.09536915833333,74.40786705833332,59.0,81.0
122,73.92870115833333,74.67349163333333,56.0,76.0
123,73.51203515833333,75.30543506666666,68.0,100.0
124,74.34536715833333,75.36272664166667,63.0,89.0
125,72.67870315833333,75.65786505833333,44.0,94.0
126,75.17869915833333,76.01897559166666,56.0,85.0
127,75.59536515833334,76.11272544166667,59.0,88.0
128,76.84536315833333,77.34536235833333,61.0,91.0
129,77.26202915833333,77.72730619166666,64.0,89.0
130,76.42869715833334,78.067583425,56.0,86.0
131,78.09536115833333,78.67001301666666,56.0,88.0
132,76.01203115833333,78.84709606666667,49.0,92.0
133,77.67869515833333,78.88355434166667,68.0,107.0
134,78.92869315833333,79.286331475,64.0,89.0
135,78.51202715833332,79.30369255833332,61.0,86.0
136,79.76202515833333,80.26028825,62.0,86.0
137,80.17869115833334,80.62660710833333,66.0,91.0
138,79.34535915833332,80.85230119166667,50.0,116.0
139,80.59535715833333,81.02938424166666,69.0,103.0
140,81.42868915833333,81.8123691,59.0,94.0
141,81.01202315833334,82.30195164999999,52.0,113.0
142,81.84535515833333,82.32278495,68.0,110.0
143,82.26202115833333,82.76896479166666,64.0,102.0
144,83.51201915833333,84.00854614166666,57.0,90.0
145,82.67868715833333,84.01201835833334,45.0,103.0
146,83.09535315833332,84.35055948333333,52.0,81.0
147,83.92868515833332,84.452989875,61.0,102.0
148,84.34535115833333,85.62486299999999,47.0,93.0
149,84.76201715833334,85.630071325,54.0,83.0
150,85.17868315833333,85.67694625,59.0,98.0
151,85.59534915833333,87.12833281666666,63.0,96.0
152,86.01201515833333,87.28111034999999,44.0,100.0
153,86.42868115833333,87.32277694999999,51.0,84.0
154,87.26201315833333,87.35229079166666,63.0,89.0
155,86.84534715833333,87.65437364166667,56.0,87.0
156,87.26201315833333,87.97728979166666,68.0,98.0
157,88.09534515833333,88.92520494166666,56.0,84.0
158,88.51201115833332,88.99291316666667,64.0,114.0
159,87.67867915833332,89.015482575,49.0,90.0
160,88.92867715833333,89.37312089166666,63.0,93.0
161,88.09534515833333,89.39221808333333,61.0,85.0
162,89.34534315833334,90.536313475,42.0,108.0
163,89.76200915833333,90.5831884,49.0,87.0
164,90.17867515833333,90.88006292499999,57.0,109.0
165,90.59534115833333,91.02242380833333,44.0,87.0
166,91.42867315833332,92.32276895,57.0,90.0
167,91.01200715833333,92.41304658333333,45.0,119.0
168,92.26200515833332,92.67519894166666,64.0,87.0
169,91.84533915833333,92.67693505,61.0,98.0
170,93.92866915833334,94.65262633333333,59.0,82.0
171,92.67867115833333,95.61269424166666,47.0,104.0
172,95.17866715833333,95.63179143333333,59.0,89.0
173,93.09533715833332,95.6456803,54.0,85.0
174,95.59533315833333,95.97901309999999,61.0,90.0
175,96.42866515833333,97.03109475,59.0,86.0
176,96.84533115833332,97.609218825,71.0,110.0
177,97.26199715833333,97.93387108333333,59.0,83.0
178,97.67866315833332,98.1665096,68.0,91.0
179,96.84533115833332,98.20123176666667,64.0,102.0
180,98.09532915833333,98.89741120833332,59.0,86.0
181,96.01199915833332,98.94255002499999,52.0,100.0
182,98.51199515833333,98.98942495,68.0,110.0
183,98.92866115833333,99.22727179166667,64.0,89.0
184,99.34532715833333,99.95122896666666,68.0,93.0
185,99.34532715833333,100.63699175833332,60.0,93.0
186,99.34532715833333,100.96685234166667,56.0,86.0
187,100.59532515833332,101.07449105833332,68.0,42.0
188,100.17865915833333,101.29844903333333,63.0,87.0
189,101.42865715833332,102.32101684166666,60.0,81.0
190,101.84532315833333,102.41997501666667,68.0,100.0
191,101.01199115833333,102.66476629166667,56.0,84.0
192,102.26198915833334,102.93559919166667,63.0,85.0
193,103.09532115833333,103.55365375833333,61.0,87.0
194,103.51198715833333,104.32969418333333,64.0,108.0
195,103.92865315833333,105.42691465,56.0,78.0
196,102.67865515833333,105.48767844166666,49.0,92.0
197,104.34531915833333,105.60226159166666,68.0,104.0
198,105.17865115833332,105.98246931666667,61.0,87.0
199,105.59531715833333,106.01719148333333,64.0,88.0
200,107.26198115833333,107.57621676666666,63.0,94.0
201,106.84531515833334,107.83142469166665,59.0,86.0
202,107.67864715833333,108.44427093333333,66.0,116.0
203,108.09531315833333,108.66822890833333,59.0,82.0
204,106.01198315833332,108.755034325,47.0,87.0
205,108.51197915833333,108.97204786666666,63.0,113.0
206,108.92864515833332,109.34704726666666,64.0,108.0
207,109.34531115833333,110.619614675,61.0,107.0
208,109.34531115833333,110.66301738333333,45.0,84.0
209,110.17864315833333,110.69600344166666,57.0,86.0
210,109.76197715833332,110.74461447499999,52.0,81.0
211,110.59530915833332,110.84357265,69.0,88.0
212,111.01197515833333,111.35746071666667,66.0,93.0
213,111.01197515833333,111.6248214,59.0,88.0
214,111.42864115833333,112.09357064999999,54.0,72.0
215,111.84530715833333,112.29148699999999,59.0,108.0
216,111.84530715833333,112.30537586666667,66.0,107.0
217,112.26197315833333,112.63870866666666,61.0,85.0
218,111.01197515833333,112.65433364166667,47.0,88.0
219,112.67863915833333,113.17863835833333,59.0,91.0
220,112.67863915833333,113.20988830833333,66.0,92.0
221,112.67863915833333,113.92516494166667,44.0,87.0
222,113.09530515833333,113.96509543333333,51.0,69.0
223,113.51197115833332,113.99808149166667,59.0,102.0
224,113.51197115833332,114.27933104166667,66.0,104.0
225,113.92863715833333,114.33141429166666,56.0,84.0
226,114.34530315833332,114.73592753333332,68.0,88.0
227,114.34530315833332,114.75676083333333,61.0,87.0
228,114.34530315833332,114.78106634999999,64.0,93.0
229,114.34530315833332,115.33488490833332,49.0,87.0
230,114.76196915833333,115.348773775,56.0,77.0
231,115.17863515833332,115.57967618333333,68.0,104.0
232,115.17863515833332,115.90953676666666,61.0,102.0
233,115.59530115833333,116.06578651666666,49.0,87.0
234,116.01196715833333,116.44078591666666,66.0,92.0
235,116.01196715833333,116.61266064166666,57.0,100.0
236,116.42863315833333,117.15953476666667,49.0,72.0
237,116.01196715833333,117.18731249999999,42.0,85.0
238,116.84529915833333,117.28974289166666,66.0,98.0
239,116.84529915833333,117.32272895,57.0,106.0
240,117.26196515833333,117.70467278333332,44.0,92.0
241,117.67863115833333,118.31404680833333,64.0,102.0
242,117.67863115833333,118.40779665833333,61.0,107.0
243,118.51196315833333,119.16473989166666,64.0,98.0
244,118.51196315833333,119.28626747499999,61.0,100.0
245,117.67863115833333,119.35223959166666,45.0,100.0
246,119.34529515833333,120.02237740833333,66.0,92.0
247,119.34529515833333,120.03453016666666,59.0,87.0
248,119.34529515833333,120.04841903333333,63.0,93.0
249,120.17862715833333,120.65779305833333,59.0,88.0
250,120.17862715833333,120.72550128333333,66.0,88.0
251,120.17862715833333,120.92515374166666,63.0,88.0
252,120.59529315833333,122.31056819166666,54.0,81.0
253,119.34529515833333,122.3123043,47.0,87.0
254,121.01195915833333,122.45987350833333,61.0,88.0
255,122.67862315833332,123.25153890833333,68.0,88.0
256,122.67862315833332,123.28278885833333,59.0,84.0
257,123.51195515833332,124.036259875,68.0,91.0
258,123.51195515833332,124.166468,59.0,89.0
259,124.34528715833332,124.94598064166667,64.0,88.0
260,124.34528715833332,124.95639729166666,61.0,90.0
261,124.34528715833332,125.63521564999999,57.0,86.0
262,125.17861915833333,125.77931264166666,64.0,102.0
263,122.67862315833332,125.83139589166666,52.0,87.0
264,125.17861915833333,125.89215968333333,61.0,104.0
265,126.01195115833333,126.47549208333332,68.0,81.0
266,126.01195115833333,126.5622975,59.0,77.0
267,126.01195115833333,126.609172425,64.0,82.0
268,126.84528315833333,127.35222679166667,68.0,74.0
269,126.84528315833333,127.39215728333333,59.0,73.0
270,126.84528315833333,127.49805989166666,64.0,73.0
271,127.67861515833333,128.38347514166665,59.0,71.0
272,127.67861515833333,128.3956279,68.0,70.0
273,127.67861515833333,128.44771115,64.0,67.0
274,128.51194715833333,128.96680754166667,59.0,73.0
275,128.51194715833333,129.03798798333332,68.0,75.0
276,126.01195115833333,129.1456267,52.0,82.0
277,128.51194715833333,129.150835025,64.0,74.0
278,129.34527915833334,129.83138949166667,59.0,81.0
279,129.34527915833334,129.85395889999998,68.0,81.0
280,129.34527915833334,129.90951436666666,64.0,81.0
281,130.17861115833333,130.55534666666665,59.0,80.0
282,130.17861115833333,130.58659661666667,68.0,85.0
283,129.34527915833334,130.70117976666666,52.0,84.0
284,130.17861115833333,130.92687385,64.0,82.0
285,131.01194315833334,131.60569220833332,61.0,86.0
286,131.01194315833334,131.65256713333332,69.0,86.0
287,131.01194315833334,131.65603935,64.0,88.0
288,131.84527515833332,132.32270495,61.0,83.0
289,131.84527515833332,132.32444105833332,69.0,85.0
290,131.01194315833334,132.43555199166667,52.0,84.0
291,131.84527515833332,132.5622879,64.0,84.0
292,132.67860715833334,133.19943965833332,68.0,80.0
293,132.67860715833334,133.24284236666665,59.0,75.0
294,132.67860715833334,133.37825881666666,64.0,78.0
295,133.51193915833332,134.00325781666666,68.0,77.0
296,133.51193915833332,134.046660525,59.0,72.0
297,133.51193915833332,134.129993725,64.0,38.0
298,134.34527115833333,134.98936734999998,59.0,76.0
299,134.34527115833333,135.01193675833332,68.0,83.0
300,134.34527115833333,135.03277005833334,64.0,79.0
301,135.17860315833332,135.4997832,59.0,76.0
302,132.67860715833334,135.6039497,52.0,80.0
303,135.17860315833332,135.61610245833333,64.0,76.0
304,135.17860315833332,135.67339403333332,68.0,79.0
305,136.42860115833332,136.89908651666667,60.0,85.0
306,136.84526715833331,137.47721059166665,69.0,123.0
307,136.01193515833333,138.96158321666667,52.0,107.0
308,137.26193315833333,139.01366646666665,60.0,84.0
309,137.67859915833333,139.182068975,64.0,107.0
310,139.76192915833332,140.275817225,59.0,87.0
311,140.17859515833334,140.6872749,68.0,119.0
312,141.01192715833332,141.56053739166666,63.0,98.0
313,140.59526115833333,141.64213448333334,59.0,86.0
314,139.34526315833332,141.723731575,52.0,90.0
315,143.51192315833333,144.31400520833333,68.0,114.0
316,143.09525715833334,145.86434995,61.0,87.0
317,142.67859115833332,145.890391575,57.0,116.0
318,144.34525515833332,145.89386379166666,66.0,110.0
319,148.09524915833333,148.58483170833333,59.0,84.0
320,148.51191515833332,148.98760884166666,66.0,93.0
321,147.67858315833334,150.76191155833334,52.0,90.0
322,148.92858115833332,150.80357815833332,59.0,78.0
323,151.42857715833333,151.73934054999998,63.0,74.0
324,151.01191115833333,152.11781216666665,56.0,102.0
325,152.26190915833334,153.45114336666666,56.0,86.0
326,152.67857515833333,153.46850444999998,66.0,102.0
327,154.34523915833333,155.58655661666666,45.0,88.0
328,154.76190515833332,155.80877848333333,52.0,84.0
329,155.1785711583333,156.15426404166666,61.0,100.0
330,156.01190315833333,157.202873475,47.0,100.0
331,156.42856915833332,157.25322061666665,54.0,86.0
332,156.84523515833334,157.66641439999998,63.0,113.0
333,158.09523315833331,158.56398240833332,59.0,78.0
334,158.51189915833334,159.327870075,64.0,94.0
335,159.34523115833332,160.24627138333332,63.0,91.0
336,158.92856515833333,160.25668803333332,59.0,78.0
337,157.67856715833332,160.35738231666667,52.0,94.0
338,161.84522715833333,162.38862906666665,61.0,91.0
339,161.01189515833332,162.39904571666665,45.0,87.0
340,161.42856115833334,162.40772625833333,52.0,83.0
341,162.67855915833331,163.963279325,45.0,85.0
342,162.67855915833331,164.00841814166665,66.0,87.0
343,162.67855915833331,164.129945725,63.0,76.0
344,162.67855915833331,164.16466789166665,59.0,69.0
345,164.3452231583333,165.61605445833334,44.0,86.0
346,164.76188915833333,165.63167943333332,51.0,82.0
347,165.17855515833332,165.63341554166666,63.0,113.0
348,165.59522115833332,166.00320661666666,66.0,91.0
349,166.42855315833333,167.19591304166667,56.0,83.0
350,166.01188715833334,167.33653781666666,49.0,87.0
351,166.84521915833332,167.7497316,61.0,90.0
352,168.51188315833332,169.41292338333332,57.0,88.0
353,167.67855115833333,170.55354655833332,42.0,86.0
354,168.09521715833333,170.61431034999998,49.0,84.0
355,168.92854915833334,170.83306,54.0,78.0
356,169.34521515833333,170.98583753333332,61.0,88.0
357,172.26187715833333,173.09868137499998,63.0,86.0
358,171.8452111583333,173.19416733333333,59.0,78.0
359,173.09520915833332,173.58131949166665,61.0,86.0
360,171.42854515833332,173.73236091666666,54.0,78.0
361,171.01187915833333,173.84694406666665,47.0,88.0
362,173.51187515833334,174.28444336666666,59.0,91.0
363,174.76187315833332,175.34346945,59.0,87.0
364,175.17853915833334,176.015343375,71.0,107.0
365,175.59520515833333,176.2913846,59.0,85.0
366,176.01187115833332,176.88339754166665,68.0,100.0
367,176.4285371583333,177.28096635,59.0,75.0
368,176.84520315833333,177.3122163,64.0,98.0
369,174.34520715833332,177.338257925,52.0,100.0
370,177.26186915833333,177.67506294166665,68.0,86.0
371,177.26186915833333,177.702840675,42.0,102.0
372,178.09520115833334,179.40769905833332,59.0,81.0
373,178.92853315833332,179.67332363333333,56.0,76.0
374,178.51186715833333,180.30526706666666,68.0,100.0
375,179.34519915833332,180.36255864166665,63.0,89.0
376,177.67853515833332,180.65769705833333,44.0,94.0
377,180.17853115833333,181.01880759166667,56.0,85.0
378,180.59519715833332,181.11255744166667,59.0,88.0
379,181.84519515833333,182.34519435833332,61.0,91.0
380,182.26186115833332,182.72713819166665,64.0,89.0
381,181.42852915833333,183.06741542499998,56.0,86.0
382,183.09519315833333,183.66984501666667,56.0,88.0
383,181.0118631583333,183.84692806666666,49.0,92.0
384,182.67852715833334,183.88338634166666,68.0,107.0
385,183.92852515833331,184.286163475,64.0,89.0
386,183.51185915833332,184.30352455833332,61.0,86.0
387,184.76185715833333,185.26012025,62.0,86.0
388,185.17852315833332,185.62643910833333,66.0,91.0
389,184.34519115833334,185.85213319166667,50.0,116.0
390,185.5951891583333,186.02921624166666,69.0,103.0
391,186.42852115833333,186.81220109999998,59.0,94.0
392,186.01185515833333,187.30178365,52.0,113.0
393,186.84518715833332,187.32261695,68.0,110.0
394,187.26185315833334,187.76879679166666,64.0,102.0
395,188.51185115833331,189.00837814166667,57.0,90.0
396,187.67851915833333,189.01185035833333,45.0,103.0
397,188.09518515833332,189.3503914833333,52.0,81.0
398,188.92851715833334,189.45282187499998,61.0,102.0
399,189.34518315833333,190.624695,47.0,93.0
400,189.76184915833332,190.629903325,54.0,83.0
401,190.1785151583333,190.67677824999998,59.0,98.0
402,190.59518115833333,192.12816481666667,63.0,96.0
403,191.01184715833332,192.28094235,44.0,100.0
404,191.42851315833332,192.32260895,51.0,84.0
405,192.26184515833333,192.35212279166666,63.0,89.0
406,191.84517915833334,192.65420564166666,56.0,87.0
407,192.26184515833333,192.97712179166666,68.0,98.0
408,193.0951771583333,193.92503694166666,56.0,84.0
409,193.51184315833333,193.99274516666665,64.0,114.0
410,192.67851115833332,194.015314575,49.0,90.0
411,193.92850915833333,194.37295289166667,63.0,93.0
412,193.0951771583333,194.39205008333332,61.0,85.0
413,194.34517515833332,195.53614547499998,42.0,108.0
414,194.7618411583333,195.58302039999998,49.0,87.0
415,195.17850715833333,195.879894925,57.0,109.0
416,195.59517315833332,196.0222558083333,44.0,87.0
417,196.42850515833334,197.32260094999998,57.0,90.0
418,196.01183915833332,197.41287858333334,45.0,119.0
419,197.26183715833332,197.67503094166665,64.0,87.0
420,196.84517115833333,197.67676705,61.0,98.0
421,198.51183515833333,199.36600045833333,64.0,110.0
422,198.92850115833332,199.65245833333333,59.0,82.0
423,199.3451671583333,200.56217909999998,63.0,102.0
424,197.6785031583333,200.61252624166667,47.0,104.0
425,200.17849915833332,200.63162343333332,59.0,89.0
426,198.09516915833333,200.64551229999998,54.0,85.0
427,200.59516515833332,200.9788451,61.0,90.0
428,201.42849715833333,202.03092675,59.0,86.0
429,201.84516315833332,202.609050825,71.0,110.0
430,202.2618291583333,202.9337030833333,59.0,83.0
431,202.67849515833333,203.16634159999998,68.0,91.0
432,201.84516315833332,203.20106376666666,64.0,102.0
433,203.09516115833333,203.89724320833332,59.0,86.0
434,201.01183115833334,203.942382025,52.0,100.0
435,203.51182715833332,203.98925695,68.0,110.0
436,203.9284931583333,204.22710379166665,64.0,89.0
437,204.34515915833333,204.95106096666666,68.0,93.0
438,204.34515915833333,205.63682375833332,60.0,93.0
439,204.34515915833333,205.96668434166665,56.0,86.0
440,205.59515715833334,206.07432305833333,68.0,42.0
441,205.17849115833332,206.29828103333332,63.0,87.0
442,206.42848915833332,207.32084884166665,60.0,81.0
443,206.8451551583333,207.41980701666665,68.0,100.0
444,206.01182315833333,207.66459829166666,56.0,84.0
445,207.26182115833333,207.93543119166665,63.0,85.0
446,208.09515315833332,208.55348575833332,61.0,87.0
447,208.5118191583333,209.32952618333331,64.0,108.0
448,208.92848515833333,210.42674664999998,56.0,78.0
449,207.67848715833333,210.48751044166664,49.0,92.0
450,209.34515115833332,210.60209359166666,68.0,104.0
451,210.17848315833334,210.98230131666665,61.0,87.0
452,210.59514915833333,211.01702348333333,64.0,88.0
453,212.26181315833333,212.57604876666664,63.0,94.0
454,211.84514715833333,212.83125669166665,59.0,86.0
455,212.67847915833332,213.4441029333333,66.0,116.0
456,213.0951451583333,213.66806090833333,59.0,82.0
457,211.01181515833332,213.754866325,47.0,87.0
458,213.51181115833333,213.97187986666665,63.0,113.0
459,213.92847715833332,214.34687926666666,64.0,108.0
460,214.34514315833331,215.61944667499998,61.0,107.0
461,214.34514315833331,215.6628493833333,45.0,84.0
462,215.17847515833333,215.69583544166665,57.0,86.0
463,214.76180915833334,215.744446475,52.0,81.0
464,215.59514115833332,215.84340465,69.0,88.0
465,216.0118071583333,216.35729271666665,66.0,93.0
466,216.0118071583333,216.6246534,59.0,88.0
467,216.42847315833333,217.09340265,54.0,72.0
468,216.84513915833332,217.291319,59.0,108.0
469,216.84513915833332,217.30520786666665,66.0,107.0
470,217.26180515833332,217.63854066666664,61.0,85.0
471,216.0118071583333,217.65416564166665,47.0,88.0
472,217.6784711583333,218.17847035833333,59.0,91.0
473,217.6784711583333,218.20972030833332,66.0,92.0
474,217.6784711583333,218.92499694166665,44.0,87.0
475,218.09513715833333,218.96492743333332,51.0,69.0
476,218.51180315833332,218.99791349166665,59.0,102.0
477,218.51180315833332,219.27916304166666,66.0,104.0
478,218.92846915833331,219.33124629166664,56.0,84.0
479,219.34513515833333,219.73575953333332,68.0,88.0
480,219.34513515833333,219.75659283333331,61.0,87.0
481,219.34513515833333,219.78089835,64.0,93.0
482,219.34513515833333,220.33471690833332,49.0,87.0
483,219.76180115833333,220.34860577499998,56.0,77.0
484,220.17846715833332,220.57950818333333,68.0,104.0
485,220.17846715833332,220.90936876666666,61.0,102.0
486,220.5951331583333,221.06561851666666,49.0,87.0
487,221.01179915833333,221.44061791666667,66.0,92.0
488,221.01179915833333,221.61249264166665,57.0,100.0
489,221.42846515833332,222.15936676666666,49.0,72.0
490,221.01179915833333,222.1871445,42.0,85.0
491,221.84513115833332,222.28957489166666,66.0,98.0
492,221.84513115833332,222.32256095,57.0,106.0
493,222.26179715833334,222.70450478333333,44.0,92.0
494,222.67846315833333,223.31387880833333,64.0,102.0
495,222.67846315833333,223.40762865833332,61.0,107.0
496,223.5117951583333,224.16457189166667,64.0,98.0
497,223.5117951583333,224.286099475,61.0,100.0
498,222.67846315833333,224.35207159166666,45.0,100.0
499,224.34512715833333,225.0222094083333,66.0,92.0
500,224.34512715833333,225.03436216666665,59.0,87.0
501,224.34512715833333,225.04825103333332,63.0,93.0
502,225.1784591583333,225.6576250583333,59.0,88.0
503,225.1784591583333,225.72533328333333,66.0,88.0
504,225.1784591583333,225.92498574166666,63.0,88.0
505,225.59512515833333,227.31040019166664,54.0,81.0
506,224.34512715833333,227.3121363,47.0,87.0
507,226.01179115833332,227.45970550833331,61.0,88.0
508,227.67845515833332,228.2513709083333,68.0,88.0
509,227.67845515833332,228.28262085833333,59.0,84.0
510,228.51178715833333,229.03609187499998,68.0,91.0
511,228.51178715833333,229.16629999999998,59.0,89.0
512,229.34511915833332,229.94581264166666,64.0,88.0
513,229.34511915833332,229.95622929166666,61.0,90.0
514,229.34511915833332,230.63504765,57.0,86.0
515,230.17845115833333,230.77914464166665,64.0,102.0
516,227.67845515833332,230.83122789166666,52.0,87.0
517,230.17845115833333,230.89199168333332,61.0,104.0
518,231.01178315833332,231.47532408333333,68.0,81.0
519,231.01178315833332,231.5621295,59.0,77.0
520,231.01178315833332,231.609004425,64.0,82.0
521,231.84511515833333,232.35205879166665,68.0,74.0
522,231.84511515833333,232.39198928333332,59.0,73.0
523,231.84511515833333,232.49789189166665,64.0,73.0
524,232.6784471583333,233.38330714166665,59.0,71.0
525,232.6784471583333,233.3954599,68.0,70.0
526,232.6784471583333,233.44754315,64.0,67.0
527,233.51177915833333,233.96663954166667,59.0,73.0
528,233.51177915833333,234.03781998333332,68.0,75.0
529,231.01178315833332,234.14545869999998,52.0,82.0
530,233.51177915833333,234.150667025,64.0,74.0
531,234.3451111583333,234.83122149166667,59.0,81.0
532,234.3451111583333,234.85379089999998,68.0,81.0
533,234.3451111583333,234.90934636666665,64.0,81.0
534,235.17844315833332,235.55517866666665,59.0,80.0
535,235.17844315833332,235.58642861666667,68.0,85.0
536,234.3451111583333,235.70101176666665,52.0,84.0
537,235.17844315833332,235.92670585,64.0,82.0
538,236.01177515833334,236.60552420833332,61.0,86.0
539,236.01177515833334,236.65239913333332,69.0,86.0
540,236.01177515833334,236.65587134999998,64.0,88.0
541,236.84510715833332,237.32253695,61.0,83.0
542,236.84510715833332,237.32427305833332,69.0,85.0
543,236.01177515833334,237.43538399166667,52.0,84.0
544,236.84510715833332,237.5621199,64.0,84.0
545,237.67843915833333,238.19927165833332,68.0,80.0
546,237.67843915833333,238.24267436666665,59.0,75.0
547,237.67843915833333,238.37809081666666,64.0,78.0
548,238.51177115833332,239.00308981666666,68.0,77.0
549,238.51177115833332,239.046492525,59.0,72.0
550,238.51177115833332,239.129825725,64.0,38.0
551,237.67843915833333,239.30170045,52.0,80.0
552,239.34510315833333,239.98919934999998,59.0,76.0
553,239.34510315833333,240.01176875833332,68.0,83.0
554,239.34510315833333,240.0326020583333,64.0,79.0
555,241.42843315833332,241.95100176666665,60.0,84.0
556,241.8450991583333,242.52218140833332,69.0,116.0
557,242.26176515833333,243.931901375,60.0,83.0
558,241.01176715833333,244.04474841666666,52.0,98.0
559,242.67843115833332,244.12113718333333,64.0,98.0
560,244.76176115833331,245.27217700833333,59.0,88.0
561,245.17842715833334,245.69752355,68.0,110.0
562,245.59509315833333,246.74786909166664,59.0,82.0
563,246.01175915833332,246.76696628333332,63.0,110.0
564,244.34509515833332,246.85029948333332,52.0,90.0
565,248.7200881583333,249.161059675,61.0,92.0
566,249.13675415833333,249.41279538333333,66.0,88.0
567,249.55342015833332,250.30168285,68.0,88.0
568,248.0950891583333,251.03779278333332,52.0,84.0
569,247.67842315833332,251.10550100833333,45.0,85.0
570,251.42841715833333,255.10896682499998,69.0,103.0
571,254.9700781583333,255.80341015833332,68.0,88.0
572,255.80341015833332,256.4284091583333,66.0,82.0
573,256.4284091583333,257.098546975,68.0,84.0
574,255.38674415833333,257.5863934166667,59.0,76.0
575,254.9700781583333,257.6037545,52.0,89.0
576,257.52736573333334,258.5273641333333,64.0,73.0
577,257.629796125,258.5620863,68.0,83.0
578,257.713129325,258.5950723583333,71.0,84.0
