,start,end,pitch,velocity
0,32.209248375,32.653046081250004,70.0,81.0
1,32.674363875000004,32.854596131250005,77.0,76.0
2,32.906921625,33.04451829375,77.0,78.0
3,33.139479375,33.5697112125,77.0,80.0
4,33.604594875000004,34.019322862500005,73.0,78.0
5,34.069710375,34.544515781250006,75.0,79.0
6,34.534825875,34.76932160625,73.0,74.0
7,34.767383625,35.038701,72.0,72.0
8,34.999941375000006,35.76931993125,70.0,78.0
9,35.930172375000005,36.3061407375,68.0,76.0
10,36.395287875,36.848775487500006,65.0,83.0
11,36.860403375000004,37.122030843750004,68.0,75.0
12,37.092961125,37.7402468625,72.0,81.0
13,37.790634375,39.43598045625,70.0,76.0
14,39.651096375,40.122025818750004,70.0,79.0
15,40.116211875000005,40.46311051875001,77.0,82.0
16,40.581327375,41.0038072875,77.0,77.0
17,41.046442875000004,41.5076824125,73.0,77.0
18,41.51155837500001,42.032875331250004,75.0,81.0
19,41.976673875,42.226673456250005,73.0,72.0
20,42.209231625,42.466983131250004,72.0,70.0
21,42.441789375000006,43.1898501375,70.0,76.0
22,43.372020375000005,44.205352312500004,75.0,85.0
23,44.302251375000004,44.68403368125001,80.0,79.0
24,44.767366875,45.1743429375,82.0,79.0
25,45.232482375000004,45.71503970625,80.0,77.0
26,45.69759787500001,46.517363943750006,77.0,77.0
27,46.627828875000006,46.89139432500001,77.0,85.0
28,46.860386625000004,47.1123241875,80.0,81.0
29,47.092944375,47.2247271,82.0,76.0
30,47.32550212500001,47.45147090625,82.0,77.0
31,47.558059875000005,47.695656543750005,82.0,77.0
32,47.790617625,47.91271044375,82.0,76.0
33,48.023175375,48.64526735625,82.0,77.0
34,48.720848625,48.98247609375,80.0,76.0
35,48.95340637500001,49.43208774375,82.0,78.0
36,49.418521875,50.061931650000005,85.0,77.0
37,50.813868375000006,52.18402111875,80.0,78.0
38,52.20921487500001,52.447586568750005,82.0,78.0
39,52.441772625000006,52.676268356250006,80.0,70.0
40,52.674330375000004,53.73440611875,77.0,77.0
41,54.069676875000006,54.26541298125,70.0,78.0
42,54.302234625000004,54.5076606375,73.0,77.0
43,54.534792375,54.6665751,75.0,78.0
44,54.76735012500001,54.889442943750005,75.0,78.0
45,54.999907875000005,55.1278146375,75.0,81.0
46,55.232465625,55.358434406250005,75.0,81.0
47,55.465023375,55.8719994375,75.0,83.0
48,55.930138875000004,56.27703751875001,73.0,78.0
49,56.39525437500001,56.751842925000005,75.0,83.0
50,56.860369875,56.984400675,75.0,78.0
51,57.092927625,57.220834387500005,75.0,82.0
52,57.32548537500001,57.703391718750005,75.0,83.0
53,57.790600875,58.199514918750005,73.0,81.0
54,58.255716375000006,60.74989824375,77.0,80.0
55,61.976640375,62.420438081250005,70.0,81.0
56,62.441755875000005,62.621988131250006,77.0,76.0
57,62.674313625,62.81191029375,77.0,78.0
58,62.90687137500001,63.337103212500004,77.0,80.0
59,63.371986875000005,63.786714862500006,73.0,78.0
60,63.83710237500001,64.31190778125,75.0,79.0
61,64.30221787500001,64.53671360625,73.0,74.0
62,64.53477562500001,64.806093,72.0,72.0
63,64.767333375,65.46113066250001,70.0,78.0
64,65.465006625,65.69368841250001,70.0,77.0
65,65.697564375,66.0735327375,68.0,76.0
66,66.16267987500001,66.61616748750001,65.0,83.0
67,66.627795375,66.88942284375001,68.0,75.0
68,67.092910875,67.32159266250001,70.0,77.0
69,67.325468625,67.55415041250001,72.0,81.0
70,67.55802637500001,69.20337245625001,70.0,76.0
71,69.41848837500001,69.88941781875,70.0,79.0
72,69.883603875,70.23050251875,77.0,82.0
73,70.348719375,70.77119928750001,77.0,77.0
74,70.81383487500001,71.2750744125,73.0,77.0
75,71.27895037500001,71.80026733125001,75.0,81.0
76,71.744065875,71.99406545625001,73.0,72.0
77,71.976623625,72.23437513125,72.0,70.0
78,72.209181375,72.9572421375,70.0,76.0
79,73.139412375,73.97274431250001,75.0,85.0
80,74.06964337500001,74.45142568125,80.0,79.0
81,74.53475887500001,74.9417349375,82.0,79.0
82,74.999874375,75.48243170625001,80.0,77.0
83,75.464989875,76.28475594375,77.0,77.0
84,76.395220875,76.65878632500001,77.0,85.0
85,76.627778625,76.87971618750001,80.0,81.0
86,76.860336375,76.99211910000001,82.0,76.0
87,77.092894125,77.21886290625001,82.0,77.0
88,77.32545187500001,77.46304854375,82.0,77.0
89,77.55800962500001,77.68010244375,82.0,76.0
90,77.79056737500001,78.48436466250001,82.0,77.0
91,78.488240625,78.71692241250001,80.0,76.0
92,78.720798375,79.19947974375,82.0,78.0
93,79.18591387500001,79.82932365,85.0,77.0
94,80.58126037500001,81.95141311875001,80.0,78.0
95,81.976606875,82.21497856875001,82.0,78.0
96,82.20916462500001,82.44366035625,80.0,70.0
97,82.44172237500001,83.50179811875,77.0,77.0
98,83.83706887500001,84.03280498125001,70.0,78.0
99,84.06962662500001,84.27505263750001,73.0,77.0
100,84.30218437500001,84.4339671,75.0,78.0
101,84.53474212500001,84.65683494375001,75.0,78.0
102,84.767299875,84.89520663750001,75.0,81.0
103,84.999857625,85.12582640625001,73.0,81.0
104,85.232415375,85.46109716250001,75.0,78.0
105,85.464973125,85.87194918750001,75.0,83.0
106,85.93008862500001,86.1587704125,77.0,77.0
107,86.16264637500001,86.519234925,80.0,83.0
108,86.627761875,86.751792675,77.0,78.0
109,86.860319625,87.47078371875001,75.0,83.0
110,87.55799287500001,87.96690691875001,73.0,81.0
111,88.023108375,90.51729024375001,70.0,80.0
112,91.27891687500001,91.4533351875,77.0,83.0
113,91.511474625,91.71108669375,80.0,78.0
114,91.744032375,92.10837285000001,82.0,78.0
115,92.20914787500001,92.33511665625001,82.0,77.0
116,92.44170562500001,93.2750375625,82.0,78.0
117,93.371936625,93.58317658125,80.0,74.0
118,93.604494375,93.992090625,82.0,78.0
119,94.06960987500001,94.85836824375001,85.0,79.0
120,94.999840875,95.16456928125001,80.0,76.0
121,95.232398625,95.43201069375,82.0,77.0
122,95.46495637500001,95.5928631375,80.0,82.0
123,95.69751412500001,95.82929685,80.0,76.0
124,95.93007187500001,96.09867624375,80.0,79.0
125,96.16262962500001,96.3409239,77.0,80.0
126,96.395187375,97.07348081250001,75.0,87.0
127,97.09286062500001,97.30410058125001,73.0,76.0
128,97.32541837500001,98.36223834375001,77.0,80.0
129,98.72076487500001,98.85254760000001,70.0,82.0
130,98.95332262500001,99.10642314375,73.0,77.0
131,99.18588037500001,99.57153864375,75.0,83.0
132,99.650995875,99.75758484375001,75.0,78.0
133,99.883553625,99.99401855625001,75.0,81.0
134,100.116111375,100.82735049375,75.0,85.0
135,100.81378462500001,100.9726990875,73.0,76.0
136,101.04634237500001,101.44556651250001,75.0,87.0
137,101.511457875,101.97269741250001,77.0,78.0
138,101.97657337500002,102.62385911250001,75.0,90.0
139,102.90680437500001,103.02308325000001,75.0,82.0
140,103.139362125,103.26533090625001,75.0,82.0
141,103.371919875,103.49788865625001,75.0,82.0
142,103.60447762500002,103.75564016250001,75.0,79.0
143,103.83703537500001,104.51726679375001,75.0,82.0
144,104.53470862500001,104.77695628125001,73.0,72.0
145,104.767266375,106.04439601875,77.0,81.0
146,106.16261287500001,106.30020954375001,77.0,83.0
147,106.395170625,106.52889133125001,80.0,78.0
148,106.627728375,106.75369715625001,82.0,80.0
149,106.86028612500002,106.98237894375,82.0,76.0
150,107.09284387500001,107.21493669375,82.0,77.0
151,107.32540162500001,107.44943242500001,82.0,77.0
152,107.55795937500001,107.98431525000001,82.0,78.0
153,108.023074875,108.40098121875,80.0,80.0
154,108.48819037500002,108.92229817500001,82.0,77.0
155,108.95330587500001,109.7866378125,85.0,80.0
156,109.883536875,110.00950565625001,80.0,79.0
157,110.116094625,110.25756725625001,82.0,79.0
158,110.34865237500001,110.47462115625001,80.0,80.0
159,110.58121012500001,110.68198515,80.0,78.0
160,110.81376787500001,110.9726823375,80.0,77.0
161,111.04632562500001,111.18392229375002,77.0,78.0
162,111.278883375,111.65678971875,75.0,77.0
163,111.743998875,112.20523841250001,73.0,79.0
164,112.20911437500001,113.526941625,77.0,78.0
165,113.60446087500002,113.7866311125,70.0,77.0
166,113.83701862500001,113.99980905000001,73.0,78.0
167,114.06957637500001,114.18585525,75.0,87.0
168,114.30213412500001,114.42422694375001,75.0,85.0
169,114.53469187500001,114.65678469375001,75.0,80.0
170,114.767249625,114.88159051875002,75.0,82.0
171,114.999807375,115.46104691250001,75.0,83.0
172,115.46492287500001,115.69360466250001,75.0,77.0
173,115.69748062500001,115.83507729375,73.0,77.0
174,115.93003837500001,116.0618211,75.0,85.0
175,116.16259612500001,116.31569664375002,77.0,80.0
176,116.395153875,117.10445501250001,75.0,90.0
177,117.32538487500001,117.45329163750002,75.0,87.0
178,117.55794262500001,117.68584938750001,77.0,81.0
179,117.79050037500001,117.93391098750001,80.0,80.0
180,118.023058125,118.16065479375001,80.0,81.0
181,118.255615875,118.41840630000002,80.0,77.0
182,118.48817362500002,118.64515010625001,77.0,80.0
183,118.72073137500001,119.04631222500001,75.0,82.0
184,119.18584687500001,119.3602651875,75.0,81.0
185,119.41840462500001,119.62770660000001,73.0,77.0
186,119.650962375,121.47847869375,70.0,76.0
187,154.99974037500002,155.44353808125,70.0,81.0
188,155.464855875,155.64508813125002,77.0,76.0
189,155.69741362500002,155.83501029375,77.0,78.0
190,155.929971375,156.3602032125,77.0,80.0
191,156.395086875,156.80981486250002,73.0,78.0
192,156.860202375,157.33500778125003,75.0,79.0
193,157.32531787500002,157.55981360625,73.0,74.0
194,157.557875625,157.829193,72.0,72.0
195,157.79043337500002,158.4842306625,70.0,78.0
196,158.488106625,158.71678841250002,70.0,77.0
197,158.720664375,159.09663273750002,68.0,76.0
198,159.185779875,159.6392674875,65.0,83.0
199,159.650895375,159.91252284375003,68.0,75.0
200,160.116010875,160.34469266250002,70.0,77.0
201,160.348568625,160.5772504125,72.0,81.0
202,160.58112637500003,162.22647245625,70.0,76.0
203,162.441588375,162.91251781875002,70.0,79.0
204,162.906703875,163.25360251875,77.0,82.0
205,163.371819375,163.79429928750002,77.0,77.0
206,163.83693487500003,164.2981744125,73.0,77.0
207,164.30205037500002,164.82336733125,75.0,81.0
208,164.76716587500002,165.01716545625,73.0,72.0
209,164.999723625,165.25747513125,72.0,70.0
210,165.232281375,165.9803421375,70.0,76.0
211,166.162512375,166.99584431250003,75.0,85.0
212,167.09274337500003,167.47452568125001,80.0,79.0
213,167.55785887500002,167.9648349375,82.0,79.0
214,168.02297437500002,168.50553170625003,80.0,77.0
215,168.48808987500001,169.30785594375,77.0,77.0
216,169.418320875,169.68188632500002,77.0,85.0
217,169.65087862500002,169.9028161875,80.0,81.0
218,169.883436375,170.01521910000002,82.0,76.0
219,170.11599412500001,170.24196290625002,82.0,77.0
220,170.34855187500003,170.48614854375,82.0,77.0
221,170.581109625,170.70320244375,82.0,76.0
222,170.81366737500002,171.5074646625,82.0,77.0
223,171.511340625,171.74002241250002,80.0,76.0
224,171.74389837500001,172.22257974375,82.0,78.0
225,172.209013875,172.85242365000002,85.0,77.0
226,173.60436037500003,174.97451311875002,80.0,78.0
227,174.99970687500002,175.23807856875,82.0,78.0
228,175.23226462500003,175.46676035625,80.0,70.0
229,175.464822375,176.52489811875,77.0,77.0
230,176.86016887500003,177.05590498125002,70.0,78.0
231,177.092726625,177.2981526375,73.0,77.0
232,177.32528437500002,177.45706710000002,75.0,78.0
233,177.557842125,177.67993494375003,75.0,78.0
234,177.79039987500002,177.91830663750002,75.0,81.0
235,178.022957625,178.14892640625,73.0,81.0
236,178.25551537500002,178.4841971625,75.0,78.0
237,178.48807312500003,178.8950491875,75.0,83.0
238,178.95318862500002,179.18187041250002,77.0,77.0
239,179.185746375,179.542334925,80.0,83.0
240,179.650861875,179.77489267500002,77.0,78.0
241,179.88341962500002,180.49388371875003,75.0,83.0
242,180.58109287500002,180.99000691875003,73.0,81.0
243,181.04620837500002,183.54039024375,70.0,80.0
244,184.30201687500002,184.47643518750002,77.0,83.0
245,184.534574625,184.73418669375002,80.0,78.0
246,184.76713237500002,185.13147285000002,82.0,78.0
247,185.232247875,185.35821665625002,82.0,77.0
248,185.46480562500003,186.29813756250002,82.0,78.0
249,186.39503662500002,186.60627658125003,80.0,74.0
250,186.62759437500003,187.015190625,82.0,78.0
251,187.09270987500003,187.88146824375002,85.0,79.0
252,188.02294087500002,188.18766928125,80.0,76.0
253,188.25549862500003,188.45511069375002,82.0,77.0
254,188.488056375,188.61596313750002,80.0,82.0
255,188.72061412500003,188.85239685000002,80.0,76.0
256,188.953171875,189.12177624375002,80.0,79.0
257,189.18572962500002,189.3640239,77.0,80.0
258,189.418287375,190.0965808125,75.0,87.0
259,190.115960625,190.32720058125003,73.0,76.0
260,190.34851837500003,191.38533834375002,77.0,80.0
261,191.743864875,191.8756476,70.0,82.0
262,191.97642262500003,192.12952314375002,73.0,77.0
263,192.208980375,192.59463864375002,75.0,83.0
264,192.674095875,192.78068484375,75.0,78.0
265,192.90665362500002,193.01711855625,75.0,81.0
266,193.139211375,193.85045049375,75.0,85.0
267,193.836884625,193.99579908750002,73.0,76.0
268,194.06944237500002,194.46866651250002,75.0,87.0
269,194.53455787500002,194.99579741250002,77.0,78.0
270,194.99967337500001,195.6469591125,75.0,90.0
271,195.929904375,196.04618325,75.0,82.0
272,196.16246212500002,196.28843090625003,75.0,82.0
273,196.395019875,196.52098865625,75.0,82.0
274,196.62757762500001,196.77874016250001,75.0,79.0
275,196.86013537500003,197.54036679375002,75.0,82.0
276,197.557808625,197.80005628125002,73.0,72.0
277,197.79036637500002,199.06749601875,77.0,81.0
278,199.185712875,199.32330954375,77.0,83.0
279,199.41827062500002,199.55199133125,80.0,78.0
280,199.650828375,199.77679715625,82.0,80.0
281,199.88338612500002,200.00547894375,82.0,76.0
282,200.11594387500003,200.23803669375002,82.0,77.0
283,200.348501625,200.47253242500003,82.0,77.0
284,200.58105937500002,201.00741525,82.0,78.0
285,201.04617487500002,201.42408121875002,80.0,80.0
286,201.51129037500002,201.945398175,82.0,77.0
287,201.976405875,202.8097378125,85.0,80.0
288,202.906636875,203.03260565625,80.0,79.0
289,203.13919462500002,203.28066725625,82.0,79.0
290,203.37175237500003,203.49772115625,80.0,80.0
291,203.604310125,203.70508515000003,80.0,78.0
292,203.83686787500002,203.9957823375,80.0,77.0
293,204.069425625,204.20702229375001,77.0,78.0
294,204.30198337500002,204.67988971875002,75.0,77.0
295,204.76709887500002,205.22833841250002,73.0,79.0
296,205.232214375,206.550041625,77.0,78.0
297,206.62756087500003,206.8097311125,70.0,77.0
298,206.860118625,207.02290905,73.0,78.0
299,207.09267637500002,207.20895525000003,75.0,87.0
300,207.325234125,207.44732694375003,75.0,85.0
301,207.55779187500002,207.67988469375,75.0,80.0
302,207.790349625,207.90469051875002,75.0,82.0
303,208.02290737500002,208.48414691250002,75.0,83.0
304,208.488022875,208.7167046625,75.0,77.0
305,208.72058062500003,208.85817729375003,73.0,77.0
306,208.953138375,209.08492110000003,75.0,85.0
307,209.18569612500002,209.33879664375002,77.0,80.0
308,209.418253875,210.1275550125,75.0,90.0
309,210.34848487500003,210.47639163750003,75.0,87.0
310,210.581042625,210.7089493875,77.0,81.0
311,210.81360037500002,210.9570109875,80.0,80.0
312,211.046158125,211.18375479375,80.0,81.0
313,211.27871587500002,211.44150630000001,80.0,77.0
314,211.51127362500003,211.66825010625,77.0,80.0
315,211.743831375,212.069412225,75.0,82.0
316,212.208946875,212.3833651875,75.0,81.0
317,212.44150462500002,212.6508066,73.0,77.0
318,212.674062375,214.50157869375002,70.0,76.0
319,215.929870875,216.10428918750003,77.0,83.0
320,216.16242862500002,216.36204069375003,80.0,78.0
321,216.39498637500003,216.75932685,82.0,78.0
322,216.86010187500003,216.98607065625,82.0,77.0
323,217.092659625,217.92599156250003,82.0,78.0
324,218.02289062500003,218.23413058125,80.0,74.0
325,218.25544837500001,218.64304462500002,82.0,78.0
326,218.720563875,219.50932224375,85.0,79.0
327,219.65079487500003,219.81552328125002,80.0,76.0
328,219.88335262500001,220.08296469375003,82.0,77.0
329,220.11591037500003,220.24381713750003,80.0,82.0
330,220.348468125,220.48025085,80.0,76.0
331,220.58102587500002,220.74963024375,80.0,79.0
332,220.813583625,220.99187790000002,77.0,80.0
333,221.04614137500002,221.72443481250002,75.0,87.0
334,221.74381462500003,221.95505458125,73.0,76.0
335,221.976372375,223.01319234375,77.0,80.0
336,223.37171887500003,223.50350160000002,70.0,82.0
337,223.604276625,223.75737714375,73.0,77.0
338,223.83683437500002,224.22249264375003,75.0,83.0
339,224.30194987500002,224.40853884375002,75.0,78.0
340,224.53450762500003,224.64497255625002,75.0,81.0
341,224.76706537500002,225.47830449375002,75.0,85.0
342,225.46473862500002,225.62365308750003,73.0,76.0
343,225.697296375,226.0965205125,75.0,87.0
344,226.16241187500003,226.6236514125,77.0,78.0
345,226.62752737500003,227.27481311250003,75.0,90.0
346,227.55775837500002,227.67403725000003,75.0,82.0
347,227.79031612500003,227.91628490625,75.0,82.0
348,228.02287387500002,228.14884265625003,75.0,82.0
349,228.25543162500003,228.40659416250003,75.0,79.0
350,228.487989375,229.16822079375,75.0,82.0
351,229.18566262500002,229.42791028125,73.0,72.0
352,229.41822037500003,230.69535001875002,77.0,81.0
353,230.81356687500002,230.95116354375003,77.0,83.0
354,231.04612462500003,231.17984533125002,80.0,78.0
355,231.27868237500002,231.40465115625003,82.0,80.0
356,231.51124012500003,231.63333294375002,82.0,76.0
357,231.743797875,231.86589069375003,82.0,77.0
358,231.97635562500002,232.100386425,82.0,77.0
359,232.208913375,232.63526925000002,82.0,78.0
360,232.67402887500003,233.05193521875003,80.0,80.0
361,233.13914437500003,233.57325217500002,82.0,77.0
362,233.60425987500003,234.43759181250002,85.0,80.0
363,234.53449087500002,234.66045965625003,80.0,79.0
364,234.76704862500003,234.90852125625003,82.0,79.0
365,234.999606375,235.12557515625002,80.0,80.0
366,235.23216412500003,235.33293915000002,80.0,78.0
367,235.464721875,235.62363633750002,80.0,77.0
368,235.69727962500002,235.83487629375003,77.0,78.0
369,235.92983737500003,236.30774371875003,75.0,77.0
370,236.39495287500003,236.8561924125,73.0,79.0
371,236.86006837500003,238.17789562500002,77.0,78.0
372,238.255414875,238.43758511250002,70.0,77.0
373,238.48797262500003,238.65076305000002,73.0,78.0
374,238.720530375,238.83680925000002,75.0,87.0
375,238.95308812500002,239.07518094375,75.0,85.0
376,239.18564587500003,239.30773869375003,75.0,80.0
377,239.41820362500002,239.53254451875003,75.0,82.0
378,239.65076137500003,240.1120009125,75.0,83.0
379,240.11587687500003,240.34455866250002,75.0,77.0
380,240.348434625,240.48603129375002,73.0,77.0
381,240.58099237500002,240.71277510000002,75.0,85.0
382,240.81355012500003,240.96665064375003,77.0,80.0
383,241.04610787500002,241.75540901250002,75.0,90.0
384,241.976338875,242.10424563750001,75.0,87.0
385,242.20889662500002,242.33680338750003,77.0,81.0
386,242.441454375,242.58486498750003,80.0,80.0
387,242.67401212500002,242.81160879375003,80.0,81.0
388,242.90656987500003,243.06936030000003,80.0,77.0
389,243.13912762500001,243.29610410625003,77.0,80.0
390,243.37168537500003,243.69726622500002,75.0,82.0
391,243.83680087500002,244.01121918750002,75.0,81.0
392,244.069358625,244.27866060000002,73.0,77.0
393,244.30191637500002,245.69338691250002,70.0,76.0
394,245.697262875,245.8794331125,70.0,77.0
395,245.92982062500002,246.09261105000002,73.0,78.0
396,246.16237837500003,246.27865725,75.0,87.0
397,246.39493612500002,246.51702894375003,75.0,85.0
398,246.62749387500003,246.74958669375002,75.0,80.0
399,246.860051625,246.97439251875002,75.0,82.0
400,247.09260937500002,247.55384891250003,75.0,83.0
401,247.55772487500002,247.7864066625,75.0,77.0
402,247.79028262500003,247.92787929375,73.0,77.0
403,248.02284037500002,248.1546231,75.0,85.0
404,248.25539812500003,248.40849864375002,77.0,80.0
405,248.487955875,249.19725701250002,75.0,90.0
406,249.41818687500003,249.5460936375,75.0,87.0
407,249.65074462500002,249.77865138750002,77.0,81.0
408,249.87167448750003,250.06353463125,80.0,79.0
409,250.21469716875,250.44531693750002,80.0,77.0
410,250.61004534375002,251.28833878125002,80.0,77.0
411,251.43368737500003,252.55771650000003,77.0,75.0
412,252.736010775,253.61004031875,75.0,78.0
413,253.62942013125001,254.32321741875003,77.0,78.0
414,254.28251981250003,254.81352667500002,73.0,77.0
415,254.81546465625001,256.8987945,70.0,72.0
