,start,end,pitch,velocity
0,1.2790676250000002,1.7906946750000001,58.0,72.0
1,1.7441831250000002,2.0581360875000003,61.0,71.0
2,0.581394375,2.2422443062500004,46.0,77.0
3,1.0465098750000001,2.2674380625,53.0,64.0
4,1.9767408750000002,2.7306155812500004,58.0,65.0
5,2.4418563750000004,2.8352665687500003,65.0,72.0
6,2.9069718750000004,3.46704845625,53.0,46.0
7,2.4418563750000004,3.7654975687500003,46.0,70.0
8,3.6046451250000002,3.7732494937500003,53.0,72.0
9,3.3720873750000004,3.8236370062500002,65.0,76.0
10,3.3720873750000004,3.8507687437500002,61.0,73.0
11,3.8372028750000005,3.9961173375000003,58.0,68.0
12,4.3023183750000005,4.897278618750001,61.0,68.0
13,4.767433875,5.11433251875,56.0,64.0
14,4.999991625000001,5.48642491875,65.0,77.0
15,4.3023183750000005,5.56006820625,49.0,71.0
16,5.465107125,5.77712210625,61.0,66.0
17,5.697664875,6.19960201875,56.0,67.0
18,5.930222625000001,6.43409775,61.0,67.0
19,6.395338125,6.773244468750001,56.0,68.0
20,6.627895875000001,6.858515643750001,61.0,65.0
21,6.1627803750000005,7.4050263562500005,49.0,72.0
22,7.093011375000001,7.406964337500001,65.0,76.0
23,7.093011375000001,7.439910018750001,56.0,71.0
24,8.023242375,8.72672956875,63.0,71.0
25,8.023242375,8.7713031375,58.0,63.0
26,8.720915625,9.265488356250001,66.0,76.0
27,9.186031125000001,9.44378263125,63.0,74.0
28,8.488357875,9.604635075000001,46.0,53.0
29,8.023242375,9.699596156250001,39.0,77.0
30,9.418588875000001,10.104634237500001,58.0,71.0
31,9.651146625,10.28486649375,63.0,70.0
32,10.116262125,10.965097912500001,46.0,55.0
33,9.883704375,11.00579551875,39.0,76.0
34,10.348819875,11.091066693750001,58.0,65.0
35,10.581377625,11.170523925000001,63.0,71.0
36,11.046493125000001,11.31974848125,66.0,69.0
37,11.279050875000001,11.434089375000001,58.0,65.0
38,11.744166375,12.2596693875,56.0,71.0
39,11.744166375,12.437963662500001,63.0,69.0
40,12.441839625000002,12.720908925000002,60.0,68.0
41,12.674397375000002,12.94765273125,56.0,69.0
42,12.209281875,13.137574893750001,51.0,63.0
43,11.744166375,13.160830668750002,44.0,76.0
44,12.906955125000001,13.19377635,63.0,71.0
45,13.139512875000001,13.329435037500001,56.0,64.0
46,13.604628375,14.116255425000002,65.0,76.0
47,14.069743875,14.358503081250001,56.0,72.0
48,14.302301625000002,14.548425243750001,63.0,78.0
49,14.534859375000002,14.736409425000002,61.0,77.0
50,13.604628375,14.895323887500002,49.0,76.0
51,14.767417125000001,14.920517643750001,60.0,63.0
52,14.999974875000001,15.143385487500002,61.0,64.0
53,15.465090375,15.717027937500001,58.0,69.0
54,15.465090375,15.945709725000002,61.0,70.0
55,15.930205875000002,16.071678506250002,58.0,69.0
56,15.697648125,16.5154762125,53.0,67.0
57,16.162763625,17.08718068125,65.0,79.0
58,16.162763625,17.09880856875,61.0,79.0
59,15.465090375,17.1278782875,46.0,77.0
60,16.860436875,17.1278782875,53.0,75.0
61,17.092994625000003,17.58330388125,58.0,69.0
62,17.790667875,18.02128764375,58.0,77.0
63,17.558110125000002,18.09105496875,53.0,69.0
64,18.023225625000002,18.68795319375,65.0,82.0
65,17.325552375,18.8022940875,46.0,78.0
66,18.488341125,18.8177979375,53.0,71.0
67,18.720898875000003,18.89725516875,58.0,76.0
68,18.953456625,19.21120813125,60.0,77.0
69,19.186014375000003,19.7015173875,61.0,77.0
70,19.651129875000002,20.00190448125,56.0,72.0
71,19.883687625,20.34686514375,65.0,78.0
72,20.348803125000003,20.627872425000003,61.0,76.0
73,19.186014375000003,20.81585660625,49.0,77.0
74,20.581360875,21.13174755,56.0,74.0
75,20.813918625000003,21.362367318750003,61.0,71.0
76,21.511591875,21.7945371375,61.0,69.0
77,21.279034125000003,21.8022890625,56.0,73.0
78,21.744149625000002,22.226706956250002,65.0,79.0
79,21.046476375,22.3216680375,49.0,81.0
80,22.209265125,22.461202687500002,61.0,69.0
81,22.441822875000003,22.5425979,56.0,63.0
82,22.906938375000003,23.1123643875,58.0,69.0
83,23.372053875000002,23.602673643750002,58.0,66.0
84,22.906938375000003,23.631743362500004,63.0,71.0
85,23.604611625,24.003835762500003,66.0,78.0
86,22.906938375000003,24.040657406250002,51.0,76.0
87,23.837169375000002,24.147246375,63.0,76.0
88,24.302284875,24.897245118750003,58.0,72.0
89,24.534842625000003,25.251895687500003,63.0,69.0
90,25.232515875,25.552282781250003,58.0,73.0
91,24.999958125000003,25.930189125000002,46.0,63.0
92,25.465073625000002,25.951506918750002,66.0,76.0
93,24.767400375,25.968948750000003,39.0,78.0
94,25.930189125000002,26.197630537500004,63.0,77.0
95,26.162746875000003,26.420498381250002,58.0,70.0
96,26.395304625,26.88173791875,63.0,68.0
97,27.092977875000003,27.40499285625,56.0,77.0
98,27.325535625,27.728635725000004,63.0,77.0
99,27.790651125000004,28.073596387500004,60.0,74.0
100,26.860420125,28.131735825000003,51.0,65.0
101,26.627862375000003,28.149177656250004,44.0,77.0
102,28.023208875,28.178247375,56.0,76.0
103,28.488324375,28.765455693750003,58.0,75.0
104,28.953439875,29.294524575000004,58.0,70.0
105,29.185997625000002,29.623981387500002,65.0,76.0
106,29.651113125000002,29.85072519375,61.0,63.0
107,28.488324375,30.122042568750004,46.0,76.0
108,28.720882125000003,30.166616137500004,53.0,63.0
109,29.883670875000004,30.561964312500002,58.0,74.0
110,30.116228625,30.885607181250002,65.0,72.0
111,30.348786375000003,31.93986898125,46.0,77.0
112,30.581344125,31.963124756250004,53.0,65.0
113,30.813901875000003,32.1666127875,58.0,66.0
114,31.046459625000004,32.178240675000005,61.0,60.0
115,32.209248375,33.651106425,46.0,71.0
116,32.441806125,33.668548256250006,53.0,52.0
117,32.674363875000004,33.73443961875,58.0,51.0
118,32.906921625,33.87009830625,65.0,80.0
119,34.069710375,34.4921902875,56.0,27.0
120,34.069710375,34.52707395,60.0,60.0
121,34.069710375,34.598779256250005,44.0,60.0
122,34.999941375000006,35.441801100000006,58.0,57.0
123,34.999941375000006,35.51932035,61.0,27.0
124,34.999941375000006,35.74218819375,46.0,66.0
125,35.697614625,35.82358340625,58.0,92.0
126,35.465056875,35.8565290875,53.0,48.0
127,35.930172375000005,36.143350312500004,56.0,49.0
128,35.930172375000005,36.3681561375,60.0,69.0
129,36.395287875,37.21505394375,56.0,49.0
130,36.627845625000006,37.26544145625,60.0,78.0
131,35.930172375000005,37.2983871375,44.0,71.0
132,36.162730125,37.488309300000004,53.0,55.0
133,37.790634375,38.48636964375,61.0,71.0
134,38.25574987500001,38.6162143875,53.0,52.0
135,38.488307625000004,38.930167350000005,58.0,71.0
136,38.953423125,39.191794818750004,61.0,80.0
137,37.790634375,39.420476606250006,46.0,67.0
138,39.185980875000006,39.434042475000005,60.0,87.0
139,38.720865375,39.488305950000004,53.0,44.0
140,39.418538625000004,40.11427389375,61.0,60.0
141,40.116211875000005,40.43210281875,58.0,45.0
142,39.88365412500001,40.99411738125001,53.0,62.0
143,39.651096375,41.060008743750004,46.0,82.0
144,40.348769625,41.28481456875,65.0,71.0
145,41.51155837500001,41.903030587500005,56.0,53.0
146,41.51155837500001,42.0154335,60.0,78.0
147,41.51155837500001,42.17628594375,44.0,80.0
148,42.209231625,42.315820593750004,56.0,37.0
149,41.976673875,42.329386462500004,51.0,47.0
150,42.441789375000006,42.875897175000006,61.0,82.0
151,42.674347125000004,43.1898501375,53.0,62.0
152,42.906904875,43.2247338,58.0,51.0
153,42.441789375000006,43.240237650000005,46.0,80.0
154,43.372020375000005,43.434035775000005,66.0,11.0
155,43.372020375000005,43.716981037500005,58.0,41.0
156,43.372020375000005,43.868143575000005,63.0,49.0
157,43.837135875,44.129771043750004,58.0,69.0
158,44.069693625000006,44.7557389875,66.0,92.0
159,43.372020375000005,44.819692368750005,51.0,43.0
160,43.837135875,44.85263805,54.0,34.0
161,44.767366875,44.90496354375001,63.0,67.0
162,45.232482375000004,45.412714631250005,60.0,76.0
163,45.69759787500001,45.8797681125,60.0,29.0
164,45.232482375000004,45.98248111875,65.0,73.0
165,45.232482375000004,46.331317743750006,53.0,89.0
166,45.930155625000005,46.42240286250001,68.0,87.0
167,46.395271125,46.612325025000004,65.0,66.0
168,46.627828875000006,46.716976012500005,60.0,66.0
169,47.092944375,47.978601806250005,54.0,48.0
170,47.092944375,48.1200744375,58.0,71.0
171,47.092944375,48.23635331250001,42.0,87.0
172,48.023175375,48.523174537500005,49.0,66.0
173,48.255733125000006,48.5890659,54.0,66.0
174,48.488290875000004,48.8797630875,58.0,82.0
175,48.95340637500001,49.20146797500001,56.0,57.0
176,48.95340637500001,49.309994925000005,60.0,71.0
177,49.418521875,49.65301760625,56.0,44.0
178,49.651079625,50.05030376250001,60.0,60.0
179,49.185964125000005,50.309993250000005,51.0,60.0
180,48.95340637500001,50.344876912500006,44.0,80.0
181,50.813868375000006,51.29836368750001,65.0,69.0
182,50.813868375000006,51.3487512,60.0,82.0
183,51.278983875,51.60262674375,56.0,39.0
184,50.813868375000006,52.02898261875001,41.0,66.0
185,51.51154162500001,52.04254848750001,60.0,80.0
186,52.20921487500001,52.309989900000005,56.0,40.0
187,51.976657125,52.65301258125,65.0,92.0
188,52.674330375000004,53.137507893750005,58.0,55.0
189,52.674330375000004,53.364251700000004,61.0,35.0
190,53.372003625000005,53.84293306875001,58.0,84.0
191,53.83711912500001,54.09293265,61.0,69.0
192,53.13944587500001,54.162699975,53.0,45.0
193,52.674330375000004,54.164637956250004,46.0,78.0
194,54.069676875000006,54.517350543750005,58.0,45.0
195,54.999907875000005,55.14719445000001,58.0,12.0
196,54.534792375,55.329364687500004,63.0,76.0
197,55.232465625,55.784790281250004,66.0,80.0
198,55.697581125000006,56.0929293,63.0,73.0
199,54.534792375,56.3138591625,51.0,78.0
200,56.39525437500001,57.110369456250005,63.0,82.0
201,56.39525437500001,58.083236043750006,48.0,67.0
202,56.860369875,58.137499518750005,54.0,51.0
203,57.092927625,58.226646656250004,60.0,69.0
204,57.558043125000005,58.31966975625001,70.0,82.0
205,58.720831875,59.426257050000004,60.0,45.0
206,58.95338962500001,59.4456368625,65.0,76.0
207,59.65106287500001,59.92625621250001,60.0,46.0
208,58.255716375000006,59.95532593125,53.0,87.0
209,59.418505125,59.98827161250001,72.0,97.0
210,59.883620625000006,60.03284518125,70.0,78.0
211,60.137496168750005,60.428193356250006,69.0,53.0
212,60.348736125,60.641371293750005,60.0,53.0
213,60.813851625000005,61.74020666250001,60.0,32.0
214,60.58129387500001,61.792532156250005,65.0,34.0
215,60.813851625000005,61.80416004375,69.0,46.0
216,60.116178375000004,61.85067159375001,53.0,82.0
217,61.976640375,63.418498425,46.0,71.0
218,62.20919812500001,63.43594025625001,53.0,52.0
219,62.441755875000005,63.50183161875,58.0,51.0
220,62.674313625,63.63749030625001,65.0,80.0
221,63.83710237500001,64.25958228750001,56.0,27.0
222,63.83710237500001,64.29446595,60.0,60.0
223,63.83710237500001,64.36617125625,44.0,60.0
224,64.767333375,65.20919310000001,58.0,57.0
225,64.767333375,65.28671235,61.0,27.0
226,64.767333375,65.50958019375001,46.0,66.0
227,65.465006625,65.59097540625001,58.0,92.0
228,65.232448875,65.62392108750001,53.0,48.0
229,65.697564375,65.9107423125,56.0,49.0
230,65.697564375,66.13554813750001,60.0,69.0
231,66.16267987500001,66.98244594375001,56.0,49.0
232,66.39523762500001,67.03283345625,60.0,78.0
233,65.697564375,67.0657791375,44.0,71.0
234,65.93012212500001,67.25570130000001,53.0,55.0
235,67.55802637500001,68.25376164375001,61.0,71.0
236,68.02314187500001,68.38360638750001,53.0,52.0
237,68.255699625,68.69755935,58.0,71.0
238,68.720815125,68.95918681875001,61.0,80.0
239,67.55802637500001,69.18786860625,46.0,67.0
240,68.953372875,69.201434475,60.0,87.0
241,68.488257375,69.25569795000001,53.0,44.0
242,69.18593062500001,69.88166589375001,61.0,60.0
243,69.883603875,70.19949481875001,58.0,45.0
244,69.65104612500001,70.76150938125001,53.0,62.0
245,69.41848837500001,70.82740074375,46.0,82.0
246,70.116161625,71.05220656875001,65.0,71.0
247,71.27895037500001,71.6704225875,56.0,53.0
248,71.27895037500001,71.7828255,60.0,78.0
249,71.27895037500001,71.94367794375,44.0,80.0
250,71.976623625,72.08321259375,56.0,37.0
251,71.744065875,72.09677846250001,51.0,47.0
252,72.209181375,72.643289175,61.0,82.0
253,72.44173912500001,72.9572421375,53.0,62.0
254,72.67429687500001,72.99212580000001,58.0,51.0
255,72.209181375,73.00762965000001,46.0,80.0
256,73.139412375,73.201427775,66.0,11.0
257,73.139412375,73.4843730375,58.0,41.0
258,73.139412375,73.635535575,63.0,49.0
259,73.604527875,73.89716304375001,58.0,69.0
260,73.837085625,74.52313098750001,66.0,92.0
261,73.139412375,74.58708436875001,51.0,43.0
262,73.604527875,74.62003005000001,54.0,34.0
263,74.53475887500001,74.67235554375,63.0,67.0
264,74.999874375,75.18010663125001,60.0,76.0
265,75.464989875,75.6471601125,60.0,29.0
266,74.999874375,75.74987311875,65.0,73.0
267,74.999874375,76.09870974375,53.0,89.0
268,75.69754762500001,76.18979486250001,68.0,87.0
269,76.16266312500001,76.379717025,65.0,66.0
270,76.395220875,76.48436801250001,60.0,66.0
271,76.860336375,77.74599380625001,54.0,48.0
272,76.860336375,77.88746643750001,58.0,71.0
273,76.860336375,78.0037453125,42.0,87.0
274,77.79056737500001,78.29056653750001,49.0,66.0
275,78.023125125,78.35645790000001,54.0,66.0
276,78.255682875,78.64715508750001,58.0,82.0
277,78.720798375,78.968859975,56.0,57.0
278,78.720798375,79.07738692500001,60.0,71.0
279,79.18591387500001,79.42040960625,56.0,44.0
280,79.41847162500001,79.81769576250001,60.0,60.0
281,78.95335612500001,80.07738525,51.0,60.0
282,78.720798375,80.11226891250001,44.0,80.0
283,80.58126037500001,81.0657556875,65.0,69.0
284,80.58126037500001,81.11614320000001,60.0,82.0
285,81.04637587500001,81.37001874375001,56.0,39.0
286,80.58126037500001,81.79637461875001,41.0,66.0
287,81.27893362500001,81.8099404875,60.0,80.0
288,81.976606875,82.0773819,56.0,40.0
289,81.744049125,82.42040458125001,65.0,92.0
290,82.44172237500001,82.90489989375001,58.0,55.0
291,82.44172237500001,83.13164370000001,61.0,35.0
292,83.139395625,83.61032506875,58.0,84.0
293,83.604511125,83.86032465000001,61.0,69.0
294,82.90683787500001,83.93009197500001,53.0,45.0
295,82.44172237500001,83.93202995625,46.0,78.0
296,83.83706887500001,84.28474254375001,58.0,45.0
297,84.767299875,84.91458645,58.0,12.0
298,84.30218437500001,85.0967566875,63.0,76.0
299,84.999857625,85.55218228125001,66.0,80.0
300,85.464973125,85.86032130000001,63.0,73.0
301,84.30218437500001,86.08125116250001,51.0,78.0
302,86.16264637500001,86.20721994375,61.0,69.0
303,86.16264637500001,86.48047530000001,56.0,71.0
304,86.16264637500001,86.59094023125,60.0,67.0
305,86.395204125,86.80993211250001,51.0,77.0
306,86.16264637500001,86.86613356875,44.0,78.0
307,86.627761875,87.13357498125,56.0,80.0
308,86.860319625,87.34093897500001,60.0,61.0
309,87.092877375,87.80993043750001,41.0,78.0
310,87.32543512500001,87.81186841875001,48.0,70.0
311,87.55799287500001,87.86225593125,53.0,80.0
312,87.79055062500001,88.04248818750001,56.0,80.0
313,88.488223875,88.682022,58.0,72.0
314,88.255666125,88.81186674375,53.0,68.0
315,88.720781625,88.82737059375,58.0,60.0
316,88.720781625,88.99209900000001,65.0,67.0
317,88.95333937500001,89.2595404125,53.0,70.0
318,89.18589712500001,89.40682698750001,58.0,77.0
319,89.18589712500001,89.40876496875,61.0,80.0
320,88.023108375,89.728531875,46.0,79.0
321,89.41845487500001,89.74597370625001,53.0,71.0
322,89.651012625,89.83705882500001,58.0,75.0
323,89.883570375,90.30992625,58.0,68.0
324,89.883570375,90.30992625,61.0,80.0
325,89.883570375,90.42426714375,65.0,80.0
326,90.81380137500001,91.0657389375,58.0,71.0
327,90.81380137500001,91.2866688,61.0,77.0
328,90.81380137500001,91.32155246250001,65.0,78.0
329,90.81380137500001,91.33318035,70.0,73.0
330,91.27891687500001,91.58124195,58.0,76.0
331,91.04635912500001,91.59480781875001,53.0,77.0
332,89.883570375,91.620001575,46.0,80.0
333,91.511474625,91.6471333125,61.0,68.0
334,91.744032375,91.98434205000001,58.0,72.0
335,91.744032375,91.992093975,65.0,76.0
336,92.20914787500001,92.52891478125001,58.0,74.0
337,92.44170562500001,92.55217055625,61.0,67.0
338,91.976590125,92.73821675625001,53.0,73.0
339,92.67426337500001,92.93589084375,58.0,73.0
340,92.67426337500001,92.95139469375,70.0,78.0
341,92.90682112500001,93.30992122500001,53.0,72.0
342,91.744032375,93.31961113125001,46.0,78.0
343,93.139378875,93.44557991250001,58.0,77.0
344,93.604494375,93.868059825,58.0,73.0
345,93.604494375,94.05991996875001,61.0,71.0
346,94.06960987500001,94.33123734375,58.0,78.0
347,93.83705212500001,94.58317490625001,53.0,66.0
348,94.53472537500001,94.75953120000001,58.0,78.0
349,94.53472537500001,94.79829082500001,61.0,82.0
350,94.53472537500001,94.80410476875001,65.0,80.0
351,93.604494375,94.85449228125,46.0,78.0
352,94.767283125,94.891313925,53.0,78.0
353,94.999840875,95.28278613750001,58.0,81.0
354,95.232398625,95.36999529375001,61.0,68.0
355,95.46495637500001,95.61805689375001,56.0,77.0
356,95.46495637500001,95.75565356250002,61.0,76.0
357,95.69751412500001,95.9494516875,56.0,74.0
358,95.46495637500001,96.08317239375,49.0,81.0
359,95.93007187500001,96.15100173750001,61.0,70.0
360,96.16262962500001,96.3370479375,56.0,70.0
361,96.395187375,96.52697010000001,56.0,76.0
362,96.395187375,96.82541921250001,65.0,81.0
363,96.627745125,96.9184423125,56.0,76.0
364,96.395187375,97.03859715000002,49.0,73.0
365,96.860302875,97.12193034375001,61.0,72.0
366,97.09286062500001,97.26727893750001,56.0,69.0
367,97.32541837500001,97.47270495000001,56.0,65.0
368,97.32541837500001,97.80797570625,61.0,75.0
369,97.79053387500001,98.06572721250001,56.0,73.0
370,97.32541837500001,98.0773551,49.0,76.0
371,98.023091625,98.12192866875,61.0,70.0
372,98.255649375,98.36999026875,56.0,78.0
373,98.255649375,98.395184025,49.0,77.0
374,98.255649375,98.4765792375,61.0,80.0
375,98.255649375,98.57154031875001,65.0,72.0
376,98.488207125,98.83510576875001,56.0,74.0
377,98.72076487500001,99.07735342500001,61.0,75.0
378,99.18588037500001,99.402934275,58.0,68.0
379,99.18588037500001,99.63936798750001,63.0,72.0
380,99.650995875,99.9649488375,58.0,71.0
381,99.883553625,100.00564644375001,63.0,70.0
382,99.41843812500001,100.21107245625001,46.0,60.0
383,100.116111375,100.35642105000001,58.0,76.0
384,100.116111375,100.43006433750001,63.0,80.0
385,100.116111375,100.45332011250001,66.0,77.0
386,100.34866912500001,100.66456006875,46.0,67.0
387,99.18588037500001,100.73238941250001,39.0,78.0
388,100.58122687500001,100.9571952375,58.0,76.0
389,100.81378462500001,100.9571952375,63.0,68.0
390,101.04634237500001,101.31378378750001,58.0,74.0
391,101.04634237500001,101.495954025,63.0,76.0
392,101.511457875,101.80603102500001,58.0,69.0
393,101.744015625,101.86610844375001,63.0,72.0
394,101.278900125,102.05796858750001,46.0,61.0
395,101.04634237500001,102.22657295625001,39.0,80.0
396,101.97657337500002,102.28083643125001,58.0,78.0
397,101.97657337500002,102.44362685625,63.0,79.0
398,101.97657337500002,102.54052591875,66.0,77.0
399,102.44168887500001,102.70331634375,58.0,76.0
400,102.67424662500001,102.78664953750001,63.0,68.0
401,102.90680437500001,103.14517606875,56.0,72.0
402,103.371919875,103.69556274375,56.0,82.0
403,103.60447762500002,103.72657044375,63.0,76.0
404,103.139362125,103.89711279375001,51.0,76.0
405,103.83703537500001,104.11029073125,56.0,79.0
406,103.83703537500001,104.2827710625,68.0,66.0
407,103.83703537500001,104.30796481875001,63.0,77.0
408,102.90680437500001,104.51339083125,44.0,77.0
409,104.06959312500001,104.52114275625001,51.0,77.0
410,104.30215087500001,104.59091008125002,56.0,78.0
411,104.767266375,104.92036689375001,56.0,75.0
412,104.767266375,105.04827365625,61.0,74.0
413,105.23238187500002,105.54633483750001,56.0,90.0
414,105.46493962500001,105.61804014375001,63.0,73.0
415,104.999824125,105.77307864375001,53.0,79.0
416,104.767266375,106.08315564375,49.0,82.0
417,105.69749737500001,106.2285042375,65.0,83.0
418,105.93005512500001,106.30020954375001,53.0,77.0
419,106.16261287500001,106.38354273750001,56.0,77.0
420,106.627728375,106.85253420000001,58.0,75.0
421,106.627728375,106.88741786250002,61.0,76.0
422,107.09284387500001,107.24013045000001,58.0,76.0
423,107.32540162500001,107.402920875,61.0,64.0
424,106.86028612500002,107.62191275625001,53.0,67.0
425,107.55795937500001,107.82927675,58.0,77.0
426,107.55795937500001,107.87578830000001,61.0,85.0
427,107.55795937500001,107.93586571875001,65.0,83.0
428,106.627728375,108.32733793125001,46.0,78.0
429,107.79051712500001,108.37772544375001,53.0,76.0
430,108.023074875,108.66454666875,58.0,77.0
431,108.255632625,108.96687174375,61.0,66.0
432,108.95330587500001,109.26532085625001,58.0,73.0
433,109.18586362500001,109.29439057500001,61.0,67.0
434,108.72074812500001,109.53470025000001,53.0,71.0
435,109.41842137500001,109.70911856250001,58.0,76.0
436,108.48819037500002,109.79051377500001,46.0,78.0
437,109.650979125,109.79438973750001,53.0,76.0
438,109.41842137500001,109.90097870625002,61.0,76.0
439,109.41842137500001,109.94942823750002,65.0,79.0
440,109.883536875,110.0502032625,58.0,76.0
441,110.34865237500001,110.56376829375002,56.0,77.0
442,110.34865237500001,110.82539576250001,61.0,71.0
443,110.81376787500001,111.10058910000001,56.0,77.0
444,111.04632562500001,111.16260450000001,61.0,71.0
445,110.58121012500001,111.21492999375,53.0,63.0
446,110.34865237500001,111.35252666250001,49.0,79.0
447,111.278883375,111.78275850000001,56.0,77.0
448,111.278883375,111.883533525,61.0,76.0
449,111.743998875,112.01919221250002,49.0,75.0
450,111.278883375,112.05213789375001,65.0,81.0
451,111.97655662500001,112.0618278,61.0,70.0
452,112.20911437500001,112.48818367500002,61.0,77.0
453,112.44167212500001,112.74399720000001,56.0,77.0
454,112.67422987500001,112.98430687500002,61.0,76.0
455,112.906787625,113.02888044375001,56.0,72.0
456,112.20911437500001,113.22267856875001,49.0,82.0
457,113.139345375,113.36608918125,56.0,79.0
458,113.139345375,113.46105026250001,61.0,81.0
459,113.139345375,113.48624401875001,65.0,82.0
460,113.371903125,113.50562383125,49.0,76.0
461,113.60446087500002,113.883530175,56.0,74.0
462,113.83701862500001,114.05601050625,61.0,72.0
463,114.06957637500001,114.30794806875001,58.0,71.0
464,114.06957637500001,114.503684175,63.0,75.0
465,114.53469187500001,114.81376117500001,58.0,67.0
466,114.767249625,114.90484629375001,63.0,68.0
467,114.30213412500001,115.27306273125001,46.0,64.0
468,114.06957637500001,115.30019446875,39.0,79.0
469,114.999807375,115.52500029375001,58.0,75.0
470,114.999807375,115.68391475625,66.0,77.0
471,114.999807375,115.72461236250001,63.0,77.0
472,115.46492287500001,115.77112391250002,39.0,78.0
473,115.69748062500001,116.02887541875,58.0,71.0
474,115.93003837500001,116.38158800625001,63.0,71.0
475,116.395153875,116.68391308125001,58.0,75.0
476,116.627711625,116.75755636875002,63.0,69.0
477,116.16259612500001,116.93197468125001,46.0,61.0
478,116.86026937500002,117.11802088125,58.0,74.0
479,115.93003837500001,117.22848581250001,39.0,82.0
480,117.09282712500001,117.24592764375001,46.0,68.0
481,116.86026937500002,117.33895074375,63.0,77.0
482,116.86026937500002,117.402904125,66.0,76.0
483,117.32538487500001,117.47460943125002,58.0,76.0
484,117.79050037500001,118.03274803125001,56.0,73.0
485,117.79050037500001,118.30406540625,60.0,70.0
486,118.255615875,118.56763085625,63.0,72.0
487,118.48817362500002,118.66259193750001,56.0,77.0
488,118.023058125,118.80406456875001,51.0,72.0
489,117.79050037500001,119.02111846875,44.0,77.0
490,118.95328912500001,119.10638964375,51.0,77.0
491,118.72073137500001,119.24592429375001,68.0,80.0
492,119.18584687500001,119.33119546875001,56.0,81.0
493,119.650962375,120.13351970625001,61.0,65.0
494,119.650962375,120.21297693750002,58.0,69.0
495,120.34863562500001,120.42421689375001,58.0,53.0
496,120.58119337500001,120.86801460000001,65.0,79.0
497,120.11607787500002,120.98623145625001,53.0,69.0
498,119.650962375,121.29437047500001,46.0,77.0
499,120.81375112500001,121.31568826875001,58.0,76.0
500,121.04630887500001,121.34088202500001,61.0,68.0
501,121.511424375,122.00173363125,61.0,70.0
502,121.511424375,122.03274133125001,65.0,70.0
503,121.511424375,122.18777983125001,58.0,64.0
504,122.44165537500001,123.32731280625,61.0,70.0
505,121.511424375,123.33312675,46.0,76.0
506,122.44165537500001,123.3486306,65.0,76.0
507,121.97653987500001,123.35250656250001,53.0,60.0
508,124.06955962500001,124.58118667500001,58.0,72.0
509,124.534675125,124.84862808750002,61.0,71.0
510,123.37188637500002,125.03273630625002,46.0,77.0
511,123.83700187500001,125.0579300625,53.0,64.0
512,124.767232875,125.52110758125,58.0,65.0
513,125.23234837500002,125.62575856875002,65.0,72.0
514,125.69746387500001,126.25754045625001,53.0,46.0
515,125.23234837500002,126.55598956875001,46.0,70.0
516,126.395137125,126.56374149375002,53.0,72.0
517,126.162579375,126.61412900625001,65.0,76.0
518,126.162579375,126.64126074375001,61.0,73.0
519,126.62769487500002,126.78660933750001,58.0,68.0
520,127.09281037500001,127.68777061875001,61.0,68.0
521,127.55792587500001,127.90482451875,56.0,64.0
522,127.79048362500001,128.27691691875,65.0,77.0
523,127.09281037500001,128.35056020625,49.0,71.0
524,128.255599125,128.56761410625,61.0,66.0
525,128.48815687500002,128.99009401875,56.0,67.0
526,128.720714625,129.22458975,61.0,67.0
527,129.18583012500002,129.56373646875002,56.0,68.0
528,129.418387875,129.64900764375002,61.0,65.0
529,128.953272375,130.19551835625,49.0,72.0
530,129.883503375,130.1974563375,65.0,76.0
531,129.883503375,130.23040201875,56.0,71.0
532,130.81373437500002,131.51722156875002,63.0,71.0
533,130.81373437500002,131.5617951375,58.0,63.0
534,131.511407625,132.05598035625002,66.0,76.0
535,131.976523125,132.23427463125,63.0,74.0
536,131.27884987500002,132.395127075,46.0,53.0
537,130.81373437500002,132.49008815625,39.0,77.0
538,132.209080875,132.89512623750002,58.0,71.0
539,132.44163862500002,133.07535849375,63.0,70.0
540,132.90675412500002,133.7555899125,46.0,55.0
541,132.674196375,133.79628751875,39.0,76.0
542,133.139311875,133.88155869375,58.0,65.0
543,133.37186962500002,133.961015925,63.0,71.0
544,133.836985125,134.11024048125,66.0,69.0
545,134.06954287500002,134.224581375,58.0,65.0
546,134.53465837500002,135.0501613875,56.0,71.0
547,134.53465837500002,135.2284556625,63.0,69.0
548,135.232331625,135.511400925,60.0,68.0
549,135.464889375,135.73814473125,56.0,69.0
550,134.99977387500002,135.92806689375,51.0,63.0
551,134.53465837500002,135.95132266875,44.0,76.0
552,135.69744712500002,135.98426835,63.0,71.0
553,135.930004875,136.11992703750002,56.0,64.0
554,136.395120375,136.90674742500002,65.0,76.0
555,136.860235875,137.14899508125,56.0,72.0
556,137.092793625,137.33891724375002,63.0,78.0
557,137.32535137500003,137.526901425,61.0,77.0
558,136.395120375,137.6858158875,49.0,76.0
559,137.557909125,137.71100964375,60.0,63.0
560,137.79046687500002,137.9338774875,61.0,64.0
561,138.25558237500002,138.5075199375,58.0,69.0
562,138.25558237500002,138.736201725,61.0,70.0
563,138.720697875,138.86217050625,58.0,69.0
564,138.488140125,139.3059682125,53.0,67.0
565,138.95325562500003,139.87767268125,65.0,79.0
566,138.95325562500003,139.88930056875,61.0,79.0
567,138.25558237500002,139.9183702875,46.0,77.0
568,139.650928875,139.9183702875,53.0,75.0
569,139.88348662500002,140.37379588125,58.0,69.0
570,140.58115987500003,140.81177964375001,58.0,77.0
571,140.348602125,140.88154696875,53.0,69.0
572,140.813717625,141.47844519375002,65.0,82.0
573,140.116044375,141.5927860875,46.0,78.0
574,141.278833125,141.60828993750002,53.0,71.0
575,141.51139087500002,141.68774716875,58.0,76.0
576,141.743948625,142.00170013125,60.0,77.0
577,141.976506375,142.49200938750002,61.0,77.0
578,142.441621875,142.79239648125002,56.0,72.0
579,142.67417962500002,143.13735714375002,65.0,78.0
580,143.13929512500002,143.41836442500002,61.0,76.0
581,141.976506375,143.60634860625,49.0,77.0
582,143.371852875,143.92223955,56.0,74.0
583,143.604410625,144.15285931875002,61.0,71.0
584,144.30208387500002,144.58502913750002,61.0,69.0
585,144.069526125,144.59278106250002,56.0,73.0
586,144.534641625,145.01719895625,65.0,79.0
587,143.83696837500003,145.11216003750002,49.0,81.0
588,144.999757125,145.25169468750002,61.0,69.0
589,145.23231487500001,145.3330899,56.0,63.0
590,145.697430375,145.9028563875,58.0,69.0
591,146.162545875,146.39316564375002,58.0,66.0
592,145.697430375,146.4222353625,63.0,71.0
593,146.39510362500002,146.79432776250002,66.0,78.0
594,145.697430375,146.83114940625,51.0,76.0
595,146.627661375,146.937738375,63.0,76.0
596,147.092776875,147.68773711875002,58.0,72.0
597,147.325334625,148.04238768750002,63.0,69.0
598,148.02300787500002,148.34277478125,58.0,73.0
599,147.790450125,148.720681125,46.0,63.0
600,148.255565625,148.74199891875,66.0,76.0
601,147.55789237500002,148.75944075,39.0,78.0
602,148.720681125,148.9881225375,63.0,77.0
603,148.953238875,149.21099038125,58.0,70.0
604,149.18579662500002,149.67222991875002,63.0,68.0
605,149.883469875,150.19548485625,56.0,77.0
606,150.11602762500002,150.519127725,63.0,77.0
607,150.581143125,150.8640883875,60.0,74.0
608,149.65091212500002,150.92222782500002,51.0,65.0
609,149.418354375,150.93966965625,44.0,77.0
610,150.81370087500002,150.968739375,56.0,76.0
611,151.27881637500002,151.55594769375,58.0,75.0
612,151.74393187500002,152.08501657500003,58.0,70.0
613,151.976489625,152.4144733875,65.0,76.0
614,152.44160512500002,152.64121719375,61.0,63.0
615,151.27881637500002,152.91253456875,46.0,76.0
616,151.511374125,152.9571081375,53.0,63.0
617,152.674162875,153.3524563125,58.0,74.0
618,152.90672062500002,153.67609918125,65.0,72.0
619,153.139278375,154.73036098125002,46.0,77.0
620,153.37183612500002,154.75361675625,53.0,65.0
621,153.604393875,154.95710478750001,58.0,66.0
622,153.836951625,154.968732675,61.0,60.0
623,154.99974037500002,156.44159842500002,46.0,71.0
624,155.232298125,156.45904025625,53.0,52.0
625,155.464855875,156.52493161875,58.0,51.0
626,155.69741362500002,156.66059030625001,65.0,80.0
627,156.860202375,157.28268228750002,56.0,27.0
628,156.860202375,157.31756595000002,60.0,60.0
629,156.860202375,157.38927125625003,44.0,60.0
630,157.79043337500002,158.23229310000002,58.0,57.0
631,157.79043337500002,158.30981235000002,61.0,27.0
632,157.79043337500002,158.53268019375002,46.0,66.0
633,158.488106625,158.61407540625,58.0,92.0
634,158.25554887500002,158.6470210875,53.0,48.0
635,158.720664375,158.93384231250002,56.0,49.0
636,158.720664375,159.15864813750002,60.0,69.0
637,159.185779875,160.00554594375,56.0,49.0
638,159.41833762500002,160.05593345625002,60.0,78.0
639,158.720664375,160.08887913750002,44.0,71.0
640,158.95322212500002,160.27880130000003,53.0,55.0
641,160.58112637500003,161.27686164375,61.0,71.0
642,161.04624187500002,161.4067063875,53.0,52.0
643,161.278799625,161.72065935,58.0,71.0
644,161.743915125,161.98228681875003,61.0,80.0
645,160.58112637500003,162.21096860625002,46.0,67.0
646,161.976472875,162.224534475,60.0,87.0
647,161.51135737500002,162.27879795,53.0,44.0
648,162.20903062500003,162.90476589375,61.0,60.0
649,162.906703875,163.22259481875003,58.0,45.0
650,162.67414612500002,163.78460938125002,53.0,62.0
651,162.441588375,163.85050074375002,46.0,82.0
652,163.13926162500002,164.07530656875002,65.0,71.0
653,164.30205037500002,164.6935225875,56.0,53.0
654,164.30205037500002,164.8059255,60.0,78.0
655,164.30205037500002,164.96677794375,44.0,80.0
656,164.999723625,165.10631259375,56.0,37.0
657,164.76716587500002,165.11987846250003,51.0,47.0
658,165.232281375,165.666389175,61.0,82.0
659,165.46483912500003,165.9803421375,53.0,62.0
660,165.697396875,166.01522580000002,58.0,51.0
661,165.232281375,166.03072965,46.0,80.0
662,166.162512375,166.224527775,66.0,11.0
663,166.162512375,166.5074730375,58.0,41.0
664,166.162512375,166.658635575,63.0,49.0
665,166.627627875,166.92026304375003,58.0,69.0
666,166.860185625,167.54623098750002,66.0,92.0
667,166.162512375,167.61018436875003,51.0,43.0
668,166.627627875,167.64313005000002,54.0,34.0
669,167.55785887500002,167.69545554375,63.0,67.0
670,168.02297437500002,168.20320663125003,60.0,76.0
671,168.48808987500001,168.67026011250002,60.0,29.0
672,168.02297437500002,168.77297311875,65.0,73.0
673,168.02297437500002,169.12180974375002,53.0,89.0
674,168.72064762500003,169.2128948625,68.0,87.0
675,169.18576312500002,169.40281702500002,65.0,66.0
676,169.418320875,169.50746801250003,60.0,66.0
677,169.883436375,170.76909380625003,54.0,48.0
678,169.883436375,170.91056643750002,58.0,71.0
679,169.883436375,171.0268453125,42.0,87.0
680,170.81366737500002,171.3136665375,49.0,66.0
681,171.046225125,171.3795579,54.0,66.0
682,171.27878287500002,171.6702550875,58.0,82.0
683,171.74389837500001,171.99195997500001,56.0,57.0
684,171.74389837500001,172.100486925,60.0,71.0
685,172.209013875,172.44350960625002,56.0,44.0
686,172.44157162500002,172.84079576250002,60.0,60.0
687,171.97645612500003,173.10048525000002,51.0,60.0
688,171.74389837500001,173.1353689125,44.0,80.0
689,173.60436037500003,174.0888556875,65.0,69.0
690,173.60436037500003,174.1392432,60.0,82.0
691,174.06947587500002,174.39311874375002,56.0,39.0
692,173.60436037500003,174.81947461875,41.0,66.0
693,174.302033625,174.83304048750003,60.0,80.0
694,174.99970687500002,175.1004819,56.0,40.0
695,174.767149125,175.44350458125,65.0,92.0
696,175.464822375,175.92799989375,58.0,55.0
697,175.464822375,176.1547437,61.0,35.0
698,176.16249562500002,176.63342506875003,58.0,84.0
699,176.62761112500002,176.88342465000002,61.0,69.0
700,175.929937875,176.953191975,53.0,45.0
701,175.464822375,176.95512995625,46.0,78.0
702,176.86016887500003,177.30784254375,58.0,45.0
703,177.79039987500002,177.93768645,58.0,12.0
704,177.32528437500002,178.1198566875,63.0,76.0
705,178.022957625,178.57528228125003,66.0,80.0
706,178.48807312500003,178.8834213,63.0,73.0
707,177.32528437500002,179.10435116250002,51.0,78.0
708,179.185746375,179.23031994375,61.0,69.0
709,179.185746375,179.50357530000002,56.0,71.0
710,179.185746375,179.61404023125002,60.0,67.0
711,179.41830412500002,179.8330321125,51.0,77.0
712,179.185746375,179.88923356875003,44.0,78.0
713,179.650861875,180.15667498125,56.0,80.0
714,179.88341962500002,180.36403897500003,60.0,61.0
715,180.11597737500003,180.8330304375,41.0,78.0
716,180.348535125,180.83496841875,48.0,70.0
717,180.58109287500002,180.88535593125002,53.0,80.0
718,180.813650625,181.06558818750003,56.0,80.0
719,181.51132387500002,181.70512200000002,58.0,72.0
720,181.278766125,181.83496674375002,53.0,68.0
721,181.74388162500003,181.85047059375,58.0,60.0
722,181.74388162500003,182.01519900000002,65.0,67.0
723,181.976439375,182.28264041250003,53.0,70.0
724,182.20899712500002,182.4299269875,58.0,77.0
725,182.20899712500002,182.43186496875,61.0,80.0
726,181.04620837500002,182.75163187500002,46.0,79.0
727,182.441554875,182.76907370625003,53.0,71.0
728,182.67411262500002,182.860158825,58.0,75.0
729,182.906670375,183.33302625000002,58.0,68.0
730,182.906670375,183.33302625000002,61.0,80.0
731,182.906670375,183.44736714375003,65.0,80.0
732,183.83690137500002,184.08883893750001,58.0,71.0
733,183.83690137500002,184.30976880000003,61.0,77.0
734,183.83690137500002,184.34465246250002,65.0,78.0
735,183.83690137500002,184.35628035000002,70.0,73.0
736,184.30201687500002,184.60434195000002,58.0,76.0
737,184.069459125,184.61790781875,53.0,77.0
738,182.906670375,184.643101575,46.0,80.0
739,184.534574625,184.67023331250002,61.0,68.0
740,184.76713237500002,185.00744205,58.0,72.0
741,184.76713237500002,185.01519397500002,65.0,76.0
742,185.232247875,185.55201478125002,58.0,74.0
743,185.46480562500003,185.57527055625002,61.0,67.0
744,184.99969012500003,185.76131675625,53.0,73.0
745,185.697363375,185.95899084375003,58.0,73.0
746,185.697363375,185.97449469375002,70.0,78.0
747,185.92992112500002,186.333021225,53.0,72.0
748,184.76713237500002,186.34271113125,46.0,78.0
749,186.162478875,186.46867991250002,58.0,77.0
750,186.62759437500003,186.89115982500002,58.0,73.0
751,186.62759437500003,187.08301996875002,61.0,71.0
752,187.09270987500003,187.35433734375002,58.0,78.0
753,186.860152125,187.60627490625,53.0,66.0
754,187.55782537500002,187.78263120000003,58.0,78.0
755,187.55782537500002,187.821390825,61.0,82.0
756,187.55782537500002,187.82720476875002,65.0,80.0
757,186.62759437500003,187.87759228125,46.0,78.0
758,187.790383125,187.91441392500002,53.0,78.0
759,188.02294087500002,188.3058861375,58.0,81.0
760,188.25549862500003,188.39309529375,61.0,68.0
761,188.488056375,188.64115689375,56.0,77.0
762,188.488056375,188.77875356250001,61.0,76.0
763,188.72061412500003,188.97255168750002,56.0,74.0
764,188.488056375,189.10627239375,49.0,81.0
765,188.953171875,189.17410173750002,61.0,70.0
766,189.18572962500002,189.36014793750002,56.0,70.0
767,189.418287375,189.55007010000003,56.0,76.0
768,189.418287375,189.8485192125,65.0,81.0
769,189.65084512500002,189.94154231250002,56.0,76.0
770,189.418287375,190.06169715000001,49.0,73.0
771,189.88340287500003,190.14503034375002,61.0,72.0
772,190.115960625,190.2903789375,56.0,69.0
773,190.34851837500003,190.49580495,56.0,65.0
774,190.34851837500003,190.83107570625,61.0,75.0
775,190.81363387500002,191.0888272125,56.0,73.0
776,190.34851837500003,191.1004551,49.0,76.0
777,191.046191625,191.14502866875003,61.0,70.0
778,191.27874937500002,191.39309026875003,56.0,78.0
779,191.27874937500002,191.41828402500002,49.0,77.0
780,191.27874937500002,191.4996792375,61.0,80.0
781,191.27874937500002,191.59464031875,65.0,72.0
782,191.51130712500003,191.85820576875003,56.0,74.0
783,191.743864875,192.100453425,61.0,75.0
784,192.208980375,192.426034275,58.0,68.0
785,192.208980375,192.6624679875,63.0,72.0
786,192.674095875,192.9880488375,58.0,71.0
787,192.90665362500002,193.02874644375,63.0,70.0
788,192.44153812500002,193.23417245625,46.0,60.0
789,193.139211375,193.37952105000002,58.0,76.0
790,193.139211375,193.45316433750003,63.0,80.0
791,193.139211375,193.47642011250002,66.0,77.0
792,193.37176912500001,193.68766006875,46.0,67.0
793,192.208980375,193.75548941250003,39.0,78.0
794,193.60432687500003,193.98029523750003,58.0,76.0
795,193.836884625,193.98029523750003,63.0,68.0
796,194.06944237500002,194.33688378750003,58.0,74.0
797,194.06944237500002,194.519054025,63.0,76.0
798,194.53455787500002,194.829131025,58.0,69.0
799,194.767115625,194.88920844375002,63.0,72.0
800,194.302000125,195.08106858750003,46.0,61.0
801,194.06944237500002,195.24967295625,39.0,80.0
802,194.99967337500001,195.30393643125,58.0,78.0
803,194.99967337500001,195.46672685625,63.0,79.0
804,194.99967337500001,195.56362591875,66.0,77.0
805,195.464788875,195.72641634375,58.0,76.0
806,195.69734662500002,195.8097495375,63.0,68.0
807,195.929904375,196.16827606875,56.0,72.0
808,196.395019875,196.71866274375003,56.0,82.0
809,196.62757762500001,196.74967044375,63.0,76.0
810,196.16246212500002,196.92021279375,51.0,76.0
811,196.86013537500003,197.13339073125002,56.0,79.0
812,196.86013537500003,197.30587106250002,68.0,66.0
813,196.86013537500003,197.33106481875,63.0,77.0
814,195.929904375,197.53649083125,44.0,77.0
815,197.092693125,197.54424275625001,51.0,77.0
816,197.32525087500002,197.61401008125003,56.0,78.0
817,197.79036637500002,197.94346689375,56.0,75.0
818,197.79036637500002,198.07137365625002,61.0,74.0
819,198.25548187500002,198.5694348375,56.0,90.0
820,198.48803962500003,198.64114014375002,63.0,73.0
821,198.022924125,198.79617864375,53.0,79.0
822,197.79036637500002,199.10625564375002,49.0,82.0
823,198.720597375,199.2516042375,65.0,83.0
824,198.95315512500002,199.32330954375,53.0,77.0
825,199.185712875,199.40664273750002,56.0,77.0
826,199.650828375,199.8756342,58.0,75.0
827,199.650828375,199.91051786250003,61.0,76.0
828,200.11594387500003,200.26323045,58.0,76.0
829,200.348501625,200.426020875,61.0,64.0
830,199.88338612500002,200.64501275625003,53.0,67.0
831,200.58105937500002,200.85237675000002,58.0,77.0
832,200.58105937500002,200.8988883,61.0,85.0
833,200.58105937500002,200.95896571875002,65.0,83.0
834,199.650828375,201.35043793125,46.0,78.0
835,200.813617125,201.40082544375002,53.0,76.0
836,201.04617487500002,201.68764666875,58.0,77.0
837,201.278732625,201.98997174375,61.0,66.0
838,201.976405875,202.28842085625,58.0,73.0
839,202.20896362500002,202.31749057500002,61.0,67.0
840,201.74384812500003,202.55780025,53.0,71.0
841,202.441521375,202.7322185625,58.0,76.0
842,201.51129037500002,202.81361377500002,46.0,78.0
843,202.67407912500002,202.8174897375,53.0,76.0
844,202.441521375,202.92407870625001,61.0,76.0
845,202.441521375,202.97252823750003,65.0,79.0
846,202.906636875,203.07330326250002,58.0,76.0
847,203.37175237500003,203.58686829375003,56.0,77.0
848,203.37175237500003,203.84849576250002,61.0,71.0
849,203.83686787500002,204.1236891,56.0,77.0
850,204.069425625,204.1857045,61.0,71.0
851,203.604310125,204.23802999375002,53.0,63.0
852,203.37175237500003,204.37562666250003,49.0,79.0
853,204.30198337500002,204.80585850000003,56.0,77.0
854,204.30198337500002,204.90663352500002,61.0,76.0
855,204.76709887500002,205.04229221250003,49.0,75.0
856,204.30198337500002,205.07523789375003,65.0,81.0
857,204.99965662500003,205.08492780000003,61.0,70.0
858,205.232214375,205.51128367500002,61.0,77.0
859,205.46477212500002,205.76709720000002,56.0,77.0
860,205.697329875,206.00740687500002,61.0,76.0
861,205.92988762500002,206.05198044375,56.0,72.0
862,205.232214375,206.24577856875,49.0,82.0
863,206.162445375,206.38918918125,56.0,79.0
864,206.162445375,206.4841502625,61.0,81.0
865,206.162445375,206.50934401875003,65.0,82.0
866,206.39500312500002,206.52872383125,49.0,76.0
867,206.62756087500003,206.906630175,56.0,74.0
868,206.860118625,207.07911050625,61.0,72.0
869,207.09267637500002,207.33104806875002,58.0,71.0
870,207.09267637500002,207.52678417500002,63.0,75.0
871,207.55779187500002,207.83686117500002,58.0,67.0
872,207.790349625,207.92794629375,63.0,68.0
873,207.325234125,208.29616273125,46.0,64.0
874,207.09267637500002,208.32329446875002,39.0,79.0
875,208.02290737500002,208.54810029375003,58.0,75.0
876,208.02290737500002,208.70701475625,66.0,77.0
877,208.02290737500002,208.7477123625,63.0,77.0
878,208.488022875,208.79422391250003,39.0,78.0
879,208.72058062500003,209.05197541875,58.0,71.0
880,208.953138375,209.40468800625,63.0,71.0
881,209.418253875,209.70701308125,58.0,75.0
882,209.65081162500002,209.78065636875002,63.0,69.0
883,209.18569612500002,209.95507468125,46.0,61.0
884,209.88336937500003,210.14112088125003,58.0,74.0
885,208.953138375,210.25158581250002,39.0,82.0
886,210.115927125,210.26902764375,46.0,68.0
887,209.88336937500003,210.36205074375002,63.0,77.0
888,209.88336937500003,210.42600412500002,66.0,76.0
889,210.34848487500003,210.49770943125003,58.0,76.0
890,210.81360037500002,211.05584803125,56.0,73.0
891,210.81360037500002,211.32716540625003,60.0,70.0
892,211.27871587500002,211.59073085625002,63.0,72.0
893,211.51127362500003,211.68569193750002,56.0,77.0
894,211.046158125,211.82716456875002,51.0,72.0
895,210.81360037500002,212.04421846875002,44.0,77.0
896,211.97638912500003,212.12948964375002,51.0,77.0
897,211.743831375,212.26902429375002,68.0,80.0
898,212.208946875,212.35429546875002,56.0,81.0
899,212.674062375,213.15661970625,61.0,65.0
900,212.674062375,213.23607693750003,58.0,69.0
901,213.371735625,213.44731689375,58.0,53.0
902,213.60429337500003,213.8911146,65.0,79.0
903,213.13917787500003,214.00933145625,53.0,69.0
904,212.674062375,214.31747047500002,46.0,77.0
905,213.836851125,214.33878826875002,58.0,76.0
906,214.06940887500002,214.363982025,61.0,68.0
907,214.53452437500002,215.02483363125,61.0,70.0
908,214.53452437500002,215.05584133125,65.0,70.0
909,214.53452437500002,215.21087983125003,58.0,64.0
910,215.464755375,216.35041280625,61.0,70.0
911,214.53452437500002,216.35622675000002,46.0,76.0
912,215.464755375,216.3717306,65.0,76.0
913,214.999639875,216.37560656250002,53.0,60.0
914,216.39498637500003,216.91436535000003,61.0,80.0
915,216.39498637500003,216.97250478750001,58.0,76.0
916,217.32521737500002,217.55971310625003,65.0,76.0
917,217.32521737500002,217.62754245000002,61.0,71.0
918,217.32521737500002,217.65273620625,58.0,78.0
919,216.86010187500003,217.77870498750002,53.0,57.0
920,216.39498637500003,217.96862715000003,46.0,66.0
921,218.25544837500001,218.63335471875,58.0,62.0
922,218.25544837500001,218.63723068125003,61.0,69.0
923,219.185679375,219.32327604375,61.0,73.0
924,219.185679375,219.33102796875002,65.0,80.0
925,219.185679375,219.36591163125001,58.0,71.0
926,218.720563875,219.44730684375003,53.0,24.0
927,218.25544837500001,219.49381839375002,46.0,84.0
928,219.65079487500003,220.10622046875002,60.0,84.0
929,220.11591037500003,220.3717239,56.0,64.0
930,220.11591037500003,220.60234366875002,61.0,78.0
931,220.58102587500002,220.9724980875,56.0,49.0
932,221.04614137500002,221.22249766875,61.0,71.0
933,221.04614137500002,221.24187748125001,65.0,73.0
934,220.11591037500003,221.58683814375001,49.0,73.0
935,221.976372375,222.19536425625003,56.0,66.0
936,221.976372375,222.40854219375,61.0,69.0
937,222.441487875,222.65660379375,56.0,41.0
938,222.90660337500003,223.07326976250002,56.0,73.0
939,222.90660337500003,223.247688075,65.0,73.0
940,222.90660337500003,223.34652511875,61.0,64.0
941,221.976372375,223.41435446250003,49.0,67.0
942,223.37171887500003,223.43954821875002,56.0,30.0
943,223.83683437500002,224.069392125,58.0,57.0
944,223.83683437500002,224.2748181375,63.0,76.0
945,224.30194987500002,224.67210429375,58.0,46.0
946,224.76706537500002,224.95117359375,66.0,67.0
947,224.76706537500002,224.95504955625003,63.0,64.0
948,223.83683437500002,225.35621167500003,51.0,67.0
949,225.697296375,225.92597816250003,58.0,57.0
950,225.697296375,226.21667535000003,63.0,58.0
951,225.697296375,226.70117066250003,51.0,52.0
952,226.62752737500003,226.77093798750002,58.0,58.0
953,226.62752737500003,226.94535630000001,66.0,87.0
954,226.62752737500003,227.08682893125,63.0,64.0
955,227.09264287500002,227.21085973125003,58.0,80.0
956,227.55775837500002,228.04225368750002,56.0,71.0
957,227.55775837500002,228.09070321875,60.0,73.0
958,228.487989375,228.67209759375,56.0,73.0
959,228.487989375,228.813570225,60.0,87.0
960,227.55775837500002,228.984112575,44.0,66.0
961,228.953104875,229.16434483125002,56.0,27.0
962,229.41822037500003,229.61589446250002,56.0,69.0
963,229.41822037500003,229.78643681250003,61.0,82.0
964,229.88333587500003,230.04612630000003,56.0,69.0
965,229.41822037500003,230.47054419375002,49.0,73.0
966,230.34845137500002,230.55775335,56.0,92.0
967,230.34845137500002,230.581009125,61.0,100.0
968,230.581009125,230.97829528125,49.0,82.0
969,230.81356687500002,231.01317894375,56.0,84.0
970,230.81356687500002,231.03255875625,60.0,100.0
971,231.27868237500002,231.5306199375,58.0,69.0
972,231.27868237500002,231.75930172500003,61.0,70.0
973,231.743797875,231.88527050625,58.0,69.0
974,231.51124012500003,232.32906821250003,53.0,67.0
975,231.97635562500002,232.90077268125003,65.0,79.0
976,231.97635562500002,232.91240056875003,61.0,79.0
977,231.27868237500002,232.9414702875,46.0,77.0
978,232.67402887500003,232.9414702875,53.0,75.0
979,232.90658662500002,233.39689588125003,58.0,69.0
980,233.60425987500003,233.83487964375,58.0,77.0
981,233.371702125,233.90464696875003,53.0,69.0
982,233.836817625,234.50154519375002,65.0,82.0
983,233.13914437500003,234.61588608750003,46.0,78.0
984,234.30193312500003,234.63138993750002,53.0,71.0
985,234.53449087500002,234.71084716875,58.0,76.0
986,234.76704862500003,235.02480013125003,60.0,77.0
987,234.999606375,235.51510938750002,61.0,77.0
988,235.464721875,235.81549648125002,56.0,72.0
989,235.69727962500002,236.16045714375002,65.0,78.0
990,236.16239512500002,236.44146442500002,61.0,76.0
991,234.999606375,236.62944860625,49.0,77.0
992,236.39495287500003,236.94533955000003,56.0,74.0
993,236.627510625,237.17595931875002,61.0,71.0
994,237.32518387500002,237.60812913750001,61.0,69.0
995,237.092626125,237.61588106250002,56.0,73.0
996,237.55774162500003,238.04029895625,65.0,79.0
997,236.86006837500003,238.13526003750002,49.0,81.0
998,238.02285712500003,238.27479468750002,61.0,69.0
999,238.255414875,238.35618990000003,56.0,63.0
1000,238.720530375,238.9259563875,58.0,69.0
1001,239.18564587500003,239.41626564375002,58.0,66.0
1002,238.720530375,239.44533536250003,63.0,71.0
1003,239.41820362500002,239.81742776250002,66.0,78.0
1004,238.720530375,239.85424940625003,51.0,76.0
1005,239.65076137500003,239.960838375,63.0,76.0
1006,240.11587687500003,240.71083711875002,58.0,72.0
1007,240.348434625,241.06548768750002,63.0,69.0
1008,241.04610787500002,241.36587478125003,58.0,73.0
1009,240.81355012500003,241.74378112500003,46.0,63.0
1010,241.27866562500003,241.76509891875003,66.0,76.0
1011,240.58099237500002,241.78254075,39.0,78.0
1012,241.74378112500003,242.01122253750003,63.0,77.0
1013,241.976338875,242.23409038125,58.0,70.0
1014,242.20889662500002,242.69532991875002,63.0,68.0
1015,242.90656987500003,243.21858485625003,56.0,77.0
1016,243.13912762500001,243.54222772500003,63.0,77.0
1017,243.604243125,243.88718838750003,60.0,74.0
1018,242.67401212500002,243.94532782500002,51.0,65.0
1019,242.441454375,243.96276965625003,44.0,77.0
1020,243.83680087500002,243.991839375,56.0,76.0
1021,244.30191637500002,244.57904769375003,58.0,75.0
1022,244.76703187500001,245.10811657500003,58.0,70.0
1023,244.99958962500003,245.4375733875,65.0,76.0
1024,245.46470512500002,245.66431719375,61.0,63.0
1025,244.30191637500002,245.93563456875003,46.0,76.0
1026,244.53447412500003,245.98020813750003,53.0,63.0
1027,245.697262875,246.36780438750003,58.0,74.0
1028,246.16237837500003,246.36780438750003,58.0,69.0
1029,245.92982062500002,246.69919918125,65.0,72.0
1030,246.62749387500003,246.85811364375002,58.0,66.0
1031,246.16237837500003,246.88718336250002,63.0,71.0
1032,246.860051625,247.2592757625,66.0,78.0
1033,246.16237837500003,247.29609740625003,51.0,76.0
1034,247.09260937500002,247.40268637500003,63.0,76.0
1035,247.55772487500002,248.15268511875001,58.0,72.0
1036,247.79028262500003,248.50733568750002,63.0,69.0
1037,248.487955875,248.80772278125002,58.0,73.0
1038,248.25539812500003,249.18562912500002,46.0,63.0
1039,248.72051362500002,249.20694691875002,66.0,76.0
1040,248.02284037500002,249.22438875000003,39.0,78.0
1041,249.18562912500002,249.45307053750003,63.0,77.0
1042,249.41818687500003,249.67593838125003,58.0,70.0
1043,249.65074462500002,250.13717791875,63.0,68.0
1044,250.21469716875,250.82128530000003,56.0,71.0
1045,250.3755496125,250.84066511250003,60.0,70.0
1046,250.54996792500003,250.87361079375003,63.0,69.0
1047,250.85035501875,250.99764159375002,68.0,67.0
1048,251.46081911250002,251.58484991250003,68.0,49.0
1049,251.50345470000002,251.64298935000002,72.0,68.0
1050,251.57709798750003,251.66430714375002,75.0,62.0
1051,251.62360953750002,251.76314418750002,80.0,73.0
1052,250.04803078125002,252.5848482375,51.0,69.0
1053,249.83097688125002,252.60035208750003,44.0,77.0
1054,254.53445737500002,255.05383635,61.0,80.0
1055,254.53445737500002,255.11197578750003,58.0,76.0
1056,255.464688375,255.69918410625002,65.0,76.0
1057,255.464688375,255.76701345,61.0,71.0
1058,255.464688375,255.79220720625003,58.0,78.0
1059,254.999572875,255.91817598750004,53.0,57.0
1060,254.53445737500002,256.10809815000005,46.0,66.0
1061,256.39491937500003,256.77282571875,58.0,62.0
1062,256.39491937500003,256.77670168125,61.0,69.0
1063,257.325150375,257.46274704375,61.0,73.0
1064,257.325150375,257.47049896875,65.0,80.0
1065,257.325150375,257.50538263125003,58.0,71.0
1066,256.860034875,257.58677784375004,53.0,24.0
1067,256.39491937500003,257.63328939375003,46.0,84.0
1068,257.79026587500005,258.24569146875,60.0,84.0
1069,258.255381375,258.5111949,56.0,64.0
1070,258.255381375,258.74181466875,61.0,78.0
1071,258.72049687500004,259.11196908750003,56.0,49.0
1072,259.185612375,259.36196866875,61.0,71.0
1073,259.185612375,259.38134848125003,65.0,73.0
1074,258.255381375,259.72630914375003,49.0,73.0
1075,260.115843375,260.33483525625,56.0,66.0
1076,260.115843375,260.54801319375,61.0,69.0
1077,260.580958875,260.79607479375,56.0,41.0
1078,261.04607437500005,261.2127407625,56.0,73.0
1079,261.04607437500005,261.387159075,65.0,73.0
1080,261.04607437500005,261.48599611875,61.0,64.0
1081,260.115843375,261.5538254625,49.0,67.0
1082,261.511189875,261.57901921875003,56.0,30.0
1083,261.97630537500004,262.20886312500005,58.0,57.0
1084,261.97630537500004,262.4142891375,63.0,76.0
1085,262.441420875,262.81157529375,58.0,46.0
1086,262.90653637500003,263.09064459375,66.0,67.0
1087,262.90653637500003,263.09452055625,63.0,64.0
1088,261.97630537500004,263.495682675,51.0,67.0
1089,263.836767375,264.06544916250004,58.0,57.0
1090,263.836767375,264.35614635,63.0,58.0
1091,263.836767375,264.84064166250005,51.0,52.0
1092,264.766998375,264.91040898750003,58.0,58.0
1093,264.766998375,265.08482730000003,66.0,87.0
1094,264.766998375,265.22629993125,63.0,64.0
1095,265.23211387500004,265.35033073125004,58.0,80.0
1096,265.697229375,266.18172468750004,56.0,71.0
1097,265.697229375,266.23017421875005,60.0,73.0
1098,266.627460375,266.81156859375,56.0,73.0
1099,266.627460375,266.95304122500005,60.0,87.0
1100,265.697229375,267.123583575,44.0,66.0
1101,267.092575875,267.30381583125,56.0,27.0
1102,267.54218752500003,267.97823330625005,61.0,78.0
1103,267.55187743125003,268.02086889375005,58.0,71.0
1104,267.54218752500003,268.81931716875005,46.0,78.0
1105,268.50148824375003,269.0576888625,61.0,80.0
1106,268.50536420625,269.05962684375004,58.0,58.0
1107,268.99373548125004,269.12164224375005,53.0,64.0
1108,269.99954775000003,270.98791818750004,65.0,44.0
1109,269.93171840625,270.999546075,61.0,44.0
1110,269.8290054,271.02861579375,58.0,43.0
1111,269.4879207,271.05574753125,46.0,29.0
1112,269.6855947875,271.07318936250005,53.0,51.0
