,start,end,pitch,velocity
0,24.416666666666668,24.65833333333333,63.0,56.0
1,24.666666666666668,24.90833333333333,63.0,62.0
2,24.916666666666668,25.15833333333333,72.0,70.0
3,25.166666666666668,25.40833333333333,72.0,69.0
4,25.416666666666668,25.65833333333333,72.0,63.0
5,25.666666666666668,25.90833333333333,70.0,66.0
6,25.916666666666668,26.65833333333333,70.0,62.0
7,26.666666666666668,26.90833333333333,72.0,61.0
8,26.916666666666668,28.40833333333333,63.0,55.0
9,28.416666666666668,28.65833333333333,60.0,53.0
10,28.666666666666668,28.90833333333333,63.0,70.0
11,28.916666666666668,29.15833333333333,70.0,61.0
12,29.166666666666668,29.40833333333333,68.0,55.0
13,29.416666666666668,29.65833333333333,68.0,58.0
14,29.666666666666668,29.90833333333333,68.0,59.0
15,29.916666666666668,30.15833333333333,67.0,59.0
16,30.166666666666668,30.65833333333333,68.0,59.0
17,30.666666666666668,30.90833333333333,67.0,43.0
18,30.916666666666668,32.15833333333333,65.0,45.0
19,32.166666666666664,32.40833333333333,65.0,59.0
20,32.416666666666664,32.65833333333333,68.0,69.0
21,32.666666666666664,32.90833333333333,65.0,57.0
22,32.916666666666664,33.40833333333333,75.0,73.0
23,33.416666666666664,33.90833333333333,73.0,80.0
24,33.916666666666664,34.40833333333333,72.0,66.0
25,34.416666666666664,34.65833333333333,72.0,63.0
26,34.666666666666664,34.90833333333333,73.0,59.0
27,34.916666666666664,35.40833333333333,72.0,66.0
28,35.416666666666664,36.40833333333333,70.0,58.0
29,36.416666666666664,36.65833333333333,70.0,59.0
30,36.666666666666664,36.90833333333333,65.0,54.0
31,36.916666666666664,37.15833333333333,67.0,60.0
32,37.166666666666664,37.65833333333333,67.0,60.0
33,37.666666666666664,37.90833333333333,70.0,58.0
34,37.916666666666664,38.15833333333333,70.0,59.0
35,38.166666666666664,38.40833333333333,65.0,54.0
36,38.416666666666664,38.65833333333333,67.0,61.0
37,38.666666666666664,38.90833333333333,65.0,52.0
38,38.916666666666664,40.15833333333333,63.0,49.0
39,40.166666666666664,40.40833333333333,63.0,63.0
40,40.416666666666664,40.65833333333333,63.0,85.0
41,40.666666666666664,40.90833333333333,63.0,82.0
42,40.916666666666664,41.15833333333333,72.0,70.0
43,41.166666666666664,41.40833333333333,72.0,69.0
44,41.416666666666664,41.65833333333333,72.0,63.0
45,41.666666666666664,41.90833333333333,70.0,66.0
46,41.916666666666664,42.65833333333333,70.0,62.0
47,42.666666666666664,42.90833333333333,72.0,61.0
48,42.916666666666664,44.15833333333333,63.0,55.0
49,44.166666666666664,44.40833333333333,60.0,55.0
50,44.416666666666664,44.65833333333333,63.0,53.0
51,44.666666666666664,44.90833333333333,60.0,70.0
52,44.916666666666664,45.40833333333333,70.0,61.0
53,45.416666666666664,45.90833333333333,68.0,55.0
54,45.916666666666664,46.40833333333333,67.0,59.0
55,46.416666666666664,46.65833333333333,67.0,59.0
56,46.666666666666664,46.90833333333333,68.0,43.0
57,46.916666666666664,47.40833333333333,67.0,45.0
58,47.416666666666664,48.15833333333333,65.0,45.0
59,48.166666666666664,48.40833333333333,65.0,59.0
60,48.416666666666664,48.65833333333333,68.0,69.0
61,48.666666666666664,48.90833333333333,65.0,57.0
62,48.916666666666664,49.40833333333333,75.0,73.0
63,49.416666666666664,49.65833333333333,73.0,80.0
64,49.666666666666664,49.90833333333333,73.0,80.0
65,49.916666666666664,50.65833333333333,72.0,66.0
66,50.666666666666664,50.90833333333333,73.0,59.0
67,50.916666666666664,51.40833333333333,72.0,66.0
68,51.416666666666664,52.40833333333333,70.0,58.0
69,52.416666666666664,52.65833333333333,70.0,59.0
70,52.666666666666664,52.90833333333333,65.0,54.0
71,52.916666666666664,53.15833333333333,67.0,60.0
72,53.166666666666664,53.40833333333333,67.0,60.0
73,53.416666666666664,53.65833333333333,67.0,60.0
74,53.666666666666664,53.90833333333333,70.0,58.0
75,53.916666666666664,54.15833333333333,70.0,59.0
76,54.166666666666664,54.40833333333333,65.0,54.0
77,54.416666666666664,54.65833333333333,67.0,61.0
78,54.666666666666664,54.90833333333333,65.0,52.0
79,54.916666666666664,55.15833333333333,70.0,49.0
80,55.166666666666664,55.40833333333333,68.0,49.0
81,55.416666666666664,56.90833333333333,68.0,49.0
82,58.416666666666664,58.74375,63.0,88.0
83,58.666666666666664,59.014583333333334,65.0,72.0
84,58.916666666666664,59.06458333333333,68.0,82.0
85,59.166666666666664,59.291666666666664,68.0,73.0
86,59.416666666666664,59.63125,68.0,88.0
87,59.666666666666664,59.9,70.0,78.0
88,59.916666666666664,60.33958333333333,72.0,63.0
89,60.166666666666664,60.33958333333333,72.0,97.0
90,60.666666666666664,60.81666666666666,75.0,91.0
91,60.916666666666664,61.979166666666664,75.0,76.0
92,62.416666666666664,62.583333333333336,72.0,93.0
93,62.666666666666664,62.891666666666666,75.0,70.0
94,62.916666666666664,63.05833333333333,77.0,70.0
95,63.166666666666664,63.291666666666664,77.0,75.0
96,63.416666666666664,63.59166666666667,77.0,85.0
97,63.666666666666664,63.8375,75.0,80.0
98,63.916666666666664,64.27708333333334,77.0,95.0
99,64.41666666666667,64.725,72.0,78.0
100,64.66666666666667,64.77916666666667,75.0,74.0
101,64.91666666666667,65.35208333333333,72.0,91.0
102,65.41666666666667,65.73333333333333,65.0,72.0
103,65.91666666666667,66.40208333333334,68.0,67.0
104,66.91666666666667,67.58333333333333,70.0,74.0
105,70.41666666666667,70.65833333333333,70.0,97.0
106,70.66666666666667,70.90833333333333,72.0,78.0
107,70.91666666666667,71.15833333333333,75.0,63.0
108,71.16666666666667,71.40833333333333,75.0,67.0
109,71.41666666666667,71.65833333333333,75.0,75.0
110,71.66666666666667,71.90833333333333,72.0,78.0
111,71.91666666666667,72.15833333333333,70.0,88.0
112,72.16666666666667,72.65833333333333,72.0,88.0
113,72.66666666666667,72.90833333333333,67.0,78.0
114,72.91666666666667,74.40833333333333,65.0,95.0
115,74.41666666666667,74.65833333333333,70.0,95.0
116,74.66666666666667,74.90833333333333,65.0,64.0
117,74.91666666666667,75.15833333333333,67.0,67.0
118,75.16666666666667,75.65833333333333,67.0,69.0
119,75.66666666666667,75.90833333333333,70.0,69.0
120,75.91666666666667,76.15833333333333,70.0,58.0
121,76.16666666666667,76.40833333333333,65.0,67.0
122,76.41666666666667,76.65833333333333,67.0,75.0
123,76.66666666666667,76.90833333333333,65.0,64.0
124,76.91666666666667,77.40833333333333,65.0,70.0
125,77.41666666666667,78.73333333333333,63.0,70.0
126,78.41666666666667,78.73333333333333,63.0,76.0
127,78.66666666666667,78.86458333333333,65.0,75.0
128,78.91666666666667,79.05416666666666,68.0,72.0
129,79.16666666666667,79.2875,68.0,72.0
130,79.41666666666667,79.61458333333333,68.0,88.0
131,79.66666666666667,79.8375,70.0,78.0
132,79.91666666666667,80.0375,72.0,99.0
133,80.16666666666667,80.575,72.0,80.0
134,80.66666666666667,80.80416666666666,75.0,88.0
135,80.91666666666667,81.08333333333333,77.0,70.0
136,81.41666666666667,82.16666666666667,75.0,88.0
137,82.41666666666667,82.59166666666667,72.0,80.0
138,82.66666666666667,82.92291666666667,75.0,66.0
139,82.91666666666667,83.07916666666667,77.0,70.0
140,83.16666666666667,83.3125,77.0,72.0
141,83.41666666666667,83.59791666666666,77.0,80.0
142,83.66666666666667,83.89791666666666,75.0,82.0
143,83.91666666666667,84.15416666666667,77.0,91.0
144,84.41666666666667,84.66041666666666,72.0,82.0
145,84.66666666666667,84.92708333333333,75.0,64.0
146,84.91666666666667,85.26458333333333,72.0,80.0
147,85.41666666666667,86.00833333333333,65.0,91.0
148,85.91666666666667,86.00833333333333,65.0,80.0
149,86.41666666666667,87.00833333333333,68.0,80.0
150,86.91666666666667,89.51875,70.0,80.0
151,90.41666666666667,90.59583333333333,70.0,95.0
152,90.66666666666667,90.85208333333333,72.0,78.0
153,90.91666666666667,91.04791666666667,75.0,82.0
154,91.16666666666667,91.28333333333333,75.0,78.0
155,91.41666666666667,91.59791666666666,75.0,75.0
156,91.66666666666667,91.87083333333334,72.0,82.0
157,91.91666666666667,92.09791666666666,70.0,95.0
158,92.16666666666667,92.5,72.0,85.0
159,92.66666666666667,92.93958333333333,67.0,69.0
160,93.16666666666667,93.67083333333333,65.0,59.0
161,94.41666666666667,94.66875,63.0,85.0
162,94.66666666666667,94.85,65.0,70.0
163,94.91666666666667,95.35416666666667,75.0,80.0
164,95.41666666666667,95.87291666666667,72.0,93.0
165,95.91666666666667,96.02083333333333,70.0,101.0
166,96.16666666666667,96.51041666666667,70.0,93.0
167,96.66666666666667,96.98333333333333,72.0,73.0
168,96.91666666666667,97.21458333333334,70.0,76.0
169,97.16666666666667,97.36875,68.0,60.0
170,97.41666666666667,98.23333333333333,65.0,62.0
171,98.41666666666667,98.92083333333333,70.0,59.0
172,98.91666666666667,100.47291666666666,68.0,59.0
173,134.41666666666666,134.65833333333333,63.0,56.0
174,134.66666666666666,134.90833333333333,63.0,62.0
175,134.91666666666666,135.15833333333333,72.0,70.0
176,135.16666666666666,135.40833333333333,72.0,69.0
177,135.41666666666666,135.65833333333333,72.0,63.0
178,135.66666666666666,135.90833333333333,70.0,66.0
179,135.91666666666666,136.65833333333333,70.0,62.0
180,136.66666666666666,136.90833333333333,72.0,61.0
181,136.91666666666666,138.40833333333333,63.0,55.0
182,138.41666666666666,138.65833333333333,60.0,53.0
183,138.66666666666666,138.90833333333333,63.0,70.0
184,138.91666666666666,139.15833333333333,70.0,61.0
185,139.16666666666666,139.40833333333333,68.0,55.0
186,139.41666666666666,139.65833333333333,68.0,58.0
187,139.66666666666666,139.90833333333333,68.0,59.0
188,139.91666666666666,140.15833333333333,67.0,59.0
189,140.16666666666666,140.65833333333333,68.0,59.0
190,140.66666666666666,140.90833333333333,67.0,43.0
191,140.91666666666666,142.15833333333333,65.0,45.0
192,142.16666666666666,142.40833333333333,65.0,59.0
193,142.41666666666666,142.65833333333333,68.0,69.0
194,142.66666666666666,142.90833333333333,65.0,57.0
195,142.91666666666666,143.40833333333333,75.0,73.0
196,143.41666666666666,143.90833333333333,73.0,80.0
197,143.91666666666666,144.40833333333333,72.0,66.0
198,144.41666666666666,144.65833333333333,72.0,63.0
199,144.66666666666666,144.90833333333333,73.0,59.0
200,144.91666666666666,145.40833333333333,72.0,66.0
201,145.41666666666666,146.40833333333333,70.0,58.0
202,146.41666666666666,146.65833333333333,70.0,59.0
203,146.66666666666666,146.90833333333333,65.0,54.0
204,146.91666666666666,147.15833333333333,67.0,60.0
205,147.16666666666666,147.65833333333333,67.0,60.0
206,147.66666666666666,147.90833333333333,70.0,58.0
207,147.91666666666666,148.15833333333333,70.0,59.0
208,148.16666666666666,148.40833333333333,65.0,54.0
209,148.41666666666666,148.65833333333333,67.0,61.0
210,148.66666666666666,148.90833333333333,65.0,52.0
211,148.91666666666666,150.15924355,63.0,49.0
212,150.16764690000002,150.41134405000003,63.0,63.0
213,150.4197474,150.66344455,63.0,85.0
214,150.67184790000002,150.91554505000002,63.0,82.0
215,150.9239484,151.16638525000002,72.0,70.0
216,151.17471858333334,151.41638525000002,72.0,69.0
217,151.42471858333334,151.66638525000002,72.0,63.0
218,151.67471858333334,151.91638525000002,70.0,66.0
219,151.92471858333334,152.66638525000002,70.0,62.0
220,152.67471858333334,152.91638525000002,72.0,61.0
221,152.92471858333334,154.16638525000002,63.0,55.0
222,154.17471858333334,154.41638525000002,60.0,55.0
223,154.42471858333334,154.66638525000002,63.0,53.0
224,154.67471858333334,154.91638525000002,60.0,70.0
225,154.92471858333334,155.41638525000002,70.0,61.0
226,155.42471858333334,155.91638525000002,68.0,55.0
227,155.92471858333334,156.41638525000002,67.0,59.0
228,156.42471858333334,156.66638525000002,67.0,59.0
229,156.67471858333334,156.91638525000002,68.0,43.0
230,156.92471858333334,157.41638525000002,67.0,45.0
231,157.42471858333334,158.16638525000002,65.0,45.0
232,158.17471858333334,158.41638525000002,65.0,59.0
233,158.42471858333334,158.66638525000002,68.0,69.0
234,158.67471858333334,158.91638525000002,65.0,57.0
235,158.92471858333334,159.41638525000002,75.0,73.0
236,159.42471858333334,159.66638525000002,73.0,80.0
237,159.67471858333334,159.91638525000002,73.0,80.0
238,159.92471858333334,160.66638525000002,72.0,66.0
239,160.67471858333334,160.91638525000002,73.0,59.0
240,160.92471858333334,161.41638525000002,72.0,66.0
241,161.42471858333334,162.41638525000002,70.0,58.0
242,162.42471858333334,162.66638525000002,70.0,59.0
243,162.67471858333334,162.91638525000002,65.0,54.0
244,162.92471858333334,163.16638525000002,67.0,60.0
245,163.17471858333334,163.41638525000002,67.0,60.0
246,163.42471858333334,163.66638525000002,67.0,60.0
247,163.67471858333334,163.91638525000002,70.0,58.0
248,163.92471858333334,164.16638525000002,70.0,59.0
249,164.17471858333334,164.41638525000002,65.0,54.0
250,164.42471858333334,164.66638525000002,67.0,61.0
251,164.67471858333334,164.91638525000002,65.0,52.0
252,164.92471858333334,165.16638525000002,70.0,49.0
253,165.17471858333334,165.41638525000002,68.0,49.0
254,165.42471858333334,166.91638525000002,68.0,49.0
255,168.4295971875,168.7608207416667,63.0,88.0
256,168.68276168750003,169.03508228333337,65.0,72.0
257,168.93592618750003,169.08571518333335,68.0,82.0
258,169.18909068750003,169.3156729375,68.0,73.0
259,169.44225518750002,169.6595547166667,68.0,88.0
260,169.69541968750002,169.93170655416668,70.0,78.0
261,169.94858418750002,170.37685413333335,72.0,63.0
262,170.20174868750001,170.37685413333335,72.0,97.0
263,170.7080776875,170.8599763875,75.0,91.0
264,170.96124218750003,172.03719131250003,75.0,76.0
265,172.48022918750002,172.64900552083336,72.0,93.0
266,172.7333936875,172.96124173750002,75.0,70.0
267,172.9865581875,173.13001807083336,77.0,70.0
268,173.23972268750003,173.36630493750002,77.0,75.0
269,173.49288718750003,173.67010233750003,77.0,85.0
270,173.74605168750003,173.91904742916668,75.0,80.0
271,173.99921618750002,174.36419500833335,77.0,95.0
272,174.50554518750002,174.81778140416668,72.0,78.0
273,174.75870968750002,174.87263371250003,75.0,74.0
274,175.0118741875,175.45280235833334,72.0,91.0
275,175.51820318750003,175.83887822083335,65.0,72.0
276,176.02453218750003,176.51609325833334,68.0,67.0
277,177.03719018750002,179.0962614541667,70.0,74.0
278,180.5776694166667,180.81933608333335,70.0,97.0
279,180.8276694166667,181.06933608333335,72.0,78.0
280,181.0776694166667,181.31899175000004,75.0,63.0
281,181.32725621666668,181.56692575000002,75.0,67.0
282,181.5751902166667,181.81485975000004,75.0,75.0
283,181.82312421666668,182.06279375000003,72.0,78.0
284,182.0710582166667,182.31072775000004,70.0,88.0
285,182.3189922166667,182.80659575000004,72.0,88.0
286,182.8148602166667,183.05452975000003,67.0,78.0
287,183.0627942166667,184.54213375000003,65.0,95.0
288,184.5503982166667,184.79006775000002,70.0,95.0
289,184.7983322166667,185.03800175000003,65.0,64.0
290,185.0462662166667,185.28593575000002,67.0,67.0
291,185.2942002166667,185.78180375000002,67.0,69.0
292,185.7900682166667,186.02973775000004,70.0,69.0
293,186.0380022166667,186.27767175000002,70.0,58.0
294,186.2859362166667,186.52560575000004,65.0,67.0
295,186.53387021666668,186.77353975000003,67.0,75.0
296,186.7818042166667,187.02147375000004,65.0,64.0
297,187.0297382166667,187.51734175000004,65.0,70.0
298,187.5256062166667,188.83139195000004,63.0,70.0
299,188.5173422166667,188.83139195000004,63.0,76.0
300,188.7652762166667,188.96155730000004,65.0,75.0
301,189.0132102166667,189.1495739166667,68.0,72.0
302,189.2611442166667,189.38097898333336,68.0,72.0
303,189.5090782166667,189.70535930000003,68.0,88.0
304,189.7570122166667,189.92643378333338,70.0,78.0
305,190.0049462166667,190.12478098333335,72.0,99.0
306,190.2528802166667,190.65783908333336,72.0,80.0
307,190.74874821666668,190.8851119166667,75.0,88.0
308,190.9966822166667,191.16197155000003,77.0,70.0
309,191.4925502166667,192.2363522166667,75.0,88.0
310,192.4842862166667,192.6578400166667,72.0,80.0
311,192.7322202166667,192.9863525666667,75.0,66.0
312,192.9801542166667,193.1413113166667,77.0,70.0
313,193.2280882166667,193.37271638333337,77.0,72.0
314,193.4760222166667,193.6557743666667,77.0,80.0
315,193.7239562166667,193.9532951666667,75.0,82.0
316,193.9718902166667,194.2074275166667,77.0,91.0
317,194.4677582166667,194.7094938666667,72.0,82.0
318,194.7156922166667,194.97395680000002,75.0,64.0
319,194.9636262166667,195.30866770000003,72.0,80.0
320,195.4594942166667,196.04627135000004,65.0,91.0
321,195.95536221666669,196.04627135000004,65.0,80.0
322,196.4512302166667,197.03800735000004,68.0,80.0
323,196.9470982166667,197.53387535000005,70.0,80.0
324,200.51941393333337,200.6970999666667,70.0,95.0
325,200.76734793333335,200.9512323166667,72.0,78.0
326,201.01528193333337,201.14544728333337,75.0,82.0
327,201.26321593333336,201.3789184666667,75.0,78.0
328,201.51114993333337,201.69090208333336,75.0,75.0
329,201.75908393333336,201.9615633666667,72.0,82.0
330,202.00701793333337,202.18677008333336,70.0,95.0
331,202.25495193333336,202.58553060000003,72.0,85.0
332,202.75081993333336,203.0214812166667,67.0,69.0
333,203.24668793333336,203.7466881666667,65.0,59.0
334,204.48635793333335,204.73635805000004,63.0,85.0
335,204.73429193333337,204.91611020000005,65.0,70.0
336,204.98222593333338,205.41611043333336,75.0,80.0
337,205.47809393333335,205.93057348333338,72.0,93.0
338,205.97396193333336,206.0772677666667,70.0,101.0
339,206.22189593333337,206.56280518333335,70.0,93.0
340,206.71776393333337,207.0318136666667,72.0,73.0
341,206.96569793333336,207.2611526166667,70.0,76.0
342,207.21363193333337,207.41404525000004,68.0,60.0
343,207.46156593333336,207.68057430000005,65.0,62.0
344,208.45330193333336,208.9533021666667,70.0,59.0
345,208.94916993333337,209.4491701666667,68.0,59.0
346,212.42889142083337,212.75872290833337,63.0,88.0
347,212.68099192083335,213.03183178333336,65.0,72.0
348,212.93309242083336,213.08225188333336,68.0,82.0
349,213.18519292083337,213.31124317083336,68.0,73.0
350,213.43729342083336,213.65367968333337,68.0,88.0
351,213.68939392083337,213.92468772083336,70.0,78.0
352,213.94149442083335,214.36796443333336,72.0,63.0
353,214.19359492083336,214.36796443333336,72.0,97.0
354,214.69779592083336,214.84905622083335,75.0,91.0
355,214.94989642083337,216.02132354583335,75.0,76.0
356,216.46249942083335,216.63056642083336,72.0,93.0
357,216.71459992083336,216.94149037083335,75.0,70.0
358,216.96670042083335,217.10955737083336,77.0,70.0
359,217.21880092083336,217.34485117083335,77.0,75.0
360,217.47090142083337,217.64737177083336,77.0,85.0
361,217.72300192083335,217.89527059583335,75.0,80.0
362,217.97510242083337,218.33854730833335,77.0,95.0
363,218.47930342083336,218.79022737083335,72.0,78.0
364,218.73140392083337,218.84484914583336,75.0,74.0
365,218.98350442083336,219.42257945833336,72.0,91.0
366,219.48770542083335,219.80703272083335,65.0,72.0
367,219.99190642083335,220.48140155833335,68.0,67.0
368,221.00030842083336,221.67257642083337,70.0,74.0
369,224.5177668979167,224.75743643125003,70.0,97.0
370,224.7657008979167,225.00537043125004,72.0,78.0
371,225.0136348979167,225.25330443125003,75.0,63.0
372,225.2615688979167,225.50123843125004,75.0,67.0
373,225.5095028979167,225.74917243125003,75.0,75.0
374,225.7574368979167,225.99710643125005,72.0,78.0
375,226.0053708979167,226.24504043125003,70.0,88.0
376,226.2533048979167,226.74090843125003,72.0,88.0
377,226.7491728979167,226.98884243125002,67.0,78.0
378,226.9971068979167,228.47644643125003,65.0,95.0
379,228.4847108979167,228.72438043125004,70.0,95.0
380,228.7326448979167,228.97231443125003,65.0,64.0
381,228.9805788979167,229.22024843125004,67.0,67.0
382,229.2285128979167,229.71611643125004,67.0,69.0
383,229.7243808979167,229.96405043125003,70.0,69.0
384,229.9723148979167,230.21198443125004,70.0,58.0
385,230.2202488979167,230.45991843125003,65.0,67.0
386,230.4681828979167,230.70785243125005,67.0,75.0
387,230.7161168979167,230.95578643125003,65.0,64.0
388,230.9640508979167,231.45165443125003,65.0,70.0
389,231.4599188979167,232.76570463125003,63.0,70.0
390,232.4516548979167,232.76570463125003,63.0,76.0
391,232.6995888979167,232.89586998125003,65.0,75.0
392,232.9475228979167,233.0838865979167,68.0,72.0
393,233.1954568979167,233.31529166458336,68.0,72.0
394,233.44339089791671,233.63967198125005,68.0,88.0
395,233.6913248979167,233.86074646458337,70.0,78.0
396,233.9395713854167,234.06141996041669,72.0,99.0
397,234.1916718854167,234.6034360354167,72.0,80.0
398,234.6958728854167,234.8345281604167,75.0,88.0
399,234.9479733854167,235.1160403854167,77.0,70.0
400,235.4521743854167,236.2084758854167,75.0,88.0
401,236.4605763854167,236.6370467354167,72.0,80.0
402,236.7126768854167,236.9710798979167,75.0,66.0
403,236.9647773854167,237.1286427104167,77.0,70.0
404,237.2168778854167,237.3639365104167,77.0,72.0
405,237.4689783854167,237.6517512479167,77.0,80.0
406,237.7210788854167,237.9542718479167,75.0,82.0
407,237.9731793854167,238.2126748604167,77.0,91.0
408,238.4773803854167,238.7231783729167,72.0,82.0
409,238.7294808854167,238.9920855729167,75.0,64.0
410,238.9815813854167,239.3324212479167,72.0,80.0
411,239.4857823854167,240.0824202354167,65.0,91.0
412,239.9899833854167,240.0824202354167,65.0,80.0
413,240.4941843854167,241.0908222354167,68.0,80.0
414,240.9983853854167,241.5950232354167,70.0,80.0
415,244.5277923854167,244.7084644104167,70.0,95.0
416,244.7798928854167,244.9668674229167,72.0,78.0
417,245.0319933854167,245.1643461479167,75.0,82.0
418,245.2840938854167,245.4017407854167,75.0,78.0
419,245.5361943854167,245.7189672479167,75.0,75.0
420,245.7882948854167,245.9941769604167,72.0,82.0
421,246.0403953854167,246.2231682479167,70.0,95.0
422,246.2924958854167,246.6286298854167,72.0,85.0
423,246.7966968854167,247.0719065979167,67.0,69.0
424,247.3008978854167,247.8093005604167,65.0,59.0
425,248.5614003854167,248.8156017229167,63.0,85.0
426,248.81350088541672,248.9983745854167,65.0,70.0
427,249.0656013854167,249.5067772604167,75.0,80.0
428,249.5698023854167,250.0298857979167,72.0,93.0
429,250.0740033854167,250.1790452604167,70.0,101.0
430,250.3261038854167,250.6727420729167,70.0,93.0
431,250.8303048854167,251.1496321854167,72.0,73.0
432,251.0824053854167,251.3828251479167,70.0,76.0
433,251.3345058854167,251.5382871229167,68.0,60.0
434,251.5866063854167,251.8092951604167,65.0,62.0
435,252.5950083854167,253.1034110604167,70.0,59.0
436,253.0992093854167,253.6076120604167,68.0,59.0
437,256.6120449145834,256.8957031208334,63.0,73.0
438,256.8621079145834,257.0513514833334,65.0,67.0
439,257.1144521708334,257.6360845208334,75.0,73.0
440,257.6192576708334,258.01501635416673,72.0,80.0
441,258.1246530458334,258.48729748750003,70.0,64.0
442,258.6306685458334,258.8984553729167,70.0,63.0
443,258.88367629583337,259.22604335208337,72.0,69.0
444,259.2006817020834,259.84529030625004,70.0,64.0
445,259.8685384854167,260.9702253500001,65.0,73.0
446,263.30403382291667,264.23720410833334,70.0,69.0
447,264.2842667375,265.46621160416663,68.0,91.0
