,start,end,pitch,velocity
0,1.1666666666666667,1.875,56.0,67.0
1,2.1666666666666665,2.875,60.0,67.0
2,2.4166666666666665,3.125,63.0,67.0
3,3.6666666666666665,4.416666666666667,55.0,67.0
4,3.9166666666666665,4.666666666666667,60.0,67.0
5,3.1666666666666665,4.916666666666667,48.0,67.0
6,5.166666666666667,5.916666666666667,53.0,67.0
7,6.166666666666667,6.916666666666667,56.0,67.0
8,7.416666666666667,7.929166666666666,65.0,51.0
9,6.916666666666667,8.447916666666666,49.0,66.0
10,7.916666666666667,8.59375,61.0,54.0
11,7.916666666666667,8.59375,68.0,52.0
12,7.666666666666667,8.735416666666666,56.0,50.0
13,8.916666666666666,10.427083333333334,46.0,69.0
14,9.416666666666666,10.897916666666667,53.0,44.0
15,9.666666666666666,11.027083333333334,56.0,49.0
16,10.916666666666666,12.177083333333334,51.0,69.0
17,11.666666666666666,12.502083333333333,55.0,46.0
18,11.916666666666666,12.514583333333333,56.0,60.0
19,12.916666666666666,13.49375,48.0,78.0
20,13.166666666666666,13.5125,55.0,62.0
21,13.416666666666666,13.7625,60.0,66.0
22,13.666666666666666,14.518749999999999,63.0,95.0
23,14.170833333333333,14.522916666666667,67.0,76.0
24,15.416666666666666,16.09583333333333,60.0,63.0
25,15.166666666666666,16.34375,56.0,67.0
26,14.916666666666666,16.50625,53.0,76.0
27,15.666666666666666,16.514583333333334,63.0,73.0
28,16.166666666666668,16.5875,60.0,60.0
29,16.416666666666668,16.74375,56.0,63.0
30,16.666666666666668,16.991666666666667,63.0,67.0
31,17.416666666666668,17.922916666666666,55.0,60.0
32,17.166666666666668,18.28333333333333,51.0,60.0
33,17.666666666666668,18.65833333333333,60.0,72.0
34,16.916666666666668,18.670833333333334,48.0,82.0
35,18.166666666666668,18.789583333333333,55.0,40.0
36,18.666666666666668,18.920833333333334,51.0,58.0
37,18.916666666666668,19.4875,46.0,76.0
38,19.166666666666668,19.491666666666667,53.0,66.0
39,19.416666666666668,19.810416666666665,56.0,63.0
40,19.666666666666668,19.914583333333333,60.0,57.0
41,19.916666666666668,20.375,65.0,91.0
42,19.916666666666668,20.64375,51.0,75.0
43,20.166666666666668,20.677083333333332,55.0,60.0
44,20.416666666666668,20.739583333333332,58.0,59.0
45,20.666666666666668,20.972916666666666,63.0,66.0
46,21.166666666666668,21.4,58.0,73.0
47,21.416666666666668,22.72083333333333,60.0,51.0
48,20.916666666666668,22.789583333333333,56.0,76.0
49,21.666666666666668,23.225,63.0,49.0
50,24.916666666666668,25.566666666666666,68.0,69.0
51,24.916666666666668,25.575,63.0,63.0
52,24.916666666666668,25.585416666666667,60.0,61.0
53,24.916666666666668,26.275,56.0,64.0
54,25.916666666666668,26.322916666666668,68.0,61.0
55,24.916666666666668,26.329166666666666,44.0,64.0
56,25.916666666666668,26.341666666666665,60.0,59.0
57,25.916666666666668,26.3625,63.0,66.0
58,26.916666666666668,27.43958333333333,67.0,54.0
59,26.916666666666668,27.4625,58.0,55.0
60,26.916666666666668,27.479166666666668,63.0,57.0
61,26.916666666666668,28.179166666666667,55.0,59.0
62,27.916666666666668,28.21875,67.0,46.0
63,27.916666666666668,28.2375,63.0,47.0
64,27.916666666666668,28.25208333333333,58.0,44.0
65,26.916666666666668,28.287499999999998,43.0,60.0
66,28.916666666666668,29.360416666666666,56.0,55.0
67,28.916666666666668,29.37708333333333,60.0,61.0
68,28.916666666666668,29.414583333333333,65.0,47.0
69,29.916666666666668,30.412499999999998,65.0,45.0
70,29.916666666666668,30.416666666666668,60.0,42.0
71,29.916666666666668,30.427083333333332,56.0,37.0
72,28.916666666666668,31.43958333333333,53.0,51.0
73,30.916666666666668,31.47083333333333,65.0,33.0
74,30.916666666666668,31.4875,56.0,35.0
75,30.916666666666668,31.4875,60.0,41.0
76,31.666666666666668,32.08541666666667,53.0,24.0
77,28.916666666666668,32.09166666666667,41.0,58.0
78,31.916666666666668,32.302083333333336,65.0,78.0
79,31.916666666666668,32.3375,56.0,73.0
80,31.916666666666668,32.34375,60.0,82.0
81,32.416666666666664,32.49791666666667,53.0,54.0
82,32.416666666666664,32.52291666666667,41.0,55.0
83,32.916666666666664,33.395833333333336,65.0,64.0
84,32.916666666666664,33.49791666666667,56.0,67.0
85,32.916666666666664,33.5,61.0,69.0
86,33.916666666666664,34.3625,65.0,60.0
87,33.916666666666664,34.38125,61.0,53.0
88,33.916666666666664,34.38333333333333,56.0,54.0
89,32.916666666666664,34.55833333333333,49.0,64.0
90,32.916666666666664,34.59166666666667,37.0,62.0
91,34.916666666666664,35.422916666666666,65.0,56.0
92,34.916666666666664,35.44583333333333,61.0,59.0
93,34.916666666666664,35.4625,56.0,57.0
94,34.916666666666664,36.25625,34.0,49.0
95,35.916666666666664,36.27291666666667,61.0,61.0
96,35.916666666666664,36.27291666666667,65.0,59.0
97,35.916666666666664,36.291666666666664,56.0,57.0
98,34.916666666666664,36.32083333333333,46.0,47.0
99,36.916666666666664,37.3625,63.0,42.0
100,36.916666666666664,37.37291666666667,58.0,44.0
101,36.916666666666664,37.40208333333333,55.0,46.0
102,37.916666666666664,38.28333333333333,63.0,43.0
103,37.916666666666664,38.40208333333333,55.0,43.0
104,37.916666666666664,38.416666666666664,58.0,48.0
105,36.916666666666664,39.2375,51.0,44.0
106,38.916666666666664,39.35625,63.0,37.0
107,38.916666666666664,39.46875,58.0,47.0
108,38.916666666666664,39.52291666666667,55.0,40.0
109,39.666666666666664,39.979166666666664,51.0,55.0
110,36.916666666666664,40.010416666666664,39.0,38.0
111,39.916666666666664,40.175,63.0,75.0
112,39.916666666666664,40.2,55.0,78.0
113,39.916666666666664,40.21875,58.0,76.0
114,40.166666666666664,40.27916666666667,51.0,55.0
115,40.166666666666664,40.34166666666667,39.0,61.0
116,40.416666666666664,40.552083333333336,55.0,54.0
117,40.916666666666664,41.4875,58.0,70.0
118,40.916666666666664,41.541666666666664,63.0,64.0
119,40.916666666666664,41.579166666666666,60.0,73.0
120,40.916666666666664,42.04375,56.0,63.0
121,41.916666666666664,42.39791666666667,63.0,61.0
122,41.916666666666664,42.43333333333333,58.0,54.0
123,40.916666666666664,42.45625,44.0,60.0
124,41.916666666666664,42.458333333333336,60.0,55.0
125,42.416666666666664,42.53333333333333,56.0,40.0
126,42.916666666666664,43.50625,63.0,56.0
127,42.916666666666664,43.547916666666666,58.0,58.0
128,42.916666666666664,43.5625,67.0,60.0
129,42.916666666666664,44.045833333333334,55.0,51.0
130,43.916666666666664,44.25,67.0,48.0
131,43.916666666666664,44.2875,58.0,53.0
132,43.916666666666664,44.302083333333336,63.0,56.0
133,42.916666666666664,44.525,43.0,54.0
134,44.416666666666664,44.56666666666666,55.0,40.0
135,44.916666666666664,45.39791666666667,60.0,73.0
136,44.916666666666664,45.40625,63.0,67.0
137,44.666666666666664,45.47291666666666,56.0,40.0
138,45.166666666666664,46.12291666666667,53.0,7.0
139,45.916666666666664,46.27916666666667,63.0,59.0
140,44.916666666666664,46.33541666666667,41.0,72.0
141,45.916666666666664,46.34791666666666,60.0,57.0
142,45.916666666666664,46.358333333333334,56.0,48.0
143,46.916666666666664,47.24583333333333,63.0,37.0
144,46.916666666666664,47.34791666666666,60.0,44.0
145,46.916666666666664,47.37708333333333,56.0,34.0
146,47.666666666666664,48.014583333333334,53.0,36.0
147,47.666666666666664,48.05,41.0,44.0
148,47.916666666666664,48.172916666666666,56.0,73.0
149,47.916666666666664,48.175,63.0,61.0
150,47.916666666666664,48.17916666666667,60.0,82.0
151,48.166666666666664,48.325,53.0,53.0
152,48.166666666666664,48.364583333333336,41.0,62.0
153,48.416666666666664,48.608333333333334,56.0,56.0
154,48.666666666666664,48.858333333333334,58.0,50.0
155,48.916666666666664,49.39791666666667,61.0,75.0
156,48.916666666666664,49.475,53.0,75.0
157,48.916666666666664,49.510416666666664,56.0,64.0
158,48.916666666666664,50.06041666666667,49.0,72.0
159,48.916666666666664,50.09166666666667,37.0,51.0
160,49.916666666666664,50.41875,61.0,56.0
161,49.916666666666664,50.46666666666667,56.0,64.0
162,49.916666666666664,50.47291666666666,53.0,54.0
163,50.416666666666664,50.547916666666666,48.0,43.0
164,50.416666666666664,50.58958333333333,36.0,32.0
165,50.916666666666664,51.43125,61.0,58.0
166,50.916666666666664,51.579166666666666,53.0,51.0
167,50.916666666666664,51.59583333333333,56.0,61.0
168,50.916666666666664,52.047916666666666,46.0,44.0
169,51.916666666666664,52.37916666666666,61.0,67.0
170,50.916666666666664,52.395833333333336,34.0,63.0
171,51.916666666666664,52.43125,56.0,73.0
172,51.916666666666664,52.475,53.0,67.0
173,52.416666666666664,52.53125,46.0,53.0
174,52.916666666666664,53.579166666666666,58.0,70.0
175,52.916666666666664,53.67916666666667,63.0,57.0
176,52.916666666666664,53.71041666666667,55.0,69.0
177,52.916666666666664,54.052083333333336,51.0,62.0
178,53.916666666666664,54.32083333333333,63.0,67.0
179,53.916666666666664,54.3625,55.0,69.0
180,53.916666666666664,54.37916666666666,58.0,73.0
181,52.916666666666664,54.43125,39.0,70.0
182,54.416666666666664,54.545833333333334,51.0,42.0
183,54.916666666666664,55.260416666666664,63.0,64.0
184,54.916666666666664,55.28125,60.0,59.0
185,54.916666666666664,55.31875,68.0,62.0
186,55.916666666666664,56.12916666666666,58.0,45.0
187,55.916666666666664,56.208333333333336,60.0,48.0
188,55.916666666666664,56.21666666666667,63.0,49.0
189,55.916666666666664,56.297916666666666,68.0,48.0
190,56.77916666666667,56.97083333333333,80.0,55.0
191,56.833333333333336,57.13333333333333,84.0,45.0
192,56.916666666666664,57.15208333333333,87.0,33.0
193,56.708333333333336,57.28333333333333,75.0,48.0
194,56.416666666666664,57.670833333333334,56.0,38.0
195,54.916666666666664,57.75833333333333,44.0,64.0
196,57.916666666666664,58.020833333333336,63.0,62.0
197,57.916666666666664,58.05416666666667,55.0,72.0
198,57.916666666666664,58.09791666666666,51.0,52.0
199,57.916666666666664,58.09791666666666,58.0,73.0
200,57.916666666666664,58.11666666666667,39.0,66.0
201,58.166666666666664,58.3375,53.0,62.0
202,58.166666666666664,58.391666666666666,56.0,67.0
203,58.166666666666664,58.44375,41.0,61.0
204,58.416666666666664,58.547916666666666,58.0,73.0
205,58.416666666666664,58.56458333333333,43.0,78.0
206,58.416666666666664,58.5875,55.0,62.0
207,58.666666666666664,58.8375,60.0,62.0
208,58.916666666666664,59.324999999999996,44.0,76.0
209,58.916666666666664,59.43125,60.0,78.0
210,58.916666666666664,59.44375,51.0,88.0
211,58.916666666666664,59.458333333333336,56.0,76.0
212,58.916666666666664,59.479166666666664,63.0,62.0
213,59.666666666666664,60.11666666666667,44.0,40.0
214,59.916666666666664,60.34791666666666,51.0,76.0
215,58.916666666666664,60.375,32.0,63.0
216,59.916666666666664,60.40625,63.0,66.0
217,59.916666666666664,60.41041666666666,60.0,72.0
218,59.916666666666664,60.425,56.0,80.0
219,60.416666666666664,60.50833333333333,44.0,52.0
220,60.916666666666664,61.610416666666666,58.0,73.0
221,60.916666666666664,61.668749999999996,63.0,75.0
222,60.916666666666664,61.670833333333334,55.0,76.0
223,60.916666666666664,62.34583333333333,36.0,73.0
224,61.916666666666664,62.39791666666667,63.0,75.0
225,60.916666666666664,62.40416666666667,48.0,66.0
226,61.916666666666664,62.43541666666667,55.0,76.0
227,61.916666666666664,62.452083333333334,58.0,75.0
228,62.916666666666664,63.52291666666667,61.0,73.0
229,62.916666666666664,63.61875,56.0,72.0
230,62.916666666666664,63.672916666666666,65.0,64.0
231,62.916666666666664,63.770833333333336,68.0,62.0
232,62.916666666666664,64.1875,49.0,55.0
233,63.916666666666664,64.35416666666667,68.0,54.0
234,63.916666666666664,64.375,56.0,69.0
235,63.916666666666664,64.38333333333333,61.0,73.0
236,62.916666666666664,64.41041666666666,37.0,63.0
237,63.916666666666664,64.41666666666667,65.0,67.0
238,64.41666666666667,64.52916666666667,49.0,55.0
239,64.91666666666667,65.5,60.0,62.0
240,64.91666666666667,65.5,63.0,63.0
241,64.91666666666667,65.50833333333333,65.0,67.0
242,64.91666666666667,65.59791666666666,68.0,62.0
243,64.91666666666667,66.23125,41.0,49.0
244,64.91666666666667,66.28333333333333,53.0,55.0
245,65.91666666666667,66.28958333333333,68.0,59.0
246,65.91666666666667,66.33333333333333,63.0,66.0
247,65.91666666666667,66.33333333333333,65.0,67.0
248,65.91666666666667,66.34583333333333,60.0,63.0
249,66.91666666666667,67.44166666666666,65.0,64.0
250,66.91666666666667,67.44583333333333,61.0,70.0
251,66.91666666666667,67.4625,58.0,64.0
252,66.91666666666667,67.4625,68.0,63.0
253,66.91666666666667,68.3,53.0,72.0
254,66.91666666666667,68.34791666666666,46.0,61.0
255,67.91666666666667,68.3625,68.0,61.0
256,67.91666666666667,68.43125,65.0,66.0
257,67.91666666666667,68.4375,58.0,64.0
258,67.91666666666667,68.45,61.0,72.0
259,68.91666666666667,69.34166666666667,51.0,53.0
260,68.91666666666667,69.375,56.0,67.0
261,68.91666666666667,69.4,65.0,61.0
262,68.91666666666667,69.47708333333333,61.0,66.0
263,69.66666666666667,70.00416666666666,51.0,41.0
264,69.91666666666667,70.275,67.0,76.0
265,69.91666666666667,70.27916666666667,58.0,73.0
266,69.91666666666667,70.3375,63.0,78.0
267,68.91666666666667,70.41041666666666,39.0,56.0
268,70.41666666666667,70.52708333333334,51.0,62.0
269,70.66666666666667,70.78541666666666,60.0,19.0
270,70.66666666666667,70.91666666666667,63.0,63.0
271,70.91666666666667,71.34583333333333,55.0,64.0
272,70.91666666666667,71.46041666666666,67.0,70.0
273,70.91666666666667,71.74791666666667,63.0,75.0
274,70.91666666666667,71.775,58.0,69.0
275,71.66666666666667,71.96666666666667,55.0,62.0
276,71.91666666666667,72.19375,58.0,72.0
277,71.91666666666667,72.24166666666666,63.0,76.0
278,71.91666666666667,72.25208333333333,67.0,69.0
279,72.16666666666667,72.32083333333333,55.0,64.0
280,70.91666666666667,72.39166666666667,48.0,72.0
281,72.41666666666667,72.63541666666667,65.0,69.0
282,72.66666666666667,72.86875,67.0,70.0
283,72.91666666666667,73.48958333333333,68.0,82.0
284,72.91666666666667,73.50833333333333,63.0,69.0
285,72.91666666666667,73.51666666666667,60.0,67.0
286,73.66666666666667,74.09791666666666,53.0,36.0
287,73.91666666666667,74.3125,68.0,76.0
288,72.91666666666667,74.3875,41.0,72.0
289,73.91666666666667,74.40833333333333,63.0,78.0
290,73.91666666666667,74.41875,60.0,72.0
291,74.41666666666667,74.50625,53.0,38.0
292,74.91666666666667,75.37916666666666,63.0,70.0
293,74.91666666666667,75.3875,67.0,67.0
294,74.91666666666667,75.39166666666667,58.0,64.0
295,75.66666666666667,75.83541666666666,58.0,50.0
296,75.91666666666667,76.04583333333333,65.0,48.0
297,75.41666666666667,76.17916666666666,51.0,46.0
298,74.91666666666667,76.4375,39.0,63.0
299,75.16666666666667,76.45625,46.0,46.0
300,76.16666666666667,76.58125,65.0,76.0
301,76.16666666666667,76.58333333333333,58.0,72.0
302,76.41666666666667,76.60625,51.0,58.0
303,76.66666666666667,77.15625,67.0,62.0
304,76.91666666666667,77.33125,58.0,61.0
305,76.91666666666667,77.48958333333333,63.0,66.0
306,77.91666666666667,78.02916666666667,60.0,63.0
307,77.91666666666667,78.16666666666667,68.0,75.0
308,77.66666666666667,78.25416666666666,51.0,62.0
309,78.16666666666667,78.30416666666666,58.0,61.0
310,78.16666666666667,78.34791666666666,67.0,69.0
311,77.41666666666667,78.48541666666667,46.0,49.0
312,78.41666666666667,78.51666666666667,63.0,69.0
313,78.41666666666667,78.54583333333333,68.0,69.0
314,76.91666666666667,78.56875,39.0,69.0
315,78.66666666666667,78.88125,70.0,72.0
316,78.66666666666667,78.93958333333333,51.0,55.0
317,78.91666666666667,79.19375,68.0,67.0
318,78.91666666666667,79.20625,72.0,70.0
319,78.91666666666667,79.225,63.0,66.0
320,79.66666666666667,80.01041666666667,63.0,76.0
321,79.66666666666667,80.01666666666667,58.0,78.0
322,79.41666666666667,80.13541666666667,56.0,62.0
323,80.16666666666667,80.425,60.0,80.0
324,78.91666666666667,80.44791666666667,44.0,75.0
325,80.16666666666667,80.47291666666666,65.0,76.0
326,79.16666666666667,80.48541666666667,51.0,58.0
327,80.41666666666667,80.58125,56.0,62.0
328,80.66666666666667,80.84166666666667,58.0,49.0
329,80.91666666666667,81.32291666666667,67.0,72.0
330,80.91666666666667,81.47291666666666,58.0,80.0
331,80.91666666666667,81.51458333333333,63.0,85.0
332,81.66666666666667,81.825,58.0,75.0
333,81.91666666666667,82.06041666666667,63.0,70.0
334,82.16666666666667,82.32916666666667,65.0,66.0
335,81.41666666666667,82.33333333333333,55.0,69.0
336,80.91666666666667,82.41041666666666,48.0,70.0
337,82.66666666666667,82.71666666666667,70.0,59.0
338,82.41666666666667,82.8125,67.0,56.0
339,82.91666666666667,83.20625,58.0,61.0
340,82.91666666666667,83.41041666666666,65.0,60.0
341,82.91666666666667,83.44791666666667,61.0,78.0
342,83.66666666666667,83.8125,56.0,66.0
343,83.41666666666667,84.13958333333333,49.0,56.0
344,82.91666666666667,84.36041666666667,37.0,73.0
345,84.16666666666667,84.38541666666667,56.0,78.0
346,84.16666666666667,84.43958333333333,61.0,88.0
347,84.16666666666667,84.50833333333333,65.0,80.0
348,84.41666666666667,84.62291666666667,49.0,57.0
349,84.66666666666667,84.88958333333333,65.0,52.0
350,84.91666666666667,85.0875,65.0,51.0
351,84.91666666666667,85.36458333333333,41.0,61.0
352,85.16666666666667,85.37083333333334,48.0,49.0
353,84.91666666666667,85.42291666666667,60.0,72.0
354,85.41666666666667,85.70625,53.0,66.0
355,84.91666666666667,85.83125,68.0,72.0
356,85.66666666666667,86.01875,55.0,62.0
357,85.91666666666667,86.0375,56.0,66.0
358,86.16666666666667,86.30625,60.0,62.0
359,86.41666666666667,86.64166666666667,65.0,76.0
360,86.91666666666667,87.58125,61.0,72.0
361,86.91666666666667,87.59791666666666,65.0,73.0
362,86.91666666666667,87.60833333333333,58.0,69.0
363,86.66666666666667,87.72083333333333,68.0,69.0
364,87.91666666666667,88.18541666666667,68.0,55.0
365,86.91666666666667,88.21666666666667,53.0,67.0
366,86.91666666666667,88.23333333333333,46.0,59.0
367,87.91666666666667,88.3,58.0,63.0
368,87.91666666666667,88.32708333333333,61.0,70.0
369,87.91666666666667,88.35416666666667,65.0,73.0
370,88.41666666666667,88.71041666666666,63.0,48.0
371,88.66666666666667,88.85208333333333,65.0,57.0
372,88.91666666666667,89.32291666666667,56.0,54.0
373,88.91666666666667,89.34375,51.0,58.0
374,88.91666666666667,89.34375,67.0,67.0
375,88.91666666666667,89.40208333333334,61.0,78.0
376,89.66666666666667,90.18541666666667,51.0,36.0
377,89.91666666666667,90.31875,67.0,78.0
378,89.91666666666667,90.3625,58.0,72.0
379,89.91666666666667,90.3875,63.0,78.0
380,88.91666666666667,90.47083333333333,39.0,58.0
381,90.41666666666667,90.55625,51.0,55.0
382,90.91666666666667,91.43958333333333,67.0,67.0
383,90.91666666666667,91.62708333333333,58.0,75.0
384,90.91666666666667,91.71875,63.0,66.0
385,91.66666666666667,92.11666666666666,55.0,40.0
386,91.91666666666667,92.2625,58.0,73.0
387,91.91666666666667,92.43333333333334,67.0,75.0
388,91.91666666666667,92.43958333333333,63.0,82.0
389,92.41666666666667,92.51666666666667,55.0,42.0
390,90.91666666666667,92.52916666666667,48.0,72.0
391,92.66666666666667,92.80625,67.0,64.0
392,92.66666666666667,92.9,65.0,57.0
393,92.91666666666667,93.41875,60.0,66.0
394,92.91666666666667,93.43958333333333,63.0,70.0
395,92.91666666666667,93.46666666666667,68.0,69.0
396,93.66666666666667,93.95,53.0,57.0
397,93.91666666666667,94.07916666666667,60.0,72.0
398,93.91666666666667,94.1,63.0,76.0
399,93.91666666666667,94.125,68.0,73.0
400,94.16666666666667,94.29375,58.0,69.0
401,94.16666666666667,94.34375,53.0,34.0
402,94.16666666666667,94.37916666666666,67.0,64.0
403,93.41666666666667,94.40416666666667,48.0,37.0
404,92.91666666666667,94.48333333333333,41.0,73.0
405,94.41666666666667,94.5625,60.0,64.0
406,94.41666666666667,94.5625,68.0,75.0
407,94.66666666666667,94.8,70.0,73.0
408,94.91666666666667,95.37083333333334,48.0,58.0
409,94.91666666666667,95.375,63.0,56.0
410,94.91666666666667,95.39375,36.0,58.0
411,94.91666666666667,95.40208333333334,58.0,75.0
412,94.91666666666667,95.40208333333334,67.0,57.0
413,95.66666666666667,96.01041666666667,48.0,46.0
414,95.66666666666667,96.29166666666667,36.0,51.0
415,95.91666666666667,96.31458333333333,67.0,75.0
416,95.91666666666667,96.32083333333333,58.0,82.0
417,95.91666666666667,96.33541666666666,63.0,93.0
418,96.41666666666667,96.54375,48.0,58.0
419,96.91666666666667,97.04791666666667,63.0,36.0
420,96.91666666666667,97.12916666666666,53.0,52.0
421,96.91666666666667,97.12916666666666,55.0,54.0
422,96.91666666666667,97.44791666666667,56.0,56.0
423,96.91666666666667,97.67291666666667,49.0,34.0
424,96.91666666666667,97.76666666666667,37.0,62.0
425,98.41666666666667,98.62916666666666,39.0,67.0
426,98.41666666666667,98.81875,63.0,67.0
427,98.41666666666667,98.85208333333333,58.0,67.0
428,98.41666666666667,98.8625,55.0,67.0
429,98.41666666666667,98.90833333333333,51.0,58.0
430,98.91666666666667,99.225,56.0,73.0
431,98.91666666666667,99.29583333333333,60.0,75.0
432,99.91666666666667,100.08958333333334,58.0,82.0
433,100.16666666666667,100.3375,60.0,46.0
434,99.66666666666667,100.525,56.0,61.0
435,100.41666666666667,100.62708333333333,63.0,59.0
436,100.66666666666667,100.84791666666666,65.0,54.0
437,100.91666666666667,101.59166666666667,60.0,54.0
438,100.91666666666667,101.63958333333333,56.0,40.0
439,98.91666666666667,101.67916666666666,44.0,73.0
440,99.41666666666667,101.68958333333333,51.0,40.0
441,100.91666666666667,101.69375,63.0,55.0
442,100.91666666666667,101.72083333333333,68.0,44.0
443,102.91666666666667,103.29375,49.0,59.0
444,102.91666666666667,103.54791666666667,53.0,61.0
445,102.91666666666667,103.58958333333334,56.0,69.0
446,102.91666666666667,103.60208333333333,61.0,66.0
447,103.66666666666667,104.13958333333333,49.0,33.0
448,103.91666666666667,104.37083333333334,61.0,72.0
449,103.91666666666667,104.39999999999999,56.0,76.0
450,103.91666666666667,104.43124999999999,53.0,64.0
451,104.41666666666667,104.54791666666667,49.0,49.0
452,102.91666666666667,104.55,37.0,57.0
453,104.91666666666667,105.35208333333333,48.0,59.0
454,104.91666666666667,105.57916666666667,60.0,72.0
455,104.91666666666667,105.61874999999999,56.0,67.0
456,104.91666666666667,105.71041666666666,51.0,66.0
457,104.91666666666667,105.75416666666666,63.0,59.0
458,105.66666666666667,106.30416666666666,48.0,34.0
459,105.91666666666667,106.41666666666667,56.0,66.0
460,105.91666666666667,106.42291666666667,51.0,67.0
461,105.91666666666667,106.45208333333333,60.0,76.0
462,104.91666666666667,106.5,36.0,66.0
463,106.41666666666667,106.53333333333333,48.0,45.0
464,106.91666666666667,107.62916666666666,53.0,67.0
465,106.91666666666667,107.62916666666666,56.0,66.0
466,106.91666666666667,107.6375,61.0,76.0
467,106.91666666666667,108.03333333333333,46.0,59.0
468,107.91666666666667,108.22291666666666,53.0,67.0
469,107.91666666666667,108.30833333333334,61.0,76.0
470,107.91666666666667,108.37916666666666,56.0,73.0
471,106.91666666666667,108.40625,34.0,72.0
472,108.41666666666667,108.53125,46.0,48.0
473,108.91666666666667,109.30416666666666,67.0,70.0
474,108.91666666666667,109.32916666666667,60.0,67.0
475,108.91666666666667,109.33749999999999,63.0,62.0
476,109.41666666666667,109.81458333333333,55.0,58.0
477,109.66666666666667,109.83125,58.0,78.0
478,109.91666666666667,110.08125,63.0,58.0
479,110.16666666666667,110.29166666666667,68.0,85.0
480,108.91666666666667,110.3,44.0,67.0
481,109.16666666666667,110.31458333333333,51.0,48.0
482,110.91666666666667,111.4125,73.0,82.0
483,110.91666666666667,111.4375,68.0,66.0
484,110.91666666666667,111.47083333333333,65.0,69.0
485,111.91666666666667,112.225,61.0,59.0
486,111.91666666666667,112.25833333333333,73.0,82.0
487,111.91666666666667,112.31875,68.0,70.0
488,111.41666666666667,112.3625,56.0,48.0
489,110.91666666666667,112.36874999999999,49.0,73.0
490,111.91666666666667,112.37708333333333,65.0,73.0
491,112.91666666666667,113.45416666666667,72.0,67.0
492,112.91666666666667,113.46875,68.0,82.0
493,112.91666666666667,113.49583333333334,63.0,70.0
494,112.91666666666667,113.76458333333333,60.0,75.0
495,112.91666666666667,114.02291666666666,48.0,67.0
496,113.91666666666667,114.02708333333334,67.0,72.0
497,113.91666666666667,114.03541666666666,63.0,70.0
498,113.91666666666667,114.04166666666667,70.0,75.0
499,114.91666666666667,115.42291666666667,68.0,62.0
500,114.91666666666667,115.425,65.0,59.0
501,114.91666666666667,115.43541666666667,56.0,66.0
502,114.91666666666667,115.44166666666666,61.0,55.0
503,114.91666666666667,115.97916666666667,53.0,67.0
504,115.91666666666667,116.28541666666666,68.0,47.0
505,114.91666666666667,116.46666666666667,46.0,64.0
506,115.91666666666667,116.48125,65.0,60.0
507,115.91666666666667,116.49374999999999,56.0,67.0
508,115.91666666666667,116.51041666666667,61.0,75.0
509,116.41666666666667,116.5125,53.0,73.0
510,116.91666666666667,117.35833333333333,51.0,64.0
511,116.91666666666667,117.39166666666667,63.0,76.0
512,116.91666666666667,117.39999999999999,67.0,76.0
513,116.91666666666667,117.40208333333334,39.0,72.0
514,116.91666666666667,117.42916666666666,58.0,82.0
515,117.91666666666667,118.33333333333333,56.0,72.0
516,117.91666666666667,118.3625,65.0,66.0
517,117.91666666666667,118.36666666666666,49.0,60.0
518,117.91666666666667,118.375,61.0,76.0
519,117.91666666666667,118.41458333333333,37.0,66.0
520,118.91666666666667,119.30208333333333,63.0,72.0
521,118.91666666666667,119.31041666666667,67.0,73.0
522,118.91666666666667,119.32291666666667,48.0,64.0
523,118.91666666666667,119.33333333333333,58.0,69.0
524,119.91666666666667,120.2,58.0,69.0
525,120.16666666666667,120.35,63.0,61.0
526,119.66666666666667,120.40208333333334,48.0,53.0
527,118.91666666666667,120.48541666666667,36.0,72.0
528,120.41666666666667,120.52916666666667,65.0,72.0
529,120.91666666666667,121.34791666666666,61.0,64.0
530,120.91666666666667,121.35208333333333,58.0,64.0
531,120.91666666666667,121.35833333333333,66.0,72.0
532,120.91666666666667,121.38541666666667,54.0,66.0
533,120.91666666666667,121.45208333333333,42.0,69.0
534,121.91666666666667,122.36874999999999,60.0,70.0
535,121.91666666666667,122.39166666666667,56.0,62.0
536,121.91666666666667,122.425,65.0,62.0
537,121.91666666666667,122.78125,53.0,57.0
538,121.91666666666667,122.8125,41.0,63.0
539,122.91666666666667,123.41458333333333,65.0,45.0
540,122.91666666666667,123.44166666666666,58.0,58.0
541,122.91666666666667,123.45625,61.0,59.0
542,122.91666666666667,124.05,46.0,58.0
543,122.91666666666667,124.5,34.0,54.0
544,123.91666666666667,124.56666666666666,61.0,67.0
545,123.91666666666667,124.56666666666666,65.0,66.0
546,123.91666666666667,124.58125,58.0,67.0
547,124.41666666666667,124.64166666666667,46.0,44.0
548,124.66666666666667,124.97916666666667,36.0,59.0
549,124.91666666666667,125.40833333333333,56.0,78.0
550,124.91666666666667,125.44375,61.0,58.0
551,124.91666666666667,125.63333333333333,52.0,72.0
552,124.91666666666667,126.13333333333333,49.0,58.0
553,124.91666666666667,126.41041666666666,37.0,62.0
554,125.91666666666667,126.4125,61.0,63.0
555,125.91666666666667,126.41875,56.0,76.0
556,125.91666666666667,126.44375,52.0,70.0
557,126.41666666666667,126.56458333333333,49.0,60.0
558,126.91666666666667,127.7,61.0,69.0
559,126.91666666666667,127.71249999999999,56.0,66.0
560,126.91666666666667,127.72916666666667,65.0,62.0
561,126.91666666666667,128.09583333333333,46.0,61.0
562,126.91666666666667,128.38125,34.0,63.0
563,127.91666666666667,128.43958333333333,65.0,76.0
564,127.91666666666667,128.45833333333334,56.0,69.0
565,127.91666666666667,128.46041666666667,61.0,85.0
566,128.41666666666666,128.53333333333333,46.0,70.0
567,128.91666666666666,129.23541666666665,49.0,64.0
568,128.91666666666666,129.31458333333333,65.0,75.0
569,128.91666666666666,129.4375,56.0,76.0
570,128.91666666666666,129.45208333333332,37.0,76.0
571,128.91666666666666,129.45208333333332,61.0,82.0
572,129.41666666666666,129.58125,49.0,55.0
573,130.41666666666666,130.49375,49.0,59.0
574,130.41666666666666,130.51666666666665,37.0,66.0
575,129.91666666666666,130.54166666666666,65.0,75.0
576,129.91666666666666,130.59791666666666,61.0,82.0
577,129.91666666666666,130.6125,56.0,76.0
578,130.66666666666666,130.7625,38.0,82.0
579,130.91666666666666,131.325,51.0,82.0
580,130.91666666666666,131.57291666666666,67.0,76.0
581,130.91666666666666,131.61458333333334,63.0,78.0
582,130.91666666666666,131.66875,58.0,78.0
583,131.66666666666666,132.09791666666666,51.0,46.0
584,131.91666666666666,132.10208333333333,58.0,76.0
585,131.91666666666666,132.2875,63.0,73.0
586,131.91666666666666,132.2875,67.0,76.0
587,132.775,133.07916666666665,75.0,45.0
588,132.85833333333332,133.72083333333333,80.0,42.0
589,132.97708333333333,133.775,87.0,58.0
590,133.91666666666666,134.09375,85.0,54.0
591,134.16666666666666,134.35208333333333,84.0,57.0
592,130.91666666666666,134.37916666666666,39.0,70.0
593,132.41666666666666,134.38958333333332,51.0,55.0
594,134.41666666666666,134.62916666666666,80.0,50.0
595,134.66666666666666,134.75833333333333,75.0,53.0
596,134.91666666666666,135.56666666666666,68.0,69.0
597,134.91666666666666,135.575,63.0,63.0
598,134.91666666666666,135.58541666666667,60.0,61.0
599,134.91666666666666,136.275,56.0,64.0
600,135.91666666666666,136.32291666666666,68.0,61.0
601,134.91666666666666,136.32916666666665,44.0,64.0
602,135.91666666666666,136.34166666666667,60.0,59.0
603,135.91666666666666,136.3625,63.0,66.0
604,136.91666666666666,137.43958333333333,67.0,54.0
605,136.91666666666666,137.4625,58.0,55.0
606,136.91666666666666,137.47916666666666,63.0,57.0
607,136.91666666666666,138.17916666666667,55.0,59.0
608,137.91666666666666,138.21875,67.0,46.0
609,137.91666666666666,138.2375,63.0,47.0
610,137.91666666666666,138.25208333333333,58.0,44.0
611,136.91666666666666,138.2875,43.0,60.0
612,138.91666666666666,139.36041666666665,56.0,55.0
613,138.91666666666666,139.37708333333333,60.0,61.0
614,138.91666666666666,139.41458333333333,65.0,47.0
615,139.91666666666666,140.4125,65.0,45.0
616,139.91666666666666,140.41666666666666,60.0,42.0
617,139.91666666666666,140.42708333333334,56.0,37.0
618,138.91666666666666,141.43958333333333,53.0,51.0
619,140.91666666666666,141.47083333333333,65.0,33.0
620,140.91666666666666,141.4875,56.0,35.0
621,140.91666666666666,141.4875,60.0,41.0
622,141.66666666666666,142.08541666666667,53.0,24.0
623,138.91666666666666,142.09166666666667,41.0,58.0
624,141.91666666666666,142.30208333333334,65.0,78.0
625,141.91666666666666,142.3375,56.0,73.0
626,141.91666666666666,142.34375,60.0,82.0
627,142.41666666666666,142.49791666666667,53.0,54.0
628,142.41666666666666,142.52291666666667,41.0,55.0
629,142.91666666666666,143.39583333333334,65.0,64.0
630,142.91666666666666,143.49791666666667,56.0,67.0
631,142.91666666666666,143.5,61.0,69.0
632,143.91666666666666,144.3625,65.0,60.0
633,143.91666666666666,144.38125,61.0,53.0
634,143.91666666666666,144.38333333333333,56.0,54.0
635,142.91666666666666,144.55833333333334,49.0,64.0
636,142.91666666666666,144.59166666666667,37.0,62.0
637,144.91666666666666,145.42291666666665,65.0,56.0
638,144.91666666666666,145.44583333333333,61.0,59.0
639,144.91666666666666,145.4625,56.0,57.0
640,144.91666666666666,146.25625,34.0,49.0
641,145.91666666666666,146.27291666666667,61.0,61.0
642,145.91666666666666,146.27291666666667,65.0,59.0
643,145.91666666666666,146.29166666666666,56.0,57.0
644,144.91666666666666,146.32083333333333,46.0,47.0
645,146.91666666666666,147.3625,63.0,42.0
646,146.91666666666666,147.37291666666667,58.0,44.0
647,146.91666666666666,147.40208333333334,55.0,46.0
648,147.91666666666666,148.28333333333333,63.0,43.0
649,147.91666666666666,148.40208333333334,55.0,43.0
650,147.91666666666666,148.41666666666666,58.0,48.0
651,146.91666666666666,149.2375,51.0,44.0
652,148.91666666666666,149.35625,63.0,37.0
653,148.91666666666666,149.46875,58.0,47.0
654,148.91666666666666,149.52291666666667,55.0,40.0
655,149.66666666666666,149.97916666666666,51.0,55.0
656,146.91666666666666,150.01041666666666,39.0,38.0
657,149.91666666666666,150.17605025,63.0,75.0
658,149.91666666666666,150.2012603,55.0,78.0
659,149.91666666666666,150.22016783750001,58.0,76.0
660,150.16764690000002,150.28109212500001,51.0,55.0
661,150.16764690000002,150.34411725,39.0,61.0
662,150.4197474,150.5563018375,55.0,54.0
663,150.9239484,151.49555191666667,58.0,70.0
664,150.9239484,151.54971858333334,63.0,64.0
665,150.9239484,151.58721858333334,60.0,73.0
666,150.9239484,152.05180191666668,56.0,63.0
667,151.92471858333334,152.40596858333333,63.0,61.0
668,151.92471858333334,152.44138525000002,58.0,54.0
669,150.9239484,152.46430191666667,44.0,60.0
670,151.92471858333334,152.46638525,60.0,55.0
671,152.42471858333334,152.54138525000002,56.0,40.0
672,152.92471858333334,153.51430191666668,63.0,56.0
673,152.92471858333334,153.55596858333334,58.0,58.0
674,152.92471858333334,153.5705519166667,67.0,60.0
675,152.92471858333334,154.05388525,55.0,51.0
676,153.92471858333334,154.2580519166667,67.0,48.0
677,153.92471858333334,154.29555191666668,58.0,53.0
678,153.92471858333334,154.31013525,63.0,56.0
679,152.92471858333334,154.5330519166667,43.0,54.0
680,154.42471858333334,154.57471858333335,55.0,40.0
681,154.92471858333334,155.40596858333333,60.0,73.0
682,154.92471858333334,155.4143019166667,63.0,67.0
683,154.67471858333334,155.48096858333335,56.0,40.0
684,155.17471858333334,156.13096858333336,53.0,7.0
685,155.92471858333334,156.28721858333336,63.0,59.0
686,154.92471858333334,156.34346858333333,41.0,72.0
687,155.92471858333334,156.35596858333335,60.0,57.0
688,155.92471858333334,156.36638525,56.0,48.0
689,156.92471858333334,157.25388525000002,63.0,37.0
690,156.92471858333334,157.35596858333335,60.0,44.0
691,156.92471858333334,157.38513525000002,56.0,34.0
692,157.67471858333334,158.02263525,53.0,36.0
693,157.67471858333334,158.05805191666667,41.0,44.0
694,157.92471858333334,158.18096858333334,56.0,73.0
695,157.92471858333334,158.18305191666667,63.0,61.0
696,157.92471858333334,158.18721858333333,60.0,82.0
697,158.17471858333334,158.33305191666668,53.0,53.0
698,158.17471858333334,158.37263525,41.0,62.0
699,158.42471858333334,158.61638525,56.0,56.0
700,158.67471858333334,158.86638525,58.0,50.0
701,158.92471858333334,159.40596858333333,61.0,75.0
702,158.92471858333334,159.48305191666668,53.0,75.0
703,158.92471858333334,159.51846858333334,56.0,64.0
704,158.92471858333334,160.06846858333336,49.0,72.0
705,158.92471858333334,160.09971858333336,37.0,51.0
706,159.92471858333334,160.42680191666668,61.0,56.0
707,159.92471858333334,160.47471858333336,56.0,64.0
708,159.92471858333334,160.48096858333335,53.0,54.0
709,160.42471858333334,160.55596858333334,48.0,43.0
710,160.42471858333334,160.59763525000002,36.0,32.0
711,160.92471858333334,161.4393019166667,61.0,58.0
712,160.92471858333334,161.58721858333334,53.0,51.0
713,160.92471858333334,161.60388525000002,56.0,61.0
714,160.92471858333334,162.05596858333334,46.0,44.0
715,161.92471858333334,162.38721858333335,61.0,67.0
716,160.92471858333334,162.40388525,34.0,63.0
717,161.92471858333334,162.4393019166667,56.0,73.0
718,161.92471858333334,162.48305191666668,53.0,67.0
719,162.42471858333334,162.5393019166667,46.0,53.0
720,162.92471858333334,163.58721858333334,58.0,70.0
721,162.92471858333334,163.68721858333333,63.0,57.0
722,162.92471858333334,163.71846858333333,55.0,69.0
723,162.92471858333334,164.06013525,51.0,62.0
724,163.92471858333334,164.32888525,63.0,67.0
725,163.92471858333334,164.37055191666667,55.0,69.0
726,163.92471858333334,164.38721858333335,58.0,73.0
727,162.92471858333334,164.4393019166667,39.0,70.0
728,164.42471858333334,164.55388525,51.0,42.0
729,164.92471858333334,165.26846858333334,63.0,64.0
730,164.92471858333334,165.2893019166667,60.0,59.0
731,164.92471858333334,165.32680191666668,68.0,62.0
732,165.92471858333334,166.13721858333335,58.0,45.0
733,165.92471858333334,166.21638525,60.0,48.0
734,165.92471858333334,166.22471858333336,63.0,49.0
735,165.92471858333334,166.30596858333334,68.0,48.0
736,166.78721858333336,166.97888525000002,80.0,55.0
737,166.84138525,167.14138525,84.0,45.0
738,166.92471858333334,167.16013525000002,87.0,33.0
739,166.71638525,167.29138525000002,75.0,48.0
740,166.42471858333334,167.67888525,56.0,38.0
741,164.92471858333334,167.76638525,44.0,64.0
742,167.92471858333334,168.02888525,63.0,62.0
743,167.92471858333334,168.06250866250002,55.0,72.0
744,167.92471858333334,168.10681245,51.0,52.0
745,167.92471858333334,168.10681245,58.0,73.0
746,167.92471858333334,168.12579978750003,39.0,66.0
747,168.1764326875,168.3494284291667,53.0,62.0
748,168.1764326875,168.40428073750002,56.0,67.0
749,168.1764326875,168.45702334166668,41.0,61.0
750,168.4295971875,168.56250855000002,58.0,73.0
751,168.4295971875,168.57938618333336,43.0,78.0
752,168.4295971875,168.6025929291667,55.0,62.0
753,168.68276168750003,168.8557574291667,60.0,62.0
754,168.93592618750003,169.34942820416668,44.0,76.0
755,168.93592618750003,169.45702311666668,60.0,78.0
756,168.93592618750003,169.4696813416667,51.0,88.0
757,168.93592618750003,169.48444927083335,56.0,76.0
758,168.93592618750003,169.50554631250003,63.0,62.0
759,169.69541968750002,170.15111578750003,44.0,40.0
760,169.94858418750002,170.38529295,51.0,76.0
761,168.93592618750003,170.41271910416668,32.0,63.0
762,169.94858418750002,170.4443646666667,63.0,66.0
763,169.94858418750002,170.448584075,60.0,72.0
764,169.94858418750002,170.4633520041667,56.0,80.0
765,170.4549131875,170.54774017083335,44.0,52.0
766,170.96124218750003,171.66377367500002,58.0,73.0
767,170.96124218750003,171.72284539166668,63.0,75.0
768,170.96124218750003,171.72495509583337,55.0,76.0
769,170.96124218750003,172.40849924583335,36.0,73.0
770,171.97390018750002,172.46124185000002,63.0,75.0
771,170.96124218750003,172.46757096250002,48.0,66.0
772,171.97390018750002,172.499216525,55.0,76.0
773,171.97390018750002,172.51609415833335,58.0,75.0
774,172.9865581875,173.60048210000002,61.0,73.0
775,172.9865581875,173.69752849166667,56.0,72.0
776,172.9865581875,173.75238080000003,65.0,64.0
777,172.9865581875,173.85153689583336,68.0,62.0
778,172.9865581875,174.2734777291667,49.0,55.0
779,173.99921618750002,174.4422540625,68.0,54.0
780,173.99921618750002,174.4633511041667,56.0,69.0
781,173.99921618750002,174.47178992083334,61.0,73.0
782,172.9865581875,174.49921607500002,37.0,63.0
783,173.99921618750002,174.50554518750002,65.0,67.0
784,174.50554518750002,174.6194692125,49.0,55.0
785,175.0118741875,175.6025913541667,60.0,62.0
786,175.0118741875,175.6025913541667,63.0,63.0
787,175.0118741875,175.61103017083335,65.0,67.0
788,175.0118741875,175.70174745000003,68.0,62.0
789,175.0118741875,176.3430975166667,41.0,49.0
790,175.0118741875,176.39584012083336,53.0,55.0
791,176.02453218750003,176.40216923333335,68.0,59.0
792,176.02453218750003,176.44647302083337,63.0,66.0
793,176.02453218750003,176.44647302083337,65.0,67.0
794,176.02453218750003,176.45913124583336,60.0,63.0
795,177.03719018750002,177.56883563750003,65.0,64.0
796,177.03719018750002,177.57305504583334,61.0,70.0
797,177.03719018750002,177.58993267916668,58.0,64.0
798,177.03719018750002,177.58993267916668,68.0,63.0
799,177.03719018750002,178.4380337541667,53.0,72.0
800,177.03719018750002,178.48655695000002,46.0,61.0
801,178.04984818750003,178.50132487916667,68.0,61.0
802,178.04984818750003,178.57094511666668,65.0,66.0
803,178.04984818750003,178.57727422916668,58.0,64.0
804,178.04984818750003,178.5899324541667,61.0,72.0
805,179.06250618750002,179.4928858375,51.0,53.0
806,179.06250618750002,179.52664110416669,56.0,67.0
807,179.06250618750002,179.55195755416668,65.0,61.0
808,179.06250618750002,179.63001660833336,61.0,66.0
809,179.8219996875,180.16377176250003,51.0,41.0
810,180.0751641875,180.43600275000003,67.0,76.0
811,180.0751641875,180.4401694166667,58.0,73.0
812,180.0751641875,180.49850275000003,63.0,78.0
813,179.06250618750002,180.57141941666669,39.0,56.0
814,180.5776694166667,180.68808608333336,51.0,62.0
815,180.8276694166667,180.94641941666669,60.0,19.0
816,180.8276694166667,181.0776694166667,63.0,63.0
817,181.0776694166667,181.50494225000003,55.0,64.0
818,181.0776694166667,181.6185786666667,67.0,70.0
819,181.0776694166667,181.9037027666667,63.0,75.0
820,181.0776694166667,181.93056228333336,58.0,69.0
821,181.82312421666668,182.12064501666669,55.0,62.0
822,182.0710582166667,182.34585173333338,58.0,72.0
823,182.0710582166667,182.3933724166667,63.0,76.0
824,182.0710582166667,182.40370300000004,67.0,69.0
825,182.3189922166667,182.47188485000004,55.0,64.0
826,181.0776694166667,182.5421328166667,48.0,72.0
827,182.5669262166667,182.7838684666667,65.0,69.0
828,182.8148602166667,183.01527353333336,67.0,70.0
829,183.0627942166667,183.63097630000004,68.0,82.0
830,183.0627942166667,183.64957135000003,63.0,69.0
831,183.0627942166667,183.6578358166667,60.0,67.0
832,183.8065962166667,184.2342823666667,53.0,36.0
833,184.0545302166667,184.44709238333337,68.0,76.0
834,183.0627942166667,184.52147258333338,41.0,72.0
835,184.0545302166667,184.54213375000003,63.0,78.0
836,184.0545302166667,184.55246433333338,60.0,72.0
837,184.5503982166667,184.63924123333337,53.0,38.0
838,185.0462662166667,185.5049441166667,63.0,70.0
839,185.0462662166667,185.51320858333335,67.0,67.0
840,185.0462662166667,185.5173408166667,58.0,64.0
841,185.7900682166667,185.9574236666667,58.0,50.0
842,186.0380022166667,186.16610145000004,65.0,48.0
843,185.5421342166667,186.2983329166667,51.0,46.0
844,185.0462662166667,186.55453138333337,39.0,63.0
845,185.2942002166667,186.57312643333336,46.0,46.0
846,186.2859362166667,186.69709343333335,65.0,76.0
847,186.2859362166667,186.69915955000002,58.0,72.0
848,186.53387021666668,186.72188683333337,51.0,58.0
849,186.7818042166667,187.26734163333336,67.0,62.0
850,187.0297382166667,187.44089543333337,58.0,61.0
851,187.0297382166667,187.59792030000003,63.0,66.0
852,188.0214742166667,188.1330445166667,60.0,63.0
853,188.0214742166667,188.2694082166667,68.0,75.0
854,187.7735402166667,188.3561851166667,51.0,62.0
855,188.2694082166667,188.4057719166667,58.0,61.0
856,188.2694082166667,188.4491603666667,67.0,69.0
857,187.5256062166667,188.5855240666667,46.0,49.0
858,188.5173422166667,188.6165158166667,63.0,69.0
859,188.5173422166667,188.64544145000002,68.0,69.0
860,187.0297382166667,188.66816873333337,39.0,69.0
861,188.7652762166667,188.97808623333336,70.0,72.0
862,188.7652762166667,189.03593750000005,51.0,55.0
863,189.0132102166667,189.28800373333337,68.0,67.0
864,189.0132102166667,189.30040043333338,72.0,70.0
865,189.0132102166667,189.31899548333337,63.0,66.0
866,189.7570122166667,190.0979214666667,63.0,76.0
867,189.7570122166667,190.1041198166667,58.0,78.0
868,189.5090782166667,190.2218884666667,56.0,62.0
869,190.2528802166667,190.50907868333337,60.0,80.0
870,189.0132102166667,190.5318059666667,44.0,75.0
871,190.2528802166667,190.5565993666667,65.0,76.0
872,189.2611442166667,190.5689960666667,51.0,58.0
873,190.5008142166667,190.66403743333336,56.0,62.0
874,190.74874821666668,190.9223020166667,58.0,49.0
875,190.9966822166667,191.3995749666667,67.0,72.0
876,190.9966822166667,191.5483353666667,58.0,80.0
877,190.9966822166667,191.58965770000003,63.0,85.0
878,191.7404842166667,191.89750908333338,58.0,75.0
879,191.9884182166667,192.1309802666667,63.0,70.0
880,192.2363522166667,192.39750931666669,65.0,66.0
881,191.4925502166667,192.40164155000002,55.0,69.0
882,190.9966822166667,192.4780878666667,48.0,70.0
883,192.7322202166667,192.7818070166667,70.0,59.0
884,192.4842862166667,192.87684838333337,67.0,56.0
885,192.9801542166667,193.26734443333336,58.0,61.0
886,192.9801542166667,193.4698238666667,65.0,60.0
887,192.9801542166667,193.5070139666667,61.0,78.0
888,193.7239562166667,193.86858438333337,56.0,66.0
889,193.4760222166667,194.19296470000003,49.0,56.0
890,192.9801542166667,194.4119730666667,37.0,73.0
891,194.2198242166667,194.4367664666667,56.0,78.0
892,194.2198242166667,194.49048550000003,61.0,88.0
893,194.2198242166667,194.55866735000004,65.0,80.0
894,194.4677582166667,194.6723037666667,49.0,57.0
895,194.7156922166667,194.93676670000002,65.0,52.0
896,194.9636262166667,195.13304778333335,65.0,51.0
897,194.9636262166667,195.40784130000003,41.0,61.0
898,195.2115602166667,195.41403965000003,48.0,49.0
899,194.9636262166667,195.4656925666667,60.0,72.0
900,195.4594942166667,195.74668443333337,53.0,66.0
901,194.9636262166667,195.87065143333336,68.0,72.0
902,195.7074282166667,196.05660193333335,55.0,62.0
903,195.95536221666669,196.07519698333337,56.0,66.0
904,196.2032962166667,196.34172603333337,60.0,62.0
905,196.4512302166667,196.6743708166667,65.0,76.0
906,196.9470982166667,197.60618943333336,61.0,72.0
907,196.9470982166667,197.6227183666667,65.0,73.0
908,196.9470982166667,197.63304895000005,58.0,69.0
909,196.6991642166667,197.74461925000003,68.0,69.0
910,197.9388342166667,198.2053632666667,68.0,55.0
911,196.9470982166667,198.2363550166667,53.0,67.0
912,196.9470982166667,198.25288395000004,46.0,59.0
913,197.9388342166667,198.31899968333337,58.0,63.0
914,197.9388342166667,198.34585920000004,61.0,70.0
915,197.9388342166667,198.3727187166667,65.0,73.0
916,198.4347022166667,198.7260246666667,63.0,48.0
917,198.6826362166667,198.86652060000003,65.0,57.0
918,198.9305702166667,199.3334629666667,56.0,54.0
919,198.9305702166667,199.35412413333336,51.0,58.0
920,198.9305702166667,199.35412413333336,67.0,67.0
921,198.9305702166667,199.41197540000005,61.0,78.0
922,199.6743722166667,200.1888352666667,51.0,36.0
923,199.9223062166667,200.32106673333337,67.0,78.0
924,199.9223062166667,200.36445518333338,58.0,72.0
925,199.9223062166667,200.38924858333337,63.0,78.0
926,198.9305702166667,200.47189325000002,39.0,58.0
927,200.4181742166667,200.55660403333337,51.0,55.0
928,201.01528193333337,201.5338772166667,67.0,67.0
929,201.01528193333337,201.7198277166667,58.0,75.0
930,201.01528193333337,201.81073685000004,63.0,66.0
931,201.75908393333336,202.20536513333337,55.0,40.0
932,202.00701793333337,202.34999330000002,58.0,73.0
933,202.00701793333337,202.5194148666667,67.0,75.0
934,202.00701793333337,202.5256132166667,63.0,82.0
935,202.50288593333337,202.60205953333337,55.0,42.0
936,201.01528193333337,202.61445623333336,48.0,72.0
937,202.75081993333336,202.88924975000003,67.0,64.0
938,202.75081993333336,202.98222500000003,65.0,57.0
939,202.99875393333338,203.49668805000005,60.0,66.0
940,202.99875393333338,203.5173492166667,63.0,70.0
941,202.99875393333338,203.54420873333336,68.0,69.0
942,203.74255593333336,204.02354780000005,53.0,57.0
943,203.99048993333338,204.15164703333338,60.0,72.0
944,203.99048993333338,204.17230820000003,63.0,76.0
945,203.99048993333338,204.19710160000002,68.0,73.0
946,204.23842393333337,204.36445705000003,58.0,69.0
947,204.23842393333337,204.41404385000004,53.0,34.0
948,204.23842393333337,204.44916783333338,67.0,64.0
949,203.49462193333338,204.47396123333337,48.0,37.0
950,202.99875393333338,204.55247366666669,41.0,73.0
951,204.48635793333335,204.63098610000003,60.0,64.0
952,204.48635793333335,204.63098610000003,68.0,75.0
953,204.73429193333337,204.86652340000003,70.0,73.0
954,204.98222593333338,205.4326393666667,48.0,58.0
955,204.98222593333338,205.43677160000004,63.0,56.0
956,204.98222593333338,205.45536665000003,36.0,58.0
957,204.98222593333338,205.4636311166667,58.0,75.0
958,204.98222593333338,205.4636311166667,67.0,57.0
959,205.72602793333337,206.06693718333338,48.0,46.0
960,205.72602793333337,206.34586293333336,36.0,51.0
961,205.97396193333336,206.3685902166667,67.0,75.0
962,205.97396193333336,206.3747885666667,58.0,82.0
963,205.97396193333336,206.38925138333337,63.0,93.0
964,206.46982993333336,206.59586305000005,48.0,58.0
965,206.96569793333336,207.09586328333336,63.0,36.0
966,206.96569793333336,207.17644183333337,53.0,52.0
967,206.96569793333336,207.17644183333337,55.0,54.0
968,206.96569793333336,207.49255768333336,56.0,56.0
969,206.96569793333336,207.71569828333338,49.0,34.0
970,206.96569793333336,207.80867353333338,37.0,62.0
971,208.45330193333336,208.66404583333338,39.0,67.0
972,208.45330193333336,208.85206245000003,63.0,67.0
973,208.45330193333336,208.8851203166667,58.0,67.0
974,208.45330193333336,208.89545090000004,55.0,67.0
975,208.45330193333336,208.9409054666667,51.0,58.0
976,208.94916993333337,209.30247588333336,56.0,51.0
977,208.94916993333337,209.47809580000003,60.0,66.0
978,208.94916993333337,209.55247600000004,63.0,72.0
979,208.94916993333337,209.7156992166667,68.0,67.0
980,208.94916993333337,210.2177655666667,44.0,61.0
981,209.69297193333335,210.2363606166667,56.0,26.0
982,209.94090593333337,210.4904929666667,60.0,70.0
983,209.94090593333337,210.4966913166667,68.0,72.0
984,209.94090593333337,210.51528636666671,63.0,72.0
985,210.43677393333337,210.54421200000004,44.0,78.0
986,210.93264193333337,211.17024535000004,49.0,67.0
987,210.93264193333337,211.46156780000004,56.0,93.0
988,210.93264193333337,211.46776615000005,61.0,95.0
989,210.93264193333337,211.49875790000004,65.0,97.0
990,210.93264193333337,211.50908848333336,37.0,78.0
991,211.42850993333337,211.5504108166667,49.0,73.0
992,211.67644393333336,211.79421258333338,56.0,51.0
993,211.92469042083337,212.10326160833336,51.0,82.0
994,212.17679092083335,212.30284117083335,51.0,72.0
995,211.92469042083337,212.30284117083335,67.0,69.0
996,211.92469042083337,212.31754703333337,58.0,93.0
997,211.92469042083337,212.32805122083334,63.0,76.0
998,211.92469042083337,212.44779895833335,39.0,80.0
999,212.42889142083337,212.50452157083336,51.0,73.0
1000,212.42889142083337,212.59485758333335,58.0,75.0
1001,212.68099192083335,212.85326059583335,63.0,56.0
1002,213.43729342083336,213.70620062083336,63.0,101.0
1003,213.43729342083336,213.71250313333337,60.0,99.0
1004,213.43729342083336,213.71460397083337,44.0,88.0
1005,213.43729342083336,213.71460397083337,56.0,97.0
1006,213.43729342083336,213.71670480833336,68.0,76.0
1007,214.19359492083336,214.41418285833336,56.0,91.0
1008,214.19359492083336,214.44149374583336,63.0,97.0
1009,214.19359492083336,214.45199793333336,44.0,78.0
1010,214.19359492083336,214.45409877083335,60.0,101.0
1011,214.19359492083336,214.47300630833337,68.0,82.0
1012,214.94989642083337,215.35535805833337,48.0,97.0
1013,214.94989642083337,215.48140830833336,67.0,91.0
1014,214.94989642083337,215.63687028333337,58.0,99.0
1015,214.94989642083337,215.72930713333335,63.0,95.0
1016,215.70619792083335,215.96670177083337,48.0,57.0
1017,214.94989642083337,216.06964280833336,36.0,85.0
1018,215.95829842083336,216.25871818333337,58.0,93.0
1019,215.95829842083336,216.26502069583336,63.0,99.0
1020,215.95829842083336,216.27342404583337,67.0,99.0
1021,216.21039892083337,216.34065084583335,36.0,76.0
1022,216.21039892083337,216.37006257083337,48.0,93.0
1023,216.46249942083335,216.58644883333335,58.0,78.0
1024,216.96670042083335,217.37636373333336,49.0,76.0
1025,216.96670042083335,217.59485083333337,56.0,82.0
1026,216.96670042083335,217.59485083333337,61.0,85.0
1027,216.96670042083335,217.59485083333337,65.0,76.0
1028,216.96670042083335,217.63896842083335,37.0,73.0
1029,217.47090142083337,217.65787595833336,49.0,72.0
1030,217.72300192083335,217.77972453333336,61.0,37.0
1031,217.72300192083335,217.80493458333336,65.0,34.0
1032,217.72300192083335,217.83644714583335,56.0,62.0
1033,217.97510242083337,218.28182469583336,51.0,69.0
1034,217.97510242083337,218.49821095833335,58.0,93.0
1035,217.97510242083337,218.49821095833335,67.0,78.0
1036,217.97510242083337,218.51501765833336,39.0,82.0
1037,217.97510242083337,218.51501765833336,63.0,78.0
1038,218.47930342083336,218.62216037083337,51.0,63.0
1039,218.73140392083337,218.80703407083337,65.0,44.0
1040,218.98350442083336,219.23350408333337,60.0,85.0
1041,218.98350442083336,219.29022669583335,65.0,75.0
1042,218.98350442083336,219.29442837083337,68.0,75.0
1043,218.98350442083336,219.46039453333336,41.0,70.0
1044,219.23560492083337,219.49190709583337,48.0,67.0
1045,219.48770542083335,219.80493188333335,53.0,43.0
1046,219.73980592083336,219.86165449583336,80.0,67.0
1047,219.73980592083336,219.86795700833335,72.0,66.0
1048,219.99190642083335,220.14106588333337,70.0,64.0
1049,219.99190642083335,220.16627593333337,79.0,73.0
1050,219.73980592083336,220.27131780833335,55.0,62.0
1051,219.99190642083335,220.36585549583336,56.0,61.0
1052,220.24400692083336,220.54442668333337,58.0,64.0
1053,220.49610742083337,220.61165348333336,80.0,80.0
1054,220.49610742083337,220.61375432083335,72.0,82.0
1055,220.49610742083337,220.64316604583337,56.0,45.0
1056,220.74820792083335,220.84904812083334,77.0,59.0
1057,220.74820792083335,220.85955230833335,68.0,48.0
1058,220.74820792083335,220.85955230833335,75.0,49.0
1059,221.00030842083336,221.38266084583336,73.0,75.0
1060,221.00030842083336,221.39736670833335,36.0,72.0
1061,221.00030842083336,221.39736670833335,77.0,78.0
1062,221.00030842083336,221.41837508333336,68.0,59.0
1063,221.75660992083337,221.90576938333336,53.0,45.0
1064,221.50450942083336,222.11585313333336,46.0,61.0
1065,222.00871042083335,222.31543269583335,61.0,78.0
1066,222.00871042083335,222.32803772083335,53.0,91.0
1067,222.00871042083335,222.36165112083336,56.0,95.0
1068,221.00030842083336,222.44148294583337,34.0,64.0
1069,222.26081092083336,222.49190304583337,46.0,78.0
1070,222.51291142083335,222.79022197083336,36.0,70.0
1071,222.76501192083336,222.87005379583337,37.0,51.0
1072,223.01711242083337,223.45408662083335,61.0,75.0
1073,223.01711242083337,223.51916855833338,56.0,85.0
1074,223.01711242083337,223.52963605833338,53.0,75.0
1075,223.77236056458335,223.88654847083336,53.0,58.0
1076,223.01711242083337,224.09001055833335,39.0,80.0
1077,223.52126205833338,224.13760143125003,51.0,91.0
1078,224.02149781458337,224.33594863125003,55.0,103.0
1079,224.02149781458337,224.35247756458335,58.0,80.0
1080,224.02149781458337,224.37727096458337,63.0,78.0
1081,224.2698328979167,224.59421321458336,39.0,73.0
1082,224.5177668979167,224.60247768125004,51.0,76.0
1083,224.5177668979167,224.6789239979167,55.0,78.0
1084,224.7657008979167,224.95578363125003,63.0,63.0
1085,225.0136348979167,225.41239541458336,48.0,62.0
1086,225.0136348979167,225.55702358125004,67.0,72.0
1087,225.0136348979167,225.8256187479167,58.0,85.0
1088,225.0136348979167,225.8690071979167,63.0,76.0
1089,225.7574368979167,226.0673543979167,48.0,57.0
1090,225.0136348979167,226.24917266458337,36.0,76.0
1091,226.2533048979167,226.4516520979167,48.0,70.0
1092,226.0053708979167,226.5818174479167,63.0,80.0
1093,226.0053708979167,226.59008191458338,58.0,85.0
1094,226.5012388979167,226.77190018125003,39.0,44.0
1095,226.7491728979167,226.90619776458337,40.0,25.0
1096,226.0053708979167,226.94338786458337,67.0,78.0
1097,226.9971068979167,227.46611538125003,53.0,73.0
1098,226.9971068979167,227.77396676458338,56.0,73.0
1099,226.9971068979167,227.81115686458335,60.0,75.0
1100,226.9971068979167,227.82355356458336,65.0,67.0
1101,227.7409088979167,228.14793388125003,53.0,49.0
1102,227.9888428979167,228.30702486458335,56.0,85.0
1103,227.9888428979167,228.31942156458337,60.0,80.0
1104,227.9888428979167,228.3607438979167,65.0,80.0
1105,226.9971068979167,228.39380176458337,41.0,70.0
1106,228.2367768979167,228.48884313125004,48.0,64.0
1107,228.4847108979167,228.61694236458337,56.0,64.0
1108,228.9805788979167,229.40000058125003,51.0,72.0
1109,228.9805788979167,229.51776923125004,67.0,72.0
1110,228.9805788979167,229.73471148125003,63.0,69.0
1111,228.9805788979167,229.7367775979167,58.0,78.0
1112,229.7243808979167,230.09834801458337,51.0,33.0
1113,229.9723148979167,230.22851336458336,58.0,73.0
1114,229.9723148979167,230.3008274479167,63.0,76.0
1115,228.9805788979167,230.3070257979167,39.0,69.0
1116,229.9723148979167,230.3380175479167,67.0,76.0
1117,230.2202488979167,230.5797531979167,51.0,51.0
1118,230.4681828979167,230.80495991458338,58.0,69.0
1119,230.7161168979167,230.86074506458337,63.0,66.0
1120,230.9640508979167,231.46405113125005,58.0,76.0
1121,230.9640508979167,231.53223298125005,67.0,67.0
1122,231.4599188979167,231.71198513125003,51.0,53.0
1123,231.2119848979167,231.83388601458336,46.0,69.0
1124,231.7078528979167,231.83388601458336,58.0,91.0
1125,231.7078528979167,231.8504149479167,67.0,91.0
1126,231.9557868979167,232.22644818125002,51.0,44.0
1127,232.2037208979167,232.50537393125003,58.0,85.0
1128,230.9640508979167,232.5136383979167,39.0,72.0
1129,232.2037208979167,232.54049791458337,65.0,85.0
1130,232.4516548979167,232.57355578125004,51.0,67.0
1131,232.9475228979167,233.2574403979167,60.0,82.0
1132,232.9475228979167,233.28636603125003,63.0,80.0
1133,232.9475228979167,233.31735778125002,68.0,78.0
1134,233.44339089791671,233.5549611979167,58.0,75.0
1135,233.44339089791671,233.63140751458337,67.0,70.0
1136,233.6913248979167,233.8524819979167,63.0,70.0
1137,233.6913248979167,233.8586803479167,60.0,76.0
1138,233.6913248979167,233.8772753979167,68.0,70.0
1139,234.1916718854167,234.3303271604167,60.0,80.0
1140,233.9395713854167,234.4269656854167,56.0,67.0
1141,232.9475228979167,234.4731841104167,44.0,69.0
1142,233.1954568979167,234.4836882979167,51.0,64.0
1143,234.4437723854167,234.6139402229167,63.0,85.0
1144,234.6958728854167,234.8933516104167,68.0,72.0
1145,234.9479733854167,234.9962926479167,68.0,62.0
1146,234.9479733854167,235.0572169354167,36.0,70.0
1147,234.9479733854167,235.1160403854167,48.0,78.0
1148,234.9479733854167,235.6874681854167,67.0,88.0
1149,234.9479733854167,235.7084765604167,63.0,93.0
1150,234.9479733854167,235.7126782354167,58.0,82.0
1151,235.9563753854167,236.1160390354167,58.0,93.0
1152,236.2084758854167,236.3870470729167,63.0,82.0
1153,235.4521743854167,236.4311646604167,48.0,70.0
1154,235.7042748854167,236.4416688479167,55.0,72.0
1155,236.4605763854167,236.6601559479167,65.0,88.0
1156,236.7126768854167,236.8618363479167,67.0,93.0
1157,236.9647773854167,237.2714996604167,49.0,69.0
1158,236.9647773854167,237.3933482354167,56.0,82.0
1159,236.9647773854167,237.3933482354167,65.0,75.0
1160,236.9647773854167,237.4185582854167,61.0,85.0
1161,237.7210788854167,237.9269609604167,56.0,46.0
1162,237.4689783854167,238.3198175729167,49.0,41.0
1163,238.2252798854167,238.52990132291671,56.0,88.0
1164,238.2252798854167,238.5509096979167,61.0,91.0
1165,238.2252798854167,238.5551113729167,65.0,78.0
1166,236.9647773854167,238.6538507354167,37.0,72.0
1167,238.4773803854167,238.6790607854167,49.0,53.0
1168,238.9815813854167,239.4941857354167,68.0,67.0
1169,238.9815813854167,239.5214966229167,60.0,70.0
1170,238.9815813854167,239.5277991354167,65.0,75.0
1171,239.7378828854167,239.8618322979167,60.0,69.0
1172,239.7378828854167,239.9269582604167,67.0,73.0
1173,239.4857823854167,240.0362018104167,53.0,69.0
1174,239.9899833854167,240.1580503854167,65.0,80.0
1175,239.9899833854167,240.2525880729167,60.0,88.0
1176,239.9899833854167,240.3009073354167,68.0,69.0
1177,238.9815813854167,240.5193944354167,41.0,75.0
1178,240.4941843854167,240.6055287729167,60.0,91.0
1179,240.4941843854167,240.6181337979167,67.0,82.0
1180,240.9983853854167,241.4311579104167,53.0,64.0
1181,240.9983853854167,241.7525860479167,61.0,78.0
1182,240.9983853854167,241.7609893979167,65.0,70.0
1183,240.9983853854167,241.7756952604167,56.0,88.0
1184,240.9983853854167,241.7798969354167,68.0,54.0
1185,242.00678738541671,242.1622493604167,56.0,91.0
1186,242.2588878854167,242.4353582354167,61.0,85.0
1187,241.7546868854167,242.4395599104167,53.0,62.0
1188,240.9983853854167,242.4479632604167,46.0,67.0
1189,242.5109883854167,242.7252738104167,63.0,85.0
1190,242.7630888854167,242.9878784979167,68.0,76.0
1191,243.0151893854167,243.2630882104167,67.0,101.0
1192,243.0151893854167,243.4731719604167,39.0,67.0
1193,243.2672898854167,243.5361970854167,46.0,67.0
1194,243.2672898854167,243.5761129979167,65.0,82.0
1195,243.5193903854167,243.7063649229167,67.0,85.0
1196,243.5193903854167,243.8072051229167,51.0,61.0
1197,243.7714908854167,243.9626670979167,68.0,85.0
1198,243.7714908854167,244.1181290729167,53.0,64.0
1199,244.0235913854167,244.1664483354167,55.0,70.0
1200,244.0235913854167,244.1979608979167,70.0,80.0
1201,244.2756918854167,244.4479605604167,72.0,88.0
1202,244.5277923854167,244.5824141604167,72.0,54.0
1203,244.5277923854167,244.7420778104167,73.0,88.0
1204,244.7798928854167,244.9857749604167,75.0,69.0
1205,245.0319933854167,245.7504798104167,72.0,85.0
1206,245.0319933854167,245.7630848354167,67.0,72.0
1207,245.0319933854167,245.8597233604167,63.0,93.0
1208,246.0403953854167,246.2525799729167,63.0,95.0
1209,245.7882948854167,246.3429159854167,60.0,72.0
1210,246.2924958854167,246.3597226854167,63.0,38.0
1211,246.2924958854167,246.5067813104167,67.0,85.0
1212,245.0319933854167,246.5319913604167,48.0,75.0
1213,245.5361943854167,246.6097223479167,55.0,50.0
1214,246.5445963854167,246.8114027479167,70.0,95.0
1215,246.7966968854167,247.2861920229167,72.0,82.0
1216,247.0487973854167,247.3345112854167,68.0,76.0
1217,247.0487973854167,247.3660238479167,63.0,76.0
1218,247.55299838541669,247.8576198229167,53.0,69.0
1219,247.8050988854167,248.1391320479167,56.0,91.0
1220,247.8050988854167,248.1727454479167,60.0,85.0
1221,248.0571993854167,248.33661077291669,53.0,49.0
1222,248.3092998854167,248.5677028979167,56.0,97.0
1223,248.3092998854167,248.6370305354167,63.0,93.0
1224,247.0487973854167,248.6391313729167,41.0,70.0
1225,247.3008978854167,248.6454338854167,48.0,67.0
1226,248.5614003854167,248.6958539854167,53.0,91.0
1227,249.0656013854167,249.3702228229167,58.0,88.0
1228,249.0656013854167,249.3891303604167,67.0,76.0
1229,249.0656013854167,249.3912311979167,63.0,91.0
1230,249.5698023854167,249.7399702229167,58.0,72.0
1231,249.8219028854167,249.9920707229167,63.0,69.0
1232,250.0740033854167,250.1664402354167,58.0,57.0
1233,250.0740033854167,250.2861879729167,67.0,78.0
1234,249.3177018854167,250.4059357104167,55.0,62.0
1235,250.3261038854167,250.5740027104167,58.0,63.0
1236,249.0656013854167,250.6664395604167,48.0,73.0
1237,250.5782043854167,250.6916496104167,55.0,66.0
1238,250.5782043854167,250.7756831104167,63.0,70.0
1239,250.8303048854167,251.0466911479167,65.0,76.0
1240,251.0824053854167,251.5571946604167,65.0,76.0
1241,251.0824053854167,251.6097155979167,56.0,88.0
1242,251.0824053854167,251.6139172729167,61.0,82.0
1243,251.0824053854167,251.6748415604167,37.0,73.0
1244,251.3345058854167,251.72736249791672,44.0,64.0
1245,251.8387068854167,251.9668579729167,56.0,78.0
1246,251.5866063854167,252.0277822604167,49.0,66.0
1247,252.0908073854167,252.5992100604167,39.0,72.0
1248,252.0908073854167,252.6223192729167,58.0,76.0
1249,252.0908073854167,252.6223192729167,67.0,75.0
1250,252.0908073854167,252.6454284854167,63.0,75.0
1251,252.3429078854167,252.6622351854167,46.0,66.0
1252,252.8471088854167,252.9101340104167,58.0,36.0
1253,252.5950083854167,252.9458482479167,51.0,76.0
1254,253.0992093854167,253.6223179229167,68.0,73.0
1255,253.0992093854167,253.63702378541672,63.0,91.0
1256,253.8555108854167,254.0277795604167,58.0,69.0
1257,254.1076113854167,254.2945859229167,60.0,70.0
1258,254.3597118854167,254.4605520854167,63.0,78.0
1259,254.6118123854167,254.8050894354167,68.0,78.0
1260,254.8639128854167,255.2005071854167,70.0,52.0
1261,255.11609010208338,256.06867456875005,72.0,54.0
1262,253.3513098854167,256.63288349791674,51.0,67.0
1263,253.6034103854167,256.63705121458344,56.0,76.0
1264,253.0992093854167,256.6474705062501,44.0,72.0
1265,256.11580573750007,257.0955219645834,80.0,44.0
1266,257.1144521708334,257.5982241083334,58.0,54.0
1267,257.1144521708334,257.6024308208334,63.0,45.0
1268,257.1144521708334,257.6192576708334,67.0,61.0
1269,257.1144521708334,258.35025162291674,48.0,58.0
1270,258.1246530458334,258.56530821041673,63.0,59.0
1271,258.1246530458334,258.58217539375005,58.0,59.0
1272,257.1144521708334,258.59904257708337,36.0,61.0
1273,258.1246530458334,258.59904257708337,67.0,57.0
1274,258.6306685458334,259.0865542770834,48.0,36.0
1275,259.04639833125003,259.8495172479167,56.0,50.0
1276,259.10346204375,260.1057315208334,61.0,58.0
1277,259.1964547604167,260.1523400333334,65.0,67.0
1278,261.04667817500007,261.26966558125,70.0,32.0
1279,261.1592337229167,261.4756634708334,77.0,48.0
1280,261.0806572083334,261.6179506729167,73.0,44.0
1281,261.3376236479167,261.8473091479167,82.0,40.0
1282,259.1119159270834,261.88128818125006,34.0,59.0
1283,259.1267102229167,261.90040138750004,46.0,48.0
1284,262.47934685,263.72443346458334,39.0,40.0
1285,262.3856780916667,263.72443346458334,58.0,45.0
1286,262.45167198958336,263.75644358958334,63.0,47.0
1287,262.5964327979167,263.78631970625,67.0,53.0
1288,262.4878621916667,263.8225978479167,51.0,40.0
1289,264.39122725833334,264.84901828750003,68.0,46.0
1290,264.85543591875,265.32253498958335,67.0,49.0
1291,265.34397926041663,265.42761191666665,68.0,56.0
1292,265.33969040625,265.81146436458334,56.0,56.0
1293,264.4147585729167,266.0044628020833,44.0,62.0
1294,264.8511574979167,266.40875090625,51.0,47.0
1295,265.82433092708334,266.41090201458337,63.0,59.0
1296,266.34421765625,266.78519486458333,70.0,61.0
1297,266.85403033125,267.0906522479167,63.0,45.0
1298,266.35282208958336,267.13797663125,43.0,59.0
1299,266.82606592291665,267.44558512291667,51.0,40.0
1300,267.39826073958335,267.57680273125004,56.0,58.0
1301,267.39610963125,267.61337157291666,68.0,67.0
1302,267.8956623895834,268.4129033895834,70.0,60.0
1303,268.42367924375003,268.66290320625006,68.0,50.0
1304,268.43229992708336,268.86333409375004,63.0,47.0
1305,268.41721373125006,269.24048898958335,61.0,52.0
1306,268.9646271229167,269.56376461458336,65.0,47.0
1307,269.57454046875006,269.91721263125004,61.0,51.0
1308,269.57454046875006,270.1413503979167,68.0,58.0
1309,268.41936890208336,270.17798830208335,56.0,55.0
1310,270.0766952729167,270.17798830208335,56.0,52.0
1311,268.41936890208336,270.2103158645834,49.0,45.0
1312,270.16936761875,270.3094537229167,63.0,48.0
1313,270.08747112708335,270.3396261145834,61.0,52.0
1314,270.0960918104167,270.4172122645834,65.0,52.0
1315,270.71247066875003,270.79867750208336,63.0,58.0
1316,270.69953964375003,270.8008326729167,58.0,50.0
1317,270.7103154979167,270.82884989375003,67.0,49.0
1318,271.48833216875005,271.6219527604167,60.0,46.0
1319,271.49048733958335,271.62410793125,63.0,60.0
1320,271.49048733958335,271.65643549375005,68.0,57.0
1321,272.47755558125004,272.85471047708336,61.0,41.0
1322,270.0896262979167,272.87841735625005,51.0,47.0
1323,270.1025573229167,272.9150552604167,39.0,37.0
1324,272.4991072895834,272.98402072708336,70.0,48.0
1325,273.74479603125,274.50126099375007,63.0,35.0
1326,273.8396235479167,274.51850236041673,67.0,50.0
1327,273.86117525625,274.5896229979167,32.0,57.0
1328,273.96462345625,274.63057124375,72.0,45.0
1329,275.7598807604167,276.00341506458335,80.0,46.0
1330,275.93660476875004,276.07238053125,84.0,36.0
1331,276.0055702354167,276.30082863958336,87.0,40.0
1332,276.2943631270834,276.3848803020834,92.0,47.0
