,start,end,pitch,velocity
0,31.115200854166666,32.5905100125,74.0,99.0
1,32.596682854166666,32.94374150416667,74.0,97.0
2,32.94962385416667,33.29668250416667,75.0,91.0
3,33.30256485416667,34.06538460416667,77.0,80.0
4,34.07179485416667,37.03152350416667,70.0,95.0
5,37.03740585416667,38.56037585416667,70.0,93.0
6,38.56662585416667,38.92204726250001,69.0,91.0
7,38.928071354166676,39.2834927625,70.0,85.0
8,39.28951685416667,39.67263335416667,72.0,72.0
9,39.67912685416667,42.88808076250001,74.0,82.0
10,43.079438854166675,43.99064135416667,67.0,97.0
11,43.80232985416667,44.18544635416667,69.0,91.0
12,44.19193985416667,44.57505635416667,70.0,82.0
13,44.581549854166674,44.959754604166676,72.0,99.0
14,44.96616485416667,45.34436960416667,72.0,88.0
15,45.350779854166674,45.714977512500006,74.0,95.0
16,45.721150354166674,46.085348012500006,75.0,99.0
17,46.091520854166674,46.79985347916667,77.0,95.0
18,46.80580585416667,47.514138479166675,74.0,99.0
19,47.520090854166675,49.41249673750001,70.0,80.0
20,49.41882585416668,49.79224373750001,67.0,88.0
21,49.79857285416668,50.18673090416668,74.0,82.0
22,50.19330985416668,50.58146790416668,70.0,70.0
23,50.58804685416668,51.331796854166676,67.0,93.0
24,51.33804685416668,51.71625160416668,74.0,95.0
25,51.722661854166674,52.100866604166676,70.0,75.0
26,52.10727685416668,55.41615485416668,72.0,82.0
27,55.42240485416668,55.79115485416668,74.0,82.0
28,55.79740485416668,56.17082273750001,74.0,88.0
29,56.17715185416668,56.55056973750001,74.0,88.0
30,56.556898854166676,56.91665430416668,74.0,91.0
31,56.92275185416668,57.28250730416668,75.0,85.0
32,57.28860485416668,58.04176973750001,77.0,80.0
33,58.04809885416668,61.42657785416667,70.0,95.0
34,61.432827854166675,61.80157785416667,70.0,88.0
35,61.807827854166675,62.18124573750001,70.0,91.0
36,62.18757485416668,62.56099273750001,70.0,88.0
37,62.56732185416668,62.93607185416668,69.0,99.0
38,62.94232185416668,63.31107185416668,70.0,88.0
39,63.31732185416668,64.06107185416668,72.0,95.0
40,64.06732185416668,64.43151951250002,72.0,91.0
41,64.43769235416669,67.05236460416668,74.0,99.0
42,67.05877485416667,67.80252485416668,67.0,95.0
43,67.80877485416667,68.17752485416668,69.0,97.0
44,68.18377485416667,68.55252485416668,70.0,88.0
45,68.55877485416667,68.92752485416668,72.0,99.0
46,68.93377485416667,69.30252485416668,72.0,97.0
47,69.30877485416667,69.67752485416668,74.0,103.0
48,69.68377485416667,70.05252485416668,75.0,101.0
49,70.05877485416667,70.42752485416668,74.0,91.0
50,70.43377485416667,70.80252485416668,77.0,97.0
51,70.80877485416667,71.1821927375,77.0,103.0
52,71.18852185416667,71.5619397375,74.0,91.0
53,71.56826885416667,72.3214337375,70.0,95.0
54,72.32776285416668,72.70118073750001,74.0,101.0
55,72.70750985416667,73.0809277375,70.0,85.0
56,73.08725685416667,73.4606747375,67.0,97.0
57,73.46700385416668,73.84042173750001,75.0,85.0
58,73.84675085416667,74.21094851250001,75.0,82.0
59,74.21712135416668,74.5813190125,67.0,95.0
60,74.58749185416667,75.3220600125,69.0,85.0
61,75.32823285416667,76.05384130416667,72.0,99.0
62,76.05993885416667,77.94712752083333,70.0,93.0
63,77.95546085416667,78.49182444583334,70.0,99.0
64,78.50091535416668,79.03727894583334,72.0,97.0
65,79.04636985416667,79.55499017083334,74.0,99.0
66,79.56361085416667,80.07223117083333,75.0,106.0
67,80.08085185416667,80.8154200125,77.0,103.0
68,80.82159285416667,81.20470935416667,82.0,82.0
69,81.21120285416667,81.98392935416666,81.0,101.0
70,81.99042285416667,83.15275935416666,77.0,97.0
71,83.15925285416667,83.8938210125,77.0,103.0
72,83.89999385416667,84.2641915125,82.0,88.0
73,84.27036435416667,85.0049325125,81.0,103.0
74,85.01110535416667,85.7456735125,82.0,97.0
75,85.75184635416667,86.1160440125,77.0,91.0
76,86.12221685416667,86.4864145125,79.0,106.0
77,86.49258735416667,86.8567850125,79.0,91.0
78,86.86295785416667,87.2271555125,79.0,91.0
79,87.23332835416667,87.5975260125,70.0,97.0
80,87.60369885416667,87.9771167375,69.0,99.0
81,87.98344585416666,88.35686373749999,79.0,82.0
82,88.36319285416667,88.9264842375,77.0,103.0
83,88.93281335416667,89.1163577375,75.0,91.0
84,89.12268685416666,91.0150927375,77.0,99.0
85,91.02142185416666,91.39483973749999,74.0,97.0
86,91.40116885416667,91.7745867375,74.0,99.0
87,91.78091585416666,92.1543337375,72.0,93.0
88,92.16066285416667,92.88627130416667,74.0,101.0
89,92.89236885416668,93.25212430416667,81.0,99.0
90,93.25822185416668,93.98383030416667,81.0,97.0
91,93.98992785416668,95.1089457375,74.0,99.0
92,95.11527485416667,95.8684397375,74.0,95.0
93,95.87476885416666,96.2481867375,82.0,82.0
94,96.25451585416667,97.0076807375,81.0,101.0
95,97.01400985416667,97.77687335416667,79.0,101.0
96,97.78336685416667,98.16648335416667,77.0,93.0
97,98.17297685416666,98.53273230416666,79.0,99.0
98,98.53882985416666,98.89858530416666,79.0,101.0
99,98.90468285416667,99.26443830416666,79.0,91.0
100,99.27053585416667,99.63029130416666,79.0,91.0
101,99.63638885416667,99.99614430416666,79.0,93.0
102,100.00224185416667,100.36199730416666,81.0,93.0
103,100.36809485416666,101.13091460416666,82.0,103.0
104,101.13732485416665,101.50152251249999,79.0,97.0
105,101.50769535416666,102.61263401249998,77.0,93.0
106,102.61880685416665,102.98300451249999,70.0,99.0
107,102.98917735416666,103.35337501249998,72.0,91.0
108,103.35954785416665,103.72374551249999,74.0,91.0
109,103.72991835416666,104.09411601249998,75.0,95.0
110,104.10028885416665,104.83485701249998,77.0,88.0
111,104.84102985416665,105.20522751249999,82.0,75.0
112,105.21140035416666,105.95997560416664,81.0,103.0
113,105.96638585416665,107.11382060416665,77.0,97.0
114,107.12023085416665,107.83709776249998,77.0,99.0
115,107.84312185416665,108.20731951249999,82.0,75.0
116,108.21349235416666,108.96697935416665,81.0,103.0
117,108.97347285416666,109.74619935416665,82.0,88.0
118,109.75269285416665,110.13580935416665,77.0,93.0
119,110.14230285416666,110.49772426249999,79.0,76.0
120,110.50374835416666,110.85916976249999,79.0,88.0
121,110.86519385416666,111.23394385416667,79.0,88.0
122,111.24019385416666,111.60894385416667,79.0,88.0
123,111.61519385416666,111.98394385416667,81.0,97.0
124,111.99019385416666,112.35894385416667,82.0,93.0
125,112.36519385416666,113.10894385416667,84.0,88.0
126,113.11519385416666,114.98394385416667,77.0,99.0
127,114.99019385416666,115.35894385416667,74.0,82.0
128,115.36519385416666,115.73394385416667,74.0,91.0
129,115.74019385416666,116.10894385416667,72.0,76.0
130,116.11519385416666,116.85894385416667,74.0,95.0
131,116.86519385416666,117.23394385416667,81.0,95.0
132,117.24019385416666,117.98394385416667,81.0,97.0
133,117.99019385416666,118.74339860416666,74.0,97.0
134,118.74980885416666,119.12801360416667,72.0,85.0
135,119.13442385416666,119.52775718749999,74.0,82.0
136,119.53442385416666,119.92775718749999,82.0,72.0
137,119.93442385416665,120.35585200416665,82.0,73.0
138,120.36299485416666,121.13680384583331,81.0,97.0
139,121.14870860416664,123.63680309583332,82.0,75.0
140,123.64870785416664,124.33261572916665,79.0,88.0
141,124.33836285416665,124.69811830416664,70.0,97.0
142,124.70421585416665,125.42982430416664,70.0,93.0
143,125.43592185416665,126.58908673749998,79.0,80.0
144,126.59541585416666,128.12763635416667,77.0,99.0
145,128.13412985416667,128.51724635416667,75.0,78.0
146,128.52373985416668,128.90685635416668,74.0,95.0
147,128.52373985416668,128.90685635416668,75.0,46.0
148,128.91334985416665,129.2687712625,67.0,80.0
149,129.27479535416666,139.4237725041667,70.0,69.0
150,139.42965485416667,139.77671350416668,74.0,82.0
151,139.7825958541667,140.1513458541667,74.0,82.0
152,140.1575958541667,140.5263458541667,74.0,78.0
153,140.5325958541667,140.9013458541667,74.0,88.0
154,140.9075958541667,141.2763458541667,75.0,80.0
155,141.2825958541667,142.0759291875,77.0,99.0
156,142.0825958541667,145.3971278541667,70.0,93.0
157,145.4033778541667,145.7721278541667,70.0,88.0
158,145.7783778541667,146.1471278541667,70.0,80.0
159,146.1533778541667,146.5221278541667,70.0,85.0
160,146.5283778541667,146.8971278541667,69.0,91.0
161,146.9033778541667,147.2721278541667,70.0,70.0
162,147.2783778541667,148.0411976041667,72.0,91.0
163,148.0476078541667,148.4073633041667,72.0,99.0
164,148.4134608541667,151.0058583041667,74.0,95.0
165,151.0119558541667,151.7375643041667,67.0,93.0
166,151.7436618541667,152.1318199041667,69.0,85.0
167,152.1383988541667,152.5265569041667,70.0,80.0
168,152.53313585416672,152.91134060416672,72.0,95.0
169,152.9177508541667,153.29595560416672,72.0,95.0
170,153.3023658541667,153.68057060416672,74.0,95.0
171,153.6869808541667,154.06518560416671,75.0,95.0
172,154.0715958541667,154.4186545041667,74.0,85.0
173,154.4245368541667,154.7715955041667,77.0,93.0
174,154.7774778541667,155.1245365041667,77.0,91.0
175,155.1304188541667,155.4774775041667,74.0,88.0
176,155.4833598541667,156.30974742083336,70.0,91.0
177,156.31669185416672,156.67644730416671,74.0,91.0
178,156.6825448541667,157.04230030416673,70.0,82.0
179,157.04839785416672,157.42660260416673,67.0,85.0
180,157.43301285416672,157.81121760416673,75.0,72.0
181,157.81762785416672,158.18637785416672,75.0,80.0
182,158.19262785416672,158.56137785416672,67.0,91.0
183,158.56762785416672,159.32079273750006,69.0,82.0
184,159.3271218541667,160.05273030416672,72.0,97.0
185,160.0588278541667,161.71611717083337,70.0,95.0
186,161.7235798541667,162.3020114291667,70.0,99.0
187,162.3118153541667,162.8902469291667,72.0,93.0
188,162.9000508541667,163.4779723541667,74.0,85.0
189,163.4844658541667,163.85828326250004,75.0,97.0
190,163.8644561041667,164.41383901250003,77.0,78.0
191,164.42001185416672,164.78420951250004,82.0,82.0
192,164.7903823541667,165.5119429791667,81.0,101.0
193,165.5178953541667,166.67909209583337,77.0,97.0
194,166.6858488541667,167.4114573041667,77.0,103.0
195,167.4175548541667,167.7773103041667,82.0,88.0
196,167.78340785416668,168.5090163041667,81.0,103.0
197,168.51511385416669,169.25438473750003,82.0,97.0
198,169.2607138541667,169.63413173750004,77.0,91.0
199,169.6404608541667,170.0235773541667,79.0,106.0
200,170.0300708541667,170.4131873541667,79.0,91.0
201,170.4196808541667,170.8027973541667,79.0,91.0
202,170.8092908541667,171.1924073541667,70.0,97.0
203,171.19890085416668,171.55432226250002,69.0,99.0
204,171.56034635416668,171.91576776250002,79.0,82.0
205,171.92179185416668,172.4780418541667,77.0,103.0
206,172.48429185416668,172.6655418541667,75.0,91.0
207,172.67179185416668,174.5405418541667,77.0,99.0
208,174.54679185416668,174.9155418541667,74.0,97.0
209,174.92179185416668,175.2905418541667,74.0,99.0
210,175.29679185416668,175.6655418541667,72.0,93.0
211,175.67179185416668,176.4155418541667,74.0,101.0
212,176.42179185416668,176.7905418541667,81.0,99.0
213,176.79679185416668,177.5405418541667,81.0,97.0
214,177.54679185416668,178.6655418541667,74.0,99.0
215,178.67179185416668,179.4155418541667,74.0,95.0
216,179.42179185416668,179.7905418541667,82.0,82.0
217,179.79679185416668,180.5405418541667,81.0,101.0
218,180.54679185416668,181.2905418541667,79.0,101.0
219,181.29679185416668,181.6655418541667,77.0,93.0
220,181.67179185416668,182.0405418541667,79.0,99.0
221,182.04679185416668,182.4155418541667,79.0,101.0
222,182.42179185416668,182.7905418541667,79.0,91.0
223,182.79679185416668,183.1655418541667,79.0,91.0
224,183.17179185416668,183.5405418541667,79.0,93.0
225,183.54679185416668,183.9155418541667,81.0,93.0
226,183.92179185416668,184.6655418541667,82.0,103.0
227,184.67179185416668,185.0405418541667,79.0,97.0
228,185.04679185416668,186.1655418541667,77.0,93.0
229,186.17179185416668,186.5405418541667,70.0,99.0
230,186.54679185416668,186.9155418541667,72.0,91.0
231,186.92179185416668,187.2905418541667,74.0,91.0
232,187.29679185416668,187.6655418541667,75.0,95.0
233,187.67179185416668,188.4155418541667,77.0,88.0
234,188.42179185416668,188.7905418541667,82.0,75.0
235,188.79679185416668,189.5405418541667,81.0,103.0
236,189.54679185416668,190.6655418541667,77.0,97.0
237,190.67179185416668,191.4155418541667,77.0,99.0
238,191.42179185416668,191.7905418541667,82.0,75.0
239,191.79679185416668,192.5405418541667,81.0,103.0
240,192.54679185416668,193.2905418541667,82.0,88.0
241,193.29679185416668,193.6655418541667,77.0,93.0
242,193.67179185416668,194.0405418541667,79.0,76.0
243,194.04679185416668,194.4155418541667,79.0,88.0
244,194.42179185416668,194.7905418541667,79.0,88.0
245,194.79679185416668,195.1655418541667,79.0,88.0
246,195.17179185416668,195.5405418541667,81.0,97.0
247,195.54679185416668,195.9155418541667,82.0,93.0
248,195.92179185416668,196.6655418541667,84.0,88.0
249,196.67179185416668,198.5405418541667,77.0,99.0
250,198.54679185416668,198.9155418541667,74.0,82.0
251,198.92179185416668,199.2905418541667,74.0,91.0
252,199.29679185416668,199.6655418541667,72.0,76.0
253,199.67179185416668,200.4155418541667,74.0,95.0
254,200.42179185416668,200.7905418541667,81.0,95.0
255,200.79679185416668,201.5405418541667,81.0,97.0
256,201.54679185416668,202.2905418541667,74.0,97.0
257,202.29679185416668,202.6655418541667,72.0,85.0
258,202.67179185416668,203.0405418541667,74.0,82.0
259,203.04679185416668,203.4155418541667,82.0,72.0
260,203.42179185416668,203.7905418541667,82.0,73.0
261,203.79679185416668,204.3530418541667,81.0,97.0
262,204.35929185416668,205.6655418541667,82.0,75.0
263,207.17179185416668,207.9155418541667,79.0,88.0
264,207.92179185416668,208.2905418541667,70.0,97.0
265,208.29679185416668,209.0405418541667,70.0,93.0
266,209.04679185416668,210.1655418541667,79.0,80.0
267,210.17179185416668,211.6945183541667,77.0,99.0
268,211.7010118541667,212.07442973750003,75.0,78.0
269,212.0807588541667,212.45417673750003,74.0,95.0
270,212.46050585416668,212.81592726250003,67.0,80.0
271,212.82195135416669,216.1684396041667,70.0,69.0
272,232.62706935416674,233.4168528458334,70.0,99.0
273,233.11887285416674,233.4168528458334,72.0,93.0
274,233.42190335416674,233.87441846250007,74.0,85.0
275,233.87957310416675,234.18369696250008,75.0,97.0
276,234.34349085416676,234.9067822375001,77.0,78.0
277,235.10298485416675,235.50163359583343,82.0,82.0
278,235.50839035416675,236.31244459583343,81.0,101.0
279,236.31920135416675,237.39314587916675,77.0,97.0
280,237.39876385416676,238.14251385416676,77.0,103.0
281,238.14876385416676,238.51751385416676,82.0,88.0
282,238.52376385416676,239.26751385416676,81.0,103.0
283,239.27376385416676,240.01751385416676,82.0,97.0
284,240.02376385416676,240.39251385416676,77.0,91.0
285,240.39876385416676,240.75851930416675,79.0,106.0
286,240.76461685416675,241.12437230416677,79.0,91.0
287,241.13046985416676,241.47349290416676,79.0,91.0
288,241.47930685416677,241.82232990416676,70.0,97.0
289,241.82814385416677,242.23225304583343,69.0,99.0
290,242.23910235416676,242.64321154583342,79.0,82.0
291,242.65006085416678,243.25964929583344,77.0,103.0
292,243.26649860416677,243.46512854583344,75.0,91.0
293,243.47197785416677,245.19536930416677,77.0,99.0
294,245.20146685416677,245.5612223041668,74.0,97.0
295,245.56731985416678,245.96596859583346,74.0,99.0
296,245.97272535416678,246.37137409583346,72.0,93.0
297,246.37813085416678,247.18218509583346,74.0,101.0
298,247.18894185416679,247.5280222291668,81.0,99.0
299,247.5337693541668,248.21767722916678,81.0,97.0
300,248.22342435416678,249.2765844791668,74.0,99.0
301,249.28253685416678,250.10892442083343,74.0,95.0
302,250.1158688541668,250.50402690416678,82.0,82.0
303,250.51060585416678,251.26076426250015,81.0,101.0
304,251.2667883541668,251.99243151250013,79.0,101.0
305,251.99860435416682,252.36280201250014,77.0,93.0
306,252.36897485416682,252.74717960416683,79.0,99.0
307,252.75358985416682,253.13179460416683,79.0,101.0
308,253.13820485416682,253.51640960416682,79.0,91.0
309,253.5228198541668,253.90102460416682,79.0,91.0
310,253.9074348541668,254.2586249791668,79.0,93.0
311,254.26457735416682,254.6157674791668,81.0,93.0
312,254.6217198541668,255.35628801250013,82.0,103.0
313,255.3624608541668,255.72665851250014,79.0,97.0
314,255.7328313541668,256.8766197375001,77.0,93.0
315,256.8829488541668,257.2563667375001,70.0,99.0
316,257.2626958541668,257.6361137375001,72.0,91.0
317,257.6424428541668,258.01586073750013,74.0,91.0
318,258.02218985416675,258.3956077375001,75.0,95.0
319,258.40193685416676,259.10193650416676,77.0,88.0
320,259.10781885416674,259.45487750416675,82.0,75.0
321,259.4607598541668,260.1919056041668,81.0,103.0
322,260.19831585416676,261.36582590416674,77.0,97.0
323,261.37240485416675,262.1069730125001,77.0,99.0
324,262.11314585416676,262.47734351250006,82.0,75.0
325,262.48351635416674,263.21808451250007,81.0,103.0
326,263.22425735416675,264.0043494208334,82.0,88.0
327,264.01129385416675,264.4210154208334,77.0,93.0
328,264.4279598541667,264.80137773750005,79.0,76.0
329,264.8077068541667,265.18112473750006,79.0,88.0
330,265.18745385416673,265.5226810375001,79.0,88.0
331,265.52836285416674,265.86359003750005,79.0,88.0
332,265.86927185416675,266.2426897375001,81.0,97.0
333,266.24901885416676,266.6224367375001,82.0,93.0
334,266.6287658541668,267.3819307375001,84.0,88.0
335,267.38825985416673,269.2806657375001,77.0,99.0
336,269.2869948541668,269.6604127375001,74.0,82.0
337,269.66674185416673,270.02649730416675,74.0,91.0
338,270.03259485416675,270.3923503041667,72.0,76.0
339,270.3984478541667,271.12405630416674,74.0,95.0
340,271.13015385416674,271.48990930416676,81.0,95.0
341,271.49600685416675,272.22161530416673,81.0,97.0
342,272.2277128541667,272.9533213041667,74.0,97.0
343,272.95941885416676,273.3191743041667,72.0,85.0
344,273.3252718541667,273.71342990416673,74.0,82.0
345,273.72000885416674,274.1081669041667,82.0,72.0
346,274.1147458541667,274.5029039041667,82.0,73.0
347,274.5094828541667,275.0950094041667,81.0,97.0
348,274.90421985416674,275.49632535416674,84.0,85.0
349,275.1015883541667,276.4765889041667,82.0,75.0
350,278.5884278541667,279.46342692083334,79.0,88.0
351,279.4707798541667,279.9046029208334,70.0,97.0
352,279.9119558541667,280.67378407083334,70.0,93.0
353,280.67921885416666,281.7136384791667,79.0,80.0
354,281.7195908541667,283.2516406041667,77.0,99.0
