,start,end,pitch,velocity
0,7.071910854166665,7.431666304166665,46.0,73.0
1,7.437763854166666,7.7975193041666655,53.0,46.0
2,7.803616854166665,8.172366854166665,60.0,88.0
3,8.178616854166666,10.0381850125,65.0,78.0
4,10.044357854166666,10.4177757375,46.0,69.0
5,10.424104854166666,10.7975227375,53.0,63.0
6,10.803851854166666,11.192009904166666,60.0,76.0
7,11.198588854166665,12.285185904166667,63.0,101.0
8,13.819723854166666,14.467872229166666,56.0,88.0
9,14.190094354166666,14.5542920125,63.0,70.0
10,13.050493854166666,14.560464854166666,44.0,72.0
11,13.435108854166666,14.560464854166666,51.0,48.0
12,14.560464854166666,14.9246625125,56.0,69.0
13,14.930835354166666,15.8505887625,62.0,72.0
14,16.412317354166667,17.57744121875,56.0,75.0
15,17.153058354166667,17.987935189583332,63.0,64.0
16,16.782687854166667,18.000280872916665,60.0,58.0
17,17.893799354166667,18.293683695833334,56.0,57.0
18,16.041946854166667,18.5315305375,44.0,85.0
19,18.264169854166667,18.590558220833334,60.0,99.0
20,18.680835854166666,18.9221549125,63.0,73.0
21,19.097501854166666,19.49358588125,58.0,87.0
22,19.097501854166666,19.519188270833332,49.0,79.0
23,19.097501854166666,19.550814752083333,61.0,77.0
24,19.820392854166666,20.251115408333334,58.0,76.0
25,19.458947354166664,20.546408854166668,54.0,84.0
26,20.181838354166665,21.01828385416667,61.0,82.0
27,19.097501854166666,21.543283854166667,42.0,75.0
28,21.293283854166667,21.544846354166665,58.0,85.0
29,21.480783854166667,21.707346354166667,60.0,66.0
30,20.918283854166667,21.958908854166665,54.0,88.0
31,21.668283854166667,21.969846354166666,61.0,82.0
32,21.855783854166667,22.03390885416667,63.0,69.0
33,22.043283854166667,22.554221354166668,58.0,78.0
34,22.043283854166667,22.563596354166666,61.0,59.0
35,22.043283854166667,22.61203385416667,65.0,72.0
36,22.793283854166667,23.046408854166668,58.0,73.0
37,22.418283854166667,23.066721354166667,54.0,69.0
38,22.793283854166667,23.157346354166666,63.0,75.0
39,23.168283854166667,23.496408854166667,54.0,66.0
40,23.168283854166667,23.952658854166668,61.0,91.0
41,23.168283854166667,23.97140885416667,58.0,75.0
42,24.293283854166667,24.513596354166665,61.0,101.0
43,22.043283854166667,24.543283854166667,42.0,75.0
44,23.918283854166667,24.58859635416667,54.0,91.0
45,24.293283854166667,24.615158854166665,58.0,76.0
46,25.043283854166667,25.352658854166666,57.0,49.0
47,25.043283854166667,25.608908854166668,65.0,75.0
48,25.793283854166667,26.024533854166666,58.0,72.0
49,25.980783854166667,26.091721354166665,60.0,62.0
50,26.168283854166667,26.255783854166665,65.0,67.0
51,26.355783854166667,26.591721354166665,70.0,50.0
52,26.543283854166667,26.716721354166665,72.0,63.0
53,26.730783854166667,26.952658854166668,77.0,69.0
54,26.918283854166667,27.129221354166667,72.0,55.0
55,27.105783854166667,27.26047135416667,70.0,53.0
56,27.293283854166667,27.40109635416667,65.0,59.0
57,27.480783854166667,27.719846354166666,63.0,78.0
58,25.418283854166667,27.740158854166665,48.0,72.0
59,25.605783854166667,27.787033854166665,53.0,69.0
60,27.668283854166667,27.824533854166667,60.0,60.0
61,27.855783854166667,28.126096354166666,58.0,64.0
62,28.043283854166667,29.137033854166667,53.0,69.0
63,29.543283854166667,29.812033854166668,77.0,45.0
64,25.043283854166667,29.957346354166667,41.0,75.0
65,31.855941854166666,32.54267048958333,70.0,62.0
66,31.485571354166666,32.555016172916666,65.0,59.0
67,31.115200854166666,32.61727107916666,58.0,58.0
68,32.226312354166666,32.69962397916667,74.0,64.0
69,32.596682854166666,33.75929516666667,57.0,51.0
70,33.30256485416667,34.07654169166667,65.0,66.0
71,32.94962385416667,34.10027587916667,60.0,47.0
72,33.687179854166665,34.220529095833335,72.0,72.0
73,34.45154185416667,34.88983318333334,62.0,59.0
74,34.83128885416667,35.214200412500006,67.0,57.0
75,35.21103585416667,35.578124620833336,69.0,55.0
76,34.07179485416667,36.459464966666665,55.0,61.0
77,35.59078285416667,37.13318497916667,62.0,46.0
78,35.59078285416667,37.13805510416667,70.0,67.0
79,37.42701585416667,38.547875854166676,58.0,64.0
80,37.81662585416667,38.57716801458334,63.0,66.0
81,37.03740585416667,38.67204745833334,51.0,80.0
82,38.19162585416667,38.99584238541667,70.0,52.0
83,39.28951685416667,39.66613985416667,65.0,62.0
84,38.928071354166676,39.69211385416667,60.0,53.0
85,38.56662585416667,40.00055510416667,53.0,72.0
86,39.67912685416667,40.04438622916667,69.0,57.0
87,40.06873685416667,40.859321229166675,62.0,61.0
88,40.06873685416667,40.98107435416667,70.0,69.0
89,41.20834685416667,41.59471010416667,65.0,60.0
90,40.06873685416667,42.49610531666667,46.0,57.0
91,41.597956854166675,42.50845100000001,62.0,44.0
92,40.81873685416667,42.51616705208334,58.0,49.0
93,40.44373685416667,42.51771026250001,53.0,57.0
94,43.44088435416668,43.77522144166667,58.0,60.0
95,43.80232985416667,44.17245935416667,63.0,59.0
96,44.19193985416667,44.53934210416667,67.0,61.0
97,43.079438854166675,44.61680622916668,51.0,70.0
98,44.581549854166674,44.98860072916668,69.0,66.0
99,44.581549854166674,44.99501097916667,65.0,64.0
100,44.581549854166674,45.63936020208334,53.0,64.0
101,45.350779854166674,45.68102688333334,72.0,64.0
102,44.581549854166674,45.78287877083334,60.0,54.0
103,45.721150354166674,46.097473229166674,69.0,55.0
104,46.091520854166674,46.60640129166667,60.0,55.0
105,46.091520854166674,46.642115541666676,65.0,62.0
106,46.448663354166676,46.933781916666675,57.0,59.0
107,46.091520854166674,46.97098426041667,50.0,73.0
108,46.80580585416667,47.12574601041668,67.0,50.0
109,47.16294835416667,47.485864697916675,69.0,64.0
110,47.520090854166675,48.35395197500001,62.0,54.0
111,47.520090854166675,48.38717983750001,43.0,54.0
112,47.520090854166675,48.421989979166675,65.0,59.0
113,47.520090854166675,48.421989979166675,70.0,67.0
114,49.039078854166675,49.50426892916668,58.0,60.0
115,49.039078854166675,49.51059804583334,67.0,58.0
116,49.039078854166675,49.55648414166667,63.0,58.0
117,49.79857285416668,50.16863879166668,58.0,62.0
118,49.41882585416668,50.53377051666668,55.0,48.0
119,50.19330985416668,50.540349466666676,63.0,61.0
120,49.039078854166675,50.669296854166674,48.0,66.0
121,50.58804685416668,51.427790354166675,64.0,70.0
122,51.33804685416668,51.523944104166674,67.0,69.0
123,50.58804685416668,51.61368760416668,60.0,63.0
124,50.58804685416668,51.63131579166668,52.0,69.0
125,52.10727685416668,52.644478697916675,65.0,51.0
126,52.10727685416668,52.67424057291668,60.0,54.0
127,52.10727685416668,52.67721676041668,69.0,55.0
128,53.21117185416667,53.569937729166675,63.0,53.0
129,53.60078185416668,53.922840516666675,65.0,52.0
130,53.60078185416668,54.08019337916668,60.0,52.0
131,52.46441935416668,54.46252810625001,48.0,54.0
132,52.10727685416668,54.484133052083344,41.0,66.0
133,52.821561854166674,54.499565156250014,53.0,48.0
134,54.30666385416668,54.68475040625001,69.0,50.0
135,55.04740485416668,55.69584235416668,70.0,67.0
136,55.04740485416668,55.73334235416668,62.0,63.0
137,55.04740485416668,56.03791128750001,46.0,69.0
138,55.79740485416668,56.04582268333335,58.0,72.0
139,55.42240485416668,56.25943037083334,53.0,55.0
140,56.17715185416668,56.562996404166675,70.0,61.0
141,56.556898854166676,57.047751629166676,60.0,53.0
142,56.556898854166676,57.090434479166674,65.0,64.0
143,56.556898854166676,57.33765550833334,45.0,59.0
144,56.92275185416668,57.362971975000015,53.0,49.0
145,57.28860485416668,57.57341510416668,57.0,61.0
146,57.66835185416668,57.91835196250001,67.0,48.0
147,57.85822535416668,58.13195965000001,69.0,58.0
148,58.04809885416668,58.35031417500001,70.0,73.0
149,58.80759285416668,59.079744870833345,67.0,61.0
150,58.04809885416668,59.15094743333334,55.0,60.0
151,59.18733985416668,59.33765637500001,74.0,51.0
152,58.42784585416668,59.44050452083334,62.0,52.0
153,59.18733985416668,59.64579058541668,82.0,59.0
154,59.567086854166675,59.90196351458334,81.0,60.0
155,59.567086854166675,60.057827766666676,72.0,57.0
156,60.307827854166675,60.510952854166675,65.0,47.0
157,60.307827854166675,60.571890354166676,77.0,59.0
158,59.937457354166675,60.59064035416667,62.0,44.0
159,59.567086854166675,60.68439035416667,53.0,50.0
160,60.682827854166675,61.001577854166676,74.0,58.0
161,61.057827854166675,61.58595285416668,67.0,44.0
162,61.245327854166675,61.70001535416667,70.0,18.0
163,61.057827854166675,61.72657785416668,75.0,67.0
164,61.807827854166675,62.12586596666667,63.0,67.0
165,61.432827854166675,62.306245791666676,58.0,48.0
166,62.18757485416668,62.49295473333334,70.0,59.0
167,61.057827854166675,62.50244840833334,51.0,64.0
168,62.56732185416668,63.03294685416668,60.0,54.0
169,62.56732185416668,63.05169685416668,65.0,49.0
170,62.56732185416668,63.078259354166676,69.0,66.0
171,62.94232185416668,63.62669685416668,57.0,55.0
172,62.56732185416668,63.64700935416668,53.0,50.0
173,63.31732185416668,63.65013435416668,65.0,58.0
174,63.69232185416668,64.02357185416668,69.0,58.0
175,64.06732185416668,64.75096406875001,65.0,56.0
176,64.06732185416668,64.83429743125001,62.0,53.0
177,64.06732185416668,65.23398892916669,70.0,72.0
178,65.54880385416668,65.95312498333334,62.0,57.0
179,64.80806285416668,65.96392745625,58.0,48.0
180,65.17843335416669,65.97472992916668,60.0,55.0
181,65.91917435416669,66.23553248958335,65.0,52.0
182,66.28954485416668,66.54114716666668,58.0,44.0
183,66.48185235416668,66.65492910416668,69.0,61.0
184,64.43769235416669,66.68377522916668,53.0,52.0
185,66.28954485416668,66.69980085416668,70.0,62.0
186,64.06732185416668,66.80076229166667,46.0,67.0
187,66.67415985416667,66.90172372916668,65.0,53.0
188,66.86646735416667,67.01390310416667,62.0,60.0
189,67.05877485416667,67.49002485416668,63.0,56.0
190,67.05877485416667,67.53533735416667,58.0,69.0
191,67.43377485416667,68.02283735416667,55.0,61.0
192,67.80877485416667,68.06971235416667,58.0,64.0
193,68.18377485416667,68.41658735416667,63.0,60.0
194,68.37127485416667,68.54939985416667,65.0,64.0
195,67.05877485416667,68.55721235416667,51.0,58.0
196,68.55877485416667,69.02908735416668,69.0,64.0
197,68.55877485416667,69.06346235416667,60.0,61.0
198,69.30877485416667,69.46971235416667,70.0,63.0
199,69.30877485416667,69.47283735416667,62.0,63.0
200,68.55877485416667,69.53377485416667,53.0,50.0
201,68.93377485416667,69.71658735416668,57.0,55.0
202,69.68377485416667,69.79783735416667,63.0,48.0
203,69.68377485416667,69.83533735416667,72.0,56.0
204,70.05877485416667,70.47752485416667,60.0,59.0
205,70.05877485416667,70.52752485416667,69.0,59.0
206,70.05877485416667,70.57439985416667,65.0,56.0
207,70.43377485416667,71.00497747083334,57.0,49.0
208,70.05877485416667,71.01288886666667,50.0,67.0
209,70.80877485416667,71.073015475,65.0,72.0
210,71.18852185416667,71.528711875,69.0,51.0
211,71.56826885416667,72.0745981875,43.0,63.0
212,71.56826885416667,72.0840918625,65.0,49.0
213,71.56826885416667,72.08567414166667,62.0,54.0
214,71.56826885416667,72.25656029166667,70.0,70.0
215,71.94801585416667,72.4163704875,50.0,56.0
216,72.32776285416668,72.66795287500001,69.0,61.0
217,72.32776285416668,72.75181367083334,60.0,63.0
218,72.32776285416668,73.09200369166668,41.0,70.0
219,73.08725685416667,73.655295075,58.0,69.0
220,73.08725685416667,73.655295075,63.0,66.0
221,73.08725685416667,73.674282425,67.0,67.0
222,73.08725685416667,74.07977562708334,51.0,63.0
223,73.655295075,74.1368744125,55.0,52.0
224,73.84675085416667,74.16619541041668,58.0,66.0
225,74.21712135416668,74.50107207083335,63.0,62.0
226,74.58749185416667,74.89613393750001,69.0,72.0
227,74.58749185416667,74.91928209375,65.0,66.0
228,74.58749185416667,74.92699814583334,60.0,70.0
229,74.58749185416667,75.45475701666668,41.0,75.0
230,74.95786235416668,75.50353741666667,48.0,45.0
231,75.32823285416667,75.65902494166667,53.0,57.0
232,75.32823285416667,75.72304921666667,62.0,59.0
233,75.32823285416667,75.73981747916667,70.0,66.0
234,76.05993885416667,76.91441609583335,65.0,63.0
235,76.05993885416667,76.92001310833334,60.0,59.0
236,76.05993885416667,76.95546085416667,62.0,63.0
237,76.05993885416667,77.2700441875,70.0,59.0
238,77.45546085416667,77.57629418750001,70.0,38.0
239,76.05993885416667,77.74087752083334,46.0,72.0
240,76.95546085416667,77.74712752083335,58.0,60.0
241,76.50769985416667,77.75962752083333,53.0,50.0
242,77.45546085416667,77.79921085416667,60.0,67.0
243,77.95546085416667,78.12818811250001,65.0,66.0
244,77.95546085416667,78.23273355833334,62.0,78.0
245,77.95546085416667,78.37364263750001,70.0,67.0
246,77.95546085416667,78.47591535625001,46.0,70.0
247,78.50091535416668,78.68727897500001,60.0,73.0
248,78.50091535416668,79.00091531250001,69.0,76.0
249,78.50091535416668,79.1067146375,48.0,72.0
250,79.04636985416667,79.1584387375,65.0,73.0
251,79.04636985416667,79.18214561666667,70.0,76.0
252,79.56361085416667,79.67136939583334,53.0,78.0
253,79.56361085416667,79.6756797375,65.0,76.0
254,79.56361085416667,79.68214525,60.0,73.0
255,79.56361085416667,79.695076275,72.0,73.0
256,79.04636985416667,79.71016247083334,50.0,69.0
257,80.08085185416667,80.49288903541667,65.0,88.0
258,80.08085185416667,80.50677792916667,62.0,93.0
259,80.08085185416667,80.6487532875,70.0,78.0
260,80.45122235416667,80.95957972916666,53.0,61.0
261,80.82159285416667,81.21769635416666,58.0,63.0
262,81.60081285416666,82.04399422916667,60.0,69.0
263,81.60081285416666,82.05048772916666,65.0,73.0
264,81.99042285416667,82.43685097916666,62.0,76.0
265,80.08085185416667,82.62191572916667,46.0,70.0
266,81.21120285416667,82.63977285416667,53.0,66.0
267,82.38003285416667,82.64951310416667,58.0,64.0
268,82.57483785416667,82.81509735416667,60.0,72.0
269,82.76964285416666,82.96444785416666,65.0,56.0
270,82.96444785416666,83.51419125,70.0,69.0
271,83.15925285416667,83.51419125,70.0,70.0
272,83.15925285416667,83.6345616625,62.0,67.0
273,83.52962335416667,83.91542595833333,50.0,48.0
274,83.15925285416667,83.92931485208334,43.0,72.0
275,83.89999385416667,84.19474704375,62.0,66.0
276,83.89999385416667,84.30585819375,69.0,64.0
277,83.89999385416667,84.33054956041667,55.0,58.0
278,84.27036435416667,84.72561142708334,62.0,60.0
279,84.27036435416667,84.78116700208334,70.0,75.0
280,85.01110535416667,85.34598201458333,62.0,70.0
281,84.64073485416667,85.54351294791667,58.0,58.0
282,84.27036435416667,85.56820431458334,57.0,57.0
283,85.38147585416667,85.74875993333333,65.0,72.0
284,85.75184635416667,86.01264891458334,70.0,60.0
285,86.12221685416667,86.58055034791667,67.0,75.0
286,86.12221685416667,86.6160441875,58.0,78.0
287,86.12221685416667,86.6160441875,63.0,76.0
288,86.86295785416667,87.31666171666667,58.0,67.0
289,86.49258735416667,87.45555065416667,55.0,56.0
290,87.23332835416667,87.64167355416667,63.0,64.0
291,86.12221685416667,87.6733191375,51.0,72.0
292,87.60369885416667,88.0435724625,67.0,75.0
293,87.60369885416667,88.15116744583334,60.0,72.0
294,87.98344585416666,88.31255992083334,65.0,62.0
295,87.60369885416667,88.69705375833334,53.0,72.0
296,88.36319285416667,88.70971199166667,60.0,51.0
297,88.36319285416667,88.72869934166667,67.0,63.0
298,88.74293985416666,89.09578810833334,63.0,69.0
299,89.12268685416666,89.75243396249999,65.0,57.0
300,89.12268685416666,89.89009225,62.0,54.0
301,89.12268685416666,90.013510025,70.0,53.0
302,90.26192785416667,90.71920653333333,60.0,61.0
303,90.64167485416667,90.95180157083334,62.0,67.0
304,89.88218085416666,91.17490293333333,58.0,59.0
305,91.02142185416666,91.36002959583334,65.0,53.0
306,89.12268685416666,91.54990309583333,46.0,63.0
307,89.50243385416667,91.57838412083333,53.0,50.0
308,91.40116885416667,91.67490315,58.0,53.0
309,91.40116885416667,91.77142217916666,67.0,67.0
310,91.78091585416666,92.14325778333333,69.0,76.0
311,92.16066285416667,92.57224747916668,62.0,66.0
312,92.16066285416667,92.65761317916667,66.0,72.0
313,92.52651585416668,93.35883142916667,57.0,60.0
314,93.25822185416668,93.44267274166667,78.0,66.0
315,93.62407485416668,93.74297707916668,67.0,67.0
316,92.89236885416668,93.75669656666668,62.0,61.0
317,93.62407485416668,93.75669656666668,79.0,69.0
318,93.98992785416668,94.08139110416667,69.0,57.0
319,93.62407485416668,94.11340324166667,57.0,59.0
320,93.98992785416668,94.11340324166667,81.0,76.0
321,93.98992785416668,94.458629,62.0,51.0
322,94.35578085416667,94.50451509583334,70.0,60.0
323,94.35578085416667,94.525084725,82.0,59.0
324,94.35578085416667,94.66748985,57.0,52.0
325,92.16066285416667,94.74976836666667,50.0,73.0
326,94.73552785416666,94.904831725,72.0,61.0
327,94.73552785416666,94.93489502916667,84.0,61.0
328,95.11527485416667,95.341540775,86.0,66.0
329,95.11527485416667,95.41590789583333,74.0,61.0
330,96.25451585416667,96.46495898333333,62.0,61.0
331,95.87476885416666,96.651667925,55.0,59.0
332,96.25451585416667,96.6991363,70.0,73.0
333,96.63426285416666,96.83204775,60.0,63.0
334,96.63426285416666,96.98552882916667,69.0,67.0
335,97.01400985416667,97.24185805416667,62.0,59.0
336,97.01400985416667,97.30356694166667,70.0,70.0
337,95.49502185416667,97.56421122916667,50.0,66.0
338,95.11527485416667,97.57557485416667,43.0,75.0
339,97.39375685416667,97.63726310416666,55.0,52.0
340,97.39375685416667,97.68596435416667,65.0,66.0
341,97.78336685416667,97.95219785416667,62.0,62.0
342,98.17297685416666,98.54187862916666,36.0,72.0
343,98.53882985416666,98.98699977916667,48.0,58.0
344,98.17297685416666,99.27510901666666,67.0,73.0
345,98.17297685416666,99.28120656666667,63.0,76.0
346,98.17297685416666,99.32236502916666,60.0,72.0
347,98.90468285416667,99.36962104166666,50.0,76.0
348,99.27053585416667,99.61352304166667,51.0,66.0
349,99.63638885416667,100.09065632916666,60.0,67.0
350,99.63638885416667,100.26291211666667,67.0,69.0
351,99.63638885416667,100.30711935416666,64.0,72.0
352,100.36809485416666,100.62290229166666,60.0,67.0
353,99.63638885416667,100.67258172916665,48.0,73.0
354,100.00224185416667,100.68379966666666,55.0,59.0
355,100.75270985416665,101.08283772916666,70.0,67.0
356,101.13732485416665,101.28238663333332,65.0,53.0
357,101.13732485416665,101.80707817499999,41.0,62.0
358,101.50769535416666,101.87034980208331,48.0,67.0
359,101.87806585416665,102.33331292708331,53.0,57.0
360,101.13732485416665,102.72065874166665,72.0,75.0
361,101.13732485416665,102.74072047708331,60.0,69.0
362,102.98917735416666,103.27930091249998,60.0,72.0
363,102.61880685416665,103.65275783333331,57.0,67.0
364,103.35954785416665,103.66973314791665,65.0,88.0
365,102.24843635416666,103.69133809374998,55.0,63.0
366,103.72991835416666,104.04319006874998,69.0,80.0
367,104.10028885416665,104.48300503749998,70.0,82.0
368,104.10028885416665,104.50306677291665,62.0,72.0
369,104.10028885416665,104.80862243541665,46.0,75.0
370,104.47065935416666,104.86726443124998,53.0,47.0
371,104.84102985416665,105.07714104791665,65.0,56.0
372,104.84102985416665,105.10337562499998,74.0,66.0
373,104.84102985416665,105.21602998541665,58.0,60.0
374,105.21140035416666,105.69875791666665,65.0,60.0
375,105.21140035416666,105.71478354166665,72.0,78.0
376,105.21140035416666,105.98721916666665,60.0,52.0
377,105.96638585416665,106.33657779166666,74.0,73.0
378,105.96638585416665,106.37023160416665,70.0,72.0
379,105.96638585416665,106.37343672916666,65.0,63.0
380,105.58177085416665,106.41670591666664,62.0,66.0
381,106.35100085416664,106.50003916666665,60.0,67.0
382,106.54330835416665,106.69555179166665,65.0,70.0
383,106.73561585416665,106.95196179166665,72.0,49.0
384,106.92792335416665,107.09619241666665,74.0,61.0
385,106.92792335416665,107.14432722083332,46.0,58.0
386,107.12023085416665,107.42294146041665,70.0,76.0
387,107.12023085416665,107.47866430833332,65.0,75.0
388,107.12023085416665,107.81902548749999,43.0,63.0
389,107.48167635416665,107.88633174583332,50.0,51.0
390,107.84312185416665,107.95577621458332,69.0,67.0
391,107.84312185416665,108.14404788541665,62.0,72.0
392,107.84312185416665,108.15485035833332,70.0,66.0
393,107.84312185416665,108.37552944791665,55.0,58.0
394,108.21349235416666,108.60821347916665,62.0,51.0
395,108.21349235416666,108.63581085416665,69.0,60.0
396,108.58386285416665,108.95399235416666,58.0,66.0
397,108.97347285416666,109.29490110416666,62.0,75.0
398,108.97347285416666,109.29977122916665,70.0,72.0
399,109.16827785416666,109.38743347916666,58.0,55.0
400,108.21349235416666,109.60171897916665,57.0,60.0
401,109.36308285416665,109.62282285416666,62.0,67.0
402,109.55788785416665,109.77379672916665,65.0,59.0
403,109.75269285416665,109.92152385416665,70.0,56.0
404,110.14230285416666,110.56700131666666,58.0,64.0
405,110.14230285416666,110.60916995833333,63.0,63.0
406,110.14230285416666,110.61368802708333,67.0,69.0
407,110.50374835416666,111.03081885416667,55.0,55.0
408,110.86519385416666,111.19800635416667,58.0,52.0
409,110.86519385416666,111.28706885416666,63.0,49.0
410,110.86519385416666,111.34800635416666,67.0,56.0
411,110.14230285416666,111.63238135416667,51.0,56.0
412,111.24019385416666,111.63238135416667,55.0,56.0
413,111.61519385416666,111.97144385416667,69.0,67.0
414,111.61519385416666,111.97925635416667,60.0,64.0
415,111.61519385416666,112.00425635416666,65.0,70.0
416,111.99019385416666,112.58706885416666,57.0,56.0
417,112.36519385416666,112.66519385416666,63.0,75.0
418,112.36519385416666,112.67300635416666,58.0,70.0
419,112.36519385416666,112.68394385416666,67.0,69.0
420,111.61519385416666,112.69644385416666,53.0,63.0
421,112.74019385416666,113.01831885416667,65.0,69.0
422,113.11519385416666,113.84175635416666,62.0,60.0
423,113.11519385416666,113.84175635416666,65.0,64.0
424,113.11519385416666,113.90113135416667,70.0,66.0
425,114.24019385416666,114.57456885416666,60.0,72.0
426,113.49019385416666,114.86206885416667,53.0,62.0
427,114.61519385416666,115.17613135416666,62.0,73.0
428,114.99019385416666,115.31206885416667,53.0,54.0
429,113.86519385416666,115.52300635416667,58.0,70.0
430,113.11519385416666,115.64175635416666,46.0,69.0
431,115.36519385416666,115.73550635416666,60.0,66.0
432,115.36519385416666,115.73550635416666,67.0,78.0
433,115.74019385416666,116.07300635416667,69.0,70.0
434,116.11519385416666,116.47456885416666,38.0,67.0
435,116.49019385416666,116.95738135416666,50.0,57.0
436,116.86519385416666,117.29331885416666,55.0,58.0
437,116.11519385416666,117.29956885416667,69.0,63.0
438,116.11519385416666,117.35269385416666,62.0,69.0
439,116.11519385416666,117.39800635416667,66.0,72.0
440,117.24019385416666,117.67613135416666,57.0,75.0
441,117.61519385416666,118.10738135416666,62.0,66.0
442,117.61519385416666,118.15269385416666,66.0,78.0
443,117.61519385416666,118.54307829166666,50.0,67.0
444,118.36519385416666,118.57993722916666,62.0,57.0
445,118.36519385416666,118.64243716666667,57.0,66.0
446,118.36519385416666,118.70493710416666,67.0,70.0
447,117.99019385416666,118.71936016666666,54.0,70.0
448,118.74980885416666,118.89083435416666,62.0,30.0
449,118.74980885416666,119.05109060416666,69.0,64.0
450,119.13442385416666,119.73109052083332,62.0,66.0
451,119.13442385416666,119.77109052083333,43.0,75.0
452,119.13442385416666,119.80109052083333,67.0,62.0
453,119.13442385416666,119.84109052083332,70.0,61.0
454,119.93442385416665,120.13620936666665,62.0,60.0
455,119.93442385416665,120.23978069166665,69.0,64.0
456,119.53442385416666,120.34870915416666,50.0,58.0
457,120.36299485416666,120.43620906666665,62.0,44.0
458,120.36299485416666,120.46478046666665,60.0,48.0
459,120.36299485416666,120.50049471666665,67.0,66.0
460,120.36299485416666,120.52549469166665,41.0,55.0
461,120.80347061249998,121.84216077708332,60.0,53.0
462,120.80347061249998,121.85108934583332,64.0,67.0
463,120.80347061249998,121.86001791458331,67.0,63.0
464,120.80347061249998,121.91954170624999,70.0,69.0
465,122.72013670416665,123.33620794791665,76.0,59.0
466,122.73204146249998,123.33918413749998,84.0,52.0
467,122.73799384166665,123.35406508541665,72.0,49.0
468,120.80347061249998,123.49692218541665,55.0,70.0
469,120.80049442291664,123.52966027083332,48.0,69.0
470,123.64870785416664,124.06106407291665,67.0,70.0
471,123.64870785416664,124.09123647916664,58.0,63.0
472,123.64870785416664,124.09554682291665,63.0,70.0
473,123.64870785416664,124.44354559166665,51.0,70.0
474,124.33836285416665,124.62799647916664,65.0,46.0
475,124.33836285416665,124.69354514166665,63.0,51.0
476,124.33836285416665,124.69354514166665,67.0,61.0
477,124.33836285416665,124.71183779166665,58.0,48.0
478,124.70421585416665,125.13256874166665,51.0,39.0
479,125.07006885416665,125.47258852083331,63.0,61.0
480,125.07006885416665,125.48925518749998,67.0,56.0
481,125.07006885416665,125.51592185416665,58.0,55.0
482,125.43592185416665,125.90395985833332,51.0,40.0
483,125.83592185416666,126.19826378333332,67.0,66.0
484,123.64870785416664,126.20617517916665,39.0,67.0
485,125.83592185416666,126.214086575,58.0,58.0
486,125.83592185416666,126.26788406666665,63.0,66.0
487,126.21566885416665,126.40712463333332,51.0,59.0
488,126.59541585416666,127.64711735416667,65.0,67.0
489,126.59541585416666,127.65036410416667,60.0,69.0
490,126.59541585416666,127.68770172916666,69.0,67.0
491,128.13412985416667,128.53185672916666,58.0,61.0
492,128.13412985416667,128.65198647916665,63.0,61.0
493,128.13412985416667,128.66172672916667,67.0,60.0
494,128.13412985416667,129.11214487916666,53.0,50.0
495,128.91334985416665,129.31847001875,65.0,66.0
496,128.91334985416665,129.3260001333333,58.0,61.0
497,129.27479535416666,129.37569888958333,53.0,52.0
498,129.27479535416666,129.3937711645833,63.0,70.0
499,126.59541585416666,129.42539764583333,41.0,75.0
500,129.63624085416666,130.03383090416665,67.0,85.0
501,129.99768635416666,130.31395116666664,70.0,67.0
502,129.63624085416666,130.43166274375,51.0,78.0
503,130.35913185416666,130.67703319999998,60.0,69.0
504,130.35913185416666,130.82981103125,69.0,70.0
505,130.72950235416667,131.10809654166667,65.0,85.0
506,130.35913185416666,131.19362289166668,50.0,72.0
507,131.09987285416668,131.53079407916667,63.0,78.0
508,131.49460985416667,131.84329420416668,67.0,60.0
509,131.09987285416668,131.9014436291667,48.0,66.0
510,131.8893468541667,132.0768468666667,65.0,64.0
511,131.8893468541667,132.24821784583335,60.0,66.0
512,131.8893468541667,132.55668560833337,46.0,67.0
513,132.37321785416668,132.59297593333335,60.0,51.0
514,132.85708885416668,135.58519358333334,63.0,95.0
515,132.85708885416668,135.59539766666668,68.0,95.0
516,132.85708885416668,135.61070379166668,56.0,73.0
517,132.85708885416668,135.61580583333335,60.0,80.0
518,132.85708885416668,135.66937727083334,44.0,85.0
519,136.23060185416668,136.88111216666667,58.0,70.0
520,136.23060185416668,136.88876522916667,63.0,75.0
521,136.23060185416668,136.90152033333334,67.0,70.0
522,137.14896935416667,137.3479489791667,58.0,54.0
523,137.14896935416667,137.4499898125,63.0,62.0
524,137.45509185416668,137.56826755625002,65.0,60.0
525,137.65779460416667,137.9686054875,67.0,58.0
526,138.06320010416667,138.1949568916667,75.0,63.0
527,137.86049735416668,138.20171365000002,70.0,66.0
528,136.23060185416668,138.61049752916668,53.0,73.0
529,138.46860560416667,138.63245699375003,77.0,46.0
530,136.23060185416668,138.68144349166667,41.0,66.0
531,139.07671385416668,139.6870076666667,70.0,67.0
532,139.07671385416668,139.72230176666667,62.0,63.0
533,139.07671385416668,140.0200958541667,46.0,69.0
534,139.7825958541667,140.0279083541667,58.0,72.0
535,139.42965485416667,140.2388458541667,53.0,55.0
536,140.1575958541667,140.53884585416668,70.0,61.0
537,140.5325958541667,141.0357208541667,60.0,53.0
538,140.5325958541667,141.0794708541667,65.0,64.0
539,140.5325958541667,141.33426252083336,45.0,59.0
540,140.9075958541667,141.36092918750003,53.0,49.0
541,141.2825958541667,141.5825958541667,57.0,61.0
542,141.6825958541667,141.9459291875,67.0,48.0
543,141.88259585416668,142.16241506875002,69.0,58.0
544,142.0825958541667,142.37024623125004,70.0,73.0
545,142.8054868541667,143.06452279583337,67.0,61.0
546,142.0825958541667,143.13229382708337,55.0,60.0
547,143.1669323541667,143.31000453125003,74.0,51.0
548,142.4440413541667,143.40789602083336,62.0,52.0
549,143.1669323541667,143.6080653541667,82.0,59.0
550,143.5283778541667,143.86744035416672,81.0,60.0
551,143.5283778541667,144.0252528541667,72.0,57.0
552,144.2783778541667,144.4815028541667,65.0,47.0
553,144.2783778541667,144.5424403541667,77.0,59.0
554,143.9033778541667,144.5611903541667,62.0,44.0
555,143.5283778541667,144.6549403541667,53.0,50.0
556,144.6533778541667,144.9721278541667,74.0,58.0
557,145.0283778541667,145.5565028541667,67.0,44.0
558,145.2158778541667,145.6705653541667,70.0,18.0
559,145.0283778541667,145.6971278541667,75.0,67.0
560,145.7783778541667,146.0924403541667,63.0,67.0
561,145.4033778541667,146.2705653541667,58.0,48.0
562,146.1533778541667,146.4549403541667,70.0,59.0
563,145.0283778541667,146.4643153541667,51.0,64.0
564,146.5283778541667,146.9940028541667,60.0,54.0
565,146.5283778541667,147.0127528541667,65.0,49.0
566,146.5283778541667,147.03931535416672,69.0,66.0
567,146.9033778541667,147.59568522916672,57.0,55.0
568,146.5283778541667,147.6165185416667,53.0,50.0
569,147.2783778541667,147.61972366666672,65.0,58.0
570,147.6629928541667,148.0027361041667,69.0,58.0
571,148.0476078541667,148.7229115166667,65.0,56.0
572,148.0476078541667,148.8052284416667,62.0,53.0
573,148.0476078541667,149.2000448041667,70.0,72.0
574,149.5110198541667,149.93089122916672,62.0,57.0
575,148.7793138541667,149.9421091666667,58.0,48.0
576,149.1451668541667,149.9533271041667,60.0,55.0
577,149.8956348541667,150.2241601666667,65.0,52.0
578,150.2802498541667,150.5195786916667,58.0,44.0
579,150.4631763541667,150.6278102041667,69.0,61.0
580,148.4134608541667,150.6552491791667,53.0,52.0
581,150.2802498541667,150.67049305416668,70.0,62.0
582,148.0476078541667,150.7665294666667,46.0,67.0
583,150.64610285416668,150.8625658791667,65.0,53.0
584,150.8290293541667,150.9692730041667,62.0,60.0
585,151.0119558541667,151.4326868041667,63.0,56.0
586,151.0119558541667,151.4768940416667,58.0,69.0
587,151.3778088541667,151.9689908916667,55.0,61.0
588,151.7436618541667,152.0183330166667,58.0,64.0
589,152.1383988541667,152.3834647416667,63.0,60.0
590,152.3357673541667,152.5232674291667,65.0,64.0
591,151.0119558541667,152.5314911166667,51.0,58.0
592,152.53313585416672,153.0155071666667,69.0,64.0
593,152.53313585416672,153.05076354166673,60.0,61.0
594,153.3023658541667,153.46742979166672,70.0,63.0
595,153.3023658541667,153.4706349166667,62.0,63.0
596,152.53313585416672,153.53313485416672,53.0,50.0
597,152.9177508541667,153.7206346666667,57.0,55.0
598,153.6869808541667,153.80396791666672,63.0,48.0
599,153.6869808541667,153.8424294166667,72.0,56.0
600,154.0715958541667,154.4657133041667,60.0,59.0
601,154.0715958541667,154.51277210416671,69.0,59.0
602,154.0715958541667,154.5568897291667,65.0,56.0
603,154.4245368541667,154.9598307041667,57.0,49.0
604,154.0715958541667,154.9671836416667,50.0,67.0
605,154.7774778541667,155.0230659666667,65.0,72.0
606,155.1304188541667,155.4465951666667,69.0,51.0
607,155.4833598541667,156.03891452083337,43.0,63.0
608,155.4833598541667,156.04933117083337,65.0,49.0
609,155.4833598541667,156.05106727916672,62.0,54.0
610,155.4833598541667,156.2385669791667,70.0,70.0
611,155.9000258541667,156.40205755416673,50.0,56.0
612,156.31669185416672,156.6444351666667,69.0,61.0
613,156.31669185416672,156.7252277041667,60.0,63.0
614,156.31669185416672,157.05320554166673,41.0,70.0
615,157.04839785416672,157.62371779166673,58.0,69.0
616,157.04839785416672,157.62371779166673,63.0,66.0
617,157.04839785416672,157.64294854166673,67.0,67.0
618,157.04839785416672,158.05356535416672,51.0,63.0
619,157.62371779166673,158.1113778541667,55.0,52.0
620,157.81762785416672,158.14106535416673,58.0,66.0
621,158.19262785416672,158.4801278541667,63.0,62.0
622,158.56762785416672,158.88408368750004,69.0,72.0
623,158.56762785416672,158.90781787500006,65.0,66.0
624,158.56762785416672,158.9157292708334,60.0,70.0
625,158.56762785416672,159.4536460166667,41.0,75.0
626,158.94737485416672,159.5024264166667,48.0,45.0
627,159.3271218541667,159.6579139416667,53.0,57.0
628,159.3271218541667,159.7219382166667,62.0,59.0
629,159.3271218541667,159.7387064791667,70.0,66.0
630,160.0588278541667,160.7928014791667,65.0,63.0
631,160.0588278541667,160.79760916666672,60.0,59.0
632,160.0588278541667,160.8280578541667,62.0,63.0
633,160.0588278541667,161.10977415000002,70.0,59.0
634,161.27581885416672,161.38402776250004,70.0,38.0
635,160.0588278541667,161.53141575833337,46.0,72.0
636,160.8280578541667,161.53701277083337,58.0,60.0
637,160.4434428541667,161.54820679583338,53.0,50.0
638,161.27581885416672,161.5836545416667,60.0,67.0
639,161.7235798541667,161.9098544291667,65.0,66.0
640,161.7235798541667,162.0225995666667,62.0,78.0
641,161.7235798541667,162.1745604041667,70.0,67.0
642,161.7235798541667,162.2848545604167,46.0,70.0
643,162.3118153541667,162.5127958166667,60.0,73.0
644,162.3118153541667,162.8510312291667,69.0,76.0
645,162.3118153541667,162.9455053541667,48.0,72.0
646,162.9000508541667,162.9844663541667,65.0,73.0
647,162.9000508541667,163.0023234791667,70.0,76.0
648,163.2896608541667,163.3708296041667,53.0,78.0
649,163.2896608541667,163.3740763541667,65.0,76.0
650,163.2896608541667,163.3789464791667,60.0,73.0
651,163.2896608541667,163.3886867291667,72.0,73.0
652,162.9000508541667,163.4000503541667,50.0,69.0
653,163.6792708541667,164.09130803541672,65.0,88.0
654,163.6792708541667,164.1051969291667,62.0,93.0
655,163.6792708541667,164.24717228750004,70.0,78.0
656,164.0496413541667,164.55118473958336,53.0,61.0
657,164.42001185416672,164.79655519583338,58.0,63.0
658,165.1607528541667,165.5670024479167,60.0,69.0
659,165.1607528541667,165.5729548229167,65.0,73.0
660,165.5178953541667,165.93415948958335,62.0,76.0
661,163.6792708541667,166.12672710208335,46.0,70.0
662,164.7903823541667,166.14530818750004,53.0,66.0
663,165.8750378541667,166.15544332500002,58.0,64.0
664,166.07774060416668,166.32774066250002,60.0,72.0
665,166.2804433541667,166.48314610416668,65.0,56.0
666,166.48314610416668,167.0364579791667,70.0,69.0
667,166.6858488541667,167.0364579791667,70.0,70.0
668,166.6858488541667,167.1553602041667,62.0,67.0
669,167.05170185416668,167.4327987291667,50.0,48.0
670,166.6858488541667,167.4465182166667,43.0,72.0
671,167.4175548541667,167.7087128666667,62.0,66.0
672,167.4175548541667,167.81846876666668,69.0,64.0
673,167.4175548541667,167.84285896666668,55.0,58.0
674,167.78340785416668,168.2331021666667,62.0,60.0
675,167.78340785416668,168.2879801166667,70.0,75.0
676,168.51511385416669,168.8459059416667,62.0,70.0
677,168.1492608541667,169.0471061666667,58.0,58.0
678,167.78340785416668,169.07242263333336,57.0,57.0
679,168.8809668541667,169.25754929583337,65.0,72.0
680,169.2607138541667,169.52811903333335,70.0,60.0
681,169.6404608541667,170.12260322916669,67.0,75.0
682,169.6404608541667,170.15994085416668,58.0,78.0
683,169.6404608541667,170.15994085416668,63.0,76.0
684,170.4196808541667,170.8969531041667,58.0,67.0
685,170.0300708541667,171.04305685416668,55.0,56.0
686,170.8092908541667,171.23504540416667,63.0,64.0
687,169.6404608541667,171.26516586250003,51.0,72.0
688,171.19890085416668,171.61757522500002,67.0,75.0
689,171.19890085416668,171.71998478333336,60.0,72.0
690,171.56034635416668,171.87359912083335,65.0,62.0
691,171.19890085416668,172.2514793541667,53.0,72.0
692,171.92179185416668,172.26397935416668,60.0,51.0
693,171.92179185416668,172.2827293541667,67.0,63.0
694,172.29679185416668,172.64522935416667,63.0,69.0
695,172.67179185416668,173.29366685416667,65.0,57.0
696,172.67179185416668,173.42960435416668,62.0,54.0
697,172.67179185416668,173.55147935416667,70.0,53.0
698,173.79679185416668,174.24835435416668,60.0,61.0
699,174.17179185416668,174.4780418541667,62.0,67.0
700,173.42179185416668,174.6983543541667,58.0,59.0
701,174.54679185416668,174.88116685416668,65.0,53.0
702,172.67179185416668,175.06866685416668,46.0,63.0
703,173.04679185416668,175.0967918541667,53.0,50.0
704,174.92179185416668,175.19210435416667,58.0,53.0
705,174.92179185416668,175.28741685416668,67.0,67.0
706,175.29679185416668,175.65460435416668,69.0,76.0
707,175.67179185416668,176.09366685416668,62.0,66.0
708,175.67179185416668,176.1811668541667,66.0,72.0
709,176.04679185416668,176.8999168541667,57.0,60.0
710,176.79679185416668,176.9858543541667,78.0,66.0
711,177.17179185416668,177.29366685416667,67.0,67.0
712,176.42179185416668,177.3077293541667,62.0,61.0
713,177.17179185416668,177.3077293541667,79.0,69.0
714,177.54679185416668,177.64054185416668,69.0,57.0
715,177.17179185416668,177.6733543541667,57.0,59.0
716,177.54679185416668,177.6733543541667,81.0,76.0
717,177.54679185416668,178.02335435416668,62.0,51.0
718,177.92179185416668,178.06866685416668,70.0,60.0
719,177.92179185416668,178.0889793541667,82.0,59.0
720,177.92179185416668,178.2296043541667,57.0,52.0
721,175.67179185416668,178.31085435416668,50.0,73.0
722,178.29679185416668,178.4639793541667,72.0,61.0
723,178.29679185416668,178.4936668541667,84.0,61.0
724,178.67179185416668,178.89522935416667,86.0,66.0
725,178.67179185416668,178.96866685416668,74.0,61.0
726,179.79679185416668,180.00460435416667,62.0,61.0
727,179.42179185416668,180.1889793541667,55.0,59.0
728,179.79679185416668,180.2358543541667,70.0,73.0
729,180.17179185416668,180.36710435416668,60.0,63.0
730,180.17179185416668,180.5186668541667,69.0,67.0
731,180.54679185416668,180.77179185416668,62.0,59.0
732,180.54679185416668,180.83272935416667,70.0,70.0
733,179.04679185416668,181.08585435416668,50.0,66.0
734,178.67179185416668,181.0967918541667,43.0,75.0
735,180.92179185416668,181.15616685416668,55.0,52.0
736,180.92179185416668,181.20304185416668,65.0,66.0
737,181.29679185416668,181.45929185416668,62.0,62.0
738,181.67179185416668,182.0499168541667,36.0,72.0
739,182.04679185416668,182.50616685416668,48.0,58.0
740,181.67179185416668,182.80147935416667,67.0,73.0
741,181.67179185416668,182.8077293541667,63.0,76.0
742,181.67179185416668,182.84991685416668,60.0,72.0
743,182.42179185416668,182.89835435416668,50.0,76.0
744,182.79679185416668,183.14835435416668,51.0,66.0
745,183.17179185416668,183.63741685416667,60.0,67.0
746,183.17179185416668,183.8139793541667,67.0,69.0
747,183.17179185416668,183.85929185416668,64.0,72.0
748,183.92179185416668,184.17022935416668,60.0,67.0
749,183.17179185416668,184.21866685416668,48.0,73.0
750,183.54679185416668,184.2296043541667,55.0,59.0
751,184.29679185416668,184.6186668541667,70.0,67.0
752,184.67179185416668,184.81866685416668,65.0,53.0
753,184.67179185416668,185.34991685416668,41.0,62.0
754,185.04679185416668,185.41397935416668,48.0,67.0
755,185.42179185416668,185.88272935416668,53.0,57.0
756,184.67179185416668,186.2749168541667,72.0,75.0
757,184.67179185416668,186.29522935416668,60.0,69.0
758,186.54679185416668,186.84054185416667,60.0,72.0
759,186.17179185416668,187.21866685416668,57.0,67.0
760,186.92179185416668,187.2358543541667,65.0,88.0
761,185.79679185416668,187.25772935416668,55.0,63.0
762,187.29679185416668,187.61397935416667,69.0,80.0
763,187.67179185416668,188.05929185416667,70.0,82.0
764,187.67179185416668,188.0796043541667,62.0,72.0
765,187.67179185416668,188.38897935416668,46.0,75.0
766,188.04679185416668,188.4483543541667,53.0,47.0
767,188.42179185416668,188.66085435416667,65.0,56.0
768,188.42179185416668,188.68741685416668,74.0,66.0
769,188.42179185416668,188.80147935416667,58.0,60.0
770,188.79679185416668,189.28585435416667,65.0,60.0
771,188.79679185416668,189.30147935416667,72.0,78.0
772,188.79679185416668,189.56710435416667,60.0,52.0
773,189.54679185416668,189.9077293541667,74.0,73.0
774,189.54679185416668,189.9405418541667,70.0,72.0
775,189.54679185416668,189.94366685416668,65.0,63.0
776,189.17179185416668,189.9858543541667,62.0,66.0
777,189.92179185416668,190.06710435416667,60.0,67.0
778,190.10929185416668,190.25772935416668,65.0,70.0
779,190.29679185416668,190.50772935416668,72.0,49.0
780,190.48429185416668,190.64835435416668,74.0,61.0
781,190.48429185416668,190.6967918541667,46.0,58.0
782,190.67179185416668,190.9858543541667,70.0,76.0
783,190.67179185416668,191.04366685416667,65.0,75.0
784,190.67179185416668,191.39679185416668,43.0,63.0
785,191.04679185416668,191.4655418541667,50.0,51.0
786,191.42179185416668,191.5358543541667,69.0,67.0
787,191.42179185416668,191.72647935416668,62.0,72.0
788,191.42179185416668,191.7374168541667,70.0,66.0
789,191.42179185416668,191.96085435416668,55.0,58.0
790,191.79679185416668,192.19522935416668,62.0,51.0
791,191.79679185416668,192.2217918541667,69.0,60.0
792,192.17179185416668,192.5280418541667,58.0,66.0
793,192.54679185416668,192.8561668541667,62.0,75.0
794,192.54679185416668,192.8608543541667,70.0,72.0
795,192.73429185416668,192.94522935416668,58.0,55.0
796,191.79679185416668,193.1514793541667,57.0,60.0
797,192.92179185416668,193.17179185416668,62.0,67.0
798,193.10929185416668,193.3171043541667,65.0,59.0
799,193.29679185416668,193.45929185416668,70.0,56.0
800,193.67179185416668,194.1124168541667,58.0,64.0
801,193.67179185416668,194.15616685416668,63.0,63.0
802,193.67179185416668,194.1608543541667,67.0,69.0
803,194.04679185416668,194.5874168541667,55.0,55.0
804,194.42179185416668,194.7546043541667,58.0,52.0
805,194.42179185416668,194.84366685416668,63.0,49.0
806,194.42179185416668,194.90460435416668,67.0,56.0
807,193.67179185416668,195.1889793541667,51.0,56.0
808,194.79679185416668,195.1889793541667,55.0,56.0
809,195.17179185416668,195.5280418541667,69.0,67.0
810,195.17179185416668,195.5358543541667,60.0,64.0
811,195.17179185416668,195.56085435416668,65.0,70.0
812,195.54679185416668,196.1436668541667,57.0,56.0
813,195.92179185416668,196.2217918541667,63.0,75.0
814,195.92179185416668,196.2296043541667,58.0,70.0
815,195.92179185416668,196.24054185416668,67.0,69.0
816,195.17179185416668,196.2530418541667,53.0,63.0
817,196.29679185416668,196.5749168541667,65.0,69.0
818,196.67179185416668,197.39835435416668,62.0,60.0
819,196.67179185416668,197.39835435416668,65.0,64.0
820,196.67179185416668,197.4577293541667,70.0,66.0
821,197.79679185416668,198.13116685416668,60.0,72.0
822,197.04679185416668,198.4186668541667,53.0,62.0
823,198.17179185416668,198.73272935416668,62.0,73.0
824,198.54679185416668,198.8686668541667,53.0,54.0
825,197.42179185416668,199.0796043541667,58.0,70.0
826,196.67179185416668,199.1983543541667,46.0,69.0
827,198.92179185416668,199.2921043541667,60.0,66.0
828,198.92179185416668,199.2921043541667,67.0,78.0
829,199.29679185416668,199.6296043541667,69.0,70.0
830,199.67179185416668,200.03116685416668,38.0,67.0
831,200.04679185416668,200.51397935416668,50.0,57.0
832,200.42179185416668,200.84991685416668,55.0,58.0
833,199.67179185416668,200.8561668541667,69.0,63.0
834,199.67179185416668,200.9092918541667,62.0,69.0
835,199.67179185416668,200.9546043541667,66.0,72.0
836,200.79679185416668,201.23272935416668,57.0,75.0
837,201.17179185416668,201.66397935416668,62.0,66.0
838,201.17179185416668,201.70929185416668,66.0,78.0
839,201.17179185416668,202.0952293541667,50.0,67.0
840,201.92179185416668,202.13116685416668,62.0,57.0
841,201.92179185416668,202.1921043541667,57.0,66.0
842,201.92179185416668,202.2530418541667,67.0,70.0
843,201.54679185416668,202.2671043541667,54.0,70.0
844,202.29679185416668,202.4342918541667,62.0,30.0
845,202.29679185416668,202.5905418541667,69.0,64.0
846,202.67179185416668,203.2311668541667,62.0,66.0
847,202.67179185416668,203.2686668541667,43.0,75.0
848,202.67179185416668,203.29679185416668,67.0,62.0
849,202.67179185416668,203.33429185416668,70.0,61.0
850,203.42179185416668,203.5983543541667,62.0,60.0
851,203.42179185416668,203.6889793541667,69.0,64.0
852,203.04679185416668,203.7842918541667,50.0,58.0
853,203.79679185416668,203.8608543541667,62.0,44.0
854,203.79679185416668,203.8858543541667,60.0,48.0
855,203.79679185416668,203.9171043541667,67.0,66.0
856,203.79679185416668,203.9389793541667,41.0,55.0
857,204.17179185416668,205.20304185416668,60.0,53.0
858,204.17179185416668,205.21085435416668,64.0,61.0
859,204.17179185416668,205.2155418541667,67.0,60.0
860,204.17179185416668,205.3249168541667,70.0,66.0
861,205.95929185416668,206.36710435416668,72.0,47.0
862,206.0046043541667,206.4639793541667,76.0,53.0
863,206.09991685416668,206.4655418541667,79.0,55.0
864,206.1983543541667,206.5327293541667,84.0,45.0
865,204.17179185416668,206.75616685416668,55.0,59.0
866,204.17179185416668,206.8014793541667,48.0,53.0
867,207.35929185416668,207.69366685416668,70.0,51.0
868,207.35929185416668,207.7061668541667,63.0,72.0
869,207.35929185416668,207.7155418541667,58.0,64.0
870,207.35929185416668,207.7217918541667,67.0,63.0
871,207.54679185416668,207.9561668541667,55.0,46.0
872,207.92179185416668,208.3014793541667,58.0,56.0
873,207.92179185416668,208.3077293541667,63.0,63.0
874,207.92179185416668,208.3311668541667,67.0,51.0
875,208.29679185416668,209.0983543541667,55.0,49.0
876,208.67179185416668,209.1921043541667,58.0,59.0
877,209.42179185416668,209.8311668541667,67.0,66.0
878,209.42179185416668,209.87491685416668,58.0,67.0
879,209.79679185416668,209.9077293541667,55.0,66.0
880,207.35929185416668,209.9155418541667,48.0,75.0
881,209.04679185416668,210.07804185416668,63.0,63.0
882,210.17179185416668,211.04679172916667,65.0,70.0
883,210.17179185416668,211.06627222916669,60.0,66.0
884,210.17179185416668,211.06627222916669,69.0,66.0
885,211.7010118541667,211.79278404583337,67.0,34.0
886,211.7010118541667,211.81177139583335,65.0,39.0
887,211.7010118541667,211.8671511666667,75.0,72.0
888,212.0807588541667,212.25006272500002,74.0,67.0
889,212.0807588541667,212.27379691250002,65.0,61.0
890,212.46050585416668,212.7767706666667,72.0,73.0
891,212.46050585416668,212.80538510208336,63.0,64.0
892,210.54679185416668,212.85207181250001,48.0,38.0
893,210.17179185416668,212.87165011041668,41.0,72.0
894,210.92179185416668,212.87616817916668,53.0,49.0
895,213.1833968541667,213.91642180208336,62.0,63.0
896,213.1833968541667,213.97660700833336,70.0,67.0
897,213.9241378541667,214.4935824979167,58.0,56.0
898,214.29450835416668,215.0815456666667,62.0,51.0
899,214.29450835416668,215.10623703333334,65.0,63.0
900,214.4796936041667,215.16179260833334,70.0,22.0
901,213.5537673541667,215.3778420666667,53.0,51.0
902,215.4056198541667,215.5995299166667,62.0,70.0
903,215.4056198541667,215.6155555416667,70.0,72.0
904,215.0352493541667,215.6331837291667,58.0,44.0
905,215.4056198541667,215.6427991041667,65.0,73.0
906,213.1833968541667,215.7197221041667,46.0,75.0
907,215.5979273541667,215.8415168541667,53.0,60.0
908,215.7902348541667,215.9745295416667,62.0,58.0
909,215.9825423541667,216.2935207916667,70.0,70.0
910,216.1748498541667,216.2935207916667,70.0,72.0
911,216.1748498541667,216.92168562083336,65.0,70.0
912,216.1748498541667,216.94700208750004,62.0,66.0
913,217.3140908541667,217.5182048666667,60.0,60.0
914,217.3140908541667,217.72395831250003,69.0,67.0
915,216.5545968541667,217.8022715041667,53.0,55.0
916,217.6938378541667,217.9920303916667,62.0,58.0
917,216.93434385416668,218.21642780625004,58.0,57.0
918,217.6938378541667,218.31431929583337,70.0,73.0
919,218.4167288541667,218.72369101250004,69.0,70.0
920,218.0552833541667,218.7869821791667,53.0,49.0
921,218.4167288541667,218.79489357500003,70.0,48.0
922,218.4167288541667,218.8344505541667,60.0,61.0
923,216.1748498541667,218.93255186250005,46.0,76.0
924,218.79647585416672,219.12717220000005,65.0,61.0
925,219.1762228541667,219.7221091666667,60.0,64.0
926,219.1762228541667,219.73476740000004,63.0,69.0
927,219.1762228541667,219.7743243791667,68.0,62.0
928,219.5559698541667,220.00533713750005,51.0,49.0
929,219.9357168541667,220.3012233416667,63.0,62.0
930,219.9357168541667,220.33919804166672,60.0,58.0
931,219.9357168541667,220.34710943750005,68.0,61.0
932,219.9357168541667,220.66040071250004,56.0,54.0
933,220.6952108541667,220.87422326250004,63.0,61.0
934,220.6952108541667,220.89737141875003,60.0,58.0
935,220.6952108541667,221.00385293750003,68.0,57.0
936,221.0655813541667,221.62730994583336,56.0,47.0
937,221.43595185416672,221.81249519583338,75.0,73.0
938,221.43595185416672,221.91589029375004,68.0,72.0
939,219.1762228541667,221.9776187104167,44.0,73.0
940,221.8063223541667,222.0609520729167,56.0,37.0
941,221.8063223541667,222.12268048958336,70.0,64.0
942,220.3154638541667,222.19675458958338,51.0,47.0
943,222.1766928541667,222.48996456875003,72.0,76.0
944,222.1766928541667,222.57329793125004,68.0,69.0
945,223.1026191041667,223.30015003750003,60.0,61.0
946,223.2878043541667,223.5285451791667,63.0,53.0
947,223.6581748541667,223.78471810833338,68.0,55.0
948,223.8433601041667,224.09953303333336,72.0,36.0
949,222.91743385416672,224.43300672916672,56.0,61.0
950,224.2137306041667,224.52229235416672,75.0,40.0
951,224.39891585416672,224.52229235416672,80.0,78.0
952,222.5470633541667,224.7252142291667,51.0,46.0
953,224.59372085416672,224.7576817291667,56.0,60.0
954,222.1766928541667,224.79826610416671,44.0,73.0
955,225.17813585416673,225.65035824166674,67.0,62.0
956,225.17813585416673,225.6966545541667,58.0,66.0
957,225.17813585416673,225.6966545541667,62.0,64.0
958,225.17813585416673,226.02998800416674,55.0,57.0
959,225.91887685416674,226.33863008750006,58.0,57.0
960,225.91887685416674,226.34017329791672,67.0,59.0
961,225.91887685416674,226.35251898125006,62.0,60.0
962,226.28924735416672,226.73214874375006,55.0,45.0
963,226.65961785416673,227.16270445000006,58.0,51.0
964,226.65961785416673,227.1796797645834,62.0,57.0
965,226.65961785416673,227.20745755208338,67.0,48.0
966,227.02998835416673,227.8231985083334,55.0,35.0
967,227.40035885416674,227.84480345416674,58.0,75.0
968,225.17813585416673,227.95900102500005,43.0,69.0
969,227.40035885416674,228.1148652770834,65.0,76.0
970,227.77072935416672,228.21230241666672,50.0,58.0
971,228.14109985416673,228.7692646833334,67.0,60.0
972,228.14109985416673,229.00185972083338,63.0,73.0
973,229.28034085416672,229.5429991958334,62.0,62.0
974,229.66008785416673,230.13318932500005,63.0,52.0
975,230.0398348541667,230.4508318041667,67.0,58.0
976,228.90059385416671,230.52548446250006,60.0,70.0
977,228.14109985416673,230.66437312916673,48.0,58.0
978,228.52084685416673,230.6782619958334,55.0,61.0
979,230.41958185416672,231.00638647083338,70.0,73.0
980,231.25291385416674,232.74592186666672,58.0,61.0
981,231.25291385416674,232.86887274166673,67.0,53.0
982,231.25291385416674,232.87092192291672,63.0,61.0
983,233.11887285416674,233.44589326875007,58.0,60.0
984,233.57341860416673,233.65801461875006,58.0,32.0
985,231.25291385416674,233.80611946041674,41.0,72.0
986,233.57341860416673,233.9053463125001,63.0,76.0
987,232.87297110416674,233.98910923958343,53.0,67.0
988,233.87957310416675,234.09864537500007,65.0,63.0
989,234.34349085416676,234.80868092916677,65.0,60.0
990,234.34349085416676,234.9684911250001,60.0,60.0
991,234.34349085416676,234.99380759166675,62.0,70.0
992,234.34349085416676,235.1014025750001,46.0,73.0
993,234.72323785416677,235.13676864583343,53.0,56.0
994,235.10298485416675,235.5877822645834,58.0,50.0
995,236.52190410416674,236.86224724166675,77.0,63.0
996,236.31920135416675,236.97179775416674,65.0,44.0
997,235.91379585416675,237.03921345416674,62.0,60.0
998,235.50839035416675,237.05466288541675,60.0,60.0
999,237.06168535416674,237.42532635416677,72.0,60.0
1000,237.39876385416676,237.81595135416677,65.0,56.0
1001,237.39876385416676,238.03313885416676,70.0,62.0
1002,238.52376385416676,238.80657635416676,70.0,51.0
1003,238.52376385416676,238.86751385416676,74.0,51.0
1004,237.77376385416676,239.40188885416677,62.0,48.0
1005,238.14876385416676,239.75970135416676,67.0,52.0
1006,239.64876385416676,239.92845135416675,62.0,62.0
1007,237.39876385416676,239.94095135416677,55.0,67.0
1008,239.64876385416676,240.03626385416675,74.0,62.0
1009,239.64876385416676,240.18157635416676,82.0,67.0
1010,240.02376385416676,240.43077599166676,81.0,58.0
1011,240.39876385416676,240.96431161666675,70.0,52.0
1012,240.21126385416676,241.19296981666676,67.0,48.0
1013,240.39876385416676,241.28453952916675,75.0,73.0
1014,240.76461685416675,241.50692311666677,58.0,58.0
1015,240.39876385416676,241.53017891666676,51.0,72.0
1016,241.13046985416676,241.53017891666676,63.0,70.0
1017,241.47930685416677,241.61884165416677,75.0,40.0
1018,241.47930685416677,241.91889718958345,67.0,66.0
1019,241.82814385416677,242.48567745416676,69.0,69.0
1020,241.82814385416677,242.6569101625001,72.0,70.0
1021,241.82814385416677,242.87951268333345,53.0,67.0
1022,242.23910235416676,242.97711532708342,60.0,51.0
1023,243.06101935416677,243.34184099583342,70.0,57.0
1024,242.65006085416678,243.38807382708345,65.0,50.0
1025,243.26649860416677,243.50180739166677,72.0,62.0
1026,243.47197785416677,243.91942091666678,74.0,67.0
1027,244.49470485416677,244.97738189166677,72.0,60.0
1028,244.15379585416676,245.2289058291668,70.0,59.0
1029,243.47197785416677,245.37067386666678,58.0,66.0
1030,244.83561385416678,245.53073455416677,74.0,62.0
1031,245.56731985416678,245.74299557083344,77.0,76.0
1032,243.81288685416678,245.76833341458345,65.0,40.0
1033,245.56731985416678,245.83590099791678,72.0,64.0
1034,246.37813085416678,246.91867152083344,66.0,73.0
1035,246.37813085416678,246.9473877437501,74.0,62.0
1036,246.37813085416678,247.02509046458346,69.0,62.0
1037,247.18894185416679,247.7579072291668,66.0,64.0
1038,247.18894185416679,247.8757232916668,72.0,67.0
1039,247.18894185416679,248.1041715104168,60.0,54.0
1040,247.87859685416677,248.32399904166678,74.0,66.0
1041,247.87859685416677,248.4044587916668,66.0,62.0
1042,248.22342435416678,248.6560493854168,60.0,41.0
1043,248.5682518541668,248.7884897291668,66.0,70.0
1044,246.37813085416678,248.8822396354168,50.0,64.0
1045,246.78353635416678,248.9030729479168,57.0,45.0
1046,248.7468231041668,248.9700371666668,67.0,59.0
1047,248.9253943541668,249.11884654166678,69.0,60.0
1048,249.1039656041668,249.2230131041668,72.0,57.0
1049,249.28253685416678,249.83809152083344,62.0,48.0
1050,249.28253685416678,249.91621639583346,70.0,76.0
1051,249.28253685416678,250.2622504916668,43.0,69.0
1052,250.1158688541668,250.28692155416678,60.0,61.0
1053,250.1158688541668,250.3148820916668,55.0,49.0
1054,250.1158688541668,250.4185005541668,69.0,70.0
1055,249.69920285416677,250.48593479166678,50.0,34.0
1056,250.51060585416678,250.68823750416678,41.0,64.0
1057,250.51060585416678,250.6898822416668,62.0,62.0
1058,250.51060585416678,250.8198165041668,70.0,72.0
1059,250.9053428541668,251.08305355833346,60.0,42.0
1060,250.9053428541668,251.11618606250013,58.0,52.0
1061,250.9053428541668,251.38727018750015,67.0,48.0
1062,250.9053428541668,251.45052315000015,64.0,64.0
1063,250.9053428541668,251.45955928750013,70.0,43.0
1064,250.9053428541668,251.74243142500015,52.0,73.0
1065,251.6282338541668,251.9708265666668,64.0,70.0
1066,251.6282338541668,252.02792535208349,58.0,66.0
1067,251.6282338541668,252.04181424583348,67.0,57.0
1068,251.99860435416682,252.1143451354168,52.0,64.0
1069,250.9053428541668,252.14366613333348,40.0,76.0
1070,252.36897485416682,252.80807697916683,63.0,67.0
1071,252.36897485416682,252.84814104166682,67.0,69.0
1072,252.36897485416682,252.88660254166683,58.0,60.0
1073,252.36897485416682,253.28724316666683,48.0,69.0
1074,253.13820485416682,253.5148070416668,63.0,64.0
1075,253.13820485416682,253.52923010416683,58.0,63.0
1076,253.13820485416682,253.53564035416682,67.0,60.0
1077,253.5228198541668,254.10535132291682,48.0,44.0
1078,253.9074348541668,254.3449344166668,58.0,66.0
1079,253.9074348541668,254.35832726041681,63.0,64.0
1080,253.9074348541668,254.38064866666681,67.0,56.0
1081,252.36897485416682,254.66030011458346,36.0,58.0
1082,254.26457735416682,254.80073226250013,48.0,46.0
1083,254.6217198541668,254.9411644104168,58.0,85.0
1084,254.6217198541668,254.94733725208346,63.0,76.0
1085,254.8069051041668,255.0615348229168,39.0,63.0
1086,254.6217198541668,255.07851013750013,67.0,72.0
1087,254.9920903541668,255.16492992083346,40.0,45.0
1088,255.1772756041668,255.28992996458348,58.0,54.0
1089,255.3624608541668,255.76832519375014,67.0,67.0
1090,255.3624608541668,255.94888081250014,58.0,69.0
1091,255.3624608541668,255.99826354583345,63.0,70.0
1092,256.5032018541668,256.6060500000001,58.0,64.0
1093,256.1032018541668,256.6155436750001,53.0,75.0
1094,255.3624608541668,256.69940447083343,41.0,73.0
1095,256.5032018541668,256.8354804791668,63.0,72.0
1096,255.7328313541668,256.85446782916677,48.0,57.0
1097,256.8829488541668,257.15510087083345,60.0,69.0
1098,256.8829488541668,257.1914932916668,65.0,72.0
1099,256.8829488541668,257.2769363666668,53.0,70.0
1100,256.8829488541668,257.37029083750014,41.0,67.0
1101,257.2626958541668,257.38769590833346,60.0,50.0
1102,257.2626958541668,257.46839214583343,63.0,64.0
1103,257.2626958541668,257.59180992083344,67.0,60.0
1104,257.2626958541668,257.7231390916668,43.0,66.0
1105,257.6424428541668,257.8782024500001,69.0,66.0
1106,257.6424428541668,257.8971898000001,45.0,67.0
1107,257.6424428541668,257.9446581750001,63.0,73.0
1108,258.02218985416675,258.2737722416668,70.0,69.0
1109,258.40193685416676,258.54899560416675,34.0,76.0
1110,258.40193685416676,258.8254660541668,62.0,75.0
1111,258.40193685416676,258.86958367916674,65.0,72.0
1112,258.40193685416676,258.87840720416676,70.0,75.0
1113,259.10781885416674,259.51223041666674,65.0,67.0
1114,259.10781885416674,259.55634804166675,62.0,67.0
1115,259.10781885416674,259.5578186291668,70.0,67.0
1116,259.10781885416674,259.57546567916677,60.0,67.0
1117,259.10781885416674,259.8169059791668,53.0,69.0
1118,259.81370085416677,259.9387007291668,60.0,67.0
1119,259.81370085416677,259.94511097916677,62.0,72.0
1120,259.81370085416677,259.9723545416668,65.0,73.0
1121,259.81370085416677,260.0460724166668,70.0,63.0
1122,259.4607598541668,260.05088010416677,58.0,45.0
1123,260.3906233541668,260.70464142916677,58.0,69.0
1124,260.58293085416676,260.70793090416674,74.0,93.0
1125,258.75487785416675,260.83128621666674,46.0,73.0
1126,260.19831585416676,260.8756941291668,53.0,60.0
1127,260.78029935416674,260.89543097916675,77.0,59.0
1128,260.9776678541668,261.15529950416675,79.0,60.0
1129,261.17503635416676,261.45573821666676,82.0,75.0
1130,261.37240485416675,261.90944207916675,62.0,69.0
1131,261.37240485416675,261.9341334458334,70.0,72.0
1132,261.37240485416675,262.03752854375006,67.0,72.0
1133,261.37240485416675,262.0591334895834,43.0,72.0
1134,261.7427753541667,262.10388659166676,50.0,59.0
1135,262.11314585416676,262.37240520416674,62.0,69.0
1136,262.11314585416676,262.5128373520834,69.0,72.0
1137,262.11314585416676,262.68567691875006,55.0,52.0
1138,262.48351635416674,263.00512147500007,62.0,72.0
1139,262.48351635416674,263.01901036875006,70.0,67.0
1140,262.8538868541668,263.3785783958334,58.0,62.0
1141,263.22425735416675,263.4896895458334,62.0,69.0
1142,263.40944260416677,263.6605999708334,65.0,62.0
1143,263.59462785416673,263.82032193750007,58.0,72.0
1144,262.48351635416674,263.8967107041667,57.0,69.0
1145,263.59462785416673,263.99046055416676,67.0,62.0
1146,263.8029608541667,264.0703215375001,69.0,66.0
1147,264.4279598541667,264.84251699583336,65.0,50.0
1148,264.4279598541667,264.8567575083334,63.0,73.0
1149,264.4279598541667,264.85833978750003,67.0,63.0
1150,264.01129385416675,264.85833978750003,70.0,73.0
1151,264.4279598541667,264.85833978750003,70.0,43.0
1152,264.4279598541667,264.882073975,58.0,69.0
1153,264.8077068541667,265.2939879166667,55.0,57.0
1154,265.18745385416673,265.4942719541667,70.0,55.0
1155,265.18745385416673,265.5496696666667,58.0,69.0
1156,265.18745385416673,265.5553514833334,63.0,70.0
1157,265.18745385416673,265.55819239166675,67.0,66.0
1158,265.52836285416674,265.6036469250001,55.0,58.0
1159,264.4279598541667,265.6277946458334,51.0,66.0
1160,265.52836285416674,265.6959764458334,70.0,31.0
1161,265.86927185416675,266.3661075125001,65.0,75.0
1162,265.86927185416675,266.3835125833334,69.0,73.0
1163,265.86927185416675,266.4040822125001,60.0,72.0
1164,265.86927185416675,266.68889246250006,41.0,72.0
1165,266.24901885416676,266.7110443708334,48.0,53.0
1166,266.6287658541668,266.86610772916674,58.0,64.0
1167,266.6287658541668,266.9594622000001,53.0,58.0
1168,266.6287658541668,266.96104447916673,63.0,66.0
1169,266.6287658541668,267.22528510000006,67.0,59.0
1170,267.0085128541668,267.3297155250001,65.0,60.0
1171,267.38825985416673,268.0021841708334,70.0,61.0
1172,267.38825985416673,268.01484240416676,62.0,75.0
1173,267.38825985416673,268.0401588708334,60.0,70.0
1174,267.38825985416673,268.07180445416674,65.0,63.0
1175,268.14775385416675,268.7157920750001,58.0,80.0
1176,268.52750085416676,268.81072882500007,60.0,76.0
1177,268.90724785416677,269.2189568500001,62.0,85.0
1178,268.90724785416677,269.43889365416675,58.0,70.0
1179,269.2869948541668,269.49743798333344,60.0,51.0
1180,269.2869948541668,269.60028612916676,63.0,61.0
1181,269.66674185416673,269.94113160416674,58.0,52.0
1182,267.76800685416674,269.97466812916673,53.0,55.0
1183,269.66674185416673,269.98381445416675,60.0,64.0
1184,269.66674185416673,270.0005827166667,65.0,76.0
1185,267.38825985416673,270.0066802666667,46.0,69.0
1186,270.03259485416675,270.1072898416667,67.0,44.0
1187,270.3984478541667,270.7932642166667,38.0,72.0
1188,270.3984478541667,271.01887356666674,66.0,95.0
1189,270.3984478541667,271.0585076416667,62.0,62.0
1190,270.7643008541667,271.2170439416667,50.0,57.0
1191,271.13015385416674,271.4914336916667,62.0,63.0
1192,271.13015385416674,271.6667382541667,55.0,66.0
1193,271.13015385416674,271.7155186541667,67.0,73.0
1194,271.8618598541667,272.2063714291667,66.0,80.0
1195,271.49600685416675,272.2109445916667,57.0,58.0
1196,271.8618598541667,272.2886883541667,69.0,75.0
1197,271.8618598541667,272.30545661666673,62.0,72.0
1198,272.41063935416673,272.71399246666675,57.0,58.0
1199,272.2277128541667,272.7719191916667,50.0,67.0
1200,272.59356585416674,272.84661417916675,66.0,101.0
1201,272.77649235416675,273.0508821041667,67.0,59.0
1202,272.95941885416676,273.1210039291667,70.0,72.0
1203,273.3252718541667,273.7808641416667,62.0,76.0
1204,273.3252718541667,273.8022457291667,43.0,72.0
1205,273.3252718541667,273.9634300041667,70.0,82.0
1206,273.72000885416674,274.1048774291667,50.0,63.0
1207,274.1147458541667,274.45027230416673,60.0,63.0
1208,274.1147458541667,274.48481179166674,69.0,76.0
1209,274.1147458541667,274.4963249541667,41.0,60.0
1210,274.5094828541667,274.59500920416673,50.0,63.0
1211,274.90421985416674,275.42560164166673,60.0,72.0
1212,274.90421985416674,275.4568516541667,64.0,82.0
1213,274.90421985416674,275.4913911416667,67.0,66.0
1214,274.90421985416674,275.7923781041667,70.0,66.0
1215,276.0884308541667,277.51057859375004,64.0,72.0
1216,274.90421985416674,277.5116750833334,48.0,72.0
1217,275.6936938541667,277.5325083854167,60.0,63.0
1218,276.4831678541667,277.5489557291667,70.0,64.0
1219,275.2989568541667,277.5884293541667,55.0,50.0
1220,278.5884278541667,279.0829126208334,58.0,70.0
1221,278.5884278541667,279.0884273208334,63.0,61.0
1222,278.5884278541667,279.14357432083335,67.0,66.0
1223,279.0296038541667,279.2446771541667,70.0,1.0
1224,278.5884278541667,279.90827938750004,48.0,50.0
1225,279.2501918541667,279.9229852541667,58.0,72.0
1226,279.0296038541667,279.95791168750003,55.0,44.0
1227,279.9119558541667,280.7118275541667,63.0,69.0
1228,280.67921885416666,280.77161017083336,58.0,40.0
1229,280.67921885416666,281.2121508854167,67.0,63.0
1230,281.7195908541667,282.3526030416667,63.0,63.0
1231,281.7195908541667,282.35420560416674,58.0,70.0
1232,281.7195908541667,282.61542329166673,55.0,57.0
1233,282.8734358541667,283.4006789166667,55.0,56.0
1234,283.2580508541667,283.5368967291667,58.0,48.0
1235,283.6426658541667,283.8477938541667,63.0,50.0
1236,284.0272808541667,284.1666251791667,65.0,54.0
1237,284.5190843541667,285.19926781875,70.0,45.0
1238,285.4492673979167,285.96845685416673,65.0,61.0
1239,282.4888208541667,286.14814435416673,53.0,72.0
1240,282.1042058541667,286.1856443541667,48.0,47.0
1241,281.7195908541667,286.2387693541667,41.0,62.0
1242,285.8559568541667,286.27626935416674,74.0,75.0
1243,285.01969065625,286.4184568541667,58.0,76.0
1244,286.2465818541667,286.7387693541667,70.0,67.0
1245,286.96845685416673,287.4340818541667,65.0,52.0
1246,287.3653318541667,287.75283185416674,72.0,51.0
1247,286.6262693541667,287.89345685416674,58.0,55.0
1248,287.7325193541667,288.1497068541667,70.0,66.0
1249,288.4497068541667,288.8637693541667,65.0,51.0
1250,288.8293943541667,289.1700193541667,69.0,57.0
1251,288.0918943541667,289.3637693541667,58.0,64.0
1252,289.2434568541667,289.6887693541667,62.0,57.0
1253,289.21845685416673,289.81533185416674,70.0,66.0
1254,289.96376935416674,290.16376935416673,62.0,56.0
1255,289.99501935416674,290.2778318541667,70.0,39.0
1256,289.6075193541667,290.66689435416674,58.0,48.0
1257,290.3715818541667,290.7153318541667,69.0,61.0
1258,290.3637693541667,290.7668943541667,60.0,66.0
1259,290.72158185416674,290.9887693541667,70.0,75.0
1260,291.0903318541667,291.4590818541667,62.0,62.0
1261,291.08095685416674,291.5137693541667,70.0,67.0
1262,291.2950193541667,291.8184568541667,46.0,44.0
1263,291.55439435416673,291.8637693541667,53.0,53.0
1264,291.86689435416673,292.25751935416673,58.0,56.0
1265,292.21376935416674,292.69419210416675,70.0,73.0
1266,291.86689435416673,292.75889795416674,77.0,78.0
1267,292.58876935416674,293.33978001666674,62.0,67.0
1268,292.9633096166667,293.41625056666675,65.0,44.0
1269,293.3353682541667,293.6706622041667,72.0,63.0
1270,293.6206622291667,293.72654452916674,62.0,69.0
1271,292.21376935416674,293.7383092291667,60.0,67.0
1272,293.6927210166667,294.0647796541667,74.0,58.0
1273,294.1544854916667,294.23536780416674,45.0,41.0
1274,294.0736031791667,294.56330881666673,75.0,78.0
1275,294.08389729166674,294.5824264541667,67.0,59.0
1276,294.51330884166674,294.6883087541667,74.0,62.0
1277,295.01477917916674,295.27066140416673,58.0,56.0
1278,294.14125020416674,295.40154369166675,46.0,40.0
1279,295.0015438916667,295.44419072916673,70.0,67.0
1280,294.52360295416673,295.4456613166667,53.0,47.0
1281,295.4794848291667,295.59272006666674,63.0,67.0
1282,296.3853667291667,296.99713112916675,57.0,64.0
1283,296.3441902791667,297.74713075416673,53.0,49.0
1284,296.3853667291667,297.8294836541667,34.0,70.0
1285,296.4280137666667,297.86330716666674,62.0,67.0
1286,296.9441899791667,297.87360127916673,58.0,42.0
