,start,end,pitch,velocity
0,37.263476250000004,37.591178625000005,55.0,83.0
1,37.668881250000005,37.9864485,58.0,72.0
2,38.07428625,39.246582375,60.0,86.0
3,40.506716250000004,40.87158075000001,60.0,95.0
4,40.912121250000006,41.273607375000005,67.0,90.0
5,41.31752625,42.631714125,65.0,89.0
6,43.749956250000004,44.101307250000005,60.0,96.0
7,44.155361250000006,44.4577258125,62.0,83.0
8,44.56076625000001,44.932387500000004,65.0,97.0
9,44.96617125,45.766846125,63.0,85.0
10,46.58779125,46.9577233125,63.0,93.0
11,46.993196250000004,47.352993187500005,62.0,72.0
12,47.398601250000006,47.82765487500001,58.0,66.0
13,47.80400625000001,49.58272068750001,55.0,69.0
14,50.236436250000004,50.66886825,55.0,73.0
15,50.641841250000006,51.08609756250001,58.0,72.0
16,51.04724625000001,52.69251487500001,60.0,75.0
17,53.07427125,53.435757375,60.0,93.0
18,53.479676250000004,53.93068931250001,70.0,107.0
19,53.885081250000006,54.28372950000001,67.0,90.0
20,54.29048625000001,55.59116062500001,65.0,88.0
21,56.722916250000004,57.138456375000004,60.0,82.0
22,57.128321250000006,57.51176681250001,62.0,71.0
23,57.53372625000001,58.00500956250001,63.0,82.0
24,58.344536250000004,58.70264400000001,63.0,95.0
25,58.749941250000006,59.182373250000005,67.0,88.0
26,59.15534625000001,59.7246024375,65.0,77.0
27,59.966156250000004,60.3597369375,62.0,86.0
28,60.371561250000006,60.836087812500004,55.0,79.0
29,60.77696625000001,60.883385062500004,60.0,90.0
30,61.18237125,62.86986956250001,60.0,92.0
31,63.209396250000005,63.537098625000006,55.0,83.0
32,63.614801250000006,63.9323685,58.0,72.0
33,64.02020625,65.192502375,60.0,86.0
34,66.45263625000001,66.81750075000001,60.0,95.0
35,66.85804125,67.21952737500001,67.0,90.0
36,67.26344625,68.577634125,65.0,89.0
37,69.69587625000001,70.04722725,60.0,96.0
38,70.10128125,70.4036458125,62.0,83.0
39,70.50668625,70.8783075,65.0,97.0
40,70.91209125,71.712766125,63.0,85.0
41,72.53371125000001,72.90364331250001,63.0,93.0
42,72.93911625000001,73.2989131875,62.0,72.0
43,73.34452125,73.77357487500001,58.0,66.0
44,73.74992625,75.5286406875,55.0,69.0
45,76.18235625000001,76.61478825,55.0,73.0
46,76.58776125,77.0320175625,58.0,72.0
47,76.99316625,78.638434875,60.0,75.0
48,79.02019125000001,79.38167737500001,60.0,93.0
49,79.42559625000001,79.87660931250001,70.0,107.0
50,79.83100125000001,80.22964950000001,67.0,90.0
51,80.23640625,81.537080625,65.0,88.0
52,82.66883625000001,83.084376375,60.0,82.0
53,83.07424125000001,83.4576868125,62.0,71.0
54,83.47964625,83.95092956250001,63.0,82.0
55,84.29045625,84.64856400000001,63.0,95.0
56,84.69586125000001,85.12829325000001,67.0,88.0
57,85.10126625000001,85.67052243750001,65.0,77.0
58,85.91207625000001,86.21275162500001,67.0,97.0
59,86.31748125000001,86.675589,63.0,93.0
60,86.72288625,87.14856150000001,62.0,93.0
61,87.12829125,88.61139787500001,60.0,86.0
62,89.96612625,90.30565293750001,65.0,100.0
63,90.37153125,90.70092281250001,67.0,97.0
64,90.77693625,91.18403043750001,70.0,127.0
65,91.18234125000001,91.5556516875,67.0,117.0
66,91.58774625000001,91.90700268750001,65.0,97.0
67,91.99315125000001,92.3394346875,60.0,112.0
68,92.39855625000001,92.78538018750001,65.0,102.0
69,93.20936625,93.523555125,65.0,100.0
70,93.61477125,93.93064931250001,67.0,100.0
71,94.02017625,94.31578406250001,70.0,122.0
72,94.42558125000001,94.64517562500001,67.0,107.0
73,94.83098625000001,95.10294543750001,65.0,102.0
74,95.23639125000001,95.66206650000001,60.0,93.0
75,95.64179625000001,96.1299714375,63.0,102.0
76,96.45260625,96.793822125,65.0,86.0
77,96.85801125,97.23470006250001,63.0,92.0
78,97.26341625,97.64348343750001,60.0,93.0
79,97.66882125000001,97.95260475,58.0,99.0
80,98.07422625000001,98.43233400000001,72.0,122.0
81,98.47963125000001,98.85969843750001,70.0,112.0
82,98.88503625000001,99.25496831250001,67.0,96.0
83,99.29044125000001,99.57760312500001,65.0,97.0
84,99.69584625,99.89685956250001,67.0,102.0
85,99.89854875,100.10294043750001,70.0,93.0
86,100.10125125,101.31746625000001,67.0,97.0
87,101.72287125000001,102.0218574375,67.0,122.0
88,102.12827625000001,102.42388406250001,65.0,99.0
89,102.53368125000001,102.79550531250001,67.0,122.0
90,102.93908625,103.266788625,65.0,112.0
91,103.34449125,103.611382875,67.0,107.0
92,103.74989625,104.02861218750002,70.0,127.0
93,104.15530125000001,104.47624687500002,67.0,127.0
94,104.56070625000001,104.92219237500001,65.0,99.0
95,104.96611125000001,105.38840812500001,60.0,97.0
96,105.37151625000001,105.82421850000001,65.0,96.0
97,106.18232625,106.50496106250002,65.0,102.0
98,106.58773125,106.8630688125,67.0,117.0
99,106.99313625,107.3630683125,70.0,127.0
100,107.39854125000001,107.75158143750001,67.0,117.0
101,107.80394625000001,108.07590543750001,65.0,100.0
102,108.20935125000001,108.61475625000001,60.0,97.0
103,108.61475625000001,109.12320168750001,63.0,117.0
104,109.42556625,109.77353887500001,65.0,102.0
105,109.83097125,110.2009033125,63.0,112.0
106,110.23637625,110.62151100000001,60.0,99.0
107,110.64178125000001,111.07421325000001,58.0,95.0
108,111.04718625000001,111.45259125000001,55.0,96.0
109,111.45259125000001,111.7954963125,58.0,100.0
110,112.26340125000002,112.47792806250001,63.0,117.0
111,112.46610375000002,112.65360356250001,62.0,92.0
112,112.66880625000002,114.04042650000001,60.0,96.0
113,141.04715625,141.374858625,55.0,83.0
114,141.45256125,141.7701285,58.0,72.0
115,141.85796625,143.030262375,60.0,86.0
116,144.29039625000001,144.65526075000002,60.0,95.0
117,144.69580125000002,145.05728737500002,67.0,90.0
118,145.10120625000002,146.415394125,65.0,89.0
119,147.53363625,147.88498725000002,60.0,96.0
120,147.93904125,148.2414058125,62.0,83.0
121,148.34444625,148.7160675,65.0,97.0
122,148.74985125,149.550526125,63.0,85.0
123,150.37147125,150.7414033125,63.0,93.0
124,150.77687625000002,151.1366731875,62.0,72.0
125,151.18228125000002,151.611334875,58.0,66.0
126,151.58768625000002,153.3664006875,55.0,69.0
127,154.02011625,154.45254825,55.0,73.0
128,154.42552125,154.86977756250002,58.0,72.0
129,154.83092625,156.476194875,60.0,75.0
130,156.85795125,157.219437375,60.0,93.0
131,157.26335625000002,157.71436931250003,70.0,107.0
132,157.66876125000002,158.06740950000002,67.0,90.0
133,158.07416625000002,159.37484062500002,65.0,88.0
134,160.50659625,160.922136375,60.0,82.0
135,160.91200125,161.29544681250002,62.0,71.0
136,161.31740625,161.78868956250002,63.0,82.0
137,162.12821625,162.48632400000002,63.0,95.0
138,162.53362125,162.96605325000002,67.0,88.0
139,162.93902625,163.50828243750001,65.0,77.0
140,163.74983625000002,164.050511625,67.0,97.0
141,164.15524125000002,164.513349,63.0,93.0
142,164.56064625000002,164.9863215,62.0,93.0
143,164.96605125000002,166.44915787500003,60.0,86.0
144,167.80388625,168.14341293750002,65.0,100.0
145,168.20929125,168.5386828125,67.0,97.0
146,168.61469625,169.02179043750002,70.0,127.0
147,169.02010125,169.39341168750002,67.0,117.0
148,169.42550625,169.7447626875,65.0,97.0
149,169.83091125,170.17719468750002,60.0,112.0
150,170.23631625000002,170.6231401875,65.0,102.0
151,171.04712625000002,171.361315125,65.0,100.0
152,171.45253125000002,171.7684093125,67.0,100.0
153,171.85793625000002,172.1535440625,70.0,122.0
154,172.26334125000002,172.482935625,67.0,107.0
155,172.66874625000003,172.94070543750001,65.0,102.0
156,173.07415125000003,173.4998265,60.0,93.0
157,173.47955625,173.96773143750002,63.0,102.0
158,174.29036625,174.63158212500002,65.0,86.0
159,174.69577125,175.07246006250003,63.0,92.0
160,175.10117625,175.4812434375,60.0,93.0
161,175.50658125,175.79036475,58.0,99.0
162,175.91198625,176.27009400000003,72.0,122.0
163,176.31739125000001,176.69745843750002,70.0,112.0
164,176.72279625000002,177.09272831250001,67.0,96.0
165,177.12820125000002,177.41536312500003,65.0,97.0
166,177.53360625000002,177.73461956250003,67.0,102.0
167,177.73630875,177.94070043750003,70.0,93.0
168,177.93901125000002,179.15522625000003,67.0,97.0
169,179.56063125000003,179.85961743750002,67.0,122.0
170,179.96603625,180.2616440625,65.0,99.0
171,180.37144125,180.63326531250001,67.0,122.0
172,180.77684625,181.104548625,65.0,112.0
173,181.18225125,181.449142875,67.0,107.0
174,181.58765625,181.86637218750002,70.0,127.0
175,181.99306125,182.31400687500002,67.0,127.0
176,182.39846625,182.759952375,65.0,99.0
177,182.80387125000001,183.22616812500002,60.0,97.0
178,183.20927625000002,183.6619785,65.0,96.0
179,184.02008625000002,184.3427210625,65.0,102.0
180,184.42549125000002,184.70082881250002,67.0,117.0
181,184.83089625000002,185.20082831250002,70.0,127.0
182,185.23630125000003,185.58934143750002,67.0,117.0
183,185.64170625000003,185.91366543750001,65.0,100.0
184,186.04711125000003,186.45251625000003,60.0,97.0
185,186.45251625000003,186.9609616875,63.0,117.0
186,187.26332625,187.61129887500002,65.0,102.0
187,187.66873125,188.0386633125,63.0,112.0
188,188.07413625,188.45927100000003,60.0,99.0
189,188.47954125,188.91197325000002,58.0,95.0
190,188.88494625,189.29035125000001,55.0,96.0
191,189.29035125000001,189.6332563125,58.0,100.0
192,190.10116125000002,190.31568806250002,63.0,117.0
193,190.30386375,190.49136356250003,62.0,92.0
194,190.50656625000002,191.87818650000003,60.0,96.0
195,193.74980625,194.08933293750002,65.0,100.0
196,194.15521125,194.48460281250001,67.0,97.0
197,194.56061625,194.96771043750002,70.0,127.0
198,194.96602125,195.33933168750002,67.0,117.0
199,195.37142625,195.69068268750001,65.0,97.0
200,195.77683125000001,196.12311468750002,60.0,112.0
201,196.18223625000002,196.5690601875,65.0,102.0
202,196.99304625000002,197.307235125,65.0,100.0
203,197.39845125000002,197.7143293125,67.0,100.0
204,197.80385625000002,198.0994640625,70.0,122.0
205,198.20926125000003,198.428855625,67.0,107.0
206,198.61466625000003,198.88662543750002,65.0,102.0
207,199.02007125000003,199.4457465,60.0,93.0
208,199.42547625000003,199.91365143750002,63.0,102.0
209,200.23628625,200.57750212500002,65.0,86.0
210,200.64169125,201.01838006250003,63.0,92.0
211,201.04709625,201.4271634375,60.0,93.0
212,201.45250125,201.73628475,58.0,99.0
213,201.85790625,202.21601400000003,72.0,122.0
214,202.26331125000002,202.64337843750002,70.0,112.0
215,202.66871625000002,203.03864831250002,67.0,96.0
216,203.07412125000002,203.36128312500003,65.0,97.0
217,203.47952625000002,203.68053956250003,67.0,102.0
218,203.68222875,203.88662043750003,70.0,93.0
219,203.88493125000002,205.10114625000003,67.0,97.0
220,205.50655125000003,205.80553743750002,67.0,122.0
221,205.91195625000003,206.2075640625,65.0,99.0
222,206.31736125,206.57918531250002,67.0,122.0
223,206.72276625,207.050468625,65.0,112.0
224,207.12817125,207.395062875,67.0,107.0
225,207.53357625,207.81229218750002,70.0,127.0
226,207.93898125,208.25992687500002,67.0,127.0
227,208.34438625,208.705872375,65.0,99.0
228,208.74979125000002,209.17208812500002,60.0,97.0
229,209.15519625000002,209.6078985,65.0,96.0
230,209.96600625000002,210.2886410625,65.0,102.0
231,210.37141125000002,210.64674881250002,67.0,117.0
232,210.77681625000002,211.14674831250002,70.0,127.0
233,211.18222125000003,211.53526143750003,67.0,117.0
234,211.58762625000003,211.9339096875,65.0,95.0
235,211.99303125000003,212.39843625000003,60.0,102.0
236,212.39843625000003,212.96431406250002,63.0,112.0
237,213.20924625,213.530191875,65.0,122.0
238,213.61465125,213.874786125,67.0,122.0
239,214.02005625,214.29032625000002,70.0,127.0
240,214.42546125,214.80383925,67.0,107.0
241,214.83086625,215.199109125,65.0,99.0
242,215.43897375000003,215.8122841875,67.0,127.0
243,216.04708125000002,216.3021485625,70.0,127.0
244,216.45248625000002,216.70586437500003,60.0,79.0
245,216.65518875,216.87478312500002,63.0,99.0
246,216.85789125000002,218.57410575000003,60.0,93.0
247,218.88491625000003,219.1095781875,65.0,112.0
248,219.08761875000002,219.2835645,67.0,89.0
249,219.29032125000003,219.48288862500002,65.0,90.0
250,219.49302375000002,219.72106406250003,60.0,97.0
251,219.69572625,221.11295456250002,65.0,96.0
252,222.12815625000002,222.52004775000003,63.0,112.0
253,222.53356125000002,222.92883112500002,62.0,89.0
254,222.93896625000002,224.6838969375,60.0,95.0
255,225.37139625000003,225.74639587500002,55.0,92.0
256,225.77680125000003,226.15517925000003,58.0,86.0
257,226.18220625,227.73119118750003,60.0,90.0
258,228.28862306250002,228.8190279375,60.0,83.0
259,228.78186581250003,229.30551393750002,70.0,102.0
260,229.266662625,229.74639187500003,67.0,83.0
261,229.74301350000002,230.23625625000003,65.0,93.0
262,230.43895875,231.57240356250003,65.0,88.0
263,231.729498,231.945714,67.0,83.0
264,234.280171125,235.05888656250002,58.0,89.0
265,234.94571100000002,235.57915631250003,55.0,73.0
266,235.56564281250002,236.28354750000003,63.0,96.0
267,236.2278043125,237.1061818125,62.0,82.0
268,237.06901968750003,237.53354625000003,60.0,77.0
269,237.56057325000003,237.80043787500003,62.0,71.0
270,237.79874868750002,240.04198968750003,60.0,66.0
