,start,end,pitch,velocity
0,8.07431625,8.461140187500002,43.0,88.0
1,8.47972125,8.878369500000002,46.0,81.0
2,8.88512625,9.604720125,63.0,70.0
3,8.88512625,9.614855250000002,60.0,75.0
4,8.88512625,9.626679562500001,55.0,77.0
5,8.88512625,9.994922437500001,48.0,55.0
6,9.69593625,10.2567465,63.0,96.0
7,9.69593625,10.3226248125,60.0,92.0
8,10.304043750000002,10.557421875000001,48.0,71.0
9,10.50674625,11.201002312500002,62.0,70.0
10,10.50674625,11.219583375000001,58.0,68.0
11,10.50674625,11.234786062500001,53.0,61.0
12,11.31755625,11.3648535,53.0,38.0
13,10.50674625,11.408772375000002,46.0,93.0
14,11.31755625,11.8428935625,58.0,77.0
15,11.31755625,11.898636750000001,62.0,75.0
16,11.72296125,11.956069125,53.0,74.0
17,11.520258750000002,12.128366250000001,46.0,71.0
18,12.128366250000001,12.809108812500002,62.0,72.0
19,12.128366250000001,12.844581750000001,58.0,72.0
20,12.128366250000001,12.890189812500001,55.0,79.0
21,12.533771250000001,13.050662625000001,50.0,53.0
22,12.128366250000001,13.2922164375,43.0,59.0
23,12.939176250000001,13.530391875000001,62.0,82.0
24,12.939176250000001,13.626675562500001,58.0,90.0
25,13.749986250000001,14.217891187500001,63.0,81.0
26,13.749986250000001,14.229715500000001,60.0,83.0
27,13.547283750000002,14.499985500000001,55.0,75.0
28,13.749986250000001,14.797282500000001,36.0,58.0
29,14.155391250000001,14.851336500000002,43.0,55.0
30,14.560796250000001,14.978025562500001,60.0,88.0
31,14.560796250000001,15.079376812500001,63.0,93.0
32,14.763498750000002,15.084444375000002,48.0,58.0
33,14.966201250000001,15.119917312500002,55.0,77.0
34,15.371606250000001,15.797281500000002,60.0,85.0
35,15.371606250000001,15.890186812500001,63.0,63.0
36,15.979713750000002,16.0523488125,60.0,23.0
37,15.371606250000001,16.070929875,56.0,88.0
38,16.182416250000003,16.6165374375,60.0,92.0
39,16.182416250000003,16.6536995625,63.0,82.0
40,16.38511875,16.7009968125,51.0,69.0
41,16.58782125,16.915523625000002,56.0,77.0
42,15.371606250000001,16.9476181875,44.0,73.0
43,16.993226250000003,17.6807255625,62.0,75.0
44,16.993226250000003,17.702685000000002,58.0,73.0
45,17.804036250000003,18.059103562500002,53.0,38.0
46,16.993226250000003,18.08781975,46.0,69.0
47,17.804036250000003,18.309103312500003,62.0,83.0
48,17.804036250000003,18.567549000000003,58.0,85.0
49,18.614846250000003,19.300656375000003,63.0,69.0
50,18.614846250000003,19.31754825,55.0,66.0
51,18.614846250000003,19.320926625000002,58.0,72.0
52,19.02025125,19.45944,51.0,56.0
53,18.614846250000003,19.699304625000003,39.0,69.0
54,19.62835875,19.8631558125,51.0,78.0
55,19.425656250000003,19.8665341875,63.0,83.0
56,19.425656250000003,19.947615187500002,58.0,77.0
57,19.83106125,20.135115000000003,55.0,71.0
58,20.236466250000003,20.814168375,62.0,82.0
59,20.236466250000003,20.898627750000003,55.0,76.0
60,20.236466250000003,20.9273439375,58.0,88.0
61,20.64187125,21.097951875000003,50.0,58.0
62,21.24997875,21.4341001875,50.0,61.0
63,20.236466250000003,21.4678839375,43.0,63.0
64,21.047276250000003,21.4881541875,62.0,77.0
65,21.047276250000003,21.739843125000004,58.0,90.0
66,21.45268125,21.753356625000002,55.0,72.0
67,21.858086250000003,22.579369312500003,63.0,89.0
68,21.858086250000003,22.582747687500003,60.0,85.0
69,21.858086250000003,22.60132875,55.0,75.0
70,21.858086250000003,23.048963437500003,36.0,67.0
71,22.668896250000003,23.048963437500003,63.0,96.0
72,22.668896250000003,23.057409375000002,60.0,90.0
73,22.26349125,23.064166125000003,43.0,40.0
74,22.668896250000003,23.1536930625,55.0,74.0
75,23.07430125,23.4780170625,48.0,69.0
76,23.479706250000003,24.192543375000003,62.0,73.0
77,23.479706250000003,24.221259562500002,58.0,69.0
78,23.479706250000003,24.226327125,53.0,73.0
79,23.479706250000003,24.429029625000002,46.0,57.0
80,24.69592125,24.920583187500004,53.0,66.0
81,24.49321875,24.961123687500002,46.0,52.0
82,24.290516250000003,24.96619125,62.0,86.0
83,24.290516250000003,24.9864615,58.0,85.0
84,25.101326250000003,25.596258187500002,62.0,79.0
85,25.101326250000003,25.827676875,55.0,89.0
86,25.101326250000003,25.834433625000003,58.0,90.0
87,25.50673125,25.9881496875,50.0,54.0
88,25.912136250000003,26.515176187500003,62.0,88.0
89,25.101326250000003,26.557405875,43.0,72.0
90,26.114838750000004,26.616527437500004,50.0,71.0
91,25.912136250000003,26.631730125,58.0,96.0
92,26.722946250000003,27.050648625,48.0,73.0
93,26.722946250000003,27.233080875000002,63.0,70.0
94,26.722946250000003,27.268553812500002,60.0,72.0
95,26.520243750000002,27.412134750000003,55.0,83.0
96,27.12835125,27.942539625000002,48.0,82.0
97,27.533756250000003,27.945918000000002,60.0,93.0
98,27.93916125,28.165512375000002,55.0,75.0
99,27.533756250000003,28.214498812500004,63.0,100.0
100,28.344566250000003,28.802336062500004,60.0,63.0
101,28.344566250000003,29.035443937500002,56.0,86.0
102,28.344566250000003,29.0523358125,63.0,48.0
103,28.344566250000003,29.6469298125,44.0,77.0
104,29.155376250000003,29.707740562500003,60.0,107.0
105,29.155376250000003,29.716186500000003,63.0,90.0
106,29.155376250000003,29.7212540625,56.0,90.0
107,29.763483750000002,29.9644970625,44.0,89.0
108,29.966186250000003,30.640172062500003,62.0,69.0
109,29.966186250000003,30.672266625000002,58.0,67.0
110,29.966186250000003,30.685780125000004,53.0,76.0
111,29.966186250000003,31.010104125,46.0,100.0
112,30.776996250000003,31.114833750000003,53.0,39.0
113,30.776996250000003,31.540509000000004,58.0,83.0
114,30.776996250000003,31.548954937500003,62.0,81.0
115,31.18240125,31.560779250000003,46.0,95.0
116,32.804021250000005,33.494898937500004,48.0,76.0
117,32.39861625,33.7972635,63.0,102.0
118,33.20942625,34.0455740625,60.0,81.0
119,33.61483125,34.49320875,48.0,50.0
120,34.02023625,34.50672225,63.0,82.0
121,31.587806250000003,34.53374925,36.0,72.0
122,34.425641250000005,34.69591125,62.0,66.0
123,34.628343750000006,34.7448976875,63.0,25.0
124,31.99321125,34.819221937500004,43.0,43.0
125,36.047261250000005,36.5151661875,55.0,47.0
126,35.641856250000004,36.714490312500004,48.0,43.0
127,36.85807125,37.545570562500004,48.0,51.0
128,34.83104625,37.785435187500006,36.0,68.0
129,35.23645125,38.062461937500004,43.0,39.0
130,36.45266625,38.104691625,60.0,58.0
131,38.885096250000004,40.2178651875,63.0,73.0
132,39.290501250000005,40.4948919375,60.0,63.0
133,38.07428625,40.6502971875,36.0,81.0
134,38.47969125,40.685770125000005,43.0,40.0
135,40.10131125,40.8225943125,48.0,37.0
136,40.506716250000004,41.344553250000004,63.0,82.0
137,40.912121250000006,41.347931625,60.0,56.0
138,39.69590625,41.46617475,55.0,45.0
139,41.72293125,42.28205231250001,48.0,63.0
140,42.533741250000006,43.075970437500004,48.0,38.0
141,42.93914625,43.6266455625,56.0,52.0
142,42.128336250000004,43.766848125,53.0,66.0
143,41.31752625,43.962793875,41.0,68.0
144,44.155361250000006,44.4948879375,53.0,57.0
145,43.749956250000004,44.503333875,60.0,77.0
146,43.749956250000004,44.508401437500005,56.0,53.0
147,45.776981250000006,46.351305,63.0,74.0
148,44.96617125,46.374953625,56.0,60.0
149,45.371576250000004,46.5421831875,60.0,74.0
150,46.58779125,47.140155562500006,56.0,54.0
151,44.56076625000001,47.192520375,44.0,90.0
152,46.18238625000001,47.7955603125,68.0,69.0
153,47.398601250000006,47.831033250000004,60.0,56.0
154,46.993196250000004,47.87495212500001,63.0,68.0
155,49.020221250000006,49.515153187500005,58.0,59.0
156,48.20941125,49.58778825,51.0,49.0
157,48.614816250000004,49.847923125,55.0,69.0
158,49.83103125,50.17900387500001,51.0,58.0
159,47.80400625000001,50.337787500000005,39.0,77.0
160,50.236436250000004,50.996570625000004,58.0,72.0
161,49.42562625000001,51.03204356250001,63.0,90.0
162,50.641841250000006,51.20434068750001,55.0,76.0
163,51.858056250000004,52.891839000000004,48.0,85.0
164,52.263461250000006,53.526973500000004,55.0,70.0
165,51.45265125,53.673932812500006,43.0,55.0
166,51.04724625000001,53.71954087500001,36.0,82.0
167,53.07427125,53.775284062500006,48.0,67.0
168,53.479676250000004,54.28372950000001,60.0,81.0
169,52.66886625000001,54.30737812500001,63.0,96.0
170,53.885081250000006,54.3124456875,55.0,78.0
171,55.101296250000004,56.14859250000001,53.0,77.0
172,56.31751125,56.7414973125,53.0,73.0
173,54.29048625000001,56.7719026875,41.0,79.0
174,55.506701250000006,56.79048375000001,60.0,86.0
175,56.722916250000004,57.496564125000006,65.0,92.0
176,55.91210625000001,57.54217218750001,68.0,97.0
177,57.128321250000006,57.606361312500006,60.0,72.0
178,57.53372625000001,58.626630562500004,44.0,86.0
179,58.344536250000004,59.102981437500006,63.0,99.0
180,57.93913125,59.118184125000006,56.0,73.0
181,58.749941250000006,59.21108943750001,60.0,78.0
182,59.56075125,60.10298043750001,58.0,79.0
183,59.15534625000001,60.271899187500004,46.0,89.0
184,59.966156250000004,60.83270943750001,65.0,69.0
185,59.966156250000004,60.851290500000005,70.0,79.0
186,60.371561250000006,60.93912825,62.0,76.0
187,61.993181250000006,62.526964500000005,55.0,90.0
188,61.587776250000005,62.54723475000001,48.0,86.0
189,62.80399125,63.145207125000006,48.0,81.0
190,62.39858625000001,63.21446381250001,63.0,122.0
191,60.77696625000001,63.452639250000004,36.0,71.0
192,63.209396250000005,63.69081468750001,62.0,92.0
193,61.18237125,63.9475711875,43.0,63.0
194,63.614801250000006,64.4475706875,63.0,95.0
195,64.83101625,65.83608281250001,48.0,77.0
196,65.23642125,66.4509470625,55.0,67.0
197,64.42561125,66.513447,43.0,54.0
198,64.02020625,66.52020375000001,36.0,82.0
199,66.04723125000001,66.7381089375,48.0,56.0
200,66.45263625000001,67.320878625,60.0,82.0
201,65.64182625000001,67.320878625,63.0,83.0
202,66.85804125,67.3293245625,55.0,68.0
203,68.07425625,69.11310656250001,53.0,86.0
204,68.88506625000001,69.63844387500001,68.0,86.0
205,67.26344625,69.82425450000001,41.0,72.0
206,67.66885125,69.8901328125,48.0,57.0
207,69.29047125000001,69.972903,53.0,61.0
208,69.69587625000001,70.158713625,67.0,70.0
209,70.10128125,70.55736187500001,65.0,64.0
210,68.47966125,70.74148331250001,60.0,82.0
211,71.72290125,72.15533325000001,63.0,81.0
212,70.91209125,72.3597249375,56.0,86.0
213,71.31749625,72.4272924375,60.0,85.0
214,72.53371125000001,73.3631023125,56.0,68.0
215,70.50668625,73.4441833125,44.0,92.0
216,73.34452125,73.55060212500001,51.0,38.0
217,72.12830625000001,73.8529666875,68.0,100.0
218,72.93911625000001,73.88168287500001,63.0,96.0
219,74.96614125,75.4205326875,58.0,68.0
220,74.15533125,75.47120831250001,51.0,75.0
221,74.56073625,75.65195137500001,55.0,67.0
222,75.77695125000001,75.91546462500001,46.0,28.0
223,75.77695125000001,76.44418031250001,51.0,56.0
224,73.74992625,76.54384237500001,39.0,69.0
225,76.18235625000001,77.07762562500001,58.0,64.0
226,75.37154625000001,77.08269318750001,63.0,97.0
227,76.58776125,77.537084625,55.0,60.0
228,77.80397625,78.80566443750001,48.0,86.0
229,76.99316625,79.41546112500001,36.0,67.0
230,78.20938125,79.44248812500001,55.0,72.0
231,77.39857125,79.45600162500001,43.0,51.0
232,79.02019125000001,79.64519062500001,48.0,73.0
233,78.61478625000001,80.23133868750001,63.0,97.0
234,79.42559625000001,80.24991975,60.0,85.0
235,79.83100125000001,80.25160893750001,55.0,76.0
236,81.04721625,82.084377375,53.0,76.0
237,80.23640625,82.4644445625,41.0,70.0
238,80.64181125,82.46951212500001,48.0,64.0
239,82.26343125000001,82.65194437500001,53.0,69.0
240,81.45262125,82.77694425000001,60.0,68.0
241,82.66883625000001,83.39687606250001,65.0,76.0
242,81.85802625000001,83.462754375,68.0,93.0
243,83.07424125000001,83.7549838125,60.0,71.0
244,83.47964625,84.557347875,44.0,89.0
245,83.88505125,84.6164694375,56.0,73.0
246,84.69586125000001,85.03200956250001,63.0,69.0
247,84.29045625,85.14856350000001,60.0,97.0
248,85.50667125000001,85.9306573125,58.0,90.0
249,85.10126625000001,85.95430593750001,46.0,74.0
250,86.31748125000001,86.7617375625,58.0,69.0
251,85.91207625000001,86.78538618750001,62.0,86.0
252,87.53369625,88.52187093750001,48.0,95.0
253,88.34450625000001,89.0184920625,63.0,117.0
254,87.93910125000001,89.05565418750001,55.0,86.0
255,88.74991125000001,89.2988971875,48.0,95.0
256,87.12829125,89.5269375,43.0,43.0
257,86.72288625,89.56747800000001,36.0,85.0
258,89.15531625000001,89.90869387500001,63.0,112.0
259,89.15531625000001,89.918829,60.0,92.0
260,89.56072125000001,89.92896412500001,55.0,96.0
261,89.96612625,90.4999095,60.0,82.0
262,89.96612625,90.51173381250001,63.0,82.0
263,89.96612625,90.61815262500001,55.0,85.0
264,90.57423375,90.62828775000001,63.0,25.0
265,90.77693625,91.14011156250001,63.0,88.0
266,90.77693625,91.17051693750001,60.0,92.0
267,90.37153125,91.27693575,43.0,61.0
268,90.77693625,91.29044925000001,55.0,79.0
269,89.96612625,91.3056519375,36.0,69.0
270,91.38504375000001,91.5556516875,48.0,72.0
271,91.58774625000001,92.30734012500001,62.0,74.0
272,91.58774625000001,92.33267793750001,58.0,72.0
273,91.58774625000001,92.35125900000001,53.0,71.0
274,91.58774625000001,92.52355612500001,46.0,117.0
275,92.39855625000001,92.58267768750001,53.0,58.0
276,92.39855625000001,92.8782855,58.0,96.0
277,92.39855625000001,92.91882600000001,62.0,88.0
278,92.80396125000001,93.03031237500001,53.0,76.0
279,93.00666375,93.07929881250001,58.0,45.0
280,92.60125875000001,93.17220412500001,46.0,102.0
281,93.20936625,93.87490612500001,62.0,74.0
282,93.20936625,93.91037906250001,55.0,86.0
283,93.20936625,93.93064931250001,58.0,77.0
284,93.61477125,94.0624059375,50.0,40.0
285,93.20936625,94.23639225000001,43.0,72.0
286,94.02017625,94.5759189375,62.0,90.0
287,94.02017625,94.6620675,58.0,99.0
288,94.83098625000001,95.55902606250001,63.0,82.0
289,94.83098625000001,95.56071525000002,60.0,77.0
290,94.62828375000001,95.57253956250001,55.0,96.0
291,95.23639125000001,95.70598537500001,43.0,58.0
292,94.83098625000001,95.77524206250001,36.0,72.0
293,95.64179625000001,96.0522688125,60.0,93.0
294,95.64179625000001,96.16882275,63.0,100.0
295,96.04720125000001,96.24821456250001,55.0,75.0
296,95.64179625000001,96.38503875,48.0,72.0
297,96.45260625,96.87828150000001,63.0,66.0
298,96.45260625,97.14348393750001,60.0,76.0
299,96.45260625,97.16882175,56.0,63.0
300,97.06071375,97.17051093750001,63.0,23.0
301,96.45260625,97.31578106250001,44.0,74.0
302,97.26341625,97.64179425,60.0,95.0
303,97.26341625,97.65361856250001,56.0,83.0
304,97.26341625,97.66544287500001,63.0,77.0
305,97.87152375000001,98.09618568750001,44.0,88.0
306,98.07422625000001,98.79044175000001,62.0,69.0
307,98.07422625000001,98.81577956250001,58.0,75.0
308,98.07422625000001,98.8529416875,53.0,66.0
309,98.07422625000001,99.0286171875,46.0,90.0
310,98.88503625000001,99.334360125,62.0,85.0
311,98.88503625000001,99.52523831250001,53.0,57.0
312,98.88503625000001,99.6096976875,58.0,93.0
313,99.69584625,100.40023743750001,63.0,74.0
314,99.69584625,100.40530500000001,55.0,78.0
315,99.69584625,100.4069941875,58.0,83.0
316,100.10125125,100.60631831250001,51.0,59.0
317,99.69584625,100.95598012500001,39.0,79.0
318,100.50665625,101.05226381250002,63.0,112.0
319,100.50665625,101.19415556250001,58.0,100.0
320,101.11476375000001,101.26341225000002,51.0,73.0
321,101.11476375000001,101.30057437500001,39.0,59.0
322,101.31746625000001,101.97287100000001,62.0,88.0
323,101.31746625000001,102.01510068750001,55.0,95.0
324,101.31746625000001,102.01510068750001,58.0,90.0
325,101.31746625000001,102.28368150000001,43.0,65.0
326,102.12827625000001,102.58942443750001,62.0,97.0
327,102.12827625000001,102.82422150000001,58.0,117.0
328,102.53368125000001,102.92050518750001,43.0,95.0
329,102.93908625,103.67388281250001,55.0,88.0
330,102.93908625,103.675572,60.0,92.0
331,102.93908625,103.67726118750001,63.0,88.0
332,103.74989625,104.0590175625,63.0,100.0
333,103.74989625,104.12827425,60.0,100.0
334,103.74989625,104.27692275000001,55.0,90.0
335,103.34449125,104.31915243750001,43.0,57.0
336,102.93908625,104.347868625,36.0,71.0
337,104.35800375000001,104.567463,48.0,82.0
338,104.56070625000001,105.2617190625,62.0,78.0
339,104.56070625000001,105.28874606250001,53.0,79.0
340,104.56070625000001,105.28874606250001,58.0,83.0
341,104.56070625000001,105.62827275000001,46.0,88.0
342,105.37151625000001,105.881650875,53.0,73.0
343,105.37151625000001,106.02185343750001,62.0,83.0
344,105.37151625000001,106.05225881250001,58.0,90.0
345,105.77692125000002,106.1400965625,46.0,89.0
346,106.18232625,106.64685281250001,62.0,73.0
347,106.18232625,106.82759587500001,55.0,79.0
348,106.18232625,106.87320393750001,58.0,82.0
349,106.58773125,107.02185243750002,50.0,40.0
350,106.18232625,107.10124425000001,43.0,68.0
351,106.99313625,107.510027625,62.0,73.0
352,106.99313625,107.67050043750001,58.0,97.0
353,107.80394625000001,108.34617543750001,60.0,83.0
354,107.80394625000001,108.34786462500001,63.0,85.0
355,107.60124375000001,108.4103645625,55.0,88.0
356,108.20935125000001,108.65360756250001,43.0,53.0
357,107.80394625000001,108.70935075000001,36.0,69.0
358,108.61475625000001,108.91881000000001,48.0,81.0
359,108.61475625000001,109.01509368750001,60.0,81.0
360,108.61475625000001,109.1333368125,55.0,75.0
361,108.61475625000001,109.14009356250001,63.0,81.0
362,109.02016125000002,109.41205275000002,48.0,88.0
363,109.42556625,109.87320093750002,60.0,77.0
364,109.42556625,109.91205225000002,63.0,64.0
365,109.42556625,110.12151150000001,56.0,72.0
366,109.42556625,110.28198431250001,44.0,90.0
367,110.23637625,110.66036231250001,63.0,66.0
368,110.23637625,110.68232175000001,60.0,92.0
369,110.23637625,110.70765956250001,56.0,81.0
370,110.84448375000001,111.02015925,44.0,74.0
371,111.04718625000001,111.46441556250001,62.0,77.0
372,111.04718625000001,111.726239625,53.0,74.0
373,111.04718625000001,111.73637475000001,58.0,85.0
374,111.04718625000001,112.07759062500001,46.0,99.0
375,111.85799625000001,112.41036056250002,62.0,85.0
376,111.85799625000001,112.51509018750001,53.0,72.0
377,111.85799625000001,112.58603606250001,58.0,89.0
378,112.66880625000002,113.35123800000001,63.0,81.0
379,112.66880625000002,113.35630556250001,55.0,79.0
380,112.66880625000002,113.3630623125,60.0,81.0
381,113.47961625,114.16880475,55.0,88.0
382,113.47961625,114.19583175000001,60.0,86.0
383,113.47961625,114.19752093750002,63.0,79.0
384,114.08772375000001,114.4779260625,48.0,75.0
385,114.29042625000001,114.9863715,63.0,85.0
386,114.29042625000001,114.99650662500001,60.0,85.0
387,114.29042625000001,115.04380387500001,55.0,69.0
388,112.66880625000002,115.71103293750001,36.0,66.0
389,113.07421125,115.71272212500001,43.0,48.0
390,115.50664125000002,115.90191112500001,55.0,62.0
391,115.10123625000001,115.91542462500001,60.0,78.0
392,115.10123625000001,115.9340056875,63.0,79.0
393,116.31745125,117.07758562500001,43.0,61.0
394,115.91204625000002,117.09785587500001,36.0,76.0
395,116.72285625,117.16373418750001,48.0,79.0
396,117.12826125000001,117.54380137500002,63.0,88.0
397,117.93907125000001,118.41204375000001,58.0,63.0
398,117.53366625000001,118.49819231250001,46.0,89.0
399,118.34447625000001,118.8326514375,65.0,92.0
400,118.74988125000002,119.15359706250001,62.0,75.0
401,119.56069125,120.11812312500001,50.0,64.0
402,119.15528625000002,120.16710956250002,43.0,71.0
403,119.96609625,120.7887305625,62.0,86.0
404,120.37150125000001,120.79548731250001,58.0,71.0
405,121.18231125000001,121.705959375,43.0,45.0
406,120.77690625000001,121.8225133125,36.0,72.0
407,121.58771625000001,121.94751318750001,48.0,69.0
408,121.58771625000001,122.11474275,63.0,102.0
409,121.99312125000002,122.37149925000001,60.0,73.0
410,122.39852625000002,123.39345768750002,44.0,89.0
411,122.80393125,123.510011625,56.0,75.0
412,123.20933625,123.97622737500001,68.0,99.0
413,123.61474125000001,124.01338950000002,63.0,86.0
414,124.42555125000001,124.88501025000001,58.0,88.0
415,124.02014625000001,124.93399668750001,46.0,93.0
416,125.23636125000002,125.6079825,62.0,89.0
417,124.83095625000001,125.61305006250001,65.0,100.0
418,126.04717125,126.49142756250001,51.0,95.0
419,125.64176625000002,126.7279138125,39.0,93.0
420,126.65527875000001,126.8056164375,51.0,95.0
421,126.45257625,127.0116973125,63.0,117.0
422,127.06068375000001,127.16203500000002,63.0,35.0
423,126.85798125000001,127.20426468750001,58.0,99.0
424,127.66879125000001,127.93061531250001,55.0,93.0
425,127.87149375000001,128.04716925000002,58.0,117.0
426,127.46608875000001,128.1603448125,50.0,72.0
427,128.27689875000002,128.42385806250002,50.0,92.0
428,127.26338625000001,128.4610201875,43.0,66.0
429,128.47960125,128.81743875,58.0,107.0
430,128.07419625,128.81743875,62.0,97.0
431,128.68230375000002,128.93230350000002,55.0,74.0
432,129.29041125,129.7920999375,48.0,72.0
433,129.49311375000002,129.8056134375,55.0,67.0
434,129.08770875000002,129.955951125,43.0,66.0
435,128.88500625,129.9711538125,36.0,83.0
436,129.89851875000002,130.02858618750003,48.0,63.0
437,129.69581625,130.4711533125,63.0,97.0
438,130.10122125,130.48297762500002,60.0,88.0
439,130.91203125,131.14682831250002,62.0,96.0
440,131.11473375,131.2211525625,65.0,89.0
441,130.70932875000003,131.374868625,58.0,100.0
442,131.52013875,131.6400710625,58.0,95.0
443,130.50662625,131.71608450000002,46.0,89.0
444,131.31743625000001,131.726219625,65.0,100.0
445,131.72284125000002,131.9677734375,62.0,95.0
446,131.92554375,132.135003,65.0,97.0
447,132.53365125000002,132.881623875,55.0,77.0
448,132.73635375,132.90527250000002,58.0,73.0
449,132.33094875,132.99311025,50.0,67.0
450,132.12824625000002,133.24817756250002,43.0,74.0
451,133.14175875,133.280272125,50.0,69.0
452,133.34446125000002,133.60966368750002,58.0,112.0
453,132.93905625000002,133.6164204375,62.0,96.0
454,133.54716375,134.2008793125,55.0,86.0
455,134.15527125,134.60966268750002,48.0,82.0
456,134.35797375,134.69581125000002,55.0,92.0
457,133.95256875,134.8022300625,43.0,59.0
458,133.74986625000003,134.8191219375,36.0,75.0
459,134.76337875000002,134.94581100000002,48.0,81.0
460,134.56067625,135.3224998125,63.0,117.0
461,135.16878375000002,135.3360133125,55.0,88.0
462,134.96608125,135.3360133125,60.0,88.0
463,135.97959375000002,136.1755395,63.0,99.0
464,135.57418875000002,136.189053,56.0,88.0
465,135.77689125,136.33263393750002,60.0,69.0
466,135.37148625,136.53026887500002,44.0,92.0
467,136.18229625,136.7785794375,68.0,102.0
468,136.58770125,136.9069576875,63.0,85.0
469,136.38499875000002,136.93398468750001,56.0,90.0
470,136.79040375000002,137.016754875,60.0,78.0
471,137.60121375,137.7431055,65.0,77.0
472,137.19580875000003,137.83938918750002,58.0,93.0
473,137.39851125,137.8765513125,62.0,69.0
474,138.00661875,138.1214835,58.0,96.0
475,136.99310625,138.145132125,46.0,71.0
476,137.80391625000001,138.567429,70.0,112.0
477,138.20932125000002,138.604591125,65.0,95.0
478,138.41202375,138.638374875,62.0,89.0
479,139.02013125000002,139.4728335,48.0,74.0
480,139.22283375,139.7414143125,55.0,72.0
481,139.83094125000002,140.0860085625,62.0,75.0
482,138.61472625000002,140.12992743750002,36.0,59.0
483,138.81742875,140.2414138125,43.0,68.0
484,139.62823875,140.3833055625,48.0,75.0
485,139.42553625000002,141.66539887500002,63.0,96.0
486,140.23634625000003,141.69749343750001,36.0,74.0
487,140.03364375,141.69749343750001,60.0,70.0
488,142.66877625,143.67384281250003,48.0,77.0
489,143.07418125,144.2887070625,55.0,67.0
490,142.26337125,144.35120700000002,43.0,54.0
491,141.85796625,144.35796375,36.0,82.0
492,143.88499125,144.57586893750002,48.0,56.0
493,144.29039625000001,145.158638625,60.0,82.0
494,143.47958625,145.158638625,63.0,83.0
495,144.69580125000002,145.1670845625,55.0,68.0
496,145.91201625000002,146.9508665625,53.0,86.0
497,146.72282625000003,147.476203875,68.0,86.0
498,145.10120625000002,147.66201450000003,41.0,72.0
499,145.50661125000002,147.72789281250002,48.0,57.0
500,147.12823125000003,147.810663,53.0,61.0
501,147.53363625,147.99647362500002,67.0,70.0
502,147.93904125,148.395121875,65.0,64.0
503,146.31742125000002,148.5792433125,60.0,82.0
504,149.56066125,149.99309325000002,63.0,81.0
505,148.74985125,150.1974849375,56.0,86.0
506,149.15525625,150.2650524375,60.0,85.0
507,150.37147125,151.20086231250002,56.0,68.0
508,148.34444625,151.2819433125,44.0,92.0
509,151.18228125000002,151.38836212500001,51.0,38.0
510,149.96606625,151.69072668750002,68.0,100.0
511,150.77687625000002,151.71944287500003,63.0,96.0
512,152.80390125000002,153.25829268750002,58.0,68.0
513,151.99309125000002,153.3089683125,51.0,75.0
514,152.39849625000002,153.489711375,55.0,67.0
515,153.61471125000003,153.753224625,46.0,28.0
516,153.61471125000003,154.2819403125,51.0,56.0
517,151.58768625000002,154.381602375,39.0,69.0
518,154.02011625,154.91538562500003,58.0,64.0
519,153.20930625000003,154.92045318750002,63.0,97.0
520,154.42552125,155.374844625,55.0,60.0
521,155.64173625,156.64342443750002,48.0,86.0
522,154.83092625,157.253221125,36.0,67.0
523,156.04714125,157.280248125,55.0,72.0
524,155.23633125,157.293761625,43.0,51.0
525,156.85795125,157.482950625,48.0,73.0
526,156.45254625,158.0690986875,63.0,97.0
527,157.26335625000002,158.08767975,60.0,85.0
528,157.66876125000002,158.0893689375,55.0,76.0
529,158.88497625000002,159.922137375,53.0,76.0
530,158.07416625000002,160.3022045625,41.0,70.0
531,158.47957125000002,160.30727212500003,48.0,64.0
532,160.10119125000003,160.489704375,53.0,69.0
533,159.29038125000002,160.61470425000002,60.0,68.0
534,160.50659625,161.23463606250002,65.0,76.0
535,159.69578625000003,161.300514375,68.0,93.0
536,160.91200125,161.5927438125,60.0,71.0
537,161.31740625,162.395107875,44.0,89.0
538,161.72281125,162.4542294375,56.0,73.0
539,162.53362125,162.8697695625,63.0,69.0
540,162.12821625,162.98632350000003,60.0,97.0
541,163.34443125,163.76841731250002,58.0,90.0
542,162.93902625,163.7920659375,46.0,74.0
543,164.15524125000002,164.5994975625,58.0,69.0
544,163.74983625000002,164.62314618750003,62.0,86.0
545,165.37145625000002,166.35963093750001,48.0,95.0
546,166.18226625000003,166.8562520625,63.0,117.0
547,165.77686125000002,166.8934141875,55.0,86.0
548,166.58767125000003,167.13665718750002,48.0,95.0
549,164.96605125000002,167.3646975,43.0,43.0
550,164.56064625000002,167.40523800000003,36.0,85.0
551,166.99307625,167.74645387500001,63.0,112.0
552,166.99307625,167.75658900000002,60.0,92.0
553,167.39848125,167.76672412500002,55.0,96.0
554,167.80388625,168.3376695,60.0,82.0
555,167.80388625,168.34949381250001,63.0,82.0
556,167.80388625,168.45591262500002,55.0,85.0
557,168.41199375000002,168.46604775,63.0,25.0
558,168.61469625,168.9778715625,63.0,88.0
559,168.61469625,169.00827693750003,60.0,92.0
560,168.20929125,169.11469575,43.0,61.0
561,168.61469625,169.12820925000003,55.0,79.0
562,167.80388625,169.14341193750002,36.0,69.0
563,169.22280375000003,169.39341168750002,48.0,72.0
564,169.42550625,170.14510012500003,62.0,74.0
565,169.42550625,170.17043793750003,58.0,72.0
566,169.42550625,170.189019,53.0,71.0
567,169.42550625,170.361316125,46.0,117.0
568,170.23631625000002,170.42043768750003,53.0,58.0
569,170.23631625000002,170.7160455,58.0,96.0
570,170.23631625000002,170.75658600000003,62.0,88.0
571,170.64172125000002,170.86807237500003,53.0,76.0
572,170.84442375,170.91705881250002,58.0,45.0
573,170.43901875,171.009964125,46.0,102.0
574,171.04712625000002,171.71266612500003,62.0,74.0
575,171.04712625000002,171.7481390625,55.0,86.0
576,171.04712625000002,171.7684093125,58.0,77.0
577,171.45253125000002,171.90016593750002,50.0,40.0
578,171.04712625000002,172.07415225000003,43.0,72.0
579,171.85793625000002,172.4136789375,62.0,90.0
580,171.85793625000002,172.4998275,58.0,99.0
581,172.66874625000003,173.3967860625,63.0,82.0
582,172.66874625000003,173.39847525000002,60.0,77.0
583,172.46604375,173.41029956250003,55.0,96.0
584,173.07415125000003,173.54374537500001,43.0,58.0
585,172.66874625000003,173.61300206250002,36.0,72.0
586,173.47955625,173.89002881250002,60.0,93.0
587,173.47955625,174.00658275,63.0,100.0
588,173.88496125,174.0859745625,55.0,75.0
589,173.47955625,174.22279875,48.0,72.0
590,174.29036625,174.71604150000002,63.0,66.0
591,174.29036625,174.9812439375,60.0,76.0
592,174.29036625,175.00658175,56.0,63.0
593,174.89847375000002,175.00827093750001,63.0,23.0
594,174.29036625,175.1535410625,44.0,74.0
595,175.10117625,175.47955425,60.0,95.0
596,175.10117625,175.49137856250002,56.0,83.0
597,175.10117625,175.50320287500003,63.0,77.0
598,175.70928375000003,175.93394568750003,44.0,88.0
599,175.91198625,176.62820175000002,62.0,69.0
600,175.91198625,176.65353956250001,58.0,75.0
601,175.91198625,176.69070168750002,53.0,66.0
602,175.91198625,176.8663771875,46.0,90.0
603,176.72279625000002,177.17212012500002,62.0,85.0
604,176.72279625000002,177.36299831250003,53.0,57.0
605,176.72279625000002,177.44745768750002,58.0,93.0
606,177.53360625000002,178.2379974375,63.0,74.0
607,177.53360625000002,178.24306500000003,55.0,78.0
608,177.53360625000002,178.2447541875,58.0,83.0
609,177.93901125000002,178.4440783125,51.0,59.0
610,177.53360625000002,178.79374012500003,39.0,79.0
611,178.34441625000002,178.8900238125,63.0,112.0
612,178.34441625000002,179.03191556250002,58.0,100.0
613,178.95252375,179.10117225000002,51.0,73.0
614,178.95252375,179.13833437500003,39.0,59.0
615,179.15522625000003,179.81063100000003,62.0,88.0
616,179.15522625000003,179.85286068750003,55.0,95.0
617,179.15522625000003,179.85286068750003,58.0,90.0
618,179.15522625000003,180.1214415,43.0,65.0
619,179.96603625,180.42718443750002,62.0,97.0
620,179.96603625,180.66198150000002,58.0,117.0
621,180.37144125,180.75826518750003,43.0,95.0
622,180.77684625,181.5116428125,55.0,88.0
623,180.77684625,181.51333200000002,60.0,92.0
624,180.77684625,181.51502118750003,63.0,88.0
625,181.58765625,181.8967775625,63.0,100.0
626,181.58765625,181.96603425,60.0,100.0
627,181.58765625,182.11468275000001,55.0,90.0
628,181.18225125,182.1569124375,43.0,57.0
629,180.77684625,182.18562862500002,36.0,71.0
630,182.19576375000003,182.405223,48.0,82.0
631,182.39846625,183.09947906250002,62.0,78.0
632,182.39846625,183.12650606250003,53.0,79.0
633,182.39846625,183.12650606250003,58.0,83.0
634,182.39846625,183.46603275,46.0,88.0
635,183.20927625000002,183.71941087500002,53.0,73.0
636,183.20927625000002,183.85961343750003,62.0,83.0
637,183.20927625000002,183.89001881250002,58.0,90.0
638,183.61468125000002,183.97785656250002,46.0,89.0
639,184.02008625000002,184.48461281250002,62.0,73.0
640,184.02008625000002,184.66535587500002,55.0,79.0
641,184.02008625000002,184.71096393750003,58.0,82.0
642,184.42549125000002,184.8596124375,50.0,40.0
643,184.02008625000002,184.93900425,43.0,68.0
644,184.83089625000002,185.34778762500002,62.0,73.0
645,184.83089625000002,185.5082604375,58.0,97.0
646,185.64170625000003,186.18393543750003,60.0,83.0
647,185.64170625000003,186.185624625,63.0,85.0
648,185.43900375,186.2481245625,55.0,88.0
649,186.04711125000003,186.49136756250002,43.0,53.0
650,185.64170625000003,186.54711075000003,36.0,69.0
651,186.45251625000003,186.75657,48.0,81.0
652,186.45251625000003,186.85285368750002,60.0,81.0
653,186.45251625000003,186.9710968125,55.0,75.0
654,186.45251625000003,186.97785356250003,63.0,81.0
655,186.85792125,187.24981275000002,48.0,88.0
656,187.26332625,187.7109609375,60.0,77.0
657,187.26332625,187.74981225000002,63.0,64.0
658,187.26332625,187.95927150000003,56.0,72.0
659,187.26332625,188.11974431250002,44.0,90.0
660,188.07413625,188.49812231250002,63.0,66.0
661,188.07413625,188.52008175,60.0,92.0
662,188.07413625,188.54541956250003,56.0,81.0
663,188.68224375000003,188.85791925,44.0,74.0
664,188.88494625,189.30217556250003,62.0,77.0
665,188.88494625,189.563999625,53.0,74.0
666,188.88494625,189.57413475,58.0,85.0
667,188.88494625,189.91535062500003,46.0,99.0
668,189.69575625000002,190.24812056250002,62.0,85.0
669,189.69575625000002,190.35285018750002,53.0,72.0
670,189.69575625000002,190.4237960625,58.0,89.0
671,190.50656625000002,191.18899800000003,63.0,81.0
672,190.50656625000002,191.19406556250001,55.0,79.0
673,190.50656625000002,191.2008223125,60.0,81.0
674,191.31737625000002,192.00656475000002,55.0,88.0
675,191.31737625000002,192.03359175000003,60.0,86.0
676,191.31737625000002,192.0352809375,63.0,79.0
677,191.92548375,192.31568606250002,48.0,75.0
678,192.12818625000003,192.82413150000002,63.0,85.0
679,192.12818625000003,192.83426662500003,60.0,85.0
680,192.12818625000003,192.881563875,55.0,69.0
681,190.50656625000002,193.54879293750002,36.0,66.0
682,190.91197125000002,193.55048212500003,43.0,48.0
683,193.34440125,193.73967112500003,55.0,62.0
684,192.93899625000003,193.74980625,60.0,78.0
685,192.93899625000003,193.74980625,63.0,79.0
686,193.74980625,194.2835895,60.0,82.0
687,193.74980625,194.29541381250002,63.0,82.0
688,193.74980625,194.40183262500003,55.0,85.0
689,194.35791375000002,194.41196775000003,63.0,25.0
690,194.56061625,194.9237915625,63.0,88.0
691,194.56061625,194.95419693750003,60.0,92.0
692,194.15521125,195.06061575,43.0,61.0
693,194.56061625,195.07412925000003,55.0,79.0
694,193.74980625,195.08933193750002,36.0,69.0
695,195.16872375000003,195.33933168750002,48.0,72.0
696,195.37142625,196.09102012500003,62.0,74.0
697,195.37142625,196.11635793750003,58.0,72.0
698,195.37142625,196.13493900000003,53.0,71.0
699,195.37142625,196.30723612500003,46.0,117.0
700,196.18223625000002,196.36635768750003,53.0,58.0
701,196.18223625000002,196.6619655,58.0,96.0
702,196.18223625000002,196.70250600000003,62.0,88.0
703,196.58764125000002,196.81399237500003,53.0,76.0
704,196.79034375,196.86297881250002,58.0,45.0
705,196.38493875,196.955884125,46.0,102.0
706,196.99304625000002,197.65858612500003,62.0,74.0
707,196.99304625000002,197.69405906250003,55.0,86.0
708,196.99304625000002,197.7143293125,58.0,77.0
709,197.39845125000002,197.84608593750002,50.0,40.0
710,196.99304625000002,198.02007225000003,43.0,72.0
711,197.80385625000002,198.3595989375,62.0,90.0
712,197.80385625000002,198.4457475,58.0,99.0
713,198.61466625000003,199.3427060625,63.0,82.0
714,198.61466625000003,199.34439525000002,60.0,77.0
715,198.41196375,199.35621956250003,55.0,96.0
716,199.02007125000003,199.48966537500002,43.0,58.0
717,198.61466625000003,199.55892206250002,36.0,72.0
718,199.42547625000003,199.83594881250002,60.0,93.0
719,199.42547625000003,199.95250275,63.0,100.0
720,199.83088125,200.0318945625,55.0,75.0
721,199.42547625000003,200.16871875,48.0,72.0
722,200.23628625,200.66196150000002,63.0,66.0
723,200.23628625,200.9271639375,60.0,76.0
724,200.23628625,200.95250175,56.0,63.0
725,200.84439375000002,200.95419093750002,63.0,23.0
726,200.23628625,201.0994610625,44.0,74.0
727,201.04709625,201.42547425,60.0,95.0
728,201.04709625,201.43729856250002,56.0,83.0
729,201.04709625,201.44912287500003,63.0,77.0
730,201.65520375000003,201.87986568750003,44.0,88.0
731,201.85790625,202.57412175000002,62.0,69.0
732,201.85790625,202.59945956250002,58.0,75.0
733,201.85790625,202.63662168750002,53.0,66.0
734,201.85790625,202.8122971875,46.0,90.0
735,202.66871625000002,203.11804012500002,62.0,85.0
736,202.66871625000002,203.30891831250003,53.0,57.0
737,202.66871625000002,203.39337768750002,58.0,93.0
738,203.47952625000002,204.1839174375,63.0,74.0
739,203.47952625000002,204.18898500000003,55.0,78.0
740,203.47952625000002,204.1906741875,58.0,83.0
741,203.88493125000002,204.3899983125,51.0,59.0
742,203.47952625000002,204.73966012500003,39.0,79.0
743,204.29033625000002,204.8359438125,63.0,112.0
744,204.29033625000002,204.97783556250002,58.0,100.0
745,204.89844375,205.04709225000002,51.0,73.0
746,204.89844375,205.08425437500003,39.0,59.0
747,205.10114625000003,205.75655100000003,62.0,88.0
748,205.10114625000003,205.79878068750003,55.0,95.0
749,205.10114625000003,205.79878068750003,58.0,90.0
750,205.10114625000003,206.06736150000003,43.0,65.0
751,205.91195625000003,206.37310443750002,62.0,97.0
752,205.91195625000003,206.60790150000003,58.0,117.0
753,206.31736125,206.70418518750003,43.0,95.0
754,206.72276625,207.45756281250002,55.0,88.0
755,206.72276625,207.45925200000002,60.0,92.0
756,206.72276625,207.46094118750003,63.0,88.0
757,207.53357625,207.8426975625,63.0,100.0
758,207.53357625,207.91195425,60.0,100.0
759,207.53357625,208.06060275000002,55.0,90.0
760,207.12817125,208.1028324375,43.0,57.0
761,206.72276625,208.13154862500002,36.0,71.0
762,208.14168375000003,208.351143,48.0,82.0
763,208.34438625,209.04539906250002,62.0,78.0
764,208.34438625,209.07242606250003,53.0,79.0
765,208.34438625,209.07242606250003,58.0,83.0
766,208.34438625,209.41195275,46.0,88.0
767,209.15519625000002,209.66533087500002,53.0,73.0
768,209.15519625000002,209.80553343750003,62.0,83.0
769,209.15519625000002,209.83593881250002,58.0,90.0
770,209.56060125000002,209.92377656250002,46.0,89.0
771,209.96600625000002,210.43053281250002,62.0,73.0
772,209.96600625000002,210.61127587500002,55.0,79.0
773,209.96600625000002,210.65688393750003,58.0,82.0
774,210.37141125000002,210.8055324375,50.0,40.0
775,209.96600625000002,210.88492425,43.0,68.0
776,210.77681625000002,211.29370762500002,62.0,73.0
777,210.77681625000002,211.4541804375,58.0,97.0
778,211.58762625000003,212.12985543750003,60.0,83.0
779,211.58762625000003,212.13154462500003,63.0,85.0
780,211.38492375,212.1940445625,55.0,88.0
781,211.99303125000003,212.43728756250002,43.0,53.0
782,211.58762625000003,212.49303075000003,36.0,69.0
783,212.39843625000003,212.70249,48.0,81.0
784,212.39843625000003,212.79877368750002,60.0,81.0
785,212.39843625000003,212.9170168125,55.0,75.0
786,212.39843625000003,212.92377356250003,63.0,81.0
787,212.80384125,213.19573275000002,48.0,88.0
788,213.20924625,213.6568809375,60.0,77.0
789,213.20924625,213.69573225000002,63.0,64.0
790,213.20924625,213.90519150000003,56.0,72.0
791,213.20924625,214.06566431250002,44.0,90.0
792,214.02005625,214.44404231250002,63.0,66.0
793,214.02005625,214.46600175000003,60.0,92.0
794,214.02005625,214.49133956250003,56.0,81.0
795,214.62816375000003,214.80383925,44.0,74.0
796,214.83086625,215.24809556250003,62.0,77.0
797,214.83086625,215.509919625,53.0,74.0
798,214.83086625,215.52005475,58.0,85.0
799,214.83086625,215.86127062500003,46.0,99.0
800,215.64167625000002,216.19404056250002,62.0,85.0
801,215.64167625000002,216.29877018750003,53.0,72.0
802,215.64167625000002,216.36971606250003,58.0,89.0
803,216.45248625000002,217.13491800000003,63.0,81.0
804,216.45248625000002,217.13998556250002,55.0,79.0
805,216.45248625000002,217.1467423125,60.0,81.0
806,217.26329625000002,217.95248475000002,55.0,88.0
807,217.26329625000002,217.97951175000003,60.0,86.0
808,217.26329625000002,217.9812009375,63.0,79.0
809,217.87140375,218.26160606250002,48.0,75.0
810,218.07410625000003,218.77005150000002,63.0,85.0
811,218.07410625000003,218.78018662500003,60.0,85.0
812,218.07410625000003,218.827483875,55.0,69.0
813,216.45248625000002,219.49471293750003,36.0,66.0
814,216.85789125000002,219.49640212500003,43.0,48.0
815,219.29032125000003,219.68559112500003,55.0,62.0
816,218.88491625000003,219.69572625,60.0,78.0
817,218.88491625000003,219.69572625,63.0,79.0
818,219.69572625,220.901806125,44.0,100.0
819,220.10113125,221.239643625,56.0,57.0
820,220.50653625,221.27004900000003,63.0,97.0
821,220.91194125,221.37477862500003,60.0,69.0
822,221.72275125000002,222.21599400000002,58.0,63.0
823,221.31734625,222.30383175000003,46.0,72.0
824,222.12815625000002,223.03356075000002,62.0,83.0
825,222.93896625000002,226.02173343750002,36.0,64.0
826,223.34437125000002,226.1906521875,43.0,42.0
827,223.74977625000002,226.243017,48.0,63.0
828,224.56058625000003,226.253152125,63.0,81.0
829,224.15518125000003,226.30044937500003,55.0,63.0
830,226.99301625,227.9575423125,53.0,66.0
831,227.39842125,229.982878125,56.0,52.0
832,227.80382625000001,230.03186456250003,60.0,56.0
833,226.58761125,230.03693212500002,48.0,49.0
834,226.18220625,230.04537806250002,41.0,74.0
835,229.94064843750002,233.0149696875,58.0,36.0
836,229.972743,233.0656453125,53.0,33.0
837,229.7142973125,233.20246950000003,46.0,33.0
838,230.05382400000002,233.27003700000003,65.0,55.0
839,229.96598625000001,233.273415375,62.0,45.0
840,230.15179687500003,233.27510456250002,70.0,60.0
841,237.33422212500003,237.7700325,55.0,28.0
842,237.11462775,237.77341087500002,67.0,22.0
843,237.28185731250002,237.7784784375,60.0,48.0
844,237.15010068750001,237.786924375,63.0,34.0
845,238.41023456250002,238.62645056250003,51.0,56.0
846,238.61800462500003,238.66192350000003,55.0,45.0
847,238.83928818750002,239.37307143750002,60.0,51.0
848,239.11631493750002,239.38151737500002,63.0,52.0
849,239.37138225,239.432193,67.0,53.0
850,238.21935637500002,241.705839375,48.0,51.0
851,237.9592215,241.72610962500002,43.0,40.0
852,240.00144918750001,241.74469068750003,75.0,50.0
853,239.6805035625,241.76327175000003,72.0,27.0
854,240.30888131250003,241.76496093750004,79.0,35.0
855,240.64502962500003,241.80212306250002,84.0,45.0
856,237.37814100000003,241.81394737500003,36.0,64.0
