,start,end,pitch,velocity
0,25.916666666666668,26.162499999999998,76.0,101.0
1,26.166666666666668,26.662499999999998,78.0,97.0
2,26.666666666666668,26.912499999999998,76.0,95.0
3,26.916666666666668,27.412499999999998,81.0,80.0
4,27.416666666666668,27.662499999999998,78.0,103.0
5,27.666666666666668,27.912499999999998,76.0,101.0
6,27.916666666666668,29.912499999999998,73.0,93.0
7,29.916666666666668,30.162499999999998,71.0,91.0
8,30.166666666666668,30.662499999999998,73.0,106.0
9,30.666666666666668,30.912499999999998,76.0,101.0
10,30.916666666666668,31.412499999999998,73.0,106.0
11,31.416666666666668,31.662499999999998,71.0,97.0
12,31.666666666666668,32.4125,73.0,101.0
13,32.416666666666664,33.9125,66.0,99.0
14,33.916666666666664,34.1625,69.0,103.0
15,34.166666666666664,34.6625,69.0,101.0
16,34.666666666666664,34.9125,66.0,95.0
17,34.916666666666664,35.4125,64.0,95.0
18,35.416666666666664,35.9125,66.0,95.0
19,35.916666666666664,36.6625,69.0,85.0
20,36.666666666666664,36.9125,71.0,70.0
21,36.916666666666664,37.9125,69.0,88.0
22,37.916666666666664,38.1625,71.0,101.0
23,38.166666666666664,38.6625,71.0,97.0
24,38.666666666666664,38.9125,69.0,91.0
25,38.916666666666664,39.4125,66.0,85.0
26,39.416666666666664,39.9125,73.0,95.0
27,39.916666666666664,40.4125,73.0,97.0
28,40.416666666666664,41.9125,71.0,45.0
29,41.916666666666664,42.1625,76.0,97.0
30,42.166666666666664,42.6625,78.0,78.0
31,42.666666666666664,42.9125,76.0,95.0
32,42.916666666666664,43.4125,81.0,82.0
33,43.416666666666664,43.6625,78.0,101.0
34,43.666666666666664,43.9125,76.0,97.0
35,43.916666666666664,44.1625,76.0,95.0
36,44.166666666666664,45.9125,73.0,97.0
37,45.916666666666664,46.1625,71.0,99.0
38,46.166666666666664,46.6625,73.0,80.0
39,46.666666666666664,46.9125,76.0,69.0
40,46.916666666666664,47.4125,73.0,95.0
41,47.416666666666664,47.6625,71.0,97.0
42,47.666666666666664,47.9125,73.0,91.0
43,47.916666666666664,49.9125,66.0,99.0
44,49.916666666666664,50.1625,69.0,103.0
45,50.166666666666664,50.6625,69.0,103.0
46,50.666666666666664,50.9125,66.0,95.0
47,50.916666666666664,51.4125,64.0,101.0
48,51.416666666666664,51.9125,66.0,106.0
49,51.916666666666664,52.6625,69.0,113.0
50,52.666666666666664,52.9125,71.0,103.0
51,52.916666666666664,53.9125,69.0,106.0
52,53.916666666666664,54.1625,71.0,103.0
53,54.166666666666664,54.6625,71.0,99.0
54,54.666666666666664,54.9125,69.0,97.0
55,54.916666666666664,55.4125,66.0,101.0
56,55.416666666666664,55.9125,71.0,97.0
57,55.916666666666664,56.1625,71.0,101.0
58,56.166666666666664,57.9125,69.0,101.0
59,57.916666666666664,58.15833333333333,76.0,103.0
60,58.166666666666664,58.5875,73.0,106.0
61,58.666666666666664,58.873958333333334,76.0,106.0
62,58.916666666666664,59.25625,73.0,106.0
63,59.416666666666664,59.78541666666666,76.0,109.0
64,59.916666666666664,60.034375,78.0,106.0
65,60.166666666666664,60.46145833333333,78.0,106.0
66,60.666666666666664,60.802083333333336,81.0,85.0
67,60.916666666666664,61.37291666666667,78.0,109.0
68,61.416666666666664,61.56041666666667,76.0,80.0
69,61.916666666666664,62.030208333333334,73.0,99.0
70,62.166666666666664,62.5375,73.0,99.0
71,62.666666666666664,62.829166666666666,71.0,106.0
72,62.916666666666664,63.202083333333334,73.0,103.0
73,63.416666666666664,63.646875,76.0,95.0
74,63.916666666666664,64.56041666666667,73.0,95.0
75,65.91666666666667,66.17083333333333,76.0,95.0
76,66.16666666666667,66.56770833333333,73.0,99.0
77,66.66666666666667,66.93541666666667,76.0,99.0
78,66.91666666666667,67.38020833333333,73.0,97.0
79,67.41666666666667,67.79583333333333,76.0,103.0
80,67.91666666666667,68.04375,78.0,101.0
81,68.16666666666667,68.596875,78.0,97.0
82,68.66666666666667,68.859375,81.0,72.0
83,68.91666666666667,69.30208333333333,78.0,99.0
84,69.41666666666667,69.70520833333333,76.0,95.0
85,69.91666666666667,70.009375,73.0,97.0
86,70.16666666666667,70.53854166666666,73.0,101.0
87,70.66666666666667,70.821875,71.0,101.0
88,70.91666666666667,71.1875,73.0,106.0
89,71.41666666666667,71.71770833333333,76.0,106.0
90,71.91666666666667,72.15208333333334,73.0,103.0
91,73.91666666666667,74.065625,71.0,106.0
92,74.66666666666667,74.83229166666666,73.0,106.0
93,74.91666666666667,75.21979166666667,71.0,103.0
94,75.41666666666667,75.61458333333333,73.0,101.0
95,75.91666666666667,76.51354166666667,76.0,109.0
96,76.66666666666667,76.83125,78.0,109.0
97,76.91666666666667,77.25833333333333,76.0,103.0
98,77.41666666666667,77.65208333333334,78.0,103.0
99,77.91666666666667,79.29895833333333,81.0,97.0
100,79.41666666666667,79.875,78.0,101.0
101,79.91666666666667,81.53645833333333,81.0,80.0
102,81.91666666666667,82.01875,78.0,103.0
103,82.16666666666667,82.434375,78.0,101.0
104,82.66666666666667,82.83229166666666,78.0,106.0
105,82.91666666666667,83.2875,76.0,106.0
106,83.41666666666667,83.64479166666666,78.0,109.0
107,83.91666666666667,84.55208333333333,76.0,99.0
108,84.66666666666667,84.91354166666666,73.0,103.0
109,84.91666666666667,85.35104166666666,71.0,99.0
110,85.41666666666667,85.91770833333334,73.0,101.0
111,85.91666666666667,87.928125,76.0,97.0
112,89.91666666666667,90.1625,76.0,101.0
113,90.16666666666667,90.6625,78.0,97.0
114,90.66666666666667,90.9125,76.0,95.0
115,90.91666666666667,91.4125,81.0,80.0
116,91.41666666666667,91.6625,78.0,103.0
117,91.66666666666667,91.9125,76.0,101.0
118,91.91666666666667,93.9125,73.0,93.0
119,93.91666666666667,94.1625,71.0,91.0
120,94.16666666666667,94.6625,73.0,106.0
121,94.66666666666667,94.9125,76.0,101.0
122,94.91666666666667,95.4125,73.0,106.0
123,95.41666666666667,95.6625,71.0,97.0
124,95.66666666666667,95.9125,73.0,101.0
125,95.91666666666667,97.9125,66.0,99.0
126,97.91666666666667,98.1625,69.0,103.0
127,98.16666666666667,98.6625,69.0,101.0
128,98.66666666666667,98.9125,66.0,95.0
129,98.91666666666667,99.4125,64.0,95.0
130,99.41666666666667,99.9125,66.0,95.0
131,99.91666666666667,100.6625,69.0,85.0
132,100.66666666666667,100.9125,71.0,70.0
133,100.91666666666667,101.9125,69.0,88.0
134,101.91666666666667,102.1625,71.0,101.0
135,102.16666666666667,102.6625,71.0,97.0
136,102.66666666666667,102.9125,69.0,91.0
137,102.91666666666667,103.4125,66.0,85.0
138,103.41666666666667,103.9125,71.0,95.0
139,103.91666666666667,104.4125,71.0,97.0
140,104.41666666666667,105.9125,69.0,45.0
141,137.91666666666666,138.1625,76.0,101.0
142,138.16666666666666,138.6625,78.0,97.0
143,138.66666666666666,138.9125,76.0,95.0
144,138.91666666666666,139.4125,81.0,80.0
145,139.41666666666666,139.6625,78.0,103.0
146,139.66666666666666,139.9125,76.0,101.0
147,139.91666666666666,141.9125,73.0,93.0
148,141.91666666666666,142.1625,71.0,91.0
149,142.16666666666666,142.6625,73.0,106.0
150,142.66666666666666,142.9125,76.0,101.0
151,142.91666666666666,143.4125,73.0,106.0
152,143.41666666666666,143.6625,71.0,97.0
153,143.66666666666666,144.4125,73.0,101.0
154,144.41666666666666,145.9125,66.0,99.0
155,145.91666666666666,146.1625,69.0,103.0
156,146.16666666666666,146.6625,69.0,101.0
157,146.66666666666666,146.9125,66.0,95.0
158,146.91666666666666,147.4125,64.0,95.0
159,147.41666666666666,147.9125,66.0,95.0
160,147.91666666666666,148.6625,69.0,85.0
161,148.66666666666666,148.9125,71.0,70.0
162,148.91666666666666,149.9125,69.0,88.0
163,149.91666666666666,150.1625,71.0,101.0
164,150.16666666666666,150.6625,71.0,97.0
165,150.66666666666666,150.9125,69.0,91.0
166,150.91666666666666,151.4125,66.0,85.0
167,151.41666666666666,151.9125,73.0,95.0
168,151.91666666666666,152.4125,73.0,97.0
169,152.41666666666666,153.9125,71.0,45.0
170,153.91666666666666,154.1625,76.0,97.0
171,154.16666666666666,154.6625,78.0,78.0
172,154.66666666666666,154.9125,76.0,95.0
173,154.91666666666666,155.4125,81.0,82.0
174,155.41666666666666,155.6625,78.0,101.0
175,155.66666666666666,155.9125,76.0,97.0
176,155.91666666666666,156.1625,76.0,95.0
177,156.16666666666666,157.9125,73.0,97.0
178,157.91666666666666,158.1625,71.0,99.0
179,158.16666666666666,158.6625,73.0,80.0
180,158.66666666666666,158.9125,76.0,69.0
181,158.91666666666666,159.4125,73.0,95.0
182,159.41666666666666,159.6625,71.0,97.0
183,159.66666666666666,159.9125,73.0,91.0
184,159.91666666666666,161.9125,66.0,99.0
185,161.91666666666666,162.1625,69.0,103.0
186,162.16666666666666,162.6625,69.0,103.0
187,162.66666666666666,162.9125,66.0,95.0
188,162.91666666666666,163.4125,64.0,101.0
189,163.41666666666666,163.9125,66.0,106.0
190,163.91666666666666,164.6625,69.0,113.0
191,164.66666666666666,164.9125,71.0,103.0
192,164.91666666666666,165.9125,69.0,106.0
193,165.91666666666666,166.1625,71.0,103.0
194,166.16666666666666,166.6625,71.0,99.0
195,166.66666666666666,166.9125,69.0,97.0
196,166.91666666666666,167.4125,66.0,101.0
197,167.41666666666666,167.9125,71.0,97.0
198,167.91666666666666,168.1625,71.0,101.0
199,168.16666666666666,169.9125,69.0,101.0
200,169.91666666666666,170.15833333333333,76.0,103.0
201,170.16666666666666,170.5875,73.0,106.0
202,170.66666666666666,170.87395833333332,76.0,106.0
203,170.91666666666666,171.25625,73.0,106.0
204,171.41666666666666,171.78541666666666,76.0,109.0
205,171.91666666666666,172.034375,78.0,106.0
206,172.16666666666666,172.46145833333333,78.0,106.0
207,172.66666666666666,172.80208333333334,81.0,85.0
208,172.91666666666666,173.37291666666667,78.0,109.0
209,173.41666666666666,173.56041666666667,76.0,80.0
210,173.91666666666666,174.03020833333332,73.0,99.0
211,174.16666666666666,174.5375,73.0,99.0
212,174.54166666666666,174.70416666666665,71.0,106.0
213,174.91666666666666,175.20208333333332,73.0,103.0
214,175.41666666666666,175.646875,76.0,95.0
215,175.91666666666666,176.56041666666667,73.0,95.0
216,177.91666666666666,178.17083333333332,76.0,95.0
217,178.16666666666666,178.56770833333334,73.0,99.0
218,178.66666666666666,178.93541666666667,76.0,99.0
219,178.91666666666666,179.38020833333334,73.0,97.0
220,179.41666666666666,179.79583333333332,76.0,103.0
221,179.91666666666666,180.04375,78.0,101.0
222,180.16666666666666,180.596875,78.0,97.0
223,180.66666666666666,180.859375,81.0,72.0
224,180.91666666666666,181.30208333333334,78.0,99.0
225,181.41666666666666,181.70520833333333,76.0,95.0
226,181.91666666666666,182.009375,73.0,97.0
227,182.16666666666666,182.53854166666667,73.0,101.0
228,182.66666666666666,182.821875,71.0,101.0
229,182.91666666666666,183.1875,73.0,106.0
230,183.41666666666666,183.71770833333332,76.0,106.0
231,183.91666666666666,184.15208333333334,73.0,103.0
232,185.91666666666666,186.065625,71.0,106.0
233,186.66666666666666,186.83229166666666,73.0,106.0
234,186.91666666666666,187.21979166666665,71.0,103.0
235,187.41666666666666,187.61458333333334,73.0,101.0
236,187.91666666666666,188.51354166666667,76.0,109.0
237,188.66666666666666,188.83125,78.0,109.0
238,188.91666666666666,189.25833333333333,76.0,103.0
239,189.41666666666666,189.65208333333334,78.0,103.0
240,189.91666666666666,191.29895833333333,81.0,97.0
241,191.41666666666666,191.875,78.0,101.0
242,191.91666666666666,193.53645833333334,81.0,80.0
243,193.91666666666666,194.01875,78.0,103.0
244,194.16666666666666,194.434375,78.0,101.0
245,194.66666666666666,194.83229166666666,78.0,106.0
246,194.91666666666666,195.2875,76.0,106.0
247,195.41666666666666,195.64479166666666,78.0,109.0
248,195.91666666666666,196.55208333333334,76.0,99.0
249,196.66666666666666,196.91354166666667,73.0,103.0
250,196.91666666666666,197.35104166666667,71.0,99.0
251,197.41666666666666,197.91770833333334,73.0,101.0
252,197.91666666666666,199.928125,76.0,97.0
253,201.91666666666666,202.1625,76.0,101.0
254,202.16666666666666,202.6625,78.0,97.0
255,202.66666666666666,202.9125,76.0,95.0
256,202.91666666666666,203.4125,81.0,80.0
257,203.41666666666666,203.6625,78.0,103.0
258,203.66666666666666,203.9125,76.0,101.0
259,203.91666666666666,205.9125,73.0,93.0
260,205.91666666666666,206.1625,71.0,91.0
261,206.16666666666666,206.6625,73.0,106.0
262,206.66666666666666,206.9125,76.0,101.0
263,206.91666666666666,207.4125,73.0,106.0
264,207.41666666666666,207.6625,71.0,97.0
265,207.66666666666666,207.9125,73.0,101.0
266,207.91666666666666,209.9125,66.0,99.0
267,209.91666666666666,210.1625,69.0,103.0
268,210.16666666666666,210.6625,69.0,101.0
269,210.66666666666666,210.9125,66.0,95.0
270,210.91666666666666,211.4125,64.0,95.0
271,211.41666666666666,211.9125,66.0,95.0
272,211.91666666666666,212.6625,69.0,85.0
273,212.66666666666666,212.9125,71.0,70.0
274,212.91666666666666,213.9125,69.0,88.0
275,213.91666666666666,214.1625,71.0,101.0
276,214.16666666666666,214.6625,71.0,97.0
277,214.66666666666666,214.9125,69.0,91.0
278,214.91666666666666,215.4125,66.0,85.0
279,215.41666666666666,215.9125,71.0,95.0
280,215.91666666666666,216.4125,71.0,97.0
281,216.41666666666666,217.9125,69.0,45.0
