,start,end,pitch,velocity
0,27.426254625,27.674651812499995,61.0,117.0
1,27.810869624999995,28.118561624999998,61.0,107.0
2,28.195484624999995,28.443881812499995,60.0,99.0
3,28.580099624999995,28.873368562499998,58.0,97.0
4,28.964714624999996,29.227534874999996,56.0,85.0
5,29.349329624999996,29.903816249999995,54.0,93.0
6,30.118559624999996,30.334905562499998,61.0,100.0
7,30.503174624999996,31.801250249999995,61.0,112.0
8,33.580094624999994,33.81406875,60.0,100.0
9,33.964709625,34.307657999999996,60.0,100.0
10,34.349324624999994,34.628170499999996,58.0,88.0
11,34.733939625,35.0432341875,56.0,90.0
12,35.118554624999994,35.381374875,54.0,81.0
13,35.503169625,36.108938249999994,53.0,85.0
14,36.272399625,36.40060462499999,60.0,112.0
15,36.657014624999995,37.209898687499994,60.0,117.0
16,37.426244624999995,37.602526499999996,58.0,93.0
17,37.618552124999994,38.5848973125,56.0,83.0
18,39.733934624999996,39.9871395,58.0,112.0
19,40.11854962499999,40.4470749375,58.0,100.0
20,40.503164625,40.746754124999995,56.0,83.0
21,40.88777962499999,41.158612687499996,54.0,90.0
22,41.272394625,41.541625124999996,53.0,88.0
23,41.65700962499999,42.32047049999999,51.0,92.0
24,42.810854625,43.36213612499999,53.0,96.0
25,43.580084625,43.82207156249999,49.0,95.0
26,44.349314625,44.573673375,51.0,89.0
27,44.733929624999995,45.02239087499999,53.0,93.0
28,45.118544625,45.278800874999995,54.0,79.0
29,45.310852125,47.398991062499995,53.0,88.0
30,52.041614624999994,52.29001181249999,61.0,117.0
31,52.42622962499999,52.733921624999994,61.0,107.0
32,52.810844624999994,53.05924181249999,60.0,99.0
33,53.19545962499999,53.48872856249999,58.0,97.0
34,53.580074624999995,53.84289487499999,56.0,85.0
35,53.96468962499999,54.519176249999994,54.0,93.0
36,54.73391962499999,54.95026556249999,61.0,100.0
37,55.118534624999995,56.41661024999999,61.0,112.0
38,58.195454624999996,58.42942874999999,60.0,100.0
39,58.58006962499999,58.92301799999999,60.0,100.0
40,58.964684625,59.24353049999999,58.0,88.0
41,59.34929962499999,59.65859418749999,56.0,90.0
42,59.73391462499999,59.996734874999994,54.0,81.0
43,60.118529624999994,60.72429824999999,53.0,85.0
44,60.887759624999994,61.015964624999995,60.0,112.0
45,61.27237462499999,61.825258687499996,60.0,117.0
46,62.04160462499999,62.21788649999999,58.0,93.0
47,62.233912124999996,63.20025731249999,56.0,83.0
48,64.349294625,64.6024995,58.0,112.0
49,64.733909625,65.06243493749999,58.0,100.0
50,65.11852462499999,65.36211412499999,56.0,83.0
51,65.50313962499999,65.77397268749999,54.0,90.0
52,65.887754625,66.15698512499999,53.0,88.0
53,66.272369625,66.9358305,51.0,92.0
54,67.04159962499999,67.27076606249999,61.0,99.0
55,67.42621462499999,68.0976883125,60.0,89.0
56,68.58005962499999,68.95025156249999,57.0,95.0
57,68.96467462499999,70.887749625,58.0,79.0
58,73.58005462499999,73.78678518749999,58.0,99.0
59,73.96466962499998,74.23710524999998,58.0,100.0
60,74.349284625,74.62652793749999,60.0,93.0
61,74.73389962499999,75.0271685625,61.0,112.0
62,75.11851462499999,75.33325799999999,68.0,96.0
63,75.50312962499999,76.0784495625,68.0,99.0
64,75.887744625,76.471077375,66.0,95.0
65,76.65697462499999,76.82844881249999,66.0,107.0
66,77.04158962499999,77.28998681249999,66.0,102.0
67,77.426204625,77.75312737499999,65.0,107.0
68,77.810819625,78.0528065625,63.0,100.0
69,78.19543462499999,78.41658824999999,65.0,96.0
70,78.58004962499999,79.08645937499999,56.0,100.0
71,79.73389462499999,79.9598559375,56.0,90.0
72,80.11850962499999,80.3637016875,56.0,89.0
73,80.50312462499998,80.76754743749999,58.0,97.0
74,80.887739625,81.18421368749999,60.0,93.0
75,81.27235462499999,81.39735449999999,66.0,100.0
76,81.65696962499999,82.00152056249999,66.0,97.0
77,82.04158462499998,82.5367764375,65.0,92.0
78,82.81081462499999,83.04639131249999,65.0,96.0
79,83.19542962499999,83.42940374999999,65.0,107.0
80,83.58004462499999,83.810813625,63.0,100.0
81,83.964659625,84.21145424999999,61.0,102.0
82,84.34927462499999,84.5463898125,63.0,97.0
83,84.73388962499999,85.09446618749999,61.0,96.0
84,85.11850462499999,85.72747837499999,58.0,74.0
85,85.887734625,86.02876012499999,58.0,99.0
86,86.27234962499999,86.55920831249999,58.0,96.0
87,86.65696462499999,86.86529775,60.0,78.0
88,87.041579625,87.24670762499998,61.0,96.0
89,87.426194625,87.6457456875,58.0,96.0
90,87.81080962499999,89.07362887499998,63.0,100.0
91,89.34926962499999,89.63292318749998,63.0,122.0
92,89.73388462499999,90.00792281249998,61.0,100.0
93,90.11849962499998,90.37971731249999,60.0,102.0
94,90.503114625,90.804396375,58.0,92.0
95,90.88772962499999,91.33804968749999,57.0,102.0
96,91.65695962499998,91.82362612499999,66.0,117.0
97,92.041574625,92.53836899999999,65.0,122.0
98,93.19541962499999,93.49029112499998,60.0,102.0
99,93.580034625,94.15855968749999,63.0,100.0
100,94.34926462499999,95.41977637499998,65.0,117.0
101,97.041569625,97.59765881249999,58.0,117.0
102,97.81079962499999,98.38291443749999,60.0,112.0
103,98.580029625,99.07041374999999,62.0,127.0
104,99.34925962499999,99.88611806249999,68.0,127.0
105,100.118489625,100.56239943749999,68.0,127.0
106,100.50310462499999,101.07201431249999,66.0,102.0
107,101.27233462499998,101.46303956249999,66.0,122.0
108,101.65694962499998,101.88451349999998,66.0,122.0
109,102.04156462499999,102.2691285,65.0,127.0
110,102.42617962499999,102.68579474999999,63.0,112.0
111,102.81079462499999,103.041563625,65.0,117.0
112,103.19540962499998,103.64252456249999,56.0,107.0
113,104.34925462499999,104.55438262499999,56.0,102.0
114,104.73386962499998,105.02713856249999,56.0,102.0
115,105.118484625,105.41656124999999,58.0,122.0
116,105.50309962499999,105.71944556249998,60.0,122.0
117,105.88771462499999,106.13450925,66.0,112.0
118,106.27232962499998,106.75470093749999,66.0,127.0
119,106.656944625,107.18098256249999,65.0,122.0
120,107.42617462499999,107.6136744375,65.0,122.0
121,107.81078962499998,108.0559816875,65.0,122.0
122,108.195404625,108.41816081249999,63.0,112.0
123,108.58001962499999,108.81559631249999,61.0,102.0
124,108.96463462499999,109.22424974999998,63.0,112.0
125,109.34924962499998,109.55598018749998,61.0,112.0
126,109.54155712499998,109.676172375,60.0,97.0
127,109.73386462499998,110.2867486875,58.0,93.0
128,110.50309462499999,110.73065849999999,58.0,100.0
129,110.88770962499999,111.17937599999999,58.0,95.0
130,111.27232462499998,111.54956793749999,60.0,97.0
131,111.65693962499999,111.91495218749999,61.0,99.0
132,112.04155462499999,112.33802868749999,58.0,112.0
133,112.42616962499999,112.90213068749999,63.0,112.0
134,113.96462962499999,114.17937299999998,63.0,122.0
135,114.34924462499998,114.56559056249999,61.0,122.0
136,114.733859625,114.95661581249999,60.0,127.0
137,115.11847462499999,115.37969231249998,58.0,100.0
138,115.50308962499999,116.01911474999999,57.0,117.0
139,117.04154962499999,117.37808774999999,60.0,112.0
140,117.61847212499998,118.04315118749999,61.0,117.0
141,118.19539462499999,118.46943281249999,60.0,102.0
142,118.58000962499999,119.32039349999998,60.0,100.0
143,119.34923962499998,119.51270099999999,61.0,89.0
144,119.54154712499998,119.71622643749998,60.0,63.0
145,119.73385462499999,121.59923737499999,58.0,100.0
146,150.50305462499998,150.7514518125,61.0,117.0
147,150.88766962499997,151.19536162499998,61.0,107.0
148,151.27228462499997,151.5206818125,60.0,99.0
149,151.656899625,151.95016856249998,58.0,97.0
150,152.041514625,152.304334875,56.0,85.0
151,152.426129625,152.98061624999997,54.0,93.0
152,153.19535962499998,153.41170556249998,61.0,100.0
153,153.57997462499998,154.87805024999997,61.0,112.0
154,156.65689462499998,156.89086874999998,60.0,100.0
155,157.04150962499997,157.384458,60.0,100.0
156,157.42612462499997,157.70497049999997,58.0,88.0
157,157.810739625,158.12003418749998,56.0,90.0
158,158.195354625,158.45817487499997,54.0,81.0
159,158.579969625,159.18573824999999,53.0,85.0
160,159.34919962499998,159.477404625,60.0,112.0
161,159.73381462499998,160.28669868749998,60.0,117.0
162,160.50304462499997,160.67932649999997,58.0,93.0
163,160.69535212499997,161.6616973125,56.0,83.0
164,162.81073462499998,163.06393949999998,58.0,112.0
165,163.19534962499998,163.52387493749998,58.0,100.0
166,163.57996462499997,163.823554125,56.0,83.0
167,163.96457962499997,164.23541268749997,54.0,90.0
168,164.349194625,164.618425125,53.0,88.0
169,164.733809625,165.3972705,51.0,92.0
170,165.50303962499999,165.73220606249998,61.0,99.0
171,165.88765462499998,166.55912831249998,60.0,89.0
172,167.04149962499997,167.41169156249998,57.0,95.0
173,167.42611462499997,169.34918962499998,58.0,79.0
174,172.04149462499998,172.24822518749997,58.0,99.0
175,172.42610962499998,172.69854524999997,58.0,100.0
176,172.81072462499998,173.08796793749997,60.0,93.0
177,173.19533962499997,173.4886085625,61.0,112.0
178,173.57995462499997,173.79469799999998,68.0,96.0
179,173.96456962499997,174.53988956249998,68.0,99.0
180,174.349184625,174.93251737499997,66.0,95.0
181,175.11841462499999,175.28988881249998,66.0,107.0
182,175.50302962499998,175.75142681249997,66.0,102.0
183,175.88764462499998,176.21456737499997,65.0,107.0
184,176.27225962499998,176.51424656249998,63.0,100.0
185,176.65687462499997,176.87802824999997,65.0,96.0
186,177.04148962499997,177.547899375,56.0,100.0
187,178.195334625,178.4212959375,56.0,90.0
188,178.57994962499998,178.82514168749998,56.0,89.0
189,178.96456462499998,179.22898743749997,58.0,97.0
190,179.34917962499998,179.6456536875,60.0,93.0
191,179.73379462499997,179.8587945,66.0,100.0
192,180.11840962499997,180.46296056249997,66.0,97.0
193,180.50302462499997,180.9982164375,65.0,92.0
194,181.272254625,181.50783131249997,65.0,96.0
195,181.65686962499998,181.89084375,65.0,107.0
196,182.04148462499998,182.272253625,63.0,100.0
197,182.42609962499998,182.67289424999998,61.0,102.0
198,182.81071462499997,183.00782981249998,63.0,97.0
199,183.19532962499997,183.55590618749997,61.0,96.0
200,183.57994462499997,184.188918375,58.0,74.0
201,184.349174625,184.49020012499997,58.0,99.0
202,184.733789625,185.0206483125,58.0,96.0
203,185.11840462499998,185.32673774999998,60.0,78.0
204,185.50301962499998,185.70814762499998,61.0,96.0
205,185.88763462499998,186.1071856875,58.0,96.0
206,186.27224962499997,187.53506887499998,63.0,100.0
207,187.810709625,188.09436318749997,63.0,122.0
208,188.19532462499998,188.46936281249998,61.0,100.0
209,188.57993962499998,188.84115731249997,60.0,102.0
210,188.96455462499998,189.265836375,58.0,92.0
211,189.34916962499997,189.79948968749997,57.0,102.0
212,190.11839962499997,190.285066125,66.0,117.0
213,190.503014625,190.99980899999997,65.0,122.0
214,191.65685962499998,191.95173112499998,60.0,102.0
215,192.04147462499998,192.61999968749998,63.0,100.0
216,192.81070462499997,193.88121637499998,65.0,117.0
217,195.50300962499998,196.05909881249997,58.0,117.0
218,196.27223962499997,196.8443544375,60.0,112.0
219,197.041469625,197.53185374999998,62.0,127.0
220,197.81069962499998,198.34755806249998,68.0,127.0
221,198.57992962499998,199.0238394375,68.0,127.0
222,198.96454462499997,199.53345431249997,66.0,102.0
223,199.73377462499997,199.92447956249998,66.0,122.0
224,200.11838962499996,200.34595349999998,66.0,122.0
225,200.503004625,200.73056849999998,65.0,127.0
226,200.88761962499999,201.14723474999997,63.0,112.0
227,201.27223462499998,201.503003625,65.0,117.0
228,201.65684962499998,202.10396456249998,56.0,107.0
229,202.81069462499997,203.01582262499997,56.0,102.0
230,203.19530962499996,203.48857856249998,56.0,102.0
231,203.579924625,203.87800124999998,58.0,122.0
232,203.964539625,204.18088556249998,60.0,122.0
233,204.34915462499998,204.59594925,66.0,112.0
234,204.73376962499998,205.21614093749997,66.0,127.0
235,205.11838462499998,205.64242256249997,65.0,122.0
236,205.88761462499997,206.0751144375,65.0,122.0
237,206.27222962499997,206.5174216875,65.0,122.0
238,206.656844625,206.87960081249997,63.0,112.0
239,207.041459625,207.27703631249997,61.0,102.0
240,207.42607462499998,207.68568974999997,63.0,112.0
241,207.81068962499998,208.01742018749997,61.0,112.0
242,208.00299712499998,208.13761237499997,60.0,97.0
243,208.19530462499998,208.74818868749998,58.0,93.0
244,208.96453462499997,209.1920985,58.0,100.0
245,209.34914962499997,209.64081599999997,58.0,95.0
246,209.73376462499996,210.01100793749998,60.0,97.0
247,210.118379625,210.3763921875,61.0,99.0
248,210.50299462499999,210.79946868749997,58.0,112.0
249,210.88760962499998,211.3635706875,63.0,112.0
250,212.42606962499997,212.64081299999998,63.0,122.0
251,212.81068462499996,213.0270305625,61.0,122.0
252,213.195299625,213.41805581249997,60.0,127.0
253,213.579914625,213.84113231249998,58.0,100.0
254,213.96452962499998,214.48055474999998,57.0,117.0
255,215.50298962499997,215.83952774999997,60.0,112.0
256,216.07991212499996,216.50459118749998,61.0,117.0
257,216.656834625,216.93087281249998,60.0,102.0
258,217.04144962499998,217.78183349999998,60.0,100.0
259,217.81067962499998,217.97414099999997,61.0,89.0
260,218.00298712499998,218.17766643749997,60.0,63.0
261,218.19529462499997,220.06067737499998,58.0,100.0
262,223.57990462499998,223.82189156249999,66.0,93.0
263,223.96451962499998,224.20810912499996,66.0,100.0
264,224.34913462499998,224.56227543749998,66.0,100.0
265,224.73374962499997,224.96451862499998,66.0,102.0
266,225.11836462499997,225.34272337499996,65.0,100.0
267,225.50297962499997,225.77060756249998,63.0,99.0
268,225.88759462499996,226.12637643749997,61.0,97.0
269,226.272209625,226.76419631249996,60.0,102.0
270,227.81066962499997,228.11355393749997,60.0,102.0
271,228.19528462499997,228.45009206249998,61.0,117.0
272,228.57989962499997,228.83630962499998,63.0,102.0
273,228.96451462499996,229.28983481249998,66.0,127.0
274,229.73374462499999,229.91323162499998,65.0,112.0
275,230.11835962499998,230.31867993749998,65.0,112.0
276,230.50297462499998,230.68406418749998,65.0,112.0
277,230.88758962499998,231.10553812499998,65.0,102.0
278,231.27220462499997,231.51098643749998,63.0,127.0
279,231.65681962499997,231.90842193749998,61.0,100.0
280,232.04143462499997,232.28983181249998,60.0,97.0
281,232.42604962499996,233.48534343749998,58.0,96.0
