,start,end,pitch,velocity
0,20.093202602083338,20.33921290416667,68.0,83.0
1,20.412351102083335,20.607829558333336,67.0,79.0
2,20.731499602083336,20.96155247916667,63.0,80.0
3,21.050648102083336,22.45224193125,60.0,83.0
4,22.646390602083336,22.918996612500003,68.0,81.0
5,22.965539102083333,23.157028202083335,67.0,74.0
6,23.284687602083338,23.916335675000003,67.0,79.0
7,23.922984602083336,25.03202563958334,65.0,80.0
8,25.199578602083335,25.438939977083336,67.0,80.0
9,25.518727102083336,25.742131052083337,65.0,80.0
10,25.837875602083336,26.04798169791667,63.0,80.0
11,26.157024102083334,26.45090667916667,63.0,79.0
12,26.476172602083338,26.71021483541667,60.0,78.0
13,26.795321102083335,27.0998419625,63.0,81.0
14,27.114469602083336,27.308618272916668,60.0,79.0
15,27.433618102083337,27.727500679166667,63.0,75.0
16,27.752766602083334,27.9615429125,60.0,78.0
17,28.071915102083338,28.420318881250004,63.0,78.0
18,28.391063602083335,28.594520770833334,60.0,79.0
19,28.710212102083336,28.892392704166667,65.0,80.0
20,29.029360602083337,29.289998543750002,65.0,76.0
21,29.348509102083334,29.637072537500003,63.0,83.0
22,29.667657602083338,30.089199579166667,62.0,80.0
23,30.305954602083336,30.513401127083334,68.0,83.0
24,30.625103102083337,30.8179219875,67.0,79.0
25,30.944251602083334,31.16233641041667,63.0,80.0
26,31.263400102083338,32.70754706458334,60.0,83.0
27,32.85914260208334,33.114461402083336,68.0,79.0
28,33.178291102083335,33.35648234791667,67.0,73.0
29,33.49743960208333,34.147704670833335,67.0,75.0
30,34.135736602083334,35.22882021458334,65.0,71.0
31,35.41233060208334,35.71552167708334,67.0,80.0
32,35.731479102083334,35.98413833125,65.0,80.0
33,36.05062760208334,36.24876562916667,62.0,79.0
34,36.369776102083335,36.646371468750004,63.0,75.0
35,36.68892460208333,36.93892426041667,60.0,78.0
36,37.00807310208334,37.28998761041667,63.0,80.0
37,37.327221602083334,37.55328512291667,60.0,79.0
38,37.64637010208334,37.94424203541667,63.0,81.0
39,37.965518602083336,38.190252337500006,60.0,79.0
40,38.28466710208333,38.65434744791667,63.0,83.0
41,38.60381560208334,38.81392169791667,60.0,79.0
42,38.922964102083334,39.09716599166667,65.0,80.0
43,39.24211260208334,39.50939947083334,65.0,72.0
44,39.561261102083336,39.84317561041667,63.0,81.0
45,39.88040960208333,40.35514299583333,67.0,79.0
46,40.518706602083334,40.70088720416667,67.0,82.0
47,40.83785510208334,41.00673785,67.0,82.0
48,41.157003602083336,41.61843914166667,67.0,81.0
49,41.79530060208334,41.94157699791667,67.0,79.0
50,42.114449102083334,42.29397013333334,67.0,80.0
51,42.43359760208334,42.66365047916667,63.0,80.0
52,42.752746102083336,42.95753305625,65.0,80.0
53,43.07189460208333,43.23944756458334,67.0,78.0
54,43.39104310208334,43.56258542083334,68.0,83.0
55,43.710191602083334,44.101148514583336,67.0,78.0
56,44.348488602083336,44.49476499791667,63.0,72.0
57,44.66763710208333,44.83386027916667,63.0,73.0
58,44.98678560208334,45.17029598958334,60.0,75.0
59,45.305934102083334,45.498752987500005,62.0,78.0
60,45.62508260208334,45.80327384791667,63.0,83.0
61,45.944231102083336,46.14236912916667,65.0,81.0
62,46.26337960208333,46.58252810208334,67.0,80.0
63,46.58252810208334,46.90699574375,63.0,80.0
64,47.22082510208334,47.403005704166674,65.0,79.0
65,47.539973602083336,47.88970716666667,63.0,83.0
66,48.17827060208334,48.38837669791667,60.0,80.0
67,48.497419102083335,48.707525197916674,60.0,83.0
68,48.81656760208334,48.998748204166674,60.0,82.0
69,49.135716102083336,49.32986477291667,67.0,78.0
70,49.45486460208334,49.66497069791667,68.0,68.0
71,49.77401310208334,49.95220434791667,70.0,77.0
72,50.093161602083335,50.28066134583334,67.0,84.0
73,50.41231010208334,51.05060710208334,65.0,78.0
74,51.36975560208334,51.58518083958334,58.0,85.0
75,51.688904102083335,52.28730753958334,70.0,85.0
76,52.64634960208334,52.848476985416674,70.0,83.0
77,52.96549810208334,53.18358291041667,70.0,81.0
78,53.284646602083335,53.45884849166667,72.0,80.0
79,53.60379510208334,53.861773472916674,70.0,81.0
80,53.922943602083336,54.10113484791667,68.0,75.0
81,54.24209210208334,55.049271850000004,67.0,78.0
82,55.19953760208334,55.413633054166674,67.0,79.0
83,55.518686102083336,55.72081348541667,67.0,80.0
84,55.83783460208334,56.12772782291667,68.0,81.0
85,56.15698310208334,56.412301902083335,67.0,83.0
86,56.476131602083335,56.67958877083334,65.0,80.0
87,56.79528010208334,57.6343747,63.0,80.0
88,57.75272560208334,57.91894877916667,60.0,83.0
89,58.071874102083335,58.296607837500005,63.0,81.0
90,58.39102260208334,58.59314998541667,65.0,84.0
91,58.710171102083336,58.90298998750001,67.0,82.0
92,59.02931960208334,59.14368114791667,68.0,83.0
93,59.18889385208334,60.74607257500001,67.0,84.0
94,60.94421060208334,61.14234862916667,70.0,79.0
95,61.263359102083335,61.43756099166667,70.0,83.0
96,61.58250760208334,61.764688204166674,70.0,79.0
97,61.90165610208334,62.746069841666674,70.0,90.0
98,62.859101602083335,63.03330349166667,70.0,82.0
99,63.17825010208334,63.38170727083334,70.0,81.0
100,63.49739860208334,63.683568560416674,72.0,82.0
101,63.81654710208334,64.01468512916666,70.0,82.0
102,64.13569560208333,64.40165268541666,68.0,81.0
103,64.45484410208333,65.27665148958333,67.0,79.0
104,65.41228960208333,65.62638505416666,67.0,81.0
105,65.73143810208333,65.90431020625,67.0,80.0
106,66.05058660208333,66.26601183958333,68.0,83.0
107,66.36973510208334,66.6343624,67.0,80.0
108,66.68888360208334,66.93489390416667,65.0,76.0
109,67.00803210208333,67.26601047291666,63.0,70.0
110,67.96547760208334,68.19951983541667,60.0,84.0
111,68.28462610208334,68.48409391458334,63.0,83.0
112,68.60377460208333,68.81388069791667,65.0,79.0
113,68.92292310208333,69.10510370416667,67.0,82.0
114,69.24207160208333,69.50270954375,68.0,81.0
115,69.56122010208334,69.71281563958334,67.0,79.0
116,69.72079435208333,69.85776225000001,65.0,71.0
117,69.88036860208334,71.61174921458334,63.0,83.0
118,83.90127883125,84.14469951875,68.0,83.0
119,84.21706783124999,84.41048859375,67.0,79.0
120,84.53298911875,84.76182486875,63.0,80.0
121,84.85044911874999,86.24462761875,60.0,83.0
122,86.43774911874999,86.70891286874999,68.0,81.0
123,86.75520911875,86.94568511874999,67.0,74.0
124,87.07266911875,87.70097536875,67.0,79.0
125,87.70758911875,88.81076261874999,65.0,80.0
126,88.97742911875,89.21552411875,67.0,80.0
127,89.29488911874999,89.51711111875,65.0,80.0
128,89.61234911874999,89.82134361874999,63.0,80.0
129,89.92980911875,90.22213686875,63.0,79.0
130,90.24726911875,90.48007311875,60.0,78.0
131,90.56472911875,90.86874342916666,63.0,81.0
132,90.88337106875,91.07751973958332,60.0,79.0
133,91.20251956874999,91.49640214583333,63.0,75.0
134,91.52166806874999,91.73044437916666,60.0,78.0
135,91.84081656874999,92.18922034791666,63.0,78.0
136,92.15996506874998,92.36342223749999,60.0,79.0
137,92.47911356875,92.66129417083333,65.0,80.0
138,92.79826206874999,93.05890001041665,65.0,76.0
139,93.11741056874999,93.40597400416665,63.0,83.0
140,93.43655906874999,93.85810104583332,62.0,80.0
141,94.07485606875,94.28230259374999,68.0,83.0
142,94.39400456874999,94.58682345416666,67.0,79.0
143,94.71315306874999,94.93123787708332,63.0,80.0
144,95.03230156874999,96.47644853124999,60.0,83.0
145,96.62804406874999,96.88336286874998,68.0,79.0
146,96.94719256874998,97.12538381458333,67.0,73.0
147,97.26634106875,97.91660613749998,67.0,75.0
148,97.90463806874999,98.99772168124998,65.0,71.0
149,99.18123206874999,99.48442314374999,67.0,80.0
150,99.50038056874999,99.75303979791666,65.0,80.0
151,99.81952906874999,100.01766709583332,62.0,79.0
152,100.13867756874998,100.41527293541665,63.0,75.0
153,100.45782606875,100.70782572708332,60.0,78.0
154,100.77697456874999,101.05888907708332,63.0,80.0
155,101.09612306874999,101.32218658958332,60.0,79.0
156,101.41527156874999,101.71314350208333,63.0,81.0
157,101.73442006874998,101.95915380416666,60.0,79.0
158,102.05356856875,102.42324891458333,63.0,83.0
159,102.37271706874999,102.58282316458332,60.0,79.0
160,102.69186556874999,102.86606745833332,65.0,80.0
161,103.01101406874999,103.27830093749999,65.0,72.0
162,103.33016256874998,103.61207707708333,63.0,81.0
163,103.64931106875,104.1240444625,67.0,79.0
164,104.28760806874999,104.46978867083332,67.0,82.0
165,104.60675656874999,104.77563931666666,67.0,82.0
166,104.92590506874998,105.38734060833332,67.0,81.0
167,105.56420206874999,105.71047846458332,67.0,79.0
168,105.88335056874999,106.0628716,67.0,80.0
169,106.20249906874999,106.43255194583332,63.0,80.0
170,106.52164756874998,106.72643452291666,65.0,80.0
171,106.84079606875,107.00834903124999,67.0,78.0
172,107.15994456874999,107.33148688749999,68.0,83.0
173,107.47909306874999,107.87004998124999,67.0,78.0
174,108.11739006874998,108.26366646458332,63.0,72.0
175,108.43653856875,108.60276174583332,63.0,73.0
176,108.75568706874999,108.93919745624999,60.0,75.0
177,109.07483556874999,109.26765445416666,62.0,78.0
178,109.39398406874999,109.57217531458332,63.0,83.0
179,109.71313256874998,109.91127059583332,65.0,81.0
180,110.03228106875,110.35142956874999,67.0,80.0
181,110.35142956874999,110.67589721041665,63.0,80.0
182,110.98972656874999,111.17190717083332,65.0,79.0
183,111.30887506874998,111.65860863333333,63.0,83.0
184,111.94717206874999,112.15727816458332,60.0,80.0
185,112.26632056874999,112.47642666458333,60.0,83.0
186,112.58546906874999,112.76764967083332,60.0,82.0
187,112.90461756874998,113.09876623958333,67.0,78.0
188,113.22376606875,113.43387216458332,68.0,68.0
189,113.54291456874999,113.72110581458332,70.0,77.0
190,113.86206306874999,114.04956281249999,67.0,84.0
191,114.18121156874999,114.81950856875,65.0,78.0
192,115.13865706874999,115.35408230624999,58.0,85.0
193,115.45780556874999,116.05620900624999,70.0,85.0
194,116.41525106875,116.61737845208333,70.0,83.0
195,116.73439956874999,116.95248437708332,70.0,81.0
196,117.05354806874999,117.22774995833332,72.0,80.0
197,117.37269656874999,117.63067493958332,70.0,81.0
198,117.69184506874998,117.87003631458333,68.0,75.0
199,118.01099356875,118.81817331666666,67.0,78.0
200,118.96843906874999,119.18253452083331,67.0,79.0
201,119.28758756874998,119.48971495208332,67.0,80.0
202,119.60673606875,119.89662928958333,68.0,81.0
203,119.92588456874999,120.18120336874999,67.0,83.0
204,120.24503306874999,120.44849023749998,65.0,80.0
205,120.56418156874999,121.40327616666666,63.0,80.0
206,121.52162706874999,121.68785024583332,60.0,83.0
207,121.84077556874999,122.06550930416665,63.0,81.0
208,122.15992406874999,122.36205145208332,65.0,84.0
209,122.47907256874998,122.67189145416665,67.0,82.0
210,122.79822106875,122.91258261458333,68.0,83.0
211,122.95779531874999,124.51497404166665,67.0,84.0
212,124.71311206874998,124.91125009583332,70.0,79.0
213,125.03226056874999,125.20646245833332,70.0,83.0
214,125.35140906874999,125.53358967083332,70.0,79.0
215,125.67055756874998,126.51497130833332,70.0,90.0
216,126.62800306874999,126.80220495833332,70.0,82.0
217,126.94715156874999,127.1506087375,70.0,81.0
218,127.26630006874998,127.45247002708332,72.0,82.0
219,127.58544856875,127.78358659583333,70.0,82.0
220,127.90459706874998,128.17055415208333,68.0,81.0
221,128.22374556875,129.04555295625,67.0,79.0
222,129.18119106875,129.39528652083334,67.0,81.0
223,129.50033956874998,129.67321167291666,67.0,80.0
224,129.81948806875,130.03491330625,68.0,83.0
225,130.13863656874997,130.40326386666666,67.0,80.0
226,130.45778506874998,130.70379537083332,65.0,76.0
227,130.77693356875,131.0349119395833,63.0,70.0
228,131.73437906875,131.96842130208333,60.0,84.0
229,132.05352756874998,132.25299538125,63.0,83.0
230,132.37267606875,132.5827821645833,65.0,79.0
231,132.69182456874998,132.87400517083333,67.0,82.0
232,133.01097306875,133.27161101041665,68.0,81.0
233,133.33012156874997,133.48171710625,67.0,79.0
234,133.48969581875,133.62666371666666,65.0,71.0
235,133.64927006874998,135.38065068125,63.0,83.0
236,150.24499206874998,150.42717267083333,67.0,82.0
237,150.56414056875,150.73302331666665,67.0,82.0
238,150.88328906875,151.3447246083333,67.0,81.0
239,151.52158606875,151.66786246458332,67.0,79.0
240,151.84073456874998,152.02025559999998,67.0,80.0
241,152.15988306875,152.38993594583332,63.0,80.0
242,152.47903156874997,152.68381852291665,65.0,80.0
243,152.79818006874999,152.96573303124998,67.0,78.0
244,153.11732856875,153.2888708875,68.0,83.0
245,153.43647706874998,153.82743398124998,67.0,78.0
246,154.07477406875,154.22105046458333,63.0,72.0
247,154.39392256874999,154.56014574583332,63.0,73.0
248,154.71307106874997,154.89658145624998,60.0,75.0
249,155.03221956875,155.22503845416665,62.0,78.0
250,155.35136806875,155.5295593145833,63.0,83.0
251,155.67051656874997,155.86865459583333,65.0,81.0
252,155.98966506874999,156.30881356875,67.0,80.0
253,156.30881356875,156.63328121041667,63.0,80.0
254,156.94711056875,157.1292911708333,65.0,79.0
255,157.26625906875,157.61599263333332,63.0,83.0
256,157.90455606874997,158.1146621645833,60.0,80.0
257,158.22370456875,158.43381066458332,60.0,83.0
258,158.54285306875,158.72503367083334,60.0,82.0
259,158.86200156874997,159.0561502395833,67.0,78.0
260,159.18115006875,159.39125616458333,68.0,68.0
261,159.50029856875,159.67848981458332,70.0,77.0
262,159.81944706874998,160.0069468125,67.0,84.0
263,160.13859556875,160.77689256875,65.0,78.0
264,161.09604106874997,161.31146630625,58.0,85.0
265,161.41518956875,162.01359300625,70.0,85.0
266,162.37263506875,162.57476245208332,70.0,83.0
267,162.69178356875,162.90986837708334,70.0,81.0
268,163.01093206874998,163.18513395833332,72.0,80.0
269,163.33008056875,163.58805893958333,70.0,81.0
270,163.64922906875,163.82742031458332,68.0,75.0
271,163.96837756875,164.77555731666666,67.0,78.0
272,164.92582306875,165.1399185208333,67.0,79.0
273,165.24497156874997,165.4470989520833,67.0,80.0
274,165.56412006875,165.85401328958332,68.0,81.0
275,165.88326856875,166.13858736875,67.0,83.0
276,166.20241706874998,166.40587423749997,65.0,80.0
277,166.52156556875,167.36066016666666,63.0,80.0
278,167.47901106874997,167.6452342458333,60.0,83.0
279,167.79815956875,168.02289330416664,63.0,81.0
280,168.11730806875,168.31943545208333,65.0,84.0
281,168.43645656874997,168.62927545416665,67.0,82.0
282,168.75560506875,168.86996661458332,68.0,83.0
283,168.91517931875,170.47235804166667,67.0,84.0
284,170.67049606874997,170.86863409583333,70.0,79.0
285,170.98964456875,171.16384645833332,70.0,83.0
286,171.30879306875,171.49097367083334,70.0,79.0
287,171.62794156874997,172.4723553083333,70.0,90.0
288,172.58538706874998,172.75958895833332,70.0,82.0
289,172.90453556875,173.10799273749998,70.0,81.0
290,173.22368406875,173.40985402708333,72.0,82.0
291,173.54283256875,173.74097059583332,70.0,82.0
292,173.86198106874997,174.12793815208332,68.0,81.0
293,174.18112956875,175.00293695624998,67.0,79.0
294,175.13857506875,175.35267052083333,67.0,81.0
295,175.45772356875,175.63059567291666,67.0,80.0
296,175.77687206874998,175.99229730625,68.0,83.0
297,176.09602056875,176.36064786666665,67.0,80.0
298,176.41516906875,176.66117937083334,65.0,76.0
299,176.73431756875,176.99229593958333,63.0,70.0
300,177.69176306875,177.92580530208332,60.0,84.0
301,178.01091156874998,178.21037938125,63.0,83.0
302,178.33006006875,178.54016616458333,65.0,79.0
303,178.64920856875,178.83138917083332,67.0,82.0
304,178.96835706874998,179.22899501041667,68.0,81.0
305,179.28750556875,179.43910110625,67.0,79.0
306,179.44707981874998,179.58404771666665,65.0,71.0
307,179.60665406875,180.56409956875,63.0,83.0
308,180.88324806875,181.12393922916664,70.0,83.0
309,181.20239656874998,181.41383244999997,70.0,83.0
310,181.52154506875,181.71968309583332,70.0,81.0
311,181.84069356875,182.05079966458334,72.0,83.0
312,182.15984206874998,182.36861837916666,70.0,85.0
313,182.47899056875,182.72633065624998,67.0,81.0
314,182.79813906875,183.00292602291665,72.0,85.0
315,183.11728756875,183.32606387916667,70.0,86.0
316,183.43643606874997,183.6824463708333,67.0,81.0
317,183.75558456875,183.96569066458332,72.0,86.0
318,184.07473306875,184.36063693333332,70.0,86.0
319,184.39388156874998,185.19707196041665,67.0,84.0
320,185.35132706874998,185.54680552499997,67.0,80.0
321,185.67047556875,185.90052844583332,67.0,79.0
322,185.98962406875,186.20371952083332,68.0,83.0
323,186.30877256875,186.5281871625,67.0,80.0
324,186.62792106874997,186.81808038333332,65.0,80.0
325,186.94706956875,187.76621738541667,63.0,85.0
326,187.90451506875,188.15850408333333,60.0,83.0
327,188.22366356875,188.44839730416666,63.0,81.0
328,188.54281206874998,188.7303118125,65.0,81.0
329,188.86196056875,189.04547095624997,67.0,79.0
330,189.18110906875,189.3792470958333,68.0,86.0
331,189.50025756875,190.96435131249999,67.0,81.0
332,191.09600006875,191.33935079999998,70.0,81.0
333,191.41514856875,191.65052058749998,70.0,88.0
334,191.73429706874998,191.93908402291666,70.0,82.0
335,192.05344556875,192.26754102083333,72.0,80.0
336,192.37259406875,192.6225937270833,70.0,83.0
337,192.69174256875,192.91647630416665,67.0,80.0
338,193.01089106874997,193.23296523333332,72.0,82.0
339,193.33003956875,193.56009244583333,70.0,86.0
340,193.64918806875,193.89120901458332,67.0,81.0
341,193.96833656874998,194.16780438125,72.0,84.0
342,194.28748506875,194.57338893333332,70.0,86.0
343,194.60663356875,195.48429194375,67.0,83.0
344,195.56407906875,195.76088731041665,67.0,79.0
345,195.88322756875,196.08535495208332,67.0,79.0
346,196.20237606874997,196.39253538333332,68.0,81.0
347,196.52152456874998,196.69306688749998,67.0,80.0
348,196.84067306875,197.06939616041666,65.0,80.0
349,197.15982156874998,198.0414693,63.0,79.0
350,198.11726706874998,198.33801144791664,60.0,80.0
351,198.43641556875,198.69306415416665,63.0,80.0
352,198.75556406875,198.96965952083332,65.0,78.0
353,199.07471256875,199.26487188333334,67.0,76.0
354,199.39386106874997,199.61327566249997,68.0,82.0
355,199.71300956874998,200.73960391041666,67.0,79.0
356,200.67045506875,200.73960391041666,67.0,80.0
357,200.98960356875,201.25024151041666,67.0,80.0
358,201.30875206874998,201.52284752083332,65.0,80.0
359,201.62790056875,202.00821919791667,65.0,79.0
360,201.94704906875,202.1824210875,63.0,74.0
361,202.26619756875,203.10396238124997,63.0,80.0
362,203.22364306875,203.45369594583332,60.0,79.0
363,203.54279156874998,203.76619551875,60.0,81.0
364,203.86194006875,204.0653972375,62.0,80.0
365,204.18108856875,204.41646058749998,63.0,81.0
366,204.50023706874998,204.79943878749998,65.0,78.0
367,204.81938556875,207.22895674375,62.0,83.0
