,start,end,pitch,velocity
0,0.6104341104166668,1.0182729520833336,60.0,69.0
1,0.6104341104166668,1.2407305020833337,63.0,68.0
2,0.9282306104166669,1.3003173458333337,55.0,77.0
3,1.246027110416667,1.5744168270833336,60.0,71.0
4,1.881620110416667,2.274893279166667,60.0,76.0
5,1.881620110416667,2.313293689583334,63.0,73.0
6,2.5172131104166673,2.648304166666667,55.0,77.0
7,0.6104341104166668,2.6562490791666673,48.0,78.0
8,2.5172131104166673,2.7529121812500006,60.0,79.0
9,3.1528061104166674,3.4586852416666676,58.0,67.0
10,3.1528061104166674,3.535486062500001,62.0,77.0
11,3.4706026104166674,3.683791095833334,53.0,68.0
12,3.7883991104166674,4.132678652083334,58.0,66.0
13,4.106195610416668,4.251852339583334,53.0,57.0
14,4.423992110416668,4.755030131250001,58.0,78.0
15,4.423992110416668,4.790782237500001,62.0,79.0
16,4.741788610416668,4.8358034083333346,53.0,56.0
17,5.059585110416668,5.195972775000001,53.0,78.0
18,3.1528061104166674,5.328387983333334,46.0,83.0
19,5.059585110416668,5.369436697916668,58.0,76.0
20,5.377381610416668,5.549521381250001,53.0,64.0
21,5.695178110416668,5.974574200000001,56.0,67.0
22,5.695178110416668,5.995760633333335,60.0,74.0
23,6.012974610416668,6.431406668750001,51.0,64.0
24,6.330771110416668,6.697561237500001,56.0,69.0
25,6.648567610416668,7.031247562500002,51.0,67.0
26,5.695178110416668,7.080241189583335,44.0,80.0
27,6.966364110416668,7.420548275000002,56.0,77.0
28,6.966364110416668,7.4708660541666685,60.0,77.0
29,7.284160610416668,7.677867137500002,51.0,57.0
30,7.601957110416668,7.763428604166669,56.0,81.0
31,8.243374956250001,8.615032577083335,55.0,68.0
32,8.243374956250001,8.855674202083335,62.0,72.0
33,8.564230456250002,8.909150118750002,50.0,69.0
34,8.243374956250001,9.001396075000002,43.0,79.0
35,8.885085956250002,9.187224885416668,55.0,83.0
36,9.205941456250002,9.508870781250003,50.0,75.0
37,9.52768794791667,10.288439114583337,59.0,76.0
38,9.52768794791667,10.300535864583336,55.0,77.0
39,10.81800794791667,11.231267483333337,63.0,73.0
40,10.81800794791667,11.251320952083336,60.0,74.0
41,11.139021527083337,11.32217654166667,55.0,75.0
42,11.459877027083337,11.608272695833335,55.0,70.0
43,11.459877027083337,11.77538493541667,60.0,73.0
44,10.81800794791667,12.287416837500002,48.0,79.0
45,12.101588027083336,12.466561158333336,60.0,79.0
46,12.101588027083336,12.471908750000003,63.0,74.0
47,12.422443527083336,12.48126703541667,55.0,62.0
48,12.743299027083337,12.874315022916669,55.0,79.0
49,12.743299027083337,12.945170612500004,60.0,81.0
50,13.385010027083336,13.819501850000002,58.0,73.0
51,13.385010027083336,13.887683643750002,62.0,75.0
52,13.705865527083336,14.08554453541667,53.0,65.0
53,14.026721027083337,14.20987604166667,58.0,76.0
54,13.385010027083336,14.398378647916669,46.0,72.0
55,14.667678102083336,15.005443597916669,62.0,75.0
56,14.667678102083336,15.00943295416667,58.0,67.0
57,14.986826602083337,15.059964800000003,53.0,41.0
58,15.305975102083336,15.396400510416669,53.0,72.0
59,15.305975102083336,15.428315360416669,46.0,80.0
60,15.305975102083336,15.603847035416669,58.0,72.0
61,15.625123602083336,15.730176650000002,53.0,63.0
62,15.944272102083335,16.256771675000003,56.0,72.0
63,15.944272102083335,16.34586729791667,60.0,77.0
64,16.263420602083336,16.655707300000003,51.0,62.0
65,16.582569102083337,16.90038781666667,56.0,81.0
66,16.901717602083338,17.296663870833335,51.0,67.0
67,15.944272102083335,17.368472283333336,44.0,81.0
68,17.220866102083335,17.661025075,56.0,82.0
69,17.220866102083335,17.663684645833335,60.0,80.0
70,17.540014602083335,18.046662845833335,51.0,60.0
71,17.859163102083336,18.147726537500002,56.0,83.0
72,18.178311602083337,18.37246027291667,44.0,71.0
73,19.135757102083335,19.291341995833335,55.0,80.0
74,18.816608602083335,19.31394834791667,50.0,77.0
75,18.497460102083338,19.33788448541667,43.0,80.0
76,19.454905602083336,20.352510758333338,59.0,79.0
77,19.454905602083336,20.460223377083338,55.0,78.0
78,19.454905602083336,20.478840372916668,43.0,81.0
79,21.050648102083336,21.166339433333334,36.0,74.0
80,21.050648102083336,21.432296516666668,60.0,74.0
81,21.050648102083336,21.437615658333335,63.0,79.0
82,21.369796602083337,21.509424070833337,55.0,70.0
83,21.688945102083338,22.168997637500002,60.0,68.0
84,22.008093602083335,22.20224227291667,55.0,60.0
85,22.327242102083336,22.779369143750003,60.0,79.0
86,22.327242102083336,22.831230775,63.0,73.0
87,22.965539102083333,23.07591129166667,55.0,72.0
88,22.646390602083336,23.109155927083336,51.0,66.0
89,22.965539102083333,23.32724073541667,60.0,75.0
90,23.284687602083338,23.473517131250002,55.0,62.0
91,23.603836102083335,23.933622885416668,58.0,66.0
92,23.603836102083335,24.24878202916667,62.0,74.0
93,23.922984602083336,24.255430956250002,53.0,62.0
94,23.603836102083335,24.365803145833336,46.0,73.0
95,24.242133102083336,24.63973894166667,58.0,81.0
96,24.561281602083334,25.03202563958334,53.0,63.0
97,24.880430102083338,25.336546500000004,62.0,76.0
98,24.880430102083338,25.360482637500002,58.0,73.0
99,25.199578602083335,25.698248133333337,46.0,68.0
100,25.518727102083336,25.79665225416667,58.0,81.0
101,26.157024102083334,26.52670444791667,56.0,66.0
102,26.157024102083334,26.715533977083336,60.0,74.0
103,26.476172602083338,26.84984230416667,51.0,66.0
104,26.157024102083334,26.899044364583336,44.0,81.0
105,26.795321102083335,27.170320589583334,56.0,80.0
106,27.114469602083336,27.46420316666667,51.0,60.0
107,27.752766602083334,28.14239372916667,44.0,64.0
108,27.433618102083337,28.143723514583336,56.0,75.0
109,28.071915102083338,28.28601055416667,51.0,81.0
110,27.433618102083337,28.428297593750003,60.0,75.0
111,28.391063602083335,28.58122291666667,56.0,80.0
112,28.710212102083336,29.09983922916667,55.0,74.0
113,28.710212102083336,29.139732791666667,59.0,76.0
114,29.029360602083337,29.408349445833338,50.0,69.0
115,29.348509102083334,29.72616816041667,55.0,82.0
116,29.667657602083338,30.082550652083334,50.0,65.0
117,29.986806102083335,30.36712473125,55.0,79.0
118,29.986806102083335,30.40834807916667,62.0,78.0
119,30.305954602083336,30.706220012500005,50.0,68.0
120,28.710212102083336,30.728826364583334,43.0,73.0
121,30.625103102083337,30.76871992708334,59.0,75.0
122,30.625103102083337,30.775368854166672,55.0,72.0
123,31.263400102083338,31.42696370833334,55.0,72.0
124,31.263400102083338,31.909675814583338,63.0,72.0
125,31.582548602083335,31.920314097916666,55.0,64.0
126,31.901697102083332,32.22350517291667,60.0,71.0
127,32.539994102083334,32.875100027083334,60.0,80.0
128,32.539994102083334,32.930951014583336,63.0,77.0
129,32.85914260208334,32.96419565,55.0,59.0
130,31.263400102083338,33.23680166041667,48.0,78.0
131,33.178291102083335,33.28866329166667,55.0,76.0
132,33.178291102083335,33.408343979166666,60.0,80.0
133,33.49743960208333,33.6743010625,55.0,54.0
134,33.81658810208334,34.0891941125,58.0,67.0
135,33.81658810208334,34.12642810416667,62.0,76.0
136,33.81658810208334,34.130417460416666,46.0,72.0
137,34.135736602083334,34.33387462916667,53.0,70.0
138,34.45488510208334,34.63041677708333,58.0,81.0
139,34.774033602083335,35.117118239583334,53.0,72.0
140,35.09318210208333,35.41499017291667,46.0,73.0
141,35.09318210208333,35.43892631041667,62.0,73.0
142,35.09318210208333,35.4455752375,58.0,66.0
143,35.41233060208334,35.579883564583334,53.0,72.0
144,35.731479102083334,35.94424476875,58.0,82.0
145,36.05062760208334,36.10248923333334,53.0,55.0
146,36.369776102083335,36.80328614791667,56.0,66.0
147,36.369776102083335,36.8977009125,60.0,73.0
148,36.68892460208333,37.109136793750004,51.0,66.0
149,36.369776102083335,37.135732502083336,44.0,81.0
150,37.00807310208334,37.42562572291667,56.0,85.0
151,37.327221602083334,37.66631688333334,51.0,68.0
152,37.64637010208334,38.070571650000005,56.0,80.0
153,37.64637010208334,38.075890791666666,60.0,78.0
154,37.965518602083336,38.3578053,44.0,61.0
155,38.28466710208333,38.45222006458334,56.0,80.0
156,38.28466710208333,38.48812427083334,60.0,79.0
157,38.60381560208334,38.75009199791667,44.0,74.0
158,38.922964102083334,39.33652736666667,62.0,78.0
159,38.922964102083334,39.34184650833333,55.0,67.0
160,39.24211260208334,39.63173972916667,50.0,75.0
161,38.922964102083334,39.70487792708334,43.0,79.0
162,39.561261102083336,39.91498402291667,55.0,79.0
163,39.561261102083336,39.948228658333335,59.0,78.0
164,39.88040960208333,40.25274951875,50.0,72.0
165,40.19955810208334,40.75008926458334,55.0,79.0
166,40.19955810208334,40.758067977083336,59.0,78.0
167,40.19955810208334,40.758067977083336,62.0,79.0
168,40.83785510208334,40.97881235625,55.0,80.0
169,40.518706602083334,41.017376133333336,43.0,75.0
170,40.83785510208334,41.1024824,62.0,79.0
171,40.83785510208334,41.10514197083334,59.0,79.0
172,41.157003602083336,41.43093939791667,55.0,79.0
173,41.47615210208333,41.835194164583335,63.0,74.0
174,41.47615210208333,41.84317287708333,58.0,77.0
175,41.47615210208333,42.19822558333333,39.0,76.0
176,41.79530060208334,42.219502150000004,46.0,56.0
177,42.114449102083334,42.25540635625,55.0,80.0
178,42.114449102083334,42.44822524166667,58.0,83.0
179,42.43359760208334,42.542640006250004,55.0,74.0
180,42.752746102083336,43.11444773541667,58.0,70.0
181,42.752746102083336,43.11843709166667,62.0,79.0
182,43.07189460208333,43.31657511875,53.0,67.0
183,42.752746102083336,43.42960687916667,46.0,80.0
184,43.39104310208334,43.70088310416667,58.0,81.0
185,43.39104310208334,43.74077666666667,62.0,79.0
186,43.710191602083334,43.85779778333334,53.0,77.0
187,44.02934010208334,44.458860791666666,63.0,73.0
188,44.02934010208334,44.75141358333334,48.0,79.0
189,44.348488602083336,44.752743368750004,55.0,73.0
190,44.66763710208333,44.933594185416666,60.0,80.0
191,44.66763710208333,44.94556225416667,63.0,80.0
192,44.98678560208334,45.373753158333336,55.0,79.0
193,45.305934102083334,45.63173152916667,58.0,66.0
194,45.305934102083334,45.68625273125,62.0,74.0
195,45.62508260208334,46.13837977291667,50.0,67.0
196,45.305934102083334,46.179603120833335,43.0,80.0
197,45.944231102083336,46.22215625416667,58.0,88.0
198,45.944231102083336,46.426943208333334,62.0,80.0
199,46.26337960208333,46.52933668541667,55.0,78.0
200,46.58252810208334,47.04396364166667,56.0,79.0
201,46.58252810208334,47.065240208333336,60.0,74.0
202,47.22082510208334,47.38438870833334,56.0,80.0
203,46.58252810208334,47.403005704166674,44.0,80.0
204,46.901676602083334,47.408324845833334,51.0,65.0
205,47.22082510208334,47.58252673541667,60.0,81.0
206,47.539973602083336,47.70220742291667,56.0,75.0
207,47.85912210208334,48.04795163125,55.0,73.0
208,47.85912210208334,48.168962104166674,60.0,73.0
209,48.17827060208334,48.54928073333334,55.0,80.0
210,47.85912210208334,48.67295077708334,48.0,77.0
211,48.497419102083335,48.86975901875,60.0,81.0
212,48.497419102083335,48.94289721666667,63.0,82.0
213,48.81656760208334,49.155662883333335,55.0,79.0
214,49.77401310208334,49.89768314583334,55.0,79.0
215,49.45486460208334,49.92826821041667,50.0,79.0
216,49.135716102083336,49.997417052083335,43.0,80.0
217,49.77401310208334,50.12773602291667,58.0,86.0
218,49.77401310208334,50.146353018750006,62.0,82.0
219,50.093161602083335,50.332522977083336,55.0,80.0
220,50.41231010208334,50.71816074791667,62.0,80.0
221,50.41231010208334,50.79395851666667,58.0,83.0
222,50.731458602083336,50.916298775,53.0,80.0
223,51.05060710208334,51.18092607291667,53.0,82.0
224,50.41231010208334,51.191564356250005,46.0,83.0
225,51.05060710208334,51.203532425000006,58.0,88.0
226,51.05060710208334,51.23278770416667,62.0,82.0
227,51.688904102083335,52.041297237500004,58.0,79.0
228,51.688904102083335,52.045286593750006,63.0,74.0
229,52.00805260208334,52.25805226041667,55.0,72.0
230,52.327201102083336,52.47480728333334,58.0,86.0
231,52.327201102083336,52.574541189583336,63.0,86.0
232,51.688904102083335,52.839168487500004,39.0,83.0
233,52.00805260208334,52.88704076250001,46.0,61.0
234,52.64634960208334,53.02799801666667,55.0,81.0
235,52.96549810208334,53.34448694583334,58.0,81.0
236,52.96549810208334,53.36709329791667,63.0,80.0
237,53.284646602083335,53.53065690416667,55.0,73.0
238,52.96549810208334,53.599805745833336,39.0,74.0
239,53.60379510208334,53.87773089791667,58.0,86.0
240,53.60379510208334,53.90166703541667,63.0,84.0
241,53.922943602083336,54.216826179166674,55.0,83.0
242,54.24209210208334,54.627729872916674,63.0,84.0
243,54.56124060208334,54.7540594875,55.0,81.0
244,54.880389102083335,54.96416558333334,55.0,69.0
245,54.24209210208334,54.982782579166674,48.0,79.0
246,54.880389102083335,55.22347373958334,63.0,76.0
247,54.880389102083335,55.28198429791667,60.0,74.0
248,55.19953760208334,55.60113279791667,55.0,79.0
249,55.518686102083336,55.888366447916674,60.0,81.0
250,55.518686102083336,55.92826001041667,63.0,80.0
251,55.83783460208334,56.02666413125,55.0,74.0
252,55.518686102083336,56.258046793750005,48.0,79.0
253,56.15698310208334,56.46682310416667,55.0,81.0
254,56.15698310208334,56.48145074375,60.0,81.0
255,56.15698310208334,56.6210782125,63.0,77.0
256,56.476131602083335,56.627727139583335,46.0,79.0
257,56.79528010208334,57.18889658541667,63.0,75.0
258,56.79528010208334,57.22347100625,56.0,79.0
259,57.114428602083336,57.597140708333335,51.0,64.0
260,56.79528010208334,57.65698105208334,44.0,83.0
261,57.43357710208334,57.775331954166674,60.0,77.0
262,57.43357710208334,57.79660852083334,63.0,75.0
263,57.75272560208334,58.16229951041667,56.0,81.0
264,58.071874102083335,58.51336286041667,60.0,79.0
265,58.071874102083335,58.52533092916667,63.0,80.0
266,58.071874102083335,58.54527771041667,44.0,78.0
267,58.39102260208334,58.683575393750004,51.0,73.0
268,58.710171102083336,59.041287670833334,60.0,81.0
269,58.710171102083336,59.08384080416667,63.0,80.0
270,59.02931960208334,59.31921282291667,56.0,81.0
271,59.667616602083335,60.017350166666674,51.0,88.0
272,59.34846810208334,60.07985008125,39.0,86.0
273,59.98676510208334,60.13570106875,58.0,79.0
274,59.98676510208334,60.22213712083334,55.0,80.0
275,60.305913602083336,60.3710730875,55.0,53.0
276,59.98676510208334,60.492083560416674,63.0,80.0
277,60.305913602083336,60.69155137291667,51.0,83.0
278,60.62506210208334,60.98277437916667,55.0,79.0
279,60.62506210208334,60.984104164583336,63.0,80.0
280,60.62506210208334,61.00272116041667,58.0,74.0
281,60.94421060208334,61.22612511041667,51.0,79.0
282,60.94421060208334,61.26867824375,46.0,70.0
283,61.263359102083335,61.38968871666667,55.0,81.0
284,61.263359102083335,61.41096528333334,58.0,81.0
285,61.263359102083335,61.66894365416667,63.0,80.0
286,61.58250760208334,61.67692236666667,51.0,80.0
287,61.90165610208334,62.266017306250006,58.0,57.0
288,61.90165610208334,62.28463430208334,63.0,71.0
289,62.22080460208334,62.51468717916667,55.0,67.0
290,62.53995310208334,62.87372924166667,58.0,75.0
291,61.90165610208334,63.022665208333336,39.0,75.0
292,62.22080460208334,63.062558770833334,46.0,62.0
293,62.859101602083335,63.24207980208334,55.0,74.0
294,63.17825010208334,63.450856112500006,63.0,73.0
295,63.17825010208334,63.53330280833334,58.0,79.0
296,63.49739860208334,63.81920667291667,55.0,79.0
297,63.17825010208334,63.92027036458334,39.0,68.0
298,63.81654710208334,64.09048289791667,58.0,74.0
299,63.81654710208334,64.1450041,62.0,78.0
300,64.13569560208333,64.51601423125,55.0,81.0
301,64.45484410208333,64.79526916875,63.0,74.0
302,64.45484410208333,64.799258525,60.0,76.0
303,64.77399260208334,64.95750298958333,55.0,73.0
304,64.45484410208333,65.03596032916667,48.0,78.0
305,65.09314110208334,65.37638539583334,63.0,83.0
306,65.09314110208334,65.47080016041667,60.0,80.0
307,65.41228960208333,65.80590608541667,55.0,78.0
308,65.73143810208333,66.10244823333333,48.0,79.0
309,65.73143810208333,66.11308651666667,60.0,79.0
310,66.05058660208333,66.41760737708333,55.0,79.0
311,66.36973510208334,66.53994763541667,46.0,77.0
312,66.36973510208334,66.78196858125,60.0,79.0
313,66.68888360208334,66.83515999791666,55.0,71.0
314,66.36973510208334,66.88436205833334,63.0,77.0
315,67.00803210208333,67.36840395,60.0,73.0
316,67.00803210208333,67.38037201875,63.0,73.0
317,67.32718060208333,67.65430781458333,56.0,68.0
318,67.64632910208333,68.01334987708333,60.0,79.0
319,67.00803210208333,68.09845614375,44.0,81.0
320,67.32718060208333,68.19819005,51.0,51.0
321,67.96547760208334,68.34446644583333,56.0,71.0
322,68.28462610208334,68.67159365833334,63.0,79.0
323,68.28462610208334,68.69021065416666,60.0,73.0
324,68.28462610208334,68.99074215833333,44.0,79.0
325,68.60377460208333,69.05723142916666,51.0,70.0
326,68.92292310208333,69.08515692291667,56.0,68.0
327,68.92292310208333,69.09712499166666,60.0,73.0
328,68.92292310208333,69.12239091458333,63.0,74.0
329,69.24207160208333,69.33648636666666,44.0,73.0
330,69.56122010208334,69.64632636875,36.0,76.0
331,69.56122010208334,69.9614855125,60.0,74.0
332,69.56122010208334,69.98143229375,63.0,72.0
333,69.88036860208334,70.09047469791666,55.0,66.0
334,70.19951710208333,70.64632500208333,60.0,75.0
335,70.51866560208333,70.92159058333334,55.0,62.0
336,70.83781410208333,71.91228071875,60.0,69.0
337,70.83781410208333,71.91494028958333,63.0,67.0
338,72.11440810208333,72.52398201041667,60.0,69.0
339,72.11440810208333,72.74738596041666,63.0,68.0
340,72.43355660208333,72.80722630416666,55.0,77.0
341,72.75270510208334,73.08249188541667,60.0,71.0
342,73.39100210208333,73.78594837083334,60.0,76.0
343,73.39100210208333,73.82451214791666,63.0,73.0
344,74.02929910208333,74.16094785833333,55.0,77.0
345,72.11440810208333,74.16892657083334,48.0,78.0
346,74.02929910208333,74.26600090625,60.0,79.0
347,74.66759610208334,74.97477653333334,58.0,67.0
348,74.66759610208334,75.0519040875,62.0,77.0
349,74.98674460208333,75.20084005416666,53.0,68.0
350,75.30589310208333,75.65163731041666,58.0,66.0
351,75.62504160208333,75.77131799791667,53.0,57.0
352,75.94419010208334,76.27663645625,58.0,78.0
353,75.94419010208334,76.3125406625,62.0,79.0
354,76.26333860208334,76.35775336666667,53.0,56.0
355,76.58248710208333,76.719455,53.0,78.0
356,74.66759610208334,76.85243354166667,46.0,83.0
357,76.58248710208333,76.89365688958334,58.0,76.0
358,76.90163560208333,77.07450770625,53.0,64.0
359,77.22078410208333,77.501368825,56.0,67.0
360,77.22078410208333,77.52264539166667,60.0,74.0
361,77.53993260208334,77.96014479375,51.0,64.0
362,77.85908110208334,78.2274316625,56.0,69.0
363,78.17822960208333,78.5625375875,51.0,67.0
364,77.22078410208333,78.61173964791666,44.0,80.0
365,78.49737810208333,78.95349449999999,56.0,77.0
366,78.49737810208333,79.00402634583332,60.0,77.0
367,78.81652660208333,79.21147287083333,51.0,57.0
368,79.13567510208333,79.2965791375,56.0,81.0
369,79.77397210208333,80.13168437916666,67.0,75.0
370,79.77397210208333,80.1901949375,55.0,73.0
371,80.09312060208333,80.54763546874999,50.0,76.0
372,80.41226910208333,80.72535380625,55.0,77.0
373,80.41226910208333,80.74259513749999,62.0,75.0
374,79.77397210208333,80.81421297499999,43.0,80.0
375,80.73065883125,80.95081736875,50.0,73.0
376,81.04896033124999,81.4375534125,59.0,75.0
377,81.04896033124999,81.49590868749999,55.0,73.0
378,81.68556333125,81.8036001375,59.0,79.0
379,81.68556333125,81.86460792499999,62.0,79.0
380,81.36726183124999,82.19484573125,50.0,65.0
381,81.04896033124999,82.21871834375,43.0,77.0
382,82.32216633124999,82.57233345624999,67.0,73.0
383,82.00386483125,82.62628074375,55.0,73.0
384,82.32216633124999,82.63812283125,59.0,75.0
385,82.32216633124999,82.64207019375,62.0,75.0
386,82.63812283125,83.06575376875,50.0,59.0
387,82.95391183125,83.26443768125,62.0,72.0
388,82.95391183125,83.27627976875,59.0,69.0
389,83.26970083124999,83.72496330624999,50.0,78.0
390,82.32216633124999,83.96312084374999,43.0,81.0
391,83.58548983125,83.99601553125,55.0,80.0
392,83.58548983125,84.04338388125,67.0,78.0
393,83.58548983125,84.04733124375,62.0,82.0
394,83.58548983125,84.08285750625,59.0,88.0
395,84.21706783124999,84.29601508124999,59.0,79.0
396,84.21706783124999,84.72743336875,55.0,86.0
397,83.90127883125,84.77108411875,50.0,81.0
398,84.85044911874999,84.96552836875,36.0,74.0
399,84.85044911874999,85.23007836875,60.0,74.0
400,84.85044911874999,85.23536936875,63.0,79.0
401,85.16790911875,85.30679786875,55.0,70.0
402,85.48536911875,85.96288186875,60.0,68.0
403,85.80282911875,85.99595061875,55.0,60.0
404,86.12028911875,86.57002411875,60.0,79.0
405,86.12028911875,86.62161136875,63.0,73.0
406,86.75520911875,86.86499736875,55.0,72.0
407,86.43774911874999,86.89806611875,51.0,66.0
408,86.75520911875,87.11499711875,60.0,75.0
409,87.07266911875,87.26049961875,55.0,62.0
410,87.39012911875,87.71817111874999,58.0,66.0
411,87.39012911875,88.03166286874999,62.0,74.0
412,87.70758911875,88.03827661874999,53.0,62.0
413,87.39012911875,88.14806486875,46.0,73.0
414,88.02504911874999,88.42055136875,58.0,81.0
415,88.34250911875,88.81076261874999,53.0,63.0
416,88.65996911875,89.11367236875,62.0,76.0
417,88.65996911875,89.13748186875,58.0,73.0
418,88.97742911875,89.47346036875,46.0,68.0
419,89.29488911874999,89.57134386874999,58.0,81.0
420,89.92980911875,90.29753361875,56.0,66.0
421,89.92980911875,90.48536411875,60.0,74.0
422,90.24726911875,90.61896186874999,51.0,66.0
423,89.92980911875,90.66794583125,44.0,81.0
424,90.56472911875,90.93922205624999,56.0,80.0
425,90.88337106875,91.23310463333333,51.0,60.0
426,91.52166806874999,91.91129519583332,44.0,64.0
427,91.20251956874999,91.91262498124999,56.0,75.0
428,91.84081656874999,92.05491202083333,51.0,81.0
429,91.20251956874999,92.19719906041665,60.0,75.0
430,92.15996506874998,92.35012438333332,56.0,80.0
431,92.47911356875,92.86874069583332,55.0,74.0
432,92.47911356875,92.90863425833332,59.0,76.0
433,92.79826206874999,93.17725091249999,50.0,69.0
434,93.11741056874999,93.49506962708332,55.0,82.0
435,93.43655906874999,93.85145211874999,50.0,65.0
436,93.75570756874998,94.13602619791665,55.0,79.0
437,93.75570756874998,94.17724954583332,62.0,78.0
438,94.07485606875,94.47512147916666,50.0,68.0
439,92.47911356875,94.49772783124999,43.0,73.0
440,94.39400456874999,94.53762139374999,59.0,75.0
441,94.39400456874999,94.54427032083332,55.0,72.0
442,95.03230156874999,95.195865175,55.0,72.0
443,95.03230156874999,95.67857728124999,63.0,72.0
444,95.35145006874998,95.68921556458332,55.0,64.0
445,95.67059856875,95.99240663958332,60.0,71.0
446,96.30889556874999,96.64400149374998,60.0,80.0
447,96.30889556874999,96.69985248124999,63.0,77.0
448,96.62804406874999,96.73309711666666,55.0,59.0
449,95.03230156874999,97.00570312708332,48.0,78.0
450,96.94719256874998,97.05756475833333,55.0,76.0
451,96.94719256874998,97.17724544583332,60.0,80.0
452,97.26634106875,97.44320252916665,55.0,54.0
453,97.58548956874999,97.85809557916666,58.0,67.0
454,97.58548956874999,97.89532957083333,62.0,76.0
455,97.58548956874999,97.89931892708333,46.0,72.0
456,97.90463806874999,98.10277609583332,53.0,70.0
457,98.22378656874999,98.39931824374999,58.0,81.0
458,98.54293506874998,98.88601970624998,53.0,72.0
459,98.86208356875,99.18389163958332,46.0,73.0
460,98.86208356875,99.20782777708332,62.0,73.0
461,98.86208356875,99.21447670416666,58.0,66.0
462,99.18123206874999,99.34878503124999,53.0,72.0
463,99.50038056874999,99.71314623541666,58.0,82.0
464,99.81952906874999,99.87139069999999,53.0,55.0
465,100.13867756874998,100.57218761458333,56.0,66.0
466,100.13867756874998,100.66660237916666,60.0,73.0
467,100.45782606875,100.87803826041666,51.0,66.0
468,100.13867756874998,100.90463396874999,44.0,81.0
469,100.77697456874999,101.19452718958333,56.0,85.0
470,101.09612306874999,101.43521834999999,51.0,68.0
471,101.41527156874999,101.83947311666665,56.0,80.0
472,101.41527156874999,101.84479225833333,60.0,78.0
473,101.73442006874998,102.12670676666666,44.0,61.0
474,102.05356856875,102.22112153124999,56.0,80.0
475,102.05356856875,102.25702573749999,60.0,79.0
476,102.37271706874999,102.51899346458332,44.0,74.0
477,102.69186556874999,103.10542883333332,62.0,78.0
478,102.69186556874999,103.110747975,55.0,67.0
479,103.01101406874999,103.40064119583332,50.0,75.0
480,102.69186556874999,103.47377939375,43.0,79.0
481,103.33016256874998,103.68388548958332,55.0,79.0
482,103.33016256874998,103.71713012499998,59.0,78.0
483,103.64931106875,104.02165098541666,50.0,72.0
484,103.96845956874999,104.51899073124999,55.0,79.0
485,103.96845956874999,104.52696944374999,59.0,78.0
486,103.96845956874999,104.52696944374999,62.0,79.0
487,104.60675656874999,104.74771382291665,55.0,80.0
488,104.28760806874999,104.78627759999999,43.0,75.0
489,104.60675656874999,104.87138386666666,62.0,79.0
490,104.60675656874999,104.87404343749999,59.0,79.0
491,104.92590506874998,105.19984086458332,55.0,79.0
492,105.24505356875,105.60409563124999,63.0,74.0
493,105.24505356875,105.61207434375,58.0,77.0
494,105.24505356875,105.96712704999999,39.0,76.0
495,105.56420206874999,105.98840361666666,46.0,56.0
496,105.88335056874999,106.02430782291665,55.0,80.0
497,105.88335056874999,106.21712670833332,58.0,83.0
498,106.20249906874999,106.31154147291666,55.0,74.0
499,106.52164756874998,106.88334920208332,58.0,70.0
500,106.52164756874998,106.88733855833333,62.0,79.0
501,106.84079606875,107.08547658541666,53.0,67.0
502,106.52164756874998,107.19850834583332,46.0,80.0
503,107.15994456874999,107.46978457083333,58.0,81.0
504,107.15994456874999,107.50967813333332,62.0,79.0
505,107.47909306874999,107.62669924999999,53.0,77.0
506,107.79824156874999,108.22776225833331,63.0,73.0
507,107.79824156874999,108.52031505,48.0,79.0
508,108.11739006874998,108.52164483541665,55.0,73.0
509,108.43653856875,108.70249565208331,60.0,80.0
510,108.43653856875,108.71446372083332,63.0,80.0
511,108.75568706874999,109.14265462499999,55.0,79.0
512,109.07483556874999,109.40063299583332,58.0,66.0
513,109.07483556874999,109.45515419791666,62.0,74.0
514,109.39398406874999,109.90728123958333,50.0,67.0
515,109.07483556874999,109.9485045875,43.0,80.0
516,109.71313256874998,109.99105772083333,58.0,88.0
517,109.71313256874998,110.19584467499999,62.0,80.0
518,110.03228106875,110.29823815208331,55.0,78.0
519,110.35142956874999,110.81286510833333,56.0,79.0
520,110.35142956874999,110.83414167499998,60.0,74.0
521,110.98972656874999,111.153290175,56.0,80.0
522,110.35142956874999,111.17190717083332,44.0,80.0
523,110.67057806874999,111.17722631249998,51.0,65.0
524,110.98972656874999,111.35142820208333,60.0,81.0
525,111.30887506874998,111.47110888958332,56.0,75.0
526,111.62802356875,111.81685309791666,55.0,73.0
527,111.62802356875,111.93786357083331,60.0,73.0
528,111.94717206874999,112.3181822,55.0,80.0
529,111.62802356875,112.44185224374999,48.0,77.0
530,112.26632056874999,112.63866048541665,60.0,81.0
531,112.26632056874999,112.71179868333333,63.0,82.0
532,112.58546906874999,112.92456435,55.0,79.0
533,113.54291456874999,113.66658461249999,55.0,79.0
534,113.22376606875,113.69716967708332,50.0,79.0
535,112.90461756874998,113.76631851874998,43.0,80.0
536,113.54291456874999,113.89663748958333,58.0,86.0
537,113.54291456874999,113.91525448541665,62.0,82.0
538,113.86206306874999,114.10142444374999,55.0,80.0
539,114.18121156874999,114.48706221458332,62.0,80.0
540,114.18121156874999,114.56285998333333,58.0,83.0
541,114.50036006874998,114.68520024166665,53.0,80.0
542,114.81950856875,114.94982753958332,53.0,82.0
543,114.18121156874999,114.96046582291666,46.0,83.0
544,114.81950856875,114.97243389166665,58.0,88.0
545,114.81950856875,115.00168917083332,62.0,82.0
546,115.45780556874999,115.81019870416665,58.0,79.0
547,115.45780556874999,115.81418806041665,63.0,74.0
548,115.77695406874999,116.02695372708332,55.0,72.0
549,116.09610256874998,116.24370875,58.0,86.0
550,116.09610256874998,116.34344265624999,63.0,86.0
551,115.45780556874999,116.60806995416665,39.0,83.0
552,115.77695406874999,116.65594222916666,46.0,61.0
553,116.41525106875,116.79689948333332,55.0,81.0
554,116.73439956874999,117.11338841249999,58.0,81.0
555,116.73439956874999,117.13599476458333,63.0,80.0
556,117.05354806874999,117.29955837083332,55.0,73.0
557,116.73439956874999,117.36870721249998,39.0,74.0
558,117.37269656874999,117.64663236458333,58.0,86.0
559,117.37269656874999,117.67056850208333,63.0,84.0
560,117.69184506874998,117.98572764583332,55.0,83.0
561,118.01099356875,118.39663133958332,63.0,84.0
562,118.33014206874999,118.52296095416665,55.0,81.0
563,118.64929056874999,118.73306704999999,55.0,69.0
564,118.01099356875,118.75168404583331,48.0,79.0
565,118.64929056874999,118.99237520624999,63.0,76.0
566,118.64929056874999,119.05088576458333,60.0,74.0
567,118.96843906874999,119.37003426458332,55.0,79.0
568,119.28758756874998,119.65726791458331,60.0,81.0
569,119.28758756874998,119.69716147708333,63.0,80.0
570,119.60673606875,119.79556559791666,55.0,74.0
571,119.28758756874998,120.02694826041666,48.0,79.0
572,119.92588456874999,120.23572457083333,55.0,81.0
573,119.92588456874999,120.25035221041665,60.0,81.0
574,119.92588456874999,120.38997967916666,63.0,77.0
575,120.24503306874999,120.39662860624999,46.0,79.0
576,120.56418156874999,120.95779805208332,63.0,75.0
577,120.56418156874999,120.99237247291666,56.0,79.0
578,120.88333006874998,121.36604217499999,51.0,64.0
579,120.56418156874999,121.42588251874999,44.0,83.0
580,121.20247856875,121.54423342083332,60.0,77.0
581,121.20247856875,121.5655099875,63.0,75.0
582,121.52162706874999,121.93120097708332,56.0,81.0
583,121.84077556874999,122.28226432708333,60.0,79.0
584,121.84077556874999,122.29423239583332,63.0,80.0
585,121.84077556874999,122.31417917708332,44.0,78.0
586,122.15992406874999,122.45247686041665,51.0,73.0
587,122.47907256874998,122.81018913749999,60.0,81.0
588,122.47907256874998,122.85274227083332,63.0,80.0
589,122.79822106875,123.08811428958333,56.0,81.0
590,123.43651806874999,123.78625163333332,51.0,88.0
591,123.11736956874998,123.84875154791666,39.0,86.0
592,123.75566656874999,123.90460253541666,58.0,79.0
593,123.75566656874999,123.99103858749999,55.0,80.0
594,124.07481506874998,124.13997455416666,55.0,53.0
595,123.75566656874999,124.26098502708332,63.0,80.0
596,124.07481506874998,124.46045283958333,51.0,83.0
597,124.39396356875,124.75167584583332,55.0,79.0
598,124.39396356875,124.75300563124999,63.0,80.0
599,124.39396356875,124.77162262708333,58.0,74.0
600,124.71311206874998,124.99502657708332,51.0,79.0
601,124.71311206874998,125.03757971041665,46.0,70.0
602,125.03226056874999,125.15859018333333,55.0,81.0
603,125.03226056874999,125.17986674999999,58.0,81.0
604,125.03226056874999,125.43784512083332,63.0,80.0
605,125.35140906874999,125.44582383333332,51.0,80.0
606,125.67055756874998,126.03491877291665,58.0,57.0
607,125.67055756874998,126.05353576874998,63.0,71.0
608,125.98970606875,126.28358864583332,55.0,67.0
609,126.30885456874998,126.64263070833331,58.0,75.0
610,125.67055756874998,126.79156667499998,39.0,75.0
611,125.98970606875,126.83146023749998,46.0,62.0
612,126.62800306874999,127.01098126874999,55.0,74.0
613,126.94715156874999,127.21975757916665,63.0,73.0
614,126.94715156874999,127.30220427499998,58.0,79.0
615,127.26630006874998,127.58810813958331,55.0,79.0
616,126.94715156874999,127.68917183124998,39.0,68.0
617,127.58544856875,127.85938436458332,58.0,74.0
618,127.58544856875,127.91390556666666,62.0,78.0
619,127.90459706874998,128.28491569791666,55.0,81.0
620,128.22374556875,128.56417063541664,63.0,74.0
621,128.22374556875,128.56815999166665,60.0,76.0
622,128.54289406875,128.72640445624998,55.0,73.0
623,128.22374556875,128.80486179583332,48.0,78.0
624,128.86204256874998,129.14528686249997,63.0,83.0
625,128.86204256874998,129.23970162708332,60.0,80.0
626,129.18119106875,129.5748075520833,55.0,78.0
627,129.50033956874998,129.8713497,48.0,79.0
628,129.50033956874998,129.88198798333332,60.0,79.0
629,129.81948806875,130.18650884375,55.0,79.0
630,130.13863656874997,130.30884910208331,46.0,77.0
631,130.13863656874997,130.55087004791665,60.0,79.0
632,130.45778506874998,130.6040614645833,55.0,71.0
633,130.13863656874997,130.653263525,63.0,77.0
634,130.77693356875,131.13730541666666,60.0,73.0
635,130.77693356875,131.14927348541664,63.0,73.0
636,131.09608206874998,131.42320928125,56.0,68.0
637,131.41523056875,131.78225134374998,60.0,79.0
638,130.77693356875,131.86735761041666,44.0,81.0
639,131.09608206874998,131.96709151666664,51.0,51.0
640,131.73437906875,132.1133679125,56.0,71.0
641,132.05352756874998,132.44049512499998,63.0,79.0
642,132.05352756874998,132.4591121208333,60.0,73.0
643,132.05352756874998,132.759643625,44.0,79.0
644,132.37267606875,132.82613289583333,51.0,70.0
645,132.69182456874998,132.85405838958332,56.0,68.0
646,132.69182456874998,132.86602645833332,60.0,73.0
647,132.69182456874998,132.89129238125,63.0,74.0
648,133.01097306875,133.10538783333334,44.0,73.0
649,133.33012156874997,133.70379127083334,60.0,80.0
650,133.33012156874997,133.7091104125,63.0,80.0
651,133.64927006874998,133.86336552083333,55.0,74.0
652,133.96841856875,134.25831178958333,62.0,80.0
653,134.28756706874998,134.54288586874998,55.0,79.0
654,134.60671556875,134.6984707625,55.0,69.0
655,134.60671556875,135.04288518541665,60.0,79.0
656,134.92586406875,135.1240020958333,55.0,79.0
657,133.33012156874997,135.40325703333332,48.0,82.0
658,135.24501256874998,135.65857583333332,60.0,82.0
659,135.24501256874998,135.73969274375,63.0,82.0
660,135.56416106875,135.75830973958332,55.0,74.0
661,135.88330956874998,136.26894733958332,63.0,81.0
662,136.52160656874997,136.6878297458333,56.0,78.0
663,136.52160656874997,136.87665927499998,60.0,77.0
664,136.84075506874998,137.06149944791665,56.0,73.0
665,136.20245806875,137.25564811875,51.0,66.0
666,137.15990356875,137.53756262708333,60.0,75.0
667,137.15990356875,137.5934136145833,63.0,79.0
668,135.88330956874998,137.93516846666665,44.0,81.0
669,137.79820056875,137.96043438958333,56.0,77.0
670,137.79820056875,137.96841310208333,60.0,80.0
671,137.79820056875,137.99101945416666,63.0,80.0
672,137.47905206874998,138.00564709374999,51.0,71.0
673,138.11734906875,138.24234889791666,44.0,84.0
674,138.43649756874999,138.88463525416665,55.0,81.0
675,138.43649756874999,138.90059267916666,60.0,81.0
676,138.75564606875,139.2210709645833,50.0,71.0
677,139.07479456874998,139.24899645833332,55.0,84.0
678,139.07479456874998,139.4537834125,60.0,88.0
679,138.43649756874999,139.493676975,43.0,81.0
680,139.39394306875,139.59607045208332,55.0,86.0
681,139.71309156874997,140.09341019791665,59.0,83.0
682,139.71309156874997,140.1386229020833,55.0,84.0
683,140.35138856875,140.51096281875,55.0,80.0
684,140.67053706874998,140.98436642708333,55.0,80.0
685,140.35138856875,141.02160041874998,59.0,80.0
686,140.35138856875,141.02293020416664,62.0,78.0
687,140.03224006874999,141.02425998958333,50.0,75.0
688,139.71309156874997,141.0415472,43.0,83.0
689,140.98968556875,141.39925947708332,60.0,69.0
690,140.98968556875,141.62266342708332,63.0,68.0
691,141.30883406875,141.6825037708333,55.0,77.0
692,141.62798256874999,141.95776935208332,60.0,71.0
693,142.26627956874998,142.66122583749998,60.0,76.0
694,142.26627956874998,142.69978961458332,63.0,73.0
695,142.90457656874997,143.03622532499998,55.0,77.0
696,140.98968556875,143.04420403749998,48.0,78.0
697,142.90457656874997,143.14127837291664,60.0,79.0
698,143.54287356875,143.850054,58.0,67.0
699,143.54287356875,143.92718155416665,62.0,77.0
700,143.86202206874998,144.07611752083332,53.0,68.0
701,144.18117056875,144.52691477708333,58.0,66.0
702,144.50031906875,144.64659546458333,53.0,57.0
703,144.81946756874999,145.15191392291666,58.0,78.0
704,144.81946756874999,145.18781812916666,62.0,79.0
705,145.13861606875,145.23303083333332,53.0,56.0
706,145.45776456874998,145.59473246666664,53.0,78.0
707,143.54287356875,145.72771100833333,46.0,83.0
708,145.45776456874998,145.76893435624999,58.0,76.0
709,145.77691306875,145.94978517291665,53.0,64.0
710,146.09606156874997,146.37664629166665,56.0,67.0
711,146.09606156874997,146.39792285833332,60.0,74.0
712,146.41521006874999,146.83542226041666,51.0,64.0
713,146.73435856875,147.10270912916667,56.0,69.0
714,147.05350706874998,147.43781505416666,51.0,67.0
715,146.09606156874997,147.48701711458332,44.0,80.0
716,147.37265556875,147.82877196666666,56.0,77.0
717,147.37265556875,147.87930381249998,60.0,77.0
718,147.69180406875,148.08675033749998,51.0,57.0
719,148.01095256874999,148.17185660416666,56.0,81.0
720,148.64924956874998,149.02424905625,58.0,70.0
721,148.64924956874998,149.03089798333332,63.0,72.0
722,148.64924956874998,149.39924854375,39.0,85.0
723,148.96839806875,149.42451446666666,46.0,67.0
724,149.28754656874997,149.56946107708333,63.0,88.0
725,149.28754656874997,149.57611000416665,58.0,88.0
726,149.60669506874999,149.82079052083333,55.0,86.0
727,149.92584356875,150.16786451458333,62.0,80.0
728,149.92584356875,150.2197261458333,59.0,80.0
729,149.92584356875,150.22903464375,55.0,82.0
730,150.56414056875,150.62664048333332,55.0,73.0
731,150.24499206874998,151.15589507916667,50.0,76.0
732,149.92584356875,151.17052271875,43.0,82.0
733,150.88328906875,151.174512075,55.0,85.0
734,150.56414056875,151.18648014374998,59.0,83.0
735,150.56414056875,151.18648014374998,62.0,79.0
736,150.56414056875,151.19578864166664,67.0,76.0
737,151.20243756874999,151.56147963125,63.0,74.0
738,151.20243756874999,151.56945834375,58.0,77.0
739,151.20243756874999,151.92451104999998,39.0,76.0
740,151.52158606875,151.94578761666665,46.0,56.0
741,151.84073456874998,151.98169182291667,55.0,80.0
742,151.84073456874998,152.17451070833332,58.0,83.0
743,152.15988306875,152.26892547291666,55.0,74.0
744,152.47903156874997,152.84073320208333,58.0,70.0
745,152.47903156874997,152.84472255833333,62.0,79.0
746,152.79818006874999,153.04286058541666,53.0,67.0
747,152.47903156874997,153.1558923458333,46.0,80.0
748,153.11732856875,153.42716857083332,58.0,81.0
749,153.11732856875,153.46706213333331,62.0,79.0
750,153.43647706874998,153.58408325,53.0,77.0
751,153.75562556875,154.18514625833333,63.0,73.0
752,153.75562556875,154.47769904999998,48.0,79.0
753,154.07477406875,154.47902883541667,55.0,73.0
754,154.39392256874999,154.6598796520833,60.0,80.0
755,154.39392256874999,154.67184772083334,63.0,80.0
756,154.71307106874997,155.10003862499997,55.0,79.0
757,155.03221956875,155.35801699583334,58.0,66.0
758,155.03221956875,155.41253819791666,62.0,74.0
759,155.35136806875,155.8646652395833,50.0,67.0
760,155.03221956875,155.9058885875,43.0,80.0
761,155.67051656874997,155.94844172083333,58.0,88.0
762,155.67051656874997,156.15322867499998,62.0,80.0
763,155.98966506874999,156.25562215208333,55.0,78.0
764,156.30881356875,156.7702491083333,56.0,79.0
765,156.30881356875,156.791525675,60.0,74.0
766,156.94711056875,157.11067417499999,56.0,80.0
767,156.30881356875,157.1292911708333,44.0,80.0
768,156.62796206874998,157.1346103125,51.0,65.0
769,156.94711056875,157.30881220208332,60.0,81.0
770,157.26625906875,157.4284928895833,56.0,75.0
771,157.58540756874999,157.77423709791665,55.0,73.0
772,157.58540756874999,157.8952475708333,60.0,73.0
773,157.90455606874997,158.2755662,55.0,80.0
774,157.58540756874999,158.39923624374998,48.0,77.0
775,158.22370456875,158.59604448541666,60.0,81.0
776,158.22370456875,158.6691826833333,63.0,82.0
777,158.54285306875,158.88194835,55.0,79.0
778,159.50029856875,159.6239686125,55.0,79.0
779,159.18115006875,159.65455367708333,50.0,79.0
780,158.86200156874997,159.72370251874997,43.0,80.0
781,159.50029856875,159.85402148958332,58.0,86.0
782,159.50029856875,159.87263848541664,62.0,82.0
783,159.81944706874998,160.05880844375,55.0,80.0
784,160.13859556875,160.4444462145833,62.0,80.0
785,160.13859556875,160.52024398333333,58.0,83.0
786,160.45774406875,160.64258424166667,53.0,80.0
787,160.77689256875,160.90721153958333,53.0,82.0
788,160.13859556875,160.91784982291665,46.0,83.0
789,160.77689256875,160.92981789166666,58.0,88.0
790,160.77689256875,160.95907317083334,62.0,82.0
791,161.41518956875,161.76758270416667,58.0,79.0
792,161.41518956875,161.77157206041664,63.0,74.0
793,161.73433806875,161.98433772708333,55.0,72.0
794,162.05348656874997,162.20109275,58.0,86.0
795,162.05348656874997,162.30082665625,63.0,86.0
796,161.41518956875,162.56545395416666,39.0,83.0
797,161.73433806875,162.61332622916666,46.0,61.0
798,162.37263506875,162.75428348333332,55.0,81.0
799,162.69178356875,163.0707724125,58.0,81.0
800,162.69178356875,163.09337876458332,63.0,80.0
801,163.01093206874998,163.25694237083331,55.0,73.0
802,162.69178356875,163.3260912125,39.0,74.0
803,163.33008056875,163.60401636458332,58.0,86.0
804,163.33008056875,163.6279525020833,63.0,84.0
805,163.64922906875,163.9431116458333,55.0,83.0
806,163.96837756875,164.35401533958333,63.0,84.0
807,164.28752606874997,164.48034495416664,55.0,81.0
808,164.60667456875,164.69045104999998,55.0,69.0
809,163.96837756875,164.7090680458333,48.0,79.0
810,164.60667456875,164.94975920625,63.0,76.0
811,164.60667456875,165.0082697645833,60.0,74.0
812,164.92582306875,165.32741826458334,55.0,79.0
813,165.24497156874997,165.6146519145833,60.0,81.0
814,165.24497156874997,165.65454547708333,63.0,80.0
815,165.56412006875,165.75294959791665,55.0,74.0
816,165.24497156874997,165.98433226041664,48.0,79.0
817,165.88326856875,166.19310857083332,55.0,81.0
818,165.88326856875,166.20773621041667,60.0,81.0
819,165.88326856875,166.34736367916668,63.0,77.0
820,166.20241706874998,166.35401260625,46.0,79.0
821,166.52156556875,166.9151820520833,63.0,75.0
822,166.52156556875,166.94975647291665,56.0,79.0
823,166.84071406875,167.323426175,51.0,64.0
824,166.52156556875,167.38326651875,44.0,83.0
825,167.15986256875,167.50161742083333,60.0,77.0
826,167.15986256875,167.52289398749997,63.0,75.0
827,167.47901106874997,167.88858497708333,56.0,81.0
828,167.79815956875,168.23964832708333,60.0,79.0
829,167.79815956875,168.2516163958333,63.0,80.0
830,167.79815956875,168.27156317708332,44.0,78.0
831,168.11730806875,168.40986086041664,51.0,73.0
832,168.43645656874997,168.7675731375,60.0,81.0
833,168.43645656874997,168.81012627083334,63.0,80.0
834,168.75560506875,169.04549828958332,56.0,81.0
835,169.39390206874998,169.74363563333333,51.0,88.0
836,169.07475356875,169.80613554791665,39.0,86.0
837,169.71305056875,169.86198653541666,58.0,79.0
838,169.71305056875,169.94842258749998,55.0,80.0
839,170.03219906875,170.09735855416665,55.0,53.0
840,169.71305056875,170.21836902708333,63.0,80.0
841,170.03219906875,170.41783683958332,51.0,83.0
842,170.35134756875,170.70905984583334,55.0,79.0
843,170.35134756875,170.71038963125,63.0,80.0
844,170.35134756875,170.72900662708332,58.0,74.0
845,170.67049606874997,170.95241057708333,51.0,79.0
846,170.67049606874997,170.99496371041664,46.0,70.0
847,170.98964456875,171.11597418333332,55.0,81.0
848,170.98964456875,171.13725075,58.0,81.0
849,170.98964456875,171.39522912083333,63.0,80.0
850,171.30879306875,171.40320783333334,51.0,80.0
851,171.62794156874997,171.99230277291667,58.0,57.0
852,171.62794156874997,172.01091976875,63.0,71.0
853,171.94709006875,172.24097264583332,55.0,67.0
854,172.26623856875,172.60001470833333,58.0,75.0
855,171.62794156874997,172.748950675,39.0,75.0
856,171.94709006875,172.78884423749997,46.0,62.0
857,172.58538706874998,172.96836526875,55.0,74.0
858,172.90453556875,173.17714157916666,63.0,73.0
859,172.90453556875,173.259588275,58.0,79.0
860,173.22368406875,173.5454921395833,55.0,79.0
861,172.90453556875,173.64655583125,39.0,68.0
862,173.54283256875,173.8167683645833,58.0,74.0
863,173.54283256875,173.87128956666666,62.0,78.0
864,173.86198106874997,174.24229969791665,55.0,81.0
865,174.18112956875,174.52155463541663,63.0,74.0
866,174.18112956875,174.52554399166667,60.0,76.0
867,174.50027806875,174.68378845625,55.0,73.0
868,174.18112956875,174.76224579583334,48.0,78.0
869,174.81942656874998,175.1026708625,63.0,83.0
870,174.81942656874998,175.1970856270833,60.0,80.0
871,175.13857506875,175.5321915520833,55.0,78.0
872,175.45772356875,175.8287337,48.0,79.0
873,175.45772356875,175.8393719833333,60.0,79.0
874,175.77687206874998,176.14389284375,55.0,79.0
875,176.09602056875,176.26623310208333,46.0,77.0
876,176.09602056875,176.50825404791664,60.0,79.0
877,176.41516906875,176.56144546458333,55.0,71.0
878,176.09602056875,176.610647525,63.0,77.0
879,176.73431756875,177.09468941666665,60.0,73.0
880,176.73431756875,177.10665748541666,63.0,73.0
881,177.05346606874997,177.38059328125,56.0,68.0
882,177.37261456875,177.73963534375,60.0,79.0
883,176.73431756875,177.82474161041665,44.0,81.0
884,177.05346606874997,177.92447551666666,51.0,51.0
885,177.69176306875,178.0707519125,56.0,71.0
886,178.01091156874998,178.39787912499997,63.0,79.0
887,178.01091156874998,178.4164961208333,60.0,73.0
888,178.01091156874998,178.717027625,44.0,79.0
889,178.33006006875,178.78351689583332,51.0,70.0
890,178.64920856875,178.8114423895833,56.0,68.0
891,178.64920856875,178.82341045833334,60.0,73.0
892,178.64920856875,178.84867638125,63.0,74.0
893,178.96835706874998,179.06277183333333,44.0,73.0
894,179.28750556875,179.64388806041666,60.0,80.0
895,179.28750556875,179.6731433395833,63.0,80.0
896,179.60665406875,179.80080273958333,55.0,78.0
897,179.92580256875,180.09202574583333,63.0,77.0
898,179.92580256875,180.10000445833333,60.0,78.0
899,180.24495106874997,180.42846145624998,55.0,79.0
900,179.28750556875,180.83670557916668,48.0,90.0
901,180.56409956875,180.96303519375,60.0,81.0
902,180.56409956875,181.04814146041667,63.0,82.0
903,180.88324806875,181.08537545208333,55.0,79.0
904,181.20239656874998,181.25292841458332,55.0,67.0
905,181.20239656874998,181.71968309583332,60.0,85.0
906,181.20239656874998,181.74361923333333,63.0,83.0
907,181.52154506875,181.81675743124998,50.0,88.0
908,181.84069356875,182.33271417291667,63.0,79.0
909,182.15984206874998,182.41516086874998,55.0,73.0
910,182.47899056875,182.6531924583333,55.0,78.0
911,182.47899056875,182.76755400416664,63.0,61.0
912,182.47899056875,182.865958125,58.0,81.0
913,182.79813906875,182.97500052916666,55.0,68.0
914,182.47899056875,183.28484053124998,46.0,72.0
915,181.84069356875,183.40984036041664,39.0,83.0
916,183.11728756875,183.48297855833334,63.0,83.0
917,183.11728756875,183.58271246458332,58.0,84.0
918,183.43643606874997,183.63058473958333,55.0,72.0
919,183.75558456875,184.12260534375,58.0,72.0
920,183.75558456875,184.13723298333332,62.0,81.0
921,184.07473306875,184.26489238333332,55.0,79.0
922,184.39388156874998,184.75957255833333,63.0,74.0
923,184.39388156874998,184.7715406270833,60.0,71.0
924,184.71303006875,184.87127453333332,55.0,67.0
925,185.03217856875,185.14654011458333,55.0,69.0
926,185.03217856875,185.43643333541667,60.0,80.0
927,184.39388156874998,185.54813531041665,48.0,76.0
928,185.35132706874998,185.7143584875,55.0,79.0
929,185.67047556875,186.03616655833332,63.0,80.0
930,185.67047556875,186.04281548541667,60.0,80.0
931,185.98962406875,186.18111316875,55.0,79.0
932,186.30877256875,186.44441068125,55.0,80.0
933,185.67047556875,186.58669772083334,48.0,81.0
934,186.62792106874997,186.86994201458333,55.0,71.0
935,186.30877256875,186.97898441874997,62.0,81.0
936,186.94706956875,187.39653703958334,60.0,82.0
937,187.26621806875,187.71169618333332,51.0,70.0
938,186.94706956875,187.74760038958334,44.0,79.0
939,187.58536656874998,187.7648876,56.0,79.0
940,187.58536656874998,188.02286597083332,60.0,80.0
941,187.90451506875,188.1305785895833,51.0,64.0
942,188.22366356875,188.50158872083333,56.0,72.0
943,188.22366356875,188.60132262708333,63.0,75.0
944,188.22366356875,188.92180091249998,44.0,79.0
945,188.86196056875,188.97100297291666,56.0,79.0
946,188.54281206874998,189.01488589166667,51.0,73.0
947,188.86196056875,189.22366220208332,60.0,79.0
948,189.18110906875,189.39520452083332,56.0,78.0
949,189.50025756875,189.8978634083333,63.0,77.0
950,189.81940606874997,190.06674615625,55.0,72.0
951,190.13855456875,190.48030942083332,58.0,85.0
952,190.13855456875,190.52419233958332,63.0,85.0
953,190.45770306875,190.8473301958333,55.0,79.0
954,190.77685156874998,191.1545106270833,58.0,83.0
955,190.77685156874998,191.15849998333334,63.0,83.0
956,191.09600006875,191.31142530625,55.0,80.0
957,191.41514856875,191.47232934166664,55.0,72.0
958,189.50025756875,191.69573329166667,39.0,81.0
959,191.41514856875,191.7449353520833,58.0,90.0
960,189.81940606874997,191.7462651375,46.0,58.0
961,191.73429706874998,192.02286050416666,55.0,77.0
962,192.05344556875,192.49892368333332,58.0,80.0
963,192.05344556875,192.5348278895833,63.0,79.0
964,192.37259406875,192.57206188125,55.0,66.0
965,192.69174256875,193.04147613333333,58.0,84.0
966,192.05344556875,193.17977381666665,39.0,83.0
967,192.37259406875,193.24626308749998,46.0,69.0
968,193.01089106874997,193.3885501270833,55.0,77.0
969,193.33003956875,193.63987957083333,63.0,80.0
970,193.33003956875,193.69174120208334,58.0,81.0
971,193.64918806875,193.86594309166665,55.0,73.0
972,193.33003956875,194.06674068958333,39.0,81.0
973,193.96833656874998,194.31939991874998,58.0,84.0
974,193.96833656874998,194.37126154999999,62.0,81.0
975,194.28748506875,194.49626137916664,55.0,78.0
976,194.60663356875,194.9776437,60.0,79.0
977,194.60663356875,194.9962606958333,63.0,77.0
978,194.92578206874998,195.11727116875,55.0,73.0
979,195.24493056875,195.64652576458332,60.0,84.0
980,194.60663356875,195.759557525,48.0,81.0
981,195.56407906875,195.9377487708333,55.0,81.0
982,195.88322756875,196.2369504895833,60.0,82.0
983,195.88322756875,196.23961006041665,63.0,81.0
984,195.88322756875,196.365939675,48.0,80.0
985,196.20237606874997,196.56008834583332,55.0,82.0
986,196.52152456874998,196.82604542916664,46.0,82.0
987,196.52152456874998,196.87790706041665,58.0,71.0
988,196.52152456874998,197.03748131041664,62.0,80.0
989,196.84067306875,197.07737487291666,55.0,73.0
990,197.15982156874998,197.4935977083333,56.0,74.0
991,197.15982156874998,197.5654061208333,60.0,80.0
992,197.47897006875,197.91248011458333,51.0,67.0
993,197.79811856875,197.94040560833332,56.0,81.0
994,197.79811856875,198.03747994375,60.0,80.0
995,197.15982156874998,198.27152217708334,44.0,84.0
996,198.11726706874998,198.38987307916665,51.0,79.0
997,198.43641556875,198.74891514166666,63.0,76.0
998,198.43641556875,198.84598947708332,56.0,79.0
999,198.43641556875,199.16114862083333,44.0,85.0
1000,199.07471256875,199.19838261249998,56.0,80.0
1001,198.75556406875,199.19971239791664,51.0,76.0
1002,199.07471256875,199.21168046666665,60.0,79.0
1003,199.07471256875,199.23694638958332,63.0,80.0
1004,199.39386106874997,199.52019068333334,44.0,81.0
1005,199.71300956874998,200.09864733958332,63.0,79.0
1006,199.71300956874998,200.14917918541664,60.0,81.0
1007,200.03215806875,200.24226416458333,55.0,76.0
1008,200.35130656874998,200.62923172083333,63.0,81.0
1009,200.35130656874998,200.70502948958332,60.0,82.0
1010,199.71300956874998,200.86460373958332,48.0,78.0
1011,200.67045506875,201.0720502645833,55.0,79.0
1012,200.98960356875,201.3712519833333,63.0,81.0
1013,200.98960356875,201.37524133958334,60.0,81.0
1014,200.98960356875,201.43109232708332,48.0,80.0
1015,201.30875206874998,201.57337936666664,55.0,76.0
1016,201.62790056875,201.9776341333333,58.0,76.0
1017,201.62790056875,202.13986795416668,46.0,83.0
1018,202.26619756875,202.57470778541665,56.0,71.0
1019,202.26619756875,202.70236718541668,60.0,75.0
1020,202.58534606874997,203.01885611458334,51.0,65.0
1021,202.90449456874998,203.0427922520833,56.0,81.0
1022,202.90449456874998,203.2183239270833,60.0,80.0
1023,202.26619756875,203.32736633125,44.0,80.0
1024,203.22364306875,203.44837680416666,51.0,68.0
1025,203.54279156874998,203.91646127083334,56.0,68.0
1026,203.54279156874998,203.961673975,60.0,79.0
1027,203.54279156874998,204.31140753958334,44.0,84.0
1028,204.18108856875,204.33800324791667,56.0,90.0
1029,204.18108856875,204.35927981458332,60.0,81.0
1030,203.86194006875,204.37390745416667,51.0,73.0
1031,204.50023706874998,204.63055603958333,44.0,80.0
1032,204.81938556875,205.22895947708332,55.0,75.0
1033,204.81938556875,205.2409275458333,60.0,75.0
1034,205.13853406875,205.54411862083333,50.0,79.0
1035,204.81938556875,205.88321390208333,43.0,80.0
1036,205.45768256875,205.95901167083332,55.0,80.0
1037,205.77683106874997,206.05342643541667,50.0,82.0
1038,205.45768256875,206.11326677916665,60.0,81.0
1039,206.09597956874998,206.51220240416666,59.0,79.0
1040,206.09597956874998,206.56938317708332,55.0,78.0
1041,206.41512806875,207.3207119375,50.0,72.0
1042,206.09597956874998,207.33932893333332,43.0,80.0
1043,206.73427656874998,207.35129700208333,59.0,74.0
1044,207.05342506875,207.35661614375,55.0,73.0
1045,206.73427656874998,207.36592464166665,62.0,76.0
1046,207.37257356875,207.78214747708333,60.0,69.0
1047,207.37257356875,208.00555142708333,63.0,68.0
1048,207.69172206874998,208.06539177083332,55.0,77.0
1049,208.01087056875,208.34065735208333,60.0,71.0
1050,208.64916756875,209.0441138375,60.0,76.0
1051,208.64916756875,209.0826776145833,63.0,73.0
1052,209.28746456874998,209.41911332499998,55.0,77.0
1053,207.37257356875,209.4270920375,48.0,78.0
1054,209.28746456874998,209.52416637291665,60.0,79.0
1055,209.92576156874998,210.23294199999998,58.0,67.0
1056,209.92576156874998,210.31006955416666,62.0,77.0
1057,210.24491006875,210.45900552083333,53.0,68.0
1058,210.56405856875,210.9098027770833,58.0,66.0
1059,210.88320706874998,211.02948346458334,53.0,57.0
1060,211.20235556875,211.53480192291664,58.0,78.0
1061,211.20235556875,211.57070612916664,62.0,79.0
1062,211.52150406875,211.61591883333332,53.0,56.0
1063,211.84065256875,211.97762046666665,53.0,78.0
1064,209.92576156874998,212.11059900833334,46.0,83.0
1065,211.84065256875,212.15182235625,58.0,76.0
1066,212.15980106874997,212.33267317291666,53.0,64.0
1067,212.47894956874998,212.75953429166665,56.0,67.0
1068,212.47894956874998,212.78081085833333,60.0,74.0
1069,212.79809806875,213.21831026041667,51.0,64.0
1070,213.11724656874998,213.48559712916665,56.0,69.0
1071,213.43639506875,213.82070305416664,51.0,67.0
1072,212.47894956874998,213.86990511458333,44.0,80.0
1073,213.75554356875,214.21165996666667,56.0,77.0
1074,213.75554356875,214.2621918125,60.0,77.0
1075,214.07469206874998,214.4696383375,51.0,57.0
1076,214.39384056875,214.55474460416667,56.0,81.0
1077,215.03213756875,215.38984984583334,67.0,75.0
1078,215.03213756875,215.44836040416664,55.0,73.0
1079,215.35128606874997,215.80607268125,50.0,76.0
1080,215.67043456874998,215.9842639270833,55.0,77.0
1081,215.67043456874998,216.00155113749997,62.0,75.0
1082,215.03213756875,216.07335955,43.0,80.0
1083,215.98958306875,216.21032744791665,50.0,73.0
1084,216.30873156874998,216.69835869583332,59.0,75.0
1085,216.30873156874998,216.75686925416665,55.0,73.0
1086,216.94702856875,217.0653794708333,59.0,79.0
1087,216.94702856875,217.12654959999998,62.0,79.0
1088,216.62788006875,217.45766616875,50.0,65.0
1089,216.30873156874998,217.48160230624998,43.0,77.0
1090,217.26617706874998,217.89250599999997,55.0,73.0
1091,217.58532556875,218.08266531458332,67.0,72.0
1092,217.90447406875,218.34463304166667,50.0,58.0
1093,218.22362256875,218.68239853749998,62.0,70.0
1094,218.22362256875,218.77681330208333,55.0,67.0
1095,218.86191956874998,219.3113870395833,59.0,70.0
1096,219.18106806875,219.51617399375,55.0,53.0
1097,218.54277106874997,219.86723734375,50.0,62.0
1098,217.58532556875,219.94569468333333,43.0,75.0
1099,219.50021656874998,220.429736575,67.0,71.0
1100,219.81936506875,220.70234258541666,55.0,66.0
1101,220.13851356875,220.71431065416667,62.0,65.0
1102,220.77681056875,221.3393098,59.0,66.0
1103,221.09595906874998,221.4736181270833,55.0,57.0
1104,221.73425606875,222.0720215645833,55.0,48.0
1105,221.41510756875,222.12521298125,67.0,55.0
1106,222.05340456874998,222.48691461458333,62.0,47.0
1107,222.37255306875,222.71430792083333,55.0,57.0
1108,223.01085006875,223.3246794270833,55.0,61.0
1109,222.69170156874998,223.38186019999998,67.0,51.0
1110,223.32999856875,223.69170020208333,62.0,47.0
1111,223.64914706874998,223.94568921666666,55.0,54.0
1112,220.45766206874998,224.1079230375,50.0,61.0
1113,220.13851356875,224.14515702916665,43.0,65.0
1114,223.96829556875,224.29808235208333,67.0,45.0
1115,224.28744406874998,224.57467771875,55.0,34.0
1116,224.60659256875,224.7528689645833,62.0,26.0
1117,224.92574106875,225.02148561874998,55.0,65.0
