,start,end,pitch,velocity
0,32.471354166666664,32.70442708333333,71.0,108.0
1,32.783854166666664,32.932291666666664,69.0,63.0
2,33.096354166666664,34.47005208333333,71.0,95.0
3,34.658854166666664,34.815104166666664,69.0,70.0
4,34.971354166666664,35.11458333333333,71.0,93.0
5,35.283854166666664,35.42578125,69.0,67.0
6,35.596354166666664,37.06380208333333,67.0,86.0
7,37.471354166666664,37.76171875,64.0,85.0
8,37.783854166666664,38.14192708333333,67.0,71.0
9,38.096354166666664,38.7421875,69.0,74.0
10,38.721354166666664,39.14583333333333,71.0,111.0
11,39.346354166666664,39.615885416666664,69.0,86.0
12,39.658854166666664,39.81380208333333,67.0,83.0
13,39.971354166666664,40.19661458333333,64.0,73.0
14,40.283854166666664,40.463541666666664,67.0,76.0
15,40.596354166666664,41.18489583333333,62.0,76.0
16,42.471354166666664,42.7578125,71.0,100.0
17,42.783854166666664,42.98567708333333,69.0,73.0
18,43.096354166666664,44.444010416666664,71.0,98.0
19,44.658854166666664,44.815104166666664,69.0,79.0
20,44.971354166666664,45.115885416666664,71.0,93.0
21,45.283854166666664,45.424479166666664,69.0,75.0
22,45.596354166666664,47.174479166666664,67.0,81.0
23,47.471354166666664,47.748697916666664,64.0,86.0
24,47.783854166666664,48.170572916666664,67.0,69.0
25,48.096354166666664,48.70442708333333,69.0,67.0
26,48.721354166666664,49.20833333333333,71.0,98.0
27,49.346354166666664,49.651041666666664,69.0,76.0
28,49.658854166666664,49.83723958333333,67.0,90.0
29,49.971354166666664,50.162760416666664,64.0,69.0
30,50.283854166666664,50.51953125,67.0,68.0
31,50.596354166666664,51.69140625,69.0,74.0
32,52.471354166666664,52.70442708333333,71.0,108.0
33,52.783854166666664,52.932291666666664,69.0,63.0
34,53.096354166666664,54.47005208333333,71.0,95.0
35,54.658854166666664,54.815104166666664,69.0,70.0
36,54.971354166666664,55.11458333333333,71.0,93.0
37,55.283854166666664,55.42578125,69.0,67.0
38,55.596354166666664,57.06380208333333,67.0,86.0
39,57.471354166666664,57.76171875,64.0,85.0
40,57.783854166666664,58.09114583333333,67.0,71.0
41,58.096354166666664,58.7421875,69.0,74.0
42,58.721354166666664,59.14583333333333,71.0,111.0
43,59.346354166666664,59.615885416666664,69.0,86.0
44,59.658854166666664,59.81380208333333,67.0,83.0
45,59.971354166666664,60.19661458333333,64.0,73.0
46,60.283854166666664,60.463541666666664,67.0,76.0
47,60.596354166666664,61.18489583333333,62.0,76.0
48,62.471354166666664,62.7578125,71.0,100.0
49,62.783854166666664,62.98567708333333,74.0,73.0
50,63.096354166666664,64.44401041666666,74.0,98.0
51,64.65885416666666,64.74479166666666,74.0,127.0
52,64.97135416666666,65.08072916666666,76.0,127.0
53,65.28385416666666,65.36328125,74.0,122.0
54,65.59635416666666,65.69791666666666,71.0,122.0
55,65.75260416666666,65.86197916666666,69.0,90.0
56,65.90885416666666,66.96875,71.0,102.0
57,67.47135416666666,67.62109375,69.0,79.0
58,67.78385416666666,67.90494791666666,69.0,79.0
59,68.09635416666666,68.5625,69.0,100.0
60,68.72135416666666,69.10026041666666,71.0,100.0
61,69.34635416666666,69.6640625,69.0,104.0
62,69.65885416666666,69.98567708333333,67.0,79.0
63,69.97135416666666,70.34505208333333,64.0,74.0
64,70.28385416666666,70.47395833333333,67.0,85.0
65,70.90755208333333,73.3515625,67.0,98.0
66,74.65885416666666,74.79036458333333,74.0,76.0
67,74.97135416666666,75.10807291666666,74.0,83.0
68,75.28385416666666,75.4140625,76.0,83.0
69,75.59635416666666,75.77213541666666,79.0,112.0
70,75.90885416666666,76.01432291666666,78.0,111.0
71,76.22135416666666,76.37890625,78.0,98.0
72,76.53385416666666,76.66927083333333,76.0,86.0
73,76.84635416666666,77.15234375,71.0,74.0
74,77.47135416666666,77.60677083333333,69.0,80.0
75,77.9375,78.25390625,71.0,86.0
76,78.41145833333333,79.03125,71.0,86.0
77,79.65885416666666,79.77994791666666,71.0,87.0
78,79.97135416666666,80.1171875,71.0,81.0
79,80.28385416666666,80.41796875,74.0,76.0
80,80.59635416666666,81.1640625,76.0,108.0
81,81.22135416666666,81.85026041666666,76.0,87.0
82,82.15885416666666,82.37630208333333,64.0,67.0
83,82.47135416666666,82.77994791666666,71.0,90.0
84,82.78385416666666,84.72005208333333,69.0,75.0
85,84.97135416666666,85.14713541666666,71.0,87.0
86,85.28385416666666,85.40104166666666,74.0,85.0
87,85.59635416666666,85.73307291666666,74.0,98.0
88,85.90885416666666,86.02604166666666,71.0,98.0
89,86.22135416666666,87.06770833333333,74.0,108.0
90,87.15885416666666,87.64583333333333,79.0,108.0
91,87.78385416666666,88.01041666666666,78.0,95.0
92,88.09635416666666,88.2421875,76.0,79.0
93,88.40885416666666,88.69401041666666,78.0,81.0
94,88.72135416666666,89.63671875,71.0,93.0
95,89.65885416666666,89.765625,76.0,77.0
96,89.97135416666666,90.08333333333333,76.0,77.0
97,90.28385416666666,90.4140625,78.0,95.0
98,90.59635416666666,90.99348958333333,76.0,79.0
99,90.90885416666666,91.20182291666666,74.0,74.0
100,91.22135416666666,91.47916666666666,71.0,73.0
101,91.53385416666666,92.02994791666666,69.0,86.0
102,92.15885416666666,92.52213541666666,69.0,77.0
103,92.78385416666666,92.91927083333333,71.0,79.0
104,93.09635416666666,94.34635416666666,74.0,93.0
105,94.65885416666666,94.79036458333333,74.0,76.0
106,94.97135416666666,95.10807291666666,74.0,83.0
107,95.28385416666666,95.4140625,76.0,83.0
108,95.59635416666666,95.77213541666666,79.0,112.0
109,95.90885416666666,96.01432291666666,78.0,111.0
110,96.22135416666666,96.37890625,78.0,98.0
111,96.53385416666666,96.66927083333333,76.0,86.0
112,96.84635416666666,97.15234375,71.0,74.0
113,97.78385416666666,99.5,71.0,93.0
114,99.65885416666666,99.77994791666666,71.0,87.0
115,99.97135416666666,100.1171875,71.0,81.0
116,100.28385416666666,100.41796875,74.0,76.0
117,100.59635416666666,101.1640625,76.0,108.0
118,101.22135416666666,101.85026041666666,76.0,87.0
119,102.15885416666666,102.37630208333333,64.0,67.0
120,102.47135416666666,102.92447916666666,71.0,90.0
121,103.09635416666666,104.72005208333333,69.0,75.0
122,104.97135416666666,105.14713541666666,71.0,87.0
123,105.28385416666666,105.40104166666666,74.0,85.0
124,105.59635416666666,105.73307291666666,74.0,98.0
125,105.90885416666666,106.02604166666666,71.0,98.0
126,106.22135416666666,107.06770833333333,74.0,108.0
127,107.15885416666666,107.64583333333333,79.0,108.0
128,107.78385416666666,108.01041666666666,78.0,95.0
129,108.09635416666666,108.2421875,76.0,79.0
130,108.40885416666666,108.69401041666666,78.0,81.0
131,108.72135416666666,109.63671875,71.0,93.0
132,109.65885416666666,109.765625,76.0,77.0
133,109.97135416666666,110.08333333333333,76.0,77.0
134,110.28385416666666,110.4140625,78.0,95.0
135,110.59635416666666,110.99348958333333,76.0,79.0
136,110.90885416666666,111.20182291666666,74.0,74.0
137,111.22135416666666,111.47916666666666,71.0,73.0
138,111.53385416666666,112.02994791666666,69.0,86.0
139,112.15885416666666,112.48177083333333,62.0,75.0
140,112.78385416666666,112.89973958333333,64.0,74.0
141,113.09635416666666,115.69140625,67.0,87.0
142,137.47135416666666,137.70442708333331,71.0,108.0
143,137.78385416666666,137.93229166666666,69.0,63.0
144,138.09635416666666,139.47005208333331,71.0,95.0
145,139.65885416666666,139.81510416666666,69.0,70.0
146,139.97135416666666,140.11458333333331,71.0,93.0
147,140.28385416666666,140.42578125,69.0,67.0
148,140.59635416666666,142.06380208333331,67.0,86.0
149,142.47135416666666,142.76171875,64.0,85.0
150,142.78385416666666,143.14192708333331,67.0,71.0
151,143.09635416666666,143.7421875,69.0,74.0
152,143.72135416666666,144.14583333333331,71.0,111.0
153,144.34635416666666,144.61588541666666,69.0,86.0
154,144.65885416666666,144.81380208333331,67.0,83.0
155,144.97135416666666,145.19661458333331,64.0,73.0
156,145.28385416666666,145.46354166666666,67.0,76.0
157,145.59635416666666,146.18489583333331,62.0,76.0
158,147.47135416666666,147.7578125,71.0,100.0
159,147.78385416666666,147.98567708333331,69.0,73.0
160,148.09635416666666,149.44401041666666,71.0,98.0
161,149.65885416666666,149.81510416666666,69.0,79.0
162,149.97135416666666,150.11588541666666,71.0,93.0
163,150.28385416666666,150.42447916666666,69.0,75.0
164,150.59635416666666,152.17447916666666,67.0,81.0
165,152.47135416666666,152.74869791666666,64.0,86.0
166,152.78385416666666,153.17057291666666,67.0,69.0
167,153.09635416666666,153.70442708333331,69.0,67.0
168,153.72135416666666,154.20833333333331,71.0,98.0
169,154.34635416666666,154.65104166666666,69.0,76.0
170,154.65885416666666,154.83723958333331,67.0,90.0
171,154.97135416666666,155.16276041666666,64.0,69.0
172,155.28385416666666,155.51953125,67.0,68.0
173,155.59635416666666,156.69140625,69.0,74.0
174,157.47135416666666,157.70442708333331,71.0,108.0
175,157.78385416666666,157.93229166666666,69.0,63.0
176,158.09635416666666,159.47005208333331,71.0,95.0
177,159.65885416666666,159.81510416666666,69.0,70.0
178,159.97135416666666,160.11458333333331,71.0,93.0
179,160.28385416666666,160.42578125,69.0,67.0
180,160.59635416666666,162.06380208333331,67.0,86.0
181,162.47135416666666,162.76171875,64.0,85.0
182,162.78385416666666,163.14192708333331,67.0,71.0
183,163.09635416666666,163.7421875,69.0,74.0
184,163.72135416666666,164.14583333333331,71.0,111.0
185,164.34635416666666,164.61588541666666,69.0,86.0
186,164.65885416666666,164.81380208333331,67.0,83.0
187,164.97135416666666,165.19661458333331,64.0,73.0
188,165.28385416666666,165.46354166666666,67.0,76.0
189,165.59635416666666,166.18489583333331,62.0,76.0
190,167.47135416666666,167.58463541666666,71.0,127.0
191,167.78385416666666,167.86328125,74.0,100.0
192,168.09635416666666,168.25911458333331,74.0,127.0
193,169.65885416666666,169.75,74.0,117.0
194,169.97135416666666,170.13020833333331,76.0,117.0
195,170.28385416666666,170.36458333333331,74.0,102.0
196,170.59635416666666,170.68880208333331,71.0,117.0
197,170.75260416666666,170.89583333333331,69.0,89.0
198,170.90885416666666,171.79557291666666,71.0,100.0
199,172.47135416666666,172.62109375,69.0,79.0
200,172.78385416666666,172.90494791666666,69.0,79.0
201,173.09635416666666,173.5625,69.0,100.0
202,173.72135416666666,174.10026041666666,71.0,100.0
203,174.34635416666666,174.6640625,69.0,104.0
204,174.65885416666666,174.98567708333331,67.0,79.0
205,174.97135416666666,175.34505208333331,64.0,74.0
206,175.28385416666666,175.47395833333331,67.0,85.0
207,175.59635416666666,178.3515625,67.0,98.0
208,179.65885416666666,179.79036458333331,74.0,76.0
209,179.97135416666666,180.10807291666666,74.0,83.0
210,180.28385416666666,180.4140625,76.0,83.0
211,180.59635416666666,180.77213541666666,79.0,112.0
212,180.90885416666666,181.01432291666666,78.0,111.0
213,181.22135416666666,181.37890625,78.0,98.0
214,181.53385416666666,181.66927083333331,76.0,86.0
215,181.84635416666666,182.15234375,71.0,74.0
216,182.47135416666666,182.60677083333331,69.0,66.0
217,182.78385416666666,184.5,71.0,93.0
218,184.65885416666666,184.77994791666666,71.0,87.0
219,184.97135416666666,185.1171875,71.0,81.0
220,185.28385416666666,185.41796875,74.0,76.0
221,185.59635416666666,186.1640625,76.0,108.0
222,186.22135416666666,186.85026041666666,76.0,87.0
223,187.15885416666666,187.37630208333331,64.0,67.0
224,187.47135416666666,187.77994791666666,71.0,90.0
225,187.78385416666666,189.72005208333331,69.0,75.0
226,189.97135416666666,190.14713541666666,71.0,87.0
227,190.28385416666666,190.40104166666666,74.0,85.0
228,190.59635416666666,190.73307291666666,74.0,98.0
229,190.90885416666666,191.02604166666666,71.0,98.0
230,191.22135416666666,192.06770833333331,74.0,108.0
231,192.15885416666666,192.64583333333331,79.0,108.0
232,192.78385416666666,193.01041666666666,78.0,95.0
233,193.09635416666666,193.2421875,76.0,79.0
234,193.40885416666666,193.69401041666666,78.0,81.0
235,193.72135416666666,194.63671875,71.0,93.0
236,194.65885416666666,194.765625,76.0,77.0
237,194.97135416666666,195.08333333333331,76.0,77.0
238,195.28385416666666,195.4140625,78.0,95.0
239,195.59635416666666,195.99348958333331,76.0,79.0
240,195.90885416666666,196.20182291666666,74.0,74.0
241,196.22135416666666,196.47916666666666,71.0,73.0
242,196.53385416666666,197.02994791666666,69.0,86.0
243,197.15885416666666,197.52213541666666,69.0,77.0
244,197.78385416666666,197.91927083333331,71.0,79.0
245,198.09635416666666,199.34635416666666,74.0,93.0
246,199.65885416666666,199.79036458333331,74.0,76.0
247,199.97135416666666,200.10807291666666,74.0,83.0
248,200.28385416666666,200.4140625,76.0,83.0
249,200.59635416666666,200.77213541666666,79.0,112.0
250,200.90885416666666,201.01432291666666,78.0,111.0
251,201.22135416666666,201.37890625,78.0,98.0
252,201.53385416666666,201.66927083333331,76.0,86.0
253,201.84635416666666,202.15234375,71.0,74.0
254,202.47135416666666,202.60677083333331,69.0,66.0
255,202.78385416666666,204.5,71.0,93.0
256,204.65885416666666,204.77994791666666,71.0,87.0
257,204.97135416666666,205.1171875,71.0,81.0
258,205.28385416666666,205.41796875,74.0,76.0
259,205.59635416666666,206.1640625,76.0,108.0
260,206.22135416666666,206.85026041666666,76.0,87.0
261,207.15885416666666,207.37630208333331,64.0,67.0
262,207.47135416666666,207.92447916666666,71.0,90.0
263,208.09635416666666,209.72005208333331,69.0,75.0
264,209.97135416666666,210.14713541666666,71.0,87.0
265,210.28385416666666,210.40104166666666,74.0,85.0
266,210.59635416666666,210.73307291666666,74.0,98.0
267,210.90885416666666,211.02604166666666,71.0,98.0
268,211.22135416666666,212.06770833333331,74.0,108.0
269,212.15885416666666,212.64583333333331,79.0,108.0
270,212.78385416666666,213.01041666666666,78.0,95.0
271,213.09635416666666,213.2421875,76.0,79.0
272,213.40885416666666,213.69401041666666,78.0,81.0
273,213.72135416666666,214.63671875,71.0,93.0
274,214.65885416666666,214.765625,76.0,77.0
275,214.97135416666666,215.08333333333331,76.0,77.0
276,215.28385416666666,215.4140625,78.0,95.0
277,215.59635416666666,215.99348958333331,76.0,79.0
278,215.90885416666666,216.20182291666666,74.0,74.0
279,216.22135416666666,216.47916666666666,71.0,73.0
280,216.53385416666666,217.02994791666666,69.0,86.0
281,217.15885416666666,217.48177083333331,62.0,75.0
282,217.78385416666666,217.89973958333331,64.0,74.0
283,219.65885416666666,219.79036458333331,74.0,76.0
284,219.97135416666666,220.10807291666666,74.0,83.0
285,220.28385416666666,220.4140625,76.0,83.0
286,218.09635416666666,220.59635416666666,67.0,87.0
287,220.59635416666666,220.77213541666666,79.0,112.0
288,220.90885416666666,221.01432291666666,78.0,111.0
289,221.22135416666666,221.37890625,78.0,98.0
290,221.53385416666666,221.66927083333331,76.0,86.0
291,221.84635416666666,222.15234375,71.0,74.0
292,222.47135416666666,222.60677083333331,69.0,66.0
293,222.78385416666666,224.5,71.0,93.0
294,224.65885416666666,224.77994791666666,71.0,87.0
295,224.97135416666666,225.1171875,71.0,81.0
296,225.28385416666666,225.41796875,74.0,76.0
297,225.59635416666666,226.1640625,76.0,108.0
298,226.22135416666666,226.85026041666666,76.0,87.0
299,227.15885416666666,227.37630208333331,64.0,67.0
300,227.47135416666666,227.92447916666666,71.0,90.0
301,228.09635416666666,229.72005208333331,69.0,75.0
302,229.97135416666666,230.14713541666666,71.0,87.0
303,230.28385416666666,230.40104166666666,74.0,85.0
304,230.59635416666666,230.73307291666666,74.0,98.0
305,230.90885416666666,231.02604166666666,71.0,98.0
306,231.22135416666666,232.06770833333331,74.0,108.0
307,232.15885416666666,232.64583333333331,79.0,108.0
308,232.78385416666666,233.01041666666666,78.0,95.0
309,233.09635416666666,233.2421875,76.0,79.0
310,233.40885416666666,233.69401041666666,78.0,81.0
311,233.72135416666666,234.63671875,71.0,93.0
312,234.65885416666666,234.765625,76.0,77.0
313,234.97135416666666,235.08333333333331,76.0,77.0
314,235.28385416666666,235.4140625,78.0,95.0
315,235.59635416666666,235.99348958333331,76.0,79.0
316,235.90885416666666,236.20182291666666,74.0,74.0
317,236.22135416666666,236.47916666666666,71.0,73.0
318,236.53385416666666,237.02994791666666,69.0,86.0
319,237.15885416666666,237.48177083333331,62.0,75.0
320,237.78385416666666,237.89973958333331,64.0,74.0
321,239.97135416666666,240.16145833333331,71.0,95.0
322,240.28385416666666,240.40234375,74.0,83.0
323,238.09635416666666,240.59635416666666,67.0,87.0
324,240.59635416666666,240.78125,74.0,87.0
325,240.90885416666666,241.06901041666666,71.0,100.0
326,241.22135416666666,241.92838541666666,74.0,86.0
327,242.15885416666666,242.69270833333331,79.0,86.0
328,242.78385416666666,243.08984375,78.0,69.0
329,243.09635416666666,243.36067708333331,76.0,60.0
330,243.40885416666666,243.71614583333331,78.0,74.0
331,243.72135416666666,244.44010416666666,71.0,83.0
332,244.65885416666666,244.77734375,76.0,76.0
333,244.97135416666666,245.09895833333331,76.0,75.0
334,245.28385416666666,245.44921875,78.0,87.0
335,245.59635416666666,245.921875,76.0,72.0
336,245.90885416666666,246.125,74.0,77.0
337,246.22135416666666,246.55338541666666,71.0,98.0
338,246.53385416666666,248.18098958333331,69.0,63.0
339,248.56510416666666,249.6640625,62.0,73.0
340,249.97135416666666,250.3203125,64.0,72.0
341,250.59635416666666,252.14453125,67.0,62.0
