,start,end,pitch,velocity
0,0.4153645833333333,1.3294270833333333,86.0,70.0
1,0.4153645833333333,1.3424479166666665,79.0,74.0
2,1.5390625,2.735677083333333,83.0,69.0
3,1.5390625,2.755208333333333,79.0,64.0
4,3.1015625,3.9049479166666665,79.0,74.0
5,3.1015625,3.92578125,76.0,67.0
6,4.0390625,4.779947916666666,74.0,68.0
7,4.0390625,5.619791666666666,71.0,62.0
8,4.0390625,5.640625,67.0,52.0
9,9.358072916666666,9.514322916666666,50.0,54.0
10,5.6015625,9.572916666666666,69.0,67.0
11,5.6015625,9.600260416666666,62.0,51.0
12,5.6015625,9.6015625,66.0,51.0
13,9.514322916666666,9.604166666666666,38.0,54.0
14,5.6015625,9.60546875,57.0,62.0
15,5.6015625,9.6328125,54.0,60.0
16,9.670572916666666,9.826822916666666,50.0,55.0
17,9.826822916666666,9.983072916666666,38.0,57.0
18,9.983072916666666,10.139322916666666,50.0,57.0
19,10.298177083333332,10.408854166666666,50.0,57.0
20,10.447916666666666,10.59765625,38.0,57.0
21,11.2265625,11.92578125,55.0,58.0
22,11.221354166666666,11.9765625,67.0,75.0
23,11.221354166666666,11.99609375,62.0,76.0
24,11.221354166666666,11.998697916666666,59.0,69.0
25,12.158854166666666,12.46484375,55.0,58.0
26,10.9140625,12.630208333333332,50.0,69.0
27,12.471354166666666,12.899739583333332,67.0,81.0
28,12.471354166666666,12.903645833333332,62.0,79.0
29,12.471354166666666,12.91796875,59.0,73.0
30,10.6015625,13.1015625,43.0,77.0
31,13.721354166666666,14.463541666666666,64.0,73.0
32,13.721354166666666,14.471354166666666,55.0,71.0
33,13.721354166666666,14.485677083333332,59.0,74.0
34,13.721354166666666,14.505208333333332,52.0,59.0
35,13.408854166666666,14.96875,47.0,72.0
36,13.096354166666666,15.326822916666666,40.0,77.0
37,14.971354166666666,15.37890625,55.0,65.0
38,14.971354166666666,15.39453125,64.0,63.0
39,14.971354166666666,15.3984375,59.0,68.0
40,14.658854166666666,15.442708333333332,52.0,67.0
41,16.221354166666664,17.009114583333332,72.0,72.0
42,16.221354166666664,17.01953125,64.0,77.0
43,16.221354166666664,17.020833333333332,67.0,86.0
44,16.221354166666664,17.576822916666664,60.0,59.0
45,15.596354166666666,17.802083333333332,48.0,85.0
46,17.471354166666664,17.817708333333332,67.0,93.0
47,17.471354166666664,17.819010416666664,64.0,85.0
48,17.471354166666664,17.819010416666664,72.0,77.0
49,17.783854166666664,18.08984375,60.0,58.0
50,15.908854166666666,18.12109375,55.0,62.0
51,18.096354166666664,18.8046875,74.0,73.0
52,18.096354166666664,18.825520833333332,69.0,69.0
53,18.096354166666664,18.84765625,66.0,77.0
54,18.721354166666664,19.927083333333332,62.0,56.0
55,18.408854166666664,20.006510416666664,57.0,58.0
56,18.096354166666664,20.036458333333332,50.0,85.0
57,19.658854166666664,20.059895833333332,54.0,77.0
58,19.971354166666664,20.317708333333332,74.0,75.0
59,19.971354166666664,20.322916666666664,69.0,79.0
60,19.971354166666664,20.372395833333332,66.0,93.0
61,21.065104166666664,21.680989583333332,55.0,59.0
62,21.221354166666664,22.02734375,59.0,81.0
63,21.221354166666664,22.037760416666664,62.0,90.0
64,21.221354166666664,22.037760416666664,67.0,93.0
65,20.752604166666664,22.592447916666664,50.0,63.0
66,22.158854166666664,22.59375,55.0,59.0
67,22.471354166666664,22.765625,67.0,95.0
68,20.596354166666664,22.766927083333332,43.0,63.0
69,22.471354166666664,22.768229166666664,62.0,90.0
70,22.471354166666664,22.77734375,59.0,79.0
71,23.721354166666664,24.358072916666664,52.0,64.0
72,23.721354166666664,24.47265625,55.0,79.0
73,23.721354166666664,24.475260416666664,59.0,81.0
74,23.721354166666664,24.4765625,64.0,83.0
75,24.502604166666664,24.962239583333332,52.0,60.0
76,23.096354166666664,25.23046875,40.0,73.0
77,23.408854166666664,25.247395833333332,47.0,60.0
78,24.971354166666664,25.311197916666664,55.0,90.0
79,24.971354166666664,25.311197916666664,59.0,83.0
80,24.971354166666664,25.313802083333332,64.0,77.0
81,25.283854166666664,25.447916666666664,52.0,73.0
82,26.221354166666664,26.971354166666664,57.0,58.0
83,26.221354166666664,27.024739583333332,60.0,77.0
84,26.221354166666664,27.03125,69.0,85.0
85,26.221354166666664,27.0390625,64.0,90.0
86,27.471354166666664,27.91015625,69.0,77.0
87,27.471354166666664,27.921875,64.0,85.0
88,27.471354166666664,27.932291666666664,60.0,83.0
89,27.158854166666664,28.096354166666664,57.0,60.0
90,25.596354166666664,28.118489583333332,45.0,72.0
91,25.908854166666664,28.161458333333332,52.0,58.0
92,28.73046875,29.399739583333332,74.0,76.0
93,28.73046875,29.436197916666664,69.0,85.0
94,28.73046875,29.470052083333332,66.0,98.0
95,29.971354166666664,30.430989583333332,74.0,75.0
96,29.971354166666664,30.453125,69.0,77.0
97,29.971354166666664,30.493489583333332,66.0,90.0
98,28.721354166666664,30.529947916666664,62.0,58.0
99,28.096354166666664,30.895833333333332,50.0,83.0
100,30.596354166666664,30.899739583333332,74.0,67.0
101,30.596354166666664,30.903645833333332,62.0,74.0
102,30.596354166666664,30.916666666666664,69.0,85.0
103,28.408854166666664,30.936197916666664,57.0,59.0
104,30.596354166666664,30.940104166666664,66.0,87.0
105,29.658854166666664,30.967447916666664,54.0,74.0
106,34.033854166666664,34.86067708333333,59.0,71.0
107,33.721354166666664,35.0703125,57.0,59.0
108,33.408854166666664,35.248697916666664,50.0,71.0
109,33.096354166666664,35.26953125,43.0,72.0
110,36.221354166666664,36.861979166666664,54.0,58.0
111,36.533854166666664,37.30989583333333,55.0,74.0
112,35.596354166666664,37.54036458333333,40.0,75.0
113,35.908854166666664,37.5859375,47.0,66.0
114,38.721354166666664,39.453125,60.0,54.0
115,39.033854166666664,39.78645833333333,57.0,71.0
116,38.096354166666664,40.01692708333333,45.0,61.0
117,38.408854166666664,40.108072916666664,52.0,45.0
118,41.533854166666664,42.279947916666664,69.0,73.0
119,41.533854166666664,42.29817708333333,66.0,90.0
120,41.221354166666664,42.96484375,62.0,58.0
121,40.596354166666664,43.076822916666664,50.0,69.0
122,40.908854166666664,43.09505208333333,57.0,57.0
123,43.721354166666664,44.615885416666664,57.0,51.0
124,44.033854166666664,44.859375,59.0,64.0
125,43.408854166666664,45.334635416666664,50.0,53.0
126,43.096354166666664,45.43098958333333,43.0,47.0
127,46.221354166666664,47.08723958333333,54.0,61.0
128,46.533854166666664,47.32942708333333,55.0,65.0
129,45.596354166666664,47.77473958333333,40.0,76.0
130,45.908854166666664,47.8359375,47.0,63.0
131,48.721354166666664,49.24739583333333,57.0,53.0
132,49.033854166666664,49.7578125,64.0,75.0
133,49.033854166666664,49.764322916666664,69.0,70.0
134,49.033854166666664,49.768229166666664,60.0,72.0
135,48.096354166666664,50.272135416666664,45.0,72.0
136,48.408854166666664,50.291666666666664,52.0,50.0
137,51.221354166666664,51.826822916666664,62.0,60.0
138,51.533854166666664,52.299479166666664,69.0,74.0
139,52.002604166666664,52.311197916666664,62.0,61.0
140,51.533854166666664,52.33723958333333,66.0,76.0
141,50.908854166666664,52.47265625,57.0,60.0
142,50.596354166666664,52.565104166666664,50.0,74.0
143,52.471354166666664,52.60286458333333,69.0,74.0
144,52.471354166666664,52.64583333333333,66.0,93.0
145,53.721354166666664,54.20442708333333,55.0,60.0
146,54.033854166666664,54.783854166666664,62.0,86.0
147,54.033854166666664,54.79296875,59.0,77.0
148,54.658854166666664,55.084635416666664,55.0,66.0
149,53.096354166666664,55.21484375,43.0,75.0
150,53.408854166666664,55.2421875,50.0,61.0
151,54.971354166666664,55.3046875,67.0,90.0
152,54.971354166666664,55.33203125,62.0,87.0
153,54.971354166666664,55.346354166666664,59.0,79.0
154,56.221354166666664,56.733072916666664,52.0,63.0
155,56.533854166666664,57.315104166666664,59.0,81.0
156,56.533854166666664,57.319010416666664,55.0,75.0
157,57.158854166666664,57.578125,52.0,60.0
158,55.908854166666664,57.77864583333333,47.0,67.0
159,55.596354166666664,57.81640625,40.0,76.0
160,57.471354166666664,57.842447916666664,64.0,72.0
161,57.471354166666664,57.850260416666664,59.0,81.0
162,57.471354166666664,57.85677083333333,55.0,79.0
163,57.783854166666664,58.088541666666664,52.0,65.0
164,58.721354166666664,59.1640625,57.0,63.0
165,59.033854166666664,59.82161458333333,60.0,76.0
166,59.033854166666664,59.82552083333333,64.0,86.0
167,59.658854166666664,60.06380208333333,57.0,67.0
168,58.408854166666664,60.16796875,52.0,67.0
169,58.096354166666664,60.23046875,45.0,65.0
170,59.971354166666664,60.63020833333333,69.0,85.0
171,59.971354166666664,60.64192708333333,64.0,87.0
172,59.971354166666664,60.674479166666664,60.0,83.0
173,61.221354166666664,61.66145833333333,54.0,100.0
174,61.533854166666664,61.877604166666664,50.0,76.0
175,62.158854166666664,62.60286458333333,50.0,81.0
176,60.596354166666664,62.61458333333333,38.0,93.0
177,60.908854166666664,62.674479166666664,45.0,59.0
178,62.471354166666664,62.75390625,57.0,70.0
179,62.471354166666664,62.86328125,62.0,63.0
180,62.471354166666664,63.01953125,54.0,65.0
181,63.408854166666664,63.565104166666664,50.0,97.0
182,63.721354166666664,64.08854166666666,67.0,95.0
183,63.721354166666664,64.09505208333333,62.0,90.0
184,63.721354166666664,64.09635416666666,71.0,85.0
185,64.65885416666666,64.90885416666666,55.0,90.0
186,64.96223958333333,65.33072916666666,67.0,95.0
187,64.96223958333333,65.33723958333333,62.0,90.0
188,64.96223958333333,65.33854166666666,71.0,85.0
189,63.096354166666664,65.40364583333333,43.0,92.0
190,66.22135416666666,66.57552083333333,67.0,82.0
191,66.22135416666666,66.58463541666666,64.0,89.0
192,66.22135416666666,66.59375,59.0,92.0
193,66.53385416666666,66.98697916666666,52.0,95.0
194,67.15885416666666,67.37369791666666,52.0,95.0
195,65.59635416666666,67.5546875,40.0,82.0
196,67.47135416666666,67.96875,67.0,97.0
197,67.47135416666666,67.97005208333333,64.0,102.0
198,68.40885416666666,68.76953125,43.0,97.0
199,68.72135416666666,68.85807291666666,60.0,97.0
200,68.72135416666666,68.88020833333333,55.0,93.0
201,68.72135416666666,68.88802083333333,64.0,93.0
202,69.03385416666666,69.50130208333333,48.0,88.0
203,68.09635416666666,69.92317708333333,36.0,92.0
204,69.65885416666666,70.03255208333333,48.0,88.0
205,69.97135416666666,70.08463541666666,60.0,112.0
206,69.97135416666666,70.09765625,64.0,97.0
207,69.97135416666666,70.24609375,55.0,97.0
208,71.22135416666666,71.484375,62.0,100.0
209,71.22135416666666,71.48567708333333,71.0,100.0
210,71.22135416666666,71.49088541666666,67.0,100.0
211,71.22135416666666,71.984375,55.0,100.0
212,72.15885416666666,72.48697916666666,55.0,102.0
213,72.47135416666666,72.63151041666666,62.0,100.0
214,72.47135416666666,72.63932291666666,67.0,117.0
215,70.59635416666666,72.67057291666666,43.0,86.0
216,72.47135416666666,72.89453125,71.0,112.0
217,70.90885416666666,72.93619791666666,50.0,63.0
218,73.72135416666666,73.90234375,67.0,99.0
219,73.72135416666666,73.9140625,62.0,90.0
220,73.72135416666666,73.94010416666666,71.0,93.0
221,74.03385416666666,74.42447916666666,55.0,97.0
222,74.34635416666666,74.44140625,67.0,100.0
223,74.34635416666666,74.44270833333333,62.0,100.0
224,74.34635416666666,74.45833333333333,71.0,97.0
225,74.65885416666666,74.76432291666666,67.0,96.0
226,74.65885416666666,74.77734375,71.0,90.0
227,74.65885416666666,74.98828125,55.0,93.0
228,74.97135416666666,75.171875,67.0,95.0
229,74.97135416666666,75.20182291666666,71.0,93.0
230,74.97135416666666,75.20442708333333,62.0,95.0
231,75.28385416666666,75.43098958333333,71.0,99.0
232,75.28385416666666,75.4375,67.0,99.0
233,73.09635416666666,75.45442708333333,43.0,81.0
234,73.40885416666666,75.54557291666666,50.0,34.0
235,76.22135416666666,76.33203125,67.0,96.0
236,76.22135416666666,76.34114583333333,62.0,97.0
237,76.22135416666666,76.35677083333333,71.0,88.0
238,76.53385416666666,77.01432291666666,55.0,71.0
239,77.15885416666666,77.37369791666666,55.0,88.0
240,75.59635416666666,77.51822916666666,43.0,74.0
241,77.47135416666666,77.62369791666666,62.0,97.0
242,77.47135416666666,77.71744791666666,67.0,102.0
243,77.47135416666666,77.72395833333333,71.0,99.0
244,77.78385416666666,77.859375,62.0,75.0
245,78.72135416666666,79.04557291666666,59.0,93.0
246,78.72135416666666,79.06770833333333,64.0,95.0
247,78.72135416666666,79.11848958333333,67.0,83.0
248,79.03385416666666,79.28645833333333,52.0,97.0
249,78.09635416666666,80.07942708333333,40.0,83.0
250,79.97135416666666,80.1328125,59.0,97.0
251,79.65885416666666,80.21744791666666,52.0,102.0
252,79.97135416666666,80.31770833333333,64.0,112.0
253,79.97135416666666,80.31770833333333,67.0,112.0
254,81.22135416666666,81.50911458333333,72.0,81.0
255,81.22135416666666,81.51432291666666,69.0,88.0
256,81.22135416666666,81.53385416666666,64.0,86.0
257,81.53385416666666,81.99348958333333,57.0,102.0
258,82.15885416666666,82.4296875,57.0,122.0
259,80.90885416666666,82.48177083333333,52.0,72.0
260,80.59635416666666,82.55859375,45.0,82.0
261,82.47135416666666,82.6875,69.0,127.0
262,82.47135416666666,82.69921875,72.0,107.0
263,82.47135416666666,82.875,64.0,76.0
264,83.72135416666666,84.22786458333333,62.0,98.0
265,83.72135416666666,84.23828125,66.0,98.0
266,83.72135416666666,84.24609375,57.0,98.0
267,84.03385416666666,84.48958333333333,50.0,89.0
268,83.09635416666666,84.93359375,38.0,88.0
269,83.40885416666666,84.953125,45.0,51.0
270,84.65885416666666,85.09635416666666,50.0,99.0
271,84.97135416666666,85.30859375,62.0,117.0
272,84.97135416666666,85.32682291666666,66.0,127.0
273,84.97135416666666,85.32942708333333,57.0,96.0
274,86.22135416666666,86.6875,67.0,86.0
275,86.22135416666666,86.6875,71.0,83.0
276,86.22135416666666,86.73697916666666,62.0,86.0
277,86.53385416666666,86.9765625,55.0,92.0
278,87.15885416666666,87.46354166666666,55.0,97.0
279,85.90885416666666,87.49609375,50.0,73.0
280,85.59635416666666,87.61979166666666,43.0,66.0
281,87.47135416666666,87.66927083333333,62.0,102.0
282,87.47135416666666,87.97526041666666,71.0,117.0
283,87.47135416666666,87.98307291666666,67.0,122.0
284,88.72135416666666,89.22526041666666,64.0,89.0
285,88.72135416666666,89.23567708333333,67.0,81.0
286,88.72135416666666,89.26302083333333,59.0,86.0
287,89.03385416666666,89.52734375,52.0,86.0
288,89.65885416666666,90.11328125,52.0,93.0
289,88.09635416666666,90.13802083333333,40.0,90.0
290,88.40885416666666,90.16276041666666,47.0,65.0
291,89.97135416666666,90.33984375,67.0,97.0
292,89.97135416666666,90.34114583333333,64.0,102.0
293,89.97135416666666,90.453125,59.0,82.0
294,90.90885416666666,91.32682291666666,52.0,88.0
295,91.22135416666666,91.73177083333333,60.0,93.0
296,91.22135416666666,91.77734375,64.0,92.0
297,91.22135416666666,91.796875,57.0,92.0
298,91.53385416666666,91.98567708333333,52.0,62.0
299,91.84635416666666,92.22265625,57.0,78.0
300,92.15885416666666,92.5234375,52.0,100.0
301,90.59635416666666,92.53385416666666,45.0,95.0
302,92.47135416666666,92.8046875,64.0,107.0
303,92.47135416666666,92.82421875,60.0,127.0
304,92.78385416666666,93.06640625,57.0,90.0
305,93.72135416666666,94.57942708333333,57.0,89.0
306,93.72135416666666,94.61458333333333,62.0,89.0
307,93.72135416666666,94.62109375,66.0,102.0
308,94.65885416666666,95.09635416666666,57.0,102.0
309,94.97135416666666,95.67317708333333,62.0,127.0
310,95.28385416666666,95.68229166666666,57.0,100.0
311,93.40885416666666,95.6953125,45.0,33.0
312,94.97135416666666,95.69791666666666,66.0,127.0
313,93.09635416666666,95.71614583333333,38.0,89.0
314,94.03385416666666,95.72135416666666,50.0,95.0
315,96.22135416666666,97.29817708333333,67.0,102.0
316,96.22135416666666,97.31119791666666,71.0,107.0
317,96.53385416666666,97.36588541666666,62.0,95.0
318,97.15885416666666,97.47786458333333,55.0,102.0
319,95.90885416666666,97.51041666666666,50.0,67.0
320,95.59635416666666,97.51822916666666,43.0,93.0
321,97.78385416666666,97.94921875,62.0,86.0
322,97.47135416666666,97.953125,67.0,122.0
323,97.47135416666666,97.96614583333333,71.0,99.0
324,99.03385416666666,99.48697916666666,52.0,81.0
325,98.72135416666666,99.5234375,64.0,93.0
326,98.72135416666666,99.53255208333333,67.0,93.0
327,98.72135416666666,99.53255208333333,71.0,88.0
328,98.09635416666666,99.96354166666666,40.0,81.0
329,99.65885416666666,100.09114583333333,52.0,90.0
330,99.97135416666666,100.10416666666666,67.0,100.0
331,99.97135416666666,100.11588541666666,71.0,102.0
332,99.97135416666666,100.12760416666666,64.0,97.0
333,100.90885416666666,101.56640625,52.0,95.0
334,101.22135416666666,102.03125,60.0,99.0
335,101.22135416666666,102.03515625,57.0,92.0
336,101.22135416666666,102.03515625,64.0,88.0
337,102.15885416666666,102.50130208333333,52.0,86.0
338,100.59635416666666,102.52213541666666,45.0,90.0
339,102.47135416666666,102.6953125,57.0,77.0
340,102.47135416666666,102.75390625,64.0,100.0
341,102.47135416666666,102.8515625,60.0,112.0
342,103.72135416666666,104.50260416666666,62.0,99.0
343,103.72135416666666,104.50260416666666,66.0,117.0
344,103.72135416666666,104.51041666666666,57.0,99.0
345,103.09635416666666,104.71484375,38.0,92.0
346,104.03385416666666,104.76822916666666,50.0,93.0
347,104.65885416666666,104.76822916666666,50.0,81.0
348,104.81510416666666,104.97135416666666,38.0,97.0
349,103.40885416666666,104.98177083333333,45.0,55.0
350,104.97135416666666,105.0390625,66.0,117.0
351,104.97135416666666,105.0625,62.0,107.0
352,104.97135416666666,105.12760416666666,57.0,97.0
353,105.28385416666666,105.44010416666666,38.0,97.0
354,106.22135416666666,106.97916666666666,55.0,96.0
355,106.22135416666666,106.99739583333333,62.0,97.0
356,106.22135416666666,107.01171875,67.0,100.0
357,106.22135416666666,107.01171875,71.0,96.0
358,107.15885416666666,107.515625,55.0,107.0
359,105.90885416666666,107.53776041666666,50.0,65.0
360,105.59635416666666,107.57552083333333,43.0,90.0
361,107.47135416666666,107.63020833333333,62.0,83.0
362,107.47135416666666,107.796875,67.0,127.0
363,107.47135416666666,107.8515625,71.0,127.0
364,108.72135416666666,109.39583333333333,52.0,97.0
365,108.72135416666666,109.42057291666666,67.0,74.0
366,108.72135416666666,109.42057291666666,71.0,70.0
367,108.72135416666666,109.42317708333333,64.0,83.0
368,109.65885416666666,110.13151041666666,52.0,96.0
369,108.09635416666666,110.15625,40.0,92.0
370,108.40885416666666,110.19140625,47.0,48.0
371,109.97135416666666,110.2265625,64.0,99.0
372,109.97135416666666,110.50260416666666,71.0,112.0
373,109.97135416666666,110.50651041666666,67.0,117.0
374,110.90885416666666,111.23567708333333,52.0,100.0
375,110.59635416666666,111.26432291666666,45.0,96.0
376,110.59635416666666,111.30989583333333,60.0,96.0
377,110.59635416666666,111.58463541666666,64.0,97.0
378,111.53385416666666,111.74739583333333,60.0,95.0
379,111.22135416666666,111.765625,57.0,117.0
380,111.84635416666666,112.32291666666666,62.0,96.0
381,111.84635416666666,112.33984375,57.0,88.0
382,111.84635416666666,112.33984375,66.0,95.0
383,112.47135416666666,113.03776041666666,62.0,107.0
384,112.78385416666666,113.04296875,57.0,90.0
385,111.84635416666666,113.04427083333333,38.0,85.0
386,112.47135416666666,113.05208333333333,66.0,122.0
387,112.47135416666666,113.06901041666666,50.0,95.0
388,112.15885416666666,113.07421875,45.0,92.0
389,113.72135416666666,113.85807291666666,62.0,90.0
390,113.72135416666666,113.86328125,59.0,90.0
391,113.72135416666666,113.87369791666666,67.0,90.0
392,114.03385416666666,114.50260416666666,55.0,95.0
393,114.34635416666666,114.50260416666666,59.0,97.0
394,114.34635416666666,114.50260416666666,62.0,97.0
395,114.65885416666666,114.97135416666666,55.0,97.0
396,113.09635416666666,115.40104166666666,43.0,79.0
397,113.40885416666666,115.42057291666666,50.0,82.0
398,114.97135416666666,115.43619791666666,67.0,99.0
399,114.97135416666666,115.44661458333333,59.0,99.0
400,114.97135416666666,115.46223958333333,62.0,99.0
401,116.53385416666666,116.92057291666666,55.0,58.0
402,116.22135416666666,116.9765625,67.0,75.0
403,116.22135416666666,116.99609375,62.0,76.0
404,116.22135416666666,116.99869791666666,59.0,69.0
405,117.15885416666666,117.46484375,55.0,58.0
406,115.90885416666666,117.625,50.0,69.0
407,117.47135416666666,117.89973958333333,67.0,81.0
408,117.47135416666666,117.90364583333333,62.0,79.0
409,117.47135416666666,117.91796875,59.0,73.0
410,115.59635416666666,118.09635416666666,43.0,65.0
411,118.72135416666666,119.46354166666666,64.0,73.0
412,118.72135416666666,119.47135416666666,55.0,71.0
413,118.72135416666666,119.48567708333333,59.0,74.0
414,119.03385416666666,119.50520833333333,52.0,59.0
415,118.40885416666666,119.96875,47.0,72.0
416,118.09635416666666,120.32682291666666,40.0,77.0
417,119.97135416666666,120.37890625,55.0,65.0
418,119.97135416666666,120.39453125,64.0,63.0
419,119.97135416666666,120.3984375,59.0,68.0
420,119.65885416666666,120.44270833333333,52.0,67.0
421,121.22135416666666,122.32161458333333,72.0,72.0
422,121.22135416666666,122.33203125,64.0,77.0
423,121.22135416666666,122.33333333333333,67.0,86.0
424,121.53385416666666,122.57682291666666,60.0,59.0
425,120.59635416666666,122.80208333333333,48.0,85.0
426,122.47135416666666,122.81770833333333,67.0,93.0
427,122.47135416666666,122.81901041666666,64.0,85.0
428,122.47135416666666,122.81901041666666,72.0,77.0
429,122.78385416666666,123.08984375,60.0,58.0
430,120.90885416666666,123.12109375,55.0,62.0
431,123.72135416666666,124.4296875,74.0,73.0
432,123.72135416666666,124.45052083333333,69.0,69.0
433,123.72135416666666,124.47265625,66.0,77.0
434,124.03385416666666,124.92708333333333,62.0,56.0
435,123.40885416666666,125.00651041666666,57.0,58.0
436,123.09635416666666,125.03645833333333,50.0,85.0
437,124.65885416666666,125.05989583333333,54.0,77.0
438,124.97135416666666,125.31770833333333,74.0,75.0
439,124.97135416666666,125.32291666666666,69.0,79.0
440,124.97135416666666,125.37239583333333,66.0,93.0
441,126.22135416666666,127.02734375,59.0,81.0
442,126.22135416666666,127.03776041666666,62.0,90.0
443,126.22135416666666,127.03776041666666,67.0,93.0
444,126.53385416666666,127.14973958333333,55.0,59.0
445,125.90885416666666,127.59244791666666,50.0,63.0
446,127.15885416666666,127.59375,55.0,59.0
447,127.47135416666666,127.765625,67.0,95.0
448,125.59635416666666,127.76692708333333,43.0,63.0
449,127.47135416666666,127.76822916666666,62.0,90.0
450,127.47135416666666,127.77734375,59.0,79.0
451,129.03385416666666,129.35807291666666,52.0,64.0
452,128.72135416666666,129.47265625,55.0,79.0
453,128.72135416666666,129.47526041666666,59.0,81.0
454,128.72135416666666,129.4765625,64.0,83.0
455,129.65885416666666,129.96223958333331,52.0,60.0
456,128.09635416666666,130.23046875,40.0,73.0
457,128.40885416666666,130.24739583333331,47.0,60.0
458,129.97135416666666,130.31119791666666,55.0,90.0
459,129.97135416666666,130.31119791666666,59.0,83.0
460,129.97135416666666,130.31380208333331,64.0,77.0
461,130.28385416666666,130.44791666666666,52.0,73.0
462,131.53385416666666,131.97135416666666,57.0,58.0
463,131.22135416666666,132.02473958333331,60.0,77.0
464,131.22135416666666,132.03125,69.0,85.0
465,131.22135416666666,132.0390625,64.0,90.0
466,132.47135416666666,132.91015625,69.0,77.0
467,132.47135416666666,132.921875,64.0,85.0
468,132.47135416666666,132.93229166666666,60.0,83.0
469,132.15885416666666,133.09635416666666,57.0,60.0
470,130.59635416666666,133.11848958333331,45.0,72.0
471,130.90885416666666,133.16145833333331,52.0,58.0
472,133.72135416666666,134.390625,74.0,76.0
473,133.72135416666666,134.42708333333331,69.0,85.0
474,133.72135416666666,134.4609375,66.0,98.0
475,134.97135416666666,135.43098958333331,74.0,75.0
476,134.97135416666666,135.453125,69.0,77.0
477,134.97135416666666,135.49348958333331,66.0,90.0
478,134.03385416666666,135.52994791666666,62.0,58.0
479,133.09635416666666,135.89583333333331,50.0,83.0
480,135.59635416666666,135.89973958333331,74.0,67.0
481,135.59635416666666,135.90364583333331,62.0,74.0
482,135.59635416666666,135.91666666666666,69.0,85.0
483,133.40885416666666,135.93619791666666,57.0,59.0
484,135.59635416666666,135.94010416666666,66.0,87.0
485,134.65885416666666,135.96744791666666,54.0,74.0
486,138.09635416666666,138.67838541666666,59.0,66.0
487,138.09635416666666,138.69791666666666,62.0,73.0
488,138.09635416666666,138.85677083333331,67.0,73.0
489,138.72135416666666,139.86067708333331,59.0,71.0
490,139.03385416666666,139.86848958333331,67.0,83.0
491,138.72135416666666,139.87630208333331,62.0,77.0
492,138.72135416666666,140.0703125,55.0,59.0
493,138.40885416666666,140.24869791666666,50.0,71.0
494,139.97135416666666,140.24869791666666,67.0,76.0
495,139.97135416666666,140.26041666666666,62.0,75.0
496,138.09635416666666,140.26953125,43.0,72.0
497,139.97135416666666,140.27473958333331,59.0,70.0
498,140.59635416666666,141.28515625,64.0,71.0
499,140.59635416666666,141.33203125,55.0,66.0
500,140.59635416666666,141.37109375,59.0,68.0
501,141.06510416666666,141.83984375,52.0,58.0
502,141.53385416666666,142.30989583333331,55.0,74.0
503,141.53385416666666,142.31510416666666,59.0,74.0
504,140.59635416666666,142.54036458333331,40.0,75.0
505,140.90885416666666,142.5859375,47.0,66.0
506,142.47135416666666,142.73046875,55.0,74.0
507,142.47135416666666,142.74088541666666,64.0,72.0
508,142.47135416666666,142.75130208333331,59.0,75.0
509,142.15885416666666,142.78125,52.0,60.0
510,143.09635416666666,143.79947916666666,69.0,64.0
511,143.09635416666666,143.80598958333331,60.0,62.0
512,143.09635416666666,143.80598958333331,64.0,63.0
513,143.72135416666666,144.453125,57.0,54.0
514,144.03385416666666,144.78255208333331,69.0,75.0
515,144.03385416666666,144.78645833333331,60.0,71.0
516,144.03385416666666,144.7890625,64.0,77.0
517,143.09635416666666,145.01692708333331,45.0,61.0
518,143.40885416666666,145.10807291666666,52.0,45.0
519,144.97135416666666,145.21744791666666,60.0,79.0
520,144.97135416666666,145.21875,64.0,86.0
521,144.97135416666666,145.22395833333331,69.0,77.0
522,144.65885416666666,145.50911458333331,57.0,58.0
523,145.59635416666666,146.31901041666666,66.0,74.0
524,146.53385416666666,147.27994791666666,69.0,73.0
525,146.53385416666666,147.29817708333331,66.0,90.0
526,146.06510416666666,147.94140625,62.0,58.0
527,147.47135416666666,147.96614583333331,69.0,76.0
528,147.47135416666666,148.01692708333331,66.0,98.0
529,147.15885416666666,148.05338541666666,54.0,65.0
530,145.59635416666666,148.07682291666666,50.0,69.0
531,145.90885416666666,148.09505208333331,57.0,57.0
532,148.09635416666666,148.82161458333331,67.0,79.0
533,148.09635416666666,148.82421875,59.0,68.0
534,148.09635416666666,148.83333333333331,62.0,81.0
535,148.72135416666666,149.61588541666666,55.0,51.0
536,149.03385416666666,149.85286458333331,62.0,68.0
537,149.03385416666666,149.85286458333331,67.0,75.0
538,149.03385416666666,149.859375,59.0,64.0
539,149.65885416666666,150.04947916666666,55.0,71.0
540,148.40885416666666,150.33463541666666,50.0,53.0
541,149.97135416666666,150.37890625,67.0,93.0
542,149.97135416666666,150.38671875,62.0,86.0
543,149.97135416666666,150.40625,59.0,75.0
544,148.09635416666666,150.43098958333331,43.0,47.0
545,150.59635416666666,151.29166666666666,64.0,62.0
546,150.59635416666666,151.30078125,59.0,70.0
547,150.59635416666666,151.32291666666666,55.0,65.0
548,151.06510416666666,151.93098958333331,52.0,61.0
549,151.53385416666666,152.29817708333331,64.0,60.0
550,151.53385416666666,152.31640625,59.0,67.0
551,151.53385416666666,152.32942708333331,55.0,65.0
552,152.15885416666666,152.59895833333331,52.0,60.0
553,150.59635416666666,152.77473958333331,40.0,76.0
554,152.47135416666666,152.81640625,64.0,67.0
555,152.47135416666666,152.82421875,59.0,74.0
556,150.90885416666666,152.8359375,47.0,63.0
557,152.47135416666666,152.84244791666666,55.0,74.0
558,152.78385416666666,153.0703125,52.0,55.0
559,153.09635416666666,153.84375,69.0,67.0
560,153.09635416666666,153.84505208333331,64.0,81.0
561,153.09635416666666,153.84635416666666,60.0,71.0
562,153.72135416666666,154.24739583333331,57.0,53.0
563,154.03385416666666,154.7578125,64.0,75.0
564,154.03385416666666,154.76432291666666,69.0,70.0
565,154.03385416666666,154.76822916666666,60.0,72.0
566,154.65885416666666,155.02604166666666,57.0,58.0
567,153.09635416666666,155.27213541666666,45.0,72.0
568,153.40885416666666,155.29166666666666,52.0,50.0
569,154.97135416666666,155.29947916666666,64.0,71.0
570,154.97135416666666,155.31640625,60.0,73.0
571,154.97135416666666,155.31901041666666,69.0,64.0
572,155.28385416666666,155.60026041666666,57.0,61.0
573,155.59635416666666,156.30078125,69.0,83.0
574,155.59635416666666,156.32552083333331,66.0,81.0
575,156.22135416666666,156.82682291666666,62.0,60.0
576,156.53385416666666,157.29947916666666,69.0,74.0
577,157.00260416666666,157.31119791666666,62.0,61.0
578,156.53385416666666,157.33723958333331,66.0,76.0
579,155.90885416666666,157.47265625,57.0,60.0
580,155.59635416666666,157.56510416666666,50.0,74.0
581,157.47135416666666,157.60286458333331,69.0,74.0
582,157.47135416666666,157.64583333333331,66.0,93.0
583,158.09635416666666,158.83203125,59.0,73.0
584,158.09635416666666,158.84244791666666,62.0,79.0
585,158.09635416666666,158.84244791666666,67.0,85.0
586,158.72135416666666,159.20442708333331,55.0,60.0
587,159.03385416666666,159.77734375,67.0,90.0
588,159.03385416666666,159.78385416666666,62.0,86.0
589,159.03385416666666,159.79296875,59.0,77.0
590,159.65885416666666,160.08463541666666,55.0,66.0
591,158.09635416666666,160.21484375,43.0,75.0
592,158.40885416666666,160.2421875,50.0,61.0
593,159.97135416666666,160.3046875,67.0,90.0
594,159.97135416666666,160.33203125,62.0,87.0
595,159.97135416666666,160.34635416666666,59.0,79.0
596,160.59635416666666,161.33333333333331,64.0,63.0
597,160.59635416666666,161.36197916666666,59.0,70.0
598,160.59635416666666,161.36458333333331,55.0,72.0
599,161.22135416666666,161.73307291666666,52.0,63.0
600,161.53385416666666,162.29427083333331,64.0,77.0
601,161.53385416666666,162.31510416666666,59.0,81.0
602,161.53385416666666,162.31901041666666,55.0,75.0
603,162.15885416666666,162.578125,52.0,60.0
604,160.90885416666666,162.77864583333331,47.0,67.0
605,160.59635416666666,162.81640625,40.0,76.0
606,162.47135416666666,162.84244791666666,64.0,72.0
607,162.47135416666666,162.85026041666666,59.0,81.0
608,162.47135416666666,162.85677083333331,55.0,79.0
609,162.78385416666666,163.08854166666666,52.0,65.0
610,163.09635416666666,163.765625,60.0,64.0
611,163.09635416666666,163.78385416666666,64.0,62.0
612,163.72135416666666,164.1640625,57.0,63.0
613,164.03385416666666,164.80989583333331,69.0,77.0
614,164.03385416666666,164.82161458333331,60.0,76.0
615,164.03385416666666,164.82552083333331,64.0,86.0
616,164.65885416666666,165.06380208333331,57.0,67.0
617,163.40885416666666,165.16796875,52.0,67.0
618,163.09635416666666,165.23046875,45.0,65.0
619,164.97135416666666,165.63020833333331,69.0,85.0
620,164.97135416666666,165.64192708333331,64.0,87.0
621,164.97135416666666,165.67447916666666,60.0,83.0
622,166.22135416666666,166.66145833333331,54.0,100.0
623,166.53385416666666,167.25390625,50.0,76.0
624,167.15885416666666,167.55078125,57.0,63.0
625,167.15885416666666,167.60286458333331,54.0,81.0
626,165.59635416666666,167.61458333333331,38.0,93.0
627,165.90885416666666,167.67447916666666,45.0,59.0
628,168.40885416666666,168.56510416666666,50.0,97.0
629,168.72135416666666,169.08854166666666,67.0,95.0
630,168.72135416666666,169.09505208333331,62.0,90.0
631,168.72135416666666,169.09635416666666,71.0,85.0
632,169.65885416666666,169.90885416666666,55.0,90.0
633,169.96223958333331,170.33072916666666,67.0,95.0
634,169.96223958333331,170.33723958333331,62.0,90.0
635,169.96223958333331,170.33854166666666,71.0,85.0
636,168.09635416666666,170.40364583333331,43.0,92.0
637,171.22135416666666,171.57552083333331,67.0,82.0
638,171.22135416666666,171.58463541666666,64.0,89.0
639,171.22135416666666,171.59375,59.0,92.0
640,171.53385416666666,171.98697916666666,52.0,95.0
641,172.15885416666666,172.37369791666666,52.0,95.0
642,170.59635416666666,172.5546875,40.0,82.0
643,172.47135416666666,172.96875,67.0,97.0
644,172.47135416666666,172.97005208333331,64.0,102.0
645,173.40885416666666,173.76953125,43.0,97.0
646,173.72135416666666,173.85807291666666,60.0,97.0
647,173.72135416666666,173.88020833333331,55.0,93.0
648,173.72135416666666,173.88802083333331,64.0,93.0
649,174.03385416666666,174.50130208333331,48.0,88.0
650,173.09635416666666,174.92317708333331,36.0,92.0
651,174.65885416666666,175.03255208333331,48.0,88.0
652,174.97135416666666,175.08463541666666,60.0,112.0
653,174.97135416666666,175.09765625,64.0,97.0
654,174.97135416666666,175.24609375,55.0,97.0
655,176.22135416666666,176.484375,62.0,100.0
656,176.22135416666666,176.48567708333331,71.0,100.0
657,176.22135416666666,176.49088541666666,67.0,100.0
658,176.22135416666666,176.984375,55.0,100.0
659,177.15885416666666,177.48697916666666,55.0,102.0
660,177.47135416666666,177.63151041666666,62.0,100.0
661,177.47135416666666,177.63932291666666,67.0,117.0
662,175.59635416666666,177.67057291666666,43.0,86.0
663,177.47135416666666,177.89453125,71.0,112.0
664,175.90885416666666,177.93619791666666,50.0,63.0
665,178.72135416666666,178.90234375,67.0,99.0
666,178.72135416666666,178.9140625,62.0,90.0
667,178.72135416666666,178.94010416666666,71.0,93.0
668,179.03385416666666,179.42447916666666,55.0,97.0
669,179.34635416666666,179.44140625,67.0,100.0
670,179.34635416666666,179.44270833333331,62.0,100.0
671,179.34635416666666,179.45833333333331,71.0,97.0
672,179.65885416666666,179.76432291666666,67.0,96.0
673,179.65885416666666,179.77734375,71.0,90.0
674,179.65885416666666,179.98828125,55.0,93.0
675,179.97135416666666,180.171875,67.0,95.0
676,179.97135416666666,180.20182291666666,71.0,93.0
677,179.97135416666666,180.20442708333331,62.0,95.0
678,180.28385416666666,180.43098958333331,71.0,99.0
679,180.28385416666666,180.4375,67.0,99.0
680,178.09635416666666,180.45442708333331,43.0,81.0
681,178.40885416666666,180.54557291666666,50.0,34.0
682,181.22135416666666,181.33203125,67.0,96.0
683,181.22135416666666,181.34114583333331,62.0,97.0
684,181.22135416666666,181.35677083333331,71.0,88.0
685,181.53385416666666,182.01432291666666,55.0,71.0
686,182.15885416666666,182.37369791666666,55.0,88.0
687,180.59635416666666,182.51822916666666,43.0,74.0
688,182.47135416666666,182.62369791666666,62.0,97.0
689,182.47135416666666,182.71744791666666,67.0,102.0
690,182.47135416666666,182.72395833333331,71.0,99.0
691,182.78385416666666,182.859375,62.0,75.0
692,183.72135416666666,184.04557291666666,59.0,93.0
693,183.72135416666666,184.06770833333331,64.0,95.0
694,183.72135416666666,184.11848958333331,67.0,83.0
695,184.03385416666666,184.28645833333331,52.0,97.0
696,183.09635416666666,185.07942708333331,40.0,83.0
697,184.97135416666666,185.1328125,59.0,97.0
698,184.65885416666666,185.21744791666666,52.0,102.0
699,184.97135416666666,185.31770833333331,64.0,112.0
700,184.97135416666666,185.31770833333331,67.0,112.0
701,186.22135416666666,186.50911458333331,72.0,81.0
702,186.22135416666666,186.51432291666666,69.0,88.0
703,186.22135416666666,186.53385416666666,64.0,86.0
704,186.53385416666666,186.99348958333331,57.0,102.0
705,187.15885416666666,187.4296875,57.0,122.0
706,185.90885416666666,187.48177083333331,52.0,72.0
707,185.59635416666666,187.55859375,45.0,82.0
708,187.47135416666666,187.6875,69.0,127.0
709,187.47135416666666,187.69921875,72.0,107.0
710,187.47135416666666,187.875,64.0,76.0
711,188.72135416666666,189.22786458333331,62.0,98.0
712,188.72135416666666,189.23828125,66.0,98.0
713,188.72135416666666,189.24609375,57.0,98.0
714,189.03385416666666,189.48958333333331,50.0,89.0
715,188.09635416666666,189.93359375,38.0,88.0
716,188.40885416666666,189.953125,45.0,51.0
717,189.65885416666666,190.09635416666666,50.0,99.0
718,189.97135416666666,190.30859375,62.0,117.0
719,189.97135416666666,190.32682291666666,66.0,127.0
720,189.97135416666666,190.32942708333331,57.0,96.0
721,191.22135416666666,191.6875,67.0,86.0
722,191.22135416666666,191.6875,71.0,83.0
723,191.22135416666666,191.73697916666666,62.0,86.0
724,191.53385416666666,191.9765625,55.0,92.0
725,192.15885416666666,192.46354166666666,55.0,97.0
726,190.90885416666666,192.49609375,50.0,73.0
727,190.59635416666666,192.61979166666666,43.0,66.0
728,192.47135416666666,192.66927083333331,62.0,102.0
729,192.47135416666666,192.97526041666666,71.0,117.0
730,192.47135416666666,192.98307291666666,67.0,122.0
731,193.72135416666666,194.22526041666666,64.0,89.0
732,193.72135416666666,194.23567708333331,67.0,81.0
733,193.72135416666666,194.26302083333331,59.0,86.0
734,194.03385416666666,194.26302083333331,59.0,83.0
735,193.72135416666666,194.29557291666666,52.0,60.0
736,194.03385416666666,194.29557291666666,52.0,86.0
737,194.03385416666666,194.79557291666666,55.0,79.0
738,194.65885416666666,195.02994791666666,52.0,60.0
739,194.65885416666666,195.02994791666666,52.0,93.0
740,193.09635416666666,195.13802083333331,40.0,90.0
741,193.40885416666666,195.16276041666666,47.0,65.0
742,194.97135416666666,195.32291666666666,64.0,83.0
743,194.97135416666666,195.32291666666666,64.0,102.0
744,194.97135416666666,195.33984375,67.0,97.0
745,194.97135416666666,195.34375,59.0,81.0
746,194.97135416666666,195.34375,59.0,82.0
747,194.97135416666666,195.3671875,55.0,79.0
748,195.28385416666666,195.57942708333331,52.0,58.0
749,195.90885416666666,196.32682291666666,52.0,66.0
750,195.90885416666666,196.32682291666666,52.0,88.0
751,196.22135416666666,196.73177083333331,60.0,83.0
752,196.22135416666666,196.73177083333331,60.0,93.0
753,196.22135416666666,196.77734375,64.0,92.0
754,196.22135416666666,196.77734375,64.0,93.0
755,196.22135416666666,196.796875,57.0,92.0
756,196.53385416666666,196.796875,57.0,59.0
757,196.22135416666666,196.93619791666666,69.0,81.0
758,196.53385416666666,196.98567708333331,52.0,62.0
759,196.84635416666666,197.22265625,57.0,78.0
760,197.15885416666666,197.5234375,52.0,100.0
761,195.59635416666666,197.53385416666666,45.0,87.0
762,195.59635416666666,197.53385416666666,45.0,95.0
763,197.15885416666666,197.60807291666666,69.0,83.0
764,197.15885416666666,197.61979166666666,60.0,76.0
765,197.47135416666666,197.61979166666666,60.0,127.0
766,197.15885416666666,197.61979166666666,64.0,87.0
767,197.47135416666666,197.61979166666666,64.0,107.0
768,197.78385416666666,197.8046875,64.0,67.0
769,197.78385416666666,197.82421875,60.0,64.0
770,197.47135416666666,198.06640625,57.0,64.0
771,197.78385416666666,198.06640625,57.0,90.0
772,198.09635416666666,198.82942708333331,66.0,79.0
773,198.72135416666666,198.82942708333331,66.0,102.0
774,198.09635416666666,198.83072916666666,62.0,68.0
775,198.72135416666666,198.83072916666666,62.0,89.0
776,199.03385416666666,199.14322916666666,67.0,87.0
777,198.72135416666666,199.57942708333331,57.0,89.0
778,199.03385416666666,199.61458333333331,62.0,86.0
779,199.03385416666666,199.79817708333331,69.0,71.0
780,199.65885416666666,200.09635416666666,57.0,102.0
781,198.09635416666666,200.38541666666666,50.0,79.0
782,199.03385416666666,200.38541666666666,50.0,95.0
783,198.72135416666666,200.38802083333331,54.0,59.0
784,199.97135416666666,200.40755208333331,69.0,81.0
785,199.97135416666666,200.41145833333331,66.0,100.0
786,199.97135416666666,200.41145833333331,66.0,127.0
787,199.97135416666666,200.43880208333331,62.0,104.0
788,199.97135416666666,200.43880208333331,62.0,127.0
789,200.59635416666666,200.67317708333331,62.0,86.0
790,200.28385416666666,200.68229166666666,57.0,100.0
791,198.40885416666666,200.6953125,45.0,33.0
792,198.09635416666666,200.71614583333331,38.0,89.0
793,200.59635416666666,201.27083333333331,67.0,74.0
794,201.22135416666666,201.27083333333331,67.0,102.0
795,200.59635416666666,201.27734375,59.0,81.0
796,201.22135416666666,201.734375,55.0,63.0
797,201.53385416666666,202.29817708333331,67.0,98.0
798,201.22135416666666,202.31119791666666,71.0,107.0
799,201.53385416666666,202.33854166666666,62.0,95.0
800,201.53385416666666,202.33854166666666,62.0,95.0
801,201.53385416666666,202.34505208333331,59.0,90.0
802,202.15885416666666,202.47786458333331,55.0,59.0
803,202.15885416666666,202.47786458333331,55.0,102.0
804,200.90885416666666,202.51041666666666,50.0,67.0
805,200.90885416666666,202.51041666666666,50.0,76.0
806,200.59635416666666,202.51822916666666,43.0,76.0
807,200.59635416666666,202.51822916666666,43.0,93.0
808,202.47135416666666,202.74869791666666,67.0,87.0
809,202.47135416666666,202.74869791666666,67.0,122.0
810,202.47135416666666,202.75390625,62.0,85.0
811,202.47135416666666,202.76953125,59.0,77.0
812,202.78385416666666,202.94921875,62.0,86.0
813,202.47135416666666,202.96614583333331,71.0,99.0
814,203.09635416666666,203.79817708333331,64.0,79.0
815,203.72135416666666,203.79817708333331,64.0,93.0
816,203.09635416666666,203.8046875,59.0,74.0
817,203.09635416666666,203.82161458333331,55.0,73.0
818,203.72135416666666,204.36848958333331,52.0,63.0
819,204.03385416666666,204.36848958333331,52.0,81.0
820,204.03385416666666,204.5234375,64.0,98.0
821,203.72135416666666,204.53255208333331,67.0,93.0
822,203.72135416666666,204.53255208333331,71.0,88.0
823,204.03385416666666,204.78645833333331,59.0,95.0
824,204.03385416666666,204.79036458333331,55.0,93.0
825,203.09635416666666,204.96354166666666,40.0,77.0
826,203.09635416666666,204.96354166666666,40.0,81.0
827,204.65885416666666,204.99609375,52.0,73.0
828,204.65885416666666,204.99609375,52.0,90.0
829,204.97135416666666,205.10416666666666,67.0,100.0
830,204.97135416666666,205.11588541666666,71.0,102.0
831,204.97135416666666,205.12760416666666,64.0,81.0
832,204.97135416666666,205.12760416666666,64.0,97.0
833,203.40885416666666,205.3125,47.0,67.0
834,204.97135416666666,205.32421875,59.0,83.0
835,204.97135416666666,205.3359375,55.0,87.0
836,205.28385416666666,205.59765625,52.0,60.0
837,205.59635416666666,206.34765625,60.0,83.0
838,206.22135416666666,206.34765625,60.0,99.0
839,205.59635416666666,206.35026041666666,69.0,77.0
840,205.59635416666666,206.35677083333331,64.0,93.0
841,206.22135416666666,206.35677083333331,64.0,88.0
842,205.90885416666666,206.56640625,52.0,64.0
843,205.90885416666666,206.56640625,52.0,95.0
844,206.22135416666666,206.66796875,57.0,62.0
845,206.22135416666666,206.66796875,57.0,92.0
846,206.53385416666666,207.03125,60.0,86.0
847,206.53385416666666,207.03515625,64.0,86.0
848,206.53385416666666,207.25,69.0,76.0
849,207.15885416666666,207.50130208333331,52.0,86.0
850,205.59635416666666,207.52213541666666,45.0,60.0
851,205.59635416666666,207.52213541666666,45.0,90.0
852,207.15885416666666,207.6953125,57.0,63.0
853,207.47135416666666,207.6953125,57.0,77.0
854,207.47135416666666,207.73046875,69.0,74.0
855,207.47135416666666,207.75390625,64.0,86.0
856,207.47135416666666,207.75390625,64.0,100.0
857,207.47135416666666,207.8515625,60.0,85.0
858,207.47135416666666,207.8515625,60.0,112.0
859,208.09635416666666,208.8125,66.0,81.0
860,208.72135416666666,208.8125,66.0,117.0
861,208.09635416666666,208.82682291666666,62.0,73.0
862,208.72135416666666,208.82682291666666,62.0,99.0
863,208.72135416666666,208.87369791666666,69.0,61.0
864,209.03385416666666,209.50260416666666,62.0,77.0
865,209.03385416666666,209.50260416666666,66.0,85.0
866,208.72135416666666,209.51041666666666,57.0,99.0
867,208.09635416666666,209.71484375,38.0,92.0
868,208.09635416666666,209.76822916666666,50.0,75.0
869,209.03385416666666,209.76822916666666,50.0,93.0
870,209.65885416666666,209.76822916666666,50.0,81.0
871,209.03385416666666,209.8203125,69.0,76.0
872,209.81510416666666,209.97135416666666,38.0,97.0
873,208.40885416666666,209.98177083333331,45.0,55.0
874,209.97135416666666,210.0390625,66.0,108.0
875,209.97135416666666,210.0390625,66.0,117.0
876,209.97135416666666,210.0625,62.0,83.0
877,209.97135416666666,210.0625,62.0,107.0
878,209.97135416666666,210.12760416666666,57.0,97.0
879,209.97135416666666,210.18098958333331,69.0,63.0
880,210.28385416666666,210.44010416666666,38.0,97.0
881,210.59635416666666,211.32552083333331,59.0,64.0
882,210.59635416666666,211.3359375,67.0,76.0
883,211.22135416666666,211.3359375,67.0,100.0
884,210.59635416666666,211.34895833333331,62.0,79.0
885,211.22135416666666,211.34895833333331,62.0,97.0
886,211.22135416666666,211.86848958333331,55.0,60.0
887,211.22135416666666,211.86848958333331,55.0,96.0
888,211.53385416666666,211.99739583333331,62.0,86.0
889,211.53385416666666,212.01171875,67.0,90.0
890,211.22135416666666,212.01171875,71.0,96.0
891,211.53385416666666,212.3125,59.0,86.0
892,212.15885416666666,212.515625,55.0,65.0
893,212.15885416666666,212.515625,55.0,107.0
894,210.90885416666666,212.53776041666666,50.0,64.0
895,210.90885416666666,212.53776041666666,50.0,65.0
896,210.59635416666666,212.57552083333331,43.0,70.0
897,210.59635416666666,212.57552083333331,43.0,90.0
898,212.47135416666666,212.63020833333331,62.0,83.0
899,212.47135416666666,212.63020833333331,62.0,86.0
900,212.47135416666666,212.70703125,67.0,93.0
901,212.47135416666666,212.70703125,67.0,127.0
902,212.47135416666666,212.7265625,59.0,81.0
903,212.78385416666666,212.84765625,55.0,54.0
904,212.47135416666666,212.8515625,71.0,127.0
905,213.09635416666666,213.83854166666666,64.0,79.0
906,213.72135416666666,213.83854166666666,64.0,83.0
907,213.09635416666666,213.83984375,55.0,67.0
908,213.09635416666666,213.85677083333331,59.0,83.0
909,213.72135416666666,214.17447916666666,52.0,63.0
910,213.72135416666666,214.17447916666666,52.0,97.0
911,213.72135416666666,214.42057291666666,67.0,74.0
912,213.72135416666666,214.42057291666666,71.0,70.0
913,214.03385416666666,214.42317708333331,64.0,79.0
914,214.03385416666666,214.77213541666666,59.0,93.0
915,214.03385416666666,214.77604166666666,55.0,95.0
916,213.09635416666666,214.99869791666666,40.0,75.0
917,213.09635416666666,214.99869791666666,40.0,92.0
918,213.40885416666666,215.02734375,47.0,48.0
919,213.40885416666666,215.02734375,47.0,76.0
920,214.65885416666666,215.13151041666666,52.0,62.0
921,214.65885416666666,215.13151041666666,52.0,96.0
922,214.97135416666666,215.203125,64.0,77.0
923,214.97135416666666,215.203125,64.0,99.0
924,214.97135416666666,215.20572916666666,55.0,81.0
925,214.97135416666666,215.21484375,59.0,77.0
926,214.97135416666666,215.50260416666666,71.0,112.0
927,214.97135416666666,215.50651041666666,67.0,117.0
928,215.90885416666666,216.23567708333331,52.0,59.0
929,215.90885416666666,216.23567708333331,52.0,100.0
930,215.59635416666666,216.26432291666666,45.0,70.0
931,215.59635416666666,216.26432291666666,45.0,96.0
932,215.59635416666666,216.30989583333331,60.0,79.0
933,215.59635416666666,216.30989583333331,60.0,96.0
934,215.59635416666666,216.52473958333331,64.0,86.0
935,215.59635416666666,216.52473958333331,64.0,97.0
936,215.59635416666666,216.57161458333331,69.0,75.0
937,216.53385416666666,216.74739583333331,60.0,95.0
938,216.22135416666666,216.765625,57.0,71.0
939,216.22135416666666,216.765625,57.0,117.0
940,216.84635416666666,217.32291666666666,62.0,96.0
941,216.84635416666666,217.33984375,57.0,88.0
942,216.84635416666666,217.33984375,66.0,79.0
943,216.84635416666666,217.33984375,66.0,95.0
944,217.47135416666666,217.58203125,66.0,122.0
945,216.84635416666666,217.59375,69.0,76.0
946,216.84635416666666,217.85286458333331,50.0,67.0
947,217.47135416666666,217.85286458333331,50.0,95.0
948,217.47135416666666,218.03776041666666,62.0,107.0
949,217.78385416666666,218.04296875,57.0,90.0
950,216.84635416666666,218.04427083333331,38.0,85.0
951,217.78385416666666,218.05208333333331,66.0,63.0
952,217.15885416666666,218.07421875,45.0,92.0
953,217.78385416666666,218.13671875,69.0,59.0
954,218.72135416666666,218.85807291666666,62.0,63.0
955,218.72135416666666,218.86328125,59.0,65.0
956,218.72135416666666,218.87369791666666,67.0,69.0
957,219.03385416666666,219.81510416666666,59.0,74.0
958,219.03385416666666,219.81901041666666,62.0,79.0
959,219.03385416666666,219.8203125,67.0,81.0
960,219.65885416666666,220.23958333333331,55.0,58.0
961,218.09635416666666,220.40104166666666,43.0,79.0
962,219.97135416666666,220.40755208333331,69.0,81.0
963,219.97135416666666,220.41145833333331,66.0,100.0
964,218.40885416666666,220.42057291666666,50.0,62.0
965,219.97135416666666,220.43619791666666,67.0,81.0
966,219.97135416666666,220.43880208333331,62.0,87.0
967,219.97135416666666,220.43880208333331,62.0,104.0
968,219.97135416666666,220.44661458333331,59.0,83.0
969,221.22135416666666,222.29817708333331,67.0,102.0
970,221.22135416666666,222.31119791666666,71.0,107.0
971,221.53385416666666,222.36588541666666,62.0,95.0
972,222.15885416666666,222.47786458333331,55.0,102.0
973,220.90885416666666,222.51041666666666,50.0,67.0
974,220.59635416666666,222.51822916666666,43.0,93.0
975,222.78385416666666,222.94921875,62.0,86.0
976,222.47135416666666,222.953125,67.0,122.0
977,222.47135416666666,222.96614583333331,71.0,99.0
978,224.03385416666666,224.48697916666666,52.0,81.0
979,223.72135416666666,224.5234375,64.0,93.0
980,223.72135416666666,224.53255208333331,67.0,93.0
981,223.72135416666666,224.53255208333331,71.0,88.0
982,223.09635416666666,224.96354166666666,40.0,81.0
983,224.65885416666666,225.09114583333331,52.0,90.0
984,224.97135416666666,225.10416666666666,67.0,100.0
985,224.97135416666666,225.11588541666666,71.0,102.0
986,224.97135416666666,225.12760416666666,64.0,97.0
987,225.90885416666666,226.56640625,52.0,95.0
988,226.22135416666666,227.03125,60.0,99.0
989,226.22135416666666,227.03515625,57.0,92.0
990,226.22135416666666,227.03515625,64.0,88.0
991,227.15885416666666,227.50130208333331,52.0,86.0
992,225.59635416666666,227.52213541666666,45.0,90.0
993,227.47135416666666,227.6953125,57.0,77.0
994,227.47135416666666,227.75390625,64.0,100.0
995,227.47135416666666,227.8515625,60.0,112.0
996,228.72135416666666,229.50260416666666,62.0,99.0
997,228.72135416666666,229.50260416666666,66.0,117.0
998,228.72135416666666,229.51041666666666,57.0,99.0
999,228.09635416666666,229.71484375,38.0,92.0
1000,229.03385416666666,229.76822916666666,50.0,93.0
1001,229.65885416666666,229.76822916666666,50.0,81.0
1002,229.81510416666666,229.97135416666666,38.0,97.0
1003,228.40885416666666,229.98177083333331,45.0,55.0
1004,229.97135416666666,230.0390625,66.0,117.0
1005,229.97135416666666,230.0625,62.0,107.0
1006,229.97135416666666,230.12760416666666,57.0,97.0
1007,230.28385416666666,230.44010416666666,38.0,97.0
1008,231.22135416666666,231.97916666666666,55.0,96.0
1009,231.22135416666666,231.99739583333331,62.0,97.0
1010,231.22135416666666,232.01171875,67.0,100.0
1011,231.22135416666666,232.01171875,71.0,96.0
1012,232.15885416666666,232.515625,55.0,65.0
1013,232.15885416666666,232.515625,55.0,107.0
1014,230.90885416666666,232.53776041666666,50.0,65.0
1015,230.59635416666666,232.57552083333331,43.0,90.0
1016,232.47135416666666,232.63020833333331,62.0,83.0
1017,232.47135416666666,232.63020833333331,62.0,86.0
1018,232.47135416666666,232.70703125,67.0,93.0
1019,232.47135416666666,232.70703125,67.0,127.0
1020,232.47135416666666,232.7265625,59.0,81.0
1021,232.78385416666666,232.84765625,55.0,54.0
1022,232.47135416666666,232.8515625,71.0,127.0
1023,233.09635416666666,233.83854166666666,64.0,79.0
1024,233.72135416666666,233.83854166666666,64.0,83.0
1025,233.09635416666666,233.83984375,55.0,67.0
1026,233.09635416666666,233.85677083333331,59.0,83.0
1027,233.72135416666666,234.17447916666666,52.0,63.0
1028,233.72135416666666,234.17447916666666,52.0,97.0
1029,233.72135416666666,234.42057291666666,67.0,74.0
1030,233.72135416666666,234.42057291666666,71.0,70.0
1031,234.03385416666666,234.42317708333331,64.0,79.0
1032,234.03385416666666,234.77213541666666,59.0,93.0
1033,234.03385416666666,234.77604166666666,55.0,95.0
1034,233.09635416666666,234.99869791666666,40.0,75.0
1035,233.09635416666666,234.99869791666666,40.0,92.0
1036,233.40885416666666,235.02734375,47.0,48.0
1037,233.40885416666666,235.02734375,47.0,76.0
1038,234.65885416666666,235.13151041666666,52.0,62.0
1039,234.65885416666666,235.13151041666666,52.0,96.0
1040,234.97135416666666,235.203125,64.0,77.0
1041,234.97135416666666,235.203125,64.0,99.0
1042,234.97135416666666,235.20572916666666,55.0,81.0
1043,234.97135416666666,235.21484375,59.0,77.0
1044,234.97135416666666,235.50260416666666,71.0,112.0
1045,234.97135416666666,235.50651041666666,67.0,117.0
1046,235.90885416666666,236.23567708333331,52.0,59.0
1047,235.90885416666666,236.23567708333331,52.0,100.0
1048,235.59635416666666,236.26432291666666,45.0,70.0
1049,235.59635416666666,236.26432291666666,45.0,96.0
1050,235.59635416666666,236.30989583333331,60.0,79.0
1051,235.59635416666666,236.30989583333331,60.0,96.0
1052,235.59635416666666,236.52473958333331,64.0,86.0
1053,235.59635416666666,236.52473958333331,64.0,97.0
1054,235.59635416666666,236.57161458333331,69.0,75.0
1055,236.53385416666666,236.74739583333331,60.0,95.0
1056,236.22135416666666,236.765625,57.0,71.0
1057,236.22135416666666,236.765625,57.0,117.0
1058,236.84635416666666,237.32291666666666,62.0,96.0
1059,236.84635416666666,237.33984375,57.0,88.0
1060,236.84635416666666,237.33984375,66.0,79.0
1061,236.84635416666666,237.33984375,66.0,95.0
1062,237.47135416666666,237.58203125,66.0,122.0
1063,236.84635416666666,237.59375,69.0,76.0
1064,236.84635416666666,237.85286458333331,50.0,67.0
1065,237.47135416666666,237.85286458333331,50.0,95.0
1066,237.47135416666666,238.03776041666666,62.0,107.0
1067,237.78385416666666,238.04296875,57.0,90.0
1068,236.84635416666666,238.04427083333331,38.0,85.0
1069,237.78385416666666,238.05208333333331,66.0,63.0
1070,237.15885416666666,238.07421875,45.0,92.0
1071,237.78385416666666,238.13671875,69.0,59.0
1072,238.09635416666666,240.40104166666666,43.0,79.0
1073,238.40885416666666,240.42057291666666,50.0,62.0
1074,238.72135416666666,241.64583333333331,59.0,65.0
1075,240.59635416666666,241.64583333333331,59.0,59.0
1076,240.90885416666666,242.73046875,50.0,72.0
1077,241.53385416666666,242.77734375,62.0,79.0
1078,240.59635416666666,242.84114583333331,43.0,74.0
1079,242.78385416666666,243.15364583333331,59.0,63.0
1080,244.03385416666666,244.71875,55.0,66.0
1081,243.09635416666666,245.04166666666666,40.0,77.0
1082,243.40885416666666,245.17447916666666,47.0,69.0
1083,244.65885416666666,245.30078125,59.0,65.0
1084,243.72135416666666,245.30208333333331,52.0,59.0
1085,245.28385416666666,245.578125,55.0,65.0
1086,246.53385416666666,247.47916666666666,60.0,63.0
1087,245.59635416666666,247.578125,45.0,79.0
1088,246.22135416666666,247.59244791666666,57.0,56.0
1089,245.90885416666666,247.59505208333331,52.0,61.0
1090,246.84635416666666,249.44921875,69.0,58.0
1091,246.84635416666666,249.5,66.0,59.0
1092,246.84635416666666,249.51171875,50.0,62.0
1093,246.84635416666666,249.54427083333331,62.0,58.0
1094,249.97135416666666,250.31770833333331,74.0,75.0
1095,249.97135416666666,250.32291666666666,69.0,79.0
1096,249.97135416666666,250.37239583333331,66.0,93.0
1097,251.53385416666666,251.99348958333331,55.0,59.0
1098,251.22135416666666,252.02734375,59.0,81.0
1099,251.22135416666666,252.03776041666666,62.0,90.0
1100,251.22135416666666,252.03776041666666,67.0,93.0
1101,250.90885416666666,252.59244791666666,50.0,63.0
1102,252.15885416666666,252.59375,55.0,59.0
1103,252.47135416666666,252.765625,67.0,95.0
1104,250.59635416666666,252.76692708333331,43.0,63.0
1105,252.47135416666666,252.76822916666666,62.0,90.0
1106,252.47135416666666,252.77734375,59.0,79.0
1107,253.72135416666666,254.47265625,55.0,79.0
1108,253.72135416666666,254.47526041666666,59.0,81.0
1109,253.72135416666666,254.4765625,64.0,83.0
1110,254.03385416666666,254.67057291666666,52.0,64.0
1111,254.65885416666666,254.67057291666666,52.0,60.0
1112,253.09635416666666,255.23046875,40.0,73.0
1113,253.40885416666666,255.24739583333331,47.0,60.0
1114,254.97135416666666,255.31119791666666,55.0,90.0
1115,254.97135416666666,255.31119791666666,59.0,83.0
1116,254.97135416666666,255.31380208333331,64.0,77.0
1117,255.28385416666666,255.44791666666666,52.0,73.0
1118,256.22135416666663,257.0247395833333,60.0,77.0
1119,256.22135416666663,257.03125,69.0,85.0
1120,256.22135416666663,257.0390625,64.0,90.0
1121,256.53385416666663,257.28385416666663,57.0,58.0
1122,257.15885416666663,257.28385416666663,57.0,60.0
1123,257.47135416666663,257.91015625,69.0,77.0
1124,257.47135416666663,257.921875,64.0,85.0
1125,257.47135416666663,257.93229166666663,60.0,83.0
1126,255.59635416666666,258.1184895833333,45.0,72.0
1127,255.90885416666666,258.1614583333333,52.0,58.0
1128,258.72135416666663,259.390625,74.0,76.0
1129,258.72135416666663,259.4270833333333,69.0,85.0
1130,258.72135416666663,259.4609375,66.0,98.0
1131,259.97135416666663,260.4309895833333,74.0,75.0
1132,259.97135416666663,260.453125,69.0,77.0
1133,259.97135416666663,260.4934895833333,66.0,90.0
1134,259.03385416666663,260.52994791666663,62.0,58.0
1135,258.09635416666663,260.8958333333333,50.0,83.0
1136,260.59635416666663,260.8997395833333,74.0,67.0
1137,260.59635416666663,260.9036458333333,62.0,74.0
1138,260.59635416666663,260.91666666666663,69.0,85.0
1139,258.40885416666663,260.93619791666663,57.0,59.0
1140,260.59635416666663,260.94010416666663,66.0,87.0
1141,259.65885416666663,260.96744791666663,54.0,74.0
1142,262.94010416666663,265.0859375,59.0,50.0
1143,263.09635416666663,265.1848958333333,67.0,63.0
1144,263.09635416666663,265.23046875,62.0,62.0
1145,263.72135416666663,268.0859375,55.0,59.0
1146,263.25260416666663,268.12109375,50.0,71.0
1147,263.09635416666663,268.15494791666663,43.0,67.0
