,start,end,pitch,velocity
0,18.672476445833336,18.970736068750004,59.0,97.0
1,19.3053881125,19.45016665625,56.0,102.0
2,19.431970445833336,19.5142489625,59.0,93.0
3,19.685135112500003,20.19700242291667,64.0,99.0
4,20.191464445833336,20.350483502083335,63.0,112.0
5,20.950958445833336,21.11155978125,64.0,107.0
6,21.330705445833335,21.527699202083337,63.0,122.0
7,21.710452445833337,21.859186687500003,61.0,117.0
8,22.090199445833335,22.180389358333336,61.0,117.0
9,22.3433641125,22.48339581875,57.0,93.0
10,22.469946445833337,22.599693337500003,61.0,122.0
11,22.849693445833335,23.060927714583336,59.0,96.0
12,23.229440445833337,23.362351895833335,57.0,92.0
13,23.609187445833335,23.743681175000003,54.0,102.0
14,23.8623521125,24.09652942916667,52.0,77.0
15,24.748428445833337,24.888460152083336,57.0,93.0
16,25.128175445833335,25.25238436041667,57.0,96.0
17,25.381340112500002,25.541150308333336,54.0,90.0
18,25.507922445833337,25.592574381250003,57.0,79.0
19,25.761087112500004,26.00238468541667,64.0,92.0
20,26.267416445833337,26.416941827083335,63.0,102.0
21,26.647163445833336,26.75238501041667,64.0,95.0
22,26.900328112500002,27.186720641666668,63.0,89.0
23,27.280075112500004,27.787986725000003,61.0,95.0
24,27.786404445833337,27.954917177083335,59.0,83.0
25,28.166151445833336,28.28086668541667,59.0,86.0
26,28.166151445833336,28.28086668541667,59.0,89.0
27,28.419316112500002,28.53244907291667,56.0,79.0
28,28.545898445833338,28.676436477083335,59.0,78.0
29,28.799063112500004,29.056183477083337,62.0,93.0
30,29.178810112500003,29.31567726041667,62.0,82.0
31,29.305392445833338,29.47469631666667,61.0,99.0
32,29.685139445833336,29.787196452083336,62.0,93.0
33,29.938304112500003,30.184348522916668,61.0,95.0
34,30.318051112500005,30.868684262500004,59.0,82.0
35,30.824380445833338,31.01267166666667,57.0,86.0
36,31.457292112500003,31.57042507291667,54.0,82.0
37,31.583874445833338,31.742102362500002,57.0,88.0
38,31.837039112500005,32.39321023958334,64.0,93.0
39,32.343368445833335,32.49605838541667,63.0,86.0
40,33.862356445833335,33.9731159875,59.0,96.0
41,34.24210344583334,34.37343261666667,59.0,92.0
42,34.4952681125,34.650331470833336,56.0,76.0
43,34.62185044583334,34.706502381250004,59.0,76.0
44,34.8750151125,35.30855960416667,62.0,100.0
45,35.381344445833335,35.59336985416667,61.0,102.0
46,36.14083844583334,36.30302206041667,61.0,122.0
47,36.3940031125,36.700965270833336,59.0,72.0
48,36.900332445833335,37.20887688333334,57.0,89.0
49,37.65982644583334,38.200174781250006,64.0,92.0
50,38.419320445833335,38.73340286041667,63.0,92.0
51,39.17881444583334,39.347327177083336,68.0,127.0
52,39.558561445833334,39.761884318750006,68.0,122.0
53,39.938308445833336,41.307771064583335,64.0,117.0
54,42.976284445833336,43.274544068750004,59.0,97.0
55,43.6091961125,43.75397465625,56.0,102.0
56,43.73577844583334,43.8180569625,59.0,93.0
57,43.9889431125,44.50081042291667,64.0,99.0
58,44.495272445833336,44.65429150208334,63.0,112.0
59,45.25476644583334,45.415367781250005,64.0,107.0
60,45.634513445833335,45.83150720208334,63.0,122.0
61,46.01426044583334,46.1629946875,61.0,117.0
62,46.39400744583334,46.48419735833334,61.0,117.0
63,46.6471721125,46.78720381875,57.0,93.0
64,46.77375444583334,46.9035013375,61.0,122.0
65,47.153501445833335,47.36473571458334,59.0,96.0
66,47.53324844583334,47.66615989583334,57.0,92.0
67,47.91299544583334,48.047489175,54.0,102.0
68,48.1661601125,48.40033742916667,52.0,77.0
69,49.05223644583334,49.19226815208334,57.0,93.0
70,49.43198344583334,49.556192360416674,57.0,96.0
71,49.6851481125,49.84495830833334,54.0,90.0
72,49.81173044583334,49.89638238125001,57.0,79.0
73,50.064895112500004,50.30619268541667,64.0,92.0
74,50.57122444583334,50.72074982708334,63.0,102.0
75,50.95097144583334,51.05619301041667,64.0,95.0
76,51.2041361125,51.49052864166667,63.0,89.0
77,51.583883112500004,52.09179472500001,61.0,95.0
78,52.09021244583334,52.258725177083335,59.0,83.0
79,52.46995944583334,52.58467468541667,59.0,86.0
80,52.46995944583334,52.58467468541667,59.0,89.0
81,52.7231241125,52.83625707291667,56.0,79.0
82,52.84970644583334,52.98024447708334,59.0,78.0
83,53.102871112500004,53.35999147708334,62.0,93.0
84,53.482618112500006,53.619485260416674,62.0,82.0
85,53.60920044583334,53.77850431666667,61.0,99.0
86,53.98894744583334,54.09100445208334,62.0,93.0
87,54.2421121125,54.488156522916675,61.0,95.0
88,54.621859112500005,55.17249226250001,59.0,82.0
89,55.12818844583334,55.31647966666667,57.0,86.0
90,55.7611001125,55.874233072916674,54.0,82.0
91,55.88768244583334,56.0459103625,57.0,88.0
92,56.140847112500005,56.697018239583336,64.0,93.0
93,56.64717644583334,56.79986638541667,63.0,86.0
94,58.16616444583334,58.276923987500005,59.0,96.0
95,58.54591144583334,58.67724061666667,59.0,92.0
96,58.7990761125,58.95413947083334,56.0,76.0
97,58.92565844583334,59.01031038125001,59.0,76.0
98,59.178823112500005,59.61236760416667,62.0,100.0
99,59.68515244583334,59.89717785416667,61.0,102.0
100,60.44464644583334,60.60683006041667,61.0,122.0
101,60.697811112500005,61.00477327083334,59.0,72.0
102,61.20414044583334,61.51268488333334,57.0,89.0
103,61.96363444583334,62.50398278125001,64.0,92.0
104,62.72312844583334,63.03721086041667,63.0,92.0
105,63.48262244583334,63.65113517708334,68.0,127.0
106,63.86236944583334,64.06569231875001,68.0,122.0
107,64.24211644583335,65.61157906458334,64.0,117.0
108,67.28009244583333,67.52613685625,61.0,107.0
109,67.65983944583334,67.88610536666667,64.0,90.0
110,68.03958644583334,68.21363715416668,64.0,90.0
111,68.41933344583335,68.59892213125,61.0,112.0
112,68.79908044583334,68.89718175416667,64.0,97.0
113,69.0522451125,69.30382750000001,61.0,99.0
114,69.43199211250001,69.81965050833334,64.0,100.0
115,70.1914861125,70.27139121041667,56.0,90.0
116,70.31806844583333,70.56332171666668,59.0,96.0
117,70.69781544583334,70.86395475833334,59.0,97.0
118,71.07756244583334,71.19465110416667,59.0,112.0
119,71.3307271125,71.54275252083335,61.0,112.0
120,71.71047411250001,72.617120075,59.0,97.0
121,73.35604444583333,73.55857617916668,57.0,102.0
122,73.73579144583334,73.89006366458334,57.0,96.0
123,73.9889561125,74.1218675625,54.0,93.0
124,74.11553844583334,74.18436758958335,57.0,96.0
125,74.3687031125,74.84417800208334,64.0,99.0
126,74.87503244583334,75.03484264166667,63.0,117.0
127,75.25477944583334,75.39955798958334,64.0,112.0
128,75.50794411250001,75.7073112875,63.0,107.0
129,75.88769111250001,76.08864056666667,61.0,122.0
130,76.2674381125,77.03800806666668,59.0,107.0
131,77.91300844583334,78.61633153541668,62.0,127.0
132,78.67250244583335,78.99449625625,61.0,117.0
133,79.43199644583333,79.80383205000001,57.0,122.0
134,80.0649081125,80.16933853750001,54.0,90.0
135,80.19149044583334,80.27376896250001,57.0,95.0
136,80.4446551125,80.94623760833333,64.0,102.0
137,80.95098444583334,81.25478204583334,63.0,100.0
138,81.33073144583334,81.40114286875001,64.0,97.0
139,81.58389611250001,81.79117468333334,63.0,112.0
140,81.96364311250001,82.30383313333334,61.0,112.0
141,82.46997244583333,82.72788395,59.0,112.0
142,82.84971944583334,82.98104861666667,59.0,92.0
143,83.1028841125,83.22709302708334,56.0,95.0
144,83.22946644583334,83.31411838125001,59.0,95.0
145,83.4826311125,83.6725046125,62.0,112.0
146,83.86237811250001,84.27456183541668,61.0,96.0
147,84.62187211250001,84.74291646875001,63.0,99.0
148,84.62187211250001,84.74766330625,61.0,96.0
149,84.74845444583335,85.04434065000001,59.0,92.0
150,85.50794844583334,85.68120801458335,57.0,100.0
151,85.88769544583334,86.02298031458334,57.0,99.0
152,86.14086011250001,86.25636649166667,54.0,96.0
153,86.26744244583334,86.34892982291667,57.0,97.0
154,86.5206071125,86.95573388333334,64.0,88.0
155,87.02693644583334,87.25320236666667,63.0,102.0
156,87.40668344583334,87.52614552291668,64.0,95.0
157,87.65984811250001,87.83310768125001,66.0,122.0
158,88.03959511250001,88.21760151875,64.0,102.0
159,88.4193421125,88.61554472916667,63.0,107.0
160,88.79908911250001,90.13690614791668,64.0,102.0
161,103.73580444583334,104.03406406875001,59.0,97.0
162,104.36871611250001,104.51349465625,56.0,102.0
163,104.49529844583334,104.5775769625,59.0,93.0
164,104.7484631125,105.26033042291668,64.0,99.0
165,105.25479244583335,105.41381150208335,63.0,112.0
166,106.01428644583335,106.17488778125,64.0,107.0
167,106.39403344583334,106.59102720208334,63.0,122.0
168,106.77378044583334,106.92251468750001,61.0,117.0
169,107.15352744583335,107.24371735833334,61.0,117.0
170,107.40669211250001,107.54672381875001,57.0,93.0
171,107.53327444583334,107.66302133750001,61.0,122.0
172,107.91302144583334,108.12425571458334,59.0,96.0
173,108.29276844583335,108.42567989583334,57.0,92.0
174,108.67251544583334,108.807009175,54.0,102.0
175,108.9256801125,109.15985742916668,52.0,77.0
176,109.81175644583334,109.95178815208334,57.0,93.0
177,110.19150344583335,110.31571236041668,57.0,96.0
178,110.44466811250001,110.60447830833334,54.0,90.0
179,110.57125044583334,110.65590238125002,57.0,79.0
180,110.8244151125,111.06571268541667,64.0,92.0
181,111.33074444583335,111.48026982708335,63.0,102.0
182,111.71049144583334,111.81571301041667,64.0,95.0
183,111.9636561125,112.25004864166668,63.0,89.0
184,112.34340311250001,112.85131472500001,61.0,95.0
185,112.84973244583334,113.01824517708334,59.0,83.0
186,113.22947944583335,113.34419468541668,59.0,86.0
187,113.22947944583335,113.34419468541668,59.0,89.0
188,113.48264411250001,113.59577707291668,56.0,79.0
189,113.60922644583334,113.73976447708334,59.0,78.0
190,113.8623911125,114.11951147708335,62.0,93.0
191,114.24213811250002,114.37900526041668,62.0,82.0
192,114.36872044583335,114.53802431666668,61.0,99.0
193,114.74846744583334,114.85052445208335,62.0,93.0
194,115.0016321125,115.24767652291668,61.0,95.0
195,115.38137911250001,115.93201226250001,59.0,82.0
196,115.88770844583334,116.07599966666668,57.0,86.0
197,116.52062011250001,116.63375307291668,54.0,82.0
198,116.64720244583334,116.8054303625,57.0,88.0
199,116.9003671125,117.45653823958334,64.0,93.0
200,117.40669644583335,117.55938638541667,63.0,86.0
201,118.92568444583334,119.03644398750001,59.0,96.0
202,119.30543144583335,119.43676061666667,59.0,92.0
203,119.55859611250001,119.71365947083335,56.0,76.0
204,119.68517844583334,119.76983038125002,59.0,76.0
205,119.93834311250001,120.37188760416667,62.0,100.0
206,120.44467244583335,120.65669785416668,61.0,102.0
207,121.20416644583335,121.36635006041668,61.0,122.0
208,121.45733111250001,121.76429327083335,59.0,72.0
209,121.96366044583334,122.27220488333334,57.0,89.0
210,122.72315444583334,123.26350278125001,64.0,92.0
211,123.48264844583335,123.79673086041667,63.0,92.0
212,124.24214244583335,124.41065517708334,68.0,127.0
213,124.62188944583335,124.82521231875002,68.0,122.0
214,125.00163644583334,126.37109906458335,64.0,117.0
215,128.03961244583334,128.28565685625,61.0,107.0
216,128.41935944583335,128.64562536666668,64.0,90.0
217,128.79910644583336,128.97315715416667,64.0,90.0
218,129.17885344583334,129.35844213125,61.0,112.0
219,129.55860044583335,129.65670175416668,64.0,97.0
220,129.8117651125,130.06334750000002,61.0,99.0
221,130.19151211250002,130.57917050833333,64.0,100.0
222,130.9510061125,131.0309112104167,56.0,90.0
223,131.07758844583336,131.3228417166667,59.0,96.0
224,131.45733544583334,131.62347475833334,59.0,97.0
225,131.83708244583335,131.95417110416668,59.0,112.0
226,132.0902471125,132.30227252083336,61.0,112.0
227,132.46999411250002,133.376640075,59.0,97.0
228,134.11556444583334,134.31809617916667,57.0,102.0
229,134.49531144583335,134.64958366458333,57.0,96.0
230,134.74847611250001,134.8813875625,54.0,93.0
231,134.87505844583333,134.94388758958334,57.0,96.0
232,135.12822311250002,135.60369800208335,64.0,99.0
233,135.63455244583335,135.79436264166668,63.0,117.0
234,136.01429944583336,136.15907798958335,64.0,112.0
235,136.26746411250002,136.4668312875,63.0,107.0
236,136.6472111125,136.84816056666668,61.0,122.0
237,137.0269581125,137.79752806666667,59.0,107.0
238,138.67252844583334,139.37585153541667,62.0,127.0
239,139.43202244583335,139.75401625625003,61.0,117.0
240,140.19151644583334,140.56335205000002,57.0,122.0
241,140.82442811250002,140.92885853750002,54.0,90.0
242,140.95101044583333,141.03328896250002,57.0,95.0
243,141.20417511250002,141.70575760833336,64.0,102.0
244,141.71050444583335,142.01430204583335,63.0,100.0
245,142.09025144583336,142.16066286875002,64.0,97.0
246,142.34341611250002,142.55069468333335,63.0,112.0
247,142.7231631125,143.06335313333335,61.0,112.0
248,143.22949244583336,143.48740395000002,59.0,112.0
249,143.60923944583334,143.74056861666668,59.0,92.0
250,143.8624041125,143.98661302708334,56.0,95.0
251,143.98898644583335,144.07363838125002,59.0,95.0
252,144.2421511125,144.43202461250002,62.0,112.0
253,144.62189811250002,145.03408183541669,61.0,96.0
254,145.3813921125,145.50243646875,63.0,99.0
255,145.3813921125,145.50718330625003,61.0,96.0
256,145.50797444583336,145.80386065000002,59.0,92.0
257,146.26746844583334,146.44072801458336,57.0,100.0
258,146.64721544583335,146.78250031458336,57.0,99.0
259,146.90038011250002,147.0158864916667,54.0,96.0
260,147.02696244583333,147.10844982291667,57.0,97.0
261,147.28012711250003,147.71525388333336,64.0,88.0
262,147.78645644583335,148.01272236666668,63.0,102.0
263,148.16620344583336,148.28566552291667,64.0,95.0
264,148.41936811250002,148.59262768125,66.0,122.0
265,148.7991151125,148.97712151875,64.0,102.0
266,149.1788621125,149.37506472916667,63.0,107.0
267,149.55860911250002,150.89642614791669,64.0,102.0
268,152.34342044583335,154.04990852708335,66.0,127.0
269,154.62190244583334,154.8457949479167,66.0,127.0
270,155.00164944583335,155.14801026875003,64.0,100.0
271,155.25481411250001,155.37348505000003,63.0,100.0
272,155.38139644583336,155.97870683125,64.0,100.0
273,156.14089044583335,157.28013144583335,59.0,127.0
274,157.28013144583335,157.433612525,61.0,127.0
275,157.5332961125,157.87744183125002,64.0,102.0
276,158.41937244583335,160.11003773541668,66.0,127.0
277,160.69785444583334,160.94943683333335,61.0,122.0
278,161.07760144583335,161.250069875,66.0,127.0
279,161.45734844583336,162.0016524791667,68.0,127.0
280,162.21684244583335,163.41225435625,64.0,127.0
281,164.49532444583335,165.84184401666667,67.0,127.0
282,166.77380644583334,166.90434447708336,67.0,107.0
283,167.15355344583335,167.29279401250002,67.0,100.0
284,167.53330044583336,167.97633861250003,67.0,112.0
285,168.29279444583335,170.0079850625,62.0,117.0
286,170.57127644583335,170.83868162500002,63.0,102.0
287,170.8244411125,172.85450528333334,64.0,99.0
288,172.84975844583334,173.10371425208334,61.0,127.0
289,173.22950544583335,173.43124603958336,64.0,100.0
290,173.60925244583336,174.32681604791668,66.0,127.0
291,174.36874644583335,175.98188005625002,59.0,112.0
292,176.64722844583335,178.16621644583336,65.0,112.0
293,178.54596344583334,178.69548882708335,65.0,117.0
294,178.79912811250003,178.9549826104167,66.0,122.0
295,179.1788751125,179.36004607708335,68.0,127.0
296,179.68520444583336,179.82681843125002,70.0,127.0
297,180.06495144583334,180.19628061666668,66.0,112.0
298,180.44469844583335,180.58393901250003,66.0,127.0
299,180.82444544583336,180.93045815000002,64.0,122.0
300,181.20419244583334,181.32207224375003,66.0,127.0
301,181.4573571125,181.63219896041667,63.0,99.0
302,181.83710411250001,182.22397136875003,66.0,127.0
303,182.5965981125,182.70419309583335,58.0,97.0
304,182.72318044583335,182.9233387604167,61.0,122.0
305,183.10292744583336,183.27776929375003,61.0,127.0
306,183.48267444583334,183.61716817500002,61.0,127.0
307,183.73583911250003,183.97397212708336,63.0,127.0
308,184.1155861125,184.85767504166668,61.0,117.0
309,185.76115644583336,185.92017550208334,59.0,99.0
310,186.14090344583335,186.29280224583334,59.0,90.0
311,186.3940681125,186.522232725,56.0,96.0
312,186.52065044583335,186.59976440416668,59.0,97.0
313,186.77381511250002,187.20182162708335,66.0,127.0
314,187.28014444583334,187.5348913916667,65.0,102.0
315,187.65989144583335,187.80466998958335,66.0,122.0
316,187.91305611250002,188.09264479791668,65.0,102.0
317,188.29280311250002,188.48821458958335,63.0,127.0
318,188.6725501125,189.60293026250002,61.0,112.0
319,190.31812044583336,191.0214435354167,64.0,127.0
320,191.07761444583335,191.39960825625002,63.0,117.0
321,191.83710844583337,192.20894405,59.0,122.0
322,192.4700201125,192.5744505375,56.0,90.0
323,192.59660244583335,192.67888096250002,59.0,95.0
324,192.84976711250002,193.35134960833335,66.0,102.0
325,193.35609644583334,193.65989404583334,65.0,100.0
326,193.73584344583335,193.80625486875002,66.0,97.0
327,193.98900811250002,194.19628668333334,65.0,112.0
328,194.36875511250003,194.70894513333334,63.0,112.0
329,194.87508444583335,195.13299595,61.0,112.0
330,195.25483144583336,195.38616061666667,61.0,92.0
331,195.50799611250002,195.63220502708336,58.0,95.0
332,195.63457844583334,195.71923038125001,61.0,95.0
333,195.8877431125,196.0776166125,64.0,112.0
334,196.2674901125,196.67967383541668,63.0,96.0
335,196.9265093854167,197.04834488125002,65.0,99.0
336,197.02698411250003,197.15277530625002,63.0,96.0
337,197.15356644583335,197.44945265,61.0,92.0
338,197.91306044583334,198.08632001458335,59.0,100.0
339,198.29280744583335,198.42809231458335,59.0,99.0
340,198.5459721125,198.66147849166668,56.0,96.0
341,198.67255444583336,198.7540418229167,59.0,97.0
342,198.92571911250002,199.36084588333335,66.0,88.0
343,199.43204844583335,199.65831436666667,65.0,102.0
344,199.81179544583335,199.9312575229167,66.0,95.0
345,200.06496011250002,200.23821968125003,68.0,122.0
346,200.44470711250003,200.62271351875003,66.0,102.0
347,200.8244541125,201.0206567291667,65.0,107.0
348,201.20420111250002,202.1535686125,66.0,102.0
349,202.09027744583335,202.1931255916667,67.0,127.0
350,202.34344211250001,202.61954982708335,67.0,107.0
351,202.72318911250002,202.92334742708334,65.0,107.0
352,202.84977144583334,203.08632218125,63.0,122.0
353,203.22951844583335,203.4826831125,63.0,127.0
354,203.98901244583334,204.16227201458335,59.0,100.0
355,204.36875944583335,204.50404431458335,59.0,99.0
356,204.6219241125,204.7374304916667,56.0,96.0
357,204.74850644583336,204.8299938229167,59.0,97.0
358,205.00167111250002,205.43679788333336,66.0,88.0
359,205.50800044583335,205.73426636666667,65.0,102.0
360,205.88774744583336,206.0072095229167,66.0,95.0
361,206.14091211250002,206.31417168125003,68.0,122.0
362,206.52065911250003,206.69866551875003,66.0,102.0
363,206.9004061125,207.0966087291667,65.0,107.0
364,207.28015311250002,209.3687616125,66.0,102.0
