,start,end,pitch,velocity
0,0.4446204458333334,0.61471545625,47.0,88.0
1,0.4446204458333334,0.6590192729166667,40.0,60.0
2,0.6977851125000001,0.8267408645833334,47.0,83.0
3,0.8243674458333334,1.0387662729166667,40.0,63.0
4,0.8243674458333334,1.0814878104166668,49.0,72.0
5,1.0775321125000001,1.2159815395833335,47.0,78.0
6,1.2041144458333335,1.40269048125,40.0,66.0
7,1.2041144458333335,1.46439936875,50.0,72.0
8,1.4572791125000002,1.6028487958333335,47.0,71.0
9,1.5838614458333335,1.757912154166667,40.0,73.0
10,1.5838614458333335,1.8037982500000003,49.0,74.0
11,1.8370261125000003,2.0403489854166668,47.0,72.0
12,1.9636084458333336,2.151899666666667,40.0,56.0
13,2.3433554458333337,2.567247947916667,43.0,86.0
14,2.5965201125000004,2.757121447916667,44.0,70.0
15,2.7231024458333337,2.949368366666667,45.0,61.0
16,3.1028494458333338,3.15427351875,45.0,77.0
17,3.3560141125000005,3.421678697916667,47.0,76.0
18,3.482596445833334,3.6028496625,47.0,71.0
19,3.482596445833334,3.663767410416667,40.0,65.0
20,3.7357611125000005,3.8283244437500006,47.0,66.0
21,3.862343445833334,4.0110776875,49.0,82.0
22,3.862343445833334,4.076742272916667,40.0,54.0
23,4.115508112500001,4.2444638645833335,47.0,72.0
24,4.242090445833334,4.46202725,50.0,58.0
25,4.242090445833334,4.472312064583334,40.0,66.0
26,4.495255112500001,4.61629946875,47.0,58.0
27,4.621837445833334,4.832280575,40.0,67.0
28,4.621837445833334,4.844938808333334,49.0,77.0
29,4.875002112500001,5.045097122916667,47.0,69.0
30,5.001584445833334,5.12895791875,40.0,65.0
31,5.254749112500001,5.3401921875000005,55.0,82.0
32,5.381331445833334,5.523736570833334,55.0,73.0
33,5.634496112500001,5.723103745833334,55.0,88.0
34,5.761078445833334,5.895572175000001,55.0,90.0
35,6.520572445833334,7.109180295833334,45.0,73.0
36,6.773737112500001,7.246838583333334,52.0,58.0
37,7.153484112500001,7.378167754166667,57.0,72.0
38,6.900319445833334,7.417724733333334,61.0,93.0
39,6.900319445833334,7.458072852083334,64.0,82.0
40,7.280066445833334,7.860762900000001,45.0,78.0
41,7.533231112500001,7.990509791666668,52.0,67.0
42,7.6598134458333345,8.121047822916667,61.0,86.0
43,7.912978112500001,8.147155429166668,57.0,82.0
44,7.6598134458333345,8.184338989583335,64.0,77.0
45,8.039560445833335,8.618674620833334,45.0,82.0
46,8.292725112500001,8.766617722916667,52.0,63.0
47,8.672472112500001,8.886870939583334,57.0,66.0
48,8.419307445833335,8.897946893750001,61.0,93.0
49,8.419307445833335,8.96440261875,64.0,83.0
50,8.799054445833335,9.187503981250002,45.0,73.0
51,9.052219112500001,9.20174449375,52.0,72.0
52,9.178801445833335,9.541934514583334,61.0,89.0
53,9.178801445833335,9.555383887500001,64.0,81.0
54,9.431966112500001,9.579118075,57.0,86.0
55,9.558548445833335,10.045099289583334,44.0,95.0
56,9.811713112500001,10.254751279166667,51.0,60.0
57,9.938295445833335,10.416934893750001,63.0,69.0
58,9.938295445833335,10.548264064583334,59.0,74.0
59,10.318042445833335,10.901112318750002,44.0,69.0
60,10.571207112500002,11.04826428125,51.0,65.0
61,10.697789445833335,11.206492197916667,63.0,83.0
62,10.697789445833335,11.297473250000001,68.0,90.0
63,10.697789445833335,11.306966925000001,59.0,75.0
64,11.457283445833335,11.770574720833334,63.0,81.0
65,11.457283445833335,11.780068395833334,68.0,81.0
66,11.710448112500002,11.943834289583334,56.0,96.0
67,11.330701112500002,12.093359670833335,51.0,67.0
68,11.077536445833335,12.161397675000002,44.0,90.0
69,12.090195112500002,12.195416677083335,56.0,93.0
70,11.837030445833335,12.255543285416667,59.0,79.0
71,12.343359779166668,12.411397783333335,42.0,25.0
72,12.216777445833335,12.590195329166669,63.0,85.0
73,12.216777445833335,12.596524445833335,68.0,99.0
74,12.469942112500002,12.649530797916668,59.0,72.0
75,12.976271445833335,13.015828425,66.0,74.0
76,12.596524445833335,13.154277852083334,42.0,90.0
77,12.976271445833335,13.379752633333334,61.0,97.0
78,12.976271445833335,13.41693619375,57.0,86.0
79,13.229436112500002,13.480227360416668,66.0,35.0
80,13.609183112500002,13.8180439625,54.0,82.0
81,13.356018445833335,13.868676895833335,42.0,89.0
82,13.735765445833335,13.902695897916669,66.0,107.0
83,13.735765445833335,13.908233875,61.0,127.0
84,13.988930112500002,14.534025285416668,47.0,127.0
85,14.495259445833335,14.876588725000001,66.0,117.0
86,14.495259445833335,14.892411516666668,59.0,93.0
87,14.495259445833335,14.892411516666668,63.0,112.0
88,14.875006445833336,15.271367377083335,54.0,86.0
89,15.128171112500002,15.316462333333336,47.0,66.0
90,15.254753445833336,15.601272583333335,63.0,112.0
91,15.254753445833336,15.604437141666669,66.0,112.0
92,15.507918112500002,15.766620756250001,59.0,90.0
93,15.634500445833336,16.238931087500003,40.0,63.0
94,16.2674121125,16.443836239583334,52.0,79.0
95,16.014247445833334,16.663773043750002,68.0,83.0
96,16.014247445833334,16.67010216041667,59.0,81.0
97,16.014247445833334,16.670893300000003,64.0,86.0
98,16.773741445833334,16.845735147916667,59.0,55.0
99,16.773741445833334,16.911399733333337,64.0,97.0
100,16.773741445833334,16.91931112916667,68.0,102.0
101,16.647159112500002,16.99130483125,52.0,70.0
102,17.406653112500003,17.537982283333335,60.0,81.0
103,17.533235445833334,17.537982283333335,60.0,88.0
104,17.406653112500003,17.53877342291667,48.0,62.0
105,17.533235445833334,17.53877342291667,48.0,78.0
106,17.406653112500003,17.54114684166667,67.0,75.0
107,17.533235445833334,17.54114684166667,67.0,82.0
108,17.406653112500003,17.54193798125,64.0,75.0
109,17.533235445833334,17.54193798125,64.0,89.0
110,18.166147112500003,18.27928007291667,66.0,82.0
111,18.166147112500003,18.28244463125,47.0,86.0
112,18.166147112500003,18.286400329166668,63.0,83.0
113,18.166147112500003,18.304596539583336,59.0,82.0
114,18.292729445833334,18.304596539583336,59.0,78.0
115,18.292729445833334,18.45728647916667,63.0,93.0
116,18.292729445833334,18.472318131250002,66.0,95.0
117,18.292729445833334,18.508710552083336,47.0,92.0
118,18.672476445833336,19.173267802083334,40.0,59.0
119,19.052223445833334,19.19304629166667,68.0,67.0
120,19.052223445833334,19.2009576875,59.0,74.0
121,19.052223445833334,19.20253996666667,64.0,72.0
122,19.3053881125,19.430388166666667,68.0,55.0
123,19.3053881125,19.434343864583337,64.0,73.0
124,19.3053881125,19.451748935416667,59.0,58.0
125,19.811717445833334,19.99526182916667,64.0,72.0
126,19.811717445833334,20.001590945833335,68.0,67.0
127,19.811717445833334,20.008711202083337,59.0,67.0
128,19.431970445833336,20.06725553125,52.0,55.0
129,20.571211445833335,20.667730475000003,59.0,72.0
130,20.571211445833335,20.689882383333334,63.0,69.0
131,20.571211445833335,20.70333175625,56.0,73.0
132,20.191464445833336,20.708078593750002,39.0,63.0
133,20.8243761125,20.911401466666668,59.0,55.0
134,20.8243761125,20.927224258333336,63.0,60.0
135,20.8243761125,20.953331864583337,56.0,57.0
136,20.950958445833336,21.363933308333337,51.0,38.0
137,21.330705445833335,21.45966119791667,59.0,70.0
138,21.330705445833335,21.477857408333335,63.0,72.0
139,21.330705445833335,21.486559943750002,56.0,72.0
140,21.710452445833337,22.11788933125,37.0,59.0
141,22.090199445833335,22.237351408333335,64.0,63.0
142,22.090199445833335,22.253174200000004,61.0,74.0
143,22.090199445833335,22.253174200000004,68.0,60.0
144,22.3433641125,22.4667818875,64.0,63.0
145,22.3433641125,22.492889493750003,61.0,53.0
146,22.3433641125,22.495262912500003,68.0,62.0
147,22.469946445833337,22.93118082291667,49.0,59.0
148,22.849693445833335,23.106022670833337,64.0,71.0
149,22.849693445833335,23.136877114583335,68.0,74.0
150,23.1028581125,23.141623952083336,61.0,35.0
151,23.229440445833337,23.720738127083337,45.0,66.0
152,23.609187445833335,23.81409259791667,61.0,69.0
153,23.609187445833335,23.819630575,57.0,70.0
154,23.609187445833335,23.824377412500002,64.0,69.0
155,23.8623521125,23.984187608333336,57.0,59.0
156,23.8623521125,24.066466125,61.0,63.0
157,23.8623521125,24.124219314583335,64.0,63.0
158,23.988934445833337,24.382921958333334,45.0,55.0
159,24.242099112500004,24.422478937500003,52.0,51.0
160,24.368681445833335,24.73814363125,61.0,77.0
161,24.368681445833335,24.75159300416667,64.0,73.0
162,25.128175445833335,25.21440966041667,61.0,40.0
163,25.128175445833335,25.3148843875,57.0,77.0
164,24.748428445833337,25.33782743541667,42.0,72.0
165,25.381340112500002,25.527700935416668,57.0,59.0
166,25.381340112500002,25.538776889583335,61.0,70.0
167,25.507922445833337,25.928017564583335,54.0,53.0
168,25.887669445833335,26.287194935416668,66.0,76.0
169,25.887669445833335,26.29747975,61.0,77.0
170,26.140834112500002,26.314884820833335,57.0,56.0
171,26.647163445833336,26.827543270833335,59.0,67.0
172,26.647163445833336,26.827543270833335,66.0,65.0
173,26.647163445833336,26.841783783333337,63.0,66.0
174,26.267416445833337,26.973904093750004,47.0,54.0
175,26.900328112500002,27.029283864583334,59.0,58.0
176,26.900328112500002,27.0617205875,66.0,59.0
177,26.900328112500002,27.064885145833337,63.0,67.0
178,27.026910445833337,27.318049812500004,54.0,53.0
179,27.406657445833336,27.784031027083337,63.0,67.0
180,27.406657445833336,27.804600656250003,66.0,73.0
181,27.659822112500002,27.88925259166667,59.0,64.0
182,28.166151445833336,28.34020215416667,68.0,65.0
183,28.166151445833336,28.35444266666667,59.0,69.0
184,28.166151445833336,28.35444266666667,64.0,67.0
185,27.786404445833337,28.436721183333336,40.0,62.0
186,28.419316112500002,28.628968102083338,68.0,62.0
187,28.419316112500002,28.636088358333335,59.0,69.0
188,28.419316112500002,28.66061368541667,64.0,72.0
189,28.545898445833338,28.8655188375,52.0,63.0
190,28.799063112500004,28.866309977083336,68.0,27.0
191,28.799063112500004,28.871056814583337,64.0,27.0
192,28.925645445833336,29.205708858333335,64.0,81.0
193,28.925645445833336,29.21441139375,68.0,85.0
194,29.685139445833336,29.858399014583338,53.0,46.0
195,29.685139445833336,29.862354712500004,56.0,86.0
196,29.685139445833336,29.86947496875,61.0,48.0
197,29.938304112500003,30.101278866666668,56.0,63.0
198,29.938304112500003,30.13688014791667,61.0,71.0
199,29.305392445833338,30.181183964583337,37.0,81.0
200,30.064886445833338,30.695424693750002,49.0,64.0
201,30.444633445833336,30.78957030416667,56.0,79.0
202,30.444633445833336,30.810139933333335,61.0,78.0
203,30.697798112500003,30.8354564,53.0,47.0
204,30.824380445833338,31.301437614583335,42.0,55.0
205,31.204127445833336,31.38767182916667,61.0,83.0
206,31.204127445833336,31.39241866666667,57.0,63.0
207,31.204127445833336,31.39241866666667,66.0,86.0
208,31.457292112500003,31.576754189583337,57.0,54.0
209,31.457292112500003,31.60839977291667,61.0,66.0
210,31.457292112500003,31.626595983333335,66.0,67.0
211,31.583874445833338,32.06567845208334,54.0,53.0
212,31.963621445833336,32.37738744791667,66.0,72.0
213,32.2167861125,32.390836820833336,57.0,73.0
214,31.963621445833336,32.40507733333334,61.0,76.0
215,32.723115445833336,32.927229458333336,66.0,81.0
216,32.723115445833336,32.94305225,63.0,68.0
217,32.723115445833336,32.963621879166666,59.0,63.0
218,32.343368445833335,32.96599529791667,47.0,55.0
219,32.9762801125,33.170900450000005,63.0,43.0
220,32.9762801125,33.19859033541667,59.0,67.0
221,33.10286244583334,33.42722967500001,47.0,51.0
222,33.48260944583333,33.78086906875,66.0,74.0
223,33.48260944583333,33.84890707291667,63.0,81.0
224,33.7357741125,33.89874886666667,59.0,42.0
225,34.24210344583334,34.3338756375,56.0,69.0
226,33.862356445833335,34.40824275833334,44.0,55.0
227,34.24210344583334,34.41773643333334,59.0,68.0
228,34.24210344583334,34.44067948125,63.0,77.0
229,34.4952681125,34.64954033125,59.0,65.0
230,34.4952681125,34.737356825000006,63.0,68.0
231,34.62185044583334,34.84890750625,44.0,58.0
232,34.8750151125,35.15428738541667,56.0,72.0
233,35.00159744583333,35.276122881250004,59.0,71.0
234,35.00159744583333,35.328338093750006,63.0,66.0
235,35.76109144583334,35.897958593750005,56.0,58.0
236,35.76109144583334,35.94384468958334,65.0,63.0
237,35.76109144583334,35.95650292291667,61.0,50.0
238,36.0142561125,36.10840172291667,56.0,51.0
239,36.0142561125,36.12738907291667,61.0,47.0
240,36.0142561125,36.142420725,65.0,61.0
241,35.381344445833335,36.16061693541667,37.0,44.0
242,36.14083844583334,36.72786401666667,49.0,58.0
243,36.52058544583333,36.86710458333334,65.0,66.0
244,36.52058544583333,36.91536409791667,61.0,71.0
245,36.773750112500004,36.92406663333334,56.0,44.0
246,36.900332445833335,37.405870639583334,42.0,66.0
247,37.28007944583334,37.46916180625001,66.0,67.0
248,37.28007944583334,37.48182003958334,61.0,66.0
249,37.28007944583334,37.512674483333335,57.0,69.0
250,37.5332441125,37.69226316875,57.0,63.0
251,37.5332441125,37.74368724166667,61.0,66.0
252,37.5332441125,37.814098664583334,66.0,63.0
253,37.65982644583334,38.10207347291667,54.0,58.0
254,38.039573445833334,38.394795118750004,66.0,68.0
255,38.039573445833334,38.402706514583336,61.0,81.0
256,38.292738112500004,38.41694702708334,57.0,47.0
257,38.79906744583334,39.00634601666667,63.0,63.0
258,38.79906744583334,39.010301714583335,66.0,76.0
259,38.79906744583334,39.016630831250005,59.0,66.0
260,38.419320445833335,39.06251692708334,47.0,50.0
261,39.0522321125,39.20175749375,59.0,59.0
262,39.0522321125,39.22470054166667,63.0,66.0
263,39.0522321125,39.2326119375,66.0,59.0
264,39.17881444583334,39.47628292916667,54.0,48.0
265,39.558561445833334,39.86710588333334,63.0,93.0
266,39.558561445833334,39.906662862500006,66.0,92.0
267,39.811726112500004,40.00001733333334,59.0,35.0
268,40.31805544583334,40.503182108333334,68.0,81.0
269,40.31805544583334,40.51346692291667,64.0,77.0
270,40.31805544583334,40.51584034166667,59.0,82.0
271,39.938308445833336,40.529289714583335,40.0,72.0
272,40.5712201125,40.963625345833336,59.0,67.0
273,40.5712201125,40.97707471875,68.0,69.0
274,40.5712201125,40.99210637083334,64.0,73.0
275,41.077549445833334,41.41299262916667,68.0,95.0
276,41.077549445833334,41.420904025000006,64.0,85.0
277,41.457296445833336,41.52770786875001,59.0,45.0
278,40.69780244583334,41.54194838125,52.0,79.0
279,41.710461112500006,41.85365737708334,64.0,78.0
280,41.83704344583334,41.85365737708334,64.0,88.0
281,41.710461112500006,41.85365737708334,67.0,73.0
282,41.83704344583334,41.85365737708334,67.0,86.0
283,41.710461112500006,41.856030795833334,48.0,69.0
284,41.83704344583334,41.856030795833334,48.0,75.0
285,41.710461112500006,41.860777633333335,60.0,88.0
286,41.83704344583334,41.860777633333335,60.0,93.0
287,42.4699551125,42.532455139583334,47.0,37.0
288,42.4699551125,42.5933728875,54.0,92.0
289,42.4699551125,42.59416402708334,66.0,81.0
290,42.4699551125,42.59732858541667,59.0,85.0
291,42.596537445833334,42.59732858541667,59.0,93.0
292,42.4699551125,42.59891086458334,63.0,86.0
293,42.596537445833334,42.59891086458334,63.0,112.0
294,42.596537445833334,42.762676758333335,54.0,93.0
295,42.596537445833334,42.764259037500004,47.0,65.0
296,42.596537445833334,42.77849955000001,66.0,99.0
297,42.976284445833336,43.477075802083334,40.0,59.0
298,43.35603144583334,43.49685429166667,68.0,67.0
299,43.35603144583334,43.504765687500004,59.0,74.0
300,43.35603144583334,43.506347966666674,64.0,72.0
301,43.6091961125,43.73419616666667,68.0,55.0
302,43.6091961125,43.73815186458334,64.0,73.0
303,43.6091961125,43.75555693541667,59.0,58.0
304,44.115525445833335,44.29906982916667,64.0,72.0
305,44.115525445833335,44.30539894583334,68.0,67.0
306,44.115525445833335,44.31251920208334,59.0,67.0
307,43.73577844583334,44.37106353125,52.0,55.0
308,44.87501944583334,44.971538475,59.0,72.0
309,44.87501944583334,44.99369038333334,63.0,69.0
310,44.87501944583334,45.007139756250005,56.0,73.0
311,44.495272445833336,45.011886593750006,39.0,63.0
312,45.1281841125,45.21520946666667,59.0,55.0
313,45.1281841125,45.231032258333336,63.0,60.0
314,45.1281841125,45.25713986458334,56.0,57.0
315,45.25476644583334,45.66774130833334,51.0,38.0
316,45.634513445833335,45.76346919791667,59.0,70.0
317,45.634513445833335,45.78166540833334,63.0,72.0
318,45.634513445833335,45.790367943750006,56.0,72.0
319,46.01426044583334,46.42169733125,37.0,59.0
320,46.39400744583334,46.541159408333336,64.0,63.0
321,46.39400744583334,46.55698220000001,61.0,74.0
322,46.39400744583334,46.55698220000001,68.0,60.0
323,46.6471721125,46.7705898875,64.0,63.0
324,46.6471721125,46.79669749375,61.0,53.0
325,46.6471721125,46.79907091250001,68.0,62.0
326,46.77375444583334,47.23498882291667,49.0,59.0
327,47.153501445833335,47.40983067083334,64.0,71.0
328,47.153501445833335,47.44068511458334,68.0,74.0
329,47.406666112500005,47.44543195208334,61.0,35.0
330,47.53324844583334,48.02454612708334,45.0,66.0
331,47.91299544583334,48.11790059791667,61.0,69.0
332,47.91299544583334,48.123438575,57.0,70.0
333,47.91299544583334,48.1281854125,64.0,69.0
334,48.1661601125,48.28799560833334,57.0,59.0
335,48.1661601125,48.370274125,61.0,63.0
336,48.1661601125,48.42802731458334,64.0,63.0
337,48.29274244583334,48.68672995833334,45.0,55.0
338,48.545907112500004,48.72628693750001,52.0,51.0
339,48.672489445833335,49.04195163125001,61.0,77.0
340,48.672489445833335,49.05540100416667,64.0,73.0
341,49.43198344583334,49.518217660416674,61.0,40.0
342,49.43198344583334,49.618692387500005,57.0,77.0
343,49.05223644583334,49.641635435416674,42.0,72.0
344,49.6851481125,49.83150893541667,57.0,59.0
345,49.6851481125,49.842584889583335,61.0,70.0
346,49.81173044583334,50.23182556458334,54.0,53.0
347,50.191477445833335,50.59100293541667,66.0,76.0
348,50.191477445833335,50.601287750000004,61.0,77.0
349,50.444642112500006,50.61869282083334,57.0,56.0
350,50.95097144583334,51.131351270833335,59.0,67.0
351,50.95097144583334,51.131351270833335,66.0,65.0
352,50.95097144583334,51.14559178333334,63.0,66.0
353,50.57122444583334,51.277712093750004,47.0,54.0
354,51.2041361125,51.33309186458334,59.0,58.0
355,51.2041361125,51.3655285875,66.0,59.0
356,51.2041361125,51.36869314583334,63.0,67.0
357,51.33071844583334,51.621857812500004,54.0,53.0
358,51.710465445833336,52.08783902708334,63.0,67.0
359,51.710465445833336,52.108408656250006,66.0,73.0
360,51.963630112500006,52.19306059166667,59.0,64.0
361,52.46995944583334,52.64401015416667,68.0,65.0
362,52.46995944583334,52.658250666666675,59.0,69.0
363,52.46995944583334,52.658250666666675,64.0,67.0
364,52.09021244583334,52.74052918333334,40.0,62.0
365,52.7231241125,52.93277610208334,68.0,62.0
366,52.7231241125,52.939896358333336,59.0,69.0
367,52.7231241125,52.964421685416674,64.0,72.0
368,52.84970644583334,53.1693268375,52.0,63.0
369,53.102871112500004,53.170117977083336,68.0,27.0
370,53.102871112500004,53.17486481458334,64.0,27.0
371,53.229453445833336,53.50951685833334,64.0,81.0
372,53.229453445833336,53.51821939375,68.0,85.0
373,53.98894744583334,54.16220701458334,53.0,46.0
374,53.98894744583334,54.166162712500004,56.0,86.0
375,53.98894744583334,54.17328296875001,61.0,48.0
376,54.2421121125,54.40508686666667,56.0,63.0
377,54.2421121125,54.440688147916674,61.0,71.0
378,53.60920044583334,54.48499196458334,37.0,81.0
379,54.36869444583334,54.99923269375,49.0,64.0
380,54.748441445833336,55.09337830416667,56.0,79.0
381,54.748441445833336,55.113947933333336,61.0,78.0
382,55.001606112500006,55.1392644,53.0,47.0
383,55.12818844583334,55.60524561458334,42.0,55.0
384,55.50793544583334,55.691479829166674,61.0,83.0
385,55.50793544583334,55.696226666666675,57.0,63.0
386,55.50793544583334,55.696226666666675,66.0,86.0
387,55.7611001125,55.88056218958334,57.0,54.0
388,55.7611001125,55.91220777291667,61.0,66.0
389,55.7611001125,55.93040398333334,66.0,67.0
390,55.88768244583334,56.369486452083336,54.0,53.0
391,56.267429445833336,56.68119544791667,66.0,72.0
392,56.52059411250001,56.69464482083334,57.0,73.0
393,56.267429445833336,56.70888533333334,61.0,76.0
394,57.02692344583334,57.23103745833334,66.0,81.0
395,57.02692344583334,57.246860250000005,63.0,68.0
396,57.02692344583334,57.26742987916667,59.0,63.0
397,56.64717644583334,57.269803297916674,47.0,55.0
398,57.2800881125,57.47470845000001,63.0,43.0
399,57.2800881125,57.50239833541667,59.0,67.0
400,57.40667044583334,57.731037675,47.0,51.0
401,57.78641744583334,58.084677068750004,66.0,74.0
402,57.78641744583334,58.15271507291667,63.0,81.0
403,58.03958211250001,58.202556866666676,59.0,42.0
404,58.54591144583334,58.637683637500004,56.0,69.0
405,58.16616444583334,58.71205075833334,44.0,55.0
406,58.54591144583334,58.72154443333334,59.0,68.0
407,58.54591144583334,58.744487481250005,63.0,77.0
408,58.7990761125,58.953348331250005,59.0,65.0
409,58.7990761125,59.041164825,63.0,68.0
410,58.92565844583334,59.152715506250004,44.0,58.0
411,59.178823112500005,59.45809538541667,56.0,72.0
412,59.30540544583334,59.57993088125001,59.0,71.0
413,59.30540544583334,59.63214609375001,63.0,66.0
414,60.06489944583334,60.20176659375001,56.0,58.0
415,60.06489944583334,60.24765268958334,65.0,63.0
416,60.06489944583334,60.26031092291667,61.0,50.0
417,60.318064112500004,60.41220972291667,56.0,51.0
418,60.318064112500004,60.431197072916675,61.0,47.0
419,60.318064112500004,60.446228725000005,65.0,61.0
420,59.68515244583334,60.46442493541667,37.0,44.0
421,60.44464644583334,61.031672016666676,49.0,58.0
422,60.82439344583334,61.17091258333334,65.0,66.0
423,60.82439344583334,61.21917209791667,61.0,71.0
424,61.07755811250001,61.227874633333336,56.0,44.0
425,61.20414044583334,61.70967863958334,42.0,66.0
426,61.58388744583334,61.77296980625,66.0,67.0
427,61.58388744583334,61.78562803958334,61.0,66.0
428,61.58388744583334,61.81648248333334,57.0,69.0
429,61.837052112500004,61.99607116875001,57.0,63.0
430,61.837052112500004,62.047495241666674,61.0,66.0
431,61.837052112500004,62.11790666458334,66.0,63.0
432,61.96363444583334,62.405881472916676,54.0,58.0
433,62.34338144583334,62.69860311875001,66.0,68.0
434,62.34338144583334,62.70651451458334,61.0,81.0
435,62.59654611250001,62.72075502708334,57.0,47.0
436,63.10287544583334,63.31015401666667,63.0,63.0
437,63.10287544583334,63.31410971458334,66.0,76.0
438,63.10287544583334,63.32043883125001,59.0,66.0
439,62.72312844583334,63.36632492708334,47.0,50.0
440,63.356040112500004,63.505565493750005,59.0,59.0
441,63.356040112500004,63.528508541666675,63.0,66.0
442,63.356040112500004,63.53641993750001,66.0,59.0
443,63.48262244583334,63.780090929166676,54.0,48.0
444,63.86236944583334,64.17091388333334,63.0,93.0
445,63.86236944583334,64.2104708625,66.0,92.0
446,64.1155341125,64.30382533333334,59.0,35.0
447,64.62186344583334,64.80699010833334,68.0,81.0
448,64.62186344583334,64.81727492291667,64.0,77.0
449,64.62186344583334,64.81964834166668,59.0,82.0
450,64.24211644583335,64.83309771458335,40.0,72.0
451,64.8750281125,65.26743334583334,59.0,67.0
452,64.8750281125,65.28088271875001,68.0,69.0
453,64.8750281125,65.29591437083334,64.0,73.0
454,65.38135744583334,65.71680062916667,68.0,95.0
455,65.38135744583334,65.724712025,64.0,85.0
456,65.00161044583334,65.76110444583334,52.0,79.0
457,66.14085144583333,66.31173759583334,68.0,89.0
458,66.14085144583333,66.31885785208334,64.0,85.0
459,66.14085144583333,66.32439582916668,59.0,79.0
460,65.76110444583334,66.34971229583334,40.0,69.0
461,66.39401611250001,66.49449083958334,59.0,63.0
462,66.39401611250001,66.50161109583334,68.0,63.0
463,66.39401611250001,66.51426932916667,64.0,74.0
464,66.52059844583334,66.55461744791667,64.0,122.0
465,66.52059844583334,66.55857314583334,61.0,127.0
466,66.52059844583334,66.57281365833335,68.0,127.0
467,66.52059844583334,66.58151619375,49.0,122.0
468,66.64718077916667,66.6883200375,64.0,92.0
469,66.64718077916667,66.68990231666668,49.0,74.0
470,66.64718077916667,66.70018713125,68.0,97.0
471,66.64718077916667,66.71284536458334,61.0,93.0
472,66.7737631125,66.81885806875,68.0,95.0
473,66.7737631125,66.82439604583334,64.0,95.0
474,66.7737631125,66.84496567500001,61.0,89.0
475,66.7737631125,66.85841504791668,49.0,82.0
476,66.90034544583334,66.94544040208334,64.0,99.0
477,66.90034544583334,66.9493961,68.0,100.0
478,66.90034544583334,66.95968091458334,61.0,100.0
479,66.90034544583334,66.97629484583334,49.0,127.0
480,67.02692777916667,67.06727589791667,64.0,95.0
481,67.02692777916667,67.07281387500001,68.0,96.0
482,67.02692777916667,67.08151641041667,61.0,90.0
483,67.02692777916667,67.09338350416667,49.0,86.0
484,67.1535101125,67.19939620833334,64.0,95.0
485,67.1535101125,67.20414304583333,68.0,112.0
486,67.1535101125,67.20809874375,61.0,90.0
487,67.1535101125,67.21126330208334,49.0,95.0
488,67.65983944583334,67.85287750416667,61.0,86.0
489,67.65983944583334,67.85604206250001,64.0,78.0
490,67.65983944583334,67.85683320208334,57.0,73.0
491,67.28009244583333,67.92012436875001,45.0,71.0
492,67.9130041125,68.07202316875001,57.0,69.0
493,67.9130041125,68.10445989166668,61.0,69.0
494,67.9130041125,68.174080175,64.0,73.0
495,68.03958644583334,68.62661201666667,45.0,82.0
496,68.2927511125,68.80224500416668,52.0,81.0
497,68.67249811250001,68.83230830833334,57.0,81.0
498,68.41933344583335,68.9003463125,61.0,82.0
499,68.41933344583335,68.94227671041668,64.0,77.0
500,69.17882744583333,69.38294145833333,64.0,81.0
501,69.17882744583333,69.38768829583334,61.0,90.0
502,68.79908044583334,69.40271994791668,45.0,68.0
503,69.17882744583333,69.64243524166667,57.0,75.0
504,69.43199211250001,69.67724538333334,61.0,72.0
505,69.43199211250001,69.72550489791668,64.0,73.0
506,69.55857444583334,69.92566321250001,45.0,72.0
507,69.8117391125,69.99923919375,52.0,90.0
508,70.1914861125,70.29354311875001,57.0,92.0
509,69.93832144583334,70.30224565416667,61.0,127.0
510,69.93832144583334,70.30620135208333,64.0,96.0
511,70.69781544583334,70.91300541250001,68.0,79.0
512,70.69781544583334,70.92803706458334,63.0,102.0
513,70.69781544583334,70.93673960000001,59.0,90.0
514,70.31806844583333,70.95493581041667,44.0,95.0
515,70.9509801125,71.13689791458334,63.0,78.0
516,70.9509801125,71.14560045,59.0,72.0
517,70.9509801125,71.14876500833334,68.0,77.0
518,71.07756244583334,71.82914505000001,56.0,92.0
519,71.45730944583335,71.89955647291667,63.0,112.0
520,71.45730944583335,71.90430331041668,68.0,107.0
521,71.45730944583335,71.91300584583334,59.0,88.0
522,72.21680344583334,72.39006301458333,68.0,90.0
523,72.21680344583334,72.40193010833335,59.0,88.0
524,72.21680344583334,72.40667694583334,63.0,93.0
525,72.46996811250001,72.51427192916667,59.0,53.0
526,72.46996811250001,72.65272135625001,68.0,89.0
527,72.46996811250001,72.65351249583334,63.0,89.0
528,72.59655044583334,72.88531639375,51.0,58.0
529,72.59655044583334,72.89243665000001,56.0,96.0
530,71.83705644583334,72.939905025,44.0,79.0
531,72.84971511250001,73.05936710208334,59.0,97.0
532,72.97629744583334,73.33705709583334,68.0,112.0
533,72.97629744583334,73.34101279375001,63.0,93.0
534,73.73579144583334,73.93832317916667,66.0,96.0
535,73.73579144583334,73.94860799375,61.0,99.0
536,73.73579144583334,73.95335483125001,57.0,81.0
537,73.35604444583333,74.10288021250001,42.0,85.0
538,73.9889561125,74.15272200625,57.0,66.0
539,73.9889561125,74.18357645,61.0,76.0
540,73.9889561125,74.18753214791667,66.0,90.0
541,74.11553844583334,74.53088672708334,54.0,89.0
542,74.49528544583335,74.64085512916667,57.0,81.0
543,74.49528544583335,74.87107674791667,61.0,127.0
544,74.49528544583335,74.87740586458334,66.0,100.0
545,75.25477944583334,75.44702636458334,63.0,112.0
546,75.25477944583334,75.45572890000001,66.0,102.0
547,75.25477944583334,75.45889345833334,59.0,85.0
548,74.87503244583334,75.73579231250001,47.0,66.0
549,75.50794411250001,75.78246954791668,59.0,70.0
550,75.50794411250001,75.87740629791668,63.0,97.0
551,75.50794411250001,75.87740629791668,66.0,86.0
552,75.63452644583334,75.94148860416668,54.0,96.0
553,75.88769111250001,76.11633045208335,47.0,34.0
554,76.01427344583334,76.33547611666667,63.0,117.0
555,76.01427344583334,76.35129890833333,66.0,112.0
556,76.2674381125,76.57835596875,59.0,76.0
557,76.77376744583334,76.95810296875001,68.0,92.0
558,76.77376744583334,76.97313462083333,64.0,90.0
559,76.77376744583334,76.97629917916667,59.0,82.0
560,76.39402044583333,77.04433718333334,40.0,82.0
561,77.0269321125,77.31728033958333,59.0,78.0
562,77.0269321125,77.38531834375,68.0,90.0
563,77.0269321125,77.40114113541668,64.0,83.0
564,77.15351444583334,77.62345135833334,52.0,71.0
565,77.53326144583335,77.82598309166667,68.0,117.0
566,77.53326144583335,77.85209069791668,64.0,97.0
567,77.78642611250001,77.97629961250001,59.0,58.0
568,78.29275544583334,78.49291376041667,68.0,99.0
569,78.29275544583334,78.49449603958334,62.0,99.0
570,78.29275544583334,78.4984517375,59.0,90.0
571,78.29275544583334,78.50161629583334,64.0,97.0
572,77.91300844583334,78.53405301875,40.0,69.0
573,78.54592011250001,78.75398982291668,59.0,81.0
574,78.54592011250001,78.75794552083335,62.0,86.0
575,78.54592011250001,78.92487597291668,68.0,86.0
576,78.54592011250001,78.92566711250001,64.0,86.0
577,78.67250244583335,79.08943300625,52.0,77.0
578,79.05224944583334,79.38927490833333,62.0,107.0
579,79.05224944583334,79.39323060625001,68.0,117.0
580,79.05224944583334,79.39718630416668,64.0,102.0
581,79.3054141125,79.44069898125001,59.0,95.0
582,79.81174344583334,80.00794606250001,61.0,100.0
583,79.81174344583334,80.01031948125001,64.0,89.0
584,79.81174344583334,80.01585745833334,57.0,88.0
585,79.43199644583333,80.174085375,45.0,78.0
586,80.0649081125,80.24528793750001,57.0,86.0
587,80.0649081125,80.26585756666667,61.0,89.0
588,80.0649081125,80.35050950208334,64.0,76.0
589,80.19149044583334,80.86633251041667,52.0,59.0
590,80.57123744583335,80.914592025,64.0,97.0
591,80.57123744583335,81.01111105416668,61.0,127.0
592,80.82440211250001,81.01585789166667,57.0,86.0
593,81.33073144583334,81.52376950416668,66.0,117.0
594,81.33073144583334,81.53009862083334,63.0,122.0
595,81.33073144583334,81.54513027291668,59.0,93.0
596,80.95098444583334,81.59576320625001,47.0,77.0
597,81.58389611250001,81.66775690833335,59.0,68.0
598,81.58389611250001,81.96601653125,63.0,90.0
599,81.58389611250001,81.97392792708334,66.0,90.0
600,81.71047844583335,82.0206051625,54.0,85.0
601,82.09022544583334,82.50161802916668,63.0,83.0
602,82.09022544583334,82.50399144791668,66.0,89.0
603,82.84971944583334,83.04671320208334,63.0,100.0
604,82.84971944583334,83.04987776041668,68.0,93.0
605,82.84971944583334,83.05304231875,59.0,92.0
606,82.46997244583333,83.14323223125001,44.0,78.0
607,83.1028841125,83.19861200208334,59.0,68.0
608,83.1028841125,83.25794747083334,68.0,90.0
609,83.1028841125,83.26744114583335,63.0,90.0
610,83.22946644583334,83.55225139583334,56.0,96.0
611,83.4826311125,83.69149196250001,63.0,122.0
612,83.4826311125,83.6962388,59.0,95.0
613,83.4826311125,83.70968817291667,68.0,112.0
614,83.86237811250001,84.00636551666668,68.0,96.0
615,83.86237811250001,84.01981488958334,63.0,107.0
616,83.86237811250001,84.03247312291667,59.0,78.0
617,84.36870744583334,84.49291636041667,65.0,65.0
618,84.36870744583334,84.49924547708333,61.0,73.0
619,84.36870744583334,84.53405561875,56.0,77.0
620,84.62187211250001,84.75636584166668,65.0,85.0
621,84.62187211250001,84.77060635416667,61.0,86.0
622,84.62187211250001,84.78247344791667,56.0,82.0
623,83.98896044583334,84.90747350208333,37.0,89.0
624,84.74845444583335,85.11158751458335,49.0,56.0
625,85.00161911250001,85.20494198541668,65.0,83.0
626,85.00161911250001,85.22313819583334,61.0,89.0
627,85.00161911250001,85.23896098750001,56.0,95.0
628,85.3813661125,85.50794844583334,65.0,85.0
629,85.3813661125,85.54671428541667,61.0,102.0
630,85.3813661125,85.56886619375001,56.0,97.0
631,85.88769544583334,86.08627148125001,66.0,99.0
632,85.88769544583334,86.08785376041668,57.0,92.0
633,85.88769544583334,86.09022717916667,61.0,112.0
634,85.50794844583334,86.18437278958334,42.0,86.0
635,86.14086011250001,86.30383486666668,61.0,92.0
636,86.14086011250001,86.31016398333334,66.0,99.0
637,86.5206071125,86.62820209583334,57.0,100.0
638,86.26744244583334,86.64798058541668,54.0,88.0
639,86.5206071125,86.75478442916668,61.0,76.0
640,86.5206071125,86.76427810416668,66.0,73.0
641,86.90035411250001,87.10130356666667,57.0,82.0
642,86.90035411250001,87.12899345208334,61.0,127.0
643,86.90035411250001,87.14006940625,66.0,99.0
644,87.40668344583334,87.57677845625001,66.0,107.0
645,87.40668344583334,87.58073415416668,63.0,102.0
646,87.40668344583334,87.58627213125001,59.0,85.0
647,87.65984811250001,87.83389882083334,59.0,71.0
648,87.65984811250001,87.85525958958334,63.0,117.0
649,87.65984811250001,87.85842414791668,66.0,117.0
650,87.78643044583335,88.01269636666667,54.0,86.0
651,87.02693644583334,88.07598753333335,47.0,68.0
652,88.03959511250001,88.24450026458334,59.0,75.0
653,88.03959511250001,88.25241166041667,66.0,100.0
654,88.03959511250001,88.26506989375001,63.0,112.0
655,88.4193421125,88.59339282083334,63.0,117.0
656,88.4193421125,88.61712700833334,66.0,112.0
657,88.4193421125,88.68358273333334,59.0,77.0
658,88.92567144583334,89.09893101458334,68.0,112.0
659,88.92567144583334,89.10130443333334,59.0,93.0
660,88.92567144583334,89.11079810833334,64.0,107.0
661,88.54592444583334,89.21285511458335,40.0,69.0
662,89.17883611250001,89.40272861458334,64.0,92.0
663,89.17883611250001,89.40272861458334,68.0,97.0
664,89.17883611250001,89.41222228958334,59.0,81.0
665,89.5585831125,89.78405789375,68.0,112.0
666,89.5585831125,89.78959587083334,59.0,86.0
667,89.5585831125,89.79671612708334,64.0,99.0
668,89.30541844583334,89.97472253333335,52.0,74.0
669,89.93833011250001,90.11475423958335,59.0,90.0
670,90.06491244583334,90.11475423958335,59.0,102.0
671,89.93833011250001,90.11475423958335,68.0,102.0
672,90.06491244583334,90.11475423958335,68.0,117.0
673,89.93833011250001,90.12266563541668,64.0,97.0
674,90.06491244583334,90.12266563541668,64.0,117.0
675,90.06491244583334,90.13136817083334,52.0,117.0
676,90.19149477916667,90.24766568958334,68.0,100.0
677,90.19149477916667,90.25241252708334,64.0,97.0
678,90.19149477916667,90.25874164375001,59.0,86.0
679,90.19149477916667,90.27377329583334,52.0,89.0
680,90.3180771125,90.37187460416668,52.0,86.0
681,90.3180771125,90.37662144166667,59.0,70.0
682,90.3180771125,90.37662144166667,68.0,112.0
683,90.3180771125,90.38136827916668,64.0,100.0
684,90.44465944583334,90.49845693750001,64.0,127.0
685,90.44465944583334,90.503203775,68.0,127.0
686,90.44465944583334,90.51032403125001,59.0,102.0
687,90.44465944583334,90.52535568333334,52.0,112.0
688,90.82440644583335,90.87503937916668,61.0,127.0
689,90.82440644583335,90.87662165833335,68.0,127.0
690,90.82440644583335,90.88611533333334,49.0,117.0
691,90.95098877916668,91.00715968958335,68.0,107.0
692,90.95098877916668,91.01427994583334,61.0,117.0
693,90.95098877916668,91.02377362083334,49.0,89.0
694,91.07757111250001,91.12978632500001,68.0,102.0
695,91.07757111250001,91.14007113958334,61.0,99.0
696,91.07757111250001,91.14165341875001,49.0,112.0
697,91.20415344583334,91.2532041,68.0,122.0
698,91.20415344583334,91.25478637916667,61.0,112.0
699,91.20415344583334,91.25636865833334,49.0,127.0
700,91.58390044583334,92.17250829583334,45.0,73.0
701,91.83706511250001,92.31016658333334,52.0,58.0
702,92.21681211250001,92.44149575416668,57.0,72.0
703,91.96364744583335,92.48105273333334,61.0,93.0
704,91.96364744583335,92.52140085208335,64.0,82.0
705,92.34339444583334,92.92409090000001,45.0,78.0
706,92.5965591125,93.05383779166668,52.0,67.0
707,92.72314144583335,93.18437582291668,61.0,86.0
708,92.97630611250001,93.21048342916667,57.0,82.0
709,92.72314144583335,93.24766698958334,64.0,77.0
710,93.10288844583334,93.68200262083334,45.0,82.0
711,93.3560531125,93.82994572291668,52.0,63.0
712,93.73580011250002,93.95019893958334,57.0,66.0
713,93.48263544583334,93.96127489375002,61.0,93.0
714,93.48263544583334,94.02773061875001,64.0,83.0
715,93.86238244583335,94.25083198125,45.0,73.0
716,94.11554711250001,94.26507249375001,52.0,72.0
717,94.24212944583334,94.60526251458334,61.0,89.0
718,94.24212944583334,94.61871188750001,64.0,81.0
719,94.4952941125,94.64244607500001,57.0,86.0
720,94.62187644583334,95.10842728958335,44.0,95.0
721,94.87504111250001,95.31807927916668,51.0,60.0
722,95.00162344583335,95.48026289375001,63.0,69.0
723,95.00162344583335,95.61159206458335,59.0,74.0
724,95.38137044583334,95.96444031875001,44.0,69.0
725,95.6345351125,96.11159228125001,51.0,65.0
726,95.76111744583335,96.26982019791667,63.0,83.0
727,95.76111744583335,96.36080125000001,68.0,90.0
728,95.76111744583335,96.37029492500001,59.0,75.0
729,96.52061144583334,96.83390272083334,63.0,81.0
730,96.52061144583334,96.84339639583334,68.0,81.0
731,96.77377611250002,97.00716228958335,56.0,96.0
732,96.39402911250001,97.15668767083335,51.0,67.0
733,96.14086444583334,97.22472567500002,44.0,90.0
734,97.15352311250001,97.25874467708334,56.0,93.0
735,96.90035844583335,97.31887128541668,59.0,79.0
736,97.40668777916667,97.47472578333334,42.0,25.0
737,97.28010544583334,97.65352332916667,63.0,85.0
738,97.28010544583334,97.65985244583334,68.0,99.0
739,97.5332701125,97.71285879791668,59.0,72.0
740,98.03959944583335,98.07915642500001,66.0,74.0
741,97.65985244583334,98.21760585208334,42.0,90.0
742,98.03959944583335,98.44308063333334,61.0,97.0
743,98.03959944583335,98.48026419375,57.0,86.0
744,98.29276411250001,98.54355536041668,66.0,35.0
745,98.6725111125,98.88137196250001,54.0,82.0
746,98.41934644583334,98.93200489583334,42.0,89.0
747,98.79909344583334,98.96602389791667,66.0,107.0
748,98.79909344583334,98.971561875,61.0,127.0
749,99.05225811250001,99.59735328541667,47.0,127.0
750,99.55858744583334,99.939916725,66.0,117.0
751,99.55858744583334,99.95573951666668,59.0,93.0
752,99.55858744583334,99.95573951666668,63.0,112.0
753,99.93833444583335,100.33469537708335,54.0,86.0
754,100.19149911250001,100.37979033333335,47.0,66.0
755,100.31808144583334,100.66460058333334,63.0,112.0
756,100.31808144583334,100.66776514166668,66.0,112.0
757,100.5712461125,100.82994875625,59.0,90.0
758,100.69782844583334,101.3022590875,40.0,63.0
759,101.33074011250001,101.50716423958335,52.0,79.0
760,101.07757544583335,101.72710104375001,68.0,83.0
761,101.07757544583335,101.73343016041667,59.0,81.0
762,101.07757544583335,101.73422130000002,64.0,86.0
763,101.83706944583334,101.90906314791668,59.0,55.0
764,101.83706944583334,101.97472773333334,64.0,97.0
765,101.83706944583334,101.98263912916667,68.0,102.0
766,101.7104871125,102.05463283125,52.0,70.0
767,102.46998111250001,102.60131028333335,60.0,81.0
768,102.59656344583334,102.60131028333335,60.0,88.0
769,102.46998111250001,102.60210142291668,48.0,62.0
770,102.59656344583334,102.60210142291668,48.0,78.0
771,102.46998111250001,102.60447484166667,67.0,75.0
772,102.59656344583334,102.60447484166667,67.0,82.0
773,102.46998111250001,102.60526598125001,64.0,75.0
774,102.59656344583334,102.60526598125001,64.0,89.0
775,103.22947511250001,103.34260807291668,66.0,82.0
776,103.22947511250001,103.34577263125001,47.0,86.0
777,103.22947511250001,103.34972832916668,63.0,83.0
778,103.22947511250001,103.36792453958334,59.0,82.0
779,103.35605744583334,103.36792453958334,59.0,78.0
780,103.35605744583334,103.52061447916668,63.0,93.0
781,103.35605744583334,103.53564613125,66.0,95.0
782,103.35605744583334,103.57203855208334,47.0,92.0
783,103.73580444583334,104.23659580208334,40.0,59.0
784,104.11555144583335,104.25637429166667,68.0,67.0
785,104.11555144583335,104.2642856875,59.0,74.0
786,104.11555144583335,104.26586796666668,64.0,72.0
787,104.36871611250001,104.49371616666667,68.0,55.0
788,104.36871611250001,104.49767186458334,64.0,73.0
789,104.36871611250001,104.51507693541667,59.0,58.0
790,104.87504544583334,105.05858982916668,64.0,72.0
791,104.87504544583334,105.06491894583334,68.0,67.0
792,104.87504544583334,105.07203920208335,59.0,67.0
793,104.49529844583334,105.13058353125001,52.0,55.0
794,105.63453944583334,105.73105847500001,59.0,72.0
795,105.63453944583334,105.75321038333334,63.0,69.0
796,105.63453944583334,105.76665975625001,56.0,73.0
797,105.25479244583335,105.77140659375002,39.0,63.0
798,105.8877041125,105.97472946666667,59.0,55.0
799,105.8877041125,105.99055225833334,63.0,60.0
800,105.8877041125,106.01665986458335,56.0,57.0
801,106.01428644583335,106.42726130833334,51.0,38.0
802,106.39403344583334,106.52298919791667,59.0,70.0
803,106.39403344583334,106.54118540833335,63.0,72.0
804,106.39403344583334,106.54988794375001,56.0,72.0
805,106.77378044583334,107.18121733125001,37.0,59.0
806,107.15352744583335,107.30067940833334,64.0,63.0
807,107.15352744583335,107.31650220000002,61.0,74.0
808,107.15352744583335,107.31650220000002,68.0,60.0
809,107.40669211250001,107.5301098875,64.0,63.0
810,107.40669211250001,107.55621749375001,61.0,53.0
811,107.40669211250001,107.55859091250001,68.0,62.0
812,107.53327444583334,107.99450882291667,49.0,59.0
813,107.91302144583334,108.16935067083334,64.0,71.0
814,107.91302144583334,108.20020511458334,68.0,74.0
815,108.16618611250001,108.20495195208335,61.0,35.0
816,108.29276844583335,108.78406612708335,45.0,66.0
817,108.67251544583334,108.87742059791668,61.0,69.0
818,108.67251544583334,108.882958575,57.0,70.0
819,108.67251544583334,108.88770541250001,64.0,69.0
820,108.9256801125,109.04751560833334,57.0,59.0
821,108.9256801125,109.129794125,61.0,63.0
822,108.9256801125,109.18754731458334,64.0,63.0
823,109.05226244583335,109.44624995833334,45.0,55.0
824,109.30542711250001,109.48580693750002,52.0,51.0
825,109.43200944583334,109.80147163125001,61.0,77.0
826,109.43200944583334,109.81492100416668,64.0,73.0
827,110.19150344583335,110.27773766041668,61.0,40.0
828,110.19150344583335,110.37821238750001,57.0,77.0
829,109.81175644583334,110.40115543541668,42.0,72.0
830,110.44466811250001,110.59102893541667,57.0,59.0
831,110.44466811250001,110.60210488958334,61.0,70.0
832,110.57125044583334,110.99134556458334,54.0,53.0
833,110.95099744583334,111.35052293541668,66.0,76.0
834,110.95099744583334,111.36080775,61.0,77.0
835,111.20416211250001,111.37821282083334,57.0,56.0
836,111.71049144583334,111.89087127083334,59.0,67.0
837,111.71049144583334,111.89087127083334,66.0,65.0
838,111.71049144583334,111.90511178333334,63.0,66.0
839,111.33074444583335,112.03723209375,47.0,54.0
840,111.9636561125,112.09261186458335,59.0,58.0
841,111.9636561125,112.1250485875,66.0,59.0
842,111.9636561125,112.12821314583334,63.0,67.0
843,112.09023844583335,112.3813778125,54.0,53.0
844,112.46998544583334,112.84735902708334,63.0,67.0
845,112.46998544583334,112.86792865625002,66.0,73.0
846,112.72315011250001,112.95258059166667,59.0,64.0
847,113.22947944583335,113.40353015416667,68.0,65.0
848,113.22947944583335,113.41777066666668,59.0,69.0
849,113.22947944583335,113.41777066666668,64.0,67.0
850,112.84973244583334,113.50004918333335,40.0,62.0
851,113.48264411250001,113.69229610208335,68.0,62.0
852,113.48264411250001,113.69941635833334,59.0,69.0
853,113.48264411250001,113.72394168541668,64.0,72.0
854,113.60922644583334,113.92884683750002,52.0,63.0
855,113.8623911125,113.92963797708335,68.0,27.0
856,113.8623911125,113.93438481458334,64.0,27.0
857,113.98897344583334,114.26903685833335,64.0,81.0
858,113.98897344583334,114.27773939375001,68.0,85.0
859,114.74846744583334,114.92172701458334,53.0,46.0
860,114.74846744583334,114.9256827125,56.0,86.0
861,114.74846744583334,114.93280296875001,61.0,48.0
862,115.0016321125,115.16460686666667,56.0,63.0
863,115.0016321125,115.20020814791668,61.0,71.0
864,114.36872044583335,115.24451196458334,37.0,81.0
865,115.12821444583335,115.75875269375001,49.0,64.0
866,115.50796144583335,115.85289830416667,56.0,79.0
867,115.50796144583335,115.87346793333334,61.0,78.0
868,115.76112611250001,115.89878440000001,53.0,47.0
869,115.88770844583334,116.36476561458335,42.0,55.0
870,116.26745544583335,116.45099982916668,61.0,83.0
871,116.26745544583335,116.45574666666668,57.0,63.0
872,116.26745544583335,116.45574666666668,66.0,86.0
873,116.52062011250001,116.64008218958334,57.0,54.0
874,116.52062011250001,116.67172777291668,61.0,66.0
875,116.52062011250001,116.68992398333334,66.0,67.0
876,116.64720244583334,117.12900645208335,54.0,53.0
877,117.02694944583334,117.44071544791667,66.0,72.0
878,117.28011411250002,117.45416482083334,57.0,73.0
879,117.02694944583334,117.46840533333335,61.0,76.0
880,117.78644344583334,117.99055745833334,66.0,81.0
881,117.78644344583334,118.00638025,63.0,68.0
882,117.78644344583334,118.02694987916668,59.0,63.0
883,117.40669644583335,118.02932329791668,47.0,55.0
884,118.0396081125,118.23422845000002,63.0,43.0
885,118.0396081125,118.26191833541668,59.0,67.0
886,118.16619044583335,118.490557675,47.0,51.0
887,118.54593744583335,118.84419706875,66.0,74.0
888,118.54593744583335,118.91223507291667,63.0,81.0
889,118.79910211250001,118.96207686666668,59.0,42.0
890,119.30543144583335,119.39720363750001,56.0,69.0
891,118.92568444583334,119.47157075833334,44.0,55.0
892,119.30543144583335,119.48106443333334,59.0,68.0
893,119.30543144583335,119.50400748125001,63.0,77.0
894,119.55859611250001,119.71286833125001,59.0,65.0
895,119.55859611250001,119.800684825,63.0,68.0
896,119.68517844583334,119.91223550625001,44.0,58.0
897,119.93834311250001,120.21761538541668,56.0,72.0
898,120.06492544583334,120.33945088125002,59.0,71.0
899,120.06492544583334,120.39166609375002,63.0,66.0
900,120.82441944583334,120.96128659375002,56.0,58.0
901,120.82441944583334,121.00717268958334,65.0,63.0
902,120.82441944583334,121.01983092291668,61.0,50.0
903,121.0775841125,121.17172972291668,56.0,51.0
904,121.0775841125,121.19071707291668,61.0,47.0
905,121.0775841125,121.205748725,65.0,61.0
906,120.44467244583335,121.22394493541668,37.0,44.0
907,121.20416644583335,121.79119201666668,49.0,58.0
908,121.58391344583335,121.93043258333334,65.0,66.0
909,121.58391344583335,121.97869209791668,61.0,71.0
910,121.83707811250001,121.98739463333334,56.0,44.0
911,121.96366044583334,122.46919863958334,42.0,66.0
912,122.34340744583335,122.53248980625001,66.0,67.0
913,122.34340744583335,122.54514803958334,61.0,66.0
914,122.34340744583335,122.57600248333334,57.0,69.0
915,122.59657211250001,122.75559116875002,57.0,63.0
916,122.59657211250001,122.80701524166668,61.0,66.0
917,122.59657211250001,122.87742666458334,66.0,63.0
918,122.72315444583334,123.16540147291668,54.0,58.0
919,123.10290144583334,123.45812311875001,66.0,68.0
920,123.10290144583334,123.46603451458334,61.0,81.0
921,123.35606611250002,123.48027502708335,57.0,47.0
922,123.86239544583334,124.06967401666668,63.0,63.0
923,123.86239544583334,124.07362971458335,66.0,76.0
924,123.86239544583334,124.07995883125001,59.0,66.0
925,123.48264844583335,124.12584492708335,47.0,50.0
926,124.1155601125,124.26508549375001,59.0,59.0
927,124.1155601125,124.28802854166668,63.0,66.0
928,124.1155601125,124.29593993750001,66.0,59.0
929,124.24214244583335,124.53961092916668,54.0,48.0
930,124.62188944583335,124.93043388333335,63.0,93.0
931,124.62188944583335,124.96999086250001,66.0,92.0
932,124.87505411250001,125.06334533333334,59.0,35.0
933,125.38138344583335,125.56651010833335,68.0,81.0
934,125.38138344583335,125.57679492291668,64.0,77.0
935,125.38138344583335,125.57916834166667,59.0,82.0
936,125.00163644583334,125.59261771458334,40.0,72.0
937,125.63454811250001,126.02695334583335,59.0,67.0
938,125.63454811250001,126.04040271875002,68.0,69.0
939,125.63454811250001,126.05543437083334,64.0,73.0
940,126.14087744583334,126.47632062916668,68.0,95.0
941,126.14087744583334,126.48423202500001,64.0,85.0
942,125.76113044583334,126.52062444583335,52.0,79.0
943,126.90037144583334,127.07125759583334,68.0,89.0
944,126.90037144583334,127.07837785208335,64.0,85.0
945,126.90037144583334,127.08391582916668,59.0,79.0
946,126.52062444583335,127.10923229583335,40.0,69.0
947,127.1535361125,127.25401083958334,59.0,63.0
948,127.1535361125,127.26113109583335,68.0,63.0
949,127.1535361125,127.27378932916668,64.0,74.0
950,127.28011844583335,127.31413744791668,64.0,122.0
951,127.28011844583335,127.31809314583334,61.0,127.0
952,127.28011844583335,127.33233365833334,68.0,127.0
953,127.28011844583335,127.34103619375001,49.0,122.0
954,127.40670077916668,127.44784003750001,64.0,92.0
955,127.40670077916668,127.44942231666668,49.0,74.0
956,127.40670077916668,127.45970713125001,68.0,97.0
957,127.40670077916668,127.47236536458334,61.0,93.0
958,127.53328311250002,127.57837806875001,68.0,95.0
959,127.53328311250002,127.58391604583335,64.0,95.0
960,127.53328311250002,127.604485675,61.0,89.0
961,127.53328311250002,127.61793504791667,49.0,82.0
962,127.65986544583335,127.70496040208334,64.0,99.0
963,127.65986544583335,127.70891610000001,68.0,100.0
964,127.65986544583335,127.71920091458334,61.0,100.0
965,127.65986544583335,127.73581484583335,49.0,127.0
966,127.78644777916668,127.82679589791668,64.0,95.0
967,127.78644777916668,127.83233387500002,68.0,96.0
968,127.78644777916668,127.84103641041668,61.0,90.0
969,127.78644777916668,127.85290350416668,49.0,86.0
970,127.91303011250001,127.95891620833335,64.0,95.0
971,127.91303011250001,127.96366304583334,68.0,112.0
972,127.91303011250001,127.96761874375001,61.0,90.0
973,127.91303011250001,127.97078330208335,49.0,95.0
974,128.41935944583335,128.61239750416667,61.0,86.0
975,128.41935944583335,128.6155620625,64.0,78.0
976,128.41935944583335,128.61635320208333,57.0,73.0
977,128.03961244583334,128.67964436875002,45.0,71.0
978,128.6725241125,128.83154316875002,57.0,69.0
979,128.6725241125,128.86397989166667,61.0,69.0
980,128.6725241125,128.933600175,64.0,73.0
981,128.79910644583336,129.3861320166667,45.0,82.0
982,129.05227111250002,129.5617650041667,52.0,81.0
983,129.4320181125,129.59182830833333,57.0,81.0
984,129.17885344583334,129.65986631250001,61.0,82.0
985,129.17885344583334,129.7017967104167,64.0,77.0
986,129.93834744583336,130.14246145833334,64.0,81.0
987,129.93834744583336,130.14720829583334,61.0,90.0
988,129.55860044583335,130.16223994791667,45.0,68.0
989,129.93834744583336,130.40195524166668,57.0,75.0
990,130.19151211250002,130.43676538333335,61.0,72.0
991,130.19151211250002,130.48502489791667,64.0,73.0
992,130.31809444583334,130.68518321250002,45.0,72.0
993,130.5712591125,130.75875919375002,52.0,90.0
994,130.9510061125,131.05306311875,57.0,92.0
995,130.69784144583335,131.0617656541667,61.0,127.0
996,130.69784144583335,131.06572135208336,64.0,96.0
997,131.45733544583334,131.67252541250002,68.0,79.0
998,131.45733544583334,131.68755706458336,63.0,102.0
999,131.45733544583334,131.69625960000002,59.0,90.0
1000,131.07758844583336,131.71445581041667,44.0,95.0
1001,131.7105001125,131.89641791458334,63.0,78.0
1002,131.7105001125,131.90512045,59.0,72.0
1003,131.7105001125,131.90828500833334,68.0,77.0
1004,131.83708244583335,132.58866505,56.0,92.0
1005,132.21682944583335,132.65907647291667,63.0,112.0
1006,132.21682944583335,132.6638233104167,68.0,107.0
1007,132.21682944583335,132.67252584583335,59.0,88.0
1008,132.97632344583334,133.14958301458336,68.0,90.0
1009,132.97632344583334,133.16145010833336,59.0,88.0
1010,132.97632344583334,133.16619694583335,63.0,93.0
1011,133.2294881125,133.2737919291667,59.0,53.0
1012,133.2294881125,133.41224135625,68.0,89.0
1013,133.2294881125,133.41303249583333,63.0,89.0
1014,133.35607044583335,133.64483639375,51.0,58.0
1015,133.35607044583335,133.65195665000002,56.0,96.0
1016,132.59657644583334,133.699425025,44.0,79.0
1017,133.60923511250002,133.81888710208335,59.0,97.0
1018,133.73581744583333,134.09657709583334,68.0,112.0
1019,133.73581744583333,134.10053279375,63.0,93.0
1020,134.49531144583335,134.69784317916668,66.0,96.0
1021,134.49531144583335,134.70812799375003,61.0,99.0
1022,134.49531144583335,134.71287483125002,57.0,81.0
1023,134.11556444583334,134.8624002125,42.0,85.0
1024,134.74847611250001,134.91224200625,57.0,66.0
1025,134.74847611250001,134.94309645,61.0,76.0
1026,134.74847611250001,134.94705214791668,66.0,90.0
1027,134.87505844583333,135.29040672708334,54.0,89.0
1028,135.25480544583334,135.4003751291667,57.0,81.0
1029,135.25480544583334,135.63059674791668,61.0,127.0
1030,135.25480544583334,135.63692586458333,66.0,100.0
1031,136.01429944583336,136.20654636458335,63.0,112.0
1032,136.01429944583336,136.2152489,66.0,102.0
1033,136.01429944583336,136.21841345833334,59.0,85.0
1034,135.63455244583335,136.4953123125,47.0,66.0
1035,136.26746411250002,136.54198954791667,59.0,70.0
1036,136.26746411250002,136.6369262979167,63.0,97.0
1037,136.26746411250002,136.6369262979167,66.0,86.0
1038,136.39404644583334,136.70100860416667,54.0,96.0
1039,136.6472111125,136.87585045208334,47.0,34.0
1040,136.77379344583335,137.0949961166667,63.0,117.0
1041,136.77379344583335,137.11081890833336,66.0,112.0
1042,137.0269581125,137.33787596875,59.0,76.0
1043,137.53328744583334,137.71762296875002,68.0,92.0
1044,137.53328744583334,137.73265462083336,64.0,90.0
1045,137.53328744583334,137.73581917916667,59.0,82.0
1046,137.15354044583336,137.80385718333335,40.0,82.0
1047,137.7864521125,138.07680033958334,59.0,78.0
1048,137.7864521125,138.14483834375002,68.0,90.0
1049,137.7864521125,138.1606611354167,64.0,83.0
1050,137.91303444583335,138.38297135833335,52.0,71.0
1051,138.29278144583336,138.58550309166668,68.0,117.0
1052,138.29278144583336,138.6116106979167,64.0,97.0
1053,138.54594611250002,138.73581961250002,59.0,58.0
1054,139.05227544583335,139.2524337604167,68.0,99.0
1055,139.05227544583335,139.25401603958335,62.0,99.0
1056,139.05227544583335,139.25797173750001,59.0,90.0
1057,139.05227544583335,139.26113629583335,64.0,97.0
1058,138.67252844583334,139.29357301875,40.0,69.0
1059,139.3054401125,139.5135098229167,59.0,81.0
1060,139.3054401125,139.51746552083335,62.0,86.0
1061,139.3054401125,139.6843959729167,68.0,86.0
1062,139.3054401125,139.68518711250002,64.0,86.0
1063,139.43202244583335,139.84895300625,52.0,77.0
1064,139.81176944583333,140.14879490833334,62.0,107.0
1065,139.81176944583333,140.15275060625,68.0,117.0
1066,139.81176944583333,140.15670630416668,64.0,102.0
1067,140.06493411250003,140.20021898125,59.0,95.0
1068,140.57126344583335,140.7674660625,61.0,100.0
1069,140.57126344583335,140.76983948125002,64.0,89.0
1070,140.57126344583335,140.77537745833334,57.0,88.0
1071,140.19151644583334,140.933605375,45.0,78.0
1072,140.82442811250002,141.0048079375,57.0,86.0
1073,140.82442811250002,141.0253775666667,61.0,89.0
1074,140.82442811250002,141.11002950208334,64.0,76.0
1075,140.95101044583333,141.62585251041668,52.0,59.0
1076,141.33075744583334,141.674112025,64.0,97.0
1077,141.33075744583334,141.77063105416667,61.0,127.0
1078,141.5839221125,141.7753778916667,57.0,86.0
1079,142.09025144583336,142.28328950416667,66.0,117.0
1080,142.09025144583336,142.28961862083335,63.0,122.0
1081,142.09025144583336,142.3046502729167,59.0,93.0
1082,141.71050444583335,142.35528320625002,47.0,77.0
1083,142.34341611250002,142.42727690833334,59.0,68.0
1084,142.34341611250002,142.72553653125001,63.0,90.0
1085,142.34341611250002,142.73344792708335,66.0,90.0
1086,142.46999844583334,142.7801251625,54.0,85.0
1087,142.84974544583335,143.2611380291667,63.0,83.0
1088,142.84974544583335,143.26351144791667,66.0,89.0
1089,143.60923944583334,143.80623320208335,63.0,100.0
1090,143.60923944583334,143.8093977604167,68.0,93.0
1091,143.60923944583334,143.81256231875003,59.0,92.0
1092,143.22949244583336,143.90275223125002,44.0,78.0
1093,143.8624041125,143.95813200208335,59.0,68.0
1094,143.8624041125,144.01746747083334,68.0,90.0
1095,143.8624041125,144.02696114583335,63.0,90.0
1096,143.98898644583335,144.31177139583335,56.0,96.0
1097,144.2421511125,144.45101196250002,63.0,122.0
1098,144.2421511125,144.4557588,59.0,95.0
1099,144.2421511125,144.4692081729167,68.0,112.0
1100,144.62189811250002,144.76588551666669,68.0,96.0
1101,144.62189811250002,144.77933488958334,63.0,107.0
1102,144.62189811250002,144.7919931229167,59.0,78.0
1103,145.12822744583335,145.25243636041668,65.0,65.0
1104,145.12822744583335,145.25876547708336,61.0,73.0
1105,145.12822744583335,145.29357561875003,56.0,77.0
1106,145.3813921125,145.5158858416667,65.0,85.0
1107,145.3813921125,145.53012635416667,61.0,86.0
1108,145.3813921125,145.54199344791667,56.0,82.0
1109,144.74848044583334,145.66699350208336,37.0,89.0
1110,145.50797444583336,145.87110751458334,49.0,56.0
1111,145.76113911250002,145.96446198541668,65.0,83.0
1112,145.76113911250002,145.98265819583335,61.0,89.0
1113,145.76113911250002,145.99848098750002,56.0,95.0
1114,146.14088611250003,146.26746844583334,65.0,85.0
1115,146.14088611250003,146.30623428541668,61.0,102.0
1116,146.14088611250003,146.32838619375002,56.0,97.0
1117,146.64721544583335,146.84579148125002,66.0,99.0
1118,146.64721544583335,146.84737376041667,57.0,92.0
1119,146.64721544583335,146.84974717916668,61.0,112.0
1120,146.26746844583334,146.94389278958334,42.0,86.0
1121,146.90038011250002,147.06335486666669,61.0,92.0
1122,146.90038011250002,147.06968398333333,66.0,99.0
1123,147.28012711250003,147.38772209583334,57.0,100.0
1124,147.02696244583333,147.40750058541667,54.0,88.0
1125,147.28012711250003,147.51430442916669,61.0,76.0
1126,147.28012711250003,147.52379810416667,66.0,73.0
1127,147.6598741125,147.86082356666668,57.0,82.0
1128,147.6598741125,147.88851345208334,61.0,127.0
1129,147.6598741125,147.89958940625002,66.0,99.0
1130,148.16620344583336,148.33629845625,66.0,107.0
1131,148.16620344583336,148.34025415416667,63.0,102.0
1132,148.16620344583336,148.34579213125002,59.0,85.0
1133,148.41936811250002,148.59341882083334,59.0,71.0
1134,148.41936811250002,148.61477958958335,63.0,117.0
1135,148.41936811250002,148.6179441479167,66.0,117.0
1136,148.54595044583334,148.77221636666667,54.0,86.0
1137,147.78645644583335,148.83550753333336,47.0,68.0
1138,148.7991151125,149.00402026458335,59.0,75.0
1139,148.7991151125,149.01193166041668,66.0,100.0
1140,148.7991151125,149.02458989375,63.0,112.0
1141,149.1788621125,149.35291282083335,63.0,117.0
1142,149.1788621125,149.37664700833335,66.0,112.0
1143,149.1788621125,149.44310273333335,59.0,77.0
1144,149.68519144583334,149.85845101458335,68.0,112.0
1145,149.68519144583334,149.86082443333333,59.0,93.0
1146,149.68519144583334,149.87031810833335,64.0,107.0
1147,149.30544444583336,149.97237511458334,40.0,69.0
1148,149.9383561125,150.16224861458335,64.0,92.0
1149,149.9383561125,150.16224861458335,68.0,97.0
1150,149.9383561125,150.17174228958334,59.0,81.0
1151,150.3181031125,150.54357789375,68.0,112.0
1152,150.3181031125,150.54911587083336,59.0,86.0
1153,150.3181031125,150.55623612708334,64.0,99.0
1154,150.06493844583335,150.73424253333334,52.0,74.0
1155,150.69785011250002,150.87427423958334,59.0,90.0
1156,150.82443244583334,150.87427423958334,59.0,102.0
1157,150.69785011250002,150.87427423958334,68.0,102.0
1158,150.82443244583334,150.87427423958334,68.0,117.0
1159,150.69785011250002,150.88218563541668,64.0,97.0
1160,150.82443244583334,150.88218563541668,64.0,117.0
1161,150.82443244583334,150.89088817083334,52.0,117.0
1162,150.95101477916668,151.00718568958334,68.0,100.0
1163,150.95101477916668,151.01193252708336,64.0,97.0
1164,150.95101477916668,151.01826164375,59.0,86.0
1165,150.95101477916668,151.03329329583335,52.0,89.0
1166,151.0775971125,151.13139460416667,52.0,86.0
1167,151.0775971125,151.1361414416667,59.0,70.0
1168,151.0775971125,151.1361414416667,68.0,112.0
1169,151.0775971125,151.1408882791667,64.0,100.0
1170,151.20417944583335,151.25797693750002,64.0,127.0
1171,151.20417944583335,151.262723775,68.0,127.0
1172,151.20417944583335,151.26984403125002,59.0,102.0
1173,151.20417944583335,151.28487568333335,52.0,112.0
1174,151.58392644583336,151.6345593791667,61.0,127.0
1175,151.58392644583336,151.63614165833334,68.0,127.0
1176,151.58392644583336,151.64563533333336,49.0,117.0
1177,151.71050877916667,151.76667968958336,68.0,107.0
1178,151.71050877916667,151.77379994583336,61.0,117.0
1179,151.71050877916667,151.78329362083335,49.0,89.0
1180,151.83709111250002,151.889306325,68.0,102.0
1181,151.83709111250002,151.89959113958335,61.0,99.0
1182,151.83709111250002,151.90117341875,49.0,112.0
1183,151.96367344583334,152.0127241,68.0,122.0
1184,151.96367344583334,152.01430637916667,61.0,112.0
1185,151.96367344583334,152.01588865833335,49.0,127.0
1186,152.34342044583335,152.71288263125,38.0,86.0
1187,152.5965851125,152.7192117479167,62.0,96.0
1188,152.5965851125,152.72791428333335,57.0,89.0
1189,152.5965851125,152.74136365625,66.0,100.0
1190,152.97633211250002,153.08550937500002,62.0,88.0
1191,152.97633211250002,153.10291444583333,57.0,72.0
1192,152.97633211250002,153.1226929354167,66.0,85.0
1193,152.84974977916667,153.21130056875,50.0,93.0
1194,153.35607911250003,153.47316777083336,62.0,89.0
1195,153.10291444583333,153.48661714375,38.0,77.0
1196,153.35607911250003,153.48740828333334,57.0,75.0
1197,153.35607911250003,153.50164879583335,66.0,83.0
1198,153.7358261125,153.82443374583335,62.0,99.0
1199,153.7358261125,153.83867425833336,57.0,82.0
1200,153.48266144583334,153.8402565375,50.0,76.0
1201,153.7358261125,153.86636414375002,66.0,92.0
1202,153.6092437791667,153.92965531041668,45.0,53.0
1203,154.11557311250002,154.22712379375002,62.0,95.0
1204,154.11557311250002,154.2484845625,57.0,79.0
1205,153.86240844583335,154.2532314,38.0,77.0
1206,154.11557311250002,154.25956051666668,66.0,88.0
1207,154.49532011250002,154.57601635,62.0,95.0
1208,154.49532011250002,154.59579483958333,57.0,83.0
1209,154.49532011250002,154.64484549375,66.0,100.0
1210,154.36873777916668,154.65592144791668,50.0,67.0
1211,154.36873777916668,154.67728221666667,45.0,42.0
1212,154.8750671125,154.96525702500003,62.0,72.0
1213,154.8750671125,155.03329502916668,57.0,78.0
1214,154.8750671125,155.04357984375002,66.0,83.0
1215,154.62190244583334,155.19389636458334,38.0,64.0
1216,155.00164944583335,155.307029325,45.0,57.0
1217,155.00164944583335,155.3275989541667,50.0,70.0
1218,155.25481411250001,155.36320023541668,57.0,82.0
1219,155.25481411250001,155.3655736541667,62.0,90.0
1220,155.25481411250001,155.36952935208336,66.0,88.0
1221,155.38139644583336,155.78804219166668,40.0,88.0
1222,155.63456111250002,155.79120675000001,68.0,100.0
1223,155.63456111250002,155.79278902916667,59.0,86.0
1224,155.63456111250002,155.79358016875003,64.0,99.0
1225,155.76114344583334,156.09025751250002,47.0,59.0
1226,155.76114344583334,156.09025751250002,52.0,89.0
1227,156.0143081125,156.1393081666667,59.0,89.0
1228,156.0143081125,156.1393081666667,64.0,97.0
1229,156.0143081125,156.1393081666667,68.0,99.0
1230,156.3940551125,156.52459314375002,59.0,88.0
1231,156.3940551125,156.5285488416667,64.0,96.0
1232,156.14089044583335,156.5317134,40.0,82.0
1233,156.3940551125,156.53646023750002,68.0,99.0
1234,156.52063744583336,156.84896037291668,47.0,50.0
1235,156.52063744583336,156.86478316458334,52.0,93.0
1236,156.77380211250002,156.90829584166667,59.0,90.0
1237,156.77380211250002,156.90908698125003,64.0,97.0
1238,156.77380211250002,156.9114604,68.0,96.0
1239,157.1535491125,157.28804284166668,64.0,93.0
1240,157.1535491125,157.28883398125,68.0,95.0
1241,157.1535491125,157.29516309791669,59.0,86.0
1242,156.90038444583334,157.31652386666667,40.0,83.0
1243,157.28013144583335,157.63614425833336,47.0,72.0
1244,157.28013144583335,157.6440556541667,52.0,74.0
1245,157.5332961125,157.65354932916668,59.0,79.0
1246,157.5332961125,157.67411895833334,64.0,93.0
1247,157.5332961125,157.67570123750002,68.0,95.0
1248,157.91304311250002,158.09658749583335,64.0,95.0
1249,157.91304311250002,158.10054319375,68.0,99.0
1250,157.91304311250002,158.10212547291667,59.0,86.0
1251,158.03962544583334,158.30070150833336,52.0,95.0
1252,157.65987844583336,158.32443569583336,40.0,81.0
1253,158.03962544583334,158.326017975,47.0,63.0
1254,158.29279011250003,158.38851800208334,68.0,95.0
1255,158.29279011250003,158.40117623541667,64.0,99.0
1256,158.29279011250003,158.44468891250003,59.0,86.0
1257,158.41937244583335,158.77854981666667,38.0,85.0
1258,158.6725371125,158.8141510979167,57.0,96.0
1259,158.6725371125,158.82364477291668,66.0,99.0
1260,158.6725371125,158.82760047083335,62.0,100.0
1261,158.79911944583336,159.1662082125,45.0,58.0
1262,159.05228411250002,159.17016391041668,57.0,92.0
1263,158.79911944583336,159.17649302708335,50.0,88.0
1264,159.05228411250002,159.17886644583334,66.0,102.0
1265,159.05228411250002,159.1851955625,62.0,102.0
1266,159.43203111250003,159.54911977083336,66.0,95.0
1267,159.43203111250003,159.56019572500003,62.0,97.0
1268,159.43203111250003,159.56494256250002,57.0,89.0
1269,159.17886644583334,159.6187400541667,38.0,82.0
1270,159.55861344583334,159.91462625833336,45.0,92.0
1271,159.55861344583334,159.91937309583335,50.0,100.0
1272,159.8117781125,159.92728449166668,66.0,100.0
1273,159.8117781125,159.94310728333335,62.0,99.0
1274,159.8117781125,159.94548070208336,57.0,93.0
1275,160.19152511250002,160.33867707500002,66.0,93.0
1276,160.19152511250002,160.34896188958334,62.0,97.0
1277,160.19152511250002,160.35054416875002,57.0,92.0
1278,159.93836044583335,160.3908922875,38.0,92.0
1279,160.31810744583336,160.66304430416668,45.0,90.0
1280,160.31810744583336,160.66937342083335,50.0,107.0
1281,160.57127211250003,160.70260128333334,57.0,82.0
1282,160.57127211250003,160.70260128333334,66.0,92.0
1283,160.57127211250003,160.72000635416669,62.0,93.0
1284,160.69785444583334,161.1163672854167,38.0,89.0
1285,160.9510191125,161.13772805416667,66.0,95.0
1286,160.9510191125,161.15275970625,62.0,99.0
1287,160.9510191125,161.15829768333336,57.0,92.0
1288,161.07760144583335,161.38614588333334,45.0,49.0
1289,161.07760144583335,161.439943375,50.0,107.0
1290,161.33076611250002,161.439943375,62.0,90.0
1291,161.33076611250002,161.44152565416667,66.0,90.0
1292,161.33076611250002,161.45181046875,57.0,83.0
1293,161.71051311250002,161.85529165625002,68.0,96.0
1294,161.45734844583336,161.85608279583334,40.0,85.0
1295,161.71051311250002,161.87507014583335,59.0,89.0
1296,161.71051311250002,161.88456382083334,64.0,97.0
1297,161.83709544583334,162.18282344375,47.0,81.0
1298,161.83709544583334,162.20576649166668,52.0,95.0
1299,162.0902601125,162.23266523750002,59.0,88.0
1300,162.0902601125,162.23503865625003,68.0,93.0
1301,162.0902601125,162.25244372708335,64.0,92.0
1302,162.4700071125,162.59896286458334,59.0,86.0
1303,162.4700071125,162.60054514375003,68.0,90.0
1304,162.4700071125,162.6076654,64.0,88.0
1305,162.21684244583335,162.61399451666668,40.0,79.0
1306,162.59658944583336,162.97475416666668,47.0,96.0
1307,162.59658944583336,162.97475416666668,52.0,102.0
1308,162.84975411250002,162.99769721458335,68.0,96.0
1309,162.84975411250002,162.99848835416668,59.0,92.0
1310,162.84975411250002,163.0008617729167,64.0,93.0
1311,162.97633644583334,163.33234925833335,40.0,82.0
1312,163.2295011125,163.36795053958335,68.0,95.0
1313,163.2295011125,163.36874167916667,64.0,90.0
1314,163.2295011125,163.37744421458333,59.0,78.0
1315,163.35608344583335,163.7231722125,47.0,71.0
1316,163.35608344583335,163.72950132916668,52.0,95.0
1317,163.6092481125,163.75640007500002,68.0,97.0
1318,163.6092481125,163.76035577291668,59.0,82.0
1319,163.6092481125,163.76035577291668,64.0,95.0
1320,163.98899511250002,164.1503875875,68.0,96.0
1321,163.98899511250002,164.15117872708336,59.0,78.0
1322,163.98899511250002,164.15434328541667,64.0,96.0
1323,164.11557744583334,164.3537104604167,52.0,99.0
1324,163.73583044583336,164.3687421125,40.0,88.0
1325,164.11557744583334,164.39168516041667,47.0,92.0
1326,164.3687421125,164.47633709583334,68.0,92.0
1327,164.3687421125,164.5056092604167,64.0,93.0
1328,164.3687421125,164.52143205208336,59.0,85.0
1329,164.49532444583335,164.85608409583335,36.0,90.0
1330,164.7484891125,164.86795118958335,64.0,93.0
1331,164.7484891125,164.87744486458334,55.0,89.0
1332,164.7484891125,164.8782360041667,60.0,97.0
1333,164.87507144583336,165.2231728625,43.0,59.0
1334,164.87507144583336,165.2437424916667,48.0,99.0
1335,165.12823611250002,165.2658944,60.0,96.0
1336,165.12823611250002,165.26905895833335,64.0,92.0
1337,165.12823611250002,165.28329947083336,55.0,89.0
1338,165.50798311250003,165.64089456250002,60.0,93.0
1339,165.50798311250003,165.64326798125,64.0,89.0
1340,165.50798311250003,165.6448502604167,55.0,83.0
1341,165.25481844583334,165.68124268125,36.0,78.0
1342,165.63456544583335,165.99057825833336,43.0,88.0
1343,165.63456544583335,166.00244535208336,48.0,112.0
1344,165.8877301125,166.01273016666667,64.0,95.0
1345,165.8877301125,166.02143270208336,60.0,99.0
1346,165.8877301125,166.02538840000003,55.0,92.0
1347,166.26747711250002,166.39959742291668,64.0,92.0
1348,166.26747711250002,166.40988223750003,55.0,83.0
1349,166.26747711250002,166.41146451666668,60.0,99.0
1350,166.01431244583335,166.4257050291667,36.0,90.0
1351,166.39405944583334,166.76431277083336,43.0,88.0
1352,166.64722411250003,166.77538872500003,64.0,96.0
1353,166.64722411250003,166.78725581875003,55.0,90.0
1354,166.64722411250003,166.78883809791668,60.0,107.0
1355,166.39405944583334,166.7912115166667,48.0,112.0
1356,167.0269711125,167.12190786250002,55.0,75.0
1357,167.0269711125,167.1923192854167,64.0,90.0
1358,167.0269711125,167.1994395416667,60.0,99.0
1359,166.77380644583334,167.27222438333334,36.0,86.0
1360,167.15355344583335,167.37744594791667,48.0,117.0
1361,167.40671811250002,167.52538905000003,64.0,90.0
1362,167.28013577916667,167.53883842291668,43.0,86.0
1363,167.40671811250002,167.54991437708335,60.0,107.0
1364,167.40671811250002,167.59421819375,55.0,92.0
1365,167.78646511250003,167.94073733125,59.0,99.0
1366,167.78646511250003,167.94469302916667,55.0,96.0
1367,167.78646511250003,167.95814240208335,62.0,99.0
1368,167.65988277916668,168.01826901041667,31.0,95.0
1369,167.91304744583334,168.25244632708336,38.0,48.0
1370,167.91304744583334,168.27618051458336,43.0,95.0
1371,168.1662121125,168.30149698125,59.0,97.0
1372,168.1662121125,168.31731977291668,55.0,90.0
1373,168.1662121125,168.32839572708335,62.0,93.0
1374,168.54595911250001,168.6733325854167,59.0,82.0
1375,168.54595911250001,168.68678195833334,55.0,76.0
1376,168.54595911250001,168.70260475,62.0,78.0
1377,168.29279444583335,168.77459845208335,31.0,89.0
1378,168.67254144583336,169.01273146666668,38.0,88.0
1379,168.67254144583336,169.0206428625,43.0,102.0
1380,168.92570611250002,169.06178212083336,59.0,88.0
1381,168.92570611250002,169.07048465625002,55.0,89.0
1382,168.92570611250002,169.0934277041667,62.0,86.0
1383,169.3054531125,169.42966202708334,59.0,90.0
1384,169.3054531125,169.44627595833336,55.0,86.0
1385,169.3054531125,169.45023165625003,62.0,90.0
1386,169.05228844583334,169.49928231041667,31.0,96.0
1387,169.43203544583335,169.70656088125003,43.0,93.0
1388,169.43203544583335,169.81178244583336,38.0,77.0
1389,169.6852001125,169.8181115625,59.0,92.0
1390,169.6852001125,169.82444067916668,55.0,85.0
1391,169.6852001125,169.83551663333336,62.0,86.0
1392,170.06494711250002,170.2397889604167,59.0,93.0
1393,170.06494711250002,170.24137123958334,55.0,92.0
1394,170.06494711250002,170.25719403125,62.0,90.0
1395,169.81178244583336,170.31969405833334,31.0,77.0
1396,170.19152944583334,170.42491562291667,38.0,72.0
1397,170.19152944583334,170.47001057916668,43.0,127.0
1398,170.4446941125,170.55228909583334,59.0,96.0
1399,170.4446941125,170.5696941666667,55.0,93.0
1400,170.4446941125,170.57206758541668,62.0,93.0
1401,170.57127644583335,170.93124495625003,42.0,102.0
1402,170.8244411125,170.95181458541668,58.0,107.0
1403,170.8244411125,170.99453612291668,54.0,93.0
1404,170.8244411125,170.99849182083335,61.0,89.0
1405,170.95102344583336,171.3125742354167,49.0,102.0
1406,171.20418811250002,171.32523246875002,58.0,107.0
1407,171.20418811250002,171.35371349375,61.0,96.0
1408,171.20418811250002,171.36004261041668,54.0,102.0
1409,171.33077044583334,171.68915667708336,42.0,83.0
1410,171.58393511250003,171.71763770208335,58.0,102.0
1411,171.58393511250003,171.74216302916668,54.0,96.0
1412,171.58393511250003,171.7445364479167,61.0,97.0
1413,171.9636821125,172.10450495833334,58.0,102.0
1414,171.71051744583335,172.11241635416667,49.0,107.0
1415,171.9636821125,172.13852396041668,54.0,95.0
1416,171.9636821125,172.1408973791667,61.0,95.0
1417,172.09026444583336,172.40988483750002,42.0,117.0
1418,172.34342911250002,172.44944181666668,58.0,117.0
1419,172.34342911250002,172.47159372500002,61.0,96.0
1420,172.34342911250002,172.47396714375,54.0,99.0
1421,172.72317611250003,172.84580274791668,58.0,117.0
1422,172.47001144583334,172.84738502708336,49.0,96.0
1423,172.72317611250003,172.87428377291667,61.0,97.0
1424,172.72317611250003,172.8861508666667,54.0,99.0
1425,173.1029231125,173.2548219125,58.0,122.0
1426,173.1029231125,173.27934723958336,54.0,96.0
1427,173.1029231125,173.27934723958336,61.0,107.0
1428,172.84975844583334,173.30861940416668,42.0,122.0
1429,173.22950544583335,173.5127334166667,49.0,102.0
1430,173.48267011250002,173.5744423041667,58.0,117.0
1431,173.48267011250002,173.57523344375002,54.0,97.0
1432,173.48267011250002,173.62270181875002,61.0,107.0
1433,173.60925244583336,173.96605639791667,47.0,107.0
1434,173.86241711250003,174.03963237916668,66.0,127.0
1435,173.86241711250003,174.04279693750001,63.0,127.0
1436,173.86241711250003,174.04596149583335,59.0,95.0
1437,173.98899944583334,174.35450593333334,54.0,99.0
1438,174.2421641125,174.40118316875,59.0,90.0
1439,174.2421641125,174.40118316875,63.0,122.0
1440,174.2421641125,174.40118316875,66.0,112.0
1441,174.36874644583335,174.72950609583336,47.0,56.0
1442,174.62191111250002,174.78805042500002,63.0,117.0
1443,174.62191111250002,174.7920061229167,59.0,85.0
1444,174.62191111250002,174.79279726250002,66.0,102.0
1445,174.74849344583336,175.1219113291667,54.0,102.0
1446,175.00165811250002,175.17175312291667,63.0,112.0
1447,175.00165811250002,175.17333540208335,66.0,96.0
1448,175.00165811250002,175.17412654166668,59.0,82.0
1449,175.3814051125,175.52064567916668,63.0,107.0
1450,175.3814051125,175.5230190979167,59.0,85.0
1451,175.3814051125,175.52381023750002,66.0,99.0
1452,175.12824044583334,175.5348861916667,47.0,64.0
1453,175.50798744583335,175.91700661041668,54.0,107.0
1454,175.7611521125,175.92808256458335,59.0,88.0
1455,175.7611521125,175.93203826250001,66.0,112.0
1456,175.7611521125,175.93599396041668,63.0,122.0
1457,176.14089911250002,176.33789286875,63.0,107.0
1458,175.88773444583336,176.34975996250003,47.0,64.0
1459,176.14089911250002,176.34975996250003,59.0,79.0
1460,176.14089911250002,176.34975996250003,66.0,99.0
1461,176.26748144583334,176.4304562,54.0,117.0
1462,176.5206461125,176.61241830416668,66.0,85.0
1463,176.5206461125,176.6575132604167,63.0,127.0
1464,176.5206461125,176.67966516875,59.0,86.0
1465,176.64722844583335,177.00877923541668,37.0,112.0
1466,176.9003931125,177.06495014583334,65.0,69.0
1467,176.9003931125,177.0712792625,61.0,48.0
1468,176.9003931125,177.10767168333334,56.0,99.0
1469,177.02697544583336,177.40514016666668,49.0,117.0
1470,177.28014011250002,177.41146928333336,65.0,77.0
1471,177.28014011250002,177.41384270208334,61.0,100.0
1472,177.28014011250002,177.43441233125003,56.0,102.0
1473,177.65988711250003,177.83314668125,65.0,102.0
1474,177.65988711250003,177.85688086875,61.0,90.0
1475,177.40672244583334,177.87270366041668,37.0,93.0
1476,177.65988711250003,177.88694417291669,56.0,96.0
1477,177.78646944583335,178.17017214375002,49.0,107.0
1478,178.16621644583336,178.17017214375002,49.0,122.0
1479,178.0396341125,178.18678607500001,61.0,107.0
1480,178.16621644583336,178.18678607500001,61.0,102.0
1481,178.0396341125,178.18995063333335,65.0,86.0
1482,178.16621644583336,178.22476077500002,68.0,112.0
1483,178.0396341125,178.23504558958334,56.0,107.0
1484,178.29279877916667,178.34976082916668,61.0,95.0
1485,178.29279877916667,178.35846336458334,68.0,95.0
1486,178.29279877916667,178.36637476041668,49.0,95.0
1487,178.41938111250002,178.47871658125,61.0,81.0
1488,178.41938111250002,178.47871658125,68.0,95.0
1489,178.41938111250002,178.490583675,49.0,96.0
1490,178.54596344583334,178.60925461250002,61.0,102.0
1491,178.54596344583334,178.60925461250002,68.0,117.0
1492,178.54596344583334,178.62191284583335,49.0,107.0
1493,178.92571044583335,178.98029907708334,61.0,127.0
1494,178.92571044583335,178.98029907708334,68.0,127.0
1495,178.92571044583335,178.98188135625003,49.0,127.0
1496,179.0522927791667,179.1021345729167,68.0,88.0
1497,179.0522927791667,179.10925482916667,61.0,99.0
1498,179.0522927791667,179.117166225,49.0,102.0
1499,179.1788751125,179.23188146458335,68.0,97.0
1500,179.1788751125,179.23741944166667,61.0,95.0
1501,179.1788751125,179.24137513958334,49.0,102.0
1502,179.30545744583335,179.35213468125002,68.0,100.0
1503,179.30545744583335,179.35767265833334,61.0,97.0
1504,179.30545744583335,179.35846379791667,49.0,127.0
1505,180.06495144583334,180.2579895041667,63.0,86.0
1506,180.06495144583334,180.26115406250003,66.0,78.0
1507,180.06495144583334,180.26194520208335,59.0,73.0
1508,179.68520444583336,180.32523636875,47.0,71.0
1509,180.3181161125,180.47713516875,59.0,69.0
1510,180.3181161125,180.5095718916667,63.0,69.0
1511,180.3181161125,180.57919217500003,66.0,73.0
1512,180.44469844583335,181.0317240166667,47.0,82.0
1513,180.69786311250002,181.20735700416668,54.0,81.0
1514,181.07761011250003,181.23742030833336,59.0,81.0
1515,180.82444544583336,181.3054583125,63.0,82.0
1516,180.82444544583336,181.34738871041668,66.0,77.0
1517,181.58393944583335,181.78805345833334,66.0,81.0
1518,181.58393944583335,181.79280029583336,63.0,90.0
1519,181.20419244583334,181.8078319479167,47.0,68.0
1520,181.58393944583335,182.04754724166668,59.0,75.0
1521,181.83710411250001,182.08235738333335,63.0,72.0
1522,181.83710411250001,182.1306168979167,66.0,73.0
1523,181.96368644583336,182.33077521250001,47.0,72.0
1524,182.21685111250002,182.40435119375002,54.0,90.0
1525,182.5965981125,182.69865511875003,59.0,92.0
1526,182.34343344583334,182.70735765416669,63.0,127.0
1527,182.34343344583334,182.71131335208335,66.0,96.0
1528,183.10292744583336,183.31811741250002,70.0,79.0
1529,183.10292744583336,183.33314906458335,65.0,102.0
1530,183.10292744583336,183.3418516,61.0,90.0
1531,182.72318044583335,183.3600478104167,46.0,95.0
1532,183.35609211250002,183.54200991458336,65.0,78.0
1533,183.35609211250002,183.55071245000002,61.0,72.0
1534,183.35609211250002,183.55387700833336,70.0,77.0
1535,183.48267444583334,184.23425705000002,58.0,92.0
1536,183.86242144583335,184.3046684729167,65.0,112.0
1537,183.86242144583335,184.30941531041668,70.0,107.0
1538,183.86242144583335,184.31811784583334,61.0,88.0
1539,184.62191544583334,184.79517501458335,70.0,90.0
1540,184.62191544583334,184.80704210833335,61.0,88.0
1541,184.62191544583334,184.81178894583334,65.0,93.0
1542,184.87508011250003,184.91938392916668,61.0,53.0
1543,184.87508011250003,185.05783335625003,70.0,89.0
1544,184.87508011250003,185.05862449583336,65.0,89.0
1545,185.00166244583335,185.29042839375,53.0,58.0
1546,185.00166244583335,185.29754865,58.0,96.0
1547,184.24216844583336,185.345017025,46.0,79.0
1548,185.2548271125,185.46447910208335,61.0,97.0
1549,185.38140944583336,185.74216909583336,70.0,112.0
1550,185.38140944583336,185.74612479375003,65.0,93.0
1551,186.14090344583335,186.34343517916668,68.0,96.0
1552,186.14090344583335,186.35371999375002,63.0,99.0
1553,186.14090344583335,186.35846683125,59.0,81.0
1554,185.76115644583336,186.50799221250003,44.0,85.0
1555,186.3940681125,186.55783400625,59.0,66.0
1556,186.3940681125,186.58868845,63.0,76.0
1557,186.3940681125,186.59264414791667,68.0,90.0
1558,186.52065044583335,186.93599872708336,56.0,89.0
1559,186.90039744583336,187.04596712916668,59.0,81.0
1560,186.90039744583336,187.27618874791668,63.0,127.0
1561,186.90039744583336,187.28251786458335,68.0,100.0
1562,187.65989144583335,187.85213836458334,65.0,112.0
1563,187.65989144583335,187.86084090000003,68.0,102.0
1564,187.65989144583335,187.86400545833334,61.0,85.0
1565,187.28014444583334,188.14090431250003,49.0,66.0
1566,187.91305611250002,188.1875815479167,61.0,70.0
1567,187.91305611250002,188.28251829791668,65.0,97.0
1568,187.91305611250002,188.28251829791668,68.0,86.0
1569,188.03963844583336,188.3466006041667,56.0,96.0
1570,188.29280311250002,188.52144245208336,49.0,34.0
1571,188.41938544583334,188.7405881166667,65.0,117.0
1572,188.41938544583334,188.75641090833335,68.0,112.0
1573,188.6725501125,188.98346796875,61.0,76.0
1574,189.17887944583336,189.36321496875001,70.0,92.0
1575,189.17887944583336,189.37824662083335,66.0,90.0
1576,189.17887944583336,189.3814111791667,61.0,82.0
1577,188.79913244583335,189.44944918333334,42.0,82.0
1578,189.43204411250002,189.72239233958337,61.0,78.0
1579,189.43204411250002,189.79043034375002,70.0,90.0
1580,189.43204411250002,189.80625313541668,66.0,83.0
1581,189.55862644583334,190.02856335833334,54.0,71.0
1582,189.93837344583335,190.23109509166667,70.0,117.0
1583,189.93837344583335,190.25720269791668,66.0,97.0
1584,190.1915381125,190.38141161250002,61.0,58.0
1585,190.69786744583334,190.8980257604167,70.0,99.0
1586,190.69786744583334,190.89960803958334,64.0,99.0
1587,190.69786744583334,190.9035637375,61.0,90.0
1588,190.69786744583334,190.90672829583335,66.0,97.0
1589,190.31812044583336,190.93916501875003,42.0,69.0
1590,190.95103211250003,191.15910182291668,61.0,81.0
1591,190.95103211250003,191.16305752083335,64.0,86.0
1592,190.95103211250003,191.32998797291668,70.0,86.0
1593,190.95103211250003,191.3307791125,66.0,86.0
1594,191.07761444583335,191.49454500625,54.0,77.0
1595,191.45736144583336,191.79438690833337,64.0,107.0
1596,191.45736144583336,191.79834260625003,70.0,117.0
1597,191.45736144583336,191.8022983041667,66.0,102.0
1598,191.71052611250002,191.84581098125003,61.0,95.0
1599,192.21685544583335,192.41305806250003,63.0,100.0
1600,192.21685544583335,192.41543148125,66.0,89.0
1601,192.21685544583335,192.42096945833336,59.0,88.0
1602,191.83710844583337,192.579197375,47.0,78.0
1603,192.4700201125,192.65039993750003,59.0,86.0
1604,192.4700201125,192.67096956666668,63.0,89.0
1605,192.4700201125,192.75562150208336,66.0,76.0
1606,192.59660244583335,193.27144451041667,54.0,59.0
1607,192.97634944583336,193.31970402500002,66.0,97.0
1608,192.97634944583336,193.4162230541667,63.0,127.0
1609,193.22951411250003,193.4209698916667,59.0,86.0
1610,193.73584344583335,193.9288815041667,68.0,117.0
1611,193.73584344583335,193.93521062083335,65.0,122.0
1612,193.73584344583335,193.95024227291668,61.0,93.0
1613,193.35609644583334,194.00087520625002,49.0,77.0
1614,193.98900811250002,194.07286890833336,61.0,68.0
1615,193.98900811250002,194.37112853125,65.0,90.0
1616,193.98900811250002,194.37903992708334,68.0,90.0
1617,194.11559044583336,194.4257171625,56.0,85.0
1618,194.49533744583334,194.90673002916668,65.0,83.0
1619,194.49533744583334,194.9091034479167,68.0,89.0
1620,195.25483144583336,195.45182520208334,65.0,100.0
1621,195.25483144583336,195.45498976041668,70.0,93.0
1622,195.25483144583336,195.45815431875002,61.0,92.0
1623,194.87508444583335,195.54834423125,46.0,78.0
1624,195.50799611250002,195.60372400208334,61.0,68.0
1625,195.50799611250002,195.66305947083336,70.0,90.0
1626,195.50799611250002,195.67255314583335,65.0,90.0
1627,195.63457844583334,195.95736339583334,58.0,96.0
1628,195.8877431125,196.0966039625,65.0,122.0
1629,195.8877431125,196.1013508,61.0,95.0
1630,195.8877431125,196.1148001729167,70.0,112.0
1631,196.2674901125,196.41147751666668,70.0,96.0
1632,196.2674901125,196.42492688958336,65.0,107.0
1633,196.2674901125,196.4375851229167,61.0,78.0
1634,196.77381944583334,196.89802836041667,67.0,65.0
1635,196.77381944583334,196.90435747708335,63.0,73.0
1636,196.77381944583334,196.93916761875002,58.0,77.0
1637,197.02698411250003,197.16147784166668,67.0,85.0
1638,197.02698411250003,197.1757183541667,63.0,86.0
1639,197.02698411250003,197.1875854479167,58.0,82.0
1640,196.39407244583336,197.31258550208335,39.0,89.0
1641,197.15356644583335,197.51669951458337,51.0,56.0
1642,197.4067311125,197.6100539854167,67.0,83.0
1643,197.4067311125,197.62825019583335,63.0,89.0
1644,197.4067311125,197.6440729875,58.0,95.0
1645,197.78647811250002,197.91306044583334,67.0,85.0
1646,197.78647811250002,197.95182628541667,63.0,102.0
1647,197.78647811250002,197.97397819375,58.0,97.0
1648,198.29280744583335,198.49138348125,68.0,99.0
1649,198.29280744583335,198.4929657604167,59.0,92.0
1650,198.29280744583335,198.49533917916668,63.0,112.0
1651,197.91306044583334,198.58948478958334,44.0,86.0
1652,198.5459721125,198.70894686666668,63.0,92.0
1653,198.5459721125,198.71527598333336,68.0,99.0
1654,198.92571911250002,199.03331409583336,59.0,100.0
1655,198.67255444583336,199.0530925854167,56.0,88.0
1656,198.92571911250002,199.15989642916668,63.0,76.0
1657,198.92571911250002,199.1693901041667,68.0,73.0
1658,199.30546611250003,199.50641556666667,59.0,82.0
1659,199.30546611250003,199.53410545208334,63.0,127.0
1660,199.30546611250003,199.54518140625,68.0,99.0
1661,199.81179544583335,199.98189045625003,68.0,107.0
1662,199.81179544583335,199.9858461541667,65.0,102.0
1663,199.81179544583335,199.99138413125002,61.0,85.0
1664,200.06496011250002,200.23901082083336,61.0,71.0
1665,200.06496011250002,200.26037158958334,65.0,117.0
1666,200.06496011250002,200.26353614791668,68.0,117.0
1667,200.19154244583336,200.4178083666667,56.0,86.0
1668,199.43204844583335,200.48109953333335,49.0,68.0
1669,200.44470711250003,200.64961226458334,61.0,75.0
1670,200.44470711250003,200.65752366041667,68.0,100.0
1671,200.44470711250003,200.67018189375003,65.0,112.0
1672,200.8244541125,200.99850482083335,65.0,117.0
1673,200.8244541125,201.02223900833334,68.0,112.0
1674,200.8244541125,201.08869473333334,61.0,77.0
1675,201.33078344583336,201.50404301458335,70.0,112.0
1676,201.33078344583336,201.50641643333336,61.0,93.0
1677,201.33078344583336,201.51591010833334,66.0,107.0
1678,200.95103644583335,201.61796711458337,42.0,69.0
1679,201.58394811250002,201.80784061458334,66.0,92.0
1680,201.58394811250002,201.80784061458334,70.0,97.0
1681,201.58394811250002,201.81733428958336,61.0,81.0
1682,201.9636951125,202.18916989375,70.0,112.0
1683,201.9636951125,202.19470787083335,61.0,86.0
1684,201.9636951125,202.20182812708336,66.0,99.0
1685,201.71053044583334,202.37983453333337,54.0,74.0
1686,202.34344211250001,202.53331561250002,70.0,102.0
1687,202.34344211250001,202.71606885625002,63.0,99.0
1688,202.34344211250001,202.7698663479167,67.0,85.0
1689,202.34344211250001,202.8181258625,58.0,107.0
1690,202.84977144583334,202.90752463541668,67.0,54.0
1691,202.84977144583334,202.91780945000002,63.0,67.0
1692,202.84977144583334,202.94470819583336,58.0,82.0
1693,202.34344211250001,202.95815756875,39.0,88.0
1694,202.34344211250001,202.99217657083335,51.0,95.0
1695,203.22951844583335,203.250088075,63.0,107.0
1696,203.22951844583335,203.25325263333335,67.0,73.0
1697,203.22951844583335,203.27303112291668,58.0,122.0
1698,203.22951844583335,203.28648049583336,51.0,90.0
1699,203.22951844583335,203.29676531041667,39.0,100.0
1700,203.3561007791667,203.40989827083337,67.0,79.0
1701,203.3561007791667,203.41385396875003,63.0,86.0
1702,203.3561007791667,203.4178096666667,51.0,60.0
1703,203.3561007791667,203.42413878333335,39.0,102.0
1704,203.3561007791667,203.42572106250003,58.0,81.0
1705,203.4826831125,203.53727174375,67.0,88.0
1706,203.4826831125,203.54043630208335,63.0,96.0
1707,203.4826831125,203.54280972083336,39.0,127.0
1708,203.4826831125,203.5507211166667,51.0,102.0
1709,203.4826831125,203.56654390833336,58.0,89.0
1710,203.60926544583336,203.63932875000003,63.0,59.0
1711,203.60926544583336,203.6583161,67.0,71.0
1712,203.60926544583336,203.65910723958336,39.0,122.0
1713,203.60926544583336,203.6670186354167,51.0,74.0
1714,203.60926544583336,203.6670186354167,70.0,100.0
1715,203.60926544583336,203.67334775208334,58.0,81.0
1716,203.73584777916668,203.7714490604167,51.0,81.0
1717,203.73584777916668,203.77382247916668,58.0,81.0
1718,203.73584777916668,203.79597438750002,39.0,107.0
1719,203.73584777916668,203.79597438750002,70.0,107.0
1720,203.73584777916668,203.79834780625,63.0,99.0
1721,203.86243011250002,203.90831620833336,58.0,100.0
1722,203.86243011250002,203.91701874375002,39.0,117.0
1723,203.86243011250002,203.91701874375002,70.0,102.0
1724,203.86243011250002,203.9209744416667,63.0,90.0
1725,203.86243011250002,203.92255672083334,51.0,88.0
1726,204.36875944583335,204.56733548125,68.0,99.0
1727,204.36875944583335,204.5689177604167,59.0,92.0
1728,204.36875944583335,204.57129117916668,63.0,112.0
1729,203.98901244583334,204.66543678958334,44.0,86.0
1730,204.6219241125,204.78489886666668,63.0,92.0
1731,204.6219241125,204.79122798333336,68.0,99.0
1732,205.00167111250002,205.10926609583336,59.0,100.0
1733,204.74850644583336,205.1290445854167,56.0,88.0
1734,205.00167111250002,205.23584842916668,63.0,76.0
1735,205.00167111250002,205.2453421041667,68.0,73.0
1736,205.38141811250003,205.58236756666668,59.0,82.0
1737,205.38141811250003,205.61005745208334,63.0,127.0
1738,205.38141811250003,205.62113340625,68.0,99.0
1739,205.88774744583336,206.05784245625003,68.0,107.0
1740,205.88774744583336,206.0617981541667,65.0,102.0
1741,205.88774744583336,206.06733613125002,61.0,85.0
1742,206.14091211250002,206.31496282083336,61.0,71.0
1743,206.14091211250002,206.33632358958334,65.0,117.0
1744,206.14091211250002,206.33948814791668,68.0,117.0
1745,206.26749444583336,206.4937603666667,56.0,86.0
1746,205.50800044583335,206.55705153333335,49.0,68.0
1747,206.52065911250003,206.72556426458334,61.0,75.0
1748,206.52065911250003,206.73347566041667,68.0,100.0
1749,206.52065911250003,206.74613389375003,65.0,112.0
1750,206.9004061125,207.07445682083335,65.0,117.0
1751,206.9004061125,207.09819100833334,68.0,112.0
1752,206.9004061125,207.16464673333334,61.0,77.0
1753,207.40673544583336,207.57999501458335,70.0,112.0
1754,207.40673544583336,207.58236843333336,61.0,93.0
1755,207.40673544583336,207.59186210833334,66.0,107.0
1756,207.02698844583335,207.69391911458337,42.0,69.0
1757,207.65990011250003,207.88379261458334,66.0,92.0
1758,207.65990011250003,207.88379261458334,70.0,97.0
1759,207.65990011250003,207.89328628958336,61.0,81.0
1760,208.0396471125,208.26512189375,70.0,112.0
1761,208.0396471125,208.27065987083336,61.0,86.0
1762,208.0396471125,208.27778012708336,66.0,99.0
1763,207.78648244583334,208.45578653333337,54.0,74.0
1764,208.16622944583335,208.53648277083335,39.0,88.0
1765,208.54597644583336,208.57920430833335,66.0,127.0
1766,208.54597644583336,208.58395114583334,61.0,127.0
1767,208.54597644583336,208.59581823958337,70.0,107.0
1768,208.54597644583336,208.60293849583334,54.0,127.0
1769,208.54597644583336,208.61164103125003,42.0,112.0
1770,208.67255877916668,208.71369803750002,66.0,93.0
1771,208.67255877916668,208.72240057291668,70.0,92.0
1772,208.67255877916668,208.72556513125002,61.0,90.0
1773,208.67255877916668,208.73505880625,42.0,89.0
1774,208.67255877916668,208.74455248125003,54.0,99.0
1775,208.79914111250002,208.84028037083334,66.0,107.0
1776,208.79914111250002,208.84502720833336,70.0,117.0
1777,208.79914111250002,208.84898290625003,61.0,82.0
1778,208.79914111250002,208.85689430208336,54.0,107.0
1779,208.79914111250002,208.86085000000003,42.0,112.0
1780,208.92572344583334,208.97081840208335,66.0,122.0
1781,208.92572344583334,208.97081840208335,70.0,107.0
1782,208.92572344583334,208.98901461250003,61.0,99.0
1783,208.92572344583334,208.99929942708334,54.0,122.0
1784,208.92572344583334,209.00088170625003,42.0,122.0
1785,209.30547044583335,209.35056540208336,63.0,122.0
1786,209.30547044583335,209.35056540208336,70.0,122.0
1787,209.30547044583335,209.3513565416667,39.0,112.0
1788,209.30547044583335,209.35768565833337,51.0,127.0
1789,209.4320527791667,209.48585027083334,63.0,102.0
1790,209.4320527791667,209.48822368958335,70.0,102.0
1791,209.4320527791667,209.49613508541668,39.0,90.0
1792,209.4320527791667,209.49613508541668,51.0,102.0
1793,209.5586351125,209.61164146458336,63.0,107.0
1794,209.5586351125,209.61638830208335,70.0,117.0
1795,209.5586351125,209.62271741875003,51.0,112.0
1796,209.5586351125,209.63300223333334,39.0,96.0
1797,209.68521744583336,209.73822379791667,51.0,127.0
1798,209.68521744583336,209.73822379791667,70.0,127.0
1799,209.68521744583336,209.7429706354167,39.0,100.0
1800,209.68521744583336,209.74376177500002,63.0,127.0
1801,210.06496444583334,210.65357229583336,47.0,73.0
1802,210.31812911250003,210.79123058333334,54.0,58.0
1803,210.6978761125,210.92255975416668,59.0,72.0
1804,210.44471144583335,210.96211673333335,63.0,93.0
1805,210.44471144583335,211.00246485208336,66.0,82.0
1806,210.82445844583336,211.4051549,47.0,78.0
1807,211.07762311250002,211.5349017916667,54.0,67.0
1808,211.20420544583337,211.66543982291668,63.0,86.0
1809,211.45737011250003,211.6915474291667,59.0,82.0
1810,211.20420544583337,211.72873098958334,66.0,77.0
1811,211.58395244583335,212.16306662083335,47.0,82.0
1812,211.8371171125,212.31100972291668,54.0,63.0
1813,212.21686411250002,212.43126293958335,59.0,66.0
1814,211.96369944583336,212.44233889375002,63.0,93.0
1815,211.96369944583336,212.50879461875002,66.0,83.0
1816,212.34344644583337,212.73189598125003,47.0,73.0
1817,212.59661111250003,212.74613649375002,54.0,72.0
1818,212.72319344583335,213.08632651458336,63.0,89.0
1819,212.72319344583335,213.09977588750002,66.0,81.0
1820,212.9763581125,213.123510075,59.0,86.0
1821,213.10294044583335,213.58949128958335,46.0,95.0
1822,213.35610511250002,213.79914327916669,53.0,60.0
1823,213.48268744583336,213.96132689375003,65.0,69.0
1824,213.48268744583336,214.09265606458337,61.0,74.0
1825,213.86243444583334,214.44550431875,46.0,69.0
1826,214.1155991125,214.59265628125002,53.0,65.0
1827,214.24218144583335,214.7508841979167,65.0,83.0
1828,214.24218144583335,214.84186525,70.0,90.0
1829,214.24218144583335,214.85135892500003,61.0,75.0
1830,215.00167544583334,215.31496672083335,65.0,81.0
1831,215.00167544583334,215.32446039583334,70.0,81.0
1832,215.25484011250003,215.48822628958337,58.0,96.0
1833,214.87509311250002,215.63775167083335,53.0,67.0
1834,214.62192844583336,215.70578967500003,46.0,90.0
1835,215.63458711250001,215.73980867708335,58.0,93.0
1836,215.38142244583335,215.7999352854167,61.0,79.0
1837,215.88775177916668,215.95578978333336,44.0,25.0
1838,215.76116944583336,216.1345873291667,65.0,85.0
1839,215.76116944583336,216.14091644583334,70.0,99.0
1840,216.01433411250002,216.19392279791668,61.0,72.0
1841,216.52066344583335,216.560220425,68.0,74.0
1842,216.14091644583334,216.69866985208336,44.0,90.0
1843,216.52066344583335,216.92414463333336,63.0,97.0
1844,216.52066344583335,216.96132819375003,59.0,86.0
1845,216.7738281125,217.0246193604167,68.0,35.0
1846,217.15357511250002,217.36243596250003,56.0,82.0
1847,216.90041044583336,217.41306889583336,44.0,89.0
1848,217.28015744583337,217.44708789791667,68.0,107.0
1849,217.28015744583337,217.45262587500002,63.0,127.0
1850,217.53332211250003,218.0784172854167,49.0,127.0
1851,218.03965144583336,218.42098072500002,68.0,117.0
1852,218.03965144583336,218.43680351666669,61.0,93.0
1853,218.03965144583336,218.43680351666669,65.0,112.0
1854,218.41939844583337,218.81575937708337,56.0,86.0
1855,218.67256311250003,218.86085433333335,49.0,66.0
1856,218.79914544583335,219.14566458333334,65.0,112.0
1857,218.79914544583335,219.14882914166668,68.0,112.0
1858,219.0523101125,219.31101275625002,61.0,90.0
1859,219.17889244583336,219.7833230875,42.0,63.0
1860,219.81180411250003,219.98822823958335,54.0,79.0
1861,219.55863944583336,220.20816504375003,70.0,83.0
1862,219.55863944583336,220.21449416041668,61.0,81.0
1863,219.55863944583336,220.21528530000003,66.0,86.0
1864,220.31813344583335,220.3901271479167,61.0,55.0
1865,220.31813344583335,220.45579173333334,66.0,97.0
1866,220.31813344583335,220.46370312916667,70.0,102.0
1867,220.1915511125,220.53569683125002,54.0,70.0
1868,220.95104511250003,221.08237428333337,62.0,81.0
1869,221.07762744583334,221.08237428333337,62.0,88.0
1870,220.95104511250003,221.0831654229167,50.0,62.0
1871,221.07762744583334,221.0831654229167,50.0,78.0
1872,220.95104511250003,221.08553884166668,69.0,75.0
1873,221.07762744583334,221.08553884166668,69.0,82.0
1874,220.95104511250003,221.08632998125003,66.0,75.0
1875,221.07762744583334,221.08632998125003,66.0,89.0
1876,221.71053911250002,221.82367207291668,68.0,82.0
1877,221.71053911250002,221.82683663125002,49.0,86.0
1878,221.71053911250002,221.83079232916668,65.0,83.0
1879,221.71053911250002,221.84898853958336,61.0,82.0
1880,221.83712144583336,221.84898853958336,61.0,78.0
1881,221.83712144583336,222.00167847916669,65.0,93.0
1882,221.83712144583336,222.01671013125002,68.0,95.0
1883,221.83712144583336,222.05310255208335,49.0,92.0
1884,222.21686844583334,222.80547629583336,47.0,73.0
1885,222.47003311250003,222.94313458333335,54.0,58.0
1886,222.8497801125,223.0744637541667,59.0,72.0
1887,222.59661544583335,223.11402073333335,63.0,93.0
1888,222.59661544583335,223.15436885208337,66.0,82.0
1889,222.97636244583336,223.55705890000002,47.0,78.0
1890,223.22952711250002,223.6868057916667,54.0,67.0
1891,223.35610944583337,223.81734382291668,63.0,86.0
1892,223.60927411250003,223.8434514291667,59.0,82.0
1893,223.35610944583337,223.88063498958334,66.0,77.0
1894,223.73585644583335,224.31497062083335,47.0,82.0
1895,223.9890211125,224.46291372291668,54.0,63.0
1896,224.36876811250002,224.58316693958335,59.0,66.0
1897,224.11560344583336,224.59424289375002,63.0,93.0
1898,224.11560344583336,224.66069861875002,66.0,83.0
1899,224.49535044583337,224.88379998125,47.0,73.0
1900,224.74851511250003,224.89804049375002,54.0,72.0
1901,224.87509744583335,225.23823051458336,63.0,89.0
1902,224.87509744583335,225.25167988750002,66.0,81.0
1903,225.1282621125,225.27541407500001,59.0,86.0
1904,225.25484444583336,225.74139528958335,46.0,95.0
1905,225.50800911250002,225.9510472791667,53.0,60.0
1906,225.63459144583337,226.11323089375003,65.0,69.0
1907,225.63459144583337,226.24456006458337,61.0,74.0
1908,226.01433844583335,226.59740831875,46.0,69.0
1909,226.2675031125,226.74456028125002,53.0,65.0
1910,226.39408544583335,226.9027881979167,65.0,83.0
1911,226.39408544583335,226.99376925,70.0,90.0
1912,226.39408544583335,227.00326292500003,61.0,75.0
1913,227.15357944583334,227.46687072083336,65.0,81.0
1914,227.15357944583334,227.47636439583334,70.0,81.0
1915,227.4067441125,227.64013028958337,58.0,96.0
1916,227.02699711250003,227.78965567083335,53.0,67.0
1917,226.77383244583336,227.85769367500004,46.0,90.0
1918,227.78649111250002,227.89171267708335,58.0,93.0
1919,227.53332644583335,227.9518392854167,61.0,79.0
1920,228.03965577916668,228.10769378333336,44.0,25.0
1921,227.91307344583336,228.2864913291667,65.0,85.0
1922,227.91307344583336,228.29282044583334,70.0,99.0
1923,228.16623811250003,228.3458267979167,61.0,72.0
1924,228.67256744583335,228.712124425,68.0,74.0
1925,228.29282044583334,228.85057385208336,44.0,90.0
1926,228.67256744583335,229.07604863333336,63.0,97.0
1927,228.67256744583335,229.11323219375,59.0,86.0
1928,228.92573211250001,229.1765233604167,68.0,35.0
1929,229.30547911250002,229.51433996250003,56.0,82.0
1930,229.05231444583336,229.56497289583336,44.0,89.0
1931,229.43206144583334,229.59899189791668,68.0,107.0
1932,229.43206144583334,229.60452987500003,63.0,127.0
1933,229.68522611250003,230.2303212854167,49.0,127.0
1934,230.19155544583336,230.57288472500002,68.0,117.0
1935,230.19155544583336,230.5887075166667,61.0,93.0
1936,230.19155544583336,230.5887075166667,65.0,112.0
1937,230.57130244583337,230.96766337708337,56.0,86.0
1938,230.82446711250003,231.01275833333335,49.0,66.0
1939,230.95104944583335,231.29756858333334,65.0,112.0
1940,230.95104944583335,231.30073314166668,68.0,112.0
1941,231.2042141125,231.46291675625002,61.0,90.0
1942,231.33079644583336,231.9352270875,42.0,63.0
1943,231.96370811250003,232.14013223958335,54.0,79.0
1944,231.71054344583337,232.36006904375003,70.0,83.0
1945,231.71054344583337,232.36639816041668,61.0,81.0
1946,231.71054344583337,232.36718930000004,66.0,86.0
1947,232.47003744583336,232.5420311479167,61.0,55.0
1948,232.47003744583336,232.60769573333334,66.0,97.0
1949,232.47003744583336,232.61560712916668,70.0,102.0
1950,232.3434551125,232.68760083125002,54.0,70.0
1951,232.84978444583336,233.06972125000001,42.0,127.0
1952,232.84978444583336,233.06972125000001,54.0,127.0
1953,233.10294911250003,233.26038588958335,40.0,122.0
1954,233.10294911250003,233.26038588958335,52.0,122.0
1955,233.3561137791667,233.5531075354167,35.0,100.0
1956,233.3561137791667,233.5531075354167,47.0,100.0
1957,233.60927844583335,233.78570257291668,38.0,117.0
1958,233.60927844583335,233.78570257291668,50.0,117.0
1959,233.86244311250002,234.04044951875002,37.0,127.0
1960,233.86244311250002,234.04044951875002,49.0,127.0
1961,234.11560777916668,234.24693695000002,33.0,112.0
1962,234.11560777916668,234.24693695000002,45.0,112.0
1963,234.36877244583334,234.75959540000002,30.0,127.0
1964,234.36877244583334,234.75959540000002,42.0,127.0
1965,235.12826644583336,235.262760175,28.0,100.0
1966,235.12826644583336,235.262760175,40.0,100.0
1967,235.38143111250002,235.59108310208336,28.0,96.0
1968,235.38143111250002,235.59108310208336,40.0,96.0
1969,235.6345957791667,235.88380474791668,29.0,112.0
1970,235.6345957791667,235.88380474791668,41.0,112.0
1971,235.88776044583335,237.70500806875003,30.0,127.0
1972,235.88776044583335,237.70500806875003,42.0,127.0
