,start,end,pitch,velocity
0,1.1827933333333334,1.6599429166666668,57.0,80.0
1,1.1827933333333334,1.88306075,64.0,88.0
2,1.1827933333333334,1.8978456666666668,61.0,82.0
3,1.8279533333333335,3.3346707500000003,57.0,82.0
4,1.5053733333333335,3.38709,52.0,67.0
5,1.1827933333333334,3.4287565833333336,45.0,79.0
6,2.1505333333333336,3.579293916666667,64.0,88.0
7,2.1505333333333336,3.72983125,59.0,87.0
8,3.7634333333333334,4.368270833333334,61.0,86.0
9,3.7634333333333334,4.377679416666667,64.0,86.0
10,3.7634333333333334,4.614238083333333,57.0,82.0
11,3.7634333333333334,5.9878912500000006,42.0,80.0
12,4.408593333333334,5.989235333333334,54.0,79.0
13,4.086013333333334,5.999988,49.0,71.0
14,4.7311733333333335,6.2822455,57.0,84.0
15,4.7311733333333335,6.392460333333334,61.0,83.0
16,4.7311733333333335,6.411277500000001,64.0,84.0
17,6.6666533333333335,8.377671416666667,54.0,76.0
18,6.344073333333334,8.420682083333334,47.0,85.0
19,7.311813333333334,8.919337,66.0,87.0
20,6.989233333333334,9.639765666666667,59.0,87.0
21,9.892453333333334,9.989227333333334,57.0,83.0
22,9.569873333333334,10.360194333333334,52.0,84.0
23,8.924713333333333,11.0564295,40.0,84.0
24,9.247293333333333,11.057773583333335,47.0,76.0
25,10.215033333333334,11.186805583333333,56.0,88.0
26,10.215033333333334,11.262074250000001,64.0,88.0
27,10.860193333333333,11.497288833333334,52.0,77.0
28,11.505353333333334,11.719062583333335,61.0,89.0
29,11.505353333333334,11.864223583333334,57.0,84.0
30,11.505353333333334,12.215029333333334,64.0,86.0
31,11.827933333333334,12.239222833333335,61.0,66.0
32,12.150513333333334,12.8951355,57.0,84.0
33,12.473093333333335,13.201586500000001,64.0,96.0
34,12.473093333333335,13.276855166666667,59.0,93.0
35,13.118253333333334,13.499973,57.0,87.0
36,11.827933333333334,13.510725666666668,52.0,65.0
37,11.505353333333334,13.6531985,45.0,84.0
38,13.440833333333334,14.013412833333334,61.0,102.0
39,13.440833333333334,14.025509583333335,64.0,107.0
40,14.085993333333334,14.858841250000001,66.0,92.0
41,14.085993333333334,14.920669083333335,57.0,87.0
42,14.085993333333334,14.998625916666668,61.0,87.0
43,14.731153333333335,15.243249083333334,54.0,80.0
44,15.053733333333334,15.745936250000002,66.0,89.0
45,15.053733333333334,15.754000750000001,57.0,87.0
46,15.053733333333334,15.758033000000001,61.0,87.0
47,15.698893333333334,16.1370645,54.0,84.0
48,14.085993333333334,16.335988833333335,42.0,84.0
49,14.408573333333335,16.35749416666667,49.0,74.0
50,16.021473333333333,16.434106916666668,57.0,87.0
51,16.021473333333333,16.47174125,66.0,89.0
52,16.021473333333333,16.624966750000002,61.0,91.0
53,16.344053333333335,16.65588066666667,54.0,70.0
54,16.666633333333333,17.081955083333334,66.0,87.0
55,16.666633333333333,17.130342083333336,62.0,91.0
56,16.666633333333333,17.174696833333336,59.0,83.0
57,16.989213333333335,17.44216941666667,54.0,77.0
58,16.666633333333333,17.474427416666668,47.0,84.0
59,17.311793333333334,17.751308583333334,66.0,88.0
60,17.311793333333334,17.844050333333335,62.0,91.0
61,17.956953333333335,18.618242333333335,64.0,89.0
62,17.956953333333335,18.697543250000003,56.0,84.0
63,17.311793333333334,18.727113083333336,59.0,88.0
64,17.956953333333335,18.82523116666667,40.0,81.0
65,18.279533333333333,18.881682666666666,47.0,72.0
66,18.924693333333334,19.051037166666667,56.0,85.0
67,18.924693333333334,19.14109075,64.0,86.0
68,18.924693333333334,19.259370083333334,59.0,80.0
69,18.602113333333335,19.264746416666668,52.0,83.0
70,19.247273333333336,19.545659833333335,57.0,84.0
71,19.247273333333336,19.85748716666667,61.0,88.0
72,19.247273333333336,19.97173425,64.0,86.0
73,19.892433333333333,20.215013333333335,57.0,82.0
74,20.215013333333335,20.54431375,59.0,88.0
75,20.537593333333334,21.561784833333334,57.0,88.0
76,19.569853333333334,24.003984250000002,52.0,65.0
77,19.247273333333336,24.040274500000002,45.0,83.0
78,21.827913333333335,24.064468,69.0,78.0
79,21.827913333333335,24.092693750000002,61.0,76.0
80,21.827913333333335,24.128984000000003,64.0,81.0
81,25.053713333333334,25.7983355,57.0,83.0
82,25.376293333333336,26.061775833333336,69.0,90.0
83,25.376293333333336,26.11688325,61.0,91.0
84,26.021453333333334,26.412581583333335,57.0,78.0
85,24.731133333333336,26.49860291666667,52.0,73.0
86,24.408553333333334,26.534893166666667,45.0,86.0
87,26.344033333333336,26.729785250000003,69.0,89.0
88,26.344033333333336,26.76069916666667,61.0,91.0
89,26.666613333333334,26.948870833333334,64.0,82.0
90,26.989193333333336,27.702901583333336,66.0,88.0
91,26.989193333333336,27.90585816666667,61.0,86.0
92,27.634353333333333,28.405857166666667,54.0,81.0
93,27.956933333333335,28.71230816666667,66.0,88.0
94,27.956933333333335,28.743222083333336,57.0,87.0
95,26.989193333333336,29.096716,42.0,80.0
96,27.311773333333335,29.098060083333333,49.0,67.0
97,28.602093333333336,29.20424266666667,54.0,81.0
98,28.924673333333335,29.517414083333335,57.0,74.0
99,28.924673333333335,29.6692955,66.0,81.0
100,30.214993333333336,30.964991833333336,59.0,85.0
101,30.537573333333334,31.267410583333334,71.0,87.0
102,31.182733333333335,31.536227250000003,59.0,83.0
103,30.537573333333334,31.552356250000003,62.0,87.0
104,29.892413333333334,31.59536691666667,54.0,78.0
105,29.569833333333335,31.712302166666667,47.0,88.0
106,31.505313333333334,32.141064750000005,66.0,94.0
107,32.15047333333334,32.32654825,68.0,87.0
108,32.15047333333334,33.15450358333334,59.0,86.0
109,33.11821333333334,33.432728833333336,57.0,84.0
110,32.795633333333335,33.819824833333335,52.0,85.0
111,33.44079333333333,34.21364125,59.0,83.0
112,33.44079333333333,34.25530783333333,64.0,83.0
113,32.15047333333334,34.34401733333333,40.0,83.0
114,32.47305333333333,34.358802250000004,47.0,81.0
115,33.44079333333333,34.37493125,56.0,81.0
116,34.085953333333336,34.54562983333334,52.0,74.0
117,35.37627333333334,36.141056750000004,54.0,84.0
118,35.69885333333333,36.397776666666665,66.0,88.0
119,35.69885333333333,36.45154,57.0,89.0
120,35.053693333333335,36.689442750000005,49.0,78.0
121,34.73111333333333,36.71901258333334,42.0,88.0
122,36.344013333333336,36.741862000000005,54.0,85.0
123,36.66659333333334,37.04965708333334,57.0,93.0
124,36.66659333333334,37.14777516666667,66.0,87.0
125,36.98917333333333,37.286215750000004,61.0,83.0
126,37.311753333333336,37.59266675,61.0,84.0
127,37.311753333333336,37.912558583333336,68.0,91.0
128,37.95691333333333,38.665245250000005,61.0,82.0
129,38.279493333333335,38.963631750000005,71.0,91.0
130,38.92465333333334,39.26873866666667,61.0,80.0
131,37.63433333333334,39.306373,56.0,60.0
132,37.311753333333336,39.3950825,49.0,86.0
133,39.247233333333334,39.9273395,68.0,90.0
134,38.279493333333335,39.93943625,64.0,88.0
135,40.537553333333335,41.803679833333334,59.0,83.0
136,40.21497333333333,41.874916250000005,54.0,75.0
137,39.89239333333334,42.016045000000005,47.0,88.0
138,40.86013333333334,42.032174000000005,71.0,87.0
139,40.86013333333334,42.0563675,62.0,87.0
140,42.47303333333333,42.68808666666667,68.0,87.0
141,42.31174333333333,43.374913250000006,59.0,70.0
142,43.44077333333333,43.794267250000004,57.0,81.0
143,43.11819333333334,43.908514333333336,52.0,86.0
144,42.47303333333333,44.63835158333334,40.0,78.0
145,42.795613333333336,44.67060958333334,47.0,77.0
146,43.763353333333335,44.70421166666667,56.0,84.0
147,44.40851333333334,44.927329500000006,52.0,81.0
148,43.763353333333335,45.01469491666667,64.0,87.0
149,45.053673333333336,45.40851133333334,57.0,83.0
150,45.053673333333336,45.64372591666667,64.0,83.0
151,45.053673333333336,45.79291916666667,61.0,86.0
152,45.69883333333333,46.38431583333334,57.0,72.0
153,46.021413333333335,46.661197,64.0,90.0
154,46.021413333333335,46.67598191666667,61.0,88.0
155,46.66657333333334,47.05501341666667,57.0,83.0
156,45.37625333333334,47.0886155,52.0,64.0
157,45.053673333333336,47.166572333333335,45.0,78.0
158,46.989153333333334,47.54291566666667,64.0,108.0
159,46.989153333333334,47.54560383333334,61.0,104.0
160,47.63431333333334,48.2660325,57.0,88.0
161,47.63431333333334,48.2982905,66.0,91.0
162,47.63431333333334,48.49049441666667,61.0,87.0
163,48.279473333333335,48.903128,54.0,78.0
164,48.60205333333334,49.214955333333336,66.0,92.0
165,48.60205333333334,49.272750916666666,57.0,88.0
166,48.60205333333334,49.350707750000005,61.0,93.0
167,47.95689333333333,49.759309083333335,49.0,56.0
168,47.63431333333334,49.791567083333334,42.0,83.0
169,49.56979333333334,49.920599083333336,57.0,89.0
170,49.56979333333334,49.95554525,66.0,89.0
171,49.56979333333334,50.162534083333334,61.0,96.0
172,49.247213333333335,50.218985583333335,54.0,82.0
173,50.214953333333334,50.55097416666667,59.0,86.0
174,50.214953333333334,50.6692535,62.0,90.0
175,50.214953333333334,50.694791083333335,66.0,88.0
176,50.86011333333334,51.516026000000004,59.0,81.0
177,51.18269333333333,51.82516516666667,66.0,88.0
178,51.18269333333333,51.83188558333334,71.0,86.0
179,51.18269333333333,51.854735000000005,62.0,86.0
180,51.82785333333334,52.2015085,59.0,79.0
181,50.537533333333336,52.2337665,54.0,66.0
182,50.214953333333334,52.31172333333333,47.0,80.0
183,52.15043333333334,52.41252958333334,71.0,84.0
184,52.15043333333334,52.44747575,62.0,87.0
185,52.15043333333334,52.706883833333336,66.0,85.0
186,52.795593333333336,53.02543158333334,64.0,88.0
187,52.795593333333336,53.112797,68.0,88.0
188,52.795593333333336,53.517366083333336,59.0,85.0
189,53.763333333333335,53.96225766666667,57.0,83.0
190,53.44075333333333,54.30499891666667,52.0,81.0
191,54.08591333333334,54.822471,64.0,84.0
192,54.08591333333334,54.91655683333334,59.0,83.0
193,54.08591333333334,54.919245000000004,56.0,84.0
194,52.795593333333336,55.028115750000005,40.0,78.0
195,54.731073333333335,55.32515816666667,52.0,76.0
196,53.11817333333334,55.38564191666667,47.0,74.0
197,55.37623333333334,55.99316758333334,66.0,87.0
198,55.37623333333334,56.06037175,61.0,87.0
199,55.37623333333334,56.080533,57.0,83.0
200,56.021393333333336,56.67327375,54.0,79.0
201,56.34397333333334,57.01332683333334,61.0,89.0
202,56.34397333333334,57.02676766666667,57.0,88.0
203,56.34397333333334,57.03483216666667,66.0,87.0
204,55.37623333333334,57.479723750000005,42.0,77.0
205,55.698813333333334,57.51870216666667,49.0,71.0
206,56.989133333333335,57.60875575,54.0,80.0
207,57.31171333333334,57.612788,57.0,88.0
208,57.31171333333334,57.66520725,66.0,88.0
209,57.31171333333334,57.83724991666667,61.0,91.0
210,57.956873333333334,58.326496250000005,64.0,87.0
211,57.956873333333334,58.37488325,68.0,86.0
212,57.956873333333334,58.38698,61.0,84.0
213,58.279453333333336,58.83321566666667,56.0,70.0
214,57.956873333333334,58.92595741666667,49.0,83.0
215,58.60203333333334,59.01063466666667,68.0,86.0
216,58.60203333333334,59.03617225000001,61.0,86.0
217,58.60203333333334,59.09396783333334,64.0,85.0
218,59.247193333333335,60.126223833333334,57.0,87.0
219,59.247193333333335,60.146385083333335,42.0,86.0
220,59.247193333333335,60.18939575,66.0,86.0
221,59.56977333333334,60.20418066666667,49.0,77.0
222,59.89235333333334,60.329180416666674,54.0,85.0
223,59.247193333333335,60.38025558333334,61.0,88.0
224,61.182673333333334,61.358748250000005,54.0,76.0
225,60.53751333333334,61.44073733333334,47.0,86.0
226,60.53751333333334,61.596651,62.0,88.0
227,60.53751333333334,61.61143591666667,66.0,88.0
228,62.15041333333334,62.76869166666667,47.0,48.0
229,61.82783333333334,62.770035750000005,40.0,86.0
230,61.82783333333334,62.8305195,56.0,86.0
231,61.82783333333334,62.843960333333335,64.0,89.0
232,60.53751333333334,63.05498141666667,59.0,86.0
233,62.472993333333335,63.13965866666667,52.0,83.0
234,63.11815333333334,63.52675466666667,57.0,80.0
235,63.11815333333334,63.602023333333335,61.0,84.0
236,63.11815333333334,63.60874375,64.0,87.0
237,63.763313333333336,64.24718333333334,61.0,84.0
238,63.763313333333336,64.25390375,64.0,87.0
239,63.763313333333336,64.52137633333334,57.0,83.0
240,64.40847333333333,64.88024658333333,64.0,91.0
241,64.40847333333333,64.90578416666668,61.0,93.0
242,64.73105333333334,65.28347158333334,57.0,86.0
243,63.11815333333334,65.45013791666668,45.0,80.0
244,65.05363333333334,65.499869,64.0,89.0
245,63.440733333333334,65.51196575,52.0,68.0
246,65.05363333333334,65.58320216666667,61.0,89.0
247,65.69879333333334,66.27271691666667,47.0,88.0
248,65.69879333333334,66.42863058333334,59.0,96.0
249,65.69879333333334,66.48777025,66.0,93.0
250,66.34395333333333,66.50927558333333,47.0,86.0
251,65.69879333333334,66.53750133333334,62.0,110.0
252,66.66653333333333,67.46223066666667,68.0,91.0
253,66.66653333333333,67.46895108333334,64.0,104.0
254,66.66653333333333,67.47970375,59.0,91.0
255,66.66653333333333,67.51330583333333,52.0,88.0
256,67.63427333333334,68.05228325,59.0,92.0
257,67.63427333333334,68.080509,64.0,104.0
258,67.63427333333334,68.09529391666668,52.0,92.0
259,67.63427333333334,68.12755191666668,68.0,97.0
260,68.27943333333334,68.90174391666667,69.0,85.0
261,68.27943333333334,68.92459333333333,61.0,86.0
262,68.27943333333334,68.9917975,64.0,86.0
263,68.92459333333333,68.9917975,64.0,104.0
264,68.92459333333333,69.31572158333334,57.0,87.0
265,68.92459333333333,69.53077491666667,69.0,92.0
266,68.92459333333333,69.60201133333334,61.0,91.0
267,69.89233333333334,70.31168733333334,57.0,87.0
268,68.60201333333333,70.36545066666667,52.0,65.0
269,68.27943333333334,70.44878383333334,45.0,92.0
270,70.21491333333334,70.64233183333334,69.0,93.0
271,70.21491333333334,70.70819191666668,61.0,102.0
272,70.21491333333334,70.74313808333333,64.0,108.0
273,70.86007333333333,71.1692125,66.0,94.0
274,70.86007333333333,71.17862108333334,69.0,90.0
275,70.86007333333333,71.49044841666667,61.0,88.0
276,71.50523333333334,72.03480216666667,54.0,83.0
277,71.50523333333334,72.18802766666667,66.0,94.0
278,71.50523333333334,72.19878033333333,57.0,87.0
279,71.50523333333334,72.23507058333334,61.0,93.0
280,72.47297333333334,72.98775725,54.0,87.0
281,71.18265333333333,73.07377858333334,49.0,69.0
282,70.86007333333333,73.09797208333333,42.0,85.0
283,72.79555333333333,73.22028366666667,66.0,89.0
284,72.79555333333333,73.22431591666667,57.0,88.0
285,72.79555333333333,73.32377808333334,61.0,91.0
286,73.44071333333333,73.79958358333334,66.0,89.0
287,73.44071333333333,73.84393833333334,59.0,87.0
288,73.44071333333333,73.854691,62.0,92.0
289,73.76329333333334,74.38963616666668,54.0,79.0
290,74.08587333333334,74.74985050000001,66.0,90.0
291,74.08587333333334,74.77135583333333,59.0,91.0
292,74.08587333333334,74.77538808333334,62.0,93.0
293,75.05361333333333,75.34124716666668,54.0,83.0
294,73.44071333333333,75.45549425,47.0,88.0
295,75.37619333333333,75.80361183333333,66.0,96.0
296,75.37619333333333,75.81570858333333,62.0,107.0
297,75.37619333333333,75.999848,59.0,102.0
298,76.02135333333334,76.41651383333334,64.0,94.0
299,76.02135333333334,76.50522333333333,56.0,90.0
300,76.02135333333334,76.52269641666668,59.0,98.0
301,76.66651333333334,77.16248008333334,52.0,83.0
302,76.66651333333334,77.37753341666667,64.0,98.0
303,76.66651333333334,77.41516775000001,56.0,92.0
304,76.66651333333334,77.4192,59.0,104.0
305,77.63425333333333,78.00118808333333,52.0,96.0
306,76.34393333333334,78.04957508333334,47.0,73.0
307,76.02135333333334,78.28747783333334,40.0,87.0
308,77.95683333333334,78.29957458333334,64.0,89.0
309,77.95683333333334,78.31435950000001,56.0,88.0
310,78.27941333333334,78.45548825,52.0,85.0
311,78.27941333333334,78.47699358333334,47.0,62.0
312,77.95683333333334,78.51328383333333,59.0,89.0
313,78.60199333333334,79.0401645,66.0,89.0
314,78.60199333333334,79.05629350000001,61.0,91.0
315,78.60199333333334,79.08586333333334,57.0,87.0
316,79.24715333333334,79.93129175,66.0,94.0
317,79.24715333333334,79.93801216666667,54.0,87.0
318,79.24715333333334,79.94338850000001,57.0,91.0
319,79.24715333333334,79.94876483333334,61.0,93.0
320,80.21489333333334,80.62752691666667,54.0,89.0
321,78.92457333333334,80.72295683333334,49.0,74.0
322,80.53747333333334,80.88424683333334,57.0,91.0
323,80.86005333333334,80.935322,54.0,82.0
324,80.86005333333334,80.9433865,49.0,36.0
325,78.60199333333334,80.96220366666667,42.0,86.0
326,80.53747333333334,80.99446166666667,66.0,91.0
327,80.53747333333334,81.07241850000001,61.0,107.0
328,81.18263333333334,81.9917715,56.0,91.0
329,81.18263333333334,81.99580375000001,61.0,94.0
330,81.18263333333334,81.99580375000001,64.0,91.0
331,81.98908333333334,81.99580375000001,64.0,88.0
332,82.15037333333333,82.25655591666667,56.0,86.0
333,82.15037333333333,82.41919,61.0,90.0
334,81.18263333333334,82.43128675,49.0,88.0
335,82.47295333333334,83.32644625,66.0,96.0
336,82.47295333333334,83.34123116666667,57.0,88.0
337,82.47295333333334,83.36811283333334,61.0,89.0
338,83.11811333333334,83.54822,54.0,83.0
339,83.44069333333334,83.60063925,57.0,87.0
340,83.44069333333334,83.68262833333334,66.0,88.0
341,82.47295333333334,83.79284316666667,42.0,86.0
342,83.44069333333334,83.80225175000001,61.0,88.0
343,83.76327333333334,84.548218,47.0,87.0
344,83.76327333333334,84.62617483333334,59.0,89.0
345,83.76327333333334,84.63961566666667,62.0,92.0
346,83.76327333333334,84.64902425000001,66.0,88.0
347,84.73101333333334,84.83181958333334,66.0,84.0
348,84.73101333333334,84.92187316666667,62.0,86.0
349,84.73101333333334,85.05359333333334,47.0,87.0
350,85.05359333333334,85.532087,52.0,86.0
351,85.05359333333334,85.81837675,64.0,89.0
352,85.05359333333334,85.85332291666667,56.0,89.0
353,84.73101333333334,85.88961316666668,59.0,94.0
354,85.05359333333334,86.14230083333334,40.0,82.0
355,85.69875333333334,86.22160175,52.0,83.0
356,86.02133333333335,86.81971883333334,64.0,90.0
357,86.02133333333335,86.84525641666667,59.0,91.0
358,86.02133333333335,86.84660050000001,56.0,88.0
359,86.82778333333334,87.37885750000001,52.0,102.0
360,86.98907333333334,87.38020158333335,56.0,93.0
361,87.31165333333334,87.70412566666667,59.0,94.0
362,87.63423333333334,87.73503958333333,64.0,102.0
363,87.63423333333334,88.35869425,52.0,86.0
364,88.27939333333335,88.60734966666668,71.0,110.0
365,86.34391333333333,88.62616683333334,40.0,91.0
366,88.27939333333335,88.63154316666667,76.0,107.0
367,86.66649333333334,88.67052158333334,47.0,85.0
368,88.60197333333333,88.93933825,52.0,83.0
369,88.92455333333334,89.19202591666667,69.0,102.0
370,88.92455333333334,89.25654191666668,73.0,96.0
371,88.92455333333334,89.52670266666667,64.0,90.0
372,89.56971333333334,90.13691650000001,57.0,87.0
373,89.56971333333334,90.21487333333334,69.0,90.0
374,89.56971333333334,90.26863666666667,61.0,94.0
375,89.56971333333334,90.36003433333335,64.0,108.0
376,90.53745333333333,90.88153866666667,57.0,91.0
377,89.24713333333334,90.90304400000001,52.0,75.0
378,88.92455333333334,90.919173,45.0,88.0
379,90.86003333333333,91.19605416666667,69.0,91.0
380,90.86003333333333,91.2498175,61.0,98.0
381,90.86003333333333,91.44067733333334,64.0,102.0
382,91.18261333333334,91.50116108333334,44.0,82.0
383,91.50519333333334,91.7982035,66.0,102.0
384,91.50519333333334,91.82777333333334,61.0,88.0
385,91.50519333333334,91.86675175,69.0,89.0
386,92.15035333333334,92.82508316666667,66.0,93.0
387,92.15035333333334,92.83314766666668,54.0,88.0
388,92.15035333333334,92.8627175,57.0,88.0
389,92.15035333333334,92.89363141666668,61.0,100.0
390,93.11809333333333,93.48233991666667,54.0,102.0
391,91.50519333333334,93.7820705,42.0,91.0
392,93.44067333333334,93.78475866666668,57.0,96.0
393,91.82777333333334,93.78879091666667,49.0,77.0
394,93.44067333333334,93.82776933333334,66.0,96.0
395,93.44067333333334,93.99846791666667,61.0,108.0
396,93.76325333333334,94.09120966666667,54.0,86.0
397,94.08583333333334,94.44604766666667,59.0,92.0
398,94.08583333333334,94.62346666666667,62.0,102.0
399,94.08583333333334,94.693359,66.0,100.0
400,94.73099333333334,95.30491691666667,59.0,96.0
401,94.73099333333334,95.34658350000001,71.0,100.0
402,94.73099333333334,95.38959416666667,66.0,113.0
403,94.73099333333334,95.39093825,62.0,102.0
404,95.69873333333334,96.07910891666667,59.0,96.0
405,94.40841333333334,96.1530335,54.0,74.0
406,94.08583333333334,96.15840983333334,47.0,89.0
407,96.02131333333334,96.30894716666667,71.0,91.0
408,96.02131333333334,96.39093625000001,62.0,104.0
409,96.34389333333334,96.44201141666667,47.0,91.0
410,96.02131333333334,96.58448425,66.0,113.0
411,96.66647333333334,97.00652641666667,64.0,110.0
412,96.66647333333334,97.03609625,68.0,107.0
413,96.66647333333334,97.2981925,59.0,93.0
414,97.31163333333333,97.74577225,52.0,92.0
415,97.31163333333333,97.86001933333334,56.0,92.0
416,97.31163333333333,97.89227733333334,64.0,100.0
417,97.31163333333333,97.94604066666668,59.0,110.0
418,98.27937333333334,98.63824358333333,52.0,96.0
419,98.60195333333334,98.90571616666668,56.0,107.0
420,96.66647333333334,98.92318925000001,40.0,91.0
421,98.60195333333334,98.94872683333334,64.0,107.0
422,98.60195333333334,99.16512425,59.0,113.0
423,98.92453333333334,99.19200591666667,52.0,87.0
424,96.98905333333335,99.24845741666667,47.0,80.0
425,99.24711333333335,99.48501608333333,66.0,89.0
426,99.24711333333335,99.56297291666667,57.0,89.0
427,99.24711333333335,99.65033833333334,61.0,102.0
428,99.89227333333334,100.41780991666667,54.0,94.0
429,99.89227333333334,100.56431500000001,66.0,100.0
430,99.89227333333334,100.58716441666667,57.0,93.0
431,99.89227333333334,100.60194933333334,61.0,107.0
432,100.86001333333334,101.22022766666667,54.0,93.0
433,99.24711333333335,101.48366800000001,42.0,88.0
434,101.18259333333334,101.49576475,57.0,102.0
435,101.18259333333334,101.50517333333335,66.0,107.0
436,99.56969333333333,101.50920558333334,49.0,80.0
437,101.18259333333334,101.51323783333333,61.0,110.0
438,101.50517333333335,101.62748491666667,54.0,87.0
439,101.82775333333333,102.31027925000001,64.0,96.0
440,101.82775333333333,102.34522541666668,56.0,98.0
441,101.82775333333333,102.36001033333334,61.0,110.0
442,101.82775333333333,102.60866575,49.0,86.0
443,102.47291333333334,102.78608475,56.0,91.0
444,102.47291333333334,102.85597708333334,64.0,91.0
445,102.47291333333334,102.98635316666667,61.0,93.0
446,102.79549333333334,103.09387983333335,49.0,84.0
447,103.11807333333334,103.5239865,66.0,98.0
448,103.11807333333334,103.58984658333334,57.0,89.0
449,103.11807333333334,103.60059925,61.0,102.0
450,103.11807333333334,103.84656650000001,42.0,81.0
451,103.11807333333334,103.87344816666668,54.0,87.0
452,103.76323333333335,104.17989916666667,57.0,92.0
453,103.76323333333335,104.20812491666668,66.0,92.0
454,104.08581333333333,104.24575925,42.0,85.0
455,104.08581333333333,104.28070541666668,54.0,89.0
456,103.76323333333335,104.34925366666667,61.0,100.0
457,104.40839333333334,104.88554291666668,66.0,98.0
458,104.40839333333334,104.94065033333334,59.0,92.0
459,104.40839333333334,104.94737075,62.0,104.0
460,104.40839333333334,105.16511225,47.0,92.0
461,105.05355333333334,105.42855258333334,66.0,91.0
462,105.05355333333334,105.44871383333334,62.0,98.0
463,105.05355333333334,105.64629408333334,59.0,98.0
464,105.37613333333334,105.66779941666667,47.0,88.0
465,105.69871333333334,106.14898125,64.0,96.0
466,105.69871333333334,106.20946500000001,56.0,92.0
467,105.69871333333334,106.21484133333334,59.0,94.0
468,105.69871333333334,106.435271,52.0,89.0
469,105.69871333333334,106.44602366666668,40.0,89.0
470,106.34387333333333,106.79682941666667,64.0,93.0
471,106.34387333333333,106.79951758333334,56.0,88.0
472,106.66645333333334,106.8949475,40.0,84.0
473,106.66645333333334,106.92451733333334,52.0,90.0
474,106.34387333333333,106.97290433333335,59.0,98.0
475,106.98903333333334,107.65569866666668,57.0,88.0
476,106.98903333333334,107.88553691666667,61.0,93.0
477,106.98903333333334,107.951397,64.0,92.0
478,107.95677333333335,108.71214816666668,57.0,83.0
479,108.27935333333333,109.12478175000001,69.0,90.0
480,108.27935333333333,109.16779241666667,61.0,88.0
481,108.27935333333333,109.21080308333335,64.0,94.0
482,108.92451333333334,109.29951258333334,57.0,83.0
483,106.98903333333334,109.33983508333334,45.0,102.0
484,107.63419333333334,109.36537266666667,52.0,79.0
485,109.56967333333334,109.79413525000001,57.0,88.0
486,109.56967333333334,110.13150016666667,61.0,91.0
487,109.56967333333334,110.18257533333335,64.0,88.0
488,110.21483333333335,110.72424091666667,57.0,86.0
489,110.53741333333333,111.14225083333334,61.0,92.0
490,110.53741333333333,111.21214316666668,69.0,93.0
491,110.53741333333333,111.27800325000001,64.0,102.0
492,111.18257333333334,111.54009950000001,57.0,87.0
493,109.56967333333334,111.54278766666667,45.0,87.0
494,109.89225333333334,111.57907791666668,52.0,77.0
495,111.50515333333334,111.83983008333334,61.0,104.0
496,111.50515333333334,111.86671175000001,69.0,90.0
497,111.50515333333334,112.06832425,64.0,113.0
498,111.82773333333334,112.18391541666668,44.0,84.0
499,112.15031333333334,112.86133341666667,69.0,88.0
500,112.15031333333334,112.87746241666667,61.0,87.0
501,112.15031333333334,112.87880650000001,66.0,94.0
502,112.79547333333333,113.33713891666667,54.0,83.0
503,113.11805333333334,113.79547133333334,69.0,89.0
504,113.11805333333334,113.81294441666667,61.0,94.0
505,113.11805333333334,113.8465465,66.0,104.0
506,113.76321333333334,114.11939541666668,54.0,85.0
507,114.08579333333334,114.26858866666667,69.0,89.0
508,112.47289333333335,114.40434108333334,49.0,80.0
509,112.15031333333334,114.40568516666667,42.0,89.0
510,114.08579333333334,114.41778191666667,66.0,98.0
511,114.08579333333334,114.43928725,61.0,98.0
512,114.40837333333334,114.73095333333335,54.0,86.0
513,114.73095333333335,115.14896325000001,62.0,100.0
514,114.73095333333335,115.17853308333333,66.0,94.0
515,114.73095333333335,115.19600616666668,59.0,92.0
516,115.05353333333333,115.52799475,54.0,77.0
517,114.73095333333335,115.53874741666668,47.0,88.0
518,115.69869333333334,115.790091,47.0,88.0
519,115.37611333333334,115.83175758333334,59.0,90.0
520,115.37611333333334,115.94734875,66.0,89.0
521,115.37611333333334,115.96885408333334,62.0,93.0
522,116.02127333333334,116.4271865,68.0,91.0
523,116.02127333333334,116.44197141666668,59.0,88.0
524,116.02127333333334,116.44197141666668,64.0,91.0
525,116.34385333333334,116.67449783333333,47.0,81.0
526,116.66643333333334,116.92584141666667,68.0,89.0
527,116.66643333333334,117.00245416666668,59.0,91.0
528,116.66643333333334,117.00379825,64.0,89.0
529,116.02127333333334,117.03605625,40.0,88.0
530,116.98901333333335,117.10460450000001,47.0,81.0
531,116.66643333333334,117.21481933333334,52.0,84.0
532,117.31159333333333,117.51858216666668,57.0,88.0
533,117.31159333333333,117.97691458333334,64.0,90.0
534,117.31159333333333,118.01858116666668,61.0,96.0
535,117.95675333333334,118.27933333333334,57.0,81.0
536,118.27933333333334,118.52395650000001,59.0,89.0
537,118.60191333333334,118.66642933333334,57.0,84.0
538,117.63417333333334,118.98497708333333,52.0,73.0
539,117.31159333333333,119.01857916666667,45.0,86.0
540,120.53739333333334,121.28201550000001,57.0,83.0
541,120.85997333333334,121.54545583333334,69.0,90.0
542,120.85997333333334,121.60056325000001,61.0,91.0
543,121.50513333333335,121.89626158333334,57.0,78.0
544,120.21481333333334,121.98228291666668,52.0,73.0
545,119.89223333333334,122.01857316666667,45.0,86.0
546,121.82771333333334,122.21346525000001,69.0,89.0
547,121.82771333333334,122.24437916666668,61.0,91.0
548,122.15029333333334,122.43255083333334,64.0,82.0
549,122.47287333333334,123.18658158333334,66.0,88.0
550,122.47287333333334,123.38953816666667,61.0,86.0
551,123.11803333333334,123.88953716666667,54.0,81.0
552,123.44061333333335,124.19598816666668,66.0,88.0
553,123.44061333333335,124.22690208333334,57.0,87.0
554,122.47287333333334,124.58039600000001,42.0,80.0
555,122.79545333333334,124.58174008333334,49.0,67.0
556,124.08577333333334,124.68792266666668,54.0,81.0
557,124.40835333333334,125.00109408333334,57.0,74.0
558,124.40835333333334,125.15297550000001,66.0,81.0
559,125.69867333333335,126.44867183333334,59.0,85.0
560,126.02125333333333,126.75109058333334,71.0,87.0
561,126.66641333333334,127.01990725,59.0,83.0
562,126.02125333333333,127.03603625000001,62.0,87.0
563,125.37609333333334,127.07904691666667,54.0,78.0
564,125.05351333333334,127.19598216666668,47.0,88.0
565,126.98899333333334,127.62474475,66.0,94.0
566,127.63415333333334,127.81022825000001,68.0,87.0
567,127.63415333333334,128.63818358333333,59.0,86.0
568,128.60189333333335,128.91640883333335,57.0,84.0
569,128.27931333333333,129.30350483333334,52.0,85.0
570,128.92447333333334,129.69732125000002,59.0,83.0
571,128.92447333333334,129.73898783333334,64.0,83.0
572,127.63415333333334,129.82769733333333,40.0,83.0
573,127.95673333333335,129.84248225000002,47.0,81.0
574,128.92447333333334,129.85861125,56.0,81.0
575,129.56963333333334,130.02930983333334,52.0,74.0
576,130.85995333333335,131.62473675,54.0,84.0
577,131.18253333333334,131.88145666666668,66.0,88.0
578,131.18253333333334,131.93522000000002,57.0,89.0
579,130.53737333333333,132.17312275,49.0,78.0
580,130.21479333333335,132.20269258333335,42.0,88.0
581,131.82769333333334,132.22554200000002,54.0,85.0
582,132.15027333333333,132.53333708333335,57.0,93.0
583,132.15027333333333,132.63145516666668,66.0,87.0
584,132.47285333333335,132.76989575000002,61.0,83.0
585,132.79543333333334,133.07634675,61.0,84.0
586,132.79543333333334,133.39623858333334,68.0,91.0
587,133.44059333333334,134.14892525000002,61.0,82.0
588,133.76317333333333,134.44731175,71.0,91.0
589,134.40833333333333,134.75241866666667,61.0,80.0
590,133.11801333333335,134.790053,56.0,60.0
591,132.79543333333334,134.87876250000002,49.0,86.0
592,134.73091333333335,135.4110195,68.0,90.0
593,133.76317333333333,135.42311625000002,64.0,88.0
594,136.02123333333333,137.28735983333334,59.0,83.0
595,135.69865333333334,137.35859625,54.0,75.0
596,135.37607333333335,137.499725,47.0,88.0
597,136.34381333333334,137.51585400000002,71.0,87.0
598,136.34381333333334,137.54004750000001,62.0,87.0
599,137.95671333333334,138.17176666666668,68.0,87.0
600,137.79542333333333,138.85859325,59.0,70.0
601,138.92445333333333,139.27794725,57.0,81.0
602,138.60187333333334,139.39219433333335,52.0,86.0
603,137.95671333333334,140.12203158333335,40.0,78.0
604,138.27929333333333,140.15428958333334,47.0,77.0
605,139.24703333333335,140.18789166666667,56.0,84.0
606,139.89219333333335,140.4110095,52.0,81.0
607,139.24703333333335,140.49837491666668,64.0,87.0
608,140.53735333333333,140.89219133333333,57.0,83.0
609,140.53735333333333,141.12740591666667,64.0,83.0
610,140.53735333333333,141.27659916666667,61.0,86.0
611,141.18251333333333,141.86799583333334,57.0,72.0
612,141.50509333333335,142.144877,64.0,90.0
613,141.50509333333335,142.15966191666666,61.0,88.0
614,142.15025333333335,142.5386934166667,57.0,83.0
615,140.85993333333334,142.5722955,52.0,64.0
616,140.53735333333333,142.65025233333336,45.0,78.0
617,142.47283333333334,143.02659566666668,64.0,108.0
618,142.47283333333334,143.02928383333335,61.0,104.0
619,143.11799333333335,143.74971250000002,57.0,88.0
620,143.11799333333335,143.7819705,66.0,91.0
621,143.11799333333335,143.97417441666667,61.0,87.0
622,143.76315333333335,144.386808,54.0,78.0
623,144.08573333333334,144.69863533333333,66.0,92.0
624,144.08573333333334,144.7564309166667,57.0,88.0
625,144.08573333333334,144.83438775000002,61.0,93.0
626,143.44057333333333,145.24298908333336,49.0,56.0
627,143.11799333333335,145.27524708333334,42.0,83.0
628,145.05347333333333,145.40427908333334,57.0,89.0
629,145.05347333333333,145.43922525000002,66.0,89.0
630,145.05347333333333,145.64621408333335,61.0,96.0
631,144.73089333333334,145.70266558333333,54.0,82.0
632,145.69863333333333,146.03465416666668,59.0,86.0
633,145.69863333333333,146.15293350000002,62.0,90.0
634,145.69863333333333,146.17847108333333,66.0,88.0
635,146.34379333333334,146.999706,59.0,81.0
636,146.66637333333335,147.30884516666669,66.0,88.0
637,146.66637333333335,147.31556558333335,71.0,86.0
638,146.66637333333335,147.338415,62.0,86.0
639,147.31153333333333,147.6851885,59.0,79.0
640,146.02121333333335,147.71744650000002,54.0,66.0
641,145.69863333333333,147.79540333333335,47.0,80.0
642,147.63411333333335,147.89620958333333,71.0,84.0
643,147.63411333333335,147.93115575000002,62.0,87.0
644,147.63411333333335,148.19056383333333,66.0,85.0
645,148.27927333333335,148.50911158333335,64.0,88.0
646,148.27927333333335,148.59647700000002,68.0,88.0
647,148.27927333333335,149.00104608333334,59.0,85.0
648,149.24701333333334,149.44593766666668,57.0,83.0
649,148.92443333333335,149.78867891666667,52.0,81.0
650,149.56959333333333,150.306151,64.0,84.0
651,149.56959333333333,150.40023683333334,59.0,83.0
652,149.56959333333333,150.402925,56.0,84.0
653,148.27927333333335,150.51179575,40.0,78.0
654,150.21475333333333,150.80883816666667,52.0,76.0
655,148.60185333333334,150.86932191666668,47.0,74.0
656,150.85991333333334,151.47684758333335,66.0,87.0
657,150.85991333333334,151.54405175000002,61.0,87.0
658,150.85991333333334,151.564213,57.0,83.0
659,151.50507333333334,152.15695375,54.0,79.0
660,151.82765333333333,152.49700683333333,61.0,89.0
661,151.82765333333333,152.51044766666666,57.0,88.0
662,151.82765333333333,152.51851216666668,66.0,87.0
663,150.85991333333334,152.96340375,42.0,77.0
664,151.18249333333335,153.00238216666668,49.0,71.0
665,152.47281333333333,153.09243575000002,54.0,80.0
666,152.79539333333335,153.09646800000002,57.0,88.0
667,152.79539333333335,153.14888725,66.0,88.0
668,152.79539333333335,153.32092991666667,61.0,91.0
669,153.44055333333336,153.81017625,64.0,87.0
670,153.44055333333336,153.85856325,68.0,86.0
671,153.44055333333336,153.87066000000002,61.0,84.0
672,153.76313333333334,154.31689566666668,56.0,70.0
673,153.44055333333336,154.40963741666667,49.0,83.0
674,154.08571333333333,154.49431466666667,68.0,86.0
675,154.08571333333333,154.51985225,61.0,86.0
676,154.08571333333333,154.57764783333334,64.0,85.0
677,154.73087333333334,155.60990383333333,57.0,87.0
678,154.73087333333334,155.63006508333333,42.0,86.0
679,154.73087333333334,155.67307575,66.0,86.0
680,155.05345333333335,155.68786066666667,49.0,77.0
681,155.37603333333334,155.81286041666667,54.0,85.0
682,154.73087333333334,155.86393558333333,61.0,88.0
683,156.66635333333335,156.84242825,54.0,76.0
684,156.02119333333334,156.92441733333334,47.0,86.0
685,156.02119333333334,157.080331,62.0,88.0
686,156.02119333333334,157.09511591666669,66.0,88.0
687,157.63409333333334,158.25237166666668,47.0,48.0
688,157.31151333333335,158.25371575,40.0,86.0
689,157.31151333333335,158.3141995,56.0,86.0
690,157.31151333333335,158.32764033333333,64.0,89.0
691,156.02119333333334,158.53866141666668,59.0,86.0
692,157.95667333333336,158.62333866666668,52.0,83.0
693,158.60183333333333,159.01043466666667,57.0,80.0
694,158.60183333333333,159.34779958333334,61.0,84.0
695,158.60183333333333,159.35452,64.0,87.0
696,159.24699333333334,160.00505633333336,57.0,83.0
697,159.89215333333334,160.36392658333335,64.0,91.0
698,159.89215333333334,160.38946416666667,61.0,93.0
699,160.21473333333336,160.76715158333334,57.0,86.0
700,158.60183333333333,160.93381791666667,45.0,80.0
701,160.53731333333334,160.983549,64.0,89.0
702,158.92441333333335,160.99564575000002,52.0,68.0
703,160.53731333333334,161.0668821666667,61.0,89.0
704,161.18247333333335,161.85989133333334,66.0,86.0
705,161.18247333333335,162.015805,59.0,89.0
706,161.18247333333335,162.06015975,47.0,89.0
707,161.18247333333335,162.07360058333333,62.0,100.0
708,162.15021333333334,162.98623316666666,68.0,89.0
709,162.15021333333334,162.98892133333334,64.0,102.0
710,162.15021333333334,163.00908258333334,59.0,90.0
711,163.11795333333333,163.48623216666667,59.0,93.0
712,163.11795333333333,163.5144579166667,64.0,107.0
713,162.15021333333334,163.54133958333335,52.0,88.0
714,163.11795333333333,163.57225350000002,68.0,95.0
715,163.76311333333334,164.38542391666667,69.0,85.0
716,163.76311333333334,164.40827333333334,61.0,86.0
717,163.76311333333334,164.4754775,64.0,86.0
718,164.40827333333334,164.4754775,64.0,104.0
719,164.40827333333334,164.79940158333335,57.0,87.0
720,164.40827333333334,165.01445491666666,69.0,92.0
721,164.40827333333334,165.08569133333333,61.0,91.0
722,165.37601333333333,165.79536733333333,57.0,87.0
723,164.08569333333335,165.84913066666667,52.0,65.0
724,163.76311333333334,165.93246383333334,45.0,92.0
725,165.69859333333335,166.12601183333334,69.0,93.0
726,165.69859333333335,166.19187191666668,61.0,102.0
727,165.69859333333335,166.22681808333334,64.0,108.0
728,166.34375333333335,166.6528925,66.0,94.0
729,166.34375333333335,166.66230108333335,69.0,90.0
730,166.34375333333335,166.97412841666667,61.0,88.0
731,166.98891333333336,167.51848216666667,54.0,83.0
732,166.98891333333336,167.67170766666666,66.0,94.0
733,166.98891333333336,167.68246033333335,57.0,87.0
734,166.98891333333336,167.71875058333333,61.0,93.0
735,167.95665333333335,168.47143725,54.0,87.0
736,166.66633333333334,168.55745858333336,49.0,69.0
737,166.34375333333335,168.58165208333335,42.0,85.0
738,168.27923333333334,168.70396366666668,66.0,89.0
739,168.27923333333334,168.70799591666668,57.0,88.0
740,168.27923333333334,168.80745808333333,61.0,91.0
741,168.92439333333334,169.28326358333334,66.0,89.0
742,168.92439333333334,169.32761833333333,59.0,87.0
743,168.92439333333334,169.33837100000002,62.0,92.0
744,169.24697333333333,169.87331616666668,54.0,79.0
745,169.56955333333335,170.2335305,66.0,90.0
746,169.56955333333335,170.25503583333335,59.0,91.0
747,169.56955333333335,170.25906808333335,62.0,93.0
748,170.53729333333334,170.82492716666667,54.0,83.0
749,168.92439333333334,170.93917425,47.0,88.0
750,170.85987333333335,171.28729183333334,66.0,96.0
751,170.85987333333335,171.29938858333335,62.0,107.0
752,170.85987333333335,171.483528,59.0,102.0
753,171.50503333333333,171.90019383333333,64.0,94.0
754,171.50503333333333,171.98890333333335,56.0,90.0
755,171.50503333333333,172.00637641666668,59.0,98.0
756,172.15019333333333,172.64616008333334,52.0,83.0
757,172.15019333333333,172.8612134166667,64.0,98.0
758,172.15019333333333,172.89884775000002,56.0,92.0
759,172.15019333333333,172.90288,59.0,104.0
760,173.11793333333335,173.48486808333334,52.0,96.0
761,171.82761333333335,173.53325508333333,47.0,73.0
762,171.50503333333333,173.77115783333335,40.0,87.0
763,173.44051333333334,173.78325458333333,64.0,89.0
764,173.44051333333334,173.79803950000002,56.0,88.0
765,173.76309333333333,173.93916825000002,52.0,85.0
766,173.76309333333333,173.96067358333335,47.0,62.0
767,173.44051333333334,173.99696383333335,59.0,89.0
768,174.08567333333335,174.52384450000002,66.0,89.0
769,174.08567333333335,174.5399735,61.0,91.0
770,174.08567333333335,174.56954333333334,57.0,87.0
771,174.73083333333335,175.41497175,66.0,94.0
772,174.73083333333335,175.42169216666667,54.0,87.0
773,174.73083333333335,175.42706850000002,57.0,91.0
774,174.73083333333335,175.43244483333334,61.0,93.0
775,175.69857333333334,176.11120691666667,54.0,89.0
776,174.40825333333333,176.20663683333333,49.0,74.0
777,176.02115333333333,176.36792683333334,57.0,91.0
778,176.34373333333335,176.419002,54.0,82.0
779,176.34373333333335,176.42706650000002,49.0,36.0
780,174.08567333333335,176.44588366666667,42.0,86.0
781,176.02115333333333,176.4781416666667,66.0,91.0
782,176.02115333333333,176.55609850000002,61.0,107.0
783,176.66631333333333,177.47545150000002,56.0,91.0
784,176.66631333333333,177.47948375,61.0,94.0
785,176.66631333333333,177.47948375,64.0,91.0
786,177.47276333333335,177.47948375,64.0,88.0
787,177.63405333333336,177.74023591666668,56.0,86.0
788,177.63405333333336,177.90287,61.0,90.0
789,176.66631333333333,177.91496675000002,49.0,88.0
790,177.95663333333334,178.81012625000002,66.0,96.0
791,177.95663333333334,178.82491116666668,57.0,88.0
792,177.95663333333334,178.85179283333335,61.0,89.0
793,178.60179333333335,179.0319,54.0,83.0
794,178.92437333333334,179.08431925000002,57.0,87.0
795,178.92437333333334,179.16630833333335,66.0,88.0
796,177.95663333333334,179.27652316666666,42.0,86.0
797,178.92437333333334,179.28593175,61.0,88.0
798,179.24695333333335,180.031898,47.0,87.0
799,179.24695333333335,180.10985483333334,59.0,89.0
800,179.24695333333335,180.12329566666668,62.0,92.0
801,179.24695333333335,180.13270425000002,66.0,88.0
802,180.21469333333334,180.31549958333335,66.0,84.0
803,180.21469333333334,180.40555316666666,62.0,86.0
804,180.21469333333334,180.53727333333333,47.0,87.0
805,180.53727333333333,181.015767,52.0,86.0
806,180.53727333333333,181.30205675000002,64.0,89.0
807,180.53727333333333,181.33700291666668,56.0,89.0
808,180.21469333333334,181.37329316666668,59.0,94.0
809,180.53727333333333,181.62598083333336,40.0,82.0
810,181.18243333333334,181.70528175,52.0,83.0
811,181.50501333333335,182.30339883333335,64.0,90.0
812,181.50501333333335,182.32893641666666,59.0,91.0
813,181.50501333333335,182.33028050000001,56.0,88.0
814,182.31146333333334,182.8625375,52.0,102.0
815,182.47275333333334,182.86388158333335,56.0,93.0
816,182.79533333333333,183.1878056666667,59.0,94.0
817,183.11791333333335,183.21871958333335,64.0,102.0
818,183.11791333333335,183.84237425,52.0,86.0
819,183.76307333333335,184.06952433333333,68.0,90.0
820,183.76307333333335,184.09102966666669,71.0,110.0
821,181.82759333333334,184.10984683333334,40.0,91.0
822,183.76307333333335,184.11522316666668,76.0,107.0
823,182.15017333333336,184.15420158333333,47.0,85.0
824,184.08565333333334,184.42301825,52.0,83.0
825,184.40823333333336,184.6757059166667,69.0,102.0
826,184.40823333333336,184.74022191666668,73.0,96.0
827,184.40823333333336,185.0103826666667,64.0,90.0
828,185.05339333333333,185.6205965,57.0,87.0
829,185.05339333333333,185.69855333333334,69.0,90.0
830,185.05339333333333,185.75231666666667,61.0,94.0
831,185.05339333333333,185.84371433333334,64.0,108.0
832,186.02113333333335,186.3652186666667,57.0,91.0
833,184.73081333333334,186.38672400000002,52.0,75.0
834,184.40823333333336,186.40285300000002,45.0,88.0
835,186.34371333333334,186.6797341666667,69.0,91.0
836,186.34371333333334,186.7334975,61.0,98.0
837,186.34371333333334,186.92435733333335,64.0,102.0
838,186.66629333333336,186.98484108333335,44.0,82.0
839,186.98887333333334,187.28188350000002,66.0,102.0
840,186.98887333333334,187.31145333333333,61.0,88.0
841,186.98887333333334,187.35043175,69.0,89.0
842,187.63403333333335,188.30876316666667,66.0,93.0
843,187.63403333333335,188.31682766666668,54.0,88.0
844,187.63403333333335,188.34639750000002,57.0,88.0
845,187.63403333333335,188.37731141666669,61.0,100.0
846,188.60177333333334,188.96601991666668,54.0,102.0
847,186.98887333333334,189.26575050000002,42.0,91.0
848,188.92435333333336,189.26843866666667,57.0,96.0
849,187.31145333333333,189.2724709166667,49.0,77.0
850,188.92435333333336,189.31144933333334,66.0,96.0
851,188.92435333333336,189.4821479166667,61.0,108.0
852,189.24693333333335,189.57488966666668,54.0,86.0
853,189.56951333333333,189.92972766666668,59.0,92.0
854,189.56951333333333,190.10714666666667,62.0,102.0
855,189.56951333333333,190.177039,66.0,100.0
856,190.21467333333334,190.78859691666668,59.0,96.0
857,190.21467333333334,190.8302635,71.0,100.0
858,190.21467333333334,190.87327416666668,66.0,113.0
859,190.21467333333334,190.87461825,62.0,102.0
860,191.18241333333336,191.56278891666668,59.0,96.0
861,189.89209333333335,191.6367135,54.0,74.0
862,189.56951333333333,191.64208983333336,47.0,89.0
863,191.50499333333335,191.79262716666668,71.0,91.0
864,191.50499333333335,191.87461625,62.0,104.0
865,191.82757333333333,191.92569141666667,47.0,91.0
866,191.50499333333335,192.06816425000002,66.0,113.0
867,192.15015333333335,192.49020641666667,64.0,110.0
868,192.15015333333335,192.51977625,68.0,107.0
869,192.15015333333335,192.78187250000002,59.0,93.0
870,192.79531333333335,193.22945225,52.0,92.0
871,192.79531333333335,193.34369933333335,56.0,92.0
872,192.79531333333335,193.37595733333333,64.0,100.0
873,192.79531333333335,193.42972066666667,59.0,110.0
874,193.76305333333335,194.12192358333334,52.0,96.0
875,194.08563333333333,194.38939616666667,56.0,107.0
876,192.15015333333335,194.40686925,40.0,91.0
877,194.08563333333333,194.43240683333335,64.0,107.0
878,194.08563333333333,194.64880425,59.0,113.0
879,194.40821333333335,194.67568591666668,52.0,87.0
880,192.47273333333334,194.7321374166667,47.0,80.0
881,194.73079333333334,194.96869608333336,66.0,89.0
882,194.73079333333334,195.0466529166667,57.0,89.0
883,194.73079333333334,195.13401833333336,61.0,102.0
884,195.37595333333334,195.9014899166667,54.0,94.0
885,195.37595333333334,196.04799500000001,66.0,100.0
886,195.37595333333334,196.0708444166667,57.0,93.0
887,195.37595333333334,196.08562933333334,61.0,107.0
888,196.34369333333333,196.70390766666668,54.0,93.0
889,194.73079333333334,196.96734800000002,42.0,88.0
890,196.66627333333335,196.97944475,57.0,102.0
891,196.66627333333335,196.98885333333334,66.0,107.0
892,195.05337333333335,196.99288558333333,49.0,80.0
893,196.66627333333335,196.99691783333336,61.0,110.0
894,196.98885333333334,197.11116491666667,54.0,87.0
895,197.31143333333335,197.79395925,64.0,96.0
896,197.31143333333335,197.8289054166667,56.0,98.0
897,197.31143333333335,197.84369033333334,61.0,110.0
898,197.31143333333335,198.09234575000002,49.0,86.0
899,197.95659333333336,198.26976475,56.0,91.0
900,197.95659333333336,198.33965708333335,64.0,91.0
901,197.95659333333336,198.47003316666667,61.0,93.0
902,198.27917333333335,198.57755983333334,49.0,84.0
903,198.60175333333333,199.0076665,66.0,98.0
904,198.60175333333333,199.07352658333335,57.0,89.0
905,198.60175333333333,199.08427925,61.0,102.0
906,198.60175333333333,199.33024650000002,42.0,81.0
907,198.60175333333333,199.35712816666668,54.0,87.0
908,199.24691333333334,199.66357916666666,57.0,92.0
909,199.24691333333334,199.69180491666668,66.0,92.0
910,199.56949333333336,199.72943925,42.0,85.0
911,199.56949333333336,199.76438541666667,54.0,89.0
912,199.24691333333334,199.8329336666667,61.0,100.0
913,199.89207333333334,200.36922291666667,66.0,98.0
914,199.89207333333334,200.42433033333336,59.0,92.0
915,199.89207333333334,200.43105075000003,62.0,104.0
916,199.89207333333334,200.64879225,47.0,92.0
917,200.53723333333335,200.91223258333335,66.0,91.0
918,200.53723333333335,200.93239383333335,62.0,98.0
919,200.53723333333335,201.12997408333334,59.0,98.0
920,200.85981333333334,201.1514794166667,47.0,88.0
921,201.18239333333335,201.63266125,64.0,96.0
922,201.18239333333335,201.69314500000002,56.0,92.0
923,201.18239333333335,201.69852133333333,59.0,94.0
924,201.18239333333335,201.91895100000002,52.0,89.0
925,201.18239333333335,201.92970366666668,40.0,89.0
926,201.82755333333336,202.2805094166667,64.0,93.0
927,201.82755333333336,202.28319758333333,56.0,88.0
928,202.15013333333334,202.37862750000002,40.0,84.0
929,202.15013333333334,202.40819733333333,52.0,90.0
930,201.82755333333336,202.45658433333335,59.0,98.0
931,202.47271333333336,203.1393786666667,57.0,88.0
932,202.47271333333336,203.3692169166667,61.0,93.0
933,202.47271333333336,203.435077,64.0,92.0
934,203.44045333333335,204.19582816666667,57.0,83.0
935,203.76303333333334,204.60846175,69.0,90.0
936,203.76303333333334,204.65147241666668,61.0,88.0
937,203.76303333333334,204.69448308333335,64.0,94.0
938,204.40819333333334,204.78319258333335,57.0,83.0
939,202.47271333333336,204.82351508333335,45.0,102.0
940,203.11787333333334,204.84905266666667,52.0,79.0
941,211.50495333333333,212.25764,57.0,86.0
942,211.18237333333335,212.2764571666667,52.0,80.0
943,210.85979333333336,212.49554275000003,45.0,88.0
944,212.63398333333333,212.84500441666668,45.0,75.0
945,212.15011333333334,212.95387516666668,64.0,88.0
946,212.47269333333335,213.14742316666667,61.0,74.0
947,212.79527333333334,215.01301083333334,42.0,81.0
948,213.11785333333336,215.04392475,49.0,76.0
949,213.76301333333333,215.354408,57.0,83.0
950,213.44043333333335,215.37591333333336,54.0,82.0
951,213.76301333333333,215.43236483333334,66.0,82.0
952,216.02107333333333,216.34902966666667,59.0,78.0
953,215.69849333333335,216.3933844166667,54.0,75.0
954,215.37591333333336,216.44983591666667,47.0,84.0
955,216.34365333333335,216.71999666666667,71.0,79.0
956,216.34365333333335,216.76972775000002,62.0,83.0
957,216.66623333333334,219.23208841666667,40.0,83.0
958,216.98881333333335,219.23746475000002,47.0,74.0
959,217.79526333333334,219.33692691666667,56.0,71.0
960,217.79526333333334,219.36246450000002,64.0,67.0
961,217.47268333333335,219.81810875000002,52.0,77.0
962,219.89203333333336,220.773752,45.0,38.0
963,219.73074333333335,220.8248271666667,57.0,38.0
964,219.89203333333336,220.838268,61.0,38.0
965,220.05332333333334,220.92160116666668,64.0,58.0
