,start,end,pitch,velocity
0,19.317552102083333,19.583176995833334,66.0,85.0
1,19.734218602083335,19.994635164583336,66.0,93.0
2,20.150885102083336,20.40782944375,68.0,95.0
3,20.567551602083334,20.7984542875,70.0,107.0
4,20.984218102083336,21.138731929166667,70.0,100.0
5,21.400884602083334,21.612690072916667,68.0,100.0
6,21.817551102083335,22.477273060416668,70.0,122.0
7,23.484217102083335,23.643939260416666,66.0,99.0
8,23.692550352083334,23.76199476875,63.0,83.0
9,23.900883602083333,24.3401195375,63.0,112.0
10,24.317550102083334,24.411300064583333,66.0,90.0
11,24.734216602083336,25.11616089375,68.0,107.0
12,25.150883102083334,26.468590908333333,63.0,102.0
13,26.817549102083333,26.99463236458333,66.0,92.0
14,27.025882352083336,27.291507245833333,68.0,65.0
15,27.23421560208333,27.55018769791667,70.0,107.0
16,27.650882102083337,27.90956255416667,70.0,117.0
17,28.484215102083333,28.687340020833332,70.0,122.0
18,28.692548352083335,28.770673320833332,68.0,97.0
19,28.900881602083334,29.135256508333335,68.0,96.0
20,29.317548102083336,29.62657575625,66.0,100.0
21,29.734214602083334,29.91824230625,68.0,107.0
22,30.150881102083332,30.413033775000002,70.0,102.0
23,30.567547602083334,31.43907503125,73.0,122.0
24,32.650880102083335,32.829699475,70.0,102.0
25,33.06754660208333,33.23074098125,70.0,102.0
26,33.48421310208333,33.72032411875,73.0,112.0
27,33.900879602083336,34.27240723125,75.0,127.0
28,34.317546102083334,34.538032125,75.0,127.0
29,34.73421260208333,34.95990695625,73.0,112.0
30,35.15087910208334,35.5171984,70.0,102.0
31,35.98421210208333,36.20817034583334,70.0,96.0
32,36.40087860208334,36.65435072291667,70.0,107.0
33,36.81754510208333,37.11615609375,75.0,117.0
34,37.234211602083334,37.48941983333333,73.0,117.0
35,37.65087810208333,37.808864150000005,73.0,117.0
36,38.06754460208333,38.30018339791667,70.0,107.0
37,38.484211102083336,38.66823880625,68.0,95.0
38,38.69254435208333,39.31059966041667,66.0,78.0
39,40.150877102083335,40.28282149375,70.0,117.0
40,40.35921035208334,40.47900197083334,68.0,88.0
41,40.56754360208333,40.796710177083334,66.0,97.0
42,40.98421010208334,41.32795996458333,66.0,100.0
43,41.817543102083334,41.96164026666666,66.0,93.0
44,42.02587635208333,42.1734457375,61.0,79.0
45,42.23420960208333,42.4338623,70.0,102.0
46,42.65087610208333,42.89393156041667,68.0,112.0
47,42.85920935208333,43.03282039375,66.0,100.0
48,43.067542602083336,43.157820343750004,66.0,100.0
49,43.27587585208333,43.782820093750004,68.0,99.0
50,43.90087560208333,45.18559731041667,66.0,99.0
51,47.23420760208333,47.381776987500004,70.0,100.0
52,47.44254085208333,47.5692769125,73.0,112.0
53,47.85920735208333,47.9651100875,73.0,99.0
54,48.067540602083334,48.39219325,73.0,107.0
55,48.48420710208333,48.895665270833334,70.0,95.0
56,48.90087360208334,49.881775987500006,75.0,127.0
57,50.56753960208333,50.683859,75.0,117.0
58,50.77587285208334,50.961636666666664,78.0,102.0
59,51.19253935208333,51.275872652083336,78.0,107.0
60,51.40087260208334,51.57448364375,78.0,117.0
61,51.81753910208333,52.079691775,75.0,127.0
62,52.234205602083335,52.55538602916667,73.0,127.0
63,52.650872102083326,53.189066331250004,70.0,100.0
64,53.90087160208333,54.11788540416667,63.0,97.0
65,54.10920485208334,54.343579758333334,78.0,122.0
66,54.52587135208333,54.621357425,78.0,107.0
67,54.73420460208334,54.96163506666666,78.0,122.0
68,55.15087110208333,55.32969047499999,75.0,127.0
69,55.567537602083334,55.89219025,75.0,127.0
70,55.98420410208334,56.31753730208334,73.0,127.0
71,56.40087060208333,56.63350939791667,75.0,127.0
72,56.817537102083335,57.0692731125,73.0,96.0
73,57.234203602083326,58.12830046666667,70.0,102.0
74,59.73420260208333,60.01892471041667,70.0,107.0
75,60.150869102083334,60.48246619166666,68.0,112.0
76,60.56753560208334,60.82795216458334,66.0,112.0
77,60.98420210208333,61.28628531458334,66.0,97.0
78,61.400868602083335,61.84531286875,68.0,127.0
79,61.817535102083326,62.74982639583334,66.0,102.0
80,63.06753460208333,63.371353924999994,63.0,117.0
81,63.48420110208333,63.79149264583333,61.0,107.0
82,63.90086760208334,64.19253415208333,73.0,127.0
83,64.31753410208333,64.62656175625,73.0,127.0
84,64.73420060208333,64.99461716458333,75.0,127.0
85,65.15086710208334,65.35920035208333,70.0,112.0
86,65.35920035208333,65.62308913541666,68.0,82.0
87,65.56753360208333,66.40781104375,70.0,117.0
88,67.23419960208334,67.4859356125,68.0,112.0
89,67.65086610208333,67.93211598958334,66.0,92.0
90,68.06753260208333,68.32794916458333,68.0,99.0
91,68.48419910208334,68.77239343125,70.0,112.0
92,68.90086560208333,69.20989325625,68.0,102.0
93,69.31753210208333,69.7359347125,66.0,102.0
94,69.73419860208334,69.98767072291666,63.0,112.0
95,70.15086510208333,70.74808708541667,68.0,107.0
96,70.98419810208333,72.12482264583333,66.0,107.0
97,85.62655357083334,85.84388305833333,66.0,85.0
98,85.96746257083333,86.18053069583333,66.0,93.0
99,86.30837157083333,86.5185987875,68.0,95.0
100,86.64928057083333,86.83820097499999,70.0,107.0
101,86.99018957083334,87.11660999166666,70.0,100.0
102,87.33109857083333,87.50439397916666,68.0,100.0
103,87.67200757083333,88.21178015416666,70.0,122.0
104,89.03564357083333,89.16632535416666,66.0,99.0
105,89.20609807083333,89.2629162375,63.0,83.0
106,89.37655257083333,89.735927475,63.0,112.0
107,89.71746157083334,89.79416609583333,66.0,90.0
108,90.05837057083333,90.3708704875,68.0,107.0
109,90.39927957083333,91.47740428333333,63.0,102.0
110,91.76291557083333,91.90780189583333,66.0,92.0
111,91.93337007083333,92.15069955833333,68.0,65.0
112,92.10382457083332,92.36234722916666,70.0,107.0
113,92.44473357083334,92.65638124166667,70.0,117.0
114,93.12655157083333,93.29274470833333,70.0,122.0
115,93.29700607083333,93.36092650833334,68.0,97.0
116,93.46746057083334,93.65922188333333,68.0,96.0
117,93.80836957083334,94.0612104125,66.0,100.0
118,94.14927857083333,94.2998467125,68.0,107.0
119,94.49018757083333,94.70467615,70.0,102.0
120,94.83109657083332,95.5441645625,73.0,122.0
121,96.53564157083333,96.68194835,70.0,102.0
122,96.87655057083333,97.0100732625,70.0,102.0
123,97.21745957083333,97.4106413375,73.0,112.0
124,97.55836857083334,97.8623457625,75.0,127.0
125,97.89927757083333,98.07967525,75.0,127.0
126,98.24018657083333,98.4248456125,73.0,112.0
127,98.58109557083333,98.8808114,70.0,102.0
128,99.26291357083333,99.44615215833333,70.0,96.0
129,99.60382257083333,99.81120887916667,70.0,107.0
130,99.94473157083333,100.1890496875,75.0,117.0
131,100.28564057083332,100.49444733333333,73.0,117.0
132,100.62654957083333,100.7558109,73.0,117.0
133,100.96745857083333,101.15779942916666,70.0,107.0
134,101.30836757083333,101.4589357125,68.0,95.0
135,101.47882207083333,101.98450375416667,66.0,78.0
136,102.67200357083334,102.7799580875,70.0,117.0
137,102.84245807083333,102.94046940833333,68.0,88.0
138,103.01291257083334,103.20041252083334,66.0,97.0
139,103.35382157083333,103.63507149583333,66.0,100.0
140,104.03563957083333,104.15353726666666,66.0,93.0
141,104.20609407083333,104.32683267499999,61.0,79.0
142,104.37654857083334,104.5399008,70.0,102.0
143,104.71745757083333,104.91632115416667,68.0,112.0
144,104.88791207083332,105.0299574875,66.0,100.0
145,105.05836657083333,105.1322301875,66.0,100.0
146,105.22882107083333,105.6435936875,68.0,99.0
147,105.74018457083334,106.79132065416667,66.0,99.0
148,110.17200157083333,110.38933105833333,66.0,85.0
149,110.51291057083333,110.72597869583333,66.0,93.0
150,110.85381957083334,111.06404678749999,68.0,95.0
151,111.19472857083333,111.383648975,70.0,107.0
152,111.53563757083333,111.66205799166667,70.0,100.0
153,111.87654657083333,112.04984197916667,68.0,100.0
154,112.21745557083332,112.75722815416667,70.0,122.0
155,113.58109157083334,113.71177335416667,66.0,99.0
156,113.75154607083333,113.8083642375,63.0,83.0
157,113.92200057083333,114.281375475,63.0,112.0
158,114.26290957083333,114.33961409583333,66.0,90.0
159,114.60381857083333,114.91631848749999,68.0,107.0
160,114.94472757083332,116.02285228333332,63.0,102.0
161,116.30836357083334,116.45324989583332,66.0,92.0
162,116.47881807083334,116.69614755833334,68.0,65.0
163,116.64927257083333,116.90779522916667,70.0,107.0
164,116.99018157083333,117.20182924166667,70.0,117.0
165,117.67199957083332,117.83819270833334,70.0,122.0
166,117.84245407083333,117.90637450833333,68.0,97.0
167,118.01290857083333,118.20466988333334,68.0,96.0
168,118.35381757083333,118.6066584125,66.0,100.0
169,118.69472657083332,118.84529471249999,68.0,107.0
170,119.03563557083334,119.25012415,70.0,102.0
171,119.37654457083333,120.0896125625,73.0,122.0
172,121.08108957083333,121.22739634999999,70.0,102.0
173,121.42199857083332,121.5555212625,70.0,102.0
174,121.76290757083333,121.9560893375,73.0,112.0
175,122.10381657083333,122.4077937625,75.0,127.0
176,122.44472557083333,122.62512325,75.0,127.0
177,122.78563457083334,122.9702936125,73.0,112.0
178,123.12654357083332,123.42625939999999,70.0,102.0
179,123.80836157083333,123.99160015833333,70.0,96.0
180,124.14927057083332,124.35665687916666,70.0,107.0
181,124.49017957083333,124.7344976875,75.0,117.0
182,124.83108857083333,125.03989533333333,73.0,117.0
183,125.17199757083333,125.3012589,73.0,117.0
184,125.51290657083334,125.70324742916667,70.0,107.0
185,125.85381557083333,126.00438371249999,68.0,95.0
186,126.02427007083332,126.52995175416666,66.0,78.0
187,127.21745157083333,127.3254060875,70.0,117.0
188,127.38790607083334,127.48591740833334,68.0,88.0
189,127.55836057083333,127.74586052083333,66.0,97.0
190,127.89926957083333,128.18051949583332,66.0,100.0
191,128.58108757083335,128.69898526666665,66.0,93.0
192,128.75154207083332,128.872280675,61.0,79.0
193,128.92199657083333,129.0853488,70.0,102.0
194,129.26290557083334,129.46176915416666,68.0,112.0
195,129.43336007083332,129.5754054875,66.0,100.0
196,129.60381457083332,129.6776781875,66.0,100.0
197,129.77426907083333,130.18904168749998,68.0,99.0
198,130.28563257083334,131.33676865416666,66.0,99.0
199,135.74017657083334,135.860915175,70.0,100.0
200,135.91063107083335,136.014324225,73.0,112.0
201,136.25154007083333,136.338187775,73.0,99.0
202,136.42199457083333,136.68761949999998,73.0,107.0
203,136.76290357083332,137.09955120833334,70.0,95.0
204,137.10381257083333,137.906369175,75.0,127.0
205,138.12653957083333,138.22028954583334,73.0,117.0
206,138.4674485708333,138.56261899999998,75.0,117.0
207,138.63790307083332,138.78989166666668,78.0,102.0
208,138.97881207083333,139.04699387083332,78.0,107.0
209,139.14926657083333,139.2913119875,78.0,117.0
210,139.49017557083334,139.70466414999999,75.0,127.0
211,139.83108457083333,140.09386859166665,73.0,127.0
212,140.17199357083334,140.6123343625,70.0,100.0
213,141.19472057083334,141.37227734166666,63.0,97.0
214,141.36517507083335,141.55693638333332,78.0,122.0
215,141.70608407083333,141.78420905,78.0,107.0
216,141.87653857083333,142.06261806666666,78.0,122.0
217,142.21744757083331,142.36375435,75.0,127.0
218,142.55835657083333,142.8239815,75.0,127.0
219,142.89926557083334,143.17199277083333,73.0,127.0
220,143.24017457083335,143.43051542916666,75.0,127.0
221,143.58108357083333,143.787049425,73.0,96.0
222,143.92199257083334,144.65352646666668,70.0,102.0
223,145.96744657083332,146.20040105416666,70.0,107.0
224,146.30835557083333,146.57966231666666,68.0,112.0
225,146.64926457083334,146.86233269583335,66.0,112.0
226,146.99017357083332,147.23733259583332,66.0,97.0
227,147.33108257083333,147.6947188375,68.0,127.0
228,147.6719915708333,148.43477545833332,66.0,102.0
229,148.69471857083334,148.94329805,63.0,117.0
230,149.03562757083333,149.28704795833335,61.0,107.0
231,149.3765365708333,149.61517287083333,73.0,127.0
232,149.71744557083332,149.9702864125,73.0,127.0
233,150.05835457083333,150.27142269583334,75.0,127.0
234,150.39926357083334,150.56971807083335,70.0,112.0
235,150.56971807083335,150.78562710416668,68.0,82.0
236,150.74017257083332,151.4276723875,70.0,117.0
237,152.10380857083334,152.309774425,68.0,112.0
238,152.44471757083335,152.6748311458333,66.0,92.0
239,152.78562657083333,152.99869469583334,68.0,99.0
240,153.1265355708333,153.36233096249998,70.0,112.0
241,153.46744457083332,153.7202854125,68.0,102.0
242,153.80835357083333,154.15068302499998,66.0,102.0
243,154.14926257083334,154.35664887916664,63.0,112.0
244,154.49017157083333,154.83108057083334,66.0,107.0
245,154.83108057083334,155.76431895833332,73.0,107.0
246,157.55835257083334,157.679091175,70.0,100.0
247,157.72880707083334,157.832500225,73.0,112.0
248,158.06971607083332,158.156363775,73.0,99.0
249,158.24017057083333,158.50579549999998,73.0,107.0
250,158.5810795708333,158.91772720833333,70.0,95.0
251,158.92198857083332,159.724545175,75.0,127.0
252,160.28562457083333,160.38079499999998,75.0,117.0
253,160.4560790708333,160.60806766666667,78.0,102.0
254,160.79698807083332,160.8651698708333,78.0,107.0
255,160.96744257083333,161.1094879875,78.0,117.0
256,161.30835157083334,161.52284014999998,75.0,127.0
257,161.64926057083335,161.91204459166664,73.0,127.0
258,161.99016957083333,162.4305103625,70.0,100.0
259,163.01289657083333,163.19045334166668,63.0,97.0
260,163.18335107083334,163.37511238333332,78.0,122.0
261,163.52426007083335,163.60238505,78.0,107.0
262,163.69471457083333,163.88079406666668,78.0,122.0
263,164.0356235708333,164.18193035000002,75.0,127.0
264,164.37653257083332,164.6421575,75.0,127.0
265,164.71744157083333,164.99016877083335,73.0,127.0
266,165.05835057083334,165.24869142916666,75.0,127.0
267,165.39925957083332,165.60522542500001,73.0,96.0
268,165.74016857083333,166.47170246666667,70.0,102.0
269,167.7856225708333,168.01857705416666,70.0,107.0
270,168.12653157083332,168.39783831666665,68.0,112.0
271,168.46744057083333,168.68050869583334,66.0,112.0
272,168.80834957083334,169.05550859583332,66.0,97.0
273,169.14925857083333,169.5128948375,68.0,127.0
274,169.49016757083334,170.2529514583333,66.0,102.0
275,170.51289457083334,170.76147405,63.0,117.0
276,170.85380357083335,171.10522395833334,61.0,107.0
277,171.19471257083333,171.43334887083333,73.0,127.0
278,171.5356215708333,171.7884624125,73.0,127.0
279,171.87653057083332,172.08959869583333,75.0,127.0
280,172.21743957083333,172.38789407083334,70.0,112.0
281,172.38789407083334,172.60380310416667,68.0,82.0
282,172.55834857083335,173.2458483875,70.0,117.0
283,173.92198457083333,174.127950425,68.0,112.0
284,174.26289357083334,174.49300714583333,66.0,92.0
285,174.60380257083332,174.81687069583333,68.0,99.0
286,174.94471157083333,175.18050696249998,70.0,112.0
287,175.28562057083332,175.5384614125,68.0,102.0
288,175.62652957083333,175.968859025,66.0,102.0
289,175.96743857083334,176.17482487916666,63.0,112.0
290,176.30834757083335,176.80550652916668,68.0,122.0
291,176.9901655708333,178.86942643333333,66.0,127.0
292,191.69407004791668,191.8550549125,70.0,100.0
293,191.92134279791668,192.0596003875,73.0,112.0
294,192.37588829791667,192.4914186125,73.0,99.0
295,192.60316104791667,192.95732775000002,73.0,107.0
296,193.05770654791667,193.50657022916667,70.0,95.0
297,193.51225204791666,194.5823279125,75.0,127.0
298,195.33043404791667,195.45732800000002,75.0,117.0
299,195.55770679791667,195.76035833333333,78.0,102.0
300,196.01225229791666,196.10316139791667,78.0,107.0
301,196.2395250479167,196.42891900625,78.0,117.0
302,196.69407054791668,196.98005542500002,75.0,127.0
303,197.14861604791668,197.49899487083334,73.0,127.0
304,197.60316154791667,198.19028281875,70.0,100.0
305,198.96679804791668,199.20354049583335,63.0,97.0
306,199.19407079791668,199.44975264166666,78.0,122.0
307,199.64861629791667,199.752782975,78.0,107.0
308,199.87588904791667,200.12399513333332,78.0,122.0
309,200.33043454791667,200.525510325,75.0,127.0
310,200.78498004791666,201.13914675,75.0,127.0
311,201.23952554791668,201.60316194791667,73.0,127.0
312,201.69407104791668,201.94785895208335,75.0,127.0
313,202.14861654791667,202.4232377875,73.0,96.0
314,202.60316204791667,203.57854093333333,70.0,102.0
315,205.33043504791667,205.64104113958334,70.0,107.0
316,205.78498054791666,206.14672300833334,68.0,112.0
317,206.23952604791668,206.52361698541668,66.0,112.0
318,206.69407154791668,207.02361703541666,66.0,97.0
319,207.14861704791667,207.63346558125,68.0,127.0
320,207.60316254791667,208.62020810416666,66.0,102.0
321,208.96679904791668,209.298238475,63.0,117.0
322,209.42134454791668,209.75657185416668,61.0,107.0
323,209.87589004791667,210.19407189791667,73.0,127.0
324,210.33043554791666,210.66755679375,73.0,127.0
325,210.7849810479167,211.06907198541668,75.0,127.0
326,211.23952654791668,211.46679929791668,70.0,112.0
327,211.46679929791668,211.75467811458333,68.0,82.0
328,211.69407204791668,212.61073880625,70.0,117.0
329,213.51225404791668,213.7868752875,68.0,112.0
330,213.96679954791668,214.27361776041667,66.0,92.0
331,214.42134504791667,214.70543598541667,68.0,99.0
332,214.87589054791667,215.19028451875,70.0,112.0
333,215.33043604791666,215.66755729375,68.0,102.0
334,215.7849815479167,216.24142098750002,66.0,102.0
335,216.23952704791668,216.51604222708335,63.0,112.0
336,218.05770904791666,218.77172427083335,68.0,100.0
337,218.96680004791668,221.98573974375,66.0,112.0
