,start,end,pitch,velocity
0,1.5503466020833332,3.2308113625,59.0,89.0
1,1.5503466020833332,3.2439692625000003,58.0,76.0
2,3.1354165875,3.2439692625000003,58.0,75.0
3,1.5503466020833332,3.2538376875,63.0,71.0
4,1.5503466020833332,3.2604166375,66.0,59.0
5,1.6423604541666665,3.33114035,47.0,63.0
6,3.2571271625,3.8426537124999998,46.0,69.0
7,3.1354165875,3.9150221624999997,65.0,69.0
8,3.1354165875,3.939693225,61.0,70.0
9,4.0301537875,5.981996347916667,49.0,72.0
10,5.729308154166667,5.981996347916667,49.0,92.0
11,4.1184213,6.084269085416667,61.0,70.0
12,5.725275895833333,6.084269085416667,61.0,90.0
13,4.1184213,6.09184484375,56.0,69.0
14,4.1184213,6.0975266625,65.0,69.0
15,5.723259766666667,8.780322683333333,66.0,85.0
16,5.727292025,8.785531014583334,70.0,83.0
17,8.983447602083334,10.8777282375,44.0,66.0
18,8.983447602083334,11.0602941,59.0,62.0
19,8.983447602083334,11.1540441375,56.0,75.0
20,8.983447602083334,11.190228362500001,63.0,64.0
21,11.357991587499999,12.280688674999999,46.0,75.0
22,11.357991587499999,12.339716429166666,65.0,73.0
23,11.357991587499999,12.34839698125,61.0,71.0
24,11.357991587499999,12.52548024375,58.0,69.0
25,12.393535852083332,13.403952114583332,66.0,61.0
26,12.393535852083332,13.67131311875,63.0,75.0
27,12.393535852083332,13.711243658333332,59.0,86.0
28,12.393535852083332,13.811938062499998,47.0,74.0
29,14.268535102083332,17.616163893750002,63.0,102.0
30,17.227377366666666,17.616163893750002,63.0,58.0
31,14.268535102083332,17.62658055625,51.0,86.0
32,14.268535102083332,17.62658055625,58.0,97.0
33,14.268535102083332,17.647413881250003,46.0,76.0
34,14.268535102083332,17.652622212500003,67.0,96.0
35,14.268535102083332,17.659566654166667,39.0,66.0
36,17.227377366666666,19.49116314375,47.0,97.0
37,17.227377366666666,20.385260008333333,54.0,66.0
38,17.227377366666666,20.400885002083335,59.0,69.0
39,17.227377366666666,20.416509995833334,66.0,53.0
40,20.567551602083334,20.833176495833335,49.0,56.0
41,20.567551602083334,21.130051377083333,54.0,65.0
42,20.567551602083334,21.643940060416668,61.0,78.0
43,20.567551602083334,21.86268997291667,70.0,69.0
44,20.567551602083334,21.883523297916668,66.0,74.0
45,22.234217602083334,23.3401199375,70.0,76.0
46,20.567551602083334,23.343592158333333,42.0,55.0
47,22.234217602083334,23.378314366666668,66.0,76.0
48,20.984218102083336,23.4338699,49.0,53.0
49,21.817551102083335,23.513730979166667,61.0,85.0
50,21.400884602083334,23.73248089166667,54.0,86.0
51,23.900883602083333,24.87831376666667,59.0,95.0
52,23.900883602083333,24.881785987500002,66.0,73.0
53,23.900883602083333,24.925188747916668,63.0,81.0
54,25.150883102083334,26.268938210416668,66.0,48.0
55,25.150883102083334,26.31407708125,59.0,73.0
56,25.150883102083334,26.32449374375,63.0,69.0
57,24.734216602083336,26.508521447916667,54.0,62.0
58,24.317550102083334,26.536299214583334,51.0,38.0
59,23.900883602083333,26.56581309166667,47.0,95.0
60,26.400882602083335,26.7359519125,66.0,54.0
61,26.400882602083335,26.8192852125,59.0,83.0
62,26.400882602083335,26.821021322916668,63.0,72.0
63,27.23421560208333,27.814076481249998,54.0,79.0
64,27.23421560208333,27.95990975625,58.0,89.0
65,27.23421560208333,27.963381977083333,61.0,92.0
66,27.23421560208333,29.737686822916665,42.0,71.0
67,27.650882102083337,29.779353472916668,49.0,42.0
68,28.067548602083335,29.831436785416667,54.0,88.0
69,28.484215102083333,29.96164506666667,70.0,65.0
70,28.484215102083333,29.992895054166667,66.0,69.0
71,28.484215102083333,30.104006120833333,61.0,71.0
72,30.567547602083334,31.175186247916667,58.0,90.0
73,30.567547602083334,31.477269460416668,65.0,82.0
74,30.567547602083334,31.49810278541667,61.0,90.0
75,31.81754710208333,32.973796639583334,65.0,81.0
76,31.81754710208333,33.003310516666666,61.0,78.0
77,30.984214102083335,33.03456050416666,53.0,82.0
78,31.400880602083333,33.039768835416666,58.0,89.0
79,30.567547602083334,33.133518797916665,46.0,85.0
80,33.06754660208333,33.44775478333334,65.0,82.0
81,33.06754660208333,33.7151157875,61.0,82.0
82,33.48421310208333,33.805393529166665,58.0,62.0
83,34.317546102083334,34.985948612499996,46.0,44.0
84,34.73421260208333,35.001573606250005,51.0,86.0
85,33.900879602083336,35.06754580208333,39.0,69.0
86,33.900879602083336,35.109212452083334,66.0,78.0
87,33.900879602083336,35.13004577708334,63.0,89.0
88,33.900879602083336,35.18560131041667,58.0,82.0
89,35.567545602083335,36.30192030833334,65.0,77.0
90,35.567545602083335,36.315809191666666,61.0,83.0
91,35.567545602083335,36.33837862708333,56.0,76.0
92,36.40087860208334,36.489420233333334,56.0,36.0
93,35.567545602083335,36.638725729166666,37.0,69.0
94,35.98421210208333,36.671711827083335,44.0,38.0
95,36.40087860208334,36.78976733541667,61.0,79.0
96,36.40087860208334,36.805392329166665,65.0,75.0
97,36.40087860208334,36.81233677083333,49.0,51.0
98,37.234211602083334,38.11962791458333,48.0,77.0
99,37.234211602083334,38.32796116458333,66.0,90.0
100,37.234211602083334,38.411294464583335,63.0,95.0
101,37.234211602083334,38.511988868749995,60.0,90.0
102,38.900877602083334,39.88351609791667,54.0,61.0
103,38.900877602083334,39.9234466375,47.0,66.0
104,38.900877602083334,40.21684929791667,66.0,81.0
105,38.900877602083334,40.42865476875,63.0,86.0
106,38.900877602083334,40.44601587291667,59.0,107.0
107,40.98421010208334,41.52414044166667,51.0,28.0
108,40.56754360208333,41.654348722916666,44.0,65.0
109,40.56754360208333,41.90782084375,63.0,83.0
110,40.56754360208333,42.079695775000005,59.0,95.0
111,40.56754360208333,42.121362425,56.0,86.0
112,42.23420960208333,43.880042277083334,37.0,72.0
113,42.23420960208333,43.89045893958333,61.0,90.0
114,42.23420960208333,43.89393116041667,65.0,86.0
115,42.23420960208333,43.899139491666666,56.0,88.0
116,42.65087610208333,43.90087560208333,44.0,32.0
117,43.067542602083336,43.92691725833333,49.0,38.0
118,43.90087560208333,43.92691725833333,49.0,59.0
119,43.90087560208333,45.50330551666667,66.0,81.0
120,43.90087560208333,45.51372217916666,54.0,62.0
121,43.90087560208333,45.515458289583336,61.0,83.0
122,43.90087560208333,45.515458289583336,70.0,86.0
123,43.90087560208333,45.52240273125,42.0,60.0
124,45.56754160208334,46.008513647916665,63.0,86.0
125,45.56754160208334,46.08490250625,47.0,86.0
126,45.56754160208334,46.08663861666666,59.0,102.0
127,46.400874602083334,47.1838604,42.0,53.0
128,46.400874602083334,47.204693725,58.0,97.0
129,46.400874602083334,47.20816594583333,61.0,117.0
130,46.400874602083334,47.218582608333335,54.0,76.0
131,46.400874602083334,47.228999270833334,64.0,122.0
132,47.650874102083336,48.15955445416667,53.0,77.0
133,47.23420760208333,48.27240163125,46.0,102.0
134,48.067540602083334,48.975526349999996,65.0,99.0
135,48.067540602083334,48.97726246041667,61.0,96.0
136,48.48420710208333,49.44080394166667,58.0,74.0
137,49.31754010208333,49.86615099375,51.0,85.0
138,48.90087360208334,50.100525899999994,39.0,83.0
139,49.10920685208333,50.100525899999994,46.0,63.0
140,49.52587335208334,50.202956414583326,58.0,99.0
141,49.94253985208333,50.268928610416665,51.0,66.0
142,50.15087310208334,50.52934517291666,63.0,71.0
143,49.73420660208333,50.54323405625,66.0,107.0
144,50.35920635208333,50.62656735624999,58.0,85.0
145,51.19253935208333,51.392192050000006,59.0,96.0
146,50.984206102083334,51.47205312916667,54.0,95.0
147,50.77587285208334,51.69253915208333,51.0,52.0
148,50.56753960208333,51.725525250000004,47.0,97.0
149,51.609205852083335,51.77413634166666,54.0,76.0
150,51.40087260208334,52.116150093749994,66.0,61.0
151,51.81753910208333,52.204691725,59.0,85.0
152,52.44253885208333,52.72378873958333,54.0,82.0
153,52.234205602083335,52.98246919166667,42.0,82.0
154,52.859205352083336,53.07795526458334,54.0,90.0
155,52.650872102083326,53.22378853958334,61.0,112.0
156,53.06753860208333,53.551913408333334,41.0,92.0
157,53.27587185208333,53.76892721041666,53.0,83.0
158,53.48420510208334,53.88351049791666,61.0,92.0
159,53.69253835208333,53.90781604375,58.0,72.0
160,54.52587135208333,54.706426835416664,59.0,107.0
161,54.31753810208333,54.848787889583335,54.0,93.0
162,54.94253785208333,55.24114884375,54.0,69.0
163,54.73420460208334,55.24462106458333,66.0,90.0
164,53.90087160208333,55.38698211875,47.0,100.0
165,55.15087110208333,55.45295431458334,59.0,97.0
166,54.10920485208334,55.45642653541667,51.0,51.0
167,55.35920435208334,55.57274593333334,63.0,75.0
168,55.77587085208333,56.04149574583333,56.0,60.0
169,55.98420410208334,56.288023425000006,61.0,69.0
170,55.567537602083334,56.44600947291667,49.0,89.0
171,56.192537352083335,56.79323155624999,56.0,81.0
172,56.40087060208333,57.230731381249996,65.0,99.0
173,56.817537102083335,57.24114804375,61.0,97.0
174,57.65087010208333,58.185592110416664,54.0,93.0
175,57.85920335208333,58.385244808333326,58.0,82.0
176,57.234203602083326,58.79670297708333,42.0,85.0
177,57.442536852083336,58.94253625208333,49.0,74.0
178,58.27586985208333,58.9651056875,54.0,92.0
179,58.69253635208334,59.416494395833325,58.0,83.0
180,58.48420310208333,59.5901054375,61.0,81.0
181,58.06753660208334,59.61614709375,66.0,99.0
182,59.31753610208334,59.83663311666666,54.0,85.0
183,59.52586935208333,60.038021924999995,58.0,72.0
184,58.90086960208333,60.249827395833336,42.0,42.0
185,59.10920285208333,60.46163286666666,49.0,59.0
186,59.73420260208333,60.463368977083334,64.0,127.0
187,59.94253585208334,60.511980068750006,54.0,92.0
188,60.150869102083334,60.52413284166667,61.0,102.0
189,60.35920235208333,60.57795226458333,58.0,74.0
190,60.98420210208333,61.48246579166667,54.0,85.0
191,61.192535352083326,61.53281299375,58.0,72.0
192,60.56753560208334,62.15954885416667,47.0,100.0
193,60.775868852083335,62.27586825208333,51.0,60.0
194,61.60920185208333,62.286284914583334,54.0,72.0
195,62.025868352083336,62.73767362291666,58.0,64.0
196,61.817535102083326,62.75850694791667,59.0,85.0
197,61.400868602083335,62.791493045833334,63.0,81.0
198,61.400868602083335,62.791493045833334,66.0,69.0
199,63.06753460208333,63.55190940833333,59.0,107.0
200,62.23420160208333,63.801909308333336,47.0,77.0
201,63.06753460208333,63.85746484166667,63.0,93.0
202,63.06753460208333,63.85746484166667,66.0,64.0
203,63.69253435208333,63.87829816666667,59.0,57.0
204,63.48420110208333,63.88871482916666,58.0,69.0
205,62.65086810208334,63.892187050000004,51.0,55.0
206,63.27586785208334,63.89392316041666,54.0,79.0
207,64.31753410208333,64.56058956041666,58.0,96.0
208,64.52586735208334,64.80017279791666,61.0,95.0
209,64.10920085208333,64.83315889583334,53.0,61.0
210,64.94253385208333,65.01545048958333,53.0,56.0
211,63.90086760208334,65.04670047708333,46.0,72.0
212,64.73420060208333,65.48767252291667,65.0,97.0
213,65.15086710208334,65.52065862083333,61.0,102.0
214,65.35920035208333,65.61788080416666,58.0,73.0
215,65.98420010208334,66.52586655208333,51.0,99.0
216,66.19253335208333,66.64392206041667,58.0,97.0
217,65.56753360208333,66.7671859,39.0,77.0
218,65.77586685208333,66.79322755625,46.0,89.0
219,66.60919985208334,67.13524130833333,51.0,69.0
220,66.81753310208333,67.23940793333333,63.0,90.0
221,66.40086660208333,67.23940793333333,67.0,122.0
222,67.02586635208333,67.31232457083333,58.0,93.0
223,67.65086610208333,67.91996321666666,56.0,96.0
224,67.44253285208333,68.22551865,51.0,60.0
225,68.27586585208333,68.41822690625,51.0,55.0
226,67.23419960208334,68.50329631666666,44.0,76.0
227,67.85919935208334,68.53975463541667,59.0,117.0
228,67.85919935208334,68.85225451041667,63.0,72.0
229,68.69253235208333,68.89044893958334,59.0,90.0
230,68.48419910208334,68.95815724583333,56.0,92.0
231,68.90086560208333,69.92169852708334,37.0,72.0
232,69.10919885208334,69.95294851458333,44.0,68.0
233,69.52586535208333,69.97030961875,56.0,79.0
234,69.31753210208333,70.22725396041666,49.0,100.0
235,69.73419860208334,70.40607333333334,65.0,93.0
236,69.73419860208334,70.42343443749999,61.0,83.0
237,70.15086510208333,70.44947609375,56.0,71.0
238,70.77586485208333,70.90954535416667,64.0,42.0
239,70.56753160208333,71.27412854166667,61.0,95.0
240,70.56753160208333,71.2776007625,58.0,93.0
241,70.56753160208333,71.30190630833333,54.0,93.0
242,70.98419810208333,71.52239233125,49.0,47.0
243,71.40086460208333,71.88697551874999,58.0,93.0
244,71.40086460208333,71.98246159166666,61.0,96.0
245,71.40086460208333,72.07794766458333,54.0,70.0
246,71.40086460208333,72.13697541875,64.0,96.0
247,70.56753160208333,72.16822540625,42.0,75.0
248,71.81753110208334,72.24114204375,49.0,69.0
249,72.23419760208333,72.90086400208334,64.0,107.0
250,72.23419760208333,72.9338501,56.0,70.0
251,72.23419760208333,73.73940533333334,44.0,58.0
252,73.06753060208334,73.77412754166666,56.0,74.0
253,73.06753060208334,73.77933587291666,64.0,97.0
254,73.90086360208333,74.66475218541666,64.0,122.0
255,73.90086360208333,74.68905773125,61.0,102.0
256,73.90086360208333,74.69947439375,58.0,95.0
257,73.90086360208333,75.121349225,46.0,88.0
258,74.73419660208333,75.2150991875,64.0,99.0
259,74.73419660208333,75.30016859791667,61.0,89.0
260,75.15086310208333,75.49808518541667,46.0,71.0
261,74.73419660208333,75.53454350416666,58.0,78.0
262,75.56752960208333,76.27239043125,63.0,85.0
263,75.56752960208333,76.28454320416667,66.0,83.0
264,75.56752960208333,76.29495986666666,59.0,117.0
265,76.40086260208334,76.5484319875,54.0,34.0
266,75.98419610208333,76.80537632916666,51.0,48.0
267,76.60919585208333,76.82273743333333,54.0,79.0
268,76.40086260208334,76.82273743333333,66.0,73.0
269,75.56752960208333,76.89912629166666,47.0,96.0
270,76.40086260208334,76.91127906458333,63.0,92.0
271,76.40086260208334,76.91475128541667,59.0,112.0
272,76.81752910208333,77.09183454791666,56.0,66.0
273,77.23419560208333,77.90433422291666,61.0,79.0
274,77.23419560208333,77.913014775,54.0,82.0
275,77.23419560208333,77.913014775,58.0,95.0
276,77.23419560208333,77.92169532708333,64.0,89.0
277,77.65086210208334,78.13350079791667,49.0,39.0
278,77.23419560208333,78.62482004583333,42.0,72.0
279,78.06752860208333,78.69252835208333,64.0,88.0
280,78.06752860208333,78.76891721041666,54.0,85.0
281,78.06752860208333,78.77412554166666,61.0,92.0
282,78.06752860208333,78.829681075,58.0,96.0
283,78.48419510208333,78.89218105,49.0,71.0
284,78.90086160208332,79.62829186666667,63.0,95.0
285,78.90086160208332,79.64044463958334,56.0,86.0
286,78.90086160208332,79.64738908125,59.0,100.0
287,78.90086160208332,80.1109305625,44.0,83.0
288,79.73419460208333,80.20641663541666,59.0,112.0
289,79.73419460208333,80.21856940833334,63.0,97.0
290,79.73419460208333,80.42169432708333,56.0,89.0
291,80.15086110208333,80.57794426458334,44.0,56.0
292,80.56752760208333,81.31231897083333,58.0,100.0
293,80.56752760208333,81.31926341249999,65.0,96.0
294,80.56752760208333,81.329680075,61.0,99.0
295,80.56752760208333,81.70294381458332,46.0,100.0
296,81.40086060208333,81.81926321249999,65.0,92.0
297,81.40086060208333,81.83488820625,61.0,96.0
298,81.40086060208333,82.10919365208333,58.0,90.0
299,81.81752710208333,82.12308253541666,46.0,82.0
300,82.23419360208332,82.94426276249999,63.0,89.0
301,82.23419360208332,82.94773498333333,66.0,82.0
302,82.23419360208332,82.96335997708333,59.0,117.0
303,83.06752660208333,83.85919295208333,66.0,86.0
304,83.48419310208332,83.86266517291666,54.0,58.0
305,83.06752660208333,83.86266517291666,59.0,117.0
306,82.65086010208333,83.87481794583333,51.0,39.0
307,83.06752660208333,83.87829016666666,63.0,96.0
308,82.23419360208332,83.88349849791666,47.0,97.0
309,83.90085960208333,84.62087202083333,66.0,72.0
310,83.90085960208333,84.65070155833334,63.0,88.0
311,83.90085960208333,85.321155925,59.0,112.0
312,83.90085960208333,85.3850763625,47.0,93.0
313,85.28422411666666,85.39928090416666,61.0,62.0
314,85.28422411666666,85.40496272083334,37.0,71.0
315,85.28422411666666,85.40496272083334,56.0,64.0
316,85.28422411666666,85.40496272083334,65.0,60.0
317,85.28422411666666,85.40780362916666,49.0,68.0
318,85.62513311666666,85.67768992083333,49.0,69.0
319,85.62513311666666,85.68905355416666,56.0,42.0
320,85.62513311666666,85.6918944625,37.0,53.0
321,85.62513311666666,85.69757627916667,61.0,26.0
322,85.62513311666666,85.70467855,65.0,41.0
323,85.96604211666667,86.0498489125,56.0,64.0
324,85.96604211666667,86.05695118333333,37.0,72.0
325,85.96604211666667,86.05695118333333,61.0,41.0
326,85.96604211666667,86.0668943625,49.0,68.0
327,85.96604211666667,86.07967845,65.0,53.0
328,86.30695111666667,86.37229200833333,49.0,45.0
329,86.30695111666667,86.37229200833333,49.0,102.0
330,86.30695111666667,86.582519225,56.0,87.0
331,86.47740561666666,86.58393967916666,37.0,91.0
332,86.30695111666667,86.6080874,65.0,74.0
333,86.30695111666667,86.62371239583334,61.0,80.0
334,86.64928057083333,87.57399623333333,42.0,97.0
335,87.33109857083333,88.5043937125,66.0,95.0
336,87.33109857083333,88.5043937125,70.0,89.0
337,87.33109857083333,88.54416642916667,61.0,100.0
338,87.67200757083333,88.85950725416666,42.0,93.0
339,88.69473457083333,89.35098439583334,66.0,112.0
340,88.69473457083333,89.35950712083333,70.0,100.0
341,89.03564357083333,89.3737116625,61.0,90.0
342,89.37655257083333,90.2345068875,47.0,112.0
343,90.05837057083333,90.37939321249999,66.0,92.0
344,90.05837057083333,90.39927957083333,63.0,96.0
345,89.71746157083334,90.40070002499999,54.0,62.0
346,90.05837057083333,90.40070002499999,59.0,102.0
347,90.39927957083333,91.60382470416667,47.0,97.0
348,91.42200657083333,92.0668927625,63.0,97.0
349,91.76291557083333,92.07115412499999,54.0,79.0
350,91.42200657083333,92.0839382125,59.0,107.0
351,91.42200657083333,92.11234729583333,66.0,92.0
352,92.44473357083334,92.9617788875,49.0,63.0
353,92.10382457083332,92.99871069583332,42.0,95.0
354,92.78564257083333,93.96177862083333,70.0,92.0
355,92.78564257083333,93.97882407083333,66.0,96.0
356,92.78564257083333,93.98876725,61.0,97.0
357,93.12655157083333,94.25155127083333,54.0,100.0
358,93.12655157083333,94.33677852083333,49.0,76.0
359,94.14927857083333,94.8453011125,70.0,100.0
360,94.49018757083333,94.86376701666667,61.0,96.0
361,94.14927857083333,94.87371019583333,66.0,112.0
362,95.51291457083333,96.65211881249999,65.0,97.0
363,95.51291457083333,96.6649029,61.0,99.0
364,95.85382357083333,96.67058471666667,58.0,99.0
365,96.53564157083333,96.9930278125,53.0,58.0
366,94.83109657083332,97.02285735,46.0,93.0
367,96.87655057083333,97.48592540833333,61.0,112.0
368,96.87655057083333,97.49444813333334,65.0,99.0
369,97.21745957083333,97.50012995,58.0,85.0
370,97.55836857083334,98.21887975833333,63.0,99.0
371,97.55836857083334,98.2543911125,66.0,96.0
372,97.89927757083333,98.27285701666666,51.0,93.0
373,97.55836857083334,98.46603878333333,39.0,86.0
374,98.24018657083333,98.58393647916667,58.0,99.0
375,98.58109557083333,99.417743075,61.0,112.0
376,98.58109557083333,99.434788525,65.0,100.0
377,99.26291357083333,99.64643619583333,56.0,57.0
378,98.58109557083333,100.16490196666666,37.0,77.0
379,99.60382257083333,100.25581103333333,61.0,107.0
380,99.60382257083333,100.27143602916667,65.0,96.0
381,99.94473157083333,100.28564057083332,56.0,97.0
382,100.28564057083332,100.92058358333333,48.0,95.0
383,100.28564057083332,100.951833575,66.0,99.0
384,100.28564057083332,100.96461766249999,63.0,102.0
385,100.96745857083333,101.25581076666667,60.0,112.0
386,101.30836757083333,102.12939007916667,66.0,88.0
387,101.30836757083333,102.162060525,63.0,97.0
388,101.30836757083333,102.17058324999999,59.0,127.0
389,101.30836757083333,102.49444679999999,47.0,99.0
390,102.33109457083333,102.77001490833334,66.0,97.0
391,102.33109457083333,102.90353759999999,63.0,100.0
392,102.33109457083333,102.91490123333332,59.0,127.0
393,103.01291257083334,103.2444466,56.0,95.0
394,103.01291257083334,103.70609420416666,63.0,95.0
395,103.01291257083334,103.89927597083333,59.0,102.0
396,103.69473057083333,103.95041232083332,56.0,92.0
397,103.01291257083334,103.99160549166666,44.0,82.0
398,104.03563957083333,104.89217343333333,65.0,95.0
399,104.03563957083333,104.9106393375,61.0,100.0
400,104.03563957083333,104.940468875,56.0,107.0
401,104.03563957083333,105.26575287916667,49.0,89.0
402,105.05836657083333,105.51717326666666,65.0,107.0
403,105.05836657083333,105.52285508333333,61.0,102.0
404,105.39927557083334,105.64785505,56.0,88.0
405,105.74018457083334,106.66063887083334,54.0,100.0
406,105.74018457083334,106.66490023333333,58.0,88.0
407,105.74018457083334,106.6748434125,61.0,86.0
408,106.42200257083333,106.98734332916666,49.0,69.0
409,106.76291157083332,107.49018410416667,54.0,100.0
410,106.76291157083332,107.65211587916667,61.0,90.0
411,106.76291157083332,107.66489996666667,58.0,99.0
412,107.78563857083333,107.96603625,61.0,42.0
413,107.78563857083333,108.19614982499999,56.0,100.0
414,105.74018457083334,108.349558875,42.0,72.0
415,108.12654757083334,108.3708656875,61.0,77.0
416,108.12654757083334,108.38507022916667,58.0,78.0
417,107.44472957083333,108.47739974999999,49.0,74.0
418,108.46745657083333,109.32825179583332,54.0,99.0
419,108.46745657083333,109.355240425,61.0,90.0
420,108.46745657083333,109.35666087916667,58.0,88.0
421,109.14927457083333,109.88222892083333,49.0,50.0
422,109.49018357083332,110.39785378333333,61.0,96.0
423,109.49018357083332,110.40495605416666,58.0,92.0
424,109.49018357083332,110.41347877916667,54.0,100.0
425,108.46745657083333,111.10950132083333,42.0,79.0
426,110.17200157083333,111.14217176666666,49.0,60.0
427,110.51291057083333,111.1577967625,58.0,102.0
428,110.51291057083333,111.17768312083334,61.0,99.0
429,110.85381957083334,111.1876263,54.0,96.0
430,111.19472857083333,112.11944423333333,42.0,97.0
431,111.87654657083333,113.0498417125,66.0,95.0
432,111.87654657083333,113.0498417125,70.0,89.0
433,111.87654657083333,113.08961442916666,61.0,100.0
434,112.21745557083332,113.40495525416667,42.0,93.0
435,113.24018257083333,113.89643239583333,66.0,112.0
436,113.24018257083333,113.90495512083334,70.0,100.0
437,113.58109157083334,113.9191596625,61.0,90.0
438,113.92200057083333,114.7799548875,47.0,112.0
439,114.60381857083333,114.9248412125,66.0,92.0
440,114.60381857083333,114.94472757083332,63.0,96.0
441,114.26290957083333,114.946148025,54.0,62.0
442,114.60381857083333,114.946148025,59.0,102.0
443,114.94472757083332,116.14927270416666,47.0,97.0
444,115.96745457083333,116.6123407625,63.0,97.0
445,116.30836357083334,116.616602125,54.0,79.0
446,115.96745457083333,116.6293862125,59.0,107.0
447,115.96745457083333,116.65779529583332,66.0,92.0
448,116.99018157083333,117.5072268875,49.0,63.0
449,116.64927257083333,117.54415869583333,42.0,95.0
450,117.33109057083334,118.50722662083334,70.0,92.0
451,117.33109057083334,118.52427207083333,66.0,96.0
452,117.33109057083334,118.53421524999999,61.0,97.0
453,117.67199957083332,118.79699927083334,54.0,100.0
454,117.67199957083332,118.88222652083333,49.0,76.0
455,118.69472657083332,119.3907491125,70.0,100.0
456,119.03563557083334,119.40921501666666,61.0,96.0
457,118.69472657083332,119.41915819583333,66.0,112.0
458,120.05836257083334,121.1975668125,65.0,97.0
459,120.05836257083334,121.2103509,61.0,99.0
460,120.39927157083332,121.21603271666666,58.0,99.0
461,121.08108957083333,121.5384758125,53.0,58.0
462,119.37654457083333,121.56830535,46.0,93.0
463,121.42199857083332,122.03137340833334,61.0,112.0
464,121.42199857083332,122.03989613333333,65.0,99.0
465,121.76290757083333,122.04557795,58.0,85.0
466,122.10381657083333,122.76432775833334,63.0,99.0
467,122.10381657083333,122.7998391125,66.0,96.0
468,122.44472557083333,122.81830501666667,51.0,93.0
469,122.10381657083333,123.01148678333334,39.0,86.0
470,122.78563457083334,123.12938447916667,58.0,99.0
471,123.12654357083332,123.963191075,61.0,112.0
472,123.12654357083332,123.980236525,65.0,100.0
473,123.80836157083333,124.19188419583332,56.0,57.0
474,123.12654357083332,124.71034996666666,37.0,77.0
475,124.14927057083332,124.80125903333334,61.0,107.0
476,124.14927057083332,124.81688402916666,65.0,96.0
477,124.49017957083333,124.83108857083333,56.0,97.0
478,124.83108857083333,125.46603158333333,48.0,95.0
479,124.83108857083333,125.49728157499999,66.0,99.0
480,124.83108857083333,125.5100656625,63.0,102.0
481,125.51290657083334,125.80125876666666,60.0,112.0
482,125.85381557083333,126.67483807916666,66.0,88.0
483,125.85381557083333,126.707508525,63.0,97.0
484,125.85381557083333,126.71603125,59.0,127.0
485,125.85381557083333,127.0398948,47.0,99.0
486,126.87654257083332,127.31546290833333,66.0,97.0
487,126.87654257083332,127.4489856,63.0,100.0
488,126.87654257083332,127.46034923333333,59.0,127.0
489,127.55836057083333,128.02568999166667,56.0,85.0
490,127.55836057083333,128.03989453333332,44.0,99.0
491,127.55836057083333,128.27711037916666,63.0,89.0
492,127.55836057083333,128.3481330875,59.0,107.0
493,128.24017857083334,128.46603078333334,56.0,70.0
494,128.58108757083335,129.47029187916667,65.0,96.0
495,128.58108757083335,129.4901782375,61.0,100.0
496,128.58108757083335,129.5327918625,56.0,102.0
497,129.60381457083332,130.2444394,61.0,117.0
498,129.94472357083333,130.25154167083332,56.0,97.0
499,129.26290557083334,130.2572234875,49.0,43.0
500,129.60381457083332,130.2657462125,65.0,100.0
501,128.58108757083335,130.28421211666665,37.0,85.0
502,130.62654157083333,131.82540488749999,49.0,88.0
503,130.96745057083334,132.19472297083334,58.0,81.0
504,130.96745057083334,132.19472297083334,61.0,89.0
505,131.30835957083332,132.22029114583333,54.0,82.0
506,131.99017757083334,132.92767732083334,49.0,77.0
507,130.28563257083334,132.963188675,42.0,89.0
508,132.33108657083332,132.99017730416665,58.0,102.0
509,132.67199557083333,133.00864320833332,54.0,95.0
510,132.33108657083332,133.00864320833332,61.0,102.0
511,133.0129045708333,133.89926797083334,59.0,117.0
512,133.0129045708333,133.90921115,61.0,112.0
513,133.0129045708333,133.9219952375,42.0,71.0
514,134.03563157083335,134.87085862083333,54.0,86.0
515,134.03563157083335,134.87085862083333,58.0,93.0
516,134.03563157083335,134.87511998333332,61.0,95.0
517,134.71744957083334,135.14642672916665,49.0,76.0
518,134.03563157083335,135.30693804999999,42.0,71.0
519,135.22881307083333,135.39074484583332,49.0,83.0
520,135.05835857083332,135.43193801666666,58.0,117.0
521,135.39926757083333,135.59813115416665,54.0,107.0
522,135.05835857083332,135.656369775,61.0,112.0
523,135.56972207083334,135.67909704166667,58.0,92.0
524,136.08108557083332,136.3168809625,58.0,95.0
525,136.25154007083333,136.38648321666665,61.0,100.0
526,135.91063107083335,136.47597182916667,53.0,75.0
527,136.59244907083334,136.7089263125,53.0,62.0
528,135.74017657083334,136.72739221666666,46.0,82.0
529,136.76290357083332,137.11659665833332,61.0,102.0
530,136.42199457083333,137.12085802083334,65.0,102.0
531,137.44472157083334,137.85381237083334,51.0,89.0
532,137.61517607083334,137.93051689583334,58.0,99.0
533,137.10381257083333,138.09102821666667,39.0,82.0
534,137.27426707083333,138.09955094166668,46.0,100.0
535,137.95608507083332,138.2430168125,51.0,82.0
536,137.78563057083332,138.39784631666666,66.0,122.0
537,138.12653957083333,138.40352813333334,63.0,100.0
538,138.29699407083334,138.4475622125,58.0,97.0
539,138.97881207083333,139.10949385416666,59.0,90.0
540,138.80835757083332,139.17767565416665,54.0,88.0
541,138.63790307083332,139.43335740416666,51.0,61.0
542,138.4674485708333,139.44188012916666,47.0,112.0
543,139.31972107083334,139.4617664875,54.0,97.0
544,139.14926657083333,139.7501186833333,63.0,117.0
545,139.49017557083334,139.75438004583333,59.0,117.0
546,139.66063007083332,139.7941527625,54.0,90.0
547,140.17199357083334,140.42625486666665,54.0,86.0
548,139.83108457083333,140.48591394166667,42.0,95.0
549,140.3424480708333,140.49159575833335,58.0,96.0
550,140.00153907083333,140.5015389375,49.0,76.0
551,140.68335707083332,141.10381150416666,58.0,107.0
552,140.85381157083333,141.13932285833334,41.0,89.0
553,140.51290257083332,141.16773194166666,61.0,117.0
554,141.02426607083333,141.19472057083334,53.0,92.0
555,141.70608407083333,141.83392494583333,59.0,95.0
556,141.53562957083332,141.88506129583334,54.0,90.0
557,141.36517507083335,142.1080726,51.0,61.0
558,141.19472057083334,142.16204985833332,47.0,102.0
559,142.04699307083334,142.17767485416667,54.0,89.0
560,141.87653857083333,142.28989073333332,66.0,90.0
561,142.21744757083331,142.44614069166667,59.0,112.0
562,142.38790207083332,142.63648154999998,63.0,67.0
563,142.89926557083334,143.33250409166666,49.0,97.0
564,143.06972007083334,143.33250409166666,56.0,83.0
565,142.55835657083333,143.50011768333331,37.0,73.0
566,142.72881107083333,143.51574267916666,44.0,78.0
567,143.41062907083332,143.66489036666667,49.0,72.0
568,143.24017457083335,143.89500394166666,65.0,112.0
569,143.75153807083333,143.906367575,56.0,99.0
570,143.58108357083333,143.92199257083334,61.0,100.0
571,144.26290157083332,144.54415149583332,54.0,93.0
572,144.43335607083333,144.5498333125,58.0,79.0
573,143.92199257083334,144.73449235416666,42.0,102.0
574,144.09244707083332,144.93477639166667,49.0,92.0
575,144.77426507083334,144.97028774583333,58.0,90.0
576,144.60381057083333,145.01290137083333,61.0,122.0
577,144.94471957083334,145.8197193375,42.0,95.0
578,145.62653757083334,146.05977609166666,49.0,95.0
579,145.96744657083332,146.55835550416666,46.0,76.0
580,145.96744657083332,146.58392367916667,68.0,81.0
581,145.96744657083332,146.61801457916667,62.0,117.0
582,145.96744657083332,146.62653730416667,65.0,95.0
583,145.96744657083332,146.6549463875,58.0,89.0
584,147.16062807083333,147.31261666666666,58.0,92.0
585,146.99017357083332,147.3367643875,54.0,69.0
586,146.64926457083334,148.23449142083334,47.0,96.0
587,147.50153707083334,148.235911875,54.0,89.0
588,147.33108257083333,148.37937774583332,66.0,96.0
589,147.6719915708333,148.60238905,59.0,112.0
590,148.35380957083333,148.75437764583333,54.0,75.0
591,148.69471857083334,149.10522982499998,66.0,100.0
592,149.03562757083333,149.2714229625,59.0,112.0
593,148.86517307083335,149.29699113750002,54.0,83.0
594,146.81971907083334,149.32824112916666,51.0,70.0
595,149.54699107083331,149.8850591625,53.0,89.0
596,149.3765365708333,149.9148887,46.0,93.0
597,149.71744557083332,149.97596822916665,58.0,76.0
598,150.05835457083333,150.21744543749998,61.0,117.0
599,149.88790007083333,150.23875225,65.0,99.0
600,150.22880907083334,150.3708544875,58.0,92.0
601,150.39926357083334,151.65636550833332,39.0,90.0
602,151.08108157083333,151.70750185833333,46.0,92.0
603,151.59244507083332,151.7941495625,51.0,86.0
604,151.42199057083332,151.94329725,67.0,127.0
605,151.76289957083333,151.97028587916668,63.0,100.0
606,151.93335407083333,152.12227447499998,58.0,97.0
607,152.78562657083333,152.99869469583334,63.0,102.0
608,152.44471757083335,153.03704695833335,56.0,97.0
609,152.10380857083334,153.09244467083334,44.0,99.0
610,153.1265355708333,153.6521036125,56.0,90.0
611,153.1265355708333,154.0356262375,60.0,96.0
612,153.1265355708333,154.0398876,63.0,92.0
613,153.80835357083333,154.0782398625,56.0,85.0
614,153.1265355708333,154.22880800416667,48.0,92.0
615,154.31971707083335,154.42483067916666,48.0,77.0
616,154.14926257083334,154.53136474166666,60.0,99.0
617,154.14926257083334,154.71602378333333,63.0,107.0
618,154.49017157083333,154.76289877083332,56.0,99.0
619,154.66062607083333,154.7771033125,60.0,83.0
620,155.17198957083332,155.5782394625,49.0,95.0
621,155.34244407083332,155.6719894375,56.0,85.0
622,155.68335307083333,155.99727344166666,49.0,97.0
623,154.83108057083334,156.0555120625,37.0,95.0
624,155.0015350708333,156.20750065833334,44.0,95.0
625,155.51289857083333,156.23875065,65.0,112.0
626,155.85380757083334,156.24585292083333,61.0,102.0
627,156.02426207083334,156.2557961,56.0,100.0
628,156.7060800708333,156.97028454583332,56.0,93.0
629,156.53562557083333,156.980227725,49.0,92.0
630,157.04698907083332,157.39926170416666,49.0,86.0
631,156.36517107083333,157.51431849166664,44.0,72.0
632,156.87653457083331,157.57539802083335,65.0,122.0
633,156.19471657083335,157.57823892916667,37.0,86.0
634,157.21744357083332,157.5810798375,61.0,102.0
635,157.38789807083333,157.60096619583334,56.0,93.0
636,157.55835257083334,158.15778422916668,46.0,102.0
637,158.24017057083333,158.54130685416666,65.0,89.0
638,158.24017057083333,158.5952841125,61.0,99.0
639,157.89926157083335,158.62653410416667,58.0,96.0
640,158.5810795708333,159.88079513333332,39.0,95.0
641,159.26289757083333,159.8992610375,46.0,76.0
642,159.77426107083335,159.94045420833334,51.0,89.0
643,159.60380657083334,160.11374961666667,66.0,127.0
644,159.94471557083332,160.14926097083332,63.0,117.0
645,160.11517007083333,160.28562457083333,58.0,112.0
646,160.28562457083333,160.99301074583332,47.0,117.0
647,160.62653357083332,161.00153347083332,54.0,92.0
648,160.96744257083333,161.3353402,63.0,97.0
649,160.96744257083333,161.34528337916666,59.0,112.0
650,161.99016957083333,162.45465808333333,49.0,69.0
651,161.30835157083334,162.87511251666666,42.0,88.0
652,162.50153307083332,162.8807943333333,49.0,77.0
653,162.3310785708333,162.93193068333335,61.0,117.0
654,162.67198757083332,162.93477159166667,58.0,95.0
655,162.84244207083333,162.9589193125,54.0,92.0
656,163.01289657083333,163.92908950833333,47.0,95.0
657,163.35380557083334,163.9390326875,54.0,85.0
658,163.69471457083333,164.00153267083334,59.0,102.0
659,163.69471457083333,164.00437357916667,63.0,97.0
660,164.0356235708333,165.00579376666667,49.0,102.0
661,164.71744157083333,165.127952825,56.0,83.0
662,165.05835057083334,165.65067995833334,61.0,107.0
663,165.05835057083334,165.6606231375,65.0,102.0
664,165.39925957083332,165.73022539166666,56.0,93.0
665,166.08107757083332,166.48590700833333,54.0,83.0
666,166.25153207083332,166.52710017916667,58.0,89.0
667,166.59244107083333,167.25153180416666,54.0,70.0
668,166.42198657083333,167.51147491666666,66.0,99.0
669,165.74016857083333,167.61800897916666,42.0,85.0
670,166.76289557083334,167.72596349583333,58.0,107.0
671,167.44471357083333,167.75295212499998,54.0,85.0
672,165.9106230708333,167.76715666666666,49.0,74.0
673,167.7856225708333,168.20607700416667,46.0,65.0
674,167.7856225708333,168.451815575,62.0,100.0
675,167.7856225708333,168.4560769375,65.0,100.0
676,167.7856225708333,168.50153147083333,58.0,76.0
677,168.97880407083335,169.1719858375,59.0,74.0
678,168.80834957083334,169.19897446666664,54.0,67.0
679,168.46744057083333,170.00579243333334,47.0,92.0
680,169.14925857083333,170.25153100416668,66.0,92.0
681,169.49016757083334,170.38931505833332,59.0,117.0
682,169.31971307083333,170.54556501666667,54.0,51.0
683,170.68334907083334,170.96886035833333,54.0,76.0
684,170.17198557083333,170.974542175,47.0,100.0
685,168.63789507083334,171.06118987916665,51.0,72.0
686,170.85380357083335,171.11800804583334,59.0,100.0
687,170.51289457083334,171.2245421083333,66.0,100.0
688,171.5356215708333,171.8012465,53.0,78.0
689,171.19471257083333,171.86374648333333,46.0,77.0
690,171.87653057083332,172.11942823333334,65.0,79.0
691,171.87653057083332,172.13079186666664,58.0,78.0
692,171.87653057083332,172.13789413749998,61.0,92.0
693,172.21743957083333,173.5100528625,39.0,95.0
694,172.89925757083333,173.53278012916667,46.0,83.0
695,173.2401665708333,173.62226874166666,63.0,92.0
696,173.41062107083332,173.78562097083335,51.0,96.0
697,173.2401665708333,173.87368912916668,67.0,107.0
698,173.58107557083332,173.9020982125,58.0,102.0
699,173.75153007083333,173.923405025,63.0,75.0
700,174.26289357083334,174.83675705416667,51.0,90.0
701,173.92198457083333,174.91346157916666,44.0,86.0
702,174.60380257083332,175.27283648333332,59.0,107.0
703,174.94471157083333,175.27709784583334,56.0,102.0
704,174.60380257083332,175.27993875416666,63.0,93.0
705,175.28562057083332,176.1350521625,37.0,81.0
706,175.62652957083333,176.1435748875,44.0,72.0
707,175.96743857083334,176.32397256666667,49.0,97.0
708,176.30834757083335,176.63931339166666,56.0,81.0
709,175.96743857083334,176.64357475416665,61.0,107.0
710,175.96743857083334,176.64499520833334,65.0,100.0
711,176.64925657083333,177.48022225833333,42.0,93.0
712,177.16062007083332,177.52567679166665,54.0,107.0
713,176.9901655708333,177.62084722083333,49.0,100.0
714,177.50152907083333,177.92198350416666,58.0,74.0
715,177.33107457083332,178.51857425416665,61.0,100.0
716,178.8651650708333,179.1265286375,54.0,86.0
717,178.35380157083333,179.26005132916666,49.0,59.0
718,177.67198357083333,179.28988086666666,42.0,122.0
719,178.6947105708333,179.31544904166668,61.0,99.0
720,179.03561957083332,179.32539222083332,58.0,86.0
721,180.07905163750002,180.3702279625,63.0,92.0
722,180.07905163750002,180.37169855,59.0,102.0
723,180.07905163750002,180.3761103125,66.0,83.0
724,179.7261106375,180.3878750125,51.0,43.0
725,179.37652857083333,180.415816175,47.0,107.0
726,180.4319926375,183.14482676875,56.0,88.0
727,180.4319926375,183.15619040625,61.0,83.0
728,180.4319926375,183.161872225,65.0,79.0
729,180.4319926375,183.26982678125,37.0,65.0
730,183.05770554791667,183.64672075833334,49.0,95.0
731,182.60316004791667,183.68459955,42.0,107.0
732,183.51225104791666,184.40808447083333,61.0,107.0
733,183.51225104791666,184.41376628958335,58.0,99.0
734,183.9667965479167,184.43270568541666,54.0,74.0
735,185.33043304791667,186.16755434375,54.0,93.0
736,184.87588754791668,186.16944828333334,51.0,52.0
737,185.78497854791667,186.2186907125,59.0,127.0
738,185.33043304791667,186.22626647083334,66.0,53.0
739,184.42134204791668,186.25656950416666,47.0,127.0
740,185.33043304791667,186.26603920208333,63.0,100.0
741,186.23952404791666,187.84747875416667,46.0,93.0
742,186.69406954791668,187.8550545125,53.0,93.0
743,187.14861504791668,188.04823635,61.0,102.0
744,187.14861504791668,188.05581210833333,65.0,99.0
745,187.60316054791667,188.07475150416667,58.0,97.0
746,188.96679704791669,189.4914183125,54.0,85.0
747,188.51225154791666,189.50656982916666,51.0,66.0
748,188.05770604791667,189.55202437916668,47.0,127.0
749,189.42134254791668,189.85694865208333,59.0,122.0
750,188.96679704791669,189.87778198750001,63.0,112.0
751,189.87588804791667,191.58422155208333,37.0,96.0
752,190.33043354791667,191.66755489375,44.0,56.0
753,190.78497904791666,191.69407004791668,49.0,97.0
754,191.2395245479167,191.69407004791668,56.0,92.0
755,192.14861554791668,192.82285803958334,53.0,88.0
756,191.69407004791668,192.889145925,46.0,97.0
757,192.60316104791667,193.5141459875,65.0,112.0
758,193.05770654791667,193.5368732625,61.0,90.0
759,193.96679754791668,194.5292976041667,51.0,86.0
760,194.19407029791668,194.55391881875,58.0,99.0
761,193.51225204791666,194.70543398541668,39.0,77.0
762,193.73952479791666,194.72626732083333,46.0,65.0
763,194.64861579791668,194.78497944791667,51.0,52.0
764,194.87588854791667,195.26604010208334,63.0,76.0
765,194.42134304791668,195.27361586041667,66.0,102.0
766,195.10316129791667,195.32285828958334,58.0,65.0
767,196.01225229791666,196.17891898125,59.0,89.0
768,195.78497954791666,196.28497959791667,54.0,97.0
769,195.55770679791667,196.56717659583333,51.0,65.0
770,195.33043404791667,196.58043417291668,47.0,99.0
771,196.46679779791668,196.63346448125,54.0,59.0
772,196.2395250479167,197.0141463375,66.0,79.0
773,196.69407054791668,197.09558573958333,59.0,74.0
774,197.37588879791667,197.62399488333335,54.0,60.0
775,197.14861604791668,197.99899492083335,42.0,81.0
776,197.83043429791667,198.00467673958335,54.0,95.0
777,197.60316154791667,198.04823735,61.0,96.0
778,198.05770704791667,198.6391465,41.0,79.0
779,198.28497979791666,198.81528288125,53.0,60.0
780,198.51225254791666,198.93270713541668,61.0,88.0
781,198.73952529791666,198.94217683333335,58.0,71.0
782,199.64861629791667,199.84747995416666,59.0,89.0
783,199.42134354791668,199.93081329583333,54.0,65.0
784,200.10316179791667,200.22247999166666,54.0,49.0
785,198.96679804791668,200.23005575000002,47.0,90.0
786,199.19407079791668,200.23573756875,51.0,45.0
787,200.33043454791667,200.79634368541667,59.0,85.0
788,199.87588904791667,200.82664671875,63.0,79.0
789,201.23952554791668,201.76793469166668,49.0,81.0
790,200.78498004791666,202.03876805208333,37.0,81.0
791,201.0122527979167,202.07475290416667,44.0,52.0
792,201.46679829791668,202.20543473541667,56.0,74.0
793,201.92134379791668,202.51604082708334,49.0,65.0
794,202.37588929791667,202.5917984104167,56.0,86.0
795,202.14861654791667,202.63346508125,61.0,88.0
796,201.69407104791668,202.63725296041667,65.0,102.0
797,203.28498029791666,203.59748032916667,58.0,85.0
798,203.05770754791666,203.62588942291666,54.0,89.0
799,202.60316204791667,204.32096525,42.0,70.0
800,202.83043479791667,204.42134404791668,49.0,47.0
801,203.73952579791668,204.42134404791668,54.0,86.0
802,204.19407129791668,204.42134404791668,58.0,73.0
803,203.96679854791668,204.42134404791668,61.0,81.0
804,203.51225304791666,204.42134404791668,66.0,112.0
805,204.42134404791668,205.18838957916668,42.0,82.0
806,204.87588954791667,205.23763200833335,54.0,83.0
807,204.64861679791667,205.33422292708335,49.0,72.0
808,205.10316229791667,205.39861687291668,58.0,90.0
809,205.33043504791667,205.96111692916668,46.0,75.0
810,205.78498054791666,206.22058665208334,58.0,92.0
811,205.33043504791667,206.23952604791668,62.0,100.0
812,205.33043504791667,206.23952604791668,65.0,99.0
813,206.69407154791668,207.18460190000002,59.0,92.0
814,206.92134429791668,207.29823827500002,63.0,74.0
815,206.23952604791668,207.91755651875002,47.0,93.0
816,206.46679879791668,208.07285956458333,54.0,61.0
817,207.14861704791667,208.08611714166668,71.0,107.0
818,207.83043529791667,208.16755654375,63.0,82.0
819,207.37588979791667,208.24899594583334,59.0,76.0
820,207.60316254791667,208.31149595208333,66.0,70.0
821,208.73952629791668,209.00467783958334,63.0,97.0
822,208.51225354791666,209.0747536041667,59.0,99.0
823,209.19407179791668,209.37020817916667,59.0,89.0
824,208.28498079791666,209.37399605833335,54.0,66.0
825,208.05770804791666,209.41566272916668,47.0,58.0
826,208.96679904791668,209.86642035,71.0,127.0
827,209.64861729791667,209.92702641666668,63.0,73.0
828,209.42134454791668,209.93270823541667,66.0,81.0
829,210.55770829791666,210.80013256458335,61.0,78.0
830,210.33043554791666,210.82285983958334,58.0,71.0
831,210.10316279791667,210.89104166458333,53.0,37.0
832,211.01225379791669,211.14861744791668,53.0,68.0
833,209.87589004791667,211.19217805833335,46.0,70.0
834,210.7849810479167,211.60884476666666,65.0,100.0
835,211.23952654791668,211.65429931666668,61.0,86.0
836,211.46679929791668,211.69028416875,58.0,72.0
837,212.37589029791667,212.79634488541666,55.0,99.0
838,212.60316304791667,212.87020852916666,58.0,90.0
839,211.92134479791667,213.07854188333334,46.0,52.0
840,211.69407204791668,213.08611764166668,39.0,70.0
841,212.83043579791666,213.17513280208334,63.0,96.0
842,212.14861754791667,213.40429949166668,51.0,96.0
843,213.05770854791666,213.4914207125,55.0,51.0
844,213.28498129791666,213.51225404791668,58.0,72.0
845,213.96679954791668,214.2641480625,56.0,96.0
846,214.19407229791668,214.43839050416668,59.0,102.0
847,213.73952679791668,214.52929960416668,51.0,65.0
848,214.64861779791667,214.8096026625,51.0,53.0
849,213.51225404791668,214.85884509166667,44.0,74.0
850,214.87589054791667,215.29255725625,59.0,62.0
851,214.42134504791667,215.32854210833335,63.0,99.0
852,215.10316329791667,215.34937544375,56.0,70.0
853,215.5577087979167,217.48005747500002,44.0,73.0
854,216.69407254791668,217.48573929375002,61.0,64.0
855,215.7849815479167,217.49710293125,49.0,97.0
856,216.23952704791668,217.49899687083334,65.0,96.0
857,215.33043604791666,217.50657262916667,37.0,69.0
858,216.01225429791668,217.51036050833335,56.0,85.0
859,217.14861804791667,218.54445152083335,42.0,86.0
860,217.60316354791667,218.76225457291667,49.0,68.0
861,218.05770904791666,218.91187580000002,58.0,95.0
862,218.05770904791666,218.92134549791666,61.0,95.0
863,218.51225454791668,218.93081519583333,54.0,90.0
864,219.42134554791667,220.71301234375,51.0,81.0
865,218.96680004791668,220.71869416250001,44.0,88.0
866,220.33043654791666,220.75467901458333,56.0,93.0
867,219.87589104791667,220.76036083333332,59.0,85.0
868,219.87589104791667,220.77172447083333,63.0,89.0
869,220.78498204791669,222.0596033875,46.0,93.0
870,221.23952754791668,222.14483066875,53.0,66.0
871,221.69407304791667,222.661876175,61.0,86.0
872,221.69407304791667,222.67323981250001,65.0,86.0
873,222.14861854791667,222.67702769166667,58.0,69.0
874,223.96680054791668,224.42513392708332,59.0,90.0
875,223.05770954791666,224.43270968541668,51.0,46.0
876,223.51225504791668,224.43270968541668,54.0,95.0
877,223.96680054791668,224.44028544375,66.0,67.0
878,222.60316404791666,224.44975514166669,47.0,96.0
879,223.96680054791668,224.44975514166669,63.0,74.0
880,224.42134604791667,225.46680069791668,37.0,92.0
881,224.87589154791667,225.47437645625,44.0,52.0
882,225.3304370479167,225.65430071666668,49.0,73.0
883,225.3304370479167,226.1846038,64.0,96.0
884,225.3304370479167,226.1959674375,61.0,89.0
885,225.78498254791668,226.21301289375,56.0,92.0
886,227.14861904791667,227.82854335833335,54.0,69.0
887,226.69407354791667,227.87778578750002,51.0,56.0
888,227.14861904791667,227.93649791458336,59.0,102.0
889,227.14861904791667,227.94217973333335,66.0,77.0
890,226.23952804791668,227.95354337083333,47.0,112.0
891,227.14861904791667,227.97058882708333,63.0,95.0
892,228.51225554791668,229.37399805833334,47.0,63.0
893,228.05771004791666,229.38725563541666,40.0,78.0
894,228.96680104791668,229.39293745416666,52.0,95.0
895,228.05771004791666,229.85884659166666,59.0,107.0
896,229.42134654791667,229.88725568541668,56.0,90.0
897,228.05771004791666,229.9118769,64.0,97.0
898,230.3304375479167,234.40619553125,49.0,72.0
899,230.78498304791668,234.47627129583333,54.0,100.0
900,229.87589204791666,234.51604402708335,42.0,96.0
901,231.69407404791667,234.52740766458334,61.0,77.0
902,231.23952854791668,234.53877130208335,58.0,95.0
903,231.69407404791667,234.54445312083334,66.0,81.0
