,start,end,pitch,velocity
0,10.821308462500001,11.223596041666667,68.0,92.0
1,11.243842462500002,12.763204304166667,73.0,96.0
2,12.9339784625,13.352111066666668,76.0,69.0
3,13.356512462500001,13.8902265,68.0,73.0
4,13.779046462500002,14.551065000000001,71.0,69.0
5,14.618372625000001,14.963652000000002,73.0,97.0
6,15.037952625,15.850014750000001,71.0,71.0
7,16.086902625,16.229385,68.0,69.0
8,16.296692625000002,16.632356625,73.0,85.0
9,16.716272625000002,17.043195375000003,73.0,73.0
10,17.135852625000002,17.436551625,75.0,90.0
11,17.555432625,18.167320125000003,76.0,75.0
12,17.975012625,18.475886250000002,75.0,74.0
13,18.814172625,19.21714425,71.0,92.0
14,19.233752625,20.726758125000003,73.0,75.0
15,20.912072625,21.254729625000003,68.0,99.0
16,21.331652625,21.997735875000004,66.0,83.0
17,22.170812625000003,22.504728375,68.0,112.0
18,22.590392625,23.19965775,71.0,83.0
19,23.429552625,23.853503250000003,68.0,93.0
20,23.849132625000003,24.102628875,73.0,90.0
21,24.268712625,24.517838250000004,73.0,96.0
22,24.688292625000003,24.995984625000002,73.0,88.0
23,25.107872625000002,25.8482565,68.0,88.0
24,25.947032625000002,26.437416750000004,64.0,85.0
25,26.366612625000002,27.01433925,66.0,100.0
26,27.205772625,27.2888145,66.0,99.0
27,27.415562625,27.544933125,66.0,75.0
28,27.625352625,28.038813750000003,68.0,92.0
29,28.044932625,28.431295875000004,66.0,99.0
30,28.464512625,28.914687,64.0,89.0
31,28.884092625,29.123602875000003,68.0,100.0
32,29.118358125,29.350001250000002,66.0,86.0
33,29.326399875,30.887587125000003,68.0,88.0
34,30.981992625,31.321153125000002,68.0,100.0
35,31.401572625,32.135837625,73.0,122.0
36,32.24073262500001,32.766955875,73.0,102.0
37,33.079892625,33.4006965,75.0,96.0
38,33.499472625,33.952269375,68.0,99.0
39,33.919052625000006,34.436534625,71.0,96.0
40,34.758212625,35.196149250000005,73.0,107.0
41,35.177792625,35.875344375,71.0,90.0
42,36.226742625,36.458385750000005,68.0,92.0
43,36.436532625,36.75384,73.0,93.0
44,36.856112625,37.15768575,73.0,97.0
45,37.275692625000005,37.496846250000004,75.0,102.0
46,37.695272625,38.141076375,76.0,79.0
47,38.114852625,38.632334625,75.0,96.0
48,38.744222625000006,38.9111805,71.0,88.0
49,38.954012625000004,40.775689125,73.0,97.0
50,41.051912625,41.438275875,68.0,100.0
51,41.471492625,42.19264575,66.0,92.0
52,42.310652625,42.721491375,68.0,90.0
53,42.730232625,43.40593125,71.0,89.0
54,43.569392625000006,43.956630000000004,68.0,96.0
55,43.988972625,44.6174685,73.0,97.0
56,44.828132625,45.175160250000005,73.0,100.0
57,45.247712625000005,45.780054750000005,68.0,102.0
58,46.086872625,46.176033375,64.0,88.0
59,46.296662624999996,46.446138000000005,64.0,82.0
60,46.50645262500001,47.174284125,66.0,100.0
61,47.345612625,47.6943885,66.0,97.0
62,47.765192625,48.16466775000001,68.0,102.0
63,48.18477262500001,48.67078612500001,66.0,97.0
64,48.604352625000004,49.020436125,59.0,93.0
65,49.023932625,51.07623989375,61.0,99.0
66,51.53283748125,52.226414425,80.0,122.0
67,52.36617148125,52.655234212500005,76.0,102.0
68,52.78283848125,53.48596404375,78.0,127.0
69,54.03283948125,54.63179829375,78.0,127.0
70,54.86617348125,55.13179869375,80.0,122.0
71,55.260271018750004,55.450375337500006,76.0,112.0
72,55.45992395625,56.21600095,73.0,102.0
73,56.53284148125,56.597077643750005,75.0,117.0
74,56.741174981250005,56.837529225000004,75.0,88.0
75,56.94950848125,57.13874474375,75.0,96.0
76,57.36617548125,57.62138401875,75.0,122.0
77,57.78284248125,58.07624549375,76.0,102.0
78,58.199509481250004,58.5857945125,75.0,117.0
79,58.82450998125,59.01721846875,71.0,85.0
80,59.032843481250005,59.867045537500005,73.0,107.0
81,60.07451098125,60.15958049375,80.0,117.0
82,60.28284448125,60.7281573375,80.0,127.0
83,61.53284548125001,62.177811275,81.0,127.0
84,62.36617948125,62.6482977625,80.0,122.0
85,62.782846481250004,63.77069449375,78.0,127.0
86,64.03284748125,64.30888936875,78.0,127.0
87,64.44951448125,64.72989665,78.0,122.0
88,64.86618148125001,65.15958449375,80.0,122.0
89,65.288924875,65.45125139375,76.0,100.0
90,65.45993195625,66.30889096875,73.0,100.0
91,66.53284948125,66.615314825,75.0,100.0
92,66.74118298125,66.81583581875,75.0,107.0
93,66.94951648125,67.11791939375,75.0,112.0
94,67.36618348125,67.5649683625,75.0,127.0
95,67.78285048125,68.0753854375,71.0,102.0
96,68.19951748125,68.6066358625,68.0,117.0
97,68.82451798125001,68.9868445,75.0,97.0
98,69.03285148125,71.24466759166667,73.0,122.0
99,91.51788846250001,91.92017604166668,68.0,92.0
100,91.94042246250001,93.45978430416667,73.0,96.0
101,93.6305584625,94.04869106666668,76.0,69.0
102,94.0530924625,94.58680650000001,68.0,73.0
103,94.4756264625,95.247645,71.0,69.0
104,95.314952625,95.66023200000001,73.0,97.0
105,95.73453262500001,96.54659475000001,71.0,71.0
106,96.783482625,96.925965,68.0,69.0
107,96.993272625,97.32893662500001,73.0,85.0
108,97.41285262500001,97.73977537500001,73.0,73.0
109,97.83243262500001,98.133131625,75.0,90.0
110,98.252012625,98.86390012500001,76.0,75.0
111,98.67159262500002,99.17246625000001,75.0,74.0
112,99.51075262500001,99.91372425000002,71.0,59.0
113,99.930332625,101.42333812500001,73.0,75.0
114,101.608652625,101.95130962500001,68.0,99.0
115,102.02823262500002,102.69431587500002,66.0,83.0
116,102.86739262500001,103.20130837500001,68.0,112.0
117,103.286972625,103.89623775000001,71.0,83.0
118,104.12613262500001,104.55008325000001,68.0,93.0
119,104.54571262500001,104.80082742083334,73.0,90.0
120,104.96808046250001,105.218960025,73.0,96.0
121,105.39061446250001,105.70047272916668,73.0,88.0
122,105.81314846250001,106.55874491666667,68.0,88.0
123,106.65821646250001,107.15239035,64.0,85.0
124,107.0807504625,107.73749685,66.0,100.0
125,107.931645825,108.01586569999999,66.0,99.0
126,108.14441182499999,108.275617525,66.0,75.0
127,108.357177825,108.77650415,68.0,92.0
128,108.782709825,109.174553875,66.0,99.0
129,109.208241825,109.6648022,64.0,89.0
130,109.63377382499999,111.667462175,68.0,100.0
131,111.761433825,112.105405525,68.0,100.0
132,112.186965825,112.931646825,73.0,122.0
133,113.038029825,113.571717875,73.0,102.0
134,113.889093825,114.2144485,75.0,96.0
135,114.314625825,114.773845775,68.0,99.0
136,114.740157825,115.26498062499999,71.0,96.0
137,115.59122182499999,116.03537084999999,73.0,107.0
138,116.016753825,116.724200775,71.0,90.0
139,117.08058382499999,117.31551295,68.0,92.0
140,117.29334982499999,117.6151584,73.0,93.0
141,117.718881825,118.02473295,73.0,97.0
142,118.144413825,118.36870465,75.0,102.0
143,118.56994582499999,119.022073575,76.0,79.0
144,118.995477825,119.520300625,75.0,96.0
145,119.633775825,119.8031021,71.0,88.0
146,119.846541825,121.694059925,73.0,97.0
147,121.974201825,122.366045875,68.0,100.0
148,122.399733825,123.13111695,66.0,92.0
149,123.250797825,123.667464575,68.0,90.0
150,123.676329825,124.36161365,71.0,89.0
151,124.52739382499999,124.92012439999999,68.0,96.0
152,124.952925825,125.5903373,73.0,97.0
153,125.803989825,126.15594025,73.0,100.0
154,126.229521825,126.76941554999999,68.0,102.0
155,127.080585825,127.171011375,64.0,88.0
156,127.293351825,127.4449476,64.0,82.0
157,127.50611782499999,128.183422925,66.0,100.0
158,128.357181825,128.7109053,66.0,97.0
159,128.782713825,129.18785574999998,68.0,102.0
160,129.208245825,129.70115372499998,66.0,97.0
161,129.633777825,130.055763725,59.0,93.0
162,130.059309825,132.18883571875,61.0,99.0
163,132.58640548124998,133.279982425,80.0,122.0
164,133.41973948125,133.7088022125,76.0,102.0
165,133.83640648124998,134.53953204375,78.0,127.0
166,135.08640748124998,135.68536629374998,78.0,127.0
167,135.91974148124999,136.18536669374998,80.0,122.0
168,136.3199154125,136.47876970624998,76.0,102.0
169,136.488318325,137.22008974374998,73.0,96.0
170,137.58640948124997,137.65064564374998,75.0,117.0
171,137.79474298124998,137.89109722499998,75.0,88.0
172,138.00307648125,138.19231274375,75.0,96.0
173,138.41974348124998,138.67495201875,75.0,122.0
174,138.83641048125,139.12981349375,76.0,102.0
175,139.25307748125,139.63936251249999,75.0,117.0
176,139.87807798125,140.07078646875,71.0,85.0
177,140.08641148125,140.76523146875,73.0,107.0
178,141.12807898124998,141.21314849375,80.0,117.0
179,141.33641248125,141.78172533749998,80.0,127.0
180,142.58641348125,143.231379275,81.0,127.0
181,143.41974748125,143.70186576249998,80.0,122.0
182,143.83641448125,144.44752608124998,78.0,127.0
183,145.08641548125,145.36245736875,78.0,127.0
184,145.50308248124998,145.78346464999998,78.0,122.0
185,145.91974948125,146.21315249375,80.0,122.0
186,146.33641648124998,147.39804927499998,73.0,117.0
187,147.58641748124998,147.668882825,75.0,100.0
188,147.79475098125,147.86940381875,75.0,107.0
189,148.00308448125,148.17148739375,75.0,112.0
190,148.41975148125,148.61853636249998,75.0,127.0
191,148.83641848124998,149.1289534375,71.0,102.0
192,149.25308548125,149.6602038625,68.0,117.0
193,149.87808598125,150.0404125,75.0,97.0
194,150.08641948124998,152.29823559166664,73.0,122.0
195,152.60369246249996,153.31185729999999,80.0,122.0
196,153.45458782499998,153.74980065,76.0,102.0
197,153.88011982499998,154.59820507499998,78.0,127.0
198,155.156715825,155.76841807499997,78.0,127.0
199,156.00777982499997,156.27905647499998,80.0,122.0
200,156.44572317499998,156.58756717499998,76.0,112.0
201,156.60618419999997,157.37746094999997,73.0,96.0
202,157.709907825,157.775510675,75.0,117.0
203,157.92267382499998,158.02107809999998,75.0,88.0
204,158.135439825,158.32870227499998,75.0,96.0
205,158.560971825,158.821610175,75.0,122.0
206,158.98650382499997,159.28614927499999,76.0,102.0
207,159.41203582499998,159.80653944999997,75.0,117.0
208,160.050333825,160.24714237499998,71.0,85.0
209,160.26309982499998,160.9516467708333,73.0,107.0
210,161.31960346249997,161.40587082083331,80.0,117.0
211,161.53087046249996,161.97946274999998,80.0,127.0
212,162.13330874999997,162.2574345,81.0,99.0
213,162.233833125,162.34746937499997,80.0,96.0
214,162.33260925,162.45061612499998,78.0,117.0
215,162.78977662499997,163.43925149999998,81.0,127.0
216,163.628936625,163.91302724999997,80.0,122.0
217,164.048516625,164.663900625,78.0,127.0
218,165.30725662499998,165.58522837499999,78.0,127.0
219,165.72683662499998,166.009179,78.0,122.0
220,166.14641662499997,166.44187087499998,83.0,122.0
221,166.56599662499997,166.863199125,78.0,117.0
222,166.880681625,167.85096037499997,76.0,117.0
223,167.82473662499999,167.90777849999998,75.0,100.0
224,168.03452662499998,168.109701375,75.0,107.0
225,168.24431662499998,168.41389687499998,75.0,112.0
226,168.66389662499998,168.86407125,75.0,127.0
227,169.08347662499997,169.37805674999998,71.0,102.0
228,169.50305662499997,169.91302124999999,68.0,117.0
229,170.132426625,170.295888,75.0,97.0
230,170.342216625,171.09483824999998,73.0,122.0
231,171.18137662499998,171.43137637499999,75.0,107.0
232,171.60095662499998,171.82735499999998,76.0,95.0
233,172.02053662499998,172.43399774999997,78.0,112.0
234,172.85969662499997,173.5581225,80.0,122.0
235,173.698856625,173.98994025,83.0,102.0
236,174.118436625,174.826477875,78.0,127.0
237,175.37717662499998,175.98032287499998,78.0,127.0
238,176.216336625,176.483818875,83.0,122.0
239,176.6070705,176.76878362499997,85.0,127.0
240,176.728573875,176.910391875,83.0,86.0
241,176.908643625,177.04588124999998,78.0,100.0
242,177.05811899999998,177.71546099999998,76.0,92.0
243,177.89465662499998,177.95934187499998,75.0,117.0
244,178.10444662499998,178.2014745,75.0,88.0
245,178.31423662499998,178.50479587499999,75.0,96.0
246,178.73381662499997,178.99080937499997,76.0,122.0
247,179.15339662499997,179.44885087499998,78.0,102.0
248,179.572976625,179.96196224999997,75.0,117.0
249,180.202346625,180.39640237499998,71.0,85.0
250,180.412136625,181.09570237499997,73.0,107.0
251,181.46108662499998,181.546750875,80.0,117.0
252,181.67087662499998,181.901645625,80.0,127.0
253,181.877170125,182.03189024999998,78.0,117.0
254,182.07297412499997,182.40339337499998,80.0,122.0
255,182.929616625,183.57909149999998,81.0,127.0
256,183.768776625,184.05286725,80.0,122.0
257,184.216328625,184.41475499999999,81.0,127.0
258,184.37716762499997,184.54062899999997,80.0,82.0
259,184.54325137499998,185.20583812499999,78.0,127.0
260,185.44709662499997,185.72506837499998,78.0,127.0
261,185.86667662499997,186.14901899999998,78.0,122.0
262,186.286256625,186.581710875,83.0,122.0
263,186.705836625,187.07646562499997,76.0,117.0
264,187.30461225,187.4392275,78.0,117.0
265,187.455835875,187.70408737499997,80.0,112.0
266,187.96457662499998,188.0476185,75.0,100.0
267,188.17436662499998,188.24954137499998,75.0,107.0
268,188.38415662499997,188.55373687499997,75.0,112.0
269,188.803736625,189.00391125,75.0,127.0
270,189.223316625,189.51789674999998,78.0,102.0
271,189.642896625,190.05286124999998,75.0,117.0
272,190.272266625,190.43572799999998,71.0,97.0
273,190.48205662499998,191.23467824999997,73.0,122.0
274,191.32121662499998,191.57121637499998,75.0,107.0
275,191.74079662499997,191.96719499999998,76.0,95.0
276,192.16037662499997,192.57383775,78.0,112.0
277,192.999536625,193.6979625,80.0,122.0
278,193.83869662499998,194.12978024999998,76.0,102.0
279,194.25827662499998,194.966317875,78.0,127.0
280,195.517016625,196.12016287499998,78.0,127.0
281,196.356176625,196.623658875,80.0,122.0
282,196.77575662499999,197.58169987499997,73.0,117.0
283,198.03449662499997,198.099181875,75.0,117.0
284,198.24428662499997,198.34131449999998,75.0,88.0
285,198.45407662499997,198.64463587499998,75.0,96.0
286,198.87365662499997,199.130649375,75.0,122.0
287,199.293236625,199.588690875,76.0,102.0
288,199.712816625,200.10180225,75.0,117.0
289,200.34218662499998,200.53624237499997,71.0,85.0
290,200.55197662499998,201.23554237499997,73.0,107.0
291,201.600926625,201.68659087499998,80.0,117.0
292,201.810716625,202.25914274999997,80.0,127.0
293,203.069456625,203.7189315,81.0,127.0
294,203.90861662499998,204.19270724999998,80.0,122.0
295,204.32819662499998,204.94358062499998,78.0,127.0
296,205.586936625,205.86490837499997,78.0,127.0
297,206.006516625,206.28885899999997,78.0,122.0
298,206.42609662499999,206.721550875,83.0,122.0
299,206.84567662499998,208.104416625,78.0,117.0
300,208.104416625,208.1874585,75.0,100.0
301,208.314206625,208.38938137499997,75.0,107.0
302,208.523996625,208.693576875,75.0,112.0
303,208.943576625,209.14375124999998,75.0,127.0
304,209.363156625,209.65773674999997,71.0,102.0
305,209.78273662499998,210.19270124999997,68.0,117.0
306,210.41210662499998,210.57556799999998,75.0,97.0
307,210.62189662499998,211.37451825,73.0,122.0
308,211.46105662499997,211.711056375,75.0,107.0
309,211.880636625,212.107035,76.0,95.0
310,212.300216625,212.71367775,78.0,112.0
