,start,end,pitch,velocity
0,33.41028309166667,33.75348589166667,67.0,60.0
1,33.81405109166667,33.92004019166667,65.0,60.0
2,34.01593509166667,34.44998569166667,67.0,67.0
3,34.62158709166667,35.29285139166667,67.0,69.0
4,35.42912309166667,35.654560225000004,65.0,72.0
5,35.832891091666674,36.55630875833334,67.0,61.0
6,36.64042709166667,36.80866375833334,69.0,65.0
7,37.04419509166667,38.270640391666674,69.0,62.0
8,39.870571091666676,40.14647922500001,72.0,65.0
9,40.274339091666675,40.38705765833334,70.0,58.0
10,40.47622309166667,40.959062325000005,70.0,59.0
11,41.081875091666674,41.38133635833334,69.0,62.0
12,41.485643091666674,41.80192802500001,67.0,60.0
13,41.88941109166667,42.195601825000004,65.0,63.0
14,42.29317909166667,43.09735035833334,69.0,56.0
15,43.10071509166667,43.201657091666675,70.0,65.0
16,43.30259909166667,43.891427425,69.0,62.0
17,43.90825109166667,44.756163891666674,67.0,58.0
18,46.33085909166667,46.62022615833334,67.0,61.0
19,46.734627091666674,46.84061619166667,65.0,61.0
20,46.936511091666674,47.377291158333335,67.0,63.0
21,47.54216309166667,48.16968585833334,67.0,60.0
22,48.34969909166667,48.60205409166667,65.0,62.0
23,48.75346709166667,49.455013991666675,67.0,64.0
24,49.56100309166668,49.717463191666674,69.0,59.0
25,49.96477109166668,51.139063025000006,69.0,60.0
26,52.79114709166667,53.07883179166667,72.0,62.0
27,53.19491509166667,53.295857091666676,70.0,58.0
28,53.39679909166667,53.862814658333335,70.0,62.0
29,54.00245109166667,54.32041839166668,69.0,62.0
30,54.40621909166667,54.51893765833334,67.0,59.0
31,54.60810309166668,55.064024458333336,65.0,60.0
32,55.21375509166667,55.827818925,69.0,60.0
33,56.02129109166667,56.20466905833334,70.0,59.0
34,56.223175091666675,56.59161339166667,69.0,61.0
35,56.828827091666675,57.65318675833334,67.0,60.0
36,58.84766709166667,58.95533855833334,77.0,59.0
37,59.04955109166667,59.150493091666675,77.0,54.0
38,59.25143509166667,59.596320258333336,77.0,65.0
39,59.65520309166668,59.74100379166667,76.0,60.0
40,59.85708709166667,60.38871495833334,76.0,67.0
41,60.46273909166668,60.79416532500001,74.0,60.0
42,60.866507091666676,60.99773169166667,72.0,60.0
43,61.06839109166667,61.60170132500001,69.0,60.0
44,61.674043091666675,61.95163359166668,74.0,64.0
45,62.077811091666675,62.592615291666675,72.0,60.0
46,62.68346309166667,62.823099525,74.0,59.0
47,62.885347091666674,63.174714158333344,72.0,59.0
48,63.28911509166667,64.306946925,70.0,58.0
49,65.30795509166667,65.54516879166667,77.0,62.0
50,65.71172309166667,65.96912519166668,77.0,63.0
51,66.11549109166667,66.214750725,77.0,62.0
52,66.31737509166668,66.75815515833334,76.0,64.0
53,66.92302709166667,67.21239415833334,74.0,65.0
54,67.32679509166667,67.44960785833334,72.0,63.0
55,67.52867909166667,68.02161252500001,69.0,60.0
56,68.13433109166667,69.989981525,74.0,62.0
57,70.96070709166668,71.08183749166668,77.0,65.0
58,71.16259109166667,71.27362729166667,79.0,62.0
59,71.36447509166668,72.77766309166667,81.0,63.0
60,72.97954709166667,73.28405545833334,81.0,61.0
61,73.38331509166667,73.69791765833334,82.0,62.0
62,73.78708309166667,73.92503715833334,81.0,59.0
63,73.98896709166668,74.13196825833334,79.0,55.0
64,74.19085109166667,74.49031235833334,77.0,63.0
65,74.59461909166667,75.88162959166668,79.0,64.0
66,78.23105480000001,78.48443292500001,79.0,62.0
67,78.63645980000001,78.88983792500001,79.0,64.0
68,79.04186480000001,79.17531061250001,77.0,60.0
69,79.24456730000001,80.0688908,74.0,69.0
70,80.0553773,80.15672855000001,72.0,62.0
71,80.2580798,80.35436348750001,74.0,62.0
72,80.4607823,80.90166023750001,77.0,67.0
73,81.06888980000001,81.41348405000001,77.0,60.0
74,81.47429480000001,81.61280817500001,74.0,69.0
75,81.67699730000001,82.16348330000001,79.0,62.0
76,82.28510480000001,82.6229423,74.0,74.0
77,82.69050980000002,83.31381998750001,72.0,61.0
78,83.5013198,83.57564405000001,77.0,60.0
79,83.7040223,84.220913675,79.0,65.0
80,84.31212980000001,85.73104730000001,81.0,63.0
81,85.93374980000002,86.2394927375,81.0,61.0
82,86.3391548,86.65503286250001,82.0,62.0
83,86.7445598,86.883073175,81.0,59.0
84,86.9472623,87.09084323750001,79.0,55.0
85,87.1499648,87.450640175,77.0,63.0
86,87.55536980000001,88.84759823750001,79.0,64.0
87,91.20401480000001,91.45739292500001,79.0,62.0
88,91.60941980000001,91.86279792500001,79.0,64.0
89,92.01482480000001,92.14827061250001,77.0,60.0
90,92.21752730000001,93.0418508,74.0,69.0
91,93.0283373,93.12968855000001,72.0,62.0
92,93.2310398,93.32732348750001,74.0,62.0
93,93.4337423,93.87462023750001,77.0,67.0
94,94.04184980000001,94.33070086250001,79.0,62.0
95,94.44725480000001,94.73610586250001,81.0,63.0
96,94.85265980000001,95.17744523750001,79.0,64.0
97,95.25651647083335,97.28674521666669,77.0,62.0
98,107.75715438333334,108.09989563333335,67.0,60.0
99,108.16037938333335,108.26622594583336,65.0,60.0
100,108.36199188333335,108.79659610208334,67.0,67.0
101,108.96842891458334,109.64059844583335,67.0,69.0
102,109.77705391458335,110.00279506041667,65.0,72.0
103,110.18136641458335,110.90575964375002,67.0,61.0
104,110.98999141458334,111.15845495625001,69.0,65.0
105,111.39430391458335,112.62240313333335,69.0,62.0
106,114.22449141458334,114.50077162291667,72.0,65.0
107,114.62880391458334,114.7416744875,70.0,58.0
108,114.83096016458335,115.31445052916668,70.0,59.0
109,115.43742891458335,115.73729401875,69.0,62.0
110,115.84174141458334,116.15845287291668,67.0,60.0
111,116.24605391458334,116.55265756041668,65.0,63.0
112,116.65036641458335,117.45562214375002,69.0,56.0
113,117.45899141458335,117.56006953958334,70.0,65.0
114,117.66114766458335,118.25077006041668,69.0,62.0
115,118.26761641458334,119.11667266458335,67.0,58.0
116,120.69349141458335,120.98324870625001,67.0,61.0
117,121.09780391458335,121.20393594583335,65.0,61.0
118,121.29996016458334,121.74133464375001,67.0,63.0
119,121.90642891458334,122.534797925,67.0,60.0
120,122.71505391458335,122.96774922708335,65.0,62.0
121,123.11936641458334,123.82185938333335,67.0,64.0
122,123.92799141458335,124.08466250833334,69.0,59.0
123,124.33230391458335,125.50817943541668,69.0,60.0
124,127.16249141458334,127.45056407083334,72.0,62.0
125,127.56680391458335,127.66788203958335,70.0,58.0
126,127.76896016458335,128.23560417500002,70.0,62.0
127,128.37542891458335,128.69382500833333,69.0,62.0
128,128.77974141458336,128.8926119875,67.0,59.0
129,128.98189766458336,129.4384338625,65.0,60.0
130,129.58836641458333,130.20325834166667,69.0,60.0
131,130.39699141458334,130.58061667500002,70.0,59.0
132,130.59914766458334,130.96808282083333,69.0,61.0
133,131.20561641458335,132.03108776875,67.0,60.0
134,133.22717891458333,133.33499558125,77.0,59.0
135,133.42933516458334,133.53041328958335,77.0,54.0
136,133.63149141458334,133.976841675,77.0,65.0
137,134.03580391458334,134.12172032083333,76.0,60.0
138,134.23796016458334,134.77030495625002,76.0,67.0
139,134.84442891458335,135.17630209166668,74.0,60.0
140,135.24874141458335,135.38014297708335,72.0,60.0
141,135.45089766458335,135.9849270916667,69.0,60.0
142,136.05736641458336,136.33533125833335,74.0,64.0
143,136.46167891458333,136.97717735208334,72.0,60.0
144,137.06814766458334,137.20797240416667,74.0,59.0
145,137.27030391458334,137.56006120625,72.0,59.0
146,137.67461641458334,138.69382084166668,70.0,58.0
147,139.69617891458336,139.93371250833334,77.0,62.0
148,140.10049141458336,140.35824063333334,77.0,63.0
149,140.50480391458333,140.60419740416668,77.0,62.0
150,140.70696016458334,141.14833464375002,76.0,64.0
151,141.31342891458334,141.60318620625,74.0,65.0
152,141.71774141458334,141.84071980000002,72.0,63.0
153,141.91989766458335,142.41349584166667,69.0,60.0
154,142.52636641458335,144.38451927916668,74.0,62.0
155,145.35655391458334,145.47784766458335,77.0,65.0
156,145.55871016458335,145.66989610208333,79.0,62.0
157,145.76086641458335,147.17596016458333,81.0,63.0
158,147.37811641458336,147.683035425,81.0,61.0
159,147.78242891458333,148.0974557375,82.0,62.0
160,148.18674141458334,148.32488151875,81.0,59.0
161,148.38889766458334,148.532091675,79.0,55.0
162,148.59105391458334,148.89091901875003,77.0,63.0
163,148.99536641458334,150.28411250833335,79.0,64.0
164,152.63417891458334,152.88687422708335,79.0,62.0
165,153.03849141458335,153.29118672708336,79.0,64.0
166,153.44280391458335,153.57589011250002,77.0,60.0
167,153.64496016458335,154.46706224791666,74.0,69.0
168,154.45358516458333,154.55466328958335,72.0,62.0
169,154.65574141458333,154.75176563333335,74.0,62.0
170,154.85789766458333,155.29758750833335,77.0,67.0
171,155.46436641458334,155.80803203958334,77.0,60.0
172,155.86867891458334,156.00681901875,74.0,69.0
173,156.07083516458334,156.55601016458334,79.0,62.0
174,156.67730391458335,157.01423099791668,74.0,74.0
175,157.08161641458335,157.70324688333335,72.0,61.0
176,157.89024141458333,157.9643653729167,77.0,60.0
177,158.09239766458336,158.60789610208334,79.0,65.0
178,158.69886641458334,160.11396016458335,81.0,63.0
179,160.31611641458335,160.621035425,81.0,61.0
180,160.72042891458335,161.0354557375,82.0,62.0
181,161.12474141458335,161.26288151875002,81.0,59.0
182,161.32689766458333,161.470091675,79.0,55.0
183,161.52905391458336,161.82891901875,77.0,63.0
184,161.93336641458333,163.22211250833334,79.0,64.0
185,165.57217891458333,165.82487422708334,79.0,62.0
186,165.97649141458334,166.22918672708334,79.0,64.0
187,166.38080391458334,166.5138901125,77.0,60.0
188,166.58296016458334,167.40506224791667,74.0,69.0
189,167.39158516458335,167.49266328958333,72.0,62.0
190,167.59374141458335,167.68976563333334,74.0,62.0
191,167.79589766458335,168.23558750833334,77.0,67.0
192,168.40236641458335,168.69043907083335,79.0,62.0
193,168.80667891458336,169.09475157083335,81.0,63.0
194,169.21099141458333,169.53612605,79.0,64.0
195,169.61530391458334,171.65034349791668,77.0,62.0
196,193.87405391458333,193.99534766458333,77.0,65.0
197,194.07621016458336,194.18739610208334,79.0,62.0
198,194.27836641458333,195.69346016458334,81.0,63.0
199,195.89561641458334,196.200535425,81.0,61.0
200,196.29992891458335,196.6149557375,82.0,62.0
201,196.70424141458335,196.84238151875002,81.0,59.0
202,196.90639766458332,197.049591675,79.0,55.0
203,197.10855391458335,197.40841901875,77.0,63.0
204,197.51286641458336,198.80161250833333,79.0,64.0
205,201.15167891458333,201.40437422708334,79.0,62.0
206,201.55599141458333,201.80868672708334,79.0,64.0
207,201.96030391458333,202.0933901125,77.0,60.0
208,202.16246016458334,202.98456224791667,74.0,69.0
209,202.97108516458334,203.07216328958333,72.0,62.0
210,203.17324141458334,203.26926563333333,74.0,62.0
211,203.37539766458332,203.81508750833333,77.0,67.0
212,203.98186641458335,204.32553203958332,77.0,60.0
213,204.38617891458335,204.52431901875002,74.0,69.0
214,204.58833516458333,205.07351016458335,79.0,62.0
215,205.19480391458333,205.53173099791667,74.0,74.0
216,205.59911641458334,206.22074688333333,72.0,61.0
217,206.40774141458334,206.48186537291667,77.0,60.0
218,206.60989766458334,207.12539610208336,79.0,65.0
219,207.21636641458332,208.63146016458336,81.0,63.0
220,208.83361641458333,209.138535425,81.0,61.0
221,209.23792891458334,209.55295573749999,82.0,62.0
222,209.64224141458334,209.78038151875,81.0,59.0
223,209.84439766458334,209.987591675,79.0,55.0
224,210.04655391458334,210.34641901875,77.0,63.0
225,210.45086641458334,211.73961250833332,79.0,64.0
226,214.08967891458332,214.34237422708333,79.0,62.0
227,214.49399141458332,214.74668672708333,79.0,64.0
228,214.89830391458332,215.0313901125,77.0,60.0
229,215.10046016458335,215.9225622479167,74.0,69.0
230,215.90908516458333,216.01016328958332,72.0,62.0
231,216.11124141458333,216.20726563333335,74.0,62.0
232,216.31339766458333,216.75308750833335,77.0,67.0
233,216.91986641458334,217.20793907083333,79.0,62.0
234,217.32417891458334,217.61225157083334,81.0,63.0
235,217.72849141458335,218.05362605,79.0,64.0
236,218.13280391458335,219.34237214375,77.0,62.0
237,219.34574141458336,219.46703516458334,77.0,65.0
238,219.54789766458333,219.94884089375,79.0,62.0
239,220.15436641458334,221.56946016458335,81.0,63.0
240,221.77161641458332,222.076535425,81.0,61.0
241,222.17592891458332,222.4909557375,82.0,62.0
242,222.58024141458333,222.71838151875,81.0,59.0
243,222.78239766458336,222.92559167500002,79.0,55.0
244,222.98455391458333,223.28441901875,77.0,63.0
245,223.38886641458333,224.67761250833334,79.0,64.0
246,227.02767891458333,227.28037422708334,79.0,62.0
247,227.43199141458334,227.68468672708332,79.0,64.0
248,227.83630391458334,227.9693901125,77.0,60.0
249,228.03846016458334,228.86056224791668,74.0,69.0
250,228.84708516458335,228.94816328958333,72.0,62.0
251,229.04924141458332,229.14526563333334,74.0,62.0
252,229.25139766458335,229.69108750833334,77.0,67.0
253,229.85786641458333,230.20153203958336,77.0,60.0
254,230.26217891458333,230.40031901875,74.0,69.0
255,230.46433516458333,230.94951016458333,79.0,62.0
256,231.07080391458334,231.40773099791667,74.0,74.0
257,231.47511641458334,232.09674688333334,72.0,61.0
258,232.28374141458335,232.35786537291665,77.0,60.0
259,232.48589766458332,233.00139610208333,79.0,65.0
260,233.09236641458335,234.50746016458334,81.0,63.0
261,234.70961641458334,235.01453542500002,81.0,61.0
262,235.11392891458334,235.42895573750002,82.0,62.0
263,235.51824141458331,235.65638151875,81.0,59.0
264,235.72039766458334,235.863591675,79.0,55.0
265,235.92255391458332,236.22241901875,77.0,63.0
266,236.32686641458332,237.61561250833336,79.0,64.0
267,239.96567891458335,240.21837422708336,79.0,62.0
268,240.36999141458335,240.62268672708336,79.0,64.0
269,240.77430391458336,240.90739011250002,77.0,60.0
270,240.97646016458333,241.79856224791666,74.0,69.0
271,241.78508516458334,241.88616328958335,72.0,62.0
272,241.9872414145833,242.08326563333333,74.0,62.0
273,242.18939766458334,242.62908750833333,77.0,67.0
274,242.79586641458332,243.0839390708333,79.0,62.0
275,243.20017891458332,243.4882515708333,81.0,63.0
276,243.60449141458332,243.92962605000002,79.0,64.0
277,244.00880391458332,246.04384349791667,77.0,62.0
