,start,end,pitch,velocity
0,0.135135,2.6030379375000003,38.0,58.0
1,0.15709443750000002,2.8952673750000004,62.0,45.0
2,0.2010133125,2.9054025,65.0,39.0
3,0.10304043750000001,2.9189160000000003,57.0,36.0
4,3.3901993125000005,5.815872562500001,60.0,43.0
5,3.4324290000000004,6.0641831250000005,64.0,35.0
6,3.3530371875000005,6.3158720625,55.0,40.0
7,3.415537125,6.4003314375,48.0,52.0
8,6.719587875,9.2145178125,65.0,46.0
9,6.6722906250000005,9.246612375000002,62.0,41.0
10,6.582763687500001,9.2888420625,58.0,44.0
11,6.650331187500001,9.319247437500001,46.0,49.0
12,9.902017125,12.2719471875,53.0,32.0
13,9.910463062500002,12.344582250000002,58.0,43.0
14,9.91215225,12.408771375,62.0,52.0
15,9.898638750000002,12.496609125,46.0,54.0
16,13.18241925,13.565864812500001,57.0,55.0
17,13.18241925,13.577689125000001,65.0,53.0
18,13.18241925,13.793905125000002,38.0,60.0
19,13.99322925,14.084445375000001,62.0,53.0
20,13.99322925,14.106404812500001,57.0,52.0
21,14.601336750000002,14.749985250000002,57.0,47.0
22,14.601336750000002,14.770255500000001,65.0,53.0
23,15.412146750000002,15.538835812500002,50.0,49.0
24,15.61484925,15.768565312500002,53.0,53.0
25,15.817551750000002,16.065862312500002,57.0,62.0
26,16.02025425,16.111470375,62.0,53.0
27,16.425659250000002,16.834442625,60.0,52.0
28,16.425659250000002,16.891875000000002,55.0,53.0
29,16.425659250000002,17.325996187500003,48.0,59.0
30,17.236469250000003,17.347955625,60.0,51.0
31,17.236469250000003,17.378361,64.0,54.0
32,17.236469250000003,17.396942062500003,55.0,48.0
33,17.84457675,17.888495625,60.0,44.0
34,17.84457675,17.969576625000002,67.0,46.0
35,17.84457675,17.9712658125,55.0,48.0
36,18.45268425,18.6570759375,64.0,45.0
37,18.45268425,18.694238062500002,60.0,48.0
38,18.45268425,18.736467750000003,55.0,42.0
39,19.060791750000003,19.1536970625,52.0,45.0
40,19.26349425,19.499980500000003,55.0,56.0
41,19.46619675,19.5523453125,60.0,55.0
42,19.668899250000003,20.07430425,53.0,54.0
43,19.668899250000003,20.118223125,58.0,58.0
44,20.479709250000003,20.513493,58.0,41.0
45,20.479709250000003,20.608087500000003,53.0,46.0
46,20.479709250000003,20.6300469375,62.0,57.0
47,21.290519250000003,21.376667812500003,58.0,58.0
48,21.290519250000003,21.430721812500003,53.0,57.0
49,21.290519250000003,21.442546125000003,65.0,56.0
50,21.898626750000002,21.996599625,53.0,44.0
51,21.898626750000002,22.0050455625,62.0,49.0
52,22.304031750000004,22.3699100625,53.0,45.0
53,22.304031750000004,22.510112625,58.0,51.0
54,19.668899250000003,22.660450312500004,46.0,51.0
55,22.912139250000003,23.224638937500004,53.0,46.0
56,22.912139250000003,23.3057199375,58.0,44.0
57,23.722659531250002,23.86098584375,53.0,44.0
58,23.722659531250002,23.86267275,62.0,47.0
59,24.32989816666667,24.41558347916667,53.0,37.0
60,24.32989816666667,24.42062379166667,58.0,40.0
61,25.136303316666666,25.391643741666666,65.0,54.0
62,25.336570316666666,25.518479508333336,62.0,58.0
63,25.536837316666666,25.69037535,53.0,63.0
64,22.912139250000003,25.693713133333333,46.0,51.0
65,25.737104316666667,25.80719776666667,58.0,43.0
66,26.7384596125,27.184405112500002,60.0,80.0
67,27.143864612500003,27.588120925000002,53.0,77.0
68,26.538172316666667,27.633728987500003,48.0,73.0
69,26.137638316666667,27.664134362500004,41.0,85.0
70,27.5492696125,28.099944737500003,60.0,82.0
71,27.751972112500003,28.358390425000003,41.0,84.0
72,27.954674612500003,28.3600796125,48.0,79.0
73,28.157377112500004,28.417511987500003,53.0,79.0
74,28.3600796125,28.974943862500005,60.0,84.0
75,28.562782112500003,29.052646487500002,36.0,84.0
76,28.968187112500004,29.545886858333336,53.0,82.0
77,29.170719091666673,29.70739405833334,60.0,80.0
78,29.97825509166667,30.319775525000004,53.0,82.0
79,29.97825509166667,30.627648625000006,60.0,80.0
80,29.77637109166667,30.819438425000005,48.0,75.0
81,29.372603091666672,30.85645049166667,41.0,84.0
82,30.58390709166667,31.11385259166667,53.0,84.0
83,30.78579109166667,31.354431025000004,60.0,80.0
84,31.18955909166667,31.418360958333338,48.0,73.0
85,30.98767509166667,31.433502258333338,41.0,85.0
86,31.391443091666673,31.70099855833334,53.0,84.0
87,31.593327091666673,32.242720625000004,60.0,77.0
88,32.19897909166667,32.488346158333336,53.0,85.0
89,32.40086309166667,32.560687925,60.0,78.0
90,31.795211091666673,32.596017625,36.0,84.0
91,33.20839909166667,33.59197869166667,53.0,78.0
92,33.20839909166667,33.840968958333335,60.0,74.0
93,32.60274709166667,34.014252725000006,41.0,79.0
94,33.00651509166667,34.03275875833334,48.0,71.0
95,33.81405109166667,34.130336025000005,53.0,78.0
96,34.01593509166667,34.643457858333335,60.0,75.0
97,34.41970309166667,34.93618965833334,48.0,70.0
98,34.21781909166667,34.96647225833334,41.0,78.0
99,34.62158709166667,35.02535509166667,53.0,79.0
100,34.82347109166667,35.519970891666674,60.0,79.0
101,35.02535509166667,35.66970152500001,36.0,80.0
102,35.42912309166667,35.733631458333335,53.0,78.0
103,35.631007091666675,35.99944539166667,60.0,74.0
104,36.43854309166667,36.956712025,53.0,70.0
105,35.832891091666674,37.296550091666674,38.0,78.0
106,36.236659091666674,37.29823245833334,45.0,66.0
107,37.24607909166667,37.535446158333336,53.0,69.0
108,36.84231109166667,37.597693725000006,60.0,74.0
109,37.85173109166667,37.98463805833334,53.0,72.0
110,38.05361509166667,38.33961742500001,53.0,77.0
111,37.44796309166667,38.655902358333336,38.0,80.0
112,37.64984709166667,38.66431419166667,45.0,67.0
113,38.05361509166667,38.94190469166667,62.0,79.0
114,38.65926709166667,38.955363625000004,53.0,75.0
115,38.86115109166667,39.07817639166667,57.0,65.0
116,39.46680309166667,39.56942745833334,53.0,72.0
117,39.66868709166667,40.35004559166667,58.0,72.0
118,39.06303509166667,40.525011725000006,46.0,79.0
119,40.274339091666675,40.68820129166667,53.0,66.0
120,40.47622309166667,40.78577855833334,62.0,74.0
121,40.87999109166667,41.105428225000004,53.0,71.0
122,41.081875091666674,41.21478205833334,58.0,59.0
123,41.283759091666674,41.66229159166667,53.0,83.0
124,40.678107091666675,41.89782292500001,46.0,85.0
125,41.88941109166667,41.968482325000004,53.0,70.0
126,41.88941109166667,42.17373105833334,58.0,73.0
127,42.09129509166667,42.251119925000005,53.0,76.0
128,42.89883109166667,43.312693291666676,50.0,83.0
129,42.69694709166667,43.69290815833334,45.0,70.0
130,42.29317909166667,43.71309655833334,38.0,82.0
131,43.50448309166667,43.81403855833334,50.0,73.0
132,43.70636709166667,43.88974505833334,53.0,71.0
133,43.30259909166667,43.96545155833334,62.0,77.0
134,44.31201909166667,44.61652745833334,55.0,78.0
135,44.51390309166667,45.00010705833334,64.0,80.0
136,44.917671091666676,45.16497899166667,60.0,73.0
137,45.11955509166667,45.42574582500001,55.0,73.0
138,45.321439091666676,45.47958155833334,60.0,71.0
139,44.11013509166667,45.548558591666676,43.0,66.0
140,43.90825109166667,45.57884119166667,36.0,78.0
141,46.128975091666675,46.51255469166667,53.0,78.0
142,46.128975091666675,46.76154495833334,60.0,74.0
143,45.52332309166667,46.934828725,41.0,79.0
144,45.92709109166667,46.95333475833334,48.0,71.0
145,46.734627091666674,47.050912025,53.0,78.0
146,46.936511091666674,47.56403385833334,60.0,75.0
147,47.34027909166667,47.85676565833334,48.0,70.0
148,47.13839509166667,47.88704825833334,41.0,78.0
149,47.54216309166667,47.94593109166667,53.0,79.0
150,47.74404709166667,48.44054689166667,60.0,79.0
151,47.94593109166667,48.590277525000005,36.0,80.0
152,48.34969909166667,48.65420745833334,53.0,78.0
153,48.55158309166667,48.92002139166667,60.0,74.0
154,49.35911909166667,49.877288025000006,53.0,70.0
155,48.75346709166667,50.21712609166667,38.0,78.0
156,49.15723509166667,50.21880845833334,45.0,66.0
157,50.16665509166667,50.45602215833334,53.0,69.0
158,49.76288709166667,50.51826972500001,60.0,74.0
159,50.772307091666676,50.90521405833334,53.0,72.0
160,50.97419109166667,51.260193425000004,53.0,77.0
161,50.368539091666676,51.57647835833334,38.0,80.0
162,50.57042309166667,51.58489019166667,45.0,67.0
163,50.97419109166667,51.862480691666676,62.0,79.0
164,51.579843091666675,51.875939625,53.0,75.0
165,51.781727091666674,51.99875239166667,57.0,65.0
166,52.38737909166667,52.49000345833334,53.0,72.0
167,52.58926309166667,53.27062159166667,58.0,72.0
168,51.983611091666674,53.44558772500001,46.0,79.0
169,53.19491509166667,53.60877729166667,53.0,66.0
170,53.39679909166667,53.70635455833334,62.0,74.0
171,53.80056709166667,54.02600422500001,53.0,71.0
172,54.00245109166667,54.13535805833334,58.0,59.0
173,54.20433509166667,54.58286759166667,53.0,83.0
174,53.59868309166667,54.81839892500001,46.0,85.0
175,54.80998709166667,54.88905832500001,53.0,70.0
176,54.80998709166667,55.09430705833334,58.0,73.0
177,55.01187109166668,55.17169592500001,53.0,76.0
178,55.819407091666676,56.23326929166667,50.0,83.0
179,55.61752309166667,56.613484158333335,45.0,70.0
180,55.21375509166667,56.633672558333345,38.0,82.0
181,56.42505909166667,56.73461455833334,50.0,73.0
182,56.626943091666675,56.810321058333344,53.0,71.0
183,56.223175091666675,56.88602755833334,62.0,77.0
184,57.232595091666674,57.53710345833334,55.0,78.0
185,57.434479091666674,57.92068305833334,64.0,80.0
186,57.83824709166667,58.08555499166667,60.0,73.0
187,58.04013109166667,58.346321825000004,55.0,73.0
188,58.24201509166667,58.40015755833334,60.0,71.0
189,57.030711091666674,58.46913459166667,43.0,66.0
190,56.828827091666675,58.49941719166667,36.0,78.0
191,58.44389909166667,58.67438332500001,57.0,71.0
192,58.44389909166667,58.76691349166667,62.0,74.0
193,58.84766709166667,59.094974991666675,57.0,79.0
194,59.04955109166667,59.64174415833334,65.0,78.0
195,58.64578309166667,59.872228391666674,45.0,62.0
196,58.44389909166667,59.89914625833334,38.0,80.0
197,59.65520309166668,60.15654835833334,62.0,81.0
198,59.85708709166667,60.23225485833334,57.0,74.0
199,60.46273909166668,60.747059058333335,57.0,80.0
200,60.26085509166667,61.01455535833334,45.0,67.0
201,60.05897109166668,61.03137902500001,38.0,81.0
202,60.66462309166667,61.13063865833334,65.0,78.0
203,61.06839109166667,61.288781125,62.0,76.0
204,61.270275091666676,61.667313625000006,57.0,79.0
205,61.674043091666675,62.09631712500001,62.0,74.0
206,62.077811091666675,62.352036858333335,53.0,70.0
207,62.27969509166667,62.644768658333334,58.0,81.0
208,61.674043091666675,62.944229925,46.0,78.0
209,62.68346309166667,63.13770209166667,62.0,79.0
210,62.885347091666674,63.18985545833334,53.0,72.0
211,63.087231091666666,63.48763435833334,58.0,80.0
212,63.49099909166668,63.79550745833335,53.0,73.0
213,63.69288309166667,63.847660825000006,58.0,67.0
214,63.28911509166667,64.28171142500001,46.0,83.0
215,63.89476709166668,64.32377059166667,62.0,79.0
216,64.29853509166668,64.49537199166667,58.0,77.0
217,64.50041909166667,64.59126689166668,53.0,78.0
218,64.90418709166667,65.13298895833334,57.0,64.0
219,64.90418709166667,65.39543815833333,62.0,72.0
220,65.30795509166667,65.45600335833333,57.0,78.0
221,65.50983909166668,65.90351289166668,65.0,78.0
222,65.91360709166668,66.15250315833335,62.0,72.0
223,65.10607109166668,66.35943425833334,45.0,65.0
224,64.90418709166667,66.37794029166668,38.0,80.0
225,66.11549109166667,66.39308159166667,57.0,74.0
226,66.51925909166667,66.71777835833333,57.0,76.0
227,66.51925909166667,66.99032175833334,62.0,74.0
228,66.92302709166667,67.03069855833334,57.0,78.0
229,67.12491109166668,67.40923105833335,57.0,76.0
230,67.12491109166668,67.52026725833333,65.0,74.0
231,67.52867909166667,67.76252805833334,62.0,72.0
232,66.51925909166667,67.82141089166667,38.0,80.0
233,66.72114309166668,67.83486982500001,45.0,69.0
234,67.73056309166667,67.94254129166667,57.0,79.0
235,67.93244709166667,68.12928399166667,62.0,73.0
236,68.33621509166667,68.551558025,53.0,79.0
237,68.53809909166668,68.72988889166668,58.0,70.0
238,68.73998309166667,69.09328009166667,53.0,78.0
239,69.14375109166667,69.33217615833334,62.0,78.0
240,68.13433109166667,69.525648325,46.0,79.0
241,69.34563509166668,69.58789589166668,53.0,78.0
242,69.74940309166668,70.398796625,53.0,73.0
243,69.74940309166668,70.48459732500001,58.0,73.0
244,69.74940309166668,70.908553725,46.0,80.0
245,71.36447509166668,71.79179622500001,57.0,60.0
246,71.36447509166668,72.05592779166668,53.0,59.0
247,71.76824309166668,72.26958835833334,48.0,48.0
248,72.17201109166668,72.45128395833333,65.0,59.0
249,72.17201109166668,72.452966325,57.0,64.0
250,72.17201109166668,72.47988419166667,60.0,61.0
251,72.57577909166667,72.72887445833334,48.0,46.0
252,71.36447509166668,72.85505195833333,41.0,60.0
253,72.77766309166667,73.01992389166668,53.0,60.0
254,72.77766309166667,73.15114849166667,57.0,61.0
255,72.77766309166667,73.204984225,60.0,61.0
256,72.77766309166667,73.23358445833334,65.0,60.0
257,73.58519909166668,73.68277635833334,53.0,56.0
258,73.38331509166667,73.82409515833334,48.0,59.0
259,73.78708309166667,73.951955025,57.0,74.0
260,73.78708309166667,73.95868449166667,53.0,60.0
261,73.78708309166667,73.98896709166668,60.0,65.0
262,73.18143109166667,74.06635595833335,41.0,57.0
263,73.98896709166668,74.11514459166668,48.0,57.0
264,74.19085109166667,74.33889935833334,41.0,59.0
265,74.59461909166667,74.80827965833335,55.0,59.0
266,74.59461909166667,74.93782189166667,60.0,58.0
267,74.99838709166667,75.047175725,55.0,45.0
268,74.59461909166667,75.551885725,48.0,74.0
269,75.40215509166667,75.56029755833335,55.0,69.0
270,75.40215509166667,75.58721542500001,64.0,67.0
271,76.00780709166668,76.16763192500001,55.0,61.0
272,76.00780709166668,76.187820325,60.0,65.0
273,76.41157509166668,76.43512822500001,65.0,38.0
274,76.41157509166668,76.56130572500001,55.0,65.0
275,76.41157509166668,76.91292035833334,43.0,52.0
276,76.81534309166668,76.91628509166668,55.0,63.0
277,77.01722709166667,77.19219322500001,55.0,72.0
278,77.01722709166667,77.20396979166668,60.0,72.0
279,77.01722709166667,77.24098185833334,64.0,65.0
280,77.21911109166668,77.30491179166667,48.0,67.0
281,77.42099509166667,77.52530182500001,55.0,60.0
282,77.82564980000001,78.03341986250001,62.0,59.0
283,77.82564980000001,78.079027925,58.0,54.0
284,77.82564980000001,78.1043657375,55.0,58.0
285,78.23105480000001,78.61956792500001,50.0,30.0
286,78.63645980000001,78.79693261250002,55.0,63.0
287,78.63645980000001,78.81889205,62.0,65.0
288,78.63645980000001,78.82227042500001,58.0,67.0
289,78.63645980000001,78.8408514875,67.0,56.0
290,79.04186480000001,79.11618905,55.0,53.0
291,78.83916230000001,79.27328348750001,50.0,51.0
292,77.82564980000001,79.30537805,43.0,60.0
293,79.24456730000001,79.6111209875,58.0,62.0
294,79.24456730000001,79.612810175,55.0,59.0
295,79.24456730000001,79.633080425,62.0,61.0
296,79.8526748,79.9472693,55.0,58.0
297,79.6499723,80.1280123625,50.0,58.0
298,80.0553773,80.2800392375,55.0,63.0
299,80.0553773,80.2800392375,62.0,65.0
300,80.0553773,80.29186355,58.0,74.0
301,80.2580798,80.40672830000001,50.0,51.0
302,80.4607823,80.59929567500001,55.0,59.0
303,80.4607823,80.6364578,62.0,62.0
304,80.4607823,80.6449037375,58.0,62.0
305,79.44726980000002,80.7057144875,43.0,59.0
306,80.6634848,80.75132255000001,50.0,58.0
307,80.8661873,80.95233586250001,53.0,42.0
308,81.06888980000001,81.28848417500001,53.0,59.0
309,81.06888980000001,81.45740292500001,58.0,63.0
310,81.06888980000001,81.46078130000001,62.0,59.0
311,81.06888980000001,81.77834855,46.0,74.0
312,81.67699730000001,81.79355123750001,53.0,63.0
313,81.67699730000001,81.89152411250001,62.0,65.0
314,81.67699730000001,81.8949024875,58.0,72.0
315,82.08240230000001,82.4455776125,53.0,59.0
316,82.28510480000001,82.5232802375,58.0,69.0
317,82.48780730000001,82.59422611250001,62.0,60.0
318,82.69050980000002,82.93882036250001,55.0,58.0
319,82.69050980000002,83.0570634875,60.0,65.0
320,83.0959148,83.16686067500001,55.0,58.0
321,82.69050980000002,83.3847658625,48.0,72.0
322,83.2986173,83.5232792375,55.0,72.0
323,83.2986173,83.5266576125,64.0,64.0
324,83.2986173,83.53510355,60.0,74.0
325,83.5013198,83.62294130000001,48.0,57.0
326,83.7040223,83.8070627375,55.0,62.0
327,83.7040223,83.85604917500001,60.0,67.0
328,84.31212980000001,84.80030498750001,57.0,58.0
329,84.31212980000001,84.8104401125,60.0,59.0
330,84.31212980000001,84.8239536125,53.0,58.0
331,84.71753480000001,85.20570998750001,48.0,52.0
332,85.12293980000001,85.44219623750001,65.0,57.0
333,85.12293980000001,85.46415567500001,57.0,63.0
334,85.12293980000001,85.47260161250001,60.0,60.0
335,85.12293980000001,85.4962502375,53.0,56.0
336,84.31212980000001,85.61618255,41.0,62.0
337,85.52834480000001,85.69726355,48.0,44.0
338,85.73104730000001,86.14827661250001,53.0,58.0
339,85.73104730000001,86.2445603,57.0,59.0
340,85.73104730000001,86.2496278625,60.0,60.0
341,86.5418573,86.8476002375,53.0,59.0
342,86.3391548,87.01314061250001,48.0,58.0
343,86.9472623,87.13307292500001,53.0,60.0
344,86.9472623,87.16854586250001,57.0,64.0
345,86.9472623,87.200640425,60.0,65.0
346,86.9472623,87.21246473750001,65.0,58.0
347,86.1364523,87.25807280000001,41.0,59.0
348,87.1499648,87.261451175,48.0,60.0
349,87.55536980000001,87.77665336250001,55.0,58.0
350,87.55536980000001,87.92361267500002,60.0,59.0
351,87.96077480000001,88.01651798750001,55.0,41.0
352,87.55536980000001,88.21415292500001,48.0,67.0
353,88.16347730000001,88.403341925,60.0,64.0
354,88.16347730000001,88.41009867500001,55.0,60.0
355,88.16347730000001,88.41685542500001,64.0,65.0
356,88.56888230000001,88.79692261250001,55.0,64.0
357,88.56888230000001,88.85942255,60.0,67.0
358,88.56888230000001,88.86617930000001,64.0,64.0
359,88.97428730000001,89.23611136250001,43.0,58.0
360,89.1769898,89.4354354875,55.0,62.0
361,89.1769898,89.52158405,60.0,61.0
362,89.1769898,89.54692186250001,64.0,61.0
363,89.5823948,89.64151636250001,55.0,50.0
364,89.7850973,89.98948898750001,60.0,75.0
365,89.7850973,90.018205175,55.0,64.0
366,89.7850973,90.05029973750001,64.0,72.0
367,90.1905023,90.315502175,55.0,63.0
368,89.1769898,90.35604267500001,48.0,84.0
369,90.1905023,90.4962452375,60.0,69.0
370,90.59590730000001,90.72428555,55.0,51.0
371,90.79860980000001,91.072258175,53.0,59.0
372,90.79860980000001,91.22428505,58.0,53.0
373,91.20401480000001,91.29185255000002,53.0,51.0
374,91.40671730000001,91.62293330000001,53.0,60.0
375,91.40671730000001,91.63644680000002,58.0,69.0
376,91.40671730000001,91.65333867500001,62.0,60.0
377,91.81212230000001,91.92867623750001,53.0,60.0
378,91.81212230000001,91.9861086125,58.0,72.0
379,90.79860980000001,92.05705448750001,46.0,69.0
380,91.81212230000001,92.06550042500001,62.0,62.0
381,92.21752730000001,92.29860830000001,53.0,54.0
382,92.42022980000002,92.63306742500001,55.0,60.0
383,92.42022980000002,92.84083748750001,60.0,62.0
384,92.82563480000002,92.9084049875,55.0,53.0
385,92.42022980000002,93.17360742500001,48.0,65.0
386,93.0283373,93.28171542500002,55.0,63.0
387,93.0283373,93.28509380000001,60.0,67.0
388,93.0283373,93.28509380000001,64.0,69.0
389,93.4337423,93.57563405,55.0,61.0
390,93.4337423,93.61955292500001,60.0,67.0
391,93.4337423,93.62799886250001,64.0,64.0
392,94.04184980000001,94.29184955000001,57.0,58.0
393,94.04184980000001,94.41347105000001,62.0,59.0
394,94.85265980000001,94.95705520416668,57.0,63.0
395,94.85265980000001,94.9604199375,65.0,65.0
396,94.85265980000001,94.96883177083335,62.0,72.0
397,95.45840047083335,95.59635453750002,57.0,51.0
398,95.45840047083335,95.60813110416667,62.0,55.0
399,96.26524188333335,96.55926011250001,45.0,49.0
400,94.04184980000001,96.62814438333335,38.0,64.0
401,96.46685438333334,96.75919250833334,57.0,64.0
402,96.66846688333335,96.86503907083335,62.0,62.0
403,96.87007938333335,96.97592594583335,65.0,64.0
404,97.27330438333335,97.76725500833335,64.0,59.0
405,97.27330438333335,97.80925761250002,60.0,56.0
406,98.07975438333335,98.17384021666668,67.0,58.0
407,98.07975438333335,98.19232136250001,60.0,59.0
408,98.68459188333335,98.78539813333335,64.0,58.0
409,98.68459188333335,98.81900021666668,60.0,52.0
410,99.28942938333334,99.47256073750002,67.0,58.0
411,99.28942938333334,99.48936177916669,64.0,63.0
412,99.28942938333334,99.49104188333335,72.0,59.0
413,99.28942938333334,99.55320573750001,60.0,53.0
414,99.69265438333335,99.85730459166668,55.0,40.0
415,97.27330438333335,99.86234490416668,48.0,64.0
416,99.89426688333334,99.95475063333335,64.0,59.0
417,99.89426688333334,99.96315115416668,67.0,54.0
418,99.89426688333334,100.00347365416668,60.0,60.0
419,100.49910438333335,100.68559594583334,53.0,58.0
420,100.49910438333335,100.89728907083335,58.0,58.0
421,100.90232938333335,100.96113302916667,53.0,40.0
422,101.10394188333335,101.23499000833334,62.0,59.0
423,101.10394188333335,101.24675073750001,53.0,58.0
424,101.70877938333335,101.84150761250001,53.0,54.0
425,101.70877938333335,101.84654792500001,58.0,51.0
426,102.31361688333335,102.45138542500001,62.0,58.0
427,102.51522938333335,102.56899271666668,58.0,33.0
428,102.71684188333334,102.78068584166668,53.0,46.0
429,102.91845438333334,103.04110198750001,53.0,62.0
430,102.91845438333334,103.12678730000002,58.0,64.0
431,103.32167938333335,103.56865469583335,58.0,59.0
432,103.52329188333334,103.66442063333335,53.0,55.0
433,100.49910438333335,106.16273552916668,46.0,63.0
434,103.72490438333335,106.21985907083335,53.0,59.0
435,103.72490438333335,106.24002032083335,58.0,58.0
436,107.55554188333335,107.93860563333335,53.0,78.0
437,107.55554188333335,108.18726105000002,60.0,74.0
438,106.95070438333335,108.36031177916668,41.0,79.0
439,107.35392938333335,108.37880651875001,48.0,71.0
440,108.16037938333335,108.47651537291668,53.0,78.0
441,108.36199188333335,108.99032917500001,60.0,75.0
442,108.76627266458334,109.2834557375,48.0,70.0
443,108.56411641458335,109.31377917500001,41.0,78.0
444,108.96842891458334,109.37274141458334,53.0,79.0
445,109.17058516458334,109.86802422708335,60.0,79.0
446,109.37274141458334,110.01795677916668,36.0,80.0
447,109.77705391458335,110.08197292500002,53.0,78.0
448,109.97921016458335,110.34814532083334,60.0,74.0
449,110.78783516458334,111.30670287291667,53.0,70.0
450,110.18136641458335,111.64699922708334,38.0,78.0
451,110.58567891458334,111.64868386250001,45.0,66.0
452,111.59646016458335,111.88621745625001,53.0,69.0
453,111.19214766458335,111.94854896666668,60.0,74.0
454,112.20292891458334,112.33601511250001,53.0,72.0
455,112.40508516458334,112.69147318541668,53.0,77.0
456,111.79861641458335,113.00818464375001,38.0,80.0
457,112.00077266458335,113.01660782083334,45.0,67.0
458,112.40508516458334,113.29457266458334,62.0,79.0
459,113.01155391458335,113.30804974791668,53.0,75.0
460,113.21371016458335,113.43102813333334,57.0,65.0
461,113.82017891458335,113.92294167500002,53.0,72.0
462,114.02233516458335,114.70461250833334,58.0,72.0
463,113.41586641458335,114.87981459166667,46.0,79.0
464,114.62880391458334,115.04322422708334,53.0,66.0
465,114.83096016458335,115.14093308125001,62.0,74.0
466,115.23527266458335,115.46101381041667,53.0,71.0
467,115.43742891458335,115.57051511250002,58.0,59.0
468,115.63958516458335,116.01862813333335,53.0,83.0
469,115.03311641458335,116.25447709166667,46.0,85.0
470,116.24605391458334,116.32523177916669,53.0,70.0
471,116.24605391458334,116.5307573,58.0,73.0
472,116.44821016458334,116.60825052916668,53.0,76.0
473,117.25683516458335,117.67125547708335,50.0,83.0
474,117.05467891458335,118.05198308125001,45.0,70.0
475,116.65036641458335,118.07219870625,38.0,82.0
476,117.86330391458334,118.17327683125,50.0,73.0
477,118.06546016458334,118.24908542500002,53.0,71.0
478,117.66114766458335,118.32489401875002,62.0,77.0
479,118.67192891458335,118.97684792500002,55.0,78.0
480,118.87408516458335,119.36094480000001,64.0,80.0
481,119.27839766458334,119.52603907083335,60.0,73.0
482,119.48055391458334,119.78715756041667,55.0,73.0
483,119.68271016458334,119.84106589375001,60.0,71.0
484,118.46977266458335,119.91013594583335,43.0,66.0
485,118.26761641458334,119.94045938333335,36.0,78.0
486,120.49133516458335,120.87543203958334,53.0,78.0
487,120.49133516458335,121.12475808125001,60.0,74.0
488,119.88486641458334,121.29827552916667,41.0,79.0
489,120.28917891458335,121.31680651875001,48.0,71.0
490,121.09780391458335,121.41451537291668,53.0,78.0
491,121.29996016458334,121.92832917500002,60.0,75.0
492,121.70427266458334,122.22145573750001,48.0,70.0
493,121.50211641458334,122.25177917500001,41.0,78.0
494,121.90642891458334,122.31074141458335,53.0,79.0
495,122.10858516458335,122.80602422708334,60.0,79.0
496,122.31074141458335,122.95595677916668,36.0,80.0
497,122.71505391458335,123.01997292500002,53.0,78.0
498,122.91721016458334,123.28614532083334,60.0,74.0
499,123.72583516458334,124.24470287291668,53.0,70.0
500,123.11936641458334,124.58499922708334,38.0,78.0
501,123.52367891458334,124.58668386250001,45.0,66.0
502,124.53446016458335,124.82421745625001,53.0,69.0
503,124.13014766458335,124.88654896666668,60.0,74.0
504,125.14092891458334,125.27401511250001,53.0,72.0
505,125.34308516458334,125.62947318541669,53.0,77.0
506,124.73661641458335,125.94618464375002,38.0,80.0
507,124.93877266458335,125.95460782083335,45.0,67.0
508,125.34308516458334,126.23257266458334,62.0,79.0
509,125.94955391458335,126.24604974791669,53.0,75.0
510,126.15171016458335,126.36902813333334,57.0,65.0
511,126.75817891458334,126.860941675,53.0,72.0
512,126.96033516458334,127.64261250833334,58.0,72.0
513,126.35386641458334,127.81781459166668,46.0,79.0
514,127.56680391458335,127.98122422708335,53.0,66.0
515,127.76896016458335,128.07893308125,62.0,74.0
516,128.17327266458335,128.39901381041668,53.0,71.0
517,128.37542891458335,128.50851511250002,58.0,59.0
518,128.57758516458335,128.95662813333334,53.0,83.0
519,127.97111641458335,129.1924770916667,46.0,85.0
520,129.18405391458333,129.2632317791667,53.0,70.0
521,129.18405391458333,129.46875730000002,58.0,73.0
522,129.38621016458336,129.54625052916668,53.0,76.0
523,130.19483516458334,130.60925547708334,50.0,83.0
524,129.99267891458334,130.98998308125002,45.0,70.0
525,129.58836641458333,131.01019870625,38.0,82.0
526,130.80130391458334,131.11127683125,50.0,73.0
527,131.00346016458334,131.18708542500002,53.0,71.0
528,130.59914766458334,131.26289401875002,62.0,77.0
529,131.60992891458335,131.914847925,55.0,78.0
530,131.81208516458335,132.29894480000002,64.0,80.0
531,132.21639766458335,132.46403907083334,60.0,73.0
532,132.41855391458336,132.72515756041668,55.0,73.0
533,132.62071016458333,132.77906589375002,60.0,71.0
534,131.40777266458335,132.84813594583335,43.0,66.0
535,131.20561641458335,132.87845938333334,36.0,78.0
536,132.82286641458336,133.05366146666668,57.0,71.0
537,132.82286641458336,133.14631641458334,62.0,74.0
538,133.22717891458333,133.47482032083335,57.0,79.0
539,133.42933516458334,134.02232683125,65.0,78.0
540,133.02502266458333,134.25312188333334,45.0,62.0
541,132.82286641458336,134.28007605000002,38.0,80.0
542,134.03580391458334,134.53782526875,62.0,81.0
543,134.23796016458334,134.61363386250002,57.0,74.0
544,134.84442891458335,135.1291323,57.0,80.0
545,134.64227266458334,135.39698933125,45.0,67.0
546,134.44011641458334,135.41383568541667,38.0,81.0
547,135.04658516458335,135.51322917500002,65.0,78.0
548,135.45089766458335,135.67158490416668,62.0,76.0
549,135.65305391458335,136.05062787291666,57.0,79.0
550,136.05736641458336,136.48020990416668,62.0,74.0
551,136.46167891458333,136.7362744875,53.0,70.0
552,136.66383516458333,137.02940105000002,58.0,81.0
553,136.05736641458336,137.32926615416667,46.0,78.0
554,137.06814766458334,137.52299922708335,62.0,79.0
555,137.27030391458334,137.57522292500002,53.0,72.0
556,137.47246016458334,137.87340339375,58.0,80.0
557,137.87677266458334,138.18169167500002,53.0,73.0
558,138.07892891458334,138.23391537291667,58.0,67.0
559,137.67461641458334,138.6685513104167,46.0,83.0
560,138.28108516458335,138.71066719583334,62.0,79.0
561,138.68539766458335,138.88250000833335,58.0,77.0
562,138.88755391458335,138.97852422708334,53.0,78.0
563,139.29186641458335,139.52097683125,57.0,64.0
564,139.29186641458335,139.78377995625002,62.0,72.0
565,139.69617891458336,139.84442683125002,57.0,78.0
566,139.89833516458333,140.29253985208334,65.0,78.0
567,140.30264766458333,140.54186589375,62.0,72.0
568,139.49402266458335,140.74907605,45.0,65.0
569,139.29186641458335,140.76760703958334,38.0,80.0
570,140.50480391458333,140.78276875833336,57.0,74.0
571,140.90911641458334,141.10790339375,57.0,76.0
572,140.90911641458334,141.38081433125,62.0,74.0
573,141.31342891458334,141.42124558125002,57.0,78.0
574,141.51558516458334,141.80028855,57.0,76.0
575,141.51558516458334,141.91147448750002,65.0,74.0
576,141.91989766458335,142.1540619875,62.0,72.0
577,140.90911641458334,142.21302422708334,38.0,80.0
578,141.11127266458334,142.22650131041667,45.0,69.0
579,142.12205391458335,142.33431797708334,57.0,79.0
580,142.32421016458335,142.52131250833335,62.0,73.0
581,142.72852266458335,142.94415599791668,53.0,79.0
582,142.93067891458335,143.12272735208336,58.0,70.0
583,143.13283516458335,143.48660860208335,53.0,78.0
584,143.53714766458336,143.72582683125,62.0,78.0
585,142.52636641458335,143.91955990416668,46.0,79.0
586,143.73930391458333,143.98189141458334,53.0,78.0
587,144.14361641458333,144.79388568541668,53.0,73.0
588,144.14361641458333,144.87980209166668,58.0,73.0
589,144.14361641458333,145.30433021666667,46.0,80.0
590,145.76086641458335,146.18876381041667,57.0,60.0
591,145.76086641458335,146.45325157083334,53.0,59.0
592,146.16517891458335,146.66720026875,48.0,48.0
593,146.56949141458335,146.84914089375002,65.0,59.0
594,146.56949141458335,146.85082552916668,57.0,64.0
595,146.56949141458335,146.87777969583334,60.0,61.0
596,146.97380391458336,147.12710573750002,48.0,46.0
597,145.76086641458335,147.25345339375002,41.0,60.0
598,147.17596016458333,147.41854766458334,53.0,60.0
599,147.17596016458333,147.54994922708335,57.0,61.0
600,147.17596016458333,147.60385756041669,60.0,61.0
601,147.17596016458333,147.6324963625,65.0,60.0
602,147.98458516458334,148.08229401875002,53.0,56.0
603,147.78242891458333,148.22380339375002,48.0,59.0
604,148.18674141458334,148.3518356854167,57.0,74.0
605,148.18674141458334,148.35857422708335,53.0,60.0
606,148.18674141458334,148.38889766458334,60.0,65.0
607,147.58027266458333,148.46639089375,41.0,57.0
608,148.38889766458334,148.51524532083334,48.0,57.0
609,148.59105391458334,148.73930183125,41.0,59.0
610,148.99536641458334,149.2093151125,55.0,59.0
611,148.99536641458334,149.33903203958334,60.0,58.0
612,149.39967891458335,149.4485333416667,55.0,45.0
613,148.99536641458334,149.95392396666668,48.0,74.0
614,149.80399141458335,149.96234714375,55.0,69.0
615,149.80399141458335,149.9893013104167,64.0,67.0
616,150.41046016458336,150.57050052916668,55.0,61.0
617,150.41046016458336,150.59071615416667,60.0,65.0
618,150.81477266458336,150.83835756041668,65.0,38.0
619,150.81477266458336,150.9647052166667,55.0,65.0
620,150.81477266458336,151.31679401875002,43.0,52.0
621,151.21908516458333,151.32016328958335,55.0,63.0
622,151.42124141458333,151.59644349791668,55.0,72.0
623,151.42124141458333,151.60823594583334,60.0,72.0
624,151.42124141458333,151.64529792500002,64.0,65.0
625,151.62339766458334,151.70931407083333,48.0,67.0
626,151.82555391458334,151.93000131041669,55.0,60.0
627,152.22986641458334,152.43707657083334,62.0,59.0
628,152.22986641458334,152.48256172708335,58.0,54.0
629,152.22986641458334,152.50783125833334,55.0,58.0
630,152.63417891458334,153.0216450604167,50.0,30.0
631,153.03849141458335,153.19853177916667,55.0,63.0
632,153.03849141458335,153.22043203958333,62.0,65.0
633,153.03849141458335,153.22380131041666,58.0,67.0
634,153.03849141458335,153.24233230000002,67.0,56.0
635,153.44280391458335,153.51692787291668,55.0,53.0
636,153.24064766458335,153.67359896666667,50.0,51.0
637,152.22986641458334,153.70560703958336,43.0,60.0
638,153.64496016458335,154.01052605,58.0,62.0
639,153.64496016458335,154.01221068541668,55.0,59.0
640,153.64496016458335,154.03242631041667,62.0,61.0
641,154.25142891458336,154.34576849791668,55.0,58.0
642,154.04927266458333,154.52602448750002,50.0,58.0
643,154.45358516458333,154.67764167500002,55.0,63.0
644,154.45358516458333,154.67764167500002,62.0,65.0
645,154.45358516458333,154.68943412291668,58.0,74.0
646,154.65574141458333,154.80398933125002,50.0,51.0
647,154.85789766458333,154.99603776875,55.0,59.0
648,154.85789766458333,155.03309974791668,62.0,62.0
649,154.85789766458333,155.041522925,58.0,62.0
650,153.84711641458335,155.1021698,43.0,59.0
651,155.06005391458334,155.14765495625,50.0,58.0
652,155.26221016458334,155.34812657083336,53.0,42.0
653,155.46436641458334,155.68336901875,53.0,59.0
654,155.46436641458334,155.85183256041668,58.0,63.0
655,155.46436641458334,155.85520183125,62.0,59.0
656,155.46436641458334,156.17191328958336,46.0,74.0
657,156.07083516458334,156.18707500833335,53.0,63.0
658,156.07083516458334,156.2847838625,62.0,65.0
659,156.07083516458334,156.28815313333334,58.0,72.0
660,156.47514766458335,156.83734427916667,53.0,59.0
661,156.67730391458335,156.91483750833333,58.0,69.0
662,156.87946016458335,156.98559219583333,62.0,60.0
663,157.08161641458335,157.32925782083333,55.0,58.0
664,157.08161641458335,157.4471823,60.0,65.0
665,157.48592891458333,157.55668360208335,55.0,58.0
666,157.08161641458335,157.77400157083335,48.0,72.0
667,157.68808516458336,157.91214167500002,55.0,72.0
668,157.68808516458336,157.91551094583335,64.0,64.0
669,157.68808516458336,157.92393412291668,60.0,74.0
670,157.89024141458333,158.01153516458334,48.0,57.0
671,158.09239766458336,158.195160425,55.0,62.0
672,158.09239766458336,158.24401485208335,60.0,67.0
673,158.69886641458334,159.18572605,57.0,58.0
674,158.69886641458334,159.19583386250002,60.0,59.0
675,158.69886641458334,159.20931094583335,53.0,58.0
676,159.10317891458334,159.59003855,48.0,52.0
677,159.50749141458334,159.82588750833335,65.0,57.0
678,159.50749141458334,159.84778776875,57.0,63.0
679,159.50749141458334,159.85621094583334,60.0,60.0
680,159.50749141458334,159.8797958416667,53.0,56.0
681,158.69886641458334,159.99940495625,41.0,62.0
682,159.91180391458334,160.08026745625,48.0,44.0
683,160.11396016458335,160.5300651125,53.0,58.0
684,160.11396016458335,160.62608933125,57.0,59.0
685,160.11396016458335,160.6311432375,60.0,60.0
686,160.92258516458332,161.227504175,53.0,59.0
687,160.72042891458335,161.39259844583336,48.0,58.0
688,161.32689766458333,161.51220756041667,53.0,60.0
689,161.32689766458333,161.54758490416668,57.0,64.0
690,161.32689766458333,161.57959297708334,60.0,65.0
691,161.32689766458333,161.591385425,65.0,58.0
692,160.51827266458335,161.63687058125,41.0,59.0
693,161.52905391458336,161.64023985208334,48.0,60.0
694,161.93336641458333,162.15405365416666,55.0,58.0
695,161.93336641458333,162.30061693541668,60.0,59.0
696,162.33767891458334,162.39327188333334,55.0,41.0
697,161.93336641458333,162.59037422708334,48.0,67.0
698,162.53983516458334,162.77905339375002,60.0,64.0
699,162.53983516458334,162.78579193541668,55.0,60.0
700,162.53983516458334,162.79253047708335,64.0,65.0
701,162.94414766458334,163.17157344583333,55.0,64.0
702,162.94414766458334,163.23390495625,60.0,67.0
703,162.94414766458334,163.24064349791666,64.0,64.0
704,163.34846016458334,163.60957865416668,43.0,58.0
705,163.55061641458335,163.80836563333335,55.0,62.0
706,163.55061641458335,163.89428203958335,60.0,61.0
707,163.55061641458335,163.91955157083333,64.0,61.0
708,163.95492891458335,164.01389115416669,55.0,50.0
709,164.15708516458335,164.36092605000002,60.0,75.0
710,164.15708516458335,164.38956485208334,55.0,64.0
711,164.15708516458335,164.42157292500002,64.0,72.0
712,164.56139766458335,164.6860606854167,55.0,63.0
713,163.55061641458335,164.72649193541668,48.0,84.0
714,164.56139766458335,164.866316675,60.0,69.0
715,164.96571016458336,165.09374245625,55.0,51.0
716,165.16786641458333,165.44077735208333,53.0,59.0
717,165.16786641458333,165.59239453958332,58.0,53.0
718,165.57217891458333,165.65977995625002,53.0,51.0
719,165.77433516458333,165.98996849791666,53.0,60.0
720,165.77433516458333,166.00344558125,58.0,69.0
721,165.77433516458333,166.02029193541668,62.0,60.0
722,166.17864766458334,166.29488750833335,53.0,60.0
723,166.17864766458334,166.35216511250002,58.0,72.0
724,165.16786641458333,166.42291980000002,46.0,69.0
725,166.17864766458334,166.43134297708335,62.0,62.0
726,166.58296016458334,166.66382266458334,53.0,54.0
727,166.78511641458334,166.99738047708334,55.0,60.0
728,166.78511641458334,167.20459063333334,60.0,62.0
729,167.18942891458335,167.27197605,55.0,53.0
730,166.78511641458334,167.53646381041668,48.0,65.0
731,167.39158516458335,167.64428047708333,55.0,63.0
732,167.39158516458335,167.64764974791666,60.0,67.0
733,167.39158516458335,167.64764974791666,64.0,69.0
734,167.79589766458335,167.93740703958335,55.0,61.0
735,167.79589766458335,167.9812075604167,60.0,67.0
736,167.79589766458335,167.98963073750002,64.0,64.0
737,168.40236641458335,168.75782448750002,57.0,59.0
738,168.40236641458335,168.81847136250002,53.0,61.0
739,169.00883516458333,169.07958985208336,57.0,61.0
740,169.00883516458333,169.13855209166667,60.0,64.0
741,169.00883516458333,169.1419213625,53.0,60.0
742,169.61530391458334,169.81072162291667,60.0,63.0
743,169.61530391458334,169.81409089375,57.0,69.0
744,169.61530391458334,169.81746016458334,65.0,59.0
745,169.61530391458334,169.85789141458335,53.0,59.0
746,168.40236641458335,169.88821485208334,41.0,61.0
747,170.01961641458334,170.18302605000002,41.0,35.0
748,170.01961641458334,170.22851120625,48.0,52.0
749,170.22177266458334,170.39360547708333,53.0,63.0
750,170.62608516458334,170.79454870625,57.0,59.0
751,170.62608516458334,170.81813360208335,53.0,59.0
752,170.62608516458334,170.82655677916668,60.0,59.0
753,171.03039766458335,171.16011459166668,57.0,64.0
754,171.03039766458335,171.17190703958335,53.0,64.0
755,171.03039766458335,171.20223047708333,60.0,62.0
756,171.23255391458335,171.32352422708334,41.0,44.0
757,171.63686641458332,172.00411693541668,62.0,60.0
758,171.63686641458332,172.04117891458333,57.0,60.0
759,172.24333516458336,172.31914375833333,65.0,53.0
760,172.24333516458336,172.32419766458335,57.0,56.0
761,172.44549141458333,172.63080131041667,57.0,64.0
762,172.44549141458333,172.65944011250002,65.0,67.0
763,172.84980391458333,172.92729714375002,57.0,55.0
764,173.05196016458333,173.21536980000002,62.0,79.0
765,173.05196016458333,173.22716224791668,57.0,67.0
766,172.64764766458336,173.7915151125,45.0,49.0
767,171.63686641458332,173.87743151875,38.0,64.0
768,173.65842891458334,174.03747188333335,57.0,63.0
769,173.65842891458334,174.04926433125001,65.0,64.0
770,174.06274141458334,174.2665823,45.0,57.0
771,174.06274141458334,174.28511328958334,38.0,47.0
772,174.26489766458334,174.3575526125,62.0,65.0
773,174.26489766458334,174.38450677916666,57.0,65.0
774,174.87136641458335,175.16280834166668,53.0,59.0
775,174.87136641458335,175.19144714375,58.0,59.0
776,175.47783516458333,175.56880547708334,58.0,45.0
777,175.47783516458333,175.57217474791668,53.0,47.0
778,175.67999141458336,175.863616675,58.0,63.0
779,175.67999141458336,175.86698594583333,65.0,59.0
780,175.67999141458336,175.86867058125,53.0,60.0
781,174.87136641458335,176.38416901875001,46.0,60.0
782,176.28646016458333,176.53747084166667,53.0,59.0
783,176.28646016458333,176.57958672708332,58.0,62.0
784,176.28646016458333,176.74131172708334,62.0,59.0
785,176.69077266458333,176.79185078958335,53.0,62.0
786,176.89292891458334,176.95694506041667,58.0,41.0
787,177.29724141458334,177.4303276125,46.0,64.0
788,177.29724141458334,177.440435425,53.0,59.0
789,177.29724141458334,177.48760521666668,58.0,62.0
790,177.29724141458334,177.53309037291666,62.0,63.0
791,177.70155391458334,177.75546224791668,46.0,59.0
792,177.70155391458334,177.78241641458334,53.0,64.0
793,178.10586641458335,178.31139193541668,57.0,58.0
794,178.10586641458335,178.51523282083335,62.0,59.0
795,178.51017891458332,178.56745651875002,57.0,47.0
796,178.10586641458335,178.85384453958335,50.0,67.0
797,178.71233516458335,178.93470703958334,57.0,61.0
798,178.71233516458335,178.96503047708336,62.0,65.0
799,178.71233516458335,178.96503047708336,65.0,63.0
800,179.11664766458335,179.21604115416667,62.0,58.0
801,179.11664766458335,179.2362567791667,65.0,55.0
802,179.11664766458335,179.23962605000003,57.0,58.0
803,179.72311641458333,179.89326459166668,55.0,61.0
804,179.72311641458333,179.9235880291667,60.0,60.0
805,180.12742891458333,180.21334532083335,55.0,60.0
806,180.32958516458334,180.54184922708333,64.0,72.0
807,180.32958516458334,180.56543412291666,60.0,72.0
808,180.32958516458334,180.57891120625,55.0,72.0
809,179.92527266458336,180.82318334166666,43.0,57.0
810,180.73389766458334,180.84845287291665,55.0,64.0
811,180.73389766458334,180.91246901875002,60.0,74.0
812,179.72311641458333,181.20896485208334,36.0,59.0
813,180.93605391458334,181.25276537291666,43.0,51.0
814,181.13821016458334,181.31678151875002,55.0,64.0
815,181.34036641458334,181.6958244875,57.0,59.0
816,181.34036641458334,181.7564713625,53.0,61.0
817,181.94683516458332,182.01758985208335,57.0,61.0
818,181.94683516458332,182.07655209166666,60.0,64.0
819,181.94683516458332,182.0799213625,53.0,60.0
820,182.55330391458335,182.74872162291666,60.0,63.0
821,182.55330391458335,182.75209089375,57.0,69.0
822,182.55330391458335,182.75546016458333,65.0,59.0
823,182.55330391458335,182.79589141458334,53.0,59.0
824,181.34036641458334,182.82621485208335,41.0,61.0
825,182.95761641458336,183.12102605,41.0,35.0
826,182.95761641458336,183.16651120625,48.0,52.0
827,183.15977266458333,183.33160547708334,53.0,63.0
828,183.56408516458333,183.73254870625,57.0,59.0
829,183.56408516458333,183.75613360208334,53.0,59.0
830,183.56408516458333,183.76455677916667,60.0,59.0
831,183.96839766458334,184.09811459166667,57.0,64.0
832,183.96839766458334,184.10990703958333,53.0,64.0
833,183.96839766458334,184.14023047708332,60.0,62.0
834,184.17055391458334,184.26152422708333,41.0,44.0
835,184.57486641458334,184.94211693541666,62.0,60.0
836,184.57486641458334,184.97917891458334,57.0,60.0
837,185.18133516458334,185.25714375833334,65.0,53.0
838,185.18133516458334,185.26219766458334,57.0,56.0
839,185.38349141458335,185.5688013104167,57.0,64.0
840,185.38349141458335,185.5974401125,65.0,67.0
841,185.78780391458332,185.86529714375,57.0,55.0
842,185.98996016458335,186.1533698,62.0,79.0
843,185.98996016458335,186.16516224791667,57.0,67.0
844,185.58564766458335,186.7295151125,45.0,49.0
845,184.57486641458334,186.81543151875002,38.0,64.0
846,186.59642891458333,186.97547188333334,57.0,63.0
847,186.59642891458333,186.98726433125,65.0,64.0
848,187.00074141458333,187.20458230000003,45.0,57.0
849,187.00074141458333,187.22311328958335,38.0,47.0
850,187.20289766458336,187.2955526125,62.0,65.0
851,187.20289766458336,187.32250677916667,57.0,65.0
852,187.80936641458334,188.10080834166666,53.0,59.0
853,187.80936641458334,188.12944714375,58.0,59.0
854,188.41583516458334,188.50680547708333,58.0,45.0
855,188.41583516458334,188.51017474791666,53.0,47.0
856,188.61799141458334,188.801616675,58.0,63.0
857,188.61799141458334,188.80498594583332,65.0,59.0
858,188.61799141458334,188.80667058125,53.0,60.0
859,187.80936641458334,189.32216901875,46.0,60.0
860,189.22446016458332,189.47547084166666,53.0,59.0
861,189.22446016458332,189.51758672708334,58.0,62.0
862,189.22446016458332,189.67931172708336,62.0,59.0
863,189.62877266458332,189.72985078958334,53.0,62.0
864,189.83092891458335,189.89494506041666,58.0,41.0
865,190.23524141458336,190.36832761250002,46.0,64.0
866,190.23524141458336,190.37843542500002,53.0,59.0
867,190.23524141458336,190.42560521666667,58.0,62.0
868,190.23524141458336,190.47109037291668,62.0,63.0
869,190.63955391458336,190.69346224791667,46.0,59.0
870,190.63955391458336,190.72041641458333,53.0,64.0
871,191.04386641458333,191.24939193541667,57.0,58.0
872,191.04386641458333,191.45323282083334,62.0,59.0
873,191.44817891458334,191.50545651875,57.0,47.0
874,191.04386641458333,191.79184453958334,50.0,67.0
875,191.65033516458334,191.87270703958336,57.0,61.0
876,191.65033516458334,191.90303047708335,62.0,65.0
877,191.65033516458334,191.90303047708335,65.0,63.0
878,192.05464766458334,192.1540411541667,62.0,58.0
879,192.05464766458334,192.17425677916668,65.0,55.0
880,192.05464766458334,192.17762605000001,57.0,58.0
881,192.66111641458332,192.83126459166667,55.0,61.0
882,192.66111641458332,192.86158802916668,60.0,60.0
883,193.06542891458332,193.15134532083334,55.0,60.0
884,193.26758516458335,193.47984922708332,64.0,72.0
885,193.26758516458335,193.50343412291667,60.0,72.0
886,193.26758516458335,193.51691120625,55.0,72.0
887,192.86327266458335,193.76118334166668,43.0,57.0
888,193.67189766458335,193.78645287291667,55.0,64.0
889,193.67189766458335,193.85046901875,60.0,74.0
890,192.66111641458332,194.14696485208333,36.0,59.0
891,193.87405391458333,194.19076537291667,43.0,51.0
892,194.07621016458336,194.25478151875,55.0,64.0
893,195.08699141458334,196.11293438333334,65.0,58.0
894,195.08699141458334,196.16347344583335,60.0,62.0
895,195.08699141458334,196.16852735208334,57.0,59.0
896,195.08699141458334,196.2106432375,53.0,57.0
897,196.70424141458335,196.93335183125,53.0,65.0
898,196.70424141458335,196.95188282083333,60.0,64.0
899,197.10855391458335,197.40841901875,53.0,62.0
900,197.31071016458333,197.45053490416666,57.0,61.0
901,196.90639766458332,197.47243516458335,48.0,62.0
902,195.08699141458334,197.55161302916667,41.0,65.0
903,197.51286641458336,197.7268151125,55.0,59.0
904,197.51286641458336,197.85653203958333,60.0,58.0
905,197.91717891458336,197.96603334166667,55.0,45.0
906,197.51286641458336,198.4714239666667,48.0,74.0
907,198.32149141458333,198.47984714375002,55.0,69.0
908,198.32149141458333,198.50680131041668,64.0,67.0
909,198.92796016458334,199.08800052916666,55.0,61.0
910,198.92796016458334,199.10821615416666,60.0,65.0
911,199.33227266458334,199.35585756041667,65.0,38.0
912,199.33227266458334,199.48220521666667,55.0,65.0
913,199.33227266458334,199.83429401875,43.0,52.0
914,199.73658516458335,199.83766328958333,55.0,63.0
915,199.93874141458332,200.11394349791667,55.0,72.0
916,199.93874141458332,200.12573594583336,60.0,72.0
917,199.93874141458332,200.162797925,64.0,65.0
918,200.14089766458335,200.22681407083334,48.0,67.0
919,200.34305391458332,200.44750131041667,55.0,60.0
920,200.74736641458333,200.95457657083335,62.0,59.0
921,200.74736641458333,201.00006172708333,58.0,54.0
922,200.74736641458333,201.02533125833332,55.0,58.0
923,201.15167891458333,201.53914506041667,50.0,30.0
924,201.55599141458333,201.71603177916666,55.0,63.0
925,201.55599141458333,201.73793203958334,62.0,65.0
926,201.55599141458333,201.74130131041667,58.0,67.0
927,201.55599141458333,201.7598323,67.0,56.0
928,201.96030391458333,202.03442787291667,55.0,53.0
929,201.75814766458333,202.1910989666667,50.0,51.0
930,200.74736641458333,202.22310703958334,43.0,60.0
931,202.16246016458334,202.52802605,58.0,62.0
932,202.16246016458334,202.52971068541666,55.0,59.0
933,202.16246016458334,202.54992631041665,62.0,61.0
934,202.76892891458334,202.8632684979167,55.0,58.0
935,202.56677266458334,203.0435244875,50.0,58.0
936,202.97108516458334,203.195141675,55.0,63.0
937,202.97108516458334,203.195141675,62.0,65.0
938,202.97108516458334,203.20693412291666,58.0,74.0
939,203.17324141458334,203.32148933125,50.0,51.0
940,203.37539766458332,203.51353776874998,55.0,59.0
941,203.37539766458332,203.5505997479167,62.0,62.0
942,203.37539766458332,203.55902292500002,58.0,62.0
943,202.36461641458334,203.6196698,43.0,59.0
944,203.57755391458335,203.66515495625,50.0,58.0
945,203.77971016458332,203.86562657083334,53.0,42.0
946,203.98186641458335,204.20086901875,53.0,59.0
947,203.98186641458335,204.36933256041667,58.0,63.0
948,203.98186641458335,204.37270183125003,62.0,59.0
949,203.98186641458335,204.68941328958334,46.0,74.0
950,204.58833516458333,204.70457500833334,53.0,63.0
951,204.58833516458333,204.80228386250002,62.0,65.0
952,204.58833516458333,204.80565313333335,58.0,72.0
953,204.99264766458333,205.35484427916668,53.0,59.0
954,205.19480391458333,205.43233750833332,58.0,69.0
955,205.39696016458333,205.50309219583335,62.0,60.0
956,205.59911641458334,205.84675782083332,55.0,58.0
957,205.59911641458334,205.9646823,60.0,65.0
958,206.00342891458334,206.07418360208334,55.0,58.0
959,205.59911641458334,206.29150157083333,48.0,72.0
960,206.20558516458334,206.429641675,55.0,72.0
961,206.20558516458334,206.43301094583336,64.0,64.0
962,206.20558516458334,206.4414341229167,60.0,74.0
963,206.40774141458334,206.52903516458332,48.0,57.0
964,206.60989766458334,206.71266042500002,55.0,62.0
965,206.60989766458334,206.76151485208334,60.0,67.0
966,207.21636641458332,207.70322605,57.0,58.0
967,207.21636641458332,207.7133338625,60.0,59.0
968,207.21636641458332,207.72681094583334,53.0,58.0
969,207.62067891458332,208.10753855000002,48.0,52.0
970,208.02499141458333,208.34338750833334,65.0,57.0
971,208.02499141458333,208.36528776875002,57.0,63.0
972,208.02499141458333,208.37371094583335,60.0,60.0
973,208.02499141458333,208.39729584166668,53.0,56.0
974,207.21636641458332,208.51690495625002,41.0,62.0
975,208.42930391458333,208.59776745625,48.0,44.0
976,208.63146016458336,209.04756511250002,53.0,58.0
977,208.63146016458336,209.14358933124998,57.0,59.0
978,208.63146016458336,209.1486432375,60.0,60.0
979,209.44008516458334,209.74500417500002,53.0,59.0
980,209.23792891458334,209.91009844583334,48.0,58.0
981,209.84439766458334,210.02970756041668,53.0,60.0
982,209.84439766458334,210.06508490416667,57.0,64.0
983,209.84439766458334,210.09709297708332,60.0,65.0
984,209.84439766458334,210.108885425,65.0,58.0
985,209.03577266458333,210.15437058125002,41.0,59.0
986,210.04655391458334,210.15773985208335,48.0,60.0
987,210.45086641458334,210.67155365416667,55.0,58.0
988,210.45086641458334,210.81811693541667,60.0,59.0
989,210.85517891458335,210.91077188333333,55.0,41.0
990,210.45086641458334,211.10787422708336,48.0,67.0
991,211.05733516458332,211.29655339375,60.0,64.0
992,211.05733516458332,211.30329193541667,55.0,60.0
993,211.05733516458332,211.31003047708333,64.0,65.0
994,211.46164766458332,211.68907344583334,55.0,64.0
995,211.46164766458332,211.75140495624998,60.0,67.0
996,211.46164766458332,211.75814349791668,64.0,64.0
997,211.86596016458333,212.12707865416667,43.0,58.0
998,212.06811641458336,212.32586563333334,55.0,62.0
999,212.06811641458336,212.41178203958333,60.0,61.0
1000,212.06811641458336,212.43705157083332,64.0,61.0
1001,212.47242891458333,212.53139115416667,55.0,50.0
1002,212.67458516458333,212.87842605,60.0,75.0
1003,212.67458516458333,212.90706485208335,55.0,64.0
1004,212.67458516458333,212.939072925,64.0,72.0
1005,213.07889766458334,213.20356068541668,55.0,63.0
1006,212.06811641458336,213.24399193541666,48.0,84.0
1007,213.07889766458334,213.383816675,60.0,69.0
1008,213.48321016458334,213.61124245625,55.0,51.0
1009,213.68536641458334,213.95827735208334,53.0,59.0
1010,213.68536641458334,214.10989453958334,58.0,53.0
1011,214.08967891458332,214.17727995625,53.0,51.0
1012,214.29183516458335,214.50746849791668,53.0,60.0
1013,214.29183516458335,214.52094558125,58.0,69.0
1014,214.29183516458335,214.5377919354167,62.0,60.0
1015,214.69614766458335,214.81238750833336,53.0,60.0
1016,214.69614766458335,214.8696651125,58.0,72.0
1017,213.68536641458334,214.9404198,46.0,69.0
1018,214.69614766458335,214.94884297708333,62.0,62.0
1019,215.10046016458335,215.18132266458332,53.0,54.0
1020,215.30261641458333,215.51488047708335,55.0,60.0
1021,215.30261641458333,215.72209063333332,60.0,62.0
1022,215.70692891458333,215.78947605000002,55.0,53.0
1023,215.30261641458333,216.0539638104167,48.0,65.0
1024,215.90908516458333,216.16178047708334,55.0,63.0
1025,215.90908516458333,216.16514974791667,60.0,67.0
1026,215.90908516458333,216.16514974791667,64.0,69.0
1027,216.31339766458333,216.45490703958333,55.0,61.0
1028,216.31339766458333,216.49870756041668,60.0,67.0
1029,216.31339766458333,216.5071307375,64.0,64.0
1030,216.91986641458334,217.17930026875,57.0,59.0
1031,216.91986641458334,217.35113308125,62.0,61.0
1032,217.52633516458334,217.61730547708333,57.0,46.0
1033,217.72849141458335,217.91717058125,57.0,63.0
1034,217.72849141458335,218.12943464375002,62.0,72.0
1035,217.72849141458335,218.14628099791668,65.0,65.0
1036,218.13280391458335,218.17155052916667,57.0,41.0
1037,216.91986641458334,218.28779037291667,38.0,67.0
1038,218.33496016458332,218.5893401125,57.0,63.0
1039,218.33496016458332,218.79655026875002,62.0,64.0
1040,218.33496016458332,218.82013516458335,65.0,64.0
1041,218.73927266458332,218.9936526125,57.0,64.0
1042,218.94142891458335,219.22276302916669,65.0,65.0
1043,218.33496016458332,219.26993282083333,38.0,69.0
1044,219.34574141458336,219.4906200604167,38.0,67.0
1045,219.34574141458336,219.56811328958332,62.0,67.0
1046,219.54789766458333,220.09371953958333,64.0,74.0
1047,219.54789766458333,220.1257276125,40.0,67.0
1048,220.15436641458334,220.5822638104167,57.0,60.0
1049,220.15436641458334,220.84675157083333,53.0,59.0
1050,220.55867891458334,221.06070026875,48.0,48.0
1051,220.96299141458334,221.24264089375,65.0,59.0
1052,220.96299141458334,221.24432552916667,57.0,64.0
1053,220.96299141458334,221.27127969583336,60.0,61.0
1054,221.36730391458332,221.5206057375,48.0,46.0
1055,220.15436641458334,221.64695339375,41.0,60.0
1056,221.56946016458335,221.81204766458333,53.0,60.0
1057,221.56946016458335,221.94344922708333,57.0,61.0
1058,221.56946016458335,221.99735756041667,60.0,61.0
1059,221.56946016458335,222.0259963625,65.0,60.0
1060,222.37808516458335,222.47579401875,53.0,56.0
1061,222.17592891458332,222.61730339375,48.0,59.0
1062,222.58024141458333,222.74533568541668,57.0,74.0
1063,222.58024141458333,222.75207422708334,53.0,60.0
1064,222.58024141458333,222.78239766458336,60.0,65.0
1065,221.97377266458335,222.85989089375,41.0,57.0
1066,222.78239766458336,222.90874532083333,48.0,57.0
1067,222.98455391458333,223.13280183125,41.0,59.0
1068,223.38886641458333,223.6028151125,55.0,59.0
1069,223.38886641458333,223.73253203958333,60.0,58.0
1070,223.79317891458334,223.84203334166665,55.0,45.0
1071,223.38886641458333,224.34742396666667,48.0,74.0
1072,224.19749141458334,224.35584714375,55.0,69.0
1073,224.19749141458334,224.38280131041665,64.0,67.0
1074,224.80396016458332,224.96400052916667,55.0,61.0
1075,224.80396016458332,224.9842161541667,60.0,65.0
1076,225.20827266458332,225.23185756041667,65.0,38.0
1077,225.20827266458332,225.35820521666668,55.0,65.0
1078,225.20827266458332,225.71029401875,43.0,52.0
1079,225.61258516458332,225.71366328958334,55.0,63.0
1080,225.81474141458335,225.98994349791667,55.0,72.0
1081,225.81474141458335,226.00173594583333,60.0,72.0
1082,225.81474141458335,226.03879792499998,64.0,65.0
1083,226.01689766458333,226.10281407083335,48.0,67.0
1084,226.21905391458336,226.32350131041667,55.0,60.0
1085,226.62336641458333,226.83057657083333,62.0,59.0
1086,226.62336641458333,226.87606172708334,58.0,54.0
1087,226.62336641458333,226.90133125833336,55.0,58.0
1088,227.02767891458333,227.41514506041668,50.0,30.0
1089,227.43199141458334,227.5920317791667,55.0,63.0
1090,227.43199141458334,227.61393203958335,62.0,65.0
1091,227.43199141458334,227.61730131041668,58.0,67.0
1092,227.43199141458334,227.6358323,67.0,56.0
1093,227.83630391458334,227.91042787291667,55.0,53.0
1094,227.63414766458334,228.06709896666666,50.0,51.0
1095,226.62336641458333,228.09910703958332,43.0,60.0
1096,228.03846016458334,228.40402605,58.0,62.0
1097,228.03846016458334,228.40571068541666,55.0,59.0
1098,228.03846016458334,228.42592631041668,62.0,61.0
1099,228.64492891458332,228.73926849791667,55.0,58.0
1100,228.44277266458334,228.91952448749998,50.0,58.0
1101,228.84708516458335,229.071141675,55.0,63.0
1102,228.84708516458335,229.071141675,62.0,65.0
1103,228.84708516458335,229.08293412291667,58.0,74.0
1104,229.04924141458332,229.19748933124998,50.0,51.0
1105,229.25139766458335,229.38953776875002,55.0,59.0
1106,229.25139766458335,229.42659974791667,62.0,62.0
1107,229.25139766458335,229.435022925,58.0,62.0
1108,228.24061641458334,229.4956698,43.0,59.0
1109,229.45355391458332,229.54115495625,50.0,58.0
1110,229.65571016458335,229.74162657083332,53.0,42.0
1111,229.85786641458333,230.07686901875002,53.0,59.0
1112,229.85786641458333,230.24533256041667,58.0,63.0
1113,229.85786641458333,230.24870183125,62.0,59.0
1114,229.85786641458333,230.56541328958332,46.0,74.0
1115,230.46433516458333,230.58057500833334,53.0,63.0
1116,230.46433516458333,230.6782838625,62.0,65.0
1117,230.46433516458333,230.68165313333333,58.0,72.0
1118,230.86864766458334,231.23084427916666,53.0,59.0
1119,231.07080391458334,231.30833750833335,58.0,69.0
1120,231.27296016458334,231.37909219583332,62.0,60.0
1121,231.47511641458334,231.72275782083335,55.0,58.0
1122,231.47511641458334,231.8406823,60.0,65.0
1123,231.87942891458334,231.95018360208334,55.0,58.0
1124,231.47511641458334,232.16750157083334,48.0,72.0
1125,232.08158516458332,232.305641675,55.0,72.0
1126,232.08158516458332,232.30901094583334,64.0,64.0
1127,232.08158516458332,232.31743412291667,60.0,74.0
1128,232.28374141458335,232.40503516458335,48.0,57.0
1129,232.48589766458332,232.588660425,55.0,62.0
1130,232.48589766458332,232.63751485208334,60.0,67.0
1131,233.09236641458335,233.57922605,57.0,58.0
1132,233.09236641458335,233.58933386249998,60.0,59.0
1133,233.09236641458335,233.60281094583334,53.0,58.0
1134,233.49667891458336,233.98353855,48.0,52.0
1135,233.90099141458333,234.21938750833334,65.0,57.0
1136,233.90099141458333,234.24128776875,57.0,63.0
1137,233.90099141458333,234.24971094583333,60.0,60.0
1138,233.90099141458333,234.27329584166665,53.0,56.0
1139,233.09236641458335,234.39290495625,41.0,62.0
1140,234.30530391458333,234.47376745625002,48.0,44.0
1141,234.50746016458334,234.9235651125,53.0,58.0
1142,234.50746016458334,235.01958933125002,57.0,59.0
1143,234.50746016458334,235.02464323750002,60.0,60.0
1144,235.31608516458334,235.621004175,53.0,59.0
1145,235.11392891458334,235.78609844583332,48.0,58.0
1146,235.72039766458334,235.90570756041666,53.0,60.0
1147,235.72039766458334,235.94108490416667,57.0,64.0
1148,235.72039766458334,235.97309297708335,60.0,65.0
1149,235.72039766458334,235.98488542500002,65.0,58.0
1150,234.91177266458334,236.03037058125,41.0,59.0
1151,235.92255391458332,236.03373985208333,48.0,60.0
1152,236.32686641458332,236.54755365416668,55.0,58.0
1153,236.32686641458332,236.69411693541667,60.0,59.0
1154,236.73117891458332,236.78677188333336,55.0,41.0
1155,236.32686641458332,236.98387422708333,48.0,67.0
1156,236.93333516458335,237.17255339374998,60.0,64.0
1157,236.93333516458335,237.17929193541664,55.0,60.0
1158,236.93333516458335,237.18603047708336,64.0,65.0
1159,237.33764766458336,237.56507344583332,55.0,64.0
1160,237.33764766458336,237.62740495625002,60.0,67.0
1161,237.33764766458336,237.63414349791668,64.0,64.0
1162,237.74196016458336,238.00307865416664,43.0,58.0
1163,237.94411641458333,238.20186563333334,55.0,62.0
1164,237.94411641458333,238.28778203958336,60.0,61.0
1165,237.94411641458333,238.31305157083335,64.0,61.0
1166,238.34842891458334,238.40739115416665,55.0,50.0
1167,238.5505851645833,238.75442605,60.0,75.0
1168,238.5505851645833,238.78306485208333,55.0,64.0
1169,238.5505851645833,238.81507292499998,64.0,72.0
1170,238.9548976645833,239.07956068541665,55.0,63.0
1171,237.94411641458333,239.1199919354167,48.0,84.0
1172,238.9548976645833,239.25981667500002,60.0,69.0
1173,239.35921016458332,239.48724245625,55.0,51.0
1174,239.56136641458335,239.83427735208335,53.0,59.0
1175,239.56136641458335,239.98589453958334,58.0,53.0
1176,239.96567891458335,240.05327995624998,53.0,51.0
1177,240.16783516458332,240.38346849791668,53.0,60.0
1178,240.16783516458332,240.39694558125,58.0,69.0
1179,240.16783516458332,240.41379193541667,62.0,60.0
1180,240.57214766458333,240.68838750833334,53.0,60.0
1181,240.57214766458333,240.74566511249998,58.0,72.0
1182,239.56136641458335,240.8164198,46.0,69.0
1183,240.57214766458333,240.82484297708334,62.0,62.0
1184,240.97646016458333,241.05732266458335,53.0,54.0
1185,241.17861641458336,241.39088047708333,55.0,60.0
1186,241.17861641458336,241.59809063333336,60.0,62.0
1187,241.58292891458336,241.66547605,55.0,53.0
1188,241.17861641458336,241.92996381041667,48.0,65.0
1189,241.78508516458334,242.03778047708334,55.0,63.0
1190,241.78508516458334,242.04114974791668,60.0,67.0
1191,241.78508516458334,242.04114974791668,64.0,69.0
1192,242.18939766458334,242.33090703958334,55.0,61.0
1193,242.18939766458334,242.37470756041665,60.0,67.0
1194,242.18939766458334,242.38313073749998,64.0,64.0
1195,242.79586641458332,243.29451849791667,62.0,56.0
1196,242.79586641458332,243.31136485208333,57.0,58.0
1197,243.60449141458332,243.94647240416668,65.0,59.0
1198,243.60449141458332,243.94984167500002,62.0,60.0
1199,243.60449141458332,243.95152631041668,57.0,58.0
1200,244.00880391458332,244.2833994875,45.0,30.0
1201,244.21096016458335,244.42153959166666,57.0,60.0
1202,244.21096016458335,244.57652604999998,62.0,60.0
1203,244.21096016458335,244.61021875833336,65.0,59.0
1204,244.61527266458336,244.7264586020833,57.0,46.0
1205,244.81742891458333,244.9302994875,62.0,47.0
1206,245.22174141458333,245.43569011250003,57.0,60.0
1207,245.22174141458333,245.69343933124998,62.0,61.0
1208,245.22174141458333,245.75745547708334,65.0,59.0
1209,245.62605391458334,245.80799453958332,57.0,44.0
1210,242.79586641458332,245.930972925,38.0,63.0
1211,246.03036641458334,246.33023151875,57.0,38.0
1212,246.03036641458334,246.44478672708334,62.0,48.0
1213,246.83899141458335,246.94680808125003,65.0,48.0
1214,246.83899141458335,246.95691589375002,57.0,49.0
1215,247.44546016458332,247.59033881041665,57.0,41.0
1216,247.44546016458332,247.62403151875003,62.0,46.0
1217,248.45624141458336,248.59943542500002,62.0,59.0
1218,248.45624141458336,248.66176693541667,57.0,54.0
1219,246.03036641458334,248.93973177916666,38.0,59.0
1220,248.86055391458336,249.24970469583332,60.0,46.0
1221,249.2648664145833,249.59000105,53.0,47.0
1222,249.2648664145833,249.6877099041667,62.0,47.0
1223,249.2648664145833,249.72814115416668,58.0,50.0
1224,250.07349141458332,250.2874401125,58.0,43.0
1225,250.07349141458332,250.38683360208336,65.0,58.0
1226,250.47780391458332,250.57888203958333,53.0,43.0
1227,250.67996016458335,250.90570131041665,62.0,49.0
1228,251.08427266458335,251.20725105000002,58.0,44.0
1229,251.28642891458333,251.41109193541666,53.0,46.0
1230,251.69074141458333,251.78845026875,53.0,51.0
1231,251.69074141458333,251.82719688333333,58.0,51.0
1232,251.69074141458333,251.8962669354167,62.0,55.0
1233,249.2648664145833,252.07820756041667,46.0,62.0
1234,252.49936641458333,252.71668438333336,57.0,45.0
1235,252.49936641458333,252.7537463625,53.0,42.0
1236,253.30799141458334,253.48656276875,65.0,58.0
1237,253.51014766458331,253.63312605,60.0,19.0
1238,253.71230391458334,253.83022839375002,53.0,47.0
1239,253.91446016458332,254.09303151875002,60.0,48.0
1240,254.31877266458332,254.47038985208331,57.0,52.0
1241,252.49936641458333,254.56641407083333,41.0,52.0
1242,254.52092891458335,254.64896120625002,53.0,50.0
1243,254.92524141458335,255.04653516458336,57.0,52.0
1244,254.92524141458335,255.05832761250002,60.0,51.0
1245,255.73892032083336,256.16513308125,53.0,47.0
1246,255.74397422708336,256.21735677916666,57.0,49.0
1247,256.645254175,257.2045531333333,53.0,59.0
1248,257.11863672708336,257.26014610208335,57.0,53.0
1249,257.7806984458333,257.97780078958334,57.0,43.0
1250,257.9693776125,258.14794896666666,65.0,48.0
1251,256.17524089375,258.69377084166666,48.0,47.0
1252,255.7759823,258.76284089375,41.0,51.0
