,start,end,pitch,velocity
0,13.377129791666668,13.609121510416667,69.0,107.0
1,13.885604791666667,14.122893125000001,57.0,95.0
2,14.394079791666668,14.557215520833335,60.0,99.0
3,14.648317291666668,15.099588854166667,65.0,102.0
4,15.156792291666667,15.270139843750002,62.0,93.0
5,15.411029791666667,15.691750364583335,65.0,97.0
6,15.919504791666668,16.266962708333335,67.0,107.0
7,16.42797979166667,16.675861354166667,69.0,122.0
8,16.682217291666667,16.983456641666667,67.0,107.0
9,17.439339283333336,17.54123010416667,67.0,107.0
10,17.691440283333336,18.159927975000002,67.0,97.0
11,18.443920258333335,18.735928289583335,62.0,97.0
12,18.936976633333337,19.150819708333337,57.0,96.0
13,19.184910633333338,19.44627439166667,60.0,90.0
14,19.432844633333335,19.742762133333336,62.0,95.0
15,19.680778633333336,19.790047645833337,67.0,99.0
16,19.92622654166667,20.02683632291667,64.0,88.0
17,20.17012904166667,20.27378760416667,62.0,90.0
18,20.41403154166667,20.58781207291667,64.0,97.0
19,20.65793404166667,21.175210593750002,60.0,93.0
20,21.38964154166667,21.67521071875,65.0,102.0
21,21.876233558333336,22.068773893750002,65.0,96.0
22,22.118169058333336,22.30365294166667,64.0,75.0
23,22.360104558333337,22.563733604166668,62.0,100.0
24,22.602040058333337,22.713935227083336,67.0,102.0
25,22.843975558333337,22.933693306250003,64.0,99.0
26,23.085911058333338,23.18671751666667,62.0,92.0
27,23.327846558333334,23.508290118750004,60.0,89.0
28,23.569782058333335,23.75829013541667,62.0,90.0
29,23.811717558333335,24.020386927083337,67.0,95.0
30,24.053653058333335,24.22199984375,64.0,90.0
31,24.174620808333337,24.622201483333335,62.0,92.0
32,29.137997633333338,29.344609300000005,62.0,99.0
33,29.38593163333334,29.684098000000006,65.0,102.0
34,29.88513966666667,30.046598000000007,67.0,71.0
35,30.13513966666667,30.47368133333334,69.0,107.0
36,30.63513966666667,30.977848000000005,69.0,107.0
37,31.13513966666667,31.643473000000007,67.0,112.0
38,32.885139666666674,33.00284800000001,67.0,100.0
39,33.135139666666674,33.38409800000001,72.0,117.0
40,33.635139666666674,33.86847300000001,64.0,107.0
41,33.885139666666674,34.11430633333334,62.0,85.0
42,34.135139666666674,34.41013966666667,57.0,96.0
43,34.635139666666674,35.775764666666674,60.0,99.0
44,39.08177955833334,39.37210215833334,72.0,117.0
45,39.56565055833334,39.83278767291667,72.0,112.0
46,40.04952155833334,40.15738446875,69.0,112.0
47,40.291457058333336,40.41141674375,74.0,102.0
48,40.53339255833334,40.76020708958334,72.0,117.0
49,41.01726355833334,41.27532809166667,69.0,102.0
50,41.25919905833334,41.37714261458334,67.0,83.0
51,41.50113455833334,41.689642635416675,69.0,102.0
52,41.74307005833334,41.85698135625,72.0,96.0
53,41.98500555833334,42.81061045208334,67.0,107.0
54,42.95274755833334,43.20073144583334,69.0,100.0
55,43.436618558333336,43.690650833333336,62.0,122.0
56,43.92048955833334,44.16242505833334,65.0,99.0
57,44.16242505833334,44.394279912500004,69.0,97.0
58,44.40436055833334,44.635207347916676,72.0,100.0
59,44.64629605833334,44.870185466666676,69.0,97.0
60,44.89067725833334,45.00030834375001,67.0,95.0
61,45.13657875833334,45.22264428333334,65.0,93.0
62,45.38248025833334,45.53514410625001,62.0,96.0
63,45.62838175833334,45.801537397916675,60.0,100.0
64,45.87428325833334,46.53104518125001,65.0,107.0
65,46.857889258333344,47.07100389166668,64.0,107.0
66,47.10379075833334,47.29948736875001,62.0,89.0
67,47.34969225833334,47.57305278750001,64.0,95.0
68,47.595593758333344,47.82817559375001,62.0,85.0
69,47.84149525833334,48.080224631250005,67.0,107.0
70,48.579199758333345,48.75542916666667,57.0,92.0
71,48.82510125833334,49.01465033125001,60.0,99.0
72,49.07100275833334,49.22574887500001,62.0,95.0
73,49.314458558333335,49.51405534583334,67.0,112.0
74,49.55639405833334,49.742886006250004,64.0,89.0
75,49.798329558333336,50.429377987500004,62.0,96.0
76,50.76607155833334,50.913248987500005,65.0,112.0
77,51.00800705833334,51.12695867916667,67.0,122.0
78,51.24994255833334,51.372926437500006,69.0,107.0
79,51.49187805833334,51.577563547916675,72.0,97.0
80,51.73381355833334,52.18744262083334,67.0,112.0
81,52.459620058333336,52.617886197916675,60.0,100.0
82,52.70155555833334,52.88603137708334,62.0,100.0
83,52.943491058333336,53.123934618750006,65.0,97.0
84,53.18542655833334,53.397120120833335,67.0,102.0
85,53.42736205833334,53.62998303958334,69.0,96.0
86,53.66929755833334,54.72118770833334,65.0,107.0
87,62.68301879166667,62.91501051041667,69.0,107.0
88,63.18760663333334,63.419011700000006,57.0,95.0
89,63.68347463333334,63.842565616666676,60.0,99.0
90,63.93140863333334,64.37149148333334,65.0,102.0
91,64.42727663333334,64.53781387500001,62.0,93.0
92,64.67521063333334,64.94897109166668,65.0,97.0
93,65.17107863333334,65.50992176666668,67.0,107.0
94,65.66694663333334,65.90868228333335,69.0,122.0
95,65.91488063333334,66.21033531666667,67.0,107.0
96,66.65868263333334,66.75888929166668,67.0,107.0
97,66.90661663333334,67.36736065000001,67.0,97.0
98,67.65041863333335,67.94484025833334,62.0,97.0
99,68.14503325833334,68.35712330208334,57.0,96.0
100,68.39093475833334,68.64749539791669,60.0,90.0
101,68.63439055833335,68.93680993333335,62.0,95.0
102,68.87632605833335,68.98318090416669,67.0,99.0
103,69.11826155833334,69.21805995208335,64.0,88.0
104,69.36019705833334,69.46301964583334,62.0,90.0
105,69.60213255833335,69.77451160208335,64.0,97.0
106,69.84406805833335,70.35717293125002,60.0,93.0
107,70.56987455833335,70.85314070625002,65.0,102.0
108,71.052552,71.24355200000001,65.0,96.0
109,71.29255200000001,71.47655200000001,64.0,75.0
110,71.53255200000001,71.73455200000001,62.0,100.0
111,71.772552,71.88355200000001,67.0,102.0
112,72.01255200000001,72.10155200000001,64.0,99.0
113,72.25255200000001,72.352552,62.0,92.0
114,72.492552,72.671552,60.0,89.0
115,72.73255200000001,72.91955200000001,62.0,90.0
116,72.97255200000001,73.17955200000002,67.0,95.0
117,73.21255200000002,73.379552,64.0,90.0
118,73.332552,73.77655200000001,62.0,92.0
119,78.27331263333335,78.47992430000001,62.0,99.0
120,78.52124663333335,78.81773437500001,65.0,102.0
121,79.01711463333334,79.17723867500001,67.0,71.0
122,79.26504863333334,79.60079259166667,69.0,107.0
123,79.76091663333334,80.10079282500001,69.0,107.0
124,80.25678463333334,80.76091710000001,67.0,112.0
125,81.99232263333334,82.10905822500001,67.0,100.0
126,82.24025663333335,82.48715757500001,72.0,117.0
127,82.73612463333335,82.96752970000001,64.0,107.0
128,82.98405863333335,83.21133146666668,62.0,85.0
129,83.23199263333335,83.50472003333334,57.0,96.0
130,83.72537454166668,84.83817969791667,60.0,99.0
131,88.12884625833334,88.42392805833335,72.0,117.0
132,88.62064925833334,88.89216549791668,72.0,112.0
133,89.11245225833335,89.22208334375001,69.0,112.0
134,89.35835375833334,89.48027991875001,74.0,102.0
135,89.60425525833334,89.83478791458334,72.0,117.0
136,90.09605825833334,90.35835319166668,69.0,102.0
137,90.34195975833335,90.46204845833334,67.0,83.0
138,90.58911463333335,90.78229654166668,69.0,102.0
139,90.83704863333335,90.95378422500002,72.0,96.0
140,91.08498263333335,91.93105740833334,67.0,107.0
141,92.07671863333334,92.33085098333335,69.0,100.0
142,92.57258663333334,92.83291733333334,62.0,122.0
143,93.06845463333335,93.31638863333335,65.0,99.0
144,93.31638863333335,93.55399205000002,69.0,97.0
145,93.56432263333335,93.80089299166669,72.0,100.0
146,93.81225663333335,94.03952946666668,69.0,97.0
147,94.06019063333335,94.17072787500001,67.0,95.0
148,94.30812463333335,94.39490153333335,65.0,93.0
149,94.55605863333335,94.70998432500002,62.0,96.0
150,94.80399263333335,94.97857949166668,60.0,100.0
151,95.05192663333335,95.70892646875002,65.0,107.0
152,96.03311354166668,96.24449570833335,64.0,107.0
153,96.27701604166668,96.47112178125002,62.0,89.0
154,96.52091854166669,96.74246331250002,64.0,95.0
155,96.76482104166668,96.99551215625002,62.0,85.0
156,97.00872354166668,97.24551221875002,67.0,107.0
157,97.74043104166668,97.91522783333335,57.0,92.0
158,97.98433354166669,98.17234171875002,60.0,99.0
159,98.22823604166669,98.38270762500002,62.0,95.0
160,98.47213854166668,98.67335810416668,67.0,112.0
161,98.71604104166668,98.90404921875002,64.0,89.0
162,98.95994354166669,99.59612256250001,62.0,96.0
163,99.93555354166668,100.08392756250002,65.0,112.0
164,100.17945604166668,100.29937477083335,67.0,122.0
165,100.42335854166669,100.54734231250002,69.0,107.0
166,100.66726104166668,100.75364317708335,72.0,97.0
167,100.91116354166668,101.36848072916668,67.0,112.0
168,101.64287104166668,101.80242392708335,60.0,100.0
169,101.88677354166668,102.07274919791668,62.0,100.0
170,102.13067604166669,102.31258665625002,65.0,97.0
171,102.37457854166668,102.58799322916668,67.0,102.0
172,102.61848104166668,102.82274938541669,69.0,96.0
173,102.86238354166669,103.91116429166668,65.0,107.0
174,103.83799354166669,103.91116429166668,65.0,112.0
175,104.08189604166668,104.20181477083335,67.0,122.0
176,104.32579854166669,104.44978231250002,69.0,107.0
177,104.56970104166669,104.65608317708335,72.0,97.0
178,104.81360354166668,105.27092072916669,67.0,112.0
179,105.54531104166668,105.70486392708335,60.0,100.0
180,105.78921354166668,105.97518919791668,62.0,100.0
181,106.03311604166669,106.21502665625002,65.0,97.0
182,106.27701854166668,106.49043322916668,67.0,102.0
183,106.52092104166668,106.72518938541668,69.0,96.0
184,106.76482354166669,107.83777495833336,65.0,107.0
185,107.75669380833335,107.83777495833336,65.0,97.0
186,108.02696430833335,108.21710645000003,67.0,100.0
187,108.3084525916667,108.48994295208335,69.0,127.0
188,108.59691409166669,108.73032753541669,72.0,97.0
189,108.88537559166669,109.73994278541669,67.0,122.0
190,109.91061583958336,110.57047152083337,60.0,79.0
191,110.5260003729167,111.21229835833336,62.0,93.0
192,111.07167337708336,111.51157716458336,65.0,90.0
193,111.47912524583336,112.16181746250003,67.0,93.0
194,112.05604824583335,112.70628854375002,69.0,102.0
195,112.84330775625003,115.22431705416669,65.0,107.0
