,start,end,pitch,velocity
0,5.241529791666667,5.445979114583333,65.0,81.0
1,5.241529791666667,5.448097760416667,53.0,61.0
2,5.241529791666667,5.455513020833334,60.0,85.0
3,5.241529791666667,5.4618689583333335,69.0,74.0
4,6.258479791666667,6.458691822916667,65.0,81.0
5,6.258479791666667,6.474581666666667,69.0,72.0
6,6.258479791666667,6.478818958333334,53.0,76.0
7,6.258479791666667,6.478818958333334,60.0,82.0
8,7.275429791666667,7.4597519791666675,53.0,83.0
9,7.275429791666667,7.4777604687500006,60.0,50.0
10,7.275429791666667,7.483057083333334,65.0,79.0
11,7.275429791666667,7.4904723437500005,69.0,72.0
12,8.292379791666667,8.403608697916667,60.0,112.0
13,8.292379791666667,8.435388385416667,48.0,82.0
14,8.546617291666667,8.66632078125,57.0,96.0
15,8.546617291666667,8.693863177083333,45.0,88.0
16,8.673736041666666,8.814625989583334,48.0,72.0
17,8.673736041666666,8.823100572916667,60.0,88.0
18,8.800854791666668,8.9046684375,62.0,100.0
19,8.800854791666668,8.94598203125,50.0,82.0
20,9.055092291666668,9.182211041666667,60.0,127.0
21,9.055092291666668,9.215050052083335,48.0,95.0
22,9.309329791666668,9.484118072916667,48.0,65.0
23,9.309329791666668,9.487296041666667,41.0,58.0
24,9.309329791666668,9.504245208333334,53.0,79.0
25,9.309329791666668,9.508482500000001,69.0,73.0
26,9.309329791666668,9.509541822916667,65.0,83.0
27,9.309329791666668,9.5148384375,60.0,89.0
28,10.326279791666668,10.4682290625,41.0,56.0
29,10.326279791666668,10.49047484375,48.0,71.0
30,10.326279791666668,10.500008750000001,53.0,79.0
31,10.326279791666668,10.506364687500001,65.0,81.0
32,10.326279791666668,10.516957916666668,60.0,79.0
33,10.326279791666668,10.5190765625,69.0,69.0
34,11.343229791666667,11.426916302083335,41.0,46.0
35,11.343229791666667,11.429034947916668,48.0,63.0
36,11.343229791666667,11.444924791666667,53.0,69.0
37,11.343229791666667,11.461873958333333,65.0,79.0
38,11.343229791666667,11.477763802083334,60.0,77.0
39,11.343229791666667,11.484119739583335,69.0,72.0
40,11.851704791666668,11.973526927083334,43.0,70.0
41,11.851704791666668,11.987298125,36.0,63.0
42,11.851704791666668,11.998950677083334,60.0,78.0
43,11.851704791666668,12.0063659375,64.0,81.0
44,11.851704791666668,12.013781197916668,67.0,78.0
45,11.851704791666668,12.016959166666668,48.0,85.0
46,12.360179791666667,12.443866302083334,41.0,42.0
47,12.360179791666667,12.450222239583335,65.0,82.0
48,12.360179791666667,12.453400208333335,69.0,72.0
49,12.360179791666667,12.45445953125,60.0,76.0
50,12.360179791666667,12.455518854166668,48.0,72.0
51,12.360179791666667,12.463993437500001,53.0,85.0
52,12.614417291666667,12.674798697916668,41.0,44.0
53,12.614417291666667,12.697044479166667,69.0,63.0
54,12.614417291666667,12.699163125,48.0,73.0
55,12.614417291666667,12.707637708333335,65.0,73.0
56,12.614417291666667,12.709756354166668,53.0,82.0
57,12.614417291666667,12.711875000000001,60.0,76.0
58,12.868654791666668,13.005307447916667,48.0,89.0
59,12.868654791666668,13.005307447916667,53.0,93.0
60,12.868654791666668,13.006366770833335,65.0,90.0
61,12.868654791666668,13.01378203125,69.0,81.0
62,12.868654791666668,13.018019322916668,60.0,88.0
63,12.868654791666668,13.019078645833334,41.0,66.0
64,13.885604791666667,14.111240572916667,53.0,93.0
65,13.377129791666668,14.186452500000001,41.0,92.0
66,13.631367291666667,14.237300000000001,48.0,79.0
67,13.885604791666667,14.382427239583334,65.0,76.0
68,13.885604791666667,14.386664531250002,69.0,90.0
69,14.139842291666668,14.489418854166669,60.0,85.0
70,14.394079791666668,15.013783697916669,38.0,77.0
71,14.648317291666668,15.021198958333335,45.0,58.0
72,14.902554791666669,15.293444947916667,50.0,79.0
73,14.902554791666669,15.318868697916669,65.0,85.0
74,14.902554791666669,15.344292447916668,62.0,93.0
75,15.156792291666667,15.469292552083335,57.0,78.0
76,15.411029791666667,15.801919947916668,46.0,93.0
77,15.665267291666668,16.0360303125,50.0,38.0
78,15.919504791666668,16.049801510416668,53.0,86.0
79,15.919504791666668,16.0614540625,46.0,29.0
80,15.919504791666668,16.55827651041667,58.0,95.0
81,15.919504791666668,16.561454479166667,62.0,77.0
82,15.919504791666668,16.57734432291667,65.0,72.0
83,16.42797979166667,16.812238045833336,36.0,52.0
84,16.682217291666667,17.096902091666667,43.0,74.0
85,16.935137283333333,17.322742570833334,48.0,89.0
86,17.187238283333336,17.38366697916667,55.0,85.0
87,16.935137283333333,17.391019925000002,64.0,85.0
88,16.935137283333333,17.403624975,60.0,85.0
89,17.691440283333336,18.042280841666667,52.0,61.0
90,17.439339283333336,18.055936312500002,45.0,72.0
91,17.943541283333335,18.47260876666667,60.0,90.0
92,17.943541283333335,18.48183007291667,64.0,86.0
93,18.195642283333335,18.562772650000003,57.0,88.0
94,18.689821758333338,19.05267916666667,45.0,43.0
95,18.443920258333335,19.05577834166667,38.0,70.0
96,18.936976633333337,19.22210073333334,62.0,90.0
97,18.936976633333337,19.26342306666667,65.0,90.0
98,18.936976633333337,19.428712400000002,50.0,50.0
99,19.184910633333338,19.457638033333335,57.0,69.0
100,19.680778633333336,19.951633052083338,50.0,46.0
101,19.432844633333335,20.043096489583338,43.0,77.0
102,19.92622654166667,20.35305591666667,58.0,107.0
103,19.92622654166667,20.38354372916667,62.0,90.0
104,20.17012904166667,20.533950270833337,55.0,82.0
105,20.41403154166667,21.11830001041667,36.0,69.0
106,20.65793404166667,21.151836604166668,43.0,69.0
107,20.90183654166667,21.220942312500004,64.0,59.0
108,20.90183654166667,21.220942312500004,64.0,82.0
109,20.90183654166667,21.355088687500004,60.0,79.0
110,20.90183654166667,21.375413895833336,48.0,90.0
111,21.14573904166667,21.428259437500003,55.0,92.0
112,21.876233558333336,22.096999702083334,53.0,77.0
113,21.38964154166667,22.159499706250003,41.0,90.0
114,21.63354404166667,22.19780616041667,48.0,72.0
115,21.876233558333336,22.24316906666667,65.0,90.0
116,21.876233558333336,22.266354552083335,69.0,90.0
117,22.118169058333336,22.32482229791667,60.0,89.0
118,22.360104558333337,22.635306189583336,46.0,112.0
119,22.843975558333337,23.220991712500002,58.0,102.0
120,22.602040058333337,23.285507845833337,50.0,66.0
121,22.843975558333337,23.287523975000003,62.0,88.0
122,22.843975558333337,23.34397559166667,65.0,88.0
123,23.327846558333334,23.512322377083336,58.0,86.0
124,23.569782058333335,23.906475629166668,52.0,90.0
125,23.327846558333334,23.931677243750002,45.0,72.0
126,23.811717558333335,24.256274039583335,64.0,85.0
127,23.811717558333335,24.25728210416667,60.0,89.0
128,24.053653058333335,24.298612752083336,57.0,93.0
129,24.295588558333336,24.64437890416667,38.0,74.0
130,24.537524058333336,24.791556333333336,45.0,92.0
131,24.779459558333336,25.103048289583334,50.0,89.0
132,24.779459558333336,25.196798295833336,62.0,88.0
133,24.779459558333336,25.20990313541667,65.0,79.0
134,25.021395058333336,25.227040233333337,57.0,85.0
135,25.263330558333337,25.530467672916668,50.0,117.0
136,25.263330558333337,25.530467672916668,62.0,117.0
137,25.626233808333335,25.750225752083335,53.0,88.0
138,25.626233808333335,25.750225752083335,65.0,88.0
139,25.747201558333337,25.896395116666667,45.0,93.0
140,25.747201558333337,25.896395116666667,57.0,93.0
141,25.989137058333334,26.08994351666667,48.0,99.0
142,25.989137058333334,26.08994351666667,60.0,99.0
143,26.231072558333338,26.31978224166667,50.0,107.0
144,26.231072558333338,26.31978224166667,62.0,107.0
145,26.473008058333335,26.599016131250004,48.0,88.0
146,26.473008058333335,26.599016131250004,60.0,88.0
147,26.714943558333335,26.829862920833335,50.0,100.0
148,26.714943558333335,26.829862920833335,62.0,100.0
149,27.198814558333336,27.461919414583335,50.0,102.0
150,27.198814558333336,27.461919414583335,62.0,102.0
151,27.561717808333334,27.635306522916668,53.0,85.0
152,27.561717808333334,27.635306522916668,65.0,85.0
153,27.682685558333336,27.81373395416667,45.0,107.0
154,27.682685558333336,27.81373395416667,57.0,107.0
155,27.924621058333337,28.021395258333335,48.0,112.0
156,27.924621058333337,28.021395258333335,60.0,112.0
157,28.166556558333337,28.32885495625,50.0,127.0
158,28.166556558333337,28.32885495625,62.0,127.0
159,29.137997633333338,29.72368133333334,38.0,92.0
160,29.88513966666667,29.990348000000004,38.0,70.0
161,29.63513966666667,30.290348000000005,65.0,85.0
162,29.63513966666667,30.30805633333334,62.0,79.0
163,29.38593163333334,30.387223000000006,57.0,38.0
164,30.13513966666667,30.563264666666672,38.0,69.0
165,30.38513966666667,31.045556333333337,62.0,73.0
166,30.38513966666667,31.074723000000006,65.0,74.0
167,30.88513966666667,31.41951466666667,57.0,85.0
168,31.13513966666667,31.78930633333334,43.0,77.0
169,31.38513966666667,31.843473000000007,50.0,78.0
170,31.885139666666674,31.986181333333338,43.0,72.0
171,31.635139666666674,32.43618133333334,59.0,75.0
172,31.635139666666674,32.50388966666667,62.0,75.0
173,32.135139666666674,32.65493133333334,43.0,82.0
174,32.635139666666674,33.10284800000001,59.0,79.0
175,32.885139666666674,33.105973000000006,62.0,79.0
176,33.135139666666674,33.73305633333334,36.0,83.0
177,33.385139666666674,33.78826466666667,43.0,47.0
178,33.885139666666674,33.996598000000006,36.0,75.0
179,33.635139666666674,34.30388966666667,64.0,88.0
180,34.135139666666674,34.63409800000001,36.0,65.0
181,34.385139666666674,34.699723000000006,60.0,68.0
182,32.385139666666674,35.09868133333334,55.0,74.0
183,34.885139666666674,35.135139666666674,60.0,71.0
184,34.635139666666674,35.135139666666674,64.0,88.0
185,35.135139666666674,35.275764666666674,50.0,112.0
186,35.135139666666674,35.47784800000001,62.0,89.0
187,35.135139666666674,35.49138966666667,65.0,83.0
188,35.135139666666674,35.49243133333334,57.0,90.0
189,36.135139666666674,36.21743133333334,55.0,85.0
190,36.135139666666674,36.22055633333334,60.0,88.0
191,36.135139666666674,36.22159800000001,64.0,78.0
192,36.135139666666674,36.22993133333334,48.0,99.0
193,36.385139666666674,36.46430633333334,64.0,70.0
194,36.385139666666674,36.46951466666667,60.0,81.0
195,36.385139666666674,36.47368133333334,55.0,73.0
196,36.385139666666674,36.47576466666667,48.0,82.0
197,36.635139666666674,36.713264666666674,55.0,78.0
198,36.635139666666674,36.72159800000001,60.0,89.0
199,36.635139666666674,36.72159800000001,64.0,75.0
200,36.635139666666674,36.72680633333334,48.0,102.0
201,37.135139666666674,37.482989129166675,50.0,93.0
202,37.135139666666674,37.49206171041667,65.0,83.0
203,37.135139666666674,37.49710203333334,57.0,86.0
204,37.135139666666674,37.50113429166667,62.0,90.0
205,38.11403755833334,38.18056982083334,60.0,70.0
206,38.11403755833334,38.185610143750004,55.0,78.0
207,38.11403755833334,38.185610143750004,64.0,65.0
208,38.11403755833334,38.2067795,48.0,102.0
209,38.59790855833334,38.70980372708334,48.0,102.0
210,38.59790855833334,38.74004566458334,55.0,79.0
211,38.59790855833334,38.745085987500005,64.0,85.0
212,38.59790855833334,38.746094052083336,60.0,93.0
213,39.08177955833334,39.61101346458334,41.0,88.0
214,39.80758605833334,39.890247354166675,41.0,58.0
215,39.80758605833334,39.91645703333334,53.0,73.0
216,39.56565055833334,40.057586075,60.0,88.0
217,39.56565055833334,40.06968285000001,65.0,89.0
218,39.56565055833334,40.136215112500004,69.0,81.0
219,40.04952155833334,40.73298934583334,41.0,75.0
220,40.04952155833334,40.771295800000004,53.0,82.0
221,40.53339255833334,40.83883612708334,60.0,86.0
222,40.53339255833334,40.849924837500005,65.0,92.0
223,40.53339255833334,40.87311032291667,69.0,82.0
224,41.01726355833334,41.59690069375001,41.0,77.0
225,41.50113455833334,41.739037800000006,60.0,79.0
226,41.50113455833334,41.81262651458334,65.0,89.0
227,41.50113455833334,41.82371522500001,69.0,82.0
228,41.74307005833334,41.88621522916667,41.0,75.0
229,41.98500555833334,42.749118512500004,36.0,69.0
230,42.46887655833334,42.79548948333334,60.0,75.0
231,42.46887655833334,42.81363464583334,64.0,90.0
232,42.46887655833334,42.829763679166675,67.0,86.0
233,42.95274755833334,43.52028791875001,38.0,78.0
234,43.436618558333336,43.54952179166667,57.0,83.0
235,43.436618558333336,43.561618566666674,62.0,93.0
236,43.436618558333336,43.587828245833336,65.0,86.0
237,43.67855405833334,43.741054062500005,50.0,66.0
238,43.67855405833334,43.75617503125001,38.0,55.0
239,43.92048955833334,44.41040894583334,38.0,66.0
240,43.92048955833334,44.58682024791668,50.0,85.0
241,44.40436055833334,44.62311057291667,62.0,85.0
242,44.40436055833334,44.629158960416675,57.0,77.0
243,44.40436055833334,44.64226380000001,65.0,77.0
244,44.89067725833334,45.46547201458334,36.0,82.0
245,45.38248025833334,45.53719328541668,60.0,90.0
246,45.38248025833334,45.54129164375001,55.0,83.0
247,45.38248025833334,45.548463770833344,64.0,83.0
248,45.62838175833334,45.868135720833344,36.0,83.0
249,45.87428325833334,46.378381333333344,41.0,76.0
250,46.36608625833334,46.62223365416668,60.0,89.0
251,46.36608625833334,46.631454960416676,65.0,90.0
252,46.36608625833334,46.65706970000001,69.0,83.0
253,46.857889258333344,47.12325796041667,64.0,83.0
254,46.857889258333344,47.12940549791667,67.0,82.0
255,46.857889258333344,47.13043008750001,60.0,83.0
256,46.857889258333344,47.14067598333334,36.0,70.0
257,46.857889258333344,47.14272516250001,48.0,93.0
258,50.986837702083335,51.42937805416667,48.0,73.0
259,50.73078929791667,51.43139418333334,41.0,79.0
260,51.20054739375001,51.518087737500004,69.0,100.0
261,51.45659579791667,51.83764421041667,60.0,96.0
262,51.69449903958334,52.30639424166667,36.0,79.0
263,51.94651518541667,52.308410370833336,43.0,74.0
264,52.19349100833334,52.49691844791667,48.0,59.0
265,52.16627326458334,52.542281354166676,64.0,93.0
266,52.4253458625,52.637039425000005,55.0,95.0
267,52.665265233333336,53.09167655208334,46.0,112.0
268,52.90720073333334,53.22474107708334,58.0,100.0
269,53.13300720000001,53.625950781250005,48.0,75.0
270,53.3930878625,53.63905562083334,60.0,93.0
271,53.879983056250005,54.544958300000005,48.0,90.0
272,53.63703949166667,54.59106483125,41.0,82.0
273,54.36770430208334,54.59311401041667,60.0,92.0
274,54.11565526458334,54.59516318958334,53.0,89.0
275,54.647417258333334,54.84516304791667,65.0,81.0
276,54.647417258333334,54.84721222708334,53.0,61.0
277,54.647417258333334,54.85438435416667,60.0,85.0
278,54.647417258333334,54.86053189166667,69.0,74.0
279,55.631023258333336,55.824670689583336,65.0,81.0
280,55.631023258333336,55.84003953333334,69.0,72.0
281,55.631023258333336,55.84413789166667,53.0,76.0
282,55.631023258333336,55.84413789166667,60.0,82.0
283,56.63644179166668,56.82076397916667,53.0,83.0
284,56.63644179166668,56.83877246875001,60.0,50.0
285,56.63644179166668,56.84406908333334,65.0,79.0
286,56.63644179166668,56.85148434375001,69.0,72.0
287,57.64230366666668,57.75167866666668,60.0,112.0
288,57.64230366666668,57.78292866666668,48.0,82.0
289,57.89230366666668,58.01001200000001,57.0,96.0
290,57.89230366666668,58.03709533333334,45.0,88.0
291,58.01730366666668,58.15584533333334,48.0,72.0
292,58.01730366666668,58.16417866666668,60.0,88.0
293,58.14230366666668,58.24438700000001,62.0,100.0
294,58.14230366666668,58.28501200000001,50.0,82.0
295,58.39230366666668,58.51730366666668,60.0,127.0
296,58.39230366666668,58.54959533333334,48.0,95.0
297,58.64230366666668,58.81417866666668,48.0,65.0
298,58.64230366666668,58.817303666666675,41.0,58.0
299,58.64230366666668,58.83397033333334,53.0,79.0
300,58.64230366666668,58.83813700000001,69.0,73.0
301,58.64230366666668,58.839178666666676,65.0,83.0
302,58.64230366666668,58.84438700000001,60.0,89.0
303,59.64230366666668,59.78188700000001,41.0,56.0
304,59.64230366666668,59.803762000000006,48.0,71.0
305,59.64230366666668,59.81313700000001,53.0,79.0
306,59.64230366666668,59.819387000000006,65.0,81.0
307,59.64230366666668,59.82980366666668,60.0,79.0
308,59.64230366666668,59.83188700000001,69.0,69.0
309,60.65207428333334,60.735057529166674,41.0,46.0
310,60.65207428333334,60.73715837083334,48.0,63.0
311,60.65207428333334,60.75291468333334,53.0,69.0
312,60.65207428333334,60.76972141666667,65.0,79.0
313,60.65207428333334,60.78547772916667,60.0,77.0
314,60.65207428333334,60.791780254166675,69.0,72.0
315,61.15759379166667,61.27941592708334,43.0,70.0
316,61.15759379166667,61.293187125,36.0,63.0
317,61.15759379166667,61.304839677083336,60.0,78.0
318,61.15759379166667,61.31225493750001,64.0,81.0
319,61.15759379166667,61.31967019791667,67.0,78.0
320,61.15759379166667,61.322848166666674,48.0,85.0
321,61.666068791666675,61.74975530208334,41.0,42.0
322,61.666068791666675,61.75611123958334,65.0,82.0
323,61.666068791666675,61.759289208333335,69.0,72.0
324,61.666068791666675,61.76034853125,60.0,76.0
325,61.666068791666675,61.76140785416667,48.0,72.0
326,61.666068791666675,61.76988243750001,53.0,85.0
327,61.92030629166667,61.98068769791667,41.0,44.0
328,61.92030629166667,62.00293347916667,69.0,63.0
329,61.92030629166667,62.005052125000006,48.0,73.0
330,61.92030629166667,62.01352670833334,65.0,73.0
331,61.92030629166667,62.01564535416667,53.0,82.0
332,61.92030629166667,62.01776400000001,60.0,76.0
333,62.17454379166667,62.31119644791667,48.0,89.0
334,62.17454379166667,62.31119644791667,53.0,93.0
335,62.17454379166667,62.31225577083334,65.0,90.0
336,62.17454379166667,62.31967103125,69.0,81.0
337,62.17454379166667,62.32390832291667,60.0,88.0
338,62.17454379166667,62.32496764583334,41.0,66.0
339,63.18760663333334,63.40764805833334,53.0,93.0
340,62.68301879166667,63.48099520000001,41.0,92.0
341,62.93725629166667,63.53058200000001,48.0,79.0
342,63.18760663333334,63.67211099166668,65.0,76.0
343,63.18760663333334,63.67624322500001,69.0,90.0
344,63.43554063333334,63.77644988333334,60.0,85.0
345,63.68347463333334,64.28781375833334,38.0,77.0
346,63.93140863333334,64.29504516666667,45.0,58.0
347,64.17934263333335,64.56054115833334,50.0,79.0
348,64.17934263333335,64.58533455833334,65.0,85.0
349,64.17934263333335,64.61012795833334,62.0,93.0
350,64.42727663333334,64.73202884166668,57.0,78.0
351,64.67521063333334,65.05640915833334,46.0,93.0
352,64.92314463333334,65.28471505,50.0,38.0
353,65.17107863333334,65.29814480833335,53.0,86.0
354,65.17107863333334,65.30950845000001,46.0,29.0
355,65.17107863333334,65.79401280833335,58.0,95.0
356,65.17107863333334,65.79711198333334,62.0,77.0
357,65.17107863333334,65.81260785833334,65.0,72.0
358,65.66694663333334,66.04194680833334,36.0,52.0
359,65.91488063333334,66.32190561666667,43.0,74.0
360,66.16281463333334,66.54401315833334,48.0,89.0
361,66.41074863333334,66.60393054166667,55.0,85.0
362,66.16281463333334,66.61116195000001,64.0,85.0
363,66.16281463333334,66.62355865,60.0,85.0
364,66.90661663333334,67.25165811666668,52.0,61.0
365,66.65868263333334,67.265087875,45.0,72.0
366,67.15455063333334,67.67934426666667,60.0,90.0
367,67.15455063333334,67.68864179166667,64.0,86.0
368,67.40248463333334,67.7702534,57.0,88.0
369,67.89835263333335,68.25978729166667,45.0,43.0
370,67.65041863333335,68.26286106041668,38.0,70.0
371,68.14503325833334,68.42781998333334,62.0,90.0
372,68.14503325833334,68.46880356666668,65.0,90.0
373,68.14503325833334,68.63035830000001,50.0,50.0
374,68.39093475833334,68.65858410833334,57.0,69.0
375,68.87632605833335,69.14346317291668,50.0,46.0
376,68.63439055833335,69.23418898541668,43.0,77.0
377,69.11826155833334,69.54164868333335,58.0,107.0
378,69.11826155833334,69.57189062083334,62.0,90.0
379,69.36019705833334,69.72108417916668,55.0,82.0
380,69.60213255833335,70.30072131458334,36.0,69.0
381,69.84406805833335,70.33398744583334,43.0,69.0
382,70.08600355833335,70.40253583750001,64.0,59.0
383,70.08600355833335,70.40253583750001,64.0,82.0
384,70.08600355833335,70.53560036250002,60.0,79.0
385,70.08600355833335,70.55576165416667,48.0,90.0
386,70.32793905833334,70.60818101250001,55.0,92.0
387,71.052552,71.27155200000001,53.0,77.0
388,70.56987455833335,71.33355200000001,41.0,90.0
389,70.81181005833335,71.37155200000001,48.0,72.0
390,71.052552,71.41655200000001,65.0,90.0
391,71.052552,71.439552,69.0,90.0
392,71.29255200000001,71.49755200000001,60.0,89.0
393,71.53255200000001,71.805552,46.0,112.0
394,72.01255200000001,72.38655200000001,58.0,102.0
395,71.772552,72.45055200000002,50.0,66.0
396,72.01255200000001,72.45255200000001,62.0,88.0
397,72.01255200000001,72.50855200000001,65.0,88.0
398,72.492552,72.67555200000001,58.0,86.0
399,72.73255200000001,73.06655200000002,52.0,90.0
400,72.492552,73.09155200000001,45.0,72.0
401,72.97255200000001,73.41355200000001,64.0,85.0
402,72.97255200000001,73.41455200000001,60.0,89.0
403,73.21255200000002,73.45555200000001,57.0,93.0
404,73.45255200000001,73.79855200000002,38.0,74.0
405,73.692552,73.94455200000002,45.0,92.0
406,73.93255200000002,74.25355200000001,50.0,89.0
407,73.93255200000002,74.346552,62.0,88.0
408,73.93255200000002,74.35955200000001,65.0,79.0
409,74.17255200000001,74.376552,57.0,85.0
410,74.412552,74.677552,50.0,117.0
411,74.412552,74.677552,62.0,117.0
412,74.772552,74.89555200000001,53.0,88.0
413,74.772552,74.89555200000001,65.0,88.0
414,74.89255200000001,75.040552,45.0,93.0
415,74.89255200000001,75.040552,57.0,93.0
416,75.132552,75.23255200000001,48.0,99.0
417,75.132552,75.23255200000001,60.0,99.0
418,75.37255200000001,75.460552,50.0,107.0
419,75.37255200000001,75.460552,62.0,107.0
420,75.61255200000001,75.73755200000001,48.0,88.0
421,75.61255200000001,75.73755200000001,60.0,88.0
422,75.852552,75.96655200000001,50.0,100.0
423,75.852552,75.96655200000001,62.0,100.0
424,76.332552,76.59355200000002,50.0,102.0
425,76.332552,76.59355200000002,62.0,102.0
426,76.692552,76.76555200000001,53.0,85.0
427,76.692552,76.76555200000001,65.0,85.0
428,76.81255200000001,76.942552,45.0,107.0
429,76.81255200000001,76.942552,57.0,107.0
430,77.052552,77.14855200000001,48.0,112.0
431,77.052552,77.14855200000001,60.0,112.0
432,77.29255200000001,77.45355200000002,50.0,127.0
433,77.29255200000001,77.45355200000002,62.0,127.0
434,78.27331263333335,78.85699059166667,38.0,92.0
435,79.01711463333334,79.121453525,38.0,70.0
436,78.76918063333335,79.41897432500001,65.0,85.0
437,78.76918063333335,79.43653631666668,62.0,79.0
438,78.52124663333335,79.51504875,57.0,38.0
439,79.26504863333334,79.68963560833335,38.0,69.0
440,79.51298263333334,80.16794161666668,62.0,73.0
441,79.51298263333334,80.19686725000001,65.0,74.0
442,80.00885063333334,80.53880955833334,57.0,85.0
443,80.25678463333334,80.90554526666668,43.0,77.0
444,80.50471863333334,80.95926430000002,50.0,78.0
445,81.00058663333334,81.10079329166668,43.0,72.0
446,80.75265263333334,81.54707449166668,59.0,75.0
447,80.75265263333334,81.61422328333335,62.0,75.0
448,81.24852063333334,81.76401674166668,43.0,82.0
449,81.74438863333334,82.20823182500001,59.0,79.0
450,81.99232263333334,82.21133100000002,62.0,79.0
451,82.24025663333335,82.83323211666668,36.0,83.0
452,82.48819063333335,82.88798420833334,43.0,47.0
453,82.98405863333335,83.09459587500001,36.0,75.0
454,82.73612463333335,83.39934808333334,64.0,88.0
455,83.23199263333335,83.72435828125002,36.0,65.0
456,83.47992663333335,83.78838268750002,60.0,68.0
457,81.49645463333334,84.17761042708335,55.0,74.0
458,83.96927704166669,84.21317954166668,60.0,71.0
459,83.72537454166668,84.21317954166668,64.0,88.0
460,84.21317954166668,84.35037469791668,50.0,112.0
461,84.21317954166668,84.54752921875001,62.0,89.0
462,84.21317954166668,84.56074060416668,65.0,83.0
463,84.21317954166668,84.56175686458334,57.0,90.0
464,85.18878954166668,85.26907411458335,55.0,85.0
465,85.18878954166668,85.27212289583335,60.0,88.0
466,85.18878954166668,85.27313915625001,64.0,78.0
467,85.18878954166668,85.28126923958335,48.0,99.0
468,85.43269204166668,85.50992783333335,64.0,70.0
469,85.43269204166668,85.51500913541668,60.0,81.0
470,85.43269204166668,85.51907417708334,55.0,73.0
471,85.43269204166668,85.52110669791668,48.0,82.0
472,85.67659454166667,85.75281407291668,55.0,78.0
473,85.67659454166667,85.76094415625002,60.0,89.0
474,85.67659454166667,85.76094415625002,64.0,75.0
475,85.67659454166667,85.76602545833335,48.0,102.0
476,86.16439954166668,86.50384717916667,50.0,93.0
477,86.16439954166668,86.51306848541668,65.0,83.0
478,86.16439954166668,86.51819143333334,57.0,86.0
479,86.16439954166668,86.52228979166668,62.0,90.0
480,87.14524025833335,87.21286317083334,60.0,70.0
481,87.14524025833335,87.21798611875,55.0,78.0
482,87.14524025833335,87.21798611875,64.0,65.0
483,87.14524025833335,87.23950250000001,48.0,102.0
484,87.63704325833334,87.75077270208334,48.0,102.0
485,87.63704325833334,87.78151038958335,55.0,79.0
486,87.63704325833334,87.7866333375,64.0,85.0
487,87.63704325833334,87.78765792708334,60.0,93.0
488,88.12884625833334,88.66675578958335,41.0,88.0
489,88.86655075833335,88.95056710416668,41.0,58.0
490,88.86655075833335,88.97720643333334,53.0,73.0
491,88.62064925833334,89.12064897500001,60.0,88.0
492,88.62064925833334,89.13294405,65.0,89.0
493,88.62064925833334,89.2005669625,69.0,81.0
494,89.11245225833335,89.80712399583334,41.0,75.0
495,89.11245225833335,89.8460584,53.0,82.0
496,89.60425525833334,89.91470590208334,60.0,86.0
497,89.60425525833334,89.92597638750001,65.0,92.0
498,89.60425525833334,89.94954194791667,69.0,82.0
499,90.09605825833334,90.68725517500002,41.0,77.0
500,90.58911463333335,90.83291640000002,60.0,79.0
501,90.58911463333335,90.90832965833334,65.0,89.0
502,90.58911463333335,90.91969330000002,69.0,82.0
503,90.83704863333335,90.98374291666669,41.0,75.0
504,91.08498263333335,91.86804085000001,36.0,69.0
505,91.58085063333336,91.91556153333335,60.0,75.0
506,91.58085063333336,91.93415658333335,64.0,90.0
507,91.58085063333336,91.95068551666668,67.0,86.0
508,92.07671863333334,92.65833047500001,38.0,78.0
509,92.57258663333334,92.68828916666668,57.0,83.0
510,92.57258663333334,92.70068586666669,62.0,93.0
511,92.57258663333334,92.72754538333335,65.0,86.0
512,92.82052063333335,92.88457025000001,50.0,66.0
513,92.82052063333335,92.90006612500001,38.0,55.0
514,93.06845463333335,93.57052098333335,38.0,66.0
515,93.06845463333335,93.75130619166669,50.0,85.0
516,93.56432263333335,93.78849629166669,62.0,85.0
517,93.56432263333335,93.79469464166668,57.0,77.0
518,93.56432263333335,93.80812440000001,65.0,77.0
519,94.06019063333335,94.63973635833335,36.0,82.0
520,94.55605863333335,94.71205044166668,60.0,90.0
521,94.55605863333335,94.71618267500001,55.0,83.0
522,94.55605863333335,94.72341408333335,64.0,83.0
523,94.80399263333335,95.04572828333335,36.0,83.0
524,95.05192663333335,95.55750366666668,41.0,76.0
525,95.54530854166669,95.79937364583336,60.0,89.0
526,95.54530854166669,95.80851998958335,65.0,90.0
527,95.54530854166669,95.83392650000002,69.0,83.0
528,96.03311354166668,96.29632498958335,64.0,83.0
529,96.03311354166668,96.30242255208334,67.0,82.0
530,96.03311354166668,96.30343881250002,60.0,83.0
531,96.03311354166668,96.31360141666669,36.0,70.0
532,96.03311354166668,96.31563393750001,48.0,93.0
533,100.15811457291669,100.60425289583335,48.0,73.0
534,99.89998442708335,100.60628541666668,41.0,79.0
535,100.37356178125002,100.69368381250001,69.0,100.0
536,100.63169192708335,101.01583836458335,60.0,96.0
537,100.87152938541668,101.48839945833335,36.0,79.0
538,101.12559448958335,101.49043197916669,43.0,74.0
539,101.37457829166668,101.68047267708334,48.0,59.0
540,101.34713926041668,101.72620439583335,64.0,93.0
541,101.60831818750002,101.82173287500002,55.0,95.0
542,101.85018816666668,102.28006632291668,46.0,112.0
543,102.09409066666669,102.41421269791668,58.0,100.0
544,102.32173300000002,102.81868434375002,48.0,75.0
545,102.58392818750002,102.83189572916669,60.0,93.0
546,103.07478196875002,103.73636750000001,48.0,90.0
547,102.82986320833335,103.78209921875002,41.0,82.0
548,103.56055444791669,103.78413173958336,60.0,92.0
549,103.31055438541668,103.78616426041668,53.0,89.0
550,103.83799354166669,104.45689613541668,41.0,85.0
551,104.32579854166669,104.70079863541669,69.0,96.0
552,104.56970104166669,104.74348157291668,65.0,71.0
553,104.08189604166668,104.77803442708336,60.0,72.0
554,104.81360354166668,105.30547358333335,36.0,75.0
555,105.30140854166669,105.65506716666668,64.0,100.0
556,105.54531104166668,105.71909157291668,60.0,69.0
557,105.05750604166668,105.73230295833335,55.0,68.0
558,105.78921354166668,106.22823804166669,46.0,102.0
559,106.03311604166669,106.24348194791668,53.0,70.0
560,106.27701854166668,106.74754711458336,48.0,89.0
561,106.52092104166668,106.79531135416669,55.0,76.0
562,107.00872604166669,107.64971173541669,48.0,96.0
563,106.76482354166669,107.71277485208336,41.0,76.0
564,107.25262854166668,107.71727936041668,53.0,76.0
565,107.49653104166669,107.73642352083336,57.0,71.0
566,107.72290999583335,107.73642352083336,57.0,79.0
567,107.49653104166669,107.7611983166667,60.0,88.0
568,107.72065774166668,107.7611983166667,60.0,79.0
569,107.72403612291669,108.7159044604167,53.0,81.0
570,107.72628837708335,108.87335636250002,41.0,66.0
571,108.8997986666667,109.76999085833336,64.0,71.0
572,108.89739482083336,109.87576007500003,60.0,68.0
573,108.89499097500003,109.87816392083336,55.0,67.0
574,108.90220251250003,109.97551967708335,48.0,71.0
575,110.21830810625002,111.21830797291669,53.0,79.0
576,110.22071195208336,111.2291252791667,62.0,78.0
577,110.21229849166669,111.4202310229167,58.0,83.0
578,110.21710618333336,111.47672140000003,46.0,63.0
579,111.46830793958335,113.00676927291669,48.0,66.0
580,111.47431755416669,113.03441350000003,64.0,70.0
581,111.4707117854167,113.03681734583336,60.0,63.0
582,111.47191370833336,113.03801926875002,55.0,61.0
583,113.38297114583335,113.61854803750002,57.0,88.0
584,113.37936537708336,113.62816342083336,53.0,85.0
585,113.38176922291669,113.70508648750003,41.0,76.0
586,113.37696153125003,113.71590379375003,60.0,86.0
587,113.91782684375002,114.13417296875002,57.0,86.0
588,113.91301915208336,114.1570095041667,60.0,88.0
589,113.91181722916669,114.17624027083336,53.0,81.0
590,113.89979800000002,114.19907680625002,41.0,85.0
591,114.46109600208335,114.77599980625003,53.0,88.0
592,114.45869215625002,114.79042288125002,58.0,95.0
593,114.4634998479167,114.7952305729167,62.0,92.0
594,114.45268254166669,114.80364403333336,46.0,99.0
595,115.0296055416667,115.4839324041667,53.0,76.0
596,115.03080746458336,115.48874009583336,62.0,83.0
597,115.02359592708336,115.50075932500002,58.0,95.0
598,115.0368170791667,115.53801893541669,46.0,117.0
599,115.9815284916667,117.89619169791669,57.0,81.0
600,115.98513426041669,117.90580708125003,53.0,85.0
601,115.97912464583335,117.91301861875003,48.0,59.0
602,115.98393233750002,117.91902823333336,60.0,85.0
603,115.98994195208336,117.96109553541669,41.0,45.0
