,start,end,pitch,velocity
0,0.07500000000000001,0.28,82.0,119.0
1,1.2750000000000001,1.4183333333333334,81.0,102.0
2,1.475,1.6016666666666668,79.0,104.0
3,1.675,1.9216666666666669,81.0,113.0
4,2.075,2.456666666666667,77.0,108.0
5,2.475,2.8866666666666667,74.0,91.0
6,2.875,3.145,72.0,87.0
7,3.2750000000000004,3.701666666666667,75.0,109.0
8,3.6750000000000003,4.001666666666667,74.0,107.0
9,4.075,4.42,75.0,100.0
10,4.4750000000000005,4.831666666666667,77.0,104.0
11,4.875,5.246666666666667,74.0,107.0
12,6.075,6.216666666666667,72.0,104.0
13,6.275,6.390000000000001,74.0,102.0
14,6.4750000000000005,6.6033333333333335,87.0,113.0
15,6.4750000000000005,6.751666666666667,75.0,113.0
16,6.675000000000001,6.8533333333333335,86.0,98.0
17,6.875,7.051666666666667,82.0,97.0
18,6.875,7.175000000000001,74.0,107.0
19,7.075,7.2266666666666675,79.0,102.0
20,7.275,7.49,87.0,119.0
21,7.275,7.565,75.0,113.0
22,7.4750000000000005,7.676666666666667,86.0,102.0
23,7.675000000000001,7.881666666666667,82.0,97.0
24,7.675000000000001,7.908333333333334,70.0,116.0
25,7.875000000000001,7.981666666666667,79.0,96.0
26,8.075000000000001,8.281666666666668,84.0,119.0
27,8.075000000000001,8.401666666666667,74.0,110.0
28,8.275,8.495000000000001,82.0,109.0
29,8.475000000000001,8.653333333333334,81.0,98.0
30,8.675,8.873333333333333,74.0,102.0
31,8.875,9.083333333333334,84.0,119.0
32,8.875,9.191666666666666,72.0,108.0
33,9.075000000000001,9.295,82.0,106.0
34,9.275,9.375,74.0,110.0
35,9.275,9.441666666666666,81.0,104.0
36,9.475000000000001,9.593333333333334,74.0,102.0
37,9.675,9.845,82.0,116.0
38,9.875,10.081666666666667,81.0,100.0
39,10.075000000000001,10.246666666666668,79.0,108.0
40,9.675,10.280000000000001,67.0,110.0
41,10.275,10.395000000000001,74.0,104.0
42,10.475000000000001,10.71,74.0,113.0
43,10.675,10.88,72.0,98.0
44,10.875,11.026666666666667,70.0,103.0
45,11.075000000000001,11.181666666666667,69.0,81.0
46,11.275,11.600000000000001,67.0,96.0
47,43.24666666666667,43.67166666666667,91.0,119.0
48,43.650000000000006,44.44166666666667,89.0,123.0
49,44.473333333333336,44.88166666666667,82.0,109.0
50,44.85,46.36833333333334,84.0,121.0
51,50.075,50.54333333333334,79.0,110.0
52,50.475,50.835,77.0,107.0
53,50.875,51.265,72.0,100.0
54,51.275000000000006,51.82,70.0,106.0
55,57.215,57.623333333333335,84.0,124.0
56,57.645,58.671666666666674,87.0,107.0
57,58.91833333333334,59.11833333333334,87.0,127.0
58,59.108333333333334,59.32,91.0,127.0
59,59.300000000000004,60.32666666666667,89.0,124.0
60,62.675000000000004,62.76833333333334,62.0,107.0
61,62.87500000000001,62.96833333333334,67.0,107.0
62,63.075,63.150000000000006,69.0,108.0
63,63.275000000000006,63.40833333333334,70.0,113.0
64,63.475,63.66166666666667,69.0,98.0
65,63.675000000000004,63.85333333333334,67.0,100.0
66,63.87500000000001,64.01666666666667,65.0,102.0
67,64.075,64.46166666666667,67.0,110.0
68,65.675,67.17333333333333,69.0,120.0
69,67.275,67.845,70.0,114.0
70,68.075,68.765,72.0,113.0
71,68.875,69.50166666666667,74.0,117.0
72,70.47500000000001,71.245,72.0,114.0
73,72.075,73.28666666666668,70.0,119.0
74,75.275,75.40166666666667,81.0,119.0
75,75.275,75.47500000000001,69.0,117.0
76,75.47500000000001,75.67166666666667,79.0,107.0
77,75.67500000000001,75.88000000000001,77.0,114.0
78,75.875,75.94500000000001,74.0,110.0
79,76.075,76.23333333333333,70.0,119.0
80,76.275,76.455,69.0,94.0
81,76.47500000000001,76.67,65.0,107.0
82,76.67500000000001,76.83,62.0,104.0
83,76.875,78.41000000000001,67.0,117.0
84,78.47500000000001,80.10000000000001,69.0,119.0
85,80.075,80.79333333333334,70.0,123.0
86,80.875,81.53500000000001,72.0,116.0
87,81.67500000000001,83.29166666666667,74.0,119.0
88,83.275,84.91833333333334,72.0,119.0
89,84.875,88.075,70.0,116.0
90,88.075,89.67500000000001,69.0,117.0
91,93.075,93.29666666666667,55.0,96.0
92,93.275,93.37666666666668,58.0,100.0
93,93.47500000000001,93.63166666666667,60.0,96.0
94,93.67500000000001,93.87166666666667,62.0,116.0
95,93.875,94.09666666666668,67.0,107.0
96,94.075,94.17500000000001,70.0,95.0
97,94.275,94.42666666666668,72.0,104.0
98,94.47500000000001,94.65166666666667,70.0,103.0
99,94.67500000000001,94.94166666666668,67.0,92.0
100,94.875,95.0,70.0,119.0
101,95.075,95.20500000000001,72.0,114.0
102,95.275,95.46666666666667,74.0,114.0
103,95.47500000000001,95.715,77.0,108.0
104,95.67500000000001,95.79666666666667,79.0,104.0
105,95.875,96.06500000000001,82.0,113.0
106,96.075,96.28,84.0,116.0
107,96.47500000000001,96.56166666666667,81.0,116.0
108,96.67500000000001,96.76,81.0,108.0
109,96.875,97.07166666666667,81.0,117.0
110,97.075,97.17666666666668,77.0,96.0
111,97.275,97.37833333333334,77.0,100.0
112,97.47500000000001,97.59166666666667,77.0,104.0
113,97.67500000000001,97.87333333333333,77.0,104.0
114,97.875,98.075,74.0,102.0
115,98.075,98.27666666666667,74.0,113.0
116,99.67500000000001,100.04,74.0,113.0
117,100.075,100.37833333333334,72.0,116.0
118,100.67500000000001,100.83333333333334,72.0,107.0
119,100.875,101.06833333333334,74.0,108.0
120,101.075,101.28,72.0,107.0
121,101.275,101.39,70.0,106.0
122,101.47500000000001,101.77166666666668,79.0,117.0
123,102.67500000000001,102.91666666666667,67.0,104.0
124,102.875,103.01333333333334,70.0,113.0
125,103.075,103.20333333333333,79.0,113.0
126,103.275,103.52333333333334,82.0,117.0
127,103.47500000000001,103.67333333333335,84.0,110.0
128,103.67500000000001,103.87,86.0,114.0
129,103.875,104.05833333333334,87.0,116.0
130,104.075,104.415,86.0,119.0
131,105.67500000000001,106.52666666666667,91.0,117.0
132,107.275,107.50500000000001,91.0,117.0
133,107.47500000000001,107.665,89.0,110.0
134,107.67500000000001,107.86833333333334,86.0,104.0
135,107.875,108.17,89.0,117.0
136,108.875,109.04,94.0,119.0
137,109.075,109.17666666666668,91.0,107.0
138,109.275,109.39166666666668,91.0,110.0
139,109.47500000000001,109.54833333333335,91.0,91.0
140,109.67500000000001,109.85333333333334,91.0,113.0
141,109.875,109.965,89.0,108.0
142,110.075,110.16333333333334,89.0,107.0
143,110.275,110.36333333333334,89.0,104.0
144,110.47500000000001,110.575,89.0,108.0
145,110.67500000000001,110.88833333333334,91.0,102.0
146,110.87500000000001,111.06833333333334,89.0,96.0
147,111.075,111.33666666666667,86.0,110.0
148,112.275,112.51833333333335,79.0,108.0
149,112.47500000000001,112.61000000000001,82.0,97.0
150,112.67500000000001,112.84166666666667,86.0,110.0
151,112.87500000000001,113.12,84.0,116.0
152,113.275,113.49166666666667,82.0,116.0
153,113.47500000000001,113.63000000000001,84.0,107.0
154,113.67500000000001,113.92166666666668,86.0,104.0
155,113.87500000000001,114.08833333333334,84.0,107.0
156,114.075,114.24333333333334,82.0,113.0
157,114.275,114.57000000000001,79.0,108.0
158,115.275,115.885,94.0,126.0
159,116.075,116.32000000000001,96.0,120.0
160,116.47500000000001,116.68666666666667,94.0,119.0
161,116.87500000000001,117.01833333333335,74.0,114.0
162,117.075,117.22500000000001,79.0,98.0
163,117.275,117.41000000000001,81.0,108.0
164,117.47500000000001,117.72000000000001,84.0,113.0
165,116.87500000000001,117.72333333333334,93.0,120.0
166,117.67500000000001,117.91333333333334,82.0,113.0
167,117.87500000000001,118.09833333333334,81.0,108.0
168,118.075,118.23500000000001,79.0,110.0
169,118.275,118.49166666666667,77.0,98.0
170,118.47500000000001,119.295,79.0,116.0
171,120.47500000000001,120.78500000000001,74.0,119.0
172,120.87500000000001,121.185,82.0,119.0
173,121.275,121.66833333333334,81.0,108.0
174,121.67500000000001,121.94166666666668,79.0,107.0
175,125.275,125.35166666666667,79.0,110.0
176,125.67500000000001,126.03,79.0,110.0
177,126.075,126.31,77.0,91.0
178,126.47500000000001,126.87500000000001,77.0,90.0
179,126.87500000000001,127.06833333333334,70.0,109.0
180,127.275,127.45166666666667,72.0,104.0
181,127.47500000000001,127.63833333333334,70.0,95.0
182,127.67500000000001,127.87166666666667,67.0,88.0
183,127.87500000000001,128.06666666666666,65.0,84.0
184,128.07500000000002,128.52833333333334,67.0,84.0
185,132.875,133.20000000000002,67.0,108.0
186,133.275,133.6316666666667,79.0,104.0
187,133.675,134.07500000000002,77.0,94.0
188,134.07500000000002,134.47500000000002,72.0,100.0
189,134.47500000000002,134.96,70.0,97.0
190,140.07500000000002,140.41333333333336,70.0,113.0
191,140.47500000000002,140.84,72.0,89.0
192,140.875,141.175,75.0,109.0
193,141.07500000000002,141.23000000000002,79.0,87.0
194,141.275,141.38833333333335,81.0,91.0
195,141.47500000000002,141.585,82.0,88.0
196,141.675,141.85333333333335,81.0,89.0
197,141.875,141.955,79.0,76.0
198,144.47500000000002,144.56833333333336,74.0,89.0
199,144.47500000000002,144.58333333333334,86.0,107.0
200,144.875,144.97,74.0,94.0
201,144.875,144.98333333333335,86.0,113.0
202,145.275,145.365,86.0,110.0
203,145.275,145.36666666666667,74.0,94.0
204,145.675,145.84833333333333,86.0,116.0
205,145.675,145.85500000000002,74.0,102.0
206,145.875,145.96833333333333,62.0,107.0
207,146.07500000000002,146.16833333333335,67.0,107.0
208,146.275,146.35000000000002,69.0,108.0
209,146.47500000000002,146.60833333333335,70.0,113.0
210,146.675,146.86166666666668,69.0,98.0
211,146.875,147.05333333333334,67.0,100.0
212,147.07500000000002,147.21666666666667,65.0,102.0
213,147.275,147.6616666666667,67.0,110.0
214,148.875,150.37333333333333,69.0,120.0
215,150.47500000000002,151.04500000000002,70.0,114.0
216,151.275,151.965,72.0,113.0
217,152.07500000000002,152.70166666666668,74.0,117.0
218,153.675,154.44500000000002,72.0,114.0
219,155.275,156.48666666666668,70.0,119.0
220,158.47500000000002,158.6016666666667,81.0,119.0
221,158.47500000000002,158.675,69.0,117.0
222,158.675,158.87166666666667,79.0,107.0
223,158.875,159.08,77.0,114.0
224,159.07500000000002,159.145,74.0,110.0
225,159.275,159.43333333333334,70.0,119.0
226,159.47500000000002,159.655,69.0,94.0
227,159.675,159.87,65.0,107.0
228,159.875,160.03,62.0,104.0
229,160.07500000000002,161.61,67.0,117.0
230,161.675,163.3,69.0,119.0
231,163.275,163.99333333333334,70.0,123.0
232,164.07500000000002,164.735,72.0,116.0
233,164.875,166.49166666666667,74.0,119.0
234,166.47500000000002,168.11833333333334,72.0,119.0
235,168.07500000000002,171.275,70.0,116.0
236,171.275,172.875,69.0,117.0
237,173.675,173.82666666666668,79.0,94.0
238,173.675,173.84833333333336,67.0,102.0
239,174.07500000000002,174.21,67.0,104.0
240,174.07500000000002,174.22500000000002,79.0,108.0
241,174.47500000000002,174.615,79.0,108.0
242,174.47500000000002,174.61833333333334,67.0,102.0
243,174.875,175.025,79.0,110.0
244,174.875,175.03333333333333,67.0,108.0
245,175.275,175.4116666666667,79.0,108.0
246,175.275,175.42333333333335,67.0,108.0
247,175.675,175.875,79.0,110.0
248,175.675,175.88333333333335,67.0,104.0
249,176.07500000000002,177.56,79.0,116.0
250,177.675,179.1316666666667,81.0,110.0
251,179.275,179.675,82.0,119.0
252,179.675,180.14666666666668,77.0,108.0
253,180.07500000000002,180.42333333333335,82.0,113.0
254,180.47500000000002,180.8216666666667,84.0,110.0
255,180.875,182.425,86.0,110.0
256,182.47500000000002,184.08,84.0,116.0
257,184.07500000000002,187.25,82.0,113.0
258,187.275,188.07500000000002,81.0,117.0
259,188.07500000000002,188.31,74.0,120.0
260,188.275,188.49833333333333,77.0,110.0
261,188.47500000000002,188.63500000000002,79.0,113.0
262,188.675,188.78833333333336,81.0,114.0
263,188.875,190.43833333333333,82.0,119.0
264,190.47500000000002,191.245,81.0,113.0
265,192.07500000000002,192.45833333333334,82.0,113.0
266,192.47500000000002,192.91000000000003,81.0,113.0
267,192.875,193.21166666666667,82.0,116.0
268,193.275,193.61666666666667,84.0,116.0
269,193.675,195.275,86.0,119.0
270,195.275,196.9416666666667,84.0,117.0
271,196.875,200.01166666666668,82.0,116.0
272,200.07500000000002,201.69333333333336,81.0,116.0
273,201.675,203.22833333333335,82.0,113.0
274,204.875,205.57500000000002,86.0,113.0
275,205.675,205.77833333333334,82.0,85.0
276,206.07500000000002,206.17833333333334,84.0,85.0
277,206.275,206.4466666666667,82.0,86.0
278,206.47500000000002,207.25333333333336,81.0,102.0
279,207.675,208.07500000000002,77.0,92.0
280,208.07500000000002,208.61333333333334,79.0,90.0
