,start,end,pitch,velocity
0,13.275,13.453333333333335,79.0,113.0
1,13.475000000000001,13.631666666666668,77.0,110.0
2,13.675,14.033333333333335,79.0,114.0
3,14.075000000000001,14.251666666666667,77.0,113.0
4,14.275,14.501666666666667,77.0,107.0
5,14.475000000000001,14.706666666666667,79.0,114.0
6,14.875000000000002,15.13,77.0,113.0
7,15.275,15.418333333333335,74.0,104.0
8,15.475000000000001,15.680000000000001,72.0,98.0
9,15.675,15.931666666666668,70.0,106.0
10,16.075,16.596666666666668,74.0,108.0
11,19.675,19.77166666666667,72.0,104.0
12,19.875,19.950000000000003,72.0,93.0
13,20.075000000000003,20.34,72.0,107.0
14,20.475,20.67666666666667,70.0,106.0
15,20.875,21.14166666666667,74.0,113.0
16,21.275000000000002,21.531666666666666,72.0,110.0
17,21.675,21.963333333333335,70.0,116.0
18,21.875,22.168333333333333,67.0,102.0
19,22.275000000000002,22.623333333333335,65.0,96.0
20,22.875,23.240000000000002,67.0,104.0
21,26.275000000000002,26.41,67.0,93.0
22,26.475,26.685000000000002,70.0,116.0
23,26.875,27.048333333333336,70.0,116.0
24,27.075000000000003,27.173333333333336,67.0,107.0
25,27.275000000000002,27.508333333333336,74.0,117.0
26,27.675,27.881666666666668,72.0,116.0
27,28.475,28.60666666666667,74.0,116.0
28,28.675,28.74666666666667,77.0,107.0
29,28.875000000000004,29.05,79.0,116.0
30,29.275000000000002,29.51666666666667,79.0,117.0
31,29.675,29.92666666666667,77.0,119.0
32,30.075000000000003,30.31666666666667,72.0,114.0
33,30.475,30.768333333333334,74.0,117.0
34,32.475,32.580000000000005,79.0,114.0
35,32.675000000000004,32.78,79.0,104.0
36,32.875,33.05166666666667,79.0,114.0
37,33.275000000000006,33.43333333333334,79.0,116.0
38,33.475,33.641666666666666,82.0,113.0
39,33.675000000000004,33.92166666666667,81.0,113.0
40,34.075,34.233333333333334,79.0,108.0
41,34.275000000000006,34.48666666666667,81.0,117.0
42,34.675000000000004,34.85666666666667,79.0,110.0
43,34.875,34.96666666666667,77.0,100.0
44,35.075,35.163333333333334,79.0,102.0
45,35.275000000000006,35.52333333333333,79.0,114.0
46,38.875,39.053333333333335,79.0,113.0
47,39.075,39.23166666666667,77.0,110.0
48,39.275000000000006,39.63333333333333,79.0,114.0
49,39.675000000000004,39.85166666666667,77.0,113.0
50,39.875,40.10166666666667,77.0,107.0
51,40.075,40.30666666666667,79.0,114.0
52,40.475,40.730000000000004,77.0,113.0
53,40.875,41.01833333333334,74.0,104.0
54,41.075,41.28,72.0,98.0
55,41.275000000000006,41.531666666666666,70.0,106.0
56,41.675000000000004,42.19666666666667,74.0,108.0
57,45.275000000000006,45.37166666666667,72.0,104.0
58,45.475,45.550000000000004,72.0,93.0
59,45.675000000000004,45.940000000000005,72.0,107.0
60,46.075,46.27666666666667,70.0,106.0
61,46.475,46.74166666666667,74.0,113.0
62,46.875,47.13166666666667,72.0,110.0
63,47.275000000000006,47.56333333333334,70.0,116.0
64,47.475,47.76833333333334,67.0,102.0
65,47.875,48.223333333333336,65.0,96.0
66,48.475,48.84,67.0,104.0
67,51.875,52.010000000000005,67.0,93.0
68,52.075,52.285000000000004,70.0,116.0
69,52.475,52.64833333333333,70.0,116.0
70,52.675000000000004,52.77333333333333,67.0,107.0
71,52.875,53.108333333333334,74.0,117.0
72,53.275000000000006,53.48166666666667,72.0,116.0
73,54.075,54.20666666666667,74.0,116.0
74,54.275000000000006,54.34666666666667,77.0,107.0
75,54.475,54.650000000000006,79.0,116.0
76,54.875,55.11666666666667,79.0,117.0
77,55.275000000000006,55.52666666666667,77.0,119.0
78,55.675000000000004,55.91666666666667,72.0,114.0
79,56.075,56.36833333333334,74.0,117.0
80,58.075,58.18833333333334,79.0,114.0
81,58.275000000000006,58.373333333333335,79.0,114.0
82,58.475,58.67666666666667,79.0,116.0
83,58.87500000000001,58.98166666666667,79.0,119.0
84,59.075,59.175000000000004,79.0,117.0
85,59.275000000000006,59.44666666666667,79.0,119.0
86,59.475,59.615,82.0,123.0
87,60.075,60.32666666666667,82.0,123.0
88,60.475,60.72166666666667,79.0,117.0
89,60.87500000000001,61.085,81.0,119.0
90,61.275000000000006,61.775000000000006,81.0,123.0
91,63.275000000000006,63.57833333333334,82.0,123.0
92,63.675000000000004,63.96666666666667,81.0,119.0
93,64.075,64.39,79.0,117.0
94,64.675,64.76333333333334,79.0,116.0
95,64.875,65.18,79.0,116.0
96,65.275,65.52833333333334,77.0,119.0
97,65.675,65.97666666666667,74.0,120.0
98,66.47500000000001,66.70833333333334,82.0,123.0
99,66.875,67.06833333333334,81.0,120.0
100,67.275,67.59833333333334,79.0,120.0
101,67.875,67.99166666666667,79.0,117.0
102,68.075,68.305,79.0,117.0
103,68.47500000000001,68.73666666666666,86.0,120.0
104,68.875,69.25500000000001,86.0,123.0
105,70.075,70.16166666666668,86.0,119.0
106,70.275,70.39666666666668,86.0,113.0
107,70.47500000000001,70.665,84.0,119.0
108,70.875,71.04333333333334,84.0,120.0
109,71.275,71.485,84.0,120.0
110,71.67500000000001,71.85166666666667,84.0,119.0
111,71.875,72.045,86.0,108.0
112,72.075,72.26666666666667,84.0,116.0
113,72.275,72.49833333333333,82.0,116.0
114,72.67500000000001,72.94833333333334,79.0,117.0
115,73.275,73.455,79.0,116.0
116,73.47500000000001,73.66666666666667,81.0,116.0
117,73.67500000000001,73.77166666666668,82.0,113.0
118,73.875,73.97333333333334,82.0,106.0
119,74.075,74.165,82.0,106.0
120,74.275,74.36166666666666,82.0,109.0
121,74.47500000000001,74.58333333333334,82.0,119.0
122,74.67500000000001,74.81,84.0,117.0
123,75.075,75.19166666666668,82.0,119.0
124,75.275,75.63666666666667,81.0,120.0
125,76.075,76.37833333333334,82.0,123.0
126,76.47500000000001,76.76666666666667,81.0,119.0
127,76.875,77.19000000000001,79.0,117.0
128,77.47500000000001,77.56333333333333,79.0,116.0
129,77.67500000000001,77.98,79.0,116.0
130,78.075,78.32833333333333,77.0,119.0
131,78.47500000000001,78.77666666666667,74.0,120.0
132,79.275,79.50833333333334,82.0,123.0
133,79.67500000000001,79.86833333333334,81.0,120.0
134,80.075,80.39833333333334,79.0,120.0
135,80.67500000000001,80.79166666666667,79.0,117.0
136,80.875,81.105,79.0,117.0
137,81.275,81.53666666666668,86.0,120.0
138,81.67500000000001,82.055,86.0,123.0
139,82.875,82.96166666666667,86.0,119.0
140,83.075,83.19666666666667,86.0,113.0
141,83.275,83.465,84.0,119.0
142,83.67500000000001,83.84333333333333,84.0,120.0
143,84.075,84.28500000000001,84.0,120.0
144,84.47500000000001,84.65166666666667,84.0,119.0
145,84.67500000000001,84.845,86.0,108.0
146,84.875,85.06666666666668,84.0,116.0
147,85.075,85.29833333333333,82.0,116.0
148,85.47500000000001,85.74833333333333,79.0,117.0
149,86.075,86.25500000000001,79.0,116.0
150,86.275,86.46666666666667,81.0,116.0
151,86.47500000000001,86.57166666666667,82.0,113.0
152,86.67500000000001,86.77333333333334,82.0,106.0
153,86.875,86.965,82.0,106.0
154,87.075,87.16166666666668,82.0,109.0
155,87.275,87.38333333333334,82.0,119.0
156,87.47500000000001,87.61,84.0,117.0
157,88.075,88.19166666666668,81.0,119.0
158,88.875,89.095,81.0,117.0
159,89.275,89.48333333333333,82.0,119.0
160,89.67500000000001,89.93333333333334,81.0,119.0
161,90.47500000000001,90.80166666666668,79.0,117.0
162,122.075,122.25333333333334,79.0,113.0
163,122.275,122.43166666666667,77.0,110.0
164,122.47500000000001,122.83333333333334,79.0,114.0
165,122.87500000000001,123.05166666666668,77.0,113.0
166,123.075,123.30166666666668,77.0,107.0
167,123.275,123.50666666666667,79.0,114.0
168,123.67500000000001,123.93,77.0,113.0
169,124.075,124.21833333333335,74.0,104.0
170,124.275,124.48,72.0,98.0
171,124.47500000000001,124.73166666666667,70.0,106.0
172,124.87500000000001,125.39666666666668,74.0,108.0
173,128.475,128.5716666666667,72.0,104.0
174,128.675,128.75,72.0,93.0
175,128.875,129.14000000000001,72.0,107.0
176,129.275,129.4766666666667,70.0,106.0
177,129.675,129.94166666666666,74.0,113.0
178,130.07500000000002,130.33166666666668,72.0,110.0
179,130.475,130.76333333333335,70.0,116.0
180,130.675,130.96833333333333,67.0,102.0
181,131.07500000000002,131.42333333333335,65.0,96.0
182,131.675,132.04000000000002,67.0,104.0
183,135.07500000000002,135.21,67.0,93.0
184,135.275,135.485,70.0,116.0
185,135.675,135.84833333333333,70.0,116.0
186,135.875,135.97333333333333,67.0,107.0
187,136.07500000000002,136.30833333333334,74.0,117.0
188,136.47500000000002,136.68166666666667,72.0,116.0
189,137.275,137.40666666666667,74.0,116.0
190,137.47500000000002,137.54666666666668,77.0,107.0
191,137.675,137.85000000000002,79.0,116.0
192,138.07500000000002,138.31666666666666,79.0,117.0
193,138.47500000000002,138.7266666666667,77.0,119.0
194,138.875,139.11666666666667,72.0,114.0
195,139.275,139.56833333333336,74.0,117.0
196,141.275,141.38833333333335,79.0,114.0
197,141.47500000000002,141.57333333333335,79.0,114.0
198,141.675,141.87666666666667,79.0,116.0
199,142.07500000000002,142.18166666666667,79.0,119.0
200,142.275,142.375,79.0,117.0
201,142.47500000000002,142.64666666666668,79.0,119.0
202,142.675,142.815,82.0,123.0
203,143.275,143.52666666666667,82.0,123.0
204,143.675,143.92166666666668,79.0,117.0
205,144.07500000000002,144.285,81.0,119.0
206,144.47500000000002,144.97500000000002,81.0,123.0
207,146.47500000000002,146.77833333333334,82.0,123.0
208,146.875,147.16666666666669,81.0,119.0
209,147.275,147.59,79.0,117.0
210,147.875,147.96333333333334,79.0,116.0
211,148.07500000000002,148.38,79.0,116.0
212,148.47500000000002,148.72833333333335,77.0,119.0
213,148.875,149.17666666666668,74.0,120.0
214,149.675,149.90833333333333,82.0,123.0
215,150.07500000000002,150.26833333333335,81.0,120.0
216,150.47500000000002,150.79833333333335,79.0,120.0
217,151.07500000000002,151.19166666666666,79.0,117.0
218,151.275,151.50500000000002,79.0,117.0
219,151.675,151.93666666666667,86.0,120.0
220,152.07500000000002,152.455,86.0,123.0
221,153.275,153.36166666666668,86.0,119.0
222,153.47500000000002,153.59666666666666,86.0,113.0
223,153.675,153.865,84.0,119.0
224,154.07500000000002,154.24333333333334,84.0,120.0
225,154.47500000000002,154.685,84.0,120.0
226,154.875,155.05166666666668,84.0,119.0
227,155.07500000000002,155.245,86.0,108.0
228,155.275,155.46666666666667,84.0,116.0
229,155.47500000000002,155.69833333333335,82.0,116.0
230,155.875,156.14833333333334,79.0,117.0
231,156.47500000000002,156.655,79.0,116.0
232,156.675,156.86666666666667,81.0,116.0
233,156.875,156.97166666666666,82.0,113.0
234,157.07500000000002,157.17333333333335,82.0,106.0
235,157.275,157.365,82.0,106.0
236,157.47500000000002,157.56166666666667,82.0,109.0
237,157.675,157.78333333333333,82.0,119.0
238,157.875,158.01000000000002,84.0,117.0
239,158.275,158.39166666666668,82.0,119.0
240,158.47500000000002,158.83666666666667,81.0,120.0
241,159.275,159.57833333333335,82.0,123.0
242,159.675,159.96666666666667,81.0,119.0
243,160.07500000000002,160.39000000000001,79.0,117.0
244,160.675,160.76333333333335,79.0,116.0
245,160.875,161.18,79.0,116.0
246,161.275,161.52833333333334,77.0,119.0
247,161.675,161.9766666666667,74.0,120.0
248,162.47500000000002,162.70833333333334,82.0,123.0
249,162.875,163.06833333333336,81.0,120.0
250,163.275,163.59833333333336,79.0,120.0
251,163.875,163.99166666666667,79.0,117.0
252,164.07500000000002,164.305,79.0,117.0
253,164.47500000000002,164.73666666666668,86.0,120.0
254,164.875,165.25500000000002,86.0,123.0
255,166.07500000000002,166.1616666666667,86.0,119.0
256,166.275,166.39666666666668,86.0,113.0
257,166.47500000000002,166.66500000000002,84.0,119.0
258,166.875,167.04333333333335,84.0,120.0
259,167.275,167.485,84.0,120.0
260,167.675,167.8516666666667,84.0,119.0
261,167.875,168.04500000000002,86.0,108.0
262,168.07500000000002,168.26666666666668,84.0,116.0
263,168.275,168.49833333333333,82.0,116.0
264,168.675,168.94833333333335,79.0,117.0
265,169.275,169.455,79.0,116.0
266,169.47500000000002,169.66666666666669,81.0,116.0
267,169.675,169.77166666666668,82.0,113.0
268,169.875,169.97333333333336,82.0,106.0
269,170.07500000000002,170.16500000000002,82.0,106.0
270,170.275,170.36166666666668,82.0,109.0
271,170.47500000000002,170.58333333333334,82.0,119.0
272,170.675,170.81,84.0,117.0
273,171.275,171.39166666666668,81.0,119.0
274,172.07500000000002,172.29500000000002,81.0,117.0
275,172.47500000000002,172.68333333333334,82.0,119.0
276,172.875,173.13333333333335,81.0,119.0
277,173.675,174.00166666666667,79.0,117.0
278,175.275,175.57833333333335,82.0,123.0
279,175.675,175.96666666666667,81.0,119.0
280,176.07500000000002,176.39000000000001,79.0,117.0
281,176.675,176.76333333333335,79.0,116.0
282,176.875,177.18,79.0,116.0
283,177.275,177.52833333333334,77.0,119.0
284,177.675,177.9766666666667,74.0,120.0
285,178.47500000000002,178.70833333333334,82.0,123.0
286,178.875,179.06833333333336,81.0,120.0
287,179.275,179.59833333333336,79.0,120.0
288,179.875,179.99166666666667,79.0,117.0
289,180.07500000000002,180.305,79.0,117.0
290,180.47500000000002,180.73666666666668,86.0,120.0
291,180.875,181.25500000000002,86.0,123.0
292,182.07500000000002,182.1616666666667,86.0,119.0
293,182.275,182.39666666666668,86.0,113.0
294,182.47500000000002,182.66500000000002,84.0,119.0
295,182.875,183.04333333333335,84.0,120.0
296,183.275,183.485,84.0,120.0
297,183.675,183.8516666666667,84.0,119.0
298,183.875,184.04500000000002,86.0,108.0
299,184.07500000000002,184.26666666666668,84.0,116.0
300,184.275,184.49833333333333,82.0,116.0
301,184.675,184.94833333333335,79.0,117.0
302,185.275,185.455,79.0,116.0
303,185.47500000000002,185.66666666666669,81.0,116.0
304,185.675,185.77166666666668,82.0,113.0
305,185.875,185.97333333333336,82.0,106.0
306,186.07500000000002,186.16500000000002,82.0,106.0
307,186.275,186.36166666666668,82.0,109.0
308,186.47500000000002,186.58333333333334,82.0,119.0
309,186.675,186.81,84.0,117.0
310,187.07500000000002,187.1916666666667,82.0,119.0
311,187.275,187.63666666666668,81.0,120.0
312,188.07500000000002,188.37833333333336,82.0,123.0
313,188.47500000000002,188.76666666666668,81.0,119.0
314,188.875,189.19000000000003,79.0,117.0
315,189.47500000000002,189.56333333333333,79.0,116.0
316,189.675,189.98000000000002,79.0,116.0
317,190.07500000000002,190.32833333333335,77.0,119.0
318,190.47500000000002,190.77666666666667,74.0,120.0
319,191.275,191.50833333333335,82.0,123.0
320,191.675,191.86833333333334,81.0,120.0
321,192.07500000000002,192.39833333333334,79.0,120.0
322,192.675,192.79166666666669,79.0,117.0
323,192.875,193.10500000000002,79.0,117.0
324,193.275,193.5366666666667,86.0,120.0
325,193.675,194.055,86.0,123.0
326,194.875,194.96166666666667,86.0,119.0
327,195.07500000000002,195.1966666666667,86.0,113.0
328,195.275,195.465,84.0,119.0
329,195.675,195.84333333333333,84.0,120.0
330,196.07500000000002,196.28500000000003,84.0,120.0
331,196.47500000000002,196.65166666666667,84.0,119.0
332,196.675,196.845,86.0,108.0
333,196.875,197.0666666666667,84.0,116.0
334,197.07500000000002,197.29833333333335,82.0,116.0
335,197.47500000000002,197.74833333333333,79.0,117.0
336,198.07500000000002,198.25500000000002,79.0,116.0
337,198.275,198.46666666666667,81.0,116.0
338,198.47500000000002,198.5716666666667,82.0,113.0
339,198.675,198.77333333333334,82.0,106.0
340,198.875,198.965,82.0,106.0
341,199.07500000000002,199.1616666666667,82.0,109.0
342,199.275,199.38333333333335,82.0,119.0
343,199.47500000000002,199.61,84.0,117.0
344,200.07500000000002,200.1916666666667,81.0,119.0
345,200.875,201.095,81.0,117.0
346,201.275,201.48333333333335,82.0,119.0
347,201.675,201.93333333333334,81.0,119.0
348,202.47500000000002,202.80166666666668,79.0,117.0
