,start,end,pitch,velocity
0,0.07500000000000001,1.2650000000000001,70.0,76.0
1,0.07500000000000001,1.3133333333333335,55.0,80.0
2,0.07500000000000001,1.3166666666666667,62.0,68.0
3,0.07500000000000001,1.3383333333333334,67.0,70.0
4,1.675,2.8800000000000003,60.0,65.0
5,1.675,2.8883333333333336,65.0,79.0
6,1.675,2.9183333333333334,53.0,76.0
7,1.675,2.9233333333333333,69.0,77.0
8,3.2750000000000004,3.901666666666667,67.0,78.0
9,3.2750000000000004,3.91,63.0,75.0
10,3.2750000000000004,3.936666666666667,60.0,73.0
11,3.2750000000000004,3.966666666666667,48.0,76.0
12,4.075,4.595000000000001,60.0,76.0
13,4.075,4.615,69.0,84.0
14,4.075,4.663333333333334,65.0,83.0
15,4.075,4.708333333333334,53.0,78.0
16,4.875,6.046666666666667,46.0,70.0
17,4.875,6.163333333333334,70.0,71.0
18,4.875,6.241666666666667,62.0,73.0
19,4.875,6.253333333333334,58.0,73.0
20,4.875,6.275,65.0,78.0
21,6.4750000000000005,6.9350000000000005,67.0,84.0
22,6.4750000000000005,6.955,63.0,83.0
23,6.4750000000000005,6.986666666666667,60.0,80.0
24,6.875,7.29,55.0,71.0
25,7.275,7.668333333333334,60.0,81.0
26,6.4750000000000005,7.683333333333334,48.0,83.0
27,7.275,7.686666666666667,63.0,83.0
28,7.275,7.6883333333333335,67.0,86.0
29,7.675000000000001,8.040000000000001,55.0,75.0
30,8.075000000000001,8.636666666666667,69.0,83.0
31,8.075000000000001,8.681666666666667,62.0,88.0
32,8.075000000000001,8.685,65.0,91.0
33,8.875,9.278333333333334,65.0,87.0
34,8.875,9.286666666666667,62.0,82.0
35,8.875,9.305,69.0,87.0
36,8.075000000000001,9.351666666666667,50.0,83.0
37,9.675,9.968333333333334,62.0,83.0
38,9.675,10.088333333333335,67.0,87.0
39,9.675,10.243333333333334,70.0,81.0
40,10.875,11.256666666666668,69.0,86.0
41,10.075000000000001,11.701666666666668,62.0,66.0
42,9.675,11.761666666666667,55.0,77.0
43,10.475000000000001,11.8,67.0,83.0
44,11.275,11.851666666666667,70.0,84.0
45,14.075000000000001,14.99,70.0,56.0
46,14.475000000000001,15.4,74.0,75.0
47,13.275,15.541666666666668,62.0,62.0
48,12.875,15.608333333333334,55.0,83.0
49,15.275,15.760000000000002,70.0,65.0
50,13.675,15.943333333333335,67.0,70.0
51,17.275000000000002,18.003333333333334,72.0,82.0
52,16.475,18.12666666666667,60.0,63.0
53,16.075,18.756666666666668,53.0,81.0
54,16.875,19.068333333333335,65.0,71.0
55,18.075000000000003,19.248333333333335,69.0,81.0
56,20.075000000000003,20.495,63.0,80.0
57,19.275000000000002,20.585,51.0,79.0
58,20.475,20.935000000000002,70.0,78.0
59,20.475,20.950000000000003,67.0,77.0
60,21.275000000000002,22.013333333333335,60.0,75.0
61,20.875,22.068333333333335,53.0,82.0
62,22.075000000000003,22.488333333333333,69.0,81.0
63,21.675,22.563333333333336,65.0,79.0
64,23.675,24.061666666666667,74.0,85.0
65,23.275000000000002,24.153333333333336,67.0,71.0
66,24.075000000000003,24.76,72.0,71.0
67,22.475,25.241666666666667,55.0,76.0
68,22.875,25.273333333333333,62.0,71.0
69,24.875,25.291666666666668,70.0,89.0
70,25.275000000000002,25.698333333333334,69.0,90.0
71,25.675,26.903333333333336,51.0,79.0
72,26.075000000000003,26.963333333333335,63.0,85.0
73,26.875,27.388333333333335,70.0,82.0
74,26.475,27.430000000000003,67.0,87.0
75,27.675,28.453333333333337,60.0,80.0
76,27.275000000000002,28.51,53.0,87.0
77,28.475,28.935000000000002,69.0,88.0
78,28.075000000000003,28.945,65.0,84.0
79,28.875000000000004,30.148333333333337,50.0,88.0
80,29.275000000000002,30.150000000000002,57.0,80.0
81,29.675,30.51,62.0,85.0
82,30.075000000000003,30.52166666666667,65.0,86.0
83,30.875000000000004,31.608333333333334,62.0,83.0
84,30.475,31.721666666666668,55.0,81.0
85,31.275000000000002,32.43666666666667,67.0,93.0
86,31.675,32.43666666666667,70.0,113.0
87,32.475,33.358333333333334,63.0,80.0
88,32.075,33.36833333333333,51.0,85.0
89,32.875,33.763333333333335,67.0,87.0
90,32.875,33.89833333333333,74.0,91.0
91,33.275000000000006,33.93333333333334,70.0,86.0
92,33.675000000000004,34.93333333333334,53.0,89.0
93,34.075,34.98166666666667,60.0,82.0
94,34.475,35.190000000000005,72.0,83.0
95,34.475,35.39333333333334,65.0,86.0
96,34.875,35.47,69.0,83.0
97,36.075,36.455000000000005,70.0,103.0
98,36.475,36.86333333333334,69.0,91.0
99,35.675000000000004,37.288333333333334,62.0,87.0
100,36.875,37.54333333333334,74.0,92.0
101,36.875,37.550000000000004,67.0,89.0
102,37.475,38.06166666666667,62.0,98.0
103,35.275000000000006,38.083333333333336,55.0,91.0
104,37.675000000000004,38.085,69.0,107.0
105,38.475,38.89,74.0,89.0
106,38.475,39.016666666666666,67.0,88.0
107,38.075,39.04166666666667,70.0,103.0
108,38.875,39.391666666666666,62.0,78.0
109,38.475,39.733333333333334,55.0,87.0
110,39.275000000000006,39.75833333333333,67.0,89.0
111,39.275000000000006,39.836666666666666,74.0,88.0
112,39.275000000000006,40.02166666666667,70.0,91.0
113,40.075,40.2,70.0,64.0
114,40.475,40.62166666666667,74.0,80.0
115,40.475,40.733333333333334,67.0,87.0
116,40.475,41.080000000000005,55.0,88.0
117,40.875,41.23833333333334,69.0,110.0
118,39.675000000000004,41.278333333333336,62.0,80.0
119,41.275000000000006,41.62833333333334,70.0,87.0
120,42.875,43.403333333333336,74.0,107.0
121,43.275000000000006,43.67166666666667,69.0,88.0
122,42.475,43.70333333333333,62.0,82.0
123,41.675000000000004,43.885000000000005,50.0,85.0
124,42.075,44.12666666666667,57.0,83.0
125,43.675000000000004,44.45166666666667,65.0,89.0
126,44.075,44.50666666666667,50.0,87.0
127,44.475,44.91833333333334,62.0,85.0
128,44.875,46.083333333333336,51.0,85.0
129,45.275000000000006,46.11833333333334,63.0,82.0
130,45.675000000000004,46.13666666666667,67.0,88.0
131,46.075,46.43666666666667,70.0,95.0
132,46.475,47.09,72.0,86.0
133,46.475,47.14,65.0,84.0
134,46.475,47.218333333333334,69.0,83.0
135,47.275000000000006,47.693333333333335,69.0,89.0
136,46.475,47.75,53.0,87.0
137,47.675000000000004,47.91166666666667,65.0,86.0
138,48.075,48.495000000000005,67.0,85.0
139,48.075,48.50833333333334,70.0,81.0
140,48.875,49.23166666666667,69.0,104.0
141,49.275000000000006,49.708333333333336,70.0,93.0
142,48.475,49.785000000000004,62.0,80.0
143,49.675000000000004,50.31,67.0,86.0
144,50.475,50.71666666666667,74.0,107.0
145,50.675000000000004,50.89,72.0,98.0
146,48.075,51.035000000000004,55.0,87.0
147,50.275000000000006,51.09166666666667,62.0,88.0
148,50.875,51.29666666666667,69.0,89.0
149,51.675000000000004,52.163333333333334,63.0,79.0
150,51.275000000000006,52.5,51.0,91.0
151,52.075,52.725,70.0,103.0
152,52.475,52.72833333333334,63.0,85.0
153,52.075,52.81333333333334,67.0,90.0
154,52.875,53.225,72.0,87.0
155,52.875,53.473333333333336,69.0,93.0
156,52.875,53.47833333333334,65.0,88.0
157,53.675000000000004,54.11000000000001,72.0,83.0
158,53.675000000000004,54.115,65.0,87.0
159,53.675000000000004,54.125,69.0,89.0
160,52.875,54.215,53.0,85.0
161,54.475,54.928333333333335,69.0,84.0
162,54.475,54.96333333333334,62.0,79.0
163,54.475,54.97166666666667,65.0,86.0
164,54.875,55.27,57.0,73.0
165,54.475,55.705000000000005,50.0,87.0
166,55.275000000000006,55.76166666666667,69.0,88.0
167,55.275000000000006,55.78166666666667,65.0,92.0
168,55.275000000000006,55.96333333333334,62.0,88.0
169,55.675000000000004,56.08833333333334,57.0,86.0
170,56.075,56.655,70.0,85.0
171,56.075,56.66166666666667,62.0,88.0
172,56.075,56.74,67.0,88.0
173,56.075,57.226666666666674,55.0,83.0
174,56.87500000000001,57.39333333333334,62.0,94.0
175,56.87500000000001,57.44833333333334,70.0,86.0
176,56.87500000000001,57.48166666666667,67.0,91.0
177,57.675000000000004,58.04166666666667,70.0,85.0
178,57.675000000000004,58.64333333333334,63.0,88.0
179,57.675000000000004,58.65666666666667,51.0,84.0
180,58.475,59.155,70.0,103.0
181,58.475,59.17666666666667,67.0,93.0
182,58.87500000000001,59.25166666666667,51.0,85.0
183,59.275000000000006,59.848333333333336,72.0,88.0
184,59.275000000000006,59.87833333333334,69.0,91.0
185,59.275000000000006,59.88,65.0,89.0
186,60.075,60.51666666666667,65.0,86.0
187,60.075,60.535000000000004,69.0,87.0
188,60.075,60.55833333333334,72.0,84.0
189,59.275000000000006,60.64,53.0,87.0
190,60.87500000000001,61.205000000000005,62.0,90.0
191,60.87500000000001,61.278333333333336,66.0,93.0
192,60.87500000000001,61.29333333333334,69.0,90.0
193,61.475,61.865,62.0,89.0
194,61.675000000000004,62.20166666666667,74.0,108.0
195,62.075,62.34166666666667,62.0,84.0
196,61.675000000000004,62.55833333333334,66.0,93.0
197,62.475,62.66666666666667,69.0,108.0
198,62.475,62.68333333333334,74.0,102.0
199,63.075,63.538333333333334,81.0,85.0
200,63.075,63.58166666666667,78.0,84.0
201,63.275000000000006,63.598333333333336,86.0,113.0
202,63.075,63.64166666666667,74.0,79.0
203,60.87500000000001,63.705000000000005,50.0,93.0
204,61.275000000000006,63.748333333333335,57.0,79.0
205,62.475,63.81333333333334,62.0,88.0
206,64.075,64.465,67.0,102.0
207,64.075,64.51333333333334,70.0,95.0
208,64.675,64.815,67.0,83.0
209,64.47500000000001,64.95833333333334,62.0,88.0
210,64.875,65.32833333333333,67.0,93.0
211,65.275,65.36500000000001,62.0,88.0
212,64.075,65.39,55.0,91.0
213,65.275,65.67833333333334,70.0,90.0
214,64.875,66.235,74.0,102.0
215,65.675,66.24833333333333,65.0,91.0
216,65.675,66.265,69.0,98.0
217,66.275,66.84166666666667,62.0,94.0
218,65.675,66.85166666666667,50.0,88.0
219,66.075,66.87666666666667,57.0,79.0
220,66.47500000000001,67.19333333333334,65.0,104.0
221,66.47500000000001,67.26,74.0,89.0
222,66.875,67.49000000000001,69.0,104.0
223,67.275,67.86500000000001,51.0,100.0
224,67.47500000000001,67.86833333333334,63.0,86.0
225,67.67500000000001,68.12,67.0,91.0
226,67.875,68.33666666666667,70.0,109.0
227,68.275,68.58166666666668,60.0,87.0
228,68.075,68.60666666666667,53.0,98.0
229,68.47500000000001,68.915,65.0,94.0
230,68.67500000000001,68.95,69.0,102.0
231,69.275,69.78500000000001,58.0,89.0
232,68.875,70.07666666666667,46.0,100.0
233,70.075,70.29833333333333,58.0,91.0
234,69.67500000000001,70.38000000000001,62.0,98.0
235,69.67500000000001,70.46166666666667,65.0,110.0
236,69.67500000000001,70.47500000000001,70.0,97.0
237,71.075,71.41666666666667,60.0,88.0
238,70.47500000000001,71.69500000000001,48.0,98.0
239,70.875,71.70166666666667,55.0,77.0
240,71.275,71.795,63.0,103.0
241,71.275,72.00166666666667,72.0,91.0
242,71.67500000000001,72.08833333333334,60.0,87.0
243,72.075,72.67833333333334,74.0,94.0
244,72.075,72.68166666666667,70.0,90.0
245,72.075,72.69,67.0,89.0
246,72.67500000000001,73.01166666666667,62.0,88.0
247,73.275,73.36500000000001,62.0,90.0
248,72.075,73.385,55.0,90.0
249,72.875,73.75166666666667,74.0,98.0
250,72.875,73.78666666666668,67.0,98.0
251,74.275,74.42333333333333,67.0,87.0
252,74.075,74.605,63.0,87.0
253,74.47500000000001,74.92333333333333,67.0,89.0
254,73.67500000000001,74.99000000000001,51.0,106.0
255,74.875,75.02333333333334,63.0,100.0
256,74.47500000000001,75.235,74.0,107.0
257,74.47500000000001,75.25500000000001,70.0,109.0
258,75.67500000000001,75.92333333333333,66.0,109.0
259,75.875,76.24666666666667,69.0,114.0
260,76.275,76.495,66.0,113.0
261,75.275,76.51666666666667,50.0,108.0
262,76.075,76.52666666666667,62.0,116.0
263,75.47500000000001,76.54166666666667,57.0,88.0
264,76.47500000000001,76.78,69.0,110.0
265,76.67500000000001,77.48166666666667,74.0,104.0
266,76.875,77.50666666666667,70.0,109.0
267,76.875,77.52166666666668,67.0,96.0
268,77.47500000000001,77.84166666666667,62.0,90.0
269,76.875,77.90166666666667,55.0,92.0
270,77.67500000000001,78.15,67.0,98.0
271,78.075,78.19000000000001,55.0,102.0
272,77.67500000000001,78.36,74.0,100.0
273,77.67500000000001,78.38000000000001,70.0,119.0
274,78.47500000000001,78.92500000000001,74.0,88.0
275,78.47500000000001,78.98,69.0,108.0
276,78.47500000000001,79.00500000000001,65.0,96.0
277,78.47500000000001,79.595,50.0,88.0
278,79.075,79.62666666666667,62.0,93.0
279,78.875,79.65166666666667,57.0,79.0
280,79.275,79.74166666666667,65.0,104.0
281,79.275,79.765,69.0,107.0
282,80.075,80.72333333333334,70.0,106.0
283,80.075,80.77666666666667,51.0,100.0
284,80.075,80.80166666666668,67.0,100.0
285,80.875,81.27333333333334,53.0,86.0
286,80.875,81.305,69.0,110.0
287,80.875,81.32166666666667,65.0,96.0
288,80.875,81.35166666666667,72.0,100.0
289,81.67500000000001,82.25333333333334,62.0,102.0
290,81.67500000000001,82.28,70.0,97.0
291,81.67500000000001,82.29833333333333,65.0,110.0
292,82.275,82.57833333333333,58.0,93.0
293,82.47500000000001,82.80333333333334,62.0,117.0
294,81.67500000000001,82.90666666666667,46.0,97.0
295,82.47500000000001,82.94333333333334,70.0,109.0
296,82.67500000000001,82.94500000000001,58.0,109.0
297,82.875,83.07000000000001,65.0,114.0
298,83.075,83.25666666666667,67.0,87.0
299,83.275,83.83,72.0,92.0
300,83.275,83.84,63.0,106.0
301,83.275,83.85000000000001,67.0,89.0
302,83.875,84.17500000000001,60.0,84.0
303,84.075,84.42666666666668,63.0,103.0
304,84.075,84.46166666666667,72.0,107.0
305,84.075,84.48166666666667,67.0,113.0
306,83.275,84.49666666666667,48.0,96.0
307,84.47500000000001,84.78,60.0,87.0
308,84.875,85.16333333333334,62.0,107.0
309,84.875,85.45333333333333,67.0,100.0
310,84.875,85.48166666666667,70.0,91.0
311,85.47500000000001,85.89666666666668,62.0,90.0
312,84.875,85.94333333333334,55.0,92.0
313,86.075,86.17500000000001,62.0,89.0
314,85.67500000000001,86.47333333333334,70.0,113.0
315,85.67500000000001,86.48166666666667,67.0,116.0
316,86.47500000000001,86.48166666666667,67.0,91.0
317,86.47500000000001,86.94666666666667,70.0,106.0
318,86.875,87.29333333333334,63.0,83.0
319,86.47500000000001,87.68666666666667,51.0,100.0
320,87.275,87.70333333333333,67.0,100.0
321,87.275,87.90166666666667,70.0,116.0
322,87.67500000000001,88.03,63.0,86.0
323,88.075,88.51833333333335,69.0,88.0
324,88.075,88.53,62.0,88.0
325,88.075,88.555,66.0,91.0
326,88.47500000000001,88.93333333333334,57.0,77.0
327,88.875,89.36166666666668,69.0,90.0
328,88.075,89.38000000000001,50.0,89.0
329,89.275,89.38833333333334,57.0,87.0
330,88.875,89.46833333333333,62.0,92.0
331,88.875,89.58666666666667,66.0,95.0
332,89.67500000000001,89.97166666666668,67.0,87.0
333,89.67500000000001,89.995,70.0,85.0
334,89.67500000000001,90.09,62.0,89.0
335,90.075,90.52000000000001,55.0,76.0
336,90.47500000000001,90.83000000000001,67.0,92.0
337,90.47500000000001,90.85333333333334,62.0,94.0
338,90.875,91.525,55.0,83.0
339,91.275,91.81,58.0,89.0
340,91.275,91.82166666666667,67.0,102.0
341,91.275,91.83000000000001,62.0,96.0
342,91.875,92.24666666666667,55.0,88.0
343,89.67500000000001,92.56500000000001,43.0,90.0
344,92.075,92.64666666666668,67.0,108.0
345,92.075,92.67166666666667,58.0,100.0
346,92.47500000000001,92.75166666666668,62.0,85.0
347,92.875,93.45833333333334,62.0,93.0
348,92.875,93.47000000000001,70.0,91.0
349,93.67500000000001,93.95333333333333,62.0,107.0
350,92.875,94.0,43.0,91.0
351,93.875,94.17166666666667,67.0,89.0
352,94.075,94.34666666666668,70.0,86.0
353,93.47500000000001,94.35166666666667,55.0,86.0
354,94.47500000000001,95.04,62.0,89.0
355,94.47500000000001,95.09333333333333,69.0,102.0
356,94.47500000000001,95.11,65.0,96.0
357,95.275,95.50833333333334,69.0,113.0
358,95.47500000000001,95.70666666666668,62.0,110.0
359,94.47500000000001,95.73333333333333,50.0,89.0
360,95.075,95.735,57.0,86.0
361,95.67500000000001,95.91166666666668,65.0,107.0
362,95.875,96.09666666666668,74.0,94.0
363,96.075,96.63833333333334,67.0,91.0
364,96.075,96.68666666666667,51.0,93.0
365,96.67500000000001,96.76,63.0,36.0
366,96.075,96.81500000000001,70.0,106.0
367,96.875,97.28833333333334,69.0,102.0
368,96.875,97.29,53.0,90.0
369,96.875,97.50500000000001,72.0,94.0
370,96.875,97.58166666666668,65.0,91.0
371,97.67500000000001,98.22500000000001,62.0,91.0
372,97.67500000000001,98.26833333333335,70.0,86.0
373,97.67500000000001,98.30833333333334,65.0,91.0
374,98.275,98.56333333333333,58.0,93.0
375,98.47500000000001,98.87833333333334,62.0,108.0
376,98.47500000000001,98.89333333333335,70.0,109.0
377,97.67500000000001,98.89666666666668,46.0,91.0
378,98.875,99.08500000000001,58.0,84.0
379,99.275,99.77666666666667,72.0,104.0
380,99.275,99.88833333333334,63.0,106.0
381,99.875,100.215,60.0,87.0
382,99.275,100.48166666666667,48.0,91.0
383,100.075,100.55166666666668,63.0,103.0
384,100.075,100.55666666666667,72.0,96.0
385,100.47500000000001,100.88333333333334,60.0,84.0
386,100.875,101.19500000000001,62.0,93.0
387,100.875,101.45166666666667,67.0,104.0
388,100.875,101.47666666666667,70.0,87.0
389,101.47500000000001,102.11333333333334,62.0,90.0
390,101.67500000000001,102.12,67.0,102.0
391,100.875,102.13333333333334,55.0,86.0
392,102.075,102.52333333333334,70.0,103.0
393,102.47500000000001,102.52333333333334,70.0,103.0
394,102.47500000000001,103.06166666666667,67.0,91.0
395,103.075,103.39,63.0,95.0
396,103.275,103.73,67.0,102.0
397,102.47500000000001,103.75666666666667,51.0,97.0
398,103.67500000000001,103.77833333333334,63.0,86.0
399,103.67500000000001,103.85000000000001,70.0,69.0
400,104.075,104.39,74.0,96.0
401,104.075,104.50666666666667,66.0,86.0
402,104.67500000000001,104.83833333333334,66.0,97.0
403,104.47500000000001,104.94833333333334,62.0,104.0
404,104.875,105.15666666666668,69.0,116.0
405,104.075,105.30166666666668,50.0,89.0
406,104.275,105.31,57.0,88.0
407,105.275,105.61166666666668,74.0,107.0
408,105.075,105.61833333333334,62.0,113.0
409,105.275,105.625,69.0,102.0
410,105.67500000000001,106.26166666666667,70.0,113.0
411,105.67500000000001,106.28500000000001,67.0,98.0
412,105.67500000000001,106.29666666666667,74.0,90.0
413,106.275,106.59500000000001,62.0,88.0
414,105.67500000000001,106.92333333333335,55.0,100.0
415,106.47500000000001,107.12,67.0,104.0
416,106.47500000000001,107.13000000000001,74.0,102.0
417,106.875,107.23,70.0,103.0
418,107.275,108.13666666666667,65.0,98.0
419,107.275,108.16000000000001,74.0,89.0
420,107.275,108.19666666666667,69.0,102.0
421,107.67500000000001,108.42333333333335,57.0,77.0
422,108.075,108.47500000000001,62.0,110.0
423,107.275,108.48166666666667,50.0,86.0
424,108.275,108.52333333333334,65.0,91.0
425,108.47500000000001,108.75333333333334,69.0,110.0
426,108.67500000000001,109.04,74.0,104.0
427,108.875,109.62333333333333,51.0,103.0
428,108.875,109.63833333333334,70.0,100.0
429,109.67500000000001,110.07666666666667,69.0,102.0
430,109.67500000000001,110.10166666666667,53.0,87.0
431,109.67500000000001,110.12,65.0,91.0
432,109.67500000000001,110.20500000000001,72.0,102.0
433,110.47500000000001,111.10000000000001,62.0,87.0
434,110.47500000000001,111.135,65.0,92.0
435,110.47500000000001,111.13833333333334,70.0,88.0
436,111.075,111.34666666666668,58.0,103.0
437,110.47500000000001,111.64500000000001,46.0,86.0
438,111.275,111.65666666666668,62.0,110.0
439,111.47500000000001,111.72833333333334,58.0,103.0
440,111.275,111.75500000000001,70.0,88.0
441,111.67500000000001,111.80833333333334,65.0,88.0
442,112.075,112.62833333333334,72.0,96.0
443,112.075,112.65,63.0,95.0
444,112.67500000000001,112.97666666666667,60.0,85.0
445,112.87500000000001,113.295,63.0,93.0
446,112.87500000000001,113.31166666666667,72.0,92.0
447,112.075,113.52333333333334,48.0,90.0
448,113.275,113.55166666666668,60.0,82.0
449,113.67500000000001,114.25833333333334,70.0,87.0
450,113.67500000000001,114.29833333333335,62.0,89.0
451,113.67500000000001,114.36333333333334,67.0,98.0
452,113.67500000000001,114.63166666666667,55.0,86.0
453,114.47500000000001,114.92500000000001,62.0,94.0
454,114.47500000000001,114.97666666666667,67.0,107.0
455,114.47500000000001,114.98333333333333,70.0,90.0
456,114.87500000000001,115.15833333333335,55.0,83.0
457,115.275,115.715,70.0,86.0
458,115.275,115.83666666666667,63.0,88.0
459,115.275,115.92,67.0,92.0
460,116.075,116.43833333333335,70.0,86.0
461,116.075,116.44666666666667,63.0,89.0
462,116.075,116.44666666666667,67.0,94.0
463,115.275,116.86000000000001,51.0,85.0
464,116.87500000000001,117.11166666666668,62.0,84.0
465,116.87500000000001,117.275,66.0,86.0
466,116.87500000000001,117.29333333333334,69.0,86.0
467,117.67500000000001,118.04166666666667,66.0,85.0
468,117.87500000000001,118.24333333333334,69.0,75.0
469,116.87500000000001,118.26166666666667,50.0,86.0
470,117.275,118.30166666666668,57.0,80.0
471,117.47500000000001,118.30666666666667,62.0,88.0
472,118.075,118.32166666666667,74.0,88.0
473,118.47500000000001,120.91666666666667,55.0,83.0
474,118.47500000000001,120.91666666666667,74.0,83.0
475,118.47500000000001,120.92500000000001,67.0,83.0
476,118.47500000000001,120.95166666666667,70.0,78.0
477,121.67500000000001,122.09,74.0,89.0
478,121.67500000000001,122.21666666666667,67.0,88.0
479,122.075,122.59166666666667,62.0,78.0
480,121.67500000000001,122.93333333333334,55.0,87.0
481,122.47500000000001,122.95833333333334,67.0,89.0
482,122.47500000000001,123.03666666666668,74.0,88.0
483,122.47500000000001,123.22166666666668,70.0,91.0
484,123.275,123.4,70.0,64.0
485,123.67500000000001,123.82166666666667,74.0,80.0
486,123.67500000000001,123.93333333333334,67.0,87.0
487,123.67500000000001,124.28,55.0,88.0
488,124.075,124.43833333333335,69.0,110.0
489,122.87500000000001,124.47833333333334,62.0,80.0
490,124.47500000000001,124.82833333333335,70.0,87.0
491,126.075,126.60333333333334,74.0,107.0
492,126.47500000000001,126.87166666666667,69.0,88.0
493,125.67500000000001,126.90333333333334,62.0,82.0
494,124.87500000000001,127.08500000000001,50.0,85.0
495,125.275,127.32666666666667,57.0,83.0
496,126.87500000000001,127.65166666666667,65.0,89.0
497,127.275,127.70666666666668,50.0,87.0
498,127.67500000000001,128.11833333333334,62.0,85.0
499,128.07500000000002,129.28333333333333,51.0,85.0
500,128.475,129.31833333333333,63.0,82.0
501,128.875,129.33666666666667,67.0,88.0
502,129.275,129.63666666666668,70.0,95.0
503,129.675,130.29000000000002,72.0,86.0
504,129.675,130.34,65.0,84.0
505,129.675,130.41833333333335,69.0,83.0
506,130.475,130.89333333333335,69.0,89.0
507,129.675,130.95000000000002,53.0,87.0
508,130.875,131.11166666666668,65.0,86.0
509,131.275,131.69500000000002,67.0,85.0
510,131.275,131.70833333333334,70.0,81.0
511,132.07500000000002,132.43166666666667,69.0,104.0
512,132.475,132.90833333333333,70.0,93.0
513,131.675,132.985,62.0,80.0
514,132.875,133.51000000000002,67.0,86.0
515,133.675,133.91666666666669,74.0,107.0
516,133.875,134.09,72.0,98.0
517,131.275,134.235,55.0,87.0
518,133.47500000000002,134.29166666666669,62.0,88.0
519,134.07500000000002,134.49666666666667,69.0,89.0
520,134.875,135.36333333333334,63.0,79.0
521,134.47500000000002,135.70000000000002,51.0,91.0
522,135.275,135.925,70.0,103.0
523,135.675,135.92833333333334,63.0,85.0
524,135.275,136.01333333333335,67.0,90.0
525,136.07500000000002,136.425,72.0,87.0
526,136.07500000000002,136.67333333333335,69.0,93.0
527,136.07500000000002,136.67833333333334,65.0,88.0
528,136.875,137.31,72.0,83.0
529,136.875,137.315,65.0,87.0
530,136.875,137.32500000000002,69.0,89.0
531,136.07500000000002,137.41500000000002,53.0,85.0
532,137.675,138.12833333333333,69.0,84.0
533,137.675,138.16333333333336,62.0,79.0
534,137.675,138.17166666666668,65.0,86.0
535,138.07500000000002,138.47,57.0,73.0
536,137.675,138.905,50.0,87.0
537,138.47500000000002,138.96166666666667,69.0,88.0
538,138.47500000000002,138.98166666666668,65.0,92.0
539,138.47500000000002,139.16333333333336,62.0,88.0
540,138.875,139.28833333333336,57.0,86.0
541,139.275,139.85500000000002,70.0,85.0
542,139.275,139.86166666666668,62.0,88.0
543,139.275,139.94,67.0,88.0
544,139.275,140.42666666666668,55.0,83.0
545,140.07500000000002,140.59333333333333,62.0,94.0
546,140.07500000000002,140.64833333333334,70.0,86.0
547,140.07500000000002,140.68166666666667,67.0,91.0
548,140.875,141.24166666666667,70.0,85.0
549,140.875,141.84333333333333,63.0,88.0
550,140.875,141.85666666666668,51.0,84.0
551,141.675,142.35500000000002,70.0,103.0
552,141.675,142.37666666666667,67.0,93.0
553,142.07500000000002,142.45166666666668,51.0,85.0
554,142.47500000000002,143.04833333333335,72.0,88.0
555,142.47500000000002,143.07833333333335,69.0,91.0
556,142.47500000000002,143.08,65.0,89.0
557,143.275,143.71666666666667,65.0,86.0
558,143.275,143.735,69.0,87.0
559,143.275,143.75833333333335,72.0,84.0
560,142.47500000000002,143.84,53.0,87.0
561,144.07500000000002,144.405,62.0,90.0
562,144.07500000000002,144.47833333333335,66.0,93.0
563,144.07500000000002,144.49333333333334,69.0,90.0
564,144.675,145.065,62.0,89.0
565,144.875,145.40166666666667,74.0,108.0
566,145.275,145.54166666666669,62.0,84.0
567,144.875,145.75833333333335,66.0,93.0
568,145.675,145.86666666666667,69.0,108.0
569,145.675,145.88333333333335,74.0,102.0
570,146.275,146.73833333333334,81.0,85.0
571,146.275,146.78166666666667,78.0,84.0
572,146.47500000000002,146.79833333333335,86.0,113.0
573,146.275,146.84166666666667,74.0,79.0
574,144.07500000000002,146.905,50.0,93.0
575,144.47500000000002,146.94833333333335,57.0,79.0
576,145.675,147.01333333333335,62.0,88.0
577,147.275,147.66500000000002,67.0,102.0
578,147.275,147.71333333333334,70.0,95.0
579,147.875,148.01500000000001,67.0,83.0
580,147.675,148.15833333333333,62.0,88.0
581,148.07500000000002,148.52833333333334,67.0,93.0
582,148.47500000000002,148.565,62.0,88.0
583,147.275,148.59,55.0,91.0
584,148.47500000000002,148.87833333333333,70.0,90.0
585,148.07500000000002,149.435,74.0,102.0
586,148.875,149.44833333333335,65.0,91.0
587,148.875,149.465,69.0,98.0
588,149.47500000000002,150.04166666666669,62.0,94.0
589,148.875,150.05166666666668,50.0,88.0
590,149.275,150.07666666666668,57.0,79.0
591,149.675,150.39333333333335,65.0,104.0
592,149.675,150.46,74.0,89.0
593,150.07500000000002,150.69,69.0,104.0
594,150.47500000000002,151.065,51.0,100.0
595,150.675,151.06833333333336,63.0,86.0
596,150.875,151.32000000000002,67.0,91.0
597,151.07500000000002,151.5366666666667,70.0,109.0
598,151.47500000000002,151.78166666666667,60.0,87.0
599,151.275,151.80666666666667,53.0,98.0
600,151.675,152.115,65.0,94.0
601,151.875,152.15,69.0,102.0
602,152.47500000000002,152.985,58.0,89.0
603,152.07500000000002,153.27666666666667,46.0,100.0
604,153.275,153.49833333333333,58.0,91.0
605,152.875,153.58,62.0,98.0
606,152.875,153.6616666666667,65.0,110.0
607,152.875,153.675,70.0,97.0
608,154.275,154.61666666666667,60.0,88.0
609,153.675,154.895,48.0,98.0
610,154.07500000000002,154.90166666666667,55.0,77.0
611,154.47500000000002,154.995,63.0,103.0
612,154.47500000000002,155.20166666666668,72.0,91.0
613,154.875,155.28833333333336,60.0,87.0
614,155.275,155.87833333333333,74.0,94.0
615,155.275,155.8816666666667,70.0,90.0
616,155.275,155.89000000000001,67.0,89.0
617,155.875,156.21166666666667,62.0,88.0
618,156.47500000000002,156.565,62.0,90.0
619,155.275,156.585,55.0,90.0
620,156.07500000000002,156.95166666666668,74.0,98.0
621,156.07500000000002,156.98666666666668,67.0,98.0
622,157.47500000000002,157.62333333333333,67.0,87.0
623,157.275,157.805,63.0,87.0
624,157.675,158.12333333333333,67.0,89.0
625,156.875,158.19,51.0,106.0
626,158.07500000000002,158.22333333333336,63.0,100.0
627,157.675,158.435,74.0,107.0
628,157.675,158.455,70.0,109.0
629,158.875,159.12333333333333,66.0,109.0
630,159.07500000000002,159.4466666666667,69.0,114.0
631,159.47500000000002,159.69500000000002,66.0,113.0
632,158.47500000000002,159.71666666666667,50.0,108.0
633,159.275,159.7266666666667,62.0,116.0
634,158.675,159.74166666666667,57.0,88.0
635,159.675,159.98000000000002,69.0,110.0
636,159.875,160.68166666666667,74.0,104.0
637,160.07500000000002,160.70666666666668,70.0,109.0
638,160.07500000000002,160.72166666666666,67.0,96.0
639,160.675,161.04166666666669,62.0,90.0
640,160.07500000000002,161.1016666666667,55.0,92.0
641,160.875,161.35000000000002,67.0,98.0
642,161.275,161.39000000000001,55.0,102.0
643,160.875,161.56,74.0,100.0
644,160.875,161.58,70.0,119.0
645,161.675,162.125,74.0,88.0
646,161.675,162.18,69.0,108.0
647,161.675,162.205,65.0,96.0
648,161.675,162.79500000000002,50.0,88.0
649,162.275,162.82666666666668,62.0,93.0
650,162.07500000000002,162.8516666666667,57.0,79.0
651,162.47500000000002,162.9416666666667,65.0,104.0
652,162.47500000000002,162.965,69.0,107.0
653,163.275,163.92333333333335,70.0,106.0
654,163.275,163.9766666666667,51.0,100.0
655,163.275,164.00166666666667,67.0,100.0
656,164.07500000000002,164.47333333333336,53.0,86.0
657,164.07500000000002,164.50500000000002,69.0,110.0
658,164.07500000000002,164.52166666666668,65.0,96.0
659,164.07500000000002,164.55166666666668,72.0,100.0
660,164.875,165.45333333333335,62.0,102.0
661,164.875,165.48000000000002,70.0,97.0
662,164.875,165.49833333333333,65.0,110.0
663,165.47500000000002,165.77833333333334,58.0,93.0
664,165.675,166.00333333333333,62.0,117.0
665,164.875,166.10666666666668,46.0,97.0
666,165.675,166.14333333333335,70.0,109.0
667,165.875,166.145,58.0,109.0
668,166.07500000000002,166.27,65.0,114.0
669,166.275,166.45666666666668,67.0,87.0
670,166.47500000000002,167.03,72.0,92.0
671,166.47500000000002,167.04000000000002,63.0,106.0
672,166.47500000000002,167.05,67.0,89.0
673,167.07500000000002,167.375,60.0,84.0
674,167.275,167.62666666666667,63.0,103.0
675,167.275,167.6616666666667,72.0,107.0
676,167.275,167.68166666666667,67.0,113.0
677,166.47500000000002,167.6966666666667,48.0,96.0
678,167.675,167.98000000000002,60.0,87.0
679,168.07500000000002,168.36333333333334,62.0,107.0
680,168.07500000000002,168.65333333333334,67.0,100.0
681,168.07500000000002,168.68166666666667,70.0,91.0
682,168.675,169.09666666666666,62.0,90.0
683,168.07500000000002,169.14333333333335,55.0,92.0
684,169.275,169.375,62.0,89.0
685,168.875,169.67333333333335,70.0,113.0
686,168.875,169.68166666666667,67.0,116.0
687,169.675,169.68166666666667,67.0,91.0
688,169.675,170.14666666666668,70.0,106.0
689,170.07500000000002,170.49333333333334,63.0,83.0
690,169.675,170.88666666666668,51.0,100.0
691,170.47500000000002,170.90333333333334,67.0,100.0
692,170.47500000000002,171.1016666666667,70.0,116.0
693,170.875,171.23000000000002,63.0,86.0
694,171.275,171.71833333333333,69.0,88.0
695,171.275,171.73000000000002,62.0,88.0
696,171.275,171.75500000000002,66.0,91.0
697,171.675,172.13333333333335,57.0,77.0
698,172.07500000000002,172.56166666666667,69.0,90.0
699,171.275,172.58,50.0,89.0
700,172.47500000000002,172.58833333333334,57.0,87.0
701,172.07500000000002,172.66833333333335,62.0,92.0
702,172.07500000000002,172.7866666666667,66.0,95.0
703,172.875,173.17166666666668,67.0,87.0
704,172.875,173.19500000000002,70.0,85.0
705,172.875,173.29000000000002,62.0,89.0
706,173.275,173.72,55.0,76.0
707,173.675,174.03,67.0,92.0
708,173.675,174.05333333333334,62.0,94.0
709,174.07500000000002,174.72500000000002,55.0,83.0
710,174.47500000000002,175.01000000000002,58.0,89.0
711,174.47500000000002,175.02166666666668,67.0,102.0
712,174.47500000000002,175.03,62.0,96.0
713,175.07500000000002,175.4466666666667,55.0,88.0
714,172.875,175.76500000000001,43.0,90.0
715,175.275,175.84666666666666,67.0,108.0
716,175.275,175.87166666666667,58.0,100.0
717,175.675,175.95166666666668,62.0,85.0
718,176.07500000000002,176.87166666666667,70.0,84.0
719,176.47500000000002,177.21333333333334,62.0,66.0
720,176.07500000000002,177.26166666666668,55.0,87.0
721,176.875,177.36,67.0,84.0
722,177.275,177.68,70.0,81.0
723,177.675,178.77333333333334,50.0,76.0
724,177.675,178.97,65.0,80.0
725,177.675,179.20833333333334,74.0,87.0
726,179.275,179.77166666666668,67.0,82.0
727,179.275,180.01666666666668,51.0,78.0
728,179.275,180.05666666666667,70.0,82.0
729,180.07500000000002,180.3816666666667,53.0,67.0
730,180.07500000000002,180.55333333333334,72.0,85.0
731,180.07500000000002,180.88333333333335,65.0,82.0
732,180.875,181.47,62.0,84.0
733,180.875,181.58333333333334,70.0,86.0
734,181.675,181.935,62.0,84.0
735,180.875,182.03833333333336,46.0,83.0
736,181.875,182.07833333333335,65.0,88.0
737,181.47500000000002,182.09,58.0,85.0
738,182.07500000000002,182.40666666666667,70.0,85.0
739,182.47500000000002,183.70666666666668,48.0,79.0
740,182.47500000000002,183.70666666666668,63.0,84.0
741,182.47500000000002,183.74666666666667,72.0,86.0
742,184.07500000000002,184.61666666666667,70.0,84.0
743,184.07500000000002,184.68833333333333,67.0,88.0
744,184.07500000000002,184.715,62.0,86.0
745,184.875,185.28,62.0,91.0
746,184.875,185.405,70.0,86.0
747,184.07500000000002,185.4416666666667,55.0,86.0
748,185.675,186.25,70.0,83.0
749,185.675,186.29333333333335,67.0,91.0
750,185.675,186.31333333333333,63.0,85.0
751,186.47500000000002,186.73666666666668,63.0,84.0
752,186.47500000000002,186.74,70.0,78.0
753,186.47500000000002,186.77,67.0,89.0
754,185.675,186.845,51.0,83.0
755,187.275,187.51166666666668,50.0,94.0
756,187.275,187.53500000000003,69.0,93.0
757,187.275,187.54500000000002,62.0,91.0
758,187.275,187.55333333333334,66.0,103.0
759,187.675,187.9466666666667,50.0,96.0
760,187.675,187.965,69.0,100.0
761,187.675,187.97500000000002,62.0,90.0
762,187.675,187.985,66.0,100.0
763,188.07500000000002,188.3466666666667,62.0,96.0
764,188.07500000000002,188.35000000000002,69.0,96.0
765,188.07500000000002,188.38000000000002,66.0,103.0
766,188.07500000000002,188.46666666666667,50.0,102.0
767,188.47500000000002,188.56500000000003,62.0,89.0
768,188.47500000000002,188.57833333333335,69.0,89.0
769,188.47500000000002,188.60666666666668,66.0,91.0
770,188.875,189.36666666666667,62.0,108.0
771,188.875,189.48333333333335,70.0,109.0
772,188.875,189.50166666666667,67.0,110.0
773,189.47500000000002,189.7866666666667,55.0,104.0
774,188.875,190.04666666666668,43.0,102.0
775,189.675,190.08333333333334,70.0,100.0
776,189.675,190.29666666666668,62.0,114.0
777,189.675,190.33833333333334,67.0,108.0
778,190.07500000000002,190.395,55.0,98.0
779,190.47500000000002,190.64000000000001,62.0,100.0
780,190.47500000000002,190.73166666666668,65.0,113.0
781,190.47500000000002,190.8,69.0,102.0
782,190.875,191.30333333333334,62.0,110.0
783,191.07500000000002,191.51000000000002,65.0,110.0
784,191.07500000000002,191.54333333333335,74.0,96.0
785,191.275,191.57666666666668,69.0,110.0
786,190.47500000000002,191.78166666666667,50.0,98.0
787,190.675,191.8166666666667,57.0,86.0
788,191.47500000000002,191.83,62.0,113.0
789,191.675,192.10000000000002,65.0,104.0
790,191.875,192.14666666666668,69.0,87.0
791,191.675,192.28500000000003,74.0,88.0
792,192.275,192.63000000000002,63.0,88.0
793,192.07500000000002,192.675,51.0,106.0
794,192.47500000000002,192.895,67.0,96.0
795,192.675,193.09833333333336,70.0,116.0
796,193.07500000000002,193.29500000000002,60.0,87.0
797,192.875,193.31,53.0,104.0
798,193.275,193.54000000000002,65.0,110.0
799,193.47500000000002,193.74166666666667,69.0,108.0
800,194.07500000000002,194.19500000000002,62.0,100.0
801,193.875,194.53333333333336,58.0,89.0
802,194.47500000000002,194.78333333333336,62.0,114.0
803,194.47500000000002,194.83333333333334,70.0,116.0
804,193.675,194.91000000000003,46.0,106.0
805,194.875,194.93166666666667,62.0,84.0
806,194.875,194.955,70.0,72.0
807,194.875,194.96666666666667,65.0,113.0
808,194.675,194.98000000000002,58.0,113.0
809,195.275,195.79500000000002,72.0,110.0
810,195.275,195.845,63.0,106.0
811,195.875,196.14000000000001,60.0,96.0
812,195.275,196.45166666666668,48.0,96.0
813,196.07500000000002,196.455,63.0,116.0
814,196.07500000000002,196.465,72.0,94.0
815,196.47500000000002,196.77666666666667,60.0,98.0
816,196.875,197.08333333333334,70.0,91.0
817,197.275,197.465,67.0,88.0
818,197.07500000000002,197.56833333333336,62.0,87.0
819,197.875,198.12333333333333,62.0,89.0
820,197.47500000000002,198.125,74.0,114.0
821,196.875,198.175,55.0,94.0
822,198.07500000000002,198.28833333333336,70.0,109.0
823,197.47500000000002,198.34166666666667,67.0,90.0
824,198.275,198.82000000000002,74.0,102.0
825,198.675,199.34333333333333,63.0,91.0
826,198.875,199.76333333333335,67.0,83.0
827,199.675,199.83,63.0,86.0
828,198.47500000000002,199.865,51.0,106.0
829,199.275,199.93333333333334,70.0,109.0
830,200.07500000000002,200.20000000000002,70.0,86.0
831,200.07500000000002,200.67833333333334,66.0,109.0
832,200.07500000000002,200.685,69.0,104.0
833,200.675,201.01000000000002,57.0,81.0
834,200.07500000000002,201.305,50.0,98.0
835,201.275,201.45166666666668,57.0,86.0
836,200.875,201.4766666666667,66.0,109.0
837,200.875,201.60333333333335,69.0,110.0
838,201.675,202.02,67.0,91.0
839,201.675,202.06833333333336,70.0,87.0
840,202.47500000000002,203.52166666666668,67.0,85.0
841,202.875,203.75333333333336,70.0,86.0
842,202.875,203.87833333333336,79.0,87.0
843,203.275,204.04666666666668,74.0,88.0
844,203.875,204.76666666666668,67.0,86.0
845,204.07500000000002,204.80166666666668,70.0,97.0
846,204.47500000000002,204.81,74.0,85.0
847,202.07500000000002,204.835,62.0,82.0
848,201.675,204.88666666666668,55.0,88.0
849,204.85833333333335,206.10666666666668,51.0,87.0
850,205.03,206.18,74.0,90.0
851,204.95666666666668,206.20166666666668,67.0,90.0
852,204.9766666666667,206.21166666666667,70.0,90.0
853,206.36,207.88500000000002,60.0,90.0
854,206.435,207.905,65.0,95.0
855,206.45666666666668,207.91666666666669,53.0,95.0
856,206.47833333333335,207.91666666666669,69.0,102.0
857,208.23000000000002,209.27,74.0,89.0
858,208.07000000000002,209.51000000000002,55.0,80.0
859,209.51333333333335,209.7266666666667,74.0,97.0
860,208.28333333333336,209.745,79.0,91.0
861,208.22000000000003,209.75500000000002,70.0,89.0
862,209.82333333333335,210.09833333333336,77.0,70.0
863,210.0666666666667,210.34333333333333,79.0,69.0
864,210.29166666666669,210.47000000000003,81.0,72.0
865,210.5666666666667,210.75833333333335,82.0,76.0
866,210.79000000000002,211.08666666666667,84.0,78.0
867,211.09,211.34333333333333,86.0,81.0
868,211.73000000000002,212.37333333333333,89.0,83.0
869,212.36166666666668,213.91333333333336,91.0,95.0
870,208.14333333333335,214.4716666666667,67.0,85.0
