,start,end,pitch,velocity
0,17.726009966666663,17.9691604125,71.0,93.0
1,18.136968466666666,18.3801189125,71.0,102.0
2,18.547926966666665,18.763680179166663,74.0,90.0
3,18.958885466666665,19.2431317625,74.0,91.0
4,19.369843966666664,19.469158937499998,76.0,88.0
5,19.575323216666664,19.862994166666663,76.0,92.0
6,20.191760966666664,20.397240216666663,67.0,93.0
7,20.602719466666663,20.881828781249997,71.0,94.0
8,21.013677966666663,21.323609168749996,69.0,89.0
9,21.424636466666662,21.779088172916662,69.0,93.0
10,21.835594966666665,22.138676860416663,67.0,89.0
11,22.246553466666665,22.498265547916663,69.0,88.0
12,22.657511966666664,22.862991216666664,71.0,93.0
13,22.862991216666664,23.109566316666662,71.0,92.0
14,24.301345966666663,24.558195029166665,71.0,93.0
15,24.712304466666662,25.047920574999996,71.0,96.0
16,25.123262966666662,25.390385991666662,74.0,91.0
17,25.534221466666665,25.828741724999997,74.0,90.0
18,25.945179966666664,26.065042862499997,76.0,88.0
19,26.150659216666664,26.39552198958333,76.0,88.0
20,26.972576216666663,27.107850056249998,67.0,84.0
21,27.178055466666663,27.426342893749997,71.0,88.0
22,27.589013966666663,27.789356235416662,69.0,87.0
23,27.999972466666662,28.30134203333333,69.0,89.0
24,28.410930966666662,28.515382918749996,67.0,86.0
25,28.61641021666666,29.138669977083328,67.0,86.0
26,30.876681966666663,31.10099681458333,71.0,88.0
27,31.287640466666662,31.541064874999996,71.0,89.0
28,31.698598966666662,31.917776833333328,74.0,86.0
29,32.109557466666665,32.39380376249999,74.0,84.0
30,32.520515966666665,32.61126930208333,76.0,86.0
31,32.72599521666666,33.25339195833333,76.0,88.0
32,33.54791221666666,33.6883230375,67.0,84.0
33,33.75339146666666,34.042774743749995,71.0,90.0
34,34.16434996666666,34.393801795833326,69.0,85.0
35,34.57530846666666,34.864691743749994,69.0,86.0
36,34.98626696666666,35.102705208333326,72.0,87.0
37,35.80818396666666,36.4109231,71.0,92.0
38,37.45201796666666,37.720853318749995,71.0,100.0
39,37.86297646666666,38.13009949166666,71.0,93.0
40,38.27393496666666,38.50509912291666,74.0,87.0
41,38.684893466666665,38.98283837916666,74.0,88.0
42,39.095851966666665,39.20544089999999,76.0,87.0
43,39.30133121666666,39.57187889583333,76.0,91.0
44,40.12324821666666,40.25509740208333,67.0,81.0
45,40.32872746666666,40.64208332291666,71.0,86.0
46,40.73968596666666,40.969137795833326,69.0,85.0
47,41.15064446666666,41.41605516458333,69.0,86.0
48,41.56160296666666,41.70543844166666,67.0,81.0
49,41.76708221666666,42.25338310833333,69.0,85.0
50,42.17804071666666,42.58214990833333,67.0,85.0
51,43.20543696666666,43.517080495833326,67.0,107.0
52,43.61639546666666,44.22769623541666,76.0,113.0
53,44.43831246666666,45.09755839374999,79.0,113.0
54,45.26022946666666,45.626667462499995,78.0,113.0
55,45.67118796666666,45.873242562499996,76.0,88.0
56,45.87666721666666,46.17461212916666,74.0,93.0
57,46.69858421666666,46.89036484999999,71.0,98.0
58,46.90406346666666,47.333857564583326,72.0,102.0
59,47.31502196666666,47.72598046666666,71.0,100.0
60,47.72598046666666,48.13351431249999,69.0,100.0
61,48.13693896666666,48.29104840416666,67.0,88.0
62,48.34241821666666,48.66091105416666,71.0,108.0
63,49.36981446666666,49.78077296666666,71.0,107.0
64,49.78077296666666,50.17632052291666,69.0,94.0
65,50.19173146666666,50.72084053541666,67.0,94.0
66,51.01364846666666,51.684880683333326,79.0,114.0
67,51.83556546666666,52.172893902083324,81.0,113.0
68,52.24652396666666,52.44686623541666,78.0,97.0
69,52.45200321666666,52.77049605416666,74.0,107.0
70,53.06844096666666,53.244810656249996,72.0,91.0
71,53.27392021666666,53.60953632499999,71.0,88.0
72,53.68487871666666,54.02905646041666,79.0,104.0
73,54.71227496666666,54.94343912291666,76.0,102.0
74,54.91775421666666,55.04960340208333,78.0,89.0
75,55.12323346666666,55.59069876041666,79.0,113.0
76,55.94515046666666,56.23282141666666,79.0,110.0
77,56.35610896666666,56.45884859166666,81.0,108.0
78,56.56158821666666,56.91432759583333,81.0,114.0
79,59.23281846666666,59.69172212499999,79.0,114.0
80,59.64377696666666,59.984530056249994,78.0,113.0
81,60.054735466666656,60.45028302291666,76.0,107.0
82,60.465693966666656,60.80644705624999,71.0,107.0
83,60.876652466666656,61.08041938958333,76.0,107.0
84,61.287610966666655,61.57528191666666,83.0,114.0
85,61.69856946666666,62.01363764999999,81.0,114.0
86,62.10952796666666,62.260212749999994,79.0,96.0
87,62.31500721666666,62.58726722291666,81.0,107.0
88,63.34240346666666,63.715690770833326,78.0,119.0
89,63.75336196666666,64.06843015,74.0,114.0
90,64.16432046666665,64.38692298749999,78.0,116.0
91,64.57527896666666,64.67801859166666,81.0,113.0
92,64.78075821666665,65.07870312916666,81.0,102.0
93,65.19171671666666,65.45027810625,79.0,102.0
94,65.80815446666666,66.20027736875,79.0,114.0
95,66.21911296666666,66.57356467291666,78.0,113.0
96,66.63007146666666,67.03075600416666,76.0,107.0
97,67.04102996666666,67.24650921666665,71.0,102.0
98,67.24650921666665,67.52390620416666,76.0,113.0
99,67.86294696666666,68.18657678541666,83.0,110.0
100,68.27390546666666,68.64548044374999,81.0,107.0
101,68.68486396666665,68.83212409583332,79.0,100.0
102,68.89034321666665,69.24308259583333,81.0,113.0
103,69.50678096666665,69.78589028124999,74.0,113.0
104,69.91773946666666,70.12321871666666,83.0,110.0
105,72.38349046666666,72.84239412499998,79.0,114.0
106,72.79444896666666,73.13520205625,78.0,113.0
107,73.20540746666666,73.60095502291665,76.0,107.0
108,73.61636596666666,73.95711905625,71.0,107.0
109,74.02732446666666,74.23109138958333,76.0,107.0
110,74.43828296666666,74.72595391666665,83.0,114.0
111,74.84924146666665,75.16430964999999,81.0,114.0
112,75.26019996666666,75.41088475,79.0,96.0
113,75.46567921666666,75.73793922291665,81.0,107.0
114,76.49307546666665,76.70026704374999,83.0,113.0
115,76.90403396666666,77.07355434791666,86.0,113.0
116,77.31499246666665,77.53588266041666,86.0,110.0
117,77.72595096666666,77.81327964791666,78.0,103.0
118,77.93143021666666,78.16259437291666,81.0,108.0
119,78.34238871666666,78.56670356458332,79.0,114.0
120,78.95882646666665,79.29615490208332,79.0,116.0
121,79.36978496666666,79.63005868333332,78.0,109.0
122,79.78074346666665,80.04272951041665,76.0,116.0
123,81.01361896666666,81.26533104791666,83.0,116.0
124,81.42457746666666,81.70539910833332,81.0,116.0
125,82.24649446666666,82.61464478958332,78.0,119.0
126,82.65745296666665,82.83211032916665,74.0,114.0
127,82.86293221666665,83.46395902291665,76.0,117.0
128,99.91770996666665,100.16086041249999,71.0,93.0
129,100.32866846666666,100.57181891249999,71.0,102.0
130,100.73962696666665,100.95538017916665,74.0,90.0
131,101.15058546666666,101.43483176249998,74.0,91.0
132,101.56154396666665,101.66085893749998,76.0,88.0
133,101.76702321666666,102.05469416666665,76.0,92.0
134,102.38346096666665,102.58894021666666,67.0,93.0
135,102.79441946666665,103.07352878124999,71.0,94.0
136,103.20537796666666,103.51530916874998,69.0,89.0
137,103.61633646666665,103.97078817291666,69.0,93.0
138,104.02729496666666,104.33037686041665,67.0,89.0
139,104.43825346666665,104.68996554791666,69.0,88.0
140,104.84921196666666,105.05469121666665,71.0,93.0
141,105.05469121666665,105.30126631666666,71.0,92.0
142,106.49304596666666,106.74989502916665,71.0,93.0
143,106.90400446666665,107.23962057499999,71.0,96.0
144,107.31496296666666,107.58208599166666,74.0,91.0
145,107.72592146666665,108.02044172499998,74.0,90.0
146,108.13687996666665,108.25674286249999,76.0,88.0
147,108.34235921666665,108.58722198958331,76.0,88.0
148,109.16427621666665,109.29955005624998,67.0,84.0
149,109.36975546666665,109.61804289374999,71.0,88.0
150,109.78071396666665,109.98105623541664,69.0,87.0
151,110.19167246666665,110.49304203333332,69.0,89.0
152,110.60263096666665,110.70708291874999,67.0,86.0
153,110.80811021666665,111.09406883958331,67.0,86.0
154,113.06838196666665,113.29269681458332,71.0,88.0
155,113.47934046666666,113.73276487499999,71.0,89.0
156,113.89029896666665,114.10947683333332,74.0,86.0
157,114.30125746666666,114.58550376249998,74.0,84.0
158,114.71221596666665,114.80296930208331,76.0,86.0
159,114.91769521666666,115.20194151249999,76.0,88.0
160,115.73961221666666,115.88002303749998,67.0,84.0
161,115.94509146666665,116.23447474374998,71.0,90.0
162,116.35604996666665,116.58550179583332,69.0,85.0
163,116.76700846666665,117.05639174374998,69.0,86.0
164,117.17796696666665,117.29440520833332,72.0,87.0
165,117.99988396666664,118.35776032708331,71.0,92.0
166,119.64371796666666,119.91255331874999,71.0,100.0
167,120.05467646666665,120.32179949166665,71.0,93.0
168,120.46563496666666,120.69679912291664,74.0,87.0
169,120.87659346666665,121.17453837916665,74.0,88.0
170,121.28755196666665,121.39714089999998,76.0,87.0
171,121.49303121666665,121.76357889583332,76.0,91.0
172,122.31494821666665,122.44679740208332,67.0,81.0
173,122.52042746666665,122.83378332291664,71.0,86.0
174,122.93138596666665,123.16083779583332,69.0,85.0
175,123.34234446666665,123.60775516458332,69.0,86.0
176,123.75330296666665,123.89713844166666,67.0,81.0
177,123.95878221666665,124.44508310833332,69.0,85.0
178,124.36974071666666,124.77384990833332,67.0,85.0
179,125.39713696666665,125.70878049583332,67.0,107.0
180,125.80809546666664,126.41939623541666,76.0,113.0
181,126.63001246666666,127.28925839374999,79.0,113.0
182,127.45192946666666,127.81836746249998,78.0,113.0
183,127.86288796666665,128.0649425625,76.0,88.0
184,128.06836721666664,128.36631212916666,74.0,93.0
185,128.89028421666666,129.08206485,71.0,98.0
186,129.09576346666665,129.52555756458332,72.0,102.0
187,129.50672196666665,129.91768046666664,71.0,100.0
188,129.91768046666664,130.32521431249998,69.0,100.0
189,130.32863896666666,130.48274840416664,67.0,88.0
190,130.53411821666666,130.85261105416666,71.0,108.0
191,131.56151446666664,131.97247296666666,71.0,107.0
192,131.97247296666666,132.36802052291665,69.0,94.0
193,132.38343146666665,132.91254053541664,67.0,94.0
194,133.20534846666663,133.87658068333332,79.0,114.0
195,134.02726546666665,134.36459390208333,81.0,113.0
196,134.43822396666664,134.63856623541665,78.0,97.0
197,134.64370321666664,134.96219605416664,74.0,107.0
198,135.26014096666665,135.43651065625,72.0,91.0
199,135.46562021666665,135.801236325,71.0,88.0
200,135.87657871666664,136.22075646041665,79.0,104.0
201,136.90397496666665,137.13513912291666,76.0,102.0
202,137.10945421666665,137.2413034020833,78.0,89.0
203,137.31493346666664,137.78239876041664,79.0,113.0
204,138.13685046666666,138.42452141666664,79.0,110.0
205,138.54780896666665,138.65054859166665,81.0,108.0
206,138.75328821666665,139.10602759583332,81.0,114.0
207,141.42451846666665,141.88342212499998,79.0,114.0
208,141.83547696666665,142.17623005624998,78.0,113.0
209,142.24643546666664,142.64198302291663,76.0,107.0
210,142.65739396666666,142.99814705625,71.0,107.0
211,143.06835246666665,143.2721193895833,76.0,107.0
212,143.47931096666665,143.76698191666665,83.0,114.0
213,143.89026946666664,144.20533765,81.0,114.0
214,144.30122796666666,144.45191275,79.0,96.0
215,144.50670721666665,144.77896722291663,81.0,107.0
216,145.53410346666664,145.9073907708333,78.0,119.0
217,145.94506196666666,146.26013014999998,74.0,114.0
218,146.35602046666665,146.57862298749998,78.0,116.0
219,146.76697896666664,146.86971859166664,81.0,113.0
220,146.97245821666664,147.27040312916665,81.0,102.0
221,147.38341671666666,147.64197810624998,79.0,102.0
222,147.99985446666665,148.39197736875,79.0,114.0
223,148.41081296666664,148.76526467291666,78.0,113.0
224,148.82177146666666,149.22245600416665,76.0,107.0
225,149.23272996666665,149.43820921666665,71.0,102.0
226,149.43820921666665,149.71560620416665,76.0,113.0
227,150.05464696666664,150.37827678541666,83.0,110.0
228,150.46560546666666,150.83718044375,81.0,107.0
229,150.87656396666665,151.0238240958333,79.0,100.0
230,151.08204321666665,151.43478259583333,81.0,113.0
231,151.69848096666664,151.97759028124997,74.0,113.0
232,152.10943946666666,152.31491871666665,83.0,110.0
233,154.57519046666664,155.03409412499997,79.0,114.0
234,154.98614896666663,155.32690205625,78.0,113.0
235,155.39710746666665,155.79265502291665,76.0,107.0
236,155.80806596666665,156.14881905624998,71.0,107.0
237,156.21902446666664,156.42279138958332,76.0,107.0
238,156.62998296666666,156.91765391666664,83.0,114.0
239,157.04094146666665,157.35600964999998,81.0,114.0
240,157.45189996666664,157.60258474999998,79.0,96.0
241,157.65737921666664,157.92963922291665,81.0,107.0
242,158.68477546666665,158.89196704375,83.0,113.0
243,159.09573396666664,159.26525434791665,86.0,113.0
244,159.50669246666664,159.72758266041666,86.0,110.0
245,159.91765096666666,160.00497964791666,78.0,103.0
246,160.12313021666665,160.35429437291666,81.0,108.0
247,160.53408871666664,160.75840356458332,79.0,114.0
248,161.15052646666663,161.4878549020833,79.0,116.0
249,161.56148496666665,161.82175868333331,78.0,109.0
250,161.97244346666665,162.23442951041665,76.0,116.0
251,163.20531896666665,163.45703104791664,83.0,116.0
252,163.61627746666665,163.89709910833332,81.0,116.0
253,164.43819446666666,164.8063447895833,78.0,119.0
254,164.84915296666665,165.02381032916665,74.0,114.0
255,165.05463221666665,165.65565902291664,76.0,117.0
256,167.72586246666665,168.18476612499998,79.0,114.0
257,168.13682096666665,168.47757405624998,78.0,113.0
258,168.54777946666664,168.94332702291663,76.0,107.0
259,168.95873796666663,169.29949105625,71.0,107.0
260,169.36969646666665,169.5734633895833,76.0,107.0
261,169.78065496666665,170.06832591666665,83.0,114.0
262,170.19161346666664,170.50668165,81.0,114.0
263,170.60257196666663,170.75325675,79.0,96.0
264,170.80805121666666,171.08031122291663,81.0,107.0
265,171.83544746666664,172.2087347708333,78.0,119.0
266,172.24640596666666,172.56147414999998,74.0,114.0
267,172.65736446666665,172.87996698749998,78.0,116.0
268,173.06832296666664,173.17106259166664,81.0,113.0
269,173.27380221666664,173.57174712916665,81.0,102.0
270,173.68476071666663,173.94332210624998,79.0,102.0
271,174.30119846666665,174.69332136874996,79.0,114.0
272,174.71215696666664,175.06660867291663,78.0,113.0
273,175.12311546666663,175.52380000416665,76.0,107.0
274,175.53407396666665,175.73955321666665,71.0,102.0
275,175.73955321666665,176.01695020416665,76.0,113.0
276,176.35599096666664,176.67962078541663,83.0,110.0
277,176.76694946666663,177.13852444375,81.0,107.0
278,177.17790796666665,177.3251680958333,79.0,100.0
279,177.38338721666665,177.7361265958333,81.0,113.0
280,177.99982496666664,178.27893428124997,74.0,113.0
281,178.41078346666663,178.61626271666665,83.0,110.0
282,180.87653446666664,181.33543812499997,79.0,114.0
283,181.28749296666663,181.62824605624996,78.0,113.0
284,181.69845146666665,182.09399902291665,76.0,107.0
285,182.10940996666665,182.45016305624998,71.0,107.0
286,182.52036846666664,182.7241353895833,76.0,107.0
287,182.93132696666663,183.21899791666664,83.0,114.0
288,183.34228546666665,183.65735364999998,81.0,114.0
289,183.75324396666664,183.90392874999998,79.0,96.0
290,183.95872321666664,184.23098322291665,81.0,107.0
291,184.98611946666665,185.19331104375,83.0,113.0
292,185.39707796666664,185.56659834791665,86.0,113.0
293,185.80803646666664,186.02892666041663,86.0,110.0
294,186.21899496666663,186.30632364791663,78.0,103.0
295,186.42447421666665,186.65563837291666,81.0,108.0
296,186.83543271666665,187.05974756458332,79.0,114.0
297,187.45187046666663,187.7891989020833,79.0,116.0
298,187.86282896666665,188.12310268333331,78.0,109.0
299,188.27378746666665,188.53577351041665,76.0,116.0
300,189.50666296666665,189.75837504791664,83.0,116.0
301,189.91762146666665,190.19844310833332,81.0,116.0
302,190.73953846666663,191.1076887895833,78.0,119.0
303,191.15049696666665,191.32515432916665,74.0,114.0
304,191.35597621666665,191.95700302291664,76.0,117.0
