,start,end,pitch,velocity
0,1.6986284666666664,2.2123265916666663,60.0,83.0
1,0.8767114666666666,2.2585594229166666,48.0,89.0
2,1.2876699666666664,2.3476004312499996,55.0,65.0
3,2.5205454666666665,3.7328730416666662,48.0,78.0
4,4.1643794666666665,5.352734462499999,47.0,81.0
5,4.575337966666666,5.431501508333333,54.0,67.0
6,4.986296466666666,5.767117616666666,62.0,84.0
7,5.808213466666666,7.4657460833333325,52.0,77.0
8,5.808213466666666,7.506841933333332,64.0,84.0
9,8.273964466666666,8.436635539583332,67.0,76.0
10,7.452047466666666,8.791087245833332,48.0,86.0
11,7.863005966666665,9.083895177083333,55.0,69.0
12,8.273964466666666,9.493141349999998,60.0,77.0
13,9.506839966666666,10.376702124999998,57.0,60.0
14,9.095881466666665,10.405811685416666,50.0,83.0
15,10.739715466666665,11.998275872916665,60.0,77.0
16,10.739715466666665,12.017111470833331,66.0,80.0
17,10.739715466666665,12.037659395833332,69.0,84.0
18,10.739715466666665,12.051358012499998,50.0,76.0
19,15.260258966666665,17.02053120833333,57.0,38.0
20,14.438341966666664,17.022243535416663,45.0,52.0
21,15.671217466666665,17.02566818958333,60.0,70.0
22,14.849300466666664,17.039366806249998,50.0,72.0
23,15.671217466666665,17.08217498333333,63.0,77.0
24,14.027383466666665,17.090736618749997,38.0,86.0
25,17.315051466666663,18.511968097916665,43.0,87.0
26,17.726009966666663,18.58731048958333,50.0,70.0
27,18.136968466666666,18.743132254166664,59.0,82.0
28,18.136968466666666,18.93662521458333,62.0,78.0
29,18.136968466666666,19.395528872916664,69.0,83.0
30,18.958885466666665,19.44004937708333,60.0,77.0
31,18.958885466666665,19.453747993749996,64.0,74.0
32,18.958885466666665,20.169500714583332,48.0,80.0
33,19.780802466666664,20.171213041666665,60.0,77.0
34,19.780802466666664,20.3938155625,69.0,86.0
35,19.780802466666664,20.57360990625,64.0,70.0
36,19.369843966666664,20.594157831249998,55.0,65.0
37,20.602719466666663,20.95374651875,62.0,77.0
38,20.602719466666663,20.967445135416664,69.0,80.0
39,20.602719466666663,20.977719097916665,66.0,80.0
40,21.424636466666662,21.748266285416666,62.0,75.0
41,21.013677966666663,21.845868929166663,57.0,66.0
42,20.602719466666663,21.88011547083333,50.0,80.0
43,21.424636466666662,22.251690447916662,66.0,81.0
44,21.424636466666662,22.273950699999997,74.0,87.0
45,22.246553466666665,23.094155372916664,43.0,88.0
46,22.657511966666664,23.104429335416665,74.0,92.0
47,23.068470466666664,23.494839910416662,69.0,91.0
48,23.068470466666664,23.902373756249997,42.0,82.0
49,23.49312758333333,23.90408608333333,62.0,87.0
50,23.890387466666663,24.614701822916665,67.0,88.0
51,23.890387466666663,25.09072875208333,40.0,86.0
52,24.301345966666663,25.118125985416665,47.0,68.0
53,24.712304466666662,25.243125862499998,59.0,86.0
54,24.712304466666662,25.453742093749998,67.0,83.0
55,24.712304466666662,25.487988635416663,52.0,70.0
56,25.534221466666665,25.67120763333333,64.0,70.0
57,25.534221466666665,26.09757707708333,60.0,65.0
58,25.534221466666665,26.147234562499996,67.0,86.0
59,25.534221466666665,26.833877722916665,48.0,75.0
60,26.356138466666664,26.895521497916665,60.0,86.0
61,26.356138466666664,27.183192447916664,67.0,87.0
62,25.945179966666664,27.25339785833333,55.0,64.0
63,27.178055466666663,27.660931704166664,69.0,87.0
64,27.178055466666663,27.71058918958333,62.0,86.0
65,27.589013966666663,28.328739266666663,57.0,73.0
66,27.178055466666663,28.330451593749995,50.0,81.0
67,27.999972466666662,28.494834993749997,69.0,87.0
68,27.999972466666662,28.808190849999995,62.0,88.0
69,28.82188946666666,29.280793124999995,59.0,87.0
70,29.232847966666665,29.433190235416664,71.0,78.0
71,28.82188946666666,29.65236810208333,43.0,78.0
72,29.438327216666664,29.684902316666662,72.0,81.0
73,28.82188946666666,29.696888606249995,67.0,88.0
74,29.643806466666664,29.999970499999996,71.0,88.0
75,30.054764966666664,30.45373717708333,69.0,88.0
76,30.465723466666663,30.86983265833333,62.0,88.0
77,30.465723466666663,30.86983265833333,67.0,84.0
78,30.465723466666663,31.618119593749995,43.0,82.0
79,30.876681966666663,31.647229154166663,50.0,70.0
80,31.287640466666662,31.74996877916666,62.0,84.0
81,31.287640466666662,32.022228785416665,69.0,86.0
82,31.287640466666662,32.082160233333326,55.0,71.0
83,32.109557466666665,32.571885779166664,69.0,87.0
84,32.109557466666665,32.59414603125,64.0,84.0
85,32.109557466666665,33.27565221041666,48.0,73.0
86,32.931474466666664,33.33215900416666,64.0,87.0
87,32.520515966666665,33.36126856458333,55.0,52.0
88,32.931474466666664,33.65236416875,69.0,89.0
89,33.75339146666666,34.26024028333333,62.0,85.0
90,33.75339146666666,34.26024028333333,69.0,86.0
91,33.75339146666666,34.82873287499999,50.0,80.0
92,34.16434996666666,34.830445202083325,57.0,71.0
93,34.57530846666666,35.3321570375,62.0,88.0
94,34.57530846666666,35.40578710208333,69.0,86.0
95,35.39722546666666,35.830444218749996,43.0,83.0
96,35.39722546666666,35.95544409583333,62.0,82.0
97,35.39722546666666,35.96400573125,67.0,82.0
98,35.80818396666666,36.225991775,74.0,96.0
99,36.21914246666666,36.59585442499999,42.0,79.0
100,36.21914246666666,36.61811467708333,69.0,91.0
101,36.63010096666666,37.06674437291666,74.0,86.0
102,37.04105946666666,37.256812679166664,64.0,84.0
103,37.04105946666666,37.54448362916666,67.0,84.0
104,37.04105946666666,38.123250183333326,40.0,81.0
105,37.45201796666666,38.412633460416664,52.0,71.0
106,38.684893466666665,39.04619448125,64.0,84.0
107,38.684893466666665,39.128386181249994,60.0,81.0
108,37.86297646666666,39.19345461041666,67.0,88.0
109,39.095851966666665,39.64208430624999,55.0,46.0
110,38.684893466666665,39.987974377083326,48.0,81.0
111,39.506810466666664,39.987974377083326,60.0,84.0
112,39.506810466666664,40.30989186874999,67.0,88.0
113,39.917768966666664,40.364686335416664,55.0,65.0
114,40.32872746666666,40.80817904999999,69.0,91.0
115,40.32872746666666,40.828726974999995,62.0,88.0
116,40.73968596666666,41.42975378124999,57.0,70.0
117,40.32872746666666,41.445164725,50.0,86.0
118,41.15064446666666,41.67461655416666,69.0,89.0
119,41.15064446666666,41.92119165416666,62.0,88.0
120,41.97256146666666,42.438314433333325,59.0,86.0
121,41.97256146666666,42.45201304999999,43.0,79.0
122,41.97256146666666,42.74824563541666,67.0,85.0
123,42.79447846666666,43.35954640416666,57.0,84.0
124,42.79447846666666,43.46913533749999,42.0,78.0
125,42.79447846666666,43.48283395416666,66.0,86.0
126,43.61639546666666,44.267079758333324,67.0,94.0
127,43.61639546666666,44.909202414583326,40.0,84.0
128,44.02735396666666,44.952010591666664,52.0,74.0
129,44.43831246666666,45.037626945833324,59.0,84.0
130,44.43831246666666,45.09070908541666,67.0,88.0
131,45.05475021666666,45.232832233333326,66.0,82.0
132,45.05475021666666,45.66091400416666,62.0,77.0
133,45.26022946666666,45.6985852,69.0,88.0
134,45.67118796666666,46.19002307291666,54.0,68.0
135,46.08214646666666,46.433173518749996,62.0,94.0
136,45.26022946666666,46.52221452708333,47.0,83.0
137,46.08214646666666,46.84926899999999,69.0,94.0
138,46.493104966666664,46.94344698958333,54.0,81.0
139,46.90406346666666,47.32700825625,60.0,87.0
140,46.90406346666666,47.559884739583325,48.0,84.0
141,46.90406346666666,47.657487383333326,67.0,86.0
142,47.72598046666666,48.07529519166666,50.0,81.0
143,47.72598046666666,48.20200739583333,57.0,89.0
144,47.72598046666666,48.498239981249995,66.0,85.0
145,48.95885596666666,49.058170937499995,50.0,67.0
146,48.54789746666666,49.12323936666666,43.0,86.0
147,48.54789746666666,49.17974616041666,67.0,92.0
148,48.54789746666666,49.20371873958333,59.0,87.0
149,49.36981446666666,49.77221133124999,66.0,100.0
150,49.36981446666666,49.78590994791666,42.0,78.0
151,49.36981446666666,49.85097837708333,59.0,87.0
152,49.78077296666666,50.59755298541666,67.0,89.0
153,50.19173146666666,50.652347452083326,64.0,86.0
154,50.19173146666666,50.686593993749995,59.0,83.0
155,50.60268996666666,51.07015526041666,52.0,75.0
156,51.01364846666666,51.36467551874999,59.0,89.0
157,50.19173146666666,51.38179878958333,40.0,87.0
158,51.01364846666666,51.80474357916666,67.0,88.0
159,51.42460696666666,51.808168233333326,52.0,78.0
160,51.83556546666666,52.280770508333326,69.0,88.0
161,51.83556546666666,52.36981151666666,62.0,89.0
162,51.83556546666666,52.43659227291666,66.0,87.0
163,52.24652396666666,52.77392070833333,54.0,67.0
164,52.65748246666666,53.034194424999995,62.0,88.0
165,51.83556546666666,53.10097518124999,47.0,81.0
166,52.65748246666666,53.23111203958332,69.0,91.0
167,52.65748246666666,53.37323518749999,66.0,89.0
168,53.06844096666666,53.46741317708332,54.0,77.0
169,53.479399466666656,53.986248283333325,67.0,88.0
170,53.479399466666656,53.98796061041666,60.0,86.0
171,53.479399466666656,53.98967293749999,64.0,91.0
172,54.30131646666666,54.792754339583325,67.0,88.0
173,54.30131646666666,54.80302830208333,64.0,93.0
174,54.30131646666666,54.81672691874999,60.0,87.0
175,55.12323346666666,55.493096116666656,64.0,94.0
176,55.12323346666666,55.494808443749996,60.0,88.0
177,55.12323346666666,55.50508240624999,67.0,91.0
178,53.479399466666656,55.51364404166666,48.0,87.0
179,55.94515046666666,56.25165701458332,48.0,84.0
180,55.94515046666666,56.30473915416666,60.0,90.0
181,55.94515046666666,56.316725443749995,67.0,93.0
182,56.76706746666666,57.155765714583325,66.0,97.0
183,56.76706746666666,57.25850533958332,57.0,93.0
184,57.17802596666666,57.97254573333333,45.0,64.0
185,57.58898446666666,57.987956677083325,62.0,90.0
186,56.76706746666666,58.013641583333325,38.0,94.0
187,57.58898446666666,58.02562787291666,55.0,100.0
188,57.99994296666666,58.732818958333326,50.0,81.0
189,58.41090146666666,58.74651757499999,62.0,107.0
190,58.41090146666666,58.749942229166656,54.0,91.0
191,58.41090146666666,58.78076411666666,38.0,93.0
192,60.054735466666656,60.51363912499999,64.0,102.0
193,60.054735466666656,60.53418704999999,60.0,92.0
194,60.054735466666656,60.554734974999995,67.0,94.0
195,60.465693966666656,60.929734606249994,55.0,73.0
196,60.876652466666656,61.31158354583332,60.0,92.0
197,60.054735466666656,61.32699448958333,48.0,91.0
198,60.876652466666656,61.35952870416666,67.0,102.0
199,60.876652466666656,61.60267914999999,64.0,107.0
200,61.287610966666655,61.73110368124999,55.0,80.0
201,61.69856946666666,62.23281551666666,69.0,98.0
202,61.69856946666666,62.38007564583332,66.0,93.0
203,61.69856946666666,62.390349608333324,62.0,88.0
204,61.69856946666666,62.66774659583332,50.0,90.0
205,62.52048646666666,62.89377377083333,62.0,98.0
206,62.52048646666666,62.909184714583326,69.0,89.0
207,62.52048646666666,62.92973263958333,66.0,106.0
208,62.93144496666666,62.99480106874999,50.0,80.0
209,63.34240346666666,63.922882347916655,66.0,90.0
210,63.34240346666666,63.95541656249999,69.0,91.0
211,63.34240346666666,63.96055354374999,59.0,91.0
212,63.34240346666666,64.04445757083333,62.0,100.0
213,63.34240346666666,64.30986826875,47.0,88.0
214,64.16432046666665,64.53418311666665,69.0,88.0
215,64.16432046666665,64.541032425,66.0,88.0
216,64.16432046666665,64.59068991041666,62.0,91.0
217,64.16432046666665,64.59753921874999,59.0,89.0
218,64.57527896666666,64.78589519791666,47.0,83.0
219,64.98623746666665,65.57527798333332,59.0,88.0
220,64.98623746666665,65.58041496458333,64.0,89.0
221,64.98623746666665,65.58212729166665,67.0,91.0
222,64.98623746666665,65.61637383333333,62.0,93.0
223,64.98623746666665,66.18144177083333,52.0,86.0
224,65.80815446666666,66.21740063958332,59.0,93.0
225,65.80815446666666,66.21911296666666,64.0,98.0
226,65.80815446666666,66.22767460208333,62.0,102.0
227,65.80815446666666,66.22938692916665,67.0,94.0
228,66.63007146666666,67.130070975,64.0,96.0
229,66.63007146666666,67.13178330208332,60.0,88.0
230,66.63007146666666,67.15404355416666,67.0,92.0
231,67.45198846666666,67.97767288124999,67.0,92.0
232,67.45198846666666,68.0033577875,60.0,88.0
233,66.63007146666666,68.08041250624998,48.0,89.0
234,67.45198846666666,68.15061791666666,64.0,98.0
235,68.27390546666666,68.80815151666665,66.0,100.0
236,68.27390546666666,68.897192525,69.0,93.0
237,68.27390546666666,68.95883629999999,62.0,87.0
238,69.09582246666666,69.47424675208332,69.0,88.0
239,69.09582246666666,69.55472612499999,66.0,90.0
240,69.09582246666666,69.57698637708333,62.0,91.0
241,68.27390546666666,69.74136977708332,50.0,87.0
242,69.91773946666666,70.42287595625,67.0,91.0
243,69.91773946666666,70.48794438541665,62.0,92.0
244,69.91773946666666,70.50849231041666,60.0,87.0
245,70.32869796666665,70.81499885833333,50.0,70.0
246,70.73965646666666,71.15917660208332,60.0,93.0
247,70.73965646666666,71.16602591041666,67.0,94.0
248,70.73965646666666,71.18143685416666,62.0,102.0
249,69.91773946666666,71.2088340875,43.0,88.0
250,71.15061496666665,71.58212139166666,50.0,81.0
251,71.56157346666666,72.16260027291666,67.0,91.0
252,71.56157346666666,72.19513448749998,59.0,88.0
253,71.56157346666666,72.21054543125,62.0,102.0
254,72.17801121666666,72.48109311041665,50.0,86.0
255,72.38349046666666,72.72595588333333,67.0,100.0
256,71.56157346666666,72.77390104166666,43.0,87.0
257,72.38349046666666,72.83896947083332,59.0,113.0
258,72.58896971666665,72.8732160125,50.0,87.0
259,72.79444896666666,73.06157199166665,62.0,102.0
260,73.20540746666666,73.85266710416666,64.0,100.0
261,72.99992821666666,73.86465339374999,67.0,96.0
262,73.20540746666666,73.89205062708332,60.0,87.0
263,73.20540746666666,74.19170786666666,48.0,87.0
264,74.02732446666666,74.51876233958332,60.0,89.0
265,74.02732446666666,74.72937857083332,67.0,98.0
266,74.43828296666666,74.84924146666665,48.0,88.0
267,74.02732446666666,74.86465241041665,64.0,102.0
268,74.84924146666665,75.39547380625,69.0,88.0
269,74.84924146666665,75.51533670208332,66.0,90.0
270,74.84924146666665,75.554720225,62.0,89.0
271,74.84924146666665,75.87321306249999,50.0,88.0
272,75.67115846666665,76.03417180833333,62.0,92.0
273,75.67115846666665,76.05985671458332,66.0,103.0
274,75.67115846666665,76.06670602291666,69.0,91.0
275,76.08211696666666,76.33725370208332,50.0,78.0
276,76.49307546666665,77.06841736666665,59.0,88.0
277,76.49307546666665,77.07012969374999,66.0,86.0
278,76.49307546666665,77.09752692708332,62.0,92.0
279,76.49307546666665,77.17286931874999,69.0,87.0
280,76.49307546666665,77.41773209166665,47.0,87.0
281,77.31499246666665,77.72081398541665,66.0,86.0
282,77.31499246666665,77.72766329374998,62.0,92.0
283,77.31499246666665,77.73622492916665,69.0,87.0
284,77.31499246666665,77.76019750833332,59.0,89.0
285,77.72595096666666,78.07697801874998,47.0,88.0
286,78.13690946666665,78.68999111458332,67.0,91.0
287,78.13690946666665,78.69341576874999,64.0,89.0
288,78.13690946666665,78.70368973125,62.0,92.0
289,78.13690946666665,78.71396369374999,59.0,87.0
290,78.95882646666665,79.45368899374999,59.0,96.0
291,78.95882646666665,79.47937389999998,64.0,93.0
292,78.95882646666665,79.49649717083332,67.0,94.0
293,78.13690946666665,79.68656547708332,52.0,86.0
294,78.95882646666665,79.7362229625,62.0,102.0
295,79.78074346666665,80.34581140416665,64.0,100.0
296,79.78074346666665,80.42115379583332,67.0,100.0
297,79.78074346666665,80.42629077708332,60.0,88.0
298,79.78074346666665,80.78416713749999,48.0,88.0
299,80.60266046666666,80.99307104166665,64.0,96.0
300,80.60266046666666,80.99478336874999,60.0,88.0
301,80.60266046666666,81.03416689166666,67.0,91.0
302,81.01361896666666,81.38176928958332,48.0,86.0
303,81.42457746666666,81.98793307708333,57.0,84.0
304,81.42457746666666,81.9964947125,66.0,83.0
305,81.42457746666666,82.00848100208333,62.0,88.0
306,81.42457746666666,82.04957685208332,69.0,90.0
307,82.24649446666666,82.56498730416665,57.0,83.0
308,81.42457746666666,82.57012428541665,50.0,84.0
309,82.24649446666666,82.58039824791666,66.0,81.0
310,82.24649446666666,82.60608315416665,62.0,86.0
311,82.24649446666666,82.65574063958333,69.0,88.0
312,83.06841146666666,83.72765739375,59.0,89.0
313,83.06841146666666,83.75162997291666,68.0,85.0
314,83.06841146666666,83.76875324374998,64.0,94.0
315,83.89032846666666,84.43827313333333,59.0,86.0
316,83.89032846666666,84.46909502083332,68.0,81.0
317,83.89032846666666,84.48450596458332,64.0,87.0
318,83.06841146666666,84.74477968125,40.0,86.0
319,84.71224546666666,84.92457402499998,59.0,83.0
320,84.71224546666666,84.99820408958333,64.0,84.0
321,84.71224546666666,85.03587528541665,68.0,79.0
322,86.35607946666666,86.93484602083332,60.0,93.0
323,86.35607946666666,86.94683231041665,67.0,98.0
324,86.35607946666666,86.98792816041666,64.0,100.0
325,86.97251721666666,87.24991420416666,55.0,70.0
326,87.17799646666666,87.64888641458332,60.0,104.0
327,86.35607946666666,87.67114666666666,48.0,86.0
328,87.17799646666666,87.89032453333333,67.0,113.0
329,87.79443421666666,87.94683132708332,64.0,63.0
330,87.58895496666665,88.01874906458332,55.0,72.0
331,87.99991346666665,88.59237863749999,66.0,74.0
332,87.99991346666665,88.68998128124998,69.0,92.0
333,87.99991346666665,88.72080316874998,62.0,88.0
334,87.99991346666665,88.96909059583332,50.0,87.0
335,88.82183046666665,89.27730947083332,62.0,92.0
336,88.82183046666665,89.46395312291665,69.0,96.0
337,89.23278896666666,89.53244620624999,50.0,84.0
338,88.82183046666665,89.54100784166666,66.0,100.0
339,89.64374746666665,90.29785641249998,71.0,96.0
340,89.64374746666665,90.34922622499998,68.0,97.0
341,89.64374746666665,90.35778786041665,64.0,88.0
342,90.46566446666665,90.90915718125,71.0,89.0
343,90.46566446666665,90.99477353541666,64.0,90.0
344,90.46566446666665,90.99477353541666,68.0,91.0
345,91.08210221666666,91.16086926249999,68.0,85.0
346,91.08210221666666,91.18997882291666,71.0,88.0
347,91.08210221666666,91.19340347708332,64.0,88.0
348,90.87662296666666,91.61463593958332,59.0,74.0
349,89.64374746666665,91.69853996666666,52.0,86.0
350,91.49306071666665,91.94511506666666,71.0,92.0
351,91.49306071666665,91.96223833749998,68.0,93.0
352,91.49306071666665,91.98107393541666,64.0,88.0
353,91.90401921666665,92.25675859583332,52.0,86.0
354,92.10949846666665,92.36463520208332,68.0,116.0
355,92.10949846666665,92.53415558333332,71.0,110.0
356,92.10949846666665,92.58895005,64.0,94.0
357,92.52045696666666,92.61805961041665,52.0,90.0
358,92.93141546666665,93.58552441249999,67.0,93.0
359,92.93141546666665,93.60607233749998,64.0,102.0
360,92.93141546666665,93.61292164583332,60.0,92.0
361,92.93141546666665,93.94853775416665,48.0,88.0
362,93.75333246666665,94.21052379791665,60.0,98.0
363,93.75333246666665,94.33381134791665,67.0,102.0
364,94.16429096666666,94.41771537499999,48.0,86.0
365,93.75333246666665,94.52387965416665,64.0,104.0
366,94.57524946666665,95.00675589166666,50.0,85.0
367,94.57524946666665,95.22079677708332,69.0,96.0
368,94.57524946666665,95.24819401041665,66.0,93.0
369,94.57524946666665,95.25333099166666,62.0,89.0
370,95.19168721666665,95.56839917499998,50.0,88.0
371,95.39716646666665,95.87148106874999,62.0,91.0
372,95.39716646666665,95.92627553541665,69.0,92.0
373,95.80812496666665,96.03415214166665,50.0,81.0
374,95.39716646666665,96.07353566458332,66.0,100.0
375,96.21908346666666,96.85606914166665,71.0,90.0
376,96.21908346666666,96.92798687916665,64.0,86.0
377,96.21908346666666,96.94682247708332,68.0,89.0
378,97.04100046666666,97.61463003958332,71.0,88.0
379,97.04100046666666,97.66599985208332,64.0,89.0
380,97.04100046666666,97.69168475833332,68.0,90.0
381,97.86291746666666,98.50675245,71.0,89.0
382,97.86291746666666,98.54442364583332,64.0,91.0
383,97.86291746666666,98.55298528124999,68.0,91.0
384,98.68483446666666,99.26360102083332,68.0,100.0
385,98.68483446666666,99.29271058124999,64.0,96.0
386,98.68483446666666,99.33380643124998,71.0,100.0
387,96.21908346666666,99.52901171874998,52.0,87.0
388,99.50675146666666,100.70366809791665,43.0,87.0
389,99.91770996666665,100.77901048958331,50.0,70.0
390,100.32866846666666,100.93483225416665,59.0,82.0
391,100.32866846666666,101.12832521458331,62.0,78.0
392,100.32866846666666,101.58722887291665,69.0,83.0
393,101.15058546666666,101.63174937708332,60.0,77.0
394,101.15058546666666,101.64544799374998,64.0,74.0
395,101.15058546666666,102.36120071458332,48.0,80.0
396,101.97250246666665,102.36291304166666,60.0,77.0
397,101.97250246666665,102.58551556249999,69.0,86.0
398,101.97250246666665,102.76530990624998,64.0,70.0
399,101.56154396666665,102.78585783124998,55.0,65.0
400,102.79441946666665,103.14544651874999,62.0,77.0
401,102.79441946666665,103.15914513541665,69.0,80.0
402,102.79441946666665,103.16941909791666,66.0,80.0
403,103.61633646666665,103.93996628541666,62.0,75.0
404,103.20537796666666,104.03756892916665,57.0,66.0
405,102.79441946666665,104.07181547083331,50.0,80.0
406,103.61633646666665,104.44339044791666,66.0,81.0
407,103.61633646666665,104.46565069999998,74.0,87.0
408,104.43825346666665,105.28585537291666,43.0,88.0
409,104.84921196666666,105.29612933541665,74.0,92.0
410,105.26017046666665,105.68653991041666,69.0,91.0
411,105.67112896666666,106.08208746666665,71.0,87.0
412,105.26017046666665,106.09407375624998,42.0,82.0
413,106.08208746666665,106.80640182291665,67.0,88.0
414,106.08208746666665,107.28242875208332,40.0,86.0
415,106.49304596666666,107.30982598541665,47.0,68.0
416,106.90400446666665,107.43482586249999,59.0,86.0
417,106.90400446666665,107.64544209374999,67.0,83.0
418,106.90400446666665,107.67968863541665,52.0,70.0
419,107.72592146666665,107.86290763333332,64.0,70.0
420,107.72592146666665,108.28927707708331,60.0,65.0
421,107.72592146666665,108.33893456249999,67.0,86.0
422,107.72592146666665,109.02557772291665,48.0,75.0
423,108.54783846666665,109.08722149791666,60.0,86.0
424,108.54783846666665,109.37489244791665,67.0,87.0
425,108.13687996666665,109.44509785833331,55.0,64.0
426,109.36975546666665,109.85263170416665,69.0,87.0
427,109.36975546666665,109.90228918958331,62.0,86.0
428,109.78071396666665,110.52043926666666,57.0,73.0
429,109.36975546666665,110.52215159374998,50.0,81.0
430,110.19167246666665,110.68653499374999,69.0,87.0
431,110.19167246666665,110.99989084999999,62.0,88.0
432,111.01358946666666,111.47249312499999,59.0,87.0
433,111.42454796666665,111.62489023541666,71.0,78.0
434,111.01358946666666,111.84406810208331,43.0,78.0
435,111.63002721666665,111.87660231666665,72.0,81.0
436,111.01358946666666,111.88858860624998,67.0,88.0
437,111.83550646666666,112.19167049999999,71.0,88.0
438,112.24646496666665,112.64543717708332,69.0,88.0
439,112.65742346666666,113.06153265833332,62.0,88.0
440,112.65742346666666,113.06153265833332,67.0,84.0
441,112.65742346666666,113.80981959374998,43.0,82.0
442,113.06838196666665,113.83892915416665,50.0,70.0
443,113.47934046666666,113.94166877916665,62.0,84.0
444,113.47934046666666,114.21392878541666,69.0,86.0
445,113.47934046666666,114.27386023333332,55.0,71.0
446,114.30125746666666,114.76358577916665,69.0,87.0
447,114.30125746666666,114.78584603124999,64.0,84.0
448,114.30125746666666,115.46735221041665,48.0,73.0
449,115.12317446666665,115.52385900416665,64.0,87.0
450,114.71221596666665,115.55296856458332,55.0,52.0
451,115.12317446666665,115.84406416874998,69.0,89.0
452,115.94509146666665,116.45194028333331,62.0,85.0
453,115.94509146666665,116.45194028333331,69.0,86.0
454,115.94509146666665,117.02043287499998,50.0,80.0
455,116.35604996666665,117.02214520208332,57.0,71.0
456,116.76700846666665,117.52385703749998,62.0,88.0
457,116.76700846666665,117.59748710208332,69.0,86.0
458,117.58892546666665,118.02214421874999,43.0,83.0
459,117.58892546666665,118.14714409583331,62.0,82.0
460,117.58892546666665,118.15570573124998,67.0,82.0
461,117.99988396666664,118.41769177499998,74.0,96.0
462,118.41084246666665,118.78755442499998,42.0,79.0
463,118.41084246666665,118.80981467708332,69.0,91.0
464,118.82180096666666,119.25844437291666,74.0,86.0
465,119.23275946666665,119.44851267916665,64.0,84.0
466,119.23275946666665,119.73618362916665,67.0,84.0
467,119.23275946666665,120.31495018333332,40.0,81.0
468,119.64371796666666,120.60433346041665,52.0,71.0
469,120.87659346666665,121.23789448124998,64.0,84.0
470,120.87659346666665,121.32008618124999,60.0,81.0
471,120.05467646666665,121.38515461041665,67.0,88.0
472,121.28755196666665,121.83378430624998,55.0,46.0
473,120.87659346666665,122.17967437708332,48.0,81.0
474,121.69851046666665,122.17967437708332,60.0,84.0
475,121.69851046666665,122.50159186874998,67.0,88.0
476,122.10946896666665,122.55638633541665,55.0,65.0
477,122.52042746666665,122.99987904999999,69.0,91.0
478,122.52042746666665,123.02042697499998,62.0,88.0
479,122.93138596666665,123.62145378124998,57.0,70.0
480,122.52042746666665,123.63686472499998,50.0,86.0
481,123.34234446666665,123.86631655416664,69.0,89.0
482,123.34234446666665,124.11289165416665,62.0,88.0
483,124.16426146666664,124.63001443333332,59.0,86.0
484,124.16426146666664,124.64371304999999,43.0,79.0
485,124.16426146666664,124.93994563541665,67.0,85.0
486,124.98617846666664,125.55124640416665,57.0,84.0
487,124.98617846666664,125.66083533749999,42.0,78.0
488,124.98617846666664,125.67453395416665,66.0,86.0
489,125.80809546666664,126.45877975833332,67.0,94.0
490,125.80809546666664,127.10090241458332,40.0,84.0
491,126.21905396666665,127.14371059166665,52.0,74.0
492,126.63001246666666,127.22932694583332,59.0,84.0
493,126.63001246666666,127.28240908541665,67.0,88.0
494,127.24645021666664,127.42453223333332,66.0,82.0
495,127.24645021666664,127.85261400416665,62.0,77.0
496,127.45192946666666,127.89028519999998,69.0,88.0
497,127.86288796666665,128.38172307291666,54.0,68.0
498,128.27384646666664,128.62487351874998,62.0,94.0
499,127.45192946666666,128.71391452708332,47.0,83.0
500,128.27384646666664,129.040969,69.0,94.0
501,128.68480496666666,129.13514698958332,54.0,81.0
502,129.09576346666665,129.51870825625,60.0,87.0
503,129.09576346666665,129.7515847395833,48.0,84.0
504,129.09576346666665,129.84918738333332,67.0,86.0
505,129.91768046666664,130.26699519166664,50.0,81.0
506,129.91768046666664,130.3937073958333,57.0,89.0
507,129.91768046666664,130.68993998124998,66.0,85.0
508,131.15055596666664,131.2498709375,50.0,67.0
509,130.73959746666665,131.31493936666664,43.0,86.0
510,130.73959746666665,131.37144616041664,67.0,92.0
511,130.73959746666665,131.3954187395833,59.0,87.0
512,131.56151446666664,131.96391133125,66.0,100.0
513,131.56151446666664,131.97760994791665,42.0,78.0
514,131.56151446666664,132.04267837708332,59.0,87.0
515,131.97247296666666,132.78925298541665,67.0,89.0
516,132.38343146666665,132.84404745208332,64.0,86.0
517,132.38343146666665,132.87829399375,59.0,83.0
518,132.79438996666664,133.26185526041664,52.0,75.0
519,133.20534846666663,133.55637551874997,59.0,89.0
520,132.38343146666665,133.5734987895833,40.0,87.0
521,133.20534846666663,133.99644357916665,67.0,88.0
522,133.61630696666666,133.9998682333333,52.0,78.0
523,134.02726546666665,134.47247050833332,69.0,88.0
524,134.02726546666665,134.56151151666666,62.0,89.0
525,134.02726546666665,134.62829227291664,66.0,87.0
526,134.43822396666664,134.96562070833332,54.0,67.0
527,134.84918246666666,135.22589442499998,62.0,88.0
528,134.02726546666665,135.29267518125,47.0,81.0
529,134.84918246666666,135.4228120395833,69.0,91.0
530,134.84918246666666,135.56493518749997,66.0,89.0
531,135.26014096666665,135.65911317708333,54.0,77.0
532,135.67109946666665,136.1779482833333,67.0,88.0
533,135.67109946666665,136.17966061041665,60.0,86.0
534,135.67109946666665,136.1813729375,64.0,91.0
535,136.49301646666666,136.98445433958332,67.0,88.0
536,136.49301646666666,136.9947283020833,64.0,93.0
537,136.49301646666666,137.00842691875,60.0,87.0
538,137.31493346666664,137.68479611666666,64.0,94.0
539,137.31493346666664,137.68650844374997,60.0,88.0
540,137.31493346666664,137.69678240624998,67.0,91.0
541,135.67109946666665,137.70534404166665,48.0,87.0
542,138.13685046666666,138.4433570145833,48.0,84.0
543,138.13685046666666,138.49643915416664,60.0,90.0
544,138.13685046666666,138.50842544374999,67.0,93.0
545,138.95876746666664,139.3474657145833,66.0,97.0
546,138.95876746666664,139.4502053395833,57.0,93.0
547,139.36972596666664,140.1642457333333,45.0,64.0
548,139.78068446666666,140.1796566770833,62.0,90.0
549,138.95876746666664,140.2053415833333,38.0,94.0
550,139.78068446666666,140.21732787291666,55.0,100.0
551,140.19164296666665,140.92451895833332,50.0,81.0
552,140.60260146666664,140.93821757499998,62.0,107.0
553,140.60260146666664,140.94164222916666,54.0,91.0
554,140.60260146666664,140.97246411666666,38.0,93.0
555,142.24643546666664,142.705339125,64.0,102.0
556,142.24643546666664,142.72588704999998,60.0,92.0
557,142.24643546666664,142.74643497499997,67.0,94.0
558,142.65739396666666,143.12143460624998,55.0,73.0
559,143.06835246666665,143.5032835458333,60.0,92.0
560,142.24643546666664,143.5186944895833,48.0,91.0
561,143.06835246666665,143.55122870416665,67.0,102.0
562,143.06835246666665,143.79437914999997,64.0,107.0
563,143.47931096666665,143.92280368124997,55.0,80.0
564,143.89026946666664,144.42451551666664,69.0,98.0
565,143.89026946666664,144.57177564583333,66.0,93.0
566,143.89026946666664,144.5820496083333,62.0,88.0
567,143.89026946666664,144.8594465958333,50.0,90.0
568,144.71218646666665,145.08547377083332,62.0,98.0
569,144.71218646666665,145.10088471458332,69.0,89.0
570,144.71218646666665,145.1214326395833,66.0,106.0
571,145.12314496666664,145.18650106874998,50.0,80.0
572,145.53410346666664,146.11458234791664,66.0,90.0
573,145.53410346666664,146.14711656249997,69.0,91.0
574,145.53410346666664,146.15225354375,59.0,91.0
575,145.53410346666664,146.2361575708333,62.0,100.0
576,145.53410346666664,146.50156826875,47.0,88.0
577,146.35602046666665,146.72588311666664,69.0,88.0
578,146.35602046666665,146.732732425,66.0,88.0
579,146.35602046666665,146.78238991041664,62.0,91.0
580,146.35602046666665,146.78923921874997,59.0,89.0
581,146.76697896666664,146.97759519791666,47.0,83.0
582,147.17793746666663,147.7669779833333,59.0,88.0
583,147.17793746666663,147.77211496458332,64.0,89.0
584,147.17793746666663,147.77382729166663,67.0,91.0
585,147.17793746666663,147.8080738333333,62.0,93.0
586,147.17793746666663,148.3731417708333,52.0,86.0
587,147.99985446666665,148.4091006395833,59.0,93.0
588,147.99985446666665,148.41081296666664,64.0,98.0
589,147.99985446666665,148.4193746020833,62.0,102.0
590,147.99985446666665,148.42108692916665,67.0,94.0
591,148.82177146666666,149.321770975,64.0,96.0
592,148.82177146666666,149.3234833020833,60.0,88.0
593,148.82177146666666,149.34574355416666,67.0,92.0
594,149.64368846666665,150.16937288124998,67.0,92.0
595,149.64368846666665,150.1950577875,60.0,88.0
596,148.82177146666666,150.27211250624998,48.0,89.0
597,149.64368846666665,150.34231791666664,64.0,98.0
598,150.46560546666666,150.99985151666664,66.0,100.0
599,150.46560546666666,151.08889252499998,69.0,93.0
600,150.46560546666666,151.15053629999997,62.0,87.0
601,151.28752246666664,151.6659467520833,69.0,88.0
602,151.28752246666664,151.74642612499997,66.0,90.0
603,151.28752246666664,151.76868637708333,62.0,91.0
604,150.46560546666666,151.93306977708332,50.0,87.0
605,152.10943946666666,152.61457595624998,67.0,91.0
606,152.10943946666666,152.67964438541665,62.0,92.0
607,152.10943946666666,152.70019231041664,60.0,87.0
608,152.52039796666665,153.00669885833332,50.0,70.0
609,152.93135646666664,153.3508766020833,60.0,93.0
610,152.93135646666664,153.35772591041663,67.0,94.0
611,152.93135646666664,153.37313685416666,62.0,102.0
612,152.10943946666666,153.40053408749998,43.0,88.0
613,153.34231496666663,153.77382139166664,50.0,81.0
614,153.75327346666666,154.35430027291665,67.0,91.0
615,153.75327346666666,154.38683448749998,59.0,88.0
616,153.75327346666666,154.40224543124998,62.0,102.0
617,154.36971121666664,154.67279311041665,50.0,86.0
618,154.57519046666664,154.9176558833333,67.0,100.0
619,153.75327346666666,154.96560104166664,43.0,87.0
620,154.57519046666664,155.03066947083332,59.0,113.0
621,154.78066971666664,155.0649160125,50.0,87.0
622,154.98614896666663,155.25327199166665,62.0,102.0
623,155.39710746666665,156.04436710416664,64.0,100.0
624,155.19162821666666,156.05635339375,67.0,96.0
625,155.39710746666665,156.0837506270833,60.0,87.0
626,155.39710746666665,156.38340786666666,48.0,87.0
627,156.21902446666664,156.7104623395833,60.0,89.0
628,156.21902446666664,156.92107857083332,67.0,98.0
629,156.62998296666666,157.04094146666665,48.0,88.0
630,156.21902446666664,157.05635241041665,64.0,102.0
631,157.04094146666665,157.58717380624998,69.0,88.0
632,157.04094146666665,157.70703670208331,66.0,90.0
633,157.04094146666665,157.74642022499998,62.0,89.0
634,157.04094146666665,158.06491306249998,50.0,88.0
635,157.86285846666664,158.22587180833332,62.0,92.0
636,157.86285846666664,158.2515567145833,66.0,103.0
637,157.86285846666664,158.25840602291666,69.0,91.0
638,158.27381696666666,158.5289537020833,50.0,78.0
639,158.68477546666665,159.26011736666663,59.0,88.0
640,158.68477546666665,159.26182969374997,66.0,86.0
641,158.68477546666665,159.28922692708332,62.0,92.0
642,158.68477546666665,159.36456931874997,69.0,87.0
643,158.68477546666665,159.60943209166663,47.0,87.0
644,159.50669246666664,159.91251398541664,66.0,86.0
645,159.50669246666664,159.91936329374997,62.0,92.0
646,159.50669246666664,159.92792492916664,69.0,87.0
647,159.50669246666664,159.9518975083333,59.0,89.0
648,159.91765096666666,160.26867801874997,47.0,88.0
649,160.32860946666665,160.8816911145833,67.0,91.0
650,160.32860946666665,160.88511576874998,64.0,89.0
651,160.32860946666665,160.89538973125,62.0,92.0
652,160.32860946666665,160.90566369374997,59.0,87.0
653,161.15052646666663,161.64538899374998,59.0,96.0
654,161.15052646666663,161.67107389999998,64.0,93.0
655,161.15052646666663,161.68819717083332,67.0,94.0
656,160.32860946666665,161.87826547708332,52.0,86.0
657,161.15052646666663,161.9279229625,62.0,102.0
658,161.97244346666665,162.53751140416665,64.0,100.0
659,161.97244346666665,162.6128537958333,67.0,100.0
660,161.97244346666665,162.61799077708332,60.0,88.0
661,161.97244346666665,162.9758671375,48.0,88.0
662,162.79436046666663,163.18477104166664,64.0,96.0
663,162.79436046666663,163.18648336874998,60.0,88.0
664,162.79436046666663,163.22586689166664,67.0,91.0
665,163.20531896666665,163.5734692895833,48.0,86.0
666,163.61627746666665,164.1796330770833,57.0,84.0
667,163.61627746666665,164.18819471249998,66.0,83.0
668,163.61627746666665,164.2001810020833,62.0,88.0
669,163.61627746666665,164.2412768520833,69.0,90.0
670,164.43819446666666,164.75668730416663,57.0,83.0
671,163.61627746666665,164.76182428541665,50.0,84.0
672,164.43819446666666,164.77209824791663,66.0,81.0
673,164.43819446666666,164.79778315416664,62.0,86.0
674,164.43819446666666,164.8474406395833,69.0,88.0
675,165.26011146666664,165.91935739374998,59.0,89.0
676,165.26011146666664,165.94332997291664,68.0,85.0
677,165.26011146666664,165.96045324374998,64.0,94.0
678,166.08202846666666,166.62997313333332,59.0,86.0
679,166.08202846666666,166.66079502083332,68.0,81.0
680,166.08202846666666,166.67620596458332,64.0,87.0
681,165.26011146666664,166.93647968124998,40.0,86.0
682,166.90394546666664,167.11627402499997,59.0,83.0
683,166.90394546666664,167.1899040895833,64.0,84.0
684,166.90394546666664,167.22757528541663,68.0,79.0
685,168.34230021666664,169.58031269791664,60.0,71.0
686,168.44503984166664,169.70017559374998,64.0,77.0
687,168.54777946666664,169.76695635,67.0,86.0
688,168.54777946666664,169.82175081666665,48.0,75.0
689,170.19161346666664,171.20359877291665,50.0,76.0
690,169.98613421666664,171.33373563124997,62.0,64.0
691,170.19161346666664,171.36455751875,69.0,83.0
692,170.08887384166664,171.3970917333333,66.0,84.0
693,171.83544746666664,173.02209013541665,47.0,71.0
694,171.83544746666664,173.0511996958333,69.0,83.0
695,171.62996821666664,173.08030925625,59.0,77.0
696,171.73270784166664,173.2001721520833,62.0,81.0
697,173.27380221666664,174.6539378458333,59.0,76.0
698,173.47928146666663,174.6898967145833,52.0,81.0
699,173.37654184166664,174.71729394791663,64.0,71.0
700,173.47928146666663,174.7207186020833,67.0,84.0
701,174.91763621666664,175.63681359166665,60.0,71.0
702,175.02037584166663,175.66763547916665,64.0,71.0
703,175.12311546666663,175.69845736666664,67.0,86.0
704,175.73955321666665,176.09058026875,55.0,71.0
705,175.12311546666663,176.47242920833332,48.0,85.0
706,175.94503246666665,176.5237990208333,60.0,88.0
707,175.94503246666665,176.69160707499998,67.0,89.0
708,176.76694946666663,177.50325011249998,62.0,87.0
709,176.76694946666663,177.55461992499997,66.0,84.0
710,176.76694946666663,177.56660621458332,69.0,87.0
711,177.58886646666664,178.02550987291664,69.0,77.0
712,177.58886646666664,178.03235918124997,66.0,84.0
713,177.58886646666664,178.0494824520833,62.0,88.0
714,176.76694946666663,178.10256459166663,50.0,86.0
715,178.41078346666663,178.9638651145833,67.0,92.0
716,178.41078346666663,179.0563307770833,59.0,90.0
717,178.41078346666663,179.12139920624998,62.0,93.0
718,179.23270046666664,179.96728878541666,67.0,93.0
719,179.23270046666664,179.99982299999996,59.0,90.0
720,179.23270046666664,180.00667230833332,62.0,96.0
721,180.05461746666666,180.67619219791663,67.0,91.0
722,178.41078346666663,180.7258496833333,43.0,84.0
723,180.05461746666666,180.73612364583332,59.0,88.0
724,180.05461746666666,180.7412606270833,62.0,93.0
725,180.87653446666664,181.30461623749997,47.0,89.0
726,180.87653446666664,181.46043800208332,59.0,94.0
727,180.87653446666664,181.4707119645833,67.0,98.0
728,180.87653446666664,181.6299583833333,62.0,102.0
729,181.69845146666665,182.35598506666665,60.0,96.0
730,181.69845146666665,182.35769739375,64.0,108.0
731,181.69845146666665,182.36283437499998,67.0,100.0
732,181.69845146666665,182.74297098749997,48.0,93.0
733,182.31488921666664,182.7446833145833,55.0,72.0
734,182.52036846666664,183.09057338541663,60.0,98.0
735,182.52036846666664,183.16762810416665,67.0,107.0
736,182.93132696666663,183.1864637020833,48.0,87.0
737,182.52036846666664,183.23954584166665,64.0,110.0
738,183.34228546666665,183.8799561708333,69.0,100.0
739,183.34228546666665,183.89023013333332,66.0,103.0
740,183.34228546666665,183.90221642291664,62.0,91.0
741,183.34228546666665,184.13680523333332,50.0,87.0
742,183.95872321666664,184.43646247291665,66.0,100.0
743,183.95872321666664,184.44159945416664,69.0,94.0
744,183.95872321666664,184.4450241083333,62.0,98.0
745,184.36968171666663,184.63851706874996,50.0,86.0
746,184.57516096666663,184.71728411458332,62.0,93.0
747,184.57516096666663,184.72070876874997,66.0,97.0
748,184.57516096666663,184.8611195895833,69.0,91.0
749,184.98611946666665,185.48440664791664,47.0,91.0
750,184.98611946666665,185.60255721666664,69.0,91.0
751,184.98611946666665,185.63337910416664,66.0,100.0
752,184.98611946666665,185.65050237499997,62.0,90.0
753,185.60255721666664,186.0015294270833,47.0,84.0
754,185.80803646666664,186.11454301458332,66.0,106.0
755,185.80803646666664,186.2224196208333,69.0,93.0
756,185.80803646666664,186.26180314374997,62.0,98.0
757,186.21899496666663,186.50152893541664,47.0,93.0
758,186.62995346666665,187.20187071249998,67.0,93.0
759,186.62995346666665,187.27378844999998,59.0,91.0
760,186.62995346666665,187.2806377583333,64.0,102.0
761,186.62995346666665,187.64878808124996,52.0,89.0
762,187.45187046666663,188.04433563749998,59.0,98.0
763,187.45187046666663,188.06830821666665,67.0,98.0
764,187.86282896666665,188.07858217916663,52.0,90.0
765,187.45187046666663,188.12652733749997,64.0,107.0
766,188.06830821666665,188.28577375624997,50.0,91.0
767,188.27378746666665,188.83371842291663,67.0,100.0
768,188.27378746666665,188.9090608145833,60.0,100.0
769,188.27378746666665,188.91762244999998,64.0,100.0
770,188.27378746666665,189.29947138958332,48.0,91.0
771,189.09570446666663,189.62481353541665,67.0,93.0
772,189.09570446666663,189.63508749791663,60.0,93.0
773,189.09570446666663,189.7566627208333,64.0,107.0
774,189.50666296666665,189.8696763083333,48.0,96.0
775,189.91762146666665,190.52892223541664,66.0,95.0
776,189.91762146666665,190.54433317916664,69.0,93.0
777,189.91762146666665,190.60255229999999,62.0,89.0
778,189.91762146666665,190.9484423708333,50.0,91.0
779,190.73953846666663,191.03748337916664,62.0,94.0
780,190.73953846666663,191.14193533124998,66.0,97.0
781,190.73953846666663,191.14193533124998,69.0,91.0
782,191.15049696666665,191.52207194374998,50.0,88.0
783,191.56145546666664,193.5272069583333,59.0,91.0
784,191.56145546666664,193.53405626666665,64.0,100.0
785,191.56145546666664,193.54090557499998,68.0,89.0
786,191.56145546666664,193.5528918645833,52.0,92.0
787,194.84912346666664,195.65734184999997,76.0,89.0
788,195.67104046666665,196.14706739583332,60.0,67.0
789,194.84912346666664,196.18131393749997,48.0,80.0
790,195.26008196666663,196.2241221145833,55.0,67.0
791,195.67104046666665,196.5220670270833,74.0,88.0
792,197.31487446666665,197.63336730416665,62.0,77.0
793,196.49295746666664,197.66932617291664,78.0,84.0
794,196.90391596666663,197.67617548124997,57.0,58.0
795,196.49295746666664,197.7087096958333,50.0,77.0
796,197.97925737499997,200.6316520270833,69.0,60.0
797,198.10254492499996,200.65391227916663,50.0,65.0
798,198.11624354166665,200.6624739145833,79.0,85.0
799,202.38507496041663,202.60254049999998,57.0,76.0
800,202.64363634999998,202.71897874166663,59.0,82.0
801,202.88507446874996,203.00836201874998,62.0,81.0
802,203.11281397083332,203.23267686666665,67.0,83.0
803,203.35596441666664,203.49123825624997,69.0,82.0
804,203.61452580625,203.69329285208332,71.0,80.0
805,203.8782241770833,204.07514179166665,74.0,81.0
806,204.20527864999997,204.43986746041665,79.0,68.0
807,204.56315501041664,204.89363413749996,83.0,64.0
808,204.91760671666663,205.04260659374998,86.0,83.0
809,201.83199331249997,205.78746887499997,50.0,65.0
810,202.11281495416665,205.7891812020833,55.0,76.0
811,201.40904852291663,205.84911264999997,43.0,83.0
