,start,end,pitch,velocity
0,20.63179755,20.8011155625,61.0,81.0
1,21.040888050000003,21.384069525,61.0,85.0
2,21.44997855,21.647705625,63.0,85.0
3,21.72270555,22.034068875000003,65.0,85.0
4,22.26815955,22.710204562500003,68.0,85.0
5,22.813613550000003,23.090886,70.0,85.0
6,23.22270405,23.6420218125,68.0,84.0
7,23.631794550000002,23.874976125000003,65.0,84.0
8,23.904521550000002,24.5261118375,68.0,84.0
9,24.44997555,24.6636117,65.0,84.0
10,24.72270255,25.031793150000002,63.0,84.0
11,24.99542955,25.347701925000003,61.0,84.0
12,25.540883550000004,25.7624742375,61.0,84.0
13,25.813610550000003,26.0192921625,63.0,84.0
14,26.086337550000003,26.412473587500003,65.0,84.0
15,26.631791550000003,26.86815495,70.0,84.0
16,26.904518550000002,27.132927412500003,65.0,83.0
17,27.177245550000002,28.328380762500004,68.0,83.0
18,29.086334550000004,29.2545162,65.0,82.0
19,29.22269805,29.3670160875,68.0,82.0
20,29.359061550000003,29.651106712500003,70.0,82.0
21,29.76815205,29.9306518875,70.0,82.0
22,30.177242550000003,30.332924212500004,70.0,82.0
23,30.449969550000002,30.8170146375,65.0,82.0
24,30.722696550000002,31.167014287500002,70.0,82.0
25,31.26815055,31.529513925000003,65.0,82.0
26,31.54087755,31.849968150000002,68.0,82.0
27,31.949968050000003,32.180649637500004,68.0,82.0
28,32.35905855,32.5351947375,63.0,82.0
29,32.631785550000004,33.231784950000005,61.0,82.0
30,33.17723955,33.402239325000004,58.0,82.0
31,33.44996655,33.60451185,65.0,82.0
32,33.72269355,33.8545116,65.0,82.0
33,33.995420550000006,34.10451135,63.0,82.0
34,34.26814755,34.511329125,63.0,82.0
35,34.540874550000005,34.829510625000005,58.0,82.0
36,34.81360155,34.974965025,65.0,82.0
37,35.35905555,35.434055475,65.0,82.0
38,35.086328550000005,35.437464562500004,63.0,82.0
39,35.631782550000004,35.765873325,65.0,82.0
40,36.17723655,37.0874629125,63.0,82.0
41,38.086325550000005,38.349961650000004,61.0,82.0
42,38.49541605,38.9420065125,61.0,82.0
43,38.90450655,39.26814255,63.0,82.0
44,39.177233550000004,39.70450575,65.0,82.0
45,39.72268755,40.1056417125,68.0,82.0
46,40.26814155,40.561323075000004,70.0,82.0
47,40.67723205,41.01018626250001,68.0,82.0
48,41.086322550000006,41.284049625,65.0,82.0
49,41.35904955,41.913594450000005,68.0,82.0
50,41.90450355,42.234048675000004,65.0,82.0
51,42.177230550000004,42.4920029625,63.0,82.0
52,42.44995755,42.7238209125,61.0,82.0
53,42.859048050000006,43.272684000000005,61.0,82.0
54,43.26813855,43.584047325,63.0,82.0
55,43.54086555000001,43.81018346250001,65.0,82.0
56,43.81359255,44.188592175000004,70.0,82.0
57,44.35904655,44.55563726250001,65.0,82.0
58,44.631773550000005,45.846545062500006,68.0,82.0
59,46.54086255000001,46.83518043750001,65.0,82.0
60,46.81358955,47.138589225000004,73.0,83.0
61,47.22268005,47.488588875000005,73.0,83.0
62,47.631770550000006,47.92495207500001,70.0,83.0
63,47.90449755,48.02267925,73.0,83.0
64,48.177224550000005,48.410178862500004,75.0,83.0
65,48.44995155,48.62040592500001,65.0,83.0
66,48.722678550000005,48.8760874875,70.0,83.0
67,48.99540555,49.261314375000005,68.0,83.0
68,49.404496050000006,49.6533594375,68.0,83.0
69,49.813586550000004,50.0272227,65.0,83.0
70,50.08631355000001,50.65676752500001,73.0,83.0
71,50.90449455,51.02267625,73.0,83.0
72,51.177221550000006,51.321539587500006,73.0,84.0
73,51.44994855,51.5692666125,70.0,84.0
74,51.722675550000005,51.872675400000006,70.0,84.0
75,51.99540255,52.123811512500005,68.0,84.0
76,52.268129550000005,52.387447612500004,73.0,84.0
77,52.54085655,52.6465382625,70.0,84.0
78,52.813583550000004,52.94199251250001,70.0,84.0
79,53.08631055000001,53.1919922625,73.0,84.0
80,53.359037550000004,54.44994555,75.0,84.0
81,54.44994555,54.720399825,68.0,84.0
82,54.722672550000006,54.843126975000004,70.0,84.0
83,54.99539955,55.088581275,73.0,84.0
84,55.268126550000005,55.38517188750001,75.0,84.0
85,55.54085355,55.8272169,77.0,85.0
86,55.949944050000006,56.17494382500001,77.0,85.0
87,56.359034550000004,56.4851707875,77.0,85.0
88,56.63176155000001,56.974943025,75.0,85.0
89,57.17721555000001,57.5010788625,73.0,86.0
90,57.722669550000006,58.01357835,75.0,86.0
91,57.99539655,58.302214425,77.0,86.0
92,58.54085055,59.14312267500001,68.0,86.0
93,59.08630455,59.14312267500001,68.0,86.0
94,59.359031550000005,59.58175860000001,68.0,86.0
95,59.63175855000001,59.80789473750001,70.0,86.0
96,59.904485550000004,60.091985362500004,73.0,86.0
97,60.17721255000001,60.3942577875,73.0,86.0
98,60.72266655000001,60.84084825000001,73.0,86.0
99,60.99539355,61.34084775,73.0,86.0
100,61.54084755,61.663574700000005,68.0,86.0
101,61.813574550000006,61.951074412500006,65.0,86.0
102,62.08630155,63.362436637500004,68.0,86.0
103,63.99539055,64.215844875,68.0,86.0
104,64.26811755,64.50448095,70.0,86.0
105,64.67720805,64.83629880000001,70.0,86.0
106,65.08629855000001,65.23629840000001,70.0,87.0
107,65.35902555,65.7897069375,73.0,87.0
108,65.90447955,66.0987975375,70.0,87.0
109,66.17720655000001,66.2897064375,73.0,87.0
110,66.44993355000001,66.5760697875,75.0,87.0
111,66.72266055,66.8374331625,73.0,87.0
112,66.99538755,67.193114625,73.0,87.0
113,67.26811455,67.4374325625,68.0,87.0
114,67.54084155000001,68.4533406375,77.0,87.0
115,68.63174955000001,68.838567525,78.0,87.0
116,68.90447655000001,69.0328855125,77.0,87.0
117,69.17720355,69.338567025,78.0,87.0
118,69.44993055,69.674930325,77.0,87.0
119,69.72265755000001,69.9237937125,73.0,87.0
120,69.99538455000001,70.27265700000001,70.0,87.0
121,70.54083855,70.67833841250001,77.0,87.0
122,70.81356555,71.19424698750001,75.0,87.0
123,71.90447355,72.211291425,68.0,87.0
124,72.17720055000001,72.3510640125,70.0,87.0
125,72.44992755000001,72.5487910875,73.0,87.0
126,72.72265455,72.8419726125,75.0,87.0
127,72.99538155,73.26583582500001,77.0,87.0
128,73.40447205000001,73.66015361250001,77.0,87.0
129,73.81356255,73.94538060000001,77.0,87.0
130,74.08628955,74.45674372500001,75.0,87.0
131,74.63174355000001,74.9715159375,73.0,87.0
132,75.17719755,75.3351519375,75.0,87.0
133,75.44992455,75.72606063750001,77.0,87.0
134,75.99537855000001,76.34424183750001,68.0,87.0
135,76.54083255,76.6601506125,68.0,87.0
136,76.81355955000001,77.1237865125,68.0,87.0
137,77.08628655000001,77.23628640000001,70.0,87.0
138,77.35901355,77.5374224625,73.0,87.0
139,77.76810405,78.0374219625,73.0,87.0
140,78.17719455000001,78.3919670625,73.0,87.0
141,78.44992155,78.8556029625,75.0,87.0
142,78.85901205,79.26014801250001,73.0,87.0
143,79.26810255000001,79.4306023875,75.0,87.0
144,79.54082955000001,80.42605593750001,80.0,87.0
145,80.35901055000001,80.52605583750001,73.0,87.0
146,80.63173755000001,80.80332828750001,82.0,87.0
147,80.90446455,81.15900975000001,80.0,87.0
148,81.17719155,81.4442367375,77.0,87.0
149,81.44991855,81.7374182625,80.0,87.0
150,81.72264555000001,82.26809955,73.0,87.0
151,82.54082655,82.68628095000001,73.0,87.0
152,82.81355355000001,82.94196251250001,75.0,87.0
153,83.08628055000001,83.193098625,73.0,87.0
154,83.35900755,83.53628010000001,73.0,87.0
155,83.63173455,83.784007125,70.0,87.0
156,83.90446155000001,84.4090065,77.0,87.0
157,84.72264255,84.86241513750001,73.0,87.0
158,84.99536955,85.4362782,80.0,87.0
159,85.81355055,85.93514133750001,77.0,87.0
160,86.08627755,86.68627695,75.0,87.0
161,86.90445855,87.08741291250001,70.0,87.0
162,87.17718555,87.5271852,73.0,87.0
163,87.72263955000001,88.115820975,77.0,87.0
164,88.26809355,89.35900155,75.0,87.0
165,89.35900155,89.63059218750001,73.0,87.0
166,89.76809205,90.06013721250001,70.0,87.0
167,90.17718255000001,90.32377331250001,68.0,87.0
168,90.44990955,93.73399717500001,73.0,87.0
169,107.90443755000001,108.16807365000001,61.0,87.0
170,108.31352805,108.76011851250001,61.0,87.0
171,108.72261855,109.08625455,63.0,87.0
172,108.99534555000001,109.52261775000001,65.0,87.0
173,109.54079955,109.9237537125,68.0,87.0
174,110.08625355000001,110.379435075,70.0,87.0
175,110.49534405000001,110.82829826250001,68.0,87.0
176,110.90443455,111.10216162500001,65.0,81.0
177,111.17716155000001,111.73170645,68.0,81.0
178,111.72261555000001,112.05216067500001,65.0,82.0
179,111.99534255,112.31011496250001,63.0,83.0
180,112.26806955,112.5419329125,61.0,83.0
181,112.67716005000001,113.09079600000001,61.0,83.0
182,113.08625055,113.40215932500001,63.0,83.0
183,113.35897755,113.6282954625,65.0,83.0
184,113.63170455000001,114.00670417500001,70.0,83.0
185,114.17715855000002,114.37374926250001,65.0,83.0
186,114.44988555,115.66465706250001,68.0,83.0
187,116.35897455000001,116.65329243750001,65.0,83.0
188,116.63170155,116.956701225,73.0,84.0
189,117.04079205000001,117.306700875,73.0,84.0
190,117.44988255000001,117.743064075,70.0,84.0
191,117.72260955000002,117.84079125000001,73.0,84.0
192,117.99533655,118.2282908625,75.0,84.0
193,118.26806355000001,118.43851792500001,65.0,84.0
194,118.54079055000001,118.69419948750001,70.0,85.0
195,118.81351755000001,119.07942637500001,68.0,85.0
196,119.22260805,119.47147143750001,68.0,86.0
197,119.63169855000001,119.84533470000001,65.0,86.0
198,119.90442555000001,120.474879525,73.0,86.0
199,120.72260655000001,120.84078825,73.0,86.0
200,120.99533355000001,121.13965158750001,73.0,86.0
201,121.26806055000002,121.38737861250002,70.0,86.0
202,121.54078755,121.6907874,70.0,86.0
203,121.81351455000001,121.94192351250001,68.0,86.0
204,122.08624155000001,122.20555961250001,73.0,86.0
205,122.35896855000001,122.46465026250002,70.0,86.0
206,122.63169555,122.7601045125,70.0,86.0
207,122.90442255,123.01010426250001,73.0,86.0
208,123.17714955000001,124.26805755000001,75.0,86.0
209,124.26805755000001,124.53851182500001,68.0,87.0
210,124.54078455000001,124.661238975,70.0,87.0
211,124.81351155000002,124.90669327500001,73.0,87.0
212,125.08623855,125.2032838875,75.0,87.0
213,125.35896555000001,125.64532890000001,77.0,87.0
214,125.76805605000001,125.99305582500001,77.0,87.0
215,126.17714655,126.30328278750001,77.0,88.0
216,126.44987355,126.79305502500002,75.0,88.0
217,126.99532755000001,127.31919086250001,73.0,88.0
218,127.54078155,127.83169035000002,75.0,88.0
219,127.81350855000001,128.120326425,77.0,88.0
220,128.35896255,128.96123467500001,68.0,88.0
221,128.90441655,128.96123467500001,68.0,88.0
222,129.17714355,129.3998706,68.0,88.0
223,129.44987055,129.6260067375,70.0,88.0
224,129.72259755000002,129.9100973625,73.0,88.0
225,129.99532455000002,130.21236978750002,73.0,88.0
226,130.54077855,130.65896025,73.0,88.0
227,130.81350555,131.15895975,73.0,88.0
228,131.35895955,131.4816867,68.0,88.0
229,131.63168655,131.7691864125,65.0,88.0
230,131.90441355000002,133.1805486375,68.0,88.0
231,133.81350255,134.033956875,68.0,88.0
232,134.08622955,134.32259295,70.0,88.0
233,134.49532005,134.65441080000002,70.0,88.0
234,134.90441055000002,135.05441040000002,70.0,88.0
235,135.17713755,135.6078189375,73.0,88.0
236,135.72259155,135.9169095375,70.0,88.0
237,135.99531855,136.10781843750001,73.0,88.0
238,136.26804555,136.3941817875,75.0,88.0
239,136.54077255,136.6555451625,73.0,88.0
240,136.81349955000002,137.011226625,73.0,88.0
241,137.08622655000002,137.2555445625,68.0,88.0
242,137.35895355000002,138.2714526375,77.0,88.0
243,138.44986155,138.65667952500002,78.0,88.0
244,138.72258855,138.85099751250002,77.0,88.0
245,138.99531555000002,139.15667902500002,78.0,88.0
246,139.26804255000002,139.493042325,77.0,87.0
247,139.54076955000002,139.7419057125,73.0,87.0
248,139.81349655000002,140.09076900000002,70.0,87.0
249,140.35895055,140.49645041250002,77.0,87.0
250,140.63167755,141.01235898750002,75.0,87.0
251,141.72258555000002,142.029403425,68.0,87.0
252,141.99531255000002,142.1691760125,70.0,87.0
253,142.26803955,142.36690308750002,73.0,87.0
254,142.54076655,142.66008461250001,75.0,87.0
255,142.81349355,143.08394782500002,77.0,87.0
256,143.22258405000002,143.47826561250002,77.0,87.0
257,143.63167455,143.7634926,77.0,87.0
258,143.90440155000002,144.274855725,75.0,87.0
259,144.44985555000002,144.7896279375,73.0,87.0
260,144.99530955,145.15326393750001,75.0,87.0
261,145.26803655,145.5441726375,77.0,87.0
262,145.81349055,146.1623538375,68.0,87.0
263,146.35894455000002,146.4782626125,68.0,87.0
264,146.63167155000002,146.94189851250002,68.0,87.0
265,146.90439855000002,147.05439840000003,70.0,87.0
266,147.17712555,147.3555344625,73.0,87.0
267,147.58621605000002,147.8555339625,73.0,87.0
268,147.99530655,148.2100790625,73.0,87.0
269,148.26803355,148.67371496250001,75.0,87.0
270,148.67712405,149.0782600125,73.0,87.0
271,149.08621455000002,149.2487143875,75.0,87.0
272,149.35894155000003,150.2441679375,80.0,87.0
273,150.17712255,150.3441678375,73.0,87.0
274,150.44984955,150.6214402875,82.0,87.0
275,150.72257655,150.97712175,80.0,87.0
276,150.99530355000002,151.26234873750002,77.0,87.0
277,151.26803055000002,151.5555302625,80.0,87.0
278,151.54075755000002,152.08621155,73.0,87.0
279,152.35893855,152.50439295,73.0,87.0
280,152.63166555,152.7600745125,75.0,87.0
281,152.90439255,153.01121062500002,73.0,87.0
282,153.17711955000001,153.3543921,73.0,87.0
283,153.44984655000002,153.602119125,70.0,87.0
284,153.72257355000002,154.22711850000002,77.0,87.0
285,154.54075455,154.6805271375,73.0,87.0
286,154.81348155,155.25439020000002,80.0,87.0
287,155.63166255000002,155.7532533375,77.0,87.0
288,155.90438955000002,156.50438895000002,75.0,87.0
289,156.72257055,156.9055249125,70.0,87.0
290,156.99529755,157.3452972,73.0,87.0
291,157.54075155,157.933932975,77.0,87.0
292,158.08620555000002,159.17711355,75.0,87.0
293,159.17711355,159.4487041875,73.0,87.0
294,159.58620405000002,159.8782492125,70.0,87.0
295,159.99529455,160.14188531250002,68.0,87.0
296,160.26802155000001,161.90438355,73.0,87.0
297,178.81345755,179.083911825,68.0,89.0
298,179.08618455,179.206638975,70.0,89.0
299,179.35891155000002,179.452093275,73.0,89.0
300,179.63163855000002,179.74868388750002,75.0,89.0
301,179.90436555000002,180.1907289,77.0,89.0
302,180.31345605,180.53845582500003,77.0,89.0
303,180.72254655,180.84868278750002,77.0,89.0
304,180.99527355,181.338455025,75.0,89.0
305,181.54072755,181.86459086250002,73.0,90.0
306,182.08618155000002,182.37709035,75.0,90.0
307,182.35890855000002,182.665726425,77.0,90.0
308,182.90436255,183.50663467500002,68.0,90.0
309,183.44981655,183.50663467500002,68.0,90.0
310,183.72254355,183.94527060000001,68.0,90.0
311,183.99527055000001,184.1714067375,70.0,90.0
312,184.26799755000002,184.4554973625,73.0,90.0
313,184.54072455000002,184.75776978750002,73.0,90.0
314,185.08617855000003,185.20436025,73.0,90.0
315,185.35890555,185.70435975,73.0,90.0
316,185.90435955,186.0270867,68.0,90.0
317,186.17708655,186.3145864125,65.0,91.0
318,186.44981355000002,187.7259486375,68.0,91.0
319,188.35890255,188.579356875,68.0,91.0
320,188.63162955,188.86799295,70.0,91.0
321,189.04072005,189.19981080000002,70.0,91.0
322,189.44981055000002,189.59981040000002,70.0,91.0
323,189.72253755000003,190.15321893750001,73.0,91.0
324,190.26799155,190.4623095375,70.0,91.0
325,190.54071855,190.65321843750002,73.0,91.0
326,190.81344555,190.9395817875,75.0,92.0
327,191.08617255000001,191.2009451625,73.0,92.0
328,191.35889955000002,191.556626625,73.0,92.0
329,191.63162655000002,191.8009445625,68.0,92.0
330,191.90435355000002,192.8168526375,77.0,92.0
331,192.99526155,193.20207952500002,78.0,92.0
332,193.26798855,193.39639751250002,77.0,92.0
333,193.54071555000002,193.70207902500002,78.0,92.0
334,193.81344255000002,194.038442325,77.0,92.0
335,194.08616955000002,194.28730571250003,73.0,92.0
336,194.35889655000003,194.63616900000002,70.0,92.0
337,194.90435055,195.04185041250003,77.0,92.0
338,195.17707755,195.55775898750002,75.0,92.0
339,196.26798555000002,196.57480342500003,68.0,92.0
340,196.54071255000002,196.7145760125,70.0,92.0
341,196.81343955000003,196.91230308750002,73.0,92.0
342,197.08616655,197.20548461250002,75.0,92.0
343,197.35889355,197.62934782500002,77.0,92.0
344,197.76798405000002,198.02366561250003,77.0,92.0
345,198.17707455000001,198.3088926,77.0,92.0
346,198.44980155000002,198.820255725,75.0,92.0
347,198.99525555000002,199.33502793750003,73.0,92.0
348,199.54070955,199.69866393750002,75.0,93.0
349,199.81343655,200.08957263750003,77.0,93.0
350,200.35889055,200.7077538375,68.0,93.0
351,200.90434455000002,201.0236626125,68.0,93.0
352,201.17707155000002,201.48729851250002,68.0,93.0
353,201.44979855000003,201.59979840000003,70.0,93.0
354,201.72252555000003,201.9009344625,73.0,93.0
355,202.13161605000002,202.4009339625,73.0,93.0
356,202.54070655,202.75547906250003,73.0,93.0
357,202.81343355,203.21911496250002,75.0,93.0
358,203.22252405,203.6236600125,73.0,93.0
359,203.63161455000002,203.7941143875,75.0,93.0
360,203.90434155000003,204.7895679375,80.0,93.0
361,204.72252255,204.8895678375,73.0,93.0
362,204.99524955,205.1668402875,82.0,93.0
363,205.26797655000001,205.52252175,80.0,93.0
364,205.54070355000002,205.80774873750002,77.0,93.0
365,205.81343055000002,206.10093026250001,80.0,93.0
366,206.08615755000002,206.63161155,73.0,93.0
367,206.90433855,207.04979295,73.0,93.0
368,207.17706555,207.3054745125,75.0,93.0
369,207.44979255,207.55661062500002,73.0,93.0
370,207.72251955000002,207.8997921,73.0,93.0
371,207.99524655000002,208.147519125,70.0,93.0
372,208.26797355000002,208.77251850000002,77.0,94.0
373,209.08615455,209.2259271375,73.0,94.0
374,209.35888155,209.79979020000002,80.0,94.0
375,210.17706255000002,210.2986533375,77.0,94.0
376,210.44978955000002,211.04978895000002,75.0,94.0
377,211.26797055000003,211.45092491250003,70.0,94.0
378,211.54069755,211.8906972,73.0,95.0
379,212.08615155,212.479332975,77.0,95.0
380,212.63160555000002,213.72251355000003,75.0,96.0
381,213.72251355000003,213.99410418750003,73.0,96.0
382,214.13160405000002,214.4236492125,70.0,96.0
383,214.54069455,214.68728531250002,68.0,96.0
384,214.81342155000002,216.44978355,73.0,96.0
