,start,end,pitch,velocity
0,3.4499965500000003,3.5931782250000004,65.0,65.0
1,3.7227235500000004,3.9090870000000004,70.0,93.0
2,3.7227235500000004,4.019314162500001,58.0,71.0
3,3.99545055,4.14090495,65.0,87.0
4,3.17726955,4.1681776500000005,42.0,86.0
5,3.4499965500000003,4.220450325000001,49.0,74.0
6,3.99545055,4.2613593750000005,54.0,70.0
7,4.5409045500000005,4.688631675000001,63.0,64.0
8,4.81363155,4.9693132125,68.0,98.0
9,4.268177550000001,5.013631350000001,44.0,70.0
10,4.5409045500000005,5.04999495,51.0,71.0
11,4.81363155,5.0772676500000005,60.0,70.0
12,5.086358550000001,5.2886310750000005,63.0,90.0
13,5.086358550000001,5.3590855500000005,54.0,60.0
14,5.63181255,5.7602215125,65.0,63.0
15,5.904539550000001,6.0465848625000005,73.0,81.0
16,5.904539550000001,6.2261301375,61.0,72.0
17,6.177266550000001,6.31363005,65.0,100.0
18,5.63181255,6.5784025125,53.0,52.0
19,6.44999355,6.6943114875,72.0,79.0
20,6.177266550000001,6.838629525000001,58.0,76.0
21,6.722720550000001,6.9579475875000005,65.0,65.0
22,6.995447550000001,7.220447325,70.0,65.0
23,5.3590855500000005,7.312492687500001,46.0,76.0
24,6.995447550000001,7.320447225000001,53.0,58.0
25,7.26817455,7.4943106875000005,68.0,70.0
26,7.26817455,7.589765137500001,61.0,65.0
27,7.813628550000001,8.013628350000001,65.0,64.0
28,8.08635555,8.393173425,70.0,83.0
29,8.08635555,8.403400687500001,58.0,67.0
30,7.540901550000001,8.4624915375,42.0,64.0
31,8.35908255,8.486355150000001,65.0,87.0
32,7.813628550000001,8.580673237500001,49.0,47.0
33,8.35908255,8.680673137500001,54.0,87.0
34,8.904536550000001,9.028400062500001,63.0,87.0
35,9.177263550000001,9.3454452,68.0,87.0
36,9.177263550000001,9.447717825000002,60.0,87.0
37,8.63180955,9.563626800000002,44.0,87.0
38,9.44999055,9.584081325000001,63.0,87.0
39,8.904536550000001,9.599990400000001,51.0,87.0
40,9.44999055,9.7545357,56.0,87.0
41,9.99544455,10.204535250000001,65.0,87.0
42,10.26817155,10.367035087500001,72.0,88.0
43,10.26817155,10.552262175000001,61.0,88.0
44,9.99544455,10.573853062500001,53.0,87.0
45,10.540898550000001,10.673852962500002,73.0,88.0
46,10.813625550000001,10.9443072375,72.0,88.0
47,10.540898550000001,11.148852487500001,58.0,88.0
48,11.08635255,11.248852387500001,70.0,88.0
49,11.35907955,11.502261225000002,68.0,88.0
50,9.72271755,11.663624700000002,46.0,87.0
51,11.08635255,11.679533775000001,61.0,88.0
52,10.813625550000001,11.697715575,53.0,88.0
53,11.63180655,11.934078975,58.0,88.0
54,11.63180655,11.939760787500001,70.0,88.0
55,12.177260550000002,12.313624050000001,65.0,88.0
56,12.449987550000001,12.653396437500001,70.0,88.0
57,12.449987550000001,12.7624872375,58.0,88.0
58,11.904533550000002,12.7965781125,42.0,88.0
59,12.177260550000002,12.829532625,49.0,88.0
60,12.722714550000001,12.855668962500001,65.0,88.0
61,12.722714550000001,13.0579414875,54.0,88.0
62,13.26816855,13.3965775125,63.0,89.0
63,13.540895550000002,13.785213487500002,68.0,89.0
64,13.540895550000002,13.796577112500001,60.0,89.0
65,12.99544155,13.865895225000001,44.0,89.0
66,13.813622550000002,13.93180425,63.0,89.0
67,13.26816855,13.942031512500002,51.0,89.0
68,13.813622550000002,14.122713150000001,56.0,89.0
69,14.359076550000001,14.530667287500002,63.0,89.0
70,14.63180355,14.729530725000002,70.0,89.0
71,14.63180355,14.905666912500001,61.0,89.0
72,14.90453055,15.0170304375,73.0,89.0
73,14.359076550000001,15.031803150000002,53.0,89.0
74,15.177257550000002,15.297711975,72.0,90.0
75,15.449984550000002,15.581802600000001,70.0,90.0
76,14.90453055,15.685211587500001,58.0,89.0
77,15.722711550000001,15.867029587500001,68.0,90.0
78,15.449984550000002,15.955665862500002,53.0,90.0
79,15.722711550000001,15.962484037500001,61.0,90.0
80,14.086349550000001,15.995438550000001,46.0,89.0
81,15.995438550000001,16.115892975,65.0,90.0
82,15.995438550000001,16.212483787500002,58.0,90.0
83,16.540892550000002,16.6920287625,65.0,90.0
84,16.813619550000002,17.0283920625,70.0,90.0
85,16.813619550000002,17.151119212500003,58.0,90.0
86,16.268165550000003,17.1727101,42.0,90.0
87,17.086346550000002,17.2124827875,65.0,90.0
88,16.540892550000002,17.256800925,49.0,90.0
89,17.086346550000002,17.398846237500003,54.0,90.0
90,17.63180055,17.753391337500002,63.0,90.0
91,17.90452755,18.0761182875,68.0,90.0
92,17.90452755,18.1999818,60.0,90.0
93,17.35907355,18.26816355,44.0,90.0
94,17.63180055,18.2874817125,51.0,90.0
95,18.17725455,18.315890775,63.0,90.0
96,18.17725455,18.467026987500002,56.0,90.0
97,18.72270855,18.871572037500002,63.0,90.0
98,18.99543555,19.146571762500002,70.0,90.0
99,18.99543555,19.178389912500002,66.0,90.0
100,19.268162550000003,19.540889550000003,65.0,90.0
101,19.268162550000003,19.590889500000003,68.0,90.0
102,19.813616550000003,20.32270695,63.0,90.0
103,19.813616550000003,20.34088875,66.0,90.0
104,18.44998155,20.41361595,49.0,90.0
105,18.72270855,20.468161350000003,56.0,90.0
106,20.359070550000002,21.17725155,65.0,90.0
107,21.17725155,21.747705525,61.0,90.0
108,21.99543255,22.351114012500002,61.0,90.0
109,21.44997855,22.385204887500002,65.0,90.0
110,20.63179755,22.595431950000002,49.0,90.0
111,20.90452455,22.8306589875,56.0,90.0
112,22.540886550000003,22.84997715,65.0,90.0
113,22.26815955,23.60452185,68.0,90.0
114,23.631794550000002,23.97724875,63.0,90.0
115,23.086340550000003,24.418157400000002,56.0,90.0
116,23.904521550000002,24.5102027625,68.0,90.0
117,22.813613550000003,24.51361185,48.0,90.0
118,24.44997555,24.7852024875,65.0,90.0
119,24.72270255,25.0011113625,68.0,90.0
120,24.72270255,25.523838112500002,61.0,90.0
121,25.540883550000004,26.29542825,58.0,90.0
122,25.813610550000003,26.459064450000003,61.0,90.0
123,25.26815655,26.568155250000004,53.0,90.0
124,24.99542955,26.661336975,46.0,90.0
125,26.359064550000003,26.724973275000004,65.0,90.0
126,26.631791550000003,27.173836462500002,61.0,90.0
127,26.904518550000002,27.1965637125,65.0,90.0
128,27.99542655,28.663607700000004,53.0,90.0
129,28.54088055,28.982925562500004,56.0,90.0
130,27.177245550000002,29.005652812500003,41.0,90.0
131,28.813607550000004,29.10451635,60.0,90.0
132,27.72269955,29.238607125,48.0,90.0
133,29.086334550000004,29.424970575000003,56.0,90.0
134,29.904515550000003,30.4692877125,54.0,90.0
135,30.722696550000002,31.062468937500004,54.0,89.0
136,30.177242550000003,31.0897416375,58.0,90.0
137,29.631788550000003,31.132923412500002,49.0,90.0
138,29.359061550000003,31.223832412500002,42.0,90.0
139,30.99542355,31.290877800000004,61.0,89.0
140,31.26815055,31.576104787500004,58.0,89.0
141,31.54087755,32.304513150000005,41.0,89.0
142,31.81360455,32.34087675,48.0,89.0
143,32.086331550000004,32.580649237500005,53.0,89.0
144,32.35905855,32.618149200000005,56.0,89.0
145,32.49542205,32.623831012500005,60.0,89.0
146,32.631785550000004,33.519284662500006,46.0,89.0
147,32.90451255,33.5488300875,53.0,89.0
148,33.17723955,33.597693675,58.0,89.0
149,33.44996655,33.7170117375,61.0,89.0
150,34.26814755,34.7829197625,63.0,89.0
151,34.540874550000005,34.97723775,65.0,89.0
152,33.995420550000006,35.035192237500006,58.0,89.0
153,33.72269355,35.0874649125,51.0,89.0
154,34.81360155,35.130646687500004,66.0,89.0
155,35.086328550000005,35.4192827625,68.0,89.0
156,35.35905555,35.6420098125,66.0,89.0
157,35.49541905,35.681782500000004,65.0,89.0
158,36.44996355,37.0738265625,56.0,89.0
159,36.72269055,37.079508375,58.0,89.0
160,37.26814455,37.546553362500006,56.0,89.0
161,36.995417550000006,37.553371537500006,60.0,89.0
162,36.17723655,37.611326025000004,51.0,89.0
163,35.90450955,37.690871400000006,44.0,89.0
164,37.540871550000006,37.867007587500005,61.0,89.0
165,37.81359855,38.13178005,60.0,89.0
166,38.631779550000005,39.1351881375,49.0,89.0
167,38.90450655,39.793142025,53.0,89.0
168,39.72268755,39.9942781875,56.0,89.0
169,38.086325550000005,40.047687225000004,37.0,89.0
170,38.35905255,40.171550737500006,44.0,89.0
171,39.44996055,40.1829143625,49.0,89.0
172,39.99541455000001,40.335186937500005,53.0,89.0
173,40.81359555,41.4908676,53.0,89.0
174,40.26814155,41.945412600000004,41.0,89.0
175,40.540868550000006,41.97495802500001,48.0,89.0
176,41.086322550000006,42.002230725000004,56.0,89.0
177,41.90450355,42.165866925,60.0,89.0
178,41.631776550000005,42.406775775,53.0,89.0
179,42.177230550000004,42.496548412500005,56.0,89.0
180,42.99541155,43.5579109875,58.0,89.0
181,43.26813855,44.05904685,61.0,89.0
182,43.81359255,44.1090468,58.0,89.0
183,42.722684550000004,44.1454104,53.0,89.0
184,42.44995755,44.236319400000006,46.0,89.0
185,44.086319550000006,44.424955575000006,65.0,89.0
186,44.35904655,44.6715462375,61.0,89.0
187,45.177227550000005,45.861317775,53.0,89.0
188,45.44995455,46.37722635,56.0,89.0
189,45.722681550000004,46.484044425,60.0,89.0
190,46.54086255000001,46.6272261,60.0,89.0
191,46.54086255000001,46.63518063750001,56.0,89.0
192,45.99540855,46.6454079,53.0,89.0
193,44.631773550000005,46.6635897,41.0,89.0
194,44.90450055,46.823816812500006,48.0,89.0
195,46.81358955,47.6908614,58.0,89.0
196,47.35904355,47.815861275,54.0,89.0
197,47.631770550000006,48.4192697625,61.0,89.0
198,48.177224550000005,48.6238150125,54.0,89.0
199,47.08631655000001,48.71472401250001,49.0,89.0
200,46.81358955,48.760178512500005,42.0,89.0
201,48.44995155,48.7829057625,58.0,89.0
202,48.722678550000005,49.0397236875,61.0,89.0
203,48.99540555,49.6147231125,41.0,89.0
204,48.99540555,49.630632187500005,56.0,89.0
205,48.99540555,49.649950350000005,60.0,89.0
206,49.268132550000004,49.699950300000005,48.0,89.0
207,49.54085955,50.0715408375,53.0,89.0
208,49.813586550000004,50.152222575,56.0,89.0
209,50.90449455,51.047676225000004,60.0,89.0
210,50.631767550000006,51.193130625,58.0,89.0
211,50.35904055,51.1999488,53.0,89.0
212,50.08631355000001,51.265857825000005,46.0,89.0
213,51.177221550000006,51.722675550000005,61.0,89.0
214,51.722675550000005,52.15335693750001,51.0,89.0
215,51.722675550000005,52.46699298750001,58.0,89.0
216,51.99540255,52.8851743875,54.0,89.0
217,51.177221550000006,53.026083337500005,39.0,89.0
218,51.44994855,53.07381056250001,46.0,89.0
219,52.813583550000004,53.114719612500004,63.0,89.0
220,52.54085655,53.31812850000001,51.0,89.0
221,53.08631055000001,53.394264787500006,54.0,89.0
222,53.90449155,54.37040017500001,56.0,89.0
223,54.177218550000006,55.07267220000001,60.0,89.0
224,54.722672550000006,55.15335393750001,56.0,89.0
225,53.359037550000004,55.33517193750001,44.0,89.0
226,54.99539955,55.3397173875,63.0,89.0
227,53.63176455000001,55.352217375,51.0,89.0
228,55.268126550000005,55.569262612500005,60.0,89.0
229,55.54085355,55.705626112500006,65.0,96.0
230,55.67721705,55.705626112500006,65.0,28.0
231,55.54085355,56.1726711,68.0,100.0
232,56.22267105,56.43744356250001,61.0,73.0
233,55.949944050000006,56.61244338750001,49.0,54.0
234,55.54085355,57.209033700000006,37.0,99.0
235,56.63176155000001,57.248806387500004,65.0,99.0
236,55.813580550000005,57.265851825000006,44.0,34.0
237,56.63176155000001,57.284033625000006,68.0,102.0
238,56.90448855,57.6124423875,49.0,86.0
239,57.17721555000001,57.87266940000001,61.0,97.0
240,57.44994255,58.31698713750001,68.0,100.0
241,57.44994255,58.324941675000005,65.0,71.0
242,58.131760050000004,58.56698688750001,60.0,69.0
243,58.54085055,58.706759475000005,68.0,63.0
244,58.54085055,58.7147140125,65.0,63.0
245,57.586306050000005,58.901077462500005,36.0,63.0
246,59.08630455,59.228349862500004,36.0,73.0
247,58.813577550000005,59.453349637500004,68.0,117.0
248,58.813577550000005,59.4919859625,65.0,117.0
249,59.495395050000006,59.785167487500004,65.0,70.0
250,59.359031550000005,59.90221282500001,60.0,99.0
251,59.63175855000001,59.941985512500004,68.0,97.0
252,60.72266655000001,60.898802737500006,65.0,69.0
253,60.72266655000001,60.91698453750001,70.0,66.0
254,60.44993955,60.931757250000004,61.0,81.0
255,60.040849050000006,61.05448440000001,58.0,85.0
256,60.99539355,61.456756725000005,65.0,99.0
257,60.99539355,61.474938525000006,70.0,102.0
258,61.268120550000006,61.5783475125,58.0,92.0
259,61.54084755,61.5965293125,70.0,45.0
260,59.904485550000004,61.663574700000005,46.0,112.0
261,61.54084755,62.0851651875,61.0,107.0
262,61.813574550000006,62.096528812500004,65.0,71.0
263,61.813574550000006,62.1363015,70.0,97.0
264,62.904482550000004,63.10220962500001,68.0,81.0
265,62.904482550000004,63.12720960000001,63.0,74.0
266,62.63175555000001,63.138573225,60.0,70.0
267,62.359028550000005,63.3453912,56.0,82.0
268,63.449936550000004,63.6078909375,56.0,100.0
269,62.08630155,63.662436337500004,44.0,102.0
270,63.17720955000001,63.78516348750001,63.0,107.0
271,63.72266355000001,64.26811755,60.0,96.0
272,63.99539055,64.26811755,63.0,122.0
273,63.17720955000001,64.26811755,68.0,107.0
274,64.67720805,65.0817531,58.0,64.0
275,65.08629855000001,65.2487983875,61.0,75.0
276,65.08629855000001,65.25902565,66.0,69.0
277,64.54084455,65.552207175,54.0,74.0
278,65.63175255,65.8010705625,54.0,75.0
279,65.35902555,65.81697963750001,66.0,89.0
280,65.35902555,65.8215250875,61.0,100.0
281,64.26811755,65.8351614375,42.0,89.0
282,65.90447955,66.27493372500001,58.0,92.0
283,66.17720655000001,66.3919790625,61.0,82.0
284,66.17720655000001,66.3987972375,66.0,72.0
285,67.26811455,67.46584162500001,65.0,58.0
286,67.26811455,67.48629615,61.0,69.0
287,66.99538755,67.506750675,56.0,61.0
288,66.72266055,67.71811410000001,49.0,81.0
289,67.54084155000001,67.8510685125,56.0,83.0
290,67.54084155000001,67.9760683875,61.0,72.0
291,67.54084155000001,68.16811365000001,65.0,72.0
292,66.44993355000001,68.17947727500001,37.0,95.0
293,67.81356855,68.33743166250001,49.0,92.0
294,68.35902255,68.57379506250001,65.0,42.0
295,68.35902255,68.5919768625,61.0,52.0
296,68.08629555,68.60674957500001,56.0,97.0
297,69.17720355,69.57265770000001,54.0,61.0
298,69.44993055,69.6272031,58.0,85.0
299,69.44993055,69.62833946250001,63.0,89.0
300,68.90447655000001,69.87038467500001,51.0,79.0
301,68.63174955000001,70.17606618750001,39.0,97.0
302,69.72265755000001,70.28970243750001,58.0,112.0
303,69.72265755000001,70.3010660625,63.0,99.0
304,69.99538455000001,70.32038422500001,51.0,88.0
305,70.13174805,70.50447495,54.0,95.0
306,70.54083855,70.76129287500001,58.0,82.0
307,70.54083855,70.79538375,63.0,88.0
308,71.35901955,71.8237918125,60.0,78.0
309,71.63174655,71.83060998750001,63.0,85.0
310,71.63174655,71.83174635,68.0,96.0
311,71.08629255000001,72.0181098,56.0,92.0
312,71.90447355,72.447654825,63.0,127.0
313,71.90447355,72.47720025000001,68.0,107.0
314,72.17720055000001,73.04083605000001,56.0,100.0
315,72.72265455,73.0510633125,63.0,79.0
316,72.72265455,73.0806087375,68.0,100.0
317,72.99538155,73.0806087375,68.0,100.0
318,72.44992755000001,73.0896996375,60.0,99.0
319,70.81356555,73.09879053750001,44.0,97.0
320,72.99538155,73.16015411250001,65.0,96.0
321,73.13174505,73.16015411250001,65.0,28.0
322,73.67719905000001,73.8919715625,61.0,73.0
323,73.40447205000001,74.0669713875,49.0,54.0
324,72.99538155,74.6635617,37.0,99.0
325,74.08628955,74.7033343875,65.0,99.0
326,73.26810855000001,74.72037982500001,44.0,34.0
327,74.08628955,74.738561625,68.0,102.0
328,74.35901655,75.0669703875,49.0,86.0
329,74.63174355000001,75.3271974,61.0,97.0
330,74.90447055,75.7715151375,68.0,100.0
331,74.90447055,75.779469675,65.0,71.0
332,75.58628805000001,76.0215148875,60.0,69.0
333,75.99537855000001,76.16128747500001,68.0,63.0
334,75.99537855000001,76.1692420125,65.0,63.0
335,75.17719755,76.49196896250001,36.0,63.0
336,76.54083255,76.6828778625,36.0,73.0
337,76.26810555,76.90787763750001,68.0,117.0
338,76.26810555,76.9465139625,65.0,117.0
339,76.94992305000001,77.2396954875,65.0,70.0
340,76.81355955000001,77.356740825,60.0,99.0
341,77.08628655000001,77.39651351250001,68.0,97.0
342,78.17719455000001,78.3533307375,65.0,69.0
343,78.17719455000001,78.37151253750001,70.0,66.0
344,77.90446755,78.38628525,61.0,81.0
345,77.49537705,78.5090124,58.0,85.0
346,78.44992155,78.911284725,65.0,99.0
347,78.44992155,78.92946652500001,70.0,102.0
348,78.72264855,79.03287551250001,58.0,92.0
349,78.99537555,79.0510573125,70.0,45.0
350,77.35901355,79.11810270000001,46.0,112.0
351,78.99537555,79.5396931875,61.0,107.0
352,79.26810255000001,79.55105681250001,65.0,71.0
353,79.26810255000001,79.59082950000001,70.0,97.0
354,80.35901055000001,80.55673762500001,68.0,81.0
355,80.35901055000001,80.58173760000001,63.0,74.0
356,80.08628355,80.59310122500001,60.0,70.0
357,79.81355655,80.7999192,56.0,82.0
358,80.90446455,81.06241893750001,56.0,100.0
359,79.54082955000001,81.11696433750001,44.0,102.0
360,80.63173755000001,81.23969148750001,63.0,107.0
361,81.17719155,81.72264555000001,60.0,96.0
362,81.44991855,81.72264555000001,63.0,122.0
363,80.63173755000001,81.72264555000001,68.0,107.0
364,82.13173605,82.53628110000001,58.0,64.0
365,82.54082655,82.70332638750001,61.0,75.0
366,82.54082655,82.71355365000001,66.0,69.0
367,81.99537255000001,83.006735175,54.0,74.0
368,83.08628055000001,83.25559856250001,54.0,75.0
369,82.81355355000001,83.27150763750001,66.0,89.0
370,82.81355355000001,83.2760530875,61.0,100.0
371,81.72264555000001,83.2896894375,42.0,89.0
372,83.35900755,83.72946172500001,58.0,92.0
373,83.63173455,83.84650706250001,61.0,82.0
374,83.63173455,83.8533252375,66.0,72.0
375,84.72264255,84.920369625,65.0,58.0
376,84.72264255,84.94082415000001,61.0,69.0
377,84.44991555,84.961278675,56.0,61.0
378,84.17718855000001,85.1726421,49.0,81.0
379,84.99536955,85.3055965125,56.0,83.0
380,84.99536955,85.4305963875,61.0,72.0
381,84.99536955,85.62264165,65.0,72.0
382,83.90446155000001,85.634005275,37.0,95.0
383,85.26809655000001,85.7919596625,49.0,92.0
384,85.81355055,86.02832306250001,65.0,42.0
385,85.81355055,86.0465048625,61.0,52.0
386,85.54082355000001,86.061277575,56.0,97.0
387,86.63173155000001,87.0271857,54.0,61.0
388,86.90445855,87.08173110000001,58.0,85.0
389,86.90445855,87.0828674625,63.0,89.0
390,86.35900455000001,87.32491267500001,51.0,79.0
391,86.08627755,87.63059418750001,39.0,97.0
392,87.17718555,87.74423043750001,58.0,112.0
393,87.17718555,87.75559406250001,63.0,99.0
394,87.44991255000001,87.77491222500001,51.0,88.0
395,87.58627605000001,87.95900295000001,54.0,95.0
396,87.99536655,88.215820875,58.0,82.0
397,87.99536655,88.24991175000001,63.0,88.0
398,88.81354755000001,89.2783198125,60.0,78.0
399,89.08627455000001,89.28513798750001,63.0,85.0
400,89.08627455000001,89.28627435000001,68.0,96.0
401,88.54082055,89.4726378,56.0,92.0
402,89.35900155,89.90218282500001,63.0,127.0
403,89.35900155,89.93172825,68.0,107.0
404,89.63172855,90.49536405,56.0,100.0
405,90.17718255000001,90.5055913125,63.0,79.0
406,90.17718255000001,90.53513673750001,68.0,100.0
407,89.90445555000001,90.5442276375,60.0,99.0
408,88.26809355,90.5533185375,44.0,97.0
409,90.72263655,90.86581822500001,65.0,89.0
410,90.99536355000001,91.18172700000001,70.0,89.0
411,90.99536355000001,91.2919541625,58.0,89.0
412,91.26809055000001,91.41354495,65.0,89.0
413,90.44990955,91.44081765000001,42.0,89.0
414,90.72263655,91.49309032500001,49.0,89.0
415,91.26809055000001,91.53399937500001,54.0,89.0
416,91.81354455,91.961271675,63.0,89.0
417,92.08627155,92.24195321250001,68.0,89.0
418,91.54081755000001,92.28627135,44.0,89.0
419,91.81354455,92.32263495000001,51.0,89.0
420,92.08627155,92.34990765,60.0,89.0
421,92.35899855000001,92.56127107500001,63.0,89.0
422,92.35899855000001,92.63172555000001,54.0,89.0
423,92.90445255,93.0328615125,65.0,89.0
424,93.17717955,93.31922486250001,73.0,89.0
425,93.17717955,93.4987701375,61.0,89.0
426,93.44990655000001,93.58627005000001,65.0,89.0
427,92.90445255,93.8510425125,53.0,89.0
428,93.72263355000001,93.96695148750001,72.0,89.0
429,93.44990655000001,94.11126952500001,58.0,89.0
430,93.99536055,94.23058758750001,65.0,89.0
431,94.26808755,94.493087325,70.0,89.0
432,92.63172555000001,94.5851326875,46.0,89.0
433,94.26808755,94.593087225,53.0,89.0
434,94.54081455000001,94.76695068750001,68.0,89.0
435,94.54081455000001,94.8624051375,61.0,89.0
436,95.08626855000001,95.28626835000001,65.0,89.0
437,95.35899555,95.66581342500001,70.0,89.0
438,95.35899555,95.6760406875,58.0,89.0
439,94.81354155000001,95.73513153750001,42.0,89.0
440,95.63172255,95.75899515,65.0,89.0
441,95.08626855000001,95.8533132375,49.0,89.0
442,95.63172255,95.9533131375,54.0,89.0
443,96.17717655000001,96.30104006250001,63.0,89.0
444,96.44990355,96.61808520000001,68.0,89.0
445,96.44990355,96.72035782500001,60.0,89.0
446,95.90444955000001,96.8362668,44.0,89.0
447,96.72263055,96.85672132500001,63.0,89.0
448,96.17717655000001,96.8726304,51.0,89.0
449,96.72263055,97.0271757,56.0,89.0
450,97.26808455000001,97.47717525,65.0,89.0
451,97.54081155,97.63967508750001,72.0,89.0
452,97.54081155,97.824902175,61.0,89.0
453,97.26808455000001,97.8464930625,53.0,89.0
454,97.81353855,97.9464929625,73.0,89.0
455,98.08626555000001,98.21694723750001,72.0,89.0
456,97.81353855,98.4214924875,58.0,89.0
457,98.35899255000001,98.5214923875,70.0,89.0
458,98.63171955000001,98.77490122500001,68.0,89.0
459,96.99535755000001,98.93626470000001,46.0,89.0
460,98.35899255000001,98.952173775,61.0,89.0
461,98.08626555000001,98.97035557500001,53.0,89.0
462,98.90444655,99.206718975,58.0,89.0
463,98.90444655,99.2124007875,70.0,89.0
464,99.44990055000001,99.58626405000001,65.0,89.0
465,99.72262755000001,99.9260364375,70.0,89.0
466,99.72262755000001,100.0351272375,58.0,89.0
467,99.17717355,100.06921811250001,42.0,89.0
468,99.44990055000001,100.10217262500001,49.0,89.0
469,99.99535455,100.12830896250001,65.0,89.0
470,99.99535455,100.33058148750001,54.0,89.0
471,100.54080855000001,100.66921751250001,63.0,89.0
472,100.81353555000001,101.05785348750001,68.0,89.0
473,100.81353555000001,101.06921711250001,60.0,89.0
474,100.26808155,101.13853522500001,44.0,89.0
475,101.08626255000001,101.20444425000001,63.0,89.0
476,100.54080855000001,101.2146715125,51.0,89.0
477,101.08626255000001,101.39535315,56.0,89.0
478,101.63171655000001,101.8033072875,63.0,89.0
479,101.90444355000001,102.00217072500001,70.0,89.0
480,101.90444355000001,102.1783069125,61.0,89.0
481,102.17717055000001,102.2896704375,73.0,89.0
482,101.63171655000001,102.30444315000001,53.0,89.0
483,102.44989755,102.57035197500001,72.0,89.0
484,102.72262455,102.85444260000001,70.0,89.0
485,102.17717055000001,102.9578515875,58.0,89.0
486,102.99535155000001,103.13966958750001,68.0,89.0
487,102.72262455,103.22830586250001,53.0,89.0
488,102.99535155000001,103.23512403750001,61.0,89.0
489,101.35898955,103.26807855000001,46.0,89.0
490,103.26807855000001,103.388532975,65.0,89.0
491,103.26807855000001,103.48512378750002,58.0,89.0
492,103.81353255,103.96466876250001,65.0,89.0
493,104.08625955000001,104.30103206250001,70.0,89.0
494,104.08625955000001,104.4237592125,58.0,89.0
495,103.54080555,104.44535010000001,42.0,89.0
496,104.35898655000001,104.4851227875,65.0,89.0
497,103.81353255,104.529440925,49.0,89.0
498,104.35898655000001,104.6714862375,54.0,89.0
499,104.90444055,105.02603133750002,63.0,89.0
500,105.17716755000001,105.3487582875,68.0,89.0
501,105.17716755000001,105.47262180000001,60.0,89.0
502,104.63171355000001,105.54080355,44.0,89.0
503,104.90444055,105.5601217125,51.0,89.0
504,105.44989455000001,105.58853077500001,63.0,89.0
505,105.44989455000001,105.7396669875,56.0,89.0
506,105.99534855,106.14421203750001,63.0,89.0
507,106.26807555,106.41921176250001,70.0,89.0
508,106.26807555,106.4510299125,66.0,89.0
509,106.54080255000001,106.81352955000001,65.0,89.0
510,106.54080255000001,106.86352950000001,68.0,89.0
511,107.08625655,107.59534695,63.0,89.0
512,107.08625655,107.61352875000001,66.0,89.0
513,105.72262155000001,107.6555741625,49.0,89.0
514,105.99534855,107.7646649625,56.0,89.0
515,107.63171055000001,108.474891525,65.0,89.0
516,108.44989155,108.95330013750001,49.0,89.0
517,108.72261855,109.61125402500001,53.0,89.0
518,109.54079955,109.81239018750001,56.0,89.0
519,107.90443755000001,109.865799225,37.0,89.0
520,108.17716455000001,109.98966273750001,44.0,89.0
521,109.26807255000001,110.00102636250001,49.0,89.0
522,109.81352655,110.15329893750001,53.0,89.0
523,110.63170755000002,111.30897960000001,53.0,89.0
524,110.08625355000001,111.76352460000001,41.0,89.0
525,110.35898055000001,111.793070025,48.0,89.0
526,110.90443455,111.820342725,56.0,89.0
527,111.72261555000001,111.983978925,60.0,90.0
528,111.44988855000001,112.22488777500001,53.0,89.0
529,111.99534255,112.3146604125,56.0,90.0
530,112.81352355000001,113.37602298750001,58.0,90.0
531,113.08625055,113.87715885000001,61.0,90.0
532,113.63170455000001,113.92715880000002,58.0,90.0
533,112.54079655000001,113.9635224,53.0,90.0
534,112.26806955,114.05443140000001,46.0,90.0
535,113.90443155000001,114.24306757500001,65.0,90.0
536,114.17715855000002,114.48965823750001,61.0,90.0
537,114.99533955000001,115.679429775,53.0,90.0
538,115.26806655000001,116.19533835000001,56.0,90.0
539,115.54079355,116.302156425,60.0,90.0
540,116.35897455000001,116.44533810000001,60.0,90.0
541,116.35897455000001,116.45329263750001,56.0,90.0
542,115.81352055,116.46351990000001,53.0,90.0
543,114.44988555,116.4817017,41.0,90.0
544,114.72261255000001,116.64192881250001,48.0,90.0
545,116.63170155,117.50897340000002,58.0,90.0
546,117.17715555000001,117.633973275,54.0,90.0
547,117.44988255000001,118.23738176250001,61.0,90.0
548,117.99533655,118.4419270125,54.0,90.0
549,116.90442855,118.53283601250001,49.0,90.0
550,116.63170155,118.5782905125,42.0,90.0
551,118.26806355000001,118.6010177625,58.0,90.0
552,118.54079055000001,118.85783568750001,61.0,90.0
553,118.81351755000001,119.43283511250002,41.0,90.0
554,118.81351755000001,119.44874418750001,56.0,90.0
555,118.81351755000001,119.46806235000001,60.0,90.0
556,119.08624455,119.51806230000001,48.0,90.0
557,119.35897155,119.88965283750001,53.0,90.0
558,119.63169855000001,119.97033457500001,56.0,90.0
559,120.72260655000001,120.865788225,60.0,90.0
560,120.44987955,121.01124262500001,58.0,90.0
561,120.17715255,121.01806080000001,53.0,90.0
562,119.90442555000001,121.08396982500001,46.0,90.0
563,120.99533355000001,121.54078755,61.0,90.0
564,121.54078755,121.9714689375,51.0,90.0
565,121.54078755,122.2851049875,58.0,90.0
566,121.81351455000001,122.70328638750001,54.0,90.0
567,121.26806055000002,122.89192256250001,46.0,90.0
568,122.63169555,122.93283161250001,63.0,91.0
569,122.35896855000001,123.13624050000001,51.0,90.0
570,120.99533355000001,123.17714955000001,39.0,90.0
571,122.90442255,123.2123767875,54.0,91.0
572,123.72260355000002,124.18851217500001,56.0,91.0
573,123.99533055,124.89078420000001,60.0,91.0
574,124.54078455000001,124.97146593750001,56.0,91.0
575,123.17714955000001,125.1532839375,44.0,91.0
576,124.81351155000002,125.15782938750002,63.0,91.0
577,123.44987655000001,125.17032937500001,51.0,91.0
578,125.08623855,125.38737461250001,60.0,91.0
579,125.35896555000001,125.52373811250001,65.0,96.0
580,125.49532905000001,125.52373811250001,65.0,28.0
581,125.35896555000001,125.99078310000002,68.0,100.0
582,126.04078305000002,126.2555555625,61.0,73.0
583,125.76805605000001,126.43055538750001,49.0,54.0
584,125.35896555000001,127.0271457,37.0,99.0
585,126.44987355,127.06691838750001,65.0,99.0
586,125.63169255000001,127.08396382500001,44.0,34.0
587,126.44987355,127.102145625,68.0,102.0
588,126.72260055000001,127.43055438750001,49.0,86.0
589,126.99532755000001,127.6907814,61.0,97.0
590,127.26805455000002,128.13509913750002,68.0,100.0
591,127.26805455000002,128.143053675,65.0,71.0
592,127.94987205000001,128.38509888750002,60.0,69.0
593,128.35896255,128.524871475,68.0,63.0
594,128.35896255,128.5328260125,65.0,63.0
595,127.40441805,128.7191894625,36.0,63.0
596,128.90441655,129.04646186250002,36.0,73.0
597,128.63168955,129.2714616375,68.0,117.0
598,128.63168955,129.3100979625,65.0,117.0
599,129.31350705,129.6032794875,65.0,70.0
600,129.17714355,129.720324825,60.0,99.0
601,129.44987055,129.7600975125,68.0,97.0
602,130.54077855,130.71691473750002,65.0,69.0
603,130.54077855,130.7350965375,70.0,66.0
604,130.26805155000002,130.74986925000002,61.0,81.0
605,129.85896105,130.87259640000002,58.0,85.0
606,130.81350555,131.274868725,65.0,99.0
607,130.81350555,131.293050525,70.0,102.0
608,131.08623255,131.3964595125,58.0,92.0
609,131.35895955,131.4146413125,70.0,45.0
610,129.72259755000002,131.4816867,46.0,112.0
611,131.35895955,131.9032771875,61.0,107.0
612,131.63168655,131.9146408125,65.0,71.0
613,131.63168655,131.95441350000002,70.0,97.0
614,132.72259455,132.920321625,68.0,81.0
615,132.72259455,132.9453216,63.0,74.0
616,132.44986755000002,132.956685225,60.0,70.0
617,132.17714055000002,133.1635032,56.0,82.0
618,133.26804855,133.42600293750002,56.0,100.0
619,131.90441355000002,133.4805483375,44.0,102.0
620,132.99532155,133.6032754875,63.0,107.0
621,133.54077555,134.08622955,60.0,96.0
622,133.81350255,134.08622955,63.0,122.0
623,132.99532155,134.08622955,68.0,107.0
624,134.49532005,134.8998651,58.0,64.0
625,134.90441055000002,135.0669103875,61.0,75.0
626,134.90441055000002,135.07713765,66.0,69.0
627,134.35895655000002,135.37031917500002,54.0,74.0
628,135.44986455,135.61918256250001,54.0,75.0
629,135.17713755,135.6350916375,66.0,89.0
630,135.17713755,135.6396370875,61.0,100.0
631,134.08622955,135.65327343750002,42.0,89.0
632,135.72259155,136.09304572500002,58.0,92.0
633,135.99531855,136.2100910625,61.0,82.0
634,135.99531855,136.2169092375,66.0,72.0
635,137.08622655000002,137.283953625,65.0,58.0
636,137.08622655000002,137.30440815,61.0,69.0
637,136.81349955000002,137.32486267500002,56.0,61.0
638,136.54077255,137.53622610000002,49.0,81.0
639,137.35895355000002,137.66918051250002,56.0,83.0
640,137.35895355000002,137.7941803875,61.0,72.0
641,137.35895355000002,137.98622565000002,65.0,72.0
642,136.26804555,137.99758927500002,37.0,95.0
643,137.63168055,138.1555436625,49.0,92.0
644,138.17713455,138.39190706250002,65.0,42.0
645,138.17713455,138.4100888625,61.0,52.0
646,137.90440755,138.42486157500002,56.0,97.0
647,138.99531555000002,139.39076970000002,54.0,61.0
648,139.26804255000002,139.44531510000002,58.0,85.0
649,139.26804255000002,139.44645146250002,63.0,89.0
650,138.72258855,139.688496675,51.0,79.0
651,138.44986155,139.9941781875,39.0,97.0
652,139.54076955000002,140.10781443750002,58.0,112.0
653,139.54076955000002,140.1191780625,63.0,99.0
654,139.81349655000002,140.138496225,51.0,88.0
655,139.94986005,140.32258695000002,54.0,95.0
656,140.35895055,140.57940487500002,58.0,82.0
657,140.35895055,140.61349575,63.0,88.0
658,141.17713155,141.6419038125,60.0,78.0
659,141.44985855000002,141.6487219875,63.0,85.0
660,141.44985855000002,141.64985835000002,68.0,96.0
661,140.90440455,141.8362218,56.0,92.0
662,141.72258555000002,142.26576682500001,63.0,127.0
663,141.72258555000002,142.29531225000002,68.0,107.0
664,140.63167755,142.81349355,44.0,97.0
665,141.99531255000002,142.81349355,56.0,100.0
666,142.26803955,142.81349355,60.0,99.0
667,142.54076655,142.81349355,63.0,79.0
668,142.54076655,142.81349355,68.0,100.0
669,142.81349355,142.97826611250002,65.0,96.0
670,142.94985705000002,142.97826611250002,65.0,28.0
671,142.81349355,143.4453111,68.0,100.0
672,143.49531105,143.71008356250002,61.0,73.0
673,143.22258405000002,143.8850833875,49.0,54.0
674,142.81349355,144.48167370000002,37.0,99.0
675,143.90440155000002,144.52144638750002,65.0,99.0
676,143.08622055,144.53849182500002,44.0,34.0
677,143.90440155000002,144.556673625,68.0,102.0
678,144.17712855000002,144.8850823875,49.0,86.0
679,144.44985555000002,145.1453094,61.0,97.0
680,144.72258255,145.5896271375,68.0,100.0
681,144.72258255,145.59758167500001,65.0,71.0
682,145.40440005000002,145.8396268875,60.0,69.0
683,145.81349055,145.979399475,68.0,63.0
684,145.81349055,145.98735401250002,65.0,63.0
685,144.85894605000001,146.1737174625,36.0,63.0
686,146.35894455000002,146.5009898625,36.0,73.0
687,146.08621755000001,146.72598963750002,68.0,117.0
688,146.08621755000001,146.76462596250002,65.0,117.0
689,146.76803505,147.0578074875,65.0,70.0
690,146.63167155000002,147.17485282500002,60.0,99.0
691,146.90439855000002,147.21462551250002,68.0,97.0
692,147.99530655,148.1714427375,65.0,69.0
693,147.99530655,148.1896245375,70.0,66.0
694,147.72257955,148.20439725,61.0,81.0
695,147.31348905000002,148.3271244,58.0,85.0
696,148.26803355,148.72939672500002,65.0,99.0
697,148.26803355,148.74757852500002,70.0,102.0
698,148.54076055000002,148.8509875125,58.0,92.0
699,148.81348755000002,148.86916931250002,70.0,45.0
700,147.17712555,148.93621470000002,46.0,112.0
701,148.81348755000002,149.35780518750002,61.0,107.0
702,149.08621455000002,149.36916881250002,65.0,71.0
703,149.08621455000002,149.40894150000003,70.0,97.0
704,150.17712255,150.37484962500002,68.0,81.0
705,150.17712255,150.3998496,63.0,74.0
706,149.90439555,150.411213225,60.0,70.0
707,149.63166855,150.61803120000002,56.0,82.0
708,150.72257655,150.8805309375,56.0,100.0
709,149.35894155000003,150.93507633750002,44.0,102.0
710,150.44984955,151.05780348750002,63.0,107.0
711,150.99530355000002,151.54075755000002,60.0,96.0
712,151.26803055000002,151.54075755000002,63.0,122.0
713,150.44984955,151.54075755000002,68.0,107.0
714,151.94984805,152.3543931,58.0,64.0
715,152.35893855,152.5214383875,61.0,75.0
716,152.35893855,152.53166565,66.0,69.0
717,151.81348455,152.824847175,54.0,74.0
718,152.90439255,153.07371056250003,54.0,75.0
719,152.63166555,153.08961963750002,66.0,89.0
720,152.63166555,153.09416508750002,61.0,100.0
721,151.54075755000002,153.1078014375,42.0,89.0
722,153.17711955000001,153.547573725,58.0,92.0
723,153.44984655000002,153.6646190625,61.0,82.0
724,153.44984655000002,153.67143723750002,66.0,72.0
725,154.54075455,154.73848162500002,65.0,58.0
726,154.54075455,154.75893615,61.0,69.0
727,154.26802755,154.779390675,56.0,61.0
728,153.99530055000002,154.9907541,49.0,81.0
729,154.81348155,155.1237085125,56.0,83.0
730,154.81348155,155.24870838750002,61.0,72.0
731,154.81348155,155.44075365,65.0,72.0
732,153.72257355000002,155.452117275,37.0,95.0
733,155.08620855,155.61007166250002,49.0,92.0
734,155.63166255000002,155.8464350625,65.0,42.0
735,155.63166255000002,155.86461686250001,61.0,52.0
736,155.35893555,155.879389575,56.0,97.0
737,156.44984355000003,156.8452977,54.0,61.0
738,156.72257055,156.8998431,58.0,85.0
739,156.72257055,156.9009794625,63.0,89.0
740,156.17711655000002,157.14302467500002,51.0,79.0
741,155.90438955000002,157.44870618750002,39.0,97.0
742,156.99529755,157.5623424375,58.0,112.0
743,156.99529755,157.5737060625,63.0,99.0
744,157.26802455,157.59302422500002,51.0,88.0
745,157.40438805000002,157.77711495000003,54.0,95.0
746,157.81347855,158.033932875,58.0,82.0
747,157.81347855,158.06802375,63.0,88.0
748,158.63165955000002,159.09643181250001,60.0,78.0
749,158.90438655000003,159.10324998750002,63.0,85.0
750,158.90438655000003,159.10438635,68.0,96.0
751,158.35893255000002,159.29074980000001,56.0,92.0
752,159.17711355,159.72029482500002,63.0,127.0
753,159.17711355,159.74984025,68.0,107.0
754,158.08620555000002,160.26802155000001,44.0,97.0
755,159.44984055,160.26802155000001,56.0,100.0
756,159.72256755,160.26802155000001,60.0,99.0
757,159.99529455,160.26802155000001,63.0,79.0
758,159.99529455,160.26802155000001,68.0,100.0
759,160.26802155000001,160.4373395625,54.0,90.0
760,160.26802155000001,161.2259751375,66.0,90.0
761,160.26802155000001,161.23165695,58.0,90.0
762,160.26802155000001,161.2555205625,61.0,90.0
763,160.67711205,161.4100658625,54.0,90.0
764,160.26802155000001,161.9873380125,42.0,90.0
765,161.35892955,162.02483797500003,66.0,90.0
766,161.35892955,162.02824706250001,61.0,90.0
767,161.35892955,162.03051978750003,58.0,90.0
768,161.90438355,162.35779218750002,54.0,90.0
769,160.26802155000001,162.4487011875,49.0,90.0
770,162.44983755,163.4987001375,68.0,90.0
771,162.44983755,163.50210922500003,60.0,90.0
772,162.44983755,163.515745575,63.0,90.0
773,162.99529155000002,163.64642726250003,56.0,90.0
774,163.54074555000003,164.224835775,60.0,90.0
775,163.54074555000003,164.23960848750002,63.0,90.0
776,163.54074555000003,164.243017575,68.0,90.0
777,162.72256455000002,164.26688118750002,51.0,90.0
778,164.08619955,164.2714266375,56.0,90.0
779,162.44983755,164.41801740000002,44.0,90.0
780,164.35892655,164.652108075,63.0,89.0
781,164.35892655,164.652108075,68.0,89.0
782,164.35892655,164.6634717,60.0,89.0
783,164.63165355,165.38392552500002,58.0,89.0
784,164.63165355,165.3873346125,61.0,89.0
785,164.63165355,165.39415278750002,66.0,89.0
786,165.17710755000002,165.42824366250002,54.0,89.0
787,164.63165355,165.51574357500002,42.0,89.0
788,164.90438055,165.68960703750002,49.0,89.0
789,165.72256155000002,166.4646062625,60.0,89.0
790,165.72256155000002,166.46687898750002,56.0,89.0
791,165.72256155000002,166.62142428750002,41.0,89.0
792,166.81346955,167.4805143375,39.0,89.0
793,166.81346955,167.497559775,54.0,89.0
794,167.08619655,167.506650675,46.0,89.0
795,166.81346955,167.52710520000002,58.0,89.0
796,167.35892355000001,167.87142303750002,51.0,89.0
797,167.63165055000002,167.89528665,58.0,89.0
798,167.63165055000002,167.902104825,54.0,89.0
799,167.63165055000002,167.90324118750002,63.0,89.0
800,168.44983155000003,168.818013,56.0,89.0
801,167.90437755000002,168.93619470000002,44.0,89.0
802,168.17710455000002,168.94301287500002,51.0,89.0
803,168.72255855,169.0168764375,63.0,89.0
804,168.72255855,169.0236946125,68.0,89.0
805,168.72255855,169.029376425,60.0,89.0
806,168.99528555,169.9714209375,58.0,89.0
807,168.99528555,169.9714209375,66.0,89.0
808,168.99528555,169.9827845625,61.0,89.0
809,169.54073955,170.20437525000003,54.0,88.0
810,170.08619355000002,170.765738325,66.0,88.0
811,170.08619355000002,170.7827837625,61.0,88.0
812,170.08619355000002,170.79301102500003,58.0,88.0
813,170.63164755000003,170.84187461250002,54.0,88.0
814,169.13164905000002,170.911192725,49.0,88.0
815,168.99528555,170.99073810000002,42.0,89.0
816,171.17710155,171.85323723750003,58.0,88.0
817,171.17710155,171.865737225,66.0,88.0
818,171.17710155,171.86800995000002,61.0,88.0
819,171.99528255,172.12369151250002,66.0,88.0
820,171.99528255,172.14187331250002,61.0,88.0
821,171.99528255,172.1555096625,58.0,88.0
822,171.72255555,172.42482757500002,54.0,88.0
823,172.26800955000002,172.84187261250003,58.0,88.0
824,172.26800955000002,172.8486907875,66.0,88.0
825,172.26800955000002,172.85664532500002,61.0,88.0
826,173.08619055000003,173.1986904375,66.0,88.0
827,173.08619055000003,173.1998268,61.0,88.0
828,173.08619055000003,173.23050858750003,58.0,88.0
829,172.67710005,173.25778128750002,54.0,88.0
830,171.99528255,173.34073575000002,46.0,88.0
831,171.31346505000002,173.3645993625,49.0,88.0
832,171.17710155,173.365735725,42.0,88.0
833,173.35891755,174.12255315000002,68.0,88.0
834,173.35891755,174.14528040000002,60.0,88.0
835,173.35891755,174.14528040000002,63.0,88.0
836,174.31346205000003,174.3827801625,63.0,88.0
837,174.31346205000003,174.38391652500002,68.0,88.0
838,174.31346205000003,174.388461975,60.0,88.0
839,173.90437155,174.5441436375,56.0,88.0
840,174.72255255000002,174.947552325,56.0,88.0
841,174.44982555,175.17709755,60.0,88.0
842,174.44982555,175.2191429625,63.0,88.0
843,174.44982555,175.23846112500001,68.0,88.0
844,173.35891755,175.35891555,44.0,88.0
845,174.99527955000002,175.36800645000002,56.0,88.0
846,175.26800655000002,175.43959728750002,60.0,88.0
847,174.04073505000002,175.452097275,48.0,88.0
848,173.63164455,175.48846087500002,51.0,88.0
849,175.81346055,177.7077768375,51.0,88.0
850,175.54073355000003,177.7532313375,60.0,88.0
851,175.54073355000003,177.75436770000002,68.0,88.0
852,175.54073355000003,177.75891315,63.0,88.0
853,175.54073355000003,177.770276775,44.0,88.0
854,179.08618455,179.5168659375,56.0,87.0
855,179.35891155000002,179.70322938750002,63.0,87.0
856,179.63163855000002,179.93277461250003,60.0,87.0
857,179.90436555000002,180.0691381125,65.0,96.0
858,180.04072905,180.0691381125,65.0,28.0
859,179.90436555000002,180.53618310000002,68.0,100.0
860,180.58618305000002,180.8009555625,61.0,73.0
861,180.31345605,180.97595538750002,49.0,54.0
862,179.90436555000002,181.5725457,37.0,99.0
863,180.99527355,181.6123183875,65.0,99.0
864,180.17709255000003,181.629363825,44.0,34.0
865,180.99527355,181.64754562500002,68.0,102.0
866,181.26800055,181.97595438750002,49.0,86.0
867,181.54072755,182.23618140000002,61.0,97.0
868,181.81345455000002,182.68049913750002,68.0,100.0
869,181.81345455000002,182.688453675,65.0,71.0
870,182.49527205,182.93049888750002,60.0,69.0
871,182.90436255,183.07027147500003,68.0,63.0
872,182.90436255,183.0782260125,65.0,63.0
873,181.94981805,183.26458946250003,36.0,63.0
874,183.44981655,183.59186186250002,36.0,73.0
875,183.17708955,183.8168616375,68.0,117.0
876,183.17708955,183.8554979625,65.0,117.0
877,183.85890705000003,184.1486794875,65.0,70.0
878,183.72254355,184.265724825,60.0,99.0
879,183.99527055000001,184.3054975125,68.0,97.0
880,185.08617855000003,185.26231473750002,65.0,69.0
881,185.08617855000003,185.28049653750003,70.0,66.0
882,184.81345155000002,185.29526925000002,61.0,81.0
883,184.40436105,185.41799640000002,58.0,85.0
884,185.35890555,185.820268725,65.0,99.0
885,185.35890555,185.838450525,70.0,102.0
886,185.63163255,185.9418595125,58.0,92.0
887,185.90435955,185.9600413125,70.0,45.0
888,184.26799755000002,186.0270867,46.0,112.0
889,185.90435955,186.4486771875,61.0,107.0
890,186.17708655,186.4600408125,65.0,71.0
891,186.17708655,186.49981350000002,70.0,97.0
892,187.26799455000003,187.46572162500001,68.0,81.0
893,187.26799455000003,187.49072160000003,63.0,74.0
894,186.99526755000002,187.502085225,60.0,70.0
895,186.72254055000002,187.7089032,56.0,82.0
896,187.81344855,187.97140293750002,56.0,100.0
897,186.44981355000002,188.0259483375,44.0,102.0
898,187.54072155,188.14867548750001,63.0,107.0
899,188.08617555,188.63162955,60.0,96.0
900,188.35890255,188.63162955,63.0,122.0
901,187.54072155,188.63162955,68.0,107.0
902,189.04072005,189.44526510000003,58.0,64.0
903,189.44981055000002,189.6123103875,61.0,75.0
904,189.44981055000002,189.62253765000003,66.0,69.0
905,188.90435655000002,189.91571917500002,54.0,74.0
906,189.99526455,190.16458256250002,54.0,75.0
907,189.72253755000003,190.1804916375,66.0,89.0
908,189.72253755000003,190.1850370875,61.0,100.0
909,188.63162955,190.19867343750002,42.0,89.0
910,190.26799155,190.63844572500003,58.0,92.0
911,190.54071855,190.75549106250003,61.0,82.0
912,190.54071855,190.7623092375,66.0,72.0
913,191.63162655000002,191.829353625,65.0,58.0
914,191.63162655000002,191.84980815,61.0,69.0
915,191.35889955000002,191.87026267500002,56.0,61.0
916,191.08617255000001,192.08162610000002,49.0,81.0
917,191.90435355000002,192.21458051250002,56.0,83.0
918,191.90435355000002,192.3395803875,61.0,72.0
919,191.90435355000002,192.53162565000002,65.0,72.0
920,190.81344555,192.54298927500002,37.0,95.0
921,192.17708055000003,192.7009436625,49.0,92.0
922,192.72253455,192.93730706250003,65.0,42.0
923,192.72253455,192.9554888625,61.0,52.0
924,192.44980755,192.97026157500002,56.0,97.0
925,193.54071555000002,193.93616970000002,54.0,61.0
926,193.81344255000002,193.99071510000002,58.0,85.0
927,193.81344255000002,193.99185146250002,63.0,89.0
928,193.26798855,194.233896675,51.0,79.0
929,192.99526155,194.5395781875,39.0,97.0
930,194.08616955000002,194.65321443750003,58.0,112.0
931,194.08616955000002,194.66457806250003,63.0,99.0
932,194.35889655000003,194.683896225,51.0,88.0
933,194.49526005,194.86798695000002,54.0,95.0
934,194.90435055,195.12480487500002,58.0,82.0
935,194.90435055,195.15889575000003,63.0,88.0
936,195.72253155,196.1873038125,60.0,78.0
937,195.99525855000002,196.1941219875,63.0,85.0
938,195.99525855000002,196.19525835000002,68.0,96.0
939,195.44980455,196.3816218,56.0,92.0
940,196.26798555000002,196.81116682500002,63.0,127.0
941,196.26798555000002,196.84071225000002,68.0,107.0
942,196.54071255000002,197.40434805,56.0,100.0
943,197.08616655,197.4145753125,63.0,79.0
944,197.08616655,197.44412073750001,68.0,100.0
945,197.35889355,197.44412073750001,68.0,100.0
946,196.81343955000003,197.4532116375,60.0,99.0
947,195.17707755,197.46230253750002,44.0,97.0
948,197.35889355,197.52366611250002,65.0,96.0
949,197.49525705000002,197.52366611250002,65.0,28.0
950,198.04071105000003,198.25548356250002,61.0,73.0
951,197.76798405000002,198.4304833875,49.0,54.0
952,197.35889355,199.02707370000002,37.0,99.0
953,198.44980155000002,199.06684638750002,65.0,99.0
954,197.63162055,199.08389182500002,44.0,34.0
955,198.44980155000002,199.102073625,68.0,102.0
956,198.72252855000002,199.4304823875,49.0,86.0
957,198.99525555000002,199.6907094,61.0,97.0
958,199.26798255000003,200.1350271375,68.0,100.0
959,199.26798255000003,200.14298167500002,65.0,71.0
960,199.94980005000002,200.3850268875,60.0,69.0
961,200.35889055,200.524799475,68.0,63.0
962,200.35889055,200.53275401250002,65.0,63.0
963,199.40434605000002,200.7191174625,36.0,63.0
964,200.90434455000002,201.0463898625,36.0,73.0
965,200.63161755000002,201.27138963750002,68.0,117.0
966,200.63161755000002,201.31002596250002,65.0,117.0
967,201.31343505,201.60320748750001,65.0,70.0
968,201.17707155000002,201.72025282500002,60.0,99.0
969,201.44979855000003,201.76002551250002,68.0,97.0
970,202.54070655,202.7168427375,65.0,69.0
971,202.54070655,202.7350245375,70.0,66.0
972,202.26797955,202.74979725000003,61.0,81.0
973,201.85888905000002,202.8725244,58.0,85.0
974,202.81343355,203.27479672500002,65.0,99.0
975,202.81343355,203.29297852500002,70.0,102.0
976,203.08616055000002,203.3963875125,58.0,92.0
977,203.35888755000002,203.41456931250002,70.0,45.0
978,201.72252555000003,203.48161470000002,46.0,112.0
979,203.35888755000002,203.90320518750002,61.0,107.0
980,203.63161455000002,203.91456881250002,65.0,71.0
981,203.63161455000002,203.95434150000003,70.0,97.0
982,204.72252255,204.92024962500003,68.0,81.0
983,204.72252255,204.9452496,63.0,74.0
984,204.44979555,204.956613225,60.0,70.0
985,204.17706855000003,205.16343120000002,56.0,82.0
986,205.26797655000001,205.42593093750003,56.0,100.0
987,203.90434155000003,205.48047633750002,44.0,102.0
988,204.99524955,205.60320348750002,63.0,107.0
989,205.54070355000002,206.08615755000002,60.0,96.0
990,205.81343055000002,206.08615755000002,63.0,122.0
991,204.99524955,206.08615755000002,68.0,107.0
992,206.49524805000001,206.8997931,58.0,64.0
993,206.90433855,207.0668383875,61.0,75.0
994,206.90433855,207.07706565,66.0,69.0
995,206.35888455000003,207.370247175,54.0,74.0
996,207.44979255,207.61911056250003,54.0,75.0
997,207.17706555,207.63501963750002,66.0,89.0
998,207.17706555,207.63956508750002,61.0,100.0
999,206.08615755000002,207.65320143750003,42.0,89.0
1000,207.72251955000002,208.092973725,58.0,92.0
1001,207.99524655000002,208.2100190625,61.0,82.0
1002,207.99524655000002,208.21683723750002,66.0,72.0
1003,209.08615455,209.28388162500002,65.0,58.0
1004,209.08615455,209.30433615,61.0,69.0
1005,208.81342755000003,209.324790675,56.0,61.0
1006,208.54070055000003,209.5361541,49.0,81.0
1007,209.35888155,209.6691085125,56.0,83.0
1008,209.35888155,209.79410838750002,61.0,72.0
1009,209.35888155,209.98615365,65.0,72.0
1010,208.26797355000002,209.997517275,37.0,95.0
1011,209.63160855,210.15547166250002,49.0,92.0
1012,210.17706255000002,210.3918350625,65.0,42.0
1013,210.17706255000002,210.41001686250002,61.0,52.0
1014,209.90433555,210.424789575,56.0,97.0
1015,210.99524355000003,211.3906977,54.0,61.0
1016,211.26797055000003,211.44524310000003,58.0,85.0
1017,211.26797055000003,211.4463794625,63.0,89.0
1018,210.72251655000002,211.68842467500002,51.0,79.0
1019,210.44978955000002,211.99410618750002,39.0,97.0
1020,211.54069755,212.1077424375,58.0,112.0
1021,211.54069755,212.1191060625,63.0,99.0
1022,211.81342455,212.13842422500002,51.0,88.0
1023,211.94978805000002,212.32251495000003,54.0,95.0
1024,212.35887855000001,212.579332875,58.0,82.0
1025,212.35887855000001,212.61342375,63.0,88.0
1026,213.17705955000002,213.64183181250002,60.0,78.0
1027,213.44978655000003,213.64864998750002,63.0,85.0
1028,213.44978655000003,213.64978635000003,68.0,96.0
1029,212.90433255000002,213.83614980000002,56.0,92.0
1030,213.72251355000003,214.26569482500003,63.0,127.0
1031,213.72251355000003,214.29524025,68.0,107.0
1032,213.99524055,214.85887605000002,56.0,100.0
1033,214.54069455,214.86910331250002,63.0,79.0
1034,214.54069455,214.89864873750003,68.0,100.0
1035,214.26796755,214.90773963750001,60.0,99.0
1036,212.63160555000002,214.9168305375,44.0,97.0
1037,215.08614855000002,215.229330225,65.0,89.0
1038,215.35887555000002,215.545239,70.0,89.0
1039,215.35887555000002,215.6554661625,58.0,89.0
1040,215.63160255000003,215.77705695000003,65.0,89.0
1041,214.81342155000002,215.80432965000003,42.0,89.0
1042,215.08614855000002,215.856602325,49.0,89.0
1043,215.63160255000003,215.89751137500002,54.0,89.0
1044,216.17705655,216.32478367500002,63.0,89.0
1045,216.44978355,216.6054652125,68.0,89.0
1046,215.90432955000003,216.64978335,44.0,89.0
1047,216.17705655,216.68614695000002,51.0,89.0
1048,216.44978355,216.71341965000002,60.0,89.0
1049,216.72251055,216.92478307500002,63.0,89.0
1050,216.72251055,216.99523755,54.0,89.0
1051,217.26796455000002,217.39637351250002,65.0,89.0
1052,217.54069155000002,217.6827368625,73.0,89.0
1053,217.54069155000002,217.86228213750002,61.0,89.0
1054,217.81341855000002,217.94978205,65.0,89.0
1055,217.26796455000002,218.21455451250003,53.0,89.0
1056,218.08614555000003,218.33046348750003,72.0,89.0
1057,217.81341855000002,218.47478152500003,58.0,89.0
1058,218.35887255000003,218.5940995875,65.0,89.0
1059,218.63159955,218.85659932500002,70.0,89.0
1060,216.99523755,218.9486446875,46.0,89.0
1061,218.63159955,218.95659922500002,53.0,89.0
1062,218.90432655,219.13046268750003,68.0,89.0
1063,218.90432655,219.2259171375,61.0,89.0
1064,219.44978055,219.64978035000001,65.0,89.0
1065,219.72250755000002,220.02932542500002,70.0,89.0
1066,219.72250755000002,220.03955268750002,58.0,89.0
1067,219.17705355,220.0986435375,42.0,89.0
1068,219.99523455000002,220.12250715000002,65.0,89.0
1069,219.44978055,220.21682523750002,49.0,89.0
1070,219.99523455000002,220.31682513750002,54.0,89.0
1071,220.54068855000003,220.6645520625,63.0,89.0
1072,220.81341555000003,220.9815972,68.0,89.0
1073,220.81341555000003,221.08386982500002,60.0,89.0
1074,220.26796155000002,221.19977880000002,44.0,89.0
1075,221.08614255,221.220233325,63.0,89.0
1076,220.54068855000003,221.2361424,51.0,89.0
1077,221.08614255,221.39068770000003,56.0,89.0
1078,221.63159655,221.84068725000003,65.0,89.0
1079,221.90432355000002,222.0031870875,72.0,89.0
1080,221.90432355000002,222.18841417500002,61.0,89.0
1081,221.63159655,222.21000506250002,53.0,89.0
1082,222.17705055000002,222.31000496250002,73.0,89.0
1083,222.44977755000002,222.5804592375,72.0,90.0
1084,222.17705055000002,222.7850044875,58.0,89.0
1085,222.72250455000002,222.8850043875,70.0,90.0
1086,222.99523155000003,223.13841322500002,68.0,90.0
1087,221.35886955,223.29977670000002,46.0,89.0
1088,222.72250455000002,223.31568577500002,61.0,90.0
1089,222.44977755000002,223.33386757500003,53.0,90.0
1090,223.26795855000003,223.57023097500002,58.0,90.0
1091,223.26795855000003,223.57591278750002,70.0,90.0
1092,223.81341255,223.94977605000003,65.0,90.0
1093,224.08613955,224.28954843750003,70.0,90.0
1094,224.08613955,224.39863923750002,58.0,90.0
1095,223.54068555,224.43273011250002,42.0,90.0
1096,223.81341255,224.46568462500002,49.0,90.0
1097,224.35886655000002,224.49182096250001,65.0,90.0
1098,224.35886655000002,224.69409348750003,54.0,90.0
1099,224.90432055000002,225.03272951250003,63.0,90.0
1100,225.17704755000003,225.42136548750003,68.0,90.0
1101,225.17704755000003,225.43272911250003,60.0,90.0
1102,224.63159355000002,225.502047225,44.0,90.0
1103,225.44977455000003,225.56795625,63.0,90.0
1104,224.90432055000002,225.5781835125,51.0,90.0
1105,225.44977455000003,225.75886515000002,56.0,90.0
1106,225.99522855,226.1668192875,63.0,90.0
1107,226.26795555,226.36568272500003,70.0,90.0
1108,226.26795555,226.54181891250002,61.0,90.0
1109,226.54068255,226.65318243750002,73.0,90.0
1110,225.99522855,226.66795515,53.0,90.0
1111,226.81340955000002,226.933863975,72.0,90.0
1112,227.08613655000002,227.2179546,70.0,90.0
1113,226.54068255,227.32136358750003,58.0,90.0
1114,227.35886355000002,227.50318158750002,68.0,90.0
1115,227.08613655000002,227.59181786250002,53.0,90.0
1116,227.35886355000002,227.59863603750003,61.0,90.0
1117,225.72250155,227.63159055000003,46.0,90.0
1118,227.63159055000003,227.75204497500002,65.0,90.0
1119,227.63159055000003,227.84863578750003,58.0,90.0
1120,228.17704455,228.3281807625,65.0,90.0
1121,228.44977155,228.66454406250003,70.0,91.0
1122,228.44977155,228.78727121250003,58.0,91.0
1123,227.90431755000003,228.80886210000003,42.0,90.0
1124,228.72249855,228.84863478750003,65.0,91.0
1125,228.17704455,228.89295292500003,49.0,90.0
1126,228.72249855,229.03499823750002,54.0,91.0
1127,229.26795255000002,229.38954333750002,63.0,91.0
1128,229.54067955000002,229.71227028750002,68.0,91.0
1129,229.54067955000002,229.83613380000003,60.0,91.0
1130,228.99522555000001,229.90431555,44.0,91.0
1131,229.26795255000002,229.92363371250002,51.0,91.0
1132,229.81340655000002,229.95204277500002,63.0,91.0
1133,229.81340655000002,230.10317898750003,56.0,91.0
1134,230.35886055000003,230.50772403750003,63.0,91.0
1135,230.63158755,230.7827237625,70.0,91.0
1136,230.63158755,230.8145419125,66.0,91.0
1137,230.90431455,231.17704155,65.0,91.0
1138,230.90431455,231.2270415,68.0,91.0
1139,231.44976855000002,231.95885895,63.0,65.0
1140,231.44976855000002,231.97704075000001,66.0,87.0
1141,230.08613355000003,231.99522255000002,49.0,91.0
1142,230.35886055000003,232.26794955000003,56.0,91.0
1143,231.99522255000002,232.81340355000003,65.0,83.0
1144,232.81340355000003,233.38385752500002,61.0,52.0
1145,233.63158455,233.98726601250002,61.0,59.0
1146,233.08613055,234.02135688750002,65.0,69.0
1147,232.26794955000003,234.23158395000002,49.0,90.0
1148,234.17703855000002,234.40090196250003,65.0,52.0
1149,233.90431155000002,234.44976555000002,68.0,73.0
1150,234.31340205,234.44976555000002,68.0,71.0
1151,232.54067655000003,234.46681098750003,56.0,63.0
1152,234.44976555000002,236.4349908375,73.0,57.0
