,start,end,pitch,velocity
0,41.7096802,41.925406020833336,68.0,107.0
1,41.951615700000005,42.06451893333333,73.0,83.0
2,42.1935512,42.2903254,73.0,93.0
3,42.435486700000006,42.52218025416667,73.0,99.0
4,42.6774222,43.125002875,73.0,112.0
5,43.1612932,43.38709966666667,71.0,96.0
6,43.4032287,43.53830935416667,73.0,102.0
7,43.6451642,44.8608900875,73.0,112.0
8,45.5806482,45.68750304583334,71.0,92.0
9,45.8225837,45.92339015833333,71.0,71.0
10,46.0645192,46.15121275416667,71.0,71.0
11,46.3064547,46.40121277083333,71.0,73.0
12,46.5483902,46.8387128,71.0,90.0
13,47.0322612,47.36693864166667,66.0,89.0
14,47.5161322,47.931454808333335,68.0,86.0
15,49.451616200000004,49.711696862500006,68.0,92.0
16,49.935487200000004,50.04637430416667,73.0,93.0
17,50.1774227,50.2802452875,73.0,93.0
18,50.419358200000005,50.74193886666667,73.0,102.0
19,50.903229200000006,50.98589049583334,68.0,92.0
20,51.1451647,51.24395502916667,68.0,78.0
21,51.3871002,51.832664745833334,68.0,85.0
22,52.1129067,52.237906708333334,66.0,74.0
23,52.3548422,52.95766482083334,66.0,79.0
24,53.3225842,53.6068584125,66.0,89.0
25,53.8064552,53.9092777875,66.0,90.0
26,54.048390700000006,54.175406837500006,66.0,88.0
27,54.2903262,54.6229875125,71.0,89.0
28,54.7741972,54.95161656666667,68.0,96.0
29,55.0161327,55.197584325,66.0,71.0
30,55.258068200000004,56.53629409166667,68.0,97.0
31,57.193552200000006,57.614923195833335,68.0,88.0
32,57.6774232,57.798390950000005,73.0,90.0
33,57.919358700000004,58.08468129166667,73.0,78.0
34,58.1612942,58.487907125,76.0,76.0
35,58.6451652,58.862907150000005,75.0,112.0
36,58.887100700000005,59.133068458333334,71.0,73.0
37,59.1290362,60.562504037500005,73.0,93.0
38,61.064520200000004,61.16331052916667,71.0,90.0
39,61.3064557,61.40524602916667,71.0,74.0
40,61.548391200000005,61.66129443333334,71.0,88.0
41,61.7903267,61.897181545833334,68.0,100.0
42,62.032262200000005,62.1955686625,66.0,85.0
43,62.2741977,62.43347190416667,68.0,95.0
44,62.516133200000006,62.8548429,70.0,89.0
45,63.00000420000001,64.09073007916668,68.0,90.0
46,64.93548820000001,65.03831078750001,68.0,112.0
47,65.1774237,65.383068875,73.0,96.0
48,65.6612947,65.7399237375,73.0,93.0
49,65.90323020000001,66.07460117916666,73.0,99.0
50,66.3871012,66.47984314166666,68.0,100.0
51,66.6290367,66.72379477083334,68.0,92.0
52,66.8709722,67.43548836666668,68.0,100.0
53,67.8387142,68.41129488333334,66.0,85.0
54,68.5645207,68.68347232083333,59.0,75.0
55,68.8064562,68.915327175,63.0,86.0
56,69.0483917,69.1512142875,63.0,77.0
57,69.29032720000001,69.45766592083334,63.0,99.0
58,69.5322627,69.762101425,64.0,73.0
59,69.7741982,70.15726274166667,66.0,95.0
60,70.0161337,70.16532725833333,64.0,85.0
61,70.5000047,70.63710148333334,63.0,74.0
62,70.7419402,72.02419835,61.0,77.0
63,72.6774242,72.786295175,64.0,77.0
64,72.9193597,73.0221822875,64.0,69.0
65,73.1612952,73.29839198333333,64.0,69.0
66,73.40323070000001,73.59879522916667,61.0,78.0
67,73.6451662,73.91935976666667,64.0,75.0
68,74.1290372,74.528230775,66.0,82.0
69,74.6129082,74.794359825,68.0,93.0
70,74.8548437,75.10685984583334,71.0,77.0
71,75.0967792,75.302424375,66.0,81.0
72,75.3387147,75.58871471666667,71.0,77.0
73,75.58065020000001,76.2762147625,68.0,96.0
74,76.54839220000001,76.6391180125,73.0,112.0
75,76.7903277,76.86694060833334,73.0,83.0
76,77.0322632,77.15323095000001,73.0,97.0
77,77.2741987,77.4375051625,71.0,86.0
78,77.51613420000001,77.79234389583334,66.0,83.0
79,77.75806970000001,77.97581165,68.0,81.0
80,78.0000052,78.47177942500001,70.0,86.0
81,78.4838762,79.20766657083334,68.0,97.0
82,80.4193602,80.73790860833334,68.0,97.0
83,80.90323120000001,81.20363444583333,73.0,99.0
84,81.3871022,81.66331189583333,73.0,97.0
85,81.87097320000001,82.23790870833334,68.0,96.0
86,82.3548442,82.58065066666667,66.0,95.0
87,82.5967797,82.89718294583334,68.0,107.0
88,83.0806507,83.16129586666668,66.0,97.0
89,83.3225862,83.68347332083334,66.0,107.0
90,84.04839270000001,84.14113464166667,68.0,95.0
91,84.2903282,84.37097336666668,71.0,77.0
92,84.5322637,84.61694112500001,71.0,81.0
93,84.7741992,84.86895727083333,71.0,85.0
94,85.01613470000001,85.12097341666667,68.0,95.0
95,85.2580702,85.439521825,71.0,93.0
96,85.7419412,85.86089282083334,73.0,107.0
97,86.22581220000001,87.80645746666667,73.0,97.0
98,90.0967802,90.59274797500001,73.0,112.0
99,90.8225867,91.03024800416667,76.0,95.0
100,91.0645222,91.32661899166668,73.0,93.0
101,91.5483932,91.81250612083333,80.0,112.0
102,91.7903287,92.0383125875,78.0,102.0
103,92.0322642,92.74799005416668,76.0,93.0
104,93.9677482,94.4213772625,75.0,112.0
105,94.6935547,94.78024825416666,75.0,99.0
106,94.9354902,95.2681515125,75.0,95.0
107,95.41936120000001,95.62702250416667,73.0,99.0
108,95.66129670000001,95.87903865,71.0,86.0
109,95.9032322,97.53428069583333,73.0,112.0
110,97.83871620000001,98.05040976250001,68.0,102.0
111,98.0806517,98.35686139583333,73.0,93.0
112,98.5645227,98.66936141666667,73.0,95.0
113,98.80645820000001,99.07258725,73.0,102.0
114,99.2903292,99.59476470416668,68.0,102.0
115,99.77420020000001,99.95161956666666,66.0,102.0
116,100.0161357,100.35282927083334,68.0,96.0
117,100.5000067,100.608877675,66.0,95.0
118,100.74194220000001,101.07057125416667,66.0,112.0
119,101.7096842,101.80847452916667,66.0,107.0
120,101.95161970000001,102.06049067500001,66.0,86.0
121,102.1935552,102.35484553333333,66.0,96.0
122,102.4354907,102.65121652083334,64.0,82.0
123,102.6774262,103.0584746125,66.0,99.0
124,103.1612972,103.35686172916667,71.0,100.0
125,103.4032327,103.5907327125,73.0,86.0
126,103.6451682,104.44758760833334,68.0,107.0
127,105.5806522,106.07258771666667,73.0,117.0
128,106.30645870000001,106.5060554875,76.0,99.0
129,106.5483942,106.78024905416667,73.0,102.0
130,107.03226520000001,107.24799102083334,80.0,127.0
131,107.27420070000001,107.50605555416668,78.0,99.0
132,107.5161362,108.57258788333334,76.0,100.0
133,109.45162020000001,109.93750732916668,75.0,122.0
134,110.17742670000001,110.25403960833334,75.0,99.0
135,110.41936220000001,110.74395899583334,75.0,107.0
136,110.9032332,111.10686224583334,73.0,112.0
137,111.1451687,111.31855580833334,71.0,83.0
138,111.38710420000001,112.64516880000001,73.0,117.0
139,113.0806527,113.21573335416667,71.0,97.0
140,113.3225882,113.5826688625,73.0,122.0
141,113.8064592,113.94960437083334,76.0,100.0
142,114.0483947,114.17541083750001,76.0,95.0
143,114.2903302,114.50605602083334,76.0,102.0
144,114.77420120000001,114.88912056250001,73.0,100.0
145,115.0161367,115.13710445000001,73.0,95.0
146,115.2580722,115.42541092083334,78.0,102.0
147,115.50000770000001,115.86694320833334,80.0,112.0
148,115.9838787,116.09476580416667,78.0,112.0
149,116.2258142,116.59073357916667,78.0,112.0
150,116.9516207,117.05847554583333,73.0,93.0
151,117.1935562,117.2903304,75.0,112.0
152,117.4354917,117.52823364166667,75.0,93.0
153,117.67742720000001,117.79637882083334,75.0,102.0
154,117.91936270000001,118.02420141666667,73.0,117.0
155,118.1612982,118.41129821666667,71.0,100.0
156,118.64516920000001,118.971782125,73.0,107.0
157,119.1290402,120.08266929583334,73.0,122.0
158,153.9677522,154.38912319583335,68.0,88.0
159,154.4516232,154.57259095,73.0,90.0
160,154.6935587,154.85888129166668,73.0,78.0
161,154.9354942,155.262107125,76.0,76.0
162,155.41936520000002,155.63710715000002,75.0,112.0
163,155.6613007,155.90726845833333,71.0,73.0
164,155.9032362,157.3367040375,73.0,93.0
165,157.8387202,157.93751052916667,71.0,90.0
166,158.0806557,158.17944602916668,71.0,74.0
167,158.3225912,158.43549443333333,71.0,88.0
168,158.56452670000002,158.67138154583333,68.0,100.0
169,158.8064622,158.9697686625,66.0,85.0
170,159.0483977,159.2076719041667,68.0,95.0
171,159.29033320000002,159.6290429,70.0,89.0
172,159.7742042,160.86493007916667,68.0,90.0
173,161.70968820000002,161.8125107875,68.0,112.0
174,161.9516237,162.157268875,73.0,96.0
175,162.43549470000002,162.5141237375,73.0,93.0
176,162.6774302,162.84880117916668,73.0,99.0
177,163.1613012,163.25404314166667,68.0,100.0
178,163.4032367,163.49799477083334,68.0,92.0
179,163.64517220000002,164.20968836666668,68.0,100.0
180,164.6129142,165.18549488333335,66.0,85.0
181,165.3387207,165.45767232083335,59.0,75.0
182,165.58065620000002,165.689527175,63.0,86.0
183,165.8225917,165.92541428750002,63.0,77.0
184,166.06452720000001,166.23186592083334,63.0,99.0
185,166.3064627,166.536301425,64.0,73.0
186,166.5483982,166.93146274166668,66.0,95.0
187,166.79033370000002,166.93952725833333,64.0,85.0
188,167.2742047,167.41130148333335,63.0,74.0
189,167.5161402,168.79839835,61.0,77.0
190,169.4516242,169.560495175,64.0,77.0
191,169.6935597,169.7963822875,64.0,69.0
192,169.93549520000002,170.07259198333335,64.0,69.0
193,170.1774307,170.37299522916666,61.0,78.0
194,170.4193662,170.69355976666668,64.0,75.0
195,170.9032372,171.302430775,66.0,82.0
196,171.3871082,171.568559825,68.0,93.0
197,171.6290437,171.88105984583333,71.0,77.0
198,171.87097920000002,172.076624375,66.0,81.0
199,172.1129147,172.36291471666667,71.0,77.0
200,172.35485020000002,173.0504147625,68.0,96.0
201,173.3225922,173.4133180125,73.0,112.0
202,173.5645277,173.64114060833333,73.0,83.0
203,173.8064632,173.92743095,73.0,97.0
204,174.0483987,174.2117051625,71.0,86.0
205,174.29033420000002,174.56654389583335,66.0,83.0
206,174.5322697,174.75001165,68.0,81.0
207,174.7742052,175.245979425,70.0,86.0
208,175.2580762,175.98186657083335,68.0,97.0
209,177.1935602,177.51210860833334,68.0,97.0
210,177.6774312,177.97783444583334,73.0,99.0
211,178.1613022,178.43751189583335,73.0,97.0
212,178.64517320000002,179.01210870833333,68.0,96.0
213,179.1290442,179.35485066666666,66.0,95.0
214,179.37097970000002,179.67138294583333,68.0,107.0
215,179.85485070000001,179.93549586666668,66.0,97.0
216,180.0967862,180.45767332083335,66.0,107.0
217,180.8225927,180.91533464166667,68.0,95.0
218,181.0645282,181.14517336666668,71.0,77.0
219,181.3064637,181.39114112500002,71.0,81.0
220,181.5483992,181.64315727083334,71.0,85.0
221,181.79033470000002,181.89517341666667,68.0,95.0
222,182.0322702,182.21372182500002,71.0,93.0
223,182.51614120000002,182.63509282083334,73.0,107.0
224,183.00001220000001,184.58065746666668,73.0,97.0
225,186.87098020000002,187.36694797500002,73.0,112.0
226,187.5967867,187.8044480041667,76.0,95.0
227,187.8387222,188.10081899166667,73.0,93.0
228,188.3225932,188.58670612083336,80.0,112.0
229,188.5645287,188.8125125875,78.0,102.0
230,188.80646420000002,189.52219005416669,76.0,93.0
231,190.7419482,191.1955772625,75.0,112.0
232,191.4677547,191.5544482541667,75.0,99.0
233,191.7096902,192.0423515125,75.0,95.0
234,192.1935612,192.40122250416667,73.0,99.0
235,192.43549670000002,192.65323865000002,71.0,86.0
236,192.6774322,194.30848069583334,73.0,112.0
237,194.6129162,194.82460976250002,68.0,102.0
238,194.8548517,195.13106139583334,73.0,93.0
239,195.3387227,195.44356141666668,73.0,95.0
240,195.58065820000002,195.84678725,73.0,102.0
241,196.0645292,196.36896470416667,68.0,102.0
242,196.5484002,196.72581956666667,66.0,102.0
243,196.7903357,197.12702927083333,68.0,96.0
244,197.2742067,197.383077675,66.0,95.0
245,197.51614220000002,197.8447712541667,66.0,112.0
246,198.4838842,198.58267452916667,66.0,107.0
247,198.72581970000002,198.83469067500002,66.0,86.0
248,198.9677552,199.12904553333334,66.0,96.0
249,199.2096907,199.42541652083335,64.0,82.0
250,199.45162620000002,199.8326746125,66.0,99.0
251,199.93549720000001,200.13106172916667,71.0,100.0
252,200.1774327,200.3649327125,73.0,86.0
253,200.4193682,201.22178760833333,68.0,107.0
254,202.3548522,202.84678771666668,73.0,117.0
255,203.08065870000001,203.2802554875,76.0,99.0
256,203.3225942,203.55444905416667,73.0,102.0
257,203.80646520000002,204.02219102083333,80.0,127.0
258,204.0484007,204.28025555416667,78.0,99.0
259,204.2903362,205.34678788333335,76.0,100.0
260,206.22582020000002,206.71170732916667,75.0,122.0
261,206.95162670000002,207.02823960833334,75.0,99.0
262,207.1935622,207.51815899583335,75.0,107.0
263,207.6774332,207.88106224583333,73.0,112.0
264,207.9193687,208.09275580833335,71.0,83.0
265,208.16130420000002,209.4193688,73.0,117.0
266,209.8548527,209.98993335416668,71.0,97.0
267,210.09678820000002,210.35686886250002,73.0,122.0
268,210.5806592,210.72380437083334,76.0,100.0
269,210.8225947,210.94961083750002,76.0,95.0
270,211.0645302,211.28025602083335,76.0,102.0
271,211.5484012,211.66332056250002,73.0,100.0
272,211.7903367,211.91130445000002,73.0,95.0
273,212.03227220000002,212.19961092083335,78.0,102.0
274,212.2742077,212.64114320833335,80.0,112.0
275,212.7580787,212.86896580416666,78.0,112.0
276,213.0000142,213.3649335791667,78.0,112.0
277,213.7258207,213.83267554583335,73.0,93.0
278,213.9677562,214.06453040000002,75.0,112.0
279,214.2096917,214.30243364166668,75.0,93.0
280,214.45162720000002,214.57057882083333,75.0,102.0
281,214.6935627,214.79840141666668,73.0,117.0
282,214.9354982,215.18549821666667,71.0,100.0
283,215.4193692,215.745982125,73.0,107.0
284,215.9032402,216.85686929583335,73.0,122.0
285,219.7742082,220.270175975,73.0,112.0
286,220.5000147,220.70767600416667,76.0,95.0
287,220.74195020000002,221.00404699166668,73.0,93.0
288,221.2258212,221.48993412083334,80.0,112.0
289,221.46775670000002,221.71574058750002,78.0,102.0
290,221.7096922,222.42541805416667,76.0,93.0
291,223.6451762,224.0988052625,75.0,112.0
292,224.3709827,224.45767625416667,75.0,99.0
293,224.61291820000002,224.94557951250002,75.0,95.0
294,225.09678920000002,225.30445050416668,73.0,99.0
295,225.3387247,225.55646665,71.0,86.0
296,225.5806602,227.21170869583335,73.0,112.0
297,227.5161442,227.7278377625,68.0,102.0
298,227.75807970000002,228.03428939583335,73.0,93.0
299,228.24195070000002,228.34678941666667,73.0,95.0
300,228.4838862,228.75001525000002,73.0,102.0
301,228.96775720000002,229.27219270416668,68.0,102.0
302,229.45162820000002,229.62904756666669,66.0,102.0
303,229.6935637,230.03025727083335,68.0,96.0
304,230.17743470000002,230.28630567500002,66.0,95.0
305,230.4193702,230.74799925416667,66.0,112.0
306,231.38711220000002,231.48590252916668,66.0,107.0
307,231.6290477,231.737918675,66.0,86.0
308,231.8709832,232.03227353333335,66.0,96.0
309,232.11291870000002,232.32864452083334,64.0,82.0
310,232.3548542,232.7359026125,66.0,99.0
311,232.8387252,233.0342897291667,71.0,100.0
312,233.0806607,233.26816071250002,73.0,86.0
313,233.32259620000002,234.12501560833334,68.0,107.0
314,235.25808020000002,235.75001571666667,73.0,117.0
315,235.9838867,236.1834834875,76.0,99.0
316,236.2258222,236.45767705416668,73.0,102.0
317,236.7096932,236.92541902083335,80.0,127.0
318,236.95162870000001,237.18348355416668,78.0,99.0
319,237.1935642,238.25001588333333,76.0,100.0
320,239.1290482,239.61493532916668,75.0,122.0
321,239.8548547,239.93146760833335,75.0,99.0
322,240.09679020000002,240.42138699583336,75.0,107.0
323,240.5806612,240.78429024583335,73.0,112.0
324,240.82259670000002,240.99598380833334,71.0,83.0
325,241.0645322,242.3225968,73.0,117.0
326,242.75808070000002,242.89316135416666,71.0,97.0
327,243.0000162,243.2600968625,73.0,122.0
328,243.4838872,243.62703237083335,76.0,100.0
329,243.7258227,243.8528388375,76.0,95.0
330,243.96775820000002,244.18348402083333,76.0,102.0
331,244.4516292,244.5665485625,73.0,100.0
332,244.69356470000002,244.81453245,73.0,95.0
333,244.9355002,245.10283892083334,78.0,102.0
334,245.17743570000002,245.54437120833333,80.0,112.0
335,245.6613067,245.77219380416668,78.0,112.0
336,245.90324220000002,246.26816157916667,78.0,112.0
337,246.6290487,246.73590354583334,73.0,93.0
338,246.8709842,246.9677584,75.0,112.0
339,247.11291970000002,247.20566164166667,75.0,93.0
340,247.3548552,247.47380682083335,75.0,102.0
341,247.5967907,247.7016294166667,73.0,117.0
342,247.83872620000002,248.08872621666669,71.0,100.0
343,248.32259720000002,248.64921012500002,73.0,107.0
344,248.8064682,249.76009729583333,73.0,122.0
345,252.67743620000002,252.89316202083336,68.0,107.0
346,252.9193717,253.03227493333335,73.0,83.0
347,253.1613072,253.2580814,73.0,93.0
348,253.40324270000002,253.48993625416668,73.0,99.0
349,253.6451782,254.09275887500002,73.0,112.0
350,254.12904920000003,254.35485566666668,71.0,96.0
351,254.3709847,254.50606535416668,73.0,102.0
352,254.61292020000002,255.8286460875,73.0,112.0
353,256.5484042,256.65525904583336,71.0,92.0
354,256.7903397,256.89114615833336,71.0,71.0
355,257.0322752,257.1189687541667,71.0,71.0
356,257.2742107,257.36896877083336,71.0,73.0
357,257.51614620000004,257.8064688,71.0,90.0
358,258.0000172,258.33469464166666,66.0,89.0
359,258.4838882,258.89921080833335,68.0,86.0
360,260.4193722,260.6794528625,68.0,92.0
361,260.9032432,261.01413030416666,73.0,93.0
362,261.14517870000003,261.2480012875,73.0,93.0
363,261.3871142,261.70969486666667,73.0,102.0
364,261.8709852,261.95364649583337,68.0,92.0
365,262.1129207,262.2117110291667,68.0,78.0
366,262.35485620000003,262.8004207458333,68.0,85.0
367,263.0806627,263.20566270833336,66.0,74.0
368,263.3225982,263.9254208208333,66.0,79.0
369,264.2903402,264.56251763750004,63.0,102.0
370,264.7742112,265.8105015916667,63.0,93.0
371,265.7419532,265.96775966666667,64.0,79.0
372,266.22582420000003,266.76211455833334,66.0,97.0
373,266.7096952,267.76211462500004,64.0,75.0
374,267.67542107083335,270.060501875,63.0,82.0
375,270.02421155,274.1451795666667,61.0,60.0
