,start,end,pitch,velocity
0,1.0645162000000001,2.8850808375000003,49.0,42.0
1,1.5483872,3.1592744041666667,61.0,46.0
2,2.0322582000000002,3.326613125,68.0,38.0
3,3.4838712000000003,4.098790595833334,61.0,39.0
4,3.0000002,4.830645483333334,49.0,36.0
5,3.9677422,5.447581008333334,68.0,52.0
6,5.4193552,6.038306854166667,61.0,35.0
7,4.9354842,6.703629479166667,49.0,40.0
8,5.903226200000001,7.423387591666667,68.0,59.0
9,7.354839200000001,7.9294360125,61.0,52.0
10,6.8709682,7.957661820833334,49.0,75.0
11,8.0806457,8.250000550000001,49.0,45.0
12,8.3225812,8.471774758333334,64.0,51.0
13,7.8387102,8.822581233333334,68.0,112.0
14,8.5645167,8.929436079166667,61.0,78.0
15,9.5322587,9.752016779166667,64.0,55.0
16,9.048387700000001,9.826613558333333,49.0,74.0
17,9.2903232,9.885081304166667,61.0,64.0
18,8.8064522,10.090726479166667,37.0,93.0
19,10.0161297,10.1794361625,49.0,79.0
20,9.7741942,10.665323291666667,68.0,127.0
21,10.500000700000001,10.6935491,64.0,49.0
22,10.2580652,10.7116942625,61.0,90.0
23,10.9838717,11.762097558333334,52.0,88.0
24,11.4677427,11.774194333333334,61.0,99.0
25,11.2258072,11.800404012500001,57.0,77.0
26,10.741936200000001,12.256049204166667,45.0,74.0
27,11.951613700000001,12.3084685625,52.0,72.0
28,11.7096782,12.633065358333335,64.0,99.0
29,12.193549200000001,12.6774202,61.0,83.0
30,12.9193557,13.737904141666668,54.0,76.0
31,13.1612912,13.7600815625,59.0,55.0
32,13.403226700000001,13.802420275000001,63.0,76.0
33,13.8870977,14.022178354166668,54.0,75.0
34,12.6774202,14.028226741666668,47.0,79.0
35,13.645162200000001,14.582662262500001,66.0,107.0
36,14.3709687,14.592742908333333,59.0,69.0
37,14.1290332,14.598791295833333,63.0,92.0
38,15.096775200000002,15.643146204166667,49.0,79.0
39,15.3387107,15.872984929166668,61.0,78.0
40,14.612904200000001,16.385081737500002,37.0,74.0
41,15.8225817,16.425404320833334,49.0,89.0
42,14.854839700000001,16.4334688375,44.0,58.0
43,16.3064527,16.794355958333334,61.0,88.0
44,16.0645172,16.889114029166667,64.0,58.0
45,15.5806462,17.0020172625,68.0,117.0
46,16.5483882,17.756049570833333,37.0,81.0
47,16.790323700000002,17.838710866666666,44.0,47.0
48,17.032259200000002,18.088710883333334,49.0,64.0
49,18.0000012,18.473791554166667,64.0,63.0
50,17.5161302,18.5383076875,68.0,107.0
51,17.274194700000002,18.564517366666667,61.0,53.0
52,18.9677432,19.743952929166667,49.0,35.0
53,18.4838722,19.788307770833335,42.0,74.0
54,19.4516142,19.911291650000003,54.0,47.0
55,19.935485200000002,20.481856204166668,57.0,72.0
56,19.4516142,20.5463723375,61.0,95.0
57,20.9032272,21.5383078875,54.0,72.0
58,20.4193562,21.78830790416667,47.0,63.0
59,21.3870982,22.36290471666667,66.0,90.0
60,21.8709692,23.4375015625,59.0,77.0
61,23.3225822,23.588711250000003,52.0,77.0
62,22.838711200000002,23.6915338375,47.0,51.0
63,22.3548402,23.70564674166667,40.0,77.0
64,23.5645177,24.28629194166667,64.0,77.0
65,23.8064532,24.294356458333336,59.0,73.0
66,23.3225822,24.35282420416667,68.0,97.0
67,24.7741952,25.270162975,49.0,76.0
68,25.0161307,25.419356533333335,61.0,85.0
69,24.2903242,25.550404929166668,37.0,73.0
70,24.5322597,25.550404929166668,44.0,66.0
71,25.500001700000002,25.633066225,49.0,88.0
72,25.741937200000002,26.040324316666666,64.0,65.0
73,25.258066200000002,26.110888837500003,68.0,112.0
74,25.983872700000003,26.229840458333335,61.0,102.0
75,26.9516147,27.1935502,61.0,90.0
76,26.4677437,27.245969558333336,52.0,82.0
77,26.7096792,27.310485691666667,57.0,74.0
78,26.225808200000003,27.7802437875,45.0,81.0
79,27.4354857,27.8165341125,52.0,75.0
80,27.6774212,28.151211554166668,57.0,88.0
81,27.1935502,28.153227683333334,64.0,85.0
82,27.9193567,28.15725994166667,61.0,95.0
83,28.403227700000002,29.2439535625,54.0,72.0
84,28.645163200000002,29.272179370833335,59.0,62.0
85,28.887098700000003,29.29838905,63.0,92.0
86,29.3709697,29.483872933333334,54.0,78.0
87,28.161292200000002,29.493953579166668,47.0,68.0
88,29.129034200000003,29.98992135416667,66.0,96.0
89,29.6129052,30.028227808333334,63.0,100.0
90,29.8548407,30.1451633,59.0,89.0
91,30.5806472,31.106856912500003,49.0,72.0
92,30.8225827,31.191534337500002,56.0,79.0
93,30.0967762,31.854840833333334,37.0,82.0
94,31.306453700000002,31.925405354166667,49.0,89.0
95,30.3387117,31.93145374166667,44.0,33.0
96,31.790324700000003,32.012098908333336,56.0,73.0
97,31.548389200000003,32.012098908333336,61.0,88.0
98,31.064518200000002,32.38508280416667,64.0,90.0
99,32.0322602,33.181453825,37.0,89.0
100,32.516131200000004,33.25806673333334,44.0,38.0
101,33.000002200000004,33.5020183625,49.0,63.0
102,33.000002200000004,34.03024420416667,64.0,73.0
103,33.483873200000005,34.05443775416667,61.0,66.0
104,34.9354862,35.3165346125,54.0,72.0
105,33.9677442,35.33871203333334,42.0,64.0
106,34.4516152,35.3407281625,49.0,36.0
107,35.4193572,35.90121207083334,57.0,74.0
108,34.9354862,35.9032282,66.0,92.0
109,35.9032282,36.221776608333336,44.0,50.0
110,35.9032282,36.22580886666667,56.0,67.0
111,35.9032282,36.26613145,59.0,73.0
112,35.9032282,36.27419596666667,68.0,82.0
113,35.9032282,36.28830887083333,63.0,88.0
114,36.3870992,36.96572827083334,56.0,73.0
115,36.3870992,37.153228283333334,44.0,59.0
116,36.3870992,37.17540570416667,68.0,69.0
117,36.3870992,37.1915347375,59.0,76.0
118,36.3870992,37.19959925416667,63.0,72.0
119,37.8387122,41.516131800000004,37.0,76.0
120,38.322583200000004,41.594760837500004,44.0,33.0
121,38.806454200000005,41.594760837500004,49.0,35.0
122,38.806454200000005,41.895164083333334,61.0,52.0
123,38.806454200000005,41.93548666666667,64.0,36.0
124,41.7096802,43.495970641666666,37.0,68.0
125,42.1935512,43.681454525,44.0,34.0
126,42.6774222,44.27621262916667,64.0,58.0
127,43.1612932,44.564519100000005,61.0,59.0
128,42.6774222,44.71774491666667,49.0,47.0
129,44.129035200000004,44.87500299166667,44.0,27.0
130,43.6451642,44.95564815833333,37.0,55.0
131,44.8548417,45.070567520833336,49.0,54.0
132,44.612906200000005,45.51613206666667,64.0,82.0
133,45.096777200000005,45.572583683333335,61.0,54.0
134,46.0645192,46.62500310833334,56.0,53.0
135,46.3064547,46.794357958333336,59.0,54.0
136,45.5806482,47.320567670833334,44.0,59.0
137,45.8225837,47.38105154583334,51.0,27.0
138,46.5483902,48.27419676666667,68.0,75.0
139,47.0322612,48.393148387500005,63.0,36.0
140,48.4838742,48.6350838875,56.0,41.0
141,48.0000032,48.647180662500006,51.0,35.0
142,47.5161322,48.76008389583333,44.0,45.0
143,48.4838742,49.4939549125,68.0,90.0
144,48.9677452,49.512100075,59.0,55.0
145,48.7258097,49.52218072083333,63.0,46.0
146,49.935487200000004,50.65927757083334,44.0,26.0
147,49.451616200000004,50.68145499166667,37.0,54.0
148,50.903229200000006,51.457664720833336,56.0,65.0
149,50.419358200000005,51.46976149583334,64.0,67.0
150,51.8709712,52.64113254166667,49.0,38.0
151,52.3548422,52.71774545,54.0,45.0
152,51.3871002,52.721777708333335,42.0,63.0
153,52.8387132,53.37500355833333,57.0,68.0
154,52.3548422,53.47177775833334,61.0,93.0
155,53.8064552,54.3810520125,54.0,58.0
156,53.3225842,54.48589072916667,47.0,70.0
157,54.2903262,55.294358525,66.0,93.0
158,54.2903262,55.32863272083333,63.0,89.0
159,54.7741972,55.3487940125,59.0,57.0
160,55.741939200000004,56.326616658333336,51.0,38.0
161,56.225810200000005,56.61089087083334,59.0,60.0
162,56.4677457,56.8729876625,51.0,41.0
163,55.258068200000004,57.02218122083334,44.0,81.0
164,56.709681200000006,57.131052195833334,56.0,89.0
165,56.9516167,57.14919735833334,59.0,65.0
166,56.225810200000005,57.161294133333335,63.0,77.0
167,57.6774232,58.302423241666666,49.0,67.0
168,58.1612942,58.707665204166666,61.0,69.0
169,57.193552200000006,58.92540715416667,37.0,95.0
170,58.403229700000004,59.16129426666667,49.0,72.0
171,58.6451652,59.45766525416667,56.0,66.0
172,58.887100700000005,59.54234267916667,61.0,57.0
173,58.1612942,59.8125039875,64.0,76.0
174,59.370971700000005,60.15927820416667,49.0,59.0
175,59.854842700000006,60.1633104625,61.0,37.0
176,59.6129072,60.330649183333335,56.0,52.0
177,59.1290362,60.39516531666667,37.0,65.0
178,60.3387137,60.556455650000004,49.0,61.0
179,60.5806492,61.038310520833335,56.0,71.0
180,60.0967782,61.0826653625,64.0,88.0
181,61.064520200000004,62.81452031666667,44.0,76.0
182,61.548391200000005,62.8548429,51.0,22.0
183,62.032262200000005,63.55443972083334,63.0,72.0
184,62.032262200000005,63.60685907916667,56.0,44.0
185,62.032262200000005,63.754036508333336,68.0,76.0
186,62.516133200000006,64.19355266666668,59.0,68.0
187,63.9677462,64.2580688,56.0,51.0
188,63.4838752,64.27621396250001,51.0,33.0
189,63.00000420000001,64.40524622916666,44.0,58.0
190,63.9677462,64.99395594583333,68.0,89.0
191,64.4516172,65.00403659166668,59.0,62.0
192,64.2096817,65.00605272083334,63.0,73.0
193,65.90323020000001,66.0302463375,56.0,34.0
194,65.4193592,66.15323021666667,44.0,52.0
195,64.93548820000001,66.15726247500001,37.0,72.0
196,65.90323020000001,66.40524636250001,49.0,48.0
197,66.1451657,66.71169799583333,56.0,61.0
198,65.90323020000001,66.88710123333334,64.0,72.0
199,66.3871012,66.95766575416667,61.0,60.0
200,67.3548432,68.17742390000001,49.0,27.0
201,67.8387142,68.22782712916667,54.0,57.0
202,66.8709722,68.33468197500001,42.0,70.0
203,68.08064970000001,68.7520207125,61.0,47.0
204,67.8387142,68.78024652083333,66.0,90.0
205,68.3225852,68.8971820125,57.0,74.0
206,68.8064562,69.8891175625,44.0,63.0
207,69.29032720000001,70.11089177083333,56.0,65.0
208,70.0161337,70.67137567916667,59.0,55.0
209,69.7741982,70.73185955416668,63.0,73.0
210,70.25806920000001,71.286295075,56.0,63.0
211,71.22581120000001,71.7096822,49.0,60.0
212,71.4677467,72.04435964166667,56.0,86.0
213,71.9516177,72.25000481666667,49.0,59.0
214,70.7419402,72.50403709166667,37.0,66.0
215,70.9838757,72.58669838750001,44.0,56.0
216,72.1935532,72.65121452083334,61.0,60.0
217,71.7096822,72.6834725875,64.0,85.0
218,72.43548870000001,72.68952097500001,56.0,74.0
219,73.1612952,73.80444040416667,44.0,34.0
220,72.6774242,73.850811375,37.0,93.0
221,73.6451662,74.10887590833333,49.0,68.0
222,73.6451662,74.6068598125,64.0,70.0
223,74.1290372,74.6129082,56.0,64.0
224,73.6451662,74.65726304166667,61.0,68.0
225,75.0967792,75.64919859166667,56.0,52.0
226,74.6129082,75.92742441666667,44.0,88.0
227,75.8225857,76.0161341,56.0,72.0
228,75.58065020000001,76.44556961250001,68.0,97.0
229,75.58065020000001,76.45363412916667,63.0,92.0
230,76.0645212,76.57460187916666,59.0,86.0
231,76.54839220000001,77.07863417083334,45.0,79.0
232,77.0322632,77.41129548333333,61.0,58.0
233,77.0322632,77.41331161250001,64.0,63.0
234,77.0322632,77.54839226666667,57.0,60.0
235,77.51613420000001,78.08065036666667,42.0,89.0
236,78.0000052,78.49194071666668,57.0,54.0
237,78.0000052,78.52621491250001,54.0,52.0
238,78.0000052,78.56653749583333,61.0,59.0
239,78.9677472,79.55242465833334,56.0,53.0
240,79.4516182,79.72581176666667,59.0,65.0
241,79.69355370000001,79.85484403333334,56.0,69.0
242,78.4838762,79.89516661666667,44.0,100.0
243,79.4516182,80.41532794166667,63.0,76.0
244,79.9354892,80.4737956875,59.0,70.0
245,80.90323120000001,81.5504086625,49.0,73.0
246,80.4193602,81.76815061250001,37.0,82.0
247,81.6290377,81.9375054625,49.0,56.0
248,81.87097320000001,82.37702162083333,56.0,72.0
249,81.3871022,82.39315065416667,64.0,77.0
250,81.3871022,82.42944097916667,61.0,88.0
251,82.83871520000001,83.50202169583334,54.0,72.0
252,83.5645217,83.67742493333334,54.0,27.0
253,83.3225862,83.69153783750001,57.0,72.0
254,82.3548442,84.07258625,42.0,86.0
255,83.3225862,84.17339270833334,61.0,85.0
256,83.8064572,84.18548948333334,57.0,67.0
257,83.3225862,84.19153787083334,66.0,74.0
258,84.7741992,85.2096831,56.0,77.0
259,84.2903282,85.41734440416667,44.0,92.0
260,85.2580702,86.13710251666667,68.0,75.0
261,85.2580702,86.17742510000001,63.0,82.0
262,85.7419412,86.22984445833333,59.0,68.0
263,86.7096832,87.22581226666667,49.0,76.0
264,86.9516187,87.50202196250001,56.0,69.0
265,86.22581220000001,88.04032845,37.0,66.0
266,86.4677477,88.07460264583334,44.0,36.0
267,87.4354897,88.52218332083334,49.0,75.0
268,87.6774252,88.60081235833334,61.0,55.0
269,87.19355420000001,88.66129623333333,64.0,86.0
270,87.9193607,88.71774785000001,56.0,68.0
271,88.8871027,89.044360775,64.0,63.0
272,88.8871027,89.04839303333334,61.0,61.0
273,88.8871027,89.06452206666667,56.0,76.0
274,88.6451672,89.16331239583334,49.0,82.0
275,89.12903820000001,89.19960272083334,56.0,81.0
276,89.12903820000001,89.68347372083333,61.0,112.0
277,88.16129620000001,89.73790920833333,37.0,65.0
278,89.12903820000001,89.93750599583333,64.0,92.0
279,88.4032317,89.98589309583333,44.0,50.0
280,89.37097370000001,90.03024793750001,49.0,107.0
281,89.6129092,90.2116995625,56.0,117.0
282,89.8548447,90.254038275,61.0,127.0
283,90.5806512,91.1612964,49.0,122.0
284,90.8225867,91.2278286625,56.0,100.0
285,90.33871570000001,91.38307060833334,44.0,100.0
286,90.0967802,91.47379642083334,37.0,96.0
287,91.30645770000001,91.58266739583334,49.0,112.0
288,91.5483932,92.01008677916667,61.0,122.0
289,91.7903287,92.02218355416667,56.0,112.0
290,91.0645222,92.0987964625,64.0,100.0
291,92.51613520000001,92.75000618333334,57.0,99.0
292,92.7580707,93.02823200833333,61.0,127.0
293,92.27419970000001,93.108877175,52.0,71.0
294,92.0322642,93.81452238333334,45.0,89.0
295,93.2419417,93.92742561666667,52.0,93.0
296,93.0000062,93.96976432916667,64.0,93.0
297,93.48387720000001,93.99395787916667,61.0,122.0
298,93.7258127,94.01411917083334,57.0,97.0
299,94.45161920000001,94.71774825,59.0,89.0
300,94.6935547,94.9838773,63.0,117.0
301,94.2096837,95.04637730416667,54.0,85.0
302,95.1774257,95.29436119166667,54.0,95.0
303,93.9677482,95.31049022500001,47.0,79.0
304,94.9354902,95.81653864583333,66.0,112.0
305,95.41936120000001,95.86492574583333,63.0,127.0
306,95.66129670000001,95.93750639583334,59.0,102.0
307,96.3871032,96.94758710833334,49.0,82.0
308,96.62903870000001,97.3004097125,56.0,97.0
309,96.1451677,97.33065165000001,44.0,78.0
310,95.9032322,97.38508713750001,37.0,88.0
311,97.1129097,97.49194198333333,49.0,90.0
312,96.8709742,97.88508717083334,64.0,95.0
313,97.3548452,97.89718394583333,63.0,112.0
314,98.3225872,98.90323240000001,49.0,89.0
315,98.5645227,98.92540982083334,56.0,90.0
316,98.0806517,99.09879692916667,44.0,32.0
317,97.83871620000001,99.1512162875,37.0,83.0
318,99.0483937,99.35484533333334,49.0,89.0
319,99.5322647,99.76815181250001,56.0,89.0
320,98.80645820000001,99.77621632916667,64.0,92.0
321,99.2903292,99.8044421375,61.0,82.0
322,100.2580712,100.81653897916667,54.0,82.0
323,100.0161357,101.02218415416667,49.0,46.0
324,100.5000067,101.06653899583334,57.0,79.0
325,99.77420020000001,101.09073254583333,42.0,68.0
326,100.98387770000001,101.22379707083334,54.0,83.0
327,101.2258132,101.7096842,61.0,95.0
328,100.74194220000001,101.75605517083333,66.0,97.0
329,101.4677487,101.75807130000001,57.0,92.0
330,102.4354907,102.74194233333334,63.0,99.0
331,101.95161970000001,102.75403910833334,54.0,83.0
332,102.1935552,102.8044423375,59.0,71.0
333,102.91936170000001,103.06250687083333,54.0,95.0
334,101.7096842,103.10887784166667,47.0,64.0
335,102.6774262,103.39920044166666,66.0,102.0
336,103.1612972,103.48387786666667,63.0,117.0
337,103.4032327,103.81653917916667,59.0,93.0
338,104.3709747,104.41734567083334,64.0,36.0
339,104.12903920000001,104.6794424625,52.0,90.0
340,104.3709747,104.99799087083333,59.0,93.0
341,104.8548457,105.00000700000001,52.0,97.0
342,103.88710370000001,105.00807151666667,47.0,99.0
343,103.6451682,105.0181521625,40.0,83.0
344,105.09678120000001,105.12500700833334,59.0,26.0
345,105.09678120000001,105.20363604583333,64.0,97.0
346,104.6129102,105.6290393,68.0,127.0
347,105.3387167,105.689523175,63.0,117.0
348,106.06452320000001,106.62500710833334,49.0,90.0
349,106.30645870000001,106.66331356250001,56.0,92.0
350,105.8225877,106.89718454583334,44.0,72.0
351,105.5806522,106.899200675,37.0,74.0
352,106.7903297,106.96573293750001,49.0,96.0
353,107.03226520000001,107.32662005833333,56.0,107.0
354,106.5483942,107.54032975000001,64.0,96.0
355,107.27420070000001,107.56250717083334,61.0,93.0
356,108.24194270000001,108.47984594166667,61.0,102.0
357,107.7580717,108.57258788333334,52.0,85.0
358,108.0000072,108.5867007875,57.0,76.0
359,107.5161362,109.15524921250001,45.0,85.0
360,108.7258137,109.37097503333334,52.0,88.0
361,108.4838782,109.41331374583334,64.0,97.0
362,108.9677492,109.44960407083335,61.0,127.0
363,109.20968470000001,109.45363632916667,57.0,96.0
364,109.6935557,110.46573317083333,54.0,86.0
365,110.17742670000001,110.50202349583334,63.0,112.0
366,109.9354912,110.53024930416667,59.0,72.0
367,110.6612977,110.77420093333333,54.0,86.0
368,109.45162020000001,110.79637835416668,47.0,74.0
369,110.41936220000001,111.30645903333334,66.0,102.0
370,110.9032332,111.35484613333334,63.0,122.0
371,111.1451687,111.447588075,59.0,95.0
372,111.8709752,112.41331394583334,49.0,88.0
373,112.1129107,112.57057202083334,56.0,96.0
374,112.8387172,112.8871043,56.0,26.0
375,112.35484620000001,113.01008817916667,64.0,95.0
376,111.38710420000001,113.15323335000001,37.0,83.0
377,111.6290397,113.22984625833334,44.0,39.0
378,112.59678170000001,113.26008819583333,49.0,90.0
379,112.8387172,113.286297875,63.0,95.0
380,113.0806527,113.47178175833334,56.0,72.0
381,113.8064592,114.350814075,49.0,88.0
382,113.56452370000001,114.6955721625,44.0,71.0
383,113.3225882,114.73186248750001,37.0,79.0
384,114.53226570000001,114.95363669583334,49.0,89.0
385,114.2903302,115.06653992916667,64.0,97.0
386,114.77420120000001,115.09073347916667,63.0,93.0
387,114.0483947,115.2157334875,56.0,85.0
388,115.0161367,115.28024962083335,61.0,52.0
389,115.74194320000001,116.25000775000001,54.0,83.0
390,115.9838787,116.52420131666668,57.0,81.0
391,115.50000770000001,116.60081422500001,49.0,67.0
392,115.2580722,116.62904003333334,42.0,85.0
393,116.4677497,116.83065295,54.0,93.0
394,116.70968520000001,117.1391207125,61.0,100.0
395,116.2258142,117.17541103750001,66.0,107.0
396,116.9516207,117.20766910416667,57.0,92.0
397,117.67742720000001,118.197588525,56.0,85.0
398,117.91936270000001,118.318556275,59.0,73.0
399,117.4354917,118.44154015416667,51.0,66.0
400,118.4032337,118.51412080416667,56.0,85.0
401,117.1935562,118.548395,44.0,70.0
402,118.1612982,118.7237982375,63.0,93.0
403,118.1612982,119.08871761666667,68.0,100.0
404,118.88710470000001,119.16129826666668,63.0,92.0
405,118.64516920000001,119.17339504166667,59.0,92.0
406,119.1290402,120.94557257916668,37.0,82.0
407,119.3709757,120.97379838750001,44.0,31.0
408,119.6129112,121.06452420000001,49.0,69.0
409,119.85484670000001,122.13508878750001,56.0,53.0
410,121.06452420000001,122.8608952875,37.0,70.0
411,122.03226620000001,123.14516950000001,61.0,50.0
412,122.5161372,123.54033081666667,56.0,45.0
413,120.0967822,123.60484695000001,64.0,78.0
414,123.00000820000001,124.7842825125,37.0,78.0
415,123.4838792,124.87097606666667,44.0,26.0
416,123.96775020000001,125.0141212375,49.0,33.0
417,124.4516212,125.4979922375,56.0,55.0
418,123.96775020000001,125.73992773750001,64.0,58.0
419,123.96775020000001,125.818556775,61.0,42.0
420,125.4193632,125.9516213,49.0,39.0
421,125.6612987,126.1028309875,56.0,50.0
422,125.17742770000001,126.19154067083333,44.0,37.0
423,124.93549220000001,126.23387938333335,37.0,48.0
424,126.14516970000001,126.24194390000001,49.0,26.0
425,126.38710520000001,126.80646006666667,56.0,63.0
426,125.9032342,126.8891213625,64.0,59.0
427,125.9032342,126.94758910833335,61.0,39.0
428,126.8709762,128.63508922083335,42.0,46.0
429,127.5967827,128.79637955416666,49.0,20.0
430,127.8387182,129.58468605833335,66.0,88.0
431,128.3225892,129.66129896666666,61.0,34.0
432,128.0806537,129.83266994583335,54.0,42.0
433,129.2903312,130.06855705833334,49.0,27.0
434,128.5645247,130.17339577500002,57.0,53.0
435,128.8064602,130.197589325,42.0,61.0
436,130.0161377,130.26613771666666,54.0,51.0
437,130.2580732,130.77420226666666,61.0,64.0
438,129.77420220000002,130.8447667875,66.0,100.0
439,130.7419442,132.55242819166668,47.0,72.0
440,131.2258152,132.7197669125,54.0,45.0
441,131.7096862,133.34073469583333,66.0,102.0
442,132.19355720000001,133.47783147916667,63.0,52.0
443,132.4354927,133.48387986666668,59.0,53.0
444,133.1612992,133.71775085000002,54.0,56.0
445,132.6774282,133.76210569166668,47.0,68.0
446,134.12904120000002,134.6129122,59.0,75.0
447,133.6451702,134.6129122,63.0,96.0
448,133.6451702,134.6129122,66.0,97.0
449,135.0967832,135.61896065416667,52.0,58.0
450,135.33871870000002,135.89920260833333,59.0,65.0
451,134.8548477,135.92944454583335,47.0,49.0
452,134.6129122,135.94557357916668,40.0,77.0
453,135.8225897,136.06654132916668,52.0,77.0
454,136.06452520000002,136.3850897375,64.0,70.0
455,135.5806542,136.439525225,68.0,99.0
456,136.3064607,136.72178330833333,59.0,82.0
457,137.0322672,137.44758980833333,59.0,67.0
458,137.27420270000002,137.4496059375,68.0,92.0
459,137.27420270000002,137.4737994875,63.0,86.0
460,136.7903317,137.53226723333333,56.0,90.0
461,137.7580737,137.86492854583335,56.0,107.0
462,136.5483962,137.88307370833334,44.0,99.0
463,137.5161382,138.07258985,63.0,112.0
464,137.5161382,138.39517051666667,68.0,107.0
465,138.0000092,138.48388020000002,59.0,112.0
466,138.2419447,138.48388020000002,63.0,127.0
467,138.9677512,139.4516222,49.0,69.0
468,139.20968670000002,139.58670285416667,56.0,86.0
469,138.48388020000002,140.21573515416668,37.0,92.0
470,138.7258157,140.28226741666668,44.0,33.0
471,139.6935577,140.5463803375,49.0,93.0
472,140.1774287,141.00202552916667,56.0,93.0
473,139.9354932,141.0181545625,61.0,69.0
474,139.4516222,141.28025135416667,64.0,90.0
475,140.9032352,141.47581588333335,49.0,69.0
476,141.1451707,141.65525137916669,56.0,73.0
477,141.3871062,141.78226751666668,61.0,45.0
478,140.6612997,141.8165417125,44.0,47.0
479,140.41936420000002,141.84476752083333,37.0,76.0
480,141.62904170000002,142.21976754583335,49.0,89.0
481,141.8709772,142.29033206666668,56.0,92.0
482,141.3871062,142.30847722916667,64.0,85.0
483,142.1129127,142.46775143333335,61.0,69.0
484,143.0806547,143.29436439166668,61.0,90.0
485,142.5967837,143.3649289125,54.0,83.0
486,142.8387192,143.51210634166668,57.0,72.0
487,142.35484820000002,144.1451709,42.0,93.0
488,143.56452570000002,144.34073542916667,54.0,88.0
489,144.0483967,144.63307415833333,57.0,83.0
490,143.8064612,144.858880625,61.0,89.0
491,143.3225902,145.03831612083334,66.0,107.0
492,144.5322677,145.32259033333335,54.0,83.0
493,145.0161387,145.34073549583334,61.0,72.0
494,144.77420320000002,145.46573550416667,57.0,81.0
495,144.2903322,145.63509035416666,42.0,67.0
496,145.50000970000002,145.9173484375,54.0,90.0
497,145.7419452,146.18952587500002,61.0,107.0
498,145.98388070000001,146.22380007083333,57.0,76.0
499,145.2580742,146.25807426666668,66.0,107.0
500,146.70968720000002,147.25202594583334,56.0,85.0
501,146.9516227,147.53025177083333,59.0,63.0
502,146.2258162,147.95767115416666,44.0,78.0
503,146.4677517,147.97581631666668,51.0,26.0
504,147.4354937,148.3608969875,56.0,59.0
505,147.91936470000002,148.74597765833335,59.0,68.0
506,147.1935582,148.778235725,68.0,107.0
507,147.6774292,148.99396154583334,63.0,90.0
508,148.6451712,149.16130026666667,56.0,70.0
509,148.4032357,149.45363899583333,51.0,47.0
510,149.3709777,149.4677519,56.0,82.0
511,148.1613002,149.54234867916668,44.0,69.0
512,148.8871067,149.68750997916666,59.0,76.0
513,149.12904220000001,150.08267129583334,68.0,102.0
514,149.6129132,150.10686484583334,63.0,92.0
515,149.85484870000002,150.16734872083333,59.0,82.0
516,150.5806552,151.09678426666667,49.0,81.0
517,151.06452620000002,151.7117036625,64.0,70.0
518,150.0967842,151.88307464166667,37.0,74.0
519,151.5483972,151.96170367916667,63.0,31.0
520,150.3387197,151.98186497083333,44.0,58.0
521,152.0322682,153.98186510416667,61.0,66.0
522,150.8225907,154.01613930000002,56.0,69.0
523,151.3064617,154.028236075,49.0,71.0
524,152.0322682,154.0342844625,64.0,45.0
525,152.0322682,154.06855865833333,37.0,59.0
526,153.9677522,154.06855865833333,37.0,95.0
527,154.4516232,155.07662324166668,49.0,67.0
528,154.9354942,155.48186520416667,61.0,69.0
529,155.1774297,155.93549426666667,49.0,72.0
530,155.41936520000002,156.23186525416668,56.0,66.0
531,155.6613007,156.31654267916667,61.0,57.0
532,154.9354942,156.58670398750002,64.0,76.0
533,156.14517170000002,156.93347820416668,49.0,59.0
534,156.6290427,156.9375104625,61.0,37.0
535,156.3871072,157.10484918333333,56.0,52.0
536,155.9032362,157.16936531666667,37.0,65.0
537,157.1129137,157.33065565,49.0,61.0
538,157.35484920000002,157.81251052083334,56.0,71.0
539,156.8709782,157.8568653625,64.0,88.0
540,157.8387202,159.58872031666667,44.0,76.0
541,158.3225912,159.6290429,51.0,22.0
542,158.8064622,160.32863972083334,63.0,72.0
543,158.8064622,160.38105907916668,56.0,44.0
544,158.8064622,160.52823650833335,68.0,76.0
545,159.29033320000002,160.96775266666668,59.0,68.0
546,160.7419462,161.0322688,56.0,51.0
547,160.2580752,161.05041396250002,51.0,33.0
548,159.7742042,161.17944622916667,44.0,58.0
549,160.7419462,161.76815594583334,68.0,89.0
550,161.2258172,161.77823659166668,59.0,62.0
551,160.9838817,161.78025272083335,63.0,73.0
552,162.6774302,162.8044463375,56.0,34.0
553,162.1935592,162.92743021666666,44.0,52.0
554,161.70968820000002,162.93146247500002,37.0,72.0
555,162.6774302,163.17944636250002,49.0,48.0
556,162.91936570000001,163.48589799583334,56.0,61.0
557,162.6774302,163.66130123333335,64.0,72.0
558,163.1613012,163.73186575416668,61.0,60.0
559,164.1290432,164.95162390000002,49.0,27.0
560,164.6129142,165.00202712916666,54.0,57.0
561,163.64517220000002,165.108881975,42.0,70.0
562,164.85484970000002,165.52622071250002,61.0,47.0
563,164.6129142,165.55444652083335,66.0,90.0
564,165.0967852,165.6713820125,57.0,74.0
565,165.58065620000002,166.6633175625,44.0,63.0
566,166.06452720000001,166.88509177083336,56.0,65.0
567,166.79033370000002,167.44557567916667,59.0,55.0
568,166.5483982,167.50605955416668,63.0,73.0
569,167.0322692,168.060495075,56.0,63.0
570,168.00001120000002,168.4838822,49.0,60.0
571,168.2419467,168.81855964166667,56.0,86.0
572,168.72581770000002,169.02420481666667,49.0,59.0
573,167.5161402,169.27823709166668,37.0,66.0
574,167.7580757,169.36089838750001,44.0,56.0
575,168.9677532,169.42541452083333,61.0,60.0
576,168.4838822,169.4576725875,64.0,85.0
577,169.20968870000002,169.463720975,56.0,74.0
578,169.93549520000002,170.57864040416666,44.0,34.0
579,169.4516242,170.625011375,37.0,93.0
580,170.4193662,170.88307590833335,49.0,68.0
581,170.4193662,171.3810598125,64.0,70.0
582,170.9032372,171.3871082,56.0,64.0
583,170.4193662,171.4314630416667,61.0,68.0
584,171.87097920000002,172.42339859166668,56.0,52.0
585,171.3871082,172.70162441666668,44.0,88.0
586,172.5967857,172.7903341,56.0,72.0
587,172.35485020000002,173.21976961250002,68.0,97.0
588,172.35485020000002,173.22783412916667,63.0,92.0
589,172.8387212,173.34880187916667,59.0,86.0
590,173.3225922,173.85283417083335,45.0,79.0
591,173.8064632,174.18549548333334,61.0,58.0
592,173.8064632,174.1875116125,64.0,63.0
593,173.8064632,174.32259226666667,57.0,60.0
594,174.29033420000002,174.85485036666668,42.0,89.0
595,174.7742052,175.26614071666668,57.0,54.0
596,174.7742052,175.3004149125,54.0,52.0
597,174.7742052,175.34073749583334,61.0,59.0
598,175.7419472,176.32662465833334,56.0,53.0
599,176.22581820000002,176.5000117666667,59.0,65.0
600,176.4677537,176.62904403333334,56.0,69.0
601,175.2580762,176.66936661666668,44.0,100.0
602,176.22581820000002,177.18952794166668,63.0,76.0
603,176.7096892,177.2479956875,59.0,70.0
604,177.6774312,178.3246086625,49.0,73.0
605,177.1935602,178.5423506125,37.0,82.0
606,178.4032377,178.71170546250002,49.0,56.0
607,178.64517320000002,179.15122162083335,56.0,72.0
608,178.1613022,179.16735065416668,64.0,77.0
609,178.1613022,179.20364097916666,61.0,88.0
610,179.6129152,180.27622169583333,54.0,72.0
611,180.3387217,180.45162493333333,54.0,27.0
612,180.0967862,180.4657378375,57.0,72.0
613,179.1290442,180.84678625,42.0,86.0
614,180.0967862,180.94759270833333,61.0,85.0
615,180.58065720000002,180.95968948333334,57.0,67.0
616,180.0967862,180.96573787083335,66.0,74.0
617,181.5483992,181.9838831,56.0,77.0
618,181.0645282,182.19154440416668,44.0,92.0
619,182.0322702,182.91130251666667,68.0,75.0
620,182.0322702,182.9516251,63.0,82.0
621,182.51614120000002,183.00404445833334,59.0,68.0
622,183.4838832,184.0000122666667,49.0,76.0
623,183.72581870000002,184.27622196250002,56.0,69.0
624,183.00001220000001,184.81452845,37.0,66.0
625,183.2419477,184.84880264583333,44.0,36.0
626,184.2096897,185.29638332083334,49.0,75.0
627,184.4516252,185.37501235833335,61.0,55.0
628,183.9677542,185.43549623333334,64.0,86.0
629,184.6935607,185.49194785,56.0,68.0
630,185.66130270000002,185.818560775,64.0,63.0
631,185.66130270000002,185.82259303333333,61.0,61.0
632,185.66130270000002,185.83872206666666,56.0,76.0
633,185.4193672,185.93751239583335,49.0,82.0
634,185.9032382,185.97380272083333,56.0,81.0
635,185.9032382,186.45767372083336,61.0,112.0
636,184.93549620000002,186.51210920833336,37.0,65.0
637,185.9032382,186.71170599583334,64.0,92.0
638,185.1774317,186.76009309583335,44.0,50.0
639,186.14517370000002,186.80444793750002,49.0,107.0
640,186.3871092,186.9858995625,56.0,117.0
641,186.6290447,187.028238275,61.0,127.0
642,187.3548512,187.9354964,49.0,122.0
643,187.5967867,188.0020286625,56.0,100.0
644,187.1129157,188.15727060833333,44.0,100.0
645,186.87098020000002,188.24799642083335,37.0,96.0
646,188.08065770000002,188.35686739583335,49.0,112.0
647,188.3225932,188.78428677916668,61.0,122.0
648,188.5645287,188.79638355416668,56.0,112.0
649,187.8387222,188.8729964625,64.0,100.0
650,189.29033520000002,189.52420618333335,57.0,99.0
651,189.5322707,189.80243200833334,61.0,127.0
652,189.0483997,189.883077175,52.0,71.0
653,188.80646420000002,190.58872238333333,45.0,89.0
654,190.01614170000002,190.7016256166667,52.0,93.0
655,189.7742062,190.7439643291667,64.0,93.0
656,190.2580772,190.76815787916667,61.0,122.0
657,190.5000127,190.78831917083335,57.0,97.0
658,191.22581920000002,191.49194825,59.0,89.0
659,191.4677547,191.7580773,63.0,117.0
660,190.9838837,191.82057730416668,54.0,85.0
661,191.95162570000002,192.06856119166667,54.0,95.0
662,190.7419482,192.084690225,47.0,79.0
663,191.7096902,192.59073864583334,66.0,112.0
664,192.1935612,192.63912574583335,63.0,127.0
665,192.43549670000002,192.71170639583335,59.0,102.0
666,193.16130320000002,193.72178710833333,49.0,82.0
667,193.4032387,194.0746097125,56.0,97.0
668,192.9193677,194.10485165,44.0,78.0
669,192.6774322,194.1592871375,37.0,88.0
670,193.8871097,194.26614198333334,49.0,90.0
671,193.6451742,194.65928717083335,64.0,95.0
672,194.1290452,194.67138394583336,63.0,112.0
673,195.09678720000002,195.67743240000001,49.0,89.0
674,195.3387227,195.69960982083333,56.0,90.0
675,194.8548517,195.87299692916667,44.0,32.0
676,194.6129162,195.9254162875,37.0,83.0
677,195.8225937,196.12904533333335,49.0,89.0
678,196.30646470000002,196.54235181250002,56.0,89.0
679,195.58065820000002,196.55041632916667,64.0,92.0
680,196.0645292,196.5786421375,61.0,82.0
681,197.0322712,197.59073897916667,54.0,82.0
682,196.7903357,197.79638415416667,49.0,46.0
683,197.2742067,197.84073899583333,57.0,79.0
684,196.5484002,197.86493254583334,42.0,68.0
685,197.7580777,197.99799707083335,54.0,83.0
686,198.0000132,198.4838842,61.0,95.0
687,197.51614220000002,198.53025517083336,66.0,97.0
688,198.24194870000002,198.53227130000002,57.0,92.0
689,199.2096907,199.51614233333333,63.0,99.0
690,198.72581970000002,199.52823910833334,54.0,83.0
691,198.9677552,199.5786423375,59.0,71.0
692,199.6935617,199.83670687083335,54.0,95.0
693,198.4838842,199.88307784166668,47.0,64.0
694,199.45162620000002,200.17340044166667,66.0,102.0
695,199.93549720000001,200.25807786666667,63.0,117.0
696,200.1774327,200.5907391791667,59.0,93.0
697,201.1451747,201.19154567083334,64.0,36.0
698,200.9032392,201.4536424625,52.0,90.0
699,201.1451747,201.77219087083336,59.0,93.0
700,201.6290457,201.77420700000002,52.0,97.0
701,200.66130370000002,201.78227151666667,47.0,99.0
702,200.4193682,201.7923521625,40.0,83.0
703,201.87098120000002,201.89920700833335,59.0,26.0
704,201.87098120000002,201.97783604583336,64.0,97.0
705,201.38711020000002,202.4032393,68.0,127.0
706,202.1129167,202.463723175,63.0,117.0
707,202.8387232,203.39920710833334,49.0,90.0
708,203.08065870000001,203.43751356250002,56.0,92.0
709,202.59678770000002,203.67138454583335,44.0,72.0
710,202.3548522,203.673400675,37.0,74.0
711,203.5645297,203.73993293750001,49.0,96.0
712,203.80646520000002,204.10082005833334,56.0,107.0
713,203.3225942,204.31452975000002,64.0,96.0
714,204.0484007,204.33670717083334,61.0,93.0
715,205.01614270000002,205.25404594166667,61.0,102.0
716,204.53227170000002,205.34678788333335,52.0,85.0
717,204.7742072,205.36090078750001,57.0,76.0
718,204.2903362,205.9294492125,45.0,85.0
719,205.5000137,206.14517503333335,52.0,88.0
720,205.2580782,206.18751374583334,64.0,97.0
721,205.74194920000002,206.22380407083335,61.0,127.0
722,205.9838847,206.22783632916668,57.0,96.0
723,206.4677557,207.23993317083335,54.0,86.0
724,206.95162670000002,207.27622349583334,63.0,112.0
725,206.7096912,207.30444930416667,59.0,72.0
726,207.4354977,207.54840093333334,54.0,86.0
727,206.22582020000002,207.57057835416668,47.0,74.0
728,207.1935622,208.08065903333335,66.0,102.0
729,207.6774332,208.12904613333333,63.0,122.0
730,207.9193687,208.221788075,59.0,95.0
731,208.6451752,209.18751394583333,49.0,88.0
732,208.88711070000002,209.34477202083335,56.0,96.0
733,209.6129172,209.6613043,56.0,26.0
734,209.1290462,209.78428817916668,64.0,95.0
735,208.16130420000002,209.92743335,37.0,83.0
736,208.4032397,210.00404625833335,44.0,39.0
737,209.37098170000002,210.03428819583334,49.0,90.0
738,209.6129172,210.060497875,63.0,95.0
739,209.8548527,210.24598175833336,56.0,72.0
740,210.5806592,211.12501407500002,49.0,88.0
741,210.3387237,211.46977216250002,44.0,71.0
742,210.09678820000002,211.5060624875,37.0,79.0
743,211.30646570000002,211.72783669583333,49.0,89.0
744,211.0645302,211.8407399291667,64.0,97.0
745,211.5484012,211.86493347916667,63.0,93.0
746,210.8225947,211.9899334875,56.0,85.0
747,211.7903367,212.05444962083334,61.0,52.0
748,212.51614320000002,213.02420775000002,54.0,83.0
749,212.7580787,213.29840131666668,57.0,81.0
750,212.2742077,213.375014225,49.0,67.0
751,212.03227220000002,213.40324003333333,42.0,85.0
752,213.24194970000002,213.60485295,54.0,93.0
753,213.4838852,213.91332071250002,61.0,100.0
754,213.0000142,213.9496110375,66.0,107.0
755,213.7258207,213.9818691041667,57.0,92.0
756,214.45162720000002,214.97178852500002,56.0,85.0
757,214.6935627,215.092756275,59.0,73.0
758,214.2096917,215.21574015416667,51.0,66.0
759,215.17743370000002,215.2883208041667,56.0,85.0
760,213.9677562,215.322595,44.0,70.0
761,214.9354982,215.4979982375,63.0,93.0
762,214.9354982,215.86291761666666,68.0,100.0
763,215.4193692,215.9032402,59.0,92.0
764,215.66130470000002,215.9032402,63.0,92.0
765,215.9032402,216.06251440416668,44.0,66.0
766,215.9032402,216.23590151250002,49.0,93.0
767,215.9032402,216.254046675,37.0,53.0
768,215.9032402,216.254046675,61.0,36.0
769,215.9032402,216.27420796666667,64.0,71.0
770,215.9032402,216.28025635416668,56.0,75.0
771,216.38711120000002,216.68146605833334,49.0,69.0
772,216.38711120000002,216.72178864166668,44.0,69.0
773,216.38711120000002,216.72783702916666,37.0,58.0
774,216.38711120000002,216.73186928750002,61.0,48.0
775,216.38711120000002,216.75001445,64.0,64.0
776,216.38711120000002,216.7580789666667,56.0,69.0
777,216.87098220000001,217.14114350833336,49.0,93.0
778,216.87098220000001,217.15727254166669,44.0,47.0
779,216.87098220000001,217.173401575,37.0,63.0
780,216.87098220000001,217.18953060833334,64.0,68.0
781,216.87098220000001,217.19759512500002,61.0,76.0
782,216.87098220000001,217.2036435125,56.0,88.0
783,217.3548532,217.5484016,44.0,92.0
784,217.3548532,217.55444998750002,49.0,96.0
785,217.3548532,217.55646611666668,37.0,56.0
786,217.3548532,217.58469192500002,61.0,88.0
787,217.3548532,217.60082095833334,64.0,83.0
788,217.3548532,217.6149338625,56.0,93.0
789,217.8387242,218.15928873750002,45.0,92.0
790,217.8387242,218.16130486666668,57.0,92.0
791,217.8387242,218.1734016416667,64.0,92.0
792,217.8387242,218.18146615833334,61.0,99.0
793,218.32259520000002,218.60082102500002,64.0,82.0
794,218.32259520000002,218.6310629625,57.0,93.0
795,218.32259520000002,218.68549845,45.0,100.0
796,218.32259520000002,218.68953070833334,61.0,117.0
797,218.80646620000002,219.10082105833334,47.0,102.0
798,218.80646620000002,219.1270307375,59.0,85.0
799,218.80646620000002,219.13509525416669,66.0,117.0
800,218.80646620000002,219.14315977083334,63.0,117.0
801,219.2903372,219.59477270416667,59.0,85.0
802,219.2903372,219.6350952875,47.0,107.0
803,219.2903372,219.6471920625,63.0,112.0
804,219.2903372,219.65727270833335,66.0,99.0
805,219.7742082,220.1088856416667,61.0,100.0
806,219.7742082,220.11493402916668,49.0,100.0
807,219.7742082,220.11695015833334,56.0,100.0
808,219.7742082,220.12501467500002,64.0,95.0
809,219.7742082,220.14719209583333,37.0,92.0
810,222.1935632,222.3447728875,57.0,112.0
811,222.1935632,222.3810632125,45.0,99.0
812,222.4354987,222.55848257916668,59.0,93.0
813,222.4354987,222.56856322500002,47.0,102.0
814,222.67743420000002,222.85686969583335,49.0,127.0
815,222.67743420000002,222.89114389166667,61.0,112.0
816,223.16130520000002,223.36896650416668,64.0,90.0
817,223.16130520000002,223.37904715000002,57.0,92.0
818,223.16130520000002,223.42945037916667,61.0,100.0
819,223.16130520000002,223.43549876666668,45.0,99.0
820,223.6451762,223.94557944583335,59.0,89.0
821,223.6451762,223.9657407375,47.0,112.0
822,223.6451762,223.96977299583335,63.0,127.0
823,223.6451762,223.9778375125,66.0,122.0
824,226.0645312,227.3709829,37.0,93.0
825,226.0645312,227.3709829,61.0,100.0
826,226.0645312,227.37299902916666,49.0,95.0
827,226.0645312,227.37904741666668,56.0,96.0
828,226.0645312,227.38509580416667,64.0,90.0
829,228.0000152,228.5504184625,49.0,93.0
830,228.24195070000002,228.60082169166668,56.0,77.0
831,227.75807970000002,228.7560636375,44.0,33.0
832,227.5161442,228.83670880416668,37.0,92.0
833,228.7258217,228.95162816666667,49.0,92.0
834,228.96775720000002,229.3609023875,61.0,74.0
835,229.2096927,229.41130561666668,56.0,86.0
836,228.4838862,229.43751529583335,64.0,90.0
837,229.9354992,230.41735407083334,54.0,71.0
838,229.6935637,230.68348312083336,49.0,32.0
839,230.17743470000002,230.7117089291667,57.0,81.0
840,229.45162820000002,230.79437022500002,42.0,72.0
841,230.6613057,230.91937023333335,54.0,86.0
842,230.90324120000002,231.35687026250002,61.0,95.0
843,230.4193702,231.39517671666667,66.0,112.0
844,231.1451767,231.42138639583334,57.0,93.0
845,232.11291870000002,232.4334832375,63.0,96.0
846,231.6290477,232.44558001250002,54.0,72.0
847,231.8709832,232.49799937083336,59.0,72.0
848,232.59678970000002,232.71372519166667,54.0,72.0
849,231.38711220000002,232.79235422916668,47.0,73.0
850,232.3548542,233.09678973333334,66.0,102.0
851,232.8387252,233.22985425833335,63.0,112.0
852,233.0806607,233.891144625,59.0,92.0
853,233.80646720000001,234.31453175000001,52.0,93.0
854,234.04840270000003,234.34275755833335,59.0,95.0
855,234.53227370000002,234.71775758333334,52.0,95.0
856,233.5645317,234.7197737125,47.0,95.0
857,233.32259620000002,234.73388661666667,40.0,82.0
858,234.2903382,234.8407414625,64.0,93.0
859,234.2903382,235.22582213333334,68.0,117.0
860,235.0161447,235.25404794166667,64.0,66.0
861,234.7742092,235.3064673,59.0,97.0
862,235.74195120000002,236.27219317083333,49.0,86.0
863,235.9838867,236.50001576666668,56.0,88.0
864,235.25808020000002,236.57259641666667,37.0,96.0
865,235.5000157,236.59678996666668,44.0,65.0
866,236.46775770000002,236.67138674583333,49.0,95.0
867,236.7096932,237.01614483333336,56.0,112.0
868,236.2258222,237.12904806666668,64.0,90.0
869,236.95162870000001,237.2721932375,61.0,100.0
870,237.9193707,238.1149352291667,61.0,102.0
871,237.67743520000002,238.12904813333336,57.0,85.0
872,237.4354997,238.2540481416667,52.0,93.0
873,237.1935642,238.96170947916667,45.0,85.0
874,238.40324170000002,239.03832238750002,52.0,88.0
875,238.6451772,239.0645320666667,61.0,117.0
876,238.1613062,239.08267722916668,64.0,99.0
877,238.88711270000002,239.15324175,57.0,107.0
878,239.8548547,240.17743536666669,63.0,112.0
879,239.3709837,240.19154827083335,54.0,92.0
880,239.61291920000002,240.20364504583335,59.0,76.0
881,240.3387257,240.48590312916667,54.0,82.0
882,239.1290482,240.544370875,47.0,79.0
883,240.09679020000002,240.98187090416667,66.0,107.0
884,240.5806612,241.03227413333335,63.0,112.0
885,240.82259670000002,241.076628975,59.0,88.0
886,241.54840320000002,242.09679033333333,49.0,79.0
887,241.7903387,242.3528387375,56.0,72.0
888,241.0645322,242.81654844583335,37.0,88.0
889,241.3064677,242.88711296666668,44.0,35.0
890,242.2742097,242.90727425833333,49.0,90.0
891,242.5161452,243.11090330416667,61.0,97.0
892,242.75808070000002,243.15525814583336,56.0,99.0
893,242.03227420000002,243.520177525,64.0,92.0
894,243.4838872,244.06856465833334,49.0,89.0
895,243.7258227,244.27824209166667,56.0,92.0
896,243.24195170000002,244.32058080416667,44.0,66.0
897,243.0000162,244.32864532083335,37.0,82.0
898,244.2096937,244.50404855833335,49.0,78.0
899,243.96775820000002,244.82461309583334,64.0,96.0
900,244.4516292,244.88308084166667,61.0,75.0
901,244.69356470000002,244.90727439166668,56.0,95.0
902,245.4193712,245.95767768750002,54.0,77.0
903,245.6613067,246.26009706250002,57.0,85.0
904,244.9355002,246.36090352083335,42.0,64.0
905,245.17743570000002,246.45969385,49.0,37.0
906,246.1451777,246.71775838333335,54.0,86.0
907,246.38711320000002,246.7923551625,61.0,107.0
908,246.6290487,246.89921000833334,57.0,97.0
909,245.90324220000002,246.9677584,66.0,112.0
910,247.3548552,247.8951778166667,56.0,79.0
911,247.5967907,248.04033911666667,59.0,82.0
912,248.0806617,248.189532675,56.0,83.0
913,247.11291970000002,248.22582300000002,51.0,45.0
914,246.8709842,248.27219397083334,44.0,58.0
915,247.83872620000002,248.43953269166667,63.0,122.0
916,248.5645327,248.7157423875,63.0,37.0
917,248.32259720000002,248.8064682,59.0,92.0
918,248.8064682,248.93550046666667,61.0,88.0
919,248.8064682,252.56856522500001,37.0,53.0
920,248.8064682,252.6109039375,49.0,89.0
921,248.8064682,252.63308135833336,44.0,95.0
922,248.8064682,252.85485556666669,64.0,79.0
923,249.04840370000002,253.08469429166666,61.0,26.0
924,248.8064682,253.14719429583334,56.0,97.0
925,253.1613072,253.4213878625,75.0,90.0
926,253.40324270000002,253.6350975541667,76.0,71.0
927,253.6451782,253.94356531666668,80.0,85.0
928,253.88711370000001,254.15324275,76.0,71.0
929,252.67743620000002,254.40525889583336,37.0,81.0
930,254.12904920000003,254.44356535,75.0,73.0
931,253.1613072,254.62703310416669,44.0,35.0
932,254.3709847,254.98187183750002,68.0,64.0
933,254.8548557,254.98187183750002,68.0,97.0
934,255.0967912,255.35687186250001,75.0,90.0
935,253.6451782,255.37703315416667,64.0,58.0
936,255.33872670000002,255.57058155416667,76.0,71.0
937,253.6451782,255.665339625,49.0,38.0
938,254.12904920000003,255.72985575833334,56.0,44.0
939,255.5806622,255.87904931666668,80.0,85.0
940,255.0967912,256.00001706666666,44.0,48.0
941,254.61292020000002,256.02421061666666,37.0,59.0
942,255.82259770000002,256.08872675000003,76.0,71.0
943,255.82259770000002,256.1209848166667,49.0,41.0
944,256.0645332,256.37904935,75.0,73.0
945,256.0645332,256.47380742083334,56.0,68.0
946,255.5806622,256.54437194166667,64.0,76.0
947,253.6451782,256.5907429125,61.0,55.0
948,256.30646870000004,256.9173558375,68.0,64.0
949,256.5484042,258.31856560833336,44.0,73.0
950,257.0322752,258.5020333625,51.0,33.0
951,257.51614620000004,259.2580818,68.0,66.0
952,257.51614620000004,259.3125172875,63.0,61.0
953,257.51614620000004,259.35082374166666,56.0,39.0
954,258.9677592,259.4113076166667,51.0,35.0
955,258.4838882,259.584694725,44.0,56.0
956,259.4516302,260.4193722,68.0,74.0
957,259.93550120000003,260.44759800833333,63.0,66.0
958,258.0000172,260.4818722041667,59.0,41.0
959,261.3871142,261.689533575,61.0,29.0
960,260.9032432,261.72784002916666,44.0,37.0
961,260.4193722,261.737920675,37.0,71.0
962,261.3871142,261.90324326666666,49.0,35.0
963,261.8709852,262.36493684583337,56.0,58.0
964,261.8709852,262.3871142666667,61.0,23.0
965,261.3871142,262.3871142666667,64.0,63.0
966,262.8387272,263.90727565833333,49.0,30.0
967,263.3225982,264.10485631666666,54.0,44.0
968,262.35485620000003,264.1350982541667,42.0,59.0
969,263.3225982,264.1411466416667,61.0,57.0
970,263.3225982,264.1754208375,66.0,53.0
971,264.278243425,266.46574357083335,51.0,72.0
972,264.2943724583333,266.5161468,59.0,63.0
973,264.2923563291667,266.5181629291667,44.0,53.0
974,264.28227568333335,266.52824357500003,56.0,71.0
975,264.2842918125,266.5342919625,63.0,67.0
976,271.0967922666667,271.451631,52.0,52.0
977,271.3407438958333,271.56453423333335,54.0,52.0
978,271.54235681250003,271.60888907500004,56.0,42.0
979,271.79840521666665,272.06050200833334,61.0,79.0
980,272.0221955541667,272.2439697625,63.0,59.0
981,272.2701794416667,272.49195365,64.0,58.0
982,272.5262278458333,272.80445367083337,66.0,39.0
983,272.8024375416667,272.8871149666667,68.0,40.0
984,273.1391311125,273.42138919583334,73.0,64.0
985,273.42743758333336,273.5242117833333,76.0,58.0
986,273.79034083333335,273.89921180833335,80.0,72.0
987,274.1129215,274.2399376375,85.0,74.0
988,274.4939699125,274.6230021791667,88.0,62.0
989,274.8891312291667,274.99800220416665,92.0,66.0
990,275.26211512500004,275.3810667458333,97.0,72.0
991,275.86292161666665,276.3709861666667,100.0,47.0
992,270.52421158333334,276.8548571666667,44.0,40.0
993,270.78630837500003,276.8669539416667,49.0,72.0
994,270.01009864583335,276.9375184625,37.0,73.0
