,start,end,pitch,velocity
0,16.09677905,16.33040691875,66.0,102.0
1,16.3141073,16.6328554,67.0,93.0
2,16.7487638,16.85561685625,66.0,86.0
3,16.96609205,17.62351000625,64.0,122.0
4,19.57403105,19.74970471875,66.0,122.0
5,19.7913593,19.8203364,66.0,58.0
6,19.7913593,20.0231761,67.0,97.0
7,20.2260158,20.39082305625,66.0,127.0
8,20.44334405,20.91965513125,64.0,99.0
9,23.05128305,23.234200993749997,66.0,117.0
10,23.2686113,23.54932695625,67.0,102.0
11,23.7032678,23.880752537499998,66.0,122.0
12,23.92059605,24.19044529375,62.0,102.0
13,24.35525255,24.50013805,62.0,93.0
14,24.572580799999997,24.768176224999998,57.0,90.0
15,25.0072373,25.2209434125,55.0,90.0
16,25.4418938,25.58496823125,54.0,96.0
17,25.65922205,26.0902564125,55.0,95.0
18,26.09387855,26.229708706249998,62.0,97.0
19,26.311206799999997,27.2131190375,62.0,79.0
20,29.788458799999997,29.88444544375,57.0,92.0
21,30.00578705,30.23760385,66.0,100.0
22,30.440443549999998,30.6577718,67.0,107.0
23,30.6577718,30.880533256249997,66.0,99.0
24,30.87510005,32.157336725,64.0,102.0
25,33.2657108,33.3562642375,57.0,96.0
26,33.483039049999995,33.62611348125,66.0,107.0
27,33.700367299999996,33.910451275,67.0,96.0
28,34.1350238,34.294397849999996,66.0,112.0
29,34.35235205,35.80664025625,64.0,89.0
30,36.52563455,36.61075478125,57.0,96.0
31,36.7429628,36.84619371875,57.0,90.0
32,36.960291049999995,37.09612120625,66.0,122.0
33,37.177619299999996,37.351481899999996,67.0,99.0
34,37.6122758,37.729995268749995,66.0,107.0
35,37.82960405,38.07047619375,62.0,112.0
36,38.264260549999996,38.38922429375,62.0,97.0
37,38.4815888,38.755060181249995,57.0,96.0
38,38.9162453,39.1806613375,55.0,88.0
39,39.350901799999995,39.48673195625,54.0,81.0
40,39.56823005,39.9485544875,55.0,90.0
41,40.00288655,40.11336174375,62.0,112.0
42,40.2202148,41.38835414375,62.0,112.0
43,42.17616905,42.542004937499996,57.0,102.0
44,42.61082555,43.01107174375,66.0,117.0
45,43.04548205,44.907260725,62.0,127.0
46,45.65342105,46.06091151875,66.0,127.0
47,46.08807755,46.4032035125,67.0,102.0
48,46.52273405,47.06786574375,69.0,127.0
49,47.392047049999995,47.638352399999995,66.0,127.0
50,47.82670355,47.957100499999996,67.0,107.0
51,48.0440318,48.51309860625,69.0,107.0
52,48.478688299999995,48.74853754375,67.0,112.0
53,49.13067305,49.382411606249995,66.0,122.0
54,49.56532955,49.710215049999995,64.0,100.0
55,49.782657799999996,50.35314445625,66.0,122.0
56,50.869299049999995,51.09930478125,62.0,102.0
57,51.30395555,51.40718646875,64.0,95.0
58,51.5212838,51.82554335,66.0,107.0
59,51.955940299999995,52.36343076875,64.0,107.0
60,52.60792505,52.868718949999995,62.0,127.0
61,53.042581549999994,53.158489949999996,61.0,107.0
62,53.259909799999996,54.1907991375,62.0,97.0
63,54.346551049999995,54.600100675,62.0,97.0
64,54.78120755,54.904360225,62.0,97.0
65,54.9985358,55.67406444375,69.0,107.0
66,56.08517705,56.358648431249996,62.0,102.0
67,56.519833549999994,56.6393640875,62.0,100.0
68,56.737161799999996,57.005199975,67.0,112.0
69,57.1718183,57.2877267,66.0,102.0
70,57.38914655,57.5593870125,67.0,93.0
71,57.6064748,57.753171368749996,66.0,107.0
72,57.823803049999995,57.948766793749996,67.0,102.0
73,58.041131299999996,58.265703824999996,69.0,99.0
74,58.4757878,58.70217139375,66.0,117.0
75,58.69311605,59.404866068749996,64.0,95.0
76,59.56242905,59.781568368749994,66.0,117.0
77,59.997085549999994,60.10756074375,67.0,102.0
78,60.214413799999996,60.93703023125,69.0,112.0
79,61.301055049999995,61.587203912499994,66.0,127.0
80,61.73571155,61.84256460625,67.0,122.0
81,61.9530398,62.17036805,69.0,127.0
82,62.387696299999995,62.9346390625,67.0,112.0
83,63.03968105,63.331263118749995,66.0,117.0
84,63.474337549999994,63.566702056249994,64.0,97.0
85,63.691665799999996,64.46861429375,66.0,122.0
86,64.77830705,65.0427230875,62.0,99.0
87,65.21296355,65.321627675,64.0,100.0
88,65.43029179999999,65.66754180625,66.0,112.0
89,65.8649483,66.28692731875,64.0,100.0
90,66.51693304999999,66.7306391625,62.0,99.0
91,66.95158955,67.060253675,61.0,112.0
92,67.1689178,68.0201201125,62.0,117.0
93,68.25555905,68.5417079125,62.0,102.0
94,68.69021554999999,68.82966784375,62.0,97.0
95,68.9075438,69.51062969374999,69.0,117.0
96,69.99418505,70.26041215625,62.0,100.0
97,70.42884155,70.55742743124999,62.0,97.0
98,70.6461698,71.04822706249999,67.0,117.0
99,71.0808263,71.17319080624999,67.0,117.0
100,71.29815454999999,71.45933966874999,67.0,107.0
101,71.5154828,71.74186639375,59.0,97.0
102,71.73281105,72.09502479999999,66.0,107.0
103,72.16746755,72.44093893125,64.0,97.0
104,72.60212405,72.88646184375,62.0,100.0
105,72.8194523,72.88646184375,62.0,117.0
106,87.1631168,87.25910344374999,57.0,92.0
107,87.38044504999999,87.61226185,66.0,100.0
108,87.81510155,88.0324298,67.0,107.0
109,88.0324298,88.25519125625,66.0,99.0
110,88.24975805,89.53199472499999,64.0,102.0
111,90.64036879999999,90.7309222375,57.0,96.0
112,90.85769705,91.00077148125,66.0,107.0
113,91.0750253,91.285109275,67.0,96.0
114,91.5096818,91.66905584999999,66.0,112.0
115,91.72701004999999,93.18129825625,64.0,89.0
116,94.33494904999999,94.47077920625,66.0,122.0
117,94.5522773,94.72613989999999,67.0,99.0
118,94.9869338,95.10465326875,66.0,107.0
119,95.20426205,95.44513419375,62.0,112.0
120,95.63891855,95.76388229375,62.0,97.0
121,95.8562468,96.12971818125,57.0,96.0
122,96.2909033,96.5553193375,55.0,88.0
123,96.7255598,96.86138995625,54.0,81.0
124,96.94288805,97.3232124875,55.0,90.0
125,97.37754455,97.48801974375,62.0,112.0
126,97.59487279999999,98.76301214374999,62.0,112.0
127,99.55082705,99.91666293749999,57.0,102.0
128,99.98548355,100.38572974374999,66.0,117.0
129,100.42014005,102.281918725,62.0,127.0
130,103.02807905,103.43556951875,66.0,127.0
131,103.46273554999999,103.7778615125,67.0,102.0
132,103.89739205,104.44252374375,69.0,127.0
133,104.76670505,105.0130104,66.0,127.0
134,105.20136155,105.33175849999999,67.0,107.0
135,105.4186898,105.88775660625,69.0,107.0
136,105.8533463,106.12319554375,67.0,112.0
137,106.50533105,106.75706960625,66.0,122.0
138,106.93998755,107.08487305,64.0,100.0
139,107.15731579999999,107.72780245624999,66.0,122.0
140,108.24395704999999,108.47396278125,62.0,102.0
141,108.67861355,108.78184446875,64.0,95.0
142,108.89594179999999,109.20020135,66.0,107.0
143,109.33059829999999,109.73808876874999,64.0,107.0
144,109.98258304999999,110.24337695,62.0,127.0
145,110.41723954999999,110.53314795,61.0,107.0
146,110.6345678,111.56545713749999,62.0,97.0
147,111.72120905,111.97475867499999,62.0,97.0
148,112.15586555,112.279018225,62.0,97.0
149,112.3731938,113.04872244375,69.0,107.0
150,113.45983505,113.73330643125,62.0,102.0
151,113.89449155,114.0140220875,62.0,100.0
152,114.11181979999999,114.379857975,67.0,112.0
153,114.5464763,114.66238469999999,66.0,102.0
154,114.76380454999999,114.9340450125,67.0,93.0
155,114.9811328,115.12782936875,66.0,107.0
156,115.19846104999999,115.32342479375,67.0,102.0
157,115.4157893,115.640361825,69.0,99.0
158,115.85044579999999,116.07682939374999,66.0,117.0
159,116.06777405,116.77952406874999,64.0,95.0
160,116.93708704999999,117.15622636875,66.0,117.0
161,117.37174354999999,117.48221874375,67.0,102.0
162,117.5890718,118.31168823124999,69.0,112.0
163,118.67571305,118.9618619125,66.0,127.0
164,119.11036955,119.21722260624999,67.0,122.0
165,119.3276978,119.54502604999999,69.0,127.0
166,119.7623543,120.3092970625,67.0,112.0
167,120.41433905,120.70592111875,66.0,117.0
168,120.84899555,120.94136005624999,64.0,97.0
169,121.06632379999999,121.84327229374999,66.0,122.0
170,122.15296504999999,122.41738108749999,62.0,99.0
171,122.58762155,122.696285675,64.0,100.0
172,122.80494979999999,123.04219980625,66.0,112.0
173,123.23960629999999,123.66158531875,64.0,100.0
174,123.89159104999999,124.1052971625,62.0,99.0
175,124.32624754999999,124.434911675,61.0,112.0
176,124.5435758,125.39477811249999,62.0,117.0
177,125.63021705,125.9163659125,62.0,102.0
178,126.06487354999999,126.20432584375,62.0,97.0
179,126.2822018,126.88528769374999,69.0,117.0
180,127.36884305,127.63507015625,62.0,100.0
181,127.80349955,127.93208543124999,62.0,97.0
182,128.0208278,128.4228850625,67.0,117.0
183,128.4554843,128.54784880625,67.0,117.0
184,128.67281255,128.83399766875,67.0,107.0
185,128.89014079999998,129.11652439374998,59.0,97.0
186,129.10746905,129.4696828,66.0,107.0
187,129.54212554999998,129.81559693124998,64.0,97.0
188,129.97678205,130.1325339625,62.0,100.0
189,130.1941103,132.3058164625,62.0,117.0
190,156.92548505,157.33297551875,66.0,127.0
191,157.36014154999998,157.6752675125,67.0,102.0
192,157.5774698,158.12260149374998,69.0,127.0
193,158.66411105,158.9104164,66.0,127.0
194,159.09876755,159.2291645,67.0,107.0
195,159.3160958,159.78516260625,69.0,107.0
196,159.7507523,160.02060154375,67.0,112.0
197,160.40273704999998,160.65447560625,66.0,122.0
198,160.83739355,160.98227905,64.0,100.0
199,161.05472179999998,161.62520845625,66.0,122.0
200,162.14136305,162.37136878125,62.0,102.0
201,162.57601954999998,162.67925046874998,64.0,95.0
202,162.7933478,163.09760735,66.0,107.0
203,163.22800429999998,163.63549476875,64.0,107.0
204,163.87998905,164.14078295,62.0,127.0
205,164.31464555,164.43055395,61.0,107.0
206,164.5319738,165.4628631375,62.0,97.0
207,165.61861505,165.872164675,62.0,97.0
208,166.05327155,166.176424225,62.0,97.0
209,166.27059979999999,166.94612844374998,69.0,107.0
210,167.35724105,167.63071243125,62.0,102.0
211,167.79189755,167.91142808749998,62.0,100.0
212,168.0092258,168.27726397499998,67.0,112.0
213,168.44388229999998,168.55979069999998,66.0,102.0
214,168.66121055,168.8314510125,67.0,93.0
215,168.8785388,169.02523536875,66.0,107.0
216,169.09586704999998,169.22083079375,67.0,102.0
217,169.3131953,169.537767825,69.0,99.0
218,169.7478518,169.97423539374998,66.0,117.0
219,169.96518005,170.67693006874998,64.0,95.0
220,170.83449305,171.05363236875,66.0,117.0
221,171.26914954999998,171.37962474374999,67.0,102.0
222,171.4864778,172.20909423125,69.0,112.0
223,172.57311905,172.8592679125,66.0,127.0
224,173.00777555,173.11462860625,67.0,122.0
225,173.2251038,173.44243204999998,69.0,127.0
226,173.6597603,174.2067030625,67.0,112.0
227,174.31174504999998,174.60332711875,66.0,117.0
228,174.74640155,174.83876605625,64.0,97.0
229,174.96372979999998,175.74067829375,66.0,122.0
230,176.05037105,176.31478708749998,62.0,99.0
231,176.48502754999998,176.593691675,64.0,100.0
232,176.7023558,176.93960580625,66.0,112.0
233,177.13701229999998,177.55899131875,64.0,100.0
234,177.78899705,178.00270316249998,62.0,99.0
235,178.22365355,178.33231767499998,61.0,112.0
236,178.4409818,179.2921841125,62.0,117.0
237,179.52762305,179.8137719125,62.0,102.0
238,179.96227955,180.10173184375,62.0,97.0
239,180.17960779999999,180.78269369375,69.0,117.0
240,181.26624905,181.53247615625,62.0,100.0
241,181.70090555,181.82949143125,62.0,97.0
242,181.9182338,182.3202910625,67.0,117.0
243,182.35289029999998,182.44525480625,67.0,117.0
244,182.57021855,182.73140366875,67.0,107.0
245,182.7875468,183.01393039375,59.0,97.0
246,183.00487504999998,183.3670888,66.0,107.0
247,183.43953155,183.71300293125,64.0,97.0
248,183.87418805,184.16395905,62.0,100.0
249,184.30884455,186.4205507125,62.0,117.0
