,start,end,pitch,velocity
0,28.020368812499996,28.383889162499997,66.0,117.0
1,28.275470812499996,28.556083012499997,68.0,100.0
2,28.530572812499997,28.691605949999996,70.0,102.0
3,28.785674812499998,29.1938380125,73.0,127.0
4,29.295878812499996,29.396325225,73.0,122.0
5,29.550980812499997,30.571388812499997,73.0,127.0
6,31.0815928125,31.379743274999996,66.0,107.0
7,31.3366948125,31.581563624999998,68.0,96.0
8,31.594550624999997,31.852667249999996,70.0,95.0
9,31.854290624999997,32.22279674999999,75.0,112.0
10,32.373770625,32.539354874999994,75.0,122.0
11,32.633510625,33.83156137499999,73.0,127.0
12,34.191950625,34.415976375,63.0,117.0
13,34.451690625,34.714677374999994,65.0,81.0
14,34.711430625,34.9792875,66.0,107.0
15,34.971170625,35.35266375,68.0,102.0
16,35.490650624999994,35.732533499999995,70.0,112.0
17,35.750390624999994,36.2260395,75.0,117.0
18,36.269870624999996,36.910895624999995,73.0,112.0
19,37.047113437499995,37.135254374999995,70.0,117.0
20,37.3035234375,37.699356375,68.0,107.0
21,37.5599334375,38.513458125,70.0,99.0
22,40.3804434375,40.7458276875,66.0,117.0
23,40.636853437499994,40.9189044375,68.0,100.0
24,40.893263437499996,41.05512225,70.0,102.0
25,41.1496734375,41.559929437499996,73.0,127.0
26,41.6624934375,41.763454874999994,73.0,122.0
27,41.9189034375,42.944543437499995,73.0,127.0
28,43.4573634375,43.757042625,66.0,107.0
29,43.713773437499995,43.957362937499994,68.0,96.0
30,43.9701834375,44.224990874999996,70.0,95.0
31,44.2265934375,44.590375124999994,75.0,112.0
32,44.7394134375,44.902874812499995,75.0,122.0
33,44.99582343749999,45.257041125,73.0,127.0
34,45.252233437499996,45.99101475,75.0,127.0
35,46.534283437499994,46.75543706249999,63.0,117.0
36,46.790693437499996,47.05030856249999,65.0,81.0
37,47.0471034375,47.31152625,66.0,107.0
38,47.303513437499994,47.680115625,68.0,102.0
39,47.81633343749999,48.05511525,70.0,112.0
40,48.072743437499994,48.54229425,75.0,117.0
41,48.5855634375,49.218575625,73.0,112.0
42,49.35479343749999,49.5214599375,66.0,107.0
43,49.611203437499995,50.005433812499994,63.0,107.0
44,49.8676134375,51.65992148749999,66.0,99.0
45,52.4369913375,52.61692759375,78.0,122.0
46,52.694953049999995,53.20609940625,77.0,107.0
47,53.3987745125,53.790494149999994,77.0,127.0
48,53.9911310375,54.175844362499994,74.0,112.0
49,54.250685106249996,55.07871035625,70.0,107.0
50,55.48316884374999,55.733168774999996,70.0,117.0
51,55.73794584375,56.151958468749996,75.0,102.0
52,56.24749984374999,56.6981366625,75.0,127.0
53,57.01183084375,57.2936779,77.0,127.0
54,57.266607843749995,57.93539746875,75.0,127.0
55,58.540492843749995,58.688581975,78.0,127.0
56,58.79526984374999,59.10418695625,77.0,107.0
57,59.30482384374999,59.4051422875,77.0,107.0
58,59.55960084375,59.65036515,77.0,97.0
59,59.814377843749995,59.9433587,77.0,112.0
60,60.06915484375,60.29845414374999,74.0,127.0
61,60.323931843749996,61.280937949999995,70.0,111.0
62,61.34303984374999,61.4624665625,70.0,117.0
63,61.597816843749996,61.734759481249995,70.0,112.0
64,61.85259384374999,62.28412238749999,82.0,127.0
65,62.362147843749995,63.0166062625,80.0,127.0
66,62.871701843749996,63.150364187499996,78.0,122.0
67,63.12647884374999,63.38125584375,77.0,90.0
68,63.38125584375,64.5006822875,78.0,112.0
69,64.65514084374999,64.841446525,73.0,117.0
70,64.90991784375,65.25545915,75.0,107.0
71,65.4204414375,65.5486464375,75.0,112.0
72,65.6768514375,66.00056906249999,75.0,127.0
73,66.1896714375,66.316273875,75.0,117.0
74,66.4460814375,66.81787593749999,75.0,127.0
75,66.9589014375,67.3274908125,75.0,117.0
76,67.4717214375,67.70088787499999,73.0,112.0
77,67.7281314375,67.9717209375,71.0,99.0
78,67.9845414375,69.3531298125,73.0,107.0
79,69.5230014375,70.5710773125,70.0,127.0
80,70.8050514375,70.9588974375,73.0,117.0
81,71.0614614375,71.3851790625,75.0,112.0
82,71.57428143749999,71.675242875,75.0,122.0
83,71.8306914375,72.216909,75.0,122.0
84,72.3435114375,72.48774206249999,75.0,100.0
85,72.5999214375,72.9781261875,75.0,117.0
86,73.11274143749999,73.74575362499999,78.0,127.0
87,73.8819714375,74.6031245625,75.0,107.0
88,74.3947914375,76.2249178125,73.0,117.0
89,76.4460714375,76.6383789375,73.0,122.0
90,76.7024814375,76.9460709375,70.0,100.0
91,76.9588914375,77.2024809375,68.0,89.0
92,77.2153014375,79.3467095625,70.0,102.0
93,79.5229914375,79.6928630625,73.0,127.0
94,79.7794014375,80.03100375,70.0,107.0
95,80.0358114375,80.3114521875,68.0,93.0
96,80.29222143749999,80.886772125,70.0,100.0
97,81.0614514375,82.77459074999999,63.0,100.0
98,82.5999114375,82.77459074999999,63.0,122.0
99,82.8563214375,83.104718625,65.0,97.0
100,83.1127314375,83.35151325,66.0,122.0
101,83.36914143749999,83.9043973125,68.0,117.0
102,83.8819614375,84.06946124999999,70.0,100.0
103,84.1383714375,84.51176849999999,68.0,100.0
104,84.65119143749999,84.8306784375,70.0,112.0
105,84.90760143749999,85.3322805,75.0,112.0
106,85.6768314375,86.09990793749999,73.0,122.0
107,86.1896514375,86.3531128125,70.0,127.0
108,86.44606143749999,86.835484125,68.0,117.0
109,88.7537514375,88.90599487499999,73.0,122.0
110,86.9588814375,88.92682818749999,70.0,117.0
111,89.01016143749999,89.1511869375,70.0,99.0
112,89.26657143749999,89.386763625,68.0,100.0
113,89.5229814375,91.553428125,70.0,127.0
114,91.8306714375,91.99092768749999,73.0,112.0
115,92.08708143749999,92.25535049999999,70.0,100.0
116,92.34349143749999,92.4588759375,68.0,99.0
117,92.5999014375,93.0101574375,70.0,107.0
118,93.1127214375,94.085476875,63.0,117.0
119,94.93483499999999,95.09509125,63.0,112.0
120,95.175219375,95.3755396875,65.0,90.0
121,95.431629375,95.579065125,66.0,122.0
122,95.70887268749999,96.0422056875,68.0,122.0
123,96.22489781249999,96.34829512499999,70.0,117.0
124,96.49252575,96.84989718749999,68.0,127.0
125,96.99252525,97.1063071875,70.0,112.0
126,97.2665634375,97.6896399375,75.0,117.0
127,97.74412706249998,98.53899806249999,73.0,122.0
128,98.49893399999999,98.591882625,66.0,100.0
129,98.784190125,99.27297168749999,63.0,122.0
130,99.23451018749999,101.74732818749999,66.0,117.0
131,126.20082937499998,126.38191893749999,78.0,122.0
132,126.4604445,126.97486706249998,77.0,107.0
133,127.16877712499999,127.5630075,77.0,127.0
134,127.76493037499999,127.95082762499999,74.0,112.0
135,128.0261480625,128.85948056249998,70.0,107.0
136,129.2665314375,129.51813375,70.0,117.0
137,129.52294143749998,129.93960768749997,75.0,102.0
138,130.03576143749999,130.48928662499998,75.0,127.0
139,130.8049914375,131.08864499999999,77.0,127.0
140,131.0614014375,131.73447768749998,75.0,127.0
141,132.3434514375,132.49248975,78.0,127.0
142,132.5998614375,132.9107585625,77.0,107.0
143,133.1126814375,133.213642875,77.0,107.0
144,133.3690914375,133.4604375,77.0,97.0
145,133.6255014375,133.755309,77.0,112.0
146,133.88191143749998,134.1126804375,74.0,127.0
147,134.1383214375,135.10146149999997,70.0,111.0
148,135.1639614375,135.284153625,70.0,117.0
149,135.4203714375,135.55819181249998,70.0,112.0
150,135.67678143749998,136.11107587499998,82.0,127.0
151,136.1896014375,136.84825462499998,80.0,127.0
152,136.7024214375,136.982869875,78.0,122.0
153,136.9588314375,137.21524143749997,77.0,90.0
154,137.21524143749997,138.341842875,78.0,112.0
155,138.4972914375,138.68479125,73.0,117.0
156,138.75370143749998,139.10145749999998,75.0,107.0
157,139.2665214375,139.39472643749997,75.0,112.0
158,139.5229314375,139.84664906249998,75.0,127.0
159,140.03575143749998,140.162353875,75.0,117.0
160,140.2921614375,140.6639559375,75.0,127.0
161,140.80498143749998,141.17357081249997,75.0,117.0
162,141.3178014375,141.546967875,73.0,112.0
163,141.57421143749997,141.8178009375,71.0,99.0
164,141.83062143749999,143.1992098125,73.0,107.0
165,143.36908143749997,144.4171573125,70.0,127.0
166,144.6511314375,144.80497743749999,73.0,117.0
167,144.9075414375,145.2312590625,75.0,112.0
168,145.4203614375,145.521322875,75.0,122.0
169,145.6767714375,146.062989,75.0,122.0
170,146.18959143749998,146.3338220625,75.0,100.0
171,146.4460014375,146.82420618749998,75.0,117.0
172,146.95882143749998,147.591833625,78.0,127.0
173,147.72805143749997,148.44920456249997,75.0,107.0
174,148.2408714375,150.07099781249997,73.0,117.0
175,150.29215143749997,150.4844589375,73.0,122.0
176,150.54856143749998,150.79215093749997,70.0,100.0
177,150.8049714375,151.04856093749999,68.0,89.0
178,151.0613814375,153.19278956249997,70.0,102.0
179,153.3690714375,153.53894306249998,73.0,127.0
180,153.62548143749999,153.87708375,70.0,107.0
181,153.88189143749997,154.15753218749998,68.0,93.0
182,154.1383014375,154.732852125,70.0,100.0
183,154.90753143749998,156.62067075,63.0,100.0
184,156.44599143749997,156.62067075,63.0,122.0
185,156.7024014375,156.950798625,65.0,97.0
186,156.9588114375,157.19759324999998,66.0,122.0
187,157.2152214375,157.75047731249998,68.0,117.0
188,157.7280414375,157.91554125,70.0,100.0
189,157.98445143749998,158.3578485,68.0,100.0
190,158.4972714375,158.67675843749998,70.0,112.0
191,158.7536814375,159.1783605,75.0,112.0
192,159.5229114375,159.94598793749998,73.0,122.0
193,160.03573143749998,160.19919281249997,70.0,127.0
194,160.2921414375,160.681564125,68.0,117.0
195,162.59983143749997,162.752074875,73.0,122.0
196,160.80496143749997,162.77290818749998,70.0,117.0
197,162.8562414375,162.9972669375,70.0,99.0
198,163.1126514375,163.232843625,68.0,100.0
199,163.3690614375,165.39950812499998,70.0,127.0
200,165.6767514375,165.83700768749998,73.0,112.0
201,165.9331614375,166.1014305,70.0,100.0
202,166.18957143749998,166.30495593749998,68.0,99.0
203,166.4459814375,166.8562374375,70.0,107.0
204,166.95880143749997,167.93155687499998,63.0,117.0
205,168.780915,168.94117124999997,63.0,112.0
206,169.02129937499998,169.22161968749998,65.0,90.0
207,169.27770937499997,169.42514512499997,66.0,122.0
208,169.5549526875,169.8882856875,68.0,122.0
209,170.0709778125,170.194375125,70.0,117.0
210,170.33860575,170.69597718749998,68.0,127.0
211,170.83860525,170.9523871875,70.0,112.0
212,171.11264343749997,171.5357199375,75.0,117.0
213,171.59020706249999,172.38507806249999,73.0,122.0
214,172.345014,172.43796262499998,66.0,100.0
215,172.63027012499998,173.1190516875,63.0,122.0
216,173.08059018749998,174.90751143749998,66.0,117.0
217,174.8690499375,175.11263943749998,63.0,99.0
218,175.12545993749998,175.39789556249997,65.0,92.0
219,175.38186993749997,175.6671260625,66.0,112.0
220,175.6735363125,176.114241,68.0,112.0
221,176.1895614375,176.47321499999998,70.0,102.0
222,176.4459714375,176.8594325625,68.0,95.0
223,176.9587914375,177.098214375,70.0,100.0
224,177.21520143749999,177.950777625,75.0,102.0
225,177.9844314375,180.02769862499997,73.0,107.0
226,180.3658393125,181.9235300625,66.0,112.0
227,181.89628649999997,184.6286555625,63.0,100.0
228,184.5966043125,188.9299333125,66.0,102.0
