,start,end,pitch,velocity
0,0.4065688125,1.11607125,58.0,76.0
1,0.4065688125,1.310586525,42.0,75.0
2,0.4065688125,1.47321405,61.0,76.0
3,1.1718748125,1.533800775,66.0,72.0
4,1.9371808125,2.6227674375,58.0,90.0
5,1.9371808125,2.6514664125,61.0,83.0
6,2.7024868125,2.8443873,58.0,97.0
7,2.7024868125,2.8587367875,61.0,95.0
8,1.9371808125,2.8698975,46.0,85.0
9,2.7024868125,2.8698975,65.0,85.0
10,3.4677928125,4.072065675,59.0,93.0
11,3.4677928125,4.081632,66.0,96.0
12,3.4677928125,4.1023590375,63.0,93.0
13,3.4677928125,4.308035025,54.0,75.0
14,3.4677928125,4.4626906125,47.0,44.0
15,4.2330988125,4.563137025,66.0,93.0
16,4.2330988125,4.5966191625,63.0,97.0
17,4.4882008125,4.792728825,59.0,73.0
18,4.9984048125000005,5.80994805,61.0,86.0
19,4.9984048125000005,5.8115424375,58.0,100.0
20,4.9984048125000005,6.2165168625,46.0,74.0
21,5.7637108125,6.3329071500000005,65.0,96.0
22,6.2739148125,6.4269760125,58.0,77.0
23,6.0188128125,6.4748076375,61.0,78.0
24,6.5290168125,7.5765294,44.0,92.0
25,7.2943228125,7.6036339875,63.0,92.0
26,7.2943228125,7.60841715,59.0,88.0
27,7.2943228125,7.6147947,56.0,40.0
28,8.0596288125,8.6910062625,68.0,97.0
29,8.0596288125,8.7547817625,65.0,93.0
30,8.0596288125,8.855228175,49.0,59.0
31,8.0596288125,8.8887103125,61.0,97.0
32,8.8249348125,9.199615875,68.0,107.0
33,9.0800368125,9.2219373,61.0,82.0
34,9.5902408125,10.26147795,61.0,97.0
35,9.5902408125,10.449615675,54.0,71.0
36,9.5902408125,10.5022304625,58.0,97.0
37,10.3555468125,10.647319725000001,61.0,74.0
38,10.3555468125,10.6871794125,66.0,93.0
39,9.5902408125,10.7015289,42.0,58.0
40,10.610648812500001,10.8545901,54.0,70.0
41,10.8657508125,10.978952325,61.0,35.0
42,11.1208528125,11.5832251875,65.0,93.0
43,11.1208528125,11.648595075,68.0,96.0
44,11.1208528125,11.718748125,61.0,99.0
45,11.1208528125,11.9308016625,56.0,96.0
46,11.1208528125,12.1827148875,49.0,95.0
47,12.1412608125,12.2209801875,56.0,97.0
48,11.8861588125,12.3963628125,68.0,127.0
49,12.3963628125,12.4410056625,61.0,83.0
50,12.6514648125,13.088727562499999,61.0,86.0
51,12.6514648125,13.1720608125,58.0,97.0
52,12.6514648125,13.750585874999999,42.0,93.0
53,13.4188554375,13.837124249999999,58.0,107.0
54,13.4188554375,13.8611626875,61.0,107.0
55,13.6752654375,13.8803934375,54.0,67.0
56,13.9316754375,14.035841999999999,61.0,34.0
57,13.9316754375,14.079111187499999,58.0,63.0
58,14.1880854375,14.816289937499999,58.0,99.0
59,14.1880854375,14.830713,65.0,89.0
60,14.1880854375,14.8323155625,61.0,92.0
61,14.1880854375,15.103148625,46.0,79.0
62,14.9573154375,15.2329561875,65.0,102.0
63,15.213725437499999,15.321097125,46.0,93.0
64,15.4701354375,15.529430249999999,58.0,100.0
65,15.726545437499999,16.394814,59.0,95.0
66,15.726545437499999,16.88840325,47.0,70.0
67,15.726545437499999,16.93968525,54.0,93.0
68,16.4957754375,16.99096725,66.0,100.0
69,16.4957754375,17.039044125,63.0,112.0
70,17.0085954375,17.117569687499998,59.0,54.0
71,17.2650054375,17.885197124999998,61.0,93.0
72,17.2650054375,17.88840225,58.0,99.0
73,17.2650054375,18.173658375,46.0,83.0
74,18.034235437499998,18.390004312499997,58.0,99.0
75,18.2906454375,18.42686325,46.0,78.0
76,18.5470554375,18.667247624999998,58.0,85.0
77,18.034235437499998,18.68327325,61.0,97.0
78,18.803465437499998,19.250580375,63.0,81.0
79,18.803465437499998,19.37558025,56.0,95.0
80,18.803465437499998,19.4124391875,59.0,81.0
81,18.803465437499998,19.630387687499997,44.0,99.0
82,19.5726954375,19.702503,59.0,86.0
83,19.5726954375,19.7425670625,63.0,89.0
84,19.829105437499997,19.9861565625,44.0,96.0
85,20.3419254375,20.737758375,68.0,90.0
86,20.3419254375,20.936476125,65.0,92.0
87,20.3419254375,20.93968125,61.0,95.0
88,20.3419254375,21.228142499999997,49.0,92.0
89,21.367565437499998,21.4989755625,49.0,78.0
90,21.1111554375,21.6079498125,68.0,92.0
91,21.1111554375,21.622372874999996,65.0,96.0
92,21.6239754375,21.7008984375,61.0,58.0
93,21.8803854375,22.4412823125,61.0,99.0
94,21.8803854375,22.462115625,58.0,127.0
95,22.3932054375,22.654423125,54.0,26.0
96,22.649615437499996,23.035832999999997,58.0,99.0
97,22.649615437499996,23.0598714375,61.0,100.0
98,21.8803854375,23.0694868125,42.0,85.0
99,22.9060254375,23.1624354375,54.0,63.0
100,23.1624354375,23.22173025,58.0,69.0
101,23.1624354375,23.276217374999998,61.0,53.0
102,23.418845437499996,24.474934124999997,58.0,100.0
103,23.418845437499996,24.5101905,61.0,112.0
104,23.418845437499996,24.612754499999998,42.0,96.0
105,24.4444854375,24.7265364375,54.0,55.0
106,24.700895437499998,24.784228687499997,58.0,55.0
107,24.700895437499998,24.817882499999996,61.0,42.0
108,24.957305437499997,27.412907174999997,69.0,88.0
109,24.957305437499997,27.463927574999996,65.0,97.0
110,24.957305437499997,27.570751537499998,61.0,97.0
111,24.957305437499997,27.596261737499997,49.0,90.0
112,28.020368812499996,28.701172274999998,61.0,66.0
113,28.020368812499996,28.753787062499995,58.0,72.0
114,28.785674812499998,28.841478374999998,61.0,95.0
115,28.530572812499997,28.9196033625,54.0,52.0
116,28.785674812499998,28.941924787499996,58.0,69.0
117,28.020368812499996,29.544603262499997,42.0,95.0
118,29.295878812499996,29.584462949999995,58.0,73.0
119,29.0407768125,29.586057337499998,54.0,43.0
120,28.785674812499998,29.630700187499997,66.0,102.0
121,29.550980812499997,30.753148987499998,42.0,73.0
122,30.061184812499995,30.871133662499997,54.0,42.0
123,30.571388812499997,30.963608137499996,61.0,39.0
124,30.826490812499998,30.998684662499997,58.0,76.0
125,30.316286812499996,31.0082509875,66.0,93.0
126,31.3366948125,31.565329874999996,63.0,42.0
127,31.0815928125,32.4857835,51.0,81.0
128,32.114030625,32.540978249999995,58.0,42.0
129,31.854290624999997,32.8883805,70.0,74.0
130,32.373770625,33.28610737499999,63.0,68.0
131,32.633510625,33.424094249999996,58.0,72.0
132,33.412730624999995,33.66922387499999,54.0,26.0
133,32.633510625,33.691951124999996,51.0,67.0
134,33.672470624999995,33.752016,58.0,78.0
135,33.412730624999995,34.065327374999995,70.0,97.0
136,33.412730624999995,34.08643125,66.0,102.0
137,33.932210624999996,34.12539225,63.0,66.0
138,34.191950625,35.419222125,44.0,72.0
139,34.971170625,35.695195874999996,63.0,82.0
140,34.971170625,35.713052999999995,59.0,72.0
141,34.971170625,35.743897125,68.0,82.0
142,35.750390624999994,36.597792375,49.0,70.0
143,36.529610625,37.128844125,65.0,89.0
144,36.529610625,37.253844,68.0,96.0
145,37.047113437499995,37.367625937499994,61.0,66.0
146,37.5599334375,38.109612375,54.0,68.0
147,37.816343437499995,38.1528815625,58.0,71.0
148,37.3035234375,38.409291562499995,42.0,85.0
149,38.3291634375,38.4221120625,54.0,75.0
150,38.0727534375,38.5535221875,61.0,96.0
151,38.8419834375,39.4461495,68.0,93.0
152,38.8419834375,39.495828937499994,65.0,93.0
153,38.8419834375,39.6881364375,56.0,85.0
154,38.8419834375,39.7169825625,61.0,81.0
155,38.8419834375,39.8580080625,53.0,71.0
156,38.8419834375,39.936533624999996,49.0,79.0
157,39.8676234375,39.968584875,56.0,75.0
158,40.124033437499996,40.4028793125,61.0,77.0
159,39.6112134375,40.4060844375,68.0,107.0
160,40.893263437499996,41.125634999999996,58.0,59.0
161,40.3804434375,41.81153175,42.0,86.0
162,40.636853437499994,41.8483906875,54.0,73.0
163,41.1496734375,42.277877437499995,61.0,99.0
164,41.6624934375,42.3900568125,58.0,58.0
165,41.1496734375,42.465377249999996,66.0,95.0
166,41.9189034375,42.8099281875,54.0,63.0
167,41.9189034375,42.987812625,42.0,68.0
168,42.944543437499995,43.091979187499994,54.0,68.0
169,42.6881334375,43.122427875,61.0,102.0
170,42.6881334375,43.140056062499994,66.0,83.0
171,43.2009534375,43.2330046875,58.0,75.0
172,43.4573634375,43.9958244375,70.0,92.0
173,43.4573634375,44.0358885,63.0,92.0
174,43.4573634375,44.039093625,66.0,93.0
175,43.4573634375,44.2426190625,58.0,68.0
176,43.4573634375,44.534285437499996,51.0,60.0
177,44.483003437499995,44.8419774375,58.0,64.0
178,44.7394134375,45.47819475,63.0,66.0
179,44.2265934375,45.571143375,70.0,89.0
180,44.2265934375,45.587168999999996,66.0,69.0
181,44.99582343749999,45.797104687499996,58.0,86.0
182,44.99582343749999,46.043899312499995,51.0,102.0
183,46.021463437499996,46.1015915625,58.0,77.0
184,45.7650534375,46.24742474999999,70.0,102.0
185,45.7650534375,46.26986062499999,66.0,112.0
186,46.2778734375,46.3099246875,63.0,66.0
187,46.534283437499994,47.130436687499994,59.0,78.0
188,46.534283437499994,47.13844949999999,63.0,72.0
189,46.534283437499994,47.6512695,44.0,81.0
190,47.5599234375,47.699346375,56.0,73.0
191,47.303513437499994,47.82434625,63.0,86.0
192,47.303513437499994,47.833961625,68.0,90.0
193,48.072743437499994,48.5823583125,65.0,86.0
194,48.072743437499994,48.676909499999994,61.0,86.0
195,48.072743437499994,48.6817171875,68.0,88.0
196,48.072743437499994,48.936524625,56.0,92.0
197,48.072743437499994,49.1496654375,49.0,61.0
198,49.0983834375,49.218575625,56.0,69.0
199,48.841973437499995,49.3291524375,65.0,90.0
200,48.841973437499995,49.346780624999994,68.0,75.0
201,49.35479343749999,49.462165125,61.0,58.0
202,49.611203437499995,50.1881259375,61.0,86.0
203,49.611203437499995,50.189728499999994,58.0,107.0
204,50.380433437499995,50.803509937499996,58.0,99.0
205,50.380433437499995,50.825945812499995,61.0,100.0
206,49.611203437499995,51.01184306249999,42.0,85.0
207,50.6368434375,51.01825331249999,54.0,81.0
208,50.89325343749999,51.0567148125,61.0,52.0
209,50.89325343749999,51.064727624999996,58.0,69.0
210,51.149663437499996,51.841450099999996,61.0,95.0
211,51.149663437499996,51.85100423749999,58.0,96.0
212,51.149663437499996,52.099411812499994,54.0,96.0
213,51.91629084375,52.274570999999995,58.0,77.0
214,51.91629084375,52.276163356249995,61.0,75.0
215,52.171067843749995,52.49750087499999,54.0,68.0
216,51.149663437499996,52.521386218749996,42.0,78.0
217,52.42584484375,52.70769189999999,58.0,95.0
218,52.68062184375,52.70769189999999,58.0,117.0
219,52.42584484375,52.728392531249995,61.0,99.0
220,52.68062184375,53.3669273875,65.0,93.0
221,52.68062184375,53.373296812499994,62.0,97.0
222,53.19017584375,53.464061118749996,53.0,36.0
223,53.444952843749995,53.709283981249996,65.0,69.0
224,53.444952843749995,53.71565340625,62.0,85.0
225,52.68062184375,53.9783921875,46.0,96.0
226,53.444952843749995,53.99909281874999,58.0,107.0
227,53.69972984375,54.0102393125,53.0,55.0
228,53.19017584375,54.038901724999995,50.0,33.0
229,53.954506843749996,54.15514373124999,56.0,52.0
230,54.20928384374999,54.55004808125,62.0,70.0
231,54.20928384374999,54.56597164375,65.0,70.0
232,54.20928384374999,54.81119450625,58.0,92.0
233,54.20928384374999,54.823933356249995,56.0,90.0
234,54.20928384374999,54.9497295,53.0,65.0
235,54.97361484375,55.050047943749995,56.0,79.0
236,54.97361484375,55.1439969625,65.0,76.0
237,54.97361484375,55.18539822499999,58.0,92.0
238,54.20928384374999,55.1949523625,46.0,72.0
239,54.97361484375,55.20132178749999,62.0,72.0
240,55.228391843749996,55.32552557499999,53.0,61.0
241,55.73794584375,56.16310496249999,66.0,122.0
242,55.73794584375,56.3350794375,63.0,100.0
243,55.73794584375,56.341448862499995,70.0,97.0
244,55.73794584375,56.515015693749994,58.0,86.0
245,55.73794584375,56.618518849999994,51.0,41.0
246,56.502276843749996,56.672658962499995,54.0,20.0
247,56.502276843749996,56.798455106249996,66.0,117.0
248,56.502276843749996,56.87170349375,63.0,89.0
249,56.502276843749996,56.886034699999996,73.0,93.0
250,56.75705384374999,56.89081176875,58.0,92.0
251,56.502276843749996,56.92584360625,70.0,99.0
252,57.01183084375,57.110556931249995,73.0,43.0
253,57.01183084375,57.11692635625,63.0,81.0
254,57.01183084375,57.12170342499999,66.0,66.0
255,57.01183084375,57.1312575625,70.0,43.0
256,57.266607843749995,57.300047324999994,51.0,32.0
257,57.266607843749995,57.438582318749994,66.0,117.0
258,57.266607843749995,57.601002656249996,73.0,89.0
259,57.266607843749995,57.64240391875,63.0,97.0
260,57.266607843749995,57.78412362499999,70.0,100.0
261,57.266607843749995,58.016607637499995,58.0,96.0
262,57.52138484375,58.191766824999995,51.0,12.0
263,57.776161843749996,58.22202159374999,54.0,30.0
264,58.28571584375,58.37807250624999,58.0,97.0
265,58.03093884374999,58.395588425,73.0,107.0
266,58.03093884374999,58.46565209999999,66.0,127.0
267,58.03093884374999,58.470429168749995,70.0,122.0
268,58.540492843749995,58.56915525625,63.0,68.0
269,58.79526984374999,59.3828493,65.0,78.0
270,58.79526984374999,59.38921872499999,62.0,89.0
271,58.79526984374999,59.39240343749999,58.0,112.0
272,58.79526984374999,59.593040325,53.0,68.0
273,58.79526984374999,59.66947342499999,50.0,75.0
274,58.79526984374999,59.709282331249995,46.0,69.0
275,59.55960084375,59.951320481249994,58.0,107.0
276,59.55960084375,60.0293459375,65.0,86.0
277,59.814377843749995,60.0357153625,50.0,56.0
278,59.814377843749995,60.059600706249995,53.0,66.0
279,60.06915484375,60.20928219375,58.0,82.0
280,59.55960084375,60.236352249999996,62.0,96.0
281,60.323931843749996,60.9210654375,65.0,86.0
282,60.323931843749996,60.92743486249999,58.0,107.0
283,60.323931843749996,60.935396643749996,62.0,95.0
284,60.323931843749996,61.13284881874999,53.0,75.0
285,61.088262843749995,61.277753237499994,58.0,112.0
286,61.088262843749995,61.30641565,62.0,100.0
287,60.323931843749996,61.32074685625,46.0,71.0
288,61.088262843749995,61.32711628125,65.0,90.0
289,61.34303984374999,61.44972771249999,53.0,76.0
290,61.85259384374999,62.1949504375,51.0,100.0
291,61.85259384374999,62.23475934375,70.0,97.0
292,61.85259384374999,62.241128768749995,66.0,112.0
293,61.85259384374999,62.40354910625,63.0,100.0
294,62.61692484375,62.91628781874999,65.0,112.0
295,62.61692484375,62.957689081249995,68.0,112.0
296,62.61692484375,63.027752756249996,61.0,107.0
297,62.61692484375,63.17743424375,49.0,96.0
298,63.38125584375,64.06437667499999,60.0,95.0
299,63.38125584375,64.07233845625,66.0,100.0
300,63.38125584375,64.1121473625,63.0,107.0
301,63.38125584375,64.28571419375,48.0,72.0
302,64.40036384375,64.52138291874999,48.0,73.0
303,64.14558684375,64.72838923124999,63.0,95.0
304,64.14558684375,64.72838923124999,66.0,102.0
305,64.65514084374999,64.76023635624999,60.0,70.0
306,64.90991784375,65.52941568749999,59.0,96.0
307,64.90991784375,65.5390310625,66.0,92.0
308,64.90991784375,65.55826181249999,63.0,95.0
309,64.90991784375,65.70569756249999,54.0,82.0
310,64.90991784375,65.9236460625,47.0,63.0
311,65.9332614375,66.06947925,54.0,85.0
312,65.6768514375,66.13999199999999,63.0,97.0
313,65.6768514375,66.2056970625,66.0,107.0
314,66.1896714375,66.2553765,59.0,54.0
315,66.4460814375,66.8114656875,65.0,77.0
316,66.4460814375,66.8435169375,68.0,83.0
317,66.4460814375,67.0358244375,61.0,89.0
318,66.4460814375,67.2537729375,56.0,92.0
319,66.4460814375,67.534221375,49.0,82.0
320,67.4717214375,67.572682875,56.0,95.0
321,67.21531143749999,67.69768275,68.0,122.0
322,67.21531143749999,67.70890068749999,65.0,122.0
323,67.7281314375,67.7537724375,61.0,63.0
324,67.9845414375,68.566271625,58.0,127.0
325,67.9845414375,68.572681875,61.0,122.0
326,67.9845414375,68.82588675,46.0,93.0
327,68.75377143749999,69.11434799999999,58.0,127.0
328,68.75377143749999,69.2505658125,65.0,97.0
329,69.0101814375,69.3146683125,46.0,93.0
330,68.75377143749999,69.3403093125,61.0,112.0
331,69.2665914375,69.341911875,58.0,99.0
332,69.5230014375,70.0486419375,70.0,93.0
333,69.5230014375,70.0758855,63.0,102.0
334,69.5230014375,70.0758855,66.0,112.0
335,69.5230014375,70.27780837499999,58.0,92.0
336,69.5230014375,70.46691075,51.0,48.0
337,70.5486414375,70.64639774999999,58.0,92.0
338,70.29223143749999,70.832295,70.0,117.0
339,70.29223143749999,70.8435129375,66.0,127.0
340,70.8050514375,70.886782125,63.0,93.0
341,71.0614614375,71.643191625,66.0,99.0
342,71.0614614375,71.6656275,59.0,97.0
343,71.0614614375,71.681653125,63.0,122.0
344,71.0614614375,71.957293875,47.0,72.0
345,72.0871014375,72.2249218125,47.0,69.0
346,71.8306914375,72.3659473125,66.0,107.0
347,71.8306914375,72.40280625,63.0,117.0
348,72.3435114375,72.4588959375,59.0,83.0
349,72.5999214375,73.1768439375,66.0,112.0
350,72.5999214375,73.19767725,60.0,92.0
351,72.5999214375,73.1992798125,63.0,112.0
352,72.5999214375,73.5069718125,48.0,75.0
353,73.3691514375,73.6912665,63.0,127.0
354,73.6255614375,73.72331774999999,48.0,69.0
355,73.3691514375,73.72331774999999,66.0,112.0
356,74.1383814375,74.473317,65.0,102.0
357,74.1383814375,74.6159450625,68.0,112.0
358,74.1383814375,74.7665859375,61.0,107.0
359,74.1383814375,74.9492780625,56.0,100.0
360,74.9076114375,75.1704316875,53.0,25.0
361,74.1383814375,75.1784445,49.0,86.0
362,75.1640214375,75.24094443749999,56.0,93.0
363,74.9076114375,75.348316125,65.0,112.0
364,74.9076114375,75.3787648125,68.0,117.0
365,75.4204314375,75.56466206249999,61.0,96.0
366,75.6768414375,77.1447886875,65.0,99.0
367,75.6768414375,77.1528015,61.0,112.0
368,75.6768414375,77.156006625,49.0,76.0
369,75.6768414375,77.16241687499999,37.0,97.0
370,75.6768414375,77.1864553125,68.0,117.0
371,77.2153014375,77.89959562499999,61.0,66.0
372,77.2153014375,77.9524801875,58.0,72.0
373,77.9845314375,78.040621125,61.0,95.0
374,77.7281214375,78.11914668749999,54.0,52.0
375,77.9845314375,78.14158256249999,58.0,69.0
376,77.2153014375,78.7473511875,42.0,95.0
377,78.4973514375,78.78741525,58.0,73.0
378,78.2409414375,78.78901781249999,54.0,43.0
379,77.9845314375,78.83388956249999,66.0,102.0
380,78.7537614375,79.9620935625,42.0,73.0
381,79.2665814375,80.0806831875,54.0,42.0
382,79.7794014375,80.17363181249999,61.0,39.0
383,80.0358114375,80.2088881875,58.0,76.0
384,79.5229914375,80.21850356249999,66.0,93.0
385,80.54863143749999,80.7761953125,63.0,42.0
386,80.29222143749999,81.68484824999999,51.0,81.0
387,81.3178614375,81.739335375,58.0,42.0
388,81.0614514375,82.08228374999999,70.0,74.0
389,81.57427143749999,82.4749115625,63.0,68.0
390,81.8306814375,82.61112937499999,58.0,72.0
391,82.5999114375,82.85311631249999,54.0,26.0
392,81.8306814375,82.87555218749999,51.0,67.0
393,82.8563214375,82.93484699999999,58.0,78.0
394,82.5999114375,83.2441415625,70.0,97.0
395,82.5999114375,83.264974875,66.0,102.0
396,83.1127314375,83.30343637499999,63.0,66.0
397,83.36914143749999,84.5806786875,44.0,72.0
398,84.1383714375,84.8531143125,63.0,82.0
399,84.1383714375,84.87074249999999,59.0,72.0
400,84.1383714375,84.90119118749999,68.0,82.0
401,84.90760143749999,85.7441390625,49.0,70.0
402,85.6768314375,86.271382125,65.0,89.0
403,85.6768314375,86.39638199999999,68.0,96.0
404,86.1896514375,86.5101639375,61.0,66.0
405,86.7024714375,87.252150375,54.0,68.0
406,86.9588814375,87.2954195625,58.0,71.0
407,86.44606143749999,87.55182956249999,42.0,85.0
408,87.4717014375,87.5646500625,54.0,75.0
409,87.2152914375,87.6960601875,61.0,96.0
410,87.98452143749999,88.58868749999999,68.0,93.0
411,87.98452143749999,88.6383669375,65.0,93.0
412,87.98452143749999,88.8306744375,56.0,85.0
413,87.98452143749999,88.8595205625,61.0,81.0
414,87.98452143749999,89.00054606249999,53.0,71.0
415,87.98452143749999,89.079071625,49.0,79.0
416,89.01016143749999,89.11112287499999,56.0,75.0
417,89.26657143749999,89.54541731249999,61.0,77.0
418,88.7537514375,89.5486224375,68.0,107.0
419,90.0358014375,90.26817299999999,58.0,59.0
420,89.5229814375,90.95406975,42.0,86.0
421,89.7793914375,90.9909286875,54.0,73.0
422,90.2922114375,91.4204154375,61.0,99.0
423,90.80503143749999,91.5325948125,58.0,58.0
424,90.2922114375,91.60791524999999,66.0,95.0
425,91.0614414375,91.9524661875,54.0,63.0
426,91.0614414375,92.13035062499999,42.0,68.0
427,92.08708143749999,92.23451718749999,54.0,68.0
428,91.8306714375,92.264965875,61.0,102.0
429,91.8306714375,92.2825940625,66.0,83.0
430,92.34349143749999,92.3755426875,58.0,75.0
431,92.5999014375,93.13836243749999,70.0,92.0
432,92.5999014375,93.1784265,63.0,92.0
433,92.5999014375,93.181631625,66.0,93.0
434,92.5999014375,93.3851570625,58.0,68.0
435,92.5999014375,93.67682343749999,51.0,60.0
436,93.62554143749999,93.9845154375,58.0,64.0
437,93.88195143749999,94.62073275,63.0,66.0
438,93.36913143749999,94.713681375,70.0,89.0
439,93.36913143749999,94.72970699999999,66.0,69.0
440,94.1383614375,94.9396426875,58.0,86.0
441,94.1383614375,95.18643731249999,51.0,102.0
442,95.16400143749999,95.24412956249999,58.0,77.0
443,94.9075914375,95.38996275,70.0,102.0
444,94.9075914375,95.412398625,66.0,112.0
445,95.4204114375,95.4524626875,63.0,66.0
446,95.6768214375,96.2729746875,59.0,78.0
447,95.6768214375,96.2809875,63.0,72.0
448,95.6768214375,96.7938075,44.0,81.0
449,96.70246143749999,96.84188437499999,56.0,73.0
450,96.44605143749999,96.96688424999999,63.0,86.0
451,96.44605143749999,96.976499625,68.0,90.0
452,97.2152814375,97.7248963125,65.0,86.0
453,97.2152814375,97.8194475,61.0,86.0
454,97.2152814375,97.8242551875,68.0,88.0
455,97.2152814375,98.07906262499999,56.0,92.0
456,97.2152814375,98.29220343749999,49.0,61.0
457,98.24092143749999,98.361113625,56.0,69.0
458,97.9845114375,98.4716904375,65.0,90.0
459,97.9845114375,98.489318625,68.0,75.0
460,98.4973314375,98.60470312499999,61.0,58.0
461,98.7537414375,99.33066393749999,61.0,86.0
462,98.7537414375,99.3322665,58.0,107.0
463,99.52297143749999,99.9460479375,58.0,99.0
464,99.52297143749999,99.9684838125,61.0,100.0
465,98.7537414375,100.1543810625,42.0,85.0
466,99.77938143749999,100.1607913125,54.0,81.0
467,100.0357914375,100.19925281249999,61.0,52.0
468,100.0357914375,100.20726562499999,58.0,69.0
469,100.2922014375,100.986111,61.0,95.0
470,100.2922014375,100.995726375,58.0,96.0
471,100.2922014375,101.245726125,54.0,96.0
472,101.06143143749999,101.42200799999999,58.0,77.0
473,101.06143143749999,101.42361056249999,61.0,75.0
474,101.3178414375,101.64636675,54.0,68.0
475,100.2922014375,101.6704051875,42.0,78.0
476,101.5742514375,101.8306614375,58.0,95.0
477,101.5742514375,101.8306614375,61.0,99.0
478,101.8306614375,102.54380175,58.0,76.0
479,101.8306614375,102.73931437499999,42.0,75.0
480,101.8306614375,102.90277574999999,61.0,76.0
481,102.59989143749999,102.96367312499999,66.0,72.0
482,103.36912143749998,104.05822331249999,58.0,90.0
483,103.36912143749998,104.08706943749999,61.0,83.0
484,104.13835143749999,104.2809795,58.0,97.0
485,104.13835143749999,104.29540256249999,61.0,95.0
486,103.36912143749998,104.3066205,46.0,85.0
487,104.13835143749999,104.3066205,65.0,85.0
488,104.9075814375,105.51495262499999,59.0,93.0
489,104.9075814375,105.52456799999999,66.0,96.0
490,104.9075814375,105.54540131249999,63.0,93.0
491,104.9075814375,105.752131875,54.0,75.0
492,104.9075814375,105.9075804375,47.0,44.0
493,105.67681143749999,106.00854187499999,66.0,93.0
494,105.67681143749999,106.0421956875,63.0,97.0
495,105.9332214375,106.239310875,59.0,73.0
496,106.44604143749999,107.26174574999999,61.0,86.0
497,106.44604143749999,107.2633483125,58.0,100.0
498,106.44604143749999,107.6703991875,46.0,74.0
499,107.2152714375,107.78738625,65.0,96.0
500,107.72809143749998,107.8819374375,58.0,77.0
501,107.4716814375,107.93001431249999,61.0,78.0
502,107.9845014375,109.037385,44.0,92.0
503,108.7537314375,109.06462856249999,63.0,92.0
504,108.7537314375,109.06943625,59.0,88.0
505,108.7537314375,109.07584649999998,56.0,40.0
506,109.52296143749999,110.15757618749998,68.0,97.0
507,109.52296143749999,110.2216786875,65.0,93.0
508,109.52296143749999,110.32264012499999,49.0,59.0
509,109.52296143749999,110.3562939375,61.0,97.0
510,110.2921914375,110.66879362499999,68.0,107.0
511,110.5486014375,110.69122949999999,61.0,82.0
512,111.0614214375,111.73610024999999,61.0,97.0
513,111.0614214375,111.925202625,54.0,71.0
514,111.0614214375,111.9780871875,58.0,97.0
515,111.8306514375,112.12392037499998,61.0,74.0
516,111.8306514375,112.16398443749999,66.0,93.0
517,111.0614214375,112.17840749999999,42.0,58.0
518,112.08706143749998,112.3322535,54.0,70.0
519,112.3434714375,112.457253375,61.0,35.0
520,112.59988143749999,113.0646245625,65.0,93.0
521,112.59988143749999,113.130329625,68.0,96.0
522,112.59988143749999,113.200842375,61.0,99.0
523,112.59988143749999,113.4139831875,56.0,96.0
524,112.59988143749999,113.6671880625,49.0,95.0
525,113.6255214375,113.70564956249999,56.0,97.0
526,113.3691114375,113.88193143749999,68.0,127.0
527,113.88193143749999,113.92680318749998,61.0,83.0
528,114.1383414375,114.5774435625,61.0,86.0
529,114.1383414375,114.66077681249999,58.0,97.0
530,114.1383414375,115.239301875,42.0,93.0
531,114.9075714375,115.32584025,58.0,107.0
532,114.9075714375,115.3498786875,61.0,107.0
533,115.16398143749998,115.36910943749999,54.0,67.0
534,115.4203914375,115.52455799999998,61.0,34.0
535,115.4203914375,115.5678271875,58.0,63.0
536,115.67680143749999,116.3050059375,58.0,99.0
537,115.67680143749999,116.31942899999999,65.0,89.0
538,115.67680143749999,116.3210315625,61.0,92.0
539,115.67680143749999,116.591864625,46.0,79.0
540,116.44603143749998,116.72167218749999,65.0,102.0
541,116.7024414375,116.80981312499999,46.0,93.0
542,116.95885143749999,117.01814625,58.0,100.0
543,117.21526143749999,117.88353,59.0,95.0
544,117.21526143749999,118.37711924999999,47.0,70.0
545,117.21526143749999,118.42840125,54.0,93.0
546,117.9844914375,118.47968325,66.0,100.0
547,117.9844914375,118.52776012499999,63.0,112.0
548,118.4973114375,118.60628568749999,59.0,54.0
549,118.75372143749999,119.373913125,61.0,93.0
550,118.75372143749999,119.37711825,58.0,99.0
551,118.75372143749999,119.66237437499998,46.0,83.0
552,119.52295143749998,119.8787203125,58.0,99.0
553,119.7793614375,119.91557925,46.0,78.0
554,120.03577143749999,120.155963625,58.0,85.0
555,119.52295143749998,120.17198925,61.0,97.0
556,120.29218143749999,120.739296375,63.0,81.0
557,120.29218143749999,120.86429625,56.0,95.0
558,120.29218143749999,120.9011551875,59.0,81.0
559,120.29218143749999,121.1191036875,44.0,99.0
560,121.0614114375,121.19121899999999,59.0,86.0
561,121.0614114375,121.23128306249998,63.0,89.0
562,121.31782143749999,121.4748725625,44.0,96.0
563,121.83064143749999,122.226474375,68.0,90.0
564,121.83064143749999,122.425192125,65.0,92.0
565,121.83064143749999,122.42839724999999,61.0,95.0
566,121.83064143749999,122.7168585,49.0,92.0
567,122.8562814375,122.98769156249999,49.0,78.0
568,122.59987143749998,123.09666581249999,68.0,92.0
569,122.59987143749998,123.111088875,65.0,96.0
570,123.11269143749999,123.18961443749998,61.0,58.0
571,123.36910143749999,123.970062375,58.0,99.0
572,123.36910143749999,123.970062375,61.0,100.0
573,124.1383314375,124.752112875,61.0,102.0
574,124.1383314375,124.76172824999999,66.0,99.0
575,123.36910143749999,124.764933375,42.0,86.0
576,124.39474143749999,124.764933375,54.0,35.0
577,124.65115143749999,124.7857666875,58.0,66.0
578,124.9075614375,124.98448443749999,61.0,61.0
579,124.9075614375,124.995702375,58.0,83.0
580,124.9075614375,124.995702375,66.0,64.0
581,124.9075614375,125.002112625,42.0,69.0
582,124.9075614375,125.01172799999999,54.0,68.0
583,125.16397143749998,125.23608675,61.0,63.0
584,125.16397143749998,125.24890725,66.0,57.0
585,125.16397143749998,125.2569200625,54.0,85.0
586,125.16397143749998,125.264932875,58.0,86.0
587,125.16397143749998,125.2809585,42.0,67.0
588,125.4203814375,125.47967624999998,61.0,76.0
589,125.4203814375,125.49730443749999,66.0,65.0
590,125.4203814375,125.5037146875,54.0,77.0
591,125.4203814375,125.5101249375,58.0,85.0
592,125.4203814375,125.53736849999999,42.0,52.0
593,125.67679143749999,125.71365037499999,66.0,34.0
594,125.67679143749999,125.74570162499998,42.0,73.0
595,125.67679143749999,125.74570162499998,54.0,97.0
596,125.67679143749999,125.764932375,58.0,107.0
597,125.93320143749999,126.06140643749998,41.0,48.0
598,125.93320143749999,126.13993199999999,54.0,117.0
599,126.18961143749999,126.38832918749999,56.0,122.0
600,126.18961143749999,126.39634199999999,44.0,107.0
601,126.4460214375,127.136725875,65.0,93.0
602,126.4460214375,127.14313612499998,62.0,97.0
603,126.4460214375,127.15114893749998,58.0,117.0
604,126.95884143749998,127.23448218749999,53.0,36.0
605,127.2152514375,127.4812768125,65.0,69.0
606,127.2152514375,127.48768706249999,62.0,85.0
607,126.4460214375,127.75210987499999,46.0,96.0
608,127.2152514375,127.77294318749999,58.0,107.0
609,127.47166143749999,127.784161125,53.0,55.0
610,126.95884143749998,127.81300725,50.0,33.0
611,127.72807143749999,127.92999431249999,56.0,52.0
612,127.9844814375,128.3274298125,62.0,70.0
613,127.9844814375,128.34345543749998,65.0,70.0
614,127.9844814375,128.5902500625,58.0,92.0
615,127.9844814375,128.6030705625,56.0,90.0
616,127.9844814375,128.729673,53.0,65.0
617,128.7537114375,128.83063443749998,56.0,79.0
618,128.7537114375,128.92518562499998,65.0,76.0
619,128.7537114375,128.96685225,58.0,92.0
620,127.9844814375,128.976467625,46.0,72.0
621,128.7537114375,128.98287787499999,62.0,72.0
622,129.0101214375,129.10787775,53.0,61.0
623,129.52294143749998,129.950825625,66.0,122.0
624,129.52294143749998,130.123902375,63.0,100.0
625,129.52294143749998,130.130312625,70.0,97.0
626,129.52294143749998,130.3049919375,58.0,86.0
627,129.52294143749998,130.4091585,51.0,41.0
628,130.29217143749997,130.46364562499997,54.0,20.0
629,130.29217143749997,130.5902480625,66.0,117.0
630,130.29217143749997,130.6639659375,63.0,89.0
631,130.29217143749997,130.67838899999998,73.0,93.0
632,130.5485814375,130.6831966875,58.0,92.0
633,130.29217143749997,130.71845306249998,70.0,99.0
634,130.8049914375,130.9043503125,73.0,43.0
635,130.8049914375,130.9107605625,63.0,81.0
636,130.8049914375,130.91556824999998,66.0,66.0
637,130.8049914375,130.925183625,70.0,43.0
638,131.0614014375,131.09505524999997,51.0,32.0
639,131.0614014375,131.23447818749997,66.0,117.0
640,131.0614014375,131.39793956249997,73.0,89.0
641,131.0614014375,131.43960618749998,63.0,97.0
642,131.0614014375,131.58223425,70.0,100.0
643,131.0614014375,131.81620837499997,58.0,96.0
644,131.31781143749998,131.99249025,51.0,12.0
645,131.5742214375,132.0229389375,54.0,30.0
646,132.08704143749998,132.1799900625,58.0,97.0
647,131.8306314375,132.19761825,73.0,107.0
648,131.8306314375,132.26813099999998,66.0,127.0
649,131.8306314375,132.2729386875,70.0,122.0
650,132.3434514375,132.3722975625,63.0,68.0
651,132.5998614375,133.191207,65.0,78.0
652,132.5998614375,133.19761725,62.0,89.0
653,132.5998614375,133.20082237499997,58.0,112.0
654,132.5998614375,133.40274525,53.0,68.0
655,132.5998614375,133.47966824999997,50.0,75.0
656,132.5998614375,133.5197323125,46.0,69.0
657,133.3690914375,133.7633218125,58.0,107.0
658,133.3690914375,133.841847375,65.0,86.0
659,133.6255014375,133.84825762499997,50.0,56.0
660,133.6255014375,133.87229606249997,53.0,66.0
661,133.88191143749998,134.0229369375,58.0,82.0
662,133.3690914375,134.0501805,62.0,96.0
663,134.1383214375,134.739282375,65.0,86.0
664,134.1383214375,134.745692625,58.0,107.0
665,134.1383214375,134.7537054375,62.0,95.0
666,134.1383214375,134.9524231875,53.0,75.0
667,134.9075514375,135.098256375,58.0,112.0
668,134.9075514375,135.12710249999998,62.0,100.0
669,134.1383214375,135.1415255625,46.0,71.0
670,134.9075514375,135.1479358125,65.0,90.0
671,135.1639614375,135.27133312499998,53.0,76.0
672,135.67678143749998,136.021332375,51.0,100.0
673,135.67678143749998,136.06139643749998,70.0,97.0
674,135.67678143749998,136.0678066875,66.0,112.0
675,135.67678143749998,136.2312680625,63.0,100.0
676,136.44601143749998,136.7472931875,65.0,112.0
677,136.44601143749998,136.7889598125,68.0,112.0
678,136.44601143749998,136.8594725625,61.0,107.0
679,136.44601143749998,137.0101134375,49.0,96.0
680,137.21524143749997,137.90274075,60.0,95.0
681,137.21524143749997,137.9107535625,66.0,100.0
682,137.21524143749997,137.95081762499998,63.0,107.0
683,137.21524143749997,138.12549693749997,48.0,72.0
684,138.24088143749998,138.36267618749997,48.0,73.0
685,137.9844714375,138.5710093125,63.0,95.0
686,137.9844714375,138.5710093125,66.0,102.0
687,138.4972914375,138.6030605625,60.0,70.0
688,138.75370143749998,139.3754956875,59.0,96.0
689,138.75370143749998,139.3851110625,66.0,92.0
690,138.75370143749998,139.40434181249998,63.0,95.0
691,138.75370143749998,139.55177756249998,54.0,82.0
692,138.75370143749998,139.76972606249998,47.0,63.0
693,139.7793414375,139.91555925,54.0,85.0
694,139.5229314375,139.98607199999998,63.0,97.0
695,139.5229314375,140.05177706249998,66.0,107.0
696,140.03575143749998,140.10145649999998,59.0,54.0
697,140.2921614375,140.65754568749998,65.0,77.0
698,140.2921614375,140.68959693749997,68.0,83.0
699,140.2921614375,140.8819044375,61.0,89.0
700,140.2921614375,141.09985293749997,56.0,92.0
701,140.2921614375,141.380301375,49.0,82.0
702,141.3178014375,141.41876287499997,56.0,95.0
703,141.0613914375,141.54376274999998,68.0,122.0
704,141.0613914375,141.5549806875,65.0,122.0
705,141.57421143749997,141.59985243749998,61.0,63.0
706,141.83062143749999,142.41235162499999,58.0,127.0
707,141.83062143749999,142.41876187499997,61.0,122.0
708,141.83062143749999,142.67196675,46.0,93.0
709,142.59985143749998,142.96042799999998,58.0,127.0
710,142.59985143749998,143.0966458125,65.0,97.0
711,142.8562614375,143.1607483125,46.0,93.0
712,142.59985143749998,143.18638931249998,61.0,112.0
713,143.11267143749998,143.187991875,58.0,99.0
714,143.36908143749997,143.89472193749998,70.0,93.0
715,143.36908143749997,143.9219655,63.0,102.0
716,143.36908143749997,143.9219655,66.0,112.0
717,143.36908143749997,144.12388837499998,58.0,92.0
718,143.36908143749997,144.31299074999998,51.0,48.0
719,144.39472143749998,144.49247774999998,58.0,92.0
720,144.1383114375,144.678375,70.0,117.0
721,144.1383114375,144.68959293749998,66.0,127.0
722,144.6511314375,144.732862125,63.0,93.0
723,144.9075414375,145.489271625,66.0,99.0
724,144.9075414375,145.5117075,59.0,97.0
725,144.9075414375,145.527733125,63.0,122.0
726,144.9075414375,145.80337387499998,47.0,72.0
727,145.93318143749997,146.0710018125,47.0,69.0
728,145.6767714375,146.21202731249997,66.0,107.0
729,145.6767714375,146.24888625,63.0,117.0
730,146.18959143749998,146.3049759375,59.0,83.0
731,146.4460014375,147.02292393749997,66.0,112.0
732,146.4460014375,147.04375725,60.0,92.0
733,146.4460014375,147.0453598125,63.0,112.0
734,146.4460014375,147.35305181249998,48.0,75.0
735,147.2152314375,147.53734649999998,63.0,127.0
736,147.47164143749998,147.56939775,48.0,69.0
737,147.2152314375,147.56939775,66.0,112.0
738,147.9844614375,148.31939699999998,65.0,102.0
739,147.9844614375,148.4620250625,68.0,112.0
740,147.9844614375,148.61266593749997,61.0,107.0
741,147.9844614375,148.7953580625,56.0,100.0
742,148.75369143749998,149.01651168749999,53.0,25.0
743,147.9844614375,149.02452449999998,49.0,86.0
744,149.0101014375,149.0870244375,56.0,93.0
745,148.75369143749998,149.19439612499997,65.0,112.0
746,148.75369143749998,149.2248448125,68.0,117.0
747,149.2665114375,149.4107420625,61.0,96.0
748,149.52292143749997,150.99086868749998,65.0,99.0
749,149.52292143749997,150.99888149999998,61.0,112.0
750,149.52292143749997,151.002086625,49.0,76.0
751,149.52292143749997,151.008496875,37.0,97.0
752,149.52292143749997,151.0325353125,68.0,117.0
753,151.0613814375,151.745675625,61.0,66.0
754,151.0613814375,151.7985601875,58.0,72.0
755,151.83061143749998,151.886701125,61.0,95.0
756,151.5742014375,151.96522668749998,54.0,52.0
757,151.83061143749998,151.9876625625,58.0,69.0
758,151.0613814375,152.5934311875,42.0,95.0
759,152.3434314375,152.63349524999998,58.0,73.0
760,152.08702143749997,152.6350978125,54.0,43.0
761,151.83061143749998,152.6799695625,66.0,102.0
762,152.5998414375,153.80817356249997,42.0,73.0
763,153.11266143749998,153.9267631875,54.0,42.0
764,153.62548143749999,154.0197118125,61.0,39.0
765,153.88189143749997,154.05496818749998,58.0,76.0
766,153.3690714375,154.0645835625,66.0,93.0
767,154.3947114375,154.6222753125,63.0,42.0
768,154.1383014375,155.53092825,51.0,81.0
769,155.1639414375,155.58541537499997,58.0,42.0
770,154.90753143749998,155.92836375,70.0,74.0
771,155.4203514375,156.32099156249998,63.0,68.0
772,155.67676143749998,156.457209375,58.0,72.0
773,156.44599143749997,156.6991963125,54.0,26.0
774,155.67676143749998,156.7216321875,51.0,67.0
775,156.7024014375,156.780927,58.0,78.0
776,156.44599143749997,157.0902215625,70.0,97.0
777,156.44599143749997,157.11105487499998,66.0,102.0
778,156.9588114375,157.149516375,63.0,66.0
779,157.2152214375,158.42675868749998,44.0,72.0
780,157.98445143749998,158.69919431249997,63.0,82.0
781,157.98445143749998,158.71682249999998,59.0,72.0
782,157.98445143749998,158.7472711875,68.0,82.0
783,158.7536814375,159.59021906249998,49.0,70.0
784,159.5229114375,160.11746212499997,65.0,89.0
785,159.5229114375,160.242462,68.0,96.0
786,160.03573143749998,160.35624393749998,61.0,66.0
787,160.54855143749998,161.09823037499999,54.0,68.0
788,160.80496143749997,161.14149956249997,58.0,71.0
789,160.2921414375,161.3979095625,42.0,85.0
790,161.3177814375,161.4107300625,54.0,75.0
791,161.0613714375,161.54214018749997,61.0,96.0
792,161.83060143749998,162.4347675,68.0,93.0
793,161.83060143749998,162.48444693749997,65.0,93.0
794,161.83060143749998,162.6767544375,56.0,85.0
795,161.83060143749998,162.70560056249997,61.0,81.0
796,161.83060143749998,162.84662606249998,53.0,71.0
797,161.83060143749998,162.92515162499998,49.0,79.0
798,162.8562414375,162.957202875,56.0,75.0
799,163.1126514375,163.3914973125,61.0,77.0
800,162.59983143749997,163.39470243749997,68.0,107.0
801,163.8818814375,164.114253,58.0,59.0
802,163.3690614375,164.80014975,42.0,86.0
803,163.62547143749998,164.83700868749997,54.0,73.0
804,164.1382914375,165.2664954375,61.0,99.0
805,164.6511114375,165.37867481249998,58.0,58.0
806,164.1382914375,165.45399525,66.0,95.0
807,164.90752143749998,165.7985461875,54.0,63.0
808,164.90752143749998,165.97643062499998,42.0,68.0
809,165.9331614375,166.0805971875,54.0,68.0
810,165.6767514375,166.111045875,61.0,102.0
811,165.6767514375,166.12867406249998,66.0,83.0
812,166.18957143749998,166.22162268749997,58.0,75.0
813,166.4459814375,166.98444243749998,70.0,92.0
814,166.4459814375,167.02450649999997,63.0,92.0
815,166.4459814375,167.027711625,66.0,93.0
816,166.4459814375,167.23123706249999,58.0,68.0
817,166.4459814375,167.5229034375,51.0,60.0
818,167.4716214375,167.8305954375,58.0,64.0
819,167.7280314375,168.46681274999997,63.0,66.0
820,167.2152114375,168.559761375,70.0,89.0
821,167.2152114375,168.575787,66.0,69.0
822,167.98444143749998,168.78572268749997,58.0,86.0
823,167.98444143749998,169.03251731249998,51.0,102.0
824,169.0100814375,169.09020956249998,58.0,77.0
825,168.75367143749997,169.23604274999997,70.0,102.0
826,168.75367143749997,169.25847862499998,66.0,112.0
827,169.26649143749998,169.2985426875,63.0,66.0
828,169.52290143749997,170.11905468749998,59.0,78.0
829,169.52290143749997,170.12706749999998,63.0,72.0
830,169.52290143749997,170.6398875,44.0,81.0
831,170.54854143749998,170.68796437499998,56.0,73.0
832,170.2921314375,170.81296425,63.0,86.0
833,170.2921314375,170.822579625,68.0,90.0
834,171.06136143749998,171.57097631249997,65.0,86.0
835,171.06136143749998,171.6655275,61.0,86.0
836,171.06136143749998,171.67033518749997,68.0,88.0
837,171.06136143749998,171.92514262499998,56.0,92.0
838,171.06136143749998,172.13828343749998,49.0,61.0
839,172.0870014375,172.207193625,56.0,69.0
840,171.8305914375,172.31777043749997,65.0,90.0
841,171.8305914375,172.33539862499998,68.0,75.0
842,172.34341143749998,172.450783125,61.0,58.0
843,172.5998214375,173.1767439375,61.0,86.0
844,172.5998214375,173.17834649999998,58.0,107.0
845,173.3690514375,173.79212793749997,58.0,99.0
846,173.3690514375,173.81456381249998,61.0,100.0
847,172.5998214375,173.88828168749998,42.0,85.0
848,173.62546143749998,173.88828168749998,54.0,81.0
849,173.88187143749997,173.88828168749998,58.0,69.0
850,173.88187143749997,173.88828168749998,61.0,52.0
851,174.13828143749998,174.69437062499998,70.0,77.0
852,174.13828143749998,174.732832125,63.0,92.0
853,174.13828143749998,174.76167825,66.0,83.0
854,174.13828143749998,174.94757549999997,51.0,74.0
855,174.13828143749998,175.2536649375,39.0,77.0
856,175.1639214375,175.36424175,51.0,53.0
857,174.90751143749998,175.6895619375,70.0,90.0
858,174.90751143749998,175.69757475,66.0,96.0
859,175.42033143749998,175.7119978125,63.0,92.0
860,175.67674143749997,175.7119978125,63.0,64.0
861,175.67674143749997,176.06936924999997,59.0,75.0
862,175.67674143749997,176.1831511875,56.0,85.0
863,175.67674143749997,176.6398815,44.0,93.0
864,176.70238143749998,176.828983875,44.0,70.0
865,176.4459714375,176.925137625,59.0,95.0
866,176.4459714375,176.95398375,63.0,95.0
867,177.21520143749999,181.61103037499998,56.0,96.0
868,177.21520143749999,181.809748125,61.0,96.0
869,177.21520143749999,181.91231212499997,65.0,92.0
870,177.21520143749999,181.97000437499997,68.0,86.0
871,177.21520143749999,181.976414625,49.0,96.0
872,186.03089774999998,186.6382689375,70.0,73.0
873,186.02448749999996,186.67993556249996,66.0,81.0
874,186.02288493749998,186.700768875,61.0,86.0
875,186.73602524999998,186.83698668749997,61.0,48.0
876,186.0196798125,186.89147381249998,54.0,82.0
877,186.02609006249997,187.136665875,42.0,83.0
878,186.74403806249998,187.32096056249998,66.0,77.0
879,186.74884575,187.36102462499997,70.0,97.0
880,187.03089674999998,187.40108868749996,54.0,72.0
881,187.2664734375,187.65589612499997,61.0,83.0
882,188.41711331249996,189.64627874999996,62.0,93.0
883,188.1030110625,189.66871462499998,54.0,61.0
884,188.421921,189.707176125,66.0,97.0
885,187.55012699999997,189.7087786875,47.0,77.0
886,189.83538112499997,194.2728766875,70.0,83.0
887,189.83858625,194.2824920625,66.0,82.0
888,189.84179137499999,194.2889023125,73.0,64.0
889,189.848201625,194.290504875,54.0,86.0
890,189.84339393749997,194.31133818749998,77.0,67.0
891,189.8465990625,194.31935099999998,42.0,79.0
