,start,end,pitch,velocity
0,26.692839833333338,27.024576600000003,64.0,80.0
1,27.103235833333336,27.563221350000003,59.0,43.0
2,27.51363183333334,27.947967600000005,64.0,55.0
3,27.924027833333337,28.313904033333337,68.0,55.0
4,28.334423833333336,28.714040133333338,69.0,55.0
5,28.744819833333338,29.160345783333337,68.0,55.0
6,29.155215833333337,29.348443950000004,66.0,51.0
7,29.360413833333336,29.97258786666667,64.0,43.0
8,29.976007833333338,30.37785391666667,64.0,80.0
9,30.386403833333336,30.830999500000004,59.0,51.0
10,30.79679983333334,31.22771563333334,64.0,55.0
11,31.207195833333337,31.443173533333336,66.0,55.0
12,31.412393833333336,32.50507318333334,68.0,48.0
13,33.25917583333334,33.5909126,64.0,60.0
14,33.669571833333336,34.07654786666667,59.0,41.0
15,34.07996783333334,34.514303600000005,64.0,51.0
16,34.49036383333334,34.89733986666667,68.0,43.0
17,34.90075983333334,35.35390541666667,69.0,43.0
18,35.31115583333334,35.718131866666674,68.0,43.0
19,35.721551833333336,35.91306996666667,66.0,55.0
20,35.92674983333334,36.443164800000005,64.0,51.0
21,36.54234383333334,36.97325963333334,68.0,70.0
22,36.95273983333334,37.35971586666667,66.0,70.0
23,37.36313583333334,37.708552466666674,66.0,80.0
24,37.77353183333334,38.01121951666667,64.0,60.0
25,38.183927833333335,39.22530768333334,64.0,65.0
26,39.82551183333334,40.218808,64.0,80.0
27,40.235907833333336,40.69076340000001,59.0,51.0
28,40.64630383333334,41.116549250000006,64.0,65.0
29,41.05669983333334,41.50300548333334,68.0,35.0
30,41.46709583333334,41.90314158333334,69.0,51.0
31,41.87749183333334,42.33576736666667,68.0,45.0
32,42.287887833333336,42.475986000000006,66.0,60.0
33,42.49308583333334,43.09841993333334,64.0,60.0
34,43.10867983333334,43.46093640000001,73.0,104.0
35,43.51907583333334,43.78070328333334,71.0,55.0
36,43.92947183333334,44.32789795000001,71.0,60.0
37,44.33986783333334,44.74684386666667,69.0,65.0
38,44.75026383333334,45.91476248333334,68.0,39.0
39,46.39184783333334,46.834733516666674,64.0,60.0
40,46.80224383333334,47.262229350000005,59.0,30.0
41,47.21263983333334,47.64013566666667,64.0,55.0
42,47.62303583333334,48.08302135000001,68.0,39.0
43,48.03343183333334,48.462637650000005,69.0,51.0
44,48.44382783333334,48.62679605000001,68.0,43.0
45,48.64902583333334,49.26290985000001,66.0,48.0
46,49.46981783333334,49.673305850000006,64.0,43.0
47,49.67501583333334,50.04950218333334,68.0,70.0
48,50.08541183333334,50.278639950000006,66.0,60.0
49,50.49580783333334,50.87029418333334,66.0,80.0
50,50.90620383333334,51.14731148333334,64.0,60.0
51,51.31659983333334,52.469128600000005,64.0,60.0
52,52.54778783333334,52.954763866666674,64.0,60.0
53,52.958183833333344,53.72083640000001,61.0,55.0
54,53.77897583333334,54.49374886666668,73.0,92.0
55,54.59976783333334,54.98964403333334,71.0,80.0
56,55.010163833333344,55.21194186666668,68.0,55.0
57,55.42055983333334,55.82753586666667,68.0,48.0
58,56.036153833333344,56.23793186666668,68.0,43.0
59,56.24135183333334,56.62609808333334,69.0,51.0
60,56.65174783333334,57.05359391666668,71.0,43.0
61,57.062143833333344,57.50331953333334,64.0,55.0
62,57.47253983333334,57.884645816666676,71.0,80.0
63,57.88293583333334,58.64729838333334,68.0,75.0
64,58.806326833333344,59.14148356666667,64.0,65.0
65,59.114123833333345,59.534779733333345,63.0,48.0
66,59.52451983333334,60.31624211666668,61.0,39.0
67,60.34531183333334,60.63771898333334,73.0,92.0
68,60.96090583333334,61.06350483333334,73.0,110.0
69,61.166103833333345,61.35933195000001,73.0,55.0
70,61.37130183333334,61.573079866666674,75.0,92.0
71,61.576499833333344,61.77827786666668,71.0,55.0
72,61.98689583333334,62.540930433333344,71.0,80.0
73,62.602489833333344,62.80426786666668,71.0,70.0
74,62.80768783333334,63.106934916666674,73.0,92.0
75,63.218083833333345,63.625059866666675,71.0,65.0
76,63.628479833333344,63.93114688333334,69.0,55.0
77,64.03887583333334,64.26972358333335,68.0,70.0
78,64.44927183333334,66.03100641666667,68.0,70.0
79,66.09085583333334,66.91677778333334,66.0,75.0
80,68.96362783333335,69.17908573333334,73.0,104.0
81,69.16882583333334,69.37060386666667,75.0,104.0
82,69.37402383333334,69.60829155,76.0,86.0
83,69.78441983333335,69.88188888333335,76.0,60.0
84,69.98961783333334,70.34529436666668,76.0,86.0
85,70.60521183333334,70.99337805,76.0,80.0
86,71.01560783333335,71.69447121666667,75.0,104.0
87,72.24679583333334,72.34768485000001,75.0,75.0
88,72.45199383333335,72.5477529,75.0,80.0
89,72.65719183333334,72.84187003333335,75.0,104.0
90,73.06758783333335,73.26936586666667,75.0,92.0
91,73.47798383333334,73.88495986666668,75.0,104.0
92,73.88837983333335,74.29535586666668,80.0,104.0
93,74.29877583333334,74.91436983333334,78.0,92.0
94,74.91436983333334,75.37777531666667,76.0,86.0
95,75.52996383333334,75.73174186666668,73.0,104.0
96,75.73516183333335,75.88393038333335,75.0,92.0
97,75.94035983333335,76.11648811666667,76.0,80.0
98,76.35075583333334,76.44309493333334,76.0,55.0
99,76.55595383333335,76.87230075000001,76.0,70.0
100,77.17154783333335,77.54090423333335,76.0,92.0
101,77.58194383333334,77.81108160000001,75.0,104.0
102,77.99233983333335,78.20437776666668,75.0,92.0
103,78.19753783333334,78.78577210000002,73.0,104.0
104,78.81313183333334,79.23378773333334,75.0,92.0
105,79.22352783333335,79.80663215000001,73.0,110.0
106,79.83912183333335,80.86682181666667,71.0,45.0
107,82.10997970000001,82.32714758333334,73.0,104.0
108,82.3151777,82.51695573333335,75.0,104.0
109,82.52037570000002,82.75635340000001,76.0,86.0
110,82.93077170000001,83.02824075000001,76.0,60.0
111,83.13596970000002,83.49335621666668,76.0,86.0
112,83.7515637,84.14143990000001,76.0,80.0
113,84.16195970000001,84.84082308333335,75.0,104.0
114,85.37946783333335,85.48035685,75.0,75.0
115,85.58466583333335,85.6804249,75.0,80.0
116,85.78986383333334,85.97454203333335,75.0,104.0
117,86.20025983333335,86.40203786666667,75.0,92.0
118,86.40545783333334,87.01763186666668,75.0,104.0
119,87.02105183333335,87.42802786666668,80.0,104.0
120,87.43144783333335,88.04704183333335,75.0,92.0
121,88.04704183333335,88.51044731666668,76.0,86.0
122,88.66263583333334,88.86441386666668,73.0,104.0
123,88.88151370000001,89.03199223333334,75.0,92.0
124,89.08671170000001,89.26283998333335,76.0,80.0
125,89.49710770000002,89.58944680000002,76.0,55.0
126,89.70230570000001,90.02036260000001,76.0,70.0
127,90.30421983333335,90.67357623333335,80.0,92.0
128,90.71461583333334,91.32678986666669,78.0,104.0
129,91.53540783333335,91.95606373333335,75.0,92.0
130,91.9594837,92.16126173333335,73.0,92.0
131,92.35619983333335,92.95469400000002,73.0,110.0
132,95.22897183333335,95.44442973333335,73.0,104.0
133,95.43416983333334,95.63594786666668,75.0,104.0
134,95.63936783333335,95.87363555000002,76.0,86.0
135,96.04976383333334,96.14723288333334,76.0,60.0
136,96.25496183333335,96.61063836666668,76.0,86.0
137,96.87055583333334,97.25872205000002,76.0,80.0
138,97.28095183333335,97.95981521666668,75.0,104.0
139,98.51213983333335,98.61302885000002,75.0,75.0
140,98.71733783333335,98.81309690000002,75.0,80.0
141,98.92253583333334,99.10721403333335,75.0,104.0
142,99.33293183333335,99.41501103333334,75.0,92.0
143,99.53812983333334,100.16056376666668,75.0,104.0
144,100.15372383333334,100.56069986666668,80.0,104.0
145,100.56411983333335,101.17971383333335,78.0,92.0
146,101.17971383333335,101.79188786666668,76.0,86.0
147,101.79530783333335,101.99708586666668,73.0,104.0
148,102.00050583333335,102.14927438333335,75.0,92.0
149,102.20570383333335,102.38183211666669,76.0,80.0
150,102.61609983333335,102.70843893333335,76.0,55.0
151,102.82129783333335,103.13764475000002,76.0,70.0
152,103.43689183333335,103.80624823333335,76.0,92.0
153,103.84728783333335,104.07642560000002,75.0,104.0
154,104.25768383333335,104.46972176666668,75.0,92.0
155,104.46288183333336,105.05111610000002,73.0,104.0
156,105.07847583333334,105.49913173333334,75.0,92.0
157,105.48887183333335,106.07197615000001,73.0,110.0
158,106.10446583333335,106.71663986666668,71.0,45.0
159,108.37532370000001,108.59249158333336,73.0,104.0
160,108.58052170000002,108.78229973333335,75.0,104.0
161,108.78571970000002,109.02169740000002,76.0,86.0
162,109.19611570000002,109.29358475000002,76.0,60.0
163,109.40131370000002,109.75870021666668,76.0,86.0
164,110.01711968750003,110.40968106250003,76.0,80.0
165,110.43034218750002,111.11388107291668,75.0,104.0
166,111.65623560416668,111.75781946875003,75.0,75.0
167,111.86284685416669,111.95926543750002,75.0,80.0
168,112.06945810416669,112.25540822916669,75.0,104.0
169,112.48268060416669,112.68584833333335,75.0,106.0
170,112.68929185416668,113.30568208333335,75.0,104.0
171,113.3091256041667,113.71890458333336,80.0,104.0
172,113.72234810416668,114.34218185416668,75.0,92.0
173,114.34218185416668,114.95857208333335,76.0,86.0
174,114.9620156041667,115.16518333333336,73.0,104.0
175,115.18240093750002,115.33391585416669,75.0,92.0
176,115.38901218750001,115.56635351041669,76.0,80.0
177,115.80223468750002,115.89520975000002,76.0,55.0
178,116.00884593750003,116.32909337500001,76.0,70.0
179,116.6149056041667,116.98680585416669,80.0,92.0
180,117.02812810416668,117.64451833333335,78.0,104.0
181,117.85457310416669,118.27812616666668,75.0,92.0
182,118.28156968750002,118.48473741666669,73.0,92.0
183,118.68101810416668,119.28363425000002,73.0,110.0
184,128.5983581041667,128.94098842708334,64.0,55.0
185,129.01158060416668,129.52122168750003,59.0,31.0
186,129.4248031041667,129.86213025,64.0,43.0
187,129.8380256041667,130.25124810416668,68.0,30.0
188,130.25124810416668,130.69201877083336,69.0,31.0
189,130.6644706041667,131.09491070833334,68.0,28.0
190,131.07769310416668,131.74745790625002,64.0,32.0
191,131.9041381041667,132.32769116666668,64.0,60.0
192,132.31736060416668,132.76329655208335,59.0,45.0
193,132.73058310416667,133.14036208333334,64.0,55.0
194,133.1438056041667,133.55358458333336,66.0,43.0
195,133.55702810416668,134.38002958333334,68.0,32.0
196,135.2099181041667,135.59214891666667,64.0,51.0
197,135.62314060416668,136.05874598958334,59.0,30.0
198,136.0363631041667,136.46508144791667,64.0,39.0
199,136.44958560416669,136.8679733854167,68.0,26.0
200,136.86280810416667,137.06597583333334,69.0,31.0
201,137.06941935416668,137.27258708333335,68.0,18.0
202,137.37933622916668,137.60316508333335,66.0,39.0
203,137.68925310416668,138.2402164375,64.0,48.0
204,138.5156981041667,138.94613820833337,68.0,60.0
205,138.92892060416668,139.13036657291667,66.0,48.0
206,139.3421431041667,139.74503504166668,66.0,60.0
207,139.75536560416668,140.02051670833336,64.0,51.0
208,140.16858810416667,140.99158958333334,64.0,60.0
209,141.8214781041667,142.2501964479167,64.0,37.0
210,142.23470060416668,142.64447958333335,59.0,28.0
211,142.6479231041667,143.11452017708336,64.0,51.0
212,143.06114560416668,143.47092458333336,68.0,37.0
213,143.47436810416667,143.91686053125002,69.0,51.0
214,143.8875906041667,144.1200282604167,68.0,29.0
215,144.09420185416667,144.30597838541667,66.0,39.0
216,144.30081310416668,144.9568038229167,64.0,37.0
217,145.12725810416669,145.44061850000003,73.0,92.0
218,145.5402466666667,145.73895556666668,71.0,70.0
219,145.94785466666667,146.1295799,71.0,70.0
220,146.1516586666667,146.69343763333336,69.0,51.0
221,146.7630706666667,147.57488993333334,68.0,41.0
222,148.39350266666668,148.77054006666668,64.0,51.0
223,148.8011106666667,149.20532193333335,59.0,30.0
224,149.20871866666667,149.63161196666667,64.0,39.0
225,149.61632666666668,150.02902976666667,68.0,26.0
226,150.0239346666667,150.3958769666667,69.0,31.0
227,150.4298443,150.62855320000003,68.0,18.0
228,150.6353466666667,150.83575393333334,66.0,39.0
229,150.83915066666668,151.382628,64.0,48.0
230,151.65436666666668,152.07895833333336,68.0,60.0
231,152.06197466666669,152.26068356666667,66.0,48.0
232,152.46958266666667,152.8670004666667,66.0,60.0
233,152.87719066666668,153.13873913333336,64.0,51.0
234,153.2847986666667,154.09661793333333,64.0,60.0
235,154.5076226666667,154.91523066666667,64.0,55.0
236,154.91523066666667,155.76781073333336,61.0,43.0
237,155.7304466666667,156.46074433333334,73.0,92.0
238,156.5456626666667,156.98384126666667,71.0,51.0
239,156.9532706666667,157.03818900000002,68.0,30.0
240,157.1570746666667,157.85850010000001,68.0,33.0
241,157.97229066666668,158.10306490000002,68.0,33.0
242,158.17609466666667,158.5972896,69.0,80.0
243,158.58370266666668,159.00489760000002,71.0,45.0
244,158.9913106666667,159.44986966666667,64.0,51.0
245,159.5008206666667,159.8931433666667,71.0,92.0
246,159.90842866666668,160.5894737,68.0,51.0
247,160.72364466666667,161.12785593333336,64.0,60.0
248,161.13125266666668,161.33165993333336,63.0,48.0
249,161.43695866666667,162.19782693333335,61.0,43.0
250,162.2521746666667,162.43389990000003,73.0,80.0
251,162.7616846666667,162.85169810000002,73.0,92.0
252,163.06739066666668,163.38158850000002,75.0,104.0
253,163.4749986666667,163.7654193666667,73.0,80.0
254,163.88260666666667,164.40910033333336,71.0,45.0
255,164.49401866666668,164.74028183333334,71.0,48.0
256,164.6978226666667,165.0340992666667,73.0,92.0
257,165.10543066666668,165.30583793333335,71.0,55.0
258,165.30923466666667,165.91724993333335,69.0,55.0
259,165.9206466666667,166.1346408666667,68.0,55.0
260,166.32825466666668,167.90094220000003,68.0,51.0
261,167.9586866666667,169.83441627500002,66.0,51.0
262,170.83925018750003,171.05679155,73.0,104.0
263,171.04643243750002,171.25016165000002,75.0,104.0
264,171.25361468750003,171.49014775625002,76.0,86.0
265,171.6679791875,171.76639075625002,76.0,60.0
266,171.87516143750003,172.23427733750003,76.0,86.0
267,172.49670818750002,172.88862794375,76.0,80.0
268,172.91107268750002,173.59650063125002,75.0,104.0
269,174.1541661875,174.25603079375003,75.0,75.0
270,174.36134843750003,174.45803348750002,75.0,80.0
271,174.56853068750002,174.75499471250004,75.0,104.0
272,174.98289518750002,175.18662440000003,75.0,92.0
273,175.1900774375,175.80817115000002,75.0,104.0
274,175.81162418750003,176.22253565000003,80.0,104.0
275,176.22598868750003,176.84753543750003,78.0,92.0
276,176.84753543750003,177.25844690000002,76.0,86.0
277,177.46908218750002,177.67281140000003,73.0,104.0
278,177.6762644375,177.82647156875,75.0,92.0
279,177.88344668750003,178.06127811875,76.0,80.0
280,178.29781118750003,178.3910432,76.0,55.0
281,178.50499343750002,178.82439940625002,76.0,70.0
282,179.1265401875,179.49946823750003,76.0,92.0
283,179.54090468750002,179.7722582,75.0,104.0
284,179.95526918750002,180.16935751250003,75.0,92.0
285,180.1624514375,180.5733629,73.0,104.0
286,180.68040706250002,181.10513067500003,75.0,92.0
287,181.1983626875,181.78710558125002,73.0,110.0
288,181.71631831250002,182.75395608125,71.0,45.0
289,184.09891418750001,184.31645555000003,73.0,104.0
290,184.30609643750003,184.50982565,75.0,104.0
291,184.51327868750002,184.74981175625,76.0,86.0
292,184.92764318750002,185.02605475625003,76.0,60.0
293,185.1348254375,185.49394133750002,76.0,86.0
294,185.7563721875,186.14829194375002,76.0,80.0
295,186.1707366875,186.85616463125,75.0,104.0
296,187.41383018750003,187.51569479375001,75.0,75.0
297,187.6210124375,187.71769748750003,75.0,80.0
298,187.82819468750003,188.01465871250002,75.0,104.0
299,188.24255918750004,188.44628840000001,75.0,92.0
300,188.6569236875,189.06783515,75.0,104.0
301,189.07128818750002,189.48219965,80.0,104.0
302,189.48565268750002,190.10719943750001,75.0,92.0
303,190.10719943750001,190.57508601875003,76.0,86.0
304,190.7287461875,190.93247540000002,73.0,104.0
305,190.94974058750003,191.10167423750002,75.0,92.0
306,191.15692283750002,191.33475426875003,76.0,80.0
307,191.57128733750002,191.66451935000003,76.0,55.0
308,191.7784695875,192.099602075,76.0,70.0
309,192.38585370833334,192.75121140833335,80.0,92.0
310,192.79180670833335,193.39735326666667,78.0,104.0
311,193.60371270833335,194.01981453333335,75.0,92.0
312,194.02319747500002,194.22279103333335,73.0,92.0
313,194.41561870833334,195.00763350000003,73.0,110.0
314,197.25728970833333,197.47041503333335,73.0,104.0
315,197.46026620833334,197.65985976666667,75.0,104.0
316,197.66324270833334,197.89497421250002,76.0,86.0
317,198.06919570833335,198.16560954583335,76.0,60.0
318,198.27217220833336,198.62399814166668,76.0,86.0
319,198.88110170833335,199.2650655875,76.0,80.0
320,199.28705470833336,199.95856862916668,75.0,104.0
321,200.50491370833333,200.6047104875,75.0,75.0
322,200.70789020833334,200.802612575,75.0,80.0
323,200.91086670833334,201.09354555833335,75.0,104.0
324,201.31681970833336,201.5164132666667,75.0,92.0
325,201.72277270833334,202.12534276666668,75.0,104.0
326,202.12872570833335,202.32831926666668,80.0,104.0
327,202.53467870833333,203.14360820833335,78.0,92.0
328,203.14360820833335,203.60199680416667,76.0,86.0
329,203.75253770833334,203.95213126666667,73.0,104.0
330,203.95551420833334,204.10267217083336,75.0,92.0
331,204.15849070833335,204.33271220416668,76.0,80.0
332,204.56444370833336,204.65578313333336,76.0,55.0
333,204.76742020833333,205.08034231250002,76.0,70.0
334,205.37634970833335,205.74170740833335,76.0,92.0
335,205.78230270833333,206.0089598,75.0,104.0
336,206.18825570833334,206.3979980916667,75.0,92.0
337,206.39123220833335,206.97309817500002,73.0,104.0
338,207.00016170833334,207.41626353333334,75.0,92.0
339,207.40611470833335,207.98290626250002,73.0,110.0
340,208.01504420833334,208.6209865666667,71.0,45.0
341,210.29577645833336,210.51513563333336,73.0,104.0
342,210.50468995833336,210.7101215666667,75.0,104.0
343,210.71360345833335,210.95211303750003,76.0,86.0
344,211.13145475000002,211.23082712500002,76.0,60.0
345,211.34065975000001,211.70328175,76.0,86.0
346,211.96827475,212.364020875,76.0,80.0
347,212.38668475,213.078804625,75.0,104.0
348,213.64191475,213.74477387500002,75.0,75.0
349,213.85111975,213.94874875000002,75.0,80.0
350,214.06032475,214.24860925000002,75.0,104.0
351,214.47873475,214.68445300000002,75.0,106.0
352,214.68793975,215.312068,75.0,104.0
353,215.31555475000002,215.730478,80.0,104.0
354,215.73396475,216.36157975,75.0,92.0
355,216.36157975,216.83403437500002,76.0,86.0
356,216.98919475,217.194913,73.0,104.0
357,217.21234675,217.36576375,75.0,92.0
358,217.40760475000002,217.587172375,76.0,80.0
359,217.82601475,217.92015700000002,76.0,55.0
360,218.03521975,218.450143,76.0,70.0
361,218.66283475,219.03940375000002,80.0,92.0
362,219.08124475,219.70139886666666,78.0,104.0
363,219.91030277083334,220.33153523333334,75.0,92.0
364,220.33495988750002,220.53701448333334,73.0,92.0
365,220.73221977083335,221.3287575,73.0,110.0
366,223.57537687500002,223.7882145,73.0,104.0
367,223.778079375,223.9774035,75.0,104.0
368,223.98078187500002,224.21220056250002,76.0,86.0
369,224.38618687500002,224.4824705625,76.0,60.0
370,224.588889375,224.940240375,76.0,86.0
371,225.196996875,225.5804424375,76.0,80.0
372,225.602401875,226.2730093125,75.0,104.0
373,226.818616875,226.91827893750002,75.0,75.0
374,227.02131937500002,227.11591387500002,75.0,80.0
375,227.224021875,227.406454125,75.0,104.0
376,227.629426875,227.828751,75.0,92.0
377,228.034831875,228.4368585,75.0,104.0
378,228.440236875,228.63956100000001,80.0,104.0
379,228.845641875,229.453749375,78.0,92.0
380,229.453749375,229.9115191875,76.0,86.0
381,230.06185687500002,230.26118100000002,73.0,104.0
382,230.264559375,230.4115186875,75.0,92.0
383,230.46726187500002,230.6412481875,76.0,80.0
384,230.87266687500002,230.963883,76.0,55.0
385,231.075369375,231.38786906250002,76.0,70.0
386,231.683476875,232.048341375,76.0,92.0
387,232.088881875,232.315233,75.0,104.0
388,232.494286875,232.703746125,75.0,92.0
389,232.69698937500002,233.278069875,73.0,104.0
390,233.305096875,233.720637,75.0,92.0
391,233.710501875,234.2865148125,73.0,110.0
392,234.31860937500002,234.9233385,71.0,45.0
393,236.5666291875,236.78417055000003,73.0,104.0
394,236.77381143750003,236.97754065,75.0,104.0
395,236.98099368750002,237.21752675625,76.0,86.0
396,237.39535818750002,237.49376975625,76.0,60.0
397,237.6025404375,237.96165633750002,76.0,86.0
398,238.2240871875,238.61600694375002,76.0,80.0
399,238.6384516875,239.32387963125,75.0,104.0
400,239.88154518750002,239.98340979375,75.0,75.0
401,240.0887274375,240.1854124875,75.0,80.0
402,240.29590968750003,240.48237371250002,75.0,104.0
403,240.7102741875,240.9140034,75.0,106.0
404,240.91745643750002,241.53555015,75.0,104.0
405,241.53900318750001,241.94991465,80.0,104.0
406,241.95336768750002,242.5749144375,75.0,92.0
407,242.5749144375,243.04280101875003,76.0,86.0
408,243.1964611875,243.4001904,73.0,104.0
409,243.41745558750003,243.56938923750002,75.0,92.0
410,243.6108256875,243.78865711875002,76.0,80.0
411,244.02519018750002,244.11842220000003,76.0,55.0
412,244.2323724375,244.64328390000003,76.0,70.0
413,244.85391918750003,245.2268472375,80.0,92.0
414,245.2682836875,245.88637740000001,78.0,104.0
415,246.0970126875,246.52173630000001,75.0,92.0
416,246.52518933750002,246.72891855,73.0,92.0
417,246.92574168750002,247.53002325000003,73.0,110.0
418,249.82629318750003,250.0300224,73.0,80.0
419,250.03347543750002,250.23720465000002,75.0,104.0
420,250.2406576875,250.48582335,76.0,70.0
421,250.6550221875,250.7448011625,76.0,70.0
422,250.86220443750003,251.27311590000002,76.0,86.0
423,251.27656893750003,251.68748040000003,80.0,110.0
424,251.6909334375,253.69196866875,78.0,92.0
