,start,end,pitch,velocity
0,0.8378918333333335,1.3303670333333335,59.0,94.0
1,1.2482878333333336,1.3850865,64.0,94.0
2,1.2482878333333336,1.4859755166666668,71.0,94.0
3,1.2482878333333336,1.5099152833333336,68.0,94.0
4,0.4274958333333334,1.660393816666667,52.0,94.0
5,1.6586838333333336,1.8621718500000002,59.0,94.0
6,2.4794758333333338,2.9719510333333337,59.0,94.0
7,2.8898718333333338,3.038640383333334,71.0,94.0
8,2.8898718333333338,3.071130066666667,66.0,94.0
9,2.8898718333333338,3.0745500333333338,63.0,94.0
10,2.069079833333334,3.368667166666667,47.0,94.0
11,3.3002678333333337,3.4045768166666672,59.0,94.0
12,3.7106638333333337,4.134739700000001,40.0,94.0
13,4.121059833333334,4.528035866666667,52.0,94.0
14,4.531455833333334,4.996571300000001,47.0,94.0
15,4.941851833333334,5.348827866666667,59.0,94.0
16,5.7626438333333345,6.169619866666667,59.0,94.0
17,6.173039833333334,6.3748178666666675,68.0,94.0
18,5.352247833333334,6.580015866666668,52.0,94.0
19,6.173039833333334,6.580015866666668,64.0,94.0
20,6.5834358333333345,6.990411866666667,59.0,94.0
21,7.4042278333333345,7.908672916666668,59.0,94.0
22,7.814623833333335,8.221599866666669,64.0,94.0
23,6.993831833333334,8.238699700000002,52.0,94.0
24,7.814623833333335,8.276319333333335,71.0,94.0
25,7.814623833333335,8.295129150000001,68.0,94.0
26,8.225019833333334,8.637125816666668,59.0,94.0
27,9.045811833333335,9.584456583333335,59.0,94.0
28,9.456207833333334,9.866603833333334,63.0,94.0
29,9.456207833333334,9.916193350000002,66.0,94.0
30,9.456207833333334,9.916193350000002,71.0,94.0
31,8.635415833333335,9.940133116666669,47.0,94.0
32,9.866603833333334,10.230830283333335,59.0,94.0
33,10.687395833333335,11.094371866666668,59.0,94.0
34,11.097791833333336,11.580007133333336,71.0,94.0
35,11.097791833333336,11.581717116666669,64.0,94.0
36,11.097791833333336,11.581717116666669,68.0,94.0
37,10.276999833333335,11.650116450000002,52.0,94.0
38,11.508187833333334,11.786915116666668,59.0,94.0
39,11.918583833333335,12.735955866666668,52.0,94.0
40,12.328979833333335,12.735955866666668,59.0,94.0
41,12.739375833333336,13.445598950000003,66.0,94.0
42,12.739375833333336,13.464408766666669,63.0,94.0
43,12.739375833333336,13.467828733333334,59.0,94.0
44,14.380959833333335,14.787935866666668,64.0,94.0
45,14.380959833333335,14.787935866666668,68.0,94.0
46,14.380959833333335,14.787935866666668,71.0,94.0
47,13.560167833333335,14.96235416666667,52.0,94.0
48,13.970563833333335,14.967484116666668,59.0,94.0
49,14.791355833333336,14.967484116666668,59.0,94.0
50,15.612147833333335,16.019123866666668,59.0,94.0
51,15.201751833333336,16.494499233333336,47.0,94.0
52,16.022543833333337,16.60906811666667,63.0,94.0
53,16.432939833333336,16.636427850000004,59.0,94.0
54,16.843335833333335,17.36317076666667,45.0,94.0
55,17.253731833333337,17.693197550000004,57.0,94.0
56,17.664127833333335,18.14805311666667,47.0,94.0
57,18.074523833333338,18.443880233333335,59.0,94.0
58,18.895315833333335,19.363851266666668,59.0,94.0
59,19.305711833333337,19.683618150000004,64.0,94.0
60,19.305711833333337,19.758857416666668,68.0,94.0
61,19.305711833333337,19.77595725,71.0,94.0
62,18.484919833333336,19.85632646666667,52.0,94.0
63,19.716107833333336,20.12308386666667,59.0,94.0
64,20.536899833333337,20.94387586666667,59.0,94.0
65,20.126503833333338,21.280742583333335,52.0,94.0
66,20.947295833333335,21.49278051666667,71.0,94.0
67,20.947295833333335,21.496200483333336,68.0,94.0
68,20.947295833333335,21.55946986666667,64.0,94.0
69,21.357691833333337,21.76466786666667,59.0,94.0
70,22.17848383333334,22.58545986666667,59.0,94.0
71,21.768087833333336,23.13949446666667,47.0,94.0
72,22.999275833333336,23.33956251666667,59.0,94.0
73,22.588879833333337,23.358372333333335,63.0,94.0
74,24.640859833333337,25.45823186666667,64.0,94.0
75,25.051255833333336,25.45823186666667,69.0,94.0
76,25.051255833333336,25.45823186666667,76.0,94.0
77,25.461651833333338,25.82587828333334,68.0,94.0
78,23.409671833333338,25.86862786666667,45.0,94.0
79,23.820067833333336,25.86862786666667,57.0,94.0
80,24.230463833333335,25.86862786666667,61.0,94.0
81,25.872047833333337,26.184974783333338,63.0,94.0
82,26.282443833333335,26.644960300000005,64.0,94.0
83,27.103235833333336,27.60768091666667,59.0,94.0
84,27.51363183333334,27.985587233333337,64.0,94.0
85,27.51363183333334,27.994137150000004,68.0,94.0
86,26.692839833333338,28.035176750000005,52.0,94.0
87,27.924027833333337,28.10015611666667,59.0,94.0
88,28.744819833333338,29.358703850000005,59.0,94.0
89,29.155215833333337,29.569031800000005,66.0,94.0
90,29.155215833333337,29.613491366666672,63.0,94.0
91,28.334423833333336,29.68531066666667,47.0,94.0
92,29.56561183333334,29.72122031666667,59.0,94.0
93,30.386403833333336,30.972928116666672,57.0,94.0
94,30.79679983333334,31.28927503333334,64.0,94.0
95,30.79679983333334,31.29611496666667,61.0,94.0
96,29.976007833333338,31.297824950000006,45.0,94.0
97,31.207195833333337,31.34570448333334,57.0,94.0
98,32.02798783333334,32.527302966666674,59.0,94.0
99,32.43838383333334,32.9240191,68.0,94.0
100,32.43838383333334,32.970188650000004,64.0,94.0
101,31.61759183333334,33.04542791666667,52.0,94.0
102,32.84877983333334,33.064237733333336,59.0,94.0
103,33.25917583333334,34.45787415,49.0,94.0
104,33.669571833333336,34.478393950000005,57.0,94.0
105,34.07996783333334,34.640842366666675,64.0,94.0
106,34.07996783333334,34.64939228333334,61.0,94.0
107,35.721551833333336,36.2995262,66.0,94.0
108,35.721551833333336,36.34056580000001,63.0,94.0
109,35.31115583333334,36.359375616666675,54.0,94.0
110,34.90075983333334,36.36279558333334,47.0,94.0
111,35.721551833333336,36.36792553333334,59.0,94.0
112,36.54234383333334,37.85903100000001,63.0,94.0
113,36.54234383333334,37.86245096666667,66.0,94.0
114,36.54234383333334,37.88468075000001,51.0,94.0
115,38.59432383333334,39.288577066666676,59.0,94.0
116,39.00471983333334,39.72975276666667,71.0,94.0
117,39.00471983333334,39.75882248333334,68.0,94.0
118,39.00471983333334,39.77421233333334,64.0,94.0
119,39.41511583333334,39.91101100000001,59.0,94.0
120,38.183927833333335,39.92469086666667,52.0,94.0
121,39.82551183333334,39.92469086666667,52.0,94.0
122,40.235907833333336,40.747192850000005,59.0,94.0
123,41.05669983333334,41.323457233333336,59.0,94.0
124,40.64630383333334,41.403826450000004,64.0,94.0
125,41.87749183333334,42.39561678333334,57.0,94.0
126,41.46709583333334,42.68289398333334,45.0,94.0
127,42.287887833333336,42.94281145000001,61.0,94.0
128,42.69828383333334,43.08303008333334,57.0,94.0
129,43.51907583333334,44.09363023333334,59.0,94.0
130,43.10867983333334,44.40313721666667,47.0,94.0
131,43.92947183333334,44.63740493333334,63.0,94.0
132,44.33986783333334,44.73658396666667,59.0,94.0
133,45.16065983333334,45.7078545,59.0,94.0
134,45.57105583333334,46.08405083333334,64.0,94.0
135,44.75026383333334,46.13193036666667,52.0,94.0
136,45.98145183333334,46.15416015000001,59.0,94.0
137,46.39184783333334,47.68801520000001,49.0,94.0
138,46.80224383333334,47.70169506666667,57.0,94.0
139,47.21263983333334,47.96161253333334,61.0,94.0
140,47.62303583333334,48.03514181666667,64.0,94.0
141,48.44382783333334,49.045741966666675,57.0,94.0
142,48.03343183333334,49.34840901666667,45.0,94.0
143,49.26461983333334,49.67843580000001,57.0,94.0
144,48.85422383333334,49.68014578333334,61.0,94.0
145,50.08541183333334,50.61037671666667,59.0,94.0
146,49.67501583333334,50.96605325000001,47.0,94.0
147,50.49580783333334,51.268720300000005,63.0,94.0
148,50.90620383333334,51.304629950000006,59.0,94.0
149,51.72699583333334,52.25709066666668,59.0,94.0
150,51.31659983333334,52.816255216666676,52.0,94.0
151,52.13739183333334,52.81796520000001,64.0,94.0
152,52.54778783333334,52.954763866666674,59.0,94.0
153,53.36857983333334,53.88499480000001,56.0,94.0
154,52.958183833333344,54.27316101666668,49.0,94.0
155,54.18937183333334,54.39969978333334,56.0,94.0
156,53.77897583333334,54.46809911666667,61.0,94.0
157,55.010163833333344,55.376100266666676,59.0,94.0
158,54.59976783333334,55.84292571666668,56.0,94.0
159,55.42055983333334,55.87199543333334,63.0,94.0
160,55.83095583333334,56.054963650000005,59.0,94.0
161,56.65174783333334,56.98177461666668,61.0,94.0
162,57.062143833333344,57.48792968333334,64.0,94.0
163,56.24135183333334,57.54948908333334,57.0,94.0
164,57.47253983333334,57.802566616666674,61.0,94.0
165,58.29333183333334,58.90721585000001,59.0,94.0
166,57.88293583333334,59.10899388333334,56.0,94.0
167,58.70372783333334,59.150033483333345,63.0,94.0
168,59.114123833333345,59.469800366666675,59.0,94.0
169,59.93491583333334,60.49750035000001,56.0,94.0
170,59.52451983333334,60.83949701666668,49.0,94.0
171,60.75570783333334,60.96261581666668,56.0,94.0
172,60.34531183333334,61.14216406666667,61.0,94.0
173,61.166103833333345,62.22458351666668,56.0,94.0
174,61.576499833333344,62.43149150000001,59.0,94.0
175,61.98689583333334,62.58026005000001,63.0,94.0
176,62.39729183333334,62.74099848333334,66.0,94.0
177,63.218083833333345,63.68319930000001,61.0,94.0
178,63.628479833333344,64.05426568333334,64.0,94.0
179,62.80768783333334,64.30221326666667,57.0,94.0
180,64.03887583333334,64.39968231666667,61.0,94.0
181,65.27006383333334,68.62163116666667,63.0,94.0
182,65.68045983333334,68.62505113333334,66.0,94.0
183,66.09085583333334,68.62847110000001,71.0,94.0
184,68.55323183333334,68.62847110000001,71.0,94.0
185,64.85966783333335,68.63189106666668,59.0,94.0
186,64.44927183333334,68.65925080000001,47.0,94.0
187,68.55323183333334,69.11923631666667,68.0,94.0
188,68.55323183333334,69.12607625000001,64.0,94.0
189,69.78441983333335,70.06485710000001,61.0,94.0
190,69.98961783333334,70.19139586666668,64.0,94.0
191,69.57922183333335,70.19481583333334,56.0,94.0
192,70.19481583333334,70.49235293333335,68.0,94.0
193,69.37402383333334,70.58127206666667,49.0,94.0
194,70.40001383333335,70.6188917,56.0,94.0
195,70.60521183333334,70.85657938333334,61.0,94.0
196,70.81040983333334,70.99679801666667,64.0,94.0
197,71.42600383333334,71.72183095000001,63.0,94.0
198,71.63120183333335,71.80733011666668,66.0,94.0
199,71.22080583333334,71.81246006666667,59.0,94.0
200,71.83639983333335,72.06553760000001,71.0,94.0
201,71.01560783333335,72.19378635000001,47.0,94.0
202,72.04159783333334,72.22285606666668,59.0,94.0
203,72.24679583333334,72.51355323333334,63.0,94.0
204,72.45199383333335,72.66574175000001,66.0,94.0
205,73.06758783333335,73.34460513333335,59.0,94.0
206,72.86238983333334,73.50363358333334,56.0,94.0
207,73.27278583333334,73.51047351666668,63.0,94.0
208,72.65719183333334,73.79091078333335,44.0,94.0
209,73.47798383333334,73.8610201,68.0,94.0
210,73.68318183333335,73.88495986666668,56.0,94.0
211,73.88837983333335,74.14658731666668,59.0,94.0
212,74.09357783333334,74.24405636666668,63.0,94.0
213,74.70917183333334,74.98960910000001,61.0,94.0
214,74.50397383333335,75.10759795000001,56.0,94.0
215,74.91436983333334,75.14008763333334,64.0,94.0
216,75.11956783333335,75.37606533333334,68.0,94.0
217,74.29877583333334,75.63769278333335,49.0,94.0
218,75.32476583333334,75.72148196666667,56.0,94.0
219,75.52996383333334,75.78646133333335,61.0,94.0
220,75.73516183333335,75.88393038333335,64.0,94.0
221,76.35075583333334,76.65684285000002,57.0,94.0
222,76.55595383333335,76.82100125000001,61.0,94.0
223,76.14555783333334,76.83468111666667,54.0,94.0
224,75.94035983333335,77.13563818333334,42.0,94.0
225,76.96634983333334,77.24507711666668,54.0,94.0
226,76.76115183333334,77.26388693333334,66.0,94.0
227,77.17154783333335,77.4725049,57.0,94.0
228,77.37674583333335,77.58707378333334,61.0,94.0
229,77.99233983333335,78.34117643333335,63.0,94.0
230,78.19753783333334,78.36853616666667,66.0,94.0
231,77.78714183333335,78.38734598333335,59.0,94.0
232,78.40273583333334,78.65923333333335,71.0,94.0
233,78.60793383333335,78.81997176666668,59.0,94.0
234,77.58194383333334,78.85075146666668,47.0,94.0
235,78.81313183333334,79.09014913333334,63.0,94.0
236,79.01832983333334,79.18419821666667,66.0,94.0
237,79.63392383333334,79.99644030000002,59.0,94.0
238,79.83912183333335,80.02892998333334,63.0,94.0
239,79.42872583333335,80.14178888333335,56.0,94.0
240,80.04431983333335,80.48207556666668,68.0,94.0
241,79.22352783333335,80.69582348333334,44.0,94.0
242,80.45471583333334,80.74541300000001,59.0,94.0
243,80.24951783333334,80.77106275000001,56.0,94.0
244,80.65991383333335,80.88392165,63.0,94.0
245,81.27550783333335,81.58672480000001,59.0,94.0
246,81.48070583333335,81.63289435000002,63.0,94.0
247,81.07030983333334,81.68248386666667,56.0,94.0
248,81.68590383333334,82.01251065000001,68.0,94.0
249,80.86511183333334,82.16298918333335,44.0,94.0
250,81.89110183333335,82.17324908333335,56.0,94.0
251,82.09629983333335,82.27755806666669,59.0,94.0
252,82.91709183333334,83.19752910000001,61.0,94.0
253,83.12228983333334,83.32406786666668,64.0,94.0
254,82.71189383333335,83.32748783333335,56.0,94.0
255,83.32748783333335,83.62502493333335,68.0,94.0
256,82.50669583333334,83.71394406666668,49.0,94.0
257,83.53268583333335,83.7515637,56.0,94.0
258,83.73788383333334,83.98925138333334,61.0,94.0
259,83.94308183333335,84.12947001666667,64.0,94.0
260,84.55867583333334,84.85450295000001,63.0,94.0
261,84.76387383333335,84.94000211666668,66.0,94.0
262,84.35347783333334,84.94513206666667,59.0,94.0
263,84.96907183333335,85.19820960000001,71.0,94.0
264,84.14827983333335,85.32645835000001,47.0,94.0
265,85.17426983333334,85.35552806666668,59.0,94.0
266,85.37946783333335,85.64622523333334,63.0,94.0
267,85.58466583333335,85.79841375000001,66.0,94.0
268,86.20025983333335,86.47727713333335,59.0,94.0
269,85.99506183333335,86.63630558333334,56.0,94.0
270,86.40545783333334,86.64314551666668,63.0,94.0
271,85.78986383333334,86.92358278333334,44.0,94.0
272,86.61065583333334,86.99369210000002,68.0,94.0
273,86.81585383333335,87.01763186666668,56.0,94.0
274,87.02105183333335,87.27925931666668,59.0,94.0
275,87.22624983333334,87.37672836666668,63.0,94.0
276,87.84184383333334,88.12228110000001,61.0,94.0
277,87.63664583333335,88.24026995000001,56.0,94.0
278,88.04704183333335,88.27275963333335,64.0,94.0
279,88.25223983333335,88.50873733333334,68.0,94.0
280,87.43144783333335,88.77036478333335,49.0,94.0
281,88.45743783333334,88.85415396666669,56.0,94.0
282,88.66263583333334,88.91913333333335,61.0,94.0
283,88.86783383333335,89.01660238333335,64.0,94.0
284,89.48342783333335,89.78951485000002,57.0,94.0
285,89.68862583333335,89.95367325000001,61.0,94.0
286,89.27822983333334,89.96735311666669,54.0,94.0
287,89.07303183333335,90.26831018333334,42.0,94.0
288,90.09902183333335,90.37774911666668,54.0,94.0
289,89.89382383333334,90.39655893333335,66.0,94.0
290,90.30421983333335,90.60517690000002,57.0,94.0
291,90.50941783333334,90.71974578333335,61.0,94.0
292,91.12501183333335,91.47384843333334,63.0,94.0
293,91.33020983333334,91.50120816666669,66.0,94.0
294,90.91981383333335,91.52001798333335,59.0,94.0
295,91.53540783333335,91.79190533333335,71.0,94.0
296,91.74060583333335,91.95264376666668,59.0,94.0
297,90.71461583333334,91.98342346666668,47.0,94.0
298,91.94580383333334,92.22282113333334,63.0,94.0
299,92.15100183333335,92.31687021666669,66.0,94.0
300,92.76659583333334,93.05729300000002,61.0,94.0
301,92.56139783333334,93.16331196666668,56.0,94.0
302,92.97179383333335,93.21461146666668,64.0,94.0
303,93.17699183333335,93.42322943333335,68.0,94.0
304,92.35619983333335,93.80455571666668,49.0,94.0
305,93.58738783333335,93.85585521666668,61.0,94.0
306,93.38218983333334,93.86269515000001,56.0,94.0
307,93.79258583333335,93.99436386666667,64.0,94.0
308,94.40817983333335,94.64073756666669,61.0,94.0
309,94.61337783333335,94.82883573333335,64.0,94.0
310,94.20298183333335,94.85619546666668,56.0,94.0
311,94.81857583333334,95.15715253333335,68.0,94.0
312,93.99778383333334,95.30250111666668,49.0,94.0
313,95.02377383333335,95.32815086666668,56.0,94.0
314,95.22897183333335,95.36064055000001,61.0,94.0
315,96.04976383333334,96.33020110000001,61.0,94.0
316,96.25496183333335,96.45673986666668,64.0,94.0
317,95.84456583333335,96.46015983333335,56.0,94.0
318,96.46015983333335,96.75769693333335,68.0,94.0
319,95.63936783333335,96.84661606666668,49.0,94.0
320,96.66535783333335,96.88423570000002,56.0,94.0
321,96.87055583333334,97.12192338333335,61.0,94.0
322,97.07575383333335,97.26214201666669,64.0,94.0
323,97.69134783333335,97.98717495000001,63.0,94.0
324,97.89654583333335,98.07267411666668,66.0,94.0
325,97.48614983333334,98.07780406666669,59.0,94.0
326,98.10174383333334,98.33088160000001,71.0,94.0
327,97.28095183333335,98.45913035000001,47.0,94.0
328,98.30694183333335,98.48820006666668,59.0,94.0
329,98.51213983333335,98.77889723333335,63.0,94.0
330,98.71733783333335,98.93108575000001,66.0,94.0
331,99.33293183333335,99.60994913333334,59.0,94.0
332,99.12773383333335,99.76897758333335,56.0,94.0
333,99.53812983333334,99.77581751666668,63.0,94.0
334,98.92253583333334,100.05625478333334,44.0,94.0
335,99.74332783333335,100.12636410000002,68.0,94.0
336,99.94852583333335,100.15030386666668,56.0,94.0
337,100.15372383333334,100.41193131666668,59.0,94.0
338,100.35892183333335,100.50940036666668,63.0,94.0
339,100.97451583333334,101.25495310000001,61.0,94.0
340,100.76931783333335,101.37294195000001,56.0,94.0
341,101.17971383333335,101.40543163333335,64.0,94.0
342,101.38491183333335,101.64140933333334,68.0,94.0
343,100.56411983333335,101.90303678333335,49.0,94.0
344,101.59010983333334,101.98682596666669,56.0,94.0
345,101.79530783333335,102.05180533333335,61.0,94.0
346,102.00050583333335,102.14927438333335,64.0,94.0
347,102.61609983333335,102.92218685000002,57.0,94.0
348,102.82129783333335,103.08634525000001,61.0,94.0
349,102.41090183333336,103.10002511666669,54.0,94.0
350,102.20570383333335,103.40098218333335,42.0,94.0
351,103.23169383333335,103.51042111666668,54.0,94.0
352,103.02649583333334,103.52923093333335,66.0,94.0
353,103.43689183333335,103.73784890000002,57.0,94.0
354,103.64208983333334,103.85241778333335,61.0,94.0
355,104.25768383333335,104.60652043333334,63.0,94.0
356,104.46288183333336,104.63388016666669,66.0,94.0
357,104.05248583333335,104.65268998333335,59.0,94.0
358,104.66807983333335,104.92457733333335,71.0,94.0
359,104.87327783333335,105.08531576666668,59.0,94.0
360,103.84728783333335,105.11609546666668,47.0,94.0
361,105.07847583333334,105.35549313333335,63.0,94.0
362,105.28367383333335,105.44954221666669,66.0,94.0
363,105.89926783333335,106.26178430000002,59.0,94.0
364,106.10446583333335,106.29427398333335,63.0,94.0
365,105.69406983333334,106.40713288333335,56.0,94.0
366,106.30966383333335,106.74741956666668,68.0,94.0
367,105.48887183333335,106.96116748333336,44.0,94.0
368,106.72005983333335,107.01075700000001,59.0,94.0
369,106.51486183333334,107.03640675000001,56.0,94.0
370,106.92525783333335,107.14926565000002,63.0,94.0
371,107.54085183333335,107.85206880000001,59.0,94.0
372,107.74604983333334,107.89823835000001,63.0,94.0
373,107.33565383333335,107.94782786666669,56.0,94.0
374,107.95124783333335,108.27785465000001,68.0,94.0
375,107.13045583333334,108.42833318333335,44.0,94.0
376,108.15644583333335,108.43859308333334,56.0,94.0
377,108.36164383333335,108.54290206666668,59.0,94.0
378,109.18243583333334,109.46287310000001,61.0,94.0
379,109.38763383333335,109.58941186666668,64.0,94.0
380,108.97723783333335,109.59283183333335,56.0,94.0
381,109.59283183333335,109.89036893333335,68.0,94.0
382,108.77203983333335,109.97928806666668,49.0,94.0
383,109.79802983333335,110.01711968750003,56.0,94.0
384,110.00334560416668,110.25644438541669,61.0,94.0
385,110.20995685416669,110.39762873958335,64.0,94.0
386,110.82979060416669,111.12765515625003,63.0,94.0
387,111.03640185416668,111.21374317708336,66.0,94.0
388,110.6231793541667,111.21890845833336,59.0,94.0
389,111.24301310416669,111.47372900000002,71.0,94.0
390,110.41656810416669,111.60286103125001,47.0,94.0
391,111.44962435416669,111.63213095833335,59.0,94.0
392,111.65623560416668,111.92483022916669,63.0,94.0
393,111.86284685416669,112.07806690625002,66.0,94.0
394,112.48268060416669,112.76160579166668,59.0,94.0
395,112.2760693541667,112.92172951041668,56.0,94.0
396,112.68929185416668,112.92861655208335,63.0,94.0
397,112.06945810416669,113.21098526041669,44.0,94.0
398,112.89590310416669,113.28157743750002,68.0,94.0
399,113.10251435416669,113.30568208333335,56.0,94.0
400,113.3091256041667,113.56911142708336,59.0,94.0
401,113.51573685416669,113.66725177083336,63.0,94.0
402,114.13557060416669,114.41793931250002,61.0,94.0
403,113.9289593541667,114.53674078125002,56.0,94.0
404,114.34218185416668,114.5694542291667,64.0,94.0
405,114.54879310416669,114.80705716666668,68.0,94.0
406,113.72234810416668,115.07048651041669,49.0,94.0
407,114.75540435416669,115.15485277083336,56.0,94.0
408,114.9620156041667,115.22027966666668,61.0,94.0
409,115.16862685416669,115.31842001041669,64.0,94.0
410,115.78846060416669,116.09665571875001,57.0,94.0
411,115.99507185416668,116.26194471875002,61.0,94.0
412,115.58184935416669,116.27571880208336,54.0,94.0
413,115.37523810416668,116.57874863541669,42.0,94.0
414,116.40829435416669,116.68894130208335,54.0,94.0
415,116.20168310416669,116.70788066666668,66.0,94.0
416,116.6149056041667,116.91793543750002,57.0,94.0
417,116.82151685416669,117.03329338541668,61.0,94.0
418,117.44135060416669,117.79258972916669,63.0,94.0
419,117.64796185416668,117.82013789583335,66.0,94.0
420,117.23473935416669,117.83907726041669,59.0,94.0
421,117.85457310416669,118.11283716666668,71.0,94.0
422,118.06118435416668,118.27468264583335,59.0,94.0
423,117.02812810416668,118.30567433333336,47.0,94.0
424,118.2677956041667,118.54672079166669,63.0,94.0
425,118.47440685416669,118.64141761458336,66.0,94.0
426,119.09424060416669,119.38693987500002,61.0,94.0
427,118.88762935416669,119.49368902083336,56.0,94.0
428,119.3008518541667,119.54534183333335,64.0,94.0
429,119.50746310416669,119.75539660416669,68.0,94.0
430,118.68101810416668,120.13934917708335,49.0,94.0
431,119.92068560416669,120.19100198958336,61.0,94.0
432,119.71407435416668,120.19788903125001,56.0,94.0
433,120.12729685416669,120.33046458333335,64.0,94.0
434,120.74713060416668,120.98129002083336,61.0,94.0
435,120.95374185416668,121.17068366666669,64.0,94.0
436,120.54051935416669,121.19823183333335,56.0,94.0
437,121.16035310416669,121.5012616666667,68.0,94.0
438,120.33390810416668,121.64761130208335,49.0,94.0
439,121.36696435416668,121.67343770833335,56.0,94.0
440,121.57357560416669,121.70615115625002,61.0,94.0
441,122.81324310416669,123.25917905208335,61.0,94.0
442,123.22646560416669,123.58459177083336,63.0,94.0
443,123.63968810416668,124.08562405208335,64.0,94.0
444,124.05291060416668,124.42481085416668,68.0,94.0
445,124.46613310416669,124.87591208333335,63.0,94.0
446,121.98679810416668,125.03947932291669,49.0,94.0
447,122.40002060416668,125.06014044791668,56.0,94.0
448,124.87935560416669,125.28913458333335,64.0,94.0
449,126.11902310416669,126.56495905208335,61.0,94.0
450,126.53224560416669,126.89037177083335,63.0,94.0
451,126.94546810416668,127.39140405208335,64.0,94.0
452,127.35869060416668,127.73059085416668,68.0,94.0
453,127.77191310416669,128.18169208333336,63.0,94.0
454,125.2925781041667,128.3452593229167,49.0,94.0
455,125.70580060416668,128.3659204479167,56.0,94.0
456,128.18513560416667,128.59491458333335,64.0,94.0
457,141.8214781041667,142.2398658854167,64.0,94.0
458,142.23470060416668,142.61004437500003,68.0,94.0
459,141.8214781041667,143.1162419375,52.0,94.0
460,142.6479231041667,143.30563558333336,71.0,94.0
461,143.47436810416667,143.8600424375,45.0,94.0
462,143.47436810416667,143.91686053125002,64.0,94.0
463,143.8875906041667,144.3163089479167,69.0,94.0
464,143.8875906041667,144.345578875,52.0,94.0
465,144.30081310416668,144.6933744791667,73.0,94.0
466,144.30081310416668,145.07732705208335,57.0,94.0
467,144.71403560416667,145.09970993750002,69.0,94.0
468,145.12725810416669,145.55723033333334,66.0,94.0
469,145.12725810416669,145.8901102,47.0,94.0
470,145.5402466666667,145.93256936666668,63.0,94.0
471,145.5402466666667,146.10750113333336,54.0,94.0
472,145.94785466666667,146.34187573333335,66.0,94.0
473,145.94785466666667,146.69853273333334,59.0,94.0
474,146.35546266666668,146.7409919,71.0,94.0
475,146.7630706666667,147.1587901,64.0,94.0
476,146.7630706666667,147.53922423333336,52.0,94.0
477,147.17067866666667,147.57658830000003,68.0,94.0
478,147.57828666666668,147.99098976666667,66.0,94.0
479,147.9858946666667,148.35783696666667,68.0,94.0
480,147.57828666666668,148.39010593333336,51.0,94.0
481,148.39350266666668,148.79771393333334,49.0,94.0
482,148.39350266666668,148.82318943333334,64.0,94.0
483,148.8011106666667,149.20532193333335,68.0,94.0
484,149.20871866666667,150.02053793333334,73.0,94.0
485,150.0239346666667,150.41795573333334,64.0,94.0
486,150.0239346666667,150.57590383333334,45.0,94.0
487,150.43154266666667,150.7915964,61.0,94.0
488,150.43154266666667,151.4556577666667,49.0,94.0
489,150.83915066666668,151.52698916666668,69.0,94.0
490,150.83915066666668,151.73249153333336,57.0,94.0
491,151.65436666666668,152.00253183333334,68.0,94.0
492,151.65436666666668,152.05857793333334,45.0,94.0
493,152.06197466666669,152.46618593333335,47.0,94.0
494,152.06197466666669,152.46618593333335,59.0,94.0
495,152.46958266666667,153.25083133333334,66.0,94.0
496,152.46958266666667,153.28140193333334,54.0,94.0
497,153.2847986666667,154.03887346666667,64.0,94.0
498,153.2847986666667,154.09661793333333,52.0,94.0
499,155.32283866666668,155.8629192666667,56.0,94.0
500,155.7304466666667,156.1006906,68.0,94.0
501,155.7304466666667,156.12107100000003,61.0,94.0
502,155.7304466666667,156.1312612,64.0,94.0
503,154.91523066666667,156.1822122,49.0,94.0
504,156.13805466666668,156.27052726666668,56.0,94.0
505,156.9532706666667,157.35748193333336,56.0,94.0
506,157.36087866666668,157.76169320000002,68.0,94.0
507,157.36087866666668,157.7990572666667,63.0,94.0
508,157.36087866666668,157.83302460000002,59.0,94.0
509,156.5456626666667,157.90265763333335,44.0,94.0
510,157.7684866666667,158.17269793333335,56.0,94.0
511,158.17609466666667,158.7263654666667,45.0,94.0
512,158.58370266666668,158.90639233333334,57.0,94.0
513,158.9913106666667,159.48213863333336,47.0,94.0
514,159.39891866666667,159.61461123333333,59.0,94.0
515,160.2141346666667,160.78308750000002,56.0,94.0
516,160.62174266666668,161.04973106666668,68.0,94.0
517,160.62174266666668,161.0548261666667,64.0,94.0
518,160.62174266666668,161.06841310000001,61.0,94.0
519,159.80652666666668,161.1193641,49.0,94.0
520,161.0293506666667,161.2433448666667,56.0,94.0
521,161.84456666666668,162.39993256666668,56.0,94.0
522,162.2521746666667,162.59184800000003,61.0,94.0
523,161.43695866666667,162.69884510000003,49.0,94.0
524,162.2521746666667,162.71752713333336,64.0,94.0
525,162.2521746666667,162.7345108,68.0,94.0
526,162.65978266666667,162.84490463333336,56.0,94.0
527,163.4749986666667,164.01338090000002,56.0,94.0
528,163.88260666666667,164.34116566666668,68.0,94.0
529,163.88260666666667,164.36833953333334,59.0,94.0
530,163.88260666666667,164.38702156666668,63.0,94.0
531,163.06739066666668,164.41249706666667,44.0,94.0
532,164.29021466666669,164.4362742,56.0,94.0
533,165.10543066666668,165.6794786,57.0,94.0
534,165.5130386666667,165.96140746666669,61.0,94.0
535,164.6978226666667,166.00216826666667,45.0,94.0
536,165.5130386666667,166.04123070000003,69.0,94.0
537,165.5130386666667,166.0514209,64.0,94.0
538,165.9206466666667,166.29598570000002,57.0,94.0
539,167.9586866666667,170.44042435625002,71.0,94.0
540,166.7358626666667,170.45078346875002,59.0,94.0
541,167.55107866666668,170.45423650625003,66.0,94.0
542,167.14347066666667,170.45596302500002,63.0,94.0
543,166.32825466666668,170.46977517500002,47.0,94.0
544,171.6679791875,171.95112826250002,61.0,94.0
545,171.87516143750003,172.07889065000003,64.0,94.0
546,171.46079693750002,172.0823436875,56.0,94.0
547,172.0823436875,172.38275795,68.0,94.0
548,171.25361468750003,172.472536925,49.0,94.0
549,172.28952593750003,172.51052033750003,56.0,94.0
550,172.49670818750002,172.75050644375003,61.0,94.0
551,172.7038904375,172.89208098125002,64.0,94.0
552,173.32543718750003,173.62412493125,63.0,94.0
553,173.53261943750002,173.71045086875003,66.0,94.0
554,173.1182549375,173.71563042500003,59.0,94.0
555,173.73980168750003,173.97115520000003,71.0,94.0
556,172.91107268750002,174.10064410625003,47.0,94.0
557,173.94698393750002,174.12999492500003,59.0,94.0
558,174.1541661875,174.42350311250001,63.0,94.0
559,174.36134843750003,174.57716328125002,66.0,94.0
560,174.98289518750002,175.26259122500002,59.0,94.0
561,174.77571293750003,175.42315746875002,56.0,94.0
562,175.1900774375,175.43006354375,63.0,94.0
563,174.56853068750002,175.71321261875002,44.0,94.0
564,175.39725968750002,175.78399988750002,68.0,94.0
565,175.6044419375,175.80817115000002,56.0,94.0
566,175.81162418750003,176.07232851875003,59.0,94.0
567,176.01880643750002,176.1707400875,63.0,94.0
568,176.6403531875,176.92350226250002,61.0,94.0
569,176.43317093750002,177.04263205625003,56.0,94.0
570,176.84753543750003,177.0754359125,64.0,94.0
571,177.05471768750002,177.31369550000002,68.0,94.0
572,176.22598868750003,177.57785286875003,49.0,94.0
573,177.26189993750003,177.66245228750003,56.0,94.0
574,177.46908218750002,177.72806000000003,61.0,94.0
575,177.6762644375,177.82647156875,64.0,94.0
576,178.29781118750003,178.60685804375,57.0,94.0
577,178.50499343750002,178.77260384375003,61.0,94.0
578,178.09062893750001,178.78641599375,54.0,94.0
579,177.88344668750003,179.09028329375002,42.0,94.0
580,178.91935793750002,179.20078049375002,54.0,94.0
581,178.7121756875,179.21977220000002,66.0,94.0
582,179.1265401875,179.43040748750002,57.0,94.0
583,179.33372243750003,179.54608424375002,61.0,94.0
584,179.95526918750002,180.3074790125,63.0,94.0
585,180.1624514375,180.33510331250002,66.0,94.0
586,179.74808693750003,180.35409501875003,59.0,94.0
587,180.36963368750003,180.62861150000003,71.0,94.0
588,180.57681593750002,180.79090426250002,59.0,94.0
589,179.54090468750002,180.82198160000002,47.0,94.0
590,180.78399818750003,181.06369422500003,63.0,94.0
591,180.99118043750002,181.15865275625004,66.0,94.0
592,181.6127271875,181.9787491625,59.0,94.0
593,181.81990943750003,182.01155301875002,63.0,94.0
594,181.40554493750003,182.12550325625003,56.0,94.0
595,182.02709168750002,182.4690804875,68.0,94.0
596,181.1983626875,182.68489533125003,44.0,94.0
597,182.44145618750002,182.73496437500003,59.0,94.0
598,182.2342739375,182.76086215625003,56.0,94.0
599,182.6486384375,182.87481239375003,63.0,94.0
600,183.27018518750003,183.5844116,59.0,94.0
601,183.47736743750002,183.63102760625003,63.0,94.0
602,183.06300293750002,183.68109665000003,56.0,94.0
603,183.6845496875,184.01431476875,68.0,94.0
604,182.85582068750003,184.16624841875003,44.0,94.0
605,183.89173193750003,184.17660753125003,56.0,94.0
606,184.09891418750001,184.28192517500003,59.0,94.0
607,184.92764318750002,185.21079226250004,61.0,94.0
608,185.1348254375,185.33855465000002,64.0,94.0
609,184.72046093750004,185.34200768750003,56.0,94.0
610,185.34200768750003,185.64242195000003,68.0,94.0
611,184.51327868750002,185.73220092500003,49.0,94.0
612,185.54918993750002,185.7701843375,56.0,94.0
613,185.7563721875,186.01017044375,61.0,94.0
614,185.96355443750002,186.15174498125003,64.0,94.0
615,186.58510118750002,186.88378893125002,63.0,94.0
616,186.79228343750003,186.97011486875002,66.0,94.0
617,186.37791893750003,186.97529442500002,59.0,94.0
618,186.99946568750002,187.2308192,71.0,94.0
619,186.1707366875,187.36030810625002,47.0,94.0
620,187.2066479375,187.38965892500002,59.0,94.0
621,187.41383018750003,187.68316711250003,63.0,94.0
622,187.6210124375,187.83682728125,66.0,94.0
623,188.24255918750004,188.522255225,59.0,94.0
624,188.03537693750002,188.68282146875003,56.0,94.0
625,188.44974143750002,188.68972754375002,63.0,94.0
626,187.82819468750003,188.97287661875004,44.0,94.0
627,188.6569236875,189.04366388750003,68.0,94.0
628,188.86410593750003,189.06783515,56.0,94.0
629,189.07128818750002,189.33199251875,59.0,94.0
630,189.27847043750003,189.43040408750002,63.0,94.0
631,189.90001718750003,190.18316626250004,61.0,94.0
632,189.6928349375,190.30229605625001,56.0,94.0
633,190.10719943750001,190.33509991250003,64.0,94.0
634,190.31438168750003,190.5733595,68.0,94.0
635,189.48565268750002,190.83751686875001,49.0,94.0
636,190.52156393750002,190.92211628750002,56.0,94.0
637,190.7287461875,190.98772400000001,61.0,94.0
638,190.93592843750002,191.08613556875002,64.0,94.0
639,191.55747518750002,191.86652204375002,57.0,94.0
640,191.76465743750003,192.03226784375002,61.0,94.0
641,191.35029293750003,192.04607999375003,54.0,94.0
642,191.1431106875,192.34994729375,42.0,94.0
643,192.1790219375,192.4585869541667,54.0,94.0
644,191.97183968750002,192.47719313333334,66.0,94.0
645,192.38585370833334,192.68355257500002,57.0,94.0
646,192.58883020833335,192.79688112083335,61.0,94.0
647,193.19775970833334,193.54281975833334,63.0,94.0
648,193.40073620833334,193.56988329166668,66.0,94.0
649,192.99478320833333,193.58848947083334,59.0,94.0
650,193.60371270833335,193.85743333333335,71.0,94.0
651,193.80668920833335,194.01643159166667,59.0,94.0
652,192.79180670833335,194.04687806666666,47.0,94.0
653,194.00966570833336,194.28368398333333,63.0,94.0
654,194.21264220833334,194.37671487916668,66.0,94.0
655,194.82157170833335,195.10912175,61.0,94.0
656,194.61859520833335,195.21399294166667,56.0,94.0
657,195.02454820833336,195.26473706666667,64.0,94.0
658,195.22752470833333,195.47109650833335,68.0,94.0
659,194.41561870833334,195.8482945041667,49.0,94.0
660,195.63347770833334,195.89903862916668,61.0,94.0
661,195.43050120833334,195.9058045125,56.0,94.0
662,195.83645420833335,196.03604776666668,64.0,94.0
663,196.44538370833334,196.6754237416667,61.0,94.0
664,196.64836020833334,196.86148553333334,64.0,94.0
665,196.24240720833333,196.88854906666668,56.0,94.0
666,196.85133670833335,197.18624793333333,68.0,94.0
667,196.03943070833336,197.33002295416668,49.0,94.0
668,197.05431320833335,197.35539501666668,56.0,94.0
669,197.25728970833333,197.38753296250002,61.0,94.0
670,198.06919570833335,198.346596925,61.0,94.0
671,198.27217220833336,198.4717657666667,64.0,94.0
672,197.86621920833335,198.47514870833334,56.0,94.0
673,198.47514870833334,198.76946463333334,68.0,94.0
674,197.66324270833334,198.85742111666667,49.0,94.0
675,198.67812520833334,198.894633475,56.0,94.0
676,198.88110170833335,199.12974792083335,61.0,94.0
677,199.08407820833335,199.26844852916668,64.0,94.0
678,199.69300770833334,199.98563216250002,63.0,94.0
679,199.89598420833335,200.07020570416668,66.0,94.0
680,199.49003120833333,200.07528011666668,59.0,94.0
681,200.09896070833335,200.3256178,71.0,94.0
682,199.28705470833336,200.45247811250002,47.0,94.0
683,200.30193720833336,200.4812331166667,59.0,94.0
684,200.50491370833333,200.76878315833335,63.0,94.0
685,200.70789020833334,200.9193240625,66.0,94.0
686,201.31681970833336,201.59083798333336,59.0,94.0
687,201.11384320833335,201.74814477083333,56.0,94.0
688,201.51979620833333,201.75491065416668,63.0,94.0
689,200.91086670833334,202.03231187083335,44.0,94.0
690,201.72277270833334,202.101662175,68.0,94.0
691,201.92574920833334,202.12534276666668,56.0,94.0
692,202.12872570833335,202.38413780416667,59.0,94.0
693,202.33170220833335,202.4805516416667,63.0,94.0
694,202.94063170833334,203.21803292500002,61.0,94.0
695,202.73765520833334,203.33474441250002,56.0,94.0
696,203.14360820833335,203.36688235833336,64.0,94.0
697,203.34658470833335,203.60030533333335,68.0,94.0
698,202.53467870833333,203.85910037083335,49.0,94.0
699,203.54956120833336,203.94198244166668,56.0,94.0
700,203.75253770833334,204.00625833333334,61.0,94.0
701,203.95551420833334,204.10267217083336,64.0,94.0
702,204.56444370833336,204.8672169875,57.0,94.0
703,204.76742020833333,205.0295981875,61.0,94.0
704,204.36146720833335,205.0431299541667,54.0,94.0
705,204.15849070833335,205.34082882083334,42.0,94.0
706,205.17337320833335,205.44908295416667,54.0,94.0
707,204.97039670833334,205.46768913333335,66.0,94.0
708,205.37634970833335,205.674048575,57.0,94.0
709,205.57932620833336,205.78737712083336,61.0,94.0
710,206.18825570833334,206.53331575833334,63.0,94.0
711,206.39123220833335,206.5603792916667,66.0,94.0
712,205.98527920833334,206.57898547083335,59.0,94.0
713,206.59420870833335,206.84792933333335,71.0,94.0
714,206.79718520833336,207.00692759166668,59.0,94.0
715,205.78230270833333,207.03737406666667,47.0,94.0
716,207.00016170833334,207.27417998333334,63.0,94.0
717,207.20313820833334,207.3672108791667,66.0,94.0
718,207.81206770833336,208.17065952500002,59.0,94.0
719,208.01504420833334,208.20279747083333,63.0,94.0
720,207.60909120833335,208.31443454583334,56.0,94.0
721,208.21802070833334,208.6523235916667,68.0,94.0
722,207.40611470833335,208.86994182083336,44.0,94.0
723,208.62446845833335,208.92042925,59.0,94.0
724,208.42099720833335,208.94654343750003,56.0,94.0
725,208.83338195833335,209.06144586250002,63.0,94.0
726,209.46012245833336,209.77697460000002,59.0,94.0
727,209.66903595833335,209.82398013750003,63.0,94.0
728,209.25120895833336,209.87446756666668,56.0,94.0
729,209.87794945833335,210.21047011250002,68.0,94.0
730,209.04229545833334,210.36367334583335,44.0,94.0
731,210.08686295833334,210.37411902083335,56.0,94.0
732,210.29577645833336,210.4803167166667,59.0,94.0
733,211.13145475000002,211.41736825,61.0,94.0
734,211.34065975000001,211.546378,64.0,94.0
735,210.92251695833335,211.54986475,56.0,94.0
736,211.54986475,211.853212,68.0,94.0
737,210.71360345833335,211.9438675,49.0,94.0
738,211.75906975,211.98222175,56.0,94.0
739,211.96827475,212.224550875,61.0,94.0
740,212.17747975,212.367507625,64.0,94.0
741,212.80509475,213.106698625,63.0,94.0
742,213.01429975000002,213.193867375,66.0,94.0
743,212.59588975,213.19909750000002,59.0,94.0
744,213.22350475000002,213.457117,71.0,94.0
745,212.38668475,213.587870125,47.0,94.0
746,213.43270975000001,213.61750750000002,59.0,94.0
747,213.64191475,213.91388125,63.0,94.0
748,213.85111975,214.069041625,66.0,94.0
749,214.47873475,214.76116150000001,59.0,94.0
750,214.26952975,214.923295375,56.0,94.0
751,214.68793975,214.930268875,63.0,94.0
752,214.06032475,215.21618237500002,44.0,94.0
753,214.89714475,215.28766075000001,68.0,94.0
754,215.10634975000002,215.312068,56.0,94.0
755,215.31555475000002,215.578804375,59.0,94.0
756,215.52475975000002,215.67817675,63.0,94.0
757,216.15237475,216.43828825,61.0,94.0
758,215.94316975,216.55858112500002,56.0,94.0
759,216.36157975,216.59170525000002,64.0,94.0
760,216.57078475,216.832291,68.0,94.0
761,215.73396475,217.09902737500002,49.0,94.0
762,216.77998975,217.18445275000002,56.0,94.0
763,216.98919475,217.25070100000002,61.0,94.0
764,217.19839975000002,217.35007337500002,64.0,94.0
765,217.82601475,218.13807887500002,57.0,94.0
766,218.03521975,218.305442875,61.0,94.0
767,217.61680975000002,218.319389875,54.0,94.0
768,217.40760475000002,218.626223875,42.0,94.0
769,218.45362975,218.737799875,54.0,94.0
770,218.24442475,218.756977,66.0,94.0
771,218.66283475,218.96966875,57.0,94.0
772,218.87203975,219.08647487500002,61.0,94.0
773,219.49934427083335,219.84865899583335,63.0,94.0
774,219.70482352083334,219.87605622916666,66.0,94.0
775,219.29044975,219.89489182708334,59.0,94.0
776,219.91030277083334,220.16715183333335,71.0,94.0
777,220.11578202083334,220.3281105791667,59.0,94.0
778,219.08124475,220.3589324666667,47.0,94.0
779,220.32126127083333,220.59865825833333,63.0,94.0
780,220.52674052083336,220.6928362479167,66.0,94.0
781,221.142946875,221.43010875000002,61.0,94.0
782,220.93769902083335,221.53483837500002,56.0,94.0
783,221.34564937500002,221.58551400000002,64.0,94.0
784,221.548351875,221.79159487500002,68.0,94.0
785,220.73221977083335,222.1682836875,49.0,94.0
786,221.953756875,222.2189593125,61.0,94.0
787,221.751054375,222.2257160625,56.0,94.0
788,222.156459375,222.3557835,64.0,94.0
789,222.764566875,222.994296375,61.0,94.0
790,222.967269375,223.18010700000002,64.0,94.0
791,222.561864375,223.207134,56.0,94.0
792,223.16997187500002,223.504431,68.0,94.0
793,222.359161875,223.6480119375,49.0,94.0
794,223.372674375,223.67334975,56.0,94.0
795,223.57537687500002,223.70544431250002,61.0,94.0
796,224.38618687500002,224.663213625,61.0,94.0
797,224.588889375,224.7882135,64.0,94.0
798,224.183484375,224.791591875,56.0,94.0
799,224.791591875,225.0855105,68.0,94.0
800,223.98078187500002,225.17334825,49.0,94.0
801,224.994294375,225.210510375,56.0,94.0
802,225.196996875,225.44530743750002,61.0,94.0
803,225.399699375,225.58382081250002,64.0,94.0
804,226.007806875,226.3000363125,63.0,94.0
805,226.21050937500002,226.38449568750002,66.0,94.0
806,225.805104375,226.38956325,59.0,94.0
807,226.413211875,226.639563,71.0,94.0
808,225.602401875,226.7662520625,47.0,94.0
809,226.61591437500002,226.79496825,59.0,94.0
810,226.818616875,227.08213012500002,63.0,94.0
811,227.02131937500002,227.2324678125,66.0,94.0
812,227.629426875,227.90307525,59.0,94.0
813,227.42672437500002,228.0601696875,56.0,94.0
814,227.83212937500002,228.0669264375,63.0,94.0
815,227.224021875,228.3439531875,44.0,94.0
816,228.034831875,228.413209875,68.0,94.0
817,228.237534375,228.4368585,56.0,94.0
818,228.440236875,228.6953041875,59.0,94.0
819,228.642939375,228.791587875,63.0,94.0
820,229.25104687500001,229.52807362500002,61.0,94.0
821,229.048344375,229.6446275625,56.0,94.0
822,229.453749375,229.676722125,64.0,94.0
823,229.65645187500002,229.90983,68.0,94.0
824,228.845641875,230.1682756875,49.0,94.0
825,229.859154375,230.25104587500002,56.0,94.0
826,230.06185687500002,230.315235,61.0,94.0
827,230.264559375,230.4115186875,64.0,94.0
828,230.87266687500002,231.1750314375,57.0,94.0
829,231.075369375,231.33719343750002,61.0,94.0
830,230.669964375,231.3507069375,54.0,94.0
831,230.46726187500002,231.64800393750002,42.0,94.0
832,231.480774375,231.7561119375,54.0,94.0
833,231.27807187500002,231.774693,66.0,94.0
834,231.683476875,231.980773875,57.0,94.0
835,231.886179375,232.09394943750002,61.0,94.0
836,232.494286875,232.838881125,63.0,94.0
837,232.69698937500002,232.865908125,66.0,94.0
838,232.291584375,232.8844891875,59.0,94.0
839,232.899691875,233.15307,71.0,94.0
840,233.10239437500002,233.311853625,59.0,94.0
841,232.088881875,233.342259,47.0,94.0
842,233.305096875,233.57874525,63.0,94.0
843,233.50779937500002,233.67165056250002,66.0,94.0
844,234.115906875,234.474014625,59.0,94.0
845,234.31860937500002,234.50610918750002,63.0,94.0
846,233.91320437500002,234.61759556250001,56.0,94.0
847,234.521311875,234.95374387500001,68.0,94.0
848,233.710501875,235.1648923125,44.0,94.0
849,234.926716875,235.21387875000002,59.0,94.0
850,234.72401437500002,235.23921656250002,56.0,94.0
851,235.129419375,235.35070293750002,63.0,94.0
852,235.7379001875,236.0521266,59.0,94.0
853,235.94508243750002,236.09874260625003,63.0,94.0
854,235.534824375,236.14881165000003,56.0,94.0
855,236.1522646875,236.48202976875,68.0,94.0
856,235.332121875,236.63396341875003,44.0,94.0
857,236.35944693750002,236.64432253125003,56.0,94.0
858,236.5666291875,236.74964017500002,59.0,94.0
859,237.39535818750002,237.6785072625,61.0,94.0
860,237.6025404375,237.80626965000002,64.0,94.0
861,237.1881759375,237.80972268750003,56.0,94.0
862,237.80972268750003,238.11013695000003,68.0,94.0
863,236.98099368750002,238.19991592500003,49.0,94.0
864,238.01690493750002,238.2378993375,56.0,94.0
865,238.2240871875,238.47788544375,61.0,94.0
866,238.43126943750002,238.61945998125,64.0,94.0
867,239.0528161875,239.35150393125002,63.0,94.0
868,239.2599984375,239.43782986875001,66.0,94.0
869,238.84563393750003,239.443009425,59.0,94.0
870,239.46718068750002,239.6985342,71.0,94.0
871,238.6384516875,239.82802310625001,47.0,94.0
872,239.6743629375,239.85737392500002,59.0,94.0
873,239.88154518750002,240.15088211250003,63.0,94.0
874,240.0887274375,240.30454228125,66.0,94.0
875,240.7102741875,240.989970225,59.0,94.0
876,240.50309193750002,241.15053646875,56.0,94.0
877,240.91745643750002,241.15744254375002,63.0,94.0
878,240.29590968750003,241.44059161875,44.0,94.0
879,241.1246386875,241.51137888750003,68.0,94.0
880,241.33182093750003,241.53555015,56.0,94.0
881,241.53900318750001,241.79970751875,59.0,94.0
882,241.7461854375,241.89811908750002,63.0,94.0
883,242.36773218750002,242.6508812625,61.0,94.0
884,242.1605499375,242.77001105625,56.0,94.0
885,242.5749144375,242.80281491250003,64.0,94.0
886,242.78209668750003,243.0410745,68.0,94.0
887,241.95336768750002,243.30523186875,49.0,94.0
888,242.98927893750002,243.38983128750002,56.0,94.0
889,243.1964611875,243.455439,61.0,94.0
890,243.40364343750002,243.55385056875002,64.0,94.0
891,244.02519018750002,244.33423704375002,57.0,94.0
892,244.2323724375,244.49998284375002,61.0,94.0
893,243.81800793750003,244.51379499375003,54.0,94.0
894,243.6108256875,244.81766229375,42.0,94.0
895,244.6467369375,244.92815949375,54.0,94.0
896,244.43955468750002,244.9471512,66.0,94.0
897,244.85391918750003,245.1577864875,57.0,94.0
898,245.0611014375,245.27346324375003,61.0,94.0
899,245.6826481875,246.03485801250002,63.0,94.0
900,245.88983043750002,246.0624823125,66.0,94.0
901,245.47546593750002,246.08147401875001,59.0,94.0
902,246.0970126875,246.35599050000002,71.0,94.0
903,246.30419493750003,246.5182832625,59.0,94.0
904,245.2682836875,246.54936060000003,47.0,94.0
905,246.51137718750002,246.79107322500002,63.0,94.0
906,246.7185594375,246.88603175625002,66.0,94.0
907,247.34010618750003,247.633614375,61.0,94.0
908,247.1329239375,247.74065853750002,56.0,94.0
909,247.54728843750001,247.79245410000001,64.0,94.0
910,247.7544706875,248.0030893875,68.0,94.0
911,246.92574168750002,248.38810306875,49.0,94.0
912,248.1688351875,248.43989863125,61.0,94.0
913,247.96165293750002,248.44680470625002,56.0,94.0
914,248.37601743750002,248.57974665,64.0,94.0
915,248.99756418750002,249.23237073750002,61.0,94.0
916,249.2047464375,249.42228780000002,64.0,94.0
917,248.7903819375,249.4499121,56.0,94.0
918,249.41192868750002,249.7537794,68.0,94.0
919,248.5831996875,249.90053349375,49.0,94.0
920,249.6191109375,249.92643127500003,56.0,94.0
921,249.82629318750003,249.95923513125,61.0,94.0
922,250.6550221875,251.10909661875002,61.0,94.0
923,250.44783993750002,251.17297781250002,56.0,94.0
924,250.86220443750003,251.17470433125,64.0,94.0
925,251.0693866875,251.39742525000003,68.0,94.0
926,250.2406576875,251.48893074375002,49.0,94.0
927,251.27656893750003,251.55453845625001,56.0,94.0
928,251.48375118750002,251.77553285625,61.0,94.0
929,251.6909334375,251.86876486875002,64.0,94.0
930,252.1052979375,254.51033855625002,59.0,94.0
931,252.7268446875,254.51033855625002,71.0,94.0
932,252.51966243750002,254.5224241875,66.0,94.0
933,252.3124801875,254.53105678125002,63.0,94.0
934,251.89811568750002,254.55868108125003,47.0,94.0
935,255.6273961875,255.9243574125,61.0,94.0
936,255.83457843750003,256.05039328125,64.0,94.0
937,255.42021393750002,256.06075239375,56.0,94.0
938,256.0417606875,256.28692635000004,68.0,94.0
939,255.2130316875,256.48547600625,49.0,94.0
940,256.24894293750003,256.5320920125,56.0,94.0
941,256.4561251875,256.7599924875,61.0,94.0
942,256.6633074375,256.8635836125,64.0,94.0
943,257.2848541875,257.54728503750005,63.0,94.0
944,257.07767193750004,257.66296179375,59.0,94.0
945,257.4920364375,257.72166343125,66.0,94.0
946,257.69921868750004,257.99100035625,71.0,94.0
947,256.8704896875,258.04624895625,47.0,94.0
948,257.9064009375,258.1135831875,59.0,94.0
949,258.1135831875,258.3829201125,63.0,94.0
950,258.32076543750003,258.48996427500003,66.0,94.0
951,258.9423121875,259.25481208125,59.0,94.0
952,259.14949443750004,259.32905238750004,63.0,94.0
953,258.7351299375,259.415378325,56.0,94.0
954,259.3566766875,259.65018487500004,68.0,94.0
955,258.52794768750005,259.77415640000004,44.0,94.0
956,259.5638589375,260.0238163,56.0,94.0
957,259.77075966666666,260.0509901666667,59.0,94.0
958,259.9745636666667,260.19025623333334,63.0,94.0
959,260.5859756666667,260.83563556666667,61.0,94.0
960,260.7897796666667,261.027551,64.0,94.0
961,260.3821716666667,261.04962976666667,56.0,94.0
962,260.99358366666667,261.2177680666667,68.0,94.0
963,260.1783676666667,261.61688423333334,49.0,94.0
964,261.4011916666667,261.6491532,61.0,94.0
965,261.19738766666666,261.66274013333333,56.0,94.0
966,261.6049956666667,261.80540293333337,64.0,94.0
967,262.21640766666667,262.4949398,57.0,94.0
968,262.42021166666666,262.7174258333333,61.0,94.0
969,262.0126036666667,262.7225209333333,54.0,94.0
970,261.8087996666667,262.93651513333333,42.0,94.0
971,262.6240156666667,262.95519716666666,66.0,94.0
972,262.8278196666667,263.0520040666667,54.0,94.0
973,263.0316236666667,263.28807703333337,57.0,94.0
974,263.2354276666667,263.3916774,61.0,94.0
975,263.8468396666667,264.18990973333337,63.0,94.0
976,264.0506436666667,264.2119885,66.0,94.0
977,263.64303566666666,264.2646378666667,59.0,94.0
978,264.2544476666667,264.54656673333335,71.0,94.0
979,263.43923166666667,264.6297867,47.0,94.0
980,264.4582516666667,264.79622663333333,59.0,94.0
981,264.6620556666667,264.89812863333333,63.0,94.0
982,264.86585966666667,265.03569633333336,66.0,94.0
983,265.4772716666667,265.8288335666667,64.0,94.0
984,265.6810756666667,265.8492139666667,68.0,94.0
985,265.2734676666667,265.93752903333336,59.0,94.0
986,265.8848796666667,266.25002850000004,71.0,94.0
987,265.06966366666666,266.5523377666667,52.0,94.0
988,266.08868366666667,266.55403613333334,59.0,94.0
989,266.29248766666666,266.57101980000004,64.0,94.0
990,266.4962916666667,266.71707933333334,68.0,94.0
991,267.1077036666667,267.3726488666667,64.0,94.0
992,267.31150766666667,267.46266230000003,68.0,94.0
993,266.9038996666667,267.51701003333335,59.0,94.0
994,267.51531166666666,267.8804605,71.0,94.0
995,267.7191156666667,268.0401069666667,59.0,94.0
996,266.7000956666667,268.0553922666667,52.0,94.0
997,267.9229196666667,268.1776746666667,64.0,94.0
998,268.1267236666667,268.32713093333336,68.0,94.0
999,268.73813566666666,269.0234612666667,61.0,94.0
1000,268.5343316666667,269.1491404,57.0,94.0
1001,268.9419396666667,269.1932979333333,64.0,94.0
1002,269.1457436666667,269.38181663333336,69.0,94.0
1003,268.3305276666667,269.6654438666667,45.0,94.0
1004,269.5533516666667,269.85396256666667,61.0,94.0
1005,269.3495476666667,269.8811364333333,57.0,94.0
1006,269.7571556666667,269.95756293333335,64.0,94.0
1007,270.3685676666667,270.63521123333334,63.0,94.0
1008,270.5723716666667,270.7388116,66.0,94.0
1009,270.16476366666666,270.77277893333337,59.0,94.0
1010,270.7761756666667,270.9884715,71.0,94.0
1011,269.96095966666667,271.17699020000003,47.0,94.0
1012,270.9799796666667,271.2228461,59.0,94.0
1013,271.18378366666667,271.4674109,63.0,94.0
1014,271.38758766666666,271.5591227,66.0,94.0
1015,271.9989996666667,272.3556566666667,59.0,94.0
1016,272.2028036666667,272.40321093333336,63.0,94.0
1017,271.7951956666667,272.491526,56.0,94.0
1018,272.4066076666667,272.66985450000004,68.0,94.0
1019,271.5913916666667,272.84138953333337,44.0,94.0
1020,272.8142156666667,273.09104943333335,59.0,94.0
1021,272.61041166666666,273.10633473333337,56.0,94.0
1022,273.0180196666667,273.19804653333335,63.0,94.0
1023,273.6294316666667,273.9147572666667,61.0,94.0
1024,273.83323566666667,274.03364293333334,64.0,94.0
1025,273.4256276666667,274.0811972,56.0,94.0
1026,274.03703966666666,274.26122406666667,68.0,94.0
1027,273.2218236666667,274.3410473,49.0,94.0
1028,274.2408436666667,274.40558523333334,56.0,94.0
1029,274.4446476666667,274.68751410000004,61.0,94.0
1030,274.6484516666667,274.84885893333336,64.0,94.0
1031,275.25986366666666,275.5638713,57.0,94.0
1032,275.4636676666667,275.7116292,61.0,94.0
1033,275.05605966666667,275.7489932666667,54.0,94.0
1034,275.6674716666667,275.9969548,66.0,94.0
1035,274.8522556666667,276.05300090000003,42.0,94.0
1036,275.8712756666667,276.2992640666667,54.0,94.0
1037,276.0750796666667,276.3502150666667,57.0,94.0
1038,276.2788836666667,276.4589105333333,61.0,94.0
1039,276.8902956666667,277.22996900000004,63.0,94.0
1040,276.6864916666667,277.2707298,59.0,94.0
1041,277.0940996666667,277.31998243333334,66.0,94.0
1042,277.2979036666667,277.5730390666667,71.0,94.0
1043,276.48268766666666,277.7207969666667,47.0,94.0
1044,277.5017076666667,277.91950586666667,59.0,94.0
1045,277.70551166666667,277.95177483333333,63.0,94.0
1046,277.90931566666666,278.10972293333333,66.0,94.0
1047,278.1131196666667,278.1997363666667,64.0,94.0
1048,278.1131196666667,278.2048314666667,61.0,94.0
1049,278.1131196666667,278.22860860000003,56.0,94.0
1050,278.1131196666667,278.24219553333336,68.0,94.0
1051,278.1131196666667,278.2557824666667,49.0,94.0
1052,278.5207276666667,278.5818688666667,64.0,94.0
1053,278.5207276666667,278.5869639666667,61.0,94.0
1054,278.5207276666667,278.61413783333336,56.0,94.0
1055,278.5207276666667,278.61923293333336,68.0,94.0
1056,278.5207276666667,278.6209313,49.0,94.0
1057,278.92833566666667,279.0098572666667,64.0,94.0
1058,278.92833566666667,279.02174583333334,61.0,94.0
1059,278.92833566666667,279.03533276666667,68.0,94.0
1060,278.92833566666667,279.0404278666667,49.0,94.0
1061,278.92833566666667,279.04722133333337,56.0,94.0
1062,279.3359436666667,279.3919897666667,56.0,94.0
1063,279.3359436666667,279.39368813333334,64.0,94.0
1064,279.3359436666667,279.40048160000003,61.0,94.0
1065,279.3359436666667,279.40727506666667,68.0,94.0
1066,279.3359436666667,279.41067180000005,49.0,94.0
1067,279.7435516666667,279.8046928666667,64.0,94.0
1068,279.7435516666667,279.8131847,68.0,94.0
1069,279.7435516666667,279.8148830666667,61.0,94.0
1070,279.7435516666667,279.82167653333335,49.0,94.0
1071,279.7435516666667,279.8607389666667,56.0,94.0
1072,280.1511596666667,280.20550740000004,64.0,94.0
1073,280.1511596666667,280.2190943333334,68.0,94.0
1074,280.1511596666667,280.2224910666667,61.0,94.0
1075,280.1511596666667,280.25306166666667,49.0,94.0
1076,280.1511596666667,280.25645840000004,56.0,94.0
1077,280.5587676666667,280.61821050000003,64.0,94.0
1078,280.5587676666667,280.62670233333336,61.0,94.0
1079,280.5587676666667,280.643686,56.0,94.0
1080,280.5587676666667,280.6453843666667,68.0,94.0
1081,280.5587676666667,280.6606696666667,49.0,94.0
1082,280.96670500000005,281.04288220000007,61.0,94.0
1083,280.96670500000005,281.04288220000007,64.0,94.0
1084,280.96670500000005,281.06885170000004,68.0,94.0
1085,280.96670500000005,281.07577690000005,49.0,94.0
1086,280.96670500000005,281.09482120000007,56.0,94.0
1087,281.79772900000006,282.0626179,61.0,94.0
1088,281.58997300000004,282.15610810000004,57.0,94.0
1089,282.005485,282.16476460000007,64.0,94.0
1090,282.21324100000004,282.44869780000005,69.0,94.0
1091,281.382217,282.53872540000003,45.0,94.0
1092,282.6287530000001,282.89364190000003,61.0,94.0
1093,282.42099700000006,282.97674430000006,57.0,94.0
1094,282.83650900000004,283.03733980000004,64.0,94.0
1095,283.45977700000003,283.7385163000001,63.0,94.0
1096,283.66753300000005,283.82681260000004,66.0,94.0
1097,283.25202100000007,283.85278210000007,59.0,94.0
1098,283.87528900000007,284.07785110000003,71.0,94.0
1099,283.04426500000005,284.3288896,47.0,94.0
1100,284.083045,284.37909730000007,59.0,94.0
1101,284.29080100000004,284.5626151000001,63.0,94.0
1102,284.49855700000006,284.66129920000003,66.0,94.0
1103,284.91406900000004,285.32611840000004,56.0,94.0
1104,285.12182500000006,285.41960860000006,59.0,94.0
1105,285.329581,285.47501020000004,63.0,94.0
1106,284.706313,285.87494050000004,44.0,94.0
1107,285.53733700000004,285.8853283,68.0,94.0
1108,285.74509300000005,286.18484320000005,56.0,94.0
1109,285.95284900000007,286.21427530000005,59.0,94.0
1110,286.16060500000003,286.35797320000006,63.0,94.0
1111,286.783873,287.03837410000006,61.0,94.0
1112,286.99162900000005,287.13878950000003,64.0,94.0
1113,286.57611700000007,287.29633780000006,56.0,94.0
1114,287.19938500000006,287.44522960000006,68.0,94.0
1115,286.36836100000005,287.68241770000003,49.0,94.0
1116,287.407141,287.73089410000006,56.0,94.0
1117,287.61489700000004,287.87805460000004,61.0,94.0
1118,287.82265300000006,288.00270820000003,64.0,94.0
1119,288.44592100000006,288.7627489,57.0,94.0
1120,288.6536770000001,288.95319190000004,61.0,94.0
1121,288.23816500000004,288.96184840000006,54.0,94.0
1122,288.030409,289.1921113,42.0,94.0
1123,288.86143300000003,289.2665572,66.0,94.0
1124,289.06918900000005,289.33061530000003,54.0,94.0
1125,289.27694500000007,289.55395300000004,57.0,94.0
1126,289.48470100000003,289.68899440000007,61.0,94.0
1127,290.107969,290.46115420000007,63.0,94.0
1128,289.90021300000006,290.4905863,59.0,94.0
1129,290.31572500000004,290.5200184,66.0,94.0
1130,290.52348100000006,290.77798210000003,71.0,94.0
1131,289.69245700000005,290.80741420000004,47.0,94.0
1132,290.731237,291.1605994,59.0,94.0
1133,290.93899300000004,291.18483760000004,63.0,94.0
1134,291.14674900000006,291.3441172,66.0,94.0
1135,291.77001700000005,292.18206640000005,64.0,94.0
1136,291.56226100000003,292.20284200000003,59.0,94.0
1137,291.97777300000007,292.20976720000004,68.0,94.0
1138,292.39328500000005,292.7620519000001,59.0,94.0
1139,292.18552900000003,292.76551450000005,71.0,94.0
1140,291.354505,292.89709330000005,52.0,94.0
1141,292.60104100000007,292.92133150000006,64.0,94.0
1142,292.808797,292.96634530000006,68.0,94.0
1143,293.432065,293.75581810000006,59.0,94.0
1144,293.22430900000006,293.8441144,56.0,94.0
1145,293.63982100000004,293.8787404,63.0,94.0
1146,293.01655300000004,294.1644049,44.0,94.0
1147,293.84757700000006,294.20249350000006,68.0,94.0
1148,294.26308900000004,294.5539474,59.0,94.0
1149,294.055333,294.5712604,56.0,94.0
1150,294.47084500000005,294.67513840000004,63.0,94.0
1151,295.30186900000007,296.9562389333334,64.0,94.0
1152,294.67860100000007,296.98001606666674,49.0,94.0
1153,295.509625,297.0224752333334,68.0,94.0
1154,294.88635700000003,297.04625236666675,56.0,94.0
1155,295.09411300000005,297.05134746666675,61.0,94.0
