,start,end,pitch,velocity
0,21.5033256,21.9860082,57.0,90.0
1,21.9454776,22.5737019,60.0,95.0
2,22.8297816,23.0932305,64.0,99.0
3,23.0508576,23.3087796,62.0,75.0
4,23.2719336,23.986746,60.0,70.0
5,25.0405416,25.3463634,65.0,102.0
6,25.4826936,25.7092965,65.0,112.0
7,25.9248456,26.308044000000002,62.0,107.0
8,26.3669976,26.709665400000002,60.0,65.0
9,26.8091496,27.8113608,60.0,99.0
10,28.5777576,28.868841,65.0,107.0
11,29.019909600000002,29.767883400000002,65.0,102.0
12,29.904213600000002,30.2358276,62.0,107.0
13,30.346365600000002,31.0685472,72.0,127.0
14,31.672821600000002,32.0836545,69.0,97.0
15,32.1149736,32.8353129,67.0,93.0
16,32.5571256,32.8353129,67.0,102.0
17,32.9992776,33.3714222,69.0,95.0
18,33.4414296,33.8964777,65.0,88.0
19,33.8835816,34.4860137,67.0,95.0
20,35.6521896,35.946957600000005,69.0,122.0
21,36.0943416,36.5254398,69.0,112.0
22,36.5364936,36.9896994,67.0,96.0
23,36.9786456,37.4336937,69.0,100.0
24,37.4207976,38.2129866,72.0,117.0
25,39.1894056,39.675772800000004,62.0,107.0
26,39.6315576,39.675772800000004,62.0,100.0
27,39.852633600000004,40.025809800000005,65.0,89.0
28,40.0737096,40.4605926,60.0,89.0
29,40.5158616,40.9027446,62.0,96.0
30,40.9580136,41.799944700000005,65.0,100.0
31,42.7266216,43.135612200000004,65.0,107.0
32,43.1687736,43.585133400000004,62.0,92.0
33,43.6109256,43.9849125,69.0,112.0
34,44.0530776,44.369953200000005,69.0,112.0
35,44.4952296,44.990808300000005,67.0,112.0
36,44.9373816,45.3058416,64.0,97.0
37,45.3795336,45.788524200000005,62.0,100.0
38,45.8216856,46.2951567,57.0,88.0
39,46.2638376,47.208937500000005,60.0,96.0
40,49.8010536,50.1142446,74.0,127.0
41,50.2432056,50.6521962,74.0,127.0
42,50.6853576,51.0556599,72.0,100.0
43,51.1275096,51.4867581,74.0,122.0
44,51.5696616,52.527657600000005,77.0,127.0
45,53.338269600000004,53.6404068,74.0,127.0
46,53.780421600000004,54.0659781,77.0,107.0
47,54.222573600000004,54.5062878,74.0,97.0
48,54.664725600000004,54.9539667,69.0,97.0
49,55.106877600000004,55.549029600000004,74.0,102.0
50,55.549029600000004,56.208573,72.0,100.0
51,56.875485600000005,57.417121800000004,72.0,112.0
52,57.5387136,57.765316500000004,74.0,102.0
53,57.759789600000005,58.1724648,77.0,97.0
54,58.201941600000005,58.640409000000005,76.0,112.0
55,58.644093600000005,59.082561,74.0,122.0
56,59.086245600000005,59.3017947,72.0,100.0
57,59.3073216,59.5136592,74.0,99.0
58,59.528397600000005,59.8508001,72.0,112.0
59,59.970549600000005,60.3795402,69.0,99.0
60,60.4127016,60.8474844,67.0,112.0
61,60.8548536,61.1072487,67.0,102.0
62,61.2970056,61.484920200000005,69.0,117.0
63,61.5180816,61.7262615,67.0,92.0
64,61.7391576,62.1702558,65.0,100.0
65,62.1813096,62.7984801,67.0,112.0
66,63.9499176,64.2299472,69.0,127.0
67,64.3920696,64.6684146,69.0,112.0
68,64.8342216,65.1676779,67.0,107.0
69,65.2763736,65.6816796,69.0,112.0
70,65.7185256,66.5143992,72.0,127.0
71,67.4871336,67.9034934,62.0,127.0
72,67.9292856,68.257215,65.0,100.0
73,68.37143760000001,68.791482,60.0,100.0
74,68.8135896,69.196788,62.0,112.0
75,69.25574160000001,70.1031996,65.0,127.0
76,71.02434960000001,71.4038634,65.0,107.0
77,71.4665016,71.8570692,62.0,100.0
78,71.90865360000001,72.291852,72.0,122.0
79,72.3508056,72.5921469,69.0,112.0
80,72.5718816,72.7763769,72.0,99.0
81,72.79295760000001,73.581462,67.0,100.0
82,74.56156560000001,74.8084338,62.0,117.0
83,75.0037176,75.19347450000001,62.0,100.0
84,75.2247936,75.4937694,65.0,93.0
85,75.44586960000001,75.72037230000001,62.0,100.0
86,75.8880216,76.2306894,57.0,102.0
87,76.33017360000001,76.7539026,62.0,100.0
88,76.7723256,77.8519134,60.0,102.0
89,78.09878160000001,78.4119726,74.0,127.0
90,78.5409336,78.9499242,74.0,127.0
91,78.9830856,79.3533879,72.0,100.0
92,79.4252376,79.78448610000001,74.0,122.0
93,79.8673896,80.8253856,77.0,127.0
94,81.6359976,81.9381348,74.0,127.0
95,82.0781496,82.3637061,77.0,107.0
96,82.5203016,82.8040158,74.0,97.0
97,82.9624536,83.2516947,69.0,97.0
98,83.4046056,83.8467576,74.0,102.0
99,83.8467576,84.50630100000001,72.0,100.0
100,85.1732136,85.7148498,72.0,112.0
101,85.8364416,86.0630445,74.0,102.0
102,86.0575176,86.4701928,77.0,97.0
103,86.4996696,86.938137,76.0,112.0
104,86.9418216,87.380289,74.0,122.0
105,87.3839736,87.59952270000001,72.0,100.0
106,87.6050496,87.8113872,74.0,99.0
107,87.8261256,88.14852810000001,72.0,112.0
108,88.2682776,88.6772682,69.0,99.0
109,88.7104296,89.1452124,67.0,112.0
110,89.1525816,89.4049767,67.0,102.0
111,89.5947336,89.7826482,69.0,117.0
112,89.81580960000001,90.0239895,67.0,92.0
113,90.0368856,90.4679838,65.0,100.0
114,90.4790376,91.0962081,67.0,112.0
115,92.2476456,92.5276752,69.0,127.0
116,92.6897976,92.9661426,69.0,112.0
117,93.1319496,93.46540590000001,67.0,107.0
118,93.5741016,93.9794076,69.0,112.0
119,94.0162536,94.8121272,72.0,127.0
120,95.7848616,96.20122140000001,62.0,127.0
121,96.2270136,96.55494300000001,65.0,100.0
122,96.6691656,97.08921000000001,60.0,100.0
123,97.1113176,97.494516,62.0,112.0
124,97.5534696,98.4009276,65.0,127.0
125,99.3220776,99.7015914,65.0,107.0
126,99.76422960000001,100.1547972,62.0,100.0
127,100.2063816,100.58958,72.0,122.0
128,100.64853360000001,100.88987490000001,69.0,112.0
129,100.8696096,101.07410490000001,72.0,99.0
130,101.0906856,101.87919000000001,67.0,100.0
131,102.8592936,103.10616180000001,62.0,117.0
132,103.30144560000001,103.4912025,62.0,100.0
133,103.5225216,103.7914974,65.0,93.0
134,103.7435976,104.0181003,62.0,100.0
135,104.18574960000001,104.52841740000001,57.0,102.0
136,104.6279016,105.05163060000001,62.0,100.0
137,105.07005360000001,106.14964140000001,60.0,102.0
138,120.5453736,121.02805620000001,57.0,90.0
139,120.9875256,121.6157499,60.0,95.0
140,121.8718296,122.1352785,64.0,99.0
141,122.09290560000001,122.3508276,62.0,75.0
142,122.3139816,123.028794,60.0,70.0
143,124.0825896,124.38841140000001,65.0,102.0
144,124.5247416,124.7513445,65.0,112.0
145,124.9668936,125.350092,62.0,107.0
146,125.4090456,125.7517134,60.0,65.0
147,125.8511976,126.8534088,60.0,99.0
148,127.6198056,127.910889,65.0,107.0
149,128.0619576,128.8099314,65.0,102.0
150,128.9462616,129.27787560000002,62.0,107.0
151,129.3884136,130.1105952,72.0,127.0
152,130.71486960000001,131.12570250000002,69.0,97.0
153,131.1570216,131.8773609,67.0,93.0
154,131.5991736,131.8773609,67.0,102.0
155,132.0413256,132.4134702,69.0,95.0
156,132.48347760000001,132.9385257,65.0,88.0
157,132.9256296,133.5280617,67.0,95.0
158,134.6942376,134.9890056,69.0,122.0
159,135.1363896,135.5674878,69.0,112.0
160,135.5785416,136.0317474,67.0,96.0
161,136.02069360000002,136.47574170000001,69.0,100.0
162,136.4628456,137.25503460000002,72.0,117.0
163,138.2314536,138.7178208,62.0,107.0
164,138.6736056,138.7178208,62.0,100.0
165,138.8946816,139.0678578,65.0,89.0
166,139.1157576,139.5026406,60.0,89.0
167,139.55790960000002,139.9447926,62.0,96.0
168,140.0000616,140.8419927,65.0,100.0
169,141.7686696,142.1776602,65.0,107.0
170,142.2108216,142.6271814,62.0,92.0
171,142.6529736,143.0269605,69.0,112.0
172,143.09512560000002,143.4120012,69.0,112.0
173,143.5372776,144.0328563,67.0,112.0
174,143.9794296,144.3478896,64.0,97.0
175,144.4215816,144.8305722,62.0,100.0
176,144.86373360000002,145.3372047,57.0,88.0
177,145.3058856,146.2509855,60.0,96.0
178,148.8431016,149.1562926,74.0,127.0
179,149.2852536,149.6942442,74.0,127.0
180,149.7274056,150.09770790000002,72.0,100.0
181,150.16955760000002,150.5288061,74.0,122.0
182,150.6117096,151.5697056,77.0,127.0
183,152.3803176,152.68245480000002,74.0,127.0
184,152.8224696,153.10802610000002,77.0,107.0
185,153.2646216,153.54833580000002,74.0,97.0
186,153.7067736,153.99601470000002,69.0,97.0
187,154.1489256,154.5910776,74.0,102.0
188,154.5910776,155.250621,72.0,100.0
189,155.9175336,156.4591698,72.0,112.0
190,156.58076160000002,156.8073645,74.0,102.0
191,156.8018376,157.2145128,77.0,97.0
192,157.2439896,157.682457,76.0,112.0
193,157.6861416,158.124609,74.0,122.0
194,158.1282936,158.3438427,72.0,100.0
195,158.34936960000002,158.5557072,74.0,99.0
196,158.5704456,158.8928481,72.0,112.0
197,159.0125976,159.4215882,69.0,99.0
198,159.4547496,159.8895324,67.0,112.0
199,159.8969016,160.1492967,67.0,102.0
200,160.3390536,160.5269682,69.0,117.0
201,160.5601296,160.76830950000002,67.0,92.0
202,160.7812056,161.2123038,65.0,100.0
203,161.2233576,161.8405281,67.0,112.0
204,162.99196560000001,163.2719952,69.0,127.0
205,163.4341176,163.7104626,69.0,112.0
206,163.8762696,164.2097259,67.0,107.0
207,164.3184216,164.72372760000002,69.0,112.0
208,164.76057360000001,165.5564472,72.0,127.0
209,166.52918160000002,166.9455414,62.0,127.0
210,166.9713336,167.299263,65.0,100.0
211,167.4134856,167.83353,60.0,100.0
212,167.8556376,168.238836,62.0,112.0
213,168.29778960000002,169.1452476,65.0,127.0
214,170.06639760000002,170.4459114,65.0,107.0
215,170.5085496,170.8991172,62.0,100.0
216,170.9507016,171.3339,72.0,122.0
217,171.3928536,171.6341949,69.0,112.0
218,171.6139296,171.8184249,72.0,99.0
219,171.83500560000002,172.62351,67.0,100.0
220,173.60361360000002,173.8504818,62.0,117.0
221,174.0457656,174.2355225,62.0,100.0
222,174.2668416,174.5358174,65.0,93.0
223,174.4879176,174.7624203,62.0,100.0
224,174.9300696,175.2727374,57.0,102.0
225,175.37222160000002,175.7959506,62.0,100.0
226,175.8143736,176.8939614,60.0,102.0
227,177.14082960000002,177.4540206,74.0,127.0
228,177.5829816,177.9919722,74.0,127.0
229,178.0251336,178.3954359,72.0,100.0
230,178.4672856,178.8265341,74.0,122.0
231,178.90943760000002,179.8674336,77.0,127.0
232,180.67804560000002,180.9801828,74.0,127.0
233,181.1201976,181.4057541,77.0,107.0
234,181.5623496,181.8460638,74.0,97.0
235,182.0045016,182.2937427,69.0,97.0
236,182.44665360000002,182.8888056,74.0,102.0
237,182.8888056,183.548349,72.0,100.0
238,184.21526160000002,184.75689780000002,72.0,112.0
239,184.8784896,185.1050925,74.0,102.0
240,185.0995656,185.5122408,77.0,97.0
241,185.5417176,185.980185,76.0,112.0
242,185.98386960000002,186.422337,74.0,122.0
243,186.4260216,186.64157070000002,72.0,100.0
244,186.6470976,186.8534352,74.0,99.0
245,186.8681736,187.19057610000002,72.0,112.0
246,187.3103256,187.7193162,69.0,99.0
247,187.7524776,188.1872604,67.0,112.0
248,188.1946296,188.44702470000001,67.0,102.0
249,188.6367816,188.8246962,69.0,117.0
250,188.85785760000002,189.0660375,67.0,92.0
251,189.0789336,189.5100318,65.0,100.0
252,189.5210856,190.1382561,67.0,112.0
253,191.2896936,191.5697232,69.0,127.0
254,191.7318456,192.0081906,69.0,112.0
255,192.1739976,192.5074539,67.0,107.0
256,192.6161496,193.0214556,69.0,112.0
257,193.0583016,193.85417520000001,72.0,127.0
258,194.8269096,195.2432694,62.0,127.0
259,195.26906160000001,195.596991,65.0,100.0
260,195.7112136,196.131258,60.0,100.0
261,196.1533656,196.536564,62.0,112.0
262,196.5955176,197.4429756,65.0,127.0
263,198.3641256,198.7436394,65.0,107.0
264,198.80627760000002,199.1968452,62.0,100.0
265,199.2484296,199.631628,72.0,122.0
266,199.6905816,199.93192290000002,69.0,112.0
267,199.9116576,200.1161529,72.0,99.0
268,200.1327336,200.92123800000002,67.0,100.0
269,201.9013416,202.14820980000002,62.0,117.0
270,202.34349360000002,202.5332505,62.0,100.0
271,202.5645696,202.83354540000002,65.0,93.0
272,202.7856456,203.0601483,62.0,100.0
273,203.2277976,203.57046540000002,57.0,102.0
274,203.6699496,204.0936786,62.0,100.0
275,204.11210160000002,205.1916894,60.0,102.0
276,205.4385576,205.7517486,74.0,127.0
277,205.88070960000002,206.2897002,74.0,127.0
278,206.3228616,206.6931639,72.0,100.0
279,206.7650136,207.1242621,74.0,122.0
280,207.2071656,208.1651616,77.0,127.0
281,208.9757736,209.2779108,74.0,127.0
282,209.41792560000002,209.7034821,77.0,107.0
283,209.8600776,210.1437918,74.0,97.0
284,210.3022296,210.5914707,69.0,97.0
285,210.7443816,211.18653360000002,74.0,102.0
286,211.18653360000002,211.846077,72.0,100.0
287,212.5129896,213.0546258,72.0,112.0
288,213.1762176,213.40282050000002,74.0,102.0
289,213.3972936,213.8099688,77.0,97.0
290,213.8394456,214.277913,76.0,112.0
291,214.2815976,214.720065,74.0,122.0
292,214.72374960000002,214.9392987,72.0,100.0
293,214.9448256,215.1511632,74.0,99.0
294,215.1659016,215.4883041,72.0,112.0
295,215.6080536,216.01704420000002,69.0,99.0
296,216.0502056,216.48498840000002,67.0,112.0
297,216.49235760000002,216.74475270000002,67.0,102.0
298,216.9345096,217.1224242,69.0,117.0
299,217.1555856,217.3637655,67.0,92.0
300,217.3766616,217.8077598,65.0,100.0
301,217.8188136,218.4359841,67.0,112.0
302,219.5874216,219.8674512,69.0,127.0
303,220.02957360000002,220.3059186,69.0,112.0
304,220.4717256,220.8051819,67.0,107.0
305,220.9138776,221.3191836,69.0,112.0
306,221.3560296,222.15190320000002,72.0,127.0
307,223.1246376,223.5409974,62.0,127.0
308,223.5667896,223.894719,65.0,100.0
309,224.0089416,224.428986,60.0,100.0
310,224.4510936,224.834292,62.0,112.0
311,224.8932456,225.74070360000002,65.0,127.0
312,226.6618536,227.0413674,65.0,107.0
313,227.1040056,227.49457320000002,62.0,100.0
314,227.54615760000002,227.929356,72.0,122.0
315,227.9883096,228.2296509,69.0,112.0
316,228.20938560000002,228.4138809,72.0,99.0
317,228.4304616,229.218966,67.0,100.0
318,230.1990696,230.4459378,62.0,117.0
319,230.6412216,230.83097850000001,62.0,100.0
320,230.8622976,231.1312734,65.0,93.0
321,231.08337360000002,231.35787630000002,62.0,100.0
322,231.5255256,231.8681934,57.0,102.0
323,231.9676776,232.3914066,62.0,100.0
324,232.4098296,233.4894174,60.0,102.0
325,233.7362856,234.1029033,65.0,112.0
326,234.1784376,234.4382019,62.0,107.0
327,234.62058960000002,234.9135153,72.0,117.0
328,235.0627416,235.2819753,70.0,127.0
329,235.28381760000002,235.5067359,69.0,93.0
330,235.5048936,236.51078940000002,67.0,90.0
331,237.30666300000001,237.84645690000002,62.0,117.0
332,237.8519838,238.56863850000002,65.0,97.0
333,238.56126930000002,239.1526476,62.0,99.0
334,239.2152858,240.7038642,57.0,112.0
335,241.083378,244.60401330000002,60.0,100.0
