,start,end,pitch,velocity
0,0.2800296,3.6532809,62.0,51.0
1,0.2800296,3.6532809,65.0,57.0
2,0.2800296,3.6606501000000002,69.0,55.0
3,0.2800296,3.6735462,50.0,56.0
4,0.2800296,3.6882846000000002,38.0,43.0
5,3.8172456,6.7501872,50.0,35.0
6,3.8172456,6.9030981,38.0,48.0
7,3.8172456,7.0265322,69.0,47.0
8,3.8172456,7.0467975,62.0,50.0
9,3.8172456,7.0504821,65.0,50.0
10,8.2387656,8.502214500000001,50.0,67.0
11,7.3544616000000005,8.6459139,38.0,81.0
12,7.796613600000001,8.7048675,45.0,67.0
13,8.2387656,9.1617579,65.0,95.0
14,8.6809176,9.1691271,62.0,72.0
15,10.007373600000001,10.2339765,48.0,56.0
16,9.565221600000001,10.2487149,43.0,50.0
17,9.123069600000001,10.272664800000001,36.0,78.0
18,10.007373600000001,10.8474624,64.0,92.0
19,10.449525600000001,10.9119429,60.0,89.0
20,10.8916776,11.934419400000001,35.0,72.0
21,11.3338296,12.0283767,47.0,44.0
22,11.7759816,12.7155546,62.0,88.0
23,11.7759816,12.735819900000001,65.0,81.0
24,12.2181336,12.7395045,59.0,64.0
25,13.1024376,13.6938159,52.0,69.0
26,12.6602856,13.752769500000001,45.0,75.0
27,13.9867416,14.4012591,57.0,79.0
28,13.5445896,14.4123129,64.0,86.0
29,13.5445896,14.4233667,60.0,89.0
30,14.4288936,15.5655927,38.0,77.0
31,14.8710456,15.567435,45.0,65.0
32,15.3131976,15.661392300000001,50.0,68.0
33,15.7553496,16.2417168,57.0,73.0
34,15.3131976,16.2601398,62.0,89.0
35,15.3131976,16.2840897,65.0,79.0
36,16.6396536,17.4502656,53.0,61.0
37,16.1975016,17.520273,47.0,71.0
38,17.5239576,17.9845326,62.0,64.0
39,17.0818056,18.0342747,65.0,96.0
40,18.4082616,19.086228000000002,55.0,63.0
41,17.9661096,19.3754691,43.0,76.0
42,18.8504136,19.6997139,62.0,95.0
43,19.2925656,19.7734059,55.0,66.0
44,20.1768696,20.724032700000002,48.0,89.0
45,20.3979456,21.057489,55.0,77.0
46,20.8400976,21.0611736,48.0,72.0
47,19.7347176,21.2914611,36.0,76.0
48,20.6190216,21.4554258,64.0,92.0
49,21.0611736,21.4941141,60.0,77.0
50,21.2822496,21.4977987,55.0,74.0
51,19.9557936,21.5014833,43.0,52.0
52,21.5033256,22.6584477,38.0,73.0
53,21.9454776,22.6676592,45.0,52.0
54,22.3876296,22.765301100000002,50.0,66.0
55,22.8297816,23.3990523,62.0,61.0
56,22.3876296,23.4101061,65.0,81.0
57,23.7140856,24.2944101,52.0,48.0
58,23.2719336,24.4399518,45.0,72.0
59,24.5983896,25.0534377,60.0,72.0
60,24.1562376,25.066333800000002,64.0,89.0
61,25.4826936,26.0280144,45.0,40.0
62,25.0405416,26.0390682,38.0,70.0
63,25.9248456,26.0980218,50.0,56.0
64,25.9248456,26.8257303,62.0,69.0
65,25.9248456,26.8275726,65.0,65.0
66,26.3669976,26.932583700000002,57.0,56.0
67,27.2513016,27.901633500000003,52.0,59.0
68,26.8091496,27.966114,45.0,76.0
69,28.1356056,28.5501231,57.0,67.0
70,27.6934536,28.5777576,60.0,81.0
71,27.6934536,28.5851268,64.0,77.0
72,29.019909600000002,29.681295300000002,53.0,56.0
73,29.462061600000002,29.6886645,58.0,64.0
74,28.5777576,29.769725700000002,46.0,90.0
75,29.462061600000002,30.340838700000003,65.0,90.0
76,29.904213600000002,30.348207900000002,62.0,76.0
77,31.230669600000002,31.4885916,53.0,56.0
78,30.346365600000002,31.6028142,41.0,74.0
79,30.788517600000002,31.987854900000002,48.0,58.0
80,31.230669600000002,32.0873391,57.0,86.0
81,31.672821600000002,32.1039198,60.0,77.0
82,32.5571256,33.2700957,50.0,54.0
83,32.1149736,33.4137951,43.0,65.0
84,33.4414296,33.9020046,58.0,58.0
85,32.9992776,33.909373800000004,55.0,68.0
86,32.9992776,33.913058400000004,62.0,85.0
87,34.5468096,34.9263234,55.0,75.0
88,34.7678856,35.0755497,48.0,59.0
89,33.8835816,35.0994996,36.0,69.0
90,34.3257336,35.1216072,43.0,56.0
91,35.2100376,35.685351000000004,55.0,73.0
92,34.9889616,35.7019317,60.0,90.0
93,34.7678856,35.7277239,64.0,97.0
94,36.0943416,36.698616,48.0,58.0
95,35.6521896,36.7280928,41.0,65.0
96,36.9786456,37.4521167,53.0,66.0
97,36.5364936,37.463170500000004,57.0,79.0
98,36.5364936,37.4797512,60.0,79.0
99,37.4207976,38.607238800000005,40.0,72.0
100,37.8629496,38.8264725,52.0,67.0
101,38.7472536,39.185721,57.0,86.0
102,38.3051016,39.1930902,60.0,90.0
103,40.0737096,40.2524127,50.0,49.0
104,39.6315576,40.2616242,45.0,46.0
105,39.1894056,40.3316316,38.0,77.0
106,40.0737096,40.8861639,62.0,85.0
107,40.0737096,40.9045869,65.0,76.0
108,40.5158616,40.9985442,57.0,61.0
109,41.4001656,42.0983973,43.0,46.0
110,40.9580136,42.1205049,36.0,83.0
111,41.8423176,42.2218314,48.0,58.0
112,41.8423176,42.7026717,60.0,83.0
113,41.8423176,42.7100409,64.0,83.0
114,42.2844696,42.7266216,55.0,76.0
115,42.7266216,44.3496879,43.0,89.0
116,43.1687736,44.5302333,50.0,54.0
117,43.6109256,45.2303073,62.0,78.0
118,43.6109256,45.261626400000004,58.0,81.0
119,44.0530776,45.2911032,55.0,45.0
120,44.9373816,45.4587525,50.0,76.0
121,45.3795336,45.4955985,55.0,29.0
122,44.4952296,45.541656,43.0,73.0
123,45.3795336,46.232518500000005,62.0,95.0
124,45.8216856,46.324633500000004,55.0,69.0
125,46.9270656,47.3526369,48.0,72.0
126,47.1481416,47.4465942,55.0,38.0
127,46.2638376,47.9587536,36.0,72.0
128,46.7059896,48.0858723,43.0,53.0
129,47.3692176,48.1190337,48.0,53.0
130,47.1481416,48.4303824,64.0,95.0
131,47.5902936,48.459859200000004,62.0,82.0
132,47.8113696,48.4948629,60.0,61.0
133,48.4745976,49.0180761,48.0,86.0
134,48.0324456,49.3791669,36.0,74.0
135,49.1378256,49.4694396,48.0,83.0
136,48.6956736,49.4749665,55.0,83.0
137,48.9167496,49.6610388,64.0,100.0
138,48.2535216,49.6720926,43.0,54.0
139,49.3589016,49.7199924,62.0,107.0
140,49.5799776,49.7955267,60.0,92.0
141,50.2432056,50.7277305,50.0,85.0
142,50.9064336,51.1017174,50.0,88.0
143,50.4642816,51.1717248,57.0,86.0
144,49.8010536,51.3062127,38.0,82.0
145,50.0221296,51.4296468,45.0,62.0
146,51.1275096,51.510708,62.0,99.0
147,50.6853576,51.5162349,65.0,99.0
148,51.3485856,51.6009807,57.0,89.0
149,52.0118136,52.5202884,48.0,83.0
150,51.5696616,52.7524182,36.0,67.0
151,52.2328896,52.7561028,55.0,85.0
152,51.7907376,52.7597874,43.0,60.0
153,52.6750416,52.7800527,48.0,95.0
154,52.453965600000004,53.2995813,64.0,99.0
155,52.896117600000004,53.3051082,60.0,92.0
156,53.1171936,53.3824848,55.0,95.0
157,54.0014976,54.200466,58.0,88.0
158,53.5593456,54.3331116,46.0,90.0
159,53.780421600000004,54.5265531,53.0,86.0
160,53.338269600000004,54.5302377,34.0,92.0
161,54.4436496,54.5855067,46.0,89.0
162,54.664725600000004,55.0405548,58.0,107.0
163,54.8858016,55.047924,53.0,92.0
164,54.222573600000004,55.0718739,62.0,100.0
165,55.549029600000004,55.7866863,57.0,90.0
166,55.7701056,55.987497000000005,60.0,93.0
167,55.3279536,56.1054042,52.0,61.0
168,56.2122576,56.3688531,52.0,85.0
169,55.106877600000004,56.4222798,45.0,83.0
170,56.6544096,56.875485600000005,57.0,82.0
171,56.433333600000005,56.9123316,60.0,90.0
172,55.991181600000004,56.9233854,64.0,99.0
173,57.317637600000005,57.577401900000005,53.0,81.0
174,57.5387136,57.763474200000005,57.0,77.0
175,57.0965616,57.8887506,48.0,74.0
176,57.9808656,58.124565000000004,48.0,90.0
177,56.875485600000005,58.1448303,41.0,70.0
178,58.201941600000005,58.5796131,57.0,83.0
179,57.759789600000005,58.5796131,60.0,97.0
180,58.4230176,58.6017207,53.0,90.0
181,59.086245600000005,59.5523475,50.0,85.0
182,58.8651696,59.804742600000004,45.0,62.0
183,58.644093600000005,59.819481,38.0,85.0
184,59.3073216,59.8655385,57.0,85.0
185,59.7494736,59.9373882,50.0,88.0
186,60.1916256,60.421913100000005,57.0,93.0
187,59.970549600000005,60.445863,62.0,97.0
188,59.528397600000005,60.4532322,65.0,93.0
189,60.8548536,61.0888257,62.0,72.0
190,61.0759296,61.201206,65.0,79.0
191,60.6337776,61.3688553,58.0,92.0
192,61.5180816,61.6323042,58.0,89.0
193,60.4127016,61.6507272,46.0,44.0
194,61.2970056,61.7299461,65.0,99.0
195,61.7391576,62.113144500000004,62.0,83.0
196,61.9602336,62.1278829,65.0,92.0
197,62.6234616,63.168782400000005,48.0,81.0
198,62.8445376,63.351170100000004,55.0,90.0
199,62.1813096,63.3898584,36.0,72.0
200,62.4023856,63.411966,43.0,61.0
201,63.2866896,63.504081,48.0,90.0
202,63.0656136,63.890964000000004,64.0,95.0
203,63.5077656,63.9001755,60.0,97.0
204,63.7288416,63.9443907,55.0,92.0
205,64.3920696,64.64630700000001,53.0,86.0
206,64.6131456,64.8526446,57.0,70.0
207,64.1709936,64.9631826,48.0,66.0
208,65.0552976,65.1971547,48.0,73.0
209,63.9499176,65.2874274,41.0,72.0
210,64.8342216,65.3261157,60.0,99.0
211,65.2763736,65.8143252,57.0,99.0
212,65.4974496,65.87696340000001,60.0,83.0
213,65.9396016,66.23436960000001,52.0,63.0
214,66.1606776,66.4351803,57.0,69.0
215,66.3817536,66.6931023,52.0,81.0
216,65.7185256,66.9731319,40.0,74.0
217,66.8239056,67.0928814,52.0,76.0
218,66.6028296,67.4318646,60.0,93.0
219,67.0449816,67.4392338,57.0,79.0
220,67.2660576,67.46134140000001,52.0,89.0
221,67.9292856,68.4672372,50.0,90.0
222,68.5925136,68.7804282,50.0,90.0
223,68.1503616,68.8670163,57.0,76.0
224,67.7082096,68.8762278,45.0,53.0
225,67.4871336,68.9093892,38.0,76.0
226,68.8135896,69.1912611,62.0,81.0
227,68.37143760000001,69.1912611,65.0,74.0
228,69.0346656,69.2796915,57.0,85.0
229,69.6978936,70.2561105,48.0,79.0
230,69.4768176,70.4329713,43.0,58.0
231,69.25574160000001,70.49008260000001,36.0,72.0
232,69.9189696,70.4919249,55.0,75.0
233,70.3611216,70.56561690000001,48.0,92.0
234,70.5821976,70.9506576,60.0,95.0
235,70.14004560000001,70.9543422,64.0,97.0
236,70.8032736,70.9911882,55.0,95.0
237,71.6875776,71.8662807,58.0,95.0
238,71.4665016,71.9712918,53.0,85.0
239,71.90865360000001,72.4300245,65.0,95.0
240,71.02434960000001,72.43186680000001,46.0,95.0
241,72.1297296,72.43186680000001,53.0,88.0
242,72.3508056,72.6142545,58.0,122.0
243,71.2454256,72.6861042,50.0,56.0
244,72.5718816,72.78558840000001,62.0,102.0
245,73.2351096,73.5483006,55.0,92.0
246,73.4561856,73.6312041,58.0,86.0
247,73.0140336,73.7933265,50.0,64.0
248,74.1194136,74.39575860000001,58.0,97.0
249,72.79295760000001,74.4197085,43.0,69.0
250,73.8983376,74.5228773,50.0,83.0
251,74.3404896,74.5449849,55.0,83.0
252,73.67726160000001,74.5449849,62.0,99.0
253,75.0037176,75.28006260000001,55.0,83.0
254,75.2247936,75.4679772,59.0,88.0
255,74.7826416,75.5693037,50.0,57.0
256,75.6669456,75.80327580000001,50.0,69.0
257,74.56156560000001,75.8364372,43.0,75.0
258,75.44586960000001,76.2196356,62.0,97.0
259,75.8880216,76.24358550000001,59.0,100.0
260,76.1090976,76.3854426,55.0,95.0
261,76.7723256,77.3360694,48.0,90.0
262,76.9934016,77.6566296,55.0,85.0
263,77.4355536,77.7782214,48.0,90.0
264,76.5512496,78.0287742,43.0,66.0
265,76.33017360000001,78.0490395,36.0,70.0
266,77.6566296,78.1282584,60.0,100.0
267,77.8777056,78.1485237,55.0,97.0
268,77.21447760000001,78.1706313,64.0,99.0
269,78.5409336,79.0254585,50.0,85.0
270,79.2041616,79.3994454,50.0,88.0
271,78.7620096,79.4694528,57.0,86.0
272,78.09878160000001,79.5892023,38.0,96.0
273,78.3198576,79.7273748,45.0,62.0
274,79.4252376,79.808436,62.0,99.0
275,78.9830856,79.8139629,65.0,99.0
276,79.6463136,79.8987087,57.0,89.0
277,80.3095416,80.8180164,48.0,83.0
278,79.8673896,81.0501462,36.0,67.0
279,80.5306176,81.0538308,55.0,85.0
280,80.0884656,81.0575154,43.0,60.0
281,80.9727696,81.0777807,48.0,95.0
282,80.7516936,81.5973093,64.0,99.0
283,81.1938456,81.6028362,60.0,92.0
284,81.4149216,81.6802128,55.0,95.0
285,82.2992256,82.498194,58.0,88.0
286,81.8570736,82.6308396,46.0,90.0
287,82.0781496,82.82428110000001,53.0,86.0
288,81.6359976,82.82796570000001,34.0,92.0
289,82.7413776,82.8832347,46.0,89.0
290,82.9624536,83.3382828,58.0,107.0
291,83.1835296,83.345652,53.0,92.0
292,82.5203016,83.3696019,62.0,100.0
293,83.8467576,84.0844143,57.0,90.0
294,84.0678336,84.285225,60.0,93.0
295,83.62568160000001,84.4031322,52.0,61.0
296,84.50998560000001,84.6665811,52.0,85.0
297,83.4046056,84.7200078,45.0,83.0
298,84.9521376,85.1732136,57.0,82.0
299,84.7310616,85.21005960000001,60.0,90.0
300,84.2889096,85.22111340000001,64.0,99.0
301,85.6153656,85.8751299,53.0,81.0
302,85.8364416,86.0612022,57.0,77.0
303,85.39428960000001,86.1864786,48.0,74.0
304,86.27859360000001,86.422293,48.0,90.0
305,85.1732136,86.4425583,41.0,70.0
306,86.4996696,86.87734110000001,57.0,83.0
307,86.0575176,86.87734110000001,60.0,97.0
308,86.7207456,86.89944870000001,53.0,90.0
309,87.3839736,87.8500755,50.0,85.0
310,87.16289760000001,88.1024706,45.0,62.0
311,86.9418216,88.117209,38.0,85.0
312,87.6050496,88.1632665,57.0,85.0
313,88.04720160000001,88.23511620000001,50.0,88.0
314,88.4893536,88.7196411,57.0,93.0
315,88.2682776,88.74359100000001,62.0,97.0
316,87.8261256,88.75096020000001,65.0,93.0
317,89.1525816,89.38655370000001,62.0,72.0
318,89.3736576,89.498934,65.0,79.0
319,88.93150560000001,89.6665833,58.0,92.0
320,89.81580960000001,89.9300322,58.0,89.0
321,88.7104296,89.9484552,46.0,44.0
322,89.5947336,90.0276741,65.0,99.0
323,90.0368856,90.4108725,62.0,83.0
324,90.2579616,90.42561090000001,65.0,92.0
325,90.9211896,91.4665104,48.0,81.0
326,91.1422656,91.6488981,55.0,90.0
327,90.4790376,91.6875864,36.0,72.0
328,90.70011360000001,91.709694,43.0,61.0
329,91.58441760000001,91.801809,48.0,90.0
330,91.3633416,92.188692,64.0,95.0
331,91.8054936,92.19790350000001,60.0,97.0
332,92.0265696,92.2421187,55.0,92.0
333,92.6897976,92.944035,53.0,86.0
334,92.9108736,93.1503726,57.0,70.0
335,92.46872160000001,93.2609106,48.0,66.0
336,93.35302560000001,93.4948827,48.0,73.0
337,92.2476456,93.5851554,41.0,72.0
338,93.1319496,93.62384370000001,60.0,99.0
339,93.5741016,94.1120532,57.0,99.0
340,93.7951776,94.1746914,60.0,83.0
341,94.23732960000001,94.5320976,52.0,63.0
342,94.4584056,94.7329083,57.0,69.0
343,94.6794816,94.9908303,52.0,81.0
344,94.0162536,95.2708599,40.0,74.0
345,95.12163360000001,95.3906094,52.0,76.0
346,94.9005576,95.7295926,60.0,93.0
347,95.3427096,95.7369618,57.0,79.0
348,95.5637856,95.7590694,52.0,89.0
349,96.2270136,96.7649652,50.0,90.0
350,96.8902416,97.07815620000001,50.0,90.0
351,96.4480896,97.16474430000001,57.0,76.0
352,96.00593760000001,97.1739558,45.0,53.0
353,95.7848616,97.2071172,38.0,76.0
354,97.1113176,97.4889891,62.0,81.0
355,96.6691656,97.4889891,65.0,74.0
356,97.3323936,97.5774195,57.0,85.0
357,97.9956216,98.5538385,48.0,79.0
358,97.7745456,98.7306993,43.0,58.0
359,97.5534696,98.7878106,36.0,72.0
360,98.2166976,98.78965290000001,55.0,75.0
361,98.6588496,98.8633449,48.0,92.0
362,98.8799256,99.2483856,60.0,95.0
363,98.4377736,99.2520702,64.0,97.0
364,99.1010016,99.2889162,55.0,95.0
365,99.9853056,100.1640087,58.0,95.0
366,99.76422960000001,100.26901980000001,53.0,85.0
367,100.2063816,100.72775250000001,65.0,95.0
368,99.3220776,100.7295948,46.0,95.0
369,100.4274576,100.7295948,53.0,88.0
370,100.64853360000001,100.91198250000001,58.0,122.0
371,99.5431536,100.98383220000001,50.0,56.0
372,100.8696096,101.0833164,62.0,102.0
373,101.53283760000001,101.8460286,55.0,92.0
374,101.7539136,101.9289321,58.0,86.0
375,101.3117616,102.0910545,50.0,64.0
376,102.41714160000001,102.6934866,58.0,97.0
377,101.0906856,102.7174365,43.0,69.0
378,102.1960656,102.8206053,50.0,83.0
379,102.6382176,102.84271290000001,55.0,83.0
380,101.9749896,102.84271290000001,62.0,99.0
381,103.30144560000001,103.5777906,55.0,83.0
382,103.5225216,103.7657052,59.0,88.0
383,103.0803696,103.8670317,50.0,57.0
384,103.9646736,104.1010038,50.0,69.0
385,102.8592936,104.1341652,43.0,75.0
386,103.7435976,104.51736360000001,62.0,97.0
387,104.18574960000001,104.5413135,59.0,100.0
388,104.4068256,104.6831706,55.0,95.0
389,105.07005360000001,105.6337974,48.0,90.0
390,105.2911296,105.95435760000001,55.0,85.0
391,105.7332816,106.0759494,48.0,90.0
392,104.8489776,106.32650220000001,43.0,66.0
393,104.6279016,106.3467675,36.0,70.0
394,105.95435760000001,106.4259864,60.0,100.0
395,106.1754336,106.4462517,55.0,97.0
396,105.5122056,106.4683593,64.0,99.0
397,107.2808136,107.5442625,50.0,67.0
398,106.3965096,107.6879619,38.0,81.0
399,106.83866160000001,107.7469155,45.0,67.0
400,107.2808136,108.2038059,65.0,95.0
401,107.72296560000001,108.2111751,62.0,72.0
402,109.0494216,109.2760245,48.0,56.0
403,108.60726960000001,109.2907629,43.0,50.0
404,108.1651176,109.31471280000001,36.0,78.0
405,109.0494216,109.8895104,64.0,92.0
406,109.49157360000001,109.95399090000001,60.0,89.0
407,109.9337256,110.9764674,35.0,72.0
408,110.37587760000001,111.0704247,47.0,44.0
409,110.8180296,111.7576026,62.0,88.0
410,110.8180296,111.7778679,65.0,81.0
411,111.26018160000001,111.7815525,59.0,64.0
412,112.14448560000001,112.7358639,52.0,69.0
413,111.7023336,112.79481750000001,45.0,75.0
414,113.02878960000001,113.4433071,57.0,79.0
415,112.5866376,113.4543609,64.0,86.0
416,112.5866376,113.4654147,60.0,89.0
417,113.4709416,114.6076407,38.0,77.0
418,113.91309360000001,114.609483,45.0,65.0
419,114.3552456,114.7034403,50.0,68.0
420,114.7973976,115.2837648,57.0,73.0
421,114.3552456,115.3021878,62.0,89.0
422,114.3552456,115.3261377,65.0,79.0
423,115.6817016,116.4923136,53.0,61.0
424,115.2395496,116.562321,47.0,71.0
425,116.5660056,117.0265806,62.0,64.0
426,116.1238536,117.0763227,65.0,96.0
427,117.4503096,118.128276,55.0,63.0
428,117.0081576,118.4175171,43.0,76.0
429,117.8924616,118.7417619,62.0,95.0
430,118.3346136,118.81545390000001,55.0,66.0
431,119.2189176,119.7660807,48.0,89.0
432,119.43999360000001,120.099537,55.0,77.0
433,119.8821456,120.1032216,48.0,72.0
434,118.7767656,120.3335091,36.0,76.0
435,119.6610696,120.49747380000001,64.0,92.0
436,120.1032216,120.5361621,60.0,77.0
437,120.32429760000001,120.5398467,55.0,74.0
438,118.9978416,120.5435313,43.0,52.0
439,120.5453736,121.7004957,38.0,73.0
440,120.9875256,121.7097072,45.0,52.0
441,121.4296776,121.80734910000001,50.0,66.0
442,121.8718296,122.4411003,62.0,61.0
443,121.4296776,122.4521541,65.0,81.0
444,122.7561336,123.3364581,52.0,48.0
445,122.3139816,123.4819998,45.0,72.0
446,123.6404376,124.0954857,60.0,72.0
447,123.1982856,124.1083818,64.0,89.0
448,124.5247416,125.0700624,45.0,40.0
449,124.0825896,125.08111620000001,38.0,70.0
450,124.9668936,125.1400698,50.0,56.0
451,124.9668936,125.8677783,62.0,69.0
452,124.9668936,125.8696206,65.0,65.0
453,125.4090456,125.9746317,57.0,56.0
454,126.2933496,126.94368150000001,52.0,59.0
455,125.8511976,127.008162,45.0,76.0
456,127.1776536,127.5921711,57.0,67.0
457,126.7355016,127.6198056,60.0,81.0
458,126.7355016,127.6271748,64.0,77.0
459,128.0619576,128.7233433,53.0,56.0
460,128.5041096,128.7307125,58.0,64.0
461,127.6198056,128.8117737,46.0,90.0
462,128.5041096,129.3828867,65.0,90.0
463,128.9462616,129.3902559,62.0,76.0
464,130.2727176,130.5306396,53.0,56.0
465,129.3884136,130.6448622,41.0,74.0
466,129.8305656,131.0299029,48.0,58.0
467,130.2727176,131.1293871,57.0,86.0
468,130.71486960000001,131.1459678,60.0,77.0
469,131.5991736,132.3121437,50.0,54.0
470,131.1570216,132.4558431,43.0,65.0
471,132.48347760000001,132.9440526,58.0,58.0
472,132.0413256,132.9514218,55.0,68.0
473,132.0413256,132.9551064,62.0,85.0
474,133.5888576,133.9683714,55.0,75.0
475,133.8099336,134.1175977,48.0,59.0
476,132.9256296,134.1415476,36.0,69.0
477,133.3677816,134.1636552,43.0,56.0
478,134.25208560000002,134.727399,55.0,73.0
479,134.0310096,134.7439797,60.0,90.0
480,133.8099336,134.7697719,64.0,97.0
481,135.1363896,135.740664,48.0,58.0
482,134.6942376,135.7701408,41.0,65.0
483,136.02069360000002,136.4941647,53.0,66.0
484,135.5785416,136.5052185,57.0,79.0
485,135.5785416,136.5217992,60.0,79.0
486,136.4628456,137.6492868,40.0,72.0
487,136.9049976,137.86852050000002,52.0,67.0
488,137.78930160000002,138.227769,57.0,86.0
489,137.3471496,138.2351382,60.0,90.0
490,139.1157576,139.2944607,50.0,49.0
491,138.6736056,139.3036722,45.0,46.0
492,138.2314536,139.3736796,38.0,77.0
493,139.1157576,139.9282119,62.0,85.0
494,139.1157576,139.9466349,65.0,76.0
495,139.55790960000002,140.0405922,57.0,61.0
496,140.4422136,141.1404453,43.0,46.0
497,140.0000616,141.1625529,36.0,83.0
498,140.8843656,141.2638794,48.0,58.0
499,140.8843656,141.7447197,60.0,83.0
500,140.8843656,141.75208890000002,64.0,83.0
501,141.32651760000002,141.7686696,55.0,76.0
502,141.7686696,143.39173590000001,43.0,89.0
503,142.2108216,143.57228130000001,50.0,54.0
504,142.6529736,144.27235530000002,62.0,78.0
505,142.6529736,144.3036744,58.0,81.0
506,143.09512560000002,144.3331512,55.0,45.0
507,143.9794296,144.5008005,50.0,76.0
508,144.4215816,144.5376465,55.0,29.0
509,143.5372776,144.583704,43.0,73.0
510,144.4215816,145.2745665,62.0,95.0
511,144.86373360000002,145.3666815,55.0,69.0
512,145.96911360000001,146.39468490000002,48.0,72.0
513,146.1901896,146.48864220000002,55.0,38.0
514,145.3058856,147.00080160000002,36.0,72.0
515,145.7480376,147.1279203,43.0,53.0
516,146.4112656,147.1610817,48.0,53.0
517,146.1901896,147.4724304,64.0,95.0
518,146.63234160000002,147.5019072,62.0,82.0
519,146.8534176,147.5369109,60.0,61.0
520,147.5166456,148.0601241,48.0,86.0
521,147.0744936,148.4212149,36.0,74.0
522,148.1798736,148.5114876,48.0,83.0
523,147.73772160000001,148.51701450000002,55.0,83.0
524,147.9587976,148.7030868,64.0,100.0
525,147.2955696,148.7141406,43.0,54.0
526,148.40094960000002,148.76204040000002,62.0,107.0
527,148.6220256,148.8375747,60.0,92.0
528,149.2852536,149.7697785,50.0,85.0
529,149.9484816,150.1437654,50.0,88.0
530,149.50632960000002,150.21377280000002,57.0,86.0
531,148.8431016,150.3482607,38.0,82.0
532,149.0641776,150.4716948,45.0,62.0
533,150.16955760000002,150.55275600000002,62.0,99.0
534,149.7274056,150.5582829,65.0,99.0
535,150.3906336,150.6430287,57.0,89.0
536,151.0538616,151.5623364,48.0,83.0
537,150.6117096,151.79446620000002,36.0,67.0
538,151.27493760000002,151.7981508,55.0,85.0
539,150.8327856,151.80183540000002,43.0,60.0
540,151.7170896,151.8221007,48.0,95.0
541,151.4960136,152.3416293,64.0,99.0
542,151.9381656,152.3471562,60.0,92.0
543,152.1592416,152.4245328,55.0,95.0
544,153.04354560000002,153.242514,58.0,88.0
545,152.6013936,153.37515960000002,46.0,90.0
546,152.8224696,153.5686011,53.0,86.0
547,152.3803176,153.5722857,34.0,92.0
548,153.4856976,153.62755470000002,46.0,89.0
549,153.7067736,154.08260280000002,58.0,107.0
550,153.9278496,154.08997200000002,53.0,92.0
551,153.2646216,154.1139219,62.0,100.0
552,154.5910776,154.8287343,57.0,90.0
553,154.81215360000002,155.029545,60.0,93.0
554,154.3700016,155.1474522,52.0,61.0
555,155.2543056,155.41090110000002,52.0,85.0
556,154.1489256,155.4643278,45.0,83.0
557,155.6964576,155.9175336,57.0,82.0
558,155.4753816,155.9543796,60.0,90.0
559,155.0332296,155.9654334,64.0,99.0
560,156.3596856,156.6194499,53.0,81.0
561,156.58076160000002,156.8055222,57.0,77.0
562,156.1386096,156.9307986,48.0,74.0
563,157.0229136,157.166613,48.0,90.0
564,155.9175336,157.18687830000002,41.0,70.0
565,157.2439896,157.6216611,57.0,83.0
566,156.8018376,157.6216611,60.0,97.0
567,157.4650656,157.6437687,53.0,90.0
568,158.1282936,158.59439550000002,50.0,85.0
569,157.9072176,158.8467906,45.0,62.0
570,157.6861416,158.86152900000002,38.0,85.0
571,158.34936960000002,158.9075865,57.0,85.0
572,158.7915216,158.9794362,50.0,88.0
573,159.2336736,159.4639611,57.0,93.0
574,159.0125976,159.487911,62.0,97.0
575,158.5704456,159.4952802,65.0,93.0
576,159.8969016,160.1308737,62.0,72.0
577,160.11797760000002,160.243254,65.0,79.0
578,159.6758256,160.4109033,58.0,92.0
579,160.5601296,160.67435220000002,58.0,89.0
580,159.4547496,160.6927752,46.0,44.0
581,160.3390536,160.7719941,65.0,99.0
582,160.7812056,161.1551925,62.0,83.0
583,161.0022816,161.1699309,65.0,92.0
584,161.6655096,162.2108304,48.0,81.0
585,161.88658560000002,162.3932181,55.0,90.0
586,161.2233576,162.4319064,36.0,72.0
587,161.4444336,162.454014,43.0,61.0
588,162.3287376,162.546129,48.0,90.0
589,162.1076616,162.93301200000002,64.0,95.0
590,162.5498136,162.9422235,60.0,97.0
591,162.7708896,162.9864387,55.0,92.0
592,163.4341176,163.688355,53.0,86.0
593,163.65519360000002,163.8946926,57.0,70.0
594,163.2130416,164.0052306,48.0,66.0
595,164.0973456,164.2392027,48.0,73.0
596,162.99196560000001,164.3294754,41.0,72.0
597,163.8762696,164.3681637,60.0,99.0
598,164.3184216,164.8563732,57.0,99.0
599,164.5394976,164.91901140000002,60.0,83.0
600,164.9816496,165.2764176,52.0,63.0
601,165.2027256,165.4772283,57.0,69.0
602,165.42380160000002,165.73515030000002,52.0,81.0
603,164.76057360000001,166.0151799,40.0,74.0
604,165.8659536,166.1349294,52.0,76.0
605,165.6448776,166.4739126,60.0,93.0
606,166.0870296,166.4812818,57.0,79.0
607,166.3081056,166.5033894,52.0,89.0
608,166.9713336,167.5092852,50.0,90.0
609,167.6345616,167.8224762,50.0,90.0
610,167.19240960000002,167.9090643,57.0,76.0
611,166.7502576,167.9182758,45.0,53.0
612,166.52918160000002,167.95143720000002,38.0,76.0
613,167.8556376,168.2333091,62.0,81.0
614,167.4134856,168.2333091,65.0,74.0
615,168.0767136,168.3217395,57.0,85.0
616,168.7399416,169.2981585,48.0,79.0
617,168.5188656,169.4750193,43.0,58.0
618,168.29778960000002,169.53213060000002,36.0,72.0
619,168.96101760000002,169.5339729,55.0,75.0
620,169.4031696,169.6076649,48.0,92.0
621,169.6242456,169.9927056,60.0,95.0
622,169.1820936,169.9963902,64.0,97.0
623,169.8453216,170.0332362,55.0,95.0
624,170.7296256,170.9083287,58.0,95.0
625,170.5085496,171.0133398,53.0,85.0
626,170.9507016,171.4720725,65.0,95.0
627,170.06639760000002,171.47391480000002,46.0,95.0
628,171.1717776,171.47391480000002,53.0,88.0
629,171.3928536,171.6563025,58.0,122.0
630,170.2874736,171.7281522,50.0,56.0
631,171.6139296,171.82763640000002,62.0,102.0
632,172.2771576,172.5903486,55.0,92.0
633,172.4982336,172.6732521,58.0,86.0
634,172.0560816,172.8353745,50.0,64.0
635,173.1614616,173.43780660000002,58.0,97.0
636,171.83500560000002,173.4617565,43.0,69.0
637,172.9403856,173.5649253,50.0,83.0
638,173.3825376,173.5870329,55.0,83.0
639,172.7193096,173.5870329,62.0,99.0
640,174.0457656,174.3221106,55.0,83.0
641,174.2668416,174.5100252,59.0,88.0
642,173.8246896,174.6113517,50.0,57.0
643,174.7089936,174.84532380000002,50.0,69.0
644,173.60361360000002,174.8784852,43.0,75.0
645,174.4879176,175.2616836,62.0,97.0
646,174.9300696,175.28563350000002,59.0,100.0
647,175.1511456,175.4274906,55.0,95.0
648,175.8143736,176.3781174,48.0,90.0
649,176.0354496,176.6986776,55.0,85.0
650,176.4776016,176.8202694,48.0,90.0
651,175.5932976,177.0708222,43.0,66.0
652,175.37222160000002,177.09108750000001,36.0,70.0
653,176.6986776,177.17030640000002,60.0,100.0
654,176.9197536,177.1905717,55.0,97.0
655,176.2565256,177.21267930000002,64.0,99.0
656,177.5829816,178.0675065,50.0,85.0
657,177.14082960000002,178.1098794,38.0,97.0
658,178.24620960000001,178.4414934,50.0,88.0
659,177.8040576,178.5115008,57.0,86.0
660,177.3619056,178.7694228,45.0,62.0
661,178.4672856,178.850484,62.0,99.0
662,178.0251336,178.8560109,65.0,99.0
663,178.6883616,178.9407567,57.0,89.0
664,179.3515896,179.8600644,48.0,83.0
665,178.90943760000002,180.0921942,36.0,67.0
666,179.5726656,180.0958788,55.0,85.0
667,179.1305136,180.0995634,43.0,60.0
668,180.01481760000001,180.1198287,48.0,95.0
669,179.7937416,180.6393573,64.0,99.0
670,180.2358936,180.6448842,60.0,92.0
671,180.4569696,180.72226080000002,55.0,95.0
672,181.3412736,181.540242,58.0,88.0
673,180.8991216,181.6728876,46.0,90.0
674,181.1201976,181.8663291,53.0,86.0
675,180.67804560000002,181.87001370000002,34.0,92.0
676,181.78342560000002,181.9252827,46.0,89.0
677,182.0045016,182.3803308,58.0,107.0
678,182.2255776,182.3877,53.0,92.0
679,181.5623496,182.41164990000001,62.0,100.0
680,182.8888056,183.12646230000001,57.0,90.0
681,183.1098816,183.32727300000002,60.0,93.0
682,182.6677296,183.4451802,52.0,61.0
683,183.55203360000002,183.7086291,52.0,85.0
684,182.44665360000002,183.7620558,45.0,83.0
685,183.9941856,184.21526160000002,57.0,82.0
686,183.7731096,184.25210760000002,60.0,90.0
687,183.3309576,184.2631614,64.0,99.0
688,184.6574136,184.9171779,53.0,81.0
689,184.8784896,185.10325020000002,57.0,77.0
690,184.4363376,185.2285266,48.0,74.0
691,185.32064160000002,185.46434100000002,48.0,90.0
692,184.21526160000002,185.4846063,41.0,70.0
693,185.5417176,185.91938910000002,57.0,83.0
694,185.0995656,185.91938910000002,60.0,97.0
695,185.7627936,185.94149670000002,53.0,90.0
696,186.4260216,186.8921235,50.0,85.0
697,186.2049456,187.1445186,45.0,62.0
698,185.98386960000002,187.159257,38.0,85.0
699,186.6470976,187.20531450000001,57.0,85.0
700,187.08924960000002,187.27716420000002,50.0,88.0
701,187.5314016,187.7616891,57.0,93.0
702,187.3103256,187.785639,62.0,97.0
703,186.8681736,187.7930082,65.0,93.0
704,188.1946296,188.4286017,62.0,72.0
705,188.4157056,188.540982,65.0,79.0
706,187.9735536,188.7086313,58.0,92.0
707,188.85785760000002,188.9720802,58.0,89.0
708,187.7524776,188.9905032,46.0,44.0
709,188.6367816,189.0697221,65.0,99.0
710,189.0789336,189.4529205,62.0,83.0
711,189.3000096,189.4676589,65.0,92.0
712,189.9632376,190.5085584,48.0,81.0
713,190.1843136,190.69094610000002,55.0,90.0
714,189.5210856,190.7296344,36.0,72.0
715,189.7421616,190.751742,43.0,61.0
716,190.62646560000002,190.843857,48.0,90.0
717,190.4053896,191.23074,64.0,95.0
718,190.8475416,191.23995150000002,60.0,97.0
719,191.0686176,191.28416670000001,55.0,92.0
720,191.7318456,191.986083,53.0,86.0
721,191.9529216,192.19242060000002,57.0,70.0
722,191.5107696,192.3029586,48.0,66.0
723,192.39507360000002,192.5369307,48.0,73.0
724,191.2896936,192.6272034,41.0,72.0
725,192.1739976,192.6658917,60.0,99.0
726,192.6161496,193.1541012,57.0,99.0
727,192.8372256,193.2167394,60.0,83.0
728,193.2793776,193.5741456,52.0,63.0
729,193.50045360000001,193.7749563,57.0,69.0
730,193.7215296,194.0328783,52.0,81.0
731,193.0583016,194.3129079,40.0,74.0
732,194.16368160000002,194.4326574,52.0,76.0
733,193.9426056,194.7716406,60.0,93.0
734,194.3847576,194.7790098,57.0,79.0
735,194.6058336,194.8011174,52.0,89.0
736,195.26906160000001,195.8070132,50.0,90.0
737,195.93228960000002,196.12020420000002,50.0,90.0
738,195.4901376,196.20679230000002,57.0,76.0
739,195.0479856,196.2160038,45.0,53.0
740,194.8269096,196.2491652,38.0,76.0
741,196.1533656,196.53103710000002,62.0,81.0
742,195.7112136,196.53103710000002,65.0,74.0
743,196.3744416,196.6194675,57.0,85.0
744,197.03766960000002,197.5958865,48.0,79.0
745,196.8165936,197.77274730000002,43.0,58.0
746,196.5955176,197.8298586,36.0,72.0
747,197.2587456,197.83170090000002,55.0,75.0
748,197.70089760000002,197.9053929,48.0,92.0
749,197.9219736,198.2904336,60.0,95.0
750,197.4798216,198.2941182,64.0,97.0
751,198.1430496,198.3309642,55.0,95.0
752,199.0273536,199.2060567,58.0,95.0
753,198.80627760000002,199.31106780000002,53.0,85.0
754,199.2484296,199.7698005,65.0,95.0
755,198.3641256,199.7716428,46.0,95.0
756,199.46950560000002,199.7716428,53.0,88.0
757,199.6905816,199.95403050000002,58.0,122.0
758,198.5852016,200.02588020000002,50.0,56.0
759,199.9116576,200.1253644,62.0,102.0
760,200.57488560000002,200.8880766,55.0,92.0
761,200.7959616,200.97098010000002,58.0,86.0
762,200.3538096,201.1331025,50.0,64.0
763,201.4591896,201.7355346,58.0,97.0
764,200.1327336,201.7594845,43.0,69.0
765,201.23811360000002,201.8626533,50.0,83.0
766,201.6802656,201.8847609,55.0,83.0
767,201.0170376,201.8847609,62.0,99.0
768,202.34349360000002,202.6198386,55.0,83.0
769,202.5645696,202.8077532,59.0,88.0
770,202.1224176,202.9090797,50.0,57.0
771,203.00672160000002,203.1430518,50.0,69.0
772,201.9013416,203.1762132,43.0,75.0
773,202.7856456,203.5594116,62.0,97.0
774,203.2277976,203.5833615,59.0,100.0
775,203.4488736,203.7252186,55.0,95.0
776,204.11210160000002,204.67584540000001,48.0,90.0
777,204.3331776,204.9964056,55.0,85.0
778,204.77532960000002,205.1179974,48.0,90.0
779,203.8910256,205.36855020000002,43.0,66.0
780,203.6699496,205.3888155,36.0,70.0
781,204.9964056,205.4680344,60.0,100.0
782,205.2174816,205.4882997,55.0,97.0
783,204.5542536,205.5104073,64.0,99.0
784,205.88070960000002,206.3652345,50.0,85.0
785,205.4385576,206.40760740000002,38.0,97.0
786,206.5439376,206.73922140000002,50.0,88.0
787,206.1017856,206.8092288,57.0,86.0
788,205.6596336,207.0671508,45.0,62.0
789,206.7650136,207.148212,62.0,99.0
790,206.3228616,207.1537389,65.0,99.0
791,206.9860896,207.23848470000001,57.0,89.0
792,207.64931760000002,208.1577924,48.0,83.0
793,207.2071656,208.3899222,36.0,67.0
794,207.8703936,208.39360680000001,55.0,85.0
795,207.4282416,208.3972914,43.0,60.0
796,208.3125456,208.4175567,48.0,95.0
797,208.0914696,208.9370853,64.0,99.0
798,208.5336216,208.9426122,60.0,92.0
799,208.75469760000001,209.0199888,55.0,95.0
800,209.6390016,209.83797,58.0,88.0
801,209.1968496,209.9706156,46.0,90.0
802,209.41792560000002,210.1640571,53.0,86.0
803,208.9757736,210.1677417,34.0,92.0
804,210.0811536,210.2230107,46.0,89.0
805,210.3022296,210.6780588,58.0,107.0
806,210.52330560000001,210.685428,53.0,92.0
807,209.8600776,210.7093779,62.0,100.0
808,211.18653360000002,211.42419030000002,57.0,90.0
809,211.4076096,211.625001,60.0,93.0
810,210.9654576,211.74290820000002,52.0,61.0
811,211.8497616,212.0063571,52.0,85.0
812,210.7443816,212.05978380000002,45.0,83.0
813,212.29191360000002,212.5129896,57.0,82.0
814,212.0708376,212.5498356,60.0,90.0
815,211.6286856,212.5608894,64.0,99.0
816,212.95514160000002,213.21490590000002,53.0,81.0
817,213.1762176,213.4009782,57.0,77.0
818,212.7340656,213.52625460000002,48.0,74.0
819,213.6183696,213.762069,48.0,90.0
820,212.5129896,213.7823343,41.0,70.0
821,213.8394456,214.2171171,57.0,83.0
822,213.3972936,214.2171171,60.0,97.0
823,214.06052160000002,214.2392247,53.0,90.0
824,214.72374960000002,215.1898515,50.0,85.0
825,214.5026736,215.4422466,45.0,62.0
826,214.2815976,215.456985,38.0,85.0
827,214.9448256,215.50304250000002,57.0,85.0
828,215.3869776,215.5748922,50.0,88.0
829,215.82912960000002,216.05941710000002,57.0,93.0
830,215.6080536,216.083367,62.0,97.0
831,215.1659016,216.0907362,65.0,93.0
832,216.49235760000002,216.7263297,62.0,72.0
833,216.7134336,216.83871000000002,65.0,79.0
834,216.2712816,217.0063593,58.0,92.0
835,217.1555856,217.2698082,58.0,89.0
836,216.0502056,217.2882312,46.0,44.0
837,216.9345096,217.3674501,65.0,99.0
838,217.3766616,217.7506485,62.0,83.0
839,217.59773760000002,217.7653869,65.0,92.0
840,218.26096560000002,218.8062864,48.0,81.0
841,218.4820416,218.9886741,55.0,90.0
842,217.8188136,219.02736240000002,36.0,72.0
843,218.0398896,219.04947,43.0,61.0
844,218.9241936,219.14158500000002,48.0,90.0
845,218.7031176,219.528468,64.0,95.0
846,219.1452696,219.5376795,60.0,97.0
847,219.36634560000002,219.58189470000002,55.0,92.0
848,220.02957360000002,220.28381100000001,53.0,86.0
849,220.2506496,220.4901486,57.0,70.0
850,219.8084976,220.60068660000002,48.0,66.0
851,220.6928016,220.8346587,48.0,73.0
852,219.5874216,220.92493140000002,41.0,72.0
853,220.4717256,220.9636197,60.0,99.0
854,220.9138776,221.45182920000002,57.0,99.0
855,221.13495360000002,221.5144674,60.0,83.0
856,221.5771056,221.87187360000001,52.0,63.0
857,221.79818160000002,222.07268430000002,57.0,69.0
858,222.0192576,222.3306063,52.0,81.0
859,221.3560296,222.6106359,40.0,74.0
860,222.4614096,222.73038540000002,52.0,76.0
861,222.2403336,223.06936860000002,60.0,93.0
862,222.6824856,223.07673780000002,57.0,79.0
863,222.90356160000002,223.09884540000002,52.0,89.0
864,223.5667896,224.1047412,50.0,90.0
865,224.2300176,224.4179322,50.0,90.0
866,223.7878656,224.5045203,57.0,76.0
867,223.3457136,224.51373180000002,45.0,53.0
868,223.1246376,224.5468932,38.0,76.0
869,224.4510936,224.8287651,62.0,81.0
870,224.0089416,224.8287651,65.0,74.0
871,224.67216960000002,224.91719550000002,57.0,85.0
872,225.3353976,225.8936145,48.0,79.0
873,225.1143216,226.0704753,43.0,58.0
874,224.8932456,226.1275866,36.0,72.0
875,225.5564736,226.1294289,55.0,75.0
876,225.9986256,226.20312090000002,48.0,92.0
877,226.2197016,226.5881616,60.0,95.0
878,225.77754960000001,226.59184620000002,64.0,97.0
879,226.44077760000002,226.62869220000002,55.0,95.0
880,227.3250816,227.5037847,58.0,95.0
881,227.1040056,227.6087958,53.0,85.0
882,227.54615760000002,228.0675285,65.0,95.0
883,226.6618536,228.0693708,46.0,95.0
884,227.7672336,228.0693708,53.0,88.0
885,227.9883096,228.2517585,58.0,122.0
886,226.8829296,228.3236082,50.0,56.0
887,228.20938560000002,228.4230924,62.0,102.0
888,228.8726136,229.1858046,55.0,92.0
889,229.0936896,229.2687081,58.0,86.0
890,228.6515376,229.4308305,50.0,64.0
891,229.7569176,230.0332626,58.0,97.0
892,228.4304616,230.05721250000002,43.0,69.0
893,229.5358416,230.1603813,50.0,83.0
894,229.97799360000002,230.1824889,55.0,83.0
895,229.31476560000002,230.1824889,62.0,99.0
896,230.6412216,230.91756660000001,55.0,83.0
897,230.8622976,231.1054812,59.0,88.0
898,230.4201456,231.2068077,50.0,57.0
899,231.3044496,231.4407798,50.0,69.0
900,230.1990696,231.4739412,43.0,75.0
901,231.08337360000002,231.8571396,62.0,97.0
902,231.5255256,231.8810895,59.0,100.0
903,231.74660160000002,232.0229466,55.0,95.0
904,232.4098296,232.97357340000002,48.0,90.0
905,232.6309056,233.2941336,55.0,85.0
906,233.0730576,233.4157254,48.0,90.0
907,232.1887536,233.6662782,43.0,66.0
908,231.9676776,233.6865435,36.0,70.0
909,233.2941336,233.7657624,60.0,100.0
910,233.51520960000002,233.7860277,55.0,97.0
911,232.85198160000002,233.8081353,64.0,99.0
912,233.7362856,234.69980850000002,58.0,82.0
913,233.7362856,234.7237584,53.0,56.0
914,233.7362856,234.8177157,70.0,100.0
915,233.7362856,234.8250849,65.0,90.0
916,233.7362856,234.82876950000002,46.0,49.0
917,233.7362856,234.8471925,62.0,88.0
918,235.5048936,237.3048207,59.0,75.0
919,235.5048936,237.31218990000002,55.0,75.0
920,235.5048936,237.31955910000002,62.0,75.0
921,235.5048936,237.33429750000002,43.0,58.0
922,237.4945776,239.388462,47.0,70.0
923,237.4945776,239.5137384,62.0,73.0
924,237.4945776,239.5413729,59.0,72.0
925,237.4945776,239.5468998,55.0,72.0
926,242.0745354,242.33798430000002,52.0,71.0
927,242.2642923,242.4632607,55.0,67.0
928,242.4485223,242.5314258,60.0,68.0
929,242.6880213,243.0030546,64.0,53.0
930,242.9551548,243.1154349,67.0,59.0
931,241.6213296,245.5951707,43.0,56.0
932,241.8737247,245.6246475,48.0,81.0
933,244.3184568,245.633859,84.0,35.0
934,241.1423316,245.6393859,36.0,71.0
935,243.9002547,245.6393859,79.0,42.0
936,243.55021770000002,245.6467551,76.0,63.0
937,243.24071130000002,245.66517810000002,72.0,77.0
