,start,end,pitch,velocity
0,33.38698956875,33.59740623541667,70.0,57.0
1,33.72032290208334,34.17240623541667,75.0,65.0
2,34.71140866458334,35.28108047291667,77.0,51.0
3,35.36714599791667,35.522883614583336,79.0,62.0
4,35.69501466458334,35.86304735625,82.0,59.0
5,36.02288333125,36.188866843750006,79.0,59.0
6,36.35075199791667,36.68886656041667,79.0,60.0
7,37.33435799791667,37.539275914583335,72.0,58.0
8,37.662226664583336,38.08845593125,75.0,60.0
9,38.64583266458334,38.85894729791667,77.0,58.0
10,38.973701331250005,39.104848797916674,75.0,62.0
11,39.30156999791667,39.51058627291667,72.0,61.0
12,39.62943866458334,40.04132367708334,70.0,61.0
13,41.26878199791667,41.49829006458334,70.0,59.0
14,41.596650664583336,41.94091276458334,75.0,61.0
15,42.58025666458334,42.97779742291667,77.0,60.0
16,43.23441125833334,43.407175352083335,79.0,60.0
17,43.55961425833333,43.701890570833335,84.0,60.0
18,43.884817258333335,44.05554883333333,79.0,58.0
19,44.21002025833334,44.380751833333335,82.0,58.0
20,44.860426258333334,45.037255389583336,79.0,57.0
21,45.185629258333336,45.35839335208333,77.0,58.0
22,45.51083225833334,46.03725461458333,75.0,62.0
23,46.161238258333334,46.39091287708334,75.0,60.0
24,46.486441258333336,46.945790495833336,77.0,59.0
25,47.13684725833333,47.35635928333333,82.0,51.0
26,47.462050258333335,47.68969235833333,79.0,60.0
27,47.78725325833334,48.486439708333336,77.0,60.0
28,49.08806525833334,49.34416262083334,79.0,54.0
29,49.41326825833333,50.16530019583334,82.0,53.0
30,50.38887725833334,50.66529980833334,82.0,58.0
31,50.71408025833333,50.929527245833334,79.0,60.0
32,51.039283258333334,51.21611238958334,82.0,58.0
33,51.364486258333336,51.54131538958333,84.0,59.0
34,51.68968925833333,51.882778539583335,87.0,60.0
35,52.01489225833333,52.46001386458334,84.0,55.0
36,52.99050125833334,53.25269617708334,79.0,60.0
37,53.315704258333334,53.586029252083335,77.0,62.0
38,53.640907258333336,53.80350875833334,75.0,57.0
39,53.96611025833334,54.16936213333334,75.0,59.0
40,54.29131325833333,54.77098768333334,77.0,61.0
41,54.941719258333336,55.17749143333334,79.0,60.0
42,55.26692225833334,56.23643370208333,79.0,59.0
43,56.89293725833333,57.142937064583336,79.0,56.0
44,57.218140258333335,57.77911543333334,82.0,58.0
45,58.518952258333336,58.73439924583334,79.0,58.0
46,58.84415525833334,59.069764839583335,79.0,62.0
47,59.16935825833333,59.37870768958334,77.0,59.0
48,59.494561258333334,59.673422908333336,75.0,60.0
49,59.819764258333336,60.17545503958334,75.0,62.0
50,60.795373258333335,61.02708039583334,70.0,58.0
51,61.12057625833334,61.56976290208334,77.0,57.0
52,61.77098225833333,62.006754433333334,75.0,60.0
53,62.096185258333335,62.427485814583335,79.0,59.0
54,62.74659125833334,62.939680539583335,77.0,59.0
55,63.07179425833334,64.15106171458334,75.0,62.0
56,66.64902725833333,66.85431165208334,70.0,57.0
57,66.97423025833334,67.41528682708334,75.0,65.0
58,67.94983925833334,68.51487947083334,77.0,51.0
59,68.60024525833333,68.75471668333333,79.0,62.0
60,68.92544825833333,69.09211479583334,82.0,59.0
61,69.25065125833333,69.41528527708334,79.0,59.0
62,69.57585425833334,69.91121985208333,79.0,60.0
63,70.55146325833334,70.75471513333333,72.0,58.0
64,70.87666625833333,71.29943015833334,75.0,60.0
65,71.52707225833333,71.85227525833334,75.0,60.0
66,71.85227525833334,72.06365720833334,77.0,58.0
67,72.17747825833334,72.30755945833334,75.0,62.0
68,72.50268125833334,72.70999817083333,72.0,61.0
69,72.82788425833334,73.80775832500001,70.0,61.0
70,74.46349565833333,74.693003725,70.0,59.0
71,74.791364325,75.135626425,75.0,61.0
72,75.774970325,76.17251108333333,77.0,60.0
73,76.43070765833333,76.6048878875,79.0,60.0
74,76.758576325,76.90201886666667,84.0,60.0
75,77.08644499166667,77.25857604166667,79.0,58.0
76,77.41431365833334,78.07005099166668,82.0,58.0
77,78.39791965833334,78.5720998875,79.0,58.0
78,78.725788325,79.25652572916667,75.0,62.0
79,79.38152565833333,79.61308290416667,75.0,60.0
80,79.709394325,80.17250881666666,77.0,59.0
81,80.36513165833334,80.58644300833333,82.0,51.0
82,80.693000325,80.92250839166667,79.0,60.0
83,81.02086899166667,81.725786625,77.0,60.0
84,82.33234365833334,82.59054023333334,79.0,54.0
85,82.660212325,83.31594965833334,82.0,53.0
86,83.31594965833334,83.59463802500001,82.0,58.0
87,83.643818325,83.92250669166667,82.0,58.0
88,83.97168699166667,84.18889998333334,79.0,60.0
89,84.29955565833333,84.47783424583334,82.0,58.0
90,84.627424325,84.80570291250001,84.0,59.0
91,84.95529299166667,85.1499650125,87.0,60.0
92,85.28316165833334,85.73193189583334,84.0,55.0
93,86.26676765833334,86.53111177083333,79.0,60.0
94,86.59463632500001,86.86717715416667,77.0,62.0
95,86.92250499166667,87.086439325,75.0,57.0
96,87.25037365833333,87.455291575,75.0,59.0
97,87.578242325,88.06184860833334,77.0,61.0
98,88.23397965833334,88.47168444166667,82.0,60.0
99,88.561848325,89.53930678750001,79.0,59.0
100,90.20119165833334,90.45305743125002,79.0,56.0
101,90.52826062500002,91.08923580000001,82.0,58.0
102,91.82907262500001,92.04451961250001,79.0,58.0
103,92.15427562500001,92.37988520625001,77.0,62.0
104,92.47947862500001,92.68882805625002,72.0,59.0
105,92.80468162500001,92.98354327500002,75.0,60.0
106,93.12988462500002,93.48557540625,70.0,62.0
107,93.455087625,93.81077840625001,75.0,62.0
108,94.10549362500001,94.33720076250002,77.0,58.0
109,94.43069662500001,94.75589962500001,77.0,57.0
110,94.75589962500001,97.35752362500001,75.0,60.0
111,98.00792962500002,98.26402698750002,79.0,62.0
112,98.33313262500002,98.71727866875001,82.0,58.0
113,98.98353862500001,99.11565234375001,82.0,54.0
114,99.30874162500001,99.49166831250001,82.0,59.0
115,99.63394462500001,99.82703390625001,79.0,61.0
116,99.95914762500001,100.15020438750001,82.0,62.0
117,100.28435062500002,100.74166734375001,84.0,60.0
118,100.934756625,101.11361827500001,84.0,60.0
119,101.25995962500001,101.77215435000001,79.0,64.0
120,101.91036562500001,102.13394268750001,77.0,58.0
121,102.23556862500001,102.64410489375001,75.0,60.0
122,102.88597462500002,103.11564924375001,75.0,63.0
123,103.211177625,103.74369753750001,77.0,60.0
124,103.86158362500001,104.06483550000002,82.0,56.0
125,104.18678662500001,105.33515971875,79.0,54.0
126,105.812801625,106.05670387500001,79.0,62.0
127,106.13800462500001,106.60345141875001,82.0,58.0
128,107.11361362500001,107.34328824375001,82.0,59.0
129,107.43881662500002,107.62784086875001,79.0,60.0
130,107.764019625,107.96727150000001,82.0,60.0
131,108.08922262500002,108.60954742500002,84.0,59.0
132,108.73962862500001,108.96320568750001,84.0,58.0
133,109.06483162500001,109.56889627500001,79.0,58.0
134,109.71523762500001,109.99369269375,77.0,53.0
135,110.04044062500002,110.48962726875001,75.0,63.0
136,110.690846625,110.86157820000001,70.0,60.0
137,111.01604962500001,111.56482968750001,77.0,58.0
138,111.66645562500001,111.91645543125001,79.0,59.0
139,111.99165862500001,112.35751200000001,77.0,62.0
140,112.31686162500002,113.49978753750001,75.0,62.0
141,113.61767362500001,113.70100689375002,72.0,59.0
142,113.78027512500002,113.89409617500002,72.0,58.0
143,113.94287662500001,114.42864860625001,75.0,65.0
144,114.59328262500001,114.81482716875001,75.0,62.0
145,114.91848562500002,115.243688625,77.0,59.0
146,115.243688625,115.56889162500002,77.0,59.0
147,115.56889162500002,115.75588335,82.0,59.0
148,115.89409462500001,116.76198013125001,79.0,58.0
149,117.52010962500002,117.64612578750001,79.0,67.0
150,117.68271112500001,117.77620698750002,82.0,59.0
151,117.84531262500002,118.33311712500002,84.0,57.0
152,118.49571862500001,118.71523065000001,82.0,58.0
153,118.82092162500001,119.02010846250002,84.0,57.0
154,119.14612462500001,119.30872612500002,82.0,59.0
155,119.30872612500002,119.47132762500001,79.0,59.0
156,119.47132762500001,119.73352254375001,77.0,58.0
157,119.79653062500002,120.67661124375002,79.0,59.0
158,121.42254562500001,121.68880558125001,75.0,67.0
159,121.74774862500001,122.05465895625001,77.0,62.0
160,122.39815462500002,122.62579672500001,75.0,67.0
161,122.723357625,122.98352002500002,77.0,64.0
162,123.04856062500002,123.30465798750001,75.0,63.0
163,123.37376362500001,123.58108053750001,72.0,60.0
164,123.69896662500001,124.21319386875001,77.0,59.0
165,124.34937262500002,124.67457562500002,79.0,58.0
166,124.67457562500002,125.10140456250002,77.0,58.0
167,125.32498162500002,125.54855868750002,75.0,69.0
168,125.65018462500001,125.87172916875002,77.0,60.0
169,125.97538762500001,126.13798912500002,77.0,58.0
170,126.30059062500001,126.48351731250001,77.0,59.0
171,126.62579362500001,126.83514305625002,77.0,65.0
172,126.95099662500002,127.17254116875002,79.0,61.0
173,127.276199625,127.47741898125001,84.0,59.0
174,127.60140262500002,129.91499244166667,82.0,58.0
175,164.4748874020833,164.68100946458333,70.0,57.0
176,164.80141740208333,165.24427371458333,75.0,65.0
177,165.78100740208333,166.34835327708333,77.0,51.0
178,166.43406740208331,166.58916915208331,79.0,62.0
179,166.76059740208333,166.92794402708333,82.0,59.0
180,167.08712740208333,167.25243321458333,79.0,59.0
181,167.41365740208332,167.75039146458332,79.0,60.0
182,168.39324740208332,168.59732865208332,72.0,58.0
183,168.71977740208334,169.14426640208333,75.0,60.0
184,169.37283740208332,169.69936740208334,75.0,60.0
185,169.69936740208334,169.91161190208334,77.0,58.0
186,170.02589740208333,170.15650940208332,75.0,62.0
187,170.35242740208332,170.56059027708332,72.0,61.0
188,170.6789574020833,171.65854740208331,70.0,61.0
189,172.31160740208333,172.5401784020833,70.0,59.0
190,172.63813740208332,172.98099390208333,75.0,61.0
191,173.61772740208332,174.01364502708333,77.0,60.0
192,174.27078740208333,174.44425646458333,79.0,60.0
193,174.59731740208332,174.74017427708333,84.0,60.0
194,174.9238474020833,175.09527565208333,79.0,58.0
195,175.25037740208333,175.90343740208334,82.0,58.0
196,176.22996740208333,176.40343646458334,79.0,58.0
197,176.55649740208332,177.08506783958333,75.0,62.0
198,177.20955740208333,177.44016921458334,75.0,60.0
199,177.53608740208333,177.99731102708333,77.0,59.0
200,178.18914740208334,178.40955515208333,82.0,51.0
201,178.51567740208333,178.74424840208331,79.0,60.0
202,178.84220740208332,179.54424690208333,77.0,60.0
203,180.14832740208334,180.40546977708334,79.0,54.0
204,180.47485740208333,181.1279174020833,82.0,53.0
205,181.1279174020833,181.40546790208333,82.0,58.0
206,181.45444740208333,181.73199790208332,82.0,58.0
207,181.78097740208332,181.99730352708332,79.0,60.0
208,182.10750740208334,182.28505808958332,82.0,58.0
209,182.43403740208333,182.61158808958334,84.0,59.0
210,182.76056740208332,182.95444458958332,87.0,60.0
211,183.08709740208332,183.53403533958334,84.0,55.0
212,184.06668740208332,184.32995221458333,79.0,60.0
213,184.39321740208334,184.66464546458332,77.0,62.0
214,184.71974740208333,184.88301240208332,75.0,57.0
215,185.04627740208332,185.25035865208332,75.0,59.0
216,185.37280740208334,185.85443915208333,77.0,61.0
217,186.02586740208332,186.26260165208333,82.0,60.0
218,186.35239740208334,187.32586496458333,79.0,59.0
219,187.9835603395833,188.2325479583333,79.0,56.0
220,188.30744667291665,188.86615059791666,82.0,58.0
221,189.60299200625,189.8175667020833,79.0,58.0
222,189.9268783395833,190.15157448333332,77.0,62.0
223,190.25076467291666,190.45926649999998,72.0,59.0
224,190.57465100624998,190.7527884895833,75.0,60.0
225,190.8985373395833,191.25278801666664,70.0,62.0
226,191.22242367291665,191.57667435,75.0,62.0
227,191.87019633958332,192.1009653520833,77.0,58.0
228,192.19408267291664,192.51796900624998,77.0,57.0
229,192.51796900624998,195.11644541666664,75.0,60.0
230,195.76950541666665,196.02664779166665,79.0,62.0
231,196.09603541666664,196.48174897916664,82.0,58.0
232,196.74909541666665,196.88174822916665,82.0,54.0
233,197.07562541666664,197.25929854166665,82.0,59.0
234,197.40215541666663,197.59603260416665,79.0,61.0
235,197.72868541666665,197.92052179166663,82.0,62.0
236,198.05521541666664,198.51439822916663,84.0,60.0
237,198.70827541666665,198.88786691666664,84.0,60.0
238,199.03480541666664,199.54909016666664,79.0,64.0
239,199.68786541666665,199.91235479166664,77.0,58.0
240,200.01439541666664,200.42459872916663,75.0,60.0
241,200.66745541666663,200.89806722916663,75.0,63.0
242,200.99398541666665,201.52867829166664,77.0,60.0
243,201.64704541666663,201.85112666666663,82.0,56.0
244,201.97357541666665,203.12663447916663,79.0,54.0
245,203.60622541666663,203.85112291666664,79.0,62.0
246,203.93275541666665,204.40010147916664,82.0,58.0
247,204.91234541666665,205.14295722916665,82.0,59.0
248,205.23887541666664,205.42867097916664,79.0,60.0
249,205.56540541666664,205.76948666666664,82.0,60.0
250,205.89193541666663,206.41438341666665,84.0,59.0
251,206.54499541666664,206.76948479166663,84.0,58.0
252,206.87152541666663,207.37764691666663,79.0,58.0
253,207.52458541666664,207.80417672916664,77.0,53.0
254,207.85111541666663,208.30213497916665,75.0,63.0
255,208.50417541666664,208.67560366666663,70.0,60.0
256,208.83070541666663,209.38172479166664,77.0,58.0
257,209.48376541666664,209.73478535416663,79.0,59.0
258,209.81029541666663,210.17764166666663,77.0,62.0
259,210.13682541666665,211.32457829166663,75.0,62.0
260,211.44294541666665,211.52661872916664,72.0,59.0
261,211.60621041666664,211.72049591666664,72.0,58.0
262,211.76947541666664,212.25722960416664,75.0,65.0
263,212.42253541666665,212.64498397916662,75.0,62.0
264,212.74906541666664,213.07559541666663,77.0,59.0
265,213.07559541666663,213.40212541666665,77.0,59.0
266,213.40212541666665,213.58988016666663,82.0,59.0
267,213.72865541666664,214.60008235416663,79.0,58.0
268,215.36130541666665,215.48783579166664,79.0,67.0
269,215.52457041666665,215.61844779166665,82.0,59.0
270,215.68783541666664,216.17763041666663,84.0,57.0
271,216.34089541666663,216.56130316666665,82.0,58.0
272,216.66742541666665,216.86742504166665,84.0,57.0
273,216.99395541666664,217.15722041666663,82.0,59.0
274,217.15722041666663,217.32048541666666,79.0,59.0
275,217.32048541666666,217.58375022916664,77.0,58.0
276,217.64701541666665,218.53068722916663,79.0,59.0
277,219.27966541666663,219.54701185416664,75.0,67.0
278,219.60619541666665,219.91435810416664,77.0,62.0
279,220.25925541666663,220.48782641666665,75.0,67.0
280,220.58578541666665,220.84700941666665,77.0,64.0
281,220.91231541666664,221.16945779166664,75.0,63.0
282,221.23884541666663,221.44700829166663,72.0,60.0
283,221.56537541666665,222.08170097916664,77.0,59.0
284,222.21843541666664,222.54496541666663,79.0,58.0
285,222.54496541666663,222.97353604166665,77.0,58.0
286,223.19802541666664,223.42251479166663,75.0,69.0
287,223.52455541666663,223.74700397916664,77.0,60.0
288,223.85108541666665,224.01435041666664,77.0,58.0
289,224.17761541666664,224.36128854166665,77.0,59.0
290,224.50414541666663,224.71434910416664,77.0,65.0
291,224.83067541666665,225.05312397916663,79.0,61.0
292,225.15720541666664,225.35924585416663,84.0,59.0
293,225.48373541666663,227.79189435416663,82.0,58.0
294,246.65809870624997,246.91213071874998,79.0,62.0
295,246.9806790395833,247.36172705833332,82.0,58.0
296,247.62697523541664,247.75962804791664,82.0,54.0
297,247.95350523541663,248.13717836041664,82.0,59.0
298,248.28003523541662,248.47391242291664,79.0,61.0
299,248.60656523541664,248.79840161041662,82.0,62.0
300,248.93309523541663,249.39227804791662,84.0,60.0
301,249.58615523541664,249.76574673541663,84.0,60.0
302,249.91268523541663,250.42696998541663,79.0,64.0
303,250.56574523541664,250.79023461041663,77.0,58.0
304,250.89227523541663,251.30247854791662,75.0,60.0
305,251.54533523541664,251.77594704791665,75.0,63.0
306,251.87186523541664,252.40655811041663,77.0,60.0
307,252.52492523541665,252.72900648541662,82.0,56.0
308,252.85145523541664,254.00451429791664,79.0,54.0
309,254.48410523541662,254.72900273541663,79.0,62.0
310,254.81063523541664,255.27798129791663,82.0,58.0
311,255.79022523541664,256.02083704791664,82.0,59.0
312,256.11675523541663,256.30655079791666,79.0,60.0
313,256.4432852354166,256.6473664854166,82.0,60.0
314,256.7698152354166,257.2922632354166,84.0,59.0
315,257.42287523541665,257.6473646104166,84.0,58.0
316,257.74940523541665,258.25552673541665,79.0,58.0
317,258.4024652354166,258.68205654791666,77.0,53.0
318,258.7289952354166,259.1800147979166,75.0,63.0
319,259.38205523541666,259.5534834854166,70.0,60.0
320,259.70858523541665,260.25960461041666,77.0,58.0
321,260.36164523541663,260.61266517291665,79.0,59.0
322,260.6881752354166,261.05552148541665,77.0,62.0
323,261.0147052354166,262.2024581104166,75.0,62.0
324,262.32082523541663,262.40449854791666,72.0,59.0
325,262.48409023541666,262.59837573541665,72.0,58.0
326,262.6473552354166,263.1351094229166,75.0,65.0
327,263.3004152354166,263.5228637979166,75.0,62.0
328,263.62694523541666,263.95347523541665,77.0,59.0
329,263.95347523541665,264.28000523541664,77.0,59.0
330,264.28000523541664,264.46775998541665,82.0,59.0
331,264.60653523541663,265.47796217291665,79.0,58.0
332,266.23918523541664,266.36571561041666,79.0,67.0
333,266.4024502354166,266.49632761041664,82.0,59.0
334,266.56571523541663,267.05551023541665,84.0,57.0
335,267.2187752354166,267.4391829854166,82.0,58.0
336,267.5453052354166,267.74530486041664,84.0,57.0
337,267.87183523541665,268.0351002354166,82.0,59.0
338,268.0351002354166,268.19836523541665,79.0,59.0
339,268.19836523541665,268.46163004791663,77.0,58.0
340,268.52489523541664,269.4085670479166,79.0,59.0
341,270.15754523541665,270.42489167291666,75.0,67.0
342,270.48407523541664,270.7922379229166,77.0,62.0
343,271.1371352354166,271.3657062354166,75.0,67.0
344,271.4636652354166,271.72488923541664,77.0,64.0
345,271.7901952354166,272.04733761041666,75.0,63.0
346,272.11672523541665,272.3248881104166,72.0,60.0
347,272.44325523541664,272.95958079791666,77.0,59.0
348,273.0963152354166,273.4228452354166,79.0,58.0
349,273.4228452354166,273.85141586041664,77.0,58.0
350,274.07590523541666,274.3003946104166,75.0,69.0
351,274.40243523541665,274.62488379791665,77.0,60.0
352,274.72896523541664,274.8922302354166,77.0,58.0
353,275.05549523541663,275.2391683604166,77.0,59.0
354,275.3820252354166,275.59222892291666,77.0,65.0
355,275.7085552354166,275.9310037979166,79.0,61.0
356,276.03508523541666,276.23712567291665,84.0,59.0
357,276.36161523541665,278.6697741729166,82.0,58.0
358,287.80159186041664,288.0576892229166,79.0,62.0
359,288.1267948604166,288.51094090416666,82.0,58.0
360,288.77720086041666,288.9093145791666,82.0,54.0
361,289.10240386041664,289.28533054791666,82.0,59.0
362,289.42760686041663,289.62069614166666,79.0,61.0
363,289.7528098604166,289.94386662291663,82.0,62.0
364,290.07801286041666,290.53532957916667,84.0,60.0
365,290.72841886041664,290.9072805104166,84.0,60.0
366,291.0536218604166,291.56581658541666,79.0,64.0
367,291.70402786041666,291.92760492291666,77.0,58.0
368,292.02923086041665,292.4377671291667,75.0,60.0
369,292.6796368604166,292.90931147916666,75.0,63.0
370,293.00483986041667,293.53735977291666,77.0,60.0
371,293.65524586041664,293.8584977354166,82.0,56.0
372,293.98044886041663,295.12882195416665,79.0,54.0
373,295.6064638604166,295.85036611041664,79.0,62.0
374,295.93166686041667,296.3971136541667,82.0,58.0
375,296.90727586041663,297.13695047916667,82.0,59.0
376,297.2324788604166,297.4215031041666,79.0,60.0
377,297.55768186041666,297.76093373541664,82.0,60.0
378,297.88288486041665,298.4032096604166,84.0,59.0
379,298.5332908604166,298.7568679229166,84.0,58.0
380,298.8584938604167,299.36255851041665,79.0,58.0
381,299.50889986041665,299.78735492916667,77.0,53.0
382,299.83410286041664,300.28328950416665,75.0,63.0
383,300.48450886041667,300.65524043541666,70.0,60.0
384,300.80971186041666,301.35849192291664,77.0,58.0
385,301.46011786041663,301.71011766666663,79.0,59.0
386,301.7853208604166,302.15117423541665,77.0,62.0
387,302.11052386041666,303.29344977291663,75.0,62.0
