,start,end,pitch,velocity
0,0.83130016875,1.84349450625,58.0,47.0
1,0.50609716875,1.8983725125000002,51.0,55.0
2,1.15650316875,2.0162586,63.0,51.0
3,1.4817061687500002,3.1056886500000003,67.0,58.0
4,2.7825181687500002,3.6016232250000004,55.0,39.0
5,2.45731516875,3.72967190625,48.0,51.0
6,3.43292416875,3.845525475,63.0,49.0
7,3.43292416875,3.85568806875,67.0,53.0
8,3.1077211687500004,3.8963384437500004,60.0,52.0
9,4.40853316875,5.1504025125,60.0,52.0
10,5.05893916875,5.536581075,56.0,50.0
11,4.73373616875,5.9512149,51.0,33.0
12,5.38414216875,5.9593449750000005,60.0,55.0
13,4.40853316875,6.01015794375,44.0,50.0
14,5.38414216875,6.018288018750001,63.0,50.0
15,6.359751168750001,7.11584814375,63.0,49.0
16,6.68495416875,7.5548721937500005,46.0,42.0
17,6.359751168750001,7.585359975,39.0,46.0
18,7.01015716875,7.6544656125,58.0,59.0
19,7.33536016875,7.790644368750001,67.0,67.0
20,7.66056316875,8.0325141,63.0,47.0
21,8.31096916875,8.54267630625,58.0,48.0
22,8.31096916875,8.80283870625,63.0,54.0
23,8.63617216875,9.048773475,58.0,46.0
24,8.961375168750001,9.1382043,63.0,53.0
25,9.286578168750001,9.63617139375,58.0,47.0
26,8.31096916875,9.650399025,51.0,57.0
27,9.286578168750001,9.680886806250001,63.0,54.0
28,9.286578168750001,9.7601550375,67.0,49.0
29,10.262187168750001,11.520316275,60.0,53.0
30,10.58739016875,11.6951128875,55.0,44.0
31,10.262187168750001,11.908527356250001,48.0,53.0
32,10.262187168750001,12.164624718750002,63.0,54.0
33,10.91259316875,12.189014943750001,67.0,52.0
34,12.53860816875,12.894298950000001,51.0,53.0
35,12.21340516875,12.912591618750001,44.0,54.0
36,12.86381116875,13.004054962500001,56.0,61.0
37,13.18901416875,13.9146233625,62.0,49.0
38,13.18901416875,14.0528346375,58.0,47.0
39,13.18901416875,14.109745162500001,46.0,57.0
40,14.164623168750001,14.349582375,58.0,47.0
41,14.164623168750001,14.658525225000002,63.0,52.0
42,14.815029168750002,15.25405321875,63.0,52.0
43,14.489826168750001,15.260150775000001,58.0,45.0
44,15.140232168750002,15.621939112500002,67.0,42.0
45,14.164623168750001,15.79063816875,51.0,57.0
46,16.115841168750002,16.86177555,63.0,46.0
47,16.115841168750002,16.9146210375,58.0,46.0
48,17.09145016875,17.54266933125,67.0,63.0
49,16.115841168750002,17.601612375000002,51.0,53.0
50,17.416653168750003,17.80486425,63.0,54.0
51,17.74185616875,17.939010487500003,58.0,54.0
52,18.067059168750003,18.7032375375,58.0,23.0
53,18.067059168750003,18.79876591875,63.0,52.0
54,18.71746516875,19.3129931625,55.0,42.0
55,19.04266816875,19.3455134625,67.0,48.0
56,19.04266816875,19.380066281250002,60.0,51.0
57,18.067059168750003,19.4146191,48.0,54.0
58,20.01827716875,20.4755938875,56.0,49.0
59,20.01827716875,20.72965873125,60.0,52.0
60,20.66868316875,20.845512300000003,56.0,53.0
61,20.993886168750002,21.4268126625,56.0,55.0
62,20.993886168750002,21.44917036875,60.0,47.0
63,20.343480168750002,21.4959183,51.0,45.0
64,20.01827716875,21.57721905,44.0,57.0
65,21.96949516875,22.17274704375,58.0,48.0
66,21.96949516875,22.39225906875,63.0,49.0
67,22.294698168750003,22.8414457125,58.0,48.0
68,22.61990116875,22.8577058625,63.0,52.0
69,22.945104168750003,23.278437243750002,65.0,64.0
70,23.27030716875,23.60364024375,63.0,50.0
71,21.96949516875,23.6300629875,51.0,53.0
72,23.59551016875,23.772339300000002,58.0,45.0
73,23.92071316875,24.44510300625,58.0,51.0
74,24.571119168750002,24.754045856250002,58.0,44.0
75,23.92071316875,24.80282630625,67.0,48.0
76,24.89632216875,25.44713475,58.0,52.0
77,24.89632216875,25.560955800000002,63.0,59.0
78,23.92071316875,25.6300614375,51.0,54.0
79,25.871931168750002,26.33534544375,60.0,48.0
80,25.871931168750002,26.5731501375,63.0,53.0
81,26.522337168750003,26.705263856250003,60.0,58.0
82,26.19713416875,26.989816481250003,55.0,43.0
83,26.84754016875,27.117865162500003,67.0,52.0
84,25.871931168750002,27.14835294375,48.0,54.0
85,26.84754016875,27.17680820625,60.0,58.0
86,27.823149168750003,28.26217321875,56.0,49.0
87,27.823149168750003,28.3048561125,60.0,50.0
88,27.823149168750003,28.375994268750002,63.0,52.0
89,27.823149168750003,28.512173025000003,44.0,57.0
90,28.798758168750002,29.193066806250002,58.0,48.0
91,28.798758168750002,29.48168446875,62.0,48.0
92,29.12396116875,29.5731478125,53.0,42.0
93,28.798758168750002,29.601603075000003,46.0,58.0
94,29.449164168750002,29.70932656875,58.0,54.0
95,29.77436716875,30.24184648125,63.0,53.0
96,30.099570168750002,30.518269031250004,58.0,48.0
97,30.42477316875,30.784528987500003,63.0,53.0
98,30.749976168750003,30.979650787500002,65.0,57.0
99,31.07517916875,31.43743399791667,67.0,49.0
100,29.77436716875,31.513253627083337,51.0,57.0
101,31.40054877291667,31.66694206458334,65.0,51.0
102,31.728417439583335,33.18490623541667,58.0,45.0
103,31.728417439583335,33.28490623541667,63.0,51.0
104,31.728417439583335,33.295322902083335,51.0,58.0
105,34.38353999791667,34.789277472916666,63.0,59.0
106,33.72032290208334,34.85690038541667,51.0,60.0
107,34.05365623541667,34.87739217708334,58.0,43.0
108,34.71140866458334,34.981900314583335,67.0,56.0
109,35.69501466458334,36.36304707291667,70.0,56.0
110,35.69501466458334,36.66632558958334,43.0,43.0
111,36.02288333125,36.69091573958334,50.0,40.0
112,36.678620664583335,36.79337469791667,67.0,52.0
113,36.35075199791667,36.79542387708334,62.0,58.0
114,37.662226664583336,38.024931377083334,63.0,51.0
115,37.662226664583336,38.31591481875,68.0,50.0
116,38.31796399791667,38.76878341458334,63.0,51.0
117,38.64583266458334,38.854848939583334,68.0,54.0
118,37.990095331250004,38.85689811875,51.0,41.0
119,37.662226664583336,38.89583252291667,44.0,56.0
120,39.62943866458334,40.49419227291667,70.0,54.0
121,40.28517599791667,40.68271675625,58.0,57.0
122,40.613044664583335,40.957306764583336,65.0,59.0
123,39.95730733125001,41.248290206250005,53.0,46.0
124,40.94091333125,41.25853610208334,63.0,50.0
125,39.62943866458334,41.29337214791667,46.0,57.0
126,41.26878199791667,41.471650735416674,60.0,47.0
127,41.596650664583336,42.05976515625,63.0,51.0
128,41.596650664583336,42.082306127083335,58.0,54.0
129,41.92451933125,42.082306127083335,58.0,45.0
130,42.25238799791667,42.619191068750006,63.0,54.0
131,41.596650664583336,42.77697786458334,51.0,49.0
132,42.58025666458334,42.942961377083336,67.0,61.0
133,43.884817258333335,44.44375991458333,50.0,44.0
134,43.55961425833333,44.57180859583333,70.0,55.0
135,43.55961425833333,44.91936930208333,43.0,53.0
136,44.53522325833333,44.982377383333336,50.0,46.0
137,44.21002025833334,45.116523620833334,67.0,48.0
138,46.161238258333334,46.634815127083336,56.0,58.0
139,46.486441258333336,46.84416455833333,60.0,59.0
140,45.51083225833334,46.929530345833335,44.0,54.0
141,45.83603525833333,46.95595308958333,51.0,49.0
142,48.11245625833334,48.746602108333335,58.0,57.0
143,47.78725325833334,49.09822785208333,53.0,49.0
144,48.43765925833333,49.10229288958334,70.0,59.0
145,47.462050258333335,49.12058555833333,46.0,58.0
146,48.762862258333335,49.16326845208334,65.0,54.0
147,49.08806525833334,49.549447014583336,58.0,54.0
148,49.41326825833333,50.12871485833334,62.0,51.0
149,49.41326825833333,50.447820302083336,43.0,57.0
150,49.738471258333334,50.48237312083334,50.0,43.0
151,50.063674258333336,50.523023495833336,58.0,59.0
152,50.38887725833334,50.68562499583334,62.0,64.0
153,50.38887725833334,50.93968983958334,67.0,54.0
154,51.364486258333336,51.752697339583335,60.0,51.0
155,51.364486258333336,52.04131500208334,63.0,54.0
156,51.68968925833333,52.37261555833334,55.0,45.0
157,52.01489225833333,52.415298452083334,60.0,54.0
158,51.364486258333336,52.55350972708334,48.0,53.0
159,52.340095258333335,52.71611122708333,67.0,60.0
160,53.315704258333334,53.70391533958333,56.0,52.0
161,53.315704258333334,54.079931308333336,63.0,54.0
162,53.96611025833334,54.189687320833336,56.0,59.0
163,54.29131325833333,54.575865883333336,56.0,58.0
164,54.29131325833333,54.59009351458334,60.0,54.0
165,53.640907258333336,54.817735614583334,51.0,49.0
166,53.315704258333334,54.88074369583334,44.0,58.0
167,55.26692225833334,55.46204405833333,58.0,47.0
168,55.26692225833334,55.697816233333334,63.0,56.0
169,55.917328258333335,56.27708407708334,63.0,53.0
170,55.59212525833334,56.33196208333334,58.0,56.0
171,56.24253125833334,56.58805944583334,65.0,59.0
172,55.26692225833334,56.67342523333333,51.0,60.0
173,56.56773425833334,56.88074214583334,63.0,54.0
174,56.89293725833333,57.270985745833336,58.0,53.0
175,57.218140258333335,57.91935922708333,62.0,50.0
176,57.218140258333335,58.340090608333334,43.0,47.0
177,57.54334325833334,58.38480602083334,50.0,42.0
178,57.86854625833334,58.51285470208334,58.0,58.0
179,58.193749258333334,58.63683834583334,62.0,61.0
180,58.193749258333334,58.66326108958334,67.0,58.0
181,59.16935825833333,59.874642264583336,60.0,50.0
182,59.16935825833333,60.155129852083334,56.0,47.0
183,59.819764258333336,60.207975339583335,63.0,52.0
184,59.16935825833333,60.81976348333333,44.0,58.0
185,59.494561258333334,60.84008867083334,51.0,48.0
186,60.47017025833334,60.852283783333334,63.0,54.0
187,60.795373258333335,60.98236498333334,56.0,59.0
188,60.14496725833334,60.996592614583335,68.0,59.0
189,61.77098225833333,61.96407153958334,58.0,51.0
190,62.096185258333335,62.33805498958334,62.0,58.0
191,62.096185258333335,62.425453295833336,58.0,56.0
192,61.44577925833333,62.49455893333334,53.0,47.0
193,61.12057625833334,62.55959953333334,46.0,59.0
194,63.07179425833334,63.234395758333335,58.0,50.0
195,63.07179425833334,63.453907783333335,63.0,54.0
196,63.396997258333336,63.929517170833336,58.0,51.0
197,63.72220025833334,64.06569592708334,63.0,51.0
198,64.04740325833333,64.38683388958333,65.0,59.0
199,63.07179425833334,64.62260606458334,51.0,55.0
200,64.37260625833333,64.83195549583334,63.0,51.0
201,64.69780925833334,64.91122372708334,58.0,49.0
202,65.02301225833334,66.72423045208333,58.0,47.0
203,65.02301225833334,66.73642556458333,63.0,51.0
204,65.02301225833334,66.80756372083334,51.0,56.0
205,67.62463625833334,68.02707497083334,63.0,59.0
206,66.97423025833334,68.09414808958334,51.0,60.0
207,67.29943325833334,68.11447327708333,58.0,43.0
208,67.94983925833334,68.21813173333334,67.0,56.0
209,68.92544825833333,69.58804937083333,70.0,56.0
210,68.92544825833333,69.88886214583334,43.0,43.0
211,69.25065125833333,69.91325237083333,50.0,40.0
212,69.90105725833334,70.01487830833334,67.0,52.0
213,69.57585425833334,70.01691082708334,62.0,58.0
214,70.87666625833333,71.23642207708333,63.0,51.0
215,70.87666625833333,71.52503973958333,68.0,50.0
216,71.52707225833333,71.97422638333333,63.0,51.0
217,71.85227525833334,72.05959217083334,68.0,54.0
218,71.20186925833333,72.06162468958334,51.0,41.0
219,70.87666625833333,72.10024254583334,44.0,56.0
220,72.82788425833334,73.68890593333333,70.0,54.0
221,73.47988965833333,73.87743041666667,58.0,57.0
222,73.80775832500001,74.152020425,65.0,59.0
223,73.15308725833333,74.44300386666667,53.0,46.0
224,74.13562699166667,74.45324976250001,63.0,50.0
225,72.82788425833334,74.48808580833334,46.0,57.0
226,74.46349565833333,74.66636439583334,60.0,47.0
227,74.791364325,75.25447881666668,63.0,51.0
228,74.791364325,75.27701978750001,58.0,54.0
229,75.11923299166666,75.27701978750001,58.0,45.0
230,75.44710165833334,75.81390472916667,63.0,54.0
231,74.791364325,75.971691525,51.0,49.0
232,75.774970325,76.1376750375,67.0,61.0
233,77.08644499166667,77.64996926250001,50.0,44.0
234,76.758576325,77.77906755000001,70.0,55.0
235,76.758576325,78.1294771875,43.0,53.0
236,77.742182325,78.19300174166666,50.0,46.0
237,77.41431365833334,78.32824756666668,67.0,48.0
238,79.38152565833333,79.85898440416668,56.0,58.0
239,79.709394325,80.07004985833333,60.0,59.0
240,78.725788325,80.15611538333334,44.0,54.0
241,79.05365699166667,80.1827547125,51.0,49.0
242,81.34873765833333,81.98808155833333,58.0,57.0
243,81.02086899166667,82.34258955416666,53.0,49.0
244,81.67660632500001,82.3466879125,70.0,59.0
245,80.693000325,82.365130525,46.0,58.0
246,82.00447499166667,82.4081632875,65.0,54.0
247,82.33234365833334,82.79750732916668,58.0,54.0
248,82.660212325,83.38152339166668,62.0,51.0
249,82.660212325,83.70324452083334,43.0,57.0
250,82.98808099166666,83.73808056666667,50.0,43.0
251,83.31594965833334,83.77906415000001,58.0,59.0
252,83.643818325,83.94299848333334,62.0,64.0
253,83.643818325,84.19914587916666,67.0,54.0
254,84.627424325,85.01881754583334,60.0,51.0
255,84.627424325,85.30980098750001,63.0,54.0
256,84.95529299166667,85.64381719166667,55.0,45.0
257,85.28316165833334,85.68684995416668,60.0,54.0
258,84.627424325,85.82619413750001,48.0,53.0
259,85.611030325,85.99012847083334,67.0,60.0
260,86.59463632500001,86.98602954583333,56.0,52.0
261,86.59463632500001,87.36512769166667,63.0,54.0
262,87.25037365833333,87.47578336666668,56.0,59.0
263,87.578242325,87.86512740833334,56.0,58.0
264,87.578242325,87.87947166250001,60.0,54.0
265,86.92250499166667,88.10897972916668,51.0,49.0
266,86.59463632500001,88.17250428333334,44.0,58.0
267,88.561848325,88.758569525,58.0,47.0
268,88.561848325,88.99627430833334,63.0,56.0
269,89.21758565833333,89.58029037083334,63.0,53.0
270,88.88971699166667,89.63561820833334,58.0,56.0
271,89.54545432500001,89.89381478333334,65.0,59.0
272,88.561848325,89.97988030833334,51.0,60.0
273,89.87332299166667,90.18889658333333,63.0,54.0
274,90.20119165833334,90.58110611250001,58.0,53.0
275,90.52826062500002,91.22947959375001,62.0,50.0
276,90.52826062500002,91.65021097500001,43.0,47.0
277,90.85346362500002,91.6949263875,50.0,42.0
278,91.178666625,91.82297506875001,58.0,58.0
279,91.50386962500001,91.9469587125,62.0,61.0
280,91.50386962500001,91.97338145625001,67.0,58.0
281,92.47947862500001,93.18476263125001,60.0,50.0
282,92.47947862500001,93.46525021875001,56.0,47.0
283,93.12988462500002,93.51809570625001,63.0,52.0
284,92.47947862500001,94.12988385000001,44.0,58.0
285,92.80468162500001,94.1502090375,51.0,48.0
286,93.780290625,94.16240415000001,63.0,54.0
287,94.10549362500001,94.29248535,56.0,59.0
288,93.455087625,94.30671298125002,68.0,59.0
289,95.08110262500001,95.27419190625001,58.0,51.0
290,95.40630562500002,95.64817535625001,62.0,58.0
291,95.40630562500002,95.73557366250002,58.0,56.0
292,94.75589962500001,95.8046793,53.0,47.0
293,94.43069662500001,95.8697199,46.0,59.0
294,96.38191462500001,96.54451612500002,58.0,50.0
295,96.38191462500001,96.76402815000002,63.0,54.0
296,96.70711762500001,97.23963753750002,58.0,51.0
297,97.03232062500001,97.37581629375,63.0,51.0
298,97.35752362500001,97.69695425625001,65.0,59.0
299,96.38191462500001,97.93272643125002,51.0,55.0
300,97.68272662500002,98.14207586250001,63.0,51.0
301,98.00792962500002,98.22134409375,58.0,49.0
302,98.33313262500002,98.658335625,67.0,52.0
303,98.33313262500002,98.68272585000001,63.0,56.0
304,98.658335625,99.3941074125,58.0,46.0
305,98.33313262500002,99.42053015625001,51.0,59.0
306,98.98353862500001,99.42053015625001,63.0,52.0
307,99.30874162500001,99.78638353125001,67.0,58.0
308,99.30874162500001,99.96727770000001,70.0,58.0
309,99.95914762500001,100.089228825,63.0,58.0
310,100.28435062500002,100.66036659375001,60.0,59.0
311,100.28435062500002,100.94898425625001,63.0,57.0
312,100.934756625,101.16849628125001,60.0,46.0
313,100.60955362500002,101.40426845625001,55.0,45.0
314,101.25995962500001,101.55873988125,60.0,57.0
315,101.25995962500001,101.68475604375001,63.0,58.0
316,100.28435062500002,101.69898367500001,48.0,50.0
317,101.25995962500001,101.73556901250001,67.0,56.0
318,101.58516262500001,101.77418686875001,55.0,51.0
319,101.91036562500001,102.07703216250002,60.0,63.0
320,102.23556862500001,102.60142200000001,56.0,54.0
321,102.23556862500001,102.87377951250001,44.0,55.0
322,102.56077162500002,102.93272255625001,51.0,39.0
323,102.23556862500001,102.94288515000001,60.0,52.0
324,102.88597462500002,103.07499886875001,56.0,53.0
325,103.211177625,103.64410411875001,58.0,51.0
326,103.211177625,103.89816896250001,62.0,53.0
327,103.536380625,104.01808756875002,53.0,42.0
328,103.211177625,104.0526403875,46.0,59.0
329,103.86158362500001,104.06077046250002,58.0,58.0
330,104.18678662500001,104.38800598125002,58.0,52.0
331,104.18678662500001,104.60955052500002,63.0,56.0
332,104.51198962500001,105.0038591625,58.0,53.0
333,104.83719262500001,105.04654205625002,63.0,55.0
334,104.18678662500001,105.71320820625002,51.0,53.0
335,105.16239562500002,105.77418376875,65.0,64.0
336,105.812801625,106.02215105625001,63.0,45.0
337,106.13800462500001,106.34328901875001,58.0,49.0
338,106.13800462500001,106.46930518125001,67.0,53.0
339,106.78841062500001,107.01198768750001,63.0,52.0
340,106.46320762500001,107.18881681875001,58.0,51.0
341,106.13800462500001,107.21930460000002,51.0,63.0
342,107.11361362500001,107.31076794375001,63.0,52.0
343,107.11361362500001,107.40629632500001,67.0,54.0
344,107.11361362500001,107.53027996875001,70.0,58.0
345,108.08922262500002,108.45710851875,60.0,46.0
346,108.08922262500002,108.72540099375001,63.0,52.0
347,108.73962862500001,108.90223012500002,60.0,42.0
348,108.414425625,109.18271771250001,55.0,44.0
349,108.08922262500002,109.29857128125002,48.0,58.0
350,109.06483162500001,109.49572560000001,63.0,58.0
351,109.06483162500001,109.49979063750001,67.0,48.0
352,109.06483162500001,109.52824590000002,60.0,58.0
353,110.04044062500002,110.4022289625,56.0,50.0
354,110.04044062500002,110.68881410625,44.0,58.0
355,110.04044062500002,110.73149700000002,60.0,53.0
356,110.36564362500002,110.84735056875002,51.0,46.0
357,110.690846625,110.90019605625001,56.0,50.0
358,111.01604962500001,111.37377292500001,58.0,54.0
359,111.01604962500001,111.52214679375001,62.0,58.0
360,111.01604962500001,111.73962630000001,46.0,58.0
361,111.34125262500001,111.78027667500001,53.0,45.0
362,111.66645562500001,111.85547986875001,58.0,54.0
363,111.99165862500001,112.17661783125001,58.0,47.0
364,111.99165862500001,112.41239000625,63.0,54.0
365,112.31686162500002,112.77417834375001,58.0,44.0
366,112.64206462500002,112.81279620000001,63.0,52.0
367,112.967267625,113.34328359375002,58.0,58.0
368,112.967267625,113.40832419375002,65.0,62.0
369,113.292470625,113.63190125625002,63.0,46.0
370,111.99165862500001,113.63799881250002,51.0,58.0
371,113.61767362500001,113.80060031250001,58.0,48.0
372,113.94287662500001,114.29653488750002,56.0,56.0
373,113.94287662500001,114.62783544375002,60.0,53.0
374,113.94287662500001,114.69490856250002,44.0,60.0
375,114.59328262500001,114.75588412500001,56.0,55.0
376,114.26807962500001,114.7965345,51.0,48.0
377,114.91848562500002,115.29043655625001,58.0,54.0
378,114.91848562500002,115.390029975,62.0,59.0
379,114.91848562500002,115.71523297500002,46.0,59.0
380,115.243688625,115.72133053125,53.0,50.0
381,115.56889162500002,115.75791586875002,58.0,61.0
382,115.89409462500001,116.08311886875,58.0,57.0
383,115.89409462500001,116.35141134375002,63.0,57.0
384,116.21929762500001,116.65425663750001,58.0,46.0
385,116.54450062500001,116.67051678750002,63.0,51.0
386,116.86970362500001,117.26604478125002,65.0,63.0
387,117.19490662500002,117.6623859375,63.0,50.0
388,117.52010962500002,117.73352409375002,58.0,48.0
389,115.89409462500001,117.77417446875,51.0,58.0
390,117.84531262500002,118.20303592500001,56.0,56.0
391,117.84531262500002,118.25791393125002,63.0,58.0
392,117.84531262500002,118.48962106875001,44.0,58.0
393,118.17051562500001,118.55669418750001,51.0,49.0
394,118.49571862500001,118.65425508750002,56.0,60.0
395,118.82092162500001,119.20303515,58.0,58.0
396,118.82092162500001,119.31482368125,62.0,53.0
397,119.14612462500001,119.60547386250002,53.0,51.0
398,118.82092162500001,119.61563645625002,46.0,58.0
399,119.47132762500001,119.63392912500001,58.0,59.0
400,119.79653062500002,120.02214020625001,58.0,50.0
401,119.79653062500002,120.22945711875002,63.0,55.0
402,120.12173362500002,120.53636745000001,58.0,56.0
403,120.446936625,120.61360316250001,63.0,52.0
404,120.77213962500001,121.18474093125002,58.0,58.0
405,119.79653062500002,121.22132626875,51.0,56.0
406,120.77213962500001,121.29856198125002,65.0,60.0
407,121.09734262500001,121.50384637500001,63.0,50.0
408,121.42254562500001,121.58921216250002,58.0,42.0
409,121.74774862500001,122.07701666250001,60.0,54.0
410,121.74774862500001,122.46319522500002,65.0,58.0
411,122.39815462500002,122.58514635,60.0,52.0
412,122.723357625,122.90628431250002,60.0,59.0
413,122.723357625,123.06888581250001,68.0,55.0
414,121.74774862500001,123.13799145000002,41.0,60.0
415,123.04856062500002,123.44693430000001,65.0,59.0
416,123.37376362500001,123.57701550000002,60.0,58.0
417,123.69896662500001,123.93677131875,60.0,60.0
418,123.69896662500001,124.50790908750001,65.0,61.0
419,124.34937262500002,124.59530739375,60.0,41.0
420,124.67457562500002,124.81888445625,60.0,56.0
421,124.67457562500002,124.97742091875001,53.0,59.0
422,124.67457562500002,125.03026640625,65.0,62.0
423,124.67457562500002,125.09733952500001,68.0,59.0
424,124.999778625,125.17254271875001,60.0,53.0
425,125.32498162500002,125.46929045625001,65.0,49.0
426,125.32498162500002,125.48148556875,60.0,53.0
427,125.65018462500001,125.99368029375,56.0,53.0
428,125.65018462500001,126.316850775,60.0,54.0
429,126.30059062500001,126.48554983125001,56.0,54.0
430,125.97538762500001,126.75790734375002,51.0,53.0
431,126.62579362500001,126.95302914375002,56.0,61.0
432,126.62579362500001,127.01197218750002,63.0,59.0
433,125.65018462500001,127.23351673125,44.0,59.0
434,126.95099662500002,127.30058985000002,51.0,55.0
435,127.276199625,127.45912631250002,56.0,58.0
436,127.60140262500002,127.86766258125002,58.0,54.0
437,127.60140262500002,127.90424791875002,62.0,51.0
438,127.60140262500002,127.97132103750002,46.0,59.0
439,127.92660562500001,128.03026408125,53.0,56.0
440,128.90884547083334,129.20187809166666,70.0,74.0
441,128.58097680416665,129.38630421666667,65.0,63.0
442,128.2531081375,129.39859929166667,58.0,63.0
443,129.2367141375,129.44982877083334,77.0,58.0
444,129.56458280416666,129.96622192083333,70.0,59.0
445,129.56458280416666,130.31048402083334,82.0,57.0
446,130.2203201375,130.39450036666668,70.0,45.0
447,129.89245147083332,130.67113955416667,65.0,49.0
448,129.56458280416666,130.693680525,58.0,60.0
449,130.54818880416667,131.38630308333333,74.0,45.0
450,130.54818880416667,131.39654897916665,70.0,48.0
451,131.53179480416668,131.85966347083334,67.0,52.0
452,131.53179480416668,131.88425362083333,63.0,56.0
453,131.85966347083334,132.60146632916667,58.0,46.0
454,131.53179480416668,132.62810565833334,51.0,59.0
455,132.1875321375,132.62810565833334,63.0,52.0
456,132.51540080416666,132.99695790833334,67.0,58.0
457,132.51540080416666,133.17933485416665,70.0,58.0
458,133.1711381375,133.30228560416666,63.0,58.0
459,133.49900680416667,133.87810495,60.0,59.0
460,133.49900680416667,134.16908839166666,63.0,57.0
461,134.1547441375,134.39039974166667,60.0,46.0
462,133.82687547083333,134.628104525,55.0,45.0
463,134.48261280416668,134.78384214166667,60.0,57.0
464,134.48261280416668,134.91089125,63.0,58.0
465,133.49900680416667,134.92523550416666,48.0,50.0
466,134.48261280416668,134.96212072916666,67.0,56.0
467,134.81048147083334,135.00105513333332,55.0,51.0
468,135.1383501375,135.30638282916667,60.0,63.0
469,135.46621880416666,135.83507105416666,56.0,54.0
470,135.46621880416666,136.1096610625,44.0,55.0
471,135.79408747083335,136.16908725833332,51.0,39.0
472,135.46621880416666,136.17933315416667,60.0,52.0
473,136.1219561375,136.3125298,56.0,53.0
474,136.44982480416667,136.88629996666666,58.0,51.0
475,136.44982480416667,137.1424473625,62.0,53.0
476,136.77769347083333,137.26334893333333,53.0,42.0
477,136.44982480416667,137.29818497916668,46.0,59.0
478,137.1055621375,137.30638169583332,58.0,58.0
479,137.43343080416668,137.63629954166666,58.0,52.0
480,137.43343080416668,137.85966007083334,63.0,56.0
481,137.76129947083334,138.25720082916666,58.0,53.0
482,138.0891681375,138.30023359166665,63.0,55.0
483,137.43343080416668,138.97236435833332,51.0,53.0
484,138.41703680416666,139.03383973333334,65.0,64.0
485,139.0727741375,139.28383959166666,63.0,45.0
486,139.40064280416667,139.6076099,58.0,49.0
487,139.40064280416667,139.73465900833332,67.0,53.0
488,140.0563801375,140.28178984583334,63.0,52.0
489,139.72851147083333,140.46006843333333,58.0,51.0
490,139.40064280416667,140.49080612083333,51.0,63.0
491,140.38424880416667,140.58301918333333,63.0,52.0
492,140.38424880416667,140.67933060416667,67.0,54.0
493,140.38424880416667,140.80433053333334,70.0,58.0
494,141.36785480416665,141.73875623333333,60.0,46.0
495,141.36785480416665,142.00924788333333,63.0,52.0
496,142.0235921375,142.18752647083335,60.0,42.0
497,141.69572347083334,142.47031319583334,55.0,44.0
498,141.36785480416665,142.58711640833334,48.0,58.0
499,142.35146080416666,142.7858867875,63.0,58.0
500,142.35146080416666,142.78998514583333,67.0,48.0
501,142.35146080416666,142.81867365416667,60.0,58.0
502,143.33506680416667,143.69982069583332,56.0,50.0
503,143.33506680416667,143.98875495833335,44.0,58.0
504,143.33506680416667,144.03178772083334,60.0,53.0
505,143.66293547083333,144.14859093333334,51.0,46.0
506,143.9908041375,144.20186959166668,56.0,50.0
507,144.31867280416668,144.6793283375,58.0,54.0
508,144.31867280416668,144.82891841666668,62.0,58.0
509,144.31867280416668,145.0481805875,46.0,58.0
510,144.64654147083334,145.08916417083333,53.0,45.0
511,144.9744101375,145.16498380000002,58.0,54.0
512,145.30227880416666,145.48875410833332,58.0,47.0
513,145.30227880416666,145.72645889166668,63.0,54.0
514,145.63014747083332,146.08622191875,58.0,44.0
515,145.95517365833334,146.12452833333333,63.0,52.0
516,146.27775399166666,146.65073750208333,58.0,58.0
517,146.27775399166666,146.71525356875,65.0,62.0
518,146.600334325,146.93702754791667,63.0,46.0
519,145.30227880416666,146.94307592916667,51.0,58.0
520,146.92291465833333,147.10436609583334,58.0,48.0
521,147.24549499166667,147.59630110416666,56.0,56.0
522,147.24549499166667,147.92492981875,60.0,53.0
523,147.24549499166667,147.9914620125,44.0,60.0
524,147.89065565833334,148.051945825,56.0,55.0
525,147.568075325,148.09226836666667,51.0,48.0
526,148.21323599166666,148.58218724791666,58.0,54.0
527,148.21323599166666,148.680977475,62.0,59.0
528,148.21323599166666,149.00355780833334,46.0,59.0
529,148.535816325,149.00960618958334,53.0,50.0
530,148.85839665833333,149.04589647708335,58.0,61.0
531,149.18097699166668,149.36847681041667,58.0,57.0
532,149.18097699166668,149.63460558541667,63.0,57.0
533,149.503557325,149.93500852083332,58.0,46.0
534,149.82613765833332,149.9511375375,63.0,51.0
535,150.14871799166667,150.54186277291666,65.0,63.0
536,150.471298325,150.93500755416667,63.0,50.0
537,150.79387865833334,151.00557200208334,58.0,48.0
538,149.18097699166668,151.04589454375,51.0,58.0
539,151.11645899166666,151.47129735833335,56.0,56.0
540,151.11645899166666,151.52573278958334,63.0,58.0
541,151.11645899166666,151.75557127708333,44.0,58.0
542,151.439039325,151.82210347083333,51.0,49.0
543,151.76161965833333,151.91887757083333,56.0,60.0
544,152.08419999166668,152.46323188333332,58.0,58.0
545,152.08419999166668,152.57411887291667,62.0,53.0
546,152.406780325,152.86242504583333,53.0,51.0
547,152.08419999166668,152.87250568125,46.0,58.0
548,152.72936065833335,152.890650825,58.0,59.0
549,153.05194099166667,153.27573109791666,58.0,50.0
550,153.05194099166667,153.48137606041666,63.0,55.0
551,153.374521325,153.78919315208333,58.0,56.0
552,153.69939740208332,153.8667440270833,63.0,52.0
553,154.0259274020833,154.44021233958333,58.0,58.0
554,153.05194099166667,154.47694696458333,51.0,56.0
555,154.0259274020833,154.55449783958332,65.0,60.0
556,154.35245740208333,154.76061990208333,63.0,50.0
557,154.67898740208332,154.84633402708332,58.0,42.0
558,155.0055174020833,155.33612902708333,60.0,54.0
559,155.0055174020833,155.72388340208332,65.0,58.0
560,155.65857740208332,155.84633215208333,60.0,52.0
561,155.98510740208332,156.16878052708333,60.0,59.0
562,155.98510740208332,156.33204552708332,68.0,55.0
563,155.0055174020833,156.4014331520833,41.0,60.0
564,156.31163740208333,156.7116366520833,65.0,59.0
565,156.63816740208333,156.84224865208333,60.0,58.0
566,156.96469740208332,157.2034724645833,60.0,60.0
567,156.96469740208332,157.77694077708333,65.0,61.0
568,157.61775740208333,157.86469571458332,60.0,41.0
569,157.94428740208332,158.08918508958334,60.0,56.0
570,157.94428740208332,158.24836846458334,53.0,59.0
571,157.94428740208332,158.30142958958334,65.0,62.0
572,157.94428740208332,158.3687764020833,68.0,59.0
573,158.27081740208334,158.4442864645833,60.0,53.0
574,158.59734740208333,158.74224508958332,65.0,49.0
575,158.59734740208333,158.7544899645833,60.0,53.0
576,158.92387740208332,159.26877471458332,56.0,53.0
577,158.92387740208332,159.59326390208332,60.0,54.0
578,159.57693740208333,159.76265133958333,56.0,54.0
579,159.25040740208334,160.03612021458332,51.0,53.0
580,159.90346740208332,160.23203821458333,56.0,61.0
581,159.90346740208332,160.29122177708334,63.0,59.0
582,158.92387740208332,160.5136703395833,44.0,59.0
583,160.2299974020833,160.58101715208332,51.0,55.0
584,160.55652740208333,160.74020052708332,56.0,58.0
585,160.88305740208332,161.15040383958333,58.0,54.0
586,160.88305740208332,161.1871384645833,62.0,51.0
587,160.88305740208332,161.25448527708332,46.0,59.0
588,161.20958740208332,161.31366883958333,53.0,56.0
589,162.18917740208332,162.4810135895833,70.0,74.0
590,161.86264740208333,162.66468671458333,65.0,63.0
591,161.53611740208333,162.67693158958332,58.0,63.0
592,162.51570740208334,162.72795190208333,77.0,58.0
593,162.84223740208333,163.24223665208334,70.0,59.0
594,162.84223740208333,163.58509315208332,82.0,57.0
595,163.49529740208334,163.6687664645833,70.0,45.0
596,163.16876740208332,163.94427615208332,65.0,49.0
597,162.84223740208333,163.96672508958332,58.0,60.0
598,163.82182740208333,164.65651971458334,74.0,45.0
599,163.82182740208333,164.66672377708332,70.0,48.0
600,164.80141740208333,165.15447796458332,63.0,55.0
601,164.80141740208333,165.51162015208334,67.0,51.0
602,164.80141740208333,165.54019152708332,70.0,54.0
603,165.4544774020833,165.70549733958333,63.0,46.0
604,165.12794740208332,165.91366021458333,58.0,41.0
605,164.80141740208333,165.93202752708333,51.0,61.0
606,165.78100740208333,166.12386390208331,67.0,59.0
607,165.78100740208333,166.40141440208333,70.0,59.0
608,166.76059740208333,167.26875971458333,70.0,58.0
609,166.76059740208333,167.36671871458333,67.0,48.0
610,167.41365740208332,167.59324890208333,62.0,48.0
611,166.76059740208333,167.81773827708332,43.0,58.0
612,167.08712740208333,167.84835046458332,50.0,45.0
613,167.74018740208334,167.8605953395833,62.0,59.0
614,167.74018740208334,167.86671777708332,67.0,58.0
615,167.74018740208334,167.89528915208334,70.0,59.0
616,168.71977740208334,169.06059308958334,56.0,48.0
617,168.71977740208334,169.47487802708332,60.0,49.0
618,169.37283740208332,169.56059215208333,56.0,54.0
619,169.04630740208333,169.58916352708331,51.0,40.0
620,168.71977740208334,169.67691846458334,44.0,58.0
621,169.69936740208334,170.01773415208334,56.0,58.0
622,169.69936740208334,170.04018308958334,60.0,59.0
623,170.6789574020833,171.38916015208332,62.0,45.0
624,170.6789574020833,171.43813965208332,65.0,56.0
625,171.33201740208332,171.56467002708334,58.0,58.0
626,171.00548740208333,171.82793483958332,53.0,50.0
627,170.6789574020833,171.87691433958332,46.0,58.0
628,171.65854740208331,171.93813871458332,62.0,63.0
629,171.65854740208331,171.94017952708333,58.0,59.0
630,171.65854740208331,171.96466927708332,65.0,63.0
631,171.65854740208331,172.00956715208332,70.0,58.0
632,172.63813740208332,172.74017802708332,39.0,59.0
633,172.63813740208332,172.90752465208334,63.0,55.0
634,172.63813740208332,172.96058577708334,67.0,50.0
635,173.29119740208333,173.73405371458333,58.0,46.0
636,173.29119740208333,173.74017615208334,51.0,2.0
637,173.61772740208332,173.75242102708333,67.0,59.0
638,173.61772740208332,173.75650265208333,70.0,57.0
639,173.61772740208332,173.76874752708332,63.0,58.0
640,175.25037740208333,175.47894840208332,58.0,58.0
641,174.59731740208332,175.60956040208333,43.0,64.0
642,174.9238474020833,175.63813177708332,50.0,48.0
643,175.57690740208332,175.79935596458333,67.0,58.0
644,175.57690740208332,175.81772327708333,62.0,60.0
645,175.57690740208332,175.8544579020833,58.0,60.0
646,176.55649740208332,176.90751715208333,56.0,52.0
647,176.55649740208332,177.31772046458332,63.0,58.0
648,177.20955740208333,177.45445490208334,56.0,54.0
649,176.88302740208331,177.70751565208332,51.0,48.0
650,177.53608740208333,177.76669921458333,56.0,58.0
651,176.55649740208332,177.79527058958334,44.0,59.0
652,177.53608740208333,177.79935221458334,63.0,58.0
653,177.53608740208333,177.88710715208333,68.0,58.0
654,178.51567740208333,179.16873740208334,65.0,60.0
655,178.51567740208333,179.20751283958333,58.0,59.0
656,179.16873740208334,179.27485965208334,62.0,74.0
657,178.84220740208332,179.61567533958333,53.0,57.0
658,179.49526740208333,179.67689971458333,58.0,60.0
659,179.49526740208333,179.73200165208334,70.0,59.0
660,179.82179740208332,179.85853202708333,70.0,43.0
661,179.82179740208332,179.95853183958332,58.0,63.0
662,178.51567740208333,180.04424596458333,46.0,58.0
663,179.82179740208332,180.23404152708332,65.0,61.0
664,180.14832740208334,180.32179646458331,58.0,51.0
665,180.47485740208333,181.00342783958334,67.0,58.0
666,180.47485740208333,181.06057058958334,62.0,57.0
667,181.1279174020833,181.33608027708334,58.0,53.0
668,180.47485740208333,181.58097777708332,43.0,62.0
669,180.80138740208332,181.59118183958333,50.0,46.0
670,181.45444740208333,182.15240527708332,58.0,64.0
671,181.45444740208333,182.39730277708333,67.0,52.0
672,182.43403740208333,182.84015908958332,60.0,59.0
673,182.43403740208333,183.10954633958332,63.0,59.0
674,183.08709740208332,183.23199508958334,60.0,52.0
675,182.76056740208332,183.51974965208333,55.0,53.0
676,182.43403740208333,183.59117808958334,48.0,59.0
677,183.41362740208334,183.66668815208334,63.0,59.0
678,183.41362740208334,183.67485140208333,67.0,60.0
679,183.41362740208334,183.69934115208332,60.0,61.0
680,184.39321740208334,184.70138008958332,56.0,54.0
681,184.39321740208334,184.75444121458332,60.0,53.0
682,184.39321740208334,184.77076771458331,63.0,58.0
683,184.39321740208334,185.02586927708333,44.0,58.0
684,184.71974740208333,185.09729771458333,51.0,51.0
685,185.04627740208332,185.1605629020833,56.0,59.0
686,185.37280740208334,185.7809699020833,58.0,54.0
687,185.37280740208334,186.05647958958332,62.0,51.0
688,185.69933740208333,186.1707650895833,53.0,42.0
689,186.02586740208332,186.18096915208332,58.0,52.0
690,185.37280740208334,186.18300996458333,46.0,59.0
691,186.35239740208334,186.73607015208333,58.0,59.0
692,186.35239740208334,187.19117133958332,63.0,58.0
693,187.00545740208332,187.19933458958332,58.0,51.0
694,187.3319874020833,187.66055821458332,58.0,60.0
695,187.3319874020833,187.67688471458334,67.0,60.0
696,187.3319874020833,187.68300715208332,63.0,62.0
697,186.35239740208334,187.72586421458334,51.0,59.0
698,188.30744667291665,188.37019965,58.0,41.0
699,188.95521933958332,189.2325470125,58.0,62.0
700,188.30744667291665,189.28517854166665,43.0,63.0
701,189.27910567291664,189.32364004374998,58.0,40.0
702,188.63133300624997,189.32971291249999,50.0,49.0
703,189.27910567291664,189.63942921874997,62.0,69.0
704,189.27910567291664,189.64347779791663,67.0,59.0
705,190.25076467291666,190.60501534999997,56.0,55.0
706,190.25076467291666,190.65359829999997,60.0,50.0
707,190.25076467291666,190.68193835416665,63.0,58.0
708,190.25076467291666,190.90663449791666,44.0,60.0
709,190.57465100624998,190.9410474208333,51.0,51.0
710,190.8985373395833,191.07262624374997,56.0,64.0
711,191.22242367291665,191.6252573,58.0,59.0
712,191.22242367291665,191.72647177916664,62.0,59.0
713,191.54631000624997,191.97545939791664,53.0,52.0
714,191.22242367291665,192.00177516249997,46.0,60.0
715,191.87019633958332,192.04833382291665,58.0,60.0
716,192.19408267291664,192.45521602916665,58.0,58.0
717,192.19408267291664,192.66776643541664,63.0,58.0
718,192.51796900624998,192.88841399999998,58.0,53.0
719,192.8418553395833,192.99974992708331,63.0,52.0
720,193.16574167291665,193.4977251645833,65.0,64.0
721,193.16574167291665,193.50177374375,58.0,61.0
722,193.48962800624997,193.86614586874998,63.0,57.0
723,192.19408267291664,193.98355466458332,51.0,61.0
724,193.81351433958332,194.01796758749998,58.0,53.0
725,194.13740067291664,194.55930360416664,58.0,58.0
726,194.13740067291664,194.84909897916663,67.0,59.0
727,194.13740067291664,194.95930285416665,63.0,60.0
728,194.13740067291664,195.27971041666663,51.0,67.0
729,195.11644541666664,195.48175085416665,58.0,64.0
730,195.11644541666664,195.55317929166665,63.0,69.0
731,195.76950541666665,195.88583172916665,63.0,39.0
732,195.76950541666665,196.07970891666665,58.0,67.0
733,195.44297541666663,196.09399460416665,51.0,62.0
734,196.09603541666664,196.42460622916664,70.0,59.0
735,196.09603541666664,196.42664704166663,63.0,61.0
736,196.42256541666663,196.58583041666665,58.0,47.0
737,196.09603541666664,196.59399366666665,51.0,61.0
738,196.74909541666665,196.92664610416665,63.0,60.0
739,197.07562541666664,197.30623722916664,63.0,62.0
740,197.07562541666664,197.34909429166663,67.0,67.0
741,197.07562541666664,197.61031829166663,70.0,63.0
742,197.72868541666665,197.84297091666664,63.0,64.0
743,197.72868541666665,197.84909335416663,70.0,16.0
744,198.05521541666664,198.41643922916663,60.0,64.0
745,198.05521541666664,198.46337791666664,63.0,59.0
746,198.70827541666665,198.89194854166664,60.0,58.0
747,198.38174541666663,199.18990716666664,55.0,51.0
748,199.03480541666664,199.23888666666664,60.0,61.0
749,199.03480541666664,199.37766191666665,63.0,62.0
750,198.05521541666664,199.60011047916663,48.0,59.0
751,199.36133541666663,199.64908997916663,55.0,56.0
752,199.03480541666664,199.68582460416664,67.0,59.0
753,199.68786541666665,199.81643660416665,60.0,72.0
754,200.01439541666664,200.35317029166663,56.0,59.0
755,200.01439541666664,200.46541497916664,60.0,60.0
756,200.66745541666663,200.72867979166665,60.0,36.0
757,200.01439541666664,200.78582254166665,44.0,59.0
758,200.66745541666663,200.83480204166665,56.0,62.0
759,200.34092541666664,200.85316935416665,51.0,54.0
760,200.99398541666665,201.35316841666665,58.0,60.0
761,200.99398541666665,201.40827035416663,62.0,59.0
762,201.32051541666664,201.50418854166665,53.0,48.0
763,200.99398541666665,201.54908641666663,46.0,61.0
764,201.64704541666663,201.83071854166664,58.0,61.0
765,201.64704541666663,201.83888179166664,62.0,57.0
766,201.97357541666665,202.16949341666663,58.0,59.0
767,201.97357541666665,202.36337060416665,63.0,61.0
768,202.30010541666664,202.38377872916664,58.0,46.0
769,202.62663541666663,202.73683929166663,58.0,59.0
770,202.62663541666663,202.73683929166663,67.0,59.0
771,202.95316541666665,203.14704260416664,58.0,67.0
772,202.95316541666665,203.22051185416663,67.0,69.0
773,201.97357541666665,203.63479679166664,39.0,61.0
774,203.27969541666664,203.65112329166664,65.0,60.0
775,203.60622541666663,203.84091885416663,58.0,59.0
776,203.93275541666665,204.10622447916663,58.0,56.0
777,203.93275541666665,204.31846897916665,63.0,56.0
778,204.25928541666664,204.64703979166663,58.0,47.0
779,204.58581541666663,204.71234579166665,63.0,53.0
780,204.91234541666665,205.14295722916665,58.0,60.0
781,203.93275541666665,205.20214079166664,39.0,64.0
782,204.91234541666665,205.24907947916665,65.0,72.0
783,205.23887541666664,205.61438491666664,63.0,60.0
784,205.56540541666664,205.69601741666665,58.0,60.0
785,205.89193541666663,206.25928166666665,60.0,61.0
786,205.89193541666663,206.34091416666664,63.0,63.0
787,206.54499541666664,206.66540335416664,60.0,58.0
788,205.89193541666663,207.05723935416665,48.0,61.0
789,206.87152541666663,207.10825966666664,60.0,64.0
790,206.87152541666663,207.23070841666663,67.0,64.0
791,206.87152541666663,207.23479004166663,63.0,63.0
792,207.19805541666665,207.29193279166665,60.0,54.0
793,207.52458541666664,207.62866685416665,63.0,67.0
794,207.85111541666663,208.15723729166663,63.0,59.0
795,207.85111541666663,208.17764541666665,56.0,59.0
796,207.85111541666663,208.59601197916663,44.0,59.0
797,208.17764541666665,208.60417522916663,51.0,53.0
798,208.50417541666664,208.63682822916664,56.0,61.0
799,208.50417541666664,208.67152204166663,63.0,59.0
800,208.83070541666663,209.18376597916665,58.0,58.0
801,208.83070541666663,209.23274547916665,62.0,58.0
802,209.48376541666664,209.62866310416663,62.0,60.0
803,209.15723541666665,209.63274472916663,53.0,50.0
804,209.48376541666664,209.63478554166664,58.0,54.0
805,208.83070541666663,209.64090797916663,46.0,62.0
806,209.81029541666663,209.98172366666665,58.0,58.0
807,209.81029541666663,210.22253954166663,63.0,61.0
808,210.13682541666665,210.22662116666663,58.0,30.0
809,210.46335541666664,210.58580416666663,58.0,47.0
810,210.46335541666664,210.58580416666663,67.0,38.0
811,210.78988541666664,211.00621154166663,58.0,65.0
812,210.78988541666664,211.05723185416664,67.0,67.0
813,211.11641541666665,211.31437422916665,65.0,60.0
814,209.81029541666663,211.42865972916664,51.0,63.0
815,211.44294541666665,211.67763885416664,58.0,48.0
816,211.76947541666664,212.15518897916664,56.0,58.0
817,211.76947541666664,212.18376035416665,63.0,59.0
818,211.76947541666664,212.55314741666663,44.0,59.0
819,212.42253541666665,212.56947391666665,56.0,60.0
820,212.42253541666665,212.58988204166664,63.0,58.0
821,212.09600541666663,212.61437179166666,51.0,53.0
822,212.74906541666664,213.08375866666665,58.0,59.0
823,212.74906541666664,213.12253410416665,62.0,61.0
824,212.74906541666664,213.47967629166664,46.0,61.0
825,213.07559541666663,213.53477822916665,53.0,55.0
826,213.40212541666665,213.56743122916663,62.0,54.0
827,213.40212541666665,213.57355366666664,58.0,52.0
828,213.72865541666664,213.90212447916664,58.0,54.0
829,213.72865541666664,214.15722604166663,63.0,60.0
830,214.05518541666663,214.22253204166662,58.0,44.0
831,214.38171541666665,214.55518447916666,58.0,45.0
832,214.70824541666664,214.88579610416664,58.0,67.0
833,214.70824541666664,214.91436747916663,67.0,65.0
834,213.72865541666664,215.29599941666663,51.0,64.0
835,215.03477541666663,215.35926460416664,65.0,62.0
836,215.36130541666665,215.55518260416665,58.0,54.0
837,215.68783541666664,215.98171241666665,56.0,54.0
838,215.68783541666664,216.09803872916663,60.0,59.0
839,215.68783541666664,216.42456872916665,44.0,59.0
840,216.34089541666663,216.50416041666665,56.0,62.0
841,216.34089541666663,216.57150722916663,60.0,61.0
842,216.66742541666665,217.02660841666665,58.0,59.0
843,216.66742541666665,217.05926141666663,62.0,62.0
844,216.66742541666665,217.44497497916663,46.0,60.0
845,217.32048541666666,217.45721985416665,62.0,55.0
846,216.99395541666664,217.46334229166663,53.0,48.0
847,217.32048541666666,217.48783204166665,58.0,56.0
848,217.64701541666665,217.83477016666663,58.0,59.0
849,217.64701541666665,218.14293285416665,63.0,59.0
850,218.30007541666663,218.41232010416664,58.0,46.0
851,218.62660541666665,218.83884991666665,58.0,61.0
852,218.62660541666665,218.96946191666663,67.0,62.0
853,218.95313541666664,219.01231897916665,58.0,35.0
854,218.95313541666664,219.40415497916663,63.0,49.0
855,219.27966541666663,219.47762422916665,58.0,50.0
856,217.64701541666665,219.48986910416664,51.0,64.0
857,219.60619541666665,219.98578654166664,60.0,59.0
858,219.60619541666665,220.07354147916664,68.0,59.0
859,220.25925541666663,220.40823472916665,60.0,59.0
860,220.58578541666665,220.61231597916665,70.0,47.0
861,219.93272541666664,220.65925466666664,48.0,41.0
862,219.60619541666665,220.71843822916665,41.0,60.0
863,220.58578541666665,220.85313185416663,60.0,67.0
864,220.58578541666665,220.99802954166665,65.0,64.0
865,221.23884541666663,221.34496766666663,60.0,44.0
866,221.56537541666665,221.77149747916664,60.0,59.0
867,221.56537541666665,221.95108897916663,65.0,59.0
868,222.21843541666664,222.34496579166665,60.0,53.0
869,222.21843541666664,222.34904741666665,68.0,53.0
870,222.54496541666663,222.70210797916664,60.0,72.0
871,222.54496541666663,222.74292422916665,68.0,64.0
872,222.87149541666665,223.02251554166665,65.0,65.0
873,221.56537541666665,223.04292366666664,53.0,62.0
874,223.19802541666664,223.27353547916664,60.0,46.0
875,223.52455541666663,223.82251404166664,56.0,59.0
876,223.52455541666663,223.84700379166665,60.0,59.0
877,224.17761541666664,224.34496204166663,56.0,57.0
878,223.85108541666665,224.64292066666664,51.0,52.0
879,223.52455541666663,224.77149185416664,44.0,61.0
880,224.50414541666663,224.80006322916665,63.0,69.0
881,224.50414541666663,224.84496110416666,56.0,69.0
882,224.83067541666665,224.96945066666663,60.0,60.0
883,225.15720541666664,225.25720522916663,56.0,59.0
884,225.48373541666663,225.63271472916665,62.0,54.0
885,225.48373541666663,225.65720447916664,58.0,59.0
886,225.81026541666665,225.92863254166664,58.0,48.0
887,225.81026541666665,225.95108147916665,65.0,58.0
888,226.13679541666664,226.29801960416665,58.0,52.0
889,226.13679541666664,226.31842772916664,70.0,60.0
890,226.46332541666663,226.72659022916665,58.0,67.0
891,226.46332541666663,226.80414110416663,65.0,72.0
892,225.48373541666663,226.81842679166664,46.0,60.0
893,226.78985541666663,227.11434460416663,62.0,54.0
894,227.11638541666665,227.35107885416664,58.0,58.0
895,227.44291541666664,227.98781235416664,70.0,60.0
896,227.44291541666664,228.11842435416665,62.0,59.0
897,227.44291541666664,228.30617910416663,58.0,55.0
898,227.44291541666664,228.55515822916664,53.0,64.0
899,227.44291541666664,228.62250504166664,46.0,64.0
900,228.42250541666664,228.82658629166664,58.0,65.0
901,228.42250541666664,228.86536172916664,62.0,79.0
902,228.42250541666664,229.22658554166665,65.0,74.0
903,229.07556541666665,229.32046291666666,58.0,58.0
904,229.24087122916666,229.32046291666666,58.0,56.0
905,228.74903541666663,229.36536079166663,53.0,58.0
906,229.39189135416663,231.24903072916663,65.0,59.0
907,229.31434047916665,231.25311235416663,62.0,58.0
908,229.45311572916665,231.26943885416665,70.0,51.0
909,229.28372829166665,231.27147966666664,46.0,58.0
910,232.01433541666665,232.40004897916663,65.0,52.0
911,231.36127541666664,233.08984360416665,51.0,59.0
912,231.68780541666663,233.14902716666666,58.0,45.0
913,232.34086541666665,234.13473960416664,67.0,55.0
914,233.64698541666664,234.84698316666663,55.0,48.0
915,233.32045541666665,235.02045222916664,48.0,51.0
916,234.30004541666665,235.24698241666664,67.0,49.0
917,233.97351541666666,235.38167604166665,58.0,44.0
918,235.27963541666665,236.15718479166665,44.0,55.0
919,235.93269541666663,236.18371535416665,56.0,55.0
920,235.60616541666664,236.22453160416666,51.0,48.0
921,236.25922541666665,236.90616297916665,62.0,51.0
922,236.25922541666665,237.11024422916665,46.0,54.0
923,236.25922541666665,237.14901966666665,58.0,56.0
924,237.89187541666664,239.04901610416664,63.0,57.0
925,237.23881541666663,239.06738341666664,51.0,57.0
926,237.56534541666664,239.08166910416665,58.0,57.0
927,238.21840541666666,239.09187316666663,67.0,55.0
928,239.19799541666663,240.53268679166663,58.0,46.0
929,239.19799541666663,240.99799204166663,63.0,52.0
930,239.19799541666663,241.05309397916665,51.0,55.0
931,240.83064541666664,241.18166516666665,58.0,59.0
932,241.48370541666665,242.70850574999997,55.0,45.0
933,242.13676541666663,242.73874765624998,63.0,56.0
934,241.81023541666664,242.8133443583333,58.0,59.0
935,241.15717541666663,242.85165077291663,48.0,59.0
936,243.1097150395833,243.57947264999999,56.0,53.0
937,243.1097150395833,243.6540693520833,60.0,52.0
938,243.1097150395833,243.6903596395833,44.0,58.0
939,244.0774560395833,244.2347139520833,44.0,52.0
940,244.0774560395833,244.93834230416664,62.0,48.0
941,244.0774560395833,244.98068097291664,58.0,52.0
942,244.0774560395833,245.0270518958333,46.0,51.0
943,245.04519703958331,245.1298743770833,58.0,36.0
944,245.04519703958331,245.43430956666663,63.0,58.0
945,245.36777737291663,245.79922856874998,58.0,53.0
946,245.69035770624998,245.86374463541665,63.0,59.0
947,246.0129380395833,246.1883410958333,58.0,61.0
948,246.0129380395833,246.19842173124997,67.0,67.0
949,245.04519703958331,246.74277604374998,39.0,52.0
950,245.04519703958331,246.74277604374998,51.0,52.0
951,246.33551837291665,246.74277604374998,65.0,69.0
952,246.65809870624997,246.9564855145833,58.0,58.0
953,246.9806790395833,247.30527549999996,70.0,59.0
954,246.9806790395833,247.30729162708332,63.0,61.0
955,247.30325937291664,247.46454953958332,58.0,47.0
956,246.9806790395833,247.47261404791664,51.0,61.0
957,247.62697523541664,247.80452592291664,63.0,60.0
958,247.95350523541663,248.18411704791663,63.0,62.0
959,247.95350523541663,248.22697411041662,67.0,67.0
960,247.95350523541663,248.48819811041662,70.0,63.0
961,248.60656523541664,248.72085073541663,63.0,64.0
962,248.60656523541664,248.72697317291664,70.0,16.0
963,248.93309523541663,249.29431904791664,60.0,64.0
964,248.93309523541663,249.34125773541663,63.0,59.0
965,249.58615523541664,249.76982836041662,60.0,58.0
966,249.25962523541662,250.06778698541663,55.0,51.0
967,249.91268523541663,250.11676648541663,60.0,61.0
968,249.91268523541663,250.25554173541664,63.0,62.0
969,248.93309523541663,250.47799029791662,48.0,59.0
970,250.23921523541662,250.52696979791662,55.0,56.0
971,249.91268523541663,250.56370442291663,67.0,59.0
972,250.56574523541664,250.69431642291664,60.0,72.0
973,250.89227523541663,251.23105011041662,56.0,59.0
974,250.89227523541663,251.34329479791663,60.0,60.0
975,251.54533523541664,251.60655961041664,60.0,36.0
976,250.89227523541663,251.66370236041664,44.0,59.0
977,251.54533523541664,251.71268186041664,56.0,62.0
978,251.21880523541662,251.73104917291664,51.0,54.0
979,251.87186523541664,252.23104823541664,58.0,60.0
980,251.87186523541664,252.28615017291662,62.0,59.0
981,252.19839523541663,252.38206836041664,53.0,48.0
982,251.87186523541664,252.42696623541664,46.0,61.0
983,252.52492523541665,252.70859836041663,58.0,61.0
984,252.52492523541665,252.71676161041663,62.0,57.0
985,252.85145523541664,253.04737323541664,58.0,59.0
986,252.85145523541664,253.24125042291664,63.0,61.0
987,253.17798523541663,253.26165854791662,58.0,46.0
988,253.50451523541662,253.61471911041664,58.0,59.0
989,253.50451523541662,253.61471911041664,67.0,59.0
990,253.83104523541664,254.02492242291663,58.0,67.0
991,253.83104523541664,254.09839167291662,67.0,69.0
992,252.85145523541664,254.51267661041663,39.0,61.0
993,254.15757523541663,254.52900311041662,65.0,60.0
994,254.48410523541662,254.71879867291662,58.0,59.0
995,254.81063523541664,254.98410429791664,58.0,56.0
996,254.81063523541664,255.19634879791664,63.0,56.0
997,255.13716523541663,255.52491961041665,58.0,47.0
998,255.46369523541662,255.59022561041664,63.0,53.0
999,255.79022523541664,256.02083704791664,58.0,60.0
1000,254.81063523541664,256.0800206104166,39.0,64.0
1001,255.79022523541664,256.12695929791664,65.0,72.0
1002,256.11675523541663,256.49226473541665,63.0,60.0
1003,256.4432852354166,256.5738972354166,58.0,60.0
1004,256.7698152354166,257.13716148541664,60.0,61.0
1005,256.7698152354166,257.21879398541665,63.0,63.0
1006,257.42287523541665,257.54328317291663,60.0,58.0
1007,256.7698152354166,257.93511917291664,48.0,61.0
1008,257.74940523541665,257.98613948541663,60.0,64.0
1009,257.74940523541665,258.1085882354166,67.0,64.0
1010,257.74940523541665,258.11266986041664,63.0,63.0
1011,258.07593523541664,258.1698126104166,60.0,54.0
1012,258.4024652354166,258.5065466729166,63.0,67.0
1013,258.7289952354166,259.03511711041665,63.0,59.0
1014,258.7289952354166,259.0555252354166,56.0,59.0
1015,258.7289952354166,259.4738917979166,44.0,59.0
1016,259.0555252354166,259.4820550479166,51.0,53.0
1017,259.38205523541666,259.51470804791666,56.0,61.0
1018,259.38205523541666,259.54940186041665,63.0,59.0
1019,259.70858523541665,260.06164579791664,58.0,58.0
1020,259.70858523541665,260.1106252979166,62.0,58.0
1021,260.36164523541663,260.50654292291665,62.0,60.0
1022,260.03511523541664,260.5106245479166,53.0,50.0
1023,260.36164523541663,260.51266536041663,58.0,54.0
1024,259.70858523541665,260.5187877979166,46.0,62.0
1025,260.6881752354166,260.85960348541664,58.0,58.0
1026,260.6881752354166,261.10041936041665,63.0,61.0
1027,261.0147052354166,261.1045009854166,58.0,30.0
1028,261.34123523541666,261.46368398541665,58.0,47.0
1029,261.34123523541666,261.46368398541665,67.0,38.0
1030,261.66776523541665,261.8840913604166,58.0,65.0
1031,261.66776523541665,261.9351116729166,67.0,67.0
1032,261.99429523541664,262.1922540479166,65.0,60.0
1033,260.6881752354166,262.30653954791666,51.0,63.0
1034,262.32082523541663,262.5555186729166,58.0,48.0
1035,262.6473552354166,263.03306879791666,56.0,58.0
1036,262.6473552354166,263.0616401729166,63.0,59.0
1037,262.6473552354166,263.43102723541665,44.0,59.0
1038,263.3004152354166,263.44735373541664,56.0,60.0
1039,263.3004152354166,263.46776186041666,63.0,58.0
1040,262.9738852354166,263.49225161041664,51.0,53.0
1041,263.62694523541666,263.96163848541664,58.0,59.0
1042,263.62694523541666,264.0004139229166,62.0,61.0
1043,263.62694523541666,264.3575561104166,46.0,61.0
1044,263.95347523541665,264.41265804791664,53.0,55.0
1045,264.28000523541664,264.4453110479166,62.0,54.0
1046,264.28000523541664,264.45143348541666,58.0,52.0
1047,264.60653523541663,264.78000429791666,58.0,54.0
1048,264.60653523541663,265.03510586041665,63.0,60.0
1049,264.9330652354166,265.1004118604166,58.0,44.0
1050,265.2595952354166,265.43306429791664,58.0,45.0
1051,265.5861252354166,265.7636759229166,58.0,67.0
1052,265.5861252354166,265.7922472979166,67.0,65.0
1053,264.60653523541663,266.1738792354166,51.0,64.0
1054,265.91265523541665,266.23714442291663,65.0,62.0
1055,266.23918523541664,266.43306242291663,58.0,54.0
1056,266.56571523541663,266.85959223541664,56.0,54.0
1057,266.56571523541663,266.97591854791665,60.0,59.0
1058,266.56571523541663,267.30244854791664,44.0,59.0
1059,267.2187752354166,267.38204023541664,56.0,62.0
1060,267.2187752354166,267.4493870479166,60.0,61.0
1061,267.5453052354166,267.90448823541664,58.0,59.0
1062,267.5453052354166,267.9371412354166,62.0,62.0
1063,267.5453052354166,268.32285479791665,46.0,60.0
1064,268.19836523541665,268.3350996729166,62.0,55.0
1065,267.87183523541665,268.34122211041665,53.0,48.0
1066,268.19836523541665,268.36571186041664,58.0,56.0
1067,268.52489523541664,268.71264998541665,58.0,59.0
1068,268.52489523541664,269.02081267291663,63.0,59.0
1069,269.1779552354166,269.29019992291666,58.0,46.0
1070,269.5044852354166,269.7167297354166,58.0,61.0
1071,269.5044852354166,269.84734173541665,67.0,62.0
1072,269.83101523541666,269.89019879791664,58.0,35.0
1073,269.83101523541666,270.28203479791665,63.0,49.0
1074,270.15754523541665,270.3555040479166,58.0,50.0
1075,268.52489523541664,270.36774892291663,51.0,64.0
1076,270.48407523541664,270.86366636041663,60.0,59.0
1077,270.48407523541664,270.9514212979166,68.0,59.0
1078,271.1371352354166,271.2861145479166,60.0,59.0
1079,271.4636652354166,271.4901957979166,70.0,47.0
1080,270.81060523541663,271.53713448541663,48.0,41.0
1081,270.48407523541664,271.5963180479166,41.0,60.0
1082,271.4636652354166,271.7310116729166,60.0,67.0
1083,271.4636652354166,271.87590936041664,65.0,64.0
1084,272.11672523541665,272.22284748541665,60.0,44.0
1085,272.44325523541664,272.64937729791666,60.0,59.0
1086,272.44325523541664,272.8289687979166,65.0,59.0
1087,273.0963152354166,273.22284561041664,60.0,53.0
1088,273.0963152354166,273.2269272354166,68.0,53.0
1089,273.4228452354166,273.57998779791666,60.0,72.0
1090,273.4228452354166,273.62080404791664,68.0,64.0
1091,273.7493752354166,273.9003953604166,65.0,65.0
1092,272.44325523541664,273.9208034854166,53.0,62.0
1093,274.07590523541666,274.1514152979166,60.0,46.0
1094,274.40243523541665,274.7003938604166,56.0,59.0
1095,274.40243523541665,274.7248836104166,60.0,59.0
1096,275.05549523541663,275.2228418604166,56.0,57.0
1097,274.72896523541664,275.52080048541666,51.0,52.0
1098,274.40243523541665,275.64937167291663,44.0,61.0
1099,275.3820252354166,275.67794304791664,63.0,69.0
1100,275.3820252354166,275.72284092291665,56.0,69.0
1101,275.7085552354166,275.84733048541665,60.0,60.0
1102,276.03508523541666,276.1350850479166,56.0,59.0
1103,276.36161523541665,276.51059454791664,62.0,54.0
1104,276.36161523541665,276.5350842979166,58.0,59.0
1105,276.68814523541664,276.8065123604166,58.0,48.0
1106,276.68814523541664,276.82896129791663,65.0,58.0
1107,277.01467523541663,277.17589942291664,58.0,52.0
1108,277.01467523541663,277.1963075479166,70.0,60.0
1109,277.3412052354166,277.6044700479166,58.0,67.0
1110,277.3412052354166,277.68202092291665,65.0,72.0
1111,276.36161523541665,277.6963066104166,46.0,60.0
1112,277.6677352354166,277.99222442291665,62.0,54.0
1113,277.9942652354166,278.22895867291663,58.0,58.0
1114,278.32079523541665,278.8656921729166,70.0,60.0
1115,278.32079523541665,278.9963041729166,62.0,59.0
1116,278.32079523541665,279.1840589229166,58.0,55.0
1117,278.32079523541665,279.4330380479166,53.0,64.0
1118,278.32079523541665,279.50038486041666,46.0,64.0
1119,279.3003852354166,279.70446611041666,58.0,65.0
1120,279.3003852354166,279.7432415479166,62.0,79.0
1121,279.3003852354166,280.1044653604166,65.0,74.0
1122,279.9534452354166,280.19834273541665,58.0,58.0
1123,280.11875104791665,280.19834273541665,58.0,56.0
1124,279.6269152354166,280.24324061041665,53.0,58.0
1125,280.26977117291665,286.67799197291663,65.0,59.0
1126,280.1922202979166,286.68209033125,62.0,58.0
1127,280.33099554791664,286.6984837645833,70.0,51.0
1128,280.16160811041664,286.70053294375,46.0,58.0
1129,288.77720086041666,289.16134690416663,65.0,52.0
1130,288.1267948604166,289.8483382416666,51.0,59.0
1131,288.45199786041667,289.9072812854167,58.0,45.0
1132,289.10240386041664,290.8889878416666,67.0,55.0
1133,290.40321586041665,291.59833688541664,55.0,48.0
1134,290.07801286041666,291.77110097916665,48.0,51.0
1135,291.0536218604166,291.99671056041666,67.0,49.0
1136,290.72841886041664,292.13085679791664,58.0,44.0
1137,292.02923086041665,292.9032139229166,44.0,55.0
1138,292.6796368604166,292.9296366666666,56.0,55.0
1139,292.35443386041663,292.97028704166667,51.0,48.0
1140,293.00483986041667,293.64914830416666,62.0,51.0
1141,293.00483986041667,293.85240017916664,46.0,54.0
1142,293.00483986041667,293.89101803541666,58.0,56.0
1143,294.63085486041666,295.78329299166666,63.0,57.0
1144,293.98044886041663,295.80158566041666,51.0,57.0
1145,294.3056518604167,295.81581329166664,58.0,57.0
1146,294.95605786041665,295.82597588541665,67.0,55.0
1147,295.93166686041667,297.26093412291664,58.0,46.0
1148,295.93166686041667,297.72434839791663,63.0,52.0
1149,295.93166686041667,297.77922640416665,51.0,55.0
1150,297.55768186041666,297.90727508541664,58.0,59.0
1151,298.20808786041664,299.42963162916664,55.0,45.0
1152,298.8584938604167,299.46011941041667,63.0,56.0
1153,298.5332908604166,299.53532260416665,58.0,59.0
1154,297.88288486041665,299.5739404604166,48.0,59.0
1155,299.83410286041664,300.30767972916664,56.0,53.0
1156,299.83410286041664,300.3828829229166,60.0,52.0
1157,299.83410286041664,300.41946826041664,44.0,58.0
1158,300.80971186041666,301.67759736666665,62.0,48.0
1159,300.80971186041666,301.72028026041664,58.0,52.0
1160,300.80971186041666,301.76702819166667,46.0,51.0
1161,301.7853208604166,301.87068664791667,58.0,36.0
1162,301.7853208604166,302.17759697916665,63.0,58.0
1163,302.11052386041666,302.54548287291664,58.0,53.0
1164,302.43572686041665,302.61052347291667,63.0,59.0
1165,302.76092986041664,302.93775899166667,58.0,61.0
1166,302.76092986041664,302.9479215854166,67.0,67.0
1167,301.7853208604166,303.49670164791667,39.0,52.0
1168,301.7853208604166,303.49670164791667,51.0,52.0
1169,303.0861328604166,303.49670164791667,65.0,69.0
1170,303.41133586041667,303.71214863541667,58.0,58.0
1171,303.73653886041666,304.48247324166664,63.0,46.0
1172,303.73653886041666,304.53531872916665,58.0,46.0
1173,304.7121478604166,305.16336702291665,67.0,63.0
1174,303.73653886041666,305.22231006666664,51.0,53.0
1175,305.03735086041667,305.4255619416667,63.0,54.0
1176,305.36255386041665,305.55970817916665,58.0,54.0
1177,305.68775686041664,306.32393522916664,58.0,23.0
1178,305.68775686041664,306.41946361041664,63.0,52.0
1179,306.3381628604167,306.9336908541666,55.0,42.0
1180,306.66336586041666,306.9662111541667,67.0,48.0
1181,306.66336586041666,307.0007639729167,60.0,51.0
1182,305.68775686041664,307.0353167916667,48.0,54.0
1183,307.6389748604166,308.09629157916663,56.0,49.0
1184,307.6389748604166,308.35035642291666,60.0,52.0
1185,308.28938086041666,308.46620999166663,56.0,53.0
1186,308.61458386041664,309.04751035416666,56.0,55.0
1187,308.61458386041664,309.06986806041664,60.0,47.0
1188,307.96417786041667,309.11661599166666,51.0,45.0
1189,307.6389748604166,309.19791674166663,44.0,57.0
1190,309.59019286041666,309.79344473541664,58.0,48.0
1191,309.59019286041666,310.01295676041667,63.0,49.0
1192,309.91539586041665,310.4621434041666,58.0,48.0
1193,310.24059886041664,310.4784035541667,63.0,52.0
1194,310.5658018604166,310.89913493541667,65.0,64.0
1195,310.8910048604167,311.22433793541666,63.0,50.0
1196,309.59019286041666,311.25076067916666,51.0,53.0
1197,311.21620786041666,311.39303699166663,58.0,45.0
1198,311.54141086041665,312.06580069791664,58.0,51.0
1199,312.1918168604166,312.37474354791664,58.0,44.0
1200,311.54141086041665,312.4235239979166,67.0,48.0
1201,312.51701986041667,313.06783244166667,58.0,52.0
1202,312.51701986041667,313.1816534916666,63.0,59.0
1203,311.54141086041665,313.2507591291666,51.0,54.0
1204,313.49262886041663,313.9560431354166,60.0,48.0
1205,313.49262886041663,314.19384782916666,63.0,53.0
1206,314.14303486041666,314.3259615479167,60.0,58.0
1207,313.8178318604166,314.6105141729166,55.0,43.0
1208,314.46823786041665,314.7385628541667,67.0,52.0
1209,313.49262886041663,314.76905063541665,48.0,54.0
1210,314.46823786041665,314.79750589791666,60.0,58.0
1211,315.26092017291666,315.49872486666663,56.0,43.0
1212,315.37270870416666,315.5048224229166,60.0,47.0
1213,315.42555419166666,316.18165116666665,63.0,56.0
1214,315.41539159791665,316.33815511041666,44.0,58.0
1215,316.16945605416663,316.34222014791663,56.0,64.0
1216,315.7731148979166,316.37880548541665,51.0,47.0
1217,316.57799232291666,317.10034964166664,62.0,47.0
1218,316.56986224791666,317.13083742291667,58.0,49.0
1219,317.04343911666666,317.63693459166666,53.0,45.0
1220,316.58408987916664,317.7263654166666,46.0,58.0
1221,317.57392651041664,321.0475010541667,58.0,57.0
1222,320.96416778541663,321.15725706666666,39.0,62.0
1223,321.83002077291667,322.08408561666664,63.0,49.0
1224,322.03327264791665,322.2365245229166,65.0,54.0
1225,322.22636192916667,322.36660572291663,67.0,54.0
1226,322.4601015854166,322.69587376041665,70.0,49.0
1227,322.76701191666666,322.97839386666664,75.0,58.0
1228,323.0962799541667,323.26294649166664,77.0,54.0
1229,323.49668614791665,323.74465343541664,82.0,58.0
1230,323.88489722916665,324.3970919541666,79.0,42.0
1231,321.65319164166664,324.56172597291663,58.0,48.0
1232,324.3442464666666,324.58814871666664,77.0,47.0
1233,321.38693168541664,324.63286412916665,51.0,58.0
1234,325.02107521041665,326.01904191666665,51.0,21.0
1235,325.13083122291664,326.02107443541666,58.0,28.0
1236,325.21009945416665,326.13692800416663,70.0,45.0
1237,325.41538384791664,326.14912311666666,79.0,42.0
1238,325.36253836041664,326.15725319166665,75.0,48.0
