,start,end,pitch,velocity
0,0.6296721520833333,1.0946248729166665,70.0,100.0
1,1.2523349666666665,1.4988300020833334,68.0,87.0
2,1.584110275,2.04322188125,66.0,82.0
3,2.2313057708333335,2.6542024666666664,63.0,92.0
4,2.83527701875,4.264013645833333,70.0,87.0
5,4.810741970833333,5.089947247916666,68.0,76.0
6,5.182236858333333,5.38667586875,70.0,82.0
7,5.48480659375,5.8679837104166666,71.0,82.0
8,6.107469408333333,6.32592709375,70.0,87.0
9,6.4275624874999995,6.82359005625,68.0,73.0
10,7.029197289583333,7.43340241875,71.0,71.0
11,7.688075014583333,9.582932585416666,70.0,82.0
12,28.488284045833332,28.8784705,71.0,86.0
13,29.04903104583333,29.251133610416666,69.0,85.0
14,29.32940454583333,29.749964795833332,67.0,85.0
15,29.890151545833334,30.307207127083334,64.0,88.0
16,30.450898545833333,32.01514903125,71.0,85.0
17,32.13313954583333,32.35159723125,69.0,81.0
18,32.413513045833334,32.59809226666667,69.0,84.0
19,32.69388654583333,32.885475104166666,71.0,85.0
20,32.97426004583333,33.40533430208333,72.0,85.0
21,33.53500704583333,33.782670304166665,71.0,87.0
22,33.815380545833335,34.6541646,69.0,84.0
23,34.65650104583333,34.9345381,72.0,84.0
24,34.936874545833334,36.6167791,71.0,85.0
25,36.899489045833334,37.14364763541666,71.0,83.0
26,37.17986254583333,37.39715200833333,67.0,86.0
27,37.460236045833334,38.06888018541667,69.0,85.0
28,38.30135654583333,38.481262875,67.0,84.0
29,38.58173004583333,39.010467856249996,69.0,84.0
30,39.14247704583333,39.73827073333333,67.0,85.0
31,39.70322404583333,40.8223816,64.0,85.0
32,41.10509154583333,41.23710073541667,64.0,88.0
33,41.385465045833335,41.542006916666665,64.0,88.0
34,41.66583854583333,41.845744875,64.0,86.0
35,41.946212045833335,42.419342327083335,66.0,86.0
36,42.506959045833334,42.65065046458333,64.0,86.0
37,42.78733254583333,43.505789639583334,63.0,83.0
38,43.62845304583333,43.8293873875,64.0,86.0
39,43.908826545833335,46.15882388333333,66.0,85.0
40,46.43218804583333,46.822374499999995,71.0,86.0
41,46.992935045833335,47.19503761041666,69.0,85.0
42,47.27330854583333,47.69386879583333,67.0,85.0
43,47.83405554583333,48.251111127083334,64.0,88.0
44,48.39480254583333,49.95905303125,71.0,85.0
45,50.077043545833334,50.29550123125,69.0,81.0
46,50.35741704583333,50.541996266666665,69.0,84.0
47,50.63779054583333,50.82937910416666,71.0,85.0
48,50.91816404583333,51.34923830208333,72.0,85.0
49,51.47891104583333,51.72657430416667,71.0,87.0
50,51.75928454583333,52.5980686,69.0,84.0
51,52.600405045833334,52.8784421,72.0,84.0
52,52.88077854583333,54.5606831,71.0,85.0
53,54.84339304583333,55.087551635416666,71.0,83.0
54,55.123766545833334,55.34105600833333,67.0,86.0
55,55.40414004583333,56.01278418541666,69.0,85.0
56,56.24526054583333,56.450867779166664,71.0,85.0
57,56.52563404583333,56.976568091666664,72.0,87.0
58,57.086381045833335,57.276801381249996,74.0,87.0
59,57.36675454583333,58.82352852291667,76.0,88.0
60,59.04899554583333,59.21021030833333,76.0,85.0
61,59.32936904583333,59.49408847708333,76.0,86.0
62,59.609742545833335,59.852732912499995,76.0,86.0
63,59.89011604583333,60.266283824999995,75.0,91.0
64,60.45086304583333,60.66347961666666,71.0,89.0
65,60.73123654583333,61.203198604166666,81.0,88.0
66,61.29198354583333,61.8013287375,78.0,86.0
67,61.85273054583333,65.15296028541667,76.0,82.0
68,66.61908004583333,68.08403158333333,76.0,88.0
69,68.30132104583333,68.74174108541666,79.0,90.0
70,68.86206804583333,69.28262829583333,72.0,91.0
71,69.42281504583333,69.64594562291667,72.0,85.0
72,69.70318854583333,70.65529022291666,76.0,87.0
73,70.82468254583333,71.0115982125,76.0,84.0
74,71.10505604583334,71.48356027083334,74.0,88.0
75,71.66580304583333,71.845709375,76.0,86.0
76,71.94617654583332,72.43916661666667,78.0,85.0
77,72.50692354583333,73.03379208125,74.0,90.0
78,73.06767054583334,74.481220275,71.0,85.0
79,75.31065854583333,75.52911623125,67.0,84.0
80,75.59103204583333,76.00458295833333,69.0,88.0
81,76.15177904583334,76.29547046458333,67.0,82.0
82,76.43215254583333,77.20551611666666,69.0,85.0
83,77.27327304583334,77.46369338125,67.0,86.0
84,77.55364654583333,79.03962609583333,69.0,87.0
85,79.79663454583333,79.9975688875,64.0,84.0
86,80.07700804583332,80.46135338541666,64.0,87.0
87,80.63775504583333,80.85387628541666,64.0,84.0
88,80.91812854583333,81.30597855416666,63.0,85.0
89,81.47887554583333,81.90177224166666,64.0,88.0
90,82.03962254583332,84.28261054583334,66.0,85.0
91,84.56298404583333,84.80947908125,71.0,90.0
92,84.84335754583333,85.34452517708333,76.0,90.0
93,85.40410454583333,86.28728107083333,78.0,89.0
94,86.52559854583333,86.6984955375,79.0,86.0
95,86.80597204583333,87.2312051875,72.0,84.0
96,87.36671904583334,87.6097094125,72.0,84.0
97,87.64709254583333,88.75456787083333,76.0,86.0
98,88.76858654583333,89.00223112916666,76.0,88.0
99,89.04896004583333,89.46601562708334,74.0,90.0
100,89.60970704583333,89.85737030416666,76.0,87.0
101,89.89008054583333,90.38423883958333,78.0,86.0
102,90.45082754583333,90.98236897291666,74.0,91.0
103,91.01157454583333,92.9788619375,71.0,87.0
104,93.25456254583332,93.47418845416666,67.0,85.0
105,93.53493604583333,93.9811972,69.0,88.0
106,94.09568304583333,94.28026226666667,69.0,85.0
107,94.37605654583334,94.80362613333332,69.0,86.0
108,94.93680354583333,95.36320491041667,76.0,90.0
109,95.49755054583333,97.07698792916666,75.0,88.0
110,97.74053854583333,97.9625009,71.0,91.0
111,98.02091204583333,98.26974352708334,83.0,91.0
112,98.30128554583332,98.4601638625,81.0,81.0
113,98.58165904583333,98.79427561666667,81.0,86.0
114,98.86203254583333,99.49637758958333,79.0,84.0
115,99.42277954583334,99.90175094166666,78.0,84.0
116,99.98352654583333,100.81763770833334,79.0,86.0
117,100.82464704583333,101.09801120833333,78.0,80.0
118,101.10502054583333,103.82581171875,76.0,85.0
119,104.74987604583333,105.1400625,71.0,86.0
120,105.31062304583332,105.51272561041667,69.0,85.0
121,105.59099654583333,106.01155679583333,67.0,85.0
122,106.15174354583333,106.56879912708332,64.0,88.0
123,106.71249054583333,108.27674103125,71.0,85.0
124,108.39473154583332,108.61318923124999,69.0,81.0
125,108.67510504583333,108.85968426666666,69.0,84.0
126,108.95547854583333,109.14706710416667,71.0,85.0
127,109.23585204583333,109.66692630208333,72.0,85.0
128,109.79659904583333,110.04426230416666,71.0,87.0
129,110.07697254583333,110.9157566,69.0,84.0
130,110.91809304583333,111.19613009999999,67.0,84.0
131,111.19846654583333,112.8783711,71.0,85.0
132,113.16108104583333,113.40523963541666,71.0,83.0
133,113.44145454583332,113.65874400833333,67.0,86.0
134,113.72182804583333,114.33047218541667,69.0,85.0
135,114.56294854583334,114.76855577916666,67.0,85.0
136,114.84332204583333,115.29425609166667,69.0,87.0
137,115.40406904583332,115.9624796,71.0,87.0
138,115.96481604583333,117.42159002291666,69.0,88.0
139,117.36668354583333,117.52789830833333,64.0,85.0
140,117.64705704583334,117.81177647708333,64.0,86.0
141,117.92743054583333,118.17042091249999,64.0,86.0
142,118.20780404583333,118.58397182499999,66.0,91.0
143,118.76855104583333,118.98116761666667,59.0,89.0
144,119.04892454583333,119.52088660416666,69.0,88.0
145,119.60967154583334,120.11901673749999,66.0,86.0
146,120.17041854583333,122.1306966,66.0,82.0
147,122.69378004583334,123.0839665,71.0,86.0
148,123.25452704583333,123.45662961041667,69.0,85.0
149,123.53490054583332,123.95546079583333,67.0,85.0
150,124.09564754583333,124.51270312708333,64.0,88.0
151,124.65639454583332,126.22064503125,71.0,85.0
152,126.33863554583333,126.55709323125,69.0,81.0
153,126.61900904583332,126.80358826666667,69.0,84.0
154,126.89938254583333,127.09097110416666,71.0,85.0
155,127.17975604583333,127.61083030208333,72.0,85.0
156,127.74050304583334,127.98816630416667,71.0,87.0
157,128.02087654583332,128.85966059999998,69.0,84.0
158,128.86199704583333,129.1400341,72.0,84.0
159,129.14237054583333,130.82227509999998,71.0,85.0
160,131.10498504583333,131.34914363541665,71.0,83.0
161,131.38535854583333,131.60264800833332,67.0,86.0
162,131.66573204583332,132.27437618541666,69.0,85.0
163,132.50685254583334,132.71245977916666,71.0,85.0
164,132.78722604583334,133.23816009166666,72.0,87.0
165,133.34797304583333,133.53839338125,74.0,87.0
166,133.62834654583332,135.08512052291667,76.0,88.0
167,135.31058754583333,135.47180230833334,76.0,85.0
168,135.59096104583332,135.75568047708333,76.0,86.0
169,135.87133454583332,136.1143249125,76.0,86.0
170,136.15170804583332,136.527875825,75.0,91.0
171,136.71245504583334,136.92507161666666,71.0,89.0
172,136.99282854583333,137.46479060416667,81.0,88.0
173,137.55357554583333,138.0629207375,78.0,86.0
174,138.11432254583332,141.41455228541668,76.0,82.0
175,142.88067204583334,144.34562358333332,76.0,88.0
176,144.56291304583334,145.00333308541667,79.0,90.0
177,145.12366004583333,145.54422029583333,72.0,91.0
178,145.68440704583332,145.90753762291666,72.0,85.0
179,145.96478054583332,146.91688222291666,76.0,87.0
180,147.08627454583333,147.2731902125,76.0,84.0
181,147.36664804583333,147.74515227083333,74.0,88.0
182,147.92739504583332,148.107301375,76.0,86.0
183,148.20776854583332,148.70075861666666,78.0,85.0
184,148.76851554583334,149.29538408125,74.0,90.0
185,149.32926254583333,150.742812275,71.0,85.0
186,151.57225054583333,151.79070823125,67.0,84.0
187,151.85262404583332,152.26617495833332,69.0,88.0
188,152.41337104583332,152.55706246458334,67.0,82.0
189,152.69374454583334,153.46710811666665,69.0,85.0
190,153.53486504583333,153.72528538125,67.0,86.0
191,153.81523854583332,155.30121809583332,69.0,87.0
192,156.05822654583332,156.2591608875,64.0,84.0
193,156.33860004583332,156.72294538541666,64.0,87.0
194,156.89934704583334,157.11546828541665,64.0,84.0
195,157.17972054583333,157.56757055416665,63.0,85.0
196,157.74046754583333,158.16336424166667,64.0,88.0
197,158.30121454583332,160.54420254583331,66.0,85.0
198,160.82457604583334,161.07107108124998,71.0,90.0
199,161.10494954583334,161.60611717708332,76.0,90.0
200,161.66569654583333,162.54887307083334,78.0,89.0
201,162.78719054583334,162.9600875375,79.0,86.0
202,163.06756404583334,163.4927971875,72.0,84.0
203,163.62831104583333,163.8713014125,72.0,84.0
204,163.90868454583332,165.01615987083332,76.0,86.0
205,165.03017854583334,165.26382312916667,76.0,88.0
206,165.31055204583333,165.72760762708333,74.0,90.0
207,165.87129904583333,166.11896230416667,76.0,87.0
208,166.15167254583332,166.64583083958334,78.0,86.0
209,166.71241954583334,167.24396097291665,74.0,91.0
210,167.27316654583333,169.2404539375,71.0,87.0
211,169.51615454583333,169.73578045416667,67.0,85.0
212,169.79652804583333,170.2427892,69.0,88.0
213,170.35727504583332,170.54185426666666,69.0,85.0
214,170.63764854583331,171.06521813333333,69.0,86.0
215,171.19839554583334,171.62479691041665,76.0,90.0
216,171.75914254583333,173.33857992916666,75.0,88.0
217,174.00213054583332,174.2240929,71.0,91.0
218,174.28250404583332,174.53133552708331,83.0,91.0
219,174.56287754583332,174.7217558625,81.0,81.0
220,174.84325104583334,175.05586761666666,81.0,86.0
221,175.12362454583334,175.75796958958333,79.0,84.0
222,175.68437154583333,176.16334294166666,78.0,84.0
223,176.24511854583332,177.07922970833332,79.0,86.0
224,177.08623904583334,177.35960320833334,78.0,80.0
225,177.36661254583333,180.08740371874998,76.0,85.0
226,216.91284756041665,217.86331802291667,76.0,89.0
227,218.04492156041667,218.29727972291667,76.0,89.0
228,218.32794006041667,218.57558124791666,79.0,90.0
229,218.61095856041666,219.15458992916666,83.0,88.0
230,219.17699556041666,220.65576722291667,76.0,88.0
231,220.87377303958334,221.31419307916667,79.0,90.0
232,221.43452003958333,221.85508028958333,72.0,91.0
233,221.99526703958333,222.21839761666666,72.0,85.0
234,222.27564053958332,223.22774221666666,76.0,87.0
235,223.39713453958333,223.58405020625,76.0,84.0
236,223.67750803958333,224.05601226458333,74.0,88.0
237,224.23825503958332,224.41816136875,76.0,86.0
238,224.51862853958335,225.01161861041666,78.0,85.0
239,225.07937553958334,225.606244075,74.0,90.0
240,225.64012253958333,227.05367226875,71.0,85.0
241,227.88311053958333,228.101568225,67.0,84.0
242,228.16348403958332,228.57703495208332,69.0,88.0
243,228.72423103958334,228.86792245833334,67.0,82.0
244,229.00460453958334,229.77796811041668,69.0,85.0
245,229.84572503958333,230.036145375,67.0,86.0
246,230.12609853958332,231.61207808958335,69.0,87.0
247,232.36908653958332,232.57002088125,64.0,84.0
248,232.64946003958335,233.03380537916667,64.0,87.0
249,233.21020703958334,233.42632827916665,64.0,84.0
250,233.49058053958333,233.87843054791668,63.0,85.0
251,234.05132753958333,234.47422423541667,64.0,88.0
252,234.61207453958335,236.85506253958334,66.0,85.0
253,237.13543603958334,237.381931075,71.0,90.0
254,237.41580953958334,237.91697717083332,76.0,90.0
255,237.97655653958333,238.85973306458334,78.0,89.0
256,239.09805053958334,239.27094753125,79.0,86.0
257,239.37842403958334,239.80365718125,72.0,84.0
258,239.93917103958333,240.18216140625,72.0,84.0
259,240.21954453958332,241.32701986458335,76.0,86.0
260,241.34103853958334,241.57468312291667,76.0,88.0
261,241.62141203958333,242.03846762083333,74.0,90.0
262,242.18215903958333,242.42982229791667,76.0,87.0
263,242.46253253958332,242.95669083333334,78.0,86.0
264,243.02327953958334,243.55482096666668,74.0,91.0
265,243.58402653958333,245.55131393125,71.0,87.0
266,245.82701453958333,246.04664044791667,67.0,85.0
267,246.10738803958333,246.55364919375,69.0,88.0
268,246.66813503958332,246.85271426041666,69.0,85.0
269,246.94850853958334,247.37607812708333,69.0,86.0
270,247.50925553958334,247.93565690416668,76.0,90.0
271,248.07000253958333,249.64943992291666,75.0,88.0
272,250.31299053958332,250.53495289375,71.0,91.0
273,250.59336403958332,250.84219552083334,83.0,91.0
274,250.87373753958335,251.03261585625,81.0,81.0
275,251.15411103958334,251.36672761041666,81.0,86.0
276,251.43448453958334,252.06882958333333,79.0,84.0
277,251.99523153958333,252.47420293541666,78.0,84.0
278,252.55597853958332,253.39008970208334,79.0,86.0
279,253.39709903958334,253.67046320208334,78.0,80.0
280,253.67747253958333,256.3982637125,76.0,85.0
281,257.04195453958334,257.2615804479167,67.0,85.0
282,257.32232803958334,257.76858919375,69.0,88.0
283,257.88307503958333,258.06765426041665,69.0,85.0
284,258.1634485395833,258.5910181270833,69.0,86.0
285,258.7241955395833,259.15059690416666,76.0,90.0
286,259.2849425395833,260.86437992291667,75.0,88.0
287,261.52793053958334,261.74989289375003,71.0,91.0
288,261.80830403958333,262.05713552083336,83.0,91.0
289,262.08867753958333,262.24755585625,81.0,81.0
290,262.3690510395833,262.5816676104167,81.0,86.0
291,262.6494245395833,263.2837695833333,79.0,84.0
292,263.2101715395833,263.68914293541667,78.0,84.0
293,263.77091853958336,264.60502970208336,79.0,86.0
294,264.61203903958335,264.88540320208335,78.0,80.0
295,267.24754993958334,267.4496525041667,71.0,85.0
296,264.89241253958335,267.6132037125,76.0,85.0
297,267.5232505479167,267.6132037125,76.0,86.0
298,267.84801651875,268.1622684833333,74.0,91.0
299,268.19731517083335,268.54895026875,72.0,85.0
300,268.5524549375,268.83166021458334,71.0,84.0
301,268.85035178124997,270.22768659999997,72.0,77.0
302,270.4952096479167,271.15175092708336,67.0,78.0
303,271.1272182458333,272.74871165416664,66.0,79.0
304,272.8398330416667,273.01506647916665,71.0,85.0
305,273.1645990125,275.2475404729167,71.0,85.0
306,275.4029141208333,276.0267451583333,69.0,90.0
307,276.06062362291664,277.335154825,67.0,85.0
308,277.41809865208336,277.78608887083334,67.0,86.0
309,277.83048134166665,278.3596863229167,71.0,88.0
310,278.5010412958333,278.72884476458336,71.0,85.0
311,278.9180968770833,279.269731975,71.0,82.0
312,279.2475357395833,280.9087487270833,69.0,79.0
313,281.12837463541666,281.83748594583335,60.0,82.0
314,281.82930838541665,282.6949615666667,59.0,84.0
315,282.64239153541666,283.44379245625,69.0,85.0
316,283.39472709375,285.13187457083336,66.0,83.0
317,285.0664540875,285.76388316875,67.0,76.0
318,285.70547202291664,288.4262631958333,66.0,75.0
319,288.39238473125,291.12719457916666,64.0,82.0
