,start,end,pitch,velocity
0,15.894071791666667,16.288168383333332,57.0,97.0
1,16.310737791666664,16.685737191666664,59.0,85.0
2,16.727403791666667,17.703096674999998,66.0,96.0
3,17.977401791666665,18.276012424999998,64.0,100.0
4,18.394067791666664,18.829830983333334,64.0,86.0
5,18.810733791666667,19.088511125,62.0,90.0
6,19.227399791666667,19.590246433333334,62.0,88.0
7,19.644065791666666,20.048579033333333,59.0,75.0
8,20.060731791666665,22.213506125,62.0,77.0
9,22.560727791666665,22.937463299999997,66.0,96.0
10,22.977393791666664,23.347184866666666,69.0,93.0
11,23.394059791666667,24.421835925,71.0,99.0
12,24.644057791666665,25.09023763333333,69.0,96.0
13,25.060723791666664,25.501695308333332,71.0,96.0
14,25.477389791666667,25.7082922,69.0,89.0
15,25.894055791666666,26.187458099999997,66.0,77.0
16,26.310721791666666,26.692665625,66.0,78.0
17,26.727387791666665,28.822870549999998,69.0,85.0
18,29.227383791666664,29.630160925,69.0,90.0
19,29.644049791666664,30.003424216666666,71.0,77.0
20,30.060715791666667,31.057241975,74.0,88.0
21,31.310713791666664,31.677032649999997,71.0,86.0
22,31.727379791666664,32.012101558333335,71.0,93.0
23,32.14404579166666,32.42529534166667,69.0,95.0
24,32.56071179166666,32.80897528333333,66.0,93.0
25,32.97737779166666,33.28293285833333,64.0,89.0
26,33.39404379166667,33.786404274999995,66.0,93.0
27,33.81070979166667,34.062445499999995,66.0,92.0
28,34.22737579166667,34.51904199166667,66.0,107.0
29,34.644041791666666,34.97043015833333,64.0,90.0
30,35.060707791666665,35.74299836666666,62.0,93.0
31,35.894039791666664,36.26730308333333,59.0,89.0
32,36.31070579166666,36.62667750833333,66.0,90.0
33,36.72737179166666,37.090218433333334,64.0,88.0
34,37.14403779166666,37.69438413333333,66.0,97.0
35,37.97736979166667,38.1666056,64.0,85.0
36,38.185702791666664,38.43917460833333,66.0,86.0
37,38.39403579166667,38.63535485,64.0,72.0
38,38.810701791666666,39.07979858333333,64.0,83.0
39,39.227367791666666,39.515561774999995,64.0,76.0
40,39.644033791666665,40.019033191666665,62.0,78.0
41,40.060699791666664,41.755141525,64.0,77.0
42,42.56069579166667,42.97736179166667,57.0,90.0
43,42.97736179166667,43.385347249999995,59.0,73.0
44,43.394027791666666,44.446109441666664,66.0,78.0
45,44.644025791666664,44.95131696666667,64.0,79.0
46,45.06069179166666,45.414857891666664,64.0,82.0
47,45.47735779166666,45.777704533333335,62.0,90.0
48,45.89402379166666,46.144023391666664,59.0,96.0
49,46.31068979166666,46.59367545,59.0,92.0
50,46.72735579166667,48.281172749999996,62.0,83.0
51,49.22735179166666,49.588462324999995,66.0,99.0
52,49.64401779166666,49.95478118333333,69.0,93.0
53,50.06068379166666,50.963460125,71.0,107.0
54,51.31068179166667,51.57283415,69.0,96.0
55,51.727347791666666,52.100611083333334,71.0,97.0
56,52.144013791666666,52.44956885833333,69.0,88.0
57,52.560679791666665,52.857554316666665,66.0,79.0
58,52.977345791666664,53.328039675,66.0,95.0
59,53.394011791666664,55.140536774999994,69.0,92.0
60,55.89400779166667,56.27942384166666,69.0,95.0
61,56.310673791666666,56.74643698333333,71.0,95.0
62,56.727339791666665,57.50685243333333,74.0,95.0
63,57.97733779166666,58.30025394166666,71.0,100.0
64,58.39400379166666,58.812405899999995,71.0,93.0
65,58.81066979166666,59.15615535,69.0,96.0
66,59.22733579166666,59.578029674999996,66.0,97.0
67,59.64400179166666,60.07629276666666,64.0,86.0
68,60.06066779166667,60.35059788333333,66.0,82.0
69,60.477333791666666,60.74122225833333,66.0,100.0
70,60.893999791666666,61.234277025,66.0,99.0
71,61.310665791666665,61.63358194166666,64.0,86.0
72,61.727331791666664,62.25163650833333,62.0,82.0
73,62.56066379166666,62.951288166666664,59.0,90.0
74,62.97732979166666,63.40614855,66.0,97.0
75,63.39399579166666,64.30198045,64.0,86.0
76,64.64399379166666,64.80718797499999,64.0,92.0
77,64.85232679166667,65.1040625,66.0,96.0
78,65.06065979166667,65.34364545,64.0,89.0
79,65.47732579166666,65.79156139999999,64.0,90.0
80,65.89399179166666,66.24121345833333,64.0,85.0
81,66.31065779166666,66.69433773333333,62.0,96.0
82,66.72732379166666,68.97211186666667,69.0,112.0
83,69.22731979166666,69.59016643333334,69.0,96.0
84,69.64398579166667,69.96169361666666,71.0,96.0
85,70.06065179166666,70.92696984999999,74.0,99.0
86,71.31064979166666,71.55023274166666,76.0,107.0
87,71.72731579166667,72.04849583333333,76.0,97.0
88,72.14398179166666,72.38182863333333,74.0,97.0
89,72.56064779166667,72.81585571666666,71.0,96.0
90,72.97731379166666,73.0832164,71.0,93.0
91,73.18564679166667,73.32453545833333,71.0,92.0
92,73.39397979166667,74.64571389999999,74.0,102.0
93,75.89397579166666,76.21689194166666,69.0,96.0
94,76.31064179166667,76.62661350833334,71.0,96.0
95,76.72730779166666,77.53807038333333,74.0,99.0
96,77.97730579166667,78.32105524166667,76.0,96.0
97,78.39397179166666,78.69952685833333,76.0,96.0
98,78.81063779166666,79.08147069166667,74.0,96.0
99,79.22730379166666,79.56931713333333,71.0,90.0
100,79.64396979166666,80.05889968333332,69.0,96.0
101,80.067580225,81.38181423333333,71.0,99.0
102,82.56063179166667,82.932158975,69.0,96.0
103,82.99292276666667,83.38354714166667,71.0,100.0
104,83.3956999,83.66826890833333,71.0,100.0
105,83.661324475,84.48250371666666,74.0,100.0
106,84.64396179166667,84.93562799166666,76.0,122.0
107,85.06062779166666,85.44430773333333,76.0,100.0
108,85.47729379166667,85.765487775,74.0,96.0
109,85.89395979166666,86.20993150833333,71.0,92.0
110,86.31062579166667,86.66479189166667,69.0,96.0
111,86.72729179166666,87.01722188333333,71.0,95.0
112,87.14395779166667,87.23944374999999,71.0,99.0
113,87.35229079166666,87.44430453333332,71.0,93.0
114,87.56062379166666,87.93388708333333,71.0,99.0
115,87.97728979166666,88.41305298333333,69.0,95.0
116,88.39395579166666,89.02589922499999,66.0,99.0
117,89.22728779166667,89.53805118333332,66.0,99.0
118,89.64395379166666,90.05888368333333,71.0,93.0
119,90.06061979166667,90.89395179166667,69.0,90.0
120,91.31061779166666,91.52242300833333,69.0,96.0
121,91.51895079166667,91.71513103333334,71.0,77.0
122,91.72728379166666,92.18388028333332,66.0,86.0
123,92.14394979166666,92.411310475,64.0,100.0
124,92.56061579166666,92.81929593333332,64.0,77.0
125,92.97728179166666,93.16825370833332,64.0,95.0
126,93.18561479166667,93.37832281666667,62.0,76.0
127,93.39394779166666,93.60748911666666,66.0,102.0
128,93.60228079166666,95.10575060833332,69.0,85.0
129,95.89394379166666,96.25679043333334,69.0,96.0
130,96.31060979166666,96.62831761666666,71.0,96.0
131,96.72727579166666,97.59359384999999,74.0,99.0
132,97.97727379166666,98.21685674166666,76.0,107.0
133,98.39393979166667,98.71511983333333,76.0,97.0
134,98.81060579166666,99.04845263333333,74.0,97.0
135,99.22727179166667,99.48247971666666,71.0,96.0
136,99.64393779166666,99.7498404,71.0,93.0
137,99.85227079166667,99.99115945833333,71.0,92.0
138,100.06060379166667,101.31233789999999,74.0,102.0
139,102.56059979166666,102.88351594166666,69.0,96.0
140,102.97726579166667,103.29323750833333,71.0,96.0
141,103.39393179166666,104.20469438333333,74.0,99.0
142,104.64392979166666,104.98767924166667,76.0,96.0
143,105.06059579166666,105.36615085833333,76.0,96.0
144,105.47726179166666,105.74809469166667,74.0,96.0
145,105.89392779166666,106.23594113333333,71.0,90.0
146,106.31059379166666,106.72552368333332,69.0,96.0
147,106.72725979166667,108.0414938,71.0,99.0
148,109.22725579166666,109.59878297499999,69.0,96.0
149,109.64392179166666,110.03454616666666,71.0,100.0
150,110.06058779166666,111.14044717499999,74.0,100.0
151,111.31058579166667,111.60225199166666,76.0,122.0
152,111.72725179166666,112.11093173333333,76.0,100.0
153,112.14391779166667,112.432111775,74.0,96.0
154,112.56058379166666,112.87655550833333,71.0,92.0
155,112.97724979166667,113.33141589166667,69.0,96.0
156,113.39391579166666,113.68384588333333,71.0,95.0
157,113.81058179166666,113.90606774999999,71.0,99.0
158,114.01891479166666,114.11092853333332,71.0,93.0
159,114.22724779166666,114.60051108333333,71.0,99.0
160,114.64391379166666,115.07967698333333,69.0,95.0
161,115.06057979166665,115.69252322499999,66.0,99.0
162,115.89391179166667,116.20467518333332,66.0,99.0
163,116.31057779166666,116.72550768333333,71.0,93.0
164,116.72724379166667,117.56057579166666,69.0,90.0
165,117.97724179166666,118.18904700833333,69.0,96.0
166,118.18557479166667,118.38175503333333,71.0,77.0
167,118.39390779166666,118.85050428333332,66.0,86.0
168,118.81057379166666,119.07793447499999,64.0,100.0
169,119.22723979166666,119.48591993333332,64.0,77.0
170,119.64390579166665,119.91647479999999,62.0,96.0
171,120.06057179166666,122.61091493333333,62.0,96.0
172,149.22719179166666,149.62128838333334,57.0,97.0
173,149.64385779166665,150.01885719166665,59.0,85.0
174,150.06052379166667,151.036216675,66.0,96.0
175,151.31052179166667,151.60913242499998,64.0,100.0
176,151.72718779166667,152.16295098333333,64.0,86.0
177,152.14385379166666,152.421631125,62.0,90.0
178,152.56051979166665,152.9233664333333,62.0,88.0
179,152.97718579166667,153.38169903333332,59.0,75.0
180,153.39385179166666,155.546626125,62.0,77.0
181,155.89384779166667,156.2705833,66.0,96.0
182,156.31051379166666,156.68030486666666,69.0,93.0
183,156.72717979166666,157.754955925,71.0,99.0
184,157.97717779166666,158.42335763333332,69.0,96.0
185,158.39384379166665,158.83481530833333,71.0,96.0
186,158.81050979166665,159.0414122,69.0,89.0
187,159.22717579166667,159.5205781,66.0,77.0
188,159.64384179166666,160.025785625,66.0,78.0
189,160.06050779166665,162.15599054999998,69.0,85.0
190,162.56050379166666,162.963280925,69.0,90.0
191,162.97716979166665,163.33654421666665,71.0,77.0
192,163.39383579166665,164.390361975,74.0,88.0
193,164.64383379166665,165.01015264999998,71.0,86.0
194,165.06049979166667,165.34522155833332,71.0,93.0
195,165.47716579166666,165.75841534166665,69.0,95.0
196,165.89383179166666,166.14209528333333,66.0,93.0
197,166.31049779166665,166.61605285833332,64.0,89.0
198,166.72716379166667,167.119524275,66.0,93.0
199,167.14382979166666,167.3955655,66.0,92.0
200,167.56049579166665,167.85216199166666,66.0,107.0
201,167.97716179166665,168.30355015833334,64.0,90.0
202,168.39382779166667,169.07611836666666,62.0,93.0
203,169.22715979166665,169.60042308333334,59.0,89.0
204,169.64382579166667,169.95979750833334,66.0,90.0
205,170.06049179166666,170.42333843333333,64.0,88.0
206,170.47715779166666,171.02750413333334,66.0,97.0
207,171.31048979166667,171.4997256,64.0,85.0
208,171.51882279166665,171.7722946083333,66.0,86.0
209,171.72715579166666,171.96847484999998,64.0,72.0
210,172.14382179166665,172.41291858333332,64.0,83.0
211,172.56048779166665,172.848681775,64.0,76.0
212,172.97715379166667,173.35215319166664,62.0,78.0
213,173.39381979166666,175.08826152499998,64.0,77.0
214,175.89381579166667,176.31048179166666,57.0,90.0
215,176.31048179166666,176.71846725,59.0,73.0
216,176.72714779166665,177.77922944166667,66.0,78.0
217,177.97714579166666,178.28443696666665,64.0,79.0
218,178.39381179166665,178.74797789166666,64.0,82.0
219,178.81047779166667,179.11082453333333,62.0,90.0
220,179.22714379166666,179.47714339166666,59.0,96.0
221,179.64380979166665,179.92679545,59.0,92.0
222,180.06047579166665,181.61429275,62.0,83.0
223,182.56047179166666,182.921582325,66.0,99.0
224,182.97713779166665,183.28790118333333,69.0,93.0
225,183.39380379166667,184.296580125,71.0,107.0
226,184.64380179166665,184.90595414999999,69.0,96.0
227,185.06046779166667,185.43373108333333,71.0,97.0
228,185.47713379166666,185.78268885833333,69.0,88.0
229,185.89379979166665,186.19067431666664,66.0,79.0
230,186.31046579166664,186.661159675,66.0,95.0
231,186.72713179166666,188.473656775,69.0,92.0
232,189.22712779166665,189.61254384166665,69.0,95.0
233,189.64379379166667,190.07955698333333,71.0,95.0
234,190.06045979166666,190.83997243333332,74.0,95.0
235,191.31045779166666,191.63337394166666,71.0,100.0
236,191.72712379166666,192.1455259,71.0,93.0
237,192.14378979166665,192.48927534999999,69.0,96.0
238,192.56045579166667,192.911149675,66.0,97.0
239,192.97712179166666,193.40941276666666,64.0,86.0
240,193.39378779166665,193.68371788333332,66.0,82.0
241,193.81045379166665,194.07434225833333,66.0,100.0
242,194.22711979166667,194.567397025,66.0,99.0
243,194.64378579166666,194.96670194166666,64.0,86.0
244,195.06045179166665,195.58475650833333,62.0,82.0
245,195.89378379166666,196.28440816666665,59.0,90.0
246,196.31044979166666,196.73926855,66.0,97.0
247,196.72711579166665,197.63510044999998,64.0,86.0
248,197.97711379166665,198.14030797499998,64.0,92.0
249,198.18544679166666,198.43718249999998,66.0,96.0
250,198.39377979166665,198.67676545,64.0,89.0
251,198.81044579166667,199.1246814,64.0,90.0
252,199.22711179166666,199.5743334583333,64.0,85.0
253,199.64377779166665,200.02745773333334,62.0,96.0
254,200.06044379166667,202.30523186666665,69.0,112.0
255,202.56043979166665,202.92328643333332,69.0,96.0
256,202.97710579166665,203.29481361666666,71.0,96.0
257,203.39377179166667,204.26008984999999,74.0,99.0
258,204.64376979166667,204.88335274166667,76.0,107.0
259,205.06043579166666,205.3816158333333,76.0,97.0
260,205.47710179166666,205.71494863333334,74.0,97.0
261,205.89376779166665,206.14897571666665,71.0,96.0
262,206.31043379166667,206.41633639999998,71.0,93.0
263,206.51876679166665,206.65765545833332,71.0,92.0
264,206.72709979166666,207.97883389999998,74.0,102.0
265,209.22709579166667,209.55001194166667,69.0,96.0
266,209.64376179166666,209.95973350833333,71.0,96.0
267,210.06042779166665,210.87119038333333,74.0,99.0
268,211.31042579166666,211.65417524166665,76.0,96.0
269,211.72709179166665,212.03264685833332,76.0,96.0
270,212.14375779166664,212.41459069166666,74.0,96.0
271,212.56042379166666,212.90243713333334,71.0,90.0
272,212.97708979166666,213.39201968333333,69.0,96.0
273,213.39375579166665,214.70798979999998,71.0,99.0
274,215.89375179166666,216.265278975,69.0,96.0
275,216.31041779166665,216.70104216666667,71.0,100.0
276,216.72708379166664,217.806943175,74.0,100.0
277,217.97708179166665,218.26874799166666,76.0,122.0
278,218.39374779166667,218.77742773333333,76.0,100.0
279,218.81041379166666,219.09860777499998,74.0,96.0
280,219.22707979166665,219.54305150833332,71.0,92.0
281,219.64374579166665,219.99791189166666,69.0,96.0
282,220.06041179166667,220.35034188333333,71.0,95.0
283,220.47707779166666,220.57256375,71.0,99.0
284,220.68541079166667,220.77742453333332,71.0,93.0
285,220.89374379166665,221.2670070833333,71.0,99.0
286,221.31040979166664,221.7461729833333,69.0,95.0
287,221.72707579166666,222.359019225,66.0,99.0
288,222.56040779166665,222.87117118333333,66.0,99.0
289,222.97707379166667,223.39200368333331,71.0,93.0
290,223.39373979166666,224.22707179166665,69.0,90.0
291,224.64373779166667,224.8555430083333,69.0,96.0
292,224.85207079166665,225.04825103333332,71.0,77.0
293,225.06040379166666,225.51700028333332,66.0,86.0
294,225.47706979166665,225.744430475,64.0,100.0
295,225.89373579166664,226.15241593333332,64.0,77.0
296,226.31040179166666,226.50137370833332,64.0,95.0
297,226.51873479166665,226.71144281666665,62.0,76.0
298,226.72706779166666,226.94060911666665,66.0,102.0
299,226.93540079166667,228.43887060833333,69.0,85.0
300,229.22706379166667,229.58991043333333,69.0,96.0
301,229.64372979166666,229.96143761666664,71.0,96.0
302,230.06039579166665,230.92671385,74.0,99.0
303,231.31039379166666,231.54997674166665,76.0,107.0
304,231.72705979166665,232.04823983333333,76.0,97.0
305,232.14372579166667,232.38157263333332,74.0,97.0
306,232.56039179166666,232.81559971666667,71.0,96.0
307,232.97705779166665,233.0829604,71.0,93.0
308,233.18539079166666,233.32427945833334,71.0,92.0
309,233.39372379166664,234.6454579,74.0,102.0
310,235.89371979166665,236.21663594166665,69.0,96.0
311,236.31038579166665,236.6263575083333,71.0,96.0
312,236.72705179166667,237.5378143833333,74.0,99.0
313,237.97704979166664,238.32079924166666,76.0,96.0
314,238.39371579166666,238.69927085833334,76.0,96.0
315,238.81038179166666,239.08121469166664,74.0,96.0
316,239.22704779166665,239.56906113333332,71.0,90.0
317,239.64371379166664,240.05864368333332,69.0,96.0
318,240.06037979166666,241.3746138,71.0,99.0
319,242.56037579166664,242.93190297499999,69.0,96.0
320,242.97704179166666,243.36766616666665,71.0,100.0
321,243.39370779166666,244.473567175,74.0,100.0
322,244.64370579166666,244.93537199166664,76.0,122.0
323,245.06037179166665,245.4440517333333,76.0,100.0
324,245.47703779166665,245.765231775,74.0,96.0
325,245.89370379166667,246.20967550833333,71.0,92.0
326,246.31036979166666,246.66453589166665,69.0,96.0
327,246.72703579166665,247.0169658833333,71.0,95.0
328,247.14370179166664,247.23918774999999,71.0,99.0
329,247.35203479166665,247.44404853333333,71.0,93.0
330,247.56036779166666,247.93363108333332,71.0,99.0
331,247.97703379166666,248.41279698333332,69.0,95.0
332,248.39369979166665,249.02564322499998,66.0,99.0
333,249.22703179166666,249.53779518333332,66.0,99.0
334,249.64369779166665,250.05862768333333,71.0,93.0
335,250.06036379166665,250.89369579166666,69.0,90.0
336,251.31036179166665,251.52216700833333,69.0,96.0
337,251.51869479166666,251.71487503333333,71.0,77.0
338,251.72702779166664,252.18362428333333,66.0,86.0
339,252.14369379166666,252.411054475,64.0,100.0
340,252.56035979166666,252.81903993333333,64.0,77.0
341,252.97702579166665,253.24959479999998,62.0,96.0
342,253.39369179166667,255.62806321666665,62.0,96.0
343,255.89368779166665,256.25653443333334,69.0,96.0
344,256.31035379166667,256.6280616166666,71.0,96.0
345,256.72701979166663,257.59333785,74.0,99.0
346,257.97701779166664,258.21660074166664,76.0,107.0
347,258.39368379166666,258.7148638333333,76.0,97.0
348,258.8103497916667,259.0481966333333,74.0,97.0
349,259.22701579166664,259.4822237166667,71.0,96.0
350,259.64368179166667,259.7495844,71.0,93.0
351,259.85201479166665,259.9909034583333,71.0,92.0
352,260.06034779166663,261.3120819,74.0,102.0
353,262.56034379166664,262.88325994166667,69.0,96.0
354,262.97700979166666,263.2929815083333,71.0,96.0
355,263.3936757916667,264.2044383833333,74.0,99.0
356,264.64367379166663,264.98742324166665,76.0,96.0
357,265.06033979166665,265.3658948583333,76.0,96.0
358,265.47700579166667,265.74783869166663,74.0,96.0
359,265.89367179166663,266.23568513333333,71.0,90.0
360,266.31033779166665,266.7252676833333,69.0,96.0
361,266.7270037916667,268.0412378,71.0,99.0
362,269.22699979166663,269.59852697499997,69.0,96.0
363,269.64366579166665,270.03429016666666,71.0,100.0
364,270.06033179166667,271.140191175,74.0,100.0
365,271.3103297916667,271.6019959916666,76.0,122.0
366,271.72699579166664,272.1106757333333,76.0,100.0
367,272.14366179166666,272.431855775,74.0,96.0
368,272.5603277916667,272.8762995083333,71.0,92.0
369,272.97699379166664,273.33115989166663,69.0,96.0
370,273.39365979166666,273.6835898833333,71.0,95.0
371,273.8103257916666,273.90581175,71.0,99.0
372,274.01865879166667,274.11067253333334,71.0,93.0
373,274.22699179166665,274.6002550833333,71.0,99.0
374,274.64365779166667,275.0794209833333,69.0,95.0
375,275.06032379166663,275.69226722499997,66.0,99.0
376,275.8936557916667,276.2044191833333,66.0,99.0
377,276.31032179166664,276.72525168333334,71.0,93.0
378,276.72698779166666,277.56031979166664,69.0,90.0
379,277.97698579166666,278.18879100833334,69.0,96.0
380,278.18531879166665,278.38149903333334,71.0,77.0
381,278.3936517916666,278.8502482833333,66.0,86.0
382,278.81031779166665,279.07767847499997,64.0,100.0
383,279.22698379166667,279.48566393333334,64.0,77.0
384,279.64364979166663,279.8346217083333,64.0,95.0
385,279.85198279166667,280.0446908166667,62.0,76.0
386,280.06031579166665,280.27385711666665,66.0,102.0
387,280.26864879166664,281.7721186083333,69.0,85.0
388,282.56031179166666,282.9231584333333,69.0,96.0
389,282.9769777916666,283.29468561666664,71.0,96.0
390,283.39364379166665,284.25996184999997,74.0,99.0
391,284.64364179166665,284.88322474166665,76.0,107.0
392,285.0603077916667,285.3814878333333,76.0,97.0
393,285.47697379166664,285.7148206333333,74.0,97.0
394,285.89363979166666,286.14884771666664,71.0,96.0
395,286.3103057916667,286.41620839999996,71.0,93.0
396,286.51863879166666,286.65752745833333,71.0,92.0
397,286.72697179166664,287.97870589999997,74.0,102.0
398,289.22696779166665,289.5498839416667,69.0,96.0
399,289.6436337916667,289.9596055083333,71.0,96.0
400,290.06029979166664,290.8710623833333,74.0,99.0
401,291.31029779166664,291.65404724166666,76.0,96.0
402,291.72696379166666,292.03251885833333,76.0,96.0
403,292.1436297916666,292.41446269166664,74.0,96.0
404,292.56029579166665,292.90230913333335,71.0,90.0
405,292.97696179166667,293.3918916833333,69.0,96.0
406,293.39362779166663,294.7078618,71.0,99.0
407,295.89362379166664,296.265150975,69.0,96.0
408,296.31028979166666,296.7009141666667,71.0,100.0
409,296.7269557916666,297.806815175,74.0,100.0
410,297.97695379166663,298.26861999166664,76.0,122.0
411,298.39361979166665,298.77729973333334,76.0,100.0
412,298.8102857916667,299.098479775,74.0,96.0
413,299.22695179166664,299.54292350833333,71.0,92.0
414,299.64361779166666,299.99778389166664,69.0,96.0
415,300.0602837916667,300.3502138833333,71.0,95.0
416,300.47694979166664,300.57243575,71.0,99.0
417,300.6852827916667,300.7772965333333,71.0,93.0
418,300.89361579166666,301.2668790833333,71.0,99.0
419,301.3102817916666,301.7460449833333,69.0,95.0
420,301.72694779166665,302.358891225,66.0,99.0
421,302.56027979166663,302.8710431833333,66.0,99.0
422,302.97694579166665,303.3918756833333,71.0,93.0
423,303.3936117916667,304.22694379166666,69.0,90.0
424,304.6436097916667,304.8554150083333,69.0,96.0
425,304.85194279166666,305.0481230333333,71.0,77.0
426,305.06027579166664,305.5168722833333,66.0,86.0
427,305.47694179166666,305.744302475,64.0,100.0
428,305.8936077916666,306.1522879333333,64.0,77.0
429,306.31027379166665,306.5828428,62.0,96.0
430,306.72693979166667,308.9613112166667,62.0,96.0
