,start,end,pitch,velocity
0,4.644089791666667,5.2916582,50.0,62.0
1,4.227423791666666,5.4426996249999995,57.0,69.0
2,4.227423791666666,5.5208245,62.0,74.0
3,5.477421791666666,5.815962916666666,50.0,70.0
4,3.8107577916666666,6.022559808333333,45.0,60.0
5,3.3940917916666664,6.067698624999999,38.0,89.0
6,6.519086791666666,6.682280974999999,42.0,33.0
7,6.3107537916666665,6.907975058333333,57.0,55.0
8,5.894087791666666,7.032974858333333,62.0,99.0
9,5.060755791666667,7.126724708333333,66.0,93.0
10,7.560751791666666,8.428805958333333,62.0,81.0
11,7.977417791666666,8.630194525,47.0,55.0
12,7.560751791666666,8.6458195,59.0,73.0
13,7.144085791666666,9.211790816666666,42.0,47.0
14,8.810749791666666,9.236096333333332,47.0,66.0
15,6.727419791666667,9.309012883333333,35.0,88.0
16,8.394083791666667,9.760401049999999,66.0,90.0
17,9.227415791666667,9.819428733333332,62.0,72.0
18,9.644081791666666,10.1666504,59.0,71.0
19,11.310745791666665,11.944425333333333,45.0,66.0
20,10.060747791666666,12.534702166666666,33.0,74.0
21,10.477413791666667,12.5416466,40.0,44.0
22,11.727411791666666,12.741299058333333,61.0,85.0
23,12.144077791666666,12.928798758333333,45.0,59.0
24,10.894079791666666,13.480881208333333,64.0,85.0
25,12.977409791666666,13.4999784,61.0,56.0
26,12.560743791666667,14.163171783333333,57.0,83.0
27,14.227407791666666,14.338518725,57.0,30.0
28,14.227407791666666,14.987823241666666,62.0,71.0
29,14.644073791666665,15.248239491666666,50.0,67.0
30,15.060739791666666,15.585044508333333,62.0,67.0
31,15.477405791666666,15.902752333333332,50.0,62.0
32,13.394075791666666,16.293376708333334,38.0,88.0
33,15.894071791666667,16.734348224999998,61.0,63.0
34,13.810741791666667,16.746500983333334,45.0,46.0
35,15.060739791666666,17.171847525,66.0,99.0
36,16.310737791666664,17.305527866666665,57.0,49.0
37,17.977401791666665,18.140595975,50.0,58.0
38,16.727403791666667,18.144068191666666,38.0,82.0
39,17.144069791666666,18.223929175,45.0,48.0
40,17.560735791666666,18.616289658333333,62.0,72.0
41,18.810733791666667,19.46871885,42.0,55.0
42,18.394067791666664,19.513857666666667,35.0,73.0
43,19.227399791666667,20.13191223333333,62.0,70.0
44,19.227399791666667,20.137120558333333,66.0,79.0
45,19.644065791666666,20.204828783333333,59.0,61.0
46,20.894063791666667,21.6249654,64.0,55.0
47,20.894063791666667,21.626701508333333,61.0,58.0
48,21.310729791666667,21.966978741666665,45.0,59.0
49,21.727395791666666,22.3124643,61.0,48.0
50,20.894063791666667,22.61454715,57.0,58.0
51,20.060731791666665,23.05378255833333,33.0,77.0
52,22.144061791666665,23.079824183333333,45.0,56.0
53,20.477397791666665,23.213504524999998,40.0,59.0
54,22.560727791666665,23.3749626,61.0,65.0
55,22.560727791666665,23.383643141666667,59.0,71.0
56,21.727395791666666,23.418365308333332,64.0,63.0
57,22.977393791666664,23.479129099999998,57.0,69.0
58,24.227391791666665,24.59371065,62.0,76.0
59,24.227391791666665,24.999959999999998,59.0,69.0
60,24.644057791666665,25.2499596,47.0,73.0
61,23.394059791666667,25.963500125,35.0,74.0
62,25.060723791666664,26.024263916666666,59.0,54.0
63,23.810725791666666,26.029472241666664,42.0,59.0
64,25.477389791666667,26.08502770833333,47.0,66.0
65,25.894055791666666,26.775998825,69.0,60.0
66,25.060723791666664,26.815929316666665,62.0,67.0
67,25.060723791666664,26.826345966666665,66.0,71.0
68,26.310721791666666,26.848915374999997,59.0,55.0
69,27.144053791666664,27.748219491666667,52.0,56.0
70,27.560719791666667,28.071135641666665,61.0,62.0
71,27.977385791666666,28.5207877,52.0,78.0
72,27.560719791666667,28.525996024999998,57.0,68.0
73,28.394051791666666,29.041620199999997,59.0,70.0
74,28.810717791666665,29.23606433333333,52.0,53.0
75,26.727387791666665,29.380161325,45.0,74.0
76,29.227383791666664,29.72043855833333,61.0,79.0
77,27.560719791666667,29.894049391666666,64.0,65.0
78,30.894047791666665,31.37147758333333,62.0,83.0
79,31.519046791666664,31.578074474999998,66.0,16.0
80,31.310713791666664,31.900990625,50.0,67.0
81,29.644049791666664,32.275990025,57.0,61.0
82,31.727379791666664,32.41314258333333,62.0,76.0
83,30.060715791666667,32.74647538333333,38.0,82.0
84,30.477381791666666,32.760364249999995,45.0,50.0
85,32.14404579166666,32.895780699999996,50.0,71.0
86,32.56071179166666,33.41487709166667,62.0,88.0
87,32.97737779166666,33.650987825,57.0,69.0
88,33.81070979166667,34.442653225,49.0,34.0
89,33.39404379166667,34.48952815,42.0,66.0
90,34.22737579166667,34.546819725,54.0,53.0
91,34.22737579166667,35.00168010833333,61.0,90.0
92,31.727379791666664,35.130152124999995,66.0,74.0
93,34.644041791666666,35.144040991666664,57.0,71.0
94,35.477373791666665,35.932234175,54.0,55.0
95,35.060707791666665,36.03466456666666,47.0,69.0
96,35.894039791666664,36.34369185,62.0,72.0
97,35.894039791666664,36.362789041666666,66.0,83.0
98,36.31070579166666,36.85237159166667,59.0,66.0
99,37.14403779166666,37.874939399999995,47.0,54.0
100,36.72737179166666,37.91313378333333,40.0,72.0
101,37.56070379166667,38.35236919166667,55.0,50.0
102,37.56070379166667,38.392299683333334,59.0,67.0
103,37.97736979166667,39.01729868333333,52.0,59.0
104,38.39403579166667,39.37667310833333,33.0,72.0
105,38.810701791666666,39.42875635833333,40.0,44.0
106,39.644033791666665,40.060699791666664,57.0,70.0
107,39.227367791666666,40.060699791666664,61.0,97.0
108,41.31069779166666,41.92528014166666,45.0,71.0
109,41.72736379166666,42.310696191666665,61.0,100.0
110,40.89403179166666,42.51208475833333,57.0,93.0
111,40.477365791666664,42.920070216666666,40.0,61.0
112,40.060699791666664,42.940903516666665,33.0,83.0
113,42.14402979166667,43.31937513333333,45.0,77.0
114,42.56069579166667,43.477360991666664,61.0,96.0
115,42.97736179166667,43.4790971,57.0,83.0
116,44.227359791666665,44.489512149999996,57.0,29.0
117,44.644025791666664,44.947844749999994,50.0,78.0
118,43.810693791666665,44.973886375,45.0,52.0
119,43.394027791666666,44.992983566666666,38.0,77.0
120,44.227359791666665,45.35062188333333,66.0,95.0
121,45.89402379166666,46.242981566666664,47.0,45.0
122,45.47735779166666,46.28985649166666,42.0,67.0
123,45.06069179166666,46.2915926,35.0,69.0
124,45.89402379166666,46.3124259,62.0,60.0
125,46.31068979166666,46.732564116666666,59.0,70.0
126,47.560687791666666,48.46172801666666,57.0,69.0
127,47.977353791666665,48.65790825833333,45.0,66.0
128,48.810685791666664,49.17353243333333,45.0,63.0
129,46.72735579166667,49.362768241666664,33.0,66.0
130,47.14402179166667,49.57283735,40.0,50.0
131,49.22735179166666,50.05373935833333,57.0,82.0
132,49.64401779166666,50.057211575,52.0,62.0
133,48.394019791666665,50.064156008333335,61.0,93.0
134,50.89401579166667,51.44088991666666,62.0,69.0
135,50.06068379166666,51.588459125,35.0,72.0
136,50.47734979166666,51.73082000833333,42.0,56.0
137,51.31068179166667,52.341930141666666,59.0,72.0
138,50.89401579166667,52.650957424999994,66.0,78.0
139,52.144013791666666,52.8957487,42.0,41.0
140,51.727347791666666,52.916582,35.0,67.0
141,52.560679791666665,53.03290125833333,47.0,43.0
142,52.560679791666665,53.44435893333333,62.0,77.0
143,52.977345791666664,53.52769213333333,59.0,60.0
144,53.81067779166666,54.44609344166666,52.0,47.0
145,54.64400979166666,55.34366145,52.0,59.0
146,55.06067579166666,55.72039695833333,61.0,89.0
147,55.47734179166667,55.98081320833333,52.0,68.0
148,53.394011791666664,56.02768813333333,45.0,72.0
149,55.89400779166667,56.775950824999995,64.0,97.0
150,56.310673791666666,56.78810358333333,61.0,100.0
151,54.22734379166666,56.807200775,57.0,83.0
152,57.144005791666665,57.77942144166666,45.0,78.0
153,57.560671791666664,58.347128866666665,54.0,97.0
154,57.97733779166666,58.68393388333333,45.0,63.0
155,58.81066979166666,59.57282135,45.0,51.0
156,56.727339791666665,59.57455745833333,38.0,86.0
157,59.64400179166666,60.01032065,50.0,67.0
158,59.22733579166666,60.057195574999994,54.0,92.0
159,58.39400379166666,60.06414000833333,57.0,88.0
160,60.06066779166667,60.91830530833333,42.0,82.0
161,60.477333791666666,61.020735699999996,54.0,71.0
162,60.893999791666666,61.63184583333333,61.0,88.0
163,61.310665791666665,61.676984649999994,54.0,66.0
164,62.14399779166666,62.72559408333333,42.0,50.0
165,61.727331791666664,62.847121666666666,35.0,74.0
166,62.97732979166666,63.390523574999996,50.0,67.0
167,62.56066379166666,63.418301308333334,54.0,82.0
168,63.81066179166666,65.12836801666667,47.0,59.0
169,64.64399379166666,65.52767293333333,55.0,64.0
170,65.47732579166666,66.46343532499999,47.0,69.0
171,63.39399579166666,66.56065739166667,40.0,72.0
172,65.06065979166667,66.68912940833333,52.0,77.0
173,66.31065779166666,66.755101525,54.0,55.0
174,65.89399179166666,66.755101525,55.0,78.0
175,64.22732779166667,66.77246260833333,59.0,90.0
176,67.56065579166666,68.35579340833333,57.0,76.0
177,68.39398779166666,68.49120985833333,52.0,26.0
178,67.97732179166667,68.60752911666667,45.0,81.0
179,66.72732379166666,69.25162530833333,33.0,78.0
180,67.14398979166667,69.28113915,40.0,39.0
181,68.81065379166667,69.51724988333333,45.0,102.0
182,68.39398779166666,69.91481869166667,61.0,117.0
183,69.64398579166667,70.00856854166666,52.0,93.0
184,69.22731979166666,70.06065179166666,57.0,100.0
185,70.47731779166666,70.95127536666666,50.0,53.0
186,70.68565079166666,70.963428125,54.0,69.0
187,70.89398379166667,71.35058028333333,57.0,55.0
188,71.10231679166667,71.40613574999999,50.0,76.0
189,70.06065179166666,71.666552,38.0,88.0
190,70.26898479166667,71.88356554166667,45.0,69.0
191,71.31064979166666,71.92002381666666,54.0,73.0
192,71.51898279166666,72.00335701666667,57.0,68.0
193,71.72731579166667,72.083218,60.0,69.0
194,72.56064779166667,72.65613375,57.0,20.0
195,72.14398179166666,72.70474478333333,54.0,62.0
196,72.35231479166666,72.70995310833332,45.0,60.0
197,72.76898079166666,72.97210546666666,45.0,63.0
198,71.93564879166667,73.036341475,38.0,58.0
199,72.56064779166667,73.33495210833333,60.0,70.0
200,72.97731379166666,73.39745200833333,54.0,65.0
201,73.18564679166667,73.42175752499999,57.0,69.0
202,73.81064579166666,74.265506175,47.0,70.0
203,74.01897879166667,74.36620045833332,50.0,65.0
204,73.39397979166667,74.93564399166667,35.0,65.0
205,73.60231279166666,75.11272704166666,42.0,47.0
206,74.43564479166666,75.18911580833333,47.0,86.0
207,74.85231079166667,75.53807358333333,50.0,96.0
208,74.64397779166666,75.56064299166667,54.0,79.0
209,74.22731179166666,75.60578180833333,59.0,90.0
210,75.47730979166667,75.97210066666666,47.0,86.0
211,75.68564279166667,76.22383637499999,50.0,74.0
212,75.06064379166666,76.26723908333334,35.0,73.0
213,75.26897679166666,76.29848903333333,42.0,74.0
214,76.31064179166667,76.59536355833333,54.0,93.0
215,75.89397579166666,76.65439124166666,59.0,96.0
216,76.10230879166666,76.68390508333333,47.0,88.0
217,76.51897479166666,76.73425222499999,50.0,76.0
218,77.14397379166667,77.41827890833333,50.0,83.0
219,77.35230679166666,77.619667475,54.0,68.0
220,76.93564079166666,77.63529245,45.0,72.0
221,76.72730779166666,78.18911100833333,38.0,67.0
222,77.97730579166667,78.32626356666667,54.0,69.0
223,77.76897279166667,78.34362465,45.0,66.0
224,78.18563879166666,78.348832975,50.0,81.0
225,77.56063979166666,78.348832975,57.0,82.0
226,78.81063779166666,79.32452585833333,50.0,75.0
227,79.01897079166666,79.400914625,53.0,81.0
228,79.43563679166667,79.598830975,50.0,73.0
229,78.60230479166667,79.70473358333334,45.0,71.0
230,78.39397179166666,79.75855294166666,38.0,81.0
231,79.64396979166666,80.03112195,57.0,70.0
232,79.85230279166666,80.06063579166667,53.0,72.0
233,79.22730379166666,80.06063579166667,60.0,89.0
234,80.47730179166666,80.90785665833333,47.0,75.0
235,80.68563479166666,81.00160650833332,50.0,65.0
236,80.06063579166667,81.59882777499999,35.0,78.0
237,80.26896879166667,81.75681363333332,42.0,86.0
238,81.10230079166666,81.86098013333333,47.0,77.0
239,81.51896679166666,82.23597953333334,50.0,57.0
240,81.31063379166666,82.432159775,54.0,63.0
241,80.89396779166667,82.44778475,59.0,83.0
242,82.14396579166666,82.6457011,47.0,73.0
243,82.35229879166667,82.82452025833332,50.0,58.0
244,81.72729979166667,82.90438124166667,35.0,61.0
245,81.93563279166666,82.92347843333333,42.0,63.0
246,82.97729779166666,83.27417231666666,54.0,88.0
247,82.76896479166666,83.27938064166666,47.0,81.0
248,83.18563079166667,83.33319999999999,50.0,72.0
249,82.56063179166667,83.34535275833333,59.0,86.0
250,83.81062979166666,84.26028185,50.0,79.0
251,84.01896279166667,84.36444834999999,54.0,52.0
252,84.43562879166666,84.65611455,50.0,81.0
253,83.39396379166666,84.92347523333333,38.0,66.0
254,84.22729579166666,84.99465567499999,62.0,71.0
255,83.60229679166666,85.08666941666667,45.0,69.0
256,84.85229479166667,85.1248638,57.0,47.0
257,84.64396179166667,85.15090542499999,54.0,72.0
258,85.89395979166666,85.93562639166666,57.0,25.0
259,85.47729379166667,86.00333461666666,50.0,67.0
260,85.68562679166666,86.025904025,54.0,47.0
261,86.10229279166666,86.2706953,50.0,72.0
262,85.06062779166666,86.44430613333333,38.0,70.0
263,85.89395979166666,86.57972258333334,60.0,68.0
264,85.26896079166666,86.68388908333333,45.0,53.0
265,86.31062579166667,86.69430573333332,54.0,67.0
266,86.51895879166666,86.73770844166667,57.0,71.0
267,87.35229079166666,87.53805438333333,56.0,63.0
268,87.14395779166667,87.63701255833332,52.0,63.0
269,86.93562479166667,87.65437364166667,47.0,69.0
270,87.76895679166667,87.89916491666666,47.0,70.0
271,86.72729179166666,87.93562319166666,40.0,68.0
272,87.56062379166666,88.28458096666667,59.0,92.0
273,87.97728979166666,88.34013643333333,56.0,93.0
274,88.18562279166666,88.39742800833334,52.0,72.0
275,88.81062179166666,89.2290239,47.0,70.0
276,89.01895479166666,89.29499601666666,51.0,71.0
277,88.60228879166667,89.34013483333332,42.0,50.0
278,89.43562079166666,89.59534275833333,42.0,74.0
279,88.39395579166666,89.67867595833333,35.0,61.0
280,89.64395379166666,89.96686994166666,51.0,59.0
281,89.85228679166666,90.01200875833332,47.0,74.0
282,89.22728779166667,90.02416151666667,54.0,82.0
283,90.47728579166666,90.96686834166667,45.0,46.0
284,90.68561879166666,91.05540986666666,49.0,53.0
285,90.06061979166667,91.557145175,33.0,68.0
286,90.26895279166666,91.69082551666666,40.0,53.0
287,90.89395179166667,91.69603384166666,57.0,55.0
288,91.51895079166667,91.70471438333333,52.0,60.0
289,91.10228479166666,91.70992270833332,45.0,67.0
290,91.31061779166666,91.74985319999999,49.0,55.0
291,92.35228279166667,92.59533795833333,51.0,51.0
292,91.93561679166666,92.671726725,42.0,66.0
293,92.14394979166666,92.71512943333333,47.0,57.0
294,92.76894879166666,92.91999021666666,42.0,61.0
295,91.72728379166666,93.03457336666666,35.0,59.0
296,92.56061579166666,93.32623956666666,54.0,107.0
297,93.18561479166667,93.380058925,47.0,70.0
298,92.97728179166666,93.38700335833333,51.0,92.0
299,93.81061379166667,94.21859925,45.0,66.0
300,94.01894679166666,94.38179343333333,49.0,62.0
301,93.39394779166666,94.96512583333333,33.0,69.0
302,93.60228079166666,95.0415146,40.0,52.0
303,94.43561279166666,95.09186174166666,45.0,66.0
304,94.85227879166666,95.192556025,52.0,54.0
305,94.64394579166667,95.234222625,49.0,63.0
306,94.22727979166666,95.28977809166666,57.0,59.0
307,95.47727779166667,96.02241580833334,45.0,73.0
308,95.68561079166666,96.06581851666667,49.0,56.0
309,96.10227679166667,96.4998456,45.0,67.0
310,95.26894479166666,96.52241500833333,40.0,45.0
311,95.06061179166666,96.53283165833332,33.0,63.0
312,96.31060979166666,96.692553625,49.0,66.0
313,96.51894279166666,96.69428973333333,52.0,63.0
314,95.89394379166666,96.69776195,57.0,63.0
315,97.14394179166666,97.61789936666666,50.0,53.0
316,97.35227479166666,97.63005212499999,54.0,69.0
317,97.56060779166667,98.01720428333333,57.0,55.0
318,97.76894079166667,98.07275974999999,50.0,76.0
319,96.72727579166666,98.333176,38.0,88.0
320,96.93560879166667,98.55018954166667,45.0,69.0
321,97.97727379166666,98.58664781666666,54.0,73.0
322,98.18560679166666,98.66998101666667,57.0,68.0
323,98.39393979166667,98.749842,60.0,69.0
324,99.22727179166667,99.32275775,57.0,20.0
325,98.81060579166666,99.37136878333332,54.0,62.0
326,99.01893879166666,99.37657710833332,45.0,60.0
327,99.43560479166666,99.63872946666666,45.0,63.0
328,98.60227279166666,99.702965475,38.0,58.0
329,99.22727179166667,100.00157610833332,60.0,70.0
330,99.64393779166666,100.06407600833333,54.0,65.0
331,99.85227079166667,100.08838152499999,57.0,69.0
332,100.47726979166666,100.932130175,47.0,70.0
333,100.68560279166667,101.03282445833332,50.0,65.0
334,100.06060379166667,101.60226799166666,35.0,65.0
335,100.26893679166666,101.77935104166666,42.0,47.0
336,101.10226879166666,101.85573980833333,47.0,86.0
337,101.51893479166667,102.20469758333333,50.0,96.0
338,101.31060179166666,102.22726699166667,54.0,79.0
339,100.89393579166666,102.27240580833333,59.0,90.0
340,102.14393379166667,102.63872466666666,47.0,86.0
341,102.35226679166666,102.89046037499999,50.0,74.0
342,101.72726779166666,102.93386308333334,35.0,73.0
343,101.93560079166666,102.96511303333332,42.0,74.0
344,102.97726579166667,103.26198755833333,54.0,93.0
345,102.56059979166666,103.32101524166666,59.0,96.0
346,102.76893279166666,103.35052908333333,47.0,88.0
347,103.18559879166666,103.40087622499999,50.0,76.0
348,103.81059779166667,104.08490290833333,50.0,83.0
349,104.01893079166666,104.286291475,54.0,68.0
350,103.60226479166666,104.30191645,45.0,72.0
351,103.39393179166666,104.85573500833333,38.0,67.0
352,104.64392979166666,104.99288756666667,54.0,69.0
353,104.43559679166667,105.01024865,45.0,66.0
354,104.85226279166666,105.01545697499999,50.0,81.0
355,104.22726379166666,105.01545697499999,57.0,82.0
356,105.47726179166666,105.99114985833333,50.0,75.0
357,105.68559479166666,106.067538625,53.0,81.0
358,106.10226079166667,106.265454975,50.0,73.0
359,105.26892879166667,106.37135758333334,45.0,71.0
360,105.06059579166666,106.42517694166666,38.0,81.0
361,106.31059379166666,106.69774595,57.0,70.0
362,106.51892679166666,106.72725979166667,53.0,72.0
363,105.89392779166666,106.72725979166667,60.0,89.0
364,107.14392579166666,107.57448065833333,47.0,75.0
365,107.35225879166666,107.66823050833332,50.0,65.0
366,106.72725979166667,108.26545177499999,35.0,78.0
367,106.93559279166666,108.42343763333332,42.0,86.0
368,107.76892479166666,108.52760413333333,47.0,77.0
369,108.18559079166666,108.90260353333333,50.0,57.0
370,107.97725779166666,109.098783775,54.0,63.0
371,107.56059179166667,109.11440875,59.0,83.0
372,108.81058979166666,109.3123251,47.0,73.0
373,109.01892279166667,109.49114425833332,50.0,58.0
374,108.39392379166667,109.57100524166667,35.0,61.0
375,108.60225679166666,109.59010243333333,42.0,63.0
376,109.64392179166666,109.94079631666666,54.0,88.0
377,109.43558879166666,109.94600464166666,47.0,81.0
378,109.85225479166667,109.99982399999999,50.0,72.0
379,109.22725579166666,110.01197675833333,59.0,86.0
380,110.47725379166666,110.92690585,50.0,79.0
381,110.68558679166667,111.03107234999999,54.0,52.0
382,111.10225279166666,111.32273855,50.0,81.0
383,110.06058779166666,111.59009923333333,38.0,66.0
384,110.89391979166666,111.66127967499999,62.0,71.0
385,110.26892079166666,111.75329341666666,45.0,69.0
386,111.51891879166666,111.7914878,57.0,47.0
387,111.31058579166667,111.81752942499999,54.0,72.0
388,112.56058379166666,112.60225039166666,57.0,25.0
389,112.14391779166667,112.66995861666666,50.0,67.0
390,112.35225079166666,112.692528025,54.0,47.0
391,112.76891679166665,112.9373193,50.0,72.0
392,111.72725179166666,113.11093013333333,38.0,70.0
393,112.56058379166666,113.24634658333333,60.0,68.0
394,111.93558479166666,113.35051308333333,45.0,53.0
395,112.97724979166667,113.36092973333332,54.0,67.0
396,113.18558279166666,113.40433244166667,57.0,71.0
397,114.01891479166666,114.20467838333333,56.0,63.0
398,113.81058179166666,114.30363655833332,52.0,63.0
399,113.60224879166667,114.32099764166666,47.0,69.0
400,114.43558079166667,114.56578891666666,47.0,70.0
401,113.39391579166666,114.60224719166666,40.0,68.0
402,114.22724779166666,114.95120496666667,59.0,92.0
403,114.64391379166666,115.00676043333333,56.0,93.0
404,114.85224679166666,115.06405200833333,52.0,72.0
405,115.47724579166666,115.8956479,47.0,70.0
406,115.68557879166666,115.96162001666666,51.0,71.0
407,115.26891279166666,116.00675883333332,42.0,50.0
408,116.10224479166666,116.26196675833333,42.0,74.0
409,115.06057979166665,116.34529995833333,35.0,61.0
410,116.31057779166666,116.63349394166666,51.0,59.0
411,116.51891079166666,116.67863275833332,47.0,74.0
412,115.89391179166667,116.69078551666666,54.0,82.0
413,117.14390979166666,117.63349234166667,45.0,76.0
414,117.35224279166665,117.71856165,49.0,70.0
415,116.72724379166667,118.28279685833333,33.0,82.0
416,116.93557679166666,118.44078271666666,40.0,53.0
417,117.76890879166666,118.47203266666666,45.0,72.0
418,117.56057579166666,118.72376837499999,57.0,58.0
419,117.97724179166666,118.87828201666666,49.0,59.0
420,118.18557479166667,119.27411471666666,52.0,55.0
421,118.81057379166666,119.31925353333332,45.0,66.0
422,119.01890679166667,119.390433975,49.0,59.0
423,118.39390779166666,119.63522524999999,33.0,65.0
424,118.60224079166666,119.6456419,40.0,50.0
425,119.22723979166666,119.98939134999999,57.0,67.0
426,119.43557279166666,120.02237740833333,45.0,65.0
427,119.85223879166666,120.03105794999999,52.0,72.0
428,119.64390579166665,120.03279405833332,49.0,73.0
429,120.47723779166667,120.84008443333333,50.0,86.0
430,120.68557079166666,120.9581398,54.0,69.0
431,120.26890479166666,120.98418142499999,45.0,68.0
432,120.06057179166666,121.62306929166667,38.0,66.0
433,121.10223679166666,121.72723579166666,45.0,54.0
434,121.51890279166666,121.75327741666666,50.0,73.0
435,121.31056979166667,121.81056899166666,54.0,72.0
436,120.89390379166666,121.82619396666666,57.0,90.0
437,122.14390179166666,122.46508183333333,50.0,68.0
438,122.35223479166666,122.546678925,54.0,48.0
439,121.93556879166665,122.69424813333333,45.0,65.0
440,122.76890079166667,122.900845025,45.0,49.0
441,121.72723579166666,122.96681714166667,38.0,53.0
442,122.56056779166666,123.338344325,57.0,85.0
443,122.97723379166666,123.36091373333333,54.0,82.0
444,123.18556679166666,123.40605255,50.0,62.0
445,123.81056579166666,124.25674563333332,45.0,82.0
446,124.01889879166666,124.400842625,49.0,61.0
447,124.43556479166666,124.78278645833333,45.0,78.0
448,124.22723179166667,124.9164668,57.0,59.0
449,123.39389979166666,124.93382788333332,33.0,69.0
450,123.60223279166667,125.08660541666666,40.0,42.0
451,124.64389779166666,125.59875737499999,49.0,62.0
452,125.47722979166666,125.90257633333333,45.0,61.0
453,124.85223079166666,125.92167352499999,52.0,68.0
454,125.68556279166665,126.07271494999999,49.0,60.0
455,126.10222879166666,126.25674243333333,45.0,73.0
456,125.26889679166666,126.25847854166666,40.0,44.0
457,125.06056379166667,126.26021465,33.0,62.0
458,125.89389579166667,126.598755775,57.0,69.0
459,126.31056179166666,126.6456307,49.0,99.0
460,126.51889479166667,126.69076951666666,52.0,66.0
461,127.14389379166666,127.59701806666666,43.0,73.0
462,126.72722779166666,127.87305929166666,31.0,81.0
463,127.35222679166667,127.88521204999999,50.0,55.0
464,126.93556079166666,127.90604535,38.0,73.0
465,127.76889279166666,128.33660021666665,43.0,77.0
466,127.97722579166665,128.34701686666665,55.0,69.0
467,127.56055979166666,128.37653070833332,59.0,92.0
468,128.18555879166667,128.39389179166665,50.0,73.0
469,128.81055779166667,129.16298778333334,47.0,81.0
470,129.01889079166665,129.286251475,51.0,82.0
471,128.60222479166666,129.37305689166666,42.0,68.0
472,129.43555679166667,129.65083422499998,42.0,69.0
473,128.39389179166665,129.765417375,35.0,78.0
474,129.64388979166665,129.97548648333333,51.0,69.0
475,129.22722379166666,129.98763924166667,54.0,99.0
476,129.85222279166666,130.025833625,47.0,82.0
477,130.47722179166666,130.9372905,41.0,48.0
478,130.68555479166665,131.03451256666665,53.0,78.0
479,131.10222079166667,131.49805349166667,41.0,59.0
480,131.51888679166666,131.84006683333334,53.0,82.0
481,131.31055379166665,132.00152490833332,57.0,59.0
482,130.89388779166666,132.17166352499999,60.0,102.0
483,131.93555279166665,132.40777425833332,53.0,63.0
484,132.14388579166666,132.61263504166666,57.0,51.0
485,131.72721979166667,132.68555159166667,41.0,78.0
486,130.26888879166665,132.89388459166665,36.0,69.0
487,130.06055579166667,132.92687064999998,29.0,92.0
488,132.76888479166666,132.9997872,41.0,82.0
489,132.97721779166665,133.35916162499998,57.0,85.0
490,133.18555079166666,133.36436995,53.0,85.0
491,132.56055179166665,133.37131438333333,60.0,99.0
492,133.81054979166666,134.28797958333334,52.0,66.0
493,134.01888279166667,134.37652110833332,56.0,66.0
494,134.43554879166666,134.67860395833333,52.0,82.0
495,133.39388379166667,134.90603414999998,40.0,81.0
496,133.60221679166665,135.15429764166666,47.0,58.0
497,134.22721579166665,135.515408175,64.0,67.0
498,134.64388179166667,135.55013034166666,56.0,69.0
499,134.85221479166665,135.55186645,59.0,55.0
500,135.47721379166666,135.9581158,52.0,76.0
501,135.68554679166667,136.02929624166666,56.0,75.0
502,136.10221279166666,136.37130958333333,52.0,74.0
503,135.26888079166665,136.59179534166665,47.0,50.0
504,136.31054579166667,136.66818410833332,56.0,97.0
505,135.06054779166666,136.671656325,40.0,70.0
506,136.51887879166665,136.70464238333332,59.0,73.0
507,135.89387979166665,136.744572875,64.0,79.0
508,137.97720979166667,138.62477819999998,50.0,62.0
509,137.56054379166667,138.775819625,57.0,69.0
510,137.56054379166667,138.85394449999998,62.0,74.0
511,138.81054179166665,139.14908291666666,50.0,70.0
512,137.14387779166665,139.35567980833332,45.0,60.0
513,136.72721179166666,139.400818625,38.0,89.0
514,139.85220679166667,140.015400975,42.0,33.0
515,139.64387379166666,140.24109505833331,57.0,55.0
516,139.22720779166667,140.36609485833333,62.0,99.0
517,138.39387579166666,140.45984470833332,66.0,93.0
518,140.89387179166667,141.76192595833334,62.0,81.0
519,141.31053779166666,141.963314525,47.0,55.0
520,140.89387179166667,141.9789395,59.0,73.0
521,140.47720579166665,142.54491081666666,42.0,47.0
522,142.14386979166667,142.56921633333332,47.0,66.0
523,140.06053979166666,142.64213288333332,35.0,88.0
524,141.72720379166665,143.09352105,66.0,90.0
525,142.56053579166667,143.15254873333333,62.0,72.0
526,142.97720179166666,143.4997704,59.0,71.0
527,144.64386579166666,145.27754533333334,45.0,66.0
528,143.39386779166665,145.86782216666666,33.0,74.0
529,143.81053379166667,145.8747666,40.0,44.0
530,145.06053179166665,146.07441905833332,61.0,85.0
531,145.47719779166667,146.26191875833334,45.0,59.0
532,144.22719979166666,146.81400120833334,64.0,85.0
533,146.31052979166665,146.83309839999998,61.0,56.0
534,145.89386379166666,147.49629178333333,57.0,83.0
535,147.56052779166666,147.67163872499998,57.0,30.0
536,147.56052779166666,148.32094324166667,62.0,71.0
537,147.97719379166665,148.58135949166666,50.0,67.0
538,148.39385979166667,148.91816450833332,62.0,67.0
539,148.81052579166666,149.23587233333333,50.0,62.0
540,146.72719579166667,149.62649670833332,38.0,88.0
541,149.22719179166666,150.067468225,61.0,63.0
542,147.14386179166667,150.0796209833333,45.0,46.0
543,148.39385979166667,150.50496752499998,66.0,99.0
544,149.64385779166665,150.63864786666667,57.0,49.0
545,151.31052179166667,151.473715975,50.0,58.0
546,150.06052379166667,151.47718819166667,38.0,82.0
547,150.47718979166666,151.557049175,45.0,48.0
548,150.89385579166665,151.94940965833334,62.0,72.0
549,152.14385379166666,152.80183885,42.0,55.0
550,151.72718779166667,152.84697766666665,35.0,73.0
551,152.56051979166665,153.46503223333332,62.0,70.0
552,152.56051979166665,153.47024055833333,66.0,79.0
553,152.97718579166667,153.53794878333332,59.0,61.0
554,154.22718379166665,154.9580854,64.0,55.0
555,154.22718379166665,154.95982150833333,61.0,58.0
556,154.64384979166667,155.30009874166666,45.0,59.0
557,155.06051579166666,155.6455843,61.0,48.0
558,154.22718379166665,155.94766715,57.0,58.0
559,153.39385179166666,156.38690255833333,33.0,77.0
560,155.47718179166665,156.41294418333334,45.0,56.0
561,153.81051779166665,156.546624525,40.0,59.0
562,155.89384779166667,156.70808259999998,61.0,65.0
563,155.89384779166667,156.71676314166666,59.0,71.0
564,155.06051579166666,156.75148530833332,64.0,63.0
565,156.31051379166666,156.8122491,57.0,69.0
566,157.56051179166667,157.92683065,62.0,76.0
567,157.56051179166667,158.33308,59.0,69.0
568,157.97717779166666,158.5830796,47.0,73.0
569,156.72717979166666,159.296620125,35.0,74.0
570,158.39384379166665,159.35738391666666,59.0,54.0
571,157.14384579166665,159.36259224166665,42.0,59.0
572,158.81050979166665,159.41814770833332,47.0,66.0
573,159.22717579166667,160.109118825,69.0,60.0
574,158.39384379166665,160.14904931666666,62.0,67.0
575,158.39384379166665,160.15946596666666,66.0,71.0
576,159.64384179166666,160.182035375,59.0,55.0
577,160.47717379166667,161.08133949166665,52.0,56.0
578,160.89383979166666,161.40425564166665,61.0,62.0
579,161.31050579166666,161.85390769999998,52.0,78.0
580,160.89383979166666,161.859116025,57.0,68.0
581,161.72717179166665,162.3747402,59.0,70.0
582,162.14383779166667,162.56918433333334,52.0,53.0
583,160.06050779166665,162.713281325,45.0,74.0
584,162.56050379166666,163.05355855833332,61.0,79.0
585,160.89383979166666,163.22716939166665,64.0,65.0
586,164.22716779166666,164.70459758333334,62.0,83.0
587,164.85216679166666,164.911194475,66.0,16.0
588,164.64383379166665,165.234110625,50.0,67.0
589,162.97716979166665,165.60911002499998,57.0,61.0
590,165.06049979166667,165.74626258333333,62.0,76.0
591,163.39383579166665,166.07959538333333,38.0,82.0
592,163.81050179166667,166.09348425,45.0,50.0
593,165.47716579166666,166.2289007,50.0,71.0
594,165.89383179166666,166.74799709166666,62.0,88.0
595,166.31049779166665,166.984107825,57.0,69.0
596,167.14382979166666,167.775773225,49.0,34.0
597,166.72716379166667,167.82264815,42.0,66.0
598,167.56049579166665,167.87993972499999,54.0,53.0
599,167.56049579166665,168.33480010833333,61.0,90.0
600,165.06049979166667,168.463272125,66.0,74.0
601,167.97716179166665,168.47716099166666,57.0,71.0
602,168.81049379166666,169.265354175,54.0,55.0
603,168.39382779166667,169.36778456666667,47.0,69.0
604,169.22715979166665,169.67681184999998,62.0,72.0
605,169.22715979166665,169.69590904166665,66.0,83.0
606,169.64382579166667,170.18549159166665,59.0,66.0
607,170.47715779166666,171.2080594,47.0,54.0
608,170.06049179166666,171.24625378333332,40.0,72.0
609,170.89382379166665,171.68548919166665,55.0,50.0
610,170.89382379166665,171.7254196833333,59.0,67.0
611,171.31048979166667,172.35041868333332,52.0,59.0
612,171.72715579166666,172.70979310833332,33.0,72.0
613,172.14382179166665,172.76187635833332,40.0,44.0
614,172.97715379166667,173.39381979166666,57.0,70.0
615,172.56048779166665,173.39381979166666,61.0,97.0
616,174.64381779166666,175.25840014166667,45.0,71.0
617,175.06048379166666,175.64381619166664,61.0,100.0
618,174.22715179166667,175.84520475833332,57.0,93.0
619,173.81048579166665,176.25319021666667,40.0,61.0
620,173.39381979166666,176.27402351666666,33.0,83.0
621,175.47714979166665,176.65249513333333,45.0,77.0
622,175.89381579166667,176.81048099166665,61.0,96.0
623,176.31048179166666,176.8122171,57.0,83.0
624,177.56047979166667,177.82263215,57.0,29.0
625,177.97714579166666,178.28096474999998,50.0,78.0
626,177.14381379166664,178.307006375,45.0,52.0
627,176.72714779166665,178.32610356666666,38.0,77.0
628,177.56047979166667,178.6837418833333,66.0,95.0
629,179.22714379166666,179.57610156666667,47.0,45.0
630,178.81047779166667,179.62297649166666,42.0,67.0
631,178.39381179166665,179.62471259999998,35.0,69.0
632,179.22714379166666,179.6455459,62.0,60.0
633,179.64380979166665,180.06568411666666,59.0,70.0
634,180.89380779166666,181.79484801666666,57.0,69.0
635,181.31047379166665,181.99102825833333,45.0,66.0
636,182.14380579166667,182.50665243333333,45.0,63.0
637,180.06047579166665,182.69588824166667,33.0,66.0
638,180.47714179166667,182.90595735,40.0,50.0
639,182.56047179166666,183.3868593583333,57.0,82.0
640,182.97713779166665,183.390331575,52.0,62.0
641,181.72713979166664,183.39727600833334,61.0,93.0
642,184.22713579166665,184.77400991666667,62.0,69.0
643,183.39380379166667,184.921579125,35.0,72.0
644,183.81046979166666,185.06394000833333,42.0,56.0
645,184.64380179166665,185.67505014166665,59.0,72.0
646,184.22713579166665,185.98407742499998,66.0,78.0
647,185.47713379166666,186.2288687,42.0,41.0
648,185.06046779166667,186.24970199999998,35.0,67.0
649,185.89379979166665,186.36602125833332,47.0,43.0
650,185.89379979166665,186.77747893333333,62.0,77.0
651,186.31046579166664,186.86081213333333,59.0,60.0
652,187.14379779166666,187.77921344166666,52.0,47.0
653,187.97712979166667,188.67678145,52.0,59.0
654,188.39379579166666,189.05351695833332,61.0,89.0
655,188.81046179166665,189.31393320833334,52.0,68.0
656,186.72713179166666,189.36080813333334,45.0,72.0
657,189.22712779166665,190.109070825,64.0,97.0
658,189.64379379166667,190.12122358333332,61.0,100.0
659,187.56046379166665,190.140320775,57.0,83.0
660,190.47712579166665,191.11254144166665,45.0,78.0
661,190.89379179166667,191.68024886666666,54.0,97.0
662,191.31045779166666,192.01705388333332,45.0,63.0
663,192.14378979166665,192.90594134999998,45.0,51.0
664,190.06045979166666,192.90767745833332,38.0,86.0
665,192.97712179166666,193.34344065,50.0,67.0
666,192.56045579166667,193.390315575,54.0,92.0
667,191.72712379166666,193.39726000833332,57.0,88.0
668,193.39378779166665,194.25142530833332,42.0,82.0
669,193.81045379166665,194.3538557,54.0,71.0
670,194.22711979166667,194.96496583333334,61.0,88.0
671,194.64378579166666,195.01010465,54.0,66.0
672,195.47711779166667,196.0587140833333,42.0,50.0
673,195.06045179166665,196.18024166666666,35.0,74.0
674,196.31044979166666,196.72364357499998,50.0,67.0
675,195.89378379166666,196.75142130833333,54.0,82.0
676,197.14378179166667,198.46148801666666,47.0,59.0
677,197.97711379166665,198.86079293333333,55.0,64.0
678,198.81044579166667,199.79655532499999,47.0,69.0
679,196.72711579166665,199.89377739166665,40.0,72.0
680,198.39377979166665,200.02224940833332,52.0,77.0
681,199.64377779166665,200.088221525,54.0,55.0
682,199.22711179166666,200.088221525,55.0,78.0
683,197.56044779166666,200.10558260833332,59.0,90.0
684,200.89377579166666,201.68891340833332,57.0,76.0
685,201.72710779166667,201.82432985833333,52.0,26.0
686,201.31044179166665,201.94064911666666,45.0,81.0
687,200.06044379166667,202.5847453083333,33.0,78.0
688,200.47710979166666,202.61425914999998,40.0,39.0
689,202.14377379166666,202.85036988333331,45.0,102.0
690,201.72710779166667,203.24793869166666,61.0,117.0
691,202.97710579166665,203.34168854166666,52.0,93.0
692,202.56043979166665,203.39377179166667,57.0,100.0
693,203.81043779166666,204.28439536666664,50.0,53.0
694,204.01877079166667,204.296548125,54.0,69.0
695,204.22710379166665,204.68370028333334,57.0,55.0
696,204.43543679166666,204.73925574999998,50.0,76.0
697,203.39377179166667,204.999672,38.0,88.0
698,203.60210479166665,205.21668554166666,45.0,69.0
699,204.64376979166667,205.25314381666666,54.0,73.0
700,204.85210279166665,205.33647701666666,57.0,68.0
701,205.06043579166666,205.416338,60.0,69.0
702,205.89376779166665,205.98925375,57.0,20.0
703,205.47710179166666,206.03786478333333,54.0,62.0
704,205.68543479166667,206.04307310833332,45.0,60.0
705,206.10210079166666,206.30522546666666,45.0,63.0
706,205.26876879166664,206.36946147499998,38.0,58.0
707,205.89376779166665,206.66807210833332,60.0,70.0
708,206.31043379166667,206.73057200833333,54.0,65.0
709,206.51876679166665,206.75487752499998,57.0,69.0
710,207.14376579166665,207.598626175,47.0,70.0
711,207.35209879166666,207.69932045833332,50.0,65.0
712,206.72709979166666,208.26876399166665,35.0,65.0
713,206.93543279166667,208.44584704166667,42.0,47.0
714,207.76876479166665,208.52223580833333,47.0,86.0
715,208.18543079166665,208.87119358333334,50.0,96.0
716,207.97709779166667,208.89376299166665,54.0,79.0
717,207.56043179166664,208.93890180833333,59.0,90.0
718,208.81042979166665,209.30522066666666,47.0,86.0
719,209.01876279166666,209.556956375,50.0,74.0
720,208.39376379166666,209.60035908333333,35.0,73.0
721,208.60209679166667,209.63160903333332,42.0,74.0
722,209.64376179166666,209.9284835583333,54.0,93.0
723,209.22709579166667,209.98751124166665,59.0,96.0
724,209.43542879166665,210.01702508333332,47.0,88.0
725,209.85209479166664,210.06737222499999,50.0,76.0
726,210.47709379166665,210.75139890833333,50.0,83.0
727,210.68542679166666,210.95278747499998,54.0,68.0
728,210.26876079166666,210.96841245,45.0,72.0
729,210.06042779166665,211.52223100833334,38.0,67.0
730,211.31042579166666,211.65938356666666,54.0,69.0
731,211.10209279166665,211.67674465,45.0,66.0
732,211.51875879166667,211.681952975,50.0,81.0
733,210.89375979166667,211.681952975,57.0,82.0
734,212.14375779166664,212.65764585833332,50.0,75.0
735,212.35209079166665,212.734034625,53.0,81.0
736,212.76875679166665,212.93195097499998,50.0,73.0
737,211.93542479166666,213.03785358333332,45.0,71.0
738,211.72709179166665,213.09167294166664,38.0,81.0
739,212.97708979166666,213.36424194999998,57.0,70.0
740,213.18542279166667,213.39375579166665,53.0,72.0
741,212.56042379166666,213.39375579166665,60.0,89.0
742,213.81042179166667,214.24097665833332,47.0,75.0
743,214.01875479166665,214.33472650833332,50.0,65.0
744,213.39375579166665,214.931947775,35.0,78.0
745,213.60208879166666,215.08993363333332,42.0,86.0
746,214.43542079166664,215.19410013333334,47.0,77.0
747,214.85208679166666,215.56909953333331,50.0,57.0
748,214.64375379166665,215.76527977499998,54.0,63.0
749,214.22708779166666,215.78090475,59.0,83.0
750,215.47708579166667,215.97882109999998,47.0,73.0
751,215.68541879166665,216.15764025833332,50.0,58.0
752,215.06041979166665,216.23750124166665,35.0,61.0
753,215.26875279166666,216.25659843333332,42.0,63.0
754,216.31041779166665,216.60729231666664,54.0,88.0
755,216.10208479166667,216.61250064166666,47.0,81.0
756,216.51875079166666,216.66631999999998,50.0,72.0
757,215.89375179166666,216.67847275833333,59.0,86.0
758,217.14374979166666,217.59340185,50.0,79.0
759,217.35208279166665,217.69756834999998,54.0,52.0
760,217.76874879166667,217.98923455,50.0,81.0
761,216.72708379166664,218.25659523333331,38.0,66.0
762,217.56041579166666,218.327775675,62.0,71.0
763,216.93541679166665,218.41978941666665,45.0,69.0
764,218.18541479166666,218.4579838,57.0,47.0
765,217.97708179166665,218.484025425,54.0,72.0
766,219.22707979166665,219.26874639166667,57.0,25.0
767,218.81041379166666,219.33645461666666,50.0,67.0
768,219.01874679166664,219.359024025,54.0,47.0
769,219.43541279166666,219.60381529999998,50.0,72.0
770,218.39374779166667,219.77742613333334,38.0,70.0
771,219.22707979166665,219.91284258333332,60.0,68.0
772,218.60208079166665,220.01700908333333,45.0,53.0
773,219.64374579166665,220.02742573333333,54.0,67.0
774,219.85207879166666,220.07082844166666,57.0,71.0
775,220.68541079166667,220.8711743833333,56.0,63.0
776,220.47707779166666,220.97013255833332,52.0,63.0
777,220.26874479166665,220.98749364166665,47.0,69.0
778,221.10207679166666,221.23228491666666,47.0,70.0
779,220.06041179166667,221.26874319166666,40.0,68.0
780,220.89374379166665,221.61770096666666,59.0,92.0
781,221.31040979166664,221.67325643333334,56.0,93.0
782,221.51874279166665,221.73054800833333,52.0,72.0
783,222.14374179166666,222.5621439,47.0,70.0
784,222.35207479166667,222.62811601666667,51.0,71.0
785,221.93540879166665,222.67325483333332,42.0,50.0
786,222.76874079166666,222.92846275833332,42.0,74.0
787,221.72707579166666,223.01179595833332,35.0,61.0
788,222.97707379166667,223.29998994166667,51.0,59.0
789,223.18540679166665,223.34512875833332,47.0,74.0
790,222.56040779166665,223.35728151666666,54.0,82.0
791,223.81040579166665,224.29998834166665,45.0,46.0
792,224.01873879166666,224.38852986666666,49.0,53.0
793,223.39373979166666,224.890265175,33.0,68.0
794,223.60207279166664,225.02394551666666,40.0,53.0
795,224.22707179166665,225.02915384166667,57.0,55.0
796,224.85207079166665,225.03783438333332,52.0,60.0
797,224.43540479166666,225.04304270833333,45.0,67.0
798,224.64373779166667,225.0829732,49.0,55.0
799,225.68540279166666,225.92845795833333,51.0,51.0
800,225.26873679166667,226.004846725,42.0,66.0
801,225.47706979166665,226.04824943333332,47.0,57.0
802,226.10206879166665,226.25311021666667,42.0,61.0
803,225.06040379166666,226.36769336666666,35.0,59.0
804,225.89373579166664,226.65935956666667,54.0,107.0
805,226.51873479166665,226.713178925,47.0,70.0
806,226.31040179166666,226.72012335833332,51.0,92.0
807,227.14373379166665,227.55171925,45.0,66.0
808,227.35206679166666,227.71491343333332,49.0,62.0
809,226.72706779166666,228.2982458333333,33.0,69.0
810,226.93540079166667,228.37463459999998,40.0,52.0
811,227.76873279166665,228.42498174166667,45.0,66.0
812,228.18539879166664,228.525676025,52.0,54.0
813,227.97706579166666,228.56734262499998,49.0,63.0
814,227.56039979166667,228.62289809166666,57.0,59.0
815,228.81039779166665,229.35553580833331,45.0,73.0
816,229.01873079166666,229.39893851666665,49.0,56.0
817,229.43539679166665,229.8329656,45.0,67.0
818,228.60206479166666,229.85553500833333,40.0,45.0
819,228.39373179166665,229.86595165833333,33.0,63.0
820,229.64372979166666,230.025673625,49.0,66.0
821,229.85206279166667,230.02740973333331,52.0,63.0
822,229.22706379166667,230.03088194999998,57.0,63.0
823,230.47706179166664,230.95101936666666,50.0,53.0
824,230.68539479166665,230.963172125,54.0,69.0
825,230.89372779166666,231.35032428333332,57.0,55.0
826,231.10206079166664,231.40587975,50.0,76.0
827,230.06039579166665,231.666296,38.0,88.0
828,230.26872879166666,231.88330954166665,45.0,69.0
829,231.31039379166666,231.91976781666665,54.0,73.0
830,231.51872679166667,232.00310101666665,57.0,68.0
831,231.72705979166665,232.08296199999998,60.0,69.0
832,232.56039179166666,232.65587775,57.0,20.0
833,232.14372579166667,232.70448878333332,54.0,62.0
834,232.35205879166665,232.70969710833333,45.0,60.0
835,232.76872479166664,232.97184946666667,45.0,63.0
836,231.93539279166666,233.036085475,38.0,58.0
837,232.56039179166666,233.33469610833333,60.0,70.0
838,232.97705779166665,233.3971960083333,54.0,65.0
839,233.18539079166666,233.421501525,57.0,69.0
840,233.81038979166667,234.26525017499998,47.0,70.0
841,234.01872279166665,234.36594445833333,50.0,65.0
842,233.39372379166664,234.93538799166666,35.0,65.0
843,233.60205679166666,235.11247104166665,42.0,47.0
844,234.43538879166667,235.18885980833332,47.0,86.0
845,234.85205479166666,235.53781758333332,50.0,96.0
846,234.64372179166665,235.56038699166666,54.0,79.0
847,234.22705579166666,235.6055258083333,59.0,90.0
848,235.47705379166666,235.97184466666667,47.0,86.0
849,235.68538679166664,236.22358037499998,50.0,74.0
850,235.06038779166664,236.26698308333332,35.0,73.0
851,235.26872079166665,236.29823303333333,42.0,74.0
852,236.31038579166665,236.59510755833332,54.0,93.0
853,235.89371979166665,236.65413524166667,59.0,96.0
854,236.10205279166667,236.68364908333334,47.0,88.0
855,236.51871879166666,236.733996225,50.0,76.0
856,237.14371779166666,237.4180229083333,50.0,83.0
857,237.35205079166664,237.619411475,54.0,68.0
858,236.93538479166665,237.63503645,45.0,72.0
859,236.72705179166667,238.18885500833332,38.0,67.0
860,237.97704979166664,238.32600756666665,54.0,69.0
861,237.76871679166666,238.34336865,45.0,66.0
862,238.18538279166665,238.348576975,50.0,81.0
863,237.56038379166665,238.348576975,57.0,82.0
864,238.81038179166666,239.3242698583333,50.0,75.0
865,239.01871479166667,239.40065862499998,53.0,81.0
866,239.43538079166666,239.598574975,50.0,73.0
867,238.60204879166665,239.70447758333333,45.0,71.0
868,238.39371579166666,239.75829694166666,38.0,81.0
869,239.64371379166664,240.03086595,57.0,70.0
870,239.85204679166665,240.06037979166666,53.0,72.0
871,239.22704779166665,240.06037979166666,60.0,89.0
872,240.47704579166665,240.9076006583333,47.0,75.0
873,240.68537879166666,241.00135050833333,50.0,65.0
874,240.06037979166666,241.59857177499998,35.0,78.0
875,240.26871279166664,241.75655763333333,42.0,86.0
876,241.10204479166666,241.86072413333332,47.0,77.0
877,241.51871079166665,242.23572353333333,50.0,57.0
878,241.31037779166667,242.431903775,54.0,63.0
879,240.89371179166665,242.44752874999998,59.0,83.0
880,242.14370979166665,242.6454451,47.0,73.0
881,242.35204279166666,242.82426425833333,50.0,58.0
882,241.72704379166666,242.90412524166666,35.0,61.0
883,241.93537679166664,242.92322243333334,42.0,63.0
884,242.97704179166666,243.27391631666666,54.0,88.0
885,242.76870879166665,243.27912464166667,47.0,81.0
886,243.18537479166665,243.332944,50.0,72.0
887,242.56037579166664,243.3450967583333,59.0,86.0
888,243.81037379166665,244.26002584999998,50.0,79.0
889,244.01870679166666,244.36419235,54.0,52.0
890,244.43537279166665,244.65585854999998,50.0,81.0
891,243.39370779166666,244.92321923333333,38.0,66.0
892,244.22703979166667,244.99439967499998,62.0,71.0
893,243.60204079166667,245.08641341666666,45.0,69.0
894,244.85203879166664,245.12460779999998,57.0,47.0
895,244.64370579166666,245.15064942499998,54.0,72.0
896,245.89370379166667,245.93537039166665,57.0,25.0
897,245.47703779166665,246.00307861666664,50.0,67.0
898,245.68537079166666,246.02564802499998,54.0,47.0
899,246.10203679166665,246.2704393,50.0,72.0
900,245.06037179166665,246.44405013333332,38.0,70.0
901,245.89370379166667,246.57946658333333,60.0,68.0
902,245.26870479166666,246.68363308333332,45.0,53.0
903,246.31036979166666,246.69404973333332,54.0,67.0
904,246.51870279166667,246.73745244166665,57.0,71.0
905,247.35203479166665,247.53779838333332,56.0,63.0
906,247.14370179166664,247.63675655833333,52.0,63.0
907,246.93536879166666,247.65411764166666,47.0,69.0
908,247.76870079166665,247.89890891666664,47.0,70.0
909,246.72703579166665,247.93536719166664,40.0,68.0
910,247.56036779166666,248.28432496666665,59.0,92.0
911,247.97703379166666,248.33988043333332,56.0,93.0
912,248.18536679166667,248.3971720083333,52.0,72.0
913,248.81036579166667,249.22876789999998,47.0,70.0
914,249.01869879166665,249.29474001666665,51.0,71.0
915,248.60203279166666,249.33987883333333,42.0,50.0
916,249.43536479166664,249.5950867583333,42.0,74.0
917,248.39369979166665,249.6784199583333,35.0,61.0
918,249.64369779166665,249.96661394166665,51.0,59.0
919,249.85203079166666,250.01175275833333,47.0,74.0
920,249.22703179166666,250.02390551666664,54.0,82.0
921,250.47702979166667,250.94057071666666,45.0,86.0
922,250.68536279166665,251.07251495,52.0,72.0
923,250.89369579166666,251.3346673083333,61.0,100.0
924,251.31036179166665,251.63327794166665,57.0,63.0
925,251.51869479166666,251.661055675,52.0,42.0
926,250.06036379166665,251.67668064999998,33.0,78.0
927,251.10202879166667,251.7079306,45.0,68.0
928,250.26869679166666,251.72181946666666,40.0,48.0
929,251.72702779166664,251.93362468333333,52.0,59.0
930,251.72702779166664,252.1870965,60.0,76.0
931,252.14369379166666,252.65931796666666,45.0,61.0
932,251.72702779166664,252.77910944166666,57.0,73.0
933,251.72702779166664,252.88501205,33.0,64.0
934,251.93536079166665,252.90410924166665,40.0,57.0
935,252.76869279166667,253.26348366666664,45.0,62.0
936,252.56035979166666,253.348552975,64.0,72.0
937,252.97702579166665,253.41278898333331,57.0,77.0
938,253.81035779166666,254.30341255833332,50.0,81.0
939,254.01869079166664,254.53431496666664,57.0,64.0
940,254.43535679166666,254.72528688333333,50.0,76.0
941,253.39369179166667,254.97702259166667,38.0,72.0
942,253.60202479166665,255.10723071666666,45.0,70.0
943,254.64368979166665,255.3190359333333,64.0,72.0
944,254.85202279166666,255.57771607499998,57.0,30.0
945,254.85202279166666,255.58986883333333,62.0,58.0
946,254.22702379166665,255.63500764999998,66.0,107.0
947,255.47702179166666,255.952715475,50.0,75.0
948,256.10202079166663,256.47007575833334,50.0,82.0
949,255.26868879166665,256.49438127499997,45.0,55.0
950,255.06035579166667,256.536047875,38.0,67.0
951,255.68535479166667,256.54125619999996,57.0,68.0
952,255.89368779166665,256.65583935,66.0,100.0
953,256.31035379166667,256.68882540833334,64.0,81.0
954,256.51868679166665,256.713130925,62.0,73.0
955,257.14368579166666,257.61764336666664,50.0,53.0
956,257.35201879166664,257.629796125,54.0,69.0
957,257.5603517916667,258.0169482833333,57.0,55.0
958,257.76868479166666,258.07250375,50.0,76.0
959,256.72701979166663,258.33292,38.0,88.0
960,256.9353527916667,258.54993354166663,45.0,69.0
961,257.97701779166664,258.58639181666666,54.0,73.0
962,258.1853507916667,258.66972501666663,57.0,68.0
963,258.39368379166666,258.74958599999997,60.0,69.0
964,259.22701579166664,259.32250175,57.0,20.0
965,258.8103497916667,259.37111278333333,54.0,62.0
966,259.01868279166666,259.37632110833334,45.0,60.0
967,259.4353487916666,259.63847346666665,45.0,63.0
968,258.60201679166664,259.702709475,38.0,58.0
969,259.22701579166664,260.00132010833335,60.0,70.0
970,259.64368179166667,260.0638200083333,54.0,65.0
971,259.85201479166665,260.088125525,57.0,69.0
972,260.47701379166665,260.93187417499996,47.0,70.0
973,260.68534679166663,261.03256845833334,50.0,65.0
974,260.06034779166663,261.60201199166664,35.0,65.0
975,260.26868079166667,261.77909504166666,42.0,47.0
976,261.10201279166665,261.8554838083333,47.0,86.0
977,261.5186787916667,262.20444158333333,50.0,96.0
978,261.31034579166663,262.22701099166665,54.0,79.0
979,260.89367979166667,262.2721498083333,59.0,90.0
980,262.1436777916667,262.63846866666665,47.0,86.0
981,262.35201079166666,262.890204375,50.0,74.0
982,261.72701179166665,262.9336070833333,35.0,73.0
983,261.93534479166664,262.9648570333333,42.0,74.0
984,262.97700979166666,263.26173155833334,54.0,93.0
985,262.56034379166664,263.3207592416667,59.0,96.0
986,262.7686767916667,263.3502730833333,47.0,88.0
987,263.18534279166664,263.400620225,50.0,76.0
988,263.81034179166664,264.0846469083333,50.0,83.0
989,264.0186747916666,264.286035475,54.0,68.0
990,263.60200879166666,264.30166045,45.0,72.0
991,263.3936757916667,264.8554790083333,38.0,67.0
992,264.64367379166663,264.99263156666666,54.0,69.0
993,264.43534079166665,265.00999265,45.0,66.0
994,264.85200679166667,265.01520097499997,50.0,81.0
995,264.22700779166667,265.01520097499997,57.0,82.0
996,265.47700579166667,265.9908938583333,50.0,75.0
997,265.68533879166665,266.06728262499996,53.0,81.0
998,266.1020047916667,266.265198975,50.0,73.0
999,265.26867279166663,266.3711015833333,45.0,71.0
1000,265.06033979166665,266.42492094166664,38.0,81.0
1001,266.31033779166665,266.69748995,57.0,70.0
1002,266.51867079166664,266.7270037916667,53.0,72.0
1003,265.89367179166663,266.7270037916667,60.0,89.0
1004,267.14366979166664,267.5742246583333,47.0,75.0
1005,267.3520027916667,267.6679745083333,50.0,65.0
1006,266.7270037916667,268.265195775,35.0,78.0
1007,266.93533679166666,268.42318163333334,42.0,86.0
1008,267.76866879166664,268.5273481333333,47.0,77.0
1009,268.18533479166666,268.90234753333334,50.0,57.0
1010,267.9770017916667,269.098527775,54.0,63.0
1011,267.56033579166666,269.11415274999996,59.0,83.0
1012,268.81033379166666,269.3120691,47.0,73.0
1013,269.01866679166665,269.4908882583333,50.0,58.0
1014,268.39366779166664,269.57074924166665,35.0,61.0
1015,268.6020007916666,269.5898464333333,42.0,63.0
1016,269.64366579166665,269.94054031666667,54.0,88.0
1017,269.43533279166667,269.9457486416667,47.0,81.0
1018,269.85199879166663,269.999568,50.0,72.0
1019,269.22699979166663,270.0117207583333,59.0,86.0
1020,270.47699779166663,270.92664985,50.0,79.0
1021,270.6853307916667,271.03081635,54.0,52.0
1022,271.10199679166664,271.32248254999996,50.0,81.0
1023,270.06033179166667,271.58984323333334,38.0,66.0
1024,270.89366379166665,271.66102367499997,62.0,71.0
1025,270.26866479166665,271.75303741666664,45.0,69.0
1026,271.51866279166666,271.7912318,57.0,47.0
1027,271.3103297916667,271.817273425,54.0,72.0
1028,272.5603277916667,272.60199439166666,57.0,25.0
1029,272.14366179166666,272.66970261666665,50.0,67.0
1030,272.35199479166664,272.69227202499997,54.0,47.0
1031,272.76866079166666,272.9370633,50.0,72.0
1032,271.72699579166664,273.1106741333333,38.0,70.0
1033,272.5603277916667,273.24609058333334,60.0,68.0
1034,271.9353287916667,273.3502570833333,45.0,53.0
1035,272.97699379166664,273.36067373333333,54.0,67.0
1036,273.1853267916667,273.40407644166663,57.0,71.0
1037,274.01865879166667,274.20442238333334,56.0,63.0
1038,273.8103257916666,274.30338055833334,52.0,63.0
1039,273.60199279166665,274.32074164166664,47.0,69.0
1040,274.43532479166663,274.56553291666665,47.0,70.0
1041,273.39365979166666,274.6019911916666,40.0,68.0
1042,274.22699179166665,274.95094896666666,59.0,92.0
1043,274.64365779166667,275.0065044333333,56.0,93.0
1044,274.85199079166665,275.0637960083333,52.0,72.0
1045,275.47698979166665,275.8953919,47.0,70.0
1046,275.68532279166664,275.96136401666666,51.0,71.0
1047,275.2686567916667,276.00650283333334,42.0,50.0
1048,276.10198879166666,276.2617107583333,42.0,74.0
1049,275.06032379166663,276.3450439583333,35.0,61.0
1050,276.31032179166664,276.63323794166666,51.0,59.0
1051,276.5186547916667,276.67837675833334,47.0,74.0
1052,275.8936557916667,276.69052951666663,54.0,82.0
1053,277.1436537916667,277.63323634166665,45.0,46.0
1054,277.35198679166666,277.7217778666666,49.0,53.0
1055,276.72698779166666,278.223513175,33.0,68.0
1056,276.93532079166664,278.35719351666665,40.0,53.0
1057,277.56031979166664,278.36240184166667,57.0,55.0
1058,278.18531879166665,278.3710823833333,52.0,60.0
1059,277.7686527916667,278.37629070833333,45.0,67.0
1060,277.97698579166666,278.4162212,49.0,55.0
1061,279.01865079166663,279.2617059583333,51.0,51.0
1062,278.60198479166667,279.33809472499996,42.0,66.0
1063,278.81031779166665,279.3814974333333,47.0,57.0
1064,279.43531679166665,279.58635821666667,42.0,61.0
1065,278.3936517916666,279.70094136666665,35.0,59.0
1066,279.22698379166667,279.99260756666666,54.0,107.0
1067,279.85198279166667,280.046426925,47.0,70.0
1068,279.64364979166663,280.0533713583333,51.0,92.0
1069,280.4769817916667,280.88496725,45.0,66.0
1070,280.68531479166666,281.04816143333335,49.0,62.0
1071,280.06031579166665,281.6314938333333,33.0,69.0
1072,280.26864879166664,281.7078826,40.0,52.0
1073,281.1019807916667,281.75822974166664,45.0,66.0
1074,281.51864679166664,281.85892402499996,52.0,54.0
1075,281.31031379166666,281.900590625,49.0,63.0
1076,280.89364779166664,281.95614609166665,57.0,59.0
1077,282.14364579166664,282.6887838083333,45.0,73.0
1078,282.3519787916667,282.7321865166667,49.0,56.0
1079,282.76864479166665,283.1662136,45.0,67.0
1080,281.93531279166666,283.1887830083333,40.0,45.0
1081,281.7269797916667,283.1991996583333,33.0,63.0
1082,282.9769777916666,283.358921625,49.0,66.0
1083,283.18531079166667,283.3606577333333,52.0,63.0
1084,282.56031179166666,283.36412995,57.0,63.0
1085,283.81030979166667,284.28426736666665,50.0,53.0
1086,284.01864279166665,284.296420125,54.0,69.0
1087,284.22697579166663,284.6835722833333,57.0,55.0
1088,284.43530879166667,284.73912774999997,50.0,76.0
1089,283.39364379166665,284.999544,38.0,88.0
1090,283.60197679166663,285.21655754166665,45.0,69.0
1091,284.64364179166665,285.2530158166667,54.0,73.0
1092,284.85197479166663,285.33634901666665,57.0,68.0
1093,285.0603077916667,285.41621,60.0,69.0
1094,285.89363979166666,285.98912574999997,57.0,20.0
1095,285.47697379166664,286.03773678333334,54.0,62.0
1096,285.6853067916667,286.0429451083333,45.0,60.0
1097,286.10197279166664,286.30509746666667,45.0,63.0
1098,285.26864079166666,286.36933347499996,38.0,58.0
1099,285.89363979166666,286.6679441083333,60.0,70.0
1100,286.3103057916667,286.73044400833334,54.0,65.0
1101,286.51863879166666,286.75474952499997,57.0,69.0
1102,287.14363779166666,287.598498175,47.0,70.0
1103,287.35197079166664,287.6991924583333,50.0,65.0
1104,286.72697179166664,288.26863599166666,35.0,65.0
1105,286.9353047916667,288.4457190416667,42.0,47.0
1106,287.76863679166667,288.5221078083333,47.0,86.0
1107,288.18530279166663,288.87106558333335,50.0,96.0
1108,287.97696979166665,288.89363499166666,54.0,79.0
1109,287.5603037916666,288.93877380833334,59.0,90.0
1110,288.81030179166663,289.30509266666667,47.0,86.0
1111,289.01863479166667,289.556828375,50.0,74.0
1112,288.39363579166667,289.6002310833333,35.0,73.0
1113,288.60196879166665,289.63148103333333,42.0,74.0
1114,289.6436337916667,289.9283555583333,54.0,93.0
1115,289.22696779166665,289.98738324166663,59.0,96.0
1116,289.43530079166663,290.01689708333333,47.0,88.0
1117,289.85196679166665,290.06724422499997,50.0,76.0
1118,290.47696579166666,290.7512709083333,50.0,83.0
1119,290.68529879166664,290.95265947499996,54.0,68.0
1120,290.2686327916667,290.96828445,45.0,72.0
1121,290.06029979166664,291.5221030083333,38.0,67.0
1122,291.31029779166664,291.6592555666667,54.0,69.0
1123,291.10196479166666,291.67661664999997,45.0,66.0
1124,291.5186307916667,291.681824975,50.0,81.0
1125,290.8936317916667,291.681824975,57.0,82.0
1126,292.1436297916666,292.65751785833334,50.0,75.0
1127,292.35196279166666,292.733906625,53.0,81.0
1128,292.76862879166663,292.931822975,50.0,73.0
1129,291.93529679166664,293.0377255833333,45.0,71.0
1130,291.72696379166666,293.09154494166665,38.0,81.0
1131,292.97696179166667,293.36411395,57.0,70.0
1132,293.18529479166665,293.39362779166663,53.0,72.0
1133,292.56029579166665,293.39362779166663,60.0,89.0
1134,293.81029379166665,294.24084865833333,47.0,75.0
1135,294.01862679166663,294.33459850833333,50.0,65.0
1136,293.39362779166663,294.931819775,35.0,78.0
1137,293.60196079166667,295.0898056333333,42.0,86.0
1138,294.43529279166665,295.1939721333333,47.0,77.0
1139,294.8519587916667,295.5689715333333,50.0,57.0
1140,294.64362579166664,295.765151775,54.0,63.0
1141,294.2269597916667,295.78077675,59.0,83.0
1142,295.4769577916667,295.9786931,47.0,73.0
1143,295.68529079166666,296.1575122583333,50.0,58.0
1144,295.06029179166666,296.23737324166666,35.0,61.0
1145,295.26862479166664,296.25647043333333,42.0,63.0
1146,296.31028979166666,296.6071643166666,54.0,88.0
1147,296.1019567916667,296.61237264166664,47.0,81.0
1148,296.51862279166664,296.66619199999997,50.0,72.0
1149,295.89362379166664,296.6783447583333,59.0,86.0
1150,297.14362179166665,297.59327385,50.0,79.0
1151,297.3519547916666,297.69744034999997,54.0,52.0
1152,297.76862079166665,297.98910655,50.0,81.0
1153,296.7269557916666,298.2564672333333,38.0,66.0
1154,297.56028779166667,298.327647675,62.0,71.0
1155,296.93528879166666,298.41966141666666,45.0,69.0
1156,298.18528679166667,298.4578558,57.0,47.0
1157,297.97695379166663,298.483897425,54.0,72.0
1158,299.22695179166664,299.2686183916667,57.0,25.0
1159,298.8102857916667,299.33632661666667,50.0,67.0
1160,299.01861879166665,299.358896025,54.0,47.0
1161,299.4352847916667,299.6036873,50.0,72.0
1162,298.39361979166665,299.7772981333333,38.0,70.0
1163,299.22695179166664,299.9127145833333,60.0,68.0
1164,298.60195279166663,300.0168810833333,45.0,53.0
1165,299.64361779166666,300.02729773333334,54.0,67.0
1166,299.85195079166664,300.07070044166665,57.0,71.0
1167,300.6852827916667,300.8710463833333,56.0,63.0
1168,300.47694979166664,300.9700045583333,52.0,63.0
1169,300.26861679166666,300.98736564166666,47.0,69.0
1170,301.10194879166664,301.23215691666667,47.0,70.0
1171,300.0602837916667,301.26861519166664,40.0,68.0
1172,300.89361579166666,301.61757296666667,59.0,92.0
1173,301.3102817916666,301.6731284333333,56.0,93.0
1174,301.51861479166666,301.73042000833334,52.0,72.0
1175,302.14361379166667,302.5620159,47.0,70.0
1176,302.35194679166665,302.6279880166667,51.0,71.0
1177,301.9352807916666,302.6731268333333,42.0,50.0
1178,302.76861279166667,302.92833475833334,42.0,74.0
1179,301.72694779166665,303.0116679583333,35.0,61.0
1180,302.97694579166665,303.2998619416667,51.0,59.0
1181,303.18527879166663,303.3450007583333,47.0,74.0
1182,302.56027979166663,303.35715351666664,54.0,82.0
1183,303.81027779166664,304.3102769916666,45.0,83.0
1184,304.0186107916667,304.4491656583333,49.0,62.0
1185,304.43527679166664,304.71131801666667,45.0,78.0
1186,303.3936117916667,304.9370121,33.0,85.0
1187,303.60194479166665,305.0845813083333,40.0,56.0
1188,304.6436097916667,305.23562273333334,49.0,78.0
1189,304.85194279166666,305.2686087916667,52.0,66.0
1190,304.22694379166666,305.4439557333333,57.0,58.0
1191,305.47694179166666,305.95610769166666,45.0,85.0
1192,305.68527479166664,306.1245102,49.0,64.0
1193,305.06027579166664,306.21826004999997,33.0,64.0
1194,305.2686087916667,306.2529822166667,40.0,61.0
1195,306.10194079166666,306.62450939999997,45.0,86.0
1196,306.31027379166665,306.64360659166664,49.0,88.0
1197,306.5186067916666,306.702634275,52.0,66.0
1198,305.8936077916666,306.7061064916667,57.0,72.0
1199,307.14360579166663,307.5689523333333,50.0,85.0
1200,307.35193879166667,307.8293685833333,57.0,72.0
1201,307.76860479166663,308.10714591666664,50.0,77.0
1202,306.72693979166667,308.28249285833334,38.0,72.0
1203,306.93527279166665,308.40575655,45.0,75.0
1204,308.18527079166665,308.88145023333334,57.0,62.0
1205,307.97693779166667,308.95436678333334,62.0,67.0
1206,307.56027179166665,309.06547771666663,66.0,107.0
1207,308.81026979166666,309.2738107166667,50.0,69.0
1208,309.01860279166664,309.4439493333333,57.0,61.0
1209,308.39360379166664,309.8745042,38.0,67.0
1210,308.6019367916667,309.90575415,45.0,59.0
1211,309.43526879166666,309.9161708,50.0,71.0
1212,309.2269357916667,310.046378925,66.0,102.0
1213,309.64360179166664,310.04985114166664,62.0,67.0
1214,309.8519347916667,310.067212225,57.0,76.0
1215,310.4769337916666,310.9856135333333,45.0,64.0
1216,310.68526679166666,311.077627275,52.0,56.0
1217,310.26860079166664,311.18352988333334,40.0,59.0
1218,310.06026779166666,311.18526599166665,33.0,82.0
1219,311.1019327916666,311.32068244166663,45.0,57.0
1220,310.89359979166665,311.40054342499997,61.0,96.0
1221,311.31026579166667,311.4074878583333,57.0,58.0
1222,311.72693179166663,315.7356059333333,50.0,67.0
1223,311.72693179166663,315.73907815,45.0,57.0
1224,311.72693179166663,315.754703125,57.0,69.0
1225,311.72693179166663,315.75817534166663,38.0,54.0
1226,311.72693179166663,315.75817534166663,62.0,69.0
1227,311.72693179166663,315.7703281,66.0,69.0
