,start,end,pitch,velocity
0,20.728569375,20.992384375,67.0,77.0
1,21.145119375,21.244049999999998,67.0,75.0
2,21.353394375,21.85499,67.0,89.0
3,21.978219375,22.07715,67.0,72.0
4,22.186494375,22.294103125,67.0,70.0
5,22.394769375,22.7089175,67.0,85.0
6,22.811319375,22.990088749999998,69.0,86.0
7,23.019594375,23.590615,67.0,75.0
8,23.644419375,23.842280625,65.0,83.0
9,24.060969375,24.293543125,64.0,81.0
10,24.477519375,24.602484375,69.0,85.0
11,24.685794375,25.175240625,71.0,78.0
12,25.310619374999998,25.564020625,72.0,95.0
13,25.727169375,25.935444375,71.0,88.0
14,25.935444375,26.298189999999998,67.0,89.0
15,26.976819374999998,27.0826925,67.0,95.0
16,27.185094375,27.30832375,67.0,63.0
17,27.393369375,27.5964375,69.0,93.0
18,27.809919375,27.914056875,60.0,79.0
19,28.018194375,28.285480624999998,60.0,73.0
20,28.643019374999998,28.783604999999998,62.0,90.0
21,28.851294375,29.097753125,64.0,69.0
22,29.267844375,29.764233125,67.0,78.0
23,30.517494375,30.630309999999998,67.0,86.0
24,30.725769375,31.020825625,65.0,75.0
25,31.142319375,31.27943375,67.0,66.0
26,31.350594375,31.725489375,65.0,75.0
27,31.767144375,31.886902499999998,62.0,62.0
28,31.975419374999998,32.18543,60.0,73.0
29,32.183694375,33.0948975,62.0,56.0
30,34.058169375,34.2612375,67.0,83.0
31,34.474719375,34.587535,67.0,65.0
32,34.682994375,35.07351,67.0,74.0
33,35.307819375,35.51783,67.0,76.0
34,35.724369375,35.915288125,67.0,95.0
35,36.140919375,36.290183125,69.0,86.0
36,36.349194374999996,36.765744375,67.0,72.0
37,36.974019375,37.157995625,65.0,82.0
38,37.390569375,37.848774375,64.0,78.0
39,37.807119375,37.897371875,69.0,70.0
40,38.015394375,38.45797875,71.0,83.0
41,38.640219375,38.79121875,72.0,61.0
42,39.056769375,39.1904125,71.0,92.0
43,39.265044375,40.167569375,67.0,76.0
44,40.306419375,40.391465,67.0,92.0
45,40.514694375,40.6344525,67.0,71.0
46,40.722969375,40.9399225,69.0,77.0
47,41.139519375,41.24192125,60.0,86.0
48,41.347794375,41.819884375,60.0,79.0
49,41.972619375,42.111469375,62.0,73.0
50,42.389169375,42.73455875,64.0,76.0
51,42.597444375,43.112925,67.0,69.0
52,43.847094375,44.041484374999996,67.0,83.0
53,44.055369375,44.529195,65.0,78.0
54,44.471919375,44.596884375,67.0,66.0
55,44.680194375,45.096744375,64.0,81.0
56,45.096744375,45.33105375,62.0,52.0
57,45.305019375,45.445605,60.0,71.0
58,45.721569375,46.231843125,60.0,69.0
59,46.554669374999996,46.695254999999996,72.0,100.0
60,46.971219375,47.16387375,71.0,83.0
61,47.387769375,47.611665,69.0,73.0
62,47.804319375,47.98656,69.0,71.0
63,48.012594375,48.262524375,71.0,72.0
64,48.220869375,48.536753125,72.0,68.0
65,48.637419375,48.73635,74.0,102.0
66,48.845694375,49.09388875,76.0,90.0
67,49.262244375,49.897483125,71.0,82.0
68,50.303619375,50.38519375,67.0,82.0
69,50.511894375,50.650744375,67.0,71.0
70,50.720169375,51.02390375,69.0,99.0
71,51.136719375,51.23565,76.0,88.0
72,51.344994375,51.5480625,76.0,97.0
73,51.528970625,51.699061875,74.0,81.0
74,51.969819375,52.106933749999996,72.0,82.0
75,52.386369375,53.101446875,72.0,86.0
76,53.219469374999996,53.46766375,72.0,102.0
77,53.636019375,53.93975375,71.0,96.0
78,54.052569375,54.344154375,69.0,69.0
79,54.469119375,54.6721875,71.0,90.0
80,54.677394375,55.017576874999996,72.0,90.0
81,55.302219375,55.5608275,74.0,93.0
82,55.510494375,55.824642499999996,76.0,81.0
83,56.135319375,56.67509875,71.0,83.0
84,56.968419374999996,57.051729375,67.0,93.0
85,57.176694375,57.35546375,67.0,77.0
86,57.384969375,57.686968125,69.0,90.0
87,57.801519375,57.89697875,76.0,95.0
88,58.009794375,58.247575,76.0,82.0
89,58.2267475,58.422873125,74.0,78.0
90,58.634619375,58.860250625,72.0,92.0
91,59.051169375,59.616983125,72.0,89.0
92,65.299419375,65.37058,72.0,93.0
93,65.507694375,65.6135675,72.0,86.0
94,65.715969375,65.97804875,79.0,92.0
95,66.132519375,66.217565,79.0,89.0
96,66.340794375,66.6410575,79.0,97.0
97,66.965619375,67.09232,79.0,93.0
98,67.382169375,67.611271875,79.0,95.0
99,67.798719375,67.882029375,71.0,77.0
100,68.006994375,68.406188125,71.0,85.0
101,68.63181937499999,68.70298,71.0,79.0
102,68.84009437499999,68.978944375,71.0,75.0
103,69.048369375,69.30350625,79.0,97.0
104,69.464919375,69.555171875,79.0,99.0
105,69.673194375,70.01164125,79.0,107.0
106,70.298019375,70.509765625,81.0,107.0
107,70.714569375,70.9870625,79.0,79.0
108,71.131119375,71.22484312499999,72.0,93.0
109,71.339394375,71.71428937499999,72.0,81.0
110,71.964219375,72.120425625,72.0,92.0
111,72.172494375,72.342585625,74.0,59.0
112,72.380769375,72.69838874999999,76.0,95.0
113,72.797319375,72.99691625,74.0,88.0
114,73.213869375,73.58008625,77.0,89.0
115,73.630419375,73.797039375,76.0,82.0
116,74.046969375,74.414921875,76.0,100.0
117,74.463519375,74.64228875,74.0,88.0
118,74.671794375,75.123056875,77.0,92.0
119,75.29661937499999,75.4858025,76.0,89.0
120,75.71316937499999,76.029053125,76.0,97.0
121,76.129719375,76.466430625,74.0,92.0
122,76.546269375,76.88645187499999,77.0,100.0
123,76.962819375,77.12770375,76.0,85.0
124,77.379369375,77.934769375,79.0,97.0
125,78.629019375,78.726214375,72.0,95.0
126,78.837294375,78.95358125,72.0,76.0
127,79.045569375,79.269465,79.0,92.0
128,79.462119375,79.559314375,79.0,97.0
129,79.670394375,79.989749375,79.0,93.0
130,80.295219375,80.4705175,79.0,93.0
131,80.711769375,80.9426075,79.0,95.0
132,81.128319375,81.222043125,71.0,90.0
133,81.336594375,81.690661875,71.0,88.0
134,81.961419375,82.046465,71.0,92.0
135,82.16969437499999,82.294659375,71.0,78.0
136,82.37796937499999,82.63484187499999,79.0,95.0
137,82.794519375,82.902128125,79.0,93.0
138,83.002794375,83.11908125,79.0,83.0
139,83.211069375,83.45232125,79.0,93.0
140,83.627619375,83.849779375,81.0,102.0
141,84.044169375,84.311455625,79.0,93.0
142,84.460719375,84.545765,72.0,85.0
143,84.668994375,85.099429375,72.0,88.0
144,85.293819375,85.429198125,72.0,95.0
145,85.502094375,85.656565,74.0,72.0
146,85.710369375,85.93773625,76.0,89.0
147,86.126919375,86.321309375,74.0,93.0
148,86.335194375,86.786456875,77.0,85.0
149,86.960019375,87.133581875,76.0,100.0
150,87.376569375,87.64559125,76.0,95.0
151,87.793119375,87.935440625,74.0,86.0
152,88.001394375,88.61754125,72.0,73.0
153,88.626219375,88.914333125,71.0,75.0
154,89.04276937499999,90.396556875,72.0,81.0
155,95.70756937499999,95.971384375,67.0,77.0
156,96.12411937499999,96.22305,67.0,75.0
157,96.33239437499999,96.83399,67.0,89.0
158,96.957219375,97.05615,67.0,72.0
159,97.165494375,97.27310312499999,67.0,70.0
160,97.373769375,97.6879175,67.0,85.0
161,97.790319375,97.96908875,69.0,86.0
162,97.998594375,98.569615,67.0,75.0
163,98.623419375,98.821280625,65.0,83.0
164,99.039969375,99.272543125,64.0,81.0
165,99.456519375,99.581484375,69.0,85.0
166,99.664794375,100.154240625,71.0,78.0
167,100.289619375,100.543020625,72.0,95.0
168,100.706169375,100.914444375,71.0,88.0
169,100.914444375,101.27719,67.0,89.0
170,101.955819375,102.06169249999999,67.0,95.0
171,102.164094375,102.28732375,67.0,63.0
172,102.372369375,102.57543749999999,69.0,93.0
173,102.78891937499999,102.893056875,60.0,79.0
174,102.99719437499999,103.264480625,60.0,73.0
175,103.622019375,103.762605,62.0,90.0
176,103.830294375,104.076753125,64.0,69.0
177,104.246844375,104.743233125,67.0,78.0
178,105.496494375,105.60931,67.0,86.0
179,105.704769375,105.999825625,65.0,75.0
180,106.121319375,106.25843375,67.0,66.0
181,106.329594375,106.704489375,65.0,75.0
182,106.746144375,106.8659025,62.0,62.0
183,106.954419375,107.16443,60.0,73.0
184,107.162694375,108.0738975,62.0,56.0
185,109.037169375,109.24023749999999,67.0,83.0
186,109.45371937499999,109.566535,67.0,65.0
187,109.66199437499999,110.05251,67.0,74.0
188,110.286819375,110.49683,67.0,76.0
189,110.703369375,110.894288125,67.0,95.0
190,111.119919375,111.269183125,69.0,86.0
191,111.328194375,111.744744375,67.0,72.0
192,111.953019375,112.136995625,65.0,82.0
193,112.369569375,112.827774375,64.0,78.0
194,112.786119375,112.876371875,69.0,70.0
195,112.994394375,113.43697875,71.0,83.0
196,113.619219375,113.77021875,72.0,61.0
197,114.035769375,114.16941249999999,71.0,92.0
198,114.244044375,115.146569375,67.0,76.0
199,115.285419375,115.370465,67.0,92.0
200,115.493694375,115.6134525,67.0,71.0
201,115.701969375,115.9189225,69.0,77.0
202,116.11851937499999,116.22092125,60.0,86.0
203,116.32679437499999,116.798884375,60.0,79.0
204,116.95161937499999,117.090469375,62.0,73.0
205,117.368169375,117.71355875,64.0,76.0
206,117.576444375,118.091925,67.0,69.0
207,118.826094375,119.020484375,67.0,83.0
208,119.034369375,119.508195,65.0,78.0
209,119.450919375,119.575884375,67.0,66.0
210,119.659194375,120.075744375,64.0,81.0
211,120.075744375,120.31005375,62.0,52.0
212,120.284019375,120.424605,60.0,71.0
213,120.700569375,121.210843125,60.0,69.0
214,121.533669375,121.674255,72.0,100.0
215,121.950219375,122.14287374999999,71.0,83.0
216,122.366769375,122.590665,69.0,73.0
217,122.783319375,123.19986937499999,71.0,71.0
218,123.19986937499999,123.515753125,72.0,68.0
219,123.61641937499999,123.71535,74.0,102.0
220,123.82469437499999,124.07288875,76.0,90.0
221,124.241244375,124.876483125,71.0,82.0
222,125.282619375,125.36419375,67.0,82.0
223,125.490894375,125.629744375,67.0,71.0
224,125.699169375,126.00290375,69.0,99.0
225,126.115719375,126.21464999999999,76.0,88.0
226,126.323994375,126.577395625,76.0,97.0
227,126.53053375,126.73880875,74.0,97.0
228,126.948819375,127.08593375,72.0,82.0
229,127.157094375,127.87217187499999,72.0,86.0
230,128.198469375,128.44666375,72.0,102.0
231,128.615019375,128.91875375,71.0,96.0
232,129.031569375,129.323154375,69.0,69.0
233,129.448119375,129.6511875,71.0,90.0
234,129.656394375,129.996576875,72.0,90.0
235,130.281219375,130.5398275,74.0,93.0
236,130.489494375,130.8036425,76.0,81.0
237,131.114319375,131.65409875,71.0,83.0
238,131.947419375,132.030729375,67.0,93.0
239,132.155694375,132.33446375,67.0,77.0
240,132.363969375,132.665968125,69.0,90.0
241,132.780519375,132.87597875,76.0,95.0
242,132.988794375,133.190126875,76.0,82.0
243,133.171035,133.367160625,74.0,78.0
244,133.61361937499998,133.839250625,72.0,92.0
245,134.03016937499999,134.595983125,72.0,89.0
246,140.278419375,140.34958,72.0,93.0
247,140.48669437499998,140.5925675,72.0,86.0
248,140.694969375,140.95704874999998,79.0,92.0
249,141.111519375,141.196565,79.0,89.0
250,141.319794375,141.6200575,79.0,97.0
251,141.944619375,142.07132,79.0,93.0
252,142.361169375,142.59027187499998,79.0,95.0
253,142.777719375,142.861029375,71.0,77.0
254,142.985994375,143.38518812499998,71.0,85.0
255,143.610819375,143.68198,71.0,79.0
256,143.819094375,143.957944375,71.0,75.0
257,144.027369375,144.28250625,79.0,97.0
258,144.443919375,144.534171875,79.0,99.0
259,144.652194375,144.99064125,79.0,107.0
260,145.277019375,145.48876562499998,81.0,107.0
261,145.693569375,145.9660625,79.0,79.0
262,146.110119375,146.203843125,72.0,93.0
263,146.318394375,146.693289375,72.0,81.0
264,146.94321937499998,147.099425625,72.0,92.0
265,147.151494375,147.321585625,74.0,59.0
266,147.35976937499998,147.67738875,76.0,95.0
267,147.77631937499999,147.97591625,74.0,88.0
268,148.192869375,148.55908625,77.0,89.0
269,148.609419375,148.776039375,76.0,82.0
270,149.025969375,149.393921875,76.0,100.0
271,149.442519375,149.62128875,74.0,88.0
272,149.650794375,150.102056875,77.0,92.0
273,150.275619375,150.4648025,76.0,89.0
274,150.692169375,151.008053125,76.0,97.0
275,151.108719375,151.445430625,74.0,92.0
276,151.525269375,151.865451875,77.0,100.0
277,151.941819375,152.10670375,76.0,85.0
278,152.358369375,152.913769375,79.0,97.0
279,153.608019375,153.705214375,72.0,95.0
280,153.81629437499998,153.93258125,72.0,76.0
281,154.024569375,154.248465,79.0,92.0
282,154.441119375,154.538314375,79.0,97.0
283,154.64939437499999,154.968749375,79.0,93.0
284,155.274219375,155.44951749999998,79.0,93.0
285,155.690769375,155.9216075,79.0,95.0
286,156.107319375,156.20104312499998,71.0,90.0
287,156.315594375,156.669661875,71.0,88.0
288,156.940419375,157.025465,71.0,92.0
289,157.148694375,157.273659375,71.0,78.0
290,157.356969375,157.613841875,79.0,95.0
291,157.773519375,157.881128125,79.0,93.0
292,157.981794375,158.09808125,79.0,83.0
293,158.190069375,158.43132125,79.0,93.0
294,158.606619375,158.828779375,81.0,102.0
295,159.023169375,159.290455625,79.0,93.0
296,159.439719375,159.524765,72.0,85.0
297,159.647994375,160.07842937499998,72.0,88.0
298,160.27281937499998,160.40819812499998,72.0,95.0
299,160.481094375,160.63556499999999,74.0,72.0
300,160.68936937499998,160.91673624999999,76.0,89.0
301,161.10591937499998,161.30030937499998,74.0,93.0
302,161.314194375,161.76545687499998,77.0,85.0
303,161.939019375,162.112581875,76.0,100.0
304,162.355569375,162.62459125,76.0,95.0
305,162.772119375,162.914440625,74.0,86.0
306,162.980394375,163.59654125,72.0,73.0
307,163.605219375,163.893333125,71.0,75.0
308,164.021769375,165.375556875,72.0,81.0
309,196.512669375,196.653255,72.0,100.0
310,196.929219375,197.12187375,71.0,83.0
311,197.345769375,197.569665,69.0,73.0
312,197.762319375,198.012249375,71.0,72.0
313,197.970594375,198.286478125,72.0,68.0
314,198.595419375,198.69435,74.0,102.0
315,199.011969375,199.26016375,76.0,90.0
316,199.428519375,199.59166812499998,71.0,82.0
317,199.636794375,199.990861875,71.0,82.0
318,200.261619375,200.34319374999998,67.0,82.0
319,200.469894375,200.608744375,67.0,71.0
320,200.678169375,200.98190375,69.0,99.0
321,201.09471937499998,201.19365,76.0,88.0
322,201.51126937499998,201.846245,76.0,97.0
323,201.92781937499998,202.06493375,72.0,82.0
324,202.34436937499999,203.059446875,72.0,86.0
325,203.177469375,203.42566374999998,72.0,102.0
326,203.594019375,203.89775375,71.0,96.0
327,204.010569375,204.302154375,69.0,69.0
328,204.427119375,204.6301875,71.0,90.0
329,204.635394375,204.975576875,72.0,90.0
330,205.260219375,205.5188275,74.0,93.0
331,205.676769375,205.9909175,76.0,81.0
332,206.093319375,206.221755625,71.0,83.0
333,206.301594375,206.46474312499998,71.0,83.0
334,207.342969375,207.644968125,69.0,90.0
335,207.759519375,207.85497875,76.0,95.0
336,207.96779437499998,208.196896875,76.0,82.0
337,208.172598125,208.36872375,74.0,78.0
338,208.592619375,208.818250625,72.0,92.0
339,209.009169375,209.574983125,72.0,89.0
340,215.25741937499998,215.32858,72.0,93.0
341,215.465694375,215.5715675,72.0,86.0
342,215.67396937499998,215.93604875,79.0,92.0
343,216.09051937499999,216.175565,79.0,89.0
344,216.298794375,216.5990575,79.0,97.0
345,216.923619375,217.05032,79.0,93.0
346,217.340169375,217.569271875,79.0,95.0
347,217.756719375,217.840029375,71.0,77.0
348,217.964994375,218.364188125,71.0,85.0
349,218.589819375,218.66098,71.0,79.0
350,218.798094375,218.936944375,71.0,75.0
351,219.006369375,219.26150625,79.0,97.0
352,219.422919375,219.51317187499998,79.0,99.0
353,219.631194375,219.96964125,79.0,107.0
354,220.256019375,220.467765625,81.0,107.0
355,220.672569375,220.9450625,79.0,79.0
356,221.089119375,221.182843125,72.0,93.0
357,221.297394375,221.672289375,72.0,81.0
358,221.922219375,222.078425625,72.0,92.0
359,222.13049437499998,222.300585625,74.0,59.0
360,222.338769375,222.65638875,76.0,95.0
361,222.755319375,222.95491625,74.0,88.0
362,223.171869375,223.53808625,77.0,89.0
363,223.588419375,223.755039375,76.0,82.0
364,224.004969375,224.372921875,76.0,100.0
365,224.421519375,224.60028875,74.0,88.0
366,224.629794375,225.081056875,77.0,92.0
367,225.254619375,225.4438025,76.0,89.0
368,225.671169375,225.987053125,76.0,97.0
369,226.087719375,226.42443062499999,74.0,92.0
370,226.504269375,226.844451875,77.0,100.0
371,226.920819375,227.08570375,76.0,85.0
372,227.337369375,227.892769375,79.0,97.0
373,228.58701937499998,228.68421437499998,72.0,95.0
374,228.795294375,228.91158124999998,72.0,76.0
375,229.00356937499998,229.227465,79.0,92.0
376,229.42011937499998,229.51731437499998,79.0,97.0
377,229.628394375,229.947749375,79.0,93.0
378,230.253219375,230.4285175,79.0,93.0
379,230.669769375,230.9006075,79.0,95.0
380,231.086319375,231.180043125,71.0,90.0
381,231.294594375,231.648661875,71.0,88.0
382,231.919419375,232.004465,71.0,92.0
383,232.127694375,232.252659375,71.0,78.0
384,232.335969375,232.592841875,79.0,95.0
385,232.752519375,232.860128125,79.0,93.0
386,232.960794375,233.07708125,79.0,83.0
387,233.169069375,233.41032125,79.0,93.0
388,233.585619375,233.807779375,81.0,102.0
389,234.002169375,234.269455625,79.0,93.0
390,234.418719375,234.503765,72.0,85.0
391,234.626994375,235.057429375,72.0,88.0
392,235.251819375,235.387198125,72.0,95.0
393,235.46009437499998,235.614565,74.0,72.0
394,235.668369375,235.89573625,76.0,89.0
395,236.084919375,236.279309375,74.0,93.0
396,236.29319437499998,236.744456875,77.0,85.0
397,236.918019375,237.091581875,76.0,100.0
398,237.334569375,237.60359125,76.0,95.0
399,237.751119375,237.89344062499998,74.0,86.0
400,237.959394375,238.57554125,72.0,73.0
401,238.584219375,238.87233312499998,71.0,75.0
402,239.000769375,239.833869375,72.0,81.0
403,240.250419375,240.37017749999998,72.0,107.0
404,240.458694375,241.5226325,76.0,102.0
405,241.91661937499998,241.98778,72.0,93.0
406,242.124894375,242.23076749999998,72.0,86.0
407,242.33316937499998,242.59524875,79.0,92.0
408,242.74971937499998,242.834765,79.0,89.0
409,242.957994375,243.25825749999998,79.0,97.0
410,243.58281937499999,243.70952,79.0,93.0
411,243.999369375,244.228471875,79.0,95.0
412,244.415919375,244.499229375,71.0,77.0
413,244.624194375,245.023388125,71.0,85.0
414,245.249019375,245.32018,71.0,79.0
415,245.457294375,245.596144375,71.0,75.0
416,245.665569375,245.92070625,79.0,97.0
417,246.082119375,246.17237187499998,79.0,99.0
418,246.290394375,246.62884125,79.0,107.0
419,246.915219375,247.126965625,81.0,107.0
420,247.331769375,247.6042625,79.0,79.0
421,247.748319375,247.842043125,72.0,93.0
422,247.956594375,248.331489375,72.0,81.0
423,248.581419375,248.737625625,72.0,92.0
424,248.78969437499998,248.959785625,74.0,59.0
425,248.997969375,249.31558875,76.0,95.0
426,249.414519375,249.61411625,74.0,88.0
427,249.831069375,250.19728625,77.0,89.0
428,250.247619375,250.414239375,76.0,82.0
429,250.664169375,251.032121875,76.0,100.0
430,251.080719375,251.25948875,74.0,88.0
431,251.288994375,251.740256875,77.0,92.0
432,251.913819375,252.1030025,76.0,89.0
433,252.330369375,252.646253125,76.0,97.0
434,252.746919375,253.08363062499998,74.0,92.0
435,253.163469375,253.503651875,77.0,100.0
436,253.580019375,253.74490375,76.0,85.0
437,253.996569375,254.551969375,79.0,97.0
438,255.246219375,255.343414375,72.0,95.0
439,255.454494375,255.57078124999998,72.0,76.0
440,255.66276937499998,255.886665,79.0,92.0
441,256.079319375,256.176514375,79.0,97.0
442,256.28759437499997,256.606949375,79.0,93.0
443,256.912419375,257.0877175,79.0,93.0
444,257.328969375,257.5598075,79.0,95.0
445,257.745519375,257.839243125,71.0,90.0
446,257.953794375,258.307861875,71.0,88.0
447,258.578619375,258.663665,71.0,92.0
448,258.786894375,258.911859375,71.0,78.0
449,258.995169375,259.252041875,79.0,95.0
450,259.411719375,259.519328125,79.0,93.0
451,259.619994375,259.73628125,79.0,83.0
452,259.828269375,260.06952125,79.0,93.0
453,260.244819375,260.466979375,81.0,102.0
454,260.661369375,260.928655625,79.0,93.0
455,261.077919375,261.162965,72.0,85.0
456,261.286194375,261.71662937499997,72.0,88.0
457,261.911019375,262.046398125,72.0,95.0
458,262.119294375,262.27376499999997,74.0,72.0
459,262.327569375,262.55493624999997,76.0,89.0
460,262.74411937499997,262.938509375,74.0,93.0
461,262.952394375,263.40365687499997,77.0,85.0
462,263.57721937499997,263.750781875,76.0,100.0
463,263.993769375,264.26279125,76.0,95.0
464,264.410319375,264.552640625,74.0,86.0
465,264.618594375,265.23474125,72.0,73.0
466,265.243419375,265.531533125,71.0,75.0
467,265.659969375,267.013756875,72.0,81.0
468,268.575819375,268.78930125,72.0,93.0
469,268.784094375,268.95245,74.0,86.0
470,268.992369375,269.398505625,76.0,88.0
471,269.408919375,269.703975625,74.0,83.0
472,269.825469375,270.231605625,77.0,95.0
473,270.242019375,270.453765625,76.0,72.0
474,271.075119375,271.193141875,74.0,97.0
475,270.658569375,271.2365325,76.0,99.0
476,271.491669375,271.9585525,72.0,81.0
477,271.908219375,272.539986875,71.0,78.0
478,272.324769375,274.1940375,72.0,93.0
