,start,end,pitch,velocity
0,0.734169375,1.89877375,36.0,62.0
1,1.150719375,1.9369574999999999,43.0,35.0
2,1.775544375,2.081014375,48.0,35.0
3,1.567269375,2.084485625,60.0,53.0
4,1.567269375,2.4368175,64.0,59.0
5,1.983819375,2.4507025,55.0,43.0
6,2.816919375,3.282066875,48.0,49.0
7,3.441744375,3.538939375,48.0,46.0
8,2.400369375,3.55456,41.0,62.0
9,3.233469375,4.056155625,56.0,63.0
10,3.650019375,4.070040625,53.0,50.0
11,3.233469375,4.09260375,60.0,60.0
12,4.483119375,5.23117375,43.0,27.0
13,4.066569375,5.28671375,36.0,58.0
14,5.107944375,5.4394487499999995,48.0,33.0
15,4.899669375,5.736240625,60.0,68.0
16,5.316219375,5.774424375,55.0,59.0
17,4.899669375,5.777895625,64.0,63.0
18,6.149319375,6.62661625,48.0,34.0
19,6.774144375,6.878281875,48.0,40.0
20,5.732769375,6.9425,41.0,55.0
21,6.565869375,7.173338125,56.0,55.0
22,6.565869375,7.178545,60.0,56.0
23,6.982419375,7.183751875,53.0,43.0
24,7.398969375,8.200828125,36.0,60.0
25,8.232069375,8.780526875,62.0,47.0
26,8.232069375,8.787469375,55.0,49.0
27,8.232069375,8.926319375,59.0,53.0
28,8.232069375,8.98706625,43.0,40.0
29,9.065169375,9.4903975,64.0,51.0
30,9.065169375,9.683051875,57.0,37.0
31,9.065169375,9.7819825,60.0,42.0
32,9.065169375,9.82016625,45.0,39.0
33,9.898269375,10.536979375,43.0,34.0
34,9.898269375,10.74351875,55.0,38.0
35,9.898269375,10.77128875,59.0,53.0
36,9.898269375,10.779966875,62.0,49.0
37,11.147919374999999,11.651250625,48.0,37.0
38,11.564469375,11.998375625,57.0,48.0
39,10.731369375,12.026145625,41.0,61.0
40,11.772744375,12.137225625,48.0,44.0
41,11.564469375,12.15284625,60.0,52.0
42,11.981019374999999,12.296903125,53.0,37.0
43,12.397569375,13.112646875,60.0,56.0
44,12.397569375,13.126531875,56.0,53.0
45,12.397569375,13.143888125,53.0,43.0
46,12.397569375,13.275795625,41.0,45.0
47,13.438944375,13.62465625,41.0,37.0
48,13.647219375,14.065505,53.0,50.0
49,13.230669375,14.06897625,56.0,66.0
50,13.230669375,14.10368875,60.0,59.0
51,14.063769375,15.5164875,36.0,66.0
52,14.480319375,15.532108125,43.0,36.0
53,15.105144375,15.565085,48.0,42.0
54,15.313419375,16.373886249999998,55.0,63.0
55,14.896869375,16.40165625,64.0,66.0
56,16.146519375,16.8911025,43.0,27.0
57,15.729969375,16.9605275,36.0,61.0
58,16.563069375,17.108055625,64.0,64.0
59,16.771344374999998,17.163595625,48.0,39.0
60,16.979619375,17.297238749999998,55.0,55.0
61,17.396169375,17.989753125,55.0,53.0
62,17.396169375,18.0157875,62.0,61.0
63,17.396169375,18.092154999999998,43.0,40.0
64,17.396169375,18.0990975,59.0,52.0
65,18.229269375,18.576394375,64.0,51.0
66,18.229269375,18.753428125,57.0,53.0
67,18.229269375,18.7794625,60.0,55.0
68,18.229269375,18.847151874999998,45.0,51.0
69,19.062369375,20.159284375,47.0,37.0
70,19.062369375,20.56715625,59.0,57.0
71,19.062369375,20.56715625,62.0,55.0
72,19.062369375,20.586248125,55.0,49.0
73,21.145119375,21.822013124999998,43.0,27.0
74,21.561669375,21.82722,48.0,37.0
75,20.728569375,21.861932499999998,36.0,54.0
76,21.978219375,22.43816,55.0,39.0
77,21.561669375,22.4589875,60.0,50.0
78,21.561669375,22.46593,64.0,52.0
79,22.811319375,23.286880625,50.0,34.0
80,22.394769375,23.67739625,43.0,60.0
81,23.227869375,23.74682125,59.0,45.0
82,23.436144375,23.831866875,50.0,44.0
83,23.644419375,24.012371875,55.0,56.0
84,23.852694375,24.066176249999998,59.0,52.0
85,23.227869375,24.085268125,62.0,47.0
86,24.477519375,24.96175875,52.0,48.0
87,25.102344375,25.213424375,52.0,50.0
88,24.060969375,25.244665625,45.0,48.0
89,24.894069375,25.386986874999998,60.0,53.0
90,25.518894375,25.744525624999998,60.0,55.0
91,25.310619374999998,25.7497325,57.0,54.0
92,24.894069375,25.7775025,64.0,56.0
93,26.143719375,26.622751875,47.0,39.0
94,25.727169375,26.890038125,40.0,62.0
95,26.768544375,26.942106875,47.0,40.0
96,26.560269375,27.025416875,59.0,48.0
97,26.976819374999998,27.341300625,55.0,54.0
98,26.560269375,27.389898125,64.0,55.0
99,27.185094375,27.403783125,59.0,54.0
100,27.809919375,28.341020625,48.0,57.0
101,28.434744375,28.54756,48.0,44.0
102,27.393369375,28.59962875,41.0,48.0
103,28.226469375,28.6794675,57.0,53.0
104,28.643019374999998,29.035270625,53.0,57.0
105,28.226469375,29.035270625,60.0,54.0
106,28.851294375,29.040477499999998,57.0,58.0
107,29.476119375,29.982921875,43.0,49.0
108,29.892669375,30.368230625,60.0,58.0
109,29.059569375,30.378644375,36.0,56.0
110,30.100944375,30.630309999999998,43.0,42.0
111,30.309219374999998,30.715355625,55.0,56.0
112,30.517494375,30.7205625,60.0,54.0
113,29.892669375,30.753539375,64.0,58.0
114,31.142319375,31.656064375,45.0,42.0
115,30.725769375,31.834833749999998,38.0,47.0
116,31.767144375,31.963269999999998,45.0,44.0
117,31.558869375,32.07435,62.0,59.0
118,31.558869375,32.3728775,65.0,48.0
119,32.183694375,32.38329125,62.0,58.0
120,31.975419374999998,32.393705,57.0,55.0
121,32.600244375,33.254575,50.0,59.0
122,33.016794374999996,33.285816249999996,59.0,53.0
123,32.808519374999996,33.30664375,55.0,39.0
124,33.433344375,33.587815,50.0,43.0
125,32.391969375,33.6225275,43.0,56.0
126,33.225069375,33.995686875,62.0,66.0
127,33.641619375,34.019985625,59.0,43.0
128,33.849894375,34.04254875,55.0,45.0
129,34.682994375,34.943338125,55.0,39.0
130,34.474719375,34.95201625,48.0,56.0
131,34.058169375,35.19500375,36.0,58.0
132,34.266444375,35.214095625,43.0,48.0
133,35.099544375,35.29567,48.0,54.0
134,34.891269375,35.335589375,60.0,60.0
135,34.891269375,35.753875,64.0,61.0
136,35.516094375,35.755610625,60.0,53.0
137,35.307819375,35.800736875,55.0,58.0
138,36.140919375,36.571354375,55.0,51.0
139,35.932644375,36.58350375,50.0,49.0
140,35.724369375,36.967076875,43.0,59.0
141,36.349194374999996,37.036501875,59.0,55.0
142,36.765744375,37.2187425,50.0,40.0
143,36.974019375,37.3575925,55.0,56.0
144,37.182294375,37.369741875,59.0,54.0
145,36.557469375,37.407925625,62.0,69.0
146,37.807119375,38.279209375,57.0,42.0
147,37.598844375,38.317393125,52.0,36.0
148,37.390569375,38.37466875,45.0,50.0
149,38.223669375,39.0793325,60.0,64.0
150,38.223669375,39.08280375,64.0,60.0
151,38.640219375,39.119251874999996,57.0,43.0
152,39.473319375,40.007891875,47.0,45.0
153,39.056769375,40.01309875,40.0,57.0
154,39.889869374999996,40.407085625,55.0,57.0
155,40.306419375,40.69346375,52.0,48.0
156,40.514694375,40.719498125,55.0,63.0
157,39.889869374999996,40.747268125,59.0,66.0
158,41.139519375,41.656735624999996,48.0,40.0
159,41.764344375,41.9327,48.0,45.0
160,40.722969375,41.941378125,41.0,57.0
161,41.972619375,42.385698125,53.0,47.0
162,41.556069375,42.418675,57.0,66.0
163,41.556069375,42.427353124999996,60.0,59.0
164,42.389169375,43.284751875,48.0,55.0
165,42.805719375,43.291694375,55.0,56.0
166,43.430544375,43.558980625,48.0,39.0
167,43.222269374999996,43.876599999999996,64.0,58.0
168,43.638819375,43.88007125,55.0,61.0
169,43.222269374999996,43.90784125,60.0,64.0
170,44.055369375,44.48406875,65.0,52.0
171,44.055369375,44.537873125,62.0,38.0
172,44.055369375,44.65068875,38.0,45.0
173,44.055369375,44.697550625,57.0,43.0
174,44.888469375,45.24080125,43.0,37.0
175,44.888469375,45.417835,62.0,57.0
176,44.888469375,45.534121875,59.0,59.0
177,44.888469375,45.565363125,55.0,51.0
178,45.721569375,46.429704375,64.0,54.0
179,45.721569375,46.445325,60.0,52.0
180,45.721569375,46.48698,55.0,53.0
181,46.554669374999996,46.750795,55.0,37.0
182,46.138119375,46.8410475,43.0,32.0
183,45.721569375,46.863610625,36.0,56.0
184,46.762944375,47.028495,48.0,44.0
185,46.971219375,47.238505625,55.0,81.0
186,46.554669374999996,47.41380375,60.0,82.0
187,47.179494375,47.4381025,59.0,69.0
188,46.554669374999996,47.439838125,64.0,79.0
189,47.596044375,48.14276625,52.0,45.0
190,47.804319375,48.2712025,57.0,61.0
191,48.012594375,48.390960625,60.0,55.0
192,48.429144375,48.567994375,52.0,44.0
193,47.387769375,48.578408124999996,45.0,66.0
194,48.220869375,49.033141875,64.0,86.0
195,48.637419375,49.053969375,57.0,72.0
196,48.845694375,49.060911875,60.0,50.0
197,49.470519375,49.90616125,52.0,41.0
198,49.678794375,50.098815625,59.0,63.0
199,49.053969375,50.2428725,40.0,53.0
200,50.095344374999996,50.2428725,52.0,55.0
201,49.262244375,50.570905625,47.0,40.0
202,50.303619375,50.60735375,64.0,67.0
203,49.887069374999996,50.622974375,67.0,90.0
204,50.511894375,50.6871925,59.0,65.0
205,50.720169375,51.36408625,41.0,61.0
206,51.136719375,51.501200624999996,53.0,66.0
207,50.928444375,51.504671875,48.0,39.0
208,51.344994375,51.5202925,60.0,75.0
209,51.553269375,52.018416875,43.0,57.0
210,51.969819375,52.264875625,59.0,55.0
211,52.178094375,52.363806249999996,62.0,69.0
212,51.761544375,52.4089325,55.0,63.0
213,53.011194375,53.264595625,55.0,69.0
214,52.802919375,53.281951875,48.0,58.0
215,52.594644375,53.488491249999996,43.0,42.0
216,52.386369375,53.500640625,36.0,58.0
217,53.427744374999996,53.6446975,48.0,61.0
218,53.427744374999996,53.653375625,60.0,75.0
219,53.636019375,53.924133125,59.0,72.0
220,53.844294375,54.09248875,60.0,54.0
221,53.219469374999996,54.174063124999996,64.0,95.0
222,54.260844375,54.840543124999996,52.0,56.0
223,54.469119375,54.875255625,57.0,56.0
224,54.677394375,54.95335875,60.0,47.0
225,55.093944375,55.218909375,52.0,55.0
226,54.052569375,55.2414725,45.0,66.0
227,54.885669375,55.62331,64.0,95.0
228,55.302219375,55.671907499999996,60.0,85.0
229,55.510494375,55.746539375,57.0,71.0
230,56.135319375,56.652535625,52.0,56.0
231,56.343594375,56.76188,59.0,67.0
232,56.760144374999996,56.94585625,52.0,68.0
233,55.718769375,57.00833875,40.0,52.0
234,56.551869375,57.239176875,67.0,93.0
235,56.968419374999996,57.246119375,64.0,65.0
236,55.927044375,57.329429375,47.0,40.0
237,57.176694375,57.34852125,59.0,71.0
238,57.593244375,58.12608125,53.0,61.0
239,57.384969375,58.127816875,41.0,69.0
240,57.801519375,58.155586875,60.0,82.0
241,58.009794375,58.172943124999996,57.0,69.0
242,58.218069375,58.664125,43.0,66.0
243,58.634619375,58.9487675,59.0,72.0
244,58.426344375,59.052904999999996,55.0,72.0
245,58.842894375,59.0598475,62.0,77.0
246,59.467719375,59.94501625,48.0,76.0
247,59.675994375,60.172383124999996,55.0,78.0
248,59.051169375,60.17411875,36.0,63.0
249,59.259444375,60.191475,43.0,56.0
250,60.092544374999996,60.307761875,48.0,68.0
251,59.884269375,60.52818625,64.0,93.0
252,60.300819374999996,60.547278125,60.0,65.0
253,60.509094375,60.717369375,55.0,63.0
254,61.133919375,61.633779374999996,48.0,47.0
255,61.342194375,61.730974375,55.0,45.0
256,60.717369375,61.963548124999996,36.0,66.0
257,61.758744375,61.97222625,48.0,50.0
258,60.925644375,62.005203125,43.0,54.0
259,61.550469375,62.203064375,64.0,66.0
260,61.967019375,62.2395125,60.0,58.0
261,62.175294375,62.31588,55.0,38.0
262,62.383569375,62.928555625,62.0,51.0
263,62.383569375,62.959796875,55.0,53.0
264,62.383569375,63.083026249999996,43.0,50.0
265,62.383569375,63.0864975,59.0,65.0
266,63.216669375,63.678345625,64.0,55.0
267,63.216669375,63.8362875,57.0,53.0
268,63.216669375,63.855379375,45.0,44.0
269,63.216669375,63.886620625,60.0,52.0
270,64.049769375,64.72145625,43.0,35.0
271,64.049769375,64.82212249999999,59.0,44.0
272,64.049769375,64.830800625,55.0,38.0
273,64.049769375,64.84121437499999,62.0,45.0
274,66.132519375,66.448403125,53.0,66.0
275,65.924244375,66.57510375,48.0,58.0
276,66.340794375,66.745195,57.0,81.0
277,65.715969375,67.187779375,41.0,71.0
278,66.757344375,67.302330625,48.0,56.0
279,66.549069375,67.34224999999999,65.0,88.0
280,66.965619375,67.3630775,60.0,72.0
281,67.173894375,67.416881875,57.0,82.0
282,67.798719375,68.0434425,55.0,69.0
283,67.590444375,68.25518875,50.0,51.0
284,68.006994375,68.3072575,59.0,83.0
285,67.382169375,68.56760125,43.0,72.0
286,68.423544375,68.63702625,62.0,78.0
287,68.84009437499999,69.06399,62.0,59.0
288,68.63181937499999,69.086553125,59.0,36.0
289,68.215269375,69.08828875,67.0,92.0
290,69.464919375,69.79989499999999,52.0,66.0
291,69.256644375,69.971721875,47.0,50.0
292,69.673194375,70.082801875,55.0,69.0
293,69.048369375,70.162640625,40.0,72.0
294,70.089744375,70.339674375,59.0,68.0
295,70.298019375,70.659029375,55.0,79.0
296,70.506294375,70.73019,59.0,69.0
297,69.881469375,70.82738499999999,64.0,92.0
298,71.339394375,71.585853125,60.0,62.0
299,70.922844375,71.589324375,52.0,57.0
300,71.131119375,71.6257725,57.0,72.0
301,71.755944375,71.873966875,52.0,50.0
302,70.714569375,71.9312425,45.0,61.0
303,71.547669375,72.24712625,64.0,96.0
304,71.964219375,72.27663187499999,60.0,79.0
305,72.172494375,72.901456875,57.0,81.0
306,72.797319375,73.33709875,50.0,73.0
307,73.005594375,73.529753125,57.0,70.0
308,72.380769375,73.6529825,38.0,66.0
309,72.589044375,73.66339625,45.0,66.0
310,73.422144375,73.95498125,50.0,69.0
311,73.213869375,74.0001075,65.0,96.0
312,73.630419375,74.001843125,62.0,65.0
313,73.838694375,74.081681875,57.0,72.0
314,74.671794375,74.89221875,59.0,63.0
315,74.255244375,74.921724375,50.0,58.0
316,74.463519375,74.979,55.0,47.0
317,75.088344375,75.209838125,50.0,56.0
318,74.046969375,75.26017125,43.0,68.0
319,74.880069375,75.570848125,62.0,86.0
320,75.29661937499999,75.61423875,59.0,72.0
321,75.50489437499999,75.7357325,55.0,67.0
322,76.129719375,76.615694375,48.0,66.0
323,76.337994375,76.69726874999999,55.0,63.0
324,75.921444375,76.830911875,43.0,40.0
325,75.71316937499999,76.8604175,36.0,67.0
326,76.754544375,76.935049375,48.0,82.0
327,76.962819375,77.2630825,60.0,74.0
328,76.546269375,77.34986375,64.0,96.0
329,77.171094375,77.39151875,55.0,93.0
330,77.795919375,78.25238875,52.0,70.0
331,78.004194375,78.347848125,57.0,83.0
332,77.587644375,78.56480125,49.0,92.0
333,77.379369375,78.5891,45.0,89.0
334,78.420744375,78.625548125,52.0,78.0
335,78.629019375,78.97440875,61.0,83.0
336,78.212469375,78.98482249999999,64.0,97.0
337,78.837294375,79.09937375,57.0,83.0
338,79.462119375,79.701635625,53.0,82.0
339,79.253844375,79.99495625,48.0,67.0
340,79.670394375,80.097358125,57.0,79.0
341,79.045569375,80.5260575,41.0,69.0
342,80.086944375,80.6371375,48.0,53.0
343,80.295219375,80.670114375,60.0,83.0
344,79.878669375,80.685735,65.0,95.0
345,80.503494375,80.76383812499999,57.0,82.0
346,81.128319375,81.378249375,55.0,74.0
347,80.920044375,81.624708125,50.0,52.0
348,81.336594375,81.66115625,59.0,79.0
349,81.753144375,81.89720125,50.0,63.0
350,80.711769375,81.9145575,43.0,72.0
351,81.544869375,82.31375125,67.0,92.0
352,81.961419375,82.318958125,62.0,76.0
353,82.16969437499999,82.388383125,59.0,68.0
354,82.794519375,83.27181625,52.0,64.0
355,83.002794375,83.33429875,55.0,77.0
356,82.37796937499999,83.606791875,40.0,60.0
357,82.58624437499999,83.62588375,47.0,42.0
358,83.419344375,83.81333125,52.0,82.0
359,83.835894375,84.061525625,55.0,74.0
360,83.627619375,84.06326125,59.0,73.0
361,83.211069375,84.096238125,64.0,85.0
362,84.460719375,84.7470975,57.0,56.0
363,84.252444375,84.934545,52.0,39.0
364,84.668994375,85.00744125,60.0,60.0
365,84.044169375,85.189681875,45.0,59.0
366,85.085544375,85.19488875,52.0,48.0
367,84.877269375,85.616645625,64.0,88.0
368,85.293819375,85.6357375,60.0,73.0
369,85.502094375,85.720783125,57.0,62.0
370,86.126919375,86.602480625,50.0,58.0
371,86.335194375,86.69794,57.0,73.0
372,85.710369375,86.90968625,38.0,58.0
373,85.918644375,86.91662875,45.0,56.0
374,86.751744375,86.96349062499999,50.0,77.0
375,86.960019375,87.34706375,62.0,58.0
376,86.543469375,87.3713625,65.0,95.0
377,87.168294375,87.386983125,57.0,77.0
378,87.793119375,88.044785,55.0,61.0
379,88.001394375,88.2461175,59.0,59.0
380,87.584844375,88.268680625,50.0,48.0
381,88.417944375,88.497783125,50.0,33.0
382,87.376569375,88.556794375,43.0,56.0
383,88.209669375,88.97160875,62.0,85.0
384,88.626219375,88.988965,59.0,67.0
385,88.834494375,89.053183125,55.0,63.0
386,89.45931937499999,89.959179375,48.0,52.0
387,89.667594375,89.98521375,55.0,57.0
388,89.25104437499999,90.025133125,43.0,39.0
389,89.04276937499999,90.05811,36.0,60.0
390,89.875869375,90.358373125,64.0,78.0
391,90.292419375,90.5787975,55.0,60.0
392,90.708969375,91.75555125,53.0,40.0
393,90.708969375,91.83886125,41.0,52.0
394,90.708969375,92.309215625,56.0,47.0
395,90.708969375,92.347399375,60.0,42.0
396,91.958619375,92.420295625,55.0,47.0
397,92.375169375,93.49811875,36.0,61.0
398,92.791719375,93.503325625,43.0,49.0
399,93.208269375,93.628290625,60.0,64.0
400,93.208269375,93.64044,64.0,59.0
401,93.416544375,93.6890375,48.0,56.0
402,93.624819375,93.881691875,55.0,51.0
403,94.041369375,95.60169625,41.0,34.0
404,94.041369375,95.627730625,56.0,51.0
405,94.041369375,95.6329375,48.0,46.0
406,94.041369375,95.63467312499999,53.0,45.0
407,94.041369375,95.65029375,60.0,53.0
408,96.12411937499999,96.801013125,43.0,27.0
409,96.540669375,96.80622,48.0,37.0
410,95.70756937499999,96.8409325,36.0,54.0
411,96.957219375,97.41716,55.0,39.0
412,96.540669375,97.43798749999999,60.0,50.0
413,96.540669375,97.44493,64.0,52.0
414,97.790319375,98.265880625,50.0,34.0
415,97.373769375,98.65639625,43.0,60.0
416,98.206869375,98.72582125,59.0,45.0
417,98.415144375,98.810866875,50.0,44.0
418,98.623419375,98.991371875,55.0,56.0
419,98.831694375,99.04517625,59.0,52.0
420,98.206869375,99.064268125,62.0,47.0
421,99.456519375,99.94075875,52.0,48.0
422,100.081344375,100.192424375,52.0,50.0
423,99.039969375,100.223665625,45.0,48.0
424,99.873069375,100.365986875,60.0,53.0
425,100.497894375,100.723525625,60.0,55.0
426,100.289619375,100.72873249999999,57.0,54.0
427,99.873069375,100.7565025,64.0,56.0
428,101.122719375,101.601751875,47.0,39.0
429,100.706169375,101.869038125,40.0,62.0
430,101.747544375,101.92110687499999,47.0,40.0
431,101.539269375,102.004416875,59.0,48.0
432,101.955819375,102.320300625,55.0,54.0
433,101.539269375,102.368898125,64.0,55.0
434,102.164094375,102.382783125,59.0,54.0
435,102.78891937499999,103.320020625,48.0,57.0
436,103.413744375,103.52656,48.0,44.0
437,102.372369375,103.57862875,41.0,48.0
438,103.20546937499999,103.6584675,57.0,53.0
439,103.622019375,104.014270625,53.0,57.0
440,103.20546937499999,104.014270625,60.0,54.0
441,103.830294375,104.0194775,57.0,58.0
442,104.455119375,104.961921875,43.0,49.0
443,104.871669375,105.347230625,60.0,58.0
444,104.038569375,105.35764437499999,36.0,56.0
445,105.079944375,105.60931,43.0,42.0
446,105.288219375,105.694355625,55.0,56.0
447,105.496494375,105.6995625,60.0,54.0
448,104.871669375,105.732539375,64.0,58.0
449,106.121319375,106.635064375,45.0,42.0
450,105.704769375,106.81383375,38.0,47.0
451,106.746144375,106.94227,45.0,44.0
452,106.537869375,107.05335,62.0,59.0
453,106.537869375,107.3518775,65.0,48.0
454,107.162694375,107.36229125,62.0,58.0
455,106.954419375,107.372705,57.0,55.0
456,107.579244375,108.233575,50.0,59.0
457,107.995794375,108.26481625,59.0,53.0
458,107.787519375,108.28564374999999,55.0,39.0
459,108.412344375,108.56681499999999,50.0,43.0
460,107.370969375,108.6015275,43.0,56.0
461,108.204069375,108.974686875,62.0,66.0
462,108.620619375,108.998985625,59.0,43.0
463,108.828894375,109.02154875,55.0,45.0
464,109.66199437499999,109.922338125,55.0,39.0
465,109.45371937499999,109.93101625,48.0,56.0
466,109.037169375,110.17400375,36.0,58.0
467,109.245444375,110.193095625,43.0,48.0
468,110.07854437499999,110.27467,48.0,54.0
469,109.87026937499999,110.314589375,60.0,60.0
470,109.87026937499999,110.73287499999999,64.0,61.0
471,110.495094375,110.734610625,60.0,53.0
472,110.286819375,110.779736875,55.0,58.0
473,111.119919375,111.550354375,55.0,51.0
474,110.911644375,111.56250375,50.0,49.0
475,110.703369375,111.946076875,43.0,59.0
476,111.328194375,112.015501875,59.0,55.0
477,111.744744375,112.1977425,50.0,40.0
478,111.953019375,112.3365925,55.0,56.0
479,112.161294375,112.348741875,59.0,54.0
480,111.536469375,112.386925625,62.0,69.0
481,112.786119375,113.25820937499999,57.0,42.0
482,112.577844375,113.296393125,52.0,36.0
483,112.369569375,113.35366875,45.0,50.0
484,113.202669375,114.05833249999999,60.0,64.0
485,113.202669375,114.06180375,64.0,60.0
486,113.619219375,114.098251875,57.0,43.0
487,114.452319375,114.986891875,47.0,45.0
488,114.035769375,114.99209875,40.0,57.0
489,114.868869375,115.38608562499999,55.0,57.0
490,115.285419375,115.67246374999999,52.0,48.0
491,115.493694375,115.698498125,55.0,63.0
492,114.868869375,115.726268125,59.0,66.0
493,116.11851937499999,116.635735625,48.0,40.0
494,116.74334437499999,116.9117,48.0,45.0
495,115.701969375,116.920378125,41.0,57.0
496,116.95161937499999,117.364698125,53.0,47.0
497,116.53506937499999,117.39767499999999,57.0,66.0
498,116.53506937499999,117.406353125,60.0,59.0
499,117.368169375,118.263751875,48.0,55.0
500,117.784719375,118.270694375,55.0,56.0
501,118.409544375,118.537980625,48.0,39.0
502,118.201269375,118.8556,64.0,58.0
503,118.617819375,118.85907125,55.0,61.0
504,118.201269375,118.88684125,60.0,64.0
505,119.034369375,119.46306875,65.0,52.0
506,119.034369375,119.516873125,62.0,38.0
507,119.034369375,119.62968875,38.0,45.0
508,119.034369375,119.676550625,57.0,43.0
509,119.867469375,120.21980125,43.0,37.0
510,119.867469375,120.396835,62.0,57.0
511,119.867469375,120.513121875,59.0,59.0
512,119.867469375,120.544363125,55.0,51.0
513,120.700569375,121.408704375,64.0,54.0
514,120.700569375,121.424325,60.0,52.0
515,120.700569375,121.46598,55.0,53.0
516,121.533669375,121.729795,55.0,37.0
517,121.117119375,121.8200475,43.0,32.0
518,120.700569375,121.84261062499999,36.0,56.0
519,121.741944375,122.00749499999999,48.0,44.0
520,121.950219375,122.217505625,55.0,81.0
521,121.533669375,122.39280375,60.0,82.0
522,122.158494375,122.4171025,59.0,69.0
523,121.533669375,122.418838125,64.0,79.0
524,122.575044375,123.12176625,52.0,45.0
525,122.783319375,123.2502025,57.0,61.0
526,122.99159437499999,123.369960625,60.0,55.0
527,123.40814437499999,123.546994375,52.0,44.0
528,122.366769375,123.557408125,45.0,66.0
529,123.19986937499999,124.012141875,64.0,86.0
530,123.61641937499999,124.032969375,57.0,72.0
531,123.82469437499999,124.039911875,60.0,50.0
532,124.449519375,124.88516125,52.0,41.0
533,124.657794375,125.077815625,59.0,63.0
534,124.032969375,125.2218725,40.0,53.0
535,125.074344375,125.2218725,52.0,55.0
536,124.241244375,125.549905625,47.0,40.0
537,125.282619375,125.58635375,64.0,67.0
538,124.866069375,125.601974375,67.0,90.0
539,125.490894375,125.6661925,59.0,65.0
540,125.699169375,126.34308625,41.0,61.0
541,126.115719375,126.480200625,53.0,66.0
542,125.907444375,126.483671875,48.0,39.0
543,126.323994375,126.4992925,60.0,75.0
544,126.532269375,126.997416875,43.0,57.0
545,126.948819375,127.243875625,59.0,55.0
546,127.157094375,127.34280625,62.0,69.0
547,126.740544375,127.38793249999999,55.0,63.0
548,127.990194375,128.243595625,55.0,69.0
549,127.781919375,128.260951875,48.0,58.0
550,127.573644375,128.46749125,43.0,42.0
551,127.365369375,128.479640625,36.0,58.0
552,128.406744375,128.6236975,48.0,61.0
553,128.406744375,128.632375625,60.0,75.0
554,128.615019375,128.903133125,59.0,72.0
555,128.823294375,129.07148875,60.0,54.0
556,128.198469375,129.153063125,64.0,95.0
557,129.239844375,129.819543125,52.0,56.0
558,129.448119375,129.854255625,57.0,56.0
559,129.656394375,129.93235875,60.0,47.0
560,130.072944375,130.197909375,52.0,55.0
561,129.031569375,130.2204725,45.0,66.0
562,129.864669375,130.60231,64.0,95.0
563,130.281219375,130.6509075,60.0,85.0
564,130.489494375,130.725539375,57.0,71.0
565,131.114319375,131.631535625,52.0,56.0
566,131.322594375,131.74088,59.0,67.0
567,131.739144375,131.92485625,52.0,68.0
568,130.697769375,131.98733875,40.0,52.0
569,131.530869375,132.218176875,67.0,93.0
570,131.947419375,132.225119375,64.0,65.0
571,130.906044375,132.308429375,47.0,40.0
572,132.155694375,132.32752125,59.0,71.0
573,132.572244375,133.10508125,53.0,61.0
574,132.363969375,133.106816875,41.0,69.0
575,132.780519375,133.134586875,60.0,82.0
576,132.988794375,133.151943125,57.0,69.0
577,133.19706937499998,133.643125,43.0,66.0
578,133.61361937499998,133.9277675,59.0,72.0
579,133.405344375,134.031905,55.0,72.0
580,133.821894375,134.0388475,62.0,77.0
581,134.446719375,134.92401625,48.0,76.0
582,134.654994375,135.151383125,55.0,78.0
583,134.03016937499999,135.15311875,36.0,63.0
584,134.238444375,135.170475,43.0,56.0
585,135.071544375,135.286761875,48.0,68.0
586,134.863269375,135.50718625,64.0,93.0
587,135.279819375,135.526278125,60.0,65.0
588,135.488094375,135.696369375,55.0,63.0
589,136.112919375,136.612779375,48.0,47.0
590,136.321194375,136.709974375,55.0,45.0
591,135.696369375,136.942548125,36.0,66.0
592,136.737744375,136.95122625,48.0,50.0
593,135.904644375,136.984203125,43.0,54.0
594,136.529469375,137.182064375,64.0,66.0
595,136.946019375,137.2185125,60.0,58.0
596,137.154294375,137.29488,55.0,38.0
597,137.362569375,137.907555625,62.0,51.0
598,137.362569375,137.938796875,55.0,53.0
599,137.362569375,138.06202625,43.0,50.0
600,137.362569375,138.0654975,59.0,65.0
601,138.195669375,138.657345625,64.0,55.0
602,138.195669375,138.8152875,57.0,53.0
603,138.195669375,138.834379375,45.0,44.0
604,138.195669375,138.865620625,60.0,52.0
605,139.028769375,139.70045625,43.0,35.0
606,139.028769375,139.8011225,59.0,44.0
607,139.028769375,139.809800625,55.0,38.0
608,139.028769375,139.820214375,62.0,45.0
609,141.111519375,141.42740312499998,53.0,66.0
610,140.90324437499999,141.55410375,48.0,58.0
611,141.319794375,141.724195,57.0,81.0
612,140.694969375,142.166779375,41.0,71.0
613,141.736344375,142.281330625,48.0,56.0
614,141.528069375,142.32125,65.0,88.0
615,141.944619375,142.3420775,60.0,72.0
616,142.152894375,142.395881875,57.0,82.0
617,142.777719375,143.0224425,55.0,69.0
618,142.569444375,143.23418875,50.0,51.0
619,142.985994375,143.2862575,59.0,83.0
620,142.361169375,143.54660125,43.0,72.0
621,143.402544375,143.61602625,62.0,78.0
622,143.819094375,144.04299,62.0,59.0
623,143.610819375,144.065553125,59.0,36.0
624,143.194269375,144.06728875,67.0,92.0
625,144.443919375,144.778895,52.0,66.0
626,144.235644375,144.950721875,47.0,50.0
627,144.652194375,145.061801875,55.0,69.0
628,144.027369375,145.141640625,40.0,72.0
629,145.068744375,145.318674375,59.0,68.0
630,145.277019375,145.638029375,55.0,79.0
631,145.485294375,145.70919,59.0,69.0
632,144.860469375,145.806385,64.0,92.0
633,146.318394375,146.56485312499998,60.0,62.0
634,145.901844375,146.568324375,52.0,57.0
635,146.110119375,146.6047725,57.0,72.0
636,146.734944375,146.852966875,52.0,50.0
637,145.693569375,146.9102425,45.0,61.0
638,146.526669375,147.22612625,64.0,96.0
639,146.94321937499998,147.255631875,60.0,79.0
640,147.151494375,147.880456875,57.0,81.0
641,147.77631937499999,148.31609875,50.0,73.0
642,147.984594375,148.508753125,57.0,70.0
643,147.35976937499998,148.6319825,38.0,66.0
644,147.568044375,148.64239625,45.0,66.0
645,148.401144375,148.93398125,50.0,69.0
646,148.192869375,148.9791075,65.0,96.0
647,148.609419375,148.980843125,62.0,65.0
648,148.817694375,149.060681875,57.0,72.0
649,149.650794375,149.87121875,59.0,63.0
650,149.234244375,149.900724375,50.0,58.0
651,149.442519375,149.958,55.0,47.0
652,150.067344375,150.188838125,50.0,56.0
653,149.025969375,150.23917125,43.0,68.0
654,149.859069375,150.549848125,62.0,86.0
655,150.275619375,150.59323874999998,59.0,72.0
656,150.483894375,150.7147325,55.0,67.0
657,151.108719375,151.594694375,48.0,66.0
658,151.316994375,151.67626875,55.0,63.0
659,150.900444375,151.809911875,43.0,40.0
660,150.692169375,151.8394175,36.0,67.0
661,151.733544375,151.914049375,48.0,82.0
662,151.941819375,152.2420825,60.0,74.0
663,151.525269375,152.32886375,64.0,96.0
664,152.150094375,152.37051875,55.0,93.0
665,152.774919375,153.23138875,52.0,70.0
666,152.983194375,153.326848125,57.0,83.0
667,152.566644375,153.54380125,49.0,92.0
668,152.358369375,153.5681,45.0,89.0
669,153.399744375,153.604548125,52.0,78.0
670,153.608019375,153.95340875,61.0,83.0
671,153.191469375,153.9638225,64.0,97.0
672,153.81629437499998,154.07837375,57.0,83.0
673,154.441119375,154.680635625,53.0,82.0
674,154.23284437499998,154.97395625,48.0,67.0
675,154.64939437499999,155.07635812499998,57.0,79.0
676,154.024569375,155.5050575,41.0,69.0
677,155.065944375,155.6161375,48.0,53.0
678,155.274219375,155.649114375,60.0,83.0
679,154.857669375,155.664735,65.0,95.0
680,155.482494375,155.742838125,57.0,82.0
681,156.107319375,156.357249375,55.0,74.0
682,155.899044375,156.603708125,50.0,52.0
683,156.315594375,156.64015625,59.0,79.0
684,156.732144375,156.87620125,50.0,63.0
685,155.690769375,156.8935575,43.0,72.0
686,156.523869375,157.29275125,67.0,92.0
687,156.940419375,157.297958125,62.0,76.0
688,157.148694375,157.367383125,59.0,68.0
689,157.773519375,158.25081624999999,52.0,64.0
690,157.981794375,158.31329875,55.0,77.0
691,157.356969375,158.58579187499998,40.0,60.0
692,157.565244375,158.60488375,47.0,42.0
693,158.398344375,158.79233125,52.0,82.0
694,158.814894375,159.040525625,55.0,74.0
695,158.606619375,159.04226125,59.0,73.0
696,158.190069375,159.075238125,64.0,85.0
697,159.439719375,159.7260975,57.0,56.0
698,159.231444375,159.913545,52.0,39.0
699,159.647994375,159.98644124999998,60.0,60.0
700,159.023169375,160.168681875,45.0,59.0
701,160.064544375,160.17388875,52.0,48.0
702,159.856269375,160.595645625,64.0,88.0
703,160.27281937499998,160.6147375,60.0,73.0
704,160.481094375,160.699783125,57.0,62.0
705,161.10591937499998,161.58148062499998,50.0,58.0
706,161.314194375,161.67694,57.0,73.0
707,160.68936937499998,161.88868625,38.0,58.0
708,160.897644375,161.89562875,45.0,56.0
709,161.730744375,161.942490625,50.0,77.0
710,161.939019375,162.32606375,62.0,58.0
711,161.522469375,162.3503625,65.0,95.0
712,162.147294375,162.36598312499999,57.0,77.0
713,162.772119375,163.023785,55.0,61.0
714,162.980394375,163.2251175,59.0,59.0
715,162.563844375,163.247680625,50.0,48.0
716,163.396944375,163.476783125,50.0,33.0
717,162.355569375,163.535794375,43.0,56.0
718,163.188669375,163.95060875,62.0,85.0
719,163.605219375,163.967965,59.0,67.0
720,163.813494375,164.032183125,55.0,63.0
721,164.438319375,164.938179375,48.0,52.0
722,164.646594375,164.96421375,55.0,57.0
723,164.230044375,165.004133125,43.0,39.0
724,164.021769375,165.03710999999998,36.0,60.0
725,164.854869375,165.337373125,64.0,78.0
726,165.271419375,165.5577975,55.0,60.0
727,165.896244375,166.566195625,48.0,47.0
728,166.104519375,166.607850625,53.0,43.0
729,166.729344375,166.85257375,48.0,55.0
730,165.687969375,166.8629875,41.0,64.0
731,166.937619375,167.28995125,56.0,66.0
732,167.14589437499998,167.333341875,53.0,58.0
733,167.770719375,168.21156812499999,48.0,55.0
734,167.56244437499998,168.47711875,43.0,55.0
735,167.354169375,168.485796875,36.0,69.0
736,168.395544375,168.614233125,48.0,71.0
737,168.603819375,168.853749375,55.0,76.0
738,169.020369375,169.544528125,56.0,74.0
739,169.020369375,169.551470625,60.0,72.0
740,169.020369375,169.561884375,53.0,88.0
741,169.645194375,169.731975625,60.0,54.0
742,169.645194375,169.759745625,56.0,59.0
743,169.436919375,169.961078125,48.0,72.0
744,170.061744375,170.165881875,48.0,75.0
745,169.020369375,170.183238125,41.0,68.0
746,169.853469375,170.32035249999998,56.0,122.0
747,170.270019375,170.610201875,53.0,90.0
748,170.478294375,170.631029375,56.0,102.0
749,169.853469375,170.63623625,60.0,97.0
750,171.523140625,171.8963,48.0,86.0
751,171.519669375,172.227804375,55.0,86.0
752,170.686569375,172.231275625,36.0,95.0
753,171.103119375,172.307643125,43.0,89.0
754,171.519669375,172.324999375,64.0,107.0
755,171.965725,172.404838125,48.0,97.0
756,172.769319375,173.425385625,50.0,64.0
757,173.165041875,173.550350625,62.0,88.0
758,173.165041875,173.560764375,59.0,90.0
759,172.352769375,173.56597125,43.0,81.0
760,173.165041875,173.6388675,55.0,86.0
761,173.602419375,173.6388675,55.0,93.0
762,174.43551937499998,174.734046875,57.0,76.0
763,174.643794375,174.78438,64.0,66.0
764,174.643794375,174.798265,60.0,68.0
765,174.438990625,175.122826875,52.0,48.0
766,175.060344375,175.122826875,52.0,71.0
767,174.01896937499998,175.20093,45.0,74.0
768,174.85206937499999,175.303331875,60.0,86.0
769,175.268619375,175.633100625,57.0,83.0
770,174.85206937499999,175.63483625,64.0,97.0
771,176.521740625,176.80811875,59.0,71.0
772,176.5130625,176.903578125,52.0,75.0
773,176.726544375,176.903578125,52.0,93.0
774,176.518269375,176.97821,64.0,93.0
775,175.685169375,177.097968125,40.0,69.0
776,177.143094375,177.337484375,64.0,92.0
777,176.518269375,177.340955625,67.0,96.0
778,176.934819375,177.38261062499998,59.0,90.0
779,176.0965125,177.563115625,47.0,43.0
780,178.17579125,178.4430775,53.0,82.0
781,178.17579125,178.44654875,57.0,78.0
782,177.767919375,178.462169375,48.0,53.0
783,177.351369375,178.55068624999998,41.0,85.0
784,178.184469375,178.98806375,60.0,112.0
785,178.601019375,178.989799375,57.0,92.0
786,178.809294375,179.01583374999998,53.0,73.0
787,179.8454625,180.104070625,55.0,102.0
788,179.017569375,180.17523125,36.0,78.0
789,179.850669375,180.28110437499998,60.0,97.0
790,179.84893375,180.312345625,48.0,90.0
791,179.850669375,180.326230625,64.0,97.0
792,179.43759062499998,180.3869775,43.0,81.0
793,180.267219375,180.680298125,55.0,93.0
794,180.683769375,181.73035124999998,38.0,83.0
795,181.520340625,181.884821875,57.0,83.0
796,181.5116625,181.95771812499999,50.0,85.0
797,181.103790625,181.985488125,45.0,82.0
798,181.933419375,182.3031075,62.0,90.0
799,181.516869375,182.3031075,65.0,97.0
800,182.141694375,182.311785625,57.0,77.0
801,182.974794375,183.106701875,62.0,76.0
802,182.974794375,183.110173125,67.0,86.0
803,182.974794375,183.110173125,71.0,82.0
804,182.974794375,183.235138125,55.0,88.0
805,182.766519375,183.4972175,50.0,82.0
806,183.391344375,183.4972175,50.0,72.0
807,182.349969375,183.505895625,43.0,78.0
808,183.183069375,183.616975625,67.0,100.0
809,183.183069375,183.995341875,71.0,99.0
810,183.807894375,184.0109625,67.0,99.0
811,183.599619375,184.02831875,62.0,102.0
812,184.016169375,185.09746375,36.0,69.0
813,184.8440625,185.307474375,48.0,82.0
814,184.432719375,185.33177312499998,43.0,68.0
815,184.852740625,185.38210625,55.0,83.0
816,185.265819375,185.626829375,60.0,100.0
817,185.474094375,185.65633499999998,55.0,92.0
818,184.849269375,185.65980625,64.0,102.0
819,186.50679125,186.820939375,55.0,88.0
820,186.102390625,186.845238125,50.0,74.0
821,186.50332,186.855651875,59.0,86.0
822,185.682369375,187.015329375,43.0,73.0
823,186.515469375,187.30517875,67.0,99.0
824,186.932019375,187.322535,62.0,90.0
825,188.17299125,188.372588125,57.0,78.0
826,188.185140625,188.4263925,60.0,88.0
827,187.768590625,188.43680625,52.0,71.0
828,187.348569375,188.521851875,45.0,81.0
829,188.59821937499999,188.997413125,60.0,85.0
830,188.18166937499998,188.99914875,64.0,89.0
831,189.851340625,190.215821875,59.0,85.0
832,189.854811875,190.33210875,52.0,90.0
833,189.014769375,190.38244187499998,40.0,79.0
834,190.264419375,190.627165,64.0,90.0
835,189.847869375,190.63757875,67.0,100.0
836,189.42264125,190.8146125,47.0,81.0
837,191.50191999999998,191.854251875,57.0,78.0
838,190.680969375,191.878550625,41.0,78.0
839,191.51233375,191.9531825,53.0,86.0
840,191.097519375,192.0364925,48.0,73.0
841,191.514069375,192.232618125,65.0,96.0
842,191.930619375,192.367996875,60.0,86.0
843,192.347169375,193.50136,36.0,75.0
844,193.180269375,193.55342875,55.0,83.0
845,193.17853374999999,193.683600625,48.0,88.0
846,192.770661875,193.735669375,43.0,68.0
847,193.596819375,193.93526624999998,60.0,95.0
848,193.180269375,193.950886875,64.0,96.0
849,193.805094375,193.9803925,55.0,89.0
850,194.429919375,194.62778062499999,53.0,93.0
851,194.013369375,194.73538937499998,41.0,72.0
852,194.221644375,194.78919375,48.0,69.0
853,194.63819437499998,194.801343125,57.0,92.0
854,194.846469375,195.308145625,43.0,83.0
855,195.263019375,195.56675375,59.0,74.0
856,195.05474437499998,195.62923625,55.0,71.0
857,195.47129437499999,195.63617875,62.0,82.0
858,196.096119375,196.568209375,48.0,88.0
859,196.304394375,196.68796749999998,55.0,74.0
860,196.720944375,196.9240125,48.0,90.0
861,197.137494375,197.199976875,59.0,54.0
862,195.887844375,197.29543625,43.0,68.0
863,195.679569375,197.300643125,36.0,79.0
864,197.137494375,197.33014875,57.0,54.0
865,196.512669375,197.363125625,64.0,96.0
866,196.929219375,197.366596875,60.0,86.0
867,197.554044375,198.10076625,52.0,45.0
868,197.762319375,198.22920249999999,57.0,61.0
869,197.970594375,198.348960625,60.0,55.0
870,198.387144375,198.525994375,52.0,44.0
871,197.345769375,198.536408125,45.0,66.0
872,198.178869375,198.991141875,64.0,86.0
873,198.595419375,199.011969375,57.0,72.0
874,198.803694375,199.018911875,60.0,50.0
875,199.428519375,199.86416125,52.0,41.0
876,199.636794375,200.05681562499998,59.0,63.0
877,199.011969375,200.2008725,40.0,53.0
878,200.053344375,200.2008725,52.0,55.0
879,199.220244375,200.528905625,47.0,40.0
880,200.261619375,200.56535374999999,64.0,67.0
881,199.845069375,200.580974375,67.0,90.0
882,200.469894375,200.6451925,59.0,65.0
883,200.678169375,201.32208624999998,41.0,61.0
884,201.09471937499998,201.459200625,53.0,66.0
885,200.886444375,201.46267187499998,48.0,39.0
886,201.302994375,201.4782925,60.0,75.0
887,201.51126937499998,201.97641687499998,43.0,57.0
888,201.92781937499998,202.222875625,59.0,55.0
889,202.136094375,202.32180625,62.0,69.0
890,201.719544375,202.3669325,55.0,63.0
891,202.969194375,203.222595625,55.0,69.0
892,202.760919375,203.239951875,48.0,58.0
893,202.552644375,203.44649125,43.0,42.0
894,202.34436937499999,203.458640625,36.0,58.0
895,203.385744375,203.6026975,48.0,61.0
896,203.385744375,203.611375625,60.0,75.0
897,203.594019375,203.882133125,59.0,72.0
898,203.802294375,204.05048875,60.0,54.0
899,203.177469375,204.132063125,64.0,95.0
900,204.218844375,204.798543125,52.0,56.0
901,204.427119375,204.833255625,57.0,56.0
902,204.635394375,204.91135875,60.0,47.0
903,205.051944375,205.176909375,52.0,55.0
904,204.010569375,205.19947249999998,45.0,66.0
905,204.843669375,205.58131,64.0,95.0
906,205.260219375,205.6299075,60.0,85.0
907,205.468494375,205.704539375,57.0,71.0
908,206.093319375,206.61053562499998,52.0,56.0
909,206.301594375,206.71988,59.0,67.0
910,206.718144375,206.90385625,52.0,68.0
911,205.676769375,206.96633875,40.0,52.0
912,206.509869375,207.197176875,67.0,93.0
913,206.926419375,207.204119375,64.0,65.0
914,205.885044375,207.287429375,47.0,40.0
915,207.134694375,207.30652125,59.0,71.0
916,207.551244375,208.08408125,53.0,61.0
917,207.342969375,208.085816875,41.0,69.0
918,207.759519375,208.113586875,60.0,82.0
919,207.96779437499998,208.130943125,57.0,69.0
920,208.176069375,208.62212499999998,43.0,66.0
921,208.592619375,208.9067675,59.0,72.0
922,208.38434437499998,209.010905,55.0,72.0
923,208.80089437499998,209.0178475,62.0,77.0
924,209.425719375,209.90301625,48.0,76.0
925,209.633994375,210.130383125,55.0,78.0
926,209.009169375,210.13211875,36.0,63.0
927,209.21744437499999,210.149475,43.0,56.0
928,210.050544375,210.265761875,48.0,68.0
929,209.842269375,210.48618625,64.0,93.0
930,210.258819375,210.505278125,60.0,65.0
931,210.467094375,210.675369375,55.0,63.0
932,211.091919375,211.591779375,48.0,47.0
933,211.300194375,211.688974375,55.0,45.0
934,210.675369375,211.921548125,36.0,66.0
935,211.716744375,211.93022625,48.0,50.0
936,210.883644375,211.963203125,43.0,54.0
937,211.508469375,212.161064375,64.0,66.0
938,211.925019375,212.1975125,60.0,58.0
939,212.133294375,212.27388,55.0,38.0
940,212.341569375,212.886555625,62.0,51.0
941,212.341569375,212.917796875,55.0,53.0
942,212.341569375,213.04102625,43.0,50.0
943,212.341569375,213.0444975,59.0,65.0
944,213.174669375,213.636345625,64.0,55.0
945,213.174669375,213.7942875,57.0,53.0
946,213.174669375,213.81337937499998,45.0,44.0
947,213.174669375,213.844620625,60.0,52.0
948,214.007769375,214.67945625,43.0,35.0
949,214.007769375,214.7801225,59.0,44.0
950,214.007769375,214.788800625,55.0,38.0
951,214.007769375,214.799214375,62.0,45.0
952,216.09051937499999,216.406403125,53.0,66.0
953,215.882244375,216.53310375,48.0,58.0
954,216.298794375,216.703195,57.0,81.0
955,215.67396937499998,217.145779375,41.0,71.0
956,216.715344375,217.260330625,48.0,56.0
957,216.507069375,217.30025,65.0,88.0
958,216.923619375,217.3210775,60.0,72.0
959,217.131894375,217.374881875,57.0,82.0
960,217.756719375,218.0014425,55.0,69.0
961,217.548444375,218.21318875,50.0,51.0
962,217.964994375,218.2652575,59.0,83.0
963,217.340169375,218.52560125,43.0,72.0
964,218.381544375,218.59502625,62.0,78.0
965,218.798094375,219.02199,62.0,59.0
966,218.589819375,219.044553125,59.0,36.0
967,218.173269375,219.04628875,67.0,92.0
968,219.422919375,219.757895,52.0,66.0
969,219.214644375,219.92972187499998,47.0,50.0
970,219.631194375,220.040801875,55.0,69.0
971,219.006369375,220.120640625,40.0,72.0
972,220.047744375,220.29767437499999,59.0,68.0
973,220.256019375,220.617029375,55.0,79.0
974,220.464294375,220.68819,59.0,69.0
975,219.839469375,220.785385,64.0,92.0
976,221.297394375,221.543853125,60.0,62.0
977,220.880844375,221.547324375,52.0,57.0
978,221.089119375,221.5837725,57.0,72.0
979,221.71394437499998,221.831966875,52.0,50.0
980,220.672569375,221.8892425,45.0,61.0
981,221.505669375,222.20512625,64.0,96.0
982,221.922219375,222.234631875,60.0,79.0
983,222.13049437499998,222.859456875,57.0,81.0
984,222.755319375,223.29509875,50.0,73.0
985,222.96359437499999,223.48775312499998,57.0,70.0
986,222.338769375,223.6109825,38.0,66.0
987,222.54704437499998,223.62139625,45.0,66.0
988,223.380144375,223.91298125,50.0,69.0
989,223.171869375,223.95810749999998,65.0,96.0
990,223.588419375,223.959843125,62.0,65.0
991,223.796694375,224.03968187499999,57.0,72.0
992,224.629794375,224.85021875,59.0,63.0
993,224.213244375,224.879724375,50.0,58.0
994,224.421519375,224.93699999999998,55.0,47.0
995,225.046344375,225.167838125,50.0,56.0
996,224.004969375,225.21817124999998,43.0,68.0
997,224.838069375,225.528848125,62.0,86.0
998,225.254619375,225.57223875,59.0,72.0
999,225.462894375,225.6937325,55.0,67.0
1000,226.087719375,226.573694375,48.0,66.0
1001,226.295994375,226.65526875,55.0,63.0
1002,225.879444375,226.788911875,43.0,40.0
1003,225.671169375,226.8184175,36.0,67.0
1004,226.712544375,226.893049375,48.0,82.0
1005,226.920819375,227.2210825,60.0,74.0
1006,226.504269375,227.30786375,64.0,96.0
1007,227.129094375,227.34951875,55.0,93.0
1008,227.753919375,228.21038875,52.0,70.0
1009,227.962194375,228.30584812499998,57.0,83.0
1010,227.545644375,228.52280125,49.0,92.0
1011,227.337369375,228.5471,45.0,89.0
1012,228.378744375,228.583548125,52.0,78.0
1013,228.58701937499998,228.93240875,61.0,83.0
1014,228.170469375,228.9428225,64.0,97.0
1015,228.795294375,229.05737374999998,57.0,83.0
1016,229.42011937499998,229.659635625,53.0,82.0
1017,229.211844375,229.95295625,48.0,67.0
1018,229.628394375,230.055358125,57.0,79.0
1019,229.00356937499998,230.4840575,41.0,69.0
1020,230.044944375,230.5951375,48.0,53.0
1021,230.253219375,230.628114375,60.0,83.0
1022,229.83666937499999,230.643735,65.0,95.0
1023,230.461494375,230.721838125,57.0,82.0
1024,231.086319375,231.336249375,55.0,74.0
1025,230.878044375,231.58270812499998,50.0,52.0
1026,231.294594375,231.61915625,59.0,79.0
1027,231.711144375,231.85520125,50.0,63.0
1028,230.669769375,231.8725575,43.0,72.0
1029,231.502869375,232.27175125,67.0,92.0
1030,231.919419375,232.276958125,62.0,76.0
1031,232.127694375,232.346383125,59.0,68.0
1032,232.752519375,233.22981625,52.0,64.0
1033,232.960794375,233.29229875,55.0,77.0
1034,232.335969375,233.564791875,40.0,60.0
1035,232.544244375,233.58388374999998,47.0,42.0
1036,233.377344375,233.77133125,52.0,82.0
1037,233.793894375,234.019525625,55.0,74.0
1038,233.585619375,234.02126125,59.0,73.0
1039,233.169069375,234.05423812499998,64.0,85.0
1040,234.418719375,234.7050975,57.0,56.0
1041,234.210444375,234.89254499999998,52.0,39.0
1042,234.626994375,234.96544125,60.0,60.0
1043,234.002169375,235.147681875,45.0,59.0
1044,235.04354437499998,235.15288875,52.0,48.0
1045,234.835269375,235.574645625,64.0,88.0
1046,235.251819375,235.5937375,60.0,73.0
1047,235.46009437499998,235.678783125,57.0,62.0
1048,236.084919375,236.560480625,50.0,58.0
1049,236.29319437499998,236.65594,57.0,73.0
1050,235.668369375,236.86768625,38.0,58.0
1051,235.87664437499998,236.87462875,45.0,56.0
1052,236.70974437499999,236.921490625,50.0,77.0
1053,236.918019375,237.30506375,62.0,58.0
1054,236.501469375,237.3293625,65.0,95.0
1055,237.126294375,237.344983125,57.0,77.0
1056,237.751119375,238.002785,55.0,61.0
1057,237.959394375,238.2041175,59.0,59.0
1058,237.542844375,238.226680625,50.0,48.0
1059,238.375944375,238.45578312499998,50.0,33.0
1060,237.334569375,238.514794375,43.0,56.0
1061,238.167669375,238.92960875,62.0,85.0
1062,238.584219375,238.946965,59.0,67.0
1063,238.792494375,239.000769375,55.0,63.0
1064,239.417319375,239.90155875,48.0,88.0
1065,239.625594375,239.9675125,55.0,72.0
1066,239.209044375,240.113305,43.0,88.0
1067,239.000769375,240.12198312499999,36.0,88.0
1068,240.042144375,240.177523125,48.0,92.0
1069,240.250419375,240.569774375,60.0,97.0
1070,239.833869375,240.604486875,64.0,99.0
1071,240.458694375,240.653084375,55.0,88.0
1072,241.083519375,241.52783937499999,52.0,83.0
1073,241.291794375,241.640655,57.0,90.0
1074,240.875244375,242.020756875,49.0,107.0
1075,241.708344375,242.065883125,52.0,92.0
1076,240.666969375,242.2863075,45.0,96.0
1077,241.500069375,242.315813125,64.0,112.0
1078,241.91661937499998,242.32449125,61.0,99.0
1079,242.124894375,242.34531875,57.0,88.0
1080,242.74971937499998,243.065603125,53.0,66.0
1081,242.541444375,243.19230375,48.0,58.0
1082,242.957994375,243.362395,57.0,81.0
1083,242.33316937499998,243.804979375,41.0,71.0
1084,243.374544375,243.919530625,48.0,56.0
1085,243.16626937499998,243.95945,65.0,88.0
1086,243.58281937499999,243.9802775,60.0,72.0
1087,243.791094375,244.034081875,57.0,82.0
1088,244.415919375,244.6606425,55.0,69.0
1089,244.207644375,244.87238875,50.0,51.0
1090,244.624194375,244.9244575,59.0,83.0
1091,243.999369375,245.18480125,43.0,72.0
1092,245.040744375,245.25422625,62.0,78.0
1093,245.457294375,245.68119,62.0,59.0
1094,245.249019375,245.703753125,59.0,36.0
1095,244.832469375,245.70548875,67.0,92.0
1096,246.082119375,246.417095,52.0,66.0
1097,245.873844375,246.58892187499998,47.0,50.0
1098,246.290394375,246.700001875,55.0,69.0
1099,245.665569375,246.779840625,40.0,72.0
1100,246.706944375,246.95687437499998,59.0,68.0
1101,246.915219375,247.27622937499999,55.0,79.0
1102,247.123494375,247.34739,59.0,69.0
1103,246.498669375,247.444585,64.0,92.0
1104,247.956594375,248.203053125,60.0,62.0
1105,247.540044375,248.206524375,52.0,57.0
1106,247.748319375,248.2429725,57.0,72.0
1107,248.373144375,248.491166875,52.0,50.0
1108,247.331769375,248.5484425,45.0,61.0
1109,248.164869375,248.86432625,64.0,96.0
1110,248.581419375,248.893831875,60.0,79.0
1111,248.78969437499998,249.518656875,57.0,81.0
1112,249.414519375,249.95429875,50.0,73.0
1113,249.62279437499998,250.14695312499998,57.0,70.0
1114,248.997969375,250.2701825,38.0,66.0
1115,249.20624437499998,250.28059625,45.0,66.0
1116,250.03934437499998,250.57218125,50.0,69.0
1117,249.831069375,250.6173075,65.0,96.0
1118,250.247619375,250.619043125,62.0,65.0
1119,250.45589437499999,250.69888187499998,57.0,72.0
1120,251.288994375,251.50941875,59.0,63.0
1121,250.872444375,251.538924375,50.0,58.0
1122,251.080719375,251.59619999999998,55.0,47.0
1123,251.705544375,251.827038125,50.0,56.0
1124,250.664169375,251.87737124999998,43.0,68.0
1125,251.497269375,252.188048125,62.0,86.0
1126,251.913819375,252.23143875,59.0,72.0
1127,252.122094375,252.3529325,55.0,67.0
1128,252.746919375,253.232894375,48.0,66.0
1129,252.955194375,253.31446875,55.0,63.0
1130,252.538644375,253.448111875,43.0,40.0
1131,252.330369375,253.4776175,36.0,67.0
1132,253.371744375,253.552249375,48.0,82.0
1133,253.580019375,253.8802825,60.0,74.0
1134,253.163469375,253.96706375,64.0,96.0
1135,253.788294375,254.00871874999999,55.0,93.0
1136,254.413119375,254.86958875,52.0,70.0
1137,254.621394375,254.965048125,57.0,83.0
1138,254.204844375,255.18200124999998,49.0,92.0
1139,253.996569375,255.2063,45.0,89.0
1140,255.037944375,255.242748125,52.0,78.0
1141,255.246219375,255.59160875,61.0,83.0
1142,254.829669375,255.6020225,64.0,97.0
1143,255.454494375,255.71657375,57.0,83.0
1144,256.079319375,256.318835625,53.0,82.0
1145,255.871044375,256.61215625,48.0,67.0
1146,256.28759437499997,256.714558125,57.0,79.0
1147,255.66276937499998,257.1432575,41.0,69.0
1148,256.704144375,257.2543375,48.0,53.0
1149,256.912419375,257.287314375,60.0,83.0
1150,256.495869375,257.302935,65.0,95.0
1151,257.12069437499997,257.381038125,57.0,82.0
1152,257.745519375,257.995449375,55.0,74.0
1153,257.537244375,258.241908125,50.0,52.0
1154,257.953794375,258.27835625,59.0,79.0
1155,258.370344375,258.51440125,50.0,63.0
1156,257.328969375,258.53175749999997,43.0,72.0
1157,258.162069375,258.93095125,67.0,92.0
1158,258.578619375,258.936158125,62.0,76.0
1159,258.786894375,259.005583125,59.0,68.0
1160,259.411719375,259.88901625,52.0,64.0
1161,259.619994375,259.95149875,55.0,77.0
1162,258.995169375,260.22399187499997,40.0,60.0
1163,259.203444375,260.24308375,47.0,42.0
1164,260.036544375,260.43053125,52.0,82.0
1165,260.453094375,260.67872562499997,55.0,74.0
1166,260.244819375,260.68046125,59.0,73.0
1167,259.828269375,260.713438125,64.0,85.0
1168,261.077919375,261.3642975,57.0,56.0
1169,260.869644375,261.551745,52.0,39.0
1170,261.286194375,261.62464124999997,60.0,60.0
1171,260.661369375,261.806881875,45.0,59.0
1172,261.702744375,261.81208875,52.0,48.0
1173,261.494469375,262.233845625,64.0,88.0
1174,261.911019375,262.2529375,60.0,73.0
1175,262.119294375,262.337983125,57.0,62.0
1176,262.74411937499997,263.219680625,50.0,58.0
1177,262.952394375,263.31514,57.0,73.0
1178,262.327569375,263.52688625,38.0,58.0
1179,262.535844375,263.53382875,45.0,56.0
1180,263.368944375,263.580690625,50.0,77.0
1181,263.57721937499997,263.96426375,62.0,58.0
1182,263.160669375,263.9885625,65.0,95.0
1183,263.785494375,264.004183125,57.0,77.0
1184,264.410319375,264.661985,55.0,61.0
1185,264.618594375,264.8633175,59.0,59.0
1186,264.202044375,264.88588062499997,50.0,48.0
1187,265.035144375,265.114983125,50.0,33.0
1188,263.993769375,265.173994375,43.0,56.0
1189,264.826869375,265.58880875,62.0,85.0
1190,265.243419375,265.606165,59.0,67.0
1191,265.451694375,265.659969375,55.0,63.0
1192,266.284794375,266.541666875,55.0,72.0
1193,266.076519375,266.5434025,48.0,88.0
1194,265.659969375,266.742999375,36.0,85.0
1195,265.868244375,266.75688437499997,43.0,77.0
1196,266.701344375,266.88011375,48.0,79.0
1197,266.493069375,267.1959975,64.0,100.0
1198,266.909619375,267.20641125,60.0,102.0
1199,267.117894375,267.25848,55.0,85.0
1200,267.326169375,267.628168125,64.0,73.0
1201,267.326169375,267.63684625,57.0,102.0
1202,267.326169375,267.659409375,61.0,88.0
1203,267.326169375,267.9596725,52.0,95.0
1204,267.742719375,268.055131875,57.0,86.0
1205,267.742719375,268.062074375,64.0,93.0
1206,267.742719375,268.08810875,61.0,97.0
1207,267.742719375,268.110671875,49.0,39.0
1208,268.159269375,268.46300375,64.0,88.0
1209,268.159269375,268.466475,57.0,86.0
1210,268.159269375,268.489038125,61.0,93.0
1211,268.159269375,268.645244375,52.0,100.0
1212,267.326169375,268.88649625,45.0,83.0
1213,268.575819375,268.916001875,61.0,112.0
1214,268.575819375,268.92815125,57.0,90.0
1215,268.575819375,268.92815125,64.0,97.0
1216,268.992369375,269.88621625,38.0,82.0
1217,269.408919375,269.90704375,45.0,51.0
1218,269.825469375,270.700224375,62.0,68.0
1219,269.825469375,270.715845,65.0,83.0
1220,271.491669375,272.28137875,59.0,61.0
1221,271.491669375,272.298735,62.0,60.0
1222,270.658569375,272.321298125,43.0,72.0
1223,271.075119375,272.321298125,50.0,53.0
1224,272.324769375,273.56227,36.0,58.0
1225,272.741319375,273.61781,43.0,64.0
1226,273.157869375,273.657729375,60.0,69.0
1227,273.157869375,273.682028125,48.0,61.0
1228,273.574419375,274.036095625,55.0,53.0
1229,273.782694375,274.03783125,60.0,55.0
1230,273.157869375,274.06212999999997,64.0,66.0
1231,274.407519375,274.9299425,48.0,59.0
1232,275.032344375,275.17119437499997,48.0,50.0
1233,273.990969375,275.25624,41.0,72.0
1234,274.824069375,275.650226875,56.0,75.0
1235,275.240619375,275.66237625,53.0,61.0
1236,274.824069375,275.681468125,60.0,68.0
1237,275.657169375,276.8044175,36.0,65.0
1238,276.073719375,276.85301499999997,43.0,44.0
1239,276.698544375,276.879049375,48.0,42.0
1240,276.49026937499997,277.306013125,60.0,71.0
1241,276.906819375,277.33551875,55.0,60.0
1242,276.49026937499997,277.33551875,64.0,68.0
1243,277.739919375,278.215480625,48.0,49.0
1244,278.364744375,278.50533,48.0,52.0
1245,277.32336937499997,278.566076875,41.0,62.0
1246,278.573019375,278.963535,53.0,71.0
1247,278.156469375,278.963535,56.0,83.0
1248,278.156469375,278.97394875,60.0,70.0
1249,278.947914375,278.97394875,60.0,99.0
1250,278.937500625,279.25859125,36.0,85.0
1251,278.947914375,279.68208375,64.0,96.0
1252,278.9427075,279.732416875,55.0,99.0
1253,279.815726875,280.218391875,62.0,99.0
1254,279.812255625,280.527333125,59.0,102.0
1255,279.791428125,280.55683875,47.0,95.0
1256,280.629735,281.10529625,64.0,89.0
1257,280.627999375,281.3586975,57.0,89.0
1258,280.62626375,281.395145625,60.0,95.0
1259,280.61932125,281.412501875,45.0,95.0
1260,281.47672,282.18832625,43.0,85.0
1261,281.474984375,282.30982,55.0,92.0
1262,281.47324875,282.318498125,59.0,81.0
1263,281.48019125,282.325440625,62.0,81.0
1264,282.712485,283.148126875,53.0,75.0
1265,282.92423125,283.269620625,57.0,79.0
1266,283.328631875,283.47616,53.0,78.0
1267,283.16721875,283.77989437499997,65.0,97.0
1268,282.323705,283.79898625,41.0,89.0
1269,283.53517125,283.80592875,60.0,74.0
1270,282.53545125,283.960399375,48.0,71.0
1271,283.75733125,283.967341875,57.0,81.0
1272,284.41686875,284.731016875,53.0,64.0
1273,284.61473,284.90978624999997,56.0,64.0
1274,284.192973125,284.942763125,48.0,59.0
1275,285.0382225,285.27079625,48.0,61.0
1276,283.96907749999997,285.322865,41.0,79.0
1277,285.23608375,285.59709375,56.0,93.0
1278,284.849039375,285.63180625,60.0,88.0
1279,286.4961475,286.98559375,55.0,82.0
1280,286.49267625,287.02030625,60.0,96.0
1281,286.49961874999997,287.2042825,64.0,88.0
1282,286.890134375,287.560085625,48.0,72.0
1283,287.112294375,288.1068075,55.0,54.0
1284,287.34660375,288.11375,60.0,79.0
1285,287.344868125,288.1206925,64.0,72.0
1286,287.80307312499997,288.514679375,48.0,59.0
1287,288.76287375,289.021481875,48.0,72.0
1288,285.64048437499997,289.038838125,36.0,93.0
1289,288.27342749999997,289.073550625,64.0,88.0
1290,288.275163125,289.0926425,60.0,96.0
1291,288.26822062499997,289.10132062499997,55.0,89.0
1292,286.077861875,289.1898375,43.0,44.0
1293,289.385963125,293.971484375,48.0,75.0
1294,289.34604375,293.9801625,43.0,59.0
1295,289.326951875,293.987105,55.0,48.0
1296,289.38249187499997,293.988840625,60.0,72.0
1297,289.20892937499997,294.0079325,36.0,68.0
1298,289.49530749999997,294.016610625,64.0,92.0
