,start,end,pitch,velocity
0,11.555559599999999,11.89352268125,66.0,127.0
1,11.925930099999999,12.325621597916665,69.0,102.0
2,12.2963006,12.652782206249999,74.0,117.0
3,12.6666711,12.984572445833333,71.0,112.0
4,12.6666711,12.984572445833333,71.0,127.0
5,13.0370416,13.350313314583333,74.0,127.0
6,13.4074121,13.760807285416666,71.0,96.0
7,13.7777826,15.2592646,73.0,127.0
8,15.2592646,15.574079525,73.0,127.0
9,15.6296351,16.021610545833333,69.0,85.0
10,16.000005599999998,16.316363735416665,73.0,117.0
11,16.370376099999998,16.725314495833334,69.0,97.0
12,16.740746599999998,18.172845866666666,71.0,127.0
13,18.222228599999998,18.530870683333333,74.0,127.0
14,18.592599099999997,18.905870814583334,71.0,112.0
15,18.9629696,19.29475983958333,74.0,100.0
16,19.3333401,19.648155024999998,71.0,102.0
17,19.7037106,19.91976005833333,73.0,117.0
18,19.88889585,20.038587260416666,71.0,102.0
19,20.0740811,20.288587347916664,69.0,117.0
20,20.4444516,20.621920797916665,71.0,117.0
21,20.8148221,21.0092666125,73.0,127.0
22,21.00000735,23.154329091666664,71.0,97.0
23,95.2592926,95.47071242708333,67.0,112.0
24,95.2592926,95.50620626666667,74.0,100.0
25,95.2592926,95.51083589791666,71.0,117.0
26,95.6296631,95.85034218958333,67.0,85.0
27,95.6296631,95.86577429375,74.0,82.0
28,95.6296631,95.87194713541666,71.0,79.0
29,96.0000336,96.21762626875,67.0,112.0
30,96.0000336,96.21916947916667,71.0,112.0
31,96.0000336,96.22842874166666,74.0,112.0
32,96.3704041,96.58028071666666,67.0,95.0
33,96.3704041,96.60960171458333,74.0,97.0
34,96.3704041,96.62966345,71.0,96.0
35,96.7407746,96.96916974166666,69.0,117.0
36,96.7407746,96.97534258333333,76.0,127.0
37,96.7407746,96.99540431874999,73.0,127.0
38,97.1111451,97.36423160833333,69.0,85.0
39,97.1111451,97.37966371249999,76.0,92.0
40,97.1111451,97.3981822375,73.0,99.0
41,97.4815156,97.71762679375,76.0,127.0
42,97.4815156,97.71917000416666,73.0,127.0
43,97.4815156,97.72842926666667,69.0,127.0
44,97.8518861,97.93830588333333,76.0,79.0
45,97.8518861,97.97071330208333,73.0,117.0
46,97.8518861,98.04941703333333,69.0,95.0
47,98.03707134999999,98.12503434375,70.0,42.0
48,98.2222566,98.4352196375,69.0,96.0
49,98.2222566,98.462997425,73.0,127.0
50,98.2222566,98.48923200208333,66.0,112.0
51,98.5926271,98.83799755625,73.0,102.0
52,98.5926271,98.84108397708333,69.0,89.0
53,98.5926271,98.86423213333333,66.0,95.0
54,98.9629976,99.21762731874999,69.0,117.0
55,98.9629976,99.24077547499999,66.0,122.0
56,98.9629976,99.24077547499999,73.0,127.0
57,99.3333681,99.57565213541666,66.0,86.0
58,99.3333681,99.57719534583333,69.0,92.0
59,99.3333681,99.59571387083334,73.0,86.0
60,99.7037386,99.96608437083333,78.0,127.0
61,99.7037386,99.9722572125,71.0,102.0
62,99.7037386,99.97380042291667,74.0,127.0
63,100.0741091,100.34262771249999,78.0,112.0
64,100.0741091,100.34571413333333,71.0,97.0
65,100.0741091,100.34571413333333,74.0,107.0
66,100.4444796,100.66978832083333,71.0,122.0
67,100.4444796,100.71608463333332,74.0,127.0
68,100.4444796,100.72380068541666,78.0,127.0
69,100.8148501,101.09108476458333,69.0,127.0
70,101.1852206,101.45682563333332,67.0,127.0
71,101.1852206,101.46454168541666,71.0,127.0
72,101.1852206,101.46608489583333,74.0,117.0
73,101.5555911,101.82256650208333,67.0,112.0
74,101.5555911,101.84108502708332,71.0,102.0
75,101.5555911,101.84108502708332,74.0,102.0
76,101.9259616,102.17287526666667,67.0,117.0
77,101.9259616,102.17904810833333,74.0,117.0
78,101.9259616,102.18676416041666,71.0,112.0
79,102.2963321,102.53398650416666,67.0,122.0
80,102.2963321,102.53861613541666,74.0,99.0
81,102.2963321,102.574109975,71.0,100.0
82,102.6667026,102.91824589791666,76.0,122.0
83,102.6667026,102.92750516041666,73.0,127.0
84,102.6667026,102.93213479166666,69.0,107.0
85,103.0370731,103.27009787291666,69.0,97.0
86,103.0370731,103.27935713541666,76.0,96.0
87,103.0370731,103.29941887083334,73.0,117.0
88,103.4074436,103.62349305833332,76.0,127.0
89,103.4074436,103.63120911041666,69.0,117.0
90,103.4074436,103.64355479375,73.0,127.0
91,103.7778141,103.97534503333333,76.0,102.0
92,103.7778141,104.00775245208332,69.0,99.0
93,103.7778141,104.01238208333334,73.0,127.0
94,104.1481846,104.28861674791666,74.0,127.0
95,104.1481846,104.3055920625,69.0,102.0
96,104.1481846,104.30713527291667,78.0,122.0
97,104.5185551,104.72843171666666,69.0,89.0
98,104.5185551,104.73306134791666,74.0,97.0
99,104.5185551,104.75466629374999,78.0,97.0
100,104.8889256,105.08028369166666,69.0,102.0
101,104.8889256,105.08491332291666,74.0,117.0
102,104.8889256,105.10806147916666,78.0,102.0
103,105.2592961,105.44293813958333,74.0,122.0
104,105.2592961,105.46762950624999,69.0,102.0
105,105.2592961,105.47071592708333,78.0,117.0
106,105.6296666,105.759296275,70.0,122.0
107,105.6296666,105.79941974583333,73.0,117.0
108,105.6296666,105.82256790208334,66.0,117.0
109,106.0000371,106.20682729583334,73.0,107.0
110,106.0000371,106.21145692708333,66.0,107.0
111,106.0000371,106.24077792499999,70.0,99.0
112,106.3704076,106.574111375,70.0,117.0
113,106.3704076,106.58028421666667,66.0,117.0
114,106.3704076,106.58645705833332,73.0,117.0
115,106.7407781,106.97071645208332,70.0,127.0
116,106.7407781,106.98306213541666,66.0,107.0
117,106.7407781,107.00003745,73.0,122.0
118,107.11114859999999,107.33800053124999,67.0,100.0
119,107.11114859999999,107.3426301625,74.0,99.0
120,107.11114859999999,107.34880300416667,71.0,100.0
121,107.4815191,107.71454387291666,67.0,96.0
122,107.4815191,107.73306239791667,71.0,99.0
123,107.4815191,107.73769202916667,74.0,99.0
124,107.85188959999999,108.08182795208333,67.0,112.0
125,107.85188959999999,108.09571684583332,71.0,112.0
126,107.85188959999999,108.10034647708333,74.0,112.0
127,108.2222601,108.24232183541666,73.0,88.0
128,108.2222601,108.43830955833333,67.0,100.0
129,108.2222601,108.44911203125,74.0,100.0
130,108.2222601,108.4722601875,71.0,100.0
131,108.59263059999999,108.82874179375,69.0,112.0
132,108.59263059999999,108.83028500416667,76.0,127.0
133,108.59263059999999,108.833371425,73.0,127.0
134,108.9630011,109.21763081875,69.0,90.0
135,108.9630011,109.22689008124999,73.0,127.0
136,108.9630011,109.22689008124999,76.0,100.0
137,109.33337159999999,109.56639637291666,73.0,127.0
138,109.33337159999999,109.57102600416667,76.0,127.0
139,109.33337159999999,109.57874205625,69.0,112.0
140,109.7037421,109.81331003958333,76.0,88.0
141,109.7037421,109.87503845625,73.0,127.0
142,109.7037421,109.9352236625,69.0,122.0
143,110.07411259999999,110.32102626666666,69.0,97.0
144,110.07411259999999,110.33028552916666,66.0,127.0
145,110.07411259999999,110.33337195,73.0,112.0
146,110.4444831,110.6944831875,69.0,112.0
147,110.4444831,110.69602639791667,73.0,117.0
148,110.4444831,110.7130017125,66.0,122.0
149,110.81485359999999,111.06176726666666,69.0,127.0
150,110.81485359999999,111.07874258125,73.0,127.0
151,110.81485359999999,111.09263147499999,66.0,122.0
152,111.1852241,111.35497724583333,69.0,107.0
153,111.1852241,111.36886613958333,66.0,100.0
154,111.1852241,111.38738466458332,73.0,102.0
155,111.55559459999999,111.79942184583332,71.0,107.0
156,111.55559459999999,111.80250826666666,78.0,127.0
157,111.55559459999999,111.81022431875,74.0,127.0
158,111.9259651,112.15898987291666,74.0,122.0
159,111.9259651,112.16053308333333,71.0,100.0
160,111.9259651,112.16361950416666,78.0,112.0
161,112.29633559999999,112.55250852916666,71.0,117.0
162,112.29633559999999,112.56794063333332,78.0,127.0
163,112.29633559999999,112.57102705416666,74.0,127.0
164,112.6667061,112.87812592708333,78.0,117.0
165,112.6667061,112.89047161041667,74.0,117.0
166,112.6667061,112.90281729374999,71.0,100.0
167,113.03707659999999,113.28707668749999,74.0,122.0
168,113.03707659999999,113.29633595,67.0,107.0
169,113.03707659999999,113.29787916041666,71.0,117.0
170,113.4074471,113.63429903125,67.0,99.0
171,113.4074471,113.6574471875,71.0,100.0
172,113.4074471,113.6574471875,74.0,99.0
173,113.77781759999999,114.03399052916666,67.0,117.0
174,113.77781759999999,114.04942263333332,71.0,117.0
175,113.77781759999999,114.05405226458333,74.0,102.0
176,114.1481881,114.37504003125,67.0,117.0
177,114.1481881,114.37966966249999,74.0,99.0
178,114.1481881,114.4167067125,71.0,102.0
179,114.51855859999999,114.75775621458332,76.0,127.0
180,114.51855859999999,114.76547226666666,69.0,112.0
181,114.51855859999999,114.77473152916666,73.0,127.0
182,114.8889291,115.11423782083332,69.0,102.0
183,114.8889291,115.12812671458333,76.0,102.0
184,114.8889291,115.14664523958332,73.0,127.0
185,115.25929959999999,115.48615153125,69.0,127.0
186,115.25929959999999,115.48615153125,76.0,127.0
187,115.25929959999999,115.4907811625,73.0,127.0
188,115.6296701,115.85652203125,76.0,117.0
189,115.6296701,115.86269487291666,69.0,117.0
190,115.6296701,115.88275660833332,73.0,127.0
191,118.22226359999999,118.56022668125,66.0,127.0
192,118.5926341,118.99232559791666,69.0,102.0
193,118.96300459999999,119.31948620624999,74.0,117.0
194,119.3333751,119.65127644583333,71.0,112.0
195,119.3333751,119.65127644583333,71.0,127.0
196,119.70374559999999,120.01701731458333,74.0,127.0
197,120.0741161,120.42751128541666,71.0,96.0
198,120.44448659999999,121.92596859999999,73.0,127.0
199,121.92596859999999,122.240783525,73.0,127.0
200,122.2963391,122.68831454583332,69.0,85.0
201,122.66670959999999,122.98306773541667,73.0,117.0
202,123.0370801,123.39201849583333,69.0,97.0
203,123.40745059999999,124.83954986666666,71.0,127.0
204,124.88893259999999,125.19757468333333,74.0,127.0
205,125.2593031,125.57257481458333,71.0,112.0
206,125.62967359999999,125.96146383958333,74.0,100.0
207,126.0000441,126.31485902499999,71.0,102.0
208,126.37041459999999,126.58646405833333,73.0,117.0
209,126.55559985,126.70529126041666,71.0,102.0
210,126.7407851,126.95529134791666,69.0,117.0
211,127.11115559999999,127.28862479791667,71.0,117.0
212,127.4815261,127.6759706125,73.0,127.0
213,127.66671135,129.82103309166666,71.0,97.0
214,166.3704286,166.58184842708332,67.0,112.0
215,166.3704286,166.61734226666667,74.0,100.0
216,166.3704286,166.62197189791667,71.0,117.0
217,166.7407991,166.96147818958332,67.0,85.0
218,166.7407991,166.97691029375,74.0,82.0
219,166.7407991,166.98308313541665,71.0,79.0
220,167.11116959999998,167.32876226874998,67.0,112.0
221,167.11116959999998,167.33030547916667,71.0,112.0
222,167.11116959999998,167.33956474166666,74.0,112.0
223,167.4815401,167.69141671666665,67.0,95.0
224,167.4815401,167.72073771458332,74.0,97.0
225,167.4815401,167.74079945,71.0,96.0
226,167.8519106,168.08030574166665,69.0,117.0
227,167.8519106,168.08647858333333,76.0,127.0
228,167.8519106,168.10654031875,73.0,127.0
229,168.2222811,168.47536760833333,69.0,85.0
230,168.2222811,168.4907997125,76.0,92.0
231,168.2222811,168.5093182375,73.0,99.0
232,168.59265159999998,168.82876279375,76.0,127.0
233,168.59265159999998,168.83030600416666,73.0,127.0
234,168.59265159999998,168.83956526666665,69.0,127.0
235,168.9630221,169.04944188333332,76.0,79.0
236,168.9630221,169.08184930208333,73.0,117.0
237,168.9630221,169.16055303333331,69.0,95.0
238,169.14820735,169.23617034375,70.0,42.0
239,169.3333926,169.5463556375,69.0,96.0
240,169.3333926,169.57413342499999,73.0,127.0
241,169.3333926,169.60036800208331,66.0,112.0
242,169.7037631,169.94913355625,73.0,102.0
243,169.7037631,169.95221997708333,69.0,89.0
244,169.7037631,169.97536813333332,66.0,95.0
245,170.07413359999998,170.32876331875,69.0,117.0
246,170.07413359999998,170.35191147499998,66.0,122.0
247,170.07413359999998,170.35191147499998,73.0,127.0
248,170.4445041,170.68678813541666,66.0,86.0
249,170.4445041,170.68833134583332,69.0,92.0
250,170.4445041,170.70684987083334,73.0,86.0
251,170.8148746,171.07722037083332,78.0,127.0
252,170.8148746,171.0833932125,71.0,102.0
253,170.8148746,171.08493642291666,74.0,127.0
254,171.1852451,171.4537637125,78.0,112.0
255,171.1852451,171.45685013333332,71.0,97.0
256,171.1852451,171.45685013333332,74.0,107.0
257,171.55561559999998,171.78092432083332,71.0,122.0
258,171.55561559999998,171.82722063333333,74.0,127.0
259,171.55561559999998,171.83493668541666,78.0,127.0
260,171.9259861,172.20222076458333,69.0,127.0
261,172.2963566,172.56796163333334,67.0,127.0
262,172.2963566,172.57567768541665,71.0,127.0
263,172.2963566,172.57722089583334,74.0,117.0
264,172.6667271,172.93370250208332,67.0,112.0
265,172.6667271,172.95222102708334,71.0,102.0
266,172.6667271,172.95222102708334,74.0,102.0
267,173.03709759999998,173.28401126666665,67.0,117.0
268,173.03709759999998,173.29018410833334,74.0,117.0
269,173.03709759999998,173.29790016041665,71.0,112.0
270,173.4074681,173.64512250416666,67.0,122.0
271,173.4074681,173.64975213541666,74.0,99.0
272,173.4074681,173.685245975,71.0,100.0
273,173.7778386,174.02938189791666,76.0,122.0
274,173.7778386,174.03864116041666,73.0,127.0
275,173.7778386,174.04327079166666,69.0,107.0
276,174.1482091,174.38123387291665,69.0,97.0
277,174.1482091,174.39049313541665,76.0,96.0
278,174.1482091,174.41055487083332,73.0,117.0
279,174.51857959999998,174.73462905833333,76.0,127.0
280,174.51857959999998,174.74234511041666,69.0,117.0
281,174.51857959999998,174.75469079375,73.0,127.0
282,174.8889501,175.0864810333333,76.0,102.0
283,174.8889501,175.11888845208333,69.0,99.0
284,174.8889501,175.12351808333332,73.0,127.0
285,175.2593206,175.39975274791666,74.0,127.0
286,175.2593206,175.4167280625,69.0,102.0
287,175.2593206,175.41827127291666,78.0,122.0
288,175.6296911,175.83956771666666,69.0,89.0
289,175.6296911,175.84419734791666,74.0,97.0
290,175.6296911,175.86580229375,78.0,97.0
291,176.00006159999998,176.19141969166665,69.0,102.0
292,176.00006159999998,176.19604932291665,74.0,117.0
293,176.00006159999998,176.21919747916667,78.0,102.0
294,176.3704321,176.55407413958332,74.0,122.0
295,176.3704321,176.57876550625,69.0,102.0
296,176.3704321,176.58185192708333,78.0,117.0
297,176.7408026,176.87043227499998,70.0,122.0
298,176.7408026,176.91055574583334,73.0,117.0
299,176.7408026,176.93370390208332,66.0,117.0
300,177.1111731,177.31796329583332,73.0,107.0
301,177.1111731,177.32259292708332,66.0,107.0
302,177.1111731,177.351913925,70.0,99.0
303,177.48154359999998,177.685247375,70.0,117.0
304,177.48154359999998,177.69142021666667,66.0,117.0
305,177.48154359999998,177.69759305833333,73.0,117.0
306,177.8519141,178.08185245208333,70.0,127.0
307,177.8519141,178.09419813541666,66.0,107.0
308,177.8519141,178.11117345,73.0,122.0
309,178.2222846,178.44913653125,67.0,100.0
310,178.2222846,178.4537661625,74.0,99.0
311,178.2222846,178.45993900416667,71.0,100.0
312,178.5926551,178.82567987291665,67.0,96.0
313,178.5926551,178.84419839791667,71.0,99.0
314,178.5926551,178.84882802916667,74.0,99.0
315,178.96302559999998,179.19296395208332,67.0,112.0
316,178.96302559999998,179.20685284583334,71.0,112.0
317,178.96302559999998,179.21148247708334,74.0,112.0
318,179.3333961,179.35345783541666,73.0,88.0
319,179.3333961,179.54944555833333,67.0,100.0
320,179.3333961,179.56024803124998,74.0,100.0
321,179.3333961,179.5833961875,71.0,100.0
322,179.7037666,179.93987779375,69.0,112.0
323,179.7037666,179.94142100416667,76.0,127.0
324,179.7037666,179.94450742499998,73.0,127.0
325,180.0741371,180.32876681874998,69.0,90.0
326,180.0741371,180.33802608124998,73.0,127.0
327,180.0741371,180.33802608124998,76.0,100.0
328,180.44450759999998,180.67753237291666,73.0,127.0
329,180.44450759999998,180.68216200416666,76.0,127.0
330,180.44450759999998,180.68987805625,69.0,112.0
331,180.8148781,180.92444603958333,76.0,88.0
332,180.8148781,180.98617445624998,73.0,127.0
333,180.8148781,181.04635966249998,69.0,122.0
334,181.1852486,181.43216226666667,69.0,97.0
335,181.1852486,181.44142152916666,66.0,127.0
336,181.1852486,181.44450795,73.0,112.0
337,181.5556191,181.80561918749999,69.0,112.0
338,181.5556191,181.80716239791667,73.0,117.0
339,181.5556191,181.8241377125,66.0,122.0
340,181.92598959999998,182.17290326666665,69.0,127.0
341,181.92598959999998,182.18987858124999,73.0,127.0
342,181.92598959999998,182.203767475,66.0,122.0
343,182.2963601,182.46611324583333,69.0,107.0
344,182.2963601,182.48000213958332,66.0,100.0
345,182.2963601,182.49852066458334,73.0,102.0
346,182.6667306,182.91055784583332,71.0,107.0
347,182.6667306,182.91364426666667,78.0,127.0
348,182.6667306,182.92136031875,74.0,127.0
349,183.0371011,183.27012587291665,74.0,122.0
350,183.0371011,183.27166908333334,71.0,100.0
351,183.0371011,183.27475550416665,78.0,112.0
352,183.40747159999998,183.66364452916665,71.0,117.0
353,183.40747159999998,183.67907663333332,78.0,127.0
354,183.40747159999998,183.68216305416667,74.0,127.0
355,183.7778421,183.98926192708333,78.0,117.0
356,183.7778421,184.00160761041667,74.0,117.0
357,183.7778421,184.01395329375,71.0,100.0
358,184.1482126,184.3982126875,74.0,122.0
359,184.1482126,184.40747195,67.0,107.0
360,184.1482126,184.40901516041666,71.0,117.0
361,184.5185831,184.74543503125,67.0,99.0
362,184.5185831,184.76858318749998,71.0,100.0
363,184.5185831,184.76858318749998,74.0,99.0
364,184.88895359999998,185.14512652916665,67.0,117.0
365,184.88895359999998,185.16055863333332,71.0,117.0
366,184.88895359999998,185.16518826458332,74.0,102.0
367,185.2593241,185.48617603124998,67.0,117.0
368,185.2593241,185.49080566249998,74.0,99.0
369,185.2593241,185.5278427125,71.0,102.0
370,185.6296946,185.86889221458333,76.0,127.0
371,185.6296946,185.87660826666666,69.0,112.0
372,185.6296946,185.88586752916666,73.0,127.0
373,186.0000651,186.2253738208333,69.0,102.0
374,186.0000651,186.23926271458333,76.0,102.0
375,186.0000651,186.25778123958332,73.0,127.0
376,186.37043559999998,186.59728753125,69.0,127.0
377,186.37043559999998,186.59728753125,76.0,127.0
378,186.37043559999998,186.6019171625,73.0,127.0
379,186.7408061,186.96765803124998,76.0,117.0
380,186.7408061,186.97383087291666,69.0,117.0
381,186.7408061,186.9938926083333,73.0,127.0
382,187.1111766,187.38278163333334,69.0,127.0
383,187.1111766,187.388954475,66.0,117.0
384,187.1111766,187.388954475,73.0,127.0
385,187.4815471,187.72846076666667,69.0,127.0
386,187.4815471,187.73154718749998,66.0,112.0
387,187.4815471,187.73772002916667,73.0,112.0
388,187.85191759999998,188.0741399,69.0,127.0
389,187.85191759999998,188.0833991625,73.0,127.0
390,187.85191759999998,188.08957200416666,66.0,127.0
391,188.2222881,188.36272024791666,66.0,117.0
392,188.2222881,188.37815235208333,69.0,117.0
393,188.2222881,188.41210298125,73.0,122.0
394,188.5926586,188.60500428333333,73.0,127.0
395,188.5926586,188.81333768958334,71.0,107.0
396,188.5926586,188.81796732083333,74.0,127.0
397,188.5926586,188.82568337291667,78.0,127.0
398,188.9630291,189.1945106625,71.0,107.0
399,188.9630291,189.20068350416665,78.0,122.0
400,188.9630291,189.203769925,74.0,117.0
401,189.33339959999998,189.53556016458333,71.0,112.0
402,189.33339959999998,189.54944905833332,74.0,127.0
403,189.33339959999998,189.54944905833332,78.0,127.0
404,190.0741406,190.29481968958333,67.0,102.0
405,190.0741406,190.30099253125,74.0,102.0
406,190.0741406,190.30870858333333,71.0,100.0
407,190.4445111,190.68062229375,67.0,97.0
408,190.4445111,190.68988155625,71.0,97.0
409,190.4445111,190.69451118749998,74.0,97.0
410,190.81488159999998,191.04019032083332,71.0,102.0
411,190.81488159999998,191.04327674166666,67.0,102.0
412,190.81488159999998,191.055622425,74.0,102.0
413,191.18525209999999,191.20068420416666,73.0,82.0
414,191.18525209999999,191.388955875,67.0,97.0
415,191.18525209999999,191.40284476875,71.0,100.0
416,191.18525209999999,191.41056082083333,74.0,97.0
417,191.5556226,191.78864737291667,69.0,107.0
418,191.5556226,191.79482021458332,76.0,117.0
419,191.5556226,191.80407947708332,73.0,127.0
420,191.9259931,192.16827713541664,76.0,112.0
421,191.9259931,192.16982034583333,69.0,100.0
422,191.9259931,192.17753639791667,73.0,127.0
423,192.29636359999998,192.52475874166666,73.0,127.0
424,192.29636359999998,192.52938837291666,76.0,117.0
425,192.29636359999998,192.54019084583334,69.0,102.0
426,192.66673409999999,192.79327735416666,76.0,93.0
427,192.66673409999999,192.85654898125,73.0,127.0
428,192.66673409999999,192.86580824375,69.0,102.0
429,193.0371046,193.29173431875,69.0,99.0
430,193.0371046,193.29790716041666,73.0,127.0
431,193.0371046,193.30099358125,66.0,127.0
432,193.4074751,193.67290729166666,69.0,112.0
433,193.4074751,193.67445050208332,66.0,122.0
434,193.4074751,193.68216655416666,73.0,117.0
435,194.8889571,194.9537719375,74.0,107.0
436,194.8889571,194.96920404166667,78.0,117.0
437,194.8889571,194.97692009374998,71.0,102.0
438,195.07414235,195.13741397708333,74.0,95.0
439,195.07414235,195.14975966041666,78.0,97.0
440,195.07414235,195.16210534375,71.0,82.0
441,195.2593276,195.3241424375,74.0,99.0
442,195.2593276,195.3334017,78.0,102.0
443,195.2593276,195.34111775208333,71.0,89.0
444,195.44451285,195.50778447708333,74.0,100.0
445,195.44451285,195.52475979166667,78.0,112.0
446,195.44451285,195.52938942291667,71.0,93.0
447,195.62969809999998,195.7685870375,74.0,112.0
448,195.62969809999998,195.79327840416667,71.0,100.0
449,195.62969809999998,195.79790803541667,78.0,117.0
450,196.0000686,198.47846452916667,76.0,117.0
451,198.59266209999998,198.97846470416667,80.0,127.0
452,198.9630326,201.64050267291665,78.0,122.0
453,201.9259966,204.28556532708333,76.0,127.0
454,204.51859009999998,204.89821986249999,83.0,122.0
455,204.8889606,205.64667691458334,85.0,127.0
456,205.6297016,205.64667691458334,85.0,102.0
457,206.3704426,206.73464025833331,85.0,127.0
458,207.1111836,207.38741826458332,66.0,127.0
459,207.48155409999998,207.80254186666664,69.0,100.0
460,207.8519246,208.16982594583334,71.0,127.0
461,208.2222951,208.57723349583333,69.0,112.0
462,208.5926656,208.97692499375,71.0,117.0
463,208.96303609999998,209.3611843875,78.0,127.0
464,209.3334066,210.30099953125,76.0,127.0
465,210.44451809999998,210.80408612708334,69.0,69.0
466,210.8148886,211.16674057499998,78.0,127.0
467,211.1852591,211.56180244166666,69.0,100.0
468,211.5556296,211.8966791020833,76.0,102.0
469,211.92600009999998,212.28556812708334,69.0,100.0
470,212.2963706,213.01396344375,74.0,122.0
471,213.7778526,214.0911243145833,74.0,117.0
472,214.1482231,214.45686518333332,71.0,93.0
473,214.5185936,214.84421099791666,74.0,127.0
474,214.88896409999998,215.22538397083332,71.0,100.0
475,215.2593346,215.52476679166665,73.0,127.0
476,215.44451984999998,215.59884089166667,71.0,100.0
477,215.6297051,215.88587802916666,69.0,95.0
478,216.0000756,216.31797694583332,71.0,127.0
479,216.37044609999998,216.73927338958333,73.0,122.0
480,216.7408166,219.74699049166665,71.0,122.0
481,219.7037806,219.74699049166665,71.0,122.0
482,219.7037806,219.99236094791667,67.0,122.0
483,219.7037806,220.0093362625,74.0,117.0
484,221.9260036,222.62044828749998,73.0,127.0
485,221.9260036,222.62970754999998,76.0,117.0
486,221.9260036,222.63588039166666,69.0,127.0
487,222.6667446,222.8797076375,69.0,96.0
488,222.6667446,222.907485425,73.0,127.0
489,222.6667446,222.93372000208333,66.0,112.0
490,223.0371151,223.28248555624998,73.0,102.0
491,223.0371151,223.28557197708332,69.0,89.0
492,223.0371151,223.3087201333333,66.0,95.0
493,223.4074856,223.66211531874998,69.0,117.0
494,223.4074856,223.685263475,66.0,122.0
495,223.4074856,223.685263475,73.0,127.0
496,223.77785609999998,224.02014013541665,66.0,86.0
497,223.77785609999998,224.0216833458333,69.0,92.0
498,223.77785609999998,224.04020187083333,73.0,86.0
499,224.1482266,224.41057237083334,78.0,127.0
500,224.1482266,224.4167452125,71.0,102.0
501,224.1482266,224.41828842291665,74.0,127.0
502,224.5185971,224.7871157125,78.0,112.0
503,224.5185971,224.79020213333334,71.0,97.0
504,224.5185971,224.79020213333334,74.0,107.0
505,224.8889676,225.1142763208333,71.0,122.0
506,224.8889676,225.16057263333332,74.0,127.0
507,224.8889676,225.16828868541666,78.0,127.0
508,225.25933809999998,225.53557276458332,69.0,127.0
509,225.6297086,225.91674573749998,67.0,117.0
510,225.6297086,225.926005,71.0,117.0
511,225.6297086,225.9337210520833,74.0,122.0
512,226.74082009999998,226.9800177145833,74.0,112.0
513,226.74082009999998,226.98310413541665,71.0,122.0
514,226.74082009999998,226.98773376666665,67.0,117.0
515,227.1111906,227.36273389791666,73.0,127.0
516,227.1111906,227.36736352916665,69.0,122.0
517,227.1111906,227.3797092125,76.0,102.0
518,228.22230209999998,228.47693181875,73.0,127.0
519,228.22230209999998,228.48464787083333,76.0,107.0
520,228.22230209999998,228.48619108124998,69.0,112.0
521,228.5926726,228.74853685208333,74.0,127.0
522,228.5926726,228.76396895624998,78.0,127.0
523,228.5926726,228.77168500833332,69.0,117.0
524,228.9630431,229.18217897916665,74.0,117.0
525,228.9630431,229.20224071458333,78.0,127.0
526,228.9630431,229.20687034583332,69.0,117.0
527,230.07415459999999,230.25625342916666,73.0,127.0
528,230.07415459999999,230.25779663958332,69.0,112.0
529,230.07415459999999,230.28866084791665,66.0,122.0
530,230.4445251,230.6019325625,69.0,122.0
531,230.4445251,230.61273503541665,73.0,127.0
532,230.4445251,230.64051282291666,66.0,122.0
533,231.55563659999999,231.78248853124998,67.0,100.0
534,231.55563659999999,231.78711816249998,74.0,99.0
535,231.55563659999999,231.79329100416666,71.0,100.0
536,231.9260071,232.15903187291667,67.0,96.0
537,231.9260071,232.17755039791666,71.0,99.0
538,231.9260071,232.18218002916666,74.0,99.0
539,232.2963776,232.52631595208334,67.0,112.0
540,232.2963776,232.54020484583333,71.0,112.0
541,232.2963776,232.54483447708333,74.0,112.0
542,232.66674809999998,232.68680983541665,73.0,88.0
543,232.66674809999998,232.88279755833332,67.0,100.0
544,232.66674809999998,232.89360003125,74.0,100.0
545,232.66674809999998,232.9167481875,71.0,100.0
546,233.03711859999999,233.27322979374998,69.0,112.0
547,233.03711859999999,233.27477300416666,76.0,127.0
548,233.03711859999999,233.277859425,73.0,127.0
549,233.4074891,233.66211881875,69.0,90.0
550,233.4074891,233.67137808125,73.0,127.0
551,233.4074891,233.67137808125,76.0,100.0
552,233.7778596,234.01088437291665,73.0,127.0
553,233.7778596,234.01551400416665,76.0,127.0
554,233.7778596,234.02323005625,69.0,112.0
555,234.14823009999998,234.25779803958332,76.0,88.0
556,234.14823009999998,234.31952645625,73.0,127.0
557,234.14823009999998,234.3797116625,69.0,122.0
558,234.51860059999998,234.76551426666666,69.0,97.0
559,234.51860059999998,234.77477352916665,66.0,127.0
560,234.51860059999998,234.77785995,73.0,112.0
561,234.8889711,235.13897118749998,69.0,112.0
562,234.8889711,235.14051439791666,73.0,117.0
563,234.8889711,235.1574897125,66.0,122.0
564,235.2593416,235.50625526666667,69.0,127.0
565,235.2593416,235.52323058124998,73.0,127.0
566,235.2593416,235.537119475,66.0,122.0
567,235.62971209999998,235.79946524583332,69.0,107.0
568,235.62971209999998,235.8133541395833,66.0,100.0
569,235.62971209999998,235.83187266458333,73.0,102.0
570,236.00008259999998,236.24390984583331,71.0,107.0
571,236.00008259999998,236.24699626666666,78.0,127.0
572,236.00008259999998,236.25471231875,74.0,127.0
573,236.3704531,236.60347787291667,74.0,122.0
574,236.3704531,236.60502108333333,71.0,100.0
575,236.3704531,236.60810750416667,78.0,112.0
576,236.7408236,236.99699652916667,71.0,117.0
577,236.7408236,237.01242863333331,78.0,127.0
578,236.7408236,237.01551505416666,74.0,127.0
579,237.11119409999998,237.32261392708332,78.0,117.0
580,237.11119409999998,237.33495961041666,74.0,117.0
581,237.11119409999998,237.34730529375,71.0,100.0
582,237.48156459999998,237.7315646875,74.0,122.0
583,237.48156459999998,237.74082395,67.0,107.0
584,237.48156459999998,237.74236716041665,71.0,117.0
585,237.8519351,238.07878703125,67.0,99.0
586,237.8519351,238.1019351875,71.0,100.0
587,237.8519351,238.1019351875,74.0,99.0
588,238.2223056,238.47847852916667,67.0,117.0
589,238.2223056,238.49391063333331,71.0,117.0
590,238.2223056,238.4985402645833,74.0,102.0
591,238.59267609999998,238.81952803125,67.0,117.0
592,238.59267609999998,238.8241576625,74.0,99.0
593,238.59267609999998,238.86119471249998,71.0,102.0
594,238.96304659999998,239.20224421458332,76.0,127.0
595,238.96304659999998,239.20996026666666,69.0,112.0
596,238.96304659999998,239.21921952916665,73.0,127.0
597,239.3334171,239.55872582083333,69.0,102.0
598,239.3334171,239.57261471458332,76.0,102.0
599,239.3334171,239.5911332395833,73.0,127.0
600,239.7037876,239.93063953125,69.0,127.0
601,239.7037876,239.93063953125,76.0,127.0
602,239.7037876,239.9352691625,73.0,127.0
603,240.07415809999998,240.30101003125,76.0,117.0
604,240.07415809999998,240.30718287291666,69.0,117.0
605,240.07415809999998,240.32724460833333,73.0,127.0
606,240.44452859999998,240.61736816666667,73.0,127.0
607,240.44452859999998,240.62662742916666,69.0,127.0
608,240.44452859999998,240.63280027083331,66.0,127.0
609,240.8148991,241.02477571666665,69.0,102.0
610,240.8148991,241.02940534791665,73.0,117.0
611,240.8148991,241.03094855833334,66.0,112.0
612,241.1852696,241.38588695416666,69.0,122.0
613,241.1852696,241.39360300625,66.0,127.0
614,241.1852696,241.40286226875,73.0,127.0
615,241.55564009999998,241.74082535,69.0,112.0
616,241.55564009999998,241.74699819166665,66.0,112.0
617,241.55564009999998,241.76243029583333,73.0,127.0
618,241.92601059999998,242.15440574166666,71.0,112.0
619,241.92601059999998,242.15903537291666,78.0,127.0
620,241.92601059999998,242.166751425,74.0,122.0
621,242.2963811,242.51397376875,71.0,102.0
622,242.2963811,242.52477624166664,74.0,112.0
623,242.2963811,242.52631945208333,78.0,127.0
624,242.6667516,242.8797146375,74.0,122.0
625,242.6667516,242.88125784791666,71.0,102.0
626,242.6667516,242.8874306895833,78.0,127.0
627,243.03712209999998,243.2686036625,78.0,127.0
628,243.03712209999998,243.2716900833333,74.0,127.0
629,243.03712209999998,243.2871221875,71.0,102.0
630,243.40749259999998,243.6204556375,71.0,117.0
631,243.40749259999998,243.62662847916667,67.0,122.0
632,243.40749259999998,243.63434453124998,74.0,117.0
633,244.1482336,244.35348058541666,74.0,117.0
634,244.1482336,244.35502379583332,71.0,112.0
635,244.1482336,244.3611966375,67.0,112.0
636,244.88897459999998,245.0309499583333,69.0,112.0
637,244.88897459999998,245.0371228,73.0,127.0
638,244.88897459999998,245.04175243125,76.0,102.0
639,245.6297156,245.79175269375,69.0,112.0
640,245.6297156,245.81953048124998,76.0,112.0
641,245.6297156,245.82570332291667,73.0,127.0
642,246.37045659999998,246.50162948541666,73.0,127.0
643,246.37045659999998,246.50471590625,66.0,127.0
644,246.7408271,246.87354319583332,73.0,127.0
645,246.7408271,246.88125924791666,66.0,127.0
646,248.5926796,248.93064268125,66.0,127.0
647,248.96305009999998,249.36274159791665,69.0,102.0
648,249.33342059999998,249.68990220625,74.0,117.0
649,249.7037911,250.0216924458333,71.0,112.0
650,249.7037911,250.0216924458333,71.0,127.0
651,250.0741616,250.38743331458332,74.0,127.0
652,250.4445321,250.79792728541665,71.0,96.0
653,250.81490259999998,252.29638459999998,73.0,127.0
654,252.29638459999998,252.611199525,73.0,127.0
655,252.6667551,253.05873054583333,69.0,85.0
656,253.0371256,253.35348373541666,73.0,117.0
657,253.4074961,253.76243449583333,69.0,97.0
658,253.77786659999998,255.20996586666666,71.0,127.0
659,255.25934859999998,255.48620053124998,52.0,112.0
660,255.44453385,255.6204598375,54.0,112.0
661,255.6297191,255.79792903541664,57.0,96.0
662,255.81490434999998,255.99545996875,54.0,127.0
663,256.00008959999997,256.19916374375,57.0,100.0
664,256.18527485,256.33496626041665,59.0,102.0
665,256.3704601,256.53095398333335,62.0,112.0
666,256.7408306,256.87817632708334,64.0,100.0
667,256.833423225,256.9723121625,62.0,90.0
668,257.018608475,257.13589246666663,61.0,100.0
669,257.1112011,257.31181845416666,59.0,96.0
670,257.29638635,257.4661394958333,62.0,97.0
671,257.4815716,257.65441116666665,64.0,122.0
672,257.66675685,257.80101615625,66.0,127.0
673,257.8519421,258.0216952458333,69.0,100.0
674,258.03712735,258.16984344583335,66.0,127.0
675,258.2223126,262.54175855625,71.0,127.0
