,start,end,pitch,velocity
0,24.1481566,24.516983889583333,62.0,99.0
1,24.5185271,24.8888976,62.0,100.0
2,24.8888976,25.2592681,59.0,92.0
3,25.2592681,25.470687927083333,66.0,127.0
4,25.44445335,25.649700335416664,64.0,79.0
5,25.6296386,27.1111206,62.0,93.0
6,27.1111206,27.4814911,57.0,100.0
7,27.4814911,27.8518616,59.0,102.0
8,27.8518616,28.2222321,69.0,117.0
9,28.2222321,28.637355702083333,67.0,95.0
10,28.5926026,30.0740846,66.0,107.0
11,30.0740846,30.4444551,71.0,99.0
12,30.4444551,30.8148256,69.0,97.0
13,30.8148256,31.1851961,62.0,99.0
14,31.1851961,31.5555666,64.0,97.0
15,31.5555666,31.9259371,66.0,127.0
16,31.9259371,32.111122349999995,69.0,95.0
17,32.111122349999995,33.0370486,64.0,96.0
18,33.0370486,33.4074191,66.0,112.0
19,33.4074191,33.7777896,64.0,95.0
20,33.7777896,34.1481601,62.0,96.0
21,34.1481601,34.5185306,64.0,97.0
22,34.5185306,36.0000126,66.0,117.0
23,36.0000126,36.3703831,62.0,96.0
24,36.3703831,36.7407536,61.0,102.0
25,36.7407536,37.1111241,59.0,96.0
26,37.1111241,37.30402540208333,66.0,127.0
27,37.29630935,37.4814946,64.0,86.0
28,37.4814946,38.9629766,62.0,100.0
29,38.9629766,39.3333471,57.0,102.0
30,39.3333471,39.7037176,59.0,97.0
31,39.7037176,40.0740881,69.0,107.0
32,40.0740881,40.4444586,67.0,107.0
33,40.4444586,41.74075535,66.0,97.0
34,41.74075535,41.9259406,59.0,100.0
35,41.9259406,42.2963111,71.0,95.0
36,42.2963111,42.6666816,69.0,100.0
37,42.6666816,43.0370521,62.0,96.0
38,43.0370521,43.4074226,64.0,107.0
39,43.4074226,43.7777931,66.0,117.0
40,43.7777931,44.14662038958333,69.0,112.0
41,44.1481636,44.33180563958333,69.0,117.0
42,44.33334885,44.70371935,69.0,100.0
43,44.70371935,44.8889046,71.0,100.0
44,44.8889046,47.10958438958333,66.0,117.0
45,47.111127599999996,47.481498099999996,66.0,122.0
46,47.481498099999996,47.901251333333335,69.0,100.0
47,47.851868599999996,48.222239099999996,71.0,107.0
48,48.222239099999996,48.592609599999996,69.0,99.0
49,48.592609599999996,48.962980099999996,71.0,107.0
50,48.962980099999996,49.333350599999996,74.0,107.0
51,49.333350599999996,50.444462099999996,73.0,107.0
52,50.444462099999996,50.62964735,69.0,96.0
53,50.62964735,50.814832599999995,66.0,95.0
54,50.814832599999995,51.185203099999995,69.0,100.0
55,51.185203099999995,51.555573599999995,66.0,102.0
56,51.555573599999995,51.925944099999995,69.0,100.0
57,51.925944099999995,52.32100596666666,73.0,117.0
58,52.296314599999995,53.44446315,71.0,100.0
59,53.407426099999995,53.44446315,71.0,112.0
60,53.777796599999995,54.148167099999995,74.0,127.0
61,54.148167099999995,54.518537599999995,71.0,95.0
62,54.518537599999995,54.888908099999995,74.0,102.0
63,54.888908099999995,55.07255013958333,71.0,95.0
64,55.07409335,55.259278599999995,71.0,82.0
65,55.259278599999995,55.657426887499994,73.0,127.0
66,55.629649099999995,56.000019599999995,69.0,99.0
67,56.000019599999995,56.370390099999995,71.0,99.0
68,56.370390099999995,56.740760599999994,73.0,112.0
69,56.740760599999994,59.7037246,71.0,99.0
70,59.7037246,60.07255188958333,62.0,99.0
71,60.0740951,60.4444656,62.0,100.0
72,60.4444656,60.8148361,59.0,92.0
73,60.8148361,61.026255927083334,66.0,127.0
74,61.00002135,61.20526833541666,64.0,79.0
75,61.1852066,62.48150335,62.0,93.0
76,62.48150335,62.66514538958333,57.0,117.0
77,62.6666886,63.0370591,57.0,100.0
78,63.0370591,63.4074296,59.0,102.0
79,63.4074296,63.7778001,66.0,117.0
80,63.7778001,64.19292370208333,69.0,95.0
81,64.1481706,65.44446735,66.0,107.0
82,65.44446735,65.6296526,59.0,112.0
83,65.6296526,66.00002309999999,71.0,99.0
84,66.00002309999999,66.3703936,69.0,97.0
85,66.3703936,66.74076409999999,62.0,99.0
86,66.74076409999999,67.1111346,64.0,97.0
87,67.1111346,67.48150509999999,66.0,127.0
88,67.48150509999999,67.8518756,69.0,95.0
89,67.8518756,68.32718440833332,64.0,96.0
90,68.22224609999999,68.40588813958333,57.0,95.0
91,68.40743135,68.5926166,57.0,92.0
92,68.5926166,68.96298709999999,66.0,112.0
93,68.96298709999999,69.3333576,64.0,95.0
94,69.3333576,69.88891335,62.0,96.0
95,69.88891335,70.0740986,64.0,97.0
96,70.0740986,71.5555806,66.0,117.0
97,71.5555806,71.92440788958334,59.0,96.0
98,71.92595109999999,72.29477838958333,59.0,102.0
99,72.2963216,72.66669209999999,59.0,96.0
100,72.66669209999999,72.85959340208333,66.0,127.0
101,72.85187735,73.0370626,64.0,86.0
102,73.0370626,74.5185446,62.0,100.0
103,74.5185446,74.88891509999999,57.0,102.0
104,74.88891509999999,75.2592856,59.0,97.0
105,75.2592856,75.62965609999999,66.0,107.0
106,75.62965609999999,76.0000266,69.0,107.0
107,76.0000266,77.29632335,66.0,97.0
108,77.29632335,77.4815086,59.0,100.0
109,77.4815086,77.85187909999999,71.0,95.0
110,77.85187909999999,78.2222496,69.0,100.0
111,78.2222496,78.59107688958333,62.0,96.0
112,78.59262009999999,78.77780535,62.0,89.0
113,78.77780535,78.9629906,64.0,97.0
114,78.9629906,79.33336109999999,66.0,117.0
115,79.33336109999999,79.70218838958333,69.0,112.0
116,79.7037316,80.07255888958333,69.0,117.0
117,80.07410209999999,80.25928735,69.0,100.0
118,80.25928735,80.4444726,71.0,100.0
119,80.4444726,82.66515238958333,66.0,117.0
120,82.6666956,83.03706609999999,66.0,122.0
121,83.03706609999999,83.45681933333333,69.0,100.0
122,83.4074366,83.77780709999999,71.0,107.0
123,83.77780709999999,84.1481776,69.0,99.0
124,84.1481776,84.51854809999999,71.0,107.0
125,84.51854809999999,84.8889186,74.0,107.0
126,84.8889186,86.00003009999999,73.0,107.0
127,86.00003009999999,86.18521535,69.0,96.0
128,86.18521535,86.3704006,66.0,95.0
129,86.3704006,86.7407711,69.0,100.0
130,86.7407711,87.1111416,66.0,102.0
131,87.1111416,87.4815121,69.0,100.0
132,87.4815121,87.87657396666667,73.0,117.0
133,87.8518826,88.96145088958333,71.0,100.0
134,88.9629941,89.3333646,71.0,112.0
135,89.3333646,89.7037351,74.0,127.0
136,89.7037351,90.0741056,71.0,95.0
137,90.0741056,90.4444761,74.0,102.0
138,90.4444761,90.62811813958334,71.0,95.0
139,90.62966134999999,90.8148466,71.0,82.0
140,90.8148466,91.2129948875,73.0,127.0
141,91.1852171,91.5555876,69.0,99.0
142,91.5555876,91.9259581,71.0,99.0
143,91.9259581,92.2963286,73.0,112.0
144,92.2963286,94.5185516,71.0,99.0
145,94.5185516,94.8889221,74.0,127.0
146,94.8889221,95.2592926,73.0,122.0
147,95.2592926,96.0000336,71.0,112.0
148,96.0000336,96.7407746,74.0,122.0
149,96.7407746,97.8518861,76.0,127.0
150,97.8518861,98.2222566,69.0,102.0
151,98.2222566,98.5926271,78.0,127.0
152,98.5926271,98.9629976,69.0,102.0
153,98.9629976,99.3333681,76.0,107.0
154,99.3333681,99.7037386,69.0,96.0
155,99.7037386,100.8148501,74.0,117.0
156,100.8148501,101.1852206,71.0,112.0
157,101.1852206,101.5555911,74.0,122.0
158,101.5555911,101.9259616,71.0,102.0
159,101.9259616,102.2963321,74.0,127.0
160,102.2963321,102.6667026,71.0,107.0
161,102.6667026,103.07565336041667,76.0,127.0
162,103.0370731,103.4074436,69.0,100.0
163,103.4074436,103.7778141,76.0,117.0
164,103.7778141,104.1481846,69.0,117.0
165,104.1481846,104.5185551,78.0,127.0
166,104.5185551,104.8889256,76.0,122.0
167,104.8889256,105.2592961,74.0,100.0
168,105.2592961,105.62812338958332,78.0,127.0
169,105.6296666,106.3704076,78.0,127.0
170,106.3704076,106.7407781,74.0,127.0
171,106.7407781,107.11114859999999,73.0,112.0
172,107.11114859999999,107.85188959999999,71.0,112.0
173,107.85188959999999,108.59263059999999,74.0,102.0
174,108.59263059999999,109.7037421,76.0,127.0
175,109.7037421,110.07411259999999,69.0,99.0
176,110.07411259999999,110.4444831,81.0,117.0
177,110.4444831,110.81485359999999,79.0,122.0
178,110.81485359999999,111.1852241,78.0,127.0
179,111.1852241,111.55559459999999,69.0,96.0
180,111.55559459999999,112.66516288958333,71.0,127.0
181,112.6667061,113.03707659999999,71.0,112.0
182,113.03707659999999,113.4074471,74.0,122.0
183,113.4074471,113.77781759999999,71.0,112.0
184,113.77781759999999,114.1481881,74.0,127.0
185,114.1481881,114.51855859999999,71.0,117.0
186,114.51855859999999,114.8889291,76.0,117.0
187,114.8889291,115.25929959999999,69.0,90.0
188,115.25929959999999,116.00004059999999,76.0,117.0
189,116.00004059999999,116.3704111,69.0,107.0
190,116.3704111,116.74078159999999,66.0,117.0
191,116.74078159999999,117.1111521,69.0,127.0
192,117.1111521,117.47997938958333,71.0,102.0
193,117.48152259999999,119.50775787708332,71.0,127.0
194,130.8148606,131.18368788958333,62.0,99.0
195,131.18523109999998,131.5556016,62.0,100.0
196,131.5556016,131.9259721,59.0,92.0
197,131.9259721,132.1373919270833,66.0,127.0
198,132.11115734999998,132.31640433541665,64.0,79.0
199,132.2963426,133.59263934999998,62.0,93.0
200,133.59263934999998,133.77628138958332,57.0,117.0
201,133.7778246,134.14819509999998,57.0,100.0
202,134.14819509999998,134.5185656,59.0,102.0
203,134.5185656,134.8889361,66.0,117.0
204,134.8889361,135.30405970208332,69.0,95.0
205,135.2593066,136.55560334999998,66.0,107.0
206,136.55560334999998,136.7407886,59.0,112.0
207,136.7407886,137.11115909999998,71.0,99.0
208,137.11115909999998,137.4815296,69.0,97.0
209,137.4815296,137.8519001,62.0,99.0
210,137.8519001,138.2222706,64.0,97.0
211,138.2222706,138.59264109999998,66.0,127.0
212,138.59264109999998,138.9630116,69.0,95.0
213,138.9630116,139.43832040833334,64.0,96.0
214,139.3333821,139.51702413958333,57.0,95.0
215,139.51856734999998,139.7037526,57.0,92.0
216,139.7037526,140.07412309999998,66.0,112.0
217,140.07412309999998,140.4444936,64.0,95.0
218,140.4444936,141.00004934999998,62.0,96.0
219,141.00004934999998,141.1852346,64.0,97.0
220,141.1852346,142.6667166,66.0,117.0
221,142.6667166,143.03554388958332,59.0,96.0
222,143.0370871,143.40591438958333,59.0,102.0
223,143.4074576,143.7778281,59.0,96.0
224,143.7778281,143.97072940208332,66.0,127.0
225,143.96301334999998,144.1481986,64.0,86.0
226,144.1481986,145.6296806,62.0,100.0
227,145.6296806,146.0000511,57.0,102.0
228,146.0000511,146.3704216,59.0,97.0
229,146.3704216,146.7407921,66.0,107.0
230,146.7407921,147.1111626,69.0,107.0
231,147.1111626,148.40745934999998,66.0,97.0
232,148.40745934999998,148.5926446,59.0,100.0
233,148.5926446,148.9630151,71.0,95.0
234,148.9630151,149.33338559999999,69.0,100.0
235,149.33338559999999,149.70221288958334,62.0,96.0
236,149.7037561,149.88894134999998,62.0,89.0
237,149.88894134999998,150.0741266,64.0,97.0
238,150.0741266,150.4444971,66.0,117.0
239,150.4444971,150.81332438958333,69.0,112.0
240,150.81486759999999,151.18369488958334,69.0,117.0
241,151.1852381,151.37042334999998,69.0,100.0
242,151.37042334999998,151.5556086,71.0,100.0
243,151.5556086,153.77628838958333,66.0,117.0
244,153.77783159999998,154.1482021,66.0,122.0
245,154.1482021,154.56795533333332,69.0,100.0
246,154.5185726,154.8889431,71.0,107.0
247,154.8889431,155.25931359999998,69.0,99.0
248,155.25931359999998,155.6296841,71.0,107.0
249,155.6296841,156.0000546,74.0,107.0
250,156.0000546,157.1111661,73.0,107.0
251,157.1111661,157.29635134999998,69.0,96.0
252,157.29635134999998,157.4815366,66.0,95.0
253,157.4815366,157.8519071,69.0,100.0
254,157.8519071,158.22227759999998,66.0,102.0
255,158.22227759999998,158.5926481,69.0,100.0
256,158.5926481,158.98770996666667,73.0,117.0
257,158.9630186,160.07258688958333,71.0,100.0
258,160.0741301,160.4445006,71.0,112.0
259,160.4445006,160.8148711,74.0,127.0
260,160.8148711,161.18524159999998,71.0,95.0
261,161.18524159999998,161.5556121,74.0,102.0
262,161.5556121,161.73925413958332,71.0,95.0
263,161.74079734999998,161.9259826,71.0,82.0
264,161.9259826,162.3241308875,73.0,127.0
265,162.2963531,162.66672359999998,69.0,99.0
266,162.66672359999998,163.0370941,71.0,99.0
267,163.0370941,163.4074646,73.0,112.0
268,163.4074646,165.62968759999998,71.0,99.0
269,165.62968759999998,166.0000581,74.0,127.0
270,166.0000581,166.3704286,73.0,122.0
271,166.3704286,167.11116959999998,71.0,112.0
272,167.11116959999998,167.8519106,74.0,122.0
273,167.8519106,168.9630221,76.0,127.0
274,168.9630221,169.3333926,69.0,102.0
275,169.3333926,169.7037631,78.0,127.0
276,169.7037631,170.07413359999998,69.0,102.0
277,170.07413359999998,170.4445041,76.0,107.0
278,170.4445041,170.8148746,69.0,96.0
279,170.8148746,171.9259861,74.0,117.0
280,171.9259861,172.2963566,71.0,112.0
281,172.2963566,172.6667271,74.0,122.0
282,172.6667271,173.03709759999998,71.0,102.0
283,173.03709759999998,173.4074681,74.0,127.0
284,173.4074681,173.7778386,71.0,107.0
285,173.7778386,174.18678936041667,76.0,127.0
286,174.1482091,174.51857959999998,69.0,100.0
287,174.51857959999998,174.8889501,76.0,117.0
288,174.8889501,175.2593206,69.0,117.0
289,175.2593206,175.6296911,78.0,127.0
290,175.6296911,176.00006159999998,76.0,122.0
291,176.00006159999998,176.3704321,74.0,100.0
292,176.3704321,176.73925938958334,78.0,127.0
293,176.7408026,177.48154359999998,78.0,127.0
294,177.48154359999998,177.8519141,74.0,127.0
295,177.8519141,178.2222846,73.0,112.0
296,178.2222846,178.96302559999998,71.0,112.0
297,178.96302559999998,179.7037666,74.0,102.0
298,179.7037666,180.8148781,76.0,127.0
299,180.8148781,181.1852486,69.0,99.0
300,181.1852486,181.5556191,81.0,117.0
301,181.5556191,181.92598959999998,79.0,122.0
302,181.92598959999998,182.2963601,78.0,127.0
303,182.2963601,182.6667306,69.0,96.0
304,182.6667306,183.77629888958333,71.0,127.0
305,183.7778421,184.1482126,71.0,112.0
306,184.1482126,184.5185831,74.0,122.0
307,184.5185831,184.88895359999998,71.0,112.0
308,184.88895359999998,185.2593241,74.0,127.0
309,185.2593241,185.6296946,71.0,117.0
310,185.6296946,186.0000651,76.0,117.0
311,186.0000651,186.37043559999998,69.0,90.0
312,186.37043559999998,187.1111766,76.0,117.0
313,187.1111766,187.4815471,69.0,107.0
314,187.4815471,187.85191759999998,66.0,117.0
315,187.85191759999998,188.2222881,69.0,127.0
316,188.2222881,188.59111538958334,71.0,102.0
317,188.5926586,189.70222688958333,71.0,127.0
318,189.70377009999999,190.0741406,71.0,107.0
319,190.0741406,190.4445111,74.0,127.0
320,190.4445111,190.81488159999998,71.0,107.0
321,190.81488159999998,191.18525209999999,74.0,127.0
322,191.18525209999999,191.5556226,71.0,112.0
323,191.5556226,191.9259931,76.0,127.0
324,191.9259931,192.29636359999998,69.0,90.0
325,192.29636359999998,193.0371046,76.0,127.0
326,193.0371046,193.4074751,69.0,122.0
327,193.4074751,193.77784559999998,66.0,117.0
328,193.77784559999998,194.14821609999998,69.0,102.0
329,194.14821609999998,194.5185866,73.0,127.0
330,194.5185866,196.29636499999998,71.0,127.0
331,218.9630396,219.33341009999998,74.0,127.0
332,219.33341009999998,219.7037806,73.0,122.0
333,219.7037806,220.4445216,71.0,112.0
334,220.4445216,221.1852626,74.0,122.0
335,221.1852626,222.29637409999998,76.0,127.0
336,222.29637409999998,222.6667446,69.0,102.0
337,222.6667446,223.0371151,78.0,127.0
338,223.0371151,223.4074856,69.0,102.0
339,223.4074856,223.77785609999998,76.0,107.0
340,223.77785609999998,224.1482266,69.0,96.0
341,224.1482266,225.25933809999998,74.0,117.0
342,225.25933809999998,225.6297086,71.0,112.0
343,225.6297086,226.0000791,74.0,122.0
344,226.0000791,226.3704496,71.0,102.0
345,226.3704496,226.74082009999998,74.0,127.0
346,226.74082009999998,227.1111906,71.0,107.0
347,227.1111906,227.52014136041666,76.0,127.0
348,227.4815611,227.8519316,69.0,100.0
349,227.8519316,228.22230209999998,76.0,117.0
350,228.22230209999998,228.5926726,69.0,117.0
351,228.5926726,228.9630431,78.0,127.0
352,228.9630431,229.3334136,76.0,122.0
353,229.3334136,229.70378409999998,74.0,100.0
354,229.70378409999998,230.07261138958333,78.0,127.0
355,230.07415459999999,230.8148956,78.0,127.0
356,230.8148956,231.18526609999998,74.0,127.0
357,231.18526609999998,231.55563659999999,73.0,112.0
358,231.55563659999999,232.2963776,71.0,112.0
359,232.2963776,233.03711859999999,74.0,102.0
360,233.03711859999999,234.14823009999998,76.0,127.0
361,234.14823009999998,234.51860059999998,69.0,99.0
362,234.51860059999998,234.8889711,81.0,117.0
363,234.8889711,235.2593416,79.0,122.0
364,235.2593416,235.62971209999998,78.0,127.0
365,235.62971209999998,236.00008259999998,69.0,96.0
366,236.00008259999998,237.10965088958332,71.0,127.0
367,237.11119409999998,237.48156459999998,71.0,112.0
368,237.48156459999998,237.8519351,74.0,122.0
369,237.8519351,238.2223056,71.0,112.0
370,238.2223056,238.59267609999998,74.0,127.0
371,238.59267609999998,238.96304659999998,71.0,117.0
372,238.96304659999998,239.3334171,76.0,117.0
373,239.3334171,239.7037876,69.0,90.0
374,239.7037876,240.44452859999998,76.0,117.0
375,240.44452859999998,240.8148991,69.0,107.0
376,240.8148991,241.1852696,66.0,117.0
377,241.1852696,241.55564009999998,69.0,127.0
378,241.55564009999998,241.92446738958333,71.0,102.0
379,241.92601059999998,243.03557888958332,71.0,127.0
380,243.03712209999998,243.40749259999998,71.0,107.0
381,243.40749259999998,243.7778631,74.0,127.0
382,243.7778631,244.1482336,71.0,107.0
383,244.1482336,244.51860409999998,74.0,127.0
384,244.51860409999998,244.88897459999998,71.0,112.0
385,244.88897459999998,245.2593451,76.0,127.0
386,245.2593451,245.6297156,69.0,90.0
387,245.6297156,246.37045659999998,76.0,127.0
388,246.37045659999998,246.7408271,69.0,122.0
389,246.7408271,247.1111976,66.0,117.0
390,247.1111976,247.48156809999998,69.0,102.0
391,247.48156809999998,247.85193859999998,73.0,127.0
392,247.85193859999998,249.629717,71.0,127.0
