,start,end,pitch,velocity
0,0.44444459999999997,0.5478396979166666,62.0,48.0
1,0.44444459999999997,0.5725310645833334,66.0,43.0
2,0.44444459999999997,0.5817903270833333,59.0,66.0
3,0.8148151,0.8981484624999999,62.0,36.0
4,0.8148151,1.0987658166666667,59.0,54.0
5,0.44444459999999997,1.5956795708333333,47.0,85.0
6,1.1851856,1.8595685520833332,62.0,95.0
7,1.1851856,1.8811734979166665,66.0,107.0
8,1.74074135,1.9413587041666667,59.0,72.0
9,2.2962971,2.68981575625,55.0,76.0
10,1.9259266,2.7731491187499997,43.0,76.0
11,2.6666676,3.3719147604166664,62.0,90.0
12,2.6666676,3.4043221791666665,59.0,90.0
13,3.2222233499999997,3.4074085999999997,55.0,47.0
14,3.7777791,4.179013808333333,52.0,69.0
15,3.4074085999999997,4.211421227083333,45.0,74.0
16,4.1481496,4.646606564583333,64.0,90.0
17,4.1481496,4.665125089583333,61.0,112.0
18,4.1481496,4.692902877083333,57.0,88.0
19,4.70370535,4.831791814583333,61.0,69.0
20,4.70370535,4.850310339583333,64.0,69.0
21,4.70370535,4.858026391666667,57.0,56.0
22,5.2592611,5.280866045833333,62.0,33.0
23,5.2592611,5.70833533125,57.0,82.0
24,4.8888906,5.714508172916666,50.0,79.0
25,5.6296316,6.359570127083333,66.0,97.0
26,5.6296316,6.367286179166666,62.0,93.0
27,6.18518735,6.391977545833333,57.0,75.0
28,6.3703726,7.154323491666666,43.0,76.0
29,6.7407430999999995,7.240743275,50.0,63.0
30,7.1111135999999995,7.794755814583333,62.0,95.0
31,7.1111135999999995,7.822533602083333,59.0,93.0
32,7.666669349999999,7.841052127083333,55.0,79.0
33,8.2222251,8.765435166666666,52.0,92.0
34,7.851854599999999,9.251546447916667,45.0,78.0
35,8.5925956,9.296299549999999,61.0,127.0
36,8.5925956,9.304015602083332,64.0,107.0
37,9.14815135,9.344139072916667,57.0,88.0
38,9.703707099999999,10.115744281249999,57.0,82.0
39,10.074077599999999,10.526238252083333,66.0,99.0
40,10.074077599999999,10.533954304166667,62.0,102.0
41,9.333336599999999,10.714509922916665,50.0,93.0
42,10.814818599999999,10.94907790625,50.0,86.0
43,10.629633349999999,10.94907790625,57.0,76.0
44,10.629633349999999,10.97685569375,66.0,97.0
45,10.629633349999999,10.986114956249999,62.0,95.0
46,11.185189099999999,11.34722619375,50.0,92.0
47,11.185189099999999,11.382720033333333,57.0,77.0
48,11.185189099999999,11.3981521375,66.0,95.0
49,11.185189099999999,11.41204103125,62.0,96.0
50,11.555559599999999,11.788584372916667,57.0,96.0
51,11.555559599999999,11.805559687499999,62.0,107.0
52,11.555559599999999,11.8240782125,66.0,122.0
53,11.925930099999999,12.012349883333332,62.0,82.0
54,11.555559599999999,12.070991879166666,50.0,122.0
55,11.925930099999999,12.169757345833332,57.0,90.0
56,13.0370416,13.59259735,62.0,127.0
57,12.2963006,13.6203751375,43.0,97.0
58,13.59259735,13.640436872916666,62.0,37.0
59,12.6666711,13.736115918749999,50.0,97.0
60,13.0370416,13.773152968749999,59.0,117.0
61,13.59259735,13.808646808333332,55.0,97.0
62,14.1481531,14.751548372916666,52.0,102.0
63,13.7777826,14.779326160416666,45.0,82.0
64,14.5185236,15.234573233333332,61.0,122.0
65,14.5185236,15.242289285416666,64.0,100.0
66,14.8888941,15.316363385416667,57.0,82.0
67,15.6296351,16.092598225,54.0,97.0
68,15.2592646,16.108030329166667,42.0,95.0
69,16.000005599999998,16.677474972916666,61.0,122.0
70,16.000005599999998,16.73611696875,66.0,122.0
71,16.555561349999998,16.759265125,57.0,99.0
72,17.111117099999998,17.617290116666666,54.0,95.0
73,16.740746599999998,17.618833327083333,47.0,78.0
74,17.481487599999998,18.243833545833333,62.0,117.0
75,17.481487599999998,18.251549597916664,66.0,117.0
76,17.851858099999998,18.290129858333334,59.0,93.0
77,18.222228599999998,19.21759931875,43.0,93.0
78,18.592599099999997,19.456796933333333,50.0,73.0
79,18.9629696,19.626550079166666,62.0,99.0
80,18.9629696,19.645068604166667,59.0,99.0
81,19.51852535,19.71759949375,55.0,102.0
82,19.7037106,20.611118325,45.0,74.0
83,20.0740811,20.663587479166665,52.0,100.0
84,20.4444516,21.123464183333333,61.0,127.0
85,20.4444516,21.1388962875,64.0,99.0
86,20.8148221,21.308649433333333,57.0,96.0
87,21.5555631,21.989205227083332,54.0,97.0
88,21.9259336,22.18056331875,62.0,107.0
89,21.9259336,22.183649739583334,66.0,127.0
90,22.2963041,22.541674556249998,62.0,95.0
91,22.2963041,22.543217766666665,66.0,95.0
92,22.11111885,22.54476097708333,54.0,107.0
93,21.1851926,22.5648227125,47.0,86.0
94,22.6666746,22.975316683333332,54.0,102.0
95,22.6666746,22.993835208333333,59.0,107.0
96,22.6666746,23.00463768125,47.0,76.0
97,22.6666746,23.016983364583332,62.0,127.0
98,22.6666746,23.049390783333333,66.0,127.0
99,24.5185271,24.918218597916667,54.0,67.0
100,24.1481566,24.9907494875,47.0,81.0
101,24.8888976,25.570996604166666,62.0,97.0
102,24.8888976,25.59105833958333,66.0,102.0
103,25.44445335,25.649700335416664,59.0,76.0
104,25.6296386,26.40587343958333,43.0,72.0
105,26.0000091,26.45834259375,50.0,54.0
106,26.3703796,27.086429233333334,59.0,82.0
107,26.3703796,27.109577389583333,62.0,83.0
108,27.4814911,27.907417175,52.0,71.0
109,27.1111206,27.932108541666665,45.0,72.0
110,27.8518616,28.334886460416666,64.0,78.0
111,27.8518616,28.34723214375,57.0,85.0
112,27.8518616,28.356491406249997,61.0,97.0
113,28.40741735,28.541676656249997,57.0,71.0
114,28.40741735,28.54476307708333,64.0,70.0
115,28.40741735,28.552479129166667,61.0,83.0
116,28.5926026,28.725318695833334,50.0,65.0
117,28.9629731,29.412047331249997,50.0,78.0
118,29.3333436,30.10649201875,66.0,102.0
119,29.3333436,30.125010543749998,62.0,96.0
120,29.7037141,30.140442647916664,57.0,69.0
121,30.0740846,30.80865275833333,43.0,77.0
122,30.4444551,30.893529331249997,50.0,64.0
123,30.8148256,31.46606039583333,62.0,99.0
124,30.8148256,31.484578920833332,59.0,96.0
125,31.37038135,31.501554235416666,55.0,85.0
126,31.9259371,32.48612248125,52.0,74.0
127,31.5555666,32.537048425,45.0,83.0
128,32.2963076,32.950628816666665,64.0,85.0
129,32.2963076,32.97069055208333,61.0,112.0
130,32.85186335,33.02315970625,57.0,72.0
131,33.4074191,33.70988834166666,57.0,73.0
132,33.0370486,33.73920933958333,50.0,88.0
133,33.7777896,34.40278981875,62.0,93.0
134,33.7777896,34.501555285416664,66.0,112.0
135,34.33334535,34.61266643541666,57.0,81.0
136,34.8889011,35.277790124999996,54.0,90.0
137,34.5185306,35.314827175,42.0,96.0
138,35.2592716,35.96760518125,61.0,117.0
139,35.2592716,36.00772865208333,66.0,117.0
140,36.3703831,36.828716593749995,54.0,75.0
141,36.0000126,36.8426054875,47.0,78.0
142,36.7407536,37.375013081249996,62.0,89.0
143,36.7407536,37.410506920833335,66.0,97.0
144,37.29630935,37.50309954583333,59.0,86.0
145,37.4814946,38.23303807291666,43.0,73.0
146,37.8518651,38.410507270833335,50.0,60.0
147,38.2222356,38.953717337499995,59.0,85.0
148,38.2222356,38.9629766,62.0,86.0
149,38.5926061,38.96451981041667,55.0,62.0
150,38.9629766,39.18828532083333,45.0,81.0
151,39.3333471,40.06945846875,52.0,56.0
152,39.3333471,40.18365603958333,45.0,75.0
153,39.7037176,40.425940075,61.0,107.0
154,39.7037176,40.436742547916666,64.0,92.0
155,40.4444586,40.56791543333333,50.0,89.0
156,40.25927335,40.682113004166666,57.0,90.0
157,40.8148291,41.30711322291666,50.0,72.0
158,41.1851996,41.86575539375,62.0,90.0
159,41.1851996,41.902792443749995,66.0,97.0
160,41.74075535,41.93982949375,57.0,70.0
161,41.9259406,42.785508802083335,43.0,76.0
162,42.2963111,42.876558216666666,50.0,78.0
163,42.6666816,43.38427444375,59.0,89.0
164,42.6666816,43.39353370625,62.0,92.0
165,43.22223735,43.40279296875,55.0,63.0
166,43.7777931,44.251558697916664,52.0,73.0
167,43.4074226,44.27162043333333,45.0,78.0
168,44.1481636,44.833349025,61.0,100.0
169,44.1481636,44.86884286458333,64.0,86.0
170,44.70371935,44.93983054375,57.0,78.0
171,45.259275099999996,45.5555715,57.0,92.0
172,45.629645599999996,46.083349462499996,62.0,90.0
173,45.629645599999996,46.09569514583333,66.0,102.0
174,44.8889046,46.251559397916665,50.0,97.0
175,46.370386599999996,46.47995453958333,50.0,82.0
176,46.18520135,46.69291757708333,62.0,88.0
177,46.18520135,46.719152154166665,57.0,79.0
178,46.18520135,46.73921388958333,66.0,85.0
179,46.740757099999996,47.228411591666664,50.0,89.0
180,47.111127599999996,47.86267107291666,62.0,85.0
181,47.111127599999996,47.915140227083334,66.0,122.0
182,47.481498099999996,47.93828838333333,57.0,89.0
183,47.851868599999996,48.83643684583333,43.0,83.0
184,48.222239099999996,49.21915302916666,50.0,77.0
185,48.592609599999996,49.242301185416665,59.0,95.0
186,48.592609599999996,49.24538760625,62.0,97.0
187,49.14816535,49.311745654166664,55.0,90.0
188,49.333350599999996,50.31020279375,45.0,78.0
189,49.703721099999996,50.319462056249996,52.0,83.0
190,50.074091599999996,50.800943706249996,64.0,88.0
191,50.074091599999996,50.833351125,61.0,107.0
192,50.62964735,50.84724001875,57.0,89.0
193,50.814832599999995,51.5463143375,42.0,82.0
194,51.185203099999995,51.583351387499995,54.0,75.0
195,51.555573599999995,52.20989481666666,61.0,117.0
196,51.555573599999995,52.3055738625,66.0,102.0
197,52.11112935,52.3611294375,57.0,90.0
198,52.666685099999995,53.05711733541666,54.0,83.0
199,52.296314599999995,53.18366058958333,47.0,74.0
200,53.037055599999995,53.77625338958333,62.0,102.0
201,53.037055599999995,53.78859907291667,66.0,122.0
202,53.407426099999995,53.79477191458333,59.0,93.0
203,53.777796599999995,54.617303066666665,43.0,70.0
204,54.148167099999995,54.66514258958333,50.0,56.0
205,54.518537599999995,55.00464888125,62.0,88.0
206,54.518537599999995,55.00619209166666,59.0,92.0
207,54.518537599999995,55.009278512499996,55.0,85.0
208,55.07409335,55.24384649583333,55.0,78.0
209,55.07409335,55.246932916666665,59.0,89.0
210,55.07409335,55.25619217916667,62.0,82.0
211,55.259278599999995,56.29940242083333,45.0,72.0
212,56.000019599999995,56.43674814791667,61.0,127.0
213,55.629649099999995,56.476871618749996,52.0,82.0
214,56.370390099999995,56.70218033958333,57.0,112.0
215,56.55557535,56.740760599999994,61.0,107.0
216,56.000019599999995,56.740760599999994,64.0,97.0
217,56.740760599999994,56.9352051125,47.0,77.0
218,56.740760599999994,56.950637216666664,59.0,74.0
219,56.740760599999994,56.95681005833333,62.0,86.0
220,56.740760599999994,56.97069895208333,66.0,79.0
221,57.111131099999994,57.364217608333334,59.0,68.0
222,57.111131099999994,57.37656329166666,62.0,76.0
223,57.111131099999994,57.3796497125,47.0,67.0
224,57.111131099999994,57.384279343749995,66.0,78.0
225,57.481501599999994,57.663600429166664,47.0,86.0
226,57.481501599999994,57.679032533333334,59.0,72.0
227,57.481501599999994,57.68829179583333,62.0,71.0
228,57.481501599999994,57.71143995208333,66.0,67.0
229,57.851872099999994,58.07255118958333,59.0,78.0
230,57.851872099999994,58.07872403125,62.0,89.0
231,57.851872099999994,58.091069714583334,66.0,88.0
232,57.851872099999994,58.112674660416666,47.0,95.0
233,58.222242599999994,58.574094575,62.0,99.0
234,58.222242599999994,58.57563778541667,59.0,90.0
235,58.222242599999994,58.58644025833333,47.0,97.0
236,58.222242599999994,58.61884767708333,66.0,99.0
237,60.0740951,60.473786597916664,54.0,67.0
238,59.7037246,60.5463174875,47.0,81.0
239,60.4444656,61.12656460416667,62.0,97.0
240,60.4444656,61.14662633958333,66.0,102.0
241,61.00002135,61.20526833541666,59.0,76.0
242,61.1852066,61.96144143958333,43.0,72.0
243,61.5555771,62.01391059375,50.0,54.0
244,61.9259476,62.64199723333333,59.0,82.0
245,61.9259476,62.66514538958333,62.0,83.0
246,63.0370591,63.462985175,52.0,71.0
247,62.6666886,63.487676541666666,45.0,72.0
248,63.4074296,63.89045446041666,64.0,78.0
249,63.4074296,63.90280014375,57.0,85.0
250,63.4074296,63.912059406249995,61.0,97.0
251,63.96298535,64.09724465625,57.0,71.0
252,63.96298535,64.10033107708333,64.0,70.0
253,63.96298535,64.10804712916666,61.0,83.0
254,64.1481706,64.28088669583333,50.0,65.0
255,64.5185411,64.96761533125,50.0,78.0
256,64.8889116,65.66206001875,66.0,102.0
257,64.8889116,65.68057854375,62.0,96.0
258,65.2592821,65.69601064791667,57.0,69.0
259,65.6296526,66.36422075833333,43.0,77.0
260,66.00002309999999,66.44909733125,50.0,64.0
261,66.3703936,67.02162839583333,62.0,99.0
262,66.3703936,67.04014692083334,59.0,96.0
263,66.92594935,67.05712223541667,55.0,85.0
264,67.48150509999999,68.04169048125,52.0,74.0
265,67.1111346,68.092616425,45.0,83.0
266,67.8518756,68.50619681666666,64.0,85.0
267,67.8518756,68.52625855208333,61.0,112.0
268,68.40743135,68.57872770624999,57.0,72.0
269,68.96298709999999,69.26545634166666,57.0,73.0
270,68.5926166,69.29477733958333,50.0,88.0
271,69.3333576,69.95835781875,62.0,93.0
272,69.3333576,70.05712328541667,66.0,112.0
273,69.88891335,70.16823443541666,57.0,81.0
274,70.44446909999999,70.833358125,54.0,90.0
275,70.0740986,70.870395175,42.0,96.0
276,70.8148396,71.52317318125,61.0,117.0
277,70.8148396,71.56329665208332,66.0,117.0
278,71.92595109999999,72.38428459375,54.0,75.0
279,71.5555806,72.3981734875,47.0,78.0
280,72.2963216,72.93058108125,62.0,89.0
281,72.2963216,72.96607492083334,66.0,97.0
282,72.85187735,73.05866754583333,59.0,86.0
283,73.0370626,73.78860607291666,43.0,73.0
284,73.40743309999999,73.96607527083333,50.0,60.0
285,73.7778036,74.5092853375,59.0,85.0
286,73.7778036,74.5185446,62.0,86.0
287,74.14817409999999,74.52008781041667,55.0,62.0
288,74.5185446,74.74385332083332,45.0,81.0
289,74.88891509999999,75.62502646875,52.0,56.0
290,74.88891509999999,75.73922403958333,45.0,75.0
291,75.2592856,75.981508075,61.0,107.0
292,75.2592856,75.99231054791666,64.0,92.0
293,76.0000266,76.12348343333333,50.0,89.0
294,75.81484135,76.23768100416666,57.0,90.0
295,76.37039709999999,76.86268122291666,50.0,72.0
296,76.7407676,77.42132339375,62.0,90.0
297,76.7407676,77.45836044375,66.0,97.0
298,77.29632335,77.49539749374999,57.0,70.0
299,77.4815086,78.34107680208334,43.0,76.0
300,77.85187909999999,78.43212621666666,50.0,78.0
301,78.2222496,78.93984244375,59.0,89.0
302,78.2222496,78.94910170624999,62.0,92.0
303,78.77780535,78.95836096875,55.0,63.0
304,79.33336109999999,79.80712669791666,52.0,73.0
305,78.9629906,79.82718843333333,45.0,78.0
306,79.7037316,80.388917025,61.0,100.0
307,79.7037316,80.42441086458334,64.0,86.0
308,80.25928735,80.49539854375,57.0,78.0
309,80.81484309999999,81.1111395,57.0,92.0
310,81.1852136,81.63891746249999,62.0,90.0
311,81.1852136,81.65126314583333,66.0,102.0
312,80.4444726,81.80712739791666,50.0,97.0
313,81.9259546,82.03552253958333,50.0,82.0
314,81.74076935,82.24848557708333,62.0,88.0
315,81.74076935,82.27472015416666,57.0,79.0
316,81.74076935,82.29478188958333,66.0,85.0
317,82.29632509999999,82.78397959166666,50.0,89.0
318,82.6666956,83.41823907291666,62.0,85.0
319,82.6666956,83.47070822708334,66.0,122.0
320,83.03706609999999,83.49385638333332,57.0,89.0
321,83.4074366,84.39200484583333,43.0,83.0
322,83.77780709999999,84.77472102916666,50.0,77.0
323,84.1481776,84.79786918541666,59.0,95.0
324,84.1481776,84.80095560625,62.0,97.0
325,84.70373335,84.86731365416667,55.0,90.0
326,84.8889186,85.86577079375,45.0,78.0
327,85.25928909999999,85.87503005625,52.0,83.0
328,85.6296596,86.35651170624999,64.0,88.0
329,85.6296596,86.388919125,61.0,107.0
330,86.18521535,86.40280801875,57.0,89.0
331,86.3704006,87.1018823375,42.0,82.0
332,86.7407711,87.1389193875,54.0,75.0
333,87.1111416,87.76546281666667,61.0,117.0
334,87.1111416,87.86114186249999,66.0,102.0
335,87.66669734999999,87.91669743749999,57.0,90.0
336,88.2222531,88.61268533541666,54.0,83.0
337,87.8518826,88.73922858958333,47.0,74.0
338,88.5926236,89.33182138958333,62.0,102.0
339,88.5926236,89.34416707291666,66.0,122.0
340,88.9629941,89.35033991458333,59.0,93.0
341,89.3333646,90.17287106666666,43.0,70.0
342,89.7037351,90.22071058958333,50.0,56.0
343,90.0741056,90.56021688125,62.0,88.0
344,90.0741056,90.56176009166666,59.0,92.0
345,90.0741056,90.5648465125,55.0,85.0
346,90.62966134999999,90.79941449583333,55.0,78.0
347,90.62966134999999,90.80250091666666,59.0,89.0
348,90.62966134999999,90.81176017916667,62.0,82.0
349,90.8148466,91.85497042083333,45.0,72.0
350,91.5555876,91.99231614791667,61.0,127.0
351,91.1852171,92.03243961874999,52.0,82.0
352,91.9259581,92.25774833958333,57.0,112.0
353,92.11114334999999,92.2963286,61.0,107.0
354,91.5555876,92.2963286,64.0,97.0
355,92.2963286,92.4907731125,47.0,77.0
356,92.2963286,92.50620521666666,59.0,74.0
357,92.2963286,92.51237805833333,62.0,86.0
358,92.2963286,92.52626695208333,66.0,79.0
359,92.6666991,92.91978560833333,59.0,68.0
360,92.6666991,92.93213129166666,62.0,76.0
361,92.6666991,92.93521771249999,47.0,67.0
362,92.6666991,92.93984734375,66.0,78.0
363,93.0370696,93.21916842916666,47.0,86.0
364,93.0370696,93.23460053333334,59.0,72.0
365,93.0370696,93.24385979583333,62.0,71.0
366,93.0370696,93.26700795208333,66.0,67.0
367,93.4074401,93.62811918958333,59.0,78.0
368,93.4074401,93.63429203125,62.0,89.0
369,93.4074401,93.64663771458333,66.0,88.0
370,93.4074401,93.66824266041667,47.0,95.0
371,93.7778106,94.129662575,62.0,99.0
372,93.7778106,94.13120578541667,59.0,90.0
373,93.7778106,94.14200825833333,47.0,97.0
374,93.7778106,94.17441567708333,66.0,99.0
375,94.1481811,94.17441567708333,66.0,100.0
376,94.1481811,94.43676144791667,62.0,100.0
377,94.1481811,94.44139107916666,59.0,88.0
378,94.1481811,94.47688491875,47.0,102.0
379,95.2592926,95.33028027916666,55.0,107.0
380,95.2592926,95.3333667,59.0,102.0
381,95.2592926,95.33953954166667,62.0,100.0
382,95.6296631,96.12040401249999,50.0,86.0
383,96.0000336,96.40898436041667,59.0,117.0
384,96.0000336,96.42133004374999,62.0,102.0
385,95.2592926,96.66824371041666,43.0,93.0
386,96.55558934999999,96.68984865624999,50.0,112.0
387,96.7407746,96.96145368958332,64.0,100.0
388,96.7407746,96.98460184583332,61.0,117.0
389,96.7407746,96.9907746875,57.0,95.0
390,97.1111451,97.26700935208333,64.0,102.0
391,97.1111451,97.28089824583333,61.0,122.0
392,97.1111451,97.29941677083333,57.0,96.0
393,96.7407746,97.54633043749999,45.0,92.0
394,97.66670085,97.77009594791666,45.0,70.0
395,97.4815156,97.81793547083333,61.0,127.0
396,97.4815156,97.83491078541667,64.0,127.0
397,97.8518861,97.98614540624999,57.0,102.0
398,98.2222566,98.25620722916666,54.0,42.0
399,98.2222566,98.64972588541666,61.0,122.0
400,98.2222566,98.6574419375,57.0,102.0
401,98.2222566,98.70219503958333,66.0,122.0
402,98.2222566,98.907442025,42.0,100.0
403,98.5926271,98.9537383375,54.0,97.0
404,98.9629976,99.52472619166666,66.0,127.0
405,98.9629976,99.56639287291667,61.0,127.0
406,99.51855334999999,99.64663981458332,57.0,93.0
407,99.7037386,99.84725716874999,59.0,102.0
408,99.7037386,99.85343001041666,62.0,100.0
409,99.7037386,99.85960285208333,66.0,99.0
410,100.0741091,100.46917096666667,59.0,93.0
411,100.0741091,100.648183375,62.0,117.0
412,99.7037386,100.65898584791667,47.0,69.0
413,100.0741091,100.66670189999999,66.0,127.0
414,100.4444796,100.66824511041666,54.0,97.0
415,100.8148501,100.87657851666667,66.0,122.0
416,100.8148501,100.91515877708333,62.0,117.0
417,101.1852206,101.55713431041666,55.0,100.0
418,101.1852206,101.57565283541666,59.0,92.0
419,101.1852206,101.60034420208333,62.0,92.0
420,101.5555911,102.07256658958333,50.0,69.0
421,101.1852206,102.09262832499999,43.0,79.0
422,101.9259616,102.38429509375,62.0,102.0
423,101.9259616,102.56022108124999,59.0,117.0
424,102.48151734999999,102.57873960625,55.0,81.0
425,102.6667026,102.79170264375,64.0,97.0
426,102.6667026,102.79324585416666,61.0,107.0
427,102.6667026,102.80250511666667,57.0,90.0
428,103.0370731,103.15127067083333,57.0,82.0
429,103.0370731,103.15127067083333,64.0,88.0
430,103.0370731,103.16515956458333,61.0,112.0
431,103.4074436,103.77627088958333,64.0,107.0
432,103.4074436,103.79015978333332,61.0,127.0
433,102.6667026,103.89046846041666,45.0,67.0
434,103.7778141,103.92750551041667,57.0,97.0
435,104.1481846,104.67133293124999,66.0,117.0
436,104.1481846,104.68059219375,62.0,112.0
437,104.5185551,104.68213540416666,57.0,82.0
438,104.1481846,104.88583917916667,50.0,95.0
439,104.8889256,105.38738256458333,62.0,127.0
440,104.8889256,105.39972824791666,66.0,127.0
441,105.44448134999999,105.53398755416666,57.0,93.0
442,105.6296666,105.71762959374999,61.0,117.0
443,105.6296666,105.73306169791667,57.0,90.0
444,105.6296666,105.74232096041666,66.0,100.0
445,106.0000371,106.13583961666666,61.0,127.0
446,106.0000371,106.15898777291666,66.0,127.0
447,105.6296666,106.44756812083332,54.0,85.0
448,105.6296666,106.61732126666666,42.0,85.0
449,106.3704076,106.70837068125,61.0,127.0
450,106.55559285,106.70991389166666,54.0,72.0
451,106.3704076,106.73769167916666,66.0,127.0
452,106.7407781,106.89046951041666,57.0,117.0
453,107.11114859999999,107.52318578124999,55.0,117.0
454,107.11114859999999,107.54479072708332,59.0,112.0
455,107.11114859999999,107.63892656249999,62.0,107.0
456,107.11114859999999,107.95682790833332,43.0,77.0
457,107.4815191,108.03861806041667,50.0,77.0
458,107.85188959999999,108.28861814791667,59.0,127.0
459,107.85188959999999,108.39509966666667,62.0,122.0
460,108.40744534999999,108.50312439583332,55.0,93.0
461,108.59263059999999,108.70991459166666,57.0,93.0
462,108.59263059999999,108.7130010125,61.0,122.0
463,108.59263059999999,108.71608743333333,64.0,97.0
464,108.9630011,109.08028509166667,64.0,100.0
465,108.9630011,109.08800114374999,61.0,127.0
466,108.9630011,109.33954444166666,52.0,72.0
467,108.59263059999999,109.38275433333332,45.0,74.0
468,109.33337159999999,109.68059394375,61.0,127.0
469,109.33337159999999,109.685223575,64.0,122.0
470,109.7037421,109.83491498541666,57.0,100.0
471,110.07411259999999,110.23460648333332,57.0,112.0
472,110.07411259999999,110.23460648333332,61.0,127.0
473,110.07411259999999,110.25775463958333,66.0,107.0
474,110.4444831,110.55559425,61.0,117.0
475,110.4444831,110.57256956458333,66.0,102.0
476,110.07411259999999,110.78398939166667,42.0,96.0
477,110.07411259999999,110.89201412083332,54.0,92.0
478,110.81485359999999,111.37195256041666,66.0,127.0
479,110.81485359999999,111.44448344999999,61.0,127.0
480,111.37040934999999,111.47071802708332,57.0,97.0
481,111.55559459999999,111.6574464875,62.0,107.0
482,111.55559459999999,111.66207611875,66.0,102.0
483,111.55559459999999,111.66361932916666,59.0,92.0
484,111.9259651,112.03090340833333,59.0,88.0
485,111.9259651,112.04170588125,62.0,112.0
486,111.9259651,112.04942193333333,66.0,117.0
487,112.29633559999999,112.38738501458333,54.0,102.0
488,111.55559459999999,112.39201464583333,47.0,73.0
489,112.29633559999999,112.62349620833332,62.0,127.0
490,112.29633559999999,112.64664436458332,66.0,127.0
491,112.6667061,112.79942219583333,57.0,122.0
492,113.03707659999999,113.45682983333333,55.0,97.0
493,113.03707659999999,113.45682983333333,59.0,96.0
494,113.03707659999999,113.47689156874999,62.0,96.0
495,113.03707659999999,113.86423738333333,43.0,74.0
496,113.4074471,113.88121269791667,50.0,93.0
497,113.77781759999999,114.20528688541667,62.0,100.0
498,113.77781759999999,114.25003998749999,59.0,107.0
499,114.33337335,114.38738571458333,55.0,86.0
500,114.51855859999999,114.5926327,64.0,92.0
501,114.51855859999999,114.60034875208333,61.0,112.0
502,114.51855859999999,114.60652159374999,57.0,93.0
503,114.8889291,114.99386740833333,64.0,92.0
504,114.8889291,114.99695382916666,57.0,89.0
505,114.8889291,115.01547235416666,61.0,127.0
506,114.51855859999999,115.32565764791666,45.0,71.0
507,115.25929959999999,115.46608979583333,64.0,102.0
508,115.25929959999999,115.57874415625,61.0,127.0
509,115.6296701,115.75467014374999,57.0,73.0
510,116.00004059999999,116.13121348541667,54.0,66.0
511,116.00004059999999,116.27164563333334,69.0,127.0
512,116.00004059999999,116.27781847499999,66.0,117.0
513,116.00004059999999,116.27781847499999,66.0,117.0
514,116.00004059999999,116.27781847499999,73.0,127.0
515,116.00004059999999,116.49695435416666,57.0,95.0
516,116.00004059999999,116.51547287916667,61.0,117.0
517,116.3704111,116.52936177291666,66.0,112.0
518,116.3704111,116.61732476666666,69.0,127.0
519,116.3704111,116.62658402916666,73.0,112.0
520,116.00004059999999,116.72534949583333,42.0,93.0
521,116.3704111,116.81331248958332,54.0,96.0
522,116.74078159999999,116.96300389999999,69.0,127.0
523,116.74078159999999,116.9722631625,73.0,127.0
524,116.74078159999999,116.97843600416667,66.0,127.0
525,116.74078159999999,116.97843600416667,66.0,127.0
526,117.1111521,117.24849782708333,66.0,117.0
527,117.1111521,117.26701635208333,69.0,117.0
528,117.1111521,117.30096698125,73.0,122.0
529,116.74078159999999,117.3241151375,61.0,127.0
530,117.29633735,117.37041144999999,57.0,89.0
531,117.48152259999999,117.49386828333333,73.0,127.0
532,117.48152259999999,117.58183127708332,59.0,93.0
533,117.48152259999999,117.58954732916666,66.0,112.0
534,117.48152259999999,117.59109053958333,62.0,107.0
535,117.48152259999999,117.70220168958333,71.0,107.0
536,117.48152259999999,117.70683132083333,74.0,127.0
537,117.48152259999999,117.71454737291666,78.0,127.0
538,117.8518931,117.93831288333332,66.0,112.0
539,117.8518931,117.95220177708333,62.0,107.0
540,117.8518931,117.9537449875,59.0,95.0
541,117.8518931,118.08337466249999,71.0,107.0
542,117.8518931,118.08954750416666,78.0,122.0
543,117.8518931,118.092633925,74.0,117.0
544,118.03707835,118.12504134375,54.0,28.0
545,118.22226359999999,118.36886858958333,62.0,127.0
546,118.22226359999999,118.37195501041666,66.0,127.0
547,118.22226359999999,118.42442416458333,71.0,112.0
548,118.22226359999999,118.43831305833334,74.0,127.0
549,118.22226359999999,118.43831305833334,78.0,127.0
550,118.5926341,118.93059718125,66.0,122.0
551,118.5926341,118.93522681249999,62.0,127.0
552,118.40744885,118.9537453375,54.0,107.0
553,118.77781935,118.9537453375,59.0,95.0
554,117.48152259999999,118.96609102083333,47.0,82.0
555,119.70374559999999,120.25930135,62.0,127.0
556,118.96300459999999,120.2870791375,43.0,97.0
557,120.25930135,120.30714087291666,62.0,37.0
558,119.3333751,120.40281991875,50.0,97.0
559,119.70374559999999,120.43985696875,59.0,117.0
560,120.25930135,120.47535080833333,55.0,97.0
561,120.8148571,121.41825237291665,52.0,102.0
562,120.44448659999999,121.44603016041665,45.0,82.0
563,121.18522759999999,121.90127723333333,61.0,122.0
564,121.18522759999999,121.90899328541666,64.0,100.0
565,121.5555981,121.98306738541666,57.0,82.0
566,122.2963391,122.759302225,54.0,97.0
567,121.92596859999999,122.77473432916666,42.0,95.0
568,122.66670959999999,123.34417897291667,61.0,122.0
569,122.66670959999999,123.40282096874999,66.0,122.0
570,123.22226535,123.425969125,57.0,99.0
571,123.7778211,124.28399411666666,54.0,95.0
572,123.40745059999999,124.28553732708333,47.0,78.0
573,124.14819159999999,124.91053754583332,62.0,117.0
574,124.14819159999999,124.91825359791666,66.0,117.0
575,124.5185621,124.95683385833333,59.0,93.0
576,124.88893259999999,125.88430331875,43.0,93.0
577,125.2593031,126.12350093333333,50.0,73.0
578,125.62967359999999,126.29325407916666,62.0,99.0
579,125.62967359999999,126.31177260416666,59.0,99.0
580,126.18522935,126.38430349375,55.0,102.0
581,126.37041459999999,127.27782232499999,45.0,74.0
582,126.7407851,127.33029147916666,52.0,100.0
583,127.11115559999999,127.79016818333332,61.0,127.0
584,127.11115559999999,127.8056002875,64.0,99.0
585,127.4815261,127.97535343333332,57.0,96.0
586,128.22226709999998,128.65590922708333,54.0,97.0
587,128.5926376,128.84726731875,62.0,107.0
588,128.5926376,128.85035373958334,66.0,127.0
589,128.9630081,129.20837855624998,62.0,95.0
590,128.9630081,129.20992176666667,66.0,95.0
591,128.77782285,129.21146497708332,54.0,107.0
592,127.85189659999999,129.2315267125,47.0,86.0
593,129.3333786,129.64202068333333,54.0,102.0
594,129.3333786,129.66053920833332,59.0,107.0
595,129.3333786,129.67134168125,47.0,76.0
596,129.3333786,129.68368736458334,62.0,127.0
597,129.3333786,129.71609478333332,66.0,127.0
598,131.18523109999998,131.58492259791666,54.0,67.0
599,130.8148606,131.6574534875,47.0,81.0
600,131.5556016,132.23770060416666,62.0,97.0
601,131.5556016,132.25776233958334,66.0,102.0
602,132.11115734999998,132.31640433541665,59.0,76.0
603,132.2963426,133.07257743958334,43.0,72.0
604,132.66671309999998,133.12504659375,50.0,54.0
605,133.0370836,133.75313323333333,59.0,82.0
606,133.0370836,133.77628138958332,62.0,83.0
607,134.14819509999998,134.574121175,52.0,71.0
608,133.7778246,134.59881254166666,45.0,72.0
609,134.5185656,135.00159046041665,64.0,78.0
610,134.5185656,135.01393614375,57.0,85.0
611,134.5185656,135.02319540624998,61.0,97.0
612,135.07412134999998,135.20838065625,57.0,71.0
613,135.07412134999998,135.21146707708334,64.0,70.0
614,135.07412134999998,135.21918312916665,61.0,83.0
615,135.2593066,135.39202269583333,50.0,65.0
616,135.62967709999998,136.07875133125,50.0,78.0
617,136.0000476,136.77319601874999,66.0,102.0
618,136.0000476,136.79171454375,62.0,96.0
619,136.3704181,136.80714664791665,57.0,69.0
620,136.7407886,137.47535675833333,43.0,77.0
621,137.11115909999998,137.56023333125,50.0,64.0
622,137.4815296,138.13276439583333,62.0,99.0
623,137.4815296,138.15128292083332,59.0,96.0
624,138.03708534999998,138.16825823541666,55.0,85.0
625,138.59264109999998,139.15282648125,52.0,74.0
626,138.2222706,139.203752425,45.0,83.0
627,138.9630116,139.61733281666667,64.0,85.0
628,138.9630116,139.63739455208332,61.0,112.0
629,139.51856734999998,139.68986370624998,57.0,72.0
630,140.07412309999998,140.37659234166665,57.0,73.0
631,139.7037526,140.40591333958332,50.0,88.0
632,140.4444936,141.06949381875,62.0,93.0
633,140.4444936,141.16825928541667,66.0,112.0
634,141.00004934999998,141.27937043541667,57.0,81.0
635,141.5556051,141.944494125,54.0,90.0
636,141.1852346,141.981531175,42.0,96.0
637,141.9259756,142.63430918125,61.0,117.0
638,141.9259756,142.67443265208334,66.0,117.0
639,143.0370871,143.49542059375,54.0,75.0
640,142.6667166,143.5093094875,47.0,78.0
641,143.4074576,144.04171708125,62.0,89.0
642,143.4074576,144.07721092083332,66.0,97.0
643,143.96301334999998,144.16980354583333,59.0,86.0
644,144.1481986,144.89974207291667,43.0,73.0
645,144.5185691,145.07721127083332,50.0,60.0
646,144.8889396,145.6204213375,59.0,85.0
647,144.8889396,145.6296806,62.0,86.0
648,145.2593101,145.63122381041666,55.0,62.0
649,145.6296806,145.85498932083334,45.0,81.0
650,146.0000511,146.73616246875,52.0,56.0
651,146.0000511,146.85036003958334,45.0,75.0
652,146.3704216,147.09264407499998,61.0,107.0
653,146.3704216,147.10344654791666,64.0,92.0
654,147.1111626,147.23461943333334,50.0,89.0
655,146.92597734999998,147.34881700416665,57.0,90.0
656,147.4815331,147.97381722291667,50.0,72.0
657,147.85190359999999,148.53245939375,62.0,90.0
658,147.85190359999999,148.56949644374998,66.0,97.0
659,148.40745934999998,148.60653349375,57.0,70.0
660,148.5926446,149.45221280208332,43.0,76.0
661,148.9630151,149.54326221666665,50.0,78.0
662,149.33338559999999,150.05097844374998,59.0,89.0
663,149.33338559999999,150.06023770625,62.0,92.0
664,149.88894134999998,150.06949696875,55.0,63.0
665,150.4444971,150.91826269791667,52.0,73.0
666,150.0741266,150.93832443333332,45.0,78.0
667,150.81486759999999,151.500053025,61.0,100.0
668,150.81486759999999,151.53554686458332,64.0,86.0
669,151.37042334999998,151.60653454375,57.0,78.0
670,151.9259791,152.2222755,57.0,92.0
671,152.29634959999999,152.7500534625,62.0,90.0
672,152.29634959999999,152.7623991458333,66.0,102.0
673,151.5556086,152.91826339791666,50.0,97.0
674,153.0370906,153.1466585395833,50.0,82.0
675,152.85190534999998,153.35962157708332,62.0,88.0
676,152.85190534999998,153.38585615416665,57.0,79.0
677,152.85190534999998,153.40591788958332,66.0,85.0
678,153.4074611,153.89511559166667,50.0,89.0
679,153.77783159999998,154.52937507291665,62.0,85.0
680,153.77783159999998,154.58184422708334,66.0,122.0
681,154.1482021,154.60499238333333,57.0,89.0
682,154.5185726,155.50314084583331,43.0,83.0
683,154.8889431,155.88585702916666,50.0,77.0
684,155.25931359999998,155.90900518541665,59.0,95.0
685,155.25931359999998,155.91209160625,62.0,97.0
686,155.81486934999998,155.97844965416667,55.0,90.0
687,156.0000546,156.97690679375,45.0,78.0
688,156.3704251,156.98616605625,52.0,83.0
689,156.74079559999998,157.46764770625,64.0,88.0
690,156.74079559999998,157.500055125,61.0,107.0
691,157.29635134999998,157.51394401874998,57.0,89.0
692,157.4815366,158.2130183375,42.0,82.0
693,157.8519071,158.2500553875,54.0,75.0
694,158.22227759999998,158.87659881666667,61.0,117.0
695,158.22227759999998,158.9722778625,66.0,102.0
696,158.77783334999998,159.0278334375,57.0,90.0
697,159.3333891,159.72382133541666,54.0,83.0
698,158.9630186,159.85036458958334,47.0,74.0
699,159.70375959999998,160.4429573895833,62.0,102.0
700,159.70375959999998,160.45530307291665,66.0,122.0
701,160.0741301,160.46147591458333,59.0,93.0
702,160.4445006,161.28400706666665,43.0,70.0
703,160.8148711,161.33184658958334,50.0,56.0
704,161.18524159999998,161.67135288125,62.0,88.0
705,161.18524159999998,161.67289609166667,59.0,92.0
706,161.18524159999998,161.67598251249998,55.0,85.0
707,161.74079734999998,161.91055049583332,55.0,78.0
708,161.74079734999998,161.91363691666666,59.0,89.0
709,161.74079734999998,161.92289617916666,62.0,82.0
710,161.9259826,162.9661064208333,45.0,72.0
711,162.66672359999998,163.10345214791667,61.0,127.0
712,162.2963531,163.14357561875,52.0,82.0
713,163.0370941,163.36888433958333,57.0,112.0
714,163.22227934999998,163.4074646,61.0,107.0
715,162.66672359999998,163.4074646,64.0,97.0
716,163.4074646,163.56332885208332,62.0,99.0
717,163.4074646,163.58647700833333,59.0,99.0
718,163.4074646,163.66981037083332,66.0,117.0
719,163.7778351,163.97073640208333,62.0,96.0
720,163.7778351,163.97536603333333,59.0,89.0
721,163.7778351,164.018575925,66.0,97.0
722,163.4074646,164.08030434166665,47.0,78.0
723,164.14820559999998,164.3426501125,62.0,97.0
724,164.14820559999998,164.34727974375,59.0,96.0
725,164.14820559999998,164.36579826874998,47.0,69.0
726,164.14820559999998,164.37351432083332,66.0,100.0
727,164.5185761,164.70993419166666,59.0,93.0
728,164.5185761,164.70993419166666,62.0,102.0
729,164.5185761,164.72999592708334,47.0,95.0
730,164.5185761,164.7315391375,66.0,107.0
731,164.8889466,165.0494404833333,62.0,107.0
732,164.8889466,165.05715653541665,59.0,99.0
733,164.8889466,165.08647753333332,47.0,102.0
734,164.8889466,165.10653926875,66.0,117.0
735,165.2593171,165.44450235,59.0,97.0
736,165.2593171,165.44450235,62.0,102.0
737,165.2593171,165.4537616125,47.0,107.0
738,165.2593171,165.47382334791666,66.0,122.0
739,165.62968759999998,165.74542838124998,59.0,88.0
740,165.62968759999998,165.75160122291666,62.0,102.0
741,165.62968759999998,165.77320616875,66.0,102.0
742,165.62968759999998,165.79635432499998,47.0,112.0
743,166.0000581,166.07258898958332,62.0,100.0
744,166.0000581,166.07721862083332,66.0,122.0
745,166.0000581,166.0833914625,59.0,90.0
746,166.0000581,166.10808282916665,47.0,117.0
747,166.18524334999998,166.27166313333333,47.0,112.0
748,166.18524334999998,166.28709523749998,59.0,81.0
749,166.18524334999998,166.28863844791667,62.0,97.0
750,166.18524334999998,166.31795944583334,66.0,99.0
751,166.3704286,166.44141627916665,55.0,107.0
752,166.3704286,166.4445027,59.0,102.0
753,166.3704286,166.45067554166667,62.0,100.0
754,166.7407991,167.2315400125,50.0,86.0
755,167.11116959999998,167.52012036041666,59.0,117.0
756,167.11116959999998,167.53246604375,62.0,102.0
757,166.3704286,167.77937971041666,43.0,93.0
758,167.66672534999998,167.80098465625,50.0,112.0
759,167.8519106,168.07258968958334,64.0,100.0
760,167.8519106,168.09573784583333,61.0,117.0
761,167.8519106,168.10191068749998,57.0,95.0
762,168.2222811,168.37814535208332,64.0,102.0
763,168.2222811,168.39203424583332,61.0,122.0
764,168.2222811,168.41055277083333,57.0,96.0
765,167.8519106,168.6574664375,45.0,92.0
766,168.77783685,168.88123194791666,45.0,70.0
767,168.59265159999998,168.92907147083332,61.0,127.0
768,168.59265159999998,168.94604678541666,64.0,127.0
769,168.9630221,169.09728140625,57.0,102.0
770,169.3333926,169.36734322916666,54.0,42.0
771,169.3333926,169.76086188541666,61.0,122.0
772,169.3333926,169.7685779375,57.0,102.0
773,169.3333926,169.81333103958332,66.0,122.0
774,169.3333926,170.01857802499998,42.0,100.0
775,169.7037631,170.0648743375,54.0,97.0
776,170.07413359999998,170.63586219166666,66.0,127.0
777,170.07413359999998,170.67752887291667,61.0,127.0
778,170.62968935,170.75777581458334,57.0,93.0
779,170.8148746,170.95839316875,59.0,102.0
780,170.8148746,170.96456601041666,62.0,100.0
781,170.8148746,170.97073885208331,66.0,99.0
782,171.1852451,171.58030696666665,59.0,93.0
783,171.1852451,171.759319375,62.0,117.0
784,170.8148746,171.77012184791667,47.0,69.0
785,171.1852451,171.77783789999998,66.0,127.0
786,171.55561559999998,171.77938111041667,54.0,97.0
787,171.9259861,171.98771451666667,66.0,122.0
788,171.9259861,172.02629477708334,62.0,117.0
789,172.2963566,172.66827031041666,55.0,100.0
790,172.2963566,172.68678883541665,59.0,92.0
791,172.2963566,172.71148020208332,62.0,92.0
792,172.6667271,173.18370258958333,50.0,69.0
793,172.2963566,173.20376432499998,43.0,79.0
794,173.03709759999998,173.49543109375,62.0,102.0
795,173.03709759999998,173.67135708125,59.0,117.0
796,173.59265335,173.68987560624998,55.0,81.0
797,173.7778386,173.90283864375,64.0,97.0
798,173.7778386,173.90438185416667,61.0,107.0
799,173.7778386,173.91364111666667,57.0,90.0
800,174.1482091,174.26240667083331,57.0,82.0
801,174.1482091,174.26240667083331,64.0,88.0
802,174.1482091,174.27629556458334,61.0,112.0
803,174.51857959999998,174.88740688958333,64.0,107.0
804,174.51857959999998,174.90129578333332,61.0,127.0
805,173.7778386,175.00160446041667,45.0,67.0
806,174.8889501,175.03864151041665,57.0,97.0
807,175.2593206,175.78246893124998,66.0,117.0
808,175.2593206,175.79172819375,62.0,112.0
809,175.6296911,175.79327140416666,57.0,82.0
810,175.2593206,175.99697517916667,50.0,95.0
811,176.00006159999998,176.49851856458332,62.0,127.0
812,176.00006159999998,176.51086424791666,66.0,127.0
813,176.55561735,176.64512355416667,57.0,93.0
814,176.7408026,176.82876559375,61.0,117.0
815,176.7408026,176.84419769791666,57.0,90.0
816,176.7408026,176.85345696041665,66.0,100.0
817,177.1111731,177.24697561666665,61.0,127.0
818,177.1111731,177.27012377291666,66.0,127.0
819,176.7408026,177.5587041208333,54.0,85.0
820,176.7408026,177.72845726666665,42.0,85.0
821,177.48154359999998,177.81950668125,61.0,127.0
822,177.66672885,177.82104989166666,54.0,72.0
823,177.48154359999998,177.84882767916665,66.0,127.0
824,177.8519141,178.00160551041665,57.0,117.0
825,178.2222846,178.63432178124998,55.0,117.0
826,178.2222846,178.6559267270833,59.0,112.0
827,178.2222846,178.7500625625,62.0,107.0
828,178.2222846,179.06796390833333,43.0,77.0
829,178.5926551,179.14975406041665,50.0,77.0
830,178.96302559999998,179.39975414791667,59.0,127.0
831,178.96302559999998,179.50623566666667,62.0,122.0
832,179.51858135,179.61426039583333,55.0,93.0
833,179.7037666,179.82105059166665,57.0,93.0
834,179.7037666,179.8241370125,61.0,122.0
835,179.7037666,179.82722343333333,64.0,97.0
836,180.0741371,180.19142109166665,64.0,100.0
837,180.0741371,180.19913714375,61.0,127.0
838,180.0741371,180.45068044166666,52.0,72.0
839,179.7037666,180.49389033333333,45.0,74.0
840,180.44450759999998,180.79172994375,61.0,127.0
841,180.44450759999998,180.796359575,64.0,122.0
842,180.8148781,180.94605098541666,57.0,100.0
843,181.1852486,181.34574248333334,57.0,112.0
844,181.1852486,181.34574248333334,61.0,127.0
845,181.1852486,181.36889063958333,66.0,107.0
846,181.5556191,181.66673025,61.0,117.0
847,181.5556191,181.68370556458333,66.0,102.0
848,181.1852486,181.89512539166665,42.0,96.0
849,181.1852486,182.00315012083334,54.0,92.0
850,181.92598959999998,182.48308856041666,66.0,127.0
851,181.92598959999998,182.55561945,61.0,127.0
852,182.48154535,182.58185402708332,57.0,97.0
853,182.6667306,182.7685824875,62.0,107.0
854,182.6667306,182.77321211875,66.0,102.0
855,182.6667306,182.77475532916665,59.0,92.0
856,183.0371011,183.14203940833332,59.0,88.0
857,183.0371011,183.15284188125,62.0,112.0
858,183.0371011,183.16055793333334,66.0,117.0
859,183.40747159999998,183.49852101458333,54.0,102.0
860,182.6667306,183.50315064583333,47.0,73.0
861,183.40747159999998,183.73463220833332,62.0,127.0
862,183.40747159999998,183.7577803645833,66.0,127.0
863,183.7778421,183.91055819583332,57.0,122.0
864,184.1482126,184.56796583333332,55.0,97.0
865,184.1482126,184.56796583333332,59.0,96.0
866,184.1482126,184.58802756875,62.0,96.0
867,184.1482126,184.97537338333333,43.0,74.0
868,184.5185831,184.99234869791667,50.0,93.0
869,184.88895359999998,185.31642288541667,62.0,100.0
870,184.88895359999998,185.3611759875,59.0,107.0
871,185.44450935,185.49852171458332,55.0,86.0
872,185.6296946,185.70376869999998,64.0,92.0
873,185.6296946,185.71148475208332,61.0,112.0
874,185.6296946,185.71765759375,57.0,93.0
875,186.0000651,186.10500340833332,64.0,92.0
876,186.0000651,186.10808982916666,57.0,89.0
877,186.0000651,186.12660835416665,61.0,127.0
878,185.6296946,186.43679364791666,45.0,71.0
879,186.37043559999998,186.57722579583333,64.0,102.0
880,186.37043559999998,186.68988015624998,61.0,127.0
881,186.7408061,186.86580614374998,57.0,73.0
882,187.1111766,187.24234948541667,54.0,66.0
883,187.1111766,187.60809035416665,57.0,95.0
884,187.1111766,187.62660887916667,61.0,117.0
885,187.1111766,187.64049777291666,66.0,117.0
886,187.1111766,187.83648549583333,42.0,93.0
887,187.4815471,187.9244484895833,54.0,96.0
888,187.85191759999998,188.35963382708331,66.0,127.0
889,187.85191759999998,188.4352511375,61.0,127.0
890,188.40747335,188.48154745,57.0,89.0
891,188.5926586,188.6929672770833,59.0,93.0
892,188.5926586,188.70068332916665,66.0,112.0
893,188.5926586,188.70222653958334,62.0,107.0
894,188.9630291,189.04944888333333,66.0,112.0
895,188.9630291,189.06333777708332,62.0,107.0
896,188.9630291,189.0648809875,59.0,95.0
897,189.14821435,189.23617734375,54.0,28.0
898,189.33339959999998,189.48000458958333,62.0,127.0
899,189.33339959999998,189.48309101041667,66.0,127.0
900,189.70377009999999,190.04173318124998,66.0,122.0
901,189.70377009999999,190.04636281249998,62.0,127.0
902,189.51858485,190.0648813375,54.0,107.0
903,189.88895535,190.0648813375,59.0,95.0
904,188.5926586,190.07722702083333,47.0,82.0
905,190.0741406,190.19296780208333,55.0,86.0
906,190.0741406,190.19759743333333,59.0,89.0
907,190.0741406,190.21920237916666,62.0,89.0
908,190.4445111,191.06796810833333,62.0,100.0
909,190.4445111,191.08957305416666,59.0,100.0
910,190.0741406,191.17136320625,43.0,68.0
911,191.18525209999999,191.37506698125,55.0,96.0
912,190.81488159999998,191.57414112499998,50.0,107.0
913,191.5556226,191.71920290416665,57.0,99.0
914,191.5556226,191.73000537708333,64.0,88.0
915,191.5556226,191.74543748124998,61.0,93.0
916,191.9259931,192.06333882708333,57.0,82.0
917,191.9259931,192.08031414166666,64.0,85.0
918,191.9259931,192.08957340416666,61.0,96.0
919,191.5556226,192.40284511874998,45.0,77.0
920,192.29636359999998,192.42753648541665,52.0,63.0
921,192.29636359999998,192.64049952291666,64.0,100.0
922,192.29636359999998,192.648215575,61.0,127.0
923,192.66673409999999,192.81951193125,57.0,79.0
924,193.0371046,193.16056143333333,61.0,102.0
925,193.0371046,193.16364785416667,57.0,88.0
926,193.0371046,193.18370958958332,54.0,95.0
927,193.0371046,193.18988243125,66.0,99.0
928,193.0371046,193.21920342916667,42.0,93.0
929,193.4074751,193.5648825625,61.0,117.0
930,193.4074751,193.57877145625,54.0,107.0
931,193.4074751,193.58031466666665,57.0,96.0
932,193.4074751,193.5834010875,42.0,100.0
933,193.4074751,193.58494429791665,66.0,102.0
934,194.8889571,195.12815471458333,62.0,75.0
935,194.8889571,195.129697925,59.0,72.0
936,194.8889571,195.13741397708333,66.0,69.0
937,194.8889571,195.166734975,47.0,90.0
938,195.2593276,195.48617953125,59.0,83.0
939,195.2593276,195.48926595208331,62.0,100.0
940,195.2593276,195.49543879375,47.0,92.0
941,195.2593276,195.500068425,66.0,97.0
942,195.62969809999998,195.8796981875,62.0,102.0
943,195.62969809999998,195.89204387083333,59.0,93.0
944,195.62969809999998,195.90747597499998,66.0,102.0
945,195.62969809999998,195.94605623541665,47.0,102.0
946,196.0000686,196.45994530416667,67.0,99.0
947,196.0000686,196.4722909875,59.0,102.0
948,196.0000686,196.55253792916665,64.0,100.0
949,196.7408096,197.10963688958333,59.0,97.0
950,196.7408096,197.11272331041667,67.0,100.0
951,196.7408096,197.11889615208332,64.0,100.0
952,196.3704391,197.40130365833332,47.0,48.0
953,196.0000686,197.44297033958333,52.0,96.0
954,196.0000686,197.44605676041667,40.0,71.0
955,197.29636535,197.59574817083333,59.0,90.0
956,197.29636535,197.61426669583332,64.0,95.0
957,197.29636535,197.61580990624998,67.0,83.0
958,197.8519211,198.0170446145833,59.0,63.0
959,197.8519211,198.05253845416667,64.0,69.0
960,197.8519211,198.06951376875,67.0,61.0
961,197.8519211,198.20222986458333,52.0,72.0
962,197.8519211,198.21148912708333,40.0,53.0
963,197.8519211,198.25315580833333,47.0,67.0
964,198.40747685,198.64358804375,67.0,100.0
965,198.40747685,198.64513125416667,64.0,102.0
966,198.40747685,198.70994609166667,52.0,122.0
967,198.40747685,198.72537819583331,59.0,117.0
968,198.40747685,198.77939056041666,40.0,86.0
969,198.40747685,198.796365875,47.0,107.0
970,198.9630326,199.53402045416667,57.0,107.0
971,198.9630326,199.55099576875,62.0,117.0
972,198.9630326,199.55099576875,66.0,122.0
973,199.7037736,200.08494657291666,57.0,93.0
974,199.7037736,200.10963793958334,66.0,100.0
975,199.7037736,200.11889720208333,62.0,97.0
976,200.07414409999998,200.37198371041666,50.0,42.0
977,200.25932935,200.41365039166666,62.0,107.0
978,200.25932935,200.537107225,57.0,92.0
979,200.25932935,200.5957492208333,66.0,112.0
980,200.8148851,200.9352555125,62.0,93.0
981,200.8148851,200.95994687916667,57.0,78.0
982,200.8148851,200.97692219375,66.0,99.0
983,200.4445146,201.15284818125,50.0,53.0
984,201.1852556,201.40593468958332,62.0,102.0
985,201.1852556,201.43062605625,66.0,117.0
986,198.9630326,201.43679889791665,38.0,97.0
987,201.37044085,201.49852731458333,50.0,85.0
988,201.55562609999998,201.62198414791666,66.0,72.0
989,201.55562609999998,201.69760145833334,62.0,100.0
990,201.9259966,202.51550297916665,59.0,92.0
991,201.9259966,202.5278486625,64.0,93.0
992,201.9259966,202.53402150416665,67.0,90.0
993,202.6667376,202.81797222083333,64.0,99.0
994,202.6667376,202.83649074583332,59.0,95.0
995,202.6667376,203.06797230833334,67.0,93.0
996,201.9259966,203.30716992291667,52.0,86.0
997,203.22229335,203.35346623541665,64.0,88.0
998,203.22229335,203.35500944583333,59.0,78.0
999,203.22229335,203.37044154999998,67.0,76.0
1000,203.7778491,203.96303435,59.0,92.0
1001,203.4074786,204.09420723541666,52.0,46.0
1002,201.9259966,204.11272576041665,40.0,75.0
1003,203.7778491,204.11426897083334,64.0,92.0
1004,203.7778491,204.12661465416664,67.0,90.0
1005,204.33340485,204.4383431583333,64.0,100.0
1006,204.33340485,204.45531847291664,67.0,99.0
1007,204.33340485,204.45840489375,40.0,72.0
1008,204.33340485,204.49544194375,52.0,117.0
1009,204.33340485,204.50161478541665,59.0,122.0
1010,204.8889606,205.10038042708334,61.0,100.0
1011,204.8889606,205.12044216249998,58.0,117.0
1012,204.8889606,205.12507179374998,54.0,102.0
1013,204.8889606,205.166738475,42.0,112.0
1014,205.2593311,205.4722941375,58.0,107.0
1015,205.2593311,205.48772624166665,54.0,95.0
1016,205.2593311,205.50161513541667,61.0,102.0
1017,205.2593311,205.51396081874998,42.0,81.0
1018,205.6297016,205.7531584333333,58.0,92.0
1019,205.6297016,205.8611831625,66.0,86.0
1020,205.6297016,205.8642695833333,54.0,100.0
1021,205.6297016,205.86581279375,42.0,107.0
1022,205.6297016,205.88124489791664,61.0,77.0
1023,206.00007209999998,206.15902277291667,58.0,102.0
1024,206.00007209999998,206.20223266458333,66.0,92.0
1025,206.00007209999998,206.22846724166666,54.0,97.0
1026,206.00007209999998,206.23926971458332,42.0,117.0
1027,206.00007209999998,206.26241787083333,61.0,93.0
1028,206.3704426,206.48772659166667,58.0,127.0
1029,206.3704426,206.59112168958333,66.0,93.0
1030,206.3704426,206.61889947708332,42.0,122.0
1031,206.3704426,206.62507231875,54.0,107.0
1032,206.3704426,206.62507231875,61.0,107.0
1033,206.7408131,206.88124524791667,58.0,122.0
1034,206.7408131,206.98926997708332,66.0,92.0
1035,206.7408131,206.99389960833332,42.0,112.0
1036,206.7408131,206.99698602916666,54.0,99.0
1037,206.7408131,207.00007245,61.0,99.0
1038,207.1111836,207.13278854583334,44.0,81.0
1039,207.1111836,207.27939353541666,58.0,127.0
1040,207.1111836,207.33494911041666,66.0,96.0
1041,207.1111836,207.3426651625,54.0,112.0
1042,207.1111836,207.3457515833333,42.0,112.0
1043,207.1111836,207.3611836875,61.0,107.0
1044,207.48155409999998,207.574146725,54.0,95.0
1045,207.48155409999998,207.58649240833333,58.0,117.0
1046,207.48155409999998,207.60346772291666,61.0,90.0
1047,207.48155409999998,207.685257875,42.0,127.0
1048,207.8519246,208.14513457916667,62.0,99.0
1049,207.8519246,208.1759987875,59.0,112.0
1050,207.8519246,208.30717167291667,55.0,96.0
1051,208.2222951,208.73309774791664,50.0,52.0
1052,208.5926656,209.0371102,62.0,107.0
1053,207.8519246,209.23155471249999,43.0,96.0
1054,208.5926656,209.24390039583332,59.0,127.0
1055,209.14822135,209.34575228333333,50.0,77.0
1056,209.3334066,209.49544369375,57.0,90.0
1057,209.3334066,209.49544369375,64.0,99.0
1058,209.3334066,209.500073325,61.0,122.0
1059,209.7037771,209.78402404166667,64.0,86.0
1060,209.7037771,209.79019688333332,57.0,90.0
1061,209.7037771,209.80254256666666,61.0,112.0
1062,210.0741476,210.45840699375,61.0,127.0
1063,210.0741476,210.4707526770833,64.0,107.0
1064,209.3334066,210.63741940208334,45.0,90.0
1065,210.44451809999998,210.796370075,52.0,54.0
1066,210.8148886,211.11118499999998,57.0,102.0
1067,210.8148886,211.11427142083332,62.0,127.0
1068,210.8148886,211.14513562916665,50.0,90.0
1069,210.8148886,211.17754304791666,66.0,122.0
1070,211.5556296,211.88279020833332,68.0,112.0
1071,211.5556296,211.95069146666665,61.0,117.0
1072,211.5556296,212.23618539375,49.0,107.0
1073,212.2963706,212.71149420208332,62.0,107.0
1074,212.2963706,212.73927198958333,59.0,99.0
1075,212.2963706,212.85964240208332,66.0,117.0
1076,212.6667411,213.08803754375,54.0,47.0
1077,212.2963706,213.30408700208332,47.0,69.0
1078,213.22229685,213.333408,54.0,93.0
1079,213.0371116,213.34729689374998,62.0,112.0
1080,213.0371116,213.388963575,66.0,127.0
1081,213.40748209999998,213.51859324999998,59.0,107.0
1082,213.7778526,213.84729706874998,55.0,99.0
1083,213.7778526,213.84729706874998,59.0,102.0
1084,213.7778526,213.86272917291666,62.0,96.0
1085,214.1482231,214.60501338333333,55.0,97.0
1086,214.5185936,214.7408159,62.0,102.0
1087,214.5185936,214.79328505416666,67.0,117.0
1088,213.7778526,214.83186531458333,43.0,95.0
1089,214.70377885,214.89513694166666,55.0,61.0
1090,214.5185936,214.91982830833334,71.0,102.0
1091,214.88896409999998,214.95995177916666,67.0,45.0
1092,214.88896409999998,215.0278530375,62.0,99.0
1093,215.2593346,215.57877915625,57.0,93.0
1094,215.2593346,215.80100145625,69.0,112.0
1095,215.2593346,215.8056310875,73.0,122.0
1096,215.2593346,215.82569282291666,64.0,99.0
1097,215.6297051,216.0093348625,57.0,92.0
1098,215.2593346,216.27939668541666,45.0,79.0
1099,216.0000756,216.31952015624998,69.0,122.0
1100,216.0000756,216.3411251020833,73.0,127.0
1101,216.18526085,216.34421152291665,57.0,96.0
1102,216.37044609999998,216.46612514583333,64.0,99.0
1103,216.55563135,216.6096437145833,66.0,71.0
1104,216.7408166,216.96612532083333,59.0,100.0
1105,216.7408166,216.97075495208333,62.0,99.0
1106,216.7408166,216.98927347708332,66.0,117.0
1107,217.1111871,217.25470566874998,62.0,92.0
1108,217.1111871,217.26396493125,59.0,85.0
1109,217.1111871,217.2871130875,66.0,99.0
1110,217.4815576,217.59884159166666,62.0,117.0
1111,217.4815576,217.61736011666665,59.0,100.0
1112,217.4815576,217.64050827291666,66.0,127.0
1113,217.4815576,217.8611873625,54.0,112.0
1114,217.85192809999998,217.99236024791665,62.0,117.0
1115,217.85192809999998,218.00624914166667,59.0,102.0
1116,217.85192809999998,218.02322445624998,66.0,127.0
1117,218.2222986,218.4198295333333,59.0,107.0
1118,218.2222986,218.43371842708333,62.0,127.0
1119,218.2222986,218.45840979374998,66.0,127.0
1120,218.03711335,218.66519998958333,54.0,122.0
1121,218.5926691,218.7408173,62.0,102.0
1122,218.5926691,218.75470619375,59.0,95.0
1123,218.5926691,218.77013829791665,66.0,112.0
1124,218.77785434999998,218.99236059791664,54.0,92.0
1125,218.9630396,219.12661990416666,62.0,127.0
1126,218.9630396,219.13124953541666,59.0,99.0
1127,218.9630396,219.15594090208333,66.0,127.0
1128,219.33341009999998,219.65902749791667,62.0,127.0
1129,219.33341009999998,219.66674354999998,66.0,127.0
1130,219.51859535,219.66982997083332,59.0,107.0
1131,219.14822485,219.6760028125,54.0,122.0
1132,216.7408166,219.7037806,47.0,95.0
1133,219.7037806,219.95841031875,67.0,97.0
1134,219.7037806,219.9614967395833,62.0,102.0
1135,219.7037806,219.97075600208333,43.0,85.0
1136,219.7037806,219.97384242291665,55.0,117.0
1137,219.7037806,219.97692884375,71.0,102.0
1138,221.9260036,222.59421371041665,73.0,122.0
1139,221.9260036,222.6019297625,69.0,122.0
1140,221.9260036,222.62816433958332,57.0,95.0
1141,221.9260036,222.63433718125,64.0,100.0
1142,221.9260036,222.648226075,45.0,79.0
1143,222.6667446,223.29020160833332,57.0,97.0
1144,222.6667446,223.33649792083332,66.0,95.0
1145,222.6667446,223.35038681458332,61.0,117.0
1146,222.6667446,223.67446100208332,54.0,92.0
1147,222.6667446,223.78557215208332,42.0,97.0
1148,223.4074856,223.95532529791666,66.0,107.0
1149,223.96304135,224.04174508124999,57.0,90.0
1150,223.4074856,224.04637471249998,61.0,127.0
1151,224.1482266,224.26551059166667,59.0,97.0
1152,224.1482266,224.26551059166667,66.0,97.0
1153,224.1482266,224.26859701249998,62.0,99.0
1154,224.5185971,224.79328855416665,62.0,107.0
1155,224.5185971,224.79328855416665,66.0,117.0
1156,224.8889676,225.09267137499998,59.0,102.0
1157,224.1482266,225.12199237291665,47.0,77.0
1158,225.07415285,225.15439979166666,54.0,97.0
1159,224.8889676,225.24544920625,66.0,99.0
1160,224.8889676,225.25316525833333,62.0,97.0
1161,225.25933809999998,225.38279493333332,59.0,107.0
1162,225.44452335,225.51551102916665,59.0,54.0
1163,225.44452335,225.51859745,62.0,45.0
1164,225.6297086,225.84730126875,55.0,112.0
1165,225.6297086,225.85038768958333,59.0,117.0
1166,225.6297086,225.86273337291667,62.0,122.0
1167,225.6297086,225.91211610624998,43.0,90.0
1168,226.74082009999998,226.95378313749998,62.0,100.0
1169,226.74082009999998,226.98619055625,55.0,100.0
1170,226.74082009999998,227.04174613125,59.0,112.0
1171,226.74082009999998,227.055635025,43.0,107.0
1172,227.1111906,227.36736352916665,57.0,81.0
1173,227.1111906,227.37662279166665,45.0,127.0
1174,227.1111906,227.38588205416664,64.0,97.0
1175,227.1111906,227.40131415833332,61.0,117.0
1176,228.22230209999998,228.4614997145833,64.0,97.0
1177,228.22230209999998,228.48001823958333,61.0,127.0
1178,228.22230209999998,228.48156145,45.0,117.0
1179,228.22230209999998,228.49236392291667,57.0,117.0
1180,228.5926726,228.73619116875,62.0,97.0
1181,228.5926726,228.75162327291665,66.0,127.0
1182,228.5926726,228.75316648333333,57.0,102.0
1183,228.5926726,228.77477142916666,50.0,127.0
1184,228.9630431,229.64668531458332,50.0,127.0
1185,228.9630431,229.68063594375,62.0,102.0
1186,228.9630431,229.70995694166666,66.0,100.0
1187,228.9630431,229.8318705645833,57.0,89.0
1188,230.07415459999999,230.6019325625,66.0,99.0
1189,230.07415459999999,230.60501898333334,57.0,92.0
1190,230.07415459999999,230.61273503541665,61.0,117.0
1191,230.07415459999999,230.85810549166666,54.0,93.0
1192,230.8148956,231.02477221666666,61.0,127.0
1193,230.8148956,231.04792037291665,66.0,122.0
1194,230.07415459999999,231.0957598958333,42.0,86.0
1195,231.00008085,231.23001920208333,54.0,90.0
1196,231.18526609999998,231.35810566666666,66.0,127.0
1197,231.18526609999998,231.38279703333333,61.0,127.0
1198,231.55563659999999,232.0278589875,62.0,107.0
1199,231.55563659999999,232.129710875,71.0,99.0
1200,231.55563659999999,232.1327972958333,67.0,102.0
1201,231.55563659999999,232.60964931458332,55.0,85.0
1202,232.2963776,232.64205673333333,67.0,112.0
1203,232.2963776,232.66366167916667,71.0,117.0
1204,231.55563659999999,232.83650124583332,43.0,66.0
1205,232.85193335,232.90903213541665,61.0,69.0
1206,231.9260071,233.05409391458332,50.0,45.0
1207,233.03711859999999,233.32261252708332,61.0,122.0
1208,233.03711859999999,233.32415573749998,57.0,107.0
1209,233.03711859999999,233.3411310520833,64.0,96.0
1210,233.4074891,233.81952628124998,52.0,99.0
1211,233.03711859999999,234.01397079375,45.0,75.0
1212,233.96304485,234.06798315833333,52.0,95.0
1213,233.7778596,234.12353873333333,64.0,107.0
1214,233.7778596,234.12508194375,61.0,127.0
1215,234.14823009999998,234.31181040416666,57.0,102.0
1216,234.51860059999998,234.88434146875,54.0,78.0
1217,234.51860059999998,235.04946498333334,61.0,127.0
1218,234.51860059999998,235.06335387708333,57.0,102.0
1219,234.51860059999998,235.06644029791667,66.0,102.0
1220,234.8889711,235.2115020770833,54.0,66.0
1221,234.51860059999998,235.31181075416666,42.0,92.0
1222,235.2593416,235.79946524583332,66.0,122.0
1223,235.2593416,235.87199613541665,61.0,127.0
1224,235.81489735,235.92137886875,57.0,82.0
1225,236.00008259999998,236.11736659166667,62.0,102.0
1226,236.00008259999998,236.12353943333332,66.0,102.0
1227,236.00008259999998,236.13279869583332,59.0,93.0
1228,236.00008259999998,236.54020624583333,47.0,75.0
1229,236.7408236,236.86273722291665,47.0,96.0
1230,236.3704531,236.86582364375,59.0,95.0
1231,236.3704531,237.0679842083333,62.0,117.0
1232,236.3704531,237.10039162708333,66.0,122.0
1233,237.11119409999998,237.2392805645833,59.0,95.0
1234,237.48156459999998,237.88897215,55.0,99.0
1235,237.48156459999998,237.92909562083332,59.0,97.0
1236,237.48156459999998,238.04946603333332,62.0,97.0
1237,237.8519351,238.3365031708333,50.0,61.0
1238,238.2223056,238.62354030833333,62.0,107.0
1239,238.2223056,238.85039223958333,59.0,122.0
1240,237.48156459999998,238.89051571041665,43.0,71.0
1241,238.77786135,238.95224412708333,50.0,79.0
1242,238.96304659999998,239.08496022291666,57.0,97.0
1243,238.96304659999998,239.09113306458332,64.0,96.0
1244,238.96304659999998,239.09730590625,61.0,122.0
1245,239.3334171,239.54946655833334,64.0,92.0
1246,239.3334171,239.56026903125,57.0,93.0
1247,239.3334171,239.57415792499998,61.0,117.0
1248,238.96304659999998,239.93835558333333,45.0,92.0
1249,239.7037876,240.14360256875,61.0,127.0
1250,239.7037876,240.15594825208333,64.0,127.0
1251,240.07415809999998,240.19607172291666,45.0,74.0
1252,240.44452859999998,240.70687437083333,61.0,117.0
1253,240.44452859999998,240.7130472125,57.0,95.0
1254,240.44452859999998,240.72539289583332,66.0,97.0
1255,240.44452859999998,241.13125723541665,42.0,107.0
1256,240.8148991,241.13743007708334,54.0,58.0
1257,241.1852696,241.37354127083333,61.0,117.0
1258,241.1852696,241.4105783208333,66.0,112.0
1259,241.74082535,241.83187476458332,57.0,78.0
1260,241.92601059999998,242.03403532916667,62.0,99.0
1261,241.92601059999998,242.04020817083332,59.0,88.0
1262,241.92601059999998,242.04175138124998,66.0,93.0
1263,241.92601059999998,242.52631945208333,47.0,81.0
1264,242.6667516,242.79175164375,47.0,92.0
1265,242.2963811,242.84730721875,62.0,127.0
1266,242.2963811,243.02014678541664,66.0,127.0
1267,243.40749259999998,243.60810995416665,62.0,102.0
1268,243.40749259999998,243.611196375,67.0,100.0
1269,243.40749259999998,243.61582600625,43.0,75.0
1270,243.40749259999998,243.61891242708333,55.0,92.0
1271,243.40749259999998,243.62199884791664,71.0,102.0
1272,244.1482336,244.35193737499998,67.0,100.0
1273,244.1482336,244.35348058541666,62.0,97.0
1274,244.1482336,244.3704559,71.0,97.0
1275,244.1482336,244.38743121458333,43.0,83.0
1276,244.1482336,244.40749294999998,55.0,95.0
1277,244.88897459999998,245.08033269166665,73.0,100.0
1278,244.88897459999998,245.08804874375,64.0,89.0
1279,244.88897459999998,245.09113516458333,45.0,77.0
1280,244.88897459999998,245.09113516458333,69.0,99.0
1281,244.88897459999998,245.10348084791664,57.0,102.0
1282,245.6297156,245.87817247708333,73.0,99.0
1283,245.6297156,245.87971568749998,64.0,95.0
1284,245.6297156,245.88743173958332,57.0,100.0
1285,245.6297156,245.88897494999998,69.0,107.0
1286,245.6297156,245.91983915833333,45.0,78.0
1287,246.37045659999998,246.51088874791665,42.0,76.0
1288,246.37045659999998,246.51397516875,57.0,97.0
1289,246.37045659999998,246.52940727291664,54.0,89.0
1290,246.37045659999998,246.53249369374998,61.0,107.0
1291,246.37045659999998,246.54329616666666,66.0,100.0
1292,246.7408271,246.9476172958333,61.0,117.0
1293,246.7408271,246.95841976875,57.0,95.0
1294,246.7408271,246.96459261041664,66.0,100.0
1295,246.7408271,246.96767903125,42.0,85.0
1296,246.7408271,246.98311113541666,54.0,96.0
1297,249.33342059999998,249.54175400625,67.0,102.0
1298,249.33342059999998,249.54175400625,74.0,107.0
1299,249.33342059999998,249.54329721666664,71.0,100.0
1300,249.7037911,249.9167541375,67.0,102.0
1301,249.7037911,249.92138376875,71.0,100.0
1302,249.7037911,249.92138376875,74.0,97.0
1303,250.0741616,250.26397648124998,67.0,107.0
1304,250.0741616,250.26860611249998,71.0,100.0
1305,250.0741616,250.27169253333332,74.0,100.0
1306,250.4445321,250.62508771875,67.0,100.0
1307,250.0741616,250.62971735,62.0,127.0
1308,250.4445321,250.6389766125,74.0,96.0
1309,250.4445321,250.64051982291664,71.0,99.0
1310,249.33342059999998,250.65749513749998,43.0,97.0
1311,250.62971735,250.67755687291665,62.0,37.0
1312,249.7037911,250.77323591874998,50.0,97.0
1313,250.0741616,250.81027296874998,59.0,117.0
1314,250.62971735,250.8457668083333,55.0,97.0
1315,250.81490259999998,251.01397674375,69.0,117.0
1316,250.81490259999998,251.01551995416665,76.0,112.0
1317,250.81490259999998,251.02632242708333,73.0,127.0
1318,251.1852731,251.38434724375,69.0,107.0
1319,251.1852731,251.39360650625,76.0,99.0
1320,251.1852731,251.40595218958333,73.0,127.0
1321,251.5556436,251.74082884999999,69.0,102.0
1322,251.5556436,251.74700169166667,76.0,107.0
1323,251.5556436,251.75626095416666,73.0,127.0
1324,251.1852731,251.78866837291665,52.0,102.0
1325,250.81490259999998,251.81644616041666,45.0,82.0
1326,251.9260141,252.06798945833333,73.0,127.0
1327,251.9260141,252.07724872083332,69.0,102.0
1328,251.9260141,252.09113761458332,76.0,102.0
1329,251.5556436,252.2716932333333,61.0,122.0
1330,251.5556436,252.27940928541665,64.0,100.0
1331,251.9260141,252.35348338541667,57.0,82.0
1332,252.6667551,253.12971822499998,54.0,97.0
1333,252.29638459999998,253.14515032916665,42.0,95.0
1334,253.0371256,253.71459497291664,61.0,122.0
1335,253.0371256,253.77323696874998,66.0,122.0
1336,253.59268135,253.796385125,57.0,99.0
1337,254.1482371,254.65441011666667,54.0,95.0
1338,253.77786659999998,254.65595332708332,47.0,78.0
1339,254.5186076,255.2809535458333,62.0,117.0
1340,254.5186076,255.28866959791665,66.0,117.0
1341,254.8889781,255.32724985833332,59.0,93.0
1342,255.25934859999998,256.25471931875,43.0,93.0
1343,255.6297191,256.4939169333333,50.0,73.0
1344,256.00008959999997,256.66367007916665,62.0,99.0
1345,256.00008959999997,256.68218860416664,59.0,99.0
1346,256.55564534999996,256.75471949375,55.0,102.0
1347,256.7408306,257.64823832499997,45.0,74.0
1348,257.1112011,257.7007074791667,52.0,100.0
1349,257.4815716,258.1605841833333,61.0,127.0
1350,257.4815716,258.1760162875,64.0,99.0
1351,257.8519421,258.2223126,57.0,96.0
1352,258.2223126,261.81027681874997,62.0,112.0
1353,258.2223126,261.83188176458333,59.0,107.0
1354,258.2223126,261.83805460625,66.0,117.0
1355,258.2223126,261.83959781666664,47.0,97.0
1356,258.2223126,261.8612027625,35.0,76.0
