,start,end,pitch,velocity
0,28.802606616666672,29.467079725000005,70.0,83.0
1,29.59207961666667,29.802605750000005,72.0,79.0
2,29.78944786666667,30.36181579166667,75.0,83.0
3,30.38155261666667,31.05424940208334,70.0,79.0
4,31.17102561666667,31.305893920833338,72.0,80.0
5,31.368393866666672,31.889774993750006,75.0,82.0
6,31.960498616666673,32.59865595833334,75.0,85.0
7,32.74997161666667,33.11839235000001,77.0,79.0
8,33.14470811666667,33.522997262500006,75.0,82.0
9,33.53944461666667,34.805890887500006,79.0,89.0
10,35.11839061666667,35.84042946458334,72.0,80.0
11,35.907863616666674,36.10687660208334,75.0,84.0
12,36.10523186666667,36.700626087500005,77.0,79.0
13,36.697336616666675,37.3519413125,70.0,76.0
14,37.48680961666667,37.763125166666676,80.0,80.0
15,37.88154611666667,38.18911163958334,79.0,79.0
16,38.27628261666667,38.64141387916667,77.0,80.0
17,38.67101911666667,39.01476881875001,72.0,80.0
18,39.06575561666667,39.473650000000006,75.0,89.0
19,39.46049211666667,39.75818922708334,77.0,79.0
20,39.85522861666667,41.16772747916667,77.0,80.0
21,41.434174616666674,42.098647725000006,70.0,83.0
22,42.223647616666675,42.43417375000001,72.0,79.0
23,42.42101586666667,42.99338379166667,75.0,83.0
24,43.013120616666676,43.68581740208334,70.0,79.0
25,43.80259361666668,43.93746192083334,72.0,80.0
26,43.99996186666667,44.521342993750004,75.0,82.0
27,44.59206661666667,45.184171366666675,75.0,85.0
28,45.184171366666675,45.38153961666667,75.0,79.0
29,45.38153961666667,45.74996035000001,77.0,79.0
30,45.77627611666667,46.15456526250001,75.0,82.0
31,46.17101261666667,47.43745888750001,79.0,89.0
32,47.749958616666675,48.47199746458334,72.0,80.0
33,48.539431616666675,48.73844460208334,75.0,84.0
34,48.73679986666667,49.33219408750001,77.0,79.0
35,49.32890461666668,49.983509312500004,70.0,76.0
36,50.11837761666668,50.39469316666668,80.0,80.0
37,50.51311411666667,50.82067963958334,79.0,79.0
38,50.90785061666667,51.27298187916667,77.0,80.0
39,51.30258711666667,51.64633681875001,72.0,80.0
40,51.69732361666667,52.10521800000001,74.0,89.0
41,52.09206011666667,52.389757227083344,75.0,79.0
42,52.48679661666667,53.79929547916667,75.0,80.0
43,54.460479116666676,54.83712352708334,79.0,82.0
44,54.855215616666676,55.21212320208334,82.0,78.0
45,55.24995211666668,55.595346554166674,79.0,80.0
46,55.64468861666668,56.687450870833345,82.0,79.0
47,56.82889811666668,57.13152943333334,79.0,79.0
48,57.22363461666667,57.92758137500001,82.0,77.0
49,58.01310761666667,58.32725208125001,84.0,70.0
50,58.40784411666667,58.71540963958334,82.0,78.0
51,58.802580616666674,59.592053616666675,75.0,83.0
52,59.592053616666675,59.922645435416676,77.0,82.0
53,59.986790116666675,60.30422405208334,79.0,80.0
54,60.381526616666676,61.725275452083345,79.0,79.0
55,62.35520911666668,62.62494572500001,77.0,82.0
56,62.74994561666668,63.032840108333346,77.0,84.0
57,63.14468211666668,63.48349761250001,79.0,82.0
58,63.53941861666667,63.79928681250001,82.0,79.0
59,63.93415511666667,64.23185222708334,82.0,81.0
60,64.32889161666668,64.638101875,79.0,84.0
61,64.72362811666667,65.11836461666668,80.0,80.0
62,65.11836461666668,66.54270548750002,77.0,84.0
63,67.09204711666668,67.46869152708334,79.0,82.0
64,67.48678361666667,67.84369120208335,82.0,78.0
65,67.88152011666668,68.22691455416668,79.0,80.0
66,68.27625661666667,69.31901887083335,82.0,79.0
67,69.46046611666668,69.76309743333334,79.0,79.0
68,69.85520261666667,70.559149375,82.0,77.0
69,70.64467561666667,70.95882008125001,84.0,70.0
70,71.03941211666668,71.34697763958334,82.0,78.0
71,71.43414861666668,72.22362161666668,75.0,83.0
72,72.22362161666668,72.55421343541667,77.0,82.0
73,72.61835811666668,72.93579205208334,79.0,80.0
74,73.01309461666668,74.35684345208334,79.0,79.0
75,74.59204061666668,75.26473740208334,75.0,85.0
76,75.38151361666668,75.70717122916668,77.0,82.0
77,75.77625011666667,76.17921029375002,79.0,80.0
78,76.17098661666668,76.87493337500001,75.0,85.0
79,77.74993261666668,78.48183987708335,75.0,89.0
80,78.53940561666668,78.93249738125002,77.0,79.0
81,78.93414211666668,79.23512869791668,79.0,70.0
82,79.32887861666669,80.23841730208335,79.0,82.0
83,80.90782461666667,81.57887666666667,75.0,87.0
84,81.69729761666667,81.84367906875,77.0,81.0
85,81.89466586666668,82.41275752291668,79.0,84.0
86,82.48677061666667,82.90617814791668,70.0,84.0
87,83.07887536666668,83.19894105208334,70.0,82.0
88,83.27624361666668,83.56407231458334,80.0,80.0
89,83.67098011666668,83.97854563958334,79.0,79.0
90,84.06571661666668,84.37492687500001,77.0,81.0
91,84.46045311666668,84.79926861250001,72.0,82.0
92,84.85518961666668,85.03446577708334,74.0,78.0
93,85.05255786666667,85.48841275208335,75.0,82.0
94,85.64466261666668,88.51966012500002,75.0,80.0
95,91.96044661666669,92.62491972500001,70.0,83.0
96,92.74991961666669,92.96044575000002,72.0,79.0
97,92.94728786666668,93.51965579166668,75.0,83.0
98,93.53939261666667,94.21208940208335,70.0,79.0
99,94.32886561666668,94.46373392083335,72.0,80.0
100,94.52623386666669,95.04761499375002,75.0,82.0
101,95.11833861666668,95.75649595833335,75.0,85.0
102,95.90781161666668,96.27623235000002,77.0,79.0
103,96.30254811666669,96.68083726250002,75.0,82.0
104,96.69728461666668,97.96373088750002,79.0,89.0
105,98.27623061666668,98.99826946458334,72.0,80.0
106,99.06570361666668,99.26471660208335,75.0,84.0
107,99.26307186666668,99.85846608750002,77.0,79.0
108,99.85517661666668,100.50978131250001,70.0,76.0
109,100.64464961666668,100.92096516666668,80.0,80.0
110,101.03938611666668,101.34695163958335,79.0,79.0
111,101.43412261666668,101.79925387916668,77.0,80.0
112,101.82885911666668,102.17260881875002,72.0,80.0
113,102.22359561666669,102.63149000000001,75.0,89.0
114,102.61833211666668,102.91602922708334,77.0,79.0
115,103.01306861666669,104.32556747916668,77.0,80.0
116,104.59201461666669,105.25648772500001,70.0,83.0
117,105.38148761666669,105.59201375000002,72.0,79.0
118,105.57885586666669,106.15122379166668,75.0,83.0
119,106.17096061666668,106.84365740208335,70.0,79.0
120,106.96043361666668,107.09530192083335,72.0,80.0
121,107.15780186666669,107.67918299375002,75.0,82.0
122,107.74990661666668,108.34201136666668,75.0,85.0
123,108.34201136666668,108.53937961666668,75.0,79.0
124,108.53937961666668,108.90780035000002,77.0,79.0
125,108.93411611666669,109.31240526250002,75.0,82.0
126,109.32885261666668,110.59529888750002,79.0,89.0
127,110.90779861666668,111.62983746458335,72.0,80.0
128,111.69727161666668,111.89628460208336,75.0,84.0
129,111.89463986666668,112.49003408750002,77.0,79.0
130,112.48674461666668,113.14134931250001,70.0,76.0
131,113.27621761666668,113.55253316666668,80.0,80.0
132,113.67095411666668,113.97851963958335,79.0,79.0
133,114.06569061666669,114.43082187916669,77.0,80.0
134,114.46042711666668,114.80417681875002,72.0,80.0
135,114.85516361666669,115.26305800000002,74.0,89.0
136,115.24990011666668,115.54759722708334,75.0,79.0
137,115.64463661666669,116.95713547916668,75.0,80.0
138,117.61831911666668,117.99496352708336,79.0,82.0
139,118.01305561666669,118.36996320208335,82.0,78.0
140,118.40779211666668,118.75318655416669,79.0,80.0
141,118.80252861666669,119.84529087083335,82.0,79.0
142,119.98673811666669,120.28936943333335,79.0,79.0
143,120.38147461666668,121.08542137500002,82.0,77.0
144,121.17094761666668,121.48509208125002,84.0,70.0
145,121.56568411666669,121.87324963958335,82.0,78.0
146,121.96042061666668,122.74989361666668,75.0,83.0
147,122.74989361666668,123.08048543541669,77.0,82.0
148,123.14463011666669,123.46206405208335,79.0,80.0
149,123.53936661666668,124.88311545208335,79.0,79.0
150,125.51304911666668,125.78278572500002,77.0,82.0
151,125.90778561666669,126.19068010833335,77.0,84.0
152,126.30252211666668,126.64133761250002,79.0,82.0
153,126.69725861666669,126.95712681250002,82.0,79.0
154,127.09199511666668,127.38969222708336,82.0,81.0
155,127.48673161666669,127.79594187500003,79.0,84.0
156,127.88146811666668,128.2762046166667,80.0,80.0
157,128.2762046166667,129.70054548750002,77.0,84.0
158,130.24988711666668,130.62653152708336,79.0,82.0
159,130.64462361666668,131.00153120208336,82.0,78.0
160,131.0393601166667,131.38475455416668,79.0,80.0
161,131.4340966166667,132.47685887083335,82.0,79.0
162,132.61830611666667,132.92093743333336,79.0,79.0
163,133.0130426166667,133.71698937500003,82.0,77.0
164,133.80251561666668,134.11666008125002,84.0,70.0
165,134.19725211666668,134.50481763958337,82.0,78.0
166,134.5919886166667,135.38146161666668,75.0,83.0
167,135.38146161666668,135.7120534354167,77.0,82.0
168,135.77619811666668,136.09363205208336,79.0,80.0
169,136.1709346166667,137.51468345208335,79.0,79.0
170,137.7498806166667,138.42257740208336,75.0,85.0
171,138.5393536166667,138.8650112291667,77.0,82.0
172,138.93409011666668,139.33705029375002,79.0,80.0
173,139.32882661666667,140.03277337500003,75.0,85.0
174,140.90777261666668,141.63967987708335,75.0,89.0
175,141.6972456166667,142.09033738125,77.0,79.0
176,142.09198211666668,142.3929686979167,79.0,70.0
177,142.48671861666668,143.39625730208334,79.0,82.0
178,144.06566461666668,144.7367166666667,75.0,87.0
179,144.8551376166667,145.00151906875,77.0,81.0
180,145.05250586666668,145.5705975229167,79.0,84.0
181,145.64461061666668,146.0640181479167,70.0,84.0
182,146.2367153666667,146.35678105208336,70.0,82.0
183,146.4340836166667,146.72191231458336,80.0,80.0
184,146.8288201166667,147.13638563958335,79.0,79.0
185,147.22355661666668,147.53276687500002,77.0,81.0
186,147.61829311666668,147.95710861250004,72.0,82.0
187,148.0130296166667,148.19230577708336,74.0,78.0
188,148.21039786666668,148.64625275208334,75.0,82.0
189,148.8025026166667,151.67750012500002,75.0,80.0
190,182.3551051166667,182.73174952708337,79.0,82.0
191,182.74984161666669,183.10674920208336,82.0,78.0
192,183.1445781166667,183.48997255416668,79.0,80.0
193,183.5393146166667,184.58207687083336,82.0,79.0
194,184.72352411666668,185.02615543333337,79.0,79.0
195,185.1182606166667,185.82220737500003,82.0,77.0
196,185.9077336166667,186.22187808125003,84.0,70.0
197,186.30247011666668,186.61003563958337,82.0,78.0
198,186.6972066166667,187.4866796166667,75.0,83.0
199,187.4866796166667,187.8172714354167,77.0,82.0
200,187.88141611666668,188.19885005208337,79.0,80.0
201,188.2761526166667,189.61990145208335,79.0,79.0
202,190.2498351166667,190.51957172500002,77.0,82.0
203,190.6445716166667,190.92746610833336,77.0,84.0
204,191.0393081166667,191.37812361250002,79.0,82.0
205,191.43404461666668,191.69391281250003,82.0,79.0
206,191.8287811166667,192.12647822708337,82.0,81.0
207,192.2235176166667,192.53272787500003,79.0,84.0
208,192.6182541166667,193.01299061666668,80.0,80.0
209,193.01299061666668,194.43733148750002,77.0,84.0
210,194.9866731166667,195.36331752708335,79.0,82.0
211,195.3814096166667,195.73831720208335,82.0,78.0
212,195.7761461166667,196.1215405541667,79.0,80.0
213,196.1708826166667,197.21364487083335,82.0,79.0
214,197.3550921166667,197.65772343333336,79.0,79.0
215,197.7498286166667,198.45377537500002,82.0,77.0
216,198.5393016166667,198.85344608125004,84.0,70.0
217,198.9340381166667,199.24160363958336,82.0,78.0
218,199.3287746166667,200.1182476166667,75.0,83.0
219,200.1182476166667,200.4488394354167,77.0,82.0
220,200.5129841166667,200.83041805208336,79.0,80.0
221,200.9077206166667,202.25146945208337,79.0,79.0
222,202.4866666166667,203.15936340208336,75.0,85.0
223,203.2761396166667,203.6017972291667,77.0,82.0
224,203.6708761166667,204.07383629375002,79.0,80.0
225,204.0656126166667,204.76955937500003,75.0,85.0
226,205.6445586166667,206.37646587708338,75.0,89.0
227,206.4340316166667,206.82712338125003,77.0,79.0
228,206.8287681166667,207.1297546979167,79.0,70.0
229,207.2235046166667,208.13304330208337,79.0,82.0
230,208.8024506166667,209.4735026666667,75.0,87.0
231,209.5919236166667,209.73830506875004,77.0,81.0
232,209.7892918666667,210.3073835229167,79.0,84.0
233,210.3813966166667,210.8008041479167,70.0,84.0
234,210.9735013666667,211.09356705208336,70.0,82.0
235,211.1708696166667,211.45869831458336,80.0,80.0
236,211.5656061166667,211.87317163958338,79.0,79.0
237,211.9603426166667,212.26955287500004,77.0,81.0
238,212.3550791166667,212.69389461250003,72.0,82.0
239,212.7498156166667,212.92909177708336,74.0,78.0
240,212.9471838666667,213.38303875208337,75.0,82.0
241,213.5392886166667,214.934849125,75.0,80.0
242,215.136191375,215.538875875,75.0,82.0
243,215.60842110416667,215.749577475,75.0,79.0
244,215.8159039625,216.140710325,77.0,79.0
245,216.20622755,216.6424343375,79.0,73.0
246,216.6545033,217.892434025,75.0,78.0
247,218.1700201625,218.6286407375,75.0,79.0
248,218.7527786375,218.8889855,75.0,79.0
249,218.97864065,219.326916425,77.0,76.0
250,219.382088825,219.6751922,79.0,75.0
251,219.7907094125,221.3165711,79.0,78.0
252,221.6045020625,222.2079501875,75.0,84.0
253,222.3389846375,222.5010535625,77.0,76.0
254,222.575191475,223.1320878875,79.0,71.0
255,223.168294775,223.6493291375,70.0,78.0
256,223.7579498,223.99370905625,70.0,76.0
257,224.00394794374998,224.39643863125,80.0,74.0
258,224.45275251249998,224.78039691249998,79.0,78.0
259,224.87847853124998,225.25261636874998,77.0,80.0
260,225.29227153124998,225.67255309375,72.0,79.0
261,225.70424321874998,226.11445428124998,74.0,67.0
262,226.13205990625,226.50353859375,75.0,78.0
263,226.63558078124998,229.76340971041665,75.0,80.0
