,start,end,pitch,velocity
0,20.7252782625,21.0334176125,66.0,79.0
1,21.0741152625,21.351731375,69.0,81.0
2,21.4229522625,22.2688819875,71.0,78.0
3,22.8183002625,23.0712070875,71.0,78.0
4,23.1671372625,23.4694626625,73.0,78.0
5,23.5159742625,24.6874851875,66.0,77.0
6,24.9113222625,25.15696165,64.0,78.0
7,25.2601592625,25.55231025,66.0,77.0
8,25.6089962625,25.921496075,69.0,78.0
9,25.9578332625,26.2092866,71.0,77.0
10,26.3066702625,26.6409723875,73.0,79.0
11,26.6555072625,26.979634975,76.0,78.0
12,27.004344262500002,28.654052575,71.0,78.0
13,29.0973662625,29.4055056125,66.0,79.0
14,29.4462032625,29.723819375,69.0,81.0
15,29.7950402625,30.6409699875,71.0,78.0
16,31.1903882625,31.4432950875,71.0,78.0
17,31.5392252625,31.8415506625,69.0,78.0
18,31.8880622625,33.0595731875,66.0,77.0
19,33.2834102625,33.52904965,64.0,78.0
20,33.6322472625,33.92439825,66.0,77.0
21,33.9810842625,34.293584075,69.0,78.0
22,34.3299212625,34.5813746,71.0,77.0
23,34.6787582625,35.0130603875,69.0,79.0
24,35.0275952625,35.351722975,66.0,78.0
25,35.3764322625,37.026140575,66.0,78.0
26,39.5624762625,39.8953249,73.0,81.0
27,39.9113132625,40.177301475,76.0,77.0
28,40.2601502625,40.4898012875,76.0,81.0
29,40.6089872625,40.8720685,76.0,80.0
30,40.9578242625,41.508696025,73.0,88.0
31,41.655498262500004,41.9069516,76.0,76.0
32,42.0043352625,42.23834675,78.0,75.0
33,42.3531722625,42.9200323875,78.0,79.0
34,43.0508462625,43.6554970625,78.0,78.0
35,43.7485202625,44.00578755,76.0,59.0
36,44.0973572625,44.33136875,78.0,72.0
37,44.4461942625,44.6729383125,81.0,75.0
38,44.7950312625,45.0363101875,81.0,83.0
39,45.1438682625,45.398228575,78.0,76.0
40,45.4927052625,45.8415422625,76.0,78.0
41,45.8415422625,46.5929953,73.0,79.0
42,47.9345642625,48.28485475,76.0,79.0
43,48.2834012625,48.5115988,78.0,78.0
44,48.6322382625,49.1845635125,78.0,79.0
45,49.3299122625,49.892411925,78.0,78.0
46,50.0275862625,50.348807,76.0,77.0
47,50.3764232625,50.6380510125,73.0,73.0
48,50.7252602625,51.01741125,71.0,73.0
49,51.0740972625,51.4054924125,69.0,81.0
50,51.4229342625,51.9927013625,66.0,71.0
51,52.1206082625,52.4113057625,64.0,73.0
52,52.4694452625,52.7194451125,66.0,74.0
53,52.8182822625,53.0275844625,69.0,75.0
54,53.1671192625,53.4171191125,71.0,73.0
55,53.5159562625,53.8022933,73.0,83.0
56,53.8647932625,54.2107232875,76.0,70.0
57,54.2136302625,55.94764085,71.0,78.0
58,56.3066522625,56.6395009,73.0,81.0
59,56.6554892625,56.921477475,76.0,77.0
60,57.0043262625,57.233977287500004,76.0,81.0
61,57.3531632625,57.6162445,76.0,80.0
62,57.7020002625,58.0508372625,73.0,88.0
63,58.0508372625,58.3996742625,73.0,88.0
64,58.3996742625,58.6511276,76.0,76.0
65,58.7485112625,58.98252275,78.0,75.0
66,59.0973482625,59.6642083875,78.0,79.0
67,59.7950222625,60.3996730625,78.0,78.0
68,60.4926962625,60.74996355,76.0,59.0
69,60.8415332625,61.07554475,78.0,72.0
70,61.190370262500004,61.4171143125,81.0,75.0
71,61.5392072625,61.7804861875,81.0,83.0
72,61.8880442625,62.142404575,78.0,76.0
73,62.2368812625,62.5857182625,76.0,78.0
74,62.5857182625,63.3371713,73.0,79.0
75,64.6787402625,65.3764142625,76.0,79.0
76,65.3764142625,65.9287395125,78.0,79.0
77,66.0740882625,66.636587925,78.0,78.0
78,66.7717622625,67.092983,76.0,77.0
79,67.1205992625,67.3822270125,73.0,73.0
80,67.4694362625,67.76158725,71.0,73.0
81,67.8182732625,68.1496684125,69.0,81.0
82,68.1671102625,68.7368773625,66.0,71.0
83,68.8647842625,69.1554817625,64.0,73.0
84,69.2136212625,69.4636211125,66.0,74.0
85,69.5624582625,69.7717604625,69.0,75.0
86,69.9112952625,70.1612951125,71.0,73.0
87,70.2601322625,70.5464693,73.0,83.0
88,70.6089692625,70.9548992875,76.0,70.0
89,70.9578062625,72.69181685,71.0,78.0
90,73.0508282625,73.3836769,73.0,81.0
91,73.3996652625,73.665653475,76.0,77.0
92,73.7485022625,73.9781532875,76.0,81.0
93,74.0973392625,74.3604205,76.0,80.0
94,74.4461762625,74.7950132625,73.0,88.0
95,75.1438502625,75.3953036,76.0,76.0
96,75.4926872625,75.72669875,78.0,75.0
97,75.8415242625,76.4083843875,78.0,79.0
98,76.5391982625,77.1438490625,78.0,78.0
99,77.2368722625,77.49413955,76.0,59.0
100,77.5857092625,77.81972075,78.0,72.0
101,77.9345462625,78.1612903125,81.0,75.0
102,78.2833832625,78.5246621875,81.0,83.0
103,78.6322202625,78.886580575,78.0,76.0
104,78.9810572625,79.3298942625,76.0,78.0
105,79.3298942625,80.0813473,73.0,79.0
106,81.4229162625,82.1205902625,76.0,79.0
107,82.1205902625,82.6729155125,78.0,79.0
108,82.8182642625,83.380763925,78.0,78.0
109,83.5159382625,83.837159,76.0,77.0
110,83.8647752625,84.1264030125,73.0,73.0
111,84.2136122625,84.50576325,71.0,73.0
112,84.5624492625,84.8938444125,69.0,81.0
113,84.9112862625,85.4810533625,66.0,71.0
114,85.6089602625,85.8996577625,64.0,73.0
115,85.9577972625,86.2077971125,66.0,74.0
116,86.3066342625,86.5159364625,69.0,75.0
117,86.6554712625,86.9054711125,71.0,73.0
118,87.0043082625,87.2906453,73.0,83.0
119,87.35314526250001,87.6990752875,76.0,70.0
120,87.7019822625,89.43599285,71.0,78.0
121,89.7950042625,90.3938411125,69.0,78.0
122,90.49267826250001,90.7920966875,69.0,79.0
123,90.8415152625,91.217968525,71.0,76.0
124,91.1903522625,91.5275613625,73.0,82.0
125,91.5391892625,91.758665875,76.0,77.0
126,91.8880262625,92.9345372625,76.0,79.0
127,92.9345372625,93.2833742625,73.0,80.0
128,93.2833742625,93.9810482625,73.0,80.0
129,93.9810482625,94.2862806375,76.0,73.0
130,94.3298852625,94.595873475,78.0,75.0
131,94.6787222625,95.34296605,78.0,77.0
132,95.3763962625,96.0886051375,81.0,73.0
133,96.0740702625,97.7252320625,78.0,73.0
134,98.1670922625,98.86621975,78.0,76.0
135,98.8647662625,100.0217423125,76.0,76.0
136,100.2601142625,101.0101138125,76.0,78.0
137,100.9577882625,101.8734853875,73.0,79.0
138,102.3531362625,102.659822125,71.0,72.0
139,102.7019732625,102.9461591625,73.0,81.0
140,103.0508102625,103.2906357,71.0,77.0
141,103.3996472625,103.729588925,69.0,78.0
142,103.7484842625,104.049356175,66.0,71.0
143,104.0973212625,104.363309475,69.0,78.0
144,104.4461582625,106.4461570625,69.0,79.0
145,106.5391802625,107.09877295,78.0,78.0
146,107.2368542625,107.764470225,78.0,77.0
147,107.9345282625,108.5348186,81.0,78.0
148,108.6322022625,109.35458555,78.0,73.0
149,109.3298762625,110.1060385875,76.0,78.0
150,110.0275502625,110.5711545875,73.0,77.0
151,110.7252242625,111.01737525,71.0,78.0
152,111.0740612625,111.3603983,73.0,78.0
153,111.4228982625,111.648188825,71.0,78.0
154,111.7717352625,112.08132810000001,69.0,78.0
155,112.1205722625,112.4141767375,66.0,74.0
156,112.4694092625,112.735397475,69.0,77.0
157,112.8182462625,115.5333609125,69.0,78.0
158,133.7484662625,134.0566056125,66.0,79.0
159,134.0973032625,134.374919375,69.0,81.0
160,134.4461402625,135.2920699875,71.0,78.0
161,135.8414882625,136.0943950875,71.0,78.0
162,136.1903252625,136.4926506625,73.0,78.0
163,136.5391622625,137.7106731875,66.0,77.0
164,137.9345102625,138.18014965,64.0,78.0
165,138.2833472625,138.57549825,66.0,77.0
166,138.6321842625,138.944684075,69.0,78.0
167,138.9810212625,139.2324746,71.0,77.0
168,139.3298582625,139.6641603875,73.0,79.0
169,139.6786952625,140.002822975,76.0,78.0
170,140.0275322625,141.677240575,71.0,78.0
171,142.1205542625,142.4286936125,66.0,79.0
172,142.4693912625,142.747007375,69.0,81.0
173,142.8182282625,143.6641579875,71.0,78.0
174,144.2135762625,144.4664830875,71.0,78.0
175,144.5624132625,144.8647386625,69.0,78.0
176,144.9112502625,146.0827611875,66.0,77.0
177,146.3065982625,146.55223765,64.0,78.0
178,146.6554352625,146.94758625,66.0,77.0
179,147.0042722625,147.316772075,69.0,78.0
180,147.3531092625,147.6045626,71.0,77.0
181,147.7019462625,148.0362483875,69.0,79.0
182,148.0507832625,148.374910975,66.0,78.0
183,148.3996202625,150.049328575,66.0,78.0
184,152.5856642625,152.9185129,73.0,81.0
185,152.9345012625,153.200489475,76.0,77.0
186,153.2833382625,153.5129892875,76.0,81.0
187,153.6321752625,153.8952565,76.0,80.0
188,153.9810122625,154.531884025,73.0,88.0
189,154.6786862625,154.9301396,76.0,76.0
190,155.0275232625,155.26153475,78.0,75.0
191,155.37636026250001,155.9432203875,78.0,79.0
192,156.0740342625,156.6786850625,78.0,78.0
193,156.7717082625,157.02897555,76.0,59.0
194,157.1205452625,157.35455675,78.0,72.0
195,157.4693822625,157.6961263125,81.0,75.0
196,157.8182192625,158.0594981875,81.0,83.0
197,158.1670562625,158.421416575,78.0,76.0
198,158.51589326250001,158.8647302625,76.0,78.0
199,158.8647302625,159.6161833,73.0,79.0
200,160.9577522625,161.30804275,76.0,79.0
201,161.3065892625,161.5347868,78.0,78.0
202,161.6554262625,162.2077515125,78.0,79.0
203,162.3531002625,162.915599925,78.0,78.0
204,163.0507742625,163.371995,76.0,77.0
205,163.3996112625,163.6612390125,73.0,73.0
206,163.7484482625,164.04059925,71.0,73.0
207,164.0972852625,164.4286804125,69.0,81.0
208,164.4461222625,165.0158893625,66.0,71.0
209,165.1437962625,165.4344937625,64.0,73.0
210,165.4926332625,165.7426331125,66.0,74.0
211,165.8414702625,166.0507724625,69.0,75.0
212,166.1903072625,166.4403071125,71.0,73.0
213,166.5391442625,166.8254813,73.0,83.0
214,166.8879812625,167.2339112875,76.0,70.0
215,167.2368182625,168.97082885,71.0,78.0
216,169.3298402625,169.6626889,73.0,81.0
217,169.6786772625,169.944665475,76.0,77.0
218,170.0275142625,170.2571652875,76.0,81.0
219,170.3763512625,170.6394325,76.0,80.0
220,170.7251882625,171.0740252625,73.0,88.0
221,171.0740252625,171.4228622625,73.0,88.0
222,171.4228622625,171.6743156,76.0,76.0
223,171.7716992625,172.00571075,78.0,75.0
224,172.1205362625,172.6873963875,78.0,79.0
225,172.8182102625,173.4228610625,78.0,78.0
226,173.5158842625,173.77315155,76.0,59.0
227,173.8647212625,174.09873275,78.0,72.0
228,174.2135582625,174.4403023125,81.0,75.0
229,174.5623952625,174.8036741875,81.0,83.0
230,174.9112322625,175.165592575,78.0,76.0
231,175.2600692625,175.6089062625,76.0,78.0
232,175.6089062625,176.3603593,73.0,79.0
233,177.7019282625,178.3996022625,76.0,79.0
234,178.3996022625,178.9519275125,78.0,79.0
235,179.0972762625,179.659775925,78.0,78.0
236,179.7949502625,180.116171,76.0,77.0
237,180.1437872625,180.4054150125,73.0,73.0
238,180.4926242625,180.78477525,71.0,73.0
239,180.8414612625,181.1728564125,69.0,81.0
240,181.1902982625,181.7600653625,66.0,71.0
241,181.8879722625,182.1786697625,64.0,73.0
242,182.2368092625,182.4868091125,66.0,74.0
243,182.5856462625,182.7949484625,69.0,75.0
244,182.9344832625,183.1844831125,71.0,73.0
245,183.2833202625,183.5696573,73.0,83.0
246,183.6321572625,183.9780872875,76.0,70.0
247,183.9809942625,185.71500485,71.0,78.0
248,186.0740162625,186.4068649,73.0,81.0
249,186.4228532625,186.688841475,76.0,77.0
250,186.7716902625,187.0013412875,76.0,81.0
251,187.1205272625,187.3836085,76.0,80.0
252,187.4693642625,187.8182012625,73.0,88.0
253,188.1670382625,188.4184916,76.0,76.0
254,188.5158752625,188.74988675,78.0,75.0
255,188.8647122625,189.4315723875,78.0,79.0
256,189.5623862625,190.16703706250001,78.0,78.0
257,190.2600602625,190.51732755,76.0,59.0
258,190.6088972625,190.84290875,78.0,72.0
259,190.9577342625,191.1844783125,81.0,75.0
260,191.3065712625,191.5478501875,81.0,83.0
261,191.6554082625,191.909768575,78.0,76.0
262,192.0042452625,192.3530822625,76.0,78.0
263,192.3530822625,193.1045353,73.0,79.0
264,194.4461042625,195.1437782625,76.0,79.0
265,195.1437782625,195.6961035125,78.0,79.0
266,195.8414522625,196.403951925,78.0,78.0
267,196.5391262625,196.860347,76.0,77.0
268,196.8879632625,197.1495910125,73.0,73.0
269,197.2368002625,197.52895125,71.0,73.0
270,197.5856372625,197.9170324125,69.0,81.0
271,197.9344742625,198.5042413625,66.0,71.0
272,198.6321482625,198.9228457625,64.0,73.0
273,198.9809852625,199.2309851125,66.0,74.0
274,199.3298222625,199.5391244625,69.0,75.0
275,199.6786592625,199.92865911250001,71.0,73.0
276,200.0274962625,200.3138333,73.0,83.0
277,200.3763332625,200.7222632875,76.0,70.0
278,200.7251702625,202.45918085,71.0,78.0
279,202.8181922625,203.4170291125,69.0,78.0
280,203.5158662625,203.8152846875,69.0,79.0
281,203.8647032625,204.241156525,71.0,76.0
282,204.2135402625,204.5507493625,73.0,82.0
283,204.5623772625,204.781853875,76.0,77.0
284,204.9112142625,205.9577252625,76.0,79.0
285,205.9577252625,206.3065622625,73.0,80.0
286,206.3065622625,207.0042362625,73.0,80.0
287,207.0042362625,207.3094686375,76.0,73.0
288,207.3530732625,207.619061475,78.0,75.0
289,207.7019102625,208.36615405,78.0,77.0
290,208.3995842625,209.1117931375,81.0,73.0
291,209.0972582625,210.7484200625,78.0,73.0
292,211.1902802625,211.88940775,78.0,76.0
293,211.8879542625,213.04493031250001,76.0,76.0
294,213.2833022625,214.0333018125,76.0,78.0
295,213.9809762625,214.8966733875,73.0,79.0
296,215.3763242625,215.683010125,71.0,72.0
297,215.7251612625,215.96934716250001,73.0,81.0
298,216.0739982625,216.3138237,71.0,77.0
299,216.4228352625,216.752776925,69.0,78.0
300,216.7716722625,217.072544175,66.0,71.0
301,217.1205092625,217.386497475,69.0,78.0
302,217.4693462625,219.4693450625,69.0,79.0
303,219.5623682625,220.12196095,78.0,78.0
304,220.2600422625,220.787658225,78.0,77.0
305,220.9577162625,221.5580066,81.0,78.0
306,221.6553902625,222.37777355,78.0,73.0
307,222.3530642625,223.1292265875,76.0,78.0
308,223.0507382625,223.5943425875,73.0,77.0
309,223.7484122625,224.04056325,71.0,78.0
310,224.09724926250001,224.3835863,73.0,78.0
311,224.4460862625,224.671376825,71.0,78.0
312,224.7949232625,225.1045161,69.0,78.0
313,225.1437602625,225.4373647375,66.0,74.0
314,225.4925972625,225.758585475,69.0,77.0
315,225.8414342625,228.5565489125,69.0,78.0
