,start,end,pitch,velocity
0,1.8880802625,2.3837195,66.0,67.0
1,2.2369172625,2.6845914125,61.0,71.0
2,2.5857542625,3.258718975,57.0,60.0
3,1.8880802625,3.3473817125,42.0,66.0
4,2.9345912625,3.3880793625,61.0,71.0
5,3.2834282625,3.9694743625,66.0,72.0
6,3.9811022625,4.392439225,64.0,64.0
7,4.3299392625,4.8023227,59.0,67.0
8,3.9811022625,5.30813635,40.0,66.0
9,4.6787762625000004,5.4287758125,56.0,68.0
10,5.0276132625,5.4404037125,59.0,72.0
11,5.3764502625,5.9491243375,64.0,71.0
12,5.7252872625,6.136624225,59.0,73.0
13,6.0741242625,6.8212168375,64.0,72.0
14,6.4229612625,6.8386586875,59.0,72.0
15,6.7717982625,7.1991235875,56.0,68.0
16,6.0741242625,7.4534839,40.0,63.0
17,7.1206352625000005,7.5465071,59.0,78.0
18,7.4694722625,7.6497047125,64.0,72.0
19,8.1671462625,8.8328435375,66.0,68.0
20,8.5159832625,8.8938900125,61.0,67.0
21,8.8648202625,9.2906921,57.0,72.0
22,9.2136572625,9.5683082125,61.0,75.0
23,8.1671462625,9.6758662875,42.0,74.0
24,9.5624942625,9.7209244,66.0,74.0
25,10.2601682625,10.642435475,66.0,72.0
26,10.6090052625,11.05231895,61.0,73.0
27,10.9578422625,11.5683070125,57.0,79.0
28,10.2601682625,11.601737225,42.0,72.0
29,11.3066792625,11.7107487875,61.0,75.0
30,11.6555162625,11.8023185,66.0,74.0
31,12.3531902625,12.7209226,64.0,69.0
32,12.7020272625,13.1264456125,59.0,73.0
33,13.0508642625,13.4927244625,56.0,72.0
34,13.3997012625,13.7979568375,59.0,74.0
35,12.3531902625,13.968014875,40.0,73.0
36,13.7485382625,14.0217939125,64.0,74.0
37,14.4462122625,14.811037625,59.0,73.0
38,14.7950492625,15.4491186375,56.0,71.0
39,15.1438862625,15.5537697375,59.0,74.0
40,14.4462122625,15.9578392625,40.0,75.0
41,15.4927232625,16.08719965,64.0,73.0
42,15.8415602625,16.1046415,59.0,70.0
43,16.5392342625,17.311036125,61.0,70.0
44,16.8880712625,17.6511522,54.0,65.0
45,17.2369082625,17.6729545125,57.0,77.0
46,17.5857452625,18.0813845,61.0,70.0
47,17.9345822625,18.159872825,66.0,65.0
48,16.5392342625,18.357547125,42.0,73.0
49,18.520337725,20.595917875,49.0,64.0
50,18.5043493625,20.6060922875,54.0,66.0
51,18.5915586125,20.6060922875,57.0,64.0
52,18.3793494375,20.6162667,42.0,73.0
53,18.7136515625,20.636615525,63.0,60.0
54,21.4229522625,21.752893925,57.0,65.0
55,21.4229522625,21.7790567,61.0,64.0
56,21.0741152625,22.462195825,49.0,71.0
57,20.7252782625,22.5828352875,42.0,77.0
58,22.4694632625,23.444753375,54.0,71.0
59,23.5159742625,23.9069624,57.0,61.0
60,23.8648112625,24.3066714625,54.0,60.0
61,24.2136482625,24.386613275,66.0,65.0
62,22.8183002625,24.427310925,42.0,78.0
63,23.1671372625,24.427310925,49.0,59.0
64,25.2601592625,25.747077575,52.0,66.0
65,25.6089962625,25.985449525,57.0,76.0
66,24.9113222625,26.51742595,45.0,78.0
67,26.3066702625,26.6235305375,57.0,65.0
68,26.3066702625,26.7427165125,61.0,76.0
69,26.6555072625,26.9956233375,52.0,72.0
70,27.004344262500002,27.4374835375,56.0,71.0
71,27.7020182625,28.200564475,59.0,70.0
72,27.3531812625,28.4345759625,47.0,62.0
73,27.004344262500002,28.4781805875,40.0,77.0
74,28.3996922625,28.5014363875,59.0,70.0
75,28.0508552625,28.5072503375,56.0,65.0
76,28.3996922625,28.561029375,64.0,71.0
77,29.0973662625,29.816842575,61.0,72.0
78,29.7950402625,30.183121425,57.0,70.0
79,30.1438772625,30.5479467875,54.0,75.0
80,30.4927142625,30.613353725,66.0,76.0
81,29.4462032625,30.7194583125,49.0,67.0
82,29.0973662625,30.7325397,42.0,77.0
83,31.1903882625,31.718004225,54.0,71.0
84,31.1903882625,31.9069576,61.0,70.0
85,31.8880622625,32.252887625,57.0,63.0
86,32.2368992625,32.6555036625,54.0,67.0
87,31.5392252625,32.776143125,49.0,67.0
88,31.1903882625,32.7805035875,42.0,77.0
89,32.5857362625,32.921491875,66.0,77.0
90,32.9345732625,33.2165498375,54.0,78.0
91,33.2834102625,33.6758518875,57.0,69.0
92,33.9810842625,34.438932825,57.0,77.0
93,34.3299212625,34.86625815,61.0,70.0
94,33.2834102625,34.927304625,45.0,76.0
95,33.6322472625,34.9302116,52.0,63.0
96,34.6787582625,35.4316647875,64.0,67.0
97,36.0741062625,36.4927106625,57.0,73.0
98,36.4229432625,36.863349975,54.0,73.0
99,36.7717802625,36.944745275,66.0,74.0
100,35.3764322625,37.0741056625,42.0,75.0
101,35.7252692625,37.0828265875,49.0,63.0
102,38.5159652625,38.8328255375,57.0,83.0
103,38.1671282625,38.9302092,54.0,77.0
104,38.8648022625,39.2427090125,59.0,68.0
105,37.4694542625,39.3153833875,42.0,77.0
106,37.8182912625,39.3531740625,49.0,69.0
107,39.2136392625,39.659859925,61.0,68.0
108,39.9113132625,40.340092075,56.0,74.0
109,40.2601502625,40.7398011375,61.0,72.0
110,40.6089872625,41.0741032625,56.0,62.0
111,40.9578242625,41.107533475,61.0,73.0
112,39.5624762625,41.1525915875,49.0,83.0
113,40.9578242625,41.2136380625,64.0,72.0
114,42.3531722625,42.741253425000004,57.0,69.0
115,41.655498262500004,42.752881325,61.0,74.0
116,42.7020092625,43.117706687500004,54.0,70.0
117,42.0043352625,43.1322415625,49.0,67.0
118,41.655498262500004,43.1438694625,42.0,78.0
119,43.0508462625,43.1961950125,66.0,74.0
120,43.7485202625,44.5130546875,62.0,69.0
121,43.7485202625,44.827007987500004,38.0,74.0
122,44.0973572625,44.9403800125,45.0,58.0
123,44.4461942625,45.14532175,54.0,76.0
124,44.7950312625,45.194740325,57.0,80.0
125,45.1438682625,45.2543333125,62.0,79.0
126,45.8415422625,46.2368908625,61.0,73.0
127,46.1903792625,46.5595650875,56.0,69.0
128,46.5392162625,46.93601835,64.0,78.0
129,45.8415422625,47.264506525,49.0,77.0
130,46.8880532625,47.276134425,61.0,75.0
131,47.2368902625,47.3735180875,56.0,77.0
132,47.9345642625,48.5537499375,54.0,68.0
133,47.9345642625,48.683110325,61.0,72.0
134,48.6322382625,48.9650869,57.0,81.0
135,48.9810752625,49.1525867875,54.0,61.0
136,49.3299122625,49.485435425,54.0,72.0
137,49.3299122625,49.5581098,57.0,71.0
138,48.2834012625,49.622063250000004,49.0,72.0
139,47.9345642625,49.677295775,42.0,78.0
140,49.3299122625,49.7223538875,61.0,72.0
141,49.6787492625,49.9142142375,54.0,74.0
142,50.0275862625,50.206365225,54.0,78.0
143,50.0275862625,50.4142139375,59.0,77.0
144,50.3764232625,50.7950276625,54.0,71.0
145,50.7252602625,51.142411175,59.0,70.0
146,51.0740972625,51.4883412,54.0,58.0
147,51.4229342625,51.511597,59.0,73.0
148,50.0275862625,51.5130504875,47.0,77.0
149,51.4229342625,51.561015575,62.0,70.0
150,52.1206082625,52.906945,57.0,77.0
151,52.8182822625,53.4927004625,54.0,75.0
152,52.1206082625,53.52903765,38.0,75.0
153,52.4694452625,53.601712025,45.0,63.0
154,53.1671192625,53.6177003875,57.0,79.0
155,53.5159562625,53.938921125,62.0,81.0
156,53.8647932625,54.0479326875,54.0,81.0
157,54.2136302625,54.9142112375,56.0,72.0
158,54.2136302625,55.30810635,52.0,73.0
159,54.9113042625,55.3299086625,59.0,77.0
160,55.2601412625,55.438920225,56.0,79.0
161,55.6089782625,55.81392,52.0,74.0
162,54.2136302625,56.0014198875,40.0,77.0
163,54.5624672625,56.040664050000004,47.0,69.0
164,55.6089782625,56.0421175375,64.0,78.0
165,56.3066522625,56.508687025,56.0,70.0
166,56.3066522625,56.694733425,61.0,77.0
167,56.6554892625,57.05229135,56.0,76.0
168,57.0043262625,57.5159538625,64.0,74.0
169,57.3531632625,57.7194421125,56.0,74.0
170,56.3066522625,57.8764187625,49.0,70.0
171,57.7020002625,58.037755875,61.0,80.0
172,58.0508372625,58.2208953,56.0,78.0
173,58.3996742625,59.0043250625,54.0,62.0
174,58.3996742625,59.1671156625,61.0,72.0
175,59.0973482625,59.4403713125,57.0,81.0
176,59.4461852625,59.8211850375,54.0,77.0
177,58.3996742625,59.8953129,42.0,78.0
178,58.7485112625,59.9025803375,49.0,66.0
179,59.7950222625,59.9316500875,57.0,77.0
180,59.7950222625,59.9578128625,61.0,74.0
181,60.4926962625,61.1380447125,62.0,69.0
182,60.4926962625,61.2659516125,57.0,63.0
183,60.4926962625,61.6235095375,38.0,79.0
184,60.8415332625,61.68019555,45.0,62.0
185,61.190370262500004,61.860428,54.0,78.0
186,61.5392072625,61.9403698125,57.0,81.0
187,61.8880442625,62.014497675,62.0,86.0
188,62.5857182625,62.985427325,61.0,74.0
189,62.9345552625,63.357520125,56.0,73.0
190,63.2833922625,63.642403675,61.0,76.0
191,63.6322292625,64.119147575,64.0,79.0
192,62.5857182625,64.2950195625,49.0,77.0
193,63.9810662625,64.3735078875,56.0,77.0
194,64.3299032625,64.6787402625,61.0,62.0
195,64.6787402625,65.3851351875,57.0,71.0
196,65.3764142625,65.78484425,61.0,71.0
197,65.7252512625,66.1642044875,54.0,74.0
198,65.0275772625,66.4112973625,49.0,72.0
199,64.6787402625,66.4578089625,42.0,78.0
200,66.0740882625,66.5232159,66.0,77.0
201,66.4229252625,66.857518025,54.0,78.0
202,66.7717622625,67.2674015,59.0,77.0
203,67.1205992625,67.5624594625,54.0,69.0
204,67.8182732625,68.2252497625,54.0,66.0
205,67.4694362625,68.2426916125,62.0,69.0
206,66.7717622625,68.415656625,47.0,73.0
207,68.1671102625,68.456354275,59.0,77.0
208,68.5159472625,68.97088885,54.0,70.0
209,68.8647842625,69.5828070875,57.0,65.0
210,68.8647842625,70.2252485625,38.0,69.0
211,69.5624582625,70.2455973875,54.0,78.0
212,69.2136212625,70.287748525,45.0,60.0
213,69.9112952625,70.6002483375,57.0,80.0
214,70.2601322625,70.683097125,62.0,78.0
215,70.6089692625,70.8240854125,54.0,79.0
216,70.9578062625,71.6787360625,56.0,73.0
217,70.9578062625,72.0798986125,52.0,75.0
218,71.6554802625,72.1002474375,59.0,77.0
219,72.0043172625,72.1554799625,56.0,78.0
220,72.3531542625,72.49414255,52.0,75.0
221,72.3531542625,72.5115844,56.0,77.0
222,71.3066432625,72.526119275,47.0,66.0
223,70.9578062625,72.5828052875,40.0,77.0
224,72.3531542625,72.6162355,64.0,73.0
225,73.0508282625,73.5130372875,64.0,75.0
226,73.0508282625,73.8647812625,37.0,79.0
227,73.3996652625,73.880769625,56.0,75.0
228,73.7485022625,74.1162346,61.0,74.0
229,74.0973392625,74.2688507875,64.0,77.0
230,74.4461762625,74.840071375,56.0,77.0
231,74.7950132625,74.883676,61.0,73.0
232,75.1438502625,75.6554778625,54.0,69.0
233,75.1438502625,75.6874545875,61.0,72.0
234,75.8415242625,75.9839660375,57.0,79.0
235,76.1903612625,76.3793146375,54.0,73.0
236,76.5391982625,76.6758260875,54.0,78.0
237,76.5391982625,76.78483765,57.0,78.0
238,76.5391982625,76.7891981125,61.0,75.0
239,75.4926872625,76.8022795,49.0,67.0
240,75.1438502625,76.8139074,42.0,78.0
241,77.2368722625,77.9519881125,57.0,77.0
242,77.9345462625,78.4200110875,54.0,79.0
243,78.2833832625,78.47088315,57.0,81.0
244,77.2368722625,78.58716215,38.0,80.0
245,77.5857092625,78.659836525,45.0,65.0
246,78.6322202625,78.7950108625,57.0,80.0
247,78.6322202625,78.8240806125,62.0,73.0
248,79.3298942625,79.7601265625,64.0,75.0
249,79.6787312625,80.0915217125,56.0,76.0
250,80.0275682625,80.31971925,61.0,79.0
251,80.3764052625,80.56390515,56.0,72.0
252,79.3298942625,80.8880328625,49.0,75.0
253,80.7252422625,80.90256773750001,64.0,77.0
254,80.7252422625,80.9054747125,61.0,78.0
255,80.7252422625,80.9490793375,56.0,77.0
256,81.4229162625,81.8967531875,54.0,71.0
257,81.4229162625,81.9345438625,61.0,75.0
258,81.7717532625,82.2514041375,49.0,66.0
259,82.1205902625,82.43599705,57.0,81.0
260,82.4694272625,82.927275825,49.0,68.0
261,81.4229162625,82.9999502,42.0,78.0
262,82.8182642625,83.0217525125,54.0,78.0
263,82.8182642625,83.13367105,61.0,75.0
264,83.1671012625,83.488322,42.0,77.0
265,83.5159382625,83.904019425,59.0,76.0
266,83.8647752625,84.293554075,54.0,77.0
267,84.2136122625,84.973786225,62.0,70.0
268,83.5159382625,84.997042025,47.0,77.0
269,84.5624492625,84.9984955125,54.0,71.0
270,84.9112862625,85.06390245,59.0,78.0
271,85.6089602625,86.4374481375,57.0,78.0
272,86.3066342625,86.9185525,54.0,80.0
273,85.6089602625,87.00576175,38.0,77.0
274,85.9577972625,87.07552915,45.0,61.0
275,86.6554712625,87.078436125,57.0,78.0
276,87.0043082625,87.4170987125,62.0,84.0
277,87.35314526250001,87.729598525,54.0,80.0
278,87.7019822625,88.09878435,56.0,77.0
279,88.0508192625,89.11041165,52.0,76.0
280,88.3996562625,89.1409348875,59.0,78.0
281,88.7484932625,89.1976209,56.0,76.0
282,87.7019822625,89.3589580125,40.0,77.0
283,89.0973302625,89.4432602875,64.0,78.0
284,89.7950042625,90.2092482,57.0,79.0
285,90.1438412625,90.578434025,52.0,71.0
286,90.49267826250001,90.8531431625,57.0,80.0
287,90.8415152625,91.2906429,52.0,64.0
288,91.1903522625,91.4025614375,57.0,71.0
289,89.7950042625,91.404014925,45.0,77.0
290,91.1903522625,91.4839567375,61.0,77.0
291,91.8880262625,92.427270125,64.0,77.0
292,92.2368632625,92.6729095125,56.0,69.0
293,92.5857002625,92.9461651625,61.0,78.0
294,91.8880262625,93.101688325,49.0,78.0
295,92.9345372625,93.1176766875,56.0,69.0
296,93.2833742625,93.4069207,56.0,72.0
297,93.2833742625,93.5348276,49.0,68.0
298,93.2833742625,93.6234903375,61.0,77.0
299,93.2833742625,93.7325019,64.0,72.0
300,93.63221126250001,93.7601181625,56.0,74.0
301,93.9810482625,94.44761775,54.0,68.0
302,93.9810482625,94.4636061125,61.0,71.0
303,94.3298852625,94.8415128625,49.0,68.0
304,93.9810482625,94.9418035,42.0,77.0
305,94.6787222625,94.9955825375,57.0,80.0
306,95.0275592625,95.281919575,54.0,78.0
307,95.3763962625,95.7106983875,61.0,79.0
308,95.3763962625,95.74994255,57.0,78.0
309,95.7252332625,96.0740702625,54.0,83.0
310,96.0740702625,96.7557559,62.0,66.0
311,96.0740702625,96.793546575,57.0,66.0
312,96.7717442625,97.3066276625,54.0,73.0
313,97.1205812625,97.325523,57.0,81.0
314,96.0740702625,97.34296485,38.0,78.0
315,96.4229072625,97.3793020375,45.0,59.0
316,97.4694182625,97.5479065875,54.0,71.0
317,97.4694182625,97.5740693625,38.0,76.0
318,97.4694182625,97.83133665,57.0,88.0
319,97.4694182625,97.8560459375,62.0,77.0
320,98.1670922625,98.90110345,57.0,66.0
321,98.1670922625,98.9519755125,61.0,74.0
322,98.5159292625,98.9548824875,49.0,69.0
323,98.8647662625,99.2557544,54.0,80.0
324,99.2136032625,99.7513936375,49.0,73.0
325,98.1670922625,99.7833703625,42.0,77.0
326,99.5624402625,99.787730825,57.0,78.0
327,99.5624402625,99.7979052375,61.0,77.0
328,100.2601142625,100.97086965,61.0,69.0
329,100.9577882625,101.3182531625,57.0,78.0
330,101.3066252625,101.6859855,54.0,73.0
331,101.6554622625,101.8022645,61.0,66.0
332,100.6089512625,101.9141830375,49.0,61.0
333,100.2601142625,102.0130201875,42.0,77.0
334,102.0042992625,102.3531362625,54.0,57.0
335,102.3531362625,102.76156625,59.0,73.0
336,102.7019732625,103.13365905,54.0,73.0
337,103.0508102625,103.479589075,62.0,77.0
338,103.3996472625,103.8255191,54.0,77.0
339,102.3531362625,103.85458885,47.0,78.0
340,103.7484842625,103.8705772125,59.0,82.0
341,104.4461582625,104.880751025,57.0,77.0
342,104.7949952625,105.2077857125,52.0,72.0
343,105.1438322625,105.543541325,57.0,68.0
344,105.4926692625,105.7092389,52.0,64.0
345,104.4461582625,106.1351107375,45.0,77.0
346,105.8415062625,106.270285075,57.0,78.0
347,105.8415062625,106.42580823750001,61.0,77.0
348,106.5391802625,106.9069126,57.0,60.0
349,106.5391802625,106.9170870125,54.0,70.0
350,106.5391802625,107.0697032,61.0,73.0
351,106.8880172625,107.351679775,49.0,69.0
352,107.2368542625,107.834237625,54.0,81.0
353,107.9345282625,108.3734814875,57.0,75.0
354,107.5856912625,108.3952838,49.0,65.0
355,107.9345282625,108.4199930875,61.0,76.0
356,106.5391802625,108.4229000625,42.0,79.0
357,108.6322022625,109.0769694375,54.0,78.0
358,108.6322022625,109.380748325,61.0,77.0
359,109.3298762625,109.642376075,57.0,73.0
360,109.6787132625,109.88801546250001,54.0,77.0
361,108.9810392625,110.305166375,49.0,67.0
362,110.0275502625,110.3385965875,57.0,76.0
363,110.0275502625,110.4199918875,66.0,72.0
364,108.6322022625,110.4839453375,42.0,78.0
365,110.3763872625,110.6060382875,54.0,82.0
366,110.7252242625,110.88946835,54.0,78.0
367,110.7252242625,111.1510961,59.0,76.0
368,111.0740612625,111.4926656625,54.0,71.0
369,111.4228982625,111.8385956875,62.0,79.0
370,111.7717352625,112.1845257125,54.0,77.0
371,110.7252242625,112.217955925,47.0,71.0
372,112.1205722625,112.310979125,59.0,72.0
373,112.8182462625,113.0013856875,52.0,70.0
374,112.8182462625,113.2455715875,57.0,66.0
375,113.1670832625,113.5769667375,52.0,63.0
376,113.5159202625,114.247024475,57.0,62.0
377,113.8647572625,114.2484779625,52.0,63.0
378,112.8182462625,114.5711521875,45.0,70.0
379,114.2135942625,114.999931,61.0,77.0
380,114.5624312625,115.04062865,52.0,69.0
381,115.2601052625,115.688884075,52.0,66.0
382,115.6089422625,116.1874302875,57.0,60.0
383,114.9112682625,116.851674075,45.0,78.0
384,116.3066162625,116.9432437875,57.0,62.0
385,116.3066162625,117.002836775,61.0,70.0
386,117.0042902625,117.49992950000001,66.0,67.0
387,117.3531272625,117.80080141250001,61.0,71.0
388,117.7019642625,118.374928975,57.0,60.0
389,117.0042902625,118.4635917125,42.0,66.0
390,118.0508012625,118.5042893625,61.0,71.0
391,118.3996382625,119.0856843625,66.0,72.0
392,119.0973122625,119.508649225,64.0,64.0
393,119.4461492625,119.9185327,59.0,67.0
394,119.0973122625,120.42434635000001,40.0,66.0
395,119.7949862625,120.5449858125,56.0,68.0
396,120.1438232625,120.5566137125,59.0,72.0
397,120.4926602625,121.0653343375,64.0,71.0
398,120.8414972625,121.252834225,59.0,73.0
399,121.1903342625,121.9374268375,64.0,72.0
400,121.5391712625,121.9548686875,59.0,72.0
401,121.8880082625,122.3153335875,56.0,68.0
402,121.1903342625,122.5696939,40.0,63.0
403,122.2368452625,122.6627171,59.0,78.0
404,122.5856822625,122.7659147125,64.0,72.0
405,123.2833562625,123.9490535375,66.0,68.0
406,123.6321932625,124.0101000125,61.0,67.0
407,123.9810302625,124.4069021,57.0,72.0
408,124.3298672625,124.6845182125,61.0,75.0
409,123.2833562625,124.7920762875,42.0,74.0
410,124.6787042625,124.8371344,66.0,74.0
411,125.3763782625,125.758645475,66.0,72.0
412,125.7252152625,126.16852895,61.0,73.0
413,126.0740522625,126.6845170125,57.0,79.0
414,125.3763782625,126.717947225,42.0,72.0
415,126.42288926250001,126.8269587875,61.0,75.0
416,126.7717262625,126.9185285,66.0,74.0
417,127.4694002625,127.8371326,64.0,69.0
418,127.8182372625,128.2426556125,59.0,73.0
419,128.1670742625,128.6089344625,56.0,72.0
420,128.5159112625,128.9141668375,59.0,74.0
421,127.4694002625,129.084224875,40.0,73.0
422,128.8647482625,129.1380039125,64.0,74.0
423,129.5624222625,129.927247625,59.0,73.0
424,129.9112592625,130.5653286375,56.0,71.0
425,130.2600962625,130.6699797375,59.0,74.0
426,129.5624222625,131.0740492625,40.0,75.0
427,130.6089332625,131.20340965,64.0,73.0
428,130.9577702625,131.2208515,59.0,70.0
429,131.6554442625,132.427246125,61.0,70.0
430,132.0042812625,132.7673622,54.0,65.0
431,132.3531182625,132.7891645125,57.0,77.0
432,132.7019552625,133.1975945,61.0,70.0
433,133.0507922625,133.276082825,66.0,65.0
434,131.6554442625,133.473757125,42.0,73.0
435,134.4461402625,134.776081925,57.0,65.0
436,134.4461402625,134.8022447,61.0,64.0
437,134.0973032625,135.485383825,49.0,71.0
438,133.7484662625,135.6060232875,42.0,77.0
439,135.4926512625,136.467941375,54.0,71.0
440,136.5391622625,136.9301504,57.0,61.0
441,136.8879992625,137.3298594625,54.0,60.0
442,137.2368362625,137.409801275,66.0,65.0
443,135.8414882625,137.450498925,42.0,78.0
444,136.1903252625,137.450498925,49.0,59.0
445,138.2833472625,138.770265575,52.0,66.0
446,138.6321842625,139.008637525,57.0,76.0
447,137.9345102625,139.54061395,45.0,78.0
448,139.3298582625,139.6467185375,57.0,65.0
449,139.3298582625,139.7659045125,61.0,76.0
450,139.6786952625,140.0188113375,52.0,72.0
451,140.0275322625,140.4606715375,56.0,71.0
452,140.7252062625,141.223752475,59.0,70.0
453,140.3763692625,141.4577639625,47.0,62.0
454,140.0275322625,141.5013685875,40.0,77.0
455,141.4228802625,141.5246243875,59.0,70.0
456,141.0740432625,141.5304383375,56.0,65.0
457,141.4228802625,141.584217375,64.0,71.0
458,142.1205542625,142.84003057500001,61.0,72.0
459,142.8182282625,143.206309425,57.0,70.0
460,143.1670652625,143.5711347875,54.0,75.0
461,143.5159022625,143.636541725,66.0,76.0
462,142.4693912625,143.7426463125,49.0,67.0
463,142.1205542625,143.7557277,42.0,77.0
464,144.2135762625,144.741192225,54.0,71.0
465,144.2135762625,144.9301456,61.0,70.0
466,144.9112502625,145.276075625,57.0,63.0
467,145.2600872625,145.6786916625,54.0,67.0
468,144.5624132625,145.799331125,49.0,67.0
469,144.2135762625,145.8036915875,42.0,77.0
470,145.6089242625,145.944679875,66.0,77.0
471,145.95776126250001,146.2397378375,54.0,78.0
472,146.3065982625,146.6990398875,57.0,69.0
473,147.0042722625,147.462120825,57.0,77.0
474,147.3531092625,147.88944615,61.0,70.0
475,146.3065982625,147.950492625,45.0,76.0
476,146.6554352625,147.9533996,52.0,63.0
477,147.7019462625,148.4548527875,64.0,67.0
478,149.09729426250001,149.5158986625,57.0,73.0
479,149.4461312625,149.886537975,54.0,73.0
480,149.7949682625,149.967933275,66.0,74.0
481,148.3996202625,150.0972936625,42.0,75.0
482,148.7484572625,150.1060145875,49.0,63.0
483,151.5391532625,151.8560135375,57.0,83.0
484,151.1903162625,151.9533972,54.0,77.0
485,151.8879902625,152.2658970125,59.0,68.0
486,150.4926422625,152.3385713875,42.0,77.0
487,150.8414792625,152.3763620625,49.0,69.0
488,152.23682726250001,152.683047925,61.0,68.0
489,152.9345012625,153.363280075,56.0,74.0
490,153.2833382625,153.7629891375,61.0,72.0
491,153.6321752625,154.0972912625,56.0,62.0
492,153.9810122625,154.130721475,61.0,73.0
493,152.5856642625,154.1757795875,49.0,83.0
494,153.9810122625,154.2368260625,64.0,72.0
495,155.37636026250001,155.764441425,57.0,69.0
496,154.6786862625,155.776069325,61.0,74.0
497,155.7251972625,156.1408946875,54.0,70.0
498,155.0275232625,156.1554295625,49.0,67.0
499,154.6786862625,156.1670574625,42.0,78.0
500,156.0740342625,156.2193830125,66.0,74.0
501,156.7717082625,157.5362426875,62.0,69.0
502,156.7717082625,157.8501959875,38.0,74.0
503,157.1205452625,157.9635680125,45.0,58.0
504,157.4693822625,158.16850975,54.0,76.0
505,157.8182192625,158.217928325,57.0,80.0
506,158.1670562625,158.2775213125,62.0,79.0
507,158.8647302625,159.2600788625,61.0,73.0
508,159.2135672625,159.5827530875,56.0,69.0
509,159.5624042625,159.95920635,64.0,78.0
510,158.8647302625,160.287694525,49.0,77.0
511,159.9112412625,160.299322425,61.0,75.0
512,160.2600782625,160.3967060875,56.0,77.0
513,160.9577522625,161.5769379375,54.0,68.0
514,160.9577522625,161.706298325,61.0,72.0
515,161.6554262625,161.9882749,57.0,81.0
516,162.0042632625,162.1757747875,54.0,61.0
517,162.3531002625,162.508623425,54.0,72.0
518,162.3531002625,162.5812978,57.0,71.0
519,161.3065892625,162.64525125,49.0,72.0
520,160.9577522625,162.700483775,42.0,78.0
521,162.3531002625,162.7455418875,61.0,72.0
522,162.7019372625,162.9374022375,54.0,74.0
523,163.0507742625,163.229553225,54.0,78.0
524,163.0507742625,163.4374019375,59.0,77.0
525,163.3996112625,163.8182156625,54.0,71.0
526,163.7484482625,164.165599175,59.0,70.0
527,164.0972852625,164.5115292,54.0,58.0
528,164.4461222625,164.534785,59.0,73.0
529,163.0507742625,164.53623848750001,47.0,77.0
530,164.4461222625,164.584203575,62.0,70.0
531,165.1437962625,165.930133,57.0,77.0
532,165.8414702625,166.5158884625,54.0,75.0
533,165.1437962625,166.55222565,38.0,75.0
534,165.4926332625,166.624900025,45.0,63.0
535,166.1903072625,166.6408883875,57.0,79.0
536,166.5391442625,166.962109125,62.0,81.0
537,166.8879812625,167.0711206875,54.0,81.0
538,167.2368182625,167.9373992375,56.0,72.0
539,167.2368182625,168.33129435,52.0,73.0
540,167.9344922625,168.3530966625,59.0,77.0
541,168.2833292625,168.462108225,56.0,79.0
542,168.6321662625,168.837108,52.0,74.0
543,167.2368182625,169.0246078875,40.0,77.0
544,167.5856552625,169.06385205,47.0,69.0
545,168.6321662625,169.0653055375,64.0,78.0
546,169.3298402625,169.531875025,56.0,70.0
547,169.3298402625,169.71792142500001,61.0,77.0
548,169.6786772625,170.07547935,56.0,76.0
549,170.0275142625,170.5391418625,64.0,74.0
550,170.3763512625,170.7426301125,56.0,74.0
551,169.3298402625,170.8996067625,49.0,70.0
552,170.7251882625,171.060943875,61.0,80.0
553,171.0740252625,171.2440833,56.0,78.0
554,171.4228622625,172.0275130625,54.0,62.0
555,171.4228622625,172.1903036625,61.0,72.0
556,172.1205362625,172.4635593125,57.0,81.0
557,172.4693732625,172.8443730375,54.0,77.0
558,171.4228622625,172.9185009,42.0,78.0
559,171.7716992625,172.9257683375,49.0,66.0
560,172.8182102625,172.9548380875,57.0,77.0
561,172.8182102625,172.9810008625,61.0,74.0
562,173.5158842625,174.1612327125,62.0,69.0
563,173.5158842625,174.2891396125,57.0,63.0
564,173.5158842625,174.6466975375,38.0,79.0
565,173.8647212625,174.70338355,45.0,62.0
566,174.2135582625,174.883616,54.0,78.0
567,174.5623952625,174.9635578125,57.0,81.0
568,174.9112322625,175.037685675,62.0,86.0
569,175.6089062625,176.008615325,61.0,74.0
570,175.9577432625,176.380708125,56.0,73.0
571,176.3065802625,176.665591675,61.0,76.0
572,176.6554172625,177.142335575,64.0,79.0
573,175.6089062625,177.3182075625,49.0,77.0
574,177.0042542625,177.3966958875,56.0,77.0
575,177.3530912625,177.7019282625,61.0,62.0
576,177.7019282625,178.4083231875,57.0,71.0
577,178.3996022625,178.80803225,61.0,71.0
578,178.7484392625,179.1873924875,54.0,74.0
579,178.0507652625,179.4344853625,49.0,72.0
580,177.7019282625,179.4809969625,42.0,78.0
581,179.0972762625,179.5464039,66.0,77.0
582,179.4461132625,179.880706025,54.0,78.0
583,179.7949502625,180.2905895,59.0,77.0
584,180.1437872625,180.5856474625,54.0,69.0
585,180.8414612625,181.2484377625,54.0,66.0
586,180.4926242625,181.2658796125,62.0,69.0
587,179.7949502625,181.438844625,47.0,73.0
588,181.1902982625,181.479542275,59.0,77.0
589,181.5391352625,181.99407685,54.0,70.0
590,181.8879722625,182.6059950875,57.0,65.0
591,181.8879722625,183.2484365625,38.0,69.0
592,182.5856462625,183.2687853875,54.0,78.0
593,182.2368092625,183.310936525,45.0,60.0
594,182.9344832625,183.6234363375,57.0,80.0
595,183.2833202625,183.706285125,62.0,78.0
596,183.6321572625,183.8472734125,54.0,79.0
597,183.9809942625,184.7019240625,56.0,73.0
598,183.9809942625,185.1030866125,52.0,75.0
599,184.6786682625,185.1234354375,59.0,77.0
600,185.0275052625,185.17866796250001,56.0,78.0
601,185.3763422625,185.51733055,52.0,75.0
602,185.3763422625,185.5347724,56.0,77.0
603,184.3298312625,185.549307275,47.0,66.0
604,183.9809942625,185.6059932875,40.0,77.0
605,185.3763422625,185.6394235,64.0,73.0
606,186.0740162625,186.5362252875,64.0,75.0
607,186.0740162625,186.8879692625,37.0,79.0
608,186.4228532625,186.903957625,56.0,75.0
609,186.7716902625,187.1394226,61.0,74.0
610,187.1205272625,187.2920387875,64.0,77.0
611,187.4693642625,187.863259375,56.0,77.0
612,187.8182012625,187.906864,61.0,73.0
613,188.1670382625,188.6786658625,54.0,69.0
614,188.1670382625,188.7106425875,61.0,72.0
615,188.8647122625,189.0071540375,57.0,79.0
616,189.2135492625,189.4025026375,54.0,73.0
617,189.5623862625,189.6990140875,54.0,78.0
618,189.5623862625,189.80802565,57.0,78.0
619,189.5623862625,189.8123861125,61.0,75.0
620,188.5158752625,189.8254675,49.0,67.0
621,188.1670382625,189.8370954,42.0,78.0
622,190.2600602625,190.9751761125,57.0,77.0
623,190.9577342625,191.4431990875,54.0,79.0
624,191.3065712625,191.49407115,57.0,81.0
625,190.2600602625,191.61035015,38.0,80.0
626,190.6088972625,191.683024525,45.0,65.0
627,191.6554082625,191.8181988625,57.0,80.0
628,191.6554082625,191.8472686125,62.0,73.0
629,192.3530822625,192.7833145625,64.0,75.0
630,192.7019192625,193.1147097125,56.0,76.0
631,193.0507562625,193.34290725,61.0,79.0
632,193.3995932625,193.58709315,56.0,72.0
633,192.3530822625,193.9112208625,49.0,75.0
634,193.7484302625,193.9257557375,64.0,77.0
635,193.7484302625,193.9286627125,61.0,78.0
636,193.7484302625,193.9722673375,56.0,77.0
637,194.4461042625,194.9199411875,54.0,71.0
638,194.4461042625,194.9577318625,61.0,75.0
639,194.7949412625,195.2745921375,49.0,66.0
640,195.1437782625,195.45918505,57.0,81.0
641,195.4926152625,195.950463825,49.0,68.0
642,194.4461042625,196.0231382,42.0,78.0
643,195.8414522625,196.0449405125,54.0,78.0
644,195.8414522625,196.15685905,61.0,75.0
645,196.1902892625,196.51151,42.0,77.0
646,196.5391262625,196.927207425,59.0,76.0
647,196.8879632625,197.316742075,54.0,77.0
648,197.2368002625,197.996974225,62.0,70.0
649,196.5391262625,198.020230025,47.0,77.0
650,197.5856372625,198.0216835125,54.0,71.0
651,197.9344742625,198.08709045,59.0,78.0
652,198.6321482625,199.4606361375,57.0,78.0
653,199.3298222625,199.9417405,54.0,80.0
654,198.6321482625,200.02894975,38.0,77.0
655,198.9809852625,200.09871715,45.0,61.0
656,199.6786592625,200.101624125,57.0,78.0
657,200.0274962625,200.4402867125,62.0,84.0
658,200.3763332625,200.752786525,54.0,80.0
659,200.7251702625,201.12197235,56.0,77.0
660,201.0740072625,202.13359965,52.0,76.0
661,201.4228442625,202.1641228875,59.0,78.0
662,201.7716812625,202.2208089,56.0,76.0
663,200.7251702625,202.3821460125,40.0,77.0
664,202.1205182625,202.46644828750001,64.0,78.0
665,202.8181922625,203.2324362,57.0,79.0
666,203.1670292625,203.601622025,52.0,71.0
667,203.5158662625,203.8763311625,57.0,80.0
668,203.8647032625,204.3138309,52.0,64.0
669,204.2135402625,204.4257494375,57.0,71.0
670,202.8181922625,204.427202925,45.0,77.0
671,204.2135402625,204.5071447375,61.0,77.0
672,204.9112142625,205.450458125,64.0,77.0
673,205.2600512625,205.6960975125,56.0,69.0
674,205.6088882625,205.9693531625,61.0,78.0
675,204.9112142625,206.124876325,49.0,78.0
676,205.9577252625,206.1408646875,56.0,69.0
677,206.3065622625,206.4301087,56.0,72.0
678,206.3065622625,206.5580156,49.0,68.0
679,206.3065622625,206.6466783375,61.0,77.0
680,206.3065622625,206.7556899,64.0,72.0
681,206.6553992625,206.7833061625,56.0,74.0
682,207.0042362625,207.47080575,54.0,68.0
683,207.0042362625,207.4867941125,61.0,71.0
684,207.3530732625,207.8647008625,49.0,68.0
685,207.0042362625,207.9649915,42.0,77.0
686,207.7019102625,208.0187705375,57.0,80.0
687,208.0507472625,208.305107575,54.0,78.0
688,208.3995842625,208.7338863875,61.0,79.0
689,208.3995842625,208.77313055,57.0,78.0
690,208.7484212625,209.0972582625,54.0,83.0
691,209.0972582625,209.7789439,62.0,66.0
692,209.0972582625,209.816734575,57.0,66.0
693,209.7949322625,210.3298156625,54.0,73.0
694,210.1437692625,210.348711,57.0,81.0
695,209.0972582625,210.36615285,38.0,78.0
696,209.4460952625,210.4024900375,45.0,59.0
697,210.4926062625,210.5710945875,54.0,71.0
698,210.4926062625,210.5972573625,38.0,76.0
699,210.4926062625,210.85452465,57.0,88.0
700,210.4926062625,210.8792339375,62.0,77.0
701,211.1902802625,211.92429145,57.0,66.0
702,211.1902802625,211.9751635125,61.0,74.0
703,211.5391172625,211.9780704875,49.0,69.0
704,211.8879542625,212.2789424,54.0,80.0
705,212.2367912625,212.7745816375,49.0,73.0
706,211.1902802625,212.8065583625,42.0,77.0
707,212.5856282625,212.810918825,57.0,78.0
708,212.5856282625,212.8210932375,61.0,77.0
709,213.2833022625,213.99405765,61.0,69.0
710,213.9809762625,214.3414411625,57.0,78.0
711,214.3298132625,214.7091735,54.0,73.0
712,214.6786502625,214.8254525,61.0,66.0
713,213.6321392625,214.93737103750001,49.0,61.0
714,213.2833022625,215.0362081875,42.0,77.0
715,215.0274872625,215.3763242625,54.0,57.0
716,215.3763242625,215.78475425,59.0,73.0
717,215.7251612625,216.15684705,54.0,73.0
718,216.0739982625,216.502777075,62.0,77.0
719,216.4228352625,216.8487071,54.0,77.0
720,215.3763242625,216.87777685,47.0,78.0
721,216.7716722625,216.8937652125,59.0,82.0
722,217.4693462625,217.903939025,57.0,77.0
723,217.8181832625,218.2309737125,52.0,72.0
724,218.1670202625,218.566729325,57.0,68.0
725,218.5158572625,218.7324269,52.0,64.0
726,217.4693462625,219.1582987375,45.0,77.0
727,218.8646942625,219.293473075,57.0,78.0
728,218.8646942625,219.4489962375,61.0,77.0
729,219.5623682625,219.9301006,57.0,60.0
730,219.5623682625,219.9402750125,54.0,70.0
731,219.5623682625,220.0928912,61.0,73.0
732,219.9112052625,220.374867775,49.0,69.0
733,220.2600422625,220.857425625,54.0,81.0
734,220.9577162625,221.3966694875,57.0,75.0
735,220.6088792625,221.4184718,49.0,65.0
736,220.9577162625,221.4431810875,61.0,76.0
737,219.5623682625,221.4460880625,42.0,79.0
738,221.6553902625,222.1001574375,54.0,78.0
739,221.6553902625,222.403936325,61.0,77.0
740,222.3530642625,222.665564075,57.0,73.0
741,222.7019012625,222.9112034625,54.0,77.0
742,222.0042272625,223.328354375,49.0,67.0
743,223.0507382625,223.3617845875,57.0,76.0
744,223.0507382625,223.4431798875,66.0,72.0
745,221.6553902625,223.5071333375,42.0,78.0
746,223.3995752625,223.6292262875,54.0,82.0
747,223.7484122625,223.91265635,54.0,78.0
748,223.7484122625,224.1742841,59.0,76.0
749,224.09724926250001,224.5158536625,54.0,71.0
750,224.4460862625,224.8617836875,62.0,79.0
751,224.7949232625,225.2077137125,54.0,77.0
752,223.7484122625,225.241143925,47.0,71.0
753,225.1437602625,225.334167125,59.0,72.0
754,225.8414342625,226.0245736875,52.0,70.0
755,225.8414342625,226.2687595875,57.0,66.0
756,226.1902712625,226.6001547375,52.0,63.0
757,226.5391082625,227.270212475,57.0,62.0
758,226.8879452625,227.2716659625,52.0,63.0
759,225.8414342625,227.5943401875,45.0,70.0
760,227.23678226250001,228.023119,61.0,77.0
761,227.5856192625,228.06381665,52.0,69.0
762,228.2832932625,228.712072075,52.0,66.0
763,228.6321302625,229.2106182875,57.0,60.0
764,227.9344562625,229.874862075,45.0,78.0
765,229.3298042625,229.9664317875,57.0,62.0
766,229.3298042625,230.026024775,61.0,70.0
767,230.0274782625,230.5231175,66.0,67.0
768,230.37631526250001,230.8239894125,61.0,71.0
769,230.7251522625,231.398116975,57.0,60.0
770,230.0274782625,231.4867797125,42.0,66.0
771,231.0739892625,231.5274773625,61.0,71.0
772,231.4228262625,232.1088723625,66.0,72.0
773,232.1205002625,232.531837225,64.0,64.0
774,232.4693372625,232.9417207,59.0,67.0
775,232.1205002625,233.44753435,40.0,66.0
776,232.8181742625,233.5681738125,56.0,68.0
777,233.1670112625,233.5798017125,59.0,72.0
778,233.51584826250001,234.0885223375,64.0,71.0
779,233.8646852625,234.276022225,59.0,73.0
780,234.2135222625,234.9606148375,64.0,72.0
781,234.5623592625,234.97805668750001,59.0,72.0
782,234.9111962625,235.3385215875,56.0,68.0
783,234.2135222625,235.5928819,40.0,63.0
784,235.2600332625,235.6859051,59.0,78.0
785,235.6088702625,235.7891027125,64.0,72.0
786,236.3065442625,236.9722415375,66.0,68.0
787,236.65538126250001,237.0332880125,61.0,67.0
788,237.0042182625,237.4300901,57.0,72.0
789,237.3530552625,237.7077062125,61.0,75.0
790,236.3065442625,237.8152642875,42.0,74.0
791,237.7018922625,237.8603224,66.0,74.0
792,238.3995662625,238.781833475,66.0,72.0
793,238.7484032625,239.19171695,61.0,73.0
794,239.0972402625,239.7077050125,57.0,79.0
795,238.3995662625,239.741135225,42.0,72.0
796,239.4460772625,239.8501467875,61.0,75.0
797,239.79491426250001,239.9417165,66.0,74.0
798,240.4925882625,240.8603206,64.0,69.0
799,240.8414252625,241.2658436125,59.0,73.0
800,241.1902622625,241.6321224625,56.0,72.0
801,241.5390992625,241.9373548375,59.0,74.0
802,240.4925882625,242.107412875,40.0,73.0
803,241.8879362625,242.1611919125,64.0,74.0
804,243.2687493875,243.53619108750001,52.0,67.0
805,243.508574825,243.6960747125,54.0,74.0
806,243.7425863125,244.8588647125,56.0,71.0
807,243.0216565125,245.3239807125,47.0,62.0
808,242.6393893,245.3530504625,40.0,78.0
809,243.9765978,246.514386975,59.0,72.0
810,244.2396790375,247.6960723125,64.0,62.0
811,247.29927022500001,248.0129325875,54.0,78.0
812,247.69171185,248.1277581,61.0,72.0
813,248.11613020000001,248.258571975,66.0,78.0
814,248.5449090125,248.712060075,69.0,77.0
815,248.5507229625,248.7324089,66.0,68.0
816,249.0158389625,249.130664475,66.0,68.0
817,249.014385475,249.1611877125,73.0,76.0
818,249.4431642875,249.5623502625,66.0,51.0
819,249.531827025,249.677175775,78.0,77.0
820,250.2687451875,250.37339628750001,78.0,54.0
821,250.38938465,250.456245075,85.0,25.0
822,250.3908381375,250.5463613,90.0,69.0
823,246.9184565,250.9053727125,49.0,71.0
824,246.5361892875,250.93589595,42.0,78.0
