,start,end,pitch,velocity
0,45.24567834375001,45.53303459375001,74.0,88.0
1,45.59050584375001,45.83044831250001,69.0,85.0
2,45.93533334375001,46.02297700000001,69.0,78.0
3,46.107747093750014,46.20257465625001,69.0,79.0
4,46.28016084375001,46.51579296875001,69.0,84.0
5,46.62498834375001,46.77585037500001,69.0,74.0
6,46.79740209375001,46.905160687500015,66.0,79.0
7,46.96981584375001,47.62642487500001,71.0,84.0
8,48.00429834375001,48.262918968750014,69.0,78.0
9,48.34912584375001,48.75142459375001,69.0,85.0
10,48.866367093750014,48.95975787500001,69.0,83.0
11,49.03878084375001,49.267229062500014,69.0,81.0
12,49.38360834375001,49.63935540625001,66.0,84.0
13,49.72843584375001,50.35056212500001,64.0,84.0
14,50.76291834375001,50.98130909375001,74.0,85.0
15,51.10774584375001,51.29021706250001,69.0,81.0
16,51.45257334375001,51.54740090625001,69.0,76.0
17,51.624987093750015,51.71694109375001,69.0,81.0
18,51.79740084375001,51.979872062500014,69.0,83.0
19,52.14222834375001,52.26722831250001,69.0,78.0
20,52.31464209375001,52.38791793750001,66.0,81.0
21,52.487055843750014,53.21837750000001,71.0,84.0
22,53.52153834375001,53.624986593750016,69.0,79.0
23,53.69395209375001,53.79740034375001,69.0,83.0
24,53.86636584375001,54.04883706250001,69.0,83.0
25,54.21119334375001,54.329009406250016,69.0,77.0
26,54.383607093750015,54.476997875000016,69.0,79.0
27,54.55602084375001,54.829009281250016,69.0,86.0
28,54.90084834375001,55.136480468750015,78.0,85.0
29,55.245675843750014,55.55171025000001,76.0,83.0
30,55.590503343750015,55.91090556250001,74.0,83.0
31,56.28015834375001,56.46693990625001,74.0,85.0
32,56.62498584375001,56.806020281250014,69.0,84.0
33,56.96981334375001,57.06320412500001,69.0,76.0
34,57.142227093750016,57.247112125000015,69.0,82.0
35,57.31464084375001,57.51435343750001,69.0,83.0
36,57.659468343750014,57.78015796875001,69.0,79.0
37,57.83188209375001,57.956882062500014,66.0,78.0
38,58.004295843750015,58.655157750000015,71.0,83.0
39,59.03877834375002,59.28159437500001,69.0,80.0
40,59.38360584375001,59.619237968750014,69.0,81.0
41,59.72843334375001,59.82182412500001,69.0,80.0
42,59.900847093750016,59.969812593750014,69.0,80.0
43,60.07326084375001,60.29165159375001,69.0,84.0
44,60.418088343750014,60.668088281250014,66.0,84.0
45,60.762915843750015,61.419524875000015,64.0,84.0
46,61.79739834375002,62.08188103125001,74.0,86.0
47,62.14222584375001,62.376421187500014,69.0,84.0
48,62.48705334375001,62.581880906250014,69.0,76.0
49,62.65946709375002,62.74280040625001,69.0,83.0
50,62.831880843750014,63.030156656250014,69.0,84.0
51,63.176708343750015,63.29165084375001,69.0,77.0
52,63.34912209375001,63.44394965625001,66.0,83.0
53,63.521535843750016,64.22268509375002,71.0,84.0
54,64.55601834375001,64.64366200000002,69.0,83.0
55,64.72843209375002,64.79883437500001,69.0,79.0
56,64.90084584375002,65.10917912500001,69.0,84.0
57,65.24567334375001,65.33906412500002,69.0,84.0
58,65.41808709375002,65.51578821875002,69.0,84.0
59,65.59050084375002,65.85486859375001,69.0,84.0
60,65.93532834375002,66.20688000000001,78.0,87.0
61,66.28015584375001,66.52871900000001,76.0,82.0
62,66.62498334375002,66.98130509375001,74.0,85.0
63,66.96981084375001,68.10486803125002,71.0,89.0
64,68.34912084375001,68.61348859375002,71.0,88.0
65,68.69394834375002,68.92239656250001,73.0,85.0
66,69.03877584375002,69.26866084375001,74.0,88.0
67,69.38360334375001,69.61205156250001,76.0,85.0
68,69.72843084375002,70.15084453125002,78.0,84.0
69,70.24567209375002,70.70831565625002,76.0,88.0
70,70.76291334375001,71.52440740625002,74.0,86.0
71,71.79739584375001,72.08906243750002,74.0,92.0
72,72.14222334375002,72.39653362500002,79.0,84.0
73,72.48705084375001,72.86205075000002,79.0,85.0
74,73.00429209375002,73.42670578125002,78.0,84.0
75,73.52153334375002,74.10630331250002,76.0,85.0
76,74.21118834375002,74.51865953125002,74.0,92.0
77,74.55601584375002,75.10199271875001,83.0,86.0
78,75.24567084375002,76.27727978125002,81.0,84.0
79,76.28015334375002,76.51434868750002,69.0,87.0
80,76.62498084375002,76.89653250000002,76.0,84.0
81,76.96980834375002,77.25572781250001,78.0,84.0
82,77.31463584375003,77.67239437500002,81.0,85.0
83,77.65946334375002,78.73417571875002,78.0,94.0
84,79.03877334375002,79.31032500000002,76.0,94.0
85,79.38360084375002,79.62210653125003,78.0,81.0
86,79.72842834375002,79.93532484375002,81.0,84.0
87,80.07325584375002,80.68101431250003,83.0,85.0
88,80.76291084375002,81.63216350000002,81.0,83.0
89,81.79739334375002,82.01578409375001,81.0,85.0
90,82.14222084375002,82.42239318750002,81.0,85.0
91,82.48704834375002,83.01865740625001,88.0,88.0
92,83.17670334375002,84.02153071875001,86.0,83.0
93,84.21118584375002,84.44681796875003,86.0,85.0
94,84.55601334375002,84.77440409375002,86.0,87.0
95,84.90084084375002,85.15802468750002,78.0,79.0
96,85.24566834375003,85.72555328125001,78.0,75.0
97,85.93532334375001,86.49710481250003,83.0,87.0
98,86.62497834375002,87.03015065625002,81.0,81.0
99,87.31463334375002,87.56894362500002,69.0,85.0
100,87.65946084375003,87.87785159375002,76.0,84.0
101,88.00428834375002,88.31463309375002,78.0,82.0
102,88.34911584375003,88.68244909375002,81.0,83.0
103,88.69394334375002,89.50428796875002,78.0,87.0
104,89.72842584375002,90.01290853125002,81.0,86.0
105,90.07325334375003,90.84193131250002,83.0,85.0
106,91.10773584375002,91.37785071875003,85.0,87.0
107,91.45256334375001,92.02727584375002,83.0,84.0
108,92.14221834375002,92.65514925000002,81.0,86.0
109,92.83187334375002,93.34767781250002,78.0,83.0
110,94.55601084375002,95.10342450000002,74.0,85.0
111,95.24566584375002,95.52152784375002,71.0,84.0
112,95.59049334375003,96.23991846875002,74.0,92.0
113,96.28014834375003,96.94250450000003,81.0,83.0
114,96.96980334375003,97.24710212500003,74.0,83.0
115,97.31463084375002,98.31463059375002,76.0,86.0
116,98.34911334375002,98.58330868750002,69.0,87.0
117,98.69394084375003,98.96549250000002,76.0,84.0
118,99.03876834375002,99.32468781250002,78.0,84.0
119,99.38359584375003,99.74135437500003,81.0,85.0
120,99.72842334375002,100.80313571875003,78.0,94.0
121,101.10773334375003,101.37928500000002,76.0,94.0
122,101.45256084375002,101.69106653125003,78.0,81.0
123,101.79738834375003,102.00428484375003,81.0,84.0
124,102.14221584375002,102.74997431250003,83.0,85.0
125,102.83187084375002,103.70112350000002,81.0,83.0
126,103.86635334375002,104.08474409375002,81.0,85.0
127,104.21118084375003,104.49135318750002,81.0,85.0
128,104.55600834375002,105.08761740625002,88.0,88.0
129,105.24566334375002,106.09049071875002,86.0,83.0
130,106.28014584375002,106.51577796875003,86.0,85.0
131,106.62497334375003,106.84336409375003,86.0,87.0
132,106.96980084375002,107.22698468750002,78.0,79.0
133,107.31462834375003,107.79451328125002,78.0,75.0
134,108.00428334375003,108.56606481250003,83.0,87.0
135,108.69393834375002,109.09911065625002,81.0,81.0
136,109.38359334375002,109.63790362500002,69.0,85.0
137,109.72842084375003,109.94681159375003,76.0,84.0
138,110.07324834375002,110.38359309375002,78.0,82.0
139,110.41807584375003,110.75140909375003,81.0,83.0
140,110.76290334375003,111.57324796875002,78.0,87.0
141,111.79738584375002,112.08186853125002,81.0,86.0
142,112.14221334375003,112.91089131250003,83.0,85.0
143,113.17669584375003,113.44681071875003,85.0,87.0
144,113.52152334375003,114.09623584375002,83.0,84.0
145,114.21117834375002,114.72410925000003,81.0,86.0
146,114.90083334375002,115.41663781250003,78.0,83.0
147,116.62497084375003,117.17238450000002,74.0,85.0
148,117.31462584375002,117.59048784375003,71.0,84.0
149,117.65945334375003,118.30887846875002,74.0,92.0
150,118.34910834375003,119.01146450000003,81.0,83.0
151,119.03876334375003,119.31606212500003,74.0,83.0
152,119.38359084375003,120.38359059375003,76.0,86.0
153,121.45255584375003,121.71405003125003,74.0,85.0
154,121.79738334375003,123.81606100000003,74.0,86.0
155,144.55599834375005,144.74277990625004,74.0,85.0
156,144.90082584375003,145.08186028125004,69.0,84.0
157,145.24565334375004,145.33904412500004,69.0,76.0
158,145.41806709375004,145.52295212500005,69.0,82.0
159,145.59048084375004,145.79019343750002,69.0,83.0
160,145.93530834375002,146.05599796875003,69.0,79.0
161,146.10772209375003,146.23272206250005,66.0,78.0
162,146.28013584375003,146.93099775000005,71.0,83.0
163,147.31461834375003,147.55743437500004,69.0,80.0
164,147.65944584375004,147.89507796875003,69.0,81.0
165,148.00427334375004,148.09766412500002,69.0,80.0
166,148.17668709375005,148.24565259375004,69.0,80.0
167,148.34910084375002,148.56749159375005,69.0,84.0
168,148.69392834375003,148.94392828125004,66.0,84.0
169,149.03875584375004,149.69536487500002,64.0,84.0
170,150.07323834375003,150.35772103125004,74.0,86.0
171,150.41806584375004,150.65226118750005,69.0,84.0
172,150.76289334375002,150.85772090625002,69.0,76.0
173,150.93530709375003,151.01864040625003,69.0,83.0
174,151.10772084375003,151.30599665625004,69.0,84.0
175,151.45254834375004,151.56749084375002,69.0,77.0
176,151.62496209375004,151.71978965625004,66.0,83.0
177,151.79737584375005,152.49852509375003,71.0,84.0
178,152.83185834375004,152.91950200000002,69.0,83.0
179,153.00427209375005,153.07467437500003,69.0,79.0
180,153.17668584375005,153.38501912500004,69.0,84.0
181,153.52151334375003,153.61490412500004,69.0,84.0
182,153.69392709375003,153.79162821875005,69.0,84.0
183,153.86634084375004,154.13070859375003,69.0,84.0
184,154.21116834375005,154.48272000000003,78.0,87.0
185,154.55599584375003,154.80455900000004,76.0,82.0
186,154.90082334375003,155.25714509375004,74.0,85.0
187,155.24565084375004,156.38070803125004,71.0,89.0
188,156.62496084375005,156.88932859375004,71.0,88.0
189,156.96978834375003,157.19823656250003,73.0,85.0
190,157.31461584375003,157.54450084375003,74.0,88.0
191,157.65944334375004,157.88789156250004,76.0,85.0
192,158.00427084375005,158.42668453125003,78.0,84.0
193,158.52151209375003,158.98415565625004,76.0,88.0
194,159.03875334375005,159.80024740625004,74.0,86.0
195,160.07323584375004,160.36490243750004,74.0,92.0
196,160.41806334375005,160.67237362500003,79.0,84.0
197,160.76289084375003,161.13789075000003,79.0,85.0
198,161.28013209375004,161.70254578125005,78.0,84.0
199,161.79737334375002,162.38214331250003,76.0,85.0
200,162.48702834375004,162.79449953125004,74.0,92.0
201,162.83185584375005,163.37783271875003,83.0,86.0
202,163.52151084375004,164.55311978125005,81.0,84.0
203,164.55599334375003,164.79018868750003,69.0,87.0
204,164.90082084375004,165.17237250000005,76.0,84.0
205,165.24564834375005,165.53156781250004,78.0,84.0
206,165.59047584375003,165.94823437500003,81.0,85.0
207,165.93530334375004,167.01001571875003,78.0,94.0
208,167.31461334375004,167.58616500000005,76.0,94.0
209,167.65944084375005,167.89794653125003,78.0,81.0
210,168.00426834375003,168.21116484375003,81.0,84.0
211,168.34909584375004,168.95685431250004,83.0,85.0
212,169.03875084375005,169.90800350000004,81.0,83.0
213,170.07323334375005,170.29162409375004,81.0,85.0
214,170.41806084375003,170.69823318750005,81.0,85.0
215,170.76288834375003,171.29449740625003,88.0,88.0
216,171.45254334375005,172.29737071875005,86.0,83.0
217,172.48702584375005,172.72265796875004,86.0,85.0
218,172.83185334375005,173.05024409375005,86.0,87.0
219,173.17668084375003,173.43386468750003,78.0,79.0
220,173.52150834375004,174.00139328125005,78.0,75.0
221,174.21116334375003,174.77294481250004,83.0,87.0
222,174.90081834375005,175.30599065625003,81.0,81.0
223,175.59047334375003,175.84478362500005,69.0,85.0
224,175.93530084375004,176.15369159375004,76.0,84.0
225,176.28012834375005,176.59047309375003,78.0,82.0
226,176.62495584375003,176.95828909375004,81.0,83.0
227,176.96978334375004,177.78012796875004,78.0,87.0
228,178.00426584375003,178.28874853125004,81.0,86.0
229,178.34909334375004,179.11777131250005,83.0,85.0
230,179.38357584375004,179.65369071875006,85.0,87.0
231,179.72840334375005,180.30311584375005,83.0,84.0
232,180.41805834375003,180.93098925000004,81.0,86.0
233,181.10771334375005,181.62351781250004,78.0,83.0
234,182.83185084375003,183.37926450000003,74.0,85.0
235,183.52150584375005,183.79736784375004,71.0,84.0
236,183.86633334375006,184.51575846875005,74.0,92.0
237,184.55598834375004,185.21834450000006,81.0,83.0
238,185.24564334375003,185.52294212500004,74.0,83.0
239,185.59047084375004,186.59047059375004,76.0,86.0
240,186.62495334375004,186.85914868750004,69.0,87.0
241,186.96978084375004,187.24133250000006,76.0,84.0
242,187.31460834375005,187.60052781250005,78.0,84.0
243,187.65943584375003,188.01719437500003,81.0,85.0
244,188.00426334375004,189.07897571875006,78.0,94.0
245,189.38357334375004,189.65512500000006,76.0,94.0
246,189.72840084375005,189.96690653125003,78.0,81.0
247,190.07322834375003,190.28012484375006,81.0,84.0
248,190.41805584375004,191.02581431250005,83.0,85.0
249,191.10771084375006,191.97696350000004,81.0,83.0
250,192.14219334375005,192.36058409375005,81.0,85.0
251,192.48702084375006,192.76719318750006,81.0,85.0
252,192.83184834375004,193.36345740625003,88.0,88.0
253,193.52150334375006,194.36633071875005,86.0,83.0
254,194.55598584375005,194.79161796875005,86.0,85.0
255,194.90081334375006,195.11920409375006,86.0,87.0
256,195.24564084375004,195.50282468750004,78.0,79.0
257,195.59046834375005,196.07035328125005,78.0,75.0
258,196.28012334375003,196.84190481250005,83.0,87.0
259,196.96977834375005,197.37495065625004,81.0,81.0
260,197.65943334375004,197.91374362500005,69.0,85.0
261,198.00426084375005,198.22265159375004,76.0,84.0
262,198.34908834375005,198.65943309375004,78.0,82.0
263,198.69391584375003,199.02724909375004,81.0,83.0
264,199.03874334375004,199.84908796875004,78.0,87.0
265,200.07322584375004,200.35770853125004,81.0,86.0
266,200.41805334375005,201.18673131250006,83.0,85.0
267,201.45253584375004,201.72265071875006,85.0,87.0
268,201.79736334375005,202.37207584375005,83.0,84.0
269,202.48701834375004,202.99994925000004,81.0,86.0
270,203.17667334375005,203.69247781250004,78.0,83.0
271,204.90081084375004,205.44822450000004,74.0,85.0
272,205.59046584375005,205.86632784375004,71.0,84.0
273,205.93529334375006,206.58471846875005,74.0,92.0
274,206.62494834375005,207.28730450000006,81.0,83.0
275,207.31460334375004,207.59190212500005,74.0,83.0
276,207.65943084375004,208.65943059375005,76.0,86.0
277,209.72839584375004,209.98989003125004,74.0,85.0
278,210.07322334375004,212.09190100000006,74.0,86.0
279,230.76287334375004,230.99706868750005,69.0,87.0
280,231.10770084375005,231.37925250000006,76.0,84.0
281,231.45252834375006,231.73844781250006,78.0,84.0
282,231.79735584375007,232.15511437500007,81.0,85.0
283,232.14218334375005,233.21689571875007,78.0,94.0
284,233.52149334375005,233.79304500000006,76.0,94.0
285,233.86632084375006,234.10482653125007,78.0,81.0
286,234.21114834375007,234.41804484375007,81.0,84.0
287,234.55597584375005,235.16373431250005,83.0,85.0
288,235.24563084375006,236.11488350000005,81.0,83.0
289,236.28011334375006,236.49850409375006,81.0,85.0
290,236.62494084375007,236.90511318750006,81.0,85.0
291,236.96976834375005,237.50137740625004,88.0,88.0
292,237.65942334375006,238.50425071875006,86.0,83.0
293,238.69390584375006,238.92953796875005,86.0,85.0
294,239.03873334375007,239.25712409375006,86.0,87.0
295,239.38356084375005,239.64074468750005,78.0,79.0
296,239.72838834375005,240.20827328125006,78.0,75.0
297,240.41804334375007,240.97982481250006,83.0,87.0
298,241.10769834375006,241.51287065625004,81.0,81.0
299,241.79735334375005,242.05166362500006,69.0,85.0
300,242.14218084375005,242.36057159375005,76.0,84.0
301,242.48700834375006,242.79735309375005,78.0,82.0
302,242.83183584375007,243.16516909375005,81.0,83.0
303,243.17666334375005,243.98700796875005,78.0,87.0
304,244.21114584375005,244.49562853125005,81.0,86.0
305,244.55597334375005,245.32465131250007,83.0,85.0
306,245.59045584375005,245.86057071875007,85.0,87.0
307,245.93528334375006,246.50999584375006,83.0,84.0
308,246.62493834375005,247.13786925000005,81.0,86.0
309,247.31459334375006,247.83039781250005,78.0,83.0
310,249.03873084375005,249.58614450000005,74.0,85.0
311,249.72838584375006,250.00424784375005,71.0,84.0
312,250.07321334375007,250.72263846875006,74.0,92.0
313,250.76286834375006,251.42522450000007,81.0,83.0
314,251.45252334375007,251.72982212500006,74.0,83.0
315,251.79735084375005,252.79735059375005,76.0,86.0
316,252.83183334375005,253.06602868750005,69.0,87.0
317,253.17666084375006,253.44821250000007,76.0,84.0
318,253.52148834375006,253.80740781250006,78.0,84.0
319,253.86631584375007,254.22407437500007,81.0,85.0
320,254.21114334375005,255.28585571875007,78.0,94.0
321,255.59045334375006,255.86200500000007,76.0,94.0
322,255.93528084375006,256.1737865312501,78.0,81.0
323,256.28010834375004,256.48700484375007,81.0,84.0
324,256.62493584375005,257.2326943125001,83.0,85.0
325,257.31459084375007,258.1838435000001,81.0,83.0
326,258.34907334375004,258.56746409375006,81.0,85.0
327,258.69390084375004,258.97407318750004,81.0,85.0
328,259.03872834375005,259.5703374062501,88.0,88.0
329,259.72838334375007,260.5732107187501,86.0,83.0
330,260.76286584375003,260.9984979687501,86.0,85.0
331,261.10769334375004,261.32608409375007,86.0,87.0
332,261.45252084375005,261.70970468750005,78.0,79.0
333,261.79734834375006,262.27723328125006,78.0,75.0
334,262.4870033437501,263.04878481250006,83.0,87.0
335,263.17665834375003,263.5818306562501,81.0,81.0
336,263.86631334375005,264.12062362500006,69.0,85.0
337,264.21114084375006,264.4295315937501,76.0,84.0
338,264.55596834375007,264.8663130937501,78.0,82.0
339,264.9007958437501,265.2341290937501,81.0,83.0
340,265.2456233437501,266.05596796875005,78.0,87.0
341,266.28010584375005,266.5645885312501,81.0,86.0
342,266.62493334375006,267.39361131250007,83.0,85.0
343,267.6594158437501,267.9295307187501,85.0,87.0
344,268.0042433437501,268.57895584375007,83.0,84.0
345,268.69389834375005,269.20682925000006,81.0,86.0
346,269.38355334375007,269.89935781250006,78.0,83.0
347,271.10769084375005,271.65510450000005,74.0,85.0
348,271.79734584375007,272.0732078437501,71.0,84.0
349,272.1421733437501,272.79159846875007,74.0,92.0
350,272.8318283437501,273.4941845000001,81.0,83.0
351,273.52148334375005,273.79878212500006,74.0,83.0
352,273.86631084375006,274.8663105937501,76.0,86.0
353,275.93527584375005,276.1967700312501,74.0,85.0
354,276.28010334375006,278.2987810000001,74.0,86.0
