,start,end,pitch,velocity
0,11.807468312500003,12.382180812500003,66.0,71.0
1,11.742813156250003,12.400858968750002,62.0,77.0
2,11.683905125000003,12.438215281250002,59.0,64.0
3,11.745686718750003,12.521548593750003,47.0,76.0
4,13.074709375000003,13.645111531250004,59.0,70.0
5,13.017238125000002,13.655169000000003,55.0,70.0
6,13.123559937500003,13.676720718750003,62.0,66.0
7,13.117812812500004,13.880743656250003,43.0,72.0
8,14.466950406250003,15.382180062500003,62.0,79.0
9,14.389364218750003,15.448272000000003,57.0,63.0
10,14.548846937500004,15.454019125000004,66.0,73.0
11,14.494249250000003,15.604881156250004,50.0,75.0
12,15.762927093750005,16.765800406250005,57.0,71.0
13,15.810340875000003,16.790225687500005,61.0,68.0
14,15.915225906250004,16.870685437500004,64.0,67.0
15,15.872122468750003,16.920972781250004,45.0,80.0
16,17.260053156250002,18.188213843750006,66.0,70.0
17,17.212639375000006,18.193960968750005,62.0,71.0
18,17.160915250000006,18.239937968750006,59.0,69.0
19,17.234191093750002,18.288788531250006,47.0,83.0
20,18.636489593750003,19.352006656250005,59.0,73.0
21,18.563213750000003,19.357753781250004,55.0,69.0
22,18.668098781250006,19.399420437500005,62.0,77.0
23,18.642236718750006,19.512926156250003,43.0,79.0
24,20.084765093750004,20.811776406250004,66.0,72.0
25,20.015799593750003,20.829017781250005,62.0,78.0
26,20.035914531250004,21.001431531250006,50.0,79.0
27,19.956891562500005,21.025856812500006,57.0,59.0
28,21.408040625000005,21.879304875000006,57.0,73.0
29,21.397983156250007,21.922408312500004,61.0,71.0
30,21.435339468750005,21.991373812500004,64.0,77.0
31,22.091948500000004,22.274419718750007,57.0,86.0
32,21.758615250000005,22.512925406250005,52.0,77.0
33,21.413787750000004,22.553155281250007,45.0,84.0
34,22.449707031250007,22.676718468750007,61.0,73.0
35,22.448270250000004,22.701143750000007,57.0,76.0
36,22.454017375000006,22.708327656250006,64.0,83.0
37,22.831890843750006,23.262925218750006,62.0,83.0
38,22.831890843750006,23.283040156250006,59.0,83.0
39,23.176718343750007,23.520109062500005,54.0,64.0
40,22.831890843750006,23.567522843750005,47.0,83.0
41,23.521545843750005,23.721258437500005,66.0,83.0
42,23.521545843750005,23.794534281250005,62.0,84.0
43,23.521545843750005,23.824706687500004,59.0,84.0
44,24.038787093750006,24.204016937500004,59.0,75.0
45,24.038787093750006,24.224131875000005,62.0,79.0
46,24.556028343750008,24.841947812500006,55.0,83.0
47,24.556028343750008,24.850568500000005,62.0,76.0
48,24.383614593750007,25.020108687500006,50.0,79.0
49,24.900855843750005,25.284476437500008,55.0,85.0
50,24.900855843750005,25.306028156250004,59.0,84.0
51,24.211200843750007,25.350568375000005,43.0,85.0
52,25.245683343750006,25.428154562500005,50.0,80.0
53,25.590510843750007,25.920970531250006,57.0,79.0
54,25.590510843750007,26.090510718750007,62.0,84.0
55,25.590510843750007,26.481315218750005,50.0,86.0
56,26.280165843750005,26.616372656250007,66.0,86.0
57,26.280165843750005,26.629303687500006,62.0,86.0
58,26.280165843750005,26.646545062500007,57.0,85.0
59,26.797407093750007,26.892234656250007,62.0,79.0
60,26.797407093750007,26.905165687500006,66.0,80.0
61,26.797407093750007,26.949705906250006,57.0,79.0
62,27.142234593750008,27.316085125000008,61.0,87.0
63,27.142234593750008,27.331889718750006,57.0,78.0
64,27.142234593750008,27.333326500000005,64.0,85.0
65,27.314648343750008,27.768671218750008,52.0,82.0
66,27.659475843750005,27.978441281250007,61.0,89.0
67,27.659475843750005,27.987061968750005,57.0,84.0
68,26.969820843750007,28.103441250000007,45.0,84.0
69,28.004303343750006,28.244245812500008,52.0,84.0
70,28.349130843750007,28.783038781250006,59.0,82.0
71,28.349130843750007,28.783038781250006,62.0,84.0
72,28.69395834375001,29.102004218750007,54.0,77.0
73,28.349130843750007,29.237061656250006,47.0,84.0
74,29.038785843750006,29.329015656250007,66.0,89.0
75,29.038785843750006,29.347693812500008,62.0,89.0
76,29.038785843750006,29.377866218750007,59.0,85.0
77,29.556027093750007,29.67384315625001,62.0,82.0
78,29.556027093750007,29.708325906250007,59.0,84.0
79,29.900854593750008,30.02154421875001,62.0,83.0
80,29.900854593750008,30.051716625000008,55.0,81.0
81,30.07326834375001,30.568957875000006,50.0,83.0
82,30.418095843750006,30.659475093750007,55.0,85.0
83,30.418095843750006,30.660911875000007,59.0,89.0
84,30.418095843750006,30.704015312500008,62.0,85.0
85,29.728440843750008,30.87355550000001,43.0,81.0
86,30.762923343750007,30.929589968750008,50.0,80.0
87,31.107750843750008,31.385049625000008,57.0,78.0
88,31.107750843750008,31.55458981250001,62.0,83.0
89,31.797405843750006,32.09194600000001,62.0,87.0
90,31.797405843750006,32.104877031250005,57.0,84.0
91,31.797405843750006,32.113497718750004,66.0,85.0
92,31.107750843750008,32.34769306250001,50.0,83.0
93,32.31464709375001,32.399417187500006,62.0,78.0
94,32.31464709375001,32.409474656250005,66.0,70.0
95,32.31464709375001,32.455451656250005,57.0,80.0
96,32.659474593750005,32.79022168750001,61.0,83.0
97,32.659474593750005,32.808899843750005,64.0,85.0
98,32.659474593750005,32.813210187500005,57.0,79.0
99,32.83188834375001,33.32757787500001,52.0,80.0
100,33.17671584375001,33.84625590625001,61.0,88.0
101,33.17671584375001,33.859186937500006,57.0,84.0
102,32.48706084375001,33.862060500000005,45.0,78.0
103,33.17671584375001,33.87355475000001,64.0,87.0
104,33.52154334375001,33.88361221875001,52.0,83.0
105,33.866370843750005,34.29740521875001,62.0,83.0
106,33.866370843750005,34.317520156250005,59.0,83.0
107,34.211198343750006,34.55458906250001,54.0,64.0
108,33.866370843750005,34.60200284375001,47.0,83.0
109,34.55602584375001,34.75573843750001,66.0,83.0
110,34.55602584375001,34.82901428125001,62.0,84.0
111,34.55602584375001,34.85918668750001,59.0,84.0
112,35.07326709375001,35.23849693750001,59.0,75.0
113,35.07326709375001,35.25861187500001,62.0,79.0
114,35.59050834375001,35.87642781250001,55.0,83.0
115,35.59050834375001,35.88504850000001,62.0,76.0
116,35.418094593750006,36.05458868750001,50.0,79.0
117,35.93533584375001,36.318956437500006,55.0,85.0
118,35.93533584375001,36.34050815625001,59.0,84.0
119,35.24568084375001,36.38504837500001,43.0,85.0
120,36.28016334375001,36.46263456250001,50.0,80.0
121,36.624990843750005,36.95545053125001,57.0,79.0
122,36.624990843750005,37.124990718750006,62.0,84.0
123,36.624990843750005,37.51579521875001,50.0,86.0
124,37.31464584375001,37.65085265625001,66.0,86.0
125,37.31464584375001,37.66378368750001,62.0,86.0
126,37.31464584375001,37.68102506250001,57.0,85.0
127,37.83188709375001,37.926714656250006,62.0,79.0
128,37.83188709375001,37.93964568750001,66.0,80.0
129,37.83188709375001,37.98418590625001,57.0,79.0
130,38.176714593750006,38.35056512500001,61.0,87.0
131,38.176714593750006,38.36636971875001,57.0,78.0
132,38.176714593750006,38.36780650000001,64.0,85.0
133,38.34912834375001,38.80315121875001,52.0,82.0
134,38.69395584375001,39.01292128125001,61.0,89.0
135,38.69395584375001,39.02154196875001,57.0,84.0
136,38.00430084375001,39.13792125000001,45.0,84.0
137,39.03878334375001,39.27872581250001,52.0,84.0
138,39.383610843750006,39.71407053125001,62.0,79.0
139,39.383610843750006,39.89223140625001,55.0,80.0
140,39.72843834375001,40.19251868750001,50.0,69.0
141,39.383610843750006,40.19826581250001,43.0,84.0
142,40.07326584375001,40.34481750000001,62.0,84.0
143,40.07326584375001,40.35056462500001,59.0,85.0
144,40.07326584375001,40.37642668750001,55.0,84.0
145,40.59050709375001,40.71263350000001,55.0,83.0
146,40.59050709375001,40.72125418750001,59.0,80.0
147,41.10774834375001,41.56177121875001,61.0,85.0
148,41.10774834375001,41.61349534375001,57.0,82.0
149,41.45257584375001,41.83763321875001,49.0,69.0
150,41.79740334375001,41.90803550000001,61.0,80.0
151,41.79740334375001,41.91809296875001,57.0,78.0
152,40.76292084375001,41.92096653125001,42.0,84.0
153,41.79740334375001,41.96550675000001,66.0,71.0
154,42.14223084375001,42.64941462500001,64.0,84.0
155,42.14223084375001,42.67671346875001,59.0,77.0
156,42.14223084375001,42.92240306250001,40.0,85.0
157,42.83188584375001,43.09338003125001,64.0,92.0
158,42.83188584375001,43.10631106250001,67.0,83.0
159,42.83188584375001,43.13504668750001,59.0,86.0
160,43.34912709375001,43.41952937500001,64.0,82.0
161,43.34912709375001,43.46263281250001,59.0,80.0
162,43.52154084375001,43.72412700000001,61.0,81.0
163,43.52154084375001,43.73418446875001,64.0,84.0
164,43.52154084375001,43.75573618750001,57.0,76.0
165,43.86636834375001,44.40228775000001,52.0,79.0
166,44.21119584375001,44.91378187500001,57.0,84.0
167,43.52154084375001,44.91952900000001,45.0,83.0
168,44.21119584375001,44.92096578125001,61.0,84.0
169,44.21119584375001,44.92240256250001,64.0,89.0
170,44.55602334375001,44.93246003125001,52.0,83.0
171,44.900850843750014,45.39366681250001,62.0,84.0
172,44.900850843750014,45.42671278125001,59.0,80.0
173,45.24567834375001,45.656597781250014,54.0,71.0
174,44.900850843750014,45.69682765625001,47.0,84.0
175,45.59050584375001,45.73418396875001,62.0,84.0
176,45.59050584375001,45.75860925000001,66.0,83.0
177,45.59050584375001,45.77728740625001,59.0,84.0
178,46.107747093750014,46.27585050000001,62.0,74.0
179,46.107747093750014,46.33475853125001,59.0,74.0
180,46.62498834375001,47.13648246875001,50.0,72.0
181,46.96981584375001,47.17096521875001,55.0,82.0
182,46.96981584375001,47.21550543750001,59.0,83.0
183,46.28016084375001,47.21981578125001,43.0,84.0
184,46.96981584375001,47.27728703125001,62.0,84.0
185,47.659470843750015,48.12642475000001,62.0,84.0
186,47.659470843750015,48.14941325000001,57.0,81.0
187,47.659470843750015,48.53734418750001,50.0,84.0
188,48.34912584375001,48.60343612500001,66.0,84.0
189,48.34912584375001,48.616367156250014,62.0,83.0
190,48.34912584375001,48.62642462500001,57.0,80.0
191,48.866367093750014,49.119240593750014,62.0,83.0
192,48.866367093750014,49.172401500000014,57.0,79.0
193,49.38360834375001,49.55602209375001,57.0,79.0
194,49.72843584375001,49.95688406250001,57.0,88.0
195,49.72843584375001,50.00860818750001,61.0,89.0
196,49.03878084375001,50.19538975000001,45.0,83.0
197,50.073263343750014,50.34481500000001,52.0,83.0
198,50.418090843750015,50.829010281250014,62.0,81.0
199,50.418090843750015,50.85918268750001,59.0,79.0
200,50.76291834375001,51.178148125000014,54.0,78.0
201,50.418090843750015,51.277286031250014,47.0,84.0
202,51.10774584375001,51.318952687500015,59.0,84.0
203,51.10774584375001,51.469814718750015,62.0,84.0
204,51.10774584375001,51.56176871875001,66.0,83.0
205,51.624987093750015,51.70832040625001,59.0,85.0
206,51.79740084375001,52.20257315625001,59.0,85.0
207,51.79740084375001,52.231308781250014,55.0,86.0
208,52.487055843750014,52.61923971875001,55.0,84.0
209,52.14222834375001,52.633607531250014,50.0,75.0
210,51.79740084375001,52.685331656250014,43.0,84.0
211,52.487055843750014,52.69251556250001,62.0,83.0
212,53.176710843750016,53.45113606250001,57.0,78.0
213,53.176710843750016,53.65803256250001,62.0,83.0
214,53.176710843750016,54.04883706250001,50.0,85.0
215,53.86636584375001,54.089066937500014,57.0,83.0
216,53.86636584375001,54.132170375000015,62.0,84.0
217,53.86636584375001,54.395101343750014,66.0,84.0
218,54.383607093750015,54.47125075000001,57.0,83.0
219,54.55602084375001,54.95688281250001,57.0,83.0
220,54.55602084375001,54.96406671875001,61.0,84.0
221,54.90084834375001,55.36636546875001,52.0,79.0
222,54.55602084375001,55.392227531250015,45.0,84.0
223,55.245675843750014,55.442514875000015,57.0,82.0
224,55.245675843750014,55.497112562500014,61.0,85.0
225,55.41808959375001,55.67239987500001,45.0,84.0
226,55.245675843750014,55.75573318750001,64.0,87.0
227,55.935330843750016,56.42814681250001,62.0,84.0
228,55.935330843750016,56.46119278125001,59.0,80.0
229,56.28015834375001,56.691077781250016,54.0,71.0
230,55.935330843750016,56.73130765625001,47.0,84.0
231,56.62498584375001,56.76866396875001,62.0,84.0
232,56.62498584375001,56.793089250000016,66.0,83.0
233,56.62498584375001,56.81176740625001,59.0,84.0
234,57.142227093750016,57.31033050000001,62.0,74.0
235,57.142227093750016,57.36923853125001,59.0,74.0
236,57.659468343750014,58.17096246875001,50.0,72.0
237,58.004295843750015,58.205445218750015,55.0,82.0
238,58.004295843750015,58.249985437500015,59.0,83.0
239,57.31464084375001,58.254295781250015,43.0,84.0
240,58.004295843750015,58.311767031250014,62.0,84.0
241,58.69395084375002,59.160904750000014,62.0,84.0
242,58.69395084375002,59.18389325000001,57.0,81.0
243,58.69395084375002,59.57182418750001,50.0,84.0
244,59.38360584375001,59.63791612500001,66.0,84.0
245,59.38360584375001,59.650847156250016,62.0,83.0
246,59.38360584375001,59.660904625000015,57.0,80.0
247,59.900847093750016,60.153720593750016,62.0,83.0
248,59.900847093750016,60.206881500000016,57.0,79.0
249,60.418088343750014,60.59050209375001,57.0,79.0
250,60.762915843750015,60.99136406250001,57.0,88.0
251,60.762915843750015,61.04308818750001,61.0,89.0
252,60.07326084375001,61.22986975000001,45.0,83.0
253,61.107743343750016,61.37929500000001,52.0,83.0
254,61.45257084375002,61.863490281250016,62.0,81.0
255,61.45257084375002,61.89366268750001,59.0,79.0
256,61.79739834375002,62.212628125000016,54.0,78.0
257,61.45257084375002,62.311766031250016,47.0,84.0
258,62.14222584375001,62.35343268750002,59.0,84.0
259,62.14222584375001,62.50429471875002,62.0,84.0
260,62.14222584375001,62.59624871875001,66.0,83.0
261,62.65946709375002,62.74280040625001,59.0,85.0
262,62.831880843750014,63.23705315625001,59.0,85.0
263,62.831880843750014,63.265788781250016,55.0,86.0
264,63.521535843750016,63.65371971875002,55.0,84.0
265,63.176708343750015,63.668087531250016,50.0,75.0
266,62.831880843750014,63.719811656250016,43.0,84.0
267,63.521535843750016,63.726995562500015,62.0,83.0
268,64.21119084375002,64.48561606250001,57.0,78.0
269,64.21119084375002,64.69251256250001,62.0,83.0
270,64.21119084375002,65.08331706250002,50.0,85.0
271,64.90084584375002,65.12354693750001,57.0,83.0
272,64.90084584375002,65.16665037500002,62.0,84.0
273,64.90084584375002,65.42958134375002,66.0,84.0
274,65.41808709375002,65.50573075000001,57.0,83.0
275,65.59050084375002,65.99136281250001,57.0,83.0
276,65.59050084375002,65.99854671875002,61.0,84.0
277,65.93532834375002,66.40084546875002,52.0,79.0
278,65.59050084375002,66.42670753125002,45.0,84.0
279,66.28015584375001,66.47699487500002,57.0,82.0
280,66.28015584375001,66.53159256250001,61.0,85.0
281,66.45256959375001,66.70687987500001,45.0,84.0
282,66.28015584375001,66.79021318750002,64.0,87.0
283,66.96981084375001,67.44825900000002,64.0,85.0
284,66.96981084375001,67.47555784375001,59.0,84.0
285,66.96981084375001,67.50429346875002,52.0,88.0
286,67.65946584375001,67.80745431250001,59.0,84.0
287,67.65946584375001,67.81032787500001,64.0,88.0
288,67.65946584375001,67.85199453125001,67.0,83.0
289,68.17670709375001,68.53015528125002,59.0,80.0
290,68.17670709375001,68.73992534375002,64.0,83.0
291,68.69394834375002,68.86061496875001,59.0,89.0
292,69.03877584375002,69.19394821875002,59.0,85.0
293,68.34912084375001,69.24998268750002,40.0,86.0
294,69.03877584375002,69.39078725000002,67.0,83.0
295,69.03877584375002,69.40802862500001,64.0,86.0
296,69.38360334375001,69.57325846875001,59.0,77.0
297,69.72843084375002,70.24710887500002,59.0,81.0
298,69.72843084375002,70.25285600000002,62.0,80.0
299,70.41808584375002,70.68963750000002,66.0,83.0
300,70.41808584375002,70.72555703125002,62.0,83.0
301,70.41808584375002,70.75429265625002,59.0,84.0
302,70.93532709375002,71.11205118750001,59.0,81.0
303,70.93532709375002,71.17814312500002,66.0,75.0
304,71.45256834375002,71.64509703125002,59.0,83.0
305,71.10774084375002,71.90228087500002,54.0,71.0
306,71.79739584375001,71.98274062500002,59.0,85.0
307,71.79739584375001,72.05026934375002,62.0,85.0
308,69.72843084375002,72.06032681250002,47.0,84.0
309,72.14222334375002,72.21693596875002,59.0,74.0
310,72.48705084375001,73.06751046875002,60.0,83.0
311,72.48705084375001,73.09049896875001,55.0,84.0
312,73.17670584375001,73.43820003125002,64.0,87.0
313,73.17670584375001,73.51003909375002,60.0,84.0
314,73.17670584375001,73.52871725000001,55.0,83.0
315,73.69394709375001,73.84337234375002,55.0,84.0
316,73.69394709375001,73.97124587500002,64.0,84.0
317,74.21118834375002,74.41521128125002,55.0,80.0
318,74.55601584375002,74.70975143750002,55.0,87.0
319,72.48705084375001,74.84768243750001,48.0,84.0
320,74.55601584375002,74.86636059375002,60.0,87.0
321,74.90084334375001,74.96118815625002,55.0,75.0
322,75.24567084375002,75.42383171875002,61.0,71.0
323,75.24567084375002,75.43388918750001,64.0,75.0
324,75.24567084375002,75.43963631250001,57.0,70.0
325,75.24567084375002,75.48705009375001,45.0,81.0
326,75.59049834375001,75.75716496875002,61.0,69.0
327,75.59049834375001,75.77296956250002,57.0,71.0
328,75.59049834375001,75.78015346875002,64.0,83.0
329,75.59049834375001,75.79021093750002,45.0,83.0
330,75.93532584375002,76.12354418750002,61.0,72.0
331,75.93532584375002,76.14365912500001,45.0,84.0
332,75.93532584375002,76.14365912500001,57.0,77.0
333,75.93532584375002,76.14365912500001,64.0,83.0
334,76.28015334375002,76.48992340625001,45.0,87.0
335,76.28015334375002,76.51003834375001,64.0,84.0
336,76.28015334375002,76.51291190625003,61.0,75.0
337,76.28015334375002,76.52440615625002,57.0,79.0
338,76.62498084375002,76.78302678125002,57.0,79.0
339,76.62498084375002,76.78446356250002,61.0,75.0
340,76.62498084375002,76.79164746875001,64.0,84.0
341,76.62498084375002,76.79739459375001,45.0,87.0
342,76.96980834375002,77.14509565625002,45.0,84.0
343,76.96980834375002,77.14653243750001,61.0,71.0
344,76.96980834375002,77.15371634375002,57.0,76.0
345,76.96980834375002,77.16808415625002,64.0,83.0
346,77.31463584375003,77.50860131250002,45.0,88.0
347,77.31463584375003,77.52584268750002,64.0,85.0
348,77.31463584375003,77.52871625000002,61.0,87.0
349,77.31463584375003,77.53590015625002,57.0,84.0
350,77.65946334375002,77.86204950000001,61.0,73.0
351,77.65946334375002,77.87498053125002,64.0,84.0
352,77.65946334375002,77.89509546875001,45.0,85.0
353,77.65946334375002,77.89796903125001,57.0,78.0
354,78.00429084375001,78.27440571875002,57.0,80.0
355,78.00429084375001,78.40802637500002,62.0,83.0
356,78.00429084375001,78.69107228125002,38.0,86.0
357,78.69394584375002,78.79883087500002,57.0,83.0
358,78.69394584375002,79.24566984375002,62.0,89.0
359,78.69394584375002,79.25716409375002,66.0,90.0
360,79.21118709375001,79.31463534375001,57.0,83.0
361,79.38360084375002,79.54452034375002,57.0,79.0
362,79.38360084375002,79.55601459375002,62.0,84.0
363,79.72842834375002,79.91520990625001,57.0,80.0
364,79.72842834375002,79.91664668750002,62.0,84.0
365,80.07325584375002,80.18388800000002,57.0,83.0
366,79.38360084375002,80.24566959375002,50.0,85.0
367,80.07325584375002,80.39078450000002,66.0,90.0
368,80.07325584375002,80.41233621875001,62.0,88.0
369,80.41808334375001,80.61348559375001,57.0,78.0
370,80.76291084375002,81.26578428125002,57.0,79.0
371,80.76291084375002,81.27871531250003,61.0,79.0
372,81.45256584375002,81.69107153125002,57.0,85.0
373,81.45256584375002,81.69969221875002,64.0,90.0
374,81.45256584375002,81.73992209375002,61.0,90.0
375,81.96980709375002,82.10055418750002,57.0,87.0
376,82.14222084375002,82.23848518750002,57.0,72.0
377,82.14222084375002,82.35486446875002,61.0,90.0
378,82.14222084375002,82.36204837500001,69.0,84.0
379,82.14222084375002,82.37354262500001,64.0,89.0
380,82.48704834375002,82.68532415625002,57.0,82.0
381,82.83187584375003,82.95974937500002,57.0,88.0
382,81.79739334375002,83.10055393750002,52.0,72.0
383,80.76291084375002,83.11779531250002,45.0,84.0
384,82.83187584375003,83.16377231250002,61.0,90.0
385,82.83187584375003,83.24423206250002,64.0,89.0
386,83.17670334375002,83.33474928125003,57.0,87.0
387,83.52153084375001,83.91951925000002,59.0,79.0
388,83.52153084375001,83.92526637500002,62.0,83.0
389,84.21118584375002,84.50285243750002,59.0,84.0
390,84.21118584375002,84.69538112500003,66.0,78.0
391,84.21118584375002,84.73704778125003,62.0,84.0
392,83.86635834375002,84.76290984375002,54.0,74.0
393,83.52153084375001,84.78446156250001,47.0,83.0
394,84.72842709375001,84.83905925000002,59.0,84.0
395,84.90084084375002,85.11492125000002,62.0,84.0
396,84.90084084375002,85.12066837500002,59.0,82.0
397,85.24566834375003,85.43388668750002,59.0,84.0
398,85.24566834375003,85.43532346875001,62.0,83.0
399,84.90084084375002,85.70400156250003,47.0,83.0
400,85.59049584375002,85.71693259375002,59.0,84.0
401,85.59049584375002,85.95400150000002,62.0,85.0
402,85.59049584375002,85.97842678125002,66.0,84.0
403,85.93532334375001,86.05601296875003,59.0,77.0
404,86.28015084375002,86.76865646875002,57.0,84.0
405,86.28015084375002,86.77009325000002,60.0,84.0
406,86.28015084375002,87.14940350000002,45.0,84.0
407,86.96980584375002,87.29739196875002,57.0,86.0
408,86.62497834375002,87.35917356250002,52.0,73.0
409,86.96980584375002,87.36492068750002,60.0,92.0
410,87.48704709375002,87.56032293750002,57.0,83.0
411,87.31463334375002,87.61204706250003,45.0,73.0
412,87.65946084375003,87.82325390625002,57.0,81.0
413,87.65946084375003,87.86779412500002,62.0,87.0
414,88.00428834375002,88.21262162500003,57.0,79.0
415,87.65946084375003,88.39365606250001,50.0,89.0
416,88.34911584375003,88.68244909375002,66.0,88.0
417,88.34911584375003,88.70256403125002,62.0,85.0
418,88.69394334375002,88.83474790625002,57.0,83.0
419,89.03877084375002,89.40515006250003,59.0,79.0
420,89.03877084375002,89.47124200000002,55.0,80.0
421,89.72842584375002,89.96118440625003,55.0,84.0
422,89.72842584375002,90.04451771875001,62.0,85.0
423,89.72842584375002,90.07900046875002,59.0,89.0
424,90.24566709375001,90.35055212500002,55.0,78.0
425,89.03877084375002,90.40658659375002,43.0,84.0
426,89.38359834375002,90.41233371875002,50.0,70.0
427,90.41808084375002,90.61635665625002,59.0,80.0
428,90.41808084375002,90.62066700000003,55.0,83.0
429,90.76290834375003,90.99423012500002,59.0,84.0
430,90.76290834375003,90.99854046875002,55.0,85.0
431,91.10773584375002,91.24710362500002,55.0,85.0
432,90.41808084375002,91.27296568750002,43.0,78.0
433,91.10773584375002,91.45543690625003,59.0,85.0
434,91.45256334375001,91.54164378125002,55.0,78.0
435,91.10773584375002,91.54595412500002,62.0,84.0
436,91.79739084375002,92.27727578125003,61.0,79.0
437,91.79739084375002,92.29308037500002,57.0,78.0
438,92.14221834375002,92.57037915625003,49.0,68.0
439,91.79739084375002,92.58043662500002,42.0,83.0
440,92.48704584375002,92.67813775000002,57.0,87.0
441,92.48704584375002,93.03876984375002,61.0,92.0
442,93.00428709375002,93.09911465625002,57.0,83.0
443,92.48704584375002,93.11060890625002,66.0,84.0
444,93.17670084375003,93.36922953125003,59.0,83.0
445,93.17670084375003,93.39652837500002,62.0,83.0
446,93.52152834375002,93.73991909375002,59.0,83.0
447,93.52152834375002,93.74997656250002,62.0,83.0
448,93.86635584375003,94.06032131250002,59.0,84.0
449,93.86635584375003,94.12210290625002,54.0,78.0
450,93.17670084375003,94.20399943750002,47.0,84.0
451,93.86635584375003,94.27727528125003,62.0,85.0
452,93.86635584375003,94.30744768750002,66.0,85.0
453,94.21118334375002,94.35629825000002,59.0,76.0
454,94.55601084375002,94.74422918750003,59.0,82.0
455,94.55601084375002,95.07468887500002,64.0,84.0
456,94.90083834375002,95.13934403125002,59.0,81.0
457,95.24566584375002,95.47267728125003,59.0,85.0
458,94.55601084375002,95.76147031250002,52.0,89.0
459,95.24566584375002,95.77871168750002,67.0,87.0
460,95.24566584375002,95.78302203125003,64.0,94.0
461,95.76290709375002,95.87784959375003,59.0,78.0
462,95.93532084375002,96.12066562500003,59.0,84.0
463,95.93532084375002,96.12497596875002,64.0,87.0
464,95.93532084375002,96.46980346875003,40.0,86.0
465,96.28014834375003,96.46980346875003,59.0,84.0
466,96.28014834375003,96.47698737500002,64.0,87.0
467,96.62497584375002,96.73848156250003,59.0,84.0
468,96.62497584375002,96.83330912500003,64.0,87.0
469,96.62497584375002,96.94250450000003,67.0,84.0
470,96.96980334375003,97.08474584375003,59.0,83.0
471,97.31463084375002,97.46980321875002,64.0,80.0
472,97.31463084375002,97.47124000000002,57.0,79.0
473,97.31463084375002,97.47411356250002,61.0,73.0
474,97.31463084375002,97.48417103125003,45.0,83.0
475,97.65945834375002,97.78733187500002,57.0,76.0
476,97.65945834375002,97.78733187500002,64.0,83.0
477,97.65945834375002,97.78876865625003,61.0,75.0
478,97.65945834375002,97.80601003125003,45.0,78.0
479,98.00428584375003,98.10198696875003,64.0,80.0
480,98.00428584375003,98.10486053125003,57.0,73.0
481,98.00428584375003,98.11635478125002,61.0,74.0
482,98.00428584375003,98.13646971875002,45.0,80.0
483,98.34911334375002,98.46980296875002,57.0,75.0
484,98.34911334375002,98.47555009375003,61.0,75.0
485,98.34911334375002,98.47842365625003,64.0,83.0
486,98.34911334375002,98.51865353125002,45.0,79.0
487,98.69394084375003,98.82468793750003,64.0,84.0
488,98.69394084375003,98.82756150000003,57.0,78.0
489,98.69394084375003,98.83330862500003,61.0,79.0
490,98.69394084375003,98.85629712500003,45.0,84.0
491,99.03876834375002,99.14940050000003,57.0,82.0
492,99.03876834375002,99.15227406250003,64.0,85.0
493,99.03876834375002,99.15514762500003,61.0,83.0
494,99.03876834375002,99.20256140625003,45.0,83.0
495,99.38359584375003,99.51290615625003,57.0,83.0
496,99.38359584375003,99.52440040625002,64.0,85.0
497,99.38359584375003,99.52583718750003,61.0,85.0
498,99.38359584375003,99.54738890625002,45.0,84.0
499,99.72842334375002,99.86922790625002,57.0,78.0
500,99.72842334375002,99.87497503125002,64.0,84.0
501,99.72842334375002,99.88215893750002,61.0,81.0
502,99.72842334375002,99.92526237500002,45.0,83.0
503,100.07325084375002,100.34336571875002,57.0,80.0
504,100.07325084375002,100.47698637500002,62.0,83.0
505,100.07325084375002,100.76003228125002,38.0,86.0
506,100.76290584375002,100.86779087500003,57.0,83.0
507,100.76290584375002,101.31462984375003,62.0,89.0
508,100.76290584375002,101.32612409375002,66.0,90.0
509,101.28014709375002,101.38359534375003,57.0,83.0
510,101.45256084375002,101.61348034375003,57.0,79.0
511,101.45256084375002,101.62497459375003,62.0,84.0
512,101.79738834375003,101.98416990625003,57.0,80.0
513,101.79738834375003,101.98560668750002,62.0,84.0
514,102.14221584375002,102.25284800000003,57.0,83.0
515,101.45256084375002,102.31462959375003,50.0,85.0
516,102.14221584375002,102.45974450000003,66.0,90.0
517,102.14221584375002,102.48129621875002,62.0,88.0
518,102.48704334375003,102.68244559375002,57.0,78.0
519,102.83187084375002,103.33474428125002,57.0,79.0
520,102.83187084375002,103.34767531250003,61.0,79.0
521,103.52152584375003,103.76003153125002,57.0,85.0
522,103.52152584375003,103.76865221875002,64.0,90.0
523,103.52152584375003,103.80888209375003,61.0,90.0
524,104.03876709375002,104.16951418750003,57.0,87.0
525,104.21118084375003,104.30744518750002,57.0,72.0
526,104.21118084375003,104.42382446875003,61.0,90.0
527,104.21118084375003,104.43100837500002,69.0,84.0
528,104.21118084375003,104.44250262500003,64.0,89.0
529,104.55600834375002,104.75428415625002,57.0,82.0
530,104.90083584375003,105.02870937500002,57.0,88.0
531,103.86635334375002,105.16951393750003,52.0,72.0
532,102.83187084375002,105.18675531250003,45.0,84.0
533,104.90083584375003,105.23273231250002,61.0,90.0
534,104.90083584375003,105.31319206250002,64.0,89.0
535,105.24566334375002,105.40370928125003,57.0,87.0
536,105.59049084375002,105.98847925000003,59.0,79.0
537,105.59049084375002,105.99422637500003,62.0,83.0
538,106.28014584375002,106.57181243750003,59.0,84.0
539,106.28014584375002,106.76434112500003,66.0,78.0
540,106.28014584375002,106.80600778125003,62.0,84.0
541,105.93531834375003,106.83186984375003,54.0,74.0
542,105.59049084375002,106.85342156250003,47.0,83.0
543,106.79738709375003,106.90801925000002,59.0,84.0
544,106.96980084375002,107.18388125000003,62.0,84.0
545,106.96980084375002,107.18962837500003,59.0,82.0
546,107.31462834375003,107.50284668750002,59.0,84.0
547,107.31462834375003,107.50428346875003,62.0,83.0
548,106.96980084375002,107.77296156250003,47.0,83.0
549,107.65945584375002,107.78589259375002,59.0,84.0
550,107.65945584375002,108.02296150000002,62.0,85.0
551,107.65945584375002,108.04738678125003,66.0,84.0
552,108.00428334375003,108.12497296875003,59.0,77.0
553,108.34911084375003,108.83761646875003,57.0,84.0
554,108.34911084375003,108.83905325000002,60.0,84.0
555,108.34911084375003,109.21836350000002,45.0,84.0
556,109.03876584375003,109.36635196875002,57.0,86.0
557,108.69393834375002,109.42813356250002,52.0,73.0
558,109.03876584375003,109.43388068750002,60.0,92.0
559,109.55600709375003,109.62928293750002,57.0,83.0
560,109.38359334375002,109.68100706250003,45.0,73.0
561,109.72842084375003,109.89221390625002,57.0,81.0
562,109.72842084375003,109.93675412500002,62.0,87.0
563,110.07324834375002,110.28158162500003,57.0,79.0
564,109.72842084375003,110.46261606250003,50.0,89.0
565,110.41807584375003,110.75140909375003,66.0,88.0
566,110.41807584375003,110.77152403125002,62.0,85.0
567,110.76290334375003,110.90370790625002,57.0,83.0
568,111.10773084375002,111.47411006250003,59.0,79.0
569,111.10773084375002,111.54020200000002,55.0,80.0
570,111.79738584375002,112.03014440625003,55.0,84.0
571,111.79738584375002,112.11347771875003,62.0,85.0
572,111.79738584375002,112.14796046875003,59.0,89.0
573,112.31462709375003,112.41951212500003,55.0,78.0
574,111.10773084375002,112.47554659375002,43.0,84.0
575,111.45255834375003,112.48129371875002,50.0,70.0
576,112.48704084375002,112.68531665625002,59.0,80.0
577,112.48704084375002,112.68962700000003,55.0,83.0
578,112.83186834375003,113.06319012500002,59.0,84.0
579,112.83186834375003,113.06750046875003,55.0,85.0
580,113.17669584375003,113.31606362500003,55.0,85.0
581,112.48704084375002,113.34192568750002,43.0,78.0
582,113.17669584375003,113.52439690625003,59.0,85.0
583,113.52152334375003,113.61060378125002,55.0,78.0
584,113.17669584375003,113.61491412500003,62.0,84.0
585,113.86635084375003,114.34623578125003,61.0,79.0
586,113.86635084375003,114.36204037500002,57.0,78.0
587,114.21117834375002,114.63933915625003,49.0,68.0
588,113.86635084375003,114.64939662500002,42.0,83.0
589,114.55600584375003,114.74709775000002,57.0,87.0
590,114.55600584375003,115.10772984375002,61.0,92.0
591,115.07324709375003,115.16807465625003,57.0,83.0
592,114.55600584375003,115.17956890625003,66.0,84.0
593,115.24566084375003,115.43818953125003,59.0,83.0
594,115.24566084375003,115.46548837500002,62.0,83.0
595,115.59048834375002,115.80887909375002,59.0,83.0
596,115.59048834375002,115.81893656250003,62.0,83.0
597,115.93531584375003,116.12928131250003,59.0,84.0
598,115.93531584375003,116.19106290625002,54.0,78.0
599,115.24566084375003,116.27295943750003,47.0,84.0
600,115.93531584375003,116.34623528125003,62.0,85.0
601,115.93531584375003,116.37640768750003,66.0,85.0
602,116.28014334375003,116.42525825000003,59.0,76.0
603,116.62497084375003,116.81318918750003,59.0,82.0
604,116.62497084375003,117.14364887500003,64.0,84.0
605,116.96979834375003,117.20830403125002,59.0,81.0
606,117.31462584375002,117.54163728125003,59.0,85.0
607,116.62497084375003,117.83043031250003,52.0,89.0
608,117.31462584375002,117.84767168750002,67.0,87.0
609,117.31462584375002,117.85198203125003,64.0,94.0
610,117.83186709375003,117.94680959375003,59.0,78.0
611,118.00428084375002,118.18962562500003,59.0,84.0
612,118.00428084375002,118.19393596875003,64.0,87.0
613,118.00428084375002,118.53876346875003,40.0,86.0
614,118.34910834375003,118.53876346875003,59.0,84.0
615,118.34910834375003,118.54594737500003,64.0,87.0
616,118.69393584375003,118.80744156250003,59.0,84.0
617,118.69393584375003,118.90226912500003,64.0,87.0
618,118.69393584375003,119.01146450000003,67.0,84.0
619,119.03876334375003,119.15370584375003,59.0,83.0
620,119.38359084375003,119.53876321875003,64.0,80.0
621,119.38359084375003,119.54020000000003,57.0,79.0
622,119.38359084375003,119.54307356250003,61.0,73.0
623,119.38359084375003,119.55313103125003,45.0,83.0
624,119.72841834375002,119.85629187500003,57.0,76.0
625,119.72841834375002,119.85629187500003,64.0,83.0
626,119.72841834375002,119.85772865625003,61.0,75.0
627,119.72841834375002,119.87497003125003,45.0,78.0
628,120.07324584375003,120.17094696875003,64.0,80.0
629,120.07324584375003,120.17382053125003,57.0,73.0
630,120.07324584375003,120.18531478125003,61.0,74.0
631,120.07324584375003,120.20542971875003,45.0,80.0
632,120.41807334375002,120.53876296875004,57.0,75.0
633,120.41807334375002,120.54451009375003,61.0,75.0
634,120.41807334375002,120.54738365625003,64.0,83.0
635,120.41807334375002,120.58761353125003,45.0,79.0
636,120.76290084375003,120.89364793750003,64.0,84.0
637,120.76290084375003,120.89652150000003,57.0,78.0
638,120.76290084375003,120.90226862500003,61.0,79.0
639,120.76290084375003,120.92525712500003,45.0,84.0
640,121.10772834375003,121.21836050000003,57.0,82.0
641,121.10772834375003,121.22123406250003,64.0,85.0
642,121.10772834375003,121.22410762500003,61.0,83.0
643,121.10772834375003,121.27152140625003,45.0,83.0
644,121.45255584375003,121.58186615625003,57.0,83.0
645,121.45255584375003,121.59336040625003,64.0,85.0
646,121.45255584375003,121.59479718750003,61.0,85.0
647,121.45255584375003,121.61634890625002,45.0,84.0
648,121.79738334375003,121.93818790625004,57.0,78.0
649,121.79738334375003,121.94393503125004,64.0,84.0
650,121.79738334375003,121.95111893750003,61.0,81.0
651,121.79738334375003,121.99422237500004,45.0,83.0
652,122.14221084375004,122.60198084375003,55.0,80.0
653,122.14221084375004,122.74134862500003,59.0,79.0
654,122.83186584375002,123.09910715625003,55.0,85.0
655,123.17669334375003,123.64077368750003,55.0,76.0
656,123.17669334375003,123.80456675000003,62.0,83.0
657,123.86634834375003,124.08617587500002,55.0,75.0
658,122.48703834375003,124.31749765625003,50.0,73.0
659,122.14221084375004,124.34335971875002,43.0,84.0
660,124.21117584375003,124.36634821875003,59.0,86.0
661,124.21117584375003,124.37927925000002,55.0,84.0
662,124.21117584375003,124.38358959375003,62.0,83.0
663,124.90083084375003,125.35054337500003,57.0,75.0
664,124.90083084375003,125.56318700000003,61.0,77.0
665,125.59048584375003,125.70973868750004,57.0,79.0
666,125.93531334375002,126.10054318750004,57.0,84.0
667,125.93531334375002,126.12209490625003,66.0,81.0
668,126.28014084375003,126.50427871875003,61.0,81.0
669,125.24565834375002,126.69393384375003,49.0,71.0
670,124.90083084375003,126.71261200000004,42.0,81.0
671,126.62496834375003,126.78588784375003,57.0,78.0
672,126.96979584375003,127.12353143750003,61.0,74.0
673,126.96979584375003,127.13502568750003,57.0,83.0
674,127.65945084375004,128.38933571875003,59.0,79.0
675,127.65945084375004,128.44824375000002,55.0,79.0
676,128.34910584375004,128.73416321875004,62.0,80.0
677,128.69393334375002,129.00715165625002,67.0,83.0
678,129.03876084375003,129.46261131250003,55.0,78.0
679,129.38358834375003,129.55456531250002,59.0,77.0
680,129.72841584375004,129.87209396875002,59.0,83.0
681,129.72841584375004,129.87353075000004,55.0,79.0
682,128.00427834375003,129.89651925000004,50.0,77.0
683,127.65945084375004,129.90945028125003,43.0,84.0
684,129.72841584375004,129.91519740625003,62.0,83.0
685,130.41807084375003,130.88215118750003,57.0,79.0
686,130.41807084375003,131.19680628125002,61.0,77.0
687,131.10772584375002,131.59479468750004,57.0,83.0
688,131.45255334375003,131.62927743750004,61.0,72.0
689,131.79738084375003,132.30743818750003,57.0,78.0
690,131.79738084375003,132.34335771875004,61.0,83.0
691,131.79738084375003,132.35197840625003,66.0,78.0
692,130.41807084375003,132.41088643750004,42.0,85.0
693,130.76289834375004,132.41807034375003,49.0,64.0
694,132.48703584375002,132.60197834375003,61.0,80.0
695,132.48703584375002,132.60628868750004,57.0,84.0
696,133.17669084375004,133.33761034375004,55.0,82.0
697,133.17669084375004,133.52439190625003,59.0,83.0
698,133.52151834375005,133.62065625000002,55.0,79.0
699,133.86634584375003,134.08904693750003,62.0,84.0
700,133.86634584375003,134.09192050000004,55.0,90.0
701,134.21117334375003,134.47410431250003,50.0,55.0
702,133.17669084375004,134.48272500000004,43.0,85.0
703,134.38358709375004,134.59048359375004,59.0,87.0
704,134.38358709375004,134.60341462500003,55.0,83.0
705,134.90082834375002,135.06893175000002,55.0,83.0
706,135.24565584375003,135.43962131250004,55.0,89.0
707,135.24565584375003,135.45829946875003,59.0,89.0
708,134.55600084375004,135.65513850000002,43.0,83.0
709,135.59048334375004,135.72697756250002,50.0,76.0
710,135.93531084375005,136.36634521875004,61.0,76.0
711,135.93531084375005,136.38933371875004,57.0,79.0
712,136.62496584375003,136.82036809375003,57.0,83.0
713,136.28013834375002,136.82180487500003,49.0,52.0
714,135.93531084375005,136.89795428125004,42.0,82.0
715,136.62496584375003,136.94536806250002,61.0,89.0
716,137.14220709375005,137.22697718750004,57.0,83.0
717,136.62496584375003,137.26145993750004,66.0,82.0
718,137.31462084375002,137.49134493750003,59.0,85.0
719,137.31462084375002,137.49996562500004,62.0,85.0
720,137.65944834375003,137.81031037500003,59.0,83.0
721,137.65944834375003,137.81605750000003,62.0,80.0
722,138.00427584375004,138.19105740625002,59.0,85.0
723,137.31462084375002,138.22122981250004,47.0,84.0
724,138.00427584375004,138.34479300000004,62.0,87.0
725,138.00427584375004,138.35628725000004,66.0,92.0
726,138.34910334375004,138.44680446875003,59.0,84.0
727,138.69393084375002,139.15370084375004,59.0,83.0
728,138.69393084375002,139.24134450000003,55.0,84.0
729,139.38358584375004,139.57611453125003,62.0,83.0
730,139.38358584375004,139.63933290625005,55.0,85.0
731,139.03875834375003,139.96117190625003,50.0,73.0
732,138.69393084375002,139.99996500000003,43.0,83.0
733,139.90082709375002,140.03588453125002,55.0,72.0
734,140.07324084375003,140.29881550000005,55.0,83.0
735,140.07324084375003,140.29881550000005,59.0,83.0
736,140.41806834375004,140.84910271875003,55.0,82.0
737,140.41806834375004,140.85628662500002,62.0,86.0
738,140.07324084375003,141.07611415625004,43.0,83.0
739,140.76289584375004,141.12209115625004,50.0,80.0
740,141.10772334375002,141.18818309375004,59.0,75.0
741,141.10772334375002,141.19536700000003,55.0,74.0
742,141.45255084375003,141.61778068750004,58.0,73.0
743,141.45255084375003,141.62352781250004,61.0,77.0
744,141.45255084375003,141.64938987500003,54.0,79.0
745,141.45255084375003,141.66806803125004,42.0,85.0
746,141.79737834375004,141.94249325000004,58.0,66.0
747,141.79737834375004,141.97122887500004,42.0,73.0
748,141.79737834375004,141.98990703125003,54.0,73.0
749,141.79737834375004,141.99278059375004,61.0,73.0
750,142.14220584375002,142.27438971875003,58.0,61.0
751,142.14220584375002,142.31605637500004,42.0,74.0
752,142.14220584375002,142.31605637500004,61.0,72.0
753,142.14220584375002,142.32898740625004,54.0,78.0
754,142.48703334375003,142.67525168750004,58.0,59.0
755,142.48703334375003,142.67668846875003,42.0,79.0
756,142.48703334375003,142.68674593750004,61.0,67.0
757,142.48703334375003,142.71260800000005,54.0,72.0
758,142.83186084375004,144.11203293750003,54.0,74.0
759,142.83186084375004,144.12496396875002,58.0,77.0
760,142.83186084375004,144.13071109375002,61.0,77.0
761,142.83186084375004,144.15082603125003,42.0,84.0
762,144.21117084375004,144.70398681250003,62.0,84.0
763,144.21117084375004,144.73703278125004,59.0,80.0
764,144.55599834375005,144.96691778125003,54.0,71.0
765,144.21117084375004,145.00714765625003,47.0,84.0
766,144.90082584375003,145.04450396875004,62.0,84.0
767,144.90082584375003,145.06892925000002,66.0,83.0
768,144.90082584375003,145.08760740625004,59.0,84.0
769,145.41806709375004,145.58617050000004,62.0,74.0
770,145.41806709375004,145.64507853125002,59.0,74.0
771,145.93530834375002,146.44680246875004,50.0,72.0
772,146.28013584375003,146.48128521875003,55.0,82.0
773,146.28013584375003,146.52582543750003,59.0,83.0
774,145.59048084375004,146.53013578125004,43.0,84.0
775,146.28013584375003,146.58760703125003,62.0,84.0
776,146.96979084375005,147.43674475000003,62.0,84.0
777,146.96979084375005,147.45973325000003,57.0,81.0
778,146.96979084375005,147.84766418750004,50.0,84.0
779,147.65944584375004,147.91375612500005,66.0,84.0
780,147.65944584375004,147.92668715625004,62.0,83.0
781,147.65944584375004,147.93674462500005,57.0,80.0
782,148.17668709375005,148.42956059375004,62.0,83.0
783,148.17668709375005,148.48272150000003,57.0,79.0
784,148.69392834375003,148.86634209375003,57.0,79.0
785,149.03875584375004,149.26720406250004,57.0,88.0
786,149.03875584375004,149.31892818750003,61.0,89.0
787,148.34910084375002,149.50570975000002,45.0,83.0
788,149.38358334375005,149.65513500000003,52.0,83.0
789,149.72841084375003,150.13933028125004,62.0,81.0
790,149.72841084375003,150.16950268750003,59.0,79.0
791,150.07323834375003,150.48846812500003,54.0,78.0
792,149.72841084375003,150.58760603125003,47.0,84.0
793,150.41806584375004,150.62927268750005,59.0,84.0
794,150.41806584375004,150.78013471875005,62.0,84.0
795,150.41806584375004,150.87208871875004,66.0,83.0
796,150.93530709375003,151.01864040625003,59.0,85.0
797,151.10772084375003,151.51289315625004,59.0,85.0
798,151.10772084375003,151.54162878125004,55.0,86.0
799,151.79737584375005,151.92955971875003,55.0,84.0
800,151.45254834375004,151.94392753125004,50.0,75.0
801,151.10772084375003,151.99565165625003,43.0,84.0
802,151.79737584375005,152.00283556250002,62.0,83.0
803,152.48703084375003,152.76145606250003,57.0,78.0
804,152.48703084375003,152.96835256250003,62.0,83.0
805,152.48703084375003,153.35915706250003,50.0,85.0
806,153.17668584375005,153.39938693750003,57.0,83.0
807,153.17668584375005,153.44249037500003,62.0,84.0
808,153.17668584375005,153.70542134375003,66.0,84.0
809,153.69392709375003,153.78157075000004,57.0,83.0
810,153.86634084375004,154.26720281250005,57.0,83.0
811,153.86634084375004,154.27438671875004,61.0,84.0
812,154.21116834375005,154.67668546875004,52.0,79.0
813,153.86634084375004,154.70254753125005,45.0,84.0
814,154.55599584375003,154.75283487500005,57.0,82.0
815,154.55599584375003,154.80743256250003,61.0,85.0
816,154.72840959375003,154.98271987500004,45.0,84.0
817,154.55599584375003,155.06605318750005,64.0,87.0
818,155.24565084375004,155.72409900000002,64.0,85.0
819,155.24565084375004,155.75139784375003,59.0,84.0
820,155.24565084375004,155.78013346875002,52.0,88.0
821,155.93530584375003,156.08329431250004,59.0,84.0
822,155.93530584375003,156.08616787500003,64.0,88.0
823,155.93530584375003,156.12783453125004,67.0,83.0
824,156.45254709375004,156.80599528125003,59.0,80.0
825,156.45254709375004,157.01576534375005,64.0,83.0
826,156.96978834375003,157.13645496875003,59.0,89.0
827,157.31461584375003,157.46978821875004,59.0,85.0
828,156.62496084375005,157.52582268750004,40.0,86.0
829,157.31461584375003,157.66662725000003,67.0,83.0
830,157.31461584375003,157.68386862500003,64.0,86.0
831,157.65944334375004,157.84909846875004,59.0,77.0
832,158.00427084375005,158.52294887500003,59.0,81.0
833,158.00427084375005,158.52869600000002,62.0,80.0
834,158.69392584375004,158.96547750000005,66.0,83.0
835,158.69392584375004,159.00139703125004,62.0,83.0
836,158.69392584375004,159.03013265625003,59.0,84.0
837,159.21116709375005,159.38789118750003,59.0,81.0
838,159.21116709375005,159.45398312500004,66.0,75.0
839,159.72840834375003,159.92093703125005,59.0,83.0
840,159.38358084375002,160.17812087500005,54.0,71.0
841,160.07323584375004,160.25858062500004,59.0,85.0
842,160.07323584375004,160.32610934375003,62.0,85.0
843,158.00427084375005,160.33616681250004,47.0,84.0
844,160.41806334375005,160.49277596875004,59.0,74.0
845,160.76289084375003,161.34335046875003,60.0,83.0
846,160.76289084375003,161.36633896875003,55.0,84.0
847,161.45254584375004,161.71404003125005,64.0,87.0
848,161.45254584375004,161.78587909375003,60.0,84.0
849,161.45254584375004,161.80455725000004,55.0,83.0
850,161.96978709375003,162.11921234375004,55.0,84.0
851,161.96978709375003,162.24708587500004,64.0,84.0
852,162.48702834375004,162.69105128125003,55.0,80.0
853,162.83185584375005,162.98559143750003,55.0,87.0
854,160.76289084375003,163.12352243750004,48.0,84.0
855,162.83185584375005,163.14220059375003,60.0,87.0
856,163.17668334375003,163.23702815625003,55.0,75.0
857,163.52151084375004,163.69967171875004,61.0,71.0
858,163.52151084375004,163.70972918750005,64.0,75.0
859,163.52151084375004,163.71547631250004,57.0,70.0
860,163.52151084375004,163.76289009375003,45.0,81.0
861,163.86633834375004,164.03300496875005,61.0,69.0
862,163.86633834375004,164.04880956250003,57.0,71.0
863,163.86633834375004,164.05599346875005,64.0,83.0
864,163.86633834375004,164.06605093750005,45.0,83.0
865,164.21116584375005,164.39938418750003,61.0,72.0
866,164.21116584375005,164.41949912500004,45.0,84.0
867,164.21116584375005,164.41949912500004,57.0,77.0
868,164.21116584375005,164.41949912500004,64.0,83.0
869,164.55599334375003,164.76576340625004,45.0,87.0
870,164.55599334375003,164.78587834375003,64.0,84.0
871,164.55599334375003,164.78875190625004,61.0,75.0
872,164.55599334375003,164.80024615625004,57.0,79.0
873,164.90082084375004,165.05886678125003,57.0,79.0
874,164.90082084375004,165.06030356250005,61.0,75.0
875,164.90082084375004,165.06748746875004,64.0,84.0
876,164.90082084375004,165.07323459375004,45.0,87.0
877,165.24564834375005,165.42093565625004,45.0,84.0
878,165.24564834375005,165.42237243750003,61.0,71.0
879,165.24564834375005,165.42955634375005,57.0,76.0
880,165.24564834375005,165.44392415625003,64.0,83.0
881,165.59047584375003,165.78444131250004,45.0,88.0
882,165.59047584375003,165.80168268750003,64.0,85.0
883,165.59047584375003,165.80455625000005,61.0,87.0
884,165.59047584375003,165.81174015625004,57.0,84.0
885,165.93530334375004,166.13788950000003,61.0,73.0
886,165.93530334375004,166.15082053125005,64.0,84.0
887,165.93530334375004,166.17093546875003,45.0,85.0
888,165.93530334375004,166.17380903125004,57.0,78.0
889,166.28013084375004,166.55024571875003,57.0,80.0
890,166.28013084375004,166.68386637500004,62.0,83.0
891,166.28013084375004,166.96691228125005,38.0,86.0
892,166.96978584375003,167.07467087500004,57.0,83.0
893,166.96978584375003,167.52150984375004,62.0,89.0
894,166.96978584375003,167.53300409375004,66.0,90.0
895,167.48702709375004,167.59047534375003,57.0,83.0
896,167.65944084375005,167.82036034375005,57.0,79.0
897,167.65944084375005,167.83185459375005,62.0,84.0
898,168.00426834375003,168.19104990625004,57.0,80.0
899,168.00426834375003,168.19248668750004,62.0,84.0
900,168.34909584375004,168.45972800000004,57.0,83.0
901,167.65944084375005,168.52150959375004,50.0,85.0
902,168.34909584375004,168.66662450000004,66.0,90.0
903,168.34909584375004,168.68817621875004,62.0,88.0
904,168.69392334375004,168.88932559375004,57.0,78.0
905,169.03875084375005,169.54162428125005,57.0,79.0
906,169.03875084375005,169.55455531250004,61.0,79.0
907,169.72840584375004,169.96691153125005,57.0,85.0
908,169.72840584375004,169.97553221875003,64.0,90.0
909,169.72840584375004,170.01576209375003,61.0,90.0
910,170.24564709375005,170.37639418750004,57.0,87.0
911,170.41806084375003,170.51432518750005,57.0,72.0
912,170.41806084375003,170.63070446875005,61.0,90.0
913,170.41806084375003,170.63788837500005,69.0,84.0
914,170.41806084375003,170.64938262500004,64.0,89.0
915,170.76288834375003,170.96116415625005,57.0,82.0
916,171.10771584375004,171.23558937500005,57.0,88.0
917,170.07323334375005,171.37639393750004,52.0,72.0
918,169.03875084375005,171.39363531250004,45.0,84.0
919,171.10771584375004,171.43961231250003,61.0,90.0
920,171.10771584375004,171.52007206250005,64.0,89.0
921,171.45254334375005,171.61058928125004,57.0,87.0
922,171.79737084375003,172.19535925000005,59.0,79.0
923,171.79737084375003,172.20110637500005,62.0,83.0
924,172.48702584375005,172.77869243750004,59.0,84.0
925,172.48702584375005,172.97122112500003,66.0,78.0
926,172.48702584375005,173.01288778125004,62.0,84.0
927,172.14219834375004,173.03874984375005,54.0,74.0
928,171.79737084375003,173.06030156250003,47.0,83.0
929,173.00426709375003,173.11489925000004,59.0,84.0
930,173.17668084375003,173.39076125000005,62.0,84.0
931,173.17668084375003,173.39650837500005,59.0,82.0
932,173.52150834375004,173.70972668750005,59.0,84.0
933,173.52150834375004,173.71116346875004,62.0,83.0
934,173.17668084375003,173.97984156250004,47.0,83.0
935,173.86633584375005,173.99277259375003,59.0,84.0
936,173.86633584375005,174.22984150000005,62.0,85.0
937,173.86633584375005,174.25426678125004,66.0,84.0
938,174.21116334375003,174.33185296875004,59.0,77.0
939,174.55599084375004,175.04449646875005,57.0,84.0
940,174.55599084375004,175.04593325000005,60.0,84.0
941,174.55599084375004,175.42524350000005,45.0,84.0
942,175.24564584375005,175.57323196875004,57.0,86.0
943,174.90081834375005,175.63501356250003,52.0,73.0
944,175.24564584375005,175.64076068750003,60.0,92.0
945,175.76288709375004,175.83616293750003,57.0,83.0
946,175.59047334375003,175.88788706250006,45.0,73.0
947,175.93530084375004,176.09909390625003,57.0,81.0
948,175.93530084375004,176.14363412500003,62.0,87.0
949,176.28012834375005,176.48846162500004,57.0,79.0
950,175.93530084375004,176.66949606250003,50.0,89.0
951,176.62495584375003,176.95828909375004,66.0,88.0
952,176.62495584375003,176.97840403125005,62.0,85.0
953,176.96978334375004,177.11058790625003,57.0,83.0
954,177.31461084375005,177.68099006250003,59.0,79.0
955,177.31461084375005,177.74708200000003,55.0,80.0
956,178.00426584375003,178.23702440625004,55.0,84.0
957,178.00426584375003,178.32035771875005,62.0,85.0
958,178.00426584375003,178.35484046875004,59.0,89.0
959,178.52150709375005,178.62639212500005,55.0,78.0
960,177.31461084375005,178.68242659375005,43.0,84.0
961,177.65943834375005,178.68817371875005,50.0,70.0
962,178.69392084375005,178.89219665625004,59.0,80.0
963,178.69392084375005,178.89650700000004,55.0,83.0
964,179.03874834375003,179.27007012500005,59.0,84.0
965,179.03874834375003,179.27438046875005,55.0,85.0
966,179.38357584375004,179.52294362500004,55.0,85.0
967,178.69392084375005,179.54880568750005,43.0,78.0
968,179.38357584375004,179.73127690625003,59.0,85.0
969,179.72840334375005,179.81748378125005,55.0,78.0
970,179.38357584375004,179.82179412500005,62.0,84.0
971,180.07323084375005,180.55311578125006,61.0,79.0
972,180.07323084375005,180.56892037500003,57.0,78.0
973,180.41805834375003,180.84621915625004,49.0,68.0
974,180.07323084375005,180.85627662500005,42.0,83.0
975,180.76288584375004,180.95397775000004,57.0,87.0
976,180.76288584375004,181.31460984375005,61.0,92.0
977,181.28012709375005,181.37495465625005,57.0,83.0
978,180.76288584375004,181.38644890625005,66.0,84.0
979,181.45254084375003,181.64506953125004,59.0,83.0
980,181.45254084375003,181.67236837500005,62.0,83.0
981,181.79736834375004,182.01575909375003,59.0,83.0
982,181.79736834375004,182.02581656250004,62.0,83.0
983,182.14219584375005,182.33616131250005,59.0,84.0
984,182.14219584375005,182.39794290625005,54.0,78.0
985,181.45254084375003,182.47983943750003,47.0,84.0
986,182.14219584375005,182.55311528125003,62.0,85.0
987,182.14219584375005,182.58328768750005,66.0,85.0
988,182.48702334375005,182.63213825000005,59.0,76.0
989,182.83185084375003,183.02006918750004,59.0,82.0
990,182.83185084375003,183.35052887500004,64.0,84.0
991,183.17667834375004,183.41518403125005,59.0,81.0
992,183.52150584375005,183.74851728125003,59.0,85.0
993,182.83185084375003,184.03731031250004,52.0,89.0
994,183.52150584375005,184.05455168750004,67.0,87.0
995,183.52150584375005,184.05886203125004,64.0,94.0
996,184.03874709375003,184.15368959375004,59.0,78.0
997,184.21116084375004,184.39650562500003,59.0,84.0
998,184.21116084375004,184.40081596875004,64.0,87.0
999,184.21116084375004,184.74564346875005,40.0,86.0
1000,184.55598834375004,184.74564346875005,59.0,84.0
1001,184.55598834375004,184.75282737500004,64.0,87.0
1002,184.90081584375005,185.01432156250004,59.0,84.0
1003,184.90081584375005,185.10914912500004,64.0,87.0
1004,184.90081584375005,185.21834450000006,67.0,84.0
1005,185.24564334375003,185.36058584375004,59.0,83.0
1006,185.59047084375004,185.74564321875005,64.0,80.0
1007,185.59047084375004,185.74708000000004,57.0,79.0
1008,185.59047084375004,185.74995356250005,61.0,73.0
1009,185.59047084375004,185.76001103125003,45.0,83.0
1010,185.93529834375005,186.06317187500005,57.0,76.0
1011,185.93529834375005,186.06317187500005,64.0,83.0
1012,185.93529834375005,186.06460865625004,61.0,75.0
1013,185.93529834375005,186.08185003125004,45.0,78.0
1014,186.28012584375006,186.37782696875004,64.0,80.0
1015,186.28012584375006,186.38070053125006,57.0,73.0
1016,186.28012584375006,186.39219478125005,61.0,74.0
1017,186.28012584375006,186.41230971875004,45.0,80.0
1018,186.62495334375004,186.74564296875005,57.0,75.0
1019,186.62495334375004,186.75139009375005,61.0,75.0
1020,186.62495334375004,186.75426365625003,64.0,83.0
1021,186.62495334375004,186.79449353125005,45.0,79.0
1022,186.96978084375004,187.10052793750003,64.0,84.0
1023,186.96978084375004,187.10340150000005,57.0,78.0
1024,186.96978084375004,187.10914862500005,61.0,79.0
1025,186.96978084375004,187.13213712500004,45.0,84.0
1026,187.31460834375005,187.42524050000006,57.0,82.0
1027,187.31460834375005,187.42811406250004,64.0,85.0
1028,187.31460834375005,187.43098762500006,61.0,83.0
1029,187.31460834375005,187.47840140625004,45.0,83.0
1030,187.65943584375003,187.78874615625006,57.0,83.0
1031,187.65943584375003,187.80024040625005,64.0,85.0
1032,187.65943584375003,187.80167718750005,61.0,85.0
1033,187.65943584375003,187.82322890625005,45.0,84.0
1034,188.00426334375004,188.14506790625003,57.0,78.0
1035,188.00426334375004,188.15081503125003,64.0,84.0
1036,188.00426334375004,188.15799893750005,61.0,81.0
1037,188.00426334375004,188.20110237500003,45.0,83.0
1038,188.34909084375005,188.61920571875004,57.0,80.0
1039,188.34909084375005,188.75282637500004,62.0,83.0
1040,188.34909084375005,189.03587228125005,38.0,86.0
1041,189.03874584375004,189.14363087500004,57.0,83.0
1042,189.03874584375004,189.59046984375004,62.0,89.0
1043,189.03874584375004,189.60196409375004,66.0,90.0
1044,189.55598709375005,189.65943534375003,57.0,83.0
1045,189.72840084375005,189.88932034375006,57.0,79.0
1046,189.72840084375005,189.90081459375006,62.0,84.0
1047,190.07322834375003,190.26000990625005,57.0,80.0
1048,190.07322834375003,190.26144668750004,62.0,84.0
1049,190.41805584375004,190.52868800000005,57.0,83.0
1050,189.72840084375005,190.59046959375004,50.0,85.0
1051,190.41805584375004,190.73558450000004,66.0,90.0
1052,190.41805584375004,190.75713621875005,62.0,88.0
1053,190.76288334375005,190.95828559375005,57.0,78.0
1054,191.10771084375006,191.61058428125006,57.0,79.0
1055,191.10771084375006,191.62351531250005,61.0,79.0
1056,191.79736584375004,192.03587153125005,57.0,85.0
1057,191.79736584375004,192.04449221875004,64.0,90.0
1058,191.79736584375004,192.08472209375006,61.0,90.0
1059,192.31460709375006,192.44535418750004,57.0,87.0
1060,192.48702084375006,192.58328518750005,57.0,72.0
1061,192.48702084375006,192.69966446875006,61.0,90.0
1062,192.48702084375006,192.70684837500005,69.0,84.0
1063,192.48702084375006,192.71834262500005,64.0,89.0
1064,192.83184834375004,193.03012415625005,57.0,82.0
1065,193.17667584375005,193.30454937500005,57.0,88.0
1066,192.14219334375005,193.44535393750004,52.0,72.0
1067,191.10771084375006,193.46259531250004,45.0,84.0
1068,193.17667584375005,193.50857231250004,61.0,90.0
1069,193.17667584375005,193.58903206250005,64.0,89.0
1070,193.52150334375006,193.67954928125005,57.0,87.0
1071,193.86633084375003,194.26431925000006,59.0,79.0
1072,193.86633084375003,194.27006637500006,62.0,83.0
1073,194.55598584375005,194.84765243750005,59.0,84.0
1074,194.55598584375005,195.04018112500003,66.0,78.0
1075,194.55598584375005,195.08184778125005,62.0,84.0
1076,194.21115834375004,195.10770984375006,54.0,74.0
1077,193.86633084375003,195.12926156250003,47.0,83.0
1078,195.07322709375003,195.18385925000004,59.0,84.0
1079,195.24564084375004,195.45972125000006,62.0,84.0
1080,195.24564084375004,195.46546837500006,59.0,82.0
1081,195.59046834375005,195.77868668750006,59.0,84.0
1082,195.59046834375005,195.78012346875005,62.0,83.0
1083,195.24564084375004,196.04880156250005,47.0,83.0
1084,195.93529584375005,196.06173259375004,59.0,84.0
1085,195.93529584375005,196.29880150000005,62.0,85.0
1086,195.93529584375005,196.32322678125004,66.0,84.0
1087,196.28012334375003,196.40081296875005,59.0,77.0
1088,196.62495084375004,197.11345646875006,57.0,84.0
1089,196.62495084375004,197.11489325000005,60.0,84.0
1090,196.62495084375004,197.49420350000005,45.0,84.0
1091,197.31460584375006,197.64219196875004,57.0,86.0
1092,196.96977834375005,197.70397356250004,52.0,73.0
1093,197.31460584375006,197.70972068750004,60.0,92.0
1094,197.83184709375004,197.90512293750004,57.0,83.0
1095,197.65943334375004,197.95684706250006,45.0,73.0
1096,198.00426084375005,198.16805390625004,57.0,81.0
1097,198.00426084375005,198.21259412500004,62.0,87.0
1098,198.34908834375005,198.55742162500005,57.0,79.0
1099,198.00426084375005,198.73845606250003,50.0,89.0
1100,198.69391584375003,199.02724909375004,66.0,88.0
1101,198.69391584375003,199.04736403125005,62.0,85.0
1102,199.03874334375004,199.17954790625004,57.0,83.0
1103,199.38357084375005,199.74995006250003,59.0,79.0
1104,199.38357084375005,199.81604200000004,55.0,80.0
1105,200.07322584375004,200.30598440625005,55.0,84.0
1106,200.07322584375004,200.38931771875005,62.0,85.0
1107,200.07322584375004,200.42380046875004,59.0,89.0
1108,200.59046709375005,200.69535212500006,55.0,78.0
1109,199.38357084375005,200.75138659375006,43.0,84.0
1110,199.72839834375006,200.75713371875005,50.0,70.0
1111,200.76288084375005,200.96115665625004,59.0,80.0
1112,200.76288084375005,200.96546700000005,55.0,83.0
1113,201.10770834375006,201.33903012500005,59.0,84.0
1114,201.10770834375006,201.34334046875006,55.0,85.0
1115,201.45253584375004,201.59190362500004,55.0,85.0
1116,200.76288084375005,201.61776568750005,43.0,78.0
1117,201.45253584375004,201.80023690625003,59.0,85.0
1118,201.79736334375005,201.88644378125005,55.0,78.0
1119,201.45253584375004,201.89075412500006,62.0,84.0
1120,202.14219084375006,202.62207578125006,61.0,79.0
1121,202.14219084375006,202.63788037500004,57.0,78.0
1122,202.48701834375004,202.91517915625005,49.0,68.0
1123,202.14219084375006,202.92523662500005,42.0,83.0
1124,202.83184584375005,203.02293775000004,57.0,87.0
1125,202.83184584375005,203.38356984375005,61.0,92.0
1126,203.34908709375006,203.44391465625006,57.0,83.0
1127,202.83184584375005,203.45540890625006,66.0,84.0
1128,203.52150084375006,203.71402953125005,59.0,83.0
1129,203.52150084375006,203.74132837500005,62.0,83.0
1130,203.86632834375004,204.08471909375004,59.0,83.0
1131,203.86632834375004,204.09477656250004,62.0,83.0
1132,204.21115584375005,204.40512131250006,59.0,84.0
1133,204.21115584375005,204.46690290625006,54.0,78.0
1134,203.52150084375006,204.54879943750004,47.0,84.0
1135,204.21115584375005,204.62207528125006,62.0,85.0
1136,204.21115584375005,204.65224768750005,66.0,85.0
1137,204.55598334375006,204.70109825000006,59.0,76.0
1138,204.90081084375004,205.08902918750005,59.0,82.0
1139,204.90081084375004,205.41948887500004,64.0,84.0
1140,205.24563834375004,205.48414403125005,59.0,81.0
1141,205.59046584375005,205.81747728125004,59.0,85.0
1142,204.90081084375004,206.10627031250004,52.0,89.0
1143,205.59046584375005,206.12351168750004,67.0,87.0
1144,205.59046584375005,206.12782203125005,64.0,94.0
1145,206.10770709375004,206.22264959375005,59.0,78.0
1146,206.28012084375004,206.46546562500004,59.0,84.0
1147,206.28012084375004,206.46977596875004,64.0,87.0
1148,206.28012084375004,206.81460346875005,40.0,86.0
1149,206.62494834375005,206.81460346875005,59.0,84.0
1150,206.62494834375005,206.82178737500004,64.0,87.0
1151,206.96977584375006,207.08328156250005,59.0,84.0
1152,206.96977584375006,207.17810912500005,64.0,87.0
1153,206.96977584375006,207.28730450000006,67.0,84.0
1154,207.31460334375004,207.42954584375005,59.0,83.0
1155,207.65943084375004,207.81460321875005,64.0,80.0
1156,207.65943084375004,207.81604000000004,57.0,79.0
1157,207.65943084375004,207.81891356250006,61.0,73.0
1158,207.65943084375004,207.82897103125006,45.0,83.0
1159,208.00425834375005,208.13213187500006,57.0,76.0
1160,208.00425834375005,208.13213187500006,64.0,83.0
1161,208.00425834375005,208.13356865625005,61.0,75.0
1162,208.00425834375005,208.15081003125005,45.0,78.0
1163,208.34908584375006,208.44678696875005,64.0,80.0
1164,208.34908584375006,208.44966053125006,57.0,73.0
1165,208.34908584375006,208.46115478125006,61.0,74.0
1166,208.34908584375006,208.48126971875004,45.0,80.0
1167,208.69391334375004,208.81460296875005,57.0,75.0
1168,208.69391334375004,208.82035009375005,61.0,75.0
1169,208.69391334375004,208.82322365625004,64.0,83.0
1170,208.69391334375004,208.86345353125006,45.0,79.0
1171,209.03874084375005,209.16948793750004,64.0,84.0
1172,209.03874084375005,209.17236150000005,57.0,78.0
1173,209.03874084375005,209.17810862500005,61.0,79.0
1174,209.03874084375005,209.20109712500005,45.0,84.0
1175,209.38356834375006,209.49420050000006,57.0,82.0
1176,209.38356834375006,209.49707406250005,64.0,85.0
1177,209.38356834375006,209.49994762500006,61.0,83.0
1178,209.38356834375006,209.54736140625005,45.0,83.0
1179,209.72839584375004,209.85770615625006,57.0,83.0
1180,209.72839584375004,209.86920040625006,64.0,85.0
1181,209.72839584375004,209.87063718750005,61.0,85.0
1182,209.72839584375004,209.89218890625006,45.0,84.0
1183,210.07322334375004,210.21402790625004,57.0,78.0
1184,210.07322334375004,210.21977503125004,64.0,84.0
1185,210.07322334375004,210.22695893750006,61.0,81.0
1186,210.07322334375004,210.27006237500004,45.0,83.0
1187,210.41805084375005,210.87638406250005,62.0,83.0
1188,210.41805084375005,210.93672887500006,55.0,83.0
1189,210.76287834375006,211.27868281250005,50.0,73.0
1190,211.10770584375004,211.29448740625006,55.0,84.0
1191,210.41805084375005,211.39075175000005,43.0,83.0
1192,211.10770584375004,211.47695862500004,59.0,85.0
1193,211.10770584375004,211.64649881250006,62.0,85.0
1194,211.62494709375005,211.71977465625005,59.0,49.0
1195,211.62494709375005,211.94534931250004,55.0,83.0
1196,212.14218834375006,212.30310784375004,55.0,84.0
1197,212.48701584375004,212.62351006250006,55.0,89.0
1198,211.79736084375006,212.62494684375005,43.0,84.0
1199,212.48701584375004,212.70540659375004,59.0,92.0
1200,213.17667084375006,213.63069371875005,57.0,83.0
1201,213.17667084375006,213.68816496875004,61.0,80.0
1202,213.17667084375006,213.84621090625006,42.0,87.0
1203,213.52149834375004,213.85339481250006,49.0,51.0
1204,213.86632584375005,214.05167062500004,57.0,85.0
1205,213.86632584375005,214.17810737500005,61.0,89.0
1206,214.38356709375006,214.49132568750005,57.0,79.0
1207,214.90080834375004,215.10626806250005,59.0,81.0
1208,215.24563584375005,215.41948637500005,59.0,87.0
1209,215.24563584375005,215.48701509375005,62.0,86.0
1210,214.55598084375006,215.57465875000005,47.0,89.0
1211,215.24563584375005,215.58758978125005,66.0,84.0
1212,215.59046334375006,215.69103803125006,59.0,84.0
1213,215.93529084375004,216.40511831250006,59.0,80.0
1214,215.93529084375004,216.46402634375005,55.0,82.0
1215,216.28011834375005,216.77149753125005,50.0,62.0
1216,216.62494584375006,216.86632509375005,55.0,85.0
1217,216.62494584375006,216.96833656250004,62.0,87.0
1218,216.62494584375006,216.97408368750004,59.0,87.0
1219,215.93529084375004,217.16948593750004,43.0,83.0
1220,216.96977334375006,217.17235950000006,50.0,40.0
1221,217.14218709375004,217.22121006250006,59.0,52.0
1222,217.14218709375004,217.40942840625004,55.0,83.0
1223,217.65942834375005,217.82609496875006,55.0,84.0
1224,218.00425584375006,218.15368109375004,55.0,88.0
1225,217.31460084375004,218.23845118750006,43.0,83.0
1226,218.00425584375006,218.32753162500006,59.0,89.0
1227,218.34908334375004,218.42379596875006,55.0,77.0
1228,218.69391084375005,218.94534756250005,57.0,83.0
1229,218.69391084375005,219.13931303125005,61.0,79.0
1230,219.03873834375005,219.41804859375006,49.0,61.0
1231,218.69391084375005,219.43672675000005,42.0,89.0
1232,219.38356584375006,219.57178418750004,57.0,83.0
1233,219.38356584375006,219.69391059375005,61.0,83.0
1234,219.90080709375005,219.99276109375006,57.0,79.0
1235,219.38356584375006,220.03299096875006,66.0,79.0
1236,220.07322084375005,220.24707137500005,59.0,83.0
1237,220.07322084375005,220.25712884375005,62.0,85.0
1238,220.41804834375006,220.56460003125005,62.0,82.0
1239,220.41804834375006,220.57178393750004,59.0,82.0
1240,220.07322084375005,220.64793334375005,47.0,85.0
1241,220.76287584375007,221.08327806250006,57.0,85.0
1242,220.76287584375007,221.18385275000006,61.0,82.0
1243,220.76287584375007,221.51143887500004,45.0,84.0
1244,221.10770334375005,221.51574921875005,52.0,78.0
1245,221.45253084375005,221.91086406250005,62.0,83.0
1246,221.45253084375005,221.97120887500006,55.0,83.0
1247,221.79735834375006,222.31316281250005,50.0,73.0
1248,222.14218584375004,222.32896740625006,55.0,84.0
1249,221.45253084375005,222.42523175000005,43.0,83.0
1250,222.14218584375004,222.51143862500004,59.0,85.0
1251,222.14218584375004,222.68097881250006,62.0,85.0
1252,222.65942709375005,222.75425465625005,59.0,49.0
1253,222.65942709375005,222.97982931250004,55.0,83.0
1254,223.17666834375007,223.33758784375004,55.0,84.0
1255,223.52149584375005,223.65799006250006,55.0,89.0
1256,222.83184084375006,223.65942684375005,43.0,84.0
1257,223.52149584375005,223.73988659375004,59.0,92.0
1258,224.21115084375006,224.66517371875005,57.0,83.0
1259,224.21115084375006,224.72264496875005,61.0,80.0
1260,224.21115084375006,224.88069090625007,42.0,87.0
1261,224.55597834375004,224.88787481250006,49.0,51.0
1262,224.90080584375005,225.08615062500004,57.0,85.0
1263,224.90080584375005,225.21258737500006,61.0,89.0
1264,225.41804709375006,225.52580568750005,57.0,79.0
1265,225.59046084375007,225.79592056250004,60.0,86.0
1266,225.59046084375007,225.97551821875004,65.0,85.0
1267,225.93528834375005,226.08327681250006,60.0,71.0
1268,225.93528834375005,226.34333421875004,48.0,70.0
1269,225.59046084375007,226.41373650000006,41.0,84.0
1270,226.28011584375005,226.41948362500005,60.0,87.0
1271,226.28011584375005,226.46977096875005,65.0,90.0
1272,226.28011584375005,226.54161003125006,69.0,86.0
1273,226.62494334375006,226.72408125000004,65.0,68.0
1274,226.62494334375006,226.74419618750005,60.0,82.0
1275,226.96977084375004,227.33040293750005,64.0,83.0
1276,226.96977084375004,227.36488568750005,52.0,92.0
1277,227.31459834375005,227.40080521875007,59.0,73.0
1278,226.96977084375004,227.42235693750004,67.0,82.0
1279,227.65942584375006,227.80741431250004,64.0,83.0
1280,227.65942584375006,227.96689703125006,40.0,78.0
1281,227.65942584375006,228.02436828125005,71.0,84.0
1282,227.65942584375006,228.02867862500005,67.0,78.0
1283,228.00425334375007,228.09764412500004,64.0,85.0
1284,228.34908084375004,228.71977040625006,57.0,76.0
1285,228.34908084375004,228.74132212500007,61.0,76.0
1286,229.03873584375006,229.12350593750006,57.0,83.0
1287,229.03873584375006,229.14362087500007,64.0,85.0
1288,229.03873584375006,229.14649443750005,61.0,87.0
1289,228.34908084375004,229.72839084375005,45.0,79.0
1290,228.69390834375005,232.15367759375005,52.0,84.0
1291,229.72839084375005,232.15655115625006,45.0,79.0
1292,229.72839084375005,232.31316031250006,64.0,86.0
1293,229.38356334375004,232.31603387500004,57.0,84.0
1294,229.72839084375005,232.32178100000004,61.0,84.0
1295,229.72839084375005,232.33471203125006,69.0,84.0
1296,232.83183834375006,234.08183803125004,57.0,83.0
1297,233.52149334375005,234.32465406250006,66.0,81.0
1298,233.17666584375004,234.36201037500007,62.0,88.0
1299,233.52149334375005,234.42953909375007,69.0,79.0
1300,234.21114834375007,234.59189537500006,57.0,64.0
1301,232.48701084375006,234.61775743750005,50.0,90.0
1302,234.55597584375005,234.68672293750006,66.0,81.0
1303,234.55597584375005,234.68672293750006,69.0,79.0
1304,234.55597584375005,234.73844706250006,62.0,79.0
1305,235.24563084375006,235.99563065625006,57.0,75.0
1306,235.24563084375006,236.01861915625005,61.0,74.0
1307,235.93528584375005,236.15511337500007,64.0,82.0
1308,236.28011334375006,237.10913612500005,61.0,76.0
1309,236.28011334375006,237.11488325000005,64.0,78.0
1310,236.28011334375006,237.16804415625006,57.0,75.0
1311,236.28011334375006,237.16804415625006,69.0,83.0
1312,237.31459584375006,237.62206703125005,61.0,90.0
1313,235.24563084375006,237.63930840625005,45.0,83.0
1314,235.59045834375004,237.69103253125004,52.0,70.0
1315,237.65942334375006,237.82608996875007,57.0,79.0
1316,238.00425084375004,238.41660706250005,59.0,77.0
1317,238.00425084375004,238.81603225000006,62.0,83.0
1318,239.03873334375007,239.91229634375006,62.0,83.0
1319,238.69390584375006,239.94103196875005,57.0,75.0
1320,239.03873334375007,239.97838828125006,66.0,78.0
1321,238.34907834375005,240.08902043750007,54.0,67.0
1322,238.00425084375004,240.24419281250005,47.0,83.0
1323,240.07321584375006,240.39936518750005,62.0,83.0
1324,240.07321584375006,240.43959506250005,57.0,80.0
1325,240.76287084375005,241.19534200000007,57.0,76.0
1326,240.76287084375005,241.49131893750007,60.0,77.0
1327,241.45252584375007,241.79447978125006,57.0,79.0
1328,241.10769834375006,241.82608896875007,52.0,73.0
1329,240.76287084375005,242.06746821875007,45.0,83.0
1330,242.14218084375005,242.41516928125006,57.0,71.0
1331,242.14218084375005,242.55741062500005,62.0,83.0
1332,242.14218084375005,242.70683587500005,66.0,77.0
1333,242.14218084375005,242.95539903125007,50.0,84.0
1334,242.83183584375007,243.08614612500006,60.0,81.0
1335,242.83183584375007,243.10769784375006,57.0,78.0
1336,243.52149084375006,243.97838728125006,55.0,80.0
1337,243.52149084375006,244.26286996875007,62.0,83.0
1338,244.21114584375005,244.43528371875007,55.0,89.0
1339,243.86631834375007,244.85195028125005,50.0,75.0
1340,243.52149084375006,245.09907665625005,43.0,84.0
1341,244.55597334375005,245.30022603125005,62.0,84.0
1342,244.55597334375005,245.32034096875006,59.0,78.0
1343,245.24562834375007,245.55166275000005,43.0,53.0
1344,245.24562834375007,245.66660525000006,50.0,81.0
1345,245.59045584375005,245.81315693750005,55.0,85.0
1346,245.59045584375005,245.89217990625005,59.0,87.0
1347,245.59045584375005,245.93384656250007,62.0,85.0
1348,245.93528334375006,246.05597296875007,43.0,84.0
1349,246.28011084375007,246.66516821875007,61.0,79.0
1350,246.28011084375007,246.67091534375007,57.0,80.0
1351,246.28011084375007,246.90942103125005,42.0,81.0
1352,246.62493834375005,246.93240953125004,49.0,68.0
1353,246.96976584375005,247.17235200000005,57.0,85.0
1354,246.96976584375005,247.37781171875005,61.0,90.0
1355,247.31459334375006,247.43959331250005,57.0,72.0
1356,246.96976584375005,247.50855881250007,66.0,83.0
1357,247.65942084375007,248.12350118750007,59.0,84.0
1358,247.65942084375007,248.14505290625007,62.0,83.0
1359,248.00424834375005,248.44246662500007,54.0,70.0
1360,248.34907584375006,248.53729418750007,59.0,84.0
1361,247.65942084375007,248.54447809375006,47.0,84.0
1362,248.34907584375006,248.65079990625006,62.0,84.0
1363,248.34907584375006,248.71258150000006,66.0,84.0
1364,249.03873084375005,249.57177668750006,64.0,83.0
1365,249.03873084375005,249.57608703125007,59.0,77.0
1366,249.72838584375006,249.91516740625005,59.0,84.0
1367,249.72838584375006,250.01861565625006,67.0,84.0
1368,249.72838584375006,250.23556962500007,64.0,89.0
1369,250.24562709375007,250.33183396875006,59.0,74.0
1370,250.41804084375005,250.59620171875005,64.0,84.0
1371,250.41804084375005,250.59763850000007,59.0,80.0
1372,249.03873084375005,250.98987978125007,52.0,87.0
1373,250.76286834375006,251.13068434375006,59.0,88.0
1374,250.76286834375006,251.44533943750005,64.0,92.0
1375,251.45252334375007,251.56315550000005,59.0,72.0
1376,251.79735084375005,251.92666115625005,52.0,83.0
1377,251.79735084375005,251.93528184375006,64.0,82.0
1378,251.79735084375005,251.93671862500005,61.0,69.0
1379,251.79735084375005,251.93815540625005,57.0,75.0
1380,251.79735084375005,251.94390253125005,45.0,79.0
1381,252.14217834375006,252.25855762500007,61.0,56.0
1382,252.14217834375006,252.26286796875007,64.0,73.0
1383,252.14217834375006,252.27867256250005,57.0,64.0
1384,252.14217834375006,252.29878750000006,52.0,76.0
1385,252.14217834375006,252.31171853125005,45.0,74.0
1386,252.48700584375007,252.59476443750006,64.0,78.0
1387,252.48700584375007,252.61487937500007,57.0,72.0
1388,252.48700584375007,252.61775293750006,61.0,72.0
1389,252.48700584375007,252.62924718750006,52.0,77.0
1390,252.48700584375007,252.64074143750005,45.0,73.0
1391,252.83183334375005,252.95252296875006,57.0,71.0
1392,252.83183334375005,252.95970687500005,61.0,70.0
1393,252.83183334375005,252.96689078125007,64.0,79.0
1394,252.83183334375005,252.98413215625007,52.0,79.0
1395,252.83183334375005,252.98556893750006,45.0,79.0
1396,253.17666084375006,253.29447690625005,57.0,78.0
1397,253.17666084375006,253.30166081250005,52.0,85.0
1398,253.17666084375006,253.30166081250005,64.0,84.0
1399,253.17666084375006,253.30453437500006,61.0,79.0
1400,253.17666084375006,253.30884471875007,45.0,83.0
1401,253.52148834375006,253.63068371875005,52.0,84.0
1402,253.52148834375006,253.63499406250006,57.0,78.0
1403,253.52148834375006,253.63786762500007,64.0,84.0
1404,253.52148834375006,253.64217796875005,61.0,78.0
1405,253.52148834375006,253.64936187500007,45.0,83.0
1406,253.86631584375007,254.09476406250005,52.0,87.0
1407,253.86631584375007,254.09763762500006,57.0,83.0
1408,253.86631584375007,254.10482153125005,61.0,84.0
1409,253.86631584375007,254.10625831250007,64.0,85.0
1410,253.86631584375007,254.11056865625005,45.0,83.0
1411,254.21114334375005,254.31028125000006,52.0,83.0
1412,254.21114334375005,254.31602837500006,64.0,84.0
1413,254.21114334375005,254.31746515625005,61.0,81.0
1414,254.21114334375005,254.31890193750007,57.0,78.0
1415,254.21114334375005,254.33183296875006,45.0,79.0
1416,254.55597084375006,254.82608571875005,57.0,80.0
1417,254.55597084375006,254.95970637500005,62.0,83.0
1418,254.55597084375006,255.24275228125006,38.0,86.0
1419,255.24562584375005,255.35051087500005,57.0,83.0
1420,255.24562584375005,255.79734984375006,62.0,89.0
1421,255.24562584375005,255.80884409375005,66.0,90.0
1422,255.76286709375006,255.86631534375007,57.0,83.0
1423,255.93528084375006,256.09620034375007,57.0,79.0
1424,255.93528084375006,256.10769459375007,62.0,84.0
1425,256.28010834375004,256.46688990625006,57.0,80.0
1426,256.28010834375004,256.46832668750005,62.0,84.0
1427,256.62493584375005,256.73556800000006,57.0,83.0
1428,255.93528084375006,256.7973495937501,50.0,85.0
1429,256.62493584375005,256.9424645000001,66.0,90.0
1430,256.62493584375005,256.9640162187501,62.0,88.0
1431,256.96976334375006,257.1651655937501,57.0,78.0
1432,257.31459084375007,257.81746428125007,57.0,79.0
1433,257.31459084375007,257.83039531250006,61.0,79.0
1434,258.0042458437501,258.24275153125006,57.0,85.0
1435,258.0042458437501,258.2513722187501,64.0,90.0
1436,258.0042458437501,258.29160209375004,61.0,90.0
1437,258.52148709375007,258.6522341875001,57.0,87.0
1438,258.69390084375004,258.79016518750007,57.0,72.0
1439,258.69390084375004,258.90654446875004,61.0,90.0
1440,258.69390084375004,258.91372837500006,69.0,84.0
1441,258.69390084375004,258.92522262500006,64.0,89.0
1442,259.03872834375005,259.23700415625007,57.0,82.0
1443,259.38355584375006,259.51142937500003,57.0,88.0
1444,258.34907334375004,259.65223393750006,52.0,72.0
1445,257.31459084375007,259.6694753125001,45.0,84.0
1446,259.38355584375006,259.7154523125001,61.0,90.0
1447,259.38355584375006,259.79591206250007,64.0,89.0
1448,259.72838334375007,259.88642928125006,57.0,87.0
1449,260.0732108437501,260.47119925000004,59.0,79.0
1450,260.0732108437501,260.47694637500007,62.0,83.0
1451,260.76286584375003,261.0545324375001,59.0,84.0
1452,260.76286584375003,261.2470611250001,66.0,78.0
1453,260.76286584375003,261.2887277812501,62.0,84.0
1454,260.4180383437501,261.31458984375007,54.0,74.0
1455,260.0732108437501,261.3361415625001,47.0,83.0
1456,261.2801070937501,261.3907392500001,59.0,84.0
1457,261.45252084375005,261.66660125000004,62.0,84.0
1458,261.45252084375005,261.67234837500007,59.0,82.0
1459,261.79734834375006,261.98556668750007,59.0,84.0
1460,261.79734834375006,261.98700346875006,62.0,83.0
1461,261.45252084375005,262.25568156250006,47.0,83.0
1462,262.14217584375007,262.26861259375005,59.0,84.0
1463,262.14217584375007,262.50568150000004,62.0,85.0
1464,262.14217584375007,262.5301067812501,66.0,84.0
1465,262.4870033437501,262.6076929687501,59.0,77.0
1466,262.8318308437501,263.32033646875004,57.0,84.0
1467,262.8318308437501,263.32177325000004,60.0,84.0
1468,262.8318308437501,263.70108350000004,45.0,84.0
1469,263.52148584375004,263.8490719687501,57.0,86.0
1470,263.17665834375003,263.91085356250005,52.0,73.0
1471,263.52148584375004,263.9166006875001,60.0,92.0
1472,264.0387270937501,264.11200293750005,57.0,83.0
1473,263.86631334375005,264.1637270625001,45.0,73.0
1474,264.21114084375006,264.3749339062501,57.0,81.0
1475,264.21114084375006,264.4194741250001,62.0,87.0
1476,264.55596834375007,264.7643016250001,57.0,79.0
1477,264.21114084375006,264.9453360625001,50.0,89.0
1478,264.9007958437501,265.2341290937501,66.0,88.0
1479,264.9007958437501,265.25424403125004,62.0,85.0
1480,265.2456233437501,265.38642790625005,57.0,83.0
1481,265.5904508437501,265.95683006250005,59.0,79.0
1482,265.5904508437501,266.02292200000005,55.0,80.0
1483,266.28010584375005,266.51286440625006,55.0,84.0
1484,266.28010584375005,266.5961977187501,62.0,85.0
1485,266.28010584375005,266.6306804687501,59.0,89.0
1486,266.7973470937501,266.90223212500007,55.0,78.0
1487,265.5904508437501,266.95826659375007,43.0,84.0
1488,265.93527834375004,266.96401371875004,50.0,70.0
1489,266.96976084375007,267.1680366562501,59.0,80.0
1490,266.96976084375007,267.17234700000006,55.0,83.0
1491,267.3145883437501,267.5459101250001,59.0,84.0
1492,267.3145883437501,267.55022046875007,55.0,85.0
1493,267.6594158437501,267.79878362500006,55.0,85.0
1494,266.96976084375007,267.82464568750004,43.0,78.0
1495,267.6594158437501,268.0071169062501,59.0,85.0
1496,268.0042433437501,268.0933237812501,55.0,78.0
1497,267.6594158437501,268.09763412500007,62.0,84.0
1498,268.34907084375004,268.82895578125004,61.0,79.0
1499,268.34907084375004,268.8447603750001,57.0,78.0
1500,268.69389834375005,269.1220591562501,49.0,68.0
1501,268.34907084375004,269.13211662500004,42.0,83.0
1502,269.03872584375006,269.22981775000005,57.0,87.0
1503,269.03872584375006,269.59044984375004,61.0,92.0
1504,269.55596709375004,269.65079465625007,57.0,83.0
1505,269.03872584375006,269.66228890625007,66.0,84.0
1506,269.7283808437501,269.92090953125006,59.0,83.0
1507,269.7283808437501,269.9482083750001,62.0,83.0
1508,270.0732083437501,270.29159909375005,59.0,83.0
1509,270.0732083437501,270.30165656250006,62.0,83.0
1510,270.4180358437501,270.61200131250007,59.0,84.0
1511,270.4180358437501,270.67378290625004,54.0,78.0
1512,269.7283808437501,270.7556794375001,47.0,84.0
1513,270.4180358437501,270.82895528125005,62.0,85.0
1514,270.4180358437501,270.85912768750006,66.0,85.0
1515,270.76286334375004,270.90797825000004,59.0,76.0
1516,271.10769084375005,271.29590918750006,59.0,82.0
1517,271.10769084375005,271.6263688750001,64.0,84.0
1518,271.45251834375006,271.69102403125004,59.0,81.0
1519,271.79734584375007,272.02435728125005,59.0,85.0
1520,271.10769084375005,272.31315031250006,52.0,89.0
1521,271.79734584375007,272.3303916875001,67.0,87.0
1522,271.79734584375007,272.33470203125006,64.0,94.0
1523,272.31458709375005,272.4295295937501,59.0,78.0
1524,272.4870008437501,272.67234562500005,59.0,84.0
1525,272.4870008437501,272.6766559687501,64.0,87.0
1526,272.4870008437501,273.0214834687501,40.0,86.0
1527,272.8318283437501,273.0214834687501,59.0,84.0
1528,272.8318283437501,273.02866737500005,64.0,87.0
1529,273.17665584375004,273.2901615625001,59.0,84.0
1530,273.17665584375004,273.38498912500006,64.0,87.0
1531,273.17665584375004,273.4941845000001,67.0,84.0
1532,273.52148334375005,273.6364258437501,59.0,83.0
1533,273.86631084375006,274.02148321875006,64.0,80.0
1534,273.86631084375006,274.02292000000006,57.0,79.0
1535,273.86631084375006,274.02579356250004,61.0,73.0
1536,273.86631084375006,274.03585103125005,45.0,83.0
1537,274.21113834375006,274.33901187500004,57.0,76.0
1538,274.21113834375006,274.33901187500004,64.0,83.0
1539,274.21113834375006,274.3404486562501,61.0,75.0
1540,274.21113834375006,274.35769003125006,45.0,78.0
1541,274.5559658437501,274.6536669687501,64.0,80.0
1542,274.5559658437501,274.6565405312501,57.0,73.0
1543,274.5559658437501,274.66803478125007,61.0,74.0
1544,274.5559658437501,274.6881497187501,45.0,80.0
1545,274.9007933437501,275.0214829687501,57.0,75.0
1546,274.9007933437501,275.02723009375006,61.0,75.0
1547,274.9007933437501,275.03010365625005,64.0,83.0
1548,274.9007933437501,275.07033353125007,45.0,79.0
1549,275.2456208437501,275.37636793750005,64.0,84.0
1550,275.2456208437501,275.3792415000001,57.0,78.0
1551,275.2456208437501,275.38498862500006,61.0,79.0
1552,275.2456208437501,275.40797712500006,45.0,84.0
1553,275.59044834375004,275.70108050000005,57.0,82.0
1554,275.59044834375004,275.7039540625001,64.0,85.0
1555,275.59044834375004,275.7068276250001,61.0,83.0
1556,275.59044834375004,275.75424140625006,45.0,83.0
1557,275.93527584375005,276.0645861562501,57.0,83.0
1558,275.93527584375005,276.07608040625007,64.0,85.0
1559,275.93527584375005,276.07751718750006,61.0,85.0
1560,275.93527584375005,276.09906890625007,45.0,84.0
1561,276.28010334375006,276.4209079062501,57.0,78.0
1562,276.28010334375006,276.42665503125005,64.0,84.0
1563,276.28010334375006,276.43383893750007,61.0,81.0
1564,276.28010334375006,276.4769423750001,45.0,83.0
1565,276.62493084375006,277.0559652187501,62.0,83.0
1566,276.62493084375006,277.07608015625004,59.0,83.0
1567,276.9697583437501,277.3131490625001,54.0,64.0
1568,276.62493084375006,277.3605628437501,47.0,83.0
1569,277.3145858437501,277.5142984375001,66.0,83.0
1570,277.3145858437501,277.58757428125006,62.0,84.0
1571,277.3145858437501,277.6177466875001,59.0,84.0
1572,277.83182709375006,277.9970569375001,59.0,75.0
1573,277.83182709375006,278.0171718750001,62.0,79.0
1574,278.34906834375005,278.63498781250007,55.0,83.0
1575,278.34906834375005,278.6436085000001,62.0,76.0
1576,278.1766545937501,278.8131486875001,50.0,79.0
1577,278.69389584375006,279.0775164375001,55.0,85.0
1578,278.69389584375006,279.09906815625004,59.0,84.0
1579,278.00424084375004,279.14360837500004,43.0,85.0
1580,279.03872334375006,279.22119456250005,50.0,80.0
1581,279.3835508437501,279.71401053125004,57.0,79.0
1582,279.3835508437501,279.8835507187501,62.0,84.0
1583,279.3835508437501,280.2743552187501,50.0,86.0
1584,280.0732058437501,280.4094126562501,66.0,86.0
1585,280.0732058437501,280.4223436875001,62.0,86.0
1586,280.0732058437501,280.43958506250004,57.0,85.0
1587,280.5904470937501,280.68527465625004,62.0,79.0
1588,280.5904470937501,280.6982056875001,66.0,80.0
1589,280.5904470937501,280.7427459062501,57.0,79.0
1590,280.9352745937501,281.10912512500005,61.0,87.0
1591,280.9352745937501,281.1249297187501,57.0,78.0
1592,280.9352745937501,281.1263665000001,64.0,85.0
1593,281.10768834375006,281.5617112187501,52.0,82.0
1594,281.45251584375006,281.7714812812501,61.0,89.0
1595,281.45251584375006,281.78010196875005,57.0,84.0
1596,280.76286084375005,281.8964812500001,45.0,84.0
1597,281.7973433437501,282.03728581250004,52.0,84.0
1598,282.1421708437501,282.5760787812501,59.0,82.0
1599,282.1421708437501,282.5760787812501,62.0,84.0
1600,282.4869983437501,282.89504421875006,54.0,77.0
1601,282.1421708437501,283.03010165625005,47.0,84.0
1602,282.83182584375004,283.12205565625004,66.0,89.0
1603,282.83182584375004,283.14073381250006,62.0,89.0
1604,282.83182584375004,283.1709062187501,59.0,85.0
1605,283.3490670937501,283.46688315625005,62.0,82.0
1606,283.3490670937501,283.50136590625004,59.0,84.0
1607,283.6938945937501,283.81458421875004,62.0,83.0
1608,283.6938945937501,283.84475662500006,55.0,81.0
1609,283.86630834375006,284.36199787500004,50.0,83.0
1610,284.21113584375007,284.4525150937501,55.0,85.0
1611,284.21113584375007,284.4539518750001,59.0,89.0
1612,284.21113584375007,284.4970553125001,62.0,85.0
1613,283.52148084375006,284.6665955000001,43.0,81.0
1614,284.5559633437501,284.7226299687501,50.0,80.0
1615,284.9007908437501,285.17808962500004,57.0,78.0
1616,284.9007908437501,285.3476298125001,62.0,83.0
1617,285.59044584375005,285.8849860000001,62.0,87.0
1618,285.59044584375005,285.8979170312501,57.0,84.0
1619,285.59044584375005,285.9065377187501,66.0,85.0
1620,284.9007908437501,286.1407330625001,50.0,83.0
1621,286.1076870937501,286.19245718750005,62.0,78.0
1622,286.1076870937501,286.20251465625006,66.0,70.0
1623,286.1076870937501,286.24849165625005,57.0,80.0
1624,286.4525145937501,286.58326168750006,61.0,83.0
1625,286.4525145937501,286.6019398437501,64.0,85.0
1626,286.4525145937501,286.60625018750005,57.0,79.0
1627,286.62492834375007,287.12061787500005,52.0,80.0
1628,286.9697558437501,287.6392959062501,61.0,88.0
1629,286.9697558437501,287.6522269375001,57.0,84.0
1630,286.28010084375006,287.65510050000006,45.0,78.0
1631,286.9697558437501,287.66659475000006,64.0,87.0
1632,287.3145833437501,287.67665221875006,52.0,83.0
1633,287.6594108437501,288.09044521875006,62.0,83.0
1634,287.6594108437501,288.1105601562501,59.0,83.0
1635,288.00423834375005,288.34762906250006,54.0,64.0
1636,287.6594108437501,288.39504284375005,47.0,83.0
1637,288.34906584375005,288.54877843750006,66.0,83.0
1638,288.34906584375005,288.6220542812501,62.0,84.0
1639,288.34906584375005,288.65222668750005,59.0,84.0
1640,288.8663070937501,289.03153693750005,59.0,75.0
1641,288.8663070937501,289.05165187500006,62.0,79.0
1642,289.3835483437501,289.66946781250005,55.0,83.0
1643,289.3835483437501,289.67808850000006,62.0,76.0
1644,289.21113459375005,289.84762868750005,50.0,79.0
1645,289.7283758437501,290.11199643750007,55.0,85.0
1646,289.7283758437501,290.1335481562501,59.0,84.0
1647,289.03872084375007,290.1780883750001,43.0,85.0
1648,290.0732033437501,290.2556745625001,50.0,80.0
1649,290.41803084375005,290.74849053125007,57.0,79.0
1650,290.41803084375005,290.91803071875006,62.0,84.0
1651,290.41803084375005,291.30883521875006,50.0,86.0
1652,291.10768584375006,291.44389265625006,66.0,86.0
1653,291.10768584375006,291.45682368750005,62.0,86.0
1654,291.10768584375006,291.4740650625001,57.0,85.0
1655,291.62492709375005,291.7197546562501,62.0,79.0
1656,291.62492709375005,291.73268568750007,66.0,80.0
1657,291.62492709375005,291.77722590625007,57.0,79.0
1658,291.96975459375005,292.1436051250001,61.0,87.0
1659,291.96975459375005,292.15940971875006,57.0,78.0
1660,291.96975459375005,292.16084650000005,64.0,85.0
1661,292.1421683437501,292.59619121875005,52.0,82.0
1662,292.4869958437501,292.80596128125006,61.0,89.0
1663,292.4869958437501,292.8145819687501,57.0,84.0
1664,291.7973408437501,292.93096125000005,45.0,84.0
1665,292.83182334375005,293.0717658125001,52.0,84.0
1666,293.17665084375005,293.5071105312501,62.0,79.0
1667,293.17665084375005,293.6852714062501,55.0,80.0
1668,293.52147834375006,293.9855586875001,50.0,69.0
1669,293.17665084375005,293.99130581250006,43.0,84.0
1670,293.86630584375007,294.13785750000005,62.0,84.0
1671,293.86630584375007,294.1436046250001,59.0,85.0
1672,293.86630584375007,294.16946668750006,55.0,84.0
1673,294.38354709375005,294.50567350000006,55.0,83.0
1674,294.38354709375005,294.51429418750007,59.0,80.0
1675,294.9007883437501,295.35481121875006,61.0,85.0
1676,294.9007883437501,295.4065353437501,57.0,82.0
1677,295.24561584375004,295.6306732187501,49.0,69.0
1678,295.59044334375005,295.70107550000006,61.0,80.0
1679,295.59044334375005,295.71113296875006,57.0,78.0
1680,294.5559608437501,295.71400653125005,42.0,84.0
1681,295.59044334375005,295.75854675000005,66.0,71.0
1682,295.93527084375006,296.4424546250001,64.0,84.0
1683,295.93527084375006,296.46975346875007,59.0,77.0
1684,295.93527084375006,296.71544306250007,40.0,85.0
1685,296.6249258437501,296.88642003125005,64.0,92.0
1686,296.6249258437501,296.89935106250005,67.0,83.0
1687,296.6249258437501,296.92808668750007,59.0,86.0
1688,297.14216709375006,297.21256937500004,64.0,82.0
1689,297.14216709375006,297.25567281250005,59.0,80.0
1690,297.3145808437501,297.5171670000001,61.0,81.0
1691,297.3145808437501,297.5272244687501,64.0,84.0
1692,297.3145808437501,297.5487761875001,57.0,76.0
1693,297.65940834375004,298.19532775000005,52.0,79.0
1694,298.4338334375001,298.61774143750006,62.0,67.0
1695,298.5013621562501,298.66084487500007,66.0,73.0
1696,298.59762650000005,298.6910172812501,69.0,72.0
1697,298.00423584375005,298.70682187500006,57.0,84.0
1698,297.3145808437501,298.7125690000001,45.0,83.0
1699,298.00423584375005,298.7140057812501,61.0,84.0
1700,298.00423584375005,298.7154425625001,64.0,89.0
1701,298.34906334375006,298.7255000312501,52.0,83.0
1702,298.6594080937501,298.81027012500005,74.0,86.0
1703,299.00998271875005,299.1795229062501,69.0,78.0
1704,299.3390056250001,299.42233893750006,71.0,89.0
1705,299.6938905937501,299.81601700000004,78.0,86.0
1706,298.6436035000001,301.44532693750006,38.0,85.0
