,start,end,pitch,velocity
0,38.12357011666668,38.362700216666674,70.0,91.0
1,38.340961116666676,38.99132252500001,73.0,93.0
2,38.993134116666674,39.42791611666667,73.0,90.0
3,39.42791611666667,39.86269811666668,70.0,87.0
4,39.86269811666668,40.15255278333334,73.0,99.0
5,40.08008911666668,40.514871116666676,75.0,90.0
6,40.514871116666676,41.60182611666667,73.0,99.0
7,41.60182611666667,41.817405525000005,66.0,97.0
8,41.81921711666668,42.25218752500001,66.0,93.0
9,42.25399911666668,42.46957852500001,66.0,92.0
10,42.471390116666676,42.90436052500001,66.0,93.0
11,42.906172116666674,43.12356311666667,66.0,94.0
12,43.12356311666667,43.35544685000001,68.0,85.0
13,43.34095411666667,43.59276535833334,70.0,84.0
14,43.55834511666667,43.99312711666668,71.0,91.0
15,43.99312711666668,45.09643934166667,70.0,100.0
16,45.09643934166667,45.54420034166667,63.0,95.0
17,45.54420034166667,45.766215170833334,66.0,91.0
18,45.76808084166667,46.887483341666666,66.0,94.0
19,46.887483341666666,47.335244341666666,71.0,98.0
20,47.335244341666666,47.783005341666666,70.0,90.0
21,47.783005341666666,48.006885841666666,68.0,95.0
22,48.006885841666666,48.674958116666666,66.0,85.0
23,48.674958116666666,52.15678334166667,68.0,94.0
24,52.15678334166667,52.432902625000004,70.0,79.0
25,52.38066384166667,53.050439670833335,73.0,84.0
26,53.05230534166667,53.50006634166667,73.0,99.0
27,53.50006634166667,53.94782734166667,70.0,85.0
28,53.94782734166667,54.21648394166667,73.0,96.0
29,54.17170784166667,54.61946884166667,75.0,93.0
30,54.61946884166667,55.73530211666667,73.0,98.0
31,55.73530211666667,55.950881525,66.0,90.0
32,55.952693116666666,56.385663525,66.0,86.0
33,56.38747511666667,56.603054525000005,66.0,66.0
34,56.60486611666667,57.03964811666667,66.0,72.0
35,57.03964811666667,57.49798080833334,68.0,79.0
36,57.47443011666667,57.72624135833333,70.0,85.0
37,57.69182111666667,58.126603116666665,71.0,89.0
38,58.126603116666665,59.21355811666667,70.0,96.0
39,59.21355811666667,59.43094911666667,63.0,90.0
40,59.43094911666667,59.863919525,66.0,83.0
41,59.865731116666666,60.298701525,66.0,92.0
42,60.30051311666667,60.73529511666667,66.0,92.0
43,60.73529511666667,60.96547386666667,68.0,86.0
44,60.95444446666667,61.300032333333334,70.0,93.0
45,61.17503246666667,62.71909367083334,66.0,76.0
46,62.72095934166667,63.61461567083334,66.0,94.0
47,63.61648134166667,64.06424234166667,66.0,94.0
48,64.06424234166667,64.50843411666668,63.0,84.0
49,64.50843411666668,68.00123646666668,68.0,97.0
50,68.00123646666668,68.44057423333334,75.0,109.0
51,68.44241246666668,68.66116223333334,75.0,100.0
52,68.66300046666667,69.38542616666668,75.0,97.0
53,69.32476446666668,69.83027863333335,77.0,97.0
54,69.76594046666668,70.44424856666667,78.0,105.0
55,70.42770446666668,71.53064446666667,73.0,98.0
56,71.53064446666667,71.96998223333334,71.0,98.0
57,71.97182046666667,72.19057023333335,71.0,95.0
58,72.19240846666668,72.85417246666668,71.0,96.0
59,72.85417246666668,73.31924550000001,73.0,95.0
60,73.29534846666668,74.00490653333334,75.0,96.0
61,73.95711246666667,75.06005246666668,70.0,91.0
62,75.06005246666668,75.49939023333334,75.0,106.0
63,75.50122846666667,75.71997823333335,75.0,97.0
64,75.72181646666668,76.38358046666667,75.0,98.0
65,76.38358046666667,76.875534275,77.0,99.0
66,76.82299811666668,77.55850433333335,78.0,99.0
67,77.47517111666667,78.56212611666668,73.0,99.0
68,78.56212611666668,78.77770552500002,71.0,100.0
69,78.77951711666668,78.99509652500001,71.0,93.0
70,78.99690811666667,79.21248752500001,71.0,86.0
71,79.21429911666668,80.95342711666667,71.0,97.0
72,80.95342711666667,81.39545548333334,70.0,93.0
73,81.38820911666667,81.82842589166668,68.0,77.0
74,81.82299111666667,85.57154846666667,66.0,66.0
75,85.57154846666667,86.02559210000001,73.0,96.0
76,86.01272446666667,86.23331246666667,75.0,87.0
77,86.23331246666667,86.45206223333334,78.0,87.0
78,86.45390046666667,86.89507646666667,78.0,84.0
79,86.89507646666667,87.33449411666668,73.0,87.0
80,87.33449411666668,87.76927611666667,75.0,87.0
81,87.76927611666667,87.99753666666668,70.0,73.0
82,87.98666711666667,89.07538046666666,73.0,87.0
83,89.07538046666666,89.29413023333333,78.0,105.0
84,89.29596846666666,89.73530623333333,78.0,92.0
85,89.73714446666666,89.95589423333332,78.0,95.0
86,89.95773246666667,90.39890846666667,78.0,97.0
87,90.39890846666667,90.84008446666667,73.0,96.0
88,90.84008446666667,91.06067246666666,75.0,98.0
89,91.06067246666666,91.50184846666666,70.0,91.0
90,91.50184846666666,92.60473367083334,68.0,94.0
91,92.60659934166667,93.05436034166667,68.0,99.0
92,93.05436034166667,93.32674828333333,70.0,99.0
93,93.27824084166667,93.94801667083334,71.0,93.0
94,93.94988234166667,94.226001625,71.0,93.0
95,94.17376284166667,94.39764334166667,73.0,93.0
96,94.39764334166667,94.920031175,75.0,85.0
97,94.84540434166667,95.31928473333333,73.0,100.0
98,95.29316534166666,95.74092634166666,75.0,97.0
99,95.74092634166666,95.96480684166667,73.0,94.0
100,95.96480684166667,99.64065746666665,70.0,92.0
101,99.64065746666665,100.08550993333333,73.0,98.0
102,100.08183346666667,100.30242146666666,75.0,81.0
103,100.30242146666666,100.52117123333332,78.0,87.0
104,100.52300946666666,100.96418546666666,78.0,90.0
105,100.96418546666666,101.40536146666666,73.0,97.0
106,101.40536146666666,101.84653746666666,75.0,97.0
107,101.84653746666666,102.07631663333332,70.0,81.0
108,102.06712546666665,103.15551911666667,73.0,95.0
109,103.15551911666667,103.588489525,78.0,103.0
110,103.59030111666667,103.80588052499999,78.0,97.0
111,103.80769211666666,104.023271525,78.0,93.0
112,104.02508311666666,104.45986511666666,78.0,99.0
113,104.45986511666666,104.675444525,73.0,90.0
114,104.67725611666667,104.89464711666666,73.0,93.0
115,104.89464711666666,105.11203811666667,75.0,99.0
116,105.11203811666667,105.545008525,70.0,87.0
117,105.54682011666667,105.76421111666667,70.0,94.0
118,105.76421111666667,106.63731613958333,68.0,100.0
119,106.63921007916666,107.09375557916667,68.0,97.0
120,107.09375557916667,107.37595257708332,70.0,100.0
121,107.32102832916667,108.45739207916667,71.0,99.0
122,108.45739207916667,108.91193757916666,73.0,109.0
123,108.91193757916666,109.16572548333333,75.0,96.0
124,109.13921032916666,109.36104811666667,73.0,94.0
125,109.36104811666667,109.79583011666666,71.0,95.0
126,109.79583011666666,110.04401817499999,70.0,104.0
127,110.01322111666666,110.51322041666666,68.0,99.0
128,110.44800311666665,113.70886811666666,66.0,79.0
129,113.70886811666666,114.14365011666666,73.0,111.0
130,114.14365011666666,114.36104111666666,75.0,98.0
131,114.36104111666666,114.576620525,78.0,98.0
132,114.57843211666666,115.01321411666666,78.0,93.0
133,115.01321411666666,115.44799611666666,73.0,106.0
134,115.44799611666666,115.88277811666666,75.0,105.0
135,115.88277811666666,116.10016911666666,70.0,93.0
136,116.10016911666666,117.21665134166666,73.0,98.0
137,117.21665134166666,117.43866617083333,78.0,106.0
138,117.44053184166667,117.88642717083333,78.0,101.0
139,117.88829284166667,118.11030767083334,78.0,103.0
140,118.11217334166666,118.55993434166666,78.0,103.0
141,118.55993434166666,119.00412611666667,73.0,101.0
142,119.00412611666667,119.43890811666667,75.0,103.0
143,119.43890811666667,119.65629911666666,70.0,98.0
144,119.65629911666666,120.741442525,68.0,96.0
145,120.74325411666666,121.17803611666666,68.0,101.0
146,121.17803611666666,121.43890531666666,70.0,93.0
147,121.39542711666667,122.04578852499999,71.0,89.0
148,122.04760011666666,122.26499111666666,71.0,96.0
149,122.26499111666666,122.48238211666667,73.0,95.0
150,122.48238211666667,122.91716411666667,75.0,91.0
151,122.91716411666667,123.35194611666667,73.0,100.0
152,123.35194611666667,123.78672811666667,75.0,91.0
153,123.78672811666667,124.18098909999999,73.0,95.0
154,124.00411911666666,127.72534211666665,70.0,93.0
155,127.72534211666665,128.16012411666665,73.0,109.0
156,128.16012411666665,128.37751511666664,75.0,99.0
157,128.37751511666664,128.59482623333332,78.0,90.0
158,128.59666446666665,129.03784046666667,78.0,93.0
159,129.03784046666667,129.47901646666665,73.0,97.0
160,129.47901646666665,129.92019246666666,75.0,99.0
161,129.92019246666666,130.14078046666666,70.0,93.0
162,130.14078046666666,131.24739707916666,73.0,100.0
163,131.24739707916666,131.70004863958331,78.0,103.0
164,131.70194257916665,131.9273213895833,78.0,100.0
165,131.92921532916665,132.14924152499998,78.0,98.0
166,132.15105311666665,132.58583511666663,78.0,97.0
167,132.58583511666663,132.80141452499998,73.0,97.0
168,132.80322611666665,133.02061711666664,73.0,91.0
169,133.02061711666664,133.23800811666663,75.0,93.0
170,133.23800811666663,133.67097852499998,70.0,96.0
171,133.67279011666665,133.89018111666664,70.0,99.0
172,133.89018111666664,134.7614486708333,68.0,96.0
173,134.76331434166664,135.21107534166663,68.0,98.0
174,135.21107534166663,135.46853791666663,70.0,98.0
175,135.43495584166664,136.5507092333333,71.0,96.0
176,136.55254746666662,136.99372346666664,71.0,107.0
177,136.99372346666664,137.26026729999995,73.0,96.0
178,137.21431146666663,138.31549311666663,75.0,99.0
179,138.31549311666663,138.96766611666663,71.0,104.0
180,138.96766611666663,139.6198391166666,70.0,101.0
181,139.6198391166666,140.05462111666662,68.0,101.0
182,140.05462111666662,143.5869504666666,66.0,101.0
183,171.46366646666655,171.90484246666657,70.0,91.0
184,171.90484246666657,172.56476823333324,73.0,93.0
185,172.56660646666657,173.00778246666655,73.0,90.0
186,173.00778246666655,173.44895846666657,70.0,87.0
187,173.44895846666657,173.74491403333323,73.0,99.0
188,173.66954646666656,174.11072246666657,75.0,90.0
189,174.11072246666657,175.21366246666656,73.0,99.0
190,175.21366246666656,175.43241223333322,66.0,97.0
191,175.43425046666655,175.87358823333324,66.0,93.0
192,175.87542646666657,176.09417623333323,66.0,92.0
193,176.09601446666656,176.53535223333324,66.0,93.0
194,176.53719046666657,176.75777846666657,66.0,94.0
195,176.75777846666657,176.99307233333323,68.0,85.0
196,176.97836646666656,177.2338808999999,70.0,84.0
197,177.19895446666655,177.64013046666656,71.0,91.0
198,177.64013046666656,178.74307046666655,70.0,100.0
199,178.74307046666655,179.18424646666656,63.0,95.0
200,179.18424646666656,179.40299623333323,66.0,91.0
201,179.40483446666656,180.49322811666656,66.0,94.0
202,180.49322811666656,180.92801011666654,71.0,98.0
203,180.92801011666654,181.36279211666655,70.0,90.0
204,181.36279211666655,181.58018311666655,68.0,95.0
205,181.58018311666655,182.23411446666654,66.0,85.0
206,182.23411446666654,185.76352246666656,68.0,94.0
207,185.76352246666656,186.03374276666653,70.0,79.0
208,185.98411046666655,186.64403623333322,73.0,84.0
209,186.64587446666656,187.08705046666654,73.0,99.0
210,187.08705046666654,187.52646811666656,70.0,85.0
211,187.52646811666656,187.78733731666657,73.0,96.0
212,187.74385911666656,188.17864111666657,75.0,93.0
213,188.17864111666657,189.26916534166656,73.0,98.0
214,189.26916534166656,189.49118017083322,66.0,90.0
215,189.49304584166654,189.93894117083323,66.0,86.0
216,189.94080684166656,190.16103823333322,66.0,66.0
217,190.16287646666655,190.60405246666656,66.0,72.0
218,190.60405246666656,191.0691254999999,68.0,79.0
219,191.04522846666654,191.30074289999988,70.0,85.0
220,191.26581646666656,191.70699246666655,71.0,89.0
221,191.70699246666655,192.80993246666654,70.0,96.0
222,192.80993246666654,193.05993219999988,63.0,90.0
223,193.03052046666656,193.4698582333332,66.0,83.0
224,193.47169646666654,193.91103423333323,66.0,92.0
225,193.91287246666656,194.35404846666654,66.0,92.0
226,194.35404846666654,194.62179109166655,68.0,86.0
227,194.57287811666654,194.91345734999987,70.0,93.0
228,194.79026911666654,196.31019452499987,66.0,76.0
229,196.31200611666654,197.18895819166653,66.0,94.0
230,197.19091131666653,197.68895819166653,66.0,94.0
231,197.65966131666653,198.1209336583332,63.0,84.0
232,198.11736222916653,201.58598711666653,68.0,97.0
233,201.58598711666653,202.01895752499985,75.0,109.0
234,202.02076911666651,202.23634852499987,75.0,100.0
235,202.23816011666653,202.95192723333318,75.0,97.0
236,202.8903331166665,203.3867092333332,77.0,97.0
237,203.32511511666652,203.99359244166652,78.0,105.0
238,203.97728811666653,205.06781234166652,73.0,98.0
239,205.06781234166652,205.51370767083318,71.0,98.0
240,205.5155733416665,205.7375881708332,71.0,95.0
241,205.73945384166652,206.4110953416665,71.0,96.0
242,206.4110953416665,206.88311006249984,73.0,95.0
243,206.85885634166652,207.5808709541665,75.0,96.0
244,207.53049784166652,208.64633111666652,70.0,91.0
245,208.64633111666652,209.07930152499983,75.0,106.0
246,209.0811131166665,209.29669252499986,75.0,97.0
247,209.29850411666652,209.9506771166665,75.0,98.0
248,209.9506771166665,210.43799527499985,77.0,99.0
249,210.3854591166665,211.12096533333317,78.0,99.0
250,211.03763211666652,212.1245871166665,73.0,99.0
251,212.1245871166665,212.34016652499986,71.0,100.0
252,212.34197811666652,212.55755752499985,71.0,93.0
253,212.55936911666652,212.77494852499984,71.0,86.0
254,212.7767601166665,214.7478254666665,71.0,97.0
255,214.7478254666665,215.19635439999985,70.0,93.0
256,215.18900146666653,215.63569216666653,68.0,77.0
257,215.6301774666665,219.15958546666653,66.0,66.0
258,219.15958546666653,219.61362909999986,73.0,96.0
259,219.6007614666665,219.82134946666653,75.0,87.0
260,219.82134946666653,220.0400992333332,78.0,87.0
261,220.04193746666652,220.4831134666665,78.0,84.0
262,220.4831134666665,220.92253111666653,73.0,87.0
263,220.92253111666653,221.35731311666652,75.0,87.0
264,221.35731311666652,221.58557366666653,70.0,73.0
265,221.57470411666654,222.66165911666653,73.0,87.0
266,222.66165911666653,222.87723852499985,78.0,105.0
267,222.87905011666652,223.31202052499987,78.0,92.0
268,223.31383211666653,223.52941152499986,78.0,95.0
269,223.53122311666652,223.96600511666654,78.0,97.0
270,223.96600511666654,224.40435634166653,73.0,96.0
271,224.40435634166653,224.6282368416665,75.0,98.0
272,224.6282368416665,225.07599784166652,70.0,91.0
273,225.07599784166652,226.19353467083317,68.0,94.0
274,226.19540034166653,226.6431613416665,68.0,99.0
275,226.6431613416665,226.91554928333318,70.0,99.0
276,226.86704184166652,227.52032352499984,71.0,93.0
277,227.5221351166665,227.79025068333317,71.0,93.0
278,227.73952611666653,227.95691711666652,73.0,93.0
279,227.95691711666652,228.4641627833332,75.0,85.0
280,228.3916991166665,228.85155894791652,73.0,100.0
281,228.8247732291665,229.2533447291665,75.0,97.0
282,229.2533447291665,229.4676304791665,73.0,94.0
283,229.4676304791665,233.17823734166652,70.0,92.0
284,233.17823734166652,233.62972968333318,73.0,98.0
285,233.6259983416665,233.8498788416665,75.0,81.0
286,233.8498788416665,234.07189367083316,78.0,87.0
287,234.07375934166652,234.5215203416665,78.0,90.0
288,234.5215203416665,234.9657121166665,73.0,97.0
289,234.9657121166665,235.3570159166665,75.0,97.0
290,235.1831031166665,235.41136366666652,70.0,81.0
291,235.4004941166665,236.4874491166665,73.0,95.0
292,236.4874491166665,236.92041952499983,78.0,103.0
293,236.9222311166665,237.13781052499985,78.0,97.0
294,237.13962211666652,237.35520152499984,78.0,93.0
295,237.3570131166665,237.80185384166649,78.0,99.0
296,237.80185384166649,238.02386867083317,73.0,90.0
297,238.0257343416665,238.2496148416665,73.0,93.0
298,238.2496148416665,238.4734953416665,75.0,99.0
299,238.4734953416665,238.91939067083317,70.0,87.0
300,238.9212563416665,239.1451368416665,70.0,94.0
301,239.1451368416665,240.25747651458315,68.0,100.0
302,240.2592622291665,240.6878337291665,68.0,97.0
303,240.6878337291665,240.9556909166665,70.0,100.0
304,240.9021194791665,241.7592624791665,71.0,99.0
305,241.7592624791665,242.1878339791665,63.0,109.0
306,242.1878339791665,242.4289054479165,65.0,96.0
307,242.4021197291665,242.6164054791665,63.0,94.0
308,242.6164054791665,243.0705264041665,61.0,95.0
309,243.0705264041665,243.36475719791648,60.0,104.0
310,243.3012956541665,243.9728671166665,68.0,99.0
311,243.9728671166665,247.2267460791665,66.0,79.0
312,247.2267460791665,247.6812915791665,73.0,111.0
313,247.6812915791665,247.9085643291665,75.0,98.0
314,247.9085643291665,248.13394313958315,78.0,98.0
315,248.1358370791665,248.5903825791665,78.0,93.0
316,248.5903825791665,249.0394931166665,73.0,106.0
317,249.0394931166665,249.4742751166665,75.0,105.0
318,249.4742751166665,249.6916661166665,70.0,93.0
319,249.6916661166665,250.7786211166665,73.0,98.0
320,250.7786211166665,250.99420052499983,78.0,106.0
321,250.9960121166665,251.42898252499984,78.0,101.0
322,251.4307941166665,251.64637352499983,78.0,103.0
323,251.6481851166665,252.0829671166665,78.0,103.0
324,252.0829671166665,252.5177491166665,73.0,101.0
325,252.5177491166665,252.9525311166665,75.0,103.0
326,252.9525311166665,253.1699221166665,70.0,98.0
327,253.1699221166665,254.26958523333317,68.0,96.0
328,254.2714234666665,254.71259946666652,68.0,101.0
329,254.71259946666652,254.97546683333317,70.0,93.0
330,254.9331874666665,255.59311323333318,71.0,89.0
331,255.59495146666652,255.8155394666665,71.0,96.0
332,255.8155394666665,256.0398040791665,73.0,95.0
333,256.0398040791665,256.4943495791665,75.0,91.0
334,256.4943495791665,256.9417522291665,73.0,100.0
335,256.9417522291665,257.3703237291665,75.0,91.0
336,257.3703237291665,257.58460947916655,73.0,95.0
337,257.58460947916655,261.29708207916656,70.0,93.0
338,261.29708207916656,261.75162757916655,73.0,109.0
339,261.75162757916655,261.97890032916655,75.0,99.0
340,261.97890032916655,262.1989265249999,78.0,90.0
341,262.20073811666657,262.63552011666656,78.0,93.0
342,262.63552011666656,263.07030211666654,73.0,97.0
343,263.07030211666654,263.5050841166666,75.0,99.0
344,263.5050841166666,263.72247511666654,70.0,93.0
345,263.72247511666654,264.8371464666666,73.0,100.0
346,264.8371464666666,265.27648423333324,78.0,103.0
347,265.27832246666657,265.49707223333326,78.0,100.0
348,265.4989104666666,265.7176602333333,78.0,98.0
349,265.7194984666666,266.1606744666666,78.0,97.0
350,266.1606744666666,266.3794242333333,73.0,97.0
351,266.3812624666666,266.6018504666666,73.0,91.0
352,266.6018504666666,266.8224384666666,75.0,93.0
353,266.8224384666666,267.26177623333325,70.0,96.0
354,267.2636144666666,267.4842024666666,70.0,99.0
355,267.4842024666666,268.3629845249999,68.0,96.0
356,268.3647961166666,268.79957811666657,68.0,98.0
357,268.79957811666657,269.0495777666666,70.0,98.0
358,269.0169691166666,270.10211252499994,71.0,96.0
359,270.1039241166666,270.53870611666656,71.0,107.0
360,270.53870611666656,270.80138690833326,73.0,96.0
361,270.7560971166666,271.84305211666657,75.0,99.0
362,271.84305211666657,272.4952251166666,71.0,104.0
363,272.4952251166666,273.1473981166666,70.0,101.0
364,273.1473981166666,273.58574934166654,68.0,101.0
365,273.58574934166654,277.16602646666655,66.0,101.0
366,277.16602646666655,277.6108789333332,73.0,98.0
367,277.60720246666654,277.82779046666656,75.0,81.0
368,277.82779046666656,278.04654023333325,78.0,87.0
369,278.0483784666666,278.48955446666656,78.0,90.0
370,278.48955446666656,278.93073046666655,73.0,97.0
371,278.93073046666655,279.37190646666653,75.0,97.0
372,279.37190646666653,279.60352386666654,70.0,81.0
373,279.59249446666655,280.69196822916655,73.0,95.0
374,280.69196822916655,280.9044682645832,78.0,103.0
375,280.90625397916654,281.3330397645832,78.0,97.0
376,281.33482547916657,281.54900752499987,78.0,93.0
377,281.55081911666656,281.98560111666654,78.0,99.0
378,281.98560111666654,282.20118052499987,73.0,90.0
379,282.20299211666656,282.4203831166665,73.0,93.0
380,282.4203831166665,282.63777411666655,75.0,99.0
381,282.63777411666655,283.0707445249999,70.0,87.0
382,283.07255611666653,283.28994711666655,70.0,94.0
383,283.28994711666655,284.15943123333324,68.0,100.0
384,284.16126946666657,284.60244546666655,68.0,97.0
385,284.60244546666655,284.87818046666655,70.0,100.0
386,284.8230334666666,285.49132767083324,71.0,99.0
387,285.4931933416666,285.7170738416666,71.0,100.0
388,285.7170738416666,286.16630495,73.0,100.0
389,285.9428200791666,286.6246383291666,75.0,96.0
390,286.6246383291666,287.06798255208327,73.0,94.0
391,287.0590539791666,287.36083974375,75.0,95.0
392,287.2733397291666,287.78941124374995,73.0,104.0
393,287.7019112291666,291.16439115416665,70.0,99.0
394,291.16439115416665,291.6259296541666,73.0,111.0
395,291.6259296541666,291.85669890416665,75.0,98.0
396,291.85669890416665,292.0800302333333,78.0,98.0
397,292.0818684666666,292.5230444666666,78.0,93.0
398,292.5230444666666,292.9590941916666,73.0,106.0
399,292.9590941916666,293.38162919166666,75.0,105.0
400,293.38162919166666,293.5928966916666,70.0,93.0
401,293.5928966916666,294.70662334166667,73.0,98.0
402,294.70662334166667,294.9286381708333,78.0,106.0
403,294.9305038416667,295.37639917083334,78.0,101.0
404,295.37826484166663,295.60027967083334,78.0,103.0
405,295.60214534166664,296.04990634166666,78.0,103.0
406,296.04990634166666,296.2719211708333,73.0,101.0
407,296.27378684166666,296.55363746666666,73.0,100.0
408,296.49766734166667,296.7215478416667,75.0,103.0
409,296.7215478416667,297.16744317083334,70.0,100.0
410,297.16930884166663,297.38791222916666,70.0,98.0
411,297.38791222916666,298.24326951458335,68.0,96.0
412,298.24505522916667,298.67362672916664,68.0,101.0
413,298.67362672916664,298.92898391458334,70.0,93.0
414,298.88791247916663,299.7120809625,71.0,89.0
415,299.71379329166666,300.15327384166665,71.0,99.0
416,300.15327384166665,300.4480498333333,73.0,92.0
417,300.37715434166665,303.51148134166664,75.0,97.0
418,303.51148134166664,304.18312284166666,71.0,104.0
419,304.18312284166666,304.8547643416667,70.0,109.0
420,304.8547643416667,305.52640584166664,68.0,97.0
421,305.52640584166664,308.88461334166664,66.0,99.0
