,start,end,pitch,velocity
0,3.643378466666667,4.0147016,66.0,63.0
1,3.863966466666667,4.193010233333333,68.0,41.0
2,4.084554466666667,4.246319000000001,70.0,55.0
3,4.966906466666667,5.404406000000001,66.0,33.0
4,5.187494466666667,5.4871265000000005,68.0,47.0
5,5.408082466666667,5.871317266666667,73.0,63.0
6,5.849258466666667,6.0771994000000005,66.0,42.0
7,3.422790466666667,6.0882288,61.0,47.0
8,2.981614466666667,6.185655166666667,54.0,60.0
9,6.069846466666667,6.886022066666667,68.0,50.0
10,6.290434466666667,6.909919100000001,70.0,61.0
11,6.952198466666667,7.272051066666667,66.0,47.0
12,7.172786466666667,7.810653433333334,68.0,60.0
13,7.613962466666667,8.051462,66.0,52.0
14,6.511022466666667,8.091903133333334,54.0,70.0
15,6.731610466666667,8.5091821,61.0,44.0
16,8.716902466666667,9.301460666666667,61.0,46.0
17,8.937490466666667,9.3970488,66.0,51.0
18,9.378666466666667,9.602930933333335,68.0,62.0
19,8.496314466666668,9.613960333333335,54.0,23.0
20,9.599254466666668,9.876827700000002,61.0,55.0
21,9.378666466666667,9.928298233333335,73.0,63.0
22,9.819842466666667,9.990798166666668,68.0,45.0
23,10.040430466666667,10.3069743,66.0,67.0
24,10.040430466666667,10.371312466666668,70.0,72.0
25,10.261018466666668,10.845576666666668,61.0,50.0
26,10.481606466666667,11.012855900000002,66.0,51.0
27,10.702194466666667,11.235282133333333,68.0,64.0
28,10.702194466666667,11.279399733333333,73.0,72.0
29,10.040430466666667,11.294105600000002,54.0,69.0
30,11.143370466666667,11.3768261,61.0,61.0
31,11.363958466666668,11.623149366666668,68.0,57.0
32,11.584546466666668,11.795943300000001,70.0,61.0
33,11.805134466666667,12.288589833333335,68.0,59.0
34,11.805134466666667,12.3418986,73.0,64.0
35,12.025722466666668,12.641530633333334,61.0,60.0
36,12.246310466666667,12.801456933333334,65.0,56.0
37,12.466898466666668,12.9705744,68.0,59.0
38,12.908074466666667,13.158074200000001,70.0,67.0
39,13.128662466666668,13.202191800000001,61.0,49.0
40,11.805134466666667,13.2187359,53.0,64.0
41,13.568080116666668,13.827137725,61.0,59.0
42,13.568080116666668,13.865181150000002,66.0,61.0
43,14.002862116666668,14.180398100000001,61.0,53.0
44,13.785471116666667,14.318079066666668,58.0,48.0
45,13.568080116666668,14.751049475,51.0,64.0
46,14.220253116666667,14.756484250000002,66.0,75.0
47,14.655035116666667,14.870614525,58.0,49.0
48,14.872426116666668,15.109744625000001,68.0,59.0
49,15.089817116666667,15.281845833333334,70.0,59.0
50,15.307208116666668,15.776410358333335,66.0,72.0
51,15.741990116666667,16.21300395,61.0,55.0
52,15.959381116666668,16.240177825,63.0,57.0
53,15.307208116666668,16.28546761666667,49.0,67.0
54,15.524599116666668,16.316264675,56.0,50.0
55,16.17677211666667,16.38329356666667,65.0,60.0
56,16.394163116666668,16.645974358333333,66.0,60.0
57,16.611554116666667,16.74198871666667,68.0,64.0
58,17.04633611666667,17.501045625000003,66.0,72.0
59,17.04633611666667,17.524596316666667,63.0,59.0
60,17.698509116666667,18.053581083333334,63.0,53.0
61,17.26372711666667,18.216624333333336,54.0,44.0
62,17.481118116666668,18.236551841666667,59.0,58.0
63,17.04633611666667,18.283653225000002,47.0,72.0
64,18.13329111666667,18.29633436666667,66.0,72.0
65,18.785464116666667,19.162275183333335,61.0,61.0
66,18.785464116666667,19.182202691666667,65.0,66.0
67,18.785464116666667,19.21299975,68.0,66.0
68,19.437637116666668,19.926766866666668,61.0,61.0
69,19.437637116666668,20.039085550000003,66.0,62.0
70,18.785464116666667,20.075317383333335,49.0,72.0
71,19.22024611666667,20.12241876666667,56.0,44.0
72,20.524592116666668,20.678577408333336,61.0,48.0
73,20.524592116666668,20.807200416666667,66.0,53.0
74,20.524592116666668,20.89415681666667,70.0,48.0
75,20.95937411666667,21.638720991666666,61.0,44.0
76,21.17676511666667,21.765532408333335,66.0,54.0
77,20.524592116666668,21.895967008333336,54.0,66.0
78,21.61154711666667,21.923140883333335,73.0,73.0
79,21.82893811666667,22.098865275,61.0,35.0
80,22.04632911666667,22.557033895833335,71.0,50.0
81,22.49642782916667,22.96612484583334,61.0,47.0
82,22.72370057916667,23.07597334166667,66.0,52.0
83,22.95097332916667,23.49074611041667,70.0,78.0
84,23.40551882916667,23.509685506250005,61.0,63.0
85,22.26915507916667,23.53051884166667,54.0,62.0
86,23.63279157916667,23.795670383333338,68.0,56.0
87,23.86006432916667,24.11123396666667,65.0,70.0
88,24.08366046666667,24.322630800000002,66.0,70.0
89,24.30424846666667,25.039541800000002,61.0,57.0
90,24.52483646666667,25.32446796666667,66.0,50.0
91,25.186600466666672,25.392482600000005,77.0,54.0
92,24.08366046666667,25.464173700000003,54.0,73.0
93,25.40718846666667,25.54873243333334,78.0,70.0
94,25.40718846666667,25.714173433333336,61.0,50.0
95,25.62777646666667,26.056750750000006,68.0,59.0
96,25.62777646666667,26.083924625000005,73.0,62.0
97,25.62777646666667,26.317619950000005,77.0,61.0
98,26.063997116666673,26.681749875000005,61.0,53.0
99,26.49877911666667,26.89008291666667,68.0,59.0
100,26.281388116666673,26.928126341666673,65.0,49.0
101,25.84660611666667,27.12377824166667,53.0,61.0
102,26.933561116666674,27.196241908333338,61.0,59.0
103,27.58573411666667,27.904574250000007,73.0,67.0
104,27.58573411666667,27.906385841666673,70.0,59.0
105,27.80312511666667,28.335733066666673,58.0,56.0
106,28.020516116666673,28.53863133333334,63.0,55.0
107,28.237907116666673,28.605660225000005,70.0,39.0
108,28.237907116666673,28.62015295833334,66.0,49.0
109,28.67268911666667,28.937181500000005,65.0,59.0
110,27.58573411666667,28.978848108333338,51.0,69.0
111,28.67268911666667,29.009645166666672,68.0,67.0
112,28.890080116666674,29.067616100000006,58.0,57.0
113,29.107471116666673,29.25602163333334,66.0,57.0
114,29.107471116666673,29.279572325000007,70.0,60.0
115,29.324862116666672,29.765078891666672,68.0,73.0
116,29.324862116666672,29.77232525833334,65.0,64.0
117,29.977035116666674,30.263293820833336,65.0,61.0
118,29.75964411666667,30.38269675416667,61.0,58.0
119,29.54225311666667,30.453592245833338,58.0,52.0
120,29.324862116666672,30.468517612500005,49.0,63.0
121,30.197995341666672,30.485308650000004,66.0,60.0
122,30.421875841666672,30.599114570833336,68.0,61.0
123,30.645756341666672,30.88083086666667,65.0,66.0
124,30.869636841666672,31.145756125000005,61.0,72.0
125,31.093517341666672,31.35097991666667,63.0,64.0
126,31.541278341666672,31.95781673333334,59.0,56.0
127,31.765158841666672,32.24641936666667,61.0,69.0
128,31.765158841666672,32.2978899,66.0,69.0
129,31.093517341666672,32.325463400000004,47.0,67.0
130,31.317397841666672,32.332816333333334,54.0,60.0
131,32.20781646666667,32.408183900000004,59.0,66.0
132,32.42840446666667,32.61590426666667,61.0,49.0
133,32.64899246666667,32.707815933333336,68.0,41.0
134,32.86958046666667,33.17656543333334,61.0,61.0
135,32.86958046666667,33.20965363333334,66.0,72.0
136,33.31075646666667,33.49274156666667,61.0,56.0
137,33.09016846666667,33.67840313333334,56.0,60.0
138,33.53134446666667,34.03869686666667,65.0,69.0
139,33.97252046666667,34.09384386666667,56.0,61.0
140,32.86958046666667,34.097520333333335,49.0,75.0
141,34.19310846666667,34.465167,66.0,62.0
142,34.41369646666667,34.564431600000006,68.0,70.0
143,34.63428446666667,34.961490000000005,66.0,67.0
144,34.63428446666667,34.961490000000005,70.0,66.0
145,34.63428446666667,34.97619586666667,61.0,61.0
146,35.07546046666667,35.393474833333336,54.0,49.0
147,35.29604846666667,35.52212448333334,58.0,60.0
148,35.29604846666667,35.55473313333334,66.0,72.0
149,35.73226911666667,36.05110925000001,59.0,59.0
150,35.73226911666667,36.11451495833334,66.0,46.0
151,35.94966011666667,36.21958727500001,63.0,16.0
152,36.384442116666676,36.85545595000001,61.0,62.0
153,34.63428446666667,36.860890725000004,42.0,66.0
154,34.85487246666667,36.86632550000001,49.0,53.0
155,36.384442116666676,36.868137091666675,58.0,55.0
156,36.384442116666676,36.900745741666675,66.0,52.0
157,36.16705111666668,36.962339858333344,54.0,47.0
158,38.340961116666676,38.64712010833334,61.0,44.0
159,38.558352116666676,38.76487356666667,66.0,61.0
160,38.775743116666675,39.34639449166667,68.0,64.0
161,39.21052511666667,39.50581455833334,61.0,47.0
162,39.42791611666667,39.676104175000006,70.0,48.0
163,38.12357011666668,39.78479967500001,54.0,54.0
164,39.64530711666667,40.32103080833334,68.0,61.0
165,40.08008911666668,40.75581280833334,61.0,47.0
166,40.29748011666668,40.81740692500001,65.0,35.0
167,39.86269811666668,40.99494290833334,53.0,55.0
168,40.514871116666676,41.14711660833334,73.0,61.0
169,40.949653116666674,41.24675415000001,61.0,40.0
170,41.16704411666667,41.39711625833334,68.0,46.0
171,41.38443511666667,41.80653597500001,66.0,67.0
172,42.03660811666668,42.35907143333334,63.0,47.0
173,41.81921711666668,42.77573751666667,58.0,39.0
174,42.25399911666668,42.811969350000005,71.0,64.0
175,42.688781116666675,42.88805620000001,59.0,66.0
176,41.60182611666667,42.92972280833334,51.0,57.0
177,42.906172116666674,43.156171766666674,63.0,52.0
178,43.12356311666667,43.31740342500001,68.0,57.0
179,43.34095411666667,43.650736291666675,66.0,50.0
180,43.55834511666667,44.00943144166668,58.0,46.0
181,43.77573611666668,44.210438233333335,61.0,59.0
182,43.34095411666667,44.57073196666667,49.0,59.0
183,44.21227646666667,44.635070133333336,70.0,52.0
184,44.65345246666667,44.7380112,58.0,48.0
185,44.87404046666667,45.04606622916667,61.0,44.0
186,45.09643934166667,45.284872095833336,68.0,42.0
187,45.32031984166667,45.77181218333334,66.0,62.0
188,45.54420034166667,46.0945732375,59.0,53.0
189,45.32031984166667,46.25502092916667,54.0,48.0
190,45.76808084166667,46.268080625,61.0,55.0
191,45.09643934166667,46.33711044583333,47.0,59.0
192,46.439722341666666,46.626289425,66.0,60.0
193,46.887483341666666,47.163602625,61.0,44.0
194,47.111363841666666,47.495692033333334,68.0,57.0
195,47.559124841666666,48.0423335875,61.0,57.0
196,47.335244341666666,48.0479306,58.0,49.0
197,47.111363841666666,48.115094750000004,54.0,46.0
198,46.887483341666666,48.13934847083333,46.0,57.0
199,48.230766341666666,48.749233375,66.0,62.0
200,48.674958116666666,48.749233375,66.0,38.0
201,48.674958116666666,49.32713111666667,63.0,33.0
202,48.674958116666666,49.36336295,71.0,60.0
203,49.109740116666664,49.906840450000004,56.0,54.0
204,48.892349116666665,49.910463633333336,51.0,51.0
205,49.32713111666667,49.912275225,58.0,58.0
206,48.674958116666666,49.92495636666667,44.0,63.0
207,49.76191311666667,50.01191276666667,59.0,61.0
208,50.19669511666667,50.36336155,66.0,39.0
209,50.41408611666667,50.81807105833333,65.0,67.0
210,50.848868116666665,51.3959688,61.0,51.0
211,51.066259116666664,51.557200458333334,66.0,64.0
212,50.41408611666667,51.57893955833333,49.0,70.0
213,51.50104111666667,51.57893955833333,68.0,62.0
214,50.631477116666666,51.64959163333334,56.0,48.0
215,51.93582311666667,52.153052,71.0,42.0
216,52.15678334166667,52.40118622083334,73.0,61.0
217,52.60454434166667,53.016857595833336,66.0,50.0
218,52.82842484166667,53.112006808333334,78.0,70.0
219,52.15678334166667,53.445961887500005,54.0,64.0
220,53.27618584166667,53.5131260375,66.0,47.0
221,52.38066384166667,53.69409610833333,61.0,44.0
222,53.72394684166667,53.99260344166667,82.0,64.0
223,53.94782734166667,54.136260095833336,80.0,63.0
224,54.17170784166667,54.91984184583333,61.0,59.0
225,54.61946884166667,54.977677641666666,68.0,48.0
226,54.39558834166667,55.10640892916667,65.0,55.0
227,55.067229841666666,55.23514021666667,73.0,61.0
228,53.94782734166667,55.248199912500006,53.0,60.0
229,55.291110341666666,55.462752058333336,75.0,49.0
230,55.73530211666667,55.994359725,71.0,44.0
231,55.73530211666667,56.030591558333334,75.0,60.0
232,55.514990841666666,56.059577025,78.0,59.0
233,55.952693116666666,56.73530071666667,59.0,56.0
234,56.170084116666665,56.81863393333334,63.0,40.0
235,55.73530211666667,56.914648291666666,51.0,60.0
236,56.38747511666667,56.93276420833333,66.0,58.0
237,56.82225711666667,56.950880125000005,71.0,49.0
238,57.03964811666667,57.179140675,59.0,58.0
239,57.25703911666667,57.505227175,68.0,47.0
240,57.47443011666667,58.126603116666665,70.0,63.0
241,58.126603116666665,58.53421124166667,61.0,47.0
242,57.47443011666667,58.575877850000005,49.0,60.0
243,58.34399411666667,58.584935808333334,66.0,60.0
244,57.909212116666666,58.66464584166667,58.0,54.0
245,58.56138511666667,58.75884860833334,68.0,54.0
246,58.77877611666667,58.97442801666667,70.0,59.0
247,58.99616711666667,59.331311575,73.0,59.0
248,59.21355811666667,59.644716933333335,66.0,57.0
249,59.21355811666667,59.668267625,71.0,56.0
250,59.865731116666666,60.0650062,63.0,55.0
251,59.865731116666666,60.25703491666667,70.0,54.0
252,59.64834011666667,60.401962250000004,59.0,57.0
253,59.43094911666667,60.51065775,54.0,48.0
254,60.30051311666667,60.537831625,61.0,60.0
255,59.21355811666667,60.548701175000005,47.0,61.0
256,60.30051311666667,60.55051276666667,68.0,58.0
257,60.95444446666667,61.121723700000004,66.0,56.0
258,60.95444446666667,61.1272384,61.0,56.0
259,60.95444446666667,61.331282300000005,46.0,62.0
260,61.17503246666667,61.39378223333334,54.0,59.0
261,61.39562046666667,61.720987766666674,58.0,52.0
262,61.61620846666667,62.07944326666667,61.0,54.0
263,62.05738446666667,62.13459026666667,66.0,63.0
264,62.72095934166667,63.07730247083334,66.0,46.0
265,62.72095934166667,63.09969052083334,63.0,52.0
266,62.72095934166667,63.112750216666676,44.0,59.0
267,62.72095934166667,63.14446662083334,71.0,64.0
268,62.94483984166667,63.18737705000001,51.0,47.0
269,63.16872034166667,63.33849638750001,56.0,55.0
270,63.39260084166667,63.737749945833336,63.0,57.0
271,63.84036184166667,63.963496116666676,66.0,66.0
272,64.50843411666668,65.354447425,68.0,56.0
273,64.50843411666668,65.36350538333333,66.0,56.0
274,64.50843411666668,65.46495451666667,73.0,49.0
275,65.37799811666667,65.78379465,61.0,44.0
276,65.59538911666667,65.8598815,66.0,59.0
277,64.50843411666668,65.94321471666667,49.0,64.0
278,65.81278011666667,65.95951904166667,68.0,62.0
279,66.03017111666668,66.16966367500001,70.0,58.0
280,66.2511853,67.38542830000002,49.0,79.0
281,66.24756211666667,67.50491346666668,61.0,44.0
282,66.24756211666667,67.51042816666667,73.0,56.0
283,67.30638426666668,67.56189870000001,44.0,74.0
284,66.24756211666667,67.62072216666668,66.0,51.0
285,67.54351636666668,68.03432466666668,37.0,77.0
286,68.00123646666668,68.28064793333334,63.0,69.0
287,68.00123646666668,68.28064793333334,66.0,69.0
288,68.00123646666668,68.28064793333334,70.0,69.0
289,68.44241246666668,68.96447073333334,58.0,36.0
290,68.88358846666668,69.28799980000001,63.0,53.0
291,68.00123646666668,69.321088,39.0,63.0
292,68.00123646666668,69.321088,51.0,63.0
293,68.88358846666668,69.38542616666668,70.0,69.0
294,68.88358846666668,69.48836723333335,66.0,69.0
295,69.32476446666668,69.72549933333335,58.0,44.0
296,69.76594046666668,70.22182233333335,63.0,67.0
297,69.76594046666668,70.28799873333334,66.0,69.0
298,69.76594046666668,70.37071923333335,70.0,69.0
299,70.20711646666668,70.63910130000001,58.0,37.0
300,70.64829246666667,70.93689510000002,73.0,61.0
301,70.64829246666667,71.08579200000001,65.0,69.0
302,70.64829246666667,71.09865963333334,61.0,44.0
303,69.76594046666668,71.13358606666668,37.0,66.0
304,69.76594046666668,71.13358606666668,49.0,66.0
305,70.64829246666667,71.140939,68.0,72.0
306,71.08946846666667,71.17402720000001,58.0,70.0
307,71.53064446666667,71.89277643333334,47.0,70.0
308,71.53064446666667,71.90748230000001,66.0,63.0
309,71.53064446666667,71.90932053333334,59.0,49.0
310,71.53064446666667,71.98836456666668,63.0,61.0
311,71.53064446666667,71.99755573333334,71.0,69.0
312,72.41299646666668,72.71262850000001,61.0,48.0
313,72.41299646666668,72.79351076666667,68.0,70.0
314,72.41299646666668,72.8118931,73.0,70.0
315,72.41299646666668,72.83762836666668,49.0,62.0
316,72.41299646666668,72.86520186666668,65.0,69.0
317,73.29534846666668,73.67034806666668,70.0,64.0
318,73.29534846666668,73.7824803,61.0,66.0
319,73.29534846666668,73.80453910000001,66.0,61.0
320,73.29534846666668,74.23652393333334,54.0,49.0
321,73.29534846666668,74.56005300000001,42.0,58.0
322,74.17770046666668,74.66850876666668,66.0,67.0
323,74.17770046666668,74.67402346666668,70.0,66.0
324,74.17770046666668,74.71078813333334,61.0,69.0
325,74.61887646666668,74.90747910000002,54.0,48.0
326,74.83946446666668,75.10784653333334,53.0,51.0
327,75.06005246666668,75.64277243333335,70.0,64.0
328,75.06005246666668,75.68321356666668,63.0,63.0
329,75.06005246666668,75.69056650000002,66.0,64.0
330,75.06005246666668,76.06372786666668,39.0,70.0
331,75.06005246666668,76.06372786666668,51.0,70.0
332,75.94240446666667,76.18872773333334,70.0,66.0
333,75.94240446666667,76.19240420000001,63.0,64.0
334,75.94240446666667,76.21630123333334,66.0,69.0
335,76.16299246666668,76.37255106666667,51.0,58.0
336,76.38358046666667,76.65747723333334,63.0,63.0
337,76.60416846666668,76.88278064166667,70.0,59.0
338,76.82299811666668,77.22879465000001,68.0,69.0
339,76.82299811666668,77.30125831666668,65.0,64.0
340,77.25778011666668,77.73422872500001,56.0,40.0
341,77.69256211666668,78.02227180000001,61.0,55.0
342,77.69256211666668,78.03495294166667,65.0,67.0
343,77.69256211666668,78.08024273333335,63.0,61.0
344,77.69256211666668,78.103793425,68.0,69.0
345,76.82299811666668,78.19980778333334,49.0,64.0
346,78.12734411666668,78.19980778333334,56.0,63.0
347,78.56212611666668,79.11828475833335,63.0,64.0
348,78.56212611666668,79.15632818333334,71.0,67.0
349,78.56212611666668,79.17082091666667,66.0,72.0
350,78.77951711666668,79.65089270833334,54.0,17.0
351,78.56212611666668,79.65089270833334,59.0,62.0
352,79.43169011666667,79.87371848333335,66.0,64.0
353,79.43169011666667,79.89364599166667,63.0,60.0
354,79.43169011666667,79.89364599166667,71.0,64.0
355,78.56212611666668,80.30850048333335,47.0,67.0
356,79.86647211666667,80.30850048333335,54.0,23.0
357,79.86647211666667,80.30850048333335,59.0,52.0
358,80.30850048333335,80.7613984,68.0,58.0
359,80.30850048333335,80.78313750000001,66.0,61.0
360,80.30850048333335,80.82118092500001,49.0,63.0
361,80.30850048333335,80.82299251666667,61.0,60.0
362,81.17081811666668,81.62371603333334,68.0,58.0
363,81.17081811666668,81.64545513333334,66.0,61.0
364,81.17081811666668,81.68349855833334,49.0,63.0
365,81.17081811666668,81.68531015,61.0,60.0
366,82.04214046666667,82.4575812,58.0,60.0
367,82.04214046666667,82.45941943333334,66.0,67.0
368,82.04214046666667,82.50537526666668,61.0,57.0
369,82.92449246666668,83.20758040000001,59.0,60.0
370,82.92449246666668,83.22596273333333,66.0,57.0
371,82.92449246666668,83.251698,63.0,67.0
372,82.48331646666668,84.0347854,49.0,42.0
373,83.80684446666667,84.38404973333334,85.0,52.0
374,83.80684446666667,84.74985816666667,73.0,40.0
375,83.36566846666668,84.8013287,54.0,42.0
376,82.04214046666667,84.81051986666667,42.0,66.0
377,85.57154846666667,85.82338643333334,54.0,69.0
378,85.57154846666667,85.8766952,61.0,58.0
379,85.57154846666667,85.9759598,70.0,64.0
380,85.57154846666667,86.01088623333334,66.0,61.0
381,86.01272446666667,86.3233859,54.0,39.0
382,86.23331246666667,86.6266944,61.0,55.0
383,86.23331246666667,86.67265023333334,66.0,64.0
384,86.23331246666667,86.73147370000001,73.0,64.0
385,86.67448846666667,86.93184113333334,54.0,51.0
386,86.89507646666667,87.07338510000001,61.0,70.0
387,85.57154846666667,87.18735556666667,42.0,72.0
388,86.89507646666667,87.19654673333334,70.0,64.0
389,86.89507646666667,87.21674065833334,66.0,72.0
390,87.11566446666667,87.6424647,54.0,62.0
391,87.34174048333334,87.83087023333334,66.0,75.0
392,87.34174048333334,87.83630500833334,70.0,73.0
393,87.77652248333334,87.83630500833334,70.0,67.0
394,87.34174048333334,87.84173978333334,75.0,64.0
395,87.76927611666667,87.98666711666667,54.0,51.0
396,87.99391348333333,88.45586935833333,73.0,63.0
397,87.33449411666668,88.93412955833334,42.0,70.0
398,88.42869548333334,89.12501276666666,66.0,45.0
399,89.07538046666666,89.12501276666666,66.0,72.0
400,88.42869548333334,89.1323657,75.0,62.0
401,88.42869548333334,89.14707156666667,70.0,50.0
402,89.07538046666666,89.568027,63.0,69.0
403,89.29596846666666,89.6672916,70.0,17.0
404,89.73714446666666,90.2242763,70.0,70.0
405,89.73714446666666,90.24265863333333,63.0,64.0
406,89.73714446666666,90.24265863333333,66.0,72.0
407,89.07538046666666,90.45405546666666,51.0,63.0
408,90.39890846666667,90.50184953333333,70.0,54.0
409,90.39890846666667,90.51471716666667,66.0,67.0
410,90.39890846666667,90.52942303333333,63.0,58.0
411,90.84008446666667,91.15993706666666,59.0,64.0
412,90.84008446666667,91.16361353333333,66.0,72.0
413,90.84008446666667,91.17648116666666,47.0,63.0
414,90.84008446666667,91.18934879999999,63.0,64.0
415,90.84008446666667,91.20956936666667,71.0,70.0
416,91.50184846666666,91.78493639999999,61.0,72.0
417,91.50184846666666,91.96324503333334,73.0,69.0
418,91.50184846666666,91.97427443333333,68.0,73.0
419,91.50184846666666,91.9779509,65.0,64.0
420,91.50184846666666,92.3364064,49.0,59.0
421,92.60659934166667,93.0898080875,63.0,60.0
422,92.60659934166667,93.1010021125,66.0,72.0
423,92.60659934166667,93.128987175,71.0,70.0
424,92.60659934166667,93.3584646875,56.0,28.0
425,93.27824084166667,93.69055409583333,66.0,67.0
426,93.27824084166667,93.72227050000001,63.0,58.0
427,93.27824084166667,93.75212123333334,71.0,63.0
428,93.72600184166667,93.979733075,56.0,45.0
429,92.60659934166667,94.0301061875,44.0,39.0
430,93.94988234166667,94.1084643625,66.0,66.0
431,93.94988234166667,94.1196583875,63.0,59.0
432,93.94988234166667,94.14577777916666,71.0,67.0
433,94.17376284166667,94.22786729583333,56.0,36.0
434,94.405106025,94.87152373333333,68.0,61.0
435,94.405106025,94.88271775833333,66.0,64.0
436,94.405106025,94.89950879583333,61.0,59.0
437,94.405106025,94.9144341625,73.0,36.0
438,94.852867025,95.13458332083333,56.0,45.0
439,95.076747525,95.5133145,61.0,63.0
440,95.076747525,95.5189115125,73.0,55.0
441,95.076747525,95.53383687916667,66.0,72.0
442,95.524508525,95.68868755833333,56.0,69.0
443,94.405106025,95.71667262083334,49.0,78.0
444,95.748389025,95.93682177916666,61.0,69.0
445,95.748389025,96.07106776666667,71.0,73.0
446,96.1611412,96.458935,61.0,63.0
447,96.1611412,96.49569966666667,66.0,64.0
448,96.1611412,96.6023172,70.0,63.0
449,96.79349346666666,96.8890816,68.0,62.0
450,96.79349346666666,96.9111404,61.0,61.0
451,97.28004797916667,97.47469086875,58.0,67.0
452,97.28004797916667,97.49254801458333,66.0,70.0
453,96.62805246666667,97.55326231041667,49.0,64.0
454,97.49433372916667,97.60326231875,54.0,44.0
455,96.1942294,97.63183375208332,42.0,72.0
456,97.88361950833333,98.11754811875,49.0,60.0
457,97.9300480875,98.19433384583333,37.0,65.0
458,97.88361950833333,98.24254813958333,66.0,66.0
459,97.88361950833333,98.27111957291666,61.0,67.0
460,97.88361950833333,98.31040529375,59.0,63.0
461,98.52647675833333,98.7657625125,49.0,60.0
462,98.51397675625,99.24790544999999,37.0,74.0
463,99.0014768375,99.25504830833333,49.0,53.0
464,99.16040543541666,99.43361976666667,75.0,74.0
465,99.37469118541667,99.53220169999999,77.0,78.0
466,98.52647675833333,99.55609873333333,61.0,69.0
467,99.42290547916666,99.55609873333333,61.0,85.0
468,98.52647675833333,99.57080459999999,59.0,63.0
469,98.52647675833333,99.58551046666666,68.0,68.0
470,99.64065746666665,99.65720156666666,61.0,67.0
471,99.64065746666665,100.02117176666665,70.0,61.0
472,99.64065746666665,100.06528936666666,66.0,72.0
473,100.08183346666667,100.48073009999999,58.0,52.0
474,100.30242146666666,100.73072983333333,70.0,69.0
475,100.30242146666666,100.77668566666667,66.0,72.0
476,100.30242146666666,100.79506799999999,61.0,66.0
477,99.64065746666665,100.9439649,54.0,67.0
478,100.96418546666666,101.17190583333333,61.0,69.0
479,100.96418546666666,101.21050873333333,66.0,76.0
480,100.96418546666666,101.32264096666665,70.0,61.0
481,100.74359746666666,101.44396436666666,58.0,67.0
482,101.40536146666666,101.44396436666666,58.0,75.0
483,101.40536146666666,101.78219929999999,66.0,63.0
484,101.40536146666666,101.787714,63.0,73.0
485,101.84653746666666,102.23160736666667,58.0,61.0
486,102.06712546666665,102.51059248333333,68.0,69.0
487,102.06712546666665,102.523273625,61.0,73.0
488,102.06712546666665,102.53957795,65.0,73.0
489,102.50334611666666,102.83486739166666,58.0,60.0
490,101.40536146666666,102.87834559166666,54.0,46.0
491,102.72073711666667,102.96530199166666,61.0,80.0
492,102.93812811666666,103.09573659166666,73.0,67.0
493,103.15551911666667,103.30769281666666,73.0,49.0
494,103.15551911666667,103.40189558333333,63.0,66.0
495,103.15551911666667,103.53051859166666,70.0,63.0
496,103.15551911666667,103.59754748333333,66.0,69.0
497,103.80769211666666,104.02689470833333,70.0,72.0
498,103.80769211666666,104.04138744166667,66.0,72.0
499,103.59030111666667,104.20986546666667,58.0,60.0
500,103.80769211666666,104.35298120833333,63.0,59.0
501,104.24247411666667,104.51602445833333,70.0,70.0
502,104.45986511666666,104.58305335,58.0,69.0
503,104.24247411666667,104.621096775,66.0,73.0
504,103.15551911666667,104.62653155,51.0,73.0
505,104.89464711666666,105.19537133333333,70.0,59.0
506,104.89464711666666,105.21711043333333,63.0,64.0
507,104.89464711666666,105.24790749166667,66.0,69.0
508,105.11203811666667,105.27508136666667,59.0,51.0
509,105.11203811666667,105.28051614166667,54.0,47.0
510,104.89464711666666,105.32037115833333,47.0,78.0
511,105.32942911666666,105.425443475,73.0,50.0
512,105.54682011666667,105.69537063333333,65.0,80.0
513,105.54682011666667,105.72797928333333,68.0,80.0
514,106.19899311666667,106.38377546666666,61.0,57.0
515,105.54682011666667,106.40913775,49.0,80.0
516,105.98160211666666,106.44899276666666,56.0,57.0
517,106.41638411666666,106.56913431458334,78.0,72.0
518,106.63921007916666,106.93655859375,56.0,58.0
519,106.63921007916666,107.1013313375,59.0,76.0
520,106.63921007916666,107.112694975,63.0,63.0
521,107.09375557916667,107.45739197916666,56.0,47.0
522,107.32102832916667,107.74337685625,66.0,69.0
523,107.32102832916667,107.81155868124999,59.0,70.0
524,107.32102832916667,107.82481625833333,63.0,72.0
525,107.77557382916666,108.03693749166666,56.0,48.0
526,108.00284657916666,108.09186173958334,63.0,64.0
527,108.00284657916666,108.11269507499999,59.0,64.0
528,106.63921007916666,108.28883145625,44.0,59.0
529,108.23011932916667,108.53693754166666,56.0,49.0
530,108.45739207916667,108.67708907083333,49.0,76.0
531,108.45739207916667,108.73580119791666,68.0,63.0
532,108.45739207916667,108.75095271458333,65.0,67.0
533,108.45739207916667,108.75284665416666,61.0,69.0
534,108.91193757916666,109.22633155,54.0,29.0
535,109.13921032916666,109.62010572499999,61.0,66.0
536,109.13921032916666,109.63822164166666,66.0,72.0
537,108.68466482916666,109.728801225,49.0,47.0
538,109.57843911666666,109.78314897499999,54.0,61.0
539,109.79583011666666,110.09655433333333,66.0,72.0
540,110.01322111666666,110.21249619999999,68.0,69.0
541,110.23061211666666,110.6255391,42.0,70.0
542,110.44800311666665,110.65452456666667,49.0,54.0
543,110.23061211666666,110.65814775,61.0,60.0
544,110.23061211666666,110.6690173,70.0,67.0
545,110.23061211666666,110.85742283333333,66.0,69.0
546,110.66539411666666,110.94619082499999,54.0,44.0
547,110.88278511666667,111.14365431666666,66.0,47.0
548,110.88278511666667,111.17988614999999,63.0,61.0
549,110.88278511666667,111.19256729166666,71.0,72.0
550,111.31756711666667,111.4298858,58.0,69.0
551,110.88278511666667,111.43894375833332,56.0,66.0
552,111.53495811666666,111.77771139999999,66.0,66.0
553,111.75234911666666,111.90089963333332,73.0,61.0
554,111.96974011666666,112.14908769166667,61.0,61.0
555,111.96974011666666,112.16358042499999,66.0,59.0
556,112.18713111666666,112.40452211666666,61.0,54.0
557,112.18713111666666,112.40452211666666,66.0,54.0
558,112.40452211666666,112.62191311666666,61.0,54.0
559,112.40452211666666,112.62191311666666,66.0,60.0
560,111.96974011666666,112.6255363,49.0,50.0
561,111.96974011666666,112.66901449999999,37.0,63.0
562,111.96974011666666,112.82481138333333,73.0,59.0
563,112.62191311666666,112.83930411666667,61.0,54.0
564,112.62191311666666,112.83930411666667,66.0,64.0
565,112.83930411666667,113.05669511666666,61.0,72.0
566,112.83930411666667,113.05669511666666,68.0,72.0
567,113.05669511666666,113.27408611666667,61.0,70.0
568,113.05669511666666,113.27408611666667,68.0,70.0
569,113.27589770833333,113.49328870833332,61.0,71.0
570,113.27589770833333,113.49328870833332,68.0,71.0
571,112.83930411666667,113.5385785,37.0,63.0
572,112.83568093333332,113.57843351666666,49.0,72.0
573,113.49328870833332,113.71067970833333,61.0,81.0
574,113.70886811666666,113.71067970833333,61.0,85.0
575,113.49328870833332,113.71067970833333,68.0,81.0
576,113.70886811666666,113.71067970833333,68.0,85.0
577,112.83930411666667,113.79582451666666,73.0,72.0
578,113.70886811666666,114.03133143333332,70.0,85.0
579,113.70886811666666,114.25596879999999,42.0,85.0
580,113.70886811666666,114.283142675,54.0,85.0
581,114.36104111666666,114.47517139166666,54.0,54.0
582,114.36104111666666,114.500533675,42.0,66.0
583,114.14365011666666,114.59654803333333,70.0,61.0
584,114.14365011666666,114.64908419166666,61.0,63.0
585,114.14365011666666,114.64908419166666,66.0,66.0
586,114.57843211666666,114.87734474166666,49.0,70.0
587,114.79582311666667,115.08567778333332,61.0,67.0
588,114.79582311666667,115.09111255833332,70.0,64.0
589,115.01321411666666,115.11647484166666,42.0,30.0
590,114.79582311666667,115.1255328,66.0,69.0
591,115.01321411666666,115.402706325,49.0,59.0
592,115.44799611666666,115.728792825,66.0,57.0
593,115.44799611666666,115.75234351666666,61.0,62.0
594,115.44799611666666,115.76683625,68.0,70.0
595,115.44799611666666,116.14727049999999,54.0,51.0
596,116.10016911666666,116.50956209583333,61.0,66.0
597,116.10016911666666,116.52075612083333,65.0,67.0
598,116.10016911666666,116.52635313333333,68.0,64.0
599,116.54500984166667,116.80247241666666,54.0,55.0
600,116.76889034166666,116.95918876666667,66.0,73.0
601,116.76889034166666,116.95918876666667,70.0,50.0
602,116.76889034166666,116.96665145,61.0,58.0
603,115.44799611666666,117.0394126125,42.0,66.0
604,116.99277084166667,117.32486025,54.0,55.0
605,117.21665134166666,117.54127806666666,63.0,67.0
606,117.21665134166666,117.56553178749999,70.0,66.0
607,117.21665134166666,117.56926312916666,66.0,75.0
608,117.66441234166666,117.80806899583332,65.0,67.0
609,117.66441234166666,117.8229943625,68.0,72.0
610,117.88829284166667,117.96665101666666,66.0,72.0
611,117.88829284166667,117.99836742083333,70.0,73.0
612,118.33605384166667,118.62523282083333,78.0,66.0
613,118.33605384166667,118.6289641625,70.0,69.0
614,118.55993434166666,118.67560593333333,63.0,63.0
615,117.21665134166666,118.70359099583334,51.0,69.0
616,117.88829284166667,118.71478502083333,58.0,63.0
617,118.78381484166667,118.9207929,75.0,59.0
618,119.00412611666667,119.21789393333333,78.0,51.0
619,119.00412611666667,119.23963303333333,75.0,63.0
620,119.00412611666667,119.25774894999999,71.0,72.0
621,119.00412611666667,119.48782109166666,47.0,78.0
622,119.22151711666666,119.50593700833333,54.0,60.0
623,119.43890811666667,119.54760361666666,59.0,72.0
624,119.65629911666666,120.02767540833332,65.0,72.0
625,119.65629911666666,120.07658838333333,68.0,63.0
626,119.65629911666666,120.12550135833332,61.0,50.0
627,120.30847211666666,120.4425299,61.0,82.0
628,119.65629911666666,120.48238491666666,49.0,78.0
629,120.09108111666666,120.51137038333333,56.0,72.0
630,120.30847211666666,120.56209495,66.0,93.0
631,120.52586311666667,120.643616575,68.0,63.0
632,120.74325411666666,121.05122469999999,63.0,76.0
633,120.74325411666666,121.14723905833333,59.0,73.0
634,120.74325411666666,121.15448542499999,66.0,70.0
635,121.39542711666667,121.77948454999999,66.0,72.0
636,121.39542711666667,121.79397728333333,63.0,72.0
637,121.39542711666667,121.84289025833333,59.0,73.0
638,120.74325411666666,122.29397658333333,44.0,76.0
639,121.83020911666667,122.30122295,56.0,52.0
640,121.17803611666666,122.30303454166666,51.0,49.0
641,122.04760011666666,122.37730979999999,59.0,95.0
642,122.26499111666666,122.56028055833333,46.0,66.0
643,122.48238211666667,122.79397588333333,59.0,70.0
644,122.48238211666667,122.92441048333333,63.0,75.0
645,122.48238211666667,122.95520754166667,66.0,60.0
646,122.91716411666667,123.27767085833332,59.0,60.0
647,123.13455511666666,123.632742825,66.0,64.0
648,123.13455511666666,123.63817759999999,61.0,75.0
649,123.56933711666666,123.8555686,59.0,72.0
650,123.78672811666667,123.89180043333333,61.0,78.0
651,123.78672811666667,123.9207859,66.0,73.0
652,122.48238211666667,123.93346704166666,47.0,57.0
653,124.22326846666665,124.3133419,60.0,40.0
654,124.22326846666665,124.37584183333333,66.0,51.0
655,124.22326846666665,124.44385646666666,70.0,57.0
656,124.88503246666666,125.13135573333332,70.0,64.0
657,124.88503246666666,125.17547333333333,73.0,66.0
658,124.88503246666666,125.18098803333332,78.0,76.0
659,124.44385646666666,125.23613503333333,61.0,53.0
660,124.88503246666666,125.44017893333333,66.0,69.0
661,124.22326846666665,125.57804643333333,54.0,70.0
662,125.32620846666666,125.58172289999999,77.0,75.0
663,125.32620846666666,125.61113463333332,70.0,63.0
664,125.54679646666666,125.75451683333333,61.0,47.0
665,125.76738446666666,125.94998228333333,73.0,73.0
666,125.76738446666666,126.00070684999999,68.0,67.0
667,126.20360511666665,126.50251774166665,61.0,67.0
668,126.42099611666666,126.56048867499999,66.0,82.0
669,125.98621411666666,126.68548849999999,51.0,72.0
670,126.63838711666665,126.81954628333332,68.0,67.0
671,126.85577811666666,126.96447361666665,70.0,56.0
672,126.63838711666665,127.04237205833331,61.0,62.0
673,127.07316911666665,127.19092257499999,71.0,88.0
674,127.29056011666665,127.41555994166666,61.0,67.0
675,126.64925666666666,127.41737153333332,49.0,72.0
676,127.29056011666665,127.52244384999999,73.0,78.0
677,127.50795111666665,127.56773364166665,80.0,40.0
678,127.72534211666665,127.86664626666665,73.0,63.0
679,127.72534211666665,127.87389263333333,82.0,58.0
680,127.94273311666666,128.39019625833333,61.0,58.0
681,128.16012411666665,128.4845322333333,66.0,66.0
682,128.37751511666664,128.78416426666666,70.0,82.0
683,128.81725246666664,129.17019326666667,61.0,62.0
684,129.03784046666667,129.18122266666666,68.0,85.0
685,127.72534211666665,129.24739906666665,54.0,73.0
686,129.25842846666666,129.39445773333333,70.0,51.0
687,129.47901646666665,129.58747223333333,70.0,55.0
688,129.47901646666665,129.67754566666665,63.0,72.0
689,129.47901646666665,129.7179868,66.0,80.0
690,129.47901646666665,129.79886906666667,73.0,72.0
691,130.14078046666666,130.27680973333332,73.0,72.0
692,130.14078046666666,130.27864796666665,70.0,64.0
693,130.14078046666666,130.41651546666665,78.0,75.0
694,129.92019246666666,130.53783886666665,61.0,61.0
695,130.14078046666666,130.59114763333332,66.0,63.0
696,130.58195646666667,130.81357386666667,68.0,72.0
697,130.58195646666667,130.85585323333333,73.0,91.0
698,130.80254446666666,130.89629436666667,61.0,72.0
699,130.58195646666667,130.89629436666667,77.0,78.0
700,129.47901646666665,130.90732376666665,54.0,67.0
701,131.02313246666665,131.1413364625,77.0,64.0
702,131.24739707916666,131.54663953333332,70.0,66.0
703,131.24739707916666,131.56557892916666,73.0,57.0
704,131.24739707916666,131.60724559999997,78.0,72.0
705,131.70194257916665,131.9273213895833,63.0,54.0
706,131.92921532916665,132.00307897291665,78.0,43.0
707,131.92921532916665,132.0550387583333,70.0,58.0
708,132.15105311666665,132.28148771666665,63.0,36.0
709,132.36844411666664,132.4789512083333,68.0,75.0
710,132.36844411666664,132.48800916666664,73.0,85.0
711,131.47466982916666,132.60938580833331,58.0,48.0
712,131.24739707916666,132.62931331666664,51.0,72.0
713,132.58583511666663,132.68366106666664,63.0,73.0
714,133.02061711666664,133.06590690833332,59.0,51.0
715,133.02061711666664,133.28510949999998,63.0,70.0
716,133.02061711666664,133.2887326833333,71.0,67.0
717,133.02061711666664,133.3050370083333,66.0,72.0
718,133.23800811666663,133.33039929166665,54.0,44.0
719,133.02061711666664,133.37931226666663,47.0,75.0
720,133.23800811666663,133.39018181666663,59.0,63.0
721,133.45539911666663,133.5169932333333,73.0,45.0
722,133.67279011666665,134.03148526666664,68.0,73.0
723,133.67279011666665,134.04597799999996,65.0,80.0
724,133.67279011666665,134.23257194166663,73.0,67.0
725,133.67279011666665,134.47532522499998,49.0,76.0
726,134.32496311666665,134.48075999999998,61.0,72.0
727,134.10757211666663,134.51518024166663,56.0,60.0
728,134.54235411666664,134.68122482499996,66.0,62.0
729,134.76331434166664,135.17189625416663,63.0,43.0
730,134.76331434166664,135.17935893749996,66.0,63.0
731,134.76331434166664,135.1980156458333,71.0,82.0
732,135.43495584166664,135.61965725416664,66.0,70.0
733,135.43495584166664,135.63085127916662,56.0,62.0
734,135.43495584166664,135.63085127916662,71.0,75.0
735,135.43495584166664,135.6905527458333,63.0,66.0
736,135.65883634166664,135.80062732499997,56.0,32.0
737,135.88271684166662,136.07861227916663,66.0,67.0
738,135.21107534166663,136.08607496249996,51.0,37.0
739,135.88271684166662,136.11965703749996,70.0,69.0
740,135.88271684166662,136.1495077708333,61.0,60.0
741,136.10659734166663,136.2390599708333,51.0,42.0
742,134.76331434166664,136.2726420458333,44.0,66.0
743,136.10659734166663,136.3062241208333,56.0,73.0
744,136.55254746666662,136.76210606666663,59.0,73.0
745,136.55254746666662,136.81173836666662,63.0,67.0
746,136.55254746666662,136.84115009999996,66.0,75.0
747,136.55254746666662,136.86137066666663,71.0,73.0
748,136.77313546666662,136.93306176666664,59.0,66.0
749,136.55254746666662,137.00107639999996,47.0,63.0
750,136.99372346666664,137.13710566666663,63.0,62.0
751,137.21431146666663,137.46982589999996,66.0,58.0
752,137.21431146666663,137.53048759999996,71.0,72.0
753,137.65548746666664,137.96614889999995,63.0,67.0
754,137.65548746666664,137.98269299999995,68.0,73.0
755,138.09666346666663,138.18489866666664,66.0,69.0
756,138.31549311666663,138.5727391333333,63.0,80.0
757,138.31549311666663,138.57455072499997,66.0,70.0
758,138.31549311666663,138.61440574166662,59.0,80.0
759,138.31549311666663,138.6325216583333,47.0,70.0
760,138.96766611666663,139.27563669999995,58.0,82.0
761,138.96766611666663,139.39520174999996,66.0,80.0
762,138.96766611666663,139.51476679999996,61.0,91.0
763,138.96766611666663,139.62346229999997,46.0,72.0
764,139.6198391166666,139.7140418833333,66.0,69.0
765,139.6198391166666,139.7683896333333,63.0,73.0
766,139.6198391166666,139.7901287333333,59.0,93.0
767,139.6198391166666,139.82998374999997,44.0,63.0
768,140.05462111666662,140.46041764999995,54.0,75.0
769,140.05462111666662,140.61621453333328,66.0,80.0
770,140.05462111666662,140.6325188583333,61.0,95.0
771,140.05462111666662,140.65063477499996,58.0,76.0
772,140.70679411666663,141.00751833333328,54.0,50.0
773,140.92418511666662,141.16331521666663,58.0,76.0
774,140.92418511666662,141.1705615833333,66.0,67.0
775,140.05462111666662,141.17961954166663,42.0,70.0
776,140.92418511666662,141.1923006833333,61.0,91.0
777,141.1415761166666,141.30824254999996,49.0,47.0
778,141.35896711666663,141.57454652499996,63.0,66.0
779,141.57635811666663,141.68175982499994,65.0,66.0
780,141.79918407916662,142.34842655833327,66.0,59.0
781,141.79918407916662,142.34842655833327,73.0,45.0
782,141.79918407916662,142.36736595416662,61.0,59.0
783,141.79918407916662,142.43554777916663,70.0,50.0
784,141.79918407916662,143.1678332666666,54.0,59.0
785,141.79918407916662,143.25239199999993,42.0,61.0
786,143.5869504666666,143.85349429999994,66.0,67.0
787,143.5869504666666,143.9178324666666,70.0,72.0
788,143.8075384666666,144.3914572666666,61.0,50.0
789,144.0281264666666,144.55631210833326,66.0,51.0
790,144.2487144666666,144.77551469999992,68.0,64.0
791,144.2487144666666,144.81899289999993,73.0,72.0
792,143.5869504666666,144.83348563333325,54.0,69.0
793,144.6849351166666,144.91500725833328,61.0,61.0
794,144.9023261166666,145.1577605416666,68.0,57.0
795,145.1197171166666,145.32805015833327,70.0,61.0
796,145.3371081166666,145.81355672499993,68.0,59.0
797,145.3371081166666,145.86609288333327,73.0,64.0
798,145.5544991166666,146.16138232499992,61.0,60.0
799,145.77189011666658,146.31899079999994,65.0,56.0
800,145.9892811166666,146.48565723333326,68.0,59.0
801,146.4240631166666,146.67043958333326,70.0,67.0
802,146.6414541166666,146.71391778333327,61.0,49.0
803,145.3371081166666,146.73022210833327,53.0,64.0
804,147.0798053416666,147.34659627083326,61.0,59.0
805,147.0798053416666,147.38577535833326,66.0,61.0
806,147.52756634166659,147.71040208333326,61.0,53.0
807,147.30368584166658,147.8521930666666,58.0,48.0
808,147.0798053416666,148.29153083333324,51.0,64.0
809,147.7514468416666,148.29704553333326,66.0,75.0
810,148.19410446666657,148.41285423333326,58.0,49.0
811,148.4146924666666,148.65550103333325,68.0,59.0
812,148.6352804666666,148.83013319999992,70.0,59.0
813,148.85586846666658,149.33197089999993,66.0,72.0
814,149.2970444666666,149.77498513333325,61.0,55.0
815,149.51763246666658,149.80255863333326,63.0,57.0
816,148.85586846666658,149.8485144666666,49.0,67.0
817,149.0764564666666,149.87976443333326,56.0,50.0
818,149.73822046666658,149.94777906666658,65.0,60.0
819,149.9588084666666,150.21432289999993,66.0,60.0
820,150.1793964666666,150.3117492666666,68.0,64.0
821,150.61881411666658,151.07352362499992,66.0,72.0
822,150.61881411666658,151.09707431666658,63.0,59.0
823,151.2709871166666,151.62605908333325,63.0,53.0
824,150.83620511666658,151.78910233333323,54.0,44.0
825,151.05359611666657,151.8090298416666,59.0,58.0
826,150.61881411666658,151.8561312249999,47.0,72.0
827,151.70576911666657,151.8688123666666,66.0,72.0
828,152.35794211666658,152.73475318333325,61.0,61.0
829,152.35794211666658,152.75468069166658,65.0,66.0
830,152.35794211666658,152.7854777499999,68.0,66.0
831,153.01011511666658,153.49924486666657,61.0,61.0
832,153.01011511666658,153.61156354999991,66.0,62.0
833,152.35794211666658,153.64779538333323,49.0,72.0
834,152.7927241166666,153.69489676666657,56.0,44.0
835,154.10250507916658,154.2634899437499,61.0,48.0
836,154.10250507916658,154.39795965416656,66.0,53.0
837,154.10250507916658,154.48886875416656,70.0,48.0
838,154.55705057916657,155.26727792291658,61.0,44.0
839,154.78432332916657,155.3998536937499,66.0,54.0
840,154.10250507916658,155.5362173437499,54.0,66.0
841,155.23886882916656,155.5646264374999,73.0,73.0
842,155.46614157916656,155.74833857708325,61.0,35.0
843,155.69341432916656,156.19642193333323,71.0,50.0
844,156.13759846666656,156.59348033333325,61.0,47.0
845,156.35818646666658,156.70009786666657,66.0,52.0
846,156.57877446666657,157.10267096666658,70.0,78.0
847,157.0199504666666,157.12105329999991,61.0,63.0
848,155.91701046666657,157.14127386666658,54.0,62.0
849,157.24053846666658,157.39862653333324,68.0,56.0
850,157.46112646666657,157.70928796666658,65.0,70.0
851,157.68171446666656,157.92068479999992,66.0,70.0
852,157.90230246666658,158.63477178333324,61.0,57.0
853,158.12289046666658,158.91556849166656,66.0,50.0
854,158.77969911666656,158.98259738333323,77.0,54.0
855,157.68171446666656,159.05324945833323,54.0,73.0
856,158.99709011666656,159.1365826749999,78.0,70.0
857,158.99709011666656,159.2996259249999,61.0,50.0
858,159.21448111666658,159.6420167499999,68.0,59.0
859,159.21448111666658,159.66919062499989,73.0,62.0
860,159.21448111666658,159.9028859499999,77.0,61.0
861,159.64926311666656,160.2670158749999,61.0,53.0
862,160.08404511666657,160.47534891666658,68.0,59.0
863,159.86665411666655,160.51339234166656,65.0,49.0
864,159.43187211666657,160.70904424166656,53.0,61.0
865,160.51882711666656,160.78150790833323,61.0,59.0
866,161.17100011666656,161.4898402499999,73.0,67.0
867,161.17100011666656,161.49165184166657,70.0,59.0
868,161.38839111666655,161.92099906666655,58.0,56.0
869,161.60578211666657,162.12389733333325,63.0,55.0
870,161.82317311666657,162.1909262249999,70.0,39.0
871,161.82317311666657,162.20541895833324,66.0,49.0
872,162.25795511666658,162.5224474999999,65.0,59.0
873,161.17100011666656,162.56411410833323,51.0,69.0
874,162.25795511666658,162.59491116666658,68.0,67.0
875,162.47534611666657,162.65288209999989,58.0,57.0
876,162.69273711666656,162.84203359999992,66.0,57.0
877,162.69273711666656,162.86593063333325,70.0,60.0
878,162.91188646666657,163.35857716666658,68.0,73.0
879,162.91188646666657,163.3659300999999,65.0,64.0
880,163.57365046666658,163.85857663333326,65.0,61.0
881,163.3530624666666,163.9762235666666,61.0,58.0
882,163.13247446666657,164.04607643333324,58.0,52.0
883,162.91188646666657,164.06078229999991,49.0,63.0
884,163.79423846666657,164.07732639999992,66.0,60.0
885,164.0148264666666,164.18945863333323,68.0,61.0
886,164.23541446666658,164.4670318666666,65.0,66.0
887,164.45600246666658,164.72555668333325,61.0,72.0
888,164.67483211666658,164.92483176666659,63.0,64.0
889,165.10961411666656,165.5154106499999,59.0,56.0
890,165.32700511666658,165.79983054166658,61.0,69.0
891,165.32700511666658,165.85055510833325,66.0,69.0
892,164.67483211666658,165.87772898333324,47.0,67.0
893,164.89222311666657,165.8849753499999,54.0,60.0
894,165.76178711666657,165.95925060833324,59.0,66.0
895,165.97917811666656,166.16396046666657,61.0,49.0
896,166.19656911666658,166.25454004999992,68.0,41.0
897,166.41396011666657,166.71649592499992,61.0,61.0
898,166.41396011666657,166.7491045749999,66.0,72.0
899,166.84874211666659,167.02808969166657,61.0,56.0
900,166.63135111666656,167.2110604499999,56.0,60.0
901,167.06613311666658,167.56613241666656,65.0,69.0
902,167.50091511666656,167.62048016666657,56.0,61.0
903,166.41396011666657,167.6241033499999,49.0,75.0
904,167.71830611666658,167.98642168333325,66.0,62.0
905,167.93569711666657,168.0849935999999,68.0,70.0
906,168.15484646666656,168.4820519999999,66.0,67.0
907,168.15484646666656,168.4820519999999,70.0,66.0
908,168.15484646666656,168.49675786666657,61.0,61.0
909,168.59602246666657,168.91403683333323,54.0,49.0
910,168.81661046666656,169.0445513999999,58.0,60.0
911,168.81661046666656,169.07763959999988,66.0,72.0
912,169.25778646666657,169.58131553333322,59.0,59.0
913,169.25778646666657,169.64565369999988,66.0,46.0
914,169.47837446666657,169.75227123333323,63.0,16.0
915,169.91955046666655,170.39749113333323,61.0,62.0
916,168.15484646666656,170.40300583333322,42.0,66.0
917,168.37543446666655,170.40852053333322,49.0,53.0
918,169.91955046666655,170.41035876666655,58.0,55.0
919,169.91955046666655,170.44344696666656,66.0,52.0
920,169.69896246666656,170.50594689999988,54.0,47.0
921,171.90484246666657,172.2155038999999,61.0,44.0
922,172.12543046666656,172.33498906666657,66.0,61.0
923,172.34601846666655,172.92506196666656,68.0,64.0
924,172.78719446666656,173.0868264999999,61.0,47.0
925,173.00778246666655,173.25962043333323,70.0,48.0
926,171.68425446666657,173.36991443333324,54.0,54.0
927,173.22837046666655,173.9140314999999,68.0,61.0
928,173.66954646666656,174.3552074999999,61.0,47.0
929,173.89013446666655,174.41770743333322,65.0,35.0
930,173.44895846666657,174.59785429999988,53.0,55.0
931,174.11072246666657,174.75226589999988,73.0,61.0
932,174.55189846666656,174.85336873333324,61.0,40.0
933,174.77248646666655,175.00594209999988,68.0,46.0
934,174.99307446666657,175.42138283333324,66.0,67.0
935,175.65483846666655,175.9820439999999,63.0,47.0
936,175.43425046666655,176.40483766666657,58.0,39.0
937,175.87542646666657,176.44160233333324,71.0,64.0
938,176.31660246666655,176.51880813333324,59.0,66.0
939,175.21366246666656,176.5610874999999,51.0,57.0
940,176.53719046666657,176.79086666666657,63.0,52.0
941,176.75777846666657,176.95446943333323,68.0,57.0
942,176.97836646666656,177.29270436666656,66.0,50.0
943,177.19895446666655,177.65667456666657,58.0,46.0
944,177.41954246666657,177.85888023333322,61.0,59.0
945,176.97836646666656,178.21917396666657,49.0,59.0
946,177.86071846666655,178.28351213333323,70.0,52.0
947,178.30189446666657,178.3864531999999,58.0,48.0
948,178.52248246666656,178.69343816666657,61.0,44.0
949,178.74307046666655,178.92873203333323,68.0,42.0
950,178.96365846666657,179.40851093333322,66.0,62.0
951,179.18424646666656,179.7233016583332,59.0,53.0
952,178.96365846666657,179.87909854166656,54.0,48.0
953,179.40483446666656,179.89177968333323,61.0,55.0
954,178.74307046666655,179.9588085749999,47.0,59.0
955,180.05844611666654,180.23960528333322,66.0,60.0
956,180.49322811666656,180.76134368333322,61.0,44.0
957,180.71061911666655,181.0838069999999,68.0,57.0
958,181.14540111666656,181.61460335833323,61.0,57.0
959,180.92801011666654,181.62003813333322,58.0,49.0
960,180.71061911666655,181.68525543333323,54.0,46.0
961,180.49322811666656,181.70880612499988,46.0,57.0
962,181.79757411666657,182.3094820333332,66.0,62.0
963,182.23411446666654,182.3094820333332,66.0,38.0
964,182.23411446666654,182.89587846666655,63.0,33.0
965,182.23411446666654,182.93264313333322,71.0,60.0
966,182.67529046666655,183.4841131333332,56.0,54.0
967,182.45470246666653,183.48778959999987,51.0,51.0
968,182.89587846666655,183.4896278333332,58.0,58.0
969,182.23411446666654,183.50249546666655,44.0,63.0
970,183.33705446666656,183.59073066666656,59.0,61.0
971,183.77823046666654,183.94734793333322,66.0,39.0
972,183.99881846666653,184.40874449999987,65.0,67.0
973,184.43999446666655,184.9951409333332,61.0,51.0
974,184.66058246666654,185.1587436999999,66.0,64.0
975,183.99881846666653,185.18080249999988,49.0,70.0
976,185.10175846666655,185.18080249999988,68.0,62.0
977,184.21940646666656,185.25249359999987,56.0,48.0
978,185.54293446666654,185.75984599999987,71.0,42.0
979,185.76352246666656,186.00433103333322,73.0,61.0
980,186.20469846666654,186.61094803333322,66.0,50.0
981,186.42528646666653,186.70469793333322,78.0,70.0
982,185.76352246666656,187.0337416999999,54.0,64.0
983,186.86646246666655,187.09991809999988,66.0,47.0
984,185.98411046666655,187.2782267333332,61.0,44.0
985,187.30763846666656,187.56994631666655,82.0,64.0
986,187.52646811666656,187.7094388749999,80.0,63.0
987,187.74385911666656,188.4703073749999,61.0,59.0
988,188.17864111666657,188.52646671666656,68.0,48.0
989,187.96125011666655,188.65146654166657,65.0,55.0
990,188.61342311666655,188.77646636666657,73.0,61.0
991,187.52646811666656,188.78914750833323,53.0,60.0
992,188.83081411666655,188.9974805499999,75.0,49.0
993,189.26916534166656,189.53595627083322,71.0,44.0
994,189.26916534166656,189.57326968749987,75.0,60.0
995,189.04820511666657,189.60312042083322,78.0,59.0
996,189.49304584166654,190.29522926666655,59.0,56.0
997,189.71692634166655,190.37978799999988,63.0,40.0
998,189.26916534166656,190.47721436666654,51.0,60.0
999,189.94080684166656,190.49559669999988,66.0,58.0
1000,190.38346446666654,190.51397903333321,71.0,49.0
1001,190.60405246666656,190.74559643333322,59.0,58.0
1002,190.82464046666655,191.07647843333322,68.0,47.0
1003,191.04522846666654,191.70699246666655,70.0,63.0
1004,191.70699246666655,192.12059496666654,61.0,47.0
1005,191.04522846666654,192.1628743333332,49.0,60.0
1006,191.92758046666654,192.1720654999999,66.0,60.0
1007,191.48640446666656,192.25294776666655,58.0,54.0
1008,192.14816846666656,192.3485358999999,68.0,54.0
1009,192.36875646666655,192.56728566666655,70.0,59.0
1010,192.58934446666655,192.92941763333323,73.0,59.0
1011,192.80993246666654,193.2474319999999,66.0,57.0
1012,192.80993246666654,193.27132903333322,71.0,56.0
1013,193.47169646666654,193.67390213333323,63.0,55.0
1014,193.47169646666654,193.86875486666656,70.0,54.0
1015,193.25110846666655,194.01581353333322,59.0,57.0
1016,193.03052046666656,194.12610753333323,54.0,48.0
1017,193.91287246666656,194.1536810333332,61.0,60.0
1018,192.80993246666654,194.16471043333323,47.0,61.0
1019,193.91287246666656,194.16654866666656,68.0,58.0
1020,194.57287811666654,194.7377329583332,66.0,56.0
1021,194.57287811666654,194.7431677333332,61.0,56.0
1022,194.57287811666654,194.9442544083332,46.0,62.0
1023,194.79026911666654,195.00584852499986,54.0,59.0
1024,195.00766011666653,195.32831184166653,58.0,52.0
1025,195.22505111666655,195.68157221666655,61.0,54.0
1026,195.65983311666653,195.73591996666653,66.0,63.0
1027,196.31200611666654,196.65802012499987,66.0,46.0
1028,196.31200611666654,196.67975922499988,63.0,52.0
1029,196.31200611666654,196.69244036666655,44.0,59.0
1030,196.31200611666654,196.72323742499987,71.0,64.0
1031,196.52939711666653,196.7649040333332,51.0,47.0
1032,196.74678811666655,196.9116429583332,56.0,55.0
1033,196.96417911666654,197.31786444166653,63.0,57.0
1034,197.42528631666653,197.55419256666653,66.0,66.0
1035,198.11736222916653,198.94995787916653,68.0,56.0
1036,198.11736222916653,198.95876069166653,66.0,56.0
1037,198.11736222916653,199.05735219166652,73.0,49.0
1038,198.97284519166655,199.36721119166654,61.0,44.0
1039,199.18411269166654,199.44115481666654,66.0,59.0
1040,198.11736222916653,199.52214069166655,49.0,64.0
1041,199.39538019166653,199.53798575416653,68.0,62.0
1042,199.60664769166652,199.7439974333332,70.0,58.0
1043,199.82304146666652,201.09142246666653,61.0,44.0
1044,199.82304146666652,201.09693716666652,73.0,56.0
1045,199.82304146666652,201.20723116666653,66.0,51.0
1046,199.82304146666652,201.22928996666653,49.0,64.0
1047,201.58598711666653,201.86134904999986,66.0,69.0
1048,202.02076911666651,202.53526114999985,58.0,36.0
1049,202.45555111666653,202.8541012833332,63.0,53.0
1050,201.58598711666653,202.88670993333318,51.0,67.0
1051,202.45555111666653,202.9501156416665,70.0,69.0
1052,202.45555111666653,203.05156477499986,66.0,69.0
1053,202.8903331166665,203.28526009999985,58.0,44.0
1054,203.32511511666652,203.77438984999986,65.0,67.0
1055,203.32511511666652,203.83960714999986,68.0,69.0
1056,203.32511511666652,203.92112877499986,73.0,69.0
1057,203.75989711666654,204.1856211583332,58.0,37.0
1058,204.19467911666652,204.47909900833318,73.0,61.0
1059,204.19467911666652,204.6258379333332,65.0,69.0
1060,204.19467911666652,204.63851907499986,61.0,44.0
1061,203.32511511666652,204.67293931666651,49.0,63.0
1062,204.19467911666652,204.68018568333318,68.0,72.0
1063,204.62946111666653,204.7127943333332,58.0,70.0
1064,205.06781234166652,205.43534949583318,47.0,70.0
1065,205.06781234166652,205.45027486249984,66.0,63.0
1066,205.06781234166652,205.4521405333332,59.0,49.0
1067,205.06781234166652,205.53236437916652,63.0,61.0
1068,205.06781234166652,205.54169273333318,71.0,69.0
1069,205.96333434166652,206.26743868749983,61.0,48.0
1070,205.96333434166652,206.34952820416652,68.0,70.0
1071,205.96333434166652,206.36818491249986,73.0,70.0
1072,205.96333434166652,206.39430430416652,49.0,62.0
1073,205.96333434166652,206.42228936666652,65.0,69.0
1074,206.4110953416665,206.6965429791665,66.0,63.0
1075,206.85885634166652,207.2394531916665,70.0,64.0
1076,206.85885634166652,207.35325911249984,61.0,66.0
1077,206.85885634166652,207.37564716249983,66.0,61.0
1078,206.85885634166652,207.8140798083332,54.0,49.0
1079,206.85885634166652,208.14243787499984,42.0,58.0
1080,207.75437834166652,208.25251245416652,66.0,67.0
1081,207.75437834166652,208.25810946666653,70.0,66.0
1082,207.75437834166652,208.29542288333317,61.0,69.0
1083,208.2021393416665,208.49504966249984,54.0,48.0
1084,208.42601984166652,208.69343249999986,53.0,51.0
1085,208.64633111666652,209.22060567499983,70.0,64.0
1086,208.64633111666652,209.2604606916665,63.0,63.0
1087,208.64633111666652,209.26770705833317,66.0,64.0
1088,208.64633111666652,209.63546016666652,51.0,70.0
1089,209.5158951166665,209.75864839999986,70.0,66.0
1090,209.5158951166665,209.7622715833332,63.0,64.0
1091,209.5158951166665,209.78582227499984,66.0,69.0
1092,209.7332861166665,209.9398075666665,51.0,58.0
1093,209.9506771166665,210.22060427499986,63.0,63.0
1094,210.16806811666652,210.4452416416665,70.0,59.0
1095,210.3854591166665,210.79125564999984,68.0,69.0
1096,210.3854591166665,210.8637193166665,65.0,64.0
1097,210.82024111666652,211.29668972499985,56.0,40.0
1098,211.2550231166665,211.58473279999984,61.0,55.0
1099,211.2550231166665,211.5974139416665,65.0,67.0
1100,211.2550231166665,211.66625442499983,68.0,69.0
1101,210.3854591166665,211.76226878333318,49.0,64.0
1102,211.68980511666652,211.76226878333318,56.0,63.0
1103,212.1245871166665,212.6807457583332,63.0,64.0
1104,212.1245871166665,212.71878918333317,71.0,67.0
1105,212.1245871166665,212.7332819166665,66.0,72.0
1106,212.34197811666652,213.2133537083332,54.0,17.0
1107,212.1245871166665,213.2133537083332,59.0,62.0
1108,212.9941511166665,213.43617948333318,66.0,64.0
1109,212.9941511166665,213.4561069916665,63.0,60.0
1110,212.9941511166665,213.4561069916665,71.0,64.0
1111,212.1245871166665,213.87282639999987,44.0,67.0
1112,213.4289331166665,213.87282639999987,54.0,23.0
1113,213.4289331166665,213.87282639999987,59.0,52.0
1114,213.86547346666651,214.32503179999986,68.0,58.0
1115,213.86547346666651,214.34709059999986,66.0,61.0
1116,213.86547346666651,214.38569349999986,49.0,63.0
1117,213.86547346666651,214.3875317333332,61.0,60.0
1118,214.7478254666665,215.20738379999986,68.0,58.0
1119,214.7478254666665,215.22944259999986,66.0,61.0
1120,214.7478254666665,215.26804549999986,49.0,63.0
1121,214.7478254666665,215.2698837333332,61.0,60.0
1122,215.6301774666665,216.04561819999986,58.0,60.0
1123,215.6301774666665,216.0474564333332,66.0,67.0
1124,215.6301774666665,216.09341226666652,61.0,57.0
1125,216.5125294666665,216.79561739999986,59.0,60.0
1126,216.5125294666665,216.8139997333332,66.0,57.0
1127,216.5125294666665,216.83973499999985,63.0,67.0
1128,216.07135346666652,217.62282239999985,49.0,42.0
1129,217.39488146666653,217.97208673333319,85.0,52.0
1130,217.39488146666653,218.33789516666653,73.0,40.0
1131,216.95370546666652,218.38936569999984,54.0,42.0
1132,215.6301774666665,218.39855686666652,42.0,66.0
1133,219.15958546666653,219.4114234333332,54.0,69.0
1134,219.15958546666653,219.46473219999984,61.0,58.0
1135,219.15958546666653,219.56399679999984,70.0,64.0
1136,219.15958546666653,219.59892323333318,66.0,61.0
1137,219.6007614666665,219.91142289999985,54.0,39.0
1138,219.82134946666653,220.21473139999986,61.0,55.0
1139,219.82134946666653,220.2606872333332,66.0,64.0
1140,219.82134946666653,220.31951069999985,73.0,64.0
1141,220.26252546666652,220.51987813333318,54.0,51.0
1142,220.4831134666665,220.66142209999987,61.0,70.0
1143,219.15958546666653,220.7753925666665,42.0,72.0
1144,220.4831134666665,220.7845837333332,70.0,64.0
1145,220.4831134666665,220.8047776583332,66.0,72.0
1146,220.70370146666653,221.23050169999985,54.0,62.0
1147,220.92253111666653,221.41166086666652,65.0,75.0
1148,220.92253111666653,221.41709564166652,68.0,73.0
1149,220.92253111666653,221.42253041666652,73.0,64.0
1150,221.35731311666652,221.57470411666654,54.0,51.0
1151,220.92253111666653,222.5221665583332,42.0,70.0
1152,222.66165911666653,223.14716568333318,63.0,69.0
1153,222.66165911666653,223.15441204999985,66.0,72.0
1154,222.87905011666652,223.2449916333332,70.0,17.0
1155,223.31383211666653,223.7939039083332,70.0,70.0
1156,223.31383211666653,223.81201982499985,63.0,64.0
1157,223.31383211666653,223.81201982499985,66.0,72.0
1158,222.66165911666653,224.02035286666654,51.0,63.0
1159,223.96600511666654,224.06745424999986,70.0,54.0
1160,223.96600511666654,224.08013539166652,66.0,67.0
1161,223.96600511666654,224.09462812499987,63.0,58.0
1162,224.40435634166653,224.72898306666653,59.0,64.0
1163,224.40435634166653,224.73271440833318,66.0,72.0
1164,224.40435634166653,224.74577410416651,47.0,63.0
1165,224.40435634166653,224.75883379999985,63.0,64.0
1166,224.40435634166653,224.7793561791665,71.0,70.0
1167,225.07599784166652,225.36331114999984,61.0,72.0
1168,225.07599784166652,225.54428122083317,73.0,69.0
1169,225.07599784166652,225.55547524583318,68.0,73.0
1170,225.07599784166652,225.55920658749986,65.0,64.0
1171,225.07599784166652,225.92301239999986,49.0,59.0
1172,226.19540034166653,226.67860908749984,63.0,60.0
1173,226.19540034166653,226.68980311249985,66.0,72.0
1174,226.19540034166653,226.71778817499984,71.0,70.0
1175,226.19540034166653,226.94726568749985,56.0,28.0
1176,226.86704184166652,227.27032387499986,66.0,67.0
1177,226.86704184166652,227.30112093333318,63.0,58.0
1178,226.86704184166652,227.33010639999983,71.0,63.0
1179,227.3047441166665,227.5511205833332,56.0,45.0
1180,226.19540034166653,227.6000335583332,44.0,39.0
1181,227.5221351166665,227.6761204083332,66.0,66.0
1182,227.5221351166665,227.68698995833319,63.0,59.0
1183,227.5221351166665,227.7123522416665,71.0,67.0
1184,227.73952611666653,227.79206227499984,56.0,36.0
1185,227.95691711666652,228.4098150333332,68.0,61.0
1186,227.95691711666652,228.42068458333318,66.0,64.0
1187,227.95691711666652,228.43698890833318,61.0,59.0
1188,227.95691711666652,228.4514816416665,73.0,36.0
1189,228.3916991166665,228.6652494583332,56.0,45.0
1190,228.60909011666652,229.02834469166652,61.0,63.0
1191,228.60909011666652,229.0337018354165,73.0,55.0
1192,228.60909011666652,229.04798755208319,66.0,72.0
1193,229.0390589791665,229.19620186249983,56.0,69.0
1194,227.95691711666652,229.22298758124984,49.0,78.0
1195,229.2533447291665,229.4337019020832,61.0,69.0
1196,229.2533447291665,229.56227335208317,71.0,73.0
1197,229.68362411666652,229.9771019666665,61.0,63.0
1198,229.68362411666652,230.01333379999986,66.0,64.0
1199,229.68362411666652,230.1184061166665,70.0,63.0
1200,230.33579711666653,230.42999988333318,68.0,62.0
1201,230.33579711666653,230.45200539999985,61.0,61.0
1202,230.7755344666665,230.97590189999985,58.0,67.0
1203,230.7755344666665,230.9942842333332,66.0,70.0
1204,230.1184061166665,231.05678416666652,49.0,64.0
1205,230.99612246666652,231.10825469999983,54.0,44.0
1206,229.68362411666652,231.13031349999986,42.0,72.0
1207,231.2167104666665,231.64930793333318,61.0,70.0
1208,231.44278648333318,231.64930793333318,61.0,67.0
1209,231.44278648333318,231.6801049916665,49.0,60.0
1210,231.44278648333318,231.71090204999985,37.0,65.0
1211,231.44278648333318,231.80691640833317,66.0,66.0
1212,231.44278648333318,231.8757568916665,59.0,63.0
1213,232.03517695833318,232.27793024166652,49.0,60.0
1214,232.03517695833318,232.77974113333318,37.0,74.0
1215,232.52974148333317,232.78698749999984,49.0,53.0
1216,232.03517695833318,233.05883440833318,68.0,68.0
1217,232.95727711666652,233.05883440833318,68.0,45.0
1218,232.03517695833318,233.07935678749985,61.0,69.0
1219,232.03517695833318,233.0942821541665,59.0,63.0
1220,233.17823734166652,233.5644312041665,70.0,61.0
1221,233.17823734166652,233.60920730416652,66.0,72.0
1222,233.17823734166652,233.6315953541665,61.0,67.0
1223,233.6259983416665,234.03084891249983,58.0,52.0
1224,233.8498788416665,234.28458014583316,70.0,69.0
1225,233.8498788416665,234.3312219166665,66.0,72.0
1226,233.8498788416665,234.34987862499983,61.0,66.0
1227,233.17823734166652,234.50099796249984,54.0,67.0
1228,234.5215203416665,234.73234114583317,61.0,69.0
1229,234.5215203416665,234.77152023333318,66.0,76.0
1230,234.5215203416665,234.88419049166652,70.0,61.0
1231,234.2976398416665,235.0037555416665,58.0,67.0
1232,234.9657121166665,235.0037555416665,58.0,75.0
1233,234.9657121166665,235.33708840833316,66.0,63.0
1234,234.9657121166665,235.34252318333316,63.0,73.0
1235,235.4004941166665,235.7809283666665,58.0,61.0
1236,235.6178851166665,236.05991348333316,68.0,69.0
1237,235.6178851166665,236.07259462499985,61.0,73.0
1238,235.6178851166665,236.08889894999984,65.0,73.0
1239,235.6178851166665,236.09433372499984,73.0,64.0
1240,236.0526671166665,236.3841883916665,58.0,60.0
1241,234.9657121166665,236.4276665916665,54.0,46.0
1242,236.2700581166665,236.5146229916665,61.0,80.0
1243,236.4874491166665,236.6450575916665,73.0,67.0
1244,236.7048401166665,236.8570138166665,73.0,49.0
1245,236.7048401166665,236.95121658333318,63.0,66.0
1246,236.7048401166665,237.0798395916665,70.0,63.0
1247,236.7048401166665,237.14686848333318,66.0,69.0
1248,237.3570131166665,237.57983901249983,70.0,72.0
1249,237.3570131166665,237.5947643791665,66.0,72.0
1250,237.13962211666652,237.7682717666665,58.0,60.0
1251,237.3570131166665,237.9156597624998,63.0,59.0
1252,237.80185384166649,238.08357013749983,70.0,70.0
1253,238.0257343416665,238.15259995833316,58.0,69.0
1254,237.80185384166649,238.19177904583316,66.0,73.0
1255,236.7048401166665,238.19737605833316,51.0,73.0
1256,238.4734953416665,238.78319669999982,70.0,59.0
1257,238.4734953416665,238.80558474999984,63.0,64.0
1258,238.4734953416665,238.83730115416648,66.0,69.0
1259,238.69737584166649,238.8652862166665,59.0,51.0
1260,238.69737584166649,238.87088322916648,54.0,47.0
1261,238.4734953416665,238.91192798749984,47.0,78.0
1262,238.9212563416665,239.02013689583316,73.0,50.0
1263,239.1451368416665,239.29812184999983,65.0,80.0
1264,239.1451368416665,239.33170392499983,68.0,80.0
1265,239.8167783416665,240.0070767666665,61.0,57.0
1266,239.1451368416665,240.03319615833317,49.0,80.0
1267,239.59289784166648,240.0742409166665,56.0,57.0
1268,240.0406588416665,240.19319078958316,78.0,72.0
1269,240.2592622291665,240.53961941874982,56.0,58.0
1270,240.2592622291665,240.69497658749984,59.0,76.0
1271,240.2592622291665,240.70569087499982,63.0,63.0
1272,240.6878337291665,241.0306909291665,56.0,47.0
1273,240.9021194791665,241.30033383124982,66.0,69.0
1274,240.9021194791665,241.36461955624983,59.0,70.0
1275,240.9021194791665,241.37711955833316,63.0,72.0
1276,241.3306909791665,241.5771195916665,56.0,48.0
1277,241.5449767291665,241.62890531458316,63.0,64.0
1278,241.5449767291665,241.64854817499983,59.0,64.0
1279,240.2592622291665,241.81461963124983,44.0,59.0
1280,241.7592624791665,242.04854824166648,56.0,49.0
1281,241.97354822916648,242.18069112083316,49.0,76.0
1282,241.97354822916648,242.2360482729165,68.0,63.0
1283,241.97354822916648,242.25033398958317,65.0,67.0
1284,241.97354822916648,242.2521197041665,61.0,69.0
1285,242.4021197291665,242.69854834999984,54.0,29.0
1286,242.6164054791665,243.11475717708316,61.0,66.0
1287,242.6164054791665,243.1339879479165,66.0,72.0
1288,242.1878339791665,243.23014180208315,49.0,47.0
1289,243.0705264041665,243.28783411458315,54.0,61.0
1290,243.3012956541665,243.62052644999983,66.0,72.0
1291,243.53206490416648,243.73736019999984,68.0,69.0
1292,243.7554761166665,244.15040309999983,42.0,70.0
1293,243.9728671166665,244.1793885666665,49.0,54.0
1294,243.7554761166665,244.18301174999982,61.0,60.0
1295,243.7554761166665,244.19388129999982,70.0,67.0
1296,243.7554761166665,244.38228683333315,66.0,69.0
1297,244.19025811666648,244.47105482499984,54.0,44.0
1298,244.4076491166665,244.6685183166665,66.0,47.0
1299,244.4076491166665,244.70475014999982,63.0,61.0
1300,244.4076491166665,244.7174312916665,71.0,72.0
1301,244.8424311166665,244.95474979999983,58.0,69.0
1302,244.4076491166665,244.96380775833316,56.0,66.0
1303,245.05982211666648,245.30257539999982,66.0,66.0
1304,245.4946041166665,245.56887937499982,68.0,26.0
1305,245.4946041166665,245.58518369999982,61.0,66.0
1306,245.4946041166665,245.61235757499983,56.0,56.0
1307,245.4946041166665,245.61598075833317,49.0,47.0
1308,245.4946041166665,245.63953144999982,37.0,72.0
1309,245.4946041166665,245.64315463333315,65.0,63.0
1310,245.7119951166665,245.78083559999982,68.0,30.0
1311,245.7119951166665,245.81887902499983,61.0,70.0
1312,245.7119951166665,245.82793698333316,49.0,53.0
1313,245.7119951166665,245.82793698333316,56.0,57.0
1314,245.7119951166665,245.84061812499982,65.0,51.0
1315,245.7119951166665,245.85511085833315,37.0,77.0
1316,245.9293861166665,246.00184978333317,68.0,38.0
1317,245.2772131166665,246.00184978333317,73.0,61.0
1318,245.9293861166665,246.02902365833316,61.0,77.0
1319,245.9293861166665,246.03083524999983,49.0,56.0
1320,245.9293861166665,246.0435163916665,65.0,60.0
1321,245.9293861166665,246.05076275833315,56.0,63.0
1322,245.9293861166665,246.0598207166665,37.0,78.0
1323,246.1467771166665,246.23192192499982,68.0,57.0
1324,246.1467771166665,246.23554510833316,61.0,47.0
1325,246.1467771166665,246.25174592499982,49.0,81.0
1326,246.1467771166665,246.25174592499982,65.0,81.0
1327,246.1467771166665,246.25888878333316,56.0,76.0
1328,246.1467771166665,246.26603164166647,37.0,82.0
1329,246.3624602291665,246.43746024166649,68.0,60.0
1330,246.3624602291665,246.4392459562498,61.0,81.0
1331,246.3624602291665,246.44638881458314,49.0,82.0
1332,246.3624602291665,246.4499602437498,65.0,68.0
1333,246.3624602291665,246.4660316749998,37.0,78.0
1334,246.3624602291665,246.4660316749998,56.0,84.0
1335,246.57674597916647,246.65174599166647,68.0,56.0
1336,246.57674597916647,246.66067456458316,61.0,86.0
1337,246.57674597916647,246.66424599374983,49.0,79.0
1338,246.57674597916647,246.66603170833315,65.0,66.0
1339,246.57674597916647,246.68567456874982,37.0,81.0
1340,246.57674597916647,246.68746028333314,56.0,86.0
1341,246.7910317291665,246.8821031729165,49.0,84.0
1342,246.7910317291665,246.8838888874998,68.0,68.0
1343,246.7910317291665,246.88567460208316,61.0,74.0
1344,246.7910317291665,246.88567460208316,65.0,70.0
1345,246.7910317291665,246.89817460416648,37.0,88.0
1346,246.7910317291665,246.91246032083316,56.0,78.0
1347,247.00531747916648,247.1131097041665,49.0,117.0
1348,247.00531747916648,247.11500364374982,37.0,113.0
1349,247.00531747916648,247.11500364374982,61.0,106.0
1350,247.00531747916648,247.1187915229165,68.0,84.0
1351,247.00531747916648,247.13394303958316,56.0,97.0
1352,247.00531747916648,247.13394303958316,65.0,88.0
1353,247.2267460791665,247.5449279291665,61.0,60.0
1354,247.2267460791665,247.56386732499982,66.0,62.0
1355,247.2267460791665,247.56386732499982,70.0,56.0
1356,247.2267460791665,247.79871583333315,42.0,69.0
1357,247.2267460791665,247.82712492708316,54.0,62.0
1358,247.9085643291665,248.02788252291649,54.0,54.0
1359,247.9085643291665,248.05439767708316,42.0,66.0
1360,247.6812915791665,248.15477647499984,70.0,61.0
1361,247.6812915791665,248.2097007229165,61.0,63.0
1362,247.6812915791665,248.2097007229165,66.0,66.0
1363,248.1358370791665,248.4483371104165,49.0,70.0
1364,248.3631098291665,248.66614016249983,61.0,67.0
1365,248.3631098291665,248.67182198124982,70.0,64.0
1366,248.5903825791665,248.6983371354165,42.0,30.0
1367,248.3631098291665,248.70780683333317,66.0,69.0
1368,248.5903825791665,248.99420332499983,49.0,59.0
1369,249.0394931166665,249.32028982499983,66.0,57.0
1370,249.0394931166665,249.3438405166665,61.0,62.0
1371,249.0394931166665,249.35833324999984,68.0,70.0
1372,249.0394931166665,249.73876749999982,54.0,51.0
1373,249.6916661166665,250.09202787499984,61.0,66.0
1374,249.6916661166665,250.10289742499984,65.0,67.0
1375,249.6916661166665,250.10833219999984,68.0,64.0
1376,250.1264481166665,250.3764477666665,54.0,55.0
1377,250.3438391166665,250.5286214666665,66.0,73.0
1378,250.3438391166665,250.5286214666665,70.0,50.0
1379,250.3438391166665,250.53586783333316,61.0,58.0
1380,249.0394931166665,250.60651990833315,42.0,66.0
1381,250.5612301166665,250.88369343333318,54.0,55.0
1382,250.7786211166665,251.0938380666665,63.0,67.0
1383,250.7786211166665,251.11738875833316,70.0,66.0
1384,250.7786211166665,251.1210119416665,66.0,75.0
1385,251.2134031166665,251.35289567499984,65.0,67.0
1386,251.2134031166665,251.36738840833317,68.0,72.0
1387,251.4307941166665,251.5068809666665,66.0,72.0
1388,251.4307941166665,251.53767802499982,70.0,73.0
1389,251.8655761166665,252.14637282499984,78.0,66.0
1390,251.8655761166665,252.14999600833318,70.0,69.0
1391,252.0829671166665,252.19528579999982,63.0,63.0
1392,250.7786211166665,252.22245967499984,51.0,69.0
1393,251.4307941166665,252.23332922499984,58.0,63.0
1394,252.3003581166665,252.43441589999983,75.0,59.0
1395,252.5177491166665,252.73151693333315,78.0,51.0
1396,252.5177491166665,252.75325603333317,75.0,63.0
1397,252.5177491166665,252.77137194999983,71.0,72.0
1398,252.5177491166665,253.0014440916665,47.0,78.0
1399,252.7351401166665,253.01956000833317,54.0,60.0
1400,252.9525311166665,253.0612266166665,59.0,72.0
1401,253.1699221166665,253.54532129999984,65.0,72.0
1402,253.1699221166665,253.59495359999985,68.0,63.0
1403,253.1699221166665,253.64458589999984,61.0,50.0
1404,253.83024746666652,253.9662767333332,61.0,82.0
1405,253.1699221166665,254.00671786666652,49.0,78.0
1406,253.6096594666665,254.03612959999984,56.0,72.0
1407,253.83024746666652,254.08760013333318,66.0,93.0
1408,254.0508354666665,254.17032063333318,68.0,63.0
1409,254.2714234666665,254.58392313333317,63.0,76.0
1410,254.2714234666665,254.68134949999984,59.0,73.0
1411,254.2714234666665,254.6887024333332,66.0,70.0
1412,254.9331874666665,255.32289293333318,66.0,72.0
1413,254.9331874666665,255.33759879999985,63.0,72.0
1414,254.9331874666665,255.38723109999984,59.0,73.0
1415,254.2714234666665,255.84495119999985,44.0,76.0
1416,255.37436346666652,255.85230413333318,56.0,52.0
1417,254.71259946666652,255.8541423666665,51.0,49.0
1418,255.59495146666652,255.92995558333317,59.0,95.0
1419,255.8155394666665,256.12124348124985,46.0,66.0
1420,256.0398040791665,256.36556168749985,59.0,70.0
1421,256.0398040791665,256.5019253374998,63.0,75.0
1422,256.0398040791665,256.5341223104165,66.0,60.0
1423,256.4943495791665,256.8685379312499,59.0,60.0
1424,256.7216223291665,257.2185379895832,66.0,64.0
1425,256.7216223291665,257.2238951333332,61.0,75.0
1426,257.1560379791665,257.4381808833332,59.0,72.0
1427,257.3703237291665,257.4738951749999,61.0,78.0
1428,257.3703237291665,257.5024666083332,66.0,73.0
1429,256.0398040791665,257.51496661041654,47.0,57.0
1430,257.80060311666654,257.8893711083332,60.0,40.0
1431,257.80060311666654,257.9509652249999,66.0,51.0
1432,257.80060311666654,258.01799411666656,70.0,57.0
1433,258.45277611666654,258.6955293999999,70.0,64.0
1434,258.45277611666654,258.73900759999987,73.0,66.0
1435,258.01799411666656,258.79879012499987,61.0,53.0
1436,258.45277611666654,258.99987679999987,66.0,69.0
1437,257.80060311666654,259.13574617499984,54.0,70.0
1438,258.8875581166665,259.1683548249999,70.0,63.0
1439,259.10494911666655,259.3096589749999,61.0,47.0
1440,259.3223401166665,259.5034992833332,73.0,73.0
1441,259.3223401166665,259.55422384999986,68.0,67.0
1442,259.75712211666655,260.0560347416665,61.0,67.0
1443,259.9745131166665,260.1140056749999,66.0,82.0
1444,259.53973111666653,260.15929546666655,49.0,72.0
1445,260.19190411666654,260.3742887999999,68.0,67.0
1446,260.41105346666654,260.52134746666655,70.0,56.0
1447,260.19190411666654,260.6003914999999,61.0,62.0
1448,260.63164146666657,260.75112663333323,71.0,88.0
1449,260.19190411666654,260.8191412666666,49.0,72.0
1450,260.85222946666653,260.9790675666666,61.0,67.0
1451,260.85222946666653,261.0875233333332,73.0,78.0
1452,261.07281746666655,261.1334791666666,80.0,40.0
1453,261.29708207916656,261.44480936666656,73.0,63.0
1454,261.29708207916656,261.4523851249999,82.0,58.0
1455,261.52435482916655,261.99215790624993,61.0,58.0
1456,261.75162757916655,262.0902310249999,66.0,66.0
1457,261.97890032916655,262.0902310249999,68.0,82.0
1458,261.97890032916655,262.38552046666655,70.0,82.0
1459,262.4181291166666,262.76595471666656,61.0,62.0
1460,262.63552011666656,262.77682426666655,68.0,85.0
1461,261.29708207916656,262.8420415666666,54.0,73.0
1462,262.8529111166666,262.9869688999999,70.0,51.0
1463,263.07030211666654,263.1771860249999,70.0,55.0
1464,263.07030211666654,263.26595401666657,63.0,72.0
1465,263.07030211666654,263.3058090333332,66.0,80.0
1466,263.07030211666654,263.3855190666666,73.0,72.0
1467,263.72247511666654,263.85761448333324,73.0,72.0
1468,263.72247511666654,263.85948015416653,70.0,64.0
1469,263.72247511666654,263.9994054666666,78.0,75.0
1470,263.5050841166666,264.12253974166657,61.0,61.0
1471,263.72247511666654,264.1766441958332,66.0,63.0
1472,264.16731584166655,264.40239036666657,68.0,72.0
1473,264.16731584166655,264.44530079583325,73.0,91.0
1474,264.39119634166656,264.4863455541666,61.0,72.0
1475,264.16731584166655,264.4863455541666,77.0,78.0
1476,263.07030211666654,264.4975395791666,54.0,67.0
1477,264.61507684166656,264.7342053999999,77.0,64.0
1478,264.61507684166656,264.8003817999999,75.0,44.0
1479,264.8371464666666,265.1275873333333,70.0,66.0
1480,264.8371464666666,265.1459696666666,73.0,57.0
1481,264.8371464666666,265.1864107999999,78.0,72.0
1482,265.27832246666657,265.49707223333326,63.0,54.0
1483,265.4989104666666,265.5706015666666,78.0,43.0
1484,265.4989104666666,265.59266036666656,77.0,72.0
1485,265.4989104666666,265.6220720999999,70.0,58.0
1486,265.7194984666666,265.8518512666666,63.0,36.0
1487,265.94008646666657,266.0522186999999,68.0,75.0
1488,265.94008646666657,266.06140986666657,73.0,85.0
1489,265.0577344666666,266.18457149999995,58.0,48.0
1490,264.8371464666666,266.2047920666666,51.0,72.0
1491,266.1606744666666,266.25993906666656,63.0,73.0
1492,266.6018504666666,266.6478062999999,59.0,51.0
1493,266.6018504666666,266.87023253333325,63.0,70.0
1494,266.6018504666666,266.8739089999999,71.0,67.0
1495,266.6018504666666,266.89045309999995,66.0,72.0
1496,266.8224384666666,266.9161883666666,54.0,44.0
1497,266.6018504666666,266.96582066666656,47.0,75.0
1498,266.8224384666666,266.9768500666666,59.0,63.0
1499,267.04302646666656,267.1055263999999,73.0,45.0
1500,267.2636144666666,267.62758466666656,68.0,73.0
1501,267.2636144666666,267.64229053333327,65.0,80.0
1502,267.2636144666666,267.8316285666666,73.0,67.0
1503,267.2636144666666,268.07795183333326,49.0,76.0
1504,267.9253784666666,268.08346653333325,61.0,72.0
1505,267.70479046666657,268.1183929666666,56.0,60.0
1506,268.1459664666666,268.2850860833332,66.0,62.0
1507,268.3647961166666,268.76153469166655,63.0,43.0
1508,268.3647961166666,268.7687810583332,66.0,63.0
1509,268.3647961166666,268.78689697499993,71.0,82.0
1510,269.0169691166666,269.1963166916666,66.0,70.0
1511,269.0169691166666,269.2071862416666,56.0,62.0
1512,269.0169691166666,269.2071862416666,71.0,75.0
1513,269.0169691166666,269.2651571749999,63.0,66.0
1514,269.23436011666655,269.3720410833332,56.0,32.0
1515,269.45175111666657,269.6419682416666,66.0,67.0
1516,268.79957811666657,269.64921460833324,51.0,37.0
1517,269.45175111666657,269.6818232583332,70.0,69.0
1518,269.45175111666657,269.71080872499994,61.0,60.0
1519,269.6691421166666,269.7977651249999,51.0,42.0
1520,268.3647961166666,269.8303737749999,44.0,66.0
1521,269.6691421166666,269.8629824249999,56.0,73.0
1522,270.1039241166666,270.3104455666666,59.0,73.0
1523,270.1039241166666,270.35935854166655,63.0,67.0
1524,270.1039241166666,270.38834400833326,66.0,75.0
1525,270.1039241166666,270.40827151666656,71.0,73.0
1526,270.3213151166666,270.47892359166656,59.0,66.0
1527,270.1039241166666,270.5459524833332,47.0,63.0
1528,270.53870611666656,270.68001026666656,63.0,62.0
1529,270.7560971166666,271.0079083583332,66.0,58.0
1530,270.7560971166666,271.0676908833332,71.0,72.0
1531,271.19087911666657,271.49703810833324,63.0,67.0
1532,271.19087911666657,271.51334243333326,68.0,73.0
1533,271.62566111666655,271.71261751666657,66.0,69.0
1534,271.84305211666657,272.10029813333324,63.0,80.0
1535,271.84305211666657,272.10210972499993,66.0,70.0
1536,271.84305211666657,272.1419647416666,59.0,80.0
1537,271.84305211666657,272.16008065833324,47.0,70.0
1538,272.4952251166666,272.8031956999999,58.0,82.0
1539,272.4952251166666,272.9227607499999,66.0,80.0
1540,272.4952251166666,273.0423257999999,61.0,91.0
1541,272.4952251166666,273.1510212999999,46.0,72.0
1542,273.1473981166666,273.1510212999999,46.0,43.0
1543,273.1473981166666,273.24160088333326,66.0,69.0
1544,273.1473981166666,273.29594863333324,63.0,73.0
1545,273.1473981166666,273.31768773333323,59.0,93.0
1546,273.1473981166666,273.35754274999994,44.0,63.0
1547,273.58574934166654,274.00365960833324,54.0,75.0
1548,273.58574934166654,274.1641072999999,66.0,80.0
1549,273.58574934166654,274.1808983374999,61.0,95.0
1550,273.58574934166654,274.1995550458332,58.0,76.0
1551,274.25739084166656,274.5670921999999,54.0,50.0
1552,274.48127134166657,274.72753989166654,58.0,76.0
1553,274.48127134166657,274.7350025749999,66.0,67.0
1554,273.58574934166654,274.74433092916655,42.0,70.0
1555,274.48127134166657,274.7573906249999,61.0,91.0
1556,274.7051518416666,274.87679355833325,49.0,47.0
1557,274.9290323416666,275.15104717083324,63.0,66.0
1558,275.15291284166653,275.2611217499999,65.0,66.0
1559,275.37679334166654,275.9178378833332,66.0,59.0
1560,275.37679334166654,275.9178378833332,73.0,45.0
1561,275.37679334166654,275.93649459166653,61.0,59.0
1562,275.37679334166654,276.0036587416666,70.0,50.0
1563,275.37679334166654,276.74246439166654,54.0,59.0
1564,276.27231534166657,276.7667181124999,61.0,48.0
1565,275.37679334166654,276.8282852499999,42.0,61.0
1566,276.7200763416666,277.06492363333325,66.0,61.0
1567,277.16602646666655,277.6513200666666,66.0,58.0
1568,277.16602646666655,277.6917611999999,70.0,56.0
1569,277.82779046666656,278.25242236666656,73.0,63.0
1570,277.16602646666655,278.4583044999999,54.0,67.0
1571,278.26896646666654,278.5685984999999,66.0,52.0
1572,277.82779046666656,278.62374549999987,61.0,44.0
1573,278.48955446666656,278.69359836666655,68.0,60.0
1574,278.7101424666666,278.9546274999999,70.0,62.0
1575,278.93073046666655,279.3902887999999,68.0,66.0
1576,279.59249446666655,280.05021456666657,61.0,64.0
1577,279.59249446666655,280.05021456666657,61.0,67.0
1578,279.57962683333324,280.12006743333325,56.0,84.0
1579,279.5851415333332,280.13293506666656,53.0,76.0
1580,279.5888179999999,280.1366115333332,65.0,71.0
1581,279.5851415333332,280.1402879999999,41.0,79.0
1582,280.03367046666654,280.1991114666666,66.0,66.0
1583,280.25425846666656,280.4288906333332,68.0,57.0
1584,280.4748464666666,280.63839679166654,70.0,64.0
1585,280.69196822916655,281.13125401666656,66.0,64.0
1586,280.69196822916655,281.16339687916656,73.0,66.0
1587,281.1205397291665,281.7211087333332,63.0,54.0
1588,281.33482547916657,281.8134999083332,65.0,64.0
1589,280.90625397916654,281.9221954083332,58.0,58.0
1590,280.69196822916655,281.9348765499999,51.0,69.0
1591,281.7682101166666,281.9783547499999,66.0,59.0
1592,282.4203831166665,282.7881362249999,47.0,64.0
1593,282.4203831166665,282.8569767083332,59.0,59.0
1594,282.4203831166665,282.97110698333324,66.0,64.0
1595,282.4203831166665,282.9747301666666,63.0,63.0
1596,282.4203831166665,283.0435706499999,70.0,59.0
1597,283.07255611666653,283.4403092249999,73.0,58.0
1598,283.28994711666655,283.6196567999999,68.0,59.0
1599,283.28994711666655,283.7011784249999,65.0,56.0
1600,283.72472911666654,283.86965644999987,61.0,60.0
1601,283.5073381166666,283.89501873333325,56.0,49.0
1602,283.28994711666655,283.9022650999999,49.0,60.0
1603,283.94212011666656,284.0859018999999,65.0,57.0
1604,284.16126946666657,284.47376913333324,44.0,70.0
1605,284.3818574666666,284.5859013666666,51.0,61.0
1606,284.60244546666655,284.87818046666655,56.0,46.0
1607,284.16126946666657,284.9819995333333,66.0,61.0
1608,284.16126946666657,285.0622233791666,71.0,60.0
1609,284.8230334666666,285.16110393333327,58.0,58.0
1610,285.0454323416666,285.3719247374999,59.0,66.0
1611,285.2693128416666,285.4446858999999,63.0,55.0
1612,285.4931933416666,285.7245365249999,66.0,45.0
1613,285.7170738416666,285.85948673749994,68.0,57.0
1614,285.9428200791666,286.60191105416664,71.0,67.0
1615,285.9428200791666,286.8536968020833,63.0,61.0
1616,286.3973655791666,287.05191112083327,49.0,60.0
1617,286.8447682291666,287.1822682854166,56.0,69.0
1618,287.2733397291666,287.55369691874995,66.0,55.0
1619,287.0590539791666,287.6144112145833,61.0,64.0
1620,287.48762547916664,287.762625525,68.0,62.0
1621,287.7019112291666,287.9251255520833,70.0,66.0
1622,287.7019112291666,288.03583985624994,54.0,70.0
1623,287.9161969791666,288.1036970104166,61.0,63.0
1624,288.1304827291666,288.4126256333333,66.0,53.0
1625,288.55905422916663,288.6715542479166,70.0,66.0
1626,288.3447684791666,288.6876256791666,68.0,63.0
1627,288.7733399791666,288.96262572499995,73.0,62.0
1628,288.9876257291666,289.2697686333333,78.0,64.0
1629,289.2019114791666,289.37261532499997,85.0,60.0
1630,289.41790511666665,289.48674559999995,85.0,46.0
1631,289.41790511666665,289.6534120333333,83.0,80.0
1632,289.41790511666665,289.9233391916666,49.0,63.0
1633,289.63529611666667,289.9450782916666,54.0,55.0
1634,289.85268711666663,290.00848399999995,59.0,56.0
1635,289.85268711666663,290.03565787499997,82.0,67.0
1636,290.07007811666665,290.44507759166663,78.0,61.0
1637,290.2874691166666,290.676961325,49.0,75.0
1638,290.50486011666663,290.75304817499995,73.0,61.0
1639,290.50486011666663,290.7784104583333,56.0,69.0
1640,290.72225111666665,290.916091425,71.0,82.0
1641,290.72225111666665,291.0932373020833,61.0,52.0
1642,290.9396421166666,291.20669884999995,68.0,63.0
1643,291.16439115416665,291.56823734166665,70.0,63.0
1644,291.39516040416663,292.0928978666666,61.0,59.0
1645,291.85669890416665,292.1590742666666,70.0,51.0
1646,292.0818684666666,292.3520887666666,73.0,58.0
1647,291.6259296541666,292.3833387333333,66.0,60.0
1648,292.3024564666666,292.4678974666666,75.0,56.0
1649,291.16439115416665,292.5781914666666,54.0,72.0
1650,292.5230444666666,292.7178971999999,77.0,53.0
1651,292.5230444666666,292.8392205999999,61.0,48.0
1652,292.7436324666666,292.90099562916663,78.0,56.0
1653,292.9590941916666,293.37634750416663,73.0,63.0
1654,292.9590941916666,293.51015025416666,77.0,59.0
1655,293.17036169166664,293.64747412916665,61.0,53.0
1656,293.38162919166666,293.65803750416666,66.0,56.0
1657,293.5928966916666,293.77192225416667,73.0,80.0
1658,293.5928966916666,293.9361012875,68.0,67.0
1659,292.9590941916666,294.22341459583333,54.0,72.0
1660,294.03498184166665,294.2252802666667,61.0,66.0
1661,294.25886234166666,294.52565327083335,66.0,73.0
1662,294.48274284166666,294.66744425416664,68.0,55.0
1663,294.70662334166667,294.92117548749997,63.0,55.0
1664,294.70662334166667,295.13945897499997,70.0,66.0
1665,294.70662334166667,295.1674440375,66.0,62.0
1666,294.9305038416667,295.5443095458333,58.0,57.0
1667,295.37826484166663,295.6898318708333,65.0,63.0
1668,295.37826484166663,295.7943094375,68.0,73.0
1669,295.1543843416667,295.79990645,63.0,53.0
1670,295.82602584166665,295.99393621666667,66.0,66.0
1671,295.82602584166665,296.0536376833333,70.0,70.0
1672,294.70662334166667,296.1077421375,51.0,70.0
1673,296.04990634166666,296.1506525666667,58.0,63.0
1674,296.49766734166667,296.818562725,63.0,63.0
1675,296.49766734166667,296.84468211666666,66.0,75.0
1676,296.49766734166667,296.8596074833333,71.0,61.0
1677,296.49766734166667,296.9342343166667,59.0,82.0
1678,296.49766734166667,296.97901041666665,47.0,70.0
1679,296.9454283416667,297.0722939583333,63.0,25.0
1680,297.38791222916666,297.6950551375,61.0,55.0
1681,297.38791222916666,297.70041228125,65.0,66.0
1682,297.16930884166663,297.70755513958335,68.0,62.0
1683,297.60219797916665,297.80576944166665,56.0,53.0
1684,297.38791222916666,297.877198025,49.0,73.0
1685,297.81648372916663,298.00576947499997,61.0,57.0
1686,298.0307694791667,298.1789837895833,66.0,49.0
1687,298.24505522916667,298.80398389375,63.0,62.0
1688,298.24505522916667,298.8218410395833,66.0,69.0
1689,298.24505522916667,298.8307696125,71.0,64.0
1690,298.24505522916667,299.51345077916665,44.0,45.0
1691,299.09735479166665,299.51516310833335,66.0,70.0
1692,299.09735479166665,299.5305740708333,63.0,57.0
1693,299.09735479166665,299.5733823,71.0,60.0
1694,298.24505522916667,299.57680695833335,56.0,61.0
1695,299.92939334166664,300.38275135416666,66.0,69.0
1696,299.92939334166664,300.3902140375,68.0,70.0
1697,299.92939334166664,300.39954239166667,71.0,63.0
1698,299.92939334166664,300.94245260416665,61.0,61.0
1699,300.82491534166667,301.0599898666667,66.0,61.0
1700,300.82491534166667,301.07678090416664,68.0,67.0
1701,300.82491534166667,301.15327340833335,71.0,59.0
1702,301.72043734166664,302.8510338666667,80.0,44.0
1703,301.72043734166664,302.8939442958333,85.0,45.0
1704,301.72043734166664,302.8976756375,78.0,58.0
1705,301.72043734166664,302.92752637083333,73.0,47.0
1706,299.92939334166664,303.01707857083335,47.0,63.0
1707,301.2726763416667,303.0338696083333,61.0,45.0
1708,303.51148134166664,303.75401855,59.0,67.0
1709,303.51148134166664,303.7670782458333,71.0,76.0
1710,303.51148134166664,303.7745409291667,63.0,69.0
1711,303.51148134166664,303.7801379416667,66.0,72.0
1712,303.51148134166664,303.78946629583334,47.0,73.0
1713,304.18312284166666,304.4648391375,61.0,69.0
1714,304.18312284166666,304.48163017499996,70.0,72.0
1715,304.18312284166666,304.48536151666667,58.0,63.0
1716,304.18312284166666,304.48722718749997,66.0,72.0
1717,304.18312284166666,304.5376003,46.0,63.0
1718,304.8547643416667,304.97230160416666,56.0,62.0
1719,304.8547643416667,305.0133463625,44.0,70.0
1720,304.8547643416667,305.03946575416666,66.0,73.0
1721,304.8547643416667,305.041331425,63.0,64.0
1722,304.8547643416667,305.04506276666666,71.0,73.0
1723,305.52640584166664,306.92752463749997,66.0,64.0
1724,305.52640584166664,306.9312559791667,61.0,69.0
1725,305.52640584166664,306.94804701666664,68.0,69.0
1726,305.52640584166664,306.96483805416665,70.0,72.0
1727,307.54133034166665,308.1215539708333,78.0,47.0
1728,307.727897425,308.14021067916667,85.0,52.0
1729,307.76521084166666,308.1514047041667,90.0,40.0
1730,307.6532705916667,308.17938976666665,82.0,45.0
1731,305.52640584166664,308.3230464208333,54.0,64.0
1732,305.52640584166664,308.3566284958333,42.0,66.0
