,start,end,pitch,velocity
0,15.636348,15.9677870625,66.0,89.0
1,16.090893,16.4261199375,69.0,87.0
2,16.545438,16.878771,69.0,87.0
3,16.999983,17.14392225,66.0,86.0
4,17.2272555,18.8730871875,69.0,87.0
5,19.272708,19.606041,66.0,90.0
6,19.727253,20.0435405625,62.0,87.0
7,20.181798,20.5605855,62.0,89.0
8,20.636343,20.7727065,59.0,87.0
9,20.8636155,22.6041440625,62.0,86.0
10,22.909068,23.2670221875,66.0,85.0
11,23.363613,23.6874763125,69.0,87.0
12,23.818158,24.35603625,71.0,85.0
13,24.4999755,26.140125375,69.0,86.0
14,26.545428,26.912851875,64.0,89.0
15,26.999973,27.3276241875,66.0,86.0
16,27.454518,27.7726995,69.0,86.0
17,27.909063,28.08330525,66.0,86.0
18,28.1363355,29.7026218125,64.0,76.0
19,30.181788,30.518908875,66.0,86.0
20,30.636333,30.9374690625,62.0,86.0
21,31.090878,31.4867109375,62.0,89.0
22,31.545423,31.6950440625,59.0,86.0
23,31.7726955,32.909058,66.0,85.0
24,33.363603,33.4999665,57.0,85.0
25,33.5908755,33.7177693125,59.0,86.0
26,33.818148,34.1192840625,66.0,87.0
27,34.272693,34.5700411875,62.0,86.0
28,34.727238,35.0776164375,62.0,86.0
29,35.181783,35.363601,59.0,85.0
30,35.4090555,36.7367056875,66.0,79.0
31,37.454508,37.818144,66.0,85.0
32,37.909053,38.0283710625,64.0,86.0
33,38.1363255,38.454507,64.0,86.0
34,38.5908705,38.890112625,62.0,85.0
35,39.0454155,39.2026123125,59.0,85.0
36,39.272688,39.6420058125,66.0,78.0
37,39.727233,39.852232875,64.0,85.0
38,39.9545055,40.4999595,64.0,85.0
39,41.090868,41.3730646875,57.0,81.0
40,41.545413,41.6723068125,69.0,87.0
41,41.7726855,41.9185186875,69.0,85.0
42,41.999958,42.3200334375,64.0,80.0
43,42.454503,42.5851846875,66.0,81.0
44,42.6817755,44.4374555625,62.0,81.0
45,44.727228,45.0586670625,66.0,89.0
46,45.181773,45.5169999375,69.0,87.0
47,45.636318,45.969651,69.0,87.0
48,46.090863,46.23480225,66.0,86.0
49,46.3181355,47.9639671875,69.0,87.0
50,48.1363155,48.363588,66.0,90.0
51,48.363588,48.696921,66.0,90.0
52,48.818133,49.1344205625,62.0,87.0
53,49.272678,49.6514655,62.0,89.0
54,49.727223,49.8635865,59.0,87.0
55,49.9544955,51.6950240625,62.0,86.0
56,51.999948,52.3579021875,66.0,85.0
57,52.454493,52.7783563125,69.0,87.0
58,52.909038,53.44691625,71.0,85.0
59,53.5908555,55.231005375,69.0,86.0
60,55.4090355,55.776459375,66.0,89.0
61,55.636308,56.003731875,64.0,89.0
62,56.090853,56.4185041875,66.0,86.0
63,56.545398,56.8635795,69.0,86.0
64,56.999943,57.17418525,66.0,86.0
65,57.2272155,58.7935018125,64.0,76.0
66,59.272668,59.609788875,66.0,86.0
67,59.727213,60.0283490625,62.0,86.0
68,60.181758,60.5775909375,62.0,89.0
69,60.636303,60.7859240625,59.0,86.0
70,60.8635755,61.999938,66.0,85.0
71,62.454483,62.5908465,57.0,85.0
72,62.6817555,62.8086493125,59.0,86.0
73,62.909028,63.2101640625,66.0,87.0
74,63.363573,63.6609211875,62.0,86.0
75,63.818118,64.1684964375,62.0,86.0
76,64.272663,64.454481,59.0,85.0
77,64.4999355,65.8275856875,66.0,79.0
78,66.545388,66.909024,66.0,85.0
79,66.999933,67.1192510625,64.0,86.0
80,67.2272055,67.545387,64.0,86.0
81,67.6817505,67.980992625,62.0,85.0
82,68.1362955,68.2934923125,59.0,85.0
83,68.363568,68.7328858125,66.0,78.0
84,68.818113,68.943112875,64.0,85.0
85,69.0453855,69.5908395,64.0,85.0
86,70.181748,70.4639446875,57.0,81.0
87,70.636293,70.7631868125,69.0,87.0
88,70.8635655,71.0093986875,69.0,85.0
89,71.090838,71.4109134375,64.0,80.0
90,71.545383,71.6760646875,66.0,81.0
91,71.7726555,73.5283355625,62.0,81.0
92,77.64493000416668,78.00616289583336,74.0,92.0
93,78.17356350416668,78.47532512708335,74.0,92.0
94,78.67040068958335,78.97153675208335,66.0,88.0
95,79.12494568958336,80.61926237708334,69.0,87.0
96,80.94312568958335,81.08138312708336,66.0,94.0
97,81.17039818958335,81.28971625208335,64.0,87.0
98,81.39767068958335,81.70638250208336,62.0,89.0
99,81.85221568958335,82.21963956458335,62.0,91.0
100,82.30676068958336,82.65524518958335,71.0,89.0
101,82.76130568958335,84.25562237708336,69.0,94.0
102,85.03403068958335,85.37304550208336,71.0,86.0
103,85.48857568958336,85.81433293958335,71.0,87.0
104,85.94312068958335,86.32759000208335,71.0,86.0
105,86.39766568958335,87.83895212708335,62.0,87.0
106,88.21584568958335,88.37872431458335,59.0,89.0
107,88.44311818958334,88.60410287708335,62.0,86.0
108,88.67039068958336,89.00561762708335,69.0,88.0
109,89.12493568958335,89.47342018958335,66.0,85.0
110,89.57948068958335,89.85220768958335,66.0,86.0
111,90.03402568958336,92.09462968958336,64.0,91.0
112,92.30675068958335,92.61735643958335,74.0,92.0
113,92.76129568958335,93.02076512708335,74.0,92.0
114,93.21584068958336,93.51697675208335,66.0,88.0
115,93.67038568958336,95.16470237708336,69.0,87.0
116,95.48856568958335,95.62682312708336,66.0,94.0
117,95.71583818958335,95.83515625208335,64.0,87.0
118,95.94311068958335,96.25182250208336,62.0,89.0
119,96.39765568958336,96.76507956458335,62.0,91.0
120,96.85220068958336,97.20068518958335,71.0,89.0
121,97.30674568958335,98.80106237708335,69.0,94.0
122,99.57947068958336,99.93174306458334,66.0,91.0
123,100.03401568958336,100.14386406458335,62.0,88.0
124,100.26128818958335,100.79348462708336,62.0,88.0
125,100.94310568958335,101.06810556458335,59.0,86.0
126,101.17037818958335,101.36355981458335,59.0,86.0
127,101.39765068958334,101.74234731458336,66.0,86.0
128,101.85219568958335,101.96772587708335,64.0,85.0
129,102.07946818958335,102.83893712708335,64.0,89.0
130,103.21583068958336,103.32567906458335,57.0,87.0
131,103.44310318958335,103.58893637708336,57.0,86.0
132,103.67037568958335,103.89764818958335,69.0,89.0
133,103.89764818958335,104.12803817916668,69.0,89.0
134,104.12803817916668,104.35880692916669,64.0,87.0
135,104.35880692916669,104.82034442916668,66.0,86.0
136,104.82034442916668,106.80096493958335,62.0,86.0
137,135.97139031458335,136.30282937708336,66.0,89.0
138,136.42593531458334,136.76116225208335,69.0,87.0
139,136.88048031458334,137.21381331458335,69.0,87.0
140,137.33502531458333,137.47896456458335,66.0,86.0
141,137.56229781458336,139.20812950208335,69.0,87.0
142,139.38047781458334,139.60775031458334,66.0,90.0
143,139.60775031458334,139.94108331458335,66.0,90.0
144,140.06229531458337,140.37858287708335,62.0,87.0
145,140.51684031458336,140.89562781458335,62.0,89.0
146,140.97138531458336,141.10774881458335,59.0,87.0
147,141.19865781458336,142.93918637708333,62.0,86.0
148,143.24411031458334,143.60206450208335,66.0,85.0
149,143.69865531458333,144.02251862708334,69.0,87.0
150,144.15320031458336,144.69107856458334,71.0,85.0
151,144.83501781458335,146.47516768958334,69.0,86.0
152,146.65319781458334,147.02062168958335,66.0,89.0
153,146.88047031458336,147.24789418958335,64.0,89.0
154,147.33501531458336,147.66266650208334,66.0,86.0
155,147.78956031458335,148.10774181458333,69.0,86.0
156,148.24410531458335,148.41834756458334,66.0,86.0
157,148.47137781458335,150.03766412708336,64.0,76.0
158,150.51683031458336,150.85395118958334,66.0,86.0
159,150.97137531458336,151.27251137708333,62.0,86.0
160,151.42592031458335,151.82175325208334,62.0,89.0
161,151.88046531458335,152.03008637708336,59.0,86.0
162,152.10773781458334,153.24410031458336,66.0,85.0
163,153.69864531458336,153.83500881458335,57.0,85.0
164,153.92591781458336,154.05281162708334,59.0,86.0
165,154.15319031458336,154.45432637708336,66.0,87.0
166,154.60773531458335,154.90508350208336,62.0,86.0
167,155.06228031458335,155.41265875208336,62.0,86.0
168,155.51682531458334,155.69864331458336,59.0,85.0
169,155.74409781458334,157.07174800208335,66.0,79.0
170,157.78955031458335,158.15318631458337,66.0,85.0
171,158.24409531458335,158.36341337708336,64.0,86.0
172,158.47136781458335,158.78954931458335,64.0,86.0
173,158.92591281458334,159.22515493958335,62.0,85.0
174,159.38045781458334,159.53765462708336,59.0,85.0
175,159.60773031458336,159.97704812708335,66.0,78.0
176,160.06227531458336,160.18727518958335,64.0,85.0
177,160.28954781458336,160.83500181458334,64.0,85.0
178,161.42591031458335,161.70810700208335,57.0,81.0
179,161.88045531458334,162.00734912708336,69.0,87.0
180,162.10772781458334,162.25356100208336,69.0,85.0
181,162.33500031458334,162.65507575208335,64.0,80.0
182,162.78954531458334,162.92022700208335,66.0,81.0
183,163.01681781458336,164.77249787708334,62.0,81.0
184,165.06227031458334,165.37287606458335,74.0,92.0
185,165.51681531458334,165.77628475208334,74.0,92.0
186,165.97136031458336,166.27249637708334,66.0,88.0
187,166.42590531458336,167.92022200208334,69.0,87.0
188,168.24408531458334,168.38234275208333,66.0,94.0
189,168.47135781458334,168.59067587708336,64.0,87.0
190,168.69863031458334,169.00734212708335,62.0,89.0
191,169.15317531458334,169.52059918958335,62.0,91.0
192,169.60772031458333,169.95620481458334,71.0,89.0
193,170.06226531458333,171.55658200208336,69.0,94.0
194,172.33499031458337,172.67400512708335,71.0,86.0
195,172.78953531458336,173.11529256458334,71.0,87.0
196,173.24408031458336,173.62854962708334,71.0,86.0
197,173.69862531458335,175.13991175208335,62.0,87.0
198,175.51680531458334,175.67968393958336,59.0,89.0
199,175.74407781458336,175.90506250208335,62.0,86.0
200,175.97135031458333,176.30657725208334,69.0,88.0
201,176.42589531458333,176.77437981458337,66.0,85.0
202,176.88044031458335,177.15316731458336,66.0,86.0
203,177.33498531458335,179.39558931458333,64.0,91.0
204,179.60771031458336,179.91831606458334,74.0,92.0
205,180.06225531458335,180.32172475208336,74.0,92.0
206,180.51680031458335,180.81793637708336,66.0,88.0
207,180.97134531458335,182.46566200208335,69.0,87.0
208,182.78952531458333,182.92778275208335,66.0,94.0
209,183.01679781458336,183.13611587708334,64.0,87.0
210,183.24407031458335,183.55278212708333,62.0,89.0
211,183.69861531458335,184.06603918958336,62.0,91.0
212,184.15316031458335,184.50164481458336,71.0,89.0
213,184.60770531458334,186.10202200208334,69.0,94.0
214,186.88043031458335,187.23270268958333,66.0,91.0
215,187.33497531458335,187.44482368958336,62.0,88.0
216,187.56224781458334,188.09444425208335,62.0,88.0
217,188.24406531458334,188.36906518958335,59.0,86.0
218,188.47133781458336,188.66451943958333,59.0,86.0
219,188.69861031458333,189.04330693958335,66.0,86.0
220,189.15315531458333,189.26868550208334,64.0,85.0
221,189.38042781458336,190.13989675208336,64.0,89.0
222,190.51679031458335,190.62663868958333,57.0,87.0
223,190.74406281458334,190.88989600208333,57.0,86.0
224,190.97133531458334,191.19860781458334,69.0,89.0
225,191.19860781458334,191.42588031458337,69.0,89.0
226,191.42588031458337,191.65315281458334,64.0,87.0
227,191.65315281458334,192.10769781458333,66.0,86.0
228,192.10769781458333,194.07360493958333,62.0,86.0
229,194.15315031458334,194.46375606458335,74.0,92.0
230,194.60769531458334,194.86716475208334,74.0,92.0
231,195.06224031458333,195.36337637708334,66.0,88.0
232,195.51678531458333,197.01110200208336,69.0,87.0
233,197.33496531458334,197.47322275208336,66.0,94.0
234,197.56223781458334,197.68155587708335,64.0,87.0
235,197.78951031458337,198.09822212708335,62.0,89.0
236,198.24405531458336,198.61147918958335,62.0,91.0
237,198.69860031458336,199.04708481458334,71.0,89.0
238,199.15314531458336,200.64746200208333,69.0,94.0
239,201.42587031458334,201.76488512708335,71.0,86.0
240,201.88041531458333,202.20617256458337,71.0,87.0
241,202.33496031458336,202.71942962708334,71.0,86.0
242,202.78950531458335,204.23079175208335,62.0,87.0
243,204.60768531458336,204.77056393958335,59.0,89.0
244,204.83495781458333,204.99594250208335,62.0,86.0
245,205.06223031458336,205.39745725208334,69.0,88.0
246,205.51677531458336,205.86525981458334,66.0,85.0
247,205.97132031458335,206.24404731458336,66.0,86.0
248,206.42586531458335,208.48646931458336,64.0,91.0
249,208.69859031458333,209.00919606458336,74.0,92.0
250,209.15313531458335,209.41260475208335,74.0,92.0
251,209.60768031458335,209.90881637708335,66.0,88.0
252,210.06222531458334,211.55654200208335,69.0,87.0
253,211.88040531458336,212.01866275208334,66.0,94.0
254,212.10767781458335,212.22699587708337,64.0,87.0
255,212.33495031458335,212.64366212708336,62.0,89.0
256,212.78949531458335,213.15691918958333,62.0,91.0
257,213.24404031458334,213.59252481458333,71.0,89.0
258,213.69858531458334,215.19290200208334,69.0,94.0
259,215.97131031458335,216.32358268958336,66.0,91.0
260,216.42585531458334,216.53570368958333,62.0,88.0
261,216.65312781458334,217.18532425208335,62.0,88.0
262,217.33494531458336,217.45994518958335,59.0,86.0
263,217.56221781458333,217.75539943958336,59.0,86.0
264,217.78949031458336,218.13418693958334,66.0,86.0
265,218.24403531458336,218.35956550208334,64.0,85.0
266,218.47130781458335,219.23077675208333,64.0,89.0
267,219.60767031458334,219.71751868958336,57.0,87.0
268,219.83494281458334,219.98077600208336,57.0,86.0
269,220.06221531458334,220.28948781458337,69.0,89.0
270,220.28948781458337,220.51676031458334,69.0,89.0
271,220.51676031458334,220.74403281458336,64.0,87.0
272,220.74403281458336,221.42585031458333,66.0,86.0
273,221.42585031458333,224.83493781458336,62.0,86.0
