,start,end,pitch,velocity
0,20.76349275,21.57430275,72.0,83.0
1,21.57430275,21.978863156250004,79.0,83.0
2,21.979707750000003,22.790517750000003,79.0,83.0
3,22.790517750000003,23.19592275,75.0,83.0
4,23.19592275,24.00673275,77.0,83.0
5,24.00673275,24.412137750000003,82.0,82.0
6,24.412137750000003,25.222947750000003,79.0,82.0
7,25.222947750000003,25.425650250000004,72.0,81.0
8,25.425650250000004,25.62835275,74.0,81.0
9,25.62835275,26.033757750000003,75.0,81.0
10,26.033757750000003,26.43916275,72.0,81.0
11,26.43916275,26.844567750000003,75.0,81.0
12,26.844567750000003,27.655377750000003,77.0,81.0
13,27.655377750000003,28.06078275,70.0,81.0
14,28.06078275,28.87159275,77.0,81.0
15,28.87159275,29.276153156250004,79.0,81.0
16,29.276997750000003,30.49321275,79.0,81.0
17,30.49321275,31.30402275,72.0,81.0
18,31.30402275,31.708583156250004,79.0,80.0
19,31.709427750000003,32.52023775,79.0,80.0
20,32.52023775,32.92564275,84.0,80.0
21,32.92564275,33.736452750000005,82.0,80.0
22,33.736452750000005,34.14185775,84.0,80.0
23,34.14185775,34.95266775,77.0,80.0
24,34.95266775,35.155370250000004,72.0,80.0
25,35.155370250000004,35.358072750000005,74.0,80.0
26,35.358072750000005,35.76347775,75.0,80.0
27,35.76347775,36.16888275,74.0,80.0
28,36.16888275,36.57428775,75.0,80.0
29,36.57428775,37.38509775,77.0,80.0
30,37.38509775,37.79050275,70.0,80.0
31,37.79050275,40.22208815625,72.0,80.0
32,40.222932750000005,41.03374275,72.0,80.0
33,41.03374275,41.43830315625,79.0,80.0
34,41.439147750000004,42.24995775000001,79.0,80.0
35,42.24995775000001,42.65536275,75.0,80.0
36,42.65536275,43.466172750000005,77.0,80.0
37,43.466172750000005,43.87157775000001,82.0,80.0
38,43.87157775000001,44.682387750000004,79.0,80.0
39,44.682387750000004,44.885090250000005,72.0,80.0
40,44.885090250000005,45.087792750000006,74.0,80.0
41,45.087792750000006,45.58188009375,75.0,80.0
42,45.49319775000001,45.89860275,72.0,80.0
43,45.89860275,46.304007750000004,75.0,80.0
44,46.304007750000004,47.11481775000001,77.0,80.0
45,47.11481775000001,47.52022275,70.0,80.0
46,47.52022275,48.331032750000006,77.0,80.0
47,48.331032750000006,48.735593156250005,79.0,80.0
48,48.73643775000001,49.952652750000006,79.0,80.0
49,49.952652750000006,50.76346275,72.0,80.0
50,50.76346275,51.16802315625,79.0,80.0
51,51.168867750000004,51.97967775000001,79.0,80.0
52,51.97967775000001,52.38508275,84.0,80.0
53,52.38508275,53.195892750000006,82.0,80.0
54,53.195892750000006,53.60129775000001,84.0,80.0
55,53.60129775000001,54.412107750000004,77.0,80.0
56,54.412107750000004,54.614810250000005,72.0,80.0
57,54.614810250000005,54.817512750000006,74.0,80.0
58,54.817512750000006,55.253323125,75.0,80.0
59,55.22291775000001,55.62832275,74.0,80.0
60,55.62832275,56.033727750000004,75.0,80.0
61,56.033727750000004,56.439132750000006,79.0,80.0
62,56.439132750000006,56.84453775000001,77.0,80.0
63,56.84453775000001,57.24994275,70.0,80.0
64,57.24994275,59.682372750000006,72.0,80.0
65,59.682372750000006,60.13085203125001,75.0,80.0
66,60.08777775000001,60.538790812500004,72.0,80.0
67,60.49318275,60.898587750000004,75.0,80.0
68,60.898587750000004,61.303992750000006,77.0,80.0
69,61.303992750000006,61.70939775000001,70.0,79.0
70,61.70939775000001,62.11480275,77.0,79.0
71,62.11480275,62.520207750000004,82.0,79.0
72,62.520207750000004,62.925612750000006,79.0,79.0
73,62.925612750000006,63.33101775000001,77.0,79.0
74,63.33101775000001,64.54723275,79.0,79.0
75,64.54723275,64.95263775000001,75.0,79.0
76,64.95263775000001,65.35804275000001,72.0,79.0
77,65.35804275000001,65.76344775000001,75.0,79.0
78,65.76344775000001,66.16885275,77.0,79.0
79,66.16885275,66.57425775,70.0,79.0
80,66.57425775,66.97966275,82.0,79.0
81,66.97966275,69.41209275,79.0,79.0
82,69.41209275,69.81749775,75.0,79.0
83,69.81749775,70.28624728125001,72.0,79.0
84,70.22290275,70.62999693750001,75.0,79.0
85,70.62830775,71.06665190625,77.0,79.0
86,71.03371275,71.48050284375,70.0,79.0
87,71.43911775000001,71.84452275000001,75.0,79.0
88,71.84452275000001,72.24992775000001,82.0,79.0
89,72.24992775000001,72.65533275,79.0,79.0
90,72.65533275,73.06073775,77.0,80.0
91,73.06073775,73.46614275,84.0,80.0
92,73.46614275,73.87154775,82.0,80.0
93,73.87154775,74.27695275,77.0,80.0
94,74.27695275,75.08776275000001,79.0,81.0
95,75.08776275000001,75.29046525000001,75.0,81.0
96,75.29046525000001,75.49316775000001,77.0,81.0
97,75.49316775000001,76.10127525,79.0,81.0
98,76.10127525,76.30397775,75.0,81.0
99,76.30397775,76.50668025,77.0,81.0
100,76.50668025,76.70938275,82.0,81.0
101,76.70938275,78.33100275000001,79.0,81.0
102,78.33100275000001,78.73640775000001,75.0,82.0
103,78.73640775000001,79.14181275000001,77.0,82.0
104,79.14181275000001,79.56748800000001,79.0,82.0
105,79.54721775,79.98387271875,77.0,82.0
106,79.95262275,80.35802775,82.0,82.0
107,80.35802775,81.16883775000001,79.0,82.0
108,81.16883775000001,81.57424275000001,77.0,82.0
109,81.57424275000001,81.97964775000001,79.0,82.0
110,81.97964775000001,82.38505275000001,77.0,82.0
111,82.38505275000001,82.79045775,84.0,82.0
112,82.79045775,83.60126775,79.0,82.0
113,83.60126775,84.00667275,77.0,82.0
114,84.00667275,84.41207775000001,79.0,82.0
115,84.41207775000001,84.81748275000001,77.0,82.0
116,84.81748275000001,85.22288775000001,87.0,82.0
117,85.22288775000001,85.83099525,86.0,83.0
118,85.83099525,86.23640025,82.0,83.0
119,86.23640025,86.43910275,77.0,83.0
120,86.43910275,88.06072275000001,79.0,83.0
121,88.06072275000001,88.46612775000001,75.0,83.0
122,88.46612775000001,88.87153275000001,77.0,83.0
123,88.87153275000001,89.27693775,79.0,83.0
124,89.27693775,89.69585625,77.0,83.0
125,89.69585625,90.08774775,82.0,83.0
126,90.08774775,90.901936125,79.0,83.0
127,90.89855775000001,91.30396275000001,77.0,83.0
128,91.30396275000001,91.70936775000001,79.0,83.0
129,91.70936775000001,92.11477275000001,77.0,83.0
130,92.11477275000001,92.52017775,84.0,83.0
131,92.52017775,93.73554815625,79.0,83.0
132,93.73639275000001,94.14179775000001,79.0,83.0
133,94.14179775000001,94.54720275000001,77.0,83.0
134,94.54720275000001,94.95260775000001,87.0,83.0
135,94.95260775000001,95.56071525000002,86.0,83.0
136,95.56071525000002,95.76341775,87.0,83.0
137,95.76341775,95.96612025,86.0,83.0
138,95.96612025,96.16882275,82.0,83.0
139,96.16882275,98.51341500000001,84.0,83.0
140,118.06069275000002,118.87150275,72.0,84.0
141,118.87150275,119.27606315625,79.0,84.0
142,119.27690775,120.08771775000001,79.0,84.0
143,120.08771775000001,120.49312275000001,75.0,84.0
144,120.49312275000001,121.30393275000002,77.0,84.0
145,121.30393275000002,121.70933775000002,82.0,85.0
146,121.70933775000002,122.52014775,79.0,85.0
147,122.52014775,122.72285025000001,72.0,85.0
148,122.72285025000001,122.92555275000001,74.0,86.0
149,122.92555275000001,123.33095775000001,75.0,86.0
150,123.33095775000001,123.73636275000001,72.0,86.0
151,123.73636275000001,124.14176775000001,75.0,87.0
152,124.14176775000001,124.95257775000002,77.0,87.0
153,124.95257775000002,125.35798275,70.0,87.0
154,125.35798275,126.16879275000001,77.0,87.0
155,126.16879275000001,126.57335315625001,79.0,87.0
156,126.57419775000001,127.79041275000002,79.0,87.0
157,127.79041275000002,128.60122275,72.0,87.0
158,128.60122275,129.00578315625,79.0,87.0
159,129.00662775,129.81743775,79.0,87.0
160,129.81743775,130.22284275,84.0,87.0
161,130.22284275,131.03365275000002,82.0,87.0
162,131.03365275000002,131.43905775000002,84.0,87.0
163,131.43905775000002,132.24986775000002,77.0,87.0
164,132.24986775000002,132.45257025,72.0,87.0
165,132.45257025,132.65527275000002,74.0,87.0
166,132.65527275000002,133.06067775000002,75.0,87.0
167,133.06067775000002,133.46608275,74.0,87.0
168,133.46608275,133.87148775,75.0,87.0
169,133.87148775,134.68229775,77.0,87.0
170,134.68229775,135.08770275,70.0,87.0
171,135.08770275,137.51928815625,72.0,87.0
172,137.52013275000002,138.33094275000002,72.0,86.0
173,138.33094275000002,138.73550315625002,79.0,86.0
174,138.73634775000002,139.54715775000003,79.0,86.0
175,139.54715775000003,139.95256275,75.0,86.0
176,139.95256275,140.76337275,77.0,86.0
177,140.76337275,141.16877775,82.0,86.0
178,141.16877775,141.97958775,79.0,86.0
179,141.97958775,142.18229025000002,72.0,86.0
180,142.18229025000002,142.38499275,74.0,86.0
181,142.38499275,142.87908009375002,75.0,86.0
182,142.79039775,143.19580275,72.0,86.0
183,143.19580275,143.60120775000001,75.0,86.0
184,143.60120775000001,144.41201775000002,77.0,86.0
185,144.41201775000002,144.81742275000002,70.0,86.0
186,144.81742275000002,145.62823275000002,77.0,86.0
187,145.62823275000002,146.03279315625002,79.0,86.0
188,146.03363775000003,147.24985275,79.0,86.0
189,147.24985275,148.06066275,72.0,86.0
190,148.06066275,148.46522315625,79.0,86.0
191,148.46606775,149.27687775,79.0,86.0
192,149.27687775,149.68228275,84.0,86.0
193,149.68228275,150.49309275000002,82.0,86.0
194,150.49309275000002,150.89849775000002,84.0,86.0
195,150.89849775000002,151.70930775000002,77.0,86.0
196,151.70930775000002,151.91201025,72.0,86.0
197,151.91201025,152.11471275000002,74.0,86.0
198,152.11471275000002,152.550523125,75.0,86.0
199,152.52011775000003,152.92552275000003,74.0,86.0
200,152.92552275000003,153.33092775,75.0,86.0
201,153.33092775,153.73633275,79.0,86.0
202,153.73633275,154.14173775,77.0,86.0
203,154.14173775,154.54714275,70.0,86.0
204,154.54714275,156.97957275000002,72.0,86.0
205,156.97957275000002,157.42805203125002,75.0,85.0
206,157.38497775000002,157.8359908125,72.0,85.0
207,157.79038275000002,158.19578775000002,75.0,85.0
208,158.19578775000002,158.60119275000002,77.0,85.0
209,158.60119275000002,159.00659775000003,70.0,85.0
210,159.00659775000003,159.41200275000003,77.0,85.0
211,159.41200275000003,159.81740775,82.0,85.0
212,159.81740775,160.22281275,79.0,85.0
213,160.22281275,160.62821775,77.0,85.0
214,160.62821775,161.84443275,79.0,85.0
215,161.84443275,162.24983775,75.0,85.0
216,162.24983775,162.65524275,72.0,85.0
217,162.65524275,163.06064775000002,75.0,85.0
218,163.06064775000002,163.46605275000002,77.0,85.0
219,163.46605275000002,163.87145775000002,70.0,85.0
220,163.87145775000002,164.27686275000002,82.0,85.0
221,164.27686275000002,166.70929275,79.0,85.0
222,166.70929275,167.11469775,75.0,85.0
223,167.11469775,167.58344728125002,72.0,85.0
224,167.52010275,167.9271969375,75.0,85.0
225,167.92550775,168.36385190625,77.0,85.0
226,168.33091275,168.77770284375,70.0,85.0
227,168.73631775,169.14172275,75.0,85.0
228,169.14172275,169.54712775000002,82.0,85.0
229,169.54712775000002,169.95253275000002,79.0,85.0
230,169.95253275000002,170.35793775000002,77.0,85.0
231,170.35793775000002,170.76334275000002,84.0,85.0
232,170.76334275000002,171.16874775000002,82.0,85.0
233,171.16874775000002,171.57415275000002,77.0,85.0
234,171.57415275000002,172.38496275000003,79.0,85.0
235,172.38496275000003,172.58766525000001,75.0,85.0
236,172.58766525000001,172.79036775,77.0,85.0
237,172.79036775,173.39847525000002,79.0,85.0
238,173.39847525000002,173.60117775,75.0,85.0
239,173.60117775,173.80388025000002,77.0,85.0
240,173.80388025000002,174.00658275,82.0,85.0
241,174.00658275,175.62820275,79.0,85.0
242,175.62820275,176.03360775000002,75.0,85.0
243,176.03360775000002,176.43901275000002,77.0,85.0
244,176.43901275000002,176.86468800000003,79.0,85.0
245,176.84441775000002,177.28107271875,77.0,85.0
246,177.24982275000002,177.65522775000002,82.0,86.0
247,177.65522775000002,178.46603775000003,79.0,86.0
248,178.46603775000003,178.87144275000003,77.0,86.0
249,178.87144275000003,179.27684775000003,79.0,86.0
250,179.27684775000003,179.68225275,77.0,86.0
251,179.68225275,180.08765775,84.0,86.0
252,180.08765775,180.89846775,79.0,86.0
253,180.89846775,181.30387275,77.0,86.0
254,181.30387275,181.70927775,79.0,87.0
255,181.70927775,182.11468275000001,77.0,87.0
256,182.11468275000001,182.52008775000002,87.0,87.0
257,182.52008775000002,183.12819525,86.0,87.0
258,183.12819525,183.53360025,82.0,87.0
259,183.53360025,183.73630275000002,77.0,87.0
260,183.73630275000002,185.35792275000003,79.0,87.0
261,185.35792275000003,185.76332775000003,75.0,87.0
262,185.76332775000003,186.16873275,77.0,87.0
263,186.16873275,186.57413775,79.0,87.0
264,186.57413775,186.99305625000002,77.0,87.0
265,186.99305625000002,187.38494775,82.0,87.0
266,187.38494775,188.19913612500002,79.0,87.0
267,188.19575775,188.60116275000001,77.0,87.0
268,188.60116275000001,189.00656775000002,79.0,87.0
269,189.00656775000002,189.41197275000002,77.0,87.0
270,189.41197275000002,189.81737775000002,84.0,87.0
271,189.81737775000002,191.03274815625002,79.0,87.0
272,191.03359275000003,191.43899775000003,79.0,88.0
273,191.43899775000003,191.84440275000003,77.0,88.0
274,191.84440275000003,192.24980775000003,87.0,88.0
275,192.24980775000003,192.85791525000002,86.0,88.0
276,192.85791525000002,193.06061775,87.0,89.0
277,193.06061775,193.26332025000002,86.0,89.0
278,193.26332025000002,193.46602275,82.0,89.0
279,193.46602275,195.10115625000003,84.0,89.0
280,214.54708275000002,214.95248775000002,75.0,89.0
281,214.95248775000002,215.35789275000002,77.0,89.0
282,215.35789275000002,215.78356800000003,79.0,89.0
283,215.76329775000002,216.19995271875,77.0,89.0
284,216.16870275000002,216.57410775000002,82.0,89.0
285,216.57410775000002,217.38491775000003,79.0,89.0
286,217.38491775000003,217.79032275000003,77.0,89.0
287,217.79032275000003,218.19572775000003,79.0,89.0
288,218.19572775000003,218.60113275000003,77.0,89.0
289,218.60113275000003,219.00653775,84.0,89.0
290,219.00653775,219.81734775,79.0,89.0
291,219.81734775,220.22275275,77.0,89.0
292,220.22275275,220.62815775,79.0,89.0
293,220.62815775,221.03356275000002,77.0,89.0
294,221.03356275000002,221.43896775000002,87.0,89.0
295,221.43896775000002,222.04707525,86.0,89.0
296,222.04707525,222.45248025,82.0,89.0
297,222.45248025,222.65518275000002,77.0,89.0
298,222.65518275000002,224.27680275000003,79.0,89.0
299,224.27680275000003,224.68220775000003,75.0,89.0
300,224.68220775000003,225.08761275000003,77.0,89.0
301,225.08761275000003,225.49301775,79.0,89.0
302,225.49301775,225.91193625000002,77.0,89.0
303,225.91193625000002,226.30382775,82.0,89.0
304,226.30382775,227.11801612500003,79.0,89.0
305,227.11463775,227.52004275000002,77.0,89.0
306,227.52004275000002,227.92544775000002,79.0,89.0
307,227.92544775000002,228.33085275000002,77.0,89.0
308,228.33085275000002,228.73625775000002,84.0,89.0
309,228.73625775000002,229.95162815625002,79.0,89.0
310,229.95247275000003,230.35787775000003,79.0,89.0
311,230.35787775000003,230.76328275000003,77.0,89.0
312,230.76328275000003,231.16868775000003,87.0,89.0
313,231.16868775000003,231.77679525000002,86.0,89.0
314,231.77679525000002,231.97949775,87.0,89.0
315,231.97949775,232.18220025000002,86.0,89.0
316,232.18220025000002,232.38490275,82.0,89.0
317,232.38490275,234.72949500000001,84.0,89.0
