,start,end,pitch,velocity
0,0.8986477500000001,1.1697623437500002,75.0,82.0
1,1.10135025,1.22719471875,77.0,82.0
2,1.30405275,1.6621605000000002,79.0,85.0
3,1.70945775,1.9805723437500002,65.0,85.0
4,1.7162145000000002,2.0472952500000003,77.0,85.0
5,1.9121602500000001,2.3226328125,70.0,85.0
6,1.30405275,2.3690854687500003,56.0,85.0
7,2.1148627500000003,2.4814164375,82.0,85.0
8,2.5202677500000004,2.9594565000000004,77.0,85.0
9,2.9256727500000004,3.172294125,65.0,85.0
10,3.3310777500000004,3.64273284375,75.0,85.0
11,2.5202677500000004,3.6655368750000004,58.0,85.0
12,3.1283752500000004,3.7111449375000003,70.0,85.0
13,3.7364827500000004,4.101347250000001,74.0,85.0
14,4.14188775,4.405401,65.0,85.0
15,4.34459025,4.50421846875,75.0,85.0
16,4.54729275,4.7010088125000005,74.0,85.0
17,4.34459025,4.841211375,70.0,85.0
18,3.7364827500000004,5.3581027500000005,60.0,85.0
19,4.9526977500000005,5.3581027500000005,70.0,88.0
20,5.3581027500000005,5.568406593750001,63.0,88.0
21,4.9526977500000005,5.62583896875,72.0,88.0
22,5.5608052500000005,5.753372625000001,70.0,88.0
23,5.7635077500000005,5.961987281250001,75.0,88.0
24,5.9662102500000005,6.104723625000001,77.0,88.0
25,6.1689127500000005,6.4332705937500005,79.0,88.0
26,6.5743177500000005,6.81840534375,63.0,88.0
27,6.5743177500000005,6.9983038125000006,77.0,88.0
28,6.1689127500000005,7.260127875,56.0,88.0
29,6.9797227500000005,7.357256156250001,82.0,88.0
30,6.7770202500000005,7.450161468750001,70.0,88.0
31,7.3851277500000005,7.77701925,79.0,89.0
32,7.790532750000001,7.990701468750001,63.0,89.0
33,7.993235250000001,8.20016071875,87.0,89.0
34,7.3851277500000005,8.486478,58.0,89.0
35,8.398640250000001,8.549822531250001,86.0,89.0
36,7.993235250000001,8.591207625000001,70.0,89.0
37,8.60134275,9.14188275,79.0,89.0
38,9.00674775,9.243234000000001,63.0,89.0
39,9.209450250000002,9.429044625000001,70.0,89.0
40,9.209450250000002,9.429044625000001,70.0,89.0
41,9.41215275,9.626679562500001,74.0,89.0
42,9.614855250000002,9.744078093750002,75.0,89.0
43,9.81755775,10.168908750000002,70.0,89.0
44,9.81755775,10.224651937500001,77.0,89.0
45,8.60134275,10.314178875000001,60.0,89.0
46,10.22296275,10.461138187500001,79.0,89.0
47,10.22296275,10.64188125,67.0,89.0
48,10.62836775,10.842894562500001,82.0,89.0
49,10.62836775,11.04982003125,63.0,89.0
50,11.03377275,11.30404275,79.0,89.0
51,11.43917775,11.67650859375,63.0,89.0
52,11.43917775,11.7077585625,77.0,89.0
53,11.84458275,12.048974437500002,82.0,88.0
54,11.03377275,12.20691346875,56.0,89.0
55,11.641880250000002,12.293906625000002,70.0,88.0
56,12.24998775,12.513501000000002,79.0,88.0
57,12.65539275,12.89441278125,63.0,88.0
58,12.858095250000002,13.007588343750001,77.0,88.0
59,12.24998775,13.341202875,58.0,88.0
60,13.263500250000002,13.380898781250002,75.0,88.0
61,12.858095250000002,13.473804093750001,70.0,88.0
62,13.46620275,13.8699185625,74.0,88.0
63,13.87160775,14.093735906250002,63.0,87.0
64,14.074310250000002,14.190019593750002,75.0,87.0
65,14.27701275,14.436640968750002,74.0,87.0
66,14.074310250000002,14.52616790625,70.0,87.0
67,14.68241775,15.17819428125,70.0,87.0
68,14.68241775,15.285457687500001,72.0,87.0
69,15.08782275,15.434106187500001,67.0,86.0
70,13.46620275,15.4442413125,60.0,88.0
71,15.49322775,15.679882968750002,72.0,86.0
72,15.695930250000002,15.815017968750002,74.0,86.0
73,15.49322775,15.841200375000001,63.0,86.0
74,15.89863275,16.127517656250003,75.0,86.0
75,16.304037750000003,16.52447671875,77.0,86.0
76,16.304037750000003,16.5455915625,63.0,86.0
77,16.70944275,16.946773593750002,79.0,86.0
78,15.89863275,17.05488159375,53.0,86.0
79,16.50674025,17.146097718750003,68.0,86.0
80,17.114847750000003,17.38765153125,77.0,86.0
81,17.52025275,17.7719416875,65.0,86.0
82,17.722955250000002,17.91636721875,74.0,85.0
83,17.722955250000002,18.0253198125,70.0,85.0
84,17.114847750000003,18.121603500000003,55.0,86.0
85,18.12836025,18.2567385,70.0,85.0
86,18.33106275,19.14187275,72.0,85.0
87,18.93917025,19.230555093750002,62.0,85.0
88,19.14187275,19.35386578125,63.0,85.0
89,19.344575250000002,19.476331875000003,65.0,85.0
90,18.736467750000003,19.56501421875,60.0,85.0
91,18.533765250000002,19.83190584375,55.0,85.0
92,18.33106275,20.61484425,48.0,85.0
93,19.547277750000003,21.00673575,72.0,85.0
94,21.37160025,21.717039093750003,63.0,85.0
95,21.57430275,21.91214025,65.0,85.0
96,21.168897750000003,22.07514684375,60.0,85.0
97,22.38511275,22.70183540625,60.0,85.0
98,21.979707750000003,22.841193375000003,67.0,85.0
99,20.966195250000002,22.90960546875,55.0,85.0
100,20.76349275,22.95267975,48.0,85.0
101,22.790517750000003,23.054031000000002,63.0,85.0
102,22.993220250000004,23.268557812500003,67.0,85.0
103,23.804030250000004,24.07683403125,62.0,85.0
104,23.601327750000003,24.130043437500003,58.0,85.0
105,23.19592275,24.255887906250003,46.0,85.0
106,24.00673275,24.353016187500003,65.0,85.0
107,24.209435250000002,24.412137750000003,62.0,85.0
108,23.398625250000002,24.431563406250003,53.0,85.0
109,24.81754275,25.258420687500003,60.0,85.0
110,25.020245250000002,25.32345440625,63.0,85.0
111,24.614840250000004,25.328521968750003,55.0,85.0
112,24.412137750000003,25.44000834375,48.0,85.0
113,25.222947750000003,25.455211031250002,67.0,85.0
114,25.425650250000004,25.677339187500003,63.0,85.0
115,26.033757750000003,26.46703434375,56.0,85.0
116,26.236460250000004,26.49743971875,60.0,85.0
117,25.62835275,26.609770687500003,44.0,85.0
118,26.43916275,26.8158515625,63.0,85.0
119,25.831055250000002,26.820074531250004,51.0,85.0
120,26.641865250000002,26.867371781250004,60.0,85.0
121,26.844567750000003,27.6773371875,46.0,85.0
122,27.047270250000004,27.736458750000004,53.0,85.0
123,27.452675250000002,27.7432155,62.0,85.0
124,27.24997275,27.956897718750003,58.0,85.0
125,27.655377750000003,28.012640906250002,65.0,85.0
126,28.06078275,29.016862875,51.0,85.0
127,28.87159275,29.3378085,70.0,85.0
128,28.466187750000003,29.358923343750003,63.0,85.0
129,28.668890250000004,29.4982813125,67.0,85.0
130,28.263485250000002,29.530375875000004,58.0,85.0
131,29.276997750000003,29.814159375000003,75.0,85.0
132,29.276997750000003,30.200983312500004,43.0,85.0
133,29.479700250000004,30.363145312500002,50.0,85.0
134,29.68240275,30.379192593750002,55.0,85.0
135,30.087807750000003,30.476320875000003,59.0,85.0
136,30.290510250000004,30.50926003125,62.0,85.0
137,30.898617750000003,31.356387562500004,60.0,85.0
138,30.49321275,31.709427750000003,48.0,85.0
139,31.30402275,31.746589875,67.0,85.0
140,31.525306312500003,31.934089687500002,60.0,84.0
141,31.101320250000004,32.349629812500005,63.0,85.0
142,31.472941500000005,32.424798656250005,72.0,84.0
143,32.1131435625,32.487298593750005,60.0,84.0
144,30.695915250000002,32.54473096875,55.0,85.0
145,32.317535250000006,32.58780525,67.0,84.0
146,32.52023775,32.9104400625,63.0,84.0
147,32.8242915,32.91212925,67.0,84.0
148,31.709427750000003,32.92564275,48.0,84.0
149,33.33104775,33.7161825,65.0,84.0
150,33.12834525,33.78459459375,60.0,84.0
151,33.533750250000004,33.841182375,67.0,84.0
152,32.92564275,33.8800336875,53.0,84.0
153,33.736452750000005,34.023614625,68.0,84.0
154,34.74996525,35.08189059375,67.0,84.0
155,34.95266775,35.19337696875,68.0,84.0
156,34.54726275,35.25756609375,65.0,84.0
157,34.34456025,35.34371465625,60.0,84.0
158,34.14185775,35.35216059375,53.0,84.0
159,35.155370250000004,35.39776865625,70.0,84.0
160,35.96618025,36.243207000000005,58.0,84.0
161,35.76347775,36.2854366875,56.0,84.0
162,35.358072750000005,36.336112312500006,44.0,84.0
163,36.16888275,36.405369,60.0,84.0
164,35.560775250000006,36.514321593750005,51.0,84.0
165,36.57428775,36.88594284375,63.0,84.0
166,36.57428775,36.917192812500005,60.0,84.0
167,36.57428775,37.53459084375,46.0,84.0
168,37.38509775,37.722935250000006,53.0,84.0
169,36.979692750000005,37.7415163125,65.0,84.0
170,36.979692750000005,37.766854125,62.0,84.0
171,37.79050275,38.52023175,48.0,84.0
172,38.398610250000004,38.7077315625,63.0,84.0
173,37.99320525,38.76347475,55.0,84.0
174,38.601312750000005,38.945907000000005,67.0,84.0
175,38.19590775,38.993204250000005,60.0,84.0
176,39.00671775,39.979689750000006,48.0,84.0
177,39.81752775,39.983068125,79.0,72.0
178,39.81752775,40.0151626875,84.0,44.0
179,39.00671775,40.1705679375,72.0,75.0
180,39.00671775,40.19337196875,67.0,76.0
181,39.00671775,40.31668265625,55.0,84.0
182,40.62833775000001,41.270229,60.0,84.0
183,40.83104025,41.300634375,63.0,84.0
184,41.03374275,41.38087078125,67.0,84.0
185,41.439147750000004,41.61060028125,60.0,84.0
186,41.844552750000005,42.1165119375,60.0,84.0
187,41.439147750000004,42.12073490625001,63.0,84.0
188,42.047255250000006,42.30147796875001,67.0,84.0
189,40.425635250000006,42.36820087500001,55.0,84.0
190,40.222932750000005,42.405363,48.0,84.0
191,42.24995775000001,42.70519378125,63.0,84.0
192,42.65536275,43.17478790625,62.0,84.0
193,42.65536275,43.297254,65.0,84.0
194,43.263470250000005,43.57005778125001,62.0,84.0
195,43.060767750000004,43.616510437500004,58.0,84.0
196,43.466172750000005,43.907895281250006,65.0,84.0
197,43.668875250000006,43.962793875,62.0,84.0
198,43.87157775000001,44.52613790625001,58.0,84.0
199,44.27698275,44.55400950000001,62.0,84.0
200,42.85806525,44.88424565625,53.0,84.0
201,44.47968525,44.930698312500006,50.0,84.0
202,44.682387750000004,44.93154290625,65.0,84.0
203,42.65536275,44.99404284375,46.0,84.0
204,44.885090250000005,45.115664343750005,62.0,84.0
205,45.087792750000006,45.49319775000001,60.0,84.0
206,45.70941375,46.0556971875,60.0,83.0
207,45.087792750000006,46.1097511875,44.0,84.0
208,45.49319775000001,46.12410928125001,56.0,83.0
209,45.290495250000006,46.276136156250004,51.0,83.0
210,46.10130525,46.320899625,60.0,83.0
211,45.89860275,46.332723937500006,63.0,83.0
212,46.91211525000001,47.0962366875,62.0,83.0
213,46.709412750000006,47.26768921875001,58.0,83.0
214,46.304007750000004,47.35045940625,46.0,83.0
215,47.11481775000001,47.489817375,65.0,83.0
216,46.506710250000005,47.505864656250004,53.0,83.0
217,47.31752025,47.5523173125,62.0,83.0
218,47.925627750000004,48.250796343750004,63.0,83.0
219,47.72292525,48.350458406250006,58.0,83.0
220,48.128330250000005,48.36903946875,67.0,83.0
221,47.52022275,48.46532315625,51.0,83.0
222,48.331032750000006,48.556539281250004,70.0,83.0
223,48.53373525000001,48.70941075,67.0,83.0
224,49.14184275,49.70772056250001,55.0,83.0
225,49.34454525,49.78795696875,59.0,83.0
226,48.93914025,49.81751775000001,50.0,83.0
227,49.547247750000004,49.9323825,62.0,83.0
228,49.749950250000005,49.952652750000006,47.0,83.0
229,48.73643775000001,49.9864365,43.0,83.0
230,49.952652750000006,50.43153740625,63.0,83.0
231,50.35805775000001,50.706030375000005,60.0,83.0
232,50.56076025,50.953496343750004,63.0,83.0
233,50.76346275,51.043867875000004,67.0,83.0
234,50.96616525,51.30653653125,60.0,83.0
235,51.371570250000005,51.74572528125,60.0,83.0
236,51.168867750000004,51.884238656250005,63.0,83.0
237,51.168867750000004,51.91717781250001,67.0,83.0
238,50.15535525000001,51.92646834375,55.0,83.0
239,49.952652750000006,52.017684468750005,48.0,83.0
240,51.97967775000001,52.088630343750005,67.0,83.0
241,51.97967775000001,52.118191125,63.0,83.0
242,52.790487750000004,53.119879312500004,53.0,83.0
243,53.195892750000006,53.47207490625001,57.0,83.0
244,53.39859525000001,53.756703,53.0,83.0
245,53.60129775000001,54.09707428125,60.0,83.0
246,53.60129775000001,54.29133084375,57.0,83.0
247,52.38508275,54.450959062500004,41.0,83.0
248,52.993190250000005,54.47798606250001,45.0,83.0
249,52.58778525,54.554844093750006,48.0,83.0
250,54.00670275,54.625789968750006,53.0,83.0
251,54.412107750000004,54.64183725,60.0,83.0
252,54.412107750000004,54.68237775000001,57.0,83.0
253,55.22291775000001,55.52021475000001,56.0,83.0
254,54.817512750000006,55.534572843750006,60.0,83.0
255,54.817512750000006,55.55230931250001,63.0,83.0
256,55.62832275,55.687444312500006,63.0,83.0
257,54.817512750000006,55.729674,44.0,83.0
258,55.62832275,55.859741437500006,60.0,83.0
259,55.62832275,55.993187250000005,56.0,83.0
260,55.02021525000001,56.021058843750005,51.0,83.0
261,56.033727750000004,56.75416621875001,62.0,83.0
262,56.033727750000004,56.768524312500006,65.0,83.0
263,56.033727750000004,57.02950378125001,46.0,83.0
264,56.84453775000001,57.08862534375,62.0,83.0
265,56.84453775000001,57.1097401875,65.0,83.0
266,56.439132750000006,57.21278062500001,58.0,83.0
267,56.236430250000005,57.27274678125001,53.0,83.0
268,57.655347750000004,58.135077,60.0,83.0
269,57.858050250000005,58.19335396875,63.0,83.0
270,58.26345525000001,58.60804950000001,60.0,83.0
271,58.46615775000001,59.147744906250004,63.0,83.0
272,58.46615775000001,59.17646109375001,72.0,83.0
273,58.060752750000006,59.18744081250001,67.0,83.0
274,58.87156275,59.240650218750005,60.0,84.0
275,57.45264525,59.464467562500005,55.0,83.0
276,57.24994275,59.490649968750006,48.0,83.0
277,59.276967750000004,59.60551471875001,72.0,84.0
278,59.276967750000004,59.61396065625001,63.0,84.0
279,59.276967750000004,59.6232511875,67.0,84.0
280,60.49318275,60.595378593750006,60.0,84.0
281,60.49318275,60.610581281250006,63.0,84.0
282,60.49318275,60.62156100000001,68.0,84.0
283,59.682372750000006,60.72375684375,44.0,84.0
284,60.08777775000001,60.73895953125,56.0,84.0
285,59.88507525000001,60.92561475000001,51.0,84.0
286,60.898587750000004,61.643519437500004,62.0,84.0
287,60.898587750000004,61.64774240625,65.0,84.0
288,60.898587750000004,61.814127375000005,46.0,84.0
289,61.101290250000005,61.822573312500005,53.0,84.0
290,61.486425000000004,61.822573312500005,58.0,84.0
291,61.70939775000001,61.850444906250004,62.0,84.0
292,61.70939775000001,61.85128950000001,65.0,84.0
293,62.11480275,62.87662631250001,67.0,84.0
294,62.11480275,62.88507225000001,70.0,84.0
295,62.520207750000004,62.976288375,58.0,84.0
296,62.11480275,63.05061262500001,51.0,84.0
297,62.925612750000006,63.33270693750001,70.0,84.0
298,62.925612750000006,63.34368665625001,67.0,84.0
299,63.939125250000004,64.0421656875,63.0,85.0
300,63.73642275,64.04638865625,60.0,84.0
301,63.53372025000001,64.18236825000001,55.0,84.0
302,63.33101775000001,64.24064521875,48.0,84.0
303,64.14182775,64.29976678125,67.0,85.0
304,64.14182775,64.30398975,63.0,85.0
305,64.54723275,65.28625228125,63.0,85.0
306,64.54723275,65.2955428125,60.0,85.0
307,65.35804275000001,65.46361696875,60.0,85.0
308,65.35804275000001,65.47966425,63.0,85.0
309,64.95263775000001,65.49571153125001,56.0,85.0
310,64.54723275,65.50500206250001,44.0,85.0
311,64.74993525000001,65.729664,51.0,85.0
312,65.76344775000001,66.53118346875,62.0,85.0
313,65.76344775000001,66.55060912500001,65.0,85.0
314,65.96615025000001,66.65787253125,53.0,85.0
315,65.76344775000001,66.67307521875,46.0,85.0
316,66.16885275,66.9104060625,58.0,85.0
317,66.57425775,66.95094656250001,70.0,85.0
318,66.57425775,66.95179115625001,62.0,85.0
319,66.57425775,66.9543249375,65.0,85.0
320,66.97966275,67.74486468750001,60.0,85.0
321,67.38506775,67.79047275,55.0,85.0
322,67.79047275,68.09199271875,60.0,85.0
323,68.19587775000001,68.33861409375001,55.0,85.0
324,68.19587775000001,68.91209325000001,59.0,85.0
325,66.97966275,69.05482959375,43.0,85.0
326,68.60128275000001,69.07087687500001,55.0,85.0
327,67.38506775,69.14097815625,50.0,85.0
328,67.58777025,69.16631596875001,47.0,85.0
329,69.00668775000001,69.3191874375,59.0,85.0
330,69.41209275,70.0759434375,60.0,85.0
331,69.41209275,70.07678803125,68.0,85.0
332,69.41209275,70.08354478125001,63.0,85.0
333,69.81749775,70.26597703125,56.0,85.0
334,70.22290275,70.30820671875,68.0,85.0
335,70.22290275,70.32340940625001,63.0,85.0
336,69.41209275,70.42391606250001,44.0,85.0
337,70.22290275,70.48726059375001,60.0,85.0
338,70.42560525,70.50584165625001,63.0,85.0
339,70.42560525,70.60803750000001,56.0,85.0
340,69.81749775,70.6401320625,51.0,85.0
341,70.62830775,71.34874621875001,62.0,85.0
342,70.62830775,71.36563809375001,70.0,85.0
343,70.62830775,71.37070565625001,65.0,85.0
344,70.62830775,71.52273253125,46.0,85.0
345,71.03371275,71.54722575000001,53.0,85.0
346,71.43911775000001,71.65279996875,62.0,85.0
347,71.43911775000001,71.6570229375,65.0,85.0
348,71.43911775000001,71.66462428125001,70.0,85.0
349,71.23641525000001,71.78962415625,58.0,85.0
350,71.84452275000001,71.91124565625,70.0,85.0
351,71.84452275000001,72.40111003125001,67.0,85.0
352,72.24992775000001,72.53117746875,63.0,85.0
353,72.45263025000001,72.57763012500001,67.0,85.0
354,72.04722525000001,72.65786653125001,58.0,85.0
355,71.84452275000001,72.77442046875001,51.0,85.0
356,72.65533275,73.0016161875,67.0,85.0
357,73.46614275,73.79300053125,60.0,85.0
358,73.26344025,73.87745990625001,55.0,85.0
359,73.06073775,73.8935071875,48.0,85.0
360,73.87154775,74.1806690625,67.0,85.0
361,73.87154775,74.18658121875,72.0,85.0
362,74.07425025,74.23218928125,46.0,85.0
363,73.87154775,74.23641225,63.0,85.0
364,74.68235775000001,75.097897875,56.0,85.0
365,75.08776275000001,75.19671534375,67.0,85.0
366,75.08776275000001,75.300600375,68.0,85.0
367,74.27695275,75.30989090625,44.0,85.0
368,75.08776275000001,75.334384125,63.0,85.0
369,75.08776275000001,75.34114087500001,60.0,85.0
370,75.29046525000001,75.43742456250001,56.0,85.0
371,74.45938500000001,75.489789375,51.0,85.0
372,75.89857275000001,76.13252521875,58.0,85.0
373,75.49316775000001,76.15532925000001,70.0,85.0
374,75.49316775000001,76.1806670625,65.0,85.0
375,75.49316775000001,76.20009271875001,62.0,85.0
376,75.49316775000001,76.38505875000001,46.0,85.0
377,76.30397775,76.42813303125001,65.0,85.0
378,76.30397775,76.42982221875,70.0,85.0
379,76.30397775,76.44840328125001,62.0,85.0
380,76.10127525,76.52188293750001,50.0,85.0
381,76.30397775,76.68235575000001,58.0,85.0
382,75.69587025000001,76.70938275,53.0,85.0
383,76.70938275,77.24992275000001,67.0,85.0
384,76.70938275,77.40955096875001,72.0,85.0
385,76.70938275,77.41799690625001,63.0,85.0
386,77.31749025,77.43151040625001,67.0,85.0
387,77.31749025,77.63759128125001,60.0,85.0
388,76.70938275,77.72289525000001,48.0,85.0
389,77.52019275,77.76681412500001,72.0,85.0
390,77.52019275,77.78370600000001,67.0,85.0
391,77.52019275,77.79721950000001,63.0,85.0
392,77.11478775,77.80144246875001,55.0,85.0
393,77.72289525000001,77.82846946875,60.0,85.0
394,77.92559775000001,78.35634056250001,48.0,85.0
395,77.92559775000001,78.45009046875,72.0,85.0
396,77.92559775000001,78.4543134375,67.0,85.0
397,77.92559775000001,78.47204990625,63.0,85.0
398,79.54721775,79.77779184375001,56.0,85.0
399,79.14181275000001,79.87829850000001,60.0,85.0
400,79.14181275000001,79.89012281250001,68.0,85.0
401,79.14181275000001,79.90617009375,63.0,85.0
402,79.14181275000001,79.9745821875,44.0,85.0
403,79.95262275,80.04299428125,68.0,85.0
404,79.95262275,80.04637265625001,60.0,85.0
405,79.95262275,80.04975103125001,63.0,85.0
406,80.15532525,80.216136,62.0,85.0
407,79.74992025,80.32339940625,48.0,85.0
408,79.95262275,80.34366965625,56.0,85.0
409,79.34451525,80.39603446875,51.0,85.0
410,80.76343275,80.989783875,58.0,85.0
411,80.35802775,81.07846621875001,70.0,85.0
412,80.35802775,81.081,62.0,85.0
413,80.35802775,81.111405375,65.0,85.0
414,81.16883775000001,81.24991875,65.0,85.0
415,81.16883775000001,81.24991875,70.0,85.0
416,81.16883775000001,81.26765521875001,62.0,85.0
417,80.56073025,81.29045925000001,53.0,85.0
418,81.16883775000001,81.30143896875,58.0,85.0
419,80.96613525000001,81.33015515625,50.0,85.0
420,80.35802775,81.3360673125,46.0,85.0
421,81.97964775000001,82.18235025000001,55.0,85.0
422,81.57424275000001,82.24400559375,58.0,85.0
423,81.57424275000001,82.25920828125001,67.0,85.0
424,81.57424275000001,82.26596503125,62.0,85.0
425,81.57424275000001,82.3597149375,43.0,85.0
426,82.18235025000001,82.442485125,46.0,85.0
427,82.38505275000001,82.46022159375,62.0,85.0
428,82.38505275000001,82.46528915625001,67.0,85.0
429,81.77694525000001,82.47373509375001,50.0,85.0
430,82.38505275000001,82.47795806250001,58.0,85.0
431,82.3647825,82.71191053125001,55.0,85.0
432,82.79045775,83.33015315625,72.0,85.0
433,82.79045775,83.34197746875,67.0,85.0
434,82.79045775,83.34873421875001,63.0,85.0
435,82.89180900000001,83.44332871875001,55.0,85.0
436,83.19586275,83.46444356250001,60.0,85.0
437,83.39856525,83.48302462500001,72.0,85.0
438,83.39856525,83.49062596875001,67.0,85.0
439,83.39856525,83.51427459375,63.0,85.0
440,82.79045775,83.54721375000001,48.0,85.0
441,83.60126775,83.84451075000001,62.0,85.0
442,83.60126775,83.84873371875001,70.0,85.0
443,83.60126775,83.854645875,65.0,85.0
444,83.60126775,83.86140262500001,46.0,85.0
445,84.00667275,84.70346259375,68.0,85.0
446,84.00667275,84.712753125,63.0,85.0
447,84.00667275,84.71866528125001,60.0,85.0
448,84.81748275000001,84.93910425000001,68.0,85.0
449,84.81748275000001,84.93994884375,63.0,85.0
450,84.81748275000001,84.98048934375001,60.0,85.0
451,84.00667275,85.04214468750001,44.0,85.0
452,84.41207775000001,85.19586075000001,56.0,85.0
453,84.61478025000001,85.2296445,48.0,85.0
454,84.20937525000001,85.2296445,51.0,85.0
455,85.22288775000001,85.935724875,70.0,85.0
456,85.22288775000001,85.94332621875,62.0,85.0
457,85.22288775000001,85.94332621875,65.0,85.0
458,85.8242385,86.0218734375,50.0,85.0
459,85.22288775000001,86.13758278125,46.0,85.0
460,85.42559025000001,86.26933940625001,53.0,85.0
461,86.03369775,86.36815687500001,65.0,85.0
462,86.03369775,86.37069065625,70.0,85.0
463,86.03369775,86.37153525000001,62.0,85.0
464,85.62829275000001,86.45092706250001,58.0,85.0
465,86.84450775,87.21866278125,63.0,85.0
466,86.64180525,87.29805459375001,58.0,85.0
467,86.43910275,87.34028428125,51.0,85.0
468,87.24991275000001,87.52609490625001,70.0,85.0
469,87.04721025,87.57339215625001,67.0,85.0
470,87.65531775000001,88.52102634375001,43.0,85.0
471,88.06072275000001,88.550587125,47.0,85.0
472,87.85802025000001,88.76680312500001,50.0,85.0
473,88.46612775000001,88.7786274375,59.0,85.0
474,88.2566685,88.82508009375,55.0,85.0
475,89.27693775,89.86730878125,56.0,85.0
476,88.87153275000001,89.92136278125001,44.0,85.0
477,89.47288350000001,89.96612625,48.0,85.0
478,89.68234275,89.97372759375001,60.0,85.0
479,89.68234275,89.9745721875,63.0,85.0
480,89.98639650000001,90.09365990625001,56.0,85.0
481,89.0674785,90.16291659375001,51.0,85.0
482,90.49315275000001,90.72626062500001,58.0,85.0
483,90.08774775,90.82001053125,62.0,85.0
484,90.08774775,90.82254431250001,65.0,85.0
485,90.08774775,91.05649678125,46.0,85.0
486,90.29045025,91.15109128125,53.0,85.0
487,90.89855775000001,91.1941655625,58.0,85.0
488,90.69585525000001,91.21696959375001,50.0,85.0
489,90.89855775000001,91.24990875,62.0,85.0
490,90.89855775000001,91.2549763125,65.0,85.0
491,90.89855775000001,91.33098975000001,70.0,85.0
492,91.70936775000001,92.03622553125001,55.0,85.0
493,91.30396275000001,92.12913084375,43.0,85.0
494,91.91207025000001,92.15531325,46.0,85.0
495,91.50666525000001,92.16882675000001,50.0,85.0
496,92.11477275000001,92.46190078125001,62.0,85.0
497,92.11477275000001,92.47034671875001,58.0,85.0
498,92.21612400000001,92.4728805,55.0,85.0
499,92.11477275000001,92.47625887500001,67.0,85.0
500,92.92558275,93.34196746875001,60.0,85.0
501,92.72288025,93.37068365625001,55.0,85.0
502,93.12828525,93.40953496875001,51.0,85.0
503,93.33098775,93.47119031250001,67.0,85.0
504,93.33098775,93.4728795,72.0,85.0
505,92.52017775,93.47963625000001,48.0,85.0
506,93.33098775,93.48301462500001,63.0,85.0
507,93.73639275000001,94.3732164375,60.0,85.0
508,93.73639275000001,94.39939884375,63.0,85.0
509,93.73639275000001,94.39939884375,68.0,85.0
510,94.14179775000001,94.415446125,56.0,85.0
511,94.54720275000001,94.62997293750001,68.0,85.0
512,94.54720275000001,94.63757428125001,63.0,85.0
513,93.73639275000001,94.65277696875,44.0,85.0
514,94.54720275000001,94.66291209375001,60.0,85.0
515,94.351257,94.85801325000001,48.0,85.0
516,94.54720275000001,94.87152675000002,56.0,85.0
517,93.93909525000001,94.90024293750001,51.0,85.0
518,95.35801275000001,95.60716790625001,58.0,85.0
519,94.95260775000001,95.72034346875,62.0,85.0
520,94.95260775000001,95.72794481250001,65.0,85.0
521,94.95260775000001,95.73132318750001,70.0,85.0
522,94.95260775000001,95.85716765625001,46.0,85.0
523,95.76341775,95.96949862500001,62.0,85.0
524,95.76341775,95.98976887500001,65.0,85.0
525,95.76341775,95.99061346875001,70.0,85.0
526,95.053959,96.10378903125,53.0,85.0
527,95.58098550000001,96.104633625,50.0,85.0
528,95.76341775,96.10885659375,58.0,85.0
529,96.57422775,96.82000453125,60.0,85.0
530,96.16882275,97.0995650625,63.0,85.0
531,96.16882275,97.14770690625001,67.0,85.0
532,96.16882275,97.23470006250001,72.0,85.0
533,97.18233525000001,97.42388906250001,63.0,85.0
534,96.97963275000001,97.4745646875,60.0,85.0
535,97.38503775000001,97.52439571875001,67.0,85.0
536,96.37152525,97.60885509375001,55.0,85.0
537,96.77017350000001,97.60969968750001,51.0,85.0
538,96.16882275,98.19500315625001,48.0,85.0
539,97.38503775000001,98.26088146875001,72.0,85.0
540,99.00665775,99.29381962500001,56.0,85.0
541,98.60125275000001,99.33604931250001,60.0,85.0
542,98.60125275000001,99.34956281250001,68.0,85.0
543,98.60125275000001,99.3596979375,63.0,85.0
544,98.60125275000001,99.61476525,44.0,85.0
545,99.41206275,99.66797465625001,60.0,85.0
546,99.41206275,99.67219762500001,68.0,85.0
547,99.41206275,99.68233275000001,63.0,85.0
548,99.41206275,99.76679212500001,56.0,85.0
549,98.80395525000002,99.83942718750001,51.0,85.0
550,99.20936025,99.88250146875001,48.0,85.0
551,100.22287275000001,100.46527115625001,58.0,85.0
552,99.81746775,100.56831159375001,62.0,85.0
553,99.81746775,100.57591293750001,70.0,85.0
554,99.81746775,100.57760212500001,65.0,85.0
555,100.02017025,100.74060871875001,53.0,85.0
556,99.81746775,100.79719650000001,46.0,85.0
557,100.62827775000001,100.79973028125,65.0,85.0
558,100.42557525000001,100.807331625,50.0,85.0
559,100.62827775000001,100.81493296875001,70.0,85.0
560,100.62827775000001,100.88334506250001,62.0,85.0
561,101.03368275000001,101.057331375,62.0,85.0
562,101.03368275000001,101.74229690625,58.0,85.0
563,101.03368275000001,101.86645218750002,43.0,85.0
564,101.64179025000001,101.9272629375,46.0,85.0
565,101.23638525000001,101.94584400000001,50.0,85.0
566,101.84449275000001,102.00074259375,62.0,85.0
567,101.84449275000001,102.0049655625,58.0,85.0
568,101.84449275000001,102.00834393750002,67.0,85.0
569,101.43908775000001,102.20597887500001,55.0,85.0
570,102.24989775,102.76256615625,72.0,85.0
571,102.24989775,102.77354587500001,67.0,85.0
572,102.24989775,102.80479584375001,63.0,85.0
573,102.65530275,102.89854575000001,60.0,85.0
574,102.45260025,102.96189028125,55.0,85.0
575,102.85800525,102.96695784375001,72.0,85.0
576,102.85800525,102.96864703125001,67.0,85.0
577,102.85800525,102.98469431250001,63.0,85.0
578,102.24989775,103.00327537500002,48.0,85.0
579,103.06070775,103.25918728125001,62.0,85.0
580,103.06070775,103.2752345625,70.0,85.0
581,103.06070775,103.280302125,65.0,85.0
582,103.06070775,103.29381562500001,46.0,85.0
583,103.26341025,103.35378178125,48.0,85.0
584,103.87151775000001,104.14685531250001,56.0,85.0
585,103.46611275000001,104.21526740625,68.0,85.0
586,103.46611275000001,104.22709171875,60.0,85.0
587,103.46611275000001,104.2313146875,63.0,85.0
588,103.46611275000001,104.4036118125,44.0,85.0
589,104.27692275000001,104.40445640625,68.0,85.0
590,104.27692275000001,104.40952396875001,63.0,85.0
591,104.27692275000001,104.51340900000001,60.0,85.0
592,104.47962525000001,104.53452384375001,63.0,85.0
593,104.0674635,104.67894937500002,48.0,85.0
594,104.27692275000001,104.68570612500001,56.0,85.0
595,103.66881525000001,104.7178006875,51.0,85.0
596,105.08773275000001,105.31999603125001,58.0,85.0
597,104.68232775000001,105.43148240625001,70.0,85.0
598,104.68232775000001,105.44161753125,65.0,85.0
599,104.68232775000001,105.44330671875001,62.0,85.0
600,105.31070550000001,105.53959040625001,50.0,85.0
601,104.68232775000001,105.54296878125001,46.0,85.0
602,104.88503025000001,105.6873943125,53.0,85.0
603,105.49313775,105.77438746875,62.0,85.0
604,105.49313775,105.79043475,65.0,85.0
605,105.49313775,105.7955023125,70.0,85.0
606,105.49313775,105.92556975000001,58.0,85.0
607,106.30394775,106.70344059375,63.0,85.0
608,106.70935275000001,107.03958890625,70.0,85.0
609,105.89854275,107.11475775000001,51.0,85.0
610,106.10124525,107.11475775000001,58.0,85.0
611,106.50665025,107.165433375,67.0,85.0
612,106.91205525000001,107.21104143750001,63.0,85.0
613,107.11475775000001,107.39769665625,72.0,85.0
614,107.11475775000001,108.1299594375,43.0,85.0
615,107.72286525000001,108.293810625,47.0,85.0
616,107.52016275000001,108.29887818750001,55.0,85.0
617,107.31746025000001,108.32337140625,50.0,85.0
618,108.12827025000001,108.374891625,62.0,85.0
619,108.73637775,109.20935025000001,56.0,85.0
620,108.33097275000002,109.39516087500002,44.0,85.0
621,109.14178275,109.42387706250001,63.0,85.0
622,109.14178275,109.42894462500001,68.0,85.0
623,109.14178275,109.42978921875002,60.0,85.0
624,108.94583700000001,109.48384321875001,48.0,85.0
625,108.53367525000002,109.57843771875001,51.0,85.0
626,109.34448525,109.61053228125002,56.0,85.0
627,109.95259275000001,110.23299787500001,58.0,85.0
628,109.54718775,110.2836735,70.0,85.0
629,109.54718775,110.29127484375,62.0,85.0
630,109.54718775,110.29380862500001,65.0,85.0
631,110.35799775000001,110.45174765625,65.0,85.0
632,110.35799775000001,110.46610575000001,70.0,85.0
633,110.35799775000001,110.49397734375,58.0,85.0
634,109.74989025,110.51002462500001,53.0,85.0
635,109.54718775,110.59701778125002,46.0,85.0
636,110.15529525000001,110.62066640625001,50.0,85.0
637,110.56070025000001,110.78198381250002,65.0,85.0
638,110.56070025000001,110.78958515625001,70.0,85.0
639,110.35799775000001,110.79718650000001,62.0,85.0
640,110.76340275000001,111.63248971875001,43.0,85.0
641,111.37151025000001,111.7042801875,46.0,85.0
642,110.96610525000001,111.70765856250001,50.0,85.0
643,111.57421275000002,111.90022593750001,67.0,85.0
644,111.57421275000002,111.91289484375001,58.0,85.0
645,111.57421275000002,111.91373943750001,62.0,85.0
646,111.16880775000001,112.00495556250002,55.0,85.0
647,112.38502275,112.67894137500001,60.0,85.0
648,112.58772525,112.68738731250001,72.0,85.0
649,112.58772525,112.68907650000001,67.0,85.0
650,112.58772525,112.69329946875001,63.0,85.0
651,111.97961775000002,112.72032646875002,48.0,85.0
652,112.18232025,112.72792781250001,55.0,85.0
653,112.79042775,113.01677887500001,70.0,85.0
654,112.79042775,113.02269103125,65.0,85.0
655,112.79042775,113.03029237500002,62.0,85.0
656,112.79042775,113.05816396875001,46.0,85.0
657,113.19583275000001,113.85799425,60.0,85.0
658,113.19583275000001,113.85968343750001,68.0,85.0
659,113.19583275000001,113.86897396875001,63.0,85.0
660,113.60123775000001,113.95343334375,56.0,85.0
661,113.19583275000001,114.26086546875001,44.0,85.0
662,114.00664275000001,114.2718451875,60.0,85.0
663,114.00664275000001,114.28282490625001,63.0,85.0
664,114.00664275000001,114.28366950000002,68.0,85.0
665,114.107994,114.42893962500001,56.0,85.0
666,113.810697,114.46187878125001,48.0,85.0
667,113.39853525000001,114.46356796875001,51.0,85.0
668,114.41204775000001,115.06576331250001,62.0,85.0
669,114.41204775000001,115.08434437500001,65.0,85.0
670,114.41204775000001,115.08434437500001,70.0,85.0
671,114.81745275000002,115.31745225000002,58.0,86.0
672,114.41204775000001,115.45849940625001,46.0,85.0
673,115.22285775000002,115.46694534375001,62.0,86.0
674,115.22285775000002,115.48214803125,65.0,86.0
675,115.22285775000002,115.48468181250001,70.0,86.0
676,115.01339850000001,115.55224931250001,50.0,86.0
677,114.61475025000001,115.62826275,53.0,85.0
678,115.42556025,115.658668125,58.0,86.0
679,116.03366775,116.26001887500001,60.0,86.0
680,115.62826275,116.51508618750002,63.0,86.0
681,115.62826275,116.584342875,67.0,86.0
682,115.62826275,116.6620455,72.0,86.0
683,116.64177525000001,116.87826150000001,63.0,86.0
684,116.74312650000002,116.9340046875,67.0,86.0
685,116.43907275000001,116.98721409375001,60.0,86.0
686,116.84447775000001,117.37488262500001,72.0,86.0
687,117.24988275000001,118.02775359375,60.0,86.0
688,115.83096525,118.03451034375001,55.0,86.0
689,115.62826275,118.06153734375,48.0,86.0
690,118.06069275000002,118.06153734375,48.0,87.0
691,116.23637025000001,118.09869946875001,51.0,86.0
692,118.66880025,119.01423909375,63.0,87.0
693,118.87150275,119.20934025000001,65.0,87.0
694,118.46609775000002,119.37234684375001,60.0,87.0
695,119.68231275000001,119.99903540625002,60.0,87.0
696,119.27690775,120.138393375,67.0,87.0
697,118.26339525000002,120.20680546875,55.0,87.0
698,120.08771775000001,120.35123100000001,63.0,87.0
699,120.29042025000001,120.56575781250001,67.0,87.0
700,121.10123025000001,121.37403403125,62.0,87.0
701,120.89852775000001,121.42724343750001,58.0,87.0
702,120.49312275000001,121.55308790625001,46.0,87.0
703,121.30393275000002,121.6502161875,65.0,87.0
704,121.50663525000002,121.70933775000002,62.0,87.0
705,120.69582525000001,121.72876340625001,53.0,87.0
706,122.11474275,122.55562068750001,60.0,87.0
707,122.31744525,122.62065440625001,63.0,87.0
708,121.91204025,122.62572196875001,55.0,87.0
709,121.70933775000002,122.73720834375001,48.0,87.0
710,122.52014775,122.75241103125,67.0,87.0
711,122.72285025000001,122.97453918750001,63.0,87.0
712,123.33095775000001,123.76423434375,56.0,87.0
713,123.53366025000001,123.79463971875,60.0,87.0
714,122.92555275000001,123.9069706875,44.0,87.0
715,123.73636275000001,124.1130515625,63.0,87.0
716,123.12825525000001,124.11727453125,51.0,87.0
717,123.93906525000001,124.16457178125002,60.0,87.0
718,124.14176775000001,124.9745371875,46.0,87.0
719,124.34447025000001,125.03365875000001,53.0,87.0
720,124.74987525000002,125.04041550000001,62.0,87.0
721,124.54717275000002,125.25409771875002,58.0,87.0
722,124.95257775000002,125.30984090625002,65.0,87.0
723,125.35798275,126.314062875,51.0,87.0
724,126.16879275000001,126.63500850000001,70.0,87.0
725,125.76338775,126.65612334375001,63.0,87.0
726,125.96609025000001,126.79548131250002,67.0,87.0
727,125.56068525,126.82757587500001,58.0,87.0
728,126.57419775000001,127.111359375,75.0,87.0
729,126.57419775000001,127.49818331250002,43.0,87.0
730,126.77690025000001,127.66034531250001,50.0,87.0
731,126.97960275000001,127.67639259375001,55.0,87.0
732,127.38500775000001,127.77352087500002,59.0,87.0
733,127.58771025000001,127.80646003125001,62.0,87.0
734,128.19581775,128.6535875625,60.0,87.0
735,127.79041275000002,129.00662775,48.0,87.0
736,128.60122275,129.04378987500002,67.0,87.0
737,128.82250631250002,129.2312896875,60.0,87.0
738,128.39852025000002,129.64682981250002,63.0,87.0
739,128.77014150000002,129.72199865625,72.0,87.0
740,129.4103435625,129.78449859375002,60.0,87.0
741,127.99311525000002,129.84193096875,55.0,87.0
742,129.61473525000002,129.88500525,67.0,87.0
743,129.81743775,130.20764006250002,63.0,87.0
744,130.12149150000002,130.20932925000002,67.0,87.0
745,129.00662775,130.22284275,48.0,87.0
746,130.62824775,131.0133825,65.0,87.0
747,130.42554525,131.08179459375,60.0,87.0
748,130.83095025,131.13838237500002,67.0,87.0
749,130.22284275,131.1772336875,53.0,87.0
750,131.03365275000002,131.32081462500003,68.0,87.0
751,132.04716525,132.37909059375002,67.0,87.0
752,132.24986775000002,132.49057696875002,68.0,87.0
753,131.84446275000002,132.55476609375,65.0,87.0
754,131.64176025,132.64091465625,60.0,87.0
755,131.43905775000002,132.64936059375,53.0,87.0
756,132.45257025,132.69496865625,70.0,87.0
757,133.26338025,133.54040700000002,58.0,87.0
758,133.06067775000002,133.5826366875,56.0,87.0
759,132.65527275000002,133.6333123125,44.0,87.0
760,133.46608275,133.702569,60.0,87.0
761,132.85797525,133.81152159375,51.0,87.0
762,133.87148775,134.18314284375,63.0,87.0
763,133.87148775,134.21439281250002,60.0,87.0
764,133.87148775,134.83179084375,46.0,87.0
765,134.68229775,135.02013525,53.0,87.0
766,134.27689275,135.03871631250001,65.0,87.0
767,134.27689275,135.064054125,62.0,87.0
768,135.08770275,135.81743175000003,48.0,87.0
769,135.69581025000002,136.00493156250002,63.0,87.0
770,135.89851275,136.243107,67.0,87.0
771,135.49310775,136.29040425000002,60.0,87.0
772,135.29040525000002,136.42553925,55.0,87.0
773,136.30391775,136.42553925,55.0,87.0
774,136.30391775,137.29124784375,64.0,87.0
775,136.30391775,137.63161912500001,48.0,87.0
776,137.52013275000002,137.63161912500001,48.0,87.0
777,137.92553775000002,138.567429,60.0,88.0
778,138.12824025,138.59783437500002,63.0,88.0
779,138.33094275000002,138.67807078125,67.0,88.0
780,138.73634775000002,138.90780028125002,60.0,88.0
781,139.14175275000002,139.4137119375,60.0,88.0
782,138.73634775000002,139.41793490625003,63.0,88.0
783,139.34445525,139.59867796875002,67.0,88.0
784,137.72283525,139.66540087500002,55.0,87.0
785,139.54715775000003,140.00239378125002,63.0,88.0
786,139.95256275,140.47198790625,62.0,88.0
787,139.95256275,140.594454,65.0,88.0
788,140.56067025000002,140.86725778125,62.0,88.0
789,140.35796775,140.91371043750001,58.0,88.0
790,140.76337275,141.20509528125,65.0,88.0
791,140.96607525000002,141.25999387500002,62.0,88.0
792,141.16877775,141.82333790625,58.0,88.0
793,141.57418275,141.8512095,62.0,88.0
794,140.15526525,142.18144565625002,53.0,88.0
795,141.77688525000002,142.2278983125,50.0,88.0
796,141.97958775,142.22874290625,65.0,88.0
797,139.95256275,142.29124284375,46.0,88.0
798,142.18229025000002,142.41286434375002,62.0,88.0
799,142.38499275,142.79039775,60.0,88.0
800,143.00661375,143.35289718750002,60.0,88.0
801,142.38499275,143.4069511875,44.0,88.0
802,142.79039775,143.42130928125002,56.0,88.0
803,142.58769525000002,143.57333615625,51.0,88.0
804,143.39850525,143.618099625,60.0,88.0
805,143.19580275,143.62992393750002,63.0,88.0
806,144.20931525,144.3934366875,62.0,89.0
807,144.00661275000002,144.56488921875,58.0,89.0
808,143.60120775000001,144.64765940625,46.0,88.0
809,144.41201775000002,144.787017375,65.0,89.0
810,143.80391025,144.80306465625,53.0,89.0
811,144.61472025,144.8495173125,62.0,89.0
812,145.22282775000002,145.54799634375001,63.0,89.0
813,145.02012525,145.64765840625,58.0,89.0
814,145.42553025,145.66623946875,67.0,89.0
815,144.81742275000002,145.76252315625,51.0,89.0
816,145.62823275000002,145.85373928125,70.0,89.0
817,145.83093525,146.00661075000002,67.0,89.0
818,146.43904275000003,147.00492056250002,55.0,90.0
819,146.64174525,147.08515696875003,59.0,90.0
820,146.23634025,147.11471775,50.0,90.0
821,146.84444775,147.22958250000002,62.0,90.0
822,147.04715025000002,147.24985275,47.0,90.0
823,146.03363775000003,147.2836365,43.0,89.0
824,147.24985275,147.72873740625002,63.0,90.0
825,147.65525775,148.00323037500002,60.0,90.0
826,147.85796025000002,148.25069634375,63.0,90.0
827,148.06066275,148.34106787500002,67.0,90.0
828,148.26336525000002,148.60373653125,60.0,90.0
829,148.66877025000002,149.04292528125,60.0,90.0
830,148.46606775,149.18143865625,63.0,90.0
831,148.46606775,149.2143778125,67.0,90.0
832,147.45255525000002,149.22366834375,55.0,90.0
833,147.24985275,149.31488446875002,48.0,90.0
834,149.27687775,149.38583034375,67.0,90.0
835,149.27687775,149.415391125,63.0,90.0
836,150.08768775000001,150.41707931250002,53.0,90.0
837,150.49309275000002,150.76927490625002,57.0,90.0
838,150.69579525,151.05390300000002,53.0,90.0
839,150.89849775000002,151.39427428125,60.0,90.0
840,150.89849775000002,151.58853084375002,57.0,90.0
841,149.68228275,151.7481590625,41.0,90.0
842,150.29039025,151.7751860625,45.0,90.0
843,149.88498525,151.85204409375,48.0,90.0
844,151.30390275000002,151.92298996875002,53.0,90.0
845,151.70930775000002,151.93903725,60.0,90.0
846,151.70930775000002,151.97957775,57.0,90.0
847,152.52011775000003,152.81741475,56.0,90.0
848,152.11471275000002,152.83177284375,60.0,90.0
849,152.11471275000002,152.8495093125,63.0,90.0
850,152.92552275000003,152.98464431250002,63.0,90.0
851,152.11471275000002,153.02687400000002,44.0,90.0
852,152.92552275000003,153.15694143750002,60.0,90.0
853,152.92552275000003,153.29038725,56.0,90.0
854,152.31741525,153.31825884375002,51.0,90.0
855,153.33092775,154.05136621875002,62.0,90.0
856,153.33092775,154.0657243125,65.0,90.0
857,153.33092775,154.32670378125002,46.0,90.0
858,154.14173775,154.38582534375,62.0,91.0
859,154.14173775,154.40694018750003,65.0,91.0
860,153.73633275,154.50998062500003,58.0,91.0
861,153.53363025000002,154.56994678125002,53.0,91.0
862,154.95254775,155.43227700000003,60.0,91.0
863,155.15525025000002,155.49055396875002,63.0,91.0
864,155.56065525000002,155.90524950000002,60.0,91.0
865,155.76335775,156.44494490625002,63.0,91.0
866,155.76335775,156.47366109375002,72.0,91.0
867,155.35795275,156.4846408125,67.0,91.0
868,156.16876275,156.53785021875,60.0,91.0
869,154.74984525000002,156.7616675625,55.0,91.0
870,154.54714275,156.78784996875,48.0,91.0
871,156.57416775000002,156.90271471875002,72.0,91.0
872,156.57416775000002,156.91116065625002,63.0,91.0
873,156.57416775000002,156.92045118750002,67.0,91.0
874,157.79038275000002,157.89257859375002,60.0,91.0
875,157.79038275000002,157.90778128125,63.0,91.0
876,157.79038275000002,157.91876100000002,68.0,91.0
877,156.97957275000002,158.02095684375,44.0,91.0
878,157.38497775000002,158.03615953125,56.0,91.0
879,157.18227525,158.22281475000003,51.0,91.0
880,158.19578775000002,158.9407194375,62.0,91.0
881,158.19578775000002,158.94494240625002,65.0,91.0
882,158.19578775000002,159.111327375,46.0,91.0
883,158.39849025,159.1197733125,53.0,91.0
884,158.783625,159.1197733125,58.0,91.0
885,159.00659775000003,159.14764490625,62.0,91.0
886,159.00659775000003,159.1484895,65.0,91.0
887,159.41200275000003,160.1738263125,67.0,91.0
888,159.41200275000003,160.18227225,70.0,91.0
889,159.81740775,160.27348837500003,58.0,91.0
890,159.41200275000003,160.34781262500002,51.0,91.0
891,160.22281275,160.6299069375,70.0,91.0
892,160.22281275,160.64088665625002,67.0,91.0
893,161.23632525000002,161.33936568750002,63.0,91.0
894,161.03362275,161.34358865625,60.0,91.0
895,160.83092025000002,161.47956825000003,55.0,91.0
896,160.62821775,161.53784521875002,48.0,91.0
897,161.43902775,161.59696678125002,67.0,91.0
898,161.43902775,161.60118975,63.0,91.0
899,161.84443275,162.58345228125,63.0,91.0
900,161.84443275,162.5927428125,60.0,91.0
901,162.65524275,162.76081696875002,60.0,91.0
902,162.65524275,162.77686425000002,63.0,91.0
903,162.24983775,162.79291153125,56.0,91.0
904,161.84443275,162.80220206250002,44.0,91.0
905,162.04713525000003,163.02686400000002,51.0,91.0
906,163.06064775000002,163.82838346875002,62.0,91.0
907,163.06064775000002,163.84780912500003,65.0,91.0
908,163.26335025,163.95507253125,53.0,91.0
909,163.06064775000002,163.97027521875,46.0,91.0
910,163.46605275000002,164.20760606250002,58.0,91.0
911,163.87145775000002,164.2481465625,70.0,91.0
912,163.87145775000002,164.24899115625,62.0,91.0
913,163.87145775000002,164.25152493750002,65.0,91.0
914,164.27686275000002,165.04206468750002,60.0,91.0
915,164.68226775000002,165.08767275000002,55.0,91.0
916,165.08767275000002,165.38919271875002,60.0,91.0
917,165.49307775000003,165.63581409375,55.0,91.0
918,165.49307775000003,166.20929325,59.0,91.0
919,164.27686275000002,166.35202959375002,43.0,91.0
920,165.89848275000003,166.368076875,55.0,91.0
921,164.68226775000002,166.43817815625002,50.0,91.0
922,164.88497025,166.46351596875002,47.0,91.0
923,166.30388775,166.6163874375,59.0,90.0
924,166.70929275,167.3731434375,60.0,90.0
925,166.70929275,167.37398803125,68.0,90.0
926,166.70929275,167.38074478125,63.0,90.0
927,167.11469775,167.56317703125,56.0,90.0
928,167.52010275,167.60540671875,68.0,90.0
929,167.52010275,167.62060940625003,63.0,90.0
930,166.70929275,167.72111606250002,44.0,90.0
931,167.52010275,167.78446059375003,60.0,90.0
932,167.72280525000002,167.80304165625,63.0,90.0
933,167.72280525000002,167.90523750000003,56.0,90.0
934,167.11469775,167.93733206250002,51.0,90.0
935,167.92550775,168.64594621875003,62.0,90.0
936,167.92550775,168.66283809375003,70.0,90.0
937,167.92550775,168.66790565625,65.0,90.0
938,167.92550775,168.81993253125,46.0,90.0
939,168.33091275,168.84442575000003,53.0,90.0
940,168.73631775,168.94999996875,62.0,90.0
941,168.73631775,168.95422293750002,65.0,90.0
942,168.73631775,168.96182428125002,70.0,90.0
943,168.53361525000003,169.08682415625,58.0,90.0
944,169.14172275,169.20844565625,70.0,90.0
945,169.14172275,169.69831003125,67.0,90.0
946,169.54712775000002,169.82837746875,63.0,90.0
947,169.74983025,169.87483012500002,67.0,89.0
948,169.34442525000003,169.95506653125003,58.0,90.0
949,169.14172275,170.07162046875,51.0,90.0
950,169.95253275000002,170.29881618750002,67.0,89.0
951,170.76334275000002,171.09020053125002,60.0,89.0
952,170.56064025,171.17465990625,55.0,89.0
953,170.35793775000002,171.1907071875,48.0,89.0
954,171.16874775000002,171.47786906250002,67.0,89.0
955,171.16874775000002,171.48378121875,72.0,89.0
956,171.37145025,171.52938928125002,46.0,89.0
957,171.16874775000002,171.53361225,63.0,89.0
958,171.97955775000003,172.395097875,56.0,89.0
959,172.38496275000003,172.49391534375002,67.0,89.0
960,172.38496275000003,172.59780037500002,68.0,89.0
961,171.57415275000002,172.60709090625002,44.0,89.0
962,172.38496275000003,172.63158412500002,63.0,89.0
963,172.38496275000003,172.638340875,60.0,89.0
964,172.58766525000001,172.73462456250002,56.0,89.0
965,171.756585,172.78698937500002,51.0,89.0
966,173.19577275,173.42972521875,58.0,89.0
967,172.79036775,173.45252925000003,70.0,89.0
968,172.79036775,173.47786706250002,65.0,89.0
969,172.79036775,173.49729271875,62.0,89.0
970,172.79036775,173.68225875000002,46.0,89.0
971,173.60117775,173.72533303125002,65.0,89.0
972,173.60117775,173.72702221875002,70.0,89.0
973,173.60117775,173.74560328125003,62.0,89.0
974,173.39847525000002,173.8190829375,50.0,89.0
975,173.60117775,173.97955575,58.0,89.0
976,172.99307025000002,174.00658275,53.0,89.0
977,174.00658275,174.54712275000003,67.0,89.0
978,174.00658275,174.70675096875001,72.0,89.0
979,174.00658275,174.71519690625001,63.0,89.0
980,174.61469025000002,174.72871040625,67.0,88.0
981,174.61469025000002,174.93479128125003,60.0,88.0
982,174.00658275,175.02009525000003,48.0,89.0
983,174.81739275,175.06401412500003,72.0,88.0
984,174.81739275,175.08090600000003,67.0,88.0
985,174.81739275,175.09441950000001,63.0,88.0
986,174.41198775,175.09864246875003,55.0,89.0
987,175.02009525000003,175.12566946875,60.0,88.0
988,175.22279775,175.6535405625,48.0,88.0
989,175.22279775,175.74729046875,72.0,88.0
990,175.22279775,175.75151343750002,67.0,88.0
991,175.22279775,175.76924990625002,63.0,88.0
992,176.84441775000002,177.07499184375,56.0,88.0
993,176.43901275000002,177.1754985,60.0,88.0
994,176.43901275000002,177.1873228125,68.0,88.0
995,176.43901275000002,177.20337009375,63.0,88.0
996,176.43901275000002,177.2717821875,44.0,88.0
997,177.24982275000002,177.34019428125,68.0,88.0
998,177.24982275000002,177.34357265625002,60.0,88.0
999,177.24982275000002,177.34695103125003,63.0,88.0
1000,177.45252525,177.513336,62.0,88.0
1001,177.04712025,177.62059940625002,48.0,88.0
1002,177.24982275000002,177.64086965625,56.0,88.0
1003,176.64171525,177.69323446875,51.0,88.0
1004,178.06063275000002,178.286983875,58.0,88.0
1005,177.65522775000002,178.37566621875,70.0,88.0
1006,177.65522775000002,178.37820000000002,62.0,88.0
1007,177.65522775000002,178.408605375,65.0,88.0
1008,178.46603775000003,178.54711875,65.0,88.0
1009,178.46603775000003,178.54711875,70.0,88.0
1010,178.46603775000003,178.56485521875,62.0,88.0
1011,177.85793025,178.58765925000003,53.0,88.0
1012,178.46603775000003,178.59863896875,58.0,88.0
1013,178.26333525,178.62735515625002,50.0,88.0
1014,177.65522775000002,178.6332673125,46.0,88.0
1015,179.27684775000003,179.47955025000002,55.0,88.0
1016,178.87144275000003,179.54120559375002,58.0,88.0
1017,178.87144275000003,179.55640828125001,67.0,88.0
1018,178.87144275000003,179.56316503125,62.0,88.0
1019,178.87144275000003,179.6569149375,43.0,88.0
1020,179.47955025000002,179.73968512500002,46.0,88.0
1021,179.68225275,179.75742159375002,62.0,88.0
1022,179.68225275,179.76248915625,67.0,88.0
1023,179.07414525000002,179.77093509375,50.0,88.0
1024,179.68225275,179.77515806250003,58.0,88.0
1025,179.66198250000002,180.00911053125,55.0,88.0
1026,180.08765775,180.62735315625002,72.0,88.0
1027,180.08765775,180.63917746875,67.0,88.0
1028,180.08765775,180.64593421875003,63.0,88.0
1029,180.18900900000003,180.74052871875003,55.0,88.0
1030,180.49306275,180.7616435625,60.0,88.0
1031,180.69576525000002,180.78022462500002,72.0,88.0
1032,180.69576525000002,180.78782596875,67.0,88.0
1033,180.69576525000002,180.81147459375,63.0,88.0
1034,180.08765775,180.84441375000003,48.0,88.0
1035,180.89846775,181.14171075000002,62.0,88.0
1036,180.89846775,181.14593371875003,70.0,88.0
1037,180.89846775,181.15184587500002,65.0,88.0
1038,180.89846775,181.15860262500001,46.0,88.0
1039,181.30387275,182.00066259375,68.0,88.0
1040,181.30387275,182.009953125,63.0,88.0
1041,181.30387275,182.01586528125003,60.0,88.0
1042,182.11468275000001,182.23630425000002,68.0,88.0
1043,182.11468275000001,182.23714884375002,63.0,88.0
1044,182.11468275000001,182.27768934375,60.0,88.0
1045,181.30387275,182.33934468750002,44.0,88.0
1046,181.70927775,182.49306075,56.0,88.0
1047,181.91198025000003,182.5268445,48.0,88.0
1048,181.50657525000003,182.5268445,51.0,88.0
1049,182.52008775000002,183.232924875,70.0,88.0
1050,182.52008775000002,183.24052621875,62.0,88.0
1051,182.52008775000002,183.24052621875,65.0,88.0
1052,183.1214385,183.3190734375,50.0,88.0
1053,182.52008775000002,183.43478278125002,46.0,88.0
1054,182.72279025,183.56653940625003,53.0,88.0
1055,183.33089775000002,183.66535687500001,65.0,88.0
1056,183.33089775000002,183.66789065625002,70.0,88.0
1057,183.33089775000002,183.66873525000003,62.0,88.0
1058,182.92549275000002,183.7481270625,58.0,88.0
1059,184.14170775000002,184.51586278125,63.0,88.0
1060,183.93900525,184.59525459375,58.0,88.0
1061,183.73630275000002,184.63748428125,51.0,88.0
1062,184.54711275000003,184.82329490625003,70.0,88.0
1063,184.34441025,184.87059215625,67.0,88.0
1064,184.95251775000003,185.81822634375,43.0,88.0
1065,185.35792275000003,185.84778712500002,47.0,88.0
1066,185.15522025,186.06400312500003,50.0,88.0
1067,185.76332775000003,186.0758274375,59.0,88.0
1068,185.55386850000002,186.12228009375002,55.0,88.0
1069,186.57413775,187.16450878125002,56.0,88.0
1070,186.16873275,187.21856278125003,44.0,88.0
1071,186.77008350000003,187.26332625,48.0,88.0
1072,186.97954275,187.27092759375003,60.0,88.0
1073,186.97954275,187.2717721875,63.0,88.0
1074,187.28359650000002,187.39085990625003,56.0,88.0
1075,186.36467850000002,187.46011659375003,51.0,88.0
1076,187.79035275,188.023460625,58.0,88.0
1077,187.38494775,188.11721053125,62.0,88.0
1078,187.38494775,188.11974431250002,65.0,88.0
1079,187.38494775,188.35369678125002,46.0,88.0
1080,187.58765025000002,188.44829128125002,53.0,88.0
1081,188.19575775,188.49136556250002,58.0,88.0
1082,187.99305525000003,188.51416959375,50.0,88.0
1083,188.19575775,188.54710875,62.0,88.0
1084,188.19575775,188.55217631250002,65.0,88.0
1085,188.19575775,188.62818975000002,70.0,88.0
1086,189.00656775000002,189.33342553125001,55.0,88.0
1087,188.60116275000001,189.42633084375,43.0,88.0
1088,189.20927025,189.45251325,46.0,88.0
1089,188.80386525000003,189.46602675000003,50.0,88.0
1090,189.41197275000002,189.75910078125003,62.0,88.0
1091,189.41197275000002,189.76754671875003,58.0,88.0
1092,189.513324,189.7700805,55.0,88.0
1093,189.41197275000002,189.77345887500002,67.0,88.0
1094,190.22278275000002,190.63916746875,60.0,88.0
1095,190.02008025,190.66788365625,55.0,88.0
1096,190.42548525,190.70673496875003,51.0,88.0
1097,190.62818775000002,190.7683903125,67.0,88.0
1098,190.62818775000002,190.7700795,72.0,88.0
1099,189.81737775000002,190.77683625000003,48.0,88.0
1100,190.62818775000002,190.780214625,63.0,88.0
1101,191.03359275000003,191.67041643750002,60.0,88.0
1102,191.03359275000003,191.69659884375002,63.0,88.0
1103,191.03359275000003,191.69659884375002,68.0,88.0
1104,191.43899775000003,191.71264612500002,56.0,88.0
1105,191.84440275000003,191.92717293750002,68.0,88.0
1106,191.84440275000003,191.93477428125001,63.0,88.0
1107,191.03359275000003,191.94997696875,44.0,88.0
1108,191.84440275000003,191.96011209375,60.0,88.0
1109,191.648457,192.15521325000003,48.0,88.0
1110,191.84440275000003,192.16872675000002,56.0,88.0
1111,191.23629525,192.19744293750003,51.0,88.0
1112,192.65521275,192.90436790625003,58.0,88.0
1113,192.24980775000003,193.01754346875,62.0,88.0
1114,192.24980775000003,193.02514481250003,65.0,88.0
1115,192.24980775000003,193.15436765625003,46.0,88.0
1116,193.06061775,193.266698625,62.0,88.0
1117,193.06061775,193.286968875,65.0,88.0
1118,193.06061775,193.28781346875002,70.0,88.0
1119,192.270078,193.40098903125002,53.0,88.0
1120,192.87818550000003,193.40183362500002,50.0,88.0
1121,193.06061775,193.40605659375,58.0,88.0
1122,193.87142775,194.11720453125002,60.0,88.0
1123,193.46602275,194.3967650625,63.0,88.0
1124,193.46602275,194.44490690625003,67.0,88.0
1125,193.46602275,194.53190006250003,72.0,88.0
1126,194.47953525000003,194.72108906250003,63.0,88.0
1127,194.27683275,194.77176468750002,60.0,88.0
1128,194.68223775,194.82159571875002,67.0,88.0
1129,193.66872525000002,194.90605509375,55.0,88.0
1130,194.06737350000003,194.90689968750002,51.0,88.0
1131,193.46602275,195.49220315625,48.0,88.0
1132,194.68223775,195.55808146875,72.0,88.0
1133,196.30385775000002,196.59101962500003,56.0,88.0
1134,195.89845275000002,196.63324931250003,60.0,88.0
1135,195.89845275000002,196.64676281250001,68.0,88.0
1136,195.89845275000002,196.65689793750002,63.0,88.0
1137,195.89845275000002,196.91196525,44.0,88.0
1138,196.70926275000002,196.96517465625,60.0,88.0
1139,196.70926275000002,196.96939762500003,68.0,88.0
1140,196.70926275000002,196.97953275,63.0,88.0
1141,196.70926275000002,197.06399212500003,56.0,88.0
1142,196.10115525,197.1366271875,51.0,88.0
1143,196.50656025,197.17970146875,48.0,88.0
1144,197.52007275000003,197.76247115625003,58.0,88.0
1145,197.11466775000002,197.86551159375003,62.0,88.0
1146,197.11466775000002,197.87311293750003,70.0,88.0
1147,197.11466775000002,197.87480212500003,65.0,88.0
1148,197.31737025,198.03780871875003,53.0,88.0
1149,197.11466775000002,198.09439650000002,46.0,88.0
1150,197.92547775000003,198.09693028125002,65.0,88.0
1151,197.72277525,198.10453162500002,50.0,88.0
1152,197.92547775000003,198.11213296875002,70.0,88.0
1153,197.92547775000003,198.18054506250002,62.0,88.0
1154,198.33088275000003,198.35453137500002,62.0,88.0
1155,198.33088275000003,199.03949690625,58.0,88.0
1156,198.33088275000003,199.16365218750002,43.0,88.0
1157,198.93899025000002,199.22446293750002,46.0,88.0
1158,198.53358525000002,199.24304400000003,50.0,88.0
1159,199.14169275,199.29794259375,62.0,88.0
1160,199.14169275,199.30216556250002,58.0,88.0
1161,199.14169275,199.3055439375,67.0,88.0
1162,198.73628775000003,199.50317887500003,55.0,88.0
1163,199.54709775,200.05976615625002,72.0,88.0
1164,199.54709775,200.07074587500003,67.0,88.0
1165,199.54709775,200.10199584375002,63.0,88.0
1166,199.95250275,200.19574575000001,60.0,88.0
1167,199.74980025000002,200.25909028125002,55.0,88.0
1168,200.15520525000002,200.26415784375,72.0,88.0
1169,200.15520525000002,200.26584703125002,67.0,88.0
1170,200.15520525000002,200.28189431250001,63.0,88.0
1171,199.54709775,200.30047537500002,48.0,88.0
1172,200.35790775,200.55638728125,62.0,88.0
1173,200.35790775,200.5724345625,70.0,88.0
1174,200.35790775,200.57750212500002,65.0,88.0
1175,200.35790775,200.591015625,46.0,88.0
1176,200.56061025000002,200.65098178125,48.0,88.0
1177,201.16871775,201.4440553125,56.0,88.0
1178,200.76331275,201.51246740625,68.0,88.0
1179,200.76331275,201.52429171875002,60.0,88.0
1180,200.76331275,201.5285146875,63.0,88.0
1181,200.76331275,201.7008118125,44.0,88.0
1182,201.57412275000002,201.70165640625,68.0,88.0
1183,201.57412275000002,201.70672396875003,63.0,88.0
1184,201.57412275000002,201.81060900000003,60.0,88.0
1185,201.77682525000003,201.83172384375,63.0,88.0
1186,201.3646635,201.976149375,48.0,88.0
1187,201.57412275000002,201.98290612500003,56.0,88.0
1188,200.96601525000003,202.01500068750002,51.0,88.0
1189,202.38493275000002,202.61719603125002,58.0,88.0
1190,201.97952775000002,202.72868240625002,70.0,88.0
1191,201.97952775000002,202.73881753125002,65.0,88.0
1192,201.97952775000002,202.74050671875003,62.0,88.0
1193,202.60790550000002,202.83679040625003,50.0,88.0
1194,201.97952775000002,202.84016878125001,46.0,88.0
1195,202.18223025000003,202.9845943125,53.0,88.0
1196,202.79033775000002,203.07158746875,62.0,88.0
1197,202.79033775000002,203.08763475,65.0,88.0
1198,202.79033775000002,203.09270231250002,70.0,88.0
1199,202.79033775000002,203.22276975000003,58.0,88.0
1200,203.60114775000002,204.00064059375,63.0,89.0
1201,204.00655275000003,204.33678890625,70.0,89.0
1202,203.19574275000002,204.41195775000003,51.0,88.0
1203,203.39844525,204.41195775000003,58.0,89.0
1204,203.80385025,204.46263337500002,67.0,89.0
1205,204.20925525,204.5082414375,63.0,89.0
1206,204.41195775000003,204.69489665625002,72.0,89.0
1207,204.41195775000003,205.42715943750002,43.0,89.0
1208,205.02006525000002,205.59101062500002,47.0,89.0
1209,204.81736275000003,205.5960781875,55.0,89.0
1210,204.61466025000001,205.62057140625,50.0,89.0
1211,205.42547025000002,205.672091625,62.0,89.0
1212,206.03357775,206.50655025000003,56.0,89.0
1213,205.62817275,206.69236087500002,44.0,89.0
1214,206.43898275,206.72107706250003,63.0,89.0
1215,206.43898275,206.72614462500002,68.0,89.0
1216,206.43898275,206.72698921875002,60.0,89.0
1217,206.24303700000002,206.78104321875003,48.0,89.0
1218,205.83087525000002,206.87563771875003,51.0,89.0
1219,206.64168525000002,206.90773228125002,56.0,89.0
1220,207.24979275,207.53019787500003,58.0,90.0
1221,206.84438775,207.58087350000002,70.0,90.0
1222,206.84438775,207.58847484375002,62.0,90.0
1223,206.84438775,207.59100862500003,65.0,90.0
1224,207.65519775,207.74894765625,65.0,90.0
1225,207.65519775,207.76330575000003,70.0,90.0
1226,207.65519775,207.79117734375,58.0,90.0
1227,207.04709025000002,207.80722462500003,53.0,90.0
1228,206.84438775,207.89421778125,46.0,90.0
1229,207.45249525000003,207.91786640625003,50.0,90.0
1230,207.85790025000003,208.07918381250002,65.0,90.0
1231,207.85790025000003,208.08678515625002,70.0,90.0
1232,207.65519775,208.0943865,62.0,90.0
1233,208.06060275000002,208.92968971875,43.0,90.0
1234,208.66871025000003,209.00148018750002,46.0,91.0
1235,208.26330525000003,209.00485856250003,50.0,90.0
1236,208.87141275000002,209.19742593750001,67.0,91.0
1237,208.87141275000002,209.21009484375003,58.0,91.0
1238,208.87141275000002,209.21093943750003,62.0,91.0
1239,208.46600775000002,209.30215556250002,55.0,90.0
1240,209.68222275000002,209.97614137500003,60.0,91.0
1241,209.88492525,209.98458731250003,72.0,91.0
1242,209.88492525,209.98627650000003,67.0,91.0
1243,209.88492525,209.99049946875002,63.0,91.0
1244,209.27681775000002,210.01752646875002,48.0,91.0
1245,209.47952025,210.02512781250002,55.0,91.0
1246,210.08762775000002,210.31397887500003,70.0,91.0
1247,210.08762775000002,210.31989103125002,65.0,91.0
1248,210.08762775000002,210.32749237500002,62.0,91.0
1249,210.08762775000002,210.35536396875003,46.0,91.0
1250,210.49303275000003,211.15519425000002,60.0,91.0
1251,210.49303275000003,211.15688343750003,68.0,91.0
1252,210.49303275000003,211.16617396875003,63.0,91.0
1253,210.89843775000003,211.25063334375002,56.0,91.0
1254,210.49303275000003,211.55806546875002,44.0,91.0
1255,211.30384275000003,211.56904518750002,60.0,91.0
1256,211.30384275000003,211.58002490625003,63.0,91.0
1257,211.30384275000003,211.5808695,68.0,91.0
1258,211.40519400000002,211.72613962500003,56.0,91.0
1259,211.107897,211.75907878125003,48.0,91.0
1260,210.69573525,211.76076796875003,51.0,91.0
1261,211.70924775000003,212.36296331250003,62.0,91.0
1262,211.70924775000003,212.38154437500003,65.0,91.0
1263,211.70924775000003,212.38154437500003,70.0,91.0
1264,212.11465275,212.61465225,58.0,91.0
1265,211.70924775000003,212.75569940625002,46.0,91.0
1266,212.52005775,212.76414534375002,62.0,91.0
1267,212.52005775,212.77934803125,65.0,91.0
1268,212.52005775,212.78188181250002,70.0,91.0
1269,212.31059850000003,212.8494493125,50.0,91.0
1270,211.91195025000002,212.92546275,53.0,91.0
1271,212.72276025000002,212.95586812500002,58.0,91.0
1272,213.33086775,213.55721887500002,60.0,91.0
1273,212.92546275,213.8122861875,63.0,91.0
1274,212.92546275,213.881542875,67.0,91.0
1275,212.92546275,213.9592455,72.0,91.0
1276,213.93897525000003,214.1754615,63.0,92.0
1277,214.04032650000002,214.23120468750002,67.0,92.0
1278,213.73627275,214.28441409375003,60.0,92.0
1279,214.14167775,214.67208262500003,72.0,92.0
1280,214.54708275000002,215.32495359375002,60.0,92.0
1281,213.12816525000002,215.33171034375002,55.0,91.0
1282,212.92546275,215.35873734375002,48.0,91.0
1283,213.53357025000003,215.39589946875003,51.0,92.0
1284,215.76329775000002,215.99387184375001,56.0,92.0
1285,215.35789275000002,216.09437850000003,60.0,92.0
1286,215.35789275000002,216.10620281250002,68.0,92.0
1287,215.35789275000002,216.12225009375,63.0,92.0
1288,215.35789275000002,216.1906621875,44.0,92.0
1289,216.16870275000002,216.25907428125,68.0,92.0
1290,216.16870275000002,216.26245265625002,60.0,92.0
1291,216.16870275000002,216.26583103125003,63.0,92.0
1292,216.37140525,216.432216,62.0,92.0
1293,215.96600025,216.53947940625002,48.0,92.0
1294,216.16870275000002,216.55974965625,56.0,92.0
1295,215.56059525,216.61211446875,51.0,92.0
1296,216.97951275000003,217.205863875,58.0,92.0
1297,216.57410775000002,217.29454621875,70.0,92.0
1298,216.57410775000002,217.29708000000002,62.0,92.0
1299,216.57410775000002,217.327485375,65.0,92.0
1300,217.38491775000003,217.46599875,65.0,92.0
1301,217.38491775000003,217.46599875,70.0,92.0
1302,217.38491775000003,217.48373521875,62.0,92.0
1303,216.77681025,217.50653925000003,53.0,92.0
1304,217.38491775000003,217.51751896875,58.0,92.0
1305,217.18221525,217.54623515625002,50.0,92.0
1306,216.57410775000002,217.5521473125,46.0,92.0
1307,218.19572775000003,218.39843025000002,55.0,92.0
1308,217.79032275000003,218.46008559375002,58.0,92.0
1309,217.79032275000003,218.47528828125002,67.0,92.0
1310,217.79032275000003,218.48204503125,62.0,92.0
1311,217.79032275000003,218.5757949375,43.0,92.0
1312,218.39843025000002,218.65856512500002,46.0,92.0
1313,218.60113275000003,218.67630159375003,62.0,92.0
1314,218.60113275000003,218.68136915625,67.0,92.0
1315,217.99302525000002,218.68981509375,50.0,92.0
1316,218.60113275000003,218.69403806250003,58.0,92.0
1317,218.58086250000002,218.92799053125003,55.0,92.0
1318,219.00653775,219.54623315625003,72.0,92.0
1319,219.00653775,219.55805746875,67.0,92.0
1320,219.00653775,219.56481421875003,63.0,92.0
1321,219.02680800000002,219.65940871875003,55.0,92.0
1322,219.41194275,219.6805235625,60.0,92.0
1323,219.61464525000002,219.69910462500002,72.0,92.0
1324,219.61464525000002,219.70670596875001,67.0,92.0
1325,219.61464525000002,219.73035459375,63.0,92.0
1326,219.00653775,219.76329375000003,48.0,92.0
1327,219.81734775,220.06059075000002,62.0,92.0
1328,219.81734775,220.06481371875003,70.0,92.0
1329,219.81734775,220.07072587500002,65.0,92.0
1330,219.81734775,220.07748262500002,46.0,92.0
1331,220.22275275,220.91954259375,68.0,92.0
1332,220.22275275,220.928833125,63.0,92.0
1333,220.22275275,220.93474528125003,60.0,92.0
1334,221.03356275000002,221.15518425000002,68.0,92.0
1335,221.03356275000002,221.15602884375002,63.0,92.0
1336,221.03356275000002,221.19656934375,60.0,92.0
1337,220.22275275,221.25822468750002,44.0,92.0
1338,220.62815775,221.41194075,56.0,92.0
1339,220.83086025000003,221.4457245,48.0,92.0
1340,220.42545525000003,221.4457245,51.0,92.0
1341,221.43896775000002,222.151804875,70.0,92.0
1342,221.43896775000002,222.15940621875,62.0,92.0
1343,221.43896775000002,222.15940621875,65.0,92.0
1344,222.0403185,222.2379534375,50.0,92.0
1345,221.43896775000002,222.35366278125002,46.0,92.0
1346,221.64167025000003,222.48541940625003,53.0,92.0
1347,222.24977775000002,222.58423687500002,65.0,92.0
1348,222.24977775000002,222.58677065625002,70.0,92.0
1349,222.24977775000002,222.58761525000003,62.0,92.0
1350,221.84437275000002,222.66700706250003,58.0,92.0
1351,223.06058775000002,223.43474278125,63.0,92.0
1352,222.85788525,223.51413459375001,58.0,92.0
1353,222.65518275000002,223.55636428125,51.0,92.0
1354,223.46599275000003,223.74217490625003,70.0,92.0
1355,223.26329025,223.78947215625,67.0,92.0
1356,223.87139775000003,224.73710634375,43.0,92.0
1357,224.27680275000003,224.76666712500003,47.0,92.0
1358,224.07410025000001,224.98288312500003,50.0,92.0
1359,224.68220775000003,224.9947074375,59.0,92.0
1360,224.47274850000002,225.04116009375002,55.0,92.0
1361,225.49301775,226.08338878125002,56.0,92.0
1362,225.08761275000003,226.13744278125003,44.0,92.0
1363,225.68896350000003,226.18220625,48.0,92.0
1364,225.89842275,226.18980759375003,60.0,92.0
1365,225.89842275,226.1906521875,63.0,92.0
1366,226.20247650000002,226.30973990625003,56.0,92.0
1367,225.28355850000003,226.37899659375003,51.0,92.0
1368,226.70923275,226.942340625,58.0,92.0
1369,226.30382775,227.03609053125,62.0,92.0
1370,226.30382775,227.03862431250002,65.0,92.0
1371,226.30382775,227.27257678125002,46.0,92.0
1372,226.50653025000003,227.36717128125002,53.0,92.0
1373,227.11463775,227.41024556250002,58.0,92.0
1374,226.91193525000003,227.43304959375,50.0,92.0
1375,227.11463775,227.46598875,62.0,92.0
1376,227.11463775,227.47105631250002,65.0,92.0
1377,227.11463775,227.54706975000002,70.0,92.0
1378,227.92544775000002,228.25230553125002,55.0,92.0
1379,227.52004275000002,228.34521084375,43.0,92.0
1380,228.12815025000003,228.37139325,46.0,92.0
1381,227.72274525000003,228.38490675000003,50.0,92.0
1382,228.33085275000002,228.67798078125003,62.0,92.0
1383,228.33085275000002,228.68642671875003,58.0,92.0
1384,228.432204,228.6889605,55.0,92.0
1385,228.33085275000002,228.69233887500002,67.0,92.0
1386,229.14166275000002,229.55804746875003,60.0,92.0
1387,228.93896025,229.58676365625,55.0,92.0
1388,229.34436525,229.62561496875003,51.0,92.0
1389,229.54706775000002,229.68727031250003,67.0,92.0
1390,229.54706775000002,229.6889595,72.0,92.0
1391,228.73625775000002,229.69571625000003,48.0,92.0
1392,229.54706775000002,229.69909462500001,63.0,92.0
1393,229.95247275000003,230.58929643750002,60.0,92.0
1394,229.95247275000003,230.61547884375003,63.0,92.0
1395,229.95247275000003,230.61547884375003,68.0,92.0
1396,230.35787775000003,230.63152612500002,56.0,92.0
1397,230.76328275000003,230.84605293750002,68.0,92.0
1398,230.76328275000003,230.85365428125002,63.0,92.0
1399,229.95247275000003,230.86885696875,44.0,92.0
1400,230.76328275000003,230.87899209375,60.0,92.0
1401,230.567337,231.07409325000003,48.0,92.0
1402,230.76328275000003,231.08760675000002,56.0,92.0
1403,230.15517525,231.11632293750003,51.0,92.0
1404,231.57409275000003,231.82324790625003,58.0,92.0
1405,231.16868775000003,231.93642346875,62.0,92.0
1406,231.16868775000003,231.94402481250003,65.0,92.0
1407,231.16868775000003,231.94740318750002,70.0,92.0
1408,231.16868775000003,232.07324765625003,46.0,92.0
1409,231.97949775,232.18557862500003,62.0,92.0
1410,231.97949775,232.20584887500002,65.0,92.0
1411,231.97949775,232.20669346875002,70.0,92.0
1412,231.20247150000003,232.31986903125002,53.0,92.0
1413,231.79706550000003,232.32071362500002,50.0,92.0
1414,231.97949775,232.32493659375,58.0,92.0
1415,232.79030775,233.03608453125003,60.0,92.0
1416,232.38490275,233.3156450625,63.0,92.0
1417,232.38490275,233.36378690625003,67.0,92.0
1418,232.38490275,233.45078006250003,72.0,92.0
1419,233.39841525000003,233.63996906250003,63.0,92.0
1420,233.19571275,233.69064468750003,60.0,92.0
1421,233.60111775000001,233.74047571875002,67.0,92.0
1422,232.41192975,233.82493509375,55.0,92.0
1423,232.98625350000003,233.82577968750002,51.0,92.0
1424,232.38490275,234.41108315625002,48.0,92.0
1425,233.60111775000001,234.47696146875003,72.0,92.0
1426,234.41192775000002,234.68304234375003,75.0,92.0
1427,234.61463025000003,234.74047471875002,77.0,92.0
1428,234.81733275000002,235.1754405,79.0,92.0
1429,235.22273775000002,235.49385234375004,65.0,92.0
1430,235.22949450000002,235.56057525000003,77.0,92.0
1431,235.42544025,235.83591281250003,70.0,92.0
1432,234.81733275000002,235.88236546875,56.0,92.0
1433,235.62814275000002,235.9946964375,82.0,92.0
1434,236.03354775000003,236.47273650000002,77.0,92.0
1435,236.43895275000003,236.68557412500002,65.0,92.0
1436,236.84435775000003,237.15601284375003,75.0,92.0
1437,236.03354775000003,237.17881687500002,58.0,92.0
1438,236.64165525,237.22442493750003,70.0,92.0
1439,237.24976275000003,237.61462725,74.0,92.0
1440,237.65516775000003,237.91868100000002,65.0,92.0
1441,237.85787025000002,238.01749846875003,75.0,92.0
1442,238.06057275000003,238.21428881250003,74.0,92.0
1443,237.85787025000002,238.354491375,70.0,92.0
1444,237.24976275000003,238.87138275,60.0,92.0
1445,238.46597775,238.87138275,70.0,92.0
1446,238.87138275,239.08168659375002,63.0,92.0
1447,238.46597775,239.13911896875,72.0,92.0
1448,239.07408525000002,239.26665262500003,70.0,92.0
1449,239.27678775,239.47526728125,75.0,92.0
1450,239.47949025000003,239.61800362500003,77.0,92.0
1451,239.68219275,239.94655059375003,79.0,92.0
1452,240.08759775000001,240.33168534375002,63.0,92.0
1453,240.08759775000001,240.51158381250002,77.0,92.0
1454,239.68219275,240.77340787500003,56.0,92.0
1455,240.49300275000002,240.87053615625,82.0,92.0
1456,240.29030025000003,240.96344146875003,70.0,92.0
1457,240.89840775000002,241.29029925000003,79.0,92.0
1458,241.30381275000002,241.50398146875003,63.0,93.0
1459,241.50651525000004,241.71344071875,87.0,93.0
1460,240.89840775000002,241.999758,58.0,92.0
1461,241.91192025,242.06310253125002,86.0,93.0
1462,241.50651525000004,242.10448762500002,70.0,93.0
1463,242.11462275000002,242.65516275000002,79.0,93.0
1464,242.52002775000003,242.756514,63.0,93.0
1465,242.72273025,242.94232462500003,70.0,93.0
1466,242.72273025,242.94232462500003,70.0,93.0
1467,242.92543275000003,243.13995956250002,74.0,93.0
1468,243.12813525,243.25735809375,75.0,93.0
1469,243.33083775000003,243.68218875000002,70.0,93.0
1470,243.33083775000003,243.7379319375,77.0,93.0
1471,242.11462275000002,243.82745887500002,60.0,93.0
1472,243.73624275000003,243.97441818750002,79.0,93.0
1473,243.73624275000003,244.15516125000002,67.0,93.0
1474,244.14164775000003,244.35617456250003,82.0,93.0
1475,244.14164775000003,244.56310003125003,63.0,93.0
1476,244.54705275000003,244.81732275000002,79.0,93.0
1477,244.95245775,245.18978859375002,63.0,93.0
1478,244.95245775,245.2210385625,77.0,93.0
1479,245.35786275,245.56225443750003,82.0,93.0
1480,244.54705275000003,245.72019346875,56.0,93.0
1481,245.15516025000002,245.807186625,70.0,93.0
1482,245.76326775,246.02678100000003,79.0,93.0
1483,246.16867275,246.40769278125003,63.0,93.0
1484,246.37137525000003,246.52086834375,77.0,94.0
1485,245.76326775,246.85448287500003,58.0,93.0
1486,246.77678025000003,246.89417878125002,75.0,94.0
1487,246.37137525000003,246.98708409375,70.0,94.0
1488,246.97948275000002,247.3831985625,74.0,94.0
1489,247.38488775000002,247.60701590625,63.0,94.0
1490,247.58759025000003,247.70329959375002,75.0,95.0
1491,247.79029275000002,247.94992096875004,74.0,95.0
1492,247.58759025000003,248.03944790625002,70.0,95.0
1493,248.19569775000002,248.69147428125,70.0,95.0
1494,248.19569775000002,248.79873768750002,72.0,95.0
1495,248.60110275000002,248.94738618750003,67.0,95.0
1496,246.97948275000002,248.95752131250003,60.0,94.0
1497,249.00650775000003,249.19316296875002,72.0,95.0
1498,249.20921025,249.32829796875004,74.0,95.0
1499,249.00650775000003,249.354480375,63.0,95.0
1500,249.41191275000003,249.64079765625002,75.0,95.0
1501,249.81731775000003,250.03775671875002,77.0,95.0
1502,249.81731775000003,250.05887156250003,63.0,95.0
1503,250.22272275000003,250.46005359375002,79.0,95.0
1504,249.41191275000003,250.56816159375003,53.0,95.0
1505,250.02002025000002,250.65937771875002,68.0,95.0
1506,250.62812775000003,250.90093153125002,77.0,95.0
1507,251.03353275000003,251.2852216875,65.0,95.0
1508,251.23623525000002,251.42964721875003,74.0,96.0
1509,251.23623525000002,251.53859981250002,70.0,96.0
1510,250.62812775000003,251.63488350000003,55.0,95.0
1511,251.64164025000002,251.77001850000002,70.0,96.0
1512,251.84434275,252.65515275,72.0,96.0
1513,252.45245025000003,252.74383509375002,62.0,96.0
1514,252.65515275,252.86714578125003,63.0,96.0
1515,252.85785525000003,252.989611875,65.0,96.0
1516,252.24974775,253.07829421875002,60.0,96.0
1517,252.04704525000002,253.34518584375002,55.0,96.0
1518,251.84434275,254.12812425,48.0,96.0
1519,253.06055775000002,254.52001575000003,72.0,96.0
