,start,end,pitch,velocity
0,17.0375,17.472916666666666,65.0,91.0
1,17.566666666666666,17.941666666666666,67.0,85.0
2,18.06875,18.897916666666667,69.0,90.0
3,19.05625,19.433333333333334,69.0,90.0
4,19.535416666666666,19.902083333333334,70.0,90.0
5,20.027083333333334,21.0375,72.0,91.0
6,21.825,21.9625,60.0,91.0
7,22.083333333333332,22.429166666666667,74.0,100.0
8,22.579166666666666,22.897916666666667,74.0,95.0
9,23.075,23.3125,74.0,93.0
10,23.422916666666666,23.633333333333333,72.0,89.0
11,23.75208333333333,23.966666666666665,70.0,88.0
12,24.070833333333333,24.777083333333334,72.0,85.0
13,25.8125,26.0,62.0,91.0
14,26.083333333333332,26.354166666666668,74.0,96.0
15,26.545833333333334,26.679166666666667,74.0,91.0
16,26.8125,27.233333333333334,74.0,92.0
17,27.78125,27.941666666666666,69.0,89.0
18,28.041666666666668,28.389583333333334,72.0,91.0
19,28.552083333333332,28.702083333333334,69.0,84.0
20,28.8125,29.329166666666666,69.0,89.0
21,29.808333333333334,29.933333333333334,60.0,91.0
22,30.0625,30.379166666666666,70.0,90.0
23,30.504166666666666,30.797916666666666,69.0,91.0
24,30.995833333333334,31.3625,65.0,91.0
25,31.508333333333333,31.68958333333333,62.0,89.0
26,31.777083333333334,32.71041666666667,67.0,85.0
27,33.56875,33.71875,65.0,91.0
28,33.80625,33.925,67.0,84.0
29,34.07083333333333,34.422916666666666,69.0,91.0
30,34.56458333333333,34.864583333333336,69.0,89.0
31,35.06666666666666,35.40208333333333,69.0,92.0
32,35.55625,35.7,70.0,91.0
33,35.825,36.87916666666666,72.0,91.0
34,37.80625,37.95625,65.0,91.0
35,38.07083333333333,38.364583333333336,74.0,92.0
36,38.5625,38.84375,74.0,93.0
37,39.041666666666664,39.39375,74.0,93.0
38,39.52916666666667,39.68541666666667,72.0,90.0
39,39.764583333333334,39.927083333333336,70.0,90.0
40,40.03125,40.979166666666664,72.0,88.0
41,41.81875,41.93958333333333,65.0,90.0
42,42.079166666666666,42.39375,74.0,94.0
43,42.541666666666664,42.68333333333333,72.0,87.0
44,42.80833333333333,43.50416666666666,74.0,91.0
45,43.77708333333333,43.90833333333333,74.0,95.0
46,44.047916666666666,44.34791666666666,72.0,91.0
47,44.545833333333334,44.697916666666664,69.0,89.0
48,44.81666666666666,45.52291666666667,77.0,89.0
49,45.83541666666667,45.97083333333333,72.0,84.0
50,46.06666666666666,46.416666666666664,74.0,96.0
51,46.541666666666664,46.666666666666664,77.0,89.0
52,46.770833333333336,46.90416666666667,77.0,90.0
53,47.014583333333334,47.15625,77.0,91.0
54,47.275,47.87083333333333,79.0,89.0
55,48.0,50.15,79.0,89.0
56,52.58541666666667,52.952083333333334,72.0,94.0
57,53.08541666666667,53.46875,77.0,94.0
58,53.58541666666667,53.9375,79.0,90.0
59,54.08541666666667,54.89375,81.0,90.0
60,55.08541666666667,55.47083333333333,79.0,90.0
61,55.58541666666667,55.762499999999996,77.0,87.0
62,55.83541666666667,57.14791666666667,79.0,90.0
63,57.58541666666667,57.78333333333333,77.0,91.0
64,57.83541666666667,57.96458333333333,76.0,90.0
65,58.08541666666667,58.43333333333333,77.0,90.0
66,58.58541666666667,58.88333333333333,76.0,91.0
67,59.08541666666667,59.225,74.0,94.0
68,59.33541666666667,59.71041666666667,76.0,91.0
69,59.83541666666667,60.822916666666664,69.0,91.0
70,61.83541666666667,61.985416666666666,72.0,90.0
71,62.08541666666667,62.4625,74.0,93.0
72,62.58541666666667,62.72708333333333,72.0,92.0
73,62.83541666666667,63.50625,74.0,93.0
74,63.83541666666667,64.00625,74.0,95.0
75,64.08541666666666,64.36041666666667,72.0,91.0
76,64.58541666666666,64.7375,69.0,90.0
77,64.83541666666666,65.57291666666667,77.0,90.0
78,65.83541666666666,65.96458333333334,72.0,91.0
79,66.08541666666666,66.48333333333333,74.0,96.0
80,66.58541666666666,66.92083333333333,77.0,94.0
81,67.08541666666666,67.23958333333333,77.0,94.0
82,67.33541666666666,67.88958333333333,79.0,91.0
83,68.08541666666666,68.61041666666667,79.0,91.0
84,68.58541666666666,68.89791666666666,72.0,93.0
85,69.08541666666666,69.43958333333333,77.0,94.0
86,69.58541666666666,69.92916666666666,79.0,90.0
87,70.08541666666666,70.83541666666666,81.0,87.0
88,71.08541666666666,71.4875,79.0,90.0
89,71.58541666666666,71.72291666666666,77.0,89.0
90,71.83541666666666,73.02291666666666,79.0,90.0
91,73.58541666666666,73.74166666666666,77.0,90.0
92,73.83541666666666,73.98125,76.0,96.0
93,74.08541666666666,74.4625,77.0,90.0
94,74.58541666666666,74.92708333333333,76.0,93.0
95,75.08541666666666,75.23541666666667,74.0,90.0
96,75.33541666666666,75.74583333333334,76.0,95.0
97,75.83541666666666,76.96041666666666,69.0,90.0
98,77.58541666666666,77.71041666666666,72.0,91.0
99,77.83541666666666,77.98958333333333,72.0,89.0
100,78.08541666666666,78.425,74.0,100.0
101,78.58541666666666,78.72291666666666,72.0,93.0
102,78.83541666666666,79.53333333333333,74.0,96.0
103,79.83541666666666,80.00625,74.0,91.0
104,80.08541666666666,80.43541666666667,72.0,91.0
105,80.58541666666666,80.74375,69.0,91.0
106,80.83541666666666,81.53333333333333,77.0,90.0
107,81.83541666666666,81.98125,72.0,89.0
108,82.08541666666666,82.43541666666667,82.0,87.0
109,82.58541666666666,82.925,81.0,90.0
110,83.08541666666666,83.47083333333333,77.0,89.0
111,83.58541666666666,83.725,76.0,91.0
112,83.83541666666666,87.72932243333334,77.0,91.0
113,103.01260470000001,103.44802136666668,65.0,91.0
114,103.54177136666668,103.91677136666668,67.0,85.0
115,104.04385470000001,104.87302136666668,69.0,90.0
116,105.03135470000001,105.40843803333334,69.0,90.0
117,105.51052136666667,105.87718803333334,70.0,90.0
118,106.00218803333334,107.01260470000001,72.0,91.0
119,107.8001047,107.93760470000001,60.0,91.0
120,108.05843803333335,108.40427136666668,74.0,100.0
121,108.55427136666668,108.87302136666668,74.0,95.0
122,109.0501047,109.2876047,74.0,93.0
123,109.39802136666668,109.60843803333334,72.0,89.0
124,109.72718803333333,109.94177136666667,70.0,88.0
125,110.04593803333334,110.75218803333334,72.0,85.0
126,111.7876047,111.9751047,62.0,91.0
127,112.05843803333335,112.32927136666667,74.0,96.0
128,112.52093803333334,112.65427136666668,74.0,91.0
129,112.7876047,113.20843803333334,74.0,92.0
130,113.7563547,113.91677136666667,69.0,89.0
131,114.01677136666667,114.36468803333334,72.0,91.0
132,114.52718803333335,114.67718803333334,69.0,84.0
133,114.7876047,115.30427136666667,69.0,89.0
134,115.78343803333334,115.90843803333334,60.0,91.0
135,116.0376047,116.35427136666667,70.0,90.0
136,116.47927136666667,116.77302136666667,69.0,91.0
137,116.97093803333334,117.33760470000001,65.0,91.0
138,117.48343803333334,117.66468803333333,62.0,89.0
139,117.75218803333334,118.68552136666668,67.0,85.0
140,119.54385470000001,119.6938547,65.0,91.0
141,119.78135470000001,119.90010470000001,67.0,84.0
142,120.04593803333334,120.39802136666667,69.0,91.0
143,120.53968803333333,120.83968803333335,69.0,89.0
144,121.04177136666667,121.37718803333334,69.0,92.0
145,121.53135470000001,121.6751047,70.0,91.0
146,121.8001047,122.85427136666667,72.0,91.0
147,123.78135470000001,123.93135470000001,65.0,91.0
148,124.04593803333334,124.33968803333335,74.0,92.0
149,124.5376047,124.8188547,74.0,93.0
150,125.01677136666667,125.36885470000001,74.0,93.0
151,125.50427136666667,125.66052136666667,72.0,90.0
152,125.73968803333334,125.90218803333335,70.0,90.0
153,126.0063547,126.95427136666667,72.0,88.0
154,127.7938547,127.91468803333333,65.0,90.0
155,128.05427136666668,128.3688547,74.0,94.0
156,128.51677136666666,128.65843803333334,72.0,87.0
157,128.78343803333334,129.47927136666667,74.0,91.0
158,129.75218803333334,129.88343803333333,74.0,95.0
159,130.02302136666668,130.32302136666667,72.0,91.0
160,130.52093803333332,130.67302136666666,69.0,89.0
161,130.79177136666667,131.49802136666668,77.0,89.0
162,131.81052136666668,131.94593803333333,72.0,84.0
163,132.04177136666667,132.39177136666666,74.0,96.0
164,132.51677136666666,132.64177136666666,77.0,89.0
165,132.74593803333335,132.87927136666667,77.0,90.0
166,132.98968803333332,133.1313547,77.0,91.0
167,133.2501047,133.84593803333334,79.0,89.0
168,133.9751047,136.1251047,79.0,89.0
169,138.56052136666668,138.92718803333332,72.0,94.0
170,139.06052136666668,139.4438547,77.0,94.0
171,139.56052136666668,139.9126047,79.0,90.0
172,140.06052136666668,140.8688547,81.0,90.0
173,141.06052136666668,141.44593803333333,79.0,90.0
174,141.56052136666668,141.73760470000002,77.0,87.0
175,141.81052136666668,143.12302136666668,79.0,90.0
176,143.56052136666668,143.75843803333333,77.0,91.0
177,143.81052136666668,143.93968803333334,76.0,90.0
178,144.06052136666668,144.40843803333334,77.0,90.0
179,144.56052136666668,144.85843803333336,76.0,91.0
180,145.06052136666668,145.2001047,74.0,94.0
181,145.31052136666668,145.68552136666668,76.0,91.0
182,145.81052136666668,146.79802136666666,69.0,91.0
183,147.81052136666668,147.96052136666668,72.0,90.0
184,148.06052136666668,148.4376047,74.0,93.0
185,148.56052136666668,148.70218803333336,72.0,92.0
186,148.81052136666668,149.4813547,74.0,93.0
187,149.81052136666668,149.9813547,74.0,95.0
188,150.06052136666668,150.33552136666668,72.0,91.0
189,150.56052136666668,150.7126047,69.0,90.0
190,150.81052136666668,151.54802136666666,77.0,90.0
191,151.81052136666668,151.93968803333334,72.0,91.0
192,152.06052136666668,152.45843803333332,74.0,96.0
193,152.56052136666668,152.89593803333332,77.0,94.0
194,153.06052136666668,153.21468803333335,77.0,94.0
195,153.31052136666668,153.86468803333332,79.0,91.0
196,154.06052136666668,154.58552136666668,79.0,91.0
197,154.56052136666668,154.87302136666668,72.0,93.0
198,155.06052136666668,155.41468803333333,77.0,94.0
199,155.56052136666668,155.90427136666668,79.0,90.0
200,156.06052136666668,156.81052136666668,81.0,87.0
201,157.06052136666668,157.46260469999999,79.0,90.0
202,157.56052136666668,157.6980213666667,77.0,89.0
203,157.81052136666668,158.99802136666668,79.0,90.0
204,159.56052136666668,159.71677136666668,77.0,90.0
205,159.81052136666668,159.95635470000002,76.0,96.0
206,160.06052136666668,160.4376047,77.0,90.0
207,160.56052136666668,160.90218803333335,76.0,93.0
208,161.06052136666668,161.21052136666668,74.0,90.0
209,161.31052136666668,161.72093803333334,76.0,95.0
210,161.81052136666668,162.93552136666668,69.0,90.0
211,163.56052136666668,163.68552136666668,72.0,91.0
212,163.81052136666668,163.96468803333335,72.0,89.0
213,164.06052136666668,164.40010469999999,74.0,100.0
214,164.56052136666668,164.6980213666667,72.0,93.0
215,164.81052136666668,165.50843803333333,74.0,96.0
216,165.81052136666668,165.9813547,74.0,91.0
217,166.06052136666668,166.41052136666667,72.0,91.0
218,166.56052136666668,166.7188547,69.0,91.0
219,166.81052136666668,167.50843803333333,77.0,90.0
220,167.81052136666668,167.95635470000002,72.0,89.0
221,168.06052136666668,168.41052136666667,82.0,87.0
222,168.56052136666668,168.90010469999999,81.0,90.0
223,169.06052136666668,169.44593803333333,77.0,89.0
224,169.56052136666668,169.7001047,76.0,91.0
225,169.81052136666668,173.7188547,77.0,91.0
226,174.56052136666668,174.67093803333336,74.0,85.0
227,174.81052136666668,174.9438547,74.0,98.0
228,175.06052136666668,175.19177136666667,74.0,91.0
229,175.31052136666668,175.43552136666668,74.0,93.0
230,175.56052136666668,175.67927136666668,74.0,90.0
231,175.81052136666668,175.9501047,74.0,93.0
232,176.06052136666668,176.4063547,76.0,91.0
233,176.56052136666668,176.69593803333333,74.0,91.0
234,176.81052136666668,177.50843803333333,76.0,90.0
235,178.56052136666668,178.71677136666668,76.0,91.0
236,178.81052136666668,178.93968803333334,76.0,90.0
237,179.06052136666668,179.19177136666667,76.0,93.0
238,179.31052136666668,179.44593803333333,76.0,90.0
239,179.56052136666668,179.72302136666667,76.0,92.0
240,179.81052136666668,179.97302136666667,69.0,95.0
241,180.06052136666668,180.22718803333333,79.0,95.0
242,180.31052136666668,180.44177136666667,77.0,91.0
243,180.56052136666668,180.7001047,76.0,93.0
244,180.81052136666668,181.87927136666667,77.0,90.0
245,182.56052136666668,182.71468803333335,74.0,93.0
246,182.81052136666668,182.92927136666668,74.0,93.0
247,183.06052136666668,183.21052136666668,74.0,90.0
248,183.31052136666668,183.42927136666668,74.0,89.0
249,183.56052136666668,183.6688547,74.0,91.0
250,183.81052136666668,183.94593803333333,74.0,91.0
251,184.06052136666668,184.20218803333336,76.0,91.0
252,184.31052136666668,184.4688547,76.0,90.0
253,184.56052136666668,184.70635470000002,74.0,85.0
254,184.81052136666668,185.37927136666667,76.0,91.0
255,185.56052136666668,185.70635470000002,74.0,100.0
256,185.81052136666668,185.95218803333336,76.0,93.0
257,186.06052136666668,186.19177136666667,77.0,90.0
258,186.31052136666668,186.43343803333335,77.0,88.0
259,186.56052136666668,186.6876047,77.0,89.0
260,186.81052136666668,186.93135469999999,77.0,87.0
261,187.06052136666668,187.19593803333333,77.0,90.0
262,187.31052136666668,187.7188547,77.0,90.0
263,187.81052136666668,187.96677136666668,79.0,91.0
264,188.06052136666668,192.11677136666668,79.0,90.0
265,192.56052136666668,192.92718803333332,72.0,94.0
266,193.06052136666668,193.4438547,77.0,94.0
267,193.56052136666668,193.9126047,79.0,90.0
268,194.06052136666668,194.86885469999999,81.0,90.0
269,195.06052136666668,195.44593803333333,79.0,90.0
270,195.56052136666668,195.73760470000002,77.0,87.0
271,195.81052136666668,197.12302136666668,79.0,90.0
272,197.56052136666668,197.75843803333333,77.0,91.0
273,197.81052136666668,197.93968803333334,76.0,90.0
274,198.06052136666668,198.40843803333334,77.0,90.0
275,198.56052136666668,198.85843803333336,76.0,91.0
276,199.06052136666668,199.2001047,74.0,94.0
277,199.31052136666668,199.68552136666668,76.0,91.0
278,199.81052136666668,200.79802136666666,69.0,91.0
279,201.81052136666668,201.96052136666668,72.0,90.0
280,202.06052136666668,202.4376047,74.0,93.0
281,202.56052136666668,202.70218803333336,72.0,92.0
282,202.81052136666668,203.4813547,74.0,93.0
283,203.81052136666668,203.9813547,74.0,95.0
284,204.06052136666668,204.33552136666668,72.0,91.0
285,204.56052136666668,204.71260469999999,69.0,90.0
286,204.81052136666668,205.54802136666666,77.0,90.0
287,205.81052136666668,205.93968803333334,72.0,91.0
288,206.06052136666668,206.45843803333332,74.0,96.0
289,206.56052136666668,206.89593803333332,77.0,94.0
290,207.06052136666668,207.21468803333335,77.0,94.0
291,207.31052136666668,207.86468803333332,79.0,91.0
292,208.06052136666668,208.58552136666668,79.0,91.0
293,208.56052136666668,208.87302136666668,72.0,93.0
294,209.06052136666668,209.41468803333333,77.0,94.0
295,209.56052136666668,209.90427136666668,79.0,90.0
296,210.06052136666668,210.81052136666668,81.0,87.0
297,211.06052136666668,211.46260469999999,79.0,90.0
298,211.56052136666668,211.69802136666667,77.0,89.0
299,211.81052136666668,212.99802136666668,79.0,90.0
300,213.56052136666668,213.71677136666668,77.0,90.0
301,213.81052136666668,213.95635470000002,76.0,96.0
302,214.06052136666668,214.4376047,77.0,90.0
303,214.56052136666668,214.90218803333335,76.0,93.0
304,215.06052136666668,215.21052136666668,74.0,90.0
305,215.31052136666668,215.72093803333334,76.0,95.0
306,215.81052136666668,216.93552136666668,69.0,90.0
307,217.56052136666665,217.68552136666665,72.0,91.0
308,217.81052136666665,217.96468803333335,72.0,89.0
309,218.06052136666665,218.40010469999999,74.0,100.0
310,218.56052136666665,218.6980213666667,72.0,93.0
311,218.81052136666665,219.50843803333333,74.0,96.0
312,219.81052136666665,219.9813547,74.0,91.0
313,220.06052136666665,220.41052136666667,72.0,91.0
314,220.56052136666665,220.7188547,69.0,91.0
315,220.81052136666665,221.50843803333333,77.0,90.0
316,221.81052136666665,221.95635470000002,72.0,89.0
317,222.06052136666665,222.41052136666667,82.0,87.0
318,222.56052136666665,222.90010469999999,81.0,90.0
319,223.06052136666665,223.44593803333333,77.0,89.0
320,223.56052136666665,223.7001047,76.0,91.0
321,223.81052136666665,227.7188547,77.0,91.0
