,start,end,pitch,velocity
0,2.0854166666666667,2.3375,77.0,81.0
1,2.0854166666666667,2.7041666666666666,84.0,85.0
2,2.5854166666666667,2.95625,77.0,76.0
3,2.5854166666666667,3.225,60.0,64.0
4,2.0854166666666667,3.3020833333333335,53.0,76.0
5,3.0854166666666667,3.3249999999999997,77.0,89.0
6,3.0854166666666667,3.75,84.0,88.0
7,3.5854166666666667,3.84375,77.0,72.0
8,4.085416666666666,4.70625,84.0,85.0
9,4.585416666666666,5.164583333333333,76.0,78.0
10,5.085416666666666,5.616666666666666,67.0,71.0
11,4.085416666666666,5.645833333333333,60.0,79.0
12,5.085416666666666,5.6625,79.0,82.0
13,5.585416666666666,5.75625,76.0,84.0
14,5.085416666666666,5.877083333333333,84.0,88.0
15,6.085416666666666,6.36875,74.0,77.0
16,6.085416666666666,6.664583333333333,77.0,81.0
17,6.585416666666666,6.885416666666667,74.0,83.0
18,6.085416666666666,7.195833333333333,62.0,85.0
19,7.085416666666666,7.195833333333333,77.0,89.0
20,7.085416666666666,7.202083333333333,81.0,88.0
21,7.085416666666666,7.214583333333334,74.0,90.0
22,7.835416666666666,8.15,69.0,77.0
23,8.085416666666667,8.902083333333334,70.0,83.0
24,8.085416666666667,8.939583333333333,74.0,90.0
25,8.085416666666667,8.985416666666666,58.0,91.0
26,9.085416666666667,9.383333333333333,67.0,84.0
27,9.085416666666667,9.6625,72.0,83.0
28,9.085416666666667,9.675,60.0,90.0
29,9.085416666666667,9.69375,76.0,90.0
30,9.585416666666667,9.810416666666667,67.0,89.0
31,10.085416666666667,10.616666666666667,69.0,79.0
32,10.085416666666667,11.1,65.0,78.0
33,10.585416666666667,11.322916666666666,60.0,76.0
34,11.085416666666667,11.333333333333334,69.0,90.0
35,11.085416666666667,11.34375,72.0,90.0
36,10.085416666666667,11.495833333333334,53.0,87.0
37,11.585416666666667,11.654166666666667,65.0,78.0
38,11.085416666666667,11.735416666666666,77.0,89.0
39,12.085416666666667,12.333333333333334,76.0,80.0
40,12.085416666666667,12.810416666666667,77.0,76.0
41,12.085416666666667,12.90625,74.0,79.0
42,12.585416666666667,13.166666666666666,69.0,72.0
43,13.085416666666667,13.2625,74.0,86.0
44,12.085416666666667,13.30625,62.0,89.0
45,13.085416666666667,13.535416666666666,81.0,89.0
46,13.085416666666667,13.539583333333333,77.0,91.0
47,13.585416666666667,13.69375,74.0,82.0
48,14.085416666666667,14.820833333333333,77.0,79.0
49,14.085416666666667,14.88125,74.0,86.0
50,14.085416666666667,14.9125,70.0,78.0
51,15.085416666666667,15.331249999999999,70.0,81.0
52,14.585416666666667,15.422916666666666,65.0,72.0
53,15.085416666666667,15.43125,74.0,88.0
54,14.085416666666667,15.445833333333333,58.0,85.0
55,15.085416666666667,15.664583333333333,77.0,85.0
56,15.585416666666667,15.69375,70.0,82.0
57,16.085416666666667,16.18125,53.0,88.0
58,16.085416666666667,16.279166666666665,65.0,81.0
59,16.085416666666667,16.302083333333332,69.0,84.0
60,17.085416666666667,17.475,84.0,88.0
61,17.085416666666667,17.60625,77.0,83.0
62,16.585416666666667,17.702083333333334,65.0,59.0
63,18.085416666666667,18.85625,77.0,83.0
64,18.585416666666667,18.904166666666665,72.0,74.0
65,18.085416666666667,19.916666666666668,65.0,84.0
66,18.835416666666667,20.325,81.0,85.0
67,19.835416666666667,20.34583333333333,72.0,82.0
68,20.335416666666667,20.933333333333334,67.0,75.0
69,20.585416666666667,21.458333333333332,72.0,80.0
70,20.085416666666667,21.508333333333333,60.0,89.0
71,20.835416666666667,21.585416666666667,79.0,84.0
72,22.085416666666667,22.383333333333333,74.0,80.0
73,22.085416666666667,22.652083333333334,77.0,83.0
74,22.335416666666667,22.885416666666668,69.0,76.0
75,22.085416666666667,23.041666666666668,62.0,89.0
76,22.585416666666667,23.175,74.0,81.0
77,22.835416666666667,23.210416666666667,81.0,84.0
78,24.085416666666667,24.39375,69.0,79.0
79,24.085416666666667,24.641666666666666,72.0,82.0
80,24.335416666666667,24.90625,64.0,77.0
81,24.085416666666667,25.358333333333334,57.0,87.0
82,24.835416666666667,25.50208333333333,72.0,89.0
83,24.585416666666667,25.610416666666666,69.0,78.0
84,24.835416666666667,25.693749999999998,76.0,87.0
85,26.085416666666667,26.375,70.0,75.0
86,26.335416666666667,27.170833333333334,65.0,69.0
87,26.085416666666667,27.21875,58.0,83.0
88,26.585416666666667,27.3,70.0,80.0
89,26.085416666666667,27.327083333333334,74.0,84.0
90,26.835416666666667,27.510416666666668,77.0,83.0
91,28.085416666666667,28.3875,69.0,78.0
92,28.085416666666667,28.68958333333333,72.0,84.0
93,28.335416666666667,29.147916666666667,60.0,76.0
94,28.085416666666667,29.204166666666666,53.0,85.0
95,28.835416666666667,29.224999999999998,72.0,89.0
96,28.585416666666667,29.322916666666668,69.0,79.0
97,28.835416666666667,29.477083333333333,77.0,89.0
98,30.085416666666667,31.091666666666665,74.0,86.0
99,30.585416666666667,31.297916666666666,67.0,82.0
100,30.335416666666667,31.631249999999998,62.0,76.0
101,30.835416666666667,31.662499999999998,79.0,85.0
102,30.085416666666667,31.85625,55.0,89.0
103,32.08541666666667,32.38333333333333,67.0,80.0
104,32.08541666666667,32.68333333333333,72.0,85.0
105,32.58541666666667,33.56458333333333,67.0,83.0
106,32.33541666666667,33.58541666666667,64.0,77.0
107,32.08541666666667,33.59791666666666,60.0,82.0
108,32.83541666666667,33.614583333333336,74.0,86.0
109,33.58541666666667,33.708333333333336,72.0,84.0
110,34.08541666666667,34.74583333333333,65.0,79.0
111,34.08541666666667,34.87708333333333,69.0,82.0
112,34.58541666666667,35.375,60.0,79.0
113,34.83541666666667,35.38125,72.0,89.0
114,34.08541666666667,35.5,53.0,89.0
115,35.58541666666667,35.7875,65.0,90.0
116,35.33541666666667,35.99791666666667,77.0,90.0
117,36.08541666666667,36.77708333333333,67.0,81.0
118,36.08541666666667,36.916666666666664,72.0,84.0
119,36.83541666666667,37.34791666666666,76.0,90.0
120,36.58541666666667,37.49375,64.0,64.0
121,36.08541666666667,37.541666666666664,60.0,90.0
122,37.33541666666667,37.67916666666667,72.0,89.0
123,37.58541666666667,37.73125,67.0,79.0
124,38.08541666666667,38.864583333333336,69.0,82.0
125,38.08541666666667,38.87708333333333,74.0,88.0
126,38.83541666666667,39.52708333333333,77.0,89.0
127,38.58541666666667,39.58541666666667,65.0,51.0
128,38.08541666666667,39.697916666666664,62.0,85.0
129,39.58541666666667,39.81458333333333,69.0,74.0
130,39.33541666666667,40.03958333333333,74.0,83.0
131,40.08541666666667,40.87291666666667,72.0,82.0
132,40.08541666666667,40.895833333333336,69.0,77.0
133,40.58541666666667,41.0125,64.0,77.0
134,40.83541666666667,41.3625,76.0,89.0
135,40.08541666666667,41.50625,57.0,87.0
136,41.08541666666667,41.53958333333333,64.0,50.0
137,41.33541666666667,41.645833333333336,72.0,85.0
138,41.58541666666667,41.77708333333333,69.0,80.0
139,42.08541666666667,42.87916666666666,70.0,77.0
140,42.08541666666667,42.91875,74.0,83.0
141,42.58541666666667,43.25833333333333,65.0,71.0
142,43.08541666666667,43.53125,70.0,86.0
143,42.08541666666667,43.672916666666666,58.0,86.0
144,43.58541666666667,43.704166666666666,65.0,75.0
145,43.08541666666667,43.983333333333334,74.0,89.0
146,43.08541666666667,44.09791666666666,77.0,89.0
147,44.08541666666667,44.37291666666667,69.0,81.0
148,44.08541666666667,44.610416666666666,72.0,84.0
149,44.58541666666667,45.21875,69.0,80.0
150,44.33541666666667,45.33125,60.0,77.0
151,44.08541666666667,45.34791666666666,53.0,88.0
152,44.83541666666667,45.37916666666666,72.0,78.0
153,45.08541666666667,45.83125,77.0,89.0
154,46.08541666666667,46.6875,74.0,85.0
155,46.58541666666667,46.94166666666666,70.0,79.0
156,46.83541666666667,47.11875,74.0,84.0
157,46.33541666666667,47.65625,62.0,76.0
158,46.08541666666667,47.77291666666667,55.0,89.0
159,47.58541666666667,47.94166666666666,67.0,79.0
160,47.08541666666667,47.96041666666667,79.0,90.0
161,48.08541666666667,48.327083333333334,67.0,85.0
162,48.08541666666667,48.697916666666664,72.0,86.0
163,48.58541666666667,48.89375,67.0,83.0
164,48.83541666666667,49.36875,74.0,86.0
165,49.33541666666667,49.69166666666666,76.0,88.0
166,48.33541666666667,49.85625,64.0,79.0
167,48.08541666666667,49.885416666666664,60.0,86.0
168,49.58541666666667,50.010416666666664,74.0,84.0
169,49.83541666666667,50.0125,67.0,72.0
170,50.08541666666667,50.80625,67.0,89.0
171,50.08541666666667,50.84791666666666,72.0,88.0
172,50.58541666666667,51.389583333333334,64.0,78.0
173,51.08541666666667,51.391666666666666,67.0,90.0
174,50.08541666666667,51.62708333333333,60.0,89.0
175,51.08541666666667,51.645833333333336,76.0,89.0
176,51.08541666666667,51.71666666666667,72.0,90.0
177,51.58541666666667,51.975,67.0,84.0
178,52.08541666666667,53.454166666666666,67.0,89.0
179,52.08541666666667,53.47291666666666,72.0,88.0
180,52.08541666666667,53.635416666666664,60.0,91.0
181,54.08541666666667,54.46458333333333,72.0,81.0
182,54.08541666666667,54.65833333333333,77.0,85.0
183,54.08541666666667,54.675,81.0,85.0
184,54.58541666666667,54.96666666666667,72.0,91.0
185,54.83541666666667,54.99791666666667,77.0,83.0
186,54.33541666666667,55.24375,60.0,71.0
187,55.08541666666667,55.38125,72.0,91.0
188,54.08541666666667,55.525,53.0,89.0
189,55.08541666666667,55.66041666666666,77.0,90.0
190,55.08541666666667,55.66458333333333,81.0,90.0
191,55.58541666666667,55.795833333333334,72.0,83.0
192,56.08541666666667,56.364583333333336,72.0,82.0
193,56.08541666666667,56.53958333333333,76.0,85.0
194,56.33541666666667,56.94375,67.0,85.0
195,56.08541666666667,56.95625,60.0,91.0
196,56.58541666666667,56.958333333333336,72.0,89.0
197,56.83541666666667,57.00625,76.0,89.0
198,57.08541666666667,57.329166666666666,72.0,88.0
199,57.08541666666667,57.56666666666666,67.0,89.0
200,57.08541666666667,57.606249999999996,60.0,90.0
201,57.08541666666667,57.637499999999996,79.0,90.0
202,57.08541666666667,57.641666666666666,76.0,91.0
203,57.58541666666667,57.731249999999996,72.0,86.0
204,58.08541666666667,58.266666666666666,74.0,83.0
205,58.08541666666667,58.40416666666667,77.0,84.0
206,58.58541666666667,58.89375,77.0,90.0
207,58.33541666666667,58.90416666666667,74.0,86.0
208,58.83541666666667,58.985416666666666,81.0,81.0
209,58.33541666666667,59.329166666666666,57.0,78.0
210,59.08541666666667,59.33125,81.0,89.0
211,59.08541666666667,59.35208333333333,77.0,89.0
212,59.08541666666667,59.358333333333334,74.0,91.0
213,58.08541666666667,59.447916666666664,50.0,90.0
214,59.08541666666667,59.51875,86.0,96.0
215,59.58541666666667,59.71041666666667,74.0,89.0
216,60.08541666666667,60.322916666666664,69.0,80.0
217,60.08541666666667,60.45625,72.0,85.0
218,60.58541666666667,60.922916666666666,69.0,78.0
219,60.58541666666667,60.949999999999996,72.0,78.0
220,60.83541666666667,61.11875,76.0,89.0
221,60.33541666666667,61.514583333333334,64.0,83.0
222,60.08541666666667,61.60208333333333,57.0,89.0
223,61.08541666666667,61.610416666666666,81.0,91.0
224,61.33541666666667,61.63125,76.0,93.0
225,61.58541666666667,61.833333333333336,72.0,93.0
226,61.83541666666667,61.96666666666667,69.0,87.0
227,62.08541666666667,62.52291666666667,70.0,72.0
228,62.08541666666667,62.9125,74.0,81.0
229,62.83541666666667,62.97708333333333,70.0,73.0
230,62.58541666666667,63.177083333333336,65.0,83.0
231,62.08541666666667,63.33541666666667,58.0,87.0
232,63.08541666666667,63.34166666666667,70.0,89.0
233,63.33541666666667,63.53333333333333,65.0,82.0
234,63.08541666666667,63.58541666666667,74.0,90.0
235,63.08541666666667,63.86875,77.0,89.0
236,63.58541666666667,63.885416666666664,70.0,89.0
237,63.83541666666667,64.0125,74.0,82.0
238,64.08541666666666,64.275,69.0,81.0
239,64.08541666666666,64.60625,72.0,85.0
240,64.58541666666666,64.9375,69.0,91.0
241,64.83541666666666,64.97083333333333,72.0,89.0
242,64.33541666666666,65.28125,60.0,85.0
243,65.08541666666666,65.37916666666666,69.0,89.0
244,64.08541666666666,65.46666666666667,53.0,78.0
245,65.08541666666666,65.60625,72.0,94.0
246,65.08541666666666,65.87708333333333,77.0,89.0
247,65.58541666666666,65.89375,69.0,86.0
248,65.83541666666666,65.98125,74.0,78.0
249,66.08541666666666,66.1875,69.0,71.0
250,66.08541666666666,66.29166666666667,70.0,78.0
251,66.58541666666666,66.92083333333333,67.0,90.0
252,66.83541666666666,67.14375,74.0,86.0
253,67.08541666666666,67.16458333333333,67.0,82.0
254,66.33541666666666,67.39166666666667,62.0,85.0
255,66.08541666666666,67.47708333333333,55.0,89.0
256,67.08541666666666,67.63333333333333,79.0,93.0
257,67.33541666666666,67.64791666666666,74.0,90.0
258,67.58541666666666,67.83541666666666,70.0,86.0
259,67.83541666666666,67.91458333333333,67.0,85.0
260,68.08541666666666,68.35208333333333,72.0,85.0
261,68.08541666666666,68.57916666666667,76.0,92.0
262,68.58541666666666,68.87708333333333,72.0,85.0
263,68.83541666666666,69.0125,74.0,90.0
264,68.33541666666666,69.23958333333333,67.0,80.0
265,69.08541666666666,69.35625,76.0,100.0
266,68.08541666666666,69.55416666666666,60.0,91.0
267,69.33541666666666,69.61666666666666,72.0,94.0
268,69.58541666666666,69.67916666666666,67.0,90.0
269,69.83541666666666,70.00416666666666,72.0,90.0
270,70.08541666666666,70.27291666666666,72.0,86.0
271,70.08541666666666,70.5125,77.0,86.0
272,70.58541666666666,70.90833333333333,72.0,91.0
273,70.83541666666666,70.95,77.0,85.0
274,70.33541666666666,71.26458333333333,60.0,85.0
275,71.08541666666666,71.35416666666667,72.0,91.0
276,70.08541666666666,71.4375,53.0,89.0
277,71.08541666666666,71.61458333333333,77.0,94.0
278,71.08541666666666,71.675,81.0,90.0
279,71.58541666666666,71.7875,72.0,83.0
280,72.08541666666666,72.33333333333333,72.0,85.0
281,72.08541666666666,72.6,76.0,90.0
282,72.58541666666666,73.01666666666667,72.0,93.0
283,72.83541666666666,73.125,79.0,87.0
284,73.08541666666666,73.1375,72.0,77.0
285,72.33541666666666,73.40208333333334,67.0,79.0
286,72.08541666666666,73.5125,60.0,90.0
287,73.08541666666666,73.58958333333334,84.0,95.0
288,73.58541666666666,73.81666666666666,72.0,83.0
289,73.33541666666666,73.85833333333333,79.0,84.0
290,74.08541666666666,74.325,74.0,84.0
291,74.08541666666666,74.46041666666666,77.0,86.0
292,74.58541666666666,75.03333333333333,74.0,84.0
293,74.33541666666666,75.22708333333333,69.0,79.0
294,75.08541666666666,75.24166666666666,74.0,42.0
295,74.83541666666666,75.25,77.0,89.0
296,74.08541666666666,75.29583333333333,62.0,91.0
297,75.08541666666666,75.58541666666666,86.0,100.0
298,75.33541666666666,75.62291666666667,81.0,88.0
299,75.58541666666666,75.84166666666667,77.0,88.0
300,75.83541666666666,75.93333333333334,74.0,84.0
301,76.08541666666666,76.35,69.0,89.0
302,76.08541666666666,76.59583333333333,72.0,90.0
303,76.58541666666666,76.94791666666667,69.0,89.0
304,76.83541666666666,76.98125,72.0,83.0
305,76.08541666666666,77.00416666666666,57.0,84.0
306,76.33541666666666,77.01875,64.0,89.0
307,77.08541666666666,77.29583333333333,69.0,90.0
308,77.08541666666666,77.625,57.0,89.0
309,77.08541666666666,77.62916666666666,72.0,89.0
310,77.08541666666666,77.66041666666666,76.0,95.0
311,77.58541666666666,77.75208333333333,69.0,89.0
312,78.08541666666666,78.25833333333333,70.0,84.0
313,78.08541666666666,78.59166666666667,74.0,89.0
314,78.58541666666666,78.94166666666666,70.0,85.0
315,78.33541666666666,78.94583333333333,65.0,79.0
316,78.08541666666666,78.98541666666667,58.0,90.0
317,78.83541666666666,78.99791666666667,74.0,83.0
318,79.08541666666666,79.15208333333334,74.0,80.0
319,79.08541666666666,79.32291666666667,70.0,80.0
320,79.08541666666666,79.63125,65.0,89.0
321,79.08541666666666,79.93541666666667,77.0,90.0
322,79.58541666666666,79.94583333333333,74.0,84.0
323,79.83541666666666,79.96041666666666,70.0,78.0
324,80.08541666666666,80.28541666666666,69.0,78.0
325,80.08541666666666,80.56041666666667,72.0,83.0
326,80.58541666666666,80.93125,69.0,82.0
327,80.83541666666666,80.9875,72.0,89.0
328,81.08541666666666,81.375,69.0,90.0
329,81.08541666666666,81.39791666666666,72.0,98.0
330,80.08541666666666,81.64375,53.0,86.0
331,80.33541666666666,81.6875,60.0,77.0
332,81.08541666666666,81.69375,77.0,90.0
333,81.58541666666666,81.72916666666667,69.0,84.0
334,82.08541666666666,82.17916666666666,67.0,71.0
335,82.08541666666666,82.59791666666666,70.0,77.0
336,82.33541666666666,82.81041666666667,62.0,78.0
337,82.08541666666666,82.8375,55.0,89.0
338,82.58541666666666,82.925,67.0,89.0
339,82.08541666666666,82.94166666666666,74.0,85.0
340,82.83541666666666,82.96666666666667,70.0,65.0
341,83.08541666666666,83.24791666666667,67.0,89.0
342,83.08541666666666,83.40625,72.0,90.0
343,83.33541666666666,83.68541666666667,67.0,84.0
344,83.08541666666666,83.69166666666666,60.0,90.0
345,83.58541666666666,83.82916666666667,72.0,83.0
346,84.08541666666666,84.275,69.0,85.0
347,84.08541666666666,84.67708333333333,77.0,88.0
348,84.58541666666666,84.93333333333334,69.0,85.0
349,84.83541666666666,85.04375,72.0,84.0
350,85.33541666666666,85.58541666666666,72.0,90.0
351,84.33541666666666,85.68541666666667,60.0,82.0
352,85.08541666666666,85.69583333333333,77.0,92.0
353,84.08541666666666,85.93125,53.0,89.0
354,85.58541666666666,85.97083333333333,69.0,82.0
355,85.83541666666666,86.0144456,72.0,73.0
356,86.08469356666667,86.1879994,53.0,90.0
357,86.08469356666667,86.37188378333333,69.0,81.0
358,86.08469356666667,86.46692515000001,72.0,87.0
359,86.08469356666667,86.61775166666666,77.0,82.0
360,86.82849556666667,87.19213210000001,72.0,89.0
361,87.07642956666668,87.40494211666667,77.0,90.0
362,86.58056156666667,87.4152727,65.0,86.0
363,87.32436356666666,87.45039668333334,72.0,94.0
364,87.57229756666666,87.79130593333333,81.0,93.0
365,87.82023156666666,87.93386798333333,77.0,88.0
366,88.56403356666667,88.91940563333334,70.0,85.0
367,88.81196756666667,88.95659573333333,74.0,83.0
368,88.31609956666667,89.27302136666667,65.0,82.0
369,88.06816556666666,89.31052136666668,58.0,87.0
370,89.06052136666668,89.59385470000001,70.0,91.0
371,89.56052136666668,89.87927136666667,65.0,85.0
372,89.81052136666668,90.01260470000001,70.0,82.0
373,89.06052136666668,90.03552136666667,74.0,91.0
374,89.06052136666668,90.1126047,77.0,91.0
375,90.56052136666668,90.90843803333334,72.0,90.0
376,90.81052136666668,90.9251047,76.0,90.0
377,90.31052136666668,91.17302136666667,67.0,79.0
378,91.06052136666668,91.35218803333333,72.0,91.0
379,91.06052136666668,91.4251047,76.0,92.0
380,91.31052136666668,91.4563547,67.0,85.0
381,90.06052136666668,91.46052136666667,60.0,94.0
382,91.06052136666668,91.65635470000001,79.0,91.0
383,91.56052136666668,91.90427136666668,72.0,90.0
384,91.81052136666668,91.91468803333333,76.0,88.0
385,92.06052136666668,92.35427136666668,69.0,90.0
386,92.06052136666668,92.57093803333333,72.0,95.0
387,92.56052136666668,92.8938547,69.0,84.0
388,92.81052136666668,92.92927136666667,72.0,83.0
389,92.31052136666668,93.14177136666667,64.0,83.0
390,93.06052136666668,93.32302136666668,69.0,90.0
391,92.06052136666668,93.6126047,57.0,89.0
392,93.06052136666668,93.64177136666667,76.0,95.0
393,93.31052136666668,93.65010470000001,64.0,85.0
394,93.56052136666668,93.87718803333334,69.0,86.0
395,94.06052136666668,94.3501047,70.0,82.0
396,94.06052136666668,94.50843803333333,74.0,87.0
397,94.56052136666668,94.8938547,70.0,75.0
398,94.81052136666668,95.1001047,74.0,88.0
399,94.31052136666668,95.4251047,65.0,74.0
400,94.06052136666668,95.43760470000001,58.0,91.0
401,95.06052136666668,95.58552136666667,77.0,95.0
402,95.31052136666668,95.58760470000001,74.0,93.0
403,95.56052136666668,95.8626047,70.0,91.0
404,95.81052136666668,95.9251047,74.0,82.0
405,96.06052136666668,96.8938547,67.0,89.0
406,96.56052136666668,96.90427136666668,70.0,90.0
407,96.81052136666668,97.15010470000001,74.0,82.0
408,96.06052136666668,97.4563547,55.0,89.0
409,96.31052136666668,97.4563547,62.0,76.0
410,97.31052136666668,97.63552136666668,74.0,87.0
411,97.56052136666668,97.88343803333333,70.0,81.0
412,97.06052136666668,97.96260470000001,79.0,94.0
413,97.81052136666668,97.97718803333333,67.0,84.0
414,98.06052136666668,98.28135470000001,70.0,85.0
415,98.06052136666668,98.60218803333333,74.0,87.0
416,98.56052136666668,98.99802136666668,70.0,79.0
417,98.81052136666668,99.15010470000001,74.0,82.0
418,98.06052136666668,99.49385470000001,58.0,93.0
419,98.31052136666668,99.51260470000001,65.0,76.0
420,99.31052136666668,99.61885470000001,74.0,89.0
421,99.56052136666668,99.84802136666667,70.0,89.0
422,99.06052136666668,99.84802136666667,77.0,91.0
423,99.81052136666668,99.94593803333333,74.0,84.0
424,100.06052136666668,100.60218803333333,72.0,87.0
425,100.56052136666668,100.87302136666668,74.0,89.0
426,100.31052136666668,100.9751047,67.0,80.0
427,100.81052136666668,101.16677136666668,76.0,90.0
428,101.06052136666668,101.3938547,67.0,83.0
429,101.31052136666668,101.49177136666667,72.0,84.0
430,101.31052136666668,101.52510470000001,79.0,89.0
431,100.06052136666668,101.80218803333334,60.0,90.0
432,101.56052136666668,101.8501047,67.0,83.0
433,101.81052136666668,101.90427136666668,72.0,82.0
434,102.06052136666668,102.51468803333334,72.0,90.0
435,102.06052136666668,102.64177136666667,84.0,89.0
436,102.81052136666668,102.94593803333333,72.0,80.0
437,102.56052136666668,103.12093803333335,67.0,77.0
438,102.06052136666668,103.16468803333333,60.0,92.0
439,103.06052136666668,103.1938547,72.0,85.0
440,103.06052136666668,103.20010470000001,79.0,84.0
441,104.06052136666668,104.8313547,77.0,83.0
442,104.56052136666668,104.87927136666667,72.0,74.0
443,104.06052136666668,105.89177136666667,65.0,84.0
444,104.81052136666668,106.3001047,81.0,85.0
445,105.81052136666668,106.32093803333333,72.0,82.0
446,106.31052136666668,106.90843803333334,67.0,75.0
447,106.56052136666668,107.43343803333335,72.0,80.0
448,106.06052136666668,107.48343803333334,60.0,89.0
449,106.81052136666668,107.56052136666668,79.0,84.0
450,108.06052136666668,108.35843803333334,74.0,80.0
451,108.06052136666668,108.62718803333334,77.0,83.0
452,108.31052136666668,108.86052136666667,69.0,76.0
453,108.06052136666668,109.01677136666667,62.0,89.0
454,108.56052136666668,109.15010470000001,74.0,81.0
455,108.81052136666668,109.18552136666668,81.0,84.0
456,110.06052136666668,110.36885470000001,69.0,79.0
457,110.06052136666668,110.61677136666668,72.0,82.0
458,110.31052136666668,110.8813547,64.0,77.0
459,110.06052136666668,111.33343803333334,57.0,87.0
460,110.81052136666668,111.47718803333333,72.0,89.0
461,110.56052136666668,111.58552136666668,69.0,78.0
462,110.81052136666668,111.66885470000001,76.0,87.0
463,112.06052136666668,112.3501047,70.0,75.0
464,112.31052136666668,113.14593803333334,65.0,69.0
465,112.06052136666668,113.1938547,58.0,83.0
466,112.56052136666668,113.27510470000001,70.0,80.0
467,112.06052136666668,113.30218803333334,74.0,84.0
468,112.81052136666668,113.48552136666667,77.0,83.0
469,114.06052136666668,114.3626047,69.0,78.0
470,114.06052136666668,114.66468803333333,72.0,84.0
471,114.31052136666668,115.12302136666668,60.0,76.0
472,114.06052136666668,115.17927136666667,53.0,85.0
473,114.81052136666668,115.20010470000001,72.0,89.0
474,114.56052136666668,115.29802136666667,69.0,79.0
475,114.81052136666668,115.45218803333334,77.0,89.0
476,116.06052136666668,117.06677136666667,74.0,86.0
477,116.56052136666668,117.27302136666667,67.0,82.0
478,116.31052136666668,117.60635470000001,62.0,76.0
479,116.81052136666668,117.63760470000001,79.0,85.0
480,116.06052136666668,117.8313547,55.0,89.0
481,118.06052136666668,118.35843803333334,67.0,80.0
482,118.06052136666668,118.65843803333334,72.0,85.0
483,118.56052136666668,119.53968803333333,67.0,83.0
484,118.31052136666668,119.56052136666668,64.0,77.0
485,118.06052136666668,119.57302136666667,60.0,82.0
486,118.81052136666668,119.58968803333335,74.0,86.0
487,119.56052136666668,119.68343803333335,72.0,84.0
488,120.06052136666668,120.72093803333334,65.0,79.0
489,120.06052136666668,120.85218803333333,69.0,82.0
490,120.56052136666668,121.3501047,60.0,79.0
491,120.81052136666668,121.3563547,72.0,89.0
492,120.06052136666668,121.4751047,53.0,89.0
493,121.56052136666668,121.7626047,65.0,90.0
494,121.31052136666668,121.97302136666667,77.0,90.0
495,122.06052136666668,122.75218803333334,67.0,81.0
496,122.06052136666668,122.89177136666667,72.0,84.0
497,122.81052136666668,123.32302136666667,76.0,90.0
498,122.56052136666668,123.46885470000001,64.0,64.0
499,122.06052136666668,123.51677136666667,60.0,90.0
500,123.31052136666668,123.65427136666668,72.0,89.0
501,123.56052136666668,123.7063547,67.0,79.0
502,124.06052136666668,124.83968803333335,69.0,82.0
503,124.06052136666668,124.85218803333333,74.0,88.0
504,124.81052136666668,125.50218803333334,77.0,89.0
505,124.56052136666668,125.56052136666668,65.0,51.0
506,124.06052136666668,125.67302136666667,62.0,85.0
507,125.56052136666668,125.78968803333333,69.0,74.0
508,125.31052136666668,126.01468803333334,74.0,83.0
509,126.06052136666668,126.84802136666667,72.0,82.0
510,126.06052136666668,126.87093803333335,69.0,77.0
511,126.56052136666668,126.9876047,64.0,77.0
512,126.81052136666668,127.33760470000001,76.0,89.0
513,126.06052136666668,127.4813547,57.0,87.0
514,127.06052136666668,127.51468803333334,64.0,50.0
515,127.31052136666668,127.62093803333335,72.0,85.0
516,127.56052136666668,127.75218803333334,69.0,80.0
517,128.06052136666668,128.85427136666667,70.0,77.0
518,128.06052136666668,128.89385470000002,74.0,83.0
519,128.56052136666668,129.23343803333336,65.0,71.0
520,129.06052136666668,129.5063547,70.0,86.0
521,128.06052136666668,129.64802136666668,58.0,86.0
522,129.56052136666668,129.67927136666668,65.0,75.0
523,129.06052136666668,129.95843803333332,74.0,89.0
524,129.06052136666668,130.07302136666667,77.0,89.0
525,130.06052136666668,130.34802136666667,69.0,81.0
526,130.06052136666668,130.58552136666668,72.0,84.0
527,130.56052136666668,131.1938547,69.0,80.0
528,130.31052136666668,131.3063547,60.0,77.0
529,130.06052136666668,131.32302136666667,53.0,88.0
530,130.81052136666668,131.35427136666667,72.0,78.0
531,131.06052136666668,131.8063547,77.0,89.0
532,132.06052136666668,132.6626047,74.0,85.0
533,132.56052136666668,132.91677136666667,70.0,79.0
534,132.81052136666668,133.0938547,74.0,84.0
535,132.31052136666668,133.6313547,62.0,76.0
536,132.06052136666668,133.74802136666668,55.0,89.0
537,133.56052136666668,133.91677136666667,67.0,79.0
538,133.06052136666668,133.93552136666668,79.0,90.0
539,134.06052136666668,134.30218803333332,67.0,85.0
540,134.06052136666668,134.67302136666666,72.0,86.0
541,134.56052136666668,134.8688547,67.0,83.0
542,134.81052136666668,135.3438547,74.0,86.0
543,135.31052136666668,135.66677136666667,76.0,88.0
544,134.31052136666668,135.83135470000002,64.0,79.0
545,134.06052136666668,135.86052136666666,60.0,86.0
546,135.56052136666668,135.98552136666666,74.0,84.0
547,135.81052136666668,135.98760470000002,67.0,72.0
548,136.06052136666668,136.7813547,67.0,89.0
549,136.06052136666668,136.82302136666667,72.0,88.0
550,136.56052136666668,137.36468803333332,64.0,78.0
551,137.06052136666668,137.36677136666668,67.0,90.0
552,136.06052136666668,137.60218803333333,60.0,89.0
553,137.06052136666668,137.62093803333335,76.0,89.0
554,137.06052136666668,137.69177136666667,72.0,90.0
555,137.56052136666668,137.9501047,67.0,84.0
556,138.06052136666668,139.42927136666668,67.0,89.0
557,138.06052136666668,139.44802136666667,72.0,88.0
558,138.06052136666668,139.61052136666666,60.0,91.0
559,140.06052136666668,140.43968803333334,72.0,81.0
560,140.06052136666668,140.63343803333333,77.0,85.0
561,140.06052136666668,140.6501047,81.0,85.0
562,140.56052136666668,140.94177136666667,72.0,91.0
563,140.81052136666668,140.97302136666667,77.0,83.0
564,140.31052136666668,141.2188547,60.0,71.0
565,141.06052136666668,141.3563547,72.0,91.0
566,140.06052136666668,141.5001047,53.0,89.0
567,141.06052136666668,141.63552136666667,77.0,90.0
568,141.06052136666668,141.63968803333336,81.0,90.0
569,141.56052136666668,141.77093803333332,72.0,83.0
570,142.06052136666668,142.33968803333335,72.0,82.0
571,142.06052136666668,142.51468803333336,76.0,85.0
572,142.31052136666668,142.9188547,67.0,85.0
573,142.06052136666668,142.9313547,60.0,91.0
574,142.56052136666668,142.93343803333335,72.0,89.0
575,142.81052136666668,142.9813547,76.0,89.0
576,143.06052136666668,143.30427136666668,72.0,88.0
577,143.06052136666668,143.54177136666667,67.0,89.0
578,143.06052136666668,143.58135470000002,60.0,90.0
579,143.06052136666668,143.61260470000002,79.0,90.0
580,143.06052136666668,143.61677136666668,76.0,91.0
581,143.56052136666668,143.70635470000002,72.0,86.0
582,144.06052136666668,144.24177136666668,74.0,83.0
583,144.06052136666668,144.37927136666667,77.0,84.0
584,144.56052136666668,144.8688547,77.0,90.0
585,144.31052136666668,144.87927136666667,74.0,86.0
586,144.81052136666668,144.96052136666668,81.0,81.0
587,144.31052136666668,145.30427136666668,57.0,78.0
588,145.06052136666668,145.3063547,81.0,89.0
589,145.06052136666668,145.32718803333336,77.0,89.0
590,145.06052136666668,145.33343803333332,74.0,91.0
591,144.06052136666668,145.42302136666666,50.0,90.0
592,145.06052136666668,145.4938547,86.0,96.0
593,145.56052136666668,145.68552136666668,74.0,89.0
594,146.06052136666668,146.29802136666666,69.0,80.0
595,146.06052136666668,146.4313547,72.0,85.0
596,146.56052136666668,146.89802136666668,69.0,78.0
597,146.56052136666668,146.92510470000002,72.0,78.0
598,146.81052136666668,147.0938547,76.0,89.0
599,146.31052136666668,147.48968803333332,64.0,83.0
600,146.06052136666668,147.57718803333336,57.0,89.0
601,147.06052136666668,147.58552136666668,81.0,91.0
602,147.31052136666668,147.6063547,76.0,93.0
603,147.56052136666668,147.80843803333335,72.0,93.0
604,147.81052136666668,147.94177136666667,69.0,87.0
605,148.06052136666668,148.49802136666668,70.0,72.0
606,148.06052136666668,148.8876047,74.0,81.0
607,148.81052136666668,148.95218803333336,70.0,73.0
608,148.56052136666668,149.15218803333335,65.0,83.0
609,148.06052136666668,149.31052136666668,58.0,87.0
610,149.06052136666668,149.31677136666667,70.0,89.0
611,149.31052136666668,149.50843803333333,65.0,82.0
612,149.06052136666668,149.56052136666668,74.0,90.0
613,149.06052136666668,149.8438547,77.0,89.0
614,149.56052136666668,149.86052136666666,70.0,89.0
615,149.81052136666668,149.98760470000002,74.0,82.0
616,150.06052136666668,150.2501047,69.0,81.0
617,150.06052136666668,150.58135470000002,72.0,85.0
618,150.56052136666668,150.9126047,69.0,91.0
619,150.81052136666668,150.94593803333333,72.0,89.0
620,150.31052136666668,151.2563547,60.0,85.0
621,151.06052136666668,151.35427136666667,69.0,89.0
622,150.06052136666668,151.44177136666667,53.0,78.0
623,151.06052136666668,151.58135470000002,72.0,94.0
624,151.06052136666668,151.85218803333333,77.0,89.0
625,151.56052136666668,151.8688547,69.0,86.0
626,151.81052136666668,151.95635470000002,74.0,78.0
627,152.06052136666668,152.1626047,69.0,71.0
628,152.06052136666668,152.26677136666666,70.0,78.0
629,152.56052136666668,152.89593803333332,67.0,90.0
630,152.81052136666668,153.11885469999999,74.0,86.0
631,153.06052136666668,153.13968803333336,67.0,82.0
632,152.31052136666668,153.36677136666668,62.0,85.0
633,152.06052136666668,153.45218803333336,55.0,89.0
634,153.06052136666668,153.60843803333336,79.0,93.0
635,153.31052136666668,153.62302136666668,74.0,90.0
636,153.56052136666668,153.81052136666668,70.0,86.0
637,153.81052136666668,153.88968803333336,67.0,85.0
638,154.06052136666668,154.32718803333336,72.0,85.0
639,154.06052136666668,154.55427136666668,76.0,92.0
640,154.56052136666668,154.85218803333333,72.0,85.0
641,154.81052136666668,154.98760470000002,74.0,90.0
642,154.31052136666668,155.21468803333335,67.0,80.0
643,155.06052136666668,155.33135470000002,76.0,100.0
644,154.06052136666668,155.52927136666668,60.0,91.0
645,155.31052136666668,155.59177136666668,72.0,94.0
646,155.56052136666668,155.65427136666668,67.0,90.0
647,155.81052136666668,155.9792713666667,72.0,90.0
648,156.06052136666668,156.24802136666668,72.0,86.0
649,156.06052136666668,156.48760470000002,77.0,86.0
650,156.56052136666668,156.88343803333333,72.0,91.0
651,156.81052136666668,156.92510470000002,77.0,85.0
652,156.31052136666668,157.23968803333332,60.0,85.0
653,157.06052136666668,157.32927136666666,72.0,91.0
654,156.06052136666668,157.4126047,53.0,89.0
655,157.06052136666668,157.58968803333335,77.0,94.0
656,157.06052136666668,157.65010469999999,81.0,90.0
657,157.56052136666668,157.7626047,72.0,83.0
658,158.06052136666668,158.30843803333335,72.0,85.0
659,158.06052136666668,158.5751047,76.0,90.0
660,158.56052136666668,158.99177136666668,72.0,93.0
661,158.81052136666668,159.1001047,79.0,87.0
662,159.06052136666668,159.11260470000002,72.0,77.0
663,158.31052136666668,159.37718803333334,67.0,79.0
664,158.06052136666668,159.48760470000002,60.0,90.0
665,159.06052136666668,159.56468803333334,84.0,95.0
666,159.56052136666668,159.7917713666667,72.0,83.0
667,159.31052136666668,159.83343803333332,79.0,84.0
668,160.06052136666668,160.30010470000002,74.0,84.0
669,160.06052136666668,160.43552136666668,77.0,86.0
670,160.56052136666668,161.00843803333333,74.0,84.0
671,160.31052136666668,161.20218803333336,69.0,79.0
672,161.06052136666668,161.21677136666668,74.0,42.0
673,160.81052136666668,161.2251047,77.0,89.0
674,160.06052136666668,161.27093803333332,62.0,91.0
675,161.06052136666668,161.56052136666668,86.0,100.0
676,161.31052136666668,161.59802136666667,81.0,88.0
677,161.56052136666668,161.81677136666667,77.0,88.0
678,161.81052136666668,161.90843803333334,74.0,84.0
679,162.06052136666668,162.3251047,69.0,89.0
680,162.06052136666668,162.57093803333333,72.0,90.0
681,162.56052136666668,162.92302136666666,69.0,89.0
682,162.81052136666668,162.95635470000002,72.0,83.0
683,162.06052136666668,162.9792713666667,57.0,84.0
684,162.31052136666668,162.99385469999999,64.0,89.0
685,163.06052136666668,163.27093803333332,69.0,90.0
686,163.06052136666668,163.6001047,57.0,89.0
687,163.06052136666668,163.6042713666667,72.0,89.0
688,163.06052136666668,163.6355213666667,76.0,95.0
689,163.56052136666668,163.72718803333333,69.0,89.0
690,164.06052136666668,164.23343803333336,70.0,84.0
691,164.06052136666668,164.56677136666667,74.0,89.0
692,164.56052136666668,164.9167713666667,70.0,85.0
693,164.31052136666668,164.92093803333336,65.0,79.0
694,164.06052136666668,164.96052136666668,58.0,90.0
695,164.81052136666668,164.97302136666667,74.0,83.0
696,165.06052136666668,165.12718803333334,74.0,80.0
697,165.06052136666668,165.29802136666666,70.0,80.0
698,165.06052136666668,165.6063547,65.0,89.0
699,165.06052136666668,165.91052136666667,77.0,90.0
700,165.56052136666668,165.92093803333336,74.0,84.0
701,165.81052136666668,165.93552136666668,70.0,78.0
702,166.06052136666668,166.2605213666667,69.0,78.0
703,166.06052136666668,166.53552136666667,72.0,83.0
704,166.56052136666668,166.9063547,69.0,82.0
705,166.81052136666668,166.96260469999999,72.0,89.0
706,167.06052136666668,167.3501047,69.0,90.0
707,167.06052136666668,167.37302136666668,72.0,98.0
708,166.06052136666668,167.61885469999999,53.0,86.0
709,166.31052136666668,167.6626047,60.0,77.0
710,167.06052136666668,167.6688547,77.0,90.0
711,167.56052136666668,167.70427136666666,69.0,84.0
712,168.06052136666668,168.15427136666668,67.0,71.0
713,168.06052136666668,168.5730213666667,70.0,77.0
714,168.31052136666668,168.78552136666667,62.0,78.0
715,168.06052136666668,168.8126047,55.0,89.0
716,168.56052136666668,168.90010469999999,67.0,89.0
717,168.06052136666668,168.9167713666667,74.0,85.0
718,168.81052136666668,168.94177136666667,70.0,65.0
719,169.06052136666668,169.22302136666667,67.0,89.0
720,169.06052136666668,169.3813547,72.0,90.0
721,169.31052136666668,169.66052136666667,67.0,84.0
722,169.06052136666668,169.6667713666667,60.0,90.0
723,169.56052136666668,169.80427136666668,72.0,83.0
724,170.06052136666668,170.2501047,69.0,85.0
725,170.06052136666668,170.65218803333335,77.0,88.0
726,170.56052136666668,170.90843803333334,69.0,85.0
727,170.81052136666668,171.01885470000002,72.0,84.0
728,171.31052136666668,171.56052136666668,72.0,90.0
729,170.31052136666668,171.66052136666667,60.0,82.0
730,171.06052136666668,171.67093803333336,77.0,92.0
731,170.06052136666668,171.9063547,53.0,89.0
732,171.56052136666668,171.94593803333333,69.0,82.0
733,171.81052136666668,171.98968803333332,72.0,73.0
734,172.06052136666668,172.16468803333333,53.0,90.0
735,172.06052136666668,172.3501047,69.0,81.0
736,172.06052136666668,172.44593803333333,72.0,87.0
737,172.06052136666668,172.59802136666667,77.0,82.0
738,172.81052136666668,173.17718803333332,72.0,89.0
739,173.06052136666668,173.39177136666666,77.0,90.0
740,172.56052136666668,173.40218803333335,65.0,86.0
741,173.31052136666668,173.4376047,72.0,94.0
742,173.56052136666668,173.7813547,81.0,93.0
743,173.81052136666668,173.92510470000002,77.0,88.0
744,174.56052136666668,174.9188547,70.0,85.0
745,174.81052136666668,174.95635470000002,74.0,83.0
746,174.31052136666668,175.27302136666668,65.0,82.0
747,174.06052136666668,175.31052136666668,58.0,87.0
748,175.06052136666668,175.5938547,70.0,91.0
749,175.56052136666668,175.87927136666667,65.0,85.0
750,175.81052136666668,176.0126047,70.0,82.0
751,175.06052136666668,176.03552136666667,74.0,91.0
752,175.06052136666668,176.11260470000002,77.0,91.0
753,176.56052136666668,176.90843803333334,72.0,90.0
754,176.81052136666668,176.92510470000002,76.0,90.0
755,176.31052136666668,177.17302136666666,67.0,79.0
756,177.06052136666668,177.35218803333333,72.0,91.0
757,177.06052136666668,177.42510470000002,76.0,92.0
758,177.31052136666668,177.45635470000002,67.0,85.0
759,176.06052136666668,177.46052136666668,60.0,94.0
760,177.06052136666668,177.6563547,79.0,91.0
761,177.56052136666668,177.90427136666668,72.0,90.0
762,177.81052136666668,177.91468803333333,76.0,88.0
763,178.06052136666668,178.3542713666667,69.0,90.0
764,178.06052136666668,178.57093803333333,72.0,95.0
765,178.56052136666668,178.89385470000002,69.0,84.0
766,178.81052136666668,178.92927136666668,72.0,83.0
767,178.31052136666668,179.14177136666666,64.0,83.0
768,179.06052136666668,179.3230213666667,69.0,90.0
769,178.06052136666668,179.61260470000002,57.0,89.0
770,179.06052136666668,179.64177136666666,76.0,95.0
771,179.31052136666668,179.65010469999999,64.0,85.0
772,179.56052136666668,179.87718803333334,69.0,86.0
773,180.06052136666668,180.3501047,70.0,82.0
774,180.06052136666668,180.50843803333333,74.0,87.0
775,180.56052136666668,180.89385470000002,70.0,75.0
776,180.81052136666668,181.1001047,74.0,88.0
777,180.31052136666668,181.42510470000002,65.0,74.0
778,180.06052136666668,181.4376047,58.0,91.0
779,181.06052136666668,181.58552136666668,77.0,95.0
780,181.31052136666668,181.58760469999999,74.0,93.0
781,181.56052136666668,181.86260470000002,70.0,91.0
782,181.81052136666668,181.92510470000002,74.0,82.0
783,182.06052136666668,182.89385470000002,67.0,89.0
784,182.56052136666668,182.90427136666668,70.0,90.0
785,182.81052136666668,183.15010469999999,74.0,82.0
786,182.06052136666668,183.45635470000002,55.0,89.0
787,182.31052136666668,183.45635470000002,62.0,76.0
788,183.31052136666668,183.6355213666667,74.0,87.0
789,183.56052136666668,183.88343803333333,70.0,81.0
790,183.06052136666668,183.96260469999999,79.0,94.0
791,183.81052136666668,183.97718803333333,67.0,84.0
792,184.06052136666668,184.37302136666668,72.0,84.0
793,184.06052136666668,184.4063547,76.0,90.0
794,184.56052136666668,185.01468803333336,72.0,93.0
795,184.81052136666668,185.08760469999999,79.0,84.0
796,185.06052136666668,185.12302136666668,72.0,78.0
797,184.31052136666668,185.35218803333333,67.0,80.0
798,185.06052136666668,185.3813547,84.0,96.0
799,184.06052136666668,185.42510470000002,60.0,91.0
800,185.31052136666668,185.61052136666666,79.0,88.0
801,185.56052136666668,185.80010470000002,76.0,90.0
802,185.81052136666668,185.9188547,72.0,90.0
803,186.06052136666668,186.30635469999999,70.0,89.0
804,186.06052136666668,186.5938547,74.0,89.0
805,186.56052136666668,186.89385470000002,70.0,90.0
806,186.81052136666668,187.07093803333333,74.0,85.0
807,186.06052136666668,187.36260470000002,58.0,85.0
808,186.31052136666668,187.3876047,65.0,85.0
809,187.31052136666668,187.60843803333336,74.0,91.0
810,187.06052136666668,187.61885469999999,77.0,95.0
811,187.56052136666668,187.84802136666667,70.0,90.0
812,187.81052136666668,187.95635470000002,74.0,80.0
813,188.06052136666668,188.4063547,72.0,88.0
814,188.06052136666668,188.5626047,76.0,94.0
815,188.81052136666668,189.1063547,79.0,86.0
816,188.56052136666668,189.19177136666667,72.0,86.0
817,189.06052136666668,189.43135469999999,84.0,98.0
818,189.31052136666668,189.65218803333335,79.0,88.0
819,189.56052136666668,189.90427136666668,76.0,89.0
820,188.06052136666668,189.9126047,60.0,89.0
821,188.31052136666668,189.92510470000002,67.0,84.0
822,189.81052136666668,189.97718803333333,72.0,87.0
823,190.06052136666668,190.3230213666667,72.0,90.0
824,190.06052136666668,190.4792713666667,76.0,91.0
825,190.31052136666668,190.90010469999999,67.0,84.0
826,190.56052136666668,191.23552136666666,72.0,86.0
827,190.81052136666668,191.28343803333334,79.0,89.0
828,191.31052136666668,191.35218803333333,79.0,71.0
829,191.31052136666668,191.38343803333333,72.0,80.0
830,191.06052136666668,191.45635470000002,67.0,85.0
831,191.31052136666668,191.71052136666668,76.0,92.0
832,191.56052136666668,191.91468803333333,67.0,82.0
833,190.06052136666668,191.93135469999999,60.0,94.0
834,191.81052136666668,191.97718803333333,72.0,84.0
835,192.06052136666668,192.39385470000002,60.0,100.0
836,192.06052136666668,192.41468803333333,84.0,89.0
837,192.06052136666668,192.42718803333332,76.0,93.0
838,192.06052136666668,192.43135469999999,79.0,88.0
839,192.06052136666668,192.43968803333334,72.0,86.0
840,192.56052136666668,192.96052136666668,76.0,91.0
841,192.56052136666668,192.97718803333333,72.0,86.0
842,192.56052136666668,192.98343803333336,79.0,87.0
843,193.06052136666668,193.36260470000002,72.0,87.0
844,193.06052136666668,193.4063547,84.0,90.0
845,193.06052136666668,193.41677136666667,76.0,96.0
846,193.06052136666668,193.42302136666666,79.0,91.0
847,193.06052136666668,193.6938547,60.0,94.0
848,193.06052136666668,193.70218803333336,67.0,90.0
849,193.56052136666668,193.90427136666668,72.0,84.0
850,193.56052136666668,193.90427136666668,76.0,89.0
851,193.56052136666668,193.91052136666667,79.0,84.0
852,194.06052136666668,194.43968803333334,72.0,81.0
853,194.06052136666668,194.63343803333333,77.0,85.0
854,194.06052136666668,194.65010469999999,81.0,85.0
855,194.56052136666668,194.94177136666667,72.0,91.0
856,194.81052136666668,194.97302136666667,77.0,83.0
857,194.31052136666668,195.2188547,60.0,71.0
858,195.06052136666668,195.3563547,72.0,91.0
859,194.06052136666668,195.5001047,53.0,89.0
860,195.06052136666668,195.63552136666667,77.0,90.0
861,195.06052136666668,195.63968803333336,81.0,90.0
862,195.56052136666668,195.77093803333332,72.0,83.0
863,196.06052136666668,196.33968803333335,72.0,82.0
864,196.06052136666668,196.51468803333336,76.0,85.0
865,196.31052136666668,196.9188547,67.0,85.0
866,196.06052136666668,196.93135469999999,60.0,91.0
867,196.56052136666668,196.93343803333335,72.0,89.0
868,196.81052136666668,196.9813547,76.0,89.0
869,197.06052136666668,197.30427136666668,72.0,88.0
870,197.06052136666668,197.54177136666667,67.0,89.0
871,197.06052136666668,197.58135470000002,60.0,90.0
872,197.06052136666668,197.61260470000002,79.0,90.0
873,197.06052136666668,197.61677136666668,76.0,91.0
874,197.56052136666668,197.70635470000002,72.0,86.0
875,198.06052136666668,198.24177136666668,74.0,83.0
876,198.06052136666668,198.37927136666667,77.0,84.0
877,198.56052136666668,198.86885469999999,77.0,90.0
878,198.31052136666668,198.87927136666667,74.0,86.0
879,198.81052136666668,198.96052136666668,81.0,81.0
880,198.31052136666668,199.30427136666668,57.0,78.0
881,199.06052136666668,199.30635469999999,81.0,89.0
882,199.06052136666668,199.32718803333336,77.0,89.0
883,199.06052136666668,199.33343803333332,74.0,91.0
884,198.06052136666668,199.42302136666666,50.0,90.0
885,199.06052136666668,199.49385469999999,86.0,96.0
886,199.56052136666668,199.68552136666668,74.0,89.0
887,200.06052136666668,200.29802136666666,69.0,80.0
888,200.06052136666668,200.43135469999999,72.0,85.0
889,200.56052136666668,200.89802136666668,69.0,78.0
890,200.56052136666668,200.92510470000002,72.0,78.0
891,200.81052136666668,201.0938547,76.0,89.0
892,200.31052136666668,201.48968803333332,64.0,83.0
893,200.06052136666668,201.57718803333336,57.0,89.0
894,201.06052136666668,201.58552136666668,81.0,91.0
895,201.31052136666668,201.6063547,76.0,93.0
896,201.56052136666668,201.80843803333335,72.0,93.0
897,201.81052136666668,201.94177136666667,69.0,87.0
898,202.06052136666668,202.49802136666668,70.0,72.0
899,202.06052136666668,202.8876047,74.0,81.0
900,202.81052136666668,202.95218803333336,70.0,73.0
901,202.56052136666668,203.15218803333335,65.0,83.0
902,202.06052136666668,203.31052136666668,58.0,87.0
903,203.06052136666668,203.31677136666667,70.0,89.0
904,203.31052136666668,203.50843803333333,65.0,82.0
905,203.06052136666668,203.56052136666668,74.0,90.0
906,203.06052136666668,203.8438547,77.0,89.0
907,203.56052136666668,203.86052136666666,70.0,89.0
908,203.81052136666668,203.98760470000002,74.0,82.0
909,204.06052136666668,204.2501047,69.0,81.0
910,204.06052136666668,204.58135470000002,72.0,85.0
911,204.56052136666668,204.9126047,69.0,91.0
912,204.81052136666668,204.94593803333333,72.0,89.0
913,204.31052136666668,205.2563547,60.0,85.0
914,205.06052136666668,205.35427136666667,69.0,89.0
915,204.06052136666668,205.44177136666667,53.0,78.0
916,205.06052136666668,205.58135470000002,72.0,94.0
917,205.06052136666668,205.85218803333333,77.0,89.0
918,205.56052136666668,205.86885469999999,69.0,86.0
919,205.81052136666668,205.95635470000002,74.0,78.0
920,206.06052136666668,206.1626047,69.0,71.0
921,206.06052136666668,206.26677136666666,70.0,78.0
922,206.56052136666668,206.89593803333332,67.0,90.0
923,206.81052136666668,207.11885469999999,74.0,86.0
924,207.06052136666668,207.13968803333336,67.0,82.0
925,206.31052136666668,207.36677136666668,62.0,85.0
926,206.06052136666668,207.45218803333336,55.0,89.0
927,207.06052136666668,207.60843803333336,79.0,93.0
928,207.31052136666668,207.62302136666668,74.0,90.0
929,207.56052136666668,207.81052136666668,70.0,86.0
930,207.81052136666668,207.88968803333336,67.0,85.0
931,208.06052136666668,208.32718803333336,72.0,85.0
932,208.06052136666668,208.55427136666668,76.0,92.0
933,208.56052136666668,208.85218803333333,72.0,85.0
934,208.81052136666668,208.98760470000002,74.0,90.0
935,208.31052136666668,209.21468803333335,67.0,80.0
936,209.06052136666668,209.33135470000002,76.0,100.0
937,208.06052136666668,209.52927136666668,60.0,91.0
938,209.31052136666668,209.59177136666668,72.0,94.0
939,209.56052136666668,209.65427136666668,67.0,90.0
940,209.81052136666668,209.97927136666667,72.0,90.0
941,210.06052136666668,210.24802136666668,72.0,86.0
942,210.06052136666668,210.48760470000002,77.0,86.0
943,210.56052136666668,210.88343803333333,72.0,91.0
944,210.81052136666668,210.92510470000002,77.0,85.0
945,210.31052136666668,211.23968803333332,60.0,85.0
946,211.06052136666668,211.32927136666666,72.0,91.0
947,210.06052136666668,211.4126047,53.0,89.0
948,211.06052136666668,211.58968803333335,77.0,94.0
949,211.06052136666668,211.65010469999999,81.0,90.0
950,211.56052136666668,211.7626047,72.0,83.0
951,212.06052136666668,212.30843803333335,72.0,85.0
952,212.06052136666668,212.5751047,76.0,90.0
953,212.56052136666668,212.99177136666668,72.0,93.0
954,212.81052136666668,213.1001047,79.0,87.0
955,213.06052136666668,213.11260470000002,72.0,77.0
956,212.31052136666668,213.37718803333334,67.0,79.0
957,212.06052136666668,213.48760470000002,60.0,90.0
958,213.06052136666668,213.56468803333334,84.0,95.0
959,213.56052136666668,213.79177136666667,72.0,83.0
960,213.31052136666668,213.83343803333332,79.0,84.0
961,214.06052136666668,214.30010470000002,74.0,84.0
962,214.06052136666668,214.43552136666668,77.0,86.0
963,214.56052136666668,215.00843803333333,74.0,84.0
964,214.31052136666668,215.20218803333336,69.0,79.0
965,215.06052136666668,215.21677136666668,74.0,42.0
966,214.81052136666668,215.2251047,77.0,89.0
967,214.06052136666668,215.27093803333332,62.0,91.0
968,215.06052136666668,215.56052136666668,86.0,100.0
969,215.31052136666668,215.59802136666667,81.0,88.0
970,215.56052136666668,215.81677136666667,77.0,88.0
971,215.81052136666668,215.90843803333334,74.0,84.0
972,216.06052136666668,216.3251047,69.0,89.0
973,216.06052136666668,216.57093803333333,72.0,90.0
974,216.56052136666668,216.92302136666666,69.0,89.0
975,216.81052136666668,216.95635470000002,72.0,83.0
976,216.06052136666668,216.97927136666667,57.0,84.0
977,216.31052136666668,216.99385469999999,64.0,89.0
978,217.06052136666665,217.27093803333332,69.0,90.0
979,217.06052136666665,217.60010470000003,57.0,89.0
980,217.06052136666665,217.6042713666667,72.0,89.0
981,217.06052136666665,217.6355213666667,76.0,95.0
982,217.56052136666665,217.72718803333333,69.0,89.0
983,218.06052136666665,218.23343803333336,70.0,84.0
984,218.06052136666665,218.56677136666667,74.0,89.0
985,218.56052136666665,218.9167713666667,70.0,85.0
986,218.31052136666665,218.92093803333336,65.0,79.0
987,218.06052136666665,218.96052136666668,58.0,90.0
988,218.81052136666665,218.97302136666667,74.0,83.0
989,219.06052136666665,219.1271880333333,74.0,80.0
990,219.06052136666665,219.29802136666666,70.0,80.0
991,219.06052136666665,219.6063547,65.0,89.0
992,219.06052136666665,219.91052136666667,77.0,90.0
993,219.56052136666665,219.92093803333336,74.0,84.0
994,219.81052136666665,219.93552136666665,70.0,78.0
995,220.06052136666665,220.2605213666667,69.0,78.0
996,220.06052136666665,220.53552136666667,72.0,83.0
997,220.56052136666665,220.9063547,69.0,82.0
998,220.81052136666665,220.96260469999999,72.0,89.0
999,221.06052136666665,221.35010470000003,69.0,90.0
1000,221.06052136666665,221.37302136666665,72.0,98.0
1001,220.06052136666665,221.61885469999999,53.0,86.0
1002,220.31052136666665,221.66260470000003,60.0,77.0
1003,221.06052136666665,221.6688547,77.0,90.0
1004,221.56052136666665,221.70427136666666,69.0,84.0
1005,222.06052136666665,222.15427136666665,67.0,71.0
1006,222.06052136666665,222.5730213666667,70.0,77.0
1007,222.31052136666665,222.78552136666667,62.0,78.0
1008,222.06052136666665,222.8126047,55.0,89.0
1009,222.56052136666665,222.90010469999999,67.0,89.0
1010,222.06052136666665,222.9167713666667,74.0,85.0
1011,222.81052136666665,222.94177136666667,70.0,65.0
1012,223.06052136666665,223.22302136666667,67.0,89.0
1013,223.06052136666665,223.38135470000003,72.0,90.0
1014,223.31052136666665,223.66052136666667,67.0,84.0
1015,223.06052136666665,223.6667713666667,60.0,90.0
1016,223.56052136666665,223.80427136666668,72.0,83.0
1017,224.06052136666665,224.2501047,69.0,85.0
1018,224.06052136666665,224.65218803333335,77.0,88.0
1019,224.56052136666665,224.9084380333333,69.0,85.0
1020,224.81052136666665,225.01885470000002,72.0,84.0
1021,225.31052136666665,225.56052136666665,72.0,90.0
1022,224.31052136666665,225.66052136666667,60.0,82.0
1023,225.06052136666665,225.67093803333336,77.0,92.0
1024,224.06052136666665,225.9063547,53.0,89.0
1025,225.56052136666665,225.94593803333333,69.0,82.0
1026,225.81052136666665,225.98968803333332,72.0,73.0
1027,226.06052136666665,226.16468803333333,53.0,90.0
1028,226.06052136666665,226.35010470000003,69.0,81.0
1029,226.06052136666665,226.44593803333333,72.0,87.0
1030,226.06052136666665,226.59802136666667,77.0,82.0
1031,226.81052136666665,227.17718803333332,72.0,89.0
1032,227.06052136666665,227.39177136666666,77.0,90.0
1033,226.56052136666665,227.40218803333335,65.0,86.0
1034,227.31052136666665,227.4376047,72.0,94.0
1035,227.56052136666665,227.7813547,81.0,93.0
1036,227.81052136666665,227.92510470000002,77.0,88.0
1037,228.56052136666665,228.9188547,70.0,85.0
1038,228.81052136666665,228.95635470000002,74.0,83.0
1039,228.31052136666665,229.27302136666668,65.0,82.0
1040,228.06052136666665,229.31052136666665,58.0,87.0
1041,229.06052136666665,229.5938547,70.0,91.0
1042,229.56052136666665,229.87927136666667,65.0,85.0
1043,229.81052136666665,230.0126047,70.0,82.0
1044,229.06052136666665,230.03552136666667,74.0,91.0
1045,229.06052136666665,230.11260470000002,77.0,91.0
1046,230.56052136666665,230.9084380333333,72.0,90.0
1047,230.81052136666665,230.92510470000002,76.0,90.0
1048,230.31052136666665,231.17302136666666,67.0,79.0
1049,231.06052136666665,231.35218803333333,72.0,91.0
1050,231.06052136666665,231.42510470000002,76.0,92.0
1051,231.31052136666665,231.45635470000002,67.0,85.0
1052,230.06052136666665,231.46052136666668,60.0,94.0
1053,231.06052136666665,231.6563547,79.0,91.0
1054,231.56052136666665,231.90427136666665,72.0,90.0
1055,231.81052136666665,231.91468803333333,76.0,88.0
1056,232.06052136666665,232.3542713666667,69.0,90.0
1057,232.06052136666665,232.57093803333333,72.0,95.0
1058,232.56052136666665,232.89385470000002,69.0,84.0
1059,232.81052136666665,232.92927136666668,72.0,83.0
1060,232.31052136666665,233.14177136666666,64.0,83.0
1061,233.06052136666665,233.3230213666667,69.0,90.0
1062,232.06052136666665,233.61260470000002,57.0,89.0
1063,233.06052136666665,233.64177136666666,76.0,95.0
1064,233.31052136666665,233.65010469999999,64.0,85.0
1065,233.56052136666665,233.8771880333333,69.0,86.0
1066,234.06052136666665,234.35010470000003,70.0,82.0
1067,234.06052136666665,234.50843803333333,74.0,87.0
1068,234.56052136666665,234.89385470000002,70.0,75.0
1069,234.81052136666665,235.10010470000003,74.0,88.0
1070,234.31052136666665,235.42510470000002,65.0,74.0
1071,234.06052136666665,235.4376047,58.0,91.0
1072,235.06052136666665,235.58552136666668,77.0,95.0
1073,235.31052136666665,235.58760469999999,74.0,93.0
1074,235.56052136666665,235.86260470000002,70.0,91.0
1075,235.81052136666665,235.92510470000002,74.0,82.0
1076,236.06052136666665,236.89385470000002,67.0,89.0
1077,236.56052136666665,236.90427136666665,70.0,90.0
1078,236.81052136666665,237.15010469999999,74.0,82.0
1079,236.06052136666665,237.45635470000002,55.0,89.0
1080,236.31052136666665,237.45635470000002,62.0,76.0
1081,237.31052136666665,237.6355213666667,74.0,87.0
1082,237.56052136666665,237.88343803333333,70.0,81.0
1083,237.06052136666665,237.96260469999999,79.0,94.0
1084,237.81052136666665,237.97718803333333,67.0,84.0
1085,238.06052136666665,238.2813547,70.0,85.0
1086,238.06052136666665,238.60218803333333,74.0,87.0
1087,238.56052136666665,238.99802136666665,70.0,79.0
1088,238.81052136666665,239.15010469999999,74.0,82.0
1089,238.06052136666665,239.49385469999999,58.0,93.0
1090,238.31052136666665,239.5126047,65.0,76.0
1091,239.31052136666665,239.61885469999999,74.0,89.0
1092,239.56052136666665,239.84802136666667,70.0,89.0
1093,239.06052136666665,239.84802136666667,77.0,91.0
1094,239.81052136666665,239.94593803333333,74.0,84.0
1095,240.06052136666665,240.60218803333333,72.0,87.0
1096,240.56052136666665,240.87302136666665,74.0,89.0
1097,240.31052136666665,240.97510470000003,67.0,80.0
1098,240.81052136666665,241.1667713666667,76.0,90.0
1099,241.06052136666665,241.39385470000002,67.0,83.0
1100,241.31052136666665,241.49177136666668,72.0,84.0
1101,241.31052136666665,241.52510469999999,79.0,89.0
1102,240.06052136666665,241.80218803333332,60.0,90.0
1103,241.56052136666665,241.85010470000003,67.0,83.0
1104,241.81052136666665,241.90427136666665,72.0,82.0
1105,242.06052136666665,242.51468803333336,72.0,90.0
1106,242.06052136666665,242.64177136666666,84.0,89.0
1107,242.81052136666665,242.94593803333333,72.0,80.0
1108,242.56052136666665,243.12093803333335,67.0,77.0
1109,242.06052136666665,243.16468803333333,60.0,92.0
1110,243.06052136666665,243.19385470000003,72.0,85.0
1111,243.06052136666665,243.2001047,79.0,84.0
1112,244.00427136666667,244.1063547,53.0,89.0
1113,243.90010469999999,244.3876047,77.0,72.0
1114,244.0751047,244.55010470000002,89.0,82.0
1115,244.94593803333333,245.46260469999999,77.0,78.0
1116,245.34177136666665,245.80218803333332,79.0,81.0
1117,245.77093803333332,246.10010470000003,81.0,78.0
1118,244.36052136666666,246.29802136666666,65.0,85.0
1119,244.64802136666668,246.30010470000002,72.0,78.0
1120,246.7292713666667,247.55635469999999,72.0,71.0
1121,246.57927136666666,247.55843803333335,65.0,60.0
1122,246.80010470000002,247.57927136666666,81.0,77.0
1123,246.87302136666665,247.59802136666667,84.0,80.0
1124,246.75635470000003,247.6042713666667,77.0,64.0
