,start,end,pitch,velocity
0,15.75,16.028125,55.0,92.0
1,16.125,16.376562500000002,62.0,108.0
2,16.5,16.746875,62.0,92.0
3,16.875,17.153125,60.0,94.0
4,17.25,18.3875,62.0,97.0
5,18.75,19.021875,60.0,97.0
6,19.125,19.360937500000002,62.0,108.0
7,19.5,19.751562500000002,60.0,100.0
8,19.875,20.3828125,58.0,105.0
9,20.625,21.4203125,55.0,94.0
10,21.75,22.1515625,67.0,108.0
11,22.3125,22.4015625,67.0,92.0
12,22.5,22.76875,67.0,100.0
13,22.875,23.103125000000002,65.0,100.0
14,23.25,23.704687500000002,67.0,111.0
15,23.8125,23.907812500000002,65.0,92.0
16,24.0,24.314062500000002,65.0,102.0
17,24.375,24.6359375,60.0,105.0
18,24.75,26.5578125,62.0,105.0
19,27.75,28.028125000000003,55.0,108.0
20,28.125,28.334375,55.0,89.0
21,28.5,28.762500000000003,55.0,102.0
22,28.875,29.496875000000003,62.0,108.0
23,29.625,30.33125,60.0,105.0
24,30.75,31.004687500000003,62.0,105.0
25,31.125,31.3578125,65.0,105.0
26,31.5,31.739062500000003,60.0,105.0
27,31.875,32.425000000000004,62.0,100.0
28,32.625,33.265625,55.0,94.0
29,33.75,33.9828125,55.0,94.0
30,34.125,34.354687500000004,55.0,94.0
31,34.5,34.729687500000004,55.0,102.0
32,34.875,35.11875,62.0,100.0
33,35.25,35.7234375,60.0,100.0
34,35.8125,36.2015625,62.0,94.0
35,36.375,36.9765625,57.0,100.0
36,37.125,39.135937500000004,55.0,92.0
37,39.75,40.028125,55.0,92.0
38,40.125,40.376562500000006,62.0,108.0
39,40.5,40.746875,62.0,92.0
40,40.875,41.153125,60.0,94.0
41,41.25,42.3875,62.0,97.0
42,42.75,43.021875,60.0,97.0
43,43.125,43.360937500000006,62.0,108.0
44,43.5,43.751562500000006,60.0,100.0
45,43.875,44.3828125,58.0,105.0
46,44.625,45.4203125,55.0,94.0
47,45.75,46.151562500000004,67.0,108.0
48,46.3125,46.401562500000004,67.0,92.0
49,46.5,46.768750000000004,67.0,100.0
50,46.875,47.103125000000006,65.0,100.0
51,47.25,47.704687500000006,67.0,111.0
52,47.8125,47.907812500000006,65.0,92.0
53,48.0,48.314062500000006,65.0,102.0
54,48.375,48.635937500000004,60.0,105.0
55,48.75,50.557812500000004,62.0,105.0
56,51.75,52.028125,55.0,108.0
57,52.125,52.334375,55.0,89.0
58,52.5,52.7625,55.0,102.0
59,52.875,53.496875,62.0,108.0
60,53.625,54.331250000000004,60.0,105.0
61,54.75,55.0046875,62.0,105.0
62,55.125,55.3578125,65.0,105.0
63,55.5,55.7390625,60.0,105.0
64,55.875,56.425000000000004,62.0,100.0
65,56.625,57.265625,55.0,94.0
66,57.75,57.9828125,55.0,94.0
67,58.125,58.354687500000004,55.0,94.0
68,58.5,58.729687500000004,55.0,102.0
69,58.875,59.118750000000006,62.0,100.0
70,59.25,59.7234375,60.0,100.0
71,59.8125,60.2015625,62.0,94.0
72,60.375,60.9765625,57.0,100.0
73,61.125,62.809375,55.0,92.0
74,63.0,63.2890625,70.0,109.0
75,63.375,63.618750000000006,69.0,108.0
76,63.75,64.7046875,67.0,114.0
77,64.875,65.1265625,65.0,105.0
78,65.25,65.53125,67.0,108.0
79,65.625,65.8859375,65.0,114.0
80,66.0,66.2515625,62.0,114.0
81,66.375,66.9859375,60.0,108.0
82,67.125,68.7625,62.0,105.0
83,69.0,69.2515625,62.0,108.0
84,69.375,69.6171875,65.0,108.0
85,69.75,70.6359375,67.0,102.0
86,70.875,71.1734375,70.0,105.0
87,71.25,71.4921875,69.0,108.0
88,71.625,71.8828125,70.0,93.0
89,72.0,72.2125,69.0,108.0
90,72.375,72.9640625,65.0,108.0
91,73.125,74.7828125,67.0,102.0
92,75.375,75.6046875,62.0,108.0
93,75.75,76.3125,60.0,102.0
94,76.5,76.7546875,60.0,102.0
95,76.875,77.14375000000001,62.0,94.0
96,77.25,78.13593750000001,60.0,102.0
97,78.375,78.6140625,67.0,108.0
98,78.75,79.35781250000001,69.0,100.0
99,79.5,79.68281250000001,65.0,105.0
100,79.875,80.14687500000001,62.0,105.0
101,80.25,81.17812500000001,65.0,111.0
102,81.375,81.6140625,65.0,105.0
103,81.75,81.99531250000001,67.0,105.0
104,82.125,82.353125,70.0,109.0
105,82.5,82.69375000000001,70.0,105.0
106,82.875,83.1140625,67.0,100.0
107,83.25,83.5078125,72.0,114.0
108,83.625,83.81093750000001,70.0,102.0
109,84.0,84.6015625,70.0,105.0
110,84.75,85.26093750000001,67.0,105.0
111,85.3125,86.74062500000001,69.0,100.0
112,87.0,87.2890625,70.0,109.0
113,87.375,87.61875,69.0,108.0
114,87.75,88.7046875,67.0,114.0
115,88.875,89.1265625,65.0,105.0
116,89.25,89.53125,67.0,108.0
117,89.625,89.88593750000001,65.0,114.0
118,90.0,90.2515625,62.0,114.0
119,90.375,90.9859375,60.0,108.0
120,91.125,92.7625,62.0,105.0
121,93.0,93.2515625,62.0,108.0
122,93.375,93.6171875,65.0,108.0
123,93.75,94.63593750000001,67.0,102.0
124,94.875,95.1734375,70.0,105.0
125,95.25,95.4921875,69.0,108.0
126,95.625,95.8828125,70.0,93.0
127,96.0,96.2125,69.0,108.0
128,96.375,96.96406250000001,65.0,108.0
129,97.125,98.7828125,67.0,102.0
130,99.375,99.60468750000001,62.0,108.0
131,99.75,100.3125,60.0,102.0
132,100.5,100.7546875,60.0,102.0
133,100.875,101.14375000000001,62.0,94.0
134,101.25,102.13593750000001,60.0,102.0
135,102.375,102.6140625,67.0,108.0
136,102.75,103.35781250000001,69.0,100.0
137,103.5,103.68281250000001,65.0,105.0
138,103.875,104.14687500000001,62.0,105.0
139,104.25,105.17812500000001,65.0,111.0
140,105.375,105.6140625,65.0,105.0
141,105.75,105.99531250000001,67.0,105.0
142,106.125,106.353125,70.0,109.0
143,106.5,106.69375000000001,70.0,105.0
144,106.875,107.1140625,74.0,100.0
145,107.25,107.809375,72.0,114.0
146,108.375,109.028125,69.0,108.0
147,109.125,111.43593750000001,67.0,105.0
148,111.375,111.6328125,65.0,102.0
149,111.75,112.0046875,67.0,105.0
150,112.125,112.403125,70.0,102.0
151,112.5,112.796875,70.0,102.0
152,112.875,113.10000000000001,74.0,108.0
153,113.25,114.2203125,72.0,114.0
154,114.375,114.9734375,69.0,102.0
155,115.125,117.6296875,67.0,105.0
156,129.75,130.02812500000002,55.0,92.0
157,130.125,130.3765625,62.0,108.0
158,130.5,130.74687500000002,62.0,92.0
159,130.875,131.15312500000002,60.0,94.0
160,131.25,132.38750000000002,62.0,97.0
161,132.75,133.021875,60.0,97.0
162,133.125,133.3609375,62.0,108.0
163,133.5,133.7515625,60.0,100.0
164,133.875,134.3828125,58.0,105.0
165,134.625,135.4203125,55.0,94.0
166,135.75,136.1515625,67.0,108.0
167,136.3125,136.4015625,67.0,92.0
168,136.5,136.76875,67.0,100.0
169,136.875,137.103125,65.0,100.0
170,137.25,137.7046875,67.0,111.0
171,137.8125,137.9078125,65.0,92.0
172,138.0,138.3140625,65.0,102.0
173,138.375,138.6359375,60.0,105.0
174,138.75,140.5578125,62.0,105.0
175,141.75,142.02812500000002,55.0,108.0
176,142.125,142.334375,55.0,89.0
177,142.5,142.76250000000002,55.0,102.0
178,142.875,143.49687500000002,62.0,108.0
179,143.625,144.33125,60.0,105.0
180,144.75,145.00468750000002,62.0,105.0
181,145.125,145.3578125,65.0,105.0
182,145.5,145.73906250000002,60.0,105.0
183,145.875,146.425,62.0,100.0
184,146.625,147.265625,55.0,94.0
185,147.75,147.9828125,55.0,94.0
186,148.125,148.3546875,55.0,94.0
187,148.5,148.7296875,55.0,102.0
188,148.875,149.11875,62.0,100.0
189,149.25,149.72343750000002,60.0,100.0
190,149.8125,150.2015625,62.0,94.0
191,150.375,150.9765625,57.0,100.0
192,151.125,152.80937500000002,55.0,92.0
193,153.0,153.2890625,70.0,109.0
194,153.375,153.61875,69.0,108.0
195,153.75,154.7046875,67.0,114.0
196,154.875,155.1265625,65.0,105.0
197,155.25,155.53125,67.0,108.0
198,155.625,155.8859375,65.0,114.0
199,156.0,156.2515625,62.0,114.0
200,156.375,156.9859375,60.0,108.0
201,157.125,158.76250000000002,62.0,105.0
202,159.0,159.2515625,62.0,108.0
203,159.375,159.6171875,65.0,108.0
204,159.75,160.6359375,67.0,102.0
205,160.875,161.1734375,70.0,105.0
206,161.25,161.4921875,69.0,108.0
207,161.625,161.8828125,70.0,93.0
208,162.0,162.2125,69.0,108.0
209,162.375,162.9640625,65.0,108.0
210,163.125,164.7828125,67.0,102.0
211,165.375,165.6046875,62.0,108.0
212,165.75,166.3125,60.0,102.0
213,166.5,166.75468750000002,60.0,102.0
214,166.875,167.14375,62.0,94.0
215,167.25,168.1359375,60.0,102.0
216,168.375,168.61406250000002,67.0,108.0
217,168.75,169.35781250000002,69.0,100.0
218,169.5,169.6828125,65.0,105.0
219,169.875,170.14687500000002,62.0,105.0
220,170.25,171.17812500000002,65.0,111.0
221,171.375,171.61406250000002,65.0,105.0
222,171.75,171.9953125,67.0,105.0
223,172.125,172.353125,70.0,109.0
224,172.5,172.69375000000002,70.0,105.0
225,172.875,173.11406250000002,67.0,100.0
226,173.25,173.5078125,72.0,114.0
227,173.625,173.81093750000002,70.0,102.0
228,174.0,174.6015625,70.0,105.0
229,174.75,175.2609375,67.0,105.0
230,175.3125,176.74062500000002,69.0,100.0
231,177.0,177.2890625,70.0,109.0
232,177.375,177.61875,69.0,108.0
233,177.75,178.7046875,67.0,114.0
234,178.875,179.1265625,65.0,105.0
235,179.25,179.53125,67.0,108.0
236,179.625,179.8859375,65.0,114.0
237,180.0,180.2515625,62.0,114.0
238,180.375,180.9859375,60.0,108.0
239,181.125,182.76250000000002,62.0,105.0
240,183.0,183.2515625,62.0,108.0
241,183.375,183.6171875,65.0,108.0
242,183.75,184.6359375,67.0,102.0
243,184.875,185.1734375,70.0,105.0
244,185.25,185.4921875,69.0,108.0
245,185.625,185.8828125,70.0,93.0
246,186.0,186.2125,69.0,108.0
247,186.375,186.9640625,65.0,108.0
248,187.125,188.7828125,67.0,102.0
249,189.375,189.6046875,62.0,108.0
250,189.75,190.3125,60.0,102.0
251,190.5,190.75468750000002,60.0,102.0
252,190.875,191.14375,62.0,94.0
253,191.25,192.1359375,60.0,102.0
254,192.375,192.61406250000002,67.0,108.0
255,192.75,193.35781250000002,69.0,100.0
256,193.5,193.6828125,65.0,105.0
257,193.875,194.14687500000002,62.0,105.0
258,194.25,195.17812500000002,65.0,111.0
259,195.375,195.61406250000002,65.0,105.0
260,195.75,195.9953125,67.0,105.0
261,196.125,196.353125,70.0,109.0
262,196.5,196.69375000000002,70.0,105.0
263,196.875,197.11406250000002,74.0,100.0
264,197.25,197.80937500000002,72.0,114.0
265,198.375,199.02812500000002,69.0,108.0
266,199.125,200.99687500000002,67.0,105.0
267,201.0,201.2890625,72.0,109.0
268,201.375,201.61875,71.0,108.0
269,201.75,202.7046875,69.0,114.0
270,202.875,203.1265625,67.0,105.0
271,203.25,203.53125,69.0,108.0
272,203.625,203.8859375,67.0,114.0
273,204.0,204.2515625,64.0,114.0
274,204.375,204.9859375,62.0,108.0
275,205.125,206.76250000000002,64.0,105.0
276,207.0,207.2515625,64.0,108.0
277,207.375,207.6171875,67.0,108.0
278,207.75,208.6359375,69.0,102.0
279,208.875,209.1734375,72.0,105.0
280,209.25,209.4921875,71.0,108.0
281,209.625,209.8828125,72.0,93.0
282,210.0,210.2125,71.0,108.0
283,210.375,210.9640625,67.0,108.0
284,211.125,212.7828125,69.0,102.0
285,213.375,213.6046875,64.0,108.0
286,213.75,214.3125,62.0,102.0
287,214.5,214.75468750000002,62.0,102.0
288,214.875,215.14375,64.0,94.0
289,215.25,216.1359375,62.0,102.0
290,216.375,216.61406250000002,69.0,108.0
291,216.75,217.35781250000002,71.0,100.0
292,217.5,217.6828125,67.0,105.0
293,217.875,218.14687500000002,64.0,105.0
294,218.25,219.17812500000002,67.0,111.0
295,219.375,219.61406250000002,67.0,105.0
296,219.75,219.9953125,69.0,105.0
297,220.125,220.353125,72.0,109.0
298,220.5,220.69375000000002,72.0,105.0
299,220.875,221.11406250000002,69.0,100.0
300,221.25,221.5078125,74.0,114.0
301,221.625,221.81093750000002,72.0,102.0
302,222.0,222.6015625,72.0,105.0
303,222.75,223.2609375,69.0,105.0
304,223.3125,224.74062500000002,71.0,100.0
305,225.0,225.2890625,72.0,109.0
306,225.375,225.61875,71.0,108.0
307,225.75,226.7046875,69.0,114.0
308,226.875,227.1265625,67.0,105.0
309,227.25,227.53125,69.0,108.0
310,227.625,227.8859375,67.0,114.0
311,228.0,228.2515625,64.0,114.0
312,228.375,228.9859375,62.0,108.0
313,229.125,230.76250000000002,64.0,105.0
314,231.0,231.2515625,64.0,108.0
315,231.375,231.6171875,67.0,108.0
316,231.75,232.6359375,69.0,102.0
317,232.875,233.1734375,72.0,105.0
318,233.25,233.4921875,71.0,108.0
319,233.625,233.8828125,72.0,93.0
320,234.0,234.2125,71.0,108.0
321,234.375,234.9640625,67.0,108.0
322,235.125,236.7828125,69.0,102.0
323,237.375,237.6046875,64.0,108.0
324,237.75,238.3125,62.0,102.0
325,238.5,238.75468750000002,62.0,102.0
326,238.875,239.14375,64.0,94.0
327,239.25,240.1359375,62.0,102.0
328,240.375,240.61406250000002,69.0,108.0
329,240.75,241.35781250000002,71.0,100.0
330,241.5,241.6828125,67.0,105.0
331,241.875,242.14687500000002,64.0,105.0
332,242.25,243.17812500000002,67.0,111.0
333,243.375,243.61406250000002,67.0,105.0
334,243.75,243.9953125,69.0,105.0
335,244.125,244.353125,72.0,109.0
336,244.5,244.69375000000002,72.0,105.0
337,244.875,245.11406250000002,76.0,100.0
338,245.25,245.80937500000002,74.0,114.0
339,246.375,247.02812500000002,71.0,108.0
340,247.125,248.99687500000002,69.0,105.0
341,249.375,249.6328125,67.0,102.0
342,249.75,250.00468750000002,69.0,105.0
343,250.125,250.40312500000002,72.0,102.0
344,250.5,250.796875,72.0,102.0
345,250.875,251.10000000000002,76.0,108.0
346,251.25,254.05937500000002,74.0,114.0
347,254.52968750000002,256.1546875,71.0,108.0
348,256.42343750000003,259.4046875,69.0,105.0
