,start,end,pitch,velocity
0,3.75,4.0671875,63.0,52.0
1,3.75,4.096875,67.0,80.0
2,3.75,4.1203125,60.0,66.0
3,4.3125,4.51875,63.0,82.0
4,4.125,4.5890625,55.0,43.0
5,3.75,4.5984375,48.0,92.0
6,4.875,5.290625,55.0,66.0
7,4.875,6.0328125,60.0,52.0
8,4.875,6.057812500000001,63.0,44.0
9,4.875,6.120312500000001,48.0,44.0
10,6.0,6.153125,55.0,76.0
11,4.875,6.296875,67.0,78.0
12,6.1875,6.4,60.0,78.0
13,6.375,6.465625,63.0,102.0
14,6.75,7.15625,58.0,52.0
15,6.75,7.1875,55.0,66.0
16,7.3125,7.479687500000001,58.0,74.0
17,7.3125,7.515625,62.0,78.0
18,7.875,8.1625,58.0,35.0
19,7.875,8.168750000000001,67.0,92.0
20,7.875,8.1734375,55.0,58.0
21,8.625,9.012500000000001,50.0,37.0
22,6.75,9.1125,43.0,89.0
23,9.0,9.140625,55.0,84.0
24,9.0,9.395312500000001,58.0,96.0
25,9.0,9.4015625,62.0,89.0
26,9.375,9.45625,55.0,69.0
27,9.75,10.090625000000001,63.0,61.0
28,9.75,10.1125,60.0,53.0
29,10.3125,10.443750000000001,63.0,63.0
30,10.3125,10.45625,67.0,94.0
31,9.75,10.74375,48.0,100.0
32,10.875,12.1171875,60.0,69.0
33,10.875,12.1734375,63.0,72.0
34,10.875,12.30625,67.0,82.0
35,12.0,12.3765625,48.0,94.0
36,12.1875,12.396875000000001,55.0,48.0
37,12.375,12.515625,60.0,78.0
38,12.75,13.1421875,66.0,74.0
39,12.75,13.873437500000001,62.0,64.0
40,14.0625,14.170312500000001,62.0,40.0
41,13.875,14.715625000000001,57.0,37.0
42,12.75,14.717187500000001,50.0,82.0
43,14.25,14.9140625,66.0,52.0
44,14.25,14.96875,69.0,87.0
45,14.25,14.9765625,62.0,71.0
46,15.75,16.19375,55.0,69.0
47,15.75,16.259375000000002,58.0,61.0
48,16.125,17.0046875,50.0,44.0
49,16.875,17.0703125,62.0,87.0
50,16.875,17.078125,55.0,89.0
51,17.625,18.314062500000002,50.0,1.0
52,18.0,18.3984375,58.0,70.0
53,15.75,18.496875,43.0,94.0
54,18.375,18.575,55.0,49.0
55,18.75,19.246875000000003,55.0,84.0
56,18.75,19.303125,60.0,84.0
57,19.5,19.673437500000002,55.0,40.0
58,19.875,20.395312500000003,55.0,78.0
59,19.875,20.681250000000002,63.0,74.0
60,18.75,21.08125,48.0,84.0
61,21.0,21.160937500000003,55.0,78.0
62,21.0,21.254687500000003,60.0,82.0
63,21.75,22.31875,58.0,59.0
64,21.75,22.3421875,63.0,54.0
65,21.75,22.5078125,51.0,59.0
66,22.5,22.8734375,58.0,99.0
67,22.875,23.003125,55.0,22.0
68,22.5,23.196875000000002,63.0,102.0
69,23.25,23.767187500000002,60.0,78.0
70,23.25,24.2765625,41.0,67.0
71,23.25,24.45625,57.0,71.0
72,24.375,24.489062500000003,60.0,87.0
73,24.375,24.728125000000002,65.0,94.0
74,25.5,25.7296875,58.0,99.0
75,25.125,26.0375,53.0,1.0
76,24.75,26.4046875,46.0,52.0
77,25.875,26.8265625,62.0,89.0
78,25.875,26.85,58.0,99.0
79,27.0,27.2578125,58.0,93.0
80,27.0,27.556250000000002,62.0,89.0
81,27.75,28.348437500000003,58.0,63.0
82,27.75,28.365625,63.0,63.0
83,27.75,28.8421875,51.0,55.0
84,28.5,28.9640625,58.0,65.0
85,28.875,29.035937500000003,55.0,38.0
86,29.25,29.8671875,60.0,53.0
87,29.25,30.267187500000002,57.0,78.0
88,29.25,30.348437500000003,41.0,97.0
89,30.375,30.5375,60.0,78.0
90,30.375,30.6171875,65.0,89.0
91,30.75,31.207812500000003,62.0,78.0
92,30.75,31.25625,57.0,84.0
93,30.75,31.8546875,50.0,84.0
94,31.5,31.876562500000002,65.0,100.0
95,31.875,31.996875000000003,62.0,60.0
96,32.25,32.6921875,58.0,63.0
97,32.25,32.885937500000004,55.0,73.0
98,33.0,33.196875,58.0,99.0
99,33.0,33.203125,62.0,92.0
100,32.25,33.2890625,43.0,87.0
101,32.625,33.340625,50.0,46.0
102,33.75,34.653125,58.0,79.0
103,33.75,34.684375,63.0,85.0
104,33.75,34.8421875,51.0,93.0
105,35.25,35.475,57.0,82.0
106,35.25,35.66875,62.0,87.0
107,35.625,35.828125,57.0,53.0
108,36.0,36.15625,57.0,102.0
109,35.25,36.2703125,50.0,94.0
110,36.0,36.3203125,65.0,92.0
111,36.375,36.459375,57.0,37.0
112,36.75,37.084375,58.0,79.0
113,36.75,37.1453125,55.0,84.0
114,37.3125,37.4109375,58.0,87.0
115,37.3125,37.4296875,62.0,89.0
116,37.875,38.643750000000004,67.0,76.0
117,37.875,38.6765625,55.0,94.0
118,39.0,39.212500000000006,58.0,52.0
119,39.1875,39.431250000000006,55.0,84.0
120,38.8125,39.434375,50.0,60.0
121,39.375,39.548437500000006,62.0,82.0
122,36.75,39.564062500000006,43.0,97.0
123,39.75,40.19375,55.0,69.0
124,39.75,40.259375000000006,58.0,61.0
125,40.125,41.0046875,50.0,44.0
126,40.875,41.0703125,62.0,87.0
127,40.875,41.078125,55.0,89.0
128,41.625,42.314062500000006,50.0,1.0
129,42.0,42.3984375,58.0,70.0
130,39.75,42.496875,43.0,94.0
131,42.375,42.575,55.0,49.0
132,42.75,43.246875,55.0,84.0
133,42.75,43.303125,60.0,84.0
134,43.5,43.673437500000006,55.0,40.0
135,43.875,44.3953125,55.0,78.0
136,43.875,44.681250000000006,63.0,74.0
137,42.75,45.081250000000004,48.0,84.0
138,45.0,45.1609375,55.0,78.0
139,45.0,45.2546875,60.0,82.0
140,45.75,46.31875,58.0,59.0
141,45.75,46.3421875,63.0,54.0
142,45.75,46.5078125,51.0,59.0
143,46.5,46.8734375,58.0,99.0
144,46.875,47.003125000000004,55.0,22.0
145,46.5,47.196875000000006,63.0,102.0
146,47.25,47.767187500000006,60.0,78.0
147,47.25,48.276562500000004,41.0,67.0
148,47.25,48.456250000000004,57.0,71.0
149,48.375,48.4890625,60.0,87.0
150,48.375,48.728125000000006,65.0,94.0
151,49.5,49.729687500000004,58.0,99.0
152,49.125,50.0375,53.0,1.0
153,48.75,50.4046875,46.0,52.0
154,49.875,50.8265625,62.0,89.0
155,49.875,50.85,58.0,99.0
156,51.0,51.2578125,58.0,93.0
157,51.0,51.556250000000006,62.0,89.0
158,51.75,52.3484375,58.0,63.0
159,51.75,52.365625,63.0,63.0
160,51.75,52.8421875,51.0,55.0
161,52.5,52.964062500000004,58.0,65.0
162,52.875,53.0359375,55.0,38.0
163,53.25,53.8671875,60.0,53.0
164,53.25,54.267187500000006,57.0,78.0
165,53.25,54.3484375,41.0,97.0
166,54.375,54.5375,60.0,78.0
167,54.375,54.6171875,65.0,89.0
168,54.75,55.2078125,62.0,78.0
169,54.75,55.25625,57.0,84.0
170,54.75,55.854687500000004,50.0,84.0
171,55.5,55.876562500000006,65.0,100.0
172,55.875,55.996875,62.0,60.0
173,56.25,56.6921875,58.0,63.0
174,56.25,56.885937500000004,55.0,73.0
175,57.0,57.196875000000006,58.0,99.0
176,57.0,57.203125,62.0,92.0
177,56.25,57.2890625,43.0,87.0
178,56.625,57.340625,50.0,46.0
179,57.75,58.653125,58.0,79.0
180,57.75,58.684375,63.0,85.0
181,57.75,58.8421875,51.0,93.0
182,59.25,59.475,57.0,82.0
183,59.25,59.66875,62.0,87.0
184,59.625,59.828125,57.0,53.0
185,60.0,60.15625,57.0,102.0
186,59.25,60.2703125,50.0,94.0
187,60.0,60.3203125,65.0,92.0
188,60.375,60.459375,57.0,37.0
189,60.75,61.120312500000004,62.0,84.0
190,60.75,61.1546875,58.0,77.0
191,60.75,61.2890625,55.0,69.0
192,61.125,61.735937500000006,50.0,15.0
193,61.5,61.807812500000004,58.0,102.0
194,61.5,61.8171875,62.0,97.0
195,62.0625,62.1484375,55.0,67.0
196,62.0625,62.157812500000006,67.0,82.0
197,61.875,62.456250000000004,50.0,43.0
198,62.25,62.5546875,67.0,97.0
199,62.25,62.6,55.0,100.0
200,62.625,63.171875,50.0,78.0
201,63.0,63.667187500000004,58.0,119.0
202,63.0,63.689062500000006,62.0,114.0
203,63.0,63.69375,55.0,105.0
204,63.375,63.8125,50.0,87.0
205,60.75,63.8265625,43.0,100.0
206,63.75,64.06093750000001,55.0,80.0
207,63.75,64.0875,58.0,72.0
208,63.75,64.10000000000001,63.0,77.0
209,63.75,64.6953125,51.0,90.0
210,64.3125,64.8515625,63.0,99.0
211,64.875,65.01875,58.0,96.0
212,64.6875,65.025,55.0,64.0
213,65.25,65.684375,57.0,89.0
214,65.25,65.9328125,53.0,80.0
215,65.625,66.065625,48.0,32.0
216,65.25,66.15625,41.0,100.0
217,66.0,66.246875,57.0,105.0
218,66.0,66.26875,60.0,89.0
219,66.1875,66.42031250000001,53.0,80.0
220,66.375,66.509375,57.0,100.0
221,66.75,67.21718750000001,62.0,97.0
222,66.75,67.2671875,57.0,94.0
223,67.5,67.715625,57.0,102.0
224,67.5,67.775,65.0,97.0
225,66.75,68.165625,50.0,94.0
226,68.0625,68.31093750000001,57.0,80.0
227,68.0625,68.3796875,62.0,82.0
228,68.4375,68.7390625,57.0,82.0
229,68.625,68.853125,62.0,92.0
230,69.0,69.19375000000001,57.0,111.0
231,69.0,69.3140625,65.0,97.0
232,69.0,69.3359375,62.0,100.0
233,68.25,69.3484375,50.0,48.0
234,69.375,69.5125,57.0,87.0
235,69.75,70.165625,58.0,68.0
236,69.75,70.2765625,63.0,50.0
237,69.75,70.278125,55.0,69.0
238,69.75,70.58125,51.0,96.0
239,70.875,71.09375,55.0,55.0
240,71.0625,71.140625,58.0,72.0
241,70.5,71.1453125,63.0,105.0
242,71.25,71.540625,57.0,82.0
243,71.25,71.7109375,60.0,94.0
244,71.625,72.040625,48.0,55.0
245,71.25,72.1375,41.0,97.0
246,72.0,72.1765625,57.0,92.0
247,72.0,72.32656250000001,60.0,100.0
248,72.0,72.4453125,65.0,97.0
249,72.375,72.50625000000001,57.0,30.0
250,72.75,73.08437500000001,58.0,102.0
251,72.75,73.153125,62.0,89.0
252,72.75,73.31875000000001,55.0,87.0
253,73.125,73.59218750000001,50.0,27.0
254,73.5,73.67812500000001,58.0,93.0
255,73.5,73.7265625,62.0,94.0
256,74.0625,74.17031250000001,55.0,108.0
257,74.0625,74.190625,67.0,100.0
258,73.875,74.1984375,50.0,27.0
259,74.25,74.471875,50.0,44.0
260,74.4375,74.6203125,55.0,89.0
261,74.4375,74.6265625,62.0,94.0
262,74.625,75.0625,50.0,76.0
263,72.75,75.1359375,43.0,100.0
264,75.0,75.296875,55.0,87.0
265,75.0,75.31093750000001,58.0,102.0
266,75.0,75.3828125,62.0,102.0
267,75.375,75.6515625,43.0,92.0
268,75.75,75.9921875,55.0,89.0
269,75.75,76.1453125,60.0,94.0
270,76.125,76.1890625,55.0,19.0
271,76.5,76.65625,55.0,92.0
272,76.5,76.659375,63.0,90.0
273,77.0625,77.4296875,55.0,78.0
274,77.0625,77.5078125,60.0,87.0
275,77.625,77.828125,55.0,26.0
276,78.0,78.1765625,55.0,94.0
277,78.0,78.3296875,60.0,100.0
278,75.75,78.4234375,48.0,87.0
279,78.375,78.53125,55.0,66.0
280,78.75,79.1296875,62.0,87.0
281,78.75,79.15625,57.0,100.0
282,79.5,79.62031250000001,57.0,100.0
283,79.5,79.64375000000001,65.0,105.0
284,80.0625,80.21875,62.0,78.0
285,80.0625,80.2234375,57.0,84.0
286,80.4375,80.5484375,57.0,53.0
287,80.625,80.7625,62.0,66.0
288,81.0,81.1171875,62.0,78.0
289,81.0,81.15,57.0,84.0
290,78.75,81.17812500000001,50.0,87.0
291,81.75,82.09687500000001,63.0,85.0
292,81.75,82.1328125,58.0,74.0
293,82.125,82.340625,55.0,49.0
294,82.3125,82.575,58.0,102.0
295,81.75,82.6875,51.0,90.0
296,82.6875,82.88125000000001,63.0,109.0
297,82.875,82.94843750000001,58.0,2.0
298,83.25,83.48281250000001,57.0,97.0
299,83.25,83.60781250000001,60.0,100.0
300,83.625,83.903125,57.0,43.0
301,84.0,84.22968750000001,67.0,105.0
302,83.25,84.41250000000001,45.0,89.0
303,84.1875,84.45625000000001,63.0,79.0
304,84.375,84.590625,57.0,82.0
305,84.75,84.9921875,57.0,92.0
306,84.75,85.15625,62.0,94.0
307,85.125,85.2109375,57.0,22.0
308,85.5,85.6734375,57.0,105.0
309,85.5,85.6953125,66.0,99.0
310,84.75,86.26093750000001,50.0,89.0
311,86.0625,86.27187500000001,57.0,102.0
312,86.0625,86.31093750000001,62.0,97.0
313,86.4375,86.51875000000001,57.0,47.0
314,86.625,87.07656250000001,57.0,92.0
315,86.625,87.07656250000001,62.0,89.0
316,87.1875,87.340625,57.0,114.0
317,87.1875,87.4390625,62.0,117.0
318,87.375,87.60468750000001,57.0,84.0
319,87.0,87.765625,50.0,105.0
320,87.75,88.06093750000001,55.0,80.0
321,87.75,88.0875,58.0,72.0
322,87.75,88.10000000000001,63.0,77.0
323,87.75,88.6953125,51.0,90.0
324,88.3125,88.8515625,63.0,99.0
325,88.875,89.01875000000001,58.0,96.0
326,88.6875,89.025,55.0,64.0
327,89.25,89.684375,57.0,89.0
328,89.25,89.93281250000001,53.0,80.0
329,89.625,90.06562500000001,48.0,32.0
330,89.25,90.15625,41.0,100.0
331,90.0,90.246875,57.0,105.0
332,90.0,90.26875000000001,60.0,89.0
333,90.1875,90.42031250000001,53.0,80.0
334,90.375,90.509375,57.0,100.0
335,90.75,91.21718750000001,62.0,97.0
336,90.75,91.2671875,57.0,94.0
337,91.5,91.715625,57.0,102.0
338,91.5,91.775,65.0,97.0
339,90.75,92.165625,50.0,94.0
340,92.0625,92.31093750000001,57.0,80.0
341,92.0625,92.3796875,62.0,82.0
342,92.4375,92.7390625,57.0,82.0
343,92.625,92.853125,62.0,92.0
344,93.0,93.19375000000001,57.0,111.0
345,93.0,93.3140625,65.0,97.0
346,93.0,93.3359375,62.0,100.0
347,92.25,93.3484375,50.0,48.0
348,93.375,93.5125,57.0,87.0
349,93.75,94.165625,58.0,68.0
350,93.75,94.27656250000001,63.0,50.0
351,93.75,94.278125,55.0,69.0
352,93.75,94.58125000000001,51.0,96.0
353,94.875,95.09375,55.0,55.0
354,95.0625,95.140625,58.0,72.0
355,94.5,95.1453125,63.0,105.0
356,95.25,95.540625,57.0,82.0
357,95.25,95.7109375,60.0,94.0
358,95.625,96.040625,48.0,55.0
359,95.25,96.1375,41.0,97.0
360,96.0,96.1765625,57.0,92.0
361,96.0,96.32656250000001,60.0,100.0
362,96.0,96.4453125,65.0,97.0
363,96.375,96.50625000000001,57.0,30.0
364,96.75,97.08437500000001,58.0,102.0
365,96.75,97.153125,62.0,89.0
366,96.75,97.31875000000001,55.0,87.0
367,97.125,97.59218750000001,50.0,27.0
368,97.5,97.67812500000001,58.0,93.0
369,97.5,97.7265625,62.0,94.0
370,98.0625,98.17031250000001,55.0,108.0
371,98.0625,98.19062500000001,67.0,100.0
372,97.875,98.19843750000001,50.0,27.0
373,98.25,98.47187500000001,50.0,44.0
374,98.4375,98.62031250000001,55.0,89.0
375,98.4375,98.6265625,62.0,94.0
376,98.625,99.0625,50.0,76.0
377,96.75,99.13593750000001,43.0,100.0
378,99.0,99.296875,55.0,87.0
379,99.0,99.31093750000001,58.0,102.0
380,99.0,99.3828125,62.0,102.0
381,99.375,99.65156250000001,43.0,92.0
382,99.75,99.9921875,55.0,89.0
383,99.75,100.1453125,60.0,94.0
384,100.125,100.1890625,55.0,19.0
385,100.5,100.65625,55.0,92.0
386,100.5,100.65937500000001,63.0,90.0
387,101.0625,101.4296875,55.0,78.0
388,101.0625,101.5078125,60.0,87.0
389,101.625,101.828125,55.0,26.0
390,102.0,102.1765625,55.0,94.0
391,102.0,102.3296875,60.0,100.0
392,99.75,102.4234375,48.0,87.0
393,102.375,102.53125,55.0,66.0
394,102.75,103.1296875,62.0,87.0
395,102.75,103.15625,57.0,100.0
396,103.5,103.62031250000001,57.0,100.0
397,103.5,103.64375000000001,65.0,105.0
398,104.0625,104.21875,62.0,78.0
399,104.0625,104.2234375,57.0,84.0
400,104.4375,104.5484375,57.0,53.0
401,104.625,104.7625,62.0,66.0
402,105.0,105.1171875,62.0,78.0
403,105.0,105.15,57.0,84.0
404,102.75,105.17812500000001,50.0,87.0
405,105.75,106.1953125,58.0,65.0
406,105.75,106.2078125,63.0,63.0
407,105.75,106.6921875,51.0,99.0
408,106.3125,106.71406250000001,58.0,85.0
409,106.6875,106.9421875,55.0,84.0
410,106.875,107.03125,58.0,93.0
411,107.25,107.5078125,57.0,84.0
412,107.25,107.6921875,62.0,97.0
413,107.625,107.86875,57.0,87.0
414,107.25,108.17500000000001,50.0,97.0
415,108.0,108.19375000000001,57.0,92.0
416,108.0,108.3453125,62.0,97.0
417,108.0,108.37031250000001,65.0,100.0
418,108.375,108.525,57.0,100.0
419,108.75,109.1375,58.0,54.0
420,108.75,109.16875,62.0,84.0
421,108.75,109.3484375,55.0,73.0
422,109.125,109.609375,50.0,30.0
423,109.5,109.86562500000001,58.0,87.0
424,109.5,109.86875,62.0,94.0
425,109.875,110.1765625,50.0,51.0
426,110.0625,110.51093750000001,67.0,94.0
427,110.625,110.853125,58.0,93.0
428,110.4375,110.859375,55.0,89.0
429,108.75,111.2078125,43.0,100.0
430,110.25,111.2234375,50.0,89.0
431,111.0,111.2359375,55.0,89.0
432,111.0,111.278125,62.0,97.0
433,111.0,111.29375,58.0,99.0
434,111.375,111.56875000000001,55.0,64.0
435,111.75,112.2109375,58.0,61.0
436,111.75,112.22500000000001,63.0,63.0
437,112.125,112.41250000000001,55.0,52.0
438,111.75,112.4765625,51.0,93.0
439,112.5,112.790625,58.0,109.0
440,112.5,112.8015625,55.0,97.0
441,112.5,112.8765625,63.0,93.0
442,113.25,113.4921875,57.0,89.0
443,113.25,113.65625,62.0,78.0
444,113.625,113.73281250000001,57.0,51.0
445,113.8125,114.02187500000001,65.0,102.0
446,113.25,114.26406250000001,50.0,89.0
447,114.1875,114.38125000000001,62.0,84.0
448,114.375,114.4890625,57.0,76.0
449,114.75,115.2109375,58.0,65.0
450,114.75,115.2671875,55.0,66.0
451,115.125,115.609375,50.0,40.0
452,115.5,115.91250000000001,58.0,87.0
453,115.5,115.984375,62.0,78.0
454,116.25,116.540625,67.0,94.0
455,116.25,116.5828125,55.0,102.0
456,117.0,117.35000000000001,58.0,90.0
457,115.875,117.35625,50.0,42.0
458,114.75,117.4109375,43.0,94.0
459,117.0,117.49375,62.0,84.0
460,117.75,118.02187500000001,55.0,82.0
461,117.75,118.0703125,60.0,94.0
462,118.3125,118.46875,55.0,94.0
463,118.3125,118.509375,63.0,77.0
464,117.75,119.009375,48.0,94.0
465,118.875,119.2703125,55.0,78.0
466,118.875,119.30000000000001,60.0,87.0
467,119.4375,119.653125,55.0,92.0
468,119.4375,119.8203125,60.0,94.0
469,119.8125,119.9109375,55.0,64.0
470,120.0,120.24531250000001,55.0,94.0
471,120.0,120.3875,60.0,102.0
472,120.0,120.44843750000001,48.0,87.0
473,120.375,120.54218750000001,55.0,60.0
474,120.75,121.11250000000001,62.0,89.0
475,120.75,121.1484375,55.0,87.0
476,121.3125,121.51406250000001,62.0,94.0
477,121.3125,121.53750000000001,58.0,99.0
478,121.875,122.20156250000001,62.0,92.0
479,121.875,122.23125,55.0,94.0
480,122.4375,122.4765625,55.0,57.0
481,122.25,122.51093750000001,50.0,47.0
482,122.4375,122.72187500000001,62.0,97.0
483,122.4375,122.7515625,58.0,105.0
484,122.8125,122.9140625,55.0,64.0
485,122.625,123.03437500000001,50.0,35.0
486,120.75,123.15625,43.0,78.0
487,123.0,123.26875000000001,58.0,102.0
488,123.0,123.296875,62.0,97.0
489,123.0,123.30781250000001,55.0,94.0
490,123.375,123.6140625,43.0,94.0
491,123.75,124.21406250000001,55.0,89.0
492,123.75,124.2203125,60.0,94.0
493,124.5,124.8125,55.0,80.0
494,124.5,124.840625,60.0,94.0
495,124.5,124.8828125,63.0,82.0
496,125.0625,125.3375,55.0,92.0
497,125.0625,125.44843750000001,60.0,102.0
498,125.4375,125.58437500000001,55.0,73.0
499,125.625,125.6734375,55.0,38.0
500,125.625,125.7703125,60.0,89.0
501,123.75,126.1328125,48.0,84.0
502,126.0,126.38906250000001,55.0,105.0
503,126.0,126.41875,60.0,105.0
504,126.375,126.59687500000001,48.0,80.0
505,126.75,127.30000000000001,57.0,97.0
506,126.75,127.30625,62.0,89.0
507,127.5,127.7125,57.0,82.0
508,127.5,127.79531250000001,66.0,96.0
509,127.6875,127.83437500000001,62.0,55.0
510,128.0625,128.11875,62.0,53.0
511,127.875,128.146875,57.0,67.0
512,126.75,129.1359375,50.0,73.0
513,128.25,129.175,57.0,89.0
514,128.25,129.1984375,62.0,94.0
515,129.75,130.19375,55.0,69.0
516,129.75,130.259375,58.0,61.0
517,130.125,131.00468750000002,50.0,44.0
518,130.875,131.0703125,62.0,87.0
519,130.875,131.078125,55.0,89.0
520,131.625,132.3140625,50.0,1.0
521,132.0,132.3984375,58.0,70.0
522,129.75,132.49687500000002,43.0,94.0
523,132.375,132.57500000000002,55.0,49.0
524,132.75,133.24687500000002,55.0,84.0
525,132.75,133.303125,60.0,84.0
526,133.5,133.6734375,55.0,40.0
527,133.875,134.39531250000002,55.0,78.0
528,133.875,134.68125,63.0,74.0
529,132.75,135.08125,48.0,84.0
530,135.0,135.16093750000002,55.0,78.0
531,135.0,135.25468750000002,60.0,82.0
532,135.75,136.31875,58.0,59.0
533,135.75,136.3421875,63.0,54.0
534,135.75,136.5078125,51.0,59.0
535,136.5,136.8734375,58.0,99.0
536,136.875,137.003125,55.0,22.0
537,136.5,137.196875,63.0,102.0
538,137.25,137.7671875,60.0,78.0
539,137.25,138.2765625,41.0,67.0
540,137.25,138.45625,57.0,71.0
541,138.375,138.48906250000002,60.0,87.0
542,138.375,138.728125,65.0,94.0
543,139.5,139.7296875,58.0,99.0
544,139.125,140.0375,53.0,1.0
545,138.75,140.4046875,46.0,52.0
546,139.875,140.8265625,62.0,89.0
547,139.875,140.85,58.0,99.0
548,141.0,141.2578125,58.0,93.0
549,141.0,141.55625,62.0,89.0
550,141.75,142.34843750000002,58.0,63.0
551,141.75,142.365625,63.0,63.0
552,141.75,142.8421875,51.0,55.0
553,142.5,142.9640625,58.0,65.0
554,142.875,143.03593750000002,55.0,38.0
555,143.25,143.8671875,60.0,53.0
556,143.25,144.2671875,57.0,78.0
557,143.25,144.34843750000002,41.0,97.0
558,144.375,144.5375,60.0,78.0
559,144.375,144.6171875,65.0,89.0
560,144.75,145.20781250000002,62.0,78.0
561,144.75,145.25625,57.0,84.0
562,144.75,145.8546875,50.0,84.0
563,145.5,145.8765625,65.0,100.0
564,145.875,145.99687500000002,62.0,60.0
565,146.25,146.69218750000002,58.0,63.0
566,146.25,146.8859375,55.0,73.0
567,147.0,147.196875,58.0,99.0
568,147.0,147.203125,62.0,92.0
569,146.25,147.2890625,43.0,87.0
570,146.625,147.34062500000002,50.0,46.0
571,147.75,148.65312500000002,58.0,79.0
572,147.75,148.68437500000002,63.0,85.0
573,147.75,148.8421875,51.0,93.0
574,149.25,149.475,57.0,82.0
575,149.25,149.66875000000002,62.0,87.0
576,149.625,149.828125,57.0,53.0
577,150.0,150.15625,57.0,102.0
578,149.25,150.27031250000002,50.0,94.0
579,150.0,150.3203125,65.0,92.0
580,150.375,150.459375,57.0,37.0
581,150.75,151.1203125,62.0,84.0
582,150.75,151.1546875,58.0,77.0
583,150.75,151.2890625,55.0,69.0
584,151.125,151.7359375,50.0,15.0
585,151.5,151.8078125,58.0,102.0
586,151.5,151.81718750000002,62.0,97.0
587,152.0625,152.1484375,55.0,67.0
588,152.0625,152.1578125,67.0,82.0
589,151.875,152.45625,50.0,43.0
590,152.25,152.5546875,67.0,97.0
591,152.25,152.6,55.0,100.0
592,152.625,153.171875,50.0,78.0
593,153.0,153.6671875,58.0,119.0
594,153.0,153.6890625,62.0,114.0
595,153.0,153.69375000000002,55.0,105.0
596,153.375,153.8125,50.0,87.0
597,150.75,153.82656250000002,43.0,100.0
598,153.75,154.06093750000002,55.0,80.0
599,153.75,154.0875,58.0,72.0
600,153.75,154.10000000000002,63.0,77.0
601,153.75,154.6953125,51.0,90.0
602,154.3125,154.8515625,63.0,99.0
603,154.875,155.01875,58.0,96.0
604,154.6875,155.025,55.0,64.0
605,155.25,155.68437500000002,57.0,89.0
606,155.25,155.9328125,53.0,80.0
607,155.625,156.065625,48.0,32.0
608,155.25,156.15625,41.0,100.0
609,156.0,156.24687500000002,57.0,105.0
610,156.0,156.26875,60.0,89.0
611,156.1875,156.42031250000002,53.0,80.0
612,156.375,156.509375,57.0,100.0
613,156.75,157.21718750000002,62.0,97.0
614,156.75,157.2671875,57.0,94.0
615,157.5,157.71562500000002,57.0,102.0
616,157.5,157.775,65.0,97.0
617,156.75,158.165625,50.0,94.0
618,158.0625,158.31093750000002,57.0,80.0
619,158.0625,158.37968750000002,62.0,82.0
620,158.4375,158.73906250000002,57.0,82.0
621,158.625,158.853125,62.0,92.0
622,159.0,159.19375000000002,57.0,111.0
623,159.0,159.3140625,65.0,97.0
624,159.0,159.3359375,62.0,100.0
625,158.25,159.34843750000002,50.0,48.0
626,159.375,159.51250000000002,57.0,87.0
627,159.75,160.165625,58.0,68.0
628,159.75,160.2765625,63.0,50.0
629,159.75,160.27812500000002,55.0,69.0
630,159.75,160.58125,51.0,96.0
631,160.875,161.09375,55.0,55.0
632,161.0625,161.140625,58.0,72.0
633,160.5,161.14531250000002,63.0,105.0
634,161.25,161.540625,57.0,82.0
635,161.25,161.7109375,60.0,94.0
636,161.625,162.040625,48.0,55.0
637,161.25,162.13750000000002,41.0,97.0
638,162.0,162.17656250000002,57.0,92.0
639,162.0,162.32656250000002,60.0,100.0
640,162.0,162.4453125,65.0,97.0
641,162.375,162.50625000000002,57.0,30.0
642,162.75,163.08437500000002,58.0,102.0
643,162.75,163.15312500000002,62.0,89.0
644,162.75,163.31875000000002,55.0,87.0
645,163.125,163.59218750000002,50.0,27.0
646,163.5,163.67812500000002,58.0,93.0
647,163.5,163.7265625,62.0,94.0
648,164.0625,164.17031250000002,55.0,108.0
649,164.0625,164.190625,67.0,100.0
650,163.875,164.1984375,50.0,27.0
651,164.25,164.471875,50.0,44.0
652,164.4375,164.6203125,55.0,89.0
653,164.4375,164.6265625,62.0,94.0
654,164.625,165.0625,50.0,76.0
655,162.75,165.1359375,43.0,100.0
656,165.0,165.296875,55.0,87.0
657,165.0,165.31093750000002,58.0,102.0
658,165.0,165.3828125,62.0,102.0
659,165.375,165.6515625,43.0,92.0
660,165.75,165.9921875,55.0,89.0
661,165.75,166.14531250000002,60.0,94.0
662,166.125,166.1890625,55.0,19.0
663,166.5,166.65625,55.0,92.0
664,166.5,166.659375,63.0,90.0
665,167.0625,167.4296875,55.0,78.0
666,167.0625,167.5078125,60.0,87.0
667,167.625,167.828125,55.0,26.0
668,168.0,168.17656250000002,55.0,94.0
669,168.0,168.3296875,60.0,100.0
670,165.75,168.4234375,48.0,87.0
671,168.375,168.53125,55.0,66.0
672,168.75,169.12968750000002,62.0,87.0
673,168.75,169.15625,57.0,100.0
674,169.5,169.6203125,57.0,100.0
675,169.5,169.64375,65.0,105.0
676,170.0625,170.21875,62.0,78.0
677,170.0625,170.22343750000002,57.0,84.0
678,170.4375,170.5484375,57.0,53.0
679,170.625,170.76250000000002,62.0,66.0
680,171.0,171.1171875,62.0,78.0
681,171.0,171.15,57.0,84.0
682,168.75,171.17812500000002,50.0,87.0
683,171.75,172.096875,63.0,85.0
684,171.75,172.1328125,58.0,74.0
685,172.125,172.34062500000002,55.0,49.0
686,172.3125,172.57500000000002,58.0,102.0
687,171.75,172.6875,51.0,90.0
688,172.6875,172.88125000000002,63.0,109.0
689,172.875,172.9484375,58.0,2.0
690,173.25,173.48281250000002,57.0,97.0
691,173.25,173.60781250000002,60.0,100.0
692,173.625,173.90312500000002,57.0,43.0
693,174.0,174.2296875,67.0,105.0
694,173.25,174.41250000000002,45.0,89.0
695,174.1875,174.45625,63.0,79.0
696,174.375,174.59062500000002,57.0,82.0
697,174.75,174.9921875,57.0,92.0
698,174.75,175.15625,62.0,94.0
699,175.125,175.2109375,57.0,22.0
700,175.5,175.6734375,57.0,105.0
701,175.5,175.6953125,66.0,99.0
702,174.75,176.2609375,50.0,89.0
703,176.0625,176.27187500000002,57.0,102.0
704,176.0625,176.31093750000002,62.0,97.0
705,176.4375,176.51875,57.0,47.0
706,176.625,177.07656250000002,57.0,92.0
707,176.625,177.07656250000002,62.0,89.0
708,177.1875,177.34062500000002,57.0,114.0
709,177.1875,177.4390625,62.0,117.0
710,177.375,177.6046875,57.0,84.0
711,177.0,177.765625,50.0,105.0
712,177.75,178.06093750000002,55.0,80.0
713,177.75,178.0875,58.0,72.0
714,177.75,178.10000000000002,63.0,77.0
715,177.75,178.6953125,51.0,90.0
716,178.3125,178.8515625,63.0,99.0
717,178.875,179.01875,58.0,96.0
718,178.6875,179.025,55.0,64.0
719,179.25,179.68437500000002,57.0,89.0
720,179.25,179.9328125,53.0,80.0
721,179.625,180.065625,48.0,32.0
722,179.25,180.15625,41.0,100.0
723,180.0,180.24687500000002,57.0,105.0
724,180.0,180.26875,60.0,89.0
725,180.1875,180.42031250000002,53.0,80.0
726,180.375,180.509375,57.0,100.0
727,180.75,181.21718750000002,62.0,97.0
728,180.75,181.2671875,57.0,94.0
729,181.5,181.71562500000002,57.0,102.0
730,181.5,181.775,65.0,97.0
731,180.75,182.165625,50.0,94.0
732,182.0625,182.31093750000002,57.0,80.0
733,182.0625,182.37968750000002,62.0,82.0
734,182.4375,182.73906250000002,57.0,82.0
735,182.625,182.853125,62.0,92.0
736,183.0,183.19375000000002,57.0,111.0
737,183.0,183.3140625,65.0,97.0
738,183.0,183.3359375,62.0,100.0
739,182.25,183.34843750000002,50.0,48.0
740,183.375,183.51250000000002,57.0,87.0
741,183.75,184.165625,58.0,68.0
742,183.75,184.2765625,63.0,50.0
743,183.75,184.27812500000002,55.0,69.0
744,183.75,184.58125,51.0,96.0
745,184.875,185.09375,55.0,55.0
746,185.0625,185.140625,58.0,72.0
747,184.5,185.14531250000002,63.0,105.0
748,185.25,185.540625,57.0,82.0
749,185.25,185.7109375,60.0,94.0
750,185.625,186.040625,48.0,55.0
751,185.25,186.13750000000002,41.0,97.0
752,186.0,186.17656250000002,57.0,92.0
753,186.0,186.32656250000002,60.0,100.0
754,186.0,186.4453125,65.0,97.0
755,186.375,186.50625000000002,57.0,30.0
756,186.75,187.08437500000002,58.0,102.0
757,186.75,187.15312500000002,62.0,89.0
758,186.75,187.31875000000002,55.0,87.0
759,187.125,187.59218750000002,50.0,27.0
760,187.5,187.67812500000002,58.0,93.0
761,187.5,187.7265625,62.0,94.0
762,188.0625,188.17031250000002,55.0,108.0
763,188.0625,188.190625,67.0,100.0
764,187.875,188.1984375,50.0,27.0
765,188.25,188.471875,50.0,44.0
766,188.4375,188.6203125,55.0,89.0
767,188.4375,188.6265625,62.0,94.0
768,188.625,189.0625,50.0,76.0
769,186.75,189.1359375,43.0,100.0
770,189.0,189.296875,55.0,87.0
771,189.0,189.31093750000002,58.0,102.0
772,189.0,189.3828125,62.0,102.0
773,189.375,189.6515625,43.0,92.0
774,189.75,189.9921875,55.0,89.0
775,189.75,190.14531250000002,60.0,94.0
776,190.125,190.1890625,55.0,19.0
777,190.5,190.65625,55.0,92.0
778,190.5,190.659375,63.0,90.0
779,191.0625,191.4296875,55.0,78.0
780,191.0625,191.5078125,60.0,87.0
781,191.625,191.828125,55.0,26.0
782,192.0,192.17656250000002,55.0,94.0
783,192.0,192.3296875,60.0,100.0
784,189.75,192.4234375,48.0,87.0
785,192.375,192.53125,55.0,66.0
786,192.75,193.12968750000002,62.0,87.0
787,192.75,193.15625,57.0,100.0
788,193.5,193.6203125,57.0,100.0
789,193.5,193.64375,65.0,105.0
790,194.0625,194.21875,62.0,78.0
791,194.0625,194.22343750000002,57.0,84.0
792,194.4375,194.5484375,57.0,53.0
793,194.625,194.76250000000002,62.0,66.0
794,195.0,195.1171875,62.0,78.0
795,195.0,195.15,57.0,84.0
796,192.75,195.17812500000002,50.0,87.0
797,195.75,196.1953125,58.0,65.0
798,195.75,196.20781250000002,63.0,63.0
799,195.75,196.69218750000002,51.0,99.0
800,196.3125,196.7140625,58.0,85.0
801,196.6875,196.94218750000002,55.0,84.0
802,196.875,197.03125,58.0,93.0
803,197.25,197.5078125,57.0,84.0
804,197.25,197.69218750000002,62.0,97.0
805,197.625,197.86875,57.0,87.0
806,197.25,198.175,50.0,97.0
807,198.0,198.19375000000002,57.0,92.0
808,198.0,198.3453125,62.0,97.0
809,198.0,198.3703125,65.0,100.0
810,198.375,198.525,57.0,100.0
811,198.75,199.13750000000002,58.0,54.0
812,198.75,199.16875000000002,62.0,84.0
813,198.75,199.34843750000002,55.0,73.0
814,199.125,199.609375,50.0,30.0
815,199.5,199.86562500000002,58.0,87.0
816,199.5,199.86875,62.0,94.0
817,199.875,200.17656250000002,50.0,51.0
818,200.0625,200.5109375,67.0,94.0
819,200.625,200.853125,58.0,93.0
820,200.4375,200.859375,55.0,89.0
821,198.75,201.20781250000002,43.0,100.0
822,200.25,201.22343750000002,50.0,89.0
823,201.0,201.2359375,55.0,89.0
824,201.0,201.27812500000002,62.0,97.0
825,201.0,201.29375000000002,58.0,99.0
826,201.375,201.56875000000002,55.0,64.0
827,201.75,202.1671875,60.0,94.0
828,201.75,202.2734375,57.0,97.0
829,202.125,202.6125,52.0,44.0
830,202.5,202.7046875,64.0,94.0
831,202.5,202.76875,60.0,102.0
832,202.5,202.909375,57.0,100.0
833,202.875,203.1828125,52.0,40.0
834,203.0625,203.31718750000002,57.0,100.0
835,203.0625,203.3453125,69.0,102.0
836,203.25,203.525,52.0,69.0
837,203.625,203.85781250000002,60.0,100.0
838,203.4375,203.859375,57.0,89.0
839,201.75,203.89531250000002,45.0,100.0
840,204.0,204.2453125,57.0,82.0
841,204.0,204.284375,64.0,89.0
842,204.0,204.28750000000002,60.0,92.0
843,204.375,204.43437500000002,60.0,67.0
844,204.0,204.759375,52.0,87.0
845,204.75,204.759375,52.0,94.0
846,204.375,204.7671875,57.0,117.0
847,204.0,204.77187500000002,45.0,89.0
848,204.75,205.21718750000002,64.0,97.0
849,204.75,205.2671875,59.0,94.0
850,205.5,205.71562500000002,59.0,102.0
851,205.5,205.775,67.0,97.0
852,206.0625,206.31093750000002,59.0,80.0
853,206.0625,206.37968750000002,64.0,82.0
854,206.4375,206.73906250000002,59.0,82.0
855,206.625,206.853125,64.0,92.0
856,207.0,207.19375000000002,59.0,111.0
857,207.0,207.3140625,67.0,97.0
858,207.0,207.3359375,64.0,100.0
859,206.25,207.34843750000002,52.0,48.0
860,207.375,207.51250000000002,59.0,87.0
861,207.75,208.165625,60.0,68.0
862,207.75,208.2765625,65.0,50.0
863,207.75,208.27812500000002,57.0,69.0
864,207.75,208.58125,53.0,96.0
865,208.875,209.09375,57.0,55.0
866,209.0625,209.140625,60.0,72.0
867,208.5,209.14531250000002,65.0,105.0
868,209.25,209.540625,59.0,82.0
869,209.25,209.7109375,62.0,94.0
870,209.625,210.040625,50.0,55.0
871,209.25,210.13750000000002,43.0,97.0
872,210.0,210.17656250000002,59.0,92.0
873,210.0,210.32656250000002,62.0,100.0
874,210.0,210.4453125,67.0,97.0
875,210.375,210.50625000000002,59.0,30.0
876,210.75,211.08437500000002,60.0,102.0
877,210.75,211.15312500000002,64.0,89.0
878,210.75,211.31875000000002,57.0,87.0
879,211.125,211.59218750000002,52.0,27.0
880,211.5,211.67812500000002,60.0,93.0
881,211.5,211.7265625,64.0,94.0
882,212.0625,212.17031250000002,57.0,108.0
883,212.0625,212.190625,69.0,100.0
884,211.875,212.1984375,52.0,27.0
885,212.25,212.471875,52.0,44.0
886,212.4375,212.6203125,57.0,89.0
887,212.4375,212.6265625,64.0,94.0
888,212.625,213.0625,52.0,76.0
889,210.75,213.1359375,45.0,100.0
890,213.0,213.296875,57.0,87.0
891,213.0,213.31093750000002,60.0,102.0
892,213.0,213.3828125,64.0,102.0
893,213.375,213.6515625,45.0,92.0
894,213.75,213.9921875,57.0,89.0
895,213.75,214.14531250000002,62.0,94.0
896,214.125,214.1890625,57.0,19.0
897,214.5,214.65625,57.0,92.0
898,214.5,214.659375,65.0,90.0
899,215.0625,215.4296875,57.0,78.0
900,215.0625,215.5078125,62.0,87.0
901,215.625,215.828125,57.0,26.0
902,216.0,216.17656250000002,57.0,94.0
903,216.0,216.3296875,62.0,100.0
904,213.75,216.4234375,50.0,87.0
905,216.375,216.53125,57.0,66.0
906,216.75,217.12968750000002,64.0,87.0
907,216.75,217.15625,59.0,100.0
908,217.5,217.6203125,59.0,100.0
909,217.5,217.64375,67.0,105.0
910,218.0625,218.21875,64.0,78.0
911,218.0625,218.22343750000002,59.0,84.0
912,218.4375,218.5484375,59.0,53.0
913,218.625,218.76250000000002,64.0,66.0
914,219.0,219.1171875,64.0,78.0
915,219.0,219.15,59.0,84.0
916,216.75,219.17812500000002,52.0,87.0
917,219.75,220.096875,65.0,85.0
918,219.75,220.1328125,60.0,74.0
919,220.125,220.34062500000002,57.0,49.0
920,220.3125,220.57500000000002,60.0,102.0
921,219.75,220.6875,53.0,90.0
922,220.6875,220.88125000000002,65.0,109.0
923,220.875,220.9484375,60.0,2.0
924,221.25,221.48281250000002,59.0,97.0
925,221.25,221.60781250000002,62.0,100.0
926,221.625,221.90312500000002,59.0,43.0
927,222.0,222.2296875,69.0,105.0
928,221.25,222.41250000000002,47.0,89.0
929,222.1875,222.45625,65.0,79.0
930,222.375,222.59062500000002,59.0,82.0
931,222.75,222.9921875,59.0,92.0
932,222.75,223.15625,64.0,94.0
933,223.125,223.2109375,59.0,22.0
934,223.5,223.6734375,59.0,105.0
935,223.5,223.6953125,68.0,99.0
936,222.75,224.2609375,52.0,89.0
937,224.0625,224.27187500000002,59.0,102.0
938,224.0625,224.31093750000002,64.0,97.0
939,224.4375,224.51875,59.0,47.0
940,224.625,225.07656250000002,59.0,92.0
941,224.625,225.07656250000002,64.0,89.0
942,225.1875,225.34062500000002,59.0,114.0
943,225.1875,225.4390625,64.0,117.0
944,225.375,225.6046875,59.0,84.0
945,225.0,225.765625,52.0,105.0
946,225.75,226.06093750000002,57.0,80.0
947,225.75,226.0875,60.0,72.0
948,225.75,226.10000000000002,65.0,77.0
949,225.75,226.6953125,53.0,90.0
950,226.3125,226.8515625,65.0,99.0
951,226.875,227.01875,60.0,96.0
952,226.6875,227.025,57.0,64.0
953,227.25,227.68437500000002,59.0,89.0
954,227.25,227.9328125,55.0,80.0
955,227.625,228.065625,50.0,32.0
956,227.25,228.15625,43.0,100.0
957,228.0,228.24687500000002,59.0,105.0
958,228.0,228.26875,62.0,89.0
959,228.1875,228.42031250000002,55.0,80.0
960,228.375,228.509375,59.0,100.0
961,228.75,229.21718750000002,64.0,97.0
962,228.75,229.2671875,59.0,94.0
963,229.5,229.71562500000002,59.0,102.0
964,229.5,229.775,67.0,97.0
965,228.75,230.165625,52.0,94.0
966,230.0625,230.31093750000002,59.0,80.0
967,230.0625,230.37968750000002,64.0,82.0
968,230.4375,230.73906250000002,59.0,82.0
969,230.625,230.853125,64.0,92.0
970,231.0,231.19375000000002,59.0,111.0
971,231.0,231.3140625,67.0,97.0
972,231.0,231.3359375,64.0,100.0
973,230.25,231.34843750000002,52.0,48.0
974,231.375,231.51250000000002,59.0,87.0
975,231.75,232.165625,60.0,68.0
976,231.75,232.2765625,65.0,50.0
977,231.75,232.27812500000002,57.0,69.0
978,231.75,232.58125,53.0,96.0
979,232.875,233.09375,57.0,55.0
980,233.0625,233.140625,60.0,72.0
981,232.5,233.14531250000002,65.0,105.0
982,233.25,233.540625,59.0,82.0
983,233.25,233.7109375,62.0,94.0
984,233.625,234.040625,50.0,55.0
985,233.25,234.13750000000002,43.0,97.0
986,234.0,234.17656250000002,59.0,92.0
987,234.0,234.32656250000002,62.0,100.0
988,234.0,234.4453125,67.0,97.0
989,234.375,234.50625000000002,59.0,30.0
990,234.75,235.08437500000002,60.0,102.0
991,234.75,235.15312500000002,64.0,89.0
992,234.75,235.31875000000002,57.0,87.0
993,235.125,235.59218750000002,52.0,27.0
994,235.5,235.67812500000002,60.0,93.0
995,235.5,235.7265625,64.0,94.0
996,236.0625,236.17031250000002,57.0,108.0
997,236.0625,236.190625,69.0,100.0
998,235.875,236.1984375,52.0,27.0
999,236.25,236.471875,52.0,44.0
1000,236.4375,236.6203125,57.0,89.0
1001,236.4375,236.6265625,64.0,94.0
1002,236.625,237.0625,52.0,76.0
1003,234.75,237.1359375,45.0,100.0
1004,237.0,237.296875,57.0,87.0
1005,237.0,237.31093750000002,60.0,102.0
1006,237.0,237.3828125,64.0,102.0
1007,237.375,237.6515625,45.0,92.0
1008,237.75,237.9921875,57.0,89.0
1009,237.75,238.14531250000002,62.0,94.0
1010,238.125,238.1890625,57.0,19.0
1011,238.5,238.65625,57.0,92.0
1012,238.5,238.659375,65.0,90.0
1013,239.0625,239.4296875,57.0,78.0
1014,239.0625,239.5078125,62.0,87.0
1015,239.625,239.828125,57.0,26.0
1016,240.0,240.17656250000002,57.0,94.0
1017,240.0,240.3296875,62.0,100.0
1018,237.75,240.4234375,50.0,87.0
1019,240.375,240.53125,57.0,66.0
1020,240.75,241.12968750000002,64.0,87.0
1021,240.75,241.15625,59.0,100.0
1022,241.5,241.6203125,59.0,100.0
1023,241.5,241.64375,67.0,105.0
1024,242.0625,242.21875,64.0,78.0
1025,242.0625,242.22343750000002,59.0,84.0
1026,242.4375,242.5484375,59.0,53.0
1027,242.625,242.76250000000002,64.0,66.0
1028,243.0,243.1171875,64.0,78.0
1029,243.0,243.15,59.0,84.0
1030,240.75,243.17812500000002,52.0,87.0
1031,243.75,244.1953125,60.0,65.0
1032,243.75,244.20781250000002,65.0,63.0
1033,243.75,244.69218750000002,53.0,99.0
1034,244.3125,244.7140625,60.0,85.0
1035,244.6875,244.94218750000002,57.0,84.0
1036,244.875,245.03125,60.0,93.0
1037,245.25,245.5078125,59.0,84.0
1038,245.25,245.69218750000002,64.0,97.0
1039,245.625,245.86875,59.0,87.0
1040,245.25,246.175,52.0,97.0
1041,246.0,246.19375000000002,59.0,92.0
1042,246.0,246.3453125,64.0,97.0
1043,246.0,246.3703125,67.0,100.0
1044,246.375,246.525,59.0,100.0
1045,246.75,247.13750000000002,60.0,54.0
1046,246.75,247.16875000000002,64.0,84.0
1047,246.75,247.34843750000002,57.0,73.0
1048,247.125,247.609375,52.0,30.0
1049,247.5,247.86562500000002,60.0,87.0
1050,247.5,247.86875,64.0,94.0
1051,247.875,248.17656250000002,52.0,51.0
1052,248.0625,248.5109375,69.0,94.0
1053,248.625,248.853125,60.0,93.0
1054,248.4375,248.859375,57.0,89.0
1055,246.75,249.20781250000002,45.0,100.0
1056,248.25,249.22343750000002,52.0,89.0
1057,249.0,249.2359375,57.0,89.0
1058,249.0,249.27812500000002,64.0,97.0
1059,249.0,249.29375000000002,60.0,99.0
1060,249.375,249.56875000000002,57.0,64.0
1061,249.753125,249.971875,57.0,94.0
1062,249.75625000000002,250.1515625,60.0,92.0
1063,250.09375,250.30625,57.0,53.0
1064,249.77187500000002,250.4328125,41.0,97.0
1065,250.49843750000002,251.19218750000002,60.0,97.0
1066,250.8453125,251.2140625,57.0,62.0
1067,250.503125,251.390625,65.0,97.0
1068,251.2921875,256.0890625,52.0,100.0
1069,251.5734375,256.121875,59.0,69.0
1070,251.83281250000002,257.003125,62.0,82.0
1071,252.109375,257.00625,67.0,84.0
1072,252.3984375,257.00625,71.0,69.0
1073,257.25,257.521875,57.0,82.0
1074,257.25,257.5703125,62.0,94.0
1075,257.8125,257.96875,57.0,94.0
1076,257.8125,258.00937500000003,65.0,77.0
1077,257.25,258.50937500000003,50.0,94.0
1078,258.375,258.7703125,57.0,78.0
1079,258.375,258.8,62.0,87.0
1080,258.9375,259.153125,57.0,92.0
1081,258.9375,259.3203125,62.0,94.0
1082,259.3125,259.4109375,57.0,64.0
1083,259.5,259.7453125,57.0,94.0
1084,259.5,259.8875,62.0,102.0
1085,259.5,259.9484375,50.0,87.0
1086,259.875,260.0421875,57.0,60.0
1087,260.25,260.6125,64.0,89.0
1088,260.25,260.6484375,57.0,87.0
1089,260.8125,261.0140625,64.0,94.0
1090,260.8125,261.0375,60.0,99.0
1091,261.375,261.7015625,64.0,92.0
1092,261.375,261.73125,57.0,94.0
1093,261.9375,261.9765625,57.0,57.0
1094,261.75,262.0109375,52.0,47.0
1095,261.9375,262.221875,64.0,97.0
1096,261.9375,262.25156250000003,60.0,105.0
1097,262.3125,262.4140625,57.0,64.0
1098,262.125,262.534375,52.0,35.0
1099,260.25,262.65625,45.0,78.0
1100,262.5,262.76875,60.0,102.0
1101,262.5,262.796875,64.0,97.0
1102,262.5,262.8078125,57.0,94.0
1103,262.875,263.1140625,45.0,94.0
1104,263.25,263.7140625,57.0,89.0
1105,263.25,263.72031250000003,62.0,94.0
1106,264.0,264.3125,57.0,80.0
1107,264.0,264.340625,62.0,94.0
1108,264.0,264.3828125,65.0,82.0
1109,264.5625,264.83750000000003,57.0,92.0
1110,264.5625,264.9484375,62.0,102.0
1111,264.9375,265.084375,57.0,73.0
1112,265.125,265.17343750000003,57.0,38.0
1113,265.125,265.2703125,62.0,89.0
1114,263.25,265.6328125,50.0,84.0
1115,265.5,265.8890625,57.0,105.0
1116,265.5,265.91875,62.0,105.0
1117,265.875,266.09701345416664,50.0,80.0
1118,266.25524137083335,266.7014440958333,52.0,76.0
1119,266.25840592916666,266.7109377708333,59.0,84.0
1120,266.2520768125,266.91030494583333,40.0,102.0
1121,266.63498837083336,266.91346950416664,47.0,64.0
1122,267.3931499125,267.8826420020833,56.0,85.0
1123,267.0609129375,268.31319738541663,52.0,102.0
1124,267.7977553375,268.33229459999995,59.0,80.0
1125,268.5180584145833,270.53541871875,52.0,66.0
1126,268.53368340833333,270.72465475416664,71.0,57.0
1127,268.54583618124997,270.7680575145833,64.0,49.0
1128,271.13090459166665,273.54409807083334,52.0,57.0
1129,270.84444637291665,273.5822925,45.0,94.0
1130,271.58923774166664,273.644792475,60.0,64.0
1131,271.8201404270833,273.6638896895833,64.0,40.0
1132,271.3618072770833,273.6743063520833,57.0,49.0
1133,272.12569586041667,273.6899313458333,69.0,40.0
