,start,end,pitch,velocity
0,1.6007230166666668,2.0620609625000004,62.0,47.0
1,1.2816420166666669,2.28142915,57.0,35.0
2,2.557966016666667,2.960805779166667,57.0,32.0
3,0.9625610166666668,2.9794188375000004,50.0,63.0
4,3.036587516666667,3.4899484375000003,62.0,34.0
5,1.760263516666667,3.7398952208333336,69.0,70.0
6,2.877047016666667,3.754519766666667,66.0,54.0
7,3.834290016666667,4.835406654166667,61.0,38.0
8,5.110614016666667,5.383162370833334,61.0,27.0
9,4.153371016666667,5.470909645833334,62.0,37.0
10,3.515209016666667,5.473568654166667,49.0,37.0
11,5.7487760166666675,6.118378175000001,62.0,34.0
12,5.429695016666667,6.454742729166667,66.0,57.0
13,4.472452016666667,6.707348520833334,69.0,69.0
14,6.7060190166666676,7.108858779166668,66.0,54.0
15,6.386938016666667,7.188629029166667,62.0,41.0
16,6.067857016666667,7.699158629166668,47.0,46.0
17,7.663262016666668,8.79068155,62.0,46.0
18,8.301424016666667,9.373004375,66.0,45.0
19,7.025100016666667,9.382310904166667,69.0,86.0
20,8.939586016666668,10.049721995833334,61.0,46.0
21,9.577748016666668,10.410017625000002,69.0,73.0
22,10.215910016666667,10.612102258333335,61.0,37.0
23,8.620505016666668,10.650657879166667,49.0,38.0
24,9.258667016666667,11.243616737500002,64.0,38.0
25,10.534991016666668,11.247605250000001,69.0,52.0
26,11.492234016666668,12.485373629166668,57.0,58.0
27,11.173153016666667,13.035788354166668,50.0,70.0
28,12.768558016666669,13.051742404166667,57.0,38.0
29,11.811315016666668,13.205964887500002,62.0,52.0
30,13.406720016666668,13.810889283333335,62.0,48.0
31,13.087639016666667,14.121993258333335,66.0,47.0
32,12.130396016666667,14.232342104166667,69.0,93.0
33,14.044882016666667,15.006113529166669,61.0,44.0
34,15.321206016666668,15.623003462500002,61.0,41.0
35,13.725801016666669,15.761271895833335,49.0,51.0
36,14.363963016666668,15.774566937500001,66.0,44.0
37,15.959368016666668,16.27844901666667,66.0,38.0
38,15.640287016666669,16.323652158333335,73.0,59.0
39,14.683044016666669,16.335617695833335,69.0,78.0
40,16.27844901666667,18.716759658333334,43.0,42.0
41,16.597530016666667,18.901560737500002,50.0,30.0
42,16.916611016666668,19.17809760416667,55.0,40.0
43,17.87385401666667,19.602209433333336,71.0,45.0
44,17.23569201666667,19.695274725,67.0,48.0
45,19.46925901666667,20.313494162500003,55.0,60.0
46,20.26696151666667,20.313494162500003,55.0,54.0
47,18.831097016666668,20.828012275000003,43.0,47.0
48,19.15017801666667,20.838648308333337,50.0,29.0
49,21.06466401666667,21.38374501666667,62.0,47.0
50,20.745583016666668,21.38374501666667,67.0,62.0
51,19.78834001666667,21.38374501666667,71.0,72.0
52,22.02190701666667,22.729203233333337,59.0,42.0
53,22.50052851666667,23.29823101666667,66.0,41.0
54,22.97915001666667,23.31418506666667,59.0,68.0
55,21.70282601666667,23.371353745833336,54.0,35.0
56,21.38374501666667,23.4085798625,47.0,62.0
57,22.340988016666667,23.8991669,71.0,72.0
58,23.61731201666667,23.941711033333338,66.0,46.0
59,23.29823101666667,23.951017562500002,62.0,67.0
60,24.574555016666668,25.361621483333337,57.0,45.0
61,24.255474016666668,25.386882062500003,52.0,52.0
62,25.53179801666667,25.852208520833337,52.0,35.0
63,23.93639301666667,25.90272967916667,45.0,64.0
64,25.21271701666667,26.46909845416667,61.0,44.0
65,24.89363601666667,26.482393495833335,64.0,85.0
66,25.85087901666667,26.56083424166667,57.0,55.0
67,27.12720301666667,27.95681361666667,55.0,60.0
68,28.08444601666667,28.382254950000004,55.0,38.0
69,26.48904101666667,28.41549255416667,43.0,69.0
70,26.80812201666667,28.432776108333336,50.0,56.0
71,27.44628401666667,29.04168901666667,59.0,70.0
72,28.40352701666667,29.04168901666667,62.0,61.0
73,29.67985101666667,30.450963433333335,55.0,50.0
74,30.63709401666667,30.89235881666667,55.0,53.0
75,29.04168901666667,30.90033584166667,43.0,58.0
76,29.36077001666667,30.950857000000003,50.0,39.0
77,30.95617501666667,31.517225775000004,62.0,56.0
78,29.99893201666667,31.55046337916667,67.0,63.0
79,31.27525601666667,31.652835200000002,59.0,51.0
80,32.23249901666667,32.895921595833336,54.0,48.0
81,31.59433701666667,33.954206912500005,42.0,67.0
82,31.91341801666667,34.112417908333335,49.0,34.0
83,33.18974201666667,34.28259444166667,54.0,36.0
84,32.55158001666667,34.943358012500006,66.0,78.0
85,33.50882301666667,35.032434791666674,61.0,51.0
86,34.78514701666667,35.452558108333335,54.0,42.0
87,33.82790401666667,35.50839728333334,57.0,44.0
88,34.46606601666667,35.99765481666667,49.0,35.0
89,34.14698501666667,36.0122793625,42.0,38.0
90,35.74239001666667,36.14655928333334,54.0,58.0
91,36.38055201666667,36.68234946250001,57.0,59.0
92,36.06147101666667,36.69165599166667,61.0,42.0
93,35.10422801666667,36.722234587500004,66.0,85.0
94,37.01871401666667,37.46276840833334,54.0,56.0
95,36.699633016666674,37.50797155,47.0,64.0
96,37.33779501666667,37.92410635416667,66.0,99.0
97,37.65687601666667,37.99988809166667,59.0,56.0
98,37.97595701666667,38.86938381666667,45.0,59.0
99,38.29503801666667,39.2988136625,57.0,41.0
100,38.61411901666667,39.325403745833334,64.0,73.0
101,39.89044301666667,40.70808807916667,55.0,47.0
102,39.41182151666667,41.07769023750001,50.0,44.0
103,39.09274051666667,41.1335294125,43.0,55.0
104,40.84768601666667,41.14815395833334,55.0,47.0
105,41.16676701666667,41.79030447083334,62.0,65.0
106,40.20952401666667,41.87273372916667,67.0,77.0
107,41.48584801666667,41.91261885416667,59.0,59.0
108,42.44309101666667,43.23813450833334,52.0,77.0
109,41.80492901666667,43.742016587500004,40.0,58.0
110,42.12401001666667,43.79120824166667,47.0,44.0
111,43.40033401666667,43.861671962500004,52.0,52.0
112,43.71941501666667,44.336304950000006,64.0,66.0
113,42.762172016666675,44.34162296666667,67.0,76.0
114,44.03849601666667,44.400121150000004,59.0,58.0
115,44.99573901666667,45.56476680000001,57.0,70.0
116,44.67665801666667,45.716330275000004,52.0,59.0
117,45.952982016666674,46.26807450416667,52.0,42.0
118,44.357577016666674,46.27605152916667,45.0,65.0
119,46.27206301666667,46.90623650416667,61.0,73.0
120,45.31482001666667,46.9088955125,64.0,88.0
121,46.591144016666675,46.989995266666675,57.0,63.0
122,47.54838701666667,48.24770620833334,50.0,63.0
123,46.91022501666667,48.86193713333334,38.0,63.0
124,47.22930601666667,48.891186225000006,45.0,36.0
125,48.50563001666667,48.891186225000006,50.0,35.0
126,48.82471101666667,49.47483855416667,62.0,64.0
127,47.86746801666667,49.497440125000004,66.0,82.0
128,49.14379201666667,49.52934822500001,57.0,42.0
129,50.10103501666667,50.66873329583334,57.0,51.0
130,50.420116016666675,50.82295577916667,61.0,52.0
131,49.781954016666674,50.88810148333334,52.0,45.0
132,51.05827801666667,51.50233240833334,52.0,33.0
133,49.46287301666667,51.55418307083334,45.0,52.0
134,51.377359016666674,51.92511473333334,61.0,50.0
135,50.73919701666667,51.95037531250001,64.0,72.0
136,51.69644001666667,52.015521016666675,57.0,57.0
137,52.65368301666667,53.41681840833334,50.0,55.0
138,52.97276401666667,53.97388065416667,57.0,63.0
139,52.015521016666675,54.39799248333334,38.0,64.0
140,52.33460201666667,54.57747554583334,45.0,39.0
141,53.610926016666674,54.63597372916667,50.0,52.0
142,53.29184501666667,55.32731589583334,66.0,99.0
143,54.249088016666676,55.36587151666667,57.0,79.0
144,53.93000701666667,55.60119375416667,62.0,58.0
145,55.206331016666674,55.964148391666676,50.0,50.0
146,54.56816901666667,56.450746916666674,38.0,60.0
147,55.52541201666667,56.47201898333334,57.0,65.0
148,54.88725001666667,56.499938570833336,45.0,39.0
149,56.16357401666667,56.598321879166676,50.0,55.0
150,55.844493016666675,56.896130812500004,66.0,102.0
151,56.80173601666667,57.16469065416667,57.0,85.0
152,56.482655016666676,57.280357516666676,62.0,66.0
153,57.75897901666667,58.55136350000001,55.0,74.0
154,58.078060016666676,59.06455210833334,59.0,63.0
155,57.12081701666667,59.55646865000001,43.0,67.0
156,57.439898016666675,59.75323526666667,50.0,59.0
157,58.71622201666667,60.052373704166676,55.0,58.0
158,59.35438401666667,60.38474974583334,59.0,74.0
159,58.39714101666667,60.72776182083334,67.0,86.0
160,59.035303016666674,60.76365843333334,62.0,67.0
161,60.630708016666674,61.09470497083334,59.0,79.0
162,60.31162701666668,61.11863604583334,55.0,59.0
163,59.673465016666675,61.686334325000004,43.0,58.0
164,59.99254601666667,61.719571929166676,50.0,51.0
165,60.94978901666667,61.72090143333334,62.0,86.0
166,61.268870016666675,61.86049937083334,55.0,82.0
167,60.94978901666667,62.18888690000001,67.0,92.0
168,61.907032016666676,62.26466863750001,62.0,85.0
169,61.58795101666667,62.29125872083334,59.0,92.0
170,63.18335601666667,63.55162867083334,62.0,48.0
171,62.54519401666667,63.65798900416667,54.0,57.0
172,62.864275016666674,63.89065223333334,59.0,59.0
173,63.82151801666667,64.14724653750001,54.0,56.0
174,62.22611301666667,64.14990554583333,47.0,72.0
175,63.502437016666676,64.74020539583334,66.0,112.0
176,64.14059901666667,64.81066911666667,62.0,73.0
177,64.45968001666667,64.87049680416668,59.0,83.0
178,65.73600401666667,66.12288972916667,61.0,49.0
179,65.09784201666668,66.20531898750001,52.0,63.0
180,66.37416601666668,66.68925850416667,52.0,65.0
181,65.41692301666667,66.7078715625,57.0,63.0
182,64.77876101666668,66.73180263750001,45.0,79.0
183,66.53370651666667,67.21042413750001,61.0,97.0
184,66.05508501666668,67.33938604166667,64.0,93.0
185,67.01232801666667,67.35401058750001,57.0,99.0
186,67.96957101666668,68.77259153333334,55.0,85.0
187,68.28865201666667,69.30838171250001,59.0,78.0
188,67.33140901666667,69.78168519583335,43.0,83.0
189,67.65049001666668,69.98376982916668,50.0,58.0
190,68.92681401666667,70.28423777083334,55.0,63.0
191,69.56497601666668,70.68840703750001,59.0,72.0
192,68.60773301666667,70.91974076250001,67.0,93.0
193,69.24589501666668,70.94766035,62.0,72.0
194,70.52221901666667,71.27737738333335,55.0,74.0
195,69.88405701666667,71.60975342500001,43.0,67.0
196,70.20313801666667,71.62570747500001,50.0,56.0
197,71.47946201666667,71.64299102916668,55.0,74.0
198,70.84130001666668,71.81582657083334,59.0,55.0
199,71.16038101666668,72.3077431125,67.0,95.0
200,71.79854301666667,72.34098071666668,62.0,96.0
201,72.11762401666668,72.51514576250001,59.0,81.0
202,73.07486701666667,73.84066141666668,54.0,86.0
203,73.39394801666667,74.40703019166668,57.0,65.0
204,72.43670501666668,74.85241408750001,42.0,81.0
205,72.75578601666668,75.02259062083334,49.0,46.0
206,74.03211001666668,75.32571757083335,54.0,68.0
207,74.67027201666667,75.80832758333334,57.0,88.0
208,74.19165051666667,75.94792552083334,61.0,92.0
209,73.71302901666668,76.05162684583334,66.0,112.0
210,75.94659601666667,76.39065040833334,57.0,72.0
211,75.62751501666668,76.39862743333335,54.0,86.0
212,75.30843401666668,76.76424107916668,49.0,57.0
213,74.98935301666667,76.8027967,42.0,62.0
214,76.58475801666667,76.90383901666668,54.0,68.0
215,76.26567701666667,77.05540249166667,61.0,86.0
216,77.38246051666667,77.45691275000001,54.0,26.0
217,77.22292001666668,77.52737647083335,61.0,76.0
218,76.90383901666668,77.58188614166667,57.0,90.0
219,76.26567701666667,77.7879592875,66.0,90.0
220,77.86108201666667,78.25594475416668,54.0,55.0
221,78.49924401666668,78.77046286666668,66.0,107.0
222,77.54200101666667,78.7850874125,47.0,78.0
223,78.18016301666667,78.7930644375,59.0,77.0
224,78.81832501666668,79.59874396250001,45.0,75.0
225,79.77556801666668,80.10927356250001,61.0,44.0
226,79.13740601666667,80.12522761250001,57.0,85.0
227,79.45648701666667,80.1411816625,64.0,90.0
228,80.73281101666667,81.56508062500001,55.0,82.0
229,81.69005401666668,82.01977105,55.0,61.0
230,80.41373001666668,82.07029220833334,50.0,51.0
231,81.05189201666667,82.07295121666668,59.0,66.0
232,80.09464901666668,82.15670997916668,43.0,62.0
233,82.00913501666668,82.56486775833334,62.0,88.0
234,81.37097301666668,82.59810536250001,67.0,93.0
235,82.32821601666667,82.67255759583334,59.0,70.0
236,83.28545901666668,84.10842209583335,52.0,77.0
237,83.60454001666668,84.61097467083334,59.0,62.0
238,82.64729701666667,85.04705203750001,40.0,93.0
239,83.92362101666667,85.22919410833335,67.0,93.0
240,84.56178301666668,85.24913667083334,64.0,72.0
241,82.96637801666668,85.25977270416668,47.0,60.0
242,84.88086401666668,85.39405262500001,59.0,73.0
243,84.24270201666667,85.57885370416668,52.0,66.0
244,86.15718801666668,86.56002777916667,55.0,63.0
245,85.83810701666668,86.61054893750001,52.0,62.0
246,85.19994501666667,87.02668374166667,40.0,67.0
247,85.51902601666667,87.053273825,47.0,49.0
248,86.79535001666667,87.1928717625,52.0,70.0
249,86.47626901666668,87.244722425,59.0,85.0
250,87.11443101666667,87.60900656666668,55.0,99.0
251,87.43351201666668,87.68478830416667,59.0,95.0
252,86.47626901666668,87.78981913333334,64.0,96.0
253,88.39075501666667,88.91059114583334,57.0,83.0
254,88.70983601666667,89.08342668750001,61.0,76.0
255,88.07167401666668,89.13660685416667,52.0,38.0
256,87.75259301666668,90.12442845000001,45.0,82.0
257,89.34799801666668,90.32385407500001,52.0,66.0
258,89.98616001666667,90.32784258750002,57.0,93.0
259,89.66707901666668,90.40761283750001,61.0,96.0
260,89.02891701666668,90.41160135000001,64.0,90.0
261,90.94340301666668,92.18117139583335,57.0,89.0
262,91.26248401666668,92.77147124583334,61.0,69.0
263,90.62432201666668,92.78210727916668,52.0,42.0
264,91.26248401666668,92.80337934583335,64.0,66.0
265,90.30524101666667,92.83661695,45.0,89.0
266,93.49605101666668,94.28178797916668,50.0,95.0
267,93.81513201666668,94.44531699166667,57.0,81.0
268,93.17697001666667,94.6194820375,45.0,41.0
269,92.85788901666668,94.62480005416668,38.0,86.0
270,94.13421301666668,94.88272386250001,66.0,127.0
271,94.45329401666667,94.88804187916668,50.0,79.0
272,94.77237501666667,95.57938404583335,57.0,95.0
273,95.09145601666668,95.64320024583334,66.0,100.0
274,95.72961801666668,96.11783323333334,61.0,63.0
275,96.36778001666667,96.79056234166667,61.0,88.0
276,96.04869901666667,97.37155566250001,66.0,102.0
277,96.68686101666668,97.41144078750001,69.0,73.0
278,97.00594201666668,97.46462095416668,57.0,53.0
279,95.41053701666668,97.49254054166667,49.0,90.0
280,97.32502301666668,97.78503145833335,61.0,92.0
281,97.64410401666667,98.22243832916668,66.0,96.0
282,98.60134701666668,98.97227867916668,59.0,88.0
283,98.92042801666668,99.30465472083334,62.0,85.0
284,98.28226601666668,99.43893464166668,54.0,39.0
285,97.96318501666667,100.33103193750001,47.0,68.0
286,99.55859001666667,100.45201681666667,54.0,92.0
287,99.87767101666668,100.53577557916668,62.0,99.0
288,99.23950901666667,100.55970665416667,66.0,127.0
289,100.19675201666668,100.59161475416668,59.0,82.0
290,101.47307601666668,101.87990429166668,62.0,92.0
291,101.15399501666668,101.986264625,59.0,88.0
292,102.11123801666668,102.30002760833334,59.0,90.0
293,100.83491401666667,102.32661769166668,54.0,92.0
294,100.51583301666668,102.36118480000002,47.0,86.0
295,101.79215701666668,102.49679422500002,66.0,102.0
296,102.74940001666668,103.15489878750002,66.0,117.0
297,101.79215701666668,103.16553482083334,71.0,99.0
298,102.43031901666667,103.18813639166667,62.0,107.0
299,104.02572401666667,104.44717683750001,59.0,85.0
300,103.70664301666667,104.49105047500001,55.0,89.0
301,104.66388601666668,104.90319676666668,55.0,86.0
302,103.38756201666668,104.92313932916667,50.0,47.0
303,103.06848101666668,104.95770643750001,43.0,85.0
304,104.34480501666668,105.10794040833335,62.0,85.0
305,105.30204801666667,105.59719794166668,62.0,82.0
306,104.34480501666668,105.60251595833334,67.0,97.0
307,104.98296701666668,105.70488777916668,59.0,95.0
308,106.25929101666668,107.00514285416668,54.0,83.0
309,107.21653401666669,107.44520873333335,54.0,85.0
310,105.94021001666668,107.45850377500001,49.0,42.0
311,105.62112901666667,107.57417063750002,42.0,77.0
312,106.57837201666668,107.58746567916668,57.0,70.0
313,106.89745301666667,108.13123288333334,66.0,127.0
314,107.53561501666668,108.13920990833334,61.0,96.0
315,107.85469601666668,108.18175404166668,57.0,72.0
316,108.81193901666668,109.57241540000001,52.0,83.0
317,109.13102001666668,109.59767597916668,59.0,63.0
318,108.49285801666667,110.03774185833335,47.0,58.0
319,108.17377701666668,110.06566144583334,40.0,70.0
320,109.45010101666668,110.17202177916668,64.0,92.0
321,109.76918201666668,110.41665054583335,52.0,57.0
322,109.45010101666668,110.75301510000001,67.0,96.0
323,110.40734401666668,110.76896915000002,64.0,95.0
324,110.08826301666667,110.80087725000001,59.0,92.0
325,111.36458701666668,111.73817768750001,57.0,100.0
326,111.52412751666668,111.81262992083334,61.0,88.0
327,111.04550601666668,112.20882216250001,52.0,70.0
328,112.32183001666668,112.56512927916668,52.0,77.0
329,110.72642501666668,112.64489952916668,45.0,88.0
330,112.64091101666668,113.08230640000001,61.0,122.0
331,111.84320851666668,113.11022598750002,64.0,99.0
332,112.95999201666667,113.29768607500002,57.0,100.0
333,113.91723501666668,114.71626702083334,50.0,97.0
334,114.23631601666668,115.05927909583335,57.0,82.0
335,113.27907301666667,115.1922295125,38.0,88.0
336,113.59815401666668,115.22147860416668,45.0,62.0
337,114.87447801666669,115.37171257500002,50.0,85.0
338,115.51264001666668,115.87160614166667,57.0,96.0
339,114.55539701666667,115.96733044166668,66.0,122.0
340,115.19355901666668,116.00056804583335,62.0,88.0
341,116.46988301666669,117.21307584583334,50.0,90.0
342,115.83172101666668,117.61857461666668,38.0,77.0
343,116.15080201666667,117.64250569166668,45.0,62.0
344,116.78896401666668,117.72626445416668,57.0,81.0
345,117.42712601666668,117.80736420833334,50.0,66.0
346,118.06528801666668,118.38436901666668,57.0,83.0
347,117.74620701666667,118.38436901666668,62.0,86.0
348,117.10804501666668,118.38436901666668,66.0,107.0
349,119.02253101666668,119.44531334166668,59.0,78.0
350,119.34161201666667,119.71653219166667,62.0,70.0
351,118.70345001666668,119.84948260833335,54.0,64.0
352,118.38436901666668,120.78146502916668,47.0,85.0
353,119.97977401666668,121.02609379583335,54.0,59.0
354,120.61793601666668,121.20956537083335,59.0,69.0
355,120.29885501666668,121.40899099583335,62.0,72.0
356,119.66069301666668,121.44754661666668,66.0,107.0
357,121.57517901666668,122.01790390416669,59.0,86.0
358,121.89426001666668,122.21732952916668,62.0,95.0
359,121.25609801666668,122.40213060833335,54.0,72.0
360,122.53242201666669,122.77173276666667,54.0,71.0
361,120.93701701666669,122.79699334583334,47.0,63.0
362,122.21334101666667,123.47105195833335,66.0,122.0
363,122.85150301666668,123.51492559583335,62.0,99.0
364,123.17058401666668,123.51625510000001,59.0,86.0
365,124.12782701666669,124.65032215416667,55.0,90.0
366,124.44690801666668,124.78327257083335,59.0,95.0
367,123.80874601666667,124.90292794583334,50.0,58.0
368,125.08507001666668,125.32172175833335,50.0,66.0
369,123.48966501666668,125.34698233750001,43.0,82.0
370,124.76598901666668,125.95722475000001,62.0,99.0
371,125.40415101666667,126.01040491666669,59.0,72.0
372,125.72323201666669,126.03832450416668,55.0,58.0
373,126.36139401666668,126.93308080833334,49.0,37.0
374,126.04231301666668,127.01152155416668,42.0,83.0
375,126.68047501666668,127.15244899583335,54.0,69.0
376,126.99955601666667,127.33459106666668,57.0,86.0
377,127.63771801666668,128.06847736666668,54.0,82.0
378,127.31863701666668,128.16951968333333,47.0,57.0
379,128.2758800166667,128.61490357916668,62.0,65.0
380,127.95679901666668,129.34746037500003,59.0,63.0
381,129.23312301666667,130.00556493750003,52.0,83.0
382,128.59496101666667,130.4363242875,40.0,69.0
383,128.91404201666668,130.46690288333335,47.0,50.0
384,129.55220401666668,130.58389925,59.0,69.0
385,130.19036601666667,130.65037445833335,52.0,72.0
386,129.8712850166667,131.13564347916667,67.0,102.0
387,130.50944701666668,131.13697298333335,64.0,79.0
388,130.8285280166667,131.19813017500002,59.0,79.0
389,131.78577101666667,132.31757268333334,57.0,79.0
390,131.14760901666668,133.43435618333334,45.0,82.0
391,131.4666900166667,133.6324523041667,52.0,51.0
392,132.4239330166667,133.64840635416667,64.0,86.0
393,132.10485201666668,133.65239486666667,61.0,78.0
394,133.0620950166667,133.67765544583335,57.0,66.0
395,134.33841901666668,134.9327073791667,59.0,65.0
396,134.0193380166667,135.78757855833334,54.0,42.0
397,133.70025701666668,135.9604141,47.0,69.0
398,135.6147430166667,136.2768360916667,66.0,62.0
399,135.93382401666668,136.30475567916668,59.0,37.0
400,134.6575000166667,136.37920791250002,62.0,51.0
401,136.89106701666668,138.06103068333334,55.0,58.0
402,136.57198601666667,138.09559779166668,50.0,45.0
403,136.2529050166667,138.16074349583334,43.0,47.0
404,137.8483100166667,138.80422351250002,67.0,76.0
405,137.2101480166667,138.8813347541667,59.0,58.0
406,138.48647201666668,138.887982275,62.0,58.0
407,138.8055530166667,139.75348948750002,38.0,66.0
408,139.4437150166667,139.77742056250003,50.0,71.0
409,139.12463401666668,139.79204510833335,45.0,45.0
410,139.76279601666667,141.38479110000003,57.0,76.0
411,140.4009580166667,141.408722175,62.0,61.0
412,141.0391200166667,141.4166992,66.0,64.0
413,141.9963630166667,142.51619914583335,57.0,96.0
414,142.31544401666667,142.67441014166667,61.0,83.0
415,141.67728201666668,142.78077047500003,52.0,59.0
416,142.95360601666667,143.2208363541667,52.0,55.0
417,141.35820101666667,143.24210842083335,45.0,65.0
418,142.6345250166667,143.8789409166667,64.0,96.0
419,143.27268701666668,143.8869179416667,61.0,117.0
420,143.5917680166667,143.93610959583336,57.0,78.0
421,144.5490110166667,145.32012343333335,54.0,86.0
422,144.86809201666668,145.3533610375,57.0,85.0
423,144.22993001666669,145.9449903916667,49.0,66.0
424,145.50625401666667,145.96493295416667,54.0,99.0
425,143.91084901666667,145.99684105416668,42.0,99.0
426,145.1871730166667,146.01412460833336,61.0,99.0
427,145.1871730166667,146.0167836166667,66.0,107.0
428,146.1444160166667,146.44488395833335,66.0,117.0
429,146.1444160166667,146.44621346250003,61.0,127.0
430,145.82533501666668,146.54991478750003,57.0,100.0
431,146.7825780166667,146.97668562500002,59.0,69.0
432,146.7825780166667,146.9820036416667,62.0,53.0
433,147.10165901666667,147.3409697666667,59.0,63.0
434,147.10165901666667,147.3529353041667,62.0,59.0
435,147.10165901666667,147.3609123291667,55.0,63.0
436,146.7825780166667,147.77039961250003,50.0,69.0
437,147.42074001666668,148.23572607083335,59.0,100.0
438,147.42074001666668,148.24370309583335,62.0,97.0
439,147.7398210166667,148.31017830416667,55.0,69.0
440,146.46349701666668,148.86591104583334,43.0,88.0
441,148.3779830166667,148.96961237083335,59.0,99.0
442,148.69706401666667,148.98157790833335,55.0,89.0
443,148.3779830166667,148.99088443750003,62.0,99.0
444,148.05890201666668,149.00152047083336,50.0,76.0
445,149.65430701666668,150.15021207083336,57.0,76.0
446,149.3352260166667,150.20605124583335,52.0,66.0
447,149.9733880166667,150.821611675,64.0,99.0
448,149.9733880166667,150.83623622083334,61.0,102.0
449,150.9306310166667,151.41590003750002,61.0,100.0
450,150.9306310166667,151.41855904583335,64.0,92.0
451,149.01614501666668,151.42387706250003,45.0,90.0
452,150.61155001666668,151.58607657083334,52.0,72.0
453,151.24971201666668,151.99822286250003,57.0,83.0
454,151.88787401666667,153.10702933750002,52.0,50.0
455,151.5687930166667,153.36229413750002,61.0,90.0
456,151.5687930166667,153.38090719583334,64.0,81.0
457,152.84511701666668,153.58565083750003,57.0,76.0
458,153.1641980166667,154.07490837083336,52.0,65.0
459,153.48327901666667,154.10681647083334,61.0,117.0
460,151.5687930166667,154.11479349583334,45.0,95.0
461,153.48327901666667,154.13074754583334,64.0,96.0
462,153.80236001666668,154.15201961250003,57.0,93.0
463,154.7596030166667,155.55464650833335,50.0,88.0
464,155.07868401666667,155.7208345291667,57.0,66.0
465,155.39776501666668,156.11702677083335,62.0,72.0
466,154.1214410166667,156.49593545833335,38.0,81.0
467,154.44052201666668,156.708656125,45.0,47.0
468,155.7168460166667,157.04369117500002,50.0,56.0
469,156.03592701666668,157.4784390375,57.0,74.0
470,155.39776501666668,157.73636284583336,66.0,92.0
471,156.3550080166667,157.78954301250002,62.0,75.0
472,157.3122510166667,158.128566575,50.0,71.0
473,157.63133201666668,158.60984708333336,57.0,56.0
474,156.67408901666667,158.79730717083336,38.0,72.0
475,156.99317001666668,158.81459072500002,45.0,38.0
476,158.26949401666667,159.1615913125,50.0,58.0
477,157.9504130166667,159.21078296666667,66.0,107.0
478,158.9076560166667,159.35968743333336,57.0,82.0
479,158.58857501666668,160.35681555833335,62.0,77.0
480,159.8648990166667,160.70115713750002,55.0,60.0
481,160.18398001666668,161.17579012500002,59.0,60.0
482,159.22673701666668,161.64111658333334,43.0,67.0
483,159.5458180166667,161.8392127041667,50.0,53.0
484,160.82214201666667,162.2101443666667,55.0,55.0
485,161.4603040166667,162.61431363333335,59.0,56.0
486,161.1412230166667,162.63824470833336,62.0,67.0
487,160.5030610166667,162.89085050000003,67.0,99.0
488,162.41754701666667,163.24848712083335,55.0,76.0
489,161.77938501666668,163.64202035416668,43.0,58.0
490,162.0984660166667,163.66728093333336,50.0,50.0
491,162.73662801666669,163.72179060416667,59.0,66.0
492,163.37479001666668,163.82948044166668,55.0,77.0
493,163.0557090166667,164.10601730833335,67.0,97.0
494,164.1724925166667,164.2309907,54.0,26.0
495,163.6938710166667,164.30943144583335,62.0,99.0
496,164.01295201666667,164.36925913333334,59.0,93.0
497,164.97019501666668,165.53124577500003,59.0,60.0
498,164.6511140166667,165.77720404583334,54.0,55.0
499,165.92743801666668,166.29969918333336,54.0,67.0
500,165.2892760166667,166.34889083750002,62.0,56.0
501,164.33203301666668,166.39808249166668,47.0,73.0
502,165.60835701666667,166.92057762916667,66.0,112.0
503,166.56560001666668,166.92190713333335,62.0,69.0
504,166.2465190166667,166.94982672083336,59.0,88.0
505,167.8419240166667,168.08921179166668,61.0,47.0
506,167.20376201666667,168.35112411250003,52.0,62.0
507,168.4800860166667,168.8377226375,52.0,59.0
508,167.52284301666668,168.8589947041667,57.0,61.0
509,166.8846810166667,168.87361925000002,45.0,70.0
510,168.16100501666668,169.40542091666669,64.0,100.0
511,168.79916701666667,169.4373290166667,61.0,99.0
512,169.11824801666668,169.43865852083334,57.0,76.0
513,170.0754910166667,170.8173543416667,55.0,93.0
514,170.39457201666667,171.4036656791667,59.0,92.0
515,169.4373290166667,171.8583561041667,43.0,74.0
516,169.75641001666668,172.06841776250002,50.0,36.0
517,171.0327340166667,172.41010033333336,55.0,81.0
518,171.5113555166667,172.66802414166668,59.0,74.0
519,171.35181501666668,172.87276778333336,62.0,83.0
520,170.71365301666668,173.0814999375,67.0,97.0
521,172.94722001666668,173.40589895416667,59.0,72.0
522,172.6281390166667,173.42451201250003,55.0,72.0
523,172.30905801666668,173.68376532500002,50.0,57.0
524,171.98997701666667,173.69971937500003,43.0,64.0
525,173.5853820166667,173.70503739166668,55.0,83.0
526,173.2663010166667,173.98556277083335,62.0,92.0
527,173.2663010166667,174.41765162500002,67.0,97.0
528,174.2235440166667,174.45487774166668,62.0,83.0
529,173.90446301666668,174.5785216291667,59.0,97.0
530,175.1807870166667,176.00109108750001,54.0,73.0
531,175.49986801666668,176.5355517625,57.0,72.0
532,174.54262501666668,176.97561764166667,42.0,90.0
533,174.8617060166667,177.1471236791667,49.0,45.0
534,176.13803001666668,177.54730443333335,54.0,74.0
535,176.7761920166667,177.8557494,57.0,82.0
536,176.4571110166667,177.97407527083334,61.0,83.0
537,175.8189490166667,178.047198,66.0,107.0
538,177.73343501666668,178.54177355000002,54.0,96.0
539,177.4143540166667,178.87813810416668,49.0,65.0
540,177.09527301666668,178.89941017083336,42.0,68.0
541,178.69067801666668,179.00842951250002,54.0,97.0
542,178.0525160166667,179.06958670416668,57.0,86.0
543,179.0097590166667,179.56549175833337,61.0,112.0
544,178.3715970166667,179.64526200833336,66.0,127.0
545,179.32884001666667,179.650580025,57.0,81.0
546,180.28608301666668,180.77268154166669,59.0,76.0
547,179.6479210166667,180.85112228750003,47.0,72.0
548,179.9670020166667,180.85378129583336,54.0,63.0
549,180.6051640166667,180.92690402500003,62.0,68.0
550,180.92424501666667,182.00646140833337,45.0,96.0
551,181.88148801666668,182.21120505000002,61.0,76.0
552,181.5624070166667,182.21785257083334,64.0,89.0
553,181.24332601666669,182.25773769583336,57.0,73.0
554,182.6791905166667,183.06873523750002,55.0,78.0
555,182.2005690166667,183.2256167291667,43.0,72.0
556,182.51965001666667,183.24422978750002,50.0,50.0
557,183.1578120166667,183.53406169583334,59.0,76.0
558,183.7959740166667,184.36899031250002,59.0,68.0
559,183.47689301666668,184.38893287500002,62.0,96.0
560,184.11505501666667,184.79310214166668,55.0,86.0
561,185.3913790166667,186.19838804583335,52.0,97.0
562,186.18908151666668,186.19838804583335,52.0,43.0
563,184.7532170166667,186.46960689583335,40.0,77.0
564,185.07229801666668,186.54538863333335,47.0,42.0
565,186.02954101666668,186.56931970833335,67.0,96.0
566,186.02954101666668,186.57463772500003,64.0,95.0
567,185.71046001666667,186.606545825,59.0,71.0
568,186.66770301666668,186.7155651666667,47.0,64.0
569,186.9867840166667,187.10510988750002,47.0,30.0
570,186.66770301666668,187.1702555916667,59.0,74.0
571,186.66770301666668,187.17557360833337,52.0,97.0
572,186.66770301666668,187.19551617083334,40.0,66.0
573,186.66770301666668,187.19950468333334,67.0,79.0
574,186.66770301666668,187.21944724583335,64.0,78.0
575,187.3058650166667,187.6648311416667,64.0,79.0
576,187.3058650166667,187.82968965833336,59.0,79.0
577,187.78448651666668,187.8403256916667,64.0,45.0
578,187.62494601666668,187.8483027166667,52.0,52.0
579,187.3058650166667,187.85362073333334,67.0,81.0
580,187.9440270166667,188.14611165000002,64.0,88.0
581,187.9440270166667,188.2032803291667,67.0,83.0
582,187.9440270166667,188.2910276041667,59.0,86.0
583,187.9440270166667,188.7895916666667,52.0,96.0
584,188.5821890166667,188.9969943166667,67.0,89.0
585,188.5821890166667,189.00895985416668,64.0,83.0
586,188.9012700166667,189.0647990291667,52.0,56.0
587,188.9012700166667,189.31075730000003,59.0,93.0
588,188.5821890166667,189.5979302,47.0,66.0
589,189.22035101666668,189.6019187125,64.0,96.0
590,189.22035101666668,189.6178727625,67.0,96.0
591,187.3058650166667,189.66041689583335,40.0,89.0
592,189.5394320166667,189.77076574166668,59.0,89.0
593,189.22035101666668,189.86649004166668,52.0,92.0
594,189.85851301666668,190.34644104583336,61.0,88.0
595,189.85851301666668,190.3730311291667,64.0,78.0
596,190.1775940166667,190.58176328333334,52.0,73.0
597,190.4966750166667,191.01252263333336,64.0,95.0
598,190.4966750166667,191.0138521375,61.0,117.0
599,190.4966750166667,191.025817675,57.0,95.0
600,190.81575601666668,191.25316288750003,52.0,92.0
601,191.1348370166667,191.6094700041667,64.0,89.0
602,191.1348370166667,191.63074207083335,61.0,102.0
603,191.1348370166667,191.65600265000003,57.0,85.0
604,191.7729990166667,191.84612174583336,57.0,74.0
605,191.45391801666668,191.91525596250003,52.0,102.0
606,192.0920800166667,192.20375836666668,57.0,37.0
607,191.7729990166667,192.25693853333337,64.0,100.0
608,189.85851301666668,192.2635860541667,45.0,89.0
609,191.93253951666668,192.26890407083334,52.0,100.0
610,191.7729990166667,192.27688109583335,61.0,127.0
611,192.41116101666668,192.66110780000002,61.0,107.0
612,192.41116101666668,192.67839135416668,64.0,96.0
613,192.2516205166667,192.796717225,57.0,65.0
614,192.7302420166667,192.96157574166668,61.0,64.0
615,192.7302420166667,192.97752979166668,64.0,56.0
616,193.04932301666668,193.26204368333336,57.0,76.0
617,193.04932301666668,193.29395178333334,64.0,79.0
618,193.04932301666668,193.29794029583334,61.0,83.0
619,193.3684040166667,193.56118212083337,57.0,77.0
620,193.3684040166667,193.5837836916667,64.0,69.0
621,193.3684040166667,193.59441972500002,61.0,69.0
622,193.04932301666668,193.62499832083336,52.0,83.0
623,192.41116101666668,193.6475998916667,45.0,95.0
624,193.6874850166667,193.87361560000002,57.0,93.0
625,193.6874850166667,193.88824014583335,64.0,85.0
626,193.6874850166667,193.89621717083335,61.0,89.0
627,193.6874850166667,193.89754667500003,52.0,61.0
628,193.6874850166667,193.9254662625,45.0,66.0
629,194.00656601666668,194.16344750833335,52.0,53.0
630,194.00656601666668,194.18073106250003,45.0,65.0
631,194.00656601666668,194.19801461666668,57.0,90.0
632,194.00656601666668,194.200673625,64.0,89.0
633,194.00656601666668,194.20599164166669,61.0,97.0
634,194.3256470166667,194.46790396250003,52.0,81.0
635,194.3256470166667,194.49449404583336,57.0,97.0
636,194.3256470166667,194.49848255833336,45.0,89.0
637,194.3256470166667,194.49848255833336,61.0,100.0
638,194.3256470166667,194.4998120625,64.0,90.0
639,194.64472801666668,194.79762099583334,45.0,96.0
640,194.64472801666668,194.8122455416667,52.0,92.0
641,194.64472801666668,194.8960043041667,61.0,127.0
642,194.64472801666668,194.9079698416667,57.0,100.0
643,194.64472801666668,194.92924190833335,64.0,99.0
644,194.9638090166667,195.14063307083336,45.0,76.0
645,194.9638090166667,195.1791886916667,64.0,77.0
646,194.9638090166667,195.18849522083335,61.0,90.0
647,194.9638090166667,195.18982472500002,57.0,83.0
648,195.2828900166667,195.49428117916668,57.0,59.0
649,195.2828900166667,195.50491721250003,61.0,58.0
650,195.2828900166667,195.51023522916668,64.0,65.0
651,195.2828900166667,195.51289423750003,45.0,47.0
652,195.60197101666668,195.80272614583336,45.0,73.0
653,195.60197101666668,195.8093736666667,57.0,71.0
654,195.60197101666668,195.8093736666667,64.0,72.0
655,195.60197101666668,195.81070317083336,61.0,75.0
656,195.9210520166667,196.1045235916667,45.0,96.0
657,195.9210520166667,196.1125006166667,57.0,93.0
658,195.9210520166667,196.1164891291667,64.0,90.0
659,195.9210520166667,196.1204776416667,61.0,107.0
660,196.24013301666668,196.40898004583335,45.0,122.0
661,196.24013301666668,196.4196160791667,57.0,112.0
662,196.24013301666668,196.42626360000003,61.0,122.0
663,196.24013301666668,196.43158161666668,64.0,99.0
664,196.5592140166667,196.71077749166668,57.0,100.0
665,196.5592140166667,196.71210699583335,61.0,122.0
666,196.5592140166667,196.72008402083335,45.0,127.0
667,196.5592140166667,196.72540203750003,64.0,97.0
668,196.8782950166667,196.89823757916668,47.0,73.0
669,196.8782950166667,196.98997336666667,61.0,127.0
670,196.8782950166667,196.99795039166668,57.0,127.0
671,196.8782950166667,197.01390444166668,64.0,102.0
672,196.8782950166667,197.02321097083336,45.0,112.0
673,197.19737601666668,197.32766742500002,45.0,112.0
674,197.19737601666668,197.33830345833334,61.0,127.0
675,197.19737601666668,197.37287056666668,57.0,117.0
676,197.19737601666668,197.37685907916668,64.0,100.0
677,197.5164570166667,197.68663355,38.0,76.0
678,197.5164570166667,197.6959400791667,66.0,85.0
679,197.5164570166667,197.7039171041667,62.0,90.0
680,197.5164570166667,197.70923512083334,57.0,90.0
681,197.83553801666667,197.9871014916667,38.0,66.0
682,197.83553801666667,197.9871014916667,66.0,56.0
683,197.83553801666667,197.98843099583337,62.0,64.0
684,197.83553801666667,197.98976050000002,57.0,64.0
685,198.1546190166667,198.27693340000002,62.0,89.0
686,198.1546190166667,198.2822514166667,38.0,82.0
687,198.1546190166667,198.2822514166667,66.0,85.0
688,198.1546190166667,198.28358092083334,57.0,82.0
689,198.4737000166667,198.5614472916667,66.0,88.0
690,198.4737000166667,198.56410630000002,62.0,86.0
691,198.4737000166667,198.57474233333335,57.0,82.0
692,198.4737000166667,198.59734390416668,38.0,71.0
693,198.79278101666668,198.90180035833336,62.0,90.0
694,198.79278101666668,198.90578887083336,66.0,85.0
695,198.79278101666668,198.907118375,57.0,88.0
696,198.79278101666668,198.93104945000002,38.0,83.0
697,199.1118620166667,199.22088135833334,62.0,93.0
698,199.1118620166667,199.22221086250002,57.0,88.0
699,199.1118620166667,199.2275288791667,66.0,90.0
700,199.1118620166667,199.22885838333335,38.0,75.0
701,199.43094301666667,199.53198533333335,66.0,95.0
702,199.43094301666667,199.53730335000003,62.0,97.0
703,199.43094301666667,199.54262136666668,57.0,92.0
704,199.43094301666667,199.55990492083336,38.0,82.0
705,199.75002401666669,199.8457483166667,66.0,82.0
706,199.75002401666669,199.8577138541667,62.0,89.0
707,199.75002401666669,199.8656908791667,38.0,78.0
708,199.75002401666669,199.8736679041667,57.0,89.0
709,200.0691050166667,200.18743088750003,61.0,99.0
710,200.0691050166667,200.19939642500003,57.0,78.0
711,200.38818601666668,200.47859230000003,49.0,99.0
712,200.38818601666668,200.49454635000004,66.0,85.0
713,200.38818601666668,200.49587585416668,61.0,95.0
714,200.0691050166667,200.49986436666669,37.0,81.0
715,200.38818601666668,200.52113643333337,57.0,81.0
716,200.7072670166667,200.7976733,49.0,89.0
717,200.7072670166667,200.8029913166667,37.0,79.0
718,200.7072670166667,200.8109683416667,66.0,79.0
719,200.7072670166667,200.81362735000002,61.0,89.0
720,200.7072670166667,200.83224040833335,57.0,77.0
721,201.0263480166667,201.12074281250003,49.0,72.0
722,201.0263480166667,201.13935587083336,37.0,70.0
723,201.0263480166667,201.14068537500003,61.0,90.0
724,201.0263480166667,201.14334438333336,66.0,75.0
725,201.0263480166667,201.15265091250004,57.0,77.0
726,201.34542901666669,201.4531188541667,37.0,70.0
727,201.34542901666669,201.4690729041667,49.0,81.0
728,201.34542901666669,201.4730614166667,66.0,69.0
729,201.34542901666669,201.47439092083334,61.0,79.0
730,201.34542901666669,201.48635645833335,57.0,72.0
731,201.6645100166667,201.74959828333334,37.0,73.0
732,201.6645100166667,201.7761883666667,61.0,93.0
733,201.6645100166667,201.78283588750003,66.0,76.0
734,201.6645100166667,201.78815390416668,49.0,89.0
735,201.6645100166667,201.79878993750003,57.0,78.0
736,201.98359101666668,202.07266779583335,37.0,90.0
737,201.98359101666668,202.08463333333336,49.0,96.0
738,201.98359101666668,202.09659887083336,61.0,112.0
739,201.98359101666668,202.1072349041667,66.0,99.0
740,202.3026720166667,202.40903235000002,49.0,107.0
741,202.3026720166667,202.42764540833335,66.0,77.0
742,202.3026720166667,202.46221251666668,57.0,92.0
743,202.3026720166667,202.54065326250003,61.0,102.0
744,202.6217530166667,202.75337392916668,66.0,78.0
745,202.6217530166667,202.76268045833336,62.0,83.0
746,202.6217530166667,202.7653394666667,59.0,82.0
747,202.94083401666668,203.05517137500001,66.0,86.0
748,202.94083401666668,203.0604893916667,59.0,83.0
749,202.94083401666668,203.0604893916667,62.0,89.0
750,202.6217530166667,203.11101055000003,47.0,75.0
751,202.94083401666668,203.11765807083336,54.0,55.0
752,203.2599150166667,203.38488840833335,66.0,97.0
753,203.2599150166667,203.39153592916668,59.0,86.0
754,203.2599150166667,203.39818345000003,62.0,97.0
755,203.57899601666668,203.69067436666668,66.0,85.0
756,203.57899601666668,203.69599238333336,59.0,73.0
757,203.57899601666668,203.7013104,62.0,85.0
758,203.2599150166667,203.74385453333335,47.0,69.0
759,203.2599150166667,203.74385453333335,54.0,82.0
760,203.8980770166667,204.03634545000003,59.0,83.0
761,203.8980770166667,204.04432247500003,62.0,90.0
762,203.8980770166667,204.04432247500003,66.0,90.0
763,204.2171580166667,204.30357578750002,66.0,96.0
764,204.2171580166667,204.3049052916667,59.0,83.0
765,204.2171580166667,204.3049052916667,62.0,97.0
766,204.53623901666668,204.6758369541667,59.0,107.0
767,203.8980770166667,204.72901712083336,54.0,76.0
768,204.53623901666668,204.7356646416667,62.0,127.0
769,204.53623901666668,204.77687927083335,66.0,127.0
770,204.8553200166667,204.98561142500003,62.0,67.0
771,204.8553200166667,204.98561142500003,66.0,39.0
772,204.8553200166667,204.99757696250003,59.0,89.0
773,203.8980770166667,205.13318638750002,47.0,55.0
774,204.8553200166667,205.1584469666667,54.0,99.0
775,205.17440101666668,205.304692425,66.0,97.0
776,205.17440101666668,205.30868093750001,59.0,88.0
777,205.17440101666668,205.31133994583337,62.0,96.0
778,205.17440101666668,205.36319060833335,54.0,63.0
779,205.17440101666668,205.3937692041667,47.0,86.0
780,205.4934820166667,205.5971833416667,59.0,85.0
781,205.4934820166667,205.5971833416667,66.0,92.0
782,205.4934820166667,205.59984235000002,62.0,93.0
783,205.4934820166667,205.60648987083334,47.0,44.0
784,205.4934820166667,205.60648987083334,54.0,65.0
785,205.8125630166667,205.92025285416668,47.0,67.0
786,205.8125630166667,205.92557087083335,59.0,85.0
787,205.8125630166667,205.93088888750003,66.0,90.0
788,205.8125630166667,205.93221839166668,62.0,95.0
789,205.8125630166667,205.94152492083336,54.0,90.0
790,206.13164401666668,206.21274377083336,47.0,47.0
791,206.13164401666668,206.2433223666667,59.0,79.0
792,206.13164401666668,206.2473108791667,62.0,85.0
793,206.13164401666668,206.25395840000002,66.0,81.0
794,206.13164401666668,206.25661740833337,54.0,95.0
795,206.4507250166667,206.5584148541667,47.0,56.0
796,206.4507250166667,206.58633444166668,54.0,95.0
797,206.4507250166667,206.58633444166668,59.0,82.0
798,206.4507250166667,206.59032295416668,66.0,85.0
799,206.4507250166667,206.59165245833336,62.0,86.0
800,206.76980601666668,206.88281387083336,62.0,89.0
801,206.76980601666668,206.88281387083336,66.0,89.0
802,206.76980601666668,206.89079089583336,59.0,76.0
803,206.76980601666668,207.10351156250002,54.0,95.0
804,206.76980601666668,207.11547710000002,47.0,68.0
805,207.24842751666668,207.3587763625,54.0,117.0
806,207.24842751666668,207.3680828916667,47.0,59.0
807,207.0888870166667,207.37340090833337,62.0,127.0
808,207.0888870166667,207.3920139666667,66.0,127.0
809,207.4079680166667,207.5635200041667,59.0,96.0
810,207.72704901666668,207.85999943333334,67.0,89.0
811,207.72704901666668,207.8666469541667,71.0,82.0
812,207.72704901666668,207.8706354666667,62.0,89.0
813,208.0461300166667,208.15249035000002,67.0,83.0
814,208.0461300166667,208.1617968791667,71.0,74.0
815,208.0461300166667,208.16445588750003,62.0,81.0
816,208.0461300166667,208.2096590291667,55.0,59.0
817,208.36521101666668,208.46359432500003,67.0,97.0
818,208.36521101666668,208.47157135000003,62.0,92.0
819,208.36521101666668,208.47688936666668,71.0,89.0
820,208.36521101666668,208.4835368875,55.0,63.0
821,208.6842920166667,208.7879933416667,67.0,88.0
822,208.6842920166667,208.7959703666667,62.0,86.0
823,208.6842920166667,208.79729987083334,71.0,78.0
824,209.0033730166667,209.10042682083335,67.0,93.0
825,209.0033730166667,209.1070743416667,62.0,89.0
826,209.0033730166667,209.11505136666668,71.0,88.0
827,208.6842920166667,209.38361120833335,55.0,68.0
828,209.32245401666668,209.42349633333336,67.0,92.0
829,209.32245401666668,209.4328028625,62.0,83.0
830,209.32245401666668,209.4407798875,71.0,77.0
831,209.4819945166667,209.67477262083335,55.0,64.0
832,209.6415350166667,209.67477262083335,55.0,89.0
833,209.6415350166667,209.803734525,67.0,97.0
834,207.72704901666668,209.81437055833337,43.0,89.0
835,208.0461300166667,209.82234758333337,50.0,45.0
836,209.6415350166667,209.93801444583335,71.0,90.0
837,209.96061601666668,210.0124666791667,62.0,96.0
838,210.2796970166667,210.5190077666667,61.0,95.0
839,210.2796970166667,210.52166677500003,66.0,81.0
840,210.2796970166667,210.53097330416668,57.0,95.0
841,210.5987780166667,210.68519578750002,66.0,88.0
842,210.5987780166667,210.69317281250002,61.0,97.0
843,210.5987780166667,210.6945023166667,57.0,79.0
844,210.91785901666668,211.02023083750004,61.0,107.0
845,210.91785901666668,211.02288984583336,57.0,90.0
846,210.91785901666668,211.0295373666667,66.0,97.0
847,210.5987780166667,211.27150712500003,54.0,83.0
848,211.2369400166667,211.33931183750002,61.0,97.0
849,211.2369400166667,211.34197084583334,66.0,86.0
850,211.2369400166667,211.3486183666667,57.0,78.0
851,211.55602101666668,211.65573382916668,61.0,107.0
852,210.2796970166667,211.65706333333335,42.0,93.0
853,211.55602101666668,211.66636986250003,66.0,95.0
854,211.55602101666668,211.66769936666668,57.0,88.0
855,211.39648051666668,211.69827796250001,54.0,67.0
856,211.8751020166667,211.95620177083336,42.0,82.0
857,211.8751020166667,211.97215582083336,61.0,92.0
858,211.8751020166667,211.98412135833337,57.0,77.0
859,211.8751020166667,211.98545086250002,66.0,82.0
860,211.8751020166667,211.9867803666667,54.0,92.0
861,212.1941830166667,212.2938958291667,42.0,79.0
862,212.1941830166667,212.29522533333335,57.0,83.0
863,212.1941830166667,212.29522533333335,61.0,102.0
864,212.1941830166667,212.29655483750003,66.0,88.0
865,212.1941830166667,212.31250888750003,54.0,89.0
866,212.51326401666668,212.57043269583335,42.0,66.0
867,212.51326401666668,212.5810687291667,54.0,93.0
868,212.51326401666668,212.58239823333335,66.0,85.0
869,212.51326401666668,212.60632930833336,61.0,107.0
870,212.51326401666668,212.61430633333336,57.0,88.0
871,212.8323450166667,212.98922650833336,59.0,88.0
872,212.8323450166667,212.99587402916669,67.0,75.0
873,212.8323450166667,212.9998625416667,64.0,73.0
874,213.15142601666668,213.27374040000004,59.0,83.0
875,213.15142601666668,213.27506990416668,67.0,79.0
876,213.15142601666668,213.2830469291667,64.0,79.0
877,213.15142601666668,213.28836494583337,47.0,52.0
878,212.8323450166667,213.32559106250002,40.0,75.0
879,213.4705070166667,213.58883288750002,67.0,85.0
880,213.4705070166667,213.59149189583334,52.0,89.0
881,213.4705070166667,213.59680991250002,64.0,89.0
882,213.4705070166667,213.5981394166667,59.0,90.0
883,213.4705070166667,213.6021279291667,40.0,52.0
884,213.4705070166667,213.60744594583335,47.0,58.0
885,213.7895880166667,213.8972778541667,67.0,78.0
886,213.7895880166667,213.89993686250003,40.0,57.0
887,213.7895880166667,213.90924339166668,59.0,79.0
888,213.7895880166667,213.90924339166668,64.0,86.0
889,213.7895880166667,213.91987942500003,47.0,74.0
890,213.7895880166667,213.94248099583336,52.0,85.0
891,213.9491285166667,214.09936248750003,47.0,52.0
892,213.9491285166667,214.10866901666668,40.0,37.0
893,213.9491285166667,214.1232935625,52.0,48.0
894,214.10866901666668,214.2203473666667,67.0,88.0
895,214.10866901666668,214.2269948875,64.0,93.0
896,214.10866901666668,214.2309834,59.0,93.0
897,214.4277500166667,214.51815630000002,40.0,62.0
898,214.4277500166667,214.53676935833334,67.0,89.0
899,214.4277500166667,214.54208737500002,47.0,82.0
900,214.4277500166667,214.54208737500002,59.0,93.0
901,214.4277500166667,214.55006440000002,52.0,95.0
902,214.4277500166667,214.5513939041667,64.0,93.0
903,214.7468310166667,214.81197672083334,59.0,72.0
904,214.7468310166667,214.8864289541667,40.0,68.0
905,214.7468310166667,214.90371250833337,47.0,89.0
906,214.7468310166667,214.90371250833337,64.0,99.0
907,214.7468310166667,214.90770102083334,52.0,100.0
908,214.7468310166667,214.90770102083334,67.0,99.0
909,215.0659120166667,215.21215747500003,59.0,99.0
910,215.22545251666668,215.25470160833336,61.0,35.0
911,215.0659120166667,215.30655227083335,52.0,97.0
912,215.3849930166667,215.49002384583335,47.0,83.0
913,215.3849930166667,215.51661392916668,57.0,112.0
914,215.3849930166667,215.53123847500004,64.0,97.0
915,215.3849930166667,215.5405450041667,61.0,107.0
916,215.3849930166667,215.55384004583337,45.0,85.0
917,215.3849930166667,215.55915806250002,52.0,67.0
918,215.70407401666668,215.8223998875,57.0,96.0
919,215.70407401666668,215.8263884,52.0,92.0
920,215.70407401666668,215.8317064166667,61.0,99.0
921,215.70407401666668,215.83303592083337,64.0,90.0
922,215.70407401666668,215.83702443333337,45.0,66.0
923,216.0231550166667,216.1388218791667,57.0,102.0
924,216.0231550166667,216.14015138333335,45.0,99.0
925,216.0231550166667,216.14015138333335,52.0,97.0
926,216.0231550166667,216.14015138333335,61.0,122.0
927,216.0231550166667,216.14546940000002,64.0,96.0
928,216.3422360166667,216.46853891250004,61.0,99.0
929,216.3422360166667,216.47119792083336,57.0,93.0
930,216.3422360166667,216.47119792083336,64.0,89.0
931,216.3422360166667,216.4765159375,52.0,95.0
932,216.5017765166667,216.6679645375,52.0,43.0
933,216.3422360166667,216.74241677083336,45.0,93.0
934,216.6613170166667,216.79559693750002,61.0,122.0
935,216.6613170166667,216.79825594583335,57.0,97.0
936,216.6613170166667,216.8009149541667,64.0,93.0
937,216.82085751666668,216.94583090833336,45.0,74.0
938,216.82085751666668,216.95380793333337,52.0,90.0
939,216.9803980166667,217.0880878541667,61.0,100.0
940,216.9803980166667,217.09074686250003,57.0,79.0
941,216.9803980166667,217.10670091250003,64.0,83.0
942,217.1399385166667,217.3752607541667,52.0,90.0
943,217.1399385166667,217.44173596250002,45.0,86.0
944,217.29947901666668,217.63185505833334,61.0,127.0
945,217.29947901666668,217.77278250000003,64.0,96.0
946,217.6185600166667,217.83526919583335,57.0,102.0
947,217.77810051666668,217.86717729583336,61.0,107.0
948,217.9376410166667,218.20620085833335,62.0,112.0
949,217.9376410166667,218.20753036250002,66.0,117.0
950,217.9376410166667,218.23544995000003,57.0,107.0
951,218.25672201666669,218.3511168125,66.0,95.0
952,218.25672201666669,218.3604233416667,62.0,100.0
953,218.25672201666669,218.36175284583337,57.0,72.0
954,218.5758030166667,218.66620930000002,45.0,55.0
955,218.25672201666669,218.6755158291667,50.0,95.0
956,218.5758030166667,218.6755158291667,66.0,117.0
957,218.5758030166667,218.67684533333335,57.0,107.0
958,218.5758030166667,218.67817483750002,62.0,117.0
959,217.9376410166667,218.6795043416667,38.0,95.0
960,218.89488401666668,218.99060831666668,66.0,90.0
961,218.89488401666668,218.99592633333336,57.0,90.0
962,218.89488401666668,219.00789187083336,62.0,93.0
963,218.89488401666668,219.01586889583336,38.0,59.0
964,218.89488401666668,219.03979997083337,50.0,86.0
965,219.2139650166667,219.32830237500002,57.0,89.0
966,219.2139650166667,219.3296318791667,66.0,93.0
967,219.2139650166667,219.33627940000002,62.0,90.0
968,219.2139650166667,219.34691543333335,38.0,56.0
969,219.2139650166667,219.35223345000003,50.0,82.0
970,219.5330460166667,219.63674734166668,66.0,88.0
971,219.5330460166667,219.64073585416668,62.0,92.0
972,219.5330460166667,219.64472436666668,57.0,90.0
973,219.5330460166667,219.64738337500003,38.0,64.0
974,219.5330460166667,219.6686554416667,50.0,86.0
975,219.85212701666669,219.96513487083337,62.0,99.0
976,219.85212701666669,219.96646437500002,57.0,92.0
977,219.85212701666669,219.9677938791667,38.0,66.0
978,219.85212701666669,219.97311189583337,66.0,99.0
979,219.85212701666669,219.98507743333334,50.0,86.0
980,220.1712080166667,220.28953388750003,38.0,58.0
981,220.1712080166667,220.29884041666668,50.0,85.0
982,220.1712080166667,220.30548793750003,57.0,90.0
983,220.1712080166667,220.30681744166668,66.0,97.0
984,220.1712080166667,220.30947645000003,62.0,97.0
985,220.49028901666668,220.6179214166667,57.0,82.0
986,220.49028901666668,220.6179214166667,62.0,88.0
987,220.49028901666668,220.61925092083337,66.0,85.0
988,220.8093700166667,220.9210483666667,62.0,95.0
989,220.8093700166667,220.92636638333335,66.0,93.0
990,220.8093700166667,220.93035489583335,57.0,88.0
991,220.49028901666668,221.03538572500003,38.0,72.0
992,220.49028901666668,221.03937423750003,50.0,90.0
993,221.1284510166667,221.26007192916668,62.0,93.0
994,221.1284510166667,221.26007192916668,66.0,93.0
995,221.1284510166667,221.274696475,57.0,92.0
996,221.1284510166667,221.28666201250002,38.0,66.0
997,221.1284510166667,221.2879915166667,50.0,85.0
998,221.44753201666668,221.56186937500001,66.0,88.0
999,221.44753201666668,221.56452838333337,62.0,88.0
1000,221.44753201666668,221.57782342500002,57.0,89.0
1001,221.44753201666668,221.8782913666667,38.0,65.0
1002,221.44753201666668,221.8782913666667,50.0,77.0
1003,221.7666130166667,221.89956343333336,62.0,96.0
1004,221.7666130166667,221.90355194583336,66.0,96.0
1005,221.7666130166667,221.91285847500004,57.0,92.0
1006,222.08569401666668,222.2093379041667,57.0,89.0
1007,222.08569401666668,222.2093379041667,62.0,92.0
1008,222.08569401666668,222.2093379041667,66.0,90.0
1009,222.08569401666668,222.22662145833337,38.0,71.0
1010,222.08569401666668,222.2452345166667,50.0,83.0
1011,222.4047750166667,222.54304345000003,66.0,102.0
1012,222.4047750166667,222.55234997916668,62.0,102.0
1013,222.4047750166667,222.55899750000003,57.0,96.0
1014,222.4047750166667,222.76241163750004,38.0,72.0
1015,222.7238560166667,222.8674424666667,57.0,97.0
1016,222.7238560166667,222.88073750833337,66.0,99.0
1017,222.4047750166667,222.89270304583337,50.0,93.0
1018,222.7238560166667,222.9232816416667,62.0,100.0
1019,223.04293701666668,223.16126288750002,59.0,95.0
1020,223.04293701666668,223.1625923916667,66.0,96.0
1021,223.04293701666668,223.16791040833337,62.0,96.0
1022,223.3620180166667,223.4537538041667,66.0,102.0
1023,223.3620180166667,223.46306033333335,59.0,96.0
1024,223.3620180166667,223.46704884583335,62.0,99.0
1025,223.3620180166667,223.49230942500003,54.0,41.0
1026,223.04293701666668,223.5215585166667,47.0,86.0
1027,223.68109901666668,223.8034134,66.0,100.0
1028,223.68109901666668,223.8047429041667,59.0,96.0
1029,223.68109901666668,223.81006092083337,62.0,100.0
1030,223.68109901666668,223.83133298750002,47.0,70.0
1031,223.68109901666668,223.84196902083335,54.0,89.0
1032,224.0001800166667,224.11318787083337,59.0,81.0
1033,224.0001800166667,224.11850588750002,66.0,81.0
1034,224.0001800166667,224.12249440000002,62.0,86.0
1035,224.0001800166667,224.12515340833335,47.0,55.0
1036,224.0001800166667,224.13313043333335,54.0,75.0
1037,224.3192610166667,224.44822292083336,59.0,78.0
1038,224.3192610166667,224.44822292083336,66.0,74.0
1039,224.3192610166667,224.45487044166669,47.0,61.0
1040,224.3192610166667,224.45619994583336,62.0,79.0
1041,224.3192610166667,224.4588589541667,54.0,88.0
1042,224.63834201666668,224.76065640000002,66.0,74.0
1043,224.63834201666668,224.7619859041667,47.0,55.0
1044,224.63834201666668,224.7619859041667,62.0,81.0
1045,224.63834201666668,224.76331540833337,54.0,83.0
1046,224.63834201666668,224.76464491250002,59.0,74.0
1047,224.9574230166667,225.08771442500003,59.0,86.0
1048,224.9574230166667,225.08771442500003,66.0,89.0
1049,224.9574230166667,225.09436194583336,62.0,92.0
1050,224.9574230166667,225.09835045833336,54.0,100.0
1051,224.9574230166667,225.10100946666668,47.0,69.0
1052,225.27650401666668,225.3522857541667,47.0,44.0
1053,225.27650401666668,225.4081249291667,59.0,78.0
1054,225.27650401666668,225.4081249291667,66.0,81.0
1055,225.27650401666668,225.4121134416667,62.0,86.0
1056,225.27650401666668,225.41743145833337,54.0,89.0
1057,225.5955850166667,225.7431599791667,59.0,85.0
1058,225.5955850166667,225.74448948333335,62.0,90.0
1059,225.5955850166667,225.74448948333335,66.0,92.0
1060,225.5955850166667,225.76842055833336,47.0,65.0
1061,225.5955850166667,225.77107956666669,54.0,93.0
1062,225.9146660166667,226.0183673416667,66.0,83.0
1063,225.9146660166667,226.0223558541667,62.0,85.0
1064,225.9146660166667,226.02368535833335,59.0,76.0
1065,225.9146660166667,226.02900337500003,47.0,59.0
1066,225.9146660166667,226.02900337500003,54.0,90.0
1067,226.23374701666668,226.3573909041667,54.0,96.0
1068,226.23374701666668,226.35872040833337,47.0,63.0
1069,226.23374701666668,226.35872040833337,66.0,92.0
1070,226.23374701666668,226.36004991250002,62.0,93.0
1071,226.23374701666668,226.36270892083337,59.0,83.0
1072,226.5528280166667,226.6764719041667,66.0,77.0
1073,226.5528280166667,226.67780140833335,62.0,85.0
1074,226.5528280166667,226.68311942500003,59.0,79.0
1075,226.87190901666668,227.0274610041667,59.0,83.0
1076,226.87190901666668,227.0274610041667,66.0,89.0
1077,226.87190901666668,227.0314495166667,62.0,90.0
1078,226.5528280166667,227.2813963,54.0,96.0
1079,227.1909900166667,227.3226109291667,59.0,78.0
1080,227.1909900166667,227.3226109291667,62.0,88.0
1081,227.1909900166667,227.3305879541667,66.0,85.0
1082,227.35053051666668,227.49544647083337,54.0,93.0
1083,226.5528280166667,227.50342349583335,47.0,59.0
1084,227.5100710166667,227.60446581250002,59.0,69.0
1085,227.5100710166667,227.6656230041667,62.0,97.0
1086,227.5100710166667,227.70284912083335,66.0,100.0
1087,227.6696115166667,227.81452747083335,54.0,107.0
1088,227.6696115166667,227.81585697500003,47.0,60.0
1089,227.82915201666668,227.99799904583335,57.0,102.0
1090,227.9886925166667,228.07378078333335,59.0,71.0
1091,228.1482330166667,228.30245550000004,59.0,83.0
1092,228.1482330166667,228.32106855833337,55.0,117.0
1093,228.1482330166667,228.32106855833337,62.0,92.0
1094,228.4673140166667,228.57234484583336,59.0,83.0
1095,228.4673140166667,228.57500385416668,55.0,83.0
1096,228.4673140166667,228.58032187083336,62.0,77.0
1097,228.4673140166667,228.8422341916667,50.0,41.0
1098,228.7863950166667,228.89142584583337,59.0,95.0
1099,228.7863950166667,228.90472088750002,55.0,95.0
1100,228.7863950166667,228.90870940000002,62.0,95.0
1101,229.1054760166667,229.20784783750003,59.0,79.0
1102,229.1054760166667,229.22114287916668,55.0,82.0
1103,229.1054760166667,229.22646089583336,62.0,74.0
1104,229.2650165166667,229.4764076791667,50.0,81.0
1105,229.42455701666668,229.5521894166667,59.0,72.0
1106,229.42455701666668,229.56548445833334,55.0,77.0
1107,229.42455701666668,229.56947297083335,62.0,64.0
1108,229.7436380166667,229.85265735833335,59.0,82.0
1109,229.7436380166667,229.8593048791667,55.0,81.0
1110,229.7436380166667,229.8672819041667,62.0,75.0
1111,229.7436380166667,229.93242760833337,50.0,48.0
1112,230.0627190166667,230.19965794583337,59.0,95.0
1113,230.0627190166667,230.20098745,55.0,86.0
1114,230.0627190166667,230.20763497083337,62.0,85.0
1115,230.2222595166667,230.40041307500002,50.0,78.0
1116,230.3818000166667,230.43896869583335,55.0,92.0
1117,230.3818000166667,230.45625225000003,59.0,96.0
1118,230.3818000166667,230.46024076250004,62.0,90.0
1119,228.1482330166667,230.49480787083337,43.0,79.0
1120,230.7008810166667,230.89100011250002,61.0,102.0
1121,230.7008810166667,230.89897713750003,57.0,97.0
1122,230.7008810166667,230.9003066416667,66.0,92.0
1123,231.01996201666668,231.13296987083336,61.0,92.0
1124,231.01996201666668,231.14094689583337,66.0,83.0
1125,231.01996201666668,231.1475944166667,57.0,81.0
1126,230.7008810166667,231.44141483750002,42.0,85.0
1127,231.3390430166667,231.44141483750002,61.0,102.0
1128,231.3390430166667,231.4467328541667,66.0,92.0
1129,230.7008810166667,231.44939186250002,54.0,96.0
1130,231.3390430166667,231.44939186250002,57.0,90.0
1131,231.6581240166667,231.7498598041667,61.0,90.0
1132,231.6581240166667,231.76847286250003,66.0,82.0
1133,231.6581240166667,231.76980236666668,42.0,73.0
1134,231.6581240166667,231.77113187083336,57.0,82.0
1135,231.6581240166667,231.78043840000004,54.0,90.0
1136,231.9772050166667,232.1008489041667,42.0,73.0
1137,231.9772050166667,232.10350791250002,61.0,92.0
1138,231.9772050166667,232.1088259291667,57.0,79.0
1139,231.9772050166667,232.11148493750002,66.0,77.0
1140,231.9772050166667,232.1207914666667,54.0,85.0
1141,232.2962860166667,232.39333982083335,42.0,73.0
1142,232.2962860166667,232.41062337500003,66.0,78.0
1143,232.2962860166667,232.41727089583335,61.0,95.0
1144,232.2962860166667,232.42391841666668,57.0,81.0
1145,232.2962860166667,232.42790692916668,54.0,81.0
1146,232.61536701666668,232.72438635833336,66.0,96.0
1147,232.61536701666668,232.72837487083336,61.0,107.0
1148,232.61536701666668,232.7310338791667,42.0,83.0
1149,232.61536701666668,232.7310338791667,57.0,89.0
1150,232.61536701666668,232.7429994166667,54.0,97.0
1151,232.9344480166667,232.99560520833336,66.0,81.0
1152,232.9344480166667,233.0221952916667,57.0,81.0
1153,232.9344480166667,233.04878537500002,61.0,127.0
1154,233.2535290166667,233.4170580291667,40.0,44.0
1155,233.2535290166667,233.42636455833335,67.0,88.0
1156,233.2535290166667,233.44630712083335,59.0,96.0
1157,233.2535290166667,233.44630712083335,64.0,92.0
1158,233.2535290166667,233.45295464166668,52.0,100.0
1159,233.2535290166667,233.46093166666668,47.0,66.0
1160,233.5726100166667,233.66700481250004,40.0,55.0
1161,233.5726100166667,233.68162935833337,67.0,71.0
1162,233.5726100166667,233.69093588750002,64.0,69.0
1163,233.5726100166667,233.6922653916667,59.0,76.0
1164,233.5726100166667,233.69492440000002,52.0,81.0
1165,233.5726100166667,233.70954894583335,47.0,59.0
1166,233.8916910166667,234.01267589583335,67.0,86.0
1167,233.8916910166667,234.01666440833336,59.0,92.0
1168,233.8916910166667,234.01666440833336,64.0,90.0
1169,233.8916910166667,234.1948179666667,40.0,61.0
1170,233.8916910166667,234.20279499166668,52.0,81.0
1171,233.8916910166667,234.22539656250004,47.0,74.0
1172,234.21077201666668,234.33574540833337,67.0,81.0
1173,234.21077201666668,234.34106342500002,64.0,85.0
1174,234.21077201666668,234.34771094583337,59.0,86.0
1175,234.3703125166667,234.53915954583337,40.0,60.0
1176,234.3703125166667,234.5657496291667,52.0,85.0
1177,234.3703125166667,234.57106764583335,47.0,78.0
1178,234.5298530166667,234.64419037500002,67.0,70.0
1179,234.5298530166667,234.64817888750002,64.0,74.0
1180,234.5298530166667,234.6574854166667,59.0,79.0
1181,234.8489340166667,234.91939773750002,47.0,46.0
1182,234.8489340166667,234.93934030000003,52.0,72.0
1183,234.8489340166667,234.96194187083336,67.0,85.0
1184,234.8489340166667,234.96593038333336,59.0,88.0
1185,234.8489340166667,234.96725988750003,64.0,90.0
1186,235.1680150166667,235.33553254166668,40.0,75.0
1187,235.1680150166667,235.39270122083335,47.0,95.0
1188,235.1680150166667,235.44854039583336,64.0,102.0
1189,235.1680150166667,235.44854039583336,67.0,102.0
1190,235.1680150166667,235.54825320833336,52.0,99.0
1191,235.4870960166667,235.62270544166668,59.0,97.0
1192,235.6466365166667,235.6984871791667,61.0,44.0
1193,235.6466365166667,235.7024756916667,64.0,62.0
1194,235.80617701666668,235.96704702083335,57.0,99.0
1195,235.80617701666668,235.9776830541667,61.0,99.0
1196,235.80617701666668,235.98831908750003,64.0,86.0
1197,236.1252580166667,236.2489019041667,64.0,82.0
1198,236.1252580166667,236.25156091250003,61.0,93.0
1199,236.1252580166667,236.25421992083335,57.0,92.0
1200,236.4443390166667,236.6198335666667,61.0,112.0
1201,236.4443390166667,236.62116307083335,57.0,99.0
1202,236.4443390166667,236.62116307083335,64.0,95.0
1203,236.1252580166667,236.75012497500003,52.0,42.0
1204,236.7634200166667,236.93625555833336,57.0,89.0
1205,236.7634200166667,236.93625555833336,61.0,100.0
1206,236.7634200166667,236.93758506250003,64.0,90.0
1207,236.9229605166667,237.09180754583335,52.0,100.0
1208,237.0825010166667,237.22209895416668,57.0,89.0
1209,237.0825010166667,237.22342845833336,64.0,74.0
1210,237.0825010166667,237.22475796250004,61.0,85.0
1211,237.40158201666668,237.5212373916667,57.0,89.0
1212,237.40158201666668,237.52655540833337,61.0,107.0
1213,237.40158201666668,237.5292144166667,64.0,89.0
1214,237.2420415166667,237.74193508333335,52.0,95.0
1215,237.7206630166667,237.88419202916668,61.0,127.0
1216,237.7206630166667,237.90546409583337,64.0,112.0
1217,235.80617701666668,237.97858682500004,45.0,83.0
1218,237.88020351666668,237.97858682500004,52.0,97.0
1219,238.0397440166667,238.185989475,64.0,54.0
1220,238.0397440166667,238.24847617083336,57.0,127.0
1221,238.1992845166667,238.2950088166667,61.0,99.0
1222,238.35882501666669,238.4744918791667,62.0,96.0
1223,238.35882501666669,238.48778692083337,59.0,95.0
1224,238.35882501666669,238.49310493750002,66.0,99.0
1225,238.6779060166667,238.78825486250003,62.0,93.0
1226,238.6779060166667,238.79490238333335,59.0,85.0
1227,238.6779060166667,238.8055384166667,66.0,93.0
1228,238.35882501666669,238.85074155833337,47.0,90.0
1229,238.6779060166667,238.8573890791667,54.0,58.0
1230,238.99698701666668,239.09802933333336,62.0,95.0
1231,238.99698701666668,239.10600635833336,59.0,89.0
1232,238.99698701666668,239.12196040833336,66.0,97.0
1233,238.99698701666668,239.1565275166667,54.0,83.0
1234,238.99698701666668,239.17514057500003,47.0,66.0
1235,239.3160680166667,239.41312182083337,47.0,56.0
1236,239.3160680166667,239.4197693416667,62.0,89.0
1237,239.3160680166667,239.43306438333335,54.0,74.0
1238,239.3160680166667,239.4357233916667,59.0,83.0
1239,239.3160680166667,239.44104140833335,66.0,88.0
1240,239.6351490166667,239.75480439166668,62.0,88.0
1241,239.6351490166667,239.76411092083336,59.0,86.0
1242,239.6351490166667,239.7707584416667,66.0,92.0
1243,239.95423001666668,240.05660183750004,62.0,89.0
1244,239.95423001666668,240.0738853916667,59.0,85.0
1245,239.95423001666668,240.07654440000002,66.0,95.0
1246,239.6351490166667,240.1137705166667,54.0,79.0
1247,239.6351490166667,240.13504258333336,47.0,63.0
1248,240.2733110166667,240.36371730000002,62.0,95.0
1249,240.2733110166667,240.37967135000002,66.0,100.0
1250,240.2733110166667,240.38631887083335,59.0,92.0
1251,240.2733110166667,240.75459152500002,47.0,65.0
1252,240.2733110166667,240.76256855000003,54.0,89.0
1253,240.59239201666668,240.87025838750003,62.0,97.0
1254,240.59239201666668,240.87424690000003,66.0,102.0
1255,240.59239201666668,240.88887144583336,59.0,90.0
1256,240.9114730166667,241.0351169041667,62.0,86.0
1257,240.9114730166667,241.04575293750003,59.0,72.0
1258,240.9114730166667,241.05372996250003,66.0,97.0
1259,241.2305540166667,241.35153889583336,62.0,81.0
1260,241.2305540166667,241.35685691250004,59.0,79.0
1261,241.2305540166667,241.37546997083336,66.0,76.0
1262,241.54963501666668,241.66397237500001,62.0,96.0
1263,241.54963501666668,241.67061989583337,59.0,93.0
1264,241.54963501666668,241.68391493750002,66.0,96.0
1265,241.8687160166667,241.9724173416667,62.0,89.0
1266,241.8687160166667,241.9843828791667,59.0,89.0
1267,241.8687160166667,241.98704188750003,66.0,92.0
1268,240.9114730166667,242.00166643333336,54.0,97.0
1269,240.9114730166667,242.02027949166668,47.0,73.0
1270,242.1877970166667,242.29415735000003,62.0,88.0
1271,242.1877970166667,242.3074523916667,59.0,85.0
1272,242.1877970166667,242.30878189583336,66.0,92.0
1273,242.1877970166667,242.5906367791667,54.0,93.0
1274,242.5068780166667,242.62520388750002,62.0,86.0
1275,242.5068780166667,242.6345104166667,59.0,81.0
1276,242.1877970166667,242.63716942500002,47.0,61.0
1277,242.5068780166667,242.63982843333335,66.0,88.0
1278,242.8259590166667,242.91503579583335,62.0,99.0
1279,242.8259590166667,242.92035381250003,66.0,107.0
1280,242.8259590166667,242.93231935000003,59.0,93.0
1281,243.14504001666668,243.19954968750002,62.0,85.0
1282,243.14504001666668,243.22613977083336,66.0,83.0
1283,243.14504001666668,243.2726724166667,59.0,93.0
1284,243.4641210166667,243.58643540000003,61.0,100.0
1285,243.4641210166667,243.5877649041667,66.0,86.0
1286,243.4641210166667,243.60105994583336,57.0,93.0
1287,243.7832020166667,243.89089185416668,61.0,92.0
1288,243.7832020166667,243.89488036666668,66.0,81.0
1289,243.7832020166667,243.90418689583336,57.0,79.0
1290,244.1022830166667,244.20332533333337,61.0,112.0
1291,244.1022830166667,244.20332533333337,66.0,90.0
1292,244.1022830166667,244.21529087083337,57.0,93.0
1293,243.4641210166667,244.40673947083337,54.0,81.0
1294,243.4641210166667,244.43465905833335,42.0,92.0
1295,244.4213640166667,244.55830294583336,66.0,76.0
1296,244.4213640166667,244.56760947500004,57.0,72.0
1297,244.4213640166667,244.5689389791667,61.0,90.0
1298,244.74044501666668,244.84680535000004,61.0,96.0
1299,244.74044501666668,244.8481348541667,66.0,85.0
1300,244.74044501666668,244.85744138333337,57.0,89.0
1301,244.5809045166667,244.85877088750001,42.0,62.0
1302,244.5809045166667,244.86541840833337,54.0,82.0
1303,245.0595260166667,245.17253387083335,61.0,96.0
1304,245.0595260166667,245.17386337500002,66.0,86.0
1305,245.0595260166667,245.1791813916667,57.0,83.0
1306,245.3786070166667,245.53681801250002,61.0,117.0
1307,245.3786070166667,245.54080652500002,66.0,102.0
1308,245.3786070166667,245.54878355000002,57.0,90.0
1309,245.6976880166667,245.85191050000003,66.0,95.0
1310,245.6976880166667,245.85589901250003,61.0,99.0
1311,245.0595260166667,245.8878071125,54.0,83.0
1312,245.0595260166667,245.89179562500001,42.0,67.0
1313,246.0167690166667,246.1643439791667,57.0,95.0
1314,246.0167690166667,246.16567348333336,61.0,97.0
1315,246.0167690166667,246.16966199583337,66.0,86.0
1316,246.33585001666668,246.44486935833336,66.0,70.0
1317,246.33585001666668,246.44885787083336,61.0,88.0
1318,246.33585001666668,246.4541758875,57.0,75.0
1319,246.6549310166667,246.7745863916667,61.0,102.0
1320,246.6549310166667,246.77990440833335,57.0,93.0
1321,246.6549310166667,246.78389292083335,66.0,96.0
1322,246.0167690166667,247.0458052416667,54.0,92.0
1323,246.9740120166667,247.06308879583335,66.0,86.0
1324,246.9740120166667,247.06441830000003,61.0,96.0
1325,246.9740120166667,247.07904284583336,57.0,77.0
1326,246.0167690166667,247.18407367500004,42.0,70.0
1327,247.1335525166667,247.22262929583337,61.0,96.0
1328,247.1335525166667,247.22395880000002,66.0,99.0
1329,247.1335525166667,247.22661780833337,57.0,73.0
1330,247.2930930166667,247.40211235833337,42.0,75.0
1331,247.2930930166667,247.41008938333337,66.0,78.0
1332,247.2930930166667,247.41407789583337,61.0,83.0
1333,247.2930930166667,247.41939591250002,57.0,78.0
1334,247.2930930166667,247.42338442500002,54.0,96.0
1335,247.6121740166667,247.7198638541667,57.0,89.0
1336,247.6121740166667,247.7198638541667,66.0,89.0
1337,247.6121740166667,247.72119335833335,61.0,102.0
1338,247.6121740166667,248.05622840833337,54.0,96.0
1339,247.6121740166667,248.0907955166667,42.0,75.0
1340,247.93125501666668,248.21310990000003,66.0,122.0
1341,247.93125501666668,248.22906395000004,61.0,127.0
1342,248.2503360166667,248.39392246666668,57.0,99.0
1343,248.5694170166667,248.7010379291667,59.0,93.0
1344,248.5694170166667,248.71566247500002,62.0,92.0
1345,248.5694170166667,248.7169919791667,55.0,97.0
1346,248.8884980166667,248.99884686250002,55.0,78.0
1347,248.8884980166667,248.99884686250002,59.0,82.0
1348,248.8884980166667,249.00283537500002,62.0,77.0
1349,249.2075790166667,249.3033033166667,59.0,95.0
1350,249.2075790166667,249.30995083750003,55.0,99.0
1351,249.2075790166667,249.31792786250003,62.0,90.0
1352,249.52666001666668,249.5944647291667,59.0,93.0
1353,249.52666001666668,249.59579423333335,55.0,88.0
1354,249.52666001666668,249.59978274583335,62.0,92.0
1355,248.5694170166667,249.7659707666667,43.0,86.0
1356,249.6862005166667,249.77261828750002,59.0,78.0
1357,249.6862005166667,249.7739477916667,62.0,79.0
1358,249.6862005166667,249.77660680000002,55.0,72.0
1359,249.6862005166667,249.79654936250003,50.0,54.0
1360,249.8457410166667,249.94811283750002,59.0,89.0
1361,249.8457410166667,249.9534308541667,55.0,86.0
1362,249.8457410166667,249.96007837500002,62.0,88.0
1363,249.8457410166667,249.97071440833335,43.0,85.0
1364,250.1648220166667,250.26187582083335,59.0,92.0
1365,250.1648220166667,250.2685233416667,55.0,90.0
1366,250.1648220166667,250.27517086250003,62.0,90.0
1367,250.4839030166667,250.65009103750003,59.0,95.0
1368,250.4839030166667,250.6873171541667,62.0,97.0
1369,250.8029840166667,250.86547071250004,59.0,36.0
1370,250.8029840166667,250.90535583750003,62.0,29.0
1371,250.1648220166667,251.00772765833335,43.0,90.0
1372,250.8029840166667,251.01171617083335,55.0,96.0
1373,250.8029840166667,251.08749790833335,50.0,53.0
1374,251.12206501666668,251.28426452500003,61.0,93.0
1375,251.12206501666668,251.28426452500003,66.0,83.0
1376,251.12206501666668,251.29490055833335,57.0,85.0
1377,251.4411460166667,251.5568128791667,66.0,81.0
1378,251.4411460166667,251.5608013916667,57.0,78.0
1379,251.4411460166667,251.56346040000003,61.0,85.0
1380,251.7602270166667,251.88785941666669,57.0,90.0
1381,251.7602270166667,251.8918479291667,61.0,107.0
1382,251.7602270166667,251.8918479291667,66.0,96.0
1383,251.9197675166667,252.08063752083336,54.0,57.0
1384,251.12206501666668,252.08196702500004,42.0,82.0
1385,252.0793080166667,252.23353050000003,66.0,75.0
1386,252.0793080166667,252.2348600041667,57.0,66.0
1387,252.0793080166667,252.28538116250002,61.0,95.0
1388,252.3983890166667,252.54729348333336,59.0,90.0
1389,252.3983890166667,252.5539410041667,62.0,95.0
1390,252.3983890166667,252.55527050833336,66.0,95.0
1391,252.71747001666668,252.83446638333336,59.0,77.0
1392,252.71747001666668,252.8451024166667,62.0,88.0
1393,252.71747001666668,252.84643192083337,66.0,86.0
1394,253.0365510166667,253.12562779583337,62.0,102.0
1395,253.0365510166667,253.12961630833337,66.0,112.0
1396,253.0365510166667,253.14158184583337,59.0,92.0
1397,252.3983890166667,253.15886540000002,47.0,67.0
1398,253.3556320166667,253.42077772083337,62.0,95.0
1399,253.3556320166667,253.4274252416667,66.0,89.0
1400,253.3556320166667,253.44603830000003,59.0,85.0
1401,253.5151725166667,253.56303466666668,59.0,35.0
1402,253.5151725166667,253.57500020416668,62.0,51.0
1403,253.6747130166667,253.84621905416668,67.0,95.0
1404,253.6747130166667,253.85419607916668,59.0,73.0
1405,253.6747130166667,253.86483211250004,64.0,95.0
1406,253.9937940166667,254.11079038333335,67.0,72.0
1407,253.9937940166667,254.1134493916667,59.0,78.0
1408,253.9937940166667,254.12807393750003,64.0,77.0
1409,254.31287501666668,254.43120088750004,59.0,93.0
1410,254.31287501666668,254.43518940000004,67.0,93.0
1411,254.31287501666668,254.44183692083337,64.0,97.0
1412,254.6319560166667,254.76224742500003,67.0,72.0
1413,254.6319560166667,254.77288345833335,64.0,79.0
1414,254.6319560166667,254.77421296250003,59.0,74.0
1415,254.9510370166667,255.11323652500002,67.0,77.0
1416,254.9510370166667,255.11589553333337,59.0,85.0
1417,254.9510370166667,255.11722503750002,64.0,78.0
1418,255.2701180166667,255.41104545833335,59.0,77.0
1419,255.2701180166667,255.41104545833335,67.0,73.0
1420,255.2701180166667,255.42035198750003,64.0,77.0
1421,253.6747130166667,255.68226430833337,40.0,92.0
1422,253.9937940166667,255.68758232500002,47.0,36.0
1423,254.79149651666668,255.70619538333335,52.0,76.0
1424,255.5891990166667,255.71018389583335,67.0,99.0
1425,255.5891990166667,255.72214943333336,64.0,102.0
1426,256.0678205166667,256.13695473333337,59.0,92.0
1427,255.9082800166667,256.17285134583335,64.0,112.0
1428,255.9082800166667,256.1794988666667,67.0,100.0
1429,255.9082800166667,256.21406597500004,40.0,60.0
1430,255.9082800166667,256.21406597500004,47.0,57.0
1431,255.9082800166667,256.21672498333334,52.0,82.0
1432,256.2273610166667,256.4360931708334,57.0,90.0
1433,256.2273610166667,256.43742267500005,64.0,85.0
1434,256.2273610166667,256.4414111875,61.0,93.0
1435,256.5464420166667,256.6594498708334,61.0,95.0
1436,256.5464420166667,256.66343838333336,64.0,85.0
1437,256.5464420166667,256.6674268958334,57.0,85.0
1438,256.8655230166667,257.19789905833335,64.0,85.0
1439,256.8655230166667,257.2005580666667,57.0,88.0
1440,256.8655230166667,257.2018875708334,61.0,97.0
1441,256.2273610166667,257.35743955833334,45.0,92.0
1442,257.1846040166667,257.43720980833336,52.0,58.0
1443,257.3441445166667,257.64062394583334,57.0,90.0
1444,257.3441445166667,257.64594196250005,61.0,100.0
1445,257.3441445166667,257.6472714666667,64.0,88.0
1446,257.8227660166667,257.97299998750003,57.0,85.0
1447,257.8227660166667,257.9862950291667,61.0,93.0
1448,257.8227660166667,257.98762453333336,64.0,78.0
1449,257.5036850166667,258.15248305,52.0,72.0
1450,258.1418470166667,258.3186710708334,64.0,96.0
1451,258.1418470166667,258.3239890875,61.0,127.0
1452,258.3013875166667,258.68960273333334,52.0,99.0
1453,258.4609280166667,258.6922617416667,57.0,100.0
1454,257.5036850166667,258.69625025416667,45.0,67.0
1455,258.4609280166667,258.718851825,61.0,107.0
1456,258.4609280166667,258.7414533958334,64.0,95.0
1457,258.78000901666667,258.9089709208334,59.0,93.0
1458,258.78000901666667,258.91295943333336,62.0,99.0
1459,258.78000901666667,258.9342315,66.0,99.0
1460,259.0990900166667,259.18949630000003,62.0,86.0
1461,259.0990900166667,259.2081093583334,66.0,89.0
1462,259.0990900166667,259.2094388625,59.0,81.0
1463,259.4181710166667,259.52984936666667,62.0,97.0
1464,259.4181710166667,259.5458034166667,59.0,89.0
1465,259.4181710166667,259.5537804416667,66.0,100.0
1466,259.7372520166667,259.8489303666667,62.0,89.0
1467,259.7372520166667,259.85557788750003,59.0,86.0
1468,258.78000901666667,259.8608959041667,54.0,99.0
1469,259.7372520166667,259.87153193750004,66.0,88.0
1470,259.8967925166667,260.0363904541667,54.0,64.0
1471,260.0563330166667,260.17332938333334,62.0,93.0
1472,260.0563330166667,260.18795392916667,59.0,90.0
1473,260.0563330166667,260.19593095416667,66.0,95.0
1474,260.3754140166667,260.4910808791667,62.0,72.0
1475,260.3754140166667,260.51368245000003,66.0,72.0
1476,260.3754140166667,260.5163414583334,59.0,72.0
1477,260.6944950166667,260.8141503916667,62.0,97.0
1478,260.6944950166667,260.82877493750004,66.0,112.0
1479,261.0135760166667,261.08669874583336,62.0,100.0
1480,261.0135760166667,261.0906872583334,66.0,107.0
1481,261.0135760166667,261.1079708125,59.0,82.0
1482,258.78000901666667,261.1412084166667,47.0,72.0
1483,260.2158735166667,261.2316147,54.0,85.0
1484,261.1731165166667,261.24623924583335,66.0,69.0
1485,261.1731165166667,261.2528867666667,62.0,73.0
1486,261.1731165166667,261.25421627083335,59.0,63.0
1487,261.3326570166667,261.4563009041667,62.0,93.0
1488,261.3326570166667,261.4656074333334,59.0,89.0
1489,261.3326570166667,261.47358445833333,66.0,93.0
1490,261.6517380166667,261.750121325,62.0,89.0
1491,261.6517380166667,261.766075375,59.0,83.0
1492,261.6517380166667,261.77671140833337,66.0,93.0
1493,261.97081901666667,262.0652138125,62.0,100.0
1494,261.97081901666667,262.0838268708334,59.0,95.0
1495,261.97081901666667,262.08515637500005,66.0,102.0
1496,261.3326570166667,262.2672984458334,54.0,90.0
1497,262.2899000166667,262.41886192083336,62.0,89.0
1498,262.2899000166667,262.43481597083337,59.0,86.0
1499,262.2899000166667,262.4427929958334,66.0,97.0
1500,262.6089810166667,262.65152515000005,66.0,30.0
1501,262.6089810166667,262.6741267208334,62.0,37.0
1502,262.6089810166667,262.72198887083334,59.0,66.0
1503,262.9280620166667,263.0304338375,62.0,90.0
1504,262.9280620166667,263.0397403666667,59.0,88.0
1505,262.9280620166667,263.05436491250003,66.0,97.0
1506,262.4494405166667,263.11020408750005,54.0,89.0
1507,261.3326570166667,263.1899743375,47.0,74.0
1508,263.2471430166667,263.36413938333334,62.0,99.0
1509,263.2471430166667,263.53564542083336,66.0,122.0
1510,263.5662240166667,263.6619483166667,59.0,100.0
1511,263.8853050166667,263.98767683750003,55.0,102.0
1512,263.8853050166667,263.99565386250003,59.0,96.0
1513,263.8853050166667,264.0049603916667,62.0,99.0
1514,264.2043860166667,264.3001103166667,59.0,78.0
1515,264.2043860166667,264.3080873416667,62.0,74.0
1516,264.2043860166667,264.3120758541667,55.0,82.0
1517,264.5234670166667,264.6152028041667,59.0,99.0
1518,264.5234670166667,264.62849784583335,55.0,97.0
1519,264.5234670166667,264.62982735,62.0,97.0
1520,264.2043860166667,264.70295007916667,50.0,55.0
1521,264.8425480166667,264.94757884583333,59.0,88.0
1522,264.8425480166667,264.96087388750004,55.0,90.0
1523,264.8425480166667,264.9648624,62.0,89.0
1524,265.1616290166667,265.20417315000003,59.0,62.0
1525,265.1616290166667,265.25868282083337,62.0,72.0
1526,265.1616290166667,265.3092039791667,55.0,93.0
1527,265.4807100166667,265.5963768791667,59.0,83.0
1528,265.4807100166667,265.5977063833334,55.0,88.0
1529,265.4807100166667,265.60568340833333,62.0,82.0
1530,265.7997910166667,265.89684482083334,59.0,102.0
1531,265.7997910166667,265.91279887083334,62.0,96.0
1532,265.7997910166667,265.92077589583334,55.0,99.0
1533,265.0020885166667,265.96199052500003,50.0,90.0
1534,263.8853050166667,266.2185848291667,43.0,81.0
1535,266.11887201666667,266.22922086250003,55.0,88.0
1536,266.11887201666667,266.22922086250003,59.0,90.0
1537,266.11887201666667,266.2385273916667,50.0,29.0
1538,266.11887201666667,266.249163425,62.0,88.0
1539,266.4379530166667,266.5496313666667,59.0,92.0
1540,266.4379530166667,266.55096087083336,55.0,90.0
1541,266.4379530166667,266.5642559125,62.0,90.0
1542,266.7570340166667,266.8288272416667,55.0,82.0
1543,266.7570340166667,266.83813377083334,59.0,88.0
1544,266.7570340166667,266.83813377083334,62.0,86.0
1545,267.0761150166667,267.17050981250003,71.0,100.0
1546,267.0761150166667,267.1758278291667,67.0,102.0
1547,267.0761150166667,267.17848683750003,62.0,92.0
1548,267.3951960166667,267.50953337500005,71.0,86.0
1549,267.3951960166667,267.5135218875,67.0,90.0
1550,267.3951960166667,267.51751040000005,62.0,88.0
1551,267.5547365166667,267.83526189583336,55.0,83.0
1552,267.7142770166667,267.8472274333334,67.0,92.0
1553,267.7142770166667,267.8485569375,71.0,89.0
1554,267.7142770166667,267.85254545000004,62.0,93.0
1555,267.8738175166667,268.131741325,55.0,66.0
1556,268.0333580166667,268.15035438333337,67.0,92.0
1557,268.0333580166667,268.15168388750004,62.0,92.0
1558,268.0333580166667,268.15434289583334,71.0,88.0
1559,266.4379530166667,268.39365364583335,43.0,97.0
1560,267.0761150166667,268.44151579583337,50.0,48.0
1561,268.3524390166667,268.46677637500005,67.0,100.0
1562,268.3524390166667,268.4720943916667,71.0,95.0
1563,268.3524390166667,268.4787419125,62.0,96.0
1564,268.3524390166667,268.5000139791667,55.0,61.0
1565,268.6715200166667,268.70209861250004,71.0,57.0
1566,268.6715200166667,268.73267720833337,67.0,86.0
1567,268.6715200166667,268.7805393583334,62.0,100.0
1568,268.9906010166667,269.1129154,66.0,95.0
1569,268.9906010166667,269.12753994583335,59.0,112.0
1570,268.9906010166667,269.1341874666667,62.0,97.0
1571,269.30968201666667,269.41604235000005,62.0,68.0
1572,269.30968201666667,269.42667838333335,59.0,74.0
1573,269.30968201666667,269.44263243333336,66.0,72.0
1574,269.6287630166667,269.7298053333334,62.0,97.0
1575,269.6287630166667,269.74575938333334,59.0,90.0
1576,269.6287630166667,269.75772492083337,66.0,99.0
1577,268.9906010166667,270.00102418333336,54.0,72.0
1578,269.9478440166667,270.062181375,62.0,88.0
1579,269.9478440166667,270.08212393750006,59.0,82.0
1580,269.9478440166667,270.0954189791667,66.0,89.0
1581,270.2669250166667,270.39987543333336,62.0,88.0
1582,270.2669250166667,270.4264655166667,66.0,90.0
1583,270.2669250166667,270.4304540291667,59.0,82.0
1584,270.5860060166667,270.7056613916667,62.0,89.0
1585,270.5860060166667,270.7149679208334,59.0,82.0
1586,270.5860060166667,270.7295924666667,66.0,90.0
1587,270.9050870166667,270.9901752833334,62.0,100.0
1588,270.9050870166667,271.0167653666667,59.0,100.0
1589,270.9050870166667,271.0207538791667,66.0,112.0
1590,271.2241680166667,271.31723330833336,62.0,95.0
1591,271.2241680166667,271.33318735833336,59.0,83.0
1592,271.2241680166667,271.3398348791667,66.0,93.0
1593,270.1073845166667,271.44087719583337,54.0,92.0
1594,268.9906010166667,271.4461952125,47.0,75.0
1595,271.5432490166667,271.63631430833334,62.0,97.0
1596,271.5432490166667,271.6482798458334,59.0,93.0
1597,271.5432490166667,271.6562568708334,66.0,102.0
1598,271.8623300166667,271.96869035000003,62.0,88.0
1599,271.8623300166667,271.98464440000004,59.0,79.0
1600,271.8623300166667,271.9873034083334,66.0,89.0
1601,272.1814110166667,272.27846482083334,62.0,96.0
1602,272.1814110166667,272.2891008541667,59.0,83.0
1603,272.1814110166667,272.29840738333337,66.0,97.0
1604,271.5432490166667,272.4978330083334,54.0,96.0
1605,272.50049201666667,272.6108408625,62.0,89.0
1606,272.50049201666667,272.63344243333336,59.0,79.0
1607,272.50049201666667,272.63876045,66.0,95.0
1608,272.8195730166667,272.93258087083336,62.0,88.0
1609,272.8195730166667,272.9432169041667,59.0,83.0
1610,272.8195730166667,272.95252343333334,66.0,96.0
1611,273.1386540166667,273.24501435,62.0,92.0
1612,271.5432490166667,273.25033236666667,47.0,73.0
1613,273.1386540166667,273.2556503833334,59.0,82.0
1614,273.1386540166667,273.268945425,66.0,97.0
1615,272.6600325166667,273.2981945166667,54.0,86.0
1616,273.4577350166667,273.5534593166667,62.0,99.0
1617,273.4577350166667,273.5694133666667,59.0,95.0
1618,273.4577350166667,273.5694133666667,66.0,112.0
1619,273.4577350166667,273.6465246083334,54.0,102.0
1620,273.4577350166667,273.68375072500004,47.0,66.0
1621,273.7768160166667,273.9616170958334,62.0,99.0
1622,273.7768160166667,273.97757114583334,59.0,95.0
1623,273.7768160166667,273.98554817083334,66.0,107.0
1624,274.0958970166667,274.17433776250004,55.0,92.0
1625,274.0958970166667,274.178326275,59.0,90.0
1626,274.0958970166667,274.18098528333337,62.0,85.0
1627,274.4149780166667,274.48145322500005,62.0,85.0
1628,274.4149780166667,274.4934187625,71.0,97.0
1629,274.4149780166667,274.5040547958334,67.0,99.0
1630,274.7340590166667,274.82712430833334,71.0,85.0
1631,274.7340590166667,274.8284538125,62.0,89.0
1632,274.7340590166667,274.83244232500005,67.0,90.0
1633,274.0958970166667,274.8577029041667,43.0,88.0
1634,274.7340590166667,274.8736569541667,55.0,90.0
1635,274.4149780166667,274.8776454666667,50.0,72.0
1636,275.0531400166667,275.15950035000003,43.0,47.0
1637,275.0531400166667,275.1634888625,62.0,88.0
1638,275.0531400166667,275.1688068791667,71.0,85.0
1639,275.0531400166667,275.17545440000004,67.0,90.0
1640,275.0531400166667,275.1953969625,50.0,66.0
1641,275.0531400166667,275.20603299583337,55.0,83.0
1642,275.3722210166667,275.4958649041667,43.0,48.0
1643,275.3722210166667,275.5158074666667,50.0,58.0
1644,275.3722210166667,275.5158074666667,62.0,76.0
1645,275.3722210166667,275.5197959791667,55.0,86.0
1646,275.3722210166667,275.52245498750005,71.0,71.0
1647,275.3722210166667,275.5264435,67.0,71.0
1648,275.69130201666667,275.81760491250003,62.0,74.0
1649,275.69130201666667,275.821593425,71.0,77.0
1650,275.69130201666667,275.83222945833336,67.0,81.0
1651,276.0103830166667,276.12472037500004,62.0,99.0
1652,276.0103830166667,276.12472037500004,71.0,99.0
1653,276.0103830166667,276.13136789583336,67.0,99.0
1654,275.69130201666667,276.15928748333334,43.0,56.0
1655,275.69130201666667,276.16460550000005,55.0,90.0
1656,275.69130201666667,276.1845480625,50.0,72.0
1657,276.3294640166667,276.42651782083334,71.0,96.0
1658,276.3294640166667,276.43050633333337,67.0,102.0
1659,276.3294640166667,276.43449484583334,62.0,93.0
1660,276.3294640166667,276.43981286250005,43.0,38.0
1661,276.3294640166667,276.46640294583335,50.0,56.0
1662,276.3294640166667,276.4770389791667,55.0,73.0
1663,276.6485450166667,276.7695298958334,71.0,86.0
1664,276.6485450166667,276.7721889041667,62.0,86.0
1665,276.6485450166667,276.77351840833336,67.0,90.0
1666,276.9676260166667,277.0872813916667,71.0,89.0
1667,276.9676260166667,277.08861089583337,62.0,92.0
1668,276.6485450166667,277.09259940833334,43.0,74.0
1669,276.9676260166667,277.0965879208334,67.0,92.0
1670,276.6485450166667,277.1191894916667,50.0,83.0
1671,276.6485450166667,277.1205189958334,55.0,99.0
1672,277.2867070166667,277.39705586250005,71.0,93.0
1673,277.2867070166667,277.401044375,62.0,97.0
1674,277.2867070166667,277.40902140000003,67.0,97.0
1675,277.2867070166667,277.4196574333334,43.0,69.0
1676,277.2867070166667,277.4289639625,50.0,89.0
1677,277.2867070166667,277.4422590041667,55.0,95.0
1678,277.6057880166667,277.6629566958334,71.0,99.0
1679,277.6057880166667,277.67226322500005,55.0,99.0
1680,277.6057880166667,277.67492223333335,67.0,107.0
1681,277.6057880166667,277.68024025000005,62.0,107.0
1682,277.9248690166667,278.0764324916667,50.0,52.0
1683,277.9248690166667,278.0804210041667,43.0,52.0
1684,277.9248690166667,278.08972753333336,55.0,83.0
1685,277.9248690166667,278.09903406250004,62.0,85.0
1686,277.9248690166667,278.10568158333336,67.0,82.0
1687,277.9248690166667,278.1083405916667,71.0,77.0
1688,278.2439500166667,278.3782299375,43.0,59.0
1689,278.2439500166667,278.3862069625,50.0,60.0
1690,278.2439500166667,278.39817250000004,55.0,83.0
1691,278.2439500166667,278.4181150625,62.0,81.0
1692,278.2439500166667,278.42476258333335,67.0,74.0
1693,278.2439500166667,278.4353986166667,71.0,70.0
1694,278.5630310166667,278.67603887083334,43.0,58.0
1695,278.5630310166667,278.67603887083334,50.0,63.0
1696,278.5630310166667,278.69996994583335,55.0,90.0
1697,278.5630310166667,278.70794697083335,62.0,82.0
1698,278.5630310166667,278.7106059791667,67.0,77.0
1699,278.5630310166667,278.7172535,71.0,70.0
1700,278.8821120166667,279.18789797500006,67.0,97.0
1701,278.8821120166667,279.19853400833335,50.0,88.0
1702,278.8821120166667,279.2025225208334,62.0,99.0
1703,278.8821120166667,279.2104995458334,55.0,112.0
1704,278.8821120166667,279.2104995458334,71.0,95.0
1705,278.8821120166667,279.235760125,43.0,75.0
1706,279.2011930166667,279.7103931125,78.0,53.0
1707,279.2011930166667,279.75825526250003,74.0,59.0
1708,279.2011930166667,280.33260106250003,69.0,53.0
1709,279.8393550166667,280.5107546208334,62.0,40.0
1710,280.1584360166667,281.1369510833334,78.0,64.0
1711,280.7965980166667,281.3337177,62.0,31.0
1712,281.4347600166667,281.9439601125,62.0,35.0
1713,282.0729220166667,282.52096492083336,62.0,32.0
1714,281.7538410166667,282.8333984,78.0,56.0
1715,282.7110840166667,283.13918435833335,62.0,35.0
1716,283.0301650166667,283.5446831291667,78.0,55.0
1717,283.3492460166667,283.78000536666667,62.0,39.0
1718,282.3920030166667,284.0312816541667,74.0,45.0
1719,283.9874080166667,284.33174959583334,62.0,40.0
1720,281.1156790166667,284.6614666291667,81.0,60.0
1721,284.6255700166667,285.02176225833335,62.0,41.0
1722,285.2637320166667,285.61206210833336,62.0,37.0
1723,284.9446510166667,285.8979055041667,81.0,57.0
1724,285.5828130166667,286.0348444333334,86.0,45.0
1725,283.6683270166667,286.1930554291667,78.0,55.0
1726,285.9018940166667,286.3525959291667,62.0,36.0
1727,286.5400560166667,287.00538247500003,62.0,37.0
1728,284.3064890166667,287.13700338750004,74.0,38.0
1729,287.1782180166667,287.6076478625,62.0,39.0
1730,286.8591370166667,287.96262547500004,78.0,44.0
1731,287.8163800166667,288.27771796250005,62.0,39.0
1732,288.1354610166667,288.61275301250004,78.0,52.0
1733,287.4972990166667,288.91056194583336,74.0,41.0
1734,288.7736230166667,289.1684857541667,78.0,49.0
1735,286.22097501666667,289.24559699583335,81.0,51.0
1736,279.2011930166667,289.2668690625,50.0,69.0
1737,279.5202740166667,289.37721790833336,57.0,31.0
1738,288.4545420166667,291.50043606250006,62.0,41.0
1739,289.41178501666667,291.5163901125,50.0,42.0
1740,289.41178501666667,291.6254094541667,78.0,27.0
1741,289.41178501666667,291.6254094541667,81.0,27.0
1742,289.0927040166667,291.6825781333334,74.0,37.0
