,start,end,pitch,velocity
0,35.37274334375,35.56353289375,74.0,79.0
1,35.570111843750006,35.760901393750004,76.0,80.0
2,35.76748034375,36.84211234375,78.0,77.0
3,36.848362343750004,37.21711234375,78.0,79.0
4,37.223362343750004,37.587560002083336,78.0,75.0
5,37.593732843750004,38.14311575208334,76.0,75.0
6,38.14928859375001,38.51348625208334,74.0,78.0
7,38.51965909375001,38.698671502083336,71.0,59.0
8,38.704844343750004,41.31018384375,74.0,79.0
9,41.31667734375,41.504988843750006,74.0,78.0
10,41.511482343750004,41.69979384375,76.0,79.0
11,41.706287343750006,42.793990227083334,78.0,80.0
12,42.800319343750004,43.173737227083336,78.0,78.0
13,43.18006634375,43.729449252083334,78.0,75.0
14,43.73562209375,44.099819752083334,76.0,83.0
15,44.10599259375,44.470190252083334,74.0,84.0
16,44.47636309375,45.210931252083334,83.0,80.0
17,45.21710409375,47.22992484375,81.0,76.0
18,47.23633509375,47.41421953125,78.0,78.0
19,47.42062978125,47.64659109375,81.0,75.0
20,47.65300134375,48.17653049375,83.0,77.0
21,48.18241284375,48.72308100208333,83.0,82.0
22,48.72925384375,49.09345150208333,83.0,82.0
23,49.09962434375,50.20456300208333,81.0,80.0
24,50.21073584375,50.389748252083336,78.0,84.0
25,50.395921093750005,50.57493350208333,76.0,78.0
26,50.58110634375,51.31567450208333,78.0,82.0
27,51.32184734375,52.05641550208333,76.0,82.0
28,52.06258834375,53.16752700208333,74.0,84.0
29,53.17369984375,53.352712252083336,74.0,78.0
30,53.358885093750004,53.53789750208333,76.0,82.0
31,53.54407034375,54.64900900208333,78.0,80.0
32,54.65518184375,54.834194252083336,78.0,76.0
33,54.840367093750004,55.01937950208333,78.0,62.0
34,55.02555234375,55.39430234375,78.0,72.0
35,55.40055234375,56.14430234375,76.0,80.0
36,56.15055234375,56.33180234375,74.0,78.0
37,56.33805234375,56.51930234375,71.0,74.0
38,56.52555234375,59.14430234375,74.0,81.0
39,59.15055234375,59.33180234375,74.0,79.0
40,59.33805234375,59.51930234375,76.0,80.0
41,59.52555234375,60.61701379375,78.0,77.0
42,60.62311134375,60.98286679375,78.0,79.0
43,60.98896434375,61.34871979375,78.0,75.0
44,61.35481734375,61.89749929375,76.0,75.0
45,61.90359684375,62.26335229375,74.0,78.0
46,62.26944984375,62.446278793750004,71.0,59.0
47,62.452376343750004,65.04425703125,74.0,79.0
48,65.05035458125,65.22718353125,74.0,78.0
49,65.23328108125,65.41011003125,76.0,79.0
50,65.41620758125,65.78962546458334,78.0,80.0
51,65.79595458125,66.54911946458334,78.0,80.0
52,66.55544858125,66.92886646458334,78.0,78.0
53,66.93519558125001,67.49848696458334,78.0,75.0
54,67.50481608125001,68.05011098958333,76.0,83.0
55,68.05613508125,68.23083373958333,74.0,84.0
56,68.23685783125,68.95372473958334,83.0,80.0
57,68.95974883125,71.00922158125,81.0,76.0
58,71.01547158125,71.19672158125,78.0,78.0
59,71.20297158125,71.38422158125,81.0,75.0
60,71.39047158125,71.74589298958333,83.0,77.0
61,71.75191708125,72.29461258125001,83.0,82.0
62,72.30086258125,72.66961258125001,85.0,82.0
63,72.67586258125,72.85711258125001,86.0,82.0
64,72.86336258125,73.23211258125001,85.0,90.0
65,73.23836258125,73.98211258125001,85.0,90.0
66,73.98836258125,74.16961258125001,86.0,90.0
67,74.17586258125,74.35711258125001,88.0,79.0
68,74.36336258125,75.10711258125001,86.0,83.0
69,75.11336258125,75.85711258125001,85.0,83.0
70,75.86336258125,76.93445446458334,83.0,86.0
71,76.94078358125,77.12432796458334,78.0,84.0
72,77.13065708125,77.31420146458333,78.0,82.0
73,77.32053058125001,77.68028603125,76.0,83.0
74,77.68638358125001,78.23348658125002,74.0,84.0
75,78.23973658125001,78.42098658125002,74.0,78.0
76,78.42723658125001,78.60848658125002,83.0,80.0
77,78.61473658125001,78.79598658125002,83.0,73.0
78,78.80223658125001,79.17098658125002,83.0,83.0
79,79.17723658125001,79.54598658125002,83.0,84.0
80,79.55223658125001,79.72485545625001,83.0,82.0
81,79.73080783125002,80.26056920625001,83.0,86.0
82,80.26652158125002,82.69269796458335,81.0,86.0
83,82.69902708125002,82.88257146458335,81.0,69.0
84,82.88890058125001,83.07244496458335,81.0,71.0
85,83.07877408125002,83.26231846458334,81.0,69.0
86,83.26864758125002,83.61167063125002,91.0,95.0
87,83.61748458125003,83.96050763125002,90.0,86.0
88,83.96632158125003,84.15221883125002,88.0,83.0
89,84.15862908125003,84.53683383125002,86.0,83.0
90,84.54324408125002,86.19358658125003,81.0,73.0
91,86.19983658125003,86.56858658125003,88.0,90.0
92,86.57483658125003,86.94358658125003,86.0,90.0
93,86.94983658125003,87.13108658125003,85.0,80.0
94,87.13733658125003,87.50608658125003,83.0,83.0
95,87.51233658125003,89.19358658125003,78.0,91.0
96,89.19983658125003,89.37884898958336,83.0,90.0
97,89.38502183125003,89.56403423958336,83.0,82.0
98,89.57020708125003,89.74921948958335,83.0,84.0
99,89.75539233125002,89.93440473958336,83.0,80.0
100,89.94057758125003,90.30477523958336,83.0,83.0
101,90.31094808125003,90.48996048958335,86.0,90.0
102,90.49613333125002,91.75963098958336,81.0,82.0
103,91.76565508125003,91.94035373958336,76.0,84.0
104,91.94637783125002,92.12107648958336,78.0,79.0
105,92.12710058125002,92.31299783125002,79.0,90.0
106,92.31940808125002,92.69761283125001,79.0,86.0
107,92.70402308125001,92.88992033125002,79.0,86.0
108,92.89633058125001,93.26508058125002,79.0,90.0
109,93.27133058125001,93.45258058125002,79.0,78.0
110,93.45883058125001,93.64008058125002,81.0,78.0
111,93.64633058125001,93.98541095625,78.0,84.0
112,93.99115808125,94.52677513125002,76.0,80.0
113,94.53335408125001,94.72414363125002,81.0,69.0
114,94.73072258125002,94.92151213125001,81.0,71.0
115,94.92809108125002,95.11888063125001,81.0,69.0
116,95.12545958125001,95.47664970625002,91.0,95.0
117,95.48260208125001,95.83379220625001,90.0,86.0
118,95.83974458125002,96.02805608125001,88.0,83.0
119,96.03454958125002,96.41766608125002,86.0,83.0
120,96.42415958125002,98.07627903125001,81.0,73.0
121,98.08237658125002,98.44213203125001,88.0,90.0
122,98.44822958125002,98.80798503125001,86.0,90.0
123,98.81408258125,98.99091153125,85.0,80.0
124,98.99700908125001,99.35676453125001,83.0,83.0
125,99.36286208125001,101.03089103125001,78.0,91.0
126,101.03698858125001,101.21381753125002,83.0,90.0
127,101.21991508125001,101.39674403125001,83.0,82.0
128,101.40284158125002,101.57967053125002,83.0,84.0
129,101.58576808125001,101.76259703125001,83.0,80.0
130,101.76869458125002,102.12845003125001,83.0,83.0
131,102.13454758125002,102.31137653125,86.0,90.0
132,102.31747408125001,103.22600903125002,81.0,82.0
133,103.23210658125001,103.42041808125,76.0,83.0
134,103.42691158125001,103.61522308125001,78.0,77.0
135,103.62171658125001,104.00483308125001,76.0,80.0
136,104.01132658125,112.93347703125,74.0,84.0
137,115.50054558125001,115.67737453125001,74.0,79.0
138,115.68347208125,115.86030103125,76.0,80.0
139,115.86639858125001,116.98514858125002,78.0,77.0
140,116.99139858125001,117.36014858125002,78.0,79.0
141,117.36639858125001,117.73514858125002,78.0,75.0
142,117.74139858125001,118.29764858125002,76.0,75.0
143,118.30389858125001,118.67264858125002,74.0,78.0
144,118.67889858125001,118.86014858125002,71.0,59.0
145,118.86639858125001,121.45803958125002,74.0,79.0
146,121.46428958125001,121.64553958125002,74.0,78.0
147,121.65178958125001,121.83303958125002,76.0,79.0
148,121.83928958125001,122.92232458125002,78.0,80.0
149,122.92857458125002,123.29732458125002,78.0,78.0
150,123.30357458125002,123.85295748958335,78.0,75.0
151,123.85913033125001,124.22332798958335,76.0,83.0
152,124.22950083125002,124.59369848958335,74.0,84.0
153,124.59987133125001,125.33443948958335,83.0,80.0
154,125.34061233125001,127.34061303125002,81.0,76.0
155,127.34678587291668,127.51808222916668,78.0,78.0
156,127.52425507083335,127.74184773958335,81.0,75.0
157,127.74802058125002,128.29740348958336,83.0,77.0
158,128.30357633125,128.85295923958336,83.0,82.0
159,128.85913208125,129.22332973958336,83.0,82.0
160,129.22950258125002,130.16075258125002,81.0,80.0
161,130.16700258125002,130.53575258125002,78.0,84.0
162,130.54200258125002,130.72325258125002,76.0,78.0
163,130.72950258125002,131.47325258125002,78.0,82.0
164,131.47950258125002,132.22325258125002,76.0,82.0
165,132.22950258125002,133.33925803125,74.0,84.0
166,133.34535558125,133.52218453125002,74.0,78.0
167,133.52828208125,133.70511103125003,76.0,82.0
168,133.71120858125002,134.80267003125002,78.0,80.0
169,134.80876758125,134.98559653125002,78.0,76.0
170,134.99169408125002,135.16852303125,78.0,62.0
171,135.17462058125002,135.53437603125002,78.0,72.0
172,135.54047358125,136.26608203125002,76.0,80.0
173,136.27217958125001,136.45342958125002,74.0,78.0
174,136.45967958125001,136.64092958125002,71.0,74.0
175,136.64717958125001,139.04890308125002,74.0,81.0
176,139.05539658125002,139.43851308125002,74.0,79.0
177,139.44500658125003,139.63331808125002,76.0,80.0
178,139.63981158125003,140.73127303125003,78.0,77.0
179,140.73737058125002,141.09712603125004,78.0,79.0
180,141.10322358125003,141.48142833125004,78.0,75.0
181,141.48783858125003,142.05835083125004,76.0,75.0
182,142.06476108125003,142.44296583125004,74.0,78.0
183,142.44937608125002,142.63527333125003,71.0,59.0
184,142.64168358125002,145.17910658125004,74.0,79.0
185,145.18535658125003,145.36660658125004,74.0,78.0
186,145.37285658125003,145.55410658125004,76.0,79.0
187,145.56035658125003,145.92910658125004,78.0,80.0
188,145.93535658125003,146.67910658125004,78.0,80.0
189,146.68535658125003,147.05410658125004,78.0,78.0
190,147.06035658125003,147.60973948958338,78.0,75.0
191,147.61591233125003,148.16529523958337,76.0,83.0
192,148.17146808125003,148.35048048958336,74.0,84.0
193,148.35665333125004,149.09122148958338,83.0,80.0
194,149.09739433125003,151.12825923958337,81.0,76.0
195,151.13443208125003,151.31344448958336,78.0,78.0
196,151.31961733125004,151.49862973958338,81.0,75.0
197,151.50480258125003,151.86900023958336,83.0,77.0
198,151.87517308125004,152.42455598958335,83.0,82.0
199,152.43072883125004,152.79492648958336,85.0,82.0
200,152.80109933125004,152.98011173958338,86.0,82.0
201,152.98628458125003,153.35048223958336,85.0,90.0
202,153.35665508125004,154.07821570625003,85.0,90.0
203,154.08416808125006,154.25678695625004,86.0,90.0
204,154.26273933125006,154.43535820625004,88.0,79.0
205,154.44131058125004,155.14964320625003,86.0,83.0
206,155.15559558125005,155.93849063125006,85.0,83.0
207,155.94506958125007,157.04552558125008,83.0,86.0
208,157.05177558125007,157.23302558125008,78.0,84.0
209,157.23927558125007,157.42052558125008,78.0,82.0
210,157.42677558125007,157.79552558125008,76.0,83.0
211,157.80177558125007,158.35802558125008,74.0,84.0
212,158.36427558125007,158.54552558125008,74.0,78.0
213,158.55177558125007,158.73302558125008,83.0,80.0
214,158.73927558125007,158.92052558125008,83.0,73.0
215,158.92677558125007,159.29552558125008,83.0,83.0
216,159.30177558125007,159.67052558125008,83.0,84.0
217,159.67677558125007,159.85802558125008,83.0,82.0
218,159.86427558125007,160.42052558125008,83.0,86.0
219,160.42677558125007,162.8280109895834,81.0,86.0
220,162.83418383125007,163.0131962395834,81.0,69.0
221,163.01936908125006,163.1983814895834,81.0,71.0
222,163.20455433125008,163.38356673958342,81.0,69.0
223,163.38973958125007,163.7539372395834,91.0,95.0
224,163.76011008125008,164.1243077395834,90.0,86.0
225,164.13048058125008,164.3094929895834,88.0,83.0
226,164.31566583125007,164.6798634895834,86.0,83.0
227,164.68603633125008,166.34653073958341,81.0,73.0
228,166.35270358125007,166.7169012395834,88.0,90.0
229,166.72307408125008,167.0872717395834,86.0,90.0
230,167.09344458125008,167.2724569895834,85.0,80.0
231,167.27862983125007,167.6428274895834,83.0,83.0
232,167.64900033125008,169.3094947395834,78.0,91.0
233,169.31566758125007,169.4946799895834,83.0,90.0
234,169.50085283125006,169.6798652395834,83.0,82.0
235,169.68603808125008,169.8650504895834,83.0,84.0
236,169.87122333125006,170.0502357395834,83.0,80.0
237,170.05640858125008,170.4206062395834,83.0,83.0
238,170.42677908125006,170.6057914895834,86.0,90.0
239,170.61196433125008,171.9020882395834,81.0,82.0
240,171.90826108125006,172.0872734895834,76.0,84.0
241,172.09344633125008,172.2724587395834,78.0,79.0
242,172.27863158125007,172.4576439895834,79.0,90.0
243,172.46381683125006,172.8280144895834,79.0,86.0
244,172.83418733125006,173.0131997395834,79.0,86.0
245,173.01937258125008,173.3835702395834,79.0,90.0
246,173.38974308125006,173.5687554895834,79.0,78.0
247,173.57492833125008,173.7539407395834,81.0,78.0
248,173.76011358125007,174.1243112395834,78.0,84.0
249,174.13048408125007,174.6798669895834,76.0,80.0
250,174.68603983125007,174.8650522395834,81.0,69.0
251,174.87122508125006,175.0502374895834,81.0,71.0
252,175.05641033125008,175.2354227395834,81.0,69.0
253,175.24159558125007,175.6057932395834,91.0,95.0
254,175.61196608125007,175.9761637395834,90.0,86.0
255,175.98233658125008,176.16134898958342,88.0,83.0
256,176.16752183125007,176.5317194895834,86.0,83.0
257,176.53789233125008,178.1983867395834,81.0,73.0
258,178.20455958125007,178.5687572395834,88.0,90.0
259,178.57493008125007,178.9391277395834,86.0,90.0
260,178.94530058125008,179.12431298958342,85.0,80.0
261,179.13048583125007,179.4946834895834,83.0,83.0
262,179.50085633125008,181.1613507395834,78.0,91.0
263,181.16752358125007,181.3465359895834,83.0,90.0
264,181.35270883125008,181.5317212395834,83.0,82.0
265,181.53789408125007,181.7169064895834,83.0,84.0
266,181.72307933125006,181.9020917395834,83.0,80.0
267,181.90826458125008,182.2724622395834,83.0,83.0
268,182.27863508125006,182.4576474895834,86.0,90.0
269,182.46382033125008,183.3835737395834,81.0,82.0
270,183.38974658125008,183.5687589895834,76.0,83.0
271,183.57493183125007,183.7539442395834,78.0,77.0
272,183.76011708125006,184.1243147395834,76.0,80.0
273,184.13048758125007,187.0872787395834,74.0,84.0
274,207.33098208125008,207.5145264645834,81.0,69.0
275,207.5208555812501,207.70439996458342,81.0,71.0
276,207.7107290812501,207.89427346458342,81.0,69.0
277,207.9006025812501,208.26480023958342,91.0,95.0
278,208.2709730812501,208.63517073958343,90.0,86.0
279,208.6413435812501,208.82035598958342,88.0,83.0
280,208.8265288312501,209.19072648958343,86.0,83.0
281,209.1968993312501,210.85739373958344,81.0,73.0
282,210.8635665812501,211.22776423958342,88.0,90.0
283,211.2339370812501,211.59813473958343,86.0,90.0
284,211.6043075812501,211.78331998958342,85.0,80.0
285,211.7894928312501,212.15369048958343,83.0,83.0
286,212.1598633312501,213.82035773958344,78.0,91.0
287,213.8265305812501,214.00554298958343,83.0,90.0
288,214.0117158312501,214.19072823958342,83.0,82.0
289,214.1969010812501,214.37591348958344,83.0,84.0
290,214.3820863312501,214.56109873958343,83.0,80.0
291,214.5672715812501,214.93146923958344,83.0,83.0
292,214.9376420812501,215.11665448958342,86.0,90.0
293,215.1228273312501,216.41295123958344,81.0,82.0
294,216.4191240812501,216.59813648958342,76.0,84.0
295,216.6043093312501,216.78332173958344,78.0,79.0
296,216.7894945812501,216.96850698958343,79.0,90.0
297,216.97467983125009,217.33887748958344,79.0,86.0
298,217.3450503312501,217.52406273958343,79.0,86.0
299,217.5302355812501,217.89443323958344,79.0,90.0
300,217.9006060812501,218.07961848958342,79.0,78.0
301,218.0857913312501,218.26480373958344,81.0,78.0
302,218.2709765812501,218.63517423958342,78.0,84.0
303,218.6413470812501,219.19072998958342,76.0,80.0
304,219.1969028312501,219.37591523958343,81.0,69.0
305,219.3820880812501,219.56110048958342,81.0,71.0
306,219.5672733312501,219.74628573958344,81.0,69.0
307,219.7524585812501,220.11665623958342,91.0,95.0
308,220.1228290812501,220.48702673958343,90.0,86.0
309,220.4931995812501,220.67221198958345,88.0,83.0
310,220.6783848312501,221.04258248958342,86.0,83.0
311,221.0487553312501,222.70924973958344,81.0,73.0
312,222.7154225812501,223.07962023958342,88.0,90.0
313,223.0857930812501,223.44999073958343,86.0,90.0
314,223.4561635812501,223.63517598958344,85.0,80.0
315,223.6413488312501,224.00554648958342,83.0,83.0
316,224.0117193312501,225.67221373958344,78.0,91.0
317,225.6783865812501,225.8596365812501,83.0,90.0
318,225.8658865812501,226.0471365812501,83.0,82.0
319,226.0533865812501,226.2346365812501,83.0,84.0
320,226.2408865812501,226.4221365812501,83.0,80.0
321,226.4283865812501,226.7971365812501,83.0,83.0
322,226.8033865812501,226.9846365812501,86.0,90.0
323,226.9908865812501,227.9221365812501,81.0,82.0
324,227.9283865812501,228.1096365812501,76.0,83.0
325,228.1158865812501,228.2971365812501,78.0,77.0
326,228.3033865812501,228.6721365812501,76.0,80.0
327,231.09505383125008,231.27406623958342,81.0,69.0
328,231.2802390812501,231.45925148958344,81.0,71.0
329,228.6783865812501,231.64443673958343,74.0,84.0
330,231.4654243312501,231.64443673958343,81.0,69.0
331,231.6506095812501,232.01480723958343,91.0,95.0
332,232.0209800812501,232.38517773958344,90.0,86.0
333,232.3913505812501,232.57036298958343,88.0,83.0
334,232.57653583125008,232.94073348958344,86.0,83.0
335,232.9469063312501,234.60740073958343,81.0,73.0
336,234.6135735812501,234.97777123958343,88.0,90.0
337,234.9839440812501,235.34814173958344,86.0,90.0
338,235.3543145812501,235.53332698958343,85.0,80.0
339,235.53949983125008,235.90369748958344,83.0,83.0
340,235.9098703312501,237.57036473958343,78.0,91.0
341,237.5765375812501,237.75554998958341,83.0,90.0
342,237.7617228312501,237.94073523958343,83.0,82.0
343,237.9469080812501,238.12592048958342,83.0,84.0
344,238.1320933312501,238.31110573958344,83.0,80.0
345,238.3172785812501,238.68147623958342,83.0,83.0
346,238.6876490812501,238.86666148958344,86.0,90.0
347,238.8728343312501,240.16295823958342,81.0,82.0
348,240.1691310812501,240.34814348958344,76.0,84.0
349,240.3543163312501,240.53332873958342,78.0,79.0
350,240.5395015812501,240.7185139895834,79.0,90.0
351,240.7246868312501,241.08888448958342,79.0,86.0
352,241.0950573312501,241.27406973958344,79.0,86.0
353,241.2802425812501,241.64444023958342,79.0,90.0
354,241.6506130812501,241.82962548958344,79.0,78.0
355,241.8357983312501,242.01481073958342,81.0,78.0
356,242.0209835812501,242.38518123958343,78.0,84.0
357,242.39135408125009,242.94073698958343,76.0,80.0
358,242.94690983125008,243.12592223958342,81.0,69.0
359,243.1320950812501,243.31110748958343,81.0,71.0
360,243.3172803312501,243.49629273958342,81.0,69.0
361,243.5024655812501,243.86666323958343,91.0,95.0
362,243.87283608125009,244.23703373958344,90.0,86.0
363,244.2432065812501,244.42221898958343,88.0,83.0
364,244.42839183125008,244.79258948958343,86.0,83.0
365,244.7987623312501,246.45925673958342,81.0,73.0
366,246.4654295812501,246.82962723958343,88.0,90.0
367,246.83580008125008,247.19999773958344,86.0,90.0
368,247.2061705812501,247.38518298958343,85.0,80.0
369,247.3913558312501,247.75555348958343,83.0,83.0
370,247.7617263312501,249.42222073958342,78.0,91.0
371,249.4283935812501,249.6074059895834,83.0,90.0
372,249.6135788312501,249.79259123958343,83.0,82.0
373,249.79876408125008,249.97777648958342,83.0,84.0
374,249.9839493312501,250.16296173958344,83.0,80.0
375,250.1691345812501,250.53333223958342,83.0,83.0
376,250.5395050812501,250.71851748958343,86.0,90.0
377,250.7246903312501,251.64444373958344,81.0,82.0
378,251.6506165812501,251.82962898958343,76.0,83.0
379,251.83580183125008,252.01481423958342,78.0,77.0
380,252.0209870812501,252.38518473958342,76.0,80.0
381,254.79876583125008,254.97777823958342,81.0,69.0
382,254.9839510812501,255.16296348958343,81.0,71.0
383,252.3913575812501,255.34814873958342,74.0,84.0
384,255.1691363312501,255.34814873958342,81.0,69.0
385,255.3543215812501,255.72773946458344,91.0,95.0
386,255.7340685812501,256.1074864645834,90.0,86.0
387,256.1138155812501,256.29735996458345,88.0,83.0
388,256.3036890812501,256.67710696458346,86.0,83.0
389,256.6834360812501,258.34861873958346,81.0,73.0
390,258.35479158125014,258.71898923958344,88.0,90.0
391,258.7251620812501,259.0893597395835,86.0,90.0
392,259.0955325812501,259.27454498958343,85.0,80.0
393,259.2807178312501,259.64491548958347,83.0,83.0
394,259.6510883312501,261.31158273958346,78.0,91.0
395,261.31775558125014,261.4967679895834,83.0,90.0
396,261.5029408312501,261.68195323958344,83.0,82.0
397,261.6881260812501,261.86713848958345,83.0,84.0
398,261.87331133125014,262.05232373958347,83.0,80.0
399,262.0584965812501,262.42269423958345,83.0,83.0
400,262.42886708125013,262.60787948958347,86.0,90.0
401,262.6140523312501,263.9041762395834,81.0,82.0
402,263.9103490812501,264.08936148958344,76.0,84.0
403,264.0955343312501,264.27454673958346,78.0,79.0
404,264.28071958125014,264.4597319895834,79.0,90.0
405,264.4659048312501,264.83010248958345,79.0,86.0
406,264.83627533125014,265.01528773958347,79.0,86.0
407,265.0214605812501,265.38565823958345,79.0,90.0
408,265.39183108125013,265.57084348958347,79.0,78.0
409,265.5770163312501,265.7560287395834,81.0,78.0
410,265.7622015812501,266.12639923958346,78.0,84.0
411,266.1325720812501,266.68195498958346,76.0,80.0
