,start,end,pitch,velocity
0,5.952704091666667,6.800499568750001,64.0,55.0
1,5.988177072916667,6.8054337812500005,66.0,76.0
2,6.052366277083334,6.8284601062500005,69.0,79.0
3,7.29063134375,8.942408481250002,64.0,69.0
4,7.29063134375,8.945929602083336,69.0,75.0
5,6.006758158333334,8.974098568750001,50.0,83.0
6,6.895894343750001,9.136070127083334,62.0,56.0
7,8.952971843750001,9.349097937500002,66.0,63.0
8,6.501157343750001,9.350858497916668,57.0,53.0
9,9.37550634375,10.39011571875,64.0,31.0
10,9.37550634375,11.237825431250002,69.0,73.0
11,9.570311343750001,11.567566568750001,57.0,47.0
12,10.154726343750001,11.599894131250002,62.0,22.0
13,10.54433634375,11.772307797916667,64.0,59.0
14,6.106420343750001,11.925324927083334,74.0,79.0
15,9.37550634375,11.949031806250002,50.0,62.0
16,11.968428343750002,12.382221143750002,69.0,75.0
17,11.968428343750002,12.408083193750002,66.0,76.0
18,11.968428343750002,12.449031439583335,62.0,77.0
19,13.002910343750003,13.230369462500002,59.0,63.0
20,12.724893306250001,13.472172850000003,55.0,57.0
21,13.002910343750003,13.521353200000002,62.0,77.0
22,13.002910343750003,13.601271268750002,66.0,69.0
23,11.968428343750002,14.535697918750003,43.0,80.0
24,14.478320843750003,14.642255343750003,71.0,60.0
25,14.232419093750003,14.718075050000003,55.0,51.0
26,14.478320843750003,14.810288206250004,78.0,68.0
27,12.336962556250002,14.912747268750003,50.0,72.0
28,14.970124343750003,15.410913714583335,76.0,84.0
29,14.970124343750003,15.631308400000004,71.0,63.0
30,16.108435093750003,16.29738860416667,66.0,76.0
31,16.108435093750003,16.564830495833334,74.0,84.0
32,15.759597843750003,16.902039837500002,55.0,69.0
33,16.80610959375,16.916574722916668,64.0,63.0
34,16.80610959375,16.928202631250002,71.0,69.0
35,17.154946843750004,17.559016658333334,62.0,78.0
36,17.154946843750004,17.599714337500004,69.0,76.0
37,14.970124343750003,17.672388764583335,43.0,79.0
38,15.364861093750003,17.70145853541667,50.0,63.0
39,17.503784093750003,17.911165672916667,55.0,70.0
40,17.852621343750002,18.15325438541667,62.0,86.0
41,17.852621343750002,18.221292389583336,66.0,79.0
42,18.612115343750002,19.113697839583335,62.0,45.0
43,18.99186234375,19.25452068541667,64.0,78.0
44,18.99186234375,19.412748602083337,69.0,79.0
45,18.042494843750003,20.034584314583334,50.0,75.0
46,19.94122984375,20.12319194791667,62.0,62.0
47,20.131103343750002,20.36053382291667,86.0,84.0
48,20.131103343750002,20.363698381250003,78.0,77.0
49,20.320976843750003,20.477622481250002,85.0,84.0
50,20.51085034375,20.710217518750003,83.0,76.0
51,18.42224184375,20.776673243750004,57.0,47.0
52,20.70072384375,20.92382520625,81.0,69.0
53,20.890597343750002,21.59945841041667,76.0,76.0
54,21.270344343750004,22.13110421041667,57.0,61.0
55,21.650091343750002,22.226040960416668,74.0,76.0
56,22.02983834375,22.430154972916668,62.0,69.0
57,22.02983834375,22.464965114583336,64.0,79.0
58,22.02983834375,22.672243685416667,69.0,80.0
59,22.789332343750004,23.162750227083336,57.0,62.0
60,20.890597343750002,23.563066856250003,50.0,82.0
61,23.169079343750003,23.582054206250003,62.0,86.0
62,23.169079343750003,23.63585169791667,69.0,84.0
63,23.928573343750003,24.648049656250002,62.0,86.0
64,23.928573343750003,24.72217751875,59.0,80.0
65,23.928573343750003,24.79194491875,66.0,82.0
66,24.626247343750002,25.236712093750004,55.0,62.0
67,24.97508434375,26.104444131250002,59.0,74.0
68,24.97508434375,26.155316193750004,62.0,82.0
69,23.928573343750003,26.422757893750003,43.0,83.0
70,26.021595343750004,26.427118356250002,55.0,67.0
71,26.370432343750004,26.604443831250002,59.0,44.0
72,26.370432343750004,26.680025181250002,64.0,83.0
73,24.277410343750002,26.852282031250002,50.0,75.0
74,26.719269343750003,27.249717531250003,59.0,67.0
75,26.719269343750003,27.387537906250003,62.0,79.0
76,26.719269343750003,27.583050531250002,66.0,78.0
77,27.488499343750004,27.978883468750002,55.0,71.0
78,27.873114343750004,28.341062593750003,62.0,62.0
79,27.873114343750004,28.416383031250003,59.0,59.0
80,27.873114343750004,28.510934218750002,69.0,75.0
81,28.642344343750004,28.80740828125,59.0,61.0
82,28.257729343750004,28.847472343750002,55.0,54.0
83,27.103884343750003,29.109729633333338,50.0,75.0
84,26.719269343750003,29.27189183333334,43.0,76.0
85,29.03371610208334,29.39520267291667,57.0,73.0
86,28.642344343750004,29.403648620833337,66.0,80.0
87,29.03371610208334,29.47628377291667,64.0,86.0
88,29.391824293750005,29.74486491666667,62.0,82.0
89,29.837770343750005,30.376832843750005,50.0,90.0
90,30.212770343750005,30.376832843750005,50.0,68.0
91,29.837770343750005,30.376832843750005,57.0,90.0
92,30.953623343750007,31.250878906250005,57.0,79.0
93,30.953623343750007,31.413988368750005,66.0,82.0
94,31.685329343750006,31.819475443750004,66.0,78.0
95,31.685329343750006,31.877402168750006,74.0,86.0
96,32.05118234375001,32.235633231250006,69.0,74.0
97,32.05118234375001,32.247828331250005,64.0,82.0
98,30.587770343750005,32.266120981250005,54.0,79.0
99,32.41703534375001,32.886546693750006,62.0,77.0
100,32.41703534375001,32.988680656250004,67.0,77.0
101,33.148741343750004,33.34081416875001,64.0,78.0
102,33.148741343750004,33.478009043750006,69.0,80.0
103,33.514594343750005,33.657886768750004,64.0,72.0
104,33.514594343750005,33.799654806250004,66.0,78.0
105,33.148741343750004,34.28136125625001,57.0,68.0
106,33.880447343750006,34.450568268750004,62.0,83.0
107,33.880447343750006,34.692945881250004,64.0,80.0
108,33.880447343750006,34.72648240625001,69.0,84.0
109,34.61215334375001,34.73105556875001,57.0,79.0
110,32.78288834375,34.810323718750006,50.0,79.0
111,34.97800634375,35.282282781250004,69.0,77.0
112,34.97800634375,35.283927518750005,62.0,83.0
113,35.37274334375,35.45498021875,45.0,78.0
114,35.76748034375,36.67961234375,66.0,71.0
115,35.76748034375,36.69679984375001,74.0,84.0
116,36.473362343750004,36.87336234375,62.0,83.0
117,35.76748034375,36.987424843750006,50.0,78.0
118,36.12042134375,37.129612343750004,57.0,76.0
119,36.848362343750004,37.129612343750004,69.0,80.0
120,37.223362343750004,38.03046139166667,64.0,74.0
121,37.223362343750004,38.047436706250004,69.0,79.0
122,37.964103343750004,38.28972074166667,61.0,73.0
123,37.223362343750004,38.34064668541667,49.0,84.0
124,37.593732843750004,38.35144915833334,57.0,72.0
125,38.334473843750004,38.58601714166667,69.0,73.0
126,38.51965909375001,38.72181965833334,71.0,76.0
127,38.704844343750004,39.41009150416667,47.0,80.0
128,39.075214843750004,39.445585343750004,54.0,78.0
129,39.445585343750004,39.87459783958334,59.0,72.0
130,38.704844343750004,40.33138812291667,66.0,78.0
131,38.704844343750004,40.36842517291667,74.0,81.0
132,40.556696843750004,41.04070359375,66.0,72.0
133,40.186326343750004,41.129989218750005,62.0,80.0
134,39.815955843750004,41.21115796875,61.0,82.0
135,40.927067343750004,41.72116828125001,74.0,82.0
136,41.706287343750006,42.50601541875,69.0,83.0
137,41.706287343750006,42.54240783958333,66.0,78.0
138,42.42057234375,42.74652185208333,62.0,84.0
139,41.706287343750006,42.93955991041667,50.0,79.0
140,42.06342984375001,42.966458656250005,57.0,73.0
141,42.800319343750004,42.998104239583334,69.0,84.0
142,42.99019284375,43.18160955416666,71.0,80.0
143,43.18006634375,43.76031346041667,49.0,84.0
144,43.18006634375,44.0180296,64.0,74.0
145,43.18006634375,44.01957281041667,69.0,76.0
146,43.92080734375,44.099819752083334,61.0,75.0
147,43.55043684375,44.246424741666665,57.0,62.0
148,44.29117784375,44.48716556666667,69.0,75.0
149,44.66154834375,45.30969671875,69.0,83.0
150,44.66154834375,45.399202922916665,73.0,84.0
151,45.03191884375,46.11679576666667,61.0,73.0
152,45.40228934375,46.147659974999996,66.0,76.0
153,45.77265984375,46.16309207916667,76.0,79.0
154,46.14303034375,46.874512081249996,73.0,80.0
155,46.51340084375,47.10652753125,61.0,75.0
156,44.66154834375,47.21710434375,54.0,80.0
157,46.88377134375,47.26357865625,69.0,83.0
158,47.268386343749995,47.61293728125,66.0,76.0
159,47.65300134375,48.17358931875,62.0,83.0
160,47.65300134375,48.17358931875,71.0,84.0
161,48.00594234375,48.649006902083336,59.0,73.0
162,47.65300134375,48.70764889791667,55.0,71.0
163,48.35888334375,48.716908160416665,67.0,80.0
164,48.72925384375,49.045611979166665,71.0,79.0
165,49.09962434375,49.56876031041667,73.0,86.0
166,49.09962434375,49.5764763625,69.0,79.0
167,49.09962434375,49.59036525625,64.0,80.0
168,49.46999484375,50.07184690625,52.0,80.0
169,49.09962434375,50.07801974791667,45.0,83.0
170,49.84036534375,50.24005684166667,57.0,58.0
171,50.21073584375,50.46845198333334,64.0,79.0
172,50.58110634375,51.02863736458333,74.0,86.0
173,50.58110634375,51.053328731250005,66.0,79.0
174,50.58110634375,51.09190899166667,50.0,78.0
175,50.95147684375,51.2709214,73.0,84.0
176,50.95147684375,51.37123007708333,57.0,74.0
177,51.69221784375,51.912896933333336,57.0,68.0
178,51.32184734375,51.960736456250004,49.0,82.0
179,52.06258834375,52.499316891666666,74.0,84.0
180,52.06258834375,52.5394403625,66.0,76.0
181,52.06258834375,53.051786220833336,47.0,83.0
182,52.80332934375,53.0764775875,59.0,63.0
183,52.43295884375,53.09190969166667,54.0,76.0
184,52.80332934375,53.14746526666667,62.0,82.0
185,53.17369984375,53.491601189583335,66.0,79.0
186,53.54407034375,53.9283297375,71.0,78.0
187,53.54407034375,53.988514943750005,67.0,79.0
188,53.54407034375,53.99931741666667,62.0,78.0
189,53.91444084375,54.47153980416667,59.0,73.0
190,53.54407034375,54.519379327083335,55.0,69.0
191,54.28481134375,54.60888553125,62.0,84.0
192,54.65518184375,54.96073750625,71.0,79.0
193,55.02555234375,55.36930234375,73.0,90.0
194,55.02555234375,55.40992734375,64.0,78.0
195,55.02555234375,55.44898984375,69.0,79.0
196,55.02555234375,55.75367734375,45.0,80.0
197,55.40055234375,55.76773984375,52.0,75.0
198,55.77555234375,56.15367734375,71.0,79.0
199,55.77555234375,56.22242734375,64.0,78.0
200,55.77555234375,56.30367734375,57.0,59.0
201,56.15055234375,56.47086484375,69.0,78.0
202,56.15055234375,56.50992734375,59.0,61.0
203,56.52555234375,57.36617734375,66.0,83.0
204,56.52555234375,57.67086484375,50.0,83.0
205,57.27555234375,57.71773984375,62.0,79.0
206,56.90055234375,58.02242734375,57.0,75.0
207,57.65055234375,58.09430234375,64.0,80.0
208,58.02555234375,58.33805234375,66.0,80.0
209,58.02555234375,58.59430234375,50.0,79.0
210,58.40055234375,58.61305234375,69.0,79.0
211,58.40055234375,58.75992734375,57.0,73.0
212,58.77555234375,58.93961484375,69.0,82.0
213,58.77555234375,59.14898984375,62.0,68.0
214,59.15055234375,59.24273984375,64.0,79.0
215,59.15055234375,59.43805234375,76.0,78.0
216,59.52555234375,60.35939230625,74.0,84.0
217,60.25725834375,60.40359954375,62.0,80.0
218,59.52555234375,60.42646535625,50.0,80.0
219,59.89140534375,60.57128216875,57.0,73.0
220,60.44018484375,60.58042849375,69.0,75.0
221,60.62311134375,60.79384274375,74.0,79.0
222,60.80603784375,60.99353750625,78.0,79.0
223,60.98896434375,61.42646355625,49.0,79.0
224,60.98896434375,61.53164629375,74.0,80.0
225,61.72067034375,61.94475530625,61.0,68.0
226,61.35481734375,61.978291831250004,57.0,71.0
227,61.72067034375,62.07890140625,69.0,79.0
228,62.08652334375,62.36853503125,81.0,73.0
229,62.452376343750004,62.71487634375001,74.0,83.0
230,63.202376343750004,63.710188843750004,59.0,62.0
231,63.577376343750004,63.810188843750005,61.0,75.0
232,63.764876343750004,64.04425883125,62.0,70.0
233,63.952376343750004,64.17840493125,66.0,78.0
234,64.13572208125001,64.19974635625,69.0,46.0
235,63.952376343750004,64.39486795625,59.0,58.0
236,64.50157508125,64.65858699375,73.0,73.0
237,64.68450158125,64.89334266875001,59.0,58.0
238,64.68450158125,64.99395224375,74.0,82.0
239,64.86742808125,65.10065936875,73.0,78.0
240,62.452376343750004,65.11133008125,47.0,79.0
241,62.827376343750004,65.13114711875001,54.0,72.0
242,65.23328108125,65.52380256458333,69.0,72.0
243,65.41620758125,65.93361286875,66.0,78.0
244,65.79595458125,66.19152437291667,57.0,63.0
245,66.17570158125001,66.44310676041667,62.0,59.0
246,66.17570158125001,66.47791690208334,64.0,70.0
247,66.17570158125001,66.48108146041668,69.0,78.0
248,65.41620758125,66.50323336875,50.0,76.0
249,66.55544858125,66.91146139375,66.0,79.0
250,66.55544858125,66.93519558125001,57.0,73.0
251,66.93519558125001,67.25165141458334,69.0,79.0
252,66.93519558125001,67.34025904791667,64.0,76.0
253,66.93519558125001,67.36241095625,49.0,82.0
254,67.69468958125,67.86637619375,61.0,60.0
255,67.31494258125001,67.89047256041667,57.0,73.0
256,67.69468958125,67.99137609583333,73.0,84.0
257,67.69468958125,67.9974001875,66.0,79.0
258,68.41758058125001,68.74739960000001,42.0,84.0
259,68.77902608125001,69.18578408124999,54.0,70.0
260,68.41758058125001,69.26703408125,64.0,61.0
261,68.41758058125001,69.30453408125,73.0,83.0
262,69.51547158125,69.59047158125,62.0,83.0
263,69.14047158125,69.64047158125,57.0,77.0
264,69.89047158125,70.05297158124999,64.0,70.0
265,69.89047158125,70.24515908125,69.0,79.0
266,70.26547158125,70.49359658125,64.0,75.0
267,70.26547158125,70.55453408125,73.0,82.0
268,70.64047158125,70.84984658124999,76.0,78.0
269,69.89047158125,71.05922158125,42.0,82.0
270,70.64047158125,71.07797158125,64.0,81.0
271,71.01547158125,71.18109658125,74.0,81.0
272,70.64047158125,71.29515908124999,54.0,72.0
273,71.39047158125,72.13367508125,43.0,80.0
274,71.75191708125,72.13680008125,50.0,78.0
275,71.39047158125,72.53523758125,67.0,73.0
276,72.11336258125,72.54148758125,55.0,74.0
277,71.39047158125,72.56180008125,74.0,72.0
278,71.39047158125,72.56961258125,62.0,84.0
279,72.48836258125,72.60711258125001,59.0,78.0
280,71.39047158125,72.65867508125,71.0,75.0
281,72.86336258125,73.61961258125,73.0,84.0
282,72.86336258125,73.63523758125,45.0,84.0
283,72.86336258125,73.64461258125,69.0,82.0
284,72.86336258125,73.66023758125,64.0,78.0
285,73.23836258125,73.70086258125001,52.0,75.0
286,73.61336258125,73.91805008125,57.0,69.0
287,73.98836258125,74.13992508125,64.0,71.0
288,73.98836258125,74.28367508125,71.0,75.0
289,74.36336258125,74.74617508125,69.0,84.0
290,74.36336258125,74.76961258125,66.0,82.0
291,74.36336258125,74.84461258125,50.0,84.0
292,74.73836258125,75.17273758125,57.0,77.0
293,75.11336258125,75.48680008125,64.0,78.0
294,75.11336258125,75.60867508125,69.0,81.0
295,75.48836258125,75.64148758125,57.0,78.0
296,75.11336258125,75.76336258125001,49.0,84.0
297,75.86336258125,76.23545538125,74.0,81.0
298,75.86336258125,76.24417630625,69.0,74.0
299,75.86336258125,76.28196698125001,66.0,80.0
300,76.56103658125001,76.80787213125001,59.0,76.0
301,75.86336258125,76.84742911041667,47.0,83.0
302,76.21219958125,76.86483418125,54.0,72.0
303,76.94078358125,77.17337861875001,62.0,72.0
304,77.13065708125,77.28730271875001,66.0,75.0
305,77.32053058125001,77.67418848125001,62.0,84.0
306,77.32053058125001,77.69400551875002,71.0,84.0
307,77.32053058125001,77.70162745625001,67.0,84.0
308,78.05223658125001,78.25536158125001,62.0,80.0
309,77.32053058125001,78.26004908125002,55.0,76.0
310,78.23973658125001,78.26004908125002,55.0,46.0
311,78.05223658125001,78.28973658125001,67.0,80.0
312,77.68638358125001,78.34442408125001,59.0,73.0
313,78.05223658125001,78.36004908125001,71.0,80.0
314,78.80223658125001,78.98504908125001,71.0,81.0
315,78.42723658125001,79.08504908125002,62.0,73.0
316,78.80223658125001,79.09129908125001,79.0,93.0
317,78.80223658125001,79.34129908125001,67.0,69.0
318,79.17723658125001,79.39598658125001,69.0,81.0
319,79.17723658125001,79.61176033125001,78.0,79.0
320,79.55223658125001,79.72187926875002,79.0,90.0
321,79.55223658125001,79.85878389375002,62.0,81.0
322,79.55223658125001,79.94509333125,71.0,76.0
323,79.90937908125001,80.13110505000002,81.0,81.0
324,80.26652158125002,80.51804551875001,76.0,83.0
325,80.26652158125002,80.56530153125001,69.0,79.0
326,80.99822758125002,81.20859305625002,62.0,82.0
327,81.18115408125001,81.25889784375002,64.0,81.0
328,80.81530108125001,81.33206844375002,57.0,72.0
329,80.26652158125002,81.40828781875001,45.0,82.0
330,81.36408058125002,81.53176320625002,69.0,80.0
331,80.63237458125002,81.60645819375002,52.0,79.0
332,81.54700708125002,81.68877511875002,74.0,78.0
333,81.72993358125002,81.89064770625002,45.0,80.0
334,81.72993358125002,81.90363470625002,76.0,80.0
335,81.92473858125003,82.11954358125003,78.0,75.0
336,81.92473858125003,82.18610195625003,57.0,62.0
337,81.92473858125003,82.21856945625002,69.0,57.0
338,82.11954358125003,82.32408883125002,79.0,82.0
339,82.31434858125003,82.47506270625003,78.0,80.0
340,82.11954358125003,82.64522958958335,59.0,62.0
341,82.50915358125002,82.67212833541669,74.0,78.0
342,82.50915358125002,82.77339420208335,61.0,80.0
343,82.69902708125002,82.83352081041669,69.0,74.0
344,82.88890058125001,83.15788803958336,67.0,76.0
345,83.26864758125002,83.73521706875002,74.0,78.0
346,83.26864758125002,83.82678678125002,66.0,80.0
347,83.26864758125002,83.83405421875003,69.0,72.0
348,83.26864758125002,84.04324458125002,62.0,81.0
349,83.96632158125003,84.38138526875002,66.0,79.0
350,83.96632158125003,84.40542370625003,74.0,83.0
351,83.96632158125003,84.43747495625003,69.0,79.0
352,84.35093658125002,84.60093633125003,62.0,54.0
353,83.26864758125002,84.62176964375003,50.0,77.0
354,84.54324408125002,84.62176964375003,66.0,57.0
355,83.26864758125002,84.81442055000002,57.0,75.0
356,84.73555158125002,85.11055120625002,74.0,84.0
357,84.73555158125002,85.12096786250002,66.0,77.0
358,84.73555158125002,85.13733689375002,69.0,75.0
359,85.27126533125002,85.51233658125003,69.0,71.0
360,85.27126533125002,85.52796158125003,66.0,78.0
361,85.27126533125002,85.58264908125003,73.0,83.0
362,85.44983658125003,85.66546158125003,62.0,71.0
363,85.63733658125003,85.67327408125003,73.0,23.0
364,85.09269408125002,85.67483658125002,57.0,54.0
365,85.63733658125003,85.83421158125003,66.0,83.0
366,85.63733658125003,85.86702408125002,69.0,82.0
367,84.73555158125002,85.88577408125002,50.0,82.0
368,85.82483658125003,85.94514908125002,57.0,79.0
369,85.63733658125003,85.94514908125002,74.0,91.0
370,86.19983658125003,86.48577408125003,74.0,84.0
371,86.19983658125003,86.49983658125002,69.0,79.0
372,86.19983658125003,86.53108658125002,66.0,81.0
373,86.57483658125003,87.02327408125002,54.0,75.0
374,86.94983658125003,87.31702408125003,66.0,80.0
375,86.94983658125003,87.39983658125003,59.0,68.0
376,86.94983658125003,87.46546158125003,71.0,82.0
377,86.94983658125003,87.48733658125002,62.0,80.0
378,87.69983658125003,88.07014908125002,71.0,79.0
379,87.69983658125003,88.07796158125002,62.0,82.0
380,87.69983658125003,88.11077408125003,66.0,80.0
381,88.07483658125003,88.30452408125002,59.0,55.0
382,88.26233658125003,88.50608658125003,62.0,80.0
383,87.32483658125003,88.56546158125002,54.0,59.0
384,88.44983658125003,88.62796158125002,59.0,71.0
385,88.63733658125003,88.67014908125003,66.0,56.0
386,88.26233658125003,88.67639908125003,69.0,82.0
387,88.63733658125003,88.82483658125003,71.0,86.0
388,88.63733658125003,88.86077408125003,62.0,90.0
389,86.19983658125003,88.87952408125003,47.0,84.0
390,88.82483658125003,88.94358658125003,54.0,83.0
391,89.19983658125003,89.61650339375002,67.0,90.0
392,89.19983658125003,89.6458243916667,62.0,84.0
393,89.19983658125003,89.75384912083337,59.0,78.0
394,89.19983658125003,90.09335541250003,55.0,73.0
395,89.94057758125003,90.3773061291667,67.0,86.0
396,89.94057758125003,90.37884933958335,62.0,84.0
397,89.94057758125003,90.47761480625003,59.0,80.0
398,90.31094808125003,90.77017393333335,55.0,54.0
399,90.68131858125003,90.99908941666669,67.0,84.0
400,90.68131858125003,91.03222192083336,59.0,76.0
401,89.19983658125003,91.03673998958335,43.0,78.0
402,90.68131858125003,91.10601704375003,62.0,84.0
403,91.04276408125003,91.22951092291669,55.0,67.0
404,91.04276408125003,91.37710116875003,61.0,84.0
405,91.04276408125003,91.40119753541669,64.0,84.0
406,91.04276408125003,91.41023367291669,69.0,84.0
407,91.04276408125003,91.72348643958335,45.0,82.0
408,91.58493233125003,91.82589599791669,61.0,82.0
409,91.58493233125003,91.8665586166667,57.0,59.0
410,91.76565508125003,91.93884771666669,64.0,83.0
411,92.12710058125002,92.47645920625001,67.0,83.0
412,92.12710058125002,92.64633083125003,59.0,81.0
413,92.12710058125002,92.67357439375002,62.0,76.0
414,92.12710058125002,93.05258058125001,52.0,81.0
415,92.89633058125001,93.31195558125002,59.0,78.0
416,92.89633058125001,93.34633058125002,62.0,79.0
417,92.89633058125001,93.34789308125,67.0,84.0
418,93.27133058125001,93.38070558125001,52.0,81.0
419,93.64633058125001,93.80437651875002,57.0,71.0
420,93.64633058125001,93.86759489375001,43.0,72.0
421,93.64633058125001,93.90207764375002,69.0,83.0
422,93.64633058125001,93.92506614375002,61.0,84.0
423,93.64633058125001,94.00696267500001,64.0,84.0
424,93.99115808125,94.18943389375,57.0,68.0
425,94.16357183125001,94.2425948,62.0,82.0
426,94.16357183125001,94.25983617500002,59.0,84.0
427,94.16357183125001,94.28713501875,67.0,86.0
428,94.33598558125001,94.51197249375001,57.0,75.0
429,94.53335408125001,94.61723569375002,61.0,80.0
430,94.53335408125001,94.65670939375002,69.0,91.0
431,93.64633058125001,94.69453835625002,45.0,74.0
432,94.92809108125002,95.01361743125001,69.0,75.0
433,94.73072258125002,95.02019638125002,57.0,84.0
434,95.12545958125001,95.40968548750001,66.0,93.0
435,95.12545958125001,95.48557826875002,69.0,84.0
436,95.12545958125001,95.54807820625001,74.0,84.0
437,95.48260208125001,95.67158998750001,66.0,68.0
438,95.48260208125001,95.80849461250001,73.0,86.0
439,95.48260208125001,95.88844583125001,57.0,72.0
440,95.83974458125002,96.20500395625001,74.0,83.0
441,95.12545958125001,96.25370520625002,50.0,91.0
442,95.83974458125002,96.26344545625001,66.0,79.0
443,95.83974458125002,96.27318570625002,62.0,62.0
444,96.22935458125002,96.50045820625002,57.0,79.0
445,96.42415958125002,96.52480883125001,69.0,54.0
446,96.61896458125001,96.92231769375002,66.0,79.0
447,96.61896458125001,97.00006145625001,74.0,84.0
448,97.16774408125,97.30189018125002,64.0,82.0
449,96.98481758125001,97.40859730625002,57.0,73.0
450,97.16774408125,97.43146311875002,73.0,84.0
451,97.35067058125001,97.57627993125001,62.0,71.0
452,96.61896458125001,97.71499919375002,50.0,80.0
453,97.53359708125001,97.78664540625002,66.0,84.0
454,97.53359708125001,97.80951121875002,74.0,93.0
455,97.71652358125002,97.82780386875001,57.0,78.0
456,98.08237658125002,98.33237613125002,74.0,86.0
457,98.08237658125002,98.34914439375001,69.0,83.0
458,98.08237658125002,98.38420530625001,66.0,79.0
459,98.81408258125,98.99853346875001,62.0,62.0
460,98.99700908125001,99.10066743125002,64.0,79.0
461,98.63115608125001,99.35219136875001,59.0,76.0
462,98.08237658125002,99.36438646875001,47.0,82.0
463,99.17993558125,99.37963034375001,66.0,59.0
464,98.44822958125002,99.46194726875001,54.0,78.0
465,99.36286208125001,99.50767889375001,69.0,80.0
466,99.54578858125001,99.81319376041668,66.0,82.0
467,99.54578858125001,99.94926976875001,74.0,82.0
468,99.92553558125,100.00939637708335,64.0,68.0
469,99.92553558125,100.06161158958334,73.0,81.0
470,100.11540908125001,100.25464964791668,66.0,82.0
471,100.11540908125001,100.33424594375,74.0,86.0
472,99.92553558125,100.45314816875,54.0,75.0
473,100.30528258125001,100.49278224375001,59.0,67.0
474,100.48820908125,100.52479438125002,62.0,53.0
475,100.48820908125,100.65131854375001,69.0,86.0
476,99.54578858125001,100.71534281875002,47.0,79.0
477,100.67113558125001,100.78394025625,54.0,82.0
478,100.85406208125,100.98058624375001,62.0,80.0
479,101.03698858125001,101.44552443125,67.0,86.0
480,101.03698858125001,101.64369480625001,59.0,78.0
481,101.03698858125001,101.64674358125,62.0,72.0
482,101.03698858125001,101.90893823125,55.0,83.0
483,101.76869458125002,102.10710860625001,67.0,90.0
484,101.03698858125001,102.25344980625002,43.0,79.0
485,101.76869458125002,102.28698633125,62.0,84.0
486,101.76869458125002,102.29308388125001,59.0,84.0
487,102.13454758125002,102.30070581875002,55.0,69.0
488,102.50040058125,102.83576583125001,64.0,59.0
489,102.50040058125,102.98058264375001,69.0,93.0
490,102.50040058125,103.01716794375001,61.0,84.0
491,102.86625358125,103.33113245625,57.0,54.0
492,103.23210658125001,103.44963883125001,61.0,86.0
493,103.23210658125001,103.49834008125,64.0,86.0
494,103.23210658125001,103.50645695625,69.0,83.0
495,102.50040058125,103.52593745625,45.0,82.0
496,103.62171658125001,103.92204095625002,57.0,78.0
497,104.01132658125,104.66101816666666,69.0,83.0
498,104.01132658125,104.66719100833333,66.0,83.0
499,104.01132658125,104.88015404583334,74.0,86.0
500,104.75206758125,105.69805556666667,62.0,71.0
501,105.49280858125,106.26441378958333,64.0,68.0
502,105.49280858125,106.30299405000001,66.0,79.0
503,105.12243808125001,106.42953730416667,69.0,78.0
504,106.23354958125,106.55608055833333,62.0,67.0
505,106.41873483125,106.67953739166667,64.0,78.0
506,106.60392008125001,106.77984606875,66.0,77.0
507,104.01132658125,106.78601891041667,50.0,79.0
508,106.78910533125,106.9233646375,69.0,72.0
509,104.38169708125001,107.10730326875,57.0,72.0
510,106.97429058125,107.35890558125,64.0,78.0
511,106.97429058125,107.42781576875001,74.0,82.0
512,107.35890558125,107.54640539375,69.0,54.0
513,107.74352058125,107.90057170625,66.0,70.0
514,107.74352058125,107.97749470625,74.0,81.0
515,107.35890558125,108.07525101875001,57.0,53.0
516,108.12813558125,108.33166101875,66.0,79.0
517,108.12813558125,108.49672495625,73.0,82.0
518,108.51275058125,108.68931308125,66.0,78.0
519,108.51275058125,108.76431308125001,74.0,84.0
520,108.12813558125,108.90025058125,62.0,56.0
521,108.88775058125,108.99087558125001,74.0,53.0
522,108.88775058125,109.02368808125,66.0,75.0
523,108.88775058125,109.10650058125,73.0,76.0
524,106.97429058125,109.44868808125,50.0,75.0
525,108.88775058125,109.54712558125,57.0,59.0
526,109.26275058125,109.61118808125,69.0,83.0
527,109.63775058125,109.72837558125,66.0,77.0
528,110.01275058125,110.84049299375,62.0,83.0
529,110.01275058125,110.84659054375,59.0,79.0
530,110.01275058125,110.92890746875,67.0,81.0
531,110.74445658125,111.25207761875001,55.0,71.0
532,111.11030958125001,111.54933318125,67.0,38.0
533,111.11030958125001,111.60573551875001,59.0,78.0
534,111.84201558125001,111.89384475625,59.0,36.0
535,111.84201558125001,112.29323428125001,66.0,83.0
536,112.20786858125,112.38164875625,67.0,84.0
537,111.47616258125001,112.69414819375001,55.0,60.0
538,110.01275058125,112.72006278125001,43.0,81.0
539,112.57372158125,112.77036756875,69.0,80.0
540,110.37860358125,112.91365999375,50.0,78.0
541,112.93957458125,113.42890296875001,71.0,80.0
542,113.30542758125,113.73378046875,62.0,69.0
543,113.67128058125,113.97615808125,67.0,76.0
544,112.93957458125,114.00969460625001,43.0,71.0
545,114.03713358125,114.33896230625001,71.0,73.0
546,114.22006008125001,114.55085216875,62.0,56.0
547,114.40298658125,114.72005918125001,67.0,73.0
548,114.40298658125,114.93957098125,57.0,79.0
549,114.40298658125,115.09200973125,74.0,84.0
550,115.13469258125001,115.27036306875,74.0,40.0
551,115.13469258125001,115.32981418125,57.0,83.0
552,115.13469258125001,115.32981418125,66.0,76.0
553,115.13469258125001,115.35572876875,73.0,84.0
554,114.40298658125,115.39231406875001,45.0,84.0
555,115.86639858125001,116.82264858125001,66.0,71.0
556,115.86639858125001,116.83983608125001,74.0,84.0
557,116.61639858125001,117.01639858125002,62.0,83.0
558,115.86639858125001,117.13046108125,50.0,78.0
559,116.24139858125001,117.27264858125001,57.0,76.0
560,116.99139858125001,117.27264858125001,69.0,80.0
561,117.36639858125001,118.18358608125001,64.0,74.0
562,117.36639858125001,118.20077358125,69.0,79.0
563,118.11639858125001,118.44608608125002,61.0,73.0
564,117.36639858125001,118.49764858125,49.0,84.0
565,117.74139858125001,118.50858608125002,57.0,72.0
566,118.49139858125001,118.74608608125001,69.0,73.0
567,118.67889858125001,118.88296483333335,71.0,76.0
568,118.86639858125001,119.55465105416668,47.0,80.0
569,119.22784408125001,119.58928958125001,54.0,78.0
570,119.58928958125001,120.02366458125002,59.0,72.0
571,118.86639858125001,120.48616458125001,66.0,78.0
572,118.86639858125001,120.52366458125002,74.0,81.0
573,120.71428958125001,121.19866458125001,66.0,72.0
574,120.33928958125001,121.28460208125001,62.0,80.0
575,119.96428958125001,121.36272708125001,61.0,82.0
576,121.08928958125001,121.85417051875001,74.0,82.0
577,121.83928958125001,122.63794958125001,69.0,83.0
578,121.83928958125001,122.67388708125002,66.0,78.0
579,122.55357458125002,122.87544958125002,62.0,84.0
580,121.83928958125001,123.06607458125002,50.0,79.0
581,122.19643208125001,123.09263708125002,57.0,73.0
582,122.92857458125002,123.12388708125002,69.0,84.0
583,123.11607458125002,123.30511779166669,71.0,80.0
584,123.30357458125002,123.88382169791669,49.0,84.0
585,123.30357458125002,124.14153783750002,64.0,74.0
586,123.30357458125002,124.14308104791668,69.0,76.0
587,124.04431558125002,124.22332798958335,61.0,75.0
588,123.67394508125003,124.36993297916669,57.0,62.0
589,124.41468608125003,124.61067380416668,69.0,75.0
590,124.78505658125002,125.43320495625002,69.0,83.0
591,124.78505658125002,125.52271116041669,73.0,84.0
592,125.15542708125002,126.24030400416669,61.0,73.0
593,125.52579758125002,126.27116821250002,66.0,76.0
594,125.89616808125002,126.28660031666668,76.0,79.0
595,126.26653858125002,126.99802031875002,73.0,80.0
596,126.63690908125002,127.22178582916669,61.0,75.0
597,124.78505658125002,127.32826734791668,54.0,80.0
598,127.00727958125002,127.37302045000001,69.0,83.0
599,127.37765008125002,127.70944032083335,66.0,76.0
600,127.74802058125002,128.29431706875002,62.0,83.0
601,127.74802058125002,128.29431706875002,71.0,84.0
602,128.11839108125002,128.77888513958334,59.0,73.0
603,127.74802058125002,128.83752713541668,55.0,71.0
604,128.48876158125003,128.84678639791667,67.0,80.0
605,128.85913208125,129.17549021666667,71.0,79.0
606,129.22950258125002,129.70450258125,73.0,86.0
607,129.22950258125002,129.71231508125,69.0,79.0
608,129.22950258125002,129.72637758125,64.0,80.0
609,129.60450258125002,130.21387758125002,52.0,80.0
610,129.22950258125002,130.22012758125,45.0,83.0
611,129.97950258125002,130.38419008125,57.0,58.0
612,130.35450258125002,130.61544008125003,64.0,79.0
613,130.72950258125002,131.18262758125002,74.0,86.0
614,130.72950258125002,131.20762758125002,66.0,79.0
615,130.72950258125002,131.24669008125002,50.0,78.0
616,131.10450258125002,131.42794008125003,73.0,84.0
617,131.10450258125002,131.52950258125003,57.0,74.0
618,131.85450258125002,132.07794008125,57.0,68.0
619,131.47950258125002,132.12637758125,49.0,82.0
620,132.22950258125002,132.67169008125,74.0,84.0
621,132.22950258125002,132.71231508125,66.0,76.0
622,132.22950258125002,133.22492896875002,47.0,83.0
623,132.97950258125002,133.24931916875002,59.0,63.0
624,132.60450258125002,133.26456304375003,54.0,76.0
625,132.97950258125002,133.31944099375002,62.0,82.0
626,133.34535558125,133.65937940625003,66.0,79.0
627,133.71120858125002,134.09078106875,71.0,78.0
628,133.71120858125002,134.15023218125,67.0,79.0
629,133.71120858125002,134.16090289375,62.0,78.0
630,134.07706158125,134.62736546875,59.0,73.0
631,133.71120858125002,134.67462148125003,55.0,69.0
632,134.44291458125002,134.76303595625,62.0,84.0
633,134.80876758125,135.11059630625002,71.0,79.0
634,135.17462058125002,135.50998583125002,73.0,90.0
635,135.17462058125002,135.54961990625003,64.0,78.0
636,135.17462058125002,135.58772959375003,69.0,79.0
637,135.17462058125002,135.88498515625002,45.0,80.0
638,135.54047358125,135.89870464375002,52.0,75.0
639,135.90632658125003,136.27530458125003,71.0,79.0
640,135.90632658125003,136.34405458125002,64.0,78.0
641,135.90632658125003,136.42530458125,57.0,59.0
642,136.27217958125001,136.59249208125001,69.0,78.0
643,136.27217958125001,136.63155458125001,59.0,61.0
644,136.64717958125001,137.48559405625002,66.0,83.0
645,136.64717958125001,137.78284961875002,50.0,83.0
646,137.39717958125001,137.82858124375002,62.0,79.0
647,137.02217958125001,138.12583680625002,57.0,75.0
648,137.76303258125,138.19595863125002,64.0,80.0
649,138.12888558125002,138.43376308125002,66.0,80.0
650,138.12888558125002,138.68376263125,50.0,79.0
651,138.49473858125,138.70205528125,69.0,79.0
652,138.49473858125,138.84534770625,57.0,73.0
653,138.86059158125002,139.03104595625,69.0,82.0
654,138.86059158125002,139.24857820625002,62.0,68.0
655,139.25020158125002,139.34598070625003,64.0,79.0
656,139.25020158125002,139.54890258125002,76.0,78.0
657,139.63981158125003,140.47365154375004,74.0,84.0
658,140.37151758125003,140.51785878125003,62.0,80.0
659,139.63981158125003,140.54072459375004,50.0,80.0
660,140.00566458125002,140.68554140625002,57.0,73.0
661,140.55444408125004,140.69468773125004,69.0,75.0
662,140.73737058125002,140.90810198125004,74.0,79.0
663,140.92029708125003,141.10803126875004,78.0,79.0
664,141.10322358125003,141.56315901875004,49.0,79.0
665,141.10322358125003,141.67373583125004,74.0,80.0
666,141.87245358125003,142.10803026875004,61.0,68.0
667,141.48783858125003,142.14328664375003,57.0,71.0
668,141.87245358125003,142.24905576875003,69.0,79.0
669,142.25706858125002,142.55354264375003,81.0,73.0
670,142.64168358125002,142.89469543125003,74.0,83.0
671,143.36457458125003,143.8540320291667,59.0,62.0
672,143.72602008125003,143.95041749583336,61.0,75.0
673,143.90674283125003,144.17782695625002,62.0,70.0
674,144.08746558125003,144.31035697291668,66.0,78.0
675,144.26818833125003,144.33144129375003,69.0,46.0
676,144.08746558125003,144.52421222708335,59.0,58.0
677,144.62963383125003,144.78475419166668,73.0,73.0
678,144.81035658125003,145.02441908125004,59.0,58.0
679,144.81035658125003,145.12754408125002,74.0,82.0
680,144.99785658125003,145.23691908125002,73.0,78.0
681,142.64168358125002,145.24785658125003,47.0,79.0
682,143.00312908125002,145.26816908125002,54.0,72.0
683,145.37285658125003,145.66660658125002,69.0,72.0
684,145.56035658125003,146.07129408125004,66.0,78.0
685,145.93535658125003,146.32598158125003,57.0,63.0
686,146.31035658125003,146.57441908125003,62.0,59.0
687,146.31035658125003,146.60879408125004,64.0,70.0
688,146.31035658125003,146.61191908125002,69.0,78.0
689,145.56035658125003,146.63379408125004,50.0,76.0
690,146.68535658125003,147.03691908125003,66.0,79.0
691,146.68535658125003,147.06035658125003,57.0,73.0
692,147.06035658125003,147.36899866458336,69.0,79.0
693,147.06035658125003,147.4554184479167,64.0,76.0
694,147.06035658125003,147.47702339375004,49.0,82.0
695,147.80109758125005,147.97702356875004,61.0,60.0
696,147.43072708125004,148.0017149354167,57.0,73.0
697,147.80109758125005,148.10511003333337,73.0,84.0
698,147.80109758125005,148.11128287500003,66.0,79.0
699,148.54183858125003,148.87980166250003,42.0,84.0
700,148.91220908125004,149.32733268333337,54.0,70.0
701,148.54183858125003,149.40757962500004,64.0,61.0
702,148.54183858125003,149.44461667500002,73.0,83.0
703,149.65295008125003,149.72702418125004,62.0,83.0
704,149.28257958125005,149.77640691458336,57.0,77.0
705,150.02332058125003,150.18381446458338,64.0,70.0
706,150.02332058125003,150.37362934583336,69.0,79.0
707,150.39369108125004,150.61899980208338,64.0,75.0
708,150.39369108125004,150.67918500833338,73.0,82.0
709,150.76406158125005,150.97085177708337,76.0,78.0
710,150.02332058125003,151.1776419729167,42.0,82.0
711,150.76406158125005,151.1961604979167,64.0,81.0
712,151.13443208125003,151.2980123854167,74.0,81.0
713,150.76406158125005,151.41066674583337,54.0,72.0
714,151.50480258125003,152.2656053166667,43.0,80.0
715,151.87517308125004,152.26869173750003,50.0,78.0
716,151.50480258125003,152.66221039375003,67.0,73.0
717,152.24554358125005,152.6683832354167,55.0,74.0
718,151.50480258125003,152.68844497083336,74.0,72.0
719,151.50480258125003,152.6961610229167,62.0,84.0
720,152.61591408125003,152.7331980729167,59.0,78.0
721,151.50480258125003,152.7841240166667,71.0,75.0
722,152.98628458125003,153.73297795625004,73.0,84.0
723,152.98628458125003,153.74785889375005,45.0,84.0
724,152.98628458125003,153.75678745625004,69.0,82.0
725,152.98628458125003,153.77166839375005,64.0,78.0
726,153.35665508125004,153.81035883125006,52.0,75.0
727,153.72702558125005,154.01720386250005,57.0,69.0
728,154.08416808125006,154.22851317500005,64.0,71.0
729,154.08416808125006,154.36541780000005,71.0,75.0
730,154.44131058125004,154.80589355000004,69.0,84.0
731,154.44131058125004,154.82821495625004,66.0,82.0
732,154.44131058125004,154.89964345625003,50.0,84.0
733,154.79845308125005,155.21809560625005,57.0,77.0
734,155.15559558125005,155.54868784375006,64.0,78.0
735,155.15559558125005,155.67697736875004,69.0,81.0
736,155.55033258125005,155.71151685625006,57.0,78.0
737,155.15559558125005,155.83980638125004,49.0,84.0
738,155.94506958125007,156.33531278125005,74.0,81.0
739,155.94506958125007,156.34445910625007,69.0,74.0
740,155.94506958125007,156.38409318125008,66.0,80.0
741,156.67677558125007,156.92052558125008,59.0,76.0
742,155.94506958125007,156.95958808125008,47.0,83.0
743,156.31092258125005,156.97677558125008,54.0,72.0
744,157.05177558125007,157.28146308125008,62.0,72.0
745,157.23927558125007,157.39396308125006,66.0,75.0
746,157.42677558125007,157.78927558125008,62.0,84.0
747,157.42677558125007,157.80958808125007,71.0,84.0
748,157.42677558125007,157.81740058125007,67.0,84.0
749,158.17677558125007,158.37990058125007,62.0,80.0
750,157.42677558125007,158.38458808125006,55.0,76.0
751,158.36427558125007,158.38458808125006,55.0,46.0
752,158.17677558125007,158.41427558125008,67.0,80.0
753,157.80177558125007,158.46896308125008,59.0,73.0
754,158.17677558125007,158.48458808125008,71.0,80.0
755,158.92677558125007,159.10958808125008,71.0,81.0
756,158.55177558125007,159.20958808125008,62.0,73.0
757,158.92677558125007,159.21583808125007,79.0,93.0
758,158.92677558125007,159.46583808125007,67.0,69.0
759,159.30177558125007,159.52052558125007,69.0,81.0
760,159.30177558125007,159.73927558125007,78.0,79.0
761,159.67677558125007,159.85490058125006,79.0,90.0
762,159.67677558125007,159.99865058125008,62.0,81.0
763,159.67677558125007,160.08927558125006,71.0,76.0
764,160.05177558125007,160.28458808125006,81.0,81.0
765,160.42677558125007,160.68140530000008,76.0,83.0
766,160.42677558125007,160.72924482291674,69.0,79.0
767,161.16751658125008,161.38047961875006,62.0,82.0
768,161.35270183125007,161.43140556250006,64.0,81.0
769,160.98233133125007,161.50547966250008,57.0,72.0
770,160.42677558125007,161.5826401833334,45.0,82.0
771,161.53788708125006,161.7076402270834,69.0,80.0
772,160.79714608125008,161.78325753750008,52.0,79.0
773,161.72307233125008,161.86659090000006,74.0,78.0
774,161.90825758125007,162.06103541250008,45.0,80.0
775,161.90825758125007,162.0733810958334,76.0,80.0
776,162.09344283125006,162.27862808125008,78.0,75.0
777,162.09344283125006,162.34189970833341,57.0,62.0
778,162.09344283125006,162.37276391666674,69.0,57.0
779,162.27862808125008,162.47307259375006,79.0,82.0
780,162.46381333125007,162.61659116250007,78.0,80.0
781,162.27862808125008,162.78171467708341,59.0,62.0
782,162.64899858125008,162.80794925416674,74.0,78.0
783,162.64899858125008,162.9067147208334,61.0,80.0
784,162.83418383125007,162.96535671666675,69.0,74.0
785,163.01936908125006,163.2817148520834,67.0,76.0
786,163.38973958125007,163.88511012500007,74.0,78.0
787,163.38973958125007,163.98233238125007,66.0,80.0
788,163.38973958125007,163.9900484333334,69.0,72.0
789,163.38973958125007,164.20455468125007,62.0,81.0
790,164.13048058125008,164.53017207916673,66.0,79.0
791,164.13048058125008,164.55332023541675,74.0,83.0
792,164.13048058125008,164.58418444375008,69.0,79.0
793,164.50085108125006,164.74159190625008,62.0,54.0
794,163.38973958125007,164.76165364166673,50.0,77.0
795,164.68603633125008,164.76165364166673,66.0,57.0
796,163.38973958125007,164.9530117333334,57.0,75.0
797,164.87122158125007,165.26011060625007,74.0,84.0
798,164.87122158125007,165.27091307916675,66.0,77.0
799,164.87122158125007,165.28788839375008,69.0,75.0
800,165.42677733125007,165.67369099791674,69.0,71.0
801,165.42677733125007,165.6891231020834,66.0,78.0
802,165.42677733125007,165.74313546666673,73.0,83.0
803,165.61196258125008,165.82492561875006,62.0,71.0
804,165.79714783125007,165.8326416708334,73.0,23.0
805,165.24159208125008,165.83418488125008,57.0,54.0
806,165.79714783125007,165.99159234375006,66.0,83.0
807,165.79714783125007,166.02399976250007,69.0,82.0
808,164.87122158125007,166.04251828750006,50.0,82.0
809,165.98233308125006,166.1011602833334,57.0,79.0
810,165.79714783125007,166.1011602833334,74.0,91.0
811,166.35270358125007,166.63511108750006,74.0,84.0
812,166.35270358125007,166.64899998125006,69.0,79.0
813,166.35270358125007,166.6798641895834,66.0,81.0
814,166.72307408125008,167.16597547083342,54.0,75.0
815,167.09344458125008,167.45609902916672,66.0,80.0
816,167.09344458125008,167.53788918125008,59.0,68.0
817,167.09344458125008,167.60270401875007,71.0,82.0
818,167.09344458125008,167.6243089645834,62.0,80.0
819,167.83418558125007,168.19992645000008,71.0,79.0
820,167.83418558125007,168.2076425020834,62.0,82.0
821,167.83418558125007,168.2400499208334,66.0,80.0
822,168.20455608125008,168.43140801250007,59.0,55.0
823,168.38974133125006,168.63048215625008,62.0,80.0
824,167.46381508125006,168.6891241520834,54.0,59.0
825,168.57492658125008,168.75085256875008,59.0,71.0
826,168.76011183125007,168.79251925000005,66.0,56.0
827,168.38974133125006,168.79869209166674,69.0,82.0
828,168.76011183125007,168.94529708125006,71.0,86.0
829,168.76011183125007,168.9807909208334,62.0,90.0
830,166.35270358125007,168.9993094458334,47.0,84.0
831,168.94529708125006,169.06258107291674,54.0,83.0
832,169.31566758125007,169.73233439375008,67.0,90.0
833,169.31566758125007,169.76165539166675,62.0,84.0
834,169.31566758125007,169.8696801208334,59.0,78.0
835,169.31566758125007,170.20918641250006,55.0,73.0
836,170.05640858125008,170.49313712916674,67.0,86.0
837,170.05640858125008,170.4946803395834,62.0,84.0
838,170.05640858125008,170.59344580625006,59.0,80.0
839,170.42677908125006,170.8881989958334,55.0,54.0
840,170.79714958125007,171.12276697916673,67.0,84.0
841,170.79714958125007,171.1567176083334,59.0,76.0
842,169.31566758125007,171.1613472395834,43.0,78.0
843,170.79714958125007,171.23233491875007,62.0,84.0
844,171.16752008125007,171.35887817291675,55.0,67.0
845,171.16752008125007,171.51011279375007,61.0,84.0
846,171.16752008125007,171.53480416041674,64.0,84.0
847,171.16752008125007,171.54406342291674,69.0,84.0
848,171.16752008125007,171.8650511895834,45.0,82.0
849,171.72307583125007,171.96998949791674,61.0,82.0
850,171.72307583125007,172.01165617916672,57.0,59.0
851,171.90826108125006,172.08573027916674,64.0,83.0
852,172.27863158125007,172.6150514520834,67.0,83.0
853,172.27863158125007,172.77863175625006,59.0,81.0
854,172.27863158125007,172.8048663333334,62.0,76.0
855,172.27863158125007,173.17369362291674,52.0,81.0
856,173.01937258125008,173.4298665520834,59.0,78.0
857,173.01937258125008,173.46381718125008,62.0,79.0
858,173.01937258125008,173.46536039166674,67.0,84.0
859,173.38974308125006,173.49776781041675,52.0,81.0
860,173.76011358125007,173.9298667270834,57.0,71.0
861,173.76011358125007,173.99776798541674,43.0,72.0
862,173.76011358125007,174.03480503541672,69.0,83.0
863,173.76011358125007,174.0594964020834,61.0,84.0
864,173.76011358125007,174.1474593958334,64.0,84.0
865,174.13048408125007,174.34344711875008,57.0,68.0
866,174.31566933125006,174.40054590416673,62.0,82.0
867,174.31566933125006,174.41906442916672,59.0,84.0
868,174.31566933125006,174.4483854270834,67.0,86.0
869,174.50085458125008,174.6659780958334,57.0,75.0
870,174.68603983125007,174.76474356250006,61.0,80.0
871,174.68603983125007,174.80178061250007,69.0,91.0
872,173.76011358125007,174.8372744520834,45.0,74.0
873,175.05641033125008,175.13665727291675,69.0,75.0
874,174.87122508125006,175.1428301145834,57.0,84.0
875,175.24159558125007,175.5363487708334,66.0,93.0
876,175.24159558125007,175.61505250208342,69.0,84.0
877,175.24159558125007,175.6798673395834,74.0,84.0
878,175.61196608125007,175.80795380416674,66.0,68.0
879,175.61196608125007,175.94992916250007,73.0,86.0
880,175.61196608125007,176.02863289375006,57.0,72.0
881,175.98233658125008,176.32955892500007,74.0,83.0
882,175.24159558125007,176.37585523750008,50.0,91.0
883,175.98233658125008,176.38511450000007,66.0,79.0
884,175.98233658125008,176.39437376250007,62.0,62.0
885,176.35270708125006,176.6104232208334,57.0,79.0
886,176.53789233125008,176.6335713770834,69.0,54.0
887,176.72307758125007,177.03017645416674,66.0,79.0
888,176.72307758125007,177.10888018541675,74.0,84.0
889,177.27863333125006,177.41443584791674,64.0,82.0
890,177.09344808125007,177.5224605770834,57.0,73.0
891,177.27863333125006,177.5456087333334,73.0,84.0
892,177.46381858125008,177.69221372291673,62.0,71.0
893,176.72307758125007,177.8326458708334,50.0,80.0
894,177.64900383125007,177.90517676041674,66.0,84.0
895,177.64900383125007,177.92832491666672,74.0,93.0
896,177.83418908125006,177.94684344166674,57.0,78.0
897,178.20455958125007,178.4576460895834,74.0,86.0
898,178.20455958125007,178.47462140416673,69.0,83.0
899,178.20455958125007,178.51011524375008,66.0,79.0
900,178.94530058125008,179.13202904166673,62.0,62.0
901,179.13048583125007,179.23542413958342,64.0,79.0
902,178.76011533125006,179.4900538583334,59.0,76.0
903,178.20455958125007,179.50239954166673,47.0,82.0
904,179.31567108125006,179.5178316458334,66.0,59.0
905,178.57493008125007,179.6011650083334,54.0,78.0
906,179.50085633125008,179.6474613208334,69.0,80.0
907,179.68604158125007,179.94684414166673,66.0,82.0
908,179.68604158125007,180.07956023750006,74.0,82.0
909,180.05641208125007,180.1382022333334,64.0,68.0
910,180.05641208125007,180.1891281770834,73.0,81.0
911,180.24159733125006,180.37739984791673,66.0,82.0
912,180.24159733125006,180.45610357916672,74.0,86.0
913,180.05641208125007,180.57647399166675,54.0,75.0
914,180.42678258125008,180.61659746250007,59.0,67.0
915,180.61196783125007,180.64900488125008,62.0,53.0
916,180.61196783125007,180.7770913458334,69.0,86.0
917,179.68604158125007,180.8419061833334,47.0,79.0
918,180.79715308125006,180.9113506520834,54.0,82.0
919,180.98233833125008,181.1104247958334,62.0,80.0
920,181.16752358125007,181.58110397291674,67.0,86.0
921,181.16752358125007,181.7817213270834,59.0,78.0
922,181.16752358125007,181.78480774791674,62.0,72.0
923,181.16752358125007,182.0502399395834,55.0,83.0
924,181.90826458125008,182.25085729375007,67.0,90.0
925,181.16752358125007,182.39900549375005,43.0,79.0
926,181.90826458125008,182.43295612291672,62.0,84.0
927,181.90826458125008,182.4391289645834,59.0,84.0
928,182.27863508125006,182.44684501666674,55.0,69.0
929,182.64900558125007,182.98851187291675,64.0,59.0
930,182.64900558125007,183.13511686250007,69.0,93.0
931,182.64900558125007,183.17215391250008,61.0,84.0
932,183.01937608125007,183.48388241666675,57.0,54.0
933,183.38974658125008,183.5965367770834,61.0,86.0
934,183.38974658125008,183.6428330895834,64.0,86.0
935,183.38974658125008,183.65054914166674,69.0,83.0
936,182.64900558125007,183.66906766666673,45.0,82.0
937,183.76011708125006,184.0456110083334,57.0,78.0
938,184.13048758125007,184.5270926583334,74.0,84.0
939,184.13048758125007,184.54869760416673,66.0,82.0
940,184.13048758125007,184.57030255000006,69.0,83.0
941,184.87122858125008,185.2539447645834,74.0,84.0
942,184.87122858125008,185.25703118541674,66.0,80.0
943,184.87122858125008,185.2585743958334,69.0,79.0
944,184.87122858125008,185.6937597333334,62.0,75.0
945,185.61196958125007,185.96845118750008,74.0,83.0
946,185.61196958125007,186.02400676250008,66.0,80.0
947,185.61196958125007,186.0548709708334,69.0,82.0
948,184.50085808125007,186.35425379166674,57.0,60.0
949,185.98234008125007,186.40363652500008,62.0,51.0
950,186.35271058125008,186.61351314166674,69.0,84.0
951,186.35271058125008,186.6335748770834,74.0,91.0
952,186.35271058125008,186.66752550625006,66.0,84.0
953,184.13048758125007,186.7215378708334,50.0,80.0
954,186.72308108125006,186.8095008645834,57.0,77.0
955,187.09345158125006,187.4900566583334,74.0,90.0
956,187.09345158125006,187.65055054166675,47.0,82.0
957,187.09345158125006,187.6845011708334,66.0,83.0
958,187.46382208125007,187.8326493708334,54.0,78.0
959,187.46382208125007,187.8326493708334,73.0,84.0
960,187.83419258125008,188.08419266875006,66.0,77.0
961,187.83419258125008,188.18295813541673,74.0,80.0
962,187.83419258125008,188.29869891666672,59.0,61.0
963,188.20456308125006,188.8743164020834,66.0,82.0
964,188.20456308125006,188.9669090270834,69.0,84.0
965,188.20456308125006,189.16289675000007,74.0,57.0
966,189.13048933125006,189.40055115416675,66.0,83.0
967,188.94530408125007,189.50548946250007,62.0,82.0
968,188.20456308125006,189.5502425645834,61.0,81.0
969,189.50085983125007,189.63666234791674,73.0,81.0
970,189.31567458125008,189.66289692500007,74.0,91.0
971,189.68604508125006,189.88511922500007,69.0,79.0
972,190.05641558125006,190.2817243020834,64.0,72.0
973,190.05641558125006,190.42524287083342,71.0,82.0
974,190.05641558125006,190.45147744791674,67.0,83.0
975,190.05641558125006,190.49623055000006,62.0,79.0
976,190.79715658125008,191.22925549791674,62.0,81.0
977,190.79715658125008,191.2446876020834,67.0,83.0
978,190.79715658125008,191.25086044375007,71.0,78.0
979,190.05641558125006,191.6983914645834,55.0,75.0
980,191.53789758125006,191.86814461041672,71.0,79.0
981,191.53789758125006,191.88666313541674,62.0,78.0
982,191.53789758125006,191.9206137645834,67.0,84.0
983,192.09345333125006,192.36660157500006,62.0,80.0
984,191.90826808125007,192.4298732020834,55.0,72.0
985,192.27863858125008,192.50703372291673,67.0,83.0
986,192.46382383125007,192.67833007916673,71.0,80.0
987,190.05641558125006,192.72153997083342,43.0,81.0
988,192.64900908125009,192.87740422291674,74.0,82.0
989,192.64900908125009,192.94221906041673,55.0,79.0
990,193.01937958125006,193.3511698208334,74.0,98.0
991,193.01937958125006,193.6613551145834,45.0,86.0
992,193.38975008125007,193.7261699520834,73.0,83.0
993,193.38975008125007,193.7354292145834,52.0,82.0
994,193.76012058125008,194.0444955812501,69.0,82.0
995,193.76012058125008,194.16480808125007,57.0,79.0
996,194.13512058125008,194.41793308125008,71.0,94.0
997,194.51012058125008,194.74605808125008,73.0,91.0
998,194.13512058125008,194.8023080812501,59.0,80.0
999,194.51012058125008,194.87574558125007,61.0,76.0
1000,194.88512058125008,195.02418308125007,74.0,94.0
1001,195.07262058125008,195.12730808125008,74.0,33.0
1002,194.88512058125008,195.13980808125007,62.0,82.0
1003,195.07262058125008,195.37574558125007,64.0,75.0
1004,195.26012058125008,195.40855808125008,76.0,84.0
1005,195.26012058125008,195.4429330812501,66.0,84.0
1006,195.44762058125008,195.6069955812501,69.0,75.0
1007,195.63512058125008,195.84449558125007,74.0,84.0
1008,195.82262058125008,195.94605808125007,76.0,86.0
1009,196.01012058125008,196.36168308125008,78.0,78.0
1010,196.01012058125008,196.3648080812501,74.0,84.0
1011,196.01012058125008,196.39762058125007,69.0,78.0
1012,196.38512058125008,196.85230808125007,57.0,73.0
1013,196.76012058125008,197.11324558125008,74.0,86.0
1014,196.76012058125008,197.14449558125008,69.0,82.0
1015,196.76012058125008,197.16012058125008,66.0,80.0
1016,196.76012058125008,197.5913705812501,62.0,74.0
1017,197.51012058125008,197.8726205812501,74.0,83.0
1018,197.51012058125008,197.90074558125008,69.0,82.0
1019,197.51012058125008,197.9429330812501,66.0,80.0
1020,197.88512058125008,198.23668308125008,62.0,57.0
1021,196.01012058125008,198.46324558125008,50.0,83.0
1022,197.13512058125008,198.49449558125008,57.0,54.0
1023,198.44762058125008,198.51168308125008,62.0,74.0
1024,198.26012058125008,198.51480808125007,66.0,84.0
1025,198.26012058125008,198.52262058125007,74.0,90.0
1026,198.26012058125008,198.53980808125007,69.0,84.0
1027,198.63512058125008,198.7319955812501,61.0,84.0
1028,198.63512058125008,198.7554330812501,66.0,67.0
1029,198.63512058125008,198.77574558125008,49.0,91.0
1030,198.63512058125008,198.84605808125008,73.0,84.0
1031,199.01012058125008,199.43199558125008,74.0,84.0
1032,199.01012058125008,199.4819955812501,66.0,82.0
1033,199.01012058125008,199.4898080812501,69.0,84.0
1034,199.01012058125008,199.97658360625007,59.0,83.0
1035,199.76012058125008,200.21438805625007,74.0,84.0
1036,199.76012058125008,200.24640019375008,69.0,84.0
1037,199.76012058125008,200.25554651875007,66.0,79.0
1038,200.12597358125007,200.83328938125007,59.0,18.0
1039,200.49182658125008,200.89426488125008,69.0,83.0
1040,200.49182658125008,201.01011833125008,74.0,79.0
1041,200.49182658125008,201.0390816937501,66.0,76.0
1042,201.04060608125008,201.42780050625007,59.0,68.0
1043,201.4064590812501,201.49944671875008,67.0,79.0
1044,201.4064590812501,201.53298324375007,69.0,76.0
1045,201.4064590812501,201.6229221062501,62.0,90.0
1046,199.01012058125008,201.62597088125008,47.0,84.0
1047,201.77231208125008,201.88968991875007,62.0,68.0
1048,201.9552385812501,202.3896890187501,67.0,83.0
1049,201.9552385812501,202.4704815562501,62.0,82.0
1050,201.9552385812501,202.48115226875007,59.0,78.0
1051,201.9552385812501,202.92779780625008,55.0,82.0
1052,202.6869445812501,203.08480971875008,67.0,81.0
1053,202.6869445812501,203.09548043125008,62.0,86.0
1054,202.6869445812501,203.16407786875007,59.0,78.0
1055,203.05279758125008,203.55599630833342,55.0,52.0
1056,203.4186505812501,203.7874778708334,67.0,81.0
1057,203.4186505812501,203.81062602708343,62.0,83.0
1058,203.4186505812501,203.88932975833342,59.0,76.0
1059,203.7890210812501,204.24118173333343,55.0,39.0
1060,204.1593915812501,204.50352750416675,67.0,90.0
1061,204.1593915812501,204.5436509750001,62.0,98.0
1062,201.9552385812501,204.56988555208343,43.0,84.0
1063,204.1593915812501,204.58531765625008,59.0,86.0
1064,204.52976208125008,204.65630533541676,55.0,80.0
1065,204.9001325812501,205.2705030812501,67.0,90.0
1066,204.9001325812501,205.4279105437501,62.0,96.0
1067,204.9001325812501,205.46031796250008,59.0,86.0
1068,204.9001325812501,205.79056499166677,57.0,84.0
1069,205.6408735812501,205.94488603333343,67.0,90.0
1070,205.6408735812501,205.96649097916676,62.0,91.0
1071,205.6408735812501,205.9865527145834,59.0,84.0
1072,204.9001325812501,206.1038367062501,45.0,84.0
1073,206.01124408125008,206.14396017708341,57.0,81.0
1074,206.3816145812501,206.58731087291676,69.0,91.0
1075,206.3816145812501,206.60155138541677,57.0,86.0
1076,206.3816145812501,206.6189564562501,61.0,90.0
1077,206.3816145812501,206.65060203958342,64.0,90.0
1078,206.7613615812501,206.92750089375008,67.0,86.0
1079,206.7613615812501,206.93066545208342,57.0,75.0
1080,206.7613615812501,206.9322477312501,59.0,86.0
1081,206.7613615812501,207.0034502937501,62.0,84.0
1082,207.14110858125008,207.29617193958342,62.0,91.0
1083,207.14110858125008,207.32939980208343,69.0,86.0
1084,207.14110858125008,207.3926909687501,57.0,83.0
1085,207.5208555812501,207.54142521041675,57.0,55.0
1086,206.3816145812501,207.55250116458342,45.0,86.0
1087,207.5208555812501,207.63477968125008,62.0,73.0
1088,207.5208555812501,207.65060247291675,52.0,93.0
1089,207.5208555812501,207.6727543812501,71.0,95.0
1090,207.9006025812501,208.3959731250001,74.0,78.0
1091,207.9006025812501,208.4931953812501,66.0,80.0
1092,207.9006025812501,208.50091143333344,69.0,72.0
1093,207.9006025812501,208.7154176812501,62.0,81.0
1094,208.6413435812501,209.04103507916676,66.0,79.0
1095,208.6413435812501,209.06418323541678,74.0,83.0
1096,208.6413435812501,209.0950474437501,69.0,79.0
1097,209.0117140812501,209.2524549062501,62.0,54.0
1098,207.9006025812501,209.27251664166675,50.0,77.0
1099,209.1968993312501,209.27251664166675,66.0,57.0
1100,207.9006025812501,209.46387473333343,57.0,75.0
1101,209.3820845812501,209.7709736062501,74.0,84.0
1102,209.3820845812501,209.78177607916678,66.0,77.0
1103,209.3820845812501,209.7987513937501,69.0,75.0
1104,209.9376403312501,210.18455399791677,69.0,71.0
1105,209.9376403312501,210.19998610208344,66.0,78.0
1106,209.9376403312501,210.25399846666676,73.0,83.0
1107,210.1228255812501,210.3357886187501,62.0,71.0
1108,210.3080108312501,210.34350467083343,73.0,23.0
1109,209.7524550812501,210.3450478812501,57.0,54.0
1110,210.3080108312501,210.50245534375009,66.0,83.0
1111,210.3080108312501,210.5348627625001,69.0,82.0
1112,209.3820845812501,210.5533812875001,50.0,82.0
1113,210.4931960812501,210.61202328333343,57.0,79.0
1114,210.3080108312501,210.61202328333343,74.0,91.0
1115,210.8635665812501,211.1459740875001,74.0,84.0
1116,210.8635665812501,211.1598629812501,69.0,79.0
1117,210.8635665812501,211.19072718958344,66.0,81.0
1118,211.2339370812501,211.67683847083345,54.0,75.0
1119,211.6043075812501,211.96696202916675,66.0,80.0
1120,211.6043075812501,212.0487521812501,59.0,68.0
1121,211.6043075812501,212.1135670187501,71.0,82.0
1122,211.6043075812501,212.13517196458344,62.0,80.0
1123,212.3450485812501,212.7107894500001,71.0,79.0
1124,212.3450485812501,212.71850550208342,62.0,82.0
1125,212.3450485812501,212.75091292083343,66.0,80.0
1126,212.7154190812501,212.9422710125001,59.0,55.0
1127,212.9006043312501,213.1413451562501,62.0,80.0
1128,211.9746780812501,213.19998715208342,54.0,59.0
1129,213.0857895812501,213.2617155687501,59.0,71.0
1130,213.2709748312501,213.30338225000008,66.0,56.0
1131,212.9006043312501,213.30955509166677,69.0,82.0
1132,213.2709748312501,213.4561600812501,71.0,86.0
1133,213.2709748312501,213.49165392083344,62.0,90.0
1134,210.8635665812501,213.51017244583343,47.0,84.0
1135,213.4561600812501,213.57344407291677,54.0,83.0
1136,213.8265305812501,214.2431973937501,67.0,90.0
1137,213.8265305812501,214.27251839166678,62.0,84.0
1138,213.8265305812501,214.38054312083344,59.0,78.0
1139,213.8265305812501,214.7200494125001,55.0,73.0
1140,214.5672715812501,215.00400012916677,67.0,86.0
1141,214.5672715812501,215.00554333958343,62.0,84.0
1142,214.5672715812501,215.1043088062501,59.0,80.0
1143,214.9376420812501,215.39906199583342,55.0,54.0
1144,215.3080125812501,215.63362997916676,67.0,84.0
1145,215.3080125812501,215.66758060833342,59.0,76.0
1146,213.8265305812501,215.67221023958342,43.0,78.0
1147,215.3080125812501,215.7431979187501,62.0,84.0
1148,215.6783830812501,215.86974117291678,55.0,67.0
1149,215.6783830812501,216.0209757937501,61.0,84.0
1150,215.6783830812501,216.04566716041677,64.0,84.0
1151,215.6783830812501,216.05492642291676,69.0,84.0
1152,215.6783830812501,216.37591418958343,45.0,82.0
1153,216.2339388312501,216.48085249791677,61.0,82.0
1154,216.2339388312501,216.52251917916675,57.0,59.0
1155,216.4191240812501,216.59659327916677,64.0,83.0
1156,216.7894945812501,217.12591445208344,67.0,83.0
1157,216.7894945812501,217.2894947562501,59.0,81.0
1158,216.7894945812501,217.31572933333342,62.0,76.0
1159,216.7894945812501,217.68455662291677,52.0,81.0
1160,217.5302355812501,217.94072955208344,59.0,78.0
1161,217.5302355812501,217.9746801812501,62.0,79.0
1162,217.5302355812501,217.97622339166676,67.0,84.0
1163,217.9006060812501,218.00863081041678,52.0,81.0
1164,218.2709765812501,218.44072972708344,57.0,71.0
1165,218.2709765812501,218.50863098541677,43.0,72.0
1166,218.2709765812501,218.54566803541675,69.0,83.0
1167,218.2709765812501,218.57035940208343,61.0,84.0
1168,218.2709765812501,218.65832239583344,64.0,84.0
1169,218.6413470812501,218.8543101187501,57.0,68.0
1170,218.8265323312501,218.91140890416676,62.0,82.0
1171,218.8265323312501,218.92992742916675,59.0,84.0
1172,218.8265323312501,218.95924842708342,67.0,86.0
1173,219.0117175812501,219.17684109583342,57.0,75.0
1174,219.1969028312501,219.2756065625001,61.0,80.0
1175,219.1969028312501,219.3126436125001,69.0,91.0
1176,218.2709765812501,219.34813745208342,45.0,74.0
1177,219.5672733312501,219.64752027291678,69.0,75.0
1178,219.3820880812501,219.65369311458343,57.0,84.0
1179,219.7524585812501,220.04721177083343,66.0,93.0
1180,219.7524585812501,220.12591550208344,69.0,84.0
1181,219.7524585812501,220.19073033958344,74.0,84.0
1182,220.1228290812501,220.31881680416677,66.0,68.0
1183,220.1228290812501,220.4607921625001,73.0,86.0
1184,220.1228290812501,220.5394958937501,57.0,72.0
1185,220.4931995812501,220.8404219250001,74.0,83.0
1186,219.7524585812501,220.8867182375001,50.0,91.0
1187,220.4931995812501,220.8959775000001,66.0,79.0
1188,220.4931995812501,220.9052367625001,62.0,62.0
1189,220.8635700812501,221.12128622083344,57.0,79.0
1190,221.0487553312501,221.14443437708343,69.0,54.0
1191,221.2339405812501,221.54103945416676,66.0,79.0
1192,221.2339405812501,221.61974318541675,74.0,84.0
1193,221.7894963312501,221.92529884791676,64.0,82.0
1194,221.6043110812501,222.03332357708342,57.0,73.0
1195,221.7894963312501,222.05647173333344,73.0,84.0
1196,221.9746815812501,222.20307672291676,62.0,71.0
1197,221.2339405812501,222.34350887083343,50.0,80.0
1198,222.1598668312501,222.41603976041677,66.0,84.0
1199,222.1598668312501,222.43918791666675,74.0,93.0
1200,222.3450520812501,222.45770644166677,57.0,78.0
1201,222.7154225812501,222.96850908958342,74.0,86.0
1202,222.7154225812501,222.98548440416675,69.0,83.0
1203,222.7154225812501,223.0209782437501,66.0,79.0
1204,223.4561635812501,223.64289204166676,62.0,62.0
1205,223.6413488312501,223.74628713958344,64.0,79.0
1206,223.2709783312501,224.00091685833343,59.0,76.0
1207,222.7154225812501,224.01326254166676,47.0,82.0
1208,223.8265340812501,224.02869464583344,66.0,59.0
1209,223.0857930812501,224.11202800833343,54.0,78.0
1210,224.0117193312501,224.15832432083343,69.0,80.0
1211,224.1969045812501,224.45770714166676,66.0,82.0
1212,224.1969045812501,224.5904232375001,74.0,82.0
1213,224.5672750812501,224.64906523333343,64.0,68.0
1214,224.5672750812501,224.69999117708343,73.0,81.0
1215,224.7524603312501,224.88826284791676,66.0,82.0
1216,224.7524603312501,224.96696657916675,74.0,86.0
1217,224.5672750812501,225.08733699166677,54.0,75.0
1218,224.9376455812501,225.1274604625001,59.0,67.0
1219,225.1228308312501,225.1598678812501,62.0,53.0
1220,225.1228308312501,225.28795434583344,69.0,86.0
1221,224.1969045812501,225.35276918333344,47.0,79.0
1222,225.3080160812501,225.42221365208343,54.0,82.0
1223,225.4932013312501,225.62128779583344,62.0,80.0
1224,225.6783865812501,226.09713658125008,67.0,86.0
1225,225.6783865812501,226.30026158125008,59.0,78.0
1226,225.6783865812501,226.3033865812501,62.0,72.0
1227,225.6783865812501,226.5721365812501,55.0,83.0
1228,226.4283865812501,226.7752615812501,67.0,90.0
1229,225.6783865812501,226.92526158125008,43.0,79.0
1230,226.4283865812501,226.9596365812501,62.0,84.0
1231,226.4283865812501,226.9658865812501,59.0,84.0
1232,226.8033865812501,226.9736990812501,55.0,69.0
1233,227.1783865812501,227.5221365812501,64.0,59.0
1234,227.1783865812501,227.6705740812501,69.0,93.0
1235,227.1783865812501,227.7080740812501,61.0,84.0
1236,227.5533865812501,228.0236990812501,57.0,54.0
1237,227.9283865812501,228.1377615812501,61.0,86.0
1238,227.9283865812501,228.1846365812501,64.0,86.0
1239,227.9283865812501,228.1924490812501,69.0,83.0
1240,227.1783865812501,228.2111990812501,45.0,82.0
1241,228.3033865812501,228.5924490812501,57.0,78.0
1242,228.6783865812501,228.8096365812501,38.0,86.0
1243,228.6783865812501,228.8893240812501,50.0,79.0
1244,228.6783865812501,229.00338658125008,69.0,82.0
1245,228.6783865812501,229.0236990812501,66.0,79.0
1246,228.6783865812501,229.10494908125008,74.0,84.0
1247,229.2408865812501,229.49165820833343,66.0,86.0
1248,229.2408865812501,229.54567057291675,73.0,96.0
1249,229.61357183125008,229.6830163000001,69.0,80.0
1250,229.61357183125008,229.8265348687501,74.0,95.0
1251,229.9839423312501,230.10739916458343,62.0,82.0
1252,229.9839423312501,230.32807825416677,69.0,90.0
1253,230.3543128312501,230.43610298333343,69.0,68.0
1254,230.3543128312501,230.59196723541677,71.0,78.0
1255,230.3543128312501,230.64443638958343,62.0,83.0
1256,230.5394980812501,230.65986849375008,73.0,95.0
1257,230.7246833312501,230.86202905833343,74.0,98.0
1258,229.4283865812501,230.91141179166675,57.0,75.0
1259,230.9098685812501,230.9422760000001,74.0,30.0
1260,230.9098685812501,231.12900446041675,76.0,84.0
1261,230.9098685812501,231.20616498125008,62.0,84.0
1262,231.09505383125008,231.2293131375001,78.0,90.0
1263,229.0533865812501,231.27406623958342,50.0,78.0
1264,231.2802390812501,231.3959798625001,57.0,83.0
1265,231.2802390812501,231.42067122916677,79.0,90.0
1266,231.4654243312501,231.54721448333342,81.0,86.0
1267,231.6506095812501,232.1459801250001,74.0,78.0
1268,231.6506095812501,232.2432023812501,66.0,80.0
1269,231.6506095812501,232.25091843333342,69.0,72.0
1270,231.6506095812501,232.46542468125008,62.0,81.0
1271,232.3913505812501,232.79104207916677,66.0,79.0
1272,232.3913505812501,232.81419023541676,74.0,83.0
1273,232.3913505812501,232.8450544437501,69.0,79.0
1274,232.7617210812501,233.0024619062501,62.0,54.0
1275,231.6506095812501,233.02252364166677,50.0,77.0
1276,232.9469063312501,233.02252364166677,66.0,57.0
1277,231.6506095812501,233.21388173333344,57.0,75.0
1278,233.1320915812501,233.5209806062501,74.0,84.0
1279,233.1320915812501,233.53178307916676,66.0,77.0
1280,233.1320915812501,233.5487583937501,69.0,75.0
1281,233.6876473312501,233.93456099791675,69.0,71.0
1282,233.6876473312501,233.94999310208343,66.0,78.0
1283,233.6876473312501,234.00400546666677,73.0,83.0
1284,233.8728325812501,234.0857956187501,62.0,71.0
1285,234.05801783125008,234.09351167083344,73.0,23.0
1286,233.5024620812501,234.0950548812501,57.0,54.0
1287,234.05801783125008,234.2524623437501,66.0,83.0
1288,234.05801783125008,234.2848697625001,69.0,82.0
1289,233.1320915812501,234.3033882875001,50.0,82.0
1290,234.2432030812501,234.36203028333344,57.0,79.0
1291,234.05801783125008,234.36203028333344,74.0,91.0
1292,234.6135735812501,234.8959810875001,74.0,84.0
1293,234.6135735812501,234.9098699812501,69.0,79.0
1294,234.6135735812501,234.94073418958342,66.0,81.0
1295,234.9839440812501,235.42684547083343,54.0,75.0
1296,235.3543145812501,235.71696902916676,66.0,80.0
1297,235.3543145812501,235.7987591812501,59.0,68.0
1298,235.3543145812501,235.86357401875009,71.0,82.0
1299,235.3543145812501,235.88517896458342,62.0,80.0
1300,236.0950555812501,236.4607964500001,71.0,79.0
1301,236.0950555812501,236.46851250208343,62.0,82.0
1302,236.0950555812501,236.50091992083344,66.0,80.0
1303,236.4654260812501,236.69227801250008,59.0,55.0
1304,236.6506113312501,236.8913521562501,62.0,80.0
1305,235.7246850812501,236.94999415208343,54.0,59.0
1306,236.8357965812501,237.0117225687501,59.0,71.0
1307,237.02098183125008,237.0533892500001,66.0,56.0
1308,236.6506113312501,237.05956209166675,69.0,82.0
1309,237.02098183125008,237.2061670812501,71.0,86.0
1310,237.02098183125008,237.24166092083343,62.0,90.0
1311,234.6135735812501,237.26017944583342,47.0,84.0
1312,237.2061670812501,237.32345107291675,54.0,83.0
1313,237.5765375812501,237.9932043937501,67.0,90.0
1314,237.5765375812501,238.02252539166676,62.0,84.0
1315,237.5765375812501,238.13055012083342,59.0,78.0
1316,237.5765375812501,238.4700564125001,55.0,73.0
1317,238.3172785812501,238.75400712916675,67.0,86.0
1318,238.3172785812501,238.75555033958344,62.0,84.0
1319,238.3172785812501,238.8543158062501,59.0,80.0
1320,238.6876490812501,239.14906899583343,55.0,54.0
1321,239.0580195812501,239.38363697916677,67.0,84.0
1322,239.0580195812501,239.41758760833343,59.0,76.0
1323,237.5765375812501,239.42221723958343,43.0,78.0
1324,239.0580195812501,239.4932049187501,62.0,84.0
1325,239.4283900812501,239.61974817291676,55.0,67.0
1326,239.4283900812501,239.7709827937501,61.0,84.0
1327,239.4283900812501,239.79567416041675,64.0,84.0
1328,239.4283900812501,239.80493342291675,69.0,84.0
1329,239.4283900812501,240.12592118958344,45.0,82.0
1330,239.98394583125008,240.23085949791675,61.0,82.0
1331,239.98394583125008,240.27252617916676,57.0,59.0
1332,240.1691310812501,240.34660027916675,64.0,83.0
1333,240.5395015812501,240.87592145208342,67.0,83.0
1334,240.5395015812501,241.0395017562501,59.0,81.0
1335,240.5395015812501,241.06573633333343,62.0,76.0
1336,240.5395015812501,241.43456362291676,52.0,81.0
1337,241.2802425812501,241.69073655208342,59.0,78.0
1338,241.2802425812501,241.7246871812501,62.0,79.0
1339,241.2802425812501,241.72623039166677,67.0,84.0
1340,241.6506130812501,241.75863781041676,52.0,81.0
1341,242.0209835812501,242.19073672708342,57.0,71.0
1342,242.0209835812501,242.25863798541675,43.0,72.0
1343,242.0209835812501,242.29567503541676,69.0,83.0
1344,242.0209835812501,242.32036640208344,61.0,84.0
1345,242.0209835812501,242.40832939583342,64.0,84.0
1346,242.39135408125009,242.6043171187501,57.0,68.0
1347,242.5765393312501,242.66141590416677,62.0,82.0
1348,242.5765393312501,242.67993442916676,59.0,84.0
1349,242.5765393312501,242.70925542708343,67.0,86.0
1350,242.7617245812501,242.92684809583344,57.0,75.0
1351,242.94690983125008,243.0256135625001,61.0,80.0
1352,242.94690983125008,243.0626506125001,69.0,91.0
1353,242.0209835812501,243.09814445208343,45.0,74.0
1354,243.3172803312501,243.39752727291676,69.0,75.0
1355,243.1320950812501,243.40370011458342,57.0,84.0
1356,243.5024655812501,243.79721877083344,66.0,93.0
1357,243.5024655812501,243.87592250208343,69.0,84.0
1358,243.5024655812501,243.94073733958342,74.0,84.0
1359,243.87283608125009,244.06882380416675,66.0,68.0
1360,243.87283608125009,244.2107991625001,73.0,86.0
1361,243.87283608125009,244.2895028937501,57.0,72.0
1362,244.2432065812501,244.59042892500008,74.0,83.0
1363,243.5024655812501,244.6367252375001,50.0,91.0
1364,244.2432065812501,244.64598450000008,66.0,79.0
1365,244.2432065812501,244.6552437625001,62.0,62.0
1366,244.6135770812501,244.87129322083342,57.0,79.0
1367,244.7987623312501,244.89444137708344,69.0,54.0
1368,244.9839475812501,245.29104645416675,66.0,79.0
1369,244.9839475812501,245.36975018541676,74.0,84.0
1370,245.5395033312501,245.67530584791677,64.0,82.0
1371,245.35431808125009,245.78333057708343,57.0,73.0
1372,245.5395033312501,245.80647873333342,73.0,84.0
1373,245.7246885812501,245.95308372291677,62.0,71.0
1374,244.9839475812501,246.09351587083341,50.0,80.0
1375,245.90987383125008,246.16604676041675,66.0,84.0
1376,245.90987383125008,246.18919491666676,74.0,93.0
1377,246.0950590812501,246.20771344166675,57.0,78.0
1378,246.4654295812501,246.71851608958343,74.0,86.0
1379,246.4654295812501,246.73549140416677,69.0,83.0
1380,246.4654295812501,246.7709852437501,66.0,79.0
1381,247.2061705812501,247.39289904166677,62.0,62.0
1382,247.3913558312501,247.49629413958343,64.0,79.0
1383,247.0209853312501,247.75092385833344,59.0,76.0
1384,246.4654295812501,247.76326954166677,47.0,82.0
1385,247.5765410812501,247.77870164583342,66.0,59.0
1386,246.83580008125008,247.86203500833344,54.0,78.0
1387,247.7617263312501,247.90833132083344,69.0,80.0
1388,247.9469115812501,248.20771414166677,66.0,82.0
1389,247.9469115812501,248.3404302375001,74.0,82.0
1390,248.31728208125008,248.3990722333334,64.0,68.0
1391,248.31728208125008,248.44999817708342,73.0,81.0
1392,248.5024673312501,248.63826984791677,66.0,82.0
1393,248.5024673312501,248.71697357916676,74.0,86.0
1394,248.31728208125008,248.83734399166676,54.0,75.0
1395,248.6876525812501,248.87746746250008,59.0,67.0
1396,248.87283783125008,248.9098748812501,62.0,53.0
1397,248.87283783125008,249.03796134583342,69.0,86.0
1398,247.9469115812501,249.10277618333342,47.0,79.0
1399,249.0580230812501,249.17222065208344,54.0,82.0
1400,249.2432083312501,249.37129479583342,62.0,80.0
1401,249.4283935812501,249.84197397291678,67.0,86.0
1402,249.4283935812501,250.04259132708341,59.0,78.0
1403,249.4283935812501,250.04567774791676,62.0,72.0
1404,249.4283935812501,250.31110993958342,55.0,83.0
1405,250.1691345812501,250.51172729375008,67.0,90.0
1406,249.4283935812501,250.6598754937501,43.0,79.0
1407,250.1691345812501,250.69382612291676,62.0,84.0
1408,250.1691345812501,250.69999896458341,59.0,84.0
1409,250.5395050812501,250.70771501666675,55.0,69.0
1410,250.9098755812501,251.24938187291676,64.0,59.0
1411,250.9098755812501,251.39598686250008,69.0,93.0
1412,250.9098755812501,251.4330239125001,61.0,84.0
1413,251.28024608125008,251.74475241666676,57.0,54.0
1414,251.6506165812501,251.85740677708344,61.0,86.0
1415,251.6506165812501,251.90370308958342,64.0,86.0
1416,251.6506165812501,251.91141914166676,69.0,83.0
1417,250.9098755812501,251.92993766666677,45.0,82.0
1418,252.0209870812501,252.30648100833344,57.0,78.0
1419,252.3913575812501,252.5209872562501,38.0,86.0
1420,252.3913575812501,252.59969098750008,50.0,79.0
1421,252.3913575812501,252.71234534791677,69.0,82.0
1422,252.3913575812501,252.73240708333344,66.0,79.0
1423,252.3913575812501,252.81265402500009,74.0,84.0
1424,252.9469133312501,253.19537020833343,66.0,86.0
1425,252.9469133312501,253.24938257291677,73.0,96.0
1426,253.3172838312501,253.3867283000001,69.0,80.0
1427,253.3172838312501,253.53024686875008,74.0,95.0
1428,253.6876543312501,253.81111116458342,62.0,82.0
1429,253.6876543312501,254.03179025416676,69.0,90.0
1430,254.0580248312501,254.13981498333342,69.0,68.0
1431,254.0580248312501,254.29567923541677,71.0,78.0
1432,254.0580248312501,254.34814838958343,62.0,83.0
1433,254.24321008125008,254.36358049375008,73.0,95.0
1434,254.4283953312501,254.56574105833343,74.0,98.0
1435,253.1320985812501,254.61512379166675,57.0,75.0
1436,254.6135805812501,254.6459880000001,74.0,30.0
1437,254.6135805812501,254.83271646041675,76.0,84.0
1438,254.6135805812501,254.90987698125008,62.0,84.0
1439,254.79876583125008,254.9330251375001,78.0,90.0
1440,252.76172808125008,254.97777823958342,50.0,78.0
1441,254.9839510812501,255.0996918625001,57.0,83.0
1442,254.9839510812501,255.12438322916677,79.0,90.0
1443,255.1691363312501,255.25092648333342,81.0,86.0
1444,255.3543215812501,255.86223319375011,74.0,78.0
1445,255.3543215812501,255.9619167812501,66.0,80.0
1446,255.3543215812501,255.96982817708343,69.0,72.0
1447,255.3543215812501,256.1897649812501,62.0,81.0
1448,256.1138155812501,256.5236258854168,66.0,79.0
1449,256.1138155812501,256.5473600729168,74.0,83.0
1450,256.1138155812501,256.5790056562501,69.0,79.0
1451,256.4935625812501,256.7403981312501,62.0,54.0
1452,255.3543215812501,256.76096776041675,50.0,77.0
1453,256.6834360812501,256.76096776041675,66.0,57.0
1454,255.3543215812501,256.95509973333344,57.0,75.0
1455,256.8733095812501,257.26219860625014,74.0,84.0
1456,256.8733095812501,257.27300107916676,66.0,77.0
1457,256.8733095812501,257.2899763937501,69.0,75.0
1458,257.4288653312501,257.6757789979168,69.0,71.0
1459,257.4288653312501,257.69121110208346,66.0,78.0
1460,257.4288653312501,257.7452234666668,73.0,83.0
1461,257.6140505812501,257.82701361875013,62.0,71.0
1462,257.7992358312501,257.83472967083344,73.0,23.0
1463,257.2436800812501,257.8362728812501,57.0,54.0
1464,257.7992358312501,257.9936803437501,66.0,83.0
1465,257.7992358312501,258.02608776250014,69.0,82.0
1466,256.8733095812501,258.04460628750013,50.0,82.0
1467,257.9844210812501,258.10324828333347,57.0,79.0
1468,257.7992358312501,258.10324828333347,74.0,91.0
1469,258.35479158125014,258.6371990875001,74.0,84.0
1470,258.35479158125014,258.6510879812501,69.0,79.0
1471,258.35479158125014,258.68195218958346,66.0,81.0
1472,258.7251620812501,259.16806347083343,54.0,75.0
1473,259.0955325812501,259.45818702916677,66.0,80.0
1474,259.0955325812501,259.5399771812501,59.0,68.0
1475,259.0955325812501,259.6047920187501,71.0,82.0
1476,259.0955325812501,259.6263969645834,62.0,80.0
1477,259.8362735812501,260.2020144500001,71.0,79.0
1478,259.8362735812501,260.20973050208346,62.0,82.0
1479,259.8362735812501,260.24213792083344,66.0,80.0
1480,260.2066440812501,260.4334960125001,59.0,55.0
1481,260.3918293312501,260.6325701562501,62.0,80.0
1482,259.46590308125013,260.69121215208344,54.0,59.0
1483,260.5770145812501,260.7529405687501,59.0,71.0
1484,260.7621998312501,260.7946072500001,66.0,56.0
1485,260.3918293312501,260.80078009166675,69.0,82.0
1486,260.7621998312501,260.9473850812501,71.0,86.0
1487,260.7621998312501,260.98287892083346,62.0,90.0
1488,258.35479158125014,261.00139744583345,47.0,84.0
1489,260.9473850812501,261.0646690729168,54.0,83.0
1490,261.31775558125014,261.73750881458346,67.0,81.0
1491,261.31775558125014,261.75757055000014,71.0,68.0
1492,261.31775558125014,261.7807187062501,62.0,72.0
1493,261.31775558125014,261.8131261250001,74.0,52.0
1494,261.31775558125014,262.1881262562501,55.0,69.0
1495,262.0584965812501,262.4103485562501,62.0,79.0
1496,261.31775558125014,262.41960781875014,43.0,76.0
1497,262.0584965812501,262.4473856062501,67.0,81.0
1498,262.0584965812501,262.51991649583346,71.0,79.0
1499,262.42886708125013,262.86868205000013,55.0,62.0
1500,262.7992375812501,263.61713910208346,64.0,75.0
1501,262.7992375812501,263.64337367916676,73.0,80.0
1502,262.7992375812501,263.66343541458343,69.0,75.0
1503,262.7992375812501,263.7066453062501,45.0,69.0
1504,263.1696080812501,263.74985519791676,52.0,68.0
1505,263.5399785812501,263.96436144583345,57.0,57.0
1506,263.9103490812501,264.0214602312501,64.0,58.0
1507,264.28071958125014,264.7035592354168,62.0,77.0
1508,264.28071958125014,264.71436170833346,67.0,79.0
1509,264.28071958125014,264.7575716000001,71.0,77.0
1510,264.28071958125014,265.16960878125013,52.0,57.0
1511,264.28071958125014,265.2143618833334,59.0,74.0
1512,265.0214605812501,265.27300387916677,62.0,75.0
1513,265.7622015812501,266.12176960833347,62.0,76.0
1514,265.7622015812501,266.1372017125001,67.0,72.0
1515,265.7622015812501,266.16189307916676,57.0,69.0
1516,265.7622015812501,266.16806592083344,45.0,75.0
1517,265.7622015812501,266.17115234166675,71.0,74.0
1518,266.3177573312501,266.49522652916676,57.0,58.0
1519,266.3177573312501,266.57855989166677,45.0,75.0
1520,266.3177573312501,266.59244878541676,62.0,72.0
1521,266.3177573312501,266.8655970291668,69.0,78.0
1522,267.3779428875001,267.5152886145834,38.0,93.0
1523,267.25139963333345,267.9612764250001,64.0,44.0
1524,267.3239305229168,267.9983134750001,66.0,76.0
1525,267.37948609791675,268.0446097875001,69.0,63.0
1526,267.47825156458345,268.1047949937501,74.0,78.0
1527,268.3841160791668,268.5214618062501,64.0,59.0
1528,268.49677043958343,268.64954827083346,66.0,61.0
1529,268.6078815895834,268.7405976854168,69.0,72.0
1530,268.7189927395834,268.77917794583345,74.0,72.0
1531,268.8748569916668,269.02300519166675,76.0,70.0
1532,268.99831382500014,269.1757830229168,78.0,68.0
1533,269.1696101812501,269.22053612500014,79.0,73.0
1534,269.3177583812501,269.47825226458343,81.0,48.0
1535,269.4612769500001,269.65726467291677,86.0,68.0
1536,269.65417825208345,269.7452276666668,88.0,72.0
1537,268.2853506125001,270.09245001041677,62.0,62.0
1538,268.12485672916677,270.10788211458345,57.0,71.0
1539,267.9396714791668,270.1387463229168,50.0,51.0
1540,269.90726476041675,270.1804130041668,93.0,68.0
1541,270.1665241104168,270.2560303145834,98.0,78.0
