,start,end,pitch,velocity
0,20.384921654166668,20.58928674375,64.0,113.0
1,20.7023819875,20.928572475,64.0,113.0
2,21.019842320833334,21.228175664583333,67.0,110.0
3,21.337302654166667,21.628969335416667,69.0,116.0
4,21.6547629875,21.936509033333333,67.0,110.0
5,21.972223320833333,22.18452491875,67.0,108.0
6,22.289683654166666,22.563493191666666,67.0,116.0
7,22.6071439875,22.8928582875,67.0,113.0
8,22.924604320833332,23.140874172916668,64.0,110.0
9,23.242064654166665,23.468255141666667,67.0,114.0
10,24.194445654166667,24.36309645625,64.0,113.0
11,24.5119059875,24.757937745833335,64.0,102.0
12,24.829366320833334,25.007937758333334,67.0,108.0
13,25.146826654166667,25.4880965125,71.0,119.0
14,25.781747320833333,26.1547632125,69.0,116.0
15,26.099207654166666,26.402779097916667,67.0,114.0
16,26.4166679875,26.686509270833334,64.0,110.0
17,26.73412832083333,27.023810875,62.0,108.0
18,27.051588654166668,27.357144225,64.0,116.0
19,28.003969654166667,28.474207772916667,64.0,116.0
20,28.638890320833333,28.9404776375,62.0,110.0
21,28.956350654166666,29.263890352083333,60.0,116.0
22,29.591271320833332,29.730160216666665,57.0,104.0
23,29.908731654166665,30.228176114583334,72.0,117.0
24,30.384922154166667,30.680557089583335,69.0,117.0
25,30.861112654166668,31.14881108125,67.0,114.0
26,31.1785729875,31.462303160416667,69.0,110.0
27,31.496033320833334,31.85119206875,67.0,113.0
28,31.813493654166667,32.08531906458333,64.0,117.0
29,32.448414320833336,32.77182703541666,64.0,110.0
30,32.765874654166666,33.05555720833333,62.0,100.0
31,33.0833349875,33.3928588125,60.0,102.0
32,33.40079532083333,33.67460485833333,57.0,104.0
33,33.71825565416667,33.96627153958333,60.0,113.0
34,34.0357159875,34.25595409375,62.0,113.0
35,34.353176320833335,34.56150966458333,64.0,116.0
36,34.670636654166664,35.02182714791667,64.0,117.0
37,35.146827154166665,35.4285732,62.0,114.0
38,35.62301765416667,35.77976369375,64.0,114.0
39,35.9404779875,36.1785732375,64.0,114.0
40,36.25793832083333,36.51389071458333,67.0,113.0
41,36.57539865416667,36.84920819166667,69.0,116.0
42,36.8928589875,37.099208204166665,67.0,114.0
43,37.210319320833335,37.41468441041667,67.0,110.0
44,37.527779654166665,37.7500018875,67.0,113.0
45,37.8452399875,38.111113016666664,67.0,116.0
46,38.16270032083333,38.43452573125,64.0,110.0
47,38.48016065416667,38.76389082708333,67.0,117.0
48,39.43254165416667,39.61111309166667,64.0,116.0
49,39.7500019875,39.93650993333333,64.0,114.0
50,40.067462320833336,40.22024010625,67.0,116.0
51,40.384922654166665,40.549605202083335,71.0,119.0
52,41.01984332083333,41.180557614583336,69.0,117.0
53,41.33730365416667,41.5357163625,67.0,114.0
54,41.6547639875,41.92460527083333,64.0,116.0
55,41.972224320833334,42.23016084166667,62.0,114.0
56,42.28968465416666,42.57738308125,64.0,116.0
57,43.242065654166666,43.41865296458333,64.0,117.0
58,43.5595259875,43.785716475,64.0,116.0
59,43.87698632083333,44.10516093541666,62.0,110.0
60,44.19444665416667,44.464287937499996,60.0,116.0
61,44.5119069875,44.84920859166667,60.0,114.0
62,44.829367320833335,44.9642879625,57.0,110.0
63,45.146827654166664,45.70833561875,72.0,110.0
64,45.78174832083333,46.06349436666667,69.0,114.0
65,46.09920865416667,46.51389121458333,67.0,116.0
66,46.416668987499996,46.7023832875,69.0,108.0
67,46.73412932083333,47.0595261625,67.0,107.0
68,47.05158965416667,47.319446810416665,64.0,116.0
69,47.686510320833335,47.978177002083335,64.0,117.0
70,48.003970654166665,48.295637335416664,62.0,107.0
71,48.3214309875,48.634923066666666,60.0,116.0
72,48.63889132083333,48.91468498541666,57.0,110.0
73,48.95635165416667,49.20635166666666,60.0,116.0
74,49.2738119875,49.501986602083335,62.0,114.0
75,49.59127232083333,49.829367570833334,64.0,119.0
76,49.90873265416666,50.30158981666666,62.0,117.0
77,50.2261929875,50.49801839791667,60.0,116.0
78,51.1785739875,51.44841527083333,64.0,116.0
79,51.49603432083333,51.75992322291667,67.0,114.0
80,51.81349465416667,52.02182799791667,69.0,117.0
81,52.1309549875,52.2857169,69.0,110.0
82,52.448415320833334,52.61905025,69.0,114.0
83,52.76587565416666,53.0119074125,69.0,116.0
84,53.0833359875,53.357145525,71.0,113.0
85,53.40079632083333,53.66865347708333,69.0,116.0
86,53.718256654166666,54.081351910416664,67.0,119.0
87,54.9880979875,55.24801863541666,67.0,119.0
88,55.305558320833335,55.57341547708333,69.0,116.0
89,55.623018654166664,55.807542472916666,72.0,117.0
90,55.9404789875,56.091272645833335,72.0,116.0
91,56.25793932083333,56.436510758333334,72.0,114.0
92,56.57539965416667,56.88293935208333,72.0,117.0
93,56.892859987499996,57.049606027083335,69.0,117.0
94,57.21032032083333,57.49008223958333,79.0,114.0
95,57.52778065416667,57.78373304791667,76.0,119.0
96,58.480161654166665,58.771828335416664,76.0,117.0
97,58.7976219875,59.10516168541667,74.0,113.0
98,59.11508232083333,59.35317757083333,72.0,116.0
99,59.43254265416667,59.795637910416666,74.0,114.0
100,60.38492365416666,60.644844302083335,76.0,119.0
101,60.7023839875,60.96825701666667,74.0,116.0
102,61.019844320833336,61.2500030625,72.0,113.0
103,61.337304654166665,61.63690784375,74.0,117.0
104,62.28968565416667,62.579368208333335,76.0,116.0
105,62.6071459875,62.92659044791667,74.0,113.0
106,62.924606320833334,63.1547650625,72.0,116.0
107,63.24206665416666,63.404765075,74.0,116.0
108,63.5595269875,63.69643175625,74.0,117.0
109,63.87698732083333,64.0119079625,74.0,117.0
110,64.19444765416667,64.42063814166667,74.0,119.0
111,64.5119079875,64.73214609375,72.0,116.0
112,64.82936832083334,65.06944769791667,81.0,113.0
113,65.14682865416667,65.36111437916666,79.0,117.0
114,68.00397165416666,68.28968595416667,74.0,120.0
115,68.3214319875,68.56349549166667,72.0,114.0
116,68.63889232083334,68.880955825,74.0,117.0
117,68.95635265416666,69.26786060625,79.0,117.0
118,69.90873365416667,70.23214636875,74.0,120.0
119,70.2261939875,70.452384475,72.0,114.0
120,70.54365432083333,70.79960671458333,74.0,107.0
121,70.86111465416667,71.16468609791667,79.0,114.0
122,71.81349565416667,72.10913058958333,74.0,116.0
123,72.1309559875,72.37698774583333,72.0,114.0
124,72.44841632083333,72.70436871458334,74.0,113.0
125,72.76587665416666,73.06151158958333,79.0,116.0
126,73.0833369875,73.24008302708333,79.0,110.0
127,73.40079732083333,73.56349574166667,79.0,114.0
128,73.71825765416666,74.0000037,79.0,117.0
129,74.03571798749999,74.31746403333334,76.0,114.0
130,74.35317832083334,74.63294023958333,74.0,116.0
131,74.67063865416667,74.96032120833333,76.0,117.0
132,75.62301965416667,75.87698792083333,76.0,119.0
133,75.9404799875,76.18452761875,74.0,113.0
134,76.25794032083333,76.5595276375,72.0,116.0
135,76.57540065416667,77.02579750208334,69.0,119.0
136,77.52778165416666,77.88690865625,76.0,119.0
137,77.8452419875,78.1309562875,74.0,116.0
138,78.16270232083333,78.46825789166667,72.0,114.0
139,78.48016265416666,78.75198806458333,67.0,117.0
140,79.43254365416666,79.7142897,67.0,117.0
141,79.7500039875,79.94643256875,69.0,116.0
142,80.06746432083334,80.34127385833334,72.0,116.0
143,80.38492465416667,80.60119450625,69.0,120.0
144,80.7023849875,80.8571469,69.0,117.0
145,81.01984532083333,81.1785754875,69.0,117.0
146,81.33730565416667,81.45040089791667,79.0,119.0
147,81.6547659875,81.90675012708333,79.0,110.0
148,81.97222632083333,82.10516283541666,74.0,114.0
149,82.1309564875,82.25794062083334,72.0,104.0
150,82.28968665416667,82.52381365,74.0,117.0
151,83.24206765416666,83.52778195416667,74.0,120.0
152,83.5595279875,83.80159149166667,72.0,114.0
153,83.87698832083333,84.119051825,74.0,117.0
154,84.19444865416666,84.50595660625,79.0,117.0
155,85.14682965416667,85.47024236875,74.0,120.0
156,85.4642899875,85.690480475,72.0,114.0
157,85.78175032083334,86.03770271458333,74.0,107.0
158,86.09921065416667,86.40278209791667,79.0,114.0
159,87.05159165416667,87.34722658958333,74.0,116.0
160,87.3690519875,87.61508374583333,72.0,114.0
161,87.68651232083333,87.94246471458334,74.0,113.0
162,88.00397265416666,88.29960758958333,79.0,116.0
163,88.3214329875,88.47817902708333,79.0,110.0
164,88.63889332083333,88.80159174166667,79.0,114.0
165,88.95635365416666,89.23809969999999,79.0,117.0
166,89.2738139875,89.55556003333334,76.0,114.0
167,89.59127432083334,89.87103623958333,74.0,116.0
168,89.90873465416666,90.19841720833334,76.0,117.0
169,90.86111565416667,91.11508392083333,76.0,119.0
170,91.1785759875,91.42262361875,74.0,113.0
171,91.49603632083333,91.7976236375,72.0,116.0
172,91.81349665416667,92.26389350208333,69.0,119.0
173,92.76587765416667,93.12500465625,76.0,119.0
174,93.0833379875,93.3690522875,74.0,116.0
175,93.40079832083333,93.70635389166667,72.0,114.0
176,93.71825865416666,93.99008406458333,67.0,117.0
177,94.0357189875,94.29563963541666,67.0,119.0
178,94.35317932083333,94.51984599583334,76.0,114.0
179,94.67063965416666,94.93452855625,76.0,116.0
180,95.30556032083334,95.66270319583333,76.0,117.0
181,95.62302065416667,95.97024289375,74.0,116.0
182,95.9404809875,96.24206830416666,72.0,114.0
183,96.25794132083334,96.50397307916667,69.0,113.0
184,96.57540165416667,96.86310008125,72.0,119.0
185,96.8928619875,97.166671525,74.0,114.0
186,97.21032232083333,97.595242975,69.0,113.0
187,97.8452429875,98.20635411666666,72.0,116.0
188,115.62302165416666,115.77976769375,64.0,114.0
189,115.9404819875,116.1785772375,64.0,114.0
190,116.25794232083334,116.51389471458333,67.0,113.0
191,116.57540265416667,116.84921219166667,69.0,116.0
192,116.8928629875,117.09921220416666,67.0,114.0
193,117.21032332083334,117.41468841041666,67.0,110.0
194,117.52778365416667,117.7500058875,67.0,113.0
195,117.8452439875,118.11111701666667,67.0,116.0
196,118.16270432083333,118.43452973125,64.0,110.0
197,118.48016465416667,118.76389482708333,67.0,117.0
198,119.43254565416666,119.61111709166667,64.0,116.0
199,119.7500059875,119.93651393333333,64.0,114.0
200,120.06746632083333,120.22024410625,67.0,116.0
201,120.38492665416666,120.54960920208333,71.0,119.0
202,121.01984732083334,121.18056161458333,69.0,117.0
203,121.33730765416666,121.5357203625,67.0,114.0
204,121.6547679875,121.92460927083333,64.0,116.0
205,121.97222832083334,122.23016484166666,62.0,114.0
206,122.28968865416667,122.57738708125,64.0,116.0
207,123.24206965416667,123.41865696458333,64.0,117.0
208,123.5595299875,123.785720475,64.0,116.0
209,123.87699032083333,124.10516493541667,62.0,110.0
210,124.19445065416667,124.4642919375,60.0,116.0
211,124.5119109875,124.84921259166667,60.0,114.0
212,124.82937132083333,124.9642919625,57.0,110.0
213,125.14683165416666,125.70833961875,72.0,110.0
214,125.78175232083333,126.06349836666666,69.0,114.0
215,126.09921265416666,126.51389521458333,67.0,116.0
216,126.4166729875,126.7023872875,69.0,108.0
217,126.73413332083334,127.0595301625,67.0,107.0
218,127.05159365416667,127.31945081041667,64.0,116.0
219,127.68651432083333,127.97818100208333,64.0,117.0
220,128.00397465416665,128.29564133541666,62.0,107.0
221,128.3214349875,128.63492706666668,60.0,116.0
222,128.63889532083334,128.91468898541666,57.0,110.0
223,128.95635565416666,129.20635566666667,60.0,116.0
224,129.2738159875,129.50199060208334,62.0,114.0
225,129.59127632083334,129.82937157083333,64.0,119.0
226,129.90873665416666,130.30159381666667,62.0,117.0
227,130.2261969875,130.49802239791666,60.0,116.0
228,131.1785779875,131.44841927083334,64.0,116.0
229,131.49603832083332,131.75992722291667,67.0,114.0
230,131.81349865416666,132.02183199791668,69.0,117.0
231,132.1309589875,132.2857209,69.0,110.0
232,132.44841932083332,132.61905425,69.0,114.0
233,132.76587965416667,133.0119114125,69.0,116.0
234,133.0833399875,133.357149525,71.0,113.0
235,133.40080032083333,133.66865747708334,69.0,116.0
236,133.71826065416667,134.08135591041668,67.0,119.0
237,134.9881019875,135.24802263541667,67.0,119.0
238,135.30556232083333,135.57341947708332,69.0,116.0
239,135.62302265416668,135.80754647291667,72.0,117.0
240,135.9404829875,136.09127664583332,72.0,116.0
241,136.25794332083333,136.43651475833335,72.0,114.0
242,136.57540365416668,136.88294335208334,72.0,117.0
243,136.8928639875,137.04961002708333,69.0,117.0
244,137.21032432083334,137.49008623958332,79.0,114.0
245,137.52778465416665,137.78373704791667,76.0,119.0
246,138.48016565416665,138.77183233541666,76.0,117.0
247,138.7976259875,139.10516568541667,74.0,113.0
248,139.11508632083334,139.35318157083333,72.0,116.0
249,139.43254665416666,139.79564191041666,74.0,114.0
250,140.38492765416666,140.64484830208332,76.0,119.0
251,140.7023879875,140.96826101666667,74.0,116.0
252,141.01984832083332,141.2500070625,72.0,113.0
253,141.33730865416666,141.63691184375,74.0,117.0
254,142.28968965416666,142.57937220833333,76.0,116.0
255,142.6071499875,142.92659444791667,74.0,113.0
256,142.92461032083332,143.1547690625,72.0,116.0
257,143.24207065416667,143.404769075,74.0,116.0
258,143.5595309875,143.69643575625,74.0,117.0
259,143.87699132083333,144.0119119625,74.0,117.0
260,144.19445165416667,144.42064214166666,74.0,119.0
261,144.51191198749999,144.73215009375,72.0,116.0
262,144.82937232083333,145.06945169791666,81.0,113.0
263,145.14683265416667,145.36111837916667,79.0,117.0
264,148.00397565416665,148.28968995416668,74.0,120.0
265,148.3214359875,148.56349949166668,72.0,114.0
266,148.63889632083334,148.880959825,74.0,117.0
267,148.95635665416665,149.26786460625,79.0,117.0
268,149.90873765416666,150.23215036875,74.0,120.0
269,150.2261979875,150.452388475,72.0,114.0
270,150.54365832083334,150.79961071458334,74.0,107.0
271,150.86111865416666,151.16469009791666,79.0,114.0
272,151.81349965416666,152.10913458958333,74.0,116.0
273,152.1309599875,152.37699174583332,72.0,114.0
274,152.44842032083332,152.70437271458334,74.0,113.0
275,152.76588065416666,153.06151558958334,79.0,116.0
276,153.0833409875,153.24008702708332,79.0,110.0
277,153.40080132083332,153.56349974166667,79.0,114.0
278,153.71826165416667,154.0000077,79.0,117.0
279,154.0357219875,154.31746803333334,76.0,114.0
280,154.35318232083333,154.63294423958334,74.0,116.0
281,154.67064265416667,154.96032520833333,76.0,117.0
282,155.62302365416667,155.87699192083332,76.0,119.0
283,155.9404839875,156.18453161875,74.0,113.0
284,156.25794432083333,156.5595316375,72.0,116.0
285,156.57540465416668,157.02580150208334,69.0,119.0
286,157.52778565416668,157.88691265625,76.0,119.0
287,157.8452459875,158.1309602875,74.0,116.0
288,158.16270632083334,158.46826189166666,72.0,114.0
289,158.48016665416665,158.75199206458333,67.0,117.0
290,159.43254765416665,159.71429369999998,67.0,117.0
291,159.7500079875,159.94643656875,69.0,116.0
292,160.06746832083334,160.34127785833334,72.0,116.0
293,160.38492865416666,160.60119850625,69.0,120.0
294,160.7023889875,160.8571509,69.0,117.0
295,161.01984932083334,161.1785794875,69.0,117.0
296,161.33730965416666,161.45040489791666,79.0,119.0
297,161.6547699875,161.90675412708333,79.0,110.0
298,161.97223032083332,162.10516683541667,74.0,114.0
299,162.1309604875,162.25794462083334,72.0,104.0
300,162.28969065416666,162.52381765,74.0,117.0
301,163.24207165416666,163.52778595416666,74.0,120.0
302,163.5595319875,163.80159549166666,72.0,114.0
303,163.87699232083332,164.119055825,74.0,117.0
304,164.19445265416667,164.50596060625,79.0,117.0
305,165.14683365416667,165.47024636875,74.0,120.0
306,165.46429398749999,165.690484475,72.0,114.0
307,165.78175432083333,166.03770671458332,74.0,107.0
308,166.09921465416667,166.40278609791667,79.0,114.0
309,167.05159565416668,167.34723058958332,74.0,116.0
310,167.3690559875,167.61508774583334,72.0,114.0
311,167.68651632083333,167.94246871458333,74.0,113.0
312,168.00397665416668,168.29961158958332,79.0,116.0
313,168.3214369875,168.47818302708333,79.0,110.0
314,168.63889732083334,168.80159574166666,79.0,114.0
315,168.95635765416665,169.2381037,79.0,117.0
316,169.2738179875,169.55556403333333,76.0,114.0
317,169.59127832083334,169.87104023958332,74.0,116.0
318,169.90873865416665,170.19842120833334,76.0,117.0
319,170.86111965416666,171.11508792083333,76.0,119.0
320,171.1785799875,171.42262761875,74.0,113.0
321,171.49604032083334,171.7976276375,72.0,116.0
322,171.81350065416666,172.26389750208332,69.0,119.0
323,172.76588165416666,173.12500865625,76.0,119.0
324,173.0833419875,173.3690562875,74.0,116.0
325,173.40080232083332,173.70635789166667,72.0,114.0
326,173.71826265416667,173.99008806458332,67.0,117.0
327,174.0357229875,174.29564363541667,67.0,119.0
328,174.35318332083332,174.51984999583334,76.0,114.0
329,174.67064365416667,174.93453255625,76.0,116.0
330,175.30556432083333,175.66270719583332,76.0,117.0
331,175.62302465416667,175.97024689375,74.0,116.0
332,175.94048498749999,176.24207230416667,72.0,114.0
333,176.25794532083333,176.50397707916667,69.0,113.0
334,176.57540565416667,176.86310408125,72.0,119.0
335,176.8928659875,177.166675525,74.0,114.0
336,177.21032632083333,177.595246975,69.0,113.0
337,177.8452469875,178.20635811666668,72.0,116.0
338,181.33731065416666,181.57342177708333,72.0,116.0
339,181.6547709875,181.81945353541667,72.0,113.0
340,181.97223132083334,182.14485037708334,72.0,113.0
341,182.28969165416666,182.69246945208334,72.0,116.0
342,182.92461232083332,183.09326312291665,69.0,110.0
343,183.24207265416666,183.49604092083334,76.0,117.0
344,183.5595329875,183.78770760208334,74.0,114.0
345,183.87699332083332,184.08135841041667,72.0,110.0
346,184.19445365416667,184.54167589375,74.0,117.0
347,185.14683465416667,185.26985053333334,71.0,116.0
348,185.4642949875,185.60516801041666,71.0,114.0
349,185.78175532083333,185.98413628333333,71.0,114.0
350,186.09921565416667,186.30556487083334,71.0,119.0
351,186.73413632083333,186.95635855416666,67.0,110.0
352,187.05159665416667,187.28770777708334,74.0,102.0
353,187.3690569875,187.62302525416666,72.0,107.0
354,187.68651732083333,187.85913637708333,71.0,102.0
355,188.00397765416668,188.24604115833333,72.0,114.0
356,188.95635865416668,189.23215231875,76.0,114.0
357,189.2738189875,189.50993011041666,74.0,113.0
358,189.59127932083334,189.76191425,72.0,113.0
359,189.90873965416665,190.12699363333334,69.0,114.0
360,190.54366032083334,190.76389842708332,72.0,113.0
361,190.86112065416665,191.10120003125,76.0,110.0
362,191.1785809875,191.5595333875,74.0,110.0
363,191.49604132083334,191.81548578125,72.0,113.0
364,191.81350165416666,192.10913658958333,69.0,113.0
365,192.44842232083334,192.64088264791667,69.0,114.0
366,192.76588265416666,193.01588266666667,76.0,117.0
367,193.0833429875,193.29167633125,74.0,114.0
368,193.40080332083332,193.57342237708332,72.0,113.0
369,193.71826365416666,193.90080334583334,74.0,117.0
370,194.0357239875,194.27183511041667,74.0,114.0
371,194.35318432083332,194.53770813958334,81.0,116.0
372,194.67064465416667,194.91866053958333,81.0,116.0
373,194.9881049875,195.30556532083332,79.0,117.0
374,195.62302565416667,195.90873995416666,75.0,120.0
375,195.9404859875,196.18254949166666,73.0,114.0
376,196.25794632083333,196.500009825,75.0,117.0
377,196.57540665416667,196.88691460625,80.0,117.0
378,197.52778765416667,197.85120036875,75.0,120.0
379,197.8452479875,198.071438475,73.0,114.0
380,198.16270832083333,198.41866071458332,75.0,107.0
381,198.48016865416668,198.78374009791668,80.0,114.0
382,199.43254965416668,199.72818458958332,75.0,116.0
383,199.7500099875,199.99604174583334,73.0,114.0
384,200.06747032083334,200.32342271458333,75.0,113.0
385,200.38493065416665,200.68056558958332,80.0,116.0
386,200.7023909875,200.85913702708334,80.0,110.0
387,201.01985132083334,201.18254974166666,80.0,114.0
388,201.33731165416665,201.61905769999998,80.0,117.0
389,201.6547719875,201.93651803333333,77.0,114.0
390,201.97223232083334,202.25199423958333,75.0,116.0
391,202.28969265416666,202.57937520833332,77.0,117.0
392,203.24207365416666,203.49604192083333,77.0,119.0
393,203.5595339875,203.80358161875,75.0,113.0
394,203.87699432083332,204.1785816375,73.0,116.0
395,204.19445465416666,204.64485150208333,70.0,119.0
396,205.14683565416667,205.50596265625,77.0,119.0
397,205.4642959875,205.7500102875,75.0,116.0
398,205.78175632083332,206.08731189166667,73.0,114.0
399,206.09921665416667,206.37104206458332,68.0,117.0
400,207.05159765416667,207.3333437,68.0,117.0
401,207.36905798749999,207.56548656875,70.0,116.0
402,207.68651832083333,207.96032785833333,73.0,116.0
403,208.00397865416667,208.22024850625,70.0,120.0
404,208.3214389875,208.4762009,70.0,117.0
405,208.63889932083333,208.7976294875,70.0,117.0
406,208.95635965416668,209.06945489791667,80.0,119.0
407,209.2738199875,209.52580412708332,80.0,110.0
408,209.59128032083333,209.72421683541666,75.0,114.0
409,209.7500104875,209.87699462083333,73.0,104.0
410,209.90874065416668,210.14286765,75.0,117.0
411,210.86112165416665,211.14683595416668,75.0,120.0
412,211.1785819875,211.42064549166668,73.0,114.0
413,211.49604232083334,211.738105825,75.0,117.0
414,211.81350265416665,212.12501060625,80.0,117.0
415,212.76588365416666,213.08929636874998,75.0,120.0
416,213.0833439875,213.309534475,73.0,114.0
417,213.40080432083334,213.65675671458334,75.0,107.0
418,213.71826465416666,214.02183609791666,80.0,114.0
419,214.67064565416666,214.96628058958333,75.0,116.0
420,214.9881059875,215.23413774583332,73.0,114.0
421,215.30556632083332,215.56151871458334,75.0,113.0
422,215.62302665416667,215.91866158958334,80.0,116.0
423,215.9404869875,216.09723302708332,80.0,110.0
424,216.25794732083332,216.42064574166668,80.0,114.0
425,216.57540765416667,216.8571537,80.0,117.0
426,216.8928679875,217.17461403333334,77.0,114.0
427,217.21032832083333,217.49009023958334,75.0,116.0
428,217.52778865416667,217.81747120833333,77.0,117.0
429,218.48016965416667,218.73413792083332,77.0,119.0
430,218.7976299875,219.04167761875,75.0,113.0
431,219.11509032083333,219.4166776375,73.0,116.0
432,219.43255065416668,219.88294750208334,70.0,119.0
433,220.38493165416668,220.74405865625,77.0,119.0
434,220.7023919875,220.9881062875,75.0,116.0
435,221.01985232083334,221.32540789166666,73.0,114.0
436,221.33731265416665,221.60913806458333,68.0,117.0
437,221.6547729875,221.91469363541665,68.0,119.0
438,221.97223332083334,222.13889999583333,77.0,114.0
439,222.28969365416665,222.55358255625,77.0,116.0
440,222.92461432083334,223.28175719583334,77.0,117.0
441,223.24207465416666,223.58929689375,75.0,116.0
442,223.5595349875,223.86112230416666,73.0,114.0
443,223.87699532083334,224.12302707916666,70.0,113.0
444,224.19445565416666,224.48215408125,73.0,119.0
445,224.5119159875,224.785725525,75.0,114.0
446,224.82937632083332,225.214296975,70.0,113.0
447,225.4642969875,225.82540811666667,73.0,116.0
