,start,end,pitch,velocity
0,6.099206654166666,6.712301922916667,72.0,88.0
1,6.099206654166666,6.76785748125,67.0,91.0
2,6.099206654166666,6.777778116666666,64.0,88.0
3,7.051587654166666,7.640873397916667,62.0,91.0
4,7.051587654166666,7.670635304166667,67.0,89.0
5,7.686508320833333,8.378968672916667,60.0,78.0
6,8.003968654166666,8.611111541666666,72.0,91.0
7,8.003968654166666,8.712302022916667,64.0,90.0
8,8.638889320833334,9.18452426875,60.0,80.0
9,6.734127320833333,9.25595284375,55.0,64.0
10,8.956349654166667,9.277778241666667,67.0,98.0
11,6.099206654166666,9.378968722916667,48.0,91.0
12,8.956349654166667,9.426587772916667,62.0,94.0
13,9.2738099875,9.611111591666667,64.0,83.0
14,9.591270320833333,9.855159222916667,67.0,76.0
15,9.908730654166666,10.615079895833333,64.0,87.0
16,9.908730654166666,10.793651333333333,71.0,87.0
17,10.543651320833334,11.13690531875,59.0,80.0
18,10.861111654166667,11.775794239583334,67.0,108.0
19,11.813492654166666,12.450397447916666,71.0,96.0
20,11.813492654166666,12.492064116666667,64.0,90.0
21,11.496032320833333,12.498016497916666,59.0,78.0
22,12.448413320833334,13.045635572916666,67.0,107.0
23,12.765873654166667,13.1309530375,59.0,98.0
24,9.908730654166666,13.2023816125,52.0,89.0
25,13.0833339875,13.4404768625,64.0,104.0
26,13.400794320833333,13.76785783125,67.0,108.0
27,14.353175320833333,14.753968991666667,65.0,79.0
28,14.0357149875,15.097222977083334,60.0,80.0
29,13.718254654166666,15.188492822916666,53.0,92.0
30,14.9880959875,15.281746795833334,65.0,76.0
31,14.670635654166666,15.335318227083333,72.0,104.0
32,15.305556320833333,15.67261983125,69.0,84.0
33,15.623016654166667,15.942461114583333,71.0,84.0
34,15.623016654166667,16.547619875,62.0,86.0
35,16.575397654166668,16.9523818,67.0,90.0
36,16.575397654166668,17.00000085,59.0,89.0
37,15.623016654166667,17.023810375,43.0,86.0
38,15.9404769875,17.043651645833332,50.0,74.0
39,16.25793732083333,17.240080227083332,55.0,77.0
40,16.8928579875,17.444445316666666,62.0,78.0
41,17.210318320833334,17.605159610416667,67.0,86.0
42,17.527778654166667,18.319445360416665,64.0,88.0
43,18.480159654166666,18.847223164583333,62.0,87.0
44,18.7976199875,19.188493022916667,67.0,83.0
45,19.2738104875,19.341270808333334,67.0,38.0
46,19.115080320833332,20.432540704166666,64.0,83.0
47,19.432540654166665,20.448413720833333,72.0,86.0
48,18.162699320833333,20.51984229583333,60.0,81.0
49,17.8452389875,20.521826422916668,55.0,72.0
50,17.527778654166667,20.593254997916667,48.0,87.0
51,21.337302654166667,22.170636029166666,67.0,87.0
52,21.337302654166667,22.24404873125,62.0,86.0
53,21.972223320833333,22.823413839583335,60.0,77.0
54,21.337302654166667,22.91071543125,48.0,83.0
55,22.289683654166666,22.930556702083333,64.0,87.0
56,21.6547629875,23.287699577083334,55.0,65.0
57,22.924604320833332,23.894842464583334,67.0,84.0
58,22.924604320833332,23.896826591666667,62.0,84.0
59,23.876985320833334,24.498017097916666,59.0,72.0
60,23.5595249875,24.674604408333334,55.0,72.0
61,23.242064654166665,24.76785838125,47.0,83.0
62,24.194445654166667,24.781747270833332,67.0,91.0
63,24.194445654166667,24.829366320833334,62.0,91.0
64,25.146826654166667,25.805556845833333,69.0,88.0
65,25.146826654166667,25.853175895833335,60.0,84.0
66,25.781747320833333,26.53769973958333,57.0,77.0
67,25.146826654166667,26.63690609375,45.0,83.0
68,26.099207654166666,26.652779110416667,69.0,89.0
69,26.099207654166666,26.71428705,60.0,89.0
70,27.051588654166668,27.84722361458333,59.0,84.0
71,27.051588654166668,27.968255366666668,67.0,89.0
72,27.686509320833334,28.27976331875,55.0,81.0
73,28.003969654166667,28.329366495833334,62.0,113.0
74,27.051588654166668,28.37500141875,43.0,84.0
75,28.3214299875,28.89881096875,67.0,98.0
76,28.956350654166666,29.66666815,65.0,87.0
77,28.956350654166666,29.668652277083332,57.0,80.0
78,28.956350654166666,30.132938014583335,41.0,78.0
79,28.956350654166666,30.20833484375,53.0,78.0
80,29.908731654166665,30.371033264583332,57.0,91.0
81,29.908731654166665,30.791668206249998,65.0,91.0
82,30.861112654166668,31.543652370833332,67.0,91.0
83,30.861112654166668,31.547620625,62.0,89.0
84,30.861112654166668,31.759922222916668,52.0,86.0
85,31.813493654166667,32.52381115,60.0,85.0
86,31.813493654166667,32.73016036666667,69.0,88.0
87,31.813493654166667,32.77777941666667,57.0,79.0
88,32.765874654166666,33.960319158333334,65.0,87.0
89,32.765874654166666,34.05555725833333,62.0,86.0
90,32.765874654166666,34.261906474999996,50.0,84.0
91,33.71825565416667,34.26587472916667,57.0,82.0
92,34.0357159875,34.44841442083333,64.0,91.0
93,34.353176320833335,35.29960493958333,65.0,76.0
94,34.670636654166664,35.47817637708334,59.0,80.0
95,35.30555732083333,35.71031924583333,55.0,85.0
96,34.670636654166664,35.99206529166667,43.0,83.0
97,34.9880969875,36.057541485416664,50.0,71.0
98,35.62301765416667,36.5119065875,62.0,114.0
99,35.9404779875,36.59325579791667,55.0,86.0
100,36.57539865416667,37.109128839583335,60.0,89.0
101,36.57539865416667,37.347224089583335,64.0,88.0
102,37.527779654166665,37.87500189375,60.0,87.0
103,36.57539865416667,38.0000019,48.0,82.0
104,37.8452399875,38.212303497916665,62.0,87.0
105,37.210319320833335,38.543652720833336,55.0,69.0
106,38.16270032083333,38.6309543125,67.0,88.0
107,38.48016065416667,39.15079560833333,64.0,87.0
108,39.11508132083333,39.581351185416665,55.0,81.0
109,39.43254165416667,39.75992262291667,62.0,88.0
110,39.7500019875,40.04762105,64.0,84.0
111,38.48016065416667,40.37301789166666,47.0,77.0
112,40.067462320833336,40.38293852708333,67.0,76.0
113,40.384922654166665,41.071430625,67.0,81.0
114,40.384922654166665,41.12103380208333,60.0,84.0
115,41.33730365416667,41.900795745833335,60.0,90.0
116,41.33730365416667,42.21627195208333,67.0,89.0
117,40.384922654166665,42.265875129166666,45.0,81.0
118,42.28968465416666,42.950398972916666,59.0,84.0
119,42.28968465416666,43.08135136041667,67.0,82.0
120,42.92460532083334,43.56349424166667,64.0,87.0
121,42.28968465416666,43.6190498,43.0,81.0
122,43.242065654166666,43.751986314583334,55.0,102.0
123,43.5595259875,44.19444665416667,67.0,100.0
124,44.19444665416667,44.95833558125,65.0,86.0
125,44.19444665416667,44.97222447083333,57.0,85.0
126,45.146827654166664,45.615081645833335,57.0,91.0
127,45.146827654166664,46.04166896875,65.0,88.0
128,44.19444665416667,46.0952404,53.0,83.0
129,46.09920865416667,46.6547642375,59.0,88.0
130,46.09920865416667,47.01389123958333,67.0,91.0
131,46.09920865416667,47.05754203541667,52.0,84.0
132,47.05158965416667,47.795637310416666,60.0,88.0
133,47.05158965416667,48.05357383125,57.0,84.0
134,47.05158965416667,48.059526212499996,69.0,93.0
135,48.003970654166665,48.74801831041667,50.0,84.0
136,48.003970654166665,48.92262149375,65.0,91.0
137,48.003970654166665,48.944446891666665,62.0,84.0
138,48.95635165416667,49.555558033333334,43.0,86.0
139,48.95635165416667,49.75992312291667,59.0,87.0
140,48.95635165416667,49.91071678125,67.0,87.0
141,49.90873265416666,50.267859656249996,60.0,83.0
142,49.90873265416666,50.59920887916667,64.0,82.0
143,50.543653320833336,50.96627238958333,60.0,86.0
144,51.1785739875,51.357145425,60.0,91.0
145,50.861113654166665,51.390875585416666,67.0,104.0
146,50.2261929875,51.42262161875,55.0,64.0
147,50.861113654166665,51.462304160416664,62.0,98.0
148,49.90873265416666,51.490081939583334,48.0,84.0
149,51.49603432083333,51.793653383333336,64.0,86.0
150,51.81349465416667,52.460320083333336,69.0,88.0
151,51.81349465416667,52.486113735416666,60.0,89.0
152,52.448415320833334,52.886907406249996,57.0,87.0
153,53.0833359875,53.25793917083333,57.0,85.0
154,51.81349465416667,53.3690502875,45.0,85.0
155,52.76587565416666,53.388891558333334,60.0,108.0
156,52.76587565416666,53.68651062083333,69.0,107.0
157,53.718256654166666,53.9166693625,60.0,80.0
158,53.718256654166666,54.32341541458333,59.0,81.0
159,53.718256654166666,54.376986845833336,67.0,87.0
160,54.67063765416667,55.039685291666665,67.0,110.0
161,54.67063765416667,55.0833360875,59.0,116.0
162,53.718256654166666,55.097224977083336,40.0,87.0
163,54.35317732083333,55.232145618749996,52.0,85.0
164,54.9880979875,55.30357419375,64.0,102.0
165,55.305558320833335,55.690478975,67.0,98.0
166,55.623018654166664,56.214288525,41.0,88.0
167,55.623018654166664,56.26587582916667,57.0,91.0
168,55.623018654166664,56.4880980625,65.0,102.0
169,55.623018654166664,56.51587584166666,60.0,93.0
170,55.623018654166664,56.57539965416667,53.0,89.0
171,56.57539965416667,57.132939364583336,43.0,87.0
172,56.57539965416667,57.2261933375,67.0,92.0
173,56.57539965416667,57.24405048125,59.0,91.0
174,56.57539965416667,57.557542560416664,62.0,102.0
175,57.52778065416667,57.86309813125,60.0,88.0
176,57.52778065416667,58.21825687916667,64.0,93.0
177,57.52778065416667,58.234129895833334,67.0,94.0
178,58.162701320833335,58.69841563333333,60.0,86.0
179,57.8452409875,58.75793944583333,55.0,73.0
180,58.480161654166665,58.84920929166667,67.0,116.0
181,58.480161654166665,58.855161672916665,62.0,113.0
182,57.52778065416667,58.88690770625,48.0,88.0
183,58.7976219875,59.14087597291667,64.0,89.0
184,59.11508232083333,59.37301884166666,67.0,85.0
185,59.43254265416667,60.132939514583335,69.0,91.0
186,59.43254265416667,60.13690776875,60.0,91.0
187,59.43254265416667,60.56746334583333,53.0,86.0
188,60.38492365416666,60.944447491666665,60.0,110.0
189,60.38492365416666,61.06547924375,69.0,104.0
190,60.7023839875,61.1428602,53.0,88.0
191,59.43254265416667,61.14881258125,41.0,85.0
192,61.019844320833336,61.69841578333333,65.0,93.0
193,61.337304654166665,61.69841578333333,65.0,96.0
194,61.337304654166665,61.92262214375,69.0,91.0
195,61.337304654166665,61.98214595625,62.0,92.0
196,62.28968565416667,62.76587615416667,69.0,96.0
197,62.28968565416667,62.85119361875,62.0,107.0
198,62.28968565416667,62.8928602875,65.0,113.0
199,61.337304654166665,62.98214600625,50.0,84.0
200,63.24206665416666,63.718257154166665,41.0,88.0
201,63.24206665416666,63.9404793875,60.0,93.0
202,63.24206665416666,63.99603494583333,65.0,98.0
203,63.24206665416666,64.08928891875,69.0,96.0
204,64.19444765416667,64.72817783958334,42.0,93.0
205,64.19444765416667,64.93055880208334,69.0,86.0
206,64.19444765416667,65.04365404583334,66.0,109.0
207,64.19444765416667,65.05555880833333,62.0,91.0
208,65.14682865416667,65.89682869166667,67.0,96.0
209,65.14682865416667,65.91865408958333,59.0,88.0
210,65.14682865416667,65.93254297916667,62.0,110.0
211,65.78174932083333,66.16865410208334,55.0,92.0
212,66.09920965416667,66.29960648958333,67.0,85.0
213,66.09920965416667,66.57738428125,60.0,113.0
214,66.4166699875,66.75397159166667,55.0,107.0
215,65.14682865416667,66.76389222708333,43.0,89.0
216,65.4642889875,66.77778111666666,50.0,82.0
217,66.73413032083333,66.98413033333333,62.0,100.0
218,67.05159065416666,68.03968594166666,59.0,98.0
219,67.05159065416666,68.04563832291666,62.0,100.0
220,67.05159065416666,68.05754308541667,67.0,100.0
221,67.05159065416666,68.12500340625,55.0,94.0
222,67.05159065416666,68.13492404166666,43.0,90.0
223,68.95635265416666,69.42262251875,60.0,93.0
224,68.95635265416666,69.57143205,67.0,98.0
225,68.95635265416666,69.63690824375,64.0,108.0
226,69.59127332083334,70.05754318541666,55.0,87.0
227,69.90873365416667,70.35913050208333,67.0,107.0
228,69.90873365416667,70.452384475,60.0,104.0
229,68.95635265416666,70.52778130416667,48.0,96.0
230,69.90873365416667,70.5714321,64.0,110.0
231,70.2261939875,70.89881306875,55.0,85.0
232,70.86111465416667,71.45635277916666,67.0,104.0
233,70.86111465416667,71.5119083375,62.0,108.0
234,71.49603532083333,71.93849566041666,55.0,89.0
235,71.81349565416667,72.15873376666667,67.0,114.0
236,71.81349565416667,72.30555917083333,62.0,119.0
237,72.1309559875,72.452384575,64.0,88.0
238,72.44841632083333,72.66270204583333,67.0,87.0
239,70.86111465416667,72.73611474791666,47.0,87.0
240,72.76587665416666,73.4166703375,60.0,92.0
241,72.76587665416666,73.42460684583334,67.0,94.0
242,72.76587665416666,73.44246398958333,64.0,102.0
243,72.76587665416666,73.88889258333333,45.0,86.0
244,73.71825765416666,74.06746402083333,67.0,104.0
245,73.71825765416666,74.17262275625,60.0,107.0
246,73.71825765416666,74.17262275625,64.0,113.0
247,74.03571798749999,74.65278151041666,45.0,87.0
248,74.35317832083334,75.24008312708334,67.0,102.0
249,74.67063865416667,75.2738132875,59.0,91.0
250,74.67063865416667,75.31547995625,64.0,98.0
251,75.14682915416667,75.6071466375,55.0,91.0
252,74.67063865416667,75.98214665625,43.0,88.0
253,75.62301965416667,76.26389270208334,59.0,116.0
254,75.62301965416667,76.28770222708333,67.0,108.0
255,75.9404799875,76.54365462083334,55.0,98.0
256,76.25794032083333,76.56349589166666,64.0,96.0
257,76.57540065416667,76.90873400416666,60.0,94.0
258,76.57540065416667,77.19246417708334,69.0,104.0
259,77.21032132083333,77.65079753333333,60.0,87.0
260,77.52778165416666,78.04167056874999,74.0,107.0
261,76.57540065416667,78.06349596666666,53.0,88.0
262,77.52778165416666,78.08532136458334,65.0,114.0
263,78.16270232083333,78.42063884166667,69.0,94.0
264,77.8452419875,78.49801979791667,60.0,88.0
265,78.48016265416666,79.12103570208333,71.0,108.0
266,78.48016265416666,79.17460713333334,67.0,92.0
267,79.11508332083334,79.75595636875,60.0,86.0
268,79.43254365416666,79.79167065625,64.0,110.0
269,78.48016265416666,79.88492462916666,52.0,88.0
270,79.7500039875,80.04960717708333,67.0,102.0
271,80.06746432083334,80.37301989166667,71.0,84.0
272,80.38492465416667,80.96032150833334,69.0,104.0
273,80.38492465416667,80.97024214375,62.0,90.0
274,80.38492465416667,80.97024214375,65.0,94.0
275,80.38492465416667,81.71230567291667,50.0,86.0
276,81.33730565416667,81.7500040875,62.0,113.0
277,81.33730565416667,81.76190885,65.0,116.0
278,81.33730565416667,81.76786123125,69.0,107.0
279,81.6547659875,81.93452790625,54.0,103.0
280,81.97222632083333,82.36706761041667,66.0,109.0
281,82.92460732083333,83.05357558125,62.0,104.0
282,82.92460732083333,83.1071470125,59.0,93.0
283,82.76587715416666,83.27182956041666,55.0,104.0
284,83.0833374875,83.47817877708333,62.0,93.0
285,83.24206765416666,83.66865497708334,67.0,119.0
286,82.28968665416667,83.79365498333333,43.0,94.0
287,82.6071469875,83.82936927083334,50.0,87.0
288,83.87698832083333,83.97817880208333,62.0,92.0
289,83.5595279875,84.17460738333334,55.0,113.0
290,84.19444865416666,84.72421058541667,72.0,104.0
291,84.19444865416666,84.976194725,64.0,102.0
292,85.14682965416667,85.48016300416667,67.0,102.0
293,85.14682965416667,85.62302015416667,62.0,107.0
294,84.19444865416666,85.74603603333333,48.0,91.0
295,85.4642899875,85.9047662,64.0,81.0
296,85.78175032083334,85.94841699583333,67.0,80.0
297,84.82936932083334,86.15079795833333,55.0,79.0
298,86.09921065416667,86.43254400416667,69.0,88.0
299,86.09921065416667,86.64682972916667,71.0,90.0
300,86.09921065416667,86.80952815,62.0,94.0
301,86.73413132083333,87.48016310416666,55.0,88.0
302,87.05159165416667,87.5119091375,67.0,114.0
303,86.09921065416667,87.59921072916667,47.0,85.0
304,87.05159165416667,87.70436946458334,62.0,113.0
305,87.68651232083333,87.96825836666666,64.0,87.0
306,88.00397265416666,89.02778222916666,69.0,94.0
307,88.00397265416666,89.08730604166666,60.0,98.0
308,88.00397265416666,89.119052075,64.0,89.0
309,88.95635365416666,89.33532192708333,57.0,110.0
310,88.00397265416666,89.50595685625,45.0,88.0
311,89.2738139875,89.55556003333334,60.0,92.0
312,89.59127432083334,89.84921084166666,64.0,96.0
313,88.63889332083333,89.96032195833334,52.0,85.0
314,89.90873465416666,90.84325851041666,67.0,98.0
315,89.90873465416666,90.97222677083333,62.0,94.0
316,90.38492515416667,91.12103630208333,52.0,81.0
317,89.90873465416666,91.19444900416667,43.0,84.0
318,90.86111565416667,91.31944901041666,55.0,92.0
319,91.1785759875,91.43056012708334,62.0,108.0
320,91.49603632083333,91.80556014583333,64.0,98.0
321,91.81349665416667,92.62103637708333,60.0,90.0
322,91.81349665416667,92.63889352083334,65.0,92.0
323,92.76587765416667,92.84722686458333,66.0,95.0
324,91.81349665416667,92.89683004166666,53.0,85.0
325,92.76587765416667,93.22421101041667,65.0,102.0
326,92.76587765416667,93.24405228124999,60.0,107.0
327,93.40079832083333,93.4642903875,60.0,83.0
328,93.40079832083333,93.66667135,65.0,94.0
329,93.0833379875,93.690480875,53.0,104.0
330,93.71825865416666,94.2738142375,52.0,85.0
331,93.71825865416666,94.43056027708333,59.0,86.0
332,93.71825865416666,94.43056027708333,64.0,88.0
333,93.71825865416666,94.44048091249999,67.0,86.0
334,94.35317932083333,94.77976664375,52.0,91.0
335,94.67063965416666,95.00000475,59.0,108.0
336,94.67063965416666,95.071433325,64.0,110.0
337,94.67063965416666,95.08135396041666,67.0,102.0
338,95.30556032083334,95.5833381125,67.0,100.0
339,94.9880999875,95.58730636666667,52.0,110.0
340,95.30556032083334,95.66270319583333,64.0,98.0
341,95.62302065416667,96.15079845833333,69.0,93.0
342,95.62302065416667,96.17063972916667,65.0,96.0
343,95.62302065416667,96.20833814375,50.0,90.0
344,95.62302065416667,96.214290525,62.0,91.0
345,96.57540165416667,97.01786199375,43.0,88.0
346,96.57540165416667,97.07540167916666,67.0,93.0
347,96.57540165416667,97.22222708333334,59.0,92.0
348,96.57540165416667,97.5119096375,62.0,108.0
349,97.52778265416667,97.73016361666667,60.0,86.0
350,97.21032232083333,98.5357192125,67.0,90.0
351,97.52778265416667,98.54563984791666,64.0,88.0
352,98.7976239875,99.06349701666666,65.0,104.0
353,98.48016365416666,99.89881451875,60.0,94.0
354,99.43254465416666,99.97421134791666,64.0,90.0
355,98.16270332083333,99.98611611041666,55.0,70.0
356,97.52778265416667,99.99802087291667,48.0,88.0
357,99.11508432083333,100.02183039791666,67.0,89.0
358,101.33730665416667,101.65079873333333,60.0,88.0
359,101.33730665416667,102.02183049791667,69.0,91.0
360,102.28968765416667,103.1309575375,65.0,91.0
361,102.92460832083333,103.25397341666667,69.0,81.0
362,101.97222732083333,103.64881470625,60.0,83.0
363,103.24206865416667,104.0119099625,72.0,88.0
364,103.24206865416667,104.13690996875,65.0,87.0
365,104.19444965416666,104.54564014791667,69.0,107.0
366,101.33730665416667,104.6309576125,53.0,87.0
367,103.87698932083333,104.74008460208333,60.0,83.0
368,104.5119099875,105.12698938333334,72.0,100.0
369,105.14683065416666,105.87103703958333,64.0,88.0
370,105.14683065416666,105.92262434375,71.0,91.0
371,106.09921165416667,106.67064025416667,64.0,104.0
372,106.09921165416667,106.95833868125,71.0,96.0
373,105.14683065416666,107.02778312916666,52.0,83.0
374,107.05159265416667,107.69246570208334,60.0,87.0
375,107.05159265416667,107.71230697291666,69.0,88.0
376,107.05159265416667,107.78968792916666,64.0,88.0
377,107.05159265416667,108.05159270416667,57.0,84.0
378,108.00397365416667,108.47421177291666,64.0,116.0
379,108.00397365416667,108.49008478958334,69.0,110.0
380,108.63889432083333,108.97024354375,64.0,88.0
381,108.3214339875,108.976195925,57.0,104.0
382,108.63889432083333,109.55159277916667,69.0,104.0
383,108.95635465416666,109.61111659166667,62.0,93.0
384,108.95635465416666,109.62103722708333,65.0,91.0
385,108.95635465416666,110.0000055,50.0,87.0
386,109.90873565416666,110.47818012708333,62.0,108.0
387,109.90873565416666,110.59722775208333,69.0,102.0
388,110.54365632083334,110.63492616666666,64.0,87.0
389,110.2261959875,110.86508490833333,50.0,100.0
390,110.86111665416666,111.66270399583333,60.0,107.0
391,110.86111665416666,111.68849764791666,65.0,100.0
392,110.86111665416666,111.74603733333333,41.0,87.0
393,111.81349765416667,112.37698974583333,42.0,84.0
394,111.81349765416667,112.70833896875,62.0,93.0
395,111.81349765416667,112.71825960416666,66.0,113.0
396,112.76587865416667,113.833339025,59.0,107.0
397,112.76587865416667,113.86310093125,67.0,107.0
398,112.76587865416667,114.3452438125,43.0,87.0
399,113.71825965416667,114.44841842083333,55.0,102.0
400,113.40079932083333,114.60318033333333,50.0,79.0
401,114.0357199875,114.64881525625,60.0,93.0
402,114.67064065416666,115.32937084583334,55.0,87.0
403,114.67064065416666,115.73214864375,59.0,91.0
404,114.67064065416666,115.74206927916667,67.0,89.0
405,114.35318032083333,115.77778356666667,62.0,87.0
406,114.67064065416666,115.91468833541667,43.0,87.0
407,116.57540265416667,117.10913283958334,60.0,89.0
408,116.57540265416667,117.34722808958334,64.0,88.0
409,117.52778365416667,117.87500589375,60.0,87.0
410,116.57540265416667,118.0000059,48.0,82.0
411,117.8452439875,118.21230749791667,62.0,87.0
412,117.21032332083334,118.54365672083333,55.0,69.0
413,118.16270432083333,118.6309583125,67.0,88.0
414,118.48016465416667,119.15079960833333,64.0,87.0
415,119.11508532083333,119.58135518541667,55.0,81.0
416,119.43254565416666,119.75992662291667,62.0,88.0
417,119.7500059875,120.04762505,64.0,84.0
418,118.48016465416667,120.37302189166667,47.0,77.0
419,120.06746632083333,120.38294252708333,67.0,76.0
420,120.38492665416666,121.071434625,67.0,81.0
421,120.38492665416666,121.12103780208334,60.0,84.0
422,121.33730765416666,121.90079974583334,60.0,90.0
423,121.33730765416666,122.21627595208334,67.0,89.0
424,120.38492665416666,122.26587912916666,45.0,81.0
425,122.28968865416667,122.95040297291666,59.0,84.0
426,122.28968865416667,123.08135536041667,67.0,82.0
427,122.92460932083333,123.56349824166666,64.0,87.0
428,122.28968865416667,123.6190538,43.0,81.0
429,123.24206965416667,123.75199031458334,55.0,102.0
430,123.5595299875,124.19445065416667,67.0,100.0
431,124.19445065416667,124.95833958125,65.0,86.0
432,124.19445065416667,124.97222847083333,57.0,85.0
433,125.14683165416666,125.61508564583333,57.0,91.0
434,125.14683165416666,126.04167296874999,65.0,88.0
435,124.19445065416667,126.0952444,53.0,83.0
436,126.09921265416666,126.6547682375,59.0,88.0
437,126.09921265416666,127.01389523958333,67.0,91.0
438,126.09921265416666,127.05754603541666,52.0,84.0
439,127.05159365416667,127.79564131041667,60.0,88.0
440,127.05159365416667,128.05357783125,57.0,84.0
441,127.05159365416667,128.0595302125,69.0,93.0
442,128.00397465416665,128.74802231041667,50.0,84.0
443,128.00397465416665,128.92262549375,65.0,91.0
444,128.00397465416665,128.94445089166666,62.0,84.0
445,128.95635565416666,129.55556203333333,43.0,86.0
446,128.95635565416666,129.75992712291668,59.0,87.0
447,128.95635565416666,129.91072078125,67.0,87.0
448,129.90873665416666,130.26786365625,60.0,83.0
449,129.90873665416666,130.59921287916666,64.0,82.0
450,130.54365732083332,130.96627638958333,60.0,86.0
451,131.1785779875,131.357149425,60.0,91.0
452,130.86111765416666,131.39087958541666,67.0,104.0
453,130.2261969875,131.42262561875,55.0,64.0
454,130.86111765416666,131.46230816041665,62.0,98.0
455,129.90873665416666,131.49008593958334,48.0,84.0
456,131.49603832083332,131.79365738333334,64.0,86.0
457,131.81349865416666,132.46032408333332,69.0,88.0
458,131.81349865416666,132.48611773541666,60.0,89.0
459,132.44841932083332,132.88691140625,57.0,87.0
460,133.0833399875,133.25794317083333,57.0,85.0
461,131.81349865416666,133.3690542875,45.0,85.0
462,132.76587965416667,133.38889555833333,60.0,108.0
463,132.76587965416667,133.68651462083332,69.0,107.0
464,133.71826065416667,133.9166733625,60.0,80.0
465,133.71826065416667,134.32341941458333,59.0,81.0
466,133.71826065416667,134.37699084583332,67.0,87.0
467,134.67064165416667,135.03968929166666,67.0,110.0
468,134.67064165416667,135.0833400875,59.0,116.0
469,133.71826065416667,135.09722897708332,40.0,87.0
470,134.35318132083333,135.23214961875,52.0,85.0
471,134.9881019875,135.30357819374998,64.0,102.0
472,135.30556232083333,135.690482975,67.0,98.0
473,135.62302265416668,136.214292525,41.0,88.0
474,135.62302265416668,136.26587982916666,57.0,91.0
475,135.62302265416668,136.4881020625,65.0,102.0
476,135.62302265416668,136.51587984166667,60.0,93.0
477,135.62302265416668,136.57540365416668,53.0,89.0
478,136.57540365416668,137.13294336458333,43.0,87.0
479,136.57540365416668,137.2261973375,67.0,92.0
480,136.57540365416668,137.24405448125,59.0,91.0
481,136.57540365416668,137.55754656041665,62.0,102.0
482,137.52778465416665,137.86310213125,60.0,88.0
483,137.52778465416665,138.21826087916668,64.0,93.0
484,137.52778465416665,138.23413389583334,67.0,94.0
485,138.16270532083334,138.69841963333334,60.0,86.0
486,137.8452449875,138.75794344583332,55.0,73.0
487,138.48016565416665,138.84921329166667,67.0,116.0
488,138.48016565416665,138.85516567291666,62.0,113.0
489,137.52778465416665,138.88691170625,48.0,88.0
490,138.7976259875,139.14087997291668,64.0,89.0
491,139.11508632083334,139.37302284166665,67.0,85.0
492,139.43254665416666,140.13294351458333,69.0,91.0
493,139.43254665416666,140.13691176875,60.0,91.0
494,139.43254665416666,140.56746734583334,53.0,86.0
495,140.38492765416666,140.94445149166665,60.0,110.0
496,140.38492765416666,141.06548324375,69.0,104.0
497,140.7023879875,141.1428642,53.0,88.0
498,139.43254665416666,141.14881658125,41.0,85.0
499,141.01984832083332,141.69841978333332,65.0,93.0
500,141.33730865416666,141.69841978333332,65.0,96.0
501,141.33730865416666,141.92262614375,69.0,91.0
502,141.33730865416666,141.98214995625,62.0,92.0
503,142.28968965416666,142.76588015416667,69.0,96.0
504,142.28968965416666,142.85119761875,62.0,107.0
505,142.28968965416666,142.8928642875,65.0,113.0
506,141.33730865416666,142.98215000625,50.0,84.0
507,143.24207065416667,143.71826115416667,41.0,88.0
508,143.24207065416667,143.9404833875,60.0,93.0
509,143.24207065416667,143.99603894583333,65.0,98.0
510,143.24207065416667,144.08929291875,69.0,96.0
511,144.19445165416667,144.72818183958333,42.0,93.0
512,144.19445165416667,144.93056280208333,69.0,86.0
513,144.19445165416667,145.04365804583333,66.0,109.0
514,144.19445165416667,145.05556280833332,62.0,91.0
515,145.14683265416667,145.89683269166667,67.0,96.0
516,145.14683265416667,145.91865808958335,59.0,88.0
517,145.14683265416667,145.93254697916666,62.0,110.0
518,145.78175332083333,146.16865810208333,55.0,92.0
519,146.09921365416668,146.29961048958333,67.0,85.0
520,146.09921365416668,146.57738828125,60.0,113.0
521,146.4166739875,146.75397559166666,55.0,107.0
522,145.14683265416667,146.76389622708334,43.0,89.0
523,145.4642929875,146.77778511666668,50.0,82.0
524,146.73413432083333,146.98413433333334,62.0,100.0
525,147.05159465416668,148.03968994166667,59.0,98.0
526,147.05159465416668,148.04564232291668,62.0,100.0
527,147.05159465416668,148.05754708541667,67.0,100.0
528,147.05159465416668,148.12500740625,55.0,94.0
529,147.05159465416668,148.13492804166665,43.0,90.0
530,148.95635665416665,149.42262651875,60.0,93.0
531,148.95635665416665,149.57143605,67.0,98.0
532,148.95635665416665,149.63691224375,64.0,108.0
533,149.59127732083334,150.05754718541667,55.0,87.0
534,149.90873765416666,150.35913450208332,67.0,107.0
535,149.90873765416666,150.452388475,60.0,104.0
536,148.95635665416665,150.52778530416666,48.0,96.0
537,149.90873765416666,150.5714361,64.0,110.0
538,150.2261979875,150.89881706875,55.0,85.0
539,150.86111865416666,151.45635677916667,67.0,104.0
540,150.86111865416666,151.5119123375,62.0,108.0
541,151.49603932083332,151.93849966041665,55.0,89.0
542,151.81349965416666,152.15873776666666,67.0,114.0
543,151.81349965416666,152.30556317083332,62.0,119.0
544,152.1309599875,152.452388575,64.0,88.0
545,152.44842032083332,152.66270604583335,67.0,87.0
546,150.86111865416666,152.73611874791666,47.0,87.0
547,152.76588065416666,153.4166743375,60.0,92.0
548,152.76588065416666,153.42461084583334,67.0,94.0
549,152.76588065416666,153.44246798958332,64.0,102.0
550,152.76588065416666,153.88889658333332,45.0,86.0
551,153.71826165416667,154.06746802083333,67.0,104.0
552,153.71826165416667,154.17262675625,60.0,107.0
553,153.71826165416667,154.17262675625,64.0,113.0
554,154.0357219875,154.65278551041666,45.0,87.0
555,154.35318232083333,155.24008712708334,67.0,102.0
556,154.67064265416667,155.2738172875,59.0,91.0
557,154.67064265416667,155.31548395625,64.0,98.0
558,155.14683315416667,155.6071506375,55.0,91.0
559,154.67064265416667,155.98215065624998,43.0,88.0
560,155.62302365416667,156.26389670208334,59.0,116.0
561,155.62302365416667,156.28770622708333,67.0,108.0
562,155.9404839875,156.54365862083333,55.0,98.0
563,156.25794432083333,156.56349989166665,64.0,96.0
564,156.57540465416668,156.90873800416668,60.0,94.0
565,156.57540465416668,157.19246817708333,69.0,104.0
566,157.21032532083333,157.65080153333332,60.0,87.0
567,157.52778565416668,158.04167456875,74.0,107.0
568,156.57540465416668,158.06349996666665,53.0,88.0
569,157.52778565416668,158.08532536458333,65.0,114.0
570,158.16270632083334,158.42064284166668,69.0,94.0
571,157.8452459875,158.49802379791666,60.0,88.0
572,158.48016665416665,159.12103970208332,71.0,108.0
573,158.48016665416665,159.17461113333334,67.0,92.0
574,159.11508732083334,159.75596036875,60.0,86.0
575,159.43254765416665,159.79167465625,64.0,110.0
576,158.48016665416665,159.88492862916667,52.0,88.0
577,159.7500079875,160.04961117708334,67.0,102.0
578,160.06746832083334,160.37302389166666,71.0,84.0
579,160.38492865416666,160.96032550833334,69.0,104.0
580,160.38492865416666,160.97024614375,62.0,90.0
581,160.38492865416666,160.97024614375,65.0,94.0
582,160.38492865416666,161.71230967291666,50.0,86.0
583,161.33730965416666,161.7500080875,62.0,113.0
584,161.33730965416666,161.76191285,65.0,116.0
585,161.33730965416666,161.76786523125,69.0,107.0
586,161.6547699875,161.93453190625,54.0,103.0
587,161.97223032083332,162.36707161041667,66.0,109.0
588,162.92461132083332,163.05357958125,62.0,104.0
589,162.92461132083332,163.1071510125,59.0,93.0
590,162.76588115416666,163.27183356041667,55.0,104.0
591,163.0833414875,163.47818277708333,62.0,93.0
592,163.24207165416666,163.66865897708334,67.0,119.0
593,162.28969065416666,163.79365898333333,43.0,94.0
594,162.6071509875,163.82937327083334,50.0,87.0
595,163.87699232083332,163.97818280208332,62.0,92.0
596,163.5595319875,164.17461138333334,55.0,113.0
597,164.19445265416667,164.72421458541666,72.0,104.0
598,164.19445265416667,164.976198725,64.0,102.0
599,165.14683365416667,165.48016700416667,67.0,102.0
600,165.14683365416667,165.62302415416667,62.0,107.0
601,164.19445265416667,165.74604003333334,48.0,91.0
602,165.46429398749999,165.9047702,64.0,81.0
603,165.78175432083333,165.94842099583335,67.0,80.0
604,164.82937332083333,166.15080195833332,55.0,79.0
605,166.09921465416667,166.43254800416668,69.0,88.0
606,166.09921465416667,166.64683372916667,71.0,90.0
607,166.09921465416667,166.80953215,62.0,94.0
608,166.73413532083333,167.48016710416667,55.0,88.0
609,167.05159565416668,167.5119131375,67.0,114.0
610,166.09921465416667,167.59921472916668,47.0,85.0
611,167.05159565416668,167.70437346458334,62.0,113.0
612,167.68651632083333,167.96826236666666,64.0,87.0
613,168.00397665416668,169.02778622916668,69.0,94.0
614,168.00397665416668,169.08731004166665,60.0,98.0
615,168.00397665416668,169.119056075,64.0,89.0
616,168.95635765416665,169.33532592708332,57.0,110.0
617,168.00397665416668,169.50596085625,45.0,88.0
618,169.2738179875,169.55556403333333,60.0,92.0
619,169.59127832083334,169.84921484166665,64.0,96.0
620,168.63889732083334,169.96032595833333,52.0,85.0
621,169.90873865416665,170.84326251041668,67.0,98.0
622,169.90873865416665,170.97223077083333,62.0,94.0
623,170.38492915416666,171.12104030208334,52.0,81.0
624,169.90873865416665,171.19445300416666,43.0,84.0
625,170.86111965416666,171.31945301041665,55.0,92.0
626,171.1785799875,171.43056412708333,62.0,108.0
627,171.49604032083334,171.80556414583333,64.0,98.0
628,171.81350065416666,172.62104037708332,60.0,90.0
629,171.81350065416666,172.63889752083332,65.0,92.0
630,172.76588165416666,172.84723086458334,66.0,95.0
631,171.81350065416666,172.89683404166666,53.0,85.0
632,172.76588165416666,173.22421501041666,65.0,102.0
633,172.76588165416666,173.24405628125,60.0,107.0
634,173.40080232083332,173.4642943875,60.0,83.0
635,173.40080232083332,173.66667535,65.0,94.0
636,173.0833419875,173.690484875,53.0,104.0
637,173.71826265416667,174.2738182375,52.0,85.0
638,173.71826265416667,174.43056427708333,59.0,86.0
639,173.71826265416667,174.43056427708333,64.0,88.0
640,173.71826265416667,174.4404849125,67.0,86.0
641,174.35318332083332,174.77977064375,52.0,91.0
642,174.67064365416667,175.00000875,59.0,108.0
643,174.67064365416667,175.071437325,64.0,110.0
644,174.67064365416667,175.08135796041665,67.0,102.0
645,175.30556432083333,175.5833421125,67.0,100.0
646,174.9881039875,175.58731036666666,52.0,110.0
647,175.30556432083333,175.66270719583332,64.0,98.0
648,175.62302465416667,176.15080245833335,69.0,93.0
649,175.62302465416667,176.17064372916667,65.0,96.0
650,175.62302465416667,176.20834214375,50.0,90.0
651,175.62302465416667,176.21429452499999,62.0,91.0
652,176.57540565416667,177.01786599375,43.0,88.0
653,176.57540565416667,177.07540567916666,67.0,93.0
654,176.57540565416667,177.22223108333333,59.0,92.0
655,176.57540565416667,177.5119136375,62.0,108.0
656,177.52778665416668,177.73016761666668,60.0,86.0
657,177.21032632083333,178.5357232125,67.0,90.0
658,177.52778665416668,178.54564384791666,64.0,88.0
659,178.7976279875,179.06350101666666,65.0,104.0
660,178.48016765416668,179.89881851875,60.0,94.0
661,179.43254865416665,179.97421534791667,64.0,90.0
662,178.16270732083333,179.98612011041666,55.0,70.0
663,177.52778665416668,179.99802487291666,48.0,88.0
664,179.11508832083334,180.02183439791668,67.0,89.0
665,181.33731065416666,181.65080273333334,60.0,88.0
666,181.33731065416666,182.02183449791667,69.0,91.0
667,182.28969165416666,183.13096153749999,65.0,91.0
668,182.92461232083332,183.25397741666666,69.0,81.0
669,181.97223132083334,183.64881870625,60.0,83.0
670,183.24207265416666,184.0119139625,72.0,88.0
671,183.24207265416666,184.13691396875,65.0,87.0
672,184.19445365416667,184.54564414791668,69.0,107.0
673,181.33731065416666,184.6309616125,53.0,87.0
674,183.87699332083332,184.74008860208332,60.0,83.0
675,184.5119139875,185.12699338333334,72.0,100.0
676,185.14683465416667,185.87104103958333,64.0,88.0
677,185.14683465416667,185.92262834375,71.0,91.0
678,186.09921565416667,186.67064425416666,64.0,104.0
679,186.09921565416667,186.95834268125,71.0,96.0
680,185.14683465416667,187.02778712916665,52.0,83.0
681,187.05159665416667,187.69246970208334,60.0,87.0
682,187.05159665416667,187.71231097291667,69.0,88.0
683,187.05159665416667,187.78969192916668,64.0,88.0
684,187.05159665416667,188.05159670416666,57.0,84.0
685,188.00397765416668,188.47421577291666,64.0,116.0
686,188.00397765416668,188.49008878958333,69.0,110.0
687,188.63889832083333,188.97024754375,64.0,88.0
688,188.3214379875,188.976199925,57.0,104.0
689,188.63889832083333,189.55159677916666,69.0,104.0
690,188.95635865416668,189.61112059166666,62.0,93.0
691,188.95635865416668,189.62104122708334,65.0,91.0
692,188.95635865416668,190.0000095,50.0,87.0
693,189.90873965416665,190.47818412708332,62.0,108.0
694,189.90873965416665,190.59723175208333,69.0,102.0
695,190.54366032083334,190.63493016666666,64.0,87.0
696,190.2261999875,190.86508890833332,50.0,100.0
697,190.86112065416665,191.66270799583333,60.0,107.0
698,190.86112065416665,191.68850164791667,65.0,100.0
699,190.86112065416665,191.74604133333332,41.0,87.0
700,191.81350165416666,192.37699374583332,42.0,84.0
701,191.81350165416666,192.70834296875,62.0,93.0
702,191.81350165416666,192.71826360416665,66.0,113.0
703,192.76588265416666,193.833343025,59.0,107.0
704,192.76588265416666,193.86310493125,67.0,107.0
705,192.76588265416666,194.3452478125,43.0,87.0
706,193.71826365416666,194.44842242083334,55.0,102.0
707,193.40080332083332,194.60318433333333,50.0,79.0
708,194.0357239875,194.64881925625,60.0,93.0
709,194.67064465416667,195.32937484583334,55.0,87.0
710,194.67064465416667,195.73215264375,59.0,91.0
711,194.67064465416667,195.74207327916668,67.0,89.0
712,194.35318432083332,195.77778756666666,62.0,87.0
713,194.67064465416667,195.91469233541667,43.0,87.0
714,196.57540665416667,197.04167651875,61.0,93.0
715,196.57540665416667,197.19048605,68.0,98.0
716,196.57540665416667,197.25596224375,65.0,108.0
717,197.21032732083333,197.67659718541665,56.0,87.0
718,197.52778765416667,197.97818450208334,68.0,107.0
719,197.52778765416667,198.071438475,61.0,104.0
720,196.57540665416667,198.14683530416667,49.0,96.0
721,197.52778765416667,198.1904861,65.0,110.0
722,197.8452479875,198.51786706875,56.0,85.0
723,198.48016865416668,199.07540677916666,68.0,104.0
724,198.48016865416668,199.1309623375,63.0,108.0
725,199.11508932083333,199.55754966041667,56.0,89.0
726,199.43254965416668,199.77778776666668,68.0,114.0
727,199.43254965416668,199.92461317083334,63.0,119.0
728,199.7500099875,200.071438575,65.0,88.0
729,200.06747032083334,200.28175604583333,68.0,87.0
730,198.48016865416668,200.35516874791668,48.0,87.0
731,200.38493065416665,201.0357243375,61.0,92.0
732,200.38493065416665,201.04366084583333,68.0,94.0
733,200.38493065416665,201.06151798958334,65.0,102.0
734,200.38493065416665,201.50794658333334,46.0,86.0
735,201.33731165416665,201.68651802083332,68.0,104.0
736,201.33731165416665,201.79167675624998,61.0,107.0
737,201.33731165416665,201.79167675624998,65.0,113.0
738,201.6547719875,202.27183551041668,46.0,87.0
739,201.97223232083334,202.85913712708333,68.0,102.0
740,202.28969265416666,202.8928672875,60.0,91.0
741,202.28969265416666,202.93453395625,65.0,98.0
742,202.76588315416666,203.2262006375,56.0,91.0
743,202.28969265416666,203.60120065625,44.0,88.0
744,203.24207365416666,203.88294670208333,60.0,116.0
745,203.24207365416666,203.90675622708332,68.0,108.0
746,203.5595339875,204.16270862083334,56.0,98.0
747,203.87699432083332,204.18254989166667,65.0,96.0
748,204.19445465416666,204.52778800416667,61.0,94.0
749,204.19445465416666,204.81151817708334,70.0,104.0
750,204.82937532083332,205.26985153333334,61.0,87.0
751,205.14683565416667,205.66072456875,75.0,107.0
752,204.19445465416666,205.68254996666667,54.0,88.0
753,205.14683565416667,205.70437536458334,66.0,114.0
754,205.78175632083332,206.03969284166666,70.0,94.0
755,205.4642959875,206.11707379791667,61.0,88.0
756,206.09921665416667,206.74008970208334,72.0,108.0
757,206.09921665416667,206.79366113333333,68.0,92.0
758,206.73413732083333,207.37501036875,61.0,86.0
759,207.05159765416667,207.41072465625,65.0,110.0
760,206.09921665416667,207.50397862916665,53.0,88.0
761,207.36905798749999,207.66866117708332,68.0,102.0
762,207.68651832083333,207.99207389166668,72.0,84.0
763,208.00397865416667,208.57937550833333,70.0,104.0
764,208.00397865416667,208.58929614375,63.0,90.0
765,208.00397865416667,208.58929614375,66.0,94.0
766,208.00397865416667,209.33135967291668,51.0,86.0
767,208.95635965416668,209.3690580875,63.0,113.0
768,208.95635965416668,209.38096285,66.0,116.0
769,208.95635965416668,209.38691523125,70.0,107.0
770,209.2738199875,209.55358190625,55.0,103.0
771,209.59128032083333,209.98612161041666,67.0,109.0
772,210.54366132083334,210.67262958125,63.0,104.0
773,210.54366132083334,210.72620101249998,60.0,93.0
774,210.38493115416665,210.89088356041665,56.0,104.0
775,210.7023914875,211.09723277708332,63.0,93.0
776,210.86112165416665,211.28770897708333,68.0,119.0
777,209.90874065416668,211.41270898333332,44.0,94.0
778,210.2262009875,211.44842327083333,51.0,87.0
779,211.49604232083334,211.59723280208334,63.0,92.0
780,211.1785819875,211.79366138333333,56.0,113.0
781,211.81350265416665,212.34326458541668,73.0,104.0
782,211.81350265416665,212.595248725,65.0,102.0
783,212.76588365416666,213.09921700416666,68.0,102.0
784,212.76588365416666,213.24207415416666,63.0,107.0
785,211.81350265416665,213.36509003333333,49.0,91.0
786,213.0833439875,213.5238202,65.0,81.0
787,213.40080432083334,213.56747099583333,68.0,80.0
788,212.44842332083334,213.76985195833333,56.0,79.0
789,213.71826465416666,214.05159800416666,70.0,88.0
790,213.71826465416666,214.26588372916666,72.0,90.0
791,213.71826465416666,214.42858215,63.0,94.0
792,214.35318532083332,215.09921710416666,56.0,88.0
793,214.67064565416666,215.1309631375,68.0,114.0
794,213.71826465416666,215.21826472916666,48.0,85.0
795,214.67064565416666,215.32342346458333,63.0,113.0
796,215.30556632083332,215.58731236666665,65.0,87.0
797,215.62302665416667,216.64683622916667,70.0,94.0
798,215.62302665416667,216.70636004166667,61.0,98.0
799,215.62302665416667,216.738106075,65.0,89.0
800,216.57540765416667,216.95437592708333,58.0,110.0
801,215.62302665416667,217.12501085625,46.0,88.0
802,216.8928679875,217.17461403333334,61.0,92.0
803,217.21032832083333,217.46826484166667,65.0,96.0
804,216.25794732083332,217.57937595833334,53.0,85.0
805,217.52778865416667,218.46231251041667,68.0,98.0
806,217.52778865416667,218.59128077083332,63.0,94.0
807,218.00397915416667,218.74009030208333,53.0,81.0
808,217.52778865416667,218.81350300416668,44.0,84.0
809,218.48016965416667,218.93850301041667,56.0,92.0
810,218.7976299875,219.04961412708334,63.0,108.0
811,219.11509032083333,219.42461414583335,65.0,98.0
812,219.43255065416668,220.24009037708333,61.0,90.0
813,219.43255065416668,220.25794752083334,66.0,92.0
814,220.38493165416668,220.46628086458333,67.0,95.0
815,219.43255065416668,220.51588404166665,54.0,85.0
816,220.38493165416668,220.84326501041667,66.0,102.0
817,220.38493165416668,220.86310628125,61.0,107.0
818,221.01985232083334,221.0833443875,61.0,83.0
819,221.01985232083334,221.28572535,66.0,94.0
820,220.7023919875,221.309534875,54.0,104.0
821,221.33731265416665,221.8928682375,53.0,85.0
822,221.33731265416665,222.04961427708332,60.0,86.0
823,221.33731265416665,222.04961427708332,65.0,88.0
824,221.33731265416665,222.0595349125,68.0,86.0
825,221.97223332083334,222.39882064374999,53.0,91.0
826,222.28969365416665,222.61905875,60.0,108.0
827,222.28969365416665,222.690487325,65.0,110.0
828,222.28969365416665,222.70040796041667,68.0,102.0
829,222.92461432083334,223.2023921125,68.0,100.0
830,222.6071539875,223.20636036666667,53.0,110.0
831,222.92461432083334,223.28175719583334,65.0,98.0
832,223.24207465416666,223.76985245833333,70.0,93.0
833,223.24207465416666,223.78969372916666,66.0,96.0
834,223.24207465416666,223.82739214375,51.0,90.0
835,223.24207465416666,223.833344525,63.0,91.0
836,224.19445565416666,224.63691599375,44.0,88.0
837,224.19445565416666,224.69445567916665,68.0,93.0
838,224.19445565416666,224.84128108333334,60.0,92.0
839,224.19445565416666,225.1309636375,63.0,108.0
840,225.14683665416666,225.34921761666666,61.0,86.0
841,224.82937632083332,226.1547732125,68.0,90.0
842,225.14683665416666,226.16469384791665,65.0,88.0
843,226.4166779875,226.68255101666668,66.0,104.0
844,226.09921765416667,227.51786851875,61.0,94.0
845,227.05159865416667,227.59326534791666,65.0,90.0
846,225.78175732083332,227.60517011041665,56.0,70.0
847,225.14683665416666,227.61707487291667,49.0,88.0
848,226.73413832083332,227.64088439791666,68.0,89.0
849,228.95636065416667,229.93255117916667,73.0,86.0
850,228.7976304875,229.99802737291665,66.0,71.0
851,229.90874165416668,230.40278929791666,70.0,92.0
852,229.59128132083333,230.48612263541668,61.0,76.0
853,230.38493215416668,230.73215439375,73.0,72.0
854,230.86112265416668,232.13691636875,63.0,87.0
855,230.86112265416668,232.19842430833333,72.0,88.0
856,232.1309639875,232.44842432083334,68.0,84.0
857,228.95636065416667,232.78771005208333,54.0,84.0
858,232.44842432083334,232.79366243333334,72.0,82.0
859,232.76588465416665,233.72024978125,68.0,84.0
860,232.76588465416665,233.74802756041666,65.0,83.0
861,233.71826565416666,234.09723392708332,63.0,88.0
862,234.0357259875,234.357154575,65.0,84.0
863,234.35318632083334,234.68453554375,68.0,83.0
864,232.76588465416665,234.70636094166667,53.0,83.0
865,234.67064665416666,235.61310701875,70.0,87.0
866,234.67064665416666,235.88691655625,61.0,83.0
867,234.67064665416666,235.99802767291666,46.0,85.0
868,235.30556732083332,236.0119165625,53.0,81.0
869,235.9404879875,236.34921816666667,60.0,87.0
870,235.62302765416666,236.61707532291666,58.0,91.0
871,236.25794832083332,236.65675786458334,61.0,82.0
872,236.57540865416667,237.214297575,63.0,87.0
873,236.57540865416667,237.27778964166666,66.0,84.0
874,237.52778965416667,238.40675795208332,66.0,86.0
875,237.52778965416667,238.44842462083332,63.0,90.0
876,236.57540865416667,238.48413890833334,51.0,84.0
877,238.48017065416667,239.16866275208332,68.0,84.0
878,238.48017065416667,239.2500119625,60.0,84.0
879,238.48017065416667,239.81151992708334,44.0,77.0
880,239.43255165416667,240.01390088958334,60.0,86.0
881,239.43255165416667,240.23810724999998,68.0,84.0
882,238.48017065416667,240.33929773124999,56.0,77.0
883,240.38493265416668,241.071440625,61.0,78.0
884,240.38493265416668,241.10517078541668,65.0,80.0
885,240.38493265416668,241.12699618333332,68.0,78.0
886,241.01985332083333,241.4166787375,56.0,64.0
887,241.33731365416668,242.22818671458333,66.0,88.0
888,242.28969465416665,243.03374231041667,61.0,76.0
889,242.28969465416665,243.0833454875,65.0,82.0
890,241.97223432083334,243.11509152083332,56.0,75.0
891,240.38493265416668,243.12104390208333,49.0,70.0
