,start,end,pitch,velocity
0,23.456885802083335,23.747162854166668,68.0,95.0
1,23.790218302083336,23.97910671875,75.0,102.0
2,24.123550802083333,24.35132801041667,75.0,102.0
3,24.456883302083334,24.663827229166667,73.0,90.0
4,24.790215802083335,25.812435468750003,75.0,102.0
5,26.123545802083335,26.640211177083334,73.0,87.0
6,26.790210802083333,27.055487916666667,66.0,87.0
7,27.123543302083334,27.338820541666667,70.0,85.0
8,27.456875802083335,28.37215129166667,68.0,93.0
9,28.790205802083335,29.111038333333333,71.0,95.0
10,29.290204552083335,29.35409328125,71.0,83.0
11,29.456870802083333,29.715203489583335,71.0,93.0
12,29.790203302083334,30.024924937500003,68.0,93.0
13,30.123535802083335,30.723534302083333,73.0,93.0
14,30.790200802083334,31.00964469791667,71.0,83.0
15,31.123533302083334,31.35408828125,73.0,93.0
16,31.456865802083335,32.780473604166666,75.0,93.0
17,34.123525802083336,34.39574734375,75.0,105.0
18,34.45685830208333,34.641580062500005,80.0,90.0
19,34.79019080208334,35.002690270833334,80.0,90.0
20,35.123523302083335,35.349911625000004,78.0,90.0
21,35.45685580208333,36.25129826041667,80.0,90.0
22,36.790185802083336,37.31518448958334,75.0,95.0
23,37.45685080208334,37.69018355208333,68.0,102.0
24,37.790183302083335,38.02768270833334,71.0,87.0
25,38.12351580208333,39.177679833333336,73.0,93.0
26,39.456845802083336,39.72351180208334,73.0,102.0
27,39.95684455208333,40.0748998125,73.0,87.0
28,40.12351080208334,40.306843677083336,75.0,102.0
29,40.456843302083335,40.63462063541667,78.0,103.0
30,40.79017580208333,41.290174552083336,66.0,103.0
31,41.456840802083335,41.72628457291667,71.0,85.0
32,41.79017330208334,42.055450416666666,70.0,87.0
33,42.123505802083336,43.64711310416667,68.0,93.0
34,44.79016580208334,45.08044285416667,68.0,95.0
35,45.123498302083334,45.312386718750005,75.0,102.0
36,45.45683080208334,45.68460801041667,75.0,102.0
37,45.790163302083336,45.997107229166666,73.0,90.0
38,46.12349580208333,47.145715468750005,75.0,102.0
39,47.45682580208334,47.97349117708334,73.0,87.0
40,48.12349080208334,48.388767916666666,66.0,87.0
41,48.456823302083336,48.67210054166667,70.0,85.0
42,48.79015580208333,49.70543129166667,68.0,93.0
43,50.12348580208334,50.444318333333335,71.0,95.0
44,50.62348455208333,50.687373281250004,71.0,83.0
45,50.79015080208334,51.04848348958333,71.0,93.0
46,51.123483302083336,51.358204937500005,68.0,93.0
47,51.456815802083334,52.05681430208334,73.0,93.0
48,52.123480802083336,52.34292469791667,71.0,83.0
49,52.45681330208333,52.68736828125,73.0,93.0
50,52.79014580208334,54.11375360416667,75.0,93.0
51,55.45680580208334,55.729027343750005,75.0,105.0
52,55.790138302083335,55.9748600625,80.0,90.0
53,56.12347080208334,56.335970270833336,80.0,90.0
54,56.45680330208334,56.683191625000006,78.0,90.0
55,56.790135802083334,57.58457826041667,80.0,90.0
56,58.12346580208334,58.64846448958334,75.0,95.0
57,58.79013080208334,59.023463552083335,68.0,102.0
58,59.12346330208334,59.36096270833334,71.0,87.0
59,59.456795802083334,60.51095983333334,73.0,93.0
60,60.79012580208334,61.05679180208334,73.0,102.0
61,61.290124552083334,61.4081798125,73.0,87.0
62,61.45679080208334,61.64012367708334,75.0,102.0
63,61.79012330208334,61.96790063541667,78.0,103.0
64,62.123455802083335,62.62345455208334,66.0,103.0
65,62.79012080208334,63.05956457291667,71.0,85.0
66,63.123453302083334,63.38873041666667,70.0,87.0
67,63.45678580208334,64.98039310416667,68.0,93.0
68,66.12344580208334,66.44011167708334,80.0,95.0
69,66.62344455208334,66.716499875,80.0,87.0
70,66.79011080208333,66.98177698958334,80.0,102.0
71,67.12344330208333,67.30677617708334,75.0,102.0
72,67.45677580208334,67.96649675,78.0,93.0
73,68.12344080208334,68.34705135416667,80.0,93.0
74,68.45677330208333,68.66927277083333,82.0,87.0
75,68.79010580208333,70.85398953125001,80.0,93.0
76,71.45676580208334,71.78593164583334,83.0,95.0
77,71.95676455208334,72.049819875,83.0,93.0
78,72.12343080208333,72.32898584375,83.0,80.0
79,72.45676330208333,72.64287394791667,80.0,93.0
80,72.79009580208334,73.30259452083334,78.0,103.0
81,73.45676080208334,73.683149125,80.0,95.0
82,73.79009330208333,74.06370372916668,78.0,87.0
83,74.12342580208333,76.30953144791667,75.0,103.0
84,76.79008580208334,77.07064065625,80.0,95.0
85,77.29008455208334,77.3748065625,80.0,87.0
86,77.45675080208333,77.66230584375,80.0,90.0
87,77.79008330208333,77.94008292708334,80.0,87.0
88,78.12341580208334,78.62619232291667,80.0,90.0
89,78.79008080208334,79.03869129166667,73.0,93.0
90,79.12341330208334,79.33452388541667,75.0,93.0
91,79.45674580208333,81.58868491666667,73.0,93.0
92,82.12340580208334,82.45396053125,70.0,93.0
93,82.62340455208334,82.7081265625,70.0,74.0
94,82.79007080208333,83.01784801041667,70.0,83.0
95,83.12340330208333,83.34840273958334,68.0,93.0
96,83.45673580208334,84.00534554166667,66.0,93.0
97,84.12340080208334,84.35395578125001,68.0,93.0
98,84.45673330208334,84.67895496875,70.0,93.0
99,84.79006580208333,87.14005992708334,68.0,103.0
100,87.45672580208334,87.77339167708334,80.0,95.0
101,87.95672455208334,88.049779875,80.0,87.0
102,88.12339080208334,88.31505698958334,80.0,102.0
103,88.45672330208333,88.64005617708334,75.0,102.0
104,88.79005580208334,89.29977675,78.0,93.0
105,89.45672080208334,89.68033135416667,80.0,93.0
106,89.79005330208334,90.00255277083333,82.0,87.0
107,90.12338580208333,92.18726953125001,80.0,93.0
108,92.79004580208334,93.11921164583333,83.0,95.0
109,93.29004455208334,93.383099875,83.0,93.0
110,93.45671080208334,93.66226584375,83.0,80.0
111,93.79004330208333,93.97615394791667,80.0,93.0
112,94.12337580208334,94.63587452083334,78.0,103.0
113,94.79004080208334,95.016429125,80.0,95.0
114,95.12337330208334,95.39698372916668,78.0,87.0
115,95.45670580208333,97.64281144791667,75.0,103.0
116,98.12336580208334,98.40392065625001,80.0,95.0
117,98.62336455208334,98.7080865625,80.0,87.0
118,98.79003080208334,98.99558584375,80.0,90.0
119,99.12336330208333,99.27336292708334,80.0,87.0
120,99.45669580208335,99.95947232291667,80.0,90.0
121,100.12336080208334,100.37197129166667,73.0,93.0
122,100.45669330208334,100.66780388541667,75.0,93.0
123,100.79002580208333,102.92196491666667,73.0,93.0
124,103.45668580208334,103.78724053125,70.0,93.0
125,103.95668455208335,104.0414065625,70.0,74.0
126,104.12335080208334,104.35112801041667,70.0,83.0
127,104.45668330208333,104.68168273958334,68.0,93.0
128,104.79001580208335,105.33862554166667,66.0,93.0
129,105.45668080208334,105.68723578125001,68.0,93.0
130,105.79001330208334,106.01223496875001,70.0,93.0
131,106.12334580208334,108.47333992708334,68.0,103.0
132,130.12328580208333,130.41356285416668,68.0,95.0
133,130.45661830208334,130.64550671875,75.0,102.0
134,130.78995080208335,131.01772801041668,75.0,102.0
135,131.12328330208334,131.33022722916667,73.0,90.0
136,131.45661580208335,132.47883546875002,75.0,102.0
137,132.78994580208334,133.30661117708334,73.0,87.0
138,133.45661080208333,133.72188791666667,66.0,87.0
139,133.78994330208334,134.0052205416667,70.0,85.0
140,134.12327580208333,135.03855129166666,68.0,93.0
141,135.45660580208335,135.77743833333335,71.0,95.0
142,135.95660455208335,136.02049328125,71.0,83.0
143,136.12327080208334,136.38160348958334,71.0,93.0
144,136.45660330208335,136.6913249375,68.0,93.0
145,136.78993580208333,137.38993430208333,73.0,93.0
146,137.45660080208333,137.67604469791667,71.0,83.0
147,137.78993330208334,138.02048828125,73.0,93.0
148,138.12326580208335,139.44687360416668,75.0,93.0
149,140.78992580208333,141.06214734375,75.0,105.0
150,141.12325830208334,141.3079800625,80.0,90.0
151,141.45659080208335,141.66909027083335,80.0,90.0
152,141.78992330208334,142.01631162500001,78.0,90.0
153,142.12325580208335,142.91769826041667,80.0,90.0
154,143.45658580208334,143.98158448958335,75.0,95.0
155,144.12325080208333,144.35658355208335,68.0,102.0
156,144.45658330208335,144.69408270833335,71.0,87.0
157,144.78991580208333,145.84407983333335,73.0,93.0
158,146.12324580208335,146.38991180208333,73.0,102.0
159,146.62324455208335,146.74129981250002,73.0,87.0
160,146.78991080208334,146.97324367708333,75.0,102.0
161,147.12324330208335,147.30102063541668,78.0,103.0
162,147.45657580208334,147.95657455208334,66.0,103.0
163,148.12324080208333,148.39268457291666,71.0,85.0
164,148.45657330208334,148.72185041666668,70.0,87.0
165,148.78990580208335,150.31351310416667,68.0,93.0
166,151.45656580208333,151.7468428541667,68.0,95.0
167,151.78989830208334,151.97878671875,75.0,102.0
168,152.12323080208333,152.35100801041668,75.0,102.0
169,152.45656330208334,152.66350722916667,73.0,90.0
170,152.78989580208335,153.81211546875002,75.0,102.0
171,154.12322580208334,154.63989117708334,73.0,87.0
172,154.78989080208333,155.05516791666668,66.0,87.0
173,155.12322330208335,155.33850054166666,70.0,85.0
174,155.45655580208333,156.37183129166667,68.0,93.0
175,156.78988580208335,157.11071833333335,71.0,95.0
176,157.28988455208335,157.35377328125,71.0,83.0
177,157.45655080208334,157.71488348958334,71.0,93.0
178,157.78988330208335,158.02460493750002,68.0,93.0
179,158.12321580208334,158.72321430208333,73.0,93.0
180,158.78988080208333,159.00932469791667,71.0,83.0
181,159.12321330208334,159.35376828125,73.0,93.0
182,159.45654580208335,160.78015360416668,75.0,93.0
183,162.12320580208333,162.39542734375001,75.0,105.0
184,162.45653830208335,162.6412600625,80.0,90.0
185,162.78987080208333,163.00237027083335,80.0,90.0
186,163.12320330208334,163.34959162500002,78.0,90.0
187,163.45653580208335,164.25097826041667,80.0,90.0
188,164.78986580208334,165.31486448958333,75.0,95.0
189,165.45653080208334,165.68986355208335,68.0,102.0
190,165.78986330208335,166.02736270833333,71.0,87.0
191,166.12319580208333,167.17735983333336,73.0,93.0
192,167.45652580208335,167.72319180208333,73.0,102.0
193,167.95652455208335,168.07457981250002,73.0,87.0
194,168.12319080208334,168.30652367708333,75.0,102.0
195,168.45652330208335,168.63430063541668,78.0,103.0
196,168.78985580208334,169.28985455208334,66.0,103.0
197,169.45652080208333,169.72596457291667,71.0,85.0
198,169.78985330208334,170.05513041666669,70.0,87.0
199,170.12318580208336,171.64679310416668,68.0,93.0
200,172.78984580208333,173.10651167708335,80.0,95.0
201,173.28984455208334,173.38289987500002,80.0,87.0
202,173.45651080208333,173.64817698958333,80.0,102.0
203,173.78984330208334,173.97317617708333,75.0,102.0
204,174.12317580208335,174.63289675000001,78.0,93.0
205,174.78984080208335,175.01345135416668,80.0,93.0
206,175.12317330208333,175.33567277083336,82.0,87.0
207,175.45650580208334,177.52038953125,80.0,93.0
208,178.12316580208335,178.45233164583334,83.0,95.0
209,178.62316455208335,178.716219875,83.0,93.0
210,178.78983080208334,178.99538584375,83.0,80.0
211,179.12316330208336,179.30927394791667,80.0,93.0
212,179.45649580208334,179.96899452083335,78.0,103.0
213,180.12316080208333,180.349549125,80.0,95.0
214,180.45649330208335,180.73010372916667,78.0,87.0
215,180.78982580208336,182.97593144791668,75.0,103.0
216,183.45648580208334,183.73704065625,80.0,95.0
217,183.95648455208334,184.0412065625,80.0,87.0
218,184.12315080208333,184.32870584375001,80.0,90.0
219,184.45648330208334,184.60648292708333,80.0,87.0
220,184.78981580208335,185.29259232291668,80.0,90.0
221,185.45648080208335,185.7050912916667,73.0,93.0
222,185.78981330208333,186.00092388541668,75.0,93.0
223,186.12314580208334,188.25508491666668,73.0,93.0
224,188.78980580208335,189.12036053125001,70.0,93.0
225,189.28980455208335,189.37452656250002,70.0,74.0
226,189.45647080208335,189.68424801041667,70.0,83.0
227,189.78980330208336,190.01480273958333,68.0,93.0
228,190.12313580208334,190.67174554166667,66.0,93.0
229,190.78980080208333,191.02035578125,68.0,93.0
230,191.12313330208335,191.34535496875,70.0,93.0
231,191.45646580208336,193.80645992708335,68.0,103.0
232,194.12312580208334,194.43979167708335,80.0,95.0
233,194.62312455208334,194.71617987500002,80.0,87.0
234,194.78979080208333,194.98145698958334,80.0,102.0
235,195.12312330208334,195.30645617708333,75.0,102.0
236,195.45645580208335,195.96617675000002,78.0,93.0
237,196.12312080208335,196.34673135416668,80.0,93.0
238,196.45645330208333,196.66895277083336,82.0,87.0
239,196.78978580208334,198.85366953125,80.0,93.0
240,199.45644580208335,199.78561164583334,83.0,95.0
241,199.95644455208335,200.049499875,83.0,93.0
242,200.12311080208335,200.32866584375,83.0,80.0
243,200.45644330208336,200.64255394791667,80.0,93.0
244,200.78977580208334,201.30227452083335,78.0,103.0
245,201.45644080208334,201.682829125,80.0,95.0
246,201.78977330208335,202.06338372916667,78.0,87.0
247,202.12310580208333,204.30921144791668,75.0,103.0
248,204.78976580208334,205.07032065625,80.0,95.0
249,205.28976455208334,205.3744865625,80.0,87.0
250,205.45643080208333,205.66198584375002,80.0,90.0
251,205.78976330208334,205.93976292708334,80.0,87.0
252,206.12309580208336,206.62587232291668,80.0,90.0
253,206.78976080208335,207.03837129166666,73.0,93.0
254,207.12309330208333,207.33420388541668,75.0,93.0
255,207.45642580208334,209.58836491666668,73.0,93.0
256,210.12308580208335,210.45364053125002,70.0,93.0
257,210.62308455208336,210.70780656250002,70.0,74.0
258,210.78975080208335,211.01752801041667,70.0,83.0
259,211.12308330208336,211.34808273958333,68.0,93.0
260,211.45641580208334,212.00502554166667,66.0,93.0
261,212.12308080208334,212.35363578125,68.0,93.0
262,212.45641330208335,212.67863496875,70.0,93.0
263,212.78974580208333,215.13973992708335,68.0,103.0
264,215.45640580208334,215.73696065625,80.0,95.0
265,215.95640455208334,216.0411265625,80.0,87.0
266,216.12307080208333,216.32862584375002,80.0,90.0
267,216.45640330208334,216.60640292708334,80.0,87.0
268,216.78973580208336,217.29251232291668,80.0,90.0
269,217.45640080208335,217.70501129166666,73.0,93.0
270,217.78973330208333,218.00084388541669,75.0,93.0
271,218.12306580208335,220.25500491666668,73.0,93.0
272,220.78972580208335,221.12028053125002,70.0,93.0
273,221.28972455208336,221.3744465625,70.0,74.0
274,221.45639080208335,221.68416801041667,70.0,83.0
275,221.78972330208333,222.01472273958333,68.0,93.0
276,222.12305580208334,223.45360803125,66.0,93.0
277,223.45638580208333,224.53971642708333,70.0,95.0
278,224.78971580208335,227.39387595833335,68.0,93.0
