,start,end,pitch,velocity
0,2.1236058020833335,2.7861041458333333,56.0,63.0
1,2.1236058020833335,2.797215229166667,59.0,67.0
2,3.1236033020833336,3.2402696770833335,56.0,87.0
3,3.1236033020833336,3.2527696458333337,63.0,102.0
4,2.7902708020833336,3.6236020520833336,51.0,70.0
5,3.7902683020833337,4.176378447916667,51.0,66.0
6,2.1236058020833335,4.276378197916667,44.0,80.0
7,4.123600802083334,4.283322625,56.0,93.0
8,4.123600802083334,4.3249891875,59.0,93.0
9,4.456933302083334,4.5722107916666666,56.0,69.0
10,4.790265802083334,5.084709510416667,56.0,74.0
11,4.790265802083334,5.084709510416667,61.0,80.0
12,5.290264552083333,5.3749865625,56.0,71.0
13,5.290264552083333,5.377764333333333,61.0,71.0
14,4.790265802083334,5.49998625,49.0,69.0
15,5.790263302083334,6.152762395833333,56.0,72.0
16,5.790263302083334,6.32081753125,64.0,74.0
17,6.456928302083334,6.581927989583334,56.0,69.0
18,5.790263302083334,6.888871666666667,49.0,68.0
19,6.790260802083334,6.90414940625,56.0,87.0
20,6.790260802083334,7.018038010416667,61.0,95.0
21,7.456925802083334,8.094424208333335,58.0,80.0
22,7.790258302083334,8.67914496875,49.0,61.0
23,8.456923302083334,9.205532541666667,54.0,87.0
24,8.456923302083334,9.540253927083334,61.0,93.0
25,9.123588302083334,9.608309312500001,49.0,68.0
26,7.456925802083334,9.645809218750001,42.0,80.0
27,9.456920802083333,9.681920239583334,54.0,102.0
28,9.623587052083334,9.783308875000001,58.0,83.0
29,9.790253302083334,9.911086333333333,61.0,102.0
30,10.123585802083333,10.4749738125,58.0,68.0
31,10.123585802083333,10.491640437500001,63.0,83.0
32,10.790250802083333,10.969417020833333,58.0,69.0
33,11.123583302083334,11.56663775,58.0,83.0
34,11.123583302083334,11.645804218750001,66.0,90.0
35,10.456918302083334,11.9749700625,46.0,59.0
36,12.123580802083334,12.322191416666668,63.0,102.0
37,10.123585802083333,12.393024572916667,39.0,71.0
38,12.290247052083334,12.468024385416667,46.0,70.0
39,12.456913302083334,12.583301875,58.0,87.0
40,12.790245802083334,13.176355947916667,56.0,71.0
41,12.790245802083334,13.201355885416667,59.0,74.0
42,13.456910802083334,13.583299375000001,56.0,72.0
43,13.790243302083335,13.972187291666668,56.0,95.0
44,13.790243302083335,13.977742833333334,63.0,95.0
45,13.123578302083335,13.980520604166667,51.0,68.0
46,14.790240802083334,14.940240427083333,59.0,93.0
47,14.456908302083335,15.113851104166667,51.0,68.0
48,14.956907052083334,15.176350947916667,56.0,85.0
49,12.790245802083334,15.197184229166668,44.0,74.0
50,15.123573302083335,15.265239614583335,59.0,83.0
51,15.456905802083334,15.658294187500001,56.0,72.0
52,15.456905802083334,15.858293687500002,61.0,72.0
53,15.790238302083335,15.968015635416668,56.0,68.0
54,15.456905802083334,16.280514854166668,49.0,70.0
55,16.456903302083333,16.75968032291667,56.0,85.0
56,16.123570802083336,16.904124406250002,64.0,85.0
57,17.123568302083335,17.572178291666667,47.0,64.0
58,17.456900802083336,17.622178166666668,56.0,66.0
59,17.456900802083336,17.6249559375,59.0,70.0
60,16.790235802083334,17.640233677083334,40.0,87.0
61,17.456900802083336,17.644400333333333,52.0,66.0
62,18.123565802083334,18.52217591666667,51.0,72.0
63,18.123565802083334,18.602731270833335,58.0,72.0
64,18.790230802083336,19.227729708333335,51.0,85.0
65,19.123563302083333,19.39578484375,63.0,102.0
66,19.456895802083334,19.597173229166668,58.0,80.0
67,19.790228302083335,19.9416168125,51.0,87.0
68,20.123560802083336,20.249949375,51.0,95.0
69,18.456898302083335,20.262449343750003,46.0,50.0
70,18.123565802083334,20.28744928125,39.0,80.0
71,20.123560802083336,20.44578221875,54.0,90.0
72,20.456893302083333,20.502726520833335,51.0,68.0
73,20.790225802083334,21.186058145833336,56.0,85.0
74,20.790225802083334,21.443001947916667,59.0,87.0
75,21.456890802083336,21.586057145833333,56.0,74.0
76,21.790223302083334,21.999945,63.0,93.0
77,21.790223302083334,22.009667197916666,56.0,72.0
78,21.123558302083335,22.288833166666667,51.0,70.0
79,22.623554552083334,22.859665072916666,56.0,80.0
80,22.790220802083333,22.954109281250002,59.0,87.0
81,22.456888302083335,23.183275375,51.0,63.0
82,20.790225802083334,23.186053145833334,44.0,80.0
83,23.456885802083335,23.915217989583336,56.0,67.0
84,23.456885802083335,24.208272812500002,59.0,74.0
85,24.123550802083333,24.216606125000002,56.0,44.0
86,24.456883302083334,24.666605,56.0,87.0
87,23.790218302083336,24.667993885416667,51.0,60.0
88,24.456883302083334,25.00410415625,63.0,87.0
89,25.456880802083333,25.5082695625,56.0,61.0
90,25.123548302083336,25.60549154166667,51.0,30.0
91,23.456885802083335,25.762435593750002,44.0,83.0
92,25.456880802083333,25.85410203125,59.0,85.0
93,25.790213302083334,25.952712895833336,56.0,93.0
94,26.123545802083335,26.462433843750002,54.0,80.0
95,26.123545802083335,26.77909971875,58.0,80.0
96,26.123545802083335,26.95548816666667,42.0,80.0
97,26.456878302083336,27.10409890625,49.0,39.0
98,26.790210802083333,27.209654197916667,54.0,69.0
99,27.123543302083334,27.42076478125,58.0,93.0
100,27.456875802083335,28.15131851041667,56.0,74.0
101,27.456875802083335,28.186040645833334,59.0,80.0
102,28.123540802083333,28.259651572916667,51.0,55.0
103,27.456875802083335,28.273540427083336,44.0,74.0
104,28.456873302083334,28.57631744791667,56.0,93.0
105,28.790205802083335,29.219371395833335,52.0,70.0
106,28.790205802083335,29.51242621875,59.0,87.0
107,29.456870802083333,29.687425781250003,52.0,74.0
108,28.790205802083335,29.756870052083336,40.0,74.0
109,29.123538302083336,29.806869927083333,47.0,45.0
110,29.790203302083334,29.91381410416667,59.0,90.0
111,30.123535802083335,30.5582569375,61.0,80.0
112,30.456868302083336,30.849922875,56.0,64.0
113,30.790200802083334,30.95131151041667,61.0,87.0
114,30.123535802083335,30.96797813541667,49.0,80.0
115,31.456865802083335,31.811031583333335,58.0,68.0
116,31.456865802083335,31.861031458333336,63.0,87.0
117,32.12353080208334,32.55547416666667,58.0,80.0
118,31.790198302083336,32.96102870833334,46.0,47.0
119,32.456863302083335,33.165194864583334,63.0,93.0
120,31.456865802083335,33.583249375,39.0,80.0
121,33.456860802083334,33.58880491666667,63.0,103.0
122,33.123528302083336,33.60547154166667,46.0,55.0
123,33.456860802083334,33.62908259375,58.0,90.0
124,33.79019330208334,33.94297069791667,61.0,87.0
125,34.123525802083336,34.52908034375,56.0,80.0
126,34.123525802083336,34.581857989583334,59.0,83.0
127,34.79019080208334,34.87074615625,56.0,56.0
128,35.123523302083335,35.23324525,63.0,87.0
129,35.123523302083335,35.2415785625,56.0,87.0
130,34.45685830208333,36.219353895833336,51.0,59.0
131,36.123520802083334,36.25963157291667,56.0,87.0
132,36.123520802083334,36.26796488541667,59.0,87.0
133,34.123525802083336,36.3749090625,44.0,80.0
134,36.45685330208334,36.583241875,56.0,83.0
135,36.790185802083336,37.13740715625,56.0,72.0
136,36.790185802083336,37.18601814583334,63.0,80.0
137,37.45685080208334,37.63323925,56.0,58.0
138,36.790185802083336,37.745738968750004,44.0,83.0
139,37.12351830208333,37.75546116666667,51.0,59.0
140,37.790183302083335,37.98184948958333,59.0,87.0
141,38.12351580208333,38.502681520833335,61.0,87.0
142,38.45684830208334,38.684625510416666,56.0,67.0
143,38.12351580208333,38.95406928125,49.0,80.0
144,38.790180802083334,38.97906921875,64.0,72.0
145,39.456845802083336,39.6082343125,56.0,68.0
146,39.456845802083336,39.80406715625,61.0,85.0
147,39.79017830208333,40.18045510416667,56.0,71.0
148,40.12351080208334,40.55267639583334,61.0,93.0
149,40.456843302083335,40.60962069791667,56.0,74.0
150,39.456845802083336,40.71795376041667,49.0,83.0
151,40.79017580208333,40.9998975,58.0,71.0
152,40.79017580208333,41.19295257291667,63.0,83.0
153,41.12350830208334,41.290174552083336,58.0,74.0
154,40.79017580208333,41.48045185416667,51.0,80.0
155,41.456840802083335,41.598507114583334,63.0,95.0
156,42.123505802083336,42.5582269375,56.0,72.0
157,42.123505802083336,42.85405953125,59.0,74.0
158,42.79017080208334,43.20266977083334,56.0,74.0
159,43.123503302083336,43.5582244375,68.0,103.0
160,43.45683580208333,43.70544629166667,56.0,87.0
161,43.79016830208334,43.95544566666667,63.0,74.0
162,44.123500802083335,44.54572196875,56.0,83.0
163,44.123500802083335,44.569333020833334,59.0,80.0
164,42.456838302083334,44.64294394791667,51.0,63.0
165,42.123505802083336,44.6582216875,44.0,80.0
166,44.79016580208334,45.248497989583335,56.0,67.0
167,44.79016580208334,45.5415528125,59.0,74.0
168,45.45683080208334,45.549886125,56.0,44.0
169,45.790163302083336,45.999885,56.0,87.0
170,45.123498302083334,46.001273885416666,51.0,60.0
171,45.790163302083336,46.33738415625,63.0,87.0
172,46.790160802083335,46.8415495625,56.0,61.0
173,46.45682830208334,46.93877154166667,51.0,30.0
174,44.79016580208334,47.09571559375,44.0,83.0
175,46.790160802083335,47.18738203125,59.0,85.0
176,47.12349330208333,47.28599289583334,56.0,93.0
177,47.45682580208334,47.79571384375,54.0,80.0
178,47.45682580208334,48.112379718750006,58.0,80.0
179,47.45682580208334,48.28876816666667,42.0,80.0
180,47.790158302083334,48.437378906250004,49.0,39.0
181,48.12349080208334,48.54293419791667,54.0,69.0
182,48.456823302083336,48.75404478125,58.0,93.0
183,48.79015580208333,49.48459851041667,56.0,74.0
184,48.79015580208333,49.51932064583334,59.0,80.0
185,49.456820802083335,49.59293157291667,51.0,55.0
186,48.79015580208333,49.606820427083335,44.0,74.0
187,49.79015330208333,49.90959744791667,56.0,93.0
188,50.12348580208334,50.55265139583334,52.0,70.0
189,50.12348580208334,50.84570621875,59.0,87.0
190,50.79015080208334,51.02070578125,52.0,74.0
191,50.12348580208334,51.09015005208334,40.0,74.0
192,50.456818302083335,51.140149927083336,47.0,45.0
193,51.123483302083336,51.24709410416667,59.0,90.0
194,51.456815802083334,51.8915369375,61.0,80.0
195,51.79014830208334,52.183202875000006,56.0,64.0
196,52.123480802083336,52.28459151041667,61.0,87.0
197,51.456815802083334,52.30125813541667,49.0,80.0
198,52.79014580208334,53.144311583333334,58.0,68.0
199,52.79014580208334,53.19431145833334,63.0,87.0
200,53.45681080208334,53.88875416666667,58.0,80.0
201,53.123478302083335,54.29430870833334,46.0,47.0
202,53.79014330208334,54.498474864583336,63.0,93.0
203,52.79014580208334,54.916529375,39.0,80.0
204,54.790140802083336,54.92208491666667,63.0,103.0
205,54.45680830208334,54.93875154166667,46.0,55.0
206,54.790140802083336,54.96236259375,58.0,90.0
207,55.12347330208333,55.27625069791667,61.0,87.0
208,55.45680580208334,55.862360343750005,56.0,80.0
209,55.45680580208334,55.915137989583336,59.0,83.0
210,56.12347080208334,56.20402615625,56.0,56.0
211,56.45680330208334,56.566525250000005,63.0,87.0
212,56.45680330208334,56.574858562500005,56.0,87.0
213,55.790138302083335,57.55263389583334,51.0,59.0
214,57.456800802083336,57.59291157291667,56.0,87.0
215,57.456800802083336,57.60124488541667,59.0,87.0
216,55.45680580208334,57.708189062500004,44.0,80.0
217,57.79013330208333,57.916521875,56.0,83.0
218,58.12346580208334,58.47068715625,56.0,72.0
219,58.12346580208334,58.51929814583334,63.0,80.0
220,58.79013080208334,58.966519250000005,56.0,58.0
221,58.12346580208334,59.079018968750006,44.0,83.0
222,58.456798302083335,59.08874116666667,51.0,59.0
223,59.12346330208334,59.315129489583335,59.0,87.0
224,59.456795802083334,59.83596152083334,61.0,87.0
225,59.79012830208334,60.01790551041667,56.0,67.0
226,59.456795802083334,60.28734928125,49.0,80.0
227,60.123460802083336,60.31234921875,64.0,72.0
228,60.79012580208334,60.941514312500004,56.0,68.0
229,60.79012580208334,61.13734715625,61.0,85.0
230,61.123458302083336,61.51373510416667,56.0,71.0
231,61.45679080208334,61.88595639583334,61.0,93.0
232,61.79012330208334,61.94290069791667,56.0,74.0
233,60.79012580208334,62.05123376041667,49.0,83.0
234,62.123455802083335,62.333177500000005,58.0,71.0
235,62.123455802083335,62.52623257291667,63.0,83.0
236,62.45678830208334,62.62345455208334,58.0,74.0
237,62.123455802083335,62.81373185416667,51.0,80.0
238,62.79012080208334,62.93178711458334,63.0,95.0
239,63.45678580208334,63.891506937500004,56.0,72.0
240,63.45678580208334,64.18733953125,59.0,74.0
241,64.12345080208334,64.53594977083334,56.0,74.0
242,64.45678330208334,64.8915044375,68.0,103.0
243,64.79011580208333,65.03872629166668,56.0,87.0
244,65.12344830208333,65.28872566666666,63.0,74.0
245,65.45678080208333,65.87900196875,56.0,83.0
246,65.45678080208333,65.90261302083334,59.0,80.0
247,63.790118302083336,65.97622394791667,51.0,63.0
248,63.45678580208334,65.9915016875,44.0,80.0
249,66.45677830208334,66.97205479166666,51.0,69.0
250,66.62344455208334,66.9748325625,56.0,93.0
251,66.12344580208334,67.02761020833334,44.0,93.0
252,66.95677705208334,67.19705422916667,63.0,102.0
253,67.12344330208333,67.32483168750001,59.0,74.0
254,67.29010955208334,67.45260914583334,56.0,72.0
255,67.79010830208334,68.00955219791668,51.0,71.0
256,67.95677455208333,68.083163125,54.0,87.0
257,67.62344205208333,68.22205166666667,46.0,64.0
258,67.45677580208334,68.29566259375001,39.0,85.0
259,68.12344080208334,68.35121801041667,54.0,83.0
260,68.12344080208334,68.35677355208334,51.0,95.0
261,68.12344080208334,68.39010680208334,58.0,85.0
262,68.45677330208333,68.56510636458334,39.0,83.0
263,68.79010580208333,69.1914936875,59.0,80.0
264,68.79010580208333,69.21232696875,56.0,74.0
265,69.12343830208334,69.55538166666668,51.0,51.0
266,69.45677080208334,69.60677042708333,63.0,93.0
267,69.45677080208334,69.616492625,56.0,87.0
268,69.95676955208334,70.0081583125,59.0,68.0
269,69.79010330208334,70.01788051041667,51.0,49.0
270,68.79010580208333,70.02621382291667,44.0,87.0
271,69.95676955208334,70.39149068750001,63.0,93.0
272,70.45676830208333,70.71232321875,56.0,87.0
273,70.62343455208334,70.80260077083334,59.0,93.0
274,70.79010080208333,71.00954469791667,68.0,105.0
275,70.29010205208334,71.02343355208333,51.0,80.0
276,70.95676705208334,71.1414888125,63.0,103.0
277,70.12343580208334,71.18037760416667,44.0,72.0
278,71.12343330208334,71.30537729166667,59.0,93.0
279,71.29009955208333,71.416488125,56.0,95.0
280,71.79009830208334,72.25120826041667,47.0,58.0
281,72.12343080208333,72.42898559375,52.0,87.0
282,71.45676580208334,72.54704085416667,40.0,90.0
283,72.45676330208333,72.65120726041667,47.0,60.0
284,72.12343080208333,72.68315162500001,59.0,83.0
285,72.62342955208334,72.749818125,52.0,83.0
286,73.12342830208334,73.36648325,54.0,80.0
287,73.29009455208333,73.43453863541667,58.0,87.0
288,72.95676205208333,73.56787163541667,49.0,66.0
289,72.79009580208334,73.63453813541668,42.0,87.0
290,73.45676080208334,73.69703797916667,61.0,102.0
291,73.79009330208333,73.87203754166667,54.0,85.0
292,74.12342580208333,74.39703622916667,54.0,87.0
293,74.12342580208333,74.4748138125,51.0,85.0
294,74.45675830208334,74.93036822916667,46.0,43.0
295,74.79009080208334,74.96370147916667,51.0,87.0
296,74.79009080208334,74.96370147916667,58.0,83.0
297,74.12342580208333,75.28592289583334,39.0,83.0
298,75.12342330208334,75.30675617708334,46.0,50.0
299,75.29008955208334,75.54842223958333,51.0,87.0
300,75.62342205208334,75.8748103125,51.0,87.0
301,75.29008955208334,75.98731003125,63.0,102.0
302,75.62342205208334,76.1081430625,46.0,69.0
303,75.95675455208334,76.19425395833333,58.0,72.0
304,76.12342080208333,76.51925314583333,46.0,70.0
305,76.45675330208334,76.58036410416668,51.0,87.0
306,75.45675580208334,76.58591964583334,39.0,83.0
307,76.12342080208333,76.62064178125,63.0,105.0
308,76.79008580208334,77.19702922916667,59.0,87.0
309,76.79008580208334,77.20675142708333,56.0,80.0
310,77.12341830208334,77.54008392708334,51.0,67.0
311,77.45675080208333,77.79286107291666,56.0,87.0
312,76.79008580208334,77.91786076041667,44.0,87.0
313,77.45675080208333,77.95952732291667,63.0,93.0
314,77.79008330208333,77.99980500000001,51.0,67.0
315,77.95674955208334,78.41785951041668,59.0,72.0
316,78.45674830208334,78.68730328125001,56.0,74.0
317,78.29008205208333,78.80674742708334,51.0,67.0
318,78.62341455208333,78.92619157291666,63.0,95.0
319,78.79008080208334,79.12341330208334,56.0,80.0
320,79.12341330208334,79.21369085416667,51.0,65.0
321,78.12341580208334,79.21924639583334,44.0,87.0
322,79.45674580208333,79.86924477083333,56.0,69.0
323,79.45674580208333,79.88591139583333,61.0,66.0
324,79.79007830208334,80.25118826041667,44.0,64.0
325,80.12341080208334,80.46507661458334,56.0,90.0
326,80.12341080208334,80.69007605208334,64.0,93.0
327,80.62340955208333,80.84840898958333,56.0,74.0
328,80.79007580208334,81.03868629166666,61.0,80.0
329,81.12340830208333,81.27618569791667,56.0,60.0
330,79.45674580208333,81.63312925000001,37.0,87.0
331,81.45674080208333,81.67618469791667,56.0,102.0
332,80.45674330208334,81.67896246875,44.0,64.0
333,81.45674080208333,81.81229546875001,64.0,90.0
334,81.79007330208334,81.84285094791667,56.0,27.0
335,81.79007330208334,81.99423945833334,61.0,67.0
336,82.12340580208334,82.57340467708333,58.0,69.0
337,82.12340580208334,82.6081268125,63.0,74.0
338,82.79007080208333,82.9997925,66.0,80.0
339,82.95673705208334,83.13173661458333,63.0,87.0
340,83.12340330208333,83.30673617708334,58.0,83.0
341,82.12340580208334,83.30812506250001,39.0,74.0
342,82.45673830208334,83.31506948958334,46.0,53.0
343,83.45673580208334,83.93312350000001,58.0,68.0
344,83.45673580208334,84.01367885416667,63.0,74.0
345,83.79006830208334,84.22756720833334,46.0,50.0
346,83.45673580208334,84.23590052083334,39.0,74.0
347,84.12340080208334,84.27895596875,58.0,74.0
348,84.12340080208334,84.52756645833334,66.0,72.0
349,84.45673330208334,84.57895521875001,58.0,69.0
350,84.79006580208333,85.20673142708334,59.0,70.0
351,84.79006580208333,85.22756470833333,56.0,69.0
352,85.12339830208334,85.55256389583334,51.0,63.0
353,85.45673080208334,85.75950782291667,56.0,93.0
354,85.45673080208334,85.87617419791667,63.0,90.0
355,84.79006580208333,86.06506261458334,44.0,80.0
356,85.79006330208334,86.10811806250001,51.0,64.0
357,85.95672955208333,86.15811793750001,56.0,71.0
358,86.12339580208334,86.41367285416668,59.0,74.0
359,86.79006080208333,87.09839336458334,56.0,80.0
360,86.29006205208334,87.23728190625,51.0,63.0
361,86.12339580208334,87.27478181250001,44.0,93.0
362,87.12339330208334,87.29144843750001,59.0,80.0
363,87.79005830208334,88.30533479166667,51.0,69.0
364,87.95672455208334,88.3081125625,56.0,93.0
365,87.45672580208334,88.36089020833334,44.0,93.0
366,88.29005705208334,88.53033422916667,63.0,102.0
367,88.45672330208333,88.65811168750001,59.0,74.0
368,88.62338955208334,88.78588914583334,56.0,72.0
369,89.12338830208334,89.34283219791668,51.0,71.0
370,89.29005455208333,89.416443125,54.0,87.0
371,88.95672205208334,89.55533166666667,46.0,64.0
372,88.79005580208334,89.62894259375001,39.0,85.0
373,89.45672080208334,89.68449801041668,54.0,83.0
374,89.45672080208334,89.69005355208334,51.0,95.0
375,89.45672080208334,89.72338680208334,58.0,85.0
376,89.79005330208334,89.89838636458335,39.0,83.0
377,90.12338580208333,90.5247736875,59.0,80.0
378,90.12338580208333,90.54560696875001,56.0,74.0
379,90.45671830208333,90.88866166666668,51.0,51.0
380,90.79005080208334,90.94005042708334,63.0,93.0
381,90.79005080208334,90.94977262500001,56.0,87.0
382,91.29004955208333,91.3414383125,59.0,68.0
383,91.12338330208334,91.35116051041668,51.0,49.0
384,90.12338580208333,91.35949382291668,44.0,87.0
385,91.29004955208333,91.72477068750001,63.0,93.0
386,91.79004830208333,92.04560321875,56.0,87.0
387,91.95671455208334,92.13588077083334,59.0,93.0
388,92.12338080208333,92.34282469791667,68.0,105.0
389,91.62338205208334,92.35671355208333,51.0,80.0
390,92.29004705208334,92.4747688125,63.0,103.0
391,91.45671580208334,92.51365760416667,44.0,72.0
392,92.45671330208334,92.63865729166668,59.0,93.0
393,92.62337955208334,92.749768125,56.0,95.0
394,93.12337830208334,93.58448826041668,47.0,58.0
395,93.45671080208334,93.76226559375,52.0,87.0
396,92.79004580208334,93.88032085416667,40.0,90.0
397,93.79004330208333,93.98448726041667,47.0,60.0
398,93.45671080208334,94.01643162500001,59.0,83.0
399,93.95670955208334,94.083098125,52.0,83.0
400,94.45670830208334,94.69976325,54.0,80.0
401,94.62337455208333,94.76781863541667,58.0,87.0
402,94.29004205208334,94.90115163541667,49.0,66.0
403,94.12337580208334,94.96781813541668,42.0,87.0
404,94.79004080208334,95.03031797916667,61.0,102.0
405,95.12337330208334,95.20531754166667,54.0,85.0
406,95.45670580208333,95.73031622916668,54.0,87.0
407,95.45670580208333,95.8080938125,51.0,85.0
408,95.79003830208333,96.26364822916668,46.0,43.0
409,96.12337080208334,96.29698147916667,51.0,87.0
410,96.12337080208334,96.29698147916667,58.0,83.0
411,95.45670580208333,96.61920289583334,39.0,83.0
412,96.45670330208334,96.64003617708333,46.0,50.0
413,96.62336955208333,96.88170223958333,51.0,87.0
414,96.95670205208334,97.2080903125,51.0,87.0
415,96.62336955208333,97.32059003125,63.0,102.0
416,96.95670205208334,97.44142306250001,46.0,69.0
417,97.29003455208334,97.52753395833334,58.0,72.0
418,97.45670080208333,97.85253314583333,46.0,70.0
419,97.79003330208334,97.91364410416668,51.0,87.0
420,96.79003580208334,97.91919964583334,39.0,83.0
421,97.45670080208333,97.95392178125,63.0,105.0
422,98.12336580208334,98.53030922916668,59.0,87.0
423,98.12336580208334,98.54003142708333,56.0,80.0
424,98.45669830208334,98.87336392708333,51.0,67.0
425,98.79003080208334,99.12614107291667,56.0,87.0
426,98.12336580208334,99.25114076041667,44.0,87.0
427,98.79003080208334,99.29280732291667,63.0,93.0
428,99.12336330208333,99.33308500000001,51.0,67.0
429,99.29002955208334,99.75113951041668,59.0,72.0
430,99.79002830208334,100.02058328125001,56.0,74.0
431,99.62336205208334,100.14002742708334,51.0,67.0
432,99.95669455208333,100.25947157291667,63.0,95.0
433,100.12336080208334,100.45669330208334,56.0,80.0
434,100.45669330208334,100.54697085416667,51.0,65.0
435,99.45669580208335,100.55252639583334,44.0,87.0
436,100.79002580208333,101.20252477083334,56.0,69.0
437,100.79002580208333,101.21919139583333,61.0,66.0
438,101.12335830208333,101.58446826041667,44.0,64.0
439,101.45669080208334,101.79835661458334,56.0,90.0
440,101.45669080208334,102.02335605208334,64.0,93.0
441,101.95668955208333,102.18168898958334,56.0,74.0
442,102.12335580208334,102.37196629166667,61.0,80.0
443,102.45668830208334,102.60946569791668,56.0,60.0
444,100.79002580208333,102.96640925000001,37.0,87.0
445,102.79002080208333,103.00946469791667,56.0,102.0
446,101.79002330208334,103.01224246875,44.0,64.0
447,102.79002080208333,103.14557546875001,64.0,90.0
448,103.12335330208334,103.17613094791668,56.0,27.0
449,103.12335330208334,103.32751945833334,61.0,67.0
450,103.45668580208334,103.90668467708333,58.0,69.0
451,103.45668580208334,103.9414068125,63.0,74.0
452,104.12335080208334,104.3330725,66.0,80.0
453,104.29001705208334,104.46501661458333,63.0,87.0
454,104.45668330208333,104.64001617708334,58.0,83.0
455,103.45668580208334,104.6414050625,39.0,74.0
456,103.79001830208334,104.64834948958334,46.0,53.0
457,104.79001580208335,105.26640350000001,58.0,68.0
458,104.79001580208335,105.34695885416667,63.0,74.0
459,105.12334830208334,105.56084720833334,46.0,50.0
460,104.79001580208335,105.56918052083334,39.0,74.0
461,105.45668080208334,105.61223596875,58.0,74.0
462,105.45668080208334,105.86084645833334,66.0,72.0
463,105.79001330208334,105.91223521875001,58.0,69.0
464,106.12334580208334,106.54001142708334,59.0,70.0
465,106.12334580208334,106.56084470833333,56.0,69.0
466,106.45667830208333,106.88584389583333,51.0,63.0
467,106.79001080208334,107.09278782291668,56.0,93.0
468,106.79001080208334,107.20945419791667,63.0,90.0
469,106.12334580208334,107.39834261458334,44.0,80.0
470,107.12334330208334,107.4413980625,51.0,64.0
471,107.29000955208333,107.49139793750001,56.0,71.0
472,107.45667580208334,107.74695285416668,59.0,74.0
473,108.12334080208333,108.43167336458333,56.0,80.0
474,107.62334205208334,108.57056190625,51.0,63.0
475,107.45667580208334,108.60806181250001,44.0,93.0
476,108.45667330208335,108.62472843750001,59.0,80.0
477,108.79000580208334,109.45250414583334,56.0,63.0
478,108.79000580208334,109.46361522916668,59.0,67.0
479,109.79000330208333,109.90666967708334,56.0,87.0
480,109.79000330208333,109.91916964583334,63.0,102.0
481,109.45667080208334,110.29000205208334,51.0,70.0
482,110.45666830208334,110.84277844791667,51.0,66.0
483,108.79000580208334,110.94277819791667,44.0,80.0
484,110.79000080208334,110.949722625,56.0,93.0
485,110.79000080208334,110.9913891875,59.0,93.0
486,111.12333330208334,111.23861079166667,56.0,69.0
487,111.45666580208334,111.75110951041667,56.0,74.0
488,111.45666580208334,111.75110951041667,61.0,80.0
489,111.95666455208334,112.04138656250001,56.0,71.0
490,111.95666455208334,112.04416433333334,61.0,71.0
491,111.45666580208334,112.16638625,49.0,69.0
492,112.45666330208334,112.81916239583335,56.0,72.0
493,112.45666330208334,112.98721753125001,64.0,74.0
494,113.12332830208334,113.24832798958334,56.0,69.0
495,112.45666330208334,113.55527166666667,49.0,68.0
496,113.45666080208333,113.57054940625001,56.0,87.0
497,113.45666080208333,113.68443801041667,61.0,95.0
498,114.12332580208334,114.76082420833335,58.0,80.0
499,114.45665830208334,115.34554496875,49.0,61.0
500,115.12332330208334,115.87193254166667,54.0,87.0
501,115.12332330208334,116.20665392708334,61.0,93.0
502,115.78998830208334,116.27470931250001,49.0,68.0
503,114.12332580208334,116.31220921875001,42.0,80.0
504,116.12332080208334,116.34832023958334,54.0,102.0
505,116.28998705208333,116.44970887500001,58.0,83.0
506,116.45665330208334,116.57748633333334,61.0,102.0
507,116.78998580208334,117.1413738125,58.0,68.0
508,116.78998580208334,117.1580404375,63.0,83.0
509,117.45665080208335,117.63581702083334,58.0,69.0
510,117.78998330208334,118.23303775000001,58.0,83.0
511,117.78998330208334,118.31220421875001,66.0,90.0
512,117.12331830208333,118.6413700625,46.0,59.0
513,118.78998080208333,118.98859141666668,63.0,102.0
514,116.78998580208334,119.05942457291667,39.0,71.0
515,118.95664705208334,119.13442438541668,46.0,70.0
516,119.12331330208335,119.249701875,58.0,87.0
517,119.45664580208334,119.84275594791667,56.0,71.0
518,119.45664580208334,119.86775588541667,59.0,74.0
519,120.12331080208334,120.249699375,56.0,72.0
520,120.45664330208334,120.63858729166667,56.0,95.0
521,120.45664330208334,120.64414283333333,63.0,95.0
522,119.78997830208334,120.64692060416667,51.0,68.0
523,121.45664080208334,121.60664042708333,59.0,93.0
524,121.12330830208334,121.78025110416667,51.0,68.0
525,121.62330705208333,121.84275094791667,56.0,85.0
526,119.45664580208334,121.86358422916668,44.0,74.0
527,121.78997330208334,121.93163961458335,59.0,83.0
528,122.12330580208334,122.3246941875,56.0,72.0
529,122.12330580208334,122.5246936875,61.0,72.0
530,122.45663830208333,122.63441563541667,56.0,68.0
531,122.12330580208334,122.94691485416668,49.0,70.0
532,123.12330330208334,123.42608032291668,56.0,85.0
533,122.78997080208335,123.57052440625,64.0,85.0
534,123.78996830208334,124.23857829166667,47.0,64.0
535,124.12330080208334,124.28857816666667,56.0,66.0
536,124.12330080208334,124.2913559375,59.0,70.0
537,123.45663580208334,124.30663367708334,40.0,87.0
538,124.12330080208334,124.31080033333333,52.0,66.0
539,124.78996580208334,125.18857591666668,51.0,72.0
540,124.78996580208334,125.26913127083334,58.0,72.0
541,125.45663080208334,125.89412970833334,51.0,85.0
542,125.78996330208334,126.06218484375,63.0,102.0
543,126.12329580208333,126.26357322916667,58.0,80.0
544,126.45662830208335,126.60801681250001,51.0,87.0
545,126.78996080208334,126.91634937500001,51.0,95.0
546,125.12329830208334,126.92884934375,46.0,50.0
547,124.78996580208334,126.95384928125,39.0,80.0
548,126.78996080208334,127.11218221875001,54.0,90.0
549,127.12329330208334,127.16912652083334,51.0,68.0
550,127.45662580208334,127.85245814583334,56.0,85.0
551,127.45662580208334,128.10940194791667,59.0,87.0
552,128.12329080208335,128.25245714583335,56.0,74.0
553,128.45662330208333,128.666345,63.0,93.0
554,128.45662330208333,128.67606719791667,56.0,72.0
555,127.78995830208333,128.9552331666667,51.0,70.0
556,129.28995455208334,129.52606507291668,56.0,80.0
557,129.45662080208334,129.62050928125,59.0,87.0
558,129.12328830208335,129.849675375,51.0,63.0
559,127.45662580208334,129.85245314583335,44.0,80.0
560,130.12328580208333,130.58161798958335,56.0,67.0
561,130.12328580208333,130.8746728125,59.0,74.0
562,130.78995080208335,130.883006125,56.0,44.0
563,131.12328330208334,131.333005,56.0,87.0
564,130.45661830208334,131.33439388541666,51.0,60.0
565,131.12328330208334,131.67050415625002,63.0,87.0
566,132.12328080208334,132.17466956250001,56.0,61.0
567,131.78994830208333,132.27189154166666,51.0,30.0
568,130.12328580208333,132.42883559375,44.0,83.0
569,132.12328080208334,132.52050203125,59.0,85.0
570,132.45661330208333,132.61911289583335,56.0,93.0
571,132.78994580208334,133.12883384375002,54.0,80.0
572,132.78994580208334,133.44549971875,58.0,80.0
573,132.78994580208334,133.62188816666668,42.0,80.0
574,133.12327830208335,133.77049890625,49.0,39.0
575,133.45661080208333,133.8760541979167,54.0,69.0
576,133.78994330208334,134.08716478125,58.0,93.0
577,134.12327580208333,134.81771851041668,56.0,74.0
578,134.12327580208333,134.85244064583335,59.0,80.0
579,134.78994080208335,134.92605157291666,51.0,55.0
580,134.12327580208333,134.93994042708334,44.0,74.0
581,135.12327330208333,135.24271744791668,56.0,93.0
582,135.45660580208335,135.88577139583333,52.0,70.0
583,135.45660580208335,136.17882621875,59.0,87.0
584,136.12327080208334,136.35382578125,52.0,74.0
585,135.45660580208335,136.42327005208335,40.0,74.0
586,135.78993830208333,136.47326992708335,47.0,45.0
587,136.45660330208335,136.58021410416669,59.0,90.0
588,136.78993580208333,137.22465693750001,61.0,80.0
589,137.12326830208335,137.51632287500001,56.0,64.0
590,137.45660080208333,137.61771151041668,61.0,87.0
591,136.78993580208333,137.63437813541668,49.0,80.0
592,138.12326580208335,138.47743158333333,58.0,68.0
593,138.12326580208335,138.52743145833335,63.0,87.0
594,138.78993080208335,139.22187416666668,58.0,80.0
595,138.45659830208334,139.62742870833335,46.0,47.0
596,139.12326330208333,139.83159486458334,63.0,93.0
597,138.12326580208335,140.24964937500002,39.0,80.0
598,140.12326080208334,140.25520491666668,63.0,103.0
599,139.78992830208335,140.27187154166668,46.0,55.0
600,140.12326080208334,140.29548259375,58.0,90.0
601,140.45659330208335,140.6093706979167,61.0,87.0
602,140.78992580208333,141.19548034375,56.0,80.0
603,140.78992580208333,141.24825798958335,59.0,83.0
604,141.45659080208335,141.53714615625,56.0,56.0
605,141.78992330208334,141.89964525000002,63.0,87.0
606,141.78992330208334,141.9079785625,56.0,87.0
607,141.12325830208334,142.88575389583335,51.0,59.0
608,142.78992080208334,142.92603157291668,56.0,87.0
609,142.78992080208334,142.93436488541667,59.0,87.0
610,140.78992580208333,143.0413090625,44.0,80.0
611,143.12325330208333,143.249641875,56.0,83.0
612,143.45658580208334,143.80380715625,56.0,72.0
613,143.45658580208334,143.85241814583335,63.0,80.0
614,144.12325080208333,144.29963925,56.0,58.0
615,143.45658580208334,144.41213896875,44.0,83.0
616,143.78991830208335,144.42186116666667,51.0,59.0
617,144.45658330208335,144.64824948958335,59.0,87.0
618,144.78991580208333,145.16908152083334,61.0,87.0
619,145.12324830208334,145.35102551041666,56.0,67.0
620,144.78991580208333,145.62046928125,49.0,80.0
621,145.45658080208335,145.64546921875,64.0,72.0
622,146.12324580208335,146.2746343125,56.0,68.0
623,146.12324580208335,146.47046715625,61.0,85.0
624,146.45657830208333,146.84685510416668,56.0,71.0
625,146.78991080208334,147.21907639583335,61.0,93.0
626,147.12324330208335,147.27602069791666,56.0,74.0
627,146.12324580208335,147.38435376041667,49.0,83.0
628,147.45657580208334,147.6662975,58.0,71.0
629,147.45657580208334,147.85935257291666,63.0,83.0
630,147.78990830208335,147.95657455208334,58.0,74.0
631,147.45657580208334,148.14685185416667,51.0,80.0
632,148.12324080208333,148.26490711458334,63.0,95.0
633,148.78990580208335,149.2246269375,56.0,72.0
634,148.78990580208335,149.52045953125,59.0,74.0
635,149.45657080208335,149.86906977083333,56.0,74.0
636,149.78990330208333,150.2246244375,68.0,103.0
637,150.12323580208334,150.37184629166669,56.0,87.0
638,150.45656830208335,150.62184566666667,63.0,74.0
639,150.78990080208334,151.21212196875,56.0,83.0
640,150.78990080208334,151.23573302083335,59.0,80.0
641,149.12323830208334,151.3093439479167,51.0,63.0
642,148.78990580208335,151.3246216875,44.0,80.0
643,151.45656580208333,151.91489798958335,56.0,67.0
644,151.45656580208333,152.2079528125,59.0,74.0
645,152.12323080208333,152.216286125,56.0,44.0
646,152.45656330208334,152.66628500000002,56.0,87.0
647,151.78989830208334,152.66767388541666,51.0,60.0
648,152.45656330208334,153.00378415625002,63.0,87.0
649,153.45656080208335,153.50794956250002,56.0,61.0
650,153.12322830208333,153.60517154166666,51.0,30.0
651,151.45656580208333,153.76211559375,44.0,83.0
652,153.45656080208335,153.85378203125,59.0,85.0
653,153.78989330208333,153.95239289583336,56.0,93.0
654,154.12322580208334,154.46211384375002,54.0,80.0
655,154.12322580208334,154.77877971875,58.0,80.0
656,154.12322580208334,154.95516816666668,42.0,80.0
657,154.45655830208335,155.10377890625,49.0,39.0
658,154.78989080208333,155.20933419791666,54.0,69.0
659,155.12322330208335,155.42044478125,58.0,93.0
660,155.45655580208333,156.15099851041668,56.0,74.0
661,155.45655580208333,156.18572064583333,59.0,80.0
662,156.12322080208335,156.25933157291666,51.0,55.0
663,155.45655580208333,156.27322042708334,44.0,74.0
664,156.45655330208334,156.57599744791668,56.0,93.0
665,156.78988580208335,157.21905139583333,52.0,70.0
666,156.78988580208335,157.51210621875,59.0,87.0
667,157.45655080208334,157.68710578125,52.0,74.0
668,156.78988580208335,157.75655005208336,40.0,74.0
669,157.12321830208333,157.80654992708335,47.0,45.0
670,157.78988330208335,157.9134941041667,59.0,90.0
671,158.12321580208334,158.55793693750002,61.0,80.0
672,158.45654830208335,158.84960287500002,56.0,64.0
673,158.78988080208333,158.95099151041669,61.0,87.0
674,158.12321580208334,158.96765813541668,49.0,80.0
675,159.45654580208335,159.81071158333333,58.0,68.0
676,159.45654580208335,159.86071145833336,63.0,87.0
677,160.12321080208335,160.55515416666668,58.0,80.0
678,159.78987830208334,160.96070870833333,46.0,47.0
679,160.45654330208333,161.16487486458334,63.0,93.0
680,159.45654580208335,161.58292937500002,39.0,80.0
681,161.45654080208334,161.5884849166667,63.0,103.0
682,161.12320830208336,161.6051515416667,46.0,55.0
683,161.45654080208334,161.62876259375,58.0,90.0
684,161.78987330208335,161.94265069791666,61.0,87.0
685,162.12320580208333,162.52876034375,56.0,80.0
686,162.12320580208333,162.58153798958335,59.0,83.0
687,162.78987080208333,162.87042615625,56.0,56.0
688,163.12320330208334,163.23292525000002,63.0,87.0
689,163.12320330208334,163.2412585625,56.0,87.0
690,162.45653830208335,164.21903389583335,51.0,59.0
691,164.12320080208335,164.2593115729167,56.0,87.0
692,164.12320080208335,164.26764488541667,59.0,87.0
693,162.12320580208333,164.3745890625,44.0,80.0
694,164.45653330208333,164.582921875,56.0,83.0
695,164.78986580208334,165.13708715625,56.0,72.0
696,164.78986580208334,165.18569814583333,63.0,80.0
697,165.45653080208334,165.63291925000001,56.0,58.0
698,164.78986580208334,165.74541896875002,44.0,83.0
699,165.12319830208335,165.75514116666668,51.0,59.0
700,165.78986330208335,165.98152948958335,59.0,87.0
701,166.12319580208333,166.50236152083335,61.0,87.0
702,166.45652830208334,166.68430551041666,56.0,67.0
703,166.12319580208333,166.95374928125,49.0,80.0
704,166.78986080208335,166.97874921875,64.0,72.0
705,167.45652580208335,167.60791431250001,56.0,68.0
706,167.45652580208335,167.80374715625,61.0,85.0
707,167.78985830208333,168.18013510416668,56.0,71.0
708,168.12319080208334,168.55235639583333,61.0,93.0
709,168.45652330208335,168.60930069791667,56.0,74.0
710,167.45652580208335,168.71763376041667,49.0,83.0
711,168.78985580208334,168.99957750000002,58.0,71.0
712,168.78985580208334,169.19263257291666,63.0,83.0
713,169.12318830208335,169.28985455208334,58.0,74.0
714,168.78985580208334,169.48013185416667,51.0,80.0
715,169.45652080208333,169.59818711458334,63.0,95.0
716,170.12318580208336,170.5579069375,56.0,72.0
717,170.12318580208336,170.85373953125,59.0,74.0
718,170.78985080208335,171.20234977083334,56.0,74.0
719,171.12318330208333,171.5579044375,68.0,103.0
720,171.45651580208335,171.7051262916667,56.0,87.0
721,171.78984830208333,171.95512566666667,63.0,74.0
722,172.12318080208334,172.54540196875,56.0,83.0
723,172.12318080208334,172.56901302083335,59.0,80.0
724,170.45651830208334,172.6426239479167,51.0,63.0
725,170.12318580208336,172.65790168750001,44.0,80.0
726,173.12317830208335,173.63845479166667,51.0,69.0
727,173.28984455208334,173.64123256250002,56.0,93.0
728,172.78984580208333,173.69401020833334,44.0,93.0
729,173.62317705208335,173.86345422916668,63.0,102.0
730,173.78984330208334,173.9912316875,59.0,74.0
731,173.95650955208333,174.11900914583333,56.0,72.0
732,174.45650830208334,174.67595219791667,51.0,71.0
733,174.62317455208336,174.749563125,54.0,87.0
734,174.28984205208334,174.88845166666667,46.0,64.0
735,174.12317580208335,174.96206259375,39.0,85.0
736,174.78984080208335,175.01761801041667,54.0,83.0
737,174.78984080208335,175.02317355208334,51.0,95.0
738,174.78984080208335,175.05650680208333,58.0,85.0
739,175.12317330208333,175.23150636458334,39.0,83.0
740,175.45650580208334,175.8578936875,59.0,80.0
741,175.45650580208334,175.87872696875002,56.0,74.0
742,175.78983830208335,176.2217816666667,51.0,51.0
743,176.12317080208334,176.27317042708333,63.0,93.0
744,176.12317080208334,176.28289262500002,56.0,87.0
745,176.62316955208334,176.6745583125,59.0,68.0
746,176.45650330208335,176.68428051041667,51.0,49.0
747,175.45650580208334,176.69261382291668,44.0,87.0
748,176.62316955208334,177.05789068750002,63.0,93.0
749,177.12316830208334,177.37872321875,56.0,87.0
750,177.28983455208333,177.46900077083333,59.0,93.0
751,177.45650080208335,177.67594469791666,68.0,105.0
752,176.95650205208335,177.68983355208334,51.0,80.0
753,177.62316705208335,177.8078888125,63.0,103.0
754,176.78983580208333,177.84677760416668,44.0,72.0
755,177.78983330208334,177.97177729166668,59.0,93.0
756,177.95649955208333,178.082888125,56.0,95.0
757,178.45649830208333,178.91760826041667,47.0,58.0
758,178.78983080208334,179.09538559375002,52.0,87.0
759,178.12316580208335,179.21344085416666,40.0,90.0
760,179.12316330208336,179.31760726041668,47.0,60.0
761,178.78983080208334,179.349551625,59.0,83.0
762,179.28982955208335,179.416218125,52.0,83.0
763,179.78982830208335,180.03288325,54.0,80.0
764,179.95649455208334,180.10093863541667,58.0,87.0
765,179.62316205208333,180.2342716354167,49.0,66.0
766,179.45649580208334,180.3009381354167,42.0,87.0
767,180.12316080208333,180.3634379791667,61.0,102.0
768,180.45649330208335,180.53843754166667,54.0,85.0
769,180.78982580208336,181.06343622916668,54.0,87.0
770,180.78982580208336,181.1412138125,51.0,85.0
771,181.12315830208334,181.59676822916668,46.0,43.0
772,181.45649080208335,181.63010147916668,51.0,87.0
773,181.45649080208335,181.63010147916668,58.0,83.0
774,180.78982580208336,181.95232289583333,39.0,83.0
775,181.78982330208333,181.97315617708335,46.0,50.0
776,181.95648955208335,182.21482223958336,51.0,87.0
777,182.28982205208334,182.5412103125,51.0,87.0
778,181.95648955208335,182.65371003125,63.0,102.0
779,182.28982205208334,182.77454306250002,46.0,69.0
780,182.62315455208335,182.86065395833333,58.0,72.0
781,182.78982080208334,183.18565314583336,46.0,70.0
782,183.12315330208335,183.2467641041667,51.0,87.0
783,182.12315580208335,183.25231964583335,39.0,83.0
784,182.78982080208334,183.28704178125,63.0,105.0
785,183.45648580208334,183.86342922916668,59.0,87.0
786,183.45648580208334,183.87315142708334,56.0,80.0
787,183.78981830208335,184.20648392708335,51.0,67.0
788,184.12315080208333,184.4592610729167,56.0,87.0
789,183.45648580208334,184.58426076041667,44.0,87.0
790,184.12315080208333,184.62592732291668,63.0,93.0
791,184.45648330208334,184.66620500000002,51.0,67.0
792,184.62314955208333,185.08425951041667,59.0,72.0
793,185.12314830208334,185.35370328125,56.0,74.0
794,184.95648205208335,185.47314742708335,51.0,67.0
795,185.28981455208336,185.5925915729167,63.0,95.0
796,185.45648080208335,185.78981330208333,56.0,80.0
797,185.78981330208333,185.88009085416667,51.0,65.0
798,184.78981580208335,185.88564639583333,44.0,87.0
799,186.12314580208334,186.53564477083333,56.0,69.0
800,186.12314580208334,186.55231139583336,61.0,66.0
801,186.45647830208335,186.91758826041666,44.0,64.0
802,186.78981080208334,187.13147661458333,56.0,90.0
803,186.78981080208334,187.35647605208334,64.0,93.0
804,187.28980955208334,187.51480898958334,56.0,74.0
805,187.45647580208333,187.70508629166667,61.0,80.0
806,187.78980830208334,187.94258569791668,56.0,60.0
807,186.12314580208334,188.29952925,37.0,87.0
808,188.12314080208336,188.34258469791666,56.0,102.0
809,187.12314330208335,188.34536246875,44.0,64.0
810,188.12314080208336,188.47869546875,64.0,90.0
811,188.45647330208334,188.50925094791668,56.0,27.0
812,188.45647330208334,188.66063945833335,61.0,67.0
813,188.78980580208335,189.23980467708336,58.0,69.0
814,188.78980580208335,189.2745268125,63.0,74.0
815,189.45647080208335,189.66619250000002,66.0,80.0
816,189.62313705208334,189.79813661458334,63.0,87.0
817,189.78980330208336,189.97313617708335,58.0,83.0
818,188.78980580208335,189.97452506250002,39.0,74.0
819,189.12313830208333,189.98146948958333,46.0,53.0
820,190.12313580208334,190.5995235,58.0,68.0
821,190.12313580208334,190.68007885416668,63.0,74.0
822,190.45646830208335,190.89396720833335,46.0,50.0
823,190.12313580208334,190.90230052083334,39.0,74.0
824,190.78980080208333,190.94535596875002,58.0,74.0
825,190.78980080208333,191.19396645833334,66.0,72.0
826,191.12313330208335,191.24535521875,58.0,69.0
827,191.45646580208336,191.87313142708334,59.0,70.0
828,191.45646580208336,191.89396470833336,56.0,69.0
829,191.78979830208334,192.21896389583335,51.0,63.0
830,192.12313080208335,192.42590782291668,56.0,93.0
831,192.12313080208335,192.54257419791668,63.0,90.0
832,191.45646580208336,192.73146261458334,44.0,80.0
833,192.45646330208334,192.77451806250002,51.0,64.0
834,192.62312955208336,192.82451793750002,56.0,71.0
835,192.78979580208335,193.08007285416667,59.0,74.0
836,193.45646080208334,193.76479336458334,56.0,80.0
837,192.95646205208334,193.90368190625,51.0,63.0
838,192.78979580208335,193.94118181250002,44.0,93.0
839,193.78979330208335,193.95784843750002,59.0,80.0
840,194.45645830208335,194.97173479166668,51.0,69.0
841,194.62312455208334,194.97451256250002,56.0,93.0
842,194.12312580208334,195.02729020833334,44.0,93.0
843,194.95645705208335,195.19673422916668,63.0,102.0
844,195.12312330208334,195.3245116875,59.0,74.0
845,195.28978955208333,195.45228914583333,56.0,72.0
846,195.78978830208334,196.00923219791667,51.0,71.0
847,195.95645455208336,196.082843125,54.0,87.0
848,195.62312205208335,196.22173166666667,46.0,64.0
849,195.45645580208335,196.29534259375,39.0,85.0
850,196.12312080208335,196.35089801041667,54.0,83.0
851,196.12312080208335,196.35645355208334,51.0,95.0
852,196.12312080208335,196.38978680208334,58.0,85.0
853,196.45645330208333,196.56478636458334,39.0,83.0
854,196.78978580208334,197.1911736875,59.0,80.0
855,196.78978580208334,197.21200696875002,56.0,74.0
856,197.12311830208336,197.5550616666667,51.0,51.0
857,197.45645080208334,197.60645042708333,63.0,93.0
858,197.45645080208334,197.61617262500002,56.0,87.0
859,197.95644955208334,198.0078383125,59.0,68.0
860,197.78978330208335,198.01756051041667,51.0,49.0
861,196.78978580208334,198.0258938229167,44.0,87.0
862,197.95644955208334,198.39117068750002,63.0,93.0
863,198.45644830208334,198.71200321875,56.0,87.0
864,198.62311455208334,198.80228077083333,59.0,93.0
865,198.78978080208336,199.00922469791666,68.0,105.0
866,198.28978205208335,199.02311355208334,51.0,80.0
867,198.95644705208335,199.1411688125,63.0,103.0
868,198.12311580208333,199.18005760416668,44.0,72.0
869,199.12311330208334,199.30505729166669,59.0,93.0
870,199.28977955208333,199.416168125,56.0,95.0
871,199.78977830208333,200.25088826041667,47.0,58.0
872,200.12311080208335,200.42866559375,52.0,87.0
873,199.45644580208335,200.54672085416667,40.0,90.0
874,200.45644330208336,200.65088726041668,47.0,60.0
875,200.12311080208335,200.682831625,59.0,83.0
876,200.62310955208335,200.749498125,52.0,83.0
877,201.12310830208335,201.36616325,54.0,80.0
878,201.28977455208334,201.43421863541667,58.0,87.0
879,200.95644205208333,201.56755163541666,49.0,66.0
880,200.78977580208334,201.6342181354167,42.0,87.0
881,201.45644080208334,201.69671797916666,61.0,102.0
882,201.78977330208335,201.87171754166667,54.0,85.0
883,202.12310580208333,202.39671622916669,54.0,87.0
884,202.12310580208333,202.47449381250001,51.0,85.0
885,202.45643830208334,202.9300482291667,46.0,43.0
886,202.78977080208335,202.96338147916669,51.0,87.0
887,202.78977080208335,202.96338147916669,58.0,83.0
888,202.12310580208333,203.28560289583334,39.0,83.0
889,203.12310330208334,203.30643617708336,46.0,50.0
890,203.28976955208336,203.54810223958336,51.0,87.0
891,203.62310205208334,203.8744903125,51.0,87.0
892,203.28976955208336,203.98699003125,63.0,102.0
893,203.62310205208334,204.10782306250002,46.0,69.0
894,203.95643455208335,204.19393395833333,58.0,72.0
895,204.12310080208334,204.51893314583336,46.0,70.0
896,204.45643330208335,204.5800441041667,51.0,87.0
897,203.45643580208335,204.58559964583335,39.0,83.0
898,204.12310080208334,204.62032178125,63.0,105.0
899,204.78976580208334,205.1967092291667,59.0,87.0
900,204.78976580208334,205.20643142708334,56.0,80.0
901,205.12309830208335,205.53976392708336,51.0,67.0
902,205.45643080208333,205.7925410729167,56.0,87.0
903,204.78976580208334,205.91754076041667,44.0,87.0
904,205.45643080208333,205.95920732291668,63.0,93.0
905,205.78976330208334,205.99948500000002,51.0,67.0
906,205.95642955208334,206.41753951041667,59.0,72.0
907,206.45642830208334,206.68698328125,56.0,74.0
908,206.28976205208335,206.80642742708335,51.0,67.0
909,206.62309455208333,206.9258715729167,63.0,95.0
910,206.78976080208335,207.12309330208333,56.0,80.0
911,207.12309330208333,207.21337085416667,51.0,65.0
912,206.12309580208336,207.21892639583334,44.0,87.0
913,207.45642580208334,207.86892477083333,56.0,69.0
914,207.45642580208334,207.88559139583333,61.0,66.0
915,207.78975830208336,208.25086826041667,44.0,64.0
916,208.12309080208334,208.46475661458334,56.0,90.0
917,208.12309080208334,208.68975605208334,64.0,93.0
918,208.62308955208334,208.84808898958335,56.0,74.0
919,208.78975580208333,209.03836629166668,61.0,80.0
920,209.12308830208335,209.2758656979167,56.0,60.0
921,207.45642580208334,209.63280925,37.0,87.0
922,209.45642080208336,209.67586469791667,56.0,102.0
923,208.45642330208335,209.67864246875,44.0,64.0
924,209.45642080208336,209.81197546875,64.0,90.0
925,209.78975330208334,209.84253094791669,56.0,27.0
926,209.78975330208334,209.99391945833335,61.0,67.0
927,210.12308580208335,210.57308467708336,58.0,69.0
928,210.12308580208335,210.6078068125,63.0,74.0
929,210.78975080208335,210.99947250000002,66.0,80.0
930,210.95641705208334,211.13141661458334,63.0,87.0
931,211.12308330208336,211.30641617708335,58.0,83.0
932,210.12308580208335,211.30780506250002,39.0,74.0
933,210.45641830208334,211.31474948958333,46.0,53.0
934,211.45641580208334,211.9328035,58.0,68.0
935,211.45641580208334,212.01335885416668,63.0,74.0
936,211.78974830208335,212.22724720833335,46.0,50.0
937,211.45641580208334,212.23558052083334,39.0,74.0
938,212.12308080208334,212.27863596875002,58.0,74.0
939,212.12308080208334,212.52724645833334,66.0,72.0
940,212.45641330208335,212.57863521875,58.0,69.0
941,212.78974580208333,213.20641142708334,59.0,70.0
942,212.78974580208333,213.22724470833333,56.0,69.0
943,213.12307830208334,213.55224389583336,51.0,63.0
944,213.45641080208335,213.7591878229167,56.0,93.0
945,213.45641080208335,213.87585419791668,63.0,90.0
946,212.78974580208333,214.06474261458334,44.0,80.0
947,213.78974330208334,214.10779806250002,51.0,64.0
948,213.95640955208336,214.15779793750002,56.0,71.0
949,214.12307580208335,214.41335285416667,59.0,74.0
950,214.78974080208334,215.09807336458334,56.0,80.0
951,214.28974205208334,215.23696190625,51.0,63.0
952,214.12307580208335,215.27446181250002,44.0,93.0
953,215.12307330208336,215.29112843750002,59.0,80.0
954,215.45640580208334,215.8633492291667,59.0,87.0
955,215.45640580208334,215.87307142708335,56.0,80.0
956,215.78973830208335,216.20640392708336,51.0,67.0
957,216.12307080208333,216.4591810729167,56.0,87.0
958,215.45640580208334,216.58418076041667,44.0,87.0
959,216.12307080208333,216.62584732291668,63.0,93.0
960,216.45640330208334,216.66612500000002,51.0,67.0
961,216.62306955208334,217.08417951041667,59.0,72.0
962,217.12306830208334,217.35362328125,56.0,74.0
963,216.95640205208335,217.47306742708335,51.0,67.0
964,217.28973455208333,217.5925115729167,63.0,95.0
965,217.45640080208335,217.78973330208333,56.0,80.0
966,217.78973330208333,217.88001085416667,51.0,65.0
967,216.78973580208336,217.88556639583334,44.0,87.0
968,218.12306580208335,218.53556477083333,56.0,69.0
969,218.12306580208335,218.55223139583333,61.0,66.0
970,218.45639830208336,218.91750826041667,44.0,64.0
971,218.78973080208334,219.13139661458334,56.0,90.0
972,218.78973080208334,219.35639605208334,64.0,93.0
973,219.28972955208334,219.51472898958335,56.0,74.0
974,219.45639580208334,219.70500629166668,61.0,80.0
975,219.78972830208335,219.9425056979167,56.0,60.0
976,218.12306580208335,220.29944925,37.0,87.0
977,220.12306080208336,220.34250469791667,56.0,102.0
978,219.12306330208335,220.34528246875,44.0,64.0
979,220.12306080208336,220.47861546875,64.0,90.0
980,220.45639330208334,220.5091709479167,56.0,27.0
981,220.45639330208334,220.66055945833335,61.0,67.0
982,220.78972580208335,221.25916907291668,58.0,74.0
983,220.78972580208335,221.29944675000002,63.0,87.0
984,221.12305830208334,221.63972367708334,46.0,66.0
985,221.45639080208335,221.80361215625,58.0,87.0
986,221.45639080208335,221.86055645833335,63.0,95.0
987,220.78972580208335,221.91472298958334,39.0,87.0
988,221.45639080208335,222.0133338541667,66.0,102.0
989,221.78972330208333,222.22999997916668,46.0,68.0
990,222.12305580208334,224.52027203125002,58.0,69.0
991,222.12305580208334,224.52027203125002,63.0,93.0
992,222.12305580208334,224.52999422916668,39.0,80.0
993,224.75499366666668,225.18554814583334,56.0,80.0
994,224.74804923958334,225.449436375,59.0,80.0
995,225.07721508333336,226.116101375,51.0,68.0
996,225.42582532291667,226.83971067708333,56.0,93.0
997,226.41887839583333,227.00221027083336,51.0,69.0
998,224.74804923958334,227.04804348958334,44.0,87.0
999,225.76888002083334,227.13970992708335,63.0,105.0
1000,226.74248869791668,227.55637555208335,68.0,95.0
1001,227.10359890625,227.55776443750003,56.0,87.0
1002,227.47026465625,228.19387395833334,61.0,70.0
1003,228.12720745833334,228.33831804166667,56.0,95.0
1004,227.76887502083335,228.87303892708334,44.0,67.0
1005,228.43970667708334,229.28970455208335,56.0,74.0
1006,228.42720670833336,229.39387095833334,61.0,90.0
1007,228.42720670833336,229.8133143541667,64.0,87.0
1008,229.45637080208334,229.85220314583336,56.0,93.0
1009,227.46054245833335,229.90914744791667,37.0,87.0
1010,229.14248269791668,229.93553627083335,44.0,47.0
1011,229.79248107291667,230.10081363541667,61.0,90.0
1012,230.09803586458335,230.33136861458334,58.0,68.0
1013,230.10081363541667,231.01053358333334,63.0,80.0
1014,230.44803498958333,231.42303255208336,46.0,52.0
1015,231.09386670833334,232.36886352083334,58.0,87.0
1016,230.76331197916667,232.37858571875,51.0,85.0
1017,230.09803586458335,232.75219589583335,39.0,83.0
1018,231.88692028125,232.77719583333334,46.0,65.0
1019,232.32997472916668,232.95219539583334,54.0,80.0
1020,232.81191796875,233.17302817708335,51.0,93.0
1021,233.72858234375002,234.52719145833333,56.0,93.0
1022,234.09385920833336,234.5758024479167,63.0,93.0
1023,234.53969142708334,234.69802436458335,68.0,102.0
1024,233.49524959375,234.81191296875002,51.0,70.0
1025,235.38274487500001,236.11052083333334,71.0,66.0
1026,235.42857809375002,236.11746526041668,75.0,51.0
1027,235.30913394791668,236.12857634375,68.0,65.0
1028,235.52857784375,236.13135411458336,80.0,55.0
1029,235.15357878125002,236.14802073958336,51.0,54.0
1030,233.17441706250003,236.15357628125003,44.0,87.0
