,start,end,pitch,velocity
0,41.767815375000005,41.980315162500005,72.0,108.0
1,41.98210087500001,42.19460066250001,72.0,102.0
2,42.196386375,42.83745716250001,72.0,108.0
3,42.839242875000004,43.053528375000006,72.0,117.0
4,43.053528375000006,43.482099375000004,70.0,110.0
5,43.482099375000004,43.69638487500001,68.0,104.0
6,43.69638487500001,45.196383375,72.0,119.0
7,45.196383375,45.408883162500004,70.0,104.0
8,45.410668875000006,45.62316866250001,70.0,100.0
9,45.62495437500001,46.26781087500001,70.0,107.0
10,46.26781087500001,46.482096375000005,72.0,114.0
11,46.482096375000005,46.910667375,70.0,108.0
12,46.910667375,47.124952875000005,68.0,100.0
13,47.124952875000005,48.62495137500001,65.0,100.0
14,48.62495137500001,48.83745116250001,63.0,91.0
15,48.839236875000005,49.051736662500005,63.0,94.0
16,49.05352237500001,49.482093375000005,63.0,98.0
17,49.482093375000005,49.69637887500001,65.0,96.0
18,49.69637887500001,50.337449662500006,67.0,97.0
19,50.33923537500001,50.767806375000006,67.0,100.0
20,50.767806375000006,51.196377375000004,65.0,96.0
21,51.196377375000004,51.41066287500001,63.0,88.0
22,51.41066287500001,55.482087375000006,65.0,92.0
23,55.482087375000006,55.69458716250001,72.0,108.0
24,55.69637287500001,55.90887266250001,72.0,100.0
25,55.910658375000004,56.55172916250001,72.0,107.0
26,56.553514875000005,56.76780037500001,72.0,110.0
27,56.76780037500001,57.196371375000005,70.0,107.0
28,57.196371375000005,57.41065687500001,68.0,100.0
29,57.41065687500001,58.910655375000005,72.0,113.0
30,58.910655375000005,59.123155162500005,70.0,107.0
31,59.12494087500001,59.33744066250001,70.0,100.0
32,59.33922637500001,59.98208287500001,70.0,104.0
33,59.98208287500001,60.196368375000006,72.0,96.0
34,60.196368375000006,60.62493937500001,70.0,102.0
35,60.62493937500001,60.84636772500001,68.0,93.0
36,60.839224875000006,62.33922337500001,65.0,92.0
37,62.33922337500001,62.55172316250001,63.0,100.0
38,62.553508875000006,62.766008662500006,63.0,102.0
39,62.76779437500001,63.196365375000006,63.0,104.0
40,63.196365375000006,63.41065087500001,65.0,100.0
41,63.41065087500001,64.05172166250001,67.0,113.0
42,64.05350737500001,64.910649375,67.0,116.0
43,64.910649375,65.12493487500001,68.0,108.0
44,65.12493487500001,65.3374346625,67.0,90.0
45,65.33922037500001,65.98029116250001,67.0,106.0
46,65.982076875,68.339217375,67.0,102.0
47,68.339217375,68.59278855000001,68.0,110.0
48,68.553502875,68.76778837500001,70.0,110.0
49,68.76778837500001,69.19635937500001,72.0,114.0
50,69.19635937500001,69.62314466250001,75.0,114.0
51,69.624930375,70.05350137500001,75.0,116.0
52,70.05350137500001,70.26778687500001,72.0,102.0
53,70.26778687500001,71.55349987500001,75.0,116.0
54,71.55349987500001,71.76599966250001,72.0,116.0
55,71.767785375,71.982070875,72.0,110.0
56,71.982070875,72.19635637500001,73.0,113.0
57,72.19635637500001,72.62492737500001,72.0,113.0
58,72.62492737500001,72.8374271625,70.0,110.0
59,72.83921287500002,75.19635337500002,70.0,110.0
60,75.19635337500002,75.624924375,72.0,116.0
61,75.624924375,76.05349537500001,70.0,110.0
62,76.05349537500001,76.26778087500001,68.0,116.0
63,76.26778087500001,78.62492137500001,65.0,108.0
64,78.62492137500001,78.86956398750002,68.0,107.0
65,78.83920687500002,79.06063522500001,70.0,108.0
66,79.053492375,79.48027766250001,72.0,110.0
67,79.48206337500001,79.91063437500001,72.0,113.0
68,79.91063437500001,80.339205375,73.0,113.0
69,80.339205375,80.55170516250001,72.0,104.0
70,80.55349087500001,81.19634737500002,72.0,110.0
71,81.19634737500002,82.05348937500001,70.0,104.0
72,82.05348937500001,82.26777487500001,68.0,107.0
73,82.26777487500001,82.48206037500002,70.0,100.0
74,82.48206037500002,82.91063137500001,72.0,114.0
75,82.91063137500001,83.3374166625,75.0,114.0
76,83.33920237500001,83.767773375,75.0,114.0
77,83.767773375,83.982058875,72.0,100.0
78,83.982058875,84.40884416250002,77.0,117.0
79,84.41062987500001,84.62491537500001,77.0,117.0
80,84.62491537500001,85.26777187500001,75.0,114.0
81,85.26777187500001,85.48027166250002,72.0,98.0
82,85.48205737500001,85.69634287500001,72.0,107.0
83,85.69634287500001,85.91062837500002,73.0,104.0
84,85.91062837500002,86.339199375,72.0,114.0
85,86.339199375,86.55169916250001,70.0,113.0
86,86.55348487500001,88.90883966250001,70.0,114.0
87,88.91062537500001,89.12491087500001,70.0,113.0
88,89.12491087500001,89.33919637500001,72.0,91.0
89,89.33919637500001,89.767767375,70.0,114.0
90,89.767767375,89.98205287500001,68.0,114.0
91,89.98205287500001,91.48205137500001,65.0,110.0
92,91.48205137500001,91.69633687500001,67.0,119.0
93,91.69633687500001,91.98026516250002,68.0,91.0
94,91.91062237500002,92.33919337500001,67.0,116.0
95,92.33919337500001,92.55347887500001,63.0,110.0
96,92.55347887500001,92.91597851250002,65.0,113.0
97,106.91060737500001,107.12310716250002,72.0,108.0
98,107.12489287500001,107.33739266250001,72.0,102.0
99,107.33917837500002,107.98024916250002,72.0,108.0
100,107.98203487500001,108.19632037500001,72.0,117.0
101,108.19632037500001,108.62489137500002,70.0,110.0
102,108.62489137500002,108.83917687500002,68.0,104.0
103,108.83917687500002,110.33917537500001,72.0,119.0
104,110.33917537500001,110.55167516250002,70.0,104.0
105,110.55346087500001,110.76596066250002,70.0,100.0
106,110.76774637500002,111.41060287500001,70.0,107.0
107,111.41060287500001,111.62488837500001,72.0,114.0
108,111.62488837500001,112.05345937500002,70.0,108.0
109,112.05345937500002,112.26774487500002,68.0,100.0
110,112.26774487500002,113.76774337500001,65.0,100.0
111,113.76774337500001,113.98024316250002,63.0,91.0
112,113.98202887500001,114.19452866250002,63.0,94.0
113,114.19631437500001,114.62488537500002,63.0,98.0
114,114.62488537500002,114.83917087500002,65.0,96.0
115,114.83917087500002,115.48024166250002,67.0,97.0
116,115.48202737500002,115.91059837500002,67.0,100.0
117,115.91059837500002,116.33916937500001,65.0,96.0
118,116.33916937500001,116.55345487500001,63.0,88.0
119,116.55345487500001,120.62487937500002,65.0,92.0
120,120.62487937500002,120.83737916250001,72.0,108.0
121,120.83916487500002,121.05166466250002,72.0,100.0
122,121.05345037500001,121.69452116250001,72.0,107.0
123,121.69630687500002,121.91059237500002,72.0,110.0
124,121.91059237500002,122.33916337500001,70.0,107.0
125,122.33916337500001,122.55344887500002,68.0,100.0
126,122.55344887500002,124.05344737500002,72.0,113.0
127,124.05344737500002,124.26594716250001,70.0,107.0
128,124.26773287500002,124.48023266250001,70.0,100.0
129,124.48201837500001,125.12487487500002,70.0,104.0
130,125.12487487500002,125.33916037500002,72.0,96.0
131,125.33916037500002,125.76773137500001,70.0,102.0
132,125.76773137500001,125.98915972500002,68.0,93.0
133,125.98201687500001,127.48201537500002,65.0,92.0
134,127.48201537500002,127.69451516250001,63.0,100.0
135,127.69630087500002,127.90880066250001,63.0,102.0
136,127.91058637500002,128.339157375,63.0,104.0
137,128.339157375,128.55344287500003,65.0,100.0
138,128.55344287500003,129.19451366250001,67.0,113.0
139,129.19629937500002,130.053441375,67.0,116.0
140,130.053441375,130.26772687500002,68.0,108.0
141,130.26772687500002,130.48022666250003,67.0,90.0
142,130.482012375,131.12308316250002,67.0,106.0
143,131.124868875,133.48200937500002,67.0,102.0
144,133.48200937500002,133.73558055,68.0,110.0
145,133.696294875,133.91058037500002,70.0,110.0
146,133.91058037500002,134.33915137500003,72.0,114.0
147,134.33915137500003,134.76593666250002,75.0,114.0
148,134.767722375,135.196293375,75.0,116.0
149,135.196293375,135.41057887500003,72.0,102.0
150,135.41057887500003,136.69629187500001,75.0,116.0
151,136.69629187500001,136.90879166250002,72.0,116.0
152,136.91057737500003,137.12486287500002,72.0,110.0
153,137.12486287500002,137.339148375,73.0,113.0
154,137.339148375,137.767719375,72.0,113.0
155,137.767719375,137.98021916250002,70.0,110.0
156,137.98200487500003,140.33914537500002,70.0,110.0
157,140.33914537500002,140.76771637500002,72.0,116.0
158,140.76771637500002,141.19628737500003,70.0,110.0
159,141.19628737500003,141.410572875,68.0,116.0
160,141.410572875,143.76771337500003,65.0,108.0
161,143.76771337500003,144.01235598750003,68.0,107.0
162,143.98199887500002,144.203427225,70.0,108.0
163,144.196284375,144.62306966250003,72.0,110.0
164,144.624855375,145.05342637500002,72.0,113.0
165,145.05342637500002,145.48199737500002,73.0,113.0
166,145.48199737500002,145.69449716250003,72.0,104.0
167,145.696282875,146.33913937500003,72.0,110.0
168,146.33913937500003,147.196281375,70.0,104.0
169,147.196281375,147.41056687500003,68.0,107.0
170,147.41056687500003,147.62485237500002,70.0,100.0
171,147.62485237500002,148.05342337500002,72.0,114.0
172,148.05342337500002,148.48020866250002,75.0,114.0
173,148.48199437500003,148.91056537500003,75.0,114.0
174,148.91056537500003,149.12485087500002,72.0,100.0
175,149.12485087500002,149.55163616250002,77.0,117.0
176,149.55342187500003,149.76770737500001,77.0,117.0
177,149.76770737500001,150.410563875,75.0,114.0
178,150.410563875,150.62306366250002,72.0,98.0
179,150.62484937500003,150.839134875,72.0,107.0
180,150.839134875,151.05342037500003,73.0,104.0
181,151.05342037500003,151.481991375,72.0,114.0
182,151.481991375,151.69449116250001,70.0,113.0
183,151.69627687500002,154.05163166250003,70.0,114.0
184,154.053417375,154.26770287500003,70.0,113.0
185,154.26770287500003,154.48198837500001,72.0,91.0
186,154.48198837500001,154.91055937500002,70.0,114.0
187,154.91055937500002,155.124844875,68.0,114.0
188,155.124844875,156.624843375,65.0,110.0
189,156.624843375,156.83912887500003,67.0,119.0
190,156.83912887500003,157.12305716250003,68.0,91.0
191,157.05341437500002,157.48198537500002,67.0,116.0
192,157.48198537500002,157.696270875,63.0,110.0
193,157.696270875,158.05877051250002,65.0,113.0
194,212.44621612500003,212.69978730000003,68.0,110.0
195,212.66050162500002,212.87478712500004,70.0,110.0
196,212.87478712500004,213.30335812500002,72.0,114.0
197,213.30335812500002,213.73014341250004,75.0,114.0
198,213.73192912500002,214.16050012500003,75.0,116.0
199,214.16050012500003,214.37478562500002,72.0,102.0
200,214.37478562500002,215.66049862500003,75.0,116.0
201,215.66049862500003,215.87299841250004,72.0,116.0
202,215.87478412500002,216.08906962500004,72.0,110.0
203,216.08906962500004,216.30335512500002,73.0,113.0
204,216.30335512500002,216.73192612500003,72.0,113.0
205,216.73192612500003,216.94442591250004,70.0,110.0
206,216.94621162500002,219.30335212500003,70.0,110.0
207,219.30335212500003,219.73192312500004,72.0,116.0
208,219.73192312500004,220.16049412500004,70.0,110.0
209,220.16049412500004,220.37477962500003,68.0,116.0
210,220.37477962500003,222.73192012500002,65.0,108.0
211,222.73192012500002,222.97656273750002,68.0,107.0
212,222.94620562500003,223.16763397500003,70.0,108.0
213,223.16049112500002,223.58727641250002,72.0,110.0
214,223.58906212500003,224.01763312500003,72.0,113.0
215,224.01763312500003,224.44620412500004,73.0,113.0
216,224.44620412500004,224.65870391250002,72.0,104.0
217,224.66048962500003,225.30334612500002,72.0,110.0
218,225.30334612500002,226.16048812500003,70.0,104.0
219,226.16048812500003,226.37477362500002,68.0,107.0
220,226.37477362500002,226.58905912500003,70.0,100.0
221,226.58905912500003,227.01763012500004,72.0,114.0
222,227.01763012500004,227.44441541250004,75.0,114.0
223,227.44620112500002,227.87477212500002,75.0,114.0
224,227.87477212500002,228.08905762500004,72.0,100.0
225,228.08905762500004,228.51584291250003,77.0,117.0
226,228.51762862500004,228.73191412500003,77.0,117.0
227,228.73191412500003,229.37477062500002,75.0,114.0
228,229.37477062500002,229.58727041250003,72.0,98.0
229,229.58905612500004,229.80334162500003,72.0,107.0
230,229.80334162500003,230.01762712500002,73.0,104.0
231,230.01762712500002,230.44619812500002,72.0,114.0
232,230.44619812500002,230.65869791250003,70.0,113.0
233,230.66048362500004,233.01583841250002,70.0,114.0
234,233.01762412500003,233.23190962500004,70.0,113.0
235,233.23190962500004,233.44619512500003,72.0,91.0
236,233.44619512500003,233.87476612500004,70.0,114.0
237,233.87476612500004,234.08905162500002,68.0,114.0
238,234.08905162500002,235.58905012500003,65.0,110.0
239,235.58905012500003,235.80333562500002,67.0,119.0
240,235.80333562500002,236.08726391250002,68.0,91.0
241,236.01762112500003,236.44619212500004,67.0,116.0
242,236.44619212500004,236.66047762500003,63.0,110.0
243,239.87476012500002,240.12833130000004,68.0,110.0
244,236.66047762500003,240.19618837500002,65.0,113.0
245,240.08904562500004,240.30333112500003,70.0,110.0
246,240.30333112500003,240.73190212500003,72.0,114.0
247,240.73190212500003,241.15868741250003,75.0,114.0
248,241.16047312500004,241.58904412500004,75.0,116.0
249,241.58904412500004,241.80332962500003,72.0,102.0
250,241.80332962500003,243.08904262500002,75.0,116.0
251,243.08904262500002,243.30154241250003,72.0,116.0
252,243.30332812500004,243.51761362500002,72.0,110.0
253,243.51761362500002,243.73189912500004,73.0,113.0
254,243.73189912500004,244.16047012500005,72.0,113.0
255,244.16047012500005,244.37296991250003,70.0,110.0
256,244.37475562500003,246.73189612500002,70.0,110.0
257,246.73189612500002,247.16046712500003,72.0,116.0
258,247.16046712500003,247.58903812500003,70.0,110.0
259,247.58903812500003,247.80332362500002,68.0,116.0
260,247.80332362500002,250.16046412500003,65.0,108.0
261,250.16046412500003,250.40510673750003,68.0,107.0
262,250.37474962500002,250.59617797500005,70.0,108.0
263,250.58903512500004,251.01582041250003,72.0,110.0
264,251.01760612500004,251.44617712500002,72.0,113.0
265,251.44617712500002,251.87474812500002,73.0,113.0
266,251.87474812500002,252.08724791250003,72.0,104.0
267,252.08903362500004,252.73189012500004,72.0,110.0
268,252.73189012500004,253.58903212500005,70.0,104.0
269,253.58903212500005,253.80331762500003,68.0,107.0
270,253.80331762500003,254.01760312500002,70.0,100.0
271,254.01760312500002,254.44617412500003,72.0,114.0
272,254.44617412500003,254.87295941250002,75.0,114.0
273,254.87474512500003,255.30331612500004,75.0,114.0
274,255.30331612500004,255.51760162500003,72.0,100.0
275,255.51760162500003,255.94438691250002,77.0,117.0
276,255.94617262500003,256.16045812500005,77.0,117.0
277,256.16045812500005,256.80331462500004,75.0,114.0
278,256.80331462500004,257.01581441250005,72.0,98.0
279,257.01760012500006,257.231885625,72.0,107.0
280,257.231885625,257.44617112500003,73.0,104.0
281,257.44617112500003,257.874742125,72.0,114.0
282,257.874742125,258.0872419125,70.0,113.0
283,258.089027625,260.44438241250003,70.0,114.0
284,260.44616812500004,260.66045362500006,70.0,113.0
285,260.66045362500006,260.874739125,72.0,91.0
286,260.874739125,261.30331012500005,70.0,114.0
287,261.30331012500005,261.517595625,68.0,114.0
288,261.517595625,263.017594125,65.0,110.0
289,263.017594125,263.23187962500003,67.0,119.0
290,263.23187962500003,263.5158079125,68.0,91.0
291,263.44616512500005,263.874736125,67.0,116.0
292,263.874736125,264.08902162500004,63.0,110.0
293,264.08902162500004,265.05330637500003,65.0,113.0
