,start,end,pitch,velocity
0,0.08928562500000001,3.1982110875000003,72.0,93.0
1,0.08928562500000001,3.4857108000000006,53.0,88.0
2,0.08928562500000001,3.5285679000000005,65.0,87.0
3,3.5178536250000003,6.6910647375000005,49.0,78.0
4,3.5178536250000003,6.849993150000001,61.0,80.0
5,3.5178536250000003,6.905350237500001,68.0,81.0
6,6.946421625000001,8.401777312500002,46.0,89.0
7,7.803563625000001,8.432134425000001,58.0,78.0
8,7.374992625000001,8.546420025000002,53.0,76.0
9,8.660705625,10.0767756375,48.0,87.0
10,9.089276625000002,10.155346987500002,55.0,76.0
11,9.517847625000002,10.399989600000001,58.0,84.0
12,11.232131625000001,13.283915287500001,65.0,72.0
13,11.660702625,13.364272350000002,72.0,75.0
14,10.803560625000001,13.446415125000001,60.0,72.0
15,11.660702625,13.460700825000002,68.0,72.0
16,10.374989625000001,13.524986475000002,53.0,85.0
17,13.803557625000002,16.839268875000002,72.0,86.0
18,13.803557625000002,16.887483112500004,53.0,84.0
19,13.803557625000002,16.996411575000003,65.0,83.0
20,17.232125625000002,20.133908437500004,49.0,78.0
21,17.232125625000002,20.346408225,61.0,83.0
22,17.232125625000002,20.353551075000002,68.0,84.0
23,20.660693625000004,22.191049237500003,46.0,86.0
24,21.517835625000004,22.323191962500005,58.0,86.0
25,21.089264625000002,22.346406225000003,53.0,67.0
26,22.374977625000003,23.771404800000003,48.0,84.0
27,22.803548625,23.833904737500003,55.0,73.0
28,23.232119625000003,24.114261600000003,58.0,80.0
29,24.946403625000002,25.589260125000003,65.0,81.0
30,25.374974625000004,25.605331537500003,68.0,78.0
31,24.517832625000004,25.660688625000002,60.0,76.0
32,24.089261625000002,25.696402875000004,53.0,86.0
33,25.803545625,27.364258350000004,63.0,88.0
34,25.803545625,27.371401200000005,70.0,88.0
35,25.803545625,27.398186887500003,67.0,89.0
36,25.803545625,27.424972575000005,51.0,87.0
37,27.517829625000005,30.458898112500005,72.0,88.0
38,27.517829625000005,30.598183687500004,68.0,89.0
39,27.517829625000005,30.782112075000004,53.0,87.0
40,27.517829625000005,30.817826325000006,65.0,88.0
41,30.946397625000003,34.1767515375,61.0,82.0
42,30.946397625000003,34.18032296250001,65.0,86.0
43,30.946397625000003,34.183894387500004,68.0,83.0
44,30.946397625000003,34.228537200000005,49.0,83.0
45,34.374965625,35.469607387500005,61.0,77.0
46,34.374965625,35.517821625,70.0,86.0
47,34.374965625,35.619607237500006,65.0,83.0
48,34.374965625,35.660678625,58.0,77.0
49,34.374965625,36.76782037500001,46.0,78.0
50,36.08924962500001,37.4374625625,64.0,79.0
51,36.08924962500001,37.466033962500006,72.0,84.0
52,36.08924962500001,37.671390900000006,48.0,81.0
53,36.08924962500001,37.6803194625,67.0,78.0
54,37.80353362500001,41.294601562500006,65.0,78.0
55,37.80353362500001,41.299958700000005,68.0,81.0
56,37.80353362500001,41.312458687500005,72.0,79.0
57,37.80353362500001,41.33924437500001,53.0,69.0
58,41.33924437500001,41.8838866875,72.0,88.0
59,41.33924437500001,41.896386675,65.0,87.0
60,42.196386375,42.908885662500005,65.0,87.0
61,42.196386375,42.926742787500004,72.0,86.0
62,43.053528375000006,43.712456287500004,65.0,81.0
63,43.053528375000006,43.726741987500006,72.0,78.0
64,41.767815375000005,44.037455962500005,60.0,64.0
65,41.33924437500001,44.099955900000005,53.0,84.0
66,43.910670375,44.60709825000001,65.0,82.0
67,43.910670375,44.7410266875,72.0,84.0
68,44.767812375000005,45.408883162500004,73.0,84.0
69,44.767812375000005,45.453525975000005,65.0,64.0
70,45.62495437500001,46.28031086250001,73.0,83.0
71,45.62495437500001,46.31066797500001,65.0,81.0
72,46.482096375000005,47.18923852500001,73.0,83.0
73,46.482096375000005,47.1981670875,65.0,83.0
74,47.33923837500001,47.655309487500006,65.0,87.0
75,47.33923837500001,47.830309312500006,73.0,88.0
76,44.767812375000005,47.84995215000001,49.0,71.0
77,44.767812375000005,48.00173771250001,61.0,76.0
78,47.767809375000006,48.02673768750001,65.0,87.0
79,48.196380375000004,48.80530833750001,70.0,80.0
80,48.196380375000004,48.84280830000001,67.0,84.0
81,48.196380375000004,48.89280825000001,63.0,81.0
82,49.05352237500001,49.692807450000004,70.0,78.0
83,49.05352237500001,49.717807425000004,63.0,78.0
84,49.05352237500001,49.717807425000004,67.0,85.0
85,49.910664375,50.542806600000006,70.0,79.0
86,49.910664375,50.567806575000006,67.0,84.0
87,49.910664375,50.58387798750001,63.0,79.0
88,50.767806375000006,51.31780582500001,70.0,80.0
89,50.767806375000006,51.35709150000001,63.0,79.0
90,48.196380375000004,51.37316291250001,51.0,74.0
91,50.767806375000006,51.378520050000006,67.0,84.0
92,51.62494837500001,52.239233475000006,72.0,84.0
93,51.62494837500001,52.27137630000001,68.0,78.0
94,51.62494837500001,52.301733412500006,65.0,75.0
95,51.62494837500001,52.69637587500001,53.0,79.0
96,52.482090375000006,53.12137545000001,72.0,79.0
97,52.482090375000006,53.16601826250001,68.0,78.0
98,52.482090375000006,53.19637537500001,65.0,75.0
99,53.33923237500001,53.93208892500001,72.0,78.0
100,53.33923237500001,53.933874637500004,68.0,76.0
101,53.33923237500001,53.93744606250001,65.0,76.0
102,54.196374375000005,54.79101663750001,72.0,83.0
103,54.196374375000005,54.79280235000001,65.0,83.0
104,54.196374375000005,54.80530233750001,68.0,78.0
105,55.05351637500001,55.52315876250001,65.0,79.0
106,55.05351637500001,55.52315876250001,68.0,81.0
107,55.05351637500001,55.524944475000005,72.0,81.0
108,55.910658375000004,56.53922917500001,72.0,80.0
109,55.910658375000004,56.58387198750001,65.0,78.0
110,55.910658375000004,56.59280055000001,68.0,76.0
111,55.482087375000006,56.93208592500001,60.0,64.0
112,56.76780037500001,57.39458546250001,72.0,84.0
113,56.76780037500001,57.401728312500005,65.0,83.0
114,56.76780037500001,57.41244258750001,68.0,84.0
115,57.62494237500001,57.88387068750001,68.0,87.0
116,57.62494237500001,57.957084900000005,65.0,88.0
117,57.62494237500001,57.962442037500004,60.0,64.0
118,55.05351637500001,58.00351342500001,53.0,87.0
119,58.05351337500001,58.305298837500004,72.0,98.0
120,58.48208437500001,59.00886956250001,70.0,83.0
121,58.48208437500001,59.048155237500005,61.0,78.0
122,58.48208437500001,59.04994095000001,65.0,83.0
123,59.33922637500001,59.92672578750001,70.0,87.0
124,59.33922637500001,59.93922577500001,61.0,86.0
125,59.33922637500001,59.95529718750001,65.0,85.0
126,60.196368375000006,60.769582087500005,61.0,81.0
127,60.196368375000006,60.78386778750001,70.0,81.0
128,60.196368375000006,60.80351062500001,65.0,82.0
129,58.48208437500001,61.417795725000005,46.0,81.0
130,58.48208437500001,61.55350987500001,58.0,81.0
131,61.05351037500001,61.69458116250001,61.0,81.0
132,61.05351037500001,61.71600971250001,70.0,85.0
133,61.05351037500001,61.79458106250001,65.0,86.0
134,61.910652375000005,62.46779467500001,63.0,87.0
135,61.910652375000005,62.48922322500001,60.0,83.0
136,61.910652375000005,62.49993750000001,67.0,84.0
137,62.76779437500001,63.40886516250001,63.0,88.0
138,62.76779437500001,63.42850800000001,60.0,84.0
139,62.76779437500001,63.457079400000005,67.0,78.0
140,63.62493637500001,64.21422150000001,63.0,89.0
141,63.62493637500001,64.246364325,60.0,82.0
142,63.62493637500001,64.31243568750001,67.0,78.0
143,61.910652375000005,64.72850670000001,48.0,78.0
144,64.48207837500001,65.09457776250001,67.0,79.0
145,64.48207837500001,65.1052920375,60.0,85.0
146,64.48207837500001,65.1660062625,63.0,90.0
147,65.33922037500001,66.00707685,68.0,87.0
148,65.33922037500001,66.067791075,60.0,81.0
149,65.33922037500001,66.09993390000001,65.0,79.0
150,66.196362375,66.8231474625,60.0,81.0
151,66.196362375,66.83029031250001,68.0,82.0
152,66.196362375,66.83921887500001,65.0,82.0
153,67.053504375,67.70528943750001,68.0,82.0
154,67.053504375,67.71957513750002,60.0,82.0
155,67.053504375,67.73207512500001,65.0,84.0
156,67.91064637500001,68.43564585000001,60.0,84.0
157,67.91064637500001,68.474931525,68.0,84.0
158,67.91064637500001,68.4945743625,65.0,84.0
159,65.33922037500001,68.54636002500001,53.0,83.0
160,68.76778837500001,69.30885926250001,72.0,88.0
161,68.76778837500001,69.35350207500001,68.0,88.0
162,68.76778837500001,69.39278775000001,63.0,87.0
163,69.624930375,70.42492957500001,72.0,89.0
164,69.624930375,70.43385813750001,63.0,88.0
165,69.624930375,70.4410009875,68.0,88.0
166,70.48207237500002,71.10707175,72.0,87.0
167,70.48207237500002,71.10885746250001,63.0,88.0
168,70.48207237500002,71.11957173750001,68.0,90.0
169,68.76778837500001,71.696356875,44.0,85.0
170,68.76778837500001,71.7874282125,56.0,84.0
171,71.33921437500001,71.9517137625,72.0,88.0
172,71.33921437500001,71.99814228750002,63.0,88.0
173,71.33921437500001,72.03921367500001,68.0,90.0
174,72.19635637500001,72.90885566250002,70.0,91.0
175,72.19635637500001,72.9588556125,63.0,90.0
176,72.19635637500001,72.967784175,67.0,97.0
177,73.053498375,73.59099783750001,70.0,98.0
178,73.053498375,73.5981406875,67.0,106.0
179,73.053498375,73.61242638750001,63.0,91.0
180,73.69635487500001,73.76778337500001,67.0,90.0
181,73.69635487500001,73.77671193750001,70.0,90.0
182,73.69635487500001,73.79992620000002,63.0,88.0
183,74.12492587500002,74.61242538750001,70.0,88.0
184,74.12492587500002,74.62671108750001,67.0,87.0
185,74.12492587500002,74.63563965000002,63.0,86.0
186,72.19635637500001,75.01778212500001,51.0,87.0
187,74.76778237500001,75.30885326250001,63.0,93.0
188,74.76778237500001,75.35706750000001,70.0,100.0
189,74.76778237500001,75.41599601250002,67.0,106.0
190,75.19635337500002,75.42135315000002,51.0,87.0
191,75.624924375,76.18742381250001,68.0,91.0
192,75.624924375,76.26420945000001,61.0,88.0
193,75.624924375,76.29813798750001,65.0,92.0
194,76.48206637500002,77.09278005000002,68.0,88.0
195,76.48206637500002,77.1713514,61.0,89.0
196,76.48206637500002,77.18385138750001,65.0,88.0
197,77.33920837500001,77.92313636250002,68.0,90.0
198,77.33920837500001,77.97492202500001,61.0,90.0
199,77.33920837500001,78.00527913750001,65.0,92.0
200,75.624924375,78.73206412500001,49.0,88.0
201,78.19635037500001,78.75706410000001,61.0,90.0
202,78.19635037500001,78.89099253750001,65.0,92.0
203,78.19635037500001,78.91242108750001,68.0,92.0
204,79.053492375,79.5142062,68.0,89.0
205,79.053492375,79.55170616250001,60.0,89.0
206,79.053492375,79.59099183750001,63.0,91.0
207,79.053492375,80.0195628375,56.0,86.0
208,79.053492375,80.1088484625,44.0,84.0
209,79.91063437500001,80.47849095000001,60.0,94.0
210,79.91063437500001,80.49634807500001,68.0,89.0
211,79.91063437500001,80.66063362500002,63.0,107.0
212,80.76777637500001,81.40170431250002,67.0,86.0
213,80.76777637500001,81.44634712500002,58.0,88.0
214,80.76777637500001,81.48206137500001,63.0,88.0
215,80.76777637500001,81.80170391250002,39.0,87.0
216,80.76777637500001,81.83384673750001,51.0,87.0
217,81.62491837500001,82.10527503750001,58.0,91.0
218,82.05348937500001,82.15527498750001,39.0,86.0
219,82.05348937500001,82.19813208750001,51.0,94.0
220,81.62491837500001,82.23027491250001,67.0,100.0
221,81.62491837500001,82.23741776250002,63.0,110.0
222,82.48206037500002,83.07491692500001,68.0,107.0
223,82.48206037500002,83.10527403750001,63.0,110.0
224,82.48206037500002,83.11598831250001,60.0,93.0
225,83.33920237500001,84.0624159375,68.0,107.0
226,83.33920237500001,84.08205877500001,63.0,114.0
227,83.33920237500001,84.09634447500001,60.0,102.0
228,84.19634437500001,84.78920092500002,68.0,91.0
229,84.19634437500001,84.82670088750001,60.0,90.0
230,84.19634437500001,84.82670088750001,63.0,98.0
231,82.48206037500002,85.553485875,44.0,89.0
232,85.053486375,85.639200075,68.0,98.0
233,85.053486375,85.64277150000001,60.0,96.0
234,82.48206037500002,85.66241433750001,56.0,93.0
235,85.053486375,85.6838428875,63.0,110.0
236,85.91062837500002,86.4999135,70.0,94.0
237,85.91062837500002,86.54812773750001,67.0,100.0
238,85.91062837500002,86.55348487500001,63.0,88.0
239,86.76777037500001,87.49634107500002,70.0,92.0
240,86.76777037500001,87.49812678750001,63.0,91.0
241,86.76777037500001,87.50348392500001,67.0,93.0
242,87.62491237500001,88.25348317500001,70.0,89.0
243,87.62491237500001,88.2659831625,63.0,91.0
244,87.62491237500001,88.26776887500002,67.0,89.0
245,85.91062837500002,88.71419700000001,51.0,88.0
246,88.48205437500002,89.01241098750002,67.0,103.0
247,88.48205437500002,89.02491097500001,70.0,93.0
248,88.48205437500002,89.032053825,63.0,94.0
249,89.33919637500001,89.84633872500001,68.0,96.0
250,89.33919637500001,89.87312441250002,65.0,102.0
251,89.33919637500001,89.92848150000002,61.0,91.0
252,90.19633837500001,90.68205217500001,61.0,90.0
253,90.19633837500001,90.71240928750001,65.0,92.0
254,89.33919637500001,90.7731235125,49.0,86.0
255,90.19633837500001,90.79455206250002,68.0,92.0
256,91.053480375,91.64812263750001,63.0,96.0
257,91.053480375,91.65526548750002,67.0,85.0
258,91.053480375,91.67847975000001,58.0,89.0
259,91.053480375,92.14097928750002,51.0,87.0
260,91.91062237500002,92.44812183750001,58.0,93.0
261,91.91062237500002,92.52669318750002,67.0,90.0
262,91.91062237500002,92.61419310000001,63.0,110.0
263,92.76776437500001,95.70883286250002,72.0,88.0
264,92.76776437500001,95.8481184375,68.0,89.0
265,92.76776437500001,96.03204682500001,53.0,87.0
266,92.76776437500001,96.067761075,65.0,88.0
267,96.19633237500001,99.42668628750002,61.0,82.0
268,96.19633237500001,99.43025771250001,65.0,86.0
269,96.19633237500001,99.43382913750001,68.0,83.0
270,96.19633237500001,99.47847195000001,49.0,83.0
271,99.62490037500001,100.71954213750001,61.0,77.0
272,99.62490037500001,100.76775637500002,70.0,86.0
273,99.62490037500001,100.86954198750001,65.0,83.0
274,99.62490037500001,100.91061337500001,58.0,77.0
275,99.62490037500001,102.01775512500001,46.0,78.0
276,101.33918437500002,102.68739731250001,64.0,79.0
277,101.33918437500002,102.71596871250001,72.0,84.0
278,101.33918437500002,102.92132565000001,48.0,81.0
279,101.33918437500002,102.93025421250002,67.0,78.0
280,103.05346837500001,106.54453631250001,65.0,78.0
281,106.482036375,106.54453631250001,65.0,87.0
282,103.05346837500001,106.54989345000001,68.0,81.0
283,103.05346837500001,106.56239343750002,72.0,79.0
284,106.482036375,106.56239343750002,72.0,88.0
285,103.05346837500001,106.58917912500002,53.0,69.0
286,106.482036375,106.58917912500002,53.0,84.0
287,107.33917837500002,108.05167766250001,65.0,87.0
288,107.33917837500002,108.06953478750002,72.0,86.0
289,108.19632037500001,108.85524828750002,65.0,81.0
290,108.19632037500001,108.86953398750002,72.0,78.0
291,106.91060737500001,109.18024796250002,60.0,64.0
292,109.05346237500001,109.74989025000002,65.0,82.0
293,109.05346237500001,109.88381868750001,72.0,84.0
294,109.91060437500002,110.55167516250002,73.0,84.0
295,109.91060437500002,110.59631797500002,65.0,64.0
296,110.76774637500002,111.42310286250002,73.0,83.0
297,110.76774637500002,111.45345997500002,65.0,81.0
298,111.62488837500001,112.33203052500002,73.0,83.0
299,111.62488837500001,112.34095908750001,65.0,83.0
300,112.48203037500001,112.79810148750002,65.0,87.0
301,112.48203037500001,112.97310131250002,73.0,88.0
302,109.91060437500002,112.99274415000002,49.0,71.0
303,109.91060437500002,113.14452971250002,61.0,76.0
304,112.91060137500001,113.16952968750002,65.0,87.0
305,113.33917237500002,113.94810033750001,70.0,80.0
306,113.33917237500002,113.98560030000002,67.0,84.0
307,113.33917237500002,114.03560025000002,63.0,81.0
308,114.19631437500001,114.83559945000002,70.0,78.0
309,114.19631437500001,114.86059942500002,63.0,78.0
310,114.19631437500001,114.86059942500002,67.0,85.0
311,115.05345637500001,115.68559860000002,70.0,79.0
312,115.05345637500001,115.71059857500002,67.0,84.0
313,115.05345637500001,115.72666998750002,63.0,79.0
314,115.91059837500002,116.46059782500002,70.0,80.0
315,115.91059837500002,116.49988350000001,63.0,79.0
316,113.33917237500002,116.51595491250002,51.0,74.0
317,115.91059837500002,116.52131205000002,67.0,84.0
318,116.76774037500002,117.38202547500002,72.0,84.0
319,116.76774037500002,117.41416830000001,68.0,78.0
320,116.76774037500002,117.44452541250001,65.0,75.0
321,116.76774037500002,117.83916787500002,53.0,79.0
322,117.62488237500001,118.26416745000002,72.0,79.0
323,117.62488237500001,118.30881026250002,68.0,78.0
324,117.62488237500001,118.33916737500002,65.0,75.0
325,118.48202437500001,119.07488092500002,72.0,78.0
326,118.48202437500001,119.07666663750001,68.0,76.0
327,118.48202437500001,119.08023806250002,65.0,76.0
328,119.33916637500002,119.93380863750002,72.0,83.0
329,119.33916637500002,119.93559435000002,65.0,83.0
330,119.33916637500002,119.94809433750001,68.0,78.0
331,120.19630837500002,120.66595076250002,65.0,79.0
332,120.19630837500002,120.66595076250002,68.0,81.0
333,120.19630837500002,120.66773647500001,72.0,81.0
334,121.05345037500001,121.68202117500002,72.0,80.0
335,121.05345037500001,121.72666398750002,65.0,78.0
336,121.05345037500001,121.73559255000002,68.0,76.0
337,120.62487937500002,122.07487792500001,60.0,64.0
338,121.91059237500002,122.53737746250002,72.0,84.0
339,121.91059237500002,122.54452031250001,65.0,83.0
340,121.91059237500002,122.55523458750001,68.0,84.0
341,122.76773437500002,123.02666268750002,68.0,87.0
342,122.76773437500002,123.09987690000001,65.0,88.0
343,122.76773437500002,123.10523403750001,60.0,64.0
344,120.19630837500002,123.14630542500002,53.0,87.0
345,123.19630537500002,123.44809083750002,72.0,98.0
346,123.62487637500001,124.15166156250001,70.0,83.0
347,123.62487637500001,124.19094723750001,61.0,78.0
348,123.62487637500001,124.19273295000002,65.0,83.0
349,124.48201837500001,125.06951778750002,70.0,87.0
350,124.48201837500001,125.08201777500001,61.0,86.0
351,124.48201837500001,125.09808918750002,65.0,85.0
352,125.33916037500002,125.91237408750001,61.0,81.0
353,125.33916037500002,125.92665978750001,70.0,81.0
354,125.33916037500002,125.94630262500002,65.0,82.0
355,123.62487637500001,126.56058772500002,46.0,81.0
356,123.62487637500001,126.69630187500002,58.0,81.0
357,126.19630237500002,126.83737316250001,61.0,81.0
358,126.19630237500002,126.85880171250001,70.0,85.0
359,126.19630237500002,126.93737306250001,65.0,86.0
360,127.05344437500001,127.61058667500002,63.0,87.0
361,127.05344437500001,127.63201522500002,60.0,83.0
362,127.05344437500001,127.64272950000002,67.0,84.0
363,127.91058637500002,128.55165716250002,63.0,88.0
364,127.91058637500002,128.5713,60.0,84.0
365,127.91058637500002,128.5998714,67.0,78.0
366,128.76772837500002,129.35701350000002,63.0,89.0
367,128.76772837500002,129.38915632500002,60.0,82.0
368,128.76772837500002,129.4552276875,67.0,78.0
369,127.05344437500001,129.8712987,48.0,78.0
370,129.62487037500003,130.2373697625,67.0,79.0
371,129.62487037500003,130.2480840375,60.0,85.0
372,129.62487037500003,130.3087982625,63.0,90.0
373,130.482012375,131.14986885000002,68.0,87.0
374,130.482012375,131.21058307500002,60.0,81.0
375,130.482012375,131.2427259,65.0,79.0
376,131.33915437500002,131.96593946250002,60.0,81.0
377,131.33915437500002,131.97308231250003,68.0,82.0
378,131.33915437500002,131.98201087500001,65.0,82.0
379,132.19629637500003,132.8480814375,68.0,82.0
380,132.19629637500003,132.86236713750003,60.0,82.0
381,132.19629637500003,132.874867125,65.0,84.0
382,133.053438375,133.57843785000003,60.0,84.0
383,133.053438375,133.61772352500003,68.0,84.0
384,133.053438375,133.63736636250002,65.0,84.0
385,130.482012375,133.68915202500003,53.0,83.0
386,133.91058037500002,134.4516512625,72.0,88.0
387,133.91058037500002,134.496294075,68.0,88.0
388,133.91058037500002,134.53557975,63.0,87.0
389,134.767722375,135.567721575,72.0,89.0
390,134.767722375,135.57665013750002,63.0,88.0
391,134.767722375,135.5837929875,68.0,88.0
392,135.62486437500002,136.24986375000003,72.0,87.0
393,135.62486437500002,136.2516494625,63.0,88.0
394,135.62486437500002,136.2623637375,68.0,90.0
395,133.91058037500002,136.839148875,44.0,85.0
396,133.91058037500002,136.93022021250002,56.0,84.0
397,136.48200637500003,137.0945057625,72.0,88.0
398,136.48200637500003,137.14093428750002,63.0,88.0
399,136.48200637500003,137.18200567500003,68.0,90.0
400,137.339148375,138.05164766250002,70.0,91.0
401,137.339148375,138.10164761250002,63.0,90.0
402,137.339148375,138.110576175,67.0,97.0
403,138.19629037500002,138.7337898375,70.0,98.0
404,138.19629037500002,138.74093268750002,67.0,106.0
405,138.19629037500002,138.7552183875,63.0,91.0
406,138.839146875,138.910575375,67.0,90.0
407,138.839146875,138.91950393750002,70.0,90.0
408,138.839146875,138.94271820000003,63.0,88.0
409,139.26771787500002,139.7552173875,70.0,88.0
410,139.26771787500002,139.76950308750003,67.0,87.0
411,139.26771787500002,139.77843165000002,63.0,86.0
412,137.339148375,140.160574125,51.0,87.0
413,139.910574375,140.45164526250002,63.0,93.0
414,139.910574375,140.4998595,70.0,100.0
415,139.910574375,140.55878801250003,67.0,106.0
416,140.33914537500002,140.56414515000003,51.0,87.0
417,140.76771637500002,141.33021581250003,68.0,91.0
418,140.76771637500002,141.40700145000002,61.0,88.0
419,140.76771637500002,141.44092998750003,65.0,92.0
420,141.62485837500003,142.23557205000003,68.0,88.0
421,141.62485837500003,142.3141434,61.0,89.0
422,141.62485837500003,142.3266433875,65.0,88.0
423,142.482000375,143.06592836250002,68.0,90.0
424,142.482000375,143.11771402500003,61.0,90.0
425,142.482000375,143.1480711375,65.0,92.0
426,140.76771637500002,143.874856125,49.0,88.0
427,143.33914237500002,143.89985610000002,61.0,90.0
428,143.33914237500002,144.03378453750003,65.0,92.0
429,143.33914237500002,144.05521308750002,68.0,92.0
430,144.196284375,144.65699820000003,68.0,89.0
431,144.196284375,144.69449816250003,60.0,89.0
432,144.196284375,144.73378383750003,63.0,91.0
433,144.196284375,145.16235483750003,56.0,86.0
434,144.196284375,145.2516404625,44.0,84.0
435,145.05342637500002,145.62128295000002,60.0,94.0
436,145.05342637500002,145.63914007500003,68.0,89.0
437,145.05342637500002,145.80342562500002,63.0,107.0
438,145.91056837500003,146.54449631250003,67.0,86.0
439,145.91056837500003,146.58913912500003,58.0,88.0
440,145.91056837500003,146.62485337500001,63.0,88.0
441,145.91056837500003,146.94449591250003,39.0,87.0
442,145.91056837500003,146.97663873750002,51.0,87.0
443,146.767710375,147.24806703750002,58.0,91.0
444,147.196281375,147.29806698750002,39.0,86.0
445,147.196281375,147.3409240875,51.0,94.0
446,146.767710375,147.3730669125,67.0,100.0
447,146.767710375,147.38020976250002,63.0,110.0
448,147.62485237500002,148.217708925,68.0,107.0
449,147.62485237500002,148.24806603750002,63.0,110.0
450,147.62485237500002,148.25878031250002,60.0,93.0
451,148.48199437500003,149.2052079375,68.0,107.0
452,148.48199437500003,149.22485077500002,63.0,114.0
453,148.48199437500003,149.239136475,60.0,102.0
454,149.339136375,149.93199292500003,68.0,91.0
455,149.339136375,149.96949288750002,60.0,90.0
456,149.339136375,149.96949288750002,63.0,98.0
457,147.62485237500002,150.69627787500002,44.0,89.0
458,150.19627837500002,150.78199207500003,68.0,98.0
459,150.19627837500002,150.78556350000002,60.0,96.0
460,147.62485237500002,150.8052063375,56.0,93.0
461,150.19627837500002,150.8266348875,63.0,110.0
462,151.05342037500003,151.64270550000003,70.0,94.0
463,151.05342037500003,151.69091973750002,67.0,100.0
464,151.05342037500003,151.69627687500002,63.0,88.0
465,151.910562375,152.63913307500002,70.0,92.0
466,151.910562375,152.64091878750003,63.0,91.0
467,151.910562375,152.64627592500003,67.0,93.0
468,152.76770437500002,153.39627517500003,70.0,89.0
469,152.76770437500002,153.4087751625,63.0,91.0
470,152.76770437500002,153.41056087500002,67.0,89.0
471,151.05342037500003,153.85698900000003,51.0,88.0
472,153.62484637500003,154.15520298750002,67.0,103.0
473,153.62484637500003,154.16770297500003,70.0,93.0
474,153.62484637500003,154.17484582500003,63.0,94.0
475,154.48198837500001,154.98913072500002,68.0,96.0
476,154.48198837500001,155.01591641250002,65.0,102.0
477,154.48198837500001,155.07127350000002,61.0,91.0
478,155.33913037500002,155.824844175,61.0,90.0
479,155.33913037500002,155.85520128750002,65.0,92.0
480,154.48198837500001,155.91591551250002,49.0,86.0
481,155.33913037500002,155.93734406250002,68.0,92.0
482,156.196272375,156.7909146375,63.0,96.0
483,156.196272375,156.79805748750002,67.0,85.0
484,156.196272375,156.82127175000002,58.0,89.0
485,156.196272375,157.28377128750003,51.0,87.0
486,157.05341437500002,157.5909138375,58.0,93.0
487,157.05341437500002,157.66948518750002,67.0,90.0
488,157.05341437500002,157.7569851,63.0,110.0
489,158.017699125,161.12662458750003,72.0,93.0
490,158.01591341250003,161.41233858750002,41.0,88.0
491,158.017699125,161.41412430000003,53.0,88.0
492,158.017699125,161.45698140000002,65.0,87.0
493,161.4444814125,164.61769252500002,37.0,78.0
494,161.44626712500002,164.61947823750003,49.0,78.0
495,161.44626712500002,164.77840665000002,61.0,80.0
496,161.44626712500002,164.83376373750002,68.0,81.0
497,164.87304941250002,166.32840510000003,34.0,89.0
498,164.87483512500003,166.33019081250004,46.0,89.0
499,165.73197712500001,166.36054792500002,58.0,78.0
500,165.303406125,166.474833525,53.0,76.0
501,166.58733341250002,168.00340342500002,36.0,87.0
502,166.58911912500002,168.00518913750003,48.0,87.0
503,167.01769012500003,168.08376048750003,55.0,76.0
504,167.44626112500004,168.32840310000003,58.0,84.0
505,169.16054512500003,171.2123287875,65.0,72.0
506,169.58911612500003,171.29268585000003,72.0,75.0
507,168.73197412500002,171.37482862500002,60.0,72.0
508,169.58911612500003,171.389114325,68.0,72.0
509,168.30340312500002,171.45339997500002,41.0,85.0
510,168.30340312500002,171.45339997500002,53.0,85.0
511,171.73197112500003,174.76768237500002,72.0,86.0
512,171.73197112500003,174.8158966125,41.0,84.0
513,171.73197112500003,174.8158966125,53.0,84.0
514,171.73197112500003,174.92482507500003,65.0,83.0
515,175.160539125,178.06232193750003,37.0,78.0
516,175.160539125,178.06232193750003,49.0,78.0
517,175.160539125,178.274821725,61.0,83.0
518,175.160539125,178.28196457500002,68.0,84.0
519,178.58910712500003,180.11946273750002,34.0,86.0
520,178.58910712500003,180.11946273750002,46.0,86.0
521,179.44624912500004,180.2516054625,58.0,86.0
522,179.01767812500003,180.27481972500001,53.0,67.0
523,180.30339112500002,181.69981830000003,36.0,84.0
524,180.30339112500002,181.69981830000003,48.0,84.0
525,180.73196212500002,181.7623182375,55.0,73.0
526,181.16053312500003,182.04267510000003,58.0,80.0
527,182.87481712500002,183.51767362500001,65.0,81.0
528,183.30338812500003,183.5337450375,68.0,78.0
529,182.44624612500002,183.589102125,60.0,76.0
530,182.017675125,183.62481637500002,41.0,86.0
531,182.017675125,183.62481637500002,53.0,86.0
532,183.73195912500003,185.29267185000003,63.0,88.0
533,183.73195912500003,185.2998147,70.0,88.0
534,183.73195912500003,185.32660038750004,67.0,89.0
535,183.73195912500003,185.35338607500003,39.0,87.0
536,183.73195912500003,185.35338607500003,51.0,87.0
537,185.44624312500002,186.14267100000004,72.0,94.0
538,185.44624312500002,186.18552810000003,65.0,88.0
539,185.44624312500002,186.19088523750003,68.0,98.0
540,185.44624312500002,186.29088513750003,53.0,88.0
541,186.73374183750002,186.84088458750003,53.0,97.0
542,186.30338512500003,187.04088438750003,72.0,89.0
543,186.30338512500003,187.06409865000003,65.0,88.0
544,186.30338512500003,187.081955775,68.0,92.0
545,187.3765983375,187.79088363750003,72.0,90.0
546,186.94802733750004,187.80516933750002,53.0,97.0
547,187.3765983375,187.91231208750003,65.0,88.0
548,187.3765983375,187.9426692,68.0,89.0
549,187.80516933750002,188.4480258375,53.0,97.0
550,188.01766912500003,188.65516848750002,65.0,89.0
551,188.01766912500003,188.66588276250002,72.0,92.0
552,188.01766912500003,188.68909702500002,68.0,93.0
553,188.87481112500004,189.49981050000002,68.0,91.0
554,188.87481112500004,189.56052472500002,65.0,88.0
555,188.87481112500004,189.56052472500002,73.0,94.0
556,188.87481112500004,190.16052412500002,49.0,86.0
557,190.16230983750003,190.2694525875,49.0,97.0
558,189.73195312500002,190.45159526250004,65.0,88.0
559,189.73195312500002,190.46409525,68.0,90.0
560,189.73195312500002,190.46766667500003,73.0,88.0
561,190.37659533750002,191.01945183750001,49.0,97.0
562,190.80516633750003,191.26766587500003,65.0,92.0
563,190.80516633750003,191.27302301250003,73.0,86.0
564,190.80516633750003,191.285523,68.0,92.0
565,191.23373733750003,191.87659383750002,49.0,97.0
566,191.44623712500004,191.88373668750003,73.0,85.0
567,191.44623712500004,191.89802238750002,65.0,88.0
568,188.87481112500004,191.92659378750002,61.0,84.0
569,191.44623712500004,191.98909372500003,68.0,88.0
570,192.0908793375,192.30516483750003,48.0,97.0
571,192.30337912500002,192.91766422500004,70.0,98.0
572,192.30337912500002,192.93552135000002,61.0,93.0
573,192.30337912500002,192.94802133750002,65.0,102.0
574,192.30337912500002,193.58909212500004,46.0,91.0
575,193.16052112500003,193.68552060000002,61.0,91.0
576,193.16052112500003,193.7123062875,70.0,92.0
577,193.16052112500003,193.77123480000003,65.0,102.0
578,193.59087783750002,193.80516333750003,46.0,97.0
579,193.80516333750003,194.01944883750002,34.0,97.0
580,194.017663125,194.63551965000002,72.0,91.0
581,194.017663125,194.64980535000004,67.0,90.0
582,194.017663125,194.68730531250003,64.0,90.0
583,194.87480512500002,195.42659028750003,64.0,95.0
584,194.87480512500002,195.46766167500002,67.0,95.0
585,194.87480512500002,195.51409020000003,72.0,100.0
586,194.017663125,195.55516158750004,60.0,88.0
587,194.017663125,195.73194712500003,48.0,84.0
588,195.73194712500003,196.12837530000002,72.0,89.0
589,195.73194712500003,196.16051812500004,65.0,88.0
590,195.73194712500003,196.16051812500004,68.0,94.0
591,195.73194712500003,196.37480362500003,53.0,87.0
592,195.7337328375,196.37658933750004,41.0,97.0
593,196.37658933750004,196.99266015000003,70.0,91.0
594,196.37658933750004,197.01944583750003,43.0,97.0
595,196.37658933750004,197.01944583750003,55.0,97.0
596,196.37658933750004,197.04266010000003,63.0,89.0
597,197.01944583750003,197.04266010000003,63.0,89.0
598,196.37658933750004,197.0551600875,67.0,92.0
599,197.01944583750003,198.10337332500004,72.0,88.0
600,197.01766012500002,198.13730186250004,68.0,88.0
601,197.01944583750003,198.30515883750002,44.0,97.0
602,197.01944583750003,198.30515883750002,56.0,97.0
603,198.30337312500004,198.90158681250003,72.0,94.0
604,198.30337312500004,198.91051537500002,65.0,98.0
605,198.30337312500004,198.99980100000002,68.0,98.0
606,199.16051512500002,199.76765737500003,72.0,102.0
607,199.16051512500002,199.85694300000003,68.0,110.0
608,199.16051512500002,199.88015726250003,65.0,96.0
609,199.16051512500002,200.44622812500003,53.0,92.0
610,200.01765712500003,200.64087078750003,72.0,93.0
611,200.4480138375,200.66229933750003,53.0,97.0
612,200.01765712500003,200.71587071250002,65.0,98.0
613,200.01765712500003,200.72301356250003,68.0,100.0
614,200.66229933750003,201.30515583750002,53.0,97.0
615,201.09087033750004,201.44444141250003,72.0,90.0
616,201.09087033750004,201.52122705000002,65.0,92.0
617,201.09087033750004,201.52122705000002,68.0,88.0
618,201.5194413375,201.94801233750002,53.0,97.0
619,201.73194112500002,202.30158341250004,72.0,96.0
620,201.73194112500002,202.424797575,65.0,104.0
621,201.73194112500002,202.48372608750003,68.0,98.0
622,202.58908312500003,203.17836825000003,73.0,93.0
623,202.58908312500003,203.18908252500003,65.0,93.0
624,202.58908312500003,203.1908682375,68.0,93.0
625,202.58908312500003,203.87479612500002,49.0,87.0
626,203.44622512500004,204.07479592500002,65.0,94.0
627,203.44622512500004,204.08729591250002,68.0,90.0
628,203.87658183750003,204.09086733750001,49.0,97.0
629,203.44622512500004,204.10872446250002,73.0,89.0
630,204.09086733750001,204.94800933750003,49.0,97.0
631,204.51943833750002,204.95872361250002,65.0,89.0
632,204.51943833750002,204.96050932500003,68.0,90.0
633,204.51943833750002,204.97479502500002,73.0,87.0
634,202.58908312500003,205.73015141250002,61.0,88.0
635,205.16050912500003,205.76050852500003,65.0,93.0
636,205.16050912500003,205.78015136250002,73.0,89.0
637,204.94800933750003,205.80515133750004,49.0,97.0
638,205.16050912500003,205.87657983750003,68.0,94.0
639,206.01765112500001,206.54800773750003,73.0,100.0
640,206.01765112500001,206.69443616250004,67.0,103.0
641,206.01765112500001,206.71229328750002,70.0,116.0
642,206.01765112500001,207.30336412500003,55.0,93.0
643,206.87479312500002,207.33193552500003,67.0,100.0
644,206.87479312500002,207.34979265000004,73.0,104.0
645,206.87479312500002,207.35872121250003,70.0,114.0
646,206.01765112500001,207.42479257500003,43.0,93.0
647,207.51943533750003,207.73372083750002,55.0,97.0
648,207.73193512500004,208.33729166250004,72.0,100.0
649,207.73193512500004,208.43014871250003,64.0,89.0
650,207.73193512500004,208.45157726250002,67.0,91.0
651,208.58907712500002,209.05514808750002,64.0,95.0
652,208.58907712500002,209.08014806250003,72.0,108.0
653,208.58907712500002,209.09264805000004,67.0,97.0
654,207.73193512500004,209.28550500000003,48.0,88.0
655,209.44621912500003,210.17300411250002,68.0,94.0
656,209.44621912500003,210.19443266250002,61.0,94.0
657,209.44621912500003,210.20871836250004,65.0,100.0
658,209.44621912500003,210.73193212500001,49.0,91.0
659,210.73371783750002,210.94800333750004,49.0,97.0
660,210.30336112500004,211.05336037500004,61.0,90.0
661,210.30336112500004,211.05514608750002,65.0,98.0
662,210.30336112500004,211.06050322500002,68.0,91.0
663,211.16050312500002,211.73014541250004,68.0,89.0
664,210.94800333750004,211.80514533750002,49.0,97.0
665,211.16050312500002,211.83907387500003,61.0,87.0
666,211.16050312500002,211.8480024375,65.0,94.0
667,212.01764512500003,212.74621582500004,61.0,88.0
668,212.01764512500003,212.78728721250002,65.0,92.0
669,212.01764512500003,212.79264435000002,68.0,91.0
670,211.80514533750002,212.87657283750002,49.0,97.0
671,212.87478712500004,213.41585801250002,72.0,88.0
672,212.87478712500004,213.46050082500003,68.0,88.0
673,212.87478712500004,213.49978650000003,63.0,87.0
674,213.73192912500002,214.53192832500002,72.0,89.0
675,213.73192912500002,214.54085688750004,63.0,88.0
676,213.73192912500002,214.54799973750002,68.0,88.0
677,214.58907112500003,215.21407050000002,72.0,87.0
678,214.58907112500003,215.21585621250003,63.0,88.0
679,214.58907112500003,215.22657048750003,68.0,90.0
680,212.87478712500004,215.80335562500002,44.0,85.0
681,212.87478712500004,215.89442696250003,56.0,84.0
682,215.446213125,216.05871251250002,72.0,88.0
683,215.446213125,216.10514103750003,63.0,88.0
684,215.446213125,216.14621242500002,68.0,90.0
685,216.30335512500002,217.01585441250003,70.0,91.0
686,216.30335512500002,217.06585436250003,63.0,90.0
687,216.30335512500002,217.07478292500002,67.0,97.0
688,217.16049712500003,217.69799658750003,70.0,98.0
689,217.16049712500003,217.70513943750004,67.0,106.0
690,217.16049712500003,217.71942513750002,63.0,91.0
691,217.80335362500003,217.87478212500002,67.0,90.0
692,217.80335362500003,217.88371068750004,70.0,90.0
693,217.80335362500003,217.90692495000002,63.0,88.0
694,218.23192462500003,218.71942413750003,70.0,88.0
695,218.23192462500003,218.73370983750002,67.0,87.0
696,218.23192462500003,218.74263840000003,63.0,86.0
697,216.30335512500002,219.12478087500003,51.0,87.0
698,218.87478112500003,219.41585201250004,63.0,93.0
699,218.87478112500003,219.46406625000003,70.0,100.0
700,218.87478112500003,219.52299476250002,67.0,106.0
701,219.30335212500003,219.52835190000002,51.0,87.0
702,219.73192312500004,220.29442256250002,68.0,91.0
703,219.73192312500004,220.37120820000004,61.0,88.0
704,219.73192312500004,220.40513673750002,65.0,92.0
705,220.58906512500002,221.19977880000002,68.0,88.0
706,220.58906512500002,221.27835015000002,61.0,89.0
707,220.58906512500002,221.29085013750003,65.0,88.0
708,221.44620712500003,222.03013511250003,68.0,90.0
709,221.44620712500003,222.08192077500004,61.0,90.0
710,221.44620712500003,222.11227788750003,65.0,92.0
711,219.73192312500004,222.83906287500002,49.0,88.0
712,222.30334912500004,222.86406285000004,61.0,90.0
713,222.30334912500004,222.99799128750004,65.0,92.0
714,222.30334912500004,223.01941983750004,68.0,92.0
715,223.16049112500002,223.62120495000002,68.0,89.0
716,223.16049112500002,223.65870491250004,60.0,89.0
717,223.16049112500002,223.69799058750002,63.0,91.0
718,223.16049112500002,224.12656158750002,56.0,86.0
719,223.16049112500002,224.21584721250002,44.0,84.0
720,224.01763312500003,224.58548970000004,60.0,94.0
721,224.01763312500003,224.60334682500002,68.0,89.0
722,224.01763312500003,224.76763237500003,63.0,107.0
723,224.87477512500004,225.50870306250002,67.0,86.0
724,224.87477512500004,225.55334587500002,58.0,88.0
725,224.87477512500004,225.58906012500003,63.0,88.0
726,224.87477512500004,225.90870266250002,39.0,87.0
727,224.87477512500004,225.94084548750004,51.0,87.0
728,225.73191712500002,226.21227378750004,58.0,91.0
729,226.16048812500003,226.26227373750004,39.0,86.0
730,226.16048812500003,226.30513083750003,51.0,94.0
731,225.73191712500002,226.33727366250002,67.0,100.0
732,225.73191712500002,226.34441651250003,63.0,110.0
733,226.58905912500003,227.18191567500003,68.0,107.0
734,226.58905912500003,227.21227278750004,63.0,110.0
735,226.58905912500003,227.22298706250004,60.0,93.0
736,227.44620112500002,228.16941468750002,68.0,107.0
737,227.44620112500002,228.18905752500004,63.0,114.0
738,227.44620112500002,228.20334322500003,60.0,102.0
739,228.30334312500003,228.89619967500002,68.0,91.0
740,228.30334312500003,228.93369963750004,60.0,90.0
741,228.30334312500003,228.93369963750004,63.0,98.0
742,226.58905912500003,229.66048462500004,44.0,89.0
743,229.16048512500004,229.74619882500002,68.0,98.0
744,229.16048512500004,229.74977025000004,60.0,96.0
745,226.58905912500003,229.76941308750003,56.0,93.0
746,229.16048512500004,229.79084163750002,63.0,110.0
747,230.01762712500002,230.60691225000002,70.0,94.0
748,230.01762712500002,230.65512648750004,67.0,100.0
749,230.01762712500002,230.66048362500004,63.0,88.0
750,230.87476912500003,231.60333982500003,70.0,92.0
751,230.87476912500003,231.60512553750004,63.0,91.0
752,230.87476912500003,231.61048267500004,67.0,93.0
753,231.73191112500004,232.36048192500004,70.0,89.0
754,231.73191112500004,232.37298191250002,63.0,91.0
755,231.73191112500004,232.37476762500003,67.0,89.0
756,230.01762712500002,232.82119575000004,51.0,88.0
757,232.58905312500002,233.11940973750004,67.0,103.0
758,232.58905312500002,233.13190972500004,70.0,93.0
759,232.58905312500002,233.13905257500002,63.0,94.0
760,233.44619512500003,233.95333747500004,68.0,96.0
761,233.44619512500003,233.98012316250004,65.0,102.0
762,233.44619512500003,234.03548025000003,61.0,91.0
763,234.30333712500004,234.78905092500003,61.0,90.0
764,234.30333712500004,234.81940803750004,65.0,92.0
765,233.44619512500003,234.88012226250004,49.0,86.0
766,234.30333712500004,234.90155081250003,68.0,92.0
767,235.16047912500002,235.75512138750003,63.0,96.0
768,235.16047912500002,235.76226423750003,67.0,85.0
769,235.16047912500002,235.78547850000004,58.0,89.0
770,235.16047912500002,236.24797803750002,51.0,87.0
771,236.01762112500003,236.55512058750003,58.0,93.0
772,236.01762112500003,236.63369193750003,67.0,90.0
773,236.01762112500003,236.72119185000003,63.0,110.0
774,240.30333112500003,240.84440201250004,72.0,88.0
775,240.30333112500003,240.88904482500004,68.0,88.0
776,240.30333112500003,240.92833050000004,63.0,87.0
777,241.16047312500004,241.96047232500004,72.0,89.0
778,241.16047312500004,241.96940088750003,63.0,88.0
779,241.16047312500004,241.97654373750004,68.0,88.0
780,242.01761512500002,242.64261450000004,72.0,87.0
781,242.01761512500002,242.64440021250005,63.0,88.0
782,242.01761512500002,242.65511448750004,68.0,90.0
783,240.30333112500003,243.23189962500004,44.0,85.0
784,240.30333112500003,243.32297096250002,56.0,84.0
785,242.87475712500003,243.48725651250004,72.0,88.0
786,242.87475712500003,243.53368503750002,63.0,88.0
787,242.87475712500003,243.57475642500003,68.0,90.0
788,243.73189912500004,244.44439841250002,70.0,91.0
789,243.73189912500004,244.49439836250002,63.0,90.0
790,243.73189912500004,244.50332692500004,67.0,97.0
791,244.58904112500002,245.12654058750005,70.0,98.0
792,244.58904112500002,245.13368343750003,67.0,106.0
793,244.58904112500002,245.14796913750004,63.0,91.0
794,245.23189762500004,245.30332612500004,67.0,90.0
795,245.23189762500004,245.31225468750003,70.0,90.0
796,245.23189762500004,245.33546895000003,63.0,88.0
797,245.66046862500002,246.14796813750004,70.0,88.0
798,245.66046862500002,246.16225383750003,67.0,87.0
799,245.66046862500002,246.17118240000002,63.0,86.0
800,243.73189912500004,246.55332487500004,51.0,87.0
801,246.30332512500004,246.84439601250003,63.0,93.0
802,246.30332512500004,246.89261025000002,70.0,100.0
803,246.30332512500004,246.95153876250004,67.0,106.0
804,246.73189612500002,246.95689590000003,51.0,87.0
805,247.16046712500003,247.72296656250003,68.0,91.0
806,247.16046712500003,247.79975220000003,61.0,88.0
807,247.16046712500003,247.83368073750003,65.0,92.0
808,248.01760912500004,248.62832280000003,68.0,88.0
809,248.01760912500004,248.70689415000004,61.0,89.0
810,248.01760912500004,248.71939413750005,65.0,88.0
811,248.87475112500005,249.45867911250002,68.0,90.0
812,248.87475112500005,249.51046477500003,61.0,90.0
813,248.87475112500005,249.54082188750004,65.0,92.0
814,247.16046712500003,250.26760687500004,49.0,88.0
815,249.73189312500003,250.29260685000003,61.0,90.0
816,249.73189312500003,250.42653528750003,65.0,92.0
817,249.73189312500003,250.44796383750003,68.0,92.0
818,250.58903512500004,251.04974895000004,68.0,89.0
819,250.58903512500004,251.08724891250003,60.0,89.0
820,250.58903512500004,251.12653458750003,63.0,91.0
821,250.58903512500004,251.55510558750004,56.0,86.0
822,250.58903512500004,251.64439121250004,44.0,84.0
823,251.44617712500002,252.01403370000003,60.0,94.0
824,251.44617712500002,252.03189082500003,68.0,89.0
825,251.44617712500002,252.19617637500002,63.0,107.0
826,252.30331912500003,252.93724706250003,67.0,86.0
827,252.30331912500003,252.98188987500004,58.0,88.0
828,252.30331912500003,253.01760412500002,63.0,88.0
829,252.30331912500003,253.33724666250004,39.0,87.0
830,252.30331912500003,253.36938948750003,51.0,87.0
831,253.16046112500004,253.64081778750003,58.0,91.0
832,253.58903212500005,253.69081773750003,39.0,86.0
833,253.58903212500005,253.73367483750005,51.0,94.0
834,253.16046112500004,253.76581766250004,67.0,100.0
835,253.16046112500004,253.77296051250002,63.0,110.0
836,254.01760312500002,254.61045967500004,68.0,107.0
837,254.01760312500002,254.64081678750003,63.0,110.0
838,254.01760312500002,254.65153106250003,60.0,93.0
839,254.87474512500003,255.59795868750004,68.0,107.0
840,254.87474512500003,255.61760152500003,63.0,114.0
841,254.87474512500003,255.63188722500004,60.0,102.0
842,255.73188712500004,256.32474367500004,68.0,91.0
843,255.73188712500004,256.36224363750006,60.0,90.0
844,255.73188712500004,256.36224363750006,63.0,98.0
845,254.01760312500002,257.089028625,44.0,89.0
846,256.589029125,257.174742825,68.0,98.0
847,256.589029125,257.17831425,60.0,96.0
848,254.01760312500002,257.1979570875,56.0,93.0
849,256.589029125,257.2193856375,63.0,110.0
850,257.44617112500003,258.03545625000004,70.0,94.0
851,257.44617112500003,258.08367048750006,67.0,100.0
852,257.44617112500003,258.089027625,63.0,88.0
853,258.30331312500005,259.031883825,70.0,92.0
854,258.30331312500005,259.03366953750003,63.0,91.0
855,258.30331312500005,259.03902667500006,67.0,93.0
856,259.16045512500006,259.78902592500003,70.0,89.0
857,259.16045512500006,259.80152591250004,63.0,91.0
858,259.16045512500006,259.80331162500005,67.0,89.0
859,257.44617112500003,260.24973975000006,51.0,88.0
860,260.017597125,260.54795373750005,67.0,103.0
861,260.017597125,260.56045372500006,70.0,93.0
862,260.017597125,260.56759657500004,63.0,94.0
863,260.874739125,261.38188147500006,68.0,96.0
864,260.874739125,261.4086671625,65.0,102.0
865,260.874739125,261.46402425,61.0,91.0
866,261.73188112500003,262.217594925,61.0,90.0
867,261.73188112500003,262.24795203750006,65.0,92.0
868,260.874739125,262.3086662625,49.0,86.0
869,261.73188112500003,262.3300948125,68.0,92.0
870,262.58902312500004,263.1836653875,63.0,96.0
871,262.58902312500004,263.19080823750005,67.0,85.0
872,262.58902312500004,263.21402250000006,58.0,89.0
873,262.58902312500004,263.67652203750004,51.0,87.0
874,263.44616512500005,263.9836645875,58.0,93.0
875,263.44616512500005,264.0622359375,67.0,90.0
876,263.44616512500005,264.14973585,63.0,110.0
877,264.41044987500004,265.12116345000004,68.0,93.0
878,264.41044987500004,265.14437771250005,72.0,89.0
879,264.41044987500004,265.17830625000005,65.0,88.0
880,265.26759187500005,265.960448325,65.0,86.0
881,265.26759187500005,265.98009116250006,72.0,87.0
882,265.26759187500005,265.99080543750006,68.0,91.0
883,266.12473387500006,266.88723311250004,72.0,86.0
884,266.12473387500006,266.89259025,65.0,87.0
885,266.12473387500006,266.903304525,68.0,87.0
886,266.981875875,267.45151826250003,72.0,87.0
887,266.981875875,267.69258945,65.0,88.0
888,264.41044987500004,267.6943751625,53.0,89.0
889,266.981875875,267.724732275,68.0,88.0
890,267.839017875,268.51044577500005,73.0,86.0
891,267.839017875,268.53544575,65.0,87.0
892,267.839017875,268.55687430000006,68.0,85.0
893,268.69615987500003,269.39258775,73.0,84.0
894,268.69615987500003,269.403302025,68.0,83.0
895,268.69615987500003,269.41223058750006,65.0,84.0
896,269.55330187500005,270.31758682500003,73.0,81.0
897,269.55330187500005,270.32294396250006,65.0,81.0
898,269.55330187500005,270.33365823750006,68.0,85.0
899,267.839017875,270.78901492500006,61.0,73.0
900,267.839017875,270.88722911250005,49.0,80.0
901,270.41044387500006,271.09972890000006,65.0,86.0
902,270.41044387500006,271.1140146,73.0,83.0
903,270.41044387500006,271.13544315,68.0,86.0
904,271.267585875,271.99258515,65.0,87.0
905,271.267585875,271.99437086250003,73.0,83.0
906,271.267585875,271.99972800000006,70.0,88.0
907,272.124727875,272.87294141250004,70.0,84.0
908,272.124727875,272.87472712500005,65.0,84.0
909,272.124727875,272.88186997500003,73.0,81.0
910,272.98186987500003,273.4907979375,73.0,79.0
911,272.98186987500003,273.53544075,70.0,86.0
912,272.98186987500003,273.5693692875,65.0,79.0
913,271.267585875,273.70508343750004,46.0,81.0
914,271.267585875,273.74972625000004,58.0,83.0
915,274.05329737500006,274.924725075,64.0,81.0
916,274.05329737500006,274.93722506250003,72.0,87.0
917,274.05329737500006,275.07293921250005,60.0,80.0
918,274.05329737500006,275.1550819875,48.0,76.0
919,274.05329737500006,275.28365328750004,67.0,83.0
920,275.33901037500004,277.51579391250004,65.0,80.0
921,275.33901037500004,277.53722246250004,53.0,84.0
922,275.33901037500004,277.553293875,68.0,86.0
923,275.33901037500004,277.5657938625,72.0,82.0
