,start,end,pitch,velocity
0,26.483184037500006,27.188975450000004,76.0,88.0
1,27.214890037500005,27.765193925000005,72.0,84.0
2,27.946596037500004,28.672204487500004,74.0,89.0
3,28.678302037500004,29.313971625000004,71.0,83.0
4,29.410008037500006,29.722507475000004,69.0,87.0
5,29.775861037500004,30.175250562500004,71.0,78.0
6,30.141714037500005,30.544152337500005,64.0,90.0
7,30.507567037500007,30.923724825000004,71.0,88.0
8,30.873420037500004,32.076161775,69.0,88.0
9,32.3368320375,32.99994060000001,72.0,78.0
10,33.068538037500005,33.649329675000004,69.0,88.0
11,33.80024403750001,34.25451151250001,79.0,79.0
12,34.16609703750001,34.57005972500001,81.0,84.0
13,34.5319500375,35.09597341250001,79.0,88.0
14,35.263656037500006,35.63560658750001,76.0,88.0
15,35.62950903750001,36.01822785000001,79.0,90.0
16,35.99536203750001,36.37341013750001,76.0,88.0
17,36.36121503750001,36.725543650000006,74.0,89.0
18,36.727068037500004,37.84291968750001,76.0,85.0
19,38.19048003750001,38.780418000000004,77.0,82.0
20,38.922186037500005,39.295660975000004,69.0,88.0
21,39.288039037500006,39.72401386250001,76.0,89.0
22,39.65389203750001,40.87949958750001,74.0,89.0
23,41.117304037500006,41.478583875000005,76.0,89.0
24,41.48315703750001,41.876449012500004,79.0,87.0
25,41.84901003750001,42.23925323750001,76.0,88.0
26,42.21486303750001,42.585289200000005,74.0,86.0
27,42.58071603750001,43.68437258750001,72.0,83.0
28,44.04412803750001,44.35205431250001,76.0,89.0
29,44.40998103750001,44.650834262500005,74.0,89.0
30,44.775834037500005,45.05022378750001,74.0,89.0
31,45.141687037500006,45.46485718750001,79.0,85.0
32,45.50754003750001,45.82003947500001,76.0,84.0
33,45.87339303750001,46.10967310000001,74.0,89.0
34,46.23924603750001,46.603574650000006,74.0,89.0
35,46.60509903750001,46.95570816250001,76.0,82.0
36,46.970952037500005,49.68436178750001,69.0,86.0
37,49.89777603750001,50.60356745000001,76.0,88.0
38,50.62948203750001,51.17978592500001,72.0,84.0
39,51.36118803750001,52.08679648750001,74.0,89.0
40,52.09289403750001,52.72856362500001,71.0,83.0
41,52.82460003750001,53.13709947500001,69.0,87.0
42,53.190453037500006,53.58984256250001,71.0,78.0
43,53.55630603750001,53.95874433750001,64.0,90.0
44,53.92215903750001,54.33831682500001,71.0,88.0
45,54.28801203750001,55.49075377500001,69.0,88.0
46,55.75142403750001,56.41453260000001,72.0,78.0
47,56.48313003750001,57.06392167500001,69.0,88.0
48,57.21483603750001,57.66910351250001,79.0,79.0
49,57.58068903750001,57.98465172500001,81.0,84.0
50,57.94654203750001,58.51056541250001,79.0,88.0
51,58.67824803750001,59.05019858750001,76.0,88.0
52,59.04410103750001,59.43281985000001,79.0,90.0
53,59.40995403750001,59.78800213750001,76.0,88.0
54,59.77580703750001,60.14013565000001,74.0,89.0
55,60.14166003750001,61.25751168750001,76.0,85.0
56,61.60507203750001,62.19501000000001,77.0,82.0
57,62.33677803750001,62.71025297500001,69.0,88.0
58,62.70263103750001,63.13860586250001,76.0,89.0
59,63.06848403750001,64.2940915875,74.0,89.0
60,64.5318960375,64.89317587500001,76.0,89.0
61,64.8977490375,65.26360203750001,79.0,87.0
62,65.26360203750001,65.65384523750001,79.0,88.0
63,65.62945503750001,66.36116103750001,81.0,86.0
64,66.72701403750001,67.45872003750002,76.0,83.0
65,67.45872003750002,67.76664631250001,76.0,89.0
66,67.82457303750002,68.06542626250001,74.0,89.0
67,68.19042603750002,68.46481578750002,74.0,89.0
68,68.5562790375,68.87944918750001,79.0,85.0
69,68.9221320375,69.23463147500001,76.0,84.0
70,69.28798503750001,69.52426510000001,74.0,89.0
71,69.65383803750001,70.01816665000001,74.0,89.0
72,70.01969103750001,70.37030016250002,76.0,82.0
73,70.38554403750001,72.58066203750002,69.0,86.0
74,72.58066203750002,72.98919788750001,76.0,94.0
75,72.9465150375,73.35200211250002,79.0,90.0
76,73.31236803750001,74.44498795000001,81.0,89.0
77,74.40992703750001,74.82760921250001,84.0,90.0
78,74.77578003750001,75.18736466250002,83.0,92.0
79,75.14163303750001,75.53492501250001,81.0,89.0
80,75.50748603750002,75.86571710000001,79.0,88.0
81,75.87333903750002,76.26358223750002,83.0,89.0
82,76.23919203750002,78.25290792500002,81.0,92.0
83,78.43431003750001,78.84284588750002,76.0,94.0
84,78.80016303750001,79.20565011250001,79.0,90.0
85,79.16601603750001,80.29863595000002,81.0,89.0
86,80.26357503750002,80.68125721250001,84.0,90.0
87,80.62942803750002,81.04101266250001,83.0,92.0
88,80.99528103750002,81.38857301250002,81.0,89.0
89,81.36113403750001,81.71936510000002,79.0,88.0
90,81.72698703750001,82.45869303750001,83.0,89.0
91,82.45869303750001,84.28795803750002,76.0,92.0
92,84.28795803750002,84.64923787500001,69.0,90.0
93,84.65381103750002,85.07149321250002,76.0,90.0
94,85.01966403750002,86.12941813750001,74.0,94.0
95,86.11722303750001,86.48155165000001,72.0,85.0
96,86.48307603750001,87.23459907500002,74.0,93.0
97,87.21478203750002,87.87179305000002,81.0,89.0
98,87.94648803750002,88.33978001250001,76.0,89.0
99,88.31234103750002,88.63398680000002,79.0,88.0
100,88.67819403750002,89.05471775000001,76.0,89.0
101,89.04404703750002,89.44953411250002,74.0,90.0
102,89.40990003750001,90.58672718750002,76.0,90.0
103,90.87331203750001,91.62483507500002,76.0,87.0
104,91.60501803750002,91.95562716250002,74.0,89.0
105,91.97087103750002,92.37788250000001,72.0,83.0
106,92.33672403750002,93.10501533750002,74.0,95.0
107,93.06843003750002,93.87787980000002,79.0,84.0
108,93.80013603750001,95.84281528750002,76.0,84.0
109,95.99525403750002,96.40378988750001,76.0,94.0
110,96.36110703750002,96.76659411250002,79.0,90.0
111,96.72696003750002,97.85957995000001,81.0,89.0
112,97.82451903750001,98.24220121250002,84.0,90.0
113,98.19037203750001,98.60195666250002,83.0,92.0
114,98.55622503750001,98.94951701250002,81.0,89.0
115,98.92207803750001,99.28030910000001,79.0,88.0
116,99.28793103750002,99.67817423750002,83.0,89.0
117,99.65378403750002,101.66749992500002,81.0,92.0
118,101.84890203750001,102.25743788750002,76.0,94.0
119,102.21475503750001,102.62024211250002,79.0,90.0
120,102.58060803750001,103.71322795000002,81.0,89.0
121,103.67816703750002,104.09584921250001,84.0,90.0
122,104.04402003750002,104.77572603750002,83.0,92.0
123,104.77572603750002,105.16901801250002,81.0,89.0
124,105.14157903750002,105.87328503750003,79.0,88.0
125,105.87328503750003,107.70255003750002,76.0,92.0
126,107.70255003750002,108.06382987500002,69.0,90.0
127,108.06840303750002,108.48608521250002,76.0,90.0
128,108.43425603750002,109.54401013750002,74.0,94.0
129,109.53181503750002,109.89614365000001,72.0,85.0
130,109.89766803750003,110.64919107500002,74.0,93.0
131,110.62937403750001,111.28638505000002,81.0,89.0
132,111.36108003750002,111.75437201250001,76.0,89.0
133,111.72693303750002,112.04857880000002,79.0,88.0
134,112.09278603750002,112.46930975000002,76.0,89.0
135,112.45863903750002,112.86412611250002,74.0,90.0
136,112.82449203750002,114.00131918750002,76.0,90.0
137,114.28790403750001,115.03942707500002,76.0,87.0
138,115.01961003750002,115.37021916250002,74.0,89.0
139,115.38546303750002,115.79247450000003,72.0,83.0
140,115.75131603750002,116.51960733750002,74.0,95.0
141,116.48302203750002,117.21472803750002,76.0,84.0
142,117.21472803750002,119.25740728750002,69.0,84.0
143,143.55614403750002,144.26193545000004,76.0,88.0
144,144.28785003750002,144.83815392500003,72.0,84.0
145,145.01955603750002,145.74516448750003,74.0,89.0
146,145.75126203750003,146.38693162500002,71.0,83.0
147,146.48296803750003,146.79546747500004,69.0,87.0
148,146.84882103750002,147.24821056250002,71.0,78.0
149,147.21467403750003,147.61711233750003,64.0,90.0
150,147.58052703750002,147.99668482500002,71.0,88.0
151,147.94638003750003,149.14912177500003,69.0,88.0
152,149.40979203750004,150.07290060000003,72.0,78.0
153,150.1414980375,150.722289675,69.0,88.0
154,150.87320403750002,151.32747151250004,79.0,79.0
155,151.23905703750003,151.64301972500002,81.0,84.0
156,151.60491003750002,152.16893341250002,79.0,88.0
157,152.33661603750002,152.70856658750003,76.0,88.0
158,152.70246903750004,153.09118785000004,79.0,90.0
159,153.06832203750002,153.44637013750003,76.0,88.0
160,153.43417503750004,153.79850365000001,74.0,89.0
161,153.80002803750003,154.91587968750002,76.0,85.0
162,155.26344003750003,155.85337800000002,77.0,82.0
163,155.99514603750004,156.36862097500003,69.0,88.0
164,156.36099903750002,156.79697386250004,76.0,89.0
165,156.72685203750004,157.95245958750002,74.0,89.0
166,158.19026403750001,158.55154387500002,76.0,89.0
167,158.55611703750003,158.94940901250004,79.0,87.0
168,158.92197003750002,159.31221323750003,76.0,88.0
169,159.28782303750003,159.65824920000003,74.0,86.0
170,159.65367603750002,160.75733258750003,72.0,83.0
171,161.11708803750003,161.42501431250002,76.0,89.0
172,161.48294103750004,161.72379426250004,74.0,89.0
173,161.84879403750003,162.12318378750004,74.0,89.0
174,162.21464703750001,162.53781718750002,79.0,85.0
175,162.58050003750003,162.89299947500004,76.0,84.0
176,162.94635303750002,163.18263310000003,74.0,89.0
177,163.31220603750003,163.67653465000004,74.0,89.0
178,163.67805903750002,164.02866816250003,76.0,82.0
179,164.04391203750004,166.75732178750002,69.0,86.0
180,166.97073603750002,167.67652745000004,76.0,88.0
181,167.70244203750002,168.25274592500003,72.0,84.0
182,168.43414803750002,169.15975648750003,74.0,89.0
183,169.16585403750003,169.80152362500002,71.0,83.0
184,169.89756003750003,170.21005947500004,69.0,87.0
185,170.26341303750002,170.66280256250002,71.0,78.0
186,170.62926603750003,171.03170433750003,64.0,90.0
187,170.99511903750002,171.41127682500002,71.0,88.0
188,171.36097203750003,172.56371377500002,69.0,88.0
189,172.82438403750004,173.48749260000002,72.0,78.0
190,173.55609003750004,174.13688167500004,69.0,88.0
191,174.28779603750004,174.74206351250004,79.0,79.0
192,174.65364903750003,175.05761172500004,81.0,84.0
193,175.01950203750002,175.58352541250002,79.0,88.0
194,175.75120803750002,176.12315858750003,76.0,88.0
195,176.11706103750004,176.50577985000004,79.0,90.0
196,176.48291403750002,176.86096213750002,76.0,88.0
197,176.84876703750004,177.21309565000004,74.0,89.0
198,177.21462003750003,178.33047168750002,76.0,85.0
199,178.67803203750003,179.26797000000002,77.0,82.0
200,179.40973803750003,179.78321297500003,69.0,88.0
201,179.77559103750002,180.21156586250004,76.0,89.0
202,180.14144403750004,181.36705158750004,74.0,89.0
203,181.60485603750004,181.96613587500002,76.0,89.0
204,181.97070903750003,182.33656203750004,79.0,87.0
205,182.33656203750004,182.72680523750003,79.0,88.0
206,182.70241503750003,183.43412103750003,81.0,86.0
207,183.79997403750002,184.53168003750002,76.0,83.0
208,184.53168003750002,184.83960631250002,76.0,89.0
209,184.89753303750004,185.13838626250003,74.0,89.0
210,185.26338603750003,185.53777578750004,74.0,89.0
211,185.62923903750004,185.95240918750002,79.0,85.0
212,185.99509203750003,186.30759147500004,76.0,84.0
213,186.36094503750004,186.59722510000003,74.0,89.0
214,186.72679803750003,187.09112665000004,74.0,89.0
215,187.09265103750002,187.44326016250002,76.0,82.0
216,187.45850403750003,189.65362203750004,69.0,86.0
217,189.65362203750004,190.06215788750004,76.0,94.0
218,190.01947503750003,190.42496211250003,79.0,90.0
219,190.38532803750005,191.51794795000004,81.0,89.0
220,191.48288703750003,191.90056921250005,84.0,90.0
221,191.84874003750002,192.26032466250004,83.0,92.0
222,192.21459303750004,192.60788501250002,81.0,89.0
223,192.58044603750002,192.93867710000004,79.0,88.0
224,192.94629903750004,193.33654223750003,83.0,89.0
225,193.31215203750003,195.32586792500004,81.0,92.0
226,195.50727003750004,195.91580588750003,76.0,94.0
227,195.87312303750002,196.27861011250005,79.0,90.0
228,196.23897603750004,197.37159595000003,81.0,89.0
229,197.33653503750003,197.75421721250004,84.0,90.0
230,197.70238803750004,198.11397266250003,83.0,92.0
231,198.06824103750003,198.46153301250004,81.0,89.0
232,198.43409403750005,198.79232510000003,79.0,88.0
233,198.79994703750003,199.53165303750004,83.0,89.0
234,199.53165303750004,201.36091803750003,76.0,92.0
235,201.36091803750003,201.72219787500003,69.0,90.0
236,201.72677103750004,202.14445321250003,76.0,90.0
237,202.09262403750003,203.20237813750003,74.0,94.0
238,203.19018303750005,203.55451165000002,72.0,85.0
239,203.55603603750004,204.30755907500003,74.0,93.0
240,204.28774203750004,204.94475305000003,81.0,89.0
241,205.01944803750004,205.41274001250002,76.0,89.0
242,205.38530103750003,205.70694680000003,79.0,88.0
243,205.75115403750004,206.12767775000003,76.0,89.0
244,206.11700703750003,206.52249411250003,74.0,90.0
245,206.48286003750005,207.65968718750003,76.0,90.0
246,207.94627203750002,208.69779507500004,76.0,87.0
247,208.67797803750003,209.02858716250003,74.0,89.0
248,209.04383103750004,209.45084250000005,72.0,83.0
249,209.40968403750003,210.17797533750004,74.0,95.0
250,210.14139003750003,210.95083980000004,79.0,84.0
251,210.87309603750003,212.91577528750003,76.0,84.0
252,213.06821403750004,213.47674988750003,76.0,94.0
253,213.43406703750003,213.83955411250002,79.0,90.0
254,213.79992003750004,214.93253995000003,81.0,89.0
255,214.89747903750003,215.31516121250004,84.0,90.0
256,215.26333203750005,215.67491666250004,83.0,92.0
257,215.62918503750004,216.02247701250005,81.0,89.0
258,215.99503803750002,216.35326910000003,79.0,88.0
259,216.36089103750004,216.75113423750003,83.0,89.0
260,216.72674403750003,218.74045992500004,81.0,92.0
261,218.92186203750003,219.33039788750003,76.0,94.0
262,219.28771503750005,219.69320211250005,79.0,90.0
263,219.65356803750004,220.78618795000003,81.0,89.0
264,220.75112703750003,221.16880921250004,84.0,90.0
265,221.11698003750004,221.84868603750004,83.0,92.0
266,221.84868603750004,222.24197801250003,81.0,89.0
267,222.21453903750003,222.94624503750003,79.0,88.0
268,222.94624503750003,224.77551003750003,76.0,92.0
269,224.77551003750003,225.13678987500003,69.0,90.0
270,225.14136303750004,225.55904521250005,76.0,90.0
271,225.50721603750003,226.61697013750003,74.0,94.0
272,226.60477503750005,226.96910365000005,72.0,85.0
273,226.97062803750003,227.72215107500003,74.0,93.0
274,227.70233403750004,228.35934505000003,81.0,89.0
275,228.43404003750004,228.82733201250005,76.0,89.0
276,228.79989303750003,229.12153880000005,79.0,88.0
277,229.16574603750004,229.54226975000003,76.0,89.0
278,229.53159903750003,229.93708611250003,74.0,90.0
279,229.89745203750005,231.07427918750005,76.0,90.0
280,231.36086403750005,232.11238707500004,76.0,87.0
281,232.09257003750005,232.44317916250003,74.0,89.0
282,232.45842303750004,232.86543450000005,72.0,83.0
283,232.82427603750003,233.59256733750004,74.0,95.0
284,233.55598203750003,234.28768803750003,76.0,84.0
285,234.28768803750003,236.33036728750005,69.0,84.0
286,236.48280603750004,236.89134188750003,76.0,94.0
287,236.84865903750003,237.25414611250005,79.0,90.0
288,237.21451203750004,238.34713195000003,81.0,89.0
289,238.31207103750003,238.72975321250004,84.0,90.0
290,238.67792403750005,239.08950866250004,83.0,92.0
291,239.04377703750004,239.43706901250005,81.0,89.0
292,239.40963003750005,239.76786110000003,79.0,88.0
293,239.77548303750004,240.16572623750005,83.0,89.0
294,240.14133603750005,242.15505192500004,81.0,92.0
295,242.33645403750003,242.74498988750005,76.0,94.0
296,242.70230703750005,243.10779411250005,79.0,90.0
297,243.06816003750004,244.20077995000005,81.0,89.0
298,244.16571903750005,244.58340121250004,84.0,90.0
299,244.53157203750004,244.94315666250003,83.0,92.0
300,244.89742503750006,245.29071701250004,81.0,89.0
301,245.26327803750004,245.62150910000005,79.0,88.0
302,245.62913103750003,246.36083703750003,83.0,89.0
303,246.36083703750003,248.19010203750005,76.0,92.0
304,248.19010203750005,248.55138187500003,69.0,90.0
305,248.55595503750004,248.97363721250005,76.0,90.0
306,248.92180803750006,250.03156213750003,74.0,94.0
307,250.01936703750005,250.38369565000005,72.0,85.0
308,250.38522003750003,251.13674307500006,74.0,93.0
309,251.11692603750004,251.77393705000006,81.0,89.0
310,251.84863203750004,252.24192401250005,76.0,89.0
311,252.21448503750005,252.53613080000005,79.0,88.0
312,252.58033803750004,252.95686175000003,76.0,89.0
313,252.94619103750006,253.35167811250005,74.0,90.0
314,253.31204403750004,254.48887118750005,76.0,90.0
315,254.77545603750005,255.52697907500004,76.0,87.0
316,255.50716203750005,255.85777116250006,74.0,89.0
317,255.87301503750004,256.2800265,72.0,83.0
318,256.2388680375,257.00715933750007,74.0,95.0
319,256.97057403750006,257.78002380000004,79.0,84.0
320,257.70228003750003,259.7449592875,76.0,84.0
321,259.89739803750007,260.30593388750003,76.0,94.0
322,260.2632510375,260.6687381125,79.0,90.0
323,260.62910403750004,261.76172395000003,81.0,89.0
324,261.72666303750003,262.14434521250007,84.0,90.0
325,262.09251603750005,262.50410066250004,83.0,92.0
326,262.45836903750006,262.8516610125001,81.0,89.0
327,262.8242220375,263.18245310000003,79.0,88.0
328,263.19007503750004,263.5803182375,83.0,89.0
329,263.55592803750005,265.56964392500004,81.0,92.0
330,265.75104603750003,266.15958188750005,76.0,94.0
331,266.11689903750005,266.52238611250004,79.0,90.0
332,266.48275203750006,267.61537195000005,81.0,89.0
333,267.58031103750005,267.99799321250003,84.0,90.0
334,267.94616403750007,268.67787003750004,83.0,92.0
335,268.67787003750004,269.07116201250005,81.0,89.0
336,269.04372303750006,269.77542903750003,79.0,88.0
337,269.77542903750003,271.60469403750005,76.0,92.0
338,271.60469403750005,271.96597387500003,69.0,90.0
339,271.97054703750007,272.38822921250005,76.0,90.0
340,272.3364000375,273.44615413750006,74.0,94.0
341,273.4339590375001,273.79828765,72.0,85.0
342,273.79981203750003,274.55133507500005,74.0,93.0
343,274.53151803750006,275.18852905000006,81.0,89.0
344,275.26322403750004,275.65651601250005,76.0,89.0
345,275.62907703750005,275.95072280000005,79.0,88.0
346,275.99493003750007,276.37145375000006,76.0,89.0
347,276.3607830375,276.7662701125,74.0,90.0
348,276.72663603750004,277.90346318750005,76.0,90.0
349,278.19004803750005,278.94157107500007,76.0,87.0
350,278.9217540375,279.2723631625,74.0,89.0
351,279.28760703750004,279.69461850000005,72.0,83.0
352,279.65346003750005,280.42175133750004,74.0,95.0
353,280.3851660375,281.11687203750006,76.0,84.0
354,281.11687203750006,283.15955128750005,69.0,84.0
355,283.31199003750004,283.6732698750001,69.0,90.0
356,283.67784303750005,284.09552521250004,76.0,90.0
357,284.04369603750007,285.15345013750004,74.0,94.0
358,285.14125503750006,285.50558365000006,72.0,85.0
359,285.5071080375001,286.25863107500004,74.0,93.0
360,286.23881403750005,286.89582505000004,81.0,89.0
361,286.9705200375,287.36381201250003,76.0,89.0
362,287.33637303750004,287.65801880000004,79.0,88.0
363,287.70222603750005,288.07874975000004,76.0,89.0
364,288.06807903750007,288.47356611250007,74.0,90.0
365,288.4339320375,289.61075918750004,76.0,90.0
366,289.89734403750003,290.64886707500006,76.0,87.0
367,290.62905003750006,290.97965916250007,74.0,89.0
368,290.9949030375,291.40191450000003,72.0,83.0
369,291.36075603750004,292.1290473375,74.0,95.0
370,292.09246203750007,292.82416803750004,76.0,84.0
371,292.82416803750004,294.86684728750004,69.0,84.0
