,start,end,pitch,velocity
0,3.0685920375000006,3.5167619625000004,53.0,83.0
1,3.8002980375000006,4.021334225,57.0,84.0
2,3.4344450375000006,4.025907387500001,48.0,77.0
3,3.0685920375000006,4.082309725000001,60.0,83.0
4,3.983224537500001,4.242370412500001,53.0,88.0
5,3.0685920375000006,4.260663062500001,41.0,89.0
6,4.166151037500001,4.423772525,60.0,88.0
7,4.3490775375,4.458833437500001,53.0,87.0
8,4.532004037500001,5.086881087500001,59.0,86.0
9,4.897857037500001,5.458831637500001,50.0,84.0
10,4.532004037500001,5.480173062500001,43.0,89.0
11,5.263710037500001,5.490843775000001,59.0,83.0
12,5.263710037500001,5.493892550000001,55.0,82.0
13,5.263710037500001,5.547246112500001,62.0,86.0
14,5.995416037500001,6.420720150000001,57.0,80.0
15,5.995416037500001,6.443585962500001,60.0,83.0
16,6.361269037500001,6.826207225000001,52.0,78.0
17,6.727122037500001,7.120414012500001,57.0,88.0
18,6.727122037500001,7.181389512500001,64.0,90.0
19,7.092975037500001,7.626510662500001,52.0,77.0
20,7.458828037500001,7.852120012500001,57.0,88.0
21,7.458828037500001,7.916144287500002,62.0,88.0
22,7.824681037500001,8.253033925000002,52.0,83.0
23,5.995416037500001,8.618886925000002,45.0,89.0
24,8.1905340375,8.620411312500002,60.0,89.0
25,8.1905340375,8.655472225000002,57.0,88.0
26,8.556387037500002,8.762179350000002,59.0,89.0
27,8.739313537500001,8.9512034,60.0,82.0
28,8.922240037500002,9.315532012500002,57.0,81.0
29,9.288093037500001,9.717970312500002,48.0,80.0
30,9.6539460375,9.992360062500001,53.0,86.0
31,8.922240037500002,10.057908725000003,41.0,88.0
32,9.6539460375,10.068579437500002,60.0,88.0
33,10.019799037500002,10.158518300000003,48.0,86.0
34,10.385652037500002,10.803334212500001,55.0,84.0
35,10.385652037500002,10.849065837500001,59.0,88.0
36,11.117358037500003,11.312479637500003,59.0,88.0
37,10.385652037500002,11.315528412500003,43.0,89.0
38,10.751505037500001,11.321625962500002,50.0,84.0
39,11.117358037500003,11.327723512500002,55.0,87.0
40,11.849064037500002,12.300282737500002,55.0,85.0
41,11.849064037500002,12.349063137500002,64.0,89.0
42,12.580770037500002,12.829245200000003,55.0,90.0
43,12.580770037500002,12.878025600000003,64.0,90.0
44,12.946623037500002,13.131073925000003,62.0,90.0
45,11.849064037500002,13.167659225000003,48.0,89.0
46,12.214917037500003,13.178329937500003,52.0,75.0
47,13.129549537500003,13.266744412500003,64.0,82.0
48,13.312476037500002,13.599060887500002,55.0,89.0
49,13.312476037500002,13.858206762500002,60.0,92.0
50,13.312476037500002,14.268267000000003,48.0,90.0
51,13.678329037500003,14.278937712500003,52.0,90.0
52,14.044182037500002,14.379547287500003,55.0,84.0
53,14.044182037500002,14.452717887500002,62.0,88.0
54,14.410035037500002,14.707290600000002,60.0,88.0
55,14.775888037500003,15.068570437500002,62.0,85.0
56,15.324667537500003,15.565520762500002,57.0,80.0
57,15.507594037500002,15.693569312500003,62.0,83.0
58,15.141741037500003,15.858203162500002,45.0,72.0
59,15.690520537500003,15.948142025000003,65.0,89.0
60,15.873447037500004,16.065519862500004,62.0,88.0
61,14.775888037500003,16.073141800000002,38.0,90.0
62,16.056373537500004,16.192044025,57.0,77.0
63,16.2393000375,16.646311500000003,57.0,80.0
64,16.2393000375,16.753018625000003,62.0,82.0
65,16.605153037500003,17.108200912500003,45.0,68.0
66,16.971006037500004,17.1386886625,57.0,79.0
67,16.2393000375,17.190517837500003,38.0,88.0
68,16.971006037500004,17.193566612500003,62.0,85.0
69,16.971006037500004,17.222529975000004,65.0,82.0
70,17.702712037500003,18.0502723875,59.0,85.0
71,17.702712037500003,18.341430400000004,67.0,81.0
72,18.068565037500004,18.519783737500003,47.0,74.0
73,18.2514915375,18.574661687500004,59.0,83.0
74,17.702712037500003,18.608198212500003,40.0,90.0
75,18.434418037500002,18.656978612500005,64.0,88.0
76,18.617344537500003,18.862770925000003,67.0,88.0
77,18.800271037500004,19.041124262500002,64.0,87.0
78,18.983197537500004,19.199660562500004,59.0,87.0
79,19.531977037500003,19.809415562500003,57.0,82.0
80,19.714903537500003,19.911549525000005,60.0,85.0
81,19.349050537500002,20.003012775000002,52.0,82.0
82,20.080756537500005,20.317036600000005,57.0,82.0
83,19.166124037500005,20.345999962500002,45.0,89.0
84,20.263683037500005,20.391731587500004,52.0,89.0
85,19.897830037500004,20.493865550000002,64.0,92.0
86,20.446609537500002,20.679840825000003,57.0,83.0
87,20.629536037500003,21.470997937500005,60.0,88.0
88,21.361242037500002,21.687460962500005,53.0,89.0
89,21.544168537500003,21.754534012500002,57.0,85.0
90,20.995389037500004,21.809411962500004,48.0,82.0
91,20.629536037500003,21.841424100000005,41.0,88.0
92,21.727095037500003,21.916119087500004,60.0,82.0
93,22.092948037500005,22.521300925000006,59.0,82.0
94,22.092948037500005,22.544166737500003,55.0,83.0
95,22.458801037500002,22.980141562500005,50.0,79.0
96,22.092948037500005,23.003007375000003,43.0,88.0
97,22.824654037500004,23.003007375000003,55.0,84.0
98,22.824654037500004,23.024348800000006,59.0,88.0
99,23.556360037500003,24.056359137500003,60.0,83.0
100,23.556360037500003,24.083798112500006,57.0,79.0
101,23.922213037500004,24.429834075000006,52.0,80.0
102,24.288066037500005,24.509102225000003,60.0,86.0
103,24.288066037500005,24.681358012500006,57.0,83.0
104,24.653919037500003,24.836845537500004,59.0,80.0
105,23.556360037500003,24.853613800000005,45.0,88.0
106,24.836845537500004,25.010625712500005,60.0,74.0
107,25.019772037500005,25.480137062500006,57.0,80.0
108,25.385625037500006,25.916111887500005,52.0,80.0
109,25.751478037500004,25.919160662500005,60.0,73.0
110,25.751478037500004,25.940502087500004,57.0,74.0
111,25.751478037500004,25.958794737500003,64.0,84.0
112,25.019772037500005,25.986233712500006,45.0,83.0
113,26.483184037500006,27.182877900000005,57.0,73.0
114,26.483184037500006,27.268243600000005,60.0,77.0
115,26.849037037500004,27.493852950000004,52.0,78.0
116,26.483184037500006,27.551779675000006,45.0,88.0
117,27.214890037500005,27.634096600000007,64.0,86.0
118,27.580743037500003,27.759096375000006,57.0,85.0
119,27.946596037500004,28.492326762500007,59.0,79.0
120,27.946596037500004,28.716411725000004,55.0,78.0
121,28.312449037500006,28.746899475000006,50.0,72.0
122,28.678302037500004,28.803301812500006,59.0,87.0
123,27.946596037500004,28.806350587500006,43.0,83.0
124,28.678302037500004,28.826167625000004,62.0,81.0
125,29.410008037500006,29.946592437500005,59.0,80.0
126,29.775861037500004,30.132567712500006,47.0,74.0
127,29.410008037500006,30.196591987500007,55.0,77.0
128,29.410008037500006,30.211835862500006,40.0,84.0
129,30.141714037500005,30.586835187500004,59.0,83.0
130,30.507567037500007,30.698115475000005,55.0,88.0
131,30.141714037500005,30.887139525000006,64.0,88.0
132,30.873420037500004,31.373419137500004,60.0,80.0
133,30.873420037500004,31.635613787500006,57.0,76.0
134,31.605126037500007,31.737747750000004,64.0,80.0
135,31.239273037500006,31.742320912500006,52.0,78.0
136,31.605126037500007,31.748418462500005,60.0,77.0
137,30.873420037500004,31.810918350000005,45.0,85.0
138,32.3368320375,33.23774505000001,60.0,84.0
139,32.702685037500004,33.275854737500005,48.0,79.0
140,32.3368320375,33.3246351375,41.0,85.0
141,33.068538037500005,33.501464087500004,53.0,83.0
142,33.434391037500006,33.73469537500001,57.0,88.0
143,33.80024403750001,34.365791800000004,55.0,83.0
144,33.80024403750001,34.390182,59.0,81.0
145,34.16609703750001,34.637132775000005,50.0,76.0
146,34.5319500375,34.643230325000005,55.0,83.0
147,34.5319500375,34.643230325000005,59.0,85.0
148,33.80024403750001,34.719449700000006,43.0,84.0
149,35.263656037500006,35.69505770000001,55.0,82.0
150,35.263656037500006,36.06091070000001,64.0,88.0
151,35.62950903750001,36.09749600000001,47.0,76.0
152,35.263656037500006,36.1478007875,40.0,88.0
153,36.36121503750001,36.531946437500004,55.0,78.0
154,35.99536203750001,36.559385412500006,59.0,84.0
155,36.727068037500004,37.19810377500001,57.0,78.0
156,36.727068037500004,37.20420132500001,60.0,83.0
157,37.45877403750001,37.60663962500001,57.0,82.0
158,37.45877403750001,37.772797862500006,64.0,89.0
159,37.092921037500005,37.83682213750001,52.0,81.0
160,36.727068037500004,37.86730988750001,45.0,84.0
161,37.82462703750001,38.21944340000001,57.0,83.0
162,38.19048003750001,38.92980797500001,65.0,86.0
163,38.5563330375,38.986210312500006,57.0,83.0
164,38.922186037500005,39.19047823750001,62.0,82.0
165,38.19048003750001,39.201148950000004,50.0,86.0
166,39.65389203750001,40.053281562500004,55.0,80.0
167,39.65389203750001,40.25145193750001,59.0,83.0
168,40.01974503750001,40.626451262500005,50.0,76.0
169,39.65389203750001,40.679804825000005,43.0,83.0
170,40.38559803750001,40.78346317500001,62.0,84.0
171,40.751451037500004,41.15084056250001,55.0,89.0
172,41.117304037500006,41.675229862500004,59.0,75.0
173,41.48315703750001,42.03193653750001,47.0,75.0
174,41.117304037500006,42.09138765000001,40.0,88.0
175,41.84901003750001,42.30327751250001,59.0,85.0
176,41.117304037500006,42.556325837500005,64.0,85.0
177,42.58071603750001,43.100532175000005,57.0,73.0
178,42.58071603750001,43.112727275000005,60.0,81.0
179,43.312422037500006,43.48772660000001,57.0,77.0
180,42.946569037500005,43.556324037500005,52.0,81.0
181,43.312422037500006,43.58681178750001,60.0,82.0
182,43.312422037500006,43.65998238750001,64.0,85.0
183,42.58071603750001,43.78345777500001,45.0,87.0
184,43.67827503750001,44.070042625000006,57.0,86.0
185,44.04412803750001,44.76059016250001,65.0,84.0
186,44.40998103750001,44.852053412500005,57.0,90.0
187,44.04412803750001,44.87187045000001,50.0,88.0
188,44.775834037500005,45.135589487500006,62.0,88.0
189,45.141687037500006,45.320040375000005,57.0,81.0
190,45.50754003750001,45.99839281250001,55.0,77.0
191,45.50754003750001,46.01058791250001,59.0,83.0
192,46.23924603750001,46.38101407500001,55.0,79.0
193,45.87339303750001,46.40692866250001,50.0,74.0
194,45.50754003750001,46.46485538750001,43.0,84.0
195,46.23924603750001,46.63558678750001,59.0,81.0
196,46.60509903750001,46.76820850000001,55.0,85.0
197,46.23924603750001,46.80936696250001,62.0,82.0
198,46.970952037500005,47.73162140000001,57.0,78.0
199,46.970952037500005,47.77125547500001,60.0,79.0
200,47.70265803750001,48.20570591250001,64.0,83.0
201,47.33680503750001,48.272778962500006,52.0,77.0
202,46.970952037500005,48.27735212500001,45.0,85.0
203,48.06851103750001,48.30326671250001,57.0,80.0
204,48.43436403750001,48.948082625000005,57.0,77.0
205,48.43436403750001,48.96332650000001,60.0,78.0
206,48.43436403750001,49.02735077500001,64.0,85.0
207,49.166070037500006,49.34594776250001,60.0,88.0
208,49.166070037500006,49.37643551250001,57.0,84.0
209,49.166070037500006,49.385581837500006,64.0,89.0
210,48.80021703750001,49.51667916250001,52.0,76.0
211,48.43436403750001,49.60966680000001,45.0,83.0
212,49.53192303750001,49.68588617500001,60.0,87.0
213,49.89777603750001,50.59746990000001,57.0,73.0
214,49.89777603750001,50.68283560000001,60.0,77.0
215,50.26362903750001,50.90844495000001,52.0,78.0
216,49.89777603750001,50.96637167500001,45.0,88.0
217,50.62948203750001,51.048688600000006,64.0,86.0
218,50.995335037500006,51.17368837500001,57.0,85.0
219,51.36118803750001,51.906918762500005,59.0,79.0
220,51.36118803750001,52.13100372500001,55.0,78.0
221,51.72704103750001,52.16149147500001,50.0,72.0
222,52.09289403750001,52.21789381250001,59.0,87.0
223,51.36118803750001,52.22094258750001,43.0,83.0
224,52.09289403750001,52.24075962500001,62.0,81.0
225,52.82460003750001,53.36118443750001,59.0,80.0
226,53.190453037500006,53.54715971250001,47.0,74.0
227,52.82460003750001,53.611183987500006,55.0,77.0
228,52.82460003750001,53.62642786250001,40.0,84.0
229,53.55630603750001,54.001427187500006,59.0,83.0
230,53.92215903750001,54.11270747500001,55.0,88.0
231,53.55630603750001,54.30173152500001,64.0,88.0
232,54.28801203750001,54.78801113750001,60.0,80.0
233,54.28801203750001,55.05020578750001,57.0,76.0
234,55.01971803750001,55.15233975000001,64.0,80.0
235,54.65386503750001,55.15691291250001,52.0,78.0
236,55.01971803750001,55.16301046250001,60.0,77.0
237,54.28801203750001,55.22551035000001,45.0,85.0
238,55.75142403750001,56.65233705000001,60.0,84.0
239,56.11727703750001,56.69044673750001,48.0,79.0
240,55.75142403750001,56.73922713750001,41.0,85.0
241,56.48313003750001,56.91605608750001,53.0,83.0
242,56.84898303750001,57.14928737500001,57.0,88.0
243,57.21483603750001,57.78038380000001,55.0,83.0
244,57.21483603750001,57.80477400000001,59.0,81.0
245,57.58068903750001,58.05172477500001,50.0,76.0
246,57.94654203750001,58.05782232500001,55.0,83.0
247,57.94654203750001,58.05782232500001,59.0,85.0
248,57.21483603750001,58.13404170000001,43.0,84.0
249,58.67824803750001,59.10964970000001,55.0,82.0
250,58.67824803750001,59.47550270000001,64.0,88.0
251,59.04410103750001,59.51208800000001,47.0,76.0
252,58.67824803750001,59.56239278750001,40.0,88.0
253,59.77580703750001,59.94653843750001,55.0,78.0
254,59.40995403750001,59.97397741250001,59.0,84.0
255,60.14166003750001,60.61269577500001,57.0,78.0
256,60.14166003750001,60.61879332500001,60.0,83.0
257,60.87336603750001,61.02123162500001,57.0,82.0
258,60.87336603750001,61.18738986250001,64.0,89.0
259,60.50751303750001,61.251414137500014,52.0,81.0
260,60.14166003750001,61.28190188750001,45.0,84.0
261,61.239219037500014,61.63403540000001,57.0,83.0
262,61.60507203750001,62.34439997500001,65.0,86.0
263,61.97092503750001,62.40080231250001,57.0,83.0
264,62.33677803750001,62.60507023750001,62.0,82.0
265,61.60507203750001,62.61574095000001,50.0,86.0
266,63.06848403750001,63.46787356250001,55.0,80.0
267,63.06848403750001,63.666043937500014,59.0,83.0
268,63.43433703750001,64.04104326250001,50.0,76.0
269,63.06848403750001,64.09439682500002,43.0,83.0
270,63.80019003750001,64.19805517500001,62.0,84.0
271,64.16604303750002,64.5654325625,55.0,89.0
272,64.5318960375,65.08982186250002,59.0,75.0
273,64.8977490375,65.44652853750001,47.0,75.0
274,64.5318960375,65.50597965000001,40.0,88.0
275,65.26360203750001,65.71786951250002,59.0,85.0
276,64.5318960375,65.97091783750001,64.0,85.0
277,65.99530803750001,66.51512417500001,57.0,73.0
278,65.99530803750001,66.52731927500001,60.0,81.0
279,66.72701403750001,66.90231860000002,57.0,77.0
280,66.36116103750001,66.97091603750002,52.0,81.0
281,66.72701403750001,67.00140378750001,60.0,82.0
282,66.72701403750001,67.07457438750001,64.0,85.0
283,65.99530803750001,67.19804977500002,45.0,87.0
284,67.09286703750001,67.48463462500001,57.0,86.0
285,67.45872003750002,68.17518216250001,65.0,84.0
286,67.82457303750002,68.26664541250001,57.0,90.0
287,67.45872003750002,68.28646245000002,50.0,88.0
288,68.19042603750002,68.55018148750001,62.0,88.0
289,68.5562790375,68.73463237500002,57.0,81.0
290,68.9221320375,69.41298481250001,55.0,77.0
291,68.9221320375,69.42517991250001,59.0,83.0
292,69.65383803750001,69.79560607500001,55.0,79.0
293,69.28798503750001,69.8215206625,50.0,74.0
294,68.9221320375,69.87944738750001,43.0,84.0
295,69.65383803750001,70.05017878750002,59.0,81.0
296,70.01969103750001,70.18280050000001,55.0,85.0
297,69.65383803750001,70.2239589625,62.0,82.0
298,70.38554403750001,71.14621340000001,57.0,78.0
299,70.38554403750001,71.18584747500002,60.0,79.0
300,71.11725003750001,71.6202979125,64.0,83.0
301,70.75139703750001,71.68737096250001,52.0,77.0
302,70.38554403750001,71.691944125,45.0,85.0
303,71.48310303750002,71.71785871250002,57.0,80.0
304,71.84895603750002,72.36267462500001,57.0,77.0
305,71.84895603750002,72.3779185,60.0,78.0
306,71.84895603750002,72.44194277500002,64.0,85.0
307,72.58066203750002,72.76053976250002,60.0,88.0
308,72.58066203750002,72.79102751250001,57.0,84.0
309,72.58066203750002,72.80017383750001,64.0,89.0
310,72.21480903750002,72.93127116250001,52.0,76.0
311,71.84895603750002,73.02425880000001,45.0,83.0
312,72.9465150375,73.100478175,60.0,87.0
313,73.31236803750001,73.78340377500001,57.0,87.0
314,73.31236803750001,73.84285488750001,60.0,88.0
315,73.67822103750001,74.10200076250001,48.0,88.0
316,74.04407403750001,74.19803717500001,57.0,83.0
317,73.31236803750001,74.26206145000002,41.0,88.0
318,74.04407403750001,74.33980521250001,60.0,89.0
319,74.22700053750002,74.38096367500002,48.0,88.0
320,74.04407403750001,74.48309763750001,65.0,88.0
321,74.40992703750001,74.66145097500001,57.0,85.0
322,74.59285353750002,74.68279240000001,60.0,83.0
323,74.77578003750001,75.18126711250001,55.0,86.0
324,74.77578003750001,75.20108415000001,59.0,88.0
325,75.14163303750001,75.56998592500001,50.0,83.0
326,74.77578003750001,75.67211988750002,43.0,88.0
327,75.50748603750002,75.79102211250002,55.0,90.0
328,75.50748603750002,75.80169282500002,59.0,92.0
329,75.50748603750002,75.82913180000001,62.0,88.0
330,75.87333903750002,75.99529003750001,50.0,83.0
331,76.23919203750002,76.64163033750002,57.0,81.0
332,76.23919203750002,76.64925227500001,60.0,84.0
333,76.60504503750002,77.03644670000001,52.0,84.0
334,76.9708980375,77.36266562500002,57.0,85.0
335,76.9708980375,77.38400705000001,60.0,90.0
336,76.9708980375,77.41906796250001,64.0,90.0
337,76.23919203750002,77.49376295000002,45.0,88.0
338,77.33675103750001,77.527299475,52.0,85.0
339,77.51967753750002,77.61571395000001,57.0,79.0
340,77.51967753750002,77.6218115,62.0,79.0
341,77.70260403750001,78.08217652500001,57.0,83.0
342,77.70260403750001,78.12028621250002,62.0,88.0
343,78.25138353750002,78.38552963750001,57.0,80.0
344,78.06845703750001,78.51052941250002,52.0,89.0
345,77.70260403750001,78.71937050000001,45.0,89.0
346,78.61723653750002,78.73918753750002,52.0,92.0
347,78.43431003750001,78.74985825000002,60.0,94.0
348,78.80016303750001,79.01510167500001,57.0,89.0
349,78.9830895375,79.08979666250002,60.0,77.0
350,79.16601603750001,79.60961280000001,60.0,88.0
351,79.53186903750002,79.94192927500002,48.0,84.0
352,79.89772203750002,80.19802637500001,53.0,89.0
353,79.16601603750001,80.25290432500002,41.0,88.0
354,80.08064853750001,80.27424575000002,57.0,89.0
355,80.26357503750002,80.50442826250001,60.0,93.0
356,80.44650153750001,80.60351345000001,53.0,88.0
357,80.99528103750002,81.27881711250001,55.0,89.0
358,81.17820753750001,81.40076811250002,59.0,88.0
359,80.81235453750001,81.51814595000002,50.0,86.0
360,81.36113403750001,81.61570675000002,62.0,90.0
361,81.54406053750002,81.78643815000001,55.0,90.0
362,80.62942803750002,81.90381598750001,43.0,84.0
363,81.72698703750001,81.93735251250001,50.0,89.0
364,82.09284003750001,82.31540061250001,55.0,83.0
365,82.09284003750001,82.52119292500001,64.0,87.0
366,82.09284003750001,82.53033925000001,60.0,83.0
367,82.45869303750001,82.64771708750001,55.0,87.0
368,82.82454603750001,83.01204570000002,60.0,90.0
369,82.82454603750001,83.01814325000001,55.0,90.0
370,82.09284003750001,83.13704547500001,48.0,90.0
371,82.82454603750001,83.14466741250001,64.0,94.0
372,83.19039903750001,83.41600838750001,62.0,88.0
373,83.37332553750001,83.54710571250001,64.0,84.0
374,83.55625203750002,83.78643455000001,55.0,89.0
375,83.55625203750002,84.12027541250002,60.0,93.0
376,84.10503153750001,84.27271416250001,55.0,78.0
377,84.28795803750002,84.39314077500002,55.0,84.0
378,83.55625203750002,84.63399400000002,48.0,90.0
379,84.28795803750002,84.68734756250001,62.0,91.0
380,84.65381103750002,84.91448130000002,60.0,86.0
381,85.01966403750002,85.42819988750001,62.0,84.0
382,85.75137003750001,85.78338217500001,62.0,77.0
383,85.75137003750001,85.98917448750001,57.0,84.0
384,85.38551703750001,86.16143027500001,45.0,74.0
385,85.75137003750001,86.17667415000001,65.0,87.0
386,85.01966403750002,86.27880811250002,38.0,92.0
387,86.11722303750001,86.42057615000002,62.0,83.0
388,86.48307603750001,86.91752647500002,62.0,83.0
389,86.48307603750001,86.92514841250002,57.0,82.0
390,86.84892903750001,87.30929406250002,45.0,82.0
391,87.21478203750002,87.33215987500002,57.0,85.0
392,86.48307603750001,87.38246466250001,38.0,88.0
393,87.21478203750002,87.53642780000001,65.0,87.0
394,87.21478203750002,87.54252535000002,62.0,90.0
395,87.58063503750002,87.67514706250002,57.0,84.0
396,87.94648803750002,88.59892588750002,55.0,82.0
397,87.94648803750002,88.68886475000002,52.0,80.0
398,88.31234103750002,88.77727922500002,47.0,77.0
399,87.94648803750002,88.84892543750001,40.0,89.0
400,88.67819403750002,89.13551028750001,59.0,85.0
401,89.04404703750002,89.20715650000001,52.0,88.0
402,89.40990003750001,89.82605782500002,57.0,76.0
403,89.40990003750001,89.86721628750001,60.0,80.0
404,89.77575303750001,90.26660581250002,52.0,84.0
405,90.14160603750001,90.33520325000002,60.0,89.0
406,90.14160603750001,90.37026416250002,57.0,88.0
407,90.32453253750002,90.46630057500002,52.0,88.0
408,89.40990003750001,90.49831271250001,45.0,89.0
409,90.50745903750001,90.58062963750001,55.0,79.0
410,90.50745903750001,90.75440981250001,59.0,95.0
411,90.87331203750001,91.11416526250001,57.0,81.0
412,90.87331203750001,91.33215267500002,62.0,83.0
413,91.23916503750002,91.42514031250002,57.0,89.0
414,90.87331203750001,91.76050556250001,50.0,81.0
415,91.60501803750002,91.85044442500002,57.0,89.0
416,91.60501803750002,91.99526123750002,62.0,91.0
417,91.60501803750002,92.06690745000002,65.0,88.0
418,91.97087103750002,92.11568785000001,50.0,91.0
419,92.15379753750001,92.24373640000002,57.0,88.0
420,92.33672403750002,92.73611356250002,55.0,89.0
421,92.33672403750002,92.77269886250002,59.0,89.0
422,92.70257703750002,93.24525898750002,50.0,81.0
423,93.06843003750002,93.25897847500002,55.0,90.0
424,92.33672403750002,93.26660041250001,43.0,89.0
425,93.06843003750002,93.27727112500001,59.0,90.0
426,93.06843003750002,93.30623448750002,62.0,88.0
427,93.43428303750002,93.57605107500001,43.0,89.0
428,93.80013603750001,94.13245251250001,52.0,86.0
429,93.80013603750001,94.28794003750002,59.0,86.0
430,94.71476853750002,94.97239002500001,56.0,89.0
431,94.53184203750001,95.02269481250002,52.0,89.0
432,93.80013603750001,95.08062153750002,40.0,93.0
433,94.89769503750001,95.13854826250002,59.0,93.0
434,95.08062153750002,95.48153545000001,64.0,93.0
435,95.26354803750002,95.76659591250002,68.0,90.0
436,95.81232753750001,95.94342486250002,64.0,88.0
437,95.62940103750002,96.06537586250002,59.0,102.0
438,95.99525403750002,96.22696093750001,64.0,89.0
439,95.26354803750002,96.24372920000002,52.0,95.0
440,96.17818053750001,96.39311917500002,59.0,90.0
441,95.99525403750002,96.40531427500002,68.0,93.0
442,95.99525403750002,96.46628977500002,76.0,92.0
443,95.99525403750002,96.51049701250001,71.0,93.0
444,96.36110703750002,96.60653342500002,64.0,93.0
445,96.54403353750001,96.68122841250002,68.0,85.0
446,96.72696003750002,97.19799577500002,57.0,87.0
447,96.72696003750002,97.25744688750002,60.0,88.0
448,97.09281303750002,97.51659276250001,48.0,88.0
449,97.45866603750002,97.61262917500002,57.0,83.0
450,96.72696003750002,97.67665345000002,41.0,88.0
451,97.45866603750002,97.75439721250002,60.0,89.0
452,97.64159253750002,97.79555567500002,48.0,88.0
453,97.45866603750002,97.89768963750002,65.0,88.0
454,97.82451903750001,98.07604297500002,57.0,85.0
455,98.00744553750002,98.09738440000002,60.0,83.0
456,98.19037203750001,98.59585911250002,55.0,86.0
457,98.19037203750001,98.61567615000001,59.0,88.0
458,98.55622503750001,98.98457792500001,50.0,83.0
459,98.19037203750001,99.08671188750002,43.0,88.0
460,98.92207803750001,99.20561411250002,55.0,90.0
461,98.92207803750001,99.21628482500002,59.0,92.0
462,98.92207803750001,99.24372380000001,62.0,88.0
463,99.28793103750002,99.40988203750001,50.0,83.0
464,99.65378403750002,100.05622233750002,57.0,81.0
465,99.65378403750002,100.06384427500002,60.0,84.0
466,100.01963703750002,100.45103870000001,52.0,84.0
467,100.38549003750002,100.77725762500002,57.0,85.0
468,100.38549003750002,100.79859905000002,60.0,90.0
469,100.38549003750002,100.83365996250002,64.0,90.0
470,99.65378403750002,100.90835495000002,45.0,88.0
471,100.75134303750002,100.94189147500002,52.0,85.0
472,100.93426953750001,101.03030595000001,57.0,79.0
473,100.93426953750001,101.03640350000002,62.0,79.0
474,101.11719603750002,101.49676852500002,57.0,83.0
475,101.11719603750002,101.53487821250002,62.0,88.0
476,101.66597553750002,101.80012163750001,57.0,80.0
477,101.48304903750002,101.92512141250002,52.0,89.0
478,101.11719603750002,102.13396250000002,45.0,89.0
479,102.03182853750002,102.15377953750001,52.0,92.0
480,101.84890203750001,102.16445025000002,60.0,94.0
481,102.21475503750001,102.42969367500002,57.0,89.0
482,102.39768153750002,102.50438866250002,60.0,77.0
483,102.58060803750001,103.02420480000002,60.0,88.0
484,102.94646103750001,103.35652127500002,48.0,84.0
485,103.31231403750002,103.61261837500001,53.0,89.0
486,102.58060803750001,103.66749632500002,41.0,88.0
487,103.49524053750002,103.68883775000002,57.0,89.0
488,103.67816703750002,103.91902026250001,60.0,93.0
489,103.86109353750001,104.01810545000002,53.0,88.0
490,104.40987303750002,104.69340911250002,55.0,89.0
491,104.59279953750001,104.81536011250002,59.0,88.0
492,104.22694653750001,104.93273795000002,50.0,86.0
493,104.77572603750002,105.03029875000001,62.0,90.0
494,104.95865253750002,105.20103015000002,55.0,90.0
495,104.04402003750002,105.31840798750002,43.0,84.0
496,105.14157903750002,105.35194451250001,50.0,89.0
497,105.50743203750002,105.72999261250001,55.0,83.0
498,105.50743203750002,105.93578492500002,64.0,87.0
499,105.50743203750002,105.94493125000002,60.0,83.0
500,105.87328503750003,106.06230908750001,55.0,87.0
501,106.23913803750001,106.42663770000001,60.0,90.0
502,106.23913803750001,106.43273525000002,55.0,90.0
503,105.50743203750002,106.55163747500002,48.0,90.0
504,106.23913803750001,106.55925941250001,64.0,94.0
505,106.60499103750001,106.83060038750001,62.0,88.0
506,106.78791753750002,106.96169771250001,64.0,84.0
507,106.97084403750002,107.20102655000002,55.0,89.0
508,106.97084403750002,107.53486741250002,60.0,93.0
509,107.51962353750002,107.68730616250002,55.0,78.0
510,107.70255003750002,107.80773277500002,55.0,84.0
511,106.97084403750002,108.04858600000001,48.0,90.0
512,107.70255003750002,108.10193956250002,62.0,91.0
513,108.06840303750002,108.32907330000002,60.0,86.0
514,108.43425603750002,108.84279188750001,62.0,84.0
515,109.16596203750002,109.19797417500001,62.0,77.0
516,109.16596203750002,109.40376648750002,57.0,84.0
517,108.80010903750002,109.57602227500001,45.0,74.0
518,109.16596203750002,109.59126615000002,65.0,87.0
519,108.43425603750002,109.69340011250002,38.0,92.0
520,109.53181503750002,109.83516815000002,62.0,83.0
521,109.89766803750003,110.33211847500002,62.0,83.0
522,109.89766803750003,110.33974041250002,57.0,82.0
523,110.26352103750001,110.72388606250001,45.0,82.0
524,110.62937403750001,110.74675187500002,57.0,85.0
525,109.89766803750003,110.79705666250003,38.0,88.0
526,110.62937403750001,110.95101980000003,65.0,87.0
527,110.62937403750001,110.95711735000002,62.0,90.0
528,110.99522703750002,111.08973906250002,57.0,84.0
529,111.36108003750002,112.01351788750002,55.0,82.0
530,111.36108003750002,112.10345675000002,52.0,80.0
531,111.72693303750002,112.19187122500001,47.0,77.0
532,111.36108003750002,112.26351743750001,40.0,89.0
533,112.09278603750002,112.55010228750002,59.0,85.0
534,112.45863903750002,112.62174850000002,52.0,88.0
535,112.82449203750002,113.24064982500002,57.0,76.0
536,112.82449203750002,113.28180828750001,60.0,80.0
537,113.19034503750002,113.68119781250002,52.0,84.0
538,113.55619803750002,113.74979525000002,60.0,89.0
539,113.55619803750002,113.78485616250002,57.0,88.0
540,113.73912453750002,113.88089257500002,52.0,88.0
541,112.82449203750002,113.91290471250002,45.0,89.0
542,113.92205103750003,113.99522163750002,55.0,79.0
543,113.92205103750003,114.16900181250001,59.0,95.0
544,114.28790403750001,114.52875726250002,57.0,81.0
545,114.28790403750001,114.74674467500002,62.0,83.0
546,114.65375703750001,114.83973231250002,57.0,89.0
547,114.28790403750001,115.17509756250001,50.0,81.0
548,115.01961003750002,115.26503642500002,57.0,89.0
549,115.01961003750002,115.40985323750002,62.0,91.0
550,115.01961003750002,115.48149945000002,65.0,88.0
551,115.38546303750002,115.53027985000001,50.0,91.0
552,115.56838953750002,115.65832840000002,57.0,88.0
553,115.75131603750002,116.15070556250002,55.0,89.0
554,115.75131603750002,116.18729086250002,59.0,89.0
555,116.11716903750002,116.65985098750002,50.0,81.0
556,116.48302203750002,116.67357047500002,55.0,90.0
557,115.75131603750002,116.68119241250002,43.0,89.0
558,116.48302203750002,116.69186312500003,59.0,90.0
559,116.48302203750002,116.72082648750002,62.0,88.0
560,116.84887503750002,116.99064307500002,43.0,89.0
561,117.21472803750002,117.63698337500001,60.0,88.0
562,117.21472803750002,117.65070286250003,57.0,84.0
563,117.94643403750003,118.14917757500002,60.0,89.0
564,117.94643403750003,118.15222635000002,57.0,83.0
565,117.94643403750003,118.20100675000002,64.0,89.0
566,118.31228703750003,118.53179883750002,62.0,83.0
567,117.58058103750002,118.53637200000001,52.0,82.0
568,117.21472803750002,118.58057923750002,45.0,89.0
569,118.49521353750002,118.68271320000002,64.0,80.0
570,118.67814003750001,119.09734660000002,57.0,78.0
571,118.67814003750001,119.14002945000001,60.0,80.0
572,119.40984603750002,119.60344325000003,57.0,78.0
573,119.40984603750002,119.78941852500002,60.0,85.0
574,119.04399303750002,119.93728411250002,52.0,77.0
575,118.67814003750001,119.94643043750003,45.0,88.0
576,119.77569903750002,119.95405237500002,57.0,77.0
577,120.14155203750002,120.61258777500002,57.0,87.0
578,120.14155203750002,120.67203888750002,60.0,88.0
579,120.50740503750002,120.93118476250002,48.0,88.0
580,120.87325803750002,121.02722117500002,57.0,83.0
581,120.14155203750002,121.09124545000002,41.0,88.0
582,120.87325803750002,121.16898921250002,60.0,89.0
583,121.05618453750002,121.21014767500002,48.0,88.0
584,120.87325803750002,121.31228163750002,65.0,88.0
585,121.23911103750002,121.49063497500002,57.0,85.0
586,121.42203753750002,121.51197640000002,60.0,83.0
587,121.60496403750003,122.01045111250002,55.0,86.0
588,121.60496403750003,122.03026815000003,59.0,88.0
589,121.97081703750003,122.39916992500002,50.0,83.0
590,121.60496403750003,122.50130388750001,43.0,88.0
591,122.33667003750003,122.62020611250001,55.0,90.0
592,122.33667003750003,122.63087682500002,59.0,92.0
593,122.33667003750003,122.65831580000003,62.0,88.0
594,122.70252303750001,122.82447403750002,50.0,83.0
595,123.06837603750002,123.47081433750002,57.0,81.0
596,123.06837603750002,123.47843627500002,60.0,84.0
597,123.43422903750002,123.86563070000003,52.0,84.0
598,123.80008203750002,124.19184962500002,57.0,85.0
599,123.80008203750002,124.21319105000002,60.0,90.0
600,123.80008203750002,124.24825196250002,64.0,90.0
601,123.06837603750002,124.32294695000002,45.0,88.0
602,124.16593503750002,124.35648347500002,52.0,85.0
603,124.34886153750003,124.44489795000003,57.0,79.0
604,124.34886153750003,124.45099550000002,62.0,79.0
605,124.53178803750002,124.91136052500002,57.0,83.0
606,124.53178803750002,124.94947021250002,62.0,88.0
607,125.08056753750002,125.21471363750003,57.0,80.0
608,124.89764103750002,125.33971341250002,52.0,89.0
609,124.53178803750002,125.54855450000002,45.0,89.0
610,125.44642053750002,125.56837153750003,52.0,92.0
611,125.26349403750002,125.57904225000001,60.0,94.0
612,125.62934703750003,125.84428567500002,57.0,89.0
613,125.81227353750002,125.91898066250002,60.0,77.0
614,125.99520003750003,126.43879680000002,60.0,88.0
615,126.36105303750003,126.77111327500002,48.0,84.0
616,126.72690603750002,127.02721037500002,53.0,89.0
617,125.99520003750003,127.08208832500002,41.0,88.0
618,126.90983253750002,127.10342975000002,57.0,89.0
619,127.09275903750002,127.33361226250003,60.0,93.0
620,127.27568553750002,127.43269745000002,53.0,88.0
621,127.82446503750002,128.10800111250003,55.0,89.0
622,128.0073915375,128.22995211250003,59.0,88.0
623,127.64153853750003,128.34732995000002,50.0,86.0
624,128.19031803750002,128.44489075,62.0,90.0
625,128.37324453750003,128.61562215000004,55.0,90.0
626,127.45861203750002,128.73299998750002,43.0,84.0
627,128.55617103750004,128.7665365125,50.0,89.0
628,128.92202403750002,129.1445846125,55.0,83.0
629,128.92202403750002,129.35037692500003,64.0,87.0
630,128.92202403750002,129.35952325000002,60.0,83.0
631,129.2878770375,129.4769010875,55.0,87.0
632,129.65373003750003,129.8412297,60.0,90.0
633,129.65373003750003,129.84732725000003,55.0,90.0
634,128.92202403750002,129.96622947500003,48.0,90.0
635,129.65373003750003,129.9738514125,64.0,94.0
636,130.0195830375,130.24519238750003,62.0,88.0
637,130.20250953750002,130.3762897125,64.0,84.0
638,130.38543603750003,130.61561855000002,55.0,89.0
639,130.38543603750003,130.94945941250003,60.0,93.0
640,130.93421553750002,131.10189816250002,55.0,78.0
641,131.11714203750003,131.22232477500003,55.0,84.0
642,130.38543603750003,131.46317800000003,48.0,90.0
643,131.11714203750003,131.51653156250003,62.0,91.0
644,131.48299503750002,131.74366530000003,60.0,86.0
645,131.84884803750003,132.25738388750003,62.0,84.0
646,132.58055403750004,132.612566175,62.0,77.0
647,132.58055403750004,132.81835848750003,57.0,84.0
648,132.21470103750002,132.990614275,45.0,74.0
649,132.58055403750004,133.00585815000002,65.0,87.0
650,131.84884803750003,133.10799211250003,38.0,92.0
651,132.94640703750002,133.24976015000001,62.0,83.0
652,133.3122600375,133.74671047500001,62.0,83.0
653,133.3122600375,133.75433241250002,57.0,82.0
654,133.67811303750003,134.1384780625,45.0,82.0
655,134.0439660375,134.16134387500003,57.0,85.0
656,133.3122600375,134.2116486625,38.0,88.0
657,134.0439660375,134.3656118,65.0,87.0
658,134.0439660375,134.37170935000003,62.0,90.0
659,134.40981903750003,134.50433106250003,57.0,84.0
660,134.77567203750002,135.42810988750003,55.0,82.0
661,134.77567203750002,135.51804875000002,52.0,80.0
662,135.14152503750003,135.60646322500003,47.0,77.0
663,134.77567203750002,135.6781094375,40.0,89.0
664,135.50737803750002,135.96469428750004,59.0,85.0
665,135.87323103750003,136.03634050000002,52.0,88.0
666,136.23908403750002,136.65524182500002,57.0,76.0
667,136.23908403750002,136.6964002875,60.0,80.0
668,136.60493703750004,137.09578981250002,52.0,84.0
669,136.97079003750002,137.16438725000003,60.0,89.0
670,136.97079003750002,137.19944816250003,57.0,88.0
671,137.15371653750003,137.29548457500002,52.0,88.0
672,136.23908403750002,137.32749671250002,45.0,89.0
673,137.3366430375,137.40981363750004,55.0,79.0
674,137.3366430375,137.58359381250003,59.0,95.0
675,137.70249603750003,137.94334926250002,57.0,81.0
676,137.70249603750003,138.16133667500003,62.0,83.0
677,138.0683490375,138.25432431250002,57.0,89.0
678,137.70249603750003,138.5896895625,50.0,81.0
679,138.43420203750003,138.67962842500003,57.0,89.0
680,138.43420203750003,138.82444523750002,62.0,91.0
681,138.43420203750003,138.89609145000003,65.0,88.0
682,138.80005503750002,138.94487185000003,50.0,91.0
683,138.98298153750002,139.07292040000002,57.0,88.0
684,139.16590803750003,139.56529756250004,55.0,89.0
685,139.16590803750003,139.60188286250002,59.0,89.0
686,139.53176103750002,140.07444298750002,50.0,81.0
687,139.89761403750003,140.08816247500002,55.0,90.0
688,139.16590803750003,140.09578441250002,43.0,89.0
689,139.89761403750003,140.10645512500002,59.0,90.0
690,139.89761403750003,140.13541848750003,62.0,88.0
691,140.26346703750002,140.40523507500004,43.0,89.0
692,140.62932003750004,141.05157537500003,60.0,88.0
693,140.62932003750004,141.06529486250002,57.0,84.0
694,141.3610260375,141.56376957500004,60.0,89.0
695,141.3610260375,141.56681835000003,57.0,83.0
696,141.3610260375,141.61559875000003,64.0,89.0
697,141.72687903750003,141.94639083750002,62.0,83.0
698,140.99517303750002,141.95096400000003,52.0,82.0
699,140.62932003750004,141.99517123750002,45.0,89.0
700,141.90980553750003,142.09730520000002,64.0,80.0
701,142.0927320375,142.51193860000004,57.0,78.0
702,142.0927320375,142.55462145,60.0,80.0
703,142.82443803750002,143.01803525000003,57.0,78.0
704,142.82443803750002,143.20401052500003,60.0,85.0
705,142.45858503750003,143.35187611250004,52.0,77.0
706,142.0927320375,143.36102243750003,45.0,88.0
707,143.19029103750003,143.36864437500003,57.0,77.0
708,143.55614403750002,144.25583790000002,57.0,73.0
709,143.55614403750002,144.34120360000003,60.0,77.0
710,143.92199703750003,144.56681295,52.0,78.0
711,143.55614403750002,144.62473967500003,45.0,88.0
712,144.28785003750002,144.70705660000002,64.0,86.0
713,144.65370303750004,144.83205637500004,57.0,85.0
714,145.01955603750002,145.56528676250002,59.0,79.0
715,145.01955603750002,145.78937172500002,55.0,78.0
716,145.3854090375,145.81985947500002,50.0,72.0
717,145.75126203750003,145.87626181250002,59.0,87.0
718,145.01955603750002,145.87931058750002,43.0,83.0
719,145.75126203750003,145.89912762500003,62.0,81.0
720,146.48296803750003,147.01955243750004,59.0,80.0
721,146.84882103750002,147.20552771250001,47.0,74.0
722,146.48296803750003,147.26955198750002,55.0,77.0
723,146.48296803750003,147.28479586250003,40.0,84.0
724,147.21467403750003,147.65979518750004,59.0,83.0
725,147.58052703750002,147.77107547500003,55.0,88.0
726,147.21467403750003,147.96009952500003,64.0,88.0
727,147.94638003750003,148.44637913750003,60.0,80.0
728,147.94638003750003,148.70857378750003,57.0,76.0
729,148.67808603750004,148.81070775000003,64.0,80.0
730,148.31223303750002,148.81528091250001,52.0,78.0
731,148.67808603750004,148.82137846250004,60.0,77.0
732,147.94638003750003,148.88387835000003,45.0,85.0
733,149.40979203750004,150.31070505000002,60.0,84.0
734,149.77564503750003,150.34881473750002,48.0,79.0
735,149.40979203750004,150.39759513750002,41.0,85.0
736,150.1414980375,150.57442408750003,53.0,83.0
737,150.50735103750003,150.80765537500002,57.0,88.0
738,150.87320403750002,151.43875180000003,55.0,83.0
739,150.87320403750002,151.46314200000003,59.0,81.0
740,151.23905703750003,151.71009277500002,50.0,76.0
741,151.60491003750002,151.716190325,55.0,83.0
742,151.60491003750002,151.716190325,59.0,85.0
743,150.87320403750002,151.79240970000004,43.0,84.0
744,152.33661603750002,152.76801770000003,55.0,82.0
745,152.33661603750002,153.13387070000002,64.0,88.0
746,152.70246903750004,153.17045600000003,47.0,76.0
747,152.33661603750002,153.22076078750004,40.0,88.0
748,153.43417503750004,153.60490643750003,55.0,78.0
749,153.06832203750002,153.63234541250003,59.0,84.0
750,153.80002803750003,154.27106377500002,57.0,78.0
751,153.80002803750003,154.27716132500004,60.0,83.0
752,154.53173403750003,154.67959962500004,57.0,82.0
753,154.53173403750003,154.84575786250002,64.0,89.0
754,154.16588103750001,154.90978213750003,52.0,81.0
755,153.80002803750003,154.94026988750002,45.0,84.0
756,154.89758703750002,155.29240340000004,57.0,83.0
757,155.26344003750003,156.00276797500004,65.0,86.0
758,155.62929303750002,156.05917031250002,57.0,83.0
759,155.99514603750004,156.26343823750003,62.0,82.0
760,155.26344003750003,156.27410895000003,50.0,86.0
761,156.72685203750004,157.12624156250004,55.0,80.0
762,156.72685203750004,157.32441193750003,59.0,83.0
763,157.09270503750002,157.69941126250004,50.0,76.0
764,156.72685203750004,157.752764825,43.0,83.0
765,157.45855803750004,157.85642317500003,62.0,84.0
766,157.82441103750003,158.22380056250003,55.0,89.0
767,158.19026403750001,158.74818986250003,59.0,75.0
768,158.55611703750003,159.10489653750003,47.0,75.0
769,158.19026403750001,159.16434765000002,40.0,88.0
770,158.92197003750002,159.37623751250004,59.0,85.0
771,158.19026403750001,159.62928583750002,64.0,85.0
772,159.65367603750002,160.17349217500004,57.0,73.0
773,159.65367603750002,160.18568727500002,60.0,81.0
774,160.38538203750002,160.56068660000003,57.0,77.0
775,160.01952903750004,160.6292840375,52.0,81.0
776,160.38538203750002,160.65977178750003,60.0,82.0
777,160.38538203750002,160.73294238750003,64.0,85.0
778,159.65367603750002,160.85641777500004,45.0,87.0
779,160.75123503750004,161.14300262500004,57.0,86.0
780,161.11708803750003,161.83355016250002,65.0,84.0
781,161.48294103750004,161.92501341250002,57.0,90.0
782,161.11708803750003,161.94483045000004,50.0,88.0
783,161.84879403750003,162.20854948750002,62.0,88.0
784,162.21464703750001,162.39300037500004,57.0,81.0
785,162.58050003750003,163.07135281250004,55.0,77.0
786,162.58050003750003,163.08354791250002,59.0,83.0
787,163.31220603750003,163.45397407500002,55.0,79.0
788,162.94635303750002,163.47988866250003,50.0,74.0
789,162.58050003750003,163.53781538750002,43.0,84.0
790,163.31220603750003,163.70854678750004,59.0,81.0
791,163.67805903750002,163.84116850000004,55.0,85.0
792,163.31220603750003,163.88232696250003,62.0,82.0
793,164.04391203750004,164.80458140000002,57.0,78.0
794,164.04391203750004,164.84421547500003,60.0,79.0
795,164.77561803750004,165.27866591250003,64.0,83.0
796,164.40976503750002,165.34573896250004,52.0,77.0
797,164.04391203750004,165.35031212500002,45.0,85.0
798,165.14147103750003,165.37622671250003,57.0,80.0
799,165.50732403750004,166.02104262500004,57.0,77.0
800,165.50732403750004,166.03628650000002,60.0,78.0
801,165.50732403750004,166.10031077500003,64.0,85.0
802,166.23903003750002,166.41890776250003,60.0,88.0
803,166.23903003750002,166.44939551250002,57.0,84.0
804,166.23903003750002,166.45854183750004,64.0,89.0
805,165.87317703750003,166.58963916250002,52.0,76.0
806,165.50732403750004,166.68262680000004,45.0,83.0
807,166.60488303750003,166.75884617500003,60.0,87.0
808,166.97073603750002,167.67042990000002,57.0,73.0
809,166.97073603750002,167.75579560000003,60.0,77.0
810,167.33658903750003,167.98140495000004,52.0,78.0
811,166.97073603750002,168.03933167500003,45.0,88.0
812,167.70244203750002,168.12164860000004,64.0,86.0
813,168.06829503750004,168.24664837500004,57.0,85.0
814,168.43414803750002,168.97987876250002,59.0,79.0
815,168.43414803750002,169.20396372500002,55.0,78.0
816,168.80000103750004,169.23445147500004,50.0,72.0
817,169.16585403750003,169.29085381250002,59.0,87.0
818,168.43414803750002,169.29390258750004,43.0,83.0
819,169.16585403750003,169.31371962500003,62.0,81.0
820,169.89756003750003,170.43414443750004,59.0,80.0
821,170.26341303750002,170.62011971250004,47.0,74.0
822,169.89756003750003,170.68414398750002,55.0,77.0
823,169.89756003750003,170.69938786250003,40.0,84.0
824,170.62926603750003,171.07438718750004,59.0,83.0
825,170.99511903750002,171.18566747500003,55.0,88.0
826,170.62926603750003,171.37469152500003,64.0,88.0
827,171.36097203750003,171.86097113750003,60.0,80.0
828,171.36097203750003,172.12316578750003,57.0,76.0
829,172.09267803750004,172.22529975000003,64.0,80.0
830,171.72682503750002,172.22987291250004,52.0,78.0
831,172.09267803750004,172.23597046250003,60.0,77.0
832,171.36097203750003,172.29847035000003,45.0,85.0
833,172.82438403750004,173.72529705000002,60.0,84.0
834,173.19023703750003,173.76340673750002,48.0,79.0
835,172.82438403750004,173.81218713750002,41.0,85.0
836,173.55609003750004,173.98901608750003,53.0,83.0
837,173.92194303750003,174.22224737500002,57.0,88.0
838,174.28779603750004,174.85334380000003,55.0,83.0
839,174.28779603750004,174.87773400000003,59.0,81.0
840,174.65364903750003,175.12468477500002,50.0,76.0
841,175.01950203750002,175.13078232500004,55.0,83.0
842,175.01950203750002,175.13078232500004,59.0,85.0
843,174.28779603750004,175.20700170000003,43.0,84.0
844,175.75120803750002,176.18260970000003,55.0,82.0
845,175.75120803750002,176.54846270000004,64.0,88.0
846,176.11706103750004,176.58504800000003,47.0,76.0
847,175.75120803750002,176.63535278750004,40.0,88.0
848,176.84876703750004,177.01949843750003,55.0,78.0
849,176.48291403750002,177.04693741250003,59.0,84.0
850,177.21462003750003,177.68565577500004,57.0,78.0
851,177.21462003750003,177.69175332500004,60.0,83.0
852,177.94632603750003,178.09419162500004,57.0,82.0
853,177.94632603750003,178.26034986250002,64.0,89.0
854,177.58047303750004,178.32437413750003,52.0,81.0
855,177.21462003750003,178.35486188750002,45.0,84.0
856,178.31217903750004,178.70699540000004,57.0,83.0
857,178.67803203750003,179.41735997500004,65.0,86.0
858,179.04388503750002,179.47376231250004,57.0,83.0
859,179.40973803750003,179.67803023750002,62.0,82.0
860,178.67803203750003,179.68870095000003,50.0,86.0
861,180.14144403750004,180.54083356250004,55.0,80.0
862,180.14144403750004,180.73900393750003,59.0,83.0
863,180.50729703750002,181.11400326250003,50.0,76.0
864,180.14144403750004,181.16735682500004,43.0,83.0
865,180.87315003750004,181.27101517500003,62.0,84.0
866,181.23900303750003,181.63839256250003,55.0,89.0
867,181.60485603750004,182.16278186250003,59.0,75.0
868,181.97070903750003,182.51948853750002,47.0,75.0
869,181.60485603750004,182.57893965000002,40.0,88.0
870,182.33656203750004,182.79082951250004,59.0,85.0
871,181.60485603750004,183.04387783750002,64.0,85.0
872,183.06826803750002,183.58808417500003,57.0,73.0
873,183.06826803750002,183.60027927500002,60.0,81.0
874,183.79997403750002,183.97527860000002,57.0,77.0
875,183.43412103750003,184.04387603750004,52.0,81.0
876,183.79997403750002,184.07436378750003,60.0,82.0
877,183.79997403750002,184.14753438750003,64.0,85.0
878,183.06826803750002,184.27100977500004,45.0,87.0
879,184.16582703750004,184.55759462500004,57.0,86.0
880,184.53168003750002,185.24814216250005,65.0,84.0
881,184.89753303750004,185.33960541250002,57.0,90.0
882,184.53168003750002,185.35942245000004,50.0,88.0
883,185.26338603750003,185.62314148750002,62.0,88.0
884,185.62923903750004,185.80759237500004,57.0,81.0
885,185.99509203750003,186.48594481250004,55.0,77.0
886,185.99509203750003,186.49813991250002,59.0,83.0
887,186.72679803750003,186.86856607500005,55.0,79.0
888,186.36094503750004,186.89448066250003,50.0,74.0
889,185.99509203750003,186.95240738750005,43.0,84.0
890,186.72679803750003,187.12313878750004,59.0,81.0
891,187.09265103750002,187.25576050000004,55.0,85.0
892,186.72679803750003,187.29691896250003,62.0,82.0
893,187.45850403750003,188.21917340000005,57.0,78.0
894,187.45850403750003,188.25880747500003,60.0,79.0
895,188.19021003750004,188.69325791250003,64.0,83.0
896,187.82435703750002,188.76033096250003,52.0,77.0
897,187.45850403750003,188.76490412500004,45.0,85.0
898,188.55606303750002,188.79081871250003,57.0,80.0
899,188.92191603750004,189.43563462500003,57.0,77.0
900,188.92191603750004,189.45087850000004,60.0,78.0
901,188.92191603750004,189.51490277500002,64.0,85.0
902,189.65362203750004,189.83349976250003,60.0,88.0
903,189.65362203750004,189.86398751250005,57.0,84.0
904,189.65362203750004,189.87313383750003,64.0,89.0
905,189.28776903750003,190.00423116250002,52.0,76.0
906,188.92191603750004,190.09721880000004,45.0,83.0
907,190.01947503750003,190.17343817500003,60.0,87.0
908,190.38532803750005,190.85636377500003,57.0,87.0
909,190.38532803750005,190.91581488750003,60.0,88.0
910,190.75118103750003,191.17496076250004,48.0,88.0
911,191.11703403750002,191.27099717500002,57.0,83.0
912,190.38532803750005,191.33502145000003,41.0,88.0
913,191.11703403750002,191.41276521250003,60.0,89.0
914,191.29996053750003,191.45392367500003,48.0,88.0
915,191.11703403750002,191.55605763750003,65.0,88.0
916,191.48288703750003,191.73441097500003,57.0,85.0
917,191.66581353750004,191.75575240000003,60.0,83.0
918,191.84874003750002,192.25422711250005,55.0,86.0
919,191.84874003750002,192.27404415000004,59.0,88.0
920,192.21459303750004,192.64294592500002,50.0,83.0
921,191.84874003750002,192.74507988750003,43.0,88.0
922,192.58044603750002,192.86398211250003,55.0,90.0
923,192.58044603750002,192.87465282500003,59.0,92.0
924,192.58044603750002,192.90209180000002,62.0,88.0
925,192.94629903750004,193.06825003750004,50.0,83.0
926,193.31215203750003,193.71459033750003,57.0,81.0
927,193.31215203750003,193.72221227500003,60.0,84.0
928,193.67800503750004,194.10940670000002,52.0,84.0
929,194.04385803750003,194.43562562500003,57.0,85.0
930,194.04385803750003,194.45696705000003,60.0,90.0
931,194.04385803750003,194.49202796250003,64.0,90.0
932,193.31215203750003,194.56672295000004,45.0,88.0
933,194.40971103750005,194.60025947500003,52.0,85.0
934,194.59263753750002,194.68867395000004,57.0,79.0
935,194.59263753750002,194.69477150000003,62.0,79.0
936,194.77556403750003,195.15513652500005,57.0,83.0
937,194.77556403750003,195.19324621250004,62.0,88.0
938,195.32434353750003,195.45848963750004,57.0,80.0
939,195.14141703750005,195.58348941250003,52.0,89.0
940,194.77556403750003,195.79233050000002,45.0,89.0
941,195.69019653750004,195.81214753750004,52.0,92.0
942,195.50727003750004,195.82281825000004,60.0,94.0
943,195.87312303750002,196.08806167500003,57.0,89.0
944,196.05604953750003,196.16275666250004,60.0,77.0
945,196.23897603750004,196.68257280000003,60.0,88.0
946,196.60482903750002,197.01488927500003,48.0,84.0
947,196.97068203750004,197.27098637500004,53.0,89.0
948,196.23897603750004,197.32586432500003,41.0,88.0
949,197.15360853750005,197.34720575000003,57.0,89.0
950,197.33653503750003,197.57738826250002,60.0,93.0
951,197.51946153750004,197.67647345000003,53.0,88.0
952,198.06824103750003,198.35177711250003,55.0,89.0
953,198.25116753750004,198.47372811250003,59.0,88.0
954,197.88531453750002,198.59110595000004,50.0,86.0
955,198.43409403750005,198.68866675000004,62.0,90.0
956,198.61702053750003,198.85939815000003,55.0,90.0
957,197.70238803750004,198.97677598750005,43.0,84.0
958,198.79994703750003,199.01031251250004,50.0,89.0
959,199.16580003750005,199.38836061250004,55.0,83.0
960,199.16580003750005,199.59415292500003,64.0,87.0
961,199.16580003750005,199.60329925000002,60.0,83.0
962,199.53165303750004,199.72067708750004,55.0,87.0
963,199.89750603750002,200.08500570000004,60.0,90.0
964,199.89750603750002,200.09110325000003,55.0,90.0
965,199.16580003750005,200.21000547500003,48.0,90.0
966,199.89750603750002,200.21762741250004,64.0,94.0
967,200.26335903750004,200.48896838750002,62.0,88.0
968,200.44628553750005,200.62006571250004,64.0,84.0
969,200.62921203750003,200.85939455000005,55.0,89.0
970,200.62921203750003,201.19323541250003,60.0,93.0
971,201.17799153750005,201.34567416250005,55.0,78.0
972,201.36091803750003,201.46610077500003,55.0,84.0
973,200.62921203750003,201.70695400000002,48.0,90.0
974,201.36091803750003,201.76030756250003,62.0,91.0
975,201.72677103750004,201.98744130000003,60.0,86.0
976,202.09262403750003,202.50115988750002,62.0,84.0
977,202.82433003750003,202.85634217500004,62.0,77.0
978,202.82433003750003,203.06213448750003,57.0,84.0
979,202.45847703750005,203.23439027500004,45.0,74.0
980,202.82433003750003,203.24963415000005,65.0,87.0
981,202.09262403750003,203.35176811250003,38.0,92.0
982,203.19018303750005,203.49353615000004,62.0,83.0
983,203.55603603750004,203.99048647500004,62.0,83.0
984,203.55603603750004,203.99810841250005,57.0,82.0
985,203.92188903750002,204.38225406250004,45.0,82.0
986,204.28774203750004,204.40511987500003,57.0,85.0
987,203.55603603750004,204.45542466250004,38.0,88.0
988,204.28774203750004,204.60938780000004,65.0,87.0
989,204.28774203750004,204.61548535000003,62.0,90.0
990,204.65359503750003,204.74810706250003,57.0,84.0
991,205.01944803750004,205.67188588750003,55.0,82.0
992,205.01944803750004,205.76182475000005,52.0,80.0
993,205.38530103750003,205.85023922500002,47.0,77.0
994,205.01944803750004,205.92188543750004,40.0,89.0
995,205.75115403750004,206.20847028750003,59.0,85.0
996,206.11700703750003,206.28011650000005,52.0,88.0
997,206.48286003750005,206.89901782500004,57.0,76.0
998,206.48286003750005,206.94017628750004,60.0,80.0
999,206.84871303750003,207.33956581250004,52.0,84.0
1000,207.21456603750005,207.40816325000003,60.0,89.0
1001,207.21456603750005,207.44322416250003,57.0,88.0
1002,207.39749253750003,207.53926057500004,52.0,88.0
1003,206.48286003750005,207.57127271250005,45.0,89.0
1004,207.58041903750004,207.65358963750003,55.0,79.0
1005,207.58041903750004,207.82736981250002,59.0,95.0
1006,207.94627203750002,208.18712526250005,57.0,81.0
1007,207.94627203750002,208.40511267500003,62.0,83.0
1008,208.31212503750004,208.49810031250004,57.0,89.0
1009,207.94627203750002,208.83346556250004,50.0,81.0
1010,208.67797803750003,208.92340442500003,57.0,89.0
1011,208.67797803750003,209.06822123750004,62.0,91.0
1012,208.67797803750003,209.13986745000003,65.0,88.0
1013,209.04383103750004,209.18864785000002,50.0,91.0
1014,209.22675753750005,209.31669640000004,57.0,88.0
1015,209.40968403750003,209.80907356250003,55.0,89.0
1016,209.40968403750003,209.84565886250004,59.0,89.0
1017,209.77553703750004,210.31821898750005,50.0,81.0
1018,210.14139003750003,210.33193847500004,55.0,90.0
1019,209.40968403750003,210.33956041250005,43.0,89.0
1020,210.14139003750003,210.35023112500005,59.0,90.0
1021,210.14139003750003,210.37919448750003,62.0,88.0
1022,210.50724303750005,210.64901107500003,43.0,89.0
1023,210.87309603750003,211.20541251250003,52.0,86.0
1024,210.87309603750003,211.36090003750004,59.0,86.0
1025,211.78772853750004,212.04535002500003,56.0,89.0
1026,211.60480203750004,212.09565481250004,52.0,89.0
1027,210.87309603750003,212.15358153750003,40.0,93.0
1028,211.97065503750002,212.21150826250005,59.0,93.0
1029,212.15358153750003,212.55449545000005,64.0,93.0
1030,212.33650803750004,212.83955591250003,68.0,90.0
1031,212.88528753750003,213.01638486250005,64.0,88.0
1032,212.70236103750003,213.13833586250004,59.0,102.0
1033,213.06821403750004,213.29992093750005,64.0,89.0
1034,212.33650803750004,213.31668920000004,52.0,95.0
1035,213.25114053750005,213.46607917500003,59.0,90.0
1036,213.06821403750004,213.47827427500005,68.0,93.0
1037,213.06821403750004,213.53924977500003,76.0,92.0
1038,213.06821403750004,213.58345701250005,71.0,93.0
1039,213.43406703750003,213.67949342500003,64.0,93.0
1040,213.61699353750004,213.75418841250004,68.0,85.0
1041,213.79992003750004,214.27095577500003,57.0,87.0
1042,213.79992003750004,214.33040688750003,60.0,88.0
1043,214.16577303750003,214.58955276250003,48.0,88.0
1044,214.53162603750005,214.68558917500005,57.0,83.0
1045,213.79992003750004,214.74961345000003,41.0,88.0
1046,214.53162603750005,214.82735721250003,60.0,89.0
1047,214.71455253750003,214.86851567500003,48.0,88.0
1048,214.53162603750005,214.97064963750003,65.0,88.0
1049,214.89747903750003,215.14900297500003,57.0,85.0
1050,215.08040553750004,215.17034440000003,60.0,83.0
1051,215.26333203750005,215.66881911250005,55.0,86.0
1052,215.26333203750005,215.68863615000004,59.0,88.0
1053,215.62918503750004,216.05753792500005,50.0,83.0
1054,215.26333203750005,216.15967188750002,43.0,88.0
1055,215.99503803750002,216.27857411250002,55.0,90.0
1056,215.99503803750002,216.28924482500003,59.0,92.0
1057,215.99503803750002,216.31668380000005,62.0,88.0
1058,216.36089103750004,216.48284203750003,50.0,83.0
1059,216.72674403750003,217.12918233750003,57.0,81.0
1060,216.72674403750003,217.13680427500003,60.0,84.0
1061,217.09259703750004,217.52399870000005,52.0,84.0
1062,217.45845003750003,217.85021762500003,57.0,85.0
1063,217.45845003750003,217.87155905000003,60.0,90.0
1064,217.45845003750003,217.90661996250003,64.0,90.0
1065,216.72674403750003,217.98131495000004,45.0,88.0
1066,217.82430303750004,218.01485147500003,52.0,85.0
1067,218.00722953750002,218.10326595000004,57.0,79.0
1068,218.00722953750002,218.10936350000003,62.0,79.0
1069,218.19015603750003,218.56972852500004,57.0,83.0
1070,218.19015603750003,218.60783821250004,62.0,88.0
1071,218.73893553750003,218.87308163750004,57.0,80.0
1072,218.55600903750005,218.99808141250003,52.0,89.0
1073,218.19015603750003,219.20692250000005,45.0,89.0
1074,219.10478853750004,219.22673953750004,52.0,92.0
1075,218.92186203750003,219.23741025000004,60.0,94.0
1076,219.28771503750005,219.50265367500003,57.0,89.0
1077,219.47064153750003,219.57734866250004,60.0,77.0
1078,219.65356803750004,220.09716480000003,60.0,88.0
1079,220.01942103750005,220.42948127500003,48.0,84.0
1080,220.38527403750004,220.68557837500003,53.0,89.0
1081,219.65356803750004,220.74045632500003,41.0,88.0
1082,220.56820053750005,220.76179775000003,57.0,89.0
1083,220.75112703750003,220.99198026250005,60.0,93.0
1084,220.93405353750003,221.09106545000003,53.0,88.0
1085,221.48283303750003,221.76636911250003,55.0,89.0
1086,221.66575953750004,221.88832011250003,59.0,88.0
1087,221.29990653750005,222.00569795000004,50.0,86.0
1088,221.84868603750004,222.10325875000004,62.0,90.0
1089,222.03161253750005,222.27399015000003,55.0,90.0
1090,221.11698003750004,222.39136798750005,43.0,84.0
1091,222.21453903750003,222.42490451250004,50.0,89.0
1092,222.58039203750005,222.80295261250004,55.0,83.0
1093,222.58039203750005,223.00874492500003,64.0,87.0
1094,222.58039203750005,223.01789125000005,60.0,83.0
1095,222.94624503750003,223.13526908750003,55.0,87.0
1096,223.31209803750005,223.49959770000004,60.0,90.0
1097,223.31209803750005,223.50569525000003,55.0,90.0
1098,222.58039203750005,223.62459747500003,48.0,90.0
1099,223.31209803750005,223.63221941250004,64.0,94.0
1100,223.67795103750004,223.90356038750005,62.0,88.0
1101,223.86087753750004,224.03465771250004,64.0,84.0
1102,224.04380403750005,224.27398655000005,55.0,89.0
1103,224.04380403750005,224.60782741250003,60.0,93.0
1104,224.59258353750005,224.76026616250005,55.0,78.0
1105,224.77551003750003,224.88069277500003,55.0,84.0
1106,224.04380403750005,225.12154600000005,48.0,90.0
1107,224.77551003750003,225.17489956250003,62.0,91.0
1108,225.14136303750004,225.40203330000003,60.0,86.0
1109,225.50721603750003,225.91575188750005,62.0,84.0
1110,226.23892203750003,226.27093417500004,62.0,77.0
1111,226.23892203750003,226.47672648750003,57.0,84.0
1112,225.87306903750004,226.64898227500004,45.0,74.0
1113,226.23892203750003,226.66422615000005,65.0,87.0
1114,225.50721603750003,226.76636011250005,38.0,92.0
1115,226.60477503750005,226.90812815000004,62.0,83.0
1116,226.97062803750003,227.40507847500004,62.0,83.0
1117,226.97062803750003,227.41270041250004,57.0,82.0
1118,227.33648103750005,227.79684606250004,45.0,82.0
1119,227.70233403750004,227.81971187500005,57.0,85.0
1120,226.97062803750003,227.87001666250003,38.0,88.0
1121,227.70233403750004,228.02397980000003,65.0,87.0
1122,227.70233403750004,228.03007735000003,62.0,90.0
1123,228.06818703750005,228.16269906250005,57.0,84.0
1124,228.43404003750004,229.08647788750005,55.0,82.0
1125,228.43404003750004,229.17641675000004,52.0,80.0
1126,228.79989303750003,229.26483122500005,47.0,77.0
1127,228.43404003750004,229.33647743750004,40.0,89.0
1128,229.16574603750004,229.62306228750003,59.0,85.0
1129,229.53159903750003,229.69470850000005,52.0,88.0
1130,229.89745203750005,230.31360982500004,57.0,76.0
1131,229.89745203750005,230.35476828750004,60.0,80.0
1132,230.26330503750003,230.75415781250004,52.0,84.0
1133,230.62915803750005,230.82275525000003,60.0,89.0
1134,230.62915803750005,230.85781616250003,57.0,88.0
1135,230.81208453750003,230.95385257500004,52.0,88.0
1136,229.89745203750005,230.98586471250005,45.0,89.0
1137,230.99501103750003,231.06818163750003,55.0,79.0
1138,230.99501103750003,231.24196181250005,59.0,95.0
1139,231.36086403750005,231.60171726250005,57.0,81.0
1140,231.36086403750005,231.81970467500005,62.0,83.0
1141,231.72671703750004,231.91269231250004,57.0,89.0
1142,231.36086403750005,232.24805756250004,50.0,81.0
1143,232.09257003750005,232.33799642500003,57.0,89.0
1144,232.09257003750005,232.48281323750004,62.0,91.0
1145,232.09257003750005,232.55445945000005,65.0,88.0
1146,232.45842303750004,232.60323985000005,50.0,91.0
1147,232.64134953750005,232.73128840000004,57.0,88.0
1148,232.82427603750003,233.22366556250003,55.0,89.0
1149,232.82427603750003,233.26025086250004,59.0,89.0
1150,233.19012903750004,233.73281098750005,50.0,81.0
1151,233.55598203750003,233.74653047500004,55.0,90.0
1152,232.82427603750003,233.75415241250005,43.0,89.0
1153,233.55598203750003,233.76482312500005,59.0,90.0
1154,233.55598203750003,233.79378648750003,62.0,88.0
1155,233.92183503750005,234.06360307500003,43.0,89.0
1156,234.28768803750003,234.70994337500005,60.0,88.0
1157,234.28768803750003,234.72366286250005,57.0,84.0
1158,235.01939403750004,235.22213757500003,60.0,89.0
1159,235.01939403750004,235.22518635000003,57.0,83.0
1160,235.01939403750004,235.27396675000003,64.0,89.0
1161,235.38524703750005,235.60475883750004,62.0,83.0
1162,234.65354103750005,235.60933200000005,52.0,82.0
1163,234.28768803750003,235.65353923750004,45.0,89.0
1164,235.56817353750003,235.75567320000005,64.0,80.0
1165,235.75110003750004,236.17030660000003,57.0,78.0
1166,235.75110003750004,236.21298945000004,60.0,80.0
1167,236.48280603750004,236.67640325000005,57.0,78.0
1168,236.48280603750004,236.86237852500005,60.0,85.0
1169,236.11695303750005,237.01024411250003,52.0,77.0
1170,235.75110003750004,237.01939043750005,45.0,88.0
1171,236.84865903750003,237.02701237500006,57.0,77.0
1172,237.21451203750004,237.68554777500003,57.0,87.0
1173,237.21451203750004,237.74499888750003,60.0,88.0
1174,237.58036503750003,238.00414476250003,48.0,88.0
1175,237.94621803750005,238.10018117500005,57.0,83.0
1176,237.21451203750004,238.16420545000005,41.0,88.0
1177,237.94621803750005,238.24194921250003,60.0,89.0
1178,238.12914453750005,238.28310767500005,48.0,88.0
1179,237.94621803750005,238.38524163750003,65.0,88.0
1180,238.31207103750003,238.56359497500003,57.0,85.0
1181,238.49499753750004,238.58493640000003,60.0,83.0
1182,238.67792403750005,239.08341111250004,55.0,86.0
1183,238.67792403750005,239.10322815000004,59.0,88.0
1184,239.04377703750004,239.47212992500005,50.0,83.0
1185,238.67792403750005,239.57426388750005,43.0,88.0
1186,239.40963003750005,239.69316611250005,55.0,90.0
1187,239.40963003750005,239.70383682500005,59.0,92.0
1188,239.40963003750005,239.73127580000005,62.0,88.0
1189,239.77548303750004,239.89743403750003,50.0,83.0
1190,240.14133603750005,240.54377433750005,57.0,81.0
1191,240.14133603750005,240.55139627500003,60.0,84.0
1192,240.50718903750004,240.93859070000005,52.0,84.0
1193,240.87304203750003,241.26480962500005,57.0,85.0
1194,240.87304203750003,241.28615105000003,60.0,90.0
1195,240.87304203750003,241.32121196250003,64.0,90.0
1196,240.14133603750005,241.39590695000004,45.0,88.0
1197,241.23889503750004,241.42944347500003,52.0,85.0
1198,241.42182153750005,241.51785795000004,57.0,79.0
1199,241.42182153750005,241.52395550000003,62.0,79.0
1200,241.60474803750003,241.98432052500004,57.0,83.0
1201,241.60474803750003,242.02243021250004,62.0,88.0
1202,242.15352753750005,242.28767363750003,57.0,80.0
1203,241.97060103750005,242.41267341250006,52.0,89.0
1204,241.60474803750003,242.62151450000005,45.0,89.0
1205,242.51938053750004,242.64133153750004,52.0,92.0
1206,242.33645403750003,242.65200225000004,60.0,94.0
1207,242.70230703750005,242.91724567500003,57.0,89.0
1208,242.88523353750006,242.99194066250004,60.0,77.0
1209,243.06816003750004,243.51175680000003,60.0,88.0
1210,243.43401303750005,243.84407327500006,48.0,84.0
1211,243.79986603750004,244.10017037500003,53.0,89.0
1212,243.06816003750004,244.15504832500005,41.0,88.0
1213,243.98279253750005,244.17638975000006,57.0,89.0
1214,244.16571903750005,244.40657226250005,60.0,93.0
1215,244.34864553750003,244.50565745000003,53.0,88.0
1216,244.89742503750006,245.18096111250003,55.0,89.0
1217,245.08035153750004,245.30291211250005,59.0,88.0
1218,244.71449853750005,245.42028995000004,50.0,86.0
1219,245.26327803750004,245.51785075000004,62.0,90.0
1220,245.44620453750005,245.68858215000003,55.0,90.0
1221,244.53157203750004,245.80595998750005,43.0,84.0
1222,245.62913103750003,245.83949651250003,50.0,89.0
1223,245.99498403750005,246.21754461250003,55.0,83.0
1224,245.99498403750005,246.42333692500003,64.0,87.0
1225,245.99498403750005,246.43248325000005,60.0,83.0
1226,246.36083703750003,246.54986108750003,55.0,87.0
1227,246.72669003750005,246.91418970000004,60.0,90.0
1228,246.72669003750005,246.92028725000003,55.0,90.0
1229,245.99498403750005,247.03918947500003,48.0,90.0
1230,246.72669003750005,247.04681141250003,64.0,94.0
1231,247.09254303750004,247.31815238750005,62.0,88.0
1232,247.27546953750004,247.44924971250003,64.0,84.0
1233,247.45839603750005,247.68857855000005,55.0,89.0
1234,247.45839603750005,248.02241941250006,60.0,93.0
1235,248.00717553750005,248.17485816250004,55.0,78.0
1236,248.19010203750005,248.29528477500006,55.0,84.0
1237,247.45839603750005,248.53613800000005,48.0,90.0
1238,248.19010203750005,248.58949156250003,62.0,91.0
1239,248.55595503750004,248.81662530000006,60.0,86.0
1240,248.92180803750006,249.33034388750005,62.0,84.0
1241,249.65351403750003,249.68552617500004,62.0,77.0
1242,249.65351403750003,249.89131848750003,57.0,84.0
1243,249.28766103750004,250.06357427500004,45.0,74.0
1244,249.65351403750003,250.07881815000005,65.0,87.0
1245,248.92180803750006,250.18095211250005,38.0,92.0
1246,250.01936703750005,250.32272015000004,62.0,83.0
1247,250.38522003750003,250.81967047500004,62.0,83.0
1248,250.38522003750003,250.82729241250004,57.0,82.0
1249,250.75107303750005,251.21143806250004,45.0,82.0
1250,251.11692603750004,251.23430387500005,57.0,85.0
1251,250.38522003750003,251.28460866250003,38.0,88.0
1252,251.11692603750004,251.43857180000003,65.0,87.0
1253,251.11692603750004,251.44466935000005,62.0,90.0
1254,251.48277903750005,251.57729106250005,57.0,84.0
1255,251.84863203750004,252.50106988750005,55.0,82.0
1256,251.84863203750004,252.59100875000004,52.0,80.0
1257,252.21448503750005,252.67942322500005,47.0,77.0
1258,251.84863203750004,252.75106943750004,40.0,89.0
1259,252.58033803750004,253.03765428750003,59.0,85.0
1260,252.94619103750006,253.10930050000005,52.0,88.0
1261,253.31204403750004,253.72820182500004,57.0,76.0
1262,253.31204403750004,253.76936028750004,60.0,80.0
1263,253.67789703750003,254.16874981250004,52.0,84.0
1264,254.04375003750005,254.23734725000006,60.0,89.0
1265,254.04375003750005,254.27240816250006,57.0,88.0
1266,254.22667653750005,254.36844457500004,52.0,88.0
1267,253.31204403750004,254.40045671250004,45.0,89.0
1268,254.40960303750003,254.48277363750003,55.0,79.0
1269,254.40960303750003,254.65655381250005,59.0,95.0
1270,254.77545603750005,255.01630926250004,57.0,81.0
1271,254.77545603750005,255.23429667500005,62.0,83.0
1272,255.14130903750004,255.32728431250004,57.0,89.0
1273,254.77545603750005,255.66264956250004,50.0,81.0
1274,255.50716203750005,255.75258842500006,57.0,89.0
1275,255.50716203750005,255.89740523750004,62.0,91.0
1276,255.50716203750005,255.96905145000005,65.0,88.0
1277,255.87301503750004,256.01783185000005,50.0,91.0
1278,256.0559415375,256.14588040000007,57.0,88.0
1279,256.2388680375,256.63825756250003,55.0,89.0
1280,256.2388680375,256.67484286250004,59.0,89.0
1281,256.60472103750004,257.1474029875001,50.0,81.0
1282,256.97057403750006,257.16112247500007,55.0,90.0
1283,256.2388680375,257.1687444125,43.0,89.0
1284,256.97057403750006,257.17941512500005,59.0,90.0
1285,256.97057403750006,257.20837848750006,62.0,88.0
1286,257.3364270375001,257.47819507500003,43.0,89.0
1287,257.70228003750003,258.03459651250006,52.0,86.0
1288,257.70228003750003,258.19008403750007,59.0,86.0
1289,258.61691253750007,258.87453402500006,56.0,89.0
1290,258.43398603750006,258.92483881250007,52.0,89.0
1291,257.70228003750003,258.98276553750003,40.0,93.0
1292,258.7998390375,259.04069226250004,59.0,93.0
1293,258.98276553750003,259.38367945000005,64.0,93.0
1294,259.16569203750004,259.66873991250003,68.0,90.0
1295,259.71447153750006,259.84556886250004,64.0,88.0
1296,259.53154503750005,259.96751986250007,59.0,102.0
1297,259.89739803750007,260.1291049375,64.0,89.0
1298,259.16569203750004,260.14587320000004,52.0,95.0
1299,260.0803245375,260.29526317500006,59.0,90.0
1300,259.89739803750007,260.30745827500004,68.0,93.0
1301,259.89739803750007,260.368433775,76.0,92.0
1302,259.89739803750007,260.41264101250005,71.0,93.0
1303,260.2632510375,260.50867742500003,64.0,93.0
1304,260.44617753750003,260.58337241250007,68.0,85.0
1305,260.62910403750004,261.10013977500006,57.0,87.0
1306,260.62910403750004,261.15959088750003,60.0,88.0
1307,260.99495703750006,261.41873676250003,48.0,88.0
1308,261.3608100375001,261.5147731750001,57.0,83.0
1309,260.62910403750004,261.57879745,41.0,88.0
1310,261.3608100375001,261.65654121250003,60.0,89.0
1311,261.5437365375,261.697699675,48.0,88.0
1312,261.3608100375001,261.79983363750006,65.0,88.0
1313,261.72666303750003,261.978186975,57.0,85.0
1314,261.90958953750004,261.99952840000003,60.0,83.0
1315,262.09251603750005,262.49800311250004,55.0,86.0
1316,262.09251603750005,262.51782015000003,59.0,88.0
1317,262.45836903750006,262.886721925,50.0,83.0
1318,262.09251603750005,262.98885588750005,43.0,88.0
1319,262.8242220375,263.10775811250005,55.0,90.0
1320,262.8242220375,263.118428825,59.0,92.0
1321,262.8242220375,263.1458678,62.0,88.0
1322,263.19007503750004,263.31202603750006,50.0,83.0
1323,263.55592803750005,263.9583663375,57.0,81.0
1324,263.55592803750005,263.96598827500003,60.0,84.0
1325,263.92178103750007,264.35318270000005,52.0,84.0
1326,264.2876340375,264.679401625,57.0,85.0
1327,264.2876340375,264.70074305,60.0,90.0
1328,264.2876340375,264.73580396250003,64.0,90.0
1329,263.55592803750005,264.81049895000007,45.0,88.0
1330,264.65348703750004,264.84403547500006,52.0,85.0
1331,264.83641353750005,264.93244995000003,57.0,79.0
1332,264.83641353750005,264.9385475,62.0,79.0
1333,265.01934003750006,265.39891252500007,57.0,83.0
1334,265.01934003750006,265.43702221250004,62.0,88.0
1335,265.5681195375,265.70226563750003,57.0,80.0
1336,265.3851930375001,265.8272654125,52.0,89.0
1337,265.01934003750006,266.0361065000001,45.0,89.0
1338,265.93397253750004,266.05592353750006,52.0,92.0
1339,265.75104603750003,266.06659425000004,60.0,94.0
1340,266.11689903750005,266.33183767500003,57.0,89.0
1341,266.29982553750006,266.40653266250007,60.0,77.0
1342,266.48275203750006,266.9263488,60.0,88.0
1343,266.8486050375,267.25866527500006,48.0,84.0
1344,267.21445803750004,267.51476237500003,53.0,89.0
1345,266.48275203750006,267.569640325,41.0,88.0
1346,267.39738453750005,267.59098175,57.0,89.0
1347,267.58031103750005,267.8211642625,60.0,93.0
1348,267.76323753750006,267.92024945000003,53.0,88.0
1349,268.3120170375,268.59555311250006,55.0,89.0
1350,268.49494353750003,268.7175041125,59.0,88.0
1351,268.1290905375,268.83488195000007,50.0,86.0
1352,268.67787003750004,268.93244275000006,62.0,90.0
1353,268.86079653750005,269.10317415000003,55.0,90.0
1354,267.94616403750007,269.2205519875001,43.0,84.0
1355,269.04372303750006,269.25408851250006,50.0,89.0
1356,269.4095760375001,269.63213661250006,55.0,83.0
1357,269.4095760375001,269.837928925,64.0,87.0
1358,269.4095760375001,269.84707525000005,60.0,83.0
1359,269.77542903750003,269.96445308750003,55.0,87.0
1360,270.14128203750005,270.32878170000004,60.0,90.0
1361,270.14128203750005,270.33487925000003,55.0,90.0
1362,269.4095760375001,270.453781475,48.0,90.0
1363,270.14128203750005,270.46140341250003,64.0,94.0
1364,270.50713503750006,270.7327443875,62.0,88.0
1365,270.69006153750007,270.86384171250006,64.0,84.0
1366,270.8729880375,271.1031705500001,55.0,89.0
1367,270.8729880375,271.43701141250006,60.0,93.0
1368,271.42176753750005,271.58945016250004,55.0,78.0
1369,271.60469403750005,271.70987677500005,55.0,84.0
1370,270.8729880375,271.95073,48.0,90.0
1371,271.60469403750005,272.00408356250006,62.0,91.0
1372,271.97054703750007,272.2312173,60.0,86.0
1373,272.3364000375,272.74493588750005,62.0,84.0
1374,273.06810603750006,273.10011817500003,62.0,77.0
1375,273.06810603750006,273.30591048750006,57.0,84.0
1376,272.70225303750004,273.47816627500004,45.0,74.0
1377,273.06810603750006,273.49341015000005,65.0,87.0
1378,272.3364000375,273.5955441125,38.0,92.0
1379,273.4339590375001,273.73731215000004,62.0,83.0
1380,273.79981203750003,274.23426247500004,62.0,83.0
1381,273.79981203750003,274.24188441250004,57.0,82.0
1382,274.16566503750005,274.62603006250004,45.0,82.0
1383,274.53151803750006,274.64889587500005,57.0,85.0
1384,273.79981203750003,274.69920066250006,38.0,88.0
1385,274.53151803750006,274.85316380000006,65.0,87.0
1386,274.53151803750006,274.85926135000005,62.0,90.0
1387,274.8973710375,274.99188306250005,57.0,84.0
1388,275.26322403750004,275.91566188750005,55.0,82.0
1389,275.26322403750004,276.00560075000004,52.0,80.0
1390,275.62907703750005,276.094015225,47.0,77.0
1391,275.26322403750004,276.16566143750003,40.0,89.0
1392,275.99493003750007,276.45224628750003,59.0,85.0
1393,276.3607830375,276.52389250000004,52.0,88.0
1394,276.72663603750004,277.14279382500007,57.0,76.0
1395,276.72663603750004,277.18395228750006,60.0,80.0
1396,277.09248903750006,277.58334181250007,52.0,84.0
1397,277.4583420375001,277.65193925000005,60.0,89.0
1398,277.4583420375001,277.68700016250006,57.0,88.0
1399,277.6412685375,277.78303657500004,52.0,88.0
1400,276.72663603750004,277.8150487125001,45.0,89.0
1401,277.82419503750003,277.89736563750006,55.0,79.0
1402,277.82419503750003,278.07114581250005,59.0,95.0
1403,278.19004803750005,278.4309012625001,57.0,81.0
1404,278.19004803750005,278.648888675,62.0,83.0
1405,278.55590103750006,278.74187631250004,57.0,89.0
1406,278.19004803750005,279.07724156250003,50.0,81.0
1407,278.9217540375,279.167180425,57.0,89.0
1408,278.9217540375,279.31199723750007,62.0,91.0
1409,278.9217540375,279.38364345,65.0,88.0
1410,279.28760703750004,279.43242385,50.0,91.0
1411,279.47053353750005,279.56047240000004,57.0,88.0
1412,279.65346003750005,280.05284956250006,55.0,89.0
1413,279.65346003750005,280.08943486250007,59.0,89.0
1414,280.01931303750007,280.56199498750004,50.0,81.0
1415,280.3851660375,280.57571447500004,55.0,90.0
1416,279.65346003750005,280.58333641250005,43.0,89.0
1417,280.3851660375,280.5940071250001,59.0,90.0
1418,280.3851660375,280.6229704875,62.0,88.0
1419,280.75101903750004,280.89278707500006,43.0,89.0
1420,281.11687203750006,281.539127375,60.0,88.0
1421,281.11687203750006,281.5528468625001,57.0,84.0
1422,281.84857803750003,282.05132157500003,60.0,89.0
1423,281.84857803750003,282.05437035000006,57.0,83.0
1424,281.84857803750003,282.10315075000005,64.0,89.0
1425,282.21443103750005,282.43394283750007,62.0,83.0
1426,281.4827250375001,282.43851600000005,52.0,82.0
1427,281.11687203750006,282.48272323750007,45.0,89.0
1428,282.39735753750006,282.58485720000004,64.0,80.0
1429,282.58028403750006,282.99949060000006,57.0,78.0
1430,282.58028403750006,283.04217345000006,60.0,80.0
1431,283.31199003750004,283.5055872500001,57.0,78.0
1432,283.31199003750004,283.69156252500005,60.0,85.0
1433,282.9461370375,283.83942811250006,52.0,77.0
1434,282.58028403750006,283.8485744375001,45.0,88.0
1435,283.67784303750005,283.856196375,57.0,77.0
1436,284.04369603750007,284.45223188750003,62.0,84.0
1437,284.77540203750004,284.8074141750001,62.0,77.0
1438,284.77540203750004,285.01320648750004,57.0,84.0
1439,284.4095490375,285.1854622750001,45.0,74.0
1440,284.77540203750004,285.20070615000003,65.0,87.0
1441,284.04369603750007,285.30284011250006,38.0,92.0
1442,285.14125503750006,285.44460815,62.0,83.0
1443,285.5071080375001,285.941558475,62.0,83.0
1444,285.5071080375001,285.9491804125,57.0,82.0
1445,285.87296103750003,286.3333260625001,45.0,82.0
1446,286.23881403750005,286.35619187500004,57.0,85.0
1447,285.5071080375001,286.40649666250005,38.0,88.0
1448,286.23881403750005,286.56045980000005,65.0,87.0
1449,286.23881403750005,286.56655735000004,62.0,90.0
1450,286.60466703750006,286.69917906250004,57.0,84.0
1451,286.9705200375,287.62295788750004,55.0,82.0
1452,286.9705200375,287.71289675,52.0,80.0
1453,287.33637303750004,287.80131122500006,47.0,77.0
1454,286.9705200375,287.8729574375001,40.0,89.0
1455,287.70222603750005,288.1595422875001,59.0,85.0
1456,288.06807903750007,288.23118850000003,52.0,88.0
1457,288.4339320375,288.85008982500005,57.0,76.0
1458,288.4339320375,288.89124828750005,60.0,80.0
1459,288.79978503750004,289.29063781250005,52.0,84.0
1460,289.16563803750006,289.35923525000004,60.0,89.0
1461,289.16563803750006,289.39429616250004,57.0,88.0
1462,289.34856453750007,289.490332575,52.0,88.0
1463,288.4339320375,289.52234471250006,45.0,89.0
1464,289.5314910375001,289.60466163750004,55.0,79.0
1465,289.5314910375001,289.77844181250003,59.0,95.0
1466,289.89734403750003,290.13819726250006,57.0,81.0
1467,289.89734403750003,290.35618467500007,62.0,83.0
1468,290.26319703750005,290.4491723125,57.0,89.0
1469,289.89734403750003,290.7845375625001,50.0,81.0
1470,290.62905003750006,290.87447642500007,57.0,89.0
1471,290.62905003750006,291.01929323750005,62.0,91.0
1472,290.62905003750006,291.09093945000006,65.0,88.0
1473,290.9949030375,291.13971985000006,50.0,91.0
1474,291.17782953750003,291.2677684,57.0,88.0
1475,291.36075603750004,291.76014556250004,55.0,89.0
1476,291.36075603750004,291.79673086250006,59.0,89.0
1477,291.72660903750005,292.2692909875,50.0,81.0
1478,292.09246203750007,292.283010475,55.0,90.0
1479,291.36075603750004,292.29063241250003,43.0,89.0
1480,292.09246203750007,292.30130312500006,59.0,90.0
1481,292.09246203750007,292.33026648750007,62.0,88.0
1482,292.45831503750003,292.60008307500004,43.0,89.0
1483,292.82416803750004,293.24642337500006,60.0,88.0
1484,292.82416803750004,293.26014286250006,57.0,84.0
1485,293.5558740375001,293.7586175750001,60.0,89.0
1486,293.5558740375001,293.76166635000004,57.0,83.0
1487,293.5558740375001,293.81044675000004,64.0,89.0
1488,293.92172703750003,294.14123883750005,62.0,83.0
1489,293.19002103750006,294.14581200000003,52.0,82.0
1490,292.82416803750004,294.19001923750005,45.0,89.0
1491,294.10465353750004,294.29215320000003,64.0,80.0
1492,294.28758003750005,294.70678660000004,57.0,78.0
1493,294.28758003750005,294.74946945000005,60.0,80.0
1494,295.0192860375,295.21288325000006,57.0,78.0
1495,295.0192860375,295.39885852500004,60.0,85.0
1496,294.65343303750006,295.54672411250004,52.0,77.0
1497,294.28758003750005,295.55587043750006,45.0,88.0
1498,295.38513903750004,295.56349237500007,57.0,77.0
1499,295.75099203750005,296.2220277750001,57.0,87.0
1500,295.75099203750005,296.28147888750004,60.0,88.0
1501,296.11684503750007,296.54062476250004,48.0,88.0
1502,296.48269803750003,296.63666117500003,57.0,83.0
1503,295.75099203750005,296.70068545000004,41.0,88.0
1504,296.48269803750003,296.77842921250004,60.0,89.0
1505,296.66562453750004,296.81958767500004,48.0,88.0
1506,296.48269803750003,296.92172163750007,65.0,88.0
1507,296.84855103750004,297.10007497500004,57.0,85.0
1508,297.03147753750005,297.12141640000004,60.0,83.0
1509,297.21440403750006,297.61989111250006,55.0,86.0
1510,297.21440403750006,297.63970815000005,59.0,88.0
1511,297.5802570375001,298.00860992500003,50.0,83.0
1512,297.21440403750006,298.11074388750006,43.0,88.0
1513,297.94611003750003,298.22964611250006,55.0,90.0
1514,297.94611003750003,298.24031682500004,59.0,92.0
1515,297.94611003750003,298.26775580000003,62.0,88.0
1516,298.31196303750005,298.4339140375001,50.0,83.0
1517,298.67781603750007,299.08025433750004,57.0,81.0
1518,298.67781603750007,299.08787627500004,60.0,84.0
1519,299.0436690375,299.47507070000006,52.0,84.0
1520,299.40952203750004,299.80128962500004,57.0,85.0
1521,299.40952203750004,299.82263105000004,60.0,90.0
1522,299.40952203750004,299.85769196250004,64.0,90.0
1523,298.67781603750007,299.9323869500001,45.0,88.0
1524,299.77537503750005,299.96592347500007,52.0,85.0
1525,299.95830153750006,300.05433795000005,57.0,79.0
1526,299.95830153750006,300.06043550000004,62.0,79.0
1527,300.14122803750007,300.520800525,57.0,83.0
1528,300.14122803750007,300.55891021250005,62.0,88.0
1529,300.69000753750004,300.82415363750005,57.0,80.0
1530,300.50708103750003,300.94915341250004,52.0,89.0
1531,300.14122803750007,301.15799450000003,45.0,89.0
1532,301.05586053750005,301.1778115375001,52.0,92.0
1533,300.87293403750004,301.18848225000005,60.0,94.0
1534,301.23878703750006,301.45372567500004,57.0,89.0
1535,301.42171353750007,301.5284206625,60.0,77.0
1536,301.6046400375001,302.04823680000004,60.0,88.0
1537,301.97049303750003,302.38055327500007,48.0,84.0
1538,302.33634603750005,302.63665037500004,53.0,89.0
1539,301.6046400375001,302.69152832500004,41.0,88.0
1540,302.51927253750006,302.71286975000004,57.0,89.0
1541,302.70219903750007,302.94305226250003,60.0,93.0
1542,302.8851255375001,303.04213745000004,53.0,88.0
1543,303.43390503750004,303.71744111250007,55.0,89.0
1544,303.61683153750005,303.83939211250004,59.0,88.0
1545,303.25097853750003,303.9567699500001,50.0,86.0
1546,303.79975803750006,304.0543307500001,62.0,90.0
1547,303.98268453750006,304.22506215000004,55.0,90.0
1548,303.0680520375001,304.34243998750003,43.0,84.0
1549,304.16561103750007,304.3759765125001,50.0,89.0
1550,304.53146403750003,304.7540246125001,55.0,83.0
1551,304.53146403750003,304.95981692500004,64.0,87.0
1552,304.53146403750003,304.96896325000006,60.0,83.0
1553,304.89731703750004,305.08634108750005,55.0,87.0
1554,305.26317003750006,305.45066970000005,60.0,90.0
1555,305.26317003750006,305.45676725000004,55.0,90.0
1556,304.53146403750003,305.57566947500004,48.0,90.0
1557,305.26317003750006,305.58329141250005,64.0,94.0
1558,305.6290230375001,305.85463238750003,62.0,88.0
1559,305.8119495375,305.9857297125001,64.0,84.0
1560,305.99487603750003,306.22505855,55.0,89.0
1561,305.99487603750003,306.55889941250007,60.0,93.0
1562,306.54365553750006,306.71133816250006,55.0,78.0
1563,306.72658203750007,306.83176477500007,55.0,84.0
1564,305.99487603750003,307.07261800000003,48.0,90.0
1565,306.72658203750007,307.12597156250007,62.0,91.0
1566,307.0924350375001,307.35310530000004,60.0,86.0
1567,307.45828803750004,307.86682388750006,62.0,84.0
1568,308.18999403750007,308.22200617500005,62.0,77.0
1569,308.18999403750007,308.42779848750007,57.0,84.0
1570,307.82414103750006,308.60005427500005,45.0,74.0
1571,308.18999403750007,308.61529815000006,65.0,87.0
1572,307.45828803750004,308.71743211250003,38.0,92.0
1573,308.55584703750003,308.85920015000005,62.0,83.0
1574,308.92170003750005,309.35615047500005,62.0,83.0
1575,308.92170003750005,309.36377241250005,57.0,82.0
1576,309.28755303750006,309.74791806250005,45.0,82.0
1577,309.6534060375001,309.77078387500006,57.0,85.0
1578,308.92170003750005,309.8210886625001,38.0,88.0
1579,309.6534060375001,309.9750518000001,65.0,87.0
1580,309.6534060375001,309.98114935000007,62.0,90.0
1581,310.01925903750003,310.11377106250006,57.0,84.0
1582,310.38511203750005,311.03754988750006,55.0,82.0
1583,310.38511203750005,311.12748875000005,52.0,80.0
1584,310.75096503750007,311.21590322500003,47.0,77.0
1585,310.38511203750005,311.28754943750005,40.0,89.0
1586,311.1168180375001,311.57413428750004,59.0,85.0
1587,311.48267103750004,311.64578050000006,52.0,88.0
1588,311.84852403750006,312.2646818250001,57.0,76.0
1589,311.84852403750006,312.3058402875001,60.0,80.0
1590,312.21437703750007,312.7052298125001,52.0,84.0
1591,312.58023003750003,312.77382725000007,60.0,89.0
1592,312.58023003750003,312.80888816250007,57.0,88.0
1593,312.76315653750004,312.90492457500005,52.0,88.0
1594,311.84852403750006,312.9369367125,45.0,89.0
1595,312.94608303750005,313.01925363750007,55.0,79.0
1596,312.94608303750005,313.19303381250006,59.0,95.0
1597,313.31193603750006,313.5527892625,57.0,81.0
1598,313.31193603750006,313.77077667500004,62.0,83.0
1599,313.6777890375001,313.86376431250005,57.0,89.0
1600,313.31193603750006,314.19912956250005,50.0,81.0
1601,314.04364203750004,314.28906842500004,57.0,89.0
1602,314.04364203750004,314.4338852375001,62.0,91.0
1603,314.04364203750004,314.50553145000003,65.0,88.0
1604,314.40949503750005,314.55431185000003,50.0,91.0
1605,314.59242153750006,314.68236040000005,57.0,88.0
1606,314.75400661250006,315.27687152500005,62.0,86.0
1607,315.52687107500003,316.13662607500004,59.0,84.0
1608,314.74943345,316.1625406625001,55.0,82.0
1609,315.12138400000003,316.1899796375001,50.0,78.0
1610,314.74486028750005,316.2113210625001,43.0,88.0
1611,315.9247362125001,316.21741861250007,62.0,82.0
1612,317.29211180000004,320.06497266250005,64.0,74.0
1613,317.19607538750006,320.0680214375001,60.0,84.0
1614,317.15491692500007,320.06954582500003,45.0,86.0
1615,317.11680723750004,320.08021653750006,57.0,76.0
1616,317.34394097500007,320.08631408750006,69.0,88.0
