,start,end,pitch,velocity
0,28.642187500000002,29.6,70.0,108.0
1,29.767187500000002,30.034375,70.0,100.0
2,30.142187500000002,30.387500000000003,68.0,97.0
3,30.517187500000002,30.7875,70.0,102.0
4,30.892187500000002,31.1625,68.0,94.0
5,31.267187500000002,31.548437500000002,63.0,100.0
6,31.642187500000002,33.550000000000004,66.0,97.0
7,33.8921875,34.1859375,70.0,102.0
8,34.2671875,34.54375,73.0,94.0
9,34.6421875,34.8875,75.0,97.0
10,35.0171875,35.23125,75.0,92.0
11,35.3921875,35.7015625,75.0,82.0
12,35.7671875,36.0125,78.0,94.0
13,36.1421875,36.7796875,75.0,94.0
14,36.8921875,37.221875000000004,73.0,102.0
15,37.2671875,37.557812500000004,70.0,105.0
16,37.6421875,39.159375000000004,73.0,97.0
17,40.642187500000006,40.928125,75.0,105.0
18,41.017187500000006,41.303125,75.0,94.0
19,41.392187500000006,41.678125,75.0,84.0
20,41.767187500000006,42.048437500000006,73.0,97.0
21,42.142187500000006,42.465625,75.0,97.0
22,42.517187500000006,42.8015625,78.0,94.0
23,42.892187500000006,43.464062500000004,75.0,102.0
24,43.642187500000006,43.9515625,73.0,97.0
25,44.017187500000006,44.3125,70.0,97.0
26,44.392187500000006,44.66875,70.0,87.0
27,44.767187500000006,45.040625000000006,68.0,97.0
28,45.142187500000006,45.746875,66.0,102.0
29,46.642187500000006,46.9203125,68.0,89.0
30,47.017187500000006,47.246875,68.0,94.0
31,47.392187500000006,47.634375000000006,68.0,92.0
32,47.767187500000006,48.017187500000006,70.0,100.0
33,48.142187500000006,48.740625,68.0,97.0
34,48.892187500000006,49.1859375,66.0,97.0
35,49.267187500000006,49.525000000000006,63.0,97.0
36,49.642187500000006,51.521875,61.0,87.0
37,52.642187500000006,53.675000000000004,70.0,100.0
38,53.767187500000006,54.0375,70.0,105.0
39,54.142187500000006,54.434375,68.0,89.0
40,54.517187500000006,54.7625,70.0,100.0
41,54.892187500000006,55.1625,68.0,97.0
42,55.267187500000006,55.5453125,63.0,97.0
43,55.642187500000006,57.453125,66.0,97.0
44,57.892187500000006,58.189062500000006,70.0,108.0
45,58.267187500000006,58.521875,73.0,92.0
46,58.642187500000006,58.840625,75.0,89.0
47,59.017187500000006,59.221875000000004,75.0,92.0
48,59.392187500000006,59.659375000000004,75.0,89.0
49,59.767187500000006,59.9890625,78.0,92.0
50,60.142187500000006,60.704687500000006,75.0,87.0
51,60.892187500000006,61.220312500000006,73.0,94.0
52,61.267187500000006,61.5515625,70.0,100.0
53,61.642187500000006,63.1953125,73.0,102.0
54,64.6421875,64.9296875,75.0,89.0
55,65.0171875,65.2890625,75.0,92.0
56,65.3921875,65.659375,75.0,97.0
57,65.7671875,65.98281250000001,73.0,100.0
58,66.1421875,66.52968750000001,75.0,100.0
59,66.5171875,66.8765625,78.0,89.0
60,66.8921875,67.515625,75.0,97.0
61,67.6421875,67.978125,73.0,94.0
62,68.0171875,68.2453125,70.0,94.0
63,68.3921875,68.790625,70.0,94.0
64,68.7671875,69.059375,68.0,100.0
65,69.1421875,69.76875,66.0,97.0
66,70.6421875,70.8984375,68.0,97.0
67,71.0171875,71.27187500000001,68.0,94.0
68,71.3921875,71.6484375,68.0,105.0
69,71.7671875,72.003125,70.0,102.0
70,72.1421875,72.8234375,68.0,102.0
71,72.8921875,73.1953125,66.0,102.0
72,73.2671875,73.53750000000001,75.0,105.0
73,73.6421875,76.04375,73.0,100.0
74,76.6421875,77.65,78.0,100.0
75,77.7671875,78.04531250000001,77.0,105.0
76,78.1421875,78.39687500000001,75.0,100.0
77,78.5171875,78.76875000000001,77.0,94.0
78,78.8921875,79.15937500000001,75.0,94.0
79,79.2671875,79.56093750000001,70.0,105.0
80,79.6421875,81.5546875,73.0,97.0
81,82.6421875,82.87031250000001,75.0,97.0
82,83.0171875,83.2265625,75.0,102.0
83,83.3921875,83.66875,75.0,97.0
84,83.7671875,84.0125,78.0,100.0
85,84.1421875,84.7359375,75.0,92.0
86,84.8921875,85.15937500000001,73.0,94.0
87,85.2671875,85.528125,70.0,92.0
88,85.6421875,87.43281250000001,68.0,100.0
89,88.6421875,88.8515625,68.0,97.0
90,89.0171875,89.228125,68.0,100.0
91,89.3921875,89.6015625,68.0,100.0
92,89.7671875,90.01875000000001,66.0,102.0
93,90.1421875,90.73281250000001,68.0,100.0
94,90.8921875,91.4765625,70.0,105.0
95,91.6421875,91.978125,75.0,93.0
96,92.0171875,92.2265625,73.0,102.0
97,92.3921875,92.70937500000001,73.0,105.0
98,92.7671875,93.04531250000001,70.0,105.0
99,93.1421875,93.4390625,73.0,105.0
100,93.5171875,93.87031250000001,75.0,102.0
101,93.8921875,94.49375,73.0,105.0
102,94.6421875,94.871875,75.0,102.0
103,95.0171875,95.2,75.0,100.0
104,95.3921875,95.60781250000001,75.0,102.0
105,95.7671875,96.39687500000001,75.0,105.0
106,96.5171875,96.76875000000001,73.0,102.0
107,96.8921875,97.2046875,73.0,105.0
108,97.2671875,97.5328125,70.0,108.0
109,97.6421875,99.93125,73.0,102.0
110,100.6421875,101.61875,78.0,105.0
111,101.7671875,102.0625,77.0,105.0
112,102.1421875,102.40937500000001,75.0,105.0
113,102.5171875,102.7734375,77.0,105.0
114,102.8921875,103.1875,75.0,100.0
115,103.2671875,103.5625,70.0,108.0
116,103.6421875,105.6171875,73.0,94.0
117,106.6421875,106.89375000000001,75.0,102.0
118,107.0171875,107.22968750000001,75.0,100.0
119,107.3921875,107.6484375,75.0,92.0
120,107.7671875,107.99531250000001,78.0,97.0
121,108.1421875,108.7234375,75.0,94.0
122,108.8921875,109.165625,73.0,94.0
123,109.2671875,109.5359375,70.0,100.0
124,109.6421875,111.54375,68.0,100.0
125,112.6421875,112.890625,68.0,102.0
126,113.0171875,113.28437500000001,68.0,105.0
127,113.3921875,113.6796875,68.0,97.0
128,113.7671875,114.059375,66.0,108.0
129,114.1421875,114.75625000000001,68.0,97.0
130,114.8921875,115.49531250000001,70.0,102.0
131,115.6421875,115.93281250000001,75.0,100.0
132,116.0171875,116.24843750000001,73.0,102.0
133,116.3921875,116.6765625,73.0,105.0
134,116.7671875,117.03437500000001,70.0,108.0
135,117.1421875,117.89375000000001,75.0,92.0
136,117.8921875,118.44062500000001,73.0,92.0
137,118.6421875,118.87343750000001,75.0,89.0
138,119.0171875,119.21875,75.0,94.0
139,119.3921875,119.60468750000001,75.0,97.0
140,119.7671875,120.3640625,75.0,105.0
141,120.5171875,120.78750000000001,73.0,102.0
142,120.8921875,121.2046875,73.0,97.0
143,121.2671875,121.53125,70.0,108.0
144,121.6421875,123.9140625,73.0,105.0
145,124.6421875,124.89687500000001,73.0,87.0
146,125.0171875,125.2984375,70.0,100.0
147,125.3921875,125.6328125,68.0,97.0
148,125.7671875,126.05781250000001,70.0,94.0
149,126.1421875,126.75312500000001,68.0,100.0
150,126.8921875,127.54218750000001,63.0,94.0
151,127.6421875,130.53125,66.0,100.0
152,154.6421875,155.675,70.0,100.0
153,155.7671875,156.03750000000002,70.0,105.0
154,156.1421875,156.43437500000002,68.0,89.0
155,156.5171875,156.76250000000002,70.0,100.0
156,156.8921875,157.16250000000002,68.0,97.0
157,157.2671875,157.54531250000002,63.0,97.0
158,157.6421875,159.453125,66.0,97.0
159,159.8921875,160.1890625,70.0,108.0
160,160.2671875,160.52187500000002,73.0,92.0
161,160.6421875,160.84062500000002,75.0,89.0
162,161.0171875,161.221875,75.0,92.0
163,161.3921875,161.659375,75.0,89.0
164,161.7671875,161.98906250000002,78.0,92.0
165,162.1421875,162.7046875,75.0,87.0
166,162.8921875,163.2203125,73.0,94.0
167,163.2671875,163.55156250000002,70.0,100.0
168,163.6421875,165.1953125,73.0,102.0
169,166.6421875,166.9296875,75.0,89.0
170,167.0171875,167.2890625,75.0,92.0
171,167.3921875,167.659375,75.0,97.0
172,167.7671875,167.98281250000002,73.0,100.0
173,168.1421875,168.52968750000002,75.0,100.0
174,168.5171875,168.8765625,78.0,89.0
175,168.8921875,169.515625,75.0,97.0
176,169.6421875,169.978125,73.0,94.0
177,170.0171875,170.2453125,70.0,94.0
178,170.3921875,170.790625,70.0,94.0
179,170.7671875,171.05937500000002,68.0,100.0
180,171.1421875,171.76875,66.0,97.0
181,172.6421875,172.8984375,68.0,97.0
182,173.0171875,173.27187500000002,68.0,94.0
183,173.3921875,173.6484375,68.0,105.0
184,173.7671875,174.003125,70.0,102.0
185,174.1421875,174.8234375,68.0,102.0
186,174.8921875,175.1953125,66.0,102.0
187,175.2671875,175.53750000000002,75.0,105.0
188,175.6421875,178.04375000000002,73.0,100.0
189,178.6421875,179.65,78.0,100.0
190,179.7671875,180.04531250000002,77.0,105.0
191,180.1421875,180.39687500000002,75.0,100.0
192,180.5171875,180.76875,77.0,94.0
193,180.8921875,181.159375,75.0,94.0
194,181.2671875,181.56093750000002,70.0,105.0
195,181.6421875,183.5546875,73.0,97.0
196,184.6421875,184.8703125,75.0,97.0
197,185.0171875,185.2265625,75.0,102.0
198,185.3921875,185.66875000000002,75.0,97.0
199,185.7671875,186.01250000000002,78.0,100.0
200,186.1421875,186.7359375,75.0,92.0
201,186.8921875,187.159375,73.0,94.0
202,187.2671875,187.52812500000002,70.0,92.0
203,187.6421875,189.4328125,68.0,100.0
204,190.6421875,190.8515625,68.0,97.0
205,191.0171875,191.228125,68.0,100.0
206,191.3921875,191.6015625,68.0,100.0
207,191.7671875,192.01875,66.0,102.0
208,192.1421875,192.73281250000002,68.0,100.0
209,192.8921875,193.4765625,70.0,105.0
210,193.6421875,193.978125,75.0,93.0
211,194.0171875,194.2265625,73.0,102.0
212,194.3921875,194.70937500000002,73.0,105.0
213,194.7671875,195.04531250000002,70.0,105.0
214,195.1421875,195.4390625,73.0,105.0
215,195.5171875,195.8703125,75.0,102.0
216,195.8921875,196.49375,73.0,105.0
217,196.6421875,196.87187500000002,75.0,102.0
218,197.0171875,197.20000000000002,75.0,100.0
219,197.3921875,197.60781250000002,75.0,102.0
220,197.7671875,198.39687500000002,75.0,105.0
221,198.5171875,198.76875,73.0,102.0
222,198.8921875,199.2046875,73.0,105.0
223,199.2671875,199.5328125,70.0,108.0
224,199.6421875,201.93125,73.0,102.0
225,202.6421875,203.61875,78.0,105.0
226,203.7671875,204.0625,77.0,105.0
227,204.1421875,204.409375,75.0,105.0
228,204.5171875,204.7734375,77.0,105.0
229,204.8921875,205.1875,75.0,100.0
230,205.2671875,205.5625,70.0,108.0
231,205.6421875,207.6171875,73.0,94.0
232,208.6421875,208.89375,75.0,102.0
233,209.0171875,209.2296875,75.0,100.0
234,209.3921875,209.6484375,75.0,92.0
235,209.7671875,209.9953125,78.0,97.0
236,210.1421875,210.72343750000002,75.0,94.0
237,210.8921875,211.165625,73.0,94.0
238,211.2671875,211.53593750000002,70.0,100.0
239,211.6421875,213.54375000000002,68.0,100.0
240,214.6421875,214.890625,68.0,102.0
241,215.0171875,215.284375,68.0,105.0
242,215.3921875,215.6796875,68.0,97.0
243,215.7671875,216.05937500000002,66.0,108.0
244,216.1421875,216.75625000000002,68.0,97.0
245,216.8921875,217.4953125,70.0,102.0
246,217.6421875,217.9328125,75.0,100.0
247,218.0171875,218.24843750000002,73.0,102.0
248,218.3921875,218.67656250000002,73.0,105.0
249,218.7671875,219.034375,70.0,108.0
250,219.1421875,219.89375,75.0,92.0
251,219.8921875,220.440625,73.0,92.0
252,220.6421875,220.87343750000002,75.0,89.0
253,221.0171875,221.21875,75.0,94.0
254,221.3921875,221.6046875,75.0,97.0
255,221.7671875,222.36406250000002,75.0,105.0
256,222.5171875,222.78750000000002,73.0,102.0
257,222.8921875,223.2046875,73.0,97.0
258,223.2671875,223.53125,70.0,108.0
259,223.6421875,225.9140625,73.0,105.0
260,226.6421875,227.65,78.0,100.0
261,227.7671875,228.04531250000002,77.0,105.0
262,228.1421875,228.39687500000002,75.0,100.0
263,228.5171875,228.76875,77.0,94.0
264,228.8921875,229.159375,75.0,94.0
265,229.2671875,229.56093750000002,70.0,105.0
266,229.6421875,231.5546875,73.0,97.0
267,232.6421875,232.8703125,75.0,97.0
268,233.0171875,233.2265625,75.0,102.0
269,233.3921875,233.66875000000002,75.0,97.0
270,233.7671875,234.01250000000002,78.0,100.0
271,234.1421875,234.7359375,75.0,92.0
272,234.8921875,235.159375,73.0,94.0
273,235.2671875,235.52812500000002,70.0,92.0
274,235.6421875,237.4328125,68.0,100.0
275,238.6421875,238.8515625,68.0,97.0
276,239.0171875,239.228125,68.0,100.0
277,239.3921875,239.6015625,68.0,100.0
278,239.7671875,240.01875,66.0,102.0
279,240.1421875,240.73281250000002,68.0,100.0
280,240.8921875,241.4765625,70.0,105.0
281,241.6421875,241.978125,75.0,93.0
282,242.0171875,242.2265625,73.0,102.0
283,242.3921875,242.70937500000002,73.0,105.0
284,242.7671875,243.04531250000002,70.0,105.0
285,243.1421875,243.4390625,73.0,105.0
286,243.5171875,243.8703125,75.0,102.0
287,243.8921875,244.49375,73.0,105.0
288,244.6421875,244.87187500000002,75.0,102.0
289,245.0171875,245.20000000000002,75.0,100.0
290,245.3921875,245.60781250000002,75.0,102.0
291,245.7671875,246.39687500000002,75.0,105.0
292,246.5171875,246.76875,73.0,102.0
293,246.8921875,247.2046875,73.0,105.0
294,247.2671875,247.5328125,70.0,108.0
295,247.6421875,249.93125,73.0,102.0
296,250.6421875,251.61875,78.0,105.0
297,251.7671875,252.0625,77.0,105.0
298,252.1421875,252.409375,75.0,105.0
299,252.5171875,252.7734375,77.0,105.0
300,252.8921875,253.1875,75.0,100.0
301,253.2671875,253.5625,70.0,108.0
302,253.6421875,255.6171875,73.0,94.0
303,256.64218750000003,256.89375,75.0,102.0
304,257.01718750000003,257.2296875,75.0,100.0
305,257.39218750000003,257.6484375,75.0,92.0
306,257.76718750000003,257.9953125,78.0,97.0
307,258.14218750000003,258.7234375,75.0,94.0
308,258.89218750000003,259.16562500000003,73.0,94.0
309,259.26718750000003,259.5359375,70.0,100.0
310,259.64218750000003,261.54375,68.0,100.0
311,262.64218750000003,262.890625,68.0,102.0
312,263.01718750000003,263.284375,68.0,105.0
313,263.39218750000003,263.6796875,68.0,97.0
314,263.76718750000003,264.059375,66.0,108.0
315,264.14218750000003,264.75625,68.0,97.0
316,264.89218750000003,265.4953125,70.0,102.0
317,265.64218750000003,265.9328125,75.0,100.0
318,266.01718750000003,266.2484375,73.0,102.0
319,266.39218750000003,266.6765625,73.0,105.0
320,266.76718750000003,267.034375,70.0,108.0
321,267.14218750000003,267.89375,75.0,92.0
322,267.89218750000003,268.440625,73.0,92.0
323,268.64218750000003,268.8734375,75.0,89.0
324,269.01718750000003,269.21875,75.0,94.0
325,269.39218750000003,269.6046875,75.0,97.0
326,269.76718750000003,270.3640625,75.0,105.0
327,270.51718750000003,270.7875,73.0,102.0
328,270.89218750000003,271.20468750000003,73.0,97.0
329,271.26718750000003,271.53125,70.0,108.0
330,271.64218750000003,273.9140625,73.0,105.0
331,274.64218750000003,274.896875,73.0,87.0
332,275.01718750000003,275.29843750000003,70.0,100.0
333,275.39218750000003,275.6328125,68.0,97.0
334,275.76718750000003,276.0578125,70.0,94.0
335,276.14218750000003,276.753125,68.0,100.0
336,276.89218750000003,277.5421875,63.0,94.0
337,277.64218750000003,280.53125,66.0,100.0
