,start,end,pitch,velocity
0,2.3921875,2.7703125,66.0,108.0
1,2.7671875000000004,3.1390625,65.0,97.0
2,3.1421875000000004,3.53125,63.0,111.0
3,3.5171875000000004,3.921875,61.0,108.0
4,0.8703125,4.0546875,58.0,73.0
5,0.7562500000000001,4.128125,54.0,82.0
6,3.8921875000000004,4.278125,56.0,92.0
7,4.2671875,4.6515625,54.0,87.0
8,0.8046875,4.6625000000000005,42.0,87.0
9,4.6421875,4.6625000000000005,42.0,100.0
10,5.0171875,5.510937500000001,49.0,89.0
11,4.6421875,5.8921875,58.0,97.0
12,5.3921875,5.8921875,58.0,100.0
13,5.7671875,6.296875,49.0,79.0
14,6.1421875,6.953125,54.0,100.0
15,6.5171875,7.190625000000001,49.0,88.0
16,6.1421875,7.3265625000000005,61.0,98.0
17,7.2671875,7.503125000000001,54.0,97.0
18,6.8921875,7.9906250000000005,66.0,97.0
19,8.0171875,8.484375,58.0,92.0
20,8.3921875,9.175,63.0,98.0
21,8.7671875,9.328125,58.0,97.0
22,9.1421875,9.754687500000001,70.0,98.0
23,9.5171875,9.9484375,63.0,96.0
24,7.6421875,10.2515625,51.0,101.0
25,9.8921875,10.6828125,68.0,97.0
26,10.6421875,11.498437500000001,66.0,97.0
27,11.3921875,11.778125000000001,59.0,97.0
28,11.7671875,12.256250000000001,63.0,97.0
29,11.0171875,12.318750000000001,54.0,97.0
30,12.8921875,12.9859375,63.0,40.0
31,10.6421875,13.1109375,47.0,97.0
32,12.5171875,13.14375,54.0,87.0
33,12.1421875,13.2828125,66.0,99.0
34,12.8921875,13.287500000000001,59.0,99.0
35,13.2671875,13.371875000000001,63.0,97.0
36,13.6421875,14.443750000000001,61.0,97.0
37,14.3921875,14.8375,65.0,103.0
38,14.7671875,15.084375000000001,61.0,98.0
39,14.0171875,15.234375,56.0,93.0
40,15.1421875,15.7109375,61.0,101.0
41,15.1421875,15.801562500000001,68.0,98.0
42,13.6421875,16.0515625,49.0,100.0
43,15.5171875,16.08125,56.0,92.0
44,15.8921875,16.150000000000002,61.0,98.0
45,16.267187500000002,16.4046875,49.0,98.0
46,15.8921875,16.556250000000002,66.0,98.0
47,16.642187500000002,17.1921875,59.0,91.0
48,16.642187500000002,17.4828125,63.0,94.0
49,17.392187500000002,17.7765625,59.0,102.0
50,17.017187500000002,18.3390625,54.0,90.0
51,17.767187500000002,18.9375,63.0,98.0
52,16.642187500000002,19.259375000000002,47.0,95.0
53,18.892187500000002,19.2640625,59.0,104.0
54,18.517187500000002,19.2765625,54.0,82.0
55,18.142187500000002,19.2875,66.0,95.0
56,19.267187500000002,19.3859375,63.0,97.0
57,19.642187500000002,20.142187500000002,56.0,99.0
58,19.642187500000002,20.4609375,61.0,96.0
59,20.392187500000002,20.659375,56.0,106.0
60,20.017187500000002,20.900000000000002,53.0,89.0
61,19.642187500000002,21.0078125,46.0,97.0
62,20.767187500000002,21.06875,61.0,98.0
63,21.142187500000002,21.615625,58.0,93.0
64,21.142187500000002,21.700000000000003,63.0,96.0
65,21.892187500000002,22.032812500000002,58.0,97.0
66,21.517187500000002,22.239062500000003,54.0,82.0
67,21.142187500000002,22.26875,51.0,98.0
68,21.892187500000002,22.353125000000002,63.0,98.0
69,22.267187500000002,22.5734375,58.0,92.0
70,21.892187500000002,22.58125,66.0,98.0
71,23.017187500000002,23.462500000000002,59.0,104.0
72,23.392187500000002,23.9875,56.0,97.0
73,23.767187500000002,24.204687500000002,63.0,92.0
74,24.517187500000002,24.9515625,63.0,97.0
75,24.142187500000002,24.95625,68.0,98.0
76,22.642187500000002,25.1625,44.0,101.0
77,24.892187500000002,25.298437500000002,59.0,98.0
78,25.267187500000002,25.379687500000003,56.0,101.0
79,25.642187500000002,26.1171875,61.0,93.0
80,25.642187500000002,26.40625,65.0,99.0
81,26.017187500000002,26.4984375,56.0,95.0
82,26.392187500000002,27.017187500000002,61.0,103.0
83,26.767187500000002,27.040625000000002,65.0,99.0
84,27.142187500000002,27.6359375,61.0,97.0
85,27.142187500000002,27.978125000000002,68.0,92.0
86,27.517187500000002,28.05,56.0,89.0
87,25.642187500000002,28.634375000000002,49.0,103.0
88,27.892187500000002,28.645312500000003,61.0,97.0
89,28.267187500000002,28.65625,56.0,90.0
90,28.642187500000002,29.267187500000002,58.0,93.0
91,28.642187500000002,29.3546875,54.0,93.0
92,29.392187500000002,29.723437500000003,61.0,98.0
93,29.767187500000002,30.2109375,58.0,92.0
94,30.142187500000002,30.928125,66.0,98.0
95,29.017187500000002,30.957812500000003,49.0,97.0
96,30.517187500000002,30.9640625,58.0,94.0
97,28.642187500000002,31.021875,42.0,97.0
98,30.892187500000002,31.246875000000003,61.0,103.0
99,31.267187500000002,31.5578125,58.0,98.0
100,31.642187500000002,31.85,58.0,92.0
101,31.642187500000002,32.182812500000004,63.0,97.0
102,32.0171875,32.521875,58.0,97.0
103,32.3921875,32.78125,66.0,98.0
104,32.7671875,33.175000000000004,58.0,93.0
105,33.1421875,33.86875,70.0,98.0
106,33.5171875,33.8953125,58.0,101.0
107,31.642187500000002,34.018750000000004,51.0,98.0
108,33.8921875,34.2234375,66.0,100.0
109,34.2671875,34.446875,58.0,98.0
110,34.6421875,34.8796875,59.0,80.0
111,34.6421875,35.434375,63.0,98.0
112,35.3921875,35.803125,59.0,99.0
113,35.0171875,36.0,54.0,94.0
114,35.7671875,36.55625,63.0,97.0
115,36.5171875,37.00625,59.0,97.0
116,34.6421875,37.4609375,47.0,93.0
117,36.1421875,37.5,54.0,90.0
118,37.2671875,37.6640625,59.0,99.0
119,36.8921875,37.6765625,66.0,98.0
120,38.3921875,38.815625000000004,61.0,103.0
121,38.767187500000006,39.026562500000004,63.0,103.0
122,38.0171875,39.315625000000004,56.0,90.0
123,39.142187500000006,39.6171875,65.0,102.0
124,39.142187500000006,39.71875,61.0,99.0
125,39.517187500000006,40.042187500000004,56.0,91.0
126,37.6421875,40.3828125,49.0,102.0
127,40.267187500000006,40.4109375,56.0,89.0
128,39.892187500000006,40.5359375,61.0,98.0
129,39.892187500000006,40.5515625,68.0,92.0
130,40.642187500000006,41.0921875,59.0,93.0
131,40.642187500000006,41.4203125,63.0,95.0
132,41.017187500000006,41.4921875,54.0,88.0
133,41.767187500000006,42.3953125,54.0,92.0
134,41.392187500000006,42.448437500000004,59.0,101.0
135,42.142187500000006,42.8203125,66.0,98.0
136,42.892187500000006,43.0515625,59.0,99.0
137,40.642187500000006,43.1078125,47.0,99.0
138,42.517187500000006,43.1953125,54.0,85.0
139,42.892187500000006,43.292187500000004,63.0,97.0
140,43.267187500000006,43.604687500000004,59.0,102.0
141,43.642187500000006,44.157812500000006,58.0,93.0
142,43.642187500000006,44.3328125,61.0,97.0
143,44.392187500000006,44.878125000000004,58.0,99.0
144,44.017187500000006,44.900000000000006,53.0,92.0
145,43.642187500000006,45.050000000000004,46.0,97.0
146,44.767187500000006,45.206250000000004,61.0,98.0
147,45.142187500000006,45.728125000000006,63.0,98.0
148,45.517187500000006,45.8328125,58.0,97.0
149,45.892187500000006,46.0359375,58.0,94.0
150,45.142187500000006,46.142187500000006,51.0,99.0
151,45.892187500000006,46.220312500000006,63.0,98.0
152,45.892187500000006,46.550000000000004,66.0,98.0
153,46.642187500000006,47.4125,59.0,93.0
154,47.767187500000006,48.178125,59.0,99.0
155,47.392187500000006,48.2015625,63.0,97.0
156,47.017187500000006,49.040625000000006,51.0,94.0
157,46.642187500000006,49.104687500000004,44.0,98.0
158,48.892187500000006,49.298437500000006,59.0,100.0
159,48.517187500000006,49.3015625,63.0,97.0
160,49.267187500000006,49.368750000000006,56.0,97.0
161,48.142187500000006,49.470312500000006,68.0,98.0
162,49.642187500000006,50.1,61.0,98.0
163,49.642187500000006,50.3328125,65.0,99.0
164,50.392187500000006,50.831250000000004,61.0,103.0
165,49.642187500000006,51.003125000000004,49.0,100.0
166,50.017187500000006,51.017187500000006,56.0,91.0
167,50.767187500000006,51.1140625,63.0,103.0
168,51.142187500000006,51.4890625,65.0,104.0
169,51.142187500000006,51.753125000000004,61.0,98.0
170,51.517187500000006,52.009375000000006,56.0,93.0
171,51.892187500000006,52.5625,61.0,100.0
172,51.892187500000006,52.578125,68.0,99.0
173,51.142187500000006,52.590625,49.0,100.0
174,52.267187500000006,52.612500000000004,56.0,98.0
175,52.642187500000006,52.8828125,54.0,99.0
176,52.642187500000006,53.1640625,58.0,99.0
177,53.767187500000006,54.214062500000004,58.0,99.0
178,53.392187500000006,54.25625,61.0,102.0
179,53.017187500000006,54.306250000000006,49.0,89.0
180,54.517187500000006,54.635937500000004,54.0,95.0
181,54.142187500000006,54.667187500000004,66.0,103.0
182,54.517187500000006,55.057812500000004,49.0,100.0
183,54.892187500000006,55.251562500000006,61.0,104.0
184,52.642187500000006,55.340625,42.0,100.0
185,55.267187500000006,55.4265625,49.0,102.0
186,54.892187500000006,55.834375,66.0,106.0
187,56.017187500000006,56.50625,58.0,98.0
188,56.392187500000006,56.870312500000004,66.0,100.0
189,56.392187500000006,56.970312500000006,63.0,100.0
190,56.767187500000006,57.300000000000004,58.0,91.0
191,57.142187500000006,57.659375000000004,63.0,100.0
192,57.142187500000006,57.6640625,66.0,100.0
193,57.142187500000006,57.714062500000004,70.0,99.0
194,57.517187500000006,58.0078125,58.0,92.0
195,57.892187500000006,58.0546875,63.0,102.0
196,55.642187500000006,58.0703125,51.0,105.0
197,57.892187500000006,58.2734375,66.0,110.0
198,58.267187500000006,58.65625,63.0,103.0
199,58.642187500000006,59.4265625,66.0,99.0
200,59.392187500000006,59.8890625,59.0,104.0
201,59.767187500000006,60.0625,63.0,100.0
202,60.142187500000006,60.328125,59.0,94.0
203,60.142187500000006,60.556250000000006,63.0,101.0
204,60.517187500000006,60.803125,59.0,102.0
205,60.142187500000006,60.921875,66.0,104.0
206,59.017187500000006,61.042187500000004,54.0,94.0
207,60.892187500000006,61.2640625,63.0,99.0
208,61.267187500000006,61.465625,63.0,64.0
209,58.642187500000006,61.517187500000006,47.0,103.0
210,61.267187500000006,61.578125,59.0,108.0
211,61.642187500000006,62.118750000000006,61.0,95.0
212,61.642187500000006,62.1296875,65.0,101.0
213,62.017187500000006,62.5234375,56.0,96.0
214,62.392187500000006,62.853125000000006,61.0,108.0
215,62.767187500000006,63.053125,63.0,106.0
216,63.142187500000006,63.328125,61.0,102.0
217,63.142187500000006,63.484375,65.0,108.0
218,63.517187500000006,63.821875000000006,61.0,102.0
219,62.767187500000006,63.8640625,56.0,88.0
220,63.892187500000006,64.1125,61.0,102.0
221,61.642187500000006,64.23281250000001,49.0,103.0
222,63.892187500000006,64.3125,68.0,105.0
223,64.2671875,64.6296875,61.0,104.0
224,65.0171875,65.5640625,54.0,102.0
225,65.3921875,65.9140625,59.0,105.0
226,65.3921875,66.0671875,63.0,100.0
227,66.1421875,66.325,59.0,92.0
228,65.7671875,66.403125,54.0,91.0
229,66.1421875,66.5890625,66.0,99.0
230,66.1421875,66.63906250000001,63.0,99.0
231,66.5171875,66.784375,59.0,99.0
232,64.6421875,67.0125,47.0,106.0
233,66.8921875,67.2359375,59.0,99.0
234,66.8921875,67.371875,66.0,101.0
235,66.8921875,67.52187500000001,63.0,101.0
236,67.2671875,67.5703125,54.0,93.0
237,67.6421875,68.078125,58.0,96.0
238,67.6421875,68.1015625,61.0,99.0
239,68.3921875,68.5328125,58.0,105.0
240,68.3921875,68.703125,65.0,106.0
241,68.0171875,68.9015625,53.0,99.0
242,67.6421875,68.9953125,46.0,102.0
243,68.7671875,69.0671875,58.0,100.0
244,69.1421875,69.5984375,66.0,101.0
245,69.5171875,69.8484375,58.0,100.0
246,69.1421875,70.2609375,51.0,94.0
247,69.8921875,70.26406250000001,65.0,105.0
248,70.2671875,70.359375,63.0,100.0
249,70.6421875,70.69375000000001,61.0,93.0
250,70.6421875,71.2109375,63.0,93.0
251,70.6421875,71.234375,56.0,95.0
252,71.0171875,71.559375,51.0,99.0
253,71.3921875,71.665625,56.0,99.0
254,71.3921875,71.8359375,59.0,104.0
255,71.7671875,72.3359375,51.0,91.0
256,72.1421875,72.61875,63.0,99.0
257,72.1421875,72.6796875,56.0,100.0
258,70.6421875,73.0359375,44.0,100.0
259,72.5171875,73.06875000000001,51.0,93.0
260,72.8921875,73.0953125,56.0,101.0
261,72.8921875,73.16875,59.0,106.0
262,72.8921875,73.253125,63.0,102.0
263,73.2671875,73.5515625,44.0,99.0
264,73.6421875,73.8140625,56.0,93.0
265,73.6421875,74.0484375,61.0,97.0
266,74.0171875,74.31093750000001,56.0,104.0
267,74.3921875,74.7734375,63.0,106.0
268,73.6421875,74.95156250000001,49.0,105.0
269,74.7671875,74.9625,61.0,100.0
270,75.1421875,75.3046875,56.0,100.0
271,75.5171875,75.721875,56.0,99.0
272,75.1421875,75.74375,65.0,102.0
273,75.8921875,76.075,56.0,104.0
274,75.8921875,76.3078125,61.0,108.0
275,76.2671875,76.5875,56.0,108.0
276,75.1421875,76.675,49.0,110.0
277,76.6421875,77.0859375,63.0,97.0
278,76.6421875,77.09218750000001,66.0,102.0
279,77.3921875,77.56875000000001,70.0,98.0
280,77.3921875,77.5796875,63.0,98.0
281,77.7671875,77.92500000000001,66.0,100.0
282,77.0171875,77.978125,58.0,95.0
283,76.6421875,78.01093750000001,51.0,100.0
284,77.9546875,78.0671875,63.0,96.0
285,78.1421875,78.48125,75.0,100.0
286,78.1421875,78.55312500000001,63.0,96.0
287,78.5171875,78.9734375,58.0,91.0
288,78.1421875,79.04531250000001,51.0,98.0
289,78.8921875,79.05781250000001,63.0,97.0
290,78.8921875,79.278125,70.0,96.0
291,78.8921875,79.3015625,66.0,101.0
292,79.2671875,79.3609375,63.0,95.0
293,79.6421875,80.134375,58.0,85.0
294,79.6421875,80.1578125,61.0,83.0
295,80.0171875,80.5,53.0,98.0
296,80.3921875,80.73125,65.0,104.0
297,80.3921875,80.74375,58.0,101.0
298,80.7671875,80.8875,65.0,88.0
299,79.6421875,80.9453125,46.0,95.0
300,80.7671875,81.028125,53.0,92.0
301,80.9546875,81.165625,66.0,84.0
302,81.1421875,81.5,65.0,102.0
303,81.5171875,81.9890625,53.0,97.0
304,81.1421875,82.0546875,46.0,97.0
305,81.8921875,82.06875000000001,58.0,98.0
306,81.8921875,82.15156250000001,61.0,101.0
307,82.2671875,82.3171875,61.0,64.0
308,82.2671875,82.49375,46.0,96.0
309,82.2671875,82.56093750000001,58.0,102.0
310,82.6421875,83.11562500000001,59.0,90.0
311,82.6421875,83.21406250000001,63.0,95.0
312,82.6421875,83.484375,47.0,97.0
313,83.0171875,83.4921875,54.0,96.0
314,83.3921875,83.73750000000001,59.0,106.0
315,83.3921875,83.97968750000001,63.0,100.0
316,83.3921875,83.97968750000001,66.0,98.0
317,83.7671875,84.071875,47.0,95.0
318,84.1421875,84.403125,59.0,97.0
319,84.1421875,84.578125,66.0,96.0
320,84.1421875,84.6140625,63.0,96.0
321,84.5171875,84.7234375,59.0,94.0
322,84.1421875,85.03437500000001,47.0,95.0
323,84.1421875,85.0484375,54.0,91.0
324,84.8921875,85.0546875,59.0,100.0
325,84.8921875,85.10000000000001,63.0,100.0
326,84.8921875,85.140625,66.0,97.0
327,85.2671875,85.36875,47.0,102.0
328,85.6421875,86.0484375,65.0,95.0
329,85.6421875,86.19062500000001,61.0,94.0
330,86.3921875,86.5328125,65.0,111.0
331,86.3921875,86.5828125,61.0,102.0
332,85.6421875,86.93593750000001,49.0,96.0
333,86.7671875,86.9390625,63.0,104.0
334,86.0171875,86.97187500000001,56.0,96.0
335,86.9546875,87.165625,65.0,104.0
336,87.1421875,87.53750000000001,63.0,109.0
337,87.5171875,87.77187500000001,61.0,95.0
338,87.5171875,88.028125,56.0,86.0
339,87.1421875,88.071875,49.0,102.0
340,87.8921875,88.30625,61.0,106.0
341,88.2671875,88.390625,49.0,98.0
342,87.8921875,88.496875,65.0,104.0
343,88.4546875,88.6890625,61.0,99.0
344,89.0171875,89.50312500000001,51.0,95.0
345,89.3921875,89.6578125,56.0,92.0
346,89.3921875,89.77656250000001,59.0,97.0
347,88.6421875,89.8328125,44.0,97.0
348,89.3921875,90.03750000000001,63.0,97.0
349,89.7671875,90.11875,51.0,97.0
350,90.1421875,90.3453125,63.0,92.0
351,90.1421875,90.66875,68.0,96.0
352,90.1421875,90.7265625,56.0,91.0
353,90.8921875,90.95,56.0,93.0
354,90.5171875,90.9890625,51.0,94.0
355,90.1421875,91.10625,44.0,97.0
356,90.8921875,91.27656250000001,59.0,101.0
357,91.2671875,91.3953125,56.0,98.0
358,90.8921875,91.52187500000001,63.0,101.0
359,91.6421875,92.228125,61.0,94.0
360,91.6421875,92.484375,58.0,90.0
361,92.3921875,92.79531250000001,61.0,98.0
362,92.3921875,92.825,65.0,101.0
363,91.6421875,93.0046875,46.0,95.0
364,92.0171875,93.04375,53.0,95.0
365,92.7671875,93.0625,58.0,100.0
366,93.1421875,93.6328125,61.0,95.0
367,93.1421875,93.77656250000001,58.0,96.0
368,93.8921875,93.984375,58.0,92.0
369,93.5171875,94.00625000000001,53.0,93.0
370,93.1421875,94.01093750000001,46.0,96.0
371,93.8921875,94.2984375,65.0,97.0
372,93.8921875,94.309375,61.0,100.0
373,94.2671875,94.57343750000001,58.0,104.0
374,94.6421875,95.19375000000001,59.0,95.0
375,94.6421875,95.25312500000001,63.0,95.0
376,95.3921875,95.559375,59.0,99.0
377,95.0171875,95.64375000000001,54.0,89.0
378,95.3921875,95.83125000000001,63.0,97.0
379,95.3921875,95.83437500000001,66.0,95.0
380,94.6421875,96.025,47.0,104.0
381,95.7671875,96.08125000000001,59.0,101.0
382,96.1421875,96.74062500000001,59.0,95.0
383,96.1421875,96.76406250000001,63.0,96.0
384,96.8921875,96.96875,59.0,75.0
385,96.8921875,96.9734375,63.0,92.0
386,96.1421875,97.23281250000001,47.0,97.0
387,96.5171875,97.259375,54.0,95.0
388,96.8921875,97.29531250000001,66.0,98.0
389,97.2671875,97.63125000000001,63.0,99.0
390,97.6421875,98.0484375,61.0,95.0
391,98.2046875,98.328125,61.0,109.0
392,98.0171875,98.54375,56.0,99.0
393,98.3921875,98.571875,63.0,97.0
394,98.5796875,98.84218750000001,61.0,101.0
395,97.6421875,98.9140625,49.0,98.0
396,98.7671875,99.0015625,56.0,97.0
397,98.9546875,99.07656250000001,61.0,98.0
398,99.1421875,99.3765625,61.0,106.0
399,99.1421875,99.39375000000001,65.0,112.0
400,99.5171875,99.65,61.0,109.0
401,99.7046875,99.78125,61.0,92.0
402,99.7046875,99.78750000000001,68.0,97.0
403,99.3296875,99.81875000000001,56.0,101.0
404,99.8921875,100.025,56.0,101.0
405,99.1421875,100.03750000000001,49.0,101.0
406,100.0796875,100.15625,49.0,91.0
407,100.0796875,100.15625,56.0,92.0
408,99.8921875,100.1875,61.0,121.0
409,99.8921875,100.19843750000001,68.0,104.0
410,100.2671875,100.35468750000001,49.0,97.0
411,100.2671875,100.5515625,61.0,112.0
412,100.6421875,101.0859375,63.0,97.0
413,100.6421875,101.09218750000001,66.0,102.0
414,101.3921875,101.56875000000001,70.0,98.0
415,101.3921875,101.5796875,63.0,98.0
416,101.7671875,101.92500000000001,66.0,100.0
417,101.0171875,101.978125,58.0,95.0
418,100.6421875,102.01093750000001,51.0,100.0
419,101.9546875,102.0671875,63.0,96.0
420,102.1421875,102.48125,75.0,100.0
421,102.1421875,102.55312500000001,63.0,96.0
422,102.5171875,102.9734375,58.0,91.0
423,102.1421875,103.04531250000001,51.0,98.0
424,102.8921875,103.05781250000001,63.0,97.0
425,102.8921875,103.278125,70.0,96.0
426,102.8921875,103.3015625,66.0,101.0
427,103.2671875,103.3609375,63.0,95.0
428,103.6421875,104.134375,58.0,85.0
429,103.6421875,104.1578125,61.0,83.0
430,104.0171875,104.5,53.0,98.0
431,104.3921875,104.73125,65.0,104.0
432,104.3921875,104.74375,58.0,101.0
433,104.7671875,104.8875,65.0,88.0
434,103.6421875,104.9453125,46.0,95.0
435,104.7671875,105.028125,53.0,92.0
436,104.9546875,105.165625,66.0,84.0
437,105.1421875,105.5,65.0,102.0
438,105.5171875,105.9890625,53.0,97.0
439,105.1421875,106.0546875,46.0,97.0
440,105.8921875,106.06875000000001,58.0,98.0
441,105.8921875,106.15156250000001,61.0,101.0
442,106.2671875,106.3171875,61.0,64.0
443,106.2671875,106.49375,46.0,96.0
444,106.2671875,106.56093750000001,58.0,102.0
445,106.6421875,107.11562500000001,59.0,90.0
446,106.6421875,107.21406250000001,63.0,95.0
447,106.6421875,107.484375,47.0,97.0
448,107.0171875,107.4921875,54.0,96.0
449,107.3921875,107.73750000000001,59.0,106.0
450,107.3921875,107.97968750000001,63.0,100.0
451,107.3921875,107.97968750000001,66.0,98.0
452,107.7671875,108.071875,47.0,95.0
453,108.1421875,108.403125,59.0,97.0
454,108.1421875,108.578125,66.0,96.0
455,108.1421875,108.6140625,63.0,96.0
456,108.5171875,108.7234375,59.0,94.0
457,108.1421875,109.03437500000001,47.0,95.0
458,108.1421875,109.0484375,54.0,91.0
459,108.8921875,109.0546875,59.0,100.0
460,108.8921875,109.10000000000001,63.0,100.0
461,108.8921875,109.140625,66.0,97.0
462,109.2671875,109.36875,47.0,102.0
463,109.6421875,110.0484375,65.0,95.0
464,109.6421875,110.19062500000001,61.0,94.0
465,110.3921875,110.5328125,65.0,111.0
466,110.3921875,110.5828125,61.0,102.0
467,109.6421875,110.93593750000001,49.0,96.0
468,110.7671875,110.9390625,63.0,104.0
469,110.0171875,110.97187500000001,56.0,96.0
470,110.9546875,111.165625,65.0,104.0
471,111.1421875,111.53750000000001,63.0,109.0
472,111.5171875,111.77187500000001,61.0,95.0
473,111.5171875,112.028125,56.0,86.0
474,111.1421875,112.071875,49.0,102.0
475,111.8921875,112.30625,61.0,106.0
476,112.2671875,112.390625,49.0,98.0
477,111.8921875,112.496875,65.0,104.0
478,112.4546875,112.6890625,61.0,99.0
479,113.0171875,113.50312500000001,51.0,95.0
480,113.3921875,113.6578125,56.0,92.0
481,113.3921875,113.77656250000001,59.0,97.0
482,112.6421875,113.8328125,44.0,97.0
483,113.3921875,114.03750000000001,63.0,97.0
484,113.7671875,114.11875,51.0,97.0
485,114.1421875,114.3453125,63.0,92.0
486,114.1421875,114.66875,68.0,96.0
487,114.1421875,114.7265625,56.0,91.0
488,114.8921875,114.95,56.0,93.0
489,114.5171875,114.9890625,51.0,94.0
490,114.1421875,115.10625,44.0,97.0
491,114.8921875,115.27656250000001,59.0,101.0
492,115.2671875,115.3953125,56.0,98.0
493,114.8921875,115.52187500000001,63.0,101.0
494,115.6421875,116.228125,61.0,94.0
495,115.6421875,116.484375,58.0,90.0
496,116.3921875,116.79531250000001,61.0,98.0
497,116.3921875,116.825,65.0,101.0
498,115.6421875,117.0046875,46.0,95.0
499,116.0171875,117.04375,53.0,95.0
500,116.7671875,117.0625,58.0,100.0
501,117.1421875,117.6328125,61.0,95.0
502,117.1421875,117.77656250000001,58.0,96.0
503,117.8921875,117.984375,58.0,92.0
504,117.5171875,118.00625000000001,53.0,93.0
505,117.1421875,118.01093750000001,46.0,96.0
506,117.8921875,118.2984375,65.0,97.0
507,117.8921875,118.309375,61.0,100.0
508,118.2671875,118.57343750000001,58.0,104.0
509,118.6421875,119.19375000000001,59.0,95.0
510,118.6421875,119.25312500000001,63.0,95.0
511,119.3921875,119.559375,59.0,99.0
512,119.0171875,119.64375000000001,54.0,89.0
513,119.3921875,119.83125000000001,63.0,97.0
514,119.3921875,119.83437500000001,66.0,95.0
515,118.6421875,120.025,47.0,104.0
516,119.7671875,120.08125000000001,59.0,101.0
517,120.1421875,120.74062500000001,59.0,95.0
518,120.1421875,120.76406250000001,63.0,96.0
519,120.8921875,120.96875,59.0,75.0
520,120.8921875,120.9734375,63.0,92.0
521,120.1421875,121.23281250000001,47.0,97.0
522,120.5171875,121.259375,54.0,95.0
523,120.8921875,121.29531250000001,66.0,98.0
524,121.2671875,121.63125000000001,63.0,99.0
525,121.6421875,122.0484375,61.0,95.0
526,122.2046875,122.328125,61.0,109.0
527,122.0171875,122.54375,56.0,99.0
528,122.3921875,122.571875,63.0,97.0
529,122.5796875,122.84218750000001,61.0,101.0
530,121.6421875,122.9140625,49.0,98.0
531,122.7671875,123.0015625,56.0,97.0
532,122.9546875,123.07656250000001,61.0,98.0
533,123.1421875,123.65,61.0,94.0
534,123.1421875,123.671875,65.0,100.0
535,123.5171875,124.0,56.0,92.0
536,123.8921875,124.6875,68.0,98.0
537,123.8921875,124.69843750000001,61.0,98.0
538,124.6734375,124.69843750000001,61.0,98.0
539,123.1421875,124.72968750000001,49.0,100.0
540,124.2671875,124.7578125,56.0,90.0
541,124.6375,125.76875000000001,58.0,77.0
542,124.68593750000001,125.965625,46.0,102.0
543,124.75312500000001,126.05625,65.0,97.0
544,126.07343750000001,126.96406250000001,59.0,89.0
545,126.0,127.31093750000001,56.0,91.0
546,126.10000000000001,127.478125,44.0,99.0
547,126.153125,127.62031250000001,63.0,98.0
548,127.59687500000001,128.440625,58.0,95.0
549,127.53437500000001,129.225,54.0,91.0
550,128.7671875,129.55937500000002,58.0,94.0
551,128.3921875,129.728125,61.0,98.0
552,129.5171875,130.034375,54.0,93.0
553,129.8921875,130.565625,58.0,100.0
554,129.8921875,130.603125,61.0,99.0
555,127.60781250000001,130.6046875,42.0,99.0
556,129.1421875,130.61406250000002,66.0,94.0
557,130.2671875,130.615625,54.0,97.0
558,128.0171875,130.6328125,49.0,96.0
559,131.0171875,131.5109375,49.0,89.0
560,131.3921875,131.8921875,58.0,100.0
561,131.7671875,132.296875,49.0,79.0
562,132.1421875,132.953125,54.0,100.0
563,132.5171875,133.190625,49.0,88.0
564,130.6421875,133.259375,42.0,100.0
565,132.1421875,133.3265625,61.0,98.0
566,133.2671875,133.503125,54.0,97.0
567,132.8921875,133.990625,66.0,97.0
568,134.0171875,134.484375,58.0,92.0
569,134.3921875,135.175,63.0,98.0
570,134.7671875,135.328125,58.0,97.0
571,135.1421875,135.75468750000002,70.0,98.0
572,135.5171875,135.9484375,63.0,96.0
573,133.6421875,136.2515625,51.0,101.0
574,135.8921875,136.6828125,68.0,97.0
575,136.6421875,137.4984375,66.0,97.0
576,137.3921875,137.77812500000002,59.0,97.0
577,137.7671875,138.25625,63.0,97.0
578,137.0171875,138.31875,54.0,97.0
579,138.8921875,138.9859375,63.0,40.0
580,136.6421875,139.1109375,47.0,97.0
581,138.5171875,139.14375,54.0,87.0
582,138.1421875,139.2828125,66.0,99.0
583,138.8921875,139.2875,59.0,99.0
584,139.2671875,139.37187500000002,63.0,97.0
585,139.6421875,140.44375,61.0,97.0
586,140.3921875,140.8375,65.0,103.0
587,140.7671875,141.084375,61.0,98.0
588,140.0171875,141.234375,56.0,93.0
589,141.1421875,141.7109375,61.0,101.0
590,141.1421875,141.80156250000002,68.0,98.0
591,139.6421875,142.05156250000002,49.0,100.0
592,141.5171875,142.08125,56.0,92.0
593,141.8921875,142.15,61.0,98.0
594,142.2671875,142.4046875,49.0,98.0
595,141.8921875,142.55625,66.0,98.0
596,142.6421875,143.19218750000002,59.0,91.0
597,142.6421875,143.4828125,63.0,94.0
598,143.3921875,143.7765625,59.0,102.0
599,143.0171875,144.3390625,54.0,90.0
600,143.7671875,144.9375,63.0,98.0
601,142.6421875,145.259375,47.0,95.0
602,144.8921875,145.2640625,59.0,104.0
603,144.5171875,145.2765625,54.0,82.0
604,144.1421875,145.2875,66.0,95.0
605,145.2671875,145.3859375,63.0,97.0
606,145.6421875,146.1421875,56.0,99.0
607,145.6421875,146.4609375,61.0,96.0
608,146.3921875,146.659375,56.0,106.0
609,146.0171875,146.9,53.0,89.0
610,145.6421875,147.0078125,46.0,97.0
611,146.7671875,147.06875,61.0,98.0
612,147.1421875,147.615625,58.0,93.0
613,147.1421875,147.70000000000002,63.0,96.0
614,147.8921875,148.0328125,58.0,97.0
615,147.5171875,148.23906250000002,54.0,82.0
616,147.1421875,148.26875,51.0,98.0
617,147.8921875,148.353125,63.0,98.0
618,148.2671875,148.5734375,58.0,92.0
619,147.8921875,148.58125,66.0,98.0
620,149.0171875,149.4625,59.0,104.0
621,149.3921875,149.9875,56.0,97.0
622,149.7671875,150.2046875,63.0,92.0
623,150.5171875,150.9515625,63.0,97.0
624,150.1421875,150.95625,68.0,98.0
625,148.6421875,151.1625,44.0,101.0
626,150.8921875,151.2984375,59.0,98.0
627,151.2671875,151.37968750000002,56.0,101.0
628,151.6421875,152.1171875,61.0,93.0
629,151.6421875,152.40625,65.0,99.0
630,152.0171875,152.4984375,56.0,95.0
631,152.3921875,153.0171875,61.0,103.0
632,152.7671875,153.040625,65.0,99.0
633,153.1421875,153.6359375,61.0,97.0
634,153.1421875,153.978125,68.0,92.0
635,153.5171875,154.05,56.0,89.0
636,151.6421875,154.634375,49.0,103.0
637,153.8921875,154.64531250000002,61.0,97.0
638,154.2671875,154.65625,56.0,90.0
639,154.6421875,154.8828125,54.0,99.0
640,154.6421875,155.1640625,58.0,99.0
641,155.7671875,156.2140625,58.0,99.0
642,155.3921875,156.25625000000002,61.0,102.0
643,155.0171875,156.30625,49.0,89.0
644,156.5171875,156.6359375,54.0,95.0
645,156.1421875,156.6671875,66.0,103.0
646,156.5171875,157.0578125,49.0,100.0
647,156.8921875,157.2515625,61.0,104.0
648,154.6421875,157.34062500000002,42.0,100.0
649,157.2671875,157.42656250000002,49.0,102.0
650,156.8921875,157.83437500000002,66.0,106.0
651,158.0171875,158.50625000000002,58.0,98.0
652,158.3921875,158.8703125,66.0,100.0
653,158.3921875,158.9703125,63.0,100.0
654,158.7671875,159.3,58.0,91.0
655,159.1421875,159.659375,63.0,100.0
656,159.1421875,159.6640625,66.0,100.0
657,159.1421875,159.7140625,70.0,99.0
658,159.5171875,160.0078125,58.0,92.0
659,159.8921875,160.0546875,63.0,102.0
660,157.6421875,160.0703125,51.0,105.0
661,159.8921875,160.2734375,66.0,110.0
662,160.2671875,160.65625,63.0,103.0
663,160.6421875,161.42656250000002,66.0,99.0
664,161.3921875,161.88906250000002,59.0,104.0
665,161.7671875,162.0625,63.0,100.0
666,162.1421875,162.328125,59.0,94.0
667,162.1421875,162.55625,63.0,101.0
668,162.5171875,162.80312500000002,59.0,102.0
669,162.1421875,162.921875,66.0,104.0
670,161.0171875,163.0421875,54.0,94.0
671,162.8921875,163.26406250000002,63.0,99.0
672,163.2671875,163.46562500000002,63.0,64.0
673,160.6421875,163.5171875,47.0,103.0
674,163.2671875,163.578125,59.0,108.0
675,163.6421875,164.11875,61.0,95.0
676,163.6421875,164.12968750000002,65.0,101.0
677,164.0171875,164.5234375,56.0,96.0
678,164.3921875,164.853125,61.0,108.0
679,164.7671875,165.05312500000002,63.0,106.0
680,165.1421875,165.328125,61.0,102.0
681,165.1421875,165.484375,65.0,108.0
682,165.5171875,165.821875,61.0,102.0
683,164.7671875,165.86406250000002,56.0,88.0
684,165.8921875,166.1125,61.0,102.0
685,163.6421875,166.23281250000002,49.0,103.0
686,165.8921875,166.3125,68.0,105.0
687,166.2671875,166.62968750000002,61.0,104.0
688,167.0171875,167.5640625,54.0,102.0
689,167.3921875,167.9140625,59.0,105.0
690,167.3921875,168.06718750000002,63.0,100.0
691,168.1421875,168.32500000000002,59.0,92.0
692,167.7671875,168.40312500000002,54.0,91.0
693,168.1421875,168.5890625,66.0,99.0
694,168.1421875,168.63906250000002,63.0,99.0
695,168.5171875,168.784375,59.0,99.0
696,166.6421875,169.01250000000002,47.0,106.0
697,168.8921875,169.2359375,59.0,99.0
698,168.8921875,169.37187500000002,66.0,101.0
699,168.8921875,169.52187500000002,63.0,101.0
700,169.2671875,169.5703125,54.0,93.0
701,169.6421875,170.078125,58.0,96.0
702,169.6421875,170.1015625,61.0,99.0
703,170.3921875,170.5328125,58.0,105.0
704,170.3921875,170.703125,65.0,106.0
705,170.0171875,170.9015625,53.0,99.0
706,169.6421875,170.9953125,46.0,102.0
707,170.7671875,171.06718750000002,58.0,100.0
708,171.1421875,171.59843750000002,66.0,101.0
709,171.5171875,171.84843750000002,58.0,100.0
710,171.1421875,172.2609375,51.0,94.0
711,171.8921875,172.26406250000002,65.0,105.0
712,172.2671875,172.359375,63.0,100.0
713,172.6421875,172.69375000000002,61.0,93.0
714,172.6421875,173.2109375,63.0,93.0
715,172.6421875,173.234375,56.0,95.0
716,173.0171875,173.55937500000002,51.0,99.0
717,173.3921875,173.665625,56.0,99.0
718,173.3921875,173.8359375,59.0,104.0
719,173.7671875,174.3359375,51.0,91.0
720,174.1421875,174.61875,63.0,99.0
721,174.1421875,174.6796875,56.0,100.0
722,172.6421875,175.03593750000002,44.0,100.0
723,174.5171875,175.06875000000002,51.0,93.0
724,174.8921875,175.0953125,56.0,101.0
725,174.8921875,175.16875000000002,59.0,106.0
726,174.8921875,175.253125,63.0,102.0
727,175.2671875,175.55156250000002,44.0,99.0
728,175.6421875,175.8140625,56.0,93.0
729,175.6421875,176.0484375,61.0,97.0
730,176.0171875,176.31093750000002,56.0,104.0
731,176.3921875,176.7734375,63.0,106.0
732,175.6421875,176.95156250000002,49.0,105.0
733,176.7671875,176.9625,61.0,100.0
734,177.1421875,177.3046875,56.0,100.0
735,177.5171875,177.721875,56.0,99.0
736,177.1421875,177.74375,65.0,102.0
737,177.8921875,178.07500000000002,56.0,104.0
738,177.8921875,178.3078125,61.0,108.0
739,178.2671875,178.5875,56.0,108.0
740,177.1421875,178.675,49.0,110.0
741,178.6421875,179.0859375,63.0,97.0
742,178.6421875,179.09218750000002,66.0,102.0
743,179.3921875,179.56875000000002,70.0,98.0
744,179.3921875,179.5796875,63.0,98.0
745,179.7671875,179.925,66.0,100.0
746,179.0171875,179.978125,58.0,95.0
747,178.6421875,180.0109375,51.0,100.0
748,179.9546875,180.06718750000002,63.0,96.0
749,180.1421875,180.48125000000002,75.0,100.0
750,180.1421875,180.55312500000002,63.0,96.0
751,180.5171875,180.97343750000002,58.0,91.0
752,180.1421875,181.04531250000002,51.0,98.0
753,180.8921875,181.0578125,63.0,97.0
754,180.8921875,181.27812500000002,70.0,96.0
755,180.8921875,181.30156250000002,66.0,101.0
756,181.2671875,181.3609375,63.0,95.0
757,181.6421875,182.134375,58.0,85.0
758,181.6421875,182.1578125,61.0,83.0
759,182.0171875,182.5,53.0,98.0
760,182.3921875,182.73125000000002,65.0,104.0
761,182.3921875,182.74375,58.0,101.0
762,182.7671875,182.88750000000002,65.0,88.0
763,181.6421875,182.9453125,46.0,95.0
764,182.7671875,183.02812500000002,53.0,92.0
765,182.9546875,183.165625,66.0,84.0
766,183.1421875,183.5,65.0,102.0
767,183.5171875,183.98906250000002,53.0,97.0
768,183.1421875,184.0546875,46.0,97.0
769,183.8921875,184.06875000000002,58.0,98.0
770,183.8921875,184.1515625,61.0,101.0
771,184.2671875,184.31718750000002,61.0,64.0
772,184.2671875,184.49375,46.0,96.0
773,184.2671875,184.56093750000002,58.0,102.0
774,184.6421875,185.11562500000002,59.0,90.0
775,184.6421875,185.2140625,63.0,95.0
776,184.6421875,185.484375,47.0,97.0
777,185.0171875,185.4921875,54.0,96.0
778,185.3921875,185.7375,59.0,106.0
779,185.3921875,185.9796875,63.0,100.0
780,185.3921875,185.9796875,66.0,98.0
781,185.7671875,186.071875,47.0,95.0
782,186.1421875,186.40312500000002,59.0,97.0
783,186.1421875,186.578125,66.0,96.0
784,186.1421875,186.61406250000002,63.0,96.0
785,186.5171875,186.72343750000002,59.0,94.0
786,186.1421875,187.034375,47.0,95.0
787,186.1421875,187.0484375,54.0,91.0
788,186.8921875,187.0546875,59.0,100.0
789,186.8921875,187.10000000000002,63.0,100.0
790,186.8921875,187.140625,66.0,97.0
791,187.2671875,187.36875,47.0,102.0
792,187.6421875,188.0484375,65.0,95.0
793,187.6421875,188.190625,61.0,94.0
794,188.3921875,188.5328125,65.0,111.0
795,188.3921875,188.58281250000002,61.0,102.0
796,187.6421875,188.93593750000002,49.0,96.0
797,188.7671875,188.9390625,63.0,104.0
798,188.0171875,188.971875,56.0,96.0
799,188.9546875,189.165625,65.0,104.0
800,189.1421875,189.53750000000002,63.0,109.0
801,189.5171875,189.77187500000002,61.0,95.0
802,189.5171875,190.02812500000002,56.0,86.0
803,189.1421875,190.071875,49.0,102.0
804,189.8921875,190.30625,61.0,106.0
805,190.2671875,190.390625,49.0,98.0
806,189.8921875,190.49687500000002,65.0,104.0
807,190.4546875,190.6890625,61.0,99.0
808,191.0171875,191.503125,51.0,95.0
809,191.3921875,191.6578125,56.0,92.0
810,191.3921875,191.7765625,59.0,97.0
811,190.6421875,191.83281250000002,44.0,97.0
812,191.3921875,192.03750000000002,63.0,97.0
813,191.7671875,192.11875,51.0,97.0
814,192.1421875,192.3453125,63.0,92.0
815,192.1421875,192.66875000000002,68.0,96.0
816,192.1421875,192.7265625,56.0,91.0
817,192.8921875,192.95000000000002,56.0,93.0
818,192.5171875,192.98906250000002,51.0,94.0
819,192.1421875,193.10625000000002,44.0,97.0
820,192.8921875,193.2765625,59.0,101.0
821,193.2671875,193.39531250000002,56.0,98.0
822,192.8921875,193.52187500000002,63.0,101.0
823,193.6421875,194.228125,61.0,94.0
824,193.6421875,194.484375,58.0,90.0
825,194.3921875,194.79531250000002,61.0,98.0
826,194.3921875,194.82500000000002,65.0,101.0
827,193.6421875,195.00468750000002,46.0,95.0
828,194.0171875,195.04375000000002,53.0,95.0
829,194.7671875,195.0625,58.0,100.0
830,195.1421875,195.6328125,61.0,95.0
831,195.1421875,195.7765625,58.0,96.0
832,195.8921875,195.984375,58.0,92.0
833,195.5171875,196.00625000000002,53.0,93.0
834,195.1421875,196.0109375,46.0,96.0
835,195.8921875,196.2984375,65.0,97.0
836,195.8921875,196.30937500000002,61.0,100.0
837,196.2671875,196.5734375,58.0,104.0
838,196.6421875,197.19375000000002,59.0,95.0
839,196.6421875,197.253125,63.0,95.0
840,197.3921875,197.55937500000002,59.0,99.0
841,197.0171875,197.64375,54.0,89.0
842,197.3921875,197.83125,63.0,97.0
843,197.3921875,197.83437500000002,66.0,95.0
844,196.6421875,198.025,47.0,104.0
845,197.7671875,198.08125,59.0,101.0
846,198.1421875,198.74062500000002,59.0,95.0
847,198.1421875,198.76406250000002,63.0,96.0
848,198.8921875,198.96875,59.0,75.0
849,198.8921875,198.97343750000002,63.0,92.0
850,198.1421875,199.23281250000002,47.0,97.0
851,198.5171875,199.259375,54.0,95.0
852,198.8921875,199.29531250000002,66.0,98.0
853,199.2671875,199.63125000000002,63.0,99.0
854,199.6421875,200.0484375,61.0,95.0
855,200.2046875,200.328125,61.0,109.0
856,200.0171875,200.54375000000002,56.0,99.0
857,200.3921875,200.571875,63.0,97.0
858,200.5796875,200.84218750000002,61.0,101.0
859,199.6421875,200.9140625,49.0,98.0
860,200.7671875,201.0015625,56.0,97.0
861,200.9546875,201.07656250000002,61.0,98.0
862,201.1421875,201.3765625,61.0,106.0
863,201.1421875,201.39375,65.0,112.0
864,201.5171875,201.65,61.0,109.0
865,201.7046875,201.78125,61.0,92.0
866,201.7046875,201.78750000000002,68.0,97.0
867,201.3296875,201.81875000000002,56.0,101.0
868,201.8921875,202.025,56.0,101.0
869,201.1421875,202.03750000000002,49.0,101.0
870,202.0796875,202.15625,49.0,91.0
871,202.0796875,202.15625,56.0,92.0
872,201.8921875,202.1875,61.0,121.0
873,201.8921875,202.1984375,68.0,104.0
874,202.2671875,202.3546875,49.0,97.0
875,202.2671875,202.55156250000002,61.0,112.0
876,202.6421875,203.0859375,63.0,97.0
877,202.6421875,203.09218750000002,66.0,102.0
878,203.3921875,203.56875000000002,70.0,98.0
879,203.3921875,203.5796875,63.0,98.0
880,203.7671875,203.925,66.0,100.0
881,203.0171875,203.978125,58.0,95.0
882,202.6421875,204.0109375,51.0,100.0
883,203.9546875,204.06718750000002,63.0,96.0
884,204.1421875,204.48125000000002,75.0,100.0
885,204.1421875,204.55312500000002,63.0,96.0
886,204.5171875,204.97343750000002,58.0,91.0
887,204.1421875,205.04531250000002,51.0,98.0
888,204.8921875,205.0578125,63.0,97.0
889,204.8921875,205.27812500000002,70.0,96.0
890,204.8921875,205.30156250000002,66.0,101.0
891,205.2671875,205.3609375,63.0,95.0
892,205.6421875,206.134375,58.0,85.0
893,205.6421875,206.1578125,61.0,83.0
894,206.0171875,206.5,53.0,98.0
895,206.3921875,206.73125000000002,65.0,104.0
896,206.3921875,206.74375,58.0,101.0
897,206.7671875,206.88750000000002,65.0,88.0
898,205.6421875,206.9453125,46.0,95.0
899,206.7671875,207.02812500000002,53.0,92.0
900,206.9546875,207.165625,66.0,84.0
901,207.1421875,207.5,65.0,102.0
902,207.5171875,207.98906250000002,53.0,97.0
903,207.1421875,208.0546875,46.0,97.0
904,207.8921875,208.06875000000002,58.0,98.0
905,207.8921875,208.1515625,61.0,101.0
906,208.2671875,208.31718750000002,61.0,64.0
907,208.2671875,208.49375,46.0,96.0
908,208.2671875,208.56093750000002,58.0,102.0
909,208.6421875,209.11562500000002,59.0,90.0
910,208.6421875,209.2140625,63.0,95.0
911,208.6421875,209.484375,47.0,97.0
912,209.0171875,209.4921875,54.0,96.0
913,209.3921875,209.7375,59.0,106.0
914,209.3921875,209.9796875,63.0,100.0
915,209.3921875,209.9796875,66.0,98.0
916,209.7671875,210.071875,47.0,95.0
917,210.1421875,210.40312500000002,59.0,97.0
918,210.1421875,210.578125,66.0,96.0
919,210.1421875,210.61406250000002,63.0,96.0
920,210.5171875,210.72343750000002,59.0,94.0
921,210.1421875,211.034375,47.0,95.0
922,210.1421875,211.0484375,54.0,91.0
923,210.8921875,211.0546875,59.0,100.0
924,210.8921875,211.10000000000002,63.0,100.0
925,210.8921875,211.140625,66.0,97.0
926,211.2671875,211.36875,47.0,102.0
927,211.6421875,212.0484375,65.0,95.0
928,211.6421875,212.190625,61.0,94.0
929,212.3921875,212.5328125,65.0,111.0
930,212.3921875,212.58281250000002,61.0,102.0
931,211.6421875,212.93593750000002,49.0,96.0
932,212.7671875,212.9390625,63.0,104.0
933,212.0171875,212.971875,56.0,96.0
934,212.9546875,213.165625,65.0,104.0
935,213.1421875,213.53750000000002,63.0,109.0
936,213.5171875,213.77187500000002,61.0,95.0
937,213.5171875,214.02812500000002,56.0,86.0
938,213.1421875,214.071875,49.0,102.0
939,213.8921875,214.30625,61.0,106.0
940,214.2671875,214.390625,49.0,98.0
941,213.8921875,214.49687500000002,65.0,104.0
942,214.4546875,214.6890625,61.0,99.0
943,215.0171875,215.503125,51.0,95.0
944,215.3921875,215.6578125,56.0,92.0
945,215.3921875,215.7765625,59.0,97.0
946,214.6421875,215.83281250000002,44.0,97.0
947,215.3921875,216.03750000000002,63.0,97.0
948,215.7671875,216.11875,51.0,97.0
949,216.1421875,216.3453125,63.0,92.0
950,216.1421875,216.66875000000002,68.0,96.0
951,216.1421875,216.7265625,56.0,91.0
952,216.8921875,216.95000000000002,56.0,93.0
953,216.5171875,216.98906250000002,51.0,94.0
954,216.1421875,217.10625000000002,44.0,97.0
955,216.8921875,217.2765625,59.0,101.0
956,217.2671875,217.39531250000002,56.0,98.0
957,216.8921875,217.52187500000002,63.0,101.0
958,217.6421875,218.228125,61.0,94.0
959,217.6421875,218.484375,58.0,90.0
960,218.3921875,218.79531250000002,61.0,98.0
961,218.3921875,218.82500000000002,65.0,101.0
962,217.6421875,219.00468750000002,46.0,95.0
963,218.0171875,219.04375000000002,53.0,95.0
964,218.7671875,219.0625,58.0,100.0
965,219.1421875,219.6328125,61.0,95.0
966,219.1421875,219.7765625,58.0,96.0
967,219.8921875,219.984375,58.0,92.0
968,219.5171875,220.00625000000002,53.0,93.0
969,219.1421875,220.0109375,46.0,96.0
970,219.8921875,220.2984375,65.0,97.0
971,219.8921875,220.30937500000002,61.0,100.0
972,220.2671875,220.5734375,58.0,104.0
973,220.6421875,221.19375000000002,59.0,95.0
974,220.6421875,221.253125,63.0,95.0
975,221.3921875,221.55937500000002,59.0,99.0
976,221.0171875,221.64375,54.0,89.0
977,221.3921875,221.83125,63.0,97.0
978,221.3921875,221.83437500000002,66.0,95.0
979,220.6421875,222.025,47.0,104.0
980,221.7671875,222.08125,59.0,101.0
981,222.1421875,222.74062500000002,59.0,95.0
982,222.1421875,222.76406250000002,63.0,96.0
983,222.8921875,222.96875,59.0,75.0
984,222.8921875,222.97343750000002,63.0,92.0
985,222.1421875,223.23281250000002,47.0,97.0
986,222.5171875,223.259375,54.0,95.0
987,222.8921875,223.29531250000002,66.0,98.0
988,223.2671875,223.63125000000002,63.0,99.0
989,223.6421875,224.0484375,61.0,95.0
990,224.2046875,224.328125,61.0,109.0
991,224.0171875,224.54375000000002,56.0,99.0
992,224.3921875,224.571875,63.0,97.0
993,224.5796875,224.84218750000002,61.0,101.0
994,223.6421875,224.9140625,49.0,98.0
995,224.7671875,225.0015625,56.0,97.0
996,224.9546875,225.07656250000002,61.0,98.0
997,225.1421875,225.65,61.0,94.0
998,225.1421875,225.671875,65.0,100.0
999,225.5171875,226.0,56.0,92.0
1000,225.8921875,226.6875,68.0,98.0
1001,225.8921875,226.6984375,61.0,98.0
1002,225.1421875,226.7296875,49.0,100.0
1003,226.2671875,226.7578125,56.0,90.0
1004,226.6421875,227.0859375,63.0,97.0
1005,226.6421875,227.09218750000002,66.0,102.0
1006,227.3921875,227.56875000000002,70.0,98.0
1007,227.3921875,227.5796875,63.0,98.0
1008,227.7671875,227.925,66.0,100.0
1009,227.0171875,227.978125,58.0,95.0
1010,226.6421875,228.0109375,51.0,100.0
1011,227.9546875,228.06718750000002,63.0,96.0
1012,228.1421875,228.48125000000002,75.0,100.0
1013,228.1421875,228.55312500000002,63.0,96.0
1014,228.5171875,228.97343750000002,58.0,91.0
1015,228.1421875,229.04531250000002,51.0,98.0
1016,228.8921875,229.0578125,63.0,97.0
1017,228.8921875,229.27812500000002,70.0,96.0
1018,228.8921875,229.30156250000002,66.0,101.0
1019,229.2671875,229.3609375,63.0,95.0
1020,229.6421875,230.134375,58.0,85.0
1021,229.6421875,230.1578125,61.0,83.0
1022,230.0171875,230.5,53.0,98.0
1023,230.3921875,230.73125000000002,65.0,104.0
1024,230.3921875,230.74375,58.0,101.0
1025,230.7671875,230.88750000000002,65.0,88.0
1026,229.6421875,230.9453125,46.0,95.0
1027,230.7671875,231.02812500000002,53.0,92.0
1028,230.9546875,231.165625,66.0,84.0
1029,231.1421875,231.5,65.0,102.0
1030,231.5171875,231.98906250000002,53.0,97.0
1031,231.1421875,232.0546875,46.0,97.0
1032,231.8921875,232.06875000000002,58.0,98.0
1033,231.8921875,232.1515625,61.0,101.0
1034,232.2671875,232.31718750000002,61.0,64.0
1035,232.2671875,232.49375,46.0,96.0
1036,232.2671875,232.56093750000002,58.0,102.0
1037,232.6421875,233.11562500000002,59.0,90.0
1038,232.6421875,233.2140625,63.0,95.0
1039,232.6421875,233.484375,47.0,97.0
1040,233.0171875,233.4921875,54.0,96.0
1041,233.3921875,233.7375,59.0,106.0
1042,233.3921875,233.9796875,63.0,100.0
1043,233.3921875,233.9796875,66.0,98.0
1044,233.7671875,234.071875,47.0,95.0
1045,234.1421875,234.40312500000002,59.0,97.0
1046,234.1421875,234.578125,66.0,96.0
1047,234.1421875,234.61406250000002,63.0,96.0
1048,234.5171875,234.72343750000002,59.0,94.0
1049,234.1421875,235.034375,47.0,95.0
1050,234.1421875,235.0484375,54.0,91.0
1051,234.8921875,235.0546875,59.0,100.0
1052,234.8921875,235.10000000000002,63.0,100.0
1053,234.8921875,235.140625,66.0,97.0
1054,235.2671875,235.36875,47.0,102.0
1055,235.6421875,236.0484375,65.0,95.0
1056,235.6421875,236.190625,61.0,94.0
1057,236.3921875,236.5328125,65.0,111.0
1058,236.3921875,236.58281250000002,61.0,102.0
1059,235.6421875,236.93593750000002,49.0,96.0
1060,236.7671875,236.9390625,63.0,104.0
1061,236.0171875,236.971875,56.0,96.0
1062,236.9546875,237.165625,65.0,104.0
1063,237.1421875,237.53750000000002,63.0,109.0
1064,237.5171875,237.77187500000002,61.0,95.0
1065,237.5171875,238.02812500000002,56.0,86.0
1066,237.1421875,238.071875,49.0,102.0
1067,237.8921875,238.30625,61.0,106.0
1068,238.2671875,238.390625,49.0,98.0
1069,237.8921875,238.49687500000002,65.0,104.0
1070,238.4546875,238.6890625,61.0,99.0
1071,239.0171875,239.503125,51.0,95.0
1072,239.3921875,239.6578125,56.0,92.0
1073,239.3921875,239.7765625,59.0,97.0
1074,238.6421875,239.83281250000002,44.0,97.0
1075,239.3921875,240.03750000000002,63.0,97.0
1076,239.7671875,240.11875,51.0,97.0
1077,240.1421875,240.3453125,63.0,92.0
1078,240.1421875,240.66875000000002,68.0,96.0
1079,240.1421875,240.7265625,56.0,91.0
1080,240.8921875,240.95000000000002,56.0,93.0
1081,240.5171875,240.98906250000002,51.0,94.0
1082,240.1421875,241.10625000000002,44.0,97.0
1083,240.8921875,241.2765625,59.0,101.0
1084,241.2671875,241.39531250000002,56.0,98.0
1085,240.8921875,241.52187500000002,63.0,101.0
1086,241.6421875,242.228125,61.0,94.0
1087,241.6421875,242.484375,58.0,90.0
1088,242.3921875,242.79531250000002,61.0,98.0
1089,242.3921875,242.82500000000002,65.0,101.0
1090,241.6421875,243.00468750000002,46.0,95.0
1091,242.0171875,243.04375000000002,53.0,95.0
1092,242.7671875,243.0625,58.0,100.0
1093,243.1421875,243.6328125,61.0,95.0
1094,243.1421875,243.7765625,58.0,96.0
1095,243.8921875,243.984375,58.0,92.0
1096,243.5171875,244.00625000000002,53.0,93.0
1097,243.1421875,244.0109375,46.0,96.0
1098,243.8921875,244.2984375,65.0,97.0
1099,243.8921875,244.30937500000002,61.0,100.0
1100,244.2671875,244.5734375,58.0,104.0
1101,244.6421875,245.19375000000002,59.0,95.0
1102,244.6421875,245.253125,63.0,95.0
1103,245.3921875,245.55937500000002,59.0,99.0
1104,245.0171875,245.64375,54.0,89.0
1105,245.3921875,245.83125,63.0,97.0
1106,245.3921875,245.83437500000002,66.0,95.0
1107,244.6421875,246.025,47.0,104.0
1108,245.7671875,246.08125,59.0,101.0
1109,246.1421875,246.74062500000002,59.0,95.0
1110,246.1421875,246.76406250000002,63.0,96.0
1111,246.8921875,246.96875,59.0,75.0
1112,246.8921875,246.97343750000002,63.0,92.0
1113,246.1421875,247.23281250000002,47.0,97.0
1114,246.5171875,247.259375,54.0,95.0
1115,246.8921875,247.29531250000002,66.0,98.0
1116,247.2671875,247.63125000000002,63.0,99.0
1117,247.6421875,248.0484375,61.0,95.0
1118,248.2046875,248.328125,61.0,109.0
1119,248.0171875,248.54375000000002,56.0,99.0
1120,248.3921875,248.571875,63.0,97.0
1121,248.5796875,248.84218750000002,61.0,101.0
1122,247.6421875,248.9140625,49.0,98.0
1123,248.7671875,249.0015625,56.0,97.0
1124,248.9546875,249.07656250000002,61.0,98.0
1125,249.1421875,249.3765625,61.0,106.0
1126,249.1421875,249.39375,65.0,112.0
1127,249.5171875,249.65,61.0,109.0
1128,249.7046875,249.78125,61.0,92.0
1129,249.7046875,249.78750000000002,68.0,97.0
1130,249.3296875,249.81875000000002,56.0,101.0
1131,249.8921875,250.025,56.0,101.0
1132,249.1421875,250.03750000000002,49.0,101.0
1133,250.0796875,250.15625,49.0,91.0
1134,250.0796875,250.15625,56.0,92.0
1135,249.8921875,250.1875,61.0,121.0
1136,249.8921875,250.1984375,68.0,104.0
1137,250.2671875,250.3546875,49.0,97.0
1138,250.2671875,250.55156250000002,61.0,112.0
1139,250.6421875,251.0859375,63.0,97.0
1140,250.6421875,251.09218750000002,66.0,102.0
1141,251.3921875,251.56875000000002,70.0,98.0
1142,251.3921875,251.5796875,63.0,98.0
1143,251.7671875,251.925,66.0,100.0
1144,251.0171875,251.978125,58.0,95.0
1145,250.6421875,252.0109375,51.0,100.0
1146,251.9546875,252.06718750000002,63.0,96.0
1147,252.1421875,252.48125000000002,75.0,100.0
1148,252.1421875,252.55312500000002,63.0,96.0
1149,252.5171875,252.97343750000002,58.0,91.0
1150,252.1421875,253.04531250000002,51.0,98.0
1151,252.8921875,253.0578125,63.0,97.0
1152,252.8921875,253.27812500000002,70.0,96.0
1153,252.8921875,253.30156250000002,66.0,101.0
1154,253.2671875,253.3609375,63.0,95.0
1155,253.6421875,254.134375,58.0,85.0
1156,253.6421875,254.1578125,61.0,83.0
1157,254.0171875,254.5,53.0,98.0
1158,254.3921875,254.73125000000002,65.0,104.0
1159,254.3921875,254.74375,58.0,101.0
1160,254.7671875,254.88750000000002,65.0,88.0
1161,253.6421875,254.9453125,46.0,95.0
1162,254.7671875,255.02812500000002,53.0,92.0
1163,254.9546875,255.165625,66.0,84.0
1164,255.1421875,255.5,65.0,102.0
1165,255.5171875,255.98906250000002,53.0,97.0
1166,255.1421875,256.0546875,46.0,97.0
1167,255.8921875,256.06875,58.0,98.0
1168,255.8921875,256.1515625,61.0,101.0
1169,256.26718750000003,256.3171875,61.0,64.0
1170,256.26718750000003,256.49375000000003,46.0,96.0
1171,256.26718750000003,256.5609375,58.0,102.0
1172,256.64218750000003,257.115625,59.0,90.0
1173,256.64218750000003,257.2140625,63.0,95.0
1174,256.64218750000003,257.484375,47.0,97.0
1175,257.01718750000003,257.4921875,54.0,96.0
1176,257.39218750000003,257.7375,59.0,106.0
1177,257.39218750000003,257.9796875,63.0,100.0
1178,257.39218750000003,257.9796875,66.0,98.0
1179,257.76718750000003,258.07187500000003,47.0,95.0
1180,258.14218750000003,258.403125,59.0,97.0
1181,258.14218750000003,258.578125,66.0,96.0
1182,258.14218750000003,258.6140625,63.0,96.0
1183,258.51718750000003,258.7234375,59.0,94.0
1184,258.14218750000003,259.034375,47.0,95.0
1185,258.14218750000003,259.04843750000003,54.0,91.0
1186,258.89218750000003,259.0546875,59.0,100.0
1187,258.89218750000003,259.1,63.0,100.0
1188,258.89218750000003,259.140625,66.0,97.0
1189,259.26718750000003,259.36875000000003,47.0,102.0
1190,259.64218750000003,260.04843750000003,65.0,95.0
1191,259.64218750000003,260.190625,61.0,94.0
1192,260.39218750000003,260.53281250000003,65.0,111.0
1193,260.39218750000003,260.5828125,61.0,102.0
1194,259.64218750000003,260.9359375,49.0,96.0
1195,260.76718750000003,260.93906250000003,63.0,104.0
1196,260.01718750000003,260.971875,56.0,96.0
1197,260.95468750000003,261.16562500000003,65.0,104.0
1198,261.14218750000003,261.5375,63.0,109.0
1199,261.51718750000003,261.771875,61.0,95.0
1200,261.51718750000003,262.028125,56.0,86.0
1201,261.14218750000003,262.07187500000003,49.0,102.0
1202,261.89218750000003,262.30625000000003,61.0,106.0
1203,262.26718750000003,262.390625,49.0,98.0
1204,261.89218750000003,262.496875,65.0,104.0
1205,262.45468750000003,262.68906250000003,61.0,99.0
1206,263.01718750000003,263.503125,51.0,95.0
1207,263.39218750000003,263.65781250000003,56.0,92.0
1208,263.39218750000003,263.7765625,59.0,97.0
1209,262.64218750000003,263.8328125,44.0,97.0
1210,263.39218750000003,264.0375,63.0,97.0
1211,263.76718750000003,264.11875000000003,51.0,97.0
1212,264.14218750000003,264.34531250000003,63.0,92.0
1213,264.14218750000003,264.66875,68.0,96.0
1214,264.14218750000003,264.7265625,56.0,91.0
1215,264.89218750000003,264.95,56.0,93.0
1216,264.51718750000003,264.9890625,51.0,94.0
1217,264.14218750000003,265.10625,44.0,97.0
1218,264.89218750000003,265.2765625,59.0,101.0
1219,265.26718750000003,265.3953125,56.0,98.0
1220,264.89218750000003,265.521875,63.0,101.0
1221,265.64218750000003,266.22812500000003,61.0,94.0
1222,265.64218750000003,266.484375,58.0,90.0
1223,266.39218750000003,266.7953125,61.0,98.0
1224,266.39218750000003,266.825,65.0,101.0
1225,265.64218750000003,267.0046875,46.0,95.0
1226,266.01718750000003,267.04375,53.0,95.0
1227,266.76718750000003,267.0625,58.0,100.0
1228,267.14218750000003,267.6328125,61.0,95.0
1229,267.14218750000003,267.7765625,58.0,96.0
1230,267.89218750000003,267.984375,58.0,92.0
1231,267.51718750000003,268.00625,53.0,93.0
1232,267.14218750000003,268.0109375,46.0,96.0
1233,267.89218750000003,268.29843750000003,65.0,97.0
1234,267.89218750000003,268.309375,61.0,100.0
1235,268.26718750000003,268.5734375,58.0,104.0
1236,268.64218750000003,269.19375,59.0,95.0
1237,268.64218750000003,269.253125,63.0,95.0
1238,269.39218750000003,269.559375,59.0,99.0
1239,269.01718750000003,269.64375,54.0,89.0
1240,269.39218750000003,269.83125,63.0,97.0
1241,269.39218750000003,269.834375,66.0,95.0
1242,268.64218750000003,270.02500000000003,47.0,104.0
1243,269.76718750000003,270.08125,59.0,101.0
1244,270.14218750000003,270.740625,59.0,95.0
1245,270.14218750000003,270.7640625,63.0,96.0
1246,270.89218750000003,270.96875,59.0,75.0
1247,270.89218750000003,270.9734375,63.0,92.0
1248,270.14218750000003,271.2328125,47.0,97.0
1249,270.51718750000003,271.25937500000003,54.0,95.0
1250,270.89218750000003,271.2953125,66.0,98.0
1251,271.26718750000003,271.63125,63.0,99.0
1252,271.64218750000003,272.04843750000003,61.0,95.0
1253,272.20468750000003,272.328125,61.0,109.0
1254,272.01718750000003,272.54375,56.0,99.0
1255,272.39218750000003,272.57187500000003,63.0,97.0
1256,272.57968750000003,272.8421875,61.0,101.0
1257,271.64218750000003,272.9140625,49.0,98.0
1258,272.76718750000003,273.00156250000003,56.0,97.0
1259,272.95468750000003,273.0765625,61.0,98.0
1260,273.14218750000003,273.65000000000003,61.0,94.0
1261,273.14218750000003,273.671875,65.0,100.0
1262,273.51718750000003,274.0,56.0,92.0
1263,273.89218750000003,274.6875,68.0,98.0
1264,273.89218750000003,274.6984375,61.0,98.0
1265,274.67343750000003,274.6984375,61.0,98.0
1266,273.14218750000003,274.7296875,49.0,100.0
1267,274.26718750000003,274.7578125,56.0,90.0
1268,274.6375,275.76875,58.0,77.0
1269,274.6859375,275.965625,46.0,102.0
1270,274.753125,276.05625000000003,65.0,97.0
1271,276.0734375,276.9640625,59.0,89.0
1272,276.0,277.3109375,56.0,91.0
1273,276.1,277.47812500000003,44.0,99.0
1274,276.153125,277.6203125,63.0,98.0
1275,278.01718750000003,278.5109375,49.0,89.0
1276,278.39218750000003,278.89218750000003,58.0,100.0
1277,278.76718750000003,279.296875,49.0,79.0
1278,279.14218750000003,279.953125,54.0,100.0
1279,279.51718750000003,280.190625,49.0,88.0
1280,277.64218750000003,280.25937500000003,42.0,100.0
1281,279.14218750000003,280.3265625,61.0,98.0
1282,280.26718750000003,280.503125,54.0,97.0
1283,279.89218750000003,280.990625,66.0,97.0
1284,281.01718750000003,281.484375,58.0,92.0
1285,281.39218750000003,282.175,63.0,98.0
1286,281.76718750000003,282.328125,58.0,97.0
1287,282.14218750000003,282.7546875,70.0,98.0
1288,282.51718750000003,282.9484375,63.0,96.0
1289,280.64218750000003,283.25156250000003,51.0,101.0
1290,282.89218750000003,283.6828125,68.0,97.0
1291,283.64218750000003,284.4984375,66.0,97.0
1292,284.39218750000003,284.778125,59.0,97.0
1293,284.76718750000003,285.25625,63.0,97.0
1294,284.01718750000003,285.31875,54.0,97.0
1295,285.89218750000003,285.98593750000003,63.0,40.0
1296,283.64218750000003,286.11093750000003,47.0,97.0
1297,285.51718750000003,286.14375,54.0,87.0
1298,285.14218750000003,286.28281250000003,66.0,99.0
1299,285.89218750000003,286.2875,59.0,99.0
1300,286.26718750000003,286.371875,63.0,97.0
1301,286.64218750000003,287.44375,61.0,97.0
1302,287.39218750000003,287.83750000000003,65.0,103.0
1303,287.76718750000003,288.084375,61.0,98.0
1304,287.01718750000003,288.234375,56.0,93.0
1305,288.14218750000003,288.7109375,61.0,101.0
1306,288.14218750000003,288.8015625,68.0,98.0
1307,286.64218750000003,289.0515625,49.0,100.0
1308,288.51718750000003,289.08125,56.0,92.0
1309,288.89218750000003,289.15000000000003,61.0,98.0
1310,289.26718750000003,289.4046875,49.0,98.0
1311,288.89218750000003,289.55625000000003,66.0,98.0
1312,289.64218750000003,290.1921875,59.0,91.0
1313,289.64218750000003,290.4828125,63.0,94.0
1314,290.39218750000003,290.7765625,59.0,102.0
1315,290.01718750000003,291.3390625,54.0,90.0
1316,290.76718750000003,291.9375,63.0,98.0
1317,289.64218750000003,292.25937500000003,47.0,95.0
1318,291.89218750000003,292.2640625,59.0,104.0
1319,291.51718750000003,292.2765625,54.0,82.0
1320,291.14218750000003,292.2875,66.0,95.0
1321,292.26718750000003,292.3859375,63.0,97.0
1322,292.64218750000003,293.14218750000003,56.0,99.0
1323,292.64218750000003,293.4609375,61.0,96.0
1324,293.39218750000003,293.659375,56.0,106.0
1325,293.01718750000003,293.90000000000003,53.0,89.0
1326,292.64218750000003,294.0078125,46.0,97.0
1327,293.76718750000003,294.06875,61.0,98.0
1328,294.14218750000003,294.615625,58.0,93.0
1329,294.14218750000003,294.7,63.0,96.0
1330,294.89218750000003,295.03281250000003,58.0,97.0
1331,294.51718750000003,295.2390625,54.0,82.0
1332,294.14218750000003,295.26875,51.0,98.0
1333,294.89218750000003,295.35312500000003,63.0,98.0
1334,295.26718750000003,295.5734375,58.0,92.0
1335,294.89218750000003,295.58125,66.0,98.0
1336,296.39218750000003,296.7375,59.0,88.0
1337,296.01718750000003,296.834375,51.0,77.0
1338,295.64218750000003,297.021875,44.0,84.0
1339,296.76718750000003,297.12656250000003,56.0,83.0
1340,297.14218750000003,297.721875,61.0,82.0
1341,297.51718750000003,297.9875,56.0,75.0
1342,297.14218750000003,298.14218750000003,49.0,83.0
1343,297.89218750000003,298.1765625,65.0,84.0
1344,299.39218750000003,299.8265625,54.0,86.0
1345,299.7859375,300.1875,56.0,93.0
1346,300.1953125,300.684375,58.0,82.0
1347,300.628125,301.0890625,61.0,87.0
1348,299.0109375,301.125,49.0,82.0
1349,298.6234375,301.14218750000003,42.0,83.0
1350,301.096875,301.646875,66.0,83.0
1351,302.06406250000003,303.1453125,70.0,70.0
1352,301.75,303.171875,54.0,62.0
1353,301.928125,303.17343750000003,61.0,68.0
1354,302.1875,303.18125000000003,78.0,63.0
1355,301.97031250000003,303.203125,66.0,69.0
