,start,end,pitch,velocity
0,29.860279187499998,30.092632012499998,75.0,127.0
1,30.2132201875,30.489690637499997,75.0,112.0
2,30.566161187499997,31.191160874999998,75.0,117.0
3,30.9191021875,31.191160874999998,75.0,100.0
4,31.2720431875,31.5191018875,75.0,97.0
5,31.624984187499997,31.9308663875,75.0,97.0
6,31.9779251875,32.6632189625,73.0,100.0
7,33.036748187499995,33.7455713625,71.0,102.0
8,35.5073351875,35.670570399999995,73.0,102.0
9,35.8602761875,36.008805525,73.0,90.0
10,36.2132171875,36.374981812499996,73.0,88.0
11,36.5661581875,36.7573345625,73.0,107.0
12,37.2720401875,37.464687149999996,78.0,107.0
13,37.6249811875,37.932333975,78.0,107.0
14,38.3308631875,38.554392487499996,76.0,99.0
15,39.036745187499996,39.3102744625,75.0,117.0
16,39.3896861875,39.689686037499996,73.0,127.0
17,41.154391187499996,41.323508749999995,76.0,112.0
18,41.5073321875,41.658802699999995,75.0,100.0
19,41.8602731875,42.010273112499995,76.0,117.0
20,42.919096187499996,43.1220372625,80.0,127.0
21,43.2720371875,43.5073311875,80.0,122.0
22,43.8014486875,43.926448625,78.0,122.0
23,44.3308601875,44.576448299999996,76.0,102.0
24,46.0955651875,46.57056495,73.0,102.0
25,46.624976687499995,49.639681062499996,75.0,117.0
26,52.448503187499995,52.636738387499996,76.0,93.0
27,52.801444187499996,52.94703235,76.0,102.0
28,53.1543851875,53.329385099999996,76.0,112.0
29,53.5073261875,53.679384925,76.0,100.0
30,53.8602671875,54.079384725,76.0,102.0
31,54.213208187499994,54.3808551625,78.0,107.0
32,54.566149187499995,54.99409015,80.0,127.0
33,55.2720311875,55.4190899375,80.0,127.0
34,55.6249721875,55.8455603125,80.0,122.0
35,56.330854187499995,56.591148175,82.0,127.0
36,57.3896771875,57.835265199999995,83.0,127.0
37,58.095559187499994,58.3279120125,82.0,127.0
38,58.448500187499995,58.838205875,80.0,127.0
39,59.1543821875,59.6661466375,82.0,127.0
40,59.8602641875,60.929381299999996,75.0,127.0
41,63.7426151875,63.9514386125,76.0,102.0
42,64.0955561875,64.244085525,76.0,112.0
43,64.4484971875,64.60879122499999,76.0,112.0
44,64.8014381875,64.98967338749999,76.0,122.0
45,65.1543791875,65.35879084999999,76.0,122.0
46,65.5073201875,65.82349649999999,78.0,127.0
47,65.8602611875,66.1514375125,80.0,122.0
48,66.5661431875,66.85143716249999,80.0,127.0
49,66.91908418749999,67.4632015625,83.0,97.0
50,67.6249661875,68.05290715,80.0,127.0
51,69.3896711875,69.5720240375,82.0,127.0
52,69.7426121875,69.8867297625,82.0,112.0
53,70.0955531875,70.579376475,82.0,122.0
54,70.80143518749999,71.1161409125,80.0,122.0
55,71.15437618749999,72.0720227875,82.0,122.0
56,74.3308451875,74.5396686125,80.0,122.0
57,74.68378618749999,74.938197825,80.0,117.0
58,75.03672718749999,75.29113882499999,82.0,117.0
59,75.38966818749999,75.649962175,87.0,127.0
60,75.7426091875,76.002903175,82.0,127.0
61,76.0955501875,76.3779029875,80.0,112.0
62,76.4484911875,76.6543734375,82.0,127.0
63,76.8014321875,77.191137875,87.0,127.0
64,77.5073141875,78.1484903375,82.0,127.0
65,79.27201918749999,79.5073131875,80.0,127.0
66,79.6249601875,79.9808423625,78.0,122.0
67,79.9779011875,80.19407755,80.0,127.0
68,80.3308421875,80.5764303,80.0,127.0
69,80.6837831875,80.86466544999999,80.0,127.0
70,81.0367241875,81.21760644999999,78.0,127.0
71,81.3896651875,81.6234886,80.0,127.0
72,81.7426061875,81.9779001875,78.0,117.0
73,82.0955471875,82.38231175,71.0,112.0
74,82.44848818749999,83.1926054625,73.0,122.0
75,83.15437018749999,84.3308401875,75.0,127.0
76,85.2720161875,85.4837807875,75.0,127.0
77,85.6249571875,85.8367217875,76.0,107.0
78,85.9778981875,86.15142751249999,75.0,117.0
79,86.33083918749999,86.51760379999999,76.0,117.0
80,86.68378018749999,86.84701539999999,75.0,127.0
81,87.03672118749999,87.197015225,76.0,112.0
82,87.3896621875,87.6352503,75.0,117.0
83,87.7426031875,87.93083838749999,76.0,112.0
84,88.0955441875,88.6514262625,87.0,127.0
85,88.8014261875,89.97495501249999,82.0,127.0
86,90.91907218749999,91.11760149999999,82.0,102.0
87,91.2720131875,91.45289545,83.0,102.0
88,91.6249541875,91.76465999999999,83.0,100.0
89,91.9778951875,92.10583629999999,83.0,107.0
90,92.3308361875,92.4426008375,83.0,97.0
91,92.6837771875,92.867600625,83.0,117.0
92,93.2131886875,93.5308355875,82.0,127.0
93,93.7426001875,93.973482425,80.0,127.0
94,94.09554118749999,94.61759975,83.0,112.0
95,94.6249526875,96.20730483749999,82.0,112.0
96,96.9190691875,97.12789261249999,80.0,122.0
97,97.2720101875,97.526421825,80.0,117.0
98,97.6249511875,97.879362825,82.0,117.0
99,97.97789218749999,98.238186175,87.0,127.0
100,98.33083318749999,98.591127175,82.0,127.0
101,98.68377418749999,98.96612698749999,80.0,112.0
102,99.0367151875,99.2425974375,82.0,127.0
103,99.3896561875,99.77936187499999,87.0,127.0
104,100.0955381875,100.73671433749999,82.0,127.0
105,101.86024318749999,102.0955371875,80.0,127.0
106,102.21318418749999,102.5690663625,78.0,122.0
107,102.56612518749999,102.78230155,80.0,127.0
108,102.9190661875,103.1646543,80.0,127.0
109,103.2720071875,103.45288945,80.0,127.0
110,103.6249481875,103.80583045,78.0,127.0
111,103.9778891875,104.2117126,80.0,127.0
112,104.3308301875,104.5661241875,78.0,117.0
113,104.6837711875,104.97053575,71.0,112.0
114,105.0367121875,105.51171194999999,73.0,122.0
115,105.3896531875,106.5661231875,75.0,127.0
116,107.8602401875,108.07200478749999,75.0,127.0
117,108.2131811875,108.4249457875,76.0,107.0
118,108.5661221875,108.73965151249999,75.0,117.0
119,108.9190631875,109.1058278,76.0,117.0
120,109.2720041875,109.4352394,75.0,127.0
121,109.62494518749999,109.785239225,76.0,112.0
122,109.97788618749999,110.22347429999999,75.0,117.0
123,110.33082718749999,110.5190623875,76.0,112.0
124,110.6837681875,111.23965026249999,87.0,127.0
125,111.3896501875,112.5631790125,82.0,127.0
126,113.15435518749999,113.42347269999999,82.0,127.0
127,113.50729618749999,113.81611956249999,83.0,102.0
128,113.86023718749999,114.073472375,85.0,127.0
129,114.21317818749999,114.4984721625,88.0,127.0
130,114.5661191875,114.9014131375,87.0,127.0
131,114.9190601875,115.24994237499999,85.0,127.0
132,115.2720011875,115.7602362375,83.0,127.0
133,115.9778831875,116.2072948375,82.0,117.0
134,116.3308241875,116.7720004375,83.0,100.0
135,117.03670618749999,119.4308226375,80.0,117.0
136,139.9778711875,140.2102240125,75.0,127.0
137,140.3308121875,140.6072826375,75.0,112.0
138,140.6837531875,141.30875287499998,75.0,117.0
139,141.0366941875,141.30875287499998,75.0,100.0
140,141.3896351875,141.6366938875,75.0,97.0
141,141.7425761875,142.0484583875,75.0,97.0
142,142.0955171875,142.7808109625,73.0,100.0
143,143.1543401875,143.8631633625,71.0,102.0
144,145.6249271875,145.7881624,73.0,102.0
145,145.9778681875,146.126397525,73.0,90.0
146,146.3308091875,146.49257381249998,73.0,88.0
147,146.68375018749998,146.87492656249998,73.0,107.0
148,147.38963218749998,147.58227915,78.0,107.0
149,147.7425731875,148.04992597499998,78.0,107.0
150,148.4484551875,148.6719844875,76.0,99.0
151,149.1543371875,149.4278664625,75.0,117.0
152,149.5072781875,149.8072780375,73.0,127.0
153,151.27198318749998,151.44110075,76.0,112.0
154,151.6249241875,151.7763947,75.0,100.0
155,151.9778651875,152.1278651125,76.0,117.0
156,153.0366881875,153.2396292625,80.0,127.0
157,153.3896291875,153.6249231875,80.0,122.0
158,153.9190406875,154.04404062499998,78.0,122.0
159,154.44845218749998,154.69404029999998,76.0,102.0
160,156.2131571875,156.68815695,73.0,102.0
161,156.74256868749998,159.7572730625,75.0,117.0
162,162.5660951875,162.7543303875,76.0,93.0
163,162.91903618749998,163.06462435,76.0,102.0
164,163.2719771875,163.4469771,76.0,112.0
165,163.6249181875,163.796976925,76.0,100.0
166,163.9778591875,164.19697672499998,76.0,102.0
167,164.3308001875,164.49844716249999,78.0,107.0
168,164.6837411875,165.11168214999998,80.0,127.0
169,165.38962318749998,165.5366819375,80.0,127.0
170,165.7425641875,165.9631523125,80.0,122.0
171,166.4484461875,166.708740175,82.0,127.0
172,167.5072691875,167.95285719999998,83.0,127.0
173,168.2131511875,168.44550401249998,82.0,127.0
174,168.5660921875,168.955797875,80.0,127.0
175,169.27197418749998,169.7837386375,82.0,127.0
176,169.97785618749998,171.0469733,75.0,127.0
177,173.86020718749998,174.0690306125,76.0,102.0
178,174.2131481875,174.361677525,76.0,112.0
179,174.56608918749998,174.72638322499998,76.0,112.0
180,174.9190301875,175.10726538749998,76.0,122.0
181,175.2719711875,175.47638285,76.0,122.0
182,175.6249121875,175.94108849999998,78.0,127.0
183,175.9778531875,176.2690295125,80.0,122.0
184,176.6837351875,176.9690291625,80.0,127.0
185,177.03667618749998,177.5807935625,83.0,97.0
186,177.74255818749998,178.17049914999998,80.0,127.0
187,179.5072631875,179.6896160375,82.0,127.0
188,179.8602041875,180.00432176249998,82.0,112.0
189,180.2131451875,180.696968475,82.0,122.0
190,180.91902718749998,181.2337329125,80.0,122.0
191,181.2719681875,182.1896147875,82.0,122.0
192,184.4484371875,184.65726061249998,80.0,122.0
193,184.80137818749998,185.055789825,80.0,117.0
194,185.1543191875,185.408730825,82.0,117.0
195,185.50726018749998,185.767554175,87.0,127.0
196,185.8602011875,186.120495175,82.0,127.0
197,186.21314218749998,186.4954949875,80.0,112.0
198,186.5660831875,186.7719654375,82.0,127.0
199,186.91902418749999,187.30872987499998,87.0,127.0
200,187.6249061875,188.2660823375,82.0,127.0
201,189.38961118749998,189.6249051875,80.0,127.0
202,189.7425521875,190.0984343625,78.0,122.0
203,190.09549318749998,190.31166955,80.0,127.0
204,190.4484341875,190.6940223,80.0,127.0
205,190.80137518749999,190.98225745,80.0,127.0
206,191.1543161875,191.33519844999998,78.0,127.0
207,191.5072571875,191.7410806,80.0,127.0
208,191.8601981875,192.09549218749999,78.0,117.0
209,192.2131391875,192.49990375,71.0,112.0
210,192.56608018749998,193.31019746249999,73.0,122.0
211,193.27196218749998,194.4484321875,75.0,127.0
212,195.3896081875,195.6013727875,75.0,127.0
213,195.7425491875,195.95431378749998,76.0,107.0
214,196.0954901875,196.2690195125,75.0,117.0
215,196.44843118749998,196.6351958,76.0,117.0
216,196.8013721875,196.96460739999998,75.0,127.0
217,197.15431318749998,197.314607225,76.0,112.0
218,197.5072541875,197.7528423,75.0,117.0
219,197.86019518749998,198.0484303875,76.0,112.0
220,198.2131361875,198.7690182625,87.0,127.0
221,198.9190181875,200.09254701249998,82.0,127.0
222,201.03666418749998,201.23519349999998,82.0,102.0
223,201.3896051875,201.57048745,83.0,102.0
224,201.74254618749998,201.882252,83.0,100.0
225,202.0954871875,202.2234283,83.0,107.0
226,202.44842818749999,202.56019283749998,83.0,97.0
227,202.8013691875,202.985192625,83.0,117.0
228,203.33078068749998,203.64842758749998,82.0,127.0
229,203.8601921875,204.091074425,80.0,127.0
230,204.21313318749998,204.73519174999998,83.0,112.0
231,204.7425446875,206.32489683749998,82.0,112.0
232,207.0366611875,207.24548461249998,80.0,122.0
233,207.3896021875,207.644013825,80.0,117.0
234,207.7425431875,207.996954825,82.0,117.0
235,208.09548418749998,208.35577817499998,87.0,127.0
236,208.4484251875,208.708719175,82.0,127.0
237,208.80136618749998,209.0837189875,80.0,112.0
238,209.1543071875,209.3601894375,82.0,127.0
239,209.50724818749998,209.89695387499998,87.0,127.0
240,210.21313018749998,210.8543063375,82.0,127.0
241,211.97783518749998,212.2131291875,80.0,127.0
242,212.3307761875,212.6866583625,78.0,122.0
243,212.68371718749998,212.89989355,80.0,127.0
244,213.0366581875,213.2822463,80.0,127.0
245,213.38959918749998,213.57048145,80.0,127.0
246,213.7425401875,213.92342245,78.0,127.0
247,214.09548118749998,214.3293046,80.0,127.0
248,214.4484221875,214.68371618749998,78.0,117.0
249,214.8013631875,215.08812774999998,71.0,112.0
250,215.1543041875,215.62930394999998,73.0,122.0
251,215.5072451875,216.68371518749998,75.0,127.0
252,217.97783218749998,218.1895967875,75.0,127.0
253,218.3307731875,218.54253778749998,76.0,107.0
254,218.6837141875,218.8572435125,75.0,117.0
255,219.0366551875,219.2234198,76.0,117.0
256,219.3895961875,219.5528314,75.0,127.0
257,219.74253718749998,219.902831225,76.0,112.0
258,220.0954781875,220.3410663,75.0,117.0
259,220.44841918749998,220.6366543875,76.0,112.0
260,220.8013601875,221.3572422625,87.0,127.0
261,221.5072421875,222.6807710125,82.0,127.0
262,223.2719471875,223.5410647,82.0,127.0
263,223.62488818749998,223.93371156249998,83.0,102.0
264,223.9778291875,224.191064375,85.0,127.0
265,224.33077018749998,224.61606416249998,88.0,127.0
266,224.6837111875,225.0190051375,87.0,127.0
267,225.03665218749998,225.367534375,85.0,127.0
268,225.3895931875,225.87782823749998,83.0,127.0
269,226.0954751875,226.3248868375,82.0,117.0
270,226.4484161875,226.8895924375,83.0,100.0
271,227.1542981875,229.5484146375,80.0,117.0
272,232.4484131875,232.6572366125,80.0,122.0
273,232.80135418749998,233.05576582499998,80.0,117.0
274,233.1542951875,233.408706825,82.0,117.0
275,233.50723618749998,233.767530175,87.0,127.0
276,233.8601771875,234.12047117499998,82.0,127.0
277,234.2131181875,234.4954709875,80.0,112.0
278,234.5660591875,234.77194143749998,82.0,127.0
279,234.9190001875,235.308705875,87.0,127.0
280,235.6248821875,236.2660583375,82.0,127.0
281,237.38958718749998,237.6248811875,80.0,127.0
282,237.7425281875,238.09841036249998,78.0,122.0
283,238.0954691875,238.31164554999998,80.0,127.0
284,238.4484101875,238.69399829999998,80.0,127.0
285,238.8013511875,238.98223345,80.0,127.0
286,239.15429218749998,239.33517444999998,78.0,127.0
287,239.5072331875,239.74105659999998,80.0,127.0
288,239.86017418749998,240.0954681875,78.0,117.0
289,240.2131151875,240.49987975,71.0,112.0
290,240.56605618749998,241.04105595,73.0,122.0
291,240.9189971875,242.0954671875,75.0,127.0
292,243.3895841875,243.6013487875,75.0,127.0
293,243.74252518749998,243.9542897875,76.0,107.0
294,244.0954661875,244.2689955125,75.0,117.0
295,244.44840718749998,244.6351718,76.0,117.0
296,244.8013481875,244.96458339999998,75.0,127.0
297,245.15428918749998,245.31458322499998,76.0,112.0
298,245.5072301875,245.7528183,75.0,117.0
299,245.8601711875,246.0484063875,76.0,112.0
300,246.2131121875,246.7689942625,87.0,127.0
301,246.91899418749998,248.09252301249998,82.0,127.0
302,248.6836991875,248.9528167,82.0,127.0
303,249.03664018749998,249.3454635625,83.0,102.0
304,249.3895811875,249.60281637499997,85.0,127.0
305,249.7425221875,250.0278161625,88.0,127.0
306,250.0954631875,250.4307571375,87.0,127.0
307,250.4484041875,250.779286375,85.0,127.0
308,250.80134518749998,251.2895802375,83.0,127.0
309,251.50722718749998,251.73663883749998,82.0,117.0
310,251.8601681875,252.30134443749998,83.0,100.0
311,252.5660501875,254.96016663749998,80.0,117.0
