,start,end,pitch,velocity
0,14.524640625,14.7587954375,83.0,88.0
1,14.947175625,15.5510485625,88.0,89.0
2,15.792245625,16.1109074375,87.0,89.0
3,16.214780625,16.3292171875,88.0,89.0
4,16.426048125,17.2271040625,88.0,89.0
5,17.904920625,18.1742866875,88.0,89.0
6,18.327455625,18.6214695625,88.0,90.0
7,18.749990625,19.19013125,87.0,90.0
8,19.172525625,19.5352015,85.0,90.0
9,19.595060625,19.8925956875,87.0,90.0
10,19.806328125,20.088018125,85.0,90.0
11,20.228863125,21.1179471875,83.0,90.0
12,21.285200624999998,21.764073624999998,83.0,90.0
13,21.707735624999998,21.764073624999998,83.0,90.0
14,22.552805625,22.8925941875,81.0,90.0
15,22.975340625,23.133791249999998,80.0,90.0
16,23.186608125,23.89435425,83.0,90.0
17,24.665480625,24.82393125,83.0,90.0
18,25.088015625,25.382029562499998,83.0,90.0
19,25.510550625,25.95069125,85.0,90.0
20,25.933085625,26.2658319375,78.0,90.0
21,26.355620625,26.4841416875,81.0,90.0
22,26.566888125,26.9242823125,81.0,90.0
23,26.989423125,27.5087890625,80.0,90.0
24,28.045760625,28.38730975,83.0,89.0
25,28.468295625,29.0686474375,88.0,89.0
26,29.313365625,29.7482245625,87.0,89.0
27,29.735900625,29.8785061875,88.0,89.0
28,29.947168125,30.823928249999998,88.0,89.0
29,31.426040625,31.672519375,88.0,89.0
30,31.848575625,32.0985755,88.0,89.0
31,32.271110625,32.5616034375,87.0,88.0
32,32.693645625,32.97885675,88.0,88.0
33,33.116180625,33.2376594375,90.0,88.0
34,33.327448125,33.5897719375,90.0,88.0
35,33.749983125,34.30279975,88.0,88.0
36,34.383785625,34.79575725,88.0,88.0
37,34.806320625,35.0932923125,87.0,88.0
38,35.228855625,35.5263906875,88.0,88.0
39,35.651390625,35.764066625,88.0,88.0
40,35.862658125,36.271108625,88.0,88.0
41,36.496460625,36.6179394375,87.0,88.0
42,36.707728125,37.0087843125,87.0,88.0
43,37.130263125,37.859136,85.0,88.0
44,37.764065625,37.859136,85.0,88.0
45,38.186600625,38.341530125,87.0,88.0
46,38.397868125,38.742938375,85.0,88.0
47,38.820403125,40.72533175,83.0,88.0
48,41.144345625,41.6478665,83.0,86.0
49,41.566880624999996,41.8503311875,88.0,86.0
50,41.989415625,42.573922375,88.0,86.0
51,42.834485625,43.1672319375,80.0,86.0
52,43.257020625,43.54223175,85.0,86.0
53,43.679555625,44.2376539375,85.0,86.0
54,44.524625625,45.0369493125,83.0,86.0
55,44.947160625,45.2693435625,90.0,86.0
56,45.369695625,45.940117875,90.0,86.0
57,46.214765625,46.6707513125,78.0,86.0
58,46.637300625,46.764061125,81.0,86.0
59,46.848568125,47.0932863125,81.0,86.0
60,47.271103124999996,47.9630041875,80.0,86.0
61,48.327440625,48.616172875,83.0,86.0
62,48.749975625,49.0087783125,83.0,86.0
63,49.172510625,49.4489189375,81.0,86.0
64,49.595045625,49.89434125,81.0,86.0
65,50.017580625,50.147862249999996,80.0,86.0
66,50.228848125,50.5510310625,80.0,86.0
67,50.651383125,50.95067875,78.0,86.0
68,51.285185625,51.5897629375,78.0,86.0
69,51.707720625,51.9858895,76.0,86.0
70,52.130255625,52.3820160625,80.0,86.0
71,52.552790625,53.404902875,78.0,85.0
72,53.397860625,53.6355365625,81.0,84.0
73,53.820395624999996,54.4207474375,80.0,84.0
74,54.665465624999996,55.1126485,83.0,84.0
75,55.088000625,55.38729625,88.0,84.0
76,55.510535624999996,56.112648,88.0,84.0
77,56.355605625,56.822154687499996,80.0,83.0
78,56.778140625,57.04926725,85.0,83.0
79,57.200675625,57.4788445,85.0,83.0
80,57.623210625,57.917224562499996,83.0,83.0
81,58.045745625,58.37321025,83.0,83.0
82,58.468280625,58.7341255625,90.0,83.0
83,58.890815625,59.4101815625,90.0,83.0
84,59.313350625,59.5510265625,78.0,83.0
85,59.735885625,59.9876460625,78.0,83.0
86,60.158420625,60.454195125,81.0,83.0
87,60.580955625,61.0228568125,80.0,83.0
88,61.003490625,61.27461725,83.0,83.0
89,61.426025625,61.721800125,83.0,83.0
90,61.848560625,62.112645,92.0,83.0
91,62.271095625,62.73940525,92.0,83.0
92,62.693630625,62.95067275,90.0,83.0
93,63.116165625,63.4066584375,90.0,83.0
94,63.538700625,63.778137125,88.0,83.0
95,63.961235625,64.2446861875,88.0,83.0
96,64.383770625,64.78165775,90.0,83.0
97,64.806305625,65.1003195625,88.0,83.0
98,65.228840625,65.52637568749999,92.0,83.0
99,65.651375625,66.1179246875,92.0,83.0
100,66.285178125,67.341515625,90.0,83.0
101,67.764050625,68.137289875,83.0,83.0
102,68.18658562499999,68.5193319375,88.0,83.0
103,68.609120625,68.75348675,88.0,83.0
104,68.820388125,69.93658475,88.0,83.0
105,70.299260625,70.591514,88.0,83.0
106,70.721795625,71.0158095625,88.0,83.0
107,71.144330625,71.5686261875,87.0,83.0
108,71.566865625,71.73940075,85.0,83.0
109,71.989400625,72.3080624375,83.0,83.0
110,72.411935625,72.7341185625,87.0,83.0
111,72.834470625,73.1672169375,88.0,83.0
112,73.257005625,73.6566533125,90.0,83.0
113,73.89080812499999,74.62672325,88.0,83.0
114,74.524610625,74.883765375,83.0,83.0
115,74.947145625,75.207708875,88.0,83.0
116,75.369680625,75.47707493749999,88.0,83.0
117,75.58094812499999,76.0563,88.0,83.0
118,77.059820625,77.31686275,88.0,83.0
119,77.482355625,77.78341181249999,88.0,83.0
120,77.904890625,78.27460875,87.0,83.0
121,78.327425625,78.52812975,85.0,83.0
122,78.749960625,79.1214393125,83.0,83.0
123,79.172495625,79.7834108125,90.0,83.0
124,79.59503062499999,79.94890368749999,92.0,83.0
125,80.017565625,80.4946780625,93.0,83.0
126,80.651368125,81.19010025,92.0,83.0
127,81.28517062499999,81.834466125,83.0,83.0
128,81.707705625,82.0140435,88.0,83.0
129,82.130240625,82.24291662499999,88.0,83.0
130,82.341508125,82.7587614375,88.0,83.0
131,83.820380625,84.1531269375,88.0,83.0
132,84.242915625,84.5404506875,88.0,83.0
133,84.665450625,85.0404504375,87.0,83.0
134,85.087985625,85.2974925625,85.0,83.0
135,85.510520625,85.841506375,83.0,83.0
136,85.933055625,86.271083625,90.0,83.0
137,86.355590625,86.644322875,88.0,83.0
138,86.778125625,87.08094237499999,87.0,83.0
139,87.200660625,87.3221394375,88.0,83.0
140,87.411928125,88.61263175,88.0,83.0
141,88.890800625,89.07742025,88.0,83.0
142,89.313335625,89.609110125,88.0,83.0
143,89.735870625,90.028124,92.0,83.0
144,90.158405625,90.5017153125,90.0,83.0
145,90.580940625,90.8960813125,88.0,83.0
146,91.003475625,91.3714331875,88.0,83.0
147,91.426010625,91.637278125,87.0,83.0
148,91.848545625,92.34502425,90.0,83.0
149,92.482348125,94.3802345,88.0,83.0
150,94.806290625,95.179529875,83.0,83.0
151,95.228825625,95.5615719375,88.0,83.0
152,95.651360625,95.79572675,88.0,83.0
153,95.862628125,96.97882475,88.0,83.0
154,97.341500625,97.633754,88.0,83.0
155,97.764035625,98.0580495625,88.0,83.0
156,98.186570625,98.6108661875,87.0,83.0
157,98.609105625,98.78164075,85.0,83.0
158,99.031640625,99.3503024375,83.0,83.0
159,99.454175625,99.7763585625,87.0,83.0
160,99.876710625,100.2094569375,88.0,83.0
161,100.299245625,100.6988933125,90.0,83.0
162,100.933048125,101.66896325,88.0,83.0
163,101.566850625,101.926005375,83.0,83.0
164,101.989385625,102.249948875,88.0,83.0
165,102.411920625,102.5193149375,88.0,83.0
166,102.623188125,103.09854,88.0,83.0
167,104.102060625,104.35910275,88.0,83.0
168,104.524595625,104.8256518125,88.0,83.0
169,104.947130625,105.31684875,87.0,83.0
170,105.369665625,105.57036975,85.0,83.0
171,105.79220062499999,106.1636793125,83.0,83.0
172,106.214735625,106.595017125,90.0,83.0
173,106.637270625,106.9911436875,92.0,83.0
174,107.059805625,107.3573406875,93.0,83.0
175,107.48234062499999,107.587974375,92.0,83.0
176,107.693608125,108.2341008125,92.0,83.0
177,108.327410625,108.876706125,83.0,83.0
178,108.749945625,109.05628349999999,88.0,83.0
179,109.17248062499999,109.285156625,88.0,83.0
180,109.383748125,109.8010014375,88.0,83.0
181,110.862620625,111.1953669375,88.0,83.0
182,111.285155625,111.5826906875,88.0,83.0
183,111.707690625,112.0826904375,87.0,83.0
184,112.130225625,112.3397325625,85.0,83.0
185,112.552760625,112.883746375,83.0,83.0
186,112.975295625,113.2974785625,90.0,83.0
187,113.397830625,113.6759995,88.0,83.0
188,113.820365625,114.045717625,90.0,83.0
189,114.242900625,114.3432526875,93.0,83.0
190,114.454168125,114.8186045625,92.0,83.0
191,114.87670312499999,115.7622660625,88.0,83.0
192,115.933040625,116.11966025,88.0,83.0
193,116.355575625,116.651350125,88.0,83.0
194,116.778110625,117.070364,92.0,83.0
195,117.20064562499999,117.5439553125,90.0,83.0
196,117.623180625,117.9383213125,88.0,83.0
197,118.045715625,118.4136731875,88.0,83.0
198,118.468250625,118.679518125,87.0,83.0
199,118.89078562499999,119.38726425,90.0,83.0
200,119.313320625,119.418954375,88.0,83.0
201,119.524588125,120.52810875,88.0,83.0
202,149.313305625,149.6460519375,88.0,83.0
203,149.735840625,149.88020674999999,88.0,83.0
204,149.947108125,151.06330475,88.0,83.0
205,151.425980625,151.718234,88.0,83.0
206,151.848515625,152.1425295625,88.0,83.0
207,152.271050625,152.6953461875,87.0,83.0
208,152.693585625,152.86612075,85.0,83.0
209,153.116120625,153.4347824375,83.0,83.0
210,153.538655625,153.8608385625,87.0,83.0
211,153.961190625,154.2939369375,88.0,83.0
212,154.383725625,154.7833733125,90.0,83.0
213,155.01752812499998,155.75344325,88.0,83.0
214,155.65133062499999,156.010485375,83.0,83.0
215,156.073865625,156.334428875,88.0,84.0
216,156.496400625,156.6037949375,88.0,84.0
217,156.707668125,157.18302,88.0,84.0
218,158.186540625,158.44358275,88.0,85.0
219,158.609075625,158.9101318125,88.0,85.0
220,159.03161062499998,159.40132875,87.0,85.0
221,159.454145625,159.65484975,85.0,85.0
222,159.876680625,160.2481593125,83.0,85.0
223,160.299215625,160.9101308125,90.0,85.0
224,160.721750625,161.07562368749998,92.0,85.0
225,161.144285625,161.6213980625,93.0,85.0
226,161.778088125,162.31682025,92.0,85.0
227,162.41189062499998,162.961186125,83.0,85.0
228,162.834425625,163.1407635,88.0,85.0
229,163.256960625,163.369636625,88.0,85.0
230,163.468228125,163.8854814375,88.0,85.0
231,164.947100625,165.2798469375,88.0,85.0
232,165.369635625,165.6671706875,88.0,86.0
233,165.792170625,166.1671704375,87.0,87.0
234,166.214705625,166.4242125625,85.0,87.0
235,166.637240625,166.968226375,83.0,87.0
236,167.059775625,167.397803625,90.0,88.0
237,167.482310625,167.771042875,88.0,87.0
238,167.904845625,168.20766237499998,87.0,86.0
239,168.327380625,168.4488594375,88.0,87.0
240,168.538648125,169.73935175,88.0,86.0
241,170.017520625,170.20414025,88.0,86.0
242,170.44005562499999,170.735830125,88.0,85.0
243,170.862590625,171.154844,92.0,85.0
244,171.285125625,171.6284353125,90.0,85.0
245,171.707660625,172.0228013125,88.0,85.0
246,172.130195625,172.4981531875,88.0,85.0
247,172.552730625,172.763998125,87.0,85.0
248,172.975265625,173.47174425,90.0,85.0
249,173.609068125,175.5069545,88.0,85.0
250,176.355545625,176.8590665,83.0,84.0
251,176.778080625,177.0615311875,88.0,84.0
252,177.20061562499998,177.785122375,88.0,84.0
253,178.045685625,178.3784319375,80.0,84.0
254,178.468220625,178.75343175,85.0,84.0
255,178.890755625,179.4488539375,85.0,84.0
256,179.735825625,180.2481493125,83.0,84.0
257,180.158360625,180.4805435625,90.0,84.0
258,180.580895625,181.151317875,90.0,84.0
259,181.425965625,181.8819513125,78.0,84.0
260,181.84850062499999,181.975261125,81.0,84.0
261,182.059768125,182.3044863125,81.0,84.0
262,182.482303125,183.1742041875,80.0,84.0
263,183.538640625,183.827372875,83.0,84.0
264,183.961175625,184.2199783125,83.0,85.0
265,184.383710625,184.6601189375,81.0,84.0
266,184.806245625,185.10554125,81.0,84.0
267,185.22878062499998,185.35906225,80.0,84.0
268,185.440048125,185.7622310625,80.0,84.0
269,185.862583125,186.16187875,78.0,84.0
270,186.496385625,186.8009629375,78.0,85.0
271,186.918920625,187.1970895,76.0,85.0
272,187.341455625,187.5932160625,80.0,85.0
273,187.763990625,188.616102875,78.0,85.0
274,188.60906062499998,188.84673656249998,81.0,85.0
275,189.031595625,189.6319474375,80.0,85.0
276,189.876665625,190.3238485,83.0,85.0
277,190.299200625,190.59849625,88.0,85.0
278,190.721735625,191.323848,88.0,85.0
279,191.566805625,192.0333546875,80.0,85.0
280,191.989340625,192.26046725,85.0,85.0
281,192.411875625,192.6900445,85.0,85.0
282,192.834410625,193.1284245625,83.0,85.0
283,193.256945625,193.58441025,83.0,85.0
284,193.679480625,193.9453255625,90.0,85.0
285,194.102015625,194.6213815625,90.0,85.0
286,194.524550625,194.7622265625,78.0,85.0
287,194.947085625,195.1988460625,78.0,85.0
288,195.369620625,195.665395125,81.0,85.0
289,195.792155625,196.2340568125,80.0,85.0
290,196.214690625,196.48581725,83.0,85.0
291,196.63722562499999,196.933000125,83.0,85.0
292,197.059760625,197.323845,92.0,85.0
293,197.482295625,197.95060525,92.0,85.0
294,197.904830625,198.16187275,90.0,85.0
295,198.327365625,198.6178584375,90.0,85.0
296,198.749900625,198.989337125,88.0,85.0
297,199.172435625,199.4558861875,88.0,85.0
298,199.594970625,199.99285774999998,90.0,85.0
299,200.01750562499998,200.3115195625,88.0,85.0
300,200.440040625,200.7375756875,92.0,85.0
301,200.862575625,201.32912468749998,92.0,85.0
302,201.496378125,202.552715625,90.0,85.0
303,202.975250625,203.34848987499998,83.0,85.0
304,203.39778562499998,203.7305319375,88.0,85.0
305,203.820320625,203.96468675,88.0,85.0
306,204.03158812499998,205.14778475,88.0,85.0
307,205.510460625,205.802714,88.0,85.0
308,205.932995625,206.2270095625,88.0,84.0
309,206.355530625,206.7798261875,87.0,85.0
310,206.778065625,206.95060075,85.0,85.0
311,207.200600625,207.5192624375,83.0,84.0
312,207.623135625,207.9453185625,87.0,84.0
313,208.04567062499999,208.3784169375,88.0,85.0
314,208.468205625,208.8678533125,90.0,84.0
315,209.102008125,209.83792325,88.0,84.0
316,209.735810625,210.094965375,83.0,85.0
317,210.158345625,210.418908875,88.0,84.0
318,210.580880625,210.68827493749998,88.0,85.0
319,210.79214812499998,211.26749999999998,88.0,84.0
320,212.271020625,212.52806275,88.0,84.0
321,212.693555625,212.99461181249998,88.0,84.0
322,213.116090625,213.48580875,87.0,84.0
323,213.538625625,213.73932975,85.0,84.0
324,213.961160625,214.3326393125,83.0,84.0
325,214.383695625,214.99461081249999,90.0,84.0
326,214.80623062499998,215.1601036875,92.0,84.0
327,215.228765625,215.7058780625,93.0,84.0
328,215.862568125,216.40130025,92.0,84.0
329,216.496370625,217.045666125,83.0,84.0
330,216.918905625,217.2252435,88.0,84.0
331,217.341440625,217.45411662499998,88.0,84.0
332,217.552708125,217.9699614375,88.0,84.0
333,219.031580625,219.3643269375,88.0,84.0
334,219.454115625,219.7516506875,88.0,84.0
335,219.876650625,220.2516504375,87.0,84.0
336,220.299185625,220.5086925625,85.0,84.0
337,220.721720625,221.05270637499999,83.0,84.0
338,221.144255625,221.482283625,90.0,84.0
339,221.566790625,221.855522875,88.0,84.0
340,221.989325625,222.292142375,87.0,84.0
341,222.411860625,222.5333394375,88.0,84.0
342,222.623128125,223.82383175,88.0,84.0
343,224.102000625,224.28862025,88.0,84.0
344,224.524535625,224.820310125,88.0,84.0
345,224.947070625,225.239324,92.0,84.0
346,225.369605625,225.7129153125,90.0,84.0
347,225.792140625,226.1072813125,88.0,84.0
348,226.21467562499998,226.5826331875,88.0,84.0
349,226.637210625,226.84847812499999,87.0,84.0
350,227.059745625,227.55622424999999,90.0,84.0
351,227.693548125,229.5914345,88.0,84.0
352,230.017490625,230.390729875,83.0,84.0
353,230.440025625,230.7727719375,88.0,84.0
354,230.862560625,231.00692675,88.0,84.0
355,231.073828125,232.19002475,88.0,84.0
356,232.552700625,232.844954,88.0,84.0
357,232.975235625,233.2692495625,88.0,84.0
358,233.397770625,233.82206618749998,87.0,84.0
359,233.820305625,233.99284075,85.0,84.0
360,234.24284062499999,234.5615024375,83.0,84.0
361,234.665375625,234.9875585625,87.0,84.0
362,235.087910625,235.42065693749998,88.0,84.0
363,235.510445625,235.9100933125,90.0,84.0
364,236.144248125,236.88016325,88.0,84.0
365,236.778050625,237.137205375,83.0,84.0
366,237.200585625,237.461148875,88.0,84.0
367,237.62312062499998,237.7305149375,88.0,84.0
368,237.834388125,238.30974,88.0,84.0
369,239.313260625,239.57030275,88.0,84.0
370,239.735795625,240.0368518125,88.0,84.0
371,240.158330625,240.52804875,87.0,84.0
372,240.580865625,240.78156975,85.0,84.0
373,241.00340062499998,241.37487931249998,83.0,84.0
374,241.425935625,241.806217125,90.0,84.0
375,241.848470625,242.2023436875,92.0,84.0
376,242.271005625,242.5685406875,93.0,84.0
377,242.693540625,242.799174375,92.0,84.0
378,242.904808125,243.4453008125,92.0,84.0
379,243.538610625,244.087906125,83.0,84.0
380,243.961145625,244.2674835,88.0,84.0
381,244.38368062499998,244.496356625,88.0,84.0
382,244.594948125,245.0122014375,88.0,84.0
383,246.073820625,246.4065669375,88.0,84.0
384,246.496355625,246.7938906875,88.0,84.0
385,246.918890625,247.2938904375,87.0,84.0
386,247.341425625,247.5509325625,85.0,84.0
387,247.763960625,248.094946375,83.0,84.0
388,248.186495625,248.5086785625,90.0,84.0
389,248.609030625,248.8871995,88.0,84.0
390,249.03156562499998,249.256917625,90.0,84.0
391,249.454100625,249.5544526875,93.0,84.0
392,249.665368125,250.0298045625,92.0,84.0
393,250.087903125,250.9734660625,88.0,85.0
394,251.144240625,251.33086025,88.0,86.0
395,251.566775625,251.86255012499998,88.0,88.0
396,251.989310625,252.281564,92.0,86.0
397,252.41184562499998,252.7551553125,90.0,88.0
398,252.834380625,253.14952131249999,88.0,86.0
399,253.256915625,253.6248731875,88.0,88.0
400,253.679450625,253.890718125,87.0,86.0
401,254.101985625,254.59846425,90.0,88.0
402,254.524520625,254.630154375,88.0,87.0
403,254.735788125,255.73930875,88.0,88.0
