,start,end,pitch,velocity
0,0.580985625,0.8468305625,66.0,61.0
1,0.792253125,1.0088023125,68.0,61.0
2,1.003520625,1.2552810625,71.0,66.0
3,1.2147881249999999,1.3714781875,73.0,63.0
4,1.426055625,2.1637313125,76.0,70.0
5,1.426055625,2.531688875,49.0,74.0
6,1.848590625,2.6461254375,56.0,63.0
7,2.271125625,2.8362661875,61.0,85.0
8,2.693660625,2.9929562499999998,47.0,85.0
9,2.904928125,3.0369703125,80.0,85.0
10,3.116195625,3.3749983125,78.0,85.0
11,3.116195625,3.989434625,45.0,85.0
12,3.538730625,4.0035191249999995,76.0,85.0
13,3.538730625,4.3820400625,52.0,85.0
14,4.3820400625,4.535209,73.0,85.0
15,3.961265625,4.58450475,57.0,85.0
16,4.5228850625,4.7464765,76.0,85.0
17,4.686617375,4.8433074375,73.0,85.0
18,4.8151384375,5.2816875,71.0,85.0
19,5.440138125,5.59858875,73.0,85.0
20,4.806335625,5.7799266875,47.0,85.0
21,5.228870625,5.869715375,54.0,85.0
22,5.651405625,5.91549,76.0,85.0
23,5.651405625,6.073940625,59.0,85.0
24,6.073940625,6.306334875,78.0,85.0
25,6.073940625,6.503517875,49.0,85.0
26,6.4964756249999995,6.926052875,80.0,85.0
27,7.341545625,7.552813125,66.0,85.0
28,7.341545625,7.7024609375,64.0,85.0
29,6.919010625,7.7165454375,59.0,85.0
30,6.4964756249999995,7.721827125,52.0,85.0
31,7.341545625,7.8221791875,51.0,85.0
32,7.552813125,7.8345031249999995,68.0,85.0
33,7.764080625,7.9066861875,71.0,85.0
34,7.975348125,8.0862635625,73.0,85.0
35,8.186615625,8.721826625,76.0,85.0
36,8.186615625,9.19013625,49.0,85.0
37,8.609150625,9.2271080625,56.0,85.0
38,9.031685625,9.3397840625,76.0,85.0
39,9.031685625,9.355629125,61.0,85.0
40,9.454220625,9.73943175,47.0,85.0
41,9.665488125,9.78168525,80.0,85.0
42,9.876755625,10.1531639375,78.0,85.0
43,10.299290625,10.6954171875,76.0,85.0
44,9.876755625,11.017600125,45.0,85.0
45,10.721825625,11.024642374999999,57.0,85.0
46,10.299290625,11.070416999999999,52.0,85.0
47,11.144360625,11.3573886875,73.0,85.0
48,11.144360625,11.461261875,45.0,85.0
49,11.355628124999999,11.48590975,76.0,85.0
50,11.566895624999999,12.776402062499999,47.0,85.0
51,12.411965625,12.8292189375,59.0,85.0
52,11.989430625,12.8327400625,54.0,85.0
53,12.834500625,13.1214723125,47.0,85.0
54,11.566895624999999,13.2764018125,78.0,85.0
55,13.257035625,14.0686549375,63.0,85.0
56,13.257035625,14.0792183125,66.0,85.0
57,13.257035625,14.1003450625,59.0,85.0
58,13.257035625,14.1073873125,54.0,85.0
59,13.257035625,14.1390774375,47.0,85.0
60,14.947175625,15.6778090625,68.0,85.0
61,14.947175625,15.720062562499999,71.0,85.0
62,15.369710625,15.76759775,56.0,85.0
63,14.947175625,15.9806258125,52.0,85.0
64,15.792245625,16.07745675,76.0,85.0
65,16.003513125,16.1531609375,71.0,85.0
66,15.792245625,16.2411890625,59.0,85.0
67,16.214780625,16.454217125,68.0,85.0
68,16.426048125,17.186611125,69.0,85.0
69,17.482385625,17.9348501875,57.0,85.0
70,16.637315625,17.947174125,45.0,85.0
71,17.482385625,17.9559769375,76.0,85.0
72,17.482385625,17.968300875,73.0,85.0
73,17.059850625,18.1883711875,52.0,85.0
74,17.904920625,18.3116105625,71.0,85.0
75,18.327455625,18.728863875,75.0,85.0
76,18.327455625,19.278159375,47.0,85.0
77,18.749990625,19.3961170625,54.0,85.0
78,19.172525625,19.4172438125,75.0,85.0
79,19.383793125,19.6109056875,71.0,85.0
80,19.172525625,19.61266625,59.0,85.0
81,19.595060625,19.7605535,75.0,85.0
82,20.440130625,20.6109051875,71.0,85.0
83,19.806328125,20.6179474375,76.0,85.0
84,20.017595625,20.65491925,52.0,85.0
85,20.651398125,20.8503416875,76.0,85.0
86,20.440130625,20.869707875,59.0,85.0
87,20.862665624999998,21.242947125,64.0,85.0
88,20.862665624999998,21.2940034375,75.0,85.0
89,20.862665624999998,21.4665385625,51.0,85.0
90,21.707735624999998,22.362664875,71.0,85.0
91,21.707735624999998,22.37322825,76.0,85.0
92,21.707735624999998,22.6461154375,61.0,85.0
93,21.707735624999998,22.7182985,49.0,85.0
94,22.975340625,23.126749,59.0,85.0
95,22.975340625,23.151396875,47.0,85.0
96,22.552805625,23.267594,76.0,85.0
97,22.552805625,23.278157375,71.0,85.0
98,23.397875625,24.06336825,71.0,85.0
99,23.397875625,24.0651288125,75.0,85.0
100,23.397875625,24.582734187499998,57.0,85.0
101,23.397875625,24.616184875,45.0,85.0
102,24.242945625,24.996466375,71.0,85.0
103,24.242945625,25.0087903125,75.0,85.0
104,25.088015625,25.8045645625,71.0,85.0
105,25.088015625,25.8186490625,76.0,85.0
106,25.088015625,25.93660675,59.0,85.0
107,25.933085625,26.1531559375,75.0,85.0
108,26.144353125,26.2904798125,73.0,85.0
109,25.088015625,26.3890713125,47.0,85.0
110,26.355620625,26.4700571875,75.0,85.0
111,26.144353125,26.5263951875,51.0,85.0
112,26.355620625,26.76055,59.0,85.0
113,26.566888125,27.1461131875,76.0,85.0
114,26.989423125,27.2200568125,68.0,85.0
115,27.200690625,27.3503384375,71.0,85.0
116,27.411958124999998,27.6601974375,76.0,85.0
117,27.623225625,28.080971875,64.0,85.0
118,27.200690625,28.13378875,59.0,85.0
119,26.778155625,28.1461126875,52.0,85.0
120,27.623225625,28.1830845,71.0,85.0
121,28.468295625,29.0563235,76.0,85.0
122,28.468295625,29.066886874999998,71.0,85.0
123,29.313365625,29.4489289375,71.0,85.0
124,29.313365625,29.482379625,76.0,85.0
125,28.890830625,29.71125275,56.0,85.0
126,29.524633125,29.721816125,71.0,85.0
127,29.313365625,29.7411823125,61.0,85.0
128,28.468295625,29.8397738125,49.0,85.0
129,29.735900625,29.9278019375,68.0,85.0
130,29.947168125,30.65491425,69.0,85.0
131,31.003505625,31.3996321875,76.0,85.0
132,30.158435625,31.4559701875,45.0,85.0
133,30.580970625,31.5369560625,52.0,85.0
134,31.003505625,31.5932940625,71.0,85.0
135,31.426040625,31.5932940625,71.0,85.0
136,31.003505625,31.6038574375,57.0,85.0
137,31.637308125,31.80984325,76.0,85.0
138,31.848575625,32.591533,75.0,85.0
139,31.848575625,32.7904765625,47.0,85.0
140,32.271110625,32.8327300625,54.0,85.0
141,32.693645625,33.0616031875,59.0,85.0
142,32.693645625,33.19012425,75.0,85.0
143,33.961250625,34.123222375,59.0,85.0
144,33.961250625,34.1637153125,71.0,85.0
145,33.538715625,34.214771625,52.0,85.0
146,34.172518124999996,34.338011,76.0,85.0
147,34.383785625,34.841531875,51.0,85.0
148,34.383785625,34.90843325,75.0,85.0
149,34.806320625,35.1285035625,71.0,85.0
150,35.228855625,35.9031510625,71.0,85.0
151,35.228855625,35.9172355625,76.0,85.0
152,35.651390625,36.4876578125,56.0,85.0
153,36.073925625,36.5052634375,61.0,85.0
154,35.228855625,36.573925375,49.0,85.0
155,36.073925625,36.760545,71.0,85.0
156,36.073925625,36.7658266875,76.0,85.0
157,36.496460625,36.834488625,47.0,85.0
158,36.918995625,37.605615,69.0,85.0
159,36.918995625,37.633784,73.0,85.0
160,36.918995625,38.0827274375,45.0,85.0
161,37.764065625,38.168995,57.0,85.0
162,37.341530625,38.2130090625,52.0,85.0
163,37.764065625,38.4418821875,69.0,85.0
164,37.764065625,38.452445562499996,73.0,85.0
165,38.186600625,38.6320229375,45.0,85.0
166,38.609135625,39.355614125,71.0,86.0
167,38.609135625,39.364416937499996,75.0,86.0
168,39.454205625,39.71124775,75.0,86.0
169,39.665473125,39.813360375,73.0,86.0
170,39.876740625,40.0193461875,75.0,87.0
171,39.031670625,40.14786725,54.0,86.0
172,39.454205625,40.179557375,59.0,86.0
173,38.609135625,40.1918813125,47.0,86.0
174,40.510543125,40.7728669375,68.0,87.0
175,40.721810624999996,40.8644161875,75.0,87.0
176,40.510543125,40.918993625,59.0,87.0
177,40.721810624999996,40.938359812499996,64.0,87.0
178,40.299275625,40.982373875,52.0,87.0
179,40.933078125,41.3151201875,76.0,87.0
180,41.144345625,41.799274875,51.0,87.0
181,41.566880624999996,41.8468100625,54.0,88.0
182,41.989415625,42.411950625,80.0,88.0
183,42.411950625,42.834485625,73.0,88.0
184,42.411950625,43.1126545,61.0,88.0
185,42.834485625,43.249978375,80.0,88.0
186,41.989415625,43.2552600625,49.0,88.0
187,43.257020625,43.5052599375,47.0,88.0
188,43.257020625,43.6355415625,73.0,88.0
189,43.679555625,44.077442749999996,80.0,88.0
190,44.102090625,44.4911749375,73.0,88.0
191,43.679555625,44.806315624999996,45.0,88.0
192,44.524625625,44.954202875,80.0,88.0
193,44.102090625,44.9999775,52.0,88.0
194,44.524625625,45.0052591875,57.0,88.0
195,44.947160625,45.26054075,45.0,89.0
196,44.947160625,45.3503294375,73.0,89.0
197,45.369695625,45.890822125,76.0,89.0
198,45.369695625,45.8925826875,71.0,89.0
199,45.369695625,46.5193429375,47.0,89.0
200,45.792230625,46.5369485625,54.0,89.0
201,46.214765625,46.6601879375,59.0,89.0
202,46.214765625,46.6601879375,76.0,89.0
203,46.214765625,46.6901175,71.0,89.0
204,47.059835625,47.3714551875,80.0,89.0
205,47.059835625,47.533426937499996,71.0,89.0
206,47.482370625,47.728849374999996,81.0,89.0
207,47.059835625,47.904905625,52.0,89.0
208,47.904905625,48.2130040625,80.0,89.0
209,47.482370625,48.21828575,59.0,89.0
210,47.904905625,48.221806875,71.0,89.0
211,47.904905625,48.242933625,64.0,89.0
212,47.904905625,48.378496937499996,51.0,89.0
213,48.327440625,48.6038489375,78.0,89.0
214,48.327440625,48.672510875,59.0,89.0
215,48.749975625,49.1813134375,80.0,89.0
216,49.172510625,49.588003375,56.0,89.0
217,49.172510625,49.5932850625,73.0,89.0
218,48.749975625,49.651383625,49.0,89.0
219,49.595045625,49.9594820625,80.0,89.0
220,50.017580625,50.2763833125,47.0,89.0
221,50.017580625,50.394341,73.0,89.0
222,50.440115625,50.816876,80.0,89.0
223,50.862650625,51.235889875,73.0,89.0
224,50.862650625,51.617931937499996,57.0,89.0
225,51.285185625,51.658424875,80.0,89.0
226,50.440115625,51.693636125,45.0,89.0
227,50.862650625,51.714762875,52.0,89.0
228,51.707720625,52.0686359375,73.0,89.0
229,52.130255625,52.757015875,71.0,89.0
230,52.130255625,52.7869454375,76.0,89.0
231,52.975325624999996,53.3045508125,76.0,89.0
232,52.975325624999996,53.440114125,71.0,89.0
233,52.130255625,53.4700436875,54.0,89.0
234,52.130255625,53.47180425,59.0,89.0
235,52.130255625,53.5087760625,47.0,89.0
236,53.397860625,53.7059590625,78.0,89.0
237,53.820395624999996,54.4242685625,80.0,89.0
238,54.242930625,54.42955025,59.0,89.0
239,53.820395624999996,54.566874125,71.0,89.0
240,54.45771925,54.609127625,81.0,89.0
241,53.820395624999996,54.6284938125,52.0,89.0
242,54.58447975,54.6637050625,80.0,89.0
243,54.665465624999996,55.1126485,51.0,89.0
244,54.644338875,55.123211875,78.0,89.0
245,55.510535624999996,55.9418734375,80.0,89.0
246,55.933070625,56.37321125,73.0,89.0
247,55.933070625,56.714760375,61.0,89.0
248,56.355605625,56.732366,80.0,89.0
249,55.933070625,56.778140625,56.0,89.0
250,55.510535624999996,56.806309625,49.0,89.0
251,56.778140625,56.926027875,47.0,89.0
252,56.778140625,57.23236575,73.0,89.0
253,57.200675625,57.595041625,80.0,89.0
254,57.623210625,58.03518225,73.0,89.0
255,58.045745625,58.418984875,80.0,89.0
256,57.623210625,58.429548249999996,57.0,89.0
257,57.200675625,58.4313088125,45.0,89.0
258,58.468280625,58.792224125,73.0,89.0
259,58.890815625,59.2798999375,78.0,89.0
260,58.890815625,60.109124875,47.0,89.0
261,59.735885625,60.1460966875,54.0,89.0
262,59.313350625,60.172505125,59.0,89.0
263,59.735885625,60.179547375,76.0,89.0
264,59.735885625,60.1830685,71.0,89.0
265,60.580955625,61.066870875,80.0,89.0
266,60.580955625,61.3115890625,59.0,89.0
267,60.580955625,61.355603125,64.0,89.0
268,60.580955625,61.40842,52.0,89.0
269,61.003490625,61.418983374999996,81.0,88.0
270,61.426025625,61.8168705,78.0,88.0
271,61.426025625,61.89433525,51.0,88.0
272,61.848560625,62.1496168125,80.0,88.0
273,62.271095625,62.9031375625,80.0,88.0
274,62.693630625,63.0686304375,73.0,88.0
275,62.271095625,63.376728875,49.0,88.0
276,63.116165625,63.383771124999996,61.0,88.0
277,62.693630625,63.3855316875,56.0,88.0
278,63.116165625,63.48588375,80.0,88.0
279,63.538700625,63.7939821875,47.0,88.0
280,63.538700625,63.890813125,73.0,88.0
281,63.961235625,64.3010241875,80.0,88.0
282,64.383770625,64.735883125,73.0,88.0
283,64.806305625,65.151375875,80.0,88.0
284,64.383770625,65.179544875,52.0,88.0
285,63.961235625,65.18482656249999,45.0,88.0
286,64.806305625,65.2253195,57.0,88.0
287,65.228840625,65.5756714375,73.0,88.0
288,65.651375625,66.4348259375,71.0,88.0
289,65.651375625,66.440107625,78.0,88.0
290,65.651375625,66.4489104375,59.0,88.0
291,66.073910625,66.450671,54.0,87.0
292,65.651375625,66.9946848125,47.0,88.0
293,66.49644562499999,67.0439805625,54.0,87.0
294,66.49644562499999,67.144332625,59.0,87.0
295,66.49644562499999,67.1777833125,78.0,87.0
296,66.49644562499999,67.183065,71.0,87.0
297,67.341515625,67.84503649999999,68.0,87.0
298,67.341515625,67.9876420625,52.0,87.0
299,67.341515625,68.0897546875,71.0,87.0
300,68.18658562499999,68.6460924375,66.0,86.0
301,68.18658562499999,68.6601769375,71.0,86.0
302,68.18658562499999,68.6742614375,51.0,86.0
303,69.031655625,69.771091875,64.0,86.0
304,69.031655625,69.77285243749999,68.0,86.0
305,69.876725625,70.21827474999999,64.0,86.0
306,69.876725625,70.228838125,68.0,86.0
307,69.454190625,70.264049375,56.0,86.0
308,69.031655625,70.38728875,49.0,86.0
309,70.299260625,70.63904918749999,47.0,86.0
310,70.721795625,71.454189625,61.0,86.0
311,70.721795625,71.4665135625,64.0,86.0
312,71.566865625,72.0404569375,61.0,86.0
313,71.566865625,72.0404569375,64.0,86.0
314,70.721795625,72.06686537499999,45.0,86.0
315,71.144330625,72.30278075,52.0,86.0
316,71.989400625,72.3520765,57.0,86.0
317,72.411935625,73.165456375,63.0,86.0
318,72.411935625,73.17601975,66.0,86.0
319,73.257005625,73.7024279375,66.0,86.0
320,73.257005625,73.7129913125,63.0,86.0
321,72.411935625,73.7235546875,47.0,86.0
322,72.834470625,73.73235749999999,54.0,86.0
323,73.679540625,74.1214418125,59.0,85.0
324,74.102075625,74.5967936875,71.0,85.0
325,74.102075625,74.59855424999999,68.0,85.0
326,74.102075625,74.6425683125,52.0,85.0
327,74.524610625,74.75700487499999,59.0,85.0
328,74.947145625,75.4506665,71.0,85.0
329,74.947145625,75.47707493749999,66.0,85.0
330,74.947145625,75.4788355,51.0,85.0
331,75.792215625,76.5474969375,64.0,85.0
332,75.792215625,76.5474969375,68.0,85.0
333,76.214750625,76.7165109375,56.0,85.0
334,76.637285625,76.80982075,68.0,85.0
335,76.637285625,76.8291869375,64.0,85.0
336,75.792215625,76.8820038125,49.0,85.0
337,77.059820625,77.320383875,63.0,85.0
338,77.059820625,77.34503175,47.0,85.0
339,77.482355625,78.200665125,61.0,85.0
340,77.482355625,78.214749625,64.0,85.0
341,78.327425625,78.78165075,64.0,85.0
342,78.327425625,78.8045380625,61.0,85.0
343,77.482355625,78.9312985625,45.0,85.0
344,77.904890625,79.1460871875,52.0,85.0
345,79.172495625,79.90841075,66.0,85.0
346,79.172495625,79.9101713125,63.0,85.0
347,80.017565625,80.46122737499999,66.0,85.0
348,79.172495625,80.47355131249999,47.0,85.0
349,80.017565625,80.4770724375,63.0,85.0
350,79.59503062499999,80.566861125,54.0,85.0
351,80.440100625,80.85207224999999,59.0,85.0
352,80.862635625,81.5298888125,68.0,85.0
353,81.28517062499999,81.5510155625,59.0,85.0
354,80.862635625,81.5510155625,71.0,85.0
355,80.862635625,81.5827056875,52.0,85.0
356,81.707705625,82.0545364375,71.0,85.0
357,81.707705625,82.21826875,51.0,85.0
358,81.707705625,82.2270715625,66.0,85.0
359,82.552775625,83.2904513125,64.0,85.0
360,82.552775625,83.2939724375,68.0,85.0
361,82.975310625,83.65840887499999,56.0,85.0
362,83.397845625,83.679535625,64.0,85.0
363,83.397845625,83.69714125,68.0,85.0
364,82.552775625,83.714746875,49.0,85.0
365,83.820380625,84.10383118749999,63.0,85.0
366,83.820380625,84.1179156875,47.0,85.0
367,84.242915625,84.918971625,64.0,85.0
368,84.242915625,84.9524223125,61.0,85.0
369,85.087985625,85.5510135625,64.0,85.0
370,85.087985625,85.5650980625,61.0,85.0
371,84.242915625,85.62671775,45.0,85.0
372,84.665450625,85.8503091875,52.0,85.0
373,85.510520625,85.859112,57.0,85.0
374,85.933055625,86.6707313125,63.0,85.0
375,85.933055625,86.672491875,66.0,85.0
376,85.933055625,86.778125625,47.0,85.0
377,86.355590625,86.778125625,54.0,85.0
378,86.778125625,87.20418175,60.0,85.0
379,86.778125625,87.2446746875,44.0,85.0
380,87.623195625,88.4559416875,49.0,85.0
381,87.623195625,88.45946281249999,61.0,85.0
382,87.623195625,88.468265625,64.0,85.0
383,88.468265625,88.897842875,68.0,85.0
384,88.468265625,88.901364,64.0,85.0
385,88.468265625,89.031645625,49.0,85.0
386,89.313335625,89.99291275,61.0,85.0
387,89.313335625,90.0140395,68.0,85.0
388,89.313335625,90.017560625,64.0,85.0
389,90.158405625,90.6003068125,61.0,85.0
390,90.158405625,90.602067375,68.0,85.0
391,90.158405625,90.609109625,64.0,85.0
392,89.313335625,90.61263075,45.0,85.0
393,91.003475625,91.7552358125,63.0,85.0
394,91.003475625,91.778123125,66.0,85.0
395,91.003475625,92.27460175,47.0,85.0
396,91.848545625,92.306291875,63.0,85.0
397,91.426010625,92.3080524375,54.0,85.0
398,91.848545625,92.309813,66.0,85.0
399,92.69361562499999,92.933052125,68.0,85.0
400,92.69361562499999,93.0580520625,71.0,85.0
401,93.116150625,93.404882875,66.0,85.0
402,93.538685625,93.7481925625,68.0,85.0
403,93.538685625,94.2481923125,71.0,85.0
404,93.961220625,94.2517134375,66.0,85.0
405,92.69361562499999,94.3186148125,52.0,85.0
406,94.38375562499999,94.86614975,52.0,85.0
407,94.38375562499999,94.8819948125,68.0,85.0
408,94.38375562499999,94.890797625,71.0,85.0
409,95.228825625,95.7024169375,63.0,85.0
410,95.228825625,95.7129803125,68.0,85.0
411,95.228825625,95.721783125,72.0,85.0
412,95.228825625,95.7341070625,48.0,85.0
413,96.07389562499999,96.771078375,64.0,85.0
414,96.07389562499999,96.7834023125,68.0,85.0
415,96.07389562499999,97.397838625,49.0,85.0
416,96.918965625,97.4224865,68.0,85.0
417,96.918965625,97.4242470625,64.0,85.0
418,97.764035625,98.4488944375,61.0,85.0
419,97.764035625,98.47178175,64.0,85.0
420,98.609105625,99.070373,61.0,85.0
421,98.609105625,99.0721335625,64.0,85.0
422,97.764035625,99.0897391875,45.0,85.0
423,98.186570625,99.40135875,52.0,85.0
424,99.031640625,99.4488939375,57.0,85.0
425,99.454175625,100.207696375,63.0,85.0
426,99.454175625,100.2129780625,66.0,85.0
427,100.299245625,100.72530175,66.0,85.0
428,99.454175625,100.72882287499999,47.0,85.0
429,100.299245625,100.73938625,63.0,85.0
430,99.876710625,100.75347075,54.0,85.0
431,101.144315625,101.52811824999999,68.0,85.0
432,101.144315625,101.531639375,71.0,85.0
433,101.144315625,101.644315375,52.0,85.0
434,101.989385625,102.4083995,51.0,85.0
435,101.989385625,102.426005125,71.0,85.0
436,101.989385625,102.43656849999999,66.0,85.0
437,102.834455625,103.5510045625,64.0,85.0
438,102.834455625,103.55628625,68.0,85.0
439,102.834455625,103.5615679375,73.0,85.0
440,102.834455625,103.9629761875,49.0,85.0
441,103.679525625,103.99290575,64.0,86.0
442,103.679525625,104.0263564375,68.0,86.0
443,103.679525625,104.0369198125,73.0,86.0
444,104.102060625,104.3573421875,47.0,87.0
445,104.102060625,104.3802295,63.0,87.0
446,104.524595625,105.24642625,69.0,87.0
447,104.524595625,105.2622713125,61.0,87.0
448,104.524595625,105.264031875,66.0,87.0
449,105.369665625,105.947130125,69.0,87.0
450,105.369665625,105.989383625,66.0,87.0
451,104.947130625,106.0017075625,52.0,87.0
452,104.524595625,106.003468125,45.0,87.0
453,105.369665625,106.003468125,61.0,87.0
454,105.79220062499999,106.0193131875,57.0,87.0
455,106.214735625,106.95065075,66.0,87.0
456,106.214735625,106.9594535625,63.0,87.0
457,106.214735625,106.96473525,71.0,87.0
458,106.637270625,107.6073405625,54.0,87.0
459,107.059805625,107.6601574375,71.0,87.0
460,106.214735625,107.661918,47.0,87.0
461,107.059805625,107.679523625,66.0,87.0
462,107.059805625,107.686565875,63.0,87.0
463,107.904875625,108.24642475,52.0,87.0
464,107.904875625,108.2833965625,71.0,87.0
465,107.904875625,108.2833965625,76.0,87.0
466,107.904875625,108.285157125,68.0,87.0
467,108.749945625,108.86614275,63.0,87.0
468,108.749945625,109.1249454375,44.0,87.0
469,108.749945625,109.17600175,60.0,87.0
470,109.595015625,110.33093075,64.0,87.0
471,109.595015625,110.3397335625,73.0,87.0
472,109.595015625,110.34325468749999,68.0,87.0
473,110.440085625,110.855578375,68.0,88.0
474,110.440085625,110.8590995,73.0,88.0
475,110.440085625,110.86614175,64.0,88.0
476,109.595015625,110.8679023125,49.0,87.0
477,110.862620625,111.183043,47.0,88.0
478,111.285155625,111.9858595,61.0,88.0
479,111.285155625,111.99114118749999,69.0,88.0
480,111.285155625,111.99290175,64.0,88.0
481,111.285155625,112.5932535625,45.0,88.0
482,112.130225625,112.61261975,64.0,88.0
483,112.130225625,112.6143803125,61.0,88.0
484,112.130225625,112.616140875,69.0,88.0
485,112.552760625,112.933042125,57.0,88.0
486,111.707690625,112.9383238125,52.0,88.0
487,112.975295625,113.390788375,66.0,88.0
488,112.975295625,113.3960700625,63.0,88.0
489,112.975295625,113.411915125,71.0,88.0
490,112.975295625,113.482337625,47.0,88.0
491,113.820365625,114.151351375,68.0,88.0
492,113.820365625,114.207689375,64.0,88.0
493,113.820365625,114.2376189375,60.0,88.0
494,113.820365625,114.26050624999999,48.0,88.0
495,114.665435625,115.37670287499999,49.0,88.0
496,114.665435625,115.37670287499999,49.0,88.0
497,114.665435625,115.40135074999999,64.0,88.0
498,114.665435625,115.4101535625,68.0,88.0
499,114.665435625,115.4101535625,73.0,88.0
500,115.087970625,115.63902668749999,56.0,88.0
501,115.510505625,115.820364625,64.0,88.0
502,115.510505625,115.8256463125,68.0,88.0
503,115.510505625,115.8362096875,73.0,88.0
504,116.355575625,117.1284625625,61.0,88.0
505,116.355575625,117.137265375,69.0,88.0
506,116.355575625,117.1407865,64.0,88.0
507,117.20064562499999,117.672476375,69.0,88.0
508,117.20064562499999,117.6742369375,61.0,88.0
509,117.20064562499999,117.6742369375,64.0,88.0
510,116.355575625,117.714729875,45.0,88.0
511,117.623180625,117.97001143749999,57.0,88.0
512,116.778110625,118.0439550625,52.0,88.0
513,118.045715625,118.7939546875,63.0,88.0
514,118.045715625,118.8027575,71.0,88.0
515,118.045715625,118.8080391875,66.0,88.0
516,118.045715625,119.2534615,47.0,88.0
517,118.468250625,119.28163049999999,54.0,88.0
518,118.89078562499999,119.3097995,63.0,88.0
519,118.89078562499999,119.313320625,66.0,88.0
520,118.89078562499999,119.320362875,71.0,88.0
521,119.735855625,120.503460875,68.0,88.0
522,119.735855625,120.503460875,76.0,88.0
523,119.735855625,120.517545375,71.0,88.0
524,120.58092562499999,121.320361875,68.0,89.0
525,120.58092562499999,121.320361875,76.0,89.0
526,120.58092562499999,121.34500975,71.0,89.0
527,121.003460625,121.55627725,64.0,89.0
528,121.425995625,122.140784,76.0,89.0
529,121.425995625,122.1460656875,68.0,89.0
530,121.425995625,122.165431875,71.0,89.0
531,120.158390625,122.9700089375,59.0,89.0
532,122.27106562499999,123.04923425,76.0,89.0
533,119.735855625,123.052755375,52.0,88.0
534,122.27106562499999,123.05803706249999,68.0,89.0
535,122.27106562499999,123.06331875,71.0,89.0
536,123.116135625,123.3661355,64.0,89.0
537,123.116135625,123.54571287499999,80.0,89.0
538,123.327403125,123.58268468749999,56.0,89.0
539,123.538670625,123.749938125,61.0,89.0
540,123.749938125,123.961205625,63.0,89.0
541,123.961205625,124.256980125,80.0,89.0
542,123.961205625,124.2957125,64.0,89.0
543,124.383740625,124.6636700625,78.0,89.0
544,124.383740625,124.7129658125,61.0,89.0
545,124.806275625,125.059796625,63.0,89.0
546,125.017543125,125.2798669375,56.0,89.0
547,124.806275625,125.3643739375,80.0,89.0
548,125.228810625,125.4594443125,61.0,89.0
549,125.440078125,125.718247,63.0,89.0
550,125.651345625,125.96472575,80.0,89.0
551,125.651345625,126.0333876875,64.0,89.0
552,126.073880625,126.34500725,78.0,89.0
553,126.073880625,126.4735283125,56.0,89.0
554,126.496415625,126.728809875,61.0,89.0
555,126.707683125,126.933035125,56.0,89.0
556,126.496415625,127.0650773125,80.0,89.0
557,126.918950625,127.1407815,61.0,89.0
558,127.130218125,127.2411335625,63.0,89.0
559,127.341485625,127.735851625,85.0,89.0
560,127.341485625,127.8678938125,64.0,89.0
561,127.764020625,128.0721190625,61.0,89.0
562,127.764020625,128.1249359375,78.0,89.0
563,128.186555625,128.440076625,49.0,89.0
564,128.397823125,128.616132875,56.0,89.0
565,128.186555625,128.7059215625,80.0,89.0
566,128.609090625,128.7464145,61.0,89.0
567,128.609090625,129.0016960625,73.0,89.0
568,128.82035812499998,129.0298650625,63.0,89.0
569,129.031625625,129.38725925,85.0,89.0
570,129.031625625,129.4171888125,64.0,89.0
571,129.454160625,129.8150759375,78.0,89.0
572,129.454160625,129.830921,63.0,89.0
573,129.876695625,130.0193011875,64.0,89.0
574,130.087963125,130.33092075,56.0,89.0
575,129.876695625,130.362610875,80.0,89.0
576,130.299230625,130.517540375,61.0,89.0
577,130.299230625,130.6460614375,73.0,89.0
578,130.510498125,130.7622585625,63.0,89.0
579,130.721765625,131.0562725,64.0,89.0
580,130.721765625,131.1214133125,80.0,89.0
581,131.144300625,131.52282156249998,78.0,89.0
582,131.144300625,131.5509905625,61.0,89.0
583,131.566835625,131.8502861875,63.0,89.0
584,131.778103125,132.010497375,56.0,89.0
585,131.566835625,132.10204662499999,80.0,89.0
586,131.989370625,132.2235254375,61.0,89.0
587,131.989370625,132.362609875,73.0,89.0
588,132.200638125,132.411905625,63.0,89.0
589,132.411905625,132.7869054375,64.0,89.0
590,132.411905625,132.8027505,80.0,89.0
591,132.83444062499998,133.1689475,56.0,89.0
592,132.83444062499998,133.1988770625,78.0,89.0
593,133.256975625,133.538665625,61.0,89.0
594,133.256975625,133.559792375,80.0,89.0
595,133.468243125,133.74993312499998,56.0,89.0
596,133.679510625,133.911904875,61.0,89.0
597,133.679510625,134.073876625,73.0,89.0
598,133.890778125,134.1531019375,63.0,89.0
599,134.102045625,134.5087355625,85.0,89.0
600,134.102045625,134.6038059375,64.0,89.0
601,134.524580625,134.8714114375,61.0,89.0
602,134.524580625,134.9488761875,78.0,89.0
603,134.947115625,135.1636648125,49.0,89.0
604,135.158383125,135.4347914375,56.0,89.0
605,134.947115625,135.4629604375,80.0,89.0
606,135.369650625,135.6073265625,61.0,89.0
607,135.369650625,135.7059180625,73.0,89.0
608,135.580918125,135.87845318749999,63.0,89.0
609,135.792185625,136.2023966875,85.0,89.0
610,135.792185625,136.20415725,64.0,89.0
611,136.21472062499998,136.59852325,78.0,89.0
612,136.637255625,137.0509878125,80.0,89.0
613,136.637255625,137.3678890625,64.0,89.0
614,137.059790625,137.376691875,73.0,89.0
615,136.637255625,137.380213,68.0,89.0
616,137.482325625,137.771057875,80.0,89.0
617,137.482325625,137.9347901875,68.0,89.0
618,137.482325625,137.93655075,64.0,89.0
619,136.637255625,137.954156375,49.0,89.0
620,137.904860625,138.1918323125,78.0,89.0
621,138.327395625,138.7059165625,80.0,89.0
622,138.749930625,138.9488741875,73.0,89.0
623,138.327395625,139.0721135625,63.0,89.0
624,138.327395625,139.0826769375,66.0,89.0
625,139.172465625,139.4805640625,80.0,89.0
626,138.327395625,139.834437125,47.0,89.0
627,139.172465625,139.8397188125,63.0,89.0
628,139.172465625,139.86260612499999,66.0,89.0
629,139.595000625,139.8731695,78.0,89.0
630,140.017535625,140.3890143125,80.0,89.0
631,140.440070625,140.732324,73.0,89.0
632,140.017535625,140.7411268125,61.0,89.0
633,140.017535625,140.7587324375,64.0,89.0
634,140.862605625,141.2657744375,85.0,89.0
635,140.862605625,141.6108446875,61.0,89.0
636,140.862605625,141.6178869375,64.0,89.0
637,141.285140625,141.7129573125,78.0,89.0
638,141.707675625,142.2094359375,80.0,89.0
639,141.707675625,142.3221119375,61.0,89.0
640,141.707675625,142.3502809375,64.0,89.0
641,140.017535625,142.37668937499998,46.0,89.0
642,142.130210625,142.44359075,73.0,89.0
643,142.552745625,142.9629566875,80.0,89.0
644,142.552745625,143.052745375,63.0,89.0
645,142.552745625,143.0580270625,66.0,89.0
646,142.975280625,143.3045058125,78.0,89.0
647,142.552745625,143.320350875,47.0,89.0
648,143.397815625,143.90133649999999,80.0,89.0
649,143.820350625,144.0756321875,73.0,89.0
650,143.397815625,144.168942,64.0,89.0
651,143.397815625,144.1812659375,68.0,89.0
652,144.24288562499999,144.6671811875,80.0,89.0
653,144.24288562499999,144.7833783125,64.0,89.0
654,144.24288562499999,144.8221106875,68.0,89.0
655,144.665420625,144.9876035625,78.0,89.0
656,143.397815625,145.066828875,49.0,89.0
657,145.087955625,145.57034975,80.0,89.0
658,145.510490625,145.7129553125,73.0,89.0
659,145.087955625,145.8009834375,63.0,89.0
660,145.087955625,145.81682849999999,66.0,89.0
661,145.933025625,146.36612399999999,80.0,89.0
662,145.933025625,146.3784479375,63.0,89.0
663,145.933025625,146.425983125,66.0,89.0
664,145.087955625,146.461194375,47.0,89.0
665,146.355560625,146.647814,78.0,88.0
666,146.778095625,147.1742221875,80.0,88.0
667,146.778095625,147.57034875,61.0,88.0
668,146.778095625,147.594996625,64.0,88.0
669,147.200630625,147.62316562499998,73.0,88.0
670,147.62316562499998,147.96471474999998,80.0,88.0
671,147.62316562499998,148.334432875,61.0,88.0
672,147.62316562499998,148.3502779375,64.0,88.0
673,148.045700625,148.3573201875,78.0,88.0
674,148.468235625,148.8643621875,80.0,88.0
675,148.468235625,149.0844325,64.0,88.0
676,148.468235625,149.0861930625,61.0,88.0
677,146.778095625,149.1249254375,46.0,88.0
678,148.890770625,149.19006625,73.0,88.0
679,149.313305625,149.7728124375,66.0,88.0
680,149.313305625,149.7868969375,71.0,88.0
681,149.313305625,149.80098143749998,51.0,88.0
682,150.158375625,150.897811875,64.0,88.0
683,150.158375625,150.89957243749998,68.0,88.0
684,151.003445625,151.34499474999998,64.0,89.0
685,151.003445625,151.355558125,68.0,89.0
686,150.580910625,151.390769375,56.0,87.0
687,150.158375625,151.51400875,49.0,88.0
688,151.425980625,151.76576918749998,47.0,84.0
689,151.848515625,152.580909625,61.0,80.0
690,151.848515625,152.5932335625,64.0,80.0
691,152.693585625,153.1671769375,61.0,80.0
692,152.693585625,153.1671769375,64.0,80.0
693,151.848515625,153.193585375,45.0,80.0
694,152.271050625,153.42950075,52.0,80.0
695,153.116120625,153.4787965,57.0,80.0
696,153.538655625,154.292176375,63.0,81.0
697,153.538655625,154.30273975,66.0,81.0
698,154.383725625,154.8291479375,66.0,81.0
699,154.383725625,154.8397113125,63.0,81.0
700,153.538655625,154.8502746875,47.0,81.0
701,153.961190625,154.85907749999998,54.0,81.0
702,154.806260625,155.2481618125,59.0,82.0
703,155.228795625,155.7235136875,71.0,82.0
704,155.228795625,155.72527424999998,68.0,82.0
705,155.228795625,155.7692883125,52.0,82.0
706,155.65133062499999,155.88372487499998,59.0,82.0
707,156.073865625,156.5773865,71.0,83.0
708,156.073865625,156.6037949375,66.0,83.0
709,156.073865625,156.6055555,51.0,83.0
710,156.918935625,157.6742169375,64.0,83.0
711,156.918935625,157.6742169375,68.0,83.0
712,157.341470625,157.8432309375,56.0,83.0
713,157.764005625,157.93654075,68.0,83.0
714,157.764005625,157.9559069375,64.0,83.0
715,156.918935625,158.0087238125,49.0,83.0
716,158.186540625,158.447103875,63.0,83.0
717,158.186540625,158.47175175,47.0,83.0
718,158.609075625,159.327385125,61.0,83.0
719,158.609075625,159.341469625,64.0,83.0
720,159.454145625,159.90837075,64.0,83.0
721,159.454145625,159.9312580625,61.0,83.0
722,158.609075625,160.0580185625,45.0,83.0
723,159.03161062499998,160.2728071875,52.0,83.0
724,160.299215625,161.03513075,66.0,84.0
725,160.299215625,161.0368913125,63.0,84.0
726,161.144285625,161.587947375,66.0,84.0
727,160.299215625,161.60027131249998,47.0,84.0
728,161.144285625,161.6037924375,63.0,84.0
729,160.721750625,161.693581125,54.0,84.0
730,161.566820625,161.97879225,59.0,84.0
731,161.989355625,162.6566088125,68.0,84.0
732,162.41189062499998,162.6777355625,59.0,84.0
733,161.989355625,162.6777355625,71.0,84.0
734,161.989355625,162.7094256875,52.0,84.0
735,162.834425625,163.1812564375,71.0,84.0
736,162.834425625,163.34498875,51.0,84.0
737,162.834425625,163.3537915625,66.0,84.0
738,163.679495625,164.4171713125,64.0,84.0
739,163.679495625,164.4206924375,68.0,84.0
740,164.102030625,164.785128875,56.0,84.0
741,164.524565625,164.806255625,64.0,84.0
742,164.524565625,164.82386125,68.0,84.0
743,163.679495625,164.841466875,49.0,84.0
744,164.947100625,165.2305511875,63.0,84.0
745,164.947100625,165.2446356875,47.0,84.0
746,165.369635625,166.045691625,64.0,89.0
747,165.369635625,166.0791423125,61.0,89.0
748,166.214705625,166.6777335625,64.0,89.0
749,166.214705625,166.6918180625,61.0,89.0
750,165.369635625,166.75343775,45.0,89.0
751,165.792170625,166.9770291875,52.0,84.0
752,166.637240625,166.985832,57.0,84.0
753,167.059775625,167.7974513125,63.0,89.0
754,167.059775625,167.799211875,66.0,89.0
755,167.059775625,167.904845625,47.0,89.0
756,167.482310625,167.904845625,54.0,84.0
757,167.904845625,168.33090175,60.0,89.0
758,167.904845625,168.3713946875,44.0,89.0
759,168.749915625,169.5826616875,49.0,84.0
760,168.749915625,169.5861828125,61.0,84.0
761,168.749915625,169.594985625,64.0,84.0
762,169.594985625,170.024562875,68.0,89.0
763,169.594985625,170.028084,64.0,89.0
764,169.594985625,170.158365625,49.0,89.0
765,170.44005562499999,171.11963275,61.0,82.0
766,170.44005562499999,171.1407595,68.0,82.0
767,170.44005562499999,171.144280625,64.0,82.0
768,171.285125625,171.7270268125,61.0,85.0
769,171.285125625,171.728787375,68.0,85.0
770,171.285125625,171.735829625,64.0,85.0
771,170.44005562499999,171.73935075,45.0,82.0
772,172.130195625,172.8819558125,63.0,89.0
773,172.130195625,172.90484312499999,66.0,89.0
774,172.130195625,173.40132175,47.0,89.0
775,172.975265625,173.433011875,63.0,84.0
776,172.552730625,173.4347724375,54.0,81.0
777,172.975265625,173.436533,66.0,84.0
778,173.82033562499998,174.059772125,68.0,89.0
779,173.82033562499998,174.1847720625,71.0,89.0
780,174.242870625,174.531602875,66.0,80.0
781,174.665405625,174.8749125625,68.0,81.0
782,174.665405625,175.3749123125,71.0,81.0
783,175.087940625,175.3784334375,66.0,82.0
784,173.82033562499998,175.4453348125,52.0,89.0
785,175.510475625,175.99286975,52.0,84.0
786,175.510475625,176.0087148125,68.0,84.0
787,175.510475625,176.017517625,71.0,84.0
788,176.355545625,177.010474875,51.0,86.0
789,176.778080625,177.0580100625,54.0,87.0
790,177.20061562499998,177.623150625,76.0,89.0
791,177.623150625,178.045685625,71.0,82.0
792,177.623150625,178.3238545,61.0,82.0
793,178.045685625,178.461178375,76.0,84.0
794,177.20061562499998,178.4664600625,49.0,89.0
795,178.468220625,178.7164599375,47.0,86.0
796,178.468220625,178.8467415625,71.0,86.0
797,178.890755625,179.28864275,76.0,89.0
798,179.313290625,179.7023749375,71.0,84.0
799,178.890755625,180.017515625,45.0,89.0
800,179.735825625,180.16540287499998,76.0,89.0
801,179.313290625,180.2111775,52.0,84.0
802,179.735825625,180.2164591875,57.0,89.0
803,180.158360625,180.47174075,45.0,84.0
804,180.158360625,180.56152943749998,71.0,84.0
805,180.580895625,181.102022125,76.0,89.0
806,181.0122334375,181.5333599375,71.0,89.0
807,180.580895625,181.7305429375,47.0,89.0
808,181.003430625,181.7481485625,54.0,84.0
809,181.425965625,181.8713879375,59.0,89.0
810,181.425965625,181.8713879375,75.0,89.0
811,181.8080076875,182.1460356875,71.0,89.0
812,182.271035625,182.5826551875,80.0,84.0
813,182.693570625,182.940049375,81.0,86.0
814,182.271035625,183.116105625,52.0,84.0
815,183.116105625,183.4242040625,78.0,89.0
816,182.693570625,183.42948575,59.0,86.0
817,183.116105625,183.433006875,71.0,89.0
818,183.116105625,183.454133625,64.0,89.0
819,183.116105625,183.5896969375,51.0,89.0
820,183.5227955625,183.799203875,80.0,84.0
821,183.538640625,183.883710875,59.0,84.0
822,183.961175625,184.39251343749999,76.0,89.0
823,184.383710625,184.799203375,56.0,82.0
824,184.383710625,184.8044850625,73.0,82.0
825,183.961175625,184.86258362499998,49.0,89.0
826,184.806245625,185.1706820625,76.0,84.0
827,185.22878062499998,185.4875833125,47.0,86.0
828,185.22878062499998,185.605541,73.0,86.0
829,185.651315625,186.028076,76.0,89.0
830,186.073850625,186.447089875,73.0,82.0
831,186.073850625,186.8291319375,57.0,82.0
832,186.496385625,186.869624875,76.0,83.0
833,185.651315625,186.904836125,45.0,89.0
834,186.073850625,186.925962875,52.0,82.0
835,186.918920625,187.2798359375,73.0,85.0
836,187.341455625,187.9981454375,75.0,86.0
837,187.7234976875,188.3502579375,71.0,86.0
838,188.186525625,188.5157508125,75.0,89.0
839,187.341455625,188.6812436875,54.0,86.0
840,187.341455625,188.68300425,59.0,86.0
841,187.341455625,188.7199760625,47.0,86.0
842,188.5685676875,188.87666612499999,71.0,89.0
843,189.0227928125,189.33089125,76.0,85.0
844,189.2340603125,189.436525,68.0,78.0
845,189.436525,189.68300374999998,63.0,71.0
846,189.031595625,189.778074125,71.0,89.0
847,189.031595625,189.8396938125,52.0,89.0
848,189.65835587499998,189.87138393749998,64.0,56.0
849,189.876665625,190.3238485,48.0,89.0
850,190.721735625,191.15307343749998,76.0,84.0
851,191.144270625,191.58441125,73.0,84.0
852,191.144270625,191.925960375,61.0,84.0
853,191.566805625,191.943566,76.0,85.0
854,191.144270625,191.989340625,56.0,84.0
855,190.721735625,192.017509625,49.0,84.0
856,191.989340625,192.137227875,47.0,86.0
857,191.989340625,192.44356575,73.0,86.0
858,192.411875625,192.80624162499998,76.0,86.0
859,192.834410625,193.24638225,73.0,87.0
860,193.256945625,193.630184875,76.0,87.0
861,192.834410625,193.64074825,57.0,87.0
862,192.411875625,193.64250881249998,45.0,86.0
863,193.679480625,194.003424125,73.0,88.0
864,194.102015625,194.4910999375,78.0,89.0
865,194.102015625,195.320324875,47.0,89.0
866,194.947085625,195.3572966875,54.0,86.0
867,194.524550625,195.383705125,59.0,84.0
868,194.947085625,195.3942685,71.0,86.0
869,195.792155625,196.278070875,80.0,89.0
870,195.792155625,196.5227890625,59.0,89.0
871,195.792155625,196.566803125,64.0,89.0
872,195.792155625,196.61962,52.0,89.0
873,196.63722562499999,197.02807049999998,78.0,85.0
874,196.63722562499999,197.10553525,51.0,85.0
875,197.059760625,197.3608168125,80.0,85.0
876,197.482295625,198.1143375625,80.0,86.0
877,197.904830625,198.2798304375,73.0,86.0
878,197.482295625,198.587928875,49.0,86.0
879,198.327365625,198.594971125,61.0,87.0
880,197.904830625,198.5967316875,56.0,86.0
881,198.327365625,198.69708375,80.0,87.0
882,198.749900625,199.0051821875,47.0,87.0
883,198.749900625,199.10201312499998,73.0,87.0
884,199.172435625,199.5122241875,80.0,88.0
885,199.594970625,199.947083125,73.0,88.0
886,200.01750562499998,200.362575875,80.0,89.0
887,199.594970625,200.390744875,52.0,88.0
888,199.172435625,200.3960265625,45.0,88.0
889,200.01750562499998,200.4365195,57.0,89.0
890,200.440040625,200.7868714375,73.0,86.0
891,200.862575625,201.64602593749999,71.0,89.0
892,200.862575625,201.651307625,78.0,89.0
893,200.862575625,201.6601104375,59.0,89.0
894,201.285110625,201.661871,54.0,87.0
895,200.862575625,202.2058848125,47.0,89.0
896,201.707645625,202.2551805625,54.0,89.0
897,201.707645625,202.355532625,59.0,89.0
898,201.707645625,202.3889833125,78.0,89.0
899,201.707645625,202.394265,71.0,89.0
900,202.552715625,203.05623649999998,68.0,86.0
901,202.552715625,203.1988420625,52.0,86.0
902,202.552715625,203.3009546875,71.0,86.0
903,203.39778562499998,203.8572924375,66.0,87.0
904,203.39778562499998,203.8713769375,71.0,87.0
905,203.39778562499998,203.8854614375,51.0,87.0
906,204.242855625,204.982291875,64.0,89.0
907,204.242855625,204.9840524375,68.0,89.0
908,205.087925625,205.42947475,64.0,86.0
909,205.087925625,205.440038125,68.0,86.0
910,204.665390625,205.475249375,56.0,86.0
911,204.242855625,205.59848875,49.0,89.0
912,205.510460625,205.8502491875,47.0,86.0
913,205.932995625,206.665389625,61.0,87.0
914,205.932995625,206.6777135625,64.0,87.0
915,206.778065625,207.2516569375,61.0,87.0
916,206.778065625,207.2516569375,64.0,87.0
917,205.932995625,207.27806537499998,45.0,87.0
918,206.355530625,207.51398075,52.0,87.0
919,207.200600625,207.5632765,57.0,87.0
920,207.623135625,208.376656375,63.0,88.0
921,207.623135625,208.38721974999999,66.0,88.0
922,208.468205625,208.9136279375,66.0,88.0
923,208.468205625,208.9241913125,63.0,88.0
924,207.623135625,208.9347546875,47.0,88.0
925,208.04567062499999,208.9435575,54.0,88.0
926,208.890740625,209.3326418125,59.0,88.0
927,209.313275625,209.8079936875,71.0,89.0
928,209.313275625,209.80975425,68.0,89.0
929,209.313275625,209.8537683125,52.0,89.0
930,209.735810625,209.968204875,59.0,88.0
931,210.158345625,210.6618665,71.0,89.0
932,210.158345625,210.68827493749998,66.0,89.0
933,210.158345625,210.6900355,51.0,89.0
934,211.003415625,211.7586969375,64.0,88.0
935,211.003415625,211.7586969375,68.0,88.0
936,211.42595062499998,211.9277109375,56.0,88.0
937,211.848485625,212.02102075,68.0,88.0
938,211.848485625,212.0403869375,64.0,88.0
939,211.003415625,212.0932038125,49.0,88.0
940,212.271020625,212.531583875,63.0,88.0
941,212.271020625,212.55623175,47.0,88.0
942,212.693555625,213.411865125,61.0,88.0
943,212.693555625,213.425949625,64.0,88.0
944,213.538625625,213.99285075,64.0,88.0
945,213.538625625,214.0157380625,61.0,88.0
946,212.693555625,214.1424985625,45.0,88.0
947,213.116090625,214.3572871875,52.0,88.0
948,214.383695625,215.11961075,66.0,88.0
949,214.383695625,215.1213713125,63.0,88.0
950,215.228765625,215.67242737499998,66.0,89.0
951,214.383695625,215.6847513125,47.0,88.0
952,215.228765625,215.6882724375,63.0,89.0
953,214.80623062499998,215.778061125,54.0,88.0
954,215.651300625,216.06327224999998,59.0,90.0
955,216.073835625,216.7410888125,68.0,90.0
956,216.496370625,216.7622155625,59.0,90.0
957,216.073835625,216.7622155625,71.0,90.0
958,216.073835625,216.7939056875,52.0,90.0
959,216.918905625,217.2657364375,71.0,89.0
960,216.918905625,217.42946874999998,51.0,89.0
961,216.918905625,217.4382715625,66.0,89.0
962,217.763975625,218.5016513125,64.0,89.0
963,217.763975625,218.5051724375,68.0,89.0
964,218.186510625,218.86960887499998,56.0,90.0
965,218.609045625,218.890735625,64.0,89.0
966,218.609045625,218.90834125,68.0,89.0
967,217.763975625,218.925946875,49.0,89.0
968,219.031580625,219.31503118749998,63.0,91.0
969,219.031580625,219.3291156875,47.0,91.0
970,219.454115625,220.130171625,64.0,90.0
971,219.454115625,220.1636223125,61.0,90.0
972,220.299185625,220.7622135625,64.0,89.0
973,220.299185625,220.7762980625,61.0,89.0
974,219.454115625,220.83791775,45.0,90.0
975,219.876650625,221.0615091875,52.0,89.0
976,220.721720625,221.070312,57.0,91.0
977,221.144255625,221.8819313125,63.0,91.0
978,221.144255625,221.883691875,66.0,91.0
979,221.144255625,221.989325625,47.0,91.0
980,221.566790625,221.989325625,54.0,90.0
981,221.989325625,222.41538175,60.0,90.0
982,221.989325625,222.4558746875,44.0,90.0
983,222.83439562499998,223.6671416875,49.0,89.0
984,222.83439562499998,223.67066281249998,61.0,89.0
985,222.83439562499998,223.679465625,64.0,89.0
986,223.679465625,224.109042875,68.0,89.0
987,223.679465625,224.112564,64.0,89.0
988,223.679465625,224.242845625,49.0,89.0
989,224.524535625,225.20411275,61.0,91.0
990,224.524535625,225.2252395,68.0,91.0
991,224.524535625,225.228760625,64.0,91.0
992,225.369605625,225.8115068125,61.0,90.0
993,225.369605625,225.813267375,68.0,90.0
994,225.369605625,225.820309625,64.0,90.0
995,224.524535625,225.82383074999998,45.0,91.0
996,226.21467562499998,226.9664358125,63.0,89.0
997,226.21467562499998,226.989323125,66.0,89.0
998,226.21467562499998,227.48580175,47.0,89.0
999,227.059745625,227.517491875,63.0,89.0
1000,226.637210625,227.5192524375,54.0,89.0
1001,227.059745625,227.521013,66.0,89.0
1002,227.904815625,228.144252125,68.0,91.0
1003,227.904815625,228.2692520625,71.0,91.0
1004,228.327350625,228.616082875,66.0,91.0
1005,228.749885625,228.9593925625,68.0,90.0
1006,228.749885625,229.4593923125,71.0,90.0
1007,229.172420625,229.4629134375,66.0,90.0
1008,227.904815625,229.5298148125,52.0,91.0
1009,229.59495562499998,230.07734975,52.0,90.0
1010,229.59495562499998,230.0931948125,68.0,90.0
1011,229.59495562499998,230.101997625,71.0,90.0
1012,230.440025625,230.9136169375,63.0,89.0
1013,230.440025625,230.9241803125,68.0,89.0
1014,230.440025625,230.932983125,72.0,89.0
1015,230.440025625,230.9453070625,48.0,89.0
1016,231.285095625,231.982278375,64.0,89.0
1017,231.285095625,231.9946023125,68.0,89.0
1018,231.285095625,232.609038625,49.0,89.0
1019,232.130165625,232.6336865,68.0,91.0
1020,232.130165625,232.6354470625,64.0,91.0
1021,232.975235625,233.6600944375,61.0,90.0
1022,232.975235625,233.68298175,64.0,90.0
1023,233.820305625,234.281573,61.0,90.0
1024,233.820305625,234.2833335625,64.0,90.0
1025,232.975235625,234.3009391875,45.0,90.0
1026,233.397770625,234.61255875,52.0,90.0
1027,234.24284062499999,234.6600939375,57.0,89.0
1028,234.665375625,235.418896375,63.0,89.0
1029,234.665375625,235.4241780625,66.0,89.0
1030,235.510445625,235.93650175,66.0,89.0
1031,234.665375625,235.94002287499998,47.0,89.0
1032,235.510445625,235.95058625,63.0,89.0
1033,235.087910625,235.96467075,54.0,89.0
1034,236.355515625,236.73931825,68.0,89.0
1035,236.355515625,236.742839375,71.0,89.0
1036,236.355515625,236.855515375,52.0,89.0
1037,237.200585625,237.6195995,51.0,89.0
1038,237.200585625,237.637205125,71.0,89.0
1039,237.200585625,237.64776849999998,66.0,89.0
1040,238.045655625,238.7622045625,64.0,89.0
1041,238.045655625,238.76748625,68.0,89.0
1042,238.045655625,238.7727679375,73.0,89.0
1043,238.045655625,239.1741761875,49.0,89.0
1044,238.890725625,239.20410575,64.0,89.0
1045,238.890725625,239.2375564375,68.0,89.0
1046,238.890725625,239.2481198125,73.0,89.0
1047,239.313260625,239.5685421875,47.0,89.0
1048,239.313260625,239.5914295,63.0,89.0
1049,239.735795625,240.45762625,69.0,89.0
1050,239.735795625,240.4734713125,61.0,89.0
1051,239.735795625,240.475231875,66.0,89.0
1052,240.580865625,241.158330125,69.0,89.0
1053,240.580865625,241.200583625,66.0,89.0
1054,240.158330625,241.2129075625,52.0,89.0
1055,239.735795625,241.214668125,45.0,89.0
1056,240.580865625,241.214668125,61.0,89.0
1057,241.00340062499998,241.2305131875,57.0,89.0
1058,241.425935625,242.16185074999999,66.0,89.0
1059,241.425935625,242.1706535625,63.0,89.0
1060,241.425935625,242.17593525,71.0,89.0
1061,241.848470625,242.8185405625,54.0,89.0
1062,242.271005625,242.8713574375,71.0,89.0
1063,241.425935625,242.873118,47.0,89.0
1064,242.271005625,242.890723625,66.0,89.0
1065,242.271005625,242.897765875,63.0,89.0
1066,243.116075625,243.45762475,52.0,89.0
1067,243.116075625,243.4945965625,71.0,89.0
1068,243.116075625,243.4945965625,76.0,89.0
1069,243.116075625,243.496357125,68.0,89.0
1070,243.961145625,244.07734274999999,63.0,89.0
1071,243.961145625,244.3361454375,44.0,89.0
1072,243.961145625,244.38720175,60.0,89.0
1073,244.806215625,245.54213074999998,64.0,89.0
1074,244.806215625,245.5509335625,73.0,89.0
1075,244.806215625,245.5544546875,68.0,89.0
1076,245.65128562499999,246.06677837499998,68.0,89.0
1077,245.65128562499999,246.0702995,73.0,89.0
1078,245.65128562499999,246.07734175,64.0,89.0
1079,244.806215625,246.0791023125,49.0,89.0
1080,246.073820625,246.394243,47.0,89.0
1081,246.496355625,247.1970595,61.0,89.0
1082,246.496355625,247.2023411875,69.0,89.0
1083,246.496355625,247.20410175,64.0,89.0
1084,246.496355625,247.8044535625,45.0,89.0
1085,247.341425625,247.82381974999998,64.0,89.0
1086,247.341425625,247.8255803125,61.0,89.0
1087,247.341425625,247.827340875,69.0,89.0
1088,247.763960625,248.144242125,57.0,89.0
1089,246.918890625,248.1495238125,52.0,89.0
1090,248.186495625,248.601988375,66.0,89.0
1091,248.186495625,248.6072700625,63.0,89.0
1092,248.186495625,248.623115125,71.0,89.0
1093,248.186495625,248.693537625,47.0,89.0
1094,249.03156562499998,249.362551375,68.0,89.0
1095,249.03156562499998,249.418889375,64.0,89.0
1096,249.03156562499998,249.4488189375,60.0,89.0
1097,249.03156562499998,249.47170624999998,48.0,89.0
1098,249.876635625,250.587902875,49.0,89.0
1099,249.876635625,250.587902875,49.0,89.0
1100,249.876635625,250.61255075,64.0,89.0
1101,249.876635625,250.6213535625,68.0,89.0
1102,249.876635625,250.6213535625,73.0,89.0
1103,250.299170625,250.8502266875,56.0,89.0
1104,250.721705625,251.031564625,64.0,89.0
1105,250.721705625,251.0368463125,68.0,89.0
1106,250.721705625,251.0474096875,73.0,89.0
1107,251.566775625,252.3396625625,61.0,89.0
1108,251.566775625,252.348465375,69.0,89.0
1109,251.566775625,252.3519865,64.0,89.0
1110,252.41184562499998,252.883676375,69.0,89.0
1111,252.41184562499998,252.8854369375,61.0,89.0
1112,252.41184562499998,252.8854369375,64.0,89.0
1113,251.566775625,252.925929875,45.0,89.0
1114,252.834380625,253.1812114375,57.0,89.0
1115,251.989310625,253.2551550625,52.0,89.0
1116,253.256915625,254.0051546875,63.0,89.0
1117,253.256915625,254.0139575,71.0,89.0
1118,253.256915625,254.0192391875,66.0,89.0
1119,253.256915625,254.4646615,47.0,89.0
1120,253.679450625,254.4928305,54.0,89.0
1121,254.101985625,254.5209995,63.0,89.0
1122,254.101985625,254.524520625,66.0,89.0
1123,254.101985625,254.531562875,71.0,89.0
1124,254.947055625,255.714660875,68.0,89.0
1125,254.947055625,255.714660875,76.0,89.0
1126,254.947055625,255.728745375,71.0,89.0
1127,255.79212562499998,256.531561875,68.0,89.0
1128,255.79212562499998,256.531561875,76.0,89.0
1129,255.79212562499998,256.55620975,71.0,89.0
1130,256.214660625,256.76747725,64.0,89.0
1131,256.637195625,257.3572656875,68.0,89.0
1132,256.637195625,257.376631875,71.0,89.0
1133,257.48226562499997,257.7481105625,66.0,89.0
1134,257.693533125,257.9100823125,68.0,89.0
1135,257.904800625,258.1565610625,71.0,89.0
1136,255.369590625,258.1812089375,59.0,89.0
1137,254.947055625,258.263955375,52.0,89.0
1138,258.11606812499997,258.2727581875,73.0,89.0
1139,258.327335625,259.0650113125,76.0,89.0
1140,258.327335625,259.432968875,49.0,89.0
1141,258.74987062499997,259.5474054375,56.0,89.0
1142,259.172405625,259.7375461875,61.0,89.0
1143,259.594940625,259.89423625,47.0,89.0
1144,259.806208125,259.9382503125,80.0,89.0
1145,260.017475625,260.2762783125,78.0,89.0
1146,260.017475625,260.890714625,45.0,89.0
1147,260.440010625,260.904799125,76.0,89.0
1148,260.440010625,261.2833200625,52.0,89.0
1149,261.2833200625,261.436489,73.0,89.0
1150,260.862545625,261.48578475,57.0,89.0
1151,261.4241650625,261.6477565,76.0,89.0
1152,261.587897375,261.7445874375,73.0,89.0
1153,261.7164184375,262.1829675,71.0,89.0
1154,262.341418125,262.49986875,73.0,89.0
1155,261.707615625,262.6812066875,47.0,89.0
1156,262.130150625,262.770995375,54.0,89.0
1157,262.552685625,262.81677,76.0,89.0
1158,262.552685625,262.975220625,59.0,89.0
1159,262.975220625,263.207614875,78.0,89.0
1160,262.975220625,263.404797875,49.0,89.0
1161,263.397755625,263.827332875,80.0,89.0
1162,263.397755625,264.242825625,52.0,89.0
1163,264.242825625,264.454093125,66.0,89.0
1164,264.242825625,264.6037409375,64.0,89.0
1165,263.820290625,264.6178254375,59.0,89.0
1166,264.242825625,264.7234591875,51.0,89.0
1167,264.454093125,264.735783125,68.0,89.0
1168,264.665360625,264.80796618749997,71.0,89.0
1169,264.87662812499997,264.9875435625,73.0,89.0
1170,265.087895625,265.623106625,76.0,89.0
1171,265.087895625,266.09141625,49.0,89.0
1172,265.51043062499997,266.1283880625,56.0,89.0
1173,265.932965625,266.2410640625,76.0,89.0
1174,265.932965625,266.256909125,61.0,89.0
1175,266.355500625,266.64071175,47.0,89.0
1176,266.566768125,266.68296525,80.0,89.0
1177,266.778035625,267.05444393749997,78.0,89.0
1178,267.200570625,267.5966971875,76.0,89.0
1179,266.778035625,267.918880125,45.0,89.0
1180,267.623105625,267.92592237499997,57.0,89.0
1181,267.200570625,267.971697,52.0,89.0
1182,268.045640625,268.2586686875,73.0,89.0
1183,268.045640625,268.362541875,45.0,89.0
1184,268.256908125,268.38718975,76.0,89.0
1185,268.468175625,268.989302125,47.0,89.0
1186,269.313245625,269.7304989375,59.0,89.0
1187,268.890710625,269.7340200625,54.0,89.0
1188,269.735780625,270.0227523125,47.0,89.0
1189,268.468175625,270.1776818125,78.0,89.0
1190,270.158315625,270.9699349375,63.0,89.0
1191,270.158315625,270.9804983125,66.0,89.0
1192,270.158315625,271.0016250625,59.0,89.0
1193,270.158315625,271.0086673125,54.0,89.0
1194,270.158315625,271.0403574375,47.0,89.0
1195,271.8044415625,275.41535525,52.0,89.0
1196,271.82556831249997,275.75338325,64.0,89.0
1197,271.813244375,276.92239675,88.0,89.0
1198,271.862540125,276.9276784375,90.0,89.0
1199,271.7903570625,276.929439,83.0,89.0
