,start,end,pitch,velocity
0,22.04122046875,22.35316651875,74.0,66.0
1,22.30670646875,22.572192468750004,72.0,59.0
2,22.572192468750004,22.885244710416668,70.0,45.0
3,22.837678468750003,23.102058277083334,72.0,62.0
4,23.103164468750002,24.165108468750002,72.0,56.0
5,24.165108468750002,24.69608046875,77.0,63.0
6,24.69608046875,26.28899646875,70.0,77.0
7,26.28899646875,26.554482468750003,74.0,66.0
8,26.554482468750003,26.82660561875,72.0,60.0
9,26.81996846875,27.12638356041667,70.0,63.0
10,27.08545446875,27.349834277083335,72.0,67.0
11,27.35094046875,27.615320277083335,72.0,53.0
12,27.61642646875,28.146292277083333,72.0,57.0
13,28.14739846875,28.448282602083335,72.0,56.0
14,28.41288446875,29.209342468750002,77.0,55.0
15,29.209342468750002,29.74031446875,79.0,79.0
16,29.74031446875,30.013543810416667,77.0,63.0
17,30.005800468750003,30.535666277083337,70.0,66.0
18,30.53677246875,30.801152277083332,70.0,87.0
19,30.80225846875,31.066638277083335,70.0,86.0
20,31.06774446875,31.333230468750003,70.0,67.0
21,31.333230468750003,31.86420246875,79.0,98.0
22,31.86420246875,32.16066183541667,77.0,77.0
23,32.129688468750004,32.66066046875,79.0,93.0
24,32.66066046875,33.98698427708334,82.0,97.0
25,33.98809046875,34.25247027708333,82.0,92.0
26,34.25357646875,34.517956277083336,82.0,95.0
27,34.51906246875,35.31552046875,82.0,92.0
28,35.31552046875,35.847598660416665,70.0,97.0
29,35.84649246875,36.37746446875,74.0,99.0
30,36.37746446875,39.03785542708333,72.0,81.0
31,39.032324468750005,39.410642018749996,74.0,66.0
32,39.29781046875,39.639623693749996,72.0,67.0
33,39.563296468749996,39.907322077083336,70.0,67.0
34,39.82878246875,40.40178975208333,72.0,74.0
35,40.35975446875,40.40178975208333,72.0,86.0
36,40.89072646875,41.158424852083336,72.0,79.0
37,41.15621246875,41.687184468750004,77.0,79.0
38,41.687184468750004,42.218156468749996,72.0,74.0
39,42.218156468749996,43.28010046875,70.0,83.0
40,43.28010046875,43.56217934375,74.0,87.0
41,43.54558646875,43.81107246875,72.0,75.0
42,43.81107246875,44.12523090208333,70.0,67.0
43,44.07655846875,44.34093827708334,72.0,71.0
44,44.342044468750004,44.606424277083335,72.0,71.0
45,44.60753046875,44.87301646875,72.0,65.0
46,44.87301646875,45.176112985416665,70.0,66.0
47,45.138502468750005,45.44270517708333,72.0,74.0
48,45.40398846875,45.933854277083334,77.0,66.0
49,45.93496046875,46.375224752083334,77.0,79.0
50,46.20044646875,46.73694942708333,79.0,66.0
51,46.73141846875,46.99690446875,82.0,72.0
52,46.99690446875,47.52677027708333,79.0,90.0
53,47.52787646875,47.79225627708333,79.0,90.0
54,47.793362468750004,48.06437942708334,79.0,90.0
55,48.05884846875,48.34535211041667,77.0,90.0
56,48.324334468749996,48.854200277083336,82.0,97.0
57,48.85530646875,49.12079246875,82.0,93.0
58,49.12079246875,50.82746007291667,79.0,106.0
59,50.702459968750006,50.95669746875,82.0,97.0
60,50.95669746875,51.209875645833336,82.0,95.0
61,51.21093496875,51.46411314583334,82.0,94.0
62,51.465172468750005,51.71940996875001,82.0,77.0
63,51.71940996875001,51.972588145833335,79.0,86.0
64,51.97364746875,52.227884968750004,79.0,86.0
65,52.227884968750004,52.482122468750006,82.0,66.0
66,52.482122468750006,52.74760846875001,79.0,90.0
67,52.74760846875001,55.898035383333344,77.0,77.0
68,55.89911296875001,56.176052420833344,77.0,91.0
69,56.15773346875001,56.43467292083334,79.0,91.0
70,56.41635396875001,58.77930951250001,82.0,106.0
71,58.780396468750006,59.040179012500005,82.0,109.0
72,59.041265968750004,59.56191801250001,82.0,103.0
73,59.56300496875001,59.82278751250001,82.0,99.0
74,59.823874468750006,60.34561346875,82.0,100.0
75,60.34561346875,60.867352468750006,79.0,105.0
76,60.867352468750006,64.25865596875,82.0,108.0
77,64.25865596875,64.55648198125,74.0,85.0
78,64.51952546875,64.78039496875,72.0,73.0
79,64.78039496875,65.0966992375,70.0,82.0
80,65.04126446875,65.56300346875001,72.0,87.0
81,65.56300346875001,65.8575686125,70.0,86.0
82,65.82387296875001,66.38365543750001,72.0,91.0
83,66.34561196875,67.12822046875,74.0,86.0
84,67.12822046875,67.6488725125,78.0,100.0
85,67.64995946875001,67.91082896875001,78.0,95.0
86,67.91082896875001,68.41843753750001,79.0,95.0
87,68.43256796875,68.95430696875,81.0,93.0
88,68.95430696875,69.21517646875,74.0,90.0
89,69.21517646875,69.73691546875,84.0,92.0
90,69.73691546875,69.9966980125,82.0,94.0
91,69.99778496875001,70.51952396875001,82.0,96.0
92,70.51952396875001,70.7793065125,81.0,91.0
93,70.78039346875,71.04126296875,81.0,93.0
94,71.04126296875,71.30213246875,79.0,93.0
95,71.30213246875,71.82387146875001,81.0,90.0
96,71.82387146875001,72.08474096875001,82.0,90.0
97,72.08474096875001,72.60647996875001,74.0,87.0
98,72.60647996875001,72.8793059875,72.0,67.0
99,72.86734946875,73.38908846875,70.0,65.0
100,73.38908846875,73.64887101250001,72.0,103.0
101,73.64995796875,73.90974051250001,72.0,87.0
102,73.91082746875,74.17169696875001,72.0,91.0
103,74.17169696875001,74.43256646875001,70.0,87.0
104,74.43256646875001,74.69343596875001,72.0,96.0
105,74.69343596875001,75.47604446875,70.0,90.0
106,75.47604446875,75.73691396875,79.0,100.0
107,75.73691396875,76.25865296875,77.0,98.0
108,76.25865296875,76.81082674375,79.0,100.0
109,76.78039196875001,77.56300046875,77.0,105.0
110,77.56300046875,77.82386996875,79.0,108.0
111,77.82386996875,78.08365251250001,82.0,94.0
112,78.08473946875,78.34560896875001,82.0,101.0
113,78.34560896875001,78.60647846875001,79.0,99.0
114,78.60647846875001,78.86734796875001,82.0,105.0
115,78.86734796875001,79.38800001250002,79.0,91.0
116,79.38908696875001,79.64995646875,79.0,91.0
117,79.64995646875,79.91311396875001,86.0,95.0
118,79.91311396875001,80.43942896875001,84.0,103.0
119,80.43942896875001,80.70258646875,77.0,90.0
120,80.70258646875,80.96574396875,86.0,95.0
121,80.96574396875,81.49096247916667,84.0,92.0
122,81.49205896875,81.75411997916667,84.0,74.0
123,81.75521646875,82.04140025000001,84.0,82.0
124,82.01837396875001,82.28043497916667,82.0,66.0
125,82.28153146875,82.54359247916668,82.0,66.0
126,82.54468896875001,82.80784646875,82.0,72.0
127,82.80784646875,83.10060918750001,79.0,51.0
128,83.07100396875,83.59731896875,77.0,63.0
129,83.59731896875,84.12253747916667,78.0,89.0
130,84.12363396875,84.38569497916667,78.0,80.0
131,84.38679146875,84.64885247916668,78.0,89.0
132,84.64994896875001,84.91310646875,78.0,75.0
133,84.91310646875,85.17626396875,79.0,87.0
134,85.17626396875,85.70257896875,81.0,77.0
135,85.70257896875,85.98108732291668,74.0,83.0
136,85.96573646875001,86.23108694791668,84.0,75.0
137,86.22889396875,86.75411247916668,82.0,90.0
138,86.75520896875001,87.28152396875001,82.0,97.0
139,87.28152396875001,87.54358497916667,81.0,95.0
140,87.54468146875001,87.80783896875,81.0,80.0
141,87.80783896875,88.09182977083334,79.0,69.0
142,88.07099646875001,88.60279391666667,81.0,94.0
143,88.59731146875001,88.86046896875001,82.0,93.0
144,88.86046896875001,89.38678396875001,74.0,87.0
145,89.38678396875001,89.67954668750001,72.0,90.0
146,89.64994146875,90.17625646875001,70.0,84.0
147,90.17625646875001,90.42730704791668,72.0,97.0
148,90.42835746875001,90.67940804791668,72.0,87.0
149,90.68045846875002,90.93255946875001,72.0,92.0
150,90.93255946875001,91.18466046875001,70.0,82.0
151,91.18466046875001,91.57541701875002,72.0,94.0
152,91.56281196875001,92.19306446875001,70.0,77.0
153,92.19306446875001,92.505564,79.0,98.0
154,92.45622196875001,92.98253696875001,77.0,87.0
155,92.98253696875001,93.51543090625,79.0,87.0
156,93.50885196875001,94.29832446875001,77.0,86.0
157,94.29832446875001,94.56148196875002,79.0,90.0
158,94.56148196875002,94.82354297916667,82.0,97.0
159,94.82463946875001,95.08779696875001,82.0,99.0
160,95.08779696875001,95.35095446875,79.0,93.0
161,95.35095446875,95.61411196875001,82.0,101.0
162,95.61411196875001,96.79612773958334,79.0,91.0
163,96.66674196875,97.19305696875001,86.0,98.0
164,97.19305696875001,97.45511797916667,84.0,90.0
165,97.45621446875,97.84875773958335,84.0,87.0
166,97.71937196875001,98.24568696875001,82.0,95.0
167,98.24568696875001,98.50884446875001,79.0,87.0
168,98.50884446875001,99.29831696875002,84.0,93.0
169,99.29831696875002,103.24795229375002,82.0,75.0
170,139.52544896875,139.82932805625,74.0,66.0
171,139.78406946875,140.04268996875,72.0,59.0
172,140.04268996875,140.34845952083333,70.0,45.0
173,140.30131046875,140.82652897916665,72.0,62.0
174,140.82762546875,141.61709796875,72.0,56.0
175,141.61709796875,142.14341296875,77.0,63.0
176,142.14341296875,143.71852666249998,70.0,77.0
177,143.71091796874998,143.97178746874997,74.0,66.0
178,143.97178746874997,144.23917870625,72.0,60.0
179,144.23265696874998,144.53374384999998,70.0,63.0
180,144.49352646874996,144.75330901249998,72.0,67.0
181,144.75439596874998,145.01417851249997,72.0,53.0
182,145.01526546875,145.53591751249996,72.0,57.0
183,145.53700446874998,145.83265656874997,72.0,56.0
184,145.79787396874997,146.58048246874998,77.0,55.0
185,146.58048246874998,146.86961283124998,79.0,79.0
186,146.84135196875,147.36309096875,77.0,63.0
187,147.36309096875,147.88374301249996,70.0,66.0
188,147.88482996874998,148.14461251249998,70.0,87.0
189,148.14569946874997,148.4054820125,70.0,86.0
190,148.40656896874998,148.66743846874996,70.0,67.0
191,148.66743846874996,149.18917746875,79.0,98.0
192,149.18917746875,149.50439478124997,77.0,77.0
193,149.45004696874997,149.97178596874997,79.0,93.0
194,149.97178596874997,151.27504651249998,82.0,97.0
195,151.27613346874998,151.53591601249997,82.0,92.0
196,151.53700296875,151.79678551249998,82.0,95.0
197,151.79787246874997,152.58048096874998,82.0,92.0
198,152.58048096874998,153.38591554999996,70.0,97.0
199,153.36308946875,153.633741575,74.0,99.0
200,153.62395896874997,156.23265396875,72.0,81.0
201,156.23265396875,156.49352346874997,74.0,100.0
202,156.49352346874997,156.75439296874998,72.0,67.0
203,156.75439296874998,157.01526246874997,70.0,67.0
204,157.01526246874997,157.53591451249997,72.0,74.0
205,157.53700146874996,158.05765351249997,72.0,86.0
206,158.05874046875,158.32178388124998,72.0,79.0
207,158.31960996874997,158.84134896874997,77.0,79.0
208,158.84134896874997,159.36308796874997,72.0,74.0
209,159.36308796874997,160.40656596875,70.0,83.0
210,160.40656596875,160.6837398125,74.0,87.0
211,160.66743546874997,160.92830496874998,72.0,75.0
212,160.92830496874998,161.23742001041663,70.0,67.0
213,161.18917446874997,161.45123547916663,72.0,71.0
214,161.45233196874997,161.71439297916663,72.0,71.0
215,161.71548946874998,161.97864696874996,72.0,65.0
216,161.97864696874996,162.2790851145833,70.0,66.0
217,162.24180446874996,162.54333910416665,72.0,74.0
218,162.50496196874997,163.03018047916663,77.0,66.0
219,163.03127696874998,163.29443446874996,77.0,79.0
220,163.29443446874996,163.82623191666664,79.0,66.0
221,163.82074946874997,164.08390696874997,82.0,72.0
222,164.08390696874997,164.60912547916664,79.0,90.0
223,164.61022196874995,164.87228297916664,79.0,90.0
224,164.87337946874996,165.16943165624997,79.0,90.0
225,165.13653696874997,165.43807160416662,77.0,90.0
226,165.39969446874997,165.92491297916663,82.0,97.0
227,165.92600946874998,166.18916696874996,82.0,93.0
228,166.18916696874996,167.89969071874998,79.0,106.0
229,167.89969071874998,168.29333047916663,82.0,97.0
230,168.29442696874997,168.55648797916663,82.0,95.0
231,168.55758446874998,168.82074196874996,82.0,94.0
232,168.82074196874996,169.08280297916664,79.0,86.0
233,169.08389946874996,169.34705696874997,79.0,86.0
234,169.34705696874997,169.61021446874997,82.0,66.0
235,169.61021446874997,169.86662496874996,79.0,90.0
236,169.86662496874996,172.9647590125,77.0,77.0
237,172.96584596875,173.29519371249998,77.0,91.0
238,173.22671546874997,173.51367191875,79.0,91.0
239,173.48758496874999,175.85261797916664,82.0,106.0
240,175.85371446874996,176.11349701249995,82.0,109.0
241,176.11458396874997,176.63523601249994,82.0,103.0
242,176.63632296874997,176.89610551249996,82.0,99.0
243,176.89719246874995,177.41893146874995,82.0,100.0
244,177.41893146874995,177.94067046874994,79.0,105.0
245,177.94067046874994,181.33197396874996,82.0,108.0
246,181.33197396874996,181.62979998124996,74.0,85.0
247,181.59284346874995,181.85371296874996,72.0,73.0
248,181.85371296874996,182.17001723749996,70.0,82.0
249,182.11458246874994,182.63632146874997,72.0,87.0
250,182.63632146874997,182.93088661249996,70.0,86.0
251,182.89719096874995,183.45697343749995,72.0,91.0
252,183.41892996874995,184.20153846874996,74.0,86.0
253,184.20153846874996,184.72219051249996,78.0,100.0
254,184.72327746874996,184.98414696874997,78.0,95.0
255,184.98414696874997,185.50588596874996,79.0,95.0
256,185.50588596874996,186.02762496874996,81.0,93.0
257,186.02762496874996,186.28849446874995,74.0,90.0
258,186.28849446874995,186.81946646874994,84.0,92.0
259,186.81946646874994,187.08384627708327,82.0,94.0
260,187.08495246874995,187.61592446874994,82.0,96.0
261,187.61592446874994,187.88030427708327,81.0,91.0
262,187.88141046874995,188.14689646874996,81.0,93.0
263,188.14689646874996,188.41238246874994,79.0,93.0
264,188.41238246874994,188.93640946874996,81.0,90.0
265,188.93640946874996,189.19727896874994,82.0,90.0
266,189.19727896874994,189.71901796874994,74.0,87.0
267,189.71901796874994,189.99184398749995,72.0,67.0
268,189.97988746874995,190.50162646874995,70.0,65.0
269,190.50162646874995,190.76140901249994,72.0,103.0
270,190.76249596874993,191.02227851249995,72.0,87.0
271,191.02336546874994,191.28423496874996,72.0,91.0
272,191.28423496874996,191.54510446874994,70.0,87.0
273,191.54510446874994,191.80597396874995,72.0,96.0
274,191.80597396874995,192.58858246874993,70.0,90.0
275,192.58858246874993,192.84945196874995,79.0,100.0
276,192.84945196874995,193.37119096874994,77.0,98.0
277,193.37119096874994,193.92336474374994,79.0,100.0
278,193.89292996874994,194.67553846874995,77.0,105.0
279,194.67553846874995,194.93640796874993,79.0,108.0
280,194.93640796874993,195.19619051249995,82.0,94.0
281,195.19727746874995,195.45814696874996,82.0,101.0
282,195.45814696874996,195.71901646874994,79.0,99.0
283,195.71901646874994,195.97988596874995,82.0,105.0
284,195.97988596874995,196.50053801249996,79.0,91.0
285,196.50162496874995,196.76249446874994,79.0,91.0
286,196.76249446874994,197.02336396874995,86.0,95.0
287,197.02336396874995,197.54510296874994,84.0,103.0
288,197.54510296874994,197.80597246874996,77.0,90.0
289,197.80597246874996,198.06684196874994,86.0,95.0
290,198.06684196874994,198.58749401249995,84.0,92.0
291,198.58858096874994,198.84836351249996,84.0,74.0
292,198.84945046874995,199.13314604999994,84.0,82.0
293,199.11031996874993,199.37010251249995,82.0,66.0
294,199.37118946874995,199.63097201249994,82.0,66.0
295,199.63205896874996,199.89292846874994,82.0,72.0
296,199.89292846874994,200.18314578749994,79.0,51.0
297,200.15379796874996,200.67553696874995,77.0,63.0
298,200.67553696874995,201.1984674791666,78.0,89.0
299,201.19956396874994,201.4616249791666,78.0,80.0
300,201.46272146874995,201.7247824791666,78.0,89.0
301,201.72587896874992,201.98903646874993,78.0,75.0
302,201.98903646874993,202.25219396874994,79.0,87.0
303,202.25219396874994,202.77850896874995,81.0,77.0
304,202.77850896874995,203.04166646874992,74.0,83.0
305,203.04166646874992,203.39254313541662,84.0,75.0
306,203.30482396874993,203.8300424791666,82.0,90.0
307,203.83113896874994,204.35745396874995,82.0,97.0
308,204.35745396874995,204.6195149791666,81.0,95.0
309,204.62061146874993,204.88376896874993,81.0,80.0
310,204.88376896874993,205.15240891666662,79.0,69.0
311,205.14692646874994,205.6787239166666,81.0,94.0
312,205.67324146874995,205.93639896874993,82.0,93.0
313,205.93639896874993,206.46271396874994,74.0,87.0
314,206.46271396874994,206.75547668749994,72.0,90.0
315,206.72587146874994,207.25218646874993,70.0,84.0
316,207.25218646874993,207.5142474791666,72.0,97.0
317,207.51534396874993,207.7774049791666,72.0,87.0
318,207.77850146874994,208.04165896874994,72.0,92.0
319,208.04165896874994,208.30481646874995,70.0,82.0
320,208.30481646874995,208.5833248229166,72.0,94.0
321,208.56797396874993,209.35744646874994,70.0,77.0
322,209.35744646874994,209.66994599999992,79.0,98.0
323,209.62060396874995,210.14691896874993,77.0,87.0
324,210.14691896874993,210.81877201874994,79.0,87.0
325,210.67094596874995,211.45355446874993,77.0,86.0
326,211.45355446874993,211.83398915624994,79.0,90.0
327,211.71442396874994,211.97420651249993,82.0,97.0
328,211.97529346874992,212.23616296874994,82.0,99.0
329,212.23616296874994,212.49703246874992,79.0,93.0
330,212.49703246874992,212.75790196874993,82.0,101.0
331,212.75790196874993,213.80137996874993,79.0,91.0
332,213.80137996874993,214.32529288124994,86.0,98.0
333,214.32311896874992,214.58290151249994,84.0,90.0
334,214.58398846874994,214.97529271874993,84.0,87.0
335,214.97529271874993,215.36659696874995,82.0,95.0
336,215.36659696874995,215.62746646874993,79.0,87.0
337,215.62746646874993,216.41007496874994,84.0,93.0
338,216.41007496874994,223.19268196874992,82.0,75.0
339,223.19268196874992,224.00681219999993,84.0,91.0
340,223.97529046874993,224.00681219999993,84.0,95.0
341,224.23615996874994,224.49594251249994,82.0,64.0
342,224.49702946874993,224.75681201249995,82.0,79.0
343,224.75789896874994,225.02746411874995,82.0,79.0
344,225.01876846874993,225.29485535624994,79.0,71.0
345,225.27963796874994,225.80137696874993,77.0,87.0
346,225.80137696874993,226.32202901249994,78.0,96.0
347,226.32311596874993,226.58289851249992,78.0,89.0
348,226.58398546874994,226.84376801249994,78.0,89.0
349,226.84485496874993,227.12420272499995,78.0,91.0
350,227.10572446874994,227.37094179374992,79.0,83.0
351,227.36659396874992,227.92094165624994,81.0,93.0
352,227.88833296874992,228.14920246874993,74.0,87.0
353,228.14920246874993,228.42637631249994,84.0,76.0
354,228.41007196874995,228.93072401249992,82.0,94.0
355,228.93181096874994,229.47963691874995,82.0,97.0
356,229.45354996874994,229.71333251249993,81.0,93.0
357,229.71441946874995,229.97528896874994,81.0,84.0
358,229.97528896874994,230.27094106874995,79.0,81.0
359,230.23615846874995,230.75789746874995,81.0,74.0
360,230.75789746874995,231.03072348749993,82.0,81.0
361,231.01876696874993,231.56007118124995,74.0,86.0
362,231.54050596874993,231.81659285624994,72.0,83.0
363,231.80137546874994,232.33941881249993,70.0,87.0
364,232.32311446874994,232.58289701249993,72.0,105.0
365,232.58398396874995,232.84485346874993,72.0,90.0
366,232.84485346874993,233.10572296874994,72.0,91.0
367,233.10572296874994,233.39485333124995,70.0,95.0
368,233.36659246874993,233.62746196874994,72.0,91.0
369,233.62746196874994,234.43180959374993,70.0,96.0
370,234.41007046874995,234.67528779374993,79.0,98.0
371,234.67093996874993,235.19267896874993,77.0,93.0
372,235.19267896874993,235.72093970624994,79.0,100.0
373,235.71441796874993,236.49702646874994,77.0,106.0
374,236.49702646874994,236.75789596874995,79.0,101.0
375,236.75789596874995,237.01767851249994,82.0,84.0
376,237.01876546874993,237.27963496874995,82.0,98.0
377,237.27963496874995,237.56659141874994,79.0,81.0
378,237.54050446874993,237.80680874999993,82.0,94.0
379,237.80137396874994,238.33724339999995,79.0,86.0
380,238.32311296874994,238.33724339999995,79.0,90.0
381,238.58398246874992,238.85028674999995,86.0,93.0
382,238.84485196874994,239.36659096874993,84.0,96.0
383,239.36659096874993,239.63180829374994,77.0,94.0
384,239.62746046874994,239.89050388124994,86.0,96.0
385,239.88832996874993,240.41006896874995,84.0,106.0
386,240.41006896874995,240.66985151249995,86.0,98.0
387,240.67093846874994,240.97292879374993,86.0,99.0
388,240.93642446874995,241.20412285208326,84.0,84.0
389,241.20191046874993,241.20412285208326,84.0,90.0
390,241.46739646874994,241.47403361874993,84.0,89.0
391,241.73288246874995,242.01053657708326,81.0,93.0
392,241.99836846874993,242.53819000208327,79.0,98.0
393,242.52934046874995,243.0568874791666,80.0,107.0
394,243.05798396874994,243.3200449791666,80.0,97.0
395,243.32114146874994,243.5832024791666,80.0,93.0
396,243.58429896874992,243.85842136458328,80.0,91.0
397,243.84745646874993,244.1358332291666,81.0,89.0
398,244.11061396874993,244.67311312499993,83.0,103.0
399,244.63692896874994,244.90008646874992,76.0,93.0
400,244.90008646874992,245.16324396874992,86.0,87.0
401,245.16324396874992,245.6884624791666,84.0,95.0
402,245.68955896874994,246.25205812499993,84.0,100.0
403,246.21587396874992,246.4779349791666,83.0,97.0
404,246.47903146874992,246.74218896874993,83.0,92.0
405,246.74218896874993,247.03604817708327,81.0,87.0
406,247.00534646874993,247.56455615624992,83.0,93.0
407,247.53166146874995,247.79481896874992,84.0,90.0
408,247.79481896874992,248.33429184374992,76.0,89.0
409,248.32113396874993,248.58429146874994,74.0,87.0
410,248.58429146874994,249.1332357624999,72.0,72.0
411,249.11060646874992,249.36814938333325,74.0,91.0
412,249.36922696874993,249.62676988333325,74.0,91.0
413,249.62784746874993,249.8864679687499,74.0,93.0
414,249.8864679687499,250.21297634999993,72.0,84.0
415,250.14508846874992,250.40370896874992,74.0,93.0
416,250.40370896874992,251.26254454583326,72.0,97.0
417,251.17957046874992,251.4608202624999,81.0,100.0
418,251.43819096874992,251.95543196874993,79.0,87.0
419,251.95543196874993,252.49745743333327,81.0,100.0
420,252.47267296874992,253.2485344687499,79.0,93.0
421,253.2485344687499,253.50715496874992,81.0,108.0
422,253.50715496874992,253.76469788333324,84.0,97.0
423,253.76577546874992,254.03086148124993,84.0,100.0
424,254.02439596874993,254.29271473749992,81.0,95.0
425,254.28301646874993,254.5545679937499,84.0,109.0
426,254.5416369687499,255.58065596874994,81.0,101.0
427,255.58065596874994,256.1069709687499,88.0,98.0
428,256.1069709687499,256.39425123958324,86.0,94.0
429,256.37012846874995,256.39425123958324,86.0,93.0
430,256.76486471874995,257.1815307604166,84.0,94.0
431,257.15960096874994,257.4227584687499,81.0,81.0
432,257.4227584687499,258.25938002083325,86.0,96.0
433,258.2122309687499,263.08816082291656,84.0,95.0
434,263.0121804687499,263.8982094374999,79.0,90.0
435,263.6004154687499,264.18865046874987,81.0,99.0
436,264.18865046874987,266.2928139791665,84.0,105.0
437,266.29391046874986,266.8191289791665,84.0,106.0
438,266.82022546874987,267.34544397916653,84.0,98.0
439,267.3465404687499,267.87175897916654,84.0,97.0
440,267.8728554687499,268.39917046874984,84.0,99.0
441,268.39917046874984,269.01978357291654,81.0,97.0
442,268.92548546874986,273.2379789999999,84.0,100.0
