,start,end,pitch,velocity
0,3.5822314687500003,4.123897322916667,62.0,66.0
1,3.5822314687500003,4.1578885,55.0,64.0
2,3.5822314687500003,4.164467437500001,58.0,67.0
3,3.5822314687500003,4.275212885416667,51.0,67.0
4,4.6348614687500005,5.019729312500001,53.0,58.0
5,4.6348614687500005,5.20065009375,51.0,48.0
6,4.6348614687500005,5.231351802083334,60.0,59.0
7,4.6348614687500005,5.2401237187500005,57.0,46.0
8,5.68749146875,6.106350489583334,57.0,66.0
9,5.68749146875,6.127183791666667,53.0,63.0
10,5.68749146875,6.156789010416667,60.0,64.0
11,5.68749146875,6.195166145833334,50.0,72.0
12,6.740121468750001,7.34608226875,62.0,56.0
13,6.740121468750001,7.362675143750001,55.0,48.0
14,6.740121468750001,7.396967085416667,58.0,57.0
15,7.7974084687500005,8.264221352083334,63.0,69.0
16,7.7974084687500005,8.290769952083334,60.0,72.0
17,7.7974084687500005,8.32506189375,57.0,67.0
18,7.7974084687500005,8.327274277083333,45.0,73.0
19,8.85935246875,9.356278416666667,50.0,56.0
20,8.85935246875,9.356278416666667,57.0,57.0
21,8.85935246875,9.364475133333334,54.0,64.0
22,8.85935246875,9.46181114375,62.0,51.0
23,9.84295846875,10.430565864583333,62.0,69.0
24,9.84295846875,10.434839372916667,55.0,67.0
25,9.84295846875,10.436976127083334,58.0,73.0
26,10.86860046875,11.295951302083333,62.0,43.0
27,10.86860046875,11.302361564583334,58.0,51.0
28,10.86860046875,11.476507029166667,55.0,42.0
29,9.84295846875,11.482917291666666,43.0,62.0
30,11.89424246875,12.340670802083334,67.0,75.0
31,11.89424246875,12.350715439583334,64.0,73.0
32,11.89424246875,12.352947581250001,60.0,64.0
33,11.89424246875,12.44669753125,48.0,73.0
34,11.89424246875,12.476831443750001,72.0,70.0
35,12.965670468750002,13.510313035416667,48.0,72.0
36,12.965670468750002,13.517009460416668,60.0,72.0
37,12.965670468750002,13.527054097916668,63.0,78.0
38,12.965670468750002,13.55830408125,66.0,76.0
39,12.965670468750002,13.563884435416668,72.0,75.0
40,14.037098468750001,14.668051322916668,60.0,73.0
41,14.037098468750001,14.671622754166668,65.0,76.0
42,14.037098468750001,14.688289433333335,57.0,59.0
43,14.037098468750001,14.714479929166668,69.0,72.0
44,14.037098468750001,14.716860883333334,50.0,70.0
45,15.179956468750001,16.109719070833336,58.0,82.0
46,15.179956468750001,16.109719070833336,67.0,73.0
47,15.179956468750001,16.118052410416666,63.0,88.0
48,15.179956468750001,16.152576245833334,70.0,67.0
49,15.179956468750001,16.2192429625,51.0,88.0
50,16.32281446875,16.982901197916668,60.0,78.0
51,16.32281446875,17.075006322916668,65.0,80.0
52,16.32281446875,17.121058885416666,69.0,73.0
53,17.24386571875,17.476321510416668,60.0,67.0
54,17.24386571875,17.59254940625,65.0,75.0
55,17.24386571875,17.66491771875,69.0,73.0
56,16.32281446875,20.66974281666667,53.0,82.0
57,18.42807446875,20.769100052083335,41.0,75.0
58,20.57093321875,20.891887327083335,77.0,47.0
59,20.618552302083334,21.031267477083336,81.0,62.0
60,20.666171385416668,21.03901081875,84.0,62.0
61,20.713790468750002,21.087683252083334,89.0,64.0
62,22.837678468750003,23.58103926875,62.0,78.0
63,22.837678468750003,23.59099499375,70.0,72.0
64,22.837678468750003,23.60426929375,65.0,91.0
65,23.899622468750003,24.664000910416668,62.0,69.0
66,23.899622468750003,24.685018552083335,65.0,85.0
67,23.899622468750003,24.687230935416668,70.0,69.0
68,24.96156646875,25.693865352083336,70.0,72.0
69,24.96156646875,25.72815729375,65.0,63.0
70,24.96156646875,25.731475868750003,62.0,49.0
71,22.837678468750003,26.30558934375,58.0,78.0
72,26.02351046875,26.666207827083333,70.0,70.0
73,26.554482468750003,26.66842021041667,58.0,70.0
74,26.02351046875,26.671738785416668,62.0,73.0
75,26.02351046875,26.675057360416666,65.0,91.0
76,22.837678468750003,26.71045549375,46.0,73.0
77,27.08545446875,27.83213384375,70.0,76.0
78,27.08545446875,27.83987718541667,62.0,72.0
79,27.08545446875,27.877487702083336,65.0,80.0
80,27.08545446875,29.50912041041667,55.0,63.0
81,28.14739846875,29.59761574375,70.0,76.0
82,28.14739846875,29.735889702083334,62.0,73.0
83,28.14739846875,29.765756877083334,65.0,82.0
84,30.005800468750003,30.329914627083333,55.0,64.0
85,30.27128646875,30.599825393750002,62.0,95.0
86,30.27128646875,30.616418268750003,65.0,101.0
87,30.27128646875,30.63411733541667,70.0,80.0
88,30.53677246875,30.910665252083334,55.0,73.0
89,27.08545446875,31.086549727083334,43.0,76.0
90,31.06774446875,31.149602652083335,50.0,69.0
91,30.80225846875,31.156239802083334,65.0,97.0
92,31.06774446875,31.227036068750003,67.0,76.0
93,31.333230468750003,32.25690051041667,51.0,78.0
94,31.333230468750003,32.52681127708333,58.0,93.0
95,31.333230468750003,32.57327132708333,63.0,97.0
96,31.333230468750003,32.61862518541667,67.0,88.0
97,31.333230468750003,32.78234155208334,70.0,67.0
98,32.66066046875,33.02459752708334,58.0,99.0
99,32.926146468750005,33.15402195208333,63.0,97.0
100,31.333230468750003,33.30114544375,39.0,73.0
101,33.19163246875,33.361985985416666,65.0,78.0
102,33.457118468750004,34.32216035208334,51.0,88.0
103,33.457118468750004,35.215963218750005,58.0,95.0
104,33.457118468750004,35.23034371041667,39.0,72.0
105,33.457118468750004,35.26906041875,70.0,75.0
106,33.457118468750004,35.36972386041667,67.0,78.0
107,33.457118468750004,35.38299816041667,63.0,97.0
108,35.581006468750005,38.76573227708333,65.0,91.0
109,35.581006468750005,38.89294431875,53.0,80.0
110,38.76683846875,38.89294431875,53.0,72.0
111,35.581006468750005,38.89405051041667,60.0,75.0
112,38.76683846875,38.89405051041667,60.0,72.0
113,35.581006468750005,38.92944864375,41.0,69.0
114,38.76683846875,38.92944864375,41.0,69.0
115,35.581006468750005,38.92944864375,69.0,73.0
116,38.76683846875,38.92944864375,69.0,76.0
117,37.70489446875,38.941616752083334,63.0,62.0
118,38.76683846875,39.642942268750005,65.0,78.0
119,39.82878246875,40.62855904375,62.0,88.0
120,39.82878246875,40.66063860208334,70.0,80.0
121,39.82878246875,40.708204843749996,65.0,93.0
122,40.89072646875,41.69050304375,70.0,75.0
123,40.89072646875,41.72368879375,62.0,67.0
124,40.89072646875,41.74360024375,65.0,72.0
125,39.82878246875,42.73032321041667,58.0,80.0
126,41.95267046875,43.08319835208333,70.0,75.0
127,41.95267046875,43.09757884375,62.0,73.0
128,41.95267046875,43.10753456875,65.0,76.0
129,43.28010046875,43.55001123541667,70.0,72.0
130,43.28010046875,43.56439172708333,62.0,88.0
131,43.01461446875,43.573241260416665,58.0,66.0
132,39.82878246875,43.64624991041667,46.0,70.0
133,43.28010046875,43.720364752083334,65.0,73.0
134,43.54558646875,43.73585143541666,53.0,72.0
135,43.81107246875,44.00465601041667,67.0,69.0
136,43.94381546875,44.121912327083336,69.0,62.0
137,44.07655846875,44.77677779375,70.0,62.0
138,44.07655846875,44.90177745208334,62.0,85.0
139,44.07655846875,44.906202218749996,65.0,85.0
140,44.07655846875,45.51903240208333,55.0,76.0
141,45.138502468750005,45.736952160416664,70.0,72.0
142,45.138502468750005,45.75907599375,65.0,73.0
143,45.138502468750005,45.781199827083334,62.0,69.0
144,45.80221746875,46.64956028541667,55.0,31.0
145,46.20044646875,46.910621518750006,62.0,64.0
146,46.20044646875,46.98141778541667,70.0,64.0
147,46.20044646875,47.005754002083336,65.0,70.0
148,46.99690446875,47.34314246041667,55.0,46.0
149,47.26239046875,47.60752226875,65.0,88.0
150,47.26239046875,47.629646102083335,62.0,88.0
151,47.26239046875,47.65619470208333,70.0,76.0
152,47.52787646875,47.85420301041667,55.0,57.0
153,44.07655846875,47.87411446041666,43.0,66.0
154,47.793362468750004,48.14402522708333,65.0,99.0
155,48.05884846875,48.14844999375,53.0,48.0
156,48.05884846875,48.22477721875,41.0,76.0
157,48.05884846875,48.29114871875,67.0,72.0
158,48.324334468749996,48.83207644375,39.0,70.0
159,48.589820468750005,48.85530646875,46.0,61.0
160,48.85530646875,49.17499586041667,51.0,61.0
161,48.324334468749996,49.44601281875,67.0,75.0
162,48.324334468749996,49.47698618541666,58.0,76.0
163,48.324334468749996,49.47919856875,63.0,80.0
164,49.38627846875,49.95707336875,55.0,70.0
165,49.12079246875,49.968135285416665,53.0,58.0
166,49.65176446875,50.00574580208333,58.0,85.0
167,49.91725046875,50.238046052083334,63.0,82.0
168,50.18273646875,50.39844384375,65.0,69.0
169,50.448222468750004,51.20563835416667,63.0,76.0
170,50.448222468750004,51.20669767708333,70.0,76.0
171,50.448222468750004,51.214112937500005,58.0,64.0
172,51.21093496875,51.553096270833336,51.0,53.0
173,51.465172468750005,51.84123210416667,70.0,82.0
174,51.465172468750005,51.84441007291667,58.0,88.0
175,51.465172468750005,51.85924059375,63.0,97.0
176,51.71940996875001,51.985300020833336,51.0,72.0
177,50.448222468750004,52.0658085625,39.0,73.0
178,51.97364746875,52.25966465625,65.0,93.0
179,52.482122468750006,53.05512975208334,53.0,91.0
180,52.482122468750006,53.06066071041667,65.0,93.0
181,52.482122468750006,53.06840405208334,69.0,76.0
182,52.482122468750006,53.09052788541667,41.0,76.0
183,52.482122468750006,53.11265171875001,60.0,95.0
184,53.27858046875001,55.61463041875001,53.0,80.0
185,53.27858046875001,55.97131119166667,60.0,80.0
186,53.27858046875001,55.99070772916667,65.0,76.0
187,53.27858046875001,56.00794909583334,69.0,78.0
188,53.27858046875001,56.30859542708334,41.0,76.0
189,55.89911296875001,56.391569504166675,53.0,59.0
190,56.15773346875001,56.46592289791668,58.0,82.0
191,56.15773346875001,56.48639702083334,63.0,78.0
192,56.15773346875001,56.49286253333334,67.0,72.0
193,56.41635396875001,56.53057802291667,65.0,80.0
194,56.67497446875001,58.373874831250006,39.0,69.0
195,57.47143246875001,58.376048743750005,58.0,72.0
196,57.20594646875001,58.3793096125,51.0,80.0
197,56.94046046875001,58.417353081250006,46.0,73.0
198,57.47143246875001,58.435831337500005,63.0,76.0
199,57.47143246875001,58.48365741250001,67.0,75.0
200,58.780396468750006,59.73583101250001,58.0,67.0
201,58.780396468750006,59.87278750000001,63.0,73.0
202,58.780396468750006,59.878222281250004,67.0,73.0
203,60.084743968750004,60.39017867500001,58.0,62.0
204,59.823874468750006,60.643439481250006,53.0,66.0
205,58.780396468750006,60.66843947500001,41.0,76.0
206,60.34561346875,60.72713511250001,63.0,73.0
207,60.60648296875001,60.77930901250001,65.0,69.0
208,59.56300496875001,60.88256985625001,48.0,59.0
209,60.867352468750006,61.44452623750001,62.0,76.0
210,60.867352468750006,61.447787106250004,65.0,78.0
211,60.867352468750006,61.51191752500001,70.0,76.0
212,61.64996096875001,62.077134775000005,62.0,85.0
213,61.128221968750005,62.13474345625001,53.0,52.0
214,62.171699968750005,62.22713473750001,62.0,46.0
215,62.171699968750005,62.459743375,65.0,95.0
216,60.867352468750006,62.696699837500006,46.0,73.0
217,61.38909146875,62.731482437500006,58.0,76.0
218,62.95430846875001,64.03582993750001,70.0,25.0
219,62.95430846875001,64.08909079375,58.0,67.0
220,62.95430846875001,64.10865600625,65.0,46.0
221,63.999960381250006,64.10865600625,65.0,75.0
222,62.95430846875001,64.31409073750001,62.0,75.0
223,62.95430846875001,64.32604725625,60.0,67.0
224,64.00648211875,64.32604725625,60.0,69.0
225,62.95430846875001,64.47604721875001,46.0,67.0
226,64.0140908125,64.69126455625,41.0,60.0
227,62.69343896875001,64.69343846875,53.0,58.0
228,64.03691689375,64.69343846875,53.0,64.0
229,64.0140908125,64.72822106875,69.0,69.0
230,65.56300346875001,65.59995998125001,58.0,82.0
231,65.04126446875,65.62822084375,62.0,78.0
232,65.04126446875,65.64017736250001,65.0,82.0
233,65.04126446875,65.6662643125,70.0,80.0
234,65.82387296875001,66.2553946,62.0,95.0
235,65.04126446875,66.59995973125001,46.0,75.0
236,66.34561196875,66.62822059375,62.0,75.0
237,66.34561196875,66.62822059375,70.0,73.0
238,65.30213396875001,66.64343798125,53.0,55.0
239,66.34561196875,66.6553945,65.0,101.0
240,66.60648146875,66.72169883125001,58.0,56.0
241,67.12822046875,67.51082906875001,69.0,91.0
242,67.12822046875,67.51517689375001,60.0,91.0
243,67.12822046875,67.52822036875,66.0,97.0
244,67.64995946875001,68.31626365000001,60.0,78.0
245,67.91082896875001,68.3793071125,66.0,103.0
246,67.38908996875,68.41952449375,57.0,59.0
247,68.69343746875,68.85539395,57.0,62.0
248,68.43256796875,68.86300264375001,69.0,101.0
249,67.12822046875,68.87822003125001,50.0,76.0
250,69.08474171875001,69.18474169375,69.0,63.0
251,69.21517646875,69.71408938750001,43.0,72.0
252,69.47604596875001,69.78256763125,50.0,62.0
253,69.73691546875,70.06082843125,55.0,73.0
254,69.21517646875,70.32169793125001,70.0,70.0
255,69.21517646875,70.3619153125,62.0,82.0
256,68.95430696875,70.3662631375,67.0,85.0
257,70.51952396875001,70.71300218125,62.0,95.0
258,70.25865446875001,70.82821954375001,58.0,64.0
259,69.99778496875001,70.85430649375,57.0,76.0
260,70.78039346875,70.86082823125001,62.0,44.0
261,70.78039346875,71.01517601875001,67.0,88.0
262,71.04126296875,71.20104553750001,70.0,67.0
263,71.30213246875,71.772784525,41.0,76.0
264,71.56300196875,71.85213233125,50.0,63.0
265,71.82387146875001,72.15974095000001,53.0,49.0
266,72.08474096875001,72.3619148125,55.0,70.0
267,71.30213246875,72.38256698125001,69.0,76.0
268,71.30213246875,72.38800176250001,62.0,88.0
269,72.60647996875001,72.81300165625001,65.0,101.0
270,72.34561046875001,72.859740775,58.0,73.0
271,72.86734946875,73.16082765625,69.0,103.0
272,73.38908846875,73.95430571875,58.0,99.0
273,73.38908846875,74.138001325,63.0,88.0
274,73.38908846875,74.18908826875,67.0,88.0
275,74.17169696875001,74.32387084375,58.0,42.0
276,73.12821896875,74.32604475625001,70.0,78.0
277,73.91082746875,74.53147948750001,51.0,63.0
278,74.43256646875001,74.70321857500001,70.0,63.0
279,74.43256646875001,74.75865334375001,58.0,80.0
280,74.43256646875001,74.78908811875002,63.0,73.0
281,74.43256646875001,74.80321855000001,67.0,73.0
282,74.69343596875001,75.11626195000001,51.0,67.0
283,74.95430546875001,75.1249576,67.0,60.0
284,73.38908846875,75.13691411875001,39.0,73.0
285,74.95430546875001,75.19452280000002,58.0,73.0
286,73.64995796875,75.30865320625,46.0,69.0
287,75.21517496875,75.36300101875001,63.0,63.0
288,75.21517496875,75.37278362500001,67.0,56.0
289,75.47604446875,76.03800085,67.0,80.0
290,75.47604446875,76.05865301875001,65.0,64.0
291,75.47604446875,76.07821823125,60.0,93.0
292,76.25865296875,76.59343549375001,60.0,80.0
293,75.99778346875001,76.68365286250001,50.0,66.0
294,76.51952246875001,76.70647894375,65.0,85.0
295,76.78039196875001,77.01734843125001,67.0,91.0
296,75.73691396875,77.190174475,46.0,62.0
297,75.47604446875,77.24887011250001,38.0,88.0
298,77.04126146875001,77.29995705625001,69.0,82.0
299,77.56300046875,77.68039174375001,58.0,82.0
300,77.56300046875,77.68147870000001,36.0,75.0
301,77.56300046875,77.69017435,48.0,88.0
302,77.56300046875,77.694522175,63.0,99.0
303,77.56300046875,77.711913475,67.0,99.0
304,77.82386996875,77.92169603125001,58.0,85.0
305,77.82386996875,77.92713081250001,38.0,80.0
306,77.82386996875,77.93256559375001,50.0,99.0
307,77.82386996875,77.96191341250001,65.0,88.0
308,77.30213096875,78.32604375625002,70.0,72.0
309,78.08473946875,78.34234810000001,58.0,97.0
310,78.08473946875,78.34995679375001,63.0,99.0
311,78.08473946875,78.36517418125001,67.0,93.0
312,78.08473946875,78.40865243125,51.0,101.0
313,78.08473946875,78.41517416875001,39.0,80.0
314,78.60647846875001,79.10647834375001,51.0,95.0
315,78.60647846875001,79.18256528125,70.0,69.0
316,78.60647846875001,79.30756525000001,67.0,97.0
317,78.60647846875001,79.3488695875,63.0,103.0
318,78.60647846875001,79.364086975,58.0,99.0
319,78.60647846875001,79.4010434875,39.0,88.0
320,79.38908696875001,79.51517389375,51.0,97.0
321,79.64995646875,80.16421008333334,67.0,97.0
322,79.64995646875,80.18613987500001,70.0,67.0
323,79.64995646875,80.1927188125,58.0,93.0
324,79.64995646875,80.20806966666667,63.0,99.0
325,80.43942896875001,80.61925326041667,58.0,75.0
326,80.70258646875,80.84732309375,63.0,88.0
327,80.17627146875,80.98109482291667,53.0,93.0
328,79.91311396875001,81.26508562500001,48.0,61.0
329,80.96574396875,81.28811190625001,58.0,95.0
330,80.96574396875,81.34403287500001,67.0,97.0
331,80.96574396875,81.3506118125,63.0,101.0
332,81.22890146875001,81.55894483333334,53.0,75.0
333,79.64995646875,81.56333079166667,41.0,91.0
334,81.49205896875,81.57319919791668,48.0,62.0
335,81.49205896875,81.59512898958334,58.0,64.0
336,81.75521646875,82.23328592708334,62.0,85.0
337,81.75521646875,82.25631220833334,65.0,88.0
338,81.75521646875,82.27166306250001,70.0,78.0
339,82.54468896875001,82.71025889583333,65.0,47.0
340,82.80784646875,82.88350425,65.0,40.0
341,82.80784646875,82.97122341666667,70.0,67.0
342,82.28153146875,83.10060918750001,58.0,97.0
343,82.01837396875001,83.15543366666667,53.0,67.0
344,83.07100396875,83.35389828125001,77.0,85.0
345,83.07100396875,83.37911754166667,70.0,101.0
346,83.33416146875001,83.41530169791668,58.0,85.0
347,83.07100396875,83.42407361458334,65.0,95.0
348,81.75521646875,83.42955606250001,46.0,80.0
349,83.33416146875001,83.45477532291667,53.0,63.0
350,83.86047646875001,84.2190285625,62.0,93.0
351,83.86047646875001,84.24095835416668,66.0,103.0
352,84.38679146875,84.72341377083333,62.0,75.0
353,83.86047646875001,84.78152771875,38.0,80.0
354,84.12363396875,84.79358910416667,50.0,50.0
355,84.64994896875001,84.79687857291667,66.0,82.0
356,84.91310646875,85.00630808333334,50.0,76.0
357,84.91310646875,85.03262383333333,62.0,82.0
358,84.91310646875,85.03372032291668,38.0,82.0
359,84.91310646875,85.04907117708333,67.0,97.0
360,85.17626396875,85.40762327083334,62.0,80.0
361,85.17626396875,85.64885097916667,69.0,95.0
362,85.17626396875,85.71025439583335,66.0,103.0
363,85.70257896875,85.87034187500001,62.0,72.0
364,85.70257896875,85.90981550000001,50.0,88.0
365,85.96573646875001,86.54139350000001,70.0,72.0
366,85.96573646875001,86.55784084375,62.0,78.0
367,85.96573646875001,86.56441978125001,65.0,88.0
368,86.75520896875001,86.92626134375001,62.0,75.0
369,87.01836646875,87.18064692708334,65.0,72.0
370,86.49205146875,87.34621685416667,55.0,70.0
371,86.22889396875,87.59292701041667,50.0,66.0
372,87.28152396875001,87.68503213541668,62.0,97.0
373,87.28152396875001,87.76397938541668,70.0,73.0
374,87.54468146875001,87.844023125,55.0,80.0
375,85.96573646875001,87.870338875,43.0,82.0
376,87.80783896875,87.95586506250001,70.0,53.0
377,87.80783896875,88.04906667708335,50.0,70.0
378,88.07099646875001,88.44051345833334,69.0,69.0
379,88.07099646875001,88.45147835416667,60.0,73.0
380,88.07099646875001,88.45476782291666,65.0,80.0
381,88.59731146875001,88.79577608333334,60.0,62.0
382,88.33415396875,89.06331954166667,57.0,63.0
383,88.86046896875001,89.36156470833333,65.0,75.0
384,88.86046896875001,89.36485417708334,60.0,49.0
385,89.38678396875001,89.5874415625,57.0,64.0
386,88.07099646875001,89.63130114583333,50.0,80.0
387,89.64994146875,89.93173929166667,60.0,78.0
388,89.64994146875,90.08634432291667,65.0,97.0
389,90.17625646875001,90.51134071458334,67.0,69.0
390,90.17625646875001,90.59537438125001,58.0,82.0
391,90.17625646875001,90.61218111458335,63.0,82.0
392,90.93255946875001,91.09852596041668,58.0,63.0
393,90.68045846875002,91.21092098958334,51.0,70.0
394,90.42835746875001,91.34327401458334,46.0,59.0
395,91.18466046875001,91.49558503541668,67.0,75.0
396,91.18466046875001,91.50503882291667,58.0,75.0
397,91.18466046875001,91.50819008541667,63.0,73.0
398,91.43676146875,91.80020707708334,46.0,31.0
399,91.43676146875,91.80966086458335,51.0,95.0
400,90.17625646875001,91.85377853958335,39.0,76.0
401,91.68886246875002,91.87478695625,58.0,80.0
402,91.94096346875001,92.12268627291668,65.0,78.0
403,92.19306446875001,92.58670422916667,60.0,85.0
404,92.19306446875001,92.62179189583334,65.0,91.0
405,92.19306446875001,92.6634585,69.0,80.0
406,92.71937946875,92.90687918750001,67.0,61.0
407,92.45622196875001,93.13714200000001,57.0,67.0
408,92.98253696875001,93.18758052083334,62.0,70.0
409,93.50885196875001,93.69525519791668,57.0,66.0
410,92.19306446875001,93.74898318750002,50.0,73.0
411,92.98253696875001,93.80819362500002,69.0,97.0
412,93.77200946875001,93.85753565625001,62.0,80.0
413,93.77200946875001,94.08779846875001,70.0,66.0
414,94.29832446875001,94.42990321875001,48.0,76.0
415,94.29832446875001,94.43757864583334,36.0,73.0
416,94.29832446875001,94.45073652083335,63.0,85.0
417,94.29832446875001,94.45402598958334,58.0,76.0
418,94.29832446875001,94.48472769791668,67.0,91.0
419,94.56148196875002,94.67332390625,50.0,80.0
420,94.56148196875002,94.67551688541667,38.0,70.0
421,94.56148196875002,94.67880635416668,58.0,80.0
422,94.56148196875002,94.70512210416668,65.0,82.0
423,94.82463946875001,94.9463498125,51.0,85.0
424,94.82463946875001,95.12069165625,58.0,80.0
425,94.82463946875001,95.12836708333334,67.0,82.0
426,94.82463946875001,95.16016528125002,63.0,91.0
427,94.82463946875001,95.46937534375002,39.0,69.0
428,95.08779696875001,95.47156832291668,51.0,85.0
429,95.35095446875,95.48691917708334,58.0,63.0
430,95.61411196875001,95.87178702083334,51.0,93.0
431,95.61411196875001,95.97485704166668,58.0,93.0
432,95.61411196875001,96.02639205208334,67.0,91.0
433,95.61411196875001,96.08121653125,63.0,97.0
434,95.61411196875001,96.16893569791668,39.0,72.0
435,96.14042696875,96.26761976041668,51.0,66.0
436,96.40358446875001,96.83340838541667,70.0,46.0
437,96.40358446875001,96.86630307291668,58.0,95.0
438,96.40358446875001,96.94525032291668,67.0,85.0
439,96.40358446875001,97.07792556250001,63.0,99.0
440,97.19305696875001,97.53077576041667,53.0,75.0
441,97.45621446875,97.79612623958334,58.0,95.0
442,97.45621446875,97.81915252083334,67.0,97.0
443,97.45621446875,97.82682794791668,63.0,103.0
444,96.40358446875001,98.03077501041668,41.0,88.0
445,97.71937196875001,98.18866951041667,53.0,62.0
446,97.98252946875002,98.19524844791668,65.0,80.0
447,97.98252946875002,98.24239750000001,58.0,70.0
448,98.24568696875001,98.43318668750001,67.0,64.0
449,98.50884446875001,98.97046658333335,70.0,73.0
450,98.50884446875001,99.00994020833335,62.0,91.0
451,98.50884446875001,99.03844893750001,65.0,95.0
452,99.29831696875002,99.72594790625001,63.0,85.0
453,99.03515946875001,99.84436878125001,58.0,75.0
454,99.82463196875001,100.04283339583334,62.0,93.0
455,99.82463196875001,100.08778946875,65.0,95.0
456,98.77200196875,100.08998244791668,53.0,67.0
457,100.21936821875,100.92139613541669,58.0,51.0
458,100.61410446875001,101.45577113541668,70.0,54.0
459,100.61410446875001,101.69222946875001,82.0,66.0
460,101.61410446875001,101.93806280208335,70.0,55.0
461,101.61410446875001,101.99327113541668,77.0,69.0
462,102.11410446875001,102.19431280208335,70.0,59.0
463,102.11410446875001,102.19431280208335,75.0,66.0
464,98.50884446875001,102.26097946875001,46.0,72.0
465,102.61410446875001,103.34087239375002,63.0,73.0
466,102.61410446875001,103.41719961875002,58.0,82.0
467,102.74684746875002,103.45149156041668,55.0,33.0
468,102.61410446875001,103.88069392708334,51.0,69.0
469,103.67604846875001,104.21144523541668,63.0,62.0
470,103.67604846875001,104.26564862708335,55.0,52.0
471,103.67604846875001,104.26564862708335,58.0,66.0
472,102.61410446875001,104.27117958541668,39.0,49.0
473,104.20702046875002,104.32317059375002,51.0,40.0
474,104.73799246875001,105.24794682708335,53.0,54.0
475,104.73799246875001,105.24794682708335,57.0,63.0
476,104.73799246875001,105.25790255208335,60.0,60.0
477,104.73799246875001,105.42825606875002,50.0,48.0
478,104.73799246875001,105.56431764375002,38.0,64.0
479,105.79993646875002,106.21697072708335,57.0,62.0
480,105.79993646875002,106.36188183541668,60.0,64.0
481,105.79993646875002,106.37847471041668,53.0,58.0
482,106.59639446875002,106.80325231041668,37.0,57.0
483,106.86188046875002,107.11188009375002,36.0,70.0
484,106.86188046875002,107.64367754166668,58.0,69.0
485,106.86188046875002,107.65025647916669,55.0,63.0
486,106.86188046875002,107.67986169791668,63.0,66.0
487,107.78293171875002,108.44707383125001,63.0,46.0
488,107.78293171875002,108.46493098541667,55.0,45.0
489,107.78293171875002,108.47333435208334,58.0,59.0
490,108.92291446875001,109.58080821875001,62.0,72.0
491,108.92291446875001,109.59506258333334,53.0,67.0
492,108.92291446875001,109.63672918750001,57.0,69.0
493,108.92291446875001,109.66085195833334,34.0,56.0
494,109.97554446875,110.08848289583334,53.0,67.0
495,109.97554446875,110.09396534375001,62.0,72.0
496,109.97554446875,110.13124598958335,57.0,61.0
497,109.97554446875,110.15756173958334,34.0,63.0
498,110.23870196875001,110.37028071875001,62.0,66.0
499,110.23870196875001,110.38234210416668,55.0,63.0
500,110.23870196875001,110.41414030208334,58.0,64.0
501,110.23870196875001,110.58409618750001,36.0,64.0
502,110.50185946875001,110.64221013541668,58.0,69.0
503,110.50185946875001,110.64659609375,63.0,67.0
504,110.50185946875001,110.64769258333334,38.0,62.0
505,111.02817446875001,111.21412496875001,38.0,58.0
506,111.02817446875001,111.22548861041668,50.0,54.0
507,111.02817446875001,111.45792673541668,51.0,54.0
508,111.02817446875001,111.52846723541668,55.0,63.0
509,111.02817446875001,111.56829013541667,65.0,75.0
510,111.02817446875001,111.58267062708335,58.0,75.0
511,111.65678546875002,111.82050183541668,51.0,34.0
512,111.78952846875,112.32271285208334,67.0,75.0
513,111.78952846875,112.32603142708335,58.0,73.0
514,112.58598646875001,112.71541089375,58.0,91.0
515,112.32050046875001,112.72204804375001,51.0,51.0
516,111.02817446875001,112.83709197708335,39.0,58.0
517,112.58598646875001,112.90567586041668,67.0,80.0
518,112.85147246875002,113.00965787708334,46.0,66.0
519,113.11695846875001,113.57419462500002,57.0,76.0
520,113.11695846875001,113.57858058333335,65.0,69.0
521,113.11695846875001,113.66081730208334,60.0,88.0
522,113.90643096875002,114.27046551041668,57.0,53.0
523,113.64327346875001,114.42178107291669,50.0,44.0
524,114.43274596875001,114.75621039583335,57.0,73.0
525,114.43274596875001,114.79239455208335,65.0,75.0
526,114.43274596875001,114.80116646875001,60.0,76.0
527,114.69590346875002,114.80555242708334,50.0,54.0
528,113.11695846875001,114.80884189583335,38.0,70.0
529,114.95906096875001,115.09063971875001,57.0,47.0
530,115.22221846875001,115.64875291666668,48.0,60.0
531,115.22221846875001,115.86695434375001,64.0,73.0
532,115.22221846875001,115.89327009375002,67.0,69.0
533,115.22221846875001,115.91848935416668,69.0,70.0
534,115.22221846875001,116.05993651041668,60.0,63.0
535,116.01169096875002,116.42506754166668,48.0,44.0
536,116.27484846875001,116.71563728125001,67.0,75.0
537,116.27484846875001,116.76388282291668,64.0,93.0
538,115.22221846875001,116.85818092708335,36.0,69.0
539,116.27484846875001,116.88668965625001,69.0,76.0
540,116.27484846875001,116.89655806250002,60.0,75.0
541,116.80116346875002,116.93822466666668,48.0,58.0
542,117.32747846875002,117.46234668750002,61.0,59.0
543,117.32747846875002,117.46344317708335,45.0,56.0
544,117.32747846875002,117.46782913541668,64.0,57.0
545,117.32747846875002,117.49743435416669,69.0,46.0
546,117.59063596875001,117.71892525000001,61.0,55.0
547,117.59063596875001,117.73317961458335,64.0,62.0
548,117.59063596875001,117.73537259375001,45.0,63.0
549,117.59063596875001,117.76936377083335,69.0,49.0
550,117.85379346875001,117.99524062500001,61.0,62.0
551,117.85379346875001,118.00730201041668,45.0,69.0
552,117.85379346875001,118.00730201041668,69.0,61.0
553,117.85379346875001,118.00949498958335,64.0,67.0
554,118.11695096875002,118.43054698958335,45.0,76.0
555,118.11695096875002,118.53471350000001,69.0,82.0
556,118.11695096875002,118.64874841666668,61.0,85.0
557,118.11695096875002,118.67067820833334,64.0,93.0
558,118.64326596875001,118.94952688541669,45.0,63.0
559,118.90642346875002,119.07883713541669,61.0,78.0
560,118.90642346875002,119.08853540416669,69.0,82.0
561,118.90642346875002,119.09607850208336,64.0,82.0
562,119.16504396875003,119.26633699791668,45.0,59.0
563,119.42366446875002,120.04225480000002,62.0,72.0
564,119.42366446875002,120.29546016875003,64.0,82.0
565,119.42366446875002,120.33178498958335,74.0,80.0
566,119.42366446875002,120.35742603958336,69.0,85.0
567,119.42366446875002,120.36383630208336,66.0,85.0
568,119.42366446875002,120.74097341250003,57.0,67.0
569,120.19289596875002,120.75272556041669,62.0,38.0
570,119.42366446875002,120.79225551250002,50.0,72.0
571,120.44930646875002,121.05507627500002,74.0,82.0
572,120.44930646875002,121.05934978333335,66.0,93.0
573,120.44930646875002,121.06255491458336,69.0,95.0
574,120.96212746875003,121.07430706250003,50.0,50.0
575,120.96212746875003,121.08926434166669,57.0,72.0
576,121.47494846875001,121.55170273958335,74.0,47.0
577,121.47494846875001,122.15257903125001,71.0,75.0
578,121.47494846875001,122.32801736458335,62.0,80.0
579,121.47494846875001,122.36310503125002,67.0,91.0
580,121.47494846875001,122.58678890625002,59.0,72.0
581,122.52757846875001,122.86420077083335,62.0,85.0
582,122.52757846875001,122.89709545833335,67.0,88.0
583,122.52757846875001,122.90257790625002,71.0,78.0
584,121.47494846875001,123.05389346875002,52.0,72.0
585,122.79073596875001,123.12187582291668,59.0,61.0
586,123.05389346875002,123.37077895833335,69.0,75.0
587,123.31705096875001,123.55937516666668,71.0,63.0
588,123.58020846875002,123.93547109375001,64.0,80.0
589,123.58020846875002,124.00674291666668,69.0,82.0
590,124.10652346875001,124.29731265625001,64.0,67.0
591,123.84336596875002,124.50674216666668,61.0,63.0
592,124.36968096875002,124.85103989583335,76.0,85.0
593,124.36968096875002,124.89818894791668,64.0,69.0
594,124.36968096875002,124.92340820833334,69.0,93.0
595,124.89599596875001,124.99468003125001,61.0,72.0
596,123.58020846875002,124.99687301041668,54.0,67.0
597,125.15915346875002,125.48042491666668,71.0,95.0
598,125.42231096875001,125.59665281250001,73.0,66.0
599,125.68546846875002,126.12073609375001,43.0,69.0
600,125.95332546875002,126.21002176041668,50.0,59.0
601,125.68546846875002,126.25243245208335,62.0,76.0
602,126.22118246875002,126.54149479791668,55.0,56.0
603,125.68546846875002,126.74461968958335,67.0,88.0
604,125.68546846875002,126.76247682291668,74.0,80.0
605,127.02475346875002,127.18100338541669,62.0,82.0
606,126.48903946875002,127.27698547708334,57.0,61.0
607,126.75689646875001,127.34841401041669,59.0,61.0
608,127.29261046875001,127.49573536041669,67.0,95.0
609,127.56046746875002,127.69774418125002,74.0,70.0
610,127.82832446875001,128.23650919375,56.0,69.0
611,127.82832446875001,128.41349986041666,68.0,76.0
612,127.82832446875001,128.43119892708336,62.0,78.0
613,127.82832446875001,128.46327848541668,59.0,75.0
614,128.62478246875,129.04513530208334,59.0,61.0
615,128.35929646875002,129.18783402708334,56.0,45.0
616,127.82832446875001,129.42124046875,44.0,73.0
617,129.15575446875002,129.47876243541668,59.0,72.0
618,129.15575446875002,129.48761196875,68.0,78.0
619,129.15575446875002,129.50088626875,62.0,82.0
620,129.42124046875,129.55619585208333,56.0,58.0
621,129.68672646875,129.77190322708336,61.0,43.0
622,129.95221246875002,130.3032541354167,61.0,76.0
623,129.95221246875002,130.4282541354167,65.0,99.0
624,130.45221246875002,130.61471246875,61.0,58.0
625,130.70221246875002,130.82096246875003,68.0,56.0
626,130.70221246875002,131.1095041354167,63.0,80.0
627,130.20221246875002,131.23554580208335,56.0,58.0
628,131.20221246875002,131.41054580208336,68.0,80.0
629,131.20221246875002,131.51471246875002,61.0,76.0
630,131.45221246875002,131.55637913541668,56.0,73.0
631,129.95221246875002,131.6063791354167,49.0,72.0
632,131.70221246875002,131.79596246875002,66.0,60.0
633,131.95221246875002,132.26471200000003,61.0,76.0
634,131.95221246875002,132.32721190625003,70.0,64.0
635,131.95221246875002,132.42808894791668,66.0,76.0
636,132.74168496875,133.06953535416667,61.0,69.0
637,132.74168496875,133.16054398958335,68.0,85.0
638,132.47852746875003,133.33488583333335,54.0,63.0
639,133.26799996875002,133.50155225000003,61.0,78.0
640,133.26799996875002,133.58598194791668,70.0,75.0
641,133.26799996875002,133.64409589583335,66.0,78.0
642,133.53115746875002,133.7734816666667,54.0,57.0
643,131.95221246875002,133.81624476041668,42.0,75.0
644,132.21536996875003,133.95988489583334,49.0,70.0
645,133.79431496875003,133.98181468750002,68.0,50.0
646,133.92589371875002,134.03663916666667,70.0,63.0
647,134.05747246875,134.65876513125,67.0,80.0
648,134.05747246875,134.66630822916667,70.0,72.0
649,134.05747246875,134.67708408333334,63.0,82.0
650,134.05747246875,134.67923925416667,58.0,85.0
651,134.83333396875,135.06609241875,58.0,66.0
652,135.09195446875,135.38721287291668,63.0,70.0
653,135.35057496875,135.48096280416667,67.0,75.0
654,134.57471346875002,135.72772986458335,55.0,69.0
655,134.05747246875,135.78268672083334,48.0,66.0
656,135.60919546875002,135.93354867916668,70.0,82.0
657,135.86781596875,136.09949683333335,75.0,66.0
658,136.12643646875,137.21079549375,72.0,88.0
659,136.12643646875,137.30131266875,69.0,78.0
660,137.45648496875,137.69463134583333,70.0,72.0
661,137.71510546875,137.76575198333333,72.0,45.0
662,138.23234646875,139.09656997291665,89.0,75.0
663,137.97372596875,139.3411818625,77.0,35.0
664,138.23234646875,139.59656960625,48.0,57.0
665,136.12643646875,139.66014714583332,41.0,75.0
666,140.30131046875,141.03815146875,62.0,78.0
667,140.30131046875,141.048019875,70.0,72.0
668,140.30131046875,141.06117774999998,65.0,91.0
669,141.35394046874998,142.1116147708333,62.0,69.0
670,141.35394046874998,142.13244807291665,65.0,85.0
671,141.35394046874998,142.1346410520833,70.0,69.0
672,142.40657046874998,143.12613550624997,70.0,72.0
673,142.40657046874998,143.15983114999997,65.0,63.0
674,142.40657046874998,143.16309201874998,62.0,49.0
675,140.30131046875,143.72722231249998,58.0,78.0
676,143.45004846874997,144.08157004999998,70.0,70.0
677,143.97178746874997,144.08374396249997,58.0,70.0
678,143.45004846874997,144.08700483124997,62.0,73.0
679,143.45004846874997,144.09026569999997,65.0,91.0
680,140.30131046875,144.12504829999997,46.0,73.0
681,144.49352646874996,145.22722193749996,70.0,76.0
682,144.49352646874996,145.23483063124996,62.0,72.0
683,144.49352646874996,145.27178714374998,65.0,80.0
684,144.49352646874996,146.87504761249997,55.0,63.0
685,145.53700446874998,146.96200411249998,70.0,76.0
686,145.53700446874998,147.09787364374998,62.0,73.0
687,145.53700446874998,147.1272214625,65.0,82.0
688,147.36309096875,147.68156914999997,55.0,64.0
689,147.62396046874997,147.94678647499998,62.0,95.0
690,147.62396046874997,147.96309081874998,65.0,101.0
691,147.62396046874997,147.98048211875,70.0,80.0
692,147.88482996874998,148.25222118124998,55.0,73.0
693,144.49352646874996,148.425047225,43.0,76.0
694,148.40656896874998,148.48700373124998,50.0,69.0
695,148.14569946874997,148.49352546874997,65.0,97.0
696,148.40656896874998,148.56309066874996,67.0,76.0
697,148.66743846874996,149.57504693749996,51.0,78.0
698,148.66743846874996,149.84026426249997,58.0,93.0
699,148.66743846874996,149.88591642499998,63.0,97.0
700,148.66743846874996,149.93048163125,67.0,88.0
701,148.66743846874996,150.09135115624997,70.0,67.0
702,149.97178596874997,150.32939457499998,58.0,99.0
703,150.23265546874998,150.45656845624998,63.0,97.0
704,148.66743846874996,150.60113363749997,39.0,73.0
705,150.49352496874997,150.66091623124998,65.0,78.0
706,150.75439446874998,151.60439425624998,51.0,88.0
707,150.75439446874998,152.48265490625,58.0,95.0
708,150.75439446874998,152.49678533749997,39.0,72.0
709,150.75439446874998,152.53482880624998,70.0,75.0
710,150.75439446874998,152.633741825,67.0,78.0
711,150.75439446874998,152.64678529999998,63.0,97.0
712,152.84135046874997,155.97069751249998,65.0,91.0
713,152.84135046874997,156.09569748124997,53.0,80.0
714,155.97178446874997,156.09569748124997,53.0,72.0
715,152.84135046874997,156.0967844375,60.0,75.0
716,155.97178446874997,156.0967844375,60.0,72.0
717,152.84135046874997,156.13156703749996,41.0,69.0
718,155.97178446874997,156.13156703749996,41.0,69.0
719,152.84135046874997,156.13156703749996,69.0,73.0
720,155.97178446874997,156.13156703749996,69.0,76.0
721,154.92830646874998,156.14352355625,63.0,62.0
722,155.97178446874997,156.83265381874998,65.0,78.0
723,157.01526246874997,157.80113183749998,62.0,88.0
724,157.01526246874997,157.83265356874998,70.0,80.0
725,157.01526246874997,157.87939268749997,65.0,93.0
726,158.05874046875,158.84460983749997,70.0,75.0
727,158.05874046875,158.877218525,62.0,67.0
728,158.05874046875,158.8967837375,65.0,72.0
729,157.01526246874997,159.86634871249998,58.0,80.0
730,159.10221846874998,160.21308775625,70.0,75.0
731,159.10221846874998,160.22721818749997,62.0,73.0
732,159.10221846874998,160.23700079374998,65.0,76.0
733,160.40656596875,160.67178329374997,70.0,72.0
734,160.40656596875,160.68591372499998,62.0,88.0
735,160.14569646874997,160.69460937499997,58.0,66.0
736,157.01526246874997,160.76634848749998,46.0,70.0
737,160.40656596875,160.83917455625,65.0,73.0
738,160.66743546874997,160.85439194375,53.0,72.0
739,160.92830496874998,161.11852231249998,67.0,69.0
740,161.05873971875,161.23413054166664,69.0,62.0
741,161.18917446874997,161.88325237499996,70.0,62.0
742,161.18917446874997,162.00715569791663,62.0,85.0
743,161.18917446874997,162.01154165624996,65.0,85.0
744,161.18917446874997,162.61899688541664,55.0,76.0
745,162.24180446874996,162.8350053333333,70.0,72.0
746,162.24180446874996,162.85693512499998,65.0,73.0
747,162.24180446874996,162.87886491666663,62.0,69.0
748,162.89969821874996,163.7396092395833,55.0,31.0
749,163.29443446874996,163.99838078124998,62.0,64.0
750,163.29443446874996,164.0685561145833,70.0,64.0
751,163.29443446874996,164.09267888541663,65.0,70.0
752,164.08390696874997,164.4271082083333,55.0,46.0
753,164.34706446874998,164.68916921874998,65.0,88.0
754,164.34706446874998,164.71109901041663,62.0,88.0
755,164.34706446874998,164.73741476041664,70.0,76.0
756,164.61022196874995,164.9336863958333,55.0,57.0
757,161.18917446874997,164.9534232083333,43.0,66.0
758,164.87337946874996,165.22096666666664,65.0,99.0
759,165.13653696874997,165.22535262499997,53.0,48.0
760,165.13653696874997,165.30101040624996,41.0,76.0
761,165.13653696874997,165.36679978124997,67.0,72.0
762,165.39969446874997,165.90298318749996,39.0,70.0
763,165.66285196874998,165.92600946874998,46.0,61.0
764,165.92600946874998,166.2428949583333,51.0,61.0
765,165.39969446874997,166.51153490624998,67.0,75.0
766,165.39969446874997,166.5422366145833,58.0,76.0
767,165.39969446874997,166.54442959374998,63.0,80.0
768,166.45232446874996,167.01811309374997,55.0,70.0
769,166.18916696874996,167.0290779895833,53.0,58.0
770,166.71548196874997,167.06635863541663,58.0,85.0
771,166.97863946874998,167.29662144791664,63.0,82.0
772,167.24179696874998,167.45561243749998,65.0,69.0
773,167.50495446874996,168.2889445208333,63.0,76.0
774,167.50495446874996,168.29004101041664,70.0,76.0
775,167.50495446874996,168.29771643749996,58.0,64.0
776,168.29442696874997,168.64859310416662,51.0,53.0
777,168.55758446874998,168.9468382708333,70.0,82.0
778,168.55758446874998,168.9501277395833,58.0,88.0
779,168.55758446874998,168.96547859374996,63.0,97.0
780,168.82074196874996,169.09596085416663,51.0,72.0
781,167.50495446874996,169.17929406249996,39.0,73.0
782,169.08389946874996,169.37995165624997,65.0,93.0
783,169.61021446874997,170.16363379791665,53.0,91.0
784,169.61021446874997,170.16897568333331,65.0,93.0
785,169.61021446874997,170.17645432291664,69.0,76.0
786,169.61021446874997,170.19782186458332,41.0,76.0
787,169.61021446874997,170.21918940624997,60.0,95.0
788,170.37944596874996,172.67888951874997,53.0,80.0
789,170.37944596874996,173.0386720375,60.0,80.0
790,170.37944596874996,173.05823725,65.0,76.0
791,170.37944596874996,173.07562854999998,69.0,78.0
792,170.37944596874996,173.37888934375,41.0,76.0
793,172.96584596875,173.46258497499997,53.0,59.0
794,173.22671546874997,173.53758495625,58.0,82.0
795,173.22671546874997,173.55823712499998,63.0,78.0
796,173.22671546874997,173.56475886249999,67.0,72.0
797,173.48758496874999,173.60280233125,65.0,80.0
798,173.74845446874997,175.4436273645833,39.0,69.0
799,174.53792696874996,175.44582034374997,58.0,72.0
800,174.27476946874998,175.44910981249996,51.0,80.0
801,174.01161196874997,175.48748694791664,46.0,73.0
802,174.53792696874996,175.5061272708333,63.0,76.0
803,174.53792696874996,175.55437281249996,67.0,75.0
804,175.85371446874996,176.80914901249994,58.0,67.0
805,175.85371446874996,176.94610549999996,63.0,73.0
806,175.85371446874996,176.95154028124995,67.0,73.0
807,177.15806196874996,177.46349667499996,58.0,62.0
808,176.89719246874995,177.71675748124994,53.0,66.0
809,175.85371446874996,177.74175747499996,41.0,76.0
810,177.41893146874995,177.80045311249995,63.0,73.0
811,177.67980096874996,177.85262701249997,65.0,69.0
812,176.63632296874997,177.95588785624994,48.0,59.0
813,177.94067046874994,178.51784423749996,62.0,76.0
814,177.94067046874994,178.52110510624996,65.0,78.0
815,177.94067046874994,178.58523552499994,70.0,76.0
816,178.72327896874995,179.15045277499996,62.0,85.0
817,178.20153996874996,179.20806145624996,53.0,52.0
818,179.24501796874995,179.30045273749997,62.0,46.0
819,179.24501796874995,179.53306137499996,65.0,95.0
820,177.94067046874994,179.77001783749995,46.0,73.0
821,178.46240946874997,179.80480043749995,58.0,76.0
822,180.02762646874996,181.16240879374996,58.0,67.0
823,180.02762646874996,181.18197400624996,65.0,46.0
824,181.07327838124996,181.18197400624996,65.0,75.0
825,180.02762646874996,181.38740873749995,62.0,75.0
826,180.02762646874996,181.39936525624995,60.0,67.0
827,181.07980011874994,181.39936525624995,60.0,69.0
828,180.02762646874996,181.46784349999996,70.0,25.0
829,180.02762646874996,181.54936521874995,46.0,67.0
830,181.08740881249994,181.76458255624996,41.0,60.0
831,179.76675696874995,181.76675646874995,53.0,58.0
832,181.11023489374995,181.76675646874995,53.0,64.0
833,181.08740881249994,181.80153906874995,69.0,69.0
834,182.63632146874997,182.67327798124995,58.0,82.0
835,182.11458246874994,182.70153884374994,62.0,78.0
836,182.11458246874994,182.71349536249997,65.0,82.0
837,182.11458246874994,182.73958231249995,70.0,80.0
838,182.89719096874995,183.32871259999996,62.0,95.0
839,182.11458246874994,183.67327773124995,46.0,75.0
840,183.41892996874995,183.70153859374994,62.0,75.0
841,183.41892996874995,183.70153859374994,70.0,73.0
842,182.37545196874996,183.71675598124995,53.0,55.0
843,183.41892996874995,183.72871249999994,65.0,101.0
844,183.67979946874996,183.79501683124997,58.0,56.0
845,184.20153846874996,184.58414706874996,69.0,91.0
846,184.20153846874996,184.58849489374995,60.0,91.0
847,184.20153846874996,184.60153836874997,66.0,97.0
848,184.72327746874996,185.38958164999997,60.0,78.0
849,184.98414696874997,185.45262511249996,66.0,103.0
850,184.46240796874997,185.49284249374995,57.0,59.0
851,185.76675546874995,185.92871194999995,57.0,62.0
852,185.50588596874996,185.93632064374995,69.0,101.0
853,184.20153846874996,185.95153803124995,50.0,76.0
854,186.15805971874997,186.25805969374997,69.0,63.0
855,186.28849446874995,186.79623644374993,43.0,72.0
856,186.55398046874996,186.86592651874994,50.0,62.0
857,186.81946646874994,187.14911158541662,55.0,73.0
858,186.28849446874995,187.4145975854166,70.0,70.0
859,186.28849446874995,187.45552667708327,62.0,82.0
860,186.02762496874996,187.45995144374996,67.0,85.0
861,187.61592446874994,187.81282658541662,62.0,95.0
862,187.35043846874996,187.93008290208329,58.0,64.0
863,187.08495246874995,187.95663150208327,57.0,76.0
864,187.88141046874995,187.9632686520833,62.0,44.0
865,187.88141046874995,188.12034786874995,67.0,88.0
866,188.14689646874996,188.30950664374996,70.0,67.0
867,188.41238246874994,188.88532252499994,41.0,76.0
868,188.67553996874994,188.96467033124995,50.0,63.0
869,188.93640946874996,189.27227894999996,53.0,49.0
870,189.19727896874994,189.47445281249995,55.0,70.0
871,188.41238246874994,189.49510498124994,69.0,76.0
872,188.41238246874994,189.50053976249995,62.0,88.0
873,189.71901796874994,189.92553965624995,65.0,101.0
874,189.19727896874994,189.94293095624994,57.0,48.0
875,189.45814846874995,189.97227877499995,58.0,73.0
876,189.97988746874995,190.03967006249994,65.0,54.0
877,189.97988746874995,190.27336565624995,69.0,103.0
878,190.50162646874995,191.06684371874994,58.0,99.0
879,190.50162646874995,191.25053932499995,63.0,88.0
880,190.50162646874995,191.30162626874994,67.0,88.0
881,191.28423496874996,191.43640884374994,58.0,42.0
882,190.24075696874993,191.43858275624996,70.0,78.0
883,191.02336546874994,191.64401748749995,51.0,63.0
884,191.54510446874994,191.81575657499994,70.0,63.0
885,191.54510446874994,191.87119134374996,58.0,80.0
886,191.54510446874994,191.90162611874996,63.0,73.0
887,191.54510446874994,191.91575654999994,67.0,73.0
888,191.80597396874995,192.22879994999994,51.0,67.0
889,192.06684346874994,192.23749559999993,67.0,60.0
890,190.50162646874995,192.24945211874996,39.0,73.0
891,192.06684346874994,192.30706079999993,58.0,73.0
892,190.76249596874993,192.42119120624994,46.0,69.0
893,192.32771296874995,192.47553901874994,63.0,63.0
894,192.32771296874995,192.48532162499995,67.0,56.0
895,192.58858246874993,193.15053884999995,67.0,80.0
896,192.58858246874993,193.17119101874994,65.0,64.0
897,192.58858246874993,193.19075623124994,60.0,93.0
898,193.37119096874994,193.70597349374995,60.0,80.0
899,193.11032146874996,193.79619086249994,50.0,66.0
900,193.63206046874996,193.81901694374994,65.0,85.0
901,193.89292996874994,194.12988643124996,67.0,91.0
902,192.84945196874995,194.30271247499994,46.0,62.0
903,192.58858246874993,194.36140811249996,38.0,88.0
904,194.15379946874995,194.41249505624995,69.0,82.0
905,194.67553846874995,194.79292974374994,58.0,82.0
906,194.67553846874995,194.79401669999996,36.0,75.0
907,194.67553846874995,194.80271234999995,48.0,88.0
908,194.67553846874995,194.80706017499995,63.0,99.0
909,194.67553846874995,194.82445147499993,67.0,99.0
910,194.93640796874993,195.03423403124995,58.0,85.0
911,194.93640796874993,195.03966881249994,38.0,80.0
912,194.93640796874993,195.04510359374996,50.0,99.0
913,194.93640796874993,195.07445141249994,65.0,88.0
914,194.41466896874994,195.43858175624996,70.0,72.0
915,195.19727746874995,195.45488609999995,58.0,97.0
916,195.19727746874995,195.46249479374995,63.0,99.0
917,195.19727746874995,195.47771218124996,67.0,93.0
918,195.19727746874995,195.52119043124995,51.0,101.0
919,195.19727746874995,195.52771216874996,39.0,80.0
920,195.71901646874994,196.21901634374996,51.0,95.0
921,195.71901646874994,196.29510328124994,70.0,69.0
922,195.71901646874994,196.42010324999995,67.0,97.0
923,195.71901646874994,196.46140758749993,63.0,103.0
924,195.71901646874994,196.47662497499994,58.0,99.0
925,195.71901646874994,196.51358148749995,39.0,88.0
926,196.50162496874995,196.62771189374993,51.0,97.0
927,196.76249446874994,197.27227694999993,67.0,97.0
928,196.76249446874994,197.29401607499994,70.0,67.0
929,196.76249446874994,197.30053781249995,58.0,93.0
930,196.76249446874994,197.31575519999996,63.0,99.0
931,197.54510296874994,197.72336379374994,58.0,75.0
932,197.80597246874996,197.94945069374995,63.0,88.0
933,197.28423346874996,198.08205935624994,53.0,93.0
934,197.02336396874995,198.36358102499995,48.0,61.0
935,198.06684196874994,198.38640710624995,58.0,95.0
936,198.06684196874994,198.44184187499994,67.0,97.0
937,198.06684196874994,198.44836361249995,63.0,101.0
938,198.32771146874995,198.65488529999993,53.0,75.0
939,196.76249446874994,198.65923312499996,41.0,91.0
940,198.58858096874994,198.66901573124994,48.0,62.0
941,198.58858096874994,198.69075485624995,58.0,64.0
942,198.84945046874995,199.32336339374996,62.0,85.0
943,198.84945046874995,199.34618947499996,65.0,88.0
944,198.84945046874995,199.36140686249993,70.0,78.0
945,199.63205896874996,199.79618936249994,65.0,47.0
946,199.89292846874994,199.96792844999993,65.0,40.0
947,199.89292846874994,200.05488494999994,70.0,67.0
948,199.37118946874995,200.18314578749994,58.0,97.0
949,199.11031996874993,200.23749359999994,53.0,67.0
950,200.15379796874996,200.43423268124994,77.0,85.0
951,200.15379796874996,200.45923267499995,70.0,101.0
952,200.41466746874994,200.49510223124994,58.0,85.0
953,200.15379796874996,200.50379788124994,65.0,95.0
954,198.84945046874995,200.50923266249995,46.0,80.0
955,200.41466746874994,200.53423265624994,53.0,63.0
956,200.93640646874994,201.29495856249994,62.0,93.0
957,200.93640646874994,201.3168883541666,66.0,103.0
958,201.46272146874995,201.79934377083327,62.0,75.0
959,200.93640646874994,201.85745771874994,38.0,80.0
960,201.19956396874994,201.8695191041666,50.0,50.0
961,201.72587896874992,201.8728085729166,66.0,82.0
962,201.98903646874993,202.08223808333327,50.0,76.0
963,201.98903646874993,202.10855383333327,62.0,82.0
964,201.98903646874993,202.1096503229166,38.0,82.0
965,201.98903646874993,202.12500117708328,67.0,97.0
966,202.25219396874994,202.48355327083328,62.0,80.0
967,202.25219396874994,202.7247809791666,69.0,95.0
968,202.25219396874994,202.78618439583326,66.0,103.0
969,202.77850896874995,202.94627187499992,62.0,72.0
970,202.77850896874995,202.98574549999995,50.0,88.0
971,203.04166646874992,203.61732349999994,70.0,72.0
972,203.04166646874992,203.63377084374994,62.0,78.0
973,203.04166646874992,203.64034978124994,65.0,88.0
974,203.83113896874994,204.00219134374993,62.0,75.0
975,204.09429646874995,204.25657692708327,65.0,72.0
976,203.56798146874993,204.4221468541666,55.0,70.0
977,203.30482396874993,204.66885701041662,50.0,66.0
978,204.35745396874995,204.7609621354166,62.0,97.0
979,204.35745396874995,204.8399093854166,70.0,73.0
980,204.62061146874993,204.91995312499995,55.0,80.0
981,203.04166646874992,204.94626887499993,43.0,82.0
982,204.88376896874993,205.03179506249992,70.0,53.0
983,204.88376896874993,205.12499667708326,50.0,70.0
984,205.14692646874994,205.51644345833327,69.0,69.0
985,205.14692646874994,205.5274083541666,60.0,73.0
986,205.14692646874994,205.5306978229166,65.0,80.0
987,205.67324146874995,205.87170608333327,60.0,62.0
988,205.41008396874994,206.1392495416666,57.0,63.0
989,205.93639896874993,206.35745096874993,72.0,76.0
990,205.93639896874993,206.43749470833328,65.0,75.0
991,205.93639896874993,206.44078417708326,60.0,49.0
992,206.46271396874994,206.66337156249995,57.0,64.0
993,205.14692646874994,206.70723114583328,50.0,80.0
994,206.72587146874994,207.00766929166662,60.0,78.0
995,206.72587146874994,207.1622743229166,65.0,97.0
996,207.25218646874993,207.60196664583327,67.0,69.0
997,207.25218646874993,207.68968581249993,58.0,82.0
998,207.25218646874993,207.70722964583328,63.0,82.0
999,208.04165896874994,208.2149043229166,58.0,63.0
1000,207.77850146874994,208.33222870833328,51.0,70.0
1001,207.51534396874993,208.47038639583326,46.0,59.0
1002,208.30481646874995,208.6293773854166,67.0,75.0
1003,208.30481646874995,208.6392457916666,58.0,75.0
1004,208.30481646874995,208.6425352604166,63.0,73.0
1005,208.56797396874993,208.94735936458326,46.0,31.0
1006,208.56797396874993,208.95722777083327,51.0,95.0
1007,207.25218646874993,209.00328033333327,39.0,76.0
1008,208.83113146874993,209.02521012499994,58.0,80.0
1009,209.09428896874994,209.2839816666666,65.0,78.0
1010,209.35744646874994,209.75108622916662,60.0,85.0
1011,209.35744646874994,209.78617389583326,65.0,91.0
1012,209.35744646874994,209.82784049999992,69.0,80.0
1013,209.88376146874992,210.07126118749994,67.0,61.0
1014,209.62060396874995,210.30152399999994,57.0,67.0
1015,210.14691896874993,210.35196252083327,62.0,70.0
1016,210.67094596874995,210.85572853124992,57.0,66.0
1017,209.35744646874994,210.90898938749993,50.0,73.0
1018,210.14691896874993,210.96768502499992,69.0,97.0
1019,210.93181546874993,211.01659805624993,62.0,80.0
1020,210.93181546874993,211.24485886874993,70.0,66.0
1021,211.45355446874993,211.58398921874993,48.0,76.0
1022,211.45355446874993,211.59159791249994,36.0,73.0
1023,211.45355446874993,211.60464138749992,63.0,85.0
1024,211.45355446874993,211.60790225624993,58.0,76.0
1025,211.45355446874993,211.63833703124993,67.0,91.0
1026,211.71442396874994,211.82529350624995,50.0,80.0
1027,211.71442396874994,211.82746741874993,38.0,70.0
1028,211.71442396874994,211.83072828749994,58.0,80.0
1029,211.71442396874994,211.85681523749994,65.0,82.0
1030,211.97529346874992,212.09594561249995,51.0,85.0
1031,211.97529346874992,212.26877165624992,58.0,80.0
1032,211.97529346874992,212.27638034999993,67.0,82.0
1033,211.97529346874992,212.30790208124995,63.0,91.0
1034,211.97529346874992,212.61442374374994,39.0,69.0
1035,212.23616296874994,212.61659765624992,51.0,85.0
1036,212.49703246874992,212.63181504374992,58.0,63.0
1037,212.75790196874993,213.01333668749993,51.0,93.0
1038,212.75790196874993,213.11551057499994,58.0,93.0
1039,212.75790196874993,213.16659751874994,67.0,91.0
1040,212.75790196874993,213.22094533124994,63.0,97.0
1041,212.75790196874993,213.30790183124992,39.0,72.0
1042,213.27964096874993,213.40572789374994,51.0,66.0
1043,213.54051046874994,213.96659731874993,70.0,46.0
1044,213.54051046874994,213.99920600624995,58.0,95.0
1045,213.54051046874994,214.07746685624994,67.0,85.0
1046,213.54051046874994,214.20898856249994,63.0,99.0
1047,214.32311896874992,214.65790149374993,53.0,75.0
1048,214.58398846874994,214.92094490624993,58.0,95.0
1049,214.58398846874994,214.94377098749993,67.0,97.0
1050,214.58398846874994,214.95137968124993,63.0,103.0
1051,213.54051046874994,215.15355354374992,41.0,88.0
1052,214.84485796874995,215.31007524374994,53.0,62.0
1053,215.10572746874993,215.31659698124994,65.0,80.0
1054,215.10572746874993,215.36333609999994,58.0,70.0
1055,215.36659696874995,215.55246648749994,67.0,64.0
1056,215.62746646874993,215.98507507499994,58.0,85.0
1057,215.62746646874993,216.26659674374994,70.0,73.0
1058,215.62746646874993,216.28724891249993,62.0,70.0
1059,215.62746646874993,216.29920543124993,65.0,88.0
1060,216.14920546874993,216.50137929374995,58.0,39.0
1061,216.41007496874994,216.81116182499994,62.0,72.0
1062,216.41007496874994,216.85464007499993,65.0,85.0
1063,216.41007496874994,216.86768354999992,70.0,76.0
1064,215.62746646874993,216.88942267499993,46.0,72.0
1065,215.62746646874993,216.91116179999995,53.0,80.0
1066,216.93181396874994,217.03724872499993,68.0,80.0
1067,216.93181396874994,217.04050959374993,46.0,85.0
1068,216.93181396874994,217.04485741874993,57.0,82.0
1069,216.93181396874994,217.05029219999994,70.0,70.0
1070,216.93181396874994,217.06442263124993,63.0,76.0
1071,216.93181396874994,217.06985741249994,45.0,73.0
1072,216.93181396874994,217.07855306249994,60.0,78.0
1073,217.45355296874993,217.79594418749994,56.0,91.0
1074,217.45355296874993,217.97637892499995,68.0,88.0
1075,217.45355296874993,218.01224848124994,63.0,82.0
1076,217.45355296874993,218.01550934999995,60.0,76.0
1077,217.97529196874993,218.06007455624993,56.0,70.0
1078,217.45355296874993,218.09485715624993,44.0,78.0
1079,218.23616146874994,218.37420491249995,65.0,61.0
1080,218.49703096874993,218.79268306874994,53.0,93.0
1081,218.49703096874993,218.92420477499994,67.0,85.0
1082,218.49703096874993,219.07311778124995,63.0,95.0
1083,218.49703096874993,219.08724821249993,58.0,85.0
1084,219.01876996874995,219.31116119999993,53.0,57.0
1085,218.49703096874993,219.37311770624993,41.0,75.0
1086,219.27963946874993,219.37746553124992,48.0,70.0
1087,219.27963946874993,219.38616118124995,58.0,88.0
1088,219.27963946874993,219.38616118124995,63.0,99.0
1089,219.27963946874993,219.41876986874993,67.0,99.0
1090,219.80137846874993,220.27746530624995,51.0,80.0
1091,219.80137846874993,220.42529135624994,62.0,93.0
1092,219.80137846874993,220.50246524999994,63.0,73.0
1093,219.80137846874993,220.52855219999992,58.0,76.0
1094,219.80137846874993,220.58942174999993,67.0,72.0
1095,220.84485646874992,220.90246514999993,62.0,69.0
1096,220.58398696874994,220.92637818749995,51.0,56.0
1097,220.84485646874992,221.17746508124995,58.0,80.0
1098,220.84485646874992,221.18072594999992,67.0,75.0
1099,220.84485646874992,221.20137811874994,63.0,93.0
1100,221.10572596874994,221.21876941874993,51.0,63.0
1101,219.80137846874993,221.22746506874995,39.0,70.0
1102,221.36659546874995,221.49159543749994,38.0,67.0
1103,221.62746496874993,222.04811703749994,48.0,88.0
1104,221.62746496874993,222.14376918749994,67.0,82.0
1105,221.62746496874993,222.28724741249994,60.0,82.0
1106,221.62746496874993,222.29376914999995,70.0,76.0
1107,221.62746496874993,222.30029088749993,63.0,82.0
1108,222.41007346874994,222.51333431249992,60.0,48.0
1109,222.14920396874993,222.67637774999994,48.0,67.0
1110,222.67094296874993,223.15029067499995,67.0,76.0
1111,222.67094296874993,223.19159501249993,70.0,70.0
1112,222.67094296874993,223.21333413749994,60.0,82.0
1113,222.67094296874993,223.24159499999993,63.0,91.0
1114,221.62746496874993,223.49050798124995,36.0,75.0
1115,223.19268196874992,223.53507318749993,48.0,72.0
1116,223.45355146874994,223.59159491249994,70.0,73.0
1117,223.45355146874994,223.60246447499995,67.0,66.0
1118,223.45355146874994,223.61116012499994,60.0,82.0
1119,223.45355146874994,223.62311664374994,63.0,93.0
1120,223.97529046874993,224.40029036249993,62.0,80.0
1121,223.97529046874993,224.43507296249993,70.0,69.0
1122,223.97529046874993,224.46659469374993,65.0,93.0
1123,224.75789896874994,224.88507284999994,65.0,42.0
1124,224.23615996874994,225.06442063124993,53.0,66.0
1125,224.49702946874993,225.12637713749993,58.0,66.0
1126,225.01876846874993,225.25137710624995,65.0,80.0
1127,225.01876846874993,225.27963796874994,70.0,91.0
1128,225.01876846874993,225.31659448124992,74.0,91.0
1129,223.97529046874993,225.32420317499992,46.0,73.0
1130,225.14920321874993,225.33507273749993,53.0,66.0
1131,225.41007271874994,225.54376833749993,72.0,95.0
1132,225.41007271874994,225.54594224999994,65.0,91.0
1133,226.06224646874995,226.39920290624994,62.0,73.0
1134,226.06224646874995,226.42094203124992,66.0,97.0
1135,226.06224646874995,226.42420289999993,69.0,88.0
1136,226.06224646874995,226.56550721249994,38.0,69.0
1137,226.58398546874994,226.69159413749995,62.0,67.0
1138,226.32311596874993,226.78615933124993,50.0,69.0
1139,226.58398546874994,226.80681149999992,67.0,91.0
1140,226.84485496874993,226.94594189999992,62.0,76.0
1141,226.84485496874993,226.98398536874993,69.0,95.0
1142,227.10572446874994,227.17420271249995,66.0,37.0
1143,227.10572446874994,227.36224614374993,54.0,57.0
1144,227.36659396874992,227.56442000624995,66.0,101.0
1145,227.36659396874992,227.59376782499993,74.0,91.0
1146,227.36659396874992,227.73833300624995,62.0,91.0
1147,227.62746346874994,227.84594167499995,54.0,66.0
1148,227.88833296874992,228.08615900624994,67.0,56.0
1149,228.01876771874993,228.11876769374993,69.0,63.0
1150,228.14920246874993,228.53289802499995,62.0,76.0
1151,228.14920246874993,228.55028932499994,70.0,73.0
1152,228.14920246874993,228.70463711249994,67.0,78.0
1153,228.67094146874993,228.76768057499993,62.0,62.0
1154,228.67094146874993,228.82855012499994,69.0,72.0
1155,228.67094146874993,228.98833269374992,55.0,59.0
1156,228.93181096874994,229.26007175624994,70.0,59.0
1157,228.93181096874994,229.28072392499993,62.0,91.0
1158,228.41007196874995,229.46115866249994,50.0,53.0
1159,229.19268046874993,229.54376733749993,55.0,49.0
1160,229.45354996874994,229.77202814999993,62.0,91.0
1161,229.45354996874994,229.79702814374994,70.0,76.0
1162,228.14920246874993,229.81876726874992,43.0,73.0
1163,229.71441946874995,229.86007160624993,50.0,69.0
1164,229.97528896874994,230.08615850624994,62.0,61.0
1165,229.97528896874994,230.12094110624994,70.0,73.0
1166,230.23615846874995,230.71550617499994,69.0,91.0
1167,230.23615846874995,230.76659311874994,65.0,93.0
1168,230.23615846874995,230.82963658124993,60.0,80.0
1169,231.01876696874993,231.21115822499993,60.0,73.0
1170,230.49702796874993,231.32094080624995,50.0,60.0
1171,231.27963646874994,231.36115818749994,65.0,97.0
1172,230.75789746874995,231.75789721874995,53.0,62.0
1173,231.80137546874994,231.95028847499992,74.0,97.0
1174,231.80137546874994,231.98941889999995,82.0,70.0
1175,230.23615846874995,232.00354933124993,41.0,70.0
1176,232.06224496874995,232.18833189374993,72.0,88.0
1177,232.06224496874995,232.19267971874993,81.0,76.0
1178,232.32311446874994,232.77854913749994,79.0,97.0
1179,233.10572296874994,233.23833163124993,58.0,95.0
1180,233.10572296874994,233.25680988749994,65.0,88.0
1181,232.84485346874993,233.65898369999994,51.0,73.0
1182,232.58398396874995,233.66115761249995,46.0,59.0
1183,233.62746196874994,233.92854884999994,58.0,91.0
1184,233.88833146874993,233.95137493124994,51.0,47.0
1185,232.32311446874994,233.98615753124994,39.0,72.0
1186,233.62746196874994,234.00572274374994,63.0,97.0
1187,233.88833146874993,234.05137490624995,46.0,72.0
1188,234.14920096874994,234.25898354999993,58.0,78.0
1189,234.41007046874995,234.74593994999992,69.0,73.0
1190,234.41007046874995,234.77202689999993,60.0,93.0
1191,234.41007046874995,234.77637472499993,65.0,88.0
1192,234.93180946874995,235.08615725624995,60.0,57.0
1193,234.67093996874993,235.23941808749993,50.0,80.0
1194,235.19267896874993,235.37202674999995,69.0,67.0
1195,235.19267896874993,235.53507018749994,60.0,82.0
1196,235.19267896874993,235.54267888124994,65.0,97.0
1197,235.45354846874994,235.65246146249993,50.0,88.0
1198,234.41007046874995,235.65463537499994,38.0,80.0
1199,235.71441796874993,235.86115706249993,69.0,72.0
1200,235.71441796874993,236.04267875624993,60.0,93.0
1201,235.97528746874994,236.10680917499994,65.0,66.0
1202,236.23615696874992,236.36767867499992,67.0,78.0
1203,236.49702646874994,236.77420031249994,67.0,99.0
1204,236.49702646874994,236.83506986249995,58.0,93.0
1205,236.49702646874994,236.90028723749992,63.0,97.0
1206,237.01876546874993,237.13941761249993,58.0,72.0
1207,236.49702646874994,237.34702625624993,51.0,95.0
1208,237.27963496874995,237.37420016249993,63.0,78.0
1209,236.49702646874994,237.38072189999994,39.0,66.0
1210,237.54050446874993,237.62854792499994,58.0,82.0
1211,237.54050446874993,237.62854792499994,63.0,99.0
1212,237.54050446874993,237.65028704999995,51.0,85.0
1213,237.54050446874993,237.65354791874995,67.0,95.0
1214,237.54050446874993,237.69159138749993,39.0,75.0
1215,237.80137396874994,237.88289568749994,63.0,97.0
1216,237.80137396874994,237.88833046874993,51.0,88.0
1217,237.80137396874994,237.89159133749993,58.0,75.0
1218,237.80137396874994,237.90572176874994,67.0,99.0
1219,237.80137396874994,237.91550437499993,39.0,80.0
1220,238.58398246874992,238.86115631249993,53.0,93.0
1221,238.58398246874992,238.88180848124995,67.0,99.0
1222,238.58398246874992,238.94376498749995,58.0,97.0
1223,238.58398246874992,239.02311279374993,63.0,99.0
1224,239.10572146874995,239.39050400624993,53.0,69.0
1225,239.36659096874993,239.46985181249994,63.0,97.0
1226,239.36659096874993,239.50028658749994,58.0,91.0
1227,239.36659096874993,239.58072134999995,67.0,97.0
1228,238.84485196874994,240.06550383749993,48.0,64.0
1229,239.75789521874992,240.20028641249993,53.0,48.0
1230,240.14919946874994,240.26767769999995,58.0,93.0
1231,240.14919946874994,240.27093856874993,48.0,64.0
1232,240.14919946874994,240.27963421874995,63.0,101.0
1233,238.58398246874992,240.31441681874995,41.0,73.0
1234,240.14919946874994,240.32746029374994,67.0,97.0
1235,240.67315085208327,241.09682226041662,55.0,91.0
1236,240.66659064374994,241.1100965604166,60.0,91.0
1237,240.67093846874994,241.1167337104166,64.0,78.0
1238,241.2196095354166,241.34792776874994,55.0,63.0
1239,241.20080427708328,241.43089214374993,62.0,66.0
1240,240.67646942708328,241.55589180208327,48.0,95.0
1241,241.45412216874993,241.8235901854166,55.0,82.0
1242,241.45965312708327,241.99062512708326,60.0,95.0
1243,241.46297170208328,241.9961560854166,64.0,91.0
1244,241.93863411874995,242.22292537708327,48.0,59.0
1245,242.23177491041662,242.40655319374994,67.0,78.0
1246,240.6786818104166,242.47292469374995,36.0,80.0
1247,242.2384120604166,242.4740308854166,55.0,99.0
1248,242.4873051854166,242.6930568354166,48.0,72.0
1249,242.55257049374993,242.6930568354166,59.0,49.0
1250,242.78708312708326,243.01193140624994,56.0,103.0
1251,242.78155216874993,243.02289630208327,59.0,85.0
1252,242.77159644374993,243.0568874791666,40.0,76.0
1253,242.78708312708326,243.06236992708327,64.0,82.0
1254,243.5667551354166,243.75206187499992,68.0,97.0
1255,243.56456215624993,243.90995637499992,64.0,88.0
1256,243.5733340729166,244.14350865624994,56.0,99.0
1257,244.0930701354166,244.42420998958326,64.0,80.0
1258,244.3529381666666,244.51412213541659,56.0,88.0
1259,244.09197364583326,244.5272800104166,69.0,95.0
1260,244.6424114166666,244.86280582291658,71.0,85.0
1261,244.9055689166666,245.34855070833328,45.0,70.0
1262,245.16324396874992,245.43298040624992,52.0,70.0
1263,245.41324359374994,245.74547993749994,57.0,62.0
1264,244.89789348958325,246.0009620104166,72.0,66.0
1265,244.89350753124992,246.04811106249994,64.0,80.0
1266,244.88802508333328,246.05907595833327,67.0,91.0
1267,246.20381258333327,246.42091752083326,64.0,80.0
1268,245.93626912499994,246.48670689583327,60.0,67.0
1269,245.67311162499993,246.51850509374992,59.0,61.0
1270,246.48232093749994,246.55578573958326,64.0,45.0
1271,246.46697008333325,246.69723289583325,67.0,75.0
1272,246.7542503541666,246.8726712291666,67.0,54.0
1273,246.73670652083325,246.8891185729166,72.0,75.0
1274,247.00973242708326,247.41762655208328,43.0,72.0
1275,247.24547768749994,247.51850359374993,52.0,60.0
1276,246.9976710416666,247.73560853124994,62.0,80.0
1277,247.5206965729166,247.8364855729166,55.0,50.0
1278,246.98780263541659,247.86060834374993,67.0,82.0
1279,246.99328508333326,247.88692409374994,71.0,73.0
1280,248.0503010416666,248.52288805208326,62.0,69.0
1281,247.78275758333328,248.55468624999992,59.0,59.0
1282,248.30907258333326,248.6489843541666,67.0,91.0
1283,248.58209848958327,248.89459802083326,72.0,72.0
1284,248.85183492708327,249.13862368958326,71.0,69.0
1285,249.1149168104166,249.85306282083326,69.0,97.0
1286,249.63323539583325,250.07612300208325,53.0,76.0
1287,249.89185589583326,250.45651065416658,60.0,85.0
1288,249.8864679687499,250.46405375208326,65.0,85.0
1289,250.3886227729166,250.68172600624993,53.0,75.0
1290,249.11276163958325,250.73452769166659,41.0,70.0
1291,249.36276145624993,250.79056213333325,48.0,66.0
1292,250.6537087854166,250.9026310166666,60.0,85.0
1293,250.93280340833326,251.16987219999993,69.0,70.0
1294,251.18388081041658,251.52332021666658,62.0,85.0
1295,251.18819115208325,251.58258741458326,67.0,99.0
1296,251.69250112708326,251.83258723124993,62.0,62.0
1297,251.96189748124993,252.0922853166666,67.0,88.0
1298,251.96513023749992,252.1041387562499,62.0,75.0
1299,251.41448408958325,252.15263009999993,52.0,63.0
1300,251.96728540833325,252.17094905208324,74.0,82.0
1301,251.19034632291658,252.79594859374993,40.0,67.0
1302,252.4608195291666,252.87568991458326,52.0,59.0
1303,252.74637966458326,252.90478472083325,84.0,69.0
1304,252.74422449374993,252.92525884374993,76.0,75.0
1305,253.00392257916658,253.06965528958327,84.0,56.0
1306,253.01577601874993,253.08905182708327,83.0,61.0
1307,253.24530171249992,253.58366353333327,81.0,88.0
1308,253.25068963958324,253.59443938749993,77.0,91.0
1309,253.25392239583326,253.64616348749993,72.0,91.0
1310,254.02008562708326,254.36275778958324,57.0,75.0
1311,254.26900785833325,254.46081806249992,60.0,73.0
1312,253.76469788333324,254.5222404312499,53.0,78.0
1313,254.52008526041658,254.61922311874991,60.0,56.0
1314,254.52547318749993,254.6461627541666,57.0,60.0
1315,254.52655077291658,254.9209470354166,64.0,76.0
1316,253.24745688333326,254.95111942708326,41.0,69.0
1317,253.50392221249993,254.9532745979166,48.0,67.0
1318,254.78301610208325,254.96297286666658,53.0,61.0
1319,255.05133487083324,255.2054295854166,57.0,63.0
1320,255.32517389583327,255.62122608333326,65.0,78.0
1321,255.32736687499994,255.7012698229166,55.0,62.0
1322,255.3196914479166,255.77802409374993,60.0,76.0
1323,255.34052474999993,255.87341868749994,50.0,57.0
1324,255.32188442708326,255.92056773958328,57.0,73.0
1325,256.05214648958327,256.3997336874999,50.0,31.0
1326,256.0620148958333,256.51267211458327,55.0,76.0
1327,256.33723378124995,256.64754033333327,65.0,76.0
1328,256.34052324999993,256.6826279999999,57.0,78.0
1329,256.3394267604166,256.69359289583326,60.0,80.0
1330,255.31749846874993,256.71881215624995,43.0,59.0
1331,256.62012809374994,256.7604787604166,50.0,70.0
1332,256.86464527083325,256.93262762499995,65.0,46.0
1333,256.85696984374994,257.0927151041666,57.0,69.0
1334,257.11135542708325,257.2549955624999,65.0,63.0
1335,257.39315324999995,257.80104737499994,48.0,72.0
1336,257.3953462291666,257.8328455729166,64.0,69.0
1337,257.39096027083326,257.84161748958326,60.0,70.0
1338,257.3975392083333,257.8909595208333,55.0,76.0
1339,257.5674950937499,257.94030155208327,62.0,15.0
1340,257.93262612499996,258.3185904583333,48.0,50.0
1341,258.1968801145833,258.6826249999999,62.0,73.0
1342,258.20236256249996,258.7604757604166,55.0,67.0
1343,258.7045547916666,259.2966591666666,48.0,51.0
1344,257.39096027083326,259.32078193749993,36.0,69.0
1345,258.9545544166666,259.32845736458324,55.0,69.0
1346,259.2835012916666,259.38328184374996,43.0,40.0
1347,259.2341592604166,259.3986326979166,60.0,72.0
1348,259.49841324999994,259.81407612291656,55.0,78.0
1349,259.4940272916666,259.8561434249999,60.0,75.0
1350,259.4995097395833,259.86095111666657,64.0,80.0
1351,259.5017027187499,260.2960472124999,48.0,93.0
1352,259.49622027083325,260.3080664416666,36.0,67.0
1353,264.18865046874987,265.5318502083332,60.0,95.0
1354,264.18865046874987,265.5570694687499,57.0,85.0
1355,264.18865046874987,265.64807810416653,65.0,72.0
1356,264.18865046874987,266.06255116666654,53.0,93.0
1357,264.18865046874987,266.1075072395832,41.0,69.0
1358,265.50443796874987,266.12505107291656,48.0,60.0
1359,265.89917421874986,266.25334035416654,57.0,62.0
1360,266.1623317187499,266.4123313437499,60.0,75.0
1361,265.89917421874986,266.4496119895832,64.0,69.0
1362,266.4254892187499,269.4353531249999,55.0,56.0
1363,266.4254892187499,269.4507039791665,62.0,70.0
1364,266.4254892187499,269.4726337708332,59.0,73.0
1365,266.4254892187499,269.5143003749999,43.0,67.0
1366,266.4254892187499,269.55706346874985,67.0,66.0
