,start,end,pitch,velocity
0,15.1145772875,15.529507677083332,62.0,120.0
1,15.5312437875,15.9479102875,62.0,117.0
2,15.9479102875,17.61284017708333,71.0,123.0
3,17.6145762875,18.029506677083333,71.0,116.0
4,18.0312427875,18.44617317708333,71.0,116.0
5,18.4479092875,18.864575787499998,71.0,116.0
6,18.864575787499998,19.0729090375,69.0,116.0
7,19.0729090375,21.7812412875,71.0,119.0
8,21.7812412875,22.19617167708333,62.0,116.0
9,22.1979077875,22.614574287499998,62.0,114.0
10,22.614574287499998,24.279504177083332,71.0,116.0
11,24.281240287499998,24.6979067875,71.0,114.0
12,24.6979067875,25.114573287499997,69.0,114.0
13,25.114573287499997,25.5312397875,67.0,117.0
14,25.5312397875,25.9479062875,69.0,116.0
15,25.9479062875,26.7812392875,71.0,109.0
16,26.7812392875,28.44616917708333,66.0,116.0
17,28.4479052875,28.864571787499997,66.0,123.0
18,28.864571787499997,29.2812382875,67.0,117.0
19,29.2812382875,30.531237787499997,64.0,119.0
20,30.531237787499997,30.946168177083333,67.0,108.0
21,30.9479042875,31.36283467708333,67.0,116.0
22,31.3645707875,31.779501177083333,67.0,114.0
23,31.781237287499998,32.197903787499996,67.0,113.0
24,32.197903787499996,32.6145702875,62.0,110.0
25,32.6145702875,35.1145692875,71.0,114.0
26,35.1145692875,35.52949967708333,67.0,119.0
27,35.531235787499995,35.9479022875,67.0,119.0
28,35.9479022875,37.19616567708333,69.0,114.0
29,37.1979017875,37.612832177083334,69.0,117.0
30,37.6145682875,38.0312347875,69.0,114.0
31,38.0312347875,38.44616517708333,67.0,117.0
32,38.447901287499995,38.8645677875,67.0,117.0
33,38.8645677875,39.6979007875,74.0,120.0
34,39.6979007875,41.77949717708333,69.0,119.0
35,41.7812332875,42.1978997875,69.0,117.0
36,42.1978997875,42.6145662875,67.0,116.0
37,42.6145662875,43.8645657875,71.0,120.0
38,43.8645657875,44.27949617708333,69.0,119.0
39,44.281232287499996,44.69616267708333,69.0,117.0
40,44.697898787499994,45.112829177083334,69.0,114.0
41,45.1145652875,45.5312317875,69.0,116.0
42,45.5312317875,45.947898287499996,67.0,114.0
43,45.947898287499996,48.4478972875,71.0,117.0
44,48.4478972875,48.864563787499996,67.0,119.0
45,48.864563787499996,49.281230287499994,69.0,116.0
46,49.281230287499994,50.52949367708333,71.0,119.0
47,50.531229787499996,50.94616017708333,71.0,117.0
48,50.9478962875,51.3645627875,71.0,114.0
49,51.3645627875,51.7812292875,69.0,116.0
50,51.7812292875,52.197895787499995,67.0,116.0
51,52.197895787499995,52.6145622875,69.0,113.0
52,52.6145622875,53.0312287875,71.0,116.0
53,53.0312287875,53.23782592708333,66.0,116.0
54,53.2395620375,55.114561287499996,66.0,116.0
55,55.114561287499996,55.531227787499994,67.0,120.0
56,55.531227787499994,55.9478942875,66.0,119.0
57,55.9478942875,56.77949117708333,64.0,119.0
58,56.781227287499995,56.9895605375,64.0,113.0
59,56.9895605375,57.6145602875,76.0,114.0
60,57.6145602875,58.447893287499994,74.0,117.0
61,58.447893287499994,58.8645597875,71.0,120.0
62,58.8645597875,59.2812262875,72.0,114.0
63,59.2812262875,60.11282317708333,71.0,119.0
64,60.11455928749999,60.5312257875,71.0,119.0
65,60.5312257875,60.739559037499994,74.0,113.0
66,60.739559037499994,61.77948917708333,67.0,117.0
67,61.7812252875,62.1978917875,67.0,114.0
68,62.1978917875,62.614558287499996,66.0,116.0
69,62.614558287499996,64.6978907875,64.0,114.0
70,64.6978907875,65.11282117708333,67.0,117.0
71,65.11455728749999,65.5312237875,67.0,114.0
72,65.5312237875,65.9478902875,66.0,116.0
73,65.9478902875,67.6145562875,63.0,123.0
74,67.6145562875,68.02948667708333,67.0,117.0
75,68.0312227875,68.44615317708333,67.0,117.0
76,68.44788928749999,68.8645557875,67.0,119.0
77,68.8645557875,69.27948617708333,69.0,117.0
78,69.2812222875,69.69788878749999,69.0,119.0
79,69.69788878749999,69.90448592708333,67.0,117.0
80,69.9062220375,74.27948417708333,67.0,117.0
81,74.28122028749999,74.6978867875,67.0,119.0
82,74.6978867875,75.11281717708333,69.0,117.0
83,75.1145532875,75.53121978749999,69.0,119.0
84,75.53121978749999,75.9478862875,67.0,119.0
85,75.9478862875,76.36281667708333,71.0,119.0
86,76.3645527875,76.7812192875,71.0,116.0
87,76.7812192875,77.1978857875,72.0,113.0
88,77.1978857875,77.61455228749999,74.0,117.0
89,77.61455228749999,78.0312187875,72.0,116.0
90,78.0312187875,78.4478852875,71.0,117.0
91,78.4478852875,78.86455178749999,69.0,117.0
92,78.86455178749999,79.2812182875,67.0,117.0
93,79.2812182875,79.6978847875,69.0,116.0
94,79.6978847875,80.11281517708333,74.0,117.0
95,80.11455128749999,80.5312177875,74.0,119.0
96,80.5312177875,80.7395510375,71.0,110.0
97,80.7395510375,81.36281467708334,74.0,117.0
98,81.3645507875,81.7812172875,74.0,116.0
99,81.7812172875,82.19788378749999,76.0,116.0
100,82.19788378749999,82.6145502875,78.0,113.0
101,82.6145502875,83.02948067708333,79.0,116.0
102,83.0312167875,83.44614717708333,79.0,119.0
103,83.44788328749999,83.8645497875,79.0,116.0
104,83.8645497875,84.2812162875,78.0,119.0
105,84.2812162875,84.69788278749999,76.0,113.0
106,84.69788278749999,85.11281317708332,74.0,116.0
107,85.1145492875,85.5312157875,74.0,113.0
108,85.5312157875,86.3645487875,76.0,114.0
109,86.3645487875,87.61281217708333,71.0,117.0
110,87.6145482875,88.03121478749999,71.0,119.0
111,88.03121478749999,88.44614517708332,74.0,119.0
112,88.4478812875,88.8645477875,74.0,116.0
113,88.8645477875,89.28121428749999,71.0,119.0
114,89.28121428749999,89.69614467708332,76.0,120.0
115,89.6978807875,90.11281117708333,76.0,110.0
116,90.11454728749999,90.5312137875,76.0,117.0
117,90.5312137875,90.94614417708333,74.0,117.0
118,90.9478802875,91.36454678749999,74.0,117.0
119,91.36454678749999,91.57114392708333,67.0,117.0
120,91.5728800375,92.61454628749999,67.0,113.0
121,92.61454628749999,93.02947667708332,71.0,116.0
122,93.0312127875,93.4478792875,71.0,117.0
123,93.4478792875,93.86454578749999,72.0,116.0
124,93.86454578749999,94.2812122875,74.0,117.0
125,94.2812122875,94.69787878749999,67.0,117.0
126,94.69787878749999,95.11280917708334,64.0,116.0
127,95.1145452875,95.5312117875,64.0,116.0
128,95.5312117875,95.94787828749999,67.0,116.0
129,95.94787828749999,96.3645447875,71.0,120.0
130,96.3645447875,96.77947517708333,69.0,117.0
131,96.7812112875,97.19787778749999,69.0,116.0
132,97.19787778749999,97.61280817708332,67.0,119.0
133,97.6145442875,98.0312107875,67.0,117.0
134,98.0312107875,98.44614117708333,64.0,116.0
135,98.44787728749999,98.8645437875,64.0,117.0
136,98.8645437875,99.6978767875,76.0,114.0
137,99.6978767875,100.9478762875,69.0,119.0
138,100.9478762875,101.3645427875,67.0,119.0
139,101.3645427875,101.77947317708333,69.0,117.0
140,101.78120928749999,102.1978757875,69.0,119.0
141,102.1978757875,102.6145422875,67.0,119.0
142,102.6145422875,103.02947267708333,71.0,119.0
143,103.03120878749999,103.4478752875,71.0,116.0
144,103.4478752875,103.86454178749999,72.0,113.0
145,103.86454178749999,104.2812082875,74.0,117.0
146,104.2812082875,104.6978747875,72.0,116.0
147,104.6978747875,105.11454128749999,71.0,117.0
148,105.11454128749999,105.5312077875,69.0,117.0
149,105.5312077875,105.9478742875,67.0,117.0
150,105.9478742875,106.36454078749999,69.0,116.0
151,106.36454078749999,106.77947117708332,74.0,117.0
152,106.7812072875,107.1978737875,74.0,119.0
153,107.1978737875,107.4062070375,71.0,110.0
154,107.4062070375,108.02947067708332,74.0,117.0
155,108.0312067875,108.44787328749999,74.0,116.0
156,108.44787328749999,108.8645397875,76.0,116.0
157,108.8645397875,109.2812062875,78.0,113.0
158,109.2812062875,109.69613667708333,79.0,116.0
159,109.69787278749999,110.11280317708332,79.0,119.0
160,110.1145392875,110.5312057875,79.0,116.0
161,110.5312057875,110.94787228749999,78.0,119.0
162,110.94787228749999,111.3645387875,76.0,113.0
163,111.3645387875,111.77946917708333,74.0,116.0
164,111.7812052875,112.19787178749999,74.0,113.0
165,112.19787178749999,113.03120478749999,76.0,114.0
166,113.03120478749999,114.28120428749999,74.0,117.0
167,114.28120428749999,114.6978707875,71.0,119.0
168,114.6978707875,115.11280117708333,74.0,119.0
169,115.1145372875,115.53120378749999,74.0,116.0
170,115.53120378749999,115.9478702875,71.0,119.0
171,115.9478702875,116.36280067708333,76.0,120.0
172,116.3645367875,116.78120328749999,76.0,110.0
173,116.78120328749999,117.1978697875,74.0,117.0
174,117.1978697875,118.03120278749999,76.0,117.0
175,118.03120278749999,118.44613317708333,67.0,117.0
176,118.4478692875,118.86453578749999,67.0,113.0
177,118.86453578749999,119.27946617708332,74.0,114.0
178,119.2812022875,119.6978687875,74.0,114.0
179,119.6978687875,120.11279917708333,71.0,114.0
180,120.11453528749999,120.5312017875,71.0,114.0
181,120.5312017875,120.74474336875,69.0,114.0
182,120.73953503749999,121.36279867708333,67.0,114.0
183,121.36453478749999,121.77946517708332,67.0,114.0
184,121.7812012875,122.19786778749999,67.0,113.0
185,122.19786778749999,122.61453428749999,69.0,113.0
186,122.61453428749999,123.0312007875,71.0,116.0
187,123.0312007875,123.44613117708333,69.0,117.0
188,123.44786728749999,123.8645337875,69.0,116.0
189,123.8645337875,124.27946417708333,67.0,116.0
190,124.2812002875,124.69786678749999,67.0,119.0
191,124.69786678749999,125.11279717708332,64.0,108.0
192,125.1145332875,125.36106096666666,64.0,110.0
193,125.32286653749999,125.7395330375,67.0,108.0
194,125.7395330375,128.8645317875,69.0,110.0
195,128.8645317875,130.18397570416667,67.0,116.0
196,145.1145252875,145.5311917875,69.0,117.0
197,145.5311917875,145.9478582875,67.0,116.0
198,145.9478582875,147.40619103749998,71.0,120.0
199,147.40619103749998,147.6145242875,62.0,113.0
200,147.6145242875,148.02945467708332,69.0,119.0
201,148.03119078749998,148.4461211770833,69.0,116.0
202,148.4478572875,148.8645237875,69.0,116.0
203,148.8645237875,149.0728570375,67.0,110.0
204,149.0728570375,151.78118928749998,71.0,119.0
205,151.78118928749998,152.1978557875,67.0,119.0
206,152.1978557875,152.6145222875,69.0,116.0
207,152.6145222875,153.86278567708334,71.0,119.0
208,153.8645217875,154.27945217708333,71.0,117.0
209,154.2811882875,154.69785478749998,71.0,114.0
210,154.69785478749998,155.1145212875,69.0,116.0
211,155.1145212875,155.5311877875,67.0,116.0
212,155.5311877875,155.94785428749998,69.0,113.0
213,155.94785428749998,156.3645207875,71.0,116.0
214,156.3645207875,156.57111792708332,66.0,116.0
215,156.57285403749998,158.44785328749998,66.0,116.0
216,158.44785328749998,158.8645197875,67.0,120.0
217,158.8645197875,159.2811862875,66.0,119.0
218,159.2811862875,160.11278317708332,64.0,119.0
219,160.1145192875,160.32285253749998,64.0,113.0
220,160.32285253749998,160.94785228749998,76.0,114.0
221,160.94785228749998,161.7811852875,74.0,117.0
222,161.7811852875,162.19785178749999,71.0,120.0
223,162.19785178749999,162.6145182875,72.0,114.0
224,162.6145182875,163.44611517708333,71.0,119.0
225,163.4478512875,163.86451778749998,71.0,119.0
226,163.86451778749998,164.0728510375,74.0,113.0
227,164.0728510375,165.11278117708332,67.0,117.0
228,165.11451728749998,165.5311837875,67.0,114.0
229,165.5311837875,165.9478502875,66.0,116.0
230,165.9478502875,168.0311827875,64.0,114.0
231,168.0311827875,168.44611317708333,67.0,117.0
232,168.4478492875,168.86451578749998,67.0,114.0
233,168.86451578749998,169.2811822875,66.0,116.0
234,169.2811822875,170.9478482875,63.0,123.0
235,170.9478482875,171.36277867708333,67.0,117.0
236,171.36451478749999,171.77944517708332,67.0,117.0
237,171.7811812875,172.1978477875,67.0,119.0
238,172.1978477875,172.61277817708333,69.0,117.0
239,172.6145142875,173.03118078749998,69.0,119.0
240,173.03118078749998,173.23777792708333,67.0,117.0
241,173.2395140375,177.61277617708333,67.0,117.0
242,177.6145122875,178.03117878749998,67.0,119.0
243,178.03117878749998,178.44610917708331,69.0,117.0
244,178.4478452875,178.8645117875,69.0,119.0
245,178.8645117875,179.28117828749998,67.0,119.0
246,179.28117828749998,179.69610867708332,71.0,119.0
247,179.6978447875,180.1145112875,71.0,116.0
248,180.1145112875,180.53117778749998,72.0,113.0
249,180.53117778749998,180.9478442875,74.0,117.0
250,180.9478442875,181.3645107875,72.0,116.0
251,181.3645107875,181.7811772875,71.0,117.0
252,181.7811772875,182.19784378749998,69.0,117.0
253,182.19784378749998,182.6145102875,67.0,117.0
254,182.6145102875,183.0311767875,69.0,116.0
255,183.0311767875,183.44610717708332,74.0,117.0
256,183.44784328749998,183.8645097875,74.0,119.0
257,183.8645097875,184.07284303749998,71.0,110.0
258,184.07284303749998,184.69610667708332,74.0,117.0
259,184.69784278749998,185.1145092875,74.0,116.0
260,185.1145092875,185.5311757875,76.0,116.0
261,185.5311757875,185.94784228749998,78.0,113.0
262,185.94784228749998,186.3627726770833,79.0,116.0
263,186.3645087875,186.77943917708333,79.0,119.0
264,186.7811752875,187.19784178749998,79.0,116.0
265,187.19784178749998,187.6145082875,78.0,119.0
266,187.6145082875,188.0311747875,76.0,113.0
267,188.0311747875,188.44610517708333,74.0,116.0
268,188.44784128749998,188.8645077875,74.0,113.0
269,188.8645077875,189.69784078749998,76.0,114.0
270,189.69784078749998,190.94610417708333,71.0,117.0
271,190.9478402875,191.36450678749998,71.0,119.0
272,191.36450678749998,191.7794371770833,74.0,119.0
273,191.7811732875,192.1978397875,74.0,116.0
274,192.1978397875,192.61450628749998,71.0,119.0
275,192.61450628749998,193.0294366770833,76.0,120.0
276,193.0311727875,193.44610317708333,76.0,110.0
277,193.4478392875,193.86450578749998,76.0,117.0
278,193.86450578749998,194.2794361770833,74.0,117.0
279,194.2811722875,194.6978387875,74.0,117.0
280,194.6978387875,194.9044359270833,67.0,117.0
281,194.9061720375,195.9478382875,67.0,113.0
282,195.9478382875,196.36276867708332,71.0,116.0
283,196.36450478749998,196.7811712875,71.0,117.0
284,196.7811712875,197.1978377875,72.0,116.0
285,197.1978377875,197.61450428749998,74.0,117.0
286,197.61450428749998,198.0311707875,67.0,117.0
287,198.0311707875,198.44610117708334,64.0,116.0
288,198.4478372875,198.86450378749998,64.0,116.0
289,198.86450378749998,199.28117028749998,67.0,116.0
290,199.28117028749998,199.6978367875,71.0,120.0
291,199.6978367875,200.11276717708333,69.0,117.0
292,200.11450328749999,200.53116978749998,69.0,116.0
293,200.53116978749998,200.9461001770833,67.0,119.0
294,200.9478362875,201.3645027875,67.0,117.0
295,201.3645027875,201.77943317708332,64.0,116.0
296,201.78116928749998,202.1978357875,64.0,117.0
297,202.1978357875,203.03116878749998,76.0,114.0
298,203.03116878749998,204.28116828749998,69.0,119.0
299,204.28116828749998,204.6978347875,67.0,119.0
300,204.6978347875,205.11276517708333,69.0,117.0
301,205.1145012875,205.53116778749998,69.0,119.0
302,205.53116778749998,205.9478342875,67.0,119.0
303,205.9478342875,206.36276467708333,71.0,119.0
304,206.3645007875,206.78116728749998,71.0,116.0
305,206.78116728749998,207.1978337875,72.0,113.0
306,207.1978337875,207.6145002875,74.0,117.0
307,207.6145002875,208.03116678749998,72.0,116.0
308,208.03116678749998,208.44783328749998,71.0,117.0
309,208.44783328749998,208.8644997875,69.0,117.0
310,208.8644997875,209.28116628749999,67.0,117.0
311,209.28116628749999,209.69783278749998,69.0,116.0
312,209.69783278749998,210.1127631770833,74.0,117.0
313,210.1144992875,210.5311657875,74.0,119.0
314,210.5311657875,210.7394990375,71.0,110.0
315,210.7394990375,211.3627626770833,74.0,117.0
316,211.3644987875,211.7811652875,74.0,116.0
317,211.7811652875,212.19783178749998,76.0,116.0
318,212.19783178749998,212.6144982875,78.0,113.0
319,212.6144982875,213.02942867708333,79.0,116.0
320,213.0311647875,213.44609517708332,79.0,119.0
321,213.44783128749998,213.8644977875,79.0,116.0
322,213.8644977875,214.2811642875,78.0,119.0
323,214.2811642875,214.69783078749998,76.0,113.0
324,214.69783078749998,215.1127611770833,74.0,116.0
325,215.1144972875,215.5311637875,74.0,113.0
326,215.5311637875,216.3644967875,76.0,114.0
327,216.3644967875,217.61449628749997,74.0,117.0
328,217.61449628749997,218.0311627875,71.0,119.0
329,218.0311627875,218.44609317708333,74.0,119.0
330,218.44782928749999,218.86449578749998,74.0,116.0
331,218.86449578749998,219.2811622875,71.0,119.0
332,219.2811622875,219.69609267708333,76.0,120.0
333,219.6978287875,220.11449528749998,76.0,110.0
334,220.11449528749998,220.5311617875,74.0,117.0
335,220.5311617875,221.36449478749998,76.0,117.0
336,221.36449478749998,221.7794251770833,67.0,117.0
337,221.7811612875,222.1978277875,67.0,113.0
338,222.1978277875,222.61275817708332,74.0,114.0
339,222.61449428749998,223.0311607875,74.0,114.0
340,223.0311607875,223.44609117708333,71.0,114.0
341,223.4478272875,223.86449378749998,71.0,114.0
342,223.86449378749998,224.07803536875,69.0,114.0
343,224.0728270375,224.69609067708333,67.0,114.0
344,224.6978267875,225.11275717708332,67.0,114.0
345,225.11449328749998,225.5311597875,67.0,113.0
346,225.5311597875,225.9478262875,69.0,113.0
347,225.9478262875,226.36449278749998,71.0,116.0
348,226.36449278749998,226.77942317708332,69.0,117.0
349,226.78115928749997,227.1978257875,69.0,116.0
350,227.1978257875,227.61275617708333,67.0,116.0
351,227.61449228749998,228.03115878749998,67.0,119.0
352,228.03115878749998,228.4460891770833,64.0,108.0
353,228.4478252875,228.69435296666666,64.0,110.0
354,228.65615853749998,229.0728250375,67.0,108.0
355,229.0728250375,232.1978237875,69.0,110.0
356,232.1978237875,235.94782228749997,67.0,116.0
