,start,end,pitch,velocity
0,3.4479152875,3.8906234437499996,67.0,87.0
1,3.8645817874999997,5.0746507479166665,71.0,98.0
2,2.6145822874999998,5.678817172916666,55.0,100.0
3,3.0312487875,6.050344802083333,62.0,82.0
4,6.781247287499999,7.2395804375,62.0,104.0
5,5.9479142875,8.243052258333332,55.0,108.0
6,7.197913787499999,8.859371456249999,67.0,114.0
7,8.447913287499999,8.881940891666666,55.0,86.0
8,6.3645807875,8.940968645833333,59.0,86.0
9,9.6979127875,10.157982047916667,59.0,100.0
10,10.1145792875,10.513884683333332,62.0,113.0
11,9.2812462875,12.409717258333332,55.0,108.0
12,10.5312457875,12.637147722916666,67.0,116.0
13,11.781245287499999,12.722217133333332,62.0,87.0
14,13.031244787499999,13.487841827083333,59.0,86.0
15,13.447911287499998,13.916661099999999,62.0,86.0
16,12.614578287499999,14.684021904166666,55.0,91.0
17,15.1145772875,15.809021454166666,55.0,84.0
18,13.8645777875,15.998257489583333,67.0,114.0
19,16.3645767875,18.227423264583333,59.0,77.0
20,17.1979097875,18.295131570833334,67.0,93.0
21,16.7812432875,18.605895335416665,62.0,90.0
22,18.4479092875,18.982631295833333,59.0,80.0
23,18.4479092875,19.03645071875,67.0,40.0
24,15.9479102875,19.11978401875,55.0,107.0
25,20.1145752875,20.600686204166667,66.0,83.0
26,19.697908787499998,20.699644497916665,62.0,84.0
27,20.531241787499997,21.76908851458333,69.0,98.0
28,21.3645747875,22.145824474999998,62.0,77.0
29,21.7812412875,22.1666578,64.0,84.0
30,19.2812422875,22.583324299999997,54.0,88.0
31,22.1979077875,22.659713158333332,69.0,84.0
32,22.614574287499998,23.402768416666664,67.0,86.0
33,23.447907287499998,23.868046008333334,64.0,82.0
34,23.8645737875,25.020823325,62.0,86.0
35,23.8645737875,25.04512887083333,67.0,86.0
36,23.0312407875,25.5937397625,59.0,73.0
37,22.614574287499998,25.612836977083333,52.0,85.0
38,25.114573287499997,25.821170227083332,62.0,82.0
39,25.114573287499997,25.892350754166664,67.0,83.0
40,25.9479062875,26.656239337499997,66.0,87.0
41,25.9479062875,26.798600391666664,62.0,86.0
42,26.7812392875,27.184016904166665,64.0,81.0
43,26.3645727875,27.717002802083332,57.0,70.0
44,27.197905787499998,28.09894709375,62.0,85.0
45,27.197905787499998,28.11804430833333,66.0,103.0
46,28.031238787499998,28.744780168749998,57.0,79.0
47,28.4479052875,28.934016204166664,62.0,100.0
48,28.4479052875,29.23262719583333,66.0,113.0
49,25.9479062875,29.267349404166666,50.0,85.0
50,29.2812382875,29.678807572916664,60.0,86.0
51,29.2812382875,30.09200185208333,67.0,89.0
52,30.1145712875,31.01387648333333,60.0,79.0
53,30.531237787499997,31.274293045833332,72.0,88.0
54,30.531237787499997,31.352418014583332,64.0,88.0
55,31.3645707875,32.03297329791666,60.0,76.0
56,29.697904787499997,32.14929269583333,55.0,71.0
57,29.2812382875,32.16491768958333,48.0,87.0
58,31.781237287499998,32.5833203,67.0,98.0
59,31.781237287499998,32.58505641041666,64.0,93.0
60,32.6145702875,34.55727784375,55.0,87.0
61,33.4479032875,34.82811106875,67.0,83.0
62,33.0312367875,34.86109716666667,59.0,73.0
63,33.864569787499995,34.94963879791666,62.0,86.0
64,34.6979027875,35.78470790833333,55.0,77.0
65,35.1145692875,35.79512457083333,59.0,87.0
66,35.531235787499995,35.96179117083333,62.0,84.0
67,37.1979017875,37.975679254166664,60.0,87.0
68,36.781235287499996,38.45831795,57.0,85.0
69,36.3645687875,38.46352628125,52.0,82.0
70,35.9479022875,38.520817924999996,45.0,94.0
71,38.447901287499995,38.86804000833333,49.0,78.0
72,38.447901287499995,39.31769260625,61.0,86.0
73,38.447901287499995,39.64060914375,69.0,84.0
74,40.5312337875,40.99651137916666,67.0,88.0
75,39.6979007875,41.328108468749996,57.0,83.0
76,40.114567287499995,41.902761016666666,62.0,87.0
77,41.7812332875,42.149288695833334,57.0,84.0
78,39.2812342875,42.24303865833333,50.0,91.0
79,40.9479002875,42.6562329375,66.0,86.0
80,42.1978997875,42.72567735416666,62.0,82.0
81,43.4478992875,44.770815424999995,55.0,86.0
82,43.8645657875,44.80900985416667,59.0,87.0
83,43.8645657875,45.27949577708333,67.0,88.0
84,45.1145652875,45.45484292916667,55.0,86.0
85,42.6145662875,45.472204033333334,43.0,93.0
86,43.031232787499995,45.72046782291667,50.0,75.0
87,45.5312317875,46.21352318125,59.0,81.0
88,45.5312317875,46.28817592916666,67.0,84.0
89,44.697898787499994,46.34720368333333,62.0,84.0
90,46.7812312875,47.66491148958333,54.0,83.0
91,47.1978977875,48.45831395,66.0,87.0
92,47.1978977875,48.522550035416664,57.0,92.0
93,45.947898287499996,48.75692494166666,42.0,85.0
94,46.3645647875,48.79511937083333,50.0,78.0
95,48.4478972875,48.848938793749994,54.0,97.0
96,48.864563787499996,49.220466422916665,57.0,88.0
97,48.0312307875,49.229146975,62.0,86.0
98,49.281230287499994,49.687480125,64.0,85.0
99,50.1145632875,50.55553533333333,62.0,87.0
100,49.6978967875,51.14234065416667,59.0,83.0
101,50.1145632875,51.37150722916667,67.0,90.0
102,50.531229787499996,51.439215535416665,64.0,88.0
103,51.3645627875,51.795118170833334,59.0,88.0
104,51.7812292875,52.1770624625,67.0,98.0
105,51.7812292875,52.208312449999994,62.0,96.0
106,49.281230287499994,52.22220133333333,52.0,88.0
107,52.197895787499995,52.65449282708333,64.0,81.0
108,52.197895787499995,52.65796504791666,59.0,81.0
109,52.6145622875,53.036437118749994,66.0,86.0
110,52.6145622875,53.08852043125,62.0,85.0
111,53.0312287875,54.210047760416664,57.0,79.0
112,53.447895287499996,54.74303365833333,69.0,104.0
113,53.447895287499996,54.762130872916664,62.0,89.0
114,54.9062280375,55.07983907916666,62.0,82.0
115,55.114561287499996,55.49129724791666,67.0,114.0
116,54.6978947875,55.51907501458333,57.0,74.0
117,52.6145622875,55.55900555416667,50.0,85.0
118,55.531227787499994,56.04685258125,69.0,86.0
119,55.9478942875,56.793380060416666,67.0,92.0
120,55.9478942875,56.81942171666666,64.0,91.0
121,56.781227287499995,57.23435210625,60.0,86.0
122,56.3645607875,57.355879835416665,55.0,70.0
123,55.9478942875,57.44094924583333,48.0,88.0
124,56.9895605375,57.56421308541666,67.0,108.0
125,57.6145602875,58.28990723958333,69.0,88.0
126,57.6145602875,58.293379460416666,66.0,90.0
127,57.6145602875,58.30900445416666,62.0,87.0
128,58.447893287499994,59.06421248541666,62.0,91.0
129,58.447893287499994,59.08157358958333,69.0,91.0
130,58.447893287499994,59.104143025,66.0,91.0
131,57.6145602875,59.156226337499994,48.0,86.0
132,59.2812262875,59.88018438125,59.0,93.0
133,59.2812262875,59.92011492083333,62.0,100.0
134,59.2812262875,59.923587141666665,67.0,92.0
135,59.2812262875,60.08157318958333,55.0,84.0
136,60.11455928749999,60.833309,66.0,91.0
137,60.11455928749999,60.86629509791666,62.0,104.0
138,60.11455928749999,60.9166423,54.0,85.0
139,60.9478922875,61.39928099583333,64.0,89.0
140,60.9478922875,61.43573931458333,67.0,91.0
141,61.364558787499995,62.062475174999996,59.0,85.0
142,61.7812252875,62.43921113541666,67.0,108.0
143,61.7812252875,62.51386388333333,64.0,93.0
144,60.9478922875,62.57636385833333,52.0,89.0
145,62.614558287499996,62.90969705833333,60.0,88.0
146,62.614558287499996,63.12323863958333,67.0,93.0
147,62.614558287499996,63.36803020833333,64.0,90.0
148,63.4478912875,63.82983557916666,62.0,98.0
149,63.4478912875,63.86803000833333,67.0,94.0
150,63.8645577875,64.62323803958333,60.0,79.0
151,64.2812242875,65.21177947083333,64.0,90.0
152,64.2812242875,65.29337666041667,72.0,92.0
153,65.3228905375,65.56594599583333,67.0,90.0
154,65.11455728749999,65.60240431458332,60.0,88.0
155,62.614558287499996,65.6145570875,48.0,88.0
156,63.031224787499994,65.86629309791667,55.0,77.0
157,65.5312237875,65.87844587083333,72.0,102.0
158,65.9478902875,66.57462614791666,72.0,96.0
159,65.9478902875,66.64754278541666,63.0,103.0
160,66.7812232875,67.40275081666667,72.0,98.0
161,66.7812232875,67.57636185833333,63.0,93.0
162,67.6145562875,68.0520561125,67.0,91.0
163,67.4062230375,68.06420888541666,60.0,83.0
164,68.0312227875,68.30552823333333,72.0,84.0
165,68.0312227875,68.34198655208333,63.0,89.0
166,68.2395560375,68.88886133333332,60.0,86.0
167,68.44788928749999,68.895805775,63.0,100.0
168,65.9478902875,68.97740296458333,48.0,89.0
169,66.5728900375,68.99650017916666,55.0,32.0
170,68.44788928749999,69.18226399375,72.0,89.0
171,68.8645557875,69.25691674166666,67.0,83.0
172,69.2812222875,69.83156928958333,67.0,96.0
173,69.2812222875,69.86108316666666,59.0,102.0
174,69.9062220375,70.33156908958333,55.0,81.0
175,70.1145552875,70.69962449791666,67.0,98.0
176,70.1145552875,70.76733280416666,62.0,110.0
177,70.7395550375,71.104138225,55.0,87.0
178,70.94788828749999,71.46524919166666,60.0,110.0
179,71.3645547875,71.81420738541667,55.0,88.0
180,71.7812212875,72.229137775,62.0,114.0
181,69.2812222875,72.2603877625,43.0,89.0
182,72.1978877875,72.48434600625,55.0,87.0
183,69.69788878749999,72.53642931875,50.0,70.0
184,72.6145542875,72.93399860416666,67.0,102.0
185,72.6145542875,72.97740136458333,59.0,92.0
186,72.6145542875,73.21177627083333,62.0,110.0
187,73.4478872875,73.79858159166666,59.0,113.0
188,73.2395540375,73.86802600833333,55.0,113.0
189,73.4478872875,74.37844247083333,67.0,110.0
190,73.8645537875,74.41837301041666,62.0,91.0
191,74.28122028749999,74.78295619791666,55.0,108.0
192,74.6978867875,75.35066430416666,67.0,94.0
193,74.6978867875,75.38191429166666,62.0,110.0
194,75.1145532875,75.63365030208332,55.0,108.0
195,75.53121978749999,75.6353864125,67.0,87.0
196,72.6145542875,75.65795584791667,43.0,100.0
197,73.03122078749999,75.69962249791666,50.0,87.0
198,75.53121978749999,75.83503911041666,62.0,102.0
199,75.9478862875,76.1145528875,59.0,100.0
200,75.9478862875,76.26385838333333,62.0,110.0
201,75.9478862875,76.32288613749999,67.0,104.0
202,76.7812192875,77.18573301458333,62.0,100.0
203,76.7812192875,77.20309411875,71.0,100.0
204,76.7812192875,77.2395524375,67.0,96.0
205,77.1978857875,77.78816332916666,55.0,87.0
206,77.61455228749999,78.2499687,71.0,98.0
207,77.61455228749999,78.25691314166666,62.0,93.0
208,77.61455228749999,78.2812186875,67.0,102.0
209,75.9478862875,78.60587133541667,43.0,94.0
210,76.3645527875,78.69788518749999,50.0,74.0
211,78.4478852875,78.7603851625,62.0,107.0
212,78.6562185375,78.8228851375,67.0,87.0
213,78.23955203749999,78.86107956666666,55.0,91.0
214,78.86455178749999,79.19441276666666,71.0,102.0
215,79.2812182875,79.95656523958333,62.0,88.0
216,79.2812182875,79.96177357083333,69.0,91.0
217,79.2812182875,79.99302355833333,66.0,90.0
218,79.2812182875,80.4166345,54.0,95.0
219,80.11455128749999,80.61107886666666,69.0,110.0
220,80.11455128749999,80.61281497708333,66.0,113.0
221,80.11455128749999,80.62843997083333,62.0,98.0
222,80.7395510375,80.78816212916666,66.0,93.0
223,80.7395510375,80.80552323333333,69.0,96.0
224,80.7395510375,80.812467675,62.0,91.0
225,80.5312177875,81.30378692291666,54.0,85.0
226,81.1562175375,81.55552293333334,69.0,107.0
227,81.1562175375,81.56420348541666,62.0,102.0
228,81.1562175375,81.56593959583333,66.0,113.0
229,81.57288403749999,81.82635615833333,54.0,119.0
230,81.7812172875,82.23781432708333,62.0,113.0
231,81.7812172875,82.31767540624999,69.0,116.0
232,81.7812172875,82.3853837125,66.0,119.0
233,82.19788378749999,82.61281417708332,54.0,113.0
234,82.6145502875,83.1770500625,71.0,102.0
235,82.6145502875,83.1978833875,67.0,108.0
236,82.6145502875,83.2395500375,64.0,96.0
237,83.2395500375,83.73434150624999,59.0,83.0
238,83.44788328749999,83.83850813125,67.0,110.0
239,83.44788328749999,84.14579967499999,71.0,108.0
240,83.44788328749999,84.19093854583333,64.0,107.0
241,83.8645497875,84.36628569791667,59.0,80.0
242,84.2812162875,84.69093834583333,67.0,100.0
243,84.2812162875,84.72392444375,71.0,100.0
244,84.2812162875,84.77774386666667,64.0,102.0
245,84.9062160375,84.97739656458333,62.0,87.0
246,84.69788278749999,85.19788258749999,59.0,86.0
247,85.1145492875,85.36628529791666,71.0,102.0
248,85.1145492875,85.39232695416666,62.0,100.0
249,85.1145492875,85.39232695416666,67.0,107.0
250,85.32288253749999,85.60413242499999,59.0,89.0
251,82.6145502875,85.64927129583333,52.0,91.0
252,85.5312157875,85.72566015416666,71.0,89.0
253,85.5312157875,85.74475736875,64.0,104.0
254,85.5312157875,85.76906291458333,67.0,100.0
255,85.9478822875,86.56593759583333,62.0,89.0
256,85.9478822875,86.56940981666666,69.0,92.0
257,86.78121528749999,87.25170121041666,69.0,104.0
258,86.78121528749999,87.34892339375,62.0,96.0
259,87.1978817875,87.36628449791667,66.0,87.0
260,86.5728820375,87.47045112291666,57.0,86.0
261,87.40621503749999,87.71697880208333,62.0,94.0
262,87.40621503749999,87.76558989374999,69.0,113.0
263,87.6145482875,88.14753418541666,57.0,91.0
264,88.03121478749999,88.26385358333333,69.0,86.0
265,88.03121478749999,88.29857579166666,62.0,88.0
266,88.2395480375,88.65274231666666,57.0,113.0
267,88.4478812875,88.687464525,69.0,108.0
268,88.4478812875,88.80552003333332,62.0,107.0
269,88.65621453749999,88.84024224166666,66.0,103.0
270,88.8645477875,89.1978809875,67.0,96.0
271,85.9478822875,89.22392264375,50.0,91.0
272,89.28121428749999,89.36281147708333,60.0,81.0
273,89.28121428749999,89.87843627083333,72.0,108.0
274,89.28121428749999,89.88190849166666,64.0,93.0
275,89.90621403749999,90.34024164166667,60.0,76.0
276,90.11454728749999,90.77253313541667,64.0,104.0
277,90.11454728749999,90.79510257083332,72.0,104.0
278,90.73954703749999,90.80725534375,67.0,88.0
279,90.5312137875,91.37669956041667,60.0,77.0
280,91.1562135375,91.61975501875,64.0,91.0
281,91.1562135375,91.62843557083333,72.0,87.0
282,91.5728800375,92.14058814375,60.0,89.0
283,91.7812132875,92.23086588541666,64.0,104.0
284,89.28121428749999,92.24128254791667,48.0,89.0
285,92.1978797875,92.57461574791667,67.0,86.0
286,92.4062130375,92.60933795625,64.0,83.0
287,91.7812132875,92.65968515833333,72.0,91.0
288,92.61454628749999,93.1562127375,62.0,113.0
289,92.61454628749999,93.28294879791666,67.0,98.0
290,93.0312127875,93.60065700416666,55.0,76.0
291,93.4478792875,94.062462375,62.0,96.0
292,93.4478792875,94.0937123625,67.0,102.0
293,94.0728790375,94.53989273958332,55.0,78.0
294,94.2812122875,94.82808706875,62.0,107.0
295,94.2812122875,94.84371206249999,67.0,113.0
296,94.9062120375,95.17010082083333,55.0,91.0
297,95.1145452875,95.41142016875,67.0,116.0
298,95.1145452875,95.47739236458332,62.0,114.0
299,92.61454628749999,95.6978783875,43.0,91.0
300,95.32287853749999,95.71176727083333,55.0,94.0
301,95.5312117875,95.86975331875,67.0,102.0
302,95.94787828749999,96.46176697083332,60.0,93.0
303,95.94787828749999,96.48607251666667,69.0,89.0
304,95.94787828749999,96.49128084791666,64.0,102.0
305,96.57287803749999,96.94093344583332,57.0,42.0
306,96.7812112875,97.28641941875,60.0,96.0
307,96.7812112875,97.34371106249999,69.0,100.0
308,96.7812112875,97.38884993333333,64.0,113.0
309,97.4062110375,97.76384978333333,57.0,81.0
310,97.6145442875,97.81072476458333,60.0,104.0
311,97.6145442875,98.17009962083333,69.0,104.0
312,97.6145442875,98.22912737499999,64.0,116.0
313,98.2395440375,98.51905781458333,57.0,91.0
314,95.94787828749999,98.91489098958333,45.0,86.0
315,98.44787728749999,99.13364090208333,69.0,113.0
316,98.44787728749999,99.15968255833333,64.0,119.0
317,98.8645437875,99.20134920833333,57.0,91.0
318,99.28121028749999,99.54509907083333,62.0,96.0
319,99.28121028749999,99.6353768125,66.0,109.0
320,99.28121028749999,99.67009902083333,69.0,93.0
321,99.90621003749999,100.21523769166666,62.0,87.0
322,100.1145432875,100.43225149375,74.0,104.0
323,100.1145432875,100.48433480624999,66.0,109.0
324,100.53120978749999,100.66489028958333,62.0,88.0
325,99.6978767875,100.99301515833332,57.0,82.0
326,100.9478762875,101.16489008958332,62.0,102.0
327,100.9478762875,101.22912617499999,66.0,103.0
328,100.9478762875,101.26558449375,69.0,108.0
329,101.3645427875,101.69266765625,57.0,83.0
330,101.5728760375,101.92704256249999,74.0,94.0
331,101.5728760375,101.95482032916667,66.0,97.0
332,101.78120928749999,102.10759804583333,57.0,64.0
333,101.9895425375,102.16836191041666,74.0,104.0
334,101.9895425375,102.18051468333333,66.0,100.0
335,99.28121028749999,102.31766740625,50.0,91.0
336,102.6145422875,102.99822268958333,62.0,94.0
337,102.6145422875,103.04683378125,71.0,98.0
338,102.6145422875,103.13016708125,67.0,110.0
339,103.03120878749999,103.45829194999999,55.0,68.0
340,103.4478752875,103.92530565208332,71.0,86.0
341,103.4478752875,103.96350008124999,62.0,89.0
342,103.4478752875,103.98606951666666,67.0,89.0
343,104.0728750375,104.13190279166666,62.0,88.0
344,104.0728750375,104.13190279166666,71.0,88.0
345,104.0728750375,104.13537501249999,67.0,96.0
346,103.86454178749999,104.61454148749999,55.0,81.0
347,104.48954153749999,104.91488858958333,62.0,91.0
348,104.48954153749999,104.92704136249999,71.0,94.0
349,104.48954153749999,104.93224969375,67.0,96.0
350,104.9062080375,105.21349958124999,55.0,91.0
351,105.11454128749999,105.45308281874999,62.0,110.0
352,105.11454128749999,105.46697170208333,71.0,107.0
353,102.6145422875,105.57808276875,43.0,88.0
354,105.5312077875,105.71870771249999,71.0,81.0
355,105.5312077875,105.82981877916666,67.0,100.0
356,105.9478742875,106.52773516666666,66.0,100.0
357,105.9478742875,106.54856849166666,62.0,89.0
358,105.9478742875,106.57808236874999,69.0,92.0
359,105.9478742875,106.87842947083332,54.0,85.0
360,106.7812072875,107.23606821666667,69.0,107.0
361,106.7812072875,107.24127654791666,62.0,102.0
362,106.7812072875,107.25863765208332,66.0,113.0
363,107.4062070375,107.46697090208333,69.0,98.0
364,107.4062070375,107.46870701249999,66.0,97.0
365,107.4062070375,107.479123675,62.0,92.0
366,107.1978737875,107.84544297291666,54.0,86.0
367,107.8228735375,108.25516503124999,62.0,98.0
368,107.8228735375,108.27252613541665,69.0,110.0
369,108.23954003749999,108.49474826875,54.0,113.0
370,108.44787328749999,108.73085928541666,69.0,113.0
371,105.9478742875,108.74301205833332,42.0,86.0
372,108.44787328749999,108.74301205833332,62.0,113.0
373,108.6562065375,108.91141476874999,54.0,113.0
374,108.8645397875,108.95655363958333,62.0,84.0
375,108.8645397875,109.07981747916666,66.0,119.0
376,109.07287303749999,109.24301185833333,69.0,88.0
377,109.2812062875,109.79856719166666,71.0,93.0
378,109.2812062875,109.85238661458332,64.0,91.0
379,109.2812062875,109.90273381666665,67.0,110.0
380,110.1145392875,110.62495575,71.0,98.0
381,110.1145392875,110.75169181041666,67.0,110.0
382,110.1145392875,110.77426124583333,64.0,100.0
383,110.7395390375,111.32634435833333,59.0,87.0
384,110.94787228749999,111.54509427083333,71.0,91.0
385,110.94787228749999,111.58849703125,64.0,94.0
386,110.94787228749999,111.59023314166666,67.0,102.0
387,111.57287203749999,111.84196915208332,59.0,87.0
388,111.7812052875,112.26558009374999,64.0,96.0
389,111.7812052875,112.31419118541666,71.0,96.0
390,109.2812062875,112.32460784791667,52.0,89.0
391,111.7812052875,112.49301055833332,67.0,107.0
392,112.19787178749999,112.62669106041666,59.0,82.0
393,112.6145382875,113.09196865208332,69.0,102.0
394,112.6145382875,113.0937047625,66.0,103.0
395,112.6145382875,113.12669086041666,62.0,92.0
396,113.44787128749999,113.82113502708333,62.0,89.0
397,113.44787128749999,113.84544057291666,69.0,93.0
398,114.28120428749999,114.34196815208333,66.0,95.0
399,113.8645377875,114.65794024791666,59.0,86.0
400,114.28120428749999,114.83849573124999,62.0,89.0
401,114.28120428749999,114.85238461458333,69.0,93.0
402,114.6978707875,114.95134290833333,66.0,86.0
403,112.6145382875,115.56071766458332,47.0,88.0
404,115.1145372875,115.56766210625,69.0,110.0
405,114.90620403749999,115.64057874375,59.0,104.0
406,113.03120478749999,115.65446762708332,54.0,67.0
407,115.1145372875,115.85238421458332,62.0,114.0
408,115.53120378749999,116.04162025,66.0,100.0
409,115.9478702875,116.46349508124999,67.0,108.0
410,115.9478702875,116.66314777916666,64.0,107.0
411,116.78120328749999,117.35238361458333,62.0,93.0
412,116.78120328749999,117.38016138124999,67.0,102.0
413,117.61453628749999,118.06071666458332,67.0,113.0
414,117.61453628749999,118.06418888541666,64.0,113.0
415,118.03120278749999,118.51557759375,60.0,86.0
416,116.3645367875,118.66835531041666,55.0,74.0
417,115.9478702875,118.69613307708333,48.0,98.0
418,118.4478692875,118.88884133333333,64.0,114.0
419,118.86453578749999,118.98259129583333,48.0,86.0
420,118.4478692875,119.11974401875,67.0,114.0
421,119.2812022875,119.69439656666665,59.0,96.0
422,119.2812022875,119.73779932708332,67.0,92.0
423,119.2812022875,119.82807706874999,62.0,108.0
424,119.6978687875,120.13710472291666,55.0,69.0
425,120.5312017875,120.64578507499999,55.0,84.0
426,120.11453528749999,120.69266005624999,67.0,96.0
427,119.2812022875,120.71002116041666,43.0,87.0
428,120.11453528749999,120.78120168749999,62.0,113.0
429,121.36453478749999,121.94960399791665,52.0,89.0
430,121.7812012875,122.11974281875,59.0,107.0
431,120.9478682875,122.19265945625,40.0,88.0
432,121.7812012875,122.25863165208332,67.0,102.0
433,121.7812012875,122.31418718541666,64.0,108.0
434,122.19786778749999,122.33849273125,52.0,88.0
435,122.61453428749999,122.94092304583333,60.0,90.0
436,122.61453428749999,122.94786748749999,67.0,92.0
437,122.61453428749999,122.96870081249999,64.0,98.0
438,123.44786728749999,123.93397820416666,67.0,91.0
439,123.44786728749999,124.01210317291665,60.0,90.0
440,123.44786728749999,124.05550593333332,64.0,102.0
441,124.2812002875,124.63883903333333,60.0,88.0
442,124.2812002875,124.70654733958332,64.0,92.0
443,124.2812002875,124.74300565833333,67.0,90.0
444,124.9062000375,125.35585263541665,55.0,79.0
445,125.1145332875,125.53988033958332,60.0,100.0
446,122.61453428749999,125.62842197083333,48.0,98.0
447,125.1145332875,125.76904691458333,67.0,107.0
448,125.5311997875,125.96349128124999,55.0,64.0
449,125.94786628749999,126.61453268749999,69.0,92.0
450,125.94786628749999,126.63015768125,62.0,88.0
451,125.94786628749999,126.65793544791666,66.0,97.0
452,126.78119928749999,127.31939351666666,62.0,89.0
453,126.78119928749999,127.37321293958333,66.0,89.0
454,126.78119928749999,127.37842127083333,69.0,88.0
455,127.40619903749999,128.7811984875,57.0,81.0
456,125.94786628749999,128.8159206958333,50.0,86.0
457,127.6145322875,128.90446232708334,69.0,104.0
458,127.6145322875,128.94960119791665,62.0,104.0
459,129.2811982875,130.01557299375,67.0,87.0
460,129.2811982875,130.07633685833332,59.0,81.0
461,130.1145312875,130.84890599374998,67.0,84.0
462,130.1145312875,130.92355874166665,60.0,89.0
463,130.5311977875,131.24473916875,55.0,74.0
464,130.94786428749998,131.604114025,67.0,84.0
465,130.94786428749998,131.61973901874998,59.0,86.0
466,130.94786428749998,131.67182233124998,62.0,86.0
467,131.57286403749998,132.04161385,55.0,71.0
468,131.7811972875,132.21696100208334,67.0,40.0
469,129.2811982875,132.41834981041666,43.0,83.0
470,132.19786378749998,132.53119698749998,55.0,71.0
471,129.69786478749998,132.5728636375,50.0,65.0
472,131.7811972875,132.58328029999998,60.0,91.0
473,132.6145302875,133.19265505625,66.0,97.0
474,132.6145302875,133.26557169375,62.0,94.0
475,133.0311967875,133.56939101666666,54.0,63.0
476,133.44786328749998,133.92529365208333,66.0,86.0
477,133.44786328749998,134.24473796875,62.0,91.0
478,133.8645297875,134.69959889791667,54.0,74.0
479,134.2811962875,134.88362660208332,59.0,88.0
480,134.2811962875,134.9478626875,66.0,86.0
481,134.9061960375,135.22390424374998,54.0,80.0
482,132.6145302875,135.55550133333332,42.0,78.0
483,135.1145292875,135.56765410625,66.0,116.0
484,135.5311957875,135.60411242499998,54.0,83.0
485,135.1145292875,135.85237621458333,62.0,113.0
486,135.9478622875,136.47737596458333,67.0,90.0
487,135.9478622875,136.73605641666666,59.0,88.0
488,136.3645287875,136.87668136041665,52.0,75.0
489,136.7811952875,137.03293129791666,59.0,75.0
490,136.7811952875,137.1666118,64.0,90.0
491,137.1978617875,138.08848643125,52.0,81.0
492,137.61452828749998,138.2186947125,67.0,96.0
493,137.61452828749998,138.23084748541666,59.0,107.0
494,138.23952803749998,138.6145278875,52.0,79.0
495,135.9478622875,138.8940416645833,40.0,88.0
496,138.86452778749998,139.11799990833333,52.0,75.0
497,138.4478612875,139.18223599375,59.0,98.0
498,138.4478612875,139.25862485208333,67.0,94.0
499,139.48952753749998,140.28987443958331,60.0,94.0
500,139.48952753749998,140.43397160416666,67.0,96.0
501,139.48952753749998,140.43570771458332,48.0,100.0
502,139.48952753749998,140.43570771458332,64.0,98.0
503,140.5311937875,141.64577667499998,62.0,90.0
504,140.5311937875,141.65792944791667,69.0,98.0
505,140.5311937875,141.66140166875,66.0,103.0
506,141.7811932875,142.03987373958333,69.0,88.0
507,141.7811932875,142.06417928541666,62.0,84.0
508,141.7811932875,142.29508197083334,66.0,88.0
509,140.5311937875,142.39056804375,48.0,89.0
510,142.61452628749998,143.54855369166665,63.0,91.0
511,142.61452628749998,143.5520259125,70.0,97.0
512,142.61452628749998,143.62667866041667,51.0,89.0
513,142.61452628749998,143.7429980583333,67.0,108.0
514,142.61452628749998,143.76383138333333,39.0,86.0
515,143.86452578749999,145.3228585375,60.0,91.0
516,143.86452578749999,145.34716408333333,69.0,91.0
517,143.86452578749999,145.37146962916665,53.0,88.0
518,143.86452578749999,145.3732057395833,65.0,98.0
519,143.86452578749999,145.42181683125,41.0,87.0
520,146.78119128749998,148.104107425,55.0,86.0
521,147.1978577875,148.14230185416665,59.0,87.0
522,147.1978577875,148.61278777708333,67.0,88.0
523,148.4478572875,148.78813492916666,55.0,86.0
524,145.9478582875,148.80549603333333,43.0,93.0
525,146.3645247875,149.05375982291665,50.0,75.0
526,148.8645237875,149.54681518125,59.0,81.0
527,148.8645237875,149.62146792916667,67.0,84.0
528,148.03119078749998,149.68049568333333,62.0,84.0
529,150.1145232875,150.99820348958332,54.0,83.0
530,150.53118978749998,151.79160595,66.0,87.0
531,150.53118978749998,151.85584203541666,57.0,92.0
532,149.28119028749998,152.09021694166665,42.0,85.0
533,149.6978567875,152.12841137083333,50.0,78.0
534,151.78118928749998,152.18223079375,54.0,97.0
535,152.1978557875,152.55375842291667,57.0,88.0
536,151.3645227875,152.562438975,62.0,86.0
537,152.6145222875,153.02077212499998,64.0,85.0
538,153.4478552875,153.88882733333332,62.0,87.0
539,153.03118878749999,154.47563265416665,59.0,83.0
540,153.4478552875,154.70479922916667,67.0,90.0
541,153.8645217875,154.77250753541665,64.0,88.0
542,154.69785478749998,155.12841017083332,59.0,88.0
543,155.1145212875,155.5103544625,67.0,98.0
544,155.1145212875,155.54160445,62.0,96.0
545,152.6145222875,155.55549333333332,52.0,88.0
546,155.5311877875,155.98778482708332,64.0,81.0
547,155.5311877875,155.99125704791666,59.0,81.0
548,155.94785428749998,156.36972911875,66.0,86.0
549,155.94785428749998,156.42181243125,62.0,85.0
550,156.3645207875,157.54333976041667,57.0,79.0
551,156.7811872875,158.07632565833333,69.0,104.0
552,156.7811872875,158.09542287291666,62.0,89.0
553,158.2395200375,158.41313107916665,62.0,82.0
554,158.44785328749998,158.82458924791666,67.0,114.0
555,158.0311867875,158.85236701458334,57.0,74.0
556,155.94785428749998,158.89229755416665,50.0,85.0
557,158.8645197875,159.38014458125,69.0,86.0
558,159.2811862875,160.12667206041667,67.0,92.0
559,159.2811862875,160.15271371666665,64.0,91.0
560,160.1145192875,160.56764410625,60.0,86.0
561,159.69785278749998,160.68917183541666,55.0,70.0
562,159.2811862875,160.77424124583334,48.0,88.0
563,160.32285253749998,160.89750508541667,67.0,108.0
564,160.94785228749998,161.62319923958333,69.0,88.0
565,160.94785228749998,161.62667146041665,66.0,90.0
566,160.94785228749998,161.64229645416665,62.0,87.0
567,161.7811852875,162.39750448541665,62.0,91.0
568,161.7811852875,162.41486558958331,69.0,91.0
569,161.7811852875,162.43743502499998,66.0,91.0
570,160.94785228749998,162.4895183375,48.0,86.0
571,162.6145182875,163.21347638125,59.0,93.0
572,162.6145182875,163.25340692083333,62.0,100.0
573,162.6145182875,163.25687914166664,67.0,92.0
574,162.6145182875,163.41486518958334,55.0,84.0
575,163.4478512875,164.16660099999999,66.0,91.0
576,163.4478512875,164.19958709791666,62.0,104.0
577,163.4478512875,164.24993429999998,54.0,85.0
578,164.2811842875,164.73257299583332,64.0,89.0
579,164.2811842875,164.76903131458332,67.0,91.0
580,164.6978507875,165.395767175,59.0,85.0
581,165.11451728749998,165.77250313541666,67.0,108.0
582,165.11451728749998,165.84715588333333,64.0,93.0
583,164.2811842875,165.90965585833334,52.0,89.0
584,165.9478502875,166.24298905833334,60.0,88.0
585,165.9478502875,166.45653063958332,67.0,93.0
586,165.9478502875,166.70132220833332,64.0,90.0
587,166.7811832875,167.16312757916666,62.0,98.0
588,166.7811832875,167.20132200833334,67.0,94.0
589,167.1978497875,167.95653003958333,60.0,79.0
590,167.61451628749998,168.54507147083334,64.0,90.0
591,167.61451628749998,168.62666866041667,72.0,92.0
592,168.6561825375,168.89923799583332,67.0,90.0
593,168.4478492875,168.9356963145833,60.0,88.0
594,165.9478502875,168.9478490875,48.0,88.0
595,166.36451678749998,169.19958509791667,55.0,77.0
596,168.86451578749998,169.21173787083333,72.0,102.0
597,169.2811822875,169.90791814791666,72.0,96.0
598,169.2811822875,169.98083478541665,63.0,103.0
599,170.11451528749998,170.73604281666667,72.0,98.0
600,170.11451528749998,170.90965385833331,63.0,93.0
601,170.9478482875,171.3853481125,67.0,91.0
602,170.73951503749998,171.39750088541666,60.0,83.0
603,171.36451478749999,171.63882023333332,72.0,84.0
604,171.36451478749999,171.6752785520833,63.0,89.0
605,171.5728480375,172.22215333333332,60.0,86.0
606,171.7811812875,172.22909777499999,63.0,100.0
607,169.2811822875,172.31069496458332,48.0,89.0
608,169.9061820375,172.32979217916665,55.0,32.0
609,171.7811812875,172.51555599374998,72.0,89.0
610,172.1978477875,172.59020874166666,67.0,83.0
611,172.6145142875,173.1648612895833,67.0,96.0
612,172.6145142875,173.19437516666665,59.0,102.0
613,173.2395140375,173.66486108958333,55.0,81.0
614,173.4478472875,174.03291649791666,67.0,98.0
615,173.4478472875,174.10062480416667,62.0,110.0
616,174.0728470375,174.43743022499999,55.0,87.0
617,174.28118028749998,174.79854119166666,60.0,110.0
618,174.6978467875,175.14749938541667,55.0,88.0
619,175.1145132875,175.562429775,62.0,114.0
620,172.6145142875,175.5936797625,43.0,89.0
621,175.53117978749998,175.81763800624998,55.0,87.0
622,173.03118078749998,175.86972131874998,50.0,70.0
623,175.9478462875,176.26729060416665,67.0,102.0
624,175.9478462875,176.31069336458333,59.0,92.0
625,175.9478462875,176.54506827083333,62.0,110.0
626,176.78117928749998,177.13187359166665,59.0,113.0
627,176.5728460375,177.20131800833332,55.0,113.0
628,176.78117928749998,177.71173447083333,67.0,110.0
629,177.1978457875,177.75166501041664,62.0,91.0
630,177.6145122875,178.11624819791666,55.0,108.0
631,178.03117878749998,178.68395630416666,67.0,94.0
632,178.03117878749998,178.71520629166665,62.0,110.0
633,178.4478452875,178.9669423020833,55.0,108.0
634,178.8645117875,178.9686784125,67.0,87.0
635,175.9478462875,178.99124784791667,43.0,100.0
636,176.3645127875,179.03291449791666,50.0,87.0
637,178.8645117875,179.16833111041666,62.0,102.0
638,179.28117828749998,179.4478448875,59.0,100.0
639,179.28117828749998,179.59715038333331,62.0,110.0
640,179.28117828749998,179.65617813749998,67.0,104.0
641,180.1145112875,180.51902501458332,62.0,100.0
642,180.1145112875,180.53638611875,71.0,100.0
643,180.1145112875,180.57284443749998,67.0,96.0
644,180.53117778749998,181.12145532916665,55.0,87.0
645,180.9478442875,181.58326069999998,71.0,98.0
646,180.9478442875,181.59020514166664,62.0,93.0
647,180.9478442875,181.6145106875,67.0,102.0
648,179.28117828749998,181.93916333541665,43.0,94.0
649,179.6978447875,182.0311771875,50.0,74.0
650,181.7811772875,182.0936771625,62.0,107.0
651,181.9895105375,182.15617713749998,67.0,87.0
652,181.57284403749998,182.19437156666666,55.0,91.0
653,182.19784378749998,182.52770476666666,71.0,102.0
654,182.6145102875,183.2898572395833,62.0,88.0
655,182.6145102875,183.29506557083332,69.0,91.0
656,182.6145102875,183.32631555833333,66.0,90.0
657,182.6145102875,183.7499265,54.0,95.0
658,183.44784328749998,183.94437086666665,69.0,110.0
659,183.44784328749998,183.94610697708333,66.0,113.0
660,183.44784328749998,183.9617319708333,62.0,98.0
661,184.07284303749998,184.12145412916666,66.0,93.0
662,184.07284303749998,184.13881523333333,69.0,96.0
663,184.07284303749998,184.145759675,62.0,91.0
664,183.8645097875,184.63707892291666,54.0,85.0
665,184.4895095375,184.88881493333332,69.0,107.0
666,184.4895095375,184.89749548541667,62.0,102.0
667,184.4895095375,184.89923159583333,66.0,113.0
668,184.9061760375,185.1596481583333,54.0,119.0
669,185.1145092875,185.57110632708333,62.0,113.0
670,185.1145092875,185.65096740625,69.0,116.0
671,185.1145092875,185.7186757125,66.0,119.0
672,185.5311757875,185.94610617708332,54.0,113.0
673,185.94784228749998,186.5103420625,71.0,102.0
674,185.94784228749998,186.53117538749999,67.0,108.0
675,185.94784228749998,186.57284203749998,64.0,96.0
676,186.57284203749998,187.06763350625,59.0,83.0
677,186.7811752875,187.17180013125,67.0,110.0
678,186.7811752875,187.47909167499998,71.0,108.0
679,186.7811752875,187.52423054583332,64.0,107.0
680,187.19784178749998,187.69957769791665,59.0,80.0
681,187.6145082875,188.02423034583333,67.0,100.0
682,187.6145082875,188.05721644374998,71.0,100.0
683,187.6145082875,188.11103586666667,64.0,102.0
684,188.2395080375,188.31068856458333,62.0,87.0
685,188.0311747875,188.53117458749998,59.0,86.0
686,188.44784128749998,188.69957729791665,71.0,102.0
687,188.44784128749998,188.72561895416666,62.0,100.0
688,188.44784128749998,188.72561895416666,67.0,107.0
689,188.6561745375,188.937424425,59.0,89.0
690,185.94784228749998,188.98256329583333,52.0,91.0
691,188.8645077875,189.05895215416666,71.0,89.0
692,188.8645077875,189.07804936875,64.0,104.0
693,188.8645077875,189.10235491458332,67.0,100.0
694,189.2811742875,189.89922959583333,62.0,89.0
695,189.2811742875,189.90270181666665,69.0,92.0
696,190.1145072875,190.58499321041666,69.0,104.0
697,190.1145072875,190.68221539375,62.0,96.0
698,190.5311737875,190.69957649791667,66.0,87.0
699,189.9061740375,190.80374312291664,57.0,86.0
700,190.73950703749998,191.05027080208333,62.0,94.0
701,190.73950703749998,191.09888189375,69.0,113.0
702,190.9478402875,191.48082618541665,57.0,91.0
703,191.36450678749998,191.59714558333332,69.0,86.0
704,191.36450678749998,191.63186779166665,62.0,88.0
705,191.5728400375,191.98603431666666,57.0,113.0
706,191.7811732875,192.020756525,69.0,108.0
707,191.7811732875,192.13881203333332,62.0,107.0
708,191.98950653749998,192.17353424166666,66.0,103.0
709,192.1978397875,192.53117298749999,67.0,96.0
710,189.2811742875,192.55721464375,50.0,91.0
711,192.61450628749998,192.6961034770833,60.0,81.0
712,192.61450628749998,193.21172827083333,72.0,108.0
713,192.61450628749998,193.21520049166665,64.0,93.0
714,193.23950603749998,193.67353364166667,60.0,76.0
715,193.4478392875,194.10582513541667,64.0,104.0
716,193.4478392875,194.12839457083334,72.0,104.0
717,194.0728390375,194.14054734375,67.0,88.0
718,193.86450578749998,194.70999156041665,60.0,77.0
719,194.48950553749998,194.95304701875,64.0,91.0
720,194.48950553749998,194.96172757083332,72.0,87.0
721,194.9061720375,195.47388014375,60.0,89.0
722,195.11450528749998,195.56415788541665,64.0,104.0
723,192.61450628749998,195.57457454791665,48.0,89.0
724,195.5311717875,195.90790774791665,67.0,86.0
725,195.73950503749998,195.94262995625,64.0,83.0
726,195.11450528749998,195.99297715833333,72.0,91.0
727,195.9478382875,196.4895047375,62.0,113.0
728,195.9478382875,196.61624079791665,67.0,98.0
729,196.36450478749998,196.93394900416666,55.0,76.0
730,196.7811712875,197.395754375,62.0,96.0
731,196.7811712875,197.42700436249999,67.0,102.0
732,197.4061710375,197.87318473958334,55.0,78.0
733,197.61450428749998,198.16137906875,62.0,107.0
734,197.61450428749998,198.1770040625,67.0,113.0
735,198.23950403749998,198.5033928208333,55.0,91.0
736,198.4478372875,198.74471216875,67.0,116.0
737,198.4478372875,198.81068436458332,62.0,114.0
738,195.9478382875,199.0311703875,43.0,91.0
739,198.6561705375,199.04505927083332,55.0,94.0
740,198.86450378749998,199.20304531875,67.0,102.0
741,199.28117028749998,199.7950589708333,60.0,93.0
742,199.28117028749998,199.81936451666667,69.0,89.0
743,199.28117028749998,199.82457284791667,64.0,102.0
744,199.90617003749998,200.2742254458333,57.0,42.0
745,200.11450328749999,200.61971141875,60.0,96.0
746,200.11450328749999,200.67700306249998,69.0,100.0
747,200.11450328749999,200.72214193333332,64.0,113.0
748,200.7395030375,201.0971417833333,57.0,81.0
749,200.9478362875,201.1440167645833,60.0,104.0
750,200.9478362875,201.50339162083333,69.0,104.0
751,200.9478362875,201.562419375,64.0,116.0
752,201.5728360375,201.85234981458333,57.0,91.0
753,199.28117028749998,202.2481829895833,45.0,86.0
754,201.78116928749998,202.46693290208333,69.0,113.0
755,201.78116928749998,202.49297455833332,64.0,119.0
756,202.1978357875,202.5346412083333,57.0,91.0
757,202.6145022875,202.87839107083332,62.0,96.0
758,202.6145022875,202.9686688125,66.0,109.0
759,202.6145022875,203.00339102083333,69.0,93.0
760,203.2395020375,203.54852969166666,62.0,87.0
761,203.4478352875,203.76554349375,74.0,104.0
762,203.4478352875,203.81762680625,66.0,109.0
763,203.8645017875,203.99818228958333,62.0,88.0
764,203.03116878749998,204.32630715833332,57.0,82.0
765,204.28116828749998,204.4981820895833,62.0,102.0
766,204.28116828749998,204.56241817499998,66.0,103.0
767,204.28116828749998,204.59887649375,69.0,108.0
768,204.6978347875,205.02595965625,57.0,83.0
769,204.90616803749998,205.2603345625,74.0,94.0
770,204.90616803749998,205.28811232916667,66.0,97.0
771,205.1145012875,205.44089004583333,57.0,64.0
772,205.3228345375,205.50165391041665,74.0,104.0
773,205.3228345375,205.5138066833333,66.0,100.0
774,202.6145022875,205.65095940625,50.0,91.0
775,205.9478342875,206.33151468958332,62.0,94.0
776,205.9478342875,206.38012578125,71.0,98.0
777,205.9478342875,206.46345908125,67.0,110.0
778,206.3645007875,206.79158395,55.0,68.0
779,206.78116728749998,207.25859765208332,71.0,86.0
780,206.78116728749998,207.29679208124998,62.0,89.0
781,206.78116728749998,207.31936151666665,67.0,89.0
782,207.40616703749998,207.46519479166665,62.0,88.0
783,207.40616703749998,207.46519479166665,71.0,88.0
784,207.40616703749998,207.4686670125,67.0,96.0
785,207.1978337875,207.9478334875,55.0,81.0
786,207.8228335375,208.2481805895833,62.0,91.0
787,207.8228335375,208.26033336249998,71.0,94.0
788,207.8228335375,208.26554169374998,67.0,96.0
789,208.2395000375,208.54679158124998,55.0,91.0
790,208.44783328749998,208.78637481874998,62.0,110.0
791,208.44783328749998,208.80026370208333,71.0,107.0
792,205.9478342875,208.91137476875,43.0,88.0
793,208.8644997875,209.0519997125,71.0,81.0
794,208.8644997875,209.16311077916666,67.0,100.0
795,209.28116628749999,209.86102716666664,66.0,100.0
796,209.28116628749999,209.88186049166666,62.0,89.0
797,209.28116628749999,209.91137436875,69.0,92.0
798,209.28116628749999,210.2117214708333,54.0,85.0
799,210.1144992875,210.56936021666667,69.0,107.0
800,210.1144992875,210.57456854791667,62.0,102.0
801,210.1144992875,210.5919296520833,66.0,113.0
802,210.7394990375,210.80026290208332,69.0,98.0
803,210.7394990375,210.80199901249998,66.0,97.0
804,210.7394990375,210.81241567499998,62.0,92.0
805,210.5311657875,211.17873497291666,54.0,86.0
806,211.1561655375,211.58845703125,62.0,98.0
807,211.1561655375,211.60581813541665,69.0,110.0
808,211.57283203749998,211.82804026875,54.0,113.0
809,211.7811652875,212.06415128541664,69.0,113.0
810,209.28116628749999,212.07630405833333,42.0,86.0
811,211.7811652875,212.07630405833333,62.0,113.0
812,211.9894985375,212.24470676874998,54.0,113.0
813,212.19783178749998,212.28984563958332,62.0,84.0
814,212.19783178749998,212.41310947916665,66.0,119.0
815,212.4061650375,212.57630385833332,69.0,88.0
816,212.6144982875,213.13185919166665,71.0,93.0
817,212.6144982875,213.1856786145833,64.0,91.0
818,212.6144982875,213.23602581666665,67.0,110.0
819,213.44783128749998,213.95824775,71.0,98.0
820,213.44783128749998,214.08498381041665,67.0,110.0
821,213.44783128749998,214.10755324583332,64.0,100.0
822,214.07283103749998,214.65963635833333,59.0,87.0
823,214.2811642875,214.87838627083332,71.0,91.0
824,214.2811642875,214.92178903125,64.0,94.0
825,214.2811642875,214.92352514166666,67.0,102.0
826,214.9061640375,215.17526115208332,59.0,87.0
827,215.1144972875,215.59887209374997,64.0,96.0
828,215.1144972875,215.64748318541666,71.0,96.0
829,212.6144982875,215.65789984791667,52.0,89.0
830,215.1144972875,215.8263025583333,67.0,107.0
831,215.5311637875,215.95998306041665,59.0,82.0
832,215.94783028749998,216.42526065208332,69.0,102.0
833,215.94783028749998,216.42699676249998,66.0,103.0
834,215.94783028749998,216.45998286041666,62.0,92.0
835,216.7811632875,217.15442702708333,62.0,89.0
836,216.7811632875,217.17873257291666,69.0,93.0
837,217.61449628749997,217.67526015208333,66.0,95.0
838,217.19782978749998,217.99123224791666,59.0,86.0
839,217.61449628749997,218.17178773125,62.0,89.0
840,217.61449628749997,218.18567661458331,69.0,93.0
841,218.0311627875,218.28463490833332,66.0,86.0
842,215.94783028749998,218.8940096645833,47.0,88.0
843,218.44782928749999,218.90095410625,69.0,110.0
844,218.23949603749998,218.97387074374998,59.0,104.0
845,216.3644967875,218.98775962708334,54.0,67.0
846,218.44782928749999,219.1856762145833,62.0,114.0
847,218.86449578749998,219.37491225,66.0,100.0
848,219.2811622875,219.79678708125,67.0,108.0
849,219.2811622875,219.99643977916665,64.0,107.0
850,220.11449528749998,220.68567561458332,62.0,93.0
851,220.11449528749998,220.71345338125,67.0,102.0
852,220.9478282875,221.3940086645833,67.0,113.0
853,220.9478282875,221.39748088541666,64.0,113.0
854,221.36449478749998,221.84886959374998,60.0,86.0
855,219.6978287875,222.00164731041664,55.0,74.0
856,219.2811622875,222.02942507708332,48.0,98.0
857,221.7811612875,222.22213333333332,64.0,114.0
858,222.1978277875,222.31588329583332,48.0,86.0
859,221.7811612875,222.45303601875,67.0,114.0
860,222.61449428749998,223.02768856666665,59.0,96.0
861,222.61449428749998,223.0710913270833,67.0,92.0
862,222.61449428749998,223.16136906875,62.0,108.0
863,223.0311607875,223.47039672291666,55.0,69.0
864,223.86449378749998,223.979077075,55.0,84.0
865,223.4478272875,224.02595205625,67.0,96.0
866,222.61449428749998,224.04331316041666,43.0,87.0
867,223.4478272875,224.1144936875,62.0,113.0
868,224.6978267875,225.28289599791665,52.0,89.0
869,225.11449328749998,225.45303481874998,59.0,107.0
870,224.2811602875,225.52595145625,40.0,88.0
871,225.11449328749998,225.59192365208332,67.0,102.0
872,225.11449328749998,225.64747918541664,64.0,108.0
873,225.5311597875,225.67178473125,52.0,88.0
874,225.9478262875,226.27421504583333,60.0,90.0
875,225.9478262875,226.2811594875,67.0,92.0
876,225.9478262875,226.30199281249998,64.0,98.0
877,226.78115928749997,227.26727020416666,67.0,91.0
878,226.78115928749997,227.34539517291665,60.0,90.0
879,226.78115928749997,227.3887979333333,64.0,102.0
880,227.61449228749998,227.9721310333333,60.0,88.0
881,227.61449228749998,228.03983933958332,64.0,92.0
882,227.61449228749998,228.07629765833332,67.0,90.0
883,228.23949203749999,228.68914463541665,55.0,79.0
884,228.4478252875,228.87317233958333,60.0,100.0
885,225.9478262875,228.96171397083333,48.0,98.0
886,228.4478252875,229.10233891458333,67.0,107.0
887,228.8644917875,229.29678328125,55.0,64.0
888,229.28115828749998,229.94782468749997,69.0,92.0
889,229.28115828749998,229.96344968124998,62.0,88.0
890,229.28115828749998,229.99122744791666,66.0,97.0
891,230.1144912875,230.65268551666665,62.0,89.0
892,230.1144912875,230.7065049395833,66.0,89.0
893,230.1144912875,230.71171327083331,69.0,88.0
894,230.7394910375,232.11449048749998,57.0,81.0
895,229.28115828749998,232.1492126958333,50.0,86.0
896,230.9478242875,232.2377543270833,69.0,104.0
897,230.9478242875,232.28289319791665,62.0,104.0
898,232.6144902875,233.3019900125,67.0,104.0
899,232.6144902875,233.32629555833333,63.0,93.0
900,232.6144902875,233.34539277291665,70.0,87.0
901,233.4478232875,234.03983693958332,63.0,76.0
902,233.4478232875,234.06761470625,67.0,87.0
903,233.4478232875,234.07629525833332,70.0,72.0
904,233.2394900375,234.56240617499998,51.0,36.0
905,234.28115628749998,234.86796160833333,70.0,78.0
906,234.28115628749998,234.93393380416666,63.0,86.0
907,234.90615603749998,235.28983643958333,51.0,69.0
908,235.1144892875,235.53810022916664,67.0,98.0
909,235.32282253749997,235.54504467083333,51.0,78.0
910,232.6144902875,235.59018354166665,39.0,87.0
911,235.53115578749998,235.64226685416665,70.0,77.0
912,235.94782228749997,236.53115538749998,69.0,86.0
913,235.94782228749997,236.604072025,60.0,82.0
914,235.94782228749997,236.62664146041666,65.0,86.0
915,236.78115528749998,237.48601611666666,69.0,83.0
916,236.78115528749998,237.50511333125,60.0,81.0
917,236.78115528749998,237.51205777291665,65.0,84.0
918,235.94782228749997,237.92004372083332,53.0,84.0
919,237.6144882875,238.13358530208333,60.0,71.0
920,237.6144882875,238.18393250416665,69.0,73.0
921,237.6144882875,238.19955749791666,65.0,74.0
922,235.94782228749997,238.92351554166666,41.0,81.0
923,238.44782128749998,238.93045998333332,60.0,80.0
924,238.44782128749998,238.94087664583333,65.0,80.0
925,238.44782128749998,238.9478210875,69.0,81.0
926,238.2394880375,239.09712658333333,53.0,38.0
927,239.28809872916665,239.812404075,70.0,83.0
928,239.2811542875,240.20476502916665,63.0,84.0
929,239.74643187916666,240.24816778958333,51.0,64.0
930,240.13705672291664,240.8367092208333,67.0,88.0
931,240.57976487916665,241.22733406458332,51.0,66.0
932,240.9721258333333,241.57108392708332,63.0,91.0
933,240.98080638541666,241.59538947291665,70.0,87.0
934,241.57282003749998,241.91830601041664,51.0,77.0
935,241.80719494374998,242.15615313749998,70.0,81.0
936,241.79677828125,242.19434756666666,63.0,89.0
937,239.2898348395833,242.28809752916666,39.0,82.0
938,242.20823645,242.34886139374998,51.0,76.0
939,242.62663906041666,243.14399996458332,69.0,84.0
940,242.62316683958332,243.19261105624997,60.0,83.0
941,242.62316683958332,243.26031936249998,65.0,87.0
942,243.1335833020833,243.6179581083333,53.0,38.0
943,243.47559705416666,244.05545793333332,69.0,76.0
944,243.4686526125,244.10059680416666,60.0,75.0
945,243.45649983958333,244.25511063124998,65.0,79.0
946,244.11969401874998,244.50511053124998,53.0,38.0
947,244.32976337916665,244.91830481041666,60.0,88.0
948,244.3332356,244.91830481041666,69.0,86.0
949,245.19434636666665,245.58844343125,60.0,81.0
950,244.91136036875,245.60233231458332,53.0,66.0
951,245.1960824770833,245.6144850875,69.0,82.0
952,242.64400016458333,245.6283739708333,41.0,86.0
953,245.98601271666666,246.46691530208332,63.0,87.0
954,245.99469326874998,246.50858195208332,67.0,88.0
955,246.00337382083333,246.5867069208333,70.0,80.0
956,245.97385994375,246.98948453749998,51.0,85.0
957,246.76899851458333,247.48774822708333,70.0,90.0
958,246.76899851458333,247.54330376041665,63.0,93.0
959,247.40267881666665,247.86274807708332,51.0,77.0
960,247.61969261874998,248.37837287083332,67.0,114.0
961,248.08670632083331,248.58149778958332,51.0,80.0
962,248.4617061708333,248.88358100208333,70.0,93.0
963,248.45476172916665,248.92177543124998,63.0,93.0
964,246.00337382083333,248.9408726458333,39.0,82.0
965,248.88010878125,249.04156705,51.0,80.0
966,249.30719194374998,249.88184449166664,69.0,87.0
967,249.30892805416664,249.93219169374999,60.0,83.0
968,249.9061500375,250.23427490625,53.0,65.0
969,250.08496941041665,250.7689969145833,69.0,84.0
970,250.0832333,250.77420524583331,60.0,84.0
971,250.77594135624997,251.10059400416665,53.0,70.0
972,250.97559405416666,251.49816328958332,69.0,82.0
973,250.97385794374998,251.51378828333333,60.0,84.0
974,251.45649663958332,252.03288529791666,53.0,78.0
975,251.90267701666664,252.41309347916666,69.0,84.0
976,251.90094090624999,252.42351014166664,60.0,87.0
977,249.33844193124997,252.45823234999997,41.0,85.0
978,252.79330166041666,252.93913493541666,62.0,80.0
979,252.66309337916664,254.01725950416665,59.0,78.0
980,252.8783710708333,254.0242039458333,67.0,82.0
981,254.23080108541666,254.55371762291665,60.0,80.0
982,254.49642597916664,254.7950369708333,62.0,81.0
983,254.77767586666664,254.85580083541666,67.0,81.0
984,255.44260615624998,255.86968931874998,79.0,78.0
985,255.08496741041665,255.92524485208332,71.0,81.0
986,255.8054532333333,255.98427260625,74.0,80.0
987,256.1960780770833,256.35927245625,83.0,82.0
988,256.62663346041666,256.7620500729167,86.0,83.0
989,257.45823035,258.34364666249996,79.0,67.0
990,257.5606608645833,258.35406332499997,83.0,73.0
991,257.70823025,258.36100776666666,91.0,71.0
992,254.02246783541665,258.3992021958333,55.0,78.0
993,253.7498985,258.40093830625,50.0,38.0
994,252.8262877583333,258.43566051458333,43.0,74.0
