,start,end,pitch,velocity
0,30.398183887500004,30.799969200000003,60.0,81.0
1,30.826754887500005,30.980326162500003,63.0,86.0
2,31.041040387500004,31.560682725000003,63.0,79.0
3,31.683896887500005,32.114253600000005,65.0,86.0
4,32.1124678875,33.16960968750001,63.0,90.0
5,33.8267518875,34.2124657875,58.0,95.0
6,34.25532288750001,34.982107875000004,60.0,77.0
7,35.1124648875,35.567821575,58.0,77.0
8,35.5410358875,36.778534650000005,56.0,65.0
9,37.25531988750001,37.64103378750001,56.0,92.0
10,37.683890887500006,38.07853335000001,58.0,72.0
11,38.112461887500004,38.5910328375,60.0,78.0
12,38.5410328875,38.967818175000005,68.0,99.0
13,38.96960388750001,39.64281750000001,67.0,93.0
14,39.398174887500005,40.176745537500004,65.0,89.0
15,40.25531688750001,40.501745212500005,67.0,96.0
16,40.469602387500004,40.68567360000001,65.0,76.0
17,40.683887887500006,42.560671725000006,63.0,83.0
18,44.112455887500005,44.55174116250001,65.0,93.0
19,44.5410268875,45.296383275000004,68.0,97.0
20,45.398168887500006,45.871382700000005,70.0,99.0
21,45.826739887500004,46.694596162500005,68.0,90.0
22,47.5410238875,47.946380625,63.0,92.0
23,47.96959488750001,48.80352262500001,65.0,78.0
24,48.826736887500005,49.257093600000005,63.0,88.0
25,49.25530788750001,50.23923547500001,60.0,75.0
26,50.96959188750001,51.22494877500001,58.0,96.0
27,51.39816288750001,51.683876887500006,60.0,77.0
28,51.826733887500005,52.13566215000001,63.0,92.0
29,52.25530488750001,52.62851880000001,60.0,88.0
30,52.68387588750001,53.13208972500001,60.0,92.0
31,53.112446887500006,53.896374675000004,58.0,72.0
32,53.96958888750001,54.41244558750001,56.0,89.0
33,54.39815988750001,56.83922887500001,58.0,78.0
34,57.826727887500006,58.26601316250001,60.0,97.0
35,58.25529888750001,58.985655300000005,63.0,93.0
36,59.11244088750001,59.53029761250001,65.0,100.0
37,59.541011887500005,60.53565375000001,63.0,95.0
38,61.25529588750001,61.64100978750001,58.0,95.0
39,61.68386688750001,62.410651875000006,60.0,77.0
40,62.541008887500006,62.996365575000006,58.0,77.0
41,62.96957988750001,64.20707865000001,56.0,65.0
42,64.68386388750001,65.06957778750001,56.0,92.0
43,65.11243488750002,65.50707735,58.0,72.0
44,65.5410058875,66.01957683750001,60.0,78.0
45,65.96957688750001,66.39636217500001,68.0,99.0
46,66.3981478875,67.07136150000001,67.0,93.0
47,66.82671888750001,67.60528953750001,65.0,89.0
48,67.6838608875,68.1088604625,60.0,97.0
49,68.11243188750001,70.31242968750001,63.0,117.0
50,71.5409998875,71.98028516250001,65.0,93.0
51,71.96957088750001,72.72492727500001,68.0,97.0
52,72.82671288750001,73.29992670000001,70.0,99.0
53,73.25528388750001,74.12314016250001,68.0,90.0
54,74.9695678875,75.374924625,63.0,92.0
55,75.39813888750001,76.23206662500002,65.0,78.0
56,76.2552808875,76.6856376,63.0,88.0
57,76.68385188750001,77.667779475,60.0,75.0
58,78.3981358875,78.653492775,58.0,96.0
59,78.82670688750001,79.11242088750001,60.0,77.0
60,79.25527788750001,79.56420615,63.0,92.0
61,79.6838488875,79.99277715000001,65.0,96.0
62,80.11241988750001,80.49813378750001,60.0,92.0
63,80.54099088750002,81.210633075,58.0,78.0
64,81.39813288750001,81.81956103750001,60.0,95.0
65,81.82670388750002,83.92491607500001,56.0,76.0
66,84.3981298875,84.84277230000001,70.0,127.0
67,84.82670088750001,85.06241493750001,72.0,102.0
68,85.04098638750001,85.23741476250001,70.0,122.0
69,85.25527188750002,86.37134220000002,68.0,127.0
70,86.54098488750002,86.81241318750001,70.0,127.0
71,86.96955588750001,87.21241278750001,72.0,127.0
72,87.39812688750001,87.77312651250001,67.0,127.0
73,87.82669788750002,88.10705475000002,65.0,127.0
74,88.25526888750001,88.6713399,60.0,107.0
75,88.68383988750001,89.95883861250002,63.0,122.0
76,91.25526588750002,91.58205127500001,68.0,127.0
77,91.68383688750001,92.10347932500001,67.0,112.0
78,92.11240788750001,92.84276430000001,65.0,99.0
79,92.96954988750001,93.29990670000001,65.0,99.0
80,93.39812088750001,93.74990625000001,63.0,99.0
81,93.82669188750002,94.21419150000001,65.0,102.0
82,94.25526288750001,94.66954818750001,60.0,102.0
83,94.68383388750001,95.30169041250001,63.0,117.0
84,95.1124048875,95.467761675,60.0,95.0
85,95.54097588750001,96.95347447500001,58.0,97.0
86,98.11240188750001,98.48740151250001,60.0,100.0
87,98.54097288750002,98.95347247500001,58.0,122.0
88,98.96954388750001,99.60525753750001,56.0,107.0
89,100.25525688750001,100.54811373750002,58.0,99.0
90,100.68382788750002,100.98561330000001,60.0,102.0
91,101.1123988875,101.42132715000001,68.0,112.0
92,101.54096988750001,101.90168381250001,67.0,99.0
93,101.96954088750002,102.303469125,63.0,107.0
94,102.39811188750001,104.08561020000002,65.0,102.0
95,104.96953788750001,105.29989470000001,70.0,122.0
96,105.39810888750002,105.70882286250001,68.0,117.0
97,105.82667988750002,106.48382208750002,70.0,127.0
98,106.68382188750002,106.97667873750001,70.0,112.0
99,107.11239288750001,107.42846400000002,68.0,122.0
100,107.54096388750001,107.91060637500001,60.0,112.0
101,107.96953488750002,108.27667743750001,60.0,107.0
102,108.39810588750001,108.70881986250001,67.0,99.0
103,108.82667688750001,109.18739081250001,65.0,97.0
104,109.25524788750002,110.76953208750001,63.0,99.0
105,111.82667388750002,112.21060207500001,70.0,127.0
106,112.25524488750001,112.44274470000002,72.0,107.0
107,112.46953038750001,112.68024446250001,70.0,107.0
108,112.68381588750002,113.67488632500002,68.0,117.0
109,113.96952888750002,114.25702860000001,70.0,127.0
110,114.39809988750001,114.69452816250002,72.0,122.0
111,114.82667088750001,115.18738481250001,67.0,122.0
112,115.25524188750002,115.59452726250001,65.0,112.0
113,115.68381288750001,116.04274110000001,63.0,112.0
114,116.11238388750002,117.16595426250001,65.0,107.0
115,118.68380988750002,119.02309526250002,65.0,100.0
116,119.11238088750001,119.44809483750002,68.0,117.0
117,119.54095188750001,119.89273725000001,70.0,122.0
118,120.39809388750001,120.67666503750002,70.0,127.0
119,120.82666488750002,121.13380743750001,72.0,117.0
120,121.25523588750002,121.53559275000002,70.0,127.0
121,121.68380688750001,121.97309231250001,67.0,100.0
122,122.11237788750002,122.45702040000002,60.0,107.0
123,122.54094888750002,122.92309136250002,65.0,100.0
124,122.96951988750001,123.81594761250001,63.0,122.0
125,125.54094588750002,125.86237413750001,56.0,97.0
126,125.96951688750002,126.23915947500002,58.0,112.0
127,126.39808788750001,127.37665833750002,60.0,122.0
128,127.68380088750001,127.99272915000002,63.0,122.0
129,128.11237188750002,128.439157275,63.0,117.0
130,128.54094288750002,128.79629977500002,68.0,117.0
131,128.96951388750003,129.22487077500003,67.0,107.0
132,129.3980848875,129.653441775,63.0,102.0
133,129.8266558875,131.25522588750002,65.0,117.0
134,132.3980818875,132.7087958625,65.0,102.0
135,132.82665288750002,133.1087954625,68.0,107.0
136,133.25522388750002,133.2570096,70.0,122.0
137,133.68379488750003,133.97843745000003,70.0,127.0
138,134.5409368875,134.8302223125,67.0,99.0
139,134.96950788750001,135.646292925,65.0,99.0
140,135.82664988750003,136.1409352875,63.0,95.0
141,136.25522088750003,136.6016491125,65.0,99.0
142,136.6837918875,138.90700395000002,68.0,112.0
143,167.5409038875,167.9801891625,60.0,97.0
144,167.9694748875,168.69983130000003,63.0,93.0
145,168.82661688750002,169.24447361250003,65.0,100.0
146,169.25518788750003,170.24982975000003,63.0,95.0
147,170.96947188750002,171.35518578750003,58.0,95.0
148,171.39804288750003,172.12482787500002,60.0,77.0
149,172.25518488750004,172.71054157500004,58.0,77.0
150,172.6837558875,173.92125465,56.0,65.0
151,174.39803988750003,174.78375378750002,56.0,92.0
152,174.8266108875,175.22125335,58.0,72.0
153,175.25518188750002,175.73375283750002,60.0,78.0
154,175.68375288750002,176.11053817500002,68.0,99.0
155,176.11232388750003,176.78553750000003,67.0,93.0
156,176.54089488750003,177.31946553750004,65.0,89.0
157,177.3980368875,177.82303646250003,60.0,97.0
158,177.82660788750002,180.02660568750002,63.0,117.0
159,181.25517588750003,181.69446116250003,65.0,93.0
160,181.68374688750004,182.43910327500004,68.0,97.0
161,182.54088888750002,183.01410270000002,70.0,99.0
162,182.96945988750002,183.83731616250003,68.0,90.0
163,184.68374388750001,185.08910062500001,63.0,92.0
164,185.11231488750002,185.94624262500002,65.0,78.0
165,185.96945688750003,186.39981360000002,63.0,88.0
166,186.39802788750004,187.381955475,60.0,75.0
167,188.11231188750003,188.36766877500003,58.0,96.0
168,188.54088288750003,188.82659688750002,60.0,77.0
169,188.96945388750004,189.27838215000003,63.0,92.0
170,189.39802488750001,189.70695315000003,65.0,96.0
171,189.82659588750002,190.21230978750003,60.0,92.0
172,190.25516688750002,190.924809075,58.0,78.0
173,191.11230888750003,191.53373703750003,60.0,95.0
174,191.5408798875,193.63909207500004,56.0,76.0
175,194.1123058875,194.55694830000002,70.0,127.0
176,194.54087688750002,194.77659093750003,72.0,102.0
177,194.75516238750004,194.95159076250002,70.0,122.0
178,194.96944788750002,196.08551820000002,68.0,127.0
179,196.25516088750004,196.52658918750004,70.0,127.0
180,196.68373188750002,196.92658878750004,72.0,127.0
181,197.11230288750002,197.48730251250004,67.0,127.0
182,197.54087388750003,197.82123075,65.0,127.0
183,197.96944488750003,198.38551590000003,60.0,107.0
184,198.39801588750004,199.67301461250003,63.0,122.0
185,200.96944188750004,201.29622727500004,68.0,127.0
186,201.39801288750002,201.81765532500003,67.0,112.0
187,201.82658388750002,202.55694030000004,65.0,99.0
188,202.68372588750003,203.01408270000002,65.0,99.0
189,203.11229688750004,203.46408225000002,63.0,99.0
190,203.5408678875,203.92836750000004,65.0,102.0
191,203.96943888750002,204.38372418750004,60.0,102.0
192,204.39800988750002,205.01586641250003,63.0,117.0
193,204.82658088750003,205.18193767500003,60.0,95.0
194,205.25515188750003,206.66765047500002,58.0,97.0
195,207.82657788750004,208.20157751250002,60.0,100.0
196,208.2551488875,208.66764847500002,58.0,122.0
197,208.68371988750002,209.31943353750003,56.0,107.0
198,209.96943288750003,210.26228973750003,58.0,99.0
199,210.39800388750004,210.69978930000002,60.0,102.0
200,210.82657488750002,211.13550315000003,68.0,112.0
201,211.25514588750002,211.61585981250002,67.0,99.0
202,211.68371688750003,212.01764512500003,63.0,107.0
203,212.11228788750003,213.79978620000003,65.0,102.0
204,214.68371388750003,215.01407070000002,70.0,122.0
205,215.11228488750004,215.42299886250004,68.0,117.0
206,215.54085588750002,216.19799808750003,70.0,127.0
207,216.39799788750003,216.69085473750002,70.0,112.0
208,216.82656888750003,217.14264000000003,68.0,122.0
209,217.25513988750004,217.62478237500002,60.0,112.0
210,217.68371088750004,217.99085343750002,60.0,107.0
211,218.11228188750002,218.42299586250002,67.0,99.0
212,218.54085288750002,218.90156681250002,65.0,97.0
213,218.96942388750003,220.48370808750002,63.0,99.0
214,221.54084988750003,221.92477807500003,70.0,127.0
215,221.96942088750004,222.15692070000003,72.0,107.0
216,222.18370638750002,222.39442046250002,70.0,107.0
217,222.39799188750004,223.38906232500003,68.0,117.0
218,223.68370488750003,223.97120460000002,70.0,127.0
219,224.11227588750003,224.40870416250002,72.0,122.0
220,224.54084688750004,224.90156081250004,67.0,122.0
221,224.96941788750004,225.30870326250002,65.0,112.0
222,225.39798888750002,225.75691710000004,63.0,112.0
223,225.82655988750003,226.88013026250002,65.0,107.0
224,228.39798588750003,228.73727126250003,65.0,100.0
225,228.82655688750003,229.16227083750002,68.0,117.0
226,229.25512788750004,229.60691325000002,70.0,122.0
227,230.11226988750002,230.39084103750002,70.0,127.0
228,230.54084088750002,230.84798343750003,72.0,117.0
229,230.96941188750003,231.24976875000004,70.0,127.0
230,231.39798288750004,231.68726831250004,67.0,100.0
231,231.82655388750004,232.17119640000004,60.0,107.0
232,232.25512488750002,232.63726736250004,65.0,100.0
233,232.68369588750002,233.53012361250003,63.0,122.0
234,235.25512188750002,235.57655013750002,56.0,97.0
235,235.68369288750003,235.95333547500002,58.0,112.0
236,236.11226388750003,237.09083433750004,60.0,122.0
237,237.39797688750002,237.70690515000004,63.0,122.0
238,237.82654788750003,238.15333327500002,63.0,117.0
239,238.25511888750003,238.51047577500003,68.0,117.0
240,238.68368988750004,238.93904677500004,67.0,107.0
241,239.11226088750004,239.36761777500004,63.0,102.0
242,239.54083188750002,240.96940188750003,65.0,117.0
243,242.11225788750002,242.42297186250002,65.0,102.0
244,242.54082888750003,242.82297146250002,68.0,107.0
245,242.96939988750003,242.97118560000004,70.0,122.0
246,243.39797088750004,243.62475637500003,70.0,122.0
247,244.25511288750002,244.54439831250002,67.0,99.0
248,244.68368388750002,245.36046892500002,65.0,99.0
249,245.54082588750003,245.85511128750002,63.0,95.0
250,245.96939688750004,246.31582511250002,65.0,99.0
251,246.39796788750004,248.62117995000003,68.0,112.0
252,248.96939388750002,249.41403630000002,70.0,127.0
253,249.39796488750002,249.63367893750004,72.0,102.0
254,249.61225038750004,249.80867876250002,70.0,122.0
255,249.82653588750003,250.94260620000003,68.0,127.0
256,251.11224888750004,251.38367718750004,70.0,127.0
257,251.54081988750002,251.78367678750004,72.0,127.0
258,251.96939088750003,252.34439051250004,67.0,127.0
259,252.39796188750003,252.67831875000005,65.0,127.0
260,252.82653288750004,253.24260390000003,60.0,107.0
261,253.25510388750004,254.53010261250003,63.0,122.0
262,255.82652988750004,256.153315275,68.0,127.0
263,256.2551008875,256.674743325,67.0,112.0
264,256.68367188750005,257.41402830000004,65.0,99.0
265,257.5408138875,257.87117070000005,65.0,99.0
266,257.96938488750004,258.32117025,63.0,99.0
267,258.3979558875,258.7854555,65.0,102.0
268,258.82652688750005,259.2408121875,60.0,102.0
269,259.2550978875,259.8729544125,63.0,117.0
270,259.68366888750006,260.03902567500006,60.0,95.0
271,260.11223988750004,261.52473847500005,58.0,97.0
272,262.6836658875,263.05866551250006,60.0,100.0
273,263.11223688750005,263.52473647500005,58.0,122.0
274,263.5408078875,264.17652153750004,56.0,107.0
275,264.8265208875,265.11937773750003,58.0,99.0
276,265.25509188750004,265.55687730000005,60.0,102.0
277,265.6836628875,265.99259115,68.0,112.0
278,266.11223388750005,266.4729478125,67.0,99.0
279,266.54080488750003,266.87473312500003,63.0,107.0
280,266.9693758875,268.65687420000006,65.0,102.0
281,269.54080188750004,269.8711587,70.0,122.0
282,269.9693728875,270.2800868625,68.0,117.0
283,270.39794388750005,271.05508608750006,70.0,127.0
284,271.25508588750006,271.5479427375,70.0,112.0
285,271.68365688750004,271.99972800000006,68.0,122.0
286,272.1122278875,272.481870375,60.0,112.0
287,272.54079888750005,272.8479414375,60.0,107.0
288,272.9693698875,273.2800838625,67.0,99.0
289,273.39794088750006,273.7586548125,65.0,97.0
290,273.82651188750003,275.34079608750005,63.0,99.0
291,276.39793788750006,276.78186607500004,70.0,127.0
292,276.82650888750004,277.01400870000003,72.0,107.0
293,277.04079438750006,277.25150846250006,70.0,107.0
294,277.2550798875,278.24615032500003,68.0,117.0
295,278.54079288750006,278.82829260000005,70.0,127.0
296,278.96936388750004,279.2657921625,72.0,122.0
297,279.3979348875,279.75864881250004,67.0,122.0
298,279.82650588750005,280.1657912625,65.0,112.0
299,280.2550768875,280.61400510000004,63.0,112.0
300,280.68364788750006,281.73721826250005,65.0,107.0
301,283.25507388750003,283.59435926250006,65.0,100.0
302,283.6836448875,284.0193588375,68.0,117.0
303,284.11221588750004,284.46400125,70.0,122.0
304,284.96935788750005,285.24792903750006,70.0,127.0
305,285.39792888750003,285.7050714375,72.0,117.0
306,285.82649988750006,286.10685675,70.0,127.0
307,286.25507088750004,286.54435631250004,67.0,100.0
308,286.6836418875,287.0282844,60.0,107.0
309,287.11221288750005,287.4943553625,65.0,100.0
310,287.5407838875,288.38721161250004,63.0,122.0
311,290.11220988750006,290.43363813750005,56.0,97.0
312,290.54078088750003,290.81042347500005,58.0,112.0
313,290.9693518875,291.9479223375,60.0,122.0
314,292.25506488750005,292.56399315000004,63.0,122.0
315,292.68363588750003,293.01042127500006,63.0,117.0
316,293.11220688750007,293.36756377500006,68.0,117.0
317,293.54077788750004,293.79613477500004,67.0,107.0
318,293.9693488875,294.224705775,63.0,102.0
319,294.39791988750005,295.82648988750003,65.0,117.0
320,296.9693458875,297.2800598625,65.0,102.0
321,297.39791688750006,297.6800594625,68.0,107.0
322,297.82648788750004,298.06577336250007,70.0,122.0
323,298.2550588875,298.48720151250006,70.0,127.0
324,299.1122008875,299.4014863125,67.0,99.0
325,299.54077188750006,300.21755692500005,65.0,99.0
326,300.39791388750007,300.7121992875,63.0,95.0
327,300.82648488750004,301.17291311250005,65.0,99.0
328,301.2550558875,303.47826795000003,68.0,112.0
329,303.82648188750005,304.19433866250006,65.0,112.0
330,304.2550528875,304.59969540000003,68.0,122.0
331,304.68362388750006,305.01040927500003,70.0,127.0
332,305.11219488750004,305.43898027500006,70.0,127.0
333,305.96933688750005,306.32647938750006,67.0,97.0
334,306.3979078875,307.2621927375,65.0,112.0
335,307.5193353375,308.1300490125,63.0,96.0
336,308.12469187500005,309.5514761625,65.0,85.0
337,309.82290446250005,310.1729041125,65.0,83.0
338,310.12290416250005,312.94968705,68.0,100.0
