,start,end,pitch,velocity
0,3.8267818875000006,5.242851900000001,56.0,59.0
1,3.3982108875000003,5.348208937500001,51.0,44.0
2,2.9696398875000005,5.446423125000001,44.0,81.0
3,4.683923887500001,6.2178509250000005,68.0,54.0
4,4.683923887500001,7.064278650000001,63.0,56.0
5,4.255352887500001,7.412492587500001,60.0,44.0
6,7.255349887500001,8.498205787500002,53.0,59.0
7,6.826778887500001,8.669634187500002,48.0,51.0
8,6.398207887500001,8.741062687500001,41.0,74.0
9,8.112491887500001,9.305347837500001,65.0,49.0
10,8.112491887500001,9.323204962500002,68.0,53.0
11,7.683920887500001,9.348204937500002,60.0,48.0
12,10.255346887500002,11.367845775000001,49.0,62.0
13,9.826775887500002,11.382131475000001,37.0,72.0
14,11.112488887500001,11.533917037500002,65.0,53.0
15,11.541059887500001,13.232129625000002,65.0,76.0
16,11.541059887500001,13.249986750000001,68.0,79.0
17,10.683917887500002,13.299986700000002,61.0,77.0
18,14.112485887500002,16.12141245,51.0,69.0
19,13.683914887500002,16.169626687500003,46.0,50.0
20,13.255343887500002,16.185698100000003,39.0,74.0
21,14.969627887500002,16.571412000000002,58.0,78.0
22,14.969627887500002,16.5731977125,63.0,92.0
23,14.541056887500002,16.5981976875,55.0,64.0
24,17.969624887500004,18.910695375000003,53.0,72.0
25,17.541053887500002,19.1303380125,49.0,59.0
26,17.1124828875,19.2517664625,44.0,40.0
27,16.683911887500003,19.3517663625,37.0,90.0
28,18.398195887500002,20.121408450000004,56.0,79.0
29,18.398195887500002,20.139265575000003,61.0,88.0
30,19.2553378875,20.167836975000004,53.0,70.0
31,20.1124798875,21.526764187500003,36.0,77.0
32,20.541050887500003,21.571407000000004,43.0,55.0
33,20.969621887500004,21.835692450000003,48.0,63.0
34,21.398192887500002,21.848192437500003,55.0,69.0
35,21.826763887500004,22.799977200000004,41.0,66.0
36,22.255334887500002,22.837477162500004,48.0,54.0
37,22.683905887500003,23.435690850000004,56.0,81.0
38,22.683905887500003,23.464262250000004,60.0,82.0
39,23.1124768875,23.510690775000004,53.0,64.0
40,23.969618887500005,24.519618337500003,58.0,78.0
41,24.826760887500004,25.723188562500003,58.0,75.0
42,23.541047887500003,26.292830850000005,46.0,95.0
43,25.255331887500002,27.016044412500005,65.0,81.0
44,24.398189887500003,27.039258675000003,61.0,96.0
45,26.112473887500002,27.042830100000003,58.0,89.0
46,26.969615887500005,29.541041887500004,39.0,78.0
47,27.398186887500003,29.555327587500003,46.0,62.0
48,27.826757887500005,29.744613112500005,51.0,86.0
49,28.255328887500003,30.269612587500003,55.0,74.0
50,28.683899887500004,30.276755437500004,58.0,76.0
51,28.683899887500004,30.292826850000004,63.0,85.0
52,31.683896887500005,32.276753437500005,60.0,79.0
53,31.255325887500003,32.499967500000004,56.0,72.0
54,32.5410388875,32.9410384875,56.0,37.0
55,30.826754887500005,33.0088955625,51.0,52.0
56,32.1124678875,33.053538375,63.0,66.0
57,30.398183887500004,33.062466937500005,44.0,96.0
58,32.1124678875,33.8838946875,68.0,75.0
59,32.969609887500006,33.948180337500006,60.0,72.0
60,35.1124648875,35.692821450000004,56.0,70.0
61,34.683893887500005,35.8410355875,53.0,77.0
62,35.96960688750001,36.287463712500006,53.0,46.0
63,33.8267518875,36.478534950000004,41.0,68.0
64,34.25532288750001,36.505320637500006,48.0,56.0
65,35.5410358875,36.53746346250001,60.0,68.0
66,36.8267488875,37.3124626875,60.0,64.0
67,35.5410358875,37.32317696250001,65.0,63.0
68,36.398177887500005,37.37317691250001,56.0,70.0
69,38.5410328875,39.053532375,53.0,53.0
70,38.112461887500004,39.11960373750001,49.0,70.0
71,37.683890887500006,39.808888762500004,44.0,32.0
72,37.25531988750001,39.85531728750001,37.0,88.0
73,38.96960388750001,39.932102925,56.0,82.0
74,39.398174887500005,40.02317426250001,49.0,39.0
75,39.8267458875,40.707102150000004,53.0,74.0
76,40.25531688750001,40.724959275,56.0,58.0
77,38.96960388750001,40.764244950000005,61.0,95.0
78,41.5410298875,42.621385950000004,51.0,85.0
79,41.96960088750001,42.8196000375,55.0,63.0
80,42.398171887500006,43.319599537500004,58.0,90.0
81,42.826742887500004,43.389242325000005,51.0,78.0
82,41.112458887500004,43.47317081250001,46.0,41.0
83,40.683887887500006,43.4999565,39.0,88.0
84,43.25531388750001,44.094598762500006,55.0,93.0
85,43.68388488750001,44.119598737500006,58.0,58.0
86,42.398171887500006,44.167812975000004,63.0,95.0
87,44.96959788750001,46.1124538875,49.0,61.0
88,45.826739887500004,46.59638197500001,61.0,88.0
89,45.826739887500004,46.637453362500004,56.0,67.0
90,45.398168887500006,46.819596037500006,53.0,55.0
91,46.25531088750001,46.857096000000006,49.0,40.0
92,44.5410268875,46.899953100000005,44.0,31.0
93,44.112455887500005,46.992810150000004,37.0,85.0
94,46.68388188750001,47.5285239,56.0,73.0
95,46.68388188750001,47.555309587500005,61.0,102.0
96,47.112452887500005,47.59995240000001,53.0,67.0
97,47.5410238875,48.783879787500005,36.0,70.0
98,47.96959488750001,48.8445940125,43.0,65.0
99,48.39816588750001,49.24102218750001,48.0,82.0
100,48.826736887500005,49.30530783750001,55.0,81.0
101,49.25530788750001,50.198164087500004,41.0,70.0
102,49.68387888750001,50.255306887500005,48.0,63.0
103,50.112449887500006,50.898163387500006,56.0,85.0
104,50.112449887500006,50.90173481250001,60.0,73.0
105,50.541020887500004,50.94459191250001,53.0,62.0
106,51.826733887500005,53.00887556250001,58.0,72.0
107,53.112446887500006,53.485660800000005,58.0,55.0
108,51.39816288750001,53.57494642500001,53.0,57.0
109,50.96959188750001,53.623160662500005,46.0,89.0
110,52.25530488750001,53.66244633750001,61.0,86.0
111,52.68387588750001,54.439231275000004,65.0,78.0
112,53.541017887500004,54.439231275000004,70.0,72.0
113,53.96958888750001,54.532088325000004,61.0,50.0
114,55.68387288750001,56.228515200000004,55.0,72.0
115,55.25530188750001,56.36244363750001,51.0,95.0
116,56.11244388750001,57.12494287500001,58.0,93.0
117,54.39815988750001,57.39279975000001,39.0,78.0
118,54.826730887500005,57.469585387500004,46.0,59.0
119,56.541014887500005,57.70887086250001,51.0,78.0
120,56.96958588750001,57.74637082500001,55.0,99.0
121,57.39815688750001,57.76065652500001,58.0,102.0
122,56.11244388750001,57.78744221250001,63.0,88.0
123,59.11244088750001,59.633868937500004,60.0,76.0
124,58.68386988750001,59.753511675000006,56.0,85.0
125,59.96958288750001,60.45351097500001,56.0,68.0
126,58.25529888750001,60.48386808750001,51.0,58.0
127,59.541011887500005,60.49815378750001,63.0,72.0
128,57.826727887500006,60.607082250000005,44.0,78.0
129,60.826724887500006,61.26958158750001,63.0,66.0
130,59.541011887500005,61.31065297500001,68.0,93.0
131,60.39815388750001,62.38922332500001,60.0,82.0
132,62.541008887500006,63.08029406250001,60.0,82.0
133,62.11243788750001,63.14457971250001,53.0,81.0
134,62.96957988750001,63.72850770000001,65.0,74.0
135,63.39815088750001,63.78386478750001,53.0,53.0
136,61.68386688750001,63.85172186250001,48.0,42.0
137,61.25529588750001,63.85350757500001,41.0,72.0
138,63.82672188750001,64.32672138750002,60.0,95.0
139,64.2552928875,64.71243528750001,65.0,88.0
140,64.46957838750001,64.7856495,60.0,86.0
141,62.96957988750001,64.78922092500001,68.0,89.0
142,65.5410058875,66.47136210000001,53.0,82.0
143,65.96957688750001,66.582076275,49.0,75.0
144,64.68386388750001,67.27136130000001,37.0,86.0
145,65.11243488750002,67.30707555000001,44.0,33.0
146,66.3981478875,67.39100403750001,56.0,92.0
147,66.82671888750001,67.48207537500001,49.0,83.0
148,67.25528988750001,68.0731462125,53.0,97.0
149,66.3981478875,68.1231461625,61.0,102.0
150,67.6838608875,68.13028901250001,56.0,81.0
151,68.9695738875,69.98207287500001,51.0,99.0
152,69.39814488750001,70.196358375,55.0,89.0
153,69.82671588750001,70.73207212500002,58.0,112.0
154,70.2552868875,70.73742926250002,51.0,102.0
155,68.54100288750001,70.960643325,46.0,43.0
156,70.89814338750001,71.00528613750001,51.0,93.0
157,68.11243188750001,71.00885756250001,39.0,88.0
158,70.68385788750001,71.16957168750001,55.0,107.0
159,71.11242888750002,71.51778562500002,58.0,117.0
160,69.82671588750001,71.546357025,63.0,117.0
161,71.3267143875,71.55349987500001,55.0,96.0
162,71.96957088750001,72.56957028750001,49.0,92.0
163,72.3981418875,73.1231411625,56.0,99.0
164,72.82671288750001,73.53206932500001,49.0,81.0
165,73.25528388750001,73.96778317500001,56.0,90.0
166,73.6838548875,74.12671158750001,49.0,81.0
167,71.75528538750001,74.16242583750001,44.0,59.0
168,72.18385638750001,74.1945686625,53.0,56.0
169,71.5409998875,74.34099708750001,37.0,82.0
170,74.11242588750001,74.92313936250001,56.0,107.0
171,73.25528388750001,74.93385363750001,61.0,97.0
172,74.54099688750001,74.99278215000001,53.0,88.0
173,74.9695678875,76.3802807625,36.0,82.0
174,75.39813888750001,76.43206642500002,43.0,42.0
175,75.82670988750002,76.67849475000001,48.0,85.0
176,76.2552808875,76.68028046250001,55.0,95.0
177,76.68385188750001,77.782065075,41.0,78.0
178,77.11242288750002,77.80706505,48.0,67.0
179,77.54099388750001,78.31063597500001,56.0,100.0
180,77.96956488750001,78.332064525,53.0,86.0
181,77.54099388750001,78.34099308750001,60.0,88.0
182,79.25527788750001,79.68206317500001,58.0,93.0
183,78.3981358875,79.7195631375,46.0,96.0
184,78.82670688750001,79.72134885000001,53.0,59.0
185,79.6838488875,80.0945627625,61.0,107.0
186,80.11241988750001,81.11420460000001,39.0,97.0
187,80.54099088750002,81.35884721250001,51.0,86.0
188,81.39813288750001,81.52134705000002,55.0,58.0
189,80.9695618875,81.82670388750002,58.0,88.0
190,80.9695618875,81.82670388750002,63.0,93.0
191,82.25527488750001,83.432059425,51.0,53.0
192,82.68384588750001,83.46598796250001,56.0,99.0
193,81.82670388750002,83.49098793750001,44.0,89.0
194,83.1124168875,83.49813078750002,63.0,83.0
195,83.1124168875,83.50527363750001,68.0,99.0
196,83.54098788750001,83.83920187500001,37.0,48.0
197,83.54098788750001,83.9731303125,49.0,93.0
198,83.54098788750001,84.06598736250001,68.0,77.0
199,83.54098788750001,84.21420150000002,61.0,90.0
200,83.54098788750001,84.23027291250001,65.0,71.0
201,84.3981298875,84.68205817500001,39.0,82.0
202,84.3981298875,84.81955803750002,51.0,79.0
203,84.3981298875,85.18205767500001,67.0,85.0
204,84.3981298875,85.21420050000002,70.0,96.0
205,84.3981298875,85.253486175,63.0,92.0
206,85.6838428875,86.14812813750001,56.0,97.0
207,85.89812838750001,86.27669943750001,60.0,82.0
208,85.25527188750002,86.86419885000001,44.0,83.0
209,85.46955738750002,86.9302702125,51.0,58.0
210,86.32669938750001,87.02134155000002,56.0,88.0
211,86.54098488750002,87.14098428750002,63.0,97.0
212,86.11241388750001,87.160627125,68.0,117.0
213,86.7552703875,87.224912775,60.0,93.0
214,87.39812688750001,87.83562645,56.0,90.0
215,87.61241238750002,88.03741196250002,60.0,92.0
216,87.18384138750001,88.10526903750001,51.0,49.0
217,88.0409833875,88.13384043750001,56.0,86.0
218,86.96955588750001,88.18205467500002,44.0,88.0
219,87.82669788750002,88.58741141250002,68.0,122.0
220,88.25526888750001,88.64455421250001,63.0,117.0
221,88.46955438750001,88.69455416250001,60.0,97.0
222,89.1124108875,89.56419615000001,48.0,82.0
223,89.32669638750001,89.77312451250002,55.0,86.0
224,88.68383988750001,90.23205262500001,36.0,83.0
225,89.96955288750002,90.39276675,60.0,88.0
226,88.89812538750002,90.39455246250002,43.0,66.0
227,90.18383838750002,90.3981238875,55.0,97.0
228,89.54098188750001,90.40169531250001,63.0,117.0
229,89.75526738750001,90.47133810000001,48.0,86.0
230,91.04098038750001,91.17490882500002,67.0,88.0
231,91.04098038750001,91.19812308750001,63.0,96.0
232,90.82669488750001,91.28740871250001,48.0,85.0
233,90.3981238875,91.51776562500001,36.0,86.0
234,90.61240938750001,91.56240843750001,43.0,63.0
235,91.46955138750002,91.589194125,48.0,92.0
236,91.25526588750002,91.67133690000001,63.0,112.0
237,91.68383688750001,91.98562230000002,60.0,112.0
238,91.25526588750002,91.99812228750001,67.0,96.0
239,91.89812238750001,92.11597931250002,63.0,117.0
240,92.54097888750002,92.95347847500001,49.0,93.0
241,92.7552643875,93.04812123750001,53.0,77.0
242,92.96954988750001,93.52133505000002,56.0,117.0
243,92.11240788750001,93.72312056250001,37.0,88.0
244,92.32669338750001,93.79276335000002,44.0,70.0
245,93.18383538750001,93.96240603750002,49.0,93.0
246,93.39812088750001,93.9909774375,53.0,89.0
247,93.61240638750002,94.30526283750001,61.0,107.0
248,93.61240638750002,94.41419130000001,56.0,45.0
249,94.25526288750001,94.68561960000001,49.0,96.0
250,94.46954838750001,94.83561945000001,53.0,90.0
251,93.82669188750002,94.95883361250002,37.0,90.0
252,94.0409773875,94.96597646250001,44.0,93.0
253,94.89811938750002,95.14633342500001,49.0,97.0
254,94.68383388750001,95.50704735000001,61.0,127.0
255,95.1124048875,95.51061877500001,56.0,93.0
256,95.32669038750001,95.54633302500001,53.0,89.0
257,96.18383238750002,96.43561785000001,55.0,86.0
258,95.96954688750002,96.45168926250001,51.0,89.0
259,96.3981178875,96.83740316250001,58.0,99.0
260,95.54097588750001,97.10347432500001,39.0,73.0
261,95.75526138750001,97.14633142500001,46.0,30.0
262,97.04097438750001,97.2838312875,58.0,90.0
263,96.61240338750001,97.28740271250001,51.0,95.0
264,96.82668888750001,97.28740271250001,55.0,92.0
265,96.3981178875,97.29811698750001,63.0,112.0
266,97.89811638750001,98.00704485000001,67.0,93.0
267,97.89811638750001,98.02847340000001,63.0,92.0
268,97.89811638750001,98.03025911250002,70.0,92.0
269,97.68383088750001,98.13204472500001,51.0,97.0
270,98.32668738750002,98.44633012500002,51.0,99.0
271,97.25525988750002,98.44990155,39.0,81.0
272,97.46954538750002,98.46240153750001,46.0,78.0
273,98.11240188750001,98.56061572500002,67.0,102.0
274,98.54097288750002,98.89097253750002,63.0,112.0
275,98.7552583875,98.91240108750002,67.0,50.0
276,98.11240188750001,98.92490107500001,70.0,95.0
277,99.39811488750001,99.83561445000001,49.0,88.0
278,99.61240038750002,99.86954298750001,53.0,67.0
279,99.82668588750002,100.27311401250002,56.0,88.0
280,98.96954388750001,100.56597086250001,37.0,77.0
281,99.18382938750001,100.61954223750001,44.0,63.0
282,100.25525688750001,100.6570422,53.0,75.0
283,100.04097138750001,100.77489922500001,49.0,92.0
284,100.46954238750001,100.782042075,56.0,102.0
285,99.82668588750002,100.83382773750002,61.0,99.0
286,101.1123988875,101.59275555,49.0,93.0
287,101.32668438750001,101.66954118750002,53.0,90.0
288,100.89811338750002,101.77846965000002,44.0,39.0
289,100.68382788750002,101.80346962500002,37.0,86.0
290,101.75525538750001,101.92132665000001,49.0,92.0
291,101.96954088750002,102.28918342500002,56.0,81.0
292,101.54096988750001,102.31596911250001,61.0,117.0
293,102.18382638750002,102.34811193750001,53.0,93.0
294,102.82668288750001,103.289182425,53.0,76.0
295,103.04096838750002,103.36418235000001,56.0,69.0
296,103.4695393875,103.7195391375,53.0,85.0
297,102.39811188750001,103.98918172500001,41.0,69.0
298,102.61239738750001,104.18203867500002,48.0,53.0
299,103.68382488750001,104.24096718750002,56.0,79.0
300,103.89811038750001,104.62310966250001,60.0,76.0
301,103.25525388750002,104.68025246250001,65.0,72.0
302,104.54096688750002,105.07310921250001,53.0,85.0
303,104.75525238750001,105.07310921250001,56.0,72.0
304,104.96953788750001,105.2409661875,60.0,34.0
305,104.11239588750001,105.26239473750002,41.0,66.0
306,104.32668138750002,105.27668043750002,48.0,78.0
307,105.18382338750001,105.39810888750002,53.0,71.0
308,105.39810888750002,105.72310856250002,56.0,97.0
309,104.96953788750001,105.77489422500001,65.0,65.0
310,105.61239438750002,105.78739421250002,60.0,63.0
311,106.25525088750001,106.70346472500002,58.0,99.0
312,106.46953638750001,106.80882176250002,61.0,85.0
313,106.68382188750002,107.28203557500001,65.0,82.0
314,105.82667988750002,107.40524973750001,46.0,107.0
315,106.04096538750001,107.52132105000001,53.0,60.0
316,106.89810738750002,107.76060652500001,58.0,93.0
317,107.32667838750001,108.03739196250001,65.0,35.0
318,107.11239288750001,108.07310621250001,61.0,90.0
319,107.32667838750001,108.07667763750001,70.0,86.0
320,107.96953488750002,108.44810583750001,58.0,85.0
321,108.18382038750002,108.47667723750001,61.0,96.0
322,108.61239138750001,108.68917702500002,58.0,99.0
323,107.75524938750002,108.69274845000001,53.0,66.0
324,107.54096388750001,108.71596271250002,46.0,70.0
325,108.39810588750001,108.83203402500001,65.0,81.0
326,108.82667688750001,109.10346232500001,61.0,122.0
327,108.39810588750001,109.21953363750002,70.0,122.0
328,109.04096238750002,109.26953358750002,65.0,58.0
329,109.68381888750001,110.16417555000001,51.0,93.0
330,109.89810438750001,110.19274695000001,55.0,83.0
331,110.11238988750002,110.59096083750002,63.0,117.0
332,110.11238988750002,110.59810368750001,58.0,100.0
333,109.25524788750002,110.85346057500001,39.0,75.0
334,109.46953338750001,110.94631762500002,46.0,66.0
335,110.32667538750002,111.04453181250001,51.0,99.0
336,110.54096088750002,111.06596036250002,55.0,107.0
337,110.75524638750001,111.47131710000002,58.0,107.0
338,110.75524638750001,111.52131705000001,63.0,117.0
339,111.39810288750002,111.86953098750001,51.0,107.0
340,111.61238838750002,111.91595951250001,55.0,97.0
341,111.18381738750001,112.09274505000002,46.0,99.0
342,110.96953188750001,112.12488787500001,39.0,89.0
343,112.04095938750001,112.25167346250001,51.0,100.0
344,111.82667388750002,112.31953053750001,58.0,112.0
345,112.25524488750001,112.55167316250001,55.0,102.0
346,112.46953038750001,112.63560165000001,58.0,127.0
347,111.82667388750002,112.64453021250002,63.0,127.0
348,113.11238688750001,113.56774357500001,56.0,97.0
349,113.32667238750001,113.59274355000001,60.0,82.0
350,113.54095788750001,114.03560025000002,63.0,86.0
351,112.68381588750002,114.28738571250001,44.0,85.0
352,112.89810138750002,114.37667133750001,51.0,85.0
353,113.75524338750002,114.47309981250001,56.0,97.0
354,113.96952888750002,114.88917082500002,60.0,90.0
355,113.54095788750001,115.04988495000002,68.0,117.0
356,114.18381438750002,115.08738491250001,63.0,117.0
357,114.82667088750001,115.27309901250001,56.0,97.0
358,115.04095638750002,115.46595596250002,60.0,89.0
359,114.61238538750001,115.56238443750001,51.0,85.0
360,115.46952738750001,115.61059867500002,56.0,95.0
361,114.39809988750001,115.62131295000002,44.0,89.0
362,115.25524188750002,115.92131265000002,68.0,127.0
363,115.68381288750001,115.97309831250001,63.0,112.0
364,115.89809838750001,116.60881196250001,60.0,99.0
365,116.54095488750002,117.04274010000002,53.0,93.0
366,116.75524038750001,117.25166846250002,60.0,96.0
367,117.18381138750001,117.41416830000001,53.0,89.0
368,116.11238388750002,117.73381083750002,41.0,64.0
369,116.96952588750001,117.90881066250002,68.0,127.0
370,116.32666938750002,117.91416780000002,48.0,62.0
371,117.39809688750002,118.05881051250002,65.0,99.0
372,117.61238238750002,118.35166736250001,60.0,93.0
373,118.25523888750001,118.75702410000001,53.0,92.0
374,117.82666788750002,118.98202387500001,41.0,64.0
375,118.04095338750001,119.00166671250001,48.0,69.0
376,118.46952438750002,119.00166671250001,60.0,64.0
377,118.89809538750002,119.11238088750001,53.0,78.0
378,118.68380988750002,119.40702345000001,68.0,127.0
379,119.11238088750001,119.49273765000001,65.0,112.0
380,119.32666638750001,119.52666618750001,60.0,95.0
381,119.96952288750002,120.41237958750001,58.0,89.0
382,120.18380838750002,120.48737951250001,61.0,93.0
383,120.39809388750001,120.94273620000001,65.0,67.0
384,119.54095188750001,121.08916462500001,46.0,90.0
385,119.75523738750002,121.25702160000002,53.0,59.0
386,120.61237938750001,121.47487852500002,58.0,93.0
387,120.82666488750002,121.78916392500001,61.0,83.0
388,121.04095038750002,121.85702100000002,70.0,107.0
389,121.04095038750002,121.86773527500002,65.0,38.0
390,121.68380688750001,122.13559215000002,58.0,88.0
391,121.89809238750001,122.25166346250002,61.0,100.0
392,121.46952138750001,122.27130630000002,53.0,70.0
393,121.25523588750002,122.31059197500002,46.0,76.0
394,122.32666338750002,122.58559170000001,61.0,66.0
395,122.54094888750002,122.87844855000002,65.0,66.0
396,122.11237788750002,122.94630562500002,70.0,127.0
397,122.75523438750001,122.97666273750002,61.0,102.0
398,123.39809088750002,123.84451901250002,51.0,89.0
399,123.61237638750002,124.07130450000001,55.0,83.0
400,122.96951988750001,124.54987545000002,39.0,85.0
401,123.18380538750002,124.64808963750002,46.0,37.0
402,124.46951838750002,124.76951808750002,55.0,86.0
403,124.25523288750001,124.77130380000001,58.0,107.0
404,123.82666188750001,124.77666093750001,63.0,117.0
405,124.04094738750001,124.87666083750001,51.0,83.0
406,125.11237488750001,125.58380298750002,51.0,85.0
407,124.89808938750002,125.83023131250002,46.0,37.0
408,125.75523138750002,125.87130270000002,51.0,77.0
409,124.68380388750002,125.88201697500001,39.0,83.0
410,125.32666038750001,126.03201682500001,55.0,72.0
411,125.96951688750002,126.28915942500002,58.0,83.0
412,125.54094588750002,126.33915937500002,63.0,102.0
413,126.18380238750002,126.53201632500001,55.0,69.0
414,126.82665888750002,127.30701555000002,48.0,77.0
415,127.04094438750002,127.47844395000001,55.0,72.0
416,127.46951538750001,127.71951513750001,48.0,71.0
417,126.39808788750001,127.99987200000001,36.0,76.0
418,126.61237338750001,128.16951468750003,43.0,64.0
419,127.25522988750002,128.20165751250002,63.0,99.0
420,127.68380088750001,128.21951463750003,60.0,92.0
421,127.89808638750002,128.41415730000003,55.0,86.0
422,128.54094288750002,129.00701385000002,48.0,81.0
423,128.7552283875,129.16237083750002,55.0,79.0
424,128.11237188750002,129.30165641250002,36.0,57.0
425,128.3266573875,129.3427278,43.0,66.0
426,129.18379938750002,129.69272745,48.0,83.0
427,128.96951388750003,129.76237023750002,63.0,112.0
428,129.3980848875,129.78379878750002,60.0,89.0
429,129.61237038750002,129.79987020000002,55.0,93.0
430,130.25522688750002,130.753440675,53.0,79.0
431,130.4695123875,130.7980834875,60.0,75.0
432,130.8980833875,131.11772602500002,53.0,86.0
433,129.8266558875,131.44093998750003,41.0,86.0
434,130.04094138750003,131.574868425,48.0,56.0
435,131.3266543875,132.0695107875,60.0,96.0
436,130.68379788750002,132.08379648750002,68.0,102.0
437,131.11236888750003,132.09451076250002,65.0,89.0
438,131.9695108875,132.44986755000002,53.0,93.0
439,132.18379638750002,132.44986755000002,60.0,96.0
440,131.54093988750003,132.83915287500002,41.0,65.0
441,132.3980818875,132.896295675,65.0,99.0
442,131.75522538750002,132.89986710000002,48.0,74.0
443,132.3980818875,132.92129565000002,68.0,122.0
444,132.61236738750003,133.06415265,53.0,93.0
445,132.82665288750002,133.16772397500003,60.0,107.0
446,133.0409383875,133.23200962500002,65.0,89.0
447,133.0409383875,133.26058102500002,68.0,89.0
448,133.4695093875,134.1623658375,58.0,96.0
449,133.68379488750003,134.17843725000003,61.0,95.0
450,133.25522388750002,134.27308001250003,46.0,73.0
451,133.89808038750002,134.27843715000003,65.0,81.0
452,134.32665138750002,134.6016511125,61.0,97.0
453,134.1123658875,134.91593651250002,70.0,97.0
454,134.5409368875,134.94986505000003,65.0,51.0
455,134.75522238750003,134.98736501250002,61.0,112.0
456,135.82664988750003,136.59272055000002,46.0,38.0
457,135.82664988750003,136.63200622500003,58.0,71.0
458,135.82664988750003,136.63736336250003,51.0,58.0
459,135.82664988750003,136.639149075,55.0,64.0
460,135.82664988750003,136.66950618750002,63.0,63.0
461,134.96950788750001,136.70700615,39.0,96.0
462,140.96950188750003,142.1141436,49.0,88.0
463,140.54093088750002,142.703428725,44.0,53.0
464,141.3980728875,142.70700015000003,53.0,61.0
465,140.11235988750002,142.78914292500002,37.0,79.0
466,142.68378588750002,143.524856475,56.0,61.0
467,143.11235688750003,143.55164216250003,53.0,63.0
468,141.8266438875,143.56771357500003,61.0,72.0
469,144.82664088750002,145.38378318750003,55.0,67.0
470,144.39806988750001,145.42128315000002,48.0,60.0
471,143.9694988875,145.98913972500003,43.0,52.0
472,143.54092788750003,146.00521113750003,36.0,77.0
473,145.68378288750003,146.117711025,48.0,45.0
474,145.25521188750002,146.23556805,60.0,83.0
475,146.1123538875,146.7016390125,55.0,79.0
476,146.5409248875,146.94806733750002,60.0,64.0
477,145.25521188750002,146.97128160000003,63.0,81.0
478,147.82663788750003,148.8837796875,58.0,69.0
479,148.25520888750003,148.94270820000003,61.0,82.0
480,149.1123508875,149.51235048750002,58.0,76.0
481,147.39806688750002,149.58020756250002,53.0,48.0
482,148.6837798875,149.61235038750002,65.0,71.0
483,146.96949588750002,149.64627892500002,46.0,78.0
484,149.96949288750002,150.44806383750003,65.0,72.0
485,148.6837798875,150.4712781,70.0,72.0
486,149.54092188750002,150.48199237500003,61.0,93.0
487,151.2552058875,152.28020486250003,51.0,100.0
488,151.68377688750002,152.51949033750003,55.0,83.0
489,152.11234788750002,152.85699000000002,58.0,107.0
490,152.54091888750003,153.00520413750002,51.0,85.0
491,150.8266348875,153.253418175,46.0,62.0
492,153.18377538750002,153.27484672500003,51.0,99.0
493,150.39806388750003,153.303418125,39.0,83.0
494,152.96948988750003,153.4373465625,58.0,127.0
495,153.3980608875,153.79091763750003,55.0,102.0
496,152.11234788750002,153.8480604375,63.0,122.0
497,153.61234638750003,153.84984615000002,58.0,127.0
498,154.25520288750002,154.714131,49.0,93.0
499,154.4694883875,154.89448796250002,53.0,79.0
500,153.8266318875,155.4802016625,37.0,93.0
501,154.04091738750003,155.57841585000003,44.0,71.0
502,154.8980593875,155.83377273750003,49.0,93.0
503,155.32663038750002,156.0087725625,53.0,82.0
504,154.68377388750002,156.14448671250003,61.0,117.0
505,155.11234488750003,156.146272425,56.0,99.0
506,155.9694868875,156.39984360000003,49.0,89.0
507,155.75520138750002,156.67305761250003,44.0,36.0
508,156.18377238750003,156.72305756250003,53.0,90.0
509,156.61234338750003,156.7516289625,49.0,85.0
510,155.54091588750003,156.774843225,37.0,74.0
511,156.82662888750002,157.19984280000003,56.0,92.0
512,156.39805788750002,157.21769992500003,61.0,112.0
513,157.0409143875,157.25877131250002,53.0,89.0
514,157.68377088750003,158.15341327500002,48.0,95.0
515,157.89805638750002,158.3855559,55.0,86.0
516,157.25519988750003,158.49805578750002,36.0,69.0
517,157.46948538750001,158.50519863750003,43.0,60.0
518,158.1123418875,158.8623411375,63.0,117.0
519,158.32662738750003,158.867698275,48.0,86.0
520,158.5409128875,158.9230553625,60.0,99.0
521,158.75519838750003,158.94091248750001,55.0,93.0
522,159.39805488750002,159.889125825,53.0,92.0
523,158.96948388750002,160.09269705000003,41.0,79.0
524,159.1837693875,160.09805418750003,48.0,62.0
525,159.6123403875,160.14091128750002,60.0,99.0
526,160.04091138750002,160.20162551250002,53.0,86.0
527,159.82662588750003,160.68019646250002,68.0,127.0
528,160.46948238750002,160.69805358750003,60.0,96.0
529,160.25519688750003,160.70876786250003,65.0,92.0
530,161.11233888750002,161.62305266250002,58.0,96.0
531,161.32662438750003,161.63019551250002,61.0,78.0
532,161.54090988750002,161.96412375000003,65.0,68.0
533,160.6837678875,162.28198057500003,46.0,86.0
534,160.89805338750003,162.42305186250002,53.0,58.0
535,161.7551953875,162.58198027500003,58.0,96.0
536,161.96948088750003,162.84626572500002,61.0,100.0
537,162.18376638750001,162.95162276250002,65.0,55.0
538,161.54090988750002,163.00162271250002,70.0,102.0
539,162.8266228875,163.13555115000003,58.0,92.0
540,162.61233738750002,163.16233683750002,53.0,56.0
541,162.39805188750003,163.21769392500002,46.0,95.0
542,163.04090838750002,163.29626527500002,61.0,97.0
543,163.2551938875,163.73019341250003,65.0,63.0
544,163.68376488750002,163.96769317500002,48.0,97.0
545,163.2551938875,164.0659073625,70.0,107.0
546,163.68376488750002,164.10519303750002,60.0,92.0
547,164.11233588750002,164.5873354125,61.0,99.0
548,164.54090688750003,165.2266204875,49.0,93.0
549,164.11233588750002,165.29983470000002,37.0,122.0
550,165.3980488875,167.4855468,39.0,99.0
551,165.3980488875,167.5141182,55.0,89.0
552,165.3980488875,167.52661818750002,51.0,100.0
553,165.3980488875,167.53376103750003,58.0,97.0
554,168.82661688750002,169.34804493750002,60.0,76.0
555,168.39804588750002,169.46768767500004,56.0,85.0
556,169.68375888750003,170.167686975,56.0,68.0
557,167.9694748875,170.19804408750002,51.0,58.0
558,169.25518788750003,170.2123297875,63.0,72.0
559,167.5409038875,170.32125825000003,44.0,78.0
560,170.54090088750002,170.9837575875,63.0,66.0
561,169.25518788750003,171.02482897500002,68.0,93.0
562,170.1123298875,172.10339932500003,60.0,82.0
563,172.25518488750004,172.7944700625,60.0,82.0
564,171.82661388750003,172.85875571250003,53.0,81.0
565,172.6837558875,173.44268370000003,65.0,74.0
566,173.11232688750002,173.49804078750003,53.0,53.0
567,171.39804288750003,173.5658978625,48.0,42.0
568,170.96947188750002,173.56768357500002,41.0,72.0
569,173.54089788750002,174.04089738750002,60.0,95.0
570,173.96946888750003,174.4266112875,65.0,88.0
571,174.18375438750002,174.49982550000001,60.0,86.0
572,172.6837558875,174.50339692500003,68.0,89.0
573,175.25518188750002,176.18553810000003,53.0,82.0
574,175.68375288750002,176.29625227500003,49.0,75.0
575,174.39803988750003,176.98553730000003,37.0,86.0
576,174.8266108875,177.02125155000002,44.0,33.0
577,176.11232388750003,177.10518003750002,56.0,92.0
578,176.54089488750003,177.19625137500003,49.0,83.0
579,176.96946588750004,177.78732221250002,53.0,97.0
580,176.11232388750003,177.83732216250002,61.0,102.0
581,177.3980368875,177.84446501250002,56.0,81.0
582,178.68374988750003,179.69624887500004,51.0,99.0
583,179.11232088750003,179.91053437500003,55.0,89.0
584,179.5408918875,180.446248125,58.0,112.0
585,179.96946288750001,180.4516052625,51.0,102.0
586,178.25517888750002,180.67481932500002,46.0,43.0
587,180.61231938750004,180.71946213750002,51.0,93.0
588,177.82660788750002,180.72303356250004,39.0,88.0
589,180.39803388750002,180.88374768750003,55.0,107.0
590,180.82660488750003,181.23196162500003,58.0,117.0
591,179.5408918875,181.26053302500003,63.0,117.0
592,181.0408903875,181.26767587500004,55.0,96.0
593,181.68374688750004,182.28374628750004,49.0,92.0
594,182.1123178875,182.83731716250003,56.0,99.0
595,182.54088888750002,183.24624532500002,49.0,81.0
596,182.96945988750002,183.68195917500003,56.0,90.0
597,183.39803088750003,183.84088758750002,49.0,81.0
598,181.46946138750002,183.87660183750003,44.0,59.0
599,181.89803238750002,183.90874466250003,53.0,56.0
600,181.25517588750003,184.05517308750004,37.0,82.0
601,183.82660188750003,184.63731536250003,56.0,107.0
602,182.96945988750002,184.64802963750003,61.0,97.0
603,184.25517288750004,184.70695815000002,53.0,88.0
604,184.68374388750001,186.09445676250002,36.0,82.0
605,185.11231488750002,186.14624242500003,43.0,42.0
606,185.54088588750002,186.39267075000004,48.0,85.0
607,185.96945688750003,186.39445646250002,55.0,95.0
608,186.39802788750004,187.49624107500003,41.0,78.0
609,186.8265988875,187.52124105000001,48.0,67.0
610,187.25516988750002,188.02481197500003,56.0,100.0
611,187.68374088750002,188.04624052500003,53.0,86.0
612,187.25516988750002,188.05516908750002,60.0,88.0
613,188.96945388750004,189.39623917500003,58.0,93.0
614,188.11231188750003,189.43373913750003,46.0,96.0
615,188.54088288750003,189.43552485000004,53.0,59.0
616,189.39802488750001,189.8087387625,61.0,107.0
617,189.82659588750002,190.82838060000003,39.0,97.0
618,190.25516688750002,191.07302321250003,51.0,86.0
619,191.11230888750003,191.23552305,55.0,58.0
620,190.68373788750003,191.5408798875,58.0,88.0
621,190.68373788750003,191.5408798875,63.0,93.0
622,191.96945088750002,193.14623542500001,51.0,53.0
623,192.39802188750002,193.18016396250002,56.0,99.0
624,191.5408798875,193.20516393750003,44.0,89.0
625,192.82659288750003,193.2123067875,63.0,83.0
626,192.82659288750003,193.21944963750002,68.0,99.0
627,193.25516388750003,193.55337787500002,37.0,48.0
628,193.25516388750003,193.68730631250003,49.0,93.0
629,193.25516388750003,193.78016336250002,68.0,77.0
630,193.25516388750003,193.92837750000004,61.0,90.0
631,193.25516388750003,193.94444891250004,65.0,71.0
632,194.1123058875,194.39623417500002,39.0,82.0
633,194.1123058875,194.53373403750004,51.0,79.0
634,194.1123058875,194.89623367500002,67.0,85.0
635,194.1123058875,194.9283765,70.0,96.0
636,194.1123058875,194.96766217500002,63.0,92.0
637,195.39801888750003,195.86230413750002,56.0,97.0
638,195.61230438750002,195.99087543750002,60.0,82.0
639,194.96944788750002,196.57837485000002,44.0,83.0
640,195.1837333875,196.64444621250001,51.0,58.0
641,196.04087538750002,196.73551755000003,56.0,88.0
642,196.25516088750004,196.8551602875,63.0,97.0
643,195.82658988750003,196.87480312500003,68.0,117.0
644,196.46944638750003,196.93908877500002,60.0,93.0
645,197.11230288750002,197.54980245000002,56.0,90.0
646,197.32658838750004,197.75158796250003,60.0,92.0
647,196.89801738750003,197.81944503750003,51.0,49.0
648,197.75515938750002,197.84801643750004,56.0,86.0
649,196.68373188750002,197.89623067500003,44.0,88.0
650,197.54087388750003,198.30158741250003,68.0,122.0
651,197.96944488750003,198.35873021250003,63.0,117.0
652,198.18373038750002,198.40873016250004,60.0,97.0
653,198.8265868875,199.27837215000002,48.0,82.0
654,199.04087238750003,199.4873005125,55.0,86.0
655,198.39801588750004,199.94622862500003,36.0,83.0
656,199.68372888750002,200.10694275000003,60.0,88.0
657,198.61230138750003,200.10872846250004,43.0,66.0
658,199.8980143875,200.11229988750003,55.0,97.0
659,199.25515788750002,200.11587131250002,63.0,117.0
660,199.46944338750004,200.18551410000003,48.0,86.0
661,200.75515638750002,200.88908482500003,67.0,88.0
662,200.75515638750002,200.91229908750003,63.0,96.0
663,200.54087088750003,201.00158471250003,48.0,85.0
664,200.11229988750003,201.23194162500002,36.0,86.0
665,200.32658538750002,201.27658443750002,43.0,63.0
666,201.18372738750003,201.30337012500001,48.0,92.0
667,200.96944188750004,201.38551290000004,63.0,112.0
668,201.39801288750002,201.69979830000003,60.0,112.0
669,200.96944188750004,201.71229828750003,67.0,96.0
670,201.61229838750003,201.83015531250004,63.0,117.0
671,202.25515488750003,202.66765447500003,49.0,93.0
672,202.46944038750001,202.76229723750004,53.0,77.0
673,202.68372588750003,203.23551105,56.0,117.0
674,201.82658388750002,203.43729656250002,37.0,88.0
675,202.04086938750004,203.50693935000004,44.0,70.0
676,202.89801138750002,203.67658203750003,49.0,93.0
677,203.11229688750004,203.70515343750003,53.0,89.0
678,203.32658238750003,204.01943883750002,61.0,107.0
679,203.32658238750003,204.12836730000004,56.0,45.0
680,203.96943888750002,204.39979560000003,49.0,96.0
681,204.18372438750004,204.54979545000003,53.0,90.0
682,203.5408678875,204.67300961250004,37.0,90.0
683,203.75515338750003,204.68015246250002,44.0,93.0
684,204.61229538750004,204.86050942500003,49.0,97.0
685,204.39800988750002,205.22122335000003,61.0,127.0
686,204.82658088750003,205.22479477500002,56.0,93.0
687,205.04086638750002,205.26050902500003,53.0,89.0
688,205.89800838750003,206.14979385000004,55.0,86.0
689,205.68372288750004,206.16586526250003,51.0,89.0
690,206.11229388750002,206.55157916250002,58.0,99.0
691,205.25515188750003,206.81765032500002,39.0,73.0
692,205.46943738750002,206.86050742500004,46.0,30.0
693,206.75515038750004,206.99800728750003,58.0,90.0
694,206.32657938750003,207.00157871250002,51.0,95.0
695,206.54086488750002,207.00157871250002,55.0,92.0
696,206.11229388750002,207.01229298750002,63.0,112.0
697,207.61229238750002,207.72122085000004,67.0,93.0
698,207.61229238750002,207.74264940000003,63.0,92.0
699,207.61229238750002,207.7444351125,70.0,92.0
700,207.39800688750003,207.84622072500002,51.0,97.0
701,208.04086338750002,208.16050612500004,51.0,99.0
702,206.96943588750003,208.16407755000003,39.0,81.0
703,207.18372138750001,208.17657753750004,46.0,78.0
704,207.82657788750004,208.27479172500003,67.0,102.0
705,208.2551488875,208.6051485375,63.0,112.0
706,208.46943438750003,208.62657708750004,67.0,50.0
707,207.82657788750004,208.63907707500002,70.0,95.0
708,209.11229088750002,209.54979045000002,49.0,88.0
709,209.32657638750004,209.58371898750002,53.0,67.0
710,209.54086188750003,209.98729001250004,56.0,88.0
711,208.68371988750002,210.28014686250003,37.0,77.0
712,208.89800538750004,210.33371823750002,44.0,63.0
713,209.96943288750003,210.37121820000002,53.0,75.0
714,209.75514738750002,210.48907522500002,49.0,92.0
715,210.18371838750002,210.49621807500003,56.0,102.0
716,209.54086188750003,210.54800373750004,61.0,99.0
717,210.82657488750002,211.30693155000003,49.0,93.0
718,211.04086038750003,211.38371718750003,53.0,90.0
719,210.61228938750003,211.49264565000001,44.0,39.0
720,210.39800388750004,211.51764562500003,37.0,86.0
721,211.46943138750004,211.63550265000003,49.0,92.0
722,211.68371688750003,212.00335942500004,56.0,81.0
723,211.25514588750002,212.03014511250004,61.0,117.0
724,211.89800238750001,212.06228793750003,53.0,93.0
725,212.54085888750004,213.00335842500002,53.0,76.0
726,212.75514438750002,213.07835835000003,56.0,69.0
727,213.18371538750003,213.43371513750003,53.0,85.0
728,212.11228788750003,213.70335772500002,41.0,69.0
729,212.32657338750002,213.89621467500004,48.0,53.0
730,213.39800088750002,213.95514318750003,56.0,79.0
731,213.61228638750003,214.33728566250002,60.0,76.0
732,212.96942988750004,214.39442846250003,65.0,72.0
733,214.25514288750003,214.78728521250002,53.0,85.0
734,214.46942838750002,214.78728521250002,56.0,72.0
735,214.68371388750003,214.95514218750003,60.0,34.0
736,213.82657188750002,214.97657073750003,41.0,66.0
737,214.04085738750004,214.9908564375,48.0,78.0
738,214.89799938750002,215.11228488750004,53.0,71.0
739,215.11228488750004,215.43728456250003,56.0,97.0
740,214.68371388750003,215.48907022500003,65.0,65.0
741,215.32657038750003,215.50157021250004,60.0,63.0
742,215.96942688750002,216.41764072500004,58.0,99.0
743,216.18371238750004,216.52299776250004,61.0,85.0
744,216.39799788750003,216.99621157500002,65.0,82.0
745,215.54085588750002,217.11942573750002,46.0,107.0
746,215.75514138750003,217.23549705000002,53.0,60.0
747,216.61228338750004,217.47478252500002,58.0,93.0
748,217.04085438750002,217.75156796250002,65.0,35.0
749,216.82656888750003,217.78728221250003,61.0,90.0
750,217.04085438750002,217.79085363750002,70.0,86.0
751,217.68371088750004,218.16228183750002,58.0,85.0
752,217.89799638750003,218.19085323750002,61.0,96.0
753,218.32656738750003,218.40335302500003,58.0,99.0
754,217.46942538750002,218.40692445000002,53.0,66.0
755,217.25513988750004,218.43013871250002,46.0,70.0
756,218.11228188750002,218.54621002500002,65.0,81.0
757,218.54085288750002,218.81763832500002,61.0,122.0
758,218.11228188750002,218.93370963750002,70.0,122.0
759,218.75513838750004,218.98370958750002,65.0,58.0
760,219.39799488750003,219.87835155000002,51.0,93.0
761,219.61228038750002,219.90692295000002,55.0,83.0
762,219.82656588750004,220.30513683750002,63.0,117.0
763,219.82656588750004,220.31227968750002,58.0,100.0
764,218.96942388750003,220.56763657500002,39.0,75.0
765,219.18370938750002,220.66049362500002,46.0,66.0
766,220.04085138750003,220.75870781250003,51.0,99.0
767,220.25513688750002,220.78013636250003,55.0,107.0
768,220.46942238750003,221.18549310000003,58.0,107.0
769,220.46942238750003,221.23549305000003,63.0,117.0
770,221.11227888750003,221.58370698750002,51.0,107.0
771,221.32656438750004,221.63013551250003,55.0,97.0
772,220.89799338750004,221.80692105000003,46.0,99.0
773,220.68370788750002,221.83906387500002,39.0,89.0
774,221.75513538750002,221.96584946250002,51.0,100.0
775,221.54084988750003,222.03370653750002,58.0,112.0
776,221.96942088750004,222.26584916250002,55.0,102.0
777,222.18370638750002,222.34977765000002,58.0,127.0
778,221.54084988750003,222.35870621250004,63.0,127.0
779,222.82656288750002,223.28191957500002,56.0,97.0
780,223.04084838750003,223.30691955000003,60.0,82.0
781,223.25513388750002,223.74977625000002,63.0,86.0
782,222.39799188750004,224.00156171250003,44.0,85.0
783,222.61227738750003,224.09084733750004,51.0,85.0
784,223.46941938750004,224.18727581250002,56.0,97.0
785,223.68370488750003,224.60334682500002,60.0,90.0
786,223.25513388750002,224.76406095000002,68.0,117.0
787,223.89799038750002,224.80156091250004,63.0,117.0
788,224.54084688750004,224.98727501250002,56.0,97.0
789,224.75513238750003,225.18013196250004,60.0,89.0
790,224.32656138750002,225.27656043750002,51.0,85.0
791,225.18370338750003,225.32477467500004,56.0,95.0
792,224.11227588750003,225.33548895000004,44.0,89.0
793,224.96941788750004,225.63548865000004,68.0,127.0
794,225.39798888750002,225.68727431250002,63.0,112.0
795,225.61227438750004,226.32298796250004,60.0,99.0
796,226.25513088750003,226.75691610000004,53.0,93.0
797,226.46941638750002,226.96584446250003,60.0,96.0
798,226.89798738750002,227.12834430000004,53.0,89.0
799,225.82655988750003,227.44798683750003,41.0,64.0
800,226.68370188750004,227.62298666250004,68.0,127.0
801,226.04084538750004,227.62834380000004,48.0,62.0
802,227.11227288750004,227.77298651250004,65.0,99.0
803,227.32655838750003,228.06584336250003,60.0,93.0
804,227.96941488750002,228.47120010000003,53.0,92.0
805,227.54084388750002,228.69619987500002,41.0,64.0
806,227.75512938750003,228.71584271250003,48.0,69.0
807,228.18370038750004,228.71584271250003,60.0,64.0
808,228.61227138750002,228.82655688750003,53.0,78.0
809,228.39798588750003,229.12119945000003,68.0,127.0
810,228.82655688750003,229.20691365000002,65.0,112.0
811,229.04084238750002,229.24084218750002,60.0,95.0
812,229.68369888750004,230.12655558750004,58.0,89.0
813,229.89798438750003,230.20155551250002,61.0,93.0
814,230.11226988750002,230.65691220000002,65.0,67.0
815,229.25512788750004,230.80334062500003,46.0,90.0
816,229.46941338750003,230.97119760000004,53.0,59.0
817,230.32655538750004,231.18905452500002,58.0,93.0
818,230.54084088750002,231.50333992500003,61.0,83.0
819,230.75512638750004,231.57119700000004,70.0,107.0
820,230.75512638750004,231.58191127500004,65.0,38.0
821,231.39798288750004,231.84976815000002,58.0,88.0
822,231.61226838750002,231.96583946250004,61.0,100.0
823,231.18369738750002,231.98548230000003,53.0,70.0
824,230.96941188750003,232.02476797500003,46.0,76.0
825,232.04083938750003,232.29976770000002,61.0,66.0
826,232.25512488750002,232.59262455000004,65.0,66.0
827,231.82655388750004,232.66048162500002,70.0,127.0
828,232.46941038750003,232.69083873750003,61.0,102.0
829,233.11226688750003,233.55869501250004,51.0,89.0
830,233.32655238750004,233.78548050000003,55.0,83.0
831,232.68369588750002,234.26405145000004,39.0,85.0
832,232.89798138750004,234.36226563750003,46.0,37.0
833,234.18369438750003,234.48369408750003,55.0,86.0
834,233.96940888750004,234.48547980000004,58.0,107.0
835,233.54083788750003,234.49083693750003,63.0,117.0
836,233.75512338750002,234.59083683750004,51.0,83.0
837,234.82655088750002,235.29797898750004,51.0,85.0
838,234.61226538750003,235.54440731250003,46.0,37.0
839,235.46940738750004,235.58547870000004,51.0,77.0
840,234.39797988750004,235.59619297500004,39.0,83.0
841,235.04083638750004,235.74619282500004,55.0,72.0
842,235.68369288750003,236.00333542500002,58.0,83.0
843,235.25512188750002,236.05333537500002,63.0,102.0
844,235.89797838750002,236.24619232500004,55.0,69.0
845,236.54083488750004,237.02119155000003,48.0,77.0
846,236.75512038750003,237.19261995000002,55.0,72.0
847,237.18369138750003,237.43369113750003,48.0,71.0
848,236.11226388750003,237.71404800000002,36.0,76.0
849,236.32654938750002,237.88369068750004,43.0,64.0
850,236.96940588750005,237.91583351250003,63.0,99.0
851,237.39797688750002,237.93369063750004,60.0,92.0
852,237.61226238750004,238.12833330000004,55.0,86.0
853,238.25511888750003,238.72118985000003,48.0,81.0
854,238.46940438750002,238.87654683750003,55.0,79.0
855,237.82654788750003,239.01583241250003,36.0,57.0
856,238.04083338750004,239.05690380000004,43.0,66.0
857,238.89797538750003,239.40690345000004,48.0,83.0
858,238.68368988750004,239.47654623750003,63.0,112.0
859,239.11226088750004,239.49797478750003,60.0,89.0
860,239.32654638750003,239.51404620000002,55.0,93.0
861,239.96940288750002,240.46761667500004,53.0,79.0
862,240.18368838750004,240.51225948750002,60.0,75.0
863,240.61225938750002,240.83190202500003,53.0,86.0
864,239.54083188750002,241.15511598750004,41.0,86.0
865,239.75511738750004,241.28904442500004,48.0,56.0
866,241.04083038750002,241.78368678750005,60.0,96.0
867,240.39797388750003,241.79797248750003,68.0,102.0
868,240.82654488750003,241.80868676250003,65.0,89.0
869,241.68368688750004,242.16404355000003,53.0,93.0
870,241.89797238750003,242.16404355000003,60.0,96.0
871,241.25511588750004,242.55332887500003,41.0,65.0
872,242.11225788750002,242.61047167500004,65.0,99.0
873,241.46940138750003,242.61404310000003,48.0,74.0
874,242.11225788750002,242.63547165000003,68.0,122.0
875,242.32654338750004,242.77832865000002,53.0,93.0
876,242.54082888750003,242.88189997500004,60.0,107.0
877,242.75511438750004,242.94618562500003,65.0,89.0
878,242.75511438750004,242.97475702500003,68.0,89.0
879,243.18368538750002,243.87654183750004,58.0,96.0
880,243.39797088750004,243.89261325000004,61.0,95.0
881,242.96939988750003,243.98725601250004,46.0,73.0
882,243.61225638750003,243.99261315000004,65.0,81.0
883,244.04082738750003,244.31582711250005,61.0,97.0
884,243.82654188750004,244.63011251250003,70.0,97.0
885,244.25511288750002,244.66404105000004,65.0,51.0
886,244.46939838750004,244.70154101250003,61.0,112.0
887,245.54082588750003,246.30689655000003,46.0,38.0
888,245.54082588750003,246.34618222500004,58.0,71.0
889,245.54082588750003,246.35153936250003,51.0,58.0
890,245.54082588750003,246.35332507500004,55.0,64.0
891,245.54082588750003,246.38368218750003,63.0,63.0
892,244.68368388750002,246.39796788750004,39.0,96.0
893,246.39796788750004,249.52296476250004,56.0,89.0
894,246.39796788750004,249.53010761250005,44.0,43.0
895,246.39796788750004,249.53546475000005,51.0,58.0
896,246.39796788750004,249.53546475000005,60.0,88.0
897,246.39796788750004,249.55510758750003,63.0,99.0
898,246.39796788750004,249.57296471250004,68.0,95.0
899,251.11224888750004,251.63010551250002,60.0,68.0
900,250.68367788750004,251.74081968750002,56.0,93.0
901,251.96939088750003,252.39439046250004,56.0,66.0
902,250.25510688750003,252.41046187500004,51.0,66.0
903,249.82653588750003,252.49796178750003,44.0,73.0
904,251.54081988750002,252.55153316250002,63.0,56.0
905,251.54081988750002,253.38188947500004,68.0,97.0
906,252.82653288750004,253.39438946250004,63.0,58.0
907,252.39796188750003,253.43546085000003,60.0,66.0
908,254.11224588750002,255.19617337500003,48.0,75.0
909,254.54081688750003,255.53545875000003,55.0,73.0
910,254.96938788750003,255.68545860000003,60.0,74.0
911,253.25510388750004,255.73545855000003,36.0,71.0
912,255.39795888750004,255.78010136250003,48.0,52.0
913,253.68367488750005,255.80867276250004,43.0,61.0
914,255.82652988750004,256.63724336250004,55.0,86.0
915,256.2551008875,256.710457575,60.0,102.0
916,254.96938788750003,256.76045752500005,63.0,78.0
917,257.96938488750004,258.45867011250004,61.0,79.0
918,257.5408138875,258.51224148750003,49.0,82.0
919,258.3979558875,259.28188357500005,65.0,76.0
920,256.68367188750005,259.3193835375,37.0,77.0
921,257.11224288750003,259.35866921250005,44.0,58.0
922,258.82652688750005,259.38902632500003,49.0,58.0
923,259.68366888750006,260.26045402500006,65.0,61.0
924,259.2550978875,260.32295396250004,61.0,89.0
925,258.3979558875,260.3300968125,68.0,97.0
926,261.3979528875,261.939023775,55.0,89.0
927,260.96938188750005,261.94973805,51.0,96.0
928,262.0408093875,262.32652338750006,51.0,72.0
929,260.5408108875,262.49080893750005,46.0,66.0
930,260.11223988750004,262.65509448750004,39.0,77.0
931,261.82652388750006,262.78188007500006,58.0,79.0
932,262.6836658875,263.63545065000005,55.0,73.0
933,261.82652388750006,263.639022075,63.0,102.0
934,264.8265208875,265.37652033750004,61.0,71.0
935,264.39794988750003,265.45509168750004,49.0,77.0
936,265.25509188750004,266.16937668750006,65.0,75.0
937,265.25509188750004,266.24080518750003,68.0,61.0
938,263.96937888750006,266.2586623125,44.0,47.0
939,263.5408078875,266.26759087500005,37.0,71.0
940,265.6836628875,266.41044787500005,49.0,66.0
941,266.11223388750005,267.05687580000006,61.0,86.0
942,266.54080488750003,267.14437571250005,68.0,96.0
943,268.25508888750005,268.7943740625,60.0,86.0
944,267.8265178875,268.9140168,53.0,92.0
945,266.9693758875,269.4265162875,41.0,72.0
946,267.39794688750004,269.4265162875,48.0,56.0
947,269.11223088750006,269.58365898750003,53.0,64.0
948,268.6836598875,269.624730375,65.0,83.0
949,269.9693728875,270.3568725,65.0,69.0
950,268.6836598875,270.41937243750004,68.0,97.0
951,269.54080188750004,270.43365813750006,60.0,95.0
952,271.25508588750006,272.33901337500004,58.0,93.0
953,271.68365688750004,272.59615597500004,61.0,86.0
954,272.54079888750005,272.85329857500005,58.0,73.0
955,270.8265148875,272.93186992500006,53.0,58.0
956,272.1122278875,273.01579841250003,65.0,71.0
957,270.39794388750005,273.03186982500006,46.0,74.0
958,273.39794088750006,273.8229404625,65.0,68.0
959,272.1122278875,273.856869,70.0,89.0
960,272.9693698875,273.88544040000005,61.0,112.0
961,273.82651188750003,274.39793988750006,39.0,75.0
962,273.82651188750003,274.39793988750006,39.0,90.0
963,274.2550828875,274.73543955,51.0,93.0
964,274.4693683875,274.76401095000006,55.0,83.0
965,274.68365388750004,275.16222483750005,63.0,117.0
966,274.68365388750004,275.1693676875,58.0,100.0
967,274.04079738750005,275.51758162500005,46.0,66.0
968,274.89793938750006,275.61579581250004,51.0,99.0
969,275.1122248875,275.63722436250004,55.0,107.0
970,275.32651038750004,276.04258110000006,58.0,107.0
971,275.32651038750004,276.09258105000004,63.0,117.0
972,275.96936688750003,276.44079498750006,51.0,107.0
973,276.18365238750005,276.4872235125,55.0,97.0
974,275.7550813875,276.66400905000006,46.0,99.0
975,275.54079588750005,276.69615187500006,39.0,89.0
976,276.6122233875,276.8229374625,51.0,100.0
977,276.39793788750006,276.8907945375,58.0,112.0
978,276.82650888750004,277.1229371625,55.0,102.0
979,277.04079438750006,277.20686565000005,58.0,127.0
980,276.39793788750006,277.21579421250004,63.0,127.0
981,277.68365088750005,278.13900757500005,56.0,97.0
982,277.8979363875,278.16400755,60.0,82.0
983,278.1122218875,278.60686425000006,63.0,86.0
984,277.2550798875,278.85864971250004,44.0,85.0
985,277.46936538750003,278.94793533750004,51.0,85.0
986,278.32650738750004,279.0443638125,56.0,97.0
987,278.54079288750006,279.46043482500005,60.0,90.0
988,278.1122218875,279.62114895,68.0,117.0
989,278.7550783875,279.65864891250004,63.0,117.0
990,279.3979348875,279.8443630125,56.0,97.0
991,279.61222038750003,280.03721996250005,60.0,89.0
992,279.18364938750005,280.1336484375,51.0,85.0
993,280.04079138750006,280.18186267500005,56.0,95.0
994,278.96936388750004,280.19257695000005,44.0,89.0
995,279.82650588750005,280.49257665000005,68.0,127.0
996,280.2550768875,280.5443623125,63.0,112.0
997,280.46936238750004,281.18007596250004,60.0,99.0
998,281.11221888750003,281.61400410000005,53.0,93.0
999,281.32650438750005,281.82293246250003,60.0,96.0
1000,281.7550753875,281.9854323,53.0,89.0
1001,280.68364788750006,282.30507483750006,41.0,64.0
1002,281.5407898875,282.48007466250004,68.0,127.0
1003,280.8979333875,282.4854318,48.0,62.0
1004,281.96936088750005,282.6300745125,65.0,99.0
1005,282.18364638750006,282.92293136250004,60.0,93.0
1006,282.82650288750006,283.3282881,53.0,92.0
1007,282.3979318875,283.553287875,41.0,64.0
1008,282.61221738750004,283.5729307125,48.0,69.0
1009,283.0407883875,283.5729307125,60.0,64.0
1010,283.46935938750005,283.6836448875,53.0,78.0
1011,283.25507388750003,283.97828745000004,68.0,127.0
1012,283.6836448875,284.06400165,65.0,112.0
1013,283.8979303875,284.0979301875,60.0,95.0
1014,284.5407868875,284.9836435875,58.0,89.0
1015,284.75507238750004,285.05864351250005,61.0,93.0
1016,284.96935788750005,285.51400020000005,65.0,67.0
1017,284.11221588750004,285.66042862500007,46.0,90.0
1018,284.32650138750006,285.8282856,53.0,59.0
1019,285.1836433875,286.04614252500005,58.0,93.0
1020,285.39792888750003,286.360427925,61.0,83.0
1021,285.61221438750005,286.428285,70.0,107.0
1022,285.61221438750005,286.438999275,65.0,38.0
1023,286.25507088750004,286.70685615,58.0,88.0
1024,286.46935638750006,286.82292746250005,61.0,100.0
1025,286.0407853875,286.84257030000003,53.0,70.0
1026,285.82649988750006,286.88185597500006,46.0,76.0
1027,286.89792738750003,287.15685570000005,61.0,66.0
1028,287.11221288750005,287.44971255,65.0,66.0
1029,286.6836418875,287.517569625,70.0,127.0
1030,287.3264983875,287.54792673750006,61.0,102.0
1031,287.96935488750006,288.4157830125,51.0,89.0
1032,288.1836403875,288.64256850000004,55.0,83.0
1033,287.5407838875,289.12113945000004,39.0,85.0
1034,287.75506938750004,289.21935363750003,46.0,37.0
1035,289.04078238750003,289.34078208750003,55.0,86.0
1036,288.8264968875,289.34256780000004,58.0,107.0
1037,288.39792588750004,289.3479249375,63.0,117.0
1038,288.61221138750005,289.4479248375,51.0,83.0
1039,289.6836388875,290.15506698750005,51.0,85.0
1040,289.46935338750006,290.40149531250006,46.0,37.0
1041,290.3264953875,290.44256670000004,51.0,77.0
1042,289.25506788750005,290.45328097500004,39.0,83.0
1043,289.89792438750004,290.603280825,55.0,72.0
1044,290.54078088750003,290.860423425,58.0,83.0
1045,290.11220988750006,290.91042337500005,63.0,102.0
1046,290.75506638750005,291.103280325,55.0,69.0
1047,291.39792288750004,291.87827955000006,48.0,77.0
1048,291.61220838750006,292.04970795,55.0,72.0
1049,292.04077938750004,292.2907791375,48.0,71.0
1050,290.9693518875,292.571136,36.0,76.0
1051,291.1836373875,292.74077868750004,43.0,64.0
1052,291.8264938875,292.77292151250003,63.0,99.0
1053,292.25506488750005,292.7907786375,60.0,92.0
1054,292.4693503875,292.98542130000004,55.0,86.0
1055,293.11220688750007,293.57827785000006,48.0,81.0
1056,293.3264923875,293.73363483750006,55.0,79.0
1057,292.68363588750003,293.87292041250004,36.0,57.0
1058,292.89792138750005,293.9139918,43.0,66.0
1059,293.75506338750006,294.26399145000005,48.0,83.0
1060,293.54077788750004,294.33363423750006,63.0,112.0
1061,293.9693488875,294.35506278750006,60.0,89.0
1062,294.18363438750004,294.37113420000003,55.0,93.0
1063,294.82649088750003,295.324704675,53.0,79.0
1064,295.04077638750005,295.3693474875,60.0,75.0
1065,295.4693473875,295.68899002500007,53.0,86.0
1066,294.39791988750005,296.0122039875,41.0,86.0
1067,294.6122053875,296.146132425,48.0,56.0
1068,295.89791838750006,296.64077478750005,60.0,96.0
1069,295.25506188750006,296.65506048750007,68.0,102.0
1070,295.68363288750004,296.66577476250006,65.0,89.0
1071,296.54077488750005,297.02113155000006,53.0,93.0
1072,296.75506038750007,297.02113155000006,60.0,96.0
1073,296.1122038875,297.41041687500007,41.0,65.0
1074,296.9693458875,297.467559675,65.0,99.0
1075,296.32648938750003,297.47113110000004,48.0,74.0
1076,296.9693458875,297.49255965000003,68.0,122.0
1077,297.18363138750004,297.63541665,53.0,93.0
1078,297.39791688750006,297.73898797500004,60.0,107.0
1079,297.6122023875,297.80327362500003,65.0,89.0
1080,297.6122023875,297.83184502500006,68.0,89.0
1081,298.04077338750005,298.7336298375,58.0,96.0
1082,298.2550588875,298.74970125000004,61.0,95.0
1083,297.82648788750004,298.8443440125,46.0,73.0
1084,298.46934438750003,298.84970115000004,65.0,81.0
1085,298.89791538750006,299.17291511250005,61.0,97.0
1086,298.68362988750005,299.48720051250007,70.0,97.0
1087,299.1122008875,299.52112905,65.0,51.0
1088,299.32648638750004,299.55862901250003,61.0,112.0
1089,300.39791388750007,301.16398455000007,46.0,38.0
1090,300.39791388750007,301.20327022500004,58.0,71.0
1091,300.39791388750007,301.20862736250007,51.0,58.0
1092,300.39791388750007,301.210413075,55.0,64.0
1093,300.39791388750007,301.24077018750006,63.0,63.0
1094,299.54077188750006,301.2550558875,39.0,96.0
1095,301.68362688750005,302.1657692625,56.0,95.0
1096,302.11219788750003,302.66755447500003,60.0,96.0
1097,301.2550558875,302.8550542875,44.0,127.0
1098,302.32648338750005,302.910411375,56.0,96.0
1099,302.96933988750004,304.58362398750006,56.0,65.0
1100,302.96933988750004,304.5854097,60.0,112.0
1101,302.7550543875,304.60326682500005,63.0,96.0
1102,302.96933988750004,304.6086239625,44.0,90.0
1103,302.54076888750006,304.67112390000005,68.0,102.0
1104,304.674695325,305.88362268750006,58.0,56.0
1105,304.66755247500004,306.031836825,46.0,70.0
1106,304.6764810375,306.06576536250003,70.0,66.0
1107,304.67112390000005,306.07826535000004,73.0,85.0
1108,304.6657667625,306.15683670000004,65.0,53.0
1109,306.38183647500006,308.374691625,39.0,58.0
1110,306.63719336250006,308.5836199875,51.0,36.0
1111,306.39076503750005,309.1514765625,67.0,63.0
1112,306.3854079,309.16754797500005,63.0,69.0
1113,306.39969360000003,309.2050479375,70.0,62.0
1114,309.76933308750006,310.12111845000004,61.0,55.0
1115,309.7729045125,310.96397475000003,37.0,92.0
1116,309.78183307500007,311.096117475,65.0,69.0
1117,309.7943330625,311.18183167500007,68.0,48.0
1118,310.65683220000005,311.18718881250004,61.0,86.0
1119,310.21933263750003,311.55504558750005,49.0,74.0
1120,311.53183132500004,312.34611622500006,70.0,52.0
1121,311.52468847500006,312.660401625,63.0,40.0
1122,311.5157599125,313.06754407500006,39.0,74.0
1123,311.96933088750006,313.29790098750004,51.0,77.0
1124,311.53004561250003,313.49254365,67.0,52.0
1125,312.460401825,313.5157579125,70.0,61.0
1126,313.28540100000004,313.56575786250005,63.0,25.0
1127,314.46575696250005,315.9586126125,60.0,58.0
1128,314.54254260000005,315.98539830000004,63.0,77.0
1129,314.64968535,316.03896967500003,68.0,75.0
1130,316.21932663750005,316.80861176250005,68.0,37.0
1131,316.54254060000005,316.82111175000006,72.0,72.0
1132,316.79254035,316.88361168750004,75.0,64.0
1133,314.4478998375,320.41396530000003,56.0,59.0
1134,314.4693283875,320.43896527500004,51.0,33.0
1135,314.3157571125,320.60503653750004,44.0,37.0
1136,317.40861116250005,321.11575031250004,84.0,62.0
1137,318.0121819875,321.14075028750005,87.0,43.0
1138,318.5228957625,321.16039312500004,92.0,74.0
1139,319.90325152500003,321.16039312500004,92.0,51.0
1140,317.11575431250003,321.16932168750003,80.0,63.0
1141,319.9907514375,321.87289241250005,96.0,55.0
1142,320.09789418750006,321.87824955,99.0,64.0
