,start,end,pitch,velocity
0,22.359231483333332,22.687099483333334,72.0,110.0
1,22.687099483333334,23.014967483333333,75.0,91.0
2,23.014967483333333,23.669337366666667,77.0,110.0
3,23.670703483333334,24.982175483333332,77.0,116.0
4,24.982175483333332,25.310043483333335,72.0,114.0
5,25.310043483333335,25.637911483333333,75.0,102.0
6,25.637911483333333,25.964413366666665,77.0,98.0
7,25.965779483333332,26.621515483333333,77.0,113.0
8,26.621515483333333,27.605119483333333,75.0,108.0
9,27.605119483333333,27.93298748333333,72.0,114.0
10,27.93298748333333,28.260855483333334,75.0,108.0
11,28.260855483333334,28.916591483333335,77.0,108.0
12,28.916591483333335,30.226697366666667,72.0,114.0
13,30.228063483333333,30.55593148333333,72.0,114.0
14,30.55593148333333,30.883799483333334,70.0,98.0
15,30.883799483333334,31.211667483333333,75.0,102.0
16,31.211667483333333,32.84964136666667,72.0,108.0
17,32.85100748333333,33.187072183333335,72.0,113.0
18,33.178875483333336,33.51357406666666,70.0,94.0
19,33.50674348333333,33.841442066666666,72.0,94.0
20,33.83461148333333,34.49581195,70.0,98.0
21,34.49034748333333,35.80181948333333,68.0,100.0
22,35.80181948333333,36.78542348333333,72.0,110.0
23,36.78542348333333,38.42339736666666,70.0,113.0
24,38.42476348333333,38.751265366666665,70.0,104.0
25,38.75263148333333,39.080499483333334,70.0,94.0
26,39.080499483333334,39.734869366666665,72.0,108.0
27,39.73623548333333,43.34141736666667,72.0,113.0
28,43.342783483333335,43.67065148333333,72.0,114.0
29,43.67065148333333,43.99851948333333,75.0,102.0
30,43.99851948333333,44.65288936666666,77.0,113.0
31,44.65425548333333,45.96572748333333,77.0,114.0
32,45.96572748333333,46.293595483333334,72.0,108.0
33,46.293595483333334,46.621463483333336,75.0,108.0
34,46.621463483333336,46.947965366666665,77.0,104.0
35,46.94933148333333,47.605067483333336,77.0,114.0
36,47.605067483333336,48.588671483333336,75.0,107.0
37,48.588671483333336,48.91653948333333,80.0,119.0
38,48.91653948333333,49.24440748333333,79.0,108.0
39,49.24440748333333,49.572275483333335,75.0,107.0
40,49.572275483333335,50.555879483333335,72.0,100.0
41,50.555879483333335,50.882381366666664,80.0,116.0
42,50.88374748333333,51.21161548333333,80.0,116.0
43,51.21161548333333,51.539483483333335,79.0,110.0
44,51.539483483333335,52.19521948333333,75.0,110.0
45,52.19521948333333,53.83319336666666,77.0,110.0
46,53.83455948333333,54.16242748333333,77.0,110.0
47,54.16242748333333,54.490295483333334,75.0,102.0
48,54.490295483333334,54.818163483333336,77.0,102.0
49,54.818163483333336,55.539473083333334,70.0,102.0
50,55.473899483333334,56.785371483333336,68.0,106.0
51,56.785371483333336,57.768975483333335,72.0,117.0
52,57.768975483333335,59.08044748333333,70.0,117.0
53,59.08044748333333,59.40831548333333,72.0,116.0
54,59.40831548333333,59.75667523333333,70.0,107.0
55,59.736183483333335,60.06268536666666,68.0,109.0
56,60.06405148333333,60.719787483333334,68.0,106.0
57,60.719787483333334,62.35912748333333,65.0,102.0
58,63.998467483333336,64.16103536666667,84.0,114.0
59,64.16240148333333,64.32496936666666,84.0,107.0
60,64.32633548333334,64.65420348333333,84.0,116.0
61,64.65420348333333,64.98207148333333,82.0,113.0
62,64.98207148333333,65.3195023,80.0,108.0
63,65.30993948333334,65.63780748333333,79.0,116.0
64,65.63780748333333,66.29217736666666,77.0,117.0
65,66.29354348333334,66.62141148333333,77.0,114.0
66,66.62141148333333,66.94927948333333,72.0,108.0
67,66.94927948333333,67.27714748333334,77.0,108.0
68,67.27714748333334,67.93288348333333,84.0,104.0
69,67.93288348333333,69.24298936666666,82.0,120.0
70,69.24435548333334,69.57085736666667,82.0,114.0
71,69.57222348333333,69.90009148333333,82.0,113.0
72,69.90009148333333,70.22795948333334,80.0,113.0
73,70.22795948333334,70.55582748333333,79.0,114.0
74,70.55582748333333,70.88642771666666,77.0,113.0
75,70.88369548333333,71.53806536666667,75.0,114.0
76,71.53943148333333,71.86729948333333,75.0,117.0
77,71.86729948333333,72.19516748333334,72.0,110.0
78,72.19516748333334,72.52166936666667,75.0,108.0
79,72.52303548333333,72.85090348333333,75.0,113.0
80,72.85090348333333,73.17740536666666,82.0,113.0
81,73.17877148333334,73.83450748333333,82.0,114.0
82,73.83450748333333,74.81811148333333,80.0,116.0
83,74.81811148333333,75.14597948333333,84.0,116.0
84,75.14597948333333,75.49570535,82.0,116.0
85,75.47384748333333,75.80171548333334,80.0,116.0
86,75.80171548333334,76.12958348333333,79.0,108.0
87,76.12958348333333,76.78531948333334,77.0,116.0
88,76.78531948333334,77.11182136666666,72.0,100.0
89,77.11318748333333,77.43968936666667,72.0,108.0
90,77.44105548333333,77.76892348333334,72.0,108.0
91,77.76892348333334,78.09679148333333,80.0,116.0
92,78.09679148333333,78.42465948333333,79.0,108.0
93,78.42465948333333,79.08039548333333,80.0,113.0
94,79.08039548333333,79.73476536666666,79.0,117.0
95,79.73613148333334,79.89869936666666,79.0,93.0
96,79.90006548333334,80.06263336666666,79.0,94.0
97,80.06399948333333,80.39186748333333,79.0,108.0
98,80.39186748333333,80.71973548333334,80.0,109.0
99,80.71973548333334,81.04760348333333,82.0,110.0
100,81.04760348333333,81.70333948333334,79.0,116.0
101,81.70333948333334,84.98201948333333,75.0,114.0
102,84.98201948333333,85.14458736666667,84.0,114.0
103,85.14595348333333,85.30852136666667,84.0,107.0
104,85.30988748333333,85.63775548333334,84.0,116.0
105,85.63775548333334,85.96562348333333,82.0,113.0
106,85.96562348333333,86.3030543,80.0,108.0
107,86.29349148333333,86.62135948333334,79.0,116.0
108,86.62135948333334,87.27572936666667,77.0,117.0
109,87.27709548333333,87.60496348333334,77.0,114.0
110,87.60496348333334,87.93283148333333,72.0,108.0
111,87.93283148333333,88.26069948333333,77.0,108.0
112,88.26069948333333,88.91643548333333,84.0,104.0
113,88.91643548333333,90.22654136666667,82.0,120.0
114,90.22790748333333,90.39047536666666,82.0,114.0
115,90.39184148333334,90.55440936666666,82.0,114.0
116,90.55577548333333,90.88364348333333,82.0,113.0
117,90.88364348333333,91.21151148333334,80.0,113.0
118,91.21151148333334,91.53937948333333,79.0,114.0
119,91.53937948333333,91.86997971666666,77.0,113.0
120,91.86724748333333,92.52161736666666,75.0,114.0
121,92.52298348333333,92.85085148333333,75.0,117.0
122,92.85085148333333,93.17871948333334,72.0,110.0
123,93.17871948333334,93.50522136666666,75.0,108.0
124,93.50658748333333,93.83445548333333,75.0,113.0
125,93.83445548333333,94.16095736666666,82.0,113.0
126,94.16232348333334,94.81805948333333,82.0,114.0
127,94.81805948333333,95.47379548333333,80.0,116.0
128,95.47379548333333,95.63772948333333,75.0,108.0
129,95.63772948333333,95.80166348333333,77.0,98.0
130,95.80166348333333,96.12816536666666,80.0,109.0
131,96.12953148333334,96.45603336666666,80.0,113.0
132,96.45739948333333,96.78390136666667,80.0,116.0
133,96.78526748333333,97.44100348333333,80.0,119.0
134,97.44100348333333,98.09537336666666,77.0,116.0
135,98.09673948333334,98.25930736666666,77.0,96.0
136,98.26067348333333,98.42324136666666,77.0,93.0
137,98.42460748333333,98.75247548333333,77.0,113.0
138,98.75247548333333,99.08034348333334,72.0,113.0
139,99.08034348333334,99.40684536666666,80.0,119.0
140,99.40821148333333,100.06394748333334,80.0,119.0
141,100.06394748333334,100.71831736666667,79.0,119.0
142,100.71968348333333,101.04618536666666,79.0,113.0
143,101.04755148333334,101.37541948333333,79.0,114.0
144,101.37541948333333,101.70328748333333,80.0,109.0
145,101.70328748333333,102.35765736666667,82.0,114.0
146,102.35902348333333,102.70874935,82.0,116.0
147,102.68689148333333,103.50656148333333,80.0,93.0
148,106.29343948333333,106.62130748333333,72.0,110.0
149,106.62130748333333,106.94917548333333,75.0,91.0
150,106.94917548333333,107.60354536666667,77.0,110.0
151,107.60491148333334,108.91638348333333,77.0,116.0
152,108.91638348333333,109.24425148333333,72.0,114.0
153,109.24425148333333,109.57211948333334,75.0,102.0
154,109.57211948333334,109.89862136666666,77.0,98.0
155,109.89998748333333,110.55572348333334,77.0,113.0
156,110.55572348333334,111.53932748333334,75.0,108.0
157,111.53932748333334,111.86719548333333,72.0,114.0
158,111.86719548333333,112.19506348333333,75.0,108.0
159,112.19506348333333,112.85079948333333,77.0,108.0
160,112.85079948333333,114.16090536666667,72.0,114.0
161,114.16227148333333,114.49013948333334,72.0,114.0
162,114.49013948333334,114.81800748333333,70.0,98.0
163,114.81800748333333,115.14587548333333,75.0,102.0
164,115.14587548333333,116.78384936666667,72.0,108.0
165,116.78521548333333,117.12128018333333,72.0,113.0
166,117.11308348333333,117.44778206666666,70.0,94.0
167,117.44095148333334,117.77565006666667,72.0,94.0
168,117.76881948333333,118.43001995,70.0,98.0
169,118.42455548333334,119.73602748333333,68.0,100.0
170,119.73602748333333,120.71963148333333,72.0,110.0
171,120.71963148333333,122.35760536666666,70.0,113.0
172,122.35897148333333,122.68547336666667,70.0,104.0
173,122.68683948333333,123.01470748333332,70.0,94.0
174,123.01470748333332,123.66907736666667,72.0,108.0
175,123.67044348333333,127.27562536666666,72.0,113.0
176,127.27699148333333,127.60485948333333,72.0,114.0
177,127.60485948333333,127.93272748333334,75.0,102.0
178,127.93272748333334,128.32070461666666,77.0,113.0
179,128.26059548333333,128.32070461666666,77.0,114.0
180,129.89993548333334,130.22780348333333,72.0,108.0
181,130.22780348333333,130.55567148333333,75.0,108.0
182,130.55567148333333,130.88217336666668,77.0,104.0
183,130.88353948333332,131.53927548333334,77.0,114.0
184,131.53927548333334,132.52287948333333,75.0,107.0
185,132.52287948333333,132.85074748333332,80.0,119.0
186,132.85074748333332,133.17861548333335,79.0,108.0
187,133.17861548333335,133.50648348333334,75.0,107.0
188,133.50648348333334,134.49008748333333,72.0,100.0
189,134.49008748333333,134.81658936666668,80.0,116.0
190,134.81795548333332,135.14582348333334,80.0,116.0
191,135.14582348333334,135.47369148333334,79.0,110.0
192,135.47369148333334,136.12942748333333,75.0,110.0
193,136.12942748333333,137.76740136666666,77.0,110.0
194,137.76876748333333,138.09663548333333,77.0,110.0
195,138.09663548333333,138.42450348333332,75.0,102.0
196,138.42450348333332,138.75237148333332,77.0,102.0
197,138.75237148333332,139.47368108333333,70.0,102.0
198,139.40810748333334,140.71957948333332,68.0,106.0
199,140.71957948333332,141.70318348333333,72.0,117.0
200,141.70318348333333,143.01465548333334,70.0,117.0
201,143.01465548333334,143.34252348333334,72.0,116.0
202,143.34252348333334,143.69088323333332,70.0,107.0
203,143.67039148333333,143.99689336666665,68.0,109.0
204,143.99825948333333,144.65399548333332,68.0,106.0
205,144.65399548333332,147.93267548333333,65.0,102.0
206,147.93267548333333,148.09524336666666,84.0,114.0
207,148.09660948333334,148.25917736666668,84.0,107.0
208,148.26054348333332,148.58841148333335,84.0,116.0
209,148.58841148333335,148.91627948333334,82.0,113.0
210,148.91627948333334,149.2537103,80.0,108.0
211,149.24414748333334,149.57201548333333,79.0,116.0
212,149.57201548333333,150.22638536666668,77.0,117.0
213,150.22775148333332,150.55561948333334,77.0,114.0
214,150.55561948333334,150.88348748333334,72.0,108.0
215,150.88348748333334,151.21135548333334,77.0,108.0
216,151.21135548333334,151.86709148333333,84.0,104.0
217,151.86709148333333,153.17719736666666,82.0,120.0
218,153.17856348333333,153.50506536666666,82.0,114.0
219,153.50643148333333,153.83429948333333,82.0,113.0
220,153.83429948333333,154.16216748333332,80.0,113.0
221,154.16216748333332,154.49003548333334,79.0,114.0
222,154.49003548333334,154.82063571666666,77.0,113.0
223,154.81790348333334,155.47227336666666,75.0,114.0
224,155.47363948333333,155.80150748333332,75.0,117.0
225,155.80150748333332,156.12937548333332,72.0,110.0
226,156.12937548333332,156.45587736666667,75.0,108.0
227,156.45724348333334,156.78511148333334,75.0,113.0
228,156.78511148333334,157.11161336666666,82.0,113.0
229,157.11297948333333,157.76871548333332,82.0,114.0
230,157.76871548333332,158.75231948333334,80.0,116.0
231,158.75231948333334,159.08018748333333,84.0,116.0
232,159.08018748333333,159.42991335,82.0,116.0
233,159.40805548333333,159.73592348333332,80.0,116.0
234,159.73592348333332,160.06379148333332,79.0,108.0
235,160.06379148333332,160.71952748333334,77.0,116.0
236,160.71952748333334,161.04602936666666,72.0,100.0
237,161.04739548333333,161.37389736666665,72.0,108.0
238,161.37526348333333,161.70313148333332,72.0,108.0
239,161.70313148333332,162.03099948333332,80.0,116.0
240,162.03099948333332,162.35886748333334,79.0,108.0
241,162.35886748333334,163.01460348333333,80.0,113.0
242,163.01460348333333,163.66897336666668,79.0,117.0
243,163.67033948333332,163.83290736666666,79.0,93.0
244,163.83427348333333,163.99684136666667,79.0,94.0
245,163.99820748333335,164.32607548333334,79.0,108.0
246,164.32607548333334,164.65394348333334,80.0,109.0
247,164.65394348333334,164.98181148333333,82.0,110.0
248,164.98181148333333,165.63754748333332,79.0,116.0
249,165.63754748333332,167.93262348333334,75.0,114.0
250,189.89977948333333,190.06234736666667,84.0,114.0
251,190.06371348333334,190.22628136666665,84.0,107.0
252,190.22764748333333,190.55551548333332,84.0,116.0
253,190.55551548333332,190.88338348333332,82.0,113.0
254,190.88338348333332,191.2208143,80.0,108.0
255,191.21125148333334,191.53911948333334,79.0,116.0
256,191.53911948333334,192.19348936666665,77.0,117.0
257,192.19485548333333,192.52272348333332,77.0,114.0
258,192.52272348333332,192.85059148333332,72.0,108.0
259,192.85059148333332,193.17845948333334,77.0,108.0
260,193.17845948333334,193.83419548333333,84.0,104.0
261,193.83419548333333,195.14430136666667,82.0,120.0
262,195.14566748333334,195.30823536666665,82.0,114.0
263,195.30960148333332,195.47216936666666,82.0,114.0
264,195.47353548333334,195.80140348333333,82.0,113.0
265,195.80140348333333,196.12927148333333,80.0,113.0
266,196.12927148333333,196.45713948333332,79.0,114.0
267,196.45713948333332,196.78773971666666,77.0,113.0
268,196.78500748333335,197.43937736666666,75.0,114.0
269,197.44074348333334,197.76861148333333,75.0,117.0
270,197.76861148333333,198.09647948333333,72.0,110.0
271,198.09647948333333,198.42298136666668,75.0,108.0
272,198.42434748333332,198.75221548333334,75.0,113.0
273,198.75221548333334,199.07871736666667,82.0,113.0
274,199.08008348333334,199.73581948333333,82.0,114.0
275,199.73581948333333,200.71942348333334,80.0,116.0
276,200.71942348333334,201.04729148333334,84.0,116.0
277,201.04729148333334,201.39701735,82.0,116.0
278,201.37515948333333,201.70302748333333,80.0,116.0
279,201.70302748333333,202.03089548333332,79.0,108.0
280,202.03089548333332,202.68663148333334,77.0,116.0
281,202.68663148333334,203.01313336666666,72.0,100.0
282,203.01449948333334,203.34100136666666,72.0,108.0
283,203.34236748333333,203.67023548333333,72.0,108.0
284,203.67023548333333,203.99810348333332,80.0,116.0
285,203.99810348333332,204.32597148333332,79.0,108.0
286,204.32597148333332,204.98170748333334,80.0,113.0
287,204.98170748333334,205.63607736666665,79.0,117.0
288,205.63744348333333,205.80001136666667,79.0,93.0
289,205.80137748333334,205.96394536666668,79.0,94.0
290,205.96531148333332,206.29317948333332,79.0,108.0
291,206.29317948333332,206.62104748333334,80.0,109.0
292,206.62104748333334,206.94891548333334,82.0,110.0
293,206.94891548333334,207.60465148333333,79.0,116.0
294,207.60465148333333,210.88333148333334,75.0,114.0
295,210.88333148333334,211.04589936666667,84.0,114.0
296,211.04726548333332,211.20983336666666,84.0,107.0
297,211.21119948333333,211.53906748333333,84.0,116.0
298,211.53906748333333,211.86693548333332,82.0,113.0
299,211.86693548333332,212.2043663,80.0,108.0
300,212.19480348333332,212.52267148333334,79.0,116.0
301,212.52267148333334,213.17704136666666,77.0,117.0
302,213.17840748333333,213.50627548333333,77.0,114.0
303,213.50627548333333,213.83414348333332,72.0,108.0
304,213.83414348333332,214.16201148333334,77.0,108.0
305,214.16201148333334,214.81774748333333,84.0,104.0
306,214.81774748333333,216.12785336666667,82.0,120.0
307,216.12921948333334,216.29178736666665,82.0,114.0
308,216.29315348333333,216.45572136666667,82.0,114.0
309,216.45708748333334,216.78495548333333,82.0,113.0
310,216.78495548333333,217.11282348333333,80.0,113.0
311,217.11282348333333,217.44069148333332,79.0,114.0
312,217.44069148333332,217.77129171666667,77.0,113.0
313,217.76855948333332,218.42292936666666,75.0,114.0
314,218.42429548333334,218.75216348333333,75.0,117.0
315,218.75216348333333,219.08003148333333,72.0,110.0
316,219.08003148333333,219.40653336666665,75.0,108.0
317,219.40789948333332,219.73576748333332,75.0,113.0
318,219.73576748333332,220.06226936666667,82.0,113.0
319,220.06363548333334,220.71937148333333,82.0,114.0
320,220.71937148333333,221.37510748333332,80.0,116.0
321,221.37510748333332,221.53904148333334,75.0,108.0
322,221.53904148333334,221.70297548333332,77.0,98.0
323,221.70297548333332,222.02947736666667,80.0,109.0
324,222.03084348333334,222.35734536666666,80.0,113.0
325,222.35871148333334,222.68521336666666,80.0,116.0
326,222.68657948333333,223.34231548333332,80.0,119.0
327,223.34231548333332,223.99668536666667,77.0,116.0
328,223.99805148333334,224.16061936666665,77.0,96.0
329,224.16198548333332,224.32455336666666,77.0,93.0
330,224.32591948333334,224.65378748333333,77.0,113.0
331,224.65378748333333,224.98165548333333,72.0,113.0
332,224.98165548333333,225.30815736666668,80.0,119.0
333,225.30952348333332,225.96525948333334,80.0,119.0
334,225.96525948333334,226.61962936666666,79.0,119.0
335,226.62099548333333,226.94749736666665,79.0,113.0
336,226.94886348333333,227.27673148333332,79.0,114.0
337,227.27673148333332,227.60459948333332,80.0,109.0
338,227.60459948333332,228.25896936666666,82.0,114.0
339,228.26033548333334,228.61006135,82.0,116.0
340,228.58820348333333,230.88327948333333,80.0,93.0
