,start,end,pitch,velocity
0,31.77457215833334,32.19670306666667,61.0,79.0
1,32.26637515833334,32.4282603125,61.0,73.0
2,32.512276658333334,32.65776837916667,61.0,75.0
3,32.75817815833334,33.208997575000005,61.0,77.0
4,33.24998115833334,33.52047280833334,59.0,73.0
5,33.495882658333336,33.74793169583334,56.0,77.0
6,33.74178415833334,34.02457088333334,61.0,80.0
7,33.98768565833334,34.24998059166667,63.0,74.0
8,34.233587158333336,35.44260286666667,61.0,79.0
9,35.708996158333335,35.895471462500005,66.0,73.0
10,35.95489765833334,36.46514327083334,66.0,71.0
11,36.44670065833334,36.698749695833335,63.0,74.0
12,36.69260215833334,37.143421575000005,68.0,75.0
13,37.18440515833334,37.69669995,66.0,74.0
14,37.67620815833334,39.49997761666667,63.0,75.0
15,40.13522315833334,40.51841966250001,68.0,74.0
16,40.62702615833334,41.03481281250001,68.0,75.0
17,41.11882915833334,41.526615812500005,71.0,78.0
18,41.61063215833334,42.11882859166667,59.0,80.0
19,42.102435158333336,42.59423815833334,63.0,74.0
20,42.59423815833334,43.54505729166667,61.0,75.0
21,43.57784415833334,43.96923737916667,61.0,67.0
22,44.06964715833334,44.29300768750001,61.0,75.0
23,44.31554865833334,44.59218784583334,59.0,73.0
24,44.561450158333336,44.80120412083334,61.0,74.0
25,44.80735165833334,45.08808920416667,63.0,75.0
26,45.05325315833334,45.34013824166667,66.0,70.0
27,45.299154658333336,45.586039741666674,68.0,73.0
28,45.54505615833334,45.780711762500005,66.0,69.0
29,45.79095765833334,47.38726822916667,63.0,76.0
30,47.51226815833334,47.852431900000006,68.0,74.0
31,48.00407115833334,48.15980877500001,68.0,74.0
32,48.24997265833334,48.405710275000004,68.0,73.0
33,48.495874158333336,49.03685745833334,68.0,73.0
34,48.98767715833334,49.21718522500001,66.0,68.0
35,49.23357865833334,49.51226702500001,63.0,76.0
36,49.47948015833334,49.766365241666676,68.0,73.0
37,49.72538165833334,50.00816838333334,70.0,71.0
38,49.97128315833334,51.20079065833334,68.0,75.0
39,51.44669215833334,51.622921566666676,61.0,75.0
40,51.692593658333344,52.07988852083334,61.0,73.0
41,52.18439665833334,52.44464241250001,63.0,75.0
42,52.43029815833334,52.92005197916667,68.0,74.0
43,52.92210115833334,53.43439595000001,66.0,73.0
44,53.41390415833334,53.680297450000005,63.0,74.0
45,53.65980565833334,53.94054320416667,66.0,64.0
46,53.90570715833334,55.243821154166675,63.0,75.0
47,55.87291915833334,56.268410737500005,61.0,74.0
48,56.36472215833334,56.82783665000001,61.0,76.0
49,56.85652515833334,57.352426516666675,63.0,75.0
50,57.34832815833334,57.75611481250001,66.0,73.0
51,57.84013115833334,57.98972123750001,66.0,69.0
52,58.086032658333345,58.23972109583334,66.0,68.0
53,58.33193415833334,58.77045850000001,66.0,75.0
54,58.823737158333344,59.31554015833334,59.0,74.0
55,59.31554015833334,60.63930990000001,61.0,68.0
56,60.79094915833334,61.04094901666667,61.0,75.0
57,61.03685065833334,61.29709641250001,63.0,74.0
58,61.282752158333345,61.77455515833334,54.0,76.0
59,61.77455515833334,61.97127635833334,54.0,74.0
60,62.020456658333345,62.25406308333334,56.0,74.0
61,62.26635815833334,62.538898987500005,61.0,75.0
62,62.51225965833334,62.77865295000001,63.0,75.0
63,62.758161158333344,63.27455430833334,59.0,78.0
64,63.24996415833334,66.29094604166667,56.0,74.0
65,73.08602415833334,73.50815506666667,61.0,79.0
66,73.57782715833335,73.7397123125,61.0,73.0
67,73.82372865833334,73.96922037916667,61.0,75.0
68,74.06963015833334,74.52044957500001,61.0,77.0
69,74.56143315833334,74.83192480833334,59.0,73.0
70,74.80733465833335,75.05938369583335,56.0,77.0
71,75.05323615833335,75.33602288333334,61.0,80.0
72,75.29913765833335,75.56143259166667,63.0,74.0
73,75.54503915833334,76.75405486666668,61.0,79.0
74,77.02044815833334,77.20692346250001,66.0,73.0
75,77.26634965833334,77.77659527083334,66.0,71.0
76,77.75815265833334,78.01020169583335,63.0,74.0
77,78.00405415833335,78.45487357500001,68.0,75.0
78,78.49585715833335,79.00815195000001,66.0,74.0
79,78.98766015833334,80.81142961666667,63.0,75.0
80,81.44667515833335,81.82987166250001,68.0,74.0
81,81.93847815833334,82.34626481250001,68.0,75.0
82,82.43028115833334,82.83806781250001,71.0,78.0
83,82.92208415833335,83.43028059166667,59.0,80.0
84,83.41388715833334,83.90569015833334,63.0,74.0
85,83.90569015833334,84.85650929166668,61.0,75.0
86,84.88929615833335,85.28068937916667,61.0,67.0
87,85.38109915833334,85.60445968750001,61.0,75.0
88,85.62700065833334,85.90363984583334,59.0,73.0
89,85.87290215833335,86.11265612083335,61.0,74.0
90,86.11880365833335,86.39954120416668,63.0,75.0
91,86.36470515833335,86.65159024166668,66.0,70.0
92,86.61060665833334,86.89749174166668,68.0,73.0
93,86.85650815833334,87.09216376250001,66.0,69.0
94,87.10240965833334,88.69872022916668,63.0,76.0
95,88.82372015833334,89.16388390000002,68.0,74.0
96,89.31552315833335,89.47126077500002,68.0,74.0
97,89.56142465833335,89.717162275,68.0,73.0
98,89.80732615833334,90.34830945833335,68.0,73.0
99,90.29912915833334,90.52863722500001,66.0,68.0
100,90.54503065833335,90.82371902500002,63.0,76.0
101,90.79093215833335,90.82371902500002,63.0,73.0
102,91.28273515833335,92.51224265833335,68.0,75.0
103,92.75814415833335,92.93437356666668,61.0,75.0
104,93.00404565833334,93.39134052083335,61.0,73.0
105,93.49584865833334,93.75609441250002,63.0,75.0
106,93.74175015833335,94.23150397916667,68.0,74.0
107,94.23355315833335,94.74584795000001,66.0,73.0
108,94.72535615833334,94.99174945000001,63.0,74.0
109,94.97125765833334,95.25199520416668,66.0,64.0
110,95.21715915833335,96.55527315416668,63.0,75.0
111,97.18437115833335,97.57986273750001,61.0,74.0
112,97.67617415833335,98.13928865000001,61.0,76.0
113,98.16797715833334,98.66387851666668,63.0,75.0
114,98.65978015833335,99.06756681250002,66.0,73.0
115,99.15158315833335,99.30117323750001,66.0,69.0
116,99.39748465833334,99.55117309583335,66.0,68.0
117,99.64338615833334,100.0819105,66.0,75.0
118,100.13518915833335,100.62699215833335,68.0,74.0
119,100.62699215833335,102.10240115833335,66.0,68.0
120,102.10240115833335,102.35240101666668,61.0,75.0
121,102.34830265833335,102.60854841250001,63.0,74.0
122,102.59420415833334,103.08600715833335,66.0,76.0
123,103.08600715833335,103.28272835833334,66.0,74.0
124,103.33190865833335,103.56551508333335,68.0,74.0
125,103.57781015833335,103.85035098750001,73.0,75.0
126,103.82371165833335,104.09010495000001,75.0,75.0
127,104.06961315833335,104.58600630833335,71.0,78.0
128,104.56141615833334,105.54502215833335,68.0,74.0
129,105.54502215833335,106.07166120416669,68.0,75.0
130,106.03682515833334,106.33805449583335,71.0,68.0
131,106.28272665833335,106.59215271250001,73.0,76.0
132,106.52862815833335,109.38928227500001,75.0,75.0
133,109.47944615833335,110.41182267916668,75.0,80.0
134,110.46305215833335,110.73764216666669,73.0,77.0
135,110.70895365833334,111.01018299583335,75.0,74.0
136,110.95485515833334,113.23968992916669,73.0,84.0
137,113.41387015833335,113.90567315833334,68.0,75.0
138,113.90567315833334,114.15977137500002,71.0,77.0
139,114.15157465833335,114.33395160416669,73.0,74.0
140,114.39747615833335,114.72124646666668,73.0,77.0
141,114.64337765833335,114.88722997916668,75.0,72.0
142,114.88927915833335,117.18231064583335,73.0,76.0
143,117.34829415833335,117.85649059166668,73.0,80.0
144,117.84009715833335,118.33190015833335,71.0,75.0
145,118.33190015833335,118.61058852500001,68.0,74.0
146,118.57780165833334,118.83804741250002,71.0,75.0
147,118.82370315833334,122.15976684166668,68.0,73.0
148,122.26632415833335,123.06755321250002,68.0,84.0
149,123.24993015833336,123.54706113750002,68.0,75.0
150,123.49583165833334,123.77247084583335,71.0,75.0
151,123.74173315833335,123.97329040416669,68.0,74.0
152,123.98763465833335,124.29706071250001,66.0,74.0
153,124.23353615833335,124.64542117083334,68.0,77.0
154,124.72533915833336,126.01632203333335,68.0,79.0
155,126.20074815833335,126.55525615416668,71.0,80.0
156,126.69255115833334,127.18435415833335,73.0,75.0
157,127.18435415833335,127.38312453750002,68.0,73.0
158,127.43025565833335,127.59009163333334,71.0,72.0
159,127.67615715833335,127.96918977916668,68.0,74.0
160,127.92205865833336,128.15566508333336,66.0,71.0
161,128.16796015833336,128.43230427083336,63.0,75.0
162,128.41386165833336,128.61673039583334,66.0,61.0
163,128.65976315833336,129.89746737500002,63.0,79.0
164,130.13517215833335,130.5675489625,63.0,80.0
165,130.62697515833335,131.89746624166668,68.0,74.0
166,132.10238415833336,132.54295767916668,68.0,75.0
167,132.59418715833334,132.85443291250002,63.0,75.0
168,132.84008865833334,133.1269737416667,61.0,75.0
169,133.08599015833335,133.96098966250003,59.0,74.0
170,134.06959615833335,134.43025169166668,61.0,75.0
171,134.56139915833336,134.73353020833335,61.0,73.0
172,134.80730065833336,134.96918581250003,61.0,69.0
173,135.05320215833336,135.5368084416667,61.0,73.0
174,135.54500515833334,135.79705419583334,59.0,75.0
175,135.79090665833334,136.06139830833334,56.0,76.0
176,136.03680815833334,137.86877433333336,63.0,77.0
177,138.00402015833336,139.54500289166668,71.0,77.0
178,139.47942915833335,140.02655999583334,68.0,75.0
179,139.97123215833335,141.77860818333335,71.0,74.0
180,141.93844415833334,143.3913121875,73.0,78.0
181,143.41385315833335,143.90770533750003,68.0,75.0
182,143.90565615833336,144.16385273333336,75.0,74.0
183,144.15155765833336,144.40360669583336,78.0,76.0
184,144.39745915833336,145.7724583791667,75.0,78.0
185,145.87286815833335,146.49376944583335,66.0,72.0
186,146.61057265833335,146.77245781250002,66.0,73.0
187,146.85647415833336,147.2847526041667,66.0,74.0
188,147.34827715833336,147.7314736625,68.0,75.0
189,147.84008015833336,148.57778465833334,70.0,74.0
190,148.82368615833335,149.30729244166668,66.0,74.0
191,149.31548915833335,149.81548887500003,63.0,78.0
192,149.80729215833335,153.59417525833337,68.0,69.0
193,169.47941215833336,169.90154306666668,61.0,79.0
194,169.97121515833337,170.13310031250003,61.0,73.0
195,170.21711665833337,170.3626083791667,61.0,75.0
196,170.46301815833337,170.91383757500003,61.0,77.0
197,170.95482115833335,171.22531280833337,59.0,73.0
198,171.20072265833335,171.45277169583335,56.0,77.0
199,171.44662415833335,171.72941088333334,61.0,80.0
200,171.69252565833335,171.9548205916667,63.0,74.0
201,171.93842715833335,173.1474428666667,61.0,79.0
202,173.41383615833337,173.60031146250003,66.0,73.0
203,173.65973765833337,174.16998327083337,66.0,71.0
204,174.15154065833335,174.40358969583335,63.0,74.0
205,174.39744215833335,174.84826157500004,68.0,75.0
206,174.88924515833335,175.40153995000003,66.0,74.0
207,175.38104815833336,177.2048176166667,63.0,75.0
208,177.84006315833335,178.22325966250003,68.0,74.0
209,178.33186615833336,178.73965281250003,68.0,75.0
210,178.82366915833336,179.23145581250003,71.0,78.0
211,179.31547215833336,179.8236685916667,59.0,80.0
212,179.80727515833337,180.29907815833334,63.0,74.0
213,180.29907815833334,181.24989729166668,61.0,75.0
214,181.28268415833335,181.6740773791667,61.0,67.0
215,181.77448715833336,181.9978476875,61.0,75.0
216,182.02038865833336,182.29702784583336,59.0,73.0
217,182.26629015833336,182.50604412083337,61.0,74.0
218,182.51219165833336,182.79292920416668,63.0,75.0
219,182.75809315833337,183.04497824166668,66.0,70.0
220,183.00399465833337,183.29087974166669,68.0,73.0
221,183.24989615833337,183.48555176250002,66.0,69.0
222,183.49579765833334,185.09210822916668,63.0,76.0
223,185.21710815833336,185.55727190000002,68.0,74.0
224,185.70891115833336,185.86464877500003,68.0,74.0
225,185.95481265833337,186.11055027500004,68.0,73.0
226,186.20071415833337,186.74169745833336,68.0,73.0
227,186.69251715833335,186.92202522500003,66.0,68.0
228,186.93841865833335,187.21710702500002,63.0,76.0
229,187.18432015833335,187.21710702500002,63.0,73.0
230,187.67612315833335,188.90563065833337,68.0,75.0
231,189.15153215833337,189.32776156666668,61.0,75.0
232,189.39743365833337,189.78472852083337,61.0,73.0
233,189.88923665833335,190.14948241250002,63.0,75.0
234,190.13513815833335,190.6248919791667,68.0,74.0
235,190.62694115833335,191.13923595000003,66.0,73.0
236,191.11874415833336,191.38513745000003,63.0,74.0
237,191.36464565833336,191.6453832041667,66.0,64.0
238,191.61054715833336,192.9486611541667,63.0,75.0
239,193.57775915833335,193.97325073750002,61.0,74.0
240,194.06956215833335,194.53267665,61.0,76.0
241,194.56136515833336,195.0572665166667,63.0,75.0
242,195.05316815833336,195.46095481250003,66.0,73.0
243,195.54497115833337,195.69456123750004,66.0,69.0
244,195.79087265833337,195.94456109583336,66.0,68.0
245,196.03677415833337,196.47529850000004,66.0,75.0
246,196.52857715833335,197.02038015833335,68.0,74.0
247,197.02038015833335,198.49578915833337,66.0,68.0
248,198.49578915833337,198.7457890166667,61.0,75.0
249,198.74169065833337,199.00193641250002,63.0,74.0
250,198.98759215833337,199.47939515833335,66.0,76.0
251,199.47939515833335,199.67611635833336,66.0,74.0
252,199.72529665833335,199.95890308333335,68.0,74.0
253,199.97119815833335,200.24373898750002,73.0,75.0
254,200.21709965833335,200.48349295000003,75.0,75.0
255,200.46300115833336,200.97939430833335,71.0,78.0
256,200.95480415833336,201.93841015833337,68.0,74.0
257,201.93841015833337,202.4650492041667,68.0,75.0
258,202.43021315833337,202.73144249583336,71.0,68.0
259,202.67611465833335,202.98554071250004,73.0,76.0
260,202.92201615833335,205.78267027500002,75.0,75.0
261,205.87283415833335,206.8052106791667,75.0,80.0
262,206.85644015833336,207.1310301666667,73.0,77.0
263,207.10234165833336,207.40357099583335,75.0,74.0
264,207.34824315833336,209.6330779291667,73.0,84.0
265,209.80725815833335,210.29906115833336,68.0,75.0
266,210.29906115833336,210.55315937500004,71.0,77.0
267,210.54496265833336,210.7273396041667,73.0,74.0
268,210.79086415833336,211.1146344666667,73.0,77.0
269,211.03676565833337,211.2806179791667,75.0,72.0
270,211.28266715833337,213.57569864583337,73.0,76.0
271,213.74168215833336,214.2498785916667,73.0,80.0
272,214.23348515833337,214.72528815833337,71.0,75.0
273,214.72528815833337,215.00397652500004,68.0,74.0
274,214.97118965833337,215.23143541250002,71.0,75.0
275,215.21709115833337,218.5531548416667,68.0,73.0
276,218.65971215833335,219.46094121250002,68.0,84.0
277,219.64331815833336,219.94044913750002,68.0,75.0
278,219.88921965833336,220.16585884583336,71.0,75.0
279,220.13512115833336,220.3666784041667,68.0,74.0
280,220.38102265833336,220.69044871250003,66.0,74.0
281,220.62692415833337,221.03880917083336,68.0,77.0
282,221.11872715833337,222.40971003333337,68.0,79.0
283,222.59413615833336,222.9486441541667,71.0,80.0
284,223.08593915833336,223.57774215833336,73.0,75.0
285,223.57774215833336,223.77651253750003,68.0,73.0
286,223.82364365833337,223.98347963333336,71.0,72.0
287,224.06954515833337,224.36257777916668,68.0,74.0
288,224.31544665833337,224.54905308333338,66.0,71.0
289,224.56134815833337,224.82569227083337,63.0,75.0
290,224.80724965833338,225.01011839583336,66.0,61.0
291,225.05315115833335,226.29085537500004,63.0,79.0
292,226.52856015833336,226.96093696250003,63.0,80.0
293,227.02036315833337,228.2908542416667,68.0,74.0
294,228.49577215833335,228.9363456791667,68.0,75.0
295,228.98757515833336,229.24782091250003,63.0,75.0
296,229.23347665833336,229.5203617416667,61.0,75.0
297,229.47937815833336,230.35437766250004,59.0,74.0
298,230.46298415833337,230.8236396916667,61.0,75.0
299,230.95478715833337,231.12691820833336,61.0,73.0
300,231.20068865833338,231.36257381250005,61.0,69.0
301,231.44659015833335,231.9301964416667,61.0,73.0
302,231.93839315833335,232.19044219583336,59.0,75.0
303,232.18429465833336,232.45478630833335,56.0,76.0
304,232.43019615833336,234.26216233333338,63.0,77.0
305,234.39740815833338,235.9383908916667,71.0,77.0
306,235.87281715833336,236.41994799583335,68.0,75.0
307,236.36462015833337,238.17199618333336,71.0,74.0
308,238.33183215833336,239.78470018750002,73.0,78.0
309,239.80724115833337,240.30109333750002,68.0,75.0
310,240.29904415833337,240.55724073333337,75.0,74.0
311,240.54494565833338,240.79699469583338,78.0,76.0
312,240.79084715833338,242.1658463791667,75.0,78.0
313,242.26625615833336,242.88715744583337,66.0,72.0
314,243.00396065833337,243.16584581250004,66.0,73.0
315,243.24986215833337,243.67814060416669,66.0,74.0
316,243.74166515833338,244.12486166250002,68.0,75.0
317,244.23346815833338,244.97117265833336,70.0,74.0
318,245.21707415833336,245.7006804416667,66.0,74.0
319,245.70887715833337,246.20887687500004,63.0,78.0
320,246.20068015833337,249.98756325833338,68.0,69.0
321,250.13510415833338,250.93633321250005,68.0,84.0
322,251.11871015833336,251.41584113750002,68.0,75.0
323,251.36461165833336,251.64125084583335,71.0,75.0
324,251.61051315833336,251.8420704041667,68.0,74.0
325,251.85641465833336,252.16584071250003,66.0,74.0
326,252.10231615833337,252.51420117083336,68.0,77.0
327,252.59411915833337,253.88510203333337,68.0,79.0
328,254.06952815833336,254.4240361541667,71.0,80.0
329,254.56133115833336,255.05313415833336,73.0,75.0
330,255.05313415833336,255.25190453750002,68.0,73.0
331,255.29903565833337,255.45887163333336,71.0,72.0
332,255.54493715833337,255.8379697791667,68.0,74.0
333,255.79083865833337,256.0244450833334,66.0,71.0
334,256.0367401583334,256.30108427083337,63.0,75.0
335,256.2826416583334,256.4855103958334,66.0,61.0
336,256.5285431583334,257.76624737500003,63.0,79.0
337,258.0039521583334,258.43632896250006,63.0,80.0
338,258.74165665833334,258.9978040541667,63.0,75.0
339,258.98755815833334,259.3441153333334,68.0,76.0
340,259.47936115833335,259.6248528791667,68.0,73.0
341,259.72526265833335,259.8625576625,68.0,74.0
342,259.97116415833335,260.864606275,68.0,79.0
343,260.95477015833336,261.44657315833336,71.0,75.0
344,261.44657315833336,261.8072286916667,68.0,75.0
345,261.93837615833337,265.62689865833335,73.0,73.0
346,265.87280015833335,266.4937014458334,66.0,72.0
347,266.61050465833335,266.7723898125,66.0,73.0
348,266.85640615833336,267.2846846041667,66.0,74.0
349,267.34820915833336,267.73140566250004,63.0,75.0
350,267.84001215833337,268.33181515833337,66.0,74.0
351,268.33181515833337,268.5777166583334,68.0,74.0
352,268.5777166583334,268.8236181583334,68.0,74.0
353,268.8236181583334,269.0695196583334,73.0,74.0
354,269.0695196583334,269.3154211583334,75.0,74.0
355,269.3154211583334,269.8072241583334,71.0,74.0
356,269.8072241583334,273.5941072583334,68.0,69.0
357,273.74164815833336,274.3912379541667,66.0,74.0
358,274.47935265833337,274.6309919166667,66.0,72.0
359,274.72525415833337,275.2109096208334,66.0,71.0
360,275.2170571583334,275.78263060833336,63.0,76.0
361,275.7088601583334,276.1637779333334,66.0,77.0
362,276.2006631583334,276.4465646583334,68.0,74.0
363,276.4465646583334,276.6924661583334,68.0,74.0
364,276.6924661583334,277.2580396083334,73.0,82.0
365,277.1842691583334,280.51828366250004,75.0,77.0
366,280.5879557541667,281.0428735291667,73.0,80.0
367,281.0264800958334,281.43836510833336,71.0,75.0
368,281.43426675000006,281.8707419125,68.0,74.0
369,281.8236107916667,282.1678728916667,66.0,73.0
370,282.1740204291667,282.6330365625,68.0,74.0
371,282.5756595458334,283.0900035166667,73.0,78.0
372,283.0797576208334,285.31746127083335,71.0,70.0
373,285.30721537500006,288.51827912916673,68.0,75.0
