,start,end,pitch,velocity
0,14.9282929,15.150719133333334,58.0,88.0
1,15.148880900000002,15.413586500000001,67.0,99.0
2,15.369468900000001,15.626821566666667,65.0,90.0
3,15.5900569,17.297775666666666,67.0,122.0
4,17.354760900000002,17.591893000000002,67.0,112.0
5,17.5753489,17.766525166666668,65.0,77.0
6,17.7959369,18.1047601,63.0,96.0
7,18.2371129,18.4521862,65.0,99.0
8,18.457700900000003,18.85843576666667,62.0,95.0
9,18.8988769,20.056963900000003,58.0,96.0
10,21.766520900000003,21.862109033333336,58.0,96.0
11,21.987108900000003,22.1470352,58.0,88.0
12,22.207696900000002,22.580858266666667,60.0,93.0
13,22.6488729,22.749975733333336,63.0,93.0
14,22.8694609,23.62313656666667,63.0,97.0
15,24.8547529,25.174605500000002,63.0,95.0
16,25.295928900000003,25.397031733333336,60.0,93.0
17,25.516516900000003,26.058795733333334,63.0,96.0
18,26.1782809,27.41725016666667,65.0,99.0
19,29.045924900000003,29.262836433333337,58.0,89.0
20,29.266512900000002,29.51835086666667,67.0,112.0
21,29.4871009,29.722394766666667,65.0,96.0
22,29.7076889,31.18379026666667,67.0,112.0
23,31.472392900000003,31.65253976666667,67.0,127.0
24,31.692980900000002,31.85658366666667,65.0,79.0
25,31.9135689,32.09371576666667,63.0,97.0
26,32.1341569,32.35290666666667,65.0,100.0
27,32.5753329,32.79224443333334,60.0,93.0
28,32.795920900000006,33.21136163333333,62.0,95.0
29,33.237096900000004,34.60106603333334,58.0,95.0
30,35.884152900000004,35.97606456666667,58.0,102.0
31,36.1047409,36.27385836666667,58.0,92.0
32,36.3253289,36.5348875,60.0,112.0
33,36.5459169,36.6451815,63.0,97.0
34,36.7665049,36.8602548,63.0,100.0
35,36.9870929,38.32348853333334,63.0,107.0
36,38.5312089,38.713194,67.0,127.0
37,38.7517969,38.85841443333334,65.0,81.0
38,38.9723849,39.17459056666667,65.0,99.0
39,39.4135609,39.5238549,60.0,100.0
40,39.6341489,40.91539753333333,63.0,90.0
41,43.8253209,43.9135561,62.0,112.0
42,44.0459089,44.13782056666667,62.0,99.0
43,44.2664969,44.498114300000005,62.0,122.0
44,44.707672900000006,44.8289963,58.0,100.0
45,44.928260900000005,46.17458310000001,63.0,99.0
46,47.354728900000005,47.4209053,62.0,122.0
47,47.575316900000004,47.658037400000005,62.0,97.0
48,47.795904900000004,47.97789,62.0,127.0
49,48.2370809,48.349213133333336,58.0,102.0
50,48.4576689,49.5440648,63.0,112.0
51,50.001784900000004,50.16538766666667,60.0,112.0
52,50.2223729,50.351049233333335,63.0,96.0
53,50.4429609,50.7462694,67.0,107.0
54,50.8841369,50.97604856666667,65.0,102.0
55,51.1047249,51.20582773333334,65.0,100.0
56,51.32531290000001,51.518327400000004,65.0,117.0
57,51.766488900000006,51.862077033333335,63.0,102.0
58,51.987076900000005,52.86759066666667,65.0,112.0
59,53.5311929,53.65435453333334,60.0,100.0
60,53.75178090000001,53.856560200000004,63.0,90.0
61,53.972368900000006,54.29957443333334,67.0,99.0
62,54.413544900000005,54.496265400000006,65.0,96.0
63,54.634132900000004,55.59736716666667,65.0,100.0
64,55.7370729,56.22052826666667,67.0,127.0
65,56.398836900000006,56.882292266666674,65.0,107.0
66,57.060600900000004,57.39148290000001,63.0,112.0
67,57.5017769,59.262804433333336,70.0,122.0
68,60.3694209,60.518317800000005,63.0,107.0
69,60.59000890000001,60.740744033333335,65.0,96.0
70,60.81059690000001,60.93008206666667,67.0,107.0
71,61.03118490000001,61.29221403333334,70.0,107.0
72,61.472360900000005,61.68375773333334,70.0,122.0
73,61.913536900000004,62.1396396,67.0,127.0
74,62.3547129,62.45765396666667,65.0,112.0
75,62.5753009,63.3914765,67.0,127.0
76,63.898828900000005,64.06059343333334,67.0,112.0
77,64.1194169,64.29221083333334,70.0,96.0
78,64.34000490000001,64.51279883333333,67.0,117.0
79,64.5605929,64.73890153333333,72.0,117.0
80,64.78118090000001,64.87860726666668,70.0,93.0
81,65.0017689,65.09184233333333,70.0,97.0
82,65.22235690000001,65.38779790000001,70.0,117.0
83,65.4429449,65.53301833333335,70.0,112.0
84,65.6635329,65.91904733333334,67.0,127.0
85,66.1047089,66.43559090000001,65.0,112.0
86,66.5458849,67.34551640000001,63.0,99.0
87,67.64882490000001,67.76831006666667,60.0,117.0
88,67.8694129,67.9631628,63.0,99.0
89,68.0900009,68.32161830000001,67.0,122.0
90,68.3105889,68.3988241,65.0,85.0
91,68.5311769,68.62125033333334,65.0,95.0
92,68.75176490000001,68.83816186666667,63.0,102.0
93,68.9723529,69.17455856666668,65.0,122.0
94,69.19294090000001,69.43742593333334,67.0,127.0
95,69.63411690000001,70.4116896,60.0,107.0
96,71.17823290000001,71.30690923333334,60.0,96.0
97,71.3988209,71.4870561,63.0,99.0
98,71.61940890000001,71.81058516666667,67.0,127.0
99,71.8399969,71.92271740000001,65.0,96.0
100,72.06058490000001,72.13595246666667,65.0,102.0
101,72.2811729,72.36021693333333,65.0,100.0
102,72.50176090000001,72.6010255,65.0,117.0
103,72.9429369,73.02381916666667,63.0,107.0
104,73.1635249,74.15984736666667,65.0,112.0
105,74.48705290000001,74.6359498,63.0,107.0
106,74.7076409,74.85837603333334,65.0,96.0
107,74.92822890000001,75.04771406666667,67.0,107.0
108,75.1488169,75.40984603333334,70.0,107.0
109,75.58999290000001,75.80138973333334,70.0,122.0
110,76.03116890000001,76.25727160000001,67.0,127.0
111,76.47234490000001,76.57528596666667,65.0,112.0
112,76.6929329,77.50910850000001,67.0,127.0
113,78.01646090000001,78.17822543333334,67.0,112.0
114,78.2370489,78.40984283333334,70.0,96.0
115,78.45763690000001,78.63043083333334,67.0,117.0
116,78.6782249,78.85653353333333,72.0,117.0
117,78.89881290000001,78.99623926666668,70.0,93.0
118,79.1194009,79.20947433333333,70.0,97.0
119,79.33998890000001,79.50542990000001,70.0,117.0
120,79.5605769,79.65065033333335,70.0,112.0
121,79.78116490000001,80.03667933333334,67.0,127.0
122,80.2223409,80.55322290000001,65.0,112.0
123,80.6635169,81.46314840000001,63.0,99.0
124,81.76645690000001,81.88594206666667,60.0,117.0
125,81.9870449,82.0807948,63.0,99.0
126,82.20763290000001,82.43925030000001,67.0,122.0
127,82.4282209,82.5164561,65.0,85.0
128,82.6488089,82.73888233333334,65.0,95.0
129,82.86939690000001,82.95579386666667,63.0,102.0
130,83.0899849,83.29219056666668,65.0,122.0
131,83.31057290000001,83.55505793333334,67.0,127.0
132,83.75174890000001,84.5293216,60.0,107.0
133,85.29586490000001,85.42454123333334,60.0,96.0
134,85.5164529,85.6046881,63.0,99.0
135,85.73704090000001,85.92821716666667,67.0,127.0
136,85.9576289,86.04034940000001,65.0,96.0
137,86.17821690000001,86.25358446666667,65.0,102.0
138,86.3988049,87.3197598,65.0,100.0
139,87.5017449,87.99439143333333,67.0,127.0
140,88.16350890000001,88.44292036666667,65.0,112.0
141,88.8252729,89.2664489,60.0,102.0
142,89.2664489,90.40983003333334,63.0,99.0
143,106.69290090000001,106.91532713333334,58.0,88.0
144,106.9134889,107.1781945,67.0,99.0
145,107.13407690000001,107.39142956666667,65.0,90.0
146,107.3546649,109.06238366666668,67.0,122.0
147,109.11936890000001,109.35650100000001,67.0,112.0
148,109.3399569,109.53113316666668,65.0,77.0
149,109.56054490000001,109.8693681,63.0,96.0
150,110.00172090000001,110.21679420000001,65.0,99.0
151,110.2223089,110.62304376666667,62.0,95.0
152,110.66348490000001,111.82157190000001,58.0,96.0
153,113.53112890000001,113.62671703333334,58.0,96.0
154,113.7517169,113.91164320000001,58.0,88.0
155,113.97230490000001,114.34546626666668,60.0,93.0
156,114.41348090000001,114.51458373333334,63.0,93.0
157,114.6340689,115.38774456666667,63.0,97.0
158,116.6193609,116.93921350000001,63.0,95.0
159,117.0605369,117.16163973333335,60.0,93.0
160,117.28112490000001,117.82340373333334,63.0,96.0
161,117.94288890000001,119.18185816666667,65.0,99.0
162,120.81053290000001,121.02744443333334,58.0,89.0
163,121.0311209,121.28295886666668,67.0,112.0
164,121.25170890000001,121.48700276666668,65.0,96.0
165,121.4722969,122.94839826666667,67.0,112.0
166,123.23700090000001,123.41714776666667,67.0,127.0
167,123.4575889,123.62119166666668,65.0,79.0
168,123.67817690000001,123.85832376666667,63.0,97.0
169,123.8987649,124.11751466666668,65.0,100.0
170,124.33994090000002,124.55685243333335,60.0,93.0
171,124.56052890000001,124.97596963333335,62.0,95.0
172,125.00170490000001,126.36567403333335,58.0,95.0
173,127.64876090000001,127.74067256666667,58.0,102.0
174,127.8693489,128.03846636666668,58.0,92.0
175,128.0899369,128.2994955,60.0,112.0
176,128.31052490000002,128.40978950000002,63.0,97.0
177,128.5311129,128.62486280000002,63.0,100.0
178,128.7517009,130.08809653333336,63.0,107.0
179,130.2958169,130.477802,67.0,127.0
180,130.5164049,130.62302243333335,65.0,81.0
181,130.73699290000002,130.93919856666668,65.0,99.0
182,131.1781689,131.2884629,60.0,100.0
183,131.39875690000002,132.68000553333334,63.0,90.0
184,135.58992890000002,135.6781641,62.0,112.0
185,135.8105169,135.90242856666669,62.0,99.0
186,136.0311049,136.2627223,62.0,122.0
187,136.47228090000002,136.5936043,58.0,100.0
188,136.6928689,137.93919110000002,63.0,99.0
189,139.1193369,139.1855133,62.0,122.0
190,139.3399249,139.42264540000002,62.0,97.0
191,139.56051290000002,139.742498,62.0,127.0
192,140.0016889,140.11382113333335,58.0,102.0
193,140.2222769,141.3086728,63.0,112.0
194,141.7663929,141.92999566666668,60.0,112.0
195,141.98698090000002,142.11565723333334,63.0,96.0
196,142.2075689,142.5108774,67.0,107.0
197,142.6487449,142.74065656666667,65.0,102.0
198,142.86933290000002,142.97043573333335,65.0,100.0
199,143.0899209,143.2829354,65.0,117.0
200,143.53109690000002,143.62668503333333,63.0,102.0
201,143.75168490000001,144.63219866666668,65.0,112.0
202,145.29580090000002,145.41896253333334,60.0,100.0
203,145.5163889,145.6211682,63.0,90.0
204,145.7369769,146.06418243333334,67.0,99.0
205,146.17815290000001,146.2608734,65.0,96.0
206,146.3987409,147.36197516666667,65.0,100.0
207,147.50168090000003,147.98513626666667,67.0,127.0
208,148.1634449,148.64690026666668,65.0,107.0
209,148.8252089,149.1560909,63.0,112.0
210,149.26638490000002,151.02741243333335,70.0,122.0
211,152.1340289,152.28292580000002,63.0,107.0
212,152.35461690000002,152.50535203333334,65.0,96.0
213,152.57520490000002,152.69469006666668,67.0,107.0
214,152.7957929,153.05682203333333,70.0,107.0
215,153.23696890000002,153.44836573333333,70.0,122.0
216,153.6781449,153.90424760000002,67.0,127.0
217,154.11932090000002,154.22226196666668,65.0,112.0
218,154.3399089,155.15608450000002,67.0,127.0
219,155.66343690000002,155.82520143333335,67.0,112.0
220,155.88402490000001,156.05681883333335,70.0,96.0
221,156.1046129,156.27740683333334,67.0,117.0
222,156.3252009,156.50350953333336,72.0,117.0
223,156.54578890000002,156.6432152666667,70.0,93.0
224,156.7663769,156.85645033333336,70.0,97.0
225,156.9869649,157.15240590000002,70.0,117.0
226,157.20755290000002,157.29762633333334,70.0,112.0
227,157.42814090000002,157.68365533333335,67.0,127.0
228,157.8693169,158.2001989,65.0,112.0
229,158.3104929,159.11012440000002,63.0,99.0
230,159.4134329,159.53291806666667,60.0,117.0
231,159.63402090000002,159.7277708,63.0,99.0
232,159.85460890000002,160.08622630000002,67.0,122.0
233,160.0751969,160.16343210000002,65.0,85.0
234,160.2957849,160.38585833333335,65.0,95.0
235,160.51637290000002,160.60276986666668,63.0,102.0
236,160.7369609,160.93916656666667,65.0,122.0
237,160.9575489,161.20203393333335,67.0,127.0
238,161.39872490000002,162.17629760000003,60.0,107.0
239,162.94284090000002,163.07151723333334,60.0,96.0
240,163.1634289,163.2516641,63.0,99.0
241,163.3840169,163.57519316666668,67.0,127.0
242,163.6046049,163.68732540000002,65.0,96.0
243,163.82519290000002,163.9005604666667,65.0,102.0
244,164.0457809,164.12482493333334,65.0,100.0
245,164.2663689,164.3656335,65.0,117.0
246,164.70754490000002,164.78842716666668,63.0,107.0
247,164.9281329,165.92445536666668,65.0,112.0
248,166.25166090000002,166.4005578,63.0,107.0
249,166.4722489,166.62298403333335,65.0,96.0
250,166.6928369,166.81232206666667,67.0,107.0
251,166.91342490000002,167.17445403333335,70.0,107.0
252,167.3546009,167.56599773333335,70.0,122.0
253,167.79577690000002,168.0218796,67.0,127.0
254,168.2369529,168.3398939666667,65.0,112.0
255,168.45754090000003,169.2737165,67.0,127.0
256,169.7810689,169.94283343333333,67.0,112.0
257,170.0016569,170.17445083333334,70.0,96.0
258,170.22224490000002,170.39503883333336,67.0,117.0
259,170.4428329,170.62114153333334,72.0,117.0
260,170.6634209,170.76084726666667,70.0,93.0
261,170.88400890000003,170.97408233333334,70.0,97.0
262,171.10459690000002,171.2700379,70.0,117.0
263,171.3251849,171.41525833333336,70.0,112.0
264,171.5457729,171.80128733333333,67.0,127.0
265,171.98694890000002,172.31783090000002,65.0,112.0
266,172.4281249,173.2277564,63.0,99.0
267,173.53106490000002,173.65055006666668,60.0,117.0
268,173.7516529,173.84540280000002,63.0,99.0
269,173.9722409,174.2038583,67.0,122.0
270,174.19282890000002,174.2810641,65.0,85.0
271,174.41341690000002,174.50349033333336,65.0,95.0
272,174.6340049,174.7204018666667,63.0,102.0
273,174.8545929,175.05679856666669,65.0,122.0
274,175.07518090000002,175.31966593333334,67.0,127.0
275,175.5163569,176.2939296,60.0,107.0
276,177.0604729,177.18914923333335,60.0,96.0
277,177.2810609,177.3692961,63.0,99.0
278,177.50164890000002,177.6928251666667,67.0,127.0
279,177.7222369,177.8049574,65.0,96.0
280,177.9428249,178.01819246666668,65.0,102.0
281,178.16341290000003,179.08436780000002,65.0,100.0
282,179.26635290000002,179.75899943333334,67.0,127.0
283,179.92811690000002,180.20752836666668,65.0,112.0
284,180.58988090000003,181.0310569,60.0,102.0
285,181.0310569,182.17443803333336,63.0,99.0
286,183.89870090000002,184.0475978,63.0,107.0
287,184.11928890000002,184.27002403333336,65.0,96.0
288,184.3398769,184.45936206666667,67.0,107.0
289,184.56046490000003,184.82149403333335,70.0,107.0
290,185.0016409,185.21303773333335,70.0,122.0
291,185.44281690000003,185.6689196,67.0,127.0
292,185.8839929,185.98693396666667,65.0,112.0
293,186.1045809,186.9207565,67.0,127.0
294,187.4281089,187.58987343333334,67.0,112.0
295,187.6486969,187.82149083333334,70.0,96.0
296,187.86928490000003,188.04207883333333,67.0,117.0
297,188.08987290000002,188.26818153333335,72.0,117.0
298,188.3104609,188.40788726666668,70.0,93.0
299,188.5310489,188.62112233333335,70.0,97.0
300,188.75163690000002,188.9170779,70.0,117.0
301,188.97222490000001,189.06229833333336,70.0,112.0
302,189.1928129,189.44832733333334,67.0,127.0
303,189.63398890000002,189.96487090000002,65.0,112.0
304,190.0751649,190.8747964,63.0,99.0
305,191.17810490000002,191.2975900666667,60.0,117.0
306,191.39869290000001,191.49244280000002,63.0,99.0
307,191.6192809,191.8508983,67.0,122.0
308,191.83986890000003,191.9281041,65.0,85.0
309,192.06045690000002,192.15053033333334,65.0,95.0
310,192.2810449,192.3674418666667,63.0,102.0
311,192.5016329,192.7038385666667,65.0,122.0
312,192.72222090000002,192.96670593333334,67.0,127.0
313,193.1633969,193.94096960000002,60.0,107.0
314,194.7075129,194.83618923333336,60.0,96.0
315,194.9281009,195.01633610000002,63.0,99.0
316,195.14868890000002,195.33986516666667,67.0,127.0
317,195.36927690000002,195.4519974,65.0,96.0
318,195.5898649,195.66523246666668,65.0,102.0
319,195.8104529,195.88949693333336,65.0,100.0
320,196.03104090000002,196.13030550000002,65.0,117.0
321,196.4722169,196.55309916666667,63.0,107.0
322,196.69280490000003,197.68912736666667,65.0,112.0
323,198.0163329,198.16522980000002,63.0,107.0
324,198.2369209,198.38765603333334,65.0,96.0
325,198.45750890000002,198.57699406666669,67.0,107.0
326,198.6780969,198.93912603333334,70.0,107.0
327,199.11927290000003,199.33066973333334,70.0,122.0
328,199.5604489,199.78655160000002,67.0,127.0
329,200.00162490000002,200.10456596666668,65.0,112.0
330,200.22221290000002,201.03838850000002,67.0,127.0
331,201.54574090000003,201.70750543333335,67.0,112.0
332,201.76632890000002,201.93912283333336,70.0,96.0
333,201.9869169,202.15971083333335,67.0,117.0
334,202.2075049,202.38581353333336,72.0,117.0
335,202.42809290000002,202.5255192666667,70.0,93.0
336,202.64868090000002,202.73875433333336,70.0,97.0
337,202.8692689,203.03470990000002,70.0,117.0
338,203.08985690000003,203.17993033333335,70.0,112.0
339,203.31044490000002,203.56595933333335,67.0,127.0
340,203.7516209,204.0825029,65.0,112.0
341,204.19279690000002,204.99242840000002,63.0,99.0
342,205.2957369,205.41522206666667,60.0,117.0
343,205.51632490000003,205.6100748,63.0,99.0
344,205.73691290000002,205.96853030000003,67.0,122.0
345,205.9575009,206.04573610000003,65.0,85.0
346,206.1780889,206.26816233333335,65.0,95.0
347,206.39867690000003,206.48507386666668,63.0,102.0
348,206.61926490000002,206.82147056666668,65.0,122.0
349,206.8398529,207.08433793333336,67.0,127.0
350,207.28102890000002,208.0586016,60.0,107.0
351,208.82514490000003,208.95382123333334,60.0,96.0
352,209.04573290000002,209.1339681,63.0,99.0
353,209.2663209,209.45749716666668,67.0,127.0
354,209.4869089,209.56962940000003,65.0,96.0
355,209.70749690000002,209.7828644666667,65.0,102.0
356,209.92808490000002,210.8490398,65.0,100.0
357,211.0310249,211.52367143333336,67.0,127.0
358,211.6927889,211.80308290000002,70.0,122.0
359,212.35455290000002,212.6523467,67.0,127.0
360,212.79572890000003,213.0144786666667,65.0,127.0
361,213.01631690000002,215.02918240000002,63.0,102.0
362,215.89866676666668,216.1413135666667,60.0,97.0
363,216.17256353333335,216.3012398666667,63.0,99.0
364,216.4078574,216.84535693333336,67.0,112.0
365,216.87109220000002,217.11925370000003,65.0,100.0
366,217.33616523333336,218.92991353333335,65.0,122.0
367,219.56410403333334,220.0530741,67.0,112.0
368,220.18726513333334,221.58983716666668,70.0,107.0
369,221.8600574666667,222.60638020000002,67.0,112.0
370,222.96115923333335,223.29387946666668,65.0,102.0
371,223.2957177,227.95012450000002,63.0,96.0
