,start,end,pitch,velocity
0,13.159544737500001,13.5509922625,67.0,87.0
1,13.5542817375,13.9457292625,69.0,87.0
2,13.9490187375,14.1990188375,71.0,87.0
3,14.3437557375,15.8799405625,71.0,87.0
4,15.922703737500001,16.0246774625,62.0,87.0
5,16.1200722375,16.3141512625,62.0,87.0
6,16.3174407375,16.569085575,67.0,87.0
7,16.7121777375,16.80921725,67.0,87.0
8,16.9095462375,17.0263226,67.0,87.0
9,17.5016517375,17.9983624625,67.0,87.0
10,17.8963887375,18.6694153625,64.0,87.0
11,19.080599737500002,19.17763925,62.0,87.0
12,19.2779682375,19.40132355,62.0,87.0
13,19.4753367375,19.6891526125,67.0,87.0
14,19.8700737375,20.2352054625,67.0,87.0
15,20.2648107375,20.657903,67.0,87.0
16,20.6595477375,21.0509952625,62.0,87.0
17,21.0542847375,21.8404692625,69.0,87.0
18,22.2384957375,22.333890512500002,62.0,87.0
19,22.4358642375,22.58553535,62.0,87.0
20,22.633232737500002,23.0131671,72.0,87.0
21,23.0279697375,23.6891542125,71.0,87.0
22,23.8174437375,24.1990228375,71.0,87.0
23,25.1990232375,25.292773275000002,62.0,87.0
24,24.2121807375,25.407904900000002,69.0,87.0
25,25.3963917375,25.500010200000002,62.0,87.0
26,25.5937602375,25.7088918625,62.0,87.0
27,25.7911287375,26.1694183625,67.0,87.0
28,26.1858657375,26.65132645,69.0,87.0
29,26.5806027375,27.003300275,71.0,87.0
30,26.9753397375,28.0148138375,62.0,87.0
31,28.5542877375,28.65132725,59.0,87.0
32,28.7516562375,28.88816945,59.0,87.0
33,28.9490247375,29.148037975,66.0,87.0
34,29.3437617375,29.7352092625,66.0,87.0
35,29.7384987375,30.062512025,64.0,87.0
36,30.1332357375,30.5246832625,66.0,87.0
37,30.5279727375,31.325670425000002,59.0,87.0
38,31.712183737500002,31.78290745,59.0,87.0
39,31.9095522375,32.0082364875,59.0,87.0
40,32.1069207375,32.2319207875,69.0,87.0
41,32.5016577375,32.6858683375,69.0,87.0
42,32.6990262375,32.80922365,67.0,85.0
43,32.8963947375,33.157908,69.0,85.0
44,33.2911317375,33.42764495,67.0,85.0
45,33.4885002375,33.6529739875,69.0,85.0
46,33.6858687375,34.473698,69.0,90.0
47,34.8700797375,34.9556060875,66.0,90.0
48,35.0674482375,35.1760009125,66.0,90.0
49,35.2648167375,35.4391589125,74.0,90.0
50,35.6595537375,35.799356425,74.0,90.0
51,36.0542907375,36.13817235,74.0,90.0
52,36.2516592375,36.4095540375,74.0,90.0
53,36.6463962375,36.73027785,74.0,90.0
54,36.8437647375,37.23027805,71.0,90.0
55,37.2385017375,37.963830975,69.0,90.0
56,38.0279757375,38.34869955,62.0,90.0
57,38.4227127375,39.0575814125,67.0,90.0
58,39.0148182375,39.595410575,69.0,90.0
59,39.6069237375,39.8700817375,71.0,90.0
60,40.0016607375,40.8273189625,71.0,90.0
61,41.1858717375,41.2944244125,62.0,90.0
62,41.3832402375,41.5082402875,62.0,90.0
63,41.5806087375,41.7878456625,67.0,90.0
64,41.9753457375,42.1398194875,67.0,90.0
65,42.3700827375,42.7746881625,67.0,90.0
66,42.7648197375,42.7746881625,67.0,90.0
67,43.1595567375,43.5411358375,67.0,90.0
68,43.554293737500004,44.174359775,64.0,90.0
69,44.3437677375,44.45396515,62.0,90.0
70,44.5411362375,44.6431099625,62.0,90.0
71,44.7385047375,44.9885048375,67.0,90.0
72,45.1332417375,45.4737024,67.0,90.0
73,45.5279787375,45.9029788875,67.0,90.0
74,45.9227157375,46.0740315875,62.0,90.0
75,46.3174527375,46.766466075000004,62.0,90.0
76,46.7121897375,47.213834675,69.0,90.0
77,47.5016637375,47.595413775,62.0,90.0
78,47.6990322375,47.825677025,62.0,90.0
79,47.8964007375,48.0871902875,72.0,90.0
80,48.2911377375,48.6233747125,72.0,90.0
81,48.6858747375,48.8931116625,71.0,90.0
82,48.883243237500004,49.5378487625,72.0,90.0
83,49.4753487375,50.279625375,69.0,90.0
84,50.4621912375,50.5378491625,62.0,90.0
85,50.659559737500004,50.753309775,62.0,90.0
86,50.8569282375,50.9753493375,62.0,90.0
87,51.0542967375,51.4868627,67.0,90.0
88,51.6464022375,52.2779814375,69.0,90.0
89,52.2385077375,52.6431131625,71.0,90.0
90,52.6332447375,53.37502135,62.0,90.0
91,53.6200872375,53.7121925375,59.0,90.0
92,53.8174557375,53.9194294625,59.0,90.0
93,54.0148242375,54.1973901,59.0,90.0
94,54.212192737500004,54.61186395,67.0,90.0
95,54.6069297375,54.990153575,66.0,90.0
96,55.3964037375,55.8010091625,67.0,90.0
97,55.7911407375,56.687522675000004,59.0,90.0
98,56.9753517375,57.0773254625,59.0,90.0
99,57.1727202375,57.2845623875,59.0,90.0
100,57.3700887375,57.5181151125,69.0,90.0
101,57.7648257375,57.9950889875,69.0,90.0
102,57.9621942375,58.1069311375,67.0,90.0
103,58.1595627375,58.4885102375,69.0,90.0
104,58.5542997375,58.694102425000004,67.0,90.0
105,58.7516682375,58.99344465,69.0,90.0
106,58.9490367375,58.99344465,69.0,90.0
107,60.1332477375,60.2286425125,66.0,90.0
108,60.3306162375,60.4342347,66.0,90.0
109,60.5279847375,60.65134005,74.0,90.0
110,60.9227217375,61.042787575,74.0,90.0
111,61.3174587375,61.4161429875,74.0,90.0
112,61.712195737500004,61.7845641875,74.0,90.0
113,61.9095642375,62.0148274375,74.0,90.0
114,62.1069327375,62.6069329375,71.0,90.0
115,62.6990382375,63.305946375,69.0,90.0
116,63.2911437375,63.38818325,66.0,90.0
117,63.488512237500004,63.6069333375,66.0,90.0
118,63.6858807375,64.2746967625,74.0,90.0
119,64.2779862375,64.470420525,71.0,90.0
120,64.8700917375,65.2352234625,71.0,90.0
121,65.0674602375,65.4342367,69.0,90.0
122,65.2648287375,66.055947475,71.0,90.0
123,66.84377673750001,67.40134275,76.0,90.0
124,67.4358822375,67.75660605,71.0,90.0
125,68.0279877375,68.23029045,71.0,90.0
126,68.2187772875,68.42108,69.0,90.0
127,68.4227247375,68.7895012,71.0,90.0
128,68.7681196125,69.36515932500001,67.0,90.0
129,69.6069357375,69.7023305125,62.0,90.0
130,69.8043042375,69.917791125,62.0,90.0
131,70.0016727375,70.1891728125,67.0,90.0
132,70.3964097375,70.4654887125,67.0,90.0
133,70.5937782375,70.6694361625,67.0,90.0
134,70.7911467375,70.898054675,67.0,90.0
135,71.1858837375,71.253317975,67.0,90.0
136,71.3832522375,71.45397595,67.0,90.0
137,71.5806207375,71.8766734875,67.0,90.0
138,71.9753577375,72.3668052625,64.0,90.0
139,72.7648317375,72.8684502,62.0,87.0
140,72.9622002375,73.095423975,62.0,87.0
141,73.1595687375,73.3503582875,71.0,87.0
142,73.5543057375,73.6990426375,71.0,87.0
143,73.9490427375,74.0312796125,71.0,87.0
144,74.1464112375,74.5444377125,71.0,87.0
145,74.5411482375,74.7483851625,72.0,87.0
146,74.7385167375,75.0872010875,74.0,87.0
147,75.1332537375,75.93588563750001,69.0,87.0
148,75.9227277375,76.2187804875,62.0,87.0
149,76.3174647375,76.957267625,74.0,87.0
150,76.9095702375,77.325688825,71.0,87.0
151,77.5016757375,77.8075969125,71.0,87.0
152,77.8404916625,78.1464128375,69.0,87.0
153,78.233583925,79.023057925,71.0,87.0
154,79.4753607375,80.0345714875,76.0,87.0
155,80.0674662375,80.4819400875,71.0,87.0
156,80.6595717375,80.8552955,71.0,87.0
157,80.8569402375,81.05266400000001,69.0,87.0
158,81.0543087375,81.5526642,71.0,87.0
159,81.51319050000001,82.1431249625,67.0,87.0
160,82.2385197375,82.345427675,62.0,87.0
161,82.4358882375,82.549375125,62.0,87.0
162,82.6332567375,82.92766475,67.0,87.0
163,82.9523358125,83.0658227,67.0,87.0
164,83.4227307375,83.5789808,67.0,87.0
165,83.6200992375,83.7763493,67.0,87.0
166,84.0148362375,84.154638925,67.0,87.0
167,84.2122047375,84.516481175,67.0,87.0
168,84.6069417375,84.9983892625,64.0,87.0
169,85.3964157375,85.4868763,62.0,87.0
170,85.5937842375,85.7122053375,62.0,87.0
171,85.7911527375,86.0608896875,71.0,87.0
172,86.1858897375,86.447403,71.0,87.0
173,86.5806267375,86.7122057375,71.0,87.0
174,86.77799523750001,87.17766645,71.0,87.0
175,87.1727322375,87.3602323125,72.0,87.0
176,87.3701007375,87.7089166625,74.0,87.0
177,87.7648377375,88.9687855875,69.0,87.0
178,89.7385227375,90.1562860625,71.0,87.0
179,90.1332597375,90.5312862125,69.0,87.0
180,90.5279967375,91.1135232875,71.0,87.0
181,91.1201022375,92.8108923875,67.0,87.0
182,93.6858927375,94.0773402625,67.0,87.0
183,94.0806297375,94.47207726250001,69.0,87.0
184,94.4753667375,94.7253668375,71.0,87.0
185,94.8701037375,96.4062885625,71.0,87.0
186,96.4490517375,96.55102546250001,62.0,87.0
187,96.6464202375,96.8404992625,62.0,87.0
188,96.8437887375,97.095433575,67.0,87.0
189,97.2385257375,97.4326047625,67.0,87.0
190,97.6332627375,97.80924965,67.0,87.0
191,97.8306312375,98.02471026250001,67.0,87.0
192,98.0279997375,99.1316186,64.0,87.0
193,99.60694773750001,99.70398725,62.0,87.0
194,99.8043162375,99.92767155,62.0,87.0
195,100.0016847375,100.2155006125,67.0,87.0
196,100.3964217375,100.7615534625,67.0,87.0
197,100.7911587375,101.184251,69.0,87.0
198,101.1858957375,101.4852379625,62.0,87.0
199,101.5806327375,102.3668172625,69.0,87.0
200,102.7648437375,102.8602385125,62.0,87.0
201,102.9622122375,103.11188335,62.0,87.0
202,103.15958073750001,103.5395151,72.0,87.0
203,103.5543177375,104.2155022125,71.0,87.0
204,104.3437917375,104.7253708375,71.0,87.0
205,104.7385287375,105.5247132625,69.0,87.0
206,105.7253712375,105.819121275,62.0,87.0
207,105.9227397375,106.0263582,62.0,87.0
208,106.1201082375,106.2352398625,62.0,87.0
209,106.3174767375,106.6957663625,67.0,87.0
210,106.9095822375,107.30102976250001,69.0,87.0
211,107.5016877375,107.8931352625,71.0,87.0
212,107.8964247375,108.8799777625,62.0,87.0
213,108.88326723750001,108.98030675,59.0,87.0
214,109.0806357375,109.17767525000001,59.0,87.0
215,109.2780042375,109.4326095625,59.0,87.0
216,109.4753727375,109.792807075,66.0,87.0
217,109.8701097375,110.2615572625,64.0,87.0
218,110.26484673750001,110.6562942625,66.0,87.0
219,110.6595837375,111.8405052625,59.0,87.0
220,112.2385317375,112.30925545,59.0,87.0
221,112.43590023750001,112.5345844875,59.0,87.0
222,112.6332687375,112.7582687875,69.0,87.0
223,113.0280057375,113.2122163375,69.0,87.0
224,113.4227427375,113.536229625,69.0,87.0
225,113.6201112375,113.70399285,69.0,87.0
226,113.81747973750001,113.9556376875,67.0,87.0
227,114.0148482375,114.22208516250001,71.0,87.0
228,114.2122167375,115.000046,69.0,87.0
229,115.3964277375,115.4819540875,66.0,87.0
230,115.5937962375,115.7023489125,66.0,87.0
231,115.7911647375,115.9655069125,74.0,87.0
232,116.1859017375,116.325704425,74.0,87.0
233,116.5806387375,116.66452035,74.0,87.0
234,116.7780072375,116.9359020375,74.0,87.0
235,117.1727442375,117.25662585,74.0,87.0
236,117.37011273750001,117.75662605000001,71.0,87.0
237,117.7648497375,118.490178975,69.0,87.0
238,118.5543237375,118.87504755,62.0,87.0
239,118.9490607375,119.5839294125,67.0,87.0
240,119.54116623750001,120.121758575,69.0,87.0
241,120.1332717375,120.3964297375,71.0,87.0
242,120.5280087375,121.3536669625,71.0,87.0
243,121.7122197375,121.8207724125,62.0,87.0
244,121.9095882375,122.0345882875,62.0,87.0
245,122.1069567375,122.3141936625,67.0,87.0
246,122.5016937375,122.6661674875,67.0,87.0
247,122.6990622375,123.0115623625,67.0,87.0
248,123.09379923750001,123.24182561250001,67.0,87.0
249,123.2911677375,123.62669418750001,67.0,87.0
250,123.6859047375,124.4622208375,64.0,87.0
251,124.8701157375,124.98031315,62.0,87.0
252,125.0674842375,125.1694579625,62.0,87.0
253,125.26485273750001,125.5148528375,67.0,87.0
254,125.6595897375,126.0000504,67.0,87.0
255,126.0543267375,126.4293268875,67.0,87.0
256,126.4490637375,126.6003795875,67.0,87.0
257,126.64643223750001,126.8405112625,62.0,87.0
258,126.8438007375,127.6299852625,69.0,87.0
259,128.0280117375,128.2220907625,62.0,87.0
260,128.2253802375,128.352025025,62.0,87.0
261,128.4227487375,128.6135382875,72.0,87.0
262,128.8174857375,129.1497227125,71.0,87.0
263,129.6069597375,129.9984072625,72.0,87.0
264,130.0016967375,130.805973375,69.0,87.0
265,130.9885392375,131.0641971625,62.0,87.0
266,131.1859077375,131.279657775,62.0,87.0
267,131.3832762375,131.5016973375,62.0,87.0
268,131.5806447375,132.0132107,67.0,87.0
269,132.1727502375,132.8043294375,69.0,87.0
270,132.7648557375,133.1694611625,71.0,87.0
271,133.1595927375,133.1694611625,71.0,87.0
272,134.14643523750001,134.2385405375,59.0,87.0
273,134.3438037375,134.4457774625,59.0,87.0
274,134.5411722375,134.7237381,59.0,87.0
275,134.7385407375,135.13821195,67.0,87.0
276,135.1332777375,135.516501575,66.0,87.0
277,135.5280147375,135.9326201625,67.0,87.0
278,135.9227517375,136.819133675,59.0,87.0
279,137.5016997375,137.6036734625,59.0,87.0
280,137.6990682375,137.8109103875,59.0,87.0
281,137.8964367375,138.0444631125,69.0,87.0
282,138.2911737375,138.5214369875,69.0,87.0
283,138.6859107375,138.8799897625,69.0,87.0
284,138.8832792375,139.1892004125,69.0,87.0
285,139.2780162375,139.51979265,69.0,87.0
286,139.4753847375,139.51979265,69.0,87.0
287,139.8701217375,140.25827978750002,69.0,87.0
288,140.6595957375,140.7549905125,66.0,87.0
289,140.8569642375,140.9605827,66.0,87.0
290,141.0543327375,141.17768805,74.0,87.0
291,141.4490697375,141.569135575,74.0,87.0
292,141.8438067375,141.9424909875,74.0,87.0
293,142.2385437375,142.3109121875,74.0,87.0
294,142.4359122375,142.54117543750002,74.0,87.0
295,142.6332807375,143.1332809375,71.0,87.0
296,143.2253862375,143.832294375,69.0,87.0
297,143.8174917375,144.2089392625,62.0,87.0
298,144.2122287375,144.8010447625,74.0,87.0
299,144.8043342375,144.996768525,71.0,87.0
300,145.3964397375,145.7615714625,71.0,87.0
301,145.7911767375,146.184269,69.0,87.0
302,146.1859137375,146.5806507375,71.0,87.0
303,147.3701247375,147.92769075,76.0,87.0
304,147.9622302375,148.1563092625,71.0,87.0
305,148.5543357375,148.75663845,71.0,87.0
306,148.7517042375,148.95400695,69.0,87.0
307,148.9490727375,149.358612375,71.0,87.0
308,149.3438097375,149.8142046625,67.0,87.0
309,150.1332837375,150.5247312625,62.0,87.0
310,150.52802073750001,150.7155208125,67.0,87.0
311,150.9227577375,150.9918367125,67.0,87.0
312,151.1201262375,151.1957841625,67.0,87.0
313,151.3174947375,151.424402675,67.0,87.0
314,151.7122317375,151.779665975,67.0,87.0
315,151.9096002375,151.98032395,67.0,87.0
316,152.1069687375,152.4030214875,66.0,87.0
317,152.5017057375,152.8931532625,64.0,87.0
318,153.2911797375,153.3947982,62.0,87.0
319,153.4885482375,153.621771975,62.0,87.0
320,153.6859167375,153.8767062875,71.0,87.0
321,154.0806537375,154.1447985,71.0,87.0
322,154.2780222375,154.3602591125,71.0,87.0
323,154.4753907375,154.87341721250002,71.0,87.0
324,154.8701277375,155.2615752625,76.0,87.0
325,155.2517068375,155.6003911875,75.0,87.0
326,155.8569702375,156.5313126125,69.0,87.0
327,156.4490757375,156.7451284875,62.0,87.0
328,156.8438127375,157.483615625,74.0,87.0
329,157.4359182375,157.6299972625,71.0,87.0
330,158.0280237375,158.2632212,71.0,87.0
331,158.19085275,158.3997344125,69.0,87.0
332,158.4227607375,159.2122347375,71.0,87.0
333,160.0017087375,160.5609194875,76.0,87.0
334,160.5938142375,161.174406575,72.0,87.0
335,161.1859197375,161.3816435,72.0,87.0
336,161.3832882375,161.5609198875,71.0,87.0
337,161.5806567375,161.911248975,72.0,87.0
338,161.9753937375,162.7188150875,69.0,87.0
339,162.7648677375,162.871775675,62.0,87.0
340,162.9622362375,163.075723125,62.0,87.0
341,163.1596047375,163.3536837625,67.0,85.0
342,163.5543417375,163.67769705,67.0,85.0
343,163.9490787375,164.1053288,66.0,85.0
344,164.161249875,164.3026973,67.0,85.0
345,164.5411842375,164.680986925,67.0,85.0
346,164.73855273750002,165.042829175,67.0,85.0
347,165.1332897375,165.5247372625,64.0,85.0
348,165.9227637375,166.0132243,62.0,85.0
349,165.9227637375,166.0132243,62.0,85.0
350,166.1201322375,166.2385533375,62.0,85.0
351,166.1201322375,166.2385533375,62.0,85.0
352,166.3175007375,166.4523692125,70.0,85.0
353,166.7122377375,166.8207904125,70.0,85.0
354,167.1069747375,167.2632248,70.0,85.0
355,167.3043432375,167.549409125,70.0,85.0
356,167.6990802375,167.891514525,73.0,85.0
357,167.8964487375,168.4786858125,74.0,85.0
358,168.4885542375,169.42769935,69.0,83.0
359,171.84381873750002,171.90138455,71.0,83.0
360,171.84381873750002,171.90138455,71.0,83.0
361,172.23033205000002,172.631648,69.0,83.0
362,172.59875325000002,173.595464175,71.0,83.0
363,173.4227667375,173.819148475,69.0,83.0
364,173.8175037375,175.3635569875,67.0,83.0
365,186.8438247375,187.1859301375,67.0,83.0
366,187.2385617375,187.62507505,69.0,83.0
367,187.6990882375,188.0017199375,71.0,83.0
368,188.0938252375,188.7500755,71.0,83.0
369,189.6069837375,189.868497,62.0,83.0
370,190.0017207375,190.3536945625,67.0,83.0
371,190.4622472375,190.621786775,67.0,83.0
372,190.8898789875,191.4819844875,67.0,83.0
373,191.5806687375,191.9030372875,67.0,83.0
374,191.7780372375,192.236919,64.0,83.0
375,193.08395881250001,193.23198518750002,62.0,83.0
376,193.2911957375,193.463893175,62.0,83.0
377,193.48856423750001,193.6892222125,67.0,83.0
378,193.9030380875,194.4474462,67.0,83.0
379,194.342183,194.4474462,67.0,83.0
380,194.7517226375,195.023104325,62.0,83.0
381,195.29613075,195.6711309,69.0,83.0
382,196.74349975,196.8339603125,62.0,83.0
383,196.94086825,197.128368325,62.0,83.0
384,197.13823675,197.53297375,72.0,83.0
385,197.53297375,198.4342899,71.0,83.0
386,198.40139515,198.792842675,69.0,83.0
387,198.8306716375,199.9852773625,62.0,83.0
388,200.0675142375,200.1661984875,62.0,83.0
389,200.2648827375,200.42771175000001,62.0,83.0
390,200.4819880875,200.6448171,62.0,83.0
391,200.6596197375,201.1760673125,67.0,83.0
392,201.1530409875,201.654685925,69.0,83.0
393,201.9754097375,202.36027831250001,71.0,83.0
394,202.3701467375,203.3833050375,62.0,83.0
395,203.6201472375,203.7056735875,59.0,83.0
396,203.8175157375,203.94087105,59.0,83.0
397,204.0148842375,204.3569896375,66.0,83.0
398,204.4754107375,204.79120033750002,66.0,83.0
399,204.8701477375,205.39810847500002,67.0,83.0
400,205.4293584875,205.71225333750002,66.0,83.0
401,205.7254112375,206.7122537375,59.0,83.0
402,207.07409598750002,207.1793591875,59.0,83.0
403,207.2714644875,207.3997540125,59.0,83.0
404,207.4688329875,207.6694909625,69.0,83.0
405,207.9293594875,208.21718855,69.0,83.0
406,208.1267279875,208.4129123125,67.0,83.0
407,208.32409648750001,208.681004525,69.0,83.0
408,208.7188334875,209.0083072875,67.0,83.0
409,208.9162019875,209.213899475,69.0,83.0
410,209.3109389875,210.3043604375,69.0,83.0
411,210.5938342375,210.713900075,66.0,83.0
412,210.79120273750002,210.944163325,66.0,83.0
413,211.1859397375,211.5017293375,74.0,83.0
414,211.5806767375,211.8767294875,74.0,83.0
415,212.1727822375,212.404690225,74.0,83.0
416,212.5675192375,213.0395589,74.0,83.0
417,212.9721246625,213.444164325,71.0,83.0
418,213.40140115,216.4721260625,69.0,83.0
419,217.4359422375,218.8421928,71.0,83.0
420,218.81752173750002,219.42442987500002,69.0,83.0
421,219.4162061875,222.236931,67.0,83.0
