,start,end,pitch,velocity
0,15.993936152083332,16.477806652083334,73.0,86.0
1,16.477806652083334,17.302402629166664,75.0,87.0
2,17.44554765208333,17.743934460416664,82.0,86.0
3,17.929418152083333,18.076595429166666,75.0,93.0
4,18.171353402083334,18.282240391666665,73.0,84.0
5,18.41328865208333,18.530224022916666,75.0,89.0
6,18.655223902083332,18.792320543749998,73.0,83.0
7,18.897159152083333,19.221755612499997,75.0,91.0
8,19.38102965208333,19.68949709583333,73.0,85.0
9,19.864900152083333,20.20764175625,73.0,84.0
10,20.34877065208333,20.643125206249998,70.0,84.0
11,20.832641152083333,21.167318247916665,73.0,84.0
12,21.31651165208333,21.598769443749998,70.0,83.0
13,21.800382152083333,21.921349777083332,68.0,82.0
14,22.04231740208333,22.157236645833333,70.0,83.0
15,22.28425265208333,22.435462183333332,68.0,82.0
16,22.526187902083333,22.673365179166666,70.0,84.0
17,22.768123152083334,23.17134856875,73.0,82.0
18,23.251993652083332,23.653202941666667,70.0,84.0
19,23.735864152083334,24.217718525,73.0,84.0
20,24.219734652083332,24.874975954166665,75.0,83.0
21,25.187475652083332,25.53828176458333,82.0,83.0
22,25.67134615208333,25.800378285416667,75.0,93.0
23,25.91328140208333,26.0322329,73.0,82.0
24,26.155216652083332,26.30441005625,75.0,89.0
25,26.397151902083333,26.530216289583333,73.0,84.0
26,26.63908715208333,26.995941645833334,75.0,91.0
27,27.122957652083333,27.520134687499997,73.0,84.0
28,27.60682815208333,28.050376110416664,73.0,83.0
29,28.090698652083333,28.393117714583333,70.0,83.0
30,28.57456915208333,29.006020347916664,73.0,83.0
31,29.058439652083333,29.320536172916665,70.0,84.0
32,29.54231015208333,29.66327777708333,68.0,83.0
33,29.784245402083332,29.889084010416664,70.0,84.0
34,30.026180652083333,30.16327729375,68.0,84.0
35,30.26811590208333,30.401180289583333,70.0,86.0
36,30.51005115208333,30.870937899999998,75.0,89.0
37,30.993921652083333,31.43343735625,73.0,83.0
38,31.47779215208333,32.60279106458333,78.0,78.0
39,33.171338902083335,33.32859681458333,73.0,80.0
40,33.41327415208333,33.56448368333333,75.0,88.0
41,33.65520940208333,33.802386679166666,73.0,82.0
42,33.897144652083334,34.068515454166665,75.0,88.0
43,34.13907990208333,34.28625717916667,73.0,83.0
44,34.38101515208333,34.85480501666667,75.0,87.0
45,34.86488565208333,35.31448199166667,82.0,77.0
46,35.34875615208333,36.29230362708333,78.0,84.0
47,37.04230290208333,37.189480179166665,73.0,82.0
48,37.28423815208333,37.45964120833333,75.0,89.0
49,37.52617340208333,37.71367322083333,73.0,83.0
50,37.768108652083335,37.99996326666666,75.0,85.0
51,38.01004390208333,38.28826943958333,73.0,79.0
52,38.25197915208333,38.71568838125,75.0,86.0
53,38.73584965208333,39.205607262499996,82.0,85.0
54,39.21972015208333,40.30238039583333,78.0,86.0
55,40.91326690208333,41.074557068749996,73.0,83.0
56,41.15520215208333,41.324556827083335,75.0,89.0
57,41.39713740208333,41.54431467916667,73.0,80.0
58,41.63907265208333,41.8427014875,75.0,89.0
59,41.88100790208333,42.01810454375,73.0,82.0
60,42.12294315208333,42.55439434791666,75.0,87.0
61,42.60681365208333,43.062458372916666,78.0,84.0
62,43.090684152083334,43.53423211041667,75.0,88.0
63,43.57455465208333,43.854796316666665,73.0,83.0
64,44.05842515208333,44.50802149166667,75.0,86.0
65,44.54229565208333,44.830601824999995,73.0,83.0
66,45.026166152083334,45.15923053958333,70.0,82.0
67,45.26810140208333,45.38906902708333,73.0,79.0
68,45.51003665208333,45.66326231041666,73.0,81.0
69,45.75197190208333,45.88906854375,73.0,83.0
70,45.99390715208333,46.38906806041666,78.0,86.0
71,46.47777765208333,46.76003544375,73.0,83.0
72,46.96164815208333,47.465679922916664,85.0,84.0
73,47.44551865208333,47.67737326666666,87.0,82.0
74,47.687453902083334,48.465678956249995,85.0,87.0
75,48.89713015208333,49.21971048541666,87.0,83.0
76,49.38100065208333,49.663258443749996,85.0,86.0
77,49.86487115208333,50.63099944375,82.0,86.0
78,50.83261215208333,51.215676297916666,82.0,82.0
79,51.31648265208333,51.62091784166667,85.0,89.0
80,51.80035315208333,52.29027203333333,80.0,83.0
81,52.76809415208333,52.95357784375,80.0,83.0
82,53.01002940208333,53.16123893333333,78.0,77.0
83,53.25196465208333,53.586641747916666,80.0,84.0
84,53.73583515208333,54.512044079166664,85.0,84.0
85,54.70357615208333,55.11083382291666,85.0,84.0
86,55.18744665208333,55.576559179166665,87.0,83.0
87,55.67131715208333,56.43744544374999,85.0,84.0
88,56.63905815208333,56.94954172291666,87.0,85.0
89,57.12292865208333,57.34671875833333,82.0,83.0
90,57.36486390208333,57.61284753333333,85.0,83.0
91,57.60679915208333,58.395104841666665,82.0,84.0
92,58.57454015208333,58.935426899999996,82.0,83.0
93,59.05841065208333,59.411232891666664,85.0,93.0
94,59.54228115208333,60.318490079166665,80.0,83.0
95,60.51002215208333,60.689457462499995,80.0,82.0
96,60.75195740208333,60.913247568749995,78.0,82.0
97,60.99389265208333,61.10679576875,80.0,83.0
98,61.23582790208333,61.491876041666664,80.0,80.0
99,61.47776315208333,62.20356890208333,85.0,85.0
100,62.44550415208333,62.85276182291666,85.0,84.0
101,62.92937465208333,63.31848717916667,87.0,83.0
102,63.41324515208333,64.17937344375,85.0,84.0
103,64.38098615208332,64.69146972291666,87.0,85.0
104,64.86485665208333,65.35477553333332,85.0,83.0
105,65.34872715208333,66.13703284166667,82.0,84.0
106,66.31646815208333,66.6773549,82.0,83.0
107,66.80033865208333,67.15316089166666,85.0,93.0
108,67.28420915208333,68.06041807916667,80.0,83.0
109,68.25195015208332,68.4313854625,80.0,82.0
110,68.49388540208334,68.65517556875,78.0,82.0
111,68.73582065208333,68.84872376874999,80.0,83.0
112,68.97775590208333,69.23380404166666,80.0,80.0
113,69.21969115208333,69.94549690208333,85.0,85.0
114,70.18743215208333,70.66928652499999,85.0,88.0
115,70.67130265208333,70.92936691874999,87.0,86.0
116,70.91323790208332,71.85880150416666,85.0,84.0
117,72.12291415208333,72.46162350208333,87.0,84.0
118,72.60678465208333,72.99388105208332,85.0,86.0
119,73.09065515208333,73.83662217291666,82.0,83.0
120,74.05839615208333,74.37694423125,82.0,83.0
121,74.54226665208333,74.81242768125,85.0,89.0
122,75.02613715208332,75.74992677499999,80.0,84.0
123,75.99387815208333,76.22976502083333,80.0,80.0
124,76.23581340208332,76.36887778958332,78.0,77.0
125,76.47774865208333,76.96363527916667,80.0,85.0
126,76.96161915208333,77.92936015208333,85.0,83.0
127,77.92936015208333,80.52411570833333,75.0,86.0
128,80.83258315208333,81.3265342875,87.0,83.0
129,81.31645365208333,81.8587918375,85.0,84.0
130,82.28419465208333,84.24185405,73.0,82.0
131,85.67128815208333,86.4313680625,78.0,83.0
132,86.63902915208332,87.45354449375,78.0,83.0
133,87.60677015208333,88.01806007708333,77.0,85.0
134,88.09064065208332,88.40918873125,77.0,85.0
135,88.57451115208333,88.72168842916666,75.0,88.0
136,88.81644640208333,88.94749466249999,73.0,84.0
137,89.05838165208333,89.2257202,75.0,84.0
138,89.30031690208332,89.42934903541666,73.0,83.0
139,89.54225215208334,90.32249333333333,70.0,82.0
140,90.26805790208333,92.24386244374999,73.0,75.0
141,93.41321615208332,94.09668323333332,78.0,84.0
142,94.38095715208333,95.15918220625,78.0,83.0
143,95.34869815208333,95.70555264583332,77.0,84.0
144,95.83256865208332,96.18740701875,77.0,83.0
145,96.31643915208333,96.48780995416666,75.0,84.0
146,96.55837440208333,96.68539040833333,73.0,74.0
147,96.80030965208333,96.92530953125,75.0,86.0
148,97.04224490208333,97.19345443333333,73.0,83.0
149,97.28418015208332,97.8386151,70.0,83.0
150,98.00998590208333,100.31643528541666,73.0,85.0
151,101.15514415208332,101.34264397083332,78.0,79.0
152,101.39707940208332,101.67732106666666,80.0,77.0
153,101.88094990208333,102.03820781458333,78.0,84.0
154,102.12288515208333,102.4837719,75.0,84.0
155,102.60675565208332,102.94143274791666,78.0,83.0
156,103.09062615208333,104.00998010208333,80.0,81.0
157,105.02610815208332,105.24586600416666,75.0,88.0
158,105.26804340208332,105.56239795625,73.0,83.0
159,105.75191390208333,105.9555427375,75.0,86.0
160,105.99384915208333,106.3184456125,78.0,82.0
161,106.47771965208332,106.93336437291666,75.0,85.0
162,106.96159015208333,109.69344235,70.0,83.0
163,124.38092815208333,124.86479865208332,73.0,86.0
164,124.86479865208332,125.68939462916666,75.0,87.0
165,125.83253965208333,126.13092646041666,82.0,86.0
166,126.31641015208332,126.46358742916667,75.0,93.0
167,126.55834540208333,126.66923239166665,73.0,84.0
168,126.80028065208333,126.91721602291666,75.0,89.0
169,127.04221590208333,127.17931254374999,73.0,83.0
170,127.28415115208333,127.6087476125,75.0,91.0
171,127.76802165208332,128.07648909583332,73.0,85.0
172,128.25189215208331,128.59463375625,73.0,84.0
173,128.73576265208334,129.03011720625,70.0,84.0
174,129.21963315208333,129.55431024791665,73.0,84.0
175,129.70350365208333,129.98576144375,70.0,83.0
176,130.18737415208332,130.3083417770833,68.0,82.0
177,130.42930940208333,130.54422864583333,70.0,83.0
178,130.67124465208332,130.82245418333332,68.0,82.0
179,130.91317990208333,131.06035717916666,70.0,84.0
180,131.15511515208334,131.55834056875,73.0,82.0
181,131.63898565208333,132.04019494166667,70.0,84.0
182,132.12285615208333,132.604710525,73.0,84.0
183,132.60672665208332,133.26196795416666,75.0,83.0
184,133.5744676520833,133.92527376458332,82.0,83.0
185,134.05833815208334,134.18737028541665,75.0,93.0
186,134.30027340208332,134.4192249,73.0,82.0
187,134.54220865208333,134.69140205624998,75.0,89.0
188,134.78414390208331,134.91720828958333,73.0,84.0
189,135.02607915208333,135.38293364583333,75.0,91.0
190,135.50994965208332,135.90712668749998,73.0,84.0
191,135.99382015208332,136.43736811041666,73.0,83.0
192,136.47769065208334,136.78010971458332,70.0,83.0
193,136.96156115208333,137.39301234791665,73.0,83.0
194,137.44543165208333,137.70752817291665,70.0,84.0
195,137.92930215208332,138.05026977708332,68.0,83.0
196,138.17123740208334,138.27607601041666,70.0,84.0
197,138.41317265208332,138.55026929375,68.0,84.0
198,138.65510790208333,138.78817228958331,70.0,86.0
199,138.8970431520833,139.2579299,75.0,89.0
200,139.38091365208334,139.82042935625,73.0,83.0
201,139.86478415208333,140.98978306458332,78.0,78.0
202,141.55833090208333,141.71558881458333,73.0,80.0
203,141.80026615208334,141.9514756833333,75.0,88.0
204,142.04220140208332,142.18937867916665,73.0,82.0
205,142.28413665208333,142.45550745416665,75.0,88.0
206,142.52607190208332,142.67324917916665,73.0,83.0
207,142.76800715208333,143.24179701666665,75.0,87.0
208,143.25187765208332,143.70147399166666,82.0,77.0
209,143.73574815208332,144.67929562708332,78.0,84.0
210,145.4292949020833,145.57647217916667,73.0,82.0
211,145.67123015208333,145.84663320833332,75.0,89.0
212,145.91316540208334,146.10066522083332,73.0,83.0
213,146.15510065208332,146.38695526666666,75.0,85.0
214,146.39703590208333,146.67526143958332,73.0,79.0
215,146.63897115208331,147.10268038125,75.0,86.0
216,147.12284165208334,147.5925992625,82.0,85.0
217,147.60671215208333,148.68937239583332,78.0,86.0
218,149.30025890208333,149.46154906875,73.0,83.0
219,149.5421941520833,149.71154882708333,75.0,89.0
220,149.78412940208332,149.93130667916665,73.0,80.0
221,150.02606465208333,150.2296934875,75.0,89.0
222,150.26799990208332,150.40509654375,73.0,82.0
223,150.50993515208333,150.94138634791665,75.0,87.0
224,150.99380565208332,151.44945037291666,78.0,84.0
225,151.47767615208332,151.92122411041666,75.0,88.0
226,151.9615466520833,152.24178831666666,73.0,83.0
227,152.44541715208334,152.89501349166665,75.0,86.0
228,152.92928765208333,153.217593825,73.0,83.0
229,153.41315815208333,153.5462225395833,70.0,82.0
230,153.65509340208334,153.77606102708333,73.0,79.0
231,153.89702865208332,154.05025431041665,73.0,81.0
232,154.13896390208333,154.27606054375,73.0,83.0
233,154.38089915208332,154.77606006041665,78.0,86.0
234,154.86476965208334,155.14702744375,73.0,83.0
235,155.34864015208333,155.85267192291667,85.0,84.0
236,155.83251065208333,156.06436526666667,87.0,82.0
237,156.0744459020833,156.85267095625,85.0,87.0
238,157.2841221520833,157.60670248541666,87.0,83.0
239,157.76799265208334,158.05025044375,85.0,86.0
240,158.25186315208333,159.01799144375,82.0,86.0
241,159.21960415208332,159.60266829791667,82.0,82.0
242,159.70347465208332,160.00790984166665,85.0,89.0
243,160.18734515208334,160.67726403333333,80.0,83.0
244,161.15508615208333,161.34056984375,80.0,83.0
245,161.3970214020833,161.54823093333331,78.0,77.0
246,161.63895665208332,161.97363374791667,80.0,84.0
247,162.12282715208332,162.89903607916665,85.0,84.0
248,163.09056815208334,163.49782582291667,85.0,84.0
249,163.57443865208333,163.96355117916667,87.0,83.0
250,164.05830915208332,164.82443744374999,85.0,84.0
251,165.02605015208331,165.33653372291667,87.0,85.0
252,165.50992065208334,165.73371075833333,82.0,83.0
253,165.75185590208332,165.99983953333333,85.0,83.0
254,165.99379115208333,166.78209684166666,82.0,84.0
255,166.96153215208332,167.3224189,82.0,83.0
256,167.44540265208332,167.79822489166665,85.0,93.0
257,167.9292731520833,168.70548207916667,80.0,83.0
258,168.89701415208333,169.0764494625,80.0,82.0
259,169.1389494020833,169.30023956875,78.0,82.0
260,169.38088465208332,169.49378776875,80.0,83.0
261,169.62281990208334,169.87886804166666,80.0,80.0
262,169.86475515208332,170.59056090208333,85.0,85.0
263,170.83249615208334,171.23975382291667,85.0,84.0
264,171.31636665208333,171.70547917916664,87.0,83.0
265,171.80023715208333,172.56636544375,85.0,84.0
266,172.76797815208332,173.07846172291667,87.0,85.0
267,173.2518486520833,173.74176753333333,85.0,83.0
268,173.73571915208333,174.52402484166666,82.0,84.0
269,174.70346015208332,175.0643469,82.0,83.0
270,175.18733065208332,175.54015289166665,85.0,93.0
271,175.6712011520833,176.44741007916664,80.0,83.0
272,176.63894215208333,176.8183774625,80.0,82.0
273,176.8808774020833,177.04216756875,78.0,82.0
274,177.12281265208333,177.23571576875,80.0,83.0
275,177.36474790208334,177.62079604166667,80.0,80.0
276,177.60668315208332,178.33248890208333,85.0,85.0
277,178.5744241520833,179.05627852499998,85.0,88.0
278,179.05829465208333,179.31635891874998,87.0,86.0
279,179.30022990208332,180.24579350416667,85.0,84.0
280,180.50990615208332,180.84861550208333,87.0,84.0
281,180.9937766520833,181.38087305208333,85.0,86.0
282,181.47764715208334,182.22361417291665,82.0,83.0
283,182.44538815208332,182.76393623125,82.0,83.0
284,182.92925865208332,183.19941968125,85.0,89.0
285,183.41312915208331,184.136918775,80.0,84.0
286,184.38087015208333,184.61675702083332,80.0,80.0
287,184.62280540208332,184.75586978958333,78.0,77.0
288,184.86474065208333,185.35062727916664,80.0,85.0
289,185.34861115208332,186.3163521520833,85.0,83.0
290,186.3163521520833,188.91110770833333,75.0,86.0
291,189.21957515208334,189.7135262875,87.0,83.0
292,189.70344565208333,190.2457838375,85.0,84.0
293,190.67118665208332,192.62884605,73.0,82.0
294,194.0582801520833,194.81836006249998,78.0,83.0
295,195.02602115208333,195.84053649375,78.0,83.0
296,195.99376215208332,196.40505207708333,77.0,85.0
297,196.47763265208332,196.79618073125,77.0,85.0
298,196.9615031520833,197.10868042916667,75.0,88.0
299,197.20343840208332,197.33448666249998,73.0,84.0
300,197.44537365208333,197.61271219999998,75.0,84.0
301,197.68730890208332,197.81634103541666,73.0,83.0
302,197.92924415208333,198.70948533333333,70.0,82.0
303,198.65504990208333,200.63085444375,73.0,75.0
304,201.80020815208331,202.48367523333332,78.0,84.0
305,202.76794915208333,203.54617420625,78.0,83.0
306,203.73569015208332,204.09254464583333,77.0,84.0
307,204.21956065208332,204.57439901875,77.0,83.0
308,204.7034311520833,204.87480195416666,75.0,84.0
309,204.94536640208332,205.0723824083333,73.0,74.0
310,205.18730165208333,205.31230153125,75.0,86.0
311,205.42923690208332,205.58044643333332,73.0,83.0
312,205.67117215208333,206.2256071,70.0,83.0
313,206.39697790208334,208.70342728541667,73.0,85.0
314,209.54213615208332,209.72963597083333,78.0,79.0
315,209.78407140208333,210.06431306666664,80.0,77.0
316,210.26794190208332,210.42519981458332,78.0,84.0
317,210.50987715208333,210.8707639,75.0,84.0
318,210.99374765208333,211.32842474791664,78.0,83.0
319,211.47761815208332,212.3969721020833,80.0,81.0
320,213.41310015208333,213.63285800416665,75.0,88.0
321,213.6550354020833,213.94938995625,73.0,83.0
322,214.1389059020833,214.3425347375,75.0,86.0
323,214.38084115208332,214.7054376125,78.0,82.0
324,214.86471165208332,215.32035637291665,75.0,85.0
325,215.3485821520833,216.31632315208333,70.0,83.0
326,216.31632315208333,218.08043435,73.0,83.0
