,start,end,pitch,velocity
0,21.604145062500002,22.79442165,74.0,81.0
1,22.9374770625,23.2124767875,72.0,77.0
2,23.2708100625,23.5402542375,74.0,78.0
3,23.6041430625,24.23886465,72.0,76.0
4,24.2708090625,26.4555291,70.0,77.0
5,26.9374730625,27.618027937500003,72.0,78.0
6,27.6041390625,27.936083175,69.0,71.0
7,27.9374720625,28.259693962500002,72.0,77.0
8,28.270805062500003,28.9346932875,67.0,71.0
9,28.937471062500002,29.302748475,69.0,72.0
10,29.2708040625,29.586081525,67.0,68.0
11,29.6041370625,31.813857075,65.0,78.0
12,32.2708010625,32.5402452375,74.0,82.0
13,32.6041340625,33.1569112875,77.0,77.0
14,33.2708000625,33.4874665125,74.0,72.0
15,33.604133062500004,33.847188375,74.0,83.0
16,33.9374660625,34.2291324375,72.0,72.0
17,34.270799062500004,34.8569095875,70.0,79.0
18,34.9374650625,35.2332981,70.0,79.0
19,35.2707980625,35.9235751875,67.0,76.0
20,35.9374640625,36.3069081375,65.0,73.0
21,36.2707970625,37.434684787500004,67.0,76.0
22,37.6041290625,38.4180171375,70.0,78.0
23,38.6041280625,38.940238837500004,72.0,71.0
24,38.9374610625,39.6291270375,74.0,82.0
25,39.604127062500005,40.3291263375,77.0,76.0
26,40.270793062500005,40.6180149375,82.0,76.0
27,40.6041260625,41.188847700000004,79.0,76.0
28,41.1041255625,41.5291251375,77.0,71.0
29,41.6041250625,42.268013287500004,74.0,80.0
30,42.2707910625,42.6013462875,72.0,76.0
31,42.6041240625,42.947179275,74.0,76.0
32,42.9374570625,45.4888434,72.0,77.0
33,48.2707850625,49.461061650000005,74.0,81.0
34,49.6041170625,49.8791167875,72.0,77.0
35,49.937450062500005,50.2068942375,74.0,78.0
36,50.2707830625,50.905504650000005,72.0,76.0
37,50.9374490625,53.1221691,70.0,77.0
38,53.604113062500005,54.284667937500004,72.0,78.0
39,54.270779062500004,54.602723175,69.0,71.0
40,54.6041120625,54.9263339625,72.0,77.0
41,54.937445062500004,55.601333287500005,67.0,71.0
42,55.6041110625,55.969388475,69.0,72.0
43,55.9374440625,56.252721525000005,65.0,68.0
44,56.2707770625,58.480497075,67.0,78.0
45,58.9374410625,59.7999402,65.0,78.0
46,59.9374400625,60.21660645,67.0,75.0
47,60.270773062500005,60.811050300000005,70.0,76.0
48,60.937439062500005,61.502716275000004,72.0,77.0
49,61.604105062500004,62.1888267,74.0,78.0
50,62.2707710625,62.81660385,77.0,74.0
51,62.9374370625,63.247158975000005,72.0,65.0
52,63.270770062500006,63.5818808625,70.0,76.0
53,63.6041030625,64.180491375,67.0,76.0
54,64.27076906250001,65.0846571375,70.0,78.0
55,65.2707680625,65.6068788375,72.0,71.0
56,65.6041010625,66.2957670375,74.0,82.0
57,66.2707670625,66.9957663375,77.0,76.0
58,66.9374330625,67.28465493750001,82.0,76.0
59,67.2707660625,67.8554877,79.0,76.0
60,67.93743206250001,68.36243163750001,77.0,71.0
61,68.2707650625,68.9346532875,74.0,80.0
62,68.9374310625,69.26798628750001,72.0,76.0
63,69.2707640625,69.613819275,74.0,76.0
64,69.6040970625,72.15548340000001,77.0,77.0
65,74.9374250625,75.1540915125,79.0,79.0
66,75.27075806250001,75.9068685375,79.0,76.0
67,75.9374240625,76.29436815,77.0,77.0
68,76.27075706250001,76.6652011125,79.0,77.0
69,76.6040900625,77.0124229875,82.0,71.0
70,76.9374230625,77.27631161250001,79.0,76.0
71,77.2707560625,77.65408901250001,77.0,73.0
72,77.60408906250001,79.98325335,79.0,76.0
73,80.2707530625,80.6124193875,79.0,76.0
74,80.6040860625,80.947141275,82.0,74.0
75,80.9374190625,81.3290853375,79.0,77.0
76,81.27075206250001,81.63880725,82.0,71.0
77,81.6040850625,82.53880635,77.0,72.0
78,82.60408406250001,82.841583825,82.0,72.0
79,82.9374170625,83.5874164125,79.0,76.0
80,83.60408306250001,83.9443605,77.0,75.0
81,83.9374160625,84.2985268125,74.0,78.0
82,84.2707490625,85.47213675,72.0,77.0
83,85.6040810625,86.11796943750001,74.0,85.0
84,86.2707470625,87.53880135,74.0,80.0
85,87.6040790625,87.9651898125,77.0,75.0
86,87.9374120625,88.3110228,79.0,71.0
87,88.2707450625,88.9124110875,77.0,76.0
88,88.9374110625,89.30824402500001,74.0,77.0
89,89.2707440625,89.62907703750001,72.0,72.0
90,89.60407706250001,90.7790758875,70.0,74.0
91,90.93740906250001,91.8874081125,70.0,81.0
92,91.9374080625,92.26935217500001,72.0,73.0
93,92.27074106250001,93.3040733625,75.0,76.0
94,93.27074006250001,93.6568507875,74.0,75.0
95,93.6040730625,95.777682,72.0,73.0
96,96.2707370625,97.66518011250001,65.0,77.0
97,97.6040690625,98.6012902875,74.0,77.0
98,98.6040680625,98.9346232875,77.0,71.0
99,98.9374010625,99.3207340125,72.0,72.0
100,99.27073406250001,99.6568447875,74.0,76.0
101,99.60406706250001,99.9846222375,72.0,76.0
102,99.9374000625,100.2957330375,70.0,71.0
103,100.2707330625,100.6443438,67.0,72.0
104,100.60406606250001,101.00684343750001,70.0,64.0
105,100.9373990625,101.6012872875,67.0,69.0
106,101.6040650625,104.26795128750001,70.0,76.0
107,154.93734506250001,156.12762165,74.0,81.0
108,156.2706770625,156.5456767875,72.0,77.0
109,156.6040100625,156.8734542375,74.0,78.0
110,156.93734306250002,157.57206465000002,72.0,76.0
111,157.6040090625,159.7887291,70.0,77.0
112,160.2706730625,160.9512279375,72.0,78.0
113,160.9373390625,161.269283175,69.0,71.0
114,161.2706720625,161.5928939625,72.0,77.0
115,161.6040050625,162.26789328750002,67.0,71.0
116,162.2706710625,162.63594847500002,69.0,72.0
117,162.6040040625,162.919281525,67.0,68.0
118,162.9373370625,165.14705707500002,65.0,78.0
119,165.6040010625,165.8734452375,74.0,82.0
120,165.9373340625,166.4901112875,77.0,77.0
121,166.6040000625,166.8206665125,74.0,72.0
122,166.93733306250002,167.180388375,74.0,83.0
123,167.2706660625,167.5623324375,72.0,72.0
124,167.6039990625,168.19010958750002,70.0,79.0
125,168.2706650625,168.56649810000002,70.0,79.0
126,168.6039980625,169.2567751875,67.0,76.0
127,169.2706640625,169.6401081375,65.0,73.0
128,169.6039970625,170.7678847875,67.0,76.0
129,170.9373290625,171.75121713750002,70.0,78.0
130,171.9373280625,172.2734388375,72.0,71.0
131,172.2706610625,172.96232703750002,74.0,82.0
132,172.9373270625,173.66232633750002,77.0,76.0
133,173.6039930625,173.9512149375,82.0,76.0
134,173.9373260625,174.5220477,79.0,76.0
135,174.4373255625,174.8623251375,77.0,71.0
136,174.9373250625,175.6012132875,74.0,80.0
137,175.6039910625,175.9345462875,72.0,76.0
138,175.9373240625,176.280379275,74.0,76.0
139,176.27065706250002,178.8220434,72.0,77.0
140,181.60398506250002,182.79426165,74.0,81.0
141,182.9373170625,183.21231678750001,72.0,77.0
142,183.2706500625,183.5400942375,74.0,78.0
143,183.60398306250002,184.23870465000002,72.0,76.0
144,184.2706490625,186.4553691,70.0,77.0
145,186.9373130625,187.6178679375,72.0,78.0
146,187.6039790625,187.935923175,69.0,71.0
147,187.9373120625,188.2595339625,72.0,77.0
148,188.2706450625,188.93453328750002,67.0,71.0
149,188.93731106250002,189.30258847500002,69.0,72.0
150,189.2706440625,189.585921525,65.0,68.0
151,189.6039770625,191.81369707500002,67.0,78.0
152,192.2706410625,193.1331402,65.0,78.0
153,193.2706400625,193.54980645,67.0,75.0
154,193.60397306250002,194.1442503,70.0,76.0
155,194.2706390625,194.83591627500002,72.0,77.0
156,194.9373050625,195.5220267,74.0,78.0
157,195.60397106250002,196.14980385,77.0,74.0
158,196.27063706250001,196.580358975,72.0,65.0
159,196.6039700625,196.91508086250002,70.0,76.0
160,196.9373030625,197.513691375,67.0,76.0
161,197.6039690625,198.41785713750002,70.0,78.0
162,198.6039680625,198.9400788375,72.0,71.0
163,198.9373010625,199.62896703750002,74.0,82.0
164,199.6039670625,200.32896633750002,77.0,76.0
165,200.2706330625,200.6178549375,82.0,76.0
166,200.6039660625,201.1886877,79.0,76.0
167,201.2706320625,201.69563163750001,77.0,71.0
168,201.6039650625,202.2678532875,74.0,80.0
169,202.2706310625,202.6011862875,72.0,76.0
170,202.6039640625,202.947019275,74.0,76.0
171,202.93729706250002,205.4886834,77.0,77.0
172,208.27062506250002,208.4872915125,79.0,79.0
173,208.6039580625,209.2400685375,79.0,76.0
174,209.27062406250002,209.62756815,77.0,77.0
175,209.6039570625,209.9984011125,79.0,77.0
176,209.9372900625,210.3456229875,82.0,71.0
177,210.27062306250002,210.6095116125,79.0,76.0
178,210.6039560625,210.9872890125,77.0,73.0
179,210.9372890625,213.31645335000002,79.0,76.0
180,213.6039530625,213.94561938750002,79.0,76.0
181,213.93728606250002,214.280341275,82.0,74.0
182,214.2706190625,214.6622853375,79.0,77.0
183,214.6039520625,214.97200725000002,82.0,71.0
184,214.9372850625,215.87200635000002,77.0,72.0
185,215.9372840625,216.17478382500002,82.0,72.0
186,216.2706170625,216.9206164125,79.0,76.0
187,216.9372830625,217.27756050000002,77.0,75.0
188,217.2706160625,217.6317268125,74.0,78.0
189,217.60394906250002,218.80533675,72.0,77.0
190,218.9372810625,219.4511694375,74.0,85.0
191,219.6039470625,220.87200135,74.0,80.0
192,220.9372790625,221.2983898125,77.0,75.0
193,221.27061206250002,221.64422280000002,79.0,71.0
194,221.6039450625,222.2456110875,77.0,76.0
195,222.27061106250002,222.641444025,74.0,77.0
196,222.6039440625,222.9622770375,72.0,72.0
197,222.93727706250002,224.1122758875,70.0,74.0
198,224.2706090625,225.2206081125,70.0,81.0
199,225.2706080625,225.602552175,72.0,73.0
200,225.6039410625,226.6372733625,75.0,76.0
201,226.60394006250002,226.9900507875,74.0,75.0
202,226.9372730625,229.10477690625,72.0,73.0
203,229.59619379166668,230.9860038,65.0,77.0
204,230.92509579166668,231.91900374583335,74.0,77.0
205,231.92177229166668,232.25122924583334,77.0,71.0
206,232.25399779166668,232.63605711666668,72.0,72.0
207,232.58622329166667,232.9710511625,74.0,76.0
208,232.91844879166666,233.29773957083333,72.0,76.0
209,233.25067429166668,233.60781670416668,70.0,71.0
210,233.58289979166668,233.95526920625,67.0,72.0
211,233.91512529166667,234.3165644375,70.0,64.0
212,234.24735079166666,234.90903324583334,67.0,69.0
213,234.91180179166668,237.56683724583334,70.0,76.0
214,240.22740979166667,240.4436793875,82.0,79.0
215,240.5603459375,241.22423416249998,82.0,76.0
216,241.2270119375,241.583956025,82.0,77.0
217,241.5603449375,241.9547889875,79.0,77.0
218,241.8936779375,242.3020108625,82.0,71.0
219,242.22701093749998,242.5658994875,79.0,76.0
220,242.5603439375,242.9436768875,77.0,73.0
221,242.8936769375,245.272841225,79.0,76.0
222,245.5603409375,245.9020072625,79.0,76.0
223,245.89367393749998,246.23672915,82.0,74.0
224,246.2270069375,246.6186732125,79.0,77.0
225,246.5603399375,246.928395125,82.0,71.0
226,246.89367293749999,247.828394225,77.0,72.0
227,247.8936719375,248.13117169999998,82.0,72.0
228,248.2270049375,248.8770042875,79.0,76.0
229,248.8936709375,249.233948375,77.0,75.0
230,249.2270039375,249.5881146875,74.0,78.0
231,249.56033693749998,250.761724625,72.0,77.0
232,250.8936689375,251.4075573125,74.0,85.0
233,251.5603349375,252.828389225,74.0,80.0
234,252.8936669375,253.2547776875,77.0,75.0
235,253.2269999375,253.60061067499998,79.0,71.0
236,253.5603329375,254.2019989625,77.0,76.0
237,254.22699893749999,254.5978319,74.0,77.0
238,254.5603319375,254.9186649125,72.0,72.0
239,254.8936649375,256.0686637625,70.0,74.0
240,256.2269969375,257.1769959875,70.0,81.0
241,257.2269959375,257.55894005,72.0,73.0
242,257.5603289375,258.5936612375,75.0,76.0
243,258.5603279375,258.9464386625,74.0,75.0
244,258.8936609375,261.067269875,72.0,73.0
245,261.5603249375,262.9547679875,77.0,77.0
246,262.8936569375,263.8908781625,79.0,77.0
247,264.2269889375,264.5575441625,82.0,77.0
248,264.5603219375,265.5575431625,84.0,77.0
249,265.5603209375,266.2242091625,84.0,77.0
250,266.2269869375,266.8908751625,82.0,77.0
251,266.8936529375,270.5575381625,82.0,77.0
