,start,end,pitch,velocity
0,0.2708330625,0.7013881875,58.0,76.0
1,0.6041660625,1.0944433500000001,53.0,71.0
2,0.9374990625,1.1180544375,58.0,62.0
3,1.2708320625,1.78333155,53.0,65.0
4,1.9374980625,2.07222015,53.0,55.0
5,2.2708310625,2.4374975625,58.0,73.0
6,0.2708330625,2.4958308375000002,46.0,78.0
7,2.2708310625,2.6430529125,62.0,75.0
8,2.6041640625,3.030552525,53.0,68.0
9,2.9374970625000003,3.3819410625,58.0,67.0
10,3.2708300625,3.6555519000000003,53.0,66.0
11,3.6041630625,3.7277740500000003,58.0,64.0
12,2.9374970625000003,3.8861072250000004,46.0,76.0
13,3.9374960625,4.1111070000000005,58.0,69.0
14,3.9374960625,4.12777365,62.0,72.0
15,3.9374960625,4.1291625375,53.0,68.0
16,4.6041620625,4.727773050000001,53.0,60.0
17,4.9374950625,5.0513838375,53.0,76.0
18,4.9374950625,5.283328050000001,58.0,76.0
19,4.9374950625,5.427772350000001,62.0,76.0
20,5.270828062500001,5.4458278875,53.0,66.0
21,5.6041610625,5.986105125,55.0,70.0
22,5.6041610625,6.047216175,58.0,63.0
23,6.2708270625,6.341660325,55.0,52.0
24,6.6041600625,6.744437700000001,55.0,70.0
25,6.6041600625,6.7652710125,62.0,74.0
26,7.2708260625,7.363881525,58.0,46.0
27,7.2708260625,7.373603737500001,62.0,63.0
28,7.6041590625,7.7180478375,58.0,77.0
29,7.6041590625,7.7444367000000005,62.0,77.0
30,5.9374940625,7.855547700000001,50.0,56.0
31,5.6041610625,8.040269737500001,43.0,77.0
32,7.9374920625000005,8.1347140875,55.0,75.0
33,8.2708250625,8.647213575,58.0,68.0
34,8.2708250625,8.666658,62.0,76.0
35,8.937491062500001,9.036102075,58.0,55.0
36,8.937491062500001,9.0458242875,62.0,45.0
37,9.270824062500001,9.4374905625,55.0,69.0
38,9.270824062500001,9.444435,58.0,66.0
39,9.270824062500001,9.4819349625,62.0,74.0
40,9.9374900625,10.091656575,55.0,67.0
41,8.6041580625,10.3791562875,50.0,44.0
42,10.2708230625,10.41665625,55.0,77.0
43,8.2708250625,10.456933987500001,43.0,77.0
44,10.2708230625,10.5124894875,58.0,74.0
45,10.937489062500001,11.174988825,58.0,67.0
46,10.937489062500001,11.174988825,63.0,70.0
47,11.2708220625,11.373599737500001,55.0,58.0
48,11.6041550625,11.70554385,55.0,61.0
49,11.6041550625,11.7180438375,58.0,59.0
50,11.9374880625,12.036099075000001,55.0,76.0
51,11.9374880625,12.0402657375,58.0,78.0
52,10.937489062500001,12.469431975000001,39.0,76.0
53,12.604154062500001,12.67220955,55.0,66.0
54,12.604154062500001,12.6902650875,63.0,69.0
55,12.9374870625,13.019431425,55.0,75.0
56,12.9374870625,13.0333203,63.0,76.0
57,13.2708200625,13.352764425,55.0,54.0
58,13.6041530625,13.809708412500001,55.0,68.0
59,13.6041530625,13.9110972,58.0,63.0
60,14.270819062500001,14.37220785,58.0,58.0
61,14.6041520625,14.713874175,58.0,70.0
62,14.6041520625,14.722207500000001,55.0,72.0
63,15.2708180625,15.38331795,55.0,64.0
64,13.6041530625,15.770817562500001,39.0,67.0
65,15.604151062500002,15.773595337500002,55.0,76.0
66,15.604151062500002,15.833317500000001,63.0,77.0
67,15.937484062500001,16.091650575,55.0,69.0
68,16.2708170625,16.66109445,53.0,65.0
69,16.2708170625,16.6652611125,57.0,66.0
70,16.9374830625,17.0555385,53.0,58.0
71,16.9374830625,17.08331625,60.0,70.0
72,17.2708160625,17.40553815,60.0,77.0
73,17.2708160625,17.416649250000003,53.0,72.0
74,17.9374820625,18.097204125,53.0,59.0
75,18.270815062500002,18.502759275000003,57.0,76.0
76,18.270815062500002,18.519425925,60.0,76.0
77,16.2708170625,18.7097035125,41.0,75.0
78,16.6041500625,18.716647950000002,48.0,59.0
79,18.604148062500002,19.256925187500002,53.0,77.0
80,19.6041470625,19.783313550000003,53.0,62.0
81,19.6041470625,19.7888691,60.0,68.0
82,19.9374800625,20.1569242875,65.0,76.0
83,19.9374800625,20.1888687,53.0,76.0
84,20.6041460625,20.691645975,57.0,52.0
85,20.6041460625,20.706923737500002,60.0,65.0
86,19.2708140625,20.96109015,48.0,71.0
87,18.9374810625,20.988867900000002,41.0,76.0
88,20.9374790625,21.086090025,53.0,76.0
89,21.604145062500002,22.1291445375,62.0,83.0
90,22.1041445625,22.5791440875,58.0,88.0
91,21.937478062500002,23.019421425,53.0,74.0
92,21.604145062500002,23.33886555,46.0,84.0
93,23.2708100625,23.508309825,58.0,84.0
94,22.6041440625,23.874976125,62.0,85.0
95,23.437476562500002,24.1513647375,53.0,74.0
96,23.770809562500002,24.404142262500002,58.0,88.0
97,24.6041420625,25.124974875,50.0,78.0
98,24.937475062500003,25.40553015,58.0,85.0
99,25.270808062500002,25.829140837500002,55.0,79.0
100,25.270808062500002,26.1819182625,50.0,72.0
101,25.9374740625,26.3846958375,62.0,83.0
102,26.2708070625,26.531917912500003,50.0,77.0
103,24.2708090625,26.5596956625,43.0,84.0
104,26.437473562500003,26.6402511375,58.0,88.0
105,26.6041400625,26.8180287375,55.0,83.0
106,26.9374730625,27.259694962500003,53.0,82.0
107,26.9374730625,27.3124726875,57.0,73.0
108,27.6041390625,28.045805287500002,53.0,82.0
109,27.9374720625,28.7374712625,60.0,83.0
110,28.604138062500002,28.9958043375,57.0,76.0
111,28.937471062500002,29.12774865,65.0,75.0
112,29.1041375625,29.3846928375,60.0,88.0
113,27.2708060625,29.447192775,48.0,75.0
114,26.9374730625,29.4874705125,41.0,81.0
115,29.2708040625,30.318025237500002,57.0,85.0
116,30.2708030625,30.6555249,53.0,81.0
117,30.6041360625,31.0235800875,60.0,82.0
118,30.770802562500002,31.1263577625,53.0,87.0
119,29.9374700625,31.1624688375,48.0,78.0
120,31.1041355625,31.424968575,57.0,74.0
121,31.2708020625,31.773579337500003,48.0,84.0
122,29.6041370625,31.831912612500002,41.0,88.0
123,31.604135062500003,32.0110791,53.0,82.0
124,31.937468062500002,32.13885675,60.0,81.0
125,32.2708010625,32.6819117625,58.0,82.0
126,32.937467062500005,33.3069111375,58.0,80.0
127,32.6041340625,33.308300025,53.0,89.0
128,33.2708000625,33.891632775000005,62.0,83.0
129,33.7707995625,34.3374656625,58.0,73.0
130,34.270799062500004,34.47218775,46.0,77.0
131,34.4374655625,34.752743025,53.0,86.0
132,34.770798562500005,35.1957981375,58.0,74.0
133,35.6041310625,36.0319084125,55.0,84.0
134,35.2707980625,36.119408325,50.0,77.0
135,36.604130062500005,37.06107405,58.0,91.0
136,36.9374630625,37.0652407125,50.0,80.0
137,34.9374650625,37.0735740375,43.0,86.0
138,35.9374640625,37.20551835,62.0,84.0
139,37.1041295625,37.5402402375,55.0,86.0
140,37.270796062500004,38.269406175,58.0,92.0
141,38.2707950625,38.674961325,55.0,83.0
142,37.9374620625,38.8110723,46.0,72.0
143,38.6041280625,38.980516575,63.0,88.0
144,37.6041290625,39.616627050000005,39.0,89.0
145,39.2707940625,39.6291270375,46.0,70.0
146,39.604127062500005,39.7485713625,58.0,94.0
147,39.7707935625,40.033293300000004,55.0,82.0
148,39.9374600625,40.0541266125,58.0,90.0
149,40.270793062500005,40.463848425,55.0,78.0
150,40.270793062500005,40.6957926375,60.0,83.0
151,40.6041260625,40.97218125,55.0,77.0
152,40.270793062500005,41.3096809125,48.0,83.0
153,40.937459062500004,41.31662535,63.0,86.0
154,41.2707920625,41.813847075000005,60.0,86.0
155,41.9374580625,42.2957910375,55.0,80.0
156,42.2707910625,42.441624225000005,48.0,88.0
157,42.4374575625,42.73884615,55.0,85.0
158,42.6041240625,42.7791238875,60.0,79.0
159,42.770790562500004,43.259678962500004,63.0,83.0
160,43.6041230625,44.174955825000005,53.0,82.0
161,44.604122062500004,44.98328835,57.0,78.0
162,43.937456062500004,45.018010537500004,60.0,88.0
163,44.9374550625,45.17217705,65.0,88.0
164,45.104121562500005,45.3596768625,60.0,89.0
165,43.270790062500005,45.46106565,48.0,83.0
166,42.9374570625,45.520787812500004,41.0,88.0
167,45.2707880625,46.2568981875,57.0,89.0
168,46.6041200625,47.330508225,60.0,86.0
169,46.270787062500006,47.3374526625,53.0,82.0
170,47.2707860625,47.466619200000004,57.0,79.0
171,45.9374540625,47.479119187500004,48.0,79.0
172,47.4374525625,47.9207854125,65.0,83.0
173,47.7707855625,47.98328535,53.0,87.0
174,47.9374520625,48.147174075,57.0,82.0
175,48.104118562500005,48.347173875,53.0,81.0
176,47.604119062500004,48.4402293375,48.0,90.0
177,45.6041210625,48.456895987500005,41.0,88.0
178,48.2707850625,48.795784537500005,62.0,83.0
179,48.770784562500005,49.2457840875,58.0,88.0
180,48.6041180625,49.686061425000005,53.0,74.0
181,48.2707850625,50.00550555,46.0,84.0
182,49.937450062500005,50.174949825,58.0,84.0
183,49.2707840625,50.541616125000004,62.0,85.0
184,50.1041165625,50.818004737500004,53.0,74.0
185,50.4374495625,51.0707822625,58.0,88.0
186,51.270782062500004,51.791614875,50.0,78.0
187,51.6041150625,52.072170150000005,58.0,85.0
188,51.9374480625,52.4957808375,55.0,79.0
189,51.9374480625,52.8485582625,50.0,72.0
190,52.6041140625,53.051335837500005,62.0,83.0
191,52.937447062500006,53.1985579125,50.0,77.0
192,50.9374490625,53.226335662500006,43.0,84.0
193,53.104113562500004,53.3068911375,58.0,88.0
194,53.2707800625,53.4846687375,55.0,83.0
195,53.604113062500005,53.9263349625,53.0,82.0
196,53.604113062500005,53.9791126875,57.0,73.0
197,54.270779062500004,54.7124452875,53.0,82.0
198,54.6041120625,55.4041112625,60.0,83.0
199,55.2707780625,55.662444337500006,57.0,76.0
200,55.6041110625,55.79438865,65.0,75.0
201,55.7707775625,56.051332837500006,60.0,88.0
202,53.9374460625,56.113832775000006,48.0,75.0
203,53.604113062500005,56.154110512500004,41.0,81.0
204,55.9374440625,56.9846652375,57.0,85.0
205,56.9374430625,57.345775987500005,55.0,90.0
206,57.270776062500005,57.4763314125,62.0,82.0
207,57.4374425625,57.8179977375,67.0,81.0
208,56.604110062500006,57.9902197875,50.0,79.0
209,57.7707755625,58.024941975000004,62.0,78.0
210,57.937442062500004,58.2443862,55.0,88.0
211,58.2707750625,58.67216355,50.0,84.0
212,56.2707770625,58.738830150000005,43.0,89.0
213,58.6041080625,58.7457745875,62.0,83.0
214,58.6041080625,58.8485522625,58.0,76.0
215,58.9374410625,59.5221627,58.0,82.0
216,59.2707740625,59.5888293,53.0,77.0
217,59.604107062500006,59.8374401625,62.0,88.0
218,59.9374400625,60.4554951,53.0,76.0
219,60.1041065625,60.5888283,58.0,78.0
220,60.6041060625,60.973550137500006,53.0,89.0
221,60.4374395625,61.011050100000006,65.0,74.0
222,60.937439062500005,61.2207721125,58.0,82.0
223,58.9374410625,61.5110496,46.0,80.0
224,61.2707720625,61.7068827375,53.0,52.0
225,61.604105062500004,62.28327105,62.0,80.0
226,61.9374380625,62.3110488,53.0,68.0
227,62.2707710625,62.5902151875,58.0,87.0
228,62.6041040625,62.774937225,53.0,74.0
229,62.770770562500005,63.313825575,62.0,85.0
230,63.1041035625,63.32771445,53.0,75.0
231,63.270770062500006,63.6777141,58.0,77.0
232,61.604105062500004,63.698547412500005,46.0,82.0
233,63.6041030625,63.7541029125,53.0,82.0
234,64.27076906250001,64.6541020125,63.0,82.0
235,65.1041015625,65.341601325,58.0,88.0
236,64.9374350625,65.9846562375,55.0,83.0
237,65.2707680625,66.0152117625,63.0,87.0
238,64.27076906250001,66.1457671875,39.0,82.0
239,64.6041020625,66.1818782625,46.0,74.0
240,65.9374340625,66.4346557875,67.0,86.0
241,66.4374335625,66.597155625,58.0,79.0
242,66.2707670625,66.6263222625,55.0,84.0
243,66.60410006250001,66.7235443875,63.0,83.0
244,66.9374330625,67.0207663125,55.0,72.0
245,66.9374330625,67.32771045,60.0,84.0
246,67.2707660625,67.763821125,55.0,77.0
247,67.6040990625,67.98604312500001,60.0,78.0
248,67.93743206250001,68.31104280000001,63.0,83.0
249,68.6040980625,68.999931,55.0,88.0
250,68.9374310625,69.06104205,60.0,84.0
251,69.1040975625,69.2568751875,55.0,85.0
252,66.9374330625,69.280486275,48.0,86.0
253,69.2707640625,69.4318750125,60.0,74.0
254,69.4374305625,69.6652081125,55.0,80.0
255,70.27076306250001,70.4554851,57.0,83.0
256,70.4374295625,70.641596025,53.0,84.0
257,70.6040960625,70.8318736125,60.0,84.0
258,70.7707625625,70.8846513375,57.0,79.0
259,70.9374290625,71.3318731125,65.0,88.0
260,71.2707620625,71.5485395625,60.0,84.0
261,71.60409506250001,71.98187246250001,53.0,84.0
262,69.9374300625,72.19437225,48.0,73.0
263,69.6040970625,72.1999278,41.0,88.0
264,71.9374280625,72.624927375,60.0,84.0
265,72.9374270625,73.313815575,60.0,87.0
266,72.2707610625,73.4513154375,41.0,89.0
267,72.6040940625,73.4513154375,48.0,82.0
268,73.2707600625,73.519370925,53.0,86.0
269,73.6040930625,73.674926325,53.0,76.0
270,73.6040930625,73.7652040125,57.0,84.0
271,73.6040930625,73.81242618750001,60.0,88.0
272,73.93742606250001,74.2485368625,53.0,90.0
273,73.93742606250001,74.2957590375,57.0,91.0
274,73.93742606250001,74.4013144875,60.0,92.0
275,74.43742556250001,74.84298071250001,53.0,94.0
276,74.6040920625,74.8485362625,57.0,91.0
277,74.2707590625,74.94159172500001,48.0,90.0
278,73.6040930625,74.96103615,41.0,89.0
279,74.9374250625,75.44714677500001,58.0,84.0
280,75.4374245625,75.686035425,55.0,79.0
281,75.6040910625,75.94575738750001,58.0,81.0
282,75.9374240625,76.0929794625,63.0,86.0
283,76.6040900625,76.9152008625,55.0,78.0
284,76.7707565625,77.008256325,58.0,85.0
285,74.9374250625,77.02770075000001,39.0,88.0
286,75.27075806250001,77.02908963750001,46.0,75.0
287,76.9374230625,77.17631171250001,67.0,83.0
288,77.10408956250001,77.3457559875,63.0,79.0
289,77.2707560625,77.4679780875,58.0,78.0
290,77.4374225625,77.7263111625,55.0,80.0
291,78.2707550625,78.5443659,58.0,84.0
292,78.10408856250001,78.5929769625,55.0,83.0
293,78.6040880625,79.080476475,62.0,83.0
294,79.1040875625,79.4151983625,55.0,79.0
295,77.9374220625,80.0040866625,50.0,77.0
296,77.60408906250001,80.04158662500001,43.0,84.0
297,79.93742006250001,80.16103095,55.0,90.0
298,79.43742056250001,80.2596419625,62.0,79.0
299,80.1040865625,80.30547525,67.0,79.0
300,80.9374190625,81.24575208750001,58.0,89.0
301,81.27075206250001,81.48325185,55.0,77.0
302,80.2707530625,81.666585,39.0,89.0
303,80.6040860625,81.7124182875,46.0,76.0
304,81.4374185625,81.9068625375,63.0,83.0
305,82.2707510625,82.47352863750001,53.0,81.0
306,82.2707510625,82.6651951125,57.0,75.0
307,82.2707510625,82.7318617125,41.0,84.0
308,82.60408406250001,82.77769500000001,53.0,84.0
309,82.9374170625,83.26102785,55.0,79.0
310,82.9374170625,83.363805525,58.0,71.0
311,83.60408306250001,83.9207494125,58.0,82.0
312,83.2707500625,84.05824927500001,50.0,73.0
313,83.60408306250001,84.10963811250001,62.0,83.0
314,82.9374170625,84.2040824625,43.0,84.0
315,83.9374160625,84.2040824625,55.0,78.0
316,84.1040825625,84.597137625,60.0,73.0
317,84.6040820625,84.9735261375,55.0,83.0
318,84.2707490625,85.302692475,48.0,84.0
319,84.93741506250001,85.3790812875,63.0,86.0
320,85.2707480625,85.43741456250001,55.0,73.0
321,85.6040810625,85.858247475,57.0,68.0
322,85.6040810625,86.01935842500001,62.0,77.0
323,85.9374140625,86.174913825,57.0,76.0
324,86.2707470625,86.67213555000001,65.0,84.0
325,86.6040800625,86.86657980000001,57.0,76.0
326,86.77074656250001,87.0651907125,62.0,79.0
327,87.1040795625,87.263801625,57.0,76.0
328,85.6040810625,87.730467825,50.0,78.0
329,87.27074606250001,87.83880105,65.0,83.0
330,87.6040790625,88.00268977500001,57.0,81.0
331,87.9374120625,88.02352308750001,62.0,80.0
332,88.2707450625,88.5901891875,53.0,75.0
333,88.2707450625,88.6401891375,57.0,71.0
334,88.7707445625,89.0110221,53.0,83.0
335,88.60407806250001,89.26102185,48.0,72.0
336,88.9374110625,89.2762996125,57.0,84.0
337,88.2707450625,89.33185511250001,41.0,79.0
338,89.2707440625,89.4624105375,53.0,75.0
339,89.60407706250001,89.8929656625,55.0,77.0
340,89.60407706250001,90.0151877625,58.0,72.0
341,90.1040765625,90.263798625,55.0,85.0
342,90.2707430625,90.4762984125,62.0,83.0
343,89.9374100625,90.5512983375,50.0,75.0
344,89.60407706250001,90.61379827500001,43.0,83.0
345,90.43740956250001,90.6457426875,58.0,84.0
346,90.6040760625,90.75963146250001,55.0,84.0
347,90.93740906250001,91.147131075,53.0,82.0
348,90.93740906250001,91.48324185,58.0,83.0
349,91.2707420625,91.508241825,53.0,79.0
350,90.93740906250001,92.01518576250001,46.0,73.0
351,91.6040750625,92.01935242500001,62.0,84.0
352,91.9374080625,92.17213005,58.0,83.0
353,92.1040745625,92.202685575,53.0,70.0
354,92.27074106250001,92.780462775,58.0,84.0
355,92.27074106250001,92.84990715,39.0,86.0
356,92.6040740625,92.89574043750001,46.0,71.0
357,92.77074056250001,93.02351808750001,55.0,73.0
358,92.9374070625,93.1540735125,58.0,78.0
359,93.1040735625,93.291573375,63.0,83.0
360,93.27074006250001,93.4624065375,58.0,85.0
361,93.6040730625,93.85407281250001,55.0,79.0
362,93.6040730625,94.02907263750001,60.0,72.0
363,93.9374060625,94.2887946,55.0,80.0
364,94.2707390625,94.70407196250001,63.0,85.0
365,94.60407206250001,94.83184961250001,55.0,67.0
366,94.7707385625,95.03046052500001,60.0,83.0
367,95.10407156250001,95.2874047125,55.0,77.0
368,95.2707380625,95.713793175,63.0,85.0
369,95.6040710625,95.802681975,55.0,84.0
370,93.6040730625,95.8262930625,48.0,86.0
371,95.7707375625,95.941570725,60.0,83.0
372,95.93740406250001,96.08601502500001,55.0,84.0
373,96.2707370625,96.8068476375,53.0,78.0
374,96.2707370625,96.81656985000001,57.0,76.0
375,97.2707360625,97.57212465,57.0,71.0
376,96.93740306250001,97.730457825,60.0,78.0
377,97.6040690625,98.11656855000001,65.0,75.0
378,96.6040700625,98.6346235875,48.0,74.0
379,96.2707370625,98.7790678875,41.0,83.0
380,98.9374010625,99.8374001625,57.0,75.0
381,99.60406706250001,99.99990000000001,53.0,83.0
382,99.9374000625,100.30128858750001,60.0,83.0
383,100.2707330625,100.99434345,65.0,79.0
384,100.60406606250001,101.047121175,53.0,74.0
385,100.9373990625,101.28184316250001,60.0,77.0
386,99.27073406250001,101.297120925,48.0,69.0
387,98.9374010625,101.3762875125,41.0,84.0
388,101.6040650625,101.7985093125,53.0,81.0
389,101.6040650625,101.99017578750001,58.0,79.0
390,101.93739806250001,102.3221199,53.0,78.0
391,102.2707310625,102.44156422500001,58.0,69.0
392,102.6040640625,103.09295246250001,62.0,83.0
393,103.1040635625,103.4485076625,58.0,78.0
394,103.4373965625,103.4485076625,58.0,83.0
395,103.27073006250001,103.4985076125,53.0,73.0
396,101.6040650625,104.09434035000001,46.0,87.0
397,103.9373960625,104.1818402625,53.0,76.0
398,104.27072906250001,104.486006625,53.0,83.0
399,104.27072906250001,104.72350638750001,58.0,78.0
400,104.6040620625,104.8318396125,53.0,72.0
401,104.9373950625,105.17489482500001,53.0,83.0
402,104.9373950625,105.3373946625,62.0,83.0
403,105.4373945625,105.663783225,58.0,85.0
404,105.7707275625,105.95128293750001,58.0,77.0
405,105.9373940625,106.20128268750001,53.0,85.0
406,106.2707270625,106.4623935375,53.0,84.0
407,106.2707270625,106.87905978750001,58.0,76.0
408,106.60406006250001,106.93322640000001,53.0,83.0
409,104.27072906250001,106.9485041625,46.0,87.0
410,106.9373930625,106.9485041625,46.0,74.0
411,106.9373930625,107.391559275,58.0,66.0
412,107.2707260625,107.7040589625,53.0,64.0
413,107.6040590625,107.73878115000001,58.0,58.0
414,107.93739206250001,108.04155862500001,62.0,68.0
415,107.93739206250001,108.0512808375,53.0,62.0
416,108.6040580625,108.7457245875,53.0,52.0
417,108.9373910625,109.052668725,58.0,76.0
418,109.9373900625,110.313778575,53.0,70.0
419,110.27072306250001,110.3540563125,58.0,52.0
420,110.6040560625,110.69572263750001,62.0,74.0
421,110.6040560625,110.7110004,53.0,71.0
422,109.6040570625,111.37211085,46.0,71.0
423,111.2707220625,111.41655525,53.0,62.0
424,111.60405506250001,111.79433265,58.0,77.0
425,112.2707210625,112.6179429375,55.0,70.0
426,112.2707210625,112.63460958750001,62.0,73.0
427,112.93738706250001,113.07210915,55.0,72.0
428,113.2707200625,113.352664425,58.0,76.0
429,113.2707200625,113.369331075,55.0,76.0
430,112.60405406250001,113.88877500000001,50.0,60.0
431,113.93738606250001,114.11516366250001,55.0,57.0
432,112.2707210625,114.7623852375,43.0,76.0
433,114.2707190625,114.82766295,50.0,63.0
434,114.9373850625,115.32349578750001,55.0,64.0
435,114.9373850625,115.37071796250001,58.0,63.0
436,115.6040510625,115.7290509375,55.0,52.0
437,115.27071806250001,116.10127278750001,50.0,61.0
438,115.9373840625,116.6109945,55.0,70.0
439,115.9373840625,116.64849446250001,58.0,61.0
440,115.9373840625,116.67488332500001,62.0,72.0
441,116.60405006250001,117.013771875,50.0,69.0
442,114.9373850625,117.035994075,43.0,76.0
443,116.9373830625,117.03877185,58.0,72.0
444,116.9373830625,117.0651607125,55.0,71.0
445,116.9373830625,117.069327375,62.0,77.0
446,117.2707160625,117.42766035000001,53.0,77.0
447,117.60404906250001,118.3262705625,55.0,74.0
448,118.2707150625,118.39432605,58.0,71.0
449,118.6040480625,118.702659075,55.0,74.0
450,118.6040480625,118.71099240000001,58.0,75.0
451,118.6040480625,118.7179368375,63.0,75.0
452,119.6040470625,119.69015808750001,55.0,75.0
453,119.6040470625,119.7234913875,63.0,73.0
454,117.60404906250001,119.924880075,39.0,77.0
455,117.9373820625,119.99293556250001,46.0,59.0
456,119.93738006250001,120.3540463125,55.0,75.0
457,120.27071306250001,120.9762679125,58.0,78.0
458,120.9373790625,121.27071206250001,55.0,75.0
459,121.27071206250001,121.9332114,63.0,80.0
460,120.27071306250001,122.1346000875,39.0,71.0
461,120.6040460625,122.14710007500001,46.0,63.0
462,121.9373780625,122.2957110375,58.0,81.0
463,122.2707110625,122.4109887,55.0,77.0
464,122.9373770625,123.22626566250001,53.0,68.0
465,122.9373770625,123.25265452500001,57.0,66.0
466,123.60404306250001,123.95682048750001,60.0,67.0
467,123.93737606250001,124.3207090125,65.0,77.0
468,123.2707100625,124.73320860000001,48.0,71.0
469,122.9373770625,124.752653025,41.0,72.0
470,124.6040420625,124.81515296250001,60.0,76.0
471,124.93737506250001,125.174874825,57.0,78.0
472,125.2707080625,125.86792968750001,60.0,75.0
473,126.27070706250001,126.37209585000001,57.0,64.0
474,126.6040400625,126.69709552500001,57.0,77.0
475,126.6040400625,126.72209550000001,65.0,76.0
476,125.93737406250001,127.17070616250001,48.0,69.0
477,125.6040410625,127.1776506,41.0,77.0
478,127.27070606250001,127.430428125,57.0,67.0
479,127.27070606250001,127.463761425,60.0,72.0
480,127.60403906250001,127.69987230000001,57.0,76.0
481,128.2707050625,128.68320465,62.0,73.0
482,128.2707050625,128.6845935375,55.0,70.0
483,128.9373710625,129.0818153625,55.0,65.0
484,128.9373710625,129.09431535000002,58.0,68.0
485,128.6040380625,129.452648325,50.0,67.0
486,129.27070406250002,129.9665367,55.0,70.0
487,129.27070406250002,129.9984811125,58.0,78.0
488,129.27070406250002,130.0068144375,62.0,77.0
489,130.27070306250002,130.3095919125,55.0,62.0
490,129.9373700625,130.40264737500002,50.0,68.0
491,128.2707050625,130.4665362,43.0,77.0
492,130.27070306250002,130.6484804625,58.0,77.0
493,130.27070306250002,130.7109804,62.0,76.0
494,130.6040360625,130.81653585,55.0,77.0
495,130.9373690625,131.6151461625,53.0,66.0
496,130.9373690625,131.6179239375,57.0,68.0
497,131.6040350625,131.724868275,60.0,69.0
498,131.2707020625,132.03181241250002,48.0,63.0
499,131.9373680625,132.1040345625,65.0,72.0
500,131.9373680625,132.10820122500002,53.0,77.0
501,132.2707010625,132.8234782875,48.0,72.0
502,132.6040340625,133.0220892,53.0,74.0
503,132.6040340625,133.0595891625,60.0,73.0
504,130.9373690625,133.1123668875,41.0,75.0
505,132.93736706250002,133.141533525,48.0,77.0
506,133.6040330625,133.99431045,58.0,70.0
507,133.6040330625,134.0040326625,55.0,72.0
508,134.2706990625,134.3845878375,62.0,68.0
509,134.2706990625,134.385976725,55.0,69.0
510,133.93736606250002,134.7595874625,50.0,64.0
511,134.6040320625,134.8345873875,62.0,78.0
512,134.6040320625,134.9443095,55.0,77.0
513,135.2706980625,135.46097565,55.0,66.0
514,135.6040310625,135.74986425,55.0,76.0
515,134.9373650625,135.79291976250002,50.0,71.0
516,133.6040330625,135.84291971250002,43.0,77.0
517,135.6040310625,135.98319735,67.0,72.0
518,135.9373640625,136.05403061250001,55.0,72.0
519,135.6040310625,136.1068083375,62.0,76.0
520,136.2706970625,136.6956966375,57.0,68.0
521,136.2706970625,136.74847436250002,60.0,73.0
522,136.9373630625,137.0443074,65.0,68.0
523,136.9373630625,137.05125183750002,57.0,66.0
524,136.60403006250002,137.43875145,48.0,62.0
525,137.2706960625,137.6929178625,57.0,77.0
526,137.2706960625,137.8651399125,65.0,76.0
527,137.9373620625,138.0790285875,57.0,71.0
528,136.2706970625,138.33875055000001,41.0,76.0
529,137.60402906250002,138.3512505375,48.0,65.0
530,138.2706950625,138.3790282875,57.0,78.0
531,138.2706950625,138.5151392625,60.0,77.0
532,138.6040280625,138.674861325,57.0,68.0
533,138.9373610625,139.33597177500002,55.0,72.0
534,138.9373610625,139.352638425,58.0,69.0
535,138.9373610625,139.666527,39.0,76.0
536,139.2706940625,139.6818047625,46.0,64.0
537,139.6040270625,139.74152692500002,58.0,76.0
538,139.6040270625,139.74430470000001,63.0,77.0
539,139.9373600625,140.36097075,58.0,77.0
540,139.9373600625,140.608192725,63.0,79.0
541,140.6040260625,140.780414775,53.0,76.0
542,140.9373590625,141.06097005,53.0,77.0
543,140.9373590625,141.2123587875,57.0,77.0
544,141.27069206250002,141.32624756250001,53.0,54.0
545,140.27069306250002,141.430414125,41.0,78.0
546,141.6040250625,141.8220804,55.0,76.0
547,141.6040250625,142.08319125,58.0,73.0
548,141.9373580625,142.169302275,55.0,67.0
549,141.9373580625,142.3095799125,39.0,72.0
550,142.2706910625,142.59985740000002,58.0,79.0
551,142.2706910625,142.6345795875,63.0,78.0
552,142.6040240625,142.8151349625,55.0,70.0
553,142.9373570625,143.15541240000002,53.0,69.0
554,142.9373570625,143.3429122125,57.0,67.0
555,143.6040230625,143.6762452125,53.0,65.0
556,142.9373570625,143.7443007,41.0,67.0
557,143.2706900625,143.7456895875,48.0,68.0
558,143.6040230625,143.76096735000002,57.0,76.0
559,143.6040230625,143.7956895375,60.0,72.0
560,144.2706890625,144.5442999,55.0,72.0
561,144.2706890625,144.70818862500002,58.0,71.0
562,144.2706890625,144.79013298750002,39.0,82.0
563,144.6040220625,144.880410675,46.0,59.0
564,144.93735506250002,145.2623547375,58.0,77.0
565,144.93735506250002,145.2817991625,63.0,74.0
566,145.2706880625,145.41929902500002,55.0,71.0
567,145.6040210625,145.98318735,57.0,67.0
568,145.6040210625,146.1012427875,53.0,65.0
569,146.2706870625,146.3776314,57.0,76.0
570,146.2706870625,146.4262424625,60.0,75.0
571,145.93735406250002,146.59013118750002,48.0,66.0
572,145.6040210625,146.7206866125,41.0,72.0
573,146.6040200625,146.758186575,53.0,69.0
574,146.9373530625,147.2998527,53.0,67.0
575,146.9373530625,147.30540825,57.0,65.0
576,147.4373525625,147.6373523625,60.0,77.0
577,147.4373525625,147.666519,57.0,76.0
578,147.4373525625,147.7109634,53.0,76.0
579,147.9373520625,148.2429073125,53.0,68.0
580,147.9373520625,148.2456850875,57.0,68.0
581,147.9373520625,148.2706850625,60.0,75.0
582,148.2706850625,148.658184675,57.0,71.0
583,148.2706850625,148.6887402,60.0,76.0
584,148.2706850625,148.6929068625,53.0,69.0
585,148.9373510625,149.1401286375,53.0,72.0
586,146.9373530625,149.3734617375,41.0,77.0
587,148.9373510625,149.4734616375,57.0,50.0
588,149.2706840625,149.5665171,53.0,77.0
589,148.9373510625,149.72762805,65.0,77.0
590,149.60401706250002,149.94985005,53.0,77.0
591,149.60401706250002,149.9665167,57.0,78.0
592,150.1040165625,150.3345718875,53.0,69.0
593,150.1040165625,150.3345718875,57.0,76.0
594,150.6040160625,150.7234603875,57.0,67.0
595,150.6040160625,150.81651585,60.0,70.0
596,150.9373490625,151.2998487,60.0,75.0
597,150.9373490625,151.30540425,57.0,71.0
598,150.9373490625,151.30540425,65.0,76.0
599,151.4373485625,151.969292475,57.0,77.0
600,149.60401706250002,152.0456812875,41.0,75.0
601,151.6040150625,152.1540145125,60.0,73.0
602,152.27068106250002,154.57901208750002,41.0,77.0
603,152.27068106250002,154.6651231125,57.0,68.0
604,151.9373480625,154.680400875,65.0,73.0
605,152.27068106250002,154.697067525,60.0,72.0
606,154.93734506250001,155.4623445375,62.0,83.0
607,155.43734456250002,155.9123440875,58.0,88.0
608,155.2706780625,156.352621425,53.0,74.0
609,154.93734506250001,156.67206555,46.0,84.0
610,156.6040100625,156.841509825,58.0,84.0
611,155.93734406250002,157.208176125,62.0,85.0
612,156.7706765625,157.4845647375,53.0,74.0
613,157.1040095625,157.7373422625,58.0,88.0
614,157.9373420625,158.458174875,50.0,78.0
615,158.2706750625,158.73873015,58.0,85.0
616,158.60400806250001,159.1623408375,55.0,79.0
617,158.60400806250001,159.5151182625,50.0,72.0
618,159.2706740625,159.7178958375,62.0,83.0
619,159.60400706250002,159.8651179125,50.0,77.0
620,157.6040090625,159.8928956625,43.0,84.0
621,159.7706735625,159.9734511375,58.0,88.0
622,159.9373400625,160.15122873750002,55.0,83.0
623,160.2706730625,160.5928949625,53.0,82.0
624,160.2706730625,160.6456726875,57.0,73.0
625,160.9373390625,161.3790052875,53.0,82.0
626,161.2706720625,162.0706712625,60.0,83.0
627,161.9373380625,162.3290043375,57.0,76.0
628,162.2706710625,162.46094865,65.0,75.0
629,162.4373375625,162.71789283750002,60.0,88.0
630,160.60400606250002,162.780392775,48.0,75.0
631,160.2706730625,162.82067051250002,41.0,81.0
632,162.6040040625,163.6512252375,57.0,85.0
633,163.6040030625,163.9887249,53.0,81.0
634,163.9373360625,164.3567800875,60.0,82.0
635,164.1040025625,164.4595577625,53.0,87.0
636,163.27067006250002,164.4956688375,48.0,78.0
637,164.4373355625,164.758168575,57.0,74.0
638,164.6040020625,165.1067793375,48.0,84.0
639,162.9373370625,165.1651126125,41.0,88.0
640,164.9373350625,165.3442791,53.0,82.0
641,165.2706680625,165.47205675,60.0,81.0
642,165.6040010625,166.0151117625,58.0,82.0
643,166.2706670625,166.6401111375,58.0,80.0
644,165.9373340625,166.641500025,53.0,89.0
645,166.6040000625,167.224832775,62.0,83.0
646,167.1039995625,167.6706656625,58.0,73.0
647,167.6039990625,167.80538775,46.0,77.0
648,167.7706655625,168.085943025,53.0,86.0
649,168.1039985625,168.5289981375,58.0,74.0
650,168.93733106250002,169.3651084125,55.0,84.0
651,168.6039980625,169.452608325,50.0,77.0
652,169.9373300625,170.39427405,58.0,91.0
653,170.2706630625,170.39844071250002,50.0,80.0
654,168.2706650625,170.4067740375,43.0,86.0
655,169.2706640625,170.53871835,62.0,84.0
656,170.4373295625,170.8734402375,55.0,86.0
657,170.60399606250002,171.602606175,58.0,92.0
658,171.60399506250002,172.008161325,55.0,83.0
659,171.2706620625,172.1442723,46.0,72.0
660,171.9373280625,172.313716575,63.0,88.0
661,170.9373290625,172.94982705,39.0,89.0
662,172.60399406250002,172.96232703750002,46.0,70.0
663,172.9373270625,173.0817713625,58.0,94.0
664,173.1039935625,173.3664933,55.0,82.0
665,173.2706600625,173.3873266125,58.0,90.0
666,173.6039930625,173.797048425,55.0,78.0
667,173.6039930625,174.0289926375,60.0,83.0
668,173.9373260625,174.30538125,55.0,77.0
669,173.6039930625,174.6428809125,48.0,83.0
670,174.27065906250002,174.64982535000001,63.0,86.0
671,174.6039920625,175.14704707500002,60.0,86.0
672,175.27065806250002,175.62899103750001,55.0,80.0
673,175.6039910625,175.774824225,48.0,88.0
674,175.77065756250002,176.07204615,55.0,85.0
675,175.9373240625,176.1123238875,60.0,79.0
676,176.1039905625,176.5928789625,63.0,83.0
677,176.9373230625,177.50815582500002,53.0,82.0
678,177.93732206250002,178.31648835000001,57.0,78.0
679,177.2706560625,178.3512105375,60.0,88.0
680,178.2706550625,178.50537705000002,65.0,88.0
681,178.43732156250002,178.69287686250001,60.0,89.0
682,176.6039900625,178.79426565,48.0,83.0
683,176.27065706250002,178.8539878125,41.0,88.0
684,178.6039880625,179.59009818750002,57.0,89.0
685,179.93732006250002,180.66370822500002,60.0,86.0
686,179.6039870625,180.6706526625,53.0,82.0
687,180.6039860625,180.7998192,57.0,79.0
688,179.2706540625,180.8123191875,48.0,79.0
689,180.7706525625,181.25398541250001,65.0,83.0
690,181.10398556250001,181.31648535000002,53.0,87.0
691,181.2706520625,181.48037407500001,57.0,82.0
692,181.4373185625,181.68037387500002,53.0,81.0
693,180.9373190625,181.7734293375,48.0,90.0
694,178.93732106250002,181.7900959875,41.0,88.0
695,181.60398506250002,182.1289845375,62.0,83.0
696,182.10398456250002,182.5789840875,58.0,88.0
697,181.9373180625,183.019261425,53.0,74.0
698,181.60398506250002,183.33870555000001,46.0,84.0
699,183.2706500625,183.508149825,58.0,84.0
700,182.60398406250002,183.874816125,62.0,85.0
701,183.4373165625,184.1512047375,53.0,74.0
702,183.7706495625,184.4039822625,58.0,88.0
703,184.6039820625,185.124814875,50.0,78.0
704,184.9373150625,185.40537015,58.0,85.0
705,185.27064806250002,185.8289808375,55.0,79.0
706,185.27064806250002,186.1817582625,50.0,72.0
707,185.9373140625,186.3845358375,62.0,83.0
708,186.27064706250002,186.5317579125,50.0,77.0
709,184.2706490625,186.5595356625,43.0,84.0
710,186.4373135625,186.6400911375,58.0,88.0
711,186.6039800625,186.81786873750002,55.0,83.0
712,186.9373130625,187.2595349625,53.0,82.0
713,186.9373130625,187.3123126875,57.0,73.0
714,187.6039790625,188.0456452875,53.0,82.0
715,187.9373120625,188.73731126250001,60.0,83.0
716,188.6039780625,188.9956443375,57.0,76.0
717,188.93731106250002,189.12758865,65.0,75.0
718,189.1039775625,189.38453283750002,60.0,88.0
719,187.27064606250002,189.447032775,48.0,75.0
720,186.9373130625,189.48731051250002,41.0,81.0
721,189.2706440625,190.3178652375,57.0,85.0
722,190.2706430625,190.6789759875,55.0,90.0
723,190.6039760625,190.8095314125,62.0,82.0
724,190.7706425625,191.1511977375,67.0,81.0
725,189.93731006250002,191.3234197875,50.0,79.0
726,191.1039755625,191.358141975,62.0,78.0
727,191.2706420625,191.5775862,55.0,88.0
728,191.6039750625,192.00536355,50.0,84.0
729,189.6039770625,192.07203015000002,43.0,89.0
730,191.9373080625,192.0789745875,62.0,83.0
731,191.9373080625,192.1817522625,58.0,76.0
732,192.2706410625,192.8553627,58.0,82.0
733,192.60397406250001,192.92202930000002,53.0,77.0
734,192.9373070625,193.1706401625,62.0,88.0
735,193.2706400625,193.7886951,53.0,76.0
736,193.4373065625,193.92202830000002,58.0,78.0
737,193.9373060625,194.30675013750002,53.0,89.0
738,193.7706395625,194.3442501,65.0,74.0
739,194.2706390625,194.55397211250002,58.0,82.0
740,192.2706410625,194.8442496,46.0,80.0
741,194.60397206250002,195.0400827375,53.0,52.0
742,194.9373050625,195.61647105,62.0,80.0
743,195.2706380625,195.6442488,53.0,68.0
744,195.60397106250002,195.9234151875,58.0,87.0
745,195.9373040625,196.108137225,53.0,74.0
746,196.1039705625,196.64702557500001,62.0,85.0
747,196.4373035625,196.66091445,53.0,75.0
748,196.6039700625,197.0109141,58.0,77.0
749,194.9373050625,197.0317474125,46.0,82.0
750,196.9373030625,197.0873029125,53.0,82.0
751,197.6039690625,197.9873020125,63.0,82.0
752,198.4373015625,198.674801325,58.0,88.0
753,198.27063506250002,199.3178562375,55.0,83.0
754,198.6039680625,199.3484117625,63.0,87.0
755,197.6039690625,199.47896718750002,39.0,82.0
756,197.9373020625,199.5150782625,46.0,74.0
757,199.27063406250002,199.7678557875,67.0,86.0
758,199.7706335625,199.930355625,58.0,79.0
759,199.6039670625,199.9595222625,55.0,84.0
760,199.93730006250001,200.0567443875,63.0,83.0
761,200.2706330625,200.3539663125,55.0,72.0
762,200.2706330625,200.66091045000002,60.0,84.0
763,200.6039660625,201.097021125,55.0,77.0
764,200.93729906250002,201.319243125,60.0,78.0
765,201.2706320625,201.6442428,63.0,83.0
766,201.93729806250002,202.333131,55.0,88.0
767,202.2706310625,202.39424205,60.0,84.0
768,202.43729756250002,202.59007518750002,55.0,85.0
769,200.2706330625,202.61368627500002,48.0,86.0
770,202.6039640625,202.7650750125,60.0,74.0
771,202.7706305625,202.99840811250002,55.0,80.0
772,203.60396306250001,203.7886851,57.0,83.0
773,203.7706295625,203.97479602500002,53.0,84.0
774,203.9372960625,204.1650736125,60.0,84.0
775,204.10396256250002,204.2178513375,57.0,79.0
776,204.2706290625,204.6650731125,65.0,88.0
777,204.60396206250002,204.8817395625,60.0,84.0
778,204.9372950625,205.3150724625,53.0,84.0
779,203.2706300625,205.52757225000002,48.0,73.0
780,202.93729706250002,205.53312780000002,41.0,88.0
781,205.2706280625,205.958127375,60.0,84.0
782,206.2706270625,206.647015575,60.0,87.0
783,205.60396106250002,206.7845154375,41.0,89.0
784,205.9372940625,206.7845154375,48.0,82.0
785,206.60396006250002,206.852570925,53.0,86.0
786,206.9372930625,207.008126325,53.0,76.0
787,206.9372930625,207.0984040125,57.0,84.0
788,206.9372930625,207.1456261875,60.0,88.0
789,207.2706260625,207.5817368625,53.0,90.0
790,207.2706260625,207.6289590375,57.0,91.0
791,207.2706260625,207.7345144875,60.0,92.0
792,207.77062556250002,208.1761807125,53.0,94.0
793,207.9372920625,208.1817362625,57.0,91.0
794,207.6039590625,208.274791725,48.0,90.0
795,206.9372930625,208.29423615000002,41.0,89.0
796,208.27062506250002,208.780346775,58.0,84.0
797,208.77062456250002,209.019235425,55.0,79.0
798,208.9372910625,209.27895738750001,58.0,81.0
799,209.27062406250002,209.42617946250002,63.0,86.0
800,209.9372900625,210.2484008625,55.0,78.0
801,210.1039565625,210.341456325,58.0,85.0
802,208.27062506250002,210.36090075,39.0,88.0
803,208.6039580625,210.3622896375,46.0,75.0
804,210.27062306250002,210.5095117125,67.0,83.0
805,210.4372895625,210.67895598750002,63.0,79.0
806,210.6039560625,210.8011780875,58.0,78.0
807,210.77062256250002,211.0595111625,55.0,80.0
808,211.6039550625,211.8775659,58.0,84.0
809,211.43728856250002,211.92617696250002,55.0,83.0
810,211.93728806250002,212.41367647500002,62.0,83.0
811,212.43728756250002,212.7483983625,55.0,79.0
812,211.2706220625,213.33728666250002,50.0,77.0
813,210.9372890625,213.374786625,43.0,84.0
814,213.2706200625,213.49423095,55.0,90.0
815,212.7706205625,213.59284196250002,62.0,79.0
816,213.43728656250002,213.63867525,67.0,79.0
817,214.2706190625,214.5789520875,58.0,89.0
818,214.6039520625,214.81645185000002,55.0,77.0
819,213.6039530625,214.999785,39.0,89.0
820,213.93728606250002,215.04561828750002,46.0,76.0
821,214.7706185625,215.24006253750002,63.0,83.0
822,215.60395106250002,215.80672863750002,53.0,81.0
823,215.60395106250002,215.99839511250002,57.0,75.0
824,215.60395106250002,216.0650617125,41.0,84.0
825,215.9372840625,216.110895,53.0,84.0
826,216.2706170625,216.59422785,55.0,79.0
827,216.2706170625,216.697005525,58.0,71.0
828,216.9372830625,217.25394941250002,58.0,82.0
829,216.60395006250002,217.391449275,50.0,73.0
830,216.9372830625,217.4428381125,62.0,83.0
831,216.2706170625,217.5372824625,43.0,84.0
832,217.2706160625,217.5372824625,55.0,78.0
833,217.4372825625,217.93033762500002,60.0,73.0
834,217.9372820625,218.30672613750002,55.0,83.0
835,217.60394906250002,218.63589247500002,48.0,84.0
836,218.2706150625,218.71228128750002,63.0,86.0
837,218.60394806250002,218.77061456250001,55.0,73.0
838,218.9372810625,219.19144747500002,57.0,68.0
839,218.9372810625,219.352558425,62.0,77.0
840,219.27061406250002,219.508113825,57.0,76.0
841,219.6039470625,220.00533555,65.0,84.0
842,219.9372800625,220.19977980000002,57.0,76.0
843,220.1039465625,220.3983907125,62.0,79.0
844,220.4372795625,220.59700162500002,57.0,76.0
845,218.9372810625,221.063667825,50.0,78.0
846,220.6039460625,221.17200105,65.0,83.0
847,220.9372790625,221.335889775,57.0,81.0
848,221.27061206250002,221.3567230875,62.0,80.0
849,221.6039450625,221.92338918750002,53.0,75.0
850,221.6039450625,221.97338913750002,57.0,71.0
851,222.1039445625,222.3442221,53.0,83.0
852,221.9372780625,222.59422185,48.0,72.0
853,222.27061106250002,222.6094996125,57.0,84.0
854,221.6039450625,222.6650551125,41.0,79.0
855,222.6039440625,222.7956105375,53.0,75.0
856,222.93727706250002,223.22616566250002,55.0,77.0
857,222.93727706250002,223.3483877625,58.0,72.0
858,223.43727656250002,223.596998625,55.0,85.0
859,223.6039430625,223.8094984125,62.0,83.0
860,223.2706100625,223.88449833750002,50.0,75.0
861,222.93727706250002,223.946998275,43.0,83.0
862,223.7706095625,223.97894268750002,58.0,84.0
863,223.93727606250002,224.09283146250002,55.0,84.0
864,224.2706090625,224.480331075,53.0,82.0
865,224.2706090625,224.81644185000002,58.0,83.0
866,224.6039420625,224.841441825,53.0,79.0
867,224.2706090625,225.34838576250002,46.0,73.0
868,224.93727506250002,225.352552425,62.0,84.0
869,225.2706080625,225.50533005,58.0,83.0
870,225.43727456250002,225.535885575,53.0,70.0
871,225.6039410625,226.11366277500002,58.0,84.0
872,225.6039410625,226.18310715,39.0,86.0
873,225.93727406250002,226.2289404375,46.0,71.0
874,226.10394056250001,226.3567180875,55.0,73.0
875,226.2706070625,226.4872735125,58.0,78.0
876,226.4372735625,226.62477337500002,63.0,83.0
877,226.60394006250002,226.79560653750002,58.0,85.0
878,226.9372730625,227.1872728125,55.0,79.0
879,226.9372730625,227.3619773041667,60.0,72.0
880,227.2706060625,227.62083633958335,55.0,80.0
881,227.60284079166667,228.03473394166667,63.0,85.0
882,227.9350662916667,228.16208705,55.0,67.0
883,228.10117904166668,228.36003807708335,60.0,83.0
884,228.43340454166668,228.61612856666667,55.0,77.0
885,228.59951729166667,229.04110035208333,63.0,85.0
886,228.93174279166666,229.12969381875,55.0,84.0
887,226.9372730625,229.15322645833334,48.0,86.0
888,229.09785554166666,229.26812111041667,60.0,83.0
889,229.26396829166669,229.41208549375,55.0,84.0
890,229.59619379166668,230.1305231375,53.0,78.0
891,229.59619379166668,230.14021304791666,57.0,76.0
892,230.59287029166669,230.89325751458333,57.0,71.0
893,230.26064479166666,231.05106462708335,60.0,78.0
894,230.92509579166668,231.43589249791668,65.0,75.0
895,229.92841929166667,231.95222629583333,48.0,74.0
896,229.59619379166668,232.09619067916668,41.0,83.0
897,232.25399779166668,233.15100664166667,57.0,75.0
898,232.91844879166666,233.31296657291668,53.0,83.0
899,233.25067429166668,233.61335379583335,60.0,83.0
900,233.58289979166668,234.30410598125002,65.0,79.0
901,233.91512529166667,234.35670835208333,53.0,74.0
902,234.24735079166666,234.59065047500002,60.0,77.0
903,232.58622329166667,234.60587747708334,48.0,69.0
904,232.25399779166668,234.68478103333334,41.0,84.0
905,234.91180179166668,235.31185666458333,59.0,76.0
906,234.91180179166668,235.55964151666666,63.0,69.0
907,235.57625279166666,235.74098126875,59.0,77.0
908,235.24402729166667,236.00122457708335,54.0,65.0
909,235.90847829166668,236.37913108333333,59.0,81.0
910,235.90847829166668,236.70581949166666,66.0,76.0
911,236.57292929166667,236.74873195208335,59.0,76.0
912,236.24070379166668,237.01312807916668,54.0,70.0
913,236.90515479166666,237.04911917500002,59.0,79.0
914,234.91180179166668,237.05188772083335,47.0,77.0
915,236.90515479166666,237.21246337916668,63.0,80.0
916,236.90515479166666,237.29136693541668,66.0,76.0
917,237.56960579166667,237.94474375208333,61.0,69.0
918,237.56960579166667,238.05271703958334,65.0,77.0
919,238.23405679166666,238.39878526875,61.0,64.0
920,237.90183129166667,238.78499741250002,44.0,65.0
921,238.56628229166668,239.02724517291668,61.0,73.0
922,238.56628229166668,239.14767691666668,68.0,74.0
923,239.23073329166667,239.44252704791668,61.0,80.0
924,239.56295879166666,239.71246026666668,61.0,78.0
925,237.56960579166667,240.15127478125,37.0,81.0
926,239.56295879166666,240.17619169375,65.0,77.0
927,238.89850779166667,240.20387715208335,44.0,65.0
928,239.89518429166668,240.21495133541669,61.0,78.0
929,239.56295879166666,240.21495133541669,68.0,78.0
930,239.56295879166666,240.23433115625,73.0,74.0
931,240.22740979166667,240.73673465,58.0,84.0
932,240.7270124375,240.9756233,55.0,79.0
933,240.8936789375,241.2353452625,58.0,81.0
934,241.2270119375,241.3825673375,63.0,86.0
935,241.8936779375,242.2047887375,55.0,78.0
936,242.0603444375,242.2978442,58.0,85.0
937,240.22740979166667,242.317288625,39.0,88.0
938,240.5603459375,242.3186775125,46.0,75.0
939,242.22701093749998,242.4658995875,67.0,83.0
940,242.3936774375,242.6353438625,63.0,79.0
941,242.5603439375,242.7575659625,58.0,78.0
942,242.72701043749998,243.0158990375,55.0,80.0
943,243.5603429375,243.833953775,58.0,84.0
944,243.3936764375,243.88256483749998,55.0,83.0
945,243.8936759375,244.37006435,62.0,83.0
946,244.3936754375,244.7047862375,55.0,79.0
947,243.2270099375,245.2936745375,50.0,77.0
948,242.8936769375,245.3311745,43.0,84.0
949,245.2270079375,245.450618825,55.0,90.0
950,244.7270084375,245.5492298375,62.0,79.0
951,245.3936744375,245.595063125,67.0,79.0
952,246.2270069375,246.5353399625,58.0,89.0
953,246.5603399375,246.77283972499998,55.0,77.0
954,245.5603409375,246.956172875,39.0,89.0
955,245.89367393749998,247.0020061625,46.0,76.0
956,246.7270064375,247.19645041249998,63.0,83.0
957,247.5603389375,247.7631165125,53.0,81.0
958,247.5603389375,247.95478298749998,57.0,75.0
959,247.5603389375,248.0214495875,41.0,84.0
960,247.8936719375,248.067282875,53.0,84.0
961,248.2270049375,248.550615725,55.0,79.0
962,248.2270049375,248.6533934,58.0,71.0
963,248.8936709375,249.2103372875,58.0,82.0
964,248.5603379375,249.34783715,50.0,73.0
965,248.8936709375,249.3992259875,62.0,83.0
966,248.2270049375,249.4936703375,43.0,84.0
967,249.2270039375,249.4936703375,55.0,78.0
968,249.3936704375,249.8867255,60.0,73.0
969,249.8936699375,250.26311401249998,55.0,83.0
970,249.56033693749998,250.59228035,48.0,84.0
971,250.2270029375,250.6686691625,63.0,86.0
972,250.56033593749999,250.7270024375,55.0,73.0
973,250.8936689375,251.14783535,57.0,68.0
974,250.8936689375,251.3089463,62.0,77.0
975,251.2270019375,251.4645017,57.0,76.0
976,251.5603349375,251.961723425,65.0,84.0
977,251.8936679375,252.156167675,57.0,76.0
978,252.0603344375,252.3547785875,62.0,79.0
979,252.3936674375,252.5533895,57.0,76.0
980,250.8936689375,253.0200557,50.0,78.0
981,252.5603339375,253.128388925,65.0,83.0
982,252.8936669375,253.29227765,57.0,81.0
983,253.2269999375,253.3131109625,62.0,80.0
984,253.5603329375,253.8797770625,53.0,75.0
985,253.5603329375,253.92977701249998,57.0,71.0
986,254.0603324375,254.300609975,53.0,83.0
987,253.8936659375,254.550609725,48.0,72.0
988,254.22699893749999,254.5658874875,57.0,84.0
989,253.5603329375,254.6214429875,41.0,79.0
990,254.5603319375,254.7519984125,53.0,75.0
991,254.8936649375,255.18255353749998,55.0,77.0
992,254.8936649375,255.3047756375,58.0,72.0
993,255.3936644375,255.5533865,55.0,85.0
994,255.5603309375,255.7658862875,62.0,83.0
995,255.2269979375,255.8408862125,50.0,75.0
996,254.8936649375,255.90338615,43.0,83.0
997,255.7269974375,255.93533056249998,58.0,84.0
998,255.8936639375,256.0492193375,55.0,84.0
999,256.2269969375,256.43671895,53.0,82.0
1000,256.2269969375,256.772829725,58.0,83.0
1001,256.5603299375,256.7978297,53.0,79.0
1002,256.2269969375,257.3047736375,46.0,73.0
1003,256.8936629375,257.3089403,62.0,84.0
1004,257.2269959375,257.461717925,58.0,83.0
1005,257.3936624375,257.49227344999997,53.0,70.0
1006,257.5603289375,258.07005065,58.0,84.0
1007,257.5603289375,258.139495025,39.0,86.0
1008,257.8936619375,258.1853283125,46.0,71.0
1009,258.0603284375,258.3131059625,55.0,73.0
1010,258.22699493749997,258.4436613875,58.0,78.0
1011,258.3936614375,258.58116125,63.0,83.0
1012,258.5603279375,258.7519944125,58.0,85.0
1013,258.8936609375,259.1436606875,55.0,79.0
1014,258.8936609375,259.3186605125,60.0,72.0
1015,259.22699393749997,259.578382475,55.0,80.0
1016,259.5603269375,259.9936598375,63.0,85.0
1017,259.8936599375,260.1214374875,55.0,67.0
1018,260.0603264375,260.3200484,60.0,83.0
1019,260.3936594375,260.5769925875,55.0,77.0
1020,260.5603259375,261.00338105,63.0,85.0
1021,260.8936589375,261.09226985,55.0,84.0
1022,258.8936609375,261.1158809375,48.0,86.0
1023,261.0603254375,261.2311586,60.0,83.0
1024,261.2269919375,261.3756029,55.0,84.0
1025,261.38115845,262.0019911625,53.0,45.0
1026,261.4533806,262.2797686625,57.0,50.0
1027,261.63810263749997,262.2992130875,65.0,59.0
1028,261.533936075,262.300601975,60.0,52.0
1029,262.228379825,263.3325453875,53.0,61.0
1030,262.5797683625,263.389489775,60.0,56.0
1031,264.0658779875,264.1631001125,65.0,27.0
1032,264.095044625,264.2658777875,69.0,51.0
1033,264.195044525,264.3603221375,77.0,48.0
1034,261.9200468,266.678375375,48.0,49.0
1035,261.5492138375,266.6880975875,41.0,55.0
1036,266.8936529375,267.295041425,59.0,76.0
1037,266.8936529375,267.5436522875,63.0,69.0
1038,267.56031893749997,267.72559655,59.0,77.0
1039,267.2269859375,267.9867074,54.0,65.0
1040,267.8936519375,268.36587368749997,59.0,81.0
1041,267.8936519375,268.6936511375,66.0,76.0
1042,268.5603179375,268.73670665,59.0,76.0
1043,268.2269849375,269.0019841625,54.0,70.0
1044,268.8936509375,269.0380952375,59.0,79.0
1045,266.8936529375,269.0408730125,47.0,77.0
1046,268.8936509375,269.2019839625,63.0,80.0
1047,268.8936509375,269.28115055,66.0,76.0
1048,269.5603169375,269.93670545,61.0,69.0
1049,269.5603169375,270.045038675,65.0,77.0
1050,270.2269829375,270.39226055,61.0,64.0
1051,269.8936499375,270.7797601625,44.0,65.0
1052,270.5603159375,271.022815475,61.0,73.0
1053,270.5603159375,271.1436486875,68.0,74.0
1054,271.2269819375,271.439481725,61.0,80.0
1055,271.5603149375,271.7103147875,61.0,78.0
1056,269.5603169375,272.150592125,37.0,81.0
1057,271.5603149375,272.1755921,65.0,77.0
1058,270.8936489375,272.20336985,44.0,65.0
1059,271.8936479375,272.21448095,61.0,78.0
1060,271.5603149375,272.21448095,68.0,78.0
1061,271.5603149375,272.233925375,73.0,74.0
1062,272.2269809375,272.4492029375,53.0,68.0
1063,272.2269809375,272.8242025625,62.0,76.0
1064,272.5603139375,272.9825357375,53.0,70.0
1065,272.89364693749997,273.011702375,58.0,70.0
1066,273.2269799375,273.5686462625,62.0,76.0
1067,273.2269799375,273.6492017375,53.0,77.0
1068,273.89364593749997,274.272812225,58.0,65.0
1069,272.2269809375,274.561700825,46.0,79.0
1070,274.89364493749997,275.056144775,58.0,65.0
1071,274.89364493749997,275.0575336625,46.0,76.0
1072,274.89364493749997,275.0603114375,53.0,63.0
1073,275.2269779375,275.383922225,46.0,50.0
1074,275.2269779375,275.39364443750003,53.0,57.0
1075,275.2269779375,275.406144425,58.0,57.0
1076,275.5603109375,275.7089219,46.0,67.0
1077,275.5603109375,275.71447745,53.0,62.0
1078,275.5603109375,275.71447745,58.0,64.0
1079,275.8936439375,276.0214215875,46.0,72.0
1080,275.8936439375,276.0241993625,53.0,63.0
1081,275.8936439375,276.039477125,58.0,64.0
1082,276.2269769375,276.33669905,46.0,77.0
1083,276.2269769375,276.34781015,53.0,67.0
1084,276.2269769375,276.3547545875,58.0,66.0
1085,276.5603099375,276.661698725,46.0,77.0
1086,276.5603099375,276.683920925,58.0,69.0
1087,276.5603099375,276.6866987,53.0,71.0
1088,276.8936429375,276.9991983875,46.0,83.0
1089,276.8936429375,277.01030948749997,58.0,77.0
1090,276.8936429375,277.01447615,53.0,76.0
1091,277.2269759375,277.3658646875,46.0,78.0
1092,277.2269759375,277.4436423875,53.0,72.0
1093,277.2269759375,277.4464201625,58.0,74.0
1094,277.5603089375,279.3422516,53.0,69.0
1095,277.5603089375,279.3825293375,58.0,67.0
1096,277.5603089375,279.3908626625,62.0,76.0
1097,277.5603089375,279.3936404375,46.0,82.0
