,start,end,pitch,velocity
0,14.037148125000002,14.2516749375,62.0,99.0
1,14.442553125000002,14.684106937500001,62.0,97.0
2,14.847958125000002,15.1841064375,61.0,95.0
3,15.050660625,15.439173750000002,62.0,92.0
4,15.658768125000002,15.9341056875,61.0,102.0
5,16.064173125,16.304037750000003,59.0,90.0
6,16.469578125,16.6908616875,57.0,92.0
7,16.874983125,17.1604558125,57.0,93.0
8,17.280388125,17.608090500000003,57.0,96.0
9,17.685793125,17.984779312500002,59.0,93.0
10,18.091198125000002,19.258426687500002,61.0,112.0
11,20.523628125000002,20.780384625000003,62.0,90.0
12,20.929033125,21.118222125000003,62.0,90.0
13,21.334438125000002,21.444235312500002,61.0,89.0
14,21.537140625000003,21.917207812500003,62.0,90.0
15,22.145248125000002,22.413828937500003,61.0,112.0
16,22.550653125000004,22.773625875,59.0,107.0
17,22.956058125000002,23.072612062500003,57.0,89.0
18,23.158760625000003,24.8327454375,61.0,122.0
19,26.604703125000004,27.550648125000002,66.0,112.0
20,27.820918125000002,28.113147562500004,61.0,107.0
21,28.226323125000004,28.581052500000002,61.0,112.0
22,28.631728125000002,28.885106250000003,57.0,100.0
23,29.037133125000004,29.3378085,57.0,90.0
24,29.442538125000002,29.722943250000004,52.0,97.0
25,29.847943125000004,30.075983437500003,64.0,99.0
26,30.253348125000002,30.4813884375,64.0,100.0
27,30.658753125000004,30.907063687500003,64.0,99.0
28,31.064158125000002,31.1705769375,62.0,96.0
29,31.266860625000003,32.231386687500006,61.0,96.0
30,33.091183125,33.3496288125,59.0,102.0
31,33.496588125,33.6165204375,59.0,95.0
32,33.901993125000004,34.0692226875,59.0,93.0
33,34.307398125000006,34.472938500000005,59.0,96.0
34,34.712803125,34.915505625,59.0,97.0
35,35.118208125,35.381721375000005,57.0,97.0
36,35.523613125000004,35.7989506875,61.0,127.0
37,35.929018125000006,37.153679062500004,59.0,90.0
38,39.983068125,40.179013875,62.0,95.0
39,40.388473125000004,40.564148625,62.0,97.0
40,40.793878125000006,40.9307023125,61.0,102.0
41,40.99658062500001,41.4036748125,62.0,96.0
42,41.604688125,41.8394851875,61.0,112.0
43,42.010093125000004,42.239822625,59.0,107.0
44,42.415498125000006,42.619889812500006,57.0,93.0
45,42.820903125,43.121578500000005,57.0,107.0
46,43.226308125,43.49319975,57.0,107.0
47,43.631713125000005,43.9408344375,59.0,97.0
48,44.037118125000006,45.679008375,61.0,107.0
49,46.469548125,46.734750562500004,62.0,100.0
50,46.874953125000005,47.079344812500004,62.0,95.0
51,47.28035812500001,47.38170937500001,61.0,97.0
52,47.48306062500001,47.925627750000004,62.0,99.0
53,48.091168125,48.5083974375,61.0,112.0
54,48.496573125000005,48.89859975,59.0,99.0
55,48.90197812500001,49.153667062500006,57.0,100.0
56,49.10468062500001,51.283732500000006,61.0,112.0
57,52.550623125,53.479676250000004,66.0,107.0
58,53.76683812500001,54.0692026875,61.0,112.0
59,54.172243125,54.47967525000001,61.0,112.0
60,54.577648125,54.837783,57.0,100.0
61,54.983053125000005,55.271904187500006,57.0,89.0
62,55.38845812500001,55.66210650000001,52.0,96.0
63,55.793863125,56.30399775000001,64.0,97.0
64,56.199268125,56.30399775000001,64.0,99.0
65,56.604673125000005,56.8664971875,64.0,112.0
66,57.01007812500001,57.153659062500004,62.0,96.0
67,57.21278062500001,57.795550312500005,61.0,95.0
68,59.03710312500001,59.261765062500004,59.0,107.0
69,59.442508125,59.61480525,59.0,96.0
70,59.847913125000005,60.00669675,59.0,99.0
71,60.25331812500001,60.44926387500001,59.0,107.0
72,60.65872312500001,60.898587750000004,59.0,99.0
73,61.064128125,61.30906031250001,57.0,100.0
74,61.469533125000005,61.79554631250001,64.0,102.0
75,61.87493812500001,63.687436312500004,64.0,112.0
76,64.30736812500001,64.56919218750001,61.0,112.0
77,64.71277312500001,64.9813539375,69.0,97.0
78,65.118178125,65.4002724375,68.0,117.0
79,65.523583125,65.84115037500001,66.0,102.0
80,66.334393125,66.61986581250001,62.0,112.0
81,66.73979812500001,66.83608181250001,61.0,99.0
82,66.94250062500001,67.216149,61.0,96.0
83,67.34790562500001,67.5691891875,59.0,95.0
84,67.95601312500001,68.19249937500001,66.0,127.0
85,68.361418125,68.4745936875,66.0,102.0
86,68.564120625,68.753309625,68.0,112.0
87,68.969525625,69.37324143750001,64.0,96.0
88,69.374930625,69.46614675000001,64.0,93.0
89,69.577633125,69.72628162500001,64.0,107.0
90,69.98303812500001,70.07425425000001,64.0,97.0
91,70.18574062500001,70.4374295625,59.0,92.0
92,70.59114562500001,71.08776675,61.0,102.0
93,71.401955625,71.48641500000001,54.0,82.0
94,71.604658125,71.7212120625,59.0,95.0
95,71.807360625,71.8732389375,61.0,112.0
96,72.010063125,72.25837368750001,62.0,102.0
97,72.415468125,72.63337331250001,62.0,107.0
98,72.820873125,73.01681887500001,62.0,100.0
99,73.22627812500001,73.3293185625,61.0,96.0
100,73.42898062500001,73.70938575000001,61.0,97.0
101,73.83438562500001,74.05904756250001,59.0,100.0
102,74.23979062500001,74.456006625,59.0,99.0
103,74.64519562500001,74.972898,56.0,100.0
104,75.253303125,75.516816375,57.0,95.0
105,75.658708125,75.7955323125,56.0,95.0
106,75.861410625,76.03370775,57.0,99.0
107,76.266815625,76.51681537500001,59.0,86.0
108,76.67222062500001,77.260057875,61.0,112.0
109,77.28032812500001,77.47796306250001,57.0,100.0
110,77.68573312500001,77.91208425,69.0,107.0
111,78.091138125,78.33438112500001,68.0,127.0
112,78.496543125,78.86478600000001,66.0,127.0
113,79.307353125,79.55397450000001,66.0,122.0
114,79.71275812500001,79.80735262500001,69.0,97.0
115,79.91546062500001,80.1941765625,71.0,127.0
116,80.32086562500001,80.52694650000001,68.0,122.0
117,80.72627062500001,80.9644460625,68.0,112.0
118,81.13167562500001,81.27694575000001,66.0,127.0
119,81.739783125,81.98302612500001,71.0,112.0
120,82.145188125,82.26005287500001,71.0,95.0
121,82.347890625,82.584376875,71.0,97.0
122,82.753295625,82.945863,73.0,122.0
123,83.15870062500001,83.77863243750001,69.0,100.0
124,84.577618125,84.69586125000001,66.0,117.0
125,84.780320625,84.8630908125,68.0,102.0
126,84.983023125,85.20430668750001,69.0,117.0
127,85.388428125,85.46613075,69.0,127.0
128,85.591130625,85.78707637500001,69.0,117.0
129,86.19923812500001,86.46781893750001,68.0,117.0
130,86.60464312500001,86.7921429375,66.0,117.0
131,87.01004812500001,87.27693975000001,71.0,100.0
132,87.41545312500001,87.7009258125,68.0,117.0
133,87.820858125,89.65362656250001,69.0,127.0
134,101.604628125,101.80057387500001,62.0,95.0
135,102.010033125,102.185708625,62.0,97.0
136,102.41543812500001,102.5522623125,61.0,102.0
137,102.61814062500001,103.0252348125,62.0,96.0
138,103.22624812500001,103.4610451875,61.0,112.0
139,103.63165312500001,103.861382625,59.0,107.0
140,104.03705812500002,104.24144981250001,57.0,93.0
141,104.442463125,104.74313850000001,57.0,107.0
142,104.847868125,105.11475975,57.0,107.0
143,105.253273125,105.5623944375,59.0,97.0
144,105.65867812500001,107.30056837500001,61.0,107.0
145,108.091108125,108.35631056250001,62.0,100.0
146,108.496513125,108.70090481250001,62.0,95.0
147,108.90191812500001,109.00326937500002,61.0,97.0
148,109.10462062500001,109.54718775,62.0,99.0
149,109.71272812500001,110.12995743750001,61.0,112.0
150,110.11813312500001,110.52015975,59.0,99.0
151,110.52353812500002,110.77522706250001,57.0,100.0
152,110.72624062500002,112.90529250000002,61.0,112.0
153,114.172183125,115.10123625000001,66.0,107.0
154,115.38839812500001,115.69076268750001,61.0,112.0
155,115.79380312500001,116.10123525000002,61.0,112.0
156,116.19920812500001,116.459343,57.0,100.0
157,116.60461312500001,116.89346418750002,57.0,89.0
158,117.01001812500002,117.28366650000001,52.0,96.0
159,117.415423125,117.92555775000001,64.0,97.0
160,117.820828125,117.92555775000001,64.0,99.0
161,118.22623312500001,118.4880571875,64.0,112.0
162,118.63163812500001,118.77521906250001,62.0,96.0
163,118.83434062500001,119.41711031250001,61.0,95.0
164,120.658663125,120.8833250625,59.0,107.0
165,121.064068125,121.23636525,59.0,96.0
166,121.46947312500001,121.62825675,59.0,99.0
167,121.87487812500001,122.07082387500002,59.0,107.0
168,122.28028312500001,122.52014775,59.0,99.0
169,122.68568812500001,122.93062031250001,57.0,100.0
170,123.09109312500001,123.41710631250001,64.0,102.0
171,123.49649812500002,125.30899631250001,64.0,112.0
172,125.92892812500001,126.19075218750001,61.0,112.0
173,126.33433312500001,126.6029139375,69.0,97.0
174,126.73973812500002,127.02183243750001,68.0,117.0
175,127.14514312500002,127.46271037500001,66.0,102.0
176,127.95595312500001,128.2414258125,62.0,112.0
177,128.361358125,128.45764181250001,61.0,99.0
178,128.56406062500002,128.83770900000002,61.0,96.0
179,128.969465625,129.19074918750002,59.0,95.0
180,129.57757312500001,129.814059375,66.0,127.0
181,129.98297812500002,130.09615368750002,66.0,102.0
182,130.185680625,130.374869625,68.0,112.0
183,130.591085625,130.9948014375,64.0,96.0
184,130.996490625,131.08770675000002,64.0,93.0
185,131.19919312500002,131.347841625,64.0,107.0
186,131.60459812500002,131.69581425,64.0,97.0
187,131.807300625,132.05898956250002,59.0,92.0
188,132.212705625,132.70932675,61.0,102.0
189,133.02351562500002,133.107975,54.0,82.0
190,133.226218125,133.34277206250002,59.0,95.0
191,133.42892062500002,133.4947989375,61.0,112.0
192,133.631623125,133.8799336875,62.0,102.0
193,134.037028125,134.25493331250001,62.0,107.0
194,134.442433125,134.638378875,62.0,100.0
195,134.847838125,134.9508785625,61.0,96.0
196,135.05054062500002,135.33094575,61.0,97.0
197,135.455945625,135.6806075625,59.0,100.0
198,135.861350625,136.077566625,59.0,99.0
199,136.266755625,136.594458,56.0,100.0
200,136.87486312500002,137.138376375,57.0,95.0
201,137.28026812500002,137.41709231250002,56.0,95.0
202,137.482970625,137.65526775,57.0,99.0
203,137.888375625,138.138375375,59.0,86.0
204,138.293780625,138.88161787500002,61.0,112.0
205,138.901888125,139.09952306250003,57.0,100.0
206,139.307293125,139.53364425,69.0,107.0
207,139.712698125,139.955941125,68.0,127.0
208,140.118103125,140.48634600000003,66.0,127.0
209,140.928913125,141.17553450000003,66.0,122.0
210,141.334318125,141.428912625,69.0,97.0
211,141.53702062500003,141.8157365625,71.0,127.0
212,141.942425625,142.14850650000002,68.0,122.0
213,142.347830625,142.58600606250002,68.0,112.0
214,142.753235625,142.89850575000003,66.0,127.0
215,143.36134312500002,143.60458612500003,71.0,112.0
216,143.76674812500002,143.881612875,71.0,95.0
217,143.969450625,144.20593687500002,71.0,97.0
218,144.374855625,144.56742300000002,73.0,122.0
219,144.780260625,145.4001924375,69.0,100.0
220,146.199178125,146.31742125000002,66.0,117.0
221,146.40188062500002,146.4846508125,68.0,102.0
222,146.604583125,146.82586668750002,69.0,117.0
223,147.009988125,147.08769075,69.0,127.0
224,147.21269062500002,147.40863637500001,69.0,117.0
225,147.820798125,147.99647362500002,69.0,102.0
226,148.226203125,148.36809487500003,69.0,127.0
227,148.631608125,148.73633775000002,66.0,102.0
228,148.834310625,149.05559418750002,69.0,107.0
229,149.239715625,149.432283,71.0,112.0
230,149.645120625,151.3934296875,71.0,127.0
231,151.874848125,152.0995100625,57.0,112.0
232,152.280253125,152.5488339375,69.0,97.0
233,152.685658125,152.96775243750002,68.0,117.0
234,153.091063125,153.408630375,66.0,102.0
235,153.901873125,154.1873458125,62.0,112.0
236,154.307278125,154.40356181250002,61.0,99.0
237,154.50998062500003,154.78362900000002,61.0,96.0
238,154.91538562500003,155.13666918750002,59.0,95.0
239,155.52349312500002,155.759979375,66.0,127.0
240,155.92889812500002,156.04207368750002,66.0,102.0
241,156.131600625,156.320789625,68.0,112.0
242,156.537005625,156.72450543750003,64.0,96.0
243,156.942410625,157.03362675000002,64.0,93.0
244,157.14511312500002,157.293761625,64.0,107.0
245,157.55051812500002,157.64173425,64.0,97.0
246,157.753220625,158.00490956250002,59.0,92.0
247,158.158625625,158.65524675,61.0,102.0
248,158.96943562500002,159.053895,54.0,82.0
249,159.172138125,159.28869206250002,59.0,95.0
250,159.37484062500002,159.4407189375,61.0,112.0
251,159.577543125,159.8258536875,62.0,102.0
252,159.982948125,160.20085331250002,62.0,107.0
253,160.388353125,160.584298875,62.0,100.0
254,160.793758125,160.8967985625,61.0,96.0
255,160.99646062500003,161.27686575,61.0,97.0
256,161.40186562500003,161.6265275625,59.0,100.0
257,161.807270625,162.023486625,59.0,99.0
258,162.212675625,162.540378,56.0,100.0
259,162.82078312500002,163.084296375,57.0,95.0
260,163.22618812500002,163.36301231250002,56.0,95.0
261,163.428890625,163.60118775,57.0,99.0
262,163.834295625,164.084295375,59.0,86.0
263,164.239700625,164.82753787500002,61.0,112.0
264,164.84780812500003,165.04544306250003,57.0,100.0
265,165.253213125,165.47956425,69.0,107.0
266,165.658618125,165.901861125,68.0,127.0
267,166.064023125,166.43226600000003,66.0,127.0
268,166.874833125,167.12145450000003,66.0,122.0
269,167.280238125,167.374832625,69.0,97.0
270,167.48294062500003,167.7616565625,71.0,127.0
271,167.88834562500003,168.09442650000003,68.0,122.0
272,168.293750625,168.53192606250002,68.0,112.0
273,168.699155625,168.84442575000003,66.0,127.0
274,169.30726312500002,169.55050612500003,71.0,112.0
275,169.71266812500002,169.827532875,71.0,95.0
276,169.915370625,170.15185687500002,71.0,97.0
277,170.320775625,170.51334300000002,73.0,122.0
278,170.726180625,171.3461124375,69.0,100.0
279,172.145098125,172.26334125000002,66.0,117.0
280,172.34780062500002,172.4305708125,68.0,102.0
281,172.550503125,172.77178668750003,69.0,117.0
282,172.955908125,173.03361075,69.0,127.0
283,173.15861062500002,173.35455637500002,69.0,117.0
284,173.766718125,173.94239362500002,69.0,102.0
285,174.172123125,174.46773093750002,66.0,127.0
286,174.57752812500001,174.77009550000002,71.0,100.0
287,174.98293312500002,175.1771896875,68.0,127.0
288,175.38833812500002,176.9711068125,69.0,127.0
289,203.76668812500003,204.01330950000002,57.0,102.0
290,204.17209312500003,204.4406739375,69.0,97.0
291,204.577498125,204.85959243750003,68.0,117.0
292,204.982903125,205.30047037500003,66.0,102.0
293,205.793713125,206.07918581250001,62.0,112.0
294,206.199118125,206.29540181250002,61.0,99.0
295,206.40182062500003,206.67546900000002,61.0,96.0
296,206.80722562500003,207.02850918750002,59.0,95.0
297,207.41533312500002,207.65181937500003,66.0,127.0
298,207.82073812500002,207.93391368750002,66.0,102.0
299,208.023440625,208.212629625,68.0,112.0
300,208.428845625,208.83256143750003,64.0,96.0
301,208.834250625,208.92546675000003,64.0,93.0
302,209.03695312500003,209.18560162500003,64.0,107.0
303,209.44235812500003,209.53357425000002,64.0,97.0
304,209.645060625,209.89674956250002,59.0,92.0
305,210.05046562500002,210.54708675,61.0,102.0
306,210.86127562500002,210.945735,54.0,82.0
307,211.063978125,211.18053206250002,59.0,95.0
308,211.26668062500002,211.3325589375,61.0,112.0
309,211.469383125,211.71769368750003,62.0,102.0
310,211.874788125,212.09269331250002,62.0,107.0
311,212.280193125,212.47613887500003,62.0,100.0
312,212.685598125,212.7886385625,61.0,96.0
313,212.88830062500003,213.16870575000002,61.0,97.0
314,213.29370562500003,213.51836756250003,59.0,100.0
315,213.69911062500003,213.915326625,59.0,99.0
316,214.10451562500003,214.432218,56.0,100.0
317,214.71262312500002,214.976136375,57.0,95.0
318,215.11802812500002,215.25485231250002,56.0,95.0
319,215.320730625,215.49302775,57.0,99.0
320,215.726135625,215.976135375,59.0,86.0
321,216.131540625,216.71937787500002,61.0,112.0
322,216.73964812500003,216.93728306250003,57.0,100.0
323,217.14505312500003,217.37140425,69.0,107.0
324,217.550458125,217.793701125,68.0,127.0
325,217.955863125,218.32410600000003,66.0,127.0
326,218.766673125,219.01329450000003,66.0,122.0
327,219.172078125,219.266672625,69.0,97.0
328,219.37478062500003,219.6534965625,71.0,127.0
329,219.78018562500003,219.98626650000003,68.0,122.0
330,220.18559062500003,220.42376606250002,68.0,112.0
331,220.59099562500003,220.73626575000003,66.0,127.0
332,221.19910312500002,221.44234612500003,71.0,112.0
333,221.60450812500002,221.71937287500003,71.0,95.0
334,221.807210625,222.04369687500002,71.0,97.0
335,222.212615625,222.40518300000002,73.0,122.0
336,222.618020625,223.2379524375,69.0,100.0
337,224.036938125,224.15518125000003,66.0,117.0
338,224.23964062500002,224.3224108125,68.0,102.0
339,224.442343125,224.66362668750003,69.0,117.0
340,224.847748125,224.92545075,69.0,127.0
341,225.05045062500002,225.24639637500002,69.0,117.0
342,225.658558125,225.9406524375,68.0,122.0
343,226.06396312500001,226.31565206250002,66.0,122.0
344,226.46936812500002,226.631530125,71.0,102.0
345,226.87477312500002,227.05720537500002,68.0,127.0
346,227.28017812500002,228.70247400000002,69.0,127.0
347,230.52341812500003,230.6197018125,66.0,112.0
348,230.72612062500002,230.81902593750002,68.0,102.0
349,230.928823125,231.15179587500003,69.0,122.0
350,231.334228125,231.41699831250003,69.0,102.0
351,231.53693062500002,231.92375456250002,69.0,112.0
352,232.145038125,232.43557837500003,68.0,112.0
353,232.55044312500002,232.81057800000002,66.0,112.0
354,232.95584812500002,233.19064518750002,71.0,102.0
355,233.36125312500002,233.63827987500002,68.0,122.0
356,233.76665812500002,236.15179087500002,69.0,112.0
