,start,end,pitch,velocity
0,0.658783125,1.4037148125,69.0,54.0
1,0.658783125,1.7314171875000002,64.0,49.0
2,0.658783125,2.189187,73.0,57.0
3,1.064188125,2.5523623125,52.0,56.0
4,1.469593125,2.66891625,57.0,64.0
5,0.658783125,3.104726625,45.0,67.0
6,1.874998125,3.1233076875,64.0,44.0
7,2.6858081250000003,3.1401995625000003,52.0,46.0
8,3.4966181250000004,4.41215775,64.0,56.0
9,3.0912131250000003,4.4679009375000005,69.0,65.0
10,2.2804031250000003,5.1300624375,73.0,64.0
11,4.712833125,5.233102875,64.0,66.0
12,5.523643125,5.6334403125,61.0,37.0
13,5.118238125,5.790534750000001,56.0,49.0
14,4.307428125,6.327696375,49.0,34.0
15,5.523643125,6.3530341875000005,64.0,59.0
16,5.9290481250000004,6.354723375000001,56.0,43.0
17,3.9020231250000004,6.510128625000001,44.0,50.0
18,6.7398581250000005,7.128371250000001,64.0,46.0
19,5.523643125,7.135128000000001,68.0,53.0
20,6.3344531250000005,7.1638441875000005,61.0,62.0
21,7.9560731250000005,8.961139687500001,50.0,38.0
22,8.361478125000001,9.050666625000002,57.0,55.0
23,9.172288125000001,9.567558,50.0,50.0
24,8.766883125000001,9.734787562500001,62.0,63.0
25,7.1452631250000005,9.836138812500002,38.0,59.0
26,8.766883125000001,9.8766793125,66.0,56.0
27,9.983098125000001,10.2820843125,62.0,48.0
28,9.577693125000001,10.298976187500001,57.0,60.0
29,7.5506681250000005,10.396949062500001,45.0,51.0
30,10.388503125000002,11.374988625,62.0,70.0
31,10.388503125000002,13.055730187500002,38.0,49.0
32,10.793908125000002,13.103027437500002,45.0,30.0
33,11.199313125000002,13.239851625000002,50.0,27.0
34,10.388503125000002,13.6232971875,65.0,60.0
35,10.388503125000002,13.641878250000001,57.0,66.0
36,11.604718125000002,13.685797125,62.0,35.0
37,14.037148125000002,14.677350187500002,54.0,60.0
38,14.847958125000002,15.464511562500002,54.0,47.0
39,14.442553125000002,15.7145113125,59.0,65.0
40,15.658768125000002,16.045592062500003,54.0,50.0
41,13.631743125000002,16.116537937500002,47.0,70.0
42,15.253363125000002,16.631740125,66.0,99.0
43,16.064173125,16.9138344375,62.0,86.0
44,16.469578125,16.930726312500003,59.0,66.0
45,17.685793125,18.597954375,57.0,69.0
46,18.091198125000002,18.849643312500003,61.0,72.0
47,18.902008125000002,19.3766698125,57.0,47.0
48,16.874983125,19.5455885625,45.0,77.0
49,17.280388125,19.728020812500002,52.0,58.0
50,19.712818125000002,20.1756555,64.0,69.0
51,18.496603125,20.1756555,69.0,69.0
52,19.307413125,20.1807230625,61.0,99.0
53,20.929033125,21.8023430625,59.0,69.0
54,21.334438125000002,22.300653375000003,62.0,77.0
55,22.145248125000002,22.528693687500002,59.0,50.0
56,20.523628125000002,22.604707125,54.0,59.0
57,20.118223125,22.704369187500003,47.0,72.0
58,21.739843125000004,23.46619275,71.0,81.0
59,22.956058125000002,23.489841375,62.0,55.0
60,22.550653125000004,23.49321975,66.0,93.0
61,23.766868125000002,24.52024575,52.0,58.0
62,24.577678125000002,25.0523398125,61.0,54.0
63,24.172273125000004,25.329366562500002,57.0,62.0
64,25.388488125000002,25.7972715,52.0,55.0
65,23.361463125000004,25.912136250000003,45.0,66.0
66,24.983083125000004,26.584432875,64.0,92.0
67,26.199298125000002,26.83105425,57.0,79.0
68,25.793893125000004,27.0422026875,61.0,107.0
69,27.010108125000002,27.56754,54.0,63.0
70,27.820918125000002,28.385106750000002,54.0,62.0
71,27.415513125000004,28.858079250000003,66.0,102.0
72,28.226323125000004,29.148619500000002,61.0,78.0
73,28.631728125000002,29.155376250000003,54.0,56.0
74,26.604703125000004,29.207741062500002,42.0,89.0
75,29.442538125000002,29.910443062500004,57.0,72.0
76,29.645240625000003,29.950983562500003,61.0,60.0
77,29.037133125000004,29.974632187500003,66.0,102.0
78,30.658753125000004,31.665508875000004,49.0,58.0
79,31.064158125000002,32.035440937500006,52.0,68.0
80,31.874968125000002,32.3226028125,49.0,60.0
81,30.253348125000002,32.570913375,44.0,40.0
82,29.847943125000004,32.586116062500004,37.0,78.0
83,32.483075625000005,32.6300349375,49.0,58.0
84,32.685778125000006,33.12834525,52.0,71.0
85,32.280373125000004,33.1435479375,56.0,88.0
86,31.469563125000004,33.212804625000004,61.0,90.0
87,33.901993125000004,34.8057084375,50.0,71.0
88,34.307398125000006,35.111451375,57.0,64.0
89,35.118208125,35.47969425,50.0,72.0
90,34.712803125,35.61482925,62.0,68.0
91,33.091183125,35.739829125,38.0,62.0
92,33.496588125,35.8090858125,45.0,41.0
93,35.929018125000006,36.4188825,62.0,72.0
94,34.712803125,36.4442203125,66.0,61.0
95,35.523613125000004,36.4678689375,57.0,75.0
96,37.145233125000004,38.070907875,52.0,72.0
97,37.956043125,38.51347500000001,64.0,73.0
98,37.550638125000006,38.6840829375,59.0,72.0
99,38.361448125,38.972934,52.0,72.0
100,36.739828125,39.185771625,47.0,47.0
101,36.334423125,39.189150000000005,40.0,68.0
102,38.766853125000004,39.584419875,64.0,71.0
103,39.172258125000006,39.60131175,59.0,76.0
104,37.956043125,39.619892812500005,68.0,70.0
105,39.983068125,40.623270187500005,54.0,60.0
106,40.793878125000006,41.4104315625,54.0,47.0
107,40.388473125000004,41.6604313125,59.0,65.0
108,41.604688125,41.99151206250001,54.0,50.0
109,39.577663125,42.06245793750001,47.0,70.0
110,41.199283125,42.577660125,66.0,99.0
111,42.010093125000004,42.8597544375,62.0,86.0
112,42.415498125000006,42.87664631250001,59.0,66.0
113,43.631713125000005,44.543874375,57.0,69.0
114,44.037118125000006,44.7955633125,61.0,72.0
115,44.847928125,45.322589812500006,57.0,47.0
116,42.820903125,45.4915085625,45.0,77.0
117,43.226308125,45.67394081250001,52.0,58.0
118,45.658738125000006,46.121575500000006,64.0,69.0
119,44.442523125,46.121575500000006,69.0,69.0
120,45.253333125000005,46.1266430625,61.0,99.0
121,46.874953125000005,47.7482630625,59.0,69.0
122,47.28035812500001,48.246573375000004,62.0,77.0
123,48.091168125,48.4746136875,59.0,50.0
124,46.469548125,48.550627125000005,54.0,59.0
125,46.064143125,48.65028918750001,47.0,72.0
126,47.685763125,49.412112750000006,71.0,81.0
127,48.90197812500001,49.435761375000006,62.0,55.0
128,48.496573125000005,49.43913975,66.0,93.0
129,49.712788125,50.46616575,52.0,58.0
130,50.52359812500001,50.9982598125,61.0,54.0
131,50.118193125000005,51.27528656250001,57.0,62.0
132,51.334408125,51.7431915,52.0,55.0
133,49.307383125,51.858056250000004,45.0,66.0
134,50.929003125,52.530352875000005,64.0,92.0
135,52.14521812500001,52.77697425,57.0,79.0
136,51.739813125000005,52.9881226875,61.0,107.0
137,52.956028125,53.51346,54.0,63.0
138,53.76683812500001,54.33102675000001,54.0,62.0
139,53.361433125000005,54.803999250000004,66.0,102.0
140,54.172243125,55.0945395,61.0,78.0
141,54.577648125,55.101296250000004,54.0,56.0
142,52.550623125,55.15366106250001,42.0,89.0
143,55.38845812500001,55.8563630625,57.0,72.0
144,55.59116062500001,55.89690356250001,61.0,60.0
145,54.983053125000005,55.92055218750001,66.0,102.0
146,56.604673125000005,57.61142887500001,49.0,58.0
147,57.01007812500001,57.98136093750001,52.0,68.0
148,57.820888125,58.2685228125,49.0,60.0
149,56.199268125,58.516833375000004,44.0,40.0
150,55.793863125,58.532036062500005,37.0,78.0
151,58.428995625000006,58.57595493750001,49.0,58.0
152,58.63169812500001,59.07426525,52.0,71.0
153,58.226293125000005,59.089467937500004,56.0,88.0
154,57.41548312500001,59.158724625000005,61.0,90.0
155,59.847913125000005,60.7516284375,50.0,71.0
156,60.25331812500001,61.057371375,57.0,64.0
157,61.064128125,61.42561425,50.0,72.0
158,60.65872312500001,61.56074925000001,62.0,68.0
159,59.03710312500001,61.68574912500001,38.0,62.0
160,59.442508125,61.7550058125,45.0,41.0
161,61.469533125000005,62.28034312500001,57.0,75.0
162,61.87493812500001,62.28034312500001,62.0,72.0
163,60.65872312500001,62.28034312500001,66.0,61.0
164,62.28034312500001,62.56243743750001,68.0,62.0
165,62.28034312500001,62.577640125,59.0,59.0
166,62.28034312500001,62.57932931250001,64.0,68.0
167,62.685748125,62.974599187500004,59.0,60.0
168,62.685748125,62.983045125000004,68.0,59.0
169,62.685748125,62.998247812500004,64.0,62.0
170,63.091153125000005,63.334396125000005,52.0,34.0
171,63.091153125000005,63.356355562500006,59.0,78.0
172,63.091153125000005,63.36142312500001,68.0,68.0
173,62.28034312500001,63.368179875,40.0,73.0
174,63.091153125000005,63.36986906250001,64.0,74.0
175,62.685748125,63.380004187500006,47.0,46.0
176,63.49655812500001,63.63676068750001,40.0,42.0
177,63.49655812500001,63.672233625000004,47.0,52.0
178,63.49655812500001,63.6806795625,52.0,55.0
179,63.49655812500001,63.71615250000001,59.0,75.0
180,63.49655812500001,63.73642275,64.0,74.0
181,63.49655812500001,63.741490312500005,68.0,69.0
182,63.90196312500001,64.0725710625,47.0,43.0
183,63.90196312500001,64.07426025000001,40.0,52.0
184,63.90196312500001,64.12831425,52.0,75.0
185,63.90196312500001,64.14351693750001,59.0,83.0
186,63.90196312500001,64.14858450000001,68.0,83.0
187,63.90196312500001,64.158719625,64.0,85.0
188,64.30736812500001,64.4982463125,40.0,69.0
189,64.30736812500001,64.5387868125,52.0,85.0
190,64.30736812500001,64.55736787500001,59.0,89.0
191,64.30736812500001,64.5590570625,68.0,97.0
192,64.30736812500001,64.567503,64.0,93.0
193,64.71277312500001,64.868178375,52.0,88.0
194,64.71277312500001,64.89351618750001,40.0,66.0
195,64.71277312500001,64.9593945,59.0,82.0
196,64.71277312500001,64.9678404375,64.0,83.0
197,64.71277312500001,64.9779755625,68.0,86.0
198,65.118178125,65.3935156875,68.0,92.0
199,65.320880625,65.39858325,45.0,27.0
200,65.118178125,65.4002724375,64.0,93.0
201,65.118178125,65.47966425,59.0,88.0
202,66.131690625,66.1485825,63.0,44.0
203,66.131690625,66.1840554375,66.0,86.0
204,66.131690625,66.19587975,62.0,59.0
205,65.928988125,66.4678389375,50.0,95.0
206,66.334393125,66.66885225,66.0,112.0
207,66.334393125,66.67223062500001,62.0,90.0
208,66.73979812500001,66.79723050000001,66.0,52.0
209,66.73979812500001,66.80567643750001,62.0,52.0
210,66.537095625,66.81412237500001,50.0,88.0
211,65.523583125,66.9543249375,38.0,93.0
212,65.726285625,67.11479775000001,45.0,81.0
213,66.73979812500001,67.1401355625,57.0,90.0
214,66.94250062500001,67.2178381875,66.0,107.0
215,66.94250062500001,67.29047325,62.0,92.0
216,67.75331062500001,67.85635106250001,68.0,69.0
217,67.75331062500001,67.86141862500001,59.0,78.0
218,67.75331062500001,67.87324293750001,64.0,78.0
219,67.55060812500001,68.02358062500001,52.0,89.0
220,67.95601312500001,68.17053993750001,59.0,89.0
221,67.14520312500001,68.23641825,40.0,90.0
222,67.34790562500001,68.2752695625,47.0,90.0
223,68.158715625,68.27695875,52.0,97.0
224,67.95601312500001,68.3107425,64.0,112.0
225,67.95601312500001,68.60128275000001,68.0,127.0
226,68.564120625,68.733039375,64.0,96.0
227,68.361418125,68.7617555625,59.0,95.0
228,69.374930625,69.4813494375,61.0,48.0
229,69.374930625,69.483038625,56.0,65.0
230,69.374930625,69.4914845625,64.0,66.0
231,69.172228125,69.64857900000001,49.0,97.0
232,69.577633125,69.76513293750001,56.0,95.0
233,68.969525625,69.81749775,44.0,34.0
234,68.766823125,69.84452475,37.0,75.0
235,69.577633125,69.908713875,61.0,97.0
236,69.780335625,69.98472731250001,49.0,100.0
237,69.98303812500001,70.2837135,56.0,96.0
238,69.577633125,70.28878106250001,64.0,92.0
239,70.18574062500001,70.52019975,61.0,100.0
240,70.99655062500001,71.11310456250001,66.0,78.0
241,70.99655062500001,71.1198613125,61.0,86.0
242,70.99655062500001,71.1232396875,57.0,73.0
243,70.79384812500001,71.2955368125,54.0,99.0
244,71.19925312500001,71.31411787500001,57.0,58.0
245,70.59114562500001,71.43573937500001,49.0,35.0
246,70.38844312500001,71.4881041875,42.0,82.0
247,71.401955625,71.60127975,54.0,100.0
248,71.19925312500001,71.66884725000001,61.0,107.0
249,71.604658125,71.92222537500001,57.0,93.0
250,71.807360625,71.949252375,61.0,107.0
251,71.19925312500001,72.02526581250001,66.0,102.0
252,72.415468125,72.648576,59.0,95.0
253,72.618170625,72.7414813125,62.0,83.0
254,72.618170625,72.74485968750001,66.0,85.0
255,72.212765625,72.9272919375,54.0,92.0
256,73.023575625,73.1131025625,54.0,96.0
257,72.010063125,73.15533225,47.0,59.0
258,72.820873125,73.24992675,62.0,100.0
259,72.820873125,73.5218859375,66.0,112.0
260,73.42898062500001,73.60972368750001,62.0,93.0
261,73.22627812500001,73.64012906250001,59.0,99.0
262,74.23979062500001,74.3360743125,65.0,60.0
263,74.23979062500001,74.361412125,61.0,58.0
264,74.23979062500001,74.374925625,56.0,86.0
265,74.03708812500001,74.51850656250001,49.0,97.0
266,74.44249312500001,74.6198578125,56.0,90.0
267,73.83438562500001,74.69587125000001,44.0,34.0
268,73.63168312500001,74.73472256250001,37.0,81.0
269,74.44249312500001,74.73641175,61.0,74.0
270,74.64519562500001,74.9002629375,49.0,107.0
271,74.44249312500001,75.0691816875,65.0,63.0
272,74.847898125,75.17728968750001,56.0,107.0
273,75.050600625,75.270195,61.0,97.0
274,75.253303125,75.93911325,42.0,73.0
275,75.658708125,75.972897,54.0,99.0
276,75.456005625,75.97965375000001,49.0,75.0
277,75.861410625,76.081005,57.0,96.0
278,76.266815625,76.6975584375,56.0,107.0
279,76.46951812500001,76.7313421875,57.0,82.0
280,76.064113125,76.7989096875,44.0,102.0
281,76.67222062500001,76.96107168750001,61.0,127.0
282,77.28032812500001,77.48640900000001,57.0,107.0
283,77.48303062500001,77.645192625,61.0,97.0
284,77.07762562500001,77.74485468750001,52.0,93.0
285,77.88843562500001,78.0658003125,52.0,99.0
286,76.87492312500001,78.135057,45.0,76.0
287,78.091138125,78.34789462500001,61.0,127.0
288,77.68573312500001,78.381678375,64.0,100.0
289,78.293840625,78.63674568750001,57.0,107.0
290,79.104650625,79.24316400000001,57.0,81.0
291,79.307353125,79.3664746875,57.0,65.0
292,78.901948125,79.38167737500001,50.0,88.0
293,79.307353125,79.64519062500001,62.0,100.0
294,79.510055625,79.72627162500001,50.0,79.0
295,79.71275812500001,79.766812125,62.0,40.0
296,79.307353125,79.7972175,66.0,117.0
297,79.91546062500001,79.9779605625,63.0,66.0
298,78.496543125,79.99992,38.0,89.0
299,78.699245625,80.1299874375,45.0,79.0
300,79.91546062500001,80.20937925000001,66.0,89.0
301,79.71275812500001,80.24316300000001,57.0,99.0
302,79.91546062500001,80.5522843125,62.0,74.0
303,80.72627062500001,80.84451375,68.0,72.0
304,80.72627062500001,80.85464887500001,59.0,72.0
305,80.72627062500001,80.864784,64.0,74.0
306,80.52356812500001,80.9914730625,52.0,89.0
307,80.92897312500001,80.99654062500001,59.0,67.0
308,81.13167562500001,81.2482295625,52.0,99.0
309,80.11816312500001,81.24991875,40.0,73.0
310,80.32086562500001,81.280324125,47.0,63.0
311,80.92897312500001,81.30397275000001,64.0,97.0
312,80.92897312500001,81.7448506875,68.0,112.0
313,81.537080625,81.7701885,64.0,102.0
314,81.334378125,81.7921479375,59.0,96.0
315,82.347890625,82.45262025000001,56.0,96.0
316,82.347890625,82.459377,52.0,86.0
317,82.145188125,82.570863375,49.0,93.0
318,82.550593125,82.7786334375,52.0,85.0
319,81.942485625,82.81410637500001,44.0,62.0
320,81.739783125,82.87153875000001,37.0,99.0
321,82.550593125,83.0151196875,56.0,102.0
322,82.753295625,83.04214668750001,49.0,112.0
323,82.95599812500001,83.2516059375,52.0,97.0
324,83.15870062500001,83.31410587500001,56.0,127.0
325,83.56410562500001,83.81072700000001,49.0,38.0
326,83.96951062500001,84.118159125,57.0,78.0
327,83.76680812500001,84.21444281250001,54.0,102.0
328,84.17221312500001,84.39180750000001,57.0,93.0
329,84.17221312500001,84.49991550000001,61.0,122.0
330,83.36140312500001,84.5826856875,42.0,79.0
331,83.96951062500001,84.6130910625,49.0,34.0
332,84.37491562500001,84.71950987500001,54.0,112.0
333,84.577618125,84.93741506250001,57.0,102.0
334,84.780320625,84.96613125,61.0,127.0
335,85.388428125,85.60971168750001,59.0,88.0
336,85.591130625,85.7110629375,66.0,89.0
337,85.591130625,85.719508875,62.0,82.0
338,85.185725625,85.8833600625,54.0,97.0
339,85.996535625,86.12829225,54.0,97.0
340,84.983023125,86.14011656250001,47.0,89.0
341,85.793833125,86.15700843750001,62.0,99.0
342,86.19923812500001,86.22288675,62.0,33.0
343,85.793833125,86.33099475,66.0,102.0
344,86.40194062500001,86.5860620625,66.0,67.0
345,86.19923812500001,86.66038631250001,59.0,95.0
346,86.40194062500001,86.67727818750001,62.0,96.0
347,87.21275062500001,87.32423700000001,68.0,53.0
348,87.21275062500001,87.34112887500001,64.0,59.0
349,87.21275062500001,87.35464237500001,59.0,76.0
350,87.01004812500001,87.50666925,52.0,86.0
351,87.41545312500001,87.63335831250001,59.0,82.0
352,87.41545312500001,87.71275012500001,64.0,90.0
353,87.41545312500001,87.71612850000001,68.0,95.0
354,87.820858125,87.9678174375,59.0,86.0
355,86.60464312500001,88.0117363125,40.0,83.0
356,87.61815562500001,88.04720925000001,52.0,86.0
357,86.80734562500001,88.0590335625,47.0,86.0
358,87.820858125,88.18572262500001,68.0,63.0
359,87.820858125,88.19416856250001,64.0,69.0
360,88.023560625,88.21274962500001,59.0,102.0
361,88.631668125,88.895181375,57.0,96.0
362,88.834370625,88.97457318750001,61.0,95.0
363,88.428965625,89.08774875,52.0,52.0
364,89.037073125,89.26342425000001,57.0,88.0
365,89.037073125,89.510045625,64.0,89.0
366,89.037073125,89.5151131875,61.0,96.0
367,88.226263125,89.7043021875,45.0,90.0
368,89.23977562500001,89.82254531250001,52.0,85.0
369,89.44247812500001,89.84788312500001,57.0,88.0
370,89.64518062500001,89.84788312500001,61.0,92.0
371,89.64518062500001,89.84788312500001,64.0,78.0
372,90.65869312500001,90.7988956875,59.0,64.0
373,90.65869312500001,91.13166562500001,64.0,83.0
374,89.84788312500001,91.2245709375,40.0,97.0
375,90.65869312500001,91.28707087500001,52.0,83.0
376,90.25328812500001,91.31240868750001,47.0,58.0
377,90.65869312500001,91.31747625000001,68.0,83.0
378,91.06409812500002,91.40193562500001,59.0,79.0
379,91.874908125,92.39348868750001,56.0,72.0
380,91.469503125,93.04044750000001,44.0,70.0
381,92.68571812500001,93.36814987500001,56.0,77.0
382,93.09112312500001,93.8512575,44.0,47.0
383,93.49652812500001,93.976257375,56.0,81.0
384,93.90193312500001,94.70936475,61.0,112.0
385,94.30733812500002,94.74483768750001,56.0,69.0
386,92.280313125,94.77017550000001,64.0,75.0
387,95.523553125,96.530308875,50.0,89.0
388,95.523553125,96.94753818750002,66.0,96.0
389,96.33436312500001,97.02861918750001,62.0,68.0
390,96.73976812500001,97.17895687500001,50.0,67.0
391,94.712743125,97.435713375,38.0,71.0
392,95.92895812500001,97.564091625,57.0,63.0
393,97.14517312500001,97.6029429375,66.0,89.0
394,95.118148125,97.96611825000001,45.0,60.0
395,97.55057812500002,98.0387533125,62.0,55.0
396,97.955983125,99.4644275625,65.0,67.0
397,99.17219812500001,99.787062375,57.0,63.0
398,98.766793125,99.94922437500001,50.0,70.0
399,99.57760312500001,100.11645393750001,62.0,68.0
400,98.361388125,100.976250375,45.0,59.0
401,99.98300812500001,100.99145306250001,50.0,63.0
402,97.955983125,100.99989900000001,38.0,68.0
403,100.38841312500001,101.19415556250001,62.0,66.0
404,99.57760312500001,101.21442581250001,65.0,66.0
405,100.79381812500002,101.22793931250001,57.0,59.0
406,101.604628125,102.24483018750001,54.0,60.0
407,102.41543812500001,103.03199156250001,54.0,47.0
408,102.010033125,103.28199131250001,59.0,65.0
409,103.22624812500001,103.61307206250001,54.0,50.0
410,101.199223125,103.68401793750002,47.0,70.0
411,102.82084312500001,104.19922012500001,66.0,99.0
412,103.63165312500001,104.4813144375,62.0,86.0
413,104.03705812500002,104.4982063125,59.0,66.0
414,105.253273125,106.165434375,57.0,69.0
415,105.65867812500001,106.41712331250001,61.0,72.0
416,106.46948812500001,106.94414981250002,57.0,47.0
417,104.442463125,107.1130685625,45.0,77.0
418,104.847868125,107.29550081250001,52.0,58.0
419,107.28029812500002,107.74313550000001,64.0,69.0
420,106.06408312500001,107.74313550000001,69.0,69.0
421,106.87489312500001,107.74820306250001,61.0,99.0
422,108.496513125,109.3698230625,59.0,69.0
423,108.90191812500001,109.86813337500001,62.0,77.0
424,109.71272812500001,110.09617368750001,59.0,50.0
425,108.091108125,110.17218712500001,54.0,59.0
426,107.685703125,110.27184918750001,47.0,72.0
427,109.30732312500001,111.03367275000001,71.0,81.0
428,110.52353812500002,111.05732137500001,62.0,55.0
429,110.11813312500001,111.06069975000001,66.0,93.0
430,111.334348125,112.08772575,52.0,58.0
431,112.14515812500001,112.61981981250001,61.0,54.0
432,111.73975312500001,112.89684656250002,57.0,62.0
433,112.95596812500001,113.36475150000001,52.0,55.0
434,110.928943125,113.47961625,45.0,66.0
435,112.55056312500001,114.15191287500001,64.0,92.0
436,113.76677812500002,114.39853425000001,57.0,79.0
437,113.36137312500001,114.60968268750001,61.0,107.0
438,114.577588125,115.13502000000001,54.0,63.0
439,115.38839812500001,115.95258675000001,54.0,62.0
440,114.98299312500001,116.42555925,66.0,102.0
441,115.79380312500001,116.71609950000001,61.0,78.0
442,116.19920812500001,116.72285625,54.0,56.0
443,114.172183125,116.77522106250001,42.0,89.0
444,117.01001812500002,117.47792306250001,57.0,72.0
445,117.21272062500002,117.51846356250002,61.0,60.0
446,116.60461312500001,117.54211218750001,66.0,102.0
447,118.22623312500001,119.232988875,49.0,58.0
448,118.63163812500001,119.60292093750002,52.0,68.0
449,119.44244812500001,119.89008281250001,49.0,60.0
450,117.820828125,120.138393375,44.0,40.0
451,117.415423125,120.15359606250001,37.0,78.0
452,120.05055562500002,120.19751493750002,49.0,58.0
453,120.25325812500002,120.69582525000001,52.0,71.0
454,119.84785312500001,120.7110279375,56.0,88.0
455,119.03704312500001,120.78028462500001,61.0,90.0
456,121.46947312500001,122.3731884375,50.0,71.0
457,121.87487812500001,122.678931375,57.0,64.0
458,122.68568812500001,123.04717425000001,50.0,72.0
459,122.28028312500001,123.18230925000002,62.0,68.0
460,120.658663125,123.30730912500002,38.0,62.0
461,121.064068125,123.3765658125,45.0,41.0
462,123.49649812500002,123.98636250000001,62.0,72.0
463,122.28028312500001,124.01170031250001,66.0,61.0
464,123.09109312500001,124.03534893750002,57.0,75.0
465,124.71271312500001,125.638387875,52.0,72.0
466,125.52352312500001,126.08095500000002,64.0,73.0
467,125.11811812500001,126.25156293750001,59.0,72.0
468,125.92892812500001,126.54041400000001,52.0,72.0
469,124.307308125,126.753251625,47.0,47.0
470,123.901903125,126.75663000000002,40.0,68.0
471,126.33433312500001,127.15189987500001,64.0,71.0
472,126.73973812500002,127.16879175000001,59.0,76.0
473,125.52352312500001,127.18737281250002,68.0,70.0
474,127.753250625,127.91879100000001,57.0,82.0
475,127.550548125,128.0150746875,50.0,89.0
476,127.14514312500002,128.31406087500002,38.0,96.0
477,127.95595312500001,128.41203375,62.0,95.0
478,128.15865562500002,128.5218309375,50.0,93.0
479,127.347845625,128.729601,45.0,93.0
480,128.361358125,128.7718306875,57.0,96.0
481,127.95595312500001,128.783655,66.0,99.0
482,128.56406062500002,128.80392525000002,62.0,85.0
483,129.172168125,129.6502081875,52.0,92.0
484,129.374870625,129.6975054375,59.0,82.0
485,129.780275625,129.8765593125,52.0,89.0
486,128.766763125,129.88838362500002,40.0,79.0
487,128.969465625,129.9373700625,47.0,97.0
488,129.57757312500001,130.04716725,68.0,107.0
489,129.57757312500001,130.0657483125,64.0,96.0
490,130.185680625,130.3664236875,64.0,79.0
491,130.185680625,130.38162637500002,68.0,97.0
492,129.98297812500002,130.4373695625,59.0,96.0
493,130.79378812500002,131.27689575000002,49.0,92.0
494,130.996490625,131.287030875,52.0,92.0
495,130.591085625,131.47959825,44.0,39.0
496,130.38838312500002,131.49986850000002,37.0,82.0
497,131.401895625,131.64513862500002,49.0,93.0
498,131.19919312500002,131.64513862500002,61.0,100.0
499,131.19919312500002,131.6569629375,56.0,95.0
500,131.60459812500002,131.96608425000002,52.0,96.0
501,131.807300625,131.9677734375,61.0,97.0
502,131.807300625,131.98973287500002,56.0,95.0
503,132.415408125,132.901894125,54.0,99.0
504,132.618110625,132.918786,57.0,90.0
505,132.212705625,133.10121825000002,49.0,44.0
506,132.01000312500003,133.151893875,42.0,95.0
507,133.02351562500002,133.260001875,54.0,97.0
508,132.820813125,133.270137,61.0,102.0
509,133.226218125,133.50831243750002,57.0,96.0
510,133.42892062500002,133.58601506250002,61.0,117.0
511,132.820813125,133.60966368750002,66.0,107.0
512,134.037028125,134.219460375,59.0,93.0
513,134.23973062500002,134.3562845625,66.0,83.0
514,134.23973062500002,134.37655481250002,62.0,77.0
515,133.83432562500002,134.54209518750002,54.0,86.0
516,134.64513562500002,134.7447976875,54.0,97.0
517,133.631623125,134.7684463125,47.0,72.0
518,134.442433125,134.90189212500002,66.0,107.0
519,134.442433125,134.908648875,62.0,100.0
520,135.05054062500002,135.20932425,62.0,88.0
521,135.05054062500002,135.216081,66.0,99.0
522,134.847838125,135.232972875,59.0,117.0
523,135.861350625,135.9508775625,61.0,55.0
524,135.861350625,135.97790456250002,53.0,55.0
525,135.861350625,135.9846613125,56.0,69.0
526,136.06405312500002,136.131620625,53.0,48.0
527,135.658648125,136.14175575000002,49.0,83.0
528,136.06405312500002,136.35966093750002,56.0,102.0
529,136.06405312500002,136.38499875000002,61.0,100.0
530,135.455945625,136.648512,44.0,33.0
531,135.253243125,136.7076335625,37.0,89.0
532,136.266755625,136.810674,49.0,97.0
533,136.672160625,136.8529036875,56.0,97.0
534,136.46945812500002,136.85797125000002,53.0,102.0
535,136.672160625,136.88330906250002,61.0,107.0
536,137.28026812500002,138.03364575,52.0,58.0
537,138.09107812500002,138.5657398125,61.0,54.0
538,137.68567312500002,138.8427665625,57.0,62.0
539,138.901888125,139.3106715,52.0,55.0
540,136.87486312500002,139.42553625000002,45.0,66.0
541,138.49648312500003,140.09783287500002,64.0,92.0
542,139.712698125,140.34445425,57.0,79.0
543,139.307293125,140.5556026875,61.0,107.0
544,140.523508125,141.08094000000003,54.0,63.0
545,141.334318125,141.89850675000002,54.0,62.0
546,140.928913125,142.37147925000002,66.0,102.0
547,141.739723125,142.6620195,61.0,78.0
548,142.145128125,142.66877625,54.0,56.0
549,140.118103125,142.7211410625,42.0,89.0
550,142.95593812500002,143.42384306250003,57.0,72.0
551,143.158640625,143.46438356250002,61.0,60.0
552,142.55053312500002,143.4880321875,66.0,102.0
553,143.76674812500002,144.27519356250002,49.0,90.0
554,143.969450625,144.31742325000002,56.0,69.0
555,143.564045625,144.6062743125,44.0,63.0
556,143.36134312500002,144.61809862500002,37.0,95.0
557,144.374855625,144.753233625,49.0,93.0
558,144.57755812500002,144.82755787500002,56.0,96.0
559,144.17215312500002,144.8562740625,64.0,93.0
560,144.780260625,145.08769275,61.0,100.0
561,145.388368125,145.8224893125,54.0,99.0
562,145.59107062500001,145.9914080625,57.0,85.0
563,145.185665625,146.0860025625,49.0,67.0
564,144.98296312500003,146.09275931250002,42.0,75.0
565,145.99647562500002,146.25661050000002,54.0,96.0
566,146.199178125,146.5184345625,61.0,122.0
567,145.793773125,146.53194806250002,66.0,117.0
568,146.40188062500002,146.55052912500003,57.0,96.0
569,147.009988125,147.259987875,59.0,93.0
570,147.21269062500002,147.40863637500001,62.0,88.0
571,146.80728562500002,147.52181193750002,54.0,88.0
572,146.604583125,148.1366761875,47.0,69.0
573,147.61809562500002,148.25660850000003,54.0,100.0
574,148.02350062500003,148.287013875,59.0,97.0
575,147.820798125,148.3022165625,62.0,93.0
576,147.415393125,148.31741925,66.0,117.0
577,148.631608125,148.88498625000003,59.0,96.0
578,148.834310625,149.0420806875,62.0,90.0
579,148.42890562500003,149.1366751875,54.0,85.0
580,149.239715625,149.81403937500002,54.0,96.0
581,149.44241812500002,149.8427555625,62.0,102.0
582,149.03701312500002,149.8596474375,66.0,122.0
583,149.645120625,149.8697825625,59.0,112.0
584,149.84782312500002,149.8697825625,59.0,59.0
585,148.226203125,149.87147175,47.0,79.0
586,149.84782312500002,150.1299174375,68.0,62.0
587,149.84782312500002,150.1468093125,64.0,68.0
588,150.25322812500002,150.5420791875,59.0,60.0
589,150.25322812500002,150.550525125,68.0,59.0
590,150.25322812500002,150.5657278125,64.0,62.0
591,150.65863312500002,150.901876125,52.0,34.0
592,150.65863312500002,150.92383556250002,59.0,78.0
593,150.65863312500002,150.928903125,68.0,68.0
594,149.84782312500002,150.93565987500003,40.0,73.0
595,150.65863312500002,150.9373490625,64.0,74.0
596,150.25322812500002,150.9474841875,47.0,46.0
597,151.06403812500002,151.2042406875,40.0,42.0
598,151.06403812500002,151.239713625,47.0,52.0
599,151.06403812500002,151.2481595625,52.0,55.0
600,151.06403812500002,151.2836325,59.0,75.0
601,151.06403812500002,151.30390275000002,64.0,74.0
602,151.06403812500002,151.3089703125,68.0,69.0
603,151.46944312500003,151.64005106250002,47.0,43.0
604,151.46944312500003,151.64174025000003,40.0,52.0
605,151.46944312500003,151.69579425,52.0,75.0
606,151.46944312500003,151.71099693750003,59.0,83.0
607,151.46944312500003,151.71606450000002,68.0,83.0
608,151.46944312500003,151.72619962500002,64.0,85.0
609,151.874848125,152.0657263125,40.0,69.0
610,151.874848125,152.10626681250002,52.0,85.0
611,151.874848125,152.124847875,59.0,89.0
612,151.874848125,152.1265370625,68.0,97.0
613,151.874848125,152.134983,64.0,93.0
614,152.280253125,152.435658375,52.0,88.0
615,152.280253125,152.4609961875,40.0,66.0
616,152.280253125,152.52687450000002,59.0,82.0
617,152.280253125,152.53532043750002,64.0,83.0
618,152.280253125,152.54545556250002,68.0,86.0
619,152.685658125,152.9609956875,68.0,92.0
620,152.685658125,152.96775243750002,64.0,93.0
621,152.685658125,153.04714425,59.0,88.0
622,153.496468125,153.945792,50.0,85.0
623,153.69917062500002,153.98464331250003,57.0,90.0
624,153.901873125,154.3832915625,66.0,112.0
625,153.901873125,154.3917375,62.0,95.0
626,154.10457562500002,154.52011575,50.0,97.0
627,153.091063125,154.56910218750002,38.0,86.0
628,153.29376562500002,154.65693993750003,45.0,96.0
629,154.307278125,154.773493875,57.0,92.0
630,154.50998062500003,154.77687225000003,62.0,89.0
631,154.50998062500003,154.81741275000002,66.0,99.0
632,155.320790625,155.4339661875,68.0,90.0
633,155.320790625,155.45761481250003,59.0,82.0
634,155.320790625,155.45761481250003,64.0,92.0
635,155.118088125,155.57754712500002,52.0,92.0
636,155.52349312500002,155.59274981250002,59.0,58.0
637,154.712683125,155.80051987500002,40.0,78.0
638,154.91538562500003,155.83599281250002,47.0,97.0
639,155.726195625,155.83599281250002,52.0,100.0
640,155.52349312500002,155.86301981250003,64.0,95.0
641,155.52349312500002,156.28362750000002,68.0,112.0
642,156.131600625,156.33430312500002,64.0,92.0
643,155.92889812500002,156.3562625625,59.0,100.0
644,156.942410625,157.05051862500002,52.0,74.0
645,156.942410625,157.053897,56.0,95.0
646,156.942410625,157.064032125,61.0,85.0
647,156.73970812500002,157.1670725625,49.0,93.0
648,156.537005625,157.37146425,44.0,40.0
649,156.33430312500002,157.405248,37.0,88.0
650,157.347815625,157.53193706250002,49.0,107.0
651,157.14511312500002,157.6332883125,56.0,99.0
652,157.55051812500002,157.87484212500001,52.0,100.0
653,157.753220625,157.915382625,56.0,95.0
654,157.14511312500002,157.93903125000003,61.0,99.0
655,158.361328125,158.810652,54.0,97.0
656,158.56403062500002,158.8461249375,57.0,81.0
657,158.56403062500002,158.85963843750002,61.0,95.0
658,158.56403062500002,158.86808437500002,66.0,89.0
659,158.158625625,159.22281375,49.0,44.0
660,157.95592312500003,159.388354125,42.0,82.0
661,159.172138125,159.4136919375,54.0,67.0
662,158.96943562500002,159.49308375,61.0,112.0
663,158.96943562500002,159.54038100000002,66.0,112.0
664,159.37484062500002,159.567408,57.0,107.0
665,159.982948125,160.21267762500003,59.0,93.0
666,160.18565062500002,160.33092075000002,62.0,88.0
667,160.18565062500002,160.33092075000002,66.0,95.0
668,159.78024562500002,160.5015286875,54.0,97.0
669,160.59105562500002,160.672136625,54.0,99.0
670,159.577543125,160.699163625,47.0,82.0
671,160.388353125,160.800514875,62.0,100.0
672,160.388353125,161.0758524375,66.0,107.0
673,160.99646062500003,161.14004156250002,62.0,107.0
674,160.793758125,161.199163125,59.0,100.0
675,161.60456812500001,162.09105412500003,49.0,97.0
676,161.807270625,162.0944325,53.0,95.0
677,161.40186562500003,162.27855393750002,44.0,34.0
678,161.199163125,162.35625656250002,37.0,97.0
679,162.00997312500002,162.46943212500003,61.0,99.0
680,162.00997312500002,162.48463481250002,56.0,96.0
681,162.212675625,162.50152668750002,49.0,117.0
682,162.41537812500002,162.7211210625,53.0,100.0
683,162.618080625,162.783621,56.0,117.0
684,162.618080625,162.79544531250002,61.0,112.0
685,162.82078312500002,163.50152568750002,42.0,78.0
686,163.22618812500002,163.5589580625,54.0,102.0
687,163.023485625,163.57078237500002,49.0,97.0
688,163.428890625,163.719430875,57.0,99.0
689,163.834295625,164.2988221875,56.0,99.0
690,163.63159312500002,164.30388975000002,44.0,107.0
691,164.03699812500003,164.3917275,57.0,90.0
692,164.239700625,164.41706531250003,66.0,107.0
693,164.84780812500003,165.0724700625,57.0,117.0
694,165.05051062500002,165.22449693750002,61.0,107.0
695,164.645105625,165.26334825,52.0,86.0
696,164.44240312500003,165.56909118750002,45.0,90.0
697,165.45591562500002,165.6079425,52.0,102.0
698,165.658618125,166.0488204375,61.0,127.0
699,165.86132062500002,166.064023125,59.0,102.0
700,165.253213125,166.064023125,64.0,100.0
701,166.469428125,166.92888712500002,50.0,82.0
702,166.67213062500002,166.95760331250003,57.0,89.0
703,167.07753562500002,167.26334625,50.0,89.0
704,166.874833125,167.314021875,62.0,83.0
705,166.064023125,167.49307575,38.0,102.0
706,166.26672562500002,167.648481,45.0,95.0
707,166.874833125,167.66875125,66.0,100.0
708,167.280238125,167.7548998125,57.0,99.0
709,167.48294062500003,168.00658875000002,62.0,99.0
710,168.293750625,168.42043968750002,68.0,89.0
711,168.293750625,168.4407099375,59.0,82.0
712,168.293750625,168.442399125,64.0,86.0
713,168.09104812500001,168.570777375,52.0,85.0
714,168.49645312500002,168.57753412500003,59.0,58.0
715,167.685643125,168.80895281250002,40.0,86.0
716,168.699155625,168.810642,52.0,100.0
717,167.88834562500003,168.83429062500002,47.0,85.0
718,168.49645312500002,168.8798986875,64.0,86.0
719,169.104560625,169.29712800000001,64.0,96.0
720,168.49645312500002,169.29712800000001,68.0,100.0
721,168.90185812500002,169.34949281250002,59.0,97.0
722,169.915370625,169.99476243750001,61.0,50.0
723,169.915370625,170.03023537500002,56.0,62.0
724,169.71266812500002,170.17719468750002,49.0,83.0
725,169.915370625,170.226181125,52.0,85.0
726,169.509965625,170.37145125,44.0,37.0
727,169.30726312500002,170.39847825,37.0,92.0
728,170.11807312500002,170.58428887500003,56.0,96.0
729,170.320775625,170.5859780625,49.0,102.0
730,170.11807312500002,170.59273481250003,61.0,100.0
731,170.52347812500003,170.85962643750003,52.0,97.0
732,170.726180625,170.8782075,56.0,102.0
733,170.726180625,170.8866534375,61.0,90.0
734,171.53699062500002,171.65523375,57.0,73.0
735,171.53699062500002,171.6704364375,66.0,86.0
736,171.53699062500002,171.68394993750002,61.0,92.0
737,171.33428812500003,171.80726062500003,54.0,93.0
738,171.131585625,171.98462531250001,49.0,38.0
739,170.92888312500003,172.02178743750002,42.0,76.0
740,171.94239562500002,172.1738143125,54.0,100.0
741,171.739693125,172.216044,61.0,97.0
742,171.739693125,172.2565845,66.0,100.0
743,172.145098125,172.45253025000002,57.0,100.0
744,172.34780062500002,172.4998275,61.0,112.0
745,172.34780062500002,172.52009775000002,66.0,56.0
746,172.955908125,173.2413808125,59.0,81.0
747,173.15861062500002,173.2819213125,62.0,85.0
748,173.15861062500002,173.2819213125,66.0,95.0
749,172.75320562500002,173.4998265,54.0,79.0
750,173.361313125,173.67550200000002,66.0,102.0
751,173.361313125,173.68225875000002,62.0,96.0
752,173.56401562500002,173.79036675,54.0,96.0
753,172.34780062500002,173.8241505,47.0,73.0
754,173.766718125,173.91874500000003,66.0,100.0
755,173.766718125,173.93394768750002,62.0,96.0
756,173.96942062500003,174.0859745625,66.0,63.0
757,173.96942062500003,174.14678531250001,62.0,59.0
758,173.96942062500003,174.15860962500003,59.0,97.0
759,174.57752812500001,174.9981358125,52.0,95.0
760,174.780230625,175.05387900000002,59.0,86.0
761,174.98293312500002,175.41198675,64.0,112.0
762,175.38833812500002,175.41198675,64.0,93.0
763,174.98293312500002,175.496446125,68.0,117.0
764,175.38833812500002,175.496446125,68.0,72.0
765,175.185635625,175.54543256250003,59.0,95.0
766,174.37482562500003,175.624824375,47.0,88.0
767,174.172123125,175.6434054375,40.0,95.0
768,175.185635625,175.6771891875,52.0,100.0
769,176.19914812500002,176.44070193750002,57.0,99.0
770,175.79374312500002,176.5048910625,52.0,89.0
771,176.401850625,176.6940800625,61.0,100.0
772,176.60455312500002,177.13157962500003,64.0,99.0
773,177.00995812500003,177.13833637500002,61.0,112.0
774,175.591040625,177.15691743750003,45.0,97.0
775,176.807255625,177.40353881250002,52.0,97.0
776,177.212660625,177.5994845625,61.0,117.0
777,177.212660625,177.60117375000002,57.0,117.0
778,177.212660625,177.8393491875,64.0,95.0
779,178.02347062500002,178.1771866875,64.0,72.0
780,178.02347062500002,178.1839434375,61.0,75.0
781,178.02347062500002,178.185632625,57.0,74.0
782,177.618065625,178.246443375,52.0,97.0
783,178.226173125,178.40522700000002,57.0,86.0
784,178.226173125,178.476172875,61.0,107.0
785,178.226173125,178.4846188125,64.0,96.0
786,178.631578125,178.7548888125,61.0,117.0
787,178.631578125,178.75657800000002,64.0,97.0
788,178.631578125,178.75826718750002,57.0,90.0
789,178.42887562500002,179.00657775000002,52.0,93.0
790,178.83428062500002,179.0217804375,61.0,97.0
791,178.83428062500002,179.04880743750002,57.0,85.0
792,177.41536312500003,179.053875,45.0,92.0
793,178.83428062500002,179.05725337500002,64.0,89.0
794,179.442388125,179.91873900000002,50.0,82.0
795,179.64509062500002,180.06907668750003,57.0,83.0
796,180.05049562500002,180.23123868750002,50.0,81.0
797,179.036983125,180.49137356250003,38.0,78.0
798,180.253198125,180.56569781250002,62.0,90.0
799,179.847793125,180.5690761875,66.0,107.0
800,179.23968562500002,180.57414375000002,45.0,66.0
801,180.45590062500003,180.6839409375,57.0,96.0
802,181.06400812500002,181.449142875,52.0,85.0
803,181.46941312500002,181.57583193750003,52.0,78.0
804,180.658603125,181.68562912500002,40.0,77.0
805,181.26671062500003,181.69407506250002,59.0,93.0
806,180.86130562500003,181.69745343750003,47.0,67.0
807,181.87481812500002,182.21941237500002,64.0,86.0
808,181.46941312500002,182.243061,68.0,102.0
809,182.077520625,182.2920474375,59.0,89.0
810,182.68562812500002,183.145087125,49.0,83.0
811,182.482925625,183.3359653125,44.0,35.0
812,182.888330625,183.34441125,61.0,88.0
813,182.28022312500002,183.36805987500003,37.0,89.0
814,183.293735625,183.52853268750002,49.0,90.0
815,183.49643812500003,183.7582621875,64.0,59.0
816,183.09103312500002,183.84103237500003,68.0,102.0
817,183.699140625,183.90859987500002,61.0,92.0
818,184.30724812500003,184.756572,54.0,82.0
819,184.10454562500001,184.91197725,49.0,61.0
820,184.50995062500002,184.945761,57.0,82.0
821,183.90184312500003,184.999815,42.0,69.0
822,184.91535562500002,185.12988243750002,54.0,82.0
823,185.118058125,185.44913887500002,61.0,99.0
824,185.32076062500002,185.4998145,57.0,88.0
825,184.712653125,185.51839556250002,66.0,100.0
826,185.928868125,186.17211112500001,59.0,88.0
827,186.13157062500002,186.35792175,62.0,95.0
828,185.72616562500002,186.44238112500003,54.0,78.0
829,186.53697562500003,186.61467825000003,54.0,78.0
830,185.523463125,186.6771781875,47.0,64.0
831,186.334273125,187.1096101875,66.0,107.0
832,186.739678125,187.1163669375,62.0,93.0
833,186.94238062500003,187.13156962500003,59.0,88.0
834,187.55048812500002,187.99305525000003,49.0,71.0
835,187.75319062500003,188.04204168750002,61.0,95.0
836,187.95589312500002,188.26839281250003,65.0,69.0
837,187.145083125,188.29035225,37.0,81.0
838,187.34778562500003,188.34440625000002,44.0,54.0
839,188.158595625,188.6433924375,49.0,99.0
840,188.564000625,188.74812206250002,65.0,37.0
841,188.36129812500002,188.76670312500002,61.0,92.0
842,187.95589312500002,188.76670312500002,68.0,81.0
843,188.76670312500002,189.44575650000002,42.0,64.0
844,188.969405625,189.49981050000002,54.0,93.0
845,189.17210812500002,189.52683750000003,61.0,88.0
846,189.374810625,189.61129687500002,70.0,76.0
847,189.780215625,190.1754855,61.0,77.0
848,189.57751312500002,190.2008233125,44.0,95.0
849,189.98291812500003,190.2278503125,66.0,39.0
850,190.185620625,190.3663636875,70.0,74.0
851,190.59102562500001,191.22447093750003,52.0,89.0
852,190.99643062500002,191.2278493125,61.0,82.0
853,190.79372812500003,191.270079,57.0,73.0
854,191.40183562500002,191.50656525000002,52.0,74.0
855,190.38832312500003,191.5268355,45.0,83.0
856,191.199133125,191.90352431250002,64.0,86.0
857,191.604538125,191.90521350000003,61.0,99.0
858,191.80724062500002,192.08257818750002,57.0,82.0
859,192.415348125,192.84271256250003,50.0,92.0
860,192.61805062500002,192.9744691875,57.0,82.0
861,193.02345562500003,193.216023,50.0,99.0
862,192.009943125,193.5251443125,38.0,82.0
863,193.226158125,193.62818475000003,62.0,96.0
864,192.820753125,193.64338743750002,66.0,112.0
865,192.21264562500002,193.65183337500002,45.0,78.0
866,193.42886062500003,193.67717118750002,57.0,92.0
867,194.03696812500002,194.48967037500003,52.0,96.0
868,193.631563125,194.69575125000003,40.0,92.0
869,194.23967062500003,194.70926475000002,59.0,96.0
870,193.83426562500003,194.72277825,47.0,89.0
871,194.645075625,194.74473768750002,52.0,72.0
872,194.84777812500002,195.2244669375,64.0,85.0
873,194.44237312500002,195.2244669375,68.0,107.0
874,195.050480625,195.24304800000002,59.0,90.0
875,195.65858812500002,196.08933093750002,49.0,78.0
876,195.25318312500002,196.3190604375,37.0,67.0
877,195.455885625,196.3190604375,44.0,35.0
878,195.861290625,196.378182,61.0,89.0
879,196.266695625,196.53527643750002,49.0,90.0
880,196.46939812500003,196.80385725000002,64.0,38.0
881,196.06399312500002,196.8427085625,68.0,99.0
882,196.672100625,196.88324906250003,61.0,96.0
883,197.28020812500003,197.7312211875,54.0,85.0
884,197.48291062500002,197.85453187500002,66.0,99.0
885,197.07750562500001,197.9271669375,49.0,66.0
886,196.87480312500003,197.96095068750003,42.0,72.0
887,197.88831562500002,198.12311268750003,54.0,93.0
888,198.091018125,198.34777462500003,69.0,59.0
889,197.68561312500003,198.4187205,73.0,117.0
890,198.29372062500002,198.50993662500002,66.0,81.0
891,198.901828125,199.1433819375,59.0,89.0
892,199.10453062500002,199.26162506250003,62.0,88.0
893,198.69912562500002,199.42209787500002,54.0,72.0
894,199.50993562500003,199.624800375,54.0,88.0
895,198.496423125,199.69574625,47.0,62.0
896,199.712638125,200.00824593750002,62.0,96.0
897,199.307233125,200.0555431875,66.0,107.0
898,199.91534062500003,200.118043125,59.0,93.0
899,200.52344812500002,200.97615037500003,59.0,69.0
900,200.72615062500003,201.03527193750003,62.0,74.0
901,200.32074562500003,201.219393375,54.0,73.0
902,201.131555625,201.25655550000002,59.0,82.0
903,200.118043125,201.29202843750002,47.0,67.0
904,201.33425812500002,201.64169025,66.0,86.0
905,200.92885312500002,201.67040643750002,71.0,88.0
906,201.536960625,201.71432531250002,62.0,85.0
907,202.14506812500002,202.61297306250003,52.0,85.0
908,202.347770625,202.74810806250002,59.0,68.0
909,202.55047312500002,203.0454050625,64.0,90.0
910,202.55047312500002,203.0454050625,68.0,100.0
911,202.95587812500003,203.253175125,59.0,85.0
912,201.73966312500002,203.2616210625,40.0,78.0
913,203.158580625,203.28020212500002,64.0,75.0
914,203.158580625,203.28189131250002,68.0,88.0
915,201.942365625,203.38831012500003,47.0,67.0
916,202.753175625,203.59439100000003,52.0,96.0
917,203.36128312500003,203.854525875,59.0,86.0
918,203.36128312500003,203.90013393750002,64.0,100.0
919,203.96939062500002,204.0116203125,64.0,31.0
920,203.36128312500003,204.0521608125,68.0,102.0
921,203.76668812500003,204.25317412500002,52.0,89.0
922,203.96939062500002,204.2785119375,59.0,69.0
923,204.37479562500002,204.5183765625,52.0,73.0
924,203.56398562500002,204.5268225,47.0,68.0
925,203.36128312500003,204.53020087500002,40.0,90.0
926,204.17209312500003,204.89337618750002,64.0,82.0
927,204.17209312500003,204.95080856250001,68.0,95.0
928,204.577498125,205.0082409375,59.0,72.0
929,204.78020062500002,206.31567206250003,38.0,71.0
930,205.793713125,206.482901625,50.0,37.0
931,205.388308125,206.65688793750002,45.0,37.0
932,205.793713125,206.72952300000003,66.0,56.0
933,205.793713125,206.7413473125,62.0,63.0
934,207.41533312500002,207.55215731250001,68.0,42.0
935,207.41533312500002,207.6619545,52.0,52.0
936,206.60452312500001,207.72445443750001,40.0,50.0
937,207.00992812500002,207.72614362500002,47.0,53.0
938,207.41533312500002,208.266683625,64.0,61.0
939,207.618035625,208.27175118750003,68.0,24.0
940,207.82073812500002,208.28695387500002,59.0,59.0
941,208.22614312500002,209.26837181250002,37.0,61.0
942,208.63154812500002,209.29370962500002,44.0,27.0
943,209.03695312500003,209.53695262500003,49.0,39.0
944,209.03695312500003,209.90688468750002,68.0,57.0
945,209.44235812500003,209.93897925000002,61.0,56.0
946,210.25316812500003,210.92377556250003,49.0,30.0
947,209.84776312500003,210.97951875,42.0,47.0
948,210.65857312500003,211.02681600000003,54.0,36.0
949,210.65857312500003,211.44742368750002,61.0,74.0
950,211.063978125,211.503166875,57.0,66.0
951,211.874788125,212.2379634375,54.0,56.0
952,211.469383125,212.30046337500002,47.0,72.0
953,212.280193125,213.12647606250002,66.0,102.0
954,212.685598125,213.14674631250003,59.0,72.0
955,213.49640812500002,214.16363718750003,44.0,40.0
956,213.09100312500001,214.19404256250002,37.0,75.0
957,213.90181312500002,214.54032600000002,49.0,46.0
958,214.30721812500002,214.64336643750002,53.0,71.0
959,213.90181312500002,214.73796093750002,56.0,83.0
960,215.11802812500002,215.49978450000003,54.0,86.0
961,214.71262312500002,215.52512231250003,42.0,47.0
962,215.52343312500003,216.19235137500002,44.0,72.0
963,215.92883812500003,216.31566206250002,56.0,67.0
964,216.73964812500003,217.27005300000002,52.0,53.0
965,217.34775562500002,217.82917406250002,52.0,56.0
966,217.550458125,217.9305253125,61.0,67.0
967,216.33424312500003,217.95079556250002,45.0,56.0
968,217.14505312500003,217.95417393750003,64.0,82.0
969,217.75316062500002,217.99302525000002,57.0,74.0
970,218.361268125,218.78863256250003,50.0,92.0
971,218.56397062500002,218.9203891875,57.0,82.0
972,218.96937562500003,219.161943,50.0,99.0
973,217.955863125,219.47106431250003,38.0,82.0
974,219.172078125,219.57410475000003,62.0,96.0
975,218.766673125,219.58930743750003,66.0,112.0
976,218.15856562500002,219.59775337500002,45.0,78.0
977,219.37478062500003,219.62309118750002,57.0,92.0
978,219.98288812500002,220.43559037500003,52.0,96.0
979,219.57748312500001,220.64167125000003,40.0,92.0
980,220.18559062500003,220.65518475000002,59.0,96.0
981,219.78018562500003,220.66869825,47.0,89.0
982,220.59099562500003,220.69065768750002,52.0,72.0
983,220.79369812500002,221.1703869375,64.0,85.0
984,220.38829312500002,221.1703869375,68.0,107.0
985,220.996400625,221.18896800000002,59.0,90.0
986,221.60450812500002,222.03525093750002,49.0,78.0
987,221.19910312500002,222.26498043750001,37.0,67.0
988,221.401805625,222.26498043750001,44.0,35.0
989,221.807210625,222.324102,61.0,89.0
990,222.212615625,222.48119643750002,49.0,90.0
991,222.41531812500003,222.74977725000002,64.0,38.0
992,222.00991312500003,222.7886285625,68.0,99.0
993,222.618020625,222.82916906250003,61.0,96.0
994,223.22612812500003,223.6771411875,54.0,85.0
995,223.42883062500002,223.80045187500002,66.0,99.0
996,223.02342562500002,223.87308693750003,49.0,66.0
997,222.82072312500003,223.90687068750003,42.0,72.0
998,223.83423562500002,224.06903268750003,54.0,93.0
999,224.036938125,224.29369462500003,69.0,59.0
1000,223.63153312500003,224.3646405,73.0,117.0
1001,224.23964062500002,224.45585662500002,66.0,81.0
1002,224.847748125,225.0893019375,59.0,89.0
1003,225.05045062500002,225.20754506250003,62.0,88.0
1004,224.64504562500002,225.36801787500002,54.0,72.0
1005,225.45585562500003,225.570720375,54.0,88.0
1006,224.442343125,225.64166625000001,47.0,62.0
1007,225.658558125,225.95416593750002,62.0,96.0
1008,225.253153125,226.0014631875,66.0,107.0
1009,225.86126062500003,226.11463875,59.0,93.0
1010,226.46936812500002,226.9575433125,52.0,89.0
1011,226.67207062500003,227.14166475000002,59.0,78.0
1012,226.06396312500001,227.24977275000003,40.0,71.0
1013,226.26666562500003,227.26497543750003,47.0,57.0
1014,227.07747562500003,227.58929943750002,52.0,95.0
1015,227.28017812500002,227.60788050000002,64.0,95.0
1016,226.87477312500002,227.62477237500002,68.0,112.0
1017,227.482880625,227.68558312500002,59.0,93.0
1018,228.09098812500002,228.36463650000002,57.0,77.0
1019,228.293690625,228.5014606875,61.0,56.0
1020,227.888285625,228.59943356250002,52.0,75.0
1021,227.68558312500002,229.21260862500003,45.0,97.0
1022,228.699095625,229.30382475000002,52.0,85.0
1023,228.90179812500003,229.3967300625,61.0,107.0
1024,228.49639312500003,229.59943256250003,64.0,95.0
1025,229.10450062500001,229.63321631250002,57.0,79.0
1026,229.71260812500003,230.00483756250003,57.0,70.0
1027,229.71260812500003,230.01159431250002,64.0,78.0
1028,229.71260812500003,230.02172943750003,61.0,92.0
1029,229.71260812500003,230.161932,52.0,66.0
1030,230.32071562500002,230.56226943750002,52.0,99.0
1031,230.11801312500003,230.5757829375,61.0,112.0
1032,229.30720312500003,230.61294506250002,45.0,96.0
1033,230.72612062500002,230.8781475,61.0,112.0
1034,230.52341812500003,230.88321506250003,57.0,90.0
1035,230.11801312500003,230.895039375,64.0,93.0
1036,230.928823125,231.58253868750003,66.0,78.0
1037,230.928823125,231.6619305,62.0,81.0
1038,230.928823125,231.68220075000002,59.0,69.0
1039,231.334228125,231.9811869375,54.0,58.0
1040,230.928823125,232.18895700000002,47.0,88.0
1041,232.145038125,232.540308,59.0,57.0
1042,231.739633125,232.5487539375,62.0,76.0
1043,232.5048350625,233.68219875000003,40.0,70.0
1044,232.93051031250002,233.6940230625,47.0,46.0
1045,233.37307743750003,234.11969831250002,52.0,41.0
1046,233.36294231250002,234.16361718750002,68.0,59.0
1047,233.35280718750002,234.20415768750001,64.0,66.0
1048,234.96767043750003,235.95584512500002,59.0,56.0
1049,235.3916565,236.37814200000003,57.0,48.0
1050,234.59267081250002,236.61124987500003,52.0,39.0
1051,234.13827937500002,236.64334443750002,45.0,65.0
1052,235.8223993125,236.7615875625,61.0,48.0
1053,236.57915531250003,237.42712743750002,59.0,44.0
1054,235.82071012500003,237.64165425000002,64.0,50.0
1055,237.80888381250003,238.39841025,56.0,40.0
1056,237.36124912500003,239.73455756250002,44.0,77.0
1057,238.21091043750002,239.92712493750003,61.0,51.0
1058,239.77171968750002,240.57408375000003,56.0,48.0
1059,240.188949,240.68219175000002,61.0,50.0
1060,238.64503162500003,240.705840375,64.0,44.0
1061,241.46935312500003,243.5588780625,50.0,63.0
1062,241.86800137500003,243.66698606250003,66.0,40.0
1063,241.86631218750003,243.7379319375,62.0,59.0
1064,242.273406375,243.74131031250002,57.0,45.0
1065,240.58252968750003,243.75820218750002,38.0,66.0
1066,241.00989412500002,243.7987426875,45.0,38.0
1067,243.93049931250002,244.96428206250002,57.0,47.0
1068,243.928810125,245.30211956250002,62.0,45.0
1069,243.91360743750002,245.34434925000002,65.0,58.0
1070,243.91529662500002,246.86799637500002,38.0,67.0
1071,244.29198543750002,246.87306393750004,45.0,39.0
1072,244.69739043750002,246.98961787500002,50.0,41.0
1073,245.5048220625,247.07407725000002,62.0,41.0
1074,245.51664637500002,247.12813125000002,65.0,38.0
1075,245.10955218750001,247.32914456250003,57.0,44.0
