,start,end,pitch,velocity
0,36.316797125,36.79279613333333,64.0,54.0
1,36.796796125,37.27279513333333,69.0,56.0
2,37.276795125,37.512794633333336,66.0,54.0
3,37.516794625,37.75279413333334,64.0,61.0
4,37.756794125,38.472792633333334,64.0,64.0
5,38.476792625,38.71279213333334,69.0,87.0
6,38.716792125,38.952791633333334,66.0,77.0
7,38.956791625,39.19279113333334,64.0,60.0
8,39.196791125000004,40.152789133333336,64.0,85.0
9,40.156789125,40.39278863333334,57.0,92.0
10,40.396788625,40.632788133333335,59.0,87.0
11,40.636788125,40.87278763333333,61.0,87.0
12,40.876787625000006,41.112787133333335,59.0,74.0
13,41.116787125,41.83278563333334,64.0,77.0
14,41.836785625000005,42.55278413333333,59.0,87.0
15,42.556784125,47.83277313333333,57.0,81.0
16,47.83677312500001,48.31277213333334,69.0,97.0
17,48.316772125,48.79277113333333,69.0,97.0
18,48.79677112500001,49.032770633333335,66.0,77.0
19,49.036770625,49.27277013333334,64.0,66.0
20,49.276770125,49.75276913333333,69.0,93.0
21,49.756769125000005,50.11276838333333,69.0,91.0
22,50.236768125,50.832766883333335,71.0,66.0
23,50.716767125000004,51.672765133333336,69.0,93.0
24,51.676765125,51.905995233333336,61.0,73.0
25,51.909841375000006,52.13676373333334,64.0,65.0
26,52.140609875,52.59830073333334,69.0,62.0
27,52.602146875,53.290606233333335,64.0,65.0
28,53.294452375000006,53.52137473333334,59.0,84.0
29,53.525220875,53.75891263333334,59.0,75.0
30,53.762912625000006,53.99891213333334,61.0,67.0
31,54.002912125,54.47891113333334,64.0,93.0
32,54.48291112500001,54.71891063333334,66.0,64.0
33,54.722910625000004,58.798902133333335,64.0,96.0
34,58.802902125,59.278901133333335,61.0,100.0
35,59.282901125,59.99889963333334,61.0,96.0
36,60.002899625000005,60.23889913333334,61.0,97.0
37,60.24289912500001,60.47889863333334,59.0,85.0
38,60.482898625000004,60.71889813333334,57.0,87.0
39,60.72289812500001,61.19889713333334,56.0,90.0
40,61.20289712500001,61.438896633333336,57.0,66.0
41,61.442896625,62.15889513333334,59.0,95.0
42,62.162895125000006,62.39889463333334,64.0,92.0
43,62.402894625,62.63889413333334,69.0,81.0
44,62.642894125000005,63.11889313333334,69.0,62.0
45,63.122893125000004,63.59889213333334,64.0,67.0
46,63.602892125000004,64.31889063333334,64.0,91.0
47,64.322890625,64.55889013333334,61.0,52.0
48,64.56289012500001,66.95888513333334,61.0,61.0
49,66.962885125,67.43888413333335,69.0,87.0
50,67.442884125,67.91888313333334,69.0,79.0
51,67.922883125,68.39888213333334,73.0,90.0
52,68.402882125,68.63888163333334,71.0,73.0
53,68.642881625,68.99888088333334,71.0,66.0
54,69.12288062500001,69.47887988333333,69.0,69.0
55,69.362880125,69.47887988333333,69.0,73.0
56,69.60287962500001,69.83887913333334,68.0,73.0
57,69.84287912500001,70.79887713333333,69.0,65.0
58,70.80287712500001,71.27887613333334,64.0,77.0
59,71.282876125,71.51887563333334,69.0,90.0
60,71.52287562500001,71.87887488333334,66.0,79.0
61,72.002874625,72.35887388333333,64.0,62.0
62,72.24287412500001,72.35887388333333,64.0,87.0
63,73.202872125,73.43887163333333,57.0,85.0
64,73.44287162500001,73.79887088333334,59.0,82.0
65,73.682871125,73.91887063333334,61.0,90.0
66,74.16287012500001,78.47886113333334,59.0,94.0
67,78.482861125,78.95886013333333,66.0,103.0
68,78.962860125,79.43885913333334,66.0,99.0
69,79.44285912500001,79.67885863333333,66.0,95.0
70,79.68285862500001,79.91885813333334,64.0,90.0
71,79.922858125,80.39885713333334,69.0,96.0
72,80.402857125,80.87885613333334,69.0,105.0
73,80.882856125,82.31885313333333,69.0,111.0
74,82.32285312500001,82.55885263333334,66.0,101.0
75,82.562852625,82.79885213333334,64.0,93.0
76,82.802852125,83.39885088333334,66.0,97.0
77,83.28285112500001,83.99884963333334,69.0,90.0
78,84.00284962500001,84.35884888333334,61.0,95.0
79,84.482848625,84.71884813333334,64.0,98.0
80,84.72284812500001,84.95884763333333,66.0,103.0
81,84.96284762500001,85.19884713333335,64.0,103.0
82,85.06284741666667,86.01884542500001,66.0,103.0
83,86.162845125,86.63884413333334,59.0,80.0
84,86.64284412500001,87.35884263333334,61.0,83.0
85,87.36284262500001,87.59884213333333,59.0,63.0
86,87.60284212500001,88.07884113333334,64.0,85.0
87,88.08284112500002,88.316069,66.0,62.0
88,88.320006,88.788509,64.0,68.0
89,88.792446,89.14283900000001,61.0,91.0
90,89.264886,89.497169,59.0,97.0
91,89.50110600000001,90.087719,64.0,97.0
92,90.209766,90.32393900000001,57.0,64.0
93,89.973546,90.32393900000001,59.0,97.0
94,90.445986,90.678269,57.0,80.0
95,90.68220600000001,90.914489,59.0,84.0
96,90.91842600000001,91.150709,61.0,82.0
97,91.154646,91.38692900000001,64.0,71.0
98,91.390866,91.50503900000001,59.0,64.0
99,91.627086,92.095589,57.0,66.0
100,91.86330600000001,92.095589,57.0,72.0
101,92.099526,92.335746,56.0,72.0
102,92.335746,92.804249,57.0,93.0
103,93.04440600000001,93.276689,59.0,98.0
104,93.280626,97.10811413333334,57.0,96.0
105,97.112114125,98.54811113333334,69.0,92.0
106,98.55211112500001,98.78811063333333,71.0,93.0
107,98.792110625,99.02811013333334,69.0,84.0
108,99.032110125,99.74810863333335,73.0,93.0
109,99.752108625,100.58810688333334,73.0,91.0
110,100.712106625,100.94810613333334,71.0,90.0
111,100.952106125,101.42810513333333,69.0,80.0
112,101.432105125,101.66810463333334,71.0,82.0
113,101.672104625,102.14810363333333,69.0,90.0
114,102.15210362500001,102.50810288333334,66.0,62.0
115,102.632102625,105.02809763333335,64.0,64.0
116,104.79209812500001,106.22809513333334,69.0,101.0
117,106.232095125,106.46809463333334,71.0,99.0
118,106.47209462500001,106.70809413333333,69.0,90.0
119,106.71209412500001,107.42809263333334,73.0,95.0
120,107.43209262500001,108.38809063333333,73.0,91.0
121,108.39209062500001,108.62809013333334,71.0,74.0
122,108.632090125,109.10808913333334,69.0,84.0
123,109.11208912500001,109.34808863333333,71.0,72.0
124,109.35208862500001,109.82808763333334,69.0,90.0
125,109.83208762500001,110.06808713333334,66.0,66.0
126,110.07208712500001,112.46808213333334,64.0,84.0
127,112.47208212500001,112.70808163333334,61.0,97.0
128,112.71208162500001,113.18808063333334,61.0,94.0
129,113.192080625,113.42808013333334,59.0,90.0
130,113.432080125,113.90807913333333,61.0,94.0
131,113.912079125,114.14807863333334,61.0,94.0
132,114.152078625,114.38807813333334,64.0,93.0
133,114.39207812500001,114.86807713333334,66.0,98.0
134,114.872077125,115.34807613333334,69.0,91.0
135,115.35207612500001,115.46807588333334,61.0,91.0
136,115.472075875,116.30807413333333,64.0,91.0
137,116.31207412500001,116.54807363333333,57.0,90.0
138,116.552073625,117.02807263333334,57.0,75.0
139,117.03207262500001,117.26807213333333,59.0,87.0
140,117.27207212500001,117.74807113333334,61.0,87.0
141,117.752071125,118.22807013333335,64.0,87.0
142,118.232070125,118.70806913333334,69.0,84.0
143,118.712069125,118.94806863333334,66.0,92.0
144,118.95206862500001,119.18806813333333,64.0,68.0
145,119.192068125,120.62806513333334,66.0,96.0
146,120.632065125,121.10806413333334,64.0,97.0
147,121.112064125,121.58806313333334,64.0,97.0
148,121.59206312500001,121.82806263333333,64.0,91.0
149,121.832062625,123.02806013333334,64.0,95.0
150,123.032060125,123.50805913333335,66.0,103.0
151,123.51205912500001,123.74805863333334,69.0,105.0
152,123.752058625,124.82805638333335,69.0,109.0
153,124.95205612500001,125.18805563333333,69.0,96.0
154,125.19205562500001,125.42805513333334,69.0,95.0
155,125.432055125,125.66805463333334,69.0,92.0
156,125.672054625,125.90805413333334,71.0,90.0
157,125.912054125,126.38805313333333,73.0,99.0
158,126.392053125,126.86805213333334,73.0,105.0
159,126.87205212500001,127.10805163333333,71.0,95.0
160,127.112051625,127.82805013333333,69.0,94.0
161,127.83205012500001,128.54804863333334,69.0,98.0
162,128.552048625,131.64950013333333,61.0,100.0
163,131.653468375,132.00664188333332,66.0,108.0
164,132.010610125,132.36518063333332,66.0,97.0
165,132.36918062499998,132.60518013333333,64.0,101.0
166,132.609180125,133.08517913333333,69.0,94.0
167,133.089179125,133.32517863333334,66.0,100.0
168,133.329178625,133.56517813333332,64.0,100.0
169,133.56917812499998,133.92517738333333,61.0,79.0
170,133.929177375,134.28517663333332,64.0,75.0
171,134.28917662499998,134.52517613333333,66.0,96.0
172,134.529176125,137.1354026333333,64.0,95.0
173,137.13940262499997,137.37540213333332,64.0,91.0
174,137.37940212499998,137.85540113333332,71.0,101.0
175,137.85940112499998,138.8153991333333,71.0,103.0
176,138.819399125,139.29539813333332,64.0,87.0
177,139.29939812499998,139.7753971333333,73.0,97.0
178,139.77939712499997,141.21539413333332,73.0,101.0
179,141.21939412499998,141.4553936333333,71.0,99.0
180,141.459393625,141.6953931333333,69.0,87.0
181,141.69939312499997,141.93539263333332,66.0,77.0
182,141.93939262499998,142.41539163333331,64.0,62.0
183,142.41939162499997,142.8953906333333,69.0,83.0
184,142.89939062499997,143.13539013333332,71.0,96.0
185,143.13939012499998,155.11314859999996,69.0,103.0
186,155.11721362499995,155.5941881333333,64.0,54.0
187,155.59818812499995,156.07418713333328,69.0,56.0
188,156.07818712499994,156.3200045333333,66.0,54.0
189,156.32413674999995,156.5679375333333,64.0,61.0
190,156.57206974999997,157.2978567333333,64.0,64.0
191,157.30167349999996,157.5268627333333,69.0,87.0
192,157.53067949999996,157.7558687333333,66.0,77.0
193,157.75968549999996,157.9848747333333,64.0,60.0
194,157.98869149999996,158.9419411333333,64.0,85.0
195,158.94594112499996,159.1819406333333,57.0,92.0
196,159.18594062499997,159.4219401333333,59.0,87.0
197,159.42594012499995,159.6619396333333,61.0,87.0
198,159.66593962499996,159.9019391333333,59.0,74.0
199,159.90593912499997,160.6219376333333,64.0,77.0
200,160.62593762499998,161.09916499999997,59.0,87.0
201,161.10310199999998,161.33538499999997,57.0,87.0
202,161.33932199999998,166.5843071333333,57.0,81.0
203,166.588307125,167.06430613333333,69.0,97.0
204,167.068306125,167.54430513333332,69.0,97.0
205,167.54830512499998,167.78430463333333,66.0,77.0
206,167.788304625,168.02430413333332,64.0,66.0
207,168.02830412499998,168.50430313333334,69.0,93.0
208,168.508303125,168.98430213333333,69.0,91.0
209,168.988302125,169.46430113333332,71.0,66.0
210,169.46830112499998,170.30429938333333,69.0,93.0
211,170.428299125,170.66429863333332,61.0,73.0
212,170.66829862499998,170.90429813333333,64.0,65.0
213,170.908298125,171.38429713333332,69.0,62.0
214,171.38829712499998,172.22429538333333,64.0,65.0
215,172.10829562499998,172.34429513333333,59.0,84.0
216,172.348295125,172.58429463333331,59.0,75.0
217,172.588294625,172.82429413333332,61.0,67.0
218,172.82829412499999,173.1842933833333,64.0,93.0
219,173.30829312499998,173.54429263333333,66.0,64.0
220,173.548292625,177.62428413333333,64.0,96.0
221,177.628284125,178.10428313333333,61.0,100.0
222,178.10828312499999,178.82428163333333,61.0,96.0
223,178.828281625,179.06428113333334,61.0,97.0
224,179.068281125,179.30428063333332,59.0,85.0
225,179.30828062499998,179.54428013333333,57.0,87.0
226,179.548280125,180.14427888333333,56.0,90.0
227,180.02827912499998,180.26427863333333,57.0,66.0
228,180.268278625,180.98427713333334,59.0,95.0
229,180.988277125,181.10339499999998,64.0,92.0
230,181.225442,181.45772499999998,69.0,81.0
231,181.461662,181.930165,69.0,62.0
232,181.934102,182.40915613333334,64.0,67.0
233,182.413156125,183.12915463333334,64.0,91.0
234,183.013154875,183.36915413333332,61.0,52.0
235,183.37315412499999,185.76914913333334,61.0,61.0
236,185.773149125,186.242597,69.0,87.0
237,186.246534,186.715037,69.0,79.0
238,186.718974,187.187477,73.0,90.0
239,187.19141399999998,187.423697,71.0,73.0
240,187.42763399999998,187.77890888333332,71.0,66.0
241,187.78290887499998,188.13890813333333,71.0,69.0
242,188.142908125,188.2589078833333,69.0,73.0
243,188.38290762499997,188.62290712499998,68.0,73.0
244,188.62290712499998,189.4779869,69.0,65.0
245,189.60503575,190.08251013333336,64.0,77.0
246,190.08651012500002,190.32250963333334,69.0,90.0
247,190.32650962500003,190.80250863333336,69.0,79.0
248,190.80650862500002,191.04250813333334,64.0,62.0
249,191.52650712500002,192.00250613333336,57.0,79.0
250,191.046508125,192.00250613333336,64.0,87.0
251,192.00650612500002,192.48250513333335,59.0,82.0
252,192.72650462500002,192.96250413333334,61.0,90.0
253,192.96650412500003,197.24557113333336,59.0,94.0
254,197.24957112500005,197.72557013333338,66.0,103.0
255,197.72957012500004,198.20556913333337,66.0,99.0
256,198.20956912500003,198.68556813333336,64.0,95.0
257,198.68956812500005,199.16556713333338,69.0,96.0
258,199.16956712500004,199.64556613333338,69.0,105.0
259,199.64956612500004,199.88556563333336,69.0,111.0
260,199.88956562500005,201.08556313333338,69.0,111.0
261,201.08956312500004,201.32556263333336,66.0,101.0
262,201.32956262500005,201.56556213333337,64.0,93.0
263,201.56956212500003,202.04556113333336,66.0,97.0
264,202.04956112500003,202.88555938333337,69.0,90.0
265,202.88955937500003,203.24555863333336,61.0,95.0
266,203.24955862500005,203.48555813333337,64.0,98.0
267,203.48955812500003,203.72555763333338,66.0,103.0
268,203.72955762500004,203.96555713333336,64.0,103.0
269,203.96955712500005,204.92555513333338,66.0,103.0
270,204.92955512500004,205.39900300000002,59.0,80.0
271,205.40294000000003,205.63916000000003,61.0,83.0
272,205.63916000000003,205.87538000000004,61.0,83.0
273,206.1116,206.34388300000003,59.0,63.0
274,206.34782,206.816323,64.0,85.0
275,206.82026000000002,207.05531463333335,66.0,62.0
276,207.059314625,207.41531388333334,64.0,68.0
277,207.53931362500003,208.01254100000003,61.0,91.0
278,208.01647800000003,208.24876100000003,59.0,97.0
279,208.25269800000004,208.84019288333337,64.0,97.0
280,208.96419262500004,209.08019238333338,57.0,64.0
281,208.72513800000004,209.08019238333338,59.0,97.0
282,209.20419212500005,209.44019163333337,57.0,80.0
283,209.44419162500003,209.68019113333338,59.0,84.0
284,209.68419112500004,209.9201906333334,61.0,82.0
285,209.92419062500005,210.16019013333337,64.0,71.0
286,210.16419012500003,210.5201893833334,59.0,66.0
287,210.52418937500005,211.36018763333337,56.0,72.0
288,211.36418762500006,211.8401866333334,57.0,93.0
289,211.84418662500005,212.08018613333337,59.0,98.0
290,212.08418612500003,215.92017813333337,57.0,96.0
291,215.92417812500005,217.36017513333337,69.0,92.0
292,217.36417512500003,217.60017463333338,71.0,93.0
293,217.60417462500004,217.8401741333334,69.0,84.0
294,217.84417412500005,218.56017263333337,73.0,93.0
295,218.56417262500005,219.40017088333337,73.0,91.0
296,219.52417062500004,219.7601701333334,71.0,90.0
297,219.76417012500005,220.24016913333338,69.0,80.0
298,220.24416912500004,220.4801686333334,71.0,82.0
299,220.48416862500005,220.96016763333338,69.0,90.0
300,220.96416762500004,221.32016688333337,66.0,62.0
301,221.20416712500005,223.48016238333338,64.0,64.0
302,223.60416212500004,225.0401591333334,69.0,101.0
303,225.04415912500005,225.28015863333337,71.0,99.0
304,225.28415862500003,225.52015813333338,69.0,90.0
305,225.52415812500004,226.3601563833334,73.0,95.0
306,226.24415662500004,226.3601563833334,73.0,91.0
307,227.20415462500006,227.44015413333338,71.0,74.0
308,227.44415412500004,227.92015313333337,69.0,84.0
309,227.92415312500003,228.15875563333339,71.0,72.0
310,228.16272387500004,228.6349446333334,69.0,90.0
311,228.63891287500005,228.87303913333338,66.0,66.0
312,228.87700737500006,231.25398413333338,64.0,84.0
313,231.25795237500006,231.4920786333334,61.0,97.0
314,231.49604687500005,231.96826763333337,61.0,94.0
315,231.97223587500005,232.20636213333339,59.0,90.0
316,232.21033037500004,232.6825511333334,61.0,94.0
317,232.68651937500005,232.92064563333338,61.0,94.0
318,232.92461387500006,233.1587401333334,64.0,93.0
319,233.16270837500005,233.63492913333337,66.0,98.0
320,233.63889737500006,234.11111813333338,69.0,91.0
321,234.11508637500006,234.3492126333334,61.0,91.0
322,234.35318087500005,235.07356160000006,64.0,91.0
323,235.07762662500005,235.31746310000005,57.0,90.0
324,235.32152812500007,235.8010076333334,57.0,75.0
325,235.80497587500005,236.0391021333334,59.0,87.0
326,236.04307037500007,236.5152911333334,61.0,87.0
327,236.51925937500008,236.9914801333334,64.0,87.0
328,236.99544837500005,237.22957463333339,69.0,84.0
329,237.23354287500007,237.4676691333334,66.0,84.0
330,237.47163737500006,237.7057636333334,66.0,92.0
331,237.70973187500007,237.9438581333334,64.0,68.0
332,237.94782637500006,239.3724251333334,66.0,96.0
333,239.37639337500005,239.8486141333334,64.0,97.0
334,239.85258237500005,240.3248031333334,64.0,97.0
335,240.32877137500006,240.5628976333334,64.0,91.0
336,240.56686587500008,241.76002700000006,64.0,95.0
337,241.76405925000006,242.24389700000006,66.0,103.0
338,242.24792925000006,242.4830156333334,69.0,105.0
339,242.48698387500005,243.6734881333334,69.0,109.0
340,243.67745637500005,243.91730740000006,69.0,96.0
341,243.92140575000005,244.16320840000006,69.0,95.0
342,244.16730675000005,244.40910940000003,69.0,92.0
343,244.41320775000005,244.65501040000004,71.0,90.0
344,244.65910875000006,245.1503345333334,73.0,99.0
345,245.15446675000007,245.64267840000008,73.0,105.0
346,245.64677675000007,245.88857940000005,71.0,95.0
347,245.89267775000008,246.62628240000006,69.0,94.0
348,246.63038075000006,247.32236916666673,69.0,98.0
349,247.32604562500006,250.4059110000001,61.0,100.0
350,250.40994325000008,250.6478460000001,66.0,108.0
351,250.6518782500001,251.12889963333342,66.0,97.0
352,251.13286787500007,251.3669941333334,64.0,101.0
353,251.3709623750001,251.8431831333334,69.0,94.0
354,251.8471513750001,252.67651388333343,61.0,100.0
355,252.5614348750001,252.91460838333342,64.0,75.0
356,253.0376238750001,253.27175013333343,66.0,96.0
357,253.27571837500008,255.93890663333343,64.0,95.0
358,255.9429066250001,256.17890613333344,64.0,91.0
359,256.1829061250001,256.6589051333334,71.0,101.0
360,256.66290512500007,257.60915313333345,71.0,103.0
361,257.6130593750001,258.07790213333345,64.0,87.0
362,258.0818083750001,258.54665113333346,73.0,97.0
363,258.5505573750001,261.42514513333344,76.0,101.0
364,261.4291451250001,261.78514438333343,73.0,66.0
365,261.7891443750001,261.90514413333347,71.0,57.0
366,261.9091441250001,262.1451436333334,69.0,55.0
367,262.14914362500014,262.38514313333343,66.0,59.0
368,262.3891431250001,263.10514163333346,64.0,61.0
369,263.1091416250001,263.46514088333345,69.0,51.0
370,263.4691408750001,263.82514013333343,71.0,63.0
371,263.8291401250001,271.05612506875013,69.0,63.0
