,start,end,pitch,velocity
0,5.219989125000001,5.698988127083333,61.0,70.0
1,5.219989125000001,5.721988079166667,64.0,72.0
2,5.219989125000001,5.79898791875,69.0,70.0
3,5.9399876250000005,6.27898691875,59.0,70.0
4,5.459988625,6.5099864375,52.0,58.0
5,6.179987125,6.55198635,64.0,66.0
6,6.419986625,6.565986320833334,66.0,58.0
7,5.699988125,6.649986145833333,57.0,64.0
8,6.6599861250000005,6.747985941666667,52.0,75.0
9,5.219989125000001,6.751985933333334,45.0,70.0
10,6.6599861250000005,7.012985389583333,69.0,80.0
11,7.139985125,7.248984897916667,62.0,82.0
12,7.139985125,7.252984889583334,50.0,72.0
13,7.139985125,7.255984883333333,57.0,80.0
14,7.139985125,7.2679848583333335,66.0,75.0
15,7.259984875000001,7.2679848583333335,66.0,70.0
16,7.139985125,7.294984802083333,38.0,72.0
17,7.259984875000001,7.294984802083333,38.0,66.0
18,7.259984875000001,7.654984052083334,50.0,61.0
19,7.259984875000001,7.836983672916667,62.0,69.0
20,7.259984875000001,7.845983654166667,57.0,75.0
21,7.859983625,8.431982433333333,50.0,54.0
22,8.099983125,8.463982366666666,57.0,72.0
23,8.339982625000001,8.569982145833334,62.0,70.0
24,8.579982125,8.677981920833334,50.0,67.0
25,9.059981125,9.394980427083334,61.0,76.0
26,9.059981125,9.444980322916667,65.0,95.0
27,9.059981125,9.673979845833333,73.0,85.0
28,9.539980125,10.200978747916666,61.0,62.0
29,9.779979625000001,10.3259784875,65.0,57.0
30,9.299980625,10.379978375,49.0,55.0
31,9.059981125,10.549978020833334,37.0,78.0
32,10.499978125,10.56897798125,73.0,47.0
33,10.499978125,10.578977960416667,61.0,60.0
34,10.499978125,10.579977958333334,65.0,66.0
35,10.499978125,10.603977908333334,49.0,75.0
36,10.739977625,10.859977375,54.0,76.0
37,10.979977125,11.099976875000001,56.0,76.0
38,11.219976625000001,11.339976375,58.0,76.0
39,11.459976125,11.579031,61.0,76.0
40,11.697141,11.815251,63.0,76.0
41,11.933361,12.051471,66.0,76.0
42,12.169580999999999,12.287690999999999,68.0,76.0
43,12.405801,12.523911,70.0,76.0
44,12.642021,12.760131,73.0,76.0
45,12.878241,13.298295247916666,40.0,70.0
46,13.117295625,13.343295154166666,47.0,58.0
47,13.357295125,13.674294464583333,52.0,62.0
48,12.878241,13.73829433125,59.0,75.0
49,12.878241,13.863294070833334,68.0,63.0
50,12.878241,13.863294070833334,76.0,63.0
51,12.878241,13.877294041666666,64.0,82.0
52,13.837294125,14.221293325,56.0,76.0
53,13.597294625,14.228293310416667,54.0,58.0
54,14.077293625,14.23029330625,59.0,67.0
55,14.317293124999999,14.606283379166667,64.0,52.0
56,14.566367625,14.698719862499999,69.0,66.0
57,14.818467125,15.318491089583333,61.0,63.0
58,14.818467125,15.321491083333333,64.0,67.0
59,14.818467125,15.407292199999999,69.0,67.0
60,15.301491125,15.852899708333332,57.0,69.0
61,15.5332455,15.947364683333333,59.0,59.0
62,15.7622515,16.099081158333334,61.0,78.0
63,15.9912575,16.231713799999998,57.0,51.0
64,15.061491625,16.281514991666665,52.0,62.0
65,16.220263499999998,16.44851464375,59.0,56.0
66,16.457514624999998,16.686514147916665,64.0,67.0
67,16.697514124999998,17.47651250208333,57.0,64.0
68,17.177513124999997,17.48551248333333,50.0,55.0
69,16.697514124999998,17.646512147916663,62.0,67.0
70,16.697514124999998,17.673512091666666,66.0,66.0
71,17.417512624999997,18.043511320833332,52.0,80.0
72,17.657512124999997,18.045511316666666,54.0,72.0
73,17.897511624999996,18.089511225,57.0,61.0
74,18.137511124999996,18.380510618749998,62.0,59.0
75,18.377510625,18.54751027083333,66.0,72.0
76,18.617510125,19.1635089875,64.0,76.0
77,18.617510125,19.2115088875,57.0,62.0
78,19.337508624999998,19.50750827083333,57.0,60.0
79,19.097509125,19.599508079166664,50.0,60.0
80,19.577508124999998,19.824507610416664,57.0,63.0
81,19.577508124999998,19.890507472916664,62.0,85.0
82,19.817507624999998,20.1355069625,50.0,49.0
83,20.057507124999997,20.256506710416666,57.0,59.0
84,20.297506624999997,20.463506279166666,62.0,64.0
85,20.537506124999997,21.1975835,64.0,75.0
86,20.537506124999997,21.265496749999997,69.0,76.0
87,20.537506124999997,21.321599,61.0,78.0
88,21.254669999999997,21.538134,57.0,72.0
89,21.49089,21.801913,61.0,75.0
90,21.49089,21.92494425,68.0,73.0
91,21.72711,21.927896999999998,57.0,46.0
92,21.017505125,22.018448,52.0,57.0
93,21.96333,22.071384897916666,61.0,76.0
94,21.96333,22.080384879166665,64.0,76.0
95,21.96333,22.107384822916668,69.0,82.0
96,22.442384125,22.8203833375,59.0,80.0
97,22.442384125,23.053382852083335,64.0,78.0
98,22.922383125,23.186382575,52.0,64.0
99,22.442384125,23.313382310416667,68.0,76.0
100,23.402382125,23.679381547916666,56.0,60.0
101,23.162382625,23.69938150625,54.0,60.0
102,23.642381625,23.785381327083332,59.0,55.0
103,23.882381125,24.072380729166667,64.0,57.0
104,24.122380624999998,24.268380320833334,69.0,67.0
105,24.834379141666666,24.907378989583332,61.0,71.0
106,24.834379141666666,24.961378877083334,64.0,71.0
107,25.074378641666666,25.1603784625,61.0,73.0
108,25.074378641666666,25.191378397916665,64.0,71.0
109,25.314378141666666,25.90737690625,61.0,73.0
110,25.314378141666666,25.929376860416667,64.0,73.0
111,24.354380141666667,25.966376783333335,57.0,71.0
112,26.726702475000003,26.800711889583337,61.0,82.0
113,26.726702475000003,26.812250314583338,64.0,82.0
114,26.95551909166667,27.01898042916667,61.0,82.0
115,26.95551909166667,27.040134208333335,64.0,82.0
116,27.182441450000002,27.773208875,61.0,77.0
117,27.18628759166667,27.820208777083337,64.0,82.0
118,26.274376141666668,27.862208689583337,57.0,79.0
119,35.836798125,36.401796947916665,64.0,70.0
120,35.836798125,36.460796825,61.0,63.0
121,35.836798125,36.47779678958334,69.0,70.0
122,36.796796125,37.296795083333336,64.0,51.0
123,36.796796125,37.343794985416665,61.0,44.0
124,36.796796125,37.37679491666667,69.0,47.0
125,37.756794125,38.23779312291667,64.0,45.0
126,37.756794125,38.28979301458334,61.0,40.0
127,37.756794125,38.37179284375,69.0,38.0
128,38.476792625,38.76379202708333,57.0,36.0
129,38.716792125,39.169791181250005,64.0,56.0
130,38.716792125,39.17679116666667,61.0,48.0
131,38.716792125,39.283790943750006,69.0,40.0
132,39.196791125000004,39.69879007916667,57.0,30.0
133,39.676790125000004,40.14878914166667,61.0,49.0
134,39.676790125000004,40.16678910416667,64.0,56.0
135,39.676790125000004,40.18378906875,69.0,45.0
136,40.636788125,41.04978726458334,64.0,60.0
137,40.636788125,41.05678725,61.0,53.0
138,40.636788125,41.30678672916667,69.0,47.0
139,41.116787125,41.592786133333334,52.0,33.0
140,41.596786125,42.11978503541667,64.0,55.0
141,41.596786125,42.159784952083335,61.0,51.0
142,41.596786125,42.27778470625,69.0,58.0
143,42.316784625000004,42.660783908333336,57.0,20.0
144,42.556784125,42.976783250000004,64.0,57.0
145,42.556784125,42.98678322916667,61.0,50.0
146,42.556784125,43.04178311458334,69.0,46.0
147,43.036783125,43.15478287916667,57.0,62.0
148,43.516782125000006,44.020781075,68.0,53.0
149,43.516782125000006,44.13578083541667,64.0,50.0
150,43.516782125000006,44.148780808333335,59.0,58.0
151,43.516782125000006,44.73877957916667,52.0,50.0
152,44.476780125000005,44.93477917083334,59.0,47.0
153,44.476780125000005,44.94677914583333,68.0,50.0
154,44.476780125000005,44.96677910416667,64.0,52.0
155,44.956779125000004,45.55377788125,52.0,44.0
156,45.436778125000004,45.92577710625,61.0,52.0
157,45.436778125000004,45.932777091666665,64.0,53.0
158,45.436778125000004,45.941777072916665,69.0,49.0
159,46.396776125,46.843775193750005,61.0,49.0
160,46.396776125,46.86277515416667,64.0,55.0
161,46.396776125,46.938774995833334,69.0,44.0
162,47.356774125,47.884773025,66.0,61.0
163,47.356774125,47.90477298333333,57.0,62.0
164,47.356774125,47.90777297708334,62.0,62.0
165,47.356774125,48.36877201666667,50.0,47.0
166,48.316772125,48.76477119166667,57.0,59.0
167,48.316772125,48.870770970833334,62.0,54.0
168,48.316772125,48.88577093958334,66.0,61.0
169,48.79677112500001,49.50276965416667,50.0,49.0
170,49.276770125,49.805769022916664,66.0,67.0
171,49.276770125,49.824768983333335,57.0,64.0
172,49.276770125,49.824768983333335,62.0,64.0
173,49.876768875,50.3147679625,50.0,13.0
174,50.236768125,50.616767333333335,57.0,66.0
175,50.236768125,50.71776712291667,62.0,62.0
176,50.236768125,50.82076690833334,66.0,60.0
177,50.716767125000004,51.196766125,50.0,40.0
178,51.196766125,51.8925337375,64.0,70.0
179,51.196766125,51.90887983958334,61.0,66.0
180,51.196766125,51.96753350000001,69.0,66.0
181,51.196766125,52.56657006458334,57.0,54.0
182,52.140609875,52.659839000000005,64.0,69.0
183,52.140609875,52.66464667708334,61.0,63.0
184,52.140609875,52.83099230416667,69.0,67.0
185,53.063683875,53.6369128875,61.0,62.0
186,53.063683875,53.712912729166675,64.0,56.0
187,53.063683875,53.87491239166667,69.0,72.0
188,53.063683875,54.18091175416667,57.0,44.0
189,54.002912125,54.51691105416667,61.0,70.0
190,54.002912125,54.531911022916674,64.0,69.0
191,54.002912125,54.61291085416667,69.0,73.0
192,54.48291112500001,54.729910610416674,57.0,49.0
193,54.96291012500001,55.33190935625001,52.0,49.0
194,54.96291012500001,55.54890890416667,68.0,58.0
195,54.96291012500001,55.63290872916667,59.0,58.0
196,54.96291012500001,55.634908725,64.0,54.0
197,55.682908625,56.03490789166667,52.0,36.0
198,55.922908125000006,56.11190773125001,59.0,54.0
199,55.922908125000006,56.13490768333334,64.0,55.0
200,55.922908125000006,56.16490762083334,68.0,57.0
201,56.882906125000005,57.39790505208334,52.0,59.0
202,56.882906125000005,57.52090479583334,68.0,54.0
203,56.882906125000005,57.587904656250004,64.0,58.0
204,56.882906125000005,57.59790463541667,59.0,57.0
205,57.60290462500001,57.90190400208334,52.0,37.0
206,57.842904125000004,58.1249035375,59.0,62.0
207,57.842904125000004,58.15690347083334,68.0,63.0
208,57.842904125000004,58.161903460416674,64.0,66.0
209,58.08290362500001,58.295903181250004,52.0,51.0
210,58.322903125,58.52990269375,66.0,66.0
211,58.56290262500001,58.76090221250001,68.0,63.0
212,58.802902125,59.52590061875001,61.0,69.0
213,58.802902125,59.5289006125,69.0,70.0
214,58.802902125,59.58290050000001,66.0,72.0
215,59.762900125,60.26289908333334,66.0,62.0
216,59.762900125,60.31889896666667,61.0,59.0
217,60.24289912500001,60.39089881666667,54.0,46.0
218,59.762900125,60.51989854791667,69.0,56.0
219,60.72289812500001,61.3288968625,68.0,61.0
220,60.72289812500001,61.42389666458334,64.0,63.0
221,60.72289812500001,61.445896618750005,59.0,61.0
222,60.72289812500001,61.78589591041667,52.0,51.0
223,61.682896125000006,62.07089531666667,64.0,60.0
224,61.682896125000006,62.11889521666667,59.0,59.0
225,61.682896125000006,62.13389518541667,68.0,58.0
226,62.162895125000006,62.32089479583334,52.0,49.0
227,62.642894125000005,63.3568926375,66.0,62.0
228,62.642894125000005,63.38089258750001,61.0,57.0
229,62.642894125000005,63.42689249166667,69.0,64.0
230,62.642894125000005,63.77689176250001,54.0,55.0
231,63.602892125000004,64.16489095416668,66.0,70.0
232,63.602892125000004,64.226890825,61.0,69.0
233,64.082891125,64.2688907375,54.0,49.0
234,63.602892125000004,64.27289072916668,69.0,67.0
235,64.56289012500001,65.20788878125,69.0,31.0
236,64.56289012500001,65.22688874166667,61.0,58.0
237,64.56289012500001,65.2468887,66.0,70.0
238,65.282888625,65.62388791458334,54.0,31.0
239,65.52288812500001,66.05288702083334,59.0,66.0
240,65.52288812500001,66.06988698541667,64.0,66.0
241,65.52288812500001,66.33088644166668,68.0,64.0
242,65.52288812500001,66.49688609583333,52.0,58.0
243,66.48288612500001,67.18488466250001,64.0,63.0
244,66.48288612500001,67.19788463541667,61.0,60.0
245,66.48288612500001,67.24688453333334,69.0,66.0
246,67.442884125,67.93988308958333,64.0,62.0
247,67.442884125,68.08688278333334,61.0,57.0
248,67.442884125,68.16088262916668,69.0,58.0
249,68.402882125,68.97788092708333,64.0,51.0
250,68.402882125,69.01188085625,61.0,50.0
251,68.402882125,69.10288066666668,69.0,54.0
252,69.362880125,69.87787905208334,64.0,70.0
253,69.362880125,69.91487897500001,69.0,67.0
254,69.362880125,69.92187896041668,61.0,66.0
255,70.322878125,70.75687722083333,61.0,56.0
256,70.322878125,70.75987721458334,64.0,61.0
257,70.322878125,70.81587709791667,69.0,62.0
258,70.80287712500001,71.32087604583333,57.0,53.0
259,71.042876625,71.666875325,61.0,60.0
260,70.562877625,71.75087515000001,52.0,57.0
261,71.282876125,71.7748751,69.0,61.0
262,71.282876125,71.79787505208334,64.0,66.0
263,70.322878125,72.01187460625,45.0,57.0
264,71.76287512500001,72.01587459791668,57.0,34.0
265,72.002874625,72.24787411458334,52.0,57.0
266,72.24287412500001,72.86087283750001,61.0,50.0
267,72.24287412500001,72.8728728125,64.0,59.0
268,72.24287412500001,72.89387276875,69.0,49.0
269,72.962872625,73.23687205416667,57.0,46.0
270,73.202872125,73.67287114583334,61.0,70.0
271,73.202872125,73.68087112916668,64.0,75.0
272,72.24287412500001,73.68987111041668,45.0,57.0
273,73.202872125,73.72287104166668,69.0,70.0
274,72.722873125,73.72987102708333,52.0,34.0
275,73.682871125,74.05387035208334,57.0,52.0
276,74.16287012500001,74.36686970000001,59.0,62.0
277,74.16287012500001,74.52786936458334,66.0,64.0
278,74.16287012500001,74.53886934166667,62.0,64.0
279,74.882868625,75.098868175,61.0,52.0
280,74.642869125,75.20686795,59.0,54.0
281,75.12286812500001,75.55686722083334,62.0,75.0
282,75.602867125,75.79286672916668,62.0,60.0
283,75.602867125,75.82886665416667,59.0,44.0
284,74.16287012500001,75.85986658958333,47.0,69.0
285,74.40286962500001,76.13586601458334,54.0,51.0
286,76.08286612500001,76.41386543541667,62.0,56.0
287,76.08286612500001,76.43586538958334,66.0,53.0
288,76.08286612500001,76.48986527708334,71.0,73.0
289,77.04286412500001,77.37386343541667,66.0,54.0
290,77.04286412500001,77.43886330000001,74.0,60.0
291,76.80286462500001,77.618862925,59.0,44.0
292,76.08286612500001,77.63186289791668,47.0,61.0
293,77.522863125,77.63886288333333,66.0,57.0
294,77.522863125,77.68086279583333,71.0,61.0
295,76.562865125,78.03486205833335,54.0,44.0
296,78.00286212500001,78.63586080625001,61.0,70.0
297,78.00286212500001,78.66486074583334,57.0,69.0
298,78.00286212500001,78.74586057708333,66.0,73.0
299,78.962860125,79.5568588875,57.0,57.0
300,78.962860125,79.59785880208334,61.0,63.0
301,78.962860125,79.62585874375,66.0,64.0
302,79.922858125,80.57085677500001,57.0,58.0
303,79.922858125,80.58585674375001,61.0,70.0
304,79.922858125,80.58685674166668,66.0,56.0
305,79.562858875,81.10185566875,54.0,24.0
306,80.882856125,81.49485485000001,57.0,64.0
307,80.882856125,81.50185483541668,61.0,72.0
308,80.882856125,81.53785476041668,66.0,64.0
309,78.00286212500001,81.60485462083334,42.0,64.0
310,81.36285512500001,81.63185456458334,54.0,44.0
311,81.842854125,82.50785273958334,61.0,61.0
312,81.842854125,82.52785269791667,57.0,59.0
313,81.842854125,82.57085260833334,66.0,56.0
314,81.842854125,82.95385181041667,54.0,54.0
315,82.802852125,83.234851225,61.0,69.0
316,82.802852125,83.24885119583334,57.0,62.0
317,82.802852125,83.33885100833334,66.0,62.0
318,81.842854125,83.34885098750001,42.0,62.0
319,83.28285112500001,83.39985088125,54.0,58.0
320,83.762850125,84.386848825,61.0,66.0
321,83.762850125,84.44484870416667,57.0,60.0
322,83.762850125,84.46184866875001,66.0,59.0
323,83.762850125,84.8728478125,54.0,56.0
324,84.72284812500001,85.10184733541666,66.0,64.0
325,84.72284812500001,85.10984731875001,61.0,70.0
326,84.72284812500001,85.14984723541667,57.0,66.0
327,83.762850125,85.31284689583333,42.0,50.0
328,85.202847125,85.33584684791667,54.0,53.0
329,85.682846125,86.23484497500002,59.0,64.0
330,85.682846125,86.25284493750002,56.0,63.0
331,85.682846125,86.28884486250001,64.0,61.0
332,85.682846125,86.94284350000001,52.0,51.0
333,86.64284412500001,87.17084302500001,59.0,61.0
334,86.64284412500001,87.22784290625,56.0,53.0
335,86.64284412500001,87.26284283333334,64.0,55.0
336,87.122843125,87.74984181875001,52.0,32.0
337,87.60284212500001,88.02384124791666,59.0,66.0
338,87.60284212500001,88.05284118750001,64.0,53.0
339,87.60284212500001,88.05484118333334,56.0,57.0
340,88.08284112500002,88.6172495,52.0,46.0
341,88.320006,88.67138325,56.0,44.0
342,88.55622600000001,88.82295775,64.0,63.0
343,88.55622600000001,88.85839075,59.0,63.0
344,85.682846125,89.060162,40.0,66.0
345,88.792446,89.23142150000001,52.0,47.0
346,87.842841625,89.3495315,47.0,38.0
347,89.028666,89.41547625,56.0,46.0
348,89.264886,89.50110600000001,59.0,53.0
349,89.50110600000001,90.229451,61.0,78.0
350,89.50110600000001,90.2314195,69.0,75.0
351,89.50110600000001,90.23240375,64.0,78.0
352,89.50110600000001,90.694017,57.0,49.0
353,89.50110600000001,91.02078800000001,45.0,64.0
354,90.91842600000001,91.02078800000001,57.0,76.0
355,90.445986,91.024725,64.0,64.0
356,90.445986,91.02767775000001,61.0,60.0
357,90.445986,91.20484275,69.0,70.0
358,91.390866,91.96468375,64.0,69.0
359,91.390866,92.04342375,59.0,63.0
360,91.390866,92.05523475000001,68.0,70.0
361,91.390866,92.079841,40.0,67.0
362,91.390866,92.14873850000001,52.0,61.0
363,92.335746,92.8416505,64.0,73.0
364,92.335746,92.87413075,61.0,70.0
365,92.335746,92.95483925,69.0,73.0
366,92.92629600000001,93.65759375,57.0,35.0
367,93.280626,93.87412087083334,64.0,67.0
368,93.280626,93.87912086041668,69.0,69.0
369,93.280626,93.93412074583334,61.0,66.0
370,93.992120625,94.37311983125001,57.0,48.0
371,94.23212012500001,94.71011912916667,64.0,67.0
372,94.23212012500001,94.78211897916667,71.0,70.0
373,94.23212012500001,94.80511893125001,61.0,63.0
374,92.335746,94.82811888333333,45.0,66.0
375,94.712119125,95.02111848125,57.0,58.0
376,95.072118375,95.14711821875001,61.0,43.0
377,95.19211812500001,95.67511711875001,64.0,73.0
378,95.19211812500001,95.732117,61.0,70.0
379,95.19211812500001,95.79111687708334,69.0,75.0
380,95.672117125,95.80811684166667,57.0,45.0
381,95.19211812500001,96.15611611666667,45.0,73.0
382,96.152116125,96.50911538125,59.0,85.0
383,96.152116125,96.53511532708333,64.0,93.0
384,96.152116125,96.58111523125001,69.0,75.0
385,96.392115625,96.68411501666667,45.0,72.0
386,96.632115125,96.752114875,52.0,75.0
387,96.87211462500001,97.016114325,64.0,91.0
388,97.112114125,97.53611324166667,50.0,70.0
389,97.112114125,97.76011277500001,66.0,76.0
390,97.112114125,97.81811265416667,62.0,67.0
391,97.112114125,97.83711261458333,57.0,69.0
392,97.112114125,97.89511249375,69.0,67.0
393,97.83211262500001,98.13311199791667,50.0,56.0
394,98.072112125,98.34011156666668,57.0,73.0
395,98.072112125,98.36511151458333,66.0,72.0
396,98.072112125,98.38711146875,62.0,75.0
397,97.112114125,98.71211079166667,38.0,75.0
398,98.55211112500001,98.73511074375,57.0,69.0
399,98.312111625,98.98211022916666,50.0,80.0
400,98.792110625,99.11810994583334,69.0,75.0
401,99.032110125,99.49910915208334,40.0,72.0
402,99.272109625,99.56410901666668,47.0,61.0
403,99.51210912500001,99.85010842083334,52.0,80.0
404,99.87210837500001,100.03010804583334,69.0,1.0
405,99.032110125,100.05710798958334,64.0,91.0
406,99.032110125,100.06910796458334,68.0,80.0
407,99.032110125,100.07210795833333,59.0,76.0
408,99.752108625,100.36710734375,54.0,53.0
409,99.992108125,100.36710734375,56.0,95.0
410,100.232107625,100.38210731250001,59.0,78.0
411,100.47210712500001,100.66510672291668,64.0,91.0
412,100.712106625,100.90310622708334,68.0,75.0
413,100.952106125,101.37310524791667,61.0,80.0
414,100.952106125,101.46010506666667,64.0,88.0
415,100.952106125,101.4621050625,69.0,67.0
416,101.432105125,101.68210460416667,57.0,72.0
417,101.672104625,101.87410420416667,59.0,91.0
418,101.672104625,102.00610392916667,64.0,91.0
419,101.19210562500001,102.12110368958334,52.0,69.0
420,101.912104125,102.344103225,57.0,60.0
421,100.952106125,102.41710307291667,45.0,73.0
422,102.15210362500001,102.44310301875001,61.0,91.0
423,102.15210362500001,102.50910288125,68.0,93.0
424,102.392103125,102.75910236041668,52.0,69.0
425,102.632102625,103.25410132916667,61.0,75.0
426,102.632102625,103.34910113125001,69.0,78.0
427,102.632102625,103.36710109375001,64.0,85.0
428,103.592100625,103.74610030416667,61.0,75.0
429,103.352101125,103.87110004375,57.0,76.0
430,103.11210162500001,103.98409980833334,52.0,60.0
431,103.83210012500001,104.08509959791667,61.0,85.0
432,103.83210012500001,104.120099525,64.0,99.0
433,103.83210012500001,104.120099525,69.0,76.0
434,104.072099625,104.24909925625,57.0,82.0
435,104.072099625,104.28009919166666,52.0,42.0
436,102.872102125,104.36009902500001,45.0,70.0
437,104.312099125,104.51909869375001,61.0,88.0
438,104.552098625,104.67909836041667,69.0,69.0
439,104.79209812500001,105.26909713125,53.0,82.0
440,104.79209812500001,105.440096775,60.0,85.0
441,104.79209812500001,105.44909675625,57.0,78.0
442,104.79209812500001,105.50609663750001,65.0,82.0
443,105.512096625,105.7580961125,53.0,64.0
444,105.75209612500001,106.02609555416667,57.0,93.0
445,105.75209612500001,106.04909550625001,65.0,103.0
446,105.75209612500001,106.05109550208334,60.0,106.0
447,105.992095625,106.23609511666668,53.0,91.0
448,104.79209812500001,106.28109502291667,41.0,85.0
449,106.232095125,106.31409495416668,57.0,78.0
450,106.232095125,106.33209491666668,60.0,97.0
451,106.232095125,106.34009490000001,65.0,99.0
452,106.71209412500001,107.03209345833334,52.0,88.0
453,106.71209412500001,107.28009294166667,56.0,93.0
454,106.71209412500001,107.32109285625,59.0,97.0
455,106.71209412500001,107.32709284375001,64.0,66.0
456,107.192093125,107.76309193541667,52.0,62.0
457,107.672092125,108.11109121041667,59.0,85.0
458,107.672092125,108.11409120416667,56.0,80.0
459,107.672092125,108.14509113958334,64.0,85.0
460,106.71209412500001,108.17309108125,40.0,76.0
461,108.152091125,108.28409085000001,52.0,80.0
462,108.632090125,109.01708932291668,64.0,76.0
463,108.632090125,109.09508916041668,62.0,80.0
464,108.632090125,109.10008915,69.0,76.0
465,109.11208912500001,109.41308849791668,57.0,59.0
466,109.35208862500001,109.81908765208334,61.0,95.0
467,109.35208862500001,109.83108762708333,69.0,67.0
468,108.872089625,109.85108758541668,52.0,64.0
469,109.35208862500001,109.85408757916667,64.0,80.0
470,108.632090125,110.2460867625,45.0,80.0
471,109.83208762500001,110.2700867125,57.0,56.0
472,110.312086625,110.53908615208334,52.0,62.0
473,110.07208712500001,111.00308518541667,64.0,72.0
474,110.07208712500001,111.01608515833334,59.0,78.0
475,110.792085625,111.35508445208333,52.0,53.0
476,111.272084625,111.41908431875001,59.0,76.0
477,111.03208512500001,111.55108404375001,57.0,60.0
478,110.552086125,111.80608351250001,45.0,78.0
479,111.512084125,111.85208341666667,59.0,73.0
480,111.512084125,111.94308322708333,64.0,93.0
481,111.75208362500001,112.10908288125,52.0,67.0
482,112.232082625,112.33408241250001,59.0,78.0
483,112.47208212500001,113.024080975,49.0,73.0
484,112.47208212500001,113.12908075625,68.0,62.0
485,112.47208212500001,113.26108048125,64.0,76.0
486,112.47208212500001,113.28408043333334,59.0,73.0
487,113.17508066041667,113.45308008125001,49.0,100.0
488,113.432080125,113.91607911666668,68.0,69.0
489,113.432080125,113.92007910833334,64.0,67.0
490,112.47208212500001,113.94007906666667,37.0,63.0
491,113.432080125,113.95907902708333,59.0,63.0
492,113.912079125,114.04207885416668,49.0,70.0
493,114.39207812500001,115.16507651458335,61.0,73.0
494,114.39207812500001,115.1720765,69.0,67.0
495,114.39207812500001,115.19107646041667,66.0,75.0
496,114.39207812500001,115.64907550625,54.0,69.0
497,115.832075125,115.96807484166668,54.0,69.0
498,115.35207612500001,115.97507482708335,66.0,72.0
499,115.35207612500001,115.98507480625,61.0,67.0
500,115.35207612500001,115.99907477708334,69.0,70.0
501,114.39207812500001,116.03307470625,42.0,70.0
502,116.34707405208334,116.720073275,52.0,77.0
503,116.33107408541667,116.83207304166667,57.0,87.0
504,116.33107408541667,116.84107302291667,69.0,86.0
505,116.33107408541667,116.84407301666667,64.0,81.0
506,116.32207410416667,116.85507299375001,61.0,81.0
507,117.01807265416667,117.30107206458334,52.0,81.0
508,116.34707405208334,117.49907165208333,45.0,79.0
509,117.27007212916666,117.5720715,57.0,100.0
510,117.26007215000001,117.58507147291667,64.0,84.0
511,117.27307212291667,117.59207145833334,69.0,92.0
512,117.27007212916666,117.60507143125001,61.0,90.0
513,117.47907169375,117.75307112291668,52.0,85.0
514,117.7340711625,117.77707107291667,45.0,72.0
515,118.21907015208333,118.63406928750001,50.0,84.0
516,118.20307018541666,118.69306916458333,66.0,95.0
517,118.21007017083335,118.70706913541667,62.0,90.0
518,118.20707017708334,118.736069075,57.0,91.0
519,118.89906873541668,119.2100680875,50.0,83.0
520,118.21907015208333,119.40806767500001,38.0,89.0
521,119.16506818125,119.55706736458333,62.0,91.0
522,119.16206818750001,119.56406735,57.0,99.0
523,119.15506820208334,119.57306733125,66.0,97.0
524,119.39406770416667,119.71206704166667,50.0,88.0
525,119.65106716875,119.76206693750001,38.0,93.0
526,119.86006673333334,119.90906663125,38.0,68.0
527,120.12406618333334,120.64206510416668,49.0,90.0
528,120.12306618541668,120.66306506041667,64.0,85.0
529,120.11806619583334,120.69406499583334,56.0,91.0
530,120.11806619583334,120.7340649125,61.0,84.0
531,120.82806471666667,121.15206404166668,49.0,87.0
532,120.12706617708334,121.34506363958334,37.0,90.0
533,121.08706417708333,121.36806359166667,64.0,94.0
534,121.08706417708333,121.376063575,56.0,104.0
535,121.08706417708333,121.45506341041667,61.0,95.0
536,121.56106318958334,121.61506307708333,37.0,91.0
537,121.32406368333334,121.616063075,49.0,83.0
538,122.05206216666667,122.52406118333334,54.0,95.0
539,122.04206218750001,122.60906100625,66.0,97.0
540,122.04406218333334,122.65106091875,61.0,92.0
541,122.04706217708335,122.672060875,57.0,97.0
542,122.04906217291668,123.08806000833334,42.0,95.0
543,123.00906017291668,123.24605967916668,57.0,104.0
544,122.768060675,123.28305960208334,54.0,95.0
545,123.00606017916667,123.28705959375,66.0,103.0
546,123.00606017916667,123.30105956458334,61.0,97.0
547,123.23005971250001,123.44005927500001,42.0,69.0
548,123.49305916458334,123.65205883333334,52.0,88.0
549,123.49305916458334,123.69305874791667,64.0,85.0
550,123.50005915,123.70605872083334,59.0,80.0
551,123.49305916458334,123.71105871041667,56.0,100.0
552,123.73305866458334,123.83405845416667,52.0,79.0
553,123.50105914791668,123.84205843750001,40.0,85.0
554,123.97705815625001,124.50805705,57.0,79.0
555,123.97705815625001,124.544056975,50.0,100.0
556,123.96605817916668,124.55205695833334,54.0,100.0
557,123.97105816875,124.55305695625,62.0,90.0
558,124.69805665416668,125.04005594166668,50.0,95.0
559,123.98105814791667,125.2040556,38.0,105.0
560,124.92305618541667,125.32605534583334,54.0,104.0
561,124.93105616875,125.36705526041668,62.0,92.0
562,124.93105616875,125.40305518541668,57.0,91.0
563,125.37405524583335,125.49405499583334,38.0,95.0
564,125.14305572708334,125.49405499583334,50.0,74.0
565,125.88805417500001,126.46405297500002,52.0,92.0
566,125.88805417500001,126.54405280833333,64.0,88.0
567,125.88105418958334,126.56305276875,56.0,92.0
568,125.88805417500001,126.57505274375,59.0,90.0
569,126.64505259791667,126.96705192708333,52.0,83.0
570,126.86905213125002,127.13205158333334,56.0,104.0
571,126.87405212083334,127.17505149375,64.0,88.0
572,125.88805417500001,127.18305147708334,40.0,93.0
573,126.87405212083334,127.20405143333335,59.0,95.0
574,127.31705119791667,127.37205108333333,40.0,84.0
575,127.08705167708334,127.39005104583333,52.0,79.0
576,127.79105021041667,128.21304933125,69.0,96.0
577,127.78305022708334,128.23104929375,64.0,88.0
578,127.79105021041667,128.25104925208333,57.0,102.0
579,127.78305022708334,128.25904923541668,61.0,91.0
580,127.79305020625,128.67304837291667,52.0,88.0
581,128.5020487291667,128.83004804583334,57.0,100.0
582,128.5020487291667,128.84204802083335,69.0,95.0
583,128.49704873958333,128.88004794166667,61.0,87.0
584,128.49704873958333,128.88004794166667,64.0,90.0
585,129.00104768958334,129.37768177916666,52.0,87.0
586,129.22704721875002,129.40248328958333,59.0,100.0
587,129.224047225,129.43422922291666,71.0,92.0
588,129.224047225,129.46200691458333,61.0,80.0
589,129.22704721875002,129.48085606249998,64.0,88.0
590,129.74672825416667,130.05327492291664,52.0,90.0
591,129.95010063958333,130.12867151458332,71.0,99.0
592,129.9560530020833,130.14851272291665,61.0,100.0
593,130.18621101875,130.44017848541665,52.0,91.0
594,130.415376975,130.57410664166665,71.0,92.0
595,130.415376975,130.64057468958333,59.0,95.0
596,130.40843255208333,130.8022805375,61.0,63.0
597,130.42232139791665,130.8429550145833,64.0,75.0
598,127.79105021041667,130.93720075416667,45.0,92.0
599,130.89652627708332,131.16835083125,69.0,99.0
600,131.14354932083333,131.19116822083333,45.0,88.0
601,130.67331268333334,131.19315234166666,52.0,108.0
602,130.90148657916666,131.20307294583333,61.0,68.0
603,130.89652627708332,131.21696179166665,64.0,47.0
604,130.90148657916666,131.22093003333333,57.0,104.0
605,131.62172244166666,132.15644300625,54.0,99.0
606,131.61973832083333,132.177276275,66.0,94.0
607,131.61973832083333,132.18521275833334,57.0,99.0
608,131.61973832083333,132.1881889395833,61.0,87.0
609,132.33118070416666,132.68017997708333,54.0,95.0
610,131.62469862291667,132.85317961666667,42.0,94.0
611,132.57218020208333,133.0761791520833,66.0,101.0
612,132.5731802,133.09617911041667,57.0,110.0
613,132.57218020208333,133.12517904999999,61.0,99.0
614,132.825179675,133.12717904583332,54.0,88.0
615,133.07317915833332,133.18617892291667,42.0,90.0
616,133.53717819166667,134.1141769895833,52.0,94.0
617,133.53717819166667,134.18517684166665,59.0,92.0
618,133.52917820833332,134.19617681875,56.0,95.0
619,133.53717819166667,134.20817679375,64.0,90.0
620,134.26017668541667,134.59417598958333,52.0,102.0
621,133.53717819166667,134.77017562291667,40.0,93.0
622,134.50717617083333,134.83117549583332,64.0,97.0
623,134.50717617083333,134.85317544999998,56.0,106.0
624,134.50717617083333,134.87117541249998,59.0,104.0
625,134.73117570416665,135.0751749875,52.0,79.0
626,134.98717517083332,135.07817498125,40.0,102.0
627,135.48017414375,136.0882813645833,52.0,102.0
628,135.47117416249998,136.15029669791664,64.0,92.0
629,135.46917416666665,136.15417265624998,56.0,99.0
630,135.47317415833334,136.15417265624998,59.0,95.0
631,136.16676952083333,136.50203991666666,52.0,88.0
632,135.48017414375,136.66967511458333,40.0,103.0
633,136.42355176041664,136.73459741666665,64.0,100.0
634,136.42355176041664,136.74622529166666,56.0,111.0
635,136.42355176041664,136.76076013541666,59.0,102.0
636,136.89738766666665,137.0154028833333,40.0,107.0
637,136.63285351041665,137.02140287083333,52.0,87.0
638,137.36840214791664,137.86740110833333,59.0,88.0
639,137.36040216458332,137.88140107916664,56.0,90.0
640,137.36440215624998,137.9014010375,64.0,88.0
641,137.38040212291665,137.94740094166664,52.0,77.0
642,138.10140062083332,138.37340005416664,52.0,92.0
643,137.38240211874998,138.5963995895833,40.0,80.0
644,138.33140014166665,138.83439909375,56.0,102.0
645,138.3384001270833,138.85439905208332,59.0,92.0
646,138.3384001270833,138.85839904374998,64.0,92.0
647,138.5483996895833,138.8633990333333,52.0,90.0
648,138.81839912708332,138.86839902291663,40.0,105.0
649,139.3013981208333,141.25039406041665,58.0,92.0
650,139.30639811041664,141.26239403541663,54.0,87.0
651,139.30639811041664,141.26839402291665,42.0,84.0
652,139.3013981208333,141.27439401041664,61.0,90.0
653,139.3013981208333,141.28439398958332,66.0,94.0
654,142.179392125,142.69139105833332,59.0,73.0
655,142.179392125,142.69439105208332,62.0,72.0
656,142.179392125,142.71939099999997,56.0,70.0
657,142.65939112499998,142.75539092499997,52.0,69.0
658,143.13939012499998,143.55238926458333,45.0,69.0
659,143.13939012499998,143.85038864375,61.0,75.0
660,143.13939012499998,143.85738862916665,57.0,78.0
661,143.13939012499998,143.88638856875,52.0,67.0
662,143.85938862499998,144.29638771458332,45.0,50.0
663,143.13939012499998,144.58238711874998,33.0,75.0
664,144.099388125,144.6353870083333,52.0,73.0
665,144.099388125,144.66738694166665,57.0,78.0
666,144.099388125,144.67738692083333,61.0,70.0
667,144.57938712499998,144.72438682291664,45.0,63.0
668,145.05938612499997,145.27038568541664,61.0,76.0
669,145.05938612499997,145.29838562708332,69.0,72.0
670,145.05938612499997,145.31938558333331,64.0,66.0
671,145.419385375,145.55838508541666,59.0,69.0
672,145.419385375,145.73638471458332,68.0,70.0
673,145.77938462499998,146.26438361458332,64.0,67.0
674,145.77938462499998,146.31438351041663,61.0,70.0
675,145.77938462499998,146.35938341666665,69.0,72.0
676,146.139383875,146.37138339166665,57.0,48.0
677,145.05938612499997,146.57738296249997,45.0,69.0
678,146.739382625,146.87238234791664,66.0,46.0
679,146.49938312499998,146.90138228749998,64.0,76.0
680,146.97938212499997,147.50838102291664,57.0,62.0
681,146.97938212499997,147.51538100833332,52.0,60.0
682,146.97938212499997,147.51638100625,59.0,78.0
683,146.97938212499997,147.52338099166664,61.0,80.0
684,146.97938212499997,147.53838096041665,64.0,70.0
685,146.97938212499997,147.5603809145833,45.0,64.0
686,146.97938212499997,147.56138091249997,69.0,56.0
687,154.65380077499995,155.16497766874994,57.0,48.0
688,154.64262195624994,155.2481888541666,64.0,62.0
689,154.63652441874996,155.2511888479166,61.0,59.0
690,154.63652441874996,155.2571888354166,69.0,62.0
691,155.3591886229166,155.63718804374994,57.0,57.0
692,154.65786579999994,155.85318759374994,52.0,56.0
693,154.65786579999994,156.0891871020833,45.0,58.0
694,155.59118813958327,156.14645143333328,61.0,67.0
695,155.59118813958327,156.14748448749995,69.0,73.0
696,155.5941881333333,156.16711251666663,64.0,71.0
697,155.8361876291666,156.16917862499997,57.0,55.0
698,156.06718714791663,156.19087276249996,52.0,63.0
699,156.57723502083329,157.08343156249995,57.0,56.0
700,156.54521034166663,157.17285762499998,61.0,64.0
701,156.5555408833333,157.20052918333332,64.0,65.0
702,156.5555408833333,157.21675044166665,69.0,70.0
703,157.31121541666664,157.57743489166663,57.0,55.0
704,156.57516891249995,157.76159388333332,52.0,63.0
705,156.56587142499995,157.99823341666664,45.0,57.0
706,157.7444184333333,158.0449888083333,57.0,56.0
707,158.00491275833332,158.05294298541662,52.0,63.0
708,157.54022141666664,158.07294294374998,61.0,76.0
709,157.53735884166665,158.09194290416664,69.0,80.0
710,157.54212979999997,158.0929429020833,64.0,76.0
711,158.48994207499996,158.97094107291664,57.0,52.0
712,158.46594212499997,158.99994101249996,61.0,64.0
713,158.47794209999998,159.02794095416664,64.0,68.0
714,158.47794209999998,159.0319409458333,69.0,64.0
715,159.12294075624996,159.41394014999997,57.0,45.0
716,158.4859420833333,159.67193961249995,52.0,56.0
717,159.39394019166664,159.90993911666664,69.0,71.0
718,158.49394206666662,159.91293911041663,45.0,51.0
719,159.3979401833333,159.9229390895833,64.0,69.0
720,159.6169397270833,159.92693908124997,57.0,62.0
721,159.39394019166664,159.92793907916663,61.0,75.0
722,159.87893918124996,159.95193902916662,52.0,54.0
723,159.88493916874995,160.15793859999997,66.0,60.0
724,160.3849381270833,160.8439371708333,57.0,62.0
725,160.37493814791662,160.94660624999997,61.0,59.0
726,160.10693870624996,160.95743299999998,64.0,67.0
727,160.37493814791662,160.96629124999998,69.0,57.0
728,161.09227524999997,161.36392825,57.0,69.0
729,160.3849381270833,161.56569949999997,52.0,63.0
730,161.32947949999996,161.68184099999996,61.0,81.0
731,161.32554249999998,161.81274624999998,69.0,80.0
732,160.3849381270833,161.81766749999997,45.0,61.0
733,161.32947949999996,161.83144699999997,64.0,76.0
734,161.56274674999997,161.83636824999996,57.0,72.0
735,161.81569899999997,162.05181662291665,52.0,71.0
736,162.02381668125,162.06981658541665,45.0,65.0
737,162.27181616458333,162.79781506875,56.0,76.0
738,162.2838161395833,162.80181506041666,64.0,67.0
739,162.28981612708333,162.82181501875,59.0,67.0
740,162.27681615416665,162.82781500624998,52.0,50.0
741,162.97981468958332,163.31181399791666,52.0,79.0
742,162.28981612708333,163.52381355625,40.0,59.0
743,163.24381413958332,163.54481351249999,56.0,90.0
744,163.24381413958332,163.6468133,59.0,84.0
745,163.24381413958332,163.70581317708331,64.0,87.0
746,163.71981314791665,163.76181306041664,40.0,71.0
747,163.47581365624998,163.76181306041664,52.0,72.0
748,164.20780429791665,164.74331096875,52.0,62.0
749,164.19901525416665,164.82931078958333,57.0,72.0
750,164.19901525416665,164.84631075416667,64.0,72.0
751,164.19022621041665,164.85531073541665,61.0,71.0
752,164.90831062499998,165.19431002916664,52.0,90.0
753,164.21073397916666,165.41030957916666,45.0,59.0
754,165.12831016666667,165.54730929375,61.0,85.0
755,165.13131016041666,165.5923092,57.0,91.0
756,165.13131016041666,165.61230915833332,64.0,83.0
757,165.37530965208333,165.64230909583333,52.0,85.0
758,165.60830916666666,165.65930906041666,45.0,69.0
759,166.11230811666667,166.612307075,50.0,61.0
760,166.09430815416667,166.67930693541666,57.0,74.0
761,166.09430815416667,166.67930693541666,66.0,73.0
762,166.09930814375,166.6893069145833,62.0,72.0
763,166.81730664791667,167.12930599791665,50.0,83.0
764,166.10830812499998,167.34930553958333,38.0,62.0
765,167.308305625,167.59230503333333,50.0,81.0
766,167.54930512291665,167.6043050083333,38.0,75.0
767,167.07230611666665,167.65530490208332,66.0,89.0
768,167.07730610624998,167.65730489791665,57.0,94.0
769,167.07730610624998,167.6763048583333,62.0,87.0
770,168.04330409374998,168.54330305208333,50.0,62.0
771,168.03530411041666,168.6783027708333,57.0,75.0
772,168.03530411041666,168.68830275,66.0,79.0
773,168.04330409374998,168.70930270624999,62.0,69.0
774,168.7323026583333,169.02830204166665,50.0,83.0
775,168.04930408125,169.252301575,38.0,62.0
776,169.22230163749998,169.48930108125,50.0,76.0
777,169.4523011583333,169.49730106458333,38.0,69.0
778,168.98430213333333,169.5343009875,62.0,85.0
779,168.98030214166667,169.55330094791665,57.0,94.0
780,168.97530215208332,169.56530092291666,66.0,91.0
781,169.98130005624998,170.49129899374998,52.0,64.0
782,169.97830006249998,170.58529879791666,57.0,67.0
783,169.97130007708333,170.59729877291664,64.0,67.0
784,169.97130007708333,170.60029876666667,61.0,67.0
785,170.6492986645833,170.97229799166666,52.0,81.0
786,171.13629765,171.1952975270833,52.0,63.0
787,169.97830006249998,171.4052970895833,45.0,56.0
788,171.38929712291664,171.43929701874998,52.0,71.0
789,170.90629812916666,171.51229686666665,57.0,90.0
790,170.90629812916666,171.5142968625,64.0,84.0
791,170.89829814583334,171.52629683749998,61.0,90.0
792,171.90129605625,172.35129511875,52.0,62.0
793,171.88329609375,172.48729483541666,57.0,76.0
794,171.88329609375,172.49329482291665,64.0,75.0
795,171.87829610416665,172.51229478333332,61.0,72.0
796,172.57229465833333,172.85529406875,52.0,74.0
797,171.90229605416667,173.06529363125,45.0,58.0
798,172.81029416249999,173.28029318333333,64.0,80.0
799,172.81029416249999,173.3072931270833,57.0,90.0
800,173.0432936770833,173.31129311875,52.0,74.0
801,172.81029416249999,173.33329307291666,61.0,90.0
802,173.29729314791666,173.34229305416665,45.0,67.0
803,173.7942921125,174.34329096874998,52.0,74.0
804,173.79029212083333,174.3942908625,59.0,76.0
805,173.79029212083333,174.39629085833332,64.0,74.0
806,173.78129213958331,174.40929083125,56.0,81.0
807,174.52129059791665,174.80529000625,52.0,69.0
808,173.79729210624998,175.19528919375,40.0,76.0
809,174.9822896375,175.25028907916666,52.0,61.0
810,174.74629012916665,175.30328896875,56.0,90.0
811,174.75229011666664,175.30828895833332,64.0,83.0
812,174.74629012916665,175.31028895416665,59.0,85.0
813,175.22228913749998,175.3142889458333,47.0,76.0
814,175.71128811875,176.10028730833332,52.0,76.0
815,175.69928814374998,176.15828718749998,59.0,87.0
816,175.69728814791665,176.17228715833332,56.0,99.0
817,175.70328813541667,176.17228715833332,64.0,87.0
818,176.43828660416665,176.90028564166667,56.0,102.0
819,176.44128659791664,176.91328561458332,59.0,91.0
820,176.44728658541666,176.92428559166666,64.0,88.0
821,175.708288125,177.13828514583332,40.0,81.0
822,177.13428515416666,177.28928483125,56.0,84.0
823,177.14728512708334,177.29128482708333,64.0,72.0
824,177.14028514166665,177.3042848,59.0,79.0
825,176.91728560625,177.41628456666666,52.0,75.0
826,177.37528465208334,177.4182845625,40.0,68.0
827,177.63528411041665,178.15928301875,54.0,64.0
828,177.63228411666665,178.20628292083333,66.0,97.0
829,177.63228411666665,178.23128286875,57.0,92.0
830,177.63528411041665,178.23828285416667,61.0,87.0
831,178.348282625,178.67228194999998,54.0,83.0
832,177.63828410416664,178.83728160625,42.0,69.0
833,178.6052820895833,179.140280975,57.0,95.0
834,179.07728110624998,179.14228097083333,42.0,69.0
835,178.85028157916665,179.15328094791667,54.0,77.0
836,178.6052820895833,179.18528088124998,66.0,97.0
837,178.6052820895833,179.21128082708333,61.0,88.0
838,179.26728071041666,179.39328044791665,42.0,63.0
839,179.53428015416665,179.88327942708332,56.0,90.0
840,179.54028014166667,179.9022793875,59.0,79.0
841,179.53428015416665,179.91927935208332,64.0,83.0
842,179.54928012291666,180.12627892083333,52.0,75.0
843,179.9982791875,180.53527806875,56.0,75.0
844,179.99527919374998,180.53527806875,59.0,72.0
845,179.99327919791665,180.54327805208334,64.0,76.0
846,180.51827810416665,180.78327755208332,52.0,92.0
847,179.55628010833334,180.92627725416665,40.0,74.0
848,180.71127770208332,181.0699305,56.0,94.0
849,180.71627769166665,181.0699305,64.0,84.0
850,180.71627769166665,181.08469424999998,59.0,84.0
851,180.9582771875,181.20674125,52.0,88.0
852,181.16737124999997,181.20969399999998,40.0,77.0
853,181.43016599999999,181.77563775,66.0,94.0
854,181.43016599999999,181.77957475,57.0,92.0
855,181.43311874999998,181.79138575,61.0,87.0
856,181.44197699999998,182.20215656458333,54.0,77.0
857,181.88390525,182.4251561,66.0,63.0
858,181.88390525,182.43515607916666,57.0,77.0
859,181.87209424999998,182.45715603333332,61.0,63.0
860,182.59815573958332,182.74415543541667,57.0,90.0
861,181.44492974999997,182.90715509583333,42.0,76.0
862,182.39815615625,182.92715505416666,54.0,87.0
863,182.8511552125,183.14715459583334,66.0,91.0
864,182.8511552125,183.1511545875,57.0,90.0
865,183.08315472916667,183.16415456041668,42.0,77.0
866,183.0971547,183.16715455416667,54.0,83.0
867,182.8511552125,183.17115454583333,61.0,87.0
868,183.33215421041666,183.59315366666667,57.0,91.0
869,183.33215421041666,183.60615363958334,66.0,92.0
870,183.33615420208332,183.62715359583333,61.0,94.0
871,183.33615420208332,183.97815286458334,54.0,85.0
872,183.33815419791665,184.33515212083333,42.0,77.0
873,183.84815313541665,184.38615201458333,57.0,94.0
874,183.84115315,184.43215191875,66.0,95.0
875,183.84815313541665,184.51115175416666,61.0,84.0
876,184.33115212916667,184.55215166874999,54.0,85.0
877,184.55315166666665,184.77315120833333,42.0,64.0
878,184.79815115625,184.88715097083332,40.0,75.0
879,184.79315116666666,184.98315077083333,56.0,95.0
880,184.80115115,184.98315077083333,59.0,84.0
881,184.79815115625,184.99315074999998,64.0,87.0
882,185.00015073541667,185.0471506375,40.0,57.0
883,184.7951511625,185.08815055208333,52.0,75.0
884,185.293150125,185.9650385,52.0,68.0
885,185.293150125,186.02310925,69.0,93.0
886,185.293150125,186.04476275,57.0,97.0
887,185.293150125,186.06149499999998,64.0,80.0
888,185.293150125,186.06346349999998,61.0,87.0
889,185.99062899999998,186.45617925,52.0,74.0
890,185.293150125,186.58610025,45.0,67.0
891,186.482754,186.6264545,52.0,58.0
892,186.718974,186.7996825,52.0,69.0
893,186.26621899999998,186.86759575,69.0,99.0
894,186.246534,186.90893425,57.0,99.0
895,186.246534,186.95716249999998,64.0,85.0
896,186.246534,186.96602074999998,61.0,88.0
897,186.955194,187.01523325,52.0,76.0
898,187.19141399999998,187.69436575,52.0,67.0
899,187.19141399999998,187.81190881458332,69.0,80.0
900,187.19141399999998,187.82290879166666,64.0,72.0
901,187.19141399999998,187.83690876249997,57.0,85.0
902,187.19141399999998,187.85890871666666,61.0,76.0
903,187.90290862499998,188.20690799166664,52.0,80.0
904,187.19141399999998,188.39490759999998,45.0,74.0
905,188.62290712499998,188.66690703333333,45.0,75.0
906,188.38290762499997,188.67690701249998,52.0,75.0
907,188.142908125,188.68090700416664,64.0,79.0
908,188.142908125,188.6859807625,57.0,95.0
909,188.142908125,188.6859807625,69.0,93.0
910,188.142908125,188.6962266375,61.0,84.0
911,189.11323375,189.611183275,52.0,79.0
912,189.11323375,189.74051084583334,57.0,88.0
913,189.11323375,189.75051082500002,64.0,77.0
914,189.11323375,189.75051082500002,69.0,90.0
915,189.11323375,189.77151078125002,61.0,85.0
916,189.846510625,190.14651,52.0,88.0
917,189.11323375,190.36150955208333,45.0,76.0
918,190.32650962500003,190.61650902083335,52.0,81.0
919,190.566509125,190.62650900000003,45.0,77.0
920,190.08651012500002,190.65550893958334,69.0,89.0
921,190.08651012500002,190.65850893333334,57.0,92.0
922,190.08651012500002,190.66050892916667,64.0,77.0
923,190.08651012500002,190.67150890625,61.0,83.0
924,191.046508125,191.38750741458335,69.0,89.0
925,191.046508125,191.39950738958333,64.0,80.0
926,191.046508125,191.41750735208333,57.0,91.0
927,191.046508125,191.42850732916668,61.0,85.0
928,191.046508125,191.88150638541669,52.0,80.0
929,191.766506625,192.24550562708336,69.0,89.0
930,191.766506625,192.26850557916669,57.0,91.0
931,191.766506625,192.27250557083335,64.0,76.0
932,191.766506625,192.27850555833334,61.0,81.0
933,191.046508125,192.37450535833335,45.0,80.0
934,192.486505125,192.55050499166668,64.0,61.0
935,192.486505125,192.59750489375003,57.0,87.0
936,192.486505125,192.6245048375,61.0,74.0
937,192.486505125,192.64550479375,69.0,87.0
938,192.24650562500003,192.71150465625,52.0,88.0
939,192.72650462500002,192.79150448958336,45.0,64.0
940,192.96650412500003,193.45350311041668,54.0,75.0
941,192.96650412500003,193.4775030604167,71.0,84.0
942,192.96650412500003,193.48350304791668,59.0,84.0
943,192.96650412500003,193.48450304583335,47.0,72.0
944,192.96650412500003,193.49050303333334,62.0,74.0
945,192.96650412500003,193.51450298333336,66.0,83.0
946,193.686502625,194.11650172916669,59.0,100.0
947,193.686502625,194.15150165625002,71.0,93.0
948,194.16650162500002,194.2085015375,59.0,76.0
949,193.686502625,194.2445014625,66.0,87.0
950,193.686502625,194.24850145416667,62.0,88.0
951,194.406501125,194.52034698333335,59.0,99.0
952,194.406501125,194.52707773125002,62.0,83.0
953,193.926502125,194.53765462083337,47.0,80.0
954,194.406501125,194.54053922708334,71.0,90.0
955,193.926502125,194.54823151041668,54.0,83.0
956,194.406501125,194.55592379375003,66.0,78.0
957,194.87034587500003,195.18669102708336,54.0,81.0
958,194.87034587500003,195.42857491875003,71.0,92.0
959,194.87034587500003,195.44857487708336,59.0,97.0
960,194.87034587500003,195.49457478125004,66.0,84.0
961,194.87034587500003,195.4985747729167,62.0,88.0
962,195.56957462500003,195.85057403958336,54.0,85.0
963,194.87034587500003,196.07057358125004,47.0,80.0
964,195.80957412500004,196.23557323750003,71.0,99.0
965,195.80957412500004,196.2515732041667,59.0,99.0
966,195.80957412500004,196.29557311250002,66.0,82.0
967,195.80957412500004,196.29757310833338,62.0,88.0
968,196.04957362500005,196.33157303750005,54.0,85.0
969,196.28957312500003,196.44257280625004,47.0,76.0
970,196.76957212500002,197.11457140625004,57.0,90.0
971,196.76957212500002,197.12657138125005,66.0,92.0
972,196.76957212500002,197.1395713541667,61.0,85.0
973,196.76957212500002,197.42957075000004,54.0,80.0
974,197.24957112500005,197.79356999166671,66.0,64.0
975,197.24957112500005,197.8115699541667,57.0,79.0
976,197.24957112500005,197.82856991875005,61.0,62.0
977,198.08956937500002,198.27456898958337,64.0,79.0
978,196.76957212500002,198.2945689479167,42.0,85.0
979,197.84956987500004,198.4175686916667,54.0,91.0
980,198.68956812500005,198.95456757291672,57.0,87.0
981,198.68956812500005,198.9815675166667,61.0,84.0
982,198.68956812500005,198.98256751458337,66.0,91.0
983,198.68956812500005,199.19856706458336,54.0,85.0
984,199.16956712500004,199.42756658750002,57.0,85.0
985,199.16956712500004,199.44556655000002,66.0,89.0
986,199.16956712500004,199.45156653750004,61.0,77.0
987,199.40956662500002,199.72656596458336,54.0,87.0
988,198.68956812500005,199.86156568333337,42.0,85.0
989,199.88956562500005,200.16456505208336,54.0,84.0
990,200.12956512500003,200.17456503125004,42.0,87.0
991,199.64956612500004,200.2205649354167,57.0,97.0
992,199.64956612500004,200.2205649354167,66.0,92.0
993,199.64956612500004,200.23156491250003,61.0,87.0
994,200.60956412500005,200.89956352083337,57.0,94.0
995,200.60956412500005,200.90956350000005,66.0,92.0
996,200.60956412500005,200.92956345833338,61.0,90.0
997,201.08956312500004,201.3455625916667,66.0,95.0
998,201.08956312500004,201.37756252500003,57.0,90.0
999,201.08956312500004,201.3995624791667,61.0,90.0
1000,200.60956412500005,201.40456246875004,54.0,87.0
1001,200.60956412500005,201.43956239583338,42.0,84.0
1002,201.32956262500005,201.62356201250003,64.0,75.0
1003,201.56956212500003,201.68056189375002,57.0,87.0
1004,201.56956212500003,201.7085618354167,61.0,84.0
1005,201.56956212500003,201.71356182500003,66.0,94.0
1006,202.04956112500003,202.1435609291667,42.0,90.0
1007,202.04956112500003,202.16856087708337,54.0,94.0
1008,201.80956162500004,202.28356063750005,66.0,62.0
1009,201.80956162500004,202.29956060416671,57.0,85.0
1010,201.80956162500004,202.34656050625003,61.0,62.0
1011,202.28956062500004,202.43056033125004,64.0,83.0
1012,202.52956012500005,202.83255949375004,57.0,91.0
1013,202.52956012500005,202.8455594666667,66.0,92.0
1014,202.52956012500005,202.85255945208337,61.0,72.0
1015,202.52956012500005,203.06655900625003,54.0,97.0
1016,203.00955912500004,203.3165584854167,66.0,95.0
1017,203.00955912500004,203.35955839583337,57.0,94.0
1018,203.00955912500004,203.3945583229167,61.0,87.0
1019,203.24955862500005,203.5505579979167,64.0,81.0
1020,203.24955862500005,203.56955795833338,54.0,97.0
1021,202.52956012500005,203.70755767083338,42.0,91.0
1022,203.48955812500003,204.0005570604167,57.0,87.0
1023,203.48955812500003,204.00455705208338,66.0,97.0
1024,203.72955762500004,204.01355703333337,54.0,87.0
1025,203.48955812500003,204.0365569854167,61.0,71.0
1026,203.96955712500005,204.16955670833337,42.0,84.0
1027,204.44955612500004,204.89855518958336,59.0,85.0
1028,204.44955612500004,204.9245551354167,56.0,90.0
1029,204.44955612500004,204.9485550854167,64.0,83.0
1030,204.44955612500004,205.22183800000002,52.0,80.0
1031,205.16672000000003,205.51908150000003,56.0,88.0
1032,205.16672000000003,205.53778225000002,59.0,88.0
1033,205.16672000000003,205.54860900000003,64.0,88.0
1034,204.44955612500004,205.85569500000003,40.0,87.0
1035,205.40294000000003,205.89998625,52.0,95.0
1036,205.63916000000003,206.08108825000002,64.0,69.0
1037,205.63916000000003,206.09388350000003,56.0,71.0
1038,205.63916000000003,206.10569450000003,59.0,72.0
1039,205.87538000000004,206.11455275000003,47.0,83.0
1040,206.34782,206.74053575000002,56.0,85.0
1041,206.34782,206.75234675000002,64.0,74.0
1042,206.34782,206.75431525000002,59.0,79.0
1043,206.34782,206.92731490000003,52.0,90.0
1044,206.82026000000002,207.41931387500003,56.0,81.0
1045,206.82026000000002,207.42731385833335,64.0,81.0
1046,206.82026000000002,207.44331382500002,59.0,84.0
1047,207.059314625,207.81631304791668,52.0,91.0
1048,207.53931362500003,207.82631302708336,56.0,81.0
1049,206.34782,207.84029725000002,40.0,85.0
1050,207.53931362500003,207.84226575000002,64.0,72.0
1051,207.53931362500003,207.84423425000003,59.0,79.0
1052,207.77931312500002,207.98891900000004,47.0,80.0
1053,208.01647800000003,208.06569050000004,52.0,83.0
1054,208.25269800000004,208.98419258333337,61.0,78.0
1055,208.25269800000004,208.9861925791667,69.0,75.0
1056,208.25269800000004,208.9871925770834,64.0,78.0
1057,208.25269800000004,209.45619160000004,57.0,49.0
1058,208.25269800000004,209.78819090833338,45.0,64.0
1059,209.68419112500004,209.78819090833338,57.0,76.0
1060,209.20419212500005,209.79219090000004,64.0,64.0
1061,209.20419212500005,209.79519089375003,61.0,60.0
1062,209.20419212500005,209.97519051875005,69.0,70.0
1063,210.16419012500003,210.74718891041672,64.0,69.0
1064,210.16419012500003,210.82718874375004,59.0,63.0
1065,210.16419012500003,210.83918871875005,68.0,70.0
1066,210.16419012500003,210.8641886666667,40.0,67.0
1067,210.16419012500003,210.93418852083337,52.0,61.0
1068,211.12418812500005,211.6381870541667,64.0,73.0
1069,211.12418812500005,211.6711869854167,61.0,70.0
1070,211.12418812500005,211.7531868145834,69.0,73.0
1071,211.72418687500004,212.46718532708337,57.0,35.0
1072,212.08418612500003,212.6861848708334,64.0,67.0
1073,212.08418612500003,212.6911848604167,69.0,69.0
1074,212.08418612500003,212.74618474583338,61.0,66.0
1075,212.80418462500003,213.18518383125004,57.0,48.0
1076,213.04418412500004,213.5221831291667,64.0,67.0
1077,213.04418412500004,213.5941829791667,71.0,70.0
1078,213.04418412500004,213.61718293125006,61.0,63.0
1079,211.12418812500005,213.64018288333338,45.0,66.0
1080,213.52418312500004,213.83318248125005,57.0,58.0
1081,213.88418237500005,213.95918221875004,61.0,43.0
1082,214.00418212500006,214.48718111875004,64.0,73.0
1083,214.00418212500006,214.54418100000004,61.0,70.0
1084,214.00418212500006,214.6031808770834,69.0,75.0
1085,214.48418112500005,214.62018084166672,57.0,45.0
1086,214.00418212500006,214.9681801166667,45.0,73.0
1087,214.96418012500004,215.32117938125003,59.0,85.0
1088,214.96418012500004,215.34717932708338,64.0,93.0
1089,214.96418012500004,215.39317923125003,69.0,75.0
1090,215.20417962500005,215.4961790166667,45.0,72.0
1091,215.44417912500003,215.56417887500004,52.0,75.0
1092,215.68417862500004,215.82817832500004,64.0,91.0
1093,215.92417812500005,216.34817724166672,50.0,70.0
1094,215.92417812500005,216.57217677500003,66.0,76.0
1095,215.92417812500005,216.63017665416672,62.0,67.0
1096,215.92417812500005,216.64917661458338,57.0,69.0
1097,215.92417812500005,216.70717649375004,69.0,67.0
1098,216.64417662500006,216.94517599791672,50.0,56.0
1099,216.88417612500004,217.1521755666667,57.0,73.0
1100,216.88417612500004,217.17717551458338,66.0,72.0
1101,216.88417612500004,217.19917546875004,62.0,75.0
1102,215.92417812500005,217.52417479166672,38.0,75.0
1103,217.36417512500003,217.54717474375005,57.0,69.0
1104,217.12417562500005,217.7941742291667,50.0,80.0
1105,217.60417462500004,217.9301739458334,69.0,75.0
1106,217.84417412500005,218.31117315208337,40.0,72.0
1107,218.08417362500003,218.3761730166667,47.0,61.0
1108,218.32417312500004,218.66217242083337,52.0,80.0
1109,218.68417237500006,218.84217204583337,69.0,1.0
1110,217.84417412500005,218.86917198958338,64.0,91.0
1111,217.84417412500005,218.8811719645834,68.0,80.0
1112,217.84417412500005,218.88417195833338,59.0,76.0
1113,218.56417262500005,219.17917134375006,54.0,53.0
1114,218.80417212500004,219.17917134375006,56.0,95.0
1115,219.04417162500005,219.19417131250003,59.0,78.0
1116,219.28417112500006,219.47717072291672,64.0,91.0
1117,219.52417062500004,219.71517022708338,68.0,75.0
1118,219.76417012500005,220.18516924791672,61.0,80.0
1119,219.76417012500005,220.27216906666672,64.0,88.0
1120,219.76417012500005,220.27416906250005,69.0,67.0
1121,220.24416912500004,220.4941686041667,57.0,72.0
1122,220.48416862500005,220.6861682041667,59.0,91.0
1123,220.48416862500005,220.81816792916672,64.0,91.0
1124,220.00416962500003,220.93316768958337,52.0,69.0
1125,220.72416812500003,221.15616722500005,57.0,60.0
1126,219.76417012500005,221.2291670729167,45.0,73.0
1127,220.96416762500004,221.25516701875006,61.0,91.0
1128,220.96416762500004,221.32116688125004,68.0,93.0
1129,221.20416712500005,221.57116636041673,52.0,69.0
1130,221.44416662500004,222.06616532916672,61.0,75.0
1131,221.44416662500004,222.16116513125004,69.0,78.0
1132,221.44416662500004,222.17916509375004,64.0,85.0
1133,222.40416462500005,222.55816430416672,61.0,75.0
1134,222.16416512500004,222.68316404375005,57.0,76.0
1135,221.92416562500006,222.79616380833338,52.0,60.0
1136,222.64416412500003,222.89716359791672,61.0,85.0
1137,222.64416412500003,222.93216352500005,64.0,99.0
1138,222.64416412500003,222.93216352500005,69.0,76.0
1139,222.88416362500004,223.06116325625004,57.0,82.0
1140,222.88416362500004,223.0921631916667,52.0,42.0
1141,221.68416612500005,223.17216302500003,45.0,70.0
1142,223.12416312500005,223.33116269375006,61.0,88.0
1143,223.36416262500003,223.49116236041672,69.0,69.0
1144,223.60416212500004,224.08116113125004,53.0,82.0
1145,223.60416212500004,224.25216077500005,60.0,85.0
1146,223.60416212500004,224.26116075625004,57.0,78.0
1147,223.60416212500004,224.31816063750006,65.0,82.0
1148,224.32416062500005,224.57016011250005,53.0,64.0
1149,224.56416012500006,224.8381595541667,57.0,93.0
1150,224.56416012500006,224.86115950625003,65.0,103.0
1151,224.56416012500006,224.86315950208336,60.0,106.0
1152,224.80415962500004,225.0481591166667,53.0,91.0
1153,223.60416212500004,225.09315902291672,41.0,85.0
1154,225.04415912500005,225.12615895416673,57.0,78.0
1155,225.04415912500005,225.1441589166667,60.0,97.0
1156,225.04415912500005,225.15215890000005,65.0,99.0
1157,225.52415812500004,225.84415745833337,52.0,88.0
1158,225.52415812500004,226.0921569416667,56.0,93.0
1159,225.52415812500004,226.13315685625005,59.0,97.0
1160,225.52415812500004,226.13915684375004,64.0,66.0
1161,226.00415712500003,226.57515593541672,52.0,62.0
1162,226.48415612500006,226.92315521041672,59.0,85.0
1163,226.48415612500006,226.92615520416672,56.0,80.0
1164,226.48415612500006,226.9571551395834,64.0,85.0
1165,225.52415812500004,226.98515508125004,40.0,76.0
1166,226.96415512500005,227.09615485000003,52.0,80.0
1167,227.44415412500004,227.8291533229167,64.0,76.0
1168,227.44415412500004,227.90715316041673,62.0,80.0
1169,227.44415412500004,227.91215315000005,69.0,76.0
1170,227.92415312500003,228.22323956041672,57.0,59.0
1171,228.16272387500004,228.62601608958337,61.0,95.0
1172,228.16272387500004,228.6379208145834,69.0,67.0
1173,227.68415362500005,228.65776202291673,52.0,64.0
1174,228.16272387500004,228.6607382041667,64.0,80.0
1175,227.44415412500004,229.04962588750004,45.0,80.0
1176,228.63891287500005,229.07343533750006,57.0,56.0
1177,229.11510187500005,229.3402995895834,52.0,62.0
1178,228.87700737500006,229.80061562291672,64.0,72.0
1179,228.87700737500006,229.8135124083334,59.0,78.0
1180,229.59129087500006,230.1498208895834,52.0,53.0
1181,230.06747987500006,230.21331275625005,59.0,76.0
1182,229.82938537500004,230.34426473125004,57.0,60.0
1183,229.35319637500004,230.59724013750005,45.0,78.0
1184,230.30557437500005,230.64287491666673,59.0,73.0
1185,230.30557437500005,230.73315241458337,64.0,93.0
1186,230.54366887500004,230.89783444375004,52.0,67.0
1187,231.01985787500004,231.12104803750006,59.0,78.0
1188,231.25795237500006,231.90973606875005,68.0,62.0
1189,231.25795237500006,232.04068804375004,64.0,76.0
1190,231.25795237500006,232.06350543333338,59.0,73.0
1191,231.25795237500006,232.4345360291667,49.0,73.0
1192,232.21033037500004,232.69048761666673,68.0,69.0
1193,232.21033037500004,232.69445585833338,64.0,67.0
1194,231.25795237500006,232.71429706666672,37.0,63.0
1195,232.21033037500004,232.73314621458337,59.0,63.0
1196,232.68651937500005,232.8154872291667,49.0,70.0
1197,233.16270837500005,233.92957107708338,61.0,73.0
1198,233.16270837500005,233.93651550000004,69.0,67.0
1199,233.16270837500005,233.95536464791672,66.0,75.0
1200,233.16270837500005,234.40972831875004,54.0,69.0
1201,234.59127537500004,234.72803447500007,54.0,69.0
1202,234.11508637500006,234.73514826875007,66.0,72.0
1203,234.11508637500006,234.74531083125007,61.0,67.0
1204,234.11508637500006,234.75953841875005,69.0,70.0
1205,233.16270837500005,234.79409113125007,42.0,70.0
1206,235.07762662500005,235.83969798958339,64.0,75.0
1207,235.07762662500005,235.85358683541673,57.0,69.0
1208,235.07762662500005,235.8605312583334,61.0,76.0
1209,235.07762662500005,236.3783867958334,45.0,67.0
1210,235.07762662500005,236.55001324791672,33.0,75.0
1211,236.04307037500007,236.6075527520834,64.0,70.0
1212,236.04307037500007,236.61846541666674,57.0,70.0
1213,236.04307037500007,236.64425898750005,61.0,73.0
1214,236.51925937500008,236.69584612916674,45.0,59.0
1215,236.99544837500005,237.73254926458338,66.0,66.0
1216,236.99544837500005,237.74346192916673,62.0,64.0
1217,236.99544837500005,237.74743017083338,57.0,64.0
1218,236.99544837500005,238.2444524395834,50.0,67.0
1219,237.94782637500006,238.44782482500005,57.0,63.0
1220,237.94782637500006,238.59961006875005,66.0,67.0
1221,237.94782637500006,238.67798284166673,62.0,70.0
1222,238.42401537500007,238.99841835625006,50.0,63.0
1223,238.90020437500007,239.60059902916672,68.0,72.0
1224,238.90020437500007,239.6551623520834,59.0,70.0
1225,238.90020437500007,239.68095592291672,64.0,72.0
1226,238.90020437500007,240.13035929166674,49.0,66.0
1227,239.85258237500005,240.3426602208334,68.0,69.0
1228,239.85258237500005,240.36051730833339,64.0,73.0
1229,239.85258237500005,240.3962314833334,59.0,73.0
1230,240.32877137500006,240.44484244375008,49.0,72.0
1231,240.80496037500006,241.53018875000006,69.0,73.0
1232,240.80496037500006,241.55639837500007,66.0,69.0
1233,240.80496037500006,241.55740643750008,61.0,69.0
1234,240.80496037500006,241.67837393750006,42.0,75.0
1235,241.76405925000006,242.20357450000006,40.0,80.0
1236,241.76405925000006,242.30034850000007,68.0,72.0
1237,241.76405925000006,242.32031772500005,59.0,80.0
1238,241.76405925000006,242.35007953750005,64.0,70.0
1239,242.96317287500005,243.4205127270834,69.0,1.0
1240,242.72507837500007,243.4621792645834,62.0,72.0
1241,242.72507837500007,243.4770601708334,66.0,65.0
1242,242.72507837500007,243.49293313750005,57.0,68.0
1243,242.72507837500007,243.88042225000004,50.0,59.0
1244,243.67745637500005,244.23288035000004,57.0,75.0
1245,242.72507837500007,244.23902787500003,38.0,66.0
1246,243.67745637500005,244.29538018750006,62.0,75.0
1247,243.67745637500005,244.29845395000004,66.0,72.0
1248,244.16730675000005,244.31074900000004,50.0,62.0
1249,244.65910875000006,245.40497410000006,68.0,73.0
1250,244.65910875000006,245.41624456250005,64.0,75.0
1251,244.65910875000006,245.42546585000005,59.0,73.0
1252,244.65910875000006,245.80968616250007,52.0,72.0
1253,244.65910875000006,246.18468518750007,40.0,72.0
1254,245.64677675000007,246.20927528750008,68.0,73.0
1255,245.64677675000007,246.23284080000008,59.0,75.0
1256,245.64677675000007,246.24001291250008,64.0,72.0
1257,246.13857875000008,246.27894723750006,52.0,62.0
1258,246.63038075000006,247.29295750000006,61.0,75.0
1259,246.63038075000006,247.29295750000006,69.0,70.0
1260,246.63038075000006,247.29387661458338,64.0,70.0
1261,247.32604562500006,247.62016229166673,57.0,40.0
1262,247.54663312500006,248.0080286458334,61.0,78.0
1263,247.54663312500006,248.05012711250006,69.0,73.0
1264,247.54663312500006,248.06242216250007,64.0,76.0
1265,247.87751437500006,248.17615137500007,57.0,54.0
1266,246.63038075000006,248.18434807500006,45.0,73.0
1267,248.10443025000006,248.34930666250006,52.0,59.0
1268,248.47328175000007,249.1765586875001,64.0,67.0
1269,248.47328175000007,249.25155853125008,61.0,62.0
1270,248.47328175000007,249.25155853125008,69.0,64.0
1271,249.20655862500007,249.62955774375007,57.0,39.0
1272,248.47328175000007,249.81955734791674,45.0,69.0
1273,249.44655812500008,249.96355704791674,64.0,70.0
1274,249.44655812500008,249.9966376250001,61.0,66.0
1275,249.44655812500008,250.0510730000001,69.0,64.0
1276,249.92655712500007,250.0611536250001,45.0,75.0
1277,250.40994325000008,251.12096315000008,64.0,67.0
1278,250.40994325000008,251.1259234520834,69.0,67.0
1279,250.40994325000008,251.1378281770834,61.0,62.0
1280,251.13286787500007,251.53266822291675,54.0,36.0
1281,250.40994325000008,251.72413588333342,42.0,73.0
1282,251.3709623750001,251.87492906666674,64.0,73.0
1283,251.8471513750001,251.89873851666675,54.0,46.0
1284,251.3709623750001,251.92254796666674,61.0,67.0
1285,251.3709623750001,251.9513177187501,69.0,70.0
1286,251.8471513750001,251.99000807500008,42.0,64.0
1287,252.32334037500007,252.88087832916676,68.0,64.0
1288,252.32334037500007,253.01480648541676,64.0,63.0
1289,252.32334037500007,253.0306794520834,59.0,66.0
1290,252.32334037500007,253.43854741666675,52.0,60.0
1291,253.27571837500008,253.8114799708334,68.0,66.0
1292,253.27571837500008,253.81251302500007,59.0,66.0
1293,253.27571837500008,253.82284356666673,64.0,67.0
1294,252.32334037500007,253.83007494583342,40.0,72.0
1295,253.7691247500001,253.89155866250007,52.0,67.0
1296,254.2614347500001,254.87490885000008,68.0,66.0
1297,254.2614347500001,254.92690874166675,64.0,62.0
1298,254.2614347500001,254.98090862916675,59.0,61.0
1299,254.2614347500001,255.72090708750008,52.0,58.0
1300,254.2614347500001,255.72190708541675,40.0,63.0
1301,255.2229081250001,255.8829067500001,68.0,69.0
1302,255.2229081250001,255.9159066812501,64.0,73.0
1303,255.2229081250001,255.9249066625001,59.0,69.0
1304,255.70290712500008,256.1549061833334,47.0,43.0
1305,255.9429066250001,256.1919061062501,44.0,52.0
1306,256.1829061250001,256.74290495833344,64.0,72.0
1307,256.1829061250001,256.74590495208344,68.0,66.0
1308,256.1829061250001,256.8209047958334,59.0,61.0
1309,256.1829061250001,257.3308334145834,52.0,55.0
1310,257.1429041250001,257.6521217916668,68.0,64.0
1311,257.1429041250001,257.6570045937501,59.0,66.0
1312,257.1429041250001,257.6696998791668,64.0,69.0
1313,256.1829061250001,257.73415286666676,40.0,73.0
1314,257.6130593750001,257.76735592083344,52.0,50.0
1315,258.0818083750001,258.4284873229168,58.0,73.0
1316,258.0818083750001,258.4304404437501,61.0,76.0
1317,258.0818083750001,258.43532324583344,42.0,72.0
1318,258.0818083750001,258.4421591687501,54.0,69.0
1319,258.0818083750001,258.44899509166675,66.0,80.0
1320,258.5505573750001,261.65914464583346,58.0,76.0
1321,258.5505573750001,261.72414451041675,54.0,85.0
1322,258.5505573750001,261.7351444875001,42.0,75.0
1323,258.5505573750001,261.76214443125014,66.0,76.0
1324,258.5505573750001,261.76514442500013,61.0,75.0
