,start,end,pitch,velocity
0,13.878466670833333,14.538188629166665,64.0,67.0
1,14.711799670833333,15.053813422916665,67.0,83.0
2,15.128466170833333,15.770827024999999,69.0,77.0
3,15.961799170833332,16.607632245833333,64.0,76.0
4,16.378465670833332,16.809021054166667,62.0,74.0
5,16.795132170833334,17.220479222916666,60.0,64.0
6,17.211798670833332,17.5104096625,62.0,77.0
7,17.628465170833334,17.711798470833333,62.0,68.0
8,17.836798420833333,18.2604093625,62.0,74.0
9,18.25346492083333,18.7395758375,55.0,74.0
10,18.670131420833332,19.741311547916666,64.0,81.0
11,20.128464170833333,20.42533905208333,60.0,62.0
12,20.33679742083333,20.564227885416667,62.0,70.0
13,20.54513067083333,21.05554713333333,64.0,67.0
14,21.378463670833334,21.819435716666664,67.0,72.0
15,21.795130170833332,22.39061604375,69.0,95.0
16,22.62846317083333,23.02429634583333,64.0,73.0
17,23.045129670833333,23.53992113958333,62.0,68.0
18,23.46179617083333,23.67186553125,60.0,60.0
19,23.878462670833333,24.124990349999997,62.0,86.0
20,24.29512917083333,24.387143022916664,60.0,74.0
21,24.503462420833333,24.708323449999998,62.0,77.0
22,24.92012892083333,25.2499899,67.0,74.0
23,25.545128670833332,26.413183879166667,64.0,73.0
24,26.795128170833333,27.0312391875,64.0,87.0
25,27.003461420833332,27.239572437499998,62.0,73.0
26,27.21179467083333,27.4895723375,60.0,87.0
27,27.628461170833333,27.918391610416666,59.0,75.0
28,27.836794420833332,28.217002602083333,60.0,72.0
29,28.253460920833334,28.671863531249997,72.0,100.0
30,28.87846067083333,29.289918839583333,71.0,90.0
31,29.295127170833332,29.543390960416666,69.0,68.0
32,29.50346042083333,30.251724010416666,67.0,81.0
33,30.33679342083333,30.49304335833333,64.0,59.0
34,30.54512667083333,30.809015454166666,69.0,93.0
35,30.96179317083333,31.059015354166664,67.0,81.0
36,31.17012642083333,31.449640197916665,67.0,90.0
37,31.586792920833332,31.979153874999998,67.0,71.0
38,32.21179267083333,32.67186193125,64.0,95.0
39,33.461792170833334,33.654500427083335,64.0,74.0
40,33.67012542083333,33.977416964583334,62.0,60.0
41,33.87845867083333,34.30033350208333,60.0,62.0
42,34.29512517083333,34.595472272916666,59.0,60.0
43,34.50345842083333,34.75345832083333,60.0,71.0
44,34.92012492083333,35.4062358375,72.0,65.0
45,35.54512467083333,35.98783282708333,71.0,85.0
46,35.96179117083333,36.20831885,69.0,70.0
47,36.17012442083333,36.6770686625,67.0,90.0
48,36.79512417083333,37.18227679375,60.0,74.0
49,37.21179067083333,38.274290245833335,69.0,86.0
50,38.46179017083333,38.70658173958333,60.0,64.0
51,38.670123420833335,39.755192431249995,67.0,85.0
52,40.54512267083333,41.11803910833333,64.0,90.0
53,41.37845567083333,41.54338616041667,67.0,93.0
54,41.79512217083333,42.359358056249995,69.0,104.0
55,42.628455170833334,42.95310781875,64.0,79.0
56,43.04512167083333,43.463524281249995,62.0,79.0
57,43.46178817083333,43.83852413125,60.0,67.0
58,43.87845467083333,44.38366280208333,62.0,86.0
59,44.29512117083333,44.38366280208333,62.0,74.0
60,44.50345442083333,44.75866265208333,62.0,77.0
61,44.920120920833334,45.25519023125,55.0,72.0
62,45.54512067083333,46.20831485,64.0,64.0
63,46.79512017083333,47.052064512499996,60.0,81.0
64,47.211786670833334,48.08678632083333,64.0,90.0
65,48.04511967083333,48.30553623333333,67.0,76.0
66,48.46178617083333,49.088522031249994,69.0,76.0
67,49.29511917083333,49.61109126666666,64.0,87.0
68,49.71178567083333,50.11629939791666,62.0,86.0
69,50.12845217083333,50.48261869583333,60.0,63.0
70,50.54511867083333,50.96525739166666,62.0,81.0
71,50.96178517083333,51.246507279166664,60.0,64.0
72,51.17011842083333,51.4687294125,62.0,90.0
73,51.58678492083333,52.038173629166664,67.0,98.0
74,52.21178467083333,53.11282597708333,64.0,87.0
75,53.46178417083333,53.70310351875,64.0,74.0
76,53.67011742083333,53.92879787291666,62.0,65.0
77,53.87845067083333,54.41490878958333,60.0,93.0
78,54.29511717083333,54.59199205208333,59.0,77.0
79,54.50345042083333,54.72740866458333,60.0,77.0
80,54.92011692083333,55.3853945125,72.0,104.0
81,55.54511667083333,55.8645609875,71.0,104.0
82,55.96178317083333,56.16490808958333,69.0,77.0
83,56.17011642083333,56.637130122916666,67.0,104.0
84,57.00344942083333,57.14928269583333,64.0,61.0
85,57.21178267083333,57.52428254583333,69.0,100.0
86,57.62844917083333,57.72393524375,67.0,77.0
87,57.83678242083333,58.09025454166667,67.0,93.0
88,58.25344892083333,58.70657373958333,65.0,77.0
89,58.87844867083333,59.60240671458333,64.0,71.0
90,60.12844817083333,60.376711960416664,64.0,90.0
91,60.33678142083333,60.53817022916666,62.0,62.0
92,60.54511467083333,60.91317007916666,60.0,90.0
93,60.96178117083333,61.27254493541666,59.0,85.0
94,61.17011442083333,61.37150322916666,60.0,77.0
95,61.58678092083333,62.036433518749995,72.0,104.0
96,62.21178067083333,62.5728916375,71.0,87.0
97,62.62844717083333,62.814210985416665,69.0,74.0
98,62.83678042083333,63.270808024999994,67.0,111.0
99,63.46178017083333,63.70657173958333,60.0,76.0
100,63.67011342083333,64.69441856666667,69.0,68.0
101,65.12844617083333,65.47740436458334,60.0,76.0
102,65.54511267083333,69.11976401874999,71.0,86.0
103,70.54511067083332,71.11108266666666,64.0,87.0
104,70.96177717083333,71.23261039583333,67.0,74.0
105,71.37844367083333,71.64406856458334,74.0,85.0
106,71.79511017083333,72.25691554166666,72.0,83.0
107,72.62844317083334,72.81941531666666,74.0,104.0
108,73.04510967083333,73.34545677291666,76.0,95.0
109,73.46177617083333,75.46351148125,69.0,100.0
110,77.21177467083334,77.71177447083333,65.0,111.0
111,77.62844117083333,78.10760764583333,69.0,90.0
112,78.04510767083333,78.31767700625,77.0,95.0
113,78.46177417083332,79.06941281666666,76.0,111.0
114,79.29510717083333,79.5937181625,74.0,95.0
115,79.71177367083332,79.96003746041666,72.0,95.0
116,80.17184293125,81.60239791458334,71.0,100.0
117,83.87843867083333,84.45656343958333,67.0,95.0
118,84.29510517083332,84.68225779375,71.0,74.0
119,84.71177167083333,84.97392434375,74.0,86.0
120,85.12843817083333,85.71003516041667,79.0,120.0
121,86.37843767083334,86.73260419583333,71.0,100.0
122,86.79510417083333,88.82808946875,72.0,112.0
123,88.87843667083332,89.19961709791666,72.0,90.0
124,89.29510317083333,89.53295029791666,74.0,93.0
125,89.71176967083333,89.88711682291667,76.0,81.0
126,90.12843617083333,91.24475516874999,76.0,104.0
127,91.37843567083333,91.64753278541666,74.0,108.0
128,91.79510217083333,92.82635175833333,72.0,90.0
129,92.62843517083333,93.18919883541666,69.0,87.0
130,93.46176817083332,93.78468470833333,69.0,98.0
131,94.24996229999999,95.33503131041667,67.0,59.0
132,97.21176667083333,97.77773866666666,64.0,87.0
133,97.62843317083333,97.89926639583332,67.0,74.0
134,98.04509967083332,98.31072456458332,74.0,85.0
135,98.46176617083333,98.92357154166666,72.0,83.0
136,99.29509917083332,99.48607131666667,74.0,104.0
137,99.71176567083333,100.01211277291667,76.0,95.0
138,100.12843217083332,102.57461174791666,69.0,100.0
139,103.87843067083332,104.37843047083332,65.0,111.0
140,104.29509717083333,104.77426364583333,69.0,90.0
141,104.71176367083332,104.98433300625,77.0,95.0
142,105.12843017083333,105.73606881666666,76.0,111.0
143,105.96176317083332,106.2603741625,74.0,95.0
144,106.37842967083333,106.62669346041666,72.0,95.0
145,106.83849893125,110.09717818333333,71.0,100.0
146,110.54509467083332,111.26384438333332,71.0,112.0
147,110.96176117083333,111.45134430833333,72.0,76.0
148,111.37842767083333,111.51731650416666,74.0,81.0
149,111.79509417083332,112.59891329374999,80.0,117.0
150,112.62842717083333,112.76557989375,76.0,67.0
151,113.04509367083332,113.24648247916666,76.0,76.0
152,114.29509317083333,114.44787088749999,72.0,72.0
153,113.46176017083333,114.61280137708333,81.0,95.0
154,114.71175967083333,114.88537071249999,72.0,86.0
155,115.12842617083332,116.16835631041666,72.0,98.0
156,116.37842567083332,116.79161995,76.0,85.0
157,116.79509217083333,117.84717508333333,69.0,100.0
158,118.04509167083333,118.43571651458333,74.0,90.0
159,118.46175817083332,119.04161905,72.0,104.0
160,119.29509117083333,119.74821598958333,71.0,98.0
161,120.12842417083333,123.07807576875,72.0,104.0
162,127.21175467083333,127.78467110833333,64.0,90.0
163,128.04508767083334,128.21001816041667,67.0,93.0
164,128.46175417083333,129.02599005624998,69.0,104.0
165,129.2950871708333,129.61973981875,64.0,79.0
166,129.71175367083333,130.13015628124998,62.0,79.0
167,130.12842017083332,130.50515613125,60.0,67.0
168,130.5450866708333,131.05029480208333,62.0,86.0
169,130.96175317083333,131.05029480208333,62.0,74.0
170,131.17008642083331,131.42529465208332,62.0,77.0
171,131.58675292083333,131.92182223125,55.0,72.0
172,132.21175267083333,132.87494685,64.0,64.0
173,133.46175217083334,133.7186965125,60.0,81.0
174,133.87841867083333,134.75341832083333,64.0,90.0
175,134.71175167083334,134.97216823333332,67.0,76.0
176,135.12841817083333,135.75515403125,69.0,76.0
177,135.96175117083334,136.27772326666667,64.0,87.0
178,136.37841767083333,136.78293139791666,62.0,86.0
179,136.79508417083332,137.14925069583333,60.0,63.0
180,137.21175067083334,137.63188939166665,62.0,81.0
181,137.62841717083333,137.91313927916667,60.0,64.0
182,137.83675042083334,138.1353614125,62.0,90.0
183,138.25341692083333,138.70480562916666,67.0,98.0
184,138.87841667083333,139.77945797708333,64.0,87.0
185,140.12841617083333,140.36973551875,64.0,74.0
186,140.3367494208333,140.59542987291667,62.0,65.0
187,140.54508267083332,141.08154078958333,60.0,93.0
188,140.96174917083331,141.25862405208332,59.0,77.0
189,141.17008242083332,141.39404066458331,60.0,77.0
190,141.58674892083332,142.0520265125,72.0,104.0
191,142.21174867083332,142.5311929875,71.0,104.0
192,142.62841517083334,142.8315400895833,69.0,77.0
193,142.83674842083332,143.30376212291665,67.0,104.0
194,143.67008142083333,143.81591469583333,64.0,61.0
195,143.87841467083334,144.19091454583332,69.0,100.0
196,144.29508117083333,144.39056724374998,67.0,77.0
197,144.50341442083334,144.75688654166666,67.0,93.0
198,144.92008092083333,145.3732057395833,65.0,77.0
199,145.54508067083333,146.26903871458333,64.0,71.0
200,146.79508017083333,147.04334396041665,64.0,90.0
201,147.0034134208333,147.20480222916666,62.0,62.0
202,147.21174667083332,147.57980207916665,60.0,90.0
203,147.6284131708333,147.93917693541667,59.0,85.0
204,147.83674642083332,148.03813522916667,60.0,77.0
205,148.2534129208333,148.70306551874998,72.0,104.0
206,148.8784126708333,149.23952363749999,71.0,87.0
207,149.29507917083333,149.48084298541667,69.0,74.0
208,149.5034124208333,149.937440025,67.0,111.0
209,150.12841217083331,150.37320373958332,60.0,76.0
210,150.33674542083332,151.36105056666665,69.0,68.0
211,151.79507817083334,152.14403636458331,60.0,76.0
212,152.21174467083333,155.78639601875,71.0,86.0
213,155.54507667083334,156.11104866666665,64.0,87.0
214,155.96174317083333,156.23257639583332,67.0,74.0
215,156.37840967083332,156.64403456458334,74.0,85.0
216,156.7950761708333,157.25688154166667,72.0,83.0
217,157.62840917083332,157.81938131666666,74.0,104.0
218,158.0450756708333,158.34542277291666,76.0,95.0
219,158.46174217083333,160.46347748124998,69.0,100.0
220,162.21174067083334,162.71174047083332,65.0,111.0
221,162.62840717083333,163.10757364583333,69.0,90.0
222,163.04507367083332,163.31764300625,77.0,95.0
223,163.46174017083334,164.06937881666667,76.0,111.0
224,164.29507317083332,164.59368416249998,74.0,95.0
225,164.71173967083334,164.96000346041666,72.0,95.0
226,165.17180893124998,166.60236391458332,71.0,100.0
227,168.87840467083333,169.45652943958333,67.0,95.0
228,169.29507117083332,169.68222379374998,71.0,74.0
229,169.71173767083332,169.97389034374999,74.0,86.0
230,170.12840417083333,170.71000116041665,79.0,120.0
231,171.37840367083334,171.73257019583332,71.0,100.0
232,171.79507017083333,173.82805546875,72.0,112.0
233,173.8784026708333,174.19958309791664,72.0,90.0
234,174.29506917083333,174.53291629791667,74.0,93.0
235,174.71173567083332,174.88708282291665,76.0,81.0
236,175.1284021708333,176.24472116875,76.0,104.0
237,176.3784016708333,176.64749878541664,74.0,108.0
238,176.79506817083333,177.82631775833332,72.0,90.0
239,177.6284011708333,178.18916483541665,69.0,87.0
240,178.46173417083332,178.78465070833332,69.0,98.0
241,179.2499283,180.33499731041667,67.0,59.0
242,182.21173267083333,182.77770466666666,64.0,87.0
243,182.62839917083332,182.89923239583334,67.0,74.0
244,183.0450656708333,183.31069056458333,74.0,85.0
245,183.46173217083333,183.92353754166666,72.0,83.0
246,184.2950651708333,184.48603731666665,74.0,104.0
247,184.71173167083333,185.01207877291665,76.0,95.0
248,185.12839817083332,187.57457774791666,69.0,100.0
249,188.87839667083333,189.37839647083334,65.0,111.0
250,189.29506317083332,189.77422964583332,69.0,90.0
251,189.71172967083334,189.98429900624998,77.0,95.0
252,190.12839617083333,190.73603481666666,76.0,111.0
253,190.96172917083334,191.2603401625,74.0,95.0
254,191.37839567083333,191.62665946041665,72.0,95.0
255,191.83846493125,195.0971441833333,71.0,100.0
256,195.54506067083332,196.26381038333332,71.0,112.0
257,195.9617271708333,196.45131030833332,72.0,76.0
258,196.37839367083333,196.51728250416664,74.0,81.0
259,196.79506017083332,197.59887929375,80.0,117.0
260,197.62839317083333,197.76554589375,76.0,67.0
261,198.04505967083333,198.24644847916665,76.0,76.0
262,199.29505917083333,199.4478368875,72.0,72.0
263,198.46172617083332,199.61276737708332,81.0,95.0
264,199.71172567083332,199.8853367125,72.0,86.0
265,200.12839217083334,201.16832231041667,72.0,98.0
266,201.3783916708333,201.79158594999998,76.0,85.0
267,201.79505817083333,202.84714108333333,69.0,100.0
268,203.04505767083333,203.43568251458333,74.0,90.0
269,203.46172417083332,204.04158504999998,72.0,104.0
270,204.29505717083333,204.74818198958332,71.0,98.0
271,205.1283901708333,208.04505567083334,72.0,104.0
272,228.8783806708333,229.11275557708333,72.0,109.0
273,229.29504717083333,229.52942207708332,72.0,103.0
274,229.71171367083332,229.94608857708332,72.0,96.0
275,230.1283801708333,230.41831061041665,72.0,96.0
276,230.54504667083333,231.48081018541666,75.0,99.0
277,232.0033794208333,232.26032376249998,72.0,107.0
278,232.21171267083332,232.437407025,74.0,108.0
279,232.6283791708333,232.80025410208333,74.0,109.0
280,233.04504567083333,233.27074002499998,74.0,118.0
281,233.46171217083332,233.69782318749998,74.0,117.0
282,233.8783786708333,237.06934961666664,74.0,112.0
283,239.2950431708333,239.56587639583333,67.0,74.0
284,239.71170967083333,239.97733456458332,74.0,85.0
285,240.12837617083332,240.59018154166665,72.0,83.0
286,240.96170917083333,241.15268131666664,74.0,104.0
287,241.37837567083332,241.67872277291664,76.0,95.0
288,241.7950421708333,243.79677748125,69.0,100.0
289,245.54504067083332,246.04504047083333,65.0,111.0
290,245.9617071708333,246.4408736458333,69.0,90.0
291,246.37837367083333,246.65094300624997,77.0,95.0
292,246.79504017083332,247.40267881666665,76.0,111.0
293,247.62837317083333,247.9269841625,74.0,95.0
294,248.04503967083332,248.29330346041667,72.0,95.0
295,248.4617061708333,249.89226115416665,71.0,100.0
296,252.2117046708333,252.78982943958331,67.0,95.0
297,252.62837117083333,253.01552379375,71.0,74.0
298,253.04503767083332,253.30719034375,74.0,86.0
299,253.46170417083331,254.04330116041666,79.0,120.0
300,254.71170367083332,255.06587019583333,71.0,100.0
301,255.1283701708333,257.16135546875,72.0,112.0
302,257.21170267083335,257.5328830979167,72.0,90.0
303,257.6283691708333,257.86621629791665,74.0,93.0
304,258.04503567083333,258.22038282291663,76.0,81.0
305,258.4617021708333,259.57802116875,76.0,104.0
306,259.7117016708333,259.98079878541665,74.0,108.0
307,260.1283681708333,261.1596177583333,72.0,90.0
308,260.9617011708333,261.52246483541666,69.0,87.0
309,261.79503417083333,262.1179507083333,69.0,98.0
310,262.6283671708333,263.71343618124996,67.0,59.0
311,265.54503267083334,266.11100466666664,64.0,87.0
312,265.9616991708333,266.23253239583335,67.0,74.0
313,266.3783656708333,266.6439905645833,74.0,85.0
314,266.79503217083334,267.25683754166664,72.0,83.0
315,267.6283651708333,267.81933731666663,74.0,104.0
316,268.04503167083334,268.34537877291666,76.0,95.0
317,268.4616981708333,270.90787774791664,69.0,100.0
318,272.2116966708333,272.7116964708333,65.0,111.0
319,272.6283631708333,273.1075296458333,69.0,90.0
320,273.04502967083334,273.31759900624996,77.0,95.0
321,273.4616961708333,274.06933481666664,76.0,111.0
322,274.29502917083335,274.5936401625,74.0,95.0
323,274.7116956708333,274.95995946041666,72.0,95.0
324,275.1283621708333,278.38704142291664,71.0,100.0
325,278.87836067083333,279.5971103833333,71.0,112.0
326,279.2950271708333,279.7846103083333,72.0,81.0
327,279.7116936708333,279.93565191458333,74.0,105.0
328,280.12836017083333,280.93217929375,80.0,117.0
329,280.9616931708333,281.09884589374997,76.0,74.0
330,281.37835967083333,281.57974847916665,76.0,97.0
331,282.62835917083333,282.7811368875,72.0,72.0
332,281.7950261708333,282.9460673770833,84.0,95.0
333,283.0450256708333,283.2186367125,72.0,86.0
334,283.4616921708333,284.5016223104167,72.0,98.0
335,284.7116916708333,285.12488594999996,76.0,85.0
336,285.12835817083334,286.18044108333333,69.0,100.0
337,286.37835767083334,286.76898251458334,74.0,90.0
338,286.7950241708333,287.37488505,72.0,104.0
339,287.62835717083334,288.0814819895833,71.0,98.0
340,288.4616901708333,291.37835567083334,72.0,104.0
341,291.37835567083334,291.7932860604167,76.0,85.0
342,291.7950221708333,292.84884119375,69.0,100.0
343,293.0450216708333,293.437382625,74.0,90.0
344,293.4616881708333,294.04328516041664,72.0,104.0
345,294.2950211708333,294.72384044374996,71.0,98.0
346,295.3366874208333,298.0710613270833,72.0,104.0
