,start,end,pitch,velocity
0,0.5451386708333333,1.3142355854166665,64.0,66.0
1,0.5451386708333333,1.3194439166666665,67.0,74.0
2,0.9618051708333333,1.72395764375,55.0,63.0
3,1.3784716708333333,1.7777770666666666,64.0,72.0
4,1.3784716708333333,1.7829853979166665,67.0,79.0
5,0.5451386708333333,1.8229159375,48.0,81.0
6,2.211804670833333,2.9670127020833332,60.0,62.0
7,2.211804670833333,2.98437380625,64.0,74.0
8,2.628471170833333,3.44270695625,52.0,71.0
9,2.211804670833333,3.4687486124999998,45.0,61.0
10,3.461804170833333,3.5173597041666667,52.0,46.0
11,3.0451376708333333,3.581595789583333,64.0,74.0
12,3.0451376708333333,3.6145818875,60.0,63.0
13,3.878470670833333,4.3368038208333335,69.0,61.0
14,3.878470670833333,4.345484372916666,65.0,62.0
15,4.295137170833333,5.02603965625,57.0,61.0
16,3.878470670833333,5.1406229437499995,50.0,66.0
17,4.7118036708333335,5.159720158333333,69.0,76.0
18,4.7118036708333335,5.175345152083333,65.0,90.0
19,5.545136670833333,6.274303045833333,59.0,66.0
20,5.545136670833333,6.2760391562499995,62.0,72.0
21,6.378469670833333,6.901038906249999,59.0,67.0
22,6.378469670833333,7.057288843749999,62.0,74.0
23,5.545136670833333,7.144094364583333,43.0,72.0
24,6.795136170833333,7.156247137499999,55.0,49.0
25,5.961803170833333,7.1579832479166665,50.0,65.0
26,7.211802670833333,7.909719058333333,55.0,64.0
27,7.211802670833333,7.909719058333333,59.0,72.0
28,7.211802670833333,8.463538281249999,40.0,77.0
29,8.045135670833332,8.498260489583332,59.0,79.0
30,8.045135670833332,8.506941041666666,55.0,79.0
31,7.628469170833333,8.512149372916666,47.0,65.0
32,8.461802170833334,8.899301995833333,52.0,60.0
33,8.878468670833334,9.579857279166665,60.0,63.0
34,8.878468670833334,9.586801720833332,64.0,76.0
35,8.878468670833334,10.178815372916667,45.0,65.0
36,9.711801670833333,10.20832925,64.0,74.0
37,9.711801670833333,10.244787568749999,60.0,70.0
38,9.295135170833333,10.267357004166666,52.0,57.0
39,10.128468170833333,10.499995799999999,57.0,52.0
40,10.545134670833333,11.232634395833333,59.0,58.0
41,10.545134670833333,11.289926039583333,56.0,61.0
42,11.378467670833333,11.779509177083332,59.0,83.0
43,11.378467670833333,11.826384158333333,56.0,81.0
44,10.545134670833333,11.864578587499999,41.0,74.0
45,12.211800670833332,13.878466670833333,43.0,67.0
46,12.211800670833332,13.878466670833333,59.0,67.0
47,12.211800670833332,13.878466670833333,62.0,65.0
48,13.878466670833333,14.588535831249999,64.0,65.0
49,13.878466670833333,14.628466370833333,67.0,79.0
50,14.295133170833333,15.085063410416666,55.0,47.0
51,13.878466670833333,15.215271691666667,48.0,74.0
52,14.711799670833333,15.503466020833333,72.0,64.0
53,14.711799670833333,15.553813222916666,64.0,65.0
54,14.711799670833333,15.56770210625,67.0,53.0
55,15.545132670833333,16.814229385416667,41.0,73.0
56,16.378465670833332,16.82638215833333,65.0,76.0
57,16.378465670833332,16.83853493125,57.0,64.0
58,16.378465670833332,16.842007152083333,60.0,64.0
59,15.961799170833332,17.14061814375,48.0,73.0
60,17.211798670833332,17.960062260416667,59.0,70.0
61,17.211798670833332,17.965270591666666,62.0,64.0
62,17.211798670833332,17.965270591666666,67.0,73.0
63,17.211798670833332,18.434020404166667,43.0,75.0
64,17.628465170833334,18.517353704166666,50.0,61.0
65,18.04513167083333,18.5312425875,67.0,86.0
66,18.04513167083333,18.53645091875,59.0,73.0
67,18.04513167083333,18.53645091875,62.0,79.0
68,18.461798170833333,18.92533965208333,55.0,54.0
69,18.87846467083333,19.595478272916665,64.0,70.0
70,18.87846467083333,19.612839377083333,72.0,67.0
71,18.87846467083333,19.621519929166666,67.0,75.0
72,19.295131170833333,19.968742012499998,55.0,65.0
73,18.87846467083333,19.999992,48.0,67.0
74,19.71179767083333,20.369783518749998,64.0,75.0
75,19.71179767083333,20.369783518749998,67.0,83.0
76,19.71179767083333,20.369783518749998,72.0,76.0
77,20.54513067083333,21.234366506249998,64.0,74.0
78,20.54513067083333,21.2604081625,67.0,79.0
79,20.961797170833332,21.480894185416666,55.0,62.0
80,20.54513067083333,21.736102416666665,48.0,85.0
81,21.378463670833334,21.788185729166667,67.0,75.0
82,21.378463670833334,21.798602391666666,64.0,81.0
83,22.211796670833333,22.95832415,57.0,65.0
84,22.211796670833333,22.967004702083333,60.0,76.0
85,22.211796670833333,23.53992113958333,41.0,71.0
86,23.045129670833333,23.54165725,60.0,74.0
87,23.045129670833333,23.559018354166664,57.0,67.0
88,23.46179617083333,23.777768266666666,53.0,47.0
89,22.62846317083333,23.814226585416666,48.0,73.0
90,23.878462670833333,24.635406812499998,59.0,71.0
91,23.878462670833333,24.638879033333332,62.0,74.0
92,23.878462670833333,25.16492048958333,43.0,74.0
93,24.711795670833332,25.185753814583332,62.0,75.0
94,24.711795670833332,25.215267691666664,59.0,70.0
95,24.29512917083333,25.28471210833333,50.0,66.0
96,25.12846217083333,25.508670352083332,55.0,60.0
97,25.545128670833332,26.329850579166663,64.0,68.0
98,25.545128670833332,26.331586689583332,67.0,79.0
99,25.961795170833334,26.777767066666666,55.0,64.0
100,26.37846167083333,26.800336502083333,67.0,83.0
101,26.37846167083333,26.8229059375,64.0,73.0
102,25.545128670833332,26.885405912499998,48.0,98.0
103,27.21179467083333,27.953113818749998,57.0,61.0
104,27.21179467083333,27.989572137499998,60.0,74.0
105,27.628461170833333,28.418391410416664,48.0,74.0
106,28.04512767083333,28.496516379166664,60.0,71.0
107,28.04512767083333,28.503460820833332,57.0,61.0
108,27.21179467083333,28.583321899999998,41.0,65.0
109,28.87846067083333,29.61804370833333,55.0,63.0
110,28.87846067083333,29.631932591666665,59.0,75.0
111,28.87846067083333,30.17012682083333,40.0,74.0
112,29.71179367083333,30.1770712625,55.0,66.0
113,29.71179367083333,30.18054348333333,59.0,76.0
114,30.128460170833332,30.482626695833332,52.0,47.0
115,29.295127170833332,30.486098916666666,47.0,63.0
116,30.54512667083333,31.29512637083333,57.0,70.0
117,30.54512667083333,31.317695806249997,60.0,74.0
118,30.54512667083333,31.796862281249997,41.0,75.0
119,30.96179317083333,31.850681704166664,48.0,67.0
120,31.378459670833333,31.850681704166664,57.0,65.0
121,31.378459670833333,31.854153925,60.0,75.0
122,31.79512617083333,32.277764866666665,53.0,59.0
123,32.21179267083333,32.91491738958333,64.0,63.0
124,32.21179267083333,32.949639597916665,67.0,74.0
125,32.62845917083333,33.4062366375,55.0,64.0
126,33.04512567083333,33.501722710416665,64.0,79.0
127,33.04512567083333,33.501722710416665,67.0,83.0
128,32.21179267083333,33.5312365875,48.0,64.0
129,33.87845867083333,34.609361156249996,60.0,66.0
130,33.87845867083333,34.62498615,64.0,81.0
131,34.29512517083333,35.03991653958333,52.0,61.0
132,34.71179167083333,35.16318037916666,60.0,83.0
133,34.71179167083333,35.1666526,64.0,86.0
134,33.87845867083333,35.21352758125,45.0,77.0
135,35.54512467083333,36.28644381875,55.0,76.0
136,35.54512467083333,36.298596591666666,59.0,77.0
137,35.54512467083333,36.93574911458333,40.0,69.0
138,36.378457670833335,37.050332402083335,55.0,74.0
139,36.378457670833335,37.08679072083333,59.0,79.0
140,36.79512417083333,37.18574901458333,52.0,53.0
141,35.96179117083333,37.19095734583333,47.0,70.0
142,37.21179067083333,37.93054038333333,57.0,58.0
143,37.21179067083333,37.968734812499996,60.0,70.0
144,38.045123670833334,38.72741506458333,60.0,73.0
145,38.46179017083333,38.770817824999995,53.0,52.0
146,37.21179067083333,38.77949837708333,41.0,76.0
147,38.045123670833334,38.782970597916666,57.0,66.0
148,37.62845717083333,38.89928999583333,48.0,65.0
149,38.87845667083333,39.60588693541666,62.0,63.0
150,38.87845667083333,39.624984149999996,59.0,61.0
151,38.87845667083333,40.13887283333333,43.0,73.0
152,39.71178967083333,40.1562339375,62.0,72.0
153,39.29512317083333,40.15797004791666,50.0,62.0
154,39.71178967083333,40.177067262499996,59.0,76.0
155,40.12845617083333,40.23609501666667,55.0,56.0
156,40.54512267083333,41.255191831249995,64.0,65.0
157,40.54512267083333,41.29512237083333,67.0,79.0
158,40.961789170833335,41.75171941041666,55.0,47.0
159,40.54512267083333,41.88192769166666,48.0,74.0
160,41.37845567083333,42.17012202083333,72.0,64.0
161,41.37845567083333,42.22046922291666,64.0,65.0
162,41.37845567083333,42.23435810625,67.0,53.0
163,42.21178867083333,43.48088538541666,41.0,73.0
164,43.04512167083333,43.493038158333334,65.0,76.0
165,43.04512167083333,43.50519093125,57.0,64.0
166,43.04512167083333,43.50866315208333,60.0,64.0
167,42.628455170833334,43.80727414375,48.0,73.0
168,43.87845467083333,44.626718260416666,59.0,70.0
169,43.87845467083333,44.63192659166666,62.0,64.0
170,43.87845467083333,44.63192659166666,67.0,73.0
171,43.87845467083333,45.10067640416666,43.0,75.0
172,44.29512117083333,45.18400970416666,50.0,61.0
173,44.71178767083333,45.1978985875,67.0,86.0
174,44.71178767083333,45.203106918749995,59.0,73.0
175,44.71178767083333,45.203106918749995,62.0,79.0
176,45.12845417083333,45.591995652083334,55.0,54.0
177,45.54512067083333,46.26213427291666,64.0,70.0
178,45.54512067083333,46.27949537708333,72.0,67.0
179,45.54512067083333,46.28817592916666,67.0,75.0
180,45.96178717083333,46.6353980125,55.0,65.0
181,45.54512067083333,46.666647999999995,48.0,67.0
182,46.37845367083333,47.03643951875,64.0,75.0
183,46.37845367083333,47.03643951875,67.0,83.0
184,46.37845367083333,47.03643951875,72.0,76.0
185,47.211786670833334,47.901022506249994,64.0,74.0
186,47.211786670833334,47.927064162499995,67.0,79.0
187,47.62845317083333,48.14755018541666,55.0,62.0
188,47.211786670833334,48.402758416666664,48.0,85.0
189,48.04511967083333,48.45484172916667,67.0,75.0
190,48.04511967083333,48.465258391666666,64.0,81.0
191,48.87845267083333,49.62498015,57.0,65.0
192,48.87845267083333,49.63366070208333,60.0,76.0
193,48.87845267083333,50.20657713958333,41.0,71.0
194,49.71178567083333,50.208313249999996,60.0,74.0
195,49.71178567083333,50.225674354166664,57.0,67.0
196,50.12845217083333,50.444424266666665,53.0,47.0
197,49.29511917083333,50.480882585416666,48.0,73.0
198,50.54511867083333,51.3020628125,59.0,71.0
199,50.54511867083333,51.30553503333333,62.0,74.0
200,50.54511867083333,51.831576489583334,43.0,74.0
201,51.37845167083333,51.85240981458333,62.0,75.0
202,51.37845167083333,51.881923691666664,59.0,70.0
203,50.96178517083333,51.951368108333334,50.0,66.0
204,51.795118170833334,52.17532635208333,55.0,60.0
205,52.21178467083333,52.99650657916666,64.0,68.0
206,52.21178467083333,52.99824268958333,67.0,79.0
207,52.62845117083333,53.444423066666666,55.0,64.0
208,53.04511767083333,53.46699250208333,67.0,83.0
209,53.04511767083333,53.4895619375,64.0,73.0
210,52.21178467083333,53.552061912499994,48.0,98.0
211,53.87845067083333,54.619769818749994,57.0,61.0
212,53.87845067083333,54.656228137499994,60.0,74.0
213,54.29511717083333,55.085047410416664,48.0,74.0
214,54.71178367083333,55.16317237916667,60.0,71.0
215,54.71178367083333,55.17011682083333,57.0,61.0
216,53.87845067083333,55.2499779,41.0,65.0
217,55.54511667083333,56.28469970833333,55.0,63.0
218,55.54511667083333,56.298588591666665,59.0,75.0
219,55.54511667083333,56.83678282083333,40.0,74.0
220,56.378449670833334,56.843727262499996,55.0,66.0
221,56.378449670833334,56.84719948333333,59.0,76.0
222,56.79511617083333,57.14928269583333,52.0,47.0
223,55.96178317083333,57.152754916666666,47.0,63.0
224,57.21178267083333,57.96178237083333,57.0,70.0
225,57.21178267083333,57.98435180625,60.0,74.0
226,57.21178267083333,58.04511567083333,41.0,75.0
227,57.62844917083333,58.04511567083333,48.0,67.0
228,58.04511567083333,58.496504379166666,62.0,75.0
229,58.04511567083333,58.50344882083333,59.0,69.0
230,58.04511567083333,58.593726562499995,43.0,75.0
231,58.46178217083333,58.87497645,50.0,86.0
232,58.87844867083333,59.58157338958333,64.0,63.0
233,58.87844867083333,59.61629559791666,67.0,74.0
234,58.87844867083333,59.71178167083333,48.0,64.0
235,59.29511517083333,59.71178167083333,55.0,64.0
236,59.71178167083333,60.220462022916664,67.0,71.0
237,59.71178167083333,60.23087868541666,62.0,63.0
238,59.71178167083333,60.38712862291666,47.0,83.0
239,60.54511467083333,61.27601715625,60.0,66.0
240,60.54511467083333,61.291642149999994,64.0,81.0
241,60.96178117083333,61.70657253958333,52.0,61.0
242,61.37844767083333,61.829836379166665,60.0,83.0
243,61.37844767083333,61.833308599999995,64.0,86.0
244,60.54511467083333,61.880183581249995,45.0,77.0
245,62.21178067083333,62.95309981875,55.0,76.0
246,62.21178067083333,62.96525259166666,59.0,77.0
247,62.21178067083333,63.60240511458333,40.0,69.0
248,63.04511367083333,63.71698840208333,55.0,74.0
249,63.04511367083333,63.75344672083333,59.0,79.0
250,63.46178017083333,63.85240501458333,52.0,53.0
251,62.62844717083333,63.85761334583333,47.0,70.0
252,63.87844667083333,64.59719638333333,57.0,58.0
253,63.87844667083333,64.63539081249999,60.0,70.0
254,64.71177967083332,65.39407106458333,60.0,73.0
255,65.12844617083333,65.437473825,53.0,52.0
256,63.87844667083333,65.44615437708333,41.0,76.0
257,64.71177967083332,65.44962659791666,57.0,66.0
258,64.29511317083333,65.56594599583333,48.0,65.0
259,65.54511267083333,65.67011262083334,62.0,63.0
260,65.54511267083333,65.67879317291667,59.0,63.0
261,65.54511267083333,65.84545977291667,43.0,75.0
262,65.96177917083332,66.10587633541667,59.0,59.0
263,65.96177917083332,66.12150132916666,62.0,63.0
264,65.96177917083332,66.17532075208332,43.0,72.0
265,66.37844567083333,66.53122338749999,62.0,68.0
266,66.37844567083333,66.53816782916667,59.0,64.0
267,66.37844567083333,66.58157058958334,43.0,67.0
268,66.79511217083333,66.96698710208332,62.0,69.0
269,66.79511217083333,66.97045932291667,59.0,62.0
270,66.79511217083333,67.04163985,43.0,72.0
271,67.21177867083333,67.36108416666666,59.0,58.0
272,67.21177867083333,67.38018138125,64.0,60.0
273,67.21177867083333,67.50344522083333,43.0,74.0
274,67.62844517083333,67.77948677708333,43.0,68.0
275,67.62844517083333,67.80726454375,59.0,59.0
276,67.62844517083333,67.81420898541667,64.0,67.0
277,68.04511167083334,68.22045882291667,64.0,81.0
278,68.04511167083334,68.229139375,59.0,73.0
279,68.04511167083334,68.23434770624999,43.0,74.0
280,68.46177817083333,68.66663919999999,64.0,76.0
281,68.46177817083333,68.67011142083334,59.0,65.0
282,68.46177817083333,68.71698640208334,43.0,77.0
283,68.87844467083333,70.12149972916666,43.0,81.0
284,68.87844467083333,70.16490248958333,62.0,95.0
285,68.87844467083333,70.16837471041666,65.0,95.0
286,68.87844467083333,70.17184693125,59.0,87.0
287,70.54511067083332,71.23434650624999,64.0,90.0
288,70.54511067083332,71.25517983124999,67.0,81.0
289,71.37844367083333,72.09719338333333,64.0,75.0
290,71.37844367083333,72.104137825,67.0,79.0
291,71.79511017083333,72.23955443749999,60.0,54.0
292,72.21177667083333,72.94267915625,72.0,76.0
293,72.21177667083333,72.95830414999999,64.0,71.0
294,72.21177667083333,72.97566525416666,67.0,77.0
295,72.62844317083334,72.98434580624999,60.0,58.0
296,70.96177717083333,73.21698460208333,55.0,65.0
297,70.54511067083332,73.3853873125,48.0,85.0
298,73.04510967083333,73.40448452708333,67.0,93.0
299,73.04510967083333,73.4062206375,72.0,83.0
300,73.04510967083333,73.41316507916666,64.0,77.0
301,73.87844267083332,74.61455348749999,57.0,67.0
302,73.87844267083332,74.61455348749999,65.0,85.0
303,73.87844267083332,74.61628959791666,60.0,73.0
304,74.71177567083333,75.4478864875,65.0,87.0
305,74.71177567083333,75.45309481875,60.0,83.0
306,74.71177567083333,75.45830314999999,57.0,72.0
307,75.12844217083332,75.57462254791666,53.0,51.0
308,75.54510867083333,76.03990013958332,57.0,72.0
309,74.29510917083333,76.17010842083333,48.0,70.0
310,75.54510867083333,76.19788618749999,60.0,83.0
311,75.54510867083333,76.21698340208333,65.0,86.0
312,73.87844267083332,76.22045562291666,41.0,79.0
313,76.37844167083333,76.86281647708333,59.0,86.0
314,76.37844167083333,76.86802480833333,55.0,77.0
315,76.37844167083333,76.87844147083332,40.0,68.0
316,77.21177467083334,77.94094104583333,53.0,71.0
317,77.21177467083334,77.95309381874999,57.0,75.0
318,77.21177467083334,77.95482992916666,62.0,77.0
319,78.04510767083333,78.73607961666666,53.0,70.0
320,78.04510767083333,78.74823238958334,62.0,74.0
321,78.04510767083333,78.7499685,57.0,77.0
322,78.46177417083332,78.94094064583332,50.0,59.0
323,78.87844067083333,79.62670426041666,62.0,70.0
324,78.87844067083333,79.63191259166666,53.0,69.0
325,78.87844067083333,79.63364870208333,57.0,74.0
326,79.29510717083333,79.7187181125,50.0,60.0
327,77.21177467083334,80.13017628125,38.0,86.0
328,79.71177367083332,80.15100960625,62.0,95.0
329,79.71177367083332,80.15274571666666,57.0,87.0
330,79.71177367083332,80.15448182708333,53.0,81.0
331,77.62844117083333,80.16142626874999,45.0,64.0
332,80.12844017083333,80.52253723541666,50.0,60.0
333,80.54337056041666,81.26212027291666,59.0,75.0
334,80.54337056041666,81.27253693541667,67.0,83.0
335,80.54337056041666,81.27427304583333,62.0,81.0
336,81.37843967083333,82.05031440208333,59.0,93.0
337,81.37843967083333,82.05725884374999,62.0,93.0
338,81.37843967083333,82.05899495416666,67.0,98.0
339,81.79510617083334,82.27427264583334,55.0,53.0
340,82.21177267083333,82.93920293541666,62.0,90.0
341,82.21177267083333,82.94093904583333,67.0,98.0
342,82.21177267083333,82.94961959791667,59.0,85.0
343,82.62843917083333,83.08677232083333,55.0,58.0
344,80.96177317083333,83.38711942291667,50.0,70.0
345,83.04510567083332,83.45656383958332,67.0,104.0
346,83.04510567083332,83.46350828125,62.0,98.0
347,83.04510567083332,83.47739716458332,59.0,93.0
348,80.54337056041666,83.51732770416666,43.0,63.0
349,83.87843867083333,84.58156338958332,64.0,81.0
350,83.87843867083333,84.58677172083333,55.0,79.0
351,83.87843867083333,84.58850783125,59.0,85.0
352,84.71177167083333,85.33677142083333,55.0,87.0
353,84.71177167083333,85.39059084374999,59.0,98.0
354,84.71177167083333,85.395799175,64.0,93.0
355,85.54510467083333,86.26559049375,56.0,65.0
356,85.54510467083333,86.27427104583333,64.0,74.0
357,85.54510467083333,86.27600715624999,59.0,83.0
358,85.12843817083333,86.48260429583333,52.0,56.0
359,86.37843767083334,86.81420138541667,59.0,104.0
360,86.37843767083334,86.81593749583332,64.0,87.0
361,83.87843867083333,86.84197915208333,40.0,77.0
362,86.37843767083334,86.8437152625,56.0,111.0
363,84.29510517083332,86.85760414583333,47.0,74.0
364,85.54510467083333,86.85934025625,44.0,74.0
365,86.79510417083333,87.21871511249999,52.0,60.0
366,87.21177067083333,87.92183983125,60.0,85.0
367,87.21177067083333,87.92357594166666,69.0,77.0
368,87.21177067083333,87.92878427291666,64.0,90.0
369,88.04510367083333,88.76906171458333,60.0,86.0
370,88.04510367083333,88.76906171458333,69.0,87.0
371,88.04510367083333,88.77253393541666,64.0,98.0
372,87.21177067083333,88.87843667083332,45.0,63.0
373,87.62843717083332,88.87843667083332,52.0,67.0
374,88.46177017083333,88.94267275624999,57.0,58.0
375,88.87843667083332,89.52426974583332,60.0,67.0
376,88.87843667083332,89.53295029791666,64.0,76.0
377,88.87843667083332,89.53642251875,69.0,76.0
378,88.87843667083332,90.27600555625,43.0,85.0
379,89.71176967083333,90.28989443958334,69.0,93.0
380,89.71176967083333,90.29683888125,64.0,100.0
381,89.71176967083333,90.30551943333333,60.0,87.0
382,90.54510267083333,91.22565795416666,65.0,62.0
383,90.54510267083333,91.22739406458332,57.0,63.0
384,90.54510267083333,91.24649127916666,60.0,71.0
385,91.37843567083333,91.80899105416667,65.0,90.0
386,90.54510267083333,91.81072716458333,41.0,85.0
387,91.37843567083333,91.812463275,60.0,90.0
388,91.37843567083333,91.82287993749999,57.0,79.0
389,92.21003256041666,92.86975451875,62.0,83.0
390,92.21003256041666,92.92357394166666,57.0,81.0
391,92.21003256041666,92.92878227291666,54.0,81.0
392,92.21003256041666,93.44961539791666,38.0,74.0
393,93.04510167083333,93.45308761874999,62.0,79.0
394,93.04510167083333,93.45829595,57.0,85.0
395,93.04510167083333,93.48260149583332,54.0,90.0
396,93.87843467083333,94.52426774583333,59.0,81.0
397,93.87843467083333,94.56767050625,67.0,87.0
398,93.87843467083333,94.58329549999999,62.0,85.0
399,94.71176767083332,95.38364240208332,67.0,90.0
400,94.71176767083332,95.41315627916666,59.0,79.0
401,94.71176767083332,95.41836461041666,62.0,87.0
402,95.12843417083333,95.93398940416667,55.0,62.0
403,95.54510067083334,96.24301705833332,67.0,79.0
404,95.54510067083334,96.26385038333333,62.0,81.0
405,95.54510067083334,96.26732260416667,59.0,79.0
406,94.29510117083333,96.85065570416666,50.0,75.0
407,93.87843467083333,96.89232235416667,43.0,74.0
408,96.37843367083333,96.89753068541665,55.0,70.0
409,96.37843367083333,96.95308621874999,62.0,86.0
410,96.37843367083333,96.96697510208332,67.0,86.0
411,96.37843367083333,96.9687112125,59.0,83.0
412,97.21176667083333,97.90100250625,64.0,90.0
413,97.21176667083333,97.92183583125,67.0,81.0
414,98.04509967083332,98.76384938333332,64.0,75.0
415,98.04509967083332,98.770793825,67.0,79.0
416,98.46176617083333,98.9062104375,60.0,54.0
417,98.87843267083333,99.60933515625,72.0,76.0
418,98.87843267083333,99.62496014999999,64.0,71.0
419,98.87843267083333,99.64232125416666,67.0,77.0
420,99.29509917083332,99.65100180625,60.0,58.0
421,97.62843317083333,99.88364060208333,55.0,65.0
422,97.21176667083333,100.05204331249999,48.0,85.0
423,99.71176567083333,100.07114052708333,67.0,93.0
424,99.71176567083333,100.07287663749999,72.0,83.0
425,99.71176567083333,100.07982107916666,64.0,77.0
426,100.54509867083333,101.28120948749999,57.0,67.0
427,100.54509867083333,101.28120948749999,65.0,85.0
428,100.54509867083333,101.28294559791667,60.0,73.0
429,101.37843167083332,102.11454248749999,65.0,87.0
430,101.37843167083332,102.11975081874999,60.0,83.0
431,101.37843167083332,102.12495915,57.0,72.0
432,101.79509817083333,102.24127854791666,53.0,51.0
433,102.21176467083333,102.70655613958333,57.0,72.0
434,100.96176517083333,102.83676442083333,48.0,70.0
435,102.21176467083333,102.86454218749999,60.0,83.0
436,102.21176467083333,102.88363940208333,65.0,86.0
437,100.54509867083333,102.88711162291666,41.0,79.0
438,103.04509767083333,103.52947247708333,59.0,86.0
439,103.04509767083333,103.53468080833333,55.0,77.0
440,103.04509767083333,103.54509747083333,40.0,68.0
441,103.87843067083332,104.60759704583333,53.0,71.0
442,103.87843067083332,104.61974981875,57.0,75.0
443,103.87843067083332,104.62148592916667,62.0,77.0
444,104.71176367083332,105.40273561666666,53.0,70.0
445,104.71176367083332,105.41488838958333,62.0,74.0
446,104.71176367083332,105.4166245,57.0,77.0
447,105.12843017083333,105.60759664583333,50.0,59.0
448,105.54509667083333,106.29336026041666,62.0,70.0
449,105.54509667083333,106.29856859166667,53.0,69.0
450,105.54509667083333,106.30030470208332,57.0,74.0
451,105.96176317083332,106.38537411249999,50.0,60.0
452,103.87843067083332,106.79683228124999,38.0,86.0
453,106.37842967083333,106.81766560624999,62.0,95.0
454,106.37842967083333,106.81940171666666,57.0,87.0
455,106.37842967083333,106.82113782708333,53.0,81.0
456,104.29509717083333,106.82808226875,45.0,64.0
457,106.79509617083333,107.18919323541667,50.0,60.0
458,107.21176267083332,107.92877627291666,59.0,75.0
459,107.21176267083332,107.93919293541666,67.0,83.0
460,107.21176267083332,107.94092904583333,62.0,81.0
461,108.04509567083333,108.71697040208333,59.0,93.0
462,108.04509567083333,108.72391484375,62.0,93.0
463,108.04509567083333,108.72565095416667,67.0,98.0
464,108.46176217083332,108.94092864583332,55.0,53.0
465,108.87842867083333,109.60585893541666,62.0,90.0
466,108.87842867083333,109.60759504583332,67.0,98.0
467,108.87842867083333,109.61627559791665,59.0,85.0
468,109.29509517083332,109.75342832083332,55.0,58.0
469,107.62842917083333,110.05377542291666,50.0,70.0
470,109.71176167083333,110.12321983958333,67.0,104.0
471,109.71176167083333,110.13016428124999,62.0,98.0
472,109.71176167083333,110.14405316458333,59.0,93.0
473,107.21176267083332,110.18398370416666,43.0,63.0
474,110.54509467083332,111.24821938958333,64.0,81.0
475,110.54509467083332,111.25342772083333,55.0,79.0
476,110.54509467083332,111.25516383124999,59.0,85.0
477,111.37842767083333,112.00342742083333,55.0,87.0
478,111.37842767083333,112.05724684375,59.0,98.0
479,111.37842767083333,112.062455175,64.0,93.0
480,112.21176067083333,112.93224649375,56.0,65.0
481,112.21176067083333,112.94092704583333,64.0,74.0
482,112.21176067083333,112.94266315624999,59.0,83.0
483,111.79509417083332,113.14926029583333,52.0,56.0
484,113.04509367083332,113.48085738541666,59.0,104.0
485,113.04509367083332,113.48259349583333,64.0,87.0
486,110.54509467083332,113.50863515208333,40.0,77.0
487,113.04509367083332,113.51037126249999,56.0,111.0
488,110.96176117083333,113.52426014583332,47.0,74.0
489,112.21176067083333,113.52599625625,44.0,74.0
490,113.46176017083333,113.8853711125,52.0,60.0
491,113.87842667083332,114.58849583125,60.0,85.0
492,113.87842667083332,114.59023194166666,69.0,77.0
493,113.87842667083332,114.59544027291666,64.0,90.0
494,114.71175967083333,115.43571771458333,60.0,86.0
495,114.71175967083333,115.43571771458333,69.0,87.0
496,114.71175967083333,115.43918993541666,64.0,98.0
497,113.87842667083332,115.54509267083333,45.0,63.0
498,114.29509317083333,115.54509267083333,52.0,67.0
499,115.12842617083332,115.60932875625,57.0,58.0
500,115.54509267083333,115.60932875625,57.0,69.0
501,115.54509267083333,116.7603699625,42.0,68.0
502,115.54509267083333,116.82981437916666,60.0,81.0
503,115.54509267083333,116.85932825625,48.0,93.0
504,115.54509267083333,116.86106436666667,52.0,49.0
505,117.21175867083333,117.89231395416667,65.0,62.0
506,117.21175867083333,117.89405006458333,57.0,63.0
507,117.21175867083333,117.91314727916667,60.0,71.0
508,118.04509167083333,118.47564705416666,65.0,90.0
509,117.21175867083333,118.47738316458333,41.0,85.0
510,118.04509167083333,118.47911927499999,60.0,90.0
511,118.04509167083333,118.4895359375,57.0,79.0
512,118.87842467083333,119.62147992916665,59.0,72.0
513,118.87842467083333,119.62495215,67.0,76.0
514,118.87842467083333,119.63363270208333,62.0,74.0
515,119.71175767083332,120.44266015625,62.0,75.0
516,119.71175767083332,120.44439626666666,67.0,79.0
517,119.71175767083332,120.44613237708333,59.0,69.0
518,118.87842467083333,120.48606291666665,47.0,90.0
519,120.54509067083333,121.26036816249999,62.0,66.0
520,120.54509067083333,121.29856259166667,65.0,74.0
521,121.37842367083333,122.07113172708333,62.0,72.0
522,121.37842367083333,122.0728678375,65.0,81.0
523,122.21175667083332,123.61974221874999,62.0,74.0
524,122.21175667083332,123.62147832916666,64.0,74.0
525,120.54509067083333,123.73432550624999,48.0,87.0
526,123.87842267083333,124.56418628541665,60.0,67.0
527,123.87842267083333,124.58501961041667,56.0,65.0
528,124.71175567083333,125.15619993749999,60.0,72.0
529,123.87842267083333,125.17876937291666,41.0,58.0
530,124.71175567083333,125.26731100416666,56.0,68.0
531,123.87842267083333,125.31418598541666,48.0,67.0
532,125.54508867083332,126.29335226041665,59.0,73.0
533,125.54508867083332,126.29335226041665,59.0,73.0
534,125.54508867083332,126.30376892291666,62.0,73.0
535,126.37842167083333,127.1353658125,62.0,68.0
536,126.37842167083333,127.14578247499999,59.0,66.0
537,125.54508867083332,127.19612967708332,65.0,73.0
538,125.54508867083332,127.20481022916665,67.0,73.0
539,125.54508867083332,127.22043522291666,43.0,73.0
540,125.54508867083332,127.22043522291666,43.0,73.0
541,127.21175467083333,127.92182383125,64.0,65.0
542,127.21175467083333,127.96175437083333,67.0,79.0
543,127.62842117083332,128.41835141041665,55.0,47.0
544,127.21175467083333,128.54855969166667,48.0,74.0
545,128.04508767083334,128.83675402083333,72.0,64.0
546,128.04508767083334,128.88710122291667,64.0,65.0
547,128.04508767083334,128.90099010625,67.0,53.0
548,128.87842067083332,130.14751738541665,41.0,73.0
549,129.71175367083333,130.1596701583333,65.0,76.0
550,129.71175367083333,130.17182293125,57.0,64.0
551,129.71175367083333,130.17529515208332,60.0,64.0
552,129.2950871708333,130.47390614374999,48.0,73.0
553,130.5450866708333,131.29335026041667,59.0,70.0
554,130.5450866708333,131.29855859166665,62.0,64.0
555,130.5450866708333,131.29855859166665,67.0,73.0
556,130.5450866708333,131.76730840416667,43.0,75.0
557,130.96175317083333,131.85064170416666,50.0,61.0
558,131.37841967083332,131.86453058749998,67.0,86.0
559,131.37841967083332,131.86973891875,59.0,73.0
560,131.37841967083332,131.86973891875,62.0,79.0
561,131.79508617083332,132.25862765208333,55.0,54.0
562,132.21175267083333,132.92876627291665,64.0,70.0
563,132.21175267083333,132.94612737708331,72.0,67.0
564,132.21175267083333,132.95480792916666,67.0,75.0
565,132.62841917083333,133.30203001249998,55.0,65.0
566,132.21175267083333,133.33328,48.0,67.0
567,133.04508567083332,133.70307151875,64.0,75.0
568,133.04508567083332,133.70307151875,67.0,83.0
569,133.04508567083332,133.70307151875,72.0,76.0
570,133.87841867083333,134.56765450625,64.0,74.0
571,133.87841867083333,134.59369616249998,67.0,79.0
572,134.29508517083332,134.81418218541666,55.0,62.0
573,133.87841867083333,135.06939041666666,48.0,85.0
574,134.71175167083334,135.12147372916667,67.0,75.0
575,134.71175167083334,135.13189039166667,64.0,81.0
576,135.54508467083332,136.29161215,57.0,65.0
577,135.54508467083332,136.30029270208334,60.0,76.0
578,135.54508467083332,136.87320913958334,41.0,71.0
579,136.37841767083333,136.87494525,60.0,74.0
580,136.37841767083333,136.89230635416666,57.0,67.0
581,136.79508417083332,137.11105626666665,53.0,47.0
582,135.96175117083334,137.14751458541667,48.0,73.0
583,137.21175067083334,137.9686948125,59.0,71.0
584,137.21175067083334,137.97216703333333,62.0,74.0
585,137.21175067083334,138.49820848958333,43.0,74.0
586,138.04508367083332,138.51904181458332,62.0,75.0
587,138.04508367083332,138.54855569166665,59.0,70.0
588,137.62841717083333,138.61800010833332,50.0,66.0
589,138.4617501708333,138.84195835208334,55.0,60.0
590,138.87841667083333,139.66313857916666,64.0,68.0
591,138.87841667083333,139.6648746895833,67.0,79.0
592,139.29508317083332,140.11105506666667,55.0,64.0
593,139.7117496708333,140.13362450208334,67.0,83.0
594,139.7117496708333,140.1561939375,64.0,73.0
595,138.87841667083333,140.2186939125,48.0,98.0
596,140.54508267083332,141.28640181875,57.0,61.0
597,140.54508267083332,141.3228601375,60.0,74.0
598,140.96174917083331,141.75167941041667,48.0,74.0
599,141.37841567083333,141.82980437916666,60.0,71.0
600,141.37841567083333,141.83674882083332,57.0,61.0
601,140.54508267083332,141.9166099,41.0,65.0
602,142.21174867083332,142.95133170833333,55.0,63.0
603,142.21174867083332,142.96522059166665,59.0,75.0
604,142.21174867083332,143.5034148208333,40.0,74.0
605,143.04508167083333,143.5103592625,55.0,66.0
606,143.04508167083333,143.51383148333332,59.0,76.0
607,143.46174817083332,143.81591469583333,52.0,47.0
608,142.62841517083334,143.81938691666667,47.0,63.0
609,143.87841467083334,144.62841437083333,57.0,70.0
610,143.87841467083334,144.65098380625,60.0,74.0
611,143.87841467083334,144.71174767083332,41.0,75.0
612,144.29508117083333,144.71174767083332,48.0,67.0
613,144.71174767083332,145.16313637916667,62.0,75.0
614,144.71174767083332,145.17008082083333,59.0,69.0
615,144.71174767083332,145.2603585625,43.0,75.0
616,145.12841417083334,145.54160844999998,50.0,86.0
617,145.54508067083333,146.24820538958332,64.0,63.0
618,145.54508067083333,146.28292759791665,67.0,74.0
619,145.54508067083333,146.37841367083334,48.0,64.0
620,145.96174717083332,146.37841367083334,55.0,64.0
621,146.37841367083334,146.88709402291667,67.0,71.0
622,146.37841367083334,146.89751068541665,62.0,63.0
623,146.37841367083334,147.05376062291666,47.0,83.0
624,147.21174667083332,147.94264915624998,60.0,66.0
625,147.21174667083332,147.95827415,64.0,81.0
626,147.6284131708333,148.37320453958333,52.0,61.0
627,148.04507967083333,148.49646837916666,60.0,83.0
628,148.04507967083333,148.4999406,64.0,86.0
629,147.21174667083332,148.54681558125,45.0,77.0
630,148.8784126708333,149.61973181874998,55.0,76.0
631,148.8784126708333,149.63188459166665,59.0,77.0
632,148.8784126708333,150.2690371145833,40.0,69.0
633,149.71174567083332,150.38362040208332,55.0,74.0
634,149.71174567083332,150.42007872083332,59.0,79.0
635,150.12841217083331,150.51903701458332,52.0,53.0
636,149.29507917083333,150.52424534583332,47.0,70.0
637,150.54507867083333,151.26382838333333,57.0,58.0
638,150.54507867083333,151.30202281249998,60.0,70.0
639,151.37841167083332,152.06070306458332,60.0,73.0
640,151.79507817083334,152.104105825,53.0,52.0
641,150.54507867083333,152.11278637708332,41.0,76.0
642,151.37841167083332,152.11625859791667,57.0,66.0
643,150.96174517083332,152.23257799583334,48.0,65.0
644,152.21521689166667,152.895772175,67.0,70.0
645,152.21521689166667,152.90445272708334,71.0,62.0
646,153.04854989166665,153.70306351874999,71.0,86.0
647,153.04854989166665,153.71695240208334,67.0,79.0
648,153.46521639166667,153.90445232708333,55.0,53.0
649,153.88188289166666,154.34195215208334,72.0,100.0
650,153.88188289166666,154.59889649375,67.0,87.0
651,154.29854939166665,154.80375752291667,55.0,56.0
652,154.71521589166665,155.38188229166667,74.0,100.0
653,154.71521589166665,155.38361840208333,67.0,90.0
654,152.63188339166666,155.437437825,50.0,87.0
655,155.13188239166666,155.44091004583333,55.0,60.0
656,152.21521689166667,155.45653503958331,43.0,76.0
657,155.54507667083334,156.28639581874998,64.0,77.0
658,155.54507667083334,156.3020208125,67.0,85.0
659,156.37840967083332,157.10410382499998,64.0,74.0
660,156.37840967083332,157.11625659791665,67.0,85.0
661,156.7950761708333,157.37667316041666,60.0,50.0
662,157.21174267083333,157.9461173770833,64.0,65.0
663,157.21174267083333,157.95132570833331,67.0,81.0
664,157.62840917083332,158.11104786666667,60.0,53.0
665,158.0450756708333,158.48951993749998,67.0,76.0
666,158.0450756708333,158.54333936041667,64.0,73.0
667,155.96174317083333,158.5728532375,55.0,66.0
668,158.46174217083333,158.59368656249998,60.0,58.0
669,155.54507667083334,158.61972821875,48.0,86.0
670,158.87840867083332,159.6145194875,57.0,67.0
671,158.87840867083332,159.6145194875,65.0,85.0
672,158.87840867083332,159.61625559791665,60.0,73.0
673,159.71174167083333,160.4478524875,65.0,87.0
674,159.71174167083333,160.45306081875,60.0,83.0
675,159.71174167083333,160.45826914999998,57.0,72.0
676,160.12840817083332,160.57458854791665,53.0,51.0
677,160.54507467083332,161.03986613958332,57.0,72.0
678,159.29507517083331,161.17007442083332,48.0,70.0
679,160.54507467083332,161.1978521875,60.0,83.0
680,160.54507467083332,161.21694940208332,65.0,86.0
681,158.87840867083332,161.22042162291666,41.0,79.0
682,161.37840767083333,161.86278247708333,59.0,86.0
683,161.37840767083333,161.86799080833333,55.0,77.0
684,161.37840767083333,161.87840747083334,40.0,68.0
685,162.21174067083334,162.9409070458333,53.0,71.0
686,162.21174067083334,162.95305981874998,57.0,75.0
687,162.21174067083334,162.95479592916666,62.0,77.0
688,163.04507367083332,163.73604561666664,53.0,70.0
689,163.04507367083332,163.74819838958334,62.0,74.0
690,163.04507367083332,163.7499345,57.0,77.0
691,163.46174017083334,163.94090664583334,50.0,59.0
692,163.87840667083333,164.62667026041666,62.0,70.0
693,163.87840667083333,164.63187859166666,53.0,69.0
694,163.87840667083333,164.63361470208332,57.0,74.0
695,164.29507317083332,164.7186841125,50.0,60.0
696,162.21174067083334,165.13014228125,38.0,86.0
697,164.71173967083334,165.15097560625,62.0,95.0
698,164.71173967083334,165.15271171666666,57.0,87.0
699,164.71173967083334,165.15444782708332,53.0,81.0
700,162.62840717083333,165.16139226874998,45.0,64.0
701,165.12840617083333,165.52250323541665,50.0,60.0
702,165.54507267083332,166.26208627291666,59.0,75.0
703,165.54507267083332,166.27250293541667,67.0,83.0
704,165.54507267083332,166.27423904583333,62.0,81.0
705,166.37840567083333,167.05028040208333,59.0,93.0
706,166.37840567083333,167.05722484375,62.0,93.0
707,166.37840567083333,167.05896095416665,67.0,98.0
708,166.79507217083332,167.27423864583332,55.0,53.0
709,167.2117386708333,167.93916893541666,62.0,90.0
710,167.2117386708333,167.94090504583332,67.0,98.0
711,167.2117386708333,167.94958559791667,59.0,85.0
712,167.62840517083333,168.08673832083332,55.0,58.0
713,165.9617391708333,168.38708542291667,50.0,70.0
714,168.04507167083332,168.4565298395833,67.0,104.0
715,168.04507167083332,168.46347428125,62.0,98.0
716,168.04507167083332,168.47736316458332,59.0,93.0
717,165.54507267083332,168.51729370416666,43.0,63.0
718,168.87840467083333,169.58152938958332,64.0,81.0
719,168.87840467083333,169.58673772083333,55.0,79.0
720,168.87840467083333,169.58847383124998,59.0,85.0
721,169.29507117083332,170.15791804791667,47.0,74.0
722,169.71173767083332,170.33673742083332,55.0,87.0
723,169.71173767083332,170.39055684375,59.0,98.0
724,169.71173767083332,170.39576517499998,64.0,93.0
725,170.54507067083333,171.26555649374998,55.0,65.0
726,170.54507067083333,171.27423704583333,64.0,74.0
727,170.54507067083333,171.27597315625,59.0,83.0
728,170.12840417083333,171.4825702958333,52.0,56.0
729,171.37840367083334,171.81416738541665,59.0,104.0
730,171.37840367083334,171.8159034958333,64.0,87.0
731,168.87840467083333,171.84194515208333,40.0,77.0
732,171.37840367083334,171.84368126249998,55.0,69.0
733,170.54507067083333,171.85930625625,47.0,74.0
734,171.79507017083333,172.21868111249998,52.0,60.0
735,172.21173667083332,172.92180583125,60.0,85.0
736,172.21173667083332,172.92354194166666,69.0,77.0
737,172.21173667083332,172.92875027291666,64.0,90.0
738,173.04506967083333,173.76902771458333,60.0,86.0
739,173.04506967083333,173.76902771458333,69.0,87.0
740,173.04506967083333,173.77249993541665,64.0,98.0
741,172.21173667083332,173.8784026708333,45.0,63.0
742,172.62840317083334,173.8784026708333,52.0,67.0
743,173.46173617083332,173.94263875624998,57.0,58.0
744,173.8784026708333,174.52423574583332,60.0,67.0
745,173.8784026708333,174.53291629791667,64.0,76.0
746,173.8784026708333,174.53638851875,69.0,76.0
747,173.8784026708333,175.27597155625,43.0,85.0
748,174.71173567083332,175.28986043958332,69.0,93.0
749,174.71173567083332,175.29680488124998,64.0,100.0
750,174.71173567083332,175.30548543333333,60.0,87.0
751,175.54506867083333,176.22562395416665,65.0,62.0
752,175.54506867083333,176.22736006458334,57.0,63.0
753,175.54506867083333,176.24645727916666,60.0,71.0
754,176.3784016708333,176.80895705416665,65.0,90.0
755,175.54506867083333,176.8106931645833,41.0,85.0
756,176.3784016708333,176.812429275,60.0,90.0
757,176.3784016708333,176.82284593749998,57.0,79.0
758,177.21173467083332,177.86972051875,62.0,83.0
759,177.21173467083332,177.92353994166666,57.0,81.0
760,177.21173467083332,177.92874827291666,54.0,81.0
761,177.21173467083332,178.44958139791666,38.0,74.0
762,178.04506767083333,178.45305361875,62.0,79.0
763,178.04506767083333,178.45826194999998,57.0,85.0
764,178.04506767083333,178.48256749583334,54.0,90.0
765,178.87840067083332,179.52423374583333,59.0,81.0
766,178.87840067083332,179.56763650624998,67.0,87.0
767,178.87840067083332,179.5832615,62.0,85.0
768,179.71173367083333,180.38360840208333,67.0,90.0
769,179.71173367083333,180.41312227916666,59.0,79.0
770,179.71173367083333,180.41833061041666,62.0,87.0
771,180.12840017083332,180.93395540416665,55.0,62.0
772,180.54506667083334,181.24298305833332,67.0,79.0
773,180.54506667083334,181.26381638333334,62.0,81.0
774,180.54506667083334,181.26728860416665,59.0,79.0
775,179.29506717083333,181.85062170416666,50.0,75.0
776,178.87840067083332,181.89228835416665,43.0,74.0
777,181.37839967083332,181.89749668541666,55.0,70.0
778,181.37839967083332,181.95305221875,62.0,86.0
779,181.37839967083332,181.96694110208333,67.0,86.0
780,181.37839967083332,181.96867721249998,59.0,83.0
781,182.21173267083333,182.90096850625,64.0,90.0
782,182.21173267083333,182.92180183124998,67.0,81.0
783,183.0450656708333,183.76381538333334,64.0,75.0
784,183.0450656708333,183.770759825,67.0,79.0
785,183.46173217083333,183.9061764375,60.0,54.0
786,183.87839867083332,184.60930115624998,72.0,76.0
787,183.87839867083332,184.62492615,64.0,71.0
788,183.87839867083332,184.64228725416666,67.0,77.0
789,184.2950651708333,184.65096780624998,60.0,58.0
790,182.62839917083332,184.88360660208332,55.0,65.0
791,182.21173267083333,185.0520093125,48.0,85.0
792,184.71173167083333,185.07110652708332,67.0,93.0
793,184.71173167083333,185.0728426375,72.0,83.0
794,184.71173167083333,185.07978707916666,64.0,77.0
795,185.5450646708333,186.28117548749998,57.0,67.0
796,185.5450646708333,186.28117548749998,65.0,85.0
797,185.5450646708333,186.28291159791667,60.0,73.0
798,186.37839767083332,187.1145084875,65.0,87.0
799,186.37839767083332,187.11971681875,60.0,83.0
800,186.37839767083332,187.12492515,57.0,72.0
801,186.7950641708333,187.24124454791666,53.0,51.0
802,187.21173067083333,187.7065221395833,57.0,72.0
803,185.96173117083333,187.83673042083333,48.0,70.0
804,187.21173067083333,187.86450818749998,60.0,83.0
805,187.21173067083333,187.88360540208333,65.0,86.0
806,185.5450646708333,187.88707762291665,41.0,79.0
807,188.04506367083331,188.52943847708332,59.0,86.0
808,188.04506367083331,188.53464680833332,55.0,77.0
809,188.04506367083331,188.54506347083333,40.0,68.0
810,188.87839667083333,189.60756304583333,53.0,71.0
811,188.87839667083333,189.61971581875,57.0,75.0
812,188.87839667083333,189.62145192916665,62.0,77.0
813,189.71172967083334,190.40270161666666,53.0,70.0
814,189.71172967083334,190.41485438958333,62.0,74.0
815,189.71172967083334,190.41659049999998,57.0,77.0
816,190.12839617083333,190.60756264583333,50.0,59.0
817,190.54506267083332,191.29332626041665,62.0,70.0
818,190.54506267083332,191.29853459166665,53.0,69.0
819,190.54506267083332,191.3002707020833,57.0,74.0
820,190.96172917083334,191.3853401125,50.0,60.0
821,188.87839667083333,191.79679828124998,38.0,86.0
822,191.37839567083333,191.81763160625,62.0,95.0
823,191.37839567083333,191.81936771666665,57.0,87.0
824,191.37839567083333,191.82110382708333,53.0,81.0
825,189.29506317083332,191.82804826875,45.0,64.0
826,191.79506217083332,192.18915923541667,50.0,60.0
827,192.2117286708333,192.92874227291665,59.0,75.0
828,192.2117286708333,192.93915893541666,67.0,83.0
829,192.2117286708333,192.94089504583332,62.0,81.0
830,193.04506167083332,193.71693640208332,59.0,93.0
831,193.04506167083332,193.72388084374998,62.0,93.0
832,193.04506167083332,193.72561695416667,67.0,98.0
833,193.4617281708333,193.9408946458333,55.0,53.0
834,193.87839467083333,194.60582493541665,62.0,90.0
835,193.87839467083333,194.60756104583334,67.0,98.0
836,193.87839467083333,194.61624159791666,59.0,85.0
837,194.29506117083332,194.75339432083334,55.0,58.0
838,192.62839517083333,195.05374142291666,50.0,70.0
839,194.7117276708333,195.12318583958333,67.0,104.0
840,194.7117276708333,195.13013028125,62.0,98.0
841,194.7117276708333,195.1440191645833,59.0,93.0
842,192.2117286708333,195.18394970416665,43.0,63.0
843,195.54506067083332,196.2481853895833,64.0,81.0
844,195.54506067083332,196.25339372083332,55.0,79.0
845,195.54506067083332,196.25512983125,59.0,85.0
846,196.37839367083333,197.00339342083333,55.0,87.0
847,196.37839367083333,197.05721284375,59.0,98.0
848,196.37839367083333,197.062421175,64.0,93.0
849,197.21172667083331,197.93221249375,56.0,65.0
850,197.21172667083331,197.94089304583332,64.0,74.0
851,197.21172667083331,197.94262915624998,59.0,83.0
852,196.79506017083332,198.14922629583333,52.0,56.0
853,198.04505967083333,198.48082338541667,59.0,104.0
854,198.04505967083333,198.48255949583333,64.0,87.0
855,195.54506067083332,198.50860115208332,40.0,77.0
856,198.04505967083333,198.5103372625,56.0,111.0
857,195.9617271708333,198.52422614583332,47.0,74.0
858,197.21172667083331,198.52596225624998,44.0,74.0
859,198.46172617083332,198.8853371125,52.0,60.0
860,198.87839267083334,199.58846183125,60.0,85.0
861,198.87839267083334,199.59019794166664,69.0,77.0
862,198.87839267083334,199.59540627291665,64.0,90.0
863,199.71172567083332,200.43568371458332,60.0,86.0
864,199.71172567083332,200.43568371458332,69.0,87.0
865,199.71172567083332,200.43915593541666,64.0,98.0
866,198.87839267083334,200.54505867083333,45.0,63.0
867,199.29505917083333,200.54505867083333,52.0,67.0
868,200.12839217083334,200.60929475625,57.0,58.0
869,200.54505867083333,200.60929475625,57.0,69.0
870,200.54505867083333,201.8645025875,60.0,81.0
871,200.54505867083333,201.91832201041666,48.0,93.0
872,200.54505867083333,201.92005812083332,52.0,49.0
873,200.54505867083333,202.01901641458332,42.0,68.0
874,202.21172467083332,202.89227995416667,65.0,62.0
875,202.21172467083332,202.89401606458333,57.0,63.0
876,202.21172467083332,202.91311327916665,60.0,71.0
877,203.04505767083333,203.47561305416664,65.0,90.0
878,202.21172467083332,203.47734916458333,41.0,85.0
879,203.04505767083333,203.479085275,60.0,90.0
880,203.04505767083333,203.4895019375,57.0,79.0
881,203.8783906708333,204.62144592916667,59.0,72.0
882,203.8783906708333,204.62491814999998,67.0,76.0
883,203.8783906708333,204.63359870208333,62.0,74.0
884,204.71172367083332,205.44262615625,62.0,75.0
885,204.71172367083332,205.44436226666664,67.0,79.0
886,204.71172367083332,205.4478344875,59.0,69.0
887,203.8783906708333,205.48602891666667,47.0,90.0
888,205.54505667083333,205.83151488958333,60.0,68.0
889,205.54505667083333,205.87491765,67.0,68.0
890,205.54505667083333,205.8853343125,64.0,68.0
891,205.96172317083332,206.1770008625,60.0,75.0
892,205.96172317083332,206.2186675125,64.0,75.0
893,205.96172317083332,206.229084175,67.0,75.0
894,206.37838967083331,206.65269511666665,72.0,83.0
895,206.37838967083331,206.66311177916666,64.0,82.0
896,206.37838967083331,206.68394510416667,67.0,83.0
897,206.79505617083333,206.96866721249998,64.0,91.0
898,206.79505617083333,206.99123664791665,67.0,91.0
899,206.79505617083333,207.04331996041665,72.0,91.0
900,205.54852889166665,207.15269491666666,48.0,68.0
901,206.79505617083333,207.30547263333332,60.0,92.0
902,207.21172267083332,207.42005592083333,48.0,96.0
903,207.21172267083332,207.44783368749998,67.0,97.0
904,207.21172267083332,207.45825035,76.0,98.0
905,207.21172267083332,207.4686670125,72.0,98.0
906,207.62838917083332,207.74818078958333,67.0,106.0
907,207.62838917083332,207.78984743958333,72.0,106.0
908,207.62838917083332,207.83151408958332,76.0,106.0
909,207.62838917083332,207.83672242083333,48.0,101.0
910,207.62838917083332,208.1353334125,60.0,107.0
911,208.04505567083334,208.2499167,72.0,112.0
912,208.04505567083334,208.2499167,76.0,112.0
913,208.04505567083334,208.25338892083332,48.0,109.0
914,208.04505567083334,208.25338892083332,67.0,100.0
915,208.04505567083334,208.26033336249998,79.0,112.0
916,208.46172217083333,208.66831931041665,60.0,61.0
917,208.46172217083333,208.67005542083334,48.0,113.0
918,208.46172217083333,208.67005542083334,67.0,100.0
919,205.96172317083332,208.72387484375,55.0,75.0
920,208.46172217083333,208.73776372708332,76.0,121.0
921,208.46172217083333,208.73776372708332,79.0,121.0
922,208.46172217083333,208.7603331625,72.0,119.0
923,208.87838867083332,209.08672192083333,41.0,97.0
924,208.87838867083332,209.54679118125,72.0,75.0
925,208.87838867083332,209.56068006458332,68.0,70.0
926,209.08672192083333,210.23255479583332,53.0,69.0
927,209.71172167083333,210.27595755624998,72.0,75.0
928,209.71172167083333,210.37665196041667,68.0,98.0
929,208.87838867083332,210.38012418124998,65.0,63.0
930,208.87838867083332,210.3992213958333,60.0,87.0
931,210.12838817083332,211.03463780833331,62.0,70.0
932,210.12838817083332,211.05373502291667,70.0,75.0
933,210.33672142083333,211.59192925208333,58.0,62.0
934,210.33672142083333,211.75685974166666,53.0,76.0
935,210.12838817083332,211.86449858749998,46.0,58.0
936,211.37838767083332,211.89227635416665,70.0,79.0
937,211.37838767083332,211.91310967916667,62.0,76.0
938,212.21172067083333,213.46172017083333,36.0,97.0
939,213.46172017083333,213.6700534208333,36.0,97.0
940,213.46172017083333,213.82109502708332,60.0,57.0
941,213.6700534208333,213.87838667083332,36.0,97.0
942,213.6700534208333,214.43915033541666,72.0,81.0
943,213.0450536708333,214.49123364791666,67.0,85.0
944,214.50338642083332,214.71171967083333,36.0,97.0
945,214.31762260624998,214.79852519166664,60.0,59.0
946,213.0450536708333,214.81415018541665,64.0,75.0
947,214.9200529208333,215.12838617083332,36.0,97.0
948,212.62838717083332,215.23081668541664,55.0,62.0
949,214.9200529208333,215.23081668541664,67.0,67.0
950,212.4200539208333,215.26206667291666,48.0,95.0
951,215.12838617083332,215.33671942083333,36.0,97.0
952,215.12838617083332,215.3992193958333,64.0,79.0
953,215.33671942083333,215.54505267083331,48.0,97.0
954,215.75338592083332,215.96171917083333,53.0,97.0
955,215.54505267083331,216.19609407708333,60.0,81.0
956,215.9669275020833,216.7846355083333,53.0,60.0
957,216.37838567083332,217.10060760416667,60.0,77.0
958,215.54505267083331,217.21171867083333,41.0,98.0
959,215.54505267083331,217.21171867083333,48.0,58.0
960,217.21171867083333,217.42005192083332,34.0,97.0
961,217.21171867083333,217.92873227291665,53.0,75.0
962,217.21171867083333,217.92873227291665,65.0,79.0
963,217.21171867083333,217.93046838333333,62.0,74.0
964,217.21171867083333,217.99470446875,58.0,59.0
965,217.42005192083332,217.99644057916666,46.0,59.0
966,218.04505167083332,218.59192645208333,53.0,60.0
967,218.04505167083332,218.65789864791665,65.0,100.0
968,218.04505167083332,218.67873197291667,58.0,52.0
969,218.04505167083332,218.68741252499998,46.0,60.0
970,218.04505167083332,218.71345418125,62.0,69.0
971,218.87838467083333,219.0867179208333,36.0,97.0
972,218.87838467083333,219.29505117083332,48.0,70.0
973,219.29505117083332,219.50338442083333,36.0,97.0
974,219.29505117083332,219.50338442083333,48.0,97.0
975,218.87838467083333,219.60755104583333,64.0,67.0
976,218.87838467083333,219.62838437083332,67.0,74.0
977,219.7117176708333,219.92005092083332,36.0,97.0
978,219.7117176708333,219.92005092083332,48.0,97.0
979,220.12838417083333,220.3367174208333,36.0,97.0
980,220.12838417083333,220.3367174208333,48.0,97.0
981,219.7117176708333,220.44609237708332,64.0,74.0
982,219.7117176708333,220.45824514999998,67.0,76.0
983,220.12838417083333,220.58671732083332,60.0,51.0
984,220.54505067083332,220.75338392083333,36.0,97.0
985,220.54505067083332,220.75338392083333,48.0,97.0
986,220.54505067083332,221.08150878958332,64.0,63.0
987,220.54505067083332,221.13532821249999,72.0,76.0
988,220.9617171708333,221.17005042083332,36.0,97.0
989,220.9617171708333,221.17005042083332,48.0,97.0
990,220.54505067083332,221.29852259166665,67.0,63.0
991,220.9617171708333,221.39748088541666,60.0,64.0
992,221.37838367083333,221.5867169208333,36.0,97.0
993,221.5867169208333,221.79505017083332,48.0,97.0
994,221.79505017083332,221.98775842708332,60.0,60.0
995,219.29505117083332,221.99817508958333,55.0,67.0
996,221.79505017083332,222.00338342083333,36.0,97.0
997,221.37838367083333,222.02248063541666,64.0,70.0
998,221.37838367083333,222.02595285625,67.0,79.0
999,222.00338342083333,222.2117166708333,48.0,97.0
1000,222.2117166708333,222.55546653333332,65.0,14.0
1001,222.2117166708333,222.97213303333334,60.0,83.0
1002,222.42004992083332,222.9773413645833,53.0,60.0
1003,222.2117166708333,222.9773413645833,56.0,74.0
1004,223.04504967083332,223.67178553124998,65.0,83.0
1005,223.04504967083332,223.72213273333332,60.0,87.0
1006,223.04504967083332,223.77247993541664,56.0,77.0
1007,223.04504967083332,223.78463270833333,53.0,67.0
1008,222.2117166708333,223.81935491666667,48.0,104.0
1009,222.2117166708333,223.84539657291666,41.0,71.0
1010,224.0867159208333,224.61796570833332,58.0,56.0
1011,223.87838267083333,224.63532681249998,65.0,87.0
1012,223.87838267083333,224.63706292291664,62.0,68.0
1013,223.87838267083333,224.66136846875,53.0,74.0
1014,224.7117156708333,225.1353266125,53.0,74.0
1015,224.7117156708333,225.15789604791667,58.0,74.0
1016,224.7117156708333,225.23602101666665,65.0,90.0
1017,223.87838267083333,225.2377571270833,46.0,47.0
1018,224.7117156708333,225.26900711458333,62.0,75.0
1019,225.54504867083332,226.2429650583333,62.0,77.0
1020,225.54504867083332,226.2499095,58.0,62.0
1021,225.54504867083332,226.42004832083333,55.0,61.0
1022,226.37838167083333,226.85233981458333,62.0,86.0
1023,226.37838167083333,226.88011758124998,58.0,108.0
1024,225.54504867083332,226.89574257499999,43.0,58.0
1025,225.54504867083332,226.96518699166666,50.0,87.0
1026,226.79504817083333,227.14747858541665,55.0,61.0
1027,227.21171467083332,227.94956159791664,63.0,73.0
1028,227.21171467083332,227.95303381875,67.0,93.0
1029,228.04504767083333,228.47213083333332,67.0,108.0
1030,227.6283811708333,228.49122804791665,55.0,66.0
1031,228.04504767083333,228.50858915208332,63.0,104.0
1032,227.21171467083332,228.61796410833333,48.0,74.0
1033,228.8783806708333,229.14400556458332,44.0,83.0
1034,228.8783806708333,229.53115818749998,60.0,83.0
1035,228.8783806708333,229.56067206458331,63.0,83.0
1036,229.29504717083333,229.57629705833332,44.0,83.0
1037,228.8783806708333,229.78810252916665,56.0,83.0
1038,229.71171367083332,229.9356719145833,44.0,83.0
1039,229.29504717083333,230.38879673333332,51.0,83.0
1040,229.71171367083332,230.39053284374998,60.0,83.0
1041,230.1283801708333,230.39574117499998,44.0,83.0
1042,229.71171367083332,230.40094950625,63.0,83.0
1043,230.1283801708333,230.54504667083333,56.0,80.0
1044,230.54504667083333,230.8019910125,41.0,78.0
1045,230.96171317083332,231.21692140208333,41.0,78.0
1046,230.54504667083333,231.21692140208333,60.0,78.0
1047,230.54504667083333,231.2273380645833,56.0,78.0
1048,231.17004642083333,231.4773379645833,53.0,78.0
1049,231.3783796708333,231.63358790208332,41.0,78.0
1050,231.3783796708333,231.79331006041664,60.0,78.0
1051,231.3783796708333,231.84192115208333,56.0,78.0
1052,231.79504617083333,232.0519905125,41.0,76.0
1053,231.79504617083333,232.12490714999998,53.0,74.0
1054,230.96171317083332,232.20129600833332,48.0,78.0
1055,232.21171267083332,232.4356709145833,43.0,74.0
1056,232.6283791708333,232.88358740208332,43.0,74.0
1057,232.21171267083332,232.90789294791665,59.0,74.0
1058,232.21171267083332,232.92872627291666,62.0,74.0
1059,233.04504567083333,233.3002539020833,43.0,74.0
1060,233.46171217083332,233.69782318749998,43.0,74.0
1061,233.04504567083333,233.770739825,59.0,74.0
1062,233.04504567083333,233.7794203770833,62.0,74.0
1063,233.46171217083332,234.01205917291665,55.0,74.0
1064,233.86969811875,234.11622579791666,47.0,74.0
1065,233.8783786708333,234.52942007708333,67.0,74.0
1066,233.8783786708333,234.5519895125,59.0,74.0
1067,234.28810072916664,234.55372562291666,47.0,74.0
1068,233.8783786708333,234.57455894791664,62.0,74.0
1069,234.29504517083333,234.729072775,55.0,76.0
1070,234.72560055416665,234.9269893625,47.0,73.0
1071,234.71171167083332,235.32282253749997,67.0,76.0
1072,234.71171167083332,235.3575447458333,59.0,76.0
1073,234.71171167083332,235.3644891875,62.0,76.0
1074,235.14226705416667,235.47386414374998,47.0,81.0
1075,235.12837817083332,235.47386414374998,55.0,81.0
1076,232.6283791708333,235.54504467083333,50.0,74.0
1077,235.54504467083333,235.64053074375,67.0,71.0
1078,235.54504467083333,235.65789184791666,50.0,79.0
1079,235.54504467083333,235.65962795833332,55.0,54.0
1080,235.54504467083333,235.66310017916666,59.0,69.0
1081,235.54504467083333,235.67004462083332,62.0,72.0
1082,235.54504467083333,235.833239,43.0,59.0
1083,235.96171117083333,236.03983613958331,67.0,68.0
1084,235.96171117083333,236.06414168541664,62.0,71.0
1085,235.96171117083333,236.07455834791665,59.0,67.0
1086,235.96171117083333,236.07976667916665,50.0,73.0
1087,235.96171117083333,236.07976667916665,55.0,56.0
1088,235.96171117083333,236.10233611458332,43.0,61.0
1089,236.37837767083332,236.46344708125,67.0,68.0
1090,236.37837767083332,236.48775262708332,62.0,74.0
1091,236.37837767083332,236.48948873749998,50.0,72.0
1092,236.37837767083332,236.49643317916664,71.0,58.0
1093,236.37837767083332,236.50684984166665,59.0,68.0
1094,236.37837767083332,236.53115538749998,43.0,64.0
1095,236.7950441708333,236.88011358125,67.0,66.0
1096,236.7950441708333,236.90615523749997,62.0,66.0
1097,236.7950441708333,236.90789134791666,50.0,77.0
1098,236.7950441708333,236.91309967916666,71.0,67.0
1099,236.7950441708333,236.92004412083332,59.0,63.0
1100,236.7950441708333,236.94434966666665,43.0,67.0
1101,237.21171067083333,237.312405075,50.0,65.0
1102,237.21171067083333,237.31414118541664,67.0,64.0
1103,237.21171067083333,237.3262939583333,71.0,67.0
1104,237.21171067083333,237.34191895208332,62.0,64.0
1105,237.21171067083333,237.35059950416667,59.0,60.0
1106,237.21171067083333,237.35233561458332,43.0,74.0
1107,237.21171067083333,237.4200439208333,74.0,97.0
1108,237.62837717083332,237.72039102291666,67.0,65.0
1109,237.62837717083332,237.73948823749998,50.0,76.0
1110,237.62837717083332,237.75337712083333,62.0,67.0
1111,237.62837717083332,237.75337712083333,71.0,69.0
1112,237.62837717083332,237.7637937833333,59.0,63.0
1113,237.62837717083332,237.78636321874998,43.0,70.0
1114,237.62837717083332,237.83671042083333,74.0,97.0
1115,238.0450436708333,238.12490474999998,67.0,67.0
1116,238.0450436708333,238.145738075,62.0,69.0
1117,238.0450436708333,238.1492102958333,50.0,86.0
1118,238.0450436708333,238.15094640625,71.0,76.0
1119,238.0450436708333,238.15441862708332,59.0,65.0
1120,238.0450436708333,238.1769880625,43.0,79.0
1121,238.0450436708333,238.25337692083332,74.0,97.0
1122,238.0450436708333,238.25337692083332,79.0,97.0
1123,238.46171017083333,238.51552959375,67.0,74.0
1124,238.46171017083333,238.53636291875,50.0,85.0
1125,238.46171017083333,238.53983513958332,62.0,79.0
1126,238.46171017083333,238.54157124999998,55.0,71.0
1127,238.46171017083333,238.54330736041666,59.0,71.0
1128,238.46171017083333,238.56414068541665,43.0,70.0
1129,238.46171017083333,238.6700434208333,74.0,97.0
1130,238.46171017083333,238.6700434208333,79.0,97.0
1131,238.6700434208333,238.73254339583332,67.0,76.0
1132,238.6700434208333,238.74469616874998,62.0,76.0
1133,238.6700434208333,238.74990449999999,59.0,67.0
1134,238.6700434208333,238.76205727291665,50.0,90.0
1135,238.6700434208333,238.76205727291665,55.0,64.0
1136,238.6700434208333,238.77247393541666,43.0,72.0
1137,238.87837667083332,239.0606682645833,48.0,108.0
1138,238.87837667083332,239.07629325833332,72.0,83.0
1139,238.87837667083332,239.07976547916667,67.0,90.0
1140,238.87837667083332,239.09886269375,64.0,98.0
1141,239.9200429208333,240.22559835416666,64.0,104.0
1142,239.9200429208333,240.31066776458331,48.0,117.0
1143,240.33670942083333,240.48254269583333,65.0,95.0
1144,240.33670942083333,240.60233431458332,50.0,112.0
1145,240.5519871125,240.82976477916665,67.0,121.0
1146,240.5450426708333,240.8367092208333,52.0,108.0
1147,240.5450426708333,240.85927865624998,72.0,104.0
1148,240.5519871125,240.86622309791665,71.0,108.0
1149,242.21170867083333,242.81413898541666,60.0,68.0
1150,242.21170867083333,243.00163891041666,57.0,67.0
1151,242.21170867083333,243.00163891041666,65.0,69.0
1152,243.0450416708333,243.72559695416666,57.0,83.0
1153,243.0450416708333,243.72906917499998,65.0,87.0
1154,243.0450416708333,243.73774972708333,60.0,90.0
1155,243.46170817083333,243.97212463333332,53.0,59.0
1156,242.21170867083333,244.30893005416667,41.0,77.0
1157,243.87837467083332,244.32108282708333,60.0,87.0
1158,243.87837467083332,244.3228189375,57.0,76.0
1159,243.87837467083332,244.32629115833333,65.0,87.0
1160,242.62837517083332,244.4269855625,48.0,77.0
1161,244.71170767083333,245.21691580208332,60.0,85.0
1162,244.71170767083333,245.22212413333332,55.0,74.0
1163,244.71170767083333,245.2499019,40.0,66.0
1164,245.54504067083332,246.24642927916665,53.0,72.0
1165,245.54504067083332,246.2481653895833,57.0,69.0
1166,245.54504067083332,246.2533737208333,62.0,73.0
1167,246.37837367083333,247.09191505208332,62.0,83.0
1168,246.37837367083333,247.09538727291667,53.0,86.0
1169,246.37837367083333,247.09538727291667,57.0,87.0
1170,246.79504017083332,247.3575399458333,50.0,59.0
1171,247.2117066708333,247.9269841625,57.0,87.0
1172,247.2117066708333,247.9269841625,62.0,90.0
1173,247.2117066708333,247.93219249375,53.0,83.0
1174,247.62837317083333,247.98080358541665,50.0,66.0
1175,245.54504067083332,248.46344228125,38.0,77.0
1176,248.04503967083332,248.47906727499998,53.0,90.0
1177,248.04503967083332,248.48253949583332,57.0,93.0
1178,248.04503967083332,248.48253949583332,62.0,93.0
1179,245.9617071708333,248.50684504166665,45.0,70.0
1180,248.4617061708333,248.80371992291666,50.0,67.0
1181,248.87837267083333,249.60233071458333,59.0,83.0
1182,248.87837267083333,249.60580293541665,62.0,72.0
1183,248.87837267083333,249.61101126666665,67.0,76.0
1184,249.7117056708333,250.4252470520833,62.0,93.0
1185,249.7117056708333,250.42871927291665,67.0,93.0
1186,249.7117056708333,250.4304553833333,59.0,95.0
1187,250.12837217083333,250.6283719708333,55.0,54.0
1188,250.54503867083332,251.25510783124997,59.0,90.0
1189,250.54503867083332,251.25510783124997,67.0,95.0
1190,250.54503867083332,251.25858005208332,62.0,93.0
1191,250.9617051708333,251.46517719166664,55.0,59.0
1192,249.29503917083332,251.80024650208333,50.0,67.0
1193,251.37837167083333,251.80892705416665,62.0,95.0
1194,251.37837167083333,251.80892705416665,67.0,98.0
1195,251.37837167083333,251.83149648958332,59.0,90.0
1196,248.87837267083333,251.90441312708333,43.0,48.0
1197,252.2117046708333,252.94260715624998,64.0,79.0
1198,252.2117046708333,252.94607937708332,55.0,69.0
1199,252.2117046708333,252.94955159791667,59.0,71.0
1200,253.04503767083332,253.72732906458333,64.0,85.0
1201,253.04503767083332,253.7377457270833,59.0,86.0
1202,253.04503767083332,253.74121794791665,55.0,77.0
1203,253.46170417083331,253.91830121041664,52.0,58.0
1204,253.8783706708333,254.5936481625,64.0,93.0
1205,253.8783706708333,254.6023287145833,55.0,86.0
1206,253.8783706708333,254.604064825,59.0,95.0
1207,254.29503717083333,254.65788424791666,52.0,58.0
1208,252.2117046708333,255.15267571666666,40.0,67.0
1209,254.71170367083332,255.15962015833333,64.0,100.0
1210,254.71170367083332,255.16135626874998,59.0,104.0
1211,254.71170367083332,255.1665646,55.0,100.0
1212,252.62837117083333,255.20128680833332,47.0,68.0
1213,255.1283701708333,255.50510613125,52.0,59.0
1214,255.54503667083333,256.2689947145833,60.0,76.0
1215,255.54503667083333,256.2742030458333,64.0,85.0
1216,255.54503667083333,256.27593915625,69.0,83.0
1217,255.54503667083333,257.0380916291667,45.0,75.0
1218,256.3783696708333,257.0832305,60.0,79.0
1219,256.3783696708333,257.08670272083333,69.0,85.0
1220,256.3783696708333,257.08843883124996,64.0,90.0
1221,255.96170317083332,257.21170267083335,52.0,62.0
1222,257.21170267083335,257.88010518125,60.0,69.0
1223,257.21170267083335,257.88704962291666,69.0,76.0
1224,257.21170267083335,257.89052184375,64.0,72.0
1225,258.04503567083333,258.5137854833333,64.0,95.0
1226,258.04503567083333,258.51552159375,69.0,87.0
1227,257.21170267083335,258.51725770416664,43.0,85.0
1228,258.04503567083333,258.52941047708333,60.0,86.0
1229,258.8783686708333,259.61621559791666,57.0,77.0
1230,258.8783686708333,259.62489615,65.0,87.0
1231,258.8783686708333,259.6318405916667,60.0,79.0
1232,259.29503517083333,259.98600711666666,48.0,81.0
1233,259.7117016708333,260.09017374166666,60.0,90.0
1234,259.7117016708333,260.0971181833333,57.0,90.0
1235,259.7117016708333,260.0971181833333,65.0,98.0
1236,258.8783686708333,260.16135426874996,41.0,83.0
1237,260.54503467083333,261.24295105833335,62.0,86.0
1238,260.54503467083333,261.2481593895833,54.0,95.0
1239,260.54503467083333,261.25163161041667,57.0,90.0
1240,260.54503467083333,261.75510363125,38.0,95.0
1241,260.9617011708333,261.7637841833333,42.0,72.0
1242,261.3783676708333,261.7742008458333,62.0,98.0
1243,261.3783676708333,261.77767306666664,57.0,104.0
1244,261.3783676708333,261.80718694374997,54.0,120.0
1245,262.2117006708333,262.43913113541663,59.0,71.0
1246,262.2117006708333,262.44954779791664,67.0,75.0
1247,262.2117006708333,262.45302001875,62.0,74.0
1248,262.6283671708333,262.85753374583334,67.0,81.0
1249,262.6283671708333,262.86100596666665,59.0,74.0
1250,262.6283671708333,262.86795040833334,62.0,81.0
1251,263.04503367083333,263.1891308354167,67.0,90.0
1252,263.04503367083333,263.1995474979166,62.0,87.0
1253,263.04503367083333,263.20822805,59.0,77.0
1254,262.6283671708333,263.5745473479167,55.0,58.0
1255,263.4617001708333,263.70475562916664,59.0,76.0
1256,263.4617001708333,263.70822785,67.0,86.0
1257,263.4617001708333,263.71864451249996,62.0,85.0
1258,263.8783666708333,264.59190805208334,67.0,100.0
1259,263.8783666708333,264.59711638333334,59.0,100.0
1260,263.8783666708333,264.60579693541666,62.0,100.0
1261,263.8783666708333,264.729060775,55.0,72.0
1262,262.6283671708333,265.1335745020833,50.0,63.0
1263,262.2117006708333,265.1353106125,43.0,75.0
1264,264.7116996708333,265.16482448958334,62.0,95.0
1265,264.7116996708333,265.16829671041666,59.0,93.0
1266,264.7116996708333,265.17003282083334,67.0,104.0
1267,265.1283661708333,265.5085743520833,55.0,67.0
1268,265.54503267083334,266.2481573895833,64.0,85.0
1269,265.54503267083334,266.2533657208333,72.0,76.0
1270,265.54503267083334,266.2568379416667,67.0,87.0
1271,266.3783656708333,267.09017094166666,67.0,104.0
1272,266.3783656708333,267.09190705208334,64.0,104.0
1273,266.3783656708333,267.09190705208334,72.0,93.0
1274,266.79503217083334,267.4148235895833,60.0,53.0
1275,267.2116986708333,267.9096150583333,72.0,90.0
1276,267.2116986708333,267.91308727916663,67.0,98.0
1277,267.2116986708333,267.9148233895833,64.0,90.0
1278,267.6283651708333,268.03461500833333,60.0,60.0
1279,265.9616991708333,268.26551769375,55.0,67.0
1280,268.04503167083334,268.40267041666664,67.0,98.0
1281,268.04503167083334,268.4096148583333,72.0,90.0
1282,268.04503167083334,268.41308707916664,64.0,93.0
1283,265.54503267083334,268.41482318958333,48.0,69.0
1284,268.8783646708333,269.58322549999997,65.0,100.0
1285,268.8783646708333,269.5936421625,57.0,81.0
1286,268.8783646708333,269.59885049375,60.0,90.0
1287,269.7116976708333,270.40093350625,65.0,95.0
1288,269.7116976708333,270.4096140583333,57.0,83.0
1289,269.7116976708333,270.41308627916663,60.0,87.0
1290,270.1283641708333,270.55891955416666,53.0,59.0
1291,270.54503067083334,271.187391525,65.0,98.0
1292,270.54503067083334,271.19433596666664,57.0,83.0
1293,270.54503067083334,271.20475262916665,60.0,87.0
1294,269.29503117083334,271.2394748375,48.0,71.0
1295,268.8783646708333,271.30544703333334,41.0,79.0
1296,271.3783636708333,271.70822465,64.0,79.0
1297,271.3783636708333,271.84884959375,59.0,90.0
1298,271.3783636708333,271.87489124999996,40.0,72.0
1299,271.3783636708333,271.87489124999996,55.0,90.0
1300,272.2116966708333,272.9478074875,53.0,87.0
1301,272.2116966708333,272.94954359791666,62.0,93.0
1302,272.2116966708333,272.95822415,57.0,93.0
1303,273.04502967083334,273.73426550625,62.0,95.0
1304,273.04502967083334,273.7412099479167,53.0,85.0
1305,273.04502967083334,273.7464182791667,57.0,90.0
1306,273.4616961708333,273.96343208125,50.0,56.0
1307,273.8783626708333,274.59537627291667,62.0,86.0
1308,273.8783626708333,274.6023207145833,53.0,85.0
1309,273.8783626708333,274.60926515625,57.0,90.0
1310,274.29502917083335,274.7151678916666,50.0,62.0
1311,274.7116956708333,275.1978065875,62.0,100.0
1312,274.7116956708333,275.20301491875,57.0,93.0
1313,274.7116956708333,275.2064871395833,53.0,93.0
1314,272.2116966708333,275.21516769166664,38.0,81.0
1315,272.6283631708333,275.3106537645833,45.0,65.0
1316,275.1283621708333,275.4981536895833,50.0,59.0
1317,275.54502867083335,276.28634781874996,59.0,87.0
1318,275.54502867083335,276.28808392916665,67.0,83.0
1319,275.54502867083335,276.29329226041665,62.0,93.0
1320,276.3783616708333,277.0866947208333,59.0,87.0
1321,276.3783616708333,277.0936391625,67.0,98.0
1322,276.3783616708333,277.09537527291667,62.0,95.0
1323,276.7950281708333,277.28634741875,55.0,58.0
1324,277.2116946708333,277.92349994166665,62.0,93.0
1325,277.2116946708333,277.93044438333334,59.0,95.0
1326,277.2116946708333,277.93044438333334,67.0,95.0
1327,277.62836117083333,278.04849989166667,55.0,59.0
1328,275.9616951708333,278.42176363125,50.0,68.0
1329,278.0450276708333,278.46343028125,62.0,93.0
1330,278.0450276708333,278.46343028125,67.0,100.0
1331,278.0450276708333,278.4651663916666,59.0,98.0
1332,275.54502867083335,278.51377748333334,43.0,76.0
1333,278.87836067083333,279.5189854145833,64.0,71.0
1334,278.87836067083333,279.55544373333333,59.0,90.0
1335,278.87836067083333,279.56238817499997,56.0,73.0
1336,279.7116936708333,280.36967951875,64.0,77.0
1337,279.7116936708333,280.40266561666664,59.0,108.0
1338,279.7116936708333,280.41481838958333,56.0,100.0
1339,278.87836067083333,280.62835997083334,52.0,64.0
1340,280.5450266708333,281.2116930708333,64.0,85.0
1341,280.5450266708333,281.2359986166667,59.0,98.0
1342,280.5450266708333,281.2498875,56.0,98.0
1343,280.9616931708333,281.45301241875,52.0,58.0
1344,281.37835967083333,281.76204007291665,64.0,83.0
1345,281.37835967083333,281.76898451458334,59.0,104.0
1346,281.37835967083333,281.7950261708333,56.0,112.0
1347,278.87836067083333,281.79849839166667,40.0,52.0
1348,278.87836067083333,281.8106511645833,44.0,65.0
1349,278.87836067083333,281.8332206,47.0,76.0
1350,281.7950261708333,282.19259545625,52.0,62.0
1351,282.2116926708333,282.40092870625,71.0,77.0
1352,282.2116926708333,282.90092850625,69.0,74.0
1353,282.2116926708333,282.90092850625,69.0,83.0
1354,282.2116926708333,282.9512757083333,60.0,76.0
1355,282.2116926708333,282.9547479291667,64.0,87.0
1356,283.0450256708333,283.70474762916666,69.0,85.0
1357,283.0450256708333,283.70474762916666,69.0,93.0
1358,283.0450256708333,283.75509483125,64.0,86.0
1359,283.0450256708333,283.7637753833333,60.0,75.0
1360,282.2116926708333,283.77071982499996,45.0,81.0
1361,283.87835867083334,284.55370562291665,60.0,68.0
1362,283.87835867083334,284.55891395416666,57.0,64.0
1363,283.87835867083334,285.0554415333333,52.0,59.0
1364,283.87835867083334,285.0745387479167,48.0,86.0
1365,283.87835867083334,285.1075248458333,42.0,58.0
1366,284.7116916708333,285.14224705416666,57.0,77.0
1367,284.7116916708333,285.14224705416666,60.0,85.0
1368,285.5450246708333,286.27245493541665,57.0,68.0
1369,285.5450246708333,286.27592715624996,65.0,76.0
1370,285.5450246708333,286.28981603958334,60.0,73.0
1371,286.37835767083334,286.80717694375,65.0,90.0
1372,286.37835767083334,286.8210658270833,60.0,87.0
1373,286.37835767083334,286.82974637916664,57.0,83.0
1374,285.5450246708333,286.9200241208333,41.0,66.0
1375,285.9616911708333,287.1891212354167,48.0,69.0
1376,287.2116906708333,287.9599542604166,59.0,69.0
1377,287.2116906708333,287.96342648125,67.0,81.0
1378,287.2116906708333,287.97384314375,62.0,76.0
1379,288.0450236708333,288.49467626874997,59.0,85.0
1380,288.0450236708333,288.49641237916666,62.0,87.0
1381,288.0450236708333,288.49814848958334,67.0,90.0
1382,287.62835717083334,288.51550959375,50.0,69.0
1383,287.2116906708333,288.53634291875,43.0,71.0
1384,288.4616901708333,288.8141205854167,55.0,60.0
1385,288.87835667083334,289.5849536104167,64.0,90.0
1386,288.87835667083334,289.5866897208333,72.0,85.0
1387,288.87835667083334,289.58842583125,67.0,95.0
1388,289.7116896708333,290.40960605833334,64.0,87.0
1389,289.7116896708333,290.41307827916665,67.0,95.0
1390,289.7116896708333,290.41655049999997,72.0,83.0
1391,290.12835617083334,290.66134206875,60.0,51.0
1392,290.5450226708333,291.2377307270833,72.0,77.0
1393,290.5450226708333,291.2394668375,64.0,83.0
1394,290.5450226708333,291.2481473895833,67.0,93.0
1395,289.2950231708333,291.4981472895833,55.0,63.0
1396,288.87835667083334,291.66655,48.0,86.0
1397,291.37835567083334,291.73599441666664,72.0,73.0
1398,291.37835567083334,291.74641107916665,67.0,79.0
1399,291.37835567083334,291.75856385208334,64.0,72.0
1400,292.2116886708333,293.4894659375,65.0,65.0
1401,292.2116886708333,293.51203537291667,57.0,59.0
1402,292.2116886708333,293.51203537291667,60.0,63.0
1403,292.2116886708333,293.59016034166666,41.0,69.0
1404,293.0450216708333,293.645715875,53.0,60.0
1405,292.8366884208333,293.70474362916667,48.0,62.0
1406,293.87835467083335,295.49120124791665,67.0,67.0
1407,293.87835467083335,295.50161791041666,62.0,65.0
1408,293.87835467083335,295.50856235208335,43.0,75.0
1409,293.87835467083335,295.5102984625,59.0,62.0
1410,295.52765956666667,296.7012702083333,64.0,66.0
1411,296.4130758791666,297.04849229166666,60.0,59.0
1412,295.98772882708334,297.09015894166663,55.0,58.0
1413,295.50856235208335,297.13008948124997,48.0,74.0
1414,295.5311317875,297.28286719791663,67.0,73.0
1415,296.83147848958333,297.3366866208333,64.0,58.0
1416,297.73599201666667,298.36967231874996,52.0,62.0
1417,297.30890885416665,298.5502278020833,45.0,74.0
1418,298.15092240625,298.6439777645833,64.0,72.0
1419,298.1491862958333,298.64918609583333,60.0,67.0
1420,299.05717204375,299.78286619791663,57.0,65.0
1421,299.06064426458335,299.80543563333333,60.0,71.0
1422,299.9616855708333,300.41307427916666,60.0,75.0
1423,299.9564772395833,300.4148103895833,57.0,74.0
1424,299.03807482916665,300.4304353833333,41.0,77.0
1425,300.40265761666666,300.76203247291664,53.0,58.0
1426,299.52244963541665,300.78286579791666,48.0,74.0
1427,300.76897691458333,301.56932381666667,59.0,71.0
1428,300.77592135624997,301.58842103125,62.0,70.0
1429,300.78286579791666,303.3991841958333,43.0,69.0
1430,301.25856005208334,303.4356425145833,50.0,68.0
1431,302.3852957125,303.46342028124997,55.0,59.0
1432,301.73772652708334,303.48078138541666,62.0,72.0
1433,301.73425430624997,303.5068230416667,59.0,74.0
1434,304.64223925416667,305.06411408541663,60.0,57.0
1435,305.24466956875,305.6075166458333,60.0,60.0
1436,304.09883669375,305.94432206666664,64.0,52.0
1437,305.54328056041663,306.0710581270833,72.0,60.0
1438,304.9512669083333,306.17869697291667,67.0,63.0
1439,306.73078008541665,306.9564744395833,79.0,59.0
1440,306.96341888125,307.84883519375,84.0,10.0
1441,305.88703042291667,308.32973777916663,60.0,58.0
1442,304.0814755895833,308.35057110416665,48.0,81.0
1443,304.3783504708333,308.35057110416665,55.0,60.0
