,start,end,pitch,velocity
0,34.27179112500001,34.416632250000006,65.0,94.0
1,34.509886125,34.839250875000005,70.0,101.0
2,34.986076125000004,35.16266325,72.0,92.0
3,35.224171125000005,35.777742,74.0,97.0
4,35.938456125,36.76583625000001,65.0,92.0
5,36.89083612500001,37.22615325,74.0,99.0
6,37.367026125,37.843216125000005,72.0,96.0
7,37.843216125000005,38.180517375,72.0,94.0
8,38.31940612500001,38.569405875,72.0,96.0
9,38.557501125,38.888850000000005,69.0,97.0
10,39.033691125000004,39.24797662500001,67.0,90.0
11,39.271786125000006,40.29162637500001,65.0,93.0
12,41.176546125,41.577339375,62.0,96.0
13,41.652736125000004,42.009878625000006,70.0,91.0
14,42.12892612500001,42.307497375000004,70.0,94.0
15,42.36702112500001,42.7221795,69.0,91.0
16,42.843211125,43.55749612500001,70.0,93.0
17,43.55749612500001,43.90074975,70.0,95.0
18,44.033686125,44.382892125000005,72.0,85.0
19,44.509876125000005,44.86701862500001,70.0,96.0
20,44.98606612500001,45.33725625,69.0,95.0
21,45.700351125000005,45.821382750000005,69.0,94.0
22,45.938446125000006,46.255906125,69.0,95.0
23,46.41463612500001,46.55947725000001,62.0,92.0
24,46.652731125,47.954317125,65.0,93.0
25,48.557491125000006,48.720189375000004,70.0,91.0
26,48.79558612500001,49.15669687500001,77.0,93.0
27,49.271776125,49.58725200000001,70.0,97.0
28,49.747966125000005,50.113045125000006,70.0,96.0
29,50.22415612500001,50.390822625000006,69.0,91.0
30,50.46225112500001,51.64478962500001,70.0,92.0
31,52.128916125,52.521772875,67.0,91.0
32,52.605106125000006,52.94042325000001,65.0,93.0
33,53.08129612500001,53.388835500000006,65.0,96.0
34,53.557486125000004,53.73605737500001,65.0,94.0
35,53.795581125000005,54.11502525000001,74.0,101.0
36,54.27177112500001,55.505896875000005,74.0,99.0
37,55.938436125,56.291610375000005,74.0,99.0
38,56.414626125000005,56.74399087500001,75.0,92.0
39,56.89081612500001,57.178514250000006,74.0,92.0
40,57.367006125,57.718196250000005,67.0,94.0
41,57.843196125000006,58.160656125,70.0,93.0
42,58.31938612500001,58.795576125000004,70.0,94.0
43,58.795576125000004,59.13287737500001,67.0,94.0
44,59.271766125000006,60.02374950000001,70.0,92.0
45,60.224146125000004,60.54755850000001,70.0,94.0
46,60.70033612500001,62.24596950000001,65.0,94.0
47,64.747951125,64.89279225000001,65.0,94.0
48,64.986046125,65.31541087500001,70.0,101.0
49,65.462236125,65.63882325,72.0,92.0
50,65.700331125,66.25390200000001,74.0,97.0
51,66.41461612500001,67.24199625000001,65.0,92.0
52,67.36699612500001,67.70231325,74.0,99.0
53,67.843186125,68.319376125,72.0,96.0
54,68.319376125,68.656677375,72.0,94.0
55,68.79556612500001,69.04556587500001,72.0,96.0
56,69.03366112500001,69.36501000000001,69.0,97.0
57,69.50985112500001,69.72413662500001,67.0,90.0
58,69.74794612500001,70.76778637500001,65.0,93.0
59,71.65270612500001,72.053499375,62.0,96.0
60,72.12889612500001,72.486038625,62.0,91.0
61,72.60508612500001,72.783657375,62.0,94.0
62,72.843181125,73.1983395,70.0,91.0
63,73.319371125,74.03365612500001,70.0,93.0
64,74.03365612500001,74.37690975000001,70.0,95.0
65,74.50984612500001,74.859052125,72.0,85.0
66,74.98603612500001,75.34317862500001,70.0,96.0
67,75.46222612500002,75.81341625,69.0,95.0
68,76.176511125,76.29754275,69.0,94.0
69,76.414606125,76.732066125,69.0,95.0
70,76.89079612500001,77.03563725000001,62.0,92.0
71,77.12889112500001,78.43047712500001,65.0,93.0
72,79.033651125,79.19634937500001,70.0,91.0
73,79.271746125,79.632856875,77.0,93.0
74,79.74793612500001,80.06341200000001,70.0,97.0
75,80.22412612500001,80.589205125,70.0,96.0
76,80.70031612500001,80.866982625,69.0,91.0
77,80.938411125,82.12094962500001,70.0,92.0
78,82.60507612500001,82.997932875,67.0,91.0
79,83.08126612500001,83.41658325,65.0,93.0
80,83.55745612500002,83.8649955,65.0,96.0
81,84.033646125,84.21221737500001,65.0,94.0
82,84.271741125,84.59118525000001,74.0,101.0
83,84.74793112500001,85.98205687500001,74.0,99.0
84,86.414596125,86.76777037500001,74.0,99.0
85,86.890786125,87.22015087500002,75.0,92.0
86,87.36697612500001,87.65467425000001,74.0,92.0
87,87.84316612500001,88.19435625000001,67.0,94.0
88,88.31935612500001,88.63681612500001,70.0,93.0
89,88.79554612500002,89.271736125,70.0,94.0
90,89.271736125,89.60903737500001,67.0,94.0
91,89.747926125,90.49972202500001,74.0,92.0
92,90.69854073541669,92.58830273541669,72.0,94.0
93,93.06074323541668,93.40326259791668,65.0,99.0
94,93.53318373541669,93.89538811875002,77.0,92.0
95,94.00562423541669,94.16507290416668,75.0,99.0
96,94.24184448541668,95.07058386250002,74.0,101.0
97,95.18672548541669,95.29761512500002,74.0,96.0
98,95.42461939166668,95.55360810000002,74.0,101.0
99,95.66275239166669,95.88104097500002,74.0,81.0
100,95.90088539166669,96.01796745000001,75.0,96.0
101,96.13901839166668,96.79586858333334,72.0,94.0
102,96.85341739166668,96.95859280000002,72.0,96.0
103,97.09155039166669,97.20664800833335,72.0,92.0
104,97.32968339166669,97.45073433333334,72.0,95.0
105,97.56781639166668,97.94486030833335,74.0,106.0
106,98.04408239166668,98.15521112500002,72.0,94.0
107,98.28221539166668,98.72474588333336,72.0,94.0
108,98.75848139166668,98.87754789166668,70.0,99.0
109,98.99661439166668,99.11568089166668,70.0,91.0
110,99.23474739166669,99.37762719166669,70.0,96.0
111,99.47288039166668,99.61972907500002,72.0,92.0
112,99.94914639166669,100.58019884166669,74.0,92.0
113,100.66354539166669,100.99296270833335,74.0,97.0
114,101.13981139166668,101.26483121666668,74.0,93.0
115,101.37794439166669,101.70339282500002,74.0,101.0
116,101.85421039166668,102.02090349166669,69.0,92.0
117,102.09234339166669,102.44358956666669,67.0,92.0
118,102.56860939166668,102.69958254166669,67.0,91.0
119,102.80674239166669,102.92184000833335,67.0,92.0
120,103.04487539166668,103.14409747500002,67.0,92.0
121,103.28300839166668,103.44970149166669,67.0,92.0
122,103.52114139166669,103.66203675000001,77.0,94.0
123,103.75927439166668,104.13234942500002,70.0,91.0
124,104.47367339166668,104.59273989166668,70.0,93.0
125,104.71180639166668,104.83682621666668,70.0,92.0
126,104.94993939166669,105.07892810000001,70.0,93.0
127,105.18807239166668,105.66433839166669,70.0,97.0
128,105.66433839166669,105.79531154166668,67.0,92.0
129,105.90247139166668,106.18227766666668,70.0,97.0
130,106.37873739166669,106.49780389166668,70.0,94.0
131,106.61687039166668,106.95422547500002,70.0,92.0
132,107.09313639166669,107.23403175000001,70.0,95.0
133,107.33126939166668,107.45628921666669,72.0,90.0
134,107.56940239166669,108.13298382500003,72.0,95.0
135,108.28380139166669,108.62909424166668,65.0,99.0
136,108.76006739166668,109.12520465833335,77.0,92.0
137,109.23633339166669,109.39707316666669,75.0,99.0
138,109.47446639166668,110.30991633333335,74.0,101.0
139,110.42699839166669,110.53812712500002,74.0,96.0
140,110.66513139166669,110.79412010000001,74.0,101.0
141,110.90326439166668,111.12155297500001,74.0,81.0
142,111.14139739166669,111.25847945000001,75.0,96.0
143,111.37953039166669,112.03638058333335,72.0,94.0
144,112.09392939166668,112.19910480000001,72.0,96.0
145,112.33206239166668,112.44716000833336,72.0,92.0
146,112.57019539166669,112.69124633333335,72.0,95.0
147,112.80832839166669,113.18537230833336,74.0,106.0
148,113.28459439166669,113.39572312500002,72.0,94.0
149,113.52272739166668,113.96525788333335,72.0,94.0
150,113.99899339166669,114.11805989166669,70.0,99.0
151,114.23712639166669,114.35619289166668,70.0,91.0
152,114.47525939166668,114.61813919166669,70.0,96.0
153,114.71339239166669,115.18965839166668,79.0,92.0
154,115.18965839166668,116.61845639166668,77.0,92.0
155,117.09472239166669,117.24553995833335,70.0,92.0
156,117.33285539166668,117.47771963333335,67.0,94.0
157,117.57098839166669,117.90635903333336,70.0,92.0
158,118.04725439166668,118.38262503333335,75.0,94.0
159,118.5235203916667,118.98986418333335,79.0,96.0
160,118.99978639166669,119.41056581666669,77.0,91.0
161,119.47605239166668,119.84515854166668,74.0,97.0
162,119.9523183916667,120.17259141666668,72.0,91.0
163,120.19045139166668,120.66076406666669,70.0,91.0
164,120.90485039166668,121.03780798333335,67.0,91.0
165,121.14298339166669,121.49422956666669,70.0,92.0
166,121.61924939166668,121.76808251666668,70.0,96.0
167,121.85738239166669,122.24434851666669,70.0,94.0
168,122.33364839166669,122.66306570833335,72.0,94.0
169,122.80991439166668,123.32983810833335,72.0,97.0
170,123.52431339166668,123.65528654166668,72.0,92.0
171,123.76244639166669,123.87357512500002,72.0,93.0
172,124.00057939166669,124.33991891666669,72.0,96.0
173,124.47684539166669,124.88762481666669,65.0,97.0
174,124.95311139166668,125.56828830833335,72.0,94.0
175,125.66751039166668,128.53981462500002,70.0,91.0
176,129.51170175000001,129.65828803125,65.0,94.0
177,129.7526655,130.08599868750002,70.0,101.0
178,130.23459300000002,130.41330778125,72.0,92.0
179,130.47536803333335,131.02902725833334,74.0,97.0
180,131.18976703333334,132.01727920833335,65.0,92.0
181,132.14229903333333,132.47766967500002,74.0,99.0
182,132.61856503333334,133.09483103333335,72.0,96.0
183,133.09483103333335,133.43218611666668,72.0,94.0
184,133.57109703333333,133.82113668333335,72.0,96.0
185,133.80923003333334,134.14063179166666,69.0,97.0
186,134.28549603333335,134.49981573333335,67.0,90.0
187,134.52362903333335,135.54363205,65.0,93.0
188,136.42869303333333,136.82955025,62.0,96.0
189,136.90495903333334,137.26215853333335,62.0,91.0
190,137.38122503333335,137.55982478333334,62.0,94.0
191,137.61935803333336,137.97457309166668,70.0,91.0
192,138.09562403333334,138.81002303333335,70.0,93.0
193,138.81002303333335,139.15333144166667,70.0,95.0
194,139.28628903333333,139.63555076666668,72.0,85.0
195,139.76255503333334,140.11975453333335,70.0,96.0
196,140.23882103333335,140.59006720833335,69.0,95.0
197,140.95322003333334,141.07427097500002,69.0,94.0
198,141.19135303333334,141.5088637,69.0,95.0
199,141.66761903333335,141.812483275,62.0,92.0
200,141.90575203333336,143.20754576666667,65.0,93.0
201,143.81081603333334,143.97354025,70.0,91.0
202,144.04894903333334,144.41011741666668,77.0,93.0
203,144.52521503333335,144.84074125833334,70.0,97.0
204,145.00148103333333,145.3666183,70.0,96.0
205,145.47774703333334,145.64444013333335,69.0,91.0
206,145.71588003333335,146.8986072666667,70.0,92.0
207,147.38281103333335,147.77573048333335,67.0,91.0
208,147.85907703333334,148.19444767500002,65.0,93.0
209,148.33534303333334,148.64293149166667,65.0,96.0
210,148.81160903333335,148.99020878333334,65.0,94.0
211,149.04974203333336,149.36923714166667,74.0,101.0
212,149.52600803333334,150.76033075,74.0,99.0
213,151.19293903333335,151.54616965000002,74.0,99.0
214,151.66920503333336,151.99862235,75.0,92.0
215,152.14547103333334,152.43321507500002,74.0,92.0
216,152.62173703333335,152.97298320833335,67.0,94.0
217,153.09800303333336,153.41551370000002,70.0,93.0
218,153.57426903333334,154.05053503333335,70.0,94.0
219,154.05053503333335,154.38789011666668,67.0,94.0
220,154.52680103333336,155.27874941666667,74.0,92.0
221,155.47835403333335,157.37558603333335,72.0,94.0
222,157.84989403333333,158.19376733333334,65.0,99.0
223,158.32420203333334,158.68783816666667,77.0,92.0
224,158.79851003333334,158.95858898333333,75.0,99.0
225,159.03566403333335,159.86767931666668,74.0,101.0
226,159.98428003333333,160.0949519,74.0,96.0
227,160.22143403333334,160.34989245,74.0,101.0
228,160.45858803333334,160.6759792,74.0,81.0
229,160.69574203333335,160.81234275,75.0,96.0
230,160.93289603333335,161.5870458166667,72.0,94.0
231,161.64435803333333,161.74910105,72.0,96.0
232,161.88151203333334,161.99613646666668,72.0,92.0
233,162.11866603333334,162.23921931666666,72.0,95.0
234,162.35582003333334,162.73131386666668,74.0,106.0
235,162.83012803333335,162.9407999,72.0,94.0
236,163.06728203333336,163.50799321666668,72.0,94.0
237,163.54159003333334,163.66016703333335,70.0,99.0
238,163.77874403333334,163.89732103333336,70.0,91.0
239,164.01589803333334,164.15819043333335,70.0,96.0
240,164.25305203333335,164.39929700000002,72.0,92.0
241,164.72736003333335,165.35581813333334,74.0,92.0
242,165.43882203333334,165.76688506666667,74.0,97.0
243,165.91313003333335,166.03763588333334,74.0,93.0
244,166.15028403333335,166.47439450000002,74.0,101.0
245,166.62459203333333,166.79059983333335,69.0,92.0
246,166.86174603333333,167.21154818333335,67.0,92.0
247,167.33605403333334,167.46648873333334,67.0,91.0
248,167.57320803333334,167.68783246666666,67.0,92.0
249,167.81036203333335,167.90917620000002,67.0,92.0
250,168.04751603333335,168.21352383333334,67.0,92.0
251,168.28467003333333,168.42498615,77.0,94.0
252,168.52182403333333,168.8933653,70.0,91.0
253,169.23328603333334,169.35186303333333,70.0,93.0
254,169.47044003333335,169.59494588333334,70.0,92.0
255,169.70759403333335,169.83605245,70.0,93.0
256,169.94474803333335,170.41905603333333,70.0,97.0
257,170.41905603333333,170.54949073333333,67.0,92.0
258,170.65621003333334,170.93561655000002,70.0,97.0
259,171.132076275,171.251142775,70.0,94.0
260,171.370209275,171.70756435833334,70.0,92.0
261,171.84647527500002,171.98737063333334,70.0,95.0
262,172.084608275,172.2096281,72.0,90.0
263,172.322741275,172.88632270833335,72.0,95.0
264,173.037140275,173.382433125,65.0,99.0
265,173.513406275,173.8785435416667,77.0,92.0
266,173.989672275,174.15041205,75.0,99.0
267,174.227805275,175.06325521666668,74.0,101.0
268,175.180337275,175.29146600833334,74.0,96.0
269,175.418470275,175.54745898333334,74.0,101.0
270,175.656603275,175.87489185833334,74.0,81.0
271,175.894736275,176.01181833333334,75.0,96.0
272,176.13286927500002,176.78971946666667,72.0,94.0
273,176.847268275,176.95244368333334,72.0,96.0
274,177.085401275,177.20049889166668,72.0,92.0
275,177.32353427500001,177.44458521666667,72.0,95.0
276,177.56166727500002,177.93871119166667,74.0,106.0
277,178.037933275,178.14906200833335,72.0,94.0
278,178.276066275,178.71859676666668,72.0,94.0
279,178.75233227500001,178.87139877500002,70.0,99.0
280,178.99046527500002,179.109531775,70.0,91.0
281,179.228598275,179.371478075,70.0,96.0
282,179.466731275,179.942997275,79.0,92.0
283,179.942997275,181.371795275,77.0,92.0
284,181.84806127500002,181.99887884166668,70.0,92.0
285,182.086194275,182.23105851666668,67.0,94.0
286,182.324327275,182.6596979166667,70.0,92.0
287,182.800593275,183.13596391666667,75.0,94.0
288,183.276859275,183.74320306666667,79.0,96.0
289,183.753125275,184.16390470000002,77.0,91.0
290,184.229391275,184.598497425,74.0,97.0
291,184.70565727500002,184.9259303,72.0,91.0
292,184.943790275,185.41410295,70.0,91.0
293,185.658189275,185.79114686666668,67.0,91.0
294,185.89632227500002,186.24756845000002,70.0,92.0
295,186.372588275,186.5214214,70.0,96.0
296,186.610721275,186.99768740000002,70.0,94.0
297,188.277652275,188.622945125,66.0,99.0
298,188.75391827500002,189.11905554166668,78.0,92.0
299,189.230184275,189.39092405,76.0,99.0
300,189.468317275,190.30376721666667,75.0,101.0
301,190.42084927500002,190.53197800833334,75.0,96.0
302,190.658982275,190.78797098333334,75.0,101.0
303,190.897115275,191.11540385833334,75.0,81.0
304,191.135248275,191.25233033333333,76.0,96.0
305,191.373381275,192.03023146666666,73.0,94.0
306,192.087780275,192.19295568333334,73.0,96.0
307,192.325913275,192.44101089166668,73.0,92.0
308,192.564046275,192.68509721666666,73.0,95.0
309,192.80217927500001,193.17922319166667,75.0,106.0
310,193.278445275,193.38957400833334,73.0,94.0
311,193.516578275,193.95910876666667,73.0,94.0
312,193.992844275,194.111910775,71.0,99.0
313,194.23097727500001,194.35004377500002,71.0,91.0
314,194.46911027500002,194.611990075,71.0,96.0
315,194.707243275,194.85409195833336,73.0,92.0
316,195.183509275,195.814561725,75.0,92.0
317,195.89790827500002,196.22732559166667,75.0,97.0
318,196.374174275,196.4991941,75.0,93.0
319,196.612307275,196.93775570833333,75.0,101.0
320,197.08857327500002,197.25526637500002,70.0,92.0
321,197.326706275,197.67795245000002,68.0,92.0
322,197.802972275,197.93394542500002,68.0,91.0
323,198.041105275,198.15620289166668,68.0,92.0
324,198.279238275,198.37846035833334,68.0,92.0
325,198.51737127500002,198.68406437500002,68.0,92.0
326,198.75550427500002,198.89639963333335,78.0,94.0
327,198.993637275,199.36671230833335,71.0,91.0
328,199.708036275,199.82710277500001,71.0,93.0
329,199.94616927500002,200.0711891,71.0,92.0
330,200.184302275,200.31329098333333,71.0,93.0
331,200.422435275,200.898701275,71.0,97.0
332,200.898701275,201.029674425,68.0,92.0
333,201.136834275,201.41664055,71.0,97.0
334,201.61310027500002,201.732166775,71.0,94.0
335,201.851233275,202.18858835833333,71.0,92.0
336,202.327499275,202.46839463333333,71.0,95.0
337,202.565632275,202.69065210000002,73.0,90.0
338,202.80376527500002,203.36734670833334,73.0,95.0
339,203.518164275,203.86345712500002,66.0,99.0
340,203.994430275,204.35956754166668,78.0,92.0
341,204.47069627500002,204.63143605,76.0,99.0
342,204.708829275,205.54427921666667,75.0,101.0
343,205.66136127500002,205.77249000833334,75.0,96.0
344,205.899494275,206.02848298333333,75.0,101.0
345,206.137627275,206.35591585833333,75.0,81.0
346,206.375760275,206.49284233333333,76.0,96.0
347,206.613893275,207.27074346666666,73.0,94.0
348,207.32829227500002,207.43346768333333,73.0,96.0
349,207.566425275,207.68152289166667,73.0,92.0
350,207.804558275,207.92560921666666,73.0,95.0
351,208.042691275,208.4197351916667,75.0,106.0
352,208.518957275,208.63008600833334,73.0,94.0
353,208.757090275,209.19962076666667,73.0,94.0
354,209.233356275,209.352422775,71.0,99.0
355,209.471489275,209.590555775,71.0,91.0
356,209.70962227500002,209.85250207500002,71.0,96.0
357,209.94775527500002,210.424021275,80.0,92.0
358,210.424021275,211.852819275,78.0,92.0
359,212.329085275,212.47990284166667,71.0,92.0
360,212.56721827500002,212.71208251666667,68.0,94.0
361,212.80535127500002,213.14072191666668,71.0,92.0
362,213.281617275,213.6169879166667,76.0,94.0
363,213.757883275,214.22422706666669,80.0,96.0
364,214.234149275,214.6449287,78.0,91.0
365,214.710415275,215.079521425,75.0,97.0
366,215.186681275,215.4069543,73.0,91.0
367,215.42481427500002,215.89512695000002,71.0,91.0
368,216.139213275,216.27217086666667,68.0,91.0
369,216.377346275,216.72859245,71.0,92.0
370,216.85361227500002,217.0024454,71.0,96.0
371,217.091745275,217.4787114,71.0,94.0
372,217.568011275,217.89742859166668,73.0,94.0
373,218.044277275,218.56420099166667,73.0,97.0
374,218.758676275,218.88964942500002,73.0,92.0
375,218.996809275,219.10793800833335,73.0,93.0
376,219.234942275,219.5742818,73.0,96.0
377,219.71120827500002,220.1219877,66.0,97.0
378,220.187474275,220.80265119166668,73.0,94.0
379,220.901873275,223.75153150833336,71.0,91.0
