,start,end,pitch,velocity
0,3.7956311250000003,4.2738052500000006,62.0,86.0
1,3.0813461250000005,4.835312625,46.0,91.0
2,3.3194411250000004,4.8968205000000005,53.0,67.0
3,3.5575361250000004,5.186502750000001,58.0,85.0
4,4.7480111250000006,5.406740625,62.0,86.0
5,4.7480111250000006,5.454359625,65.0,88.0
6,5.2242011250000004,5.505946875,58.0,79.0
7,5.938486125000001,6.232136625000001,62.0,91.0
8,5.700391125,6.279755625000001,58.0,84.0
9,5.938486125000001,6.418644375,65.0,91.0
10,5.462296125000001,6.871024875000001,53.0,76.0
11,6.8908661250000005,7.166659500000001,57.0,81.0
12,6.8908661250000005,7.402770375000001,60.0,82.0
13,7.605151125000001,7.944436500000001,60.0,81.0
14,7.367056125,8.128960125,57.0,82.0
15,8.081341125000002,8.386896375000001,65.0,90.0
16,8.795626125,9.188482875000002,57.0,77.0
17,8.795626125,9.355149375000002,60.0,82.0
18,9.748006125000002,9.9285615,60.0,92.0
19,9.748006125000002,9.970228125,57.0,90.0
20,7.128961125000001,10.097212125,53.0,80.0
21,9.748006125000002,10.134910500000002,65.0,90.0
22,6.8908661250000005,10.220227875,45.0,89.0
23,10.700386125000001,11.198401500000001,55.0,85.0
24,10.700386125000001,11.462290125,58.0,84.0
25,11.414671125000002,12.136892625000002,55.0,91.0
26,11.890861125,12.216257625,58.0,96.0
27,12.128956125000002,12.295622625000002,63.0,91.0
28,12.367051125000001,12.468241500000001,55.0,62.0
29,10.700386125000001,13.117050375000002,39.0,83.0
30,11.176576125,13.148796375000002,46.0,62.0
31,12.605146125000001,13.353161250000001,58.0,77.0
32,12.605146125000001,13.382923125000001,63.0,84.0
33,13.557526125,13.843240125000001,58.0,82.0
34,13.557526125,13.857129000000002,63.0,78.0
35,13.557526125,13.874986125000001,67.0,83.0
36,14.509906125000002,14.803556625000002,53.0,79.0
37,14.509906125000002,14.960302500000001,57.0,78.0
38,15.224191125,15.539667000000001,60.0,92.0
39,14.986096125000001,15.605143125000001,53.0,79.0
40,15.700381125000002,15.787682625000002,53.0,61.0
41,15.700381125000002,16.01982525,65.0,91.0
42,14.748001125000002,16.2777615,48.0,78.0
43,14.509906125000002,16.287682125000003,41.0,86.0
44,15.938476125000001,16.589269125,60.0,77.0
45,16.176571125000002,16.890856125000003,53.0,90.0
46,17.128951125,17.247998625,53.0,88.0
47,16.890856125000003,17.557522125000002,48.0,71.0
48,16.414666125,17.636887125,41.0,82.0
49,17.367046125,17.698395,53.0,97.0
50,17.367046125,17.7222045,57.0,99.0
51,18.319426125000003,18.55950525,55.0,85.0
52,18.319426125000003,18.803552625000002,58.0,77.0
53,18.795616125000002,19.575377250000003,55.0,72.0
54,19.033711125000004,19.622996250000003,63.0,94.0
55,19.509901125000003,19.795615125,58.0,91.0
56,19.747996125000004,20.494027125000002,55.0,90.0
57,19.986091125,20.551566750000003,58.0,91.0
58,20.462281125,20.761884000000002,63.0,104.0
59,20.938471125000003,21.247994625000004,55.0,79.0
60,20.700376125000002,21.291645375,58.0,75.0
61,18.319426125000003,21.484105500000002,39.0,86.0
62,18.557521125,21.494026125,46.0,73.0
63,21.176566125,21.726168750000003,67.0,90.0
64,21.414661125000002,21.76585125,63.0,93.0
65,21.652756125000003,22.0872795,58.0,93.0
66,21.890851125,22.172596875000004,55.0,91.0
67,22.367041125000004,22.452358500000003,55.0,80.0
68,22.605136125,22.958310375000003,58.0,80.0
69,22.843231125000003,23.13886575,53.0,90.0
70,23.319421125,23.587278,53.0,75.0
71,23.081326125000004,23.611087500000004,62.0,91.0
72,23.557516125000003,24.230134500000002,58.0,76.0
73,24.271801125000003,24.569419875,53.0,86.0
74,23.795611125000004,24.696403875,65.0,91.0
75,24.747991125000002,24.872991000000003,62.0,88.0
76,24.747991125000002,24.880927500000002,53.0,86.0
77,24.986086125000003,25.2936255,53.0,91.0
78,24.986086125000003,25.367038125000004,62.0,91.0
79,22.128946125000002,25.412673,46.0,91.0
80,25.938466125,26.460291,58.0,83.0
81,25.938466125,26.525767125,63.0,83.0
82,26.414656125000004,27.023782500000003,55.0,81.0
83,26.890846125000003,27.130925250000004,63.0,91.0
84,26.652751125,27.216242625000003,58.0,92.0
85,27.128941125000004,27.591242250000004,67.0,90.0
86,27.367036125000002,27.674575500000003,63.0,96.0
87,27.605131125000003,28.001956125000003,58.0,91.0
88,28.557511125,28.696399875000004,55.0,78.0
89,25.938466125,28.912669500000003,39.0,90.0
90,26.176561125000003,28.930526625000002,46.0,79.0
91,28.795606125000003,29.005923375000002,58.0,93.0
92,28.795606125000003,29.019812250000005,55.0,90.0
93,28.795606125000003,29.043621750000003,63.0,91.0
94,29.747986125000004,30.240049125000002,57.0,80.0
95,29.747986125000004,30.499969500000002,60.0,82.0
96,30.462271125000004,30.950365875000003,57.0,85.0
97,30.700366125000002,30.992032500000004,60.0,84.0
98,30.938461125000003,31.222191000000002,65.0,93.0
99,31.176556125000005,31.406714625000003,60.0,81.0
100,31.414651125000002,31.525762125000004,57.0,67.0
101,31.652746125000004,31.995999750000003,69.0,84.0
102,31.652746125000004,32.01980925,60.0,84.0
103,31.652746125000004,32.049571125,57.0,74.0
104,30.224176125000003,32.84322112500001,48.0,80.0
105,29.747986125000004,32.859094125000006,41.0,90.0
106,33.557506125,34.035680250000006,62.0,88.0
107,33.557506125,34.047585000000005,58.0,77.0
108,34.509886125,34.640838375,58.0,91.0
109,34.509886125,34.704330375000005,62.0,89.0
110,34.986076125000004,35.25790125,53.0,78.0
111,35.462266125000006,35.668615125,62.0,84.0
112,35.462266125000006,35.672583375,58.0,76.0
113,35.462266125000006,35.68647225,53.0,76.0
114,36.414646125000004,36.904725000000006,58.0,91.0
115,36.414646125000004,37.299565875000006,62.0,88.0
116,33.557506125,37.303534125000006,46.0,91.0
117,36.89083612500001,37.476153000000004,53.0,93.0
118,37.367026125,38.14678725,57.0,81.0
119,37.367026125,38.148771375,60.0,86.0
120,38.31940612500001,38.652739125000004,60.0,92.0
121,38.31940612500001,38.692421625,57.0,90.0
122,39.271786125000006,39.450357375,57.0,80.0
123,39.271786125000006,39.458293875,60.0,84.0
124,39.747976125,39.98805525,53.0,62.0
125,40.224166125,40.434483375000006,53.0,86.0
126,37.367026125,40.470197625000004,41.0,87.0
127,40.224166125,40.51186425,57.0,91.0
128,40.224166125,40.53765787500001,60.0,90.0
129,41.176546125,41.751942375000006,62.0,86.0
130,41.176546125,41.791624875000004,58.0,78.0
131,41.176546125,42.061465875,55.0,80.0
132,42.12892612500001,42.277735500000006,58.0,90.0
133,42.12892612500001,42.291624375000005,62.0,90.0
134,43.081306125000005,43.2777345,58.0,80.0
135,43.081306125000005,43.56344850000001,62.0,84.0
136,43.55749612500001,44.120987625000005,55.0,75.0
137,44.033686125,44.384876250000005,67.0,90.0
138,44.033686125,44.46820950000001,62.0,94.0
139,44.033686125,44.47614600000001,58.0,90.0
140,41.652736125000004,44.495987250000006,50.0,76.0
141,41.176546125,44.565431625,43.0,91.0
142,44.509876125000005,44.624955375000006,55.0,93.0
143,44.98606612500001,45.597176625,57.0,84.0
144,44.98606612500001,45.8491605,53.0,83.0
145,45.938446125000006,46.063446000000006,57.0,84.0
146,45.938446125000006,46.069398375000006,60.0,90.0
147,46.890826125000004,47.005905375000005,57.0,82.0
148,46.890826125000004,47.033683125,60.0,86.0
149,47.843206125,48.156697875000006,57.0,93.0
150,45.462256125,48.24003112500001,48.0,75.0
151,44.98606612500001,48.283681875000006,41.0,90.0
152,47.843206125,48.321380250000004,60.0,92.0
153,48.319396125000004,48.438443625000005,53.0,92.0
154,48.79558612500001,49.525744125,58.0,83.0
155,48.79558612500001,49.728124875000006,55.0,88.0
156,49.747966125000005,49.906696125,63.0,86.0
157,49.747966125000005,49.9126485,58.0,86.0
158,50.700346125,50.87693325000001,58.0,91.0
159,50.700346125,50.87693325000001,63.0,84.0
160,49.271776125,51.486059625,46.0,61.0
161,48.79558612500001,51.52971037500001,39.0,91.0
162,51.176536125000005,51.728122875000004,55.0,73.0
163,51.65272612500001,51.80153550000001,58.0,94.0
164,51.65272612500001,51.81145612500001,63.0,90.0
165,52.605106125000006,53.162645250000004,62.0,87.0
166,52.605106125000006,53.176534125,58.0,83.0
167,53.08129612500001,53.517803625000006,53.0,81.0
168,53.557486125000004,53.690422500000004,58.0,92.0
169,53.557486125000004,53.7221685,62.0,87.0
170,54.50986612500001,54.64677075000001,62.0,85.0
171,54.50986612500001,54.65073900000001,58.0,92.0
172,54.986056125000005,55.16462737500001,53.0,62.0
173,55.46224612500001,55.620976125000006,53.0,90.0
174,55.46224612500001,55.632880875000005,58.0,92.0
175,52.605106125000006,55.676531625,46.0,92.0
176,55.46224612500001,55.70430937500001,62.0,90.0
177,56.414626125000005,57.069387375000005,63.0,86.0
178,56.414626125000005,57.111054,58.0,90.0
179,57.367006125,57.488037750000004,63.0,94.0
180,57.367006125,57.492006,58.0,91.0
181,57.843196125000006,58.04756100000001,55.0,82.0
182,58.31938612500001,58.45033837500001,63.0,90.0
183,58.31938612500001,58.45232250000001,58.0,85.0
184,59.271766125000006,59.38882950000001,58.0,92.0
185,56.414626125000005,59.39676600000001,39.0,90.0
186,56.89081612500001,59.418591375000005,46.0,71.0
187,59.271766125000006,59.424543750000005,63.0,91.0
188,60.224146125000004,60.446368125000006,57.0,81.0
189,60.224146125000004,60.80747887500001,60.0,84.0
190,60.224146125000004,60.83327250000001,65.0,85.0
191,60.70033612500001,61.21819275000001,57.0,81.0
192,61.17652612500001,61.33327200000001,60.0,86.0
193,61.17652612500001,61.33327200000001,65.0,90.0
194,61.652716125000005,61.82533500000001,57.0,70.0
195,62.12890612500001,62.26977900000001,60.0,85.0
196,62.12890612500001,62.285652000000006,57.0,84.0
197,62.12890612500001,62.315413875000004,65.0,84.0
198,63.081286125000005,63.25390500000001,57.0,89.0
199,60.224146125000004,63.56342850000001,41.0,90.0
200,63.081286125000005,63.636841125000004,60.0,93.0
201,63.081286125000005,63.92057100000001,65.0,90.0
202,63.55747612500001,63.94041225000001,57.0,95.0
203,64.03366612500001,64.51184025,62.0,88.0
204,64.03366612500001,64.523745,58.0,77.0
205,64.986046125,65.11699837500001,58.0,91.0
206,64.986046125,65.180490375,62.0,89.0
207,65.462236125,65.73406125000001,53.0,78.0
208,65.938426125,66.14477512500001,62.0,84.0
209,65.938426125,66.14874337500001,58.0,76.0
210,65.938426125,66.16263225,53.0,76.0
211,66.89080612500001,67.380885,58.0,91.0
212,66.89080612500001,67.775725875,62.0,88.0
213,64.03366612500001,67.779694125,46.0,91.0
214,67.36699612500001,67.952313,53.0,93.0
215,67.843186125,68.62294725000001,57.0,81.0
216,67.843186125,68.624931375,60.0,86.0
217,68.79556612500001,69.128899125,60.0,92.0
218,68.79556612500001,69.168581625,57.0,90.0
219,69.74794612500001,69.926517375,57.0,80.0
220,69.74794612500001,69.934453875,60.0,84.0
221,70.224136125,70.46421525000001,53.0,62.0
222,70.700326125,70.910643375,53.0,86.0
223,67.843186125,70.946357625,41.0,87.0
224,70.700326125,70.98802425000001,57.0,91.0
225,70.700326125,71.013817875,60.0,90.0
226,71.65270612500001,72.228102375,62.0,86.0
227,71.65270612500001,72.267784875,58.0,78.0
228,71.65270612500001,72.537625875,55.0,80.0
229,72.60508612500001,72.75389550000001,58.0,90.0
230,72.60508612500001,72.767784375,62.0,90.0
231,73.557466125,73.7538945,58.0,80.0
232,73.557466125,74.03960850000001,62.0,84.0
233,74.03365612500001,74.597147625,55.0,75.0
234,74.50984612500001,74.86103625000001,67.0,90.0
235,74.50984612500001,74.94436950000001,62.0,94.0
236,74.50984612500001,74.95230600000001,58.0,90.0
237,72.12889612500001,74.97214725,50.0,76.0
238,71.65270612500001,75.04159162500001,43.0,91.0
239,74.98603612500001,75.101115375,55.0,93.0
240,75.46222612500002,76.07333662500001,57.0,84.0
241,75.46222612500002,76.3253205,53.0,83.0
242,76.414606125,76.539606,57.0,84.0
243,76.414606125,76.54555837500001,60.0,90.0
244,77.36698612500001,77.482065375,57.0,82.0
245,77.36698612500001,77.509843125,60.0,86.0
246,78.319366125,78.63285787500001,57.0,93.0
247,75.938416125,78.71619112500001,48.0,75.0
248,75.46222612500002,78.759841875,41.0,90.0
249,78.319366125,78.79754025000001,60.0,92.0
250,78.795556125,78.91460362500001,53.0,92.0
251,79.271746125,80.00190412500001,58.0,83.0
252,79.271746125,80.20428487500001,55.0,88.0
253,80.22412612500001,80.382856125,63.0,86.0
254,80.22412612500001,80.38880850000001,58.0,86.0
255,81.176506125,81.35309325000001,58.0,91.0
256,81.176506125,81.35309325000001,63.0,84.0
257,79.74793612500001,81.962219625,46.0,61.0
258,79.271746125,82.00587037500001,39.0,91.0
259,81.652696125,82.204282875,55.0,73.0
260,82.12888612500001,82.27769550000001,58.0,94.0
261,82.12888612500001,82.28761612500001,63.0,90.0
262,83.08126612500001,83.63880525,62.0,87.0
263,83.08126612500001,83.65269412500001,58.0,83.0
264,83.55745612500002,83.993963625,53.0,81.0
265,84.033646125,84.1665825,58.0,92.0
266,84.033646125,84.1983285,62.0,87.0
267,84.98602612500001,85.12293075000001,62.0,85.0
268,84.98602612500001,85.12689900000001,58.0,92.0
269,85.46221612500001,85.640787375,53.0,62.0
270,85.93840612500001,86.097136125,53.0,90.0
271,85.93840612500001,86.109040875,58.0,92.0
272,83.08126612500001,86.152691625,46.0,92.0
273,85.93840612500001,86.18046937500002,62.0,90.0
274,86.890786125,87.54554737500001,63.0,86.0
275,86.890786125,87.587214,58.0,90.0
276,87.84316612500001,87.96419775000001,63.0,94.0
277,87.84316612500001,87.96816600000001,58.0,91.0
278,88.31935612500001,88.52372100000001,55.0,82.0
279,88.79554612500002,88.92649837500001,63.0,90.0
280,88.79554612500002,88.92848250000002,58.0,85.0
281,89.747926125,89.86498950000001,58.0,92.0
282,86.890786125,89.872926,39.0,90.0
283,87.36697612500001,89.89475137500001,46.0,71.0
284,89.747926125,89.90070375,63.0,91.0
285,90.69854073541669,90.91901296875001,57.0,81.0
286,90.69854073541669,91.27728034791669,60.0,84.0
287,90.69854073541669,91.30287087500001,65.0,85.0
288,91.17098123541669,91.68476027916668,57.0,81.0
289,91.64342173541668,91.79893340000001,60.0,86.0
290,91.64342173541668,91.79893340000001,65.0,90.0
291,92.11586223541669,92.28712191666668,57.0,70.0
292,92.58830273541669,92.72806638333336,60.0,85.0
293,92.58830273541669,92.74381440000002,57.0,84.0
294,92.58830273541669,92.77334193125002,65.0,84.0
295,93.53318373541669,93.70444341666668,57.0,89.0
296,90.69854073541669,94.01152974166668,41.0,90.0
297,93.53318373541669,94.08436431875002,60.0,93.0
298,93.53318373541669,94.36586011666668,65.0,90.0
299,94.00562423541669,94.38554513750002,57.0,95.0
300,94.47806473541668,94.66507243333335,53.0,84.0
301,94.47806473541668,95.05680434791668,62.0,89.0
302,94.47806473541668,95.07648936875002,58.0,91.0
303,94.95050523541668,95.24006631666668,53.0,83.0
304,95.42461939166668,95.60123470000002,53.0,92.0
305,94.47806473541668,95.68061236666668,46.0,94.0
306,95.42461939166668,95.89691650833335,58.0,97.0
307,95.42461939166668,95.99216970833335,62.0,91.0
308,95.90088539166669,96.01399856666669,53.0,91.0
309,96.37715139166669,96.57559555833335,57.0,86.0
310,96.37715139166669,97.02606381666668,65.0,90.0
311,96.37715139166669,97.10544148333335,60.0,86.0
312,96.85341739166668,97.21260133333335,57.0,82.0
313,97.32968339166669,97.54995641666669,57.0,92.0
314,96.37715139166669,97.76626055833336,45.0,94.0
315,97.32968339166669,97.80198050833334,60.0,97.0
316,97.32968339166669,97.88731150000002,65.0,91.0
317,97.80594939166669,98.03217574166669,57.0,95.0
318,98.28221539166668,98.73466809166669,58.0,90.0
319,98.28221539166668,98.75252806666668,62.0,90.0
320,98.28221539166668,98.83587461666669,55.0,87.0
321,98.75848139166668,99.32404726666668,50.0,62.0
322,99.23474739166669,99.67727788333335,58.0,97.0
323,98.28221539166668,99.69315341666669,43.0,91.0
324,99.23474739166669,99.71696671666669,62.0,95.0
325,99.94914639166669,100.06424400833335,55.0,95.0
326,99.71101339166668,100.08805730833335,50.0,86.0
327,100.18727939166668,100.62782544166669,57.0,86.0
328,100.18727939166668,100.66354539166669,53.0,90.0
329,100.90167839166668,101.01479156666669,53.0,90.0
330,100.66354539166669,101.31841114166669,48.0,76.0
331,101.13981139166668,101.32436446666668,53.0,91.0
332,101.13981139166668,101.33627111666668,57.0,104.0
333,101.13981139166668,101.40175769166669,60.0,97.0
334,100.18727939166668,101.69942394166668,41.0,91.0
335,101.61607739166668,101.74705054166668,48.0,90.0
336,102.09234339166669,102.45748065833335,63.0,91.0
337,102.09234339166669,102.63608040833336,58.0,87.0
338,102.56860939166668,103.09845531666669,46.0,70.0
339,102.09234339166669,103.27110174166668,39.0,95.0
340,103.28300839166668,103.41795042500002,46.0,90.0
341,103.04487539166668,103.49931253333335,63.0,97.0
342,103.04487539166668,103.54693913333335,58.0,96.0
343,103.52114139166669,103.68188116666668,55.0,95.0
344,103.99740739166668,104.24943148333335,57.0,82.0
345,103.99740739166668,104.53122220000002,62.0,86.0
346,104.47367339166668,104.82293512500001,57.0,87.0
347,103.99740739166668,105.13250802500002,50.0,95.0
348,104.94993939166669,105.13250802500002,57.0,92.0
349,104.94993939166669,105.20791680833335,62.0,97.0
350,104.94993939166669,105.37659435000002,65.0,97.0
351,105.90247139166668,106.41048845833335,58.0,83.0
352,105.90247139166668,106.41445734166669,63.0,84.0
353,106.37873739166669,106.69624805833335,55.0,91.0
354,105.90247139166668,106.99986763333335,39.0,91.0
355,106.85500339166668,107.04352535000001,55.0,94.0
356,106.85500339166668,107.35309825000002,58.0,97.0
357,106.85500339166668,107.37889599166668,63.0,93.0
358,107.33126939166668,107.43247591666669,55.0,94.0
359,107.80753539166669,108.03773062500002,53.0,90.0
360,107.80753539166669,108.09131055000002,57.0,88.0
361,108.28380139166669,108.31952134166669,57.0,70.0
362,108.28380139166669,108.60726538333336,60.0,90.0
363,108.04566839166668,108.81761620000002,48.0,78.0
364,108.76006739166668,109.01606036666668,53.0,93.0
365,108.76006739166668,109.02002925000002,60.0,96.0
366,108.76006739166668,109.03590478333335,57.0,96.0
367,108.76006739166668,109.05574920000002,65.0,93.0
368,107.80753539166669,109.19267567500002,41.0,92.0
369,108.99820039166669,109.29189775833335,48.0,95.0
370,109.23633339166669,109.39905760833335,53.0,96.0
371,109.71259939166669,110.27022750000002,62.0,91.0
372,109.71259939166669,110.29205635833335,58.0,91.0
373,110.18886539166668,110.49050052500002,53.0,83.0
374,110.66513139166669,110.85563779166668,53.0,90.0
375,110.66513139166669,111.14139739166669,58.0,97.0
376,110.66513139166669,111.21482173333335,62.0,91.0
377,109.71259939166669,111.27633942500002,46.0,96.0
378,111.14139739166669,111.27633942500002,53.0,96.0
379,111.61766339166668,111.85182750833334,57.0,85.0
380,111.61766339166668,112.23482475000002,60.0,88.0
381,112.09392939166668,112.44517556666668,57.0,83.0
382,112.57019539166669,112.78451509166669,57.0,91.0
383,111.61766339166668,113.01867920833335,45.0,91.0
384,112.57019539166669,113.05241471666669,60.0,96.0
385,112.57019539166669,113.09805687500003,65.0,90.0
386,113.04646139166668,113.17148121666668,57.0,87.0
387,113.52272739166668,114.03868222500002,62.0,86.0
388,113.52272739166668,114.06051108333335,58.0,86.0
389,113.52272739166668,114.06646440833336,55.0,86.0
390,113.99899339166669,114.56257482500001,50.0,80.0
391,114.47525939166668,114.71736127500002,55.0,91.0
392,114.47525939166668,114.72133015833336,58.0,95.0
393,114.47525939166668,114.72331460000002,62.0,92.0
394,113.52272739166668,115.24125387500001,43.0,89.0
395,114.71339239166669,115.29483380000002,50.0,82.0
396,114.95152539166668,115.38611811666668,58.0,97.0
397,115.42779139166669,115.96755952500001,57.0,90.0
398,115.42779139166669,116.05487495833336,53.0,83.0
399,115.90405739166668,116.45573217500002,48.0,83.0
400,116.38032339166668,116.55892314166668,53.0,91.0
401,116.38032339166668,116.56487646666669,60.0,91.0
402,115.42779139166669,116.84468274166669,41.0,91.0
403,116.61845639166668,116.87246492500002,48.0,83.0
404,116.85658939166669,117.13441122500002,58.0,92.0
405,117.09472239166669,117.28522879166668,57.0,90.0
406,117.33285539166668,117.78133920833335,58.0,92.0
407,117.33285539166668,118.08098990000002,55.0,86.0
408,117.33285539166668,118.33301399166669,39.0,94.0
409,117.80912139166668,118.35682729166669,46.0,79.0
410,118.28538739166669,118.73982453333335,58.0,93.0
411,118.28538739166669,118.79142001666668,63.0,97.0
412,118.76165339166668,118.85095326666669,55.0,90.0
413,119.23791939166668,119.83920521666668,62.0,89.0
414,119.23791939166668,119.84118965833335,65.0,89.0
415,119.71418539166669,119.96620948333336,57.0,84.0
416,119.23791939166668,120.30554900833334,50.0,97.0
417,120.19045139166668,120.33134675000002,57.0,92.0
418,120.19045139166668,120.44445992500002,62.0,97.0
419,120.19045139166668,120.68259292500002,65.0,92.0
420,121.14298339166669,121.34539644166668,55.0,86.0
421,121.14298339166669,121.64703157500001,63.0,84.0
422,121.14298339166669,121.65695378333335,58.0,83.0
423,121.61924939166668,122.14512643333336,55.0,86.0
424,121.14298339166669,122.20664412500003,39.0,97.0
425,122.09551539166668,122.48248151666668,58.0,99.0
426,122.09551539166668,122.61147022500002,63.0,96.0
427,122.57178139166669,122.71466119166669,55.0,97.0
428,123.04804739166669,123.62353547500001,57.0,85.0
429,123.04804739166669,123.80610410833336,53.0,86.0
430,124.00057939166669,124.06209708333336,53.0,81.0
431,124.00057939166669,124.48875204166669,65.0,89.0
432,123.04804739166669,124.49867425000002,41.0,91.0
433,123.52431339166668,124.50661201666668,48.0,83.0
434,124.00057939166669,124.53240975833336,57.0,93.0
435,124.00057939166669,124.58202080000002,60.0,90.0
436,124.47684539166669,124.84793598333334,53.0,96.0
437,124.95311139166668,125.50280173333336,62.0,90.0
438,124.95311139166668,125.54050612500002,58.0,85.0
439,125.42937739166669,125.80642130833336,53.0,90.0
440,125.90564339166669,126.02669433333335,58.0,90.0
441,125.90564339166669,126.02867877500002,62.0,85.0
442,126.38190939166668,126.53471140000002,53.0,79.0
443,126.86110050000002,127.01973496875002,62.0,81.0
444,126.86110050000002,127.03981528125001,58.0,83.0
445,124.95311139166668,128.24865009375,46.0,91.0
446,127.82495550000002,128.68439287500001,58.0,97.0
447,128.30688300000003,128.6964410625,53.0,99.0
448,127.82495550000002,128.71852940625,62.0,92.0
449,129.27073800000002,129.7084888125,53.0,92.0
450,129.7526655,129.91129996875003,62.0,92.0
451,129.99362925000003,130.15025568750002,58.0,78.0
452,128.7888105,130.57657455833333,46.0,99.0
453,130.47536803333335,131.24731584166668,58.0,84.0
454,131.42790003333334,131.51719990833334,53.0,83.0
455,131.18976703333334,131.73747293333335,46.0,56.0
456,131.66603303333335,131.90019715,53.0,92.0
457,131.66603303333335,131.95179263333335,58.0,92.0
458,131.90416603333335,131.96369928333334,46.0,71.0
459,131.66603303333335,131.97362149166668,62.0,89.0
460,132.14229903333333,132.31692990000002,53.0,92.0
461,132.61856503333334,133.0313289,57.0,79.0
462,132.61856503333334,133.09284659166667,53.0,80.0
463,133.33296403333335,133.51156378333334,60.0,83.0
464,133.57109703333333,133.76954120000002,65.0,96.0
465,133.80923003333334,133.97592313333334,60.0,90.0
466,133.09483103333335,134.299387125,48.0,64.0
467,132.61856503333334,134.39067144166668,41.0,90.0
468,134.28549603333335,135.05545940000002,60.0,88.0
469,134.99989503333333,135.35709453333334,48.0,79.0
470,135.23802803333334,135.52974095833335,53.0,92.0
471,135.47616103333334,135.740091775,48.0,84.0
472,135.71429403333335,135.89884710833334,53.0,92.0
473,135.71429403333335,136.0337891416667,57.0,92.0
474,136.42869303333333,136.9843367,58.0,85.0
475,136.42869303333333,137.0399010666667,55.0,90.0
476,136.90495903333334,137.240329675,50.0,62.0
477,137.14309203333335,137.311769575,62.0,92.0
478,137.61935803333336,137.7662067166667,58.0,83.0
479,137.85749103333333,138.03212190000002,50.0,62.0
480,136.42869303333333,138.07776405833334,43.0,90.0
481,138.09562403333334,138.17698614166667,55.0,79.0
482,138.33375703333334,138.81399191666668,55.0,80.0
483,138.33375703333334,138.83780521666668,58.0,76.0
484,138.33375703333334,138.8417741,62.0,84.0
485,139.04815603333336,139.169206975,55.0,75.0
486,138.81002303333335,139.3378845166667,50.0,64.0
487,139.28628903333333,139.50854650000002,67.0,85.0
488,139.28628903333333,139.53037535833334,58.0,92.0
489,139.28628903333333,139.53037535833334,62.0,94.0
490,139.28628903333333,139.562126425,55.0,86.0
491,138.33375703333334,139.62165967500002,43.0,90.0
492,139.52442203333334,139.74271061666667,50.0,80.0
493,139.76255503333334,139.9848125,43.0,90.0
494,140.23882103333335,140.72302480000002,57.0,79.0
495,140.23882103333335,140.85796683333334,60.0,83.0
496,140.95322003333334,141.02664437500002,60.0,79.0
497,140.95322003333334,141.17944638333336,65.0,91.0
498,141.42948603333335,141.57236583333335,60.0,93.0
499,140.71508703333333,141.78073220833335,48.0,69.0
500,140.23882103333335,141.88193873333336,41.0,90.0
501,141.90575203333336,141.97520749166668,57.0,68.0
502,142.14388503333333,142.70349758333333,57.0,83.0
503,142.14388503333333,142.76699971666667,60.0,85.0
504,142.85828403333335,142.961475,57.0,78.0
505,142.62015103333334,143.10237035833333,48.0,65.0
506,143.09641703333335,143.34645668333334,60.0,94.0
507,143.09641703333335,143.3623322166667,65.0,90.0
508,143.09641703333335,143.37423886666667,57.0,91.0
509,143.33455003333336,143.6004652166667,48.0,84.0
510,142.14388503333333,143.634200725,41.0,90.0
511,144.04894903333334,144.40217965000002,58.0,90.0
512,144.52521503333335,144.62443711666668,51.0,89.0
513,144.76334803333333,144.9340100166667,58.0,86.0
514,144.76334803333333,144.94790110833335,51.0,92.0
515,145.23961403333334,145.4142449,55.0,89.0
516,145.23961403333334,145.47774703333334,58.0,86.0
517,144.04894903333334,145.82899320833334,39.0,94.0
518,144.28708203333335,145.95798191666668,46.0,73.0
519,145.95401303333335,146.7378674916667,51.0,86.0
520,145.95401303333335,146.82716736666669,63.0,85.0
521,146.66841203333334,147.04545595000002,46.0,79.0
522,145.95401303333335,147.063315925,39.0,79.0
523,146.90654503333334,147.11491140833334,51.0,91.0
524,146.90654503333334,147.16253800833334,55.0,86.0
525,146.90654503333334,147.19230463333335,58.0,86.0
526,146.90654503333334,147.25779120833334,63.0,81.0
527,147.85907703333334,148.15475884166668,58.0,82.0
528,147.85907703333334,148.2242143,62.0,90.0
529,148.57347603333335,148.88701781666668,58.0,95.0
530,149.04974203333336,149.182699625,58.0,80.0
531,149.04974203333336,149.19063739166668,62.0,83.0
532,149.04974203333336,149.21643513333333,65.0,85.0
533,149.52600803333334,149.65102785833335,58.0,73.0
534,147.85907703333334,149.65698118333336,46.0,91.0
535,148.33534303333334,149.6609500666667,53.0,68.0
536,149.76414103333335,150.58569988333335,58.0,82.0
537,149.76414103333335,150.76628407500002,62.0,86.0
538,150.71667303333334,151.09173250833334,58.0,84.0
539,150.47854003333333,151.21278345000002,53.0,79.0
540,149.76414103333335,151.2723167,46.0,90.0
541,150.95480603333334,151.28223890833334,62.0,90.0
542,151.66920503333336,152.14547103333334,55.0,88.0
543,151.66920503333336,152.21691093333334,58.0,83.0
544,152.38360403333334,152.5185460666667,63.0,95.0
545,152.85987003333335,153.07418973333336,58.0,90.0
546,151.66920503333336,153.45321809166668,39.0,89.0
547,152.14547103333334,153.49687580833336,46.0,76.0
548,153.33613603333333,153.611973425,63.0,88.0
549,153.57426903333334,154.3224035416667,67.0,92.0
550,154.05053503333335,154.65578974166667,46.0,77.0
551,153.57426903333334,154.66769639166668,39.0,94.0
552,154.28866803333335,154.84629614166667,58.0,90.0
553,154.76493403333333,155.0487091916667,55.0,94.0
554,155.00306703333334,155.09236690833333,58.0,91.0
555,155.47835403333335,156.2332942666667,53.0,90.0
556,155.47835403333335,156.23527055,57.0,90.0
557,156.18981603333333,156.4664957,60.0,92.0
558,156.66412403333334,156.9210408666667,65.0,96.0
559,156.90127803333334,157.04357043333334,53.0,90.0
560,155.95266203333335,157.13843203333334,48.0,81.0
561,155.47835403333335,157.16214743333333,41.0,91.0
562,157.37558603333335,157.7352696,53.0,90.0
563,157.37558603333335,157.77479526666667,57.0,92.0
564,157.37558603333335,157.90522996666667,60.0,92.0
565,157.37558603333335,158.09890573333334,41.0,94.0
566,157.84989403333333,158.1384314,53.0,91.0
567,158.32420203333334,158.53566435000002,53.0,88.0
568,158.32420203333334,159.07123713333334,41.0,92.0
569,158.32420203333334,159.0751897,48.0,91.0
570,158.79851003333334,159.16807501666668,53.0,95.0
571,158.32420203333334,159.17400386666668,57.0,91.0
572,158.32420203333334,159.18190900000002,60.0,91.0
573,158.32420203333334,159.18981413333333,65.0,88.0
574,159.27281803333335,159.54159256666668,53.0,85.0
575,159.27281803333335,159.7510786,58.0,88.0
576,159.74712603333333,159.82617736666668,53.0,61.0
577,159.98428003333333,160.23131545,53.0,92.0
578,159.98428003333333,160.23131545,58.0,94.0
579,159.98428003333333,160.27479368333334,62.0,91.0
580,160.45858803333334,160.60088043333334,58.0,104.0
581,159.27281803333335,160.69178946666668,46.0,97.0
582,160.69574203333335,160.81036646666666,53.0,91.0
583,160.93289603333335,161.04949675,58.0,91.0
584,161.17005003333335,161.40127518333335,53.0,90.0
585,161.17005003333335,161.54159130000002,57.0,91.0
586,161.64435803333333,161.77479273333336,53.0,84.0
587,161.40720403333333,162.03763841666668,48.0,81.0
588,161.88151203333334,162.16412055,60.0,89.0
589,161.88151203333334,162.2174802,53.0,86.0
590,162.11866603333334,162.48823101666667,48.0,80.0
591,162.35582003333334,162.52973296666667,53.0,92.0
592,162.35582003333334,162.5376381,57.0,90.0
593,161.17005003333335,162.59890288333335,41.0,90.0
594,163.06728203333336,163.55937658333335,58.0,86.0
595,163.06728203333336,163.58309198333333,62.0,90.0
596,163.06728203333336,163.59692596666667,55.0,84.0
597,163.77874403333334,163.99218263333336,67.0,93.0
598,163.77874403333334,164.05937626666667,55.0,84.0
599,164.25305203333335,164.3281508,55.0,86.0
600,163.54159003333334,164.54158940000002,50.0,74.0
601,164.25305203333335,164.78467225,62.0,94.0
602,163.06728203333336,164.7906011,43.0,92.0
603,164.25305203333335,164.7906011,58.0,92.0
604,164.72736003333335,164.83605561666667,55.0,90.0
605,164.96451403333333,165.21154945,53.0,90.0
606,164.96451403333333,165.30838733333334,57.0,90.0
607,165.43882203333334,165.5376362,53.0,85.0
608,165.67597603333334,165.91708260000001,57.0,92.0
609,165.67597603333334,165.94672685,53.0,91.0
610,165.67597603333334,165.95463198333334,60.0,92.0
611,165.20166803333333,166.24712191666669,48.0,81.0
612,164.96451403333333,166.27676616666668,41.0,90.0
613,166.15028403333335,166.32419696666668,53.0,94.0
614,166.15028403333335,166.42498741666668,65.0,91.0
615,166.86174603333333,167.35186430000002,55.0,86.0
616,166.86174603333333,167.43882076666668,58.0,83.0
617,167.57320803333334,167.72538185000002,63.0,96.0
618,166.86174603333333,168.13249621666668,39.0,96.0
619,167.33605403333334,168.15621161666667,46.0,73.0
620,168.04751603333335,168.3004803,58.0,106.0
621,168.28467003333333,168.40917588333335,55.0,91.0
622,168.75897803333334,168.93881981666667,57.0,91.0
623,168.75897803333334,169.27478798333334,65.0,90.0
624,168.99613203333334,169.29059825000002,57.0,89.0
625,169.23328603333334,169.35976816666667,62.0,86.0
626,169.47044003333335,169.8103607666667,65.0,97.0
627,169.47044003333335,169.8182659,57.0,93.0
628,169.47044003333335,169.82221846666667,62.0,96.0
629,168.75897803333334,170.02182308333335,50.0,93.0
630,169.94474803333335,170.07913530000002,62.0,91.0
631,169.94474803333335,170.1028507,57.0,91.0
632,170.65621003333334,170.95942985000002,63.0,90.0
633,170.65621003333334,171.01697865833333,58.0,92.0
634,171.132076275,171.24717389166668,55.0,90.0
635,171.370209275,171.679782175,58.0,93.0
636,171.370209275,171.71947100833333,63.0,92.0
637,170.65621003333334,171.91791517500002,39.0,91.0
638,170.893943275,171.94966624166668,46.0,85.0
639,171.84647527500002,172.08063939166667,58.0,97.0
640,172.084608275,172.27908355833335,55.0,87.0
641,172.560874275,172.775193975,43.0,77.0
642,172.560874275,172.84464943333333,53.0,86.0
643,172.560874275,173.07087578333335,57.0,84.0
644,173.037140275,173.1760511916667,60.0,91.0
645,173.27527327500002,173.489592975,57.0,81.0
646,173.27527327500002,173.537219575,60.0,87.0
647,173.27527327500002,173.57095508333333,53.0,89.0
648,173.27527327500002,173.57095508333333,65.0,94.0
649,173.751539275,173.86862133333335,53.0,89.0
650,173.751539275,174.05912773333333,57.0,95.0
651,172.799007275,174.108738775,48.0,81.0
652,173.989672275,174.14842760833335,53.0,87.0
653,172.560874275,174.168272025,41.0,88.0
654,173.751539275,174.18414755833334,60.0,94.0
655,174.465938275,174.75566675833335,53.0,90.0
656,174.465938275,175.08309963333335,58.0,91.0
657,174.942204275,175.12477290833334,53.0,74.0
658,175.180337275,175.47800352500002,62.0,92.0
659,175.656603275,175.906642925,58.0,99.0
660,175.894736275,176.06936714166667,53.0,91.0
661,176.13286927500002,176.311469025,58.0,95.0
662,174.465938275,176.31543790833334,46.0,95.0
663,176.371002275,176.60318195000002,53.0,90.0
664,176.371002275,176.847268275,57.0,91.0
665,176.847268275,176.95641256666667,53.0,88.0
666,177.085401275,177.37909864166667,53.0,91.0
667,177.085401275,177.38703640833333,60.0,95.0
668,177.56166727500002,177.70057819166666,57.0,92.0
669,177.56166727500002,177.70256263333334,53.0,92.0
670,176.371002275,177.87322461666668,41.0,91.0
671,176.609135275,177.95260228333333,48.0,77.0
672,178.276066275,178.50030818333335,55.0,87.0
673,178.276066275,178.61739024166667,58.0,95.0
674,178.75233227500001,178.85750768333335,55.0,82.0
675,178.99046527500002,179.55007782500002,55.0,91.0
676,178.99046527500002,179.55404670833335,58.0,96.0
677,178.514199275,179.978717225,50.0,83.0
678,178.276066275,179.99856164166667,43.0,91.0
679,179.942997275,180.121597025,55.0,90.0
680,179.704864275,180.2585235,62.0,93.0
681,180.18113027500002,180.4014033,53.0,90.0
682,180.18113027500002,180.61770744166668,57.0,92.0
683,180.657396275,180.788369425,53.0,94.0
684,180.895529275,181.21303994166666,60.0,91.0
685,180.895529275,181.23486880000002,53.0,89.0
686,180.895529275,181.24677545,57.0,91.0
687,181.371795275,181.53451949166669,53.0,92.0
688,181.371795275,181.54642614166667,57.0,91.0
689,180.41926327500002,181.65358599166666,48.0,82.0
690,180.18113027500002,181.66549264166667,41.0,91.0
691,182.086194275,182.32829615833333,55.0,88.0
692,182.086194275,182.586273575,58.0,82.0
693,182.562460275,182.68748010000002,55.0,82.0
694,182.800593275,183.13596391666667,63.0,92.0
695,182.800593275,183.13794835833335,58.0,94.0
696,182.086194275,183.3542525,39.0,86.0
697,182.324327275,183.407832425,46.0,79.0
698,183.276859275,183.64199654166669,63.0,96.0
699,183.276859275,183.65588763333335,58.0,95.0
700,183.991258275,184.30480005833334,58.0,92.0
701,183.991258275,184.336551125,62.0,92.0
702,184.229391275,184.52904196666668,53.0,85.0
703,184.46752427500002,184.57865300833333,58.0,75.0
704,184.70565727500002,185.11246781666668,62.0,91.0
705,184.70565727500002,185.1878766,53.0,91.0
706,184.70565727500002,185.2355032,58.0,96.0
707,183.991258275,185.57087384166667,46.0,92.0
708,185.420056275,185.70184699166668,58.0,101.0
709,185.658189275,185.753442475,53.0,90.0
710,185.89632227500002,186.42815264166668,58.0,82.0
711,185.89632227500002,186.444028175,63.0,87.0
712,186.372588275,186.70200559166668,55.0,88.0
713,186.610721275,186.944107475,58.0,94.0
714,186.610721275,186.956014125,63.0,97.0
715,186.134455275,187.17430270833333,46.0,80.0
716,185.89632227500002,187.18422491666666,39.0,83.0
717,187.086987275,187.41045126666668,63.0,91.0
718,187.086987275,187.42037347500002,58.0,90.0
719,187.32512027500002,187.54936218333333,55.0,91.0
720,187.801386275,188.07325478333334,58.0,76.0
721,187.801386275,188.07325478333334,61.0,83.0
722,187.801386275,188.11294361666668,54.0,84.0
723,187.801386275,188.11294361666668,66.0,85.0
724,187.801386275,188.15461689166668,42.0,90.0
725,187.801386275,188.15461689166668,49.0,86.0
726,188.277652275,188.63683621666667,58.0,74.0
727,188.277652275,188.64278954166667,61.0,74.0
728,188.277652275,188.65668063333334,66.0,82.0
729,188.277652275,188.66263395833334,42.0,91.0
730,188.277652275,188.66263395833334,54.0,79.0
731,188.277652275,188.6646184,49.0,86.0
732,188.75391827500002,189.59532154166666,58.0,91.0
733,188.75391827500002,189.59730598333334,54.0,94.0
734,188.75391827500002,189.6171504,61.0,91.0
735,188.75391827500002,189.635010375,49.0,95.0
736,188.75391827500002,189.64294814166666,42.0,101.0
737,188.75391827500002,189.658823675,66.0,91.0
738,189.706450275,189.97633434166667,54.0,85.0
739,189.706450275,190.18668515833335,59.0,88.0
740,190.18271627500002,190.26209394166668,54.0,61.0
741,190.42084927500002,190.66890448333334,54.0,92.0
742,190.42084927500002,190.66890448333334,59.0,94.0
743,190.42084927500002,190.7125622,63.0,91.0
744,190.897115275,191.039995075,59.0,104.0
745,189.706450275,191.13127939166668,47.0,97.0
746,191.135248275,191.25034589166668,54.0,91.0
747,191.373381275,191.49046333333334,59.0,91.0
748,191.61151427500002,191.84369395000002,54.0,90.0
749,191.61151427500002,191.98458930833334,58.0,91.0
750,192.087780275,192.21875342500002,54.0,84.0
751,191.849647275,192.48268416666667,49.0,81.0
752,192.325913275,192.60968843333333,61.0,89.0
753,192.325913275,192.66326835833334,54.0,86.0
754,192.564046275,192.93513686666668,49.0,80.0
755,192.80217927500001,192.97681014166668,54.0,92.0
756,192.80217927500001,192.98474790833333,58.0,90.0
757,191.61151427500002,193.0462656,42.0,90.0
758,193.516578275,194.01070425,59.0,86.0
759,193.516578275,194.03451755,63.0,90.0
760,193.516578275,194.04840864166667,56.0,84.0
761,194.23097727500001,194.44529697500002,68.0,93.0
762,194.23097727500001,194.51276799166666,56.0,84.0
763,194.707243275,194.78265205833333,56.0,86.0
764,193.992844275,194.99697175833333,51.0,74.0
765,194.707243275,195.24105808333334,63.0,94.0
766,193.516578275,195.24701140833335,44.0,92.0
767,194.707243275,195.24701140833335,59.0,92.0
768,195.183509275,195.29265356666667,56.0,90.0
769,195.421642275,195.66969748333335,54.0,90.0
770,195.421642275,195.766935125,58.0,90.0
771,195.89790827500002,195.99713035833335,54.0,85.0
772,196.136041275,196.37814315833333,58.0,92.0
773,196.136041275,196.40790978333334,54.0,91.0
774,196.136041275,196.41584755000002,61.0,92.0
775,195.65977527500002,196.7095449166667,49.0,81.0
776,195.421642275,196.73931154166667,42.0,90.0
777,196.612307275,196.78693814166667,54.0,94.0
778,196.612307275,196.88814466666668,66.0,91.0
779,197.326706275,197.81884780833335,56.0,86.0
780,197.326706275,197.90616324166666,59.0,83.0
781,198.041105275,198.19390728333335,64.0,96.0
782,197.326706275,198.60270226666668,40.0,96.0
783,197.802972275,198.62651556666668,47.0,73.0
784,198.51737127500002,198.77137980833334,59.0,106.0
785,198.75550427500002,198.8805241,56.0,91.0
786,199.231770275,199.41235446666667,58.0,91.0
787,199.231770275,199.74970955,66.0,90.0
788,199.469903275,199.76558508333335,58.0,89.0
789,199.708036275,199.83504054166667,63.0,86.0
790,199.94616927500002,200.28749324166668,66.0,97.0
791,199.94616927500002,200.29543100833334,58.0,93.0
792,199.94616927500002,200.29939989166667,63.0,96.0
793,199.231770275,200.4998285,51.0,93.0
794,200.422435275,200.55737730833334,63.0,91.0
795,200.422435275,200.58119060833334,58.0,91.0
796,201.136834275,201.44045385,64.0,90.0
797,201.136834275,201.49800265833335,59.0,92.0
798,201.61310027500002,201.72819789166667,56.0,90.0
799,201.851233275,202.160806175,59.0,93.0
800,201.851233275,202.20049500833335,64.0,92.0
801,201.136834275,202.398939175,40.0,91.0
802,201.37496727500002,202.43069024166667,47.0,85.0
803,202.327499275,202.56166339166668,59.0,97.0
804,202.565632275,202.76010755833335,56.0,87.0
805,203.041898275,203.256217975,44.0,77.0
806,203.041898275,203.32567343333335,54.0,86.0
807,203.041898275,203.55189978333334,58.0,84.0
808,203.518164275,203.65707519166668,61.0,91.0
809,203.756297275,203.970616975,58.0,81.0
810,203.756297275,204.018243575,61.0,87.0
811,203.756297275,204.05197908333335,54.0,89.0
812,203.756297275,204.05197908333335,66.0,94.0
813,204.23256327500002,204.34964533333334,54.0,89.0
814,204.23256327500002,204.54015173333335,58.0,95.0
815,203.280031275,204.589762775,49.0,81.0
816,204.47069627500002,204.62945160833334,54.0,87.0
817,203.041898275,204.649296025,42.0,88.0
818,204.23256327500002,204.66517155833333,61.0,94.0
819,204.946962275,205.23669075833334,54.0,90.0
820,204.946962275,205.56412363333334,59.0,91.0
821,205.423228275,205.60579690833333,54.0,74.0
822,205.66136127500002,205.959027525,63.0,92.0
823,206.137627275,206.38766692500002,59.0,99.0
824,206.375760275,206.55039114166667,54.0,91.0
825,206.613893275,206.792493025,59.0,95.0
826,204.946962275,206.79646190833336,47.0,95.0
827,206.85202627500001,207.08420595,54.0,90.0
828,206.85202627500001,207.32829227500002,58.0,91.0
829,207.32829227500002,207.4374365666667,54.0,88.0
830,207.566425275,207.8601226416667,54.0,91.0
831,207.566425275,207.86806040833335,61.0,95.0
832,208.042691275,208.18160219166668,58.0,92.0
833,208.042691275,208.18358663333333,54.0,92.0
834,206.85202627500001,208.35424861666667,42.0,91.0
835,207.09015927500002,208.43362628333335,49.0,77.0
836,208.757090275,208.98133218333334,56.0,87.0
837,208.757090275,209.09841424166666,59.0,95.0
838,209.233356275,209.33853168333334,56.0,82.0
839,209.471489275,210.031101825,56.0,91.0
840,209.471489275,210.03507070833334,59.0,96.0
841,208.995223275,210.45974122500002,51.0,83.0
842,208.757090275,210.4795856416667,44.0,91.0
843,210.424021275,210.60262102500002,56.0,90.0
844,210.18588827500002,210.73954750000001,63.0,93.0
845,210.662154275,210.88242730000002,54.0,90.0
846,210.662154275,211.09873144166667,58.0,92.0
847,211.13842027500002,211.269393425,54.0,94.0
848,211.376553275,211.69406394166668,61.0,91.0
849,211.376553275,211.7158928,54.0,89.0
850,211.376553275,211.72779945000002,58.0,91.0
851,211.852819275,212.01554349166668,54.0,92.0
852,211.852819275,212.0274501416667,58.0,91.0
853,210.900287275,212.13460999166668,49.0,82.0
854,210.662154275,212.14651664166666,42.0,91.0
855,212.56721827500002,212.80932015833335,56.0,88.0
856,212.56721827500002,213.067297575,59.0,82.0
857,213.04348427500003,213.1685041,56.0,82.0
858,213.281617275,213.6169879166667,64.0,92.0
859,213.281617275,213.61897235833334,59.0,94.0
860,212.56721827500002,213.83527650000002,40.0,86.0
861,212.80535127500002,213.888856425,47.0,79.0
862,213.757883275,214.12302054166668,64.0,96.0
863,213.757883275,214.13691163333334,59.0,95.0
864,214.472282275,214.78582405833333,59.0,92.0
865,214.472282275,214.81757512500002,63.0,92.0
866,214.710415275,215.01006596666667,54.0,85.0
867,214.948548275,215.05967700833335,59.0,75.0
868,215.186681275,215.59349181666667,63.0,91.0
869,215.186681275,215.6689006,54.0,91.0
870,215.186681275,215.7165272,59.0,96.0
871,214.472282275,216.0518978416667,47.0,92.0
872,215.901080275,216.18287099166668,59.0,101.0
873,216.139213275,216.234466475,54.0,90.0
874,216.377346275,216.90917664166668,59.0,82.0
875,216.377346275,216.92505217500002,64.0,87.0
876,216.85361227500002,217.18302959166667,56.0,88.0
877,217.091745275,217.425131475,59.0,94.0
878,217.091745275,217.43703812500002,64.0,97.0
879,216.615479275,217.65532670833335,47.0,80.0
880,216.377346275,217.66524891666668,40.0,83.0
881,217.568011275,217.89147526666667,64.0,91.0
882,217.568011275,217.901397475,59.0,90.0
883,217.806144275,218.03038618333335,56.0,91.0
884,218.28241027500002,218.56420099166667,54.0,86.0
885,218.28241027500002,218.82813173333335,66.0,85.0
886,218.996809275,219.32821103333333,61.0,84.0
887,218.996809275,219.34011768333335,58.0,82.0
888,218.758676275,219.34408656666668,54.0,91.0
889,218.28241027500002,219.496888575,42.0,94.0
890,218.52054327500002,219.532608525,49.0,80.0
891,219.473075275,219.70327050833333,54.0,92.0
892,219.473075275,219.70525495,58.0,76.0
893,219.473075275,219.84615030833334,66.0,88.0
894,220.187474275,220.520860475,59.0,85.0
895,220.187474275,220.74907126666668,63.0,80.0
896,220.425607275,221.20350840833333,54.0,83.0
897,220.663740275,221.3602793,59.0,93.0
898,220.187474275,221.45156361666668,66.0,81.0
899,221.37813927500002,221.5825367666667,54.0,76.0
900,220.901873275,221.64405445833336,63.0,101.0
901,220.187474275,221.65992999166667,47.0,92.0
902,221.616272275,222.104444925,59.0,91.0
903,221.854405275,222.16199373333333,63.0,93.0
904,222.56880427500002,223.2673277416667,54.0,84.0
905,222.092538275,223.38639424166666,42.0,93.0
906,222.806937275,223.39234756666667,58.0,83.0
907,222.33067127500001,223.43005195833334,49.0,78.0
908,223.521336275,223.84678470833336,54.0,92.0
909,223.75946927500001,223.91624016666668,58.0,68.0
910,223.283203275,224.08690215000001,66.0,91.0
911,224.712001275,225.0513408,59.0,86.0
912,224.473868275,225.05530968333335,56.0,76.0
913,225.18826727500002,225.31527154166668,56.0,85.0
914,223.99760227500002,225.33908484166668,44.0,93.0
915,224.23573527500002,225.34900705,51.0,77.0
916,225.18826727500002,225.45815134166668,59.0,90.0
917,225.18826727500002,225.485933525,63.0,85.0
918,225.902666275,226.14873704166666,54.0,83.0
919,225.902666275,226.70239626666668,58.0,86.0
920,226.378932275,226.73414733333334,54.0,84.0
921,226.61706527500002,226.89885599166666,61.0,79.0
922,225.902666275,227.10325348333333,42.0,90.0
923,226.140799275,227.13897343333335,49.0,76.0
924,227.09333127500003,227.4326708,61.0,90.0
925,227.331464275,227.76605700000002,58.0,82.0
926,226.85519827500002,227.81169915833334,66.0,93.0
927,227.569597275,227.83551245833334,54.0,92.0
928,228.522129275,228.855515475,56.0,97.0
929,228.283996275,229.022208575,52.0,92.0
930,228.04586327500002,229.17104170000002,47.0,79.0
931,227.807730275,229.21668385833334,40.0,93.0
932,228.998395275,229.343688125,56.0,81.0
933,229.236528275,229.65524546666668,52.0,86.0
934,229.47466127500002,229.73859201666667,56.0,81.0
935,228.998395275,229.7425609,59.0,86.0
936,228.998395275,229.94497395000002,64.0,91.0
937,230.189060275,230.73875061666666,59.0,91.0
938,230.665326275,231.00665024166668,54.0,85.0
939,229.71279427500002,231.08007458333333,47.0,92.0
940,230.90345927500002,231.44124296666666,59.0,88.0
941,231.141592275,231.48490068333334,63.0,90.0
942,231.379725275,231.65953155,66.0,79.0
943,232.33225727500002,232.68548789166667,56.0,89.0
944,232.094124275,232.796616625,52.0,74.0
945,232.57039027500002,232.8621032,59.0,90.0
946,231.855991275,233.18556719166668,47.0,78.0
947,231.617858275,233.1974738416667,40.0,91.0
948,233.046656275,233.439575725,52.0,96.0
949,233.284789275,233.57451775833334,56.0,86.0
950,232.808523275,233.62611324166667,64.0,96.0
951,233.999188275,234.68778953333333,54.0,89.0
952,233.76105527500002,234.7929649416667,49.0,90.0
953,233.522922275,234.79494938333335,42.0,94.0
954,234.475454275,234.85249819166665,61.0,90.0
955,234.237321275,234.89615590833336,58.0,79.0
956,234.951720275,235.19382215833335,54.0,97.0
957,234.713587275,235.344639725,66.0,89.0
958,235.7911391,235.9598166416667,51.0,75.0
959,236.1979496416667,236.69604450000003,59.0,90.0
960,236.3864716,237.20009268333334,63.0,81.0
961,236.67421564166668,237.33106583333335,71.0,92.0
962,237.06316620833334,237.404490175,66.0,82.0
963,237.90456947500002,238.09904475833335,71.0,76.0
964,237.98990046666668,238.10102920000003,75.0,73.0
965,238.04149595,238.12682694166668,78.0,67.0
966,238.08713810833336,238.21215793333334,83.0,88.0
967,237.80534739166666,238.54157525,51.0,49.0
968,235.999505475,238.6725484,54.0,79.0
969,235.42997071666667,238.71223723333333,47.0,96.0
