,start,end,pitch,velocity
0,26.51270496875,26.763862125,67.0,74.0
1,26.79048246875,27.115713625,65.0,78.0
2,27.06825996875,27.37381521875,67.0,79.0
3,27.34603746875,27.5393243125,70.0,73.0
4,27.62381496875,27.826361062500002,70.0,83.0
5,27.90159246875,28.384230875,72.0,84.0
6,28.45714746875,29.19094303125,70.0,84.0
7,29.29047996875,29.60066484375,67.0,82.0
8,29.56825746875,29.755757281250002,70.0,76.0
9,29.84603496875,30.13307171875,70.0,82.0
10,30.12381246875,30.6967285625,72.0,82.0
11,30.67936746875,31.0763578125,70.0,83.0
12,31.51269996875,31.73144975,72.0,83.0
13,31.79047746875,31.962931,70.0,85.0
14,32.06825496875,32.254597375,70.0,82.0
15,32.34603246875,32.77427278125,67.0,74.0
16,32.90158746875,33.15158721875,67.0,73.0
17,33.17936496875,33.407374,65.0,77.0
18,33.45714246875,34.98028909375,67.0,78.0
19,35.40158496875,35.63075140625,72.0,78.0
20,35.67936246875,35.8680196875,70.0,88.0
21,35.95713996875,36.1295935,72.0,83.0
22,36.23491746875,36.39926915625,75.0,74.0
23,36.51269496875,36.6967225625,75.0,78.0
24,36.79047246875,37.26037940625,77.0,82.0
25,37.34602746875,37.89695284375,75.0,84.0
26,37.90158246875,38.15158221875,70.0,83.0
27,38.17935996875,38.34255425,72.0,79.0
28,38.45713746875,38.64463728125,75.0,80.0
29,38.73491496875,38.9374610625,75.0,83.0
30,39.012692468750004,39.51963640625,77.0,79.0
31,39.56824746875,39.97218225,75.0,83.0
32,40.40157996875,40.58907978125,72.0,75.0
33,40.67935746875,40.86685728125,70.0,83.0
34,40.95713496875,41.1133848125,72.0,78.0
35,41.234912468750004,41.4281993125,75.0,82.0
36,41.51268996875,41.89926365625,72.0,79.0
37,42.06824496875,42.25111515625,70.0,77.0
38,42.34602246875,42.8726423125,67.0,76.0
39,42.90157746875,44.08328925,65.0,77.0
40,44.84601996875,45.02426053125,72.0,76.0
41,45.12379746875,45.28351953125,72.0,78.0
42,45.40157496875,45.53583409375,72.0,76.0
43,45.679352468750004,45.847176375000004,72.0,76.0
44,45.95712996875,46.4050461875,72.0,81.0
45,46.51268496875,46.9443975,72.0,82.0
46,47.06823996875,47.486063625,71.0,80.0
47,47.62379496875,47.8170818125,71.0,78.0
48,47.901572468750004,48.3494886875,72.0,81.0
49,48.45712746875,49.1295805,74.0,84.0
50,49.29045996875,49.46870053125,75.0,77.0
51,49.56823746875,49.734903968750004,75.0,74.0
52,49.84601496875,50.02888515625,75.0,76.0
53,50.123792468750004,50.32749596875,75.0,77.0
54,50.40156996875,50.83443990625,77.0,78.0
55,50.95712496875,51.17240253125,75.0,81.0
56,51.23490246875,52.346012468750004,79.0,83.0
57,52.346012468750004,52.90156746875,77.0,83.0
58,53.17934496875,53.370317,67.0,77.0
59,53.45712246875,53.61915934375,65.0,82.0
60,53.73489996875,53.8957794375,67.0,80.0
61,54.01267746875,54.2059643125,70.0,82.0
62,54.29045496875,54.44439,70.0,77.0
63,54.568232468750004,54.7221675,67.0,75.0
64,54.84600996875,55.26846325,70.0,78.0
65,55.40156496875,55.585592562500004,70.0,73.0
66,55.67934246875,56.142304968750004,72.0,84.0
67,56.23489746875,57.34600746875,70.0,82.0
68,57.62378496875,57.83211809375,72.0,78.0
69,57.90156246875,58.12031225,70.0,86.0
70,58.17933996875,58.35063609375,72.0,78.0
71,58.45711746875,59.1041075625,75.0,83.0
72,59.29044996875,59.70943103125,79.0,82.0
73,59.84600496875,60.034662187500004,82.0,70.0
74,60.12378246875,60.597161625,79.0,78.0
75,60.67933746875,61.1642906875,77.0,80.0
76,61.23489246875,61.43165153125,70.0,84.0
77,61.512669968750004,61.67933646875,79.0,84.0
78,61.79044746875,61.968688031250004,77.0,75.0
79,62.06822496875,62.236048875,75.0,82.0
80,62.34600246875,62.4976226875,77.0,84.0
81,62.62377996875,62.746465031250004,79.0,84.0
82,62.90155746875,63.043918437500004,79.0,80.0
83,63.17933496875,63.32979778125,79.0,78.0
84,63.45711246875,63.61914934375,77.0,81.0
85,63.734889968750004,63.90618609375,79.0,80.0
86,64.01266746875,64.39924115625,82.0,83.0
87,64.56822246875,64.94322209375,77.0,81.0
88,65.12377746875,65.28581434375,77.0,81.0
89,65.40155496875,65.58905478125,77.0,82.0
90,65.67933246875,65.8726193125,75.0,86.0
91,65.95710996875,66.13998015625,77.0,82.0
92,66.23488746875,66.59368340625,82.0,83.0
93,66.79044246875,67.26034940625,75.0,84.0
94,67.34599746875,67.5392843125,75.0,89.0
95,67.62377496875,67.80664515625,75.0,86.0
96,67.90155246875,68.0763208125,72.0,84.0
97,68.17932996875,68.6226165625,75.0,83.0
98,68.73488496875,68.92585700000001,77.0,82.0
99,69.01266246875,69.2337270625,79.0,81.0
100,69.29043996875001,69.72099509375,74.0,77.0
101,69.84599496875,70.04969846875,72.0,86.0
102,70.12377246875,70.592522,72.0,82.0
103,70.67932746875,71.32053053125,70.0,84.0
104,72.06821496875,72.27423328125,72.0,80.0
105,72.34599246875,72.56127003125,70.0,82.0
106,72.62376996875,72.7800198125,72.0,83.0
107,72.90154746875,73.319371125,75.0,83.0
108,73.45710246875,73.73487996875001,84.0,85.0
109,73.73487996875001,74.01265746875,82.0,86.0
110,74.01265746875,74.29043496875,79.0,75.0
111,74.29043496875,74.56821246875,77.0,67.0
112,74.56821246875,75.40154496875,75.0,83.0
113,75.67932246875,75.88302596875,70.0,85.0
114,75.95709996875,76.2383496875,79.0,85.0
115,76.37376621875,76.66080296875,77.0,84.0
116,76.79043246875,77.0207563125,75.0,85.0
117,77.06820996875,77.35987634375,75.0,84.0
118,77.48487621875,77.77654259375,77.0,83.0
119,77.90154246875,78.1133478125,79.0,77.0
120,78.17931996875001,78.9929765625,77.0,80.0
121,79.01265246875,79.20941153125,70.0,84.0
122,79.29042996875,79.45709646875,79.0,84.0
123,79.56820746875,79.74644803125,77.0,75.0
124,79.84598496875,80.013808875,75.0,82.0
125,80.12376246875,80.2753826875,77.0,84.0
126,80.40153996875,80.52422503125,79.0,84.0
127,80.67931746875,80.8216784375,79.0,80.0
128,80.95709496875,81.10755778125,79.0,78.0
129,81.23487246875,81.39690934375,77.0,81.0
130,81.51264996875,81.68394609375,79.0,80.0
131,81.79042746875,82.17700115625,82.0,83.0
132,82.34598246875,82.72098209375,77.0,81.0
133,82.90153746875,83.06357434375,77.0,81.0
134,83.17931496875,83.36681478125,77.0,82.0
135,83.45709246875,83.65037931250001,75.0,86.0
136,83.73486996875,83.91774015625,77.0,82.0
137,84.01264746875,84.37144340625,82.0,83.0
138,84.56820246875,84.8401929375,82.0,80.0
139,84.84597996875,85.1920444375,84.0,84.0
140,85.26264621875,85.592507,82.0,82.0
141,85.67931246875,85.8864881875,80.0,87.0
142,85.95708996875,86.24412671875,80.0,89.0
143,86.37375621875,86.7105614375,82.0,86.0
144,86.79042246875,86.9883389375,84.0,83.0
145,87.06819996875001,87.42699590625,82.0,83.0
146,87.48486621875,87.85523621875001,82.0,83.0
147,87.90153246875,88.13069890625,79.0,81.0
148,88.17930996875,88.58324475,77.0,84.0
149,88.59597621875,89.01958690625,75.0,84.0
150,89.84597496875,90.05199328125,72.0,80.0
151,90.12375246875,90.33903003125,70.0,82.0
152,90.40152996875,90.5577798125,72.0,83.0
153,90.67930746875,90.95708496875,75.0,83.0
154,90.95708496875,91.23486246875,77.0,83.0
155,91.23486246875,91.51263996875001,75.0,83.0
156,91.51263996875001,91.74875084375,79.0,82.0
157,91.79041746875001,92.03578759375,82.0,83.0
158,92.06819496875,92.29736140625,84.0,82.0
159,92.34597246875,93.319351125,75.0,83.0
160,93.45708246875,93.67004521875,70.0,84.0
161,93.73485996875,94.0485170625,79.0,84.0
162,94.15152621875,94.42235928125,77.0,84.0
163,94.56819246875,94.782312625,75.0,82.0
164,94.84596996875,95.17235853125,75.0,82.0
165,95.26263621875,95.52883965625,72.0,84.0
166,95.67930246875,95.97096884375,70.0,81.0
167,95.95707996875,98.185087,75.0,80.0
168,124.29038496875,124.541542125,67.0,74.0
169,124.56816246875,124.893393625,65.0,78.0
170,124.84593996875,125.15149521875,67.0,79.0
171,125.12371746875,125.3170043125,70.0,73.0
172,125.40149496875,125.6040410625,70.0,83.0
173,125.67927246875,126.161910875,72.0,84.0
174,126.23482746875,126.96862303125,70.0,84.0
175,127.06815996875,127.37834484375,67.0,82.0
176,127.34593746875,127.53343728125,70.0,76.0
177,127.62371496875001,127.91075171875,70.0,82.0
178,127.90149246875,128.4744085625,72.0,82.0
179,128.45704746875,128.8540378125,70.0,83.0
180,129.29037996875,129.50912975,72.0,83.0
181,129.56815746875,129.740611,70.0,85.0
182,129.84593496875002,130.032277375,70.0,82.0
183,130.12371246875,130.55195278125,67.0,74.0
184,130.67926746875,130.92926721875,67.0,73.0
185,130.95704496875,131.185054,65.0,77.0
186,131.23482246875,132.75796909375,67.0,78.0
187,133.17926496875,133.40843140625,72.0,78.0
188,133.45704246875,133.6456996875,70.0,88.0
189,133.73481996875,133.9072735,72.0,83.0
190,134.01259746875,134.17694915625,75.0,74.0
191,134.29037496875,134.4744025625,75.0,78.0
192,134.56815246875001,135.03805940625,77.0,82.0
193,135.12370746875,135.67463284375,75.0,84.0
194,135.67926246875,135.92926221875,70.0,83.0
195,135.95703996875,136.12023425,72.0,79.0
196,136.23481746875,136.42231728125,75.0,80.0
197,136.51259496875,136.7151410625,75.0,83.0
198,136.79037246875,137.29731640625,77.0,79.0
199,137.34592746875,137.74986225,75.0,83.0
200,138.17925996875,138.36675978125,72.0,75.0
201,138.45703746875,138.64453728125,70.0,83.0
202,138.73481496875002,138.8910648125,72.0,78.0
203,139.01259246875,139.2058793125,75.0,82.0
204,139.29036996875,139.67694365625,72.0,79.0
205,139.84592496875,140.02879515625,70.0,77.0
206,140.12370246875,140.6503223125,67.0,76.0
207,140.67925746875,141.86096925,65.0,77.0
208,142.62369996875,142.80194053125,72.0,76.0
209,142.90147746875,143.06119953125,72.0,78.0
210,143.17925496875,143.31351409375,72.0,76.0
211,143.45703246875001,143.624856375,72.0,76.0
212,143.73480996875,144.1827261875,72.0,81.0
213,144.29036496875,144.7220775,72.0,82.0
214,144.84591996875,145.263743625,71.0,80.0
215,145.40147496875,145.5947618125,71.0,78.0
216,145.67925246875,146.1271686875,72.0,81.0
217,146.23480746875,146.9072605,74.0,84.0
218,147.06813996875,147.24638053125,75.0,77.0
219,147.34591746875,147.51258396875,75.0,74.0
220,147.62369496875002,147.80667257291665,75.0,76.0
221,147.90180008958333,148.10597622291667,75.0,77.0
222,148.1802220895833,148.61409637291666,77.0,78.0
223,148.73706608958332,148.95284313958334,75.0,81.0
224,149.01548808958333,150.12917608958332,79.0,83.0
225,150.12917608958332,150.68602008958334,77.0,83.0
226,150.96444208958332,151.15585721458334,67.0,77.0
227,151.24286408958332,151.40527692291667,65.0,82.0
228,151.52128608958333,151.68253883124999,67.0,80.0
229,151.79970808958333,151.99344339791665,70.0,82.0
230,152.0781300895833,152.23242228125,70.0,77.0
231,152.35655208958332,152.51084428125,67.0,75.0
232,152.63497408958332,153.05840754791666,70.0,78.0
233,153.19181808958334,153.37627266458333,70.0,73.0
234,153.4702400895833,153.93427675625,72.0,84.0
235,154.02708408958333,155.14077208958332,70.0,82.0
236,155.41919408958333,155.6280105895833,72.0,78.0
237,155.69761608958333,155.91687341458334,70.0,86.0
238,155.9760380895833,156.14773165625,72.0,78.0
239,156.25446008958332,156.90295133125,75.0,83.0
240,157.08972608958334,157.50967927291666,79.0,82.0
241,157.64657008958332,157.83578373958332,82.0,70.0
242,157.92531853749998,158.40089947708333,79.0,78.0
243,158.4834575375,158.97066637291664,77.0,80.0
244,159.04159653749997,159.23927076666664,70.0,84.0
245,159.3206660375,159.48810773749997,79.0,84.0
246,159.59973553749998,159.77880513333332,77.0,75.0
247,159.87880503749997,160.04740952708332,75.0,82.0
248,160.1578745375,160.31019997291665,77.0,84.0
249,160.43694403749998,160.56019973333332,79.0,84.0
250,160.7154698208333,160.8578307895833,79.0,80.0
251,160.9932473208333,161.14371013333331,79.0,78.0
252,161.2710248208333,161.43306169583332,77.0,81.0
253,161.54880232083332,161.72009844583332,79.0,80.0
254,161.8265798208333,162.2131535083333,82.0,83.0
255,162.3821348208333,162.75713444583332,77.0,81.0
256,162.9376898208333,163.0997266958333,77.0,81.0
257,163.2154673208333,163.4029671333333,77.0,82.0
258,163.4932448208333,163.6865316645833,75.0,86.0
259,163.7710223208333,163.9538925083333,77.0,82.0
260,164.0487998208333,164.40759575833331,82.0,83.0
261,164.6043548208333,165.0742617583333,75.0,84.0
262,165.1599098208333,165.3531966645833,75.0,89.0
263,165.4376873208333,165.6205575083333,75.0,86.0
264,165.7154648208333,165.8902331645833,72.0,84.0
265,165.9932423208333,166.4365289145833,75.0,83.0
266,166.5487973208333,166.7397693520833,77.0,82.0
267,166.82657482083332,167.0476394145833,79.0,81.0
268,167.1043523208333,167.5349074458333,74.0,77.0
269,167.6599073208333,167.86361082083332,72.0,86.0
270,167.9376848208333,168.4064343520833,72.0,82.0
271,168.4932398208333,169.1344428833333,70.0,84.0
272,169.8821273208333,170.0881456333333,72.0,80.0
273,170.1599048208333,170.3751823833333,70.0,82.0
274,170.4376823208333,170.5939321645833,72.0,83.0
275,170.7154598208333,171.1332834770833,75.0,83.0
276,171.2710148208333,171.54879232083331,84.0,85.0
277,171.54879232083331,171.8265698208333,82.0,86.0
278,171.8265698208333,172.1043473208333,79.0,75.0
279,172.1043473208333,172.3821248208333,77.0,67.0
280,172.3821248208333,173.2154573208333,75.0,83.0
281,173.4932348208333,173.6969383208333,70.0,85.0
282,173.7710123208333,174.0522620395833,79.0,85.0
283,174.1876785708333,174.4747153208333,77.0,84.0
284,174.6043448208333,174.8346686645833,75.0,85.0
285,174.8821223208333,175.1737886958333,75.0,84.0
286,175.2987885708333,175.5904549458333,77.0,83.0
287,175.71545482083332,175.92726016458332,79.0,77.0
288,175.9932323208333,176.8068889145833,77.0,80.0
289,176.8265648208333,177.02332388333332,70.0,84.0
290,177.1043423208333,177.2710088208333,79.0,84.0
291,177.3821198208333,177.56036038333332,77.0,75.0
292,177.6598973208333,177.82772122708332,75.0,82.0
293,177.9376748208333,178.0892950395833,77.0,84.0
294,178.2154523208333,178.3381373833333,79.0,84.0
295,178.4932298208333,178.63559078958332,79.0,80.0
296,178.7710073208333,178.92147013333332,79.0,78.0
297,179.0487848208333,179.21082169583332,77.0,81.0
298,179.32656232083332,179.49785844583332,79.0,80.0
299,179.6043398208333,179.9909135083333,82.0,83.0
300,180.1598948208333,180.5348944458333,77.0,81.0
301,180.7154498208333,180.8774866958333,77.0,81.0
302,180.9932273208333,181.1807271333333,77.0,82.0
303,181.2710048208333,181.4642916645833,75.0,86.0
304,181.5487823208333,181.7316525083333,77.0,82.0
305,181.8265598208333,182.18535575833332,82.0,83.0
306,182.3821148208333,182.6541052895833,82.0,80.0
307,182.6598923208333,183.0059567895833,84.0,84.0
308,183.0765585708333,183.4064193520833,82.0,82.0
309,183.4932248208333,183.7004005395833,80.0,87.0
310,183.7710023208333,184.0580390708333,80.0,89.0
311,184.1876685708333,184.5244737895833,82.0,86.0
312,184.60433482083332,184.8022512895833,84.0,83.0
313,184.8821123208333,185.2409082583333,82.0,83.0
314,185.2987785708333,185.6691485708333,82.0,83.0
315,185.7154448208333,185.9446112583333,79.0,81.0
316,185.9932223208333,186.3971571020833,77.0,84.0
317,186.4098885708333,186.8334992583333,75.0,84.0
318,187.6598873208333,187.8659056333333,72.0,80.0
319,187.9376648208333,188.1529423833333,70.0,82.0
320,188.2154423208333,188.3716921645833,72.0,83.0
321,188.4932198208333,188.77099732083332,75.0,83.0
322,188.77099732083332,189.0487748208333,77.0,83.0
323,189.0487748208333,189.32655232083331,75.0,83.0
324,189.32655232083331,189.5626631958333,79.0,82.0
325,189.6043298208333,189.8496999458333,82.0,83.0
326,189.8821073208333,190.1112737583333,84.0,82.0
327,190.1598848208333,191.1332634770833,75.0,83.0
328,191.2709948208333,191.4839575708333,70.0,84.0
329,191.5487723208333,191.8624294145833,79.0,84.0
330,191.9654385708333,192.2362716333333,77.0,84.0
331,192.38210482083332,192.5962249770833,75.0,82.0
332,192.6598823208333,192.9862708833333,75.0,82.0
333,193.0765485708333,193.34275200833332,72.0,84.0
334,193.49321482083332,193.7848811958333,70.0,81.0
335,193.7709923208333,194.3265473208333,75.0,80.0
336,194.6043248208333,194.80108388333332,70.0,84.0
337,194.8821023208333,195.0487688208333,79.0,84.0
338,195.1598798208333,195.33812038333332,77.0,75.0
339,195.4376573208333,195.60548122708332,75.0,82.0
340,195.7154348208333,195.8670550395833,77.0,84.0
341,195.9932123208333,196.1158973833333,79.0,84.0
342,196.2709898208333,196.41335078958332,79.0,80.0
343,196.5487673208333,196.6992301333333,79.0,78.0
344,196.8265448208333,196.98858169583332,77.0,81.0
345,197.10432232083332,197.2756184458333,79.0,80.0
346,197.3820998208333,197.7686735083333,82.0,83.0
347,197.9376548208333,198.3126544458333,77.0,81.0
348,198.4932098208333,198.6552466958333,77.0,81.0
349,198.7709873208333,198.9584871333333,77.0,82.0
350,199.0487648208333,199.2420516645833,75.0,86.0
351,199.3265423208333,199.5094125083333,77.0,82.0
352,199.6043198208333,199.9631157583333,82.0,83.0
353,200.1598748208333,200.6297817583333,75.0,84.0
354,200.71542982083332,200.9087166645833,75.0,89.0
355,200.9932073208333,201.17607750833332,75.0,86.0
356,201.2709848208333,201.4457531645833,72.0,84.0
357,201.5487623208333,201.9920489145833,75.0,83.0
358,202.1043173208333,202.2952893520833,77.0,82.0
359,202.3820948208333,202.6031594145833,79.0,81.0
360,202.6598723208333,203.0904274458333,74.0,77.0
361,203.2154273208333,203.4191308208333,72.0,86.0
362,203.4932048208333,203.9619543520833,72.0,82.0
363,204.0487598208333,204.6899628833333,70.0,84.0
364,205.43764732083332,205.6436656333333,72.0,80.0
365,205.7154248208333,205.9307023833333,70.0,82.0
366,205.9932023208333,206.1494521645833,72.0,83.0
367,206.2709798208333,206.6888034770833,75.0,83.0
368,206.8265348208333,207.1043123208333,84.0,85.0
369,207.1043123208333,207.3820898208333,82.0,86.0
370,207.3820898208333,207.6598673208333,79.0,75.0
371,207.6598673208333,207.9376448208333,77.0,67.0
372,207.9376448208333,208.7709773208333,75.0,83.0
373,209.0487548208333,209.2524583208333,70.0,85.0
374,209.3265323208333,209.6077820395833,79.0,85.0
375,209.7431985708333,210.0302353208333,77.0,84.0
376,210.15986482083332,210.39018866458332,75.0,85.0
377,210.4376423208333,210.7293086958333,75.0,84.0
378,210.8543085708333,211.1459749458333,77.0,83.0
379,211.27097482083332,211.4827801645833,79.0,77.0
380,211.5487523208333,212.3624089145833,77.0,80.0
381,212.3820848208333,212.57884388333332,70.0,84.0
382,212.6598623208333,212.8265288208333,79.0,84.0
383,212.9376398208333,213.11588038333332,77.0,75.0
384,213.2154173208333,213.38324122708332,75.0,82.0
385,213.4931948208333,213.6448150395833,77.0,84.0
386,213.7709723208333,213.8936573833333,79.0,84.0
387,214.0487498208333,214.19111078958332,79.0,80.0
388,214.3265273208333,214.4769901333333,79.0,78.0
389,214.6043048208333,214.76634169583332,77.0,81.0
390,214.88208232083332,215.0533784458333,79.0,80.0
391,215.1598598208333,215.5464335083333,82.0,83.0
392,215.7154148208333,216.0904144458333,77.0,81.0
393,216.2709698208333,216.4330066958333,77.0,81.0
394,216.54874732083331,216.7362471333333,77.0,82.0
395,216.8265248208333,217.0198116645833,75.0,86.0
396,217.1043023208333,217.2871725083333,77.0,82.0
397,217.3820798208333,217.7408757583333,82.0,83.0
398,217.9376348208333,218.2096252895833,82.0,80.0
399,218.2154123208333,218.5614767895833,84.0,84.0
400,218.6320785708333,218.9619393520833,82.0,82.0
401,219.0487448208333,219.25592053958331,80.0,87.0
402,219.3265223208333,219.6135590708333,80.0,89.0
403,219.7431885708333,220.0799937895833,82.0,86.0
404,220.1598548208333,220.3577712895833,84.0,83.0
405,220.4376323208333,220.79642825833332,82.0,83.0
406,220.8542985708333,221.2246685708333,82.0,83.0
407,221.2709648208333,221.5001312583333,79.0,81.0
408,221.5487423208333,221.9526771020833,77.0,84.0
409,221.9654085708333,222.3890192583333,75.0,84.0
410,223.21540732083332,223.4214256333333,72.0,80.0
411,223.4931848208333,223.7084623833333,70.0,82.0
412,223.7709623208333,223.9272121645833,72.0,83.0
413,224.0487398208333,224.32651732083332,75.0,83.0
414,224.32651732083332,224.6042948208333,77.0,83.0
415,224.6042948208333,224.8820723208333,75.0,83.0
416,224.8820723208333,225.1181831958333,79.0,82.0
417,225.1598498208333,225.40521994583332,82.0,83.0
418,225.43762732083331,225.6667937583333,84.0,82.0
419,225.7154048208333,226.6887834770833,75.0,83.0
420,226.82651482083332,227.0394775708333,70.0,84.0
421,227.1042923208333,227.4179494145833,79.0,84.0
422,227.5209585708333,227.7917916333333,77.0,84.0
423,227.93762482083332,228.1517449770833,75.0,82.0
424,228.2154023208333,228.5417908833333,75.0,82.0
425,228.6320685708333,228.89827200833332,72.0,84.0
426,229.04873482083332,229.3404011958333,70.0,81.0
427,229.3265123208333,231.5545193520833,75.0,80.0
