,start,end,pitch,velocity
0,0.25115715625,0.63773084375,48.0,61.0
1,0.3402774375,0.65856415625,51.0,71.0
2,0.19328684375,0.680554875,36.0,81.0
3,0.42939771875,0.68634190625,55.0,75.0
4,0.4976846875,0.754628875,60.0,83.0
5,2.43634015625,2.85995084375,60.0,84.0
6,2.76504353125,3.1736079375,72.0,63.0
7,2.1828681875,3.1828671875,67.0,73.0
8,3.0578673125,3.32407075,60.0,66.0
9,3.40161696875,3.7291629375,72.0,71.0
10,3.74999625,4.097218125,60.0,60.0
11,4.05902371875,4.189810625,67.0,71.0
12,4.59143059375,4.68633790625,72.0,83.0
13,5.1180504375,5.32059653125,72.0,62.0
14,5.5347166875000005,5.73957759375,67.0,47.0
15,5.98494771875,6.17939196875,67.0,56.0
16,5.93633665625,6.21874378125,72.0,70.0
17,7.23957609375,7.78587184375,70.0,68.0
18,1.9641184062500001,7.9467513125,55.0,68.0
19,1.68634090625,7.97337165625,48.0,45.0
20,7.7222145,8.23957509375,67.0,63.0
21,9.84605496875,10.356471125,56.0,68.0
22,10.12383246875,10.48262840625,63.0,71.0
23,10.67938746875,11.18633140625,63.0,70.0
24,9.29049996875,11.365729375,44.0,85.0
25,9.56827746875,11.3773034375,51.0,55.0
26,11.23494246875,11.66549759375,56.0,53.0
27,12.06827496875,12.4189690625,56.0,79.0
28,12.34605246875,12.4884134375,63.0,80.0
29,11.51271996875,13.0578573125,44.0,68.0
30,11.79049746875,13.13540353125,51.0,62.0
31,12.90160746875,13.53123646875,68.0,76.0
32,13.17938496875,13.69443075,56.0,82.0
33,13.45716246875,13.73031034375,63.0,70.0
34,14.29049496875,14.6110965,51.0,55.0
35,14.568272468750001,14.7939666875,58.0,70.0
36,15.123827468750001,15.4004475625,58.0,69.0
37,15.40160496875,15.78123421875,51.0,61.0
38,14.012717468750001,15.82058603125,46.0,51.0
39,13.73493996875,15.85299340625,39.0,83.0
40,15.679382468750001,16.55901121875,63.0,79.0
41,16.51271496875,16.87614053125,58.0,75.0
42,15.95715996875,16.94327009375,39.0,67.0
43,16.23493746875,16.95368675,46.0,65.0
44,16.79049246875,17.300908625,51.0,83.0
45,17.34604746875,17.47104734375,63.0,80.0
46,18.179379968750002,18.32289834375,53.0,72.0
47,18.179379968750002,18.74419421875,60.0,78.0
48,18.73493496875,19.60993409375,53.0,74.0
49,19.01271246875,19.880767156250002,60.0,82.0
50,18.45715746875,20.80900696875,48.0,68.0
51,19.84604496875,21.318265718750002,53.0,69.0
52,19.56826746875,21.5393303125,65.0,79.0
53,20.12382246875,21.5809969375,60.0,78.0
54,21.51270996875,21.86224665625,53.0,79.0
55,21.23493246875,21.8634040625,48.0,62.0
56,18.179379968750002,21.921274375,41.0,75.0
57,21.79048746875,22.1411815625,60.0,84.0
58,22.34604246875,22.57289409375,53.0,75.0
59,22.06826496875,22.597199625000002,65.0,82.0
60,22.62381996875,23.2430323125,58.0,74.0
61,22.62381996875,23.5300690625,62.0,78.0
62,23.45715246875,23.851828,58.0,78.0
63,24.01270746875,24.18168878125,58.0,76.0
64,24.01270746875,24.51502178125,65.0,83.0
65,22.62381996875,24.662012375,46.0,74.0
66,23.17937496875,24.69326234375,53.0,55.0
67,24.56826246875,25.1319193125,58.0,81.0
68,25.40159496875,25.495344875,58.0,55.0
69,24.84603996875,27.02775075,46.0,75.0
70,25.67937246875,27.02890815625,58.0,83.0
71,25.12381746875,27.03816740625,53.0,69.0
72,25.67937246875,27.050898875,65.0,81.0
73,27.06825996875,27.67474084375,58.0,69.0
74,27.62381496875,28.04511084375,55.0,78.0
75,27.90159246875,28.282379125000002,58.0,88.0
76,27.34603746875,28.467564125,46.0,57.0
77,27.06825996875,28.49186965625,39.0,75.0
78,28.45714746875,28.61918434375,63.0,83.0
79,29.29047996875,29.623812968750002,58.0,71.0
80,29.29047996875,29.782377625,62.0,80.0
81,29.84603496875,29.96640521875,58.0,74.0
82,29.56825746875,29.97103484375,55.0,80.0
83,30.12381246875,30.32751596875,62.0,82.0
84,29.29047996875,30.726821125,46.0,74.0
85,30.67936746875,30.7893210625,58.0,84.0
86,31.51269996875,31.92936621875,63.0,82.0
87,31.79047746875,32.22219,55.0,78.0
88,32.34603246875,32.92473559375,63.0,83.0
89,32.90158746875,33.23492046875,60.0,78.0
90,31.51269996875,33.34255925,48.0,82.0
91,33.17936496875,33.47334615625,55.0,83.0
92,33.45714246875,33.55667940625,60.0,77.0
93,33.73491996875,34.0856140625,58.0,83.0
94,34.01269746875,34.39232671875,53.0,74.0
95,34.29047496875,34.41547484375,58.0,70.0
96,34.56825246875,35.26732584375,53.0,74.0
97,34.56825246875,35.37612203125,62.0,82.0
98,33.73491996875,35.5902421875,46.0,83.0
99,35.40158496875,35.7013531875,60.0,80.0
100,35.67936246875,35.94325109375,58.0,83.0
101,35.95713996875,36.5069079375,60.0,83.0
102,36.51269496875,36.63306521875,56.0,74.0
103,36.23491746875,37.17704615625,51.0,58.0
104,36.79047246875,37.58329575,56.0,85.0
105,35.95713996875,37.71176784375,44.0,82.0
106,37.62380496875,37.76269371875,51.0,69.0
107,36.79047246875,37.82287884375,60.0,82.0
108,37.90158246875,38.1133878125,56.0,84.0
109,38.17935996875,38.80551675,58.0,83.0
110,38.73491496875,39.3518125,55.0,75.0
111,39.012692468750004,39.476812375,62.0,82.0
112,39.56824746875,39.78583984375,58.0,82.0
113,38.45713746875,39.93861746875,50.0,68.0
114,38.17935996875,39.976811875,43.0,82.0
115,40.40157996875,40.71639446875,53.0,73.0
116,40.40157996875,41.04278303125,60.0,78.0
117,40.95713496875,41.5115325625,53.0,83.0
118,41.234912468750004,41.606439875,60.0,83.0
119,41.51268996875,42.08213384375,65.0,84.0
120,40.67935746875,42.0902356875,48.0,73.0
121,40.40157996875,42.0948653125,41.0,82.0
122,41.79046746875,42.12611528125,53.0,83.0
123,42.06824496875,42.43514275,60.0,83.0
124,42.34602246875,42.6180129375,53.0,73.0
125,42.62379996875,42.94787371875,58.0,82.0
126,42.90157746875,43.319401125,53.0,76.0
127,43.457132468750004,43.74185440625,53.0,76.0
128,43.457132468750004,43.8309746875,62.0,79.0
129,44.01268746875,44.16083546875,53.0,82.0
130,44.01268746875,44.37958525,58.0,84.0
131,42.62379996875,44.54740915625,46.0,82.0
132,44.29046496875,44.77657559375,53.0,77.0
133,44.84601996875,45.223334406250004,56.0,75.0
134,44.84601996875,45.4258805,63.0,70.0
135,45.40157496875,45.7244913125,56.0,82.0
136,45.679352468750004,45.8217134375,63.0,82.0
137,46.23490746875,46.5115275625,60.0,78.0
138,45.12379746875,46.71870328125,51.0,69.0
139,44.84601996875,46.73490696875,44.0,84.0
140,46.51268496875,46.84254575,56.0,82.0
141,46.79046246875,47.13884175,63.0,82.0
142,47.62379496875,47.79046146875,55.0,80.0
143,47.901572468750004,48.10759078125,62.0,80.0
144,47.901572468750004,48.13073890625,55.0,83.0
145,48.45712746875,48.661988375,55.0,83.0
146,48.45712746875,48.67240503125,59.0,82.0
147,47.34601746875,48.89809925,50.0,71.0
148,47.06823996875,48.9235621875,43.0,77.0
149,49.29045996875,49.439765375,55.0,82.0
150,49.29045996875,49.61684853125,60.0,83.0
151,49.29045996875,50.11916284375,48.0,83.0
152,49.84601496875,50.190922031250004,60.0,78.0
153,49.56823746875,50.21869978125,55.0,81.0
154,50.123792468750004,50.72101409375,63.0,84.0
155,50.67934746875,51.0902266875,53.0,65.0
156,50.40156996875,51.0948563125,46.0,87.0
157,50.95712496875,51.2291154375,58.0,87.0
158,51.23490246875,51.39230971875,62.0,83.0
159,51.51267996875,51.71869828125,57.0,76.0
160,51.51267996875,51.8309666875,60.0,84.0
161,51.79045746875,52.27193846875,57.0,74.0
162,52.06823496875,52.39925315625,63.0,83.0
163,52.346012468750004,53.00920625,67.0,74.0
164,51.51267996875,53.195548656250004,45.0,81.0
165,52.90156746875,53.195548656250004,63.0,85.0
166,53.17934496875,53.2846689375,57.0,30.0
167,53.73489996875,54.10758478125,58.0,82.0
168,54.01267746875,54.57054728125,53.0,71.0
169,54.29045496875,54.58327875,58.0,71.0
170,54.568232468750004,55.38767609375,62.0,83.0
171,55.12378746875,55.4467038125,58.0,88.0
172,55.40156496875,55.652722125000004,53.0,83.0
173,53.73489996875,55.83906453125,46.0,76.0
174,55.95711996875,56.33674921875,58.0,72.0
175,56.23489746875,56.63073040625,53.0,72.0
176,56.51267496875,56.65156371875,58.0,82.0
177,56.79045246875,57.08443365625,53.0,82.0
178,56.79045246875,57.10989659375,62.0,83.0
179,55.95711996875,57.42471109375,38.0,82.0
180,57.34600746875,57.629572,58.0,85.0
181,57.62378496875,57.8217014375,53.0,82.0
182,57.90156246875,58.1874418125,58.0,84.0
183,58.73489496875,59.106422375,56.0,83.0
184,59.01267246875,59.63767184375,63.0,79.0
185,59.29044996875,59.6966995625,56.0,35.0
186,58.17933996875,59.75572728125,44.0,96.0
187,58.45711746875,59.770773562500004,51.0,76.0
188,59.56822746875,59.9142919375,60.0,74.0
189,59.84600496875,60.17007871875,68.0,84.0
190,60.12378246875,60.27193046875,56.0,89.0
191,60.40155996875,60.70943003125,58.0,84.0
192,60.67933746875,61.3078090625,53.0,78.0
193,60.95711496875,61.35526271875,62.0,83.0
194,61.23489246875,61.3818830625,58.0,84.0
195,61.512669968750004,61.58211434375,58.0,72.0
196,61.512669968750004,61.68859571875,53.0,82.0
197,61.512669968750004,61.83211409375,62.0,82.0
198,61.79044746875,61.98720653125,53.0,79.0
199,61.512669968750004,62.00919725,65.0,84.0
200,60.40155996875,62.3124376875,46.0,82.0
201,62.06822496875,62.34831728125,58.0,85.0
202,62.06822496875,62.35526171875,62.0,83.0
203,62.34600246875,62.415446843750004,53.0,82.0
204,62.62377996875,62.9605851875,55.0,77.0
205,62.62377996875,63.19322384375,58.0,83.0
206,63.17933496875,63.3124366875,55.0,82.0
207,63.45711246875,63.680491875,55.0,89.0
208,63.45711246875,63.71174184375,63.0,84.0
209,62.62377996875,64.10988959375,39.0,85.0
210,62.90155746875,64.1133618125,46.0,70.0
211,64.01266746875,64.1457691875,55.0,84.0
212,64.01266746875,64.337898625,58.0,88.0
213,64.29044496875,64.4258615,55.0,78.0
214,64.56822246875,64.7059538125,58.0,88.0
215,64.84599996875001,65.152712625,55.0,81.0
216,64.84599996875001,65.3494716875,62.0,84.0
217,65.40155496875,65.569378875,55.0,74.0
218,65.67933246875,66.0300265625,58.0,83.0
219,65.67933246875,66.074008,55.0,82.0
220,65.67933246875,66.1179894375,62.0,84.0
221,66.23488746875,66.518452,58.0,85.0
222,65.12377746875,66.53118346875,50.0,73.0
223,64.84599996875001,66.67238703125,43.0,83.0
224,66.51266496875,66.85757203125,55.0,82.0
225,66.79044246875,66.90155346875,58.0,75.0
226,67.06821996875,67.28581234375,55.0,76.0
227,67.06821996875,67.4698399375,63.0,78.0
228,67.34599746875,67.68627490625,55.0,81.0
229,67.62377496875,67.79507109375,60.0,84.0
230,67.34599746875,68.15386703125,43.0,70.0
231,67.90155246875,68.21636696875,55.0,83.0
232,67.06821996875,68.2522465625,36.0,82.0
233,67.90155246875,68.26729284375,63.0,87.0
234,68.45710746875,68.57284809375,55.0,77.0
235,68.45710746875,68.64229246875,60.0,80.0
236,68.73488496875,69.2892825625,55.0,83.0
237,69.01266246875,69.300856625,60.0,77.0
238,69.29043996875001,69.61219890625,55.0,78.0
239,69.29043996875001,70.115670625,62.0,78.0
240,69.56821746875,70.32516115625,50.0,72.0
241,69.84599496875,70.467522125,55.0,88.0
242,70.12377246875,70.532336875,58.0,85.0
243,70.40154996875,70.77191996875,50.0,65.0
244,70.67932746875,70.98719753125,55.0,83.0
245,69.29043996875001,71.20710471875,43.0,82.0
246,70.67932746875,71.25803059375001,62.0,83.0
247,70.95710496875,71.26497503125,50.0,80.0
248,71.23488246875,71.50803034375001,55.0,84.0
249,71.51265996875,72.12377046875,60.0,82.0
250,72.06821496875,72.2105759375,56.0,82.0
251,72.34599246875,72.71867728125,56.0,84.0
252,71.79043746875,72.72099209375,51.0,65.0
253,72.34599246875,72.97562146875,60.0,83.0
254,71.51265996875,73.20941753125,44.0,84.0
255,73.17932496875,73.3448340625,51.0,74.0
256,72.90154746875,73.41659325,56.0,91.0
257,73.73487996875001,74.259185,58.0,82.0
258,74.01265746875,74.6503883125,50.0,82.0
259,74.29043496875,74.6781660625,55.0,86.0
260,73.73487996875001,74.717517875,43.0,84.0
261,74.56821246875,74.7290919375,58.0,83.0
262,74.84598996875,75.02423053125,55.0,82.0
263,74.84598996875,75.23719328125,63.0,80.0
264,75.12376746875,75.4605726875,55.0,84.0
265,74.84598996875,75.4883504375,48.0,83.0
266,75.40154496875,75.63071140625,60.0,84.0
267,75.67932246875,75.7476094375,55.0,72.0
268,75.95709996875,76.2661274375,53.0,77.0
269,75.95709996875,76.458256875,60.0,78.0
270,76.51265496875,76.680478875,53.0,85.0
271,76.79043246875,77.2013116875,53.0,78.0
272,76.79043246875,77.22330240625,60.0,86.0
273,77.34598746875,77.50107990625,53.0,77.0
274,76.23487746875,77.5624224375,48.0,78.0
275,75.95709996875,77.60177425,41.0,83.0
276,77.62376496875,77.7962185,53.0,84.0
277,77.34598746875,77.85987584375,65.0,83.0
278,78.17931996875001,78.46751412500001,58.0,87.0
279,78.45709746875,78.83672671875,53.0,83.0
280,78.73487496875,78.8494581875,58.0,81.0
281,79.01265246875,79.282328125,53.0,77.0
282,79.01265246875,79.33093918750001,62.0,83.0
283,78.17931996875001,79.72329990625,46.0,85.0
284,79.56820746875,79.75339246875001,53.0,84.0
285,79.56820746875,80.1457531875,58.0,88.0
286,80.12376246875,80.3888085,53.0,89.0
287,79.84598496875,80.421215875,46.0,85.0
288,80.40153996875,81.00107640625001,58.0,77.0
289,80.95709496875,81.71172384375001,55.0,86.0
290,81.23487246875,81.8401959375,63.0,89.0
291,80.67931746875,82.01959390625,46.0,71.0
292,81.79042746875,82.1087141875,58.0,89.0
293,80.40153996875,82.15616784375,39.0,80.0
294,82.06820496875,82.4050101875,55.0,86.0
295,82.34598246875,82.986028125,58.0,83.0
296,83.17931496875,83.30547225,55.0,83.0
297,83.45709246875,83.8216754375,55.0,89.0
298,83.45709246875,83.82283284375,62.0,83.0
299,82.90153746875,84.1040825625,50.0,77.0
300,84.01264746875,84.32746196875,55.0,78.0
301,82.62375996875001,84.37607303125,43.0,83.0
302,84.01264746875,84.47560996875,58.0,84.0
303,84.29042496875,84.4929710625,50.0,84.0
304,84.01264746875,84.5207488125,62.0,83.0
305,84.56820246875,84.84135034375,55.0,86.0
306,84.84597996875,85.4929700625,60.0,82.0
307,85.40153496875,85.53810890625,56.0,75.0
308,85.67931246875,86.013802875,56.0,88.0
309,85.12375746875,86.16310828125,51.0,67.0
310,84.84597996875,86.38533028125,44.0,86.0
311,86.23486746875,86.481395,56.0,88.0
312,85.67931246875,86.49875609375,60.0,84.0
313,86.51264496875,86.63880225,51.0,83.0
314,86.79042246875,86.99065375,55.0,76.0
315,87.06819996875001,87.3772274375,55.0,79.0
316,87.06819996875001,87.55894021875,62.0,82.0
317,87.62375496875,87.79273628125,55.0,85.0
318,87.34597746875001,88.0300045625,50.0,76.0
319,87.06819996875001,88.15847665625,43.0,83.0
320,87.90153246875,88.26958765625,55.0,83.0
321,87.90153246875,88.5207448125,62.0,82.0
322,88.45708746875,88.60755028125,55.0,85.0
323,88.73486496875,89.04504984375001,50.0,81.0
324,88.73486496875,89.097133125,43.0,78.0
325,89.01264246875,89.185096,58.0,79.0
326,89.29041996875,89.85176200000001,60.0,70.0
327,89.84597496875,90.01495628125001,53.0,82.0
328,90.12375246875,90.4790761875,53.0,83.0
329,90.12375246875,90.53347428125001,60.0,83.0
330,89.56819746875,90.93509425,48.0,76.0
331,90.67930746875,90.976760875,56.0,91.0
332,89.29041996875,90.9813905,41.0,83.0
333,90.95708496875,91.0716681875,53.0,83.0
334,91.51263996875001,91.79504709375,55.0,80.0
335,91.51263996875001,92.02768575,58.0,78.0
336,92.06819496875,92.4188890625,55.0,84.0
337,91.79041746875001,92.44319459375001,50.0,78.0
338,92.34597246875,92.4605556875,58.0,83.0
339,91.51263996875001,92.4744445625,43.0,83.0
340,92.62374996875,92.819351625,55.0,78.0
341,92.62374996875,93.19203643750001,63.0,83.0
342,92.90152746875,93.226758625,55.0,81.0
343,92.62374996875,93.32976778125,48.0,83.0
344,93.17930496875,93.40384178125,60.0,82.0
345,93.73485996875,94.0438874375,53.0,76.0
346,93.73485996875,94.3216649375,60.0,78.0
347,94.01263746875,94.68972012500001,48.0,76.0
348,93.73485996875,94.703609,41.0,83.0
349,94.29041496875,94.71402565625,53.0,83.0
350,94.84596996875,95.21286775,58.0,82.0
351,95.12374746875,95.3957379375,53.0,85.0
352,94.84596996875,95.4605526875,46.0,88.0
353,95.67930246875,95.777682,53.0,82.0
354,95.40152496875,95.98254290625,62.0,82.0
355,95.95707996875,96.57976453125,58.0,74.0
356,96.51263496875,96.7661069375,55.0,81.0
357,96.79041246875,97.03694,63.0,86.0
358,96.23485746875001,97.48717103125,46.0,65.0
359,97.34596746875,97.726754125,55.0,84.0
360,95.95707996875,97.814717,39.0,78.0
361,97.62374496875,98.02999456250001,46.0,73.0
362,97.34596746875,98.17004071875,58.0,85.0
363,97.90152246875,98.2475869375,55.0,85.0
364,98.73485496875,98.8702715,56.0,84.0
365,99.01263246875,99.1665675,60.0,79.0
366,99.01263246875,99.2059193125,56.0,85.0
367,99.01263246875,99.21402115625,63.0,81.0
368,98.17929996875,99.911937125,44.0,87.0
369,98.45707746875,100.00105740625,51.0,72.0
370,100.40151996875,100.76726034375,56.0,75.0
371,100.40151996875,100.76726034375,60.0,80.0
372,100.40151996875,100.81124178125,63.0,76.0
373,100.40151996875,100.82050103125,68.0,76.0
374,100.95707496875,101.07281559375001,56.0,75.0
375,101.23485246875,101.967490625,56.0,88.0
376,101.23485246875,101.97559246875001,63.0,83.0
377,100.40151996875,101.9929535625,44.0,85.0
378,100.67929746875001,102.00568503125,51.0,69.0
379,102.62373996875,102.958230375,55.0,81.0
380,102.62373996875,103.21401715625,62.0,82.0
381,103.17929496875,103.29966521875001,55.0,68.0
382,103.45707246875,103.698970375,58.0,84.0
383,103.45707246875,103.76262771875,55.0,84.0
384,104.01262746875,104.124895875,55.0,82.0
385,104.01262746875,104.14457178125001,58.0,82.0
386,104.01262746875,104.1549884375,62.0,83.0
387,102.90151746875,104.25568278125,50.0,67.0
388,102.62373996875,104.30197903125,43.0,85.0
389,104.84595996875,105.1318393125,55.0,83.0
390,104.84595996875,105.15845965625,58.0,83.0
391,104.84595996875,105.1966540625,67.0,79.0
392,105.40151496875,105.48947784375,55.0,78.0
393,105.67929246875,105.79503309375,55.0,81.0
394,105.67929246875,105.79966271875,58.0,81.0
395,105.67929246875,105.79966271875,62.0,84.0
396,105.12373746875001,106.07049578125,50.0,72.0
397,105.95706996875,106.2799863125,55.0,84.0
398,104.84595996875,106.3262825625,43.0,87.0
399,105.95706996875,106.35984734375,58.0,89.0
400,105.95706996875,106.3957269375,62.0,88.0
401,106.23484746875,106.40151396875,50.0,86.0
402,106.51262496875,106.57512490625,55.0,86.0
403,107.06817996875,107.37605003125,56.0,78.0
404,107.06817996875,107.48716103125,60.0,83.0
405,107.06817996875,107.53345728125001,63.0,79.0
406,107.62373496875,107.71401265625,56.0,74.0
407,107.90151246875,108.05429009375,68.0,79.0
408,107.90151246875,108.05891971875,56.0,91.0
409,108.45706746875,108.54503034375,60.0,83.0
410,108.45706746875,108.55660440625,56.0,83.0
411,108.45706746875,108.56123403125,63.0,82.0
412,107.06817996875,108.95012253125,44.0,93.0
413,107.34595746875,108.96864103125,51.0,56.0
414,109.01262246875,109.15382603125,68.0,76.0
415,109.01262246875,109.15498343750001,56.0,82.0
416,109.29039996875,109.4235016875,56.0,83.0
417,109.29039996875,109.48484421875,68.0,82.0
418,110.12373246875,110.21863978125,80.0,72.0
419,110.12373246875,110.23484346875,68.0,82.0
420,109.84595496875001,110.47095434375,51.0,61.0
421,110.40150996875,110.55428759375,80.0,84.0
422,110.40150996875,110.555445,68.0,91.0
423,109.29039996875,110.74178740625,44.0,89.0
424,110.67928746875,110.9096113125,51.0,69.0
425,110.95706496875,111.097111125,44.0,84.0
426,111.51261996875,111.828591875,55.0,83.0
427,111.51261996875,111.95706396875,58.0,83.0
428,111.51261996875,112.09363790625,62.0,83.0
429,112.06817496875,112.1457211875,55.0,63.0
430,112.34595246875,112.62141515625,62.0,83.0
431,112.34595246875,112.6364614375,55.0,84.0
432,112.90150746875,113.02419253125,55.0,84.0
433,111.79039746875,113.03113696875,50.0,69.0
434,112.90150746875,113.03576659375,58.0,89.0
435,112.90150746875,113.04502584375,62.0,84.0
436,111.51261996875,113.08090543750001,43.0,83.0
437,113.45706246875,114.01030265625,55.0,78.0
438,113.73483996875,114.12604328125,58.0,84.0
439,113.73483996875,114.15382103125,62.0,86.0
440,113.73483996875,114.16076546875,67.0,83.0
441,114.29039496875001,114.384144875,55.0,80.0
442,114.01261746875001,114.63993165625,50.0,75.0
443,114.56817246875,114.97557946875,58.0,88.0
444,114.56817246875,114.97789428125,55.0,88.0
445,114.56817246875,114.9836813125,62.0,88.0
446,113.73483996875,115.25567178125,43.0,84.0
447,114.84594996875,115.26840325,50.0,79.0
448,115.12372746875,115.333218,55.0,88.0
449,115.12372746875,115.35289390625,58.0,89.0
450,115.12372746875,115.3864586875,62.0,88.0
451,115.40150496875,115.52187521875,43.0,82.0
452,115.95705996875,116.32280034375,59.0,82.0
453,115.95705996875,116.467476125,66.0,82.0
454,115.95705996875,116.504513125,47.0,87.0
455,115.95705996875,116.51955940625,63.0,83.0
456,116.23483746875,116.52650384375,51.0,77.0
457,116.51261496875,116.6179389375,59.0,88.0
458,116.79039246875,117.15613284375,58.0,88.0
459,116.79039246875,117.430438125,70.0,82.0
460,117.34594746875,117.47789178125001,58.0,87.0
461,116.79039246875,117.4929380625,46.0,91.0
462,117.62372496875,117.84131734375,56.0,88.0
463,117.62372496875,117.9420116875,44.0,99.0
464,117.90150246875,117.99409496875,56.0,78.0
465,117.62372496875,118.004511625,68.0,82.0
466,118.17927996875,118.42002046875,59.0,83.0
467,118.17927996875,118.50451112500001,71.0,85.0
468,118.17927996875,118.67696465625001,47.0,89.0
469,118.45705746875001,118.7290479375,51.0,85.0
470,118.73483496875001,118.8540478125,59.0,86.0
471,119.01261246875,119.4003435625,58.0,79.0
472,119.01261246875,119.5531211875,70.0,82.0
473,119.01261246875,119.689695125,46.0,98.0
474,119.56816746875,119.69432475,58.0,89.0
475,119.84594496875,119.9651578125,44.0,88.0
476,119.84594496875,120.05890771875,56.0,88.0
477,119.84594496875,120.087842875,68.0,82.0
478,120.40149996875,120.67927746875,46.0,99.0
479,120.40149996875,120.7707125625,58.0,84.0
480,120.40149996875,120.88298096875,70.0,74.0
481,120.95705496875,121.1665455,58.0,96.0
482,121.23483246875,121.6225635625,58.0,67.0
483,121.23483246875,121.708211625,62.0,84.0
484,121.79038746875,121.91075771875,58.0,73.0
485,121.79038746875,121.94779471875,62.0,85.0
486,121.79038746875,121.95242434375,65.0,82.0
487,120.67927746875,121.99640578125,53.0,75.0
488,122.62371996875,122.80196053125,62.0,83.0
489,122.62371996875,122.8586734375,58.0,66.0
490,122.62371996875,122.985988125,70.0,77.0
491,123.73482996875,124.10057034375001,74.0,87.0
492,122.62371996875,124.77186596875,46.0,82.0
493,124.01260746875,124.77881040625,70.0,85.0
494,124.29038496875,124.7799678125,65.0,76.0
495,124.84593996875,125.45242084375,58.0,69.0
496,125.40149496875,125.82279084375,55.0,78.0
497,125.67927246875,126.060059125,58.0,88.0
498,125.12371746875,126.245244125,46.0,57.0
499,124.84593996875,126.26954965625,39.0,75.0
500,126.23482746875,126.39686434375,63.0,83.0
501,127.06815996875,127.40149296875,58.0,71.0
502,127.06815996875,127.560057625,62.0,80.0
503,127.62371496875001,127.74408521875,58.0,74.0
504,127.34593746875,127.74871484375001,55.0,80.0
505,127.90149246875,128.10519596875,62.0,82.0
506,127.06815996875,128.504501125,46.0,74.0
507,128.45704746875,128.5670010625,58.0,84.0
508,129.29037996875,129.70704621875,63.0,82.0
509,129.56815746875,129.99987000000002,55.0,78.0
510,130.12371246875,130.70241559375,63.0,83.0
511,130.67926746875,131.01260046875,60.0,78.0
512,129.29037996875,131.12023925,48.0,82.0
513,130.95704496875,131.25102615625,55.0,83.0
514,131.23482246875,131.33435940625,60.0,77.0
515,131.51259996875,131.8632940625,58.0,83.0
516,131.79037746875,132.17000671875,53.0,74.0
517,132.06815496875,132.19315484375,58.0,70.0
518,132.34593246875,133.04500584375,53.0,74.0
519,132.34593246875,133.15380203125,62.0,82.0
520,131.51259996875,133.3679221875,46.0,83.0
521,133.17926496875,133.4790331875,60.0,80.0
522,133.45704246875,133.72093109375,58.0,83.0
523,133.73481996875,134.2845879375,60.0,83.0
524,134.29037496875,134.41074521875,56.0,74.0
525,134.01259746875,134.95472615625,51.0,58.0
526,134.56815246875001,135.36097575,56.0,85.0
527,133.73481996875,135.48944784375,44.0,82.0
528,135.40148496875,135.54037371875,51.0,69.0
529,134.56815246875001,135.60055884375,60.0,82.0
530,135.67926246875,135.8910678125,56.0,84.0
531,135.95703996875,136.58319675,58.0,83.0
532,136.51259496875,137.1294925,55.0,75.0
533,136.79037246875,137.254492375,62.0,82.0
534,137.34592746875,137.56351984375002,58.0,82.0
535,136.23481746875,137.71629746875,50.0,68.0
536,135.95703996875,137.754491875,43.0,82.0
537,138.17925996875,138.49407446875,53.0,73.0
538,138.17925996875,138.82046303125,60.0,78.0
539,138.73481496875002,139.2892125625,53.0,83.0
540,139.01259246875,139.384119875,60.0,83.0
541,139.29036996875,139.85981384375,65.0,84.0
542,138.45703746875,139.8679156875,48.0,73.0
543,138.17925996875,139.8725453125,41.0,82.0
544,139.56814746875,139.90379528125,53.0,83.0
545,139.84592496875,140.21282275000002,60.0,83.0
546,140.12370246875,140.3956929375,53.0,73.0
547,140.40147996875,140.72555371875,58.0,82.0
548,140.67925746875,141.097081125,53.0,76.0
549,141.23481246875,141.51953440625,53.0,76.0
550,141.23481246875,141.6086546875,62.0,79.0
551,141.79036746875,141.93851546875,53.0,82.0
552,141.79036746875,142.15726525,58.0,84.0
553,140.40147996875,142.32508915625002,46.0,82.0
554,142.06814496875,142.55425559375,53.0,77.0
555,142.62369996875,143.00101440625,56.0,75.0
556,142.62369996875,143.2035605,63.0,70.0
557,143.17925496875,143.5021713125,56.0,82.0
558,143.45703246875001,143.5993934375,63.0,82.0
559,144.01258746875,144.2892075625,60.0,78.0
560,142.90147746875,144.49638328125,51.0,69.0
561,142.62369996875,144.51258696875,44.0,84.0
562,144.29036496875,144.62022575,56.0,82.0
563,144.56814246875,144.91652175000002,63.0,82.0
564,145.40147496875,145.56814146875,55.0,80.0
565,145.67925246875,145.88527078125,62.0,80.0
566,145.67925246875,145.90841890625,55.0,83.0
567,146.23480746875,146.439668375,55.0,83.0
568,146.23480746875,146.45008503125,59.0,82.0
569,145.12369746875,146.67577925,50.0,71.0
570,144.84591996875,146.70124218750001,43.0,77.0
571,147.06813996875,147.217445375,55.0,82.0
572,147.06813996875,147.39452853125,60.0,83.0
573,147.06813996875,147.89715972291665,48.0,83.0
574,147.62369496875002,147.96908540625,60.0,78.0
575,147.34591746875,147.99692760624998,55.0,81.0
576,147.90180008958333,148.50040738958333,63.0,84.0
577,148.45864408958332,148.87047663125,53.0,65.0
578,148.1802220895833,148.87511699791665,46.0,87.0
579,148.73706608958332,149.00968763125,58.0,87.0
580,149.01548808958333,149.17326055625,62.0,83.0
581,149.29391008958333,149.50040640625,57.0,76.0
582,149.29391008958333,149.61293529791666,60.0,84.0
583,149.5723320895833,150.05493022291665,57.0,74.0
584,149.85075408958332,150.18254030625,63.0,83.0
585,150.12917608958332,150.79390861458333,67.0,74.0
586,149.29391008958333,150.98068337291664,45.0,81.0
587,150.68602008958334,150.98068337291664,63.0,85.0
588,150.96444208958332,151.07001043124998,57.0,30.0
589,151.52128608958333,151.89483560624998,58.0,82.0
590,151.79970808958333,152.35887227291667,53.0,71.0
591,152.0781300895833,152.37163328124998,58.0,71.0
592,152.35655208958332,153.17789698958333,62.0,83.0
593,152.91339608958333,153.23706166458334,58.0,88.0
594,153.19181808958334,153.44355798125,53.0,83.0
595,151.52128608958333,153.63033273958334,46.0,76.0
596,153.74866208958332,154.12917215624998,58.0,72.0
597,154.02708408958333,154.4238354395833,53.0,72.0
598,154.30550608958333,154.44471708958332,58.0,82.0
599,154.58392808958334,154.87859137291665,53.0,82.0
600,154.58392808958334,154.90411338958333,62.0,83.0
601,153.74866208958332,155.21965832291664,38.0,82.0
602,155.14077208958332,155.42499454791667,58.0,85.0
603,155.41919408958333,155.61756976458332,53.0,82.0
604,155.69761608958333,155.98415873124998,58.0,84.0
605,156.53288208958332,156.90527151458332,56.0,83.0
606,156.81130408958333,157.43775358958334,63.0,79.0
607,157.08972608958334,157.49691826458331,56.0,35.0
608,155.9760380895833,157.55608293958332,44.0,96.0
609,156.25446008958332,157.57116413125,51.0,76.0
610,157.36814808958331,157.71501549791665,60.0,74.0
611,157.64657008958332,157.97183012083332,68.0,84.0
612,157.92531853749998,158.07415560416663,56.0,89.0
613,158.20438803749997,158.51369006666664,58.0,84.0
614,158.4834575375,159.11485228125,53.0,78.0
615,158.76252703749998,159.16252665416664,62.0,83.0
616,159.04159653749997,159.18927081458332,58.0,84.0
617,159.3206660375,159.3904334125,58.0,72.0
618,159.3206660375,159.49741005416664,53.0,82.0
619,159.3206660375,159.6415959625,62.0,82.0
620,159.59973553749998,159.79740976666665,53.0,79.0
621,159.3206660375,159.81950276874997,65.0,84.0
622,158.20438803749997,160.1241536395833,46.0,82.0
623,159.87880503749997,160.16020011666666,58.0,85.0
624,159.87880503749997,160.16717685416666,62.0,83.0
625,160.1578745375,160.2276419125,53.0,82.0
626,160.43694403749998,160.7744975395833,55.0,77.0
627,160.43694403749998,161.0071361958333,58.0,83.0
628,160.9932473208333,161.12634903958332,55.0,82.0
629,161.2710248208333,161.4944042270833,55.0,89.0
630,161.2710248208333,161.5256541958333,63.0,84.0
631,160.43694403749998,161.9238019458333,39.0,85.0
632,160.7154698208333,161.9272741645833,46.0,70.0
633,161.8265798208333,161.9596815395833,55.0,84.0
634,161.8265798208333,162.1518109770833,58.0,88.0
635,162.10435732083332,162.23977385208332,55.0,78.0
636,162.3821348208333,162.5198661645833,58.0,88.0
637,162.6599123208333,162.9666249770833,55.0,81.0
638,162.6599123208333,163.1633840395833,62.0,84.0
639,163.2154673208333,163.3832912270833,55.0,74.0
640,163.4932448208333,163.8439389145833,58.0,83.0
641,163.4932448208333,163.8879203520833,55.0,82.0
642,163.4932448208333,163.9319017895833,62.0,84.0
643,164.0487998208333,164.33236435208332,58.0,85.0
644,162.9376898208333,164.3450958208333,50.0,73.0
645,162.6599123208333,164.4862993833333,43.0,83.0
646,164.3265773208333,164.6714843833333,55.0,82.0
647,164.6043548208333,164.71546582083332,58.0,75.0
648,164.8821323208333,165.09972469583332,55.0,76.0
649,164.8821323208333,165.2837522895833,63.0,78.0
650,165.1599098208333,165.5001872583333,55.0,81.0
651,165.4376873208333,165.6089834458333,60.0,84.0
652,165.1599098208333,165.9677793833333,43.0,70.0
653,165.7154648208333,166.0302793208333,55.0,83.0
654,164.8821323208333,166.0661589145833,36.0,82.0
655,165.7154648208333,166.0812051958333,63.0,87.0
656,166.27101982083332,166.38676044583332,55.0,77.0
657,166.27101982083332,166.4562048208333,60.0,80.0
658,166.5487973208333,167.1031949145833,55.0,83.0
659,166.82657482083332,167.11476897708332,60.0,77.0
660,167.1043523208333,167.4261112583333,55.0,78.0
661,167.1043523208333,167.9295829770833,62.0,78.0
662,167.3821298208333,168.1390735083333,50.0,72.0
663,167.6599073208333,168.2814344770833,55.0,88.0
664,167.9376848208333,168.3462492270833,58.0,85.0
665,168.2154623208333,168.5858323208333,50.0,65.0
666,168.4932398208333,168.8011098833333,55.0,83.0
667,167.1043523208333,169.0210170708333,43.0,82.0
668,168.4932398208333,169.0719429458333,62.0,83.0
669,168.7710173208333,169.0788873833333,50.0,80.0
670,169.0487948208333,169.32194269583331,55.0,84.0
671,169.3265723208333,169.93768282083332,60.0,82.0
672,169.8821273208333,170.0244882895833,56.0,82.0
673,170.1599048208333,170.53258963333332,56.0,84.0
674,169.6043498208333,170.5349044458333,51.0,65.0
675,170.1599048208333,170.7895338208333,60.0,83.0
676,169.3265723208333,171.0233298833333,44.0,84.0
677,170.99323732083332,171.1587464145833,51.0,74.0
678,170.7154598208333,171.2305056020833,56.0,91.0
679,171.54879232083331,172.0730973520833,58.0,82.0
680,171.8265698208333,172.4643006645833,50.0,82.0
681,172.1043473208333,172.49207841458332,55.0,86.0
682,171.54879232083331,172.5314302270833,43.0,84.0
683,172.3821248208333,172.5430042895833,58.0,83.0
684,172.6599023208333,172.8381428833333,55.0,82.0
685,172.6599023208333,173.0511056333333,63.0,80.0
686,172.9376798208333,173.2744850395833,55.0,84.0
687,172.6599023208333,173.3022627895833,48.0,83.0
688,173.2154573208333,173.4446237583333,60.0,84.0
689,173.4932348208333,173.5615217895833,55.0,72.0
690,173.7710123208333,174.0800397895833,53.0,77.0
691,173.7710123208333,174.2721692270833,60.0,78.0
692,174.3265673208333,174.4943912270833,53.0,85.0
693,174.6043448208333,175.0152240395833,53.0,78.0
694,174.6043448208333,175.0372147583333,60.0,86.0
695,175.1598998208333,175.3149922583333,53.0,77.0
696,174.0487898208333,175.3763347895833,48.0,78.0
697,173.7710123208333,175.4156866020833,41.0,83.0
698,175.4376773208333,175.6101308520833,53.0,84.0
699,175.1598998208333,175.6737881958333,65.0,83.0
700,175.9932323208333,176.2814264770833,58.0,87.0
701,176.2710098208333,176.6506390708333,53.0,83.0
702,176.5487873208333,176.6633705395833,58.0,81.0
703,176.8265648208333,177.0962404770833,53.0,77.0
704,176.8265648208333,177.1448515395833,62.0,83.0
705,175.9932323208333,177.5372122583333,46.0,85.0
706,177.3821198208333,177.5673048208333,53.0,84.0
707,177.3821198208333,177.9596655395833,58.0,88.0
708,177.9376748208333,178.2027208520833,53.0,89.0
709,177.6598973208333,178.2351282270833,46.0,85.0
710,178.2154523208333,178.8149887583333,58.0,77.0
711,178.7710073208333,179.5256361958333,55.0,86.0
712,179.0487848208333,179.6541082895833,63.0,89.0
713,178.4932298208333,179.8335062583333,46.0,71.0
714,179.6043398208333,179.9226265395833,58.0,89.0
715,178.2154523208333,179.9700801958333,39.0,80.0
716,179.8821173208333,180.2189225395833,55.0,86.0
717,180.1598948208333,180.7999404770833,58.0,83.0
718,180.9932273208333,181.1193846020833,55.0,83.0
719,181.2710048208333,181.6355877895833,55.0,89.0
720,181.2710048208333,181.6367451958333,62.0,83.0
721,180.7154498208333,181.9179949145833,50.0,77.0
722,181.8265598208333,182.1413743208333,55.0,78.0
723,180.43767232083331,182.1899853833333,43.0,83.0
724,181.8265598208333,182.2895223208333,58.0,84.0
725,182.1043373208333,182.3068834145833,50.0,84.0
726,181.8265598208333,182.3346611645833,62.0,83.0
727,182.3821148208333,182.6552626958333,55.0,86.0
728,182.6598923208333,183.3068824145833,60.0,82.0
729,183.2154473208333,183.3520212583333,56.0,75.0
730,183.4932248208333,183.8277152270833,56.0,88.0
731,182.9376698208333,183.9770206333333,51.0,67.0
732,182.6598923208333,184.1992426333333,44.0,86.0
733,184.04877982083332,184.2953073520833,56.0,88.0
734,183.4932248208333,184.3126684458333,60.0,84.0
735,184.3265573208333,184.4527146020833,51.0,83.0
736,184.60433482083332,184.8045661020833,55.0,76.0
737,184.8821123208333,185.1911397895833,55.0,79.0
738,184.8821123208333,185.3728525708333,62.0,82.0
739,185.4376673208333,185.6066486333333,55.0,85.0
740,185.1598898208333,185.8439169145833,50.0,76.0
741,184.8821123208333,185.9723890083333,43.0,83.0
742,185.7154448208333,186.08350000833332,55.0,83.0
743,185.7154448208333,186.3346571645833,62.0,82.0
744,186.2709998208333,186.4214626333333,55.0,85.0
745,186.5487773208333,186.8589621958333,50.0,81.0
746,186.5487773208333,186.9110454770833,43.0,78.0
747,186.8265548208333,186.9990083520833,58.0,79.0
748,187.1043323208333,187.6656743520833,60.0,70.0
749,187.6598873208333,187.82886863333331,53.0,82.0
750,187.9376648208333,188.2929885395833,53.0,83.0
751,187.9376648208333,188.34738663333331,60.0,83.0
752,187.3821098208333,188.7490066020833,48.0,76.0
753,188.4932198208333,188.7906732270833,56.0,91.0
754,187.1043323208333,188.7953028520833,41.0,83.0
755,188.77099732083332,188.88558053958332,53.0,83.0
756,189.32655232083331,189.6089594458333,55.0,80.0
757,189.32655232083331,189.8415981020833,58.0,78.0
758,189.8821073208333,190.2328014145833,55.0,84.0
759,189.6043298208333,190.2571069458333,50.0,78.0
760,190.1598848208333,190.2744680395833,58.0,83.0
761,189.32655232083331,190.2883569145833,43.0,83.0
762,190.4376623208333,190.6332639770833,55.0,78.0
763,190.4376623208333,191.0059487895833,63.0,83.0
764,190.7154398208333,191.0406709770833,55.0,81.0
765,190.4376623208333,191.1436801333333,48.0,83.0
766,190.9932173208333,191.2177541333333,60.0,82.0
767,191.5487723208333,191.8577997895833,53.0,76.0
768,191.5487723208333,192.1355772895833,60.0,78.0
769,191.8265498208333,192.5036324770833,48.0,76.0
770,191.5487723208333,192.5175213520833,41.0,83.0
771,192.1043273208333,192.5279380083333,53.0,83.0
772,192.6598823208333,193.0267801020833,58.0,82.0
773,192.9376598208333,193.2096502895833,53.0,85.0
774,192.6598823208333,193.2744650395833,46.0,88.0
775,193.49321482083332,193.5915943520833,53.0,82.0
776,193.2154373208333,193.7964552583333,62.0,82.0
777,193.7709923208333,194.3936768833333,58.0,74.0
778,194.3265473208333,194.5800192895833,55.0,81.0
779,194.6043248208333,194.8508523520833,63.0,86.0
780,194.04876982083331,195.30108338333332,46.0,65.0
781,195.1598798208333,195.5406664770833,55.0,84.0
782,193.7709923208333,195.6286293520833,39.0,78.0
783,195.4376573208333,195.8439069145833,46.0,73.0
784,195.1598798208333,195.9839530708333,58.0,85.0
785,195.7154348208333,196.0614992895833,55.0,85.0
786,195.9932123208333,196.0614992895833,55.0,77.0
787,195.9932123208333,196.5626561958333,58.0,83.0
788,196.5487673208333,196.68186903958332,55.0,82.0
789,196.8265448208333,197.0499242270833,55.0,89.0
790,196.8265448208333,197.0811741958333,63.0,84.0
791,195.9932123208333,197.4793219458333,39.0,85.0
792,196.2709898208333,197.4827941645833,46.0,70.0
793,197.3820998208333,197.5152015395833,55.0,84.0
794,197.3820998208333,197.7073309770833,58.0,88.0
795,197.6598773208333,197.79529385208332,55.0,78.0
796,197.9376548208333,198.0753861645833,58.0,88.0
797,198.21543232083332,198.52214497708331,55.0,81.0
798,198.21543232083332,198.7189040395833,62.0,84.0
799,198.7709873208333,198.9388112270833,55.0,74.0
800,199.0487648208333,199.3994589145833,58.0,83.0
801,199.0487648208333,199.44344035208331,55.0,82.0
802,199.0487648208333,199.4874217895833,62.0,84.0
803,199.6043198208333,199.8878843520833,58.0,85.0
804,198.4932098208333,199.9006158208333,50.0,73.0
805,198.21543232083332,200.0418193833333,43.0,83.0
806,199.8820973208333,200.2270043833333,55.0,82.0
807,200.1598748208333,200.2709858208333,58.0,75.0
808,200.4376523208333,200.6552446958333,55.0,76.0
809,200.4376523208333,200.8392722895833,63.0,78.0
810,200.71542982083332,201.0557072583333,55.0,81.0
811,200.9932073208333,201.1645034458333,60.0,84.0
812,200.71542982083332,201.5232993833333,43.0,70.0
813,201.2709848208333,201.5857993208333,55.0,83.0
814,200.4376523208333,201.6216789145833,36.0,82.0
815,201.2709848208333,201.63672519583332,63.0,87.0
816,201.82653982083332,201.94228044583332,55.0,77.0
817,201.82653982083332,202.0117248208333,60.0,80.0
818,202.1043173208333,202.6587149145833,55.0,83.0
819,202.3820948208333,202.67028897708332,60.0,77.0
820,202.6598723208333,202.9816312583333,55.0,78.0
821,202.6598723208333,203.4851029770833,62.0,78.0
822,202.93764982083331,203.6945935083333,50.0,72.0
823,203.2154273208333,203.8369544770833,55.0,88.0
824,203.4932048208333,203.90176922708332,58.0,85.0
825,203.7709823208333,204.1413523208333,50.0,65.0
826,204.0487598208333,204.3566298833333,55.0,83.0
827,202.6598723208333,204.5765370708333,43.0,82.0
828,204.0487598208333,204.62746294583332,62.0,83.0
829,204.3265373208333,204.6344073833333,50.0,80.0
830,204.6043148208333,204.8774626958333,55.0,84.0
831,204.8820923208333,205.4932028208333,60.0,82.0
832,205.43764732083332,205.5800082895833,56.0,82.0
833,205.7154248208333,206.08810963333332,56.0,84.0
834,205.1598698208333,206.09042444583332,51.0,65.0
835,205.7154248208333,206.3450538208333,60.0,83.0
836,204.8820923208333,206.5788498833333,44.0,84.0
837,206.54875732083332,206.7142664145833,51.0,74.0
838,206.2709798208333,206.7860256020833,56.0,91.0
839,207.1043123208333,207.6286173520833,58.0,82.0
840,207.3820898208333,208.0198206645833,50.0,82.0
841,207.6598673208333,208.04759841458332,55.0,86.0
842,207.1043123208333,208.08695022708332,43.0,84.0
843,207.9376448208333,208.0985242895833,58.0,83.0
844,208.2154223208333,208.39366288333332,55.0,82.0
845,208.2154223208333,208.6066256333333,63.0,80.0
846,208.4931998208333,208.8300050395833,55.0,84.0
847,208.2154223208333,208.8577827895833,48.0,83.0
848,208.7709773208333,209.0001437583333,60.0,84.0
849,209.0487548208333,209.1170417895833,55.0,72.0
850,209.3265323208333,209.6355597895833,53.0,77.0
851,209.3265323208333,209.8276892270833,60.0,78.0
852,209.8820873208333,210.0499112270833,53.0,85.0
853,210.15986482083332,210.5707440395833,53.0,78.0
854,210.15986482083332,210.5927347583333,60.0,86.0
855,210.7154198208333,210.8705122583333,53.0,77.0
856,209.6043098208333,210.9318547895833,48.0,78.0
857,209.3265323208333,210.9712066020833,41.0,83.0
858,210.9931973208333,211.1656508520833,53.0,84.0
859,210.7154198208333,211.2293081958333,65.0,83.0
860,211.5487523208333,211.8369464770833,58.0,87.0
861,211.8265298208333,212.2061590708333,53.0,83.0
862,212.1043073208333,212.2188905395833,58.0,81.0
863,212.3820848208333,212.65176047708331,53.0,77.0
864,212.3820848208333,212.7003715395833,62.0,83.0
865,211.5487523208333,213.0927322583333,46.0,85.0
866,212.9376398208333,213.1228248208333,53.0,84.0
867,212.9376398208333,213.5151855395833,58.0,88.0
868,213.4931948208333,213.7582408520833,53.0,89.0
869,213.2154173208333,213.7906482270833,46.0,85.0
870,213.7709723208333,214.3705087583333,58.0,77.0
871,214.3265273208333,215.0811561958333,55.0,86.0
872,214.6043048208333,215.2096282895833,63.0,89.0
873,214.0487498208333,215.3890262583333,46.0,71.0
874,215.1598598208333,215.4781465395833,58.0,89.0
875,213.7709723208333,215.5256001958333,39.0,80.0
876,215.4376373208333,215.7744425395833,55.0,86.0
877,215.7154148208333,216.3554604770833,58.0,83.0
878,216.54874732083331,216.6749046020833,55.0,83.0
879,216.8265248208333,217.1911077895833,55.0,89.0
880,216.8265248208333,217.1922651958333,62.0,83.0
881,216.2709698208333,217.4735149145833,50.0,77.0
882,217.3820798208333,217.6968943208333,55.0,78.0
883,215.99319232083332,217.7455053833333,43.0,83.0
884,217.3820798208333,217.8450423208333,58.0,84.0
885,217.6598573208333,217.8624034145833,50.0,84.0
886,217.3820798208333,217.8901811645833,62.0,83.0
887,217.9376348208333,218.2107826958333,55.0,86.0
888,218.2154123208333,218.8624024145833,60.0,82.0
889,218.7709673208333,218.9075412583333,56.0,75.0
890,219.0487448208333,219.3832352270833,56.0,88.0
891,218.4931898208333,219.5325406333333,51.0,67.0
892,218.2154123208333,219.7547626333333,44.0,86.0
893,219.60429982083332,219.85082735208331,56.0,88.0
894,219.0487448208333,219.8681884458333,60.0,84.0
895,219.8820773208333,220.0082346020833,51.0,83.0
896,220.1598548208333,220.3600861020833,55.0,76.0
897,220.4376323208333,220.7466597895833,55.0,79.0
898,220.4376323208333,220.9283725708333,62.0,82.0
899,220.9931873208333,221.1621686333333,55.0,85.0
900,220.71540982083332,221.3994369145833,50.0,76.0
901,220.4376323208333,221.5279090083333,43.0,83.0
902,221.2709648208333,221.63902000833332,55.0,83.0
903,221.2709648208333,221.8901771645833,62.0,82.0
904,221.8265198208333,221.9769826333333,55.0,85.0
905,222.1042973208333,222.4144821958333,50.0,81.0
906,222.1042973208333,222.4665654770833,43.0,78.0
907,222.3820748208333,222.5545283520833,58.0,79.0
908,222.6598523208333,223.2211943520833,60.0,70.0
909,223.21540732083332,223.3843886333333,53.0,82.0
910,223.4931848208333,223.8485085395833,53.0,83.0
911,223.4931848208333,223.90290663333332,60.0,83.0
912,222.9376298208333,224.3045266020833,48.0,76.0
913,224.0487398208333,224.3461932270833,56.0,91.0
914,222.6598523208333,224.3508228520833,41.0,83.0
915,224.32651732083332,224.44110053958332,53.0,83.0
916,224.8820723208333,225.1644794458333,55.0,80.0
917,224.8820723208333,225.3971181020833,58.0,78.0
918,225.43762732083331,225.78832141458332,55.0,84.0
919,225.1598498208333,225.8126269458333,50.0,78.0
920,225.7154048208333,225.8299880395833,58.0,83.0
921,224.8820723208333,225.8438769145833,43.0,83.0
922,225.99318232083328,226.1887839770833,55.0,78.0
923,225.99318232083328,226.5614687895833,63.0,83.0
924,226.2709598208333,226.59619097708332,55.0,81.0
925,225.99318232083328,226.6992001333333,48.0,83.0
926,226.5487373208333,226.7732741333333,60.0,82.0
927,227.1042923208333,227.41331978958328,53.0,76.0
928,227.1042923208333,227.6910972895833,60.0,78.0
929,227.3820698208333,228.0591524770833,48.0,76.0
930,227.1042923208333,228.0730413520833,41.0,83.0
931,227.6598473208333,228.0834580083333,53.0,83.0
932,228.2154023208333,228.5823001020833,58.0,82.0
933,228.4931798208333,228.7651702895833,53.0,85.0
934,228.2154023208333,228.8299850395833,46.0,88.0
935,229.04873482083332,229.1471143520833,53.0,82.0
936,228.7709573208333,229.3519752583333,62.0,82.0
937,229.3265123208333,229.9491968833333,58.0,74.0
938,229.8820673208333,230.1355392895833,55.0,81.0
939,230.1598448208333,230.4063723520833,63.0,86.0
940,229.6042898208333,230.85660338333332,46.0,65.0
941,230.71539982083328,231.0961864770833,55.0,84.0
942,229.3265123208333,231.1841493520833,39.0,78.0
943,230.9931773208333,231.3994269145833,46.0,73.0
944,230.71539982083328,231.5394730708333,58.0,85.0
945,231.2709548208333,231.6170192895833,55.0,85.0
946,231.5290564145833,233.23854544583332,39.0,84.0
947,231.8276672270833,233.2524343208333,46.0,61.0
948,232.0927132583333,233.3785916020833,51.0,74.0
949,232.3635463208333,233.42604525833332,63.0,81.0
950,234.3265073208333,234.8369234770833,56.0,68.0
951,234.6042848208333,234.96308075833332,63.0,71.0
952,235.1598398208333,235.6667837583333,63.0,70.0
953,233.77095232083332,235.84618172708332,44.0,85.0
954,234.0487298208333,235.8577557895833,51.0,55.0
955,235.7153948208333,236.1459499458333,56.0,53.0
956,236.5487273208333,236.8994214145833,56.0,79.0
957,236.8265048208333,236.9688657895833,63.0,80.0
958,235.9931723208333,237.53830966458332,44.0,68.0
959,236.27094982083332,237.61585588333332,51.0,62.0
960,237.38205982083332,238.01168882083329,68.0,76.0
961,237.6598373208333,238.1748831020833,56.0,82.0
962,237.9376148208333,238.2107626958333,63.0,70.0
963,238.7709473208333,239.0915488520833,51.0,55.0
964,239.04872482083329,239.2744190395833,58.0,70.0
965,239.6042798208333,239.88089991458332,58.0,69.0
966,239.8820573208333,240.26168657083332,51.0,61.0
967,238.49316982083332,240.30103838333332,46.0,51.0
968,238.2153923208333,240.3334457583333,39.0,83.0
969,240.1598348208333,241.0394635708333,63.0,79.0
970,240.99316732083332,241.3565928833333,58.0,75.0
971,240.4376123208333,241.4237224458333,39.0,67.0
972,240.7153898208333,241.4341391020833,46.0,65.0
973,241.2709448208333,241.7813609770833,51.0,83.0
974,241.8264998208333,241.95149969583332,63.0,80.0
975,242.6598323208333,242.8033506958333,53.0,72.0
976,242.6598323208333,243.2246465708333,60.0,78.0
977,243.21538732083332,244.0903864458333,53.0,74.0
978,243.4931648208333,244.3612195083333,60.0,82.0
979,242.9376098208333,245.28945932083332,48.0,68.0
980,244.3264973208333,245.7987180708333,53.0,69.0
981,244.0487198208333,246.01978266458332,65.0,79.0
982,244.60427482083333,246.06144928958332,60.0,78.0
983,245.9931623208333,246.34269900833328,53.0,79.0
984,245.71538482083332,246.34385641458329,48.0,62.0
985,242.6598323208333,246.40172672708331,41.0,75.0
986,246.2709398208333,246.6216339145833,60.0,84.0
987,246.82649482083332,247.0533464458333,53.0,75.0
988,246.5487173208333,247.0776519770833,65.0,82.0
989,247.1042723208333,247.7234846645833,58.0,74.0
990,247.1042723208333,248.0105214145833,62.0,78.0
991,247.93760482083331,248.3322803520833,58.0,78.0
992,248.49315982083328,248.6621411333333,58.0,76.0
993,248.49315982083328,248.9954741333333,65.0,83.0
994,247.1042723208333,249.1424647270833,46.0,74.0
995,247.6598273208333,249.17371469583333,53.0,55.0
996,249.0487148208333,249.6123716645833,58.0,81.0
997,249.8820473208333,249.97579722708332,58.0,55.0
998,249.32649232083332,251.5082031020833,46.0,75.0
999,250.1598248208333,251.50936050833332,58.0,83.0
1000,249.6042698208333,251.5186197583333,53.0,69.0
1001,250.1598248208333,251.5313512270833,65.0,81.0
1002,251.97348041458332,253.2130625083333,51.0,70.0
1003,252.5915353520833,253.27556244583332,58.0,67.0
1004,252.2477856958333,253.28019207083332,55.0,77.0
1005,253.1031089145833,253.4063493520833,63.0,62.0
1006,254.50357047708331,254.6783388208333,75.0,48.0
1007,254.6401444145833,254.7246350708333,79.0,57.0
1008,254.6737091958333,254.8183849770833,87.0,73.0
1009,251.6876010708333,255.4341251020833,46.0,59.0
1010,251.27903666458332,255.44338435208329,39.0,82.0
