,start,end,pitch,velocity
0,19.674244391666665,19.753789854166666,66.0,87.0
1,19.901517141666666,19.98295654375,66.0,87.0
2,20.128789891666667,20.68750206875,66.0,87.0
3,20.810608141666666,20.964017247916665,65.0,87.0
4,21.037880891666667,21.185608179166667,66.0,87.0
5,21.265153641666668,21.473486995833333,65.0,87.0
6,21.492426391666665,21.935608254166667,63.0,87.0
7,22.401517391666665,22.666668933333334,66.0,87.0
8,22.628790141666666,22.8295477375,68.0,87.0
9,22.856062891666667,23.100381097916667,70.0,87.0
10,23.310608391666666,23.52841144375,70.0,87.0
11,23.765153891666667,24.214017572916667,70.0,87.0
12,24.219699391666666,24.473487295833333,68.0,87.0
13,24.446972141666667,25.613638925,70.0,87.0
14,26.939396633333335,27.022729975,68.0,87.0
15,27.166669383333332,27.253790604166667,68.0,87.0
16,27.393942133333333,28.155305845833333,68.0,87.0
17,28.083336141666667,28.257578583333334,70.0,87.0
18,28.310608891666668,28.770836210416668,71.0,87.0
19,28.765154391666666,28.950760470833334,70.0,87.0
20,28.992427141666667,29.621215083333333,68.0,87.0
21,29.674245391666666,29.787881766666665,63.0,87.0
22,29.901518141666667,30.05871512708333,63.0,87.0
23,30.128790891666668,30.484851533333334,66.0,87.0
24,30.583336391666666,30.799245504166667,66.0,87.0
25,31.037881891666668,31.339018285416667,66.0,87.0
26,31.492427391666666,31.71023044375,70.0,87.0
27,31.719700141666667,33.36932151875,68.0,87.0
28,34.21970039166666,34.293564035416665,66.0,87.0
29,34.44697314166667,34.52083678541667,66.0,87.0
30,34.674245891666665,35.08144290208333,66.0,87.0
31,35.356064141666664,35.615533864583334,66.0,87.0
32,35.58333689166667,35.78030660833333,68.0,87.0
33,35.810609641666666,35.98295814375,66.0,87.0
34,36.03788239166666,36.26515514166667,65.0,87.0
35,36.26515514166667,36.865533989583334,63.0,87.0
36,36.94697339166667,37.15720068541667,66.0,87.0
37,37.174246141666664,37.27462493958333,68.0,87.0
38,37.40151889166667,37.61174618541666,70.0,87.0
39,37.85606439166666,38.07007956458333,70.0,87.0
40,38.310609891666665,38.77273115,70.0,87.0
41,38.76515539166667,39.030306933333335,73.0,87.0
42,38.992428141666664,39.138261489583336,70.0,87.0
43,40.58333739166667,40.82197377916667,70.0,87.0
44,40.810610141666665,40.99432228125,73.0,87.0
45,41.03788289166667,41.49053445208333,75.0,87.0
46,41.492428391666664,41.95644358958333,73.0,87.0
47,41.946973891666666,42.64015577916667,71.0,87.0
48,42.85606489166667,43.27083766041667,73.0,87.0
49,43.310610391666664,43.615534664583336,70.0,87.0
50,43.765155891666666,44.431822625,70.0,87.0
51,44.446974141666665,44.61932264375,66.0,87.0
52,44.67424689166667,44.78788326666667,68.0,87.0
53,44.90151964166667,44.97538328541667,68.0,87.0
54,45.128792391666664,45.3636409,68.0,87.0
55,45.35606514166667,45.537883341666664,70.0,87.0
56,45.583337891666666,45.73106517916667,68.0,87.0
57,45.81061064166666,46.18939855833333,70.0,87.0
58,46.265156141666665,47.340913825,71.0,87.0
59,48.083338141666665,48.31629271041667,68.0,87.0
60,48.31061089166667,48.57008061458333,70.0,87.0
61,48.765156391666665,48.96023216875,70.0,87.0
62,48.99242914166667,49.2159140125,72.0,87.0
63,49.219701891666666,49.4431867625,74.0,87.0
64,49.67424739166667,49.91098983958333,74.0,87.0
65,49.901520141666666,50.109853495833335,75.0,87.0
66,50.12879289166666,51.38068695625,77.0,87.0
67,51.49242939166667,51.72349002083333,75.0,87.0
68,51.719702141666666,51.928035495833335,77.0,87.0
69,51.94697489166666,52.14205066875,78.0,87.0
70,52.17424764166667,52.26894462083333,75.0,87.0
71,52.401520391666665,52.6477325375,75.0,87.0
72,52.62879314166667,52.83523255625,73.0,87.0
73,52.85606589166667,53.52083868541666,75.0,87.0
74,53.537884141666666,53.87121750833333,73.0,87.0
75,53.99242964166667,54.1022781375,70.0,87.0
76,54.219702391666665,54.4545509,70.0,87.0
77,54.44697514166667,54.68371758958333,68.0,87.0
78,54.67424789166667,55.386369175,70.0,87.0
79,55.58333889166666,55.67614193125,68.0,87.0
80,55.81061164166667,55.893944983333334,68.0,87.0
81,56.037884391666665,56.196975316666666,68.0,87.0
82,56.26515714166667,56.469702616666666,70.0,87.0
83,56.49242989166667,56.791672345833334,68.0,87.0
84,56.719702641666665,57.1022784375,66.0,87.0
85,57.174248141666666,58.166672483333336,63.0,87.0
86,58.76515739166667,59.00189983958333,75.0,87.0
87,58.99243014166667,59.17993016041667,77.0,85.0
88,59.219702891666664,59.43939988333333,78.0,85.0
89,59.44697564166667,59.55114231875,75.0,85.0
90,59.674248391666666,59.80114234375,75.0,85.0
91,59.90152114166666,60.08144540208333,73.0,85.0
92,60.12879389166667,60.558718177083335,75.0,85.0
93,60.81061214166667,61.26705158125,73.0,85.0
94,61.26515764166667,61.36743037916666,70.0,85.0
95,61.492430391666666,61.6704607125,70.0,85.0
96,61.71970314166666,61.901521341666665,68.0,85.0
97,61.94697589166667,62.11932439375,70.0,85.0
98,62.174248641666665,62.53977898125,73.0,85.0
99,62.62879414166667,62.776521429166664,70.0,85.0
100,62.931824475,63.795460925,75.0,85.0
101,66.03788539166666,66.34470360416667,70.0,85.0
102,66.26515814166666,66.46023391875,73.0,85.0
103,66.49243089166667,66.67235515208333,78.0,85.0
104,66.71970364166667,66.80493092291667,75.0,85.0
105,66.94697639166667,67.12121883333333,75.0,85.0
106,67.17424914166666,67.39394613333333,73.0,85.0
107,67.40152189166666,68.0909159,75.0,85.0
108,68.08334014166667,68.47349169583333,73.0,83.0
109,68.53788564166666,68.66856747291666,70.0,83.0
110,68.76515839166666,68.83523415625,70.0,83.0
111,68.99243114166667,69.08334024166666,70.0,83.0
112,68.99243114166667,69.16667358333333,68.0,83.0
113,69.21970389166667,69.97917366458333,70.0,83.0
114,70.12879489166667,70.20076459583333,68.0,83.0
115,70.35606764166667,70.43371916458334,68.0,83.0
116,70.58334039166667,70.74432525625,68.0,83.0
117,70.81061314166666,70.98674952291667,70.0,83.0
118,71.03788589166666,71.31440107083333,68.0,83.0
119,71.26515864166667,71.66667383333333,66.0,83.0
120,71.71970414166667,73.40341643125,63.0,83.0
121,74.21970439166667,74.71970444166666,63.0,83.0
122,74.67424989166666,75.14205296875,66.0,83.0
123,75.12879539166667,75.59281058958334,70.0,83.0
124,75.58334089166667,75.85606819166667,68.0,83.0
125,76.03788639166666,76.18561367916666,73.0,83.0
126,76.26515914166667,76.42803794583334,73.0,83.0
127,76.49243189166667,76.91856829791666,73.0,83.0
128,76.94697739166666,77.39584107291667,70.0,83.0
129,77.40152289166667,78.69508362708333,75.0,83.0
130,84.7272812,85.00379637916667,75.0,83.0
131,84.99243274166666,85.35796308125,73.0,83.0
132,85.35985702083333,85.5568267375,70.0,83.0
133,85.5795540125,85.88069040625,75.0,83.0
134,85.87311464791667,86.26326620208333,73.0,83.0
135,86.2840995375,86.50758440833333,70.0,83.0
136,86.50379652916666,86.78031170833333,75.0,83.0
137,86.77841776875,87.14394810833333,73.0,83.0
138,87.16099356458334,87.28220569791667,70.0,83.0
139,87.42614510625,87.7159178625,70.0,83.0
140,87.8750087875,88.46781187708334,68.0,83.0
141,88.3522815625,91.37122125833334,70.0,83.0
142,91.94697889166666,92.34849408333334,78.0,83.0
143,92.42425166666666,93.56250935625,77.0,83.0
144,93.76516089166667,94.19697911666667,78.0,83.0
145,94.18372153958333,95.43940348333334,77.0,83.0
146,95.37311559791667,95.5113731875,78.0,83.0
147,95.48296409375,95.63069138125,80.0,83.0
148,95.60607016666667,99.56250995625,82.0,83.0
149,103.31061639166667,103.39016185416666,66.0,83.0
150,103.53788914166667,103.61932854375,66.0,83.0
151,103.76516189166666,104.32387406875,66.0,83.0
152,104.44698014166667,104.60038924791667,65.0,83.0
153,104.67425289166667,104.82198017916667,66.0,83.0
154,104.90152564166667,105.10985899583333,65.0,83.0
155,105.12879839166666,105.57198025416666,63.0,83.0
156,106.03788939166667,106.30304093333334,66.0,83.0
157,106.26516214166666,106.4659197375,68.0,83.0
158,106.49243489166666,106.73675309791666,70.0,83.0
159,106.94698039166667,107.16478344375,70.0,83.0
160,107.40152589166667,107.85038957291667,70.0,83.0
161,107.85607139166666,108.10985929583333,68.0,83.0
162,108.08334414166667,109.250010925,70.0,83.0
163,110.58334439166667,110.66478379375,68.0,83.0
164,110.81061714166667,110.8977383625,68.0,83.0
165,111.03788989166667,111.79735966458334,68.0,83.0
166,111.71970814166667,111.89395058333334,70.0,83.0
167,111.94698089166667,112.40720821041667,71.0,83.0
168,112.40152639166666,112.58713247083334,70.0,83.0
169,112.62879914166666,113.25758708333333,68.0,83.0
170,113.31061739166667,113.42425376666667,63.0,83.0
171,113.53789014166667,113.69508712708333,63.0,83.0
172,113.76516289166666,114.12122353333334,66.0,83.0
173,114.21970839166667,114.43561750416667,66.0,83.0
174,114.67425389166667,114.97539028541667,66.0,83.0
175,115.12879939166666,115.34660244375,70.0,83.0
176,115.35607214166667,117.00569351875,68.0,83.0
177,117.85607239166667,117.92993603541666,66.0,83.0
178,118.08334514166667,118.15720878541667,66.0,83.0
179,118.31061789166667,118.71781490208333,66.0,83.0
180,118.99243614166667,119.25190586458334,66.0,83.0
181,119.21970889166667,119.41667860833333,68.0,83.0
182,119.44698164166667,119.61933014375,66.0,83.0
183,119.67425439166666,119.90152714166666,65.0,83.0
184,119.90152714166666,120.50190598958334,63.0,83.0
185,120.58334539166667,120.79357268541666,66.0,83.0
186,120.81061814166667,120.91099693958333,68.0,83.0
187,121.03789089166666,121.24811818541667,70.0,83.0
188,121.49243639166667,121.70645156458333,70.0,83.0
189,121.94698189166667,122.40910314999999,70.0,83.0
190,122.40152739166666,122.66667893333333,73.0,83.0
191,122.62880014166667,122.77463348958334,70.0,83.0
192,124.21970939166667,124.45834577916666,70.0,83.0
193,124.44698214166667,124.63069428125,73.0,83.0
194,124.67425489166666,125.12690645208333,75.0,83.0
195,125.12880039166667,125.59281558958334,73.0,83.0
196,125.58334589166667,126.27652777916667,71.0,83.0
197,126.30304293333333,126.71781570208333,71.0,83.0
198,126.49243689166667,126.90720966041667,73.0,83.0
199,126.94698239166667,127.25190666458333,71.0,83.0
200,127.40152789166666,128.068194625,70.0,83.0
201,128.08334614166665,128.25569464375,66.0,83.0
202,128.31061889166668,128.42425526666668,68.0,83.0
203,128.53789164166668,128.61175528541668,68.0,83.0
204,128.76516439166667,129.0000129,68.0,83.0
205,128.99243714166667,129.17425534166668,70.0,83.0
206,129.21970989166667,129.36743717916667,68.0,83.0
207,129.44698264166666,129.82577055833335,70.0,83.0
208,129.90152814166666,130.977285825,71.0,83.0
209,131.71971014166667,131.95266471041666,68.0,83.0
210,131.94698289166666,132.20645261458333,70.0,83.0
211,132.40152839166666,132.59660416875,70.0,83.0
212,132.62880114166666,132.8522860125,72.0,83.0
213,132.85607389166665,133.0795587625,74.0,83.0
214,133.31061939166668,133.54736183958335,74.0,83.0
215,133.53789214166667,133.74622549583333,75.0,83.0
216,133.76516489166667,135.01705895625,77.0,83.0
217,135.12880139166666,135.35986202083333,75.0,83.0
218,135.35607414166665,135.56440749583334,77.0,83.0
219,135.58334689166668,135.77842266875,78.0,83.0
220,135.81061964166668,135.90531662083333,75.0,83.0
221,136.03789239166667,136.2841045375,75.0,83.0
222,136.26516514166667,136.47160455624999,73.0,83.0
223,136.49243789166667,137.15721068541666,75.0,83.0
224,137.17425614166666,137.50758950833333,73.0,83.0
225,137.62880164166666,137.7386501375,70.0,83.0
226,137.85607439166665,138.0909229,70.0,83.0
227,138.08334714166668,138.32008958958335,68.0,83.0
228,138.31061989166668,139.022741175,70.0,83.0
229,139.21971089166667,139.31251393125,68.0,83.0
230,139.44698364166666,139.53031698333334,68.0,83.0
231,139.67425639166666,139.83334731666667,68.0,83.0
232,139.90152914166666,140.10607461666666,70.0,83.0
233,140.12880189166665,140.42804434583334,68.0,83.0
234,140.35607464166668,140.7386504375,66.0,83.0
235,140.81062014166667,141.80304448333334,63.0,83.0
236,142.40152939166666,142.63827183958333,75.0,83.0
237,142.62880214166665,142.81630216041665,77.0,83.0
238,142.85607489166668,143.07577188333335,78.0,83.0
239,143.08334764166668,143.18751431875,75.0,83.0
240,143.31062039166667,143.43751434375,75.0,83.0
241,143.53789314166667,143.71781740208334,73.0,83.0
242,143.76516589166667,144.19509017708333,75.0,83.0
243,144.44698414166666,144.90342358125,73.0,83.0
244,144.90152964166666,145.00380237916667,70.0,83.0
245,145.12880239166665,145.3068327125,70.0,83.0
246,145.35607514166668,145.53789334166666,68.0,83.0
247,145.58334789166668,145.75569639375,70.0,83.0
248,145.81062064166667,146.17615098125,73.0,83.0
249,146.26516614166667,146.41289342916667,70.0,83.0
250,146.568196475,147.431832925,75.0,83.0
251,149.67425739166666,149.98107560416668,70.0,83.0
252,149.90153014166665,150.09660591875,73.0,83.0
253,150.12880289166665,150.30872715208332,78.0,83.0
254,150.35607564166668,150.44130292291666,75.0,83.0
255,150.58334839166668,150.75759083333332,75.0,83.0
256,150.81062114166667,151.03031813333334,73.0,83.0
257,151.03789389166667,151.7272879,75.0,83.0
258,151.71971214166666,152.10986369583333,73.0,83.0
259,152.17425764166666,152.30493947291666,70.0,83.0
260,152.40153039166665,152.47160615625,70.0,83.0
261,152.62880314166668,152.71971224166666,70.0,83.0
262,152.62880314166668,152.80304558333333,68.0,83.0
263,152.85607589166668,153.61554566458332,70.0,83.0
264,153.76516689166667,153.83713659583333,68.0,83.0
265,153.99243964166666,154.07009116458335,68.0,83.0
266,154.21971239166666,154.38069725625,68.0,83.0
267,154.44698514166666,154.62312152291668,70.0,83.0
268,154.67425789166666,154.95077307083332,68.0,83.0
269,154.90153064166665,155.30304583333333,66.0,83.0
270,155.35607614166668,157.03978843125,63.0,83.0
271,157.85607639166668,158.35607644166666,63.0,83.0
272,158.31062189166667,158.77842496875,66.0,83.0
273,158.76516739166667,159.22918258958333,70.0,83.0
274,159.21971289166666,159.49244019166667,68.0,83.0
275,159.67425839166665,159.82198567916666,73.0,80.0
276,159.90153114166665,160.06440994583332,73.0,80.0
277,160.12880389166668,160.55494029791666,73.0,80.0
278,160.58334939166667,161.03221307291668,70.0,80.0
279,161.03789489166667,162.33145562708333,75.0,80.0
280,164.21971339166666,164.45077402083334,75.0,78.0
281,164.44698614166666,164.65531949583334,77.0,78.0
282,164.67425889166665,164.86933466874999,78.0,78.0
283,164.90153164166668,164.99622862083334,75.0,78.0
284,165.12880439166668,165.3750165375,75.0,78.0
285,165.35607714166667,165.56251655625,73.0,78.0
286,165.58334989166667,166.24812268541666,75.0,78.0
287,166.26516814166666,166.59850150833333,73.0,78.0
288,166.71971364166666,166.8295621375,70.0,78.0
289,166.94698639166666,167.1818349,70.0,78.0
290,167.17425914166665,167.41100158958332,68.0,78.0
291,167.40153189166668,168.113653175,70.0,78.0
292,168.31062289166667,168.40342593125,68.0,78.0
293,168.53789564166667,168.62122898333334,68.0,78.0
294,168.76516839166666,168.92425931666668,68.0,78.0
295,168.99244114166666,169.19698661666666,70.0,78.0
296,169.21971389166666,169.51895634583335,68.0,78.0
297,169.44698664166665,169.8295624375,66.0,78.0
298,169.90153214166668,170.89395648333334,63.0,78.0
299,171.49244139166666,171.72918383958333,75.0,76.0
300,171.71971414166666,171.90721416041666,77.0,76.0
301,171.94698689166665,172.16668388333332,78.0,73.0
302,172.17425964166668,172.27842631875,75.0,73.0
303,172.40153239166668,172.52842634375,75.0,73.0
304,172.62880514166667,172.80872940208334,73.0,73.0
305,172.85607789166667,173.28600217708333,75.0,73.0
306,173.53789614166666,173.99433558125,73.0,73.0
307,173.99244164166666,174.09471437916667,70.0,73.0
308,174.21971439166666,174.39774471249999,70.0,71.0
309,174.44698714166665,174.62880534166666,68.0,71.0
310,174.67425989166668,174.84660839375,70.0,71.0
311,174.90153264166668,175.26706298125,73.0,71.0
312,175.35607814166667,175.50380542916668,70.0,71.0
313,175.58713877083332,176.45077522083332,75.0,71.0
314,177.40153289166668,178.85039667291667,77.0,71.0
315,177.40153289166668,178.85039667291667,77.0,71.0
316,179.21971489166665,179.39963915208332,78.0,71.0
317,179.44698764166665,179.53221492291667,75.0,71.0
318,179.67426039166668,179.84850283333333,75.0,71.0
319,179.90153314166668,180.12123013333334,73.0,71.0
320,180.12880589166667,180.8181999,75.0,71.0
321,180.81062414166666,181.20077569583333,73.0,71.0
322,181.26516964166666,181.39585147291666,70.0,71.0
323,181.49244239166666,181.56251815625,70.0,71.0
324,181.71971514166665,181.81062424166666,70.0,71.0
325,181.71971514166665,181.89395758333333,68.0,71.0
326,181.94698789166668,182.70645766458333,70.0,71.0
327,182.85607889166667,182.92804859583333,68.0,71.0
328,183.08335164166667,183.16100316458332,68.0,71.0
329,183.31062439166666,183.47160925625,68.0,71.0
330,183.53789714166666,183.71403352291668,70.0,71.0
331,183.76516989166666,184.04168507083332,68.0,71.0
332,183.99244264166666,184.39395783333333,66.0,71.0
333,184.44698814166668,186.13070043125,63.0,71.0
334,186.94698839166668,187.44698844166666,63.0,71.0
335,187.40153389166667,187.86933696875,66.0,71.0
336,187.85607939166667,188.32009458958333,70.0,71.0
337,188.31062489166666,188.58335219166668,68.0,71.0
338,188.76517039166666,189.00191283958333,73.0,71.0
339,189.204564375,189.63070078125,73.0,71.0
340,189.67426139166668,190.12312507291668,70.0,71.0
341,190.12880689166667,191.43187182291666,75.0,71.0
