,start,end,pitch,velocity
0,5.128788391666666,5.66477329375,51.0,87.0
1,5.583333891666666,5.7840914875,63.0,87.0
2,5.583333891666666,5.785985427083333,58.0,87.0
3,5.583333891666666,5.804924822916667,66.0,87.0
4,4.674242891666666,5.931818775,39.0,87.0
5,5.810606641666666,6.304924872916667,51.0,87.0
6,6.037879391666666,6.356061241666667,58.0,86.0
7,6.2651521416666665,6.5511370187499995,63.0,87.0
8,6.9469703916666665,7.4526522604166665,54.0,86.0
9,7.401515891666667,7.645834097916667,61.0,87.0
10,7.401515891666667,7.666667433333333,70.0,87.0
11,7.401515891666667,7.742425016666667,66.0,87.0
12,6.4924248916666665,7.8484856333333335,42.0,87.0
13,7.856061391666667,7.9242432166666665,70.0,86.0
14,7.628788641666667,8.151515966666667,54.0,87.0
15,7.856061391666667,8.179925060416666,61.0,87.0
16,8.083334141666667,8.1931826375,70.0,84.0
17,8.083334141666667,8.2840917375,66.0,82.0
18,9.219697891666666,9.429925185416666,68.0,87.0
19,9.219697891666666,9.439394883333334,60.0,87.0
20,9.219697891666666,9.446970641666667,63.0,87.0
21,8.537879641666667,9.731061579166667,56.0,78.0
22,9.564394895833333,9.81250098125,60.0,87.0
23,9.564394895833333,9.8181828,63.0,87.0
24,9.564394895833333,9.821970679166666,68.0,87.0
25,9.901516141666667,10.070076764583334,63.0,87.0
26,9.901516141666667,10.07386464375,60.0,86.0
27,9.901516141666667,10.077652522916667,68.0,86.0
28,8.310606891666666,10.100379797916666,44.0,87.0
29,9.901516141666667,10.126894952083333,56.0,78.0
30,10.583334391666666,11.100379897916667,54.0,86.0
31,11.037879891666666,11.282198097916666,61.0,87.0
32,11.037879891666666,11.310607191666668,70.0,87.0
33,11.037879891666666,11.350379922916666,66.0,87.0
34,10.128788891666666,11.492425391666666,42.0,87.0
35,11.492425391666666,11.600379947916666,70.0,72.0
36,11.265152641666667,11.759470872916667,54.0,87.0
37,11.492425391666666,11.780304208333334,61.0,87.0
38,11.719698141666667,11.840910275,70.0,76.0
39,11.719698141666667,11.956440589583334,66.0,80.0
40,12.401516391666666,12.86931946875,56.0,86.0
41,12.628789141666667,13.081440702083333,60.0,87.0
42,11.946970891666666,13.250001325,44.0,87.0
43,12.856061891666666,13.30113769375,68.0,87.0
44,12.856061891666666,13.31818315,63.0,87.0
45,13.083334641666667,13.481061954166666,56.0,87.0
46,13.310607391666666,13.615531664583333,60.0,87.0
47,13.537880141666667,13.702652885416667,63.0,87.0
48,14.219698391666666,14.742425716666666,58.0,80.0
49,14.674243891666666,14.952653010416666,62.0,87.0
50,14.674243891666666,15.018940895833333,68.0,87.0
51,14.901516641666667,15.13636515,58.0,87.0
52,13.765152891666666,15.149622727083333,46.0,87.0
53,14.674243891666666,15.16477424375,65.0,87.0
54,15.128789391666666,15.259471222916666,68.0,68.0
55,15.128789391666666,15.43750154375,62.0,87.0
56,15.356062141666667,15.524622764583333,65.0,75.0
57,16.03788039166667,16.651516816666668,51.0,80.0
58,16.492425891666667,16.922350177083334,58.0,87.0
59,16.492425891666667,17.003789579166668,63.0,87.0
60,16.492425891666667,17.009471397916666,66.0,87.0
61,16.946971391666665,17.47159265625,51.0,86.0
62,17.174244141666666,17.878789666666666,58.0,87.0
63,17.628789641666668,17.945077552083333,63.0,87.0
64,18.083335141666666,18.295456375,66.0,87.0
65,17.856062391666665,18.356062441666666,51.0,87.0
66,15.583334891666667,18.65341095625,39.0,87.0
67,18.310607891666667,18.895835222916666,58.0,87.0
68,18.765153391666665,19.030304933333333,63.0,87.0
69,18.537880641666668,19.03788069166667,51.0,87.0
70,18.992426141666666,19.24432010625,66.0,86.0
71,19.674244391666665,20.28598687708333,51.0,74.0
72,20.128789891666667,20.6704566125,66.0,87.0
73,20.128789891666667,20.810608141666666,70.0,87.0
74,20.128789891666667,20.910986939583335,63.0,87.0
75,20.583335391666665,21.0340930125,51.0,80.0
76,21.037880891666667,21.410986989583332,63.0,86.0
77,21.037880891666667,21.431820325,66.0,87.0
78,21.037880891666667,21.4886385125,70.0,87.0
79,21.265153641666668,21.7272749,51.0,87.0
80,21.492426391666665,21.795456725,63.0,87.0
81,21.719699141666666,21.9431840125,66.0,84.0
82,19.219698891666667,22.225381010416665,39.0,87.0
83,21.946971891666667,22.25568404375,70.0,87.0
84,22.174244641666668,22.535987102083332,51.0,87.0
85,22.401517391666665,22.685608329166666,63.0,84.0
86,22.628790141666666,22.839017435416668,66.0,73.0
87,23.310608391666666,23.977275125,54.0,74.0
88,23.765153891666667,24.297350914583333,66.0,87.0
89,23.765153891666667,24.321972129166667,70.0,87.0
90,23.765153891666667,24.325760008333333,61.0,87.0
91,24.219699391666666,24.803032783333332,54.0,71.0
92,24.674244891666667,25.166669183333333,66.0,80.0
93,24.674244891666667,25.185608579166665,61.0,87.0
94,24.674244891666667,25.21401767291667,70.0,87.0
95,25.128790391666666,25.613638925,54.0,80.0
96,25.583335891666668,25.827654097916668,66.0,87.0
97,25.583335891666668,25.833335916666666,70.0,87.0
98,22.856062891666667,25.97348744583333,42.0,87.0
99,25.810608641666665,26.3068208125,54.0,87.0
100,26.037881391666666,26.31818445,61.0,87.0
101,26.265154141666667,26.507578408333334,66.0,87.0
102,26.946972391666666,27.530305783333333,51.0,53.0
103,27.401517891666668,28.013260377083334,56.0,87.0
104,27.401517891666668,28.185608879166665,63.0,87.0
105,27.401517891666668,28.200760395833335,59.0,87.0
106,27.856063391666666,28.4545483,51.0,67.0
107,28.310608891666668,29.00568471875,59.0,87.0
108,28.310608891666668,29.030305933333334,63.0,82.0
109,28.310608891666668,29.032199872916667,56.0,87.0
110,28.765154391666666,29.30113929375,51.0,72.0
111,29.219699891666668,29.479169614583334,56.0,87.0
112,29.219699891666668,29.5113665875,63.0,86.0
113,29.219699891666668,29.543563560416665,59.0,87.0
114,26.492426891666668,29.55113931875,44.0,86.0
115,29.446972641666665,29.689396908333332,51.0,87.0
116,29.674245391666666,29.91477571875,56.0,87.0
117,29.901518141666667,30.10795755625,59.0,76.0
118,30.583336391666666,31.308715252083335,54.0,73.0
119,31.037881891666668,31.606063766666665,59.0,87.0
120,31.037881891666668,31.68182135,63.0,87.0
121,30.128790891666668,31.6931849875,47.0,87.0
122,31.037881891666668,31.696972866666666,66.0,86.0
123,31.492427391666666,31.810609241666665,54.0,78.0
124,31.946972891666668,32.53030628333333,65.0,87.0
125,31.946972891666668,32.61932144375,68.0,73.0
126,31.946972891666668,32.655306295833334,61.0,87.0
127,32.40151839166667,32.941291172916664,56.0,68.0
128,32.856063891666665,33.10416997708333,61.0,87.0
129,32.856063891666665,33.13068513125,68.0,87.0
130,32.856063891666665,33.16477604375,65.0,87.0
131,33.08333664166667,33.293563935416664,56.0,87.0
132,31.946972891666668,33.3295487875,49.0,82.0
133,33.31060939166667,33.60038214791667,61.0,87.0
134,33.31060939166667,33.66667003333333,68.0,72.0
135,33.537882141666664,33.748109435416666,65.0,87.0
136,34.21970039166666,34.89394288333333,51.0,87.0
137,34.674245891666665,35.22159443125,63.0,87.0
138,34.674245891666665,35.27841261875,66.0,87.0
139,34.674245891666665,35.39015505416667,58.0,87.0
140,35.12879139166667,35.759473272916665,51.0,86.0
141,35.58333689166667,36.117427854166664,63.0,87.0
142,35.58333689166667,36.30303393333333,66.0,87.0
143,35.58333689166667,36.32576120833333,58.0,87.0
144,36.03788239166666,36.592806689583334,51.0,67.0
145,36.492427891666665,36.70644306458333,63.0,87.0
146,36.492427891666665,36.76326125208333,66.0,87.0
147,36.492427891666665,36.79924610416666,58.0,87.0
148,33.76515489166667,36.86364005,39.0,87.0
149,36.71970064166667,37.159094625,51.0,87.0
150,36.94697339166667,37.217806752083334,58.0,87.0
151,37.174246141666664,37.41098858958333,63.0,87.0
152,37.85606439166666,38.42614020625,54.0,78.0
153,38.310609891666665,38.79735236458333,66.0,87.0
154,38.310609891666665,38.82197357916667,61.0,87.0
155,38.310609891666665,38.837125095833336,70.0,87.0
156,38.76515539166667,39.38447363541667,54.0,76.0
157,39.21970089166667,39.7613676125,61.0,87.0
158,39.21970089166667,39.79356458541667,66.0,87.0
159,39.21970089166667,39.814397920833336,70.0,87.0
160,39.674246391666664,40.11742825416667,54.0,87.0
161,40.128791891666665,40.481064654166666,66.0,87.0
162,37.40151889166667,40.4886404125,42.0,87.0
163,40.35606464166667,40.638261639583334,54.0,87.0
164,40.58333739166667,40.83144347708333,61.0,87.0
165,40.58333739166667,40.88447378541667,70.0,54.0
166,40.810610141666665,41.013261677083335,66.0,80.0
167,41.492428391666664,42.03030723333333,54.0,87.0
168,41.946973891666666,42.24432240625,63.0,87.0
169,41.03788289166667,42.57008001458333,47.0,87.0
170,41.946973891666666,42.5795497125,71.0,87.0
171,41.946973891666666,42.61932244375,66.0,87.0
172,42.40151939166667,42.685610329166664,54.0,87.0
173,42.628792141666665,42.89394368333333,63.0,84.0
174,43.310610391666664,43.80303468333333,54.0,87.0
175,43.765155891666666,43.986746822916665,61.0,87.0
176,43.765155891666666,44.06061046666667,66.0,87.0
177,43.765155891666666,44.06250440625,70.0,87.0
178,42.85606489166667,44.21970139166667,42.0,87.0
179,43.99242864166666,44.44129232291667,54.0,87.0
180,44.21970139166667,44.498110510416666,61.0,87.0
181,44.446974141666665,44.678034770833335,66.0,75.0
182,45.128792391666664,45.68182275,56.0,78.0
183,45.583337891666666,46.12689855208333,63.0,87.0
184,45.583337891666666,46.1477318875,59.0,87.0
185,45.583337891666666,46.185610679166665,68.0,87.0
186,44.67424689166667,46.37689857708333,44.0,87.0
187,46.03788339166667,46.410989489583336,56.0,76.0
188,46.265156141666665,46.429928885416665,63.0,82.0
189,46.265156141666665,46.4659137375,59.0,78.0
190,46.946974391666664,47.46212595833333,54.0,86.0
191,47.401519891666666,47.73295931875,63.0,87.0
192,47.401519891666666,47.977277525,71.0,87.0
193,46.49242889166667,48.02841389375,47.0,87.0
194,47.401519891666666,48.03788359166666,66.0,87.0
195,47.85606539166667,48.149626027083336,54.0,87.0
196,48.083338141666665,48.26705028125,63.0,87.0
197,48.765156391666665,49.38068675625,53.0,72.0
198,49.219701891666666,49.74621709583333,58.0,80.0
199,49.219701891666666,49.750004975,65.0,87.0
200,49.219701891666666,49.7613686125,62.0,87.0
201,48.31061089166667,49.996217120833336,46.0,87.0
202,49.67424739166667,50.04167167083333,53.0,75.0
203,49.901520141666666,50.42614140625,62.0,65.0
204,49.901520141666666,50.43750504375,58.0,55.0
205,49.901520141666666,50.49242929166667,65.0,80.0
206,50.583338391666665,51.13447481041667,53.0,73.0
207,51.03788389166667,51.36553543958333,62.0,87.0
208,51.03788389166667,51.3750051375,58.0,87.0
209,51.03788389166667,51.39962635208333,65.0,87.0
210,50.12879289166666,51.57765667291667,46.0,87.0
211,51.265156641666664,51.60606576666667,53.0,87.0
212,51.49242939166667,51.740535477083334,58.0,87.0
213,51.719702141666666,51.94886883125,62.0,87.0
214,52.401520391666665,52.962126508333334,51.0,71.0
215,52.85606589166667,53.13258107083333,63.0,87.0
216,52.85606589166667,53.15341440625,66.0,87.0
217,52.85606589166667,53.15530834583333,58.0,87.0
218,51.94697489166666,53.70076294583333,39.0,87.0
219,53.31061139166667,53.750005375,51.0,87.0
220,53.537884141666666,53.787884166666664,58.0,80.0
221,54.44697514166667,54.613641825,61.0,56.0
222,54.219702391666665,54.708338804166665,54.0,86.0
223,54.67424789166667,54.86932366875,61.0,87.0
224,54.67424789166667,54.882581245833336,66.0,87.0
225,53.76515689166666,54.94129337291667,42.0,87.0
226,54.67424789166667,55.003793379166666,70.0,87.0
227,54.901520641666664,55.361747960416665,54.0,87.0
228,55.12879339166667,55.44508130208333,61.0,87.0
229,55.356066141666666,55.59659646875,66.0,87.0
230,56.26515714166667,56.38447533541667,59.0,66.0
231,56.037884391666665,56.562505656249996,56.0,78.0
232,56.49242989166667,56.67235415208334,59.0,87.0
233,56.49242989166667,56.78788446666667,63.0,87.0
234,56.49242989166667,57.03220267291667,68.0,87.0
235,56.719702641666665,57.100384497916664,56.0,87.0
236,55.58333889166666,57.16288450416667,44.0,87.0
237,56.94697539166667,57.28977845625,59.0,86.0
238,57.174248141666666,57.40530877083334,63.0,87.0
239,57.856066391666666,58.36174826041667,51.0,74.0
240,58.31061189166667,58.52652100416667,58.0,87.0
241,58.31061189166667,58.5795513125,66.0,87.0
242,58.31061189166667,58.58333919166667,63.0,87.0
243,57.401520891666664,58.61174828541667,39.0,87.0
244,58.537884641666665,59.003793779166664,51.0,87.0
245,58.76515739166667,59.068187725,58.0,87.0
246,58.76515739166667,59.08144530208333,66.0,54.0
247,58.99243014166667,59.35796048125,63.0,87.0
248,59.90152114166666,60.018945395833335,58.0,80.0
249,59.674248391666666,60.20833935416667,51.0,76.0
250,60.12879389166667,60.27841511875,58.0,87.0
251,60.12879389166667,60.35985452083333,66.0,87.0
252,60.12879389166667,60.38258179583333,63.0,87.0
253,59.219702891666664,60.40341513125,39.0,84.0
254,60.356066641666665,60.793566685416664,51.0,87.0
255,60.58333939166667,60.831445477083335,66.0,71.0
256,60.58333939166667,60.882581845833336,58.0,87.0
257,60.81061214166667,61.053036408333334,63.0,87.0
258,61.492430391666666,61.99432438125,54.0,87.0
259,61.94697589166667,62.17235470208333,70.0,87.0
260,61.94697589166667,62.17803652083333,66.0,87.0
261,61.94697589166667,62.20076379583333,61.0,87.0
262,61.037884891666664,62.40152139166667,42.0,87.0
263,62.40152139166667,62.61932444375,70.0,61.0
264,62.174248641666665,62.66667293333333,54.0,87.0
265,62.40152139166667,62.71023354375,61.0,87.0
266,62.62879414166667,62.8522790125,66.0,87.0
267,63.53788514166666,63.691294247916666,61.0,67.0
268,63.310612391666666,63.81061244166666,56.0,82.0
269,63.76515789166667,63.99621852083333,61.0,87.0
270,63.76515789166667,64.08712762083333,63.0,87.0
271,63.76515789166667,64.09849125833334,68.0,87.0
272,62.856066891666664,64.36553673958333,44.0,87.0
273,64.21970339166667,64.39394583333333,68.0,72.0
274,63.992430641666665,64.53220342291667,56.0,87.0
275,64.21970339166667,64.55114281875,61.0,87.0
276,64.44697614166667,64.62690040208334,63.0,87.0
277,64.44697614166667,64.659097375,68.0,69.0
278,65.12879439166667,65.77841566875,53.0,87.0
279,65.58333989166667,65.87879446666666,58.0,87.0
280,65.58333989166667,65.9204611375,62.0,87.0
281,66.03788539166666,66.1818248,58.0,67.0
282,66.03788539166666,66.20644601458334,62.0,78.0
283,64.67424889166666,66.24811268541667,46.0,87.0
284,65.81061264166667,66.25758238333333,53.0,87.0
285,66.03788539166666,66.31061269166666,65.0,87.0
286,66.26515814166666,66.42803694583333,58.0,87.0
287,66.26515814166666,66.44697634166667,62.0,67.0
288,66.94697639166667,67.49811281041667,54.0,82.0
289,67.40152189166666,67.8295522375,63.0,87.0
290,67.40152189166666,67.88068860625,71.0,87.0
291,67.40152189166666,67.91667345833334,66.0,87.0
292,66.49243089166667,68.0909159,47.0,74.0
293,67.85606739166667,68.21212803333333,54.0,78.0
294,68.08334014166667,68.28788561666667,63.0,87.0
295,68.86364325,69.23296146875,58.0,78.0
296,69.21970389166667,69.4659160375,61.0,87.0
297,69.21970389166667,69.53788574166667,70.0,87.0
298,69.21970389166667,69.60038574791666,65.0,87.0
299,68.31061289166666,69.62311302291667,46.0,87.0
300,69.44697664166667,69.6363706,58.0,87.0
301,69.67424939166666,69.98106760416667,61.0,87.0
302,69.90152214166666,70.11932519375,65.0,78.0
303,70.58334039166667,71.1022798375,56.0,73.0
304,71.03788589166666,71.2613707625,59.0,87.0
305,71.03788589166666,71.30303743333333,68.0,87.0
306,71.03788589166666,71.34659804375,63.0,87.0
307,70.12879489166667,71.41667380833333,44.0,87.0
308,71.26515864166667,71.64584049791667,56.0,87.0
309,71.49243139166667,71.81440112083334,59.0,87.0
310,71.71970414166667,71.97538598541666,63.0,87.0
311,71.94697689166667,72.62690120208333,47.0,87.0
312,72.62879514166667,72.69697696666667,71.0,73.0
313,72.40152239166666,72.77084061041667,54.0,87.0
314,72.62879514166667,72.77084061041667,63.0,87.0
315,73.08334064166667,73.27841641875,56.0,76.0
316,72.85606789166667,73.51515886666667,46.0,86.0
317,73.31061339166666,73.64584069791667,61.0,87.0
318,73.53788614166666,73.78599222708333,65.0,66.0
319,74.21970439166667,74.74432565625,56.0,80.0
320,74.67424989166666,74.99621962083333,59.0,87.0
321,74.67424989166666,75.13258327083334,68.0,87.0
322,74.67424989166666,75.1818257,63.0,87.0
323,73.76515889166667,75.25379540416667,44.0,87.0
324,75.12879539166667,75.40720451041666,56.0,86.0
325,75.35606814166667,75.49432573125,59.0,76.0
326,75.58334089166667,76.17993186041667,47.0,87.0
327,75.81061364166666,76.29167429583333,54.0,87.0
328,76.03788639166666,76.34659854375,59.0,87.0
329,76.26515914166667,76.39394703333333,63.0,87.0
330,76.71970464166667,77.0113713375,53.0,87.0
331,76.49243189166667,77.01894709583333,46.0,87.0
332,76.94697739166666,77.24621984583334,58.0,87.0
333,77.17425014166666,77.3636441,62.0,87.0
334,77.40152289166667,78.068189625,66.0,87.0
335,77.40152289166667,78.07197750416667,63.0,87.0
336,77.40152289166667,78.10038659791667,58.0,87.0
337,77.39584107291667,79.87690192708334,51.0,86.0
338,78.31061389166666,79.94508375208333,66.0,87.0
339,78.31061389166666,79.95455345,58.0,87.0
340,78.31061389166666,79.95455345,63.0,87.0
341,77.40152289166667,80.13258377083334,39.0,87.0
342,80.58712927083333,80.86175051041667,51.0,87.0
343,80.12879589166667,81.05303840833334,58.0,87.0
344,80.12879589166667,81.06629598541667,66.0,87.0
345,80.12879589166667,81.07387174375,63.0,87.0
346,81.03788689166667,82.42803854583333,44.0,87.0
347,81.49243239166667,82.42803854583333,56.0,87.0
348,81.94697789166666,82.431826425,68.0,87.0
349,81.94697789166666,82.44129612291667,59.0,87.0
350,81.94697789166666,82.45644763958333,63.0,87.0
351,83.08334164166666,83.37879621666667,66.0,87.0
352,83.08334164166666,83.386371975,63.0,87.0
353,83.08334164166666,83.43750834375,47.0,87.0
354,83.08334164166666,83.45076592083333,54.0,87.0
355,83.79925080416666,87.60985724583334,65.0,87.0
356,83.79925080416666,87.60985724583334,68.0,87.0
357,83.79925080416666,87.79356938541666,49.0,87.0
358,83.79925080416666,87.81061484166666,61.0,87.0
359,83.79925080416666,87.81250878125,56.0,87.0
360,88.80493312291667,89.72349382083333,56.0,87.0
361,89.26326650208334,89.74811503541666,68.0,87.0
362,89.26326650208334,89.75758473333333,59.0,87.0
363,89.26326650208334,89.77273625,63.0,87.0
364,88.3522815625,89.83334231666667,44.0,87.0
365,90.41667570833333,90.71213028333334,66.0,87.0
366,90.41667570833333,90.71970604166667,63.0,87.0
367,90.41667570833333,90.77084241041666,47.0,87.0
368,90.41667570833333,90.7840999875,54.0,87.0
369,91.04925152916667,95.04357011041667,49.0,87.0
370,91.04925152916667,95.06061556666667,61.0,87.0
371,91.04925152916667,95.06061556666667,65.0,87.0
372,91.04925152916667,95.06061556666667,68.0,87.0
373,91.04925152916667,95.06250950625,56.0,87.0
374,96.03788839166667,96.7841005875,58.0,87.0
375,97.40152489166667,97.98107040416667,70.0,87.0
376,97.40152489166667,97.99243404166667,65.0,87.0
377,96.49432783125,97.99432798125,61.0,87.0
378,95.58334289166666,101.20834345416667,46.0,87.0
379,98.31061589166667,102.72349512083333,70.0,87.0
380,98.31061589166667,102.73296481875,62.0,87.0
381,98.31061589166667,102.73485875833333,65.0,87.0
382,96.94697939166667,102.77652542916667,58.0,87.0
383,103.31061639166667,103.92235887708333,51.0,74.0
384,103.76516189166666,104.3068286125,66.0,87.0
385,103.76516189166666,104.44887408125,70.0,87.0
386,103.76516189166666,104.54925287916667,63.0,87.0
387,104.21970739166666,104.6704650125,51.0,80.0
388,104.67425289166667,105.04735898958333,63.0,86.0
389,104.67425289166667,105.068192325,66.0,87.0
390,104.67425289166667,105.1250105125,70.0,87.0
391,104.90152564166667,105.36554083958333,51.0,87.0
392,105.12879839166666,105.431828725,63.0,87.0
393,105.35607114166666,105.5795560125,66.0,84.0
394,102.85607089166666,105.86175301041666,39.0,87.0
395,105.58334389166667,105.89394998333333,70.0,87.0
396,105.81061664166667,106.17235910208333,51.0,87.0
397,106.03788939166667,106.32387426875,63.0,84.0
398,106.26516214166666,106.477283375,66.0,73.0
399,106.94698039166667,107.613647125,54.0,74.0
400,107.40152589166667,107.93372291458333,66.0,87.0
401,107.40152589166667,107.96023806875,70.0,87.0
402,107.40152589166667,107.96213200833333,61.0,87.0
403,107.85607139166666,108.44129872291667,54.0,71.0
404,108.31061689166667,108.80304118333333,66.0,80.0
405,108.31061689166667,108.82198057916666,61.0,87.0
406,108.31061689166667,108.8522836125,70.0,87.0
407,108.76516239166666,109.250010925,54.0,80.0
408,109.21970789166667,109.46402609791667,66.0,87.0
409,109.21970789166667,109.46970791666666,70.0,87.0
410,106.49243489166666,109.60985944583334,42.0,87.0
411,109.44698064166667,109.9431928125,54.0,87.0
412,109.67425339166667,109.95455645,61.0,87.0
413,109.90152614166666,110.14395040833334,66.0,87.0
414,110.58334439166667,111.16857172291667,51.0,53.0
415,111.03788989166667,111.65152631666666,56.0,87.0
416,111.03788989166667,111.82198087916666,63.0,87.0
417,111.03788989166667,111.83713239583334,59.0,87.0
418,111.49243539166666,112.0909203,51.0,67.0
419,111.94698089166667,112.64205671875,59.0,87.0
420,111.94698089166667,112.66667793333333,63.0,82.0
421,111.94698089166667,112.66857187291667,56.0,87.0
422,112.40152639166666,112.93751129375,51.0,72.0
423,112.85607189166667,113.11743555416666,56.0,87.0
424,112.85607189166667,113.14963252708333,63.0,86.0
425,112.85607189166667,113.17993556041667,59.0,87.0
426,110.12879889166666,113.18751131875,44.0,86.0
427,113.08334464166667,113.32576890833333,51.0,87.0
428,113.31061739166667,113.55114771875,56.0,87.0
429,113.53789014166667,113.74432955625,59.0,76.0
430,114.21970839166667,114.94508725208333,54.0,73.0
431,114.67425389166667,115.24432970625,59.0,87.0
432,114.67425389166667,115.31819335,63.0,87.0
433,113.76516289166666,115.3295569875,47.0,87.0
434,114.67425389166667,115.33334486666666,66.0,86.0
435,115.12879939166666,115.44698124166666,54.0,78.0
436,115.58334489166667,116.16857222291667,65.0,87.0
437,115.58334489166667,116.25758738333333,68.0,73.0
438,115.58334489166667,116.29167829583334,61.0,87.0
439,116.03789039166666,116.57766317291667,56.0,68.0
440,116.49243589166666,116.74054197708334,61.0,87.0
441,116.49243589166666,116.76705713125,68.0,87.0
442,116.49243589166666,116.80304198333333,65.0,87.0
443,116.71970864166667,116.92993593541667,56.0,87.0
444,115.58334489166667,116.9659207875,49.0,82.0
445,116.94698139166667,117.23675414791667,61.0,87.0
446,116.94698139166667,117.30304203333333,68.0,72.0
447,117.17425414166667,117.38448143541666,65.0,87.0
448,117.85607239166667,118.53031488333333,51.0,87.0
449,118.31061789166667,118.85796643125,63.0,87.0
450,118.31061789166667,118.91478461875,66.0,87.0
451,118.31061789166667,119.02652705416666,58.0,87.0
452,118.76516339166666,119.39584527291666,51.0,86.0
453,119.21970889166667,119.75379985416667,63.0,87.0
454,119.21970889166667,119.93940593333333,66.0,87.0
455,119.21970889166667,119.96213320833333,58.0,87.0
456,119.67425439166666,120.22917868958334,51.0,67.0
457,120.12879989166666,120.34281506458333,63.0,87.0
458,120.12879989166666,120.39963325208333,66.0,87.0
459,120.12879989166666,120.43561810416666,58.0,87.0
460,117.40152689166666,120.50001205,39.0,87.0
461,120.35607264166667,120.795466625,51.0,87.0
462,120.58334539166667,120.85607269166667,58.0,87.0
463,120.81061814166667,121.04736058958333,63.0,87.0
464,121.49243639166667,122.06440614583333,54.0,78.0
465,121.94698189166667,122.43372436458333,66.0,87.0
466,121.94698189166667,122.45834557916666,61.0,87.0
467,121.94698189166667,122.47349709583334,70.0,87.0
468,122.40152739166666,123.022739575,54.0,76.0
469,122.85607289166667,123.3977396125,61.0,87.0
470,122.85607289166667,123.431830525,66.0,87.0
471,122.85607289166667,123.45076992083334,70.0,87.0
472,123.31061839166667,123.75380025416666,54.0,87.0
473,123.76516389166666,124.11743665416667,66.0,87.0
474,121.03789089166666,124.1250124125,42.0,87.0
475,123.99243664166667,124.27463363958333,54.0,87.0
476,124.21970939166667,124.46781547708333,61.0,87.0
477,124.21970939166667,124.52084578541667,70.0,54.0
478,124.44698214166667,124.64963367708333,66.0,80.0
479,125.12880039166667,125.66667923333333,54.0,87.0
480,125.58334589166667,125.88069440625,63.0,87.0
481,124.67425489166666,126.20834595416666,47.0,87.0
482,125.58334589166667,126.2159217125,71.0,87.0
483,125.58334589166667,126.25569444375,66.0,87.0
484,126.03789139166666,126.32198232916667,54.0,87.0
485,126.26516414166666,126.53031568333333,63.0,84.0
486,126.94698239166667,127.43940668333333,54.0,87.0
487,127.40152789166666,127.62311882291667,61.0,87.0
488,127.40152789166666,127.69698246666667,66.0,87.0
489,127.40152789166666,127.69887640625,70.0,87.0
490,126.49243689166667,127.85607339166667,42.0,87.0
491,127.62880064166667,128.07766432291666,54.0,87.0
492,127.85607339166667,128.13448251041666,61.0,87.0
493,128.08334614166665,128.31440677083333,66.0,75.0
494,128.76516439166667,129.31819475,56.0,78.0
495,129.21970989166667,129.76327055208333,63.0,87.0
496,129.21970989166667,129.7841038875,59.0,87.0
497,129.21970989166667,129.82387661875,68.0,87.0
498,128.31061889166668,130.01327057708335,44.0,87.0
499,129.67425539166666,130.04925542916666,56.0,76.0
500,129.90152814166666,130.06630088541667,63.0,82.0
501,129.90152814166666,130.1022857375,59.0,78.0
502,130.58334639166668,131.09849795833333,54.0,86.0
503,131.03789189166667,131.36933131875,63.0,87.0
504,131.03789189166667,131.613649525,71.0,87.0
505,130.12880089166666,131.66478589375,47.0,87.0
506,131.03789189166667,131.67425559166668,66.0,87.0
507,131.49243739166667,131.78599802708334,54.0,87.0
508,131.71971014166667,131.90342228125,63.0,87.0
509,132.40152839166666,133.01895269583332,53.0,72.0
510,132.85607389166665,133.38258909583334,58.0,80.0
511,132.85607389166665,133.386376975,65.0,87.0
512,132.85607389166665,133.3977406125,62.0,87.0
513,131.94698289166666,133.63258912083333,46.0,87.0
514,133.31061939166668,133.67804367083335,53.0,75.0
515,133.53789214166667,134.06251340625,62.0,65.0
516,133.53789214166667,134.07387704375,58.0,55.0
517,133.53789214166667,134.13069523125,65.0,80.0
518,134.21971039166667,134.77084681041666,53.0,73.0
519,134.67425589166666,135.00190743958333,62.0,87.0
520,134.67425589166666,135.0113771375,58.0,87.0
521,134.67425589166666,135.03599835208334,65.0,87.0
522,133.76516489166667,135.21402867291667,46.0,87.0
523,134.90152864166666,135.24243776666665,53.0,87.0
524,135.12880139166666,135.37690747708334,58.0,87.0
525,135.35607414166665,135.58524083125,62.0,87.0
526,136.03789239166667,136.59849850833334,51.0,71.0
527,136.49243789166667,136.76895307083333,63.0,87.0
528,136.49243789166667,136.78978640625,66.0,87.0
529,136.49243789166667,136.79357428541667,58.0,87.0
530,135.58334689166668,137.33902888541667,39.0,87.0
531,136.94698339166666,137.386377375,51.0,87.0
532,137.17425614166666,137.42425616666668,58.0,80.0
533,138.08334714166668,138.250013825,61.0,56.0
534,137.85607439166665,138.34471080416665,54.0,86.0
535,138.31061989166668,138.50569566875,61.0,87.0
536,138.31061989166668,138.51895324583333,66.0,87.0
537,137.40152889166666,138.5795593125,42.0,87.0
538,138.31061989166668,138.64016537916666,70.0,87.0
539,138.53789264166667,138.99811996041666,54.0,87.0
540,138.76516539166667,139.08145330208333,61.0,87.0
541,138.99243814166667,139.23296846875,66.0,87.0
542,139.90152914166666,140.02084733541668,59.0,66.0
543,139.67425639166666,140.19887765625,56.0,78.0
544,140.12880189166665,140.30872615208332,59.0,87.0
545,140.12880189166665,140.42425646666666,63.0,87.0
546,140.12880189166665,140.66857467291666,68.0,87.0
547,140.35607464166668,140.73675649791667,56.0,87.0
548,139.21971089166667,140.79925650416666,44.0,87.0
549,140.58334739166668,140.92615045625,59.0,86.0
550,140.81062014166667,141.04168077083332,63.0,87.0
551,141.49243839166667,141.99812026041667,51.0,74.0
552,141.94698389166666,142.16289300416668,58.0,87.0
553,141.94698389166666,142.21781725208334,66.0,87.0
554,141.94698389166666,142.21971119166668,63.0,87.0
555,141.03789289166667,142.24812028541666,39.0,87.0
556,142.17425664166666,142.64016577916667,51.0,87.0
557,142.40152939166666,142.704559725,58.0,87.0
558,142.40152939166666,142.71781730208335,66.0,54.0
559,142.62880214166665,142.99433248125,63.0,87.0
560,143.53789314166667,143.65531739583332,58.0,80.0
561,143.31062039166667,143.84471135416666,51.0,76.0
562,143.76516589166667,143.91668105833332,58.0,87.0
563,143.76516589166667,143.99622652083335,66.0,87.0
564,143.76516589166667,144.01895379583334,63.0,87.0
565,142.85607489166668,144.03978713125,39.0,84.0
566,143.99243864166667,144.42993868541666,51.0,87.0
567,144.21971139166666,144.46781747708334,66.0,71.0
568,144.21971139166666,144.51895384583332,58.0,87.0
569,144.44698414166666,144.69130234791666,63.0,87.0
570,145.12880239166665,145.63069638125,54.0,87.0
571,145.58334789166668,145.80872670208333,70.0,87.0
572,145.58334789166668,145.81440852083333,66.0,87.0
573,145.58334789166668,145.83713579583332,61.0,87.0
574,144.67425689166666,146.03789339166667,42.0,87.0
575,146.03789339166667,146.25569644375,70.0,61.0
576,145.81062064166667,146.30304493333333,54.0,87.0
577,146.03789339166667,146.34660554375,61.0,87.0
578,146.26516614166667,146.49054495208333,66.0,87.0
579,147.17425714166666,147.32766624791665,59.0,67.0
580,146.94698439166666,147.44887838125,56.0,82.0
581,147.40152989166666,147.63259052083333,59.0,87.0
582,147.40152989166666,147.72349962083334,63.0,87.0
583,147.40152989166666,147.73675719791666,68.0,87.0
584,146.49243889166667,148.00380267916665,44.0,87.0
585,147.85607539166668,148.03031783333333,68.0,72.0
586,147.62880264166665,148.16857542291666,56.0,87.0
587,147.85607539166668,148.18751481875,59.0,87.0
588,148.08334814166668,148.26327240208335,63.0,87.0
589,148.08334814166668,148.295469375,68.0,69.0
590,148.76516639166667,149.41478766875,53.0,87.0
591,149.21971189166666,149.51516646666667,58.0,87.0
592,149.21971189166666,149.55872707708332,62.0,87.0
593,149.67425739166666,149.8181968,58.0,67.0
594,149.67425739166666,149.84281801458334,62.0,78.0
595,148.31062089166667,149.88448468541665,46.0,87.0
596,149.44698464166666,149.89395438333332,53.0,87.0
597,149.67425739166666,149.94698469166667,65.0,87.0
598,149.90153014166665,150.06440894583332,58.0,87.0
599,149.90153014166665,150.08334834166666,62.0,67.0
600,150.58334839166668,151.13448481041667,54.0,82.0
601,151.03789389166667,151.4659242375,63.0,87.0
602,151.03789389166667,151.51706060625,71.0,87.0
603,151.03789389166667,151.55304545833334,66.0,87.0
604,150.12880289166665,151.7272879,47.0,74.0
605,151.49243939166666,151.84850003333332,54.0,78.0
606,151.71971214166666,151.92425761666667,63.0,87.0
607,152.40153039166665,152.87122740833334,58.0,78.0
608,152.85607589166668,153.1022880375,62.0,87.0
609,152.85607589166668,153.17425774166668,70.0,87.0
610,152.85607589166668,153.2386516875,65.0,87.0
611,151.94698489166666,153.2613789625,46.0,87.0
612,153.08334864166667,153.27463653958333,58.0,87.0
613,153.31062139166667,153.61743960416666,62.0,87.0
614,153.53789414166667,153.75569719375,65.0,78.0
615,154.21971239166666,154.7386518375,56.0,73.0
616,154.67425789166666,154.8977427625,59.0,87.0
617,154.67425789166666,154.93940943333334,68.0,87.0
618,154.67425789166666,154.98486398333333,63.0,87.0
619,153.76516689166667,155.05304580833334,44.0,87.0
620,154.90153064166665,155.28221249791667,56.0,87.0
621,155.12880339166668,155.45266706041667,59.0,87.0
622,155.35607614166668,155.61175798541666,63.0,87.0
623,155.58334889166667,156.26516714166667,47.0,87.0
624,156.26516714166667,156.33334896666668,71.0,73.0
625,156.03789439166667,156.40721261041668,54.0,87.0
626,156.26516714166667,156.40721261041668,63.0,87.0
627,156.71971264166666,156.91478841875,56.0,76.0
628,156.49243989166666,157.15153086666666,46.0,86.0
629,156.94698539166666,157.28221269791666,62.0,87.0
630,157.17425814166666,157.42236422708334,65.0,66.0
631,157.85607639166668,158.38069765625,56.0,80.0
632,158.31062189166667,158.63448556041666,59.0,87.0
633,158.31062189166667,158.76895527083335,68.0,87.0
634,158.31062189166667,158.8181977,63.0,87.0
635,157.40153089166665,158.89016740416668,44.0,87.0
636,158.76516739166667,159.04357651041667,56.0,86.0
637,158.99244014166666,159.13069773125,59.0,76.0
638,159.21971289166666,159.81630386041667,47.0,87.0
639,159.44698564166666,159.92804629583333,54.0,87.0
640,159.67425839166665,159.98297054374999,59.0,87.0
641,159.90153114166665,160.03221297291665,63.0,87.0
642,160.35607664166668,160.64963727708334,53.0,87.0
643,160.12880389166668,160.65531909583333,46.0,87.0
644,160.58334939166667,160.88259184583333,58.0,87.0
645,160.58334939166667,160.88259184583333,58.0,87.0
646,160.81062214166667,161.0000161,62.0,87.0
647,160.81062214166667,161.0000161,62.0,87.0
648,161.49244039166666,162.22160713125,51.0,76.0
649,161.94698589166666,162.49812231041668,63.0,87.0
650,161.94698589166666,162.55304655833334,66.0,87.0
651,161.94698589166666,162.61175868541667,58.0,87.0
652,162.40153139166668,162.97918296458334,51.0,73.0
653,162.85607689166667,163.38259209583333,63.0,87.0
654,162.85607689166667,163.40342543124999,66.0,87.0
655,162.85607689166667,163.41478906875,58.0,87.0
656,163.31062239166667,163.84281941458335,51.0,87.0
657,163.76516789166666,163.91857699791666,58.0,87.0
658,163.76516789166666,163.95077397083332,63.0,87.0
659,163.76516789166666,163.96403154791668,66.0,87.0
660,161.03789489166667,164.27842551875,39.0,87.0
661,163.99244064166666,164.30494067291667,51.0,87.0
662,164.21971339166666,164.41857704791667,63.0,87.0
663,164.21971339166666,164.42804674583334,66.0,87.0
664,164.21971339166666,164.42994068541665,58.0,87.0
665,165.12880439166668,165.68372868958332,51.0,74.0
666,165.58334989166667,165.70645596458334,66.0,87.0
667,165.58334989166667,165.79168324583333,63.0,87.0
668,165.58334989166667,165.80494082291668,58.0,87.0
669,164.67425889166665,166.03221357291667,39.0,87.0
670,165.81062264166667,166.31630451041667,51.0,84.0
671,166.03789539166667,166.35986512083332,58.0,87.0
672,166.26516814166666,166.44130452291665,63.0,73.0
673,166.26516814166666,166.50191058958333,66.0,67.0
674,167.17425914166665,167.27085006041668,61.0,80.0
675,166.94698639166666,167.43562280416666,54.0,87.0
676,167.40153189166668,167.56630463541666,61.0,86.0
677,167.40153189166668,167.69130464791667,66.0,87.0
678,167.40153189166668,167.71781980208334,70.0,87.0
679,166.49244089166666,167.79925920416667,42.0,87.0
680,167.62880464166668,168.09471377916665,54.0,87.0
681,167.85607739166667,168.16857742291666,61.0,87.0
682,168.08335014166667,168.3750168375,66.0,82.0
683,168.76516839166666,169.32766844791666,56.0,71.0
684,169.21971389166666,169.46024421875,59.0,87.0
685,169.21971389166666,169.55304725833332,68.0,87.0
686,169.21971389166666,169.59660786875,63.0,87.0
687,168.31062289166667,169.62312302291667,44.0,87.0
688,169.44698664166665,169.87880486666666,56.0,87.0
689,169.67425939166665,170.04736548958334,59.0,87.0
690,169.90153214166668,170.09660791875,63.0,87.0
691,170.58335039166667,171.12691105208333,54.0,84.0
692,171.03789589166666,171.23486560833334,63.0,87.0
693,171.03789589166666,171.38448683541665,66.0,87.0
694,170.12880489166668,171.42615350625,47.0,87.0
695,171.26516864166666,171.53032018333334,54.0,87.0
696,171.26516864166666,171.53032018333334,71.0,87.0
697,171.49244139166666,171.79925960416668,63.0,87.0
698,171.71971414166666,171.95456264999999,66.0,87.0
699,172.40153239166668,172.96782032708333,51.0,78.0
700,172.85607789166667,173.02653245416667,58.0,87.0
701,172.85607789166667,173.1022900375,63.0,87.0
702,172.85607789166667,173.14016882916667,66.0,87.0
703,171.94698689166665,173.27463853958332,39.0,87.0
704,173.08335064166667,173.55494159791667,51.0,87.0
705,173.31062339166667,173.60039614791665,58.0,87.0
706,173.53789614166666,173.795471925,63.0,87.0
707,174.44698714166665,174.61744170416668,61.0,59.0
708,174.21971439166666,174.73486595833333,54.0,87.0
709,174.67425989166668,174.84660839375,70.0,87.0
710,174.67425989166668,174.85797203125,66.0,87.0
711,174.67425989166668,174.94888113125,61.0,87.0
712,173.76516889166666,175.09282053958333,42.0,87.0
713,174.90153264166668,175.39963875208332,54.0,87.0
714,175.12880539166667,175.45077512083333,61.0,87.0
715,175.35607814166667,175.53221452291666,70.0,65.0
716,175.35607814166667,175.57009331458335,66.0,75.0
717,176.03789639166666,176.59660856874999,56.0,80.0
718,176.49244189166666,176.81251768125,59.0,87.0
719,176.49244189166666,176.82009343958333,63.0,87.0
720,176.49244189166666,176.82388131875,68.0,87.0
721,176.94698739166665,177.1477449875,68.0,72.0
722,175.58335089166667,177.21971469166667,44.0,87.0
723,176.71971464166666,177.24054802708332,56.0,82.0
724,176.94698739166665,177.29926015416666,59.0,86.0
725,177.17426014166668,177.40532077083333,63.0,84.0
726,177.85607839166667,178.39016935416666,58.0,76.0
727,178.31062389166667,178.53789664166666,62.0,87.0
728,178.31062389166667,178.59850270833334,70.0,87.0
729,178.31062389166667,178.6022905875,65.0,87.0
730,178.76516939166666,178.840926975,65.0,87.0
731,177.40153289166668,178.88448758541668,46.0,87.0
732,178.76516939166666,178.94698759166667,70.0,86.0
733,178.53789664166666,178.96403304791667,58.0,87.0
734,178.76516939166666,179.07766942291667,62.0,87.0
735,178.99244214166666,179.08713912083334,70.0,76.0
736,178.99244214166666,179.14395730833334,65.0,84.0
737,179.67426039166668,180.22918468958332,51.0,74.0
738,180.12880589166667,180.25191196458334,66.0,87.0
739,180.12880589166667,180.33713924583333,63.0,87.0
740,180.12880589166667,180.35039682291668,58.0,87.0
741,179.21971489166665,180.57766957291668,39.0,87.0
742,180.35607864166667,180.86176051041667,51.0,84.0
743,180.58335139166667,180.90532112083332,58.0,87.0
744,180.81062414166666,180.98676052291665,63.0,73.0
745,180.81062414166666,181.04736658958333,66.0,67.0
746,181.71971514166665,181.81630606041668,61.0,80.0
747,181.49244239166666,181.98107880416666,54.0,87.0
748,181.94698789166668,182.11176063541666,61.0,86.0
749,181.94698789166668,182.23676064791667,66.0,87.0
750,181.94698789166668,182.26327580208334,70.0,87.0
751,181.03789689166666,182.34471520416668,42.0,87.0
752,182.17426064166668,182.64016977916665,54.0,87.0
753,182.40153339166667,182.71403342291666,61.0,87.0
754,182.62880614166667,182.9204728375,66.0,82.0
755,183.31062439166666,183.87312444791667,56.0,71.0
756,183.76516989166666,184.00570021875,59.0,87.0
757,183.76516989166666,184.09850325833332,68.0,87.0
758,183.76516989166666,184.14206386875,63.0,87.0
759,182.85607889166667,184.16857902291667,44.0,87.0
760,183.99244264166666,184.42426086666666,56.0,87.0
761,184.21971539166665,184.59282148958334,59.0,87.0
762,184.44698814166668,184.64206391875,63.0,87.0
763,184.67426089166668,185.07577608333332,51.0,87.0
764,184.67426089166668,185.23486700833334,39.0,87.0
765,184.67426089166668,185.26327610208332,58.0,87.0
766,184.67426089166668,185.28221549791667,63.0,87.0
767,184.67426089166668,185.29357913541668,66.0,87.0
768,185.12880639166667,185.5795640125,51.0,71.0
769,185.58335189166667,186.16857922291666,65.0,87.0
770,185.58335189166667,186.18562467916666,58.0,57.0
771,185.58335189166667,186.18562467916666,70.0,76.0
772,185.58335189166667,186.18941255833334,62.0,86.0
773,185.58335189166667,186.2613822625,46.0,73.0
774,186.49244289166666,186.86744292916666,56.0,80.0
775,186.49244289166666,186.86744292916666,59.0,86.0
776,186.49244289166666,186.86744292916666,63.0,82.0
777,186.49244289166666,186.86744292916666,68.0,74.0
778,186.94698839166668,187.43562480416668,56.0,86.0
779,186.49244289166666,187.90721576041668,44.0,87.0
780,187.40153389166667,187.95077637083332,59.0,87.0
781,187.40153389166667,187.97918546458334,68.0,87.0
782,187.40153389166667,187.98486728333333,63.0,87.0
783,187.85607939166667,188.3068370125,56.0,87.0
784,188.31062489166666,188.61744310416665,58.0,72.0
785,188.31062489166666,188.8977461625,68.0,84.0
786,188.31062489166666,188.92615525625,65.0,87.0
787,188.31062489166666,188.96782192708332,61.0,75.0
788,188.76517039166666,189.12312497291666,58.0,75.0
789,188.31062489166666,189.71971594166666,46.0,82.0
790,189.21971589166665,189.73107957916667,61.0,87.0
791,189.21971589166665,189.74812503541668,65.0,87.0
792,189.21971589166665,189.76895837083333,68.0,87.0
793,189.67426139166668,190.04926142916668,58.0,86.0
794,190.12880689166667,190.85797363125,63.0,87.0
795,190.12880689166667,190.86176151041667,58.0,76.0
796,190.12880689166667,190.87880696666667,66.0,80.0
797,190.12880689166667,190.88259484583332,51.0,75.0
798,190.12880689166667,191.09236598958333,39.0,86.0
799,191.04028270833334,191.21196463541668,66.0,87.0
800,191.04799875,191.21196463541668,70.0,87.0
801,191.04028270833334,191.23318375,63.0,87.0
802,191.50324520833334,192.91335182291667,65.0,87.0
803,191.50324520833334,192.93649994791667,68.0,87.0
804,191.45501994791667,192.9577190625,49.0,87.0
805,191.50324520833334,193.00594432291666,61.0,87.0
806,193.62515666666667,195.15100390625,64.0,87.0
807,193.63480171875,195.191513125,67.0,87.0
808,193.63094369791668,195.19344213541666,60.0,87.0
809,193.70617510416668,195.20887421875,48.0,87.0
810,195.61203739583334,196.78680473958332,66.0,87.0
811,195.60432135416667,196.80416583333334,63.0,87.0
812,195.608179375,196.85432010416667,59.0,87.0
813,195.66990770833334,196.97777677083334,47.0,87.0
814,197.0549371875,198.20462739583334,62.0,87.0
815,197.06265322916667,198.22584651041666,65.0,87.0
816,197.05879520833332,198.30879395833333,58.0,87.0
817,197.05879520833332,198.4438246875,46.0,87.0
818,198.79876260416665,201.32962427083334,54.0,87.0
819,198.848916875,201.33541130208334,58.0,87.0
820,198.67916395833333,201.35855942708332,51.0,87.0
821,198.91064520833334,201.59004067708332,39.0,87.0
