,start,end,pitch,velocity
0,6.91768468125,7.05700654375,63.0,95.0
1,7.29550668125,7.401769118750001,62.0,63.0
2,7.48441768125,7.622558850000001,63.0,93.0
3,7.86223968125,7.97322489375,62.0,47.0
4,8.05115068125,8.14560618125,63.0,102.0
5,8.33451718125,8.4939108375,55.0,68.0
6,8.617883681250001,8.996886375,63.0,99.0
7,9.18461668125,9.676965975,67.0,90.0
8,10.31808268125,10.5601249,65.0,83.0
9,10.60144918125,11.832912762500001,62.0,75.0
10,13.71848068125,13.864886706250001,62.0,83.0
11,14.09630268125,14.23798593125,60.0,81.0
12,14.285213681250001,14.42335485,62.0,77.0
13,14.663035681250001,14.83069419375,60.0,82.0
14,14.85194668125,14.973558137500001,62.0,79.0
15,15.13531318125,15.2616474125,55.0,82.0
16,15.418679681250001,15.91457105625,65.0,100.0
17,15.98541268125,16.798910675000002,63.0,97.0
18,17.11887868125,17.39279963125,62.0,93.0
19,17.402245181250002,19.0044466,60.0,72.0
20,20.519276681250002,20.68457380625,60.0,82.0
21,20.991554181250002,21.19463350625,62.0,67.0
22,21.08600968125,21.228873625000002,63.0,83.0
23,21.46383168125,21.606695625,62.0,88.0
24,21.65274268125,22.0648048,63.0,92.0
25,22.57840658125,22.73425815625,62.0,73.0
26,22.786208681250002,23.0495033875,63.0,63.0
27,23.069575181250002,23.20181288125,60.0,73.0
28,23.35294168125,23.6705483,62.0,83.0
29,23.63630818125,23.913771212500002,63.0,57.0
30,23.91967468125,24.21720950625,67.0,96.0
31,24.20304118125,26.32120576875,65.0,83.0
32,27.32007268125,27.467659400000002,62.0,90.0
33,27.697894681250002,27.88916706875,61.0,82.0
34,27.886805681250003,28.029669625,62.0,74.0
35,28.26462768125,28.439370356250002,61.0,81.0
36,28.453538681250002,28.5940412375,62.0,83.0
37,28.736905181250002,28.8467097,55.0,78.0
38,29.02027168125,29.421707556250002,65.0,96.0
39,29.58700468125,30.2068689,63.0,90.0
40,30.720470681250003,31.003837181250002,62.0,82.0
41,31.003837181250002,32.92128383125,60.0,66.0
42,34.12086868125,34.35346535,60.0,96.0
43,34.498690681250004,34.633289768750004,62.0,75.0
44,34.68760168125,34.8989458625,63.0,97.0
45,35.06542368125,35.18585444375,62.0,83.0
46,35.25433468125,35.442064987500004,63.0,99.0
47,35.63215668125,35.769117156250005,55.0,82.0
48,35.82106768125,36.285080325,63.0,97.0
49,36.38780068125,37.024194612500004,67.0,107.0
50,37.521266681250005,37.8365119125,65.0,96.0
51,37.804633181250004,39.99836216875,62.0,81.0
52,40.92166468125,41.1849593875,62.0,82.0
53,41.29948668125,41.43880854375,61.0,88.0
54,41.48839768125,41.65841758125,62.0,90.0
55,41.86621968125,42.056311375,61.0,93.0
56,42.05513068125,42.28418526875,62.0,93.0
57,42.43295268125,42.564009687500004,55.0,89.0
58,42.621863681250005,43.01621539375,65.0,85.0
59,43.188596681250004,43.820267837500005,63.0,96.0
60,44.03869618125,44.111899193750006,62.0,85.0
61,44.32206268125,44.59126085625,62.0,92.0
62,44.60542918125,46.10727163125,60.0,86.0
63,47.722460681250006,47.913733068750005,60.0,83.0
64,48.10028268125,48.25613425625,62.0,68.0
65,48.289193681250005,48.4556715,63.0,88.0
66,48.66701568125,48.86537223125,62.0,65.0
67,48.855926681250004,49.409672050000005,63.0,78.0
68,49.800481681250005,49.962236725000004,62.0,79.0
69,49.98939268125,50.292830975,63.0,85.0
70,50.27275918125,50.416803818750004,60.0,65.0
71,50.55612568125,50.81587830625,62.0,78.0
72,50.83949218125,50.982356125,63.0,93.0
73,51.12285868125,51.5042227625,67.0,95.0
74,51.68959168125,52.5928224,65.0,90.0
75,54.523256681250004,54.679108256250004,62.0,83.0
76,54.901078681250006,55.064014418750006,61.0,88.0
77,55.08998968125,55.232853625000004,62.0,77.0
78,55.467811681250005,55.60477215625,61.0,82.0
79,55.65672268125,55.88813865625,62.0,86.0
80,56.034544681250004,56.19275764375,55.0,76.0
81,56.22345568125,56.630795025000005,65.0,82.0
82,56.79018868125,57.4076915125,63.0,83.0
83,57.92365468125,58.218828118750004,62.0,86.0
84,58.207021181250006,59.447930312500006,60.0,67.0
85,61.32405268125,62.675947025000006,63.0,97.0
86,63.02425168125,64.5107451125,60.0,90.0
87,64.72445068125,66.236919375,62.0,95.0
88,66.42464968125,68.0528263625,58.0,88.0
89,68.12484868125,69.533416325,63.0,99.0
90,69.82504768125,71.205278675,60.0,95.0
91,71.52524668125001,72.28561345625,62.0,95.0
92,72.37534618125001,72.61738840000001,62.0,83.0
93,72.65871268125001,73.0967500625,58.0,77.0
94,73.22544568125001,74.6552658125,55.0,68.0
95,74.92564468125,76.51013569375,63.0,95.0
96,76.62584368125,78.12768613125,60.0,96.0
97,78.32604268125,79.6330706625,62.0,93.0
98,79.74287518125,79.92234063125001,58.0,82.0
99,80.02624168125,80.8798832625,58.0,67.0
100,81.72644068125,83.14917665,63.0,95.0
101,83.15862220000001,83.99337268125001,60.0,83.0
102,84.27201640625,84.51878140000001,62.0,85.0
103,84.76200431250001,84.9934202875,63.0,89.0
104,85.1067668875,85.36770020625,62.0,86.0
105,85.46215570625,88.01009281875001,67.0,95.0
106,91.92763468125,92.08348625625,67.0,92.0
107,92.30545668125,92.40817703750001,72.0,86.0
108,92.49436768125001,92.7293257375,72.0,86.0
109,92.87218968125,92.96900656875,70.0,96.0
110,93.06110068125001,93.279529025,70.0,96.0
111,93.43892268125,93.60421980625,65.0,69.0
112,93.62783368125001,94.40473016875,67.0,95.0
113,95.32803268125001,95.48506495000001,67.0,99.0
114,95.70585468125,95.79558740625001,72.0,90.0
115,95.89476568125001,96.05415933750001,72.0,85.0
116,96.27258768125,96.35995901875,70.0,96.0
117,96.46149868125,96.60554331875001,70.0,99.0
118,96.83932068125,96.96447421875,65.0,86.0
119,97.02823168125,98.16878184375001,67.0,89.0
120,98.53951968125,98.6611311375,55.0,88.0
121,98.72843068125,98.86421046250001,68.0,100.0
122,99.10625268125,99.18772055000001,68.0,97.0
123,99.29516368125,99.44865386875,68.0,102.0
124,99.57853018125,99.70014163750001,67.0,93.0
125,99.86189668125,100.033097275,65.0,95.0
126,100.14526318125,100.40265441875,63.0,75.0
127,100.42862968125,101.52785556250001,62.0,93.0
128,101.55737290625001,101.79705373750001,60.0,92.0
129,101.84073940625001,101.98242265625001,62.0,85.0
130,102.12410590625001,103.02851731875,63.0,96.0
131,103.20325999375001,103.60705725625,65.0,97.0
132,103.80305241875,105.0085407375,67.0,112.0
133,105.52922668125001,105.68507825625001,67.0,92.0
134,105.90704868125,106.0097690375,72.0,86.0
135,106.09595968125001,106.3309177375,72.0,86.0
136,106.47378168125,106.57059856875,70.0,96.0
137,106.66269268125001,106.881121025,70.0,96.0
138,107.04051468125,107.20581180625001,65.0,69.0
139,107.22942568125,108.00632216875,67.0,95.0
140,108.92962468125,109.08665695,67.0,99.0
141,109.30744668125,109.39717940625,72.0,90.0
142,109.49635768125,109.6557513375,72.0,85.0
143,109.87417968125,109.96155101875,70.0,96.0
144,110.06309068125,110.20713531875,70.0,99.0
145,110.44091268125001,110.56606621875001,65.0,86.0
146,110.62982368125,111.77037384375001,67.0,89.0
147,112.14111168125001,112.2627231375,55.0,88.0
148,112.33002268125,112.46580246250001,68.0,100.0
149,112.70784468125001,112.78931255,68.0,97.0
150,112.89675568125,113.05024586875001,68.0,102.0
151,113.18012218125,113.3017336375,67.0,93.0
152,113.46348868125001,113.634689275,65.0,95.0
153,113.74685518125001,114.00424641875,63.0,75.0
154,114.03022168125001,115.1294475625,62.0,93.0
155,115.15896490625,115.3986457375,60.0,92.0
156,115.44233140625,115.58401465625,62.0,85.0
157,115.72569790625,116.63010931875,63.0,96.0
158,116.80485199375,117.20864925625001,65.0,97.0
159,117.43061968125001,118.63610800000001,62.0,112.0
160,120.83101768125,122.18291202500001,63.0,97.0
161,122.53121668125,124.01771011250001,60.0,90.0
162,124.23141568125001,125.74388437500001,62.0,95.0
163,125.93161468125001,127.55979136250001,58.0,88.0
164,127.63181368125001,129.040381325,63.0,99.0
165,129.33201268125,130.712243675,60.0,95.0
166,131.03221168125,131.79257845625,62.0,95.0
167,131.88231118125,132.12435340000002,62.0,83.0
168,132.16567768125,132.60371506250002,58.0,77.0
169,132.73241068125,134.1622308125,55.0,68.0
170,134.43260968125,136.01710069375,63.0,95.0
171,136.13280868125,137.63465113125,60.0,96.0
172,137.83300768125,139.1400356625,62.0,93.0
173,139.24984018125,139.42930563125,58.0,82.0
174,139.53320668125,140.3868482625,58.0,67.0
175,141.23340568125002,142.65614165,63.0,95.0
176,142.6655872,143.50033768125002,60.0,83.0
177,143.77898140625,144.0257464,62.0,85.0
178,144.26896931250002,144.5003852875,63.0,89.0
179,144.5570585875,144.86640035000002,65.0,90.0
180,144.96912070625,147.51705781875,67.0,95.0
