,start,end,pitch,velocity
0,32.43654116458333,32.530771941666664,66.0,100.0
1,32.66731041458333,32.78654119375,66.0,96.0
2,32.898079664583335,33.01731044375,71.0,102.0
3,33.12884891458334,33.34038739375,71.0,96.0
4,33.59038741458333,33.701925885416664,71.0,93.0
5,33.821156664583334,33.99615667916667,71.0,100.0
6,34.28269516458333,34.409618252083334,71.0,107.0
7,34.51346441458333,34.60961826875,69.0,83.0
8,34.744233664583334,34.8923106,71.0,97.0
9,34.975002914583335,35.196156779166664,74.0,122.0
10,36.35961841458333,36.53269535208333,66.0,89.0
11,36.59038766458333,36.90384922916667,69.0,95.0
12,37.051926164583335,38.2153878,66.0,99.0
13,39.82115716458333,39.92308025,66.0,112.0
14,40.051926414583335,40.175003347916665,66.0,102.0
15,40.282695664583336,40.3961572125,71.0,102.0
16,40.51346491458333,40.6269264625,71.0,85.0
17,40.74423416458333,40.85192648125,71.0,97.0
18,40.975003414583334,41.08461880833333,71.0,107.0
19,41.205772664583336,41.298080364583335,71.0,100.0
20,41.43654191458333,41.5500034625,71.0,102.0
21,41.66731116458333,41.782695789583336,71.0,117.0
22,41.89808041458333,41.998080422916665,69.0,93.0
23,42.128849664583335,42.31346506458333,71.0,127.0
24,42.359618914583336,42.73461894583333,69.0,97.0
25,43.74423441458333,43.869234425,66.0,95.0
26,43.97500366458333,44.205772914583335,69.0,97.0
27,44.205772914583335,45.9115422875,64.0,89.0
28,47.205773164583334,47.30385009583333,66.0,102.0
29,47.436542414583336,47.54808088541667,66.0,89.0
30,47.66731166458333,47.765388595833336,69.0,99.0
31,47.89808091458333,47.992311691666664,69.0,81.0
32,48.12885016458333,48.2192347875,69.0,99.0
33,48.359619414583335,48.451927114583334,69.0,92.0
34,48.59038866458333,48.8192348375,69.0,117.0
35,49.05192716458333,49.16731178958333,66.0,117.0
36,49.282696414583334,49.492311816666664,64.0,88.0
37,49.74423491458333,50.69231191666667,66.0,100.0
38,50.66731191458333,50.75577346041667,69.0,92.0
39,50.89808116458333,50.9884657875,69.0,93.0
40,51.12885041458333,51.255773502083336,69.0,92.0
41,51.359619664583334,51.509619677083336,71.0,112.0
42,52.282696664583334,52.59615822916667,71.0,93.0
43,52.74423516458333,52.928850564583335,69.0,97.0
44,52.97500441458333,54.175004514583335,66.0,95.0
45,54.590389164583335,54.68461994166667,66.0,99.0
46,54.82115841458333,54.936543039583334,66.0,93.0
47,55.05192766458333,55.15385075,69.0,96.0
48,55.28269691458333,55.38654307708333,69.0,89.0
49,55.513466164583335,55.60962001875,69.0,88.0
50,55.744235414583336,55.842312345833335,69.0,88.0
51,55.97500466458333,56.11731236875,69.0,97.0
52,56.436543164583334,56.50962009375,66.0,96.0
53,56.667312414583336,56.957697054166665,64.0,85.0
54,57.12885091458333,57.36538939583333,66.0,100.0
55,57.590389414583335,57.76731250625,66.0,93.0
56,57.821158664583336,58.080774070833336,74.0,102.0
57,58.28269716458333,58.42308179166667,73.0,96.0
58,58.513466414583334,59.015389533333334,73.0,112.0
59,58.97500491458333,60.66154351666667,71.0,83.0
60,61.97500516458333,62.0653897875,66.0,107.0
61,62.20577441458333,62.32500519375,66.0,99.0
62,62.43654366458333,62.54423598125,71.0,107.0
63,62.667312914583334,62.769236,71.0,88.0
64,62.898082164583336,62.98654371041667,71.0,97.0
65,63.12885141458333,63.226928345833336,71.0,100.0
66,63.35962066458333,63.51346683125,71.0,112.0
67,63.590389914583334,63.78654377708333,71.0,117.0
68,64.05192841458333,64.18654381041667,69.0,95.0
69,64.28269766458334,64.44038998541667,71.0,117.0
70,64.51346691458333,64.88269771458333,74.0,112.0
71,65.89808241458333,66.05577473541666,69.0,93.0
72,66.12885166458334,66.43269784375,66.0,82.0
73,66.35962091458333,66.63654401458334,69.0,90.0
74,66.82115941458333,69.03077498333333,66.0,97.0
75,69.35962116458333,69.45385194166667,66.0,112.0
76,69.59039041458334,69.715390425,66.0,97.0
77,69.82115966458333,69.92308275,71.0,96.0
78,70.05192891458333,70.15577507708333,71.0,93.0
79,70.28269816458334,70.3730827875,71.0,92.0
80,70.51346741458333,70.60577511458334,71.0,90.0
81,70.74423666458333,70.84808282708333,71.0,107.0
82,70.97500591458333,71.06923669166666,71.0,82.0
83,71.20577516458333,71.34808286875,71.0,90.0
84,71.43654441458334,71.55385211666666,69.0,88.0
85,71.66731366458333,71.95962138125,71.0,95.0
86,71.89808291458333,72.52500604375,69.0,112.0
87,73.05192916458333,73.18462148333333,66.0,95.0
88,73.28269841458334,73.42115996458334,66.0,72.0
89,73.51346766458333,73.776929225,69.0,97.0
90,73.97500616458333,74.16346771875,62.0,93.0
91,74.20577541458333,76.32500636041667,64.0,100.0
92,76.74423716458334,76.85000640416666,66.0,102.0
93,76.97500641458333,77.09423719375,66.0,96.0
94,77.20577566458333,77.30577567291667,69.0,93.0
95,77.43654491458334,77.52885261458333,69.0,93.0
96,77.66731416458333,77.76154494166667,69.0,100.0
97,77.89808341458334,77.99423726875,69.0,100.0
98,78.12885266458333,78.27885267708334,69.0,117.0
99,78.59039116458334,78.7038527125,66.0,127.0
100,78.82116041458333,79.19616044583333,64.0,96.0
101,79.28269891458334,80.10192975208334,66.0,112.0
102,80.20577591458333,80.30192976875,69.0,92.0
103,80.43654516458334,80.53654517291666,69.0,89.0
104,80.66731441458333,80.81346827291667,69.0,100.0
105,80.89808366458334,81.03077598333333,71.0,112.0
106,81.12885291458333,81.35577601041666,71.0,99.0
107,81.59039141458334,81.70000680833333,71.0,97.0
108,81.82116066458333,82.10769915,71.0,112.0
109,82.28269916458333,82.4423145625,69.0,102.0
110,82.51346841458333,83.42885310625,66.0,102.0
111,84.12885316458333,84.22885317291667,66.0,112.0
112,84.35962241458333,84.46923780833333,66.0,107.0
113,84.59039166458334,84.69616090416666,69.0,102.0
114,84.82116091458333,84.923084,69.0,88.0
115,85.05193016458334,85.15385325,69.0,86.0
116,85.28269941458333,85.37500711458333,69.0,95.0
117,85.51346866458333,85.68077637083333,69.0,107.0
118,85.97500716458333,86.11731486875,66.0,117.0
119,86.20577641458333,86.47500720625,64.0,95.0
120,86.66731491458333,87.26731496458333,66.0,127.0
121,87.35962266458333,87.58077652916667,74.0,117.0
122,87.59039191458334,87.83462270416666,73.0,112.0
123,88.05193041458334,88.18654581041666,74.0,97.0
124,88.28269966458333,88.730776625,73.0,112.0
125,88.74423816458334,90.15769982083333,71.0,117.0
126,91.51346916458333,91.6038537875,66.0,97.0
127,91.74423841458334,91.84231534583333,66.0,97.0
128,91.97500766458333,92.08077690416667,69.0,96.0
129,92.20577691458334,92.31346923125,69.0,89.0
130,92.43654616458333,92.53270001875,69.0,83.0
131,92.66731541458333,92.7577000375,69.0,79.0
132,92.89808466458334,93.10000775833333,69.0,95.0
133,93.35962316458334,93.484623175,66.0,99.0
134,93.59039241458333,93.89808474791667,64.0,93.0
135,94.05193091458334,94.8000079,66.0,112.0
136,94.97500791458333,95.05577715208334,69.0,93.0
137,95.20577716458334,95.29039255625,69.0,92.0
138,95.43654641458333,95.56346950208334,69.0,95.0
139,95.66731566458333,95.81923875416666,71.0,100.0
140,95.89808491458334,96.115392625,71.0,107.0
141,96.35962341458334,96.4730849625,71.0,100.0
142,96.59039266458333,96.85962345625,71.0,127.0
143,97.05193116458334,97.20385425416667,69.0,102.0
144,97.28270041458333,98.32885434791666,66.0,100.0
145,98.89808516458334,98.9653928625,66.0,102.0
146,99.12885441458333,99.22693134583334,66.0,96.0
147,99.35962366458334,99.45577751875,69.0,96.0
148,99.59039291458333,99.68654676875,69.0,88.0
149,99.82116216458333,99.90770063333333,69.0,86.0
150,100.05193141458334,100.12693142083333,69.0,90.0
151,100.28270066458333,100.46923914166666,69.0,97.0
152,100.74423916458333,100.85193148125,66.0,117.0
153,100.97500841458333,101.21539305,64.0,90.0
154,101.43654691458333,101.96347003541666,66.0,112.0
155,102.12885466458333,102.23847005833333,78.0,127.0
156,102.35962391458334,102.65193163125,76.0,112.0
157,102.82116241458333,102.93077780833333,78.0,107.0
158,103.05193166458334,103.36731630625,78.0,127.0
159,103.51347016458334,105.49039340624999,78.0,127.0
160,106.74423966458333,107.23654739791667,78.0,117.0
161,107.66731666458334,107.95770130416666,71.0,122.0
162,108.12885516458333,108.37885518541667,74.0,122.0
163,108.59039366458333,108.81347060625,66.0,107.0
164,108.82116291458333,109.07500908958333,69.0,76.0
165,109.05193216458333,109.64808606041666,66.0,112.0
166,110.43654766458333,110.57500921458333,74.0,117.0
167,110.66731691458334,110.89231693333333,74.0,112.0
168,111.12885541458333,111.22116311458333,74.0,99.0
169,111.35962466458334,111.5884708375,74.0,127.0
170,111.59039391458333,111.77116316041666,71.0,96.0
171,112.05193241458333,112.17116319375,78.0,127.0
172,112.28270166458333,113.29039405625,78.0,127.0
173,113.89808641458333,114.05000950416667,71.0,93.0
174,114.12885566458333,114.40577876458333,81.0,112.0
175,114.59039416458333,114.68462494166667,71.0,112.0
176,114.82116341458334,114.91347111458333,71.0,102.0
177,115.05193266458333,115.18654806041667,71.0,112.0
178,115.28270191458333,115.49424039375,78.0,127.0
179,115.74424041458333,115.83847119166667,78.0,127.0
180,115.97500966458334,116.09808659791666,76.0,127.0
181,116.20577891458333,116.58270202291666,78.0,127.0
182,116.66731741458334,116.99616359583334,69.0,112.0
183,117.82116366458334,117.900009825,74.0,102.0
184,118.05193291458333,118.13270215208333,74.0,90.0
185,118.28270216458333,118.35962524791667,74.0,82.0
186,118.51347141458334,118.58270218958333,74.0,93.0
187,118.74424066458333,118.85193298125,78.0,127.0
188,119.20577916458333,119.37500994791667,81.0,127.0
189,119.43654841458333,119.90962537708333,78.0,127.0
190,119.89808691458333,120.5538562,76.0,102.0
191,121.51347166458334,122.17308710416667,78.0,127.0
192,122.43654866458333,122.746164075,71.0,102.0
193,122.89808716458333,123.19808718958333,74.0,122.0
194,123.35962566458333,123.58654876041666,66.0,127.0
195,123.59039491458333,123.78654877708334,69.0,96.0
196,123.82116416458334,124.57693345833333,66.0,102.0
197,125.20577966458333,125.32693352083334,74.0,127.0
198,125.43654891458333,125.59231815833333,74.0,112.0
199,125.89808741458333,125.99231819166667,74.0,107.0
200,126.12885666458334,126.25770282916666,74.0,112.0
201,126.35962591458333,126.59616439583333,71.0,96.0
202,126.82116441458334,126.93077980833333,78.0,117.0
203,127.05193366458333,127.75770295416666,78.0,117.0
204,128.66731841458332,128.84039535208333,71.0,95.0
205,128.89808766458333,129.18847230416665,81.0,127.0
206,129.35962616458335,129.45770309583332,71.0,107.0
207,129.59039541458333,129.6807800375,71.0,93.0
208,129.82116466458334,130.06731853125,71.0,112.0
209,130.28270316458332,130.39808778958334,78.0,127.0
210,130.51347241458333,130.70385704583333,78.0,107.0
211,130.74424166458334,130.92308783333334,76.0,127.0
212,130.97501091458332,131.24039555208333,78.0,127.0
213,131.43654941458334,132.02885715625,69.0,107.0
214,132.59039566458333,132.67501105624999,74.0,122.0
215,132.82116491458333,132.91731876875,74.0,96.0
216,133.05193416458334,133.13847263333332,74.0,97.0
217,133.28270341458332,133.37116496041668,74.0,99.0
218,133.51347266458333,133.61924190416667,78.0,127.0
219,133.97501116458332,134.11347271458334,81.0,127.0
220,134.20578041458333,134.5961650625,78.0,117.0
221,134.66731891458332,136.28270366458332,76.0,117.0
222,137.20578066458333,137.515396075,78.0,117.0
223,137.66731916458332,137.77501148125,78.0,112.0
224,137.89808841458333,138.33270383541665,76.0,117.0
225,138.35962691458334,141.0807809875,74.0,99.0
226,169.05193716458334,169.1423217875,66.0,107.0
227,169.28270641458334,169.40193719375,66.0,99.0
228,169.51347566458332,169.62116798125,71.0,107.0
229,169.74424491458333,169.846168,71.0,88.0
230,169.97501416458334,170.06347571041667,71.0,97.0
231,170.20578341458332,170.30386034583333,71.0,100.0
232,170.43655266458333,170.59039883124998,71.0,112.0
233,170.66732191458334,170.86347577708332,71.0,117.0
234,171.12886041458333,171.26347581041668,69.0,95.0
235,171.35962966458334,171.51732198541666,71.0,117.0
236,171.59039891458335,171.95962971458334,74.0,112.0
237,172.97501441458334,173.13270673541666,69.0,93.0
238,173.20578366458332,173.50962984375,66.0,82.0
239,173.43655291458333,173.71347601458334,69.0,90.0
240,173.89809141458332,176.10770698333334,66.0,97.0
241,176.43655316458333,176.53078394166667,66.0,112.0
242,176.66732241458334,176.792322425,66.0,97.0
243,176.89809166458332,177.00001475,71.0,96.0
244,177.12886091458333,177.23270707708332,71.0,93.0
245,177.35963016458334,177.4500147875,71.0,92.0
246,177.59039941458335,177.68270711458334,71.0,90.0
247,177.82116866458333,177.92501482708334,71.0,107.0
248,178.05193791458333,178.14616869166667,71.0,82.0
249,178.28270716458334,178.42501486875,71.0,90.0
250,178.51347641458332,178.63078411666666,69.0,88.0
251,178.74424566458333,179.03655338125,71.0,95.0
252,178.97501491458334,179.60193804375,69.0,112.0
253,180.12886116458333,180.26155348333333,66.0,95.0
254,180.35963041458334,180.49809196458332,66.0,72.0
255,180.59039966458334,180.853861225,69.0,97.0
256,181.05193816458333,181.24039971875,62.0,93.0
257,181.28270741458334,183.40193836041666,64.0,100.0
258,183.82116916458332,183.92693840416666,66.0,102.0
259,184.05193841458333,184.17116919375,66.0,96.0
260,184.28270766458334,184.38270767291667,69.0,93.0
261,184.51347691458332,184.60578461458334,69.0,93.0
262,184.74424616458333,184.83847694166667,69.0,100.0
263,184.97501541458334,185.07116926875,69.0,100.0
264,185.20578466458332,185.35578467708334,69.0,117.0
265,185.66732316458334,185.7807847125,66.0,127.0
266,185.89809241458335,186.27309244583333,64.0,96.0
267,186.35963091458333,187.17886175208332,66.0,112.0
268,187.28270791458334,187.37886176875,69.0,92.0
269,187.51347716458332,187.61347717291667,69.0,89.0
270,187.74424641458333,187.89040027291668,69.0,100.0
271,187.97501566458334,188.10770798333334,71.0,112.0
272,188.20578491458332,188.43270801041666,71.0,99.0
273,188.66732341458334,188.77693880833334,71.0,97.0
274,188.89809266458334,189.18463115,71.0,112.0
275,189.35963116458333,189.5192465625,69.0,102.0
276,189.59040041458334,190.50578510625,66.0,102.0
277,191.20578516458332,191.30578517291667,66.0,112.0
278,191.43655441458333,191.54616980833333,66.0,107.0
279,191.66732366458334,191.77309290416667,69.0,102.0
280,191.89809291458334,192.000016,69.0,88.0
281,192.12886216458332,192.23078525,69.0,86.0
282,192.35963141458333,192.45193911458333,69.0,95.0
283,192.59040066458334,192.75770837083334,69.0,107.0
284,193.05193916458333,193.19424686874999,66.0,117.0
285,193.28270841458334,193.55193920625,64.0,95.0
286,193.74424691458333,194.34424696458333,66.0,127.0
287,194.43655466458333,194.65770852916665,74.0,117.0
288,194.66732391458333,194.91155470416666,73.0,112.0
289,195.12886241458332,195.26347781041667,74.0,97.0
290,195.35963166458333,195.807708625,73.0,112.0
291,195.82117016458332,197.23463182083333,71.0,117.0
292,198.59040116458334,198.68078578749999,66.0,97.0
293,198.82117041458332,198.91924734583333,66.0,97.0
294,199.05193966458333,199.15770890416667,69.0,96.0
295,199.28270891458334,199.39040123125,69.0,89.0
296,199.51347816458332,199.60963201875,69.0,83.0
297,199.74424741458333,199.8346320375,69.0,79.0
298,199.97501666458334,200.17693975833333,69.0,95.0
299,200.43655516458332,200.561555175,66.0,99.0
300,200.66732441458333,200.97501674791667,64.0,93.0
301,201.12886291458332,201.8769399,66.0,112.0
302,202.05193991458333,202.13270915208332,69.0,93.0
303,202.28270916458334,202.36732455625,69.0,92.0
304,202.51347841458332,202.64040150208334,69.0,95.0
305,202.74424766458333,202.89617075416666,71.0,100.0
306,202.97501691458334,203.192324625,71.0,107.0
307,203.43655541458332,203.5500169625,71.0,100.0
308,203.66732466458333,203.93655545625,71.0,127.0
309,204.12886316458332,204.28078625416666,69.0,102.0
310,204.35963241458333,205.40578634791666,66.0,100.0
311,205.97501716458333,206.0423248625,66.0,102.0
312,206.20578641458334,206.30386334583332,66.0,96.0
313,206.43655566458332,206.53270951875,69.0,96.0
314,206.66732491458333,206.76347876875,69.0,88.0
315,206.89809416458334,206.98463263333332,69.0,86.0
316,207.12886341458332,207.20386342083333,69.0,90.0
317,207.35963266458333,207.54617114166666,69.0,97.0
318,207.82117116458332,207.92886348125,66.0,117.0
319,208.05194041458333,208.29232505,64.0,90.0
320,208.51347891458335,209.04040203541666,66.0,112.0
321,209.20578666458334,209.31540205833332,78.0,127.0
322,209.43655591458332,209.72886363125,76.0,112.0
323,209.89809441458334,210.00770980833335,78.0,107.0
324,210.12886366458332,210.44424830625,78.0,127.0
325,210.59040216458334,212.56732540625,78.0,127.0
326,213.82117166458335,214.31347939791667,78.0,117.0
327,214.74424866458332,215.03463330416668,71.0,122.0
328,215.20578716458334,215.45578718541665,74.0,122.0
329,215.66732566458333,215.89040260625,66.0,107.0
330,215.89809491458334,216.15194108958335,69.0,76.0
331,216.12886416458332,216.72501806041666,66.0,112.0
332,217.51347966458334,217.65194121458333,74.0,117.0
333,217.74424891458332,217.96924893333332,74.0,112.0
334,218.20578741458334,218.29809511458333,74.0,99.0
335,218.43655666458332,218.6654028375,74.0,127.0
336,218.66732591458333,218.84809516041668,71.0,96.0
337,219.12886441458332,219.24809519375,78.0,127.0
338,219.35963366458333,220.36732605625,78.0,127.0
339,220.97501841458333,221.12694150416667,71.0,93.0
340,221.20578766458334,221.48271076458335,81.0,112.0
341,221.66732616458333,221.76155694166667,71.0,112.0
342,221.89809541458334,221.99040311458333,71.0,102.0
343,222.12886466458332,222.26348006041667,71.0,112.0
344,222.35963391458333,222.57117239375,78.0,127.0
345,222.82117241458334,222.91540319166666,78.0,127.0
346,223.05194166458332,223.17501859791668,76.0,127.0
347,223.28271091458333,223.65963402291666,78.0,127.0
348,223.74424941458332,224.07309559583334,69.0,112.0
349,224.89809566458334,224.976941825,74.0,102.0
350,225.12886491458335,225.20963415208334,74.0,90.0
351,225.35963416458333,225.43655724791665,74.0,82.0
352,225.59040341458334,225.65963418958333,74.0,93.0
353,225.82117266458334,225.92886498125,78.0,127.0
354,226.28271116458333,226.45194194791665,81.0,127.0
355,226.51348041458334,226.98655737708333,78.0,127.0
356,226.97501891458333,227.6307882,76.0,102.0
357,228.59040366458333,229.25001910416665,78.0,127.0
358,229.51348066458334,229.823096075,71.0,102.0
359,229.97501916458333,230.27501918958333,74.0,122.0
360,230.43655766458332,230.66348076041666,66.0,127.0
361,230.66732691458333,230.86348077708334,69.0,96.0
362,230.89809616458334,231.65386545833334,66.0,102.0
363,232.28271166458333,232.40386552083334,74.0,127.0
364,232.51348091458334,232.66925015833334,74.0,112.0
365,232.97501941458333,233.06925019166667,74.0,107.0
366,233.20578866458334,233.33463482916667,74.0,112.0
367,233.43655791458332,233.67309639583334,71.0,96.0
368,233.89809641458334,234.00771180833334,78.0,117.0
369,234.12886566458334,234.83463495416666,78.0,117.0
370,235.74425041458332,235.91732735208333,71.0,95.0
371,235.97501966458333,236.26540430416665,81.0,127.0
372,236.43655816458335,236.53463509583332,71.0,107.0
373,236.66732741458333,236.7577120375,71.0,93.0
374,236.89809666458333,237.14425053125,71.0,112.0
375,237.35963516458332,237.47501978958334,78.0,127.0
376,237.59040441458333,237.78078904583333,78.0,107.0
377,237.82117366458334,238.00001983333334,76.0,127.0
378,238.05194291458332,238.31732755208333,78.0,127.0
379,238.51348141458334,239.10578915625,69.0,107.0
380,239.66732766458333,239.75194305624998,74.0,122.0
381,239.89809691458333,239.99425076875,74.0,96.0
382,240.12886616458334,240.21540463333332,74.0,97.0
383,240.35963541458332,240.44809696041668,74.0,99.0
384,240.59040466458333,240.69617390416667,78.0,127.0
385,241.05194316458332,241.19040471458334,81.0,127.0
386,241.28271241458333,241.6730970625,78.0,117.0
387,241.74425091458332,243.35963566458332,76.0,117.0
388,244.28271266458333,244.592328075,78.0,117.0
389,244.74425116458332,244.85194348125,78.0,112.0
390,244.97502041458333,245.40963583541665,76.0,117.0
391,245.43655891458334,248.1577129875,74.0,99.0
392,248.89809766458333,248.96155920833334,74.0,117.0
393,249.12886691458334,249.19425153541667,74.0,100.0
394,249.35963616458332,249.41348232291668,74.0,99.0
395,249.59040541458333,249.6807900375,74.0,90.0
396,249.82117466458334,250.08079007083333,78.0,117.0
397,250.28271316458333,250.37502086458332,81.0,117.0
398,250.51348241458334,250.88655936875,78.0,122.0
399,250.97502091458333,253.01732877708332,76.0,122.0
400,255.35963666458332,255.576944375,78.0,127.0
401,255.59040591458333,257.3000214416667,78.0,112.0
402,258.1288676645833,258.60771385833334,76.0,100.0
403,258.5904061645833,261.92886798125,74.0,112.0
