,start,end,pitch,velocity
0,4.513461914583333,4.982692722916666,59.0,38.0
1,4.9750004145833335,5.4807696875,62.0,50.0
2,4.282692664583333,7.051923664583334,54.0,64.0
3,5.436538914583333,7.051923664583334,59.0,39.0
4,5.667308164583333,7.051923664583334,62.0,45.0
5,7.513462164583333,8.044231439583333,59.0,95.0
6,7.744231414583333,8.242308379166667,62.0,81.0
7,7.051923664583334,8.738462266666666,47.0,90.0
8,8.205769914583334,8.744231497916667,59.0,85.0
9,7.2826929145833335,8.7576930375,54.0,127.0
10,8.436539164583333,8.921154589583333,66.0,102.0
11,7.975000664583333,8.984616133333333,71.0,107.0
12,8.667308414583333,8.99423151875,62.0,93.0
13,9.359616164583333,9.8884623625,55.0,89.0
14,9.590385414583332,10.092308533333334,62.0,88.0
15,10.051923914583334,10.242308545833334,55.0,93.0
16,9.128846914583333,10.273077779166666,50.0,89.0
17,8.898077664583333,10.305770089583334,43.0,85.0
18,10.282693164583334,10.609616268749999,67.0,96.0
19,9.821154664583334,10.630770116666667,71.0,99.0
20,10.513462414583334,10.730770125,62.0,86.0
21,10.744231664583333,11.378847102083332,40.0,82.0
22,11.205770164583333,11.50961634375,52.0,88.0
23,10.975000914583333,11.575000964583333,47.0,72.0
24,11.436539414583333,11.655770202083334,68.0,95.0
25,11.667308664583333,12.226924095833333,42.0,89.0
26,11.898077914583332,12.434616420833333,54.0,77.0
27,12.359616414583334,12.580770279166666,73.0,96.0
28,12.128847164583334,12.59423181875,66.0,86.0
29,13.051924164583333,13.357693420833334,59.0,92.0
30,13.282693414583333,13.55192420625,62.0,86.0
31,12.821154914583333,13.619231904166666,54.0,78.0
32,13.744231914583333,13.919231929166667,54.0,107.0
33,12.590385664583334,13.965385779166667,47.0,69.0
34,13.513462664583333,14.240385802083333,66.0,127.0
35,13.975001164583333,14.309616577083334,62.0,112.0
36,14.205770414583334,14.592308908333333,59.0,99.0
37,14.436539664583334,15.153847416666666,40.0,83.0
38,15.128847414583333,15.176924341666666,59.0,22.0
39,14.898078164583334,15.261539733333333,52.0,86.0
40,14.667308914583334,15.307693583333334,47.0,74.0
41,15.128847414583333,15.369232049999999,67.0,93.0
42,15.590385914583333,16.028847489583335,54.0,99.0
43,15.359616664583333,16.04423210625,42.0,97.0
44,15.821155164583333,16.140385960416666,61.0,93.0
45,16.051924414583333,16.282693664583334,57.0,71.0
46,16.282693664583334,16.99038603125,43.0,93.0
47,16.744232164583334,17.02115526458333,55.0,99.0
48,16.513462914583332,17.109616810416668,50.0,96.0
49,16.975001414583332,17.1576937375,62.0,100.0
50,17.43653991458333,17.721155322916665,56.0,73.0
51,17.205770664583333,17.95961688125,44.0,88.0
52,17.667309164583333,18.036539964583334,59.0,92.0
53,17.898078414583335,18.078847660416667,56.0,93.0
54,18.128847664583333,18.780770795833334,38.0,76.0
55,18.590386164583332,18.780770795833334,50.0,90.0
56,18.359616914583334,18.826924645833333,45.0,66.0
57,18.821155414583334,19.02115543125,66.0,99.0
58,19.051924664583332,19.617309327083333,37.0,70.0
59,19.282693914583334,19.81730934375,49.0,71.0
60,19.51346316458333,19.884617041666665,61.0,89.0
61,19.744232414583333,19.9269247375,68.0,93.0
62,19.975001664583335,20.68269403125,40.0,74.0
63,20.436540164583334,20.7346171125,52.0,92.0
64,20.205770914583333,20.7692325,47.0,89.0
65,20.667309414583332,20.8500017375,56.0,89.0
66,20.898078664583334,21.459617172916666,42.0,100.0
67,21.128847914583332,21.6807710375,54.0,81.0
68,21.59038641458333,21.75577104375,61.0,102.0
69,21.359617164583334,21.775001814583334,57.0,83.0
70,22.282694164583333,22.6153865,59.0,97.0
71,22.051924914583335,22.896155754166667,54.0,88.0
72,22.513463414583335,22.988463454166666,66.0,100.0
73,22.975001914583334,23.20961731875,54.0,96.0
74,21.821155664583333,23.2500019375,47.0,73.0
75,22.744232664583333,23.56730965625,62.0,99.0
76,23.205771164583332,23.571155810416666,66.0,112.0
77,23.436540414583334,23.690386589583333,59.0,92.0
78,23.667309664583332,24.107694316666667,43.0,96.0
79,23.898078914583333,24.413463572916665,55.0,76.0
80,24.12884816458333,24.551925122916668,62.0,97.0
81,24.359617414583333,24.563463585416667,59.0,96.0
82,24.590386664583335,25.196155945833333,42.0,100.0
83,24.821155914583333,25.253848258333335,54.0,88.0
84,25.282694414583332,25.467309814583334,61.0,99.0
85,25.051925164583334,25.478848277083333,57.0,93.0
86,25.975002164583334,26.240386802083332,55.0,93.0
87,25.513463664583334,26.298079114583334,43.0,81.0
88,26.20577141458333,26.401925277083333,62.0,90.0
89,25.744232914583332,26.436540664583333,50.0,89.0
90,26.436540664583333,27.22500226875,45.0,95.0
91,26.667309914583335,27.250002270833335,57.0,81.0
92,27.128848414583334,27.342309970833334,61.0,97.0
93,26.898079164583333,27.348079202083333,64.0,89.0
94,27.821156164583332,28.186540810416666,59.0,82.0
95,28.051925414583334,28.28654081875,62.0,93.0
96,27.590386914583334,28.394233135416666,54.0,96.0
97,28.28269466458333,28.807694708333333,66.0,122.0
98,27.359617664583332,29.100002425,47.0,86.0
99,28.744233164583335,29.184617816666666,62.0,97.0
100,28.513463914583333,29.201925510416668,54.0,100.0
101,28.975002414583333,29.236540897916665,66.0,100.0
102,29.205771664583335,32.79807965625,47.0,82.0
103,29.898079414583332,32.81346427291667,62.0,44.0
104,29.667310164583334,32.82500273541667,59.0,82.0
105,30.128848664583334,32.85577196875,66.0,85.0
106,29.436540914583333,32.8730796625,54.0,90.0
107,33.821156664583334,34.42500286875,66.0,77.0
108,32.898079664583335,34.66154135,47.0,83.0
109,33.821156664583334,34.87307982916666,59.0,71.0
110,33.35961816458333,34.87692598333334,54.0,63.0
111,34.744233664583334,35.917310685416666,47.0,65.0
112,35.66731066458333,35.934618379166665,59.0,73.0
113,35.20577216458333,35.961541458333336,54.0,34.0
114,34.28269516458333,36.625003052083336,62.0,59.0
115,35.66731066458333,36.63846459166667,71.0,76.0
116,36.128849164583336,36.6576953625,66.0,75.0
117,36.59038766458333,38.35577242708333,42.0,74.0
118,37.051926164583335,38.44038781875,49.0,45.0
119,37.51346466458333,38.54423398125,54.0,67.0
120,37.51346466458333,39.38461866666667,61.0,74.0
121,38.898080164583334,39.79038793125,49.0,35.0
122,37.975003164583335,39.803849470833335,57.0,54.0
123,38.43654166458333,39.840387935416665,42.0,81.0
124,39.59038791458333,39.909618710416666,54.0,71.0
125,39.82115716458333,40.25384950833333,61.0,97.0
126,39.35961866458333,40.255772585416665,66.0,102.0
127,40.051926414583335,40.29615720416667,57.0,79.0
128,40.282695664583336,42.01923427083333,47.0,79.0
129,40.74423416458333,42.18654197708333,54.0,68.0
130,41.205772664583336,42.78269587291667,66.0,100.0
131,41.66731116458333,42.98846512083333,62.0,67.0
132,42.128849664583335,43.15000359583333,47.0,81.0
133,42.59038816458333,43.20577283125,54.0,64.0
134,43.51346516458333,43.99808058958333,62.0,55.0
135,43.051926664583334,44.00384982083333,66.0,122.0
136,43.74423441458333,44.0423113625,59.0,57.0
137,43.97500366458333,45.66538842083333,42.0,86.0
138,44.43654216458334,45.81346535625,49.0,34.0
139,44.89808066458333,46.157696154166665,54.0,74.0
140,44.89808066458333,46.63654234791667,61.0,85.0
141,45.82115766458333,47.144234697916666,42.0,81.0
142,46.282696164583335,47.14808085208333,49.0,56.0
143,46.74423466458333,47.24423470625,54.0,76.0
144,45.359619164583336,47.34615779166667,57.0,69.0
145,47.205773164583334,47.646157816666665,61.0,89.0
146,46.74423466458333,47.67885012708334,66.0,100.0
147,48.12885016458333,48.71731175208333,57.0,88.0
148,47.66731166458333,49.38654257708333,45.0,89.0
149,47.89808091458333,49.638465675,52.0,42.0
150,49.05192716458333,50.300004191666666,61.0,67.0
151,50.436542664583335,50.75385038333334,57.0,73.0
152,49.513465664583336,51.161542725,45.0,71.0
153,49.97500416458333,51.33654273958334,52.0,35.0
154,50.436542664583335,51.378850435416666,64.0,82.0
155,48.59038866458333,51.38269658958333,69.0,69.0
156,50.89808116458333,51.46154275,61.0,79.0
157,51.359619664583334,53.05961980625,47.0,88.0
158,51.82115816458333,53.30385059583333,54.0,56.0
159,52.282696664583334,53.96154295833333,66.0,117.0
160,52.74423516458333,54.055773735416665,62.0,61.0
161,53.667312164583336,54.409619918749996,54.0,62.0
162,53.20577366458333,54.49423531041667,47.0,76.0
163,54.590389164583335,55.103850745833334,62.0,88.0
164,54.12885066458333,55.12692767083333,66.0,127.0
165,55.05192766458333,56.807697041666664,42.0,86.0
166,55.513466164583335,56.9192355125,49.0,52.0
167,55.97500466458333,57.390389397916664,54.0,72.0
168,55.97500466458333,57.638466341666664,61.0,95.0
169,56.436543164583334,57.819235587499996,57.0,73.0
170,57.35962016458333,58.15192792291666,49.0,40.0
171,56.89808166458333,58.19231254166667,42.0,77.0
172,57.821158664583336,58.33269716875,54.0,76.0
173,57.821158664583336,58.680774120833334,61.0,107.0
174,58.28269716458333,58.72500489375,57.0,88.0
175,58.744235664583336,60.442312729166666,47.0,76.0
176,59.20577416458333,60.540389660416665,54.0,85.0
177,60.12885116458333,60.59231274166667,59.0,69.0
178,59.667312664583335,60.615389666666665,62.0,81.0
179,59.667312664583335,60.63654351458333,66.0,96.0
180,61.28269741458333,61.61538975,62.0,95.0
181,61.05192816458333,61.732697452083336,59.0,90.0
182,60.590389664583334,62.39231289166667,47.0,81.0
183,60.821158914583336,62.43654366458333,54.0,89.0
184,61.97500516458333,62.43654366458333,62.0,47.0
185,61.744235914583335,62.43654366458333,66.0,100.0
186,61.51346666458333,62.43654366458333,71.0,107.0
187,63.35962066458333,63.96346686875,66.0,77.0
188,62.43654366458333,64.20000535,47.0,83.0
189,63.35962066458333,64.41154382916666,59.0,71.0
190,62.898082164583336,64.41538998333333,54.0,63.0
191,64.28269766458334,65.45577468541667,47.0,65.0
192,65.20577466458333,65.47308237916667,59.0,73.0
193,64.74423616458333,65.50000545833333,54.0,34.0
194,63.821159164583335,66.16346705208333,62.0,59.0
195,65.20577466458333,66.17692859166667,71.0,76.0
196,65.66731316458333,66.1961593625,66.0,75.0
197,66.12885166458334,67.89423642708333,42.0,74.0
198,66.59039016458334,67.97885181875,49.0,45.0
199,67.05192866458333,68.08269798124999,54.0,67.0
200,67.05192866458333,68.92308266666667,61.0,74.0
201,68.43654416458334,69.32885193125,49.0,35.0
202,67.51346716458333,69.34231347083333,57.0,54.0
203,67.97500566458334,69.37885193541666,42.0,81.0
204,69.12885191458334,69.44808271041667,54.0,71.0
205,69.35962116458333,69.79231350833334,61.0,97.0
206,68.89808266458333,69.79423658541667,66.0,102.0
207,69.59039041458334,69.83462120416667,57.0,79.0
208,69.82115966458333,71.55769827083333,47.0,79.0
209,70.28269816458334,71.72500597708333,54.0,68.0
210,70.74423666458333,72.32115987291667,66.0,100.0
211,71.20577516458333,72.52692912083333,62.0,67.0
212,71.66731366458333,72.68846759583333,47.0,81.0
213,72.12885216458334,72.74423683125,54.0,64.0
214,73.05192916458333,73.53654458958333,62.0,55.0
215,72.59039066458334,73.54231382083333,66.0,122.0
216,73.28269841458334,73.5807753625,59.0,57.0
217,73.51346766458333,75.20385242083333,42.0,86.0
218,73.97500616458333,75.35192935625,49.0,34.0
219,74.43654466458334,75.69616015416666,54.0,74.0
220,74.43654466458334,76.17500634791666,61.0,85.0
221,75.35962166458333,76.68269869791666,42.0,81.0
222,75.82116016458333,76.68654485208333,49.0,56.0
223,76.28269866458334,76.78269870625,54.0,76.0
224,74.89808316458333,76.88462179166666,57.0,69.0
225,76.74423716458334,77.18462181666666,61.0,89.0
226,76.28269866458334,77.21731412708333,66.0,100.0
227,77.66731416458333,78.25577575208334,57.0,88.0
228,77.20577566458333,78.92500657708334,45.0,89.0
229,77.43654491458334,79.176929675,52.0,42.0
230,78.59039116458334,79.83846819166666,61.0,67.0
231,79.97500666458333,80.29231438333333,57.0,73.0
232,79.05192966458333,80.700006725,45.0,71.0
233,79.51346816458333,80.87500673958333,52.0,35.0
234,79.97500666458333,80.91731443541667,64.0,82.0
235,78.12885266458333,80.92116058958334,69.0,69.0
236,80.43654516458334,81.00000675,61.0,79.0
237,80.89808366458334,82.59808380625,47.0,88.0
238,81.35962216458333,82.84231459583333,54.0,56.0
239,81.82116066458333,83.50000695833333,66.0,117.0
240,82.28269916458333,83.59423773541667,62.0,61.0
241,83.20577616458333,83.94808391875,54.0,62.0
242,82.74423766458334,84.03269931041666,47.0,76.0
243,84.12885316458333,84.59039166458334,62.0,88.0
244,83.66731466458333,84.59039166458334,66.0,127.0
245,85.05193016458334,85.60962251875,54.0,73.0
246,84.59039166458334,85.82885330625,42.0,107.0
247,85.51346866458333,86.37116104374999,66.0,117.0
248,85.97500716458333,86.4576995125,61.0,97.0
249,86.43654566458333,88.17116119375,45.0,95.0
250,86.89808416458334,88.22116119791667,52.0,66.0
251,87.82116116458333,88.2576996625,61.0,112.0
252,87.35962266458333,88.28846889583333,64.0,100.0
253,88.05193041458334,88.29039197291667,57.0,81.0
254,88.74423816458334,89.3192382125,54.0,89.0
255,88.28269966458333,89.99423826875,47.0,96.0
256,89.43654591458333,90.05962288958334,54.0,86.0
257,89.89808441458334,90.12116135625,61.0,74.0
258,89.66731516458333,90.13269981875,62.0,75.0
259,89.20577666458334,90.16346905208333,66.0,122.0
260,90.59039216458333,91.1076999,59.0,88.0
261,90.82116141458333,91.13654605625,71.0,74.0
262,90.35962291458333,91.19039221458333,54.0,95.0
263,90.12885366458333,91.26346914375,47.0,88.0
264,91.28269991458333,91.97885381875,74.0,97.0
265,91.05193066458334,91.98462305,78.0,122.0
266,91.51346916458333,92.00962305208333,73.0,88.0
267,91.74423841458334,92.03462305416667,71.0,65.0
268,92.43654616458333,93.28077700416667,49.0,34.0
269,91.97500766458333,93.31923854583333,42.0,95.0
270,92.89808466458334,93.3346231625,54.0,63.0
271,92.89808466458334,93.83654628125,61.0,112.0
272,93.35962316458334,93.90385397916667,64.0,76.0
273,93.82116166458333,95.25193101458333,45.0,78.0
274,94.28270016458333,95.25577716875,52.0,77.0
275,95.20577716458334,95.68270028124999,61.0,117.0
276,94.74423866458334,95.71346951458334,64.0,95.0
277,96.59039266458333,96.86346961041667,62.0,76.0
278,95.66731566458333,97.04231577916667,47.0,74.0
279,96.12885416458333,97.44039273541667,54.0,89.0
280,97.05193116458334,97.47308504583333,61.0,89.0
281,97.28270041458333,97.51154658749999,59.0,69.0
282,96.59039266458333,97.51731581875,66.0,127.0
283,97.97500816458333,98.50577743958333,59.0,86.0
284,98.20577741458334,98.54423898125,71.0,75.0
285,97.74423891458333,98.71346976458334,54.0,56.0
286,97.51346966458333,98.7807774625,47.0,73.0
287,98.66731591458333,99.39039289791667,74.0,64.0
288,98.43654666458333,99.40577751458333,78.0,117.0
289,98.89808516458334,99.438469825,71.0,85.0
290,99.82116216458333,100.75962378125,49.0,44.0
291,99.35962366458334,100.79231609166666,42.0,77.0
292,100.28270066458333,100.8115468625,54.0,82.0
293,100.28270066458333,100.93846995,61.0,99.0
294,100.74423916458333,100.93846995,64.0,67.0
295,101.66731616458333,102.06539312083333,52.0,86.0
296,101.20577766458334,102.10000850833333,45.0,95.0
297,102.10577773958333,102.31923929583333,45.0,100.0
298,102.13270081875,102.35962391458334,64.0,96.0
299,102.11923927916666,102.36347006875,61.0,112.0
300,102.13270081875,102.36539314583334,57.0,96.0
301,102.42500853541667,102.63654701458333,45.0,90.0
302,102.4500085375,102.66731624791666,57.0,93.0
303,102.44808546041666,102.67116240208334,64.0,92.0
304,102.44616238333333,102.67693163333334,61.0,97.0
305,102.761547025,102.96154704166666,61.0,96.0
306,102.75193163958333,102.9807778125,45.0,95.0
307,102.76731625625,102.98654704375,57.0,83.0
308,102.76539317916667,102.99039319791666,64.0,90.0
309,103.05193166458334,103.55193170625,62.0,107.0
310,103.05193166458334,103.61154709583333,59.0,92.0
311,103.05193166458334,103.62308555833333,66.0,99.0
312,103.74423941458333,103.80770095833333,59.0,37.0
313,103.51347016458334,104.11923944583333,54.0,66.0
314,103.97500866458333,104.51154717083334,62.0,112.0
315,103.97500866458333,104.51731640208334,66.0,122.0
316,103.97500866458333,104.53077794166667,59.0,99.0
317,104.66731641458334,104.78270103958333,62.0,78.0
318,104.66731641458334,104.79039334791666,59.0,68.0
319,104.66731641458334,104.8038548875,66.0,82.0
320,104.43654716458333,104.95193182291666,54.0,90.0
321,103.05193166458334,104.96923951666666,47.0,99.0
322,104.89808566458333,105.03077798333334,62.0,122.0
323,104.89808566458333,105.06154721666667,59.0,107.0
324,104.89808566458333,105.17500876458334,66.0,127.0
325,105.35962416458334,105.41154724583333,62.0,45.0
326,105.35962416458334,105.45962417291666,59.0,75.0
327,105.59039341458333,105.66154726666666,62.0,102.0
328,105.59039341458333,105.67885496041667,66.0,117.0
329,105.59039341458333,105.6807780375,59.0,86.0
330,105.12885491458333,105.92500882708333,54.0,100.0
331,105.82116266458333,105.96347036875,62.0,127.0
332,105.12885491458333,106.00577806458334,47.0,59.0
333,105.82116266458333,106.08077807083333,59.0,92.0
334,105.82116266458333,106.11539345833333,66.0,127.0
335,106.05193191458334,106.12116268958333,62.0,29.0
336,106.05193191458334,106.62885503958333,47.0,39.0
337,106.28270116458333,106.63077811666666,62.0,117.0
338,106.28270116458333,106.65385504166666,66.0,122.0
339,106.51347041458334,106.65577811874999,59.0,102.0
340,106.05193191458334,106.67693196666667,54.0,122.0
341,107.20577816458334,107.70770128333334,59.0,107.0
342,107.43654741458333,107.82116283124999,71.0,102.0
343,106.97500891458333,108.00770130833334,54.0,112.0
344,107.89808591458333,108.00770130833334,59.0,117.0
345,106.74423966458333,108.04039361875,47.0,99.0
346,108.12885516458333,108.55000904583333,74.0,99.0
347,107.66731666458334,108.55193212291667,78.0,127.0
348,108.35962441458334,108.60385520416666,71.0,102.0
349,109.05193216458333,109.56539374583333,54.0,102.0
350,109.28270141458333,109.7653937625,57.0,102.0
351,108.82116291458333,109.92308608333333,49.0,69.0
352,109.74423991458333,109.94423993125,54.0,97.0
353,108.59039366458333,109.96923993333333,42.0,86.0
354,109.97500916458333,110.36731688958334,61.0,117.0
355,109.51347066458334,110.39423996875,66.0,127.0
356,110.20577841458334,110.423086125,57.0,96.0
357,110.89808616458333,111.39424005208333,55.0,99.0
358,111.12885541458333,111.48654775208334,62.0,99.0
359,110.43654766458333,112.02885548958334,43.0,86.0
360,110.66731691458334,112.06924010833333,50.0,73.0
361,111.59039391458333,112.1192401125,55.0,102.0
362,111.35962466458334,112.16347088541667,71.0,127.0
363,111.82116316458334,112.17500934791667,67.0,112.0
364,112.05193241458333,112.34039397708334,62.0,96.0
365,112.51347091458334,112.85193248125,62.0,107.0
366,112.28270166458333,113.00000941666667,50.0,82.0
367,112.74424016458333,113.14231712083333,69.0,122.0
368,112.97500941458333,113.15962481458334,66.0,127.0
369,113.43654791458333,113.75193255625,61.0,93.0
370,113.20577866458333,114.08270181458333,49.0,112.0
371,113.89808641458333,114.10962489375,61.0,99.0
372,113.66731716458334,114.115394125,69.0,82.0
373,114.59039416458333,114.8653941875,59.0,95.0
374,114.82116341458334,115.10000959166666,62.0,102.0
375,114.35962491458334,115.18654806041667,54.0,93.0
376,115.28270191458333,115.59616347916666,54.0,102.0
377,114.12885566458333,115.64424040625,47.0,82.0
378,115.51347116458334,115.84808657708334,62.0,107.0
379,115.05193266458333,115.86154811666667,66.0,127.0
380,115.74424041458333,115.99424043541667,59.0,100.0
381,116.20577891458333,116.92693282083333,54.0,93.0
382,116.66731741458334,116.93847128333333,61.0,127.0
383,116.43654816458333,117.01347128958334,57.0,88.0
384,115.97500966458334,117.3807790125,42.0,96.0
385,117.12885591458333,117.42500978541666,54.0,100.0
386,116.89808666458333,117.7730867375,66.0,127.0
387,117.35962516458333,117.7846252,61.0,122.0
388,117.59039441458333,117.79616366249999,57.0,97.0
389,118.28270216458333,118.83077913333334,55.0,102.0
390,118.51347141458334,118.85385605833333,59.0,92.0
391,118.97500991458334,119.17308685416667,55.0,100.0
392,117.82116366458334,119.49808688125,43.0,99.0
393,118.05193291458333,119.63462535416667,50.0,95.0
394,119.43654841458333,119.6423176625,59.0,122.0
395,119.20577916458333,119.65000997083334,62.0,99.0
396,118.74424066458333,119.65193304791667,67.0,127.0
397,120.12885616458334,120.36347156875,57.0,107.0
398,120.35962541458333,120.59231774166666,61.0,127.0
399,119.89808691458333,120.715394675,52.0,95.0
400,119.66731766458334,121.29424087708334,45.0,92.0
401,120.82116391458334,121.30001010833334,52.0,97.0
402,121.05193316458333,121.40385627083333,61.0,127.0
403,120.59039466458333,121.43847165833333,64.0,107.0
404,121.28270241458333,121.48462550833334,57.0,107.0
405,121.97501016458334,122.18462556666667,59.0,96.0
406,122.20577941458333,122.45577943541666,62.0,112.0
407,121.74424091458333,122.54231790416667,54.0,95.0
408,121.51347166458334,122.74039484375,47.0,92.0
409,122.66731791458334,122.76154869166666,54.0,122.0
410,122.89808716458333,123.22501026875,62.0,117.0
411,122.43654866458333,123.33270258541667,66.0,127.0
412,123.12885641458334,123.45385644166667,59.0,100.0
413,123.82116416458334,124.35962574791667,54.0,102.0
414,124.05193341458333,124.4884719125,57.0,102.0
415,123.59039491458333,124.6038565375,49.0,59.0
416,124.51347191458333,124.77885655208333,54.0,93.0
417,123.35962566458333,124.7884719375,42.0,89.0
418,124.74424116458333,125.1577027375,61.0,112.0
419,124.28270266458333,125.18847197083333,66.0,122.0
420,124.97501041458334,125.20577966458333,57.0,96.0
421,125.66731816458334,126.161548975,55.0,107.0
422,125.89808741458333,126.33270283541667,62.0,79.0
423,126.35962591458333,126.57308747083333,55.0,93.0
424,125.20577966458333,126.80385672083334,43.0,97.0
425,125.43654891458333,126.82693364583334,50.0,82.0
426,126.59039516458333,127.0730875125,67.0,96.0
427,126.12885666458334,127.0730875125,71.0,122.0
428,126.82116441458334,127.11154905416667,62.0,99.0
429,127.51347216458333,128.05962605625,50.0,96.0
430,127.74424141458333,128.11731836875,57.0,107.0
431,127.28270291458334,128.40770300833333,45.0,97.0
432,127.05193366458333,128.4115491625,38.0,86.0
433,128.20577991458333,128.51924147916665,50.0,99.0
434,128.43654916458334,128.88654920208333,62.0,107.0
435,127.97501066458334,128.92116458958333,66.0,127.0
436,128.66731841458332,128.92885689791666,61.0,112.0
437,129.35962616458335,129.61731849375,59.0,99.0
438,129.59039541458333,129.8769339,62.0,100.0
439,129.12885691458334,129.99616467916667,54.0,93.0
440,130.05193391458334,130.1653954625,54.0,96.0
441,128.89808766458333,130.17116469375,47.0,85.0
442,130.28270316458332,130.66731858125,62.0,100.0
443,129.82116466458334,130.71154935416666,66.0,122.0
444,130.51347241458333,130.79424166875,59.0,97.0
445,131.20578016458333,131.71924174583333,54.0,97.0
446,131.43654941458334,131.85578021875,57.0,95.0
447,130.97501091458332,132.04808792708334,49.0,89.0
448,130.74424166458334,132.06154946666666,42.0,89.0
449,131.89808791458333,132.08462639166666,54.0,95.0
450,131.66731866458332,132.48847257916665,66.0,127.0
451,132.12885716458334,132.50770334999999,61.0,117.0
452,132.35962641458335,132.60578028125,57.0,99.0
453,133.05193416458334,133.6038572875,55.0,96.0
454,133.28270341458332,133.63462652083334,59.0,90.0
455,133.74424191458334,133.93654962291666,55.0,100.0
456,132.59039566458333,134.29231888333334,43.0,89.0
457,133.51347266458333,134.3192419625,67.0,112.0
458,133.97501116458332,134.32693427083333,62.0,92.0
459,132.82116491458333,134.423088125,50.0,86.0
460,134.20578041458333,134.43270351041667,59.0,100.0
461,134.89808816458333,135.14424203125,57.0,97.0
462,135.12885741458334,135.39616512916666,61.0,127.0
463,134.66731891458332,135.46924205833332,52.0,83.0
464,135.35962666458335,135.85962670625,64.0,102.0
465,134.43654966458334,136.10962672708334,45.0,93.0
466,135.82116516458333,136.20193442708333,61.0,127.0
467,136.05193441458334,136.20770365833334,64.0,85.0
468,135.59039591458333,136.27308827916667,52.0,117.0
469,136.28270366458332,137.33270375208332,57.0,107.0
470,136.28270366458332,137.35578067708335,45.0,117.0
471,136.28270366458332,137.3653960625,61.0,95.0
472,136.28270366458332,137.3884729875,64.0,93.0
473,138.59039616458332,138.98270388958332,59.0,81.0
474,138.82116541458333,139.084626975,62.0,68.0
475,138.35962691458334,139.13655005625,54.0,95.0
476,138.12885766458334,139.776934725,47.0,92.0
477,139.28270391458332,140.00193474375,54.0,70.0
478,139.05193466458334,140.79808865625,66.0,102.0
479,139.51347316458333,140.81924250416665,62.0,55.0
480,139.74424241458334,140.85962712291666,59.0,63.0
481,140.89808866458333,141.05001175416666,54.0,28.0
482,140.89808866458333,141.39039639791667,62.0,122.0
483,140.89808866458333,141.41347332291667,66.0,127.0
484,139.97501166458332,141.72885796458334,47.0,72.0
485,141.12885791458334,141.74424258125,54.0,112.0
486,141.35962716458334,141.81155027916665,59.0,97.0
487,141.59039641458332,141.82308874166665,62.0,93.0
488,141.59039641458332,141.8653964375,66.0,122.0
489,142.28270416458332,142.78078112916666,59.0,102.0
490,142.51347341458333,142.86731959791666,71.0,93.0
491,142.97501191458332,143.20578116458333,59.0,99.0
492,142.05193491458334,143.25193501458332,54.0,99.0
493,141.82116566458333,143.31155040416667,47.0,95.0
494,143.20578116458333,143.607704275,74.0,100.0
495,142.74424266458334,143.60962735208332,78.0,127.0
496,143.43655041458334,143.69231966666666,71.0,96.0
497,144.12885816458333,144.66731974791668,57.0,107.0
498,144.82116591458333,144.94231977083334,57.0,102.0
499,144.35962741458334,144.94231977083334,64.0,92.0
500,143.89808891458333,145.02885823958334,52.0,72.0
501,143.66731966458335,145.04616593333333,45.0,88.0
502,144.59039666458332,145.42116596458334,73.0,127.0
503,145.05193516458334,145.44616596666665,69.0,122.0
504,145.28270441458332,145.61155059583334,64.0,96.0
505,145.97501216458332,146.53847375,55.0,102.0
506,146.20578141458333,146.7346276125,62.0,107.0
507,146.66731991458335,146.90385839583334,55.0,100.0
508,145.51347366458333,147.22308919166667,43.0,89.0
509,145.74424291458334,147.35962766458334,50.0,65.0
510,147.12885841458333,147.35962766458334,62.0,100.0
511,146.89808916458333,147.35962766458334,67.0,88.0
512,146.43655066458334,147.35962766458334,71.0,127.0
513,147.82116616458333,148.21732004375,55.0,100.0
514,148.05193541458334,148.34232005416666,59.0,75.0
515,147.35962766458334,148.38655082708334,43.0,86.0
516,148.28270466458332,148.3961662125,62.0,95.0
517,147.59039691458332,148.41155082916666,50.0,96.0
518,148.51347391458333,149.13655088958333,45.0,112.0
519,148.51347391458333,149.192320125,57.0,112.0
520,148.51347391458333,149.19616627916668,61.0,127.0
521,148.51347391458333,149.19616627916668,64.0,122.0
522,149.66732016458334,149.91347403125,59.0,99.0
523,149.89808941458332,150.1500125125,62.0,100.0
524,149.43655091458334,150.25193559791666,54.0,102.0
525,150.35962791458334,150.59616639583334,54.0,95.0
526,149.20578166458333,150.60001255,47.0,102.0
527,150.12885866458333,151.0038587375,66.0,127.0
528,150.59039716458332,151.01347412291668,62.0,99.0
529,150.82116641458333,151.05385874166666,59.0,97.0
530,151.51347416458333,151.84232034583334,57.0,102.0
531,151.28270491458332,152.11924344583332,52.0,74.0
532,151.74424341458334,152.25385884166667,64.0,89.0
533,152.20578191458333,152.40578193125,52.0,88.0
534,151.05193566458334,152.45770501249999,45.0,77.0
535,151.97501266458335,152.74232042083332,73.0,127.0
536,152.43655116458334,152.81732042708333,69.0,95.0
537,152.66732041458334,152.90578197291666,64.0,112.0
538,153.35962816458334,153.900012825,55.0,92.0
539,153.59039741458332,153.98462821666666,62.0,77.0
540,154.05193591458334,154.37116671041667,55.0,93.0
541,152.89808966458332,154.592320575,43.0,88.0
542,153.82116666458333,154.75385905,71.0,122.0
543,153.12885891458333,154.75578212708334,50.0,88.0
544,154.28270516458332,154.915397525,67.0,93.0
545,154.51347441458333,154.92308983333334,62.0,99.0
546,155.20578216458333,155.69616682083333,55.0,100.0
547,155.43655141458333,155.75578221041667,62.0,90.0
548,155.89808991458332,156.0923207,55.0,102.0
549,155.66732066458334,156.23655148125,67.0,97.0
550,154.97501291458335,156.40578226458334,50.0,82.0
551,154.74424366458334,156.41347457291667,43.0,85.0
552,156.35962841458334,156.53847458333334,67.0,92.0
553,155.66732066458334,156.5423207375,71.0,107.0
554,156.12885916458333,156.56155150833334,62.0,90.0
555,157.05193616458334,157.57116697708332,52.0,99.0
556,157.28270541458332,157.60193621041665,59.0,81.0
557,156.59039766458332,157.89809008125,40.0,102.0
558,156.82116691458333,157.96347470208335,47.0,93.0
559,157.74424391458334,157.99039778125,52.0,99.0
560,157.97501316458334,158.3884747375,64.0,97.0
561,157.51347466458333,158.40962858541667,68.0,117.0
562,158.20578241458333,158.52309013333334,59.0,99.0
563,158.89809016458332,159.392320975,54.0,96.0
564,159.12885941458333,159.60962868541665,57.0,95.0
565,158.66732091458334,159.81732101041666,49.0,53.0
566,158.43655166458333,159.87501332291666,42.0,89.0
567,159.59039791458332,159.8769364,54.0,100.0
568,159.82116716458333,160.22693642916667,61.0,122.0
569,159.35962866458334,160.24809027708332,66.0,127.0
570,160.05193641458334,160.28655181875,57.0,100.0
571,160.74424416458334,161.28270574791668,55.0,102.0
572,160.97501341458334,161.36155190833333,62.0,102.0
573,161.43655191458333,161.65770577916666,55.0,102.0
574,160.28270566458335,161.98078272916666,43.0,86.0
575,161.66732116458334,162.05001350416666,67.0,96.0
576,161.20578266458332,162.06155196666666,71.0,117.0
577,160.51347491458333,162.10770581666665,50.0,90.0
578,161.89809041458332,162.15578274375,62.0,99.0
579,162.59039816458332,163.08655205208333,57.0,102.0
580,162.82116741458333,163.25193668125,64.0,96.0
581,163.28270591458335,163.47885977708333,57.0,122.0
582,163.05193666458334,163.60001363333333,73.0,127.0
583,162.12885966458333,163.68078287083333,45.0,96.0
584,163.51347516458333,163.79232134166668,69.0,122.0
585,162.35962891458334,163.89809058125,52.0,93.0
586,163.74424441458333,163.94424443125,64.0,100.0
587,163.97501366458334,164.930782975,57.0,117.0
588,163.97501366458334,165.49232148333334,45.0,69.0
589,163.97501366458334,165.68270611458334,52.0,70.0
590,163.97501366458334,165.72501381041667,64.0,92.0
591,163.97501366458334,165.74232150416665,69.0,127.0
592,163.97501366458334,165.7500138125,73.0,127.0
593,166.28270616458335,166.76155235833332,59.0,78.0
594,166.51347541458333,166.776936975,62.0,66.0
595,166.05193691458334,166.88847544583334,54.0,50.0
596,165.82116766458333,167.61732166041668,47.0,82.0
597,167.43655241458333,167.69809089791667,61.0,75.0
598,167.20578316458332,169.45193719791666,62.0,63.0
599,167.66732166458334,169.48078335416668,47.0,65.0
600,166.74424466458333,169.48462950833334,66.0,102.0
601,166.97501391458334,169.49424489375,54.0,86.0
602,167.66732166458334,169.49424489375,59.0,72.0
603,170.43655266458333,171.04039886875,66.0,77.0
604,169.51347566458332,171.27693735,47.0,83.0
605,170.43655266458333,171.48847582916667,59.0,71.0
606,169.97501416458334,171.49232198333334,54.0,63.0
607,171.35962966458334,172.53270668541666,47.0,65.0
608,172.28270666458334,172.55001437916667,59.0,73.0
609,171.82116816458333,172.57693745833333,54.0,34.0
610,170.89809116458332,173.24039905208332,62.0,59.0
611,172.28270666458334,173.25386059166667,71.0,76.0
612,172.74424516458333,173.2730913625,66.0,75.0
613,173.20578366458332,174.97116842708334,42.0,74.0
614,173.66732216458334,175.05578381875,49.0,45.0
615,174.12886066458333,175.15962998125,54.0,67.0
616,174.12886066458333,176.00001466666666,61.0,74.0
617,175.51347616458332,176.40578393125,49.0,35.0
618,174.59039916458335,176.41924547083335,57.0,54.0
619,175.05193766458333,176.45578393541666,42.0,81.0
620,176.20578391458332,176.52501471041666,54.0,71.0
621,176.43655316458333,176.86924550833334,61.0,97.0
622,175.97501466458334,176.87116858541665,66.0,102.0
623,176.66732241458334,176.91155320416667,57.0,79.0
624,176.89809166458332,178.63463027083333,47.0,79.0
625,177.35963016458334,178.80193797708333,54.0,68.0
626,177.82116866458333,179.39809187291667,66.0,100.0
627,178.28270716458334,179.60386112083333,62.0,67.0
628,178.74424566458333,179.76539959583334,47.0,81.0
629,179.20578416458332,179.82116883125,54.0,64.0
630,180.12886116458333,180.61347658958334,62.0,55.0
631,179.66732266458334,180.61924582083333,66.0,122.0
632,180.35963041458334,180.6577073625,59.0,57.0
633,180.59039966458334,182.28078442083333,42.0,86.0
634,181.05193816458333,182.42886135625,49.0,34.0
635,181.51347666458332,182.77309215416668,54.0,74.0
636,181.51347666458332,183.25193834791668,61.0,85.0
637,182.43655366458333,183.75963069791666,42.0,81.0
638,182.89809216458335,183.76347685208333,49.0,56.0
639,183.35963066458334,183.85963070625,54.0,76.0
640,181.97501516458334,183.96155379166666,57.0,69.0
641,183.82116916458332,184.26155381666666,61.0,89.0
642,183.35963066458334,184.29424612708334,66.0,100.0
643,184.74424616458333,185.33270775208334,57.0,88.0
644,184.28270766458334,186.00193857708334,45.0,89.0
645,184.51347691458332,186.253861675,52.0,42.0
646,185.66732316458334,186.91540019166666,61.0,67.0
647,187.05193866458333,187.36924638333332,57.0,73.0
648,186.12886166458333,187.776938725,45.0,71.0
649,186.59040016458334,187.95193873958334,52.0,35.0
650,187.05193866458333,187.99424643541667,64.0,82.0
651,185.20578466458332,187.99809258958334,69.0,69.0
652,187.51347716458332,188.07693875,61.0,79.0
653,187.97501566458334,189.67501580625,47.0,88.0
654,188.43655416458333,189.91924659583333,54.0,56.0
655,188.89809266458334,190.57693895833333,66.0,117.0
656,189.35963116458333,190.67116973541667,62.0,61.0
657,190.28270816458334,191.02501591875,54.0,62.0
658,189.82116966458332,191.10963131041666,47.0,76.0
659,191.20578516458332,191.66732366458334,62.0,88.0
660,190.74424666458333,191.66732366458334,66.0,127.0
661,192.12886216458332,192.68655451875,54.0,73.0
662,191.66732366458334,192.90578530625,42.0,107.0
663,192.59040066458334,193.44809304375,66.0,117.0
664,193.05193916458333,193.5346315125,61.0,97.0
665,193.51347766458332,195.24809319375,45.0,95.0
666,193.97501616458334,195.29809319791667,52.0,66.0
667,194.89809316458334,195.3346316625,61.0,112.0
668,194.43655466458333,195.36540089583335,64.0,100.0
669,195.12886241458332,195.36732397291667,57.0,81.0
670,195.82117016458332,196.3961702125,54.0,89.0
671,195.35963166458333,197.07117026875,47.0,96.0
672,196.51347791458332,197.13655488958332,54.0,86.0
673,196.97501641458334,197.19809335625,61.0,74.0
674,196.74424716458333,197.20963181875,62.0,75.0
675,196.28270866458334,197.24040105208334,66.0,122.0
676,197.66732416458333,198.1846319,59.0,88.0
677,197.89809341458334,198.21347805625,71.0,74.0
678,197.43655491458333,198.26732421458334,54.0,95.0
679,197.20578566458335,198.34040114375,47.0,88.0
680,198.35963191458333,199.05578581875,74.0,97.0
681,198.12886266458332,199.06155505,78.0,122.0
682,198.59040116458334,199.08655505208333,73.0,88.0
683,198.82117041458332,199.11155505416667,71.0,65.0
684,199.51347816458332,200.35770900416668,49.0,34.0
685,199.05193966458333,200.39617054583334,42.0,95.0
686,199.97501666458334,200.4115551625,54.0,63.0
687,199.97501666458334,200.91347828125,61.0,112.0
688,200.43655516458332,200.98078597916665,64.0,76.0
689,200.89809366458334,202.32886301458333,45.0,78.0
690,201.35963216458333,202.33270916875,52.0,77.0
691,202.28270916458334,202.75963228125,61.0,117.0
692,201.82117066458332,202.79040151458332,64.0,95.0
693,203.66732466458333,203.94040161041667,62.0,76.0
694,202.74424766458333,204.11924777916667,47.0,74.0
695,203.20578616458334,204.51732473541668,54.0,89.0
696,204.12886316458332,204.55001704583333,61.0,89.0
697,204.35963241458333,204.5884785875,59.0,69.0
698,203.66732466458333,204.59424781875,66.0,127.0
699,205.05194016458333,205.58270943958334,59.0,86.0
700,205.28270941458334,205.62117098125,71.0,75.0
701,204.82117091458332,205.79040176458332,54.0,56.0
702,204.59040166458334,205.8577094625,47.0,73.0
703,205.74424791458333,206.46732489791665,74.0,64.0
704,205.51347866458335,206.48270951458332,78.0,117.0
705,205.97501716458333,206.515401825,71.0,85.0
706,206.89809416458334,207.83655578125,49.0,44.0
707,206.43655566458332,207.86924809166666,42.0,77.0
708,207.35963266458333,207.8884788625,54.0,82.0
709,207.35963266458333,208.01540195,61.0,99.0
710,207.82117116458332,208.01540195,64.0,67.0
711,208.74424816458333,209.14232512083333,52.0,86.0
712,208.28270966458334,209.17694050833333,45.0,95.0
713,209.18270973958334,209.39617129583334,45.0,100.0
714,209.20963281875,209.43655591458332,64.0,96.0
715,209.19617127916666,209.44040206875,61.0,112.0
716,209.20963281875,209.44232514583334,57.0,96.0
717,209.50194053541668,209.71347901458333,45.0,90.0
718,209.5269405375,209.74424824791666,57.0,93.0
719,209.52501746041668,209.74809440208332,64.0,92.0
720,209.52309438333333,209.75386363333334,61.0,97.0
721,209.838479025,210.03847904166668,61.0,96.0
722,209.82886363958332,210.0577098125,45.0,95.0
723,209.84424825625,210.06347904375,57.0,83.0
724,209.84232517916666,210.06732519791666,64.0,90.0
725,210.12886366458332,210.62886370625,62.0,107.0
726,210.12886366458332,210.68847909583334,59.0,92.0
727,210.12886366458332,210.70001755833334,66.0,99.0
728,210.82117141458332,210.88463295833333,59.0,37.0
729,210.59040216458334,211.19617144583333,54.0,66.0
730,211.05194066458333,211.58847917083332,62.0,112.0
731,211.05194066458333,211.59424840208334,66.0,122.0
732,211.05194066458333,211.60770994166666,59.0,99.0
733,211.74424841458332,211.85963303958334,62.0,78.0
734,211.74424841458332,211.86732534791668,59.0,68.0
735,211.74424841458332,211.8807868875,66.0,82.0
736,211.51347916458334,212.02886382291666,54.0,90.0
737,210.12886366458332,212.04617151666667,47.0,99.0
738,211.97501766458333,212.10770998333334,62.0,122.0
739,211.97501766458333,212.13847921666667,59.0,107.0
740,211.97501766458333,212.25194076458334,66.0,127.0
741,212.43655616458332,212.48847924583333,62.0,45.0
742,212.43655616458332,212.53655617291668,59.0,75.0
743,212.66732541458333,212.73847926666667,62.0,102.0
744,212.66732541458333,212.75578696041666,66.0,117.0
745,212.66732541458333,212.7577100375,59.0,86.0
746,212.20578691458334,213.00194082708333,54.0,100.0
747,212.89809466458334,213.04040236875,62.0,127.0
748,212.20578691458334,213.08271006458332,47.0,59.0
749,212.89809466458334,213.15771007083333,59.0,92.0
750,212.89809466458334,213.19232545833333,66.0,127.0
751,213.12886391458332,213.19809468958334,62.0,29.0
752,213.12886391458332,213.70578703958333,47.0,39.0
753,213.35963316458333,213.70771011666668,62.0,117.0
754,213.35963316458333,213.73078704166667,66.0,122.0
755,213.59040241458334,213.73271011875,59.0,102.0
756,213.12886391458332,213.75386396666667,54.0,122.0
757,214.28271016458334,214.78463328333333,59.0,107.0
758,214.51347941458334,214.89809483125,71.0,102.0
759,214.05194091458333,215.08463330833334,54.0,112.0
760,214.97501791458333,215.08463330833334,59.0,117.0
761,213.82117166458335,215.11732561875,47.0,99.0
762,215.20578716458334,215.62694104583332,74.0,99.0
763,214.74424866458332,215.62886412291667,78.0,127.0
764,215.43655641458332,215.68078720416668,71.0,102.0
765,216.12886416458332,216.64232574583332,54.0,102.0
766,216.35963341458333,216.8423257625,57.0,102.0
767,215.89809491458334,217.00001808333334,49.0,69.0
768,216.82117191458335,217.02117193125,54.0,97.0
769,215.66732566458333,217.04617193333334,42.0,86.0
770,217.05194116458333,217.44424888958332,61.0,117.0
771,216.59040266458334,217.47117196874999,66.0,127.0
772,217.28271041458333,217.500018125,57.0,96.0
773,217.97501816458333,218.47117205208332,55.0,99.0
774,218.20578741458334,218.56347975208334,62.0,99.0
775,217.51347966458334,219.10578748958332,43.0,86.0
776,217.74424891458332,219.14617210833333,50.0,73.0
777,218.66732591458333,219.1961721125,55.0,102.0
778,218.43655666458332,219.24040288541667,71.0,127.0
779,218.89809516458334,219.25194134791667,67.0,112.0
780,219.12886441458332,219.41732597708332,62.0,96.0
781,219.59040291458334,219.92886448125,62.0,107.0
782,219.35963366458333,220.07694141666667,50.0,82.0
783,219.82117216458334,220.21924912083333,69.0,122.0
784,220.05194141458333,220.23655681458334,66.0,127.0
785,220.51347991458334,220.82886455625,61.0,93.0
786,220.28271066458333,221.15963381458334,49.0,112.0
787,220.97501841458333,221.18655689375,61.0,99.0
788,220.74424916458332,221.192326125,69.0,82.0
789,221.66732616458333,221.9423261875,59.0,95.0
790,221.89809541458334,222.17694159166666,62.0,102.0
791,221.43655691458332,222.26348006041667,54.0,93.0
792,222.35963391458333,222.67309547916668,54.0,102.0
793,221.20578766458334,222.72117240625,47.0,82.0
794,222.59040316458334,222.92501857708334,62.0,107.0
795,222.12886466458332,222.93848011666665,66.0,127.0
796,222.82117241458334,223.07117243541666,59.0,100.0
797,223.28271091458333,224.00386482083334,54.0,93.0
798,223.74424941458332,224.01540328333334,61.0,127.0
799,223.51348016458334,224.09040328958332,57.0,88.0
800,223.05194166458332,224.4577110125,42.0,96.0
801,224.20578791458334,224.50194178541668,54.0,100.0
802,223.97501866458333,224.8500187375,66.0,127.0
803,224.43655716458332,224.8615572,61.0,122.0
804,224.66732641458333,224.8730956625,57.0,97.0
805,225.35963416458333,225.90771113333332,55.0,102.0
806,225.59040341458334,225.93078805833332,59.0,92.0
807,226.05194191458332,226.25001885416665,55.0,100.0
808,224.89809566458334,226.57501888125,43.0,99.0
809,225.12886491458335,226.71155735416667,50.0,95.0
810,226.51348041458334,226.7192496625,59.0,122.0
811,226.28271116458333,226.72694197083334,62.0,99.0
812,225.82117266458334,226.72886504791666,67.0,127.0
813,227.20578816458334,227.44040356874999,57.0,107.0
814,227.43655741458332,227.66924974166668,61.0,127.0
815,226.97501891458333,227.792326675,52.0,95.0
816,226.74424966458332,228.37117287708332,45.0,92.0
817,227.89809591458334,228.37694210833334,52.0,97.0
818,228.12886516458335,228.48078827083333,61.0,127.0
819,227.66732666458333,228.51540365833333,64.0,107.0
820,228.35963441458333,228.56155750833332,57.0,107.0
821,229.05194216458332,229.26155756666665,59.0,96.0
822,229.28271141458333,229.53271143541667,62.0,112.0
823,228.82117291458334,229.61924990416668,54.0,95.0
824,228.59040366458333,229.81732684375,47.0,92.0
825,229.74424991458332,229.83848069166666,54.0,122.0
826,229.97501916458333,230.30194226875,62.0,117.0
827,229.51348066458334,230.40963458541665,66.0,127.0
828,230.20578841458334,230.53078844166666,59.0,100.0
829,230.89809616458334,231.43655774791665,54.0,102.0
830,231.12886541458334,231.5654039125,57.0,102.0
831,230.66732691458333,231.6807885375,49.0,59.0
832,231.59040391458333,231.85578855208334,54.0,93.0
833,230.43655766458332,231.8654039375,42.0,89.0
834,231.82117316458334,232.2346347375,61.0,112.0
835,231.35963466458333,232.26540397083332,66.0,122.0
836,232.05194241458332,232.28271166458333,57.0,96.0
837,232.74425016458332,233.238480975,55.0,107.0
838,232.97501941458333,233.40963483541665,62.0,79.0
839,233.43655791458332,233.65001947083334,55.0,93.0
840,232.28271166458333,233.88078872083332,43.0,97.0
841,232.51348091458334,233.90386564583332,50.0,82.0
842,233.66732716458333,234.1500195125,67.0,96.0
843,233.20578866458334,234.1500195125,71.0,122.0
844,233.89809641458334,234.18848105416666,62.0,99.0
845,234.59040416458333,235.13655805625,50.0,96.0
846,234.82117341458334,235.19425036875,57.0,107.0
847,234.35963491458332,235.48463500833333,45.0,97.0
848,234.12886566458334,235.4884811625,38.0,86.0
849,235.28271191458333,235.59617347916665,50.0,99.0
850,235.51348116458334,235.96348120208333,62.0,107.0
851,235.05194266458332,235.99809658958333,66.0,127.0
852,235.74425041458332,236.00578889791666,61.0,112.0
853,236.43655816458335,236.69425049375,59.0,99.0
854,236.66732741458333,236.9538659,62.0,100.0
855,236.20578891458334,237.07309667916667,54.0,93.0
856,237.12886591458334,237.2423274625,54.0,96.0
857,235.97501966458333,237.24809669375,47.0,85.0
858,237.35963516458332,237.74425058125,62.0,100.0
859,236.89809666458333,237.78848135416666,66.0,122.0
860,237.59040441458333,237.87117366875,59.0,97.0
861,238.28271216458333,238.79617374583333,54.0,97.0
862,238.51348141458334,238.93271221875,57.0,95.0
863,238.05194291458332,239.12501992708334,49.0,89.0
864,237.82117366458334,239.13848146666666,42.0,89.0
865,238.97501991458333,239.16155839166666,54.0,95.0
866,238.74425066458332,239.56540457916665,66.0,127.0
867,239.20578916458334,239.58463534999999,61.0,117.0
868,239.43655841458335,239.68271228125,57.0,99.0
869,240.12886616458334,240.6807892875,55.0,96.0
870,240.35963541458332,240.71155852083334,59.0,90.0
871,240.82117391458334,241.01348162291666,55.0,100.0
872,239.66732766458333,241.36925088333334,43.0,89.0
873,240.59040466458333,241.3961739625,67.0,112.0
874,241.05194316458332,241.40386627083333,62.0,92.0
875,239.89809691458333,241.500020125,50.0,86.0
876,241.28271241458333,241.50963551041667,59.0,100.0
877,241.97502016458333,242.22117403125,57.0,97.0
878,242.20578941458334,242.47309712916666,61.0,127.0
879,241.74425091458332,242.54617405833332,52.0,83.0
880,242.43655866458334,242.93655870625,64.0,102.0
881,241.51348166458334,243.18655872708334,45.0,93.0
882,242.89809716458333,243.27886642708333,61.0,127.0
883,243.12886641458334,243.28463565833334,64.0,85.0
884,242.66732791458332,243.35002027916667,52.0,117.0
885,243.35963566458332,244.40963575208332,57.0,107.0
886,243.35963566458332,244.43271267708334,45.0,117.0
887,243.35963566458332,244.4423280625,61.0,95.0
888,243.35963566458332,244.4654049875,64.0,93.0
889,245.20578966458334,245.90578972291667,66.0,97.0
890,245.20578966458334,245.95578972708333,62.0,90.0
891,245.89809741458333,246.207712825,59.0,35.0
892,246.12886666458334,246.43463592083333,62.0,85.0
893,246.12886666458334,246.69617440416667,66.0,107.0
894,246.12886666458334,246.70002055833334,71.0,92.0
895,245.20578966458334,246.86155903333332,47.0,93.0
896,246.35963591458332,246.90002057499999,59.0,48.0
897,245.66732816458332,247.06925135833333,54.0,53.0
898,246.59040516458333,247.57309755416668,62.0,48.0
899,246.82117441458334,247.63463602083334,66.0,64.0
900,246.82117441458334,247.64425140625,71.0,65.0
901,247.74425141458335,247.83078988333332,71.0,52.0
902,247.74425141458335,247.85194373125,66.0,58.0
903,247.74425141458335,247.88271296458333,62.0,89.0
904,247.51348216458334,248.06348221041665,59.0,107.0
905,247.97502066458333,248.27886684375,62.0,107.0
906,247.97502066458333,248.34040531041666,66.0,127.0
907,247.97502066458333,248.34040531041666,71.0,127.0
908,248.20578991458333,248.423097625,59.0,107.0
909,247.28271291458333,248.48271301458334,54.0,86.0
910,247.05194366458332,248.5269437875,47.0,76.0
911,248.43655916458334,248.56155917499999,66.0,127.0
912,248.43655916458334,248.56540532916665,71.0,100.0
913,248.43655916458334,248.57502071458333,62.0,117.0
914,248.66732841458332,248.8500207375,66.0,122.0
915,248.66732841458332,248.86348227708334,62.0,97.0
916,248.66732841458332,248.884636125,71.0,92.0
917,249.59040541458333,249.67886696041666,67.0,52.0
918,249.35963616458332,249.91732851875,55.0,99.0
919,249.59040541458333,250.10002084166666,62.0,97.0
920,250.05194391458332,250.29232855,55.0,112.0
921,248.89809766458333,250.59425165208333,43.0,99.0
922,249.82117466458334,250.64040550208333,71.0,127.0
923,250.28271316458333,250.67886704375,67.0,112.0
924,249.12886691458334,250.74425166458335,50.0,95.0
925,250.51348241458334,250.80194397708334,62.0,112.0
926,251.20579016458333,251.55002096249999,57.0,112.0
927,250.97502091458333,251.8038671375,52.0,89.0
928,251.43655941458334,251.92502099375,64.0,99.0
929,250.74425166458335,252.40579026458335,45.0,96.0
930,251.66732866458332,252.49040565625,73.0,127.0
931,252.12886716458334,252.52694412083332,69.0,117.0
932,251.89809791458333,252.56732873958333,52.0,95.0
933,252.35963641458332,252.57117489375,64.0,95.0
934,252.59040566458333,252.946174925,52.0,96.0
935,252.59040566458333,252.96925185,45.0,75.0
936,252.59040566458333,252.97694415833334,64.0,97.0
937,252.59040566458333,252.97886723541666,69.0,107.0
938,252.59040566458333,252.97886723541666,73.0,112.0
939,258.5904061645833,259.18271390625,54.0,97.0
940,259.05194466458335,259.38656007708335,66.0,127.0
941,259.05194466458335,259.3884831541667,62.0,122.0
942,259.2827139145833,259.4884831625,54.0,107.0
943,258.1288676645833,259.5807908625,47.0,96.0
944,259.5134831645833,259.76732933958334,66.0,117.0
945,259.5134831645833,259.80386780416666,62.0,112.0
946,259.74425241458334,259.89425242708336,59.0,95.0
947,259.9750216645833,260.47886786041664,59.0,95.0
948,259.9750216645833,260.4942524770833,64.0,99.0
949,259.9750216645833,260.53848325,40.0,100.0
950,259.9750216645833,260.54617555833335,68.0,112.0
951,260.89809866458336,261.40963716875,42.0,107.0
952,260.89809866458336,261.7038679625,69.0,102.0
953,260.89809866458336,261.71925257916666,73.0,122.0
954,260.89809866458336,261.73271411875,66.0,99.0
955,261.82117566458334,262.5788680354167,62.0,112.0
956,261.82117566458334,262.5807911125,54.0,117.0
957,261.82117566458334,262.5884834208333,47.0,76.0
958,261.82117566458334,262.59040649791666,66.0,100.0
959,261.82117566458334,262.59617572916665,59.0,102.0
