,start,end,pitch,velocity
0,23.440897999999997,23.642669249999997,73.0,90.0
1,23.677117999999997,23.8523145,71.0,97.0
2,23.913337999999996,24.057038499999997,69.0,90.0
3,24.149557999999995,24.309990749999997,71.0,90.0
4,24.385778,24.524557249999997,66.0,91.0
5,24.621997999999998,25.06983175,66.0,91.0
6,25.330657999999996,25.452704999999998,66.0,96.0
7,25.566877999999996,25.679082499999996,69.0,97.0
8,25.803098,25.915302499999996,71.0,90.0
9,26.039317999999998,26.153490999999995,73.0,101.0
10,26.275537999999997,26.398569249999998,76.0,92.0
11,26.511757999999997,26.622978249999996,78.0,95.0
12,26.747977999999996,27.067859249999998,71.0,99.0
13,27.220417999999995,27.343449249999995,73.0,99.0
14,27.456637999999998,27.574747999999996,71.0,94.0
15,27.692857999999998,27.789314499999996,69.0,101.0
16,27.929077999999997,28.062935999999997,71.0,91.0
17,28.165297999999996,28.30014025,66.0,92.0
18,28.401517999999996,28.848367499999995,66.0,91.0
19,29.346397999999997,29.531436999999997,64.0,94.0
20,29.582617999999997,29.712538999999996,61.0,91.0
21,29.818837999999996,29.963522749999996,64.0,92.0
22,30.055057999999995,30.180057749999996,66.0,89.0
23,30.291277999999995,30.845410749999996,66.0,92.0
24,30.999937999999997,31.201709249999997,73.0,90.0
25,31.236157999999996,31.411354499999995,71.0,97.0
26,31.472377999999996,31.616078499999997,69.0,90.0
27,31.708597999999995,31.869030749999997,71.0,90.0
28,31.944817999999998,32.08359725,66.0,91.0
29,32.181037999999994,32.628871749999995,66.0,91.0
30,32.889697999999996,33.011745,66.0,96.0
31,33.125918,33.238122499999996,69.0,97.0
32,33.362137999999995,33.4743425,71.0,90.0
33,33.598358,33.712531,73.0,101.0
34,33.83457799999999,33.95760925,76.0,92.0
35,34.070797999999996,34.18201825,78.0,95.0
36,34.307018,34.626899249999994,71.0,99.0
37,34.779458,34.902489249999995,73.0,99.0
38,35.015677999999994,35.133787999999996,71.0,94.0
39,35.251898,35.3483545,69.0,101.0
40,35.48811799999999,35.621976,71.0,91.0
41,35.724337999999996,35.859180249999994,66.0,92.0
42,35.960558,36.4074075,66.0,91.0
43,36.905438,37.09047699999999,64.0,94.0
44,37.14165799999999,37.271578999999996,61.0,91.0
45,37.377877999999995,37.52256275,64.0,92.0
46,37.614098,37.73909774999999,66.0,89.0
47,37.850317999999994,37.94775875,66.0,95.0
48,38.086538,38.21645899999999,66.0,91.0
49,38.32275799999999,38.69578875,71.0,94.0
50,38.79519799999999,40.21054949999999,69.0,95.0
51,42.81093799999999,42.991055749999994,64.0,94.0
52,43.047157999999996,43.434952499999994,71.0,94.0
53,43.519597999999995,44.803059999999995,69.0,91.0
54,46.11801799999999,46.31978924999999,73.0,90.0
55,46.354237999999995,46.529434499999994,71.0,97.0
56,46.59045799999999,46.73415849999999,69.0,90.0
57,46.826677999999994,46.98711074999999,71.0,90.0
58,47.062898,47.201677249999996,66.0,91.0
59,47.29911799999999,47.746951749999994,66.0,91.0
60,48.007777999999995,48.129825,66.0,96.0
61,48.243998,48.356202499999995,69.0,97.0
62,48.480217999999994,48.59242249999999,71.0,90.0
63,48.716438,48.830611,73.0,101.0
64,48.95265799999999,49.075689249999996,76.0,92.0
65,49.188877999999995,49.30009824999999,78.0,95.0
66,49.42509799999999,49.74497924999999,71.0,99.0
67,49.897538,50.020569249999994,73.0,99.0
68,50.13375799999999,50.251867999999995,71.0,94.0
69,50.369977999999996,50.46643449999999,69.0,101.0
70,50.60619799999999,50.740055999999996,71.0,91.0
71,50.842417999999995,50.97726024999999,66.0,92.0
72,51.07863799999999,51.5254875,66.0,91.0
73,52.023517999999996,52.20855699999999,64.0,94.0
74,52.25973799999999,52.389658999999995,61.0,91.0
75,52.495957999999995,52.64064274999999,64.0,92.0
76,52.73217799999999,52.85717774999999,66.0,89.0
77,52.96839799999999,53.522530749999994,66.0,92.0
78,53.677057999999995,53.878829249999995,73.0,90.0
79,53.91327799999999,54.0884745,71.0,97.0
80,54.149497999999994,54.293198499999995,69.0,90.0
81,54.38571799999999,54.546150749999995,71.0,90.0
82,54.62193799999999,54.76071724999999,66.0,91.0
83,54.858157999999996,55.30599175,66.0,91.0
84,55.56681799999999,55.68886499999999,66.0,96.0
85,55.803037999999994,55.91524249999999,69.0,97.0
86,56.039258,56.151462499999994,71.0,90.0
87,56.27547799999999,56.38965099999999,73.0,101.0
88,56.511697999999996,56.63472924999999,76.0,92.0
89,56.74791799999999,56.859138249999994,78.0,95.0
90,56.984137999999994,57.304019249999996,71.0,99.0
91,57.45657799999999,57.57960924999999,73.0,99.0
92,57.692797999999996,57.81090799999999,71.0,94.0
93,57.92901799999999,58.025474499999994,69.0,101.0
94,58.165237999999995,58.29909599999999,71.0,91.0
95,58.40145799999999,58.53630025,66.0,92.0
96,58.637677999999994,59.08452749999999,66.0,91.0
97,59.58255799999999,59.767596999999995,64.0,94.0
98,59.818777999999995,59.94869899999999,61.0,91.0
99,60.05499799999999,60.199682749999994,64.0,92.0
100,60.29121799999999,60.416217749999994,66.0,89.0
101,60.52743799999999,60.62487874999999,66.0,95.0
102,60.76365799999999,60.893578999999995,66.0,91.0
103,60.999877999999995,61.37290874999999,71.0,94.0
104,61.472317999999994,62.887669499999994,69.0,95.0
105,62.88963799999999,63.25381049999999,73.0,116.0
106,63.36207799999999,63.74002999999999,76.0,97.0
107,63.834517999999996,64.72034299999999,78.0,95.0
108,64.77939799999999,64.91916149999999,73.0,99.0
109,65.01561799999999,65.1671925,76.0,92.0
110,65.25183799999999,65.38668025,78.0,96.0
111,65.488058,65.85715174999999,71.0,97.0
112,65.96049799999999,66.50281974999999,69.0,97.0
113,66.669158,66.80203175,73.0,101.0
114,66.905378,67.05498399999999,76.0,94.0
115,67.14159799999999,67.28136149999999,78.0,101.0
116,67.37781799999999,67.7341165,71.0,101.0
117,67.850258,67.97821049999999,69.0,93.0
118,68.08647799999999,68.25773749999999,69.0,99.0
119,68.32269799999999,68.48116225,64.0,101.0
120,68.55891799999999,68.91521649999999,76.0,94.0
121,69.031358,69.2065545,71.0,88.0
122,69.26757799999999,69.98804899999999,73.0,92.0
123,70.44867799999999,70.79611824999999,73.0,104.0
124,70.92111799999999,71.24690474999998,76.0,99.0
125,71.39355799999998,72.2144225,78.0,91.0
126,72.338438,72.5215085,81.0,97.0
127,72.57465799999999,72.75576,80.0,88.0
128,72.81087799999999,72.93587774999999,78.0,93.0
129,73.04709799999999,73.40634924999999,71.0,97.0
130,73.519538,73.99000949999999,69.0,92.0
131,73.99197799999999,74.09926125,73.0,104.0
132,74.22819799999999,74.38272525,81.0,94.0
133,74.464418,74.63469325,80.0,91.0
134,74.700638,74.81579525,78.0,99.0
135,74.93685799999999,75.31874699999999,71.0,94.0
136,75.40929799999999,75.64354949999999,69.0,94.0
137,75.645518,75.80201374999999,71.0,91.0
138,75.88173799999998,76.04709199999999,73.0,92.0
139,76.11795799999999,76.35220949999999,71.0,92.0
140,76.35417799999999,76.55890199999999,69.0,92.0
141,76.590398,76.72327175,66.0,90.0
142,76.826618,77.71539574999998,69.0,91.0
143,78.007718,78.37189049999999,73.0,116.0
144,78.48015799999999,78.85811,76.0,97.0
145,78.952598,79.83842299999999,78.0,95.0
146,79.89747799999999,80.0372415,73.0,99.0
147,80.133698,80.28527249999999,76.0,92.0
148,80.36991799999998,80.50476024999999,78.0,96.0
149,80.60613799999999,80.97523174999999,71.0,97.0
150,81.078578,81.62089974999999,69.0,97.0
151,81.78723799999999,81.92011174999999,73.0,101.0
152,82.02345799999999,82.173064,76.0,94.0
153,82.259678,82.3994415,78.0,101.0
154,82.495898,82.85219649999999,71.0,101.0
155,82.96833799999999,83.0962905,69.0,93.0
156,83.20455799999999,83.3758175,69.0,99.0
157,83.440778,83.59924224999999,64.0,101.0
158,83.67699799999998,84.03329649999999,76.0,94.0
159,84.14943799999999,84.32463449999999,71.0,88.0
160,84.38565799999999,85.106129,73.0,92.0
161,85.566758,85.91419824999998,73.0,104.0
162,86.03919799999998,86.36498474999999,76.0,99.0
163,86.51163799999999,87.33250249999999,78.0,91.0
164,87.45651799999999,87.63958849999999,81.0,97.0
165,87.69273799999999,87.87383999999999,80.0,88.0
166,87.928958,88.05395775,78.0,93.0
167,88.16517799999998,88.52442924999998,71.0,97.0
168,88.63761799999999,89.10808949999999,69.0,92.0
169,89.110058,89.21734124999999,73.0,104.0
170,89.34627799999998,89.50080524999998,81.0,94.0
171,89.58249799999999,89.75277324999999,80.0,91.0
172,89.81871799999999,89.93387524999999,78.0,99.0
173,90.05493799999999,90.436827,71.0,94.0
174,90.52737799999998,90.76162949999998,69.0,94.0
175,90.76359799999999,90.92009374999999,71.0,91.0
176,90.99981799999999,91.16517199999998,73.0,92.0
177,91.236038,91.47028949999999,71.0,92.0
178,91.47225799999998,91.676982,69.0,92.0
179,91.70847799999999,91.84135174999999,66.0,90.0
180,91.94469799999999,92.34233499999999,71.0,94.0
181,92.417138,92.5569015,69.0,93.0
182,92.65335799999998,92.77638925,71.0,92.0
183,92.88957799999999,93.03918399999999,73.0,91.0
184,93.12579799999999,93.31083699999999,71.0,95.0
185,93.36201799999999,93.50670274999999,69.0,92.0
186,93.598238,93.77835574999999,69.0,85.0
187,93.83445799999998,93.98012699999998,66.0,93.0
188,94.07067799999999,94.79607024999999,74.0,97.0
189,95.01555799999998,95.16024275,76.0,93.0
190,95.25177799999999,95.43189575,73.0,92.0
191,95.48799799999999,95.72224949999999,71.0,94.0
192,95.724218,95.95846949999999,69.0,94.0
193,95.96043799999998,96.96732574999999,66.0,92.0
194,102.81081799999998,103.01258924999999,73.0,90.0
195,103.04703799999999,103.22223449999998,71.0,97.0
196,103.28325799999999,103.42695849999998,69.0,90.0
197,103.51947799999999,103.67991074999999,71.0,90.0
198,103.75569799999998,103.89447725,66.0,91.0
199,103.99191799999998,104.43975174999999,66.0,91.0
200,104.700578,104.82262499999999,66.0,96.0
201,104.93679799999998,105.04900249999999,69.0,97.0
202,105.17301799999998,105.28522249999999,71.0,90.0
203,105.40923799999999,105.52341099999998,73.0,101.0
204,105.64545799999999,105.76848924999999,76.0,92.0
205,105.881678,105.99289824999998,78.0,95.0
206,106.11789799999998,106.43777924999999,71.0,99.0
207,106.59033799999999,106.71336924999999,73.0,99.0
208,106.82655799999999,106.944668,71.0,94.0
209,107.06277799999998,107.15923449999998,69.0,101.0
210,107.29899799999998,107.43285599999999,71.0,91.0
211,107.53521799999999,107.67006024999999,66.0,92.0
212,107.77143799999999,108.21828749999999,66.0,91.0
213,108.71631799999999,108.90135699999999,64.0,94.0
214,108.95253799999999,109.08245899999999,61.0,91.0
215,109.18875799999999,109.33344274999999,64.0,92.0
216,109.42497799999998,109.54997774999998,66.0,89.0
217,109.66119799999998,110.21533074999999,66.0,92.0
218,110.369858,110.57162924999999,73.0,90.0
219,110.60607799999998,110.78127449999998,71.0,97.0
220,110.84229799999999,110.9859985,69.0,90.0
221,111.07851799999999,111.23895074999999,71.0,90.0
222,111.31473799999999,111.45351724999999,66.0,91.0
223,111.55095799999998,111.99879174999998,66.0,91.0
224,112.25961799999999,112.38166499999998,66.0,96.0
225,112.49583799999999,112.60804249999998,69.0,97.0
226,112.73205799999998,112.84426249999999,71.0,90.0
227,112.96827799999998,113.08245099999999,73.0,101.0
228,113.20449799999999,113.32752924999998,76.0,92.0
229,113.44071799999999,113.55193824999999,78.0,95.0
230,113.67693799999999,113.99681924999999,71.0,99.0
231,114.14937799999998,114.27240924999998,73.0,99.0
232,114.38559799999999,114.50370799999999,71.0,94.0
233,114.62181799999999,114.71827449999999,69.0,101.0
234,114.85803799999998,114.99189599999998,71.0,91.0
235,115.09425799999998,115.22910024999999,66.0,92.0
236,115.33047799999999,115.77732749999998,66.0,91.0
237,116.27535799999998,116.46039699999999,64.0,94.0
238,116.51157799999999,116.64149899999998,61.0,91.0
239,116.74779799999999,116.89248274999999,64.0,92.0
240,116.98401799999999,117.10901774999999,66.0,89.0
241,117.22023799999998,117.31767874999998,66.0,95.0
242,117.45645799999998,117.58637899999998,66.0,91.0
243,117.69267799999999,118.06570874999998,71.0,94.0
244,118.16511799999999,119.58046949999999,69.0,95.0
245,119.58243799999998,119.94661049999999,73.0,116.0
246,120.05487799999999,120.43282999999998,76.0,97.0
247,120.52731799999998,121.41314299999999,78.0,95.0
248,121.47219799999999,121.61196149999999,73.0,99.0
249,121.70841799999998,121.85999249999999,76.0,92.0
250,121.94463799999998,122.07948024999999,78.0,96.0
251,122.18085799999999,122.54995174999999,71.0,97.0
252,122.65329799999999,123.19561974999999,69.0,97.0
253,123.36195799999999,123.49483174999999,73.0,101.0
254,123.59817799999999,123.74778399999998,76.0,94.0
255,123.83439799999998,123.97416149999998,78.0,101.0
256,124.07061799999998,124.42691649999999,71.0,101.0
257,124.54305799999999,124.67101049999998,69.0,93.0
258,124.77927799999999,124.95053749999998,69.0,99.0
259,125.01549799999998,125.17396224999999,64.0,101.0
260,125.25171799999998,125.60801649999999,76.0,94.0
261,125.72415799999999,125.89935449999999,71.0,88.0
262,125.96037799999999,126.68084899999998,73.0,92.0
263,127.14147799999998,127.48891824999998,73.0,104.0
264,127.61391799999998,127.93970474999999,76.0,99.0
265,128.086358,128.9072225,78.0,91.0
266,129.03123799999997,129.2143085,81.0,97.0
267,129.26745799999998,129.44856,80.0,88.0
268,129.50367799999998,129.62867774999998,78.0,93.0
269,129.73989799999998,130.09914924999998,71.0,97.0
270,130.212338,130.6828095,69.0,92.0
271,130.684778,130.79206125,73.0,104.0
272,130.920998,131.07552525,81.0,94.0
273,131.15721799999997,131.32749324999997,80.0,91.0
274,131.39343799999997,131.50859524999998,78.0,99.0
275,131.62965799999998,132.01154699999998,71.0,94.0
276,132.10209799999998,132.33634949999998,69.0,94.0
277,132.338318,132.49481375,71.0,91.0
278,132.574538,132.739892,73.0,92.0
279,132.810758,133.0450095,71.0,92.0
280,133.046978,133.251702,69.0,92.0
281,133.28319799999997,133.41607175,66.0,90.0
282,133.51941799999997,134.40819574999998,69.0,91.0
283,134.700518,135.06469049999998,73.0,116.0
284,135.172958,135.55091,76.0,97.0
285,135.64539799999997,136.53122299999998,78.0,95.0
286,136.59027799999998,136.73004149999997,73.0,99.0
287,136.826498,136.9780725,76.0,92.0
288,137.062718,137.19756024999998,78.0,96.0
289,137.298938,137.66803174999998,71.0,97.0
290,137.77137799999997,138.31369974999998,69.0,97.0
291,138.48003799999998,138.61291175,73.0,101.0
292,138.71625799999998,138.865864,76.0,94.0
293,138.95247799999999,139.09224149999997,78.0,101.0
294,139.188698,139.5449965,71.0,101.0
295,139.661138,139.7890905,69.0,93.0
296,139.897358,140.0686175,69.0,99.0
297,140.13357799999997,140.29204224999998,64.0,101.0
298,140.36979799999997,140.72609649999998,76.0,94.0
299,140.84223799999998,141.01743449999998,71.0,88.0
300,141.07845799999998,141.798929,73.0,92.0
301,142.25955799999997,142.60699824999998,73.0,104.0
302,142.73199799999998,143.05778475,76.0,99.0
303,143.20443799999998,144.02530249999998,78.0,91.0
304,144.149318,144.33238849999998,81.0,97.0
305,144.385538,144.56663999999998,80.0,88.0
306,144.62175799999997,144.74675774999997,78.0,93.0
307,144.85797799999997,145.21722924999997,71.0,97.0
308,145.33041799999998,145.80088949999998,69.0,92.0
309,145.802858,145.91014124999998,73.0,104.0
310,146.039078,146.19360525,81.0,94.0
311,146.275298,146.44557325,80.0,91.0
312,146.511518,146.62667524999998,78.0,99.0
313,146.74773799999997,147.12962699999997,71.0,94.0
314,147.22017799999998,147.45442949999997,69.0,94.0
315,147.45639799999998,147.61289374999998,71.0,91.0
316,147.69261799999998,147.857972,73.0,92.0
317,147.92883799999998,148.16308949999998,71.0,92.0
318,148.165058,148.369782,69.0,92.0
319,148.401278,148.53415174999998,66.0,90.0
320,148.637498,149.03513499999997,71.0,94.0
321,149.10993799999997,149.2497015,69.0,93.0
322,149.34615799999997,149.46918924999997,71.0,92.0
323,149.58237799999998,149.73198399999998,73.0,91.0
324,149.81859799999998,150.00363699999997,71.0,95.0
325,150.05481799999998,150.19950275,69.0,92.0
326,150.291038,150.47115574999998,69.0,85.0
327,150.527258,150.672927,66.0,93.0
328,150.763478,151.48887025,74.0,97.0
329,151.70835799999998,151.85304275,76.0,93.0
330,151.94457799999998,152.12469574999997,73.0,92.0
331,152.18079799999998,152.41504949999998,71.0,94.0
332,152.41701799999998,152.65126949999998,69.0,94.0
333,152.653238,153.66012575,66.0,92.0
334,166.82643799999997,167.1906105,73.0,116.0
335,167.29887799999997,167.67682999999997,76.0,97.0
336,167.77131799999998,168.657143,78.0,95.0
337,168.716198,168.85596149999998,73.0,99.0
338,168.95241799999997,169.10399249999998,76.0,92.0
339,169.18863799999997,169.32348025,78.0,96.0
340,169.42485799999997,169.79395175,71.0,97.0
341,169.89729799999998,170.43961975,69.0,97.0
342,170.605958,170.73883174999997,73.0,101.0
343,170.842178,170.99178399999997,76.0,94.0
344,171.078398,171.21816149999998,78.0,101.0
345,171.31461799999997,171.67091649999998,71.0,101.0
346,171.78705799999997,171.91501049999997,69.0,93.0
347,172.02327799999998,172.19453749999997,69.0,99.0
348,172.25949799999998,172.41796225,64.0,101.0
349,172.49571799999998,172.8520165,76.0,94.0
350,172.968158,173.1433545,71.0,88.0
351,173.204378,173.92484899999997,73.0,92.0
352,174.38547799999998,174.73291824999998,73.0,104.0
353,174.85791799999998,175.18370474999998,76.0,99.0
354,175.330358,176.1512225,78.0,91.0
355,176.27523799999997,176.4583085,81.0,97.0
356,176.51145799999998,176.69256,80.0,88.0
357,176.74767799999998,176.87267774999998,78.0,93.0
358,176.98389799999998,177.34314924999998,71.0,97.0
359,177.456338,177.9268095,69.0,92.0
360,177.92877799999997,178.03606125,73.0,104.0
361,178.16499799999997,178.31952524999997,81.0,94.0
362,178.40121799999997,178.57149324999997,80.0,91.0
363,178.63743799999997,178.75259524999998,78.0,99.0
364,178.87365799999998,179.25554699999998,71.0,94.0
365,179.34609799999998,179.58034949999998,69.0,94.0
366,179.582318,179.73881375,71.0,91.0
367,179.818538,179.98389199999997,73.0,92.0
368,180.054758,180.2890095,71.0,92.0
369,180.29097799999997,180.49570199999997,69.0,92.0
370,180.52719799999997,180.66007175,66.0,90.0
371,180.76341799999997,181.65219574999998,69.0,91.0
372,181.944518,182.30869049999998,73.0,116.0
373,182.41695799999997,182.79491,76.0,97.0
374,182.88939799999997,183.77522299999998,78.0,95.0
375,183.83427799999998,183.97404149999997,73.0,99.0
376,184.070498,184.22207249999997,76.0,92.0
377,184.306718,184.44156024999998,78.0,96.0
378,184.54293799999996,184.91203174999998,71.0,97.0
379,185.01537799999997,185.55769974999998,69.0,97.0
380,185.72403799999998,185.85691174999997,73.0,101.0
381,185.96025799999998,186.109864,76.0,94.0
382,186.19647799999998,186.33624149999997,78.0,101.0
383,186.432698,186.78899649999997,71.0,101.0
384,186.90513799999997,187.0330905,69.0,93.0
385,187.14135799999997,187.3126175,69.0,99.0
386,187.37757799999997,187.53604224999998,64.0,101.0
387,187.61379799999997,187.97009649999998,76.0,94.0
388,188.08623799999998,188.26143449999998,71.0,88.0
389,188.32245799999998,189.042929,73.0,92.0
390,189.50355799999997,189.85099824999998,73.0,104.0
391,189.97599799999998,190.30178474999997,76.0,99.0
392,190.44843799999998,191.26930249999998,78.0,91.0
393,191.39331799999997,191.57638849999998,81.0,97.0
394,191.62953799999997,191.81063999999998,80.0,88.0
395,191.86575799999997,191.99075774999997,78.0,93.0
396,192.10197799999997,192.46122924999997,71.0,97.0
397,192.57441799999998,193.04488949999998,69.0,92.0
398,193.046858,193.15414124999998,73.0,104.0
399,193.283078,193.43760525,81.0,94.0
400,193.51929799999996,193.68957324999997,80.0,91.0
401,193.75551799999997,193.87067524999998,78.0,99.0
402,193.99173799999997,194.37362699999997,71.0,94.0
403,194.46417799999998,194.69842949999997,69.0,94.0
404,194.70039799999998,194.85689374999998,71.0,91.0
405,194.93661799999998,195.101972,73.0,92.0
406,195.17283799999998,195.40708949999998,71.0,92.0
407,195.409058,195.613782,69.0,92.0
408,195.645278,195.77815174999998,66.0,90.0
409,195.88149799999997,196.27913499999997,71.0,94.0
410,196.35393799999997,196.4937015,69.0,93.0
411,196.59015799999997,196.71318924999997,71.0,92.0
412,196.82637799999998,196.97598399999998,73.0,91.0
413,197.06259799999998,197.24763699999997,71.0,95.0
414,197.29881799999998,197.44350274999996,69.0,92.0
415,197.535038,197.71515574999998,69.0,85.0
416,197.771258,197.916927,66.0,93.0
417,198.00747799999996,198.73287024999996,74.0,97.0
418,198.95235799999998,199.09704274999999,76.0,93.0
419,199.18857799999998,199.36869574999997,73.0,92.0
420,199.42479799999998,199.65904949999998,71.0,94.0
421,199.66101799999998,199.89526949999998,69.0,94.0
422,199.897238,200.90412574999996,66.0,92.0
