,start,end,pitch,velocity
0,8.795257999999999,8.97636,40.0,92.0
1,8.795257999999999,8.984233999999999,52.0,92.0
2,9.031477999999998,9.417304,61.0,90.0
3,9.031477999999998,9.420256749999998,54.0,90.0
4,9.503917999999999,10.07183025,57.0,90.0
5,9.503917999999999,10.0846255,61.0,92.0
6,9.503917999999999,10.092499499999999,54.0,92.0
7,9.031477999999998,10.77655325,42.0,92.0
8,10.685018,11.040332249999999,54.0,84.0
9,10.685018,11.055095999999999,57.0,84.0
10,10.685018,11.080686499999999,61.0,91.0
11,11.629897999999999,11.83363775,54.0,92.0
12,11.629897999999999,11.834621999999998,61.0,93.0
13,12.102337999999998,12.362179999999999,54.0,91.0
14,12.102337999999998,12.363164249999999,57.0,89.0
15,12.102337999999998,12.405486999999999,61.0,92.0
16,12.338557999999999,12.524581249999999,49.0,85.0
17,10.921237999999999,12.612179499999998,42.0,88.0
18,12.574777999999998,12.702730499999998,54.0,91.0
19,12.810997999999998,13.069855749999999,54.0,91.0
20,12.810997999999998,13.080682499999998,61.0,91.0
21,12.810997999999998,13.090524999999998,42.0,93.0
22,13.283437999999999,14.330679999999997,54.0,94.0
23,13.283437999999999,14.375955499999998,61.0,94.0
24,13.283437999999999,14.577726749999998,42.0,94.0
25,14.700757999999999,15.147607499999998,66.0,83.0
26,14.700757999999999,15.257843499999998,61.0,91.0
27,14.700757999999999,15.265717499999997,54.0,89.0
28,14.700757999999999,15.524575249999998,49.0,90.0
29,15.409417999999999,15.734220499999998,66.0,89.0
30,15.409417999999999,15.743078749999999,54.0,89.0
31,15.409417999999999,15.783432999999999,61.0,92.0
32,15.881857999999998,16.06984975,61.0,88.0
33,15.881857999999998,16.09544025,54.0,88.0
34,14.700757999999999,16.591502249999998,42.0,90.0
35,16.590518,16.591502249999998,42.0,92.0
36,16.118077999999997,16.59937625,49.0,90.0
37,16.354297999999996,16.607250249999996,54.0,91.0
38,16.590518,16.607250249999996,54.0,88.0
39,16.354297999999996,16.611187249999997,61.0,91.0
40,16.590518,16.611187249999997,61.0,90.0
41,17.062958,17.58953175,66.0,85.0
42,17.062958,17.707641749999997,54.0,90.0
43,17.062958,17.7342165,61.0,91.0
44,18.007838,18.12693225,54.0,93.0
45,18.007838,18.347404249999997,61.0,92.0
46,17.062958,18.3483885,42.0,95.0
47,18.007838,18.360199499999997,66.0,90.0
48,18.244058,18.372994749999997,54.0,91.0
49,18.480278,18.79228525,54.0,92.0
50,18.480278,18.825749749999996,66.0,83.0
51,18.480278,19.005867499999997,61.0,91.0
52,18.952717999999997,19.0964185,54.0,82.0
53,18.480278,19.156457749999998,42.0,94.0
54,19.188937999999997,19.422205249999998,54.0,93.0
55,19.188937999999997,19.719448749999998,59.0,93.0
56,19.661378,19.783424999999998,54.0,90.0
57,19.897598,20.019644999999997,54.0,96.0
58,19.188937999999997,20.0609835,47.0,104.0
59,19.897598,20.068857499999996,59.0,99.0
60,20.133817999999998,20.272597249999997,57.0,97.0
61,20.370037999999997,20.667281499999998,54.0,92.0
62,20.370037999999997,20.682045249999998,42.0,92.0
63,20.842477999999996,21.600350499999998,66.0,85.0
64,20.842477999999996,21.627909499999998,61.0,90.0
65,20.842477999999996,21.689917249999997,54.0,90.0
66,21.787357999999998,22.039326,57.0,88.0
67,22.023577999999997,22.096412499999996,54.0,76.0
68,21.787357999999998,22.122987249999998,61.0,92.0
69,21.787357999999998,22.142672249999997,66.0,88.0
70,20.842477999999996,22.155467499999997,42.0,92.0
71,22.259797999999996,22.602316999999996,54.0,87.0
72,22.259797999999996,22.660387749999998,57.0,86.0
73,22.259797999999996,22.827710249999996,61.0,91.0
74,22.732238,22.832631499999998,54.0,96.0
75,22.259797999999996,22.899560499999996,42.0,93.0
76,22.968458,23.229284249999996,54.0,96.0
77,22.968458,23.545228499999997,59.0,96.0
78,23.440897999999997,23.580661499999998,54.0,88.0
79,23.677117999999997,23.800149249999997,54.0,92.0
80,22.968458,24.036369249999996,47.0,92.0
81,23.913337999999996,24.100345499999996,54.0,92.0
82,23.677117999999997,24.117077749999996,59.0,93.0
83,23.677117999999997,24.144636749999997,66.0,90.0
84,24.149557999999995,24.501919499999996,66.0,82.0
85,24.149557999999995,24.510777749999995,61.0,82.0
86,24.149557999999995,24.756840249999996,42.0,90.0
87,24.621997999999998,24.932036749999998,69.0,89.0
88,24.621997999999998,24.976328,66.0,85.0
89,24.621997999999998,25.009792499999996,61.0,83.0
90,25.094437999999997,25.234201499999998,49.0,74.0
91,25.330657999999996,25.475342749999996,61.0,84.0
92,25.330657999999996,25.530460749999996,66.0,86.0
93,25.330657999999996,25.624948749999998,69.0,90.0
94,25.803098,25.89463325,61.0,90.0
95,26.039317999999998,26.320813499999996,57.0,89.0
96,26.039317999999998,26.329671749999996,61.0,89.0
97,26.275537999999997,26.570812999999998,52.0,86.0
98,26.039317999999998,26.58951375,45.0,88.0
99,26.511757999999997,26.637741999999996,57.0,93.0
100,26.511757999999997,26.686954499999995,61.0,91.0
101,26.984197999999996,27.342464999999997,47.0,88.0
102,27.220417999999995,27.493055249999998,66.0,83.0
103,27.220417999999995,27.523566999999996,59.0,92.0
104,27.456637999999998,27.690889499999997,54.0,79.0
105,27.692857999999998,27.878881249999996,66.0,83.0
106,27.692857999999998,27.900534749999995,59.0,89.0
107,27.929077999999997,28.281439499999998,66.0,82.0
108,27.929077999999997,28.290297749999997,61.0,82.0
109,27.929077999999997,28.536360249999998,42.0,90.0
110,28.401517999999996,28.711556749999996,69.0,89.0
111,28.401517999999996,28.755847999999997,66.0,85.0
112,28.401517999999996,28.789312499999998,61.0,83.0
113,28.873958,29.013721499999996,49.0,74.0
114,29.110177999999998,29.254862749999997,61.0,84.0
115,29.110177999999998,29.309980749999998,66.0,86.0
116,29.110177999999998,29.404468749999996,69.0,90.0
117,29.582617999999997,29.674153249999996,61.0,90.0
118,29.818837999999996,30.100333499999998,57.0,89.0
119,29.818837999999996,30.109191749999997,61.0,89.0
120,30.055057999999995,30.350332999999996,52.0,86.0
121,29.818837999999996,30.369033749999996,45.0,88.0
122,30.291277999999995,30.417261999999997,57.0,93.0
123,30.291277999999995,30.466474499999997,61.0,91.0
124,30.763717999999997,31.121984999999995,47.0,88.0
125,30.999937999999997,31.272575249999996,66.0,83.0
126,30.999937999999997,31.303086999999998,59.0,92.0
127,31.236157999999996,31.470409499999995,54.0,79.0
128,31.472377999999996,31.658401249999997,66.0,83.0
129,31.472377999999996,31.680054749999996,59.0,89.0
130,31.708597999999995,32.060959499999996,66.0,82.0
131,31.708597999999995,32.06981775,61.0,82.0
132,31.708597999999995,32.31588025,42.0,90.0
133,32.181037999999994,32.49107675,69.0,89.0
134,32.181037999999994,32.535368,66.0,85.0
135,32.181037999999994,32.5688325,61.0,83.0
136,32.65347799999999,32.79324149999999,49.0,74.0
137,32.889697999999996,33.03438275,61.0,84.0
138,32.889697999999996,33.08950075,66.0,86.0
139,32.889697999999996,33.18398875,69.0,90.0
140,33.362137999999995,33.453673249999994,61.0,90.0
141,33.598358,33.879853499999996,57.0,89.0
142,33.598358,33.88871175,61.0,89.0
143,33.83457799999999,34.129853,52.0,86.0
144,33.598358,34.14855375,45.0,88.0
145,34.070797999999996,34.196782,57.0,93.0
146,34.070797999999996,34.245994499999995,61.0,91.0
147,34.543237999999995,34.90150499999999,47.0,88.0
148,34.779458,35.052095249999994,66.0,83.0
149,34.779458,35.082606999999996,59.0,92.0
150,35.015677999999994,35.24992949999999,54.0,79.0
151,35.251898,35.437921249999995,66.0,83.0
152,35.251898,35.459574749999994,59.0,89.0
153,35.48811799999999,35.840479499999994,66.0,82.0
154,35.48811799999999,35.84933775,61.0,82.0
155,35.48811799999999,36.09540025,42.0,90.0
156,35.960558,36.270596749999996,69.0,89.0
157,35.960558,36.314887999999996,66.0,85.0
158,35.960558,36.3483525,61.0,83.0
159,36.432998,36.5727615,49.0,74.0
160,36.669217999999994,36.81390275,61.0,84.0
161,36.669217999999994,36.86902075,66.0,86.0
162,36.669217999999994,36.963508749999995,69.0,90.0
163,37.14165799999999,37.23319324999999,61.0,90.0
164,37.377877999999995,37.659373499999994,57.0,89.0
165,37.377877999999995,37.66823175,61.0,89.0
166,37.614098,37.909372999999995,52.0,86.0
167,37.377877999999995,37.928073749999996,45.0,88.0
168,37.850317999999994,37.976302,57.0,93.0
169,37.850317999999994,38.02551449999999,61.0,91.0
170,38.32275799999999,38.681025,47.0,88.0
171,38.558977999999996,38.83161525,66.0,83.0
172,38.558977999999996,38.862126999999994,59.0,92.0
173,38.79519799999999,39.0294495,54.0,79.0
174,39.031417999999995,39.21744124999999,66.0,83.0
175,39.031417999999995,39.23909474999999,59.0,89.0
176,39.267638,39.6199995,66.0,82.0
177,39.267638,39.628857749999995,61.0,82.0
178,39.267638,39.874920249999995,42.0,90.0
179,39.740078,40.050116749999994,69.0,89.0
180,39.740078,40.094407999999994,66.0,85.0
181,39.740078,40.127872499999995,61.0,83.0
182,40.212517999999996,40.3522815,49.0,74.0
183,40.44873799999999,40.593422749999995,61.0,84.0
184,40.44873799999999,40.648540749999995,66.0,86.0
185,40.44873799999999,40.74302874999999,69.0,90.0
186,40.921178,41.01271325,61.0,90.0
187,41.15739799999999,41.43889349999999,57.0,89.0
188,41.15739799999999,41.447751749999995,61.0,89.0
189,41.393618,41.68889299999999,52.0,86.0
190,41.15739799999999,41.707593749999994,45.0,88.0
191,41.62983799999999,41.755821999999995,57.0,93.0
192,41.62983799999999,41.8050345,61.0,91.0
193,42.102278,42.460544999999996,47.0,88.0
194,42.338497999999994,42.61113525,66.0,83.0
195,42.338497999999994,42.64164699999999,59.0,92.0
196,42.574718,42.808969499999996,54.0,79.0
197,42.81093799999999,42.99696125,66.0,83.0
198,42.81093799999999,43.01861475,59.0,89.0
199,43.047157999999996,43.3995195,66.0,82.0
200,43.047157999999996,43.40837774999999,61.0,82.0
201,43.047157999999996,43.65444024999999,42.0,90.0
202,43.519597999999995,43.82963674999999,69.0,89.0
203,43.519597999999995,43.87392799999999,66.0,85.0
204,43.519597999999995,43.90739249999999,61.0,83.0
205,43.992037999999994,44.131801499999995,49.0,74.0
206,44.228258,44.37294274999999,61.0,84.0
207,44.228258,44.42806074999999,66.0,86.0
208,44.228258,44.52254874999999,69.0,90.0
209,44.700697999999996,44.792233249999995,61.0,90.0
210,44.93691799999999,45.2184135,57.0,89.0
211,44.93691799999999,45.22727174999999,61.0,89.0
212,45.173137999999994,45.46841299999999,52.0,86.0
213,44.93691799999999,45.48711374999999,45.0,88.0
214,45.409358,45.53534199999999,57.0,93.0
215,45.409358,45.584554499999996,61.0,91.0
216,45.881797999999996,46.240064999999994,47.0,88.0
217,46.11801799999999,46.390655249999995,66.0,83.0
218,46.11801799999999,46.421167,59.0,92.0
219,46.354237999999995,46.588489499999994,54.0,79.0
220,46.59045799999999,46.776481249999996,66.0,83.0
221,46.59045799999999,46.798134749999996,59.0,89.0
222,46.826677999999994,47.179039499999995,66.0,82.0
223,46.826677999999994,47.18789775,61.0,82.0
224,46.826677999999994,47.43396024999999,42.0,90.0
225,47.29911799999999,47.60915675,69.0,89.0
226,47.29911799999999,47.653448,66.0,85.0
227,47.29911799999999,47.68691249999999,61.0,83.0
228,47.77155799999999,47.91132149999999,49.0,74.0
229,48.007777999999995,48.15246274999999,61.0,84.0
230,48.007777999999995,48.20758074999999,66.0,86.0
231,48.007777999999995,48.30206875,69.0,90.0
232,48.480217999999994,48.57175324999999,61.0,90.0
233,48.716438,48.997933499999995,57.0,89.0
234,48.716438,49.00679174999999,61.0,89.0
235,48.95265799999999,49.247932999999996,52.0,86.0
236,48.716438,49.26663375,45.0,88.0
237,49.188877999999995,49.31486199999999,57.0,93.0
238,49.188877999999995,49.364074499999994,61.0,91.0
239,49.661317999999994,50.01958499999999,47.0,88.0
240,49.897538,50.17017524999999,66.0,83.0
241,49.897538,50.200686999999995,59.0,92.0
242,50.13375799999999,50.36800949999999,54.0,79.0
243,50.369977999999996,50.556001249999994,66.0,83.0
244,50.369977999999996,50.577654749999994,59.0,89.0
245,50.60619799999999,50.95855949999999,66.0,82.0
246,50.60619799999999,50.967417749999996,61.0,82.0
247,50.60619799999999,51.213480249999996,42.0,90.0
248,51.07863799999999,51.388676749999995,69.0,89.0
249,51.07863799999999,51.432967999999995,66.0,85.0
250,51.07863799999999,51.466432499999996,61.0,83.0
251,51.551078,51.69084149999999,49.0,74.0
252,51.78729799999999,51.931982749999996,61.0,84.0
253,51.78729799999999,51.987100749999996,66.0,86.0
254,51.78729799999999,52.081588749999995,69.0,90.0
255,52.25973799999999,52.35127324999999,61.0,90.0
256,52.495957999999995,52.77745349999999,57.0,89.0
257,52.495957999999995,52.786311749999996,61.0,89.0
258,52.73217799999999,53.027452999999994,52.0,86.0
259,52.495957999999995,53.046153749999995,45.0,88.0
260,52.96839799999999,53.094381999999996,57.0,93.0
261,52.96839799999999,53.14359449999999,61.0,91.0
262,53.44083799999999,53.79910499999999,47.0,88.0
263,53.677057999999995,53.94969524999999,66.0,83.0
264,53.677057999999995,53.98020699999999,59.0,92.0
265,53.91327799999999,54.14752949999999,54.0,79.0
266,54.149497999999994,54.33552124999999,66.0,83.0
267,54.149497999999994,54.35717474999999,59.0,89.0
268,54.38571799999999,54.73807949999999,66.0,82.0
269,54.38571799999999,54.746937749999994,61.0,82.0
270,54.38571799999999,54.993000249999994,42.0,90.0
271,54.858157999999996,55.16819674999999,69.0,89.0
272,54.858157999999996,55.21248799999999,66.0,85.0
273,54.858157999999996,55.245952499999994,61.0,83.0
274,55.330597999999995,55.470361499999996,49.0,74.0
275,55.56681799999999,55.711502749999994,61.0,84.0
276,55.56681799999999,55.766620749999994,66.0,86.0
277,55.56681799999999,55.86110874999999,69.0,90.0
278,56.039258,56.130793249999996,61.0,90.0
279,56.27547799999999,56.55697349999999,57.0,89.0
280,56.27547799999999,56.565831749999994,61.0,89.0
281,56.511697999999996,56.80697299999999,52.0,86.0
282,56.27547799999999,56.82567374999999,45.0,88.0
283,56.74791799999999,56.873901999999994,57.0,93.0
284,56.74791799999999,56.92311449999999,61.0,91.0
285,57.22035799999999,57.578624999999995,47.0,88.0
286,57.45657799999999,57.729215249999996,66.0,83.0
287,57.45657799999999,57.75972699999999,59.0,92.0
288,57.692797999999996,57.927049499999995,54.0,79.0
289,57.92901799999999,58.11504124999999,66.0,83.0
290,57.92901799999999,58.13669474999999,59.0,89.0
291,58.165237999999995,58.517599499999996,66.0,82.0
292,58.165237999999995,58.52645774999999,61.0,82.0
293,58.165237999999995,58.77252024999999,42.0,90.0
294,58.637677999999994,58.94771674999999,69.0,89.0
295,58.637677999999994,58.99200799999999,66.0,85.0
296,58.637677999999994,59.02547249999999,61.0,83.0
297,59.11011799999999,59.249881499999994,49.0,74.0
298,59.346337999999996,59.49102274999999,61.0,84.0
299,59.346337999999996,59.54614074999999,66.0,86.0
300,59.346337999999996,59.64062874999999,69.0,90.0
301,59.818777999999995,59.910313249999994,61.0,90.0
302,60.05499799999999,60.336493499999996,57.0,89.0
303,60.05499799999999,60.34535174999999,61.0,89.0
304,60.29121799999999,60.58649299999999,52.0,86.0
305,60.05499799999999,60.60519374999999,45.0,88.0
306,60.52743799999999,60.65342199999999,57.0,93.0
307,60.52743799999999,60.702634499999995,61.0,91.0
308,60.999877999999995,61.35814499999999,47.0,88.0
309,61.23609799999999,61.508735249999994,66.0,83.0
310,61.23609799999999,61.539246999999996,59.0,92.0
311,61.472317999999994,61.70656949999999,54.0,79.0
312,61.70853799999999,61.894561249999995,66.0,83.0
313,61.70853799999999,61.916214749999995,59.0,89.0
314,62.180977999999996,62.29515099999999,61.0,92.0
315,62.180977999999996,62.30007224999999,65.0,91.0
316,62.180977999999996,62.311883249999994,68.0,91.0
317,62.41719799999999,63.73314024999999,61.0,94.0
318,62.41719799999999,63.74101424999999,65.0,96.0
319,62.41719799999999,63.76365199999999,68.0,95.0
320,61.94475799999999,63.77251024999999,37.0,99.0
321,63.834517999999996,64.00873025,61.0,82.0
322,63.834517999999996,64.17408424999999,66.0,81.0
323,64.07073799999999,64.1986905,61.0,72.0
324,64.07073799999999,64.40046174999999,49.0,64.0
325,64.306958,64.4703435,61.0,88.0
326,63.834517999999996,64.4900285,42.0,90.0
327,64.306958,64.52841425,66.0,89.0
328,64.306958,64.6002645,69.0,86.0
329,64.77939799999999,64.94967324999999,61.0,86.0
330,64.543178,65.02447624999999,49.0,84.0
331,65.01561799999999,65.2104995,61.0,86.0
332,65.01561799999999,65.358137,69.0,77.0
333,65.01561799999999,65.3916015,66.0,90.0
334,65.488058,65.59042,61.0,87.0
335,65.724278,65.93786024999999,62.0,77.0
336,65.724278,65.9427815,69.0,84.0
337,65.724278,65.94573424999999,66.0,79.0
338,65.96049799999999,66.30596974999999,57.0,78.0
339,66.19671799999999,66.48116624999999,62.0,86.0
340,66.19671799999999,66.48707175,66.0,89.0
341,66.19671799999999,66.53037875,69.0,86.0
342,66.669158,66.7144335,69.0,73.0
343,66.669158,66.76856724999999,62.0,85.0
344,65.724278,66.91226775,50.0,88.0
345,66.432938,66.92112599999999,57.0,80.0
346,66.905378,67.06581075,62.0,87.0
347,66.905378,67.07073199999999,66.0,89.0
348,66.905378,67.44080999999998,69.0,87.0
349,67.37781799999999,67.44966824999999,62.0,85.0
350,67.614038,67.75281724999999,59.0,73.0
351,67.614038,67.9309665,64.0,82.0
352,67.850258,68.18293449999999,47.0,83.0
353,68.08647799999999,68.29513899999999,59.0,86.0
354,68.08647799999999,68.31482399999999,64.0,90.0
355,68.08647799999999,68.377816,68.0,84.0
356,68.55891799999999,68.67210675,59.0,84.0
357,68.32269799999999,68.91423225,47.0,76.0
358,67.614038,68.92013775,40.0,87.0
359,68.795138,68.97427149999999,59.0,89.0
360,68.795138,69.17505849999999,68.0,88.0
361,68.795138,69.25183,64.0,90.0
362,69.26757799999999,69.37092424999999,59.0,88.0
363,69.50379799999999,69.75675025,64.0,86.0
364,69.50379799999999,69.78430924999999,57.0,85.0
365,69.74001799999999,70.09533225,52.0,73.0
366,69.976238,70.20556824999998,61.0,88.0
367,69.976238,70.21541074999999,57.0,86.0
368,69.976238,70.24690675,64.0,89.0
369,70.44867799999999,70.54808725,57.0,85.0
370,70.212458,70.76363799999999,52.0,84.0
371,69.50379799999999,70.80792924999999,45.0,85.0
372,70.68489799999999,70.97328325,57.0,90.0
373,70.68489799999999,70.97525175,64.0,90.0
374,70.68489799999999,70.98509424999999,61.0,91.0
375,70.92111799999999,71.08351925,52.0,81.0
376,71.157338,71.29119599999999,57.0,86.0
377,71.39355799999998,71.617967,61.0,77.0
378,71.39355799999998,71.69277,66.0,80.0
379,71.62977799999999,71.74690374999999,57.0,77.0
380,71.86599799999999,71.98509225,57.0,84.0
381,71.86599799999999,72.0372575,61.0,83.0
382,72.102218,72.21540674999999,57.0,78.0
383,72.338438,72.40438275,61.0,58.0
384,71.62977799999999,72.64453974999999,49.0,65.0
385,71.39355799999998,72.65142949999999,42.0,85.0
386,72.57465799999999,72.696705,57.0,86.0
387,72.57465799999999,72.86796449999999,61.0,95.0
388,72.57465799999999,72.9033975,66.0,86.0
389,73.04709799999999,73.13371199999999,57.0,85.0
390,73.283318,73.47032549999999,59.0,84.0
391,73.283318,73.5411915,66.0,76.0
392,73.283318,73.56481349999999,63.0,79.0
393,73.75575799999999,73.89552149999999,59.0,87.0
394,73.283318,73.90241124999999,47.0,85.0
395,73.75575799999999,73.94867099999999,66.0,85.0
396,73.75575799999999,74.05103299999999,63.0,85.0
397,73.99197799999999,74.32957574999999,59.0,78.0
398,74.22819799999999,74.50575649999999,54.0,73.0
399,74.464418,74.59237049999999,59.0,88.0
400,74.464418,74.6986695,63.0,88.0
401,74.464418,74.84433849999999,71.0,85.0
402,74.464418,74.87780299999999,66.0,84.0
403,74.93685799999999,75.05299949999998,59.0,85.0
404,75.17307799999999,75.35910125,57.0,84.0
405,75.17307799999999,75.50181749999999,62.0,80.0
406,75.40929799999999,75.53232924999999,57.0,80.0
407,75.645518,75.78429725,57.0,86.0
408,75.645518,75.92406075,62.0,86.0
409,75.645518,75.99492674999999,66.0,84.0
410,75.88173799999998,76.035281,57.0,83.0
411,76.11795799999999,76.22524125,57.0,74.0
412,76.35417799999999,76.50476825,57.0,90.0
413,76.35417799999999,76.66913799999999,62.0,95.0
414,75.17307799999999,76.77051574999999,50.0,87.0
415,76.826618,76.91815324999999,57.0,87.0
416,77.06283799999999,77.31775875,64.0,89.0
417,77.06283799999999,77.338428,57.0,76.0
418,77.53527799999999,77.669136,57.0,85.0
419,77.29905799999999,77.9270095,52.0,82.0
420,77.771498,78.02051325,61.0,89.0
421,77.771498,78.05791475,57.0,80.0
422,77.771498,78.06775724999999,64.0,89.0
423,78.007718,78.35318974999998,52.0,80.0
424,78.24393799999999,78.50968549999999,57.0,85.0
425,78.24393799999999,78.52051225,69.0,84.0
426,78.24393799999999,78.55200824999999,61.0,93.0
427,78.24393799999999,78.55397674999999,64.0,88.0
428,78.71637799999999,78.77936999999999,61.0,64.0
429,78.71637799999999,78.909291,57.0,86.0
430,77.06283799999999,78.93291299999999,45.0,85.0
431,78.48015799999999,78.94275549999999,52.0,86.0
432,78.952598,79.12681024999999,61.0,82.0
433,78.952598,79.29216424999998,66.0,81.0
434,79.18881799999998,79.31677049999999,61.0,72.0
435,79.18881799999998,79.51854175,49.0,64.0
436,79.42503799999999,79.58842349999999,61.0,88.0
437,78.952598,79.60810849999999,42.0,90.0
438,79.42503799999999,79.64649424999999,66.0,89.0
439,79.42503799999999,79.71834449999999,69.0,86.0
440,79.89747799999999,80.06775325,61.0,86.0
441,79.66125799999999,80.14255624999998,49.0,84.0
442,80.133698,80.32857949999999,61.0,86.0
443,80.133698,80.47621699999999,69.0,77.0
444,80.133698,80.50968149999999,66.0,90.0
445,80.60613799999999,80.70849999999999,61.0,87.0
446,80.84235799999999,81.05594024999999,62.0,77.0
447,80.84235799999999,81.06086149999999,69.0,84.0
448,80.84235799999999,81.06381425,66.0,79.0
449,81.078578,81.42404975,57.0,78.0
450,81.314798,81.59924625,62.0,86.0
451,81.314798,81.60515174999999,66.0,89.0
452,81.314798,81.64845874999999,69.0,86.0
453,81.78723799999999,81.83251349999999,69.0,73.0
454,81.78723799999999,81.88664725,62.0,85.0
455,80.84235799999999,82.03034774999999,50.0,88.0
456,81.55101799999998,82.039206,57.0,80.0
457,82.02345799999999,82.18389074999999,62.0,87.0
458,82.02345799999999,82.18881199999998,66.0,89.0
459,82.02345799999999,82.55888999999999,69.0,87.0
460,82.495898,82.56774825,62.0,85.0
461,82.73211799999999,82.87089724999998,59.0,73.0
462,82.73211799999999,83.04904649999999,64.0,82.0
463,82.96833799999999,83.3010145,47.0,83.0
464,83.20455799999999,83.41321899999998,59.0,86.0
465,83.20455799999999,83.432904,64.0,90.0
466,83.20455799999999,83.49589599999999,68.0,84.0
467,83.67699799999998,83.79018674999999,59.0,84.0
468,83.440778,84.03231224999999,47.0,76.0
469,82.73211799999999,84.03821774999999,40.0,87.0
470,83.91321799999999,84.09235149999999,59.0,89.0
471,83.91321799999999,84.29313849999998,68.0,88.0
472,83.91321799999999,84.36990999999999,64.0,90.0
473,84.38565799999999,84.48900425,59.0,88.0
474,84.621878,84.87483024999999,64.0,86.0
475,84.621878,84.90238924999998,57.0,85.0
476,84.85809799999998,85.21341224999999,52.0,73.0
477,85.09431799999999,85.32364824999999,61.0,88.0
478,85.09431799999999,85.33349075,57.0,86.0
479,85.09431799999999,85.36498674999999,64.0,89.0
480,85.566758,85.66616724999999,57.0,85.0
481,85.33053799999999,85.88171799999999,52.0,84.0
482,84.621878,85.92600924999999,45.0,85.0
483,85.802978,86.09136324999999,57.0,90.0
484,85.802978,86.09333174999999,64.0,90.0
485,85.802978,86.10317425,61.0,91.0
486,86.03919799999998,86.20159924999999,52.0,81.0
487,86.27541799999999,86.40927599999999,57.0,86.0
488,86.51163799999999,86.73604699999999,61.0,77.0
489,86.51163799999999,86.81084999999999,66.0,80.0
490,86.747858,86.86498375,57.0,77.0
491,86.98407799999998,87.10317224999999,57.0,84.0
492,86.98407799999998,87.15533749999999,61.0,83.0
493,87.22029799999999,87.33348674999999,57.0,78.0
494,87.45651799999999,87.52246274999999,61.0,58.0
495,86.747858,87.76261974999998,49.0,65.0
496,86.51163799999999,87.76950949999998,42.0,85.0
497,87.69273799999999,87.81478499999999,57.0,86.0
498,87.69273799999999,87.98604449999999,61.0,95.0
499,87.69273799999999,88.02147749999999,66.0,86.0
500,88.16517799999998,88.251792,57.0,85.0
501,88.40139799999999,88.5884055,59.0,84.0
502,88.40139799999999,88.65927149999999,66.0,76.0
503,88.40139799999999,88.68289349999999,63.0,79.0
504,88.87383799999999,89.0136015,59.0,87.0
505,88.40139799999999,89.02049124999999,47.0,85.0
506,88.87383799999999,89.06675099999998,66.0,85.0
507,88.87383799999999,89.169113,63.0,85.0
508,89.110058,89.44765575,59.0,78.0
509,89.34627799999998,89.6238365,54.0,73.0
510,89.58249799999999,89.7104505,59.0,88.0
511,89.58249799999999,89.81674949999999,63.0,88.0
512,89.58249799999999,89.96241849999998,71.0,85.0
513,89.58249799999999,89.99588299999999,66.0,84.0
514,90.05493799999999,90.17107949999999,59.0,85.0
515,90.291158,90.55985824999999,57.0,91.0
516,90.291158,90.5687165,62.0,91.0
517,90.291158,90.59037,38.0,101.0
518,90.52737799999998,90.66812574999999,54.0,90.0
519,90.76359799999999,91.0450935,57.0,97.0
520,90.76359799999999,91.05887299999999,62.0,88.0
521,90.76359799999999,91.11792799999999,38.0,106.0
522,90.99981799999999,91.16123499999999,54.0,97.0
523,91.236038,91.52442324999998,62.0,104.0
524,91.236038,91.52540749999999,57.0,99.0
525,91.236038,91.55788774999999,38.0,101.0
526,91.47225799999998,91.72914724999998,54.0,96.0
527,91.70847799999999,91.97816249999998,57.0,99.0
528,91.70847799999999,92.02540649999999,62.0,99.0
529,91.94469799999999,92.03623325,54.0,96.0
530,91.70847799999999,92.07757174999999,38.0,104.0
531,92.18091799999999,92.27146899999998,54.0,89.0
532,92.18091799999999,92.37186249999999,39.0,96.0
533,92.18091799999999,92.468319,63.0,91.0
534,92.18091799999999,92.47717724999998,59.0,88.0
535,92.417138,92.58150774999999,54.0,88.0
536,92.65335799999998,92.67796424999999,54.0,68.0
537,92.65335799999998,92.80001124999998,59.0,94.0
538,92.65335799999998,92.82461749999999,63.0,96.0
539,92.65335799999998,92.88859374999998,39.0,101.0
540,92.88957799999999,92.99784549999998,54.0,94.0
541,93.12579799999999,93.25276625,59.0,95.0
542,93.12579799999999,93.28130949999999,63.0,99.0
543,93.12579799999999,93.43386824999999,39.0,101.0
544,93.36201799999999,93.48406499999999,54.0,99.0
545,93.598238,93.73406449999999,59.0,92.0
546,93.598238,93.75867075,63.0,104.0
547,93.598238,93.77737149999999,39.0,94.0
548,93.83445799999998,93.964379,54.0,106.0
549,94.07067799999999,94.16418174999998,38.0,97.0
550,94.07067799999999,94.19370924999998,62.0,97.0
551,94.07067799999999,94.20059899999998,57.0,92.0
552,94.30689799999999,94.43386625,54.0,97.0
553,94.54311799999999,94.67107049999998,57.0,99.0
554,94.54311799999999,94.6828815,38.0,94.0
555,94.54311799999999,94.68780274999999,62.0,106.0
556,94.779338,94.87677874999999,54.0,93.0
557,95.01555799999998,95.12973099999999,56.0,92.0
558,95.01555799999998,95.16811674999998,59.0,92.0
559,95.01555799999998,95.17992774999999,40.0,94.0
560,95.01555799999998,95.18681749999999,64.0,90.0
561,95.25177799999999,95.36791949999999,52.0,92.0
562,95.48799799999999,95.61890324999999,56.0,92.0
563,95.48799799999999,95.67795824999999,40.0,94.0
564,95.48799799999999,95.67795824999999,64.0,91.0
565,95.48799799999999,95.70354874999998,59.0,95.0
566,95.724218,95.86496574999998,52.0,97.0
567,95.96043799999998,96.31279949999998,66.0,82.0
568,95.96043799999998,96.32165774999999,61.0,82.0
569,95.96043799999998,96.56772025,42.0,90.0
570,96.43287799999999,96.74291674999999,69.0,89.0
571,96.43287799999999,96.78720799999999,66.0,85.0
572,96.43287799999999,96.82067249999999,61.0,83.0
573,96.905318,97.0450815,49.0,74.0
574,97.14153799999998,97.28622275,61.0,84.0
575,97.14153799999998,97.34134074999999,66.0,86.0
576,97.14153799999998,97.43582874999998,69.0,90.0
577,97.61397799999999,97.70551324999998,61.0,90.0
578,97.85019799999999,98.13169349999998,57.0,89.0
579,97.85019799999999,98.14055174999999,61.0,89.0
580,98.086418,98.38169299999998,52.0,86.0
581,97.85019799999999,98.40039374999999,45.0,88.0
582,98.32263799999998,98.44862199999999,57.0,93.0
583,98.32263799999998,98.49783449999998,61.0,91.0
584,98.79507799999999,99.15334499999999,47.0,88.0
585,99.03129799999999,99.30393525,66.0,83.0
586,99.03129799999999,99.33444699999998,59.0,92.0
587,99.26751799999998,99.5017695,54.0,79.0
588,99.50373799999998,99.68976124999999,66.0,83.0
589,99.50373799999998,99.71141474999999,59.0,89.0
590,99.73995799999999,100.09231949999999,66.0,82.0
591,99.73995799999999,100.10117774999999,61.0,82.0
592,99.73995799999999,100.34724024999998,42.0,90.0
593,100.212398,100.52243674999998,69.0,89.0
594,100.212398,100.56672799999998,66.0,85.0
595,100.212398,100.60019249999999,61.0,83.0
596,100.68483799999998,100.82460149999999,49.0,74.0
597,100.92105799999999,101.06574274999998,61.0,84.0
598,100.92105799999999,101.12086074999999,66.0,86.0
599,100.92105799999999,101.21534874999999,69.0,90.0
600,101.393498,101.48503324999999,61.0,90.0
601,101.62971799999998,101.77341849999999,57.0,86.0
602,101.62971799999998,101.86003249999999,45.0,90.0
603,101.62971799999998,101.86396949999998,61.0,87.0
604,101.62971799999998,101.90137099999998,64.0,88.0
605,101.86593799999999,101.97814249999999,57.0,86.0
606,102.10215799999999,102.41121249999999,63.0,86.0
607,102.10215799999999,102.41219674999999,59.0,86.0
608,102.10215799999999,102.50274774999998,47.0,85.0
609,103.51947799999999,103.8718395,66.0,82.0
610,103.51947799999999,103.88069774999998,61.0,82.0
611,103.51947799999999,104.12676024999999,42.0,90.0
612,103.99191799999998,104.30195674999999,69.0,89.0
613,103.99191799999998,104.34624799999999,66.0,85.0
614,103.99191799999998,104.37971249999998,61.0,83.0
615,104.46435799999999,104.60412149999999,49.0,74.0
616,104.700578,104.84526274999999,61.0,84.0
617,104.700578,104.90038074999998,66.0,86.0
618,104.700578,104.99486874999998,69.0,90.0
619,105.17301799999998,105.26455324999999,61.0,90.0
620,105.40923799999999,105.6907335,57.0,89.0
621,105.40923799999999,105.69959174999998,61.0,89.0
622,105.64545799999999,105.94073299999998,52.0,86.0
623,105.40923799999999,105.95943374999999,45.0,88.0
624,105.881678,106.00766199999998,57.0,93.0
625,105.881678,106.05687449999999,61.0,91.0
626,106.35411799999999,106.71238499999998,47.0,88.0
627,106.59033799999999,106.86297524999999,66.0,83.0
628,106.59033799999999,106.893487,59.0,92.0
629,106.82655799999999,107.06080949999999,54.0,79.0
630,107.06277799999998,107.24880124999999,66.0,83.0
631,107.06277799999998,107.27045474999998,59.0,89.0
632,107.29899799999998,107.65135949999998,66.0,82.0
633,107.29899799999998,107.66021774999999,61.0,82.0
634,107.29899799999998,107.90628024999998,42.0,90.0
635,107.77143799999999,108.08147675,69.0,89.0
636,107.77143799999999,108.125768,66.0,85.0
637,107.77143799999999,108.15923249999999,61.0,83.0
638,108.24387799999998,108.38364149999998,49.0,74.0
639,108.48009799999998,108.62478274999998,61.0,84.0
640,108.48009799999998,108.67990074999999,66.0,86.0
641,108.48009799999998,108.77438874999999,69.0,90.0
642,108.95253799999999,109.04407324999998,61.0,90.0
643,109.18875799999999,109.47025349999998,57.0,89.0
644,109.18875799999999,109.47911174999999,61.0,89.0
645,109.42497799999998,109.72025299999999,52.0,86.0
646,109.18875799999999,109.73895375,45.0,88.0
647,109.66119799999998,109.78718199999999,57.0,93.0
648,109.66119799999998,109.83639449999998,61.0,91.0
649,110.13363799999999,110.49190499999999,47.0,88.0
650,110.369858,110.64249524999998,66.0,83.0
651,110.369858,110.67300699999998,59.0,92.0
652,110.60607799999998,110.84032949999998,54.0,79.0
653,110.84229799999999,111.02832124999999,66.0,83.0
654,110.84229799999999,111.04997474999999,59.0,89.0
655,111.07851799999999,111.43087949999999,66.0,82.0
656,111.07851799999999,111.43973774999999,61.0,82.0
657,111.07851799999999,111.68580024999999,42.0,90.0
658,111.55095799999998,111.86099674999998,69.0,89.0
659,111.55095799999998,111.90528799999998,66.0,85.0
660,111.55095799999998,111.93875249999999,61.0,83.0
661,112.02339799999999,112.16316149999999,49.0,74.0
662,112.25961799999999,112.40430274999999,61.0,84.0
663,112.25961799999999,112.45942074999999,66.0,86.0
664,112.25961799999999,112.55390874999999,69.0,90.0
665,112.73205799999998,112.82359324999999,61.0,90.0
666,112.96827799999998,113.24977349999999,57.0,89.0
667,112.96827799999998,113.25863174999999,61.0,89.0
668,113.20449799999999,113.49977299999999,52.0,86.0
669,112.96827799999998,113.51847374999998,45.0,88.0
670,113.44071799999999,113.56670199999999,57.0,93.0
671,113.44071799999999,113.61591449999999,61.0,91.0
672,113.91315799999998,114.27142499999998,47.0,88.0
673,114.14937799999998,114.42201524999999,66.0,83.0
674,114.14937799999998,114.45252699999999,59.0,92.0
675,114.38559799999999,114.61984949999999,54.0,79.0
676,114.62181799999999,114.80784124999998,66.0,83.0
677,114.62181799999999,114.82949474999998,59.0,89.0
678,114.85803799999998,115.21039949999998,66.0,82.0
679,114.85803799999998,115.21925774999998,61.0,82.0
680,114.85803799999998,115.46532024999999,42.0,90.0
681,115.33047799999999,115.64051674999999,69.0,89.0
682,115.33047799999999,115.68480799999999,66.0,85.0
683,115.33047799999999,115.71827249999998,61.0,83.0
684,115.80291799999999,115.94268149999999,49.0,74.0
685,116.03913799999998,116.18382274999999,61.0,84.0
686,116.03913799999998,116.23894074999998,66.0,86.0
687,116.03913799999998,116.33342874999998,69.0,90.0
688,116.51157799999999,116.60311324999999,61.0,90.0
689,116.74779799999999,117.02929349999998,57.0,89.0
690,116.74779799999999,117.03815174999998,61.0,89.0
691,116.98401799999999,117.27929299999998,52.0,86.0
692,116.74779799999999,117.29799374999999,45.0,88.0
693,117.22023799999998,117.34622199999998,57.0,93.0
694,117.22023799999998,117.39543449999998,61.0,91.0
695,117.69267799999999,118.05094499999998,47.0,88.0
696,117.92889799999999,118.20153524999999,66.0,83.0
697,117.92889799999999,118.23204699999998,59.0,92.0
698,118.16511799999999,118.39936949999999,54.0,79.0
699,118.40133799999998,118.58736124999999,66.0,83.0
700,118.40133799999998,118.60901474999999,59.0,89.0
701,118.87377799999999,118.98795099999998,61.0,92.0
702,118.87377799999999,118.99287224999999,65.0,91.0
703,118.87377799999999,119.00468324999999,68.0,91.0
704,119.10999799999999,120.42594024999998,61.0,94.0
705,119.10999799999999,120.43381424999998,65.0,96.0
706,119.10999799999999,120.45645199999998,68.0,95.0
707,118.63755799999998,120.46531024999999,37.0,99.0
708,120.52731799999998,120.70153024999999,61.0,82.0
709,120.52731799999998,120.86688424999998,66.0,81.0
710,120.76353799999998,120.89149049999999,61.0,72.0
711,120.76353799999998,121.09326174999998,49.0,64.0
712,120.99975799999999,121.16314349999999,61.0,88.0
713,120.52731799999998,121.18282849999999,42.0,90.0
714,120.99975799999999,121.22121424999999,66.0,89.0
715,120.99975799999999,121.29306449999999,69.0,86.0
716,121.47219799999999,121.64247324999998,61.0,86.0
717,121.23597799999999,121.71727624999998,49.0,84.0
718,121.70841799999998,121.90329949999999,61.0,86.0
719,121.70841799999998,122.05093699999999,69.0,77.0
720,121.70841799999998,122.08440149999998,66.0,90.0
721,122.18085799999999,122.28321999999999,61.0,87.0
722,122.41707799999999,122.63066024999999,62.0,77.0
723,122.41707799999999,122.63558149999999,69.0,84.0
724,122.41707799999999,122.63853424999999,66.0,79.0
725,122.65329799999999,122.99876974999998,57.0,78.0
726,122.88951799999998,123.17396624999999,62.0,86.0
727,122.88951799999998,123.17987174999999,66.0,89.0
728,122.88951799999998,123.22317874999999,69.0,86.0
729,123.36195799999999,123.40723349999999,69.0,73.0
730,123.36195799999999,123.46136724999998,62.0,85.0
731,122.41707799999999,123.60506774999999,50.0,88.0
732,123.12573799999998,123.61392599999999,57.0,80.0
733,123.59817799999999,123.75861074999999,62.0,87.0
734,123.59817799999999,123.76353199999998,66.0,89.0
735,123.59817799999999,124.13360999999999,69.0,87.0
736,124.07061799999998,124.14246824999998,62.0,85.0
737,124.30683799999998,124.44561724999998,59.0,73.0
738,124.30683799999998,124.62376649999999,64.0,82.0
739,124.54305799999999,124.87573449999998,47.0,83.0
740,124.77927799999999,124.98793899999998,59.0,86.0
741,124.77927799999999,125.00762399999998,64.0,90.0
742,124.77927799999999,125.07061599999999,68.0,84.0
743,125.25171799999998,125.36490674999999,59.0,84.0
744,125.01549799999998,125.60703224999999,47.0,76.0
745,124.30683799999998,125.61293774999999,40.0,87.0
746,125.48793799999999,125.66707149999999,59.0,89.0
747,125.48793799999999,125.86785849999998,68.0,88.0
748,125.48793799999999,125.94462999999999,64.0,90.0
749,125.96037799999999,126.06372424999998,59.0,88.0
750,126.19659799999998,126.44955024999999,64.0,86.0
751,126.19659799999998,126.47710924999998,57.0,85.0
752,126.43281799999998,126.78813224999999,52.0,73.0
753,126.66903799999999,126.89836824999999,61.0,88.0
754,126.66903799999999,126.90821074999998,57.0,86.0
755,126.66903799999999,126.93970674999998,64.0,89.0
756,127.14147799999998,127.24088724999999,57.0,85.0
757,126.90525799999999,127.45643799999999,52.0,84.0
758,126.19659799999998,127.50072924999998,45.0,85.0
759,127.37769799999998,127.66608324999999,57.0,90.0
760,127.37769799999998,127.66805174999999,64.0,90.0
761,127.37769799999998,127.67789424999998,61.0,91.0
762,127.61391799999998,127.77631924999999,52.0,81.0
763,127.85013799999999,127.98399599999999,57.0,86.0
764,128.086358,128.310767,61.0,77.0
765,128.086358,128.38556999999997,66.0,80.0
766,128.322578,128.43970374999998,57.0,77.0
767,128.558798,128.67789224999999,57.0,84.0
768,128.558798,128.7300575,61.0,83.0
769,128.79501799999997,128.90820674999998,57.0,78.0
770,129.03123799999997,129.09718274999997,61.0,58.0
771,128.322578,129.33733974999998,49.0,65.0
772,128.086358,129.34422949999998,42.0,85.0
773,129.26745799999998,129.38950499999999,57.0,86.0
774,129.26745799999998,129.56076449999998,61.0,95.0
775,129.26745799999998,129.5961975,66.0,86.0
776,129.73989799999998,129.82651199999998,57.0,85.0
777,129.97611799999999,130.16312549999998,59.0,84.0
778,129.97611799999999,130.23399149999997,66.0,76.0
779,129.97611799999999,130.2576135,63.0,79.0
780,130.448558,130.58832149999998,59.0,87.0
781,129.97611799999999,130.59521124999998,47.0,85.0
782,130.448558,130.641471,66.0,85.0
783,130.448558,130.743833,63.0,85.0
784,130.684778,131.02237574999998,59.0,78.0
785,130.920998,131.1985565,54.0,73.0
786,131.15721799999997,131.2851705,59.0,88.0
787,131.15721799999997,131.39146949999997,63.0,88.0
788,131.15721799999997,131.5371385,71.0,85.0
789,131.15721799999997,131.57060299999998,66.0,84.0
790,131.62965799999998,131.74579949999998,59.0,85.0
791,131.86587799999998,132.05190125,57.0,84.0
792,131.86587799999998,132.1946175,62.0,80.0
793,132.10209799999998,132.22512924999998,57.0,80.0
794,132.338318,132.47709724999999,57.0,86.0
795,132.338318,132.61686074999997,62.0,86.0
796,132.338318,132.68772675,66.0,84.0
797,132.574538,132.72808099999997,57.0,83.0
798,132.810758,132.91804125,57.0,74.0
799,133.046978,133.19756825,57.0,90.0
800,133.046978,133.36193799999998,62.0,95.0
801,131.86587799999998,133.46331575,50.0,87.0
802,133.51941799999997,133.61095325,57.0,87.0
803,133.75563799999998,134.01055874999997,64.0,89.0
804,133.75563799999998,134.03122799999997,57.0,76.0
805,134.22807799999998,134.361936,57.0,85.0
806,133.99185799999998,134.61980949999997,52.0,82.0
807,134.46429799999999,134.71331324999997,61.0,89.0
808,134.46429799999999,134.75071475,57.0,80.0
809,134.46429799999999,134.76055724999998,64.0,89.0
810,134.700518,135.04598975,52.0,80.0
811,134.936738,135.2024855,57.0,85.0
812,134.936738,135.21331224999997,69.0,84.0
813,134.936738,135.24480824999998,61.0,93.0
814,134.936738,135.24677674999998,64.0,88.0
815,135.409178,135.47216999999998,61.0,64.0
816,135.409178,135.60209099999997,57.0,86.0
817,133.75563799999998,135.625713,45.0,85.0
818,135.172958,135.63555549999998,52.0,86.0
819,135.64539799999997,135.81961024999998,61.0,82.0
820,135.64539799999997,135.98496425,66.0,81.0
821,135.88161799999997,136.0095705,61.0,72.0
822,135.88161799999997,136.21134174999997,49.0,64.0
823,136.11783799999998,136.28122349999998,61.0,88.0
824,135.64539799999997,136.3009085,42.0,90.0
825,136.11783799999998,136.33929425,66.0,89.0
826,136.11783799999998,136.41114449999998,69.0,86.0
827,136.59027799999998,136.76055325,61.0,86.0
828,136.35405799999998,136.83535625,49.0,84.0
829,136.826498,137.0213795,61.0,86.0
830,136.826498,137.169017,69.0,77.0
831,136.826498,137.20248149999998,66.0,90.0
832,137.298938,137.4013,61.0,87.0
833,137.535158,137.74874025,62.0,77.0
834,137.535158,137.7536615,69.0,84.0
835,137.535158,137.75661424999998,66.0,79.0
836,137.77137799999997,138.11684974999997,57.0,78.0
837,138.00759799999997,138.29204624999997,62.0,86.0
838,138.00759799999997,138.29795174999998,66.0,89.0
839,138.00759799999997,138.34125874999998,69.0,86.0
840,138.48003799999998,138.52531349999998,69.0,73.0
841,138.48003799999998,138.57944725,62.0,85.0
842,137.535158,138.72314774999998,50.0,88.0
843,138.24381799999998,138.73200599999998,57.0,80.0
844,138.71625799999998,138.87669075,62.0,87.0
845,138.71625799999998,138.881612,66.0,89.0
846,138.71625799999998,139.25169,69.0,87.0
847,139.188698,139.26054824999997,62.0,85.0
848,139.424918,139.56369725,59.0,73.0
849,139.424918,139.74184649999998,64.0,82.0
850,139.661138,139.99381449999998,47.0,83.0
851,139.897358,140.10601899999997,59.0,86.0
852,139.897358,140.12570399999998,64.0,90.0
853,139.897358,140.188696,68.0,84.0
854,140.36979799999997,140.48298674999998,59.0,84.0
855,140.13357799999997,140.72511225,47.0,76.0
856,139.424918,140.73101774999998,40.0,87.0
857,140.60601799999998,140.78515149999998,59.0,89.0
858,140.60601799999998,140.98593849999997,68.0,88.0
859,140.60601799999998,141.06270999999998,64.0,90.0
860,141.07845799999998,141.18180424999997,59.0,88.0
861,141.314678,141.56763024999998,64.0,86.0
862,141.314678,141.59518924999998,57.0,85.0
863,141.550898,141.90621224999998,52.0,73.0
864,141.787118,142.01644825,61.0,88.0
865,141.787118,142.02629075,57.0,86.0
866,141.787118,142.05778675,64.0,89.0
867,142.25955799999997,142.35896724999998,57.0,85.0
868,142.023338,142.57451799999998,52.0,84.0
869,141.314678,142.61880924999997,45.0,85.0
870,142.49577799999997,142.78416324999998,57.0,90.0
871,142.49577799999997,142.78613174999998,64.0,90.0
872,142.49577799999997,142.79597424999997,61.0,91.0
873,142.73199799999998,142.89439925,52.0,81.0
874,142.96821799999998,143.10207599999998,57.0,86.0
875,143.20443799999998,143.428847,61.0,77.0
876,143.20443799999998,143.50365,66.0,80.0
877,143.44065799999998,143.55778374999997,57.0,77.0
878,143.676878,143.79597224999998,57.0,84.0
879,143.676878,143.84813749999998,61.0,83.0
880,143.913098,144.02628674999997,57.0,78.0
881,144.149318,144.21526275,61.0,58.0
882,143.44065799999998,144.45541974999998,49.0,65.0
883,143.20443799999998,144.46230949999998,42.0,85.0
884,144.385538,144.50758499999998,57.0,86.0
885,144.385538,144.6788445,61.0,95.0
886,144.385538,144.71427749999998,66.0,86.0
887,144.85797799999997,144.94459199999997,57.0,85.0
888,145.09419799999998,145.28120549999997,59.0,84.0
889,145.09419799999998,145.3520715,66.0,76.0
890,145.09419799999998,145.37569349999998,63.0,79.0
891,145.56663799999998,145.70640149999997,59.0,87.0
892,145.09419799999998,145.71329124999997,47.0,85.0
893,145.56663799999998,145.759551,66.0,85.0
894,145.56663799999998,145.861913,63.0,85.0
895,145.802858,146.14045574999997,59.0,78.0
896,146.039078,146.3166365,54.0,73.0
897,146.275298,146.40325049999998,59.0,88.0
898,146.275298,146.5095495,63.0,88.0
899,146.275298,146.6552185,71.0,85.0
900,146.275298,146.68868299999997,66.0,84.0
901,146.74773799999997,146.8638795,59.0,85.0
902,146.98395799999997,147.25265825,57.0,91.0
903,146.98395799999997,147.26151649999997,62.0,91.0
904,146.98395799999997,147.28316999999998,38.0,101.0
905,147.22017799999998,147.36092574999998,54.0,90.0
906,147.45639799999998,147.73789349999998,57.0,97.0
907,147.45639799999998,147.75167299999998,62.0,88.0
908,147.45639799999998,147.81072799999998,38.0,106.0
909,147.69261799999998,147.85403499999998,54.0,97.0
910,147.92883799999998,148.21722325,62.0,104.0
911,147.92883799999998,148.21820749999998,57.0,99.0
912,147.92883799999998,148.25068774999997,38.0,101.0
913,148.165058,148.42194725,54.0,96.0
914,148.401278,148.67096249999997,57.0,99.0
915,148.401278,148.71820649999998,62.0,99.0
916,148.637498,148.72903325,54.0,96.0
917,148.401278,148.77037174999998,38.0,104.0
918,148.87371799999997,148.96426899999997,54.0,89.0
919,148.87371799999997,149.06466249999997,39.0,96.0
920,148.87371799999997,149.16111899999999,63.0,91.0
921,148.87371799999997,149.16997725,59.0,88.0
922,149.10993799999997,149.27430775,54.0,88.0
923,149.34615799999997,149.37076424999998,54.0,68.0
924,149.34615799999997,149.49281125,59.0,94.0
925,149.34615799999997,149.5174175,63.0,96.0
926,149.34615799999997,149.58139375,39.0,101.0
927,149.58237799999998,149.6906455,54.0,94.0
928,149.81859799999998,149.94556624999998,59.0,95.0
929,149.81859799999998,149.97410949999997,63.0,99.0
930,149.81859799999998,150.12666825,39.0,101.0
931,150.05481799999998,150.176865,54.0,99.0
932,150.291038,150.4268645,59.0,92.0
933,150.291038,150.45147074999997,63.0,104.0
934,150.291038,150.4701715,39.0,94.0
935,150.527258,150.65717899999999,54.0,106.0
936,150.763478,150.85698175,38.0,97.0
937,150.763478,150.88650925,62.0,97.0
938,150.763478,150.893399,57.0,92.0
939,150.999698,151.12666624999997,54.0,97.0
940,151.23591799999997,151.3638705,57.0,99.0
941,151.23591799999997,151.37568149999998,38.0,94.0
942,151.23591799999997,151.38060274999998,62.0,106.0
943,151.47213799999997,151.56957874999998,54.0,93.0
944,151.70835799999998,151.82253099999997,56.0,92.0
945,151.70835799999998,151.86091674999997,59.0,92.0
946,151.70835799999998,151.87272775,40.0,94.0
947,151.70835799999998,151.8796175,64.0,90.0
948,151.94457799999998,152.06071949999998,52.0,92.0
949,152.18079799999998,152.31170325,56.0,92.0
950,152.18079799999998,152.37075825,40.0,94.0
951,152.18079799999998,152.37075825,64.0,91.0
952,152.18079799999998,152.39634875,59.0,95.0
953,152.41701799999998,152.55776575,52.0,97.0
954,152.653238,153.0055995,66.0,82.0
955,152.653238,153.01445775,61.0,82.0
956,152.653238,153.26052024999998,42.0,90.0
957,153.125678,153.43571674999998,69.0,89.0
958,153.125678,153.48000799999997,66.0,85.0
959,153.125678,153.51347249999998,61.0,83.0
960,153.59811799999997,153.7378815,49.0,74.0
961,153.83433799999997,153.97902274999998,61.0,84.0
962,153.83433799999997,154.03414074999998,66.0,86.0
963,153.83433799999997,154.12862875,69.0,90.0
964,154.30677799999998,154.39831324999997,61.0,90.0
965,154.54299799999998,154.8244935,57.0,89.0
966,154.54299799999998,154.83335175,61.0,89.0
967,154.779218,155.074493,52.0,86.0
968,154.54299799999998,155.09319374999998,45.0,88.0
969,155.015438,155.14142199999998,57.0,93.0
970,155.015438,155.1906345,61.0,91.0
971,155.487878,155.84614499999998,47.0,88.0
972,155.72409799999997,155.99673524999997,66.0,83.0
973,155.72409799999997,156.027247,59.0,92.0
974,155.96031799999997,156.19456949999997,54.0,79.0
975,156.19653799999998,156.38256124999998,66.0,83.0
976,156.19653799999998,156.40421475,59.0,89.0
977,156.43275799999998,156.78511949999998,66.0,82.0
978,156.43275799999998,156.79397774999998,61.0,82.0
979,156.43275799999998,157.04004024999998,42.0,90.0
980,156.90519799999998,157.21523674999997,69.0,89.0
981,156.90519799999998,157.259528,66.0,85.0
982,156.90519799999998,157.29299249999997,61.0,83.0
983,157.377638,157.51740149999998,49.0,74.0
984,157.613858,157.75854274999998,61.0,84.0
985,157.613858,157.81366074999997,66.0,86.0
986,157.613858,157.90814874999998,69.0,90.0
987,158.08629799999997,158.17783325,61.0,90.0
988,158.32251799999997,158.46621849999997,57.0,86.0
989,158.32251799999997,158.5528325,45.0,90.0
990,158.32251799999997,158.55676949999997,61.0,87.0
991,158.32251799999997,158.594171,64.0,88.0
992,158.55873799999998,158.67094249999997,57.0,86.0
993,158.79495799999998,159.10401249999998,63.0,86.0
994,158.79495799999998,159.10499674999997,59.0,86.0
995,158.79495799999998,159.19554774999997,47.0,85.0
996,159.503618,159.83038899999997,68.0,88.0
997,159.503618,160.07743574999998,59.0,94.0
998,159.267398,160.133538,52.0,90.0
999,159.976058,160.15223874999998,64.0,95.0
1000,160.21227799999997,160.56463949999997,66.0,82.0
1001,160.21227799999997,160.57349774999997,61.0,82.0
1002,160.21227799999997,160.81956024999997,42.0,90.0
1003,160.68471799999998,160.99475675,69.0,89.0
1004,160.68471799999998,161.03904799999998,66.0,85.0
1005,160.68471799999998,161.0725125,61.0,83.0
1006,161.15715799999998,161.29692149999997,49.0,74.0
1007,161.39337799999998,161.53806275,61.0,84.0
1008,161.39337799999998,161.59318075,66.0,86.0
1009,161.39337799999998,161.68766874999997,69.0,90.0
1010,161.865818,161.95735324999998,61.0,90.0
1011,162.102038,162.38353349999997,57.0,89.0
1012,162.102038,162.39239174999997,61.0,89.0
1013,162.33825799999997,162.63353299999997,52.0,86.0
1014,162.102038,162.65223375,45.0,88.0
1015,162.57447799999997,162.700462,57.0,93.0
1016,162.57447799999997,162.74967449999997,61.0,91.0
1017,163.04691799999998,163.405185,47.0,88.0
1018,163.28313799999998,163.55577524999998,66.0,83.0
1019,163.28313799999998,163.58628699999997,59.0,92.0
1020,163.51935799999998,163.75360949999998,54.0,79.0
1021,163.75557799999999,163.94160125,66.0,83.0
1022,163.75557799999999,163.96325474999998,59.0,89.0
1023,163.991798,164.3441595,66.0,82.0
1024,163.991798,164.35301775,61.0,82.0
1025,163.991798,164.59908025,42.0,90.0
1026,164.46423799999997,164.77427674999998,69.0,89.0
1027,164.46423799999997,164.81856799999997,66.0,85.0
1028,164.46423799999997,164.85203249999998,61.0,83.0
1029,164.93667799999997,165.0764415,49.0,74.0
1030,165.17289799999998,165.31758274999999,61.0,84.0
1031,165.17289799999998,165.37270074999998,66.0,86.0
1032,165.17289799999998,165.46718875,69.0,90.0
1033,165.64533799999998,165.73687324999997,61.0,90.0
1034,165.88155799999998,166.1630535,57.0,89.0
1035,165.88155799999998,166.17191175,61.0,89.0
1036,166.117778,166.413053,52.0,86.0
1037,165.88155799999998,166.43175374999998,45.0,88.0
1038,166.353998,166.47998199999998,57.0,93.0
1039,166.353998,166.5291945,61.0,91.0
1040,166.82643799999997,167.18470499999998,47.0,88.0
1041,167.06265799999997,167.33529524999997,66.0,83.0
1042,167.06265799999997,167.365807,59.0,92.0
1043,167.29887799999997,167.53312949999997,54.0,79.0
1044,167.53509799999998,167.72112124999998,66.0,83.0
1045,167.53509799999998,167.74277474999997,59.0,89.0
1046,167.77131799999998,167.94553025,61.0,82.0
1047,167.77131799999998,168.11088424999997,66.0,81.0
1048,168.00753799999998,168.13549049999997,61.0,72.0
1049,168.00753799999998,168.33726174999998,49.0,64.0
1050,168.24375799999999,168.4071435,61.0,88.0
1051,167.77131799999998,168.42682849999997,42.0,90.0
1052,168.24375799999999,168.46521424999997,66.0,89.0
1053,168.24375799999999,168.53706449999999,69.0,86.0
1054,168.716198,168.88647324999997,61.0,86.0
1055,168.479978,168.96127624999997,49.0,84.0
1056,168.95241799999997,169.14729949999997,61.0,86.0
1057,168.95241799999997,169.29493699999998,69.0,77.0
1058,168.95241799999997,169.32840149999998,66.0,90.0
1059,169.42485799999997,169.52721999999997,61.0,87.0
1060,169.66107799999997,169.87466024999998,62.0,77.0
1061,169.66107799999997,169.87958149999997,69.0,84.0
1062,169.66107799999997,169.88253425,66.0,79.0
1063,169.89729799999998,170.24276974999998,57.0,78.0
1064,170.13351799999998,170.41796624999998,62.0,86.0
1065,170.13351799999998,170.42387175,66.0,89.0
1066,170.13351799999998,170.46717875,69.0,86.0
1067,170.605958,170.6512335,69.0,73.0
1068,170.605958,170.70536724999997,62.0,85.0
1069,169.66107799999997,170.84906775,50.0,88.0
1070,170.36973799999998,170.857926,57.0,80.0
1071,170.842178,171.00261074999997,62.0,87.0
1072,170.842178,171.00753199999997,66.0,89.0
1073,170.842178,171.37760999999998,69.0,87.0
1074,171.31461799999997,171.38646824999998,62.0,85.0
1075,171.55083799999997,171.68961724999997,59.0,73.0
1076,171.55083799999997,171.8677665,64.0,82.0
1077,171.78705799999997,172.1197345,47.0,83.0
1078,172.02327799999998,172.23193899999998,59.0,86.0
1079,172.02327799999998,172.251624,64.0,90.0
1080,172.02327799999998,172.31461599999997,68.0,84.0
1081,172.49571799999998,172.60890675,59.0,84.0
1082,172.25949799999998,172.85103224999997,47.0,76.0
1083,171.55083799999997,172.85693775,40.0,87.0
1084,172.73193799999999,172.9110715,59.0,89.0
1085,172.73193799999999,173.11185849999998,68.0,88.0
1086,172.73193799999999,173.18863,64.0,90.0
1087,173.204378,173.30772424999998,59.0,88.0
1088,173.44059799999997,173.69355025,64.0,86.0
1089,173.44059799999997,173.72110924999998,57.0,85.0
1090,173.67681799999997,174.03213225,52.0,73.0
1091,173.91303799999997,174.14236824999998,61.0,88.0
1092,173.91303799999997,174.15221074999997,57.0,86.0
1093,173.91303799999997,174.18370674999997,64.0,89.0
1094,174.38547799999998,174.48488724999999,57.0,85.0
1095,174.14925799999997,174.700438,52.0,84.0
1096,173.44059799999997,174.74472924999998,45.0,85.0
1097,174.62169799999998,174.91008324999999,57.0,90.0
1098,174.62169799999998,174.91205175,64.0,90.0
1099,174.62169799999998,174.92189424999998,61.0,91.0
1100,174.85791799999998,175.02031924999997,52.0,81.0
1101,175.094138,175.227996,57.0,86.0
1102,175.330358,175.55476699999997,61.0,77.0
1103,175.330358,175.62956999999997,66.0,80.0
1104,175.566578,175.68370374999998,57.0,77.0
1105,175.80279799999997,175.92189224999998,57.0,84.0
1106,175.80279799999997,175.9740575,61.0,83.0
1107,176.03901799999997,176.15220674999998,57.0,78.0
1108,176.27523799999997,176.34118274999997,61.0,58.0
1109,175.566578,176.58133974999998,49.0,65.0
1110,175.330358,176.58822949999998,42.0,85.0
1111,176.51145799999998,176.63350499999999,57.0,86.0
1112,176.51145799999998,176.80476449999998,61.0,95.0
1113,176.51145799999998,176.8401975,66.0,86.0
1114,176.98389799999998,177.07051199999998,57.0,85.0
1115,177.22011799999999,177.40712549999998,59.0,84.0
1116,177.22011799999999,177.47799149999997,66.0,76.0
1117,177.22011799999999,177.5016135,63.0,79.0
1118,177.692558,177.83232149999998,59.0,87.0
1119,177.22011799999999,177.83921124999998,47.0,85.0
1120,177.692558,177.88547099999997,66.0,85.0
1121,177.692558,177.98783299999997,63.0,85.0
1122,177.92877799999997,178.26637574999998,59.0,78.0
1123,178.16499799999997,178.44255649999997,54.0,73.0
1124,178.40121799999997,178.5291705,59.0,88.0
1125,178.40121799999997,178.63546949999997,63.0,88.0
1126,178.40121799999997,178.78113849999997,71.0,85.0
1127,178.40121799999997,178.81460299999998,66.0,84.0
1128,178.87365799999998,178.98979949999998,59.0,85.0
1129,179.10987799999998,179.29590125,57.0,84.0
1130,179.10987799999998,179.4386175,62.0,80.0
1131,179.34609799999998,179.46912924999998,57.0,80.0
1132,179.582318,179.72109724999999,57.0,86.0
1133,179.582318,179.86086074999997,62.0,86.0
1134,179.582318,179.93172674999997,66.0,84.0
1135,179.818538,179.97208099999997,57.0,83.0
1136,180.054758,180.16204125,57.0,74.0
1137,180.29097799999997,180.44156825,57.0,90.0
1138,180.29097799999997,180.60593799999998,62.0,95.0
1139,179.10987799999998,180.70731575,50.0,87.0
1140,180.76341799999997,180.85495324999997,57.0,87.0
1141,180.99963799999998,181.25455874999997,64.0,89.0
1142,180.99963799999998,181.27522799999997,57.0,76.0
1143,181.47207799999998,181.60593599999999,57.0,85.0
1144,181.23585799999998,181.86380949999997,52.0,82.0
1145,181.70829799999998,181.95731324999997,61.0,89.0
1146,181.70829799999998,181.99471474999999,57.0,80.0
1147,181.70829799999998,182.00455724999998,64.0,89.0
1148,181.944518,182.28998975,52.0,80.0
1149,182.180738,182.44648549999997,57.0,85.0
1150,182.180738,182.45731224999997,69.0,84.0
1151,182.180738,182.48880824999998,61.0,93.0
1152,182.180738,182.49077674999998,64.0,88.0
1153,182.65317799999997,182.71616999999998,61.0,64.0
1154,182.65317799999997,182.84609099999997,57.0,86.0
1155,180.99963799999998,182.869713,45.0,85.0
1156,182.41695799999997,182.87955549999998,52.0,86.0
1157,182.88939799999997,183.06361024999998,61.0,82.0
1158,182.88939799999997,183.22896425,66.0,81.0
1159,183.12561799999997,183.25357049999997,61.0,72.0
1160,183.12561799999997,183.45534174999997,49.0,64.0
1161,183.36183799999998,183.52522349999998,61.0,88.0
1162,182.88939799999997,183.5449085,42.0,90.0
1163,183.36183799999998,183.58329424999997,66.0,89.0
1164,183.36183799999998,183.65514449999998,69.0,86.0
1165,183.83427799999998,184.00455325,61.0,86.0
1166,183.59805799999998,184.07935625,49.0,84.0
1167,184.070498,184.26537949999997,61.0,86.0
1168,184.070498,184.41301699999997,69.0,77.0
1169,184.070498,184.44648149999998,66.0,90.0
1170,184.54293799999996,184.6453,61.0,87.0
1171,184.77915799999997,184.99274024999997,62.0,77.0
1172,184.77915799999997,184.99766149999996,69.0,84.0
1173,184.77915799999997,185.00061424999998,66.0,79.0
1174,185.01537799999997,185.36084974999997,57.0,78.0
1175,185.25159799999997,185.53604624999997,62.0,86.0
1176,185.25159799999997,185.54195174999998,66.0,89.0
1177,185.25159799999997,185.58525874999998,69.0,86.0
1178,185.72403799999998,185.76931349999998,69.0,73.0
1179,185.72403799999998,185.82344725,62.0,85.0
1180,184.77915799999997,185.96714774999998,50.0,88.0
1181,185.48781799999998,185.97600599999998,57.0,80.0
1182,185.96025799999998,186.12069074999997,62.0,87.0
1183,185.96025799999998,186.125612,66.0,89.0
1184,185.96025799999998,186.49568999999997,69.0,87.0
1185,186.432698,186.50454824999997,62.0,85.0
1186,186.668918,186.80769725,59.0,73.0
1187,186.668918,186.98584649999998,64.0,82.0
1188,186.90513799999997,187.23781449999998,47.0,83.0
1189,187.14135799999997,187.35001899999997,59.0,86.0
1190,187.14135799999997,187.36970399999998,64.0,90.0
1191,187.14135799999997,187.43269599999996,68.0,84.0
1192,187.61379799999997,187.72698674999998,59.0,84.0
1193,187.37757799999997,187.96911224999997,47.0,76.0
1194,186.668918,187.97501774999998,40.0,87.0
1195,187.85001799999998,188.02915149999998,59.0,89.0
1196,187.85001799999998,188.22993849999997,68.0,88.0
1197,187.85001799999998,188.30670999999998,64.0,90.0
1198,188.32245799999998,188.42580424999997,59.0,88.0
1199,188.558678,188.81163024999998,64.0,86.0
1200,188.558678,188.83918924999998,57.0,85.0
1201,188.794898,189.15021224999998,52.0,73.0
1202,189.03111799999996,189.26044824999997,61.0,88.0
1203,189.03111799999996,189.27029075,57.0,86.0
1204,189.03111799999996,189.30178675,64.0,89.0
1205,189.50355799999997,189.60296724999998,57.0,85.0
1206,189.26733799999997,189.81851799999998,52.0,84.0
1207,188.558678,189.86280924999997,45.0,85.0
1208,189.73977799999997,190.02816324999998,57.0,90.0
1209,189.73977799999997,190.03013174999998,64.0,90.0
1210,189.73977799999997,190.03997424999997,61.0,91.0
1211,189.97599799999998,190.13839924999996,52.0,81.0
1212,190.21221799999998,190.34607599999998,57.0,86.0
1213,190.44843799999998,190.672847,61.0,77.0
1214,190.44843799999998,190.74764999999996,66.0,80.0
1215,190.68465799999998,190.80178374999997,57.0,77.0
1216,190.920878,191.03997224999998,57.0,84.0
1217,190.920878,191.09213749999998,61.0,83.0
1218,191.157098,191.27028674999997,57.0,78.0
1219,191.39331799999997,191.45926274999997,61.0,58.0
1220,190.68465799999998,191.69941974999998,49.0,65.0
1221,190.44843799999998,191.70630949999997,42.0,85.0
1222,191.62953799999997,191.75158499999998,57.0,86.0
1223,191.62953799999997,191.92284449999997,61.0,95.0
1224,191.62953799999997,191.95827749999998,66.0,86.0
1225,192.10197799999997,192.18859199999997,57.0,85.0
1226,192.33819799999998,192.52520549999997,59.0,84.0
1227,192.33819799999998,192.59607149999997,66.0,76.0
1228,192.33819799999998,192.61969349999998,63.0,79.0
1229,192.81063799999998,192.95040149999997,59.0,87.0
1230,192.33819799999998,192.95729124999997,47.0,85.0
1231,192.81063799999998,193.003551,66.0,85.0
1232,192.81063799999998,193.105913,63.0,85.0
1233,193.046858,193.38445574999997,59.0,78.0
1234,193.283078,193.5606365,54.0,73.0
1235,193.51929799999996,193.64725049999998,59.0,88.0
1236,193.51929799999996,193.75354949999996,63.0,88.0
1237,193.51929799999996,193.8992185,71.0,85.0
1238,193.51929799999996,193.93268299999997,66.0,84.0
1239,193.99173799999997,194.10787949999997,59.0,85.0
1240,194.22795799999997,194.49665824999997,57.0,91.0
1241,194.22795799999997,194.50551649999997,62.0,91.0
1242,194.22795799999997,194.52716999999998,38.0,101.0
1243,194.46417799999998,194.60492574999998,54.0,90.0
1244,194.70039799999998,194.98189349999998,57.0,97.0
1245,194.70039799999998,194.99567299999998,62.0,88.0
1246,194.70039799999998,195.05472799999998,38.0,106.0
1247,194.93661799999998,195.09803499999998,54.0,97.0
1248,195.17283799999998,195.46122325,62.0,104.0
1249,195.17283799999998,195.46220749999998,57.0,99.0
1250,195.17283799999998,195.49468774999997,38.0,101.0
1251,195.409058,195.66594725,54.0,96.0
1252,195.645278,195.91496249999997,57.0,99.0
1253,195.645278,195.96220649999998,62.0,99.0
1254,195.88149799999997,195.97303325,54.0,96.0
1255,195.645278,196.01437174999998,38.0,104.0
1256,196.11771799999997,196.20826899999997,54.0,89.0
1257,196.11771799999997,196.30866249999997,39.0,96.0
1258,196.11771799999997,196.40511899999998,63.0,91.0
1259,196.11771799999997,196.41397725,59.0,88.0
1260,196.35393799999997,196.51830774999996,54.0,88.0
1261,196.59015799999997,196.61476424999998,54.0,68.0
1262,196.59015799999997,196.73681125,59.0,94.0
1263,196.59015799999997,196.76141749999996,63.0,96.0
1264,196.59015799999997,196.82539375,39.0,101.0
1265,196.82637799999998,196.9346455,54.0,94.0
1266,197.06259799999998,197.18956624999998,59.0,95.0
1267,197.06259799999998,197.21810949999997,63.0,99.0
1268,197.06259799999998,197.37066824999997,39.0,101.0
1269,197.29881799999998,197.42086499999996,54.0,99.0
1270,197.535038,197.67086449999996,59.0,92.0
1271,197.535038,197.69547074999997,63.0,104.0
1272,197.535038,197.71417149999996,39.0,94.0
1273,197.771258,197.90117899999998,54.0,106.0
1274,198.00747799999996,198.10098175,38.0,97.0
1275,198.00747799999996,198.13050925,62.0,97.0
1276,198.00747799999996,198.137399,57.0,92.0
1277,198.24369799999997,198.37066624999997,54.0,97.0
1278,198.47991799999997,198.6078705,57.0,99.0
1279,198.47991799999997,198.61968149999998,38.0,94.0
1280,198.47991799999997,198.62460274999998,62.0,106.0
1281,198.71613799999997,198.81357874999998,54.0,93.0
1282,198.95235799999998,199.06653099999997,56.0,92.0
1283,198.95235799999998,199.10491674999997,59.0,92.0
1284,198.95235799999998,199.11672774999997,40.0,94.0
1285,198.95235799999998,199.12361749999997,64.0,90.0
1286,199.18857799999998,199.30471949999998,52.0,92.0
1287,199.42479799999998,199.55570324999997,56.0,92.0
1288,199.42479799999998,199.61475824999997,40.0,94.0
1289,199.42479799999998,199.61475824999997,64.0,91.0
1290,199.42479799999998,199.64034875,59.0,95.0
1291,199.66101799999998,199.80176575,52.0,97.0
1292,199.897238,200.27715849999998,42.0,92.0
1293,199.897238,200.2929065,54.0,88.0
1294,199.897238,200.30471749999998,61.0,90.0
1295,200.36967799999996,200.89625174999998,66.0,85.0
1296,200.36967799999996,201.01436174999998,54.0,90.0
1297,200.36967799999996,201.0409365,61.0,91.0
1298,201.31455799999998,201.43365224999997,54.0,93.0
1299,201.31455799999998,201.65412424999997,61.0,92.0
1300,200.36967799999996,201.65510849999998,42.0,95.0
1301,201.31455799999998,201.66691949999998,66.0,90.0
1302,201.55077799999998,201.67971475,54.0,91.0
1303,201.78699799999998,202.09900524999998,54.0,92.0
1304,201.78699799999998,202.13246974999998,66.0,83.0
1305,201.78699799999998,202.31258749999998,61.0,91.0
1306,202.259438,202.40313849999998,54.0,82.0
1307,201.78699799999998,202.46317774999997,42.0,94.0
1308,202.49565799999996,202.72892524999997,54.0,93.0
1309,202.49565799999996,203.02616874999998,59.0,93.0
1310,202.96809799999997,203.09014499999998,54.0,90.0
1311,203.20431799999997,203.32636499999998,54.0,96.0
1312,202.49565799999996,203.36770349999998,47.0,104.0
1313,203.20431799999997,203.37557749999996,59.0,99.0
1314,203.44053799999998,203.57931724999997,57.0,97.0
1315,203.67675799999998,203.97400149999999,54.0,92.0
1316,203.67675799999998,203.98876524999997,42.0,92.0
1317,204.14919799999998,204.90707049999997,66.0,85.0
1318,204.14919799999998,204.93462949999997,61.0,90.0
1319,204.14919799999998,204.99663724999996,54.0,90.0
1320,205.09407799999997,205.34604599999997,57.0,88.0
1321,205.33029799999997,205.40313249999997,54.0,76.0
1322,205.09407799999997,205.42970724999998,61.0,92.0
1323,205.09407799999997,205.44939225,66.0,88.0
1324,204.14919799999998,205.46218749999997,42.0,92.0
1325,205.56651799999997,205.90903699999998,54.0,87.0
1326,205.56651799999997,205.96710774999997,57.0,86.0
1327,205.56651799999997,206.13443024999998,61.0,91.0
1328,206.03895799999998,206.13935149999998,54.0,96.0
1329,205.56651799999997,206.20628049999996,42.0,93.0
1330,206.27517799999998,206.53600424999996,54.0,96.0
1331,206.27517799999998,206.85194849999996,59.0,96.0
1332,206.747618,206.88738149999998,54.0,88.0
1333,206.98383799999996,207.10686925,54.0,92.0
1334,206.27517799999998,207.34308924999996,47.0,92.0
1335,207.22005799999997,207.4070655,54.0,92.0
1336,206.98383799999996,207.42379774999998,59.0,93.0
1337,206.98383799999996,207.45135674999997,66.0,90.0
1338,207.45627799999997,207.83619849999997,42.0,92.0
1339,207.45627799999997,207.85194649999997,54.0,88.0
1340,207.45627799999997,207.86375749999996,61.0,90.0
1341,207.92871799999998,208.45529175,66.0,85.0
1342,207.92871799999998,208.57340175,54.0,90.0
1343,207.92871799999998,208.59997649999997,61.0,91.0
1344,208.873598,208.99269224999998,54.0,93.0
1345,208.873598,209.21316424999998,61.0,92.0
1346,207.92871799999998,209.21414849999996,42.0,95.0
1347,208.873598,209.2259595,66.0,90.0
1348,209.10981799999996,209.23875474999997,54.0,91.0
1349,209.34603799999996,209.65804525,54.0,92.0
1350,209.34603799999996,209.69150974999997,66.0,83.0
1351,209.34603799999996,209.8716275,61.0,91.0
1352,209.81847799999997,209.96217849999996,54.0,82.0
1353,209.34603799999996,210.02221774999998,42.0,94.0
1354,210.05469799999997,210.28796524999998,54.0,93.0
1355,210.05469799999997,210.58520874999996,59.0,93.0
1356,210.52713799999998,210.649185,54.0,90.0
1357,210.76335799999998,210.88540499999996,54.0,96.0
1358,210.05469799999997,210.9267435,47.0,104.0
1359,210.76335799999998,210.93461749999997,59.0,99.0
1360,210.99957799999999,211.13835724999998,57.0,97.0
1361,211.235798,211.53304149999997,54.0,92.0
1362,211.235798,211.54780524999998,42.0,92.0
1363,211.70823799999997,212.46611049999998,66.0,85.0
1364,211.70823799999997,212.49366949999998,61.0,90.0
1365,211.70823799999997,212.55567724999997,54.0,90.0
1366,212.65311799999998,212.90508599999998,57.0,88.0
1367,212.88933799999998,212.96217249999998,54.0,76.0
1368,212.65311799999998,212.98874724999996,61.0,92.0
1369,212.65311799999998,213.00843224999997,66.0,88.0
1370,211.70823799999997,213.02122749999998,42.0,92.0
1371,213.12555799999998,213.46807699999997,54.0,87.0
1372,213.12555799999998,213.52614774999998,57.0,86.0
1373,213.12555799999998,213.69347024999996,61.0,91.0
1374,213.59799799999996,213.69839149999999,54.0,96.0
1375,213.12555799999998,213.76532049999997,42.0,93.0
1376,213.83421799999996,214.09504424999997,54.0,96.0
1377,213.83421799999996,216.6472045,59.0,96.0
1378,216.90507799999997,217.09208549999997,57.0,82.0
1379,216.90507799999997,217.09602249999998,42.0,92.0
1380,216.90507799999997,217.10094374999997,54.0,87.0
1381,216.90507799999997,217.10980199999997,66.0,86.0
1382,216.90507799999997,217.12456575,61.0,91.0
1383,213.83421799999996,217.13932949999997,47.0,92.0
1384,217.14129799999998,217.34208499999997,57.0,84.0
1385,217.14129799999998,217.35586449999997,54.0,82.0
1386,217.14129799999998,217.35783299999997,42.0,87.0
1387,217.14129799999998,217.36373849999998,66.0,88.0
1388,217.14129799999998,217.37850224999997,61.0,78.0
