,start,end,pitch,velocity
0,22.667635725,22.97057675,60.0,75.0
1,23.020576724999998,24.1764585,65.0,81.0
2,24.079399725,24.1764585,65.0,79.0
3,24.432340725,24.667634725,65.0,93.0
4,24.785281724999997,25.055869825,64.0,73.0
5,25.138222725,25.452928449999998,62.0,63.0
6,25.491163725,25.7293989,60.0,76.0
7,25.844104724999998,26.544104375,57.0,82.0
8,26.902927724999998,27.0823394,65.0,70.0
9,27.255868725,27.502927425,65.0,79.0
10,27.608809725,27.782339049999997,67.0,85.0
11,27.961750724999998,28.25292705,64.0,77.0
12,28.314691725,28.502926924999997,65.0,69.0
13,28.667632724999997,29.329397099999998,65.0,86.0
14,29.726455724999997,29.973514424999998,65.0,72.0
15,30.079396725,30.291161324999997,65.0,72.0
16,30.432337725,30.626455274999998,67.0,69.0
17,30.785278724999998,30.947043349999998,69.0,89.0
18,31.138219725,31.358807849999998,65.0,86.0
19,31.491160725,32.13527805,69.0,89.0
20,32.549983725,32.6705719,67.0,69.0
21,32.902924725,33.744100775,67.0,79.0
22,33.961747724999995,34.291159324999995,60.0,59.0
23,34.314688724999996,35.14704125,65.0,73.0
24,35.373511725,35.499982249999995,65.0,72.0
25,35.726452725,36.12351135,65.0,89.0
26,36.079393724999996,36.214687775,64.0,63.0
27,36.432334725,36.805863949999996,64.0,77.0
28,36.785275725,37.120569675,60.0,65.0
29,37.138216725,37.7293929,57.0,95.0
30,38.197039724999996,38.38233375,65.0,74.0
31,38.549980725,38.702921825,65.0,73.0
32,38.902921725,39.0117452,67.0,83.0
33,39.255862725,39.41762735,64.0,77.0
34,39.608803725,39.723509549999996,65.0,74.0
35,39.961744724999996,40.697038475,65.0,82.0
36,41.020567725,41.161744125,65.0,73.0
37,41.373508725,41.549979225,65.0,81.0
38,41.726449724999995,41.897037874999995,67.0,77.0
39,42.079390724999996,42.24115535,69.0,86.0
40,42.432331725,42.591155175,65.0,82.0
41,42.785272725,43.649978175,69.0,95.0
42,43.844095724999995,44.197036725,67.0,83.0
43,44.197036725,45.0235069,67.0,90.0
44,45.255859725,45.444094924999995,60.0,59.0
45,45.608800724999995,45.797035924999996,62.0,89.0
46,45.961741724999996,46.449976774999996,69.0,97.0
47,46.667623725,47.152917599999995,67.0,93.0
48,47.373505725,47.538211525,69.0,95.0
49,47.726446724999995,47.947034849999994,60.0,88.0
50,48.079387725,48.361740524999995,62.0,59.0
51,48.432328725,48.767622675,67.0,88.0
52,48.785269725,49.4940929,65.0,95.0
53,49.491151724999995,49.4940929,65.0,95.0
54,50.549974725,50.679386425,62.0,97.0
55,50.902915725,51.044092125,60.0,89.0
56,51.255856725,51.364680199999995,62.0,112.0
57,51.608797724999995,51.7882094,60.0,86.0
58,51.961738725,52.085268074999995,62.0,97.0
59,52.314679725,52.4587973,69.0,92.0
60,52.667620725,52.820561825,62.0,99.0
61,53.020561725,53.2117381,60.0,93.0
62,53.373502724999994,53.529385,62.0,102.0
63,53.726443724999996,53.935267149999994,69.0,100.0
64,54.079384725,54.849972574999995,67.0,102.0
65,54.785266725,54.941148999999996,60.0,86.0
66,55.138207725,55.28820765,60.0,79.0
67,55.491148724999995,55.69997215,60.0,96.0
68,55.844089724999996,56.052913149999995,62.0,93.0
69,56.197030725,56.426442375,65.0,99.0
70,56.549971725,56.75879515,62.0,93.0
71,56.902912725,57.079383225,67.0,95.0
72,57.255853724999994,58.85291175,69.0,99.0
73,60.785263725,60.9999695,60.0,86.0
74,61.138204724999994,61.449969274999994,60.0,102.0
75,61.491145724999996,61.723498549999995,62.0,92.0
76,61.844086725,62.149968924999996,65.0,96.0
77,62.197027725,62.46467465,62.0,96.0
78,62.549968725,63.097027274999995,72.0,96.0
79,63.255850724999995,63.479380025,72.0,99.0
80,63.608791724999996,64.49996775,72.0,100.0
81,64.66761472499999,65.06467334999999,65.0,90.0
82,65.020555725,65.944084675,62.0,92.0
83,66.432319725,66.6234961,60.0,90.0
84,66.785260725,67.14702525,60.0,92.0
85,67.138201725,67.420554525,62.0,93.0
86,67.491142725,67.791142575,65.0,96.0
87,67.84408372499999,68.144083575,62.0,90.0
88,68.19702472499999,68.84114205,67.0,96.0
89,68.902906725,69.273494775,69.0,89.0
90,69.255847725,69.7882004,67.0,95.0
91,70.314670725,70.667611725,65.0,100.0
92,70.667611725,70.9764351,62.0,90.0
93,71.020552725,71.379376075,67.0,93.0
94,71.373493725,71.7529053,69.0,107.0
95,71.72643472499999,72.38231675,67.0,96.0
96,73.491139725,73.844080725,62.0,97.0
97,73.844080725,74.53231567499999,67.0,112.0
98,74.549962725,74.8470214,69.0,102.0
99,74.902903725,75.81466797499999,72.0,102.0
100,75.96172672499999,76.373491225,65.0,95.0
101,76.31466772499999,77.3764319,67.0,112.0
102,77.373490725,77.620549425,60.0,100.0
103,77.726431725,77.93819632499999,60.0,92.0
104,78.079372725,78.3764314,60.0,122.0
105,78.432313725,78.67349007499999,62.0,117.0
106,78.785254725,79.055842825,65.0,112.0
107,79.138195725,79.39407795,62.0,97.0
108,79.49113672499999,79.85290125,67.0,122.0
109,79.84407772499999,81.3176064,69.0,102.0
110,83.37348772499999,83.52937,60.0,95.0
111,83.72642872499999,84.0470168,60.0,97.0
112,84.07936972499999,84.291134325,62.0,100.0
113,84.432310725,84.65289885,65.0,100.0
114,84.785251725,85.04113395,69.0,112.0
115,85.138192725,85.67642775,72.0,112.0
116,85.844074725,86.07642754999999,72.0,107.0
117,86.197015725,86.7411331,72.0,122.0
118,86.902897725,87.320544575,65.0,112.0
119,87.60877972499999,88.11172065,69.0,102.0
120,88.314661725,88.855837925,67.0,100.0
121,89.020543725,89.25583772499999,60.0,96.0
122,89.373484725,89.68819045,60.0,93.0
123,89.726425725,90.020543225,62.0,96.0
124,90.079366725,90.2705431,65.0,102.0
125,90.432307725,90.79407225,72.0,117.0
126,90.785248725,91.13818972499999,67.0,107.0
127,91.13818972499999,91.45583662499999,65.0,112.0
128,91.49113072499999,91.902895225,67.0,99.0
129,92.902894725,93.08818875,65.0,96.0
130,93.255835725,93.414659175,72.0,97.0
131,93.608776725,93.8470119,67.0,97.0
132,93.961717725,94.3764234,65.0,93.0
133,94.314658725,94.8705408,67.0,97.0
134,95.72642272499999,96.06465784999999,65.0,97.0
135,96.079363725,96.420540025,62.0,89.0
136,96.432304725,97.073480875,67.0,95.0
137,97.138186725,97.391127775,69.0,95.0
138,97.491127725,98.0823039,72.0,95.0
139,98.197009725,98.549950725,74.0,99.0
140,98.549950725,98.697009475,72.0,93.0
141,98.90289172499999,99.5881855,72.0,102.0
142,100.314655725,100.5764203,60.0,83.0
143,100.667596725,101.07347887499999,72.0,112.0
144,101.020537725,101.40289047499999,69.0,112.0
145,101.726419725,101.99406665,67.0,107.0
146,102.079360725,102.6587722,69.0,93.0
147,102.78524272499999,105.03524159999999,65.0,92.0
148,113.373472725,114.20582524999999,65.0,73.0
149,114.43229572499999,114.55876624999999,65.0,72.0
150,114.78523672499999,115.18229534999999,65.0,89.0
151,115.13817772499999,115.27347177499999,64.0,63.0
152,115.49111872499999,115.86464794999999,64.0,77.0
153,115.844059725,116.179353675,60.0,65.0
154,116.197000725,116.7881769,57.0,95.0
155,117.255823725,117.44111774999999,65.0,74.0
156,117.608764725,117.76170582499999,65.0,73.0
157,117.961705725,118.0705292,67.0,83.0
158,118.31464672499999,118.47641134999999,64.0,77.0
159,118.66758772499999,118.78229354999999,65.0,74.0
160,119.02052872499999,119.75582247499999,65.0,82.0
161,120.079351725,120.220528125,65.0,73.0
162,120.432292725,120.60876322499999,65.0,81.0
163,120.785233725,120.955821875,67.0,77.0
164,121.138174725,121.29993934999999,69.0,86.0
165,121.491115725,121.649939175,65.0,82.0
166,121.844056725,122.70876217499999,69.0,95.0
167,122.90287972499999,123.25582072499999,67.0,83.0
168,123.25582072499999,124.08229089999999,67.0,90.0
169,124.314643725,124.50287892499999,60.0,59.0
170,124.667584725,124.85581992499999,62.0,89.0
171,125.020525725,125.508760775,69.0,97.0
172,125.72640772499999,126.2117016,67.0,93.0
173,126.43228972499999,126.596995525,69.0,95.0
174,126.78523072499999,127.00581885,60.0,88.0
175,127.13817172499999,127.42052452499999,62.0,59.0
176,127.491112725,127.826406675,67.0,88.0
177,127.844053725,128.5528769,65.0,95.0
178,128.54993572499998,128.5528769,65.0,95.0
179,129.608758725,129.738170425,62.0,97.0
180,129.961699725,130.102876125,60.0,89.0
181,130.314640725,130.42346419999998,62.0,112.0
182,130.667581725,130.8469934,60.0,86.0
183,131.020522725,131.144052075,62.0,97.0
184,131.373463725,131.5175813,69.0,92.0
185,131.72640472499998,131.879345825,62.0,99.0
186,132.079345725,132.2705221,60.0,93.0
187,132.43228672499998,132.588169,62.0,102.0
188,132.785227725,132.99405115,69.0,100.0
189,133.13816872499999,133.90875657499998,67.0,102.0
190,133.844050725,133.999933,60.0,86.0
191,134.196991725,134.34699165,60.0,79.0
192,134.549932725,134.75875614999998,60.0,96.0
193,134.902873725,135.11169715,62.0,93.0
194,135.255814725,135.485226375,65.0,99.0
195,135.60875572499998,135.81757915,62.0,93.0
196,135.961696725,136.138167225,67.0,95.0
197,136.31463772499998,137.91169575,69.0,99.0
198,139.844047725,140.0587535,60.0,86.0
199,140.19698872499998,140.508753275,60.0,102.0
200,140.549929725,140.78228255,62.0,92.0
201,140.90287072499999,141.208752925,65.0,96.0
202,141.255811725,141.52345864999998,62.0,96.0
203,141.608752725,142.155811275,72.0,96.0
204,142.314634725,142.538164025,72.0,99.0
205,142.667575725,143.55875175,72.0,100.0
206,143.726398725,144.12345735,65.0,90.0
207,144.07933972499998,145.002868675,62.0,92.0
208,145.491103725,145.68228009999999,60.0,90.0
209,145.844044725,146.20580925,60.0,92.0
210,146.196985725,146.479338525,62.0,93.0
211,146.549926725,146.84992657499998,65.0,96.0
212,146.902867725,147.202867575,62.0,90.0
213,147.25580872499998,147.89992605,67.0,96.0
214,147.96169072499998,148.332278775,69.0,89.0
215,148.314631725,148.8469844,67.0,95.0
216,149.373454725,149.726395725,65.0,100.0
217,149.726395725,150.0352191,62.0,90.0
218,150.079336725,150.43816007499998,67.0,93.0
219,150.432277725,150.81168929999998,69.0,107.0
220,150.785218725,151.44110075,67.0,96.0
221,152.54992372499999,152.902864725,62.0,97.0
222,152.902864725,153.59109967499998,67.0,112.0
223,153.608746725,153.9058054,69.0,102.0
224,153.961687725,154.873451975,72.0,102.0
225,155.02051072499998,155.43227522499998,65.0,95.0
226,155.373451725,156.4352159,67.0,112.0
227,156.43227472499998,156.67933342499998,60.0,100.0
228,156.785215725,156.99698032499998,60.0,92.0
229,157.138156725,157.4352154,60.0,122.0
230,157.491097725,157.732274075,62.0,117.0
231,157.844038725,158.114626825,65.0,112.0
232,158.196979725,158.45286195,62.0,97.0
233,158.549920725,158.91168525,67.0,122.0
234,158.90286172499998,160.3763904,69.0,102.0
235,162.432271725,162.588154,60.0,95.0
236,162.78521272499998,163.1058008,60.0,97.0
237,163.138153725,163.349918325,62.0,100.0
238,163.49109472499998,163.71168285,65.0,100.0
239,163.844035725,164.09991795,69.0,112.0
240,164.19697672499998,164.73521175,72.0,112.0
241,164.902858725,165.13521154999998,72.0,107.0
242,165.255799725,165.7999171,72.0,122.0
243,165.961681725,166.379328575,65.0,112.0
244,166.66756372499998,167.17050465,69.0,102.0
245,167.702857325,168.244033525,67.0,100.0
246,168.07932772499998,168.314621725,60.0,96.0
247,168.432268725,168.74697444999998,60.0,93.0
248,168.785209725,169.079327225,62.0,96.0
249,169.138150725,169.3293271,65.0,102.0
250,169.491091725,169.85285625,72.0,117.0
251,169.844032725,170.196973725,67.0,107.0
252,170.196973725,170.514620625,65.0,112.0
253,170.54991472499998,170.96167922499998,67.0,99.0
254,171.96167872499998,172.14697275,65.0,96.0
255,172.314619725,172.473443175,72.0,97.0
256,172.667560725,172.9057959,67.0,97.0
257,173.020501725,173.4352074,65.0,93.0
258,173.373442725,173.9293248,67.0,97.0
259,174.785206725,175.12344185,65.0,97.0
260,175.13814772499998,175.47932402499998,62.0,89.0
261,175.491088725,176.132264875,67.0,95.0
262,176.196970725,176.449911775,69.0,95.0
263,176.549911725,177.1410879,72.0,95.0
264,177.255793725,177.608734725,74.0,99.0
265,177.608734725,177.755793475,72.0,93.0
266,177.961675725,178.64696949999998,72.0,102.0
267,179.373439725,179.6352043,60.0,83.0
268,179.72638072499998,180.13226287499998,72.0,112.0
269,180.079321725,180.461674475,69.0,112.0
270,180.785203725,181.05285064999998,67.0,107.0
271,181.138144725,181.7175562,69.0,93.0
272,181.844026725,183.27637894999998,65.0,92.0
273,195.961666725,196.117549,61.0,86.0
274,196.314607725,196.46460765,61.0,79.0
275,196.667548725,196.87637214999998,61.0,96.0
276,197.020489725,197.22931315,63.0,93.0
277,197.373430725,197.602842375,66.0,99.0
278,197.72637172499998,197.93519515,63.0,93.0
279,198.079312725,198.255783225,68.0,95.0
280,198.43225372499998,200.02931175,70.0,99.0
281,201.961663725,202.1763695,61.0,86.0
282,202.31460472499998,202.626369275,61.0,102.0
283,202.667545725,202.89989855,63.0,92.0
284,203.02048672499998,203.326368925,66.0,96.0
285,203.373427725,203.64107464999998,63.0,96.0
286,203.726368725,204.273427275,73.0,96.0
287,204.432250725,204.65578002499998,73.0,99.0
288,204.785191725,205.67636775,73.0,100.0
289,205.844014725,206.24107335,66.0,90.0
290,206.19695572499998,207.120484675,63.0,92.0
291,207.608719725,207.79989609999998,61.0,90.0
292,207.961660725,208.32342524999999,61.0,92.0
293,208.314601725,208.596954525,63.0,93.0
294,208.667542725,208.96754257499998,66.0,96.0
295,209.020483725,209.320483575,63.0,90.0
296,209.37342472499998,210.01754205,68.0,96.0
297,210.07930672499998,210.449894775,70.0,89.0
298,210.432247725,210.9646004,68.0,95.0
299,211.491070725,211.844011725,66.0,100.0
300,211.844011725,212.1528351,63.0,90.0
301,212.196952725,212.55577607499998,68.0,93.0
302,212.549893725,212.92930529999998,70.0,107.0
303,212.902834725,213.55871675,68.0,96.0
304,214.66753972499998,215.020480725,63.0,97.0
305,215.020480725,215.70871567499998,68.0,112.0
306,215.726362725,216.0234214,70.0,102.0
307,216.079303725,216.991067975,73.0,102.0
308,217.13812672499998,217.54989122499998,66.0,95.0
309,217.491067725,218.5528319,68.0,112.0
310,218.54989072499998,218.79694942499998,61.0,100.0
311,218.902831725,219.11459632499998,61.0,92.0
312,219.25577272499999,219.5528314,61.0,122.0
313,219.608713725,219.849890075,63.0,117.0
314,219.961654725,220.232242825,66.0,112.0
315,220.314595725,220.57047795,63.0,97.0
316,220.667536725,221.02930125,68.0,122.0
317,221.02047772499998,222.4940064,70.0,102.0
318,224.549887725,224.70577,61.0,95.0
319,224.90282872499998,225.2234168,61.0,97.0
320,225.255769725,225.467534325,63.0,100.0
321,225.60871072499998,225.82929885,66.0,100.0
322,225.961651725,226.21753395,70.0,112.0
323,226.31459272499998,226.85282775,73.0,112.0
324,227.02047472499999,227.25282754999998,73.0,107.0
325,227.373415725,227.91753309999999,73.0,122.0
326,228.079297725,228.496944575,66.0,112.0
327,228.78517972499998,229.28812065,70.0,102.0
328,229.820473325,230.361649525,68.0,100.0
329,230.19694372499998,230.432237725,61.0,96.0
330,230.549884725,230.86459044999998,61.0,93.0
331,230.90282572499999,231.19694322499998,63.0,96.0
332,231.255766725,231.4469431,66.0,102.0
333,231.608707725,231.97047225,73.0,117.0
334,231.961648725,232.314589725,68.0,107.0
335,232.314589725,232.632236625,66.0,112.0
336,232.66753072499998,233.07929522499998,68.0,99.0
337,234.07929472499998,234.26458875,66.0,96.0
338,234.432235725,234.591059175,73.0,97.0
339,234.78517672499999,235.02341189999999,68.0,97.0
340,235.138117725,235.5528234,66.0,93.0
341,235.491058725,236.0469408,68.0,97.0
342,236.902822725,237.24105784999998,66.0,97.0
343,237.25576372499998,237.59694002499998,63.0,89.0
344,237.608704725,238.249880875,68.0,95.0
345,238.314586725,238.567527775,70.0,95.0
346,238.66752772499999,239.2587039,73.0,95.0
347,239.373409725,239.726350725,75.0,99.0
348,239.726350725,239.873409475,73.0,93.0
349,240.079291725,240.76458549999998,73.0,102.0
350,241.491055725,241.7528203,61.0,83.0
351,241.84399672499998,242.24987887499998,73.0,112.0
352,242.196937725,242.579290475,70.0,112.0
353,242.902819725,243.17046664999998,68.0,107.0
354,243.255760725,243.8351722,70.0,93.0
355,243.961642725,245.39399494999998,66.0,92.0
