,start,end,pitch,velocity
0,23.88498731875,24.289004206250002,68.0,86.0
1,24.42070031875,24.624940900000002,68.0,81.0
2,24.68855681875,24.9039580875,70.0,80.0
3,24.956413318750002,25.396144406250002,73.0,84.0
4,25.49212631875,25.741009650000002,70.0,83.0
5,25.75998281875,25.932973475,68.0,80.0
6,26.02783931875,27.973147150000003,68.0,81.0
7,28.170691318750002,28.3503783875,68.0,74.0
8,28.438547818750003,28.605958131250002,68.0,79.0
9,28.70640431875,28.869350356250003,68.0,81.0
10,28.97426081875,29.17292105625,70.0,85.0
11,29.24211731875,29.50997381875,73.0,83.0
12,29.50997381875,29.777830318750002,73.0,83.0
13,29.777830318750002,29.976490556250003,70.0,80.0
14,30.045686818750003,30.218677475,68.0,80.0
15,30.31354331875,31.941887625,65.0,80.0
16,32.456395318750005,32.670680518750004,68.0,84.0
17,32.72425181875,32.8927782,68.0,84.0
18,32.99210831875,33.1494740125,68.0,82.0
19,33.25996481875,33.4173305125,70.0,84.0
20,33.52782131875,33.9798291625,73.0,84.0
21,34.06353431875,34.282283793750004,70.0,80.0
22,34.33139081875,34.5110778875,68.0,81.0
23,34.59924731875,36.43406434375,61.0,90.0
24,36.74209931875,36.9083935625,68.0,80.0
25,37.00995581875,37.1717857875,68.0,79.0
26,37.27781231875,37.428481600000005,68.0,80.0
27,37.54566881875,37.73093623125,70.0,80.0
28,37.81352531875,37.97200708125,68.0,84.0
29,38.08138181875,38.23316716875,65.0,86.0
30,38.349238318750004,38.50102366875,65.0,81.0
31,38.617094818750004,38.8213354,61.0,80.0
32,38.884951318750005,40.87601796875,63.0,75.0
33,41.02780331875,41.191865425,68.0,80.0
34,41.29565981875,41.4842754375,68.0,77.0
35,41.563516318750004,41.736506975000005,68.0,81.0
36,41.831372818750005,42.02333664375,70.0,83.0
37,42.099229318750005,42.57913888125,73.0,82.0
38,42.63494231875,42.88047744375,70.0,81.0
39,42.90279881875,43.080253750000004,68.0,76.0
40,43.17065531875,45.147213075,68.0,81.0
41,45.31350731875,45.486497975,68.0,80.0
42,45.58136381875,45.73091703125,68.0,80.0
43,45.84922031875,45.99654139375,68.0,81.0
44,46.11707681875,46.311272781250004,70.0,85.0
45,46.38493331875,46.92064631875,73.0,82.0
46,46.92064631875,47.13716365625,70.0,82.0
47,47.18850281875,47.397207675000004,68.0,80.0
48,47.45635931875,49.33135481875,65.0,80.0
49,49.33135481875,49.561264981250005,61.0,82.0
50,49.59921131875,49.750996668750005,68.0,75.0
51,49.86706781875,50.0288977875,68.0,75.0
52,50.13492431875,50.3213078,68.0,74.0
53,50.40278081875,50.584700025000004,70.0,74.0
54,50.67063731875,51.103671993750005,73.0,85.0
55,51.206350318750005,51.38938559375,70.0,84.0
56,51.474206818750005,51.6248761,68.0,78.0
57,51.74206331875,52.81348931875,61.0,83.0
58,53.34920231875,53.542282212500005,58.0,83.0
59,53.61705881875,53.8146029875,61.0,86.0
60,53.884915318750004,54.0355846,63.0,80.0
61,54.152771818750004,54.2788875875,63.0,79.0
62,54.420628318750005,54.58134221875,63.0,80.0
63,54.688484818750005,54.86593975,65.0,80.0
64,54.95634131875,55.40053668125,63.0,81.0
65,55.49205431875,55.711919862500004,61.0,82.0
66,55.75991081875,55.937365750000005,63.0,80.0
67,56.02776731875,57.75878995,61.0,81.0
68,57.902762818750006,58.090262368750004,70.0,85.0
69,58.17061931875,58.334681425,73.0,83.0
70,58.43847581875,58.5958415125,73.0,83.0
71,58.70633231875,58.86927835625,73.0,85.0
72,58.97418881875,59.1404830625,75.0,83.0
73,59.24204531875,59.50990181875,77.0,84.0
74,59.50990181875,59.77775831875,77.0,84.0
75,59.77775831875,59.9753024875,75.0,86.0
76,60.04561481875,60.2610160875,73.0,85.0
77,60.313471318750004,62.029985056250005,70.0,83.0
78,62.45632331875,62.623733631250005,75.0,86.0
79,62.72417981875,62.888241925,75.0,81.0
80,62.99203631875,63.1605627,75.0,90.0
81,63.259892818750004,63.442928093750005,77.0,81.0
82,63.527749318750004,63.6784186,75.0,84.0
83,63.795605818750005,64.02551598125001,73.0,83.0
84,64.06346231875,64.52774691875,70.0,81.0
85,64.59917531875,66.27439451250001,68.0,79.0
86,66.74202731875,66.950732175,65.0,84.0
87,67.00988381875,67.1717137875,68.0,82.0
88,67.27774031875,67.45407918125001,68.0,83.0
89,67.54559681875,67.74202491875,65.0,95.0
90,67.81345331875,67.96523866875,73.0,83.0
91,68.08130981875,68.25541654375,73.0,83.0
92,68.34916631875001,68.79782595625001,72.0,83.0
93,68.88487931875001,70.26992063750001,70.0,80.0
94,70.75987481875,70.97639215625,68.0,79.0
95,71.02773131875,71.21076659375001,70.0,83.0
96,71.29558781875001,71.44290889375,73.0,81.0
97,71.56344431875,71.7252742875,73.0,81.0
98,71.83130081875001,71.96299693125,73.0,85.0
99,72.09915731875,72.51321882500001,73.0,84.0
100,72.63487031875,72.83911090000001,73.0,82.0
101,72.90272681875,73.1449137375,70.0,82.0
102,73.17058331875,75.04557881875,75.0,90.0
103,75.04557881875,75.19848023750001,70.0,86.0
104,75.31343531875001,75.49647059375,73.0,81.0
105,75.58129181875,75.7319611,73.0,83.0
106,75.84914831875,76.039996075,73.0,85.0
107,76.11700481875,76.281066925,75.0,86.0
108,76.38486131875,76.54557521875,77.0,86.0
109,76.65271781875,76.81566385625,77.0,88.0
110,76.92057431875,77.1248149,75.0,84.0
111,77.18843081875,77.44735876875001,73.0,84.0
112,77.45628731875,79.07235486875,70.0,83.0
113,79.59913931875,79.74646039375,75.0,86.0
114,79.86699581875,80.02436151250001,75.0,81.0
115,80.13485231875,80.30672690625,75.0,90.0
116,80.40270881875,80.57569947500001,77.0,81.0
117,80.67056531875001,80.87592196875,75.0,86.0
118,80.93842181875,81.17279625625001,73.0,86.0
119,81.20627831875001,81.74422345625,70.0,83.0
120,81.74199131875001,83.4306033375,68.0,82.0
121,83.88484331875,84.10359279375001,65.0,86.0
122,84.15269981875001,84.31118158125,68.0,80.0
123,84.42055631875,84.6002433875,68.0,81.0
124,84.68841281875001,84.8926534,65.0,88.0
125,84.95626931875,85.10135825625001,73.0,84.0
126,85.22412581875,85.39153613125,73.0,81.0
127,85.49198231875,85.97858829375001,72.0,83.0
128,86.02769531875,87.36697781875,70.0,80.0
129,87.36697781875,87.513182825,70.0,88.0
130,87.63483431875001,87.84800345000001,70.0,81.0
131,87.90269081875,88.0600565125,73.0,84.0
132,88.17054731875001,88.33237728750001,75.0,85.0
133,88.43840381875,88.59242130625,75.0,85.0
134,88.70626031875,88.95402758125,75.0,85.0
135,88.97411681875,89.14599140625,73.0,80.0
136,89.24197331875,89.7319275,68.0,83.0
137,89.77768631875,90.2430869875,70.0,81.0
138,90.31339931875,92.38147471250001,73.0,81.0
139,126.74188331875,126.905945425,68.0,80.0
140,127.00973981875,127.1983554375,68.0,77.0
141,127.27759631875,127.45058697500001,68.0,81.0
142,127.54545281875001,127.73741664375001,70.0,83.0
143,127.81330931875,128.29321888125,73.0,82.0
144,128.34902231875,128.59455744375,70.0,81.0
145,128.61687881875,128.79433375,68.0,76.0
146,128.88473531875002,129.79991169375,68.0,81.0
147,131.02758731875,131.20057797500002,68.0,80.0
148,131.29544381875002,131.44499703125,68.0,80.0
149,131.56330031875,131.71062139375002,68.0,81.0
150,131.83115681875,132.02535278125,70.0,85.0
151,132.09901331875,132.3501287875,73.0,82.0
152,132.3769144375,132.629145975,73.0,82.0
153,132.63472631875,132.85124365625,70.0,82.0
154,132.90258281875,133.111287675,68.0,80.0
155,133.17043931875,133.54097414375,65.0,80.0
156,135.04543481875,135.27534498125002,61.0,82.0
157,135.31329131875,135.46507666875002,68.0,75.0
158,135.58114781875,135.7429777875,68.0,75.0
159,135.84900431875002,136.0353878,68.0,74.0
160,136.11686081875,136.298780025,70.0,74.0
161,136.38471731875,136.81775199375,73.0,85.0
162,136.92043031875,137.10346559375,70.0,84.0
163,137.18828681875002,137.33895610000002,68.0,78.0
164,137.45614331875,138.3724357625,61.0,83.0
165,139.06328231875,139.2563622125,58.0,83.0
166,139.33113881875002,139.52868298750002,61.0,86.0
167,139.59899531875,139.74966460000002,63.0,80.0
168,139.86685181875,139.9929675875,63.0,79.0
169,140.13470831875,140.29542221875002,63.0,80.0
170,140.40256481875,140.58001975000002,65.0,80.0
171,140.67042131875002,141.11461668125,63.0,81.0
172,141.20613431875,141.4259998625,61.0,82.0
173,141.47399081875,141.65144575,63.0,80.0
174,141.74184731875002,142.56997033125,61.0,81.0
175,143.61684281875,143.80434236875,70.0,85.0
176,143.88469931875,144.048761425,73.0,83.0
177,144.15255581875002,144.3099215125,73.0,83.0
178,144.42041231875,144.58335835625002,73.0,85.0
179,144.68826881875,144.8545630625,75.0,83.0
180,144.95612531875,145.22398181875002,77.0,84.0
181,145.22398181875002,145.49183831875,77.0,84.0
182,145.49183831875,145.6893824875,75.0,86.0
183,145.75969481875,145.97509608750002,73.0,85.0
184,146.02755131875,147.74406505625,70.0,83.0
185,148.17040331875,148.33781363125001,75.0,86.0
186,148.43825981875,148.602321925,75.0,81.0
187,148.70611631875002,148.8746427,75.0,90.0
188,148.97397281875,149.15700809375,77.0,81.0
189,149.24182931875,149.3924986,75.0,84.0
190,149.50968581875,149.73959598125,73.0,83.0
191,149.77754231875,150.24182691875,70.0,81.0
192,150.31325531875,151.9884745125,68.0,79.0
193,152.45610731875,152.664812175,65.0,84.0
194,152.72396381875,152.8857937875,68.0,82.0
195,152.99182031875,153.16815918125002,68.0,83.0
196,153.25967681875,153.45610491875001,65.0,95.0
197,153.52753331875002,153.67931866875,73.0,83.0
198,153.79538981875,153.96949654375,73.0,83.0
199,154.06324631875,154.51190595625002,72.0,83.0
200,154.59895931875002,155.9840006375,70.0,80.0
201,156.47395481875,156.69047215625,68.0,79.0
202,156.74181131875,156.92484659375,70.0,83.0
203,157.00966781875002,157.15698889375,73.0,81.0
204,157.27752431875,157.4393542875,73.0,81.0
205,157.54538081875,157.67707693125,73.0,85.0
206,157.81323731875,158.22729882500002,73.0,84.0
207,158.34895031875,158.5531909,73.0,82.0
208,158.61680681875,158.85899373750001,70.0,82.0
209,158.88466331875,160.75965881875,75.0,90.0
210,160.75965881875,160.9125602375,70.0,86.0
211,161.02751531875,161.21055059375,73.0,81.0
212,161.29537181875,161.4460411,73.0,83.0
213,161.56322831875002,161.754076075,73.0,85.0
214,161.83108481875,161.995146925,75.0,86.0
215,162.09894131875,162.25965521875,77.0,86.0
216,162.36679781875,162.52974385625,77.0,88.0
217,162.63465431875,162.8388949,75.0,84.0
218,162.90251081875002,163.16143876875,73.0,84.0
219,163.17036731875,164.78643486875,70.0,83.0
220,165.31321931875001,165.46054039375,75.0,86.0
221,165.58107581875,165.7384415125,75.0,81.0
222,165.84893231875,166.02080690625002,75.0,90.0
223,166.11678881875,166.28977947500002,77.0,81.0
224,166.38464531875002,166.59000196875002,75.0,86.0
225,166.65250181875,166.88687625625002,73.0,86.0
226,166.92035831875,167.45830345625,70.0,83.0
227,167.45607131875002,169.1446833375,68.0,82.0
228,169.59892331875,169.81767279375,65.0,86.0
229,169.86677981875002,170.02526158125002,68.0,80.0
230,170.13463631875,170.3143233875,68.0,81.0
231,170.40249281875,170.6067334,65.0,88.0
232,170.67034931875,170.81543825625002,73.0,84.0
233,170.93820581875002,171.10561613125,73.0,81.0
234,171.20606231875,171.69266829375002,72.0,83.0
235,171.74177531875,173.08105781875,70.0,80.0
236,173.08105781875,173.227262825,70.0,88.0
237,173.34891431875002,173.56208345000002,70.0,81.0
238,173.61677081875,173.7741365125,73.0,84.0
239,173.88462731875,174.0464572875,75.0,85.0
240,174.15248381875,174.30650130625,75.0,85.0
241,174.42034031875002,174.66810758125,75.0,85.0
242,174.68819681875001,174.86007140625,73.0,80.0
243,174.95605331875,175.4460075,68.0,83.0
244,175.49176631875,175.95716698750002,70.0,81.0
245,176.02747931875,177.63461831875,73.0,81.0
246,177.90247481875,178.08997436875,70.0,85.0
247,178.17033131875002,178.334393425,73.0,83.0
248,178.43818781875,178.5955535125,73.0,83.0
249,178.70604431875,178.86899035625,73.0,85.0
250,178.97390081875,179.1401950625,75.0,83.0
251,179.24175731875002,179.50961381875,77.0,84.0
252,179.50961381875,179.77747031875,77.0,84.0
253,179.77747031875,179.9750144875,75.0,86.0
254,180.04532681875,180.2607280875,73.0,85.0
255,180.31318331875002,182.02969705625,70.0,83.0
256,182.45603531875,182.62344563125,75.0,86.0
257,182.72389181875002,182.887953925,75.0,81.0
258,182.99174831875,183.1602747,75.0,90.0
259,183.25960481875,183.44264009375001,77.0,81.0
260,183.52746131875,183.6781306,75.0,84.0
261,183.79531781875002,184.02522798125,73.0,83.0
262,184.06317431875001,184.52745891875,70.0,81.0
263,184.59888731875,186.2741065125,68.0,79.0
264,186.74173931875,186.950444175,65.0,84.0
265,187.00959581875,187.1714257875,68.0,82.0
266,187.27745231875,187.45379118125,68.0,83.0
267,187.54530881875002,187.74173691875,65.0,95.0
268,187.81316531875,187.96495066875002,73.0,83.0
269,188.08102181875,188.25512854375,73.0,83.0
270,188.34887831875,188.79753795625,72.0,83.0
271,188.88459131875,190.2696326375,70.0,80.0
272,190.75958681875,190.97610415625002,68.0,79.0
273,191.02744331875002,191.21047859375,70.0,83.0
274,191.29529981875,191.44262089375002,73.0,81.0
275,191.56315631875,191.7249862875,73.0,81.0
276,191.83101281875,191.96270893125,73.0,85.0
277,192.09886931875002,192.512930825,73.0,84.0
278,192.63458231875,192.8388229,73.0,82.0
279,192.90243881875,193.1446257375,70.0,82.0
280,193.17029531875002,195.04529081875,75.0,90.0
281,195.04529081875,195.1981922375,70.0,86.0
282,195.31314731875,195.49618259375,73.0,81.0
283,195.58100381875002,195.7316731,73.0,83.0
284,195.84886031875,196.03970807500002,73.0,85.0
285,196.11671681875,196.28077892500002,75.0,86.0
286,196.38457331875,196.54528721875002,77.0,86.0
287,196.65242981875002,196.81537585625,77.0,88.0
288,196.92028631875002,197.1245269,75.0,84.0
289,197.18814281875,197.44707076875,73.0,84.0
290,197.45599931875,199.07206686875,70.0,83.0
291,199.59885131875,199.74617239375002,75.0,86.0
292,199.86670781875,200.0240735125,75.0,81.0
293,200.13456431875,200.30643890625,75.0,90.0
294,200.40242081875002,200.575411475,77.0,81.0
295,200.67027731875,200.87563396875,75.0,86.0
296,200.93813381875,201.17250825625,73.0,86.0
297,201.20599031875,201.74393545625,70.0,83.0
298,201.74170331875,203.43031533750002,68.0,82.0
299,203.88455531875002,204.10330479375,65.0,86.0
300,204.15241181875,204.31089358125,68.0,80.0
301,204.42026831875,204.59995538750002,68.0,81.0
302,204.68812481875,204.89236540000002,65.0,88.0
303,204.95598131875002,205.10107025625,73.0,84.0
304,205.22383781875,205.39124813125,73.0,81.0
305,205.49169431875,205.97830029375,72.0,83.0
306,206.02740731875002,207.36668981875002,70.0,80.0
307,207.36668981875002,207.51289482500002,70.0,88.0
308,207.63454631875,207.84771545,70.0,81.0
309,207.90240281875,208.0597685125,73.0,84.0
310,208.17025931875,208.3320892875,75.0,85.0
311,208.43811581875002,208.59213330625002,75.0,85.0
312,208.70597231875,208.95373958125,75.0,85.0
313,208.97382881875,209.14570340625002,73.0,80.0
314,209.24168531875,209.7316395,68.0,83.0
315,209.77739831875002,210.2427989875,70.0,81.0
316,210.31311131875,211.38453731875,73.0,81.0
317,211.66132236875,211.8744915,70.0,84.0
318,211.95484845000001,212.1356515875,70.0,90.0
319,212.20373178125,212.41020450000002,73.0,86.0
320,212.50507034375002,212.70819485625,75.0,95.0
321,212.798596425,213.0329708625,75.0,95.0
322,213.14122953125002,213.39457713750002,75.0,93.0
323,213.49279118750002,214.07426300625002,73.0,86.0
324,214.084307625,216.28296306250002,68.0,79.0
325,216.20595431875,217.84769145,70.0,86.0
326,217.81309331875002,221.72379821875,73.0,79.0
