,start,end,pitch,velocity
0,30.597232931249998,30.97994911458333,56.0,96.0
1,30.967603431249998,31.373467770833333,58.0,82.0
2,31.337973931249998,32.28396191666666,61.0,100.0
3,32.44908543125,32.663591679166665,61.0,88.0
4,32.81945593125,33.42902404583333,61.0,89.0
5,33.56019693125,33.811740229166666,63.0,97.0
6,33.93056743125,34.14198725833333,65.0,86.0
7,34.30093793125,34.824086262499996,63.0,100.0
8,35.04167893125,35.9537162875,61.0,88.0
9,36.52316093125,36.737667179166664,61.0,96.0
10,36.89353143125,37.087975943749996,63.0,97.0
11,37.26390193125,38.06328492708333,65.0,97.0
12,38.37501343125,38.59569252083333,63.0,107.0
13,38.74538393125,39.10495195833333,61.0,96.0
14,39.11575443125,39.351865624999995,65.0,95.0
15,39.500013824999996,39.66976697083333,68.0,96.0
16,39.856495431249996,40.9722365625,68.0,95.0
17,42.449088931249996,42.575632185416666,65.0,96.0
18,42.819459431249996,42.93365700208333,68.0,97.0
19,43.189829931249996,43.854953620833335,68.0,99.0
20,44.300941431249996,44.43674394791667,65.0,97.0
21,44.671311931249996,45.14816395,65.0,90.0
22,45.412052931249995,45.746929591666664,63.0,95.0
23,45.782423431249995,46.08643588333333,61.0,81.0
24,46.152793931249995,46.432115016666664,63.0,100.0
25,46.523164431249995,46.722238575,65.0,93.0
26,46.893534931249995,47.75464634375,58.0,86.0
27,48.375016931249995,48.67439975208333,58.0,90.0
28,48.745387431249995,48.97532578333333,61.0,93.0
29,49.115757931249995,49.95217797708333,63.0,90.0
30,50.226869431249995,50.361128737499996,65.0,97.0
31,50.597239931249995,50.96606722083333,63.0,99.0
32,50.967610431249994,51.15588210208333,61.0,82.0
33,51.708351431249994,52.05403056458333,58.0,85.0
34,52.078721931249994,53.631191610416664,63.0,90.0
35,54.30094493125,54.68366111458333,56.0,96.0
36,54.67131543125,55.07717977083333,58.0,82.0
37,55.04168593125,55.987673916666665,61.0,100.0
38,56.15279743125,56.36730367916667,61.0,88.0
39,56.52316793125,56.87810632708333,61.0,89.0
40,56.89353843125,57.09569899583333,61.0,97.0
41,57.26390893125,57.51545222916666,63.0,97.0
42,57.63427943125,57.84569925833333,65.0,86.0
43,58.00464993125,58.5277982625,63.0,100.0
44,58.74539093125,59.6574282875,61.0,88.0
45,60.22687293125,60.44137917916667,61.0,96.0
46,60.59724343125,60.79168794375,63.0,97.0
47,60.96761393125,61.76699692708333,65.0,97.0
48,62.07872543125,62.29940452083333,63.0,107.0
49,62.44909593125,62.808663958333334,61.0,96.0
50,62.81946643125,63.055577625,65.0,95.0
51,63.18983693125,63.35959007708333,68.0,96.0
52,63.745392681249996,64.8611338125,68.0,95.0
53,66.15280093125,66.27934418541666,65.0,96.0
54,66.52317143124999,66.63736900208333,68.0,97.0
55,66.89354193125,67.55866562083332,68.0,99.0
56,68.00465343124999,68.14045594791666,65.0,97.0
57,68.37502393125,68.85187595,65.0,90.0
58,69.11576493125,69.45064159166667,63.0,95.0
59,69.48613543124999,69.79014788333333,61.0,81.0
60,69.85650593125,70.13582701666667,63.0,100.0
61,70.22687643124999,70.425950575,65.0,93.0
62,70.59724693125,71.45835834374999,58.0,86.0
63,72.07872893125,72.37811175208333,58.0,90.0
64,72.44909943124999,72.67903778333333,61.0,93.0
65,72.81946993125,73.65588997708333,63.0,90.0
66,73.93058143124999,74.06484073749999,65.0,97.0
67,74.30095193125,74.66977922083333,63.0,99.0
68,74.67132243124999,74.85959410208334,61.0,82.0
69,75.41206343124999,75.81484135,63.0,100.0
70,75.78243393125,77.33799003125,61.0,99.0
71,78.00465693125,78.20681749583333,61.0,107.0
72,78.37502743124999,78.611138625,61.0,100.0
73,78.74539793125,79.52163277083334,70.0,127.0
74,79.85650943125,80.166694725,61.0,127.0
75,80.22687993125,80.61268253541667,60.0,122.0
76,80.59725043125,80.90126288333333,61.0,127.0
77,80.96762093125,81.23459633333333,70.0,122.0
78,81.33799143125,81.78397924166666,72.0,117.0
79,82.07873243125,82.98459694583333,68.0,122.0
80,83.93058493125,84.2222517,66.0,112.0
81,84.30095543125,84.54632588749999,65.0,102.0
82,84.67132593125,85.39509161666666,66.0,107.0
83,85.78243743125,86.01700541458332,66.0,107.0
84,86.15280793125,86.45064754166667,65.0,102.0
85,86.52317843125,86.77009209791666,69.0,127.0
86,87.26391943125,87.462993575,63.0,107.0
87,87.63428993125,88.03398142916666,63.0,112.0
88,88.00466043125,89.01700646458333,61.0,83.0
89,89.48614243125,89.69293262708332,61.0,102.0
90,89.85651293125,90.11577228125,63.0,112.0
91,90.22688343125,90.45990820416667,65.0,117.0
92,90.59725393125,91.28861219791666,63.0,127.0
93,91.70836543125,91.87503215625,63.0,99.0
94,92.07873593125,92.31639033541666,63.0,102.0
95,92.44910643125,92.65898304791666,65.0,99.0
96,92.81947693125,93.07410664999999,66.0,100.0
97,93.18984743125,93.44910678125,63.0,97.0
98,93.56021793125,93.87194643541666,65.0,102.0
99,93.93058843125,94.15126752083333,68.0,107.0
100,94.30095893125,94.61731706666666,68.0,102.0
101,94.67132943125,94.91978630833333,65.0,107.0
102,95.04169993125,95.92287307916666,73.0,127.0
103,96.15281143125,96.32256457708333,73.0,127.0
104,96.33799668124999,96.48923130208333,72.0,89.0
105,96.52318193125,97.07102162916667,70.0,99.0
106,97.63429343125,97.84108362708334,70.0,127.0
107,98.00466393125,98.25620722916666,70.0,122.0
108,98.37503443125,98.60651599375,72.0,107.0
109,98.74540493125,98.99386180833334,70.0,112.0
110,99.11577543125,99.38275083333333,72.0,117.0
111,99.48614593125,100.27318324375,68.0,102.0
112,100.22688693125,100.72997352708333,70.0,122.0
113,100.96762793125,101.27472680416666,72.0,127.0
114,101.33799843125,101.58645530833333,68.0,107.0
115,101.70836893124999,101.99231964791666,73.0,127.0
116,102.07873943125,102.35651730625,72.0,117.0
117,102.44910993124999,102.88583847916667,70.0,112.0
118,103.56022143125,103.81948078125,65.0,100.0
119,103.93059193124999,104.18522165,66.0,112.0
120,104.30096243125,104.62349340833333,68.0,122.0
121,105.04170343125,105.28090104583333,70.0,122.0
122,105.41207393124999,105.90127163333332,68.0,117.0
123,106.15281493124999,106.29941992083333,65.0,107.0
124,106.52318543125,106.67287684166666,63.0,100.0
125,106.89355593124999,107.33645732083333,61.0,93.0
126,107.63429693124999,107.95528469791667,58.0,102.0
127,108.00466743125,108.24695146666666,61.0,99.0
128,108.37503793124999,109.00621099166666,66.0,99.0
129,109.48614943125,109.56176674166666,68.0,122.0
130,109.85651993124999,110.34417442291667,65.0,112.0
131,110.22689043125,110.58954487916667,63.0,107.0
132,110.59726093124999,110.7130017125,61.0,117.0
133,111.33800193124999,111.65127364583333,63.0,107.0
134,111.70837243125,113.17287911666666,61.0,92.0
135,122.44911693124999,122.83183311458333,56.0,96.0
136,122.81948743125,123.22535177083333,58.0,82.0
137,123.18985793124999,124.13584591666667,61.0,100.0
138,124.30096943125,124.51547567916666,61.0,88.0
139,124.67133993124999,125.02627832708333,61.0,89.0
140,125.04171043125,125.24387099583333,61.0,97.0
141,125.41208093124999,125.66362422916666,63.0,97.0
142,125.78245143125,125.99387125833333,65.0,86.0
143,126.15282193124999,126.6759702625,63.0,100.0
144,126.89356293124999,127.8056002875,61.0,88.0
145,128.37504493125,128.58955117916665,61.0,96.0
146,128.74541543125,128.93985994375,63.0,97.0
147,129.11578593125,129.91516892708333,65.0,97.0
148,130.22689743125,130.44757652083334,63.0,107.0
149,130.59726793125,130.95683595833333,61.0,96.0
150,130.96763843124998,131.203749625,65.0,95.0
151,131.43060155625,131.60035470208334,68.0,96.0
152,131.70837943125,132.82412056249998,68.0,95.0
153,134.30097293125,134.42751618541666,65.0,96.0
154,134.67134343125,134.78554100208333,68.0,97.0
155,135.04171393125,135.70683762083334,68.0,99.0
156,136.15282543125,136.28862794791667,65.0,97.0
157,136.52319593125,137.00004794999998,65.0,90.0
158,137.26393693125,137.59881359166667,63.0,95.0
159,137.63430743125,137.93831988333332,61.0,81.0
160,138.00467793125,138.28399901666666,63.0,100.0
161,138.37504843125,138.574122575,65.0,93.0
162,138.74541893125,139.60653034375,58.0,86.0
163,140.22690093125,140.52628375208332,58.0,90.0
164,140.59727143125,140.82720978333333,61.0,93.0
165,140.96764193125,141.80406197708334,63.0,90.0
166,142.07875343125,142.21301273749998,65.0,97.0
167,142.44912393125,142.81795122083332,63.0,99.0
168,142.81949443125,143.00776610208334,61.0,82.0
169,143.56023543125,143.96301334999998,63.0,100.0
170,143.93060593125,145.48616203125,61.0,99.0
171,146.15282893124999,146.35498949583334,61.0,107.0
172,146.52319943125,146.75931062499998,61.0,100.0
173,146.89356993125,147.66980477083334,70.0,127.0
174,148.00468143125,148.314866725,61.0,127.0
175,148.37505193125,148.76085453541666,60.0,122.0
176,148.74542243125,149.04943488333333,61.0,127.0
177,149.11579293124998,149.38276833333333,70.0,122.0
178,149.48616343125,149.93215124166667,72.0,117.0
179,150.22690443125,151.13276894583333,68.0,122.0
180,152.07875693124998,152.3704237,66.0,112.0
181,152.44912743125,152.6944978875,65.0,102.0
182,152.81949793125,153.54326361666665,66.0,107.0
183,153.93060943125,154.16517741458333,66.0,107.0
184,154.30097993125,154.59881954166667,65.0,102.0
185,154.67135043125,154.91826409791665,69.0,127.0
186,155.41209143125,155.611165575,63.0,107.0
187,155.78246193125,156.18215342916665,63.0,112.0
188,156.15283243125,157.16517846458333,61.0,83.0
189,157.63431443125,157.84110462708333,61.0,102.0
190,158.00468493124998,158.26394428125,63.0,112.0
191,158.37505543125,158.60808020416667,65.0,117.0
192,158.74542593125,159.43678419791667,63.0,127.0
193,159.85653743125,160.02320415625,63.0,99.0
194,160.22690793125,160.46456233541667,63.0,102.0
195,160.59727843125,160.80715504791667,65.0,99.0
196,160.96764893124998,161.22227865,66.0,100.0
197,161.33801943125,161.59727878125,63.0,97.0
198,161.70838993125,162.02011843541666,65.0,102.0
199,162.07876043125,162.29943952083332,68.0,107.0
200,162.44913093124998,162.76548906666665,68.0,102.0
201,162.81950143125,163.06795830833332,65.0,107.0
202,163.18987193125,164.07104507916665,73.0,127.0
203,164.30098343125,164.47073657708333,73.0,127.0
204,164.48616868125,164.63740330208333,72.0,89.0
205,164.67135393125,165.21919362916665,70.0,99.0
206,165.78246543125,165.98925562708334,70.0,127.0
207,166.15283593125,166.40437922916666,70.0,122.0
208,166.52320643125,166.75468799375,72.0,107.0
209,166.89357693124998,167.14203380833334,70.0,112.0
210,167.26394743125,167.53092283333334,72.0,117.0
211,167.63431793125,168.42135524374999,68.0,102.0
212,168.37505893124998,168.87814552708332,70.0,122.0
213,169.11579993125,169.42289880416666,72.0,127.0
214,169.48617043125,169.73462730833333,68.0,107.0
215,169.85654093124998,170.14049164791666,73.0,127.0
216,170.22691143125,170.50468930625,72.0,117.0
217,170.59728193125,171.03401047916665,70.0,112.0
218,171.70839343125,171.96765278125,65.0,100.0
219,172.07876393125,172.33339365,66.0,112.0
220,172.44913443125,172.77166540833332,68.0,122.0
221,173.18987543125,173.42907304583332,70.0,122.0
222,173.56024593125,174.04944363333334,68.0,117.0
223,174.30098693124998,174.44759192083333,65.0,107.0
224,174.67135743125,174.82104884166665,63.0,100.0
225,175.04172793125,175.48462932083333,61.0,93.0
226,175.78246893124998,176.10345669791667,58.0,102.0
227,176.15283943125,176.39512346666666,61.0,99.0
228,176.52320993125,177.15438299166667,66.0,99.0
229,177.63432143125,177.70993874166666,68.0,89.0
230,178.00469193125,178.49234642291665,65.0,89.0
231,178.37506243125,178.73771687916667,63.0,89.0
232,180.1204334125,180.43370512708333,63.0,107.0
233,180.49080391249998,181.95531059791665,61.0,92.0
234,208.37507293125,208.57723349583333,61.0,107.0
235,208.74544343124998,208.981554625,61.0,100.0
236,209.11581393125,209.89204877083333,70.0,127.0
237,210.22692543124998,210.537110725,61.0,127.0
238,210.59729593125,210.98309853541664,60.0,122.0
239,210.96766643125,211.27167888333332,61.0,127.0
240,211.33803693125,211.60501233333332,70.0,122.0
241,211.70840743124998,212.15439524166666,72.0,117.0
242,212.44914843125,213.35501294583332,68.0,122.0
243,214.30100093125,214.5926677,66.0,112.0
244,214.67137143124998,214.9167418875,65.0,102.0
245,215.04174193125,215.76550761666667,66.0,107.0
246,216.15285343124998,216.38742141458332,66.0,107.0
247,216.52322393125,216.82106354166666,65.0,102.0
248,216.89359443125,217.14050809791667,69.0,127.0
249,217.63433543124998,217.833409575,63.0,107.0
250,218.00470593125,218.40439742916666,63.0,112.0
251,218.37507643125,219.38742246458332,61.0,83.0
252,219.85655843125,220.06334862708331,61.0,102.0
253,220.22692893125,220.48618828124998,63.0,112.0
254,220.59729943124998,220.83032420416666,65.0,117.0
255,220.96766993125,221.65902819791665,63.0,127.0
256,222.07878143124998,222.24544815624998,63.0,99.0
257,222.44915193125,222.68680633541666,63.0,102.0
258,222.81952243125,223.02939904791666,65.0,99.0
259,223.18989293125,223.44452264999998,66.0,100.0
260,223.56026343124998,223.81952278125,63.0,97.0
261,223.93063393125,224.24236243541665,65.0,102.0
262,224.30100443125,224.52168352083334,68.0,107.0
263,224.67137493125,224.98773306666666,68.0,102.0
264,225.04174543124998,225.29020230833333,65.0,107.0
265,225.41211593124999,226.29328907916667,73.0,127.0
266,226.52322743124998,226.69298057708332,73.0,127.0
267,226.70841268125,226.85964730208332,72.0,89.0
268,226.89359793124999,227.44143762916667,70.0,99.0
269,228.00470943124998,228.21149962708333,70.0,127.0
270,228.37507993124999,228.62662322916665,70.0,122.0
271,228.74545043125,228.97693199375,72.0,107.0
272,229.11582093125,229.36427780833333,70.0,112.0
273,229.48619143124998,229.75316683333332,72.0,117.0
274,229.85656193124998,230.64359924375,68.0,102.0
275,230.59730293125,231.10038952708334,70.0,122.0
276,231.33804393124998,231.64514280416665,72.0,127.0
277,231.70841443125,231.95687130833332,68.0,107.0
278,232.07878493125,232.36273564791665,73.0,127.0
279,232.44915543124998,232.72693330625,72.0,117.0
280,232.81952593124998,233.25625447916667,70.0,112.0
281,233.93063743124998,234.18989678124998,65.0,100.0
282,234.30100793124998,234.55563765,66.0,112.0
283,234.67137843125,234.99390940833334,68.0,122.0
284,235.41211943124998,235.6513170458333,70.0,122.0
285,235.78248993124998,236.27168763333333,68.0,117.0
286,236.52323093125,236.66983592083332,65.0,107.0
287,236.89360143124998,237.04329284166667,63.0,100.0
288,237.26397193124998,237.70687332083332,61.0,93.0
289,238.00471293125,238.32570069791666,58.0,102.0
290,238.37508343124998,238.61736746666665,61.0,99.0
291,238.74545393124998,239.37662699166665,66.0,99.0
292,239.85656543124998,239.93218274166665,68.0,122.0
293,240.22693593124998,240.71459042291664,65.0,112.0
294,240.59730643125,240.95996087916666,63.0,107.0
295,240.96767693125,241.0834177125,61.0,117.0
296,243.00471468125,243.84730756874998,63.0,112.0
297,244.30101143125,246.26706150208332,61.0,112.0
