,start,end,pitch,velocity
0,2.07870443125,3.9660507708333332,66.0,96.0
1,4.11574218125,5.649693335416666,65.0,93.0
2,5.59722418125,6.077162620833333,59.0,77.0
3,6.15277993125,7.3904346854166665,58.0,71.0
4,6.15277993125,7.8611138625,46.0,68.0
5,7.819447181249999,10.131176385416666,51.0,82.0
6,7.819447181249999,10.132719595833333,63.0,85.0
7,10.22685543125,13.049387283333333,68.0,77.0
8,13.00463418125,13.049387283333333,68.0,47.0
9,10.22685543125,13.055560125,56.0,75.0
10,13.00463418125,13.055560125,56.0,43.0
11,13.00463418125,15.188276920833333,80.0,48.0
12,15.226857181249999,19.449080881249998,68.0,75.0
13,15.226857181249999,19.462969774999998,80.0,78.0
14,15.412042431249999,19.6018587125,56.0,67.0
15,19.48611793125,20.609575114583333,37.0,78.0
16,19.85648843125,20.92593325,44.0,50.0
17,20.22685893125,20.929019670833334,49.0,57.0
18,20.22685893125,20.993834508333332,65.0,86.0
19,20.59722943125,21.091056764583332,61.0,64.0
20,20.96759993125,21.97068670208333,39.0,70.0
21,21.33797043125,21.993834858333333,46.0,52.0
22,21.70834093125,22.493835033333333,63.0,76.0
23,21.70834093125,22.537044925,58.0,69.0
24,22.44908193125,23.370378549999998,41.0,72.0
25,22.81945243125,23.5277860125,48.0,52.0
26,23.18982293125,23.969144191666665,56.0,65.0
27,23.18982293125,23.983033085416665,60.0,58.0
28,24.30093443125,24.88426796875,49.0,56.0
29,23.93056393125,25.026243327083332,42.0,66.0
30,24.67130493125,25.445996560416667,58.0,82.0
31,24.67130493125,25.455255822916666,61.0,77.0
32,25.04167543125,25.500008925,54.0,66.0
33,25.41204593125,26.351861075,37.0,86.0
34,25.78241643125,26.387354914583334,44.0,40.0
35,26.52315743125,26.941367454166667,56.0,59.0
36,26.15278693125,26.987663766666664,61.0,107.0
37,26.15278693125,27.01698476458333,65.0,93.0
38,27.26389843125,27.89352828125,53.0,79.0
39,26.89352793125,28.304022252083332,46.0,73.0
40,27.63426893125,28.425935875,61.0,90.0
41,28.00463943125,28.486121081249998,58.0,69.0
42,28.74538043125,30.5926033,51.0,69.0
43,28.37500993125,30.7407515,44.0,78.0
44,29.11575093125,31.337973931249998,56.0,69.0
45,29.486121431249998,31.337973931249998,60.0,56.0
46,29.856491931249998,31.337973931249998,63.0,66.0
47,32.07871493125,32.16359150416667,56.0,42.0
48,31.337973931249998,32.60649289375,37.0,78.0
49,32.44908543125,32.651245995833335,56.0,67.0
50,31.708344431249998,32.804023827083334,44.0,44.0
51,32.07871493125,33.17902395833333,61.0,79.0
52,33.56019693125,33.68674018541667,58.0,43.0
53,32.81945593125,34.138900837499996,39.0,65.0
54,33.56019693125,34.24538235625,63.0,88.0
55,33.93056743125,34.3981601875,58.0,69.0
56,34.67130843125,35.129641925,53.0,44.0
57,34.30093793125,35.21914812916666,41.0,69.0
58,35.41204943125,35.82100019166666,53.0,57.0
59,35.04167893125,35.83488908541666,56.0,66.0
60,35.04167893125,35.86575329375,60.0,69.0
61,35.59723468125,36.515444879166665,42.0,72.0
62,36.15279043125,36.641988133333335,49.0,56.0
63,36.52316093125,37.26081551041666,61.0,86.0
64,36.52316093125,37.27470440416666,58.0,86.0
65,36.89353143125,37.283963666666665,54.0,65.0
66,37.26390193125,38.67285304166666,49.0,68.0
67,37.63427243125,38.76081603541667,56.0,79.0
68,38.00464293125,38.99847043958333,65.0,86.0
69,38.37501343125,39.018532175,61.0,68.0
70,39.11575443125,39.709890441666666,53.0,69.0
71,38.74538393125,40.14661898958333,46.0,73.0
72,39.856495431249996,40.27161903333333,58.0,55.0
73,39.48612493125,40.36884128958333,65.0,76.0
74,39.48612493125,40.38581660416666,61.0,71.0
75,40.967606931249996,41.2592737,56.0,65.0
76,40.597236431249996,42.41976793333333,51.0,46.0
77,41.708347931249996,42.63273097083333,56.0,81.0
78,40.226865931249996,42.728410016666665,44.0,79.0
79,42.449088931249996,43.14662003958333,63.0,77.0
80,41.337977431249996,43.18674351041666,60.0,68.0
81,42.819459431249996,43.22223735,56.0,58.0
82,43.189829931249996,44.27007722291666,37.0,82.0
83,43.560200431249996,44.30402785208333,44.0,48.0
84,43.930570931249996,44.754645293749995,65.0,90.0
85,43.930570931249996,44.782423081249995,61.0,86.0
86,44.300941431249996,44.91050954583333,56.0,66.0
87,44.671311931249996,46.02162104583333,41.0,77.0
88,45.041682431249995,46.16205319375,48.0,53.0
89,45.782423431249995,46.202176664583334,53.0,78.0
90,45.412052931249995,46.21452234791666,60.0,81.0
91,46.523164431249995,47.816374760416664,49.0,62.0
92,46.893534931249995,48.2314983625,61.0,78.0
93,46.893534931249995,48.29014035833333,58.0,69.0
94,48.004646431249995,48.42131324375,49.0,42.0
95,47.263905431249995,48.432115716666665,54.0,68.0
96,46.152793931249995,48.4537206625,42.0,57.0
97,48.745387431249995,49.14662213958333,54.0,43.0
98,48.375016931249995,49.15588140208333,58.0,56.0
99,48.375016931249995,49.1759431375,61.0,76.0
100,49.856498931249995,50.844153597916666,63.0,81.0
101,49.856498931249995,50.953721537499995,66.0,79.0
102,50.967610431249994,51.41051182083333,63.0,64.0
103,50.597239931249995,51.472240237499996,51.0,44.0
104,49.115757931249995,51.506190866666664,39.0,69.0
105,49.486128431249995,51.521622970833334,46.0,45.0
106,50.226869431249995,52.066376247916665,58.0,75.0
107,51.708351431249994,52.10649971875,63.0,48.0
108,51.337980931249994,52.1389071375,66.0,82.0
109,52.81946293125,53.387364364583334,56.0,90.0
110,52.44909243125,53.81637686041667,51.0,48.0
111,53.93057443125,54.277796775,51.0,49.0
112,53.18983343125,54.3055745625,60.0,82.0
113,52.078721931249994,54.37501903125,44.0,62.0
114,53.56020393125,54.973784672916665,68.0,93.0
115,54.30094493125,55.02471061666667,63.0,88.0
116,54.67131543125,55.0833526125,60.0,77.0
117,55.78242693125,56.67440255208333,49.0,96.0
118,55.41205643125,57.37347687083333,44.0,58.0
119,55.04168593125,57.39662502708333,37.0,99.0
120,56.52316793125,57.4166867625,61.0,97.0
121,56.89353843125,57.94137830416666,49.0,79.0
122,56.15279743125,58.077180820833334,56.0,89.0
123,57.26390893125,58.098785766666666,60.0,93.0
124,57.63427943125,58.12193392291666,61.0,57.0
125,56.52316793125,58.138909237499995,65.0,97.0
126,59.11576143125,59.43057635625,61.0,34.0
127,58.74539093125,59.685206074999996,54.0,83.0
128,59.85650243125,60.243848245833334,54.0,76.0
129,60.22687293125,60.265453191666666,61.0,29.0
130,58.00464993125,60.529342172916664,42.0,75.0
131,58.37502043125,60.53088538333333,49.0,58.0
132,60.22687293125,61.05403371458333,66.0,69.0
133,60.59724343125,61.07255223958333,63.0,51.0
134,59.11576143125,61.09107076458333,58.0,85.0
135,59.48613193125,61.11421892083333,65.0,96.0
136,61.70835493125,62.606503393749996,49.0,102.0
137,62.07872543125,63.25156534791667,56.0,82.0
138,60.96761393125,63.49693580416666,37.0,81.0
139,61.33798443125,63.50465185625,44.0,50.0
140,62.81946643125,63.515454329166666,49.0,62.0
141,63.56020743125,64.018540925,56.0,63.0
142,62.44909593125,64.08335576249999,65.0,99.0
143,63.18983693125,64.09570144583333,61.0,99.0
144,64.67131893125,65.574097025,56.0,89.0
145,65.04168943124999,65.89508479166666,60.0,67.0
146,65.78243043124999,65.99385025833332,56.0,76.0
147,64.30094843124999,66.08181325208334,51.0,44.0
148,63.93057793125,66.13891203749999,44.0,71.0
149,65.96761568125,66.66360357916666,63.0,92.0
150,65.41205993125,66.74076409999999,68.0,99.0
151,66.33798618125,66.77780115,60.0,74.0
152,67.44909768125,67.75465334375,49.0,60.0
153,68.00465343124999,68.53397460416666,49.0,66.0
154,67.63428293125,68.91360436666666,65.0,82.0
155,67.63428293125,68.92132041875,61.0,82.0
156,67.63428293125,68.95064141666667,59.0,77.0
157,68.37502393125,69.07718467083333,56.0,85.0
158,69.11576493125,69.14817235,59.0,69.0
159,67.26391243124999,69.32872796875,44.0,52.0
160,66.89354193125,69.38119712291666,37.0,69.0
161,68.74539443124999,69.76545651666666,49.0,78.0
162,69.48613543124999,69.89508619166666,59.0,69.0
163,69.11576493125,69.95990102916666,61.0,95.0
164,69.11576493125,69.9722467125,65.0,86.0
165,70.59724693125,71.46453118541666,54.0,95.0
166,71.70835843124999,72.06638324791666,54.0,85.0
167,70.96761743124999,72.13119808541667,58.0,85.0
168,70.22687643124999,72.23304997291666,49.0,47.0
169,69.85650593125,72.30866728333334,42.0,72.0
170,72.07872893125,72.81638351041666,61.0,97.0
171,71.33798793125,72.86113661249999,66.0,112.0
172,72.44909943124999,73.02317370624999,58.0,82.0
173,72.81946993125,73.74693939166666,39.0,55.0
174,73.18984043124999,73.82564312291666,46.0,52.0
175,73.56021093125,74.22687783125,51.0,79.0
176,73.56021093125,74.277803775,63.0,89.0
177,73.93058143124999,74.388914925,58.0,76.0
178,74.67132243124999,75.15897692291666,51.0,88.0
179,74.30095193125,75.23459423333333,44.0,73.0
180,75.04169293125,75.76700182708333,63.0,107.0
181,75.41206343124999,75.76854503749999,60.0,90.0
182,75.78243393125,76.89354543124999,37.0,95.0
183,76.89354543124999,77.26391593125,37.0,100.0
184,76.52317493125,77.45218760208333,49.0,93.0
185,77.26391593125,77.63428643124999,37.0,100.0
186,77.26391593125,77.870397625,65.0,96.0
187,77.26391593125,77.88274330833333,61.0,90.0
188,76.89354543124999,77.90126183333334,56.0,74.0
189,77.63428643124999,78.00465693125,37.0,100.0
190,77.63428643124999,78.20064465416667,49.0,69.0
191,78.00465693125,78.37502743124999,37.0,100.0
192,76.15280443124999,78.57101515416666,44.0,62.0
193,78.37502743124999,78.74539793125,37.0,100.0
194,78.00465693125,78.74539793125,56.0,83.0
195,78.00465693125,78.74539793125,61.0,93.0
196,78.00465693125,78.74539793125,65.0,89.0
197,78.74539793125,79.67132418125,42.0,88.0
198,79.48613893125,79.77008964791666,61.0,69.0
199,79.48613893125,79.91206500625,54.0,96.0
200,79.48613893125,79.96299094999999,70.0,102.0
201,79.48613893125,79.97379342291666,66.0,97.0
202,79.11576843124999,80.2222503,49.0,77.0
203,79.85650943125,80.22687993125,42.0,84.0
204,80.22687993125,80.86731225416666,44.0,89.0
205,80.59725043125,81.08644813333333,51.0,83.0
206,80.96762093125,81.61113967499999,42.0,93.0
207,81.70836193125,82.69910301875,41.0,97.0
208,82.07873243125,82.7129919125,48.0,60.0
209,82.44910293125,82.98305373541666,53.0,95.0
210,82.44910293125,83.13583156666667,68.0,99.0
211,82.44910293125,83.1389179875,65.0,100.0
212,82.81947343125,83.30404150208334,60.0,95.0
213,83.56021443125,83.98459729583332,53.0,96.0
214,83.18984393125,84.03552323958333,46.0,102.0
215,83.93058493125,84.34416532291667,61.0,100.0
216,83.93058493125,84.56021478125,65.0,99.0
217,84.30095543125,84.61731356666667,58.0,102.0
218,85.41206693125,85.83644979583333,51.0,82.0
219,84.67132593125,86.03861036041667,39.0,92.0
220,85.41206693125,86.12811656458332,66.0,100.0
221,85.04169643125,86.13428940624999,46.0,51.0
222,85.78243743125,86.14509187916666,58.0,90.0
223,85.41206693125,86.14509187916666,63.0,107.0
224,86.52317843125,87.04169713124999,48.0,83.0
225,86.89354893125,87.166697175,53.0,95.0
226,86.15280793125,87.21453669791666,41.0,89.0
227,87.26391943125,87.54478372708333,53.0,86.0
228,86.89354893125,87.56947509375,57.0,99.0
229,86.89354893125,87.56947509375,60.0,92.0
230,86.89354893125,87.6296603,63.0,89.0
231,88.00466043125,88.49231492291666,53.0,100.0
232,88.37503093125,88.57410507499999,58.0,89.0
233,87.63428993125,89.06947561874999,46.0,99.0
234,88.74540143125,89.10805587916666,53.0,88.0
235,88.37503093125,89.166697875,61.0,102.0
236,88.37503093125,89.1944756625,65.0,97.0
237,89.11577193125,89.31947570625,58.0,107.0
238,89.67132768124999,89.83953761666666,58.0,100.0
239,89.67132768124999,89.9259574,65.0,78.0
240,89.48614243125,90.09571054583333,53.0,92.0
241,89.11577193125,90.12503154375,46.0,93.0
242,90.04169818125,90.15280933125,58.0,100.0
243,89.85651293125,90.25157479791666,70.0,102.0
244,89.85651293125,90.49540204374999,73.0,100.0
245,90.41206868124999,90.57256256458334,70.0,96.0
246,90.22688343125,90.61731566666667,65.0,112.0
247,90.96762443125,91.70219258958333,46.0,50.0
248,90.59725393125,91.71453827291667,39.0,90.0
249,91.33799493125,91.91052599583332,51.0,86.0
250,91.33799493125,91.97842725416666,70.0,96.0
251,91.33799493125,92.03861246041666,66.0,93.0
252,91.70836543125,92.07873593125,63.0,96.0
253,92.07873593125,92.70064972916666,44.0,93.0
254,92.44910643125,92.70373615,51.0,88.0
255,92.81947693125,93.49694630416666,42.0,102.0
256,93.18984743125,93.50157593541667,66.0,117.0
257,94.30095893125,94.35497129583332,60.0,81.0
258,93.56021793125,94.68213190416667,41.0,75.0
259,93.93058843125,94.70528006041667,48.0,73.0
260,94.30095893125,95.03244066875,53.0,79.0
261,94.30095893125,95.13274934583333,68.0,96.0
262,94.30095893125,95.13737897708333,65.0,97.0
263,94.67132943125,95.1759592375,60.0,97.0
264,95.41207043125,95.79941624583333,53.0,97.0
265,95.78244093125,95.79941624583333,53.0,112.0
266,95.04169993125,96.26546579166666,46.0,78.0
267,95.78244093125,96.54324366666667,65.0,100.0
268,95.78244093125,96.57256466458333,61.0,112.0
269,97.26392293125,97.3981822375,58.0,92.0
270,96.52318193125,97.63429343125,39.0,99.0
271,97.26392293125,97.70836753124999,67.0,92.0
272,97.26392293125,97.70991074166666,63.0,92.0
273,97.63429343125,97.81947868124999,39.0,100.0
274,97.63429343125,98.03552813958333,51.0,85.0
275,96.89355243125,98.05250345416667,46.0,77.0
276,98.00466393125,98.76238024583333,67.0,102.0
277,98.74540493125,98.76238024583333,67.0,86.0
278,98.00466393125,98.76546666666667,63.0,95.0
279,98.74540493125,98.76546666666667,63.0,86.0
280,98.00466393125,98.77163950833332,58.0,100.0
281,98.00466393125,98.96762723124999,39.0,86.0
282,98.37503443125,99.02009638541666,46.0,71.0
283,98.74540493125,99.14355321875,51.0,86.0
284,99.11577543125,99.49694840416666,58.0,97.0
285,100.22688693125,100.43059070625,60.0,99.0
286,99.85651643125,100.45836849375,51.0,78.0
287,100.22688693125,100.49849196458332,56.0,95.0
288,100.22688693125,100.82873899375,63.0,107.0
289,100.59725743125,100.83491183541666,51.0,77.0
290,99.48614593125,100.86423283333333,44.0,96.0
291,100.78244268124999,100.91361556666666,56.0,93.0
292,100.96762793125,101.48460342083332,56.0,93.0
293,100.96762793125,101.49694910416666,60.0,97.0
294,100.96762793125,101.50620836666667,63.0,100.0
295,100.96762793125,101.70836893124999,44.0,97.0
296,101.70836893124999,102.00775175208332,56.0,102.0
297,101.70836893124999,102.04941843333333,60.0,97.0
298,101.70836893124999,102.04941843333333,63.0,96.0
299,101.70836893124999,102.44910993124999,44.0,100.0
300,102.07873943125,102.66515938958332,51.0,68.0
301,102.81948043125,103.40127075833333,53.0,93.0
302,102.44910993124999,103.425962125,46.0,81.0
303,103.18985093124999,103.7315177875,58.0,97.0
304,103.18985093124999,104.17750559791666,65.0,92.0
305,103.18985093124999,104.17904880833333,61.0,93.0
306,104.67133293124999,104.98460464583333,54.0,83.0
307,104.67133293124999,105.092629375,58.0,93.0
308,103.93059193124999,105.26546894166667,42.0,88.0
309,104.30096243125,105.27935783541666,49.0,78.0
310,104.67133293124999,105.39201219583333,61.0,97.0
311,106.15281493124999,106.51392616874999,53.0,95.0
312,105.78244443125,106.81948183125,48.0,74.0
313,105.41207393124999,106.84417319791666,41.0,89.0
314,106.15281493124999,106.88583987916667,56.0,89.0
315,106.15281493124999,106.90435840416666,60.0,86.0
316,107.63429693124999,107.7870747625,61.0,75.0
317,106.89355593124999,107.79170439375,46.0,68.0
318,107.26392643125,107.85651923124999,53.0,66.0
319,107.63429693124999,107.88892665,58.0,73.0
320,108.00466743125,108.33028482916666,53.0,64.0
321,107.63429693124999,108.36886508958332,65.0,90.0
322,108.37503793124999,109.26238392083333,39.0,71.0
323,108.74540843125,109.26238392083333,46.0,57.0
324,109.11577893124999,109.48923585208333,58.0,64.0
325,109.11577893124999,109.82874214374999,51.0,78.0
326,109.48614943125,109.84417424791665,63.0,74.0
327,109.11577893124999,109.86269277291666,66.0,85.0
328,109.85651993124999,110.94294006458333,44.0,83.0
329,110.59726093124999,111.3333723,60.0,66.0
330,110.59726093124999,111.33645872083333,63.0,69.0
331,112.07874293124999,113.4352248875,65.0,67.0
332,112.07874293124999,113.52318788125,61.0,72.0
333,112.44911343125,113.89664480208333,49.0,65.0
334,111.33800193124999,114.15590415208332,37.0,75.0
335,111.70837243125,114.18676836041666,44.0,40.0
336,113.93059543125,114.19911404375,56.0,45.0
337,113.56022493124999,114.203743675,65.0,78.0
338,114.30096593124999,115.25158354791667,61.0,83.0
339,114.30096593124999,115.26084281041666,60.0,79.0
340,114.30096593124999,115.26547244166666,65.0,79.0
341,114.30096593124999,115.27010207291666,56.0,67.0
342,115.41207743125,117.09571999583333,56.0,63.0
343,114.30096593124999,117.10497925833333,37.0,64.0
344,115.41207743125,117.10960888958333,60.0,70.0
345,115.41207743125,117.11886815208332,61.0,65.0
346,115.41207743125,117.12658420416666,65.0,68.0
347,114.67133643125,117.25930029999999,44.0,35.0
348,115.04170693124999,117.27164598333333,49.0,49.0
349,117.26392993124999,118.03399192916666,56.0,61.0
350,117.26392993124999,118.17133765624999,60.0,56.0
351,117.26392993124999,118.20991791666667,65.0,63.0
352,117.26392993124999,118.21146112708333,61.0,63.0
353,118.00467093124999,118.8981897625,49.0,68.0
354,118.37504143125,119.36732572916667,56.0,79.0
355,118.37504143125,119.68985670625,60.0,75.0
356,119.67133818125,119.68985670625,60.0,43.0
357,119.48615293124999,120.66825211041666,56.0,61.0
358,120.59726443125,120.66825211041666,56.0,89.0
359,120.59726443125,120.67905458333333,58.0,89.0
360,120.59726443125,120.685227425,53.0,83.0
361,118.37504143125,120.68677063541666,61.0,72.0
362,120.59726443125,120.68677063541666,61.0,89.0
363,117.63430043125,120.72072126458333,44.0,37.0
364,120.59726443125,120.72072126458333,44.0,83.0
365,119.11578243125,120.72380768541666,49.0,35.0
366,118.37504143125,120.84572130833332,65.0,71.0
367,117.26392993124999,120.85498057083333,37.0,75.0
368,120.96763493124999,123.00467268125,53.0,88.0
369,120.96763493124999,123.02473441666666,56.0,85.0
370,120.96763493124999,123.0370801,58.0,93.0
371,120.96763493124999,123.04016652083332,44.0,92.0
372,120.96763493124999,123.04633936249999,61.0,95.0
373,123.93059893124999,124.82257455208332,49.0,96.0
374,123.56022843125,125.52164887083333,44.0,58.0
375,123.18985793124999,125.54479702708333,37.0,99.0
376,124.67133993124999,125.5648587625,61.0,97.0
377,125.04171043125,126.08955030416666,49.0,79.0
378,124.30096943125,126.22535282083332,56.0,89.0
379,125.41208093124999,126.24695776666667,60.0,93.0
380,125.78245143125,126.27010592291666,61.0,57.0
381,124.67133993124999,126.28708123749999,65.0,97.0
382,127.26393343125,127.57874835624999,61.0,34.0
383,126.89356293124999,127.833378075,54.0,83.0
384,128.00467443124998,128.39202024583332,54.0,76.0
385,128.37504493125,128.41362519166665,61.0,29.0
386,126.15282193124999,128.67751417291666,42.0,75.0
387,126.52319243125,128.67905738333332,49.0,58.0
388,128.37504493125,129.20220571458333,66.0,69.0
389,128.74541543125,129.22072423958332,63.0,51.0
390,127.26393343125,129.23924276458334,58.0,85.0
391,127.63430393124999,129.26239092083333,65.0,96.0
392,129.85652693125,130.75467539375,49.0,102.0
393,130.22689743125,131.39973734791667,56.0,82.0
394,129.11578593125,131.64510780416666,37.0,81.0
395,129.48615643124998,131.65282385625,44.0,50.0
396,130.96763843124998,131.66362632916668,49.0,62.0
397,131.70837943125,132.16671292499998,56.0,63.0
398,130.59726793125,132.2315277625,65.0,99.0
399,131.33800893125,132.24387344583332,61.0,99.0
400,132.81949093125,133.722269025,56.0,89.0
401,133.18986143125,134.04325679166666,60.0,67.0
402,133.93060243125,134.14202225833333,56.0,76.0
403,132.44912043124998,134.22998525208334,51.0,44.0
404,132.07874993125,134.2870840375,44.0,71.0
405,134.11578768125,134.81177557916666,63.0,92.0
406,133.56023193125,134.8889361,68.0,99.0
407,134.48615818125,134.92597315,60.0,74.0
408,135.59726968125,135.90282534374998,49.0,60.0
409,136.15282543125,136.68214660416666,49.0,66.0
410,135.78245493125,137.06177636666666,65.0,82.0
411,135.78245493125,137.06949241875,61.0,82.0
412,135.78245493125,137.09881341666667,59.0,77.0
413,136.52319593125,137.22535667083332,56.0,85.0
414,137.26393693125,137.29634435,59.0,69.0
415,135.41208443125,137.47689996875,44.0,52.0
416,135.04171393125,137.52936912291665,37.0,69.0
417,136.89356643125,137.91362851666665,49.0,78.0
418,137.63430743125,138.04325819166667,59.0,69.0
419,137.26393693125,138.10807302916666,61.0,95.0
420,137.26393693125,138.1204187125,65.0,86.0
421,138.74541893125,139.61270318541665,54.0,95.0
422,139.85653043125,140.21455524791665,54.0,85.0
423,139.11578943125,140.27937008541667,58.0,85.0
424,138.37504843125,140.38122197291665,49.0,47.0
425,138.00467793125,140.45683928333332,42.0,72.0
426,140.22690093125,140.96455551041666,61.0,97.0
427,139.48615993125,141.0093086125,66.0,112.0
428,140.59727143125,141.17134570624998,58.0,82.0
429,140.96764193125,141.89511139166666,39.0,55.0
430,141.33801243125,141.97381512291665,46.0,52.0
431,141.70838293125,142.37504983124998,51.0,79.0
432,141.70838293125,142.42597577499998,63.0,89.0
433,142.07875343125,142.53708692499998,58.0,76.0
434,142.81949443125,143.30714892291667,51.0,88.0
435,142.44912393125,143.3827662333333,44.0,73.0
436,143.18986493124999,143.91517382708332,63.0,107.0
437,143.56023543125,143.9167170375,60.0,90.0
438,143.93060593125,145.04171743125,37.0,95.0
439,145.04171743125,145.41208793125,37.0,100.0
440,144.67134693124999,145.60035960208333,49.0,93.0
441,145.41208793125,145.78245843125,37.0,100.0
442,145.41208793125,146.018569625,65.0,96.0
443,145.41208793125,146.03091530833333,61.0,90.0
444,145.04171743125,146.04943383333332,56.0,74.0
445,145.78245843125,146.15282893124999,37.0,100.0
446,145.78245843125,146.34881665416665,49.0,69.0
447,146.15282893124999,146.52319943125,37.0,100.0
448,144.30097643125,146.71918715416666,44.0,62.0
449,146.52319943125,146.89356993125,37.0,100.0
450,146.15282893124999,146.89356993125,56.0,83.0
451,146.15282893124999,146.89356993125,61.0,93.0
452,146.15282893124999,146.89356993125,65.0,89.0
453,146.89356993125,147.81949618125,42.0,88.0
454,147.63431093124998,147.91826164791667,61.0,69.0
455,147.63431093124998,148.06023700625,54.0,96.0
456,147.63431093124998,148.11116295,70.0,102.0
457,147.63431093124998,148.12196542291667,66.0,97.0
458,147.26394043125,148.3704223,49.0,77.0
459,148.00468143125,148.37505193125,42.0,84.0
460,148.37505193125,149.01548425416667,44.0,89.0
461,148.74542243125,149.23462013333332,51.0,83.0
462,149.11579293124998,149.759311675,42.0,93.0
463,149.85653393125,150.84727501875,41.0,97.0
464,150.22690443125,150.8611639125,48.0,60.0
465,150.59727493124998,151.13122573541665,53.0,95.0
466,150.59727493124998,151.28400356666666,68.0,99.0
467,150.59727493124998,151.2870899875,65.0,100.0
468,150.96764543125,151.45221350208334,60.0,95.0
469,151.70838643125,152.13276929583333,53.0,96.0
470,151.33801593125,152.18369523958333,46.0,102.0
471,152.07875693124998,152.49233732291665,61.0,100.0
472,152.07875693124998,152.70838678125,65.0,99.0
473,152.44912743125,152.76548556666665,58.0,102.0
474,153.56023893124998,153.98462179583333,51.0,82.0
475,152.81949793125,154.18678236041666,39.0,92.0
476,153.56023893124998,154.27628856458333,66.0,100.0
477,153.18986843125,154.28246140625,46.0,51.0
478,153.93060943125,154.29326387916666,58.0,90.0
479,153.56023893124998,154.29326387916666,63.0,107.0
480,154.67135043125,155.18986913125,48.0,83.0
481,155.04172093124998,155.31486917499998,53.0,95.0
482,154.30097993125,155.36270869791667,41.0,89.0
483,155.41209143125,155.69295572708333,53.0,86.0
484,155.04172093124998,155.71764709375,57.0,99.0
485,155.04172093124998,155.71764709375,60.0,92.0
486,155.04172093124998,155.7778323,63.0,89.0
487,156.15283243125,156.64048692291666,53.0,100.0
488,156.52320293124998,156.722277075,58.0,89.0
489,155.78246193125,157.21764761875,46.0,99.0
490,156.89357343125,157.25622787916666,53.0,88.0
491,156.52320293124998,157.314869875,61.0,102.0
492,156.52320293124998,157.34264766249999,65.0,97.0
493,157.26394393125,157.46764770625,58.0,107.0
494,157.81949968125,157.98770961666665,58.0,100.0
495,157.81949968125,158.0741294,65.0,78.0
496,157.63431443125,158.24388254583332,53.0,92.0
497,157.26394393125,158.27320354375,46.0,93.0
498,158.18987018125,158.30098133125,58.0,100.0
499,158.00468493124998,158.39974679791666,70.0,102.0
500,158.00468493124998,158.64357404375,73.0,100.0
501,158.56024068124998,158.72073456458332,70.0,96.0
502,158.37505543125,158.76548766666667,65.0,112.0
503,159.11579643125,159.85036458958334,46.0,50.0
504,158.74542593125,159.86271027291667,39.0,90.0
505,159.48616693124998,160.0586979958333,51.0,86.0
506,159.48616693124998,160.12659925416665,70.0,96.0
507,159.48616693124998,160.18678446041665,66.0,93.0
508,159.85653743125,160.22690793125,63.0,96.0
509,160.22690793125,160.84882172916667,44.0,93.0
510,160.59727843125,160.85190814999999,51.0,88.0
511,160.96764893124998,161.64511830416666,42.0,102.0
512,161.33801943125,161.64974793541666,66.0,117.0
513,162.44913093124998,162.50314329583333,60.0,81.0
514,161.70838993125,162.83030390416667,41.0,75.0
515,162.07876043125,162.85345206041666,48.0,73.0
516,162.44913093124998,163.18061266875,53.0,79.0
517,162.44913093124998,163.28092134583332,68.0,96.0
518,162.44913093124998,163.28555097708332,65.0,97.0
519,162.81950143125,163.32413123749998,60.0,97.0
520,163.56024243125,163.94758824583332,53.0,97.0
521,163.93061293124998,163.94758824583332,53.0,112.0
522,163.18987193125,164.41363779166667,46.0,78.0
523,163.93061293124998,164.69141566666667,65.0,100.0
524,163.93061293124998,164.7207366645833,61.0,112.0
525,165.41209493124998,165.5463542375,58.0,92.0
526,164.67135393125,165.78246543125,39.0,99.0
527,165.41209493124998,165.85653953124998,67.0,92.0
528,165.41209493124998,165.85808274166666,63.0,92.0
529,165.78246543125,165.96765068125,39.0,100.0
530,165.78246543125,166.18370013958332,51.0,85.0
531,165.04172443125,166.20067545416666,46.0,77.0
532,166.15283593125,166.91055224583332,67.0,102.0
533,166.89357693124998,166.91055224583332,67.0,86.0
534,166.15283593125,166.91363866666666,63.0,95.0
535,166.89357693124998,166.91363866666666,63.0,86.0
536,166.15283593125,166.91981150833334,58.0,100.0
537,166.15283593125,167.11579923124998,39.0,86.0
538,166.52320643125,167.16826838541667,46.0,71.0
539,166.89357693124998,167.29172521875,51.0,86.0
540,167.26394743125,167.64512040416665,58.0,97.0
541,168.37505893124998,168.57876270625,60.0,99.0
542,168.00468843125,168.60654049375,51.0,78.0
543,168.37505893124998,168.64666396458333,56.0,95.0
544,168.37505893124998,168.97691099374998,63.0,107.0
545,168.74542943125,168.98308383541666,51.0,77.0
546,167.63431793125,169.01240483333333,44.0,96.0
547,168.93061468125,169.06178756666665,56.0,93.0
548,169.11579993125,169.63277542083333,56.0,93.0
549,169.11579993125,169.64512110416666,60.0,97.0
550,169.11579993125,169.65438036666666,63.0,100.0
551,169.11579993125,169.85654093124998,44.0,97.0
552,169.85654093124998,170.15592375208334,56.0,102.0
553,169.85654093124998,170.19759043333332,60.0,97.0
554,169.85654093124998,170.19759043333332,63.0,96.0
555,169.85654093124998,170.59728193125,44.0,100.0
556,170.22691143125,170.81333138958334,51.0,68.0
557,170.96765243125,171.54944275833333,53.0,93.0
558,170.59728193125,171.574134125,46.0,81.0
559,171.33802293124998,171.87968978749998,58.0,97.0
560,171.33802293124998,172.32567759791667,65.0,92.0
561,171.33802293124998,172.32722080833332,61.0,93.0
562,172.81950493124998,173.13277664583333,54.0,83.0
563,172.81950493124998,173.240801375,58.0,93.0
564,172.07876393125,173.41364094166667,42.0,88.0
565,172.44913443125,173.42752983541666,49.0,78.0
566,172.81950493124998,173.54018419583332,61.0,97.0
567,174.30098693124998,174.66209816875,53.0,95.0
568,173.93061643125,174.96765383125,48.0,74.0
569,173.56024593125,174.99234519791665,41.0,89.0
570,174.30098693124998,175.03401187916666,56.0,89.0
571,174.30098693124998,175.05253040416665,60.0,86.0
572,175.78246893124998,175.9352467625,61.0,75.0
573,175.04172793125,175.93987639374998,46.0,68.0
574,175.41209843125,176.00469123124998,53.0,66.0
575,175.78246893124998,176.03709865,58.0,73.0
576,176.15283943125,176.47845682916665,53.0,64.0
577,175.78246893124998,176.51703708958334,65.0,90.0
578,176.52320993125,177.41055592083333,39.0,71.0
579,176.89358043125,177.59574117083332,46.0,57.0
580,177.26395093124998,177.63740785208333,58.0,64.0
581,177.26395093124998,177.97691414374998,51.0,78.0
582,177.63432143125,177.99234624791666,63.0,74.0
583,177.26395093124998,178.01086477291665,66.0,85.0
584,178.00469193125,179.0911120645833,44.0,83.0
585,178.74543293124998,179.4815443,60.0,66.0
586,178.74543293124998,179.48463072083334,63.0,69.0
587,180.22691493124998,181.19296465208333,49.0,89.0
588,180.59728543125,181.40438447916665,56.0,74.0
589,179.48617393125,181.79481671458333,37.0,74.0
590,179.85654443125,181.79790313541665,44.0,44.0
591,181.33802643125,182.25777983958332,49.0,66.0
592,182.07876743125,182.44913793125,56.0,71.0
593,181.70839693124998,182.44913793125,61.0,90.0
594,180.96765593125,182.44913793125,65.0,96.0
595,182.44913793125,183.44450865,37.0,93.0
596,183.18987893124998,183.45222470208333,56.0,79.0
597,183.18987893124998,183.5911136395833,49.0,85.0
598,182.81950843125,183.62815068958332,44.0,88.0
599,183.56024943124999,183.88895325,61.0,86.0
600,183.18987893124998,183.93833598333333,65.0,97.0
601,184.30099043125,184.94759559583332,49.0,65.0
602,184.67136093124998,184.981546225,61.0,89.0
603,184.67136093124998,185.02166969583334,54.0,90.0
604,183.93061993125,185.04173143124999,42.0,63.0
605,185.04173143124999,185.37506488124998,66.0,89.0
606,184.67136093124998,185.40284266875,70.0,100.0
607,186.15284293124998,186.36426275833333,56.0,100.0
608,186.15284293124998,186.57722579583333,53.0,79.0
609,185.41210193125,186.59883074166666,41.0,79.0
610,186.52321343124999,186.80716414791667,60.0,85.0
611,185.78247243125,186.8241394625,48.0,77.0
612,186.15284293124998,186.92444813958332,65.0,99.0
613,187.63432493125,187.90901638541666,58.0,99.0
614,186.89358393125,187.99543616875,42.0,73.0
615,187.63432493125,188.05716458541667,54.0,99.0
616,187.26395443125,188.10809052916665,49.0,86.0
617,187.63432493125,188.35500419583332,66.0,102.0
618,188.00469543124998,188.35809061666666,61.0,92.0
619,189.11580693125,189.36272059791665,56.0,90.0
620,188.37506593125,189.40130085833331,37.0,73.0
621,188.74543643125,189.5278441125,44.0,82.0
622,189.48617743124998,189.85500472083334,61.0,97.0
623,189.11580693125,189.88586892916666,49.0,96.0
624,189.11580693125,189.89049856041666,65.0,117.0
625,189.85654793125,190.722288975,46.0,81.0
626,190.59728893125,190.7763013395833,61.0,97.0
627,190.59728893125,190.79790628541667,58.0,100.0
628,190.22691843125,190.8241408625,53.0,76.0
629,190.59728893125,191.22383236041665,65.0,100.0
630,190.96765943124998,191.23926446458333,58.0,89.0
631,192.07877093125,192.35654880625,60.0,90.0
632,192.07877093125,192.4908081125,53.0,86.0
633,191.33802993125,192.72383288541667,41.0,68.0
634,191.70840043125,193.00932681249998,48.0,82.0
635,192.07877093125,193.30099358125,68.0,107.0
636,192.44914143124998,193.35037631458331,65.0,88.0
637,193.56025293125,193.85963575208334,60.0,90.0
638,192.81951193125,193.88895675,41.0,69.0
639,193.56025293125,193.96457406041665,53.0,92.0
640,193.18988243125,194.02938889791665,48.0,72.0
641,193.93062343124998,194.21457414791666,65.0,107.0
642,193.56025293125,194.21766056875,68.0,112.0
643,195.04173493125,195.30716712291667,49.0,90.0
644,194.67136443125,195.46148816458333,44.0,76.0
645,194.30099393125,195.68834009583333,37.0,82.0
646,195.04173493125,195.86426608333332,65.0,79.0
647,195.04173493125,196.21148842708334,56.0,95.0
648,195.41210543124998,196.38432799375,61.0,90.0
649,195.78247593125,196.81025406875,37.0,78.0
650,196.52321693125,196.97074795208331,49.0,99.0
651,196.15284643125,197.00006894999999,44.0,83.0
652,196.52321693125,197.27784682499998,65.0,97.0
653,196.89358743124998,197.27939003541667,61.0,85.0
654,196.52321693125,197.3040814020833,56.0,82.0
655,197.63432843125,198.09729155624998,49.0,82.0
656,198.00469893125,198.37198301041667,61.0,77.0
657,197.26395793125,198.64976088541667,42.0,65.0
658,198.00469893125,199.26704505208332,70.0,107.0
659,198.37506943124998,199.29173641875,66.0,81.0
660,198.74543993125,199.56951429375,42.0,65.0
661,199.48618093125,199.71766249375,54.0,97.0
662,199.11581043125,199.75006991249998,49.0,89.0
663,199.48618093125,199.77013164791666,61.0,90.0
664,199.48618093125,200.21457624791665,70.0,99.0
665,199.85655143124998,200.25161329791666,61.0,89.0
666,200.22692193125,201.14050249791666,39.0,69.0
667,200.96766293125,201.2130333875,58.0,89.0
668,200.59729243125,201.32105811666665,46.0,71.0
669,200.96766293125,201.50624336666667,51.0,81.0
670,201.33803343124998,201.61735451666667,58.0,95.0
671,200.96766293125,201.71920640416667,66.0,85.0
672,202.07877443125,202.66365117916666,51.0,66.0
673,202.44914493125,202.74852775208333,60.0,85.0
674,201.70840393125,202.79945369583334,44.0,66.0
675,202.44914493125,202.89358953125,56.0,90.0
676,202.44914493125,203.08494762291664,68.0,107.0
677,202.81951543124998,203.10963898958332,63.0,97.0
678,203.93062693125,204.33186163958334,56.0,74.0
679,203.93062693125,204.40593573958333,49.0,92.0
680,203.18988593125,204.58649135833332,37.0,82.0
681,203.56025643125,204.90902233541667,44.0,85.0
682,203.93062693125,205.22692368124999,65.0,112.0
683,204.30099743124998,205.32260272708334,61.0,93.0
684,205.41210893125,205.70994854166665,56.0,74.0
685,204.67136793125,205.72846706666667,37.0,66.0
686,205.41210893125,205.81180042916665,49.0,85.0
687,205.04328164166665,205.91210910625,44.0,59.0
688,205.41210893125,205.97846715416665,65.0,99.0
689,205.78247943124998,206.33186233958332,61.0,95.0
690,205.96766468125,206.37198581041665,56.0,85.0
691,206.15284993125,206.7901958333333,44.0,95.0
692,206.52322043125,206.79945509583334,65.0,95.0
693,206.52322043125,206.81951683124998,61.0,99.0
694,206.52322043125,206.82106004166667,59.0,117.0
695,206.52322043125,206.82877609374998,56.0,90.0
696,206.89359093125,207.16982559583332,65.0,89.0
697,206.89359093125,207.17136880625,56.0,92.0
698,206.89359093125,207.18834412083334,61.0,93.0
699,206.89359093125,207.19297375208333,59.0,112.0
700,206.89359093125,207.20377622499998,44.0,89.0
701,207.26396143124998,207.52013436041665,65.0,92.0
702,207.26396143124998,207.52939362291667,44.0,88.0
703,207.26396143124998,207.53093683333333,56.0,92.0
704,207.26396143124998,207.53710967499998,59.0,112.0
705,207.26396143124998,207.53710967499998,61.0,97.0
706,207.63433193125,207.8797023875,65.0,99.0
707,207.63433193125,207.89513449166665,61.0,102.0
708,207.63433193125,207.8982209125,59.0,112.0
709,207.63433193125,207.90593696458333,56.0,88.0
710,208.00470243125,208.27322104375,65.0,99.0
711,207.63433193125,208.28248030625,44.0,92.0
712,208.00470243125,208.28402351666665,59.0,127.0
713,208.00470243125,208.28556672708334,61.0,112.0
714,208.37507293125,208.64204833333332,65.0,97.0
715,208.37507293125,208.6605668583333,61.0,100.0
716,208.37507293125,208.66211006875,59.0,122.0
717,208.74544343124998,208.96457931041667,59.0,117.0
718,208.37507293125,208.96766573124998,44.0,93.0
719,208.74544343124998,208.98001141458332,56.0,92.0
720,208.74544343124998,208.99390030833334,65.0,97.0
721,208.74544343124998,208.99698672916665,61.0,107.0
722,209.48618443125,209.91211050625,54.0,96.0
723,209.67136968124998,209.95532039791667,61.0,69.0
724,210.04174018125,210.23464148333332,54.0,76.0
725,209.85655493125,210.33340694999998,70.0,102.0
726,209.85655493125,210.34420942291666,66.0,97.0
727,209.11581393125,210.45995020416666,42.0,88.0
728,209.30099918124998,210.5926663,49.0,77.0
729,210.41211068125,210.67291324166666,70.0,86.0
730,210.22692543124998,210.67445645208332,61.0,97.0
731,210.41211068125,211.05562942499998,66.0,90.0
732,210.96766643125,211.1837158895833,56.0,97.0
733,210.59729593125,211.23772825416665,44.0,89.0
734,210.78248118124998,211.27167888333332,51.0,100.0
735,211.15285168124998,211.32569124791667,72.0,92.0
736,211.15285168124998,211.36735792916664,63.0,70.0
737,211.15285168124998,211.3982221375,68.0,95.0
738,211.52322218125,211.81334573958333,61.0,96.0
739,211.33803693125,211.98155567499998,42.0,93.0
740,211.89359268125,212.04482730208332,61.0,33.0
741,211.70840743124998,212.05100014375,70.0,96.0
742,211.70840743124998,212.06643224791665,66.0,99.0
743,212.07877793125,213.06951901875,41.0,97.0
744,212.44914843125,213.08340791249998,48.0,60.0
745,212.81951893125,213.35346973541667,53.0,95.0
746,212.81951893125,213.50624756666664,68.0,99.0
747,212.81951893125,213.50933398749999,65.0,100.0
748,213.18988943124998,213.67445750208333,60.0,95.0
749,213.93063043125,214.35501329583332,53.0,96.0
750,213.56025993125,214.40593923958332,46.0,102.0
751,214.30100093125,214.71458132291664,61.0,100.0
752,214.30100093125,214.93063078125,65.0,99.0
753,214.67137143124998,214.98772956666664,58.0,102.0
754,215.78248293125,216.20686579583332,51.0,82.0
755,215.04174193125,216.40902636041665,39.0,92.0
756,215.78248293125,216.49853256458331,66.0,100.0
757,215.41211243125,216.50470540625,46.0,51.0
758,216.15285343124998,216.51550787916665,58.0,90.0
759,215.78248293125,216.51550787916665,63.0,107.0
760,216.89359443125,217.41211313124998,48.0,83.0
761,217.26396493125,217.537113175,53.0,95.0
762,216.52322393125,217.58495269791666,41.0,89.0
763,217.63433543124998,217.91519972708332,53.0,86.0
764,217.26396493125,217.93989109375,57.0,99.0
765,217.26396493125,217.93989109375,60.0,92.0
766,217.26396493125,218.0000763,63.0,89.0
767,218.37507643125,218.86273092291665,53.0,100.0
768,218.74544693125,218.94452107499998,58.0,89.0
769,218.00470593125,219.43989161874998,46.0,99.0
770,218.93063218125,219.47847187916665,53.0,88.0
771,219.30100268125,219.50470645624998,58.0,107.0
772,218.74544693125,219.537113875,61.0,102.0
773,218.74544693125,219.5648916625,65.0,97.0
774,219.85655843125,220.20995361666667,58.0,100.0
775,220.04174368124998,220.2963734,65.0,78.0
776,219.67137318125,220.46612654583333,53.0,92.0
777,219.48618793125,220.49544754375,46.0,93.0
778,220.41211418125,220.52322533125,58.0,100.0
779,220.22692893125,220.62199079791665,70.0,102.0
780,220.22692893125,220.86581804374998,73.0,100.0
781,220.78248468125,220.9429785645833,70.0,96.0
782,220.59729943124998,220.98773166666666,65.0,112.0
783,221.33804043125,222.07260858958333,46.0,50.0
784,220.96766993125,222.08495427291666,39.0,90.0
785,221.70841093125,222.28094199583333,51.0,86.0
786,221.70841093125,222.34884325416667,70.0,96.0
787,221.70841093125,222.40902846041666,66.0,93.0
788,222.07878143124998,222.44915193125,63.0,96.0
789,222.44915193125,223.07106572916666,44.0,93.0
790,222.81952243125,223.07415215,51.0,88.0
791,223.18989293125,223.86736230416665,42.0,102.0
792,223.56026343124998,223.87199193541664,66.0,117.0
793,224.67137493125,224.72538729583331,60.0,81.0
794,223.93063393125,225.05254790416666,41.0,75.0
795,224.30100443125,225.07569606041665,48.0,73.0
796,224.67137493125,225.40285666875,53.0,79.0
797,224.67137493125,225.50316534583334,68.0,96.0
798,224.67137493125,225.50779497708334,65.0,97.0
799,225.04174543124998,225.5463752375,60.0,97.0
800,225.78248643125,226.16983224583333,53.0,97.0
801,226.15285693125,226.40285701874998,65.0,100.0
802,226.15285693125,226.43217801666665,61.0,112.0
803,226.52322743124998,226.55717806041665,61.0,57.0
804,226.33804218125,226.56798053333333,53.0,112.0
805,225.41211593124999,226.63588179166666,46.0,78.0
806,226.52322743124998,226.85501767083332,65.0,83.0
807,226.70841268125,226.91828929791666,61.0,102.0
808,226.52322743124998,226.9753880833333,58.0,107.0
809,227.63433893125,227.71149945208333,51.0,34.0
810,227.63433893125,227.7685982375,58.0,96.0
811,227.63433893125,228.07878353125,67.0,127.0
812,227.63433893125,228.08032674166665,63.0,117.0
813,226.89359793124999,228.2994626208333,39.0,99.0
814,227.81952418125,228.4059441395833,51.0,85.0
815,227.26396843125,228.42291945416665,46.0,77.0
816,228.18989468125,228.94761099583332,67.0,102.0
817,228.18989468125,228.95069741666666,63.0,95.0
818,228.00470943124998,228.9568702583333,58.0,100.0
819,228.37507993124999,229.33804323125,39.0,86.0
820,228.74545043125,229.39051238541666,46.0,71.0
821,229.11582093125,229.51396921875,51.0,99.0
822,229.48619143124998,229.86736440416666,58.0,97.0
823,229.11582093125,229.86736440416666,63.0,112.0
824,229.11582093125,229.88588292916666,67.0,122.0
825,230.22693243125,230.49853746458334,56.0,95.0
826,230.41211768124998,230.61582145625,60.0,99.0
827,230.04174718125,230.64359924375,51.0,78.0
828,230.59730293125,231.19915499375,63.0,107.0
829,230.96767343124998,231.20532783541665,60.0,122.0
830,229.85656193124998,231.23464883333332,44.0,96.0
831,231.15285868125,231.28403156666667,56.0,93.0
832,230.78248818125,231.33958714166667,51.0,97.0
833,231.33804393124998,231.85501942083332,56.0,93.0
834,231.33804393124998,231.86736510416665,60.0,97.0
835,231.33804393124998,231.87662436666665,63.0,100.0
836,231.70841443125,232.14668618958333,51.0,90.0
837,232.07878493125,232.14668618958333,51.0,68.0
838,231.89359968124998,232.20532818541665,63.0,99.0
839,231.89359968124998,232.21921707916667,60.0,99.0
840,231.33804393124998,232.66211846874998,44.0,97.0
841,232.44915543124998,232.74853825208334,56.0,102.0
842,232.44915543124998,232.7902049333333,60.0,97.0
843,232.44915543124998,232.7902049333333,63.0,96.0
844,233.18989643125,233.77168675833332,53.0,93.0
845,232.81952593124998,233.796378125,46.0,81.0
846,233.93063743124998,234.47230428749998,58.0,97.0
847,233.56026693125,234.54792159791666,65.0,92.0
848,233.56026693125,234.5494648083333,61.0,93.0
849,235.04174893125,235.35502064583332,54.0,83.0
850,234.30100793124998,235.63588494166666,42.0,88.0
851,234.67137843125,235.64977383541665,49.0,78.0
852,235.04174893125,235.76242819583334,61.0,97.0
853,235.41211943124998,235.833415875,58.0,93.0
854,236.15286043125,237.18989783125,48.0,74.0
855,235.78248993124998,237.21458919791667,41.0,89.0
856,236.89360143124998,237.25471266875,53.0,95.0
857,236.52323093125,237.25625587916664,56.0,89.0
858,236.52323093125,237.26397193124998,60.0,86.0
859,237.63434243125,237.88897215,58.0,90.0
860,237.81952768124998,237.9723055125,61.0,75.0
861,237.44915718125,238.04174998124998,53.0,44.0
862,237.26397193124998,238.16212039375,46.0,68.0
863,238.37508343124998,238.70070082916666,61.0,64.0
864,238.00471293125,238.73928108958333,65.0,90.0
865,238.74545393124998,239.63279992083332,39.0,71.0
866,238.93063918125,239.63279992083332,46.0,57.0
867,239.30100968124998,239.67446660208333,58.0,64.0
868,239.11582443125,239.82878764375,51.0,78.0
869,239.85656543124998,240.21459024791665,63.0,74.0
870,239.48619493125,240.23310877291667,66.0,85.0
871,240.22693593124998,240.29946682083332,58.0,83.0
872,240.22693593124998,240.29946682083332,61.0,77.0
873,240.22693593124998,240.30101003125,54.0,83.0
874,240.22693593124998,240.3087260833333,51.0,81.0
875,240.22693593124998,240.31026929375,44.0,57.0
876,240.59730643125,243.08959125416666,58.0,97.0
877,240.59730643125,243.08959125416666,61.0,96.0
878,240.59730643125,243.09113446458332,51.0,90.0
879,240.59730643125,243.10656656875,54.0,89.0
880,240.59730643125,243.11273941041665,44.0,73.0
881,243.93064093125,244.907493125,49.0,65.0
882,244.30101143125,245.43990071874998,56.0,69.0
883,243.56027043125,245.55718471041666,44.0,60.0
884,243.18989993124998,245.57107360416666,37.0,93.0
885,245.04175243125,245.73311069791666,49.0,42.0
886,245.59730818124999,246.03249351875,56.0,69.0
887,245.41212293125,246.85656788125,61.0,92.0
888,244.67138193124998,246.87354319583332,65.0,97.0
889,246.89360493125,247.51397551875,58.0,88.0
890,246.52323443125,247.8781731770833,53.0,70.0
891,248.00471643125,248.54329686666665,53.0,66.0
892,246.15286393124998,248.61891417708333,46.0,78.0
893,248.37508693125,249.59267995,58.0,79.0
894,247.26397543125,249.67909973333332,61.0,99.0
895,247.63434593124998,249.68681578541666,65.0,88.0
896,249.85656893125,250.8611989125,51.0,88.0
897,249.48619843125,251.59422386041666,46.0,61.0
898,249.11582793124998,251.68681648541664,39.0,76.0
899,250.96768043125,251.7207671145833,51.0,53.0
900,250.59730993124998,253.24391579583332,66.0,97.0
901,250.22693943125,253.37663189166665,58.0,78.0
902,251.33805093125,253.64669371458334,63.0,81.0
903,253.18990343125,256.81181827916663,56.0,99.0
904,252.81953293125,257.10502825833333,51.0,93.0
905,252.26397718125,257.21150977708334,44.0,88.0
906,254.30101493125,257.2855838770833,68.0,99.0
907,253.74545918125,257.40595428958335,60.0,93.0
908,255.59731168124998,257.42292960416665,63.0,35.0
909,258.00471993125,258.72539919583335,65.0,60.0
910,258.18990518124997,258.796386875,56.0,47.0
911,258.18990518124997,258.7979300854167,61.0,69.0
912,258.18990518124997,258.82570787291667,63.0,59.0
913,259.48620193125,259.7794119104167,56.0,86.0
914,259.30101668124996,259.8087329083333,53.0,62.0
915,259.67138718125,259.8966959020833,60.0,72.0
916,260.04175768125,260.4198442333333,61.0,81.0
917,260.41212818125,260.7763258395833,65.0,60.0
918,260.59731343125,260.8735480958333,68.0,60.0
919,260.96768393125,261.4275606354167,72.0,95.0
920,261.52323968125,261.93219044166665,73.0,66.0
921,261.89361018125,262.00472133125,77.0,71.0
922,262.26398068124996,262.80564753749996,80.0,72.0
923,263.18990693125,263.3041045020833,85.0,49.0
924,262.81953643125,263.33959834166666,84.0,54.0
925,258.93064618125,265.1744755270833,49.0,92.0
926,258.74546093124997,265.21922862916665,44.0,44.0
927,258.18990518124997,265.2439199958333,37.0,78.0
928,264.30101843125,265.2485496270833,97.0,89.0
929,264.11583318124997,265.2840434666667,89.0,48.0
930,264.30101843125,265.3858953541667,92.0,55.0
931,264.11583318124997,265.3982410375,85.0,51.0
