,start,end,pitch,velocity
0,26.402515443749998,26.843690943749998,72.0,110.0
1,26.843690943749998,27.284866443749998,74.0,110.0
2,27.284866443749998,28.6065547125,76.0,98.0
3,28.608392943749998,28.8271424625,76.0,88.0
4,28.828980693749997,29.0477302125,76.0,88.0
5,29.049568443749997,29.490743943749997,76.0,89.0
6,29.490743943749997,29.9300812125,74.0,91.0
7,29.931919443749997,30.373094943749997,74.0,89.0
8,30.373094943749997,30.8124322125,76.0,91.0
9,30.814270443749997,33.4594852125,76.0,90.0
10,33.46132344375,33.90249894375,76.0,102.0
11,33.90249894375,34.34367444375,79.0,108.0
12,34.34367444375,35.6653627125,81.0,113.0
13,35.66720094375,35.8859504625,81.0,92.0
14,35.88778869375,36.10837644375,81.0,92.0
15,36.10837644375,36.54955194375,84.0,100.0
16,36.54955194375,36.9888892125,81.0,94.0
17,36.990727443749996,37.431902943749996,81.0,107.0
18,37.431902943749996,37.873078443749996,76.0,108.0
19,37.873078443749996,40.520131443749996,79.0,107.0
20,40.520131443749996,41.042189118749995,76.0,94.0
21,40.961306943749996,41.402482443749996,79.0,98.0
22,41.402482443749996,42.7241707125,81.0,104.0
23,42.726008943749996,42.9447584625,81.0,107.0
24,42.946596693749996,43.167184443749996,81.0,96.0
25,43.167184443749996,43.608359943749996,86.0,113.0
26,43.608359943749996,44.0476972125,84.0,94.0
27,44.049535443749996,44.490710943749995,84.0,104.0
28,44.490710943749995,44.931886443749995,81.0,104.0
29,44.931886443749995,45.593649693749995,79.0,110.0
30,45.593649693749995,45.814237443749995,81.0,96.0
31,45.814237443749995,46.255412943749995,76.0,98.0
32,46.255412943749995,46.696588443749995,74.0,98.0
33,46.696588443749995,47.5771012125,72.0,91.0
34,47.578939443749995,48.020114943749995,72.0,108.0
35,48.020114943749995,48.461290443749995,74.0,100.0
36,48.461290443749995,49.7829787125,76.0,104.0
37,49.784816943749995,50.010919387499996,76.0,98.0
38,50.005404693749995,50.225992443749995,81.0,93.0
39,50.225992443749995,50.667167943749995,79.0,96.0
40,50.667167943749995,51.10834344375,76.0,93.0
41,51.10834344375,51.77010669375,74.0,93.0
42,51.77010669375,51.988856212499996,72.0,88.0
43,51.99069444375,54.635909212499996,72.0,93.0
44,54.63774744375,55.07892294375,72.0,104.0
45,55.07892294375,55.52009844375,71.0,104.0
46,55.52009844375,56.40244944375,69.0,104.0
47,56.40244944375,56.84362494375,72.0,113.0
48,56.84362494375,57.089947931249995,74.0,94.0
49,57.06421269375,58.165313212499996,76.0,113.0
50,58.16715144375,58.60832694375,76.0,91.0
51,58.60832694375,58.827076462499996,81.0,94.0
52,58.82891469375,59.27009019375,81.0,98.0
53,59.27009019375,59.488839712499995,79.0,91.0
54,59.49067794375,59.709427462499995,79.0,90.0
55,59.71126569375,59.930015212499995,79.0,92.0
56,59.93185344375,60.15244119375,79.0,102.0
57,60.15244119375,60.59361669375,76.0,91.0
58,60.59361669375,61.47596769375,79.0,100.0
59,61.47596769375,61.740672993749996,76.0,93.0
60,61.69655544375,62.13773094375,79.0,107.0
61,62.13773094375,62.35831869375,81.0,92.0
62,62.35831869375,63.459419212499995,84.0,108.0
63,63.46125744375,63.90243294375,84.0,108.0
64,63.90243294375,64.12302069375,81.0,98.0
65,64.12302069375,65.00537169374999,84.0,107.0
66,65.00537169374999,65.22595944375,79.0,107.0
67,65.22595944375,65.66713494375,81.0,104.0
68,65.66713494375,66.10831044375,84.0,107.0
69,66.10831044375,66.3270599625,86.0,107.0
70,66.32889819374999,66.5476477125,86.0,107.0
71,66.54948594375,66.7682354625,86.0,102.0
72,66.77007369374999,66.9888232125,86.0,100.0
73,66.99066144375,67.43183694375,86.0,119.0
74,67.43183694375,67.65242469374999,84.0,107.0
75,67.65242469374999,70.29947769374999,86.0,120.0
76,70.29947769374999,70.52006544375,79.0,113.0
77,70.52006544375,70.96124094375,84.0,113.0
78,70.96124094375,71.40241644375,86.0,113.0
79,71.40241644375,71.6211659625,88.0,108.0
80,71.62300419374999,71.8417537125,88.0,104.0
81,71.84359194375,72.0623414625,88.0,104.0
82,72.06417969374999,72.28476744375,88.0,102.0
83,72.28476744375,72.72594294375,86.0,114.0
84,72.72594294375,73.16711844375,84.0,110.0
85,73.16711844375,73.3858679625,88.0,113.0
86,73.38770619374999,73.6064557125,88.0,108.0
87,73.60829394375,73.8270434625,88.0,104.0
88,73.82888169374999,74.04946944375,88.0,110.0
89,74.04946944375,74.49064494375,86.0,116.0
90,74.49064494375,74.9299822125,84.0,114.0
91,74.93182044375,75.37299594375,84.0,107.0
92,75.37299594375,75.81417144375,81.0,113.0
93,75.81417144375,76.25534694375,84.0,114.0
94,76.25534694375,76.47593469374999,86.0,117.0
95,76.47593469374999,77.57887344375,88.0,120.0
96,77.57887344375,78.02004894375,79.0,114.0
97,78.02004894375,78.46122444375,81.0,113.0
98,78.46122444375,78.6799739625,86.0,110.0
99,78.68181219374999,78.9005617125,86.0,104.0
100,78.90239994375,79.1211494625,86.0,108.0
101,79.12298769374999,79.34357544375,86.0,107.0
102,79.34357544375,79.78475094375,84.0,114.0
103,79.78475094375,80.22592644375,81.0,113.0
104,80.22592644375,80.4446759625,86.0,110.0
105,80.44651419374999,80.66526371249999,86.0,108.0
106,80.66710194375,80.8858514625,86.0,102.0
107,80.88768969374999,81.10827744375,86.0,102.0
108,81.10827744375,81.54945294375,84.0,114.0
109,81.54945294375,81.99062844375,81.0,114.0
110,81.99062844375,82.43180394375,84.0,114.0
111,82.43180394375,82.87297944375,81.0,114.0
112,82.87297944375,83.31415494375,76.0,108.0
113,83.31415494375,83.53474269374999,81.0,110.0
114,83.53474269374999,84.4152554625,79.0,114.0
115,84.41709369374999,84.63768144375,79.0,113.0
116,84.63768144375,85.07885694375,84.0,113.0
117,85.07885694375,85.52003244375,86.0,113.0
118,85.52003244375,85.7387819625,88.0,108.0
119,85.74062019374999,85.95936971249999,88.0,104.0
120,85.96120794375,86.1799574625,88.0,104.0
121,86.18179569374999,86.40238344375,88.0,102.0
122,86.40238344375,86.84355894375,86.0,114.0
123,86.84355894375,87.28473444375,84.0,110.0
124,87.28473444375,87.5034839625,88.0,113.0
125,87.50532219374999,87.72407171249999,88.0,108.0
126,87.72590994375,87.9446594625,88.0,104.0
127,87.94649769374999,88.16708544375,88.0,110.0
128,88.16708544375,88.60826094375,86.0,116.0
129,88.60826094375,89.04759821249999,84.0,114.0
130,89.04943644375,89.49061194375,84.0,107.0
131,89.49061194375,89.93178744375,81.0,113.0
132,89.93178744375,90.37296294375,84.0,114.0
133,90.37296294375,90.59355069375,86.0,117.0
134,90.59355069375,92.57884044375,88.0,120.0
135,92.57884044375,93.02001594375,86.0,119.0
136,93.02001594375,93.46119144375,84.0,110.0
137,93.46119144375,93.90236694375,86.0,110.0
138,93.90236694375,94.12295469375,84.0,104.0
139,94.12295469375,94.78471794375,86.0,117.0
140,94.78471794375,95.22589344375,88.0,117.0
141,95.22589344375,95.66706894375,86.0,113.0
142,95.66706894375,96.10640621249999,84.0,110.0
143,96.10824444375,97.87294644375,84.0,116.0
144,105.81410544375,106.25528094375,72.0,110.0
145,106.25528094375,106.69645644375,74.0,110.0
146,106.69645644375,108.01814471249999,76.0,98.0
147,108.01998294375,108.2387324625,76.0,88.0
148,108.24057069375,108.45932021249999,76.0,88.0
149,108.46115844375,108.90233394375,76.0,89.0
150,108.90233394375,109.3416712125,74.0,91.0
151,109.34350944375,109.78468494375,74.0,89.0
152,109.78468494375,110.2240222125,76.0,91.0
153,110.22586044375,112.8710752125,76.0,90.0
154,112.87291344375,113.31408894375,76.0,102.0
155,113.31408894375,113.75526444375,79.0,108.0
156,113.75526444375,115.0769527125,81.0,113.0
157,115.07879094375,115.2975404625,81.0,92.0
158,115.29937869375,115.51996644375,81.0,92.0
159,115.51996644375,115.96114194375,84.0,100.0
160,115.96114194375,116.4004792125,81.0,94.0
161,116.40231744375,116.84349294375,81.0,107.0
162,116.84349294375,117.28466844375,76.0,108.0
163,117.28466844375,119.93172144374999,79.0,107.0
164,119.93172144374999,120.45377911874999,76.0,94.0
165,120.37289694374999,120.81407244374999,79.0,98.0
166,120.81407244374999,122.1357607125,81.0,104.0
167,122.13759894374999,122.3563484625,81.0,107.0
168,122.35818669375,122.57877444374999,81.0,96.0
169,122.57877444374999,123.01994994374999,86.0,113.0
170,123.01994994374999,123.4592872125,84.0,94.0
171,123.46112544374999,123.90230094374999,84.0,104.0
172,123.90230094374999,124.34347644374999,81.0,104.0
173,124.34347644374999,125.00523969375,79.0,110.0
174,125.00523969375,125.22582744374999,81.0,96.0
175,125.22582744374999,125.66700294374999,76.0,98.0
176,125.66700294374999,126.10817844374999,74.0,98.0
177,126.10817844374999,126.9886912125,72.0,91.0
178,126.99052944374999,127.43170494374999,72.0,108.0
179,127.43170494374999,127.87288044374999,74.0,100.0
180,127.87288044374999,129.1945687125,76.0,104.0
181,129.19640694375,129.42250938749999,76.0,98.0
182,129.41699469374998,129.63758244375,81.0,93.0
183,129.63758244375,130.07875794375,79.0,96.0
184,130.07875794375,130.51993344375,76.0,93.0
185,130.51993344375,131.18169669374998,74.0,93.0
186,131.18169669374998,131.4004462125,72.0,88.0
187,131.40228444375,134.04749921249999,72.0,93.0
188,134.04933744375,134.49051294375,72.0,104.0
189,134.49051294375,134.93168844375,71.0,104.0
190,134.93168844375,135.81403944375,69.0,104.0
191,135.81403944375,136.25521494375,72.0,113.0
192,136.25521494375,136.50153793125,74.0,94.0
193,136.47580269374998,137.57690321249999,76.0,113.0
194,137.57874144375,138.01991694375,76.0,91.0
195,138.01991694375,138.2386664625,81.0,94.0
196,138.24050469374998,138.68168019375,81.0,98.0
197,138.68168019375,138.9004297125,79.0,91.0
198,138.90226794375,139.1210174625,79.0,90.0
199,139.12285569374998,139.34160521249999,79.0,92.0
200,139.34344344375,139.56403119375,79.0,102.0
201,139.56403119375,140.00520669374998,76.0,91.0
202,140.00520669374998,140.88755769374998,79.0,100.0
203,140.88755769374998,141.15226299374999,76.0,93.0
204,141.10814544375,141.54932094375,79.0,107.0
205,141.54932094375,141.76990869374998,81.0,92.0
206,141.76990869374998,142.87100921249998,84.0,108.0
207,142.87284744375,143.31402294375,84.0,108.0
208,143.31402294375,143.53461069374998,81.0,98.0
209,143.53461069374998,144.41696169374998,84.0,107.0
210,144.41696169374998,144.63754944375,79.0,107.0
211,144.63754944375,145.07872494375,81.0,104.0
212,145.07872494375,145.51990044375,84.0,107.0
213,145.51990044375,145.7386499625,86.0,107.0
214,145.74048819375,145.9592377125,86.0,107.0
215,145.96107594375,146.1798254625,86.0,102.0
216,146.18166369374998,146.40041321249998,86.0,100.0
217,146.40225144375,146.84342694375,86.0,119.0
218,146.84342694375,147.06401469374998,84.0,107.0
219,147.06401469374998,149.04930444375,86.0,120.0
220,149.71106769374998,149.93165544375,79.0,113.0
221,149.93165544375,150.37283094375,84.0,113.0
222,150.37283094375,150.81400644375,86.0,113.0
223,150.81400644375,151.0327559625,88.0,108.0
224,151.03459419375,151.2533437125,88.0,104.0
225,151.25518194375,151.4739314625,88.0,104.0
226,151.47576969374998,151.69635744375,88.0,102.0
227,151.69635744375,152.13753294375,86.0,114.0
228,152.13753294375,152.57870844375,84.0,110.0
229,152.57870844375,152.7974579625,88.0,113.0
230,152.79929619375,153.0180457125,88.0,108.0
231,153.01988394375,153.2386334625,88.0,104.0
232,153.24047169374998,153.46105944375,88.0,110.0
233,153.46105944375,153.90223494375,86.0,116.0
234,153.90223494375,154.34157221249998,84.0,114.0
235,154.34341044375,154.78458594375,84.0,107.0
236,154.78458594375,155.22576144375,81.0,113.0
237,155.22576144375,155.66693694375,84.0,114.0
238,155.66693694375,155.88752469374998,86.0,117.0
239,155.88752469374998,156.99046344375,88.0,120.0
240,156.99046344375,157.43163894375,79.0,114.0
241,157.43163894375,157.87281444375,81.0,113.0
242,157.87281444375,158.0915639625,86.0,110.0
243,158.09340219375,158.3121517125,86.0,104.0
244,158.31398994375,158.5327394625,86.0,108.0
245,158.53457769374998,158.75516544375,86.0,107.0
246,158.75516544375,159.19634094375,84.0,114.0
247,159.19634094375,159.63751644375,81.0,113.0
248,159.63751644375,159.8562659625,86.0,110.0
249,159.85810419375,160.0768537125,86.0,108.0
250,160.07869194375,160.2974414625,86.0,102.0
251,160.29927969374998,160.51986744375,86.0,102.0
252,160.51986744375,160.96104294375,84.0,114.0
253,160.96104294375,161.40221844375,81.0,114.0
254,161.40221844375,161.84339394375,84.0,114.0
255,161.84339394375,162.28456944375,81.0,114.0
256,162.28456944375,162.72574494375,76.0,108.0
257,162.72574494375,162.94633269374998,81.0,110.0
258,162.94633269374998,163.8268454625,79.0,114.0
259,163.82868369375,164.04927144375,79.0,113.0
260,164.04927144375,164.49044694375,84.0,113.0
261,164.49044694375,164.93162244375,86.0,113.0
262,164.93162244375,165.1503719625,88.0,108.0
263,165.15221019375,165.3709597125,88.0,104.0
264,165.37279794375,165.5915474625,88.0,104.0
265,165.59338569375,165.81397344375,88.0,102.0
266,165.81397344375,166.25514894375,86.0,114.0
267,166.25514894375,166.69632444375,84.0,110.0
268,166.69632444375,166.9150739625,88.0,113.0
269,166.91691219375,167.1356617125,88.0,108.0
270,167.13749994375,167.3562494625,88.0,104.0
271,167.35808769375,167.57867544375,88.0,110.0
272,167.57867544375,168.01985094375,86.0,116.0
273,168.01985094375,168.45918821249998,84.0,114.0
274,168.46102644375,168.90220194375,84.0,107.0
275,168.90220194375,169.34337744375,81.0,113.0
276,169.34337744375,169.78455294375,84.0,114.0
277,169.78455294375,170.00514069375,86.0,117.0
278,170.00514069375,171.99043044375,88.0,120.0
279,171.99043044375,172.43160594375,86.0,119.0
280,172.43160594375,172.87278144375,84.0,110.0
281,172.87278144375,173.31395694375,86.0,110.0
282,173.31395694375,173.53454469375,84.0,104.0
283,173.53454469375,174.19630794374999,86.0,117.0
284,174.19630794374999,174.63748344375,88.0,117.0
285,174.63748344375,175.07865894374999,86.0,113.0
286,175.07865894374999,175.51799621249998,84.0,110.0
287,175.51983444375,177.28453644375,84.0,116.0
288,181.69629144375,182.21467265625,67.0,114.0
289,182.13746694374998,182.47753972499999,69.0,113.0
290,182.57864244375,183.15952351875,74.0,117.0
291,183.24040569375,184.9701813,76.0,117.0
292,185.22569544375,185.7165031875,74.0,113.0
293,185.66687094374998,186.07863474375,72.0,104.0
294,186.10804644375,186.74407445625,74.0,89.0
295,186.76980969375,188.47201183125,71.0,110.0
296,188.75509944375,189.19259848125,67.0,113.0
297,189.19627494374998,189.57862704375,69.0,108.0
298,189.63745044375,190.14480226875,74.0,116.0
299,190.29921369375,191.72935760625,76.0,116.0
300,192.28450344375,192.77347295625,74.0,114.0
301,192.72567894374998,193.1797220625,72.0,113.0
302,193.16685444375,193.83229415625,71.0,113.0
303,193.82861769375,195.065747325,69.0,114.0
304,195.04185031875,195.6135402375,73.0,123.0
305,195.59331969375,196.03449519375,74.0,119.0
306,196.03449519375,196.69625844375,76.0,113.0
307,196.69625844375,198.23669623125,76.0,116.0
308,209.71093569375,209.93152344375,80.0,113.0
309,209.93152344375,210.37269894374998,85.0,113.0
310,210.37269894374998,210.81387444375,87.0,113.0
311,210.81387444375,211.0326239625,89.0,108.0
312,211.03446219375,211.2532117125,89.0,104.0
313,211.25504994374998,211.47379946249998,89.0,104.0
314,211.47563769375,211.69622544375,89.0,102.0
315,211.69622544375,212.13740094374998,87.0,114.0
316,212.13740094374998,212.57857644375,85.0,110.0
317,212.57857644375,212.7973259625,89.0,113.0
318,212.79916419375,213.0179137125,89.0,108.0
319,213.01975194374998,213.23850146249998,89.0,104.0
320,213.24033969375,213.46092744375,89.0,110.0
321,213.46092744375,213.90210294374998,87.0,116.0
322,213.90210294374998,214.3414402125,85.0,114.0
323,214.34327844375,214.78445394374998,85.0,107.0
324,214.78445394374998,215.22562944375,82.0,113.0
325,215.22562944375,215.66680494374998,85.0,114.0
326,215.66680494374998,215.88739269375,87.0,117.0
327,215.88739269375,216.99033144375,89.0,120.0
328,216.99033144375,217.43150694374998,80.0,114.0
329,217.43150694374998,217.87268244375,82.0,113.0
330,217.87268244375,218.0914319625,87.0,110.0
331,218.09327019375,218.3120197125,87.0,104.0
332,218.31385794374998,218.53260746249998,87.0,108.0
333,218.53444569375,218.75503344375,87.0,107.0
334,218.75503344375,219.19620894374998,85.0,114.0
335,219.19620894374998,219.63738444375,82.0,113.0
336,219.63738444375,219.8561339625,87.0,110.0
337,219.85797219375,220.0767217125,87.0,108.0
338,220.07855994374998,220.29730946249998,87.0,102.0
339,220.29914769375,220.51973544375,87.0,102.0
340,220.51973544375,220.96091094374998,85.0,114.0
341,220.96091094374998,221.40208644375,82.0,114.0
342,221.40208644375,221.84326194374998,85.0,114.0
343,221.84326194374998,222.28443744375,82.0,114.0
344,222.28443744375,222.72561294374998,77.0,108.0
345,222.72561294374998,222.94620069375,82.0,110.0
346,222.94620069375,223.82671346249998,80.0,114.0
347,223.82855169375,224.04913944375,80.0,113.0
348,224.04913944375,224.49031494374998,85.0,113.0
349,224.49031494374998,224.93149044375,87.0,113.0
350,224.93149044375,225.1502399625,89.0,108.0
351,225.15207819375,225.3708277125,89.0,104.0
352,225.37266594374998,225.59141546249998,89.0,104.0
353,225.59325369375,225.81384144375,89.0,102.0
354,225.81384144375,226.25501694374998,87.0,114.0
355,226.25501694374998,226.69619244375,85.0,110.0
356,226.69619244375,226.9149419625,89.0,113.0
357,226.91678019375,227.1355297125,89.0,108.0
358,227.13736794374998,227.35611746249998,89.0,104.0
359,227.35795569375,227.57854344375,89.0,110.0
360,227.57854344375,228.01971894374998,87.0,116.0
361,228.01971894374998,228.4590562125,85.0,114.0
362,228.46089444375,228.90206994374998,85.0,107.0
363,228.90206994374998,229.34324544375,82.0,113.0
364,229.34324544375,229.78442094374998,85.0,114.0
365,229.78442094374998,230.00500869375,87.0,117.0
366,230.00500869375,231.99029844375,89.0,120.0
367,231.99029844375,232.43147394374998,87.0,119.0
368,232.43147394374998,232.87264944375,85.0,110.0
369,232.87264944375,233.31382494374998,87.0,110.0
370,233.31382494374998,233.53441269375,85.0,104.0
371,233.53441269375,234.19617594374998,87.0,117.0
372,234.19617594374998,234.63735144375,89.0,117.0
373,234.63735144375,235.07852694374998,87.0,113.0
374,235.07852694374998,235.5178642125,85.0,110.0
375,235.51970244375,237.28440444375,85.0,116.0
376,239.04910644375,239.492120175,75.0,114.0
377,239.49028194375,239.93145744375,73.0,108.0
378,239.93145744375,240.59322069375,75.0,113.0
379,240.59322069375,240.81380844375,73.0,108.0
380,240.81380844375,241.47557169375,75.0,110.0
381,241.47557169375,243.90203694375,77.0,110.0
382,243.90203694375,245.2457839875,75.0,113.0
383,245.22556344375,246.1060762125,73.0,114.0
384,246.10791444375,249.63731844375,73.0,110.0
