,start,end,pitch,velocity
0,2.57903844375,3.32903679375,67.0,80.0
1,2.57903844375,3.36580141875,64.0,80.0
2,2.57903844375,3.40256604375,60.0,73.0
3,3.46138944375,3.95771188125,67.0,85.0
4,3.46138944375,4.0551381375,60.0,71.0
5,3.46138944375,4.07352045,64.0,81.0
6,2.57903844375,4.08271160625,48.0,76.0
7,4.34374044375,4.95035675625,69.0,85.0
8,4.34374044375,4.97609199375,64.0,80.0
9,4.34374044375,4.977930225,60.0,78.0
10,5.22609144375,5.8124872125,69.0,82.0
11,5.22609144375,5.85844299375,64.0,80.0
12,5.22609144375,5.86763415,60.0,80.0
13,4.34374044375,6.02388380625,48.0,80.0
14,6.10844244375,6.6580735875,69.0,83.0
15,6.10844244375,6.683808825,64.0,81.0
16,6.10844244375,6.70770583125,60.0,78.0
17,6.9907934437499994,7.5477775125,64.0,82.0
18,6.9907934437499994,7.551453974999999,69.0,81.0
19,6.9907934437499994,7.55329220625,60.0,78.0
20,6.10844244375,7.6691007749999995,57.0,68.0
21,6.10844244375,7.67461546875,45.0,62.0
22,7.873144443749999,8.4154226625,69.0,83.0
23,7.873144443749999,8.492628374999999,64.0,79.0
24,7.873144443749999,8.5257165375,60.0,74.0
25,8.75549544375,9.264685499999999,69.0,86.0
26,8.75549544375,9.29593543125,60.0,82.0
27,8.75549544375,9.3235089,64.0,87.0
28,7.873144443749999,9.54225841875,43.0,76.0
29,9.63784644375,10.20769813125,65.0,88.0
30,9.63784644375,10.20769813125,69.0,88.0
31,9.63784644375,10.24446275625,60.0,84.0
32,10.52019744375,11.22240178125,65.0,88.0
33,10.52019744375,11.2315929375,69.0,87.0
34,10.52019744375,11.246298787499999,60.0,84.0
35,9.63784644375,11.82534163125,53.0,83.0
36,11.40254844375,12.0845322375,65.0,87.0
37,11.40254844375,12.08637046875,60.0,83.0
38,11.40254844375,12.0992380875,69.0,85.0
39,11.84372394375,12.5771782125,53.0,77.0
40,12.28489944375,12.715045556249999,65.0,88.0
41,12.28489944375,12.72056025,60.0,86.0
42,12.28489944375,12.735266099999999,69.0,87.0
43,9.63784644375,12.786736574999999,41.0,84.0
44,13.16725044375,13.860263625,68.0,109.0
45,13.16725044375,13.86761655,74.0,93.0
46,13.16725044375,13.8823224,65.0,96.0
47,14.04960144375,14.733423468749999,74.0,88.0
48,14.04960144375,14.786732175,65.0,87.0
49,14.04960144375,14.792246868749999,68.0,91.0
50,14.93195244375,15.542245218749999,65.0,88.0
51,14.93195244375,15.54592168125,74.0,88.0
52,14.93195244375,15.59003923125,68.0,90.0
53,15.81430344375,16.340037581249998,65.0,87.0
54,13.16725044375,16.39518451875,41.0,102.0
55,15.81430344375,16.4227579875,74.0,86.0
56,15.81430344375,16.45584615,68.0,87.0
57,16.69665444375,17.8234902,60.0,86.0
58,16.69665444375,17.83268135625,69.0,88.0
59,16.69665444375,17.8492254375,65.0,88.0
60,16.69665444375,17.85841659375,41.0,88.0
61,18.02018094375,19.70032430625,69.0,87.0
62,18.02018094375,19.705839,42.0,82.0
63,18.02018094375,19.74076539375,65.0,90.0
64,18.02018094375,20.016500081249998,62.0,87.0
65,20.22605844375,20.77017489375,67.0,86.0
66,20.22605844375,20.845542375,62.0,87.0
67,20.22605844375,20.90620400625,59.0,84.0
68,21.10840944375,21.757305074999998,67.0,83.0
69,21.10840944375,21.76649623125,62.0,76.0
70,21.10840944375,21.81796670625,59.0,73.0
71,21.99076044375,22.549582743749998,67.0,71.0
72,21.99076044375,22.610244375,62.0,68.0
73,21.99076044375,22.63046491875,59.0,67.0
74,22.87311144375,23.248110618749998,59.0,77.0
75,20.22605844375,23.36759565,43.0,84.0
76,22.87311144375,23.38413973125,67.0,83.0
77,22.87311144375,23.477889525,62.0,80.0
78,23.755462443749998,25.51648798125,62.0,77.0
79,23.755462443749998,25.522002675,59.0,73.0
80,23.755462443749998,25.54589968125,67.0,75.0
81,23.755462443749998,25.57163491875,43.0,73.0
82,27.284866443749998,28.463172675,67.0,80.0
83,27.284866443749998,28.5256725375,48.0,80.0
84,27.284866443749998,28.5330254625,60.0,74.0
85,27.284866443749998,28.584495937499998,64.0,77.0
86,29.049568443749997,30.3712567125,67.0,67.0
87,29.049568443749997,30.41721249375,59.0,70.0
88,29.049568443749997,30.64147670625,62.0,73.0
89,29.049568443749997,30.6506678625,47.0,70.0
90,30.814270443749997,33.56794085625,57.0,63.0
91,30.814270443749997,33.59735255625,67.0,70.0
92,30.814270443749997,33.654337725,64.0,72.0
93,30.814270443749997,33.698455275,45.0,70.0
94,30.814270443749997,33.71132289375,60.0,69.0
95,34.34367444375,35.2830106125,53.0,81.0
96,34.34367444375,35.29955469375,41.0,77.0
97,34.34367444375,35.65249509375,65.0,67.0
98,34.34367444375,35.70396556875,60.0,68.0
99,34.34367444375,35.908009237499996,69.0,75.0
100,36.10837644375,37.080800775,42.0,71.0
101,36.10837644375,37.1175654,54.0,72.0
102,36.10837644375,37.477858725,69.0,78.0
103,36.10837644375,37.5293292,66.0,79.0
104,36.10837644375,37.53852035625,62.0,82.0
105,37.873078443749996,40.9006453125,43.0,68.0
106,37.873078443749996,40.9741745625,67.0,77.0
107,37.873078443749996,41.00542449375,59.0,67.0
108,37.873078443749996,41.0329979625,55.0,68.0
109,37.873078443749996,41.06057143125,62.0,64.0
110,41.402482443749996,42.77012649375,41.0,82.0
111,41.843657943749996,43.01644948125,53.0,69.0
112,42.284833443749996,43.2021108375,57.0,77.0
113,42.726008943749996,43.248066618749995,65.0,83.0
114,43.608359943749996,44.1285793875,55.0,76.0
115,43.167184443749996,44.16718224375,43.0,85.0
116,44.490710943749995,44.99070984375,42.0,73.0
117,44.049535443749996,45.02379800625,67.0,87.0
118,44.049535443749996,45.038503856249996,59.0,87.0
119,44.931886443749995,45.593649693749995,40.0,88.0
120,45.814237443749995,45.9300460125,67.0,84.0
121,45.814237443749995,46.476000693749995,44.0,88.0
122,45.373061943749995,46.71864721875,52.0,82.0
123,45.814237443749995,46.74438245625,59.0,87.0
124,46.255412943749995,46.9079850375,64.0,83.0
125,46.696588443749995,47.9741591625,60.0,73.0
126,47.578939443749995,48.02379140625,57.0,83.0
127,47.137763943749995,48.051364875,52.0,68.0
128,46.696588443749995,48.11202650625,45.0,85.0
129,48.020114943749995,48.3565112625,64.0,79.0
130,48.461290443749995,49.786655175,42.0,85.0
131,49.343641443749995,49.985184149999995,57.0,70.0
132,48.902465943749995,50.2094483625,54.0,61.0
133,49.784816943749995,50.22231598125,64.0,73.0
134,50.225992443749995,50.77010889375,67.0,81.0
135,50.225992443749995,50.867535149999995,59.0,79.0
136,50.225992443749995,51.37672520625,43.0,70.0
137,51.10834344375,51.5844453375,59.0,76.0
138,51.10834344375,51.86753295,67.0,78.0
139,50.667167943749995,51.92451811875,55.0,44.0
140,51.99069444375,52.43922286875,65.0,73.0
141,51.99069444375,52.53481089375,60.0,75.0
142,52.43186994375,52.911648299999996,55.0,38.0
143,52.87304544375,53.32892679375,60.0,83.0
144,52.87304544375,53.3638531875,65.0,79.0
145,53.31422094375,54.67818853125,55.0,50.0
146,51.99069444375,54.6800267625,48.0,72.0
147,53.75539644375,54.689217918749996,60.0,71.0
148,53.75539644375,54.70760023125,64.0,78.0
149,56.18186169375,56.316052575,59.0,83.0
150,56.40244944375,56.551346175,60.0,102.0
151,55.96127394375,56.727816374999996,57.0,84.0
152,55.74068619375,56.755389843749995,52.0,76.0
153,55.52009844375,56.821566168749996,45.0,85.0
154,56.84362494375,57.237006431249995,64.0,89.0
155,57.28480044375,57.516417581249996,59.0,84.0
156,57.28480044375,57.838108049999995,67.0,87.0
157,58.16715144375,58.44288613125,64.0,98.0
158,58.38773919375,58.553180006249995,67.0,100.0
159,57.28480044375,58.595459325,40.0,87.0
160,57.94656369375,58.64509156875,52.0,87.0
161,58.60832694375,59.00538489375,72.0,107.0
162,59.04950244375,59.374869374999996,65.0,74.0
163,59.04950244375,59.681853993749996,69.0,92.0
164,59.71126569375,59.9079564375,60.0,75.0
165,59.49067794375,60.157955887499995,53.0,83.0
166,59.04950244375,60.378543637499995,41.0,86.0
167,59.93185344375,60.3858965625,65.0,110.0
168,59.27009019375,60.411631799999995,48.0,76.0
169,60.37302894375,60.48332281875,53.0,32.0
170,60.37302894375,60.6358960125,69.0,91.0
171,60.59361669375,60.92449831875,60.0,80.0
172,60.59361669375,61.28846810625,67.0,82.0
173,61.47596769375,61.63037911875,64.0,102.0
174,61.25537994375,61.795819931249994,60.0,88.0
175,61.69655544375,62.036628225,67.0,119.0
176,60.81420444375,62.22045135,48.0,86.0
177,62.13773094375,62.24802481875,60.0,88.0
178,61.03479219375,62.25170128125,55.0,82.0
179,63.24066969375,63.418978124999995,65.0,87.0
180,63.02008194375,63.793977299999995,62.0,91.0
181,62.79949419375,63.86934478125,57.0,81.0
182,62.57890644375,63.91713879375,50.0,93.0
183,63.46125744375,63.92449171875,69.0,104.0
184,63.90243294375,64.45022585625,65.0,87.0
185,64.12302069375,64.4594170125,69.0,93.0
186,63.90243294375,64.47779932499999,74.0,92.0
187,64.78478394375,64.91713659375,64.0,98.0
188,64.56419619374999,65.10095971874999,59.0,84.0
189,65.22595944375,65.39691495,59.0,98.0
190,64.34360844375,65.4520618875,52.0,92.0
191,65.00537169374999,65.5586793,71.0,119.0
192,65.44654719374999,65.70757603125,64.0,93.0
193,65.66713494375,65.88772269374999,67.0,102.0
194,65.88772269374999,66.06970758749999,71.0,89.0
195,66.10831044375,66.60830934375,50.0,100.0
196,66.54948594375,66.64323573749999,53.0,88.0
197,66.10831044375,66.82889709375,60.0,104.0
198,66.10831044375,66.89691164999999,69.0,113.0
199,66.99066144375,67.4447045625,69.0,91.0
200,66.99066144375,67.46492510624999,66.0,116.0
201,66.99066144375,67.4814691875,42.0,100.0
202,67.43183694375,67.50904265625,54.0,84.0
203,66.99066144375,67.6174983,62.0,107.0
204,67.87301244375,68.06786495624999,62.0,87.0
205,67.87301244375,68.09727665625,59.0,81.0
206,67.87301244375,68.15242359375,67.0,104.0
207,68.53477569374999,68.6174961,81.0,88.0
208,68.53477569374999,68.62117256249999,71.0,88.0
209,68.31418794375,68.75168698125,55.0,100.0
210,68.75536344375,69.00903935625,71.0,98.0
211,68.75536344375,69.0329363625,83.0,116.0
212,69.19653894375,69.2682299625,72.0,87.0
213,69.19653894375,69.2755828875,84.0,100.0
214,68.97595119374999,69.404259075,55.0,102.0
215,69.41712669374999,69.55867049999999,86.0,117.0
216,69.41712669374999,69.610140975,74.0,108.0
217,69.63771444375,70.07337525,55.0,84.0
218,70.29947769374999,70.60462408125,55.0,94.0
219,70.52006544375,70.771903125,59.0,119.0
220,68.09360019374999,70.81050598125,50.0,84.0
221,70.52006544375,70.918961625,67.0,114.0
222,70.74065319374999,70.92079985625,62.0,87.0
223,70.96124094375,71.02374080625,50.0,71.0
224,70.96124094375,71.066020125,59.0,104.0
225,67.87301244375,71.40241644375,43.0,100.0
226,71.40241644375,72.00351806249999,72.0,98.0
227,71.40241644375,72.03476799375,64.0,94.0
228,71.40241644375,72.0549885375,67.0,104.0
229,72.06417969374999,72.36564961875,60.0,85.0
230,72.28476744375,72.654251925,62.0,110.0
231,72.28476744375,72.9741041625,72.0,96.0
232,72.28476744375,72.977780625,67.0,107.0
233,72.72594294375,73.1652802125,60.0,77.0
234,71.84359194375,73.33623571875,55.0,74.0
235,73.16711844375,73.49432360624999,72.0,100.0
236,73.16711844375,73.62667625625,67.0,113.0
237,73.16711844375,73.94652849375,64.0,104.0
238,74.04946944375,74.32520413125,60.0,107.0
239,73.82888169374999,74.47226263125,55.0,89.0
240,71.40241644375,74.52005664375,36.0,93.0
241,71.40241644375,74.52005664375,48.0,93.0
242,74.27005719374999,74.5255713375,64.0,116.0
243,74.49064494375,74.860129425,67.0,116.0
244,74.93182044375,75.5917454625,69.0,94.0
245,74.71123269374999,75.63218655,64.0,88.0
246,74.93182044375,75.63953947499999,60.0,88.0
247,75.59358369374999,75.9814504875,57.0,87.0
248,74.93182044375,76.0623326625,45.0,88.0
249,75.37299594375,76.10093551874999,52.0,73.0
250,75.81417144375,76.2167440875,69.0,113.0
251,75.81417144375,76.21858231875,60.0,113.0
252,76.25534694375,76.3785084375,45.0,88.0
253,76.03475919374999,76.6138020375,64.0,81.0
254,76.69652244375,77.19284488125,67.0,107.0
255,76.69652244375,77.22960950625,62.0,94.0
256,77.13769794375,77.42078555625,52.0,89.0
257,77.35828569374999,77.75166718125,67.0,107.0
258,77.35828569374999,77.7755641875,59.0,96.0
259,77.79946119374999,77.97225493124999,62.0,104.0
260,77.57887344375,78.2755630875,52.0,100.0
261,76.69652244375,78.35093056875,40.0,89.0
262,76.91711019374999,78.3564452625,47.0,77.0
263,78.02004894375,78.4152686625,64.0,108.0
264,78.46122444375,79.08254660624999,72.0,107.0
265,78.46122444375,79.154237625,65.0,107.0
266,79.34357544375,79.6174719,72.0,102.0
267,79.34357544375,79.977765225,65.0,113.0
268,78.46122444375,80.00533869374999,41.0,94.0
269,78.46122444375,80.00533869374999,53.0,94.0
270,79.12298769374999,80.00901515625,60.0,88.0
271,79.56416319374999,80.08254440625,69.0,88.0
272,79.78475094375,80.11195610624999,72.0,87.0
273,80.22592644375,80.89871908125,64.0,110.0
274,80.88768969374999,81.20202723749999,59.0,87.0
275,80.22592644375,81.3196740375,71.0,110.0
276,81.10827744375,81.41526206249999,67.0,119.0
277,81.10827744375,81.4299679125,64.0,107.0
278,80.22592644375,81.65974681875,40.0,96.0
279,80.22592644375,81.65974681875,52.0,96.0
280,81.32886519374999,81.6652615125,59.0,104.0
281,81.54945294375,81.88401103125,69.0,102.0
282,81.99062844375,82.57518598125,60.0,108.0
283,81.99062844375,82.6799651625,69.0,107.0
284,81.99062844375,82.69283278124999,65.0,114.0
285,81.99062844375,82.75165618125,41.0,104.0
286,81.99062844375,82.75165618125,53.0,104.0
287,82.87297944375,83.18915521875,42.0,85.0
288,82.87297944375,83.21121399375,54.0,87.0
289,82.87297944375,83.32150786875,69.0,88.0
290,82.87297944375,83.35275779999999,66.0,95.0
291,82.87297944375,83.50533099375,62.0,96.0
292,83.53474269374999,83.7056982,62.0,87.0
293,83.53474269374999,84.17077070625,59.0,74.0
294,83.75533044375,84.31782920625,67.0,89.0
295,84.41709369374999,84.70385776875,59.0,90.0
296,84.63768144375,84.8123134125,62.0,87.0
297,84.85826919374999,84.9593719125,67.0,96.0
298,83.75533044375,85.1064304125,43.0,87.0
299,83.97591819374999,85.15973911875,50.0,88.0
300,84.19650594375,85.35091516874999,55.0,93.0
301,85.07885694375,85.35459163125,67.0,89.0
302,85.29944469374999,85.49062074375,72.0,82.0
303,85.52003244375,86.04025188749999,64.0,94.0
304,85.52003244375,86.17076630625,60.0,92.0
305,85.52003244375,86.17444276875,55.0,89.0
306,86.18179569374999,86.86561771875,55.0,78.0
307,86.40238344375,86.86561771875,55.0,93.0
308,85.52003244375,86.86745595,48.0,88.0
309,86.40238344375,87.16708764375,60.0,100.0
310,86.40238344375,87.1799552625,64.0,90.0
311,87.28473444375,87.89870368125,64.0,86.0
312,87.28473444375,87.92076245625,60.0,89.0
313,87.28473444375,87.93179184374999,55.0,83.0
314,87.28473444375,88.33252625624999,48.0,87.0
315,87.94649769374999,88.35274679999999,55.0,84.0
316,88.16708544375,88.35274679999999,55.0,104.0
317,88.16708544375,88.93178964375,64.0,93.0
318,88.60826094375,89.03105413125,47.0,84.0
319,89.04943644375,89.60458228125,60.0,91.0
320,89.04943644375,89.60825874375,64.0,86.0
321,89.04943644375,89.65237629375,57.0,89.0
322,89.71119969375,90.04575778125,57.0,76.0
323,89.93178744375,90.04575778125,57.0,96.0
324,89.04943644375,90.14502226875,45.0,88.0
325,90.37296294375,90.59355069375,45.0,77.0
326,89.93178744375,90.6284770875,64.0,89.0
327,89.93178744375,90.7167121875,60.0,100.0
328,90.81413844375,91.007152725,71.0,76.0
329,90.59355069375,91.0843584375,67.0,79.0
330,90.81413844375,91.10090251874999,74.0,93.0
331,91.69648944375,91.93913596875,55.0,104.0
332,91.91707719375,92.080679775,59.0,108.0
333,90.81413844375,92.15237079375,40.0,87.0
334,91.25531394375,92.183620725,47.0,77.0
335,91.47590169375,92.2350912,52.0,92.0
336,92.13766494375,92.507149425,62.0,113.0
337,92.57884044375,93.22222138125,65.0,89.0
338,92.57884044375,93.2645007,57.0,88.0
339,92.57884044375,93.27736831874999,60.0,89.0
340,93.46119144375,93.65604395625,53.0,38.0
341,93.46119144375,93.904205175,57.0,94.0
342,93.46119144375,93.91339633125,60.0,96.0
343,93.46119144375,93.9372933375,65.0,91.0
344,93.90236694375,94.0292049,53.0,86.0
345,92.57884044375,94.10457238125,41.0,88.0
346,94.34354244375,94.72037985,67.0,88.0
347,94.34354244375,94.72221808124999,71.0,87.0
348,94.34354244375,94.92809998125,62.0,86.0
349,94.34354244375,95.66339248125,43.0,82.0
350,94.78471794375,95.67074540624999,50.0,65.0
351,95.22589344375,95.82515683125,59.0,87.0
352,95.22589344375,95.845377375,67.0,89.0
353,95.22589344375,96.0769945125,62.0,87.0
354,96.10824444375,96.60824334374999,72.0,87.0
355,96.10824444375,96.64868443124999,64.0,86.0
356,96.10824444375,96.66706674375,67.0,88.0
357,96.99059544375,97.37294754375,60.0,80.0
358,96.99059544375,97.4225797875,64.0,81.0
359,96.99059544375,97.448315025,67.0,79.0
360,96.10824444375,97.45566794999999,36.0,87.0
361,96.10824444375,97.45566794999999,48.0,87.0
362,96.54941994375,97.492432575,55.0,64.0
363,96.99059544375,97.86191705625,72.0,86.0
364,97.87294644375,98.56044493124999,67.0,89.0
365,97.87294644375,98.59169486249999,76.0,91.0
366,97.87294644375,98.624783025,70.0,87.0
367,97.87294644375,98.8711060125,58.0,85.0
368,97.87294644375,98.98323811875,46.0,81.0
369,98.75529744375,99.27367865625,67.0,88.0
370,98.75529744375,99.28838450625,70.0,89.0
371,98.75529744375,99.5181634125,76.0,88.0
372,99.41706069375,100.13213265,72.0,81.0
373,99.41706069375,100.18360312499999,69.0,72.0
374,99.63764844375,100.26632353125,79.0,93.0
375,100.07882394375,100.6725726375,53.0,42.0
376,100.51999944375,100.9813954875,72.0,91.0
377,100.51999944375,100.9813954875,79.0,88.0
378,100.51999944375,100.98691018125,69.0,88.0
379,99.63764844375,101.04389535,41.0,90.0
380,100.96117494375,101.38580636249999,53.0,81.0
381,101.18176269375,101.71852621875,71.0,85.0
382,101.40235044375,101.76080553749999,77.0,91.0
383,101.18176269375,101.82698186249999,67.0,71.0
384,102.28470144375,102.72403871249999,60.0,88.0
385,102.72587694375,102.86190605624999,62.0,79.0
386,102.94646469375,103.0622732625,60.0,66.0
387,103.16705244375,104.1725649375,59.0,76.0
388,101.84352594375,104.62293159375,50.0,71.0
389,101.40235044375,104.63028451875,43.0,87.0
390,102.06411369375,104.63028451875,55.0,83.0
391,106.69645644375,107.874762675,67.0,80.0
392,106.69645644375,107.93726253749999,48.0,80.0
393,106.69645644375,107.9446154625,60.0,74.0
394,106.69645644375,107.9960859375,64.0,77.0
395,108.46115844375,109.7828467125,67.0,67.0
396,108.46115844375,109.82880249374999,59.0,70.0
397,108.46115844375,110.05306670625,62.0,73.0
398,108.46115844375,110.06225786249999,47.0,70.0
399,110.22586044375,112.97953085625,57.0,63.0
400,110.22586044375,113.00894255624999,67.0,70.0
401,110.22586044375,113.065927725,64.0,72.0
402,110.22586044375,113.11004527499999,45.0,70.0
403,110.22586044375,113.12291289375,60.0,69.0
404,113.75526444375,114.6946006125,53.0,81.0
405,113.75526444375,114.71114469375,41.0,77.0
406,113.75526444375,115.06408509375,65.0,67.0
407,113.75526444375,115.11555556875,60.0,68.0
408,113.75526444375,115.3195992375,69.0,75.0
409,115.51996644375,116.49239077499999,42.0,71.0
410,115.51996644375,116.5291554,54.0,72.0
411,115.51996644375,116.889448725,69.0,78.0
412,115.51996644375,116.9409192,66.0,79.0
413,115.51996644375,116.95011035625,62.0,82.0
414,117.28466844375,120.3122353125,43.0,68.0
415,117.28466844375,120.3857645625,67.0,77.0
416,117.28466844375,120.41701449375,59.0,67.0
417,117.28466844375,120.4445879625,55.0,68.0
418,117.28466844375,120.47216143125,62.0,64.0
419,120.81407244374999,122.18171649375,41.0,82.0
420,121.25524794374999,122.42803948125,53.0,69.0
421,121.69642344374999,122.61370083749999,57.0,77.0
422,122.13759894374999,122.65965661874999,65.0,83.0
423,123.01994994374999,123.5401693875,55.0,76.0
424,122.57877444374999,123.57877224375,43.0,85.0
425,123.90230094374999,124.40229984375,42.0,73.0
426,123.46112544374999,124.43538800625,67.0,87.0
427,123.46112544374999,124.45009385624999,59.0,87.0
428,125.22582744374999,125.34163601249999,67.0,84.0
429,124.34347644374999,125.69641464374999,40.0,88.0
430,124.78465194374999,126.13023721875,52.0,82.0
431,125.22582744374999,126.15597245625,59.0,87.0
432,125.66700294374999,126.3195750375,64.0,83.0
433,126.10817844374999,127.38574916249999,60.0,73.0
434,126.99052944374999,127.43538140625,57.0,83.0
435,126.54935394374999,127.462954875,52.0,68.0
436,126.10817844374999,127.52361650625,45.0,85.0
437,127.43170494374999,127.7681012625,64.0,79.0
438,127.87288044374999,129.19824517499998,42.0,85.0
439,128.75523144375,129.39677415,57.0,70.0
440,128.31405594375,129.6210383625,53.0,61.0
441,129.19640694375,129.63390598125,64.0,73.0
442,129.63758244375,130.18169889375,67.0,81.0
443,129.63758244375,130.27912515,59.0,79.0
444,129.63758244375,130.78831520625,43.0,70.0
445,130.51993344375,130.9960353375,59.0,76.0
446,130.51993344375,131.27912295,67.0,78.0
447,130.07875794375,131.33610811875,55.0,44.0
448,131.40228444375,131.85081286874998,65.0,73.0
449,131.40228444375,131.94640089375,60.0,75.0
450,131.84345994375,132.32323829999999,55.0,38.0
451,132.28463544375,132.74051679375,60.0,83.0
452,132.28463544375,132.7754431875,65.0,79.0
453,132.72581094375,134.08977853125,55.0,50.0
454,131.40228444375,134.0916167625,48.0,72.0
455,133.16698644375,134.10080791875,60.0,71.0
456,133.16698644375,134.11919023125,64.0,78.0
457,134.93168844375,135.4592608125,69.0,78.0
458,134.93168844375,135.46477550625,64.0,78.0
459,134.93168844375,135.47580489375,60.0,75.0
460,134.93168844375,135.94639209375,45.0,76.0
461,135.81403944375,136.21477385625,69.0,83.0
462,135.81403944375,136.29197956875,60.0,79.0
463,135.81403944375,136.30668541875,64.0,81.0
464,136.69639044375,137.2349922,67.0,84.0
465,136.69639044375,137.24969805,64.0,84.0
466,136.69639044375,137.2644039,59.0,81.0
467,136.69639044375,138.00153463125,40.0,84.0
468,137.57874144375,138.0254316375,67.0,83.0
469,137.57874144375,138.0401374875,59.0,82.0
470,137.57874144375,138.0695491875,64.0,80.0
471,138.46109244375,139.04932644375,60.0,82.0
472,138.46109244375,139.051164675,69.0,87.0
473,138.46109244375,139.0548411375,65.0,86.0
474,138.46109244375,139.55667826875,41.0,86.0
475,139.34344344375,139.95557445,65.0,88.0
476,139.34344344375,139.97579499375,69.0,86.0
477,139.34344344375,140.10079471875,60.0,84.0
478,140.22579444375,140.82873429375,67.0,84.0
479,140.22579444375,140.86917538125,60.0,84.0
480,140.22579444375,140.8710136125,64.0,84.0
481,140.22579444375,141.4960122375,48.0,81.0
482,141.10814544375,141.54564448125,60.0,83.0
483,141.10814544375,141.5474827125,64.0,86.0
484,141.10814544375,141.55667386874998,67.0,86.0
485,141.99049644375,142.54931874375,65.0,90.0
486,141.99049644375,142.56034813124998,62.0,91.0
487,141.99049644375,142.57321575,57.0,88.0
488,141.99049644375,142.609980375,60.0,91.0
489,142.65225969374998,143.11181750625,50.0,73.0
490,142.87284744375,143.27909655,57.0,96.0
491,142.87284744375,143.330567025,65.0,94.0
492,141.99049644375,143.36733164999998,38.0,98.0
493,142.87284744375,143.40593450625,60.0,104.0
494,143.75519844375,144.25152088125,52.0,86.0
495,143.75519844375,144.41328523125,67.0,89.0
496,143.75519844375,144.42615285,64.0,90.0
497,143.75519844375,144.4298293125,59.0,88.0
498,144.41696169374998,144.83975488125,52.0,77.0
499,144.63754944375,145.1283571875,67.0,96.0
500,144.63754944375,145.13754834374998,59.0,92.0
501,144.63754944375,145.14306303749999,64.0,100.0
502,143.75519844375,145.14857773125,40.0,85.0
503,145.07872494375,145.27357745625,52.0,81.0
504,145.51990044375,145.96842886874998,60.0,102.0
505,145.51990044375,145.98497294999999,57.0,94.0
506,145.51990044375,145.99784056875,41.0,93.0
507,145.51990044375,145.9996788,65.0,93.0
508,146.40225144375,146.78828000625,42.0,90.0
509,146.40225144375,146.82688286249999,66.0,100.0
510,146.40225144375,146.845265175,57.0,91.0
511,146.40225144375,146.85445633125,62.0,102.0
512,147.28460244375,148.0401154875,62.0,110.0
513,147.28460244375,148.04563018125,59.0,91.0
514,147.28460244375,148.051144875,67.0,107.0
515,148.16695344375,148.50518799374998,60.0,98.0
516,147.72577794375,148.60445248125,50.0,71.0
517,147.94636569374998,148.60445248125,55.0,87.0
518,147.28460244375,148.68901111875,43.0,96.0
519,148.60812894375,148.82320199999998,62.0,98.0
520,148.82871669374998,148.98312811875,60.0,72.0
521,148.82871669374998,149.29195096875,59.0,77.0
522,148.93901056875,149.37099491249998,62.0,86.0
523,149.04930444375,149.3857007625,55.0,89.0
524,149.04930444375,149.40592130625,67.0,104.0
525,149.04930444375,149.44636239375,43.0,88.0
526,150.81400644375,151.4151080625,72.0,98.0
527,150.81400644375,151.44635799374998,64.0,94.0
528,150.81400644375,151.4665785375,67.0,104.0
529,151.47576969374998,151.77723961875,60.0,85.0
530,151.69635744375,152.065841925,62.0,110.0
531,151.69635744375,152.3856941625,72.0,96.0
532,151.69635744375,152.389370625,67.0,107.0
533,152.13753294375,152.57687021249998,60.0,77.0
534,151.25518194375,152.74782571875,55.0,74.0
535,152.57870844375,152.90591360624998,72.0,100.0
536,152.57870844375,153.03826625624998,67.0,113.0
537,152.57870844375,153.35811849375,64.0,104.0
538,153.46105944375,153.73679413125,60.0,107.0
539,153.24047169374998,153.88385263125,55.0,89.0
540,150.81400644375,153.93164664374999,36.0,93.0
541,150.81400644375,153.93164664374999,48.0,93.0
542,153.68164719375,153.9371613375,64.0,116.0
543,153.90223494375,154.271719425,67.0,116.0
544,154.34341044375,155.0033354625,69.0,94.0
545,154.12282269374998,155.04377655,64.0,88.0
546,154.34341044375,155.05112947499998,60.0,88.0
547,155.00517369374998,155.3930404875,57.0,87.0
548,154.34341044375,155.4739226625,45.0,88.0
549,154.78458594375,155.51252551874998,52.0,73.0
550,155.22576144375,155.6283340875,69.0,113.0
551,155.22576144375,155.63017231875,60.0,113.0
552,155.66693694375,155.7900984375,45.0,88.0
553,155.44634919375,156.02539203749998,64.0,81.0
554,156.10811244375,156.60443488125,67.0,107.0
555,156.10811244375,156.64119950625,62.0,94.0
556,156.54928794375,156.83237555624999,52.0,89.0
557,156.76987569374998,157.16325718125,67.0,107.0
558,156.76987569374998,157.1871541875,59.0,96.0
559,157.21105119375,157.38384493125,62.0,104.0
560,156.99046344375,157.6871530875,52.0,100.0
561,156.10811244375,157.76252056875,40.0,89.0
562,156.32870019375,157.7680352625,47.0,77.0
563,157.43163894375,157.8268586625,64.0,108.0
564,157.87281444375,158.49413660624998,72.0,107.0
565,157.87281444375,158.565827625,65.0,107.0
566,158.75516544375,159.0290619,72.0,102.0
567,158.75516544375,159.389355225,65.0,113.0
568,157.87281444375,159.41692869374998,41.0,94.0
569,157.87281444375,159.41692869374998,53.0,94.0
570,158.53457769374998,159.42060515625,60.0,88.0
571,158.97575319375,159.49413440625,69.0,88.0
572,159.19634094375,159.52354610625,72.0,87.0
573,159.63751644375,160.31030908124998,64.0,110.0
574,160.29927969374998,160.6136172375,59.0,87.0
575,159.63751644375,160.73126403749998,71.0,110.0
576,160.51986744375,160.8268520625,67.0,119.0
577,160.51986744375,160.8415579125,64.0,107.0
578,159.63751644375,161.07133681874998,40.0,96.0
579,159.63751644375,161.07133681874998,52.0,96.0
580,160.74045519375,161.07685151249999,59.0,104.0
581,160.96104294375,161.29560103125,69.0,102.0
582,161.40221844375,161.98677598125,60.0,108.0
583,161.40221844375,162.0915551625,69.0,107.0
584,161.40221844375,162.10442278125,65.0,114.0
585,161.40221844375,162.16324618125,41.0,104.0
586,161.40221844375,162.16324618125,53.0,104.0
587,162.28456944375,162.60074521875,42.0,85.0
588,162.28456944375,162.62280399374998,54.0,87.0
589,162.28456944375,162.73309786875,69.0,88.0
590,162.28456944375,162.7643478,66.0,95.0
591,162.28456944375,162.91692099374998,62.0,96.0
592,162.94633269374998,163.1172882,62.0,87.0
593,162.94633269374998,163.58236070625,59.0,74.0
594,163.16692044375,163.72941920625,67.0,89.0
595,163.82868369375,164.11544776875,59.0,90.0
596,164.04927144375,164.2239034125,62.0,87.0
597,164.26985919375,164.3709619125,67.0,96.0
598,163.16692044375,164.5180204125,43.0,87.0
599,163.38750819375,164.57132911875,50.0,88.0
600,163.60809594375,164.76250516874998,55.0,93.0
601,164.49044694375,164.76618163125,67.0,89.0
602,164.71103469375,164.90221074375,72.0,82.0
603,164.93162244375,165.4518418875,64.0,94.0
604,164.93162244375,165.58235630625,60.0,92.0
605,164.93162244375,165.58603276875,55.0,89.0
606,165.59338569375,166.27720771875,55.0,78.0
607,165.81397344375,166.27720771875,55.0,93.0
608,164.93162244375,166.27904594999998,48.0,88.0
609,165.81397344375,166.57867764374998,60.0,100.0
610,165.81397344375,166.5915452625,64.0,90.0
611,166.69632444375,167.31029368125,64.0,86.0
612,166.69632444375,167.33235245625,60.0,89.0
613,166.69632444375,167.34338184375,55.0,83.0
614,166.69632444375,167.74411625624998,48.0,87.0
615,167.35808769375,167.7643368,55.0,84.0
616,167.57867544375,167.7643368,55.0,104.0
617,167.57867544375,168.34337964374998,64.0,93.0
618,168.01985094375,168.44264413125,47.0,84.0
619,168.46102644375,169.01617228125,60.0,91.0
620,168.46102644375,169.01984874375,64.0,86.0
621,168.46102644375,169.06396629374998,57.0,89.0
622,169.12278969375,169.45734778125,57.0,76.0
623,169.34337744375,169.45734778125,57.0,96.0
624,168.46102644375,169.55661226875,45.0,88.0
625,169.78455294375,170.00514069375,45.0,77.0
626,169.34337744375,170.0400670875,64.0,89.0
627,169.34337744375,170.1283021875,60.0,100.0
628,170.22572844375,170.418742725,71.0,76.0
629,170.00514069375,170.4959484375,67.0,79.0
630,170.22572844375,170.51249251874998,74.0,93.0
631,171.10807944375,171.35072596875,55.0,104.0
632,171.32866719375,171.49226977499998,59.0,108.0
633,170.22572844375,171.56396079375,40.0,87.0
634,170.66690394375,171.595210725,47.0,77.0
635,170.88749169375,171.6466812,52.0,92.0
636,171.54925494375,171.91873942499998,62.0,113.0
637,171.99043044375,172.63381138124998,65.0,89.0
638,171.99043044375,172.6760907,57.0,88.0
639,171.99043044375,172.68895831875,60.0,89.0
640,172.87278144375,173.06763395625,53.0,38.0
641,172.87278144375,173.315795175,57.0,94.0
642,172.87278144375,173.32498633125,60.0,96.0
643,172.87278144375,173.34888333749998,65.0,91.0
644,173.31395694375,173.4407949,53.0,86.0
645,171.99043044375,173.51616238124998,41.0,88.0
646,173.75513244375,174.13196985,67.0,88.0
647,173.75513244375,174.13380808124998,71.0,87.0
648,173.75513244375,174.33968998125,62.0,86.0
649,173.75513244375,175.07498248125,43.0,82.0
650,174.19630794374999,175.08233540625,50.0,65.0
651,174.63748344375,175.23674683125,59.0,87.0
652,174.63748344375,175.256967375,67.0,89.0
653,174.63748344375,175.48858451249998,62.0,87.0
654,175.51983444375,176.01983334374998,72.0,87.0
655,175.51983444375,176.06027443125,64.0,86.0
656,175.51983444375,176.07865674375,67.0,88.0
657,176.40218544375,176.78453754375,60.0,80.0
658,176.40218544375,176.8341697875,64.0,81.0
659,176.40218544375,176.859905025,67.0,79.0
660,175.51983444375,176.86725794999998,36.0,87.0
661,175.51983444375,176.86725794999998,48.0,87.0
662,175.96100994374999,176.904022575,55.0,64.0
663,176.40218544375,177.27350705625,72.0,86.0
664,179.04923844375,182.124599325,36.0,91.0
665,182.57864244375,182.742245025,67.0,98.0
666,182.57864244375,182.92606815,69.0,114.0
667,182.79923019375,182.92606815,69.0,93.0
668,183.01981794374998,183.168714675,74.0,108.0
669,183.24040569375,183.41319943125,67.0,94.0
670,183.46099344375,183.58231670625,69.0,88.0
671,183.68158119375,183.81577207499998,74.0,110.0
672,183.90216894374998,184.04187451875,67.0,91.0
673,184.12275669375,184.21834471875,69.0,91.0
674,184.34334444375,184.47202063125,74.0,107.0
675,184.56393219375,184.68893191875,67.0,93.0
676,184.78451994374998,184.87643150625,69.0,91.0
677,185.00510769375,185.15216619375,74.0,107.0
678,185.22569544375,185.34701870625,67.0,90.0
679,185.44628319375,185.536356525,69.0,90.0
680,182.57864244375,185.5988563875,72.0,110.0
681,182.57864244375,185.60437108124998,65.0,107.0
682,182.57864244375,185.60988577499998,53.0,89.0
683,185.66687094374998,185.82312059999998,74.0,108.0
684,185.88745869375,185.97937025625,67.0,94.0
685,186.10804644375,186.21834031875,64.0,92.0
686,186.10804644375,186.21834031875,64.0,94.0
687,186.32863419375,186.41319283125,69.0,96.0
688,186.54922194374998,186.65400112499998,71.0,107.0
689,186.76980969375,186.86907418125,64.0,87.0
690,186.99039744375,187.065764925,69.0,98.0
691,187.21098519375,187.33414668749998,72.0,96.0
692,187.43157294374998,187.5326756625,64.0,88.0
693,187.65216069375,187.7348811,69.0,89.0
694,187.87274844375,187.9701747,71.0,107.0
695,188.09333619375,188.183409525,64.0,88.0
696,188.31392394374998,188.38745319375,69.0,98.0
697,188.53451169375,188.65399672499998,72.0,100.0
698,188.75509944375,188.83965808124998,64.0,85.0
699,188.97568719375,189.051054675,69.0,88.0
700,186.10804644375,189.17053970625,40.0,88.0
701,186.10804644375,189.20730433125,52.0,87.0
702,186.10804644375,189.25509834375,74.0,90.0
703,186.10804644375,189.28083358125,67.0,100.0
704,189.19627494374998,189.28451004375,71.0,107.0
705,189.41686269375,189.53634772499998,72.0,96.0
706,189.63745044375,189.78818540625,69.0,89.0
707,189.63745044375,189.78818540625,69.0,108.0
708,189.85803819375,189.95178798749998,72.0,91.0
709,189.63745044375,190.19075805,74.0,91.0
710,190.07862594374998,190.19075805,74.0,100.0
711,190.29921369375,190.40950756875,69.0,92.0
712,190.51980144375,190.60436008125,72.0,91.0
713,190.74038919375,190.845168375,74.0,107.0
714,190.96097694374998,191.06391789375,69.0,94.0
715,191.18156469375,191.26060863749998,72.0,91.0
716,191.40215244375,191.51428454999999,74.0,104.0
717,191.62274019375,191.72200468124998,69.0,89.0
718,191.84332794374998,191.9223718875,72.0,93.0
719,192.06391569375,192.1760478,74.0,107.0
720,192.28450344375,192.37641500625,69.0,89.0
721,192.50509119375,192.580458675,72.0,96.0
722,189.63745044375,192.698105475,53.0,89.0
723,189.63745044375,192.70362016875,65.0,107.0
724,189.63745044375,192.7532524125,41.0,88.0
725,192.72567894374998,192.8341345875,74.0,107.0
726,192.94626669375,193.036340025,69.0,89.0
727,193.16685444375,195.918686625,62.0,98.0
728,193.16685444375,196.01611288125,71.0,93.0
729,193.16685444375,196.03633342499998,40.0,87.0
730,193.16685444375,196.095156825,52.0,87.0
731,193.16685444375,196.10802444375,67.0,102.0
732,196.69625844375,197.41316863125,65.0,89.0
733,196.69625844375,197.418683325,72.0,88.0
734,196.69625844375,197.42787448125,76.0,88.0
735,196.69625844375,197.4407421,69.0,93.0
736,197.57860944375,198.35434303124998,72.0,79.0
737,197.57860944375,198.36169595625,65.0,81.0
738,197.57860944375,198.39662235,69.0,83.0
739,198.46096044375,199.1944147125,72.0,81.0
740,198.46096044375,199.19625294374998,65.0,83.0
741,198.46096044375,199.22198818125,69.0,85.0
742,197.57860944375,199.27345865625,76.0,85.0
743,199.34331144375,199.88007496875,76.0,81.0
744,199.34331144375,199.90213374375,65.0,84.0
745,199.34331144375,200.04183931875,72.0,82.0
746,199.34331144375,200.09698625625,69.0,86.0
747,196.69625844375,200.1576478875,53.0,89.0
748,200.22566244375,200.962793175,64.0,90.0
749,200.22566244375,200.98485195,72.0,90.0
750,200.22566244375,200.99588133749998,69.0,90.0
751,200.22566244375,200.99771956875,33.0,90.0
752,200.22566244375,201.10801344375,45.0,90.0
753,201.10801344375,201.60801234375,64.0,98.0
754,201.10801344375,201.6282328875,72.0,98.0
755,201.10801344375,201.6502916625,69.0,98.0
756,201.76977669375,202.0694083875,64.0,98.0
757,201.76977669375,202.08962893125,69.0,98.0
758,201.76977669375,202.08962893125,72.0,98.0
759,201.54918894374998,202.32124606874999,40.0,98.0
760,201.76977669375,202.43153994374998,45.0,98.0
761,202.21095219375,202.63926007499998,64.0,98.0
762,202.21095219375,202.64845123125,72.0,98.0
763,202.21095219375,202.65948061875,69.0,98.0
764,202.65212769375,202.87271544375,33.0,98.0
765,202.87271544375,203.09330319375,45.0,100.0
766,202.87271544375,203.19072945,64.0,100.0
767,202.87271544375,203.2017588375,72.0,100.0
768,202.87271544375,203.212788225,69.0,100.0
769,203.09330319375,203.31389094374998,33.0,107.0
770,203.31389094374998,203.53447869375,38.0,107.0
771,203.53447869375,203.75506644375,40.0,97.0
772,203.75506644375,204.0326393625,67.0,87.0
773,203.75506644375,204.065727525,31.0,87.0
774,203.75506644375,204.065727525,43.0,87.0
775,203.75506644375,204.08043337499998,59.0,87.0
776,203.75506644375,204.08043337499998,62.0,89.0
777,204.19624194374998,204.48668248125,31.0,88.0
778,204.19624194374998,204.48668248125,43.0,88.0
779,204.19624194374998,204.49587363749998,67.0,84.0
780,204.19624194374998,204.52528533749998,59.0,81.0
781,204.19624194374998,204.53631472499998,62.0,84.0
782,204.63741744375,204.92050505625,31.0,88.0
783,204.63741744375,204.92050505625,43.0,88.0
784,204.63741744375,204.92234328749998,67.0,88.0
785,204.63741744375,204.9296962125,59.0,84.0
786,204.63741744375,204.93888736875,62.0,91.0
787,205.07859294374998,205.34697470625,67.0,88.0
788,205.07859294374998,205.36903348125,31.0,89.0
789,205.07859294374998,205.36903348125,43.0,89.0
790,205.07859294374998,205.36903348125,59.0,86.0
791,205.07859294374998,205.37822463749998,62.0,91.0
792,205.51976844375,205.80653251875,31.0,92.0
793,205.51976844375,205.80653251875,43.0,92.0
794,205.51976844375,205.80653251875,67.0,89.0
795,205.51976844375,205.81020898124999,59.0,86.0
796,205.51976844375,205.82491483125,62.0,92.0
797,205.96094394374998,206.22932570625,31.0,89.0
798,205.96094394374998,206.22932570625,43.0,89.0
799,205.96094394374998,206.2348404,67.0,89.0
800,205.96094394374998,206.24954624999998,59.0,86.0
801,205.96094394374998,206.25506094374998,62.0,91.0
802,206.40211944375,206.65947181875,67.0,88.0
803,206.40211944375,206.66131005,31.0,91.0
804,206.40211944375,206.66131005,43.0,91.0
805,206.40211944375,206.6943982125,59.0,84.0
806,206.40211944375,206.70358936875,62.0,91.0
807,206.84329494374998,207.05285330625,67.0,87.0
808,206.84329494374998,207.07491208125,31.0,94.0
809,206.84329494374998,207.07491208125,43.0,94.0
810,206.84329494374998,207.0767503125,59.0,86.0
811,206.84329494374998,207.0767503125,62.0,91.0
812,207.28447044375,207.565719825,60.0,92.0
813,207.28447044375,207.57123451875,63.0,104.0
814,207.28447044375,207.59329329374998,68.0,96.0
815,207.28447044375,207.60983737499998,32.0,104.0
816,207.28447044375,207.60983737499998,44.0,104.0
817,207.72564594374998,208.006895325,60.0,92.0
818,207.72564594374998,208.01241001875,63.0,104.0
819,207.72564594374998,208.03446879375,68.0,96.0
820,207.72564594374998,208.051012875,32.0,104.0
821,207.72564594374998,208.051012875,44.0,104.0
822,208.16682144375,208.448070825,60.0,99.0
823,208.16682144375,208.45358551875,63.0,99.0
824,208.16682144375,208.47564429374998,68.0,99.0
825,208.16682144375,208.49218837499998,32.0,99.0
826,208.16682144375,208.49218837499998,44.0,99.0
827,208.60799694374998,208.889246325,60.0,106.0
828,208.60799694374998,208.89476101875,63.0,106.0
829,208.60799694374998,208.91681979375,68.0,106.0
830,208.60799694374998,208.933363875,32.0,106.0
831,208.60799694374998,208.933363875,44.0,106.0
832,209.04917244375,209.18520155624998,60.0,111.0
833,209.04917244375,209.19255448125,63.0,111.0
834,209.04917244375,209.21461325625,68.0,111.0
835,209.04917244375,209.23115733749998,32.0,111.0
836,209.04917244375,209.23115733749998,44.0,111.0
837,209.26976019375,209.551009575,60.0,127.0
838,209.26976019375,209.55652426875,63.0,127.0
839,209.26976019375,209.57858304375,68.0,127.0
840,209.26976019375,209.595127125,32.0,127.0
841,209.26976019375,209.595127125,44.0,127.0
842,210.81387444375,211.32490273125,68.0,88.0
843,210.81387444375,211.4002702125,65.0,89.0
844,210.81387444375,211.51240231875,61.0,87.0
845,211.69622544375,212.0877687,61.0,87.0
846,211.69622544375,212.12269509375,65.0,88.0
847,211.69622544375,212.13188624999998,68.0,88.0
848,210.81387444375,212.24769481875,37.0,81.0
849,210.81387444375,212.33225345625,49.0,81.0
850,212.35798869375,212.46828256875,37.0,97.0
851,212.13740094374998,212.646591,56.0,69.0
852,212.57857644375,213.2054133,73.0,87.0
853,212.57857644375,213.24769261875,65.0,87.0
854,212.57857644375,213.24953084999999,68.0,92.0
855,212.57857644375,213.94254403124998,37.0,86.0
856,212.57857644375,213.94254403124998,49.0,86.0
857,213.24033969375,213.9443822625,56.0,81.0
858,213.46092744375,214.10982307499998,73.0,88.0
859,213.46092744375,214.13004361875,65.0,89.0
860,213.46092744375,214.20357286875,68.0,96.0
861,214.34327844375,214.88371843125,73.0,87.0
862,214.34327844375,214.9149683625,70.0,87.0
863,214.34327844375,214.918644825,65.0,84.0
864,214.78445394374998,215.4112908,53.0,42.0
865,214.34327844375,215.41864372499998,46.0,85.0
866,215.66680494374998,215.771584125,46.0,83.0
867,214.34327844375,215.77709881875,34.0,85.0
868,215.22562944375,215.88003976874998,73.0,88.0
869,215.22562944375,215.98481895,65.0,90.0
870,215.88739269375,215.99768656875,34.0,97.0
871,215.22562944375,216.0289365,70.0,91.0
872,216.10798044375,216.7311408375,72.0,90.0
873,216.10798044375,216.7458466875,65.0,89.0
874,216.10798044375,216.7605525375,68.0,98.0
875,216.76974369375,217.14841933124998,53.0,72.0
876,216.99033144375,217.43518340625,65.0,102.0
877,216.10798044375,217.44805102499998,41.0,88.0
878,216.99033144375,217.48665388125,68.0,110.0
879,216.99033144375,217.5767272125,72.0,104.0
880,217.43150694374998,217.71827101875,53.0,85.0
881,217.65209469375,217.76238856875,41.0,97.0
882,217.87268244375,218.06569672499998,58.0,88.0
883,217.87268244375,218.300990325,66.0,91.0
884,217.87268244375,218.30650501875,61.0,96.0
885,218.53444569375,218.92047425625,54.0,61.0
886,217.87268244375,218.93885656875,42.0,87.0
887,218.75503344375,219.26422349999999,70.0,93.0
888,218.75503344375,219.37451737499998,61.0,89.0
889,218.75503344375,219.44437016249998,66.0,100.0
890,219.19620894374998,219.5399581875,42.0,81.0
891,219.63738444375,220.2348096,61.0,86.0
892,219.63738444375,220.25135368124998,68.0,88.0
893,219.63738444375,220.2531919125,65.0,91.0
894,220.29914769375,220.595102925,53.0,77.0
895,219.63738444375,221.00135203124998,41.0,87.0
896,220.51973544375,221.0031902625,68.0,98.0
897,220.51973544375,221.10796944375,61.0,93.0
898,220.96091094374998,221.18149869375,53.0,83.0
899,220.51973544375,221.25502794374998,65.0,107.0
900,221.18149869375,221.29179256875,41.0,97.0
901,221.40208644375,221.51238031875,54.0,97.0
902,221.40208644375,221.6281888875,42.0,89.0
903,221.40208644375,221.9149529625,61.0,89.0
904,221.40208644375,222.1723053375,66.0,104.0
905,221.40208644375,222.2090699625,70.0,100.0
906,222.28443744375,222.60061321875,43.0,85.0
907,222.28443744375,222.62267199375,55.0,87.0
908,222.28443744375,222.73296586875,70.0,88.0
909,222.28443744375,222.7642158,67.0,95.0
910,222.28443744375,222.91678899375,63.0,96.0
911,222.94620069375,223.11715619999998,63.0,87.0
912,222.94620069375,223.58222870625,60.0,74.0
913,223.16678844375,223.72928720624998,68.0,89.0
914,223.82855169375,224.11531576874998,60.0,90.0
915,224.04913944375,224.22377141249999,63.0,87.0
916,224.26972719375,224.3708299125,68.0,96.0
917,223.16678844375,224.51788841249999,44.0,87.0
918,223.38737619375,224.57119711874998,51.0,88.0
919,223.60796394374998,224.76237316875,56.0,93.0
920,224.49031494374998,224.76604963124998,68.0,89.0
921,224.71090269375,224.90207874375,73.0,82.0
922,224.49031494374998,224.93149044375,32.0,97.0
923,224.93149044375,225.4517098875,77.0,94.0
924,224.93149044375,225.58222430625,73.0,92.0
925,224.93149044375,225.58590076874998,68.0,89.0
926,225.59325369375,226.27707571874998,56.0,78.0
927,224.93149044375,226.27891395,37.0,88.0
928,224.93149044375,226.27891395,49.0,88.0
929,225.81384144375,226.48295761875,68.0,93.0
930,225.81384144375,226.57854564375,73.0,100.0
931,226.47560469375,226.58589856875,37.0,97.0
932,225.81384144375,226.5914132625,77.0,90.0
933,226.69619244375,227.31016168124998,77.0,86.0
934,226.69619244375,227.33222045624998,73.0,89.0
935,226.69619244375,227.34324984375,68.0,83.0
936,226.69619244375,227.74398425625,49.0,87.0
937,227.35795569375,227.7642048,56.0,84.0
938,226.69619244375,227.90942506874998,37.0,87.0
939,227.57854344375,228.17780683125,68.0,104.0
940,227.57854344375,228.34324764375,77.0,93.0
941,228.01971894374998,228.44251213125,48.0,84.0
942,228.46089444375,229.01604028124999,73.0,91.0
943,228.46089444375,229.01971674375,77.0,86.0
944,228.46089444375,229.06383429375,70.0,89.0
945,229.12265769375,229.45721578125,58.0,76.0
946,228.46089444375,229.55648026875,34.0,88.0
947,228.46089444375,229.55648026875,46.0,88.0
948,229.34324544375,229.77890625,70.0,96.0
949,229.78442094374998,229.87081781249998,46.0,77.0
950,229.34324544375,230.0399350875,77.0,89.0
951,230.00500869375,230.11530256875,34.0,97.0
952,229.34324544375,230.1281701875,73.0,100.0
953,230.22559644375,230.41861072499998,72.0,76.0
954,230.00500869375,230.4958164375,68.0,79.0
955,230.22559644375,230.51236051875,75.0,93.0
956,231.10794744375,231.35059396875,56.0,104.0
957,230.22559644375,231.43882906874998,41.0,87.0
958,231.32853519374999,231.492137775,60.0,108.0
959,230.66677194374998,231.59507872499998,48.0,77.0
960,230.88735969375,231.64654919999998,53.0,92.0
961,231.54912294374998,231.65941681875,41.0,97.0
962,231.54912294374998,231.918607425,63.0,113.0
963,231.99029844375,232.63367938125,66.0,89.0
964,231.99029844375,232.6759587,58.0,88.0
965,231.99029844375,232.68882631875,61.0,89.0
966,232.87264944375,233.06750195625,54.0,38.0
967,232.87264944375,233.315663175,58.0,94.0
968,232.87264944375,233.32485433124998,61.0,96.0
969,232.87264944375,233.3487513375,66.0,91.0
970,233.31382494374998,233.44066289999998,54.0,86.0
971,231.99029844375,233.51603038125,42.0,88.0
972,233.75500044375,234.13183784999998,68.0,88.0
973,233.75500044375,234.13367608125,72.0,87.0
974,233.75500044375,234.33955798124998,63.0,86.0
975,233.75500044375,235.07485048125,44.0,82.0
976,234.19617594374998,235.08220340625,51.0,65.0
977,234.63735144375,235.23661483125,60.0,87.0
978,234.63735144375,235.25683537499998,68.0,89.0
979,234.63735144375,235.4884525125,63.0,87.0
980,235.51970244375,236.01970134375,73.0,87.0
981,235.51970244375,236.06014243125,65.0,86.0
982,235.51970244375,236.07852474375,68.0,88.0
983,235.51970244375,236.40205344375,49.0,87.0
984,236.62264119374998,236.8046260875,61.0,81.0
985,236.84322894374998,236.99764036874998,65.0,87.0
986,237.06381669375,237.17778703125,68.0,89.0
987,237.28440444375,237.83403558749998,72.0,108.0
988,237.94616769375,238.40204904375,73.0,108.0
989,237.72557994374998,238.53256346249998,56.0,74.0
990,237.28440444375,238.580357475,49.0,88.0
991,238.38734319374998,239.00498889374998,72.0,100.0
992,239.93145744375,240.39652995,63.0,82.0
993,239.49028194375,240.44248573125,58.0,78.0
994,239.04910644375,240.69064695,51.0,90.0
995,240.37263294375,240.80829375,75.0,38.0
996,241.8266738625,242.08218800625,60.0,76.0
997,242.0546145375,242.2899081375,63.0,80.0
998,242.30277575624999,242.37814323749998,68.0,77.0
999,242.57115751875,242.9516713875,72.0,78.0
1000,242.86343628749998,243.271523625,75.0,79.0
1001,243.227406075,244.69063814999998,80.0,82.0
1002,241.25498394375,244.70718223125,51.0,67.0
1003,240.81380844375,244.72556454374998,44.0,84.0
1004,241.60792434375,244.74946154999998,56.0,81.0
1005,246.10791444375,246.771515925,73.0,79.0
1006,246.10791444375,246.84320694375,68.0,81.0
1007,246.10791444375,246.85791279375,65.0,76.0
1008,246.99026544375,247.5876906,68.0,70.0
1009,246.99026544375,247.6134258375,73.0,65.0
1010,246.99026544375,247.63364638125,65.0,67.0
1011,246.10791444375,247.87261644375,49.0,77.0
1012,247.87261644375,248.3229831,68.0,71.0
1013,247.87261644375,248.33585071874998,65.0,69.0
1014,247.87261644375,248.38364473125,73.0,67.0
1015,247.87261644375,249.18879001874998,47.0,86.0
1016,248.31379194375,249.35606906249998,59.0,76.0
1017,248.75496744375,249.63364198124998,65.0,77.0
1018,248.75496744375,249.83768565,74.0,67.0
1019,250.07849394375,250.94246263124998,61.0,80.0
1020,249.63731844375,251.0251830375,54.0,88.0
1021,250.96084494375,251.4810643875,73.0,80.0
1022,251.40202044375,251.80826954999998,80.0,88.0
1023,250.51966944375,251.92223988749998,70.0,86.0
1024,251.40202044375,253.55642746875,44.0,76.0
1025,252.06378369375,253.712677125,51.0,71.0
1026,252.50495919374998,253.72186828124998,60.0,82.0
1027,252.50495919374998,253.7935593,68.0,81.0
1028,252.50495919374998,254.01966174375,56.0,72.0
1029,259.23288556874996,260.4994269,65.0,70.0
1030,259.34317944375,260.52700036875,68.0,76.0
1031,259.45347331875,260.5839855375,73.0,83.0
1032,259.45347331875,260.63361778125,49.0,75.0
1033,262.10052631875,262.903833375,65.0,89.0
1034,262.10052631875,262.933245075,73.0,88.0
1035,262.10052631875,262.9736861625,68.0,91.0
