,start,end,pitch,velocity
0,1.6592106645833333,2.38026335625,69.0,54.0
1,2.2907896645833334,2.9618423520833335,78.0,75.0
2,2.9223686645833333,3.3026318541666666,81.0,75.0
3,3.2381581645833335,4.185526664583334,76.0,66.0
4,4.185526664583334,4.83157935,69.0,60.0
5,4.817105664583334,5.415789925,78.0,73.0
6,5.290789914583334,5.7644741645833335,81.0,81.0
7,5.7644741645833335,7.027632164583333,76.0,71.0
8,7.027632164583333,7.3434216645833335,69.0,51.0
9,7.3434216645833335,7.975000664583334,78.0,67.0
10,7.975000664583334,8.290790164583333,81.0,62.0
11,8.290790164583333,8.922369164583333,76.0,72.0
12,8.922369164583333,9.238158664583334,74.0,63.0
13,9.238158664583334,9.553948164583334,76.0,75.0
14,9.553948164583334,9.88815871875,74.0,59.0
15,9.869737664583333,10.501316664583333,76.0,65.0
16,10.501316664583333,10.817106164583334,78.0,64.0
17,10.817106164583334,11.582895702083334,71.0,67.0
18,11.448685164583335,12.396053664583334,74.0,64.0
19,12.396053664583334,12.965790554166666,81.0,76.0
20,12.869737914583334,13.343422164583334,78.0,58.0
21,13.343422164583334,13.973685375,76.0,61.0
22,13.975001164583334,14.648685431250001,76.0,67.0
23,14.606580164583335,14.648685431250001,76.0,64.0
24,14.922369664583334,15.238159164583333,76.0,63.0
25,15.238159164583333,15.553948664583334,74.0,60.0
26,15.553948664583334,15.869738164583334,76.0,63.0
27,15.869738164583334,16.501317164583334,71.0,59.0
28,16.501317164583334,17.447369875,76.0,69.0
29,17.448685664583333,17.738159372916666,76.0,65.0
30,17.738159372916666,18.078948875000002,71.0,58.0
31,18.080264664583336,18.394738375,71.0,54.0
32,18.396054164583333,18.731580508333334,71.0,49.0
33,18.711843664583334,19.184212125000002,81.0,73.0
34,19.185527914583336,19.659212164583334,81.0,71.0
35,19.659212164583334,22.185528164583335,78.0,71.0
36,22.185528164583335,22.62500188541667,69.0,59.0
37,22.501317664583333,23.14342298125,78.0,65.0
38,23.132896664583335,23.4710545875,81.0,74.0
39,23.448686164583336,24.711844164583333,76.0,55.0
40,24.711844164583333,25.04473892916667,69.0,47.0
41,25.027633664583334,25.667107402083335,78.0,66.0
42,25.659212664583336,26.01184427291667,81.0,70.0
43,25.975002164583334,27.238160164583334,76.0,67.0
44,27.238160164583334,27.553949664583335,69.0,35.0
45,27.553949664583335,28.185528664583334,78.0,61.0
46,28.185528664583334,28.50263395416667,81.0,63.0
47,28.501318164583335,29.132897164583333,76.0,61.0
48,29.132897164583333,29.448686664583335,74.0,58.0
49,29.448686664583335,29.764476164583336,76.0,60.0
50,29.764476164583336,30.080265664583333,74.0,52.0
51,30.080265664583333,30.710528875,76.0,61.0
52,30.711844664583335,31.126318383333334,76.0,61.0
53,31.027634164583336,31.343423664583334,78.0,42.0
54,31.343423664583334,31.817107914583335,71.0,60.0
55,31.817107914583335,32.60658166458334,74.0,60.0
56,32.60658166458334,33.23816066458333,81.0,74.0
57,33.23816066458333,33.60395016875,78.0,66.0
58,33.553950164583334,34.184213375,76.0,60.0
59,34.185529164583336,34.815792375,76.0,68.0
60,34.81710816458334,35.131581875,76.0,65.0
61,35.13289766458333,35.59210822916667,76.0,73.0
62,35.59342401875,36.078950375000005,76.0,75.0
63,36.080266164583335,36.710529375,76.0,69.0
64,36.71184516458334,37.34342416458333,76.0,74.0
65,37.34342416458333,37.65921366458333,71.0,54.0
66,37.65921366458333,38.253950556250004,76.0,71.0
67,38.00131895625,38.60658216458334,71.0,59.0
68,38.60658216458334,39.23816116458333,76.0,67.0
69,39.23816116458333,43.973687875,74.0,64.0
70,43.97500366458333,44.289477375000004,74.0,68.0
71,44.290793164583334,44.605266875000005,74.0,68.0
72,44.606582664583335,44.921056375,74.0,75.0
73,44.92237216458334,45.236845875,74.0,65.0
74,45.23816166458334,45.710530125000005,74.0,64.0
75,45.711845914583336,46.185530164583334,74.0,67.0
76,46.185530164583334,46.501319664583335,69.0,57.0
77,46.501319664583335,47.44868816458334,73.0,95.0
78,47.44868816458334,49.026319875000006,74.0,69.0
79,49.027635664583336,49.34342516458334,74.0,65.0
80,49.34342516458334,49.663162033333336,71.0,52.0
81,49.65921466458334,50.01184627291667,74.0,60.0
82,49.97500416458334,50.34210945833333,71.0,46.0
83,50.29079366458333,50.763162125,78.0,65.0
84,50.76447791458334,51.238162164583336,78.0,76.0
85,51.238162164583336,51.582899035416666,74.0,74.0
86,51.55395166458334,54.08026766458334,76.0,79.0
87,54.08026766458334,54.552636125,78.0,74.0
88,54.55395191458334,55.027636164583335,78.0,64.0
89,55.027636164583335,55.65921516458334,83.0,81.0
90,55.65921516458334,56.60658366458333,78.0,59.0
91,56.60658366458333,56.921057375000004,76.0,67.0
92,56.922373164583334,57.553952164583336,76.0,71.0
93,57.553952164583336,58.81711016458333,78.0,63.0
94,58.81711016458333,59.18947861666667,71.0,53.0
95,59.132899664583334,59.46711021875,79.0,75.0
96,59.448689164583335,59.80526814166667,78.0,49.0
97,59.764478664583336,60.11447869375,74.0,64.0
98,60.08026816458334,60.39737345416667,71.0,60.0
99,60.39605766458334,60.868426125000006,74.0,58.0
100,60.86974191458334,61.36974195625,74.0,67.0
101,61.36974195625,61.686847245833334,71.0,62.0
102,61.659215664583336,62.03421569583334,78.0,72.0
103,61.97500516458334,64.18553166458334,76.0,74.0
104,64.18553166458334,64.500005375,74.0,68.0
105,64.50132116458333,64.81579487500001,74.0,68.0
106,64.81711066458334,65.131584375,74.0,75.0
107,65.13290016458333,65.447373875,74.0,65.0
108,65.44868966458334,65.921058125,74.0,64.0
109,65.92237391458333,66.39605816458334,74.0,67.0
110,66.39605816458334,66.71184766458333,69.0,57.0
111,66.71184766458333,67.65921616458334,73.0,95.0
112,67.65921616458334,69.23684787500001,74.0,69.0
113,69.23816366458334,69.55395316458333,74.0,65.0
114,69.55395316458333,69.87369003333333,71.0,52.0
115,69.86974266458334,70.22237427291667,74.0,60.0
116,70.18553216458334,70.55263745833334,71.0,46.0
117,70.50132166458333,70.973690125,78.0,65.0
118,70.97500591458333,71.44869016458334,78.0,76.0
119,71.44869016458334,71.79342703541667,74.0,74.0
120,71.76447966458333,74.29079566458334,76.0,79.0
121,74.29079566458334,74.763164125,78.0,74.0
122,74.76447991458333,75.23816416458334,78.0,64.0
123,75.23816416458334,75.86974316458334,83.0,81.0
124,75.86974316458334,76.81711166458334,78.0,59.0
125,76.81711166458334,77.131585375,76.0,67.0
126,77.13290116458333,77.76448016458333,76.0,71.0
127,77.76448016458333,79.02763816458334,78.0,63.0
128,79.02763816458334,79.40000661666667,71.0,53.0
129,79.34342766458333,79.67763821875,79.0,75.0
130,79.65921716458334,80.01579614166667,78.0,49.0
131,79.97500666458333,80.32500669375,74.0,64.0
132,80.29079616458334,80.60790145416667,71.0,60.0
133,80.60658566458333,81.07895412500001,74.0,58.0
134,81.08026991458334,81.55311808333333,74.0,67.0
135,81.55311808333333,81.87603475,76.0,62.0
136,81.86561808333333,84.99474366458334,74.0,67.0
137,84.99474366458334,85.71579635625,69.0,54.0
138,85.62632266458334,86.29737535208334,78.0,75.0
139,86.25790166458333,86.63816485416667,81.0,75.0
140,86.57369116458334,87.52105966458333,76.0,66.0
141,87.52105966458333,88.16711235,69.0,60.0
142,88.15263866458334,88.78421766458334,78.0,73.0
143,88.78421766458334,89.18684927708334,81.0,81.0
144,89.10000716458333,90.36316516458334,76.0,71.0
145,90.36316516458334,90.67895466458333,69.0,51.0
146,90.67895466458333,91.31053366458333,78.0,67.0
147,91.31053366458333,91.62632316458334,81.0,62.0
148,91.62632316458334,92.25790216458334,76.0,72.0
149,92.25790216458334,92.57369166458334,74.0,63.0
150,92.57369166458334,92.88948116458333,76.0,75.0
151,92.88948116458333,93.22369171875,74.0,59.0
152,93.20527066458334,93.83684966458334,76.0,65.0
153,93.83684966458334,94.15263916458333,78.0,64.0
154,94.15263916458333,94.91842870208333,71.0,67.0
155,94.78421816458334,95.73158666458333,74.0,64.0
156,95.73158666458333,96.30132355416667,81.0,76.0
157,96.20527091458334,96.67895516458333,78.0,58.0
158,96.67895516458333,97.309218375,76.0,61.0
159,97.31053416458333,97.940797375,76.0,67.0
160,97.94211316458333,98.25658687500001,76.0,64.0
161,98.25790266458334,98.57369216458333,76.0,63.0
162,98.57369216458333,98.88948166458334,74.0,60.0
163,98.88948166458334,99.20527116458334,76.0,63.0
164,99.20527116458334,99.83685016458334,71.0,59.0
165,99.83685016458334,100.782902875,76.0,69.0
166,100.78421866458334,101.07369237291667,76.0,65.0
167,101.07369237291667,101.414481875,71.0,58.0
168,101.41579766458334,101.730271375,71.0,54.0
169,101.73158716458333,102.06711350833334,71.0,49.0
170,102.04737666458334,102.519745125,81.0,73.0
171,102.52106091458333,102.99474516458334,81.0,71.0
172,102.99474516458334,105.52106116458333,78.0,71.0
173,105.52106116458333,105.83685066458334,69.0,59.0
174,105.83685066458334,106.47895598125001,78.0,65.0
175,106.46842966458334,106.8065875875,81.0,74.0
176,106.78421916458333,108.04737716458334,76.0,55.0
177,108.04737716458334,108.38027192916667,69.0,47.0
178,108.36316666458333,109.00264040208333,78.0,66.0
179,108.99474566458333,109.34737727291667,81.0,70.0
180,109.31053516458334,110.57369316458333,76.0,67.0
181,110.57369316458333,110.88948266458334,69.0,58.0
182,110.88948266458334,111.52106166458333,78.0,61.0
183,111.52106166458333,111.83816695416667,81.0,63.0
184,111.83685116458334,112.46843016458334,76.0,61.0
185,112.46843016458334,112.78421966458333,74.0,58.0
186,112.78421966458333,113.10000916458334,76.0,60.0
187,113.10000916458334,113.41579866458333,74.0,52.0
188,113.41579866458333,114.046061875,76.0,61.0
189,114.04737766458334,114.46185138333334,76.0,61.0
190,114.36316716458333,114.67895666458334,78.0,42.0
191,114.67895666458334,115.15264091458334,71.0,60.0
192,115.15264091458334,115.94211466458333,74.0,60.0
193,115.94211466458333,116.57369366458335,81.0,74.0
194,116.57369366458335,116.93948316875,78.0,66.0
195,116.88948316458334,117.51974637500001,76.0,60.0
196,117.52106216458333,118.151325375,76.0,68.0
197,118.15264116458334,118.46711487500001,76.0,65.0
198,118.46843066458334,118.92764122916667,76.0,73.0
199,118.92895701875,119.414483375,76.0,75.0
200,119.41579916458335,120.046062375,76.0,69.0
201,120.04737816458334,120.67895716458334,76.0,74.0
202,120.67895716458334,120.99474666458335,71.0,54.0
203,120.99474666458335,121.58948355625,76.0,71.0
204,121.33685195625,121.94211516458333,71.0,59.0
205,121.94211516458333,122.57369416458334,76.0,67.0
206,122.57369416458334,125.82632601458334,74.0,64.0
207,137.41580066458334,137.73027437500002,74.0,68.0
208,137.73159016458334,138.04606387500002,74.0,68.0
209,138.04737966458333,138.361853375,74.0,75.0
210,138.36316916458333,138.677642875,74.0,65.0
211,138.67895866458335,139.151327125,74.0,64.0
212,139.15264291458334,139.62632716458333,74.0,67.0
213,139.62632716458333,139.94211666458335,69.0,57.0
214,139.94211666458335,140.88948516458333,73.0,95.0
215,140.88948516458333,142.467116875,74.0,69.0
216,142.46843266458333,142.78422216458335,74.0,65.0
217,142.78422216458335,143.10395903333335,71.0,52.0
218,143.10001166458335,143.45264327291667,74.0,60.0
219,143.41580116458334,143.78290645833334,71.0,46.0
220,143.73159066458334,144.203959125,78.0,65.0
221,144.20527491458336,144.67895916458335,78.0,76.0
222,144.67895916458335,145.02369603541666,74.0,74.0
223,144.99474866458334,147.52106466458332,76.0,79.0
224,147.52106466458332,147.993433125,78.0,74.0
225,147.99474891458334,148.46843316458333,78.0,64.0
226,148.46843316458333,149.10001216458335,83.0,81.0
227,149.10001216458335,150.04738066458333,78.0,59.0
228,150.04738066458333,150.361854375,76.0,67.0
229,150.36317016458332,150.99474916458334,76.0,71.0
230,150.99474916458334,152.25790716458334,78.0,63.0
231,152.25790716458334,152.63027561666667,71.0,53.0
232,152.57369666458334,152.90790721875,79.0,75.0
233,152.88948616458333,153.2460651416667,78.0,49.0
234,153.20527566458333,153.55527569375,74.0,64.0
235,153.52106516458332,153.8381704541667,71.0,60.0
236,153.83685466458334,154.30922312500002,74.0,58.0
237,154.31053891458333,154.78422316458335,74.0,67.0
238,154.78422316458335,155.11053898125,76.0,62.0
239,155.10001266458335,159.52106566458332,74.0,67.0
240,159.52106566458332,160.24211835625,69.0,54.0
241,160.15264466458333,160.82369735208334,78.0,75.0
242,160.78422366458335,161.16448685416668,81.0,75.0
243,161.10001316458334,162.04738166458333,76.0,66.0
244,162.04738166458333,162.69343435000002,69.0,60.0
245,162.67896066458334,163.31053966458336,78.0,73.0
246,163.31053966458336,163.71317127708335,81.0,81.0
247,163.62632916458335,164.88948716458333,76.0,71.0
248,164.88948716458333,165.20527666458332,69.0,51.0
249,165.20527666458332,165.83685566458334,78.0,67.0
250,165.83685566458334,166.15264516458333,81.0,62.0
251,166.15264516458333,166.78422416458335,76.0,72.0
252,166.78422416458335,167.10001366458334,74.0,63.0
253,167.10001366458334,167.41580316458334,76.0,75.0
254,167.41580316458334,167.75001371875,74.0,59.0
255,167.73159266458333,168.36317166458332,76.0,65.0
256,168.36317166458332,168.67896116458334,78.0,64.0
257,168.67896116458334,169.44475070208335,71.0,67.0
258,169.31054016458336,170.25790866458334,74.0,64.0
259,170.25790866458334,170.82764555416668,81.0,76.0
260,170.73159291458336,171.20527716458332,78.0,58.0
261,171.20527716458332,171.835540375,76.0,61.0
262,171.83685616458334,172.467119375,76.0,67.0
263,172.46843516458335,172.782908875,76.0,64.0
264,172.78422466458335,173.10001416458334,76.0,63.0
265,173.10001416458334,173.41580366458334,74.0,60.0
266,173.41580366458334,173.73159316458333,76.0,63.0
267,173.73159316458333,174.36317216458335,71.0,59.0
268,174.36317216458335,175.309224875,76.0,69.0
269,175.31054066458336,175.6000143729167,76.0,65.0
270,175.6000143729167,175.940803875,71.0,58.0
271,175.94211966458334,176.25659337500002,71.0,54.0
272,176.25790916458334,176.59343550833336,71.0,49.0
273,176.57369866458333,177.046067125,81.0,73.0
274,177.04738291458335,177.52106716458334,81.0,71.0
275,177.52106716458334,180.04738316458332,78.0,71.0
276,180.04738316458332,180.36317266458335,69.0,59.0
277,180.36317266458335,181.00527798125,78.0,65.0
278,180.99475166458333,181.3329095875,81.0,74.0
279,181.31054116458336,182.57369916458333,76.0,55.0
280,182.57369916458333,182.90659392916666,69.0,47.0
281,182.88948866458333,183.52896240208332,78.0,66.0
282,183.52106766458334,183.87369927291667,81.0,70.0
283,183.83685716458334,185.10001516458334,76.0,67.0
284,185.10001516458334,185.41580466458333,69.0,58.0
285,185.41580466458333,186.04738366458332,78.0,61.0
286,186.04738366458332,186.3644889541667,81.0,63.0
287,186.36317316458334,186.99475216458336,76.0,61.0
288,186.99475216458336,187.31054166458335,74.0,58.0
289,187.31054166458335,187.62633116458335,76.0,60.0
290,187.62633116458335,187.94212066458334,74.0,52.0
291,187.94212066458334,188.572383875,76.0,61.0
292,188.57369966458333,188.98817338333333,76.0,61.0
293,188.88948916458332,189.20527866458335,78.0,42.0
294,189.20527866458335,189.67896291458334,71.0,60.0
295,189.67896291458334,190.46843666458335,74.0,60.0
296,190.46843666458335,191.10001566458334,81.0,74.0
297,191.10001566458334,191.46580516875002,78.0,66.0
298,191.41580516458333,192.046068375,76.0,60.0
299,192.04738416458332,192.677647375,76.0,68.0
300,192.67896316458334,192.993436875,76.0,65.0
301,192.99475266458336,193.45396322916667,76.0,73.0
302,193.45527901875,193.94080537500002,76.0,75.0
303,193.94212116458334,194.572384375,76.0,69.0
304,194.57370016458333,195.20527916458335,76.0,74.0
305,195.20527916458335,195.52106866458334,71.0,54.0
306,195.52106866458334,196.11580555625,76.0,71.0
307,195.86317395625002,196.46843716458335,71.0,59.0
308,196.46843716458335,197.10001616458334,76.0,67.0
309,197.10001616458334,200.57370066458333,74.0,64.0
310,200.57370066458333,200.888174375,83.0,112.0
311,200.88949016458332,201.203963875,83.0,111.0
312,201.20527966458334,201.519753375,83.0,111.0
313,201.52106916458334,201.835542875,83.0,108.0
314,201.83685866458336,202.309227125,83.0,108.0
315,202.31054291458332,202.78422716458334,83.0,117.0
316,202.78422716458334,203.10001666458334,78.0,86.0
317,203.10001666458334,205.62501687500003,81.0,122.0
318,205.62633266458334,205.94080637500002,81.0,114.0
319,205.94212216458334,206.25659587500002,81.0,120.0
320,206.25791166458333,206.572385375,81.0,114.0
321,206.57370116458333,206.888174875,81.0,117.0
322,206.88949066458332,207.36317491458334,81.0,117.0
323,207.36317491458334,207.83685916458336,76.0,95.0
324,207.83685916458336,208.15264866458335,81.0,122.0
325,208.15264866458335,210.67896466458336,78.0,100.0
326,210.67896466458336,210.993438375,83.0,85.0
327,210.99475416458336,211.309227875,83.0,81.0
328,211.31054366458335,211.62501737500003,83.0,98.0
329,211.62633316458334,211.94080687500002,83.0,98.0
330,211.94212266458334,212.414491125,83.0,112.0
331,212.41580691458336,212.88949116458335,83.0,112.0
332,212.88949116458335,213.20528066458334,78.0,98.0
333,213.20528066458334,214.467122875,81.0,108.0
334,214.46843866458335,215.10001766458333,81.0,112.0
335,215.10001766458333,215.41580716458336,76.0,90.0
336,215.41580716458336,216.04738616458334,81.0,112.0
337,216.04738616458334,220.78422866458334,78.0,112.0
338,220.78422866458334,221.09870237500002,83.0,86.0
339,221.10001816458333,221.414491875,83.0,81.0
340,221.41580766458335,221.730281375,83.0,90.0
341,221.73159716458335,222.046070875,83.0,95.0
342,222.04738666458334,222.36186037500002,83.0,90.0
343,222.36317616458334,222.83686041458336,83.0,93.0
344,222.83686041458336,223.31054466458335,78.0,74.0
345,223.31054466458335,225.83686066458336,81.0,111.0
346,225.83686066458336,226.15265016458335,73.0,108.0
347,226.15265016458335,226.467123875,81.0,74.0
348,226.46843966458334,226.78291337500002,81.0,71.0
349,226.78422916458334,227.09870287500001,81.0,83.0
350,227.10001866458333,227.57370291458335,81.0,95.0
351,227.57370291458335,228.04738716458334,76.0,85.0
352,228.04738716458334,228.36317666458334,81.0,95.0
353,228.36317666458334,230.88949266458334,78.0,81.0
354,230.88949266458334,231.20396637500002,83.0,95.0
355,231.20528216458334,231.51975587500002,83.0,85.0
356,231.52107166458333,231.835545375,83.0,95.0
357,231.83686116458335,232.15265066458335,83.0,90.0
358,232.15265066458335,232.62633491458334,86.0,100.0
359,232.62633491458334,233.10001916458333,85.0,104.0
360,233.10001916458333,233.73159816458335,83.0,90.0
361,233.73159816458335,235.62633516458334,81.0,98.0
362,235.62633516458334,235.94212466458333,78.0,79.0
363,239.41580916458335,239.73159866458334,69.0,51.0
364,235.94212466458333,239.99212500208336,86.0,86.0
365,239.73159866458334,240.36317766458333,78.0,87.0
366,240.36317766458333,240.740809275,81.0,69.0
367,240.67896716458336,241.94212516458333,76.0,90.0
368,241.94212516458333,242.25791466458335,69.0,64.0
369,242.25791466458335,242.90659892916668,78.0,104.0
370,242.88949366458334,243.22107263958335,81.0,79.0
371,243.20528316458334,244.498704325,76.0,86.0
372,244.46844116458334,244.89607277916667,69.0,54.0
373,244.78423066458333,245.41580966458335,78.0,95.0
374,245.41580966458335,245.7565991666667,81.0,74.0
375,245.73159916458334,246.36317816458333,76.0,74.0
376,246.36317816458333,246.71844135208335,74.0,67.0
377,246.67896766458335,247.04738874791667,76.0,76.0
378,246.99475716458335,247.39870456666668,74.0,74.0
379,247.31054666458334,247.78291512500002,76.0,76.0
380,247.78423091458333,248.26712569166668,76.0,77.0
381,248.26712569166668,248.57370466458335,78.0,71.0
382,248.57370466458335,249.2381784041667,71.0,76.0
383,249.04738891458334,249.993441625,74.0,86.0
384,249.83686266458335,250.46844166458334,81.0,86.0
385,250.46844166458334,250.81317853541668,78.0,74.0
386,250.78423116458333,251.414494375,76.0,86.0
387,251.41581016458335,252.04607337500002,76.0,85.0
388,252.04738916458334,252.361862875,76.0,83.0
389,252.36317866458333,252.993441875,76.0,76.0
390,252.99475766458335,253.309231375,76.0,83.0
391,253.31054716458334,253.940810375,76.0,83.0
392,253.94212616458336,254.79870518333334,76.0,93.0
393,254.57370516458334,254.88949466458334,71.0,69.0
394,254.88949466458334,255.52107366458335,76.0,87.0
395,255.52107366458335,255.99475791458335,71.0,77.0
396,255.99475791458335,256.78423166458333,76.0,100.0
397,256.78423166458333,261.440811,74.0,93.0
