,start,end,pitch,velocity
0,1.0276316645833334,1.73684225,64.0,68.0
1,1.0276316645833334,1.78815804375,62.0,70.0
2,2.2907896645833334,3.385526597916667,64.0,72.0
3,2.2907896645833334,3.3921055458333336,62.0,72.0
4,1.0276316645833334,3.5105266083333335,50.0,74.0
5,1.6592106645833333,3.519737135416667,57.0,50.0
6,3.5539476645833337,4.62236880625,62.0,61.0
7,3.5539476645833337,4.625000385416667,59.0,57.0
8,4.817105664583334,5.5368425666666665,62.0,77.0
9,4.817105664583334,5.53815835625,59.0,68.0
10,3.5539476645833337,5.709211002083333,43.0,72.0
11,4.185526664583334,6.023684712500001,50.0,61.0
12,5.448684664583333,6.02763208125,55.0,54.0
13,6.080263664583334,7.153947964583334,61.0,64.0
14,6.080263664583334,7.169737439583334,64.0,71.0
15,6.080263664583334,7.856579602083333,45.0,73.0
16,6.711842664583334,7.947369083333334,52.0,62.0
17,7.3434216645833335,7.9855269812500005,64.0,79.0
18,7.3434216645833335,8.000000666666667,61.0,65.0
19,8.606579664583334,9.707895545833333,61.0,61.0
20,8.606579664583334,9.711842914583334,57.0,61.0
21,8.606579664583334,10.469737714583333,42.0,67.0
22,9.869737664583333,10.548685089583334,61.0,71.0
23,9.869737664583333,10.565790354166667,57.0,60.0
24,9.238158664583334,10.572369302083334,49.0,66.0
25,10.501316664583333,11.117106189583334,54.0,45.0
26,11.132895664583334,12.268422075,66.0,65.0
27,11.132895664583334,12.277632602083333,62.0,60.0
28,12.396053664583334,13.152632675000001,66.0,88.0
29,12.396053664583334,13.188158993750001,62.0,71.0
30,13.027632664583335,13.193422152083334,59.0,57.0
31,11.764474664583334,13.261843210416668,54.0,58.0
32,11.132895664583334,13.309211635416668,47.0,74.0
33,13.659211664583333,14.8184222875,67.0,72.0
34,14.290790664583334,15.190790739583335,64.0,60.0
35,13.659211664583333,15.576317087500001,52.0,56.0
36,13.659211664583333,15.592106562500001,59.0,59.0
37,14.922369664583334,15.884211850000002,67.0,75.0
38,16.185527664583333,17.369738289583335,61.0,58.0
39,16.185527664583333,17.389475133333335,64.0,66.0
40,16.817106664583335,18.002633079166667,52.0,61.0
41,16.185527664583333,18.048685714583335,45.0,63.0
42,17.448685664583333,18.196054147916666,61.0,48.0
43,17.448685664583333,18.21710678125,64.0,51.0
44,17.448685664583333,18.23289625625,69.0,73.0
45,18.711843664583334,19.89079113125,66.0,65.0
46,18.711843664583334,19.89342271041667,69.0,72.0
47,20.606580664583333,20.99868596041667,64.0,56.0
48,19.975001664583335,21.165791237500002,74.0,62.0
49,20.922370164583334,21.282896510416666,66.0,60.0
50,21.238159664583335,21.282896510416666,66.0,65.0
51,20.606580664583333,21.764475497916667,62.0,45.0
52,21.238159664583335,22.375001864583336,74.0,49.0
53,21.238159664583335,22.375001864583336,74.0,70.0
54,21.238159664583335,22.406580814583336,69.0,72.0
55,21.869738664583334,22.919738752083333,62.0,56.0
56,19.343422664583333,23.072370343750002,57.0,37.0
57,18.711843664583334,23.184212458333334,50.0,81.0
58,22.501317664583333,23.219738777083336,69.0,71.0
59,23.764475664583333,24.896054706250002,59.0,63.0
60,23.764475664583333,24.91184418125,62.0,67.0
61,23.764475664583333,25.71184424791667,43.0,85.0
62,25.027633664583334,25.750002145833335,67.0,73.0
63,25.036844191666667,25.81184425625,59.0,63.0
64,25.036844191666667,25.81184425625,62.0,67.0
65,25.659212664583336,26.14605481041667,55.0,55.0
66,24.396054664583335,26.215791658333334,50.0,58.0
67,26.290791664583335,26.985528564583333,69.0,60.0
68,26.290791664583335,27.02237067291667,61.0,66.0
69,26.290791664583335,27.025002252083336,64.0,77.0
70,26.922370664583333,27.539475979166667,57.0,50.0
71,27.238160164583334,28.123686554166667,69.0,77.0
72,27.238160164583334,28.130265502083336,61.0,59.0
73,27.238160164583334,28.138160239583335,64.0,72.0
74,27.869739164583336,28.398686577083335,57.0,51.0
75,26.290791664583335,28.459212897916668,45.0,72.0
76,26.606581164583336,28.498686585416667,52.0,62.0
77,28.185528664583334,28.78816029375,69.0,73.0
78,28.185528664583334,28.801318189583334,61.0,63.0
79,28.185528664583334,28.80394976875,64.0,62.0
80,29.448686664583335,30.101318297916666,66.0,54.0
81,29.448686664583335,30.178949883333335,57.0,56.0
82,29.448686664583335,30.186844620833334,61.0,61.0
83,30.080265664583333,30.553949914583335,54.0,49.0
84,30.396055164583334,30.857897308333335,66.0,72.0
85,28.817107664583336,30.861844677083333,42.0,72.0
86,30.396055164583334,30.87105520416667,61.0,74.0
87,30.396055164583334,30.87894994166667,57.0,63.0
88,29.448686664583335,30.909213102083335,49.0,50.0
89,31.343423664583334,31.990792139583334,71.0,53.0
90,31.343423664583334,32.015792141666665,66.0,54.0
91,31.343423664583334,32.03289740625,62.0,61.0
92,32.29079216458334,33.13026591875,62.0,60.0
93,32.29079216458334,33.143423814583336,71.0,66.0
94,32.29079216458334,33.144739604166666,66.0,72.0
95,31.975002664583336,33.309213302083336,59.0,59.0
96,31.659213164583335,33.33421330416667,54.0,64.0
97,31.343423664583334,33.43289752291667,47.0,74.0
98,33.23816066458333,33.461844893750005,71.0,60.0
99,33.23816066458333,33.46973963125,66.0,65.0
100,33.23816066458333,33.4815817375,62.0,60.0
101,33.869739664583335,34.6736871,67.0,57.0
102,33.869739664583335,34.67763446875,59.0,59.0
103,33.869739664583335,34.689476575,62.0,60.0
104,34.81710816458334,35.622371389583336,67.0,72.0
105,34.81710816458334,35.623687179166666,59.0,68.0
106,34.81710816458334,35.634213495833336,62.0,73.0
107,35.764476664583334,36.030266160416666,67.0,65.0
108,35.764476664583334,36.06052932083333,62.0,70.0
109,35.764476664583334,36.06184511041667,59.0,65.0
110,33.869739664583335,36.0631609,43.0,75.0
111,35.44868716458333,36.118424062500004,55.0,58.0
112,34.50131866458334,36.32763460625,50.0,77.0
113,36.396055664583336,37.198687310416666,61.0,61.0
114,36.396055664583336,37.20658204791667,64.0,62.0
115,36.396055664583336,37.20921362708334,69.0,68.0
116,37.02763466458334,37.74079261875,57.0,46.0
117,36.396055664583336,38.12105580833334,45.0,63.0
118,37.34342416458333,38.23158213333333,61.0,70.0
119,37.34342416458333,38.24210845,69.0,75.0
120,36.71184516458334,38.35131898541667,52.0,63.0
121,37.34342416458333,38.50526636666667,64.0,75.0
122,38.290792664583336,38.51447689375,61.0,51.0
123,38.290792664583336,38.51710847291667,69.0,50.0
124,37.975003164583335,38.636845325,57.0,47.0
125,38.92237166458334,39.626319091666666,66.0,69.0
126,38.92237166458334,39.63289803958334,69.0,73.0
127,40.81710866458334,41.15789816666667,69.0,62.0
128,41.13289816458334,41.42763503125,78.0,68.0
129,38.92237166458334,41.44868766458333,50.0,84.0
130,39.869740164583334,41.493424510416666,66.0,65.0
131,40.501319164583336,41.786845587500004,62.0,38.0
132,39.55395066458333,41.95921402291667,57.0,57.0
133,41.44868766458333,42.39342458541667,76.0,91.0
134,42.396056164583335,43.260529920833335,74.0,72.0
135,41.44868766458333,43.95263524166667,50.0,68.0
136,43.97500366458333,44.83158268333334,69.0,77.0
137,43.97500366458333,44.83947742083333,66.0,66.0
138,45.55395116458334,45.917109089583334,62.0,56.0
139,44.606582664583335,46.0973722625,57.0,58.0
140,44.92237216458334,46.130267002083336,66.0,61.0
141,43.97500366458333,46.134214370833334,50.0,79.0
142,44.92237216458334,46.15000384583333,69.0,75.0
143,46.501319664583335,47.68684607916667,62.0,63.0
144,46.501319664583335,47.70526713333334,66.0,70.0
145,47.13289866458334,48.56710931041667,54.0,61.0
146,46.501319664583335,48.63026721041667,47.0,69.0
147,47.76447766458334,48.72895142916667,71.0,71.0
148,47.76447766458334,48.7657935375,62.0,66.0
149,47.76447766458334,48.77237248541667,66.0,73.0
150,49.0184251375,50.04342522291667,71.0,59.0
151,49.0184251375,50.07763575208334,66.0,46.0
152,49.0184251375,50.097372595833335,62.0,56.0
153,49.65921466458334,50.986846354166666,54.0,52.0
154,49.027635664583336,50.98947793333333,47.0,62.0
155,50.29079366458333,51.088162152083335,71.0,74.0
156,50.29079366458333,51.115793733333334,66.0,74.0
157,50.29079366458333,51.13553057708334,62.0,69.0
158,51.55395166458334,52.7447412375,61.0,62.0
159,51.55395166458334,52.75132018541667,64.0,61.0
160,52.18553066458333,52.880267564583335,69.0,59.0
161,52.50132016458333,53.082899160416666,73.0,58.0
162,52.817109664583334,53.17632022083333,76.0,58.0
163,52.817109664583334,53.75000447916667,57.0,50.0
164,52.18553066458333,53.784215008333334,52.0,69.0
165,51.55395166458334,53.83947817083334,45.0,74.0
166,53.132899164583336,54.12105714166667,81.0,64.0
167,53.76447816458334,54.53553086041667,76.0,67.0
168,54.711846664583334,55.04210985,74.0,61.0
169,54.08026766458334,55.227636181250006,61.0,64.0
170,54.08026766458334,55.24868881458334,57.0,58.0
171,55.027636164583335,55.7447414875,76.0,77.0
172,54.08026766458334,55.96447834791667,42.0,73.0
173,54.711846664583334,56.046057302083334,49.0,13.0
174,55.343425664583336,56.05000467083334,66.0,75.0
175,55.343425664583336,56.08947835833334,61.0,67.0
176,55.343425664583336,56.09737309583333,57.0,54.0
177,55.97500466458334,56.27895205833334,76.0,72.0
178,56.29079416458334,56.564478397916666,69.0,58.0
179,55.97500466458334,56.5973731375,54.0,56.0
180,56.60658366458333,57.3473732,76.0,73.0
181,56.60658366458333,57.73947849583334,66.0,61.0
182,56.60658366458333,57.746057443750004,62.0,59.0
183,57.553952164583336,58.3500048625,74.0,65.0
184,57.86974166458334,58.50263645416667,66.0,72.0
185,57.86974166458334,58.51053119166667,62.0,62.0
186,56.60658366458333,58.58553119791667,47.0,61.0
187,57.238162664583335,58.58816277708333,54.0,60.0
188,58.50132066458334,58.76711016041667,71.0,58.0
189,59.017110181250004,59.18816282708334,71.0,57.0
190,59.05132071041667,59.21711019791667,67.0,48.0
191,59.121057558333334,59.605268125,76.0,56.0
192,59.132899664583334,61.27763668541667,52.0,70.0
193,59.77500498125,61.278952475000004,76.0,56.0
194,60.39605766458334,61.63684724166667,64.0,40.0
195,59.764478664583336,61.71447882708333,59.0,68.0
196,61.634215662500004,61.83421567916667,73.0,61.0
197,61.56842618333334,61.84605778541667,69.0,48.0
198,61.659215664583336,62.435531518750004,76.0,74.0
199,62.60658416458334,62.84474207916667,57.0,64.0
200,63.553952664583335,63.89474216666667,69.0,63.0
201,63.238163164583334,64.16447903125,61.0,65.0
202,61.659215664583336,64.34605799375001,45.0,70.0
203,63.869742164583336,64.45395273958334,76.0,67.0
204,62.29079466458334,64.50658432291667,52.0,56.0
205,64.65921591458334,66.1657949875,62.0,59.0
206,65.13290016458333,66.17105814583334,69.0,63.0
207,64.18553166458334,66.33026868541667,50.0,81.0
208,64.50132116458333,66.38947921666667,57.0,64.0
209,66.08026866458334,66.68421608333334,66.0,71.0
210,67.65921616458334,67.95132145208333,61.0,59.0
211,67.34342666458333,68.20132147291667,59.0,53.0
212,68.29079516458334,68.63816361458333,59.0,57.0
213,67.02763716458334,68.85526889583333,54.0,56.0
214,66.71184766458333,68.92237416458333,47.0,79.0
215,68.60658466458334,69.98290056875,66.0,68.0
216,67.97500566458334,70.08026899791668,62.0,69.0
217,69.23816366458334,70.08026899791668,62.0,70.0
218,70.18553216458334,71.17632172083334,66.0,69.0
219,69.86974266458334,71.26447962291667,59.0,57.0
220,69.23816366458334,71.40658489791667,47.0,69.0
221,69.55395316458333,71.41053226666666,54.0,59.0
222,71.13290066458333,71.74211124166666,62.0,62.0
223,71.44869016458334,71.76842703333334,66.0,66.0
224,71.76447966458333,73.65658508541667,45.0,74.0
225,72.39605866458334,73.69342719375,57.0,52.0
226,72.08026916458334,73.72500614375001,52.0,67.0
227,72.71184816458333,73.7447429875,64.0,71.0
228,72.71184816458333,73.75395351458333,61.0,64.0
229,74.29079566458334,75.14342731458333,57.0,59.0
230,74.29079566458334,75.1500062625,61.0,72.0
231,74.92237466458333,75.64211156666667,54.0,56.0
232,75.23816416458334,75.65132209375,83.0,69.0
233,74.44869041458334,76.08816423541667,49.0,61.0
234,74.29079566458334,76.17632213750001,42.0,62.0
235,75.23816416458334,76.24605898541667,61.0,62.0
236,75.86974316458334,76.26316425,54.0,56.0
237,75.86974316458334,76.27237477708334,78.0,65.0
238,76.50132216458334,76.64211165,76.0,63.0
239,76.50132216458334,76.83421692916667,61.0,36.0
240,75.23816416458334,76.85000640416666,57.0,58.0
241,76.18553266458333,76.89605903958333,66.0,79.0
242,76.81711166458334,77.85132227708334,76.0,85.0
243,77.76448016458333,78.1184275625,61.0,67.0
244,78.08026966458334,78.46184864375,62.0,71.0
245,77.29079591458334,78.61448023541666,59.0,58.0
246,77.76448016458333,78.77237498541668,74.0,61.0
247,76.97500641458333,79.04211185,54.0,57.0
248,78.86974341458334,79.11053290833334,59.0,39.0
249,76.81711166458334,79.2394802875,47.0,73.0
250,78.39605916458333,79.42369082916667,64.0,74.0
251,79.34342766458333,80.44211196666667,43.0,79.0
252,79.97500666458333,80.53684881666668,55.0,59.0
253,79.65921716458334,80.60000671666667,50.0,79.0
254,80.29079616458334,80.62763829791668,57.0,58.0
255,80.92237516458334,81.59999308333333,52.0,72.0
256,80.60658566458333,81.61822225,45.0,69.0
257,81.23816466458334,81.63124308333333,57.0,51.0
258,81.55311808333333,81.86171183333333,61.0,58.0
259,82.80311808333333,84.48671183333333,66.0,65.0
260,84.36561808333333,84.48671183333333,66.0,71.0
261,82.80311808333333,84.49061808333333,69.0,74.0
262,84.36561808333333,84.49061808333333,69.0,85.0
263,82.49061808333333,84.5283785,62.0,48.0
264,81.86561808333333,84.53749308333333,50.0,71.0
265,84.36561808333333,84.53749308333333,50.0,85.0
266,82.17811808333333,84.58046183333333,57.0,56.0
267,87.52105966458333,88.02237549583333,55.0,57.0
268,86.88948066458333,88.63421765208334,59.0,65.0
269,88.46842816458333,88.64605975833334,67.0,56.0
270,87.83684916458334,88.72369134375,62.0,65.0
271,88.15263866458334,89.01184926250001,55.0,66.0
272,88.78421766458334,89.02105978958333,62.0,63.0
273,88.78421766458334,89.02237557916666,67.0,73.0
274,88.78421766458334,89.03948084375,59.0,61.0
275,86.88948066458333,89.07369137291667,43.0,69.0
276,87.20527016458334,89.24605980833334,50.0,75.0
277,89.41579666458334,90.50263886041667,61.0,61.0
278,89.41579666458334,90.51053359791666,64.0,67.0
279,89.41579666458334,90.52500728333334,69.0,74.0
280,91.15263891458333,91.31053366458333,57.0,49.0
281,89.88948091458333,91.32632313958334,52.0,58.0
282,90.67895466458333,91.37237577500001,69.0,88.0
283,90.67895466458333,91.37632314375,64.0,88.0
284,90.67895466458333,91.39737577708334,61.0,85.0
285,89.41579666458334,91.51711262916668,45.0,68.0
286,91.94211266458333,93.03421801875001,66.0,68.0
287,91.94211266458333,93.04869170416667,61.0,69.0
288,91.94211266458333,93.05000749375,57.0,61.0
289,91.94211266458333,93.85527071875,42.0,72.0
290,92.57369166458334,93.91053388125,49.0,72.0
291,93.20527066458334,93.92106019791667,66.0,79.0
292,93.20527066458334,93.930270725,61.0,79.0
293,93.20527066458334,93.93948125208334,57.0,68.0
294,93.83684966458334,94.48158656041667,54.0,50.0
295,94.46842866458334,95.603955075,62.0,68.0
296,94.46842866458334,95.60527086458333,71.0,68.0
297,94.46842866458334,95.61316560208334,66.0,62.0
298,94.46842866458334,96.46316567291667,47.0,72.0
299,95.10000766458333,96.49737620208333,54.0,59.0
300,95.73158666458333,96.52500778333334,71.0,91.0
301,95.73158666458333,96.53421831041666,66.0,96.0
302,95.73158666458333,96.54737620625001,62.0,88.0
303,96.36316566458333,96.96842887291668,59.0,53.0
304,96.99474466458334,98.11974475833334,76.0,65.0
305,96.99474466458334,98.13290265416667,67.0,69.0
306,96.99474466458334,98.13290265416667,71.0,66.0
307,97.46842891458334,98.79869218333334,59.0,57.0
308,98.57369216458333,98.90527113958333,64.0,54.0
309,98.25790266458334,98.96842903958334,76.0,96.0
310,98.25790266458334,98.99474483125,71.0,84.0
311,96.99474466458334,99.0065869375,52.0,83.0
312,98.25790266458334,99.0065869375,67.0,85.0
313,99.52106066458333,100.61053443958333,61.0,69.0
314,99.52106066458333,100.62237654583333,69.0,83.0
315,99.52106066458333,100.62763970416667,64.0,79.0
316,99.99474491458334,101.39211345208334,52.0,9.0
317,99.52106066458333,101.46842924791667,45.0,68.0
318,100.78421866458334,101.48685030208334,69.0,71.0
319,100.78421866458334,101.50000819791667,61.0,66.0
320,100.78421866458334,101.50263977708333,64.0,72.0
321,101.10000816458333,102.014481925,57.0,56.0
322,102.04737666458334,102.78158725208334,74.0,81.0
323,102.04737666458334,102.78685041041666,66.0,73.0
324,102.04737666458334,102.79869251666668,69.0,83.0
325,102.67895566458334,103.4434294125,62.0,59.0
326,102.99474516458334,104.2407979,66.0,65.0
327,102.99474516458334,104.27632421875,74.0,64.0
328,104.25790316458334,104.37895580625,66.0,55.0
329,102.99474516458334,104.38421896458334,69.0,75.0
330,103.62632416458334,104.77106110208334,62.0,57.0
331,104.57369266458333,105.31316641041667,74.0,79.0
332,104.57369266458333,105.31579798958333,66.0,84.0
333,104.57369266458333,105.31579798958333,69.0,88.0
334,105.20527166458334,105.80264013541667,62.0,54.0
335,105.52106116458333,106.39737702708334,66.0,79.0
336,105.52106116458333,106.40264018541667,74.0,77.0
337,105.52106116458333,106.403955975,69.0,85.0
338,106.13948226875,106.51974545833333,62.0,58.0
339,102.36316616458333,106.57500862083333,57.0,58.0
340,102.04737666458334,106.62632441458334,50.0,85.0
341,106.46842966458334,106.71448231666668,74.0,72.0
342,106.46842966458334,106.72632442291666,66.0,75.0
343,106.46842966458334,106.73290337083334,69.0,77.0
344,107.10000866458333,107.78290345833334,67.0,79.0
345,107.10000866458333,107.78553503750001,62.0,73.0
346,107.10000866458333,107.78685082708334,59.0,68.0
347,107.73158766458334,108.32764034583334,55.0,52.0
348,108.04737716458334,108.92369302708335,67.0,75.0
349,108.04737716458334,108.92500881666666,59.0,72.0
350,108.04737716458334,108.92764039583334,62.0,77.0
351,108.99474566458333,109.19606147083334,67.0,70.0
352,108.99474566458333,109.21711410416667,62.0,67.0
353,108.99474566458333,109.22500884166666,59.0,62.0
354,107.10000866458333,109.27369305625001,43.0,73.0
355,108.67895616458334,109.31579832291666,55.0,56.0
356,107.41579816458334,109.56579834375,50.0,59.0
357,109.62632466458334,110.4223773625,61.0,71.0
358,109.62632466458334,110.42895631041667,69.0,83.0
359,109.62632466458334,110.43290367916667,64.0,74.0
360,110.25790366458334,110.98685109375,57.0,53.0
361,110.57369316458333,111.42632481458334,69.0,84.0
362,110.57369316458333,111.43158797291667,61.0,83.0
363,110.57369316458333,111.43685113125,64.0,93.0
364,111.20527216458333,111.5592195625,57.0,55.0
365,109.94474574375,111.56843008958333,52.0,66.0
366,109.62632466458334,111.72500905000001,45.0,77.0
367,111.52106166458333,111.7644827375,69.0,72.0
368,111.52106166458333,111.77764063333333,64.0,73.0
369,111.52106166458333,111.7960616875,61.0,65.0
370,112.15264066458334,112.89211441041667,57.0,61.0
371,112.15264066458334,112.89474598958334,61.0,65.0
372,112.15264066458334,112.89869335833333,66.0,69.0
373,112.78421966458333,113.3986934,54.0,52.0
374,113.10000916458334,113.89211449375,57.0,70.0
375,113.10000916458334,113.95395660416668,66.0,74.0
376,113.10000916458334,113.97764081666668,61.0,79.0
377,112.44211437291668,114.20000925625,49.0,67.0
378,112.15264066458334,114.22237767916667,42.0,73.0
379,113.73158816458334,114.44474611875,54.0,56.0
380,114.04737766458334,114.67764087500001,57.0,65.0
381,114.36316716458333,114.68421982291667,61.0,69.0
382,115.31053566458334,115.91053571458333,59.0,57.0
383,115.62632516458333,116.53158839791666,62.0,69.0
384,115.62632516458333,116.540798925,66.0,72.0
385,115.62632516458333,116.54606208333334,71.0,65.0
386,114.67895666458334,116.76579894375001,47.0,79.0
387,114.99474616458333,116.78948315625001,54.0,65.0
388,116.57369366458335,116.87895684791667,66.0,74.0
389,116.57369366458335,116.88290421666667,62.0,72.0
390,116.57369366458335,116.88290421666667,71.0,69.0
391,116.25790416458334,117.17895687291667,59.0,53.0
392,117.20527266458333,117.91711482916668,67.0,83.0
393,117.20527266458333,117.92106219791667,71.0,77.0
394,117.20527266458333,117.9223779875,76.0,77.0
395,117.83685166458334,118.47106224375,64.0,57.0
396,118.15264116458334,118.95790438958333,76.0,83.0
397,118.15264116458334,118.96448333750001,67.0,83.0
398,118.15264116458334,118.96448333750001,71.0,84.0
399,117.52106216458333,119.14737808958333,59.0,58.0
400,118.78422016458333,119.1539570375,64.0,57.0
401,117.20527266458333,119.18948335625001,52.0,71.0
402,119.10000966458334,119.35527284375,76.0,81.0
403,119.10000966458334,119.36711495,71.0,77.0
404,119.10000966458334,119.39869390000001,67.0,74.0
405,119.73158866458334,120.51843083541667,61.0,71.0
406,119.73158866458334,120.5276413625,69.0,72.0
407,119.73158866458334,120.53027294166668,64.0,73.0
408,120.36316766458333,121.08685193541666,57.0,55.0
409,120.67895716458334,121.48948354791668,61.0,73.0
410,120.67895716458334,121.50132565416666,69.0,85.0
411,120.67895716458334,121.50264144375001,64.0,83.0
412,119.73158866458334,121.72237830416667,45.0,73.0
413,120.04737816458334,121.82500989166667,52.0,63.0
414,121.62632566458333,121.93948358541667,61.0,71.0
415,121.62632566458333,121.94737832291668,64.0,75.0
416,121.62632566458333,121.94737832291668,69.0,75.0
417,121.31053616458334,122.25922045416667,57.0,50.0
418,123.20527316458333,124.53290485416667,59.0,57.0
419,122.25790466458334,124.59869433333333,66.0,69.0
420,122.25790466458334,124.60658907083334,47.0,83.0
421,122.25790466458334,124.61711538750001,71.0,67.0
422,122.25790466458334,124.66448381250001,62.0,58.0
423,122.88948366458334,124.67764170833334,54.0,59.0
424,125.73158916458334,126.1013260375,71.0,59.0
425,126.04737866458333,126.35922079583334,81.0,93.0
426,126.36316816458333,126.70001029791666,78.0,70.0
427,126.67895766458334,127.29606297916666,74.0,79.0
428,125.73158916458334,127.70264196041667,59.0,60.0
429,127.31053666458334,127.70264196041667,59.0,65.0
430,125.41579966458335,127.71579985625,54.0,72.0
431,124.78422066458333,127.79211565208334,47.0,71.0
432,127.31053666458334,128.14211568125,67.0,58.0
433,127.31053666458334,128.16448410416666,62.0,58.0
434,127.94211566458334,128.53158939791666,55.0,58.0
435,128.25790516458335,129.08816839166667,59.0,63.0
436,128.25790516458335,129.09211576041668,67.0,74.0
437,128.25790516458335,129.10790523541667,62.0,69.0
438,129.20527366458333,129.43158947291667,67.0,67.0
439,129.20527366458333,129.45527368541667,62.0,59.0
440,129.20527366458333,129.46974737083335,59.0,62.0
441,127.31053666458334,129.47764210833333,43.0,84.0
442,128.88948416458334,129.53553685,55.0,57.0
443,127.62632616458333,129.80395792500002,50.0,74.0
444,129.83685266458335,130.60001062291667,61.0,64.0
445,129.83685266458335,130.61185272916669,64.0,68.0
446,129.83685266458335,130.61316851875,69.0,74.0
447,130.46843166458333,131.11974750833335,57.0,54.0
448,130.78422116458333,131.59474754791665,69.0,91.0
449,130.78422116458333,131.59869491666666,61.0,81.0
450,130.78422116458333,131.60001070625,64.0,91.0
451,131.41580016458335,131.93290547083333,57.0,51.0
452,129.83685266458335,132.11843180208334,45.0,75.0
453,131.73158966458334,132.13422127708333,61.0,77.0
454,131.73158966458334,132.15132654166666,69.0,98.0
455,131.73158966458334,132.1565897,64.0,88.0
456,132.04737916458333,132.35658971666666,57.0,59.0
457,130.15264216458334,132.39606340416668,52.0,66.0
458,132.36316866458333,132.99474766458334,74.0,65.0
459,132.36316866458333,133.23158978958332,62.0,65.0
460,132.36316866458333,133.23290557916667,71.0,69.0
461,132.36316866458333,133.23422136875,66.0,67.0
462,132.99474766458334,133.3013266375,78.0,58.0
463,132.99474766458334,133.55527402708333,59.0,55.0
464,133.31053716458334,133.92237932083333,81.0,72.0
465,133.31053716458334,134.15264249791667,62.0,66.0
466,133.31053716458334,134.16843197291666,66.0,71.0
467,133.31053716458334,134.17369513125,71.0,71.0
468,133.94211616458335,134.25790566458335,78.0,81.0
469,133.94211616458335,134.67895833125,59.0,57.0
470,132.36316866458333,134.75132675833333,47.0,66.0
471,134.25790566458335,134.77632676041668,69.0,77.0
472,134.25790566458335,134.78685307708332,66.0,58.0
473,134.25790566458335,134.8329057125,62.0,81.0
474,132.67895816458332,134.90001098125,54.0,59.0
475,134.88948466458334,135.65658999166666,62.0,67.0
476,134.88948466458334,135.68290578333335,71.0,73.0
477,134.88948466458334,135.6855373625,66.0,69.0
478,134.88948466458334,135.70922157500002,74.0,77.0
479,135.52106366458332,135.835537375,78.0,67.0
480,135.83685316458335,136.76580061041668,62.0,83.0
481,135.83685316458335,136.77237955833334,71.0,71.0
482,135.83685316458335,136.77895850625,66.0,79.0
483,135.83685316458335,136.91843220208335,81.0,93.0
484,137.10001116458335,137.37369539791666,71.0,51.0
485,135.52106366458332,137.37632697708335,59.0,56.0
486,134.88948466458334,137.3986954,47.0,75.0
487,137.10001116458335,137.41053750625,66.0,64.0
488,137.10001116458335,137.41580066458334,62.0,59.0
489,135.20527416458333,137.42764277083333,54.0,61.0
490,138.04737966458333,139.3960639875,62.0,59.0
491,138.36316916458333,139.40132714583333,69.0,63.0
492,137.73159016458334,139.61974821666666,57.0,64.0
493,137.41580066458334,139.77237980833334,50.0,69.0
494,139.31053766458334,139.91448508333335,66.0,71.0
495,140.88948516458333,141.18159045208336,61.0,59.0
496,140.57369566458334,141.43159047291667,59.0,53.0
497,141.52106416458332,141.86843261458336,59.0,57.0
498,141.52106416458332,141.8829063,74.0,63.0
499,140.25790616458335,142.08553789583334,54.0,56.0
500,141.83685366458334,142.13816947916666,81.0,75.0
501,139.94211666458335,142.15264316458334,47.0,79.0
502,142.15264316458334,142.52895898541666,78.0,72.0
503,141.83685366458334,143.21316956875,66.0,68.0
504,141.20527466458333,143.31053799791667,62.0,69.0
505,142.46843266458333,143.31053799791667,62.0,70.0
506,143.41580116458334,144.40659072083332,66.0,69.0
507,143.10001166458335,144.4947486229167,59.0,57.0
508,142.46843266458333,144.63685389791667,47.0,69.0
509,142.78422216458335,144.64080126666667,54.0,59.0
510,144.36316966458332,144.97238024166666,62.0,62.0
511,144.67895916458335,144.99869603333335,66.0,66.0
512,144.99474866458334,146.88685408541667,45.0,74.0
513,145.62632766458333,146.92369619375,57.0,52.0
514,145.31053816458333,146.95527514375001,52.0,67.0
515,145.94211716458335,146.9750119875,64.0,71.0
516,145.94211716458335,146.98422251458334,61.0,64.0
517,146.88948566458333,147.23685411458334,83.0,83.0
518,147.20527516458333,147.50527518958333,85.0,77.0
519,147.52106466458332,148.21185419583333,81.0,91.0
520,147.52106466458332,148.37369631458336,57.0,59.0
521,147.52106466458332,148.3802752625,61.0,72.0
522,148.15264366458334,148.87238056666666,54.0,56.0
523,148.46843316458333,148.88159109375,83.0,69.0
524,147.86185416666666,149.31843323541668,49.0,61.0
525,147.52106466458332,149.40659113750002,42.0,62.0
526,148.46843316458333,149.47632798541667,61.0,62.0
527,149.10001216458335,149.49343325,54.0,56.0
528,149.10001216458335,149.50264377708334,78.0,65.0
529,149.73159116458334,149.87238065000003,76.0,63.0
530,149.73159116458334,150.06448592916666,61.0,6.0
531,148.46843316458333,150.08027540416668,57.0,58.0
532,149.41580166458334,150.12632803958334,66.0,79.0
533,150.04738066458333,151.08159127708333,76.0,85.0
534,150.99474916458334,151.3486965625,61.0,67.0
535,151.31053866458333,151.69211764375,62.0,71.0
536,150.67895966458335,151.84474923541666,59.0,58.0
537,150.99474916458334,152.00264398541668,74.0,61.0
538,150.27238068333332,152.27238085,54.0,57.0
539,152.20001242291667,152.43948612708334,59.0,39.0
540,150.04738066458333,152.4697492875,47.0,73.0
541,151.62632816458336,152.65395982916667,64.0,93.0
542,152.57369666458334,153.67238096666665,43.0,79.0
543,153.20527566458333,153.76711781666666,55.0,59.0
544,152.88948616458333,153.83027571666668,50.0,79.0
545,153.52106516458332,153.85790729791665,57.0,58.0
546,154.15264416458334,154.83159158958335,52.0,72.0
547,153.83685466458334,154.85001264375,45.0,69.0
548,154.46843366458336,154.86317053958334,57.0,51.0
549,154.78422316458335,155.09606529583334,61.0,58.0
550,155.73159166458333,155.99474958125,62.0,58.0
551,156.04738116458333,156.51711804583334,64.0,71.0
552,156.67896016458334,157.0473812479167,66.0,91.0
553,155.10001266458335,157.26053916041667,50.0,71.0
554,155.41580216458334,157.62632866458335,57.0,56.0
555,157.31053916458333,157.91448658333334,62.0,88.0
556,157.62632866458335,159.50264461041667,50.0,85.0
557,157.62632866458335,159.50264461041667,69.0,85.0
558,157.62632866458335,159.51711829583334,66.0,71.0
559,160.78422366458335,161.28553949583335,55.0,57.0
560,160.15264466458333,161.89738165208334,59.0,65.0
561,161.73159216458333,161.90922375833333,67.0,56.0
562,161.10001316458334,161.98685534375,62.0,65.0
563,161.41580266458334,162.2750132625,55.0,66.0
564,162.04738166458333,162.28422378958334,62.0,63.0
565,162.04738166458333,162.28553957916665,67.0,73.0
566,162.04738166458333,162.30264484375,59.0,61.0
567,160.15264466458333,162.33685537291666,43.0,69.0
568,160.46843416458336,162.50922380833333,50.0,75.0
569,162.67896066458334,163.76580286041667,61.0,61.0
570,162.67896066458334,163.77369759791668,64.0,67.0
571,162.67896066458334,163.78817128333333,69.0,74.0
572,164.25001342708333,164.57369766458334,57.0,49.0
573,163.31053966458336,164.58948713958335,52.0,58.0
574,163.94211866458335,164.635539775,69.0,88.0
575,163.94211866458335,164.63948714375,64.0,88.0
576,163.94211866458335,164.66053977708333,61.0,85.0
577,162.67896066458334,164.78027662916668,45.0,68.0
578,165.20527666458332,166.29738201875,66.0,68.0
579,165.20527666458332,166.31185570416667,61.0,69.0
580,165.20527666458332,166.31317149375002,57.0,61.0
581,166.46843466458336,167.18422419791668,66.0,79.0
582,166.46843466458336,167.193434725,61.0,79.0
583,166.46843466458336,167.20264525208336,57.0,68.0
584,165.20527666458332,167.54869791250002,42.0,72.0
585,165.83685566458334,167.603961075,49.0,72.0
586,167.10001366458334,167.74475056041666,54.0,50.0
587,167.73159266458333,168.867119075,62.0,68.0
588,167.73159266458333,168.86843486458332,71.0,68.0
589,167.73159266458333,168.87632960208333,66.0,62.0
590,167.73159266458333,169.72632967291668,47.0,72.0
591,168.36317166458332,169.76054020208335,54.0,59.0
592,168.99475066458334,169.78817178333333,71.0,83.0
593,168.99475066458334,169.79738231041668,66.0,83.0
594,168.99475066458334,169.81054020625,62.0,83.0
595,169.62632966458335,170.23159287291668,59.0,53.0
596,170.25790866458334,171.38290875833334,76.0,65.0
597,170.25790866458334,171.39606665416667,67.0,69.0
598,170.25790866458334,171.39606665416667,71.0,66.0
599,170.88948766458333,172.06185618333333,59.0,57.0
600,171.83685616458334,172.16843513958332,64.0,54.0
601,171.52106666458334,172.23159303958334,76.0,96.0
602,171.52106666458334,172.25790883125,71.0,75.0
603,170.25790866458334,172.26975093750002,52.0,83.0
604,171.52106666458334,172.26975093750002,67.0,75.0
605,172.78422466458335,173.87369843958334,61.0,69.0
606,172.78422466458335,173.88554054583335,69.0,83.0
607,172.78422466458335,173.89080370416667,64.0,79.0
608,173.25790891458334,174.65527745208334,52.0,9.0
609,172.78422466458335,174.7315932479167,45.0,68.0
610,174.04738266458332,174.75001430208334,69.0,71.0
611,174.04738266458332,174.76317219791667,61.0,66.0
612,174.04738266458332,174.76580377708333,64.0,72.0
613,174.36317216458335,175.277645925,57.0,56.0
614,175.31054066458336,176.04475125208336,74.0,81.0
615,175.31054066458336,176.05001441041668,66.0,73.0
616,175.31054066458336,176.0618565166667,69.0,83.0
617,175.94211966458334,176.7065934125,62.0,59.0
618,176.25790916458334,177.5039619,66.0,65.0
619,176.25790916458334,177.53948821875002,74.0,64.0
620,176.25790916458334,177.64738296458336,69.0,75.0
621,176.88948816458333,178.03422510208333,62.0,57.0
622,177.83685666458334,178.5763304104167,74.0,67.0
623,177.83685666458334,178.57896198958332,66.0,67.0
624,177.83685666458334,178.57896198958332,69.0,67.0
625,178.46843566458335,179.06580413541667,62.0,54.0
626,178.78422516458335,179.66054102708335,66.0,75.0
627,178.78422516458335,179.66580418541668,74.0,75.0
628,178.78422516458335,179.667119975,69.0,75.0
629,179.41580416458334,179.79606735416667,62.0,58.0
630,175.62633016458335,179.83817262083335,57.0,58.0
631,175.31054066458336,179.88948841458335,50.0,85.0
632,179.73159366458333,179.97764631666666,74.0,72.0
633,179.73159366458333,179.98948842291668,66.0,75.0
634,179.73159366458333,179.99606737083334,69.0,77.0
635,180.36317266458335,181.04606745833334,67.0,79.0
636,180.36317266458335,181.0486990375,62.0,73.0
637,180.36317266458335,181.05001482708334,59.0,68.0
638,180.99475166458333,181.59080434583333,55.0,52.0
639,181.31054116458336,182.18685702708333,67.0,75.0
640,181.31054116458336,182.18817281666668,59.0,72.0
641,181.31054116458336,182.19080439583334,62.0,77.0
642,182.25790966458334,182.45922547083336,67.0,70.0
643,182.25790966458334,182.48027810416667,62.0,67.0
644,182.25790966458334,182.48817284166665,59.0,62.0
645,180.36317266458335,182.53685705625003,43.0,73.0
646,181.94212016458334,182.57896232291665,55.0,56.0
647,180.67896216458334,182.82896234375,50.0,59.0
648,182.88948866458333,183.6855413625,61.0,71.0
649,182.88948866458333,183.69212031041667,69.0,83.0
650,182.88948866458333,183.69606767916667,64.0,74.0
651,183.52106766458334,184.25001509375,57.0,53.0
652,183.83685716458334,184.68948881458334,69.0,84.0
653,183.83685716458334,184.69475197291666,61.0,83.0
654,183.83685716458334,184.70001513125,64.0,93.0
655,184.46843616458335,184.82238356250002,57.0,55.0
656,183.23027816666666,184.83159408958335,52.0,66.0
657,182.88948866458333,184.98817305,45.0,77.0
658,184.78422566458335,185.0276467375,69.0,72.0
659,184.78422566458335,185.04080463333332,64.0,73.0
660,184.78422566458335,185.0592256875,61.0,65.0
661,185.41580466458333,186.15527841041666,57.0,61.0
662,185.41580466458333,186.15790998958335,61.0,65.0
663,185.41580466458333,186.16185735833335,66.0,69.0
664,186.04738366458332,186.6618574,54.0,52.0
665,186.36317316458334,187.15527849375002,57.0,70.0
666,186.36317316458334,187.21712060416667,66.0,74.0
667,186.36317316458334,187.24080481666667,61.0,79.0
668,185.73948890208334,187.46317325625,49.0,67.0
669,185.41580466458333,187.48554167916666,42.0,73.0
670,186.99475216458336,187.70791011875002,54.0,56.0
671,187.31054166458335,187.94080487500003,57.0,65.0
672,187.62633116458335,187.94738382291666,61.0,69.0
673,188.57369966458333,189.17369971458334,59.0,57.0
674,188.88948916458332,189.79475239791668,62.0,69.0
675,188.88948916458332,189.803962925,66.0,72.0
676,188.88948916458332,189.80922608333333,71.0,65.0
677,187.94212066458334,190.02896294375,47.0,79.0
678,188.25791016458334,190.05264715625,54.0,65.0
679,189.83685766458333,190.14212084791666,66.0,74.0
680,189.83685766458333,190.14606821666666,62.0,72.0
681,189.83685766458333,190.14606821666666,71.0,69.0
682,189.52106816458334,190.4421208729167,59.0,53.0
683,190.46843666458335,191.18027882916667,67.0,83.0
684,190.46843666458335,191.18422619791667,71.0,77.0
685,190.46843666458335,191.18554198750002,76.0,77.0
686,191.10001566458334,191.73422624375002,64.0,57.0
687,191.41580516458333,192.22106838958334,76.0,83.0
688,191.41580516458333,192.2276473375,67.0,83.0
689,191.41580516458333,192.2276473375,71.0,84.0
690,190.78422616458334,192.41054208958334,59.0,58.0
691,192.04738416458332,192.4171210375,64.0,57.0
692,190.46843666458335,192.45264735625,52.0,71.0
693,192.36317366458334,192.61843684375,76.0,81.0
694,192.36317366458334,192.63027895,71.0,77.0
695,192.36317366458334,192.6618579,67.0,74.0
696,192.99475266458336,193.78159483541668,61.0,71.0
697,192.99475266458336,193.7908053625,69.0,72.0
698,192.99475266458336,193.79343694166667,64.0,73.0
699,193.62633166458335,194.35001593541668,57.0,55.0
700,193.94212116458334,194.7526475479167,61.0,73.0
701,193.94212116458334,194.76448965416668,69.0,85.0
702,193.94212116458334,194.76580544375003,64.0,83.0
703,192.99475266458336,194.98554230416667,45.0,73.0
704,193.31054216458335,195.08817389166666,52.0,63.0
705,194.88948966458332,195.20264758541668,61.0,71.0
706,194.88948966458332,195.2105423229167,64.0,75.0
707,194.88948966458332,195.2105423229167,69.0,75.0
708,194.57370016458333,195.52238445416668,57.0,50.0
709,196.46843716458335,197.79606885416666,59.0,57.0
710,195.52106866458334,197.86185833333334,66.0,69.0
711,195.52106866458334,197.86975307083333,47.0,83.0
712,195.52106866458334,197.88027938750002,71.0,67.0
713,195.52106866458334,197.92764781250003,62.0,58.0
714,196.15264766458336,197.94080570833336,54.0,59.0
715,198.36317416458334,198.54738470625,57.0,44.0
716,198.04738466458335,199.11185843750002,66.0,66.0
717,198.04738466458335,199.1460689666667,69.0,84.0
718,198.99475316458336,199.41054267291668,62.0,48.0
719,199.62633216458335,199.98159535208333,62.0,62.0
720,200.25791116458333,200.46185855,62.0,57.0
721,198.04738466458335,200.509226975,50.0,71.0
722,198.67896366458334,200.51449013333334,57.0,48.0
723,199.94212166458334,200.51449013333334,73.0,68.0
724,199.31054266458335,200.53949013541666,66.0,83.0
725,199.31054266458335,200.54475329375,69.0,85.0
726,200.57370066458333,200.96975332916668,67.0,74.0
727,200.57370066458333,201.00527964791667,59.0,63.0
728,200.57370066458333,201.00527964791667,62.0,68.0
729,201.20527966458334,201.44343757916667,67.0,102.0
730,201.20527966458334,201.4644902125,62.0,96.0
731,201.20527966458334,201.51054284791667,59.0,79.0
732,201.83685866458336,202.27501659583334,67.0,102.0
733,201.83685866458336,202.28685870208335,59.0,72.0
734,201.83685866458336,202.28685870208335,62.0,85.0
735,202.46843766458335,202.82896401041666,67.0,106.0
736,202.46843766458335,202.83949032708335,62.0,91.0
737,202.46843766458335,202.84870085416668,59.0,79.0
738,200.57370066458333,202.92896401875,43.0,75.0
739,202.78422716458334,203.02238507916667,55.0,61.0
740,201.04738491458335,203.03422718541668,50.0,8.0
741,203.10001666458334,203.53949038541668,61.0,68.0
742,203.10001666458334,203.54212196458334,64.0,73.0
743,203.10001666458334,203.55264828125001,69.0,83.0
744,203.73159566458332,204.22370096875,61.0,81.0
745,203.73159566458332,204.2276483375,64.0,81.0
746,203.73159566458332,204.23817465416667,69.0,81.0
747,204.36317466458334,204.83291154583333,69.0,77.0
748,204.36317466458334,204.83422733541667,61.0,77.0
749,204.36317466458334,204.83422733541667,64.0,77.0
750,204.67896416458333,204.97501682083333,57.0,77.0
751,203.25791141458336,205.10922735833333,52.0,67.0
752,203.10001666458334,205.26712210833335,45.0,72.0
753,204.99475366458336,205.30001684791668,69.0,83.0
754,204.99475366458336,205.30528000625,64.0,83.0
755,204.99475366458336,205.31975369166668,61.0,83.0
756,205.62633266458334,206.0513327,57.0,72.0
757,205.62633266458334,206.05659585833334,61.0,74.0
758,205.62633266458334,206.06317480625,66.0,63.0
759,206.25791166458333,206.76185907500002,57.0,71.0
760,206.25791166458333,206.76712223333334,66.0,84.0
761,206.25791166458333,206.76975381250003,61.0,84.0
762,206.88949066458332,207.2973854354167,57.0,67.0
763,206.88949066458332,207.30396438333332,66.0,77.0
764,206.88949066458332,207.31054333125002,61.0,88.0
765,205.62633266458334,207.74212231458336,42.0,74.0
766,205.94212216458334,207.80791179375,49.0,60.0
767,207.52106966458334,207.83817495416667,66.0,96.0
768,207.52106966458334,207.8434381125,61.0,91.0
769,207.52106966458334,207.8539644291667,57.0,75.0
770,207.20528016458334,207.97238549166667,54.0,56.0
771,208.15264866458335,208.5408065916667,71.0,77.0
772,208.15264866458335,208.55264869791668,62.0,88.0
773,208.15264866458335,208.55528027708334,66.0,91.0
774,208.78422766458334,209.23291191250001,62.0,83.0
775,208.78422766458334,209.24212243958334,66.0,91.0
776,208.78422766458334,209.24212243958334,71.0,84.0
777,209.10001716458333,209.48028035416667,59.0,50.0
778,209.41580666458333,209.9105435479167,62.0,72.0
779,209.41580666458333,209.91580670625,66.0,72.0
780,209.41580666458333,209.91712249583333,71.0,72.0
781,209.70264879375003,210.0381751375,74.0,77.0
782,209.73159616458332,210.18422778125,59.0,77.0
783,210.21580673125,210.33817516250002,86.0,75.0
784,210.04738566458335,210.49212254375,71.0,75.0
785,210.04738566458335,210.4960699125,66.0,75.0
786,210.04738566458335,210.49870149166668,62.0,75.0
787,210.35133305833335,210.53291202083335,85.0,75.0
788,208.31054341458332,210.5539646541667,54.0,61.0
789,208.15264866458335,210.59606992083334,47.0,71.0
790,210.36317516458334,210.6065962375,59.0,75.0
791,210.54212254791668,210.677648875,81.0,74.0
792,210.67896466458336,211.06712259166667,67.0,74.0
793,210.66843834791666,211.06843838125002,83.0,74.0
794,210.67896466458336,211.09212259375,71.0,74.0
795,211.31054366458335,211.81843844375,67.0,72.0
796,211.31054366458335,211.83554370833335,71.0,84.0
797,211.62633316458334,212.10791215208334,64.0,72.0
798,211.94212266458334,212.41054375625,67.0,62.0
799,211.94212266458334,212.42764902083334,71.0,88.0
800,212.31580690625,212.71580693958333,64.0,73.0
801,210.99475416458336,212.74212273125002,59.0,63.0
802,210.67896466458336,212.81054378958333,52.0,74.0
803,212.57370166458333,212.86054379375,71.0,93.0
804,212.57370166458333,212.888175375,67.0,76.0
805,213.20528066458334,213.6697543875,61.0,71.0
806,213.20528066458334,213.68422807291668,64.0,79.0
807,213.83685966458333,214.30264917708334,69.0,83.0
808,213.83685966458333,214.31449128333335,61.0,65.0
809,213.83685966458333,214.31843865208333,64.0,75.0
810,214.15264916458335,214.56975446250001,57.0,46.0
811,214.46843866458335,214.95001765208335,61.0,71.0
812,214.46843866458335,214.95528081041667,64.0,85.0
813,214.46843866458335,214.95528081041667,69.0,91.0
814,214.78422816458334,215.25001767708335,57.0,52.0
815,213.20528066458334,215.37896505625,45.0,81.0
816,213.52107016458334,215.43949137708333,52.0,75.0
817,215.10001766458333,215.49738611875,61.0,79.0
818,215.10001766458333,215.49738611875,64.0,88.0
819,215.10001766458333,215.49870190833335,69.0,88.0
820,215.41580716458336,215.75264929791666,57.0,58.0
821,215.73159666458335,216.26449144583333,66.0,85.0
822,215.73159666458335,216.27238618333334,69.0,88.0
823,216.36317566458334,216.81975465000002,74.0,73.0
824,216.36317566458334,216.8276493875,66.0,71.0
825,216.36317566458334,216.84475465208334,69.0,83.0
826,216.67896516458333,217.05133361666668,62.0,78.0
827,216.99475466458335,217.48028102083333,74.0,77.0
828,216.99475466458335,217.49607049583335,66.0,77.0
829,216.99475466458335,217.50528102291668,69.0,77.0
830,215.73159666458335,217.89212316041667,50.0,83.0
831,217.62633366458334,218.01975475,74.0,88.0
832,216.04738616458334,218.02501790833335,57.0,57.0
833,217.62633366458334,218.08817580833335,69.0,88.0
834,217.62633366458334,218.12633370625,66.0,88.0
835,218.25791266458333,218.78159691875,69.0,88.0
836,218.25791266458333,218.78291270833336,66.0,88.0
837,218.25791266458333,218.8013337625,72.0,88.0
838,218.25791266458333,218.84212323958334,50.0,88.0
839,218.25791266458333,218.8434390291667,38.0,88.0
840,218.88949166458335,219.46186013333335,66.0,88.0
841,218.88949166458335,219.46186013333335,69.0,88.0
842,218.88949166458335,219.46975487083336,72.0,88.0
843,218.88949166458335,219.51054434791666,50.0,88.0
844,218.88949166458335,219.5118601375,38.0,88.0
845,217.31054416458335,219.85264963958335,62.0,82.0
846,219.52107066458333,220.02501807500002,66.0,85.0
847,219.52107066458333,220.03028123333334,69.0,85.0
848,219.52107066458333,220.03949176041667,72.0,85.0
849,219.52107066458333,220.2223865125,40.0,85.0
850,219.52107066458333,220.2223865125,52.0,85.0
851,220.15264966458335,220.59870233333334,66.0,78.0
852,220.15264966458335,220.6013339125,69.0,78.0
853,220.15264966458335,220.60396549166668,72.0,78.0
854,220.15264966458335,220.77370234791667,42.0,78.0
855,220.15264966458335,220.77370234791667,54.0,78.0
856,220.78422866458334,221.26186028333333,67.0,70.0
857,220.78422866458334,221.26843923125,59.0,62.0
858,220.78422866458334,221.29080765416668,62.0,69.0
859,221.41580766458335,221.92238665416667,67.0,79.0
860,221.41580766458335,221.9342287604167,62.0,79.0
861,221.41580766458335,221.93554455,59.0,79.0
862,222.04738666458334,222.49343933333336,67.0,85.0
863,222.04738666458334,222.5065972291667,59.0,85.0
864,222.04738666458334,222.50922880833335,62.0,85.0
865,222.36317616458334,222.77107093541667,55.0,57.0
866,222.67896566458333,223.12238675416668,67.0,74.0
867,222.67896566458333,223.151334125,59.0,74.0
868,222.67896566458333,223.15396570416667,62.0,74.0
869,220.78422866458334,223.17633412708335,43.0,66.0
870,222.99475516458335,223.20396570833333,55.0,43.0
871,221.10001816458333,223.40001835625,50.0,58.0
872,223.31054466458335,223.7276499625,61.0,73.0
873,223.31054466458335,223.73554470000002,64.0,73.0
874,223.31054466458335,223.73686048958334,69.0,73.0
875,223.94212366458333,224.42238686250002,69.0,88.0
876,223.94212366458333,224.43159738958335,61.0,67.0
877,223.94212366458333,224.43159738958335,64.0,88.0
878,224.25791316458333,224.62633424791667,57.0,53.0
879,224.57370266458335,224.9908079625,69.0,77.0
880,224.57370266458335,225.00265006875,61.0,77.0
881,224.57370266458335,225.01449217500002,64.0,77.0
882,224.88949216458334,225.23159745625,57.0,81.0
883,223.62633416458334,225.30265009375,52.0,61.0
884,225.20528166458334,225.48291326666669,69.0,80.0
885,225.20528166458334,225.488176425,64.0,80.0
886,223.31054466458335,225.49343958333336,45.0,73.0
887,225.20528166458334,225.50791326875,61.0,80.0
888,225.83686066458336,226.29607122916667,57.0,62.0
889,225.83686066458336,226.30265017708334,61.0,75.0
890,225.83686066458336,226.31054491458335,66.0,74.0
891,226.46843966458334,226.99080812916668,61.0,83.0
892,226.46843966458334,226.99343970833334,57.0,72.0
893,226.46843966458334,226.99343970833334,66.0,85.0
894,226.78422916458334,227.15922919583335,54.0,57.0
895,227.10001866458333,227.53686080625002,66.0,96.0
896,227.10001866458333,227.54475554375,57.0,81.0
897,227.10001866458333,227.54475554375,61.0,91.0
898,225.83686066458336,227.96449242083335,42.0,71.0
899,226.15265016458335,228.04343979583334,49.0,72.0
900,227.73159766458335,228.06317663958333,66.0,91.0
901,227.73159766458335,228.06843979791668,61.0,91.0
902,227.73159766458335,228.077650325,57.0,74.0
903,227.41580816458335,228.32896613541666,54.0,59.0
904,228.36317666458334,228.88949249791668,62.0,93.0
905,228.36317666458334,228.89080828750002,71.0,85.0
906,228.36317666458334,228.89212407708334,66.0,96.0
907,228.99475566458335,229.48028202083333,62.0,83.0
908,228.99475566458335,229.48949254791668,71.0,79.0
909,228.99475566458335,229.4934399166667,66.0,88.0
910,228.99475566458335,229.75659783333333,59.0,57.0
911,229.62633466458334,230.1144926,62.0,85.0
912,229.62633466458334,230.12107154791667,66.0,93.0
913,229.62633466458334,230.12633470625002,71.0,91.0
914,229.94212416458333,230.38686104375,59.0,47.0
915,230.25791366458336,230.57370316458335,71.0,96.0
916,230.25791366458336,230.57633474375,66.0,96.0
917,228.67896616458333,230.58159790208333,54.0,57.0
918,230.25791366458336,230.59344000833335,62.0,96.0
919,228.36317666458334,230.59475579791666,47.0,71.0
920,228.38554508750002,230.61712422083335,35.0,71.0
921,230.88949266458334,231.35133480833335,55.0,67.0
922,230.88949266458334,231.3539663875,64.0,71.0
923,230.88949266458334,231.37107165208334,59.0,72.0
924,231.52107166458333,231.961861175,64.0,73.0
925,231.52107166458333,231.9697559125,55.0,72.0
926,231.52107166458333,231.97370328125,59.0,79.0
927,232.15265066458335,232.61054543958335,64.0,85.0
928,232.15265066458335,232.62370333541668,55.0,79.0
929,232.15265066458335,232.62501912500002,59.0,88.0
930,232.46844016458334,232.81186124583334,52.0,43.0
931,232.78422966458334,233.130282325,64.0,85.0
932,230.88949266458334,233.13554548333335,40.0,55.0
933,232.78422966458334,233.14080864166667,59.0,84.0
934,232.78422966458334,233.1565981166667,55.0,83.0
935,231.20528216458334,233.19607180416668,47.0,57.0
936,233.10001916458333,233.42238761250002,52.0,58.0
937,233.41580866458335,233.85265080625,61.0,63.0
938,233.41580866458335,233.86844028125,69.0,83.0
939,233.41580866458335,233.87370343958335,64.0,73.0
940,234.04738766458334,234.5355456,69.0,88.0
941,234.04738766458334,234.54080875833336,64.0,79.0
942,234.04738766458334,234.54212454791667,61.0,72.0
943,234.36317716458333,234.90265089375,57.0,43.0
944,234.67896666458336,235.17238775833334,69.0,75.0
945,234.67896666458336,235.1737035479167,61.0,75.0
946,234.67896666458336,235.17765091666666,64.0,75.0
947,234.99475616458335,235.45133515,57.0,56.0
948,233.73159816458335,235.66975622083334,52.0,73.0
949,235.31054566458334,235.67370358958334,69.0,81.0
950,235.31054566458334,235.6789667479167,64.0,81.0
951,233.41580866458335,235.70133517083335,45.0,64.0
952,235.31054566458334,235.70528253958335,61.0,81.0
953,235.94212466458333,236.48949313125001,54.0,83.0
954,235.94212466458333,236.50528260625,62.0,83.0
955,235.94212466458333,236.51186155416667,57.0,83.0
956,236.57370366458335,237.08817739166668,54.0,61.0
957,236.57370366458335,237.09212476041668,62.0,72.0
958,236.57370366458335,237.10659844583336,57.0,64.0
959,236.88949316458334,237.31712477916668,50.0,57.0
960,237.20528266458334,237.63423006875,62.0,93.0
961,237.20528266458334,237.63817743750002,54.0,74.0
962,237.20528266458334,237.64080901666668,57.0,72.0
963,237.52107216458333,237.91186167083333,50.0,59.0
964,237.83686166458335,238.31580907291666,62.0,83.0
965,237.83686166458335,238.32501960000002,57.0,73.0
966,237.83686166458335,238.32633538958333,54.0,75.0
967,238.15265116458335,238.53159856458333,50.0,57.0
968,238.46844066458334,240.82370401875002,57.0,77.0
969,238.78423016458333,240.82501980833334,50.0,56.0
970,238.46844066458334,240.82896717708334,54.0,84.0
971,238.46844066458334,240.8302829666667,62.0,98.0
972,235.94212466458333,240.91054613125002,38.0,83.0
973,236.25791416458335,240.93291455416667,45.0,56.0
974,241.62633566458334,242.67501996250002,67.0,58.0
975,240.99475666458335,242.71054628125,55.0,67.0
976,241.94212516458333,242.88423050625002,76.0,61.0
977,242.25791466458335,242.91580945625,81.0,68.0
978,244.15265166458335,244.80265171875,64.0,58.0
979,243.52107266458333,244.98291489166667,57.0,65.0
980,244.78423066458333,245.47107282708333,76.0,81.0
981,245.41580966458335,245.94738865625,69.0,56.0
982,246.99475716458335,247.246072975,76.0,70.0
983,246.67896766458335,247.86317828958335,66.0,54.0
984,246.04738866458334,247.94475724375002,54.0,65.0
985,246.36317816458333,247.94607303333333,61.0,58.0
986,247.31054666458334,247.99212566875002,73.0,84.0
987,249.20528366458333,249.62633633125,74.0,56.0
988,249.52107316458336,250.41712587083333,81.0,70.0
989,248.88949416458334,250.909231175,66.0,45.0
990,250.46844166458334,250.96844170625002,74.0,61.0
991,248.57370466458335,251.00659960416667,59.0,59.0
992,251.73159966458334,251.88291546666667,69.0,61.0
993,251.73159966458334,252.4171260375,64.0,56.0
994,252.67896816458335,253.00528398125002,64.0,56.0
995,251.41581016458335,253.10791556875,59.0,63.0
996,251.10002066458335,253.182915575,52.0,74.0
997,252.99475766458335,253.66844193125002,71.0,74.0
998,252.04738916458334,253.71712614583333,67.0,74.0
999,254.25791566458335,255.05528415208335,57.0,59.0
1000,254.57370516458334,255.46975787083335,61.0,72.0
1001,253.62633666458333,255.57107366875002,45.0,72.0
1002,254.88949466458334,255.61581051458333,64.0,70.0
1003,253.94212616458336,255.65923157083336,52.0,70.0
1004,255.52107366458335,255.9539684375,61.0,66.0
1005,255.20528416458333,256.1750210875,57.0,50.0
1006,256.78423166458333,257.34344223749997,62.0,59.0
1007,257.1000211645834,258.2855475791667,69.0,69.0
1008,256.15265266458334,259.28949503125,66.0,77.0
1009,257.73160016458337,259.309231875,62.0,56.0
1010,256.15265266458334,259.32370556041667,50.0,75.0
1011,259.31054766458334,259.32370556041667,50.0,58.0
1012,256.46844216458334,259.3829160916667,57.0,53.0
1013,259.31054766458334,259.3829160916667,57.0,58.0
1014,259.31054766458334,262.04081105,62.0,49.0
1015,259.31054766458334,262.06317947291666,66.0,62.0
1016,259.31054766458334,262.06975842083335,73.0,62.0
1017,259.31054766458334,262.07370578958336,69.0,66.0
