,start,end,pitch,velocity
0,17.7923680125,18.0602245125,69.0,115.0
1,18.0602245125,18.3280810125,71.0,112.0
2,18.3280810125,18.86267794375,73.0,117.0
3,18.8637940125,19.13053444375,73.0,120.0
4,19.131650512500002,19.6673635125,73.0,120.0
5,19.6673635125,19.9352200125,73.0,120.0
6,19.9352200125,20.2030765125,71.0,112.0
7,20.2030765125,20.4709330125,69.0,115.0
8,20.4709330125,20.738789512500002,71.0,112.0
9,20.738789512500002,21.2745025125,68.0,120.0
10,21.2745025125,21.80909944375,64.0,106.0
11,21.8102155125,22.07695594375,64.0,109.0
12,22.0780720125,22.345928512500002,64.0,106.0
13,22.345928512500002,22.6137850125,66.0,117.0
14,22.6137850125,22.8816415125,69.0,109.0
15,22.8816415125,23.1494980125,66.0,117.0
16,23.1494980125,23.4173545125,69.0,112.0
17,23.4173545125,23.6852110125,66.0,120.0
18,23.6852110125,23.953067512500002,69.0,112.0
19,23.953067512500002,24.2209240125,66.0,120.0
20,24.2209240125,24.4887805125,71.0,115.0
21,24.4887805125,26.3637760125,73.0,117.0
22,26.3637760125,26.63051644375,64.0,97.0
23,26.6316325125,26.899489012500002,64.0,105.0
24,26.899489012500002,27.167345512500003,66.0,105.0
25,27.167345512500003,27.701942443750003,69.0,111.0
26,27.7030585125,28.23765544375,69.0,114.0
27,28.2387715125,28.506628012500002,69.0,114.0
28,28.506628012500002,28.774484512500003,66.0,87.0
29,28.774484512500003,29.041224943750002,64.0,92.0
30,29.0423410125,29.3101975125,64.0,102.0
31,29.3101975125,29.84479444375,73.0,109.0
32,29.8459105125,30.6494800125,73.0,99.0
33,30.6494800125,30.916220443750003,69.0,111.0
34,30.9173365125,31.1851930125,69.0,97.0
35,31.1851930125,31.4530495125,73.0,102.0
36,31.4530495125,31.988762512500003,71.0,111.0
37,31.988762512500003,32.25550294375,69.0,111.0
38,32.2566190125,32.524475512500004,69.0,97.0
39,32.524475512500004,32.792332012500005,66.0,109.0
40,32.792332012500005,33.0601885125,69.0,108.0
41,33.0601885125,34.9351840125,71.0,105.0
42,34.9351840125,35.2030405125,69.0,115.0
43,35.2030405125,35.470897012500004,71.0,112.0
44,35.470897012500004,36.005493943750004,73.0,117.0
45,36.006610012500005,36.273350443750005,73.0,120.0
46,36.2744665125,36.54120694375,73.0,120.0
47,36.5423230125,37.0780360125,73.0,120.0
48,37.0780360125,37.6137490125,69.0,112.0
49,37.6137490125,37.8816055125,71.0,112.0
50,37.8816055125,38.4173185125,68.0,120.0
51,38.4173185125,39.219771943750004,64.0,106.0
52,39.220888012500005,39.4887445125,64.0,106.0
53,39.4887445125,39.7566010125,66.0,117.0
54,39.7566010125,40.0244575125,69.0,109.0
55,40.0244575125,40.2923140125,66.0,117.0
56,40.2923140125,40.5601705125,69.0,112.0
57,40.5601705125,40.8280270125,66.0,120.0
58,40.8280270125,41.0958835125,69.0,112.0
59,41.0958835125,41.3637400125,66.0,120.0
60,41.3637400125,41.6315965125,71.0,115.0
61,41.6315965125,43.5065920125,73.0,117.0
62,43.5065920125,43.77333244375,64.0,97.0
63,43.7744485125,44.0423050125,64.0,105.0
64,44.0423050125,44.3101615125,66.0,105.0
65,44.3101615125,44.84475844375,69.0,111.0
66,44.845874512500004,45.649444012500005,69.0,114.0
67,45.649444012500005,45.9173005125,66.0,87.0
68,45.9173005125,46.18404094375,64.0,92.0
69,46.1851570125,46.4530135125,64.0,102.0
70,46.4530135125,46.98761044375,73.0,109.0
71,46.9887265125,47.7922960125,73.0,99.0
72,47.7922960125,48.05903644375,69.0,111.0
73,48.060152512500004,48.328009012500004,69.0,97.0
74,48.328009012500004,48.595865512500005,73.0,102.0
75,48.595865512500005,49.1315785125,71.0,111.0
76,49.1315785125,49.39831894375,69.0,111.0
77,49.3994350125,49.6672915125,69.0,97.0
78,49.6672915125,49.9351480125,66.0,109.0
79,49.9351480125,50.2030045125,69.0,108.0
80,50.2030045125,54.2208520125,76.0,105.0
81,54.2208520125,54.488708512500004,69.0,120.0
82,54.488708512500004,54.756565012500005,71.0,108.0
83,54.756565012500005,55.82687494375,73.0,102.0
84,55.8279910125,56.3637040125,73.0,112.0
85,56.3637040125,56.8994170125,76.0,105.0
86,56.8994170125,57.1672735125,78.0,112.0
87,57.1672735125,57.702986512500004,76.0,114.0
88,57.702986512500004,58.238699512500006,71.0,114.0
89,58.238699512500006,58.505439943750005,73.0,102.0
90,58.5065560125,58.7744125125,73.0,102.0
91,58.7744125125,59.0422690125,71.0,111.0
92,59.0422690125,59.3101255125,69.0,108.0
93,59.3101255125,59.5779820125,66.0,105.0
94,59.5779820125,59.8458385125,69.0,105.0
95,59.8458385125,60.1136950125,66.0,109.0
96,60.1136950125,60.3815515125,69.0,108.0
97,60.3815515125,60.649408012500004,66.0,112.0
98,60.649408012500004,60.917264512500005,71.0,111.0
99,60.917264512500005,62.7922600125,73.0,109.0
100,62.7922600125,63.05900044375,64.0,120.0
101,63.0601165125,63.3279730125,64.0,97.0
102,63.3279730125,63.863686012500004,66.0,105.0
103,63.863686012500004,64.39828294375,69.0,114.0
104,64.3993990125,64.9351120125,69.0,111.0
105,64.9351120125,65.4708250125,66.0,105.0
106,65.4708250125,66.0065380125,64.0,94.0
107,66.0065380125,66.27327844375,73.0,109.0
108,66.27439451250001,67.0779640125,73.0,109.0
109,67.0779640125,67.34470444375,69.0,117.0
110,67.3458205125,67.6136770125,69.0,108.0
111,67.6136770125,67.8815335125,73.0,105.0
112,67.8815335125,68.14827394375,71.0,111.0
113,68.1493900125,68.4172465125,71.0,117.0
114,68.4172465125,68.68398694375,69.0,117.0
115,68.68510301250001,68.9529595125,69.0,111.0
116,68.9529595125,69.22081601250001,66.0,109.0
117,69.22081601250001,69.4886725125,69.0,111.0
118,69.4886725125,71.3636680125,71.0,105.0
119,71.3636680125,71.63152451250001,69.0,120.0
120,71.63152451250001,71.8993810125,71.0,108.0
121,71.8993810125,72.96969094375001,73.0,102.0
122,72.9708070125,73.5065200125,73.0,112.0
123,73.5065200125,74.0422330125,76.0,105.0
124,74.0422330125,74.3100895125,78.0,112.0
125,74.3100895125,74.8458025125,76.0,114.0
126,74.8458025125,75.3815155125,71.0,114.0
127,75.3815155125,75.64825594375,73.0,102.0
128,75.64937201250001,75.9172285125,73.0,102.0
129,75.9172285125,76.1850850125,71.0,111.0
130,76.1850850125,76.4529415125,69.0,108.0
131,76.4529415125,76.7207980125,66.0,105.0
132,76.7207980125,76.9886545125,69.0,105.0
133,76.9886545125,77.2565110125,66.0,109.0
134,77.2565110125,77.5243675125,69.0,108.0
135,77.5243675125,77.7922240125,66.0,112.0
136,77.7922240125,78.06008051250001,71.0,111.0
137,78.06008051250001,79.9350760125,73.0,109.0
138,79.9350760125,80.20181644375,64.0,120.0
139,80.2029325125,80.4707890125,64.0,97.0
140,80.4707890125,81.00650201250001,66.0,105.0
141,81.00650201250001,81.54109894375,69.0,114.0
142,81.54221501250001,82.07792801250001,69.0,111.0
143,82.07792801250001,82.6136410125,66.0,105.0
144,82.6136410125,83.1493540125,64.0,94.0
145,83.1493540125,83.41609444375,73.0,109.0
146,83.4172105125,84.2207800125,73.0,109.0
147,84.2207800125,84.48752044375,69.0,117.0
148,84.48863651250001,84.7564930125,69.0,108.0
149,84.7564930125,85.02434951250001,73.0,105.0
150,85.02434951250001,85.29108994375001,71.0,111.0
151,85.2922060125,85.5600625125,71.0,117.0
152,85.5600625125,85.82680294375001,69.0,117.0
153,85.8279190125,86.0957755125,69.0,111.0
154,86.0957755125,86.36251594375,66.0,109.0
155,86.3636320125,86.6314885125,66.0,111.0
156,86.6314885125,87.856932,69.0,105.0
157,105.6493000125,105.9171565125,69.0,115.0
158,105.9171565125,106.18501301250001,71.0,112.0
159,106.18501301250001,106.71960994375,73.0,117.0
160,106.72072601250001,106.98746644375001,73.0,120.0
161,106.9885825125,107.5242955125,73.0,120.0
162,107.5242955125,107.79215201250001,73.0,120.0
163,107.79215201250001,108.0600085125,71.0,112.0
164,108.0600085125,108.3278650125,69.0,115.0
165,108.3278650125,108.5957215125,71.0,112.0
166,108.5957215125,109.13143451250001,68.0,120.0
167,109.13143451250001,109.66603144375,64.0,106.0
168,109.66714751250001,109.93388794375001,64.0,109.0
169,109.9350040125,110.20286051250001,64.0,106.0
170,110.20286051250001,110.4707170125,66.0,117.0
171,110.4707170125,110.73857351250001,69.0,109.0
172,110.73857351250001,111.0064300125,66.0,117.0
173,111.0064300125,111.2742865125,69.0,112.0
174,111.2742865125,111.5421430125,66.0,120.0
175,111.5421430125,111.8099995125,69.0,112.0
176,111.8099995125,112.0778560125,66.0,120.0
177,112.0778560125,112.3457125125,71.0,115.0
178,112.3457125125,114.22070801250001,73.0,117.0
179,114.22070801250001,114.48744844375001,64.0,97.0
180,114.4885645125,114.7564210125,64.0,105.0
181,114.7564210125,115.0242775125,66.0,105.0
182,115.0242775125,115.55887444375,69.0,111.0
183,115.55999051250001,116.09458744375,69.0,114.0
184,116.09570351250001,116.3635600125,69.0,114.0
185,116.3635600125,116.63141651250001,66.0,87.0
186,116.63141651250001,116.89815694375001,64.0,92.0
187,116.8992730125,117.16712951250001,64.0,102.0
188,117.16712951250001,117.70172644375,73.0,109.0
189,117.7028425125,118.50641201250001,73.0,99.0
190,118.50641201250001,118.77315244375,69.0,111.0
191,118.7742685125,119.04212501250001,69.0,97.0
192,119.04212501250001,119.3099815125,73.0,102.0
193,119.3099815125,119.8456945125,71.0,111.0
194,119.8456945125,120.11243494375,69.0,111.0
195,120.11355101250001,120.3814075125,69.0,97.0
196,120.3814075125,120.6492640125,66.0,109.0
197,120.6492640125,120.9171205125,69.0,108.0
198,120.9171205125,122.7921160125,71.0,105.0
199,122.7921160125,123.05997251250001,69.0,115.0
200,123.05997251250001,123.3278290125,71.0,112.0
201,123.3278290125,123.86242594375001,73.0,117.0
202,123.8635420125,124.13028244375,73.0,120.0
203,124.1313985125,124.39813894375,73.0,120.0
204,124.3992550125,124.93496801250001,73.0,120.0
205,124.93496801250001,125.47068101250001,69.0,112.0
206,125.47068101250001,125.7385375125,71.0,112.0
207,125.7385375125,126.2742505125,68.0,120.0
208,126.2742505125,127.07670394375,64.0,106.0
209,127.0778200125,127.3456765125,64.0,106.0
210,127.3456765125,127.6135330125,66.0,117.0
211,127.6135330125,127.88138951250001,69.0,109.0
212,127.88138951250001,128.14924601250002,66.0,117.0
213,128.14924601250002,128.4171025125,69.0,112.0
214,128.4171025125,128.6849590125,66.0,120.0
215,128.6849590125,128.9528155125,69.0,112.0
216,128.9528155125,129.22067201250002,66.0,120.0
217,129.22067201250002,129.4885285125,71.0,115.0
218,129.4885285125,131.3635240125,73.0,117.0
219,131.3635240125,131.63026444375,64.0,97.0
220,131.63138051250002,131.8992370125,64.0,105.0
221,131.8992370125,132.1670935125,66.0,105.0
222,132.1670935125,132.70169044375,69.0,111.0
223,132.70280651250002,133.5063760125,69.0,114.0
224,133.5063760125,133.7742325125,66.0,87.0
225,133.7742325125,134.04097294375,64.0,92.0
226,134.0420890125,134.3099455125,64.0,102.0
227,134.3099455125,134.84454244375002,73.0,109.0
228,134.8456585125,135.6492280125,73.0,99.0
229,135.6492280125,135.91596844375002,69.0,111.0
230,135.9170845125,136.18494101250002,69.0,97.0
231,136.18494101250002,136.4527975125,73.0,102.0
232,136.4527975125,136.9885105125,71.0,111.0
233,136.9885105125,137.25525094375,69.0,111.0
234,137.2563670125,137.52422351250001,69.0,97.0
235,137.52422351250001,137.7920800125,66.0,109.0
236,137.7920800125,138.0599365125,69.0,108.0
237,138.0599365125,142.07778401250002,76.0,105.0
238,142.07778401250002,142.3456405125,69.0,120.0
239,142.3456405125,142.6134970125,71.0,108.0
240,142.6134970125,143.68380694375,73.0,102.0
241,143.6849230125,144.2206360125,73.0,112.0
242,144.2206360125,144.7563490125,76.0,105.0
243,144.7563490125,145.0242055125,78.0,112.0
244,145.0242055125,145.55991851250002,76.0,114.0
245,145.55991851250002,146.0956315125,71.0,114.0
246,146.0956315125,146.36237194375002,73.0,102.0
247,146.3634880125,146.6313445125,73.0,102.0
248,146.6313445125,146.89920101250001,71.0,111.0
249,146.89920101250001,147.1670575125,69.0,108.0
250,147.1670575125,147.4349140125,66.0,105.0
251,147.4349140125,147.7027705125,69.0,105.0
252,147.7027705125,147.97062701250002,66.0,109.0
253,147.97062701250002,148.2384835125,69.0,108.0
254,148.2384835125,148.5063400125,66.0,112.0
255,148.5063400125,148.7741965125,71.0,111.0
256,148.7741965125,150.6491920125,73.0,109.0
257,150.6491920125,150.91593244375,64.0,120.0
258,150.9170485125,151.1849050125,64.0,97.0
259,151.1849050125,151.7206180125,66.0,105.0
260,151.7206180125,152.25521494375002,69.0,114.0
261,152.2563310125,152.7920440125,69.0,111.0
262,152.7920440125,153.3277570125,66.0,105.0
263,153.3277570125,153.86347001250002,64.0,94.0
264,153.86347001250002,154.13021044375,73.0,109.0
265,154.1313265125,154.93489601250002,73.0,109.0
266,154.93489601250002,155.20163644375,69.0,117.0
267,155.2027525125,155.4706090125,69.0,108.0
268,155.4706090125,155.7384655125,73.0,105.0
269,155.7384655125,156.00520594375,71.0,111.0
270,156.0063220125,156.27417851250001,71.0,117.0
271,156.27417851250001,156.54091894375,69.0,117.0
272,156.5420350125,156.8098915125,69.0,111.0
273,156.8098915125,157.0777480125,66.0,109.0
274,157.0777480125,157.34560451250002,69.0,111.0
275,157.34560451250002,159.2206000125,71.0,105.0
276,159.2206000125,159.4884565125,69.0,120.0
277,159.4884565125,159.75631301250002,71.0,108.0
278,159.75631301250002,160.82662294375,73.0,102.0
279,160.82773901250002,161.3634520125,73.0,112.0
280,161.3634520125,161.89916501250002,76.0,105.0
281,161.89916501250002,162.1670215125,78.0,112.0
282,162.1670215125,162.7027345125,76.0,114.0
283,162.7027345125,163.23844751250002,71.0,114.0
284,163.23844751250002,163.50518794375,73.0,102.0
285,163.5063040125,163.7741605125,73.0,102.0
286,163.7741605125,164.0420170125,71.0,111.0
287,164.0420170125,164.30987351250002,69.0,108.0
288,164.30987351250002,164.5777300125,66.0,105.0
289,164.5777300125,164.8455865125,69.0,105.0
290,164.8455865125,165.1134430125,66.0,109.0
291,165.1134430125,165.3812995125,69.0,108.0
292,165.3812995125,165.64915601250001,66.0,112.0
293,165.64915601250001,165.9170125125,71.0,111.0
294,165.9170125125,167.79200801250002,73.0,109.0
295,167.79200801250002,168.05874844375,64.0,120.0
296,168.0598645125,168.3277210125,64.0,97.0
297,168.3277210125,168.8634340125,66.0,105.0
298,168.8634340125,169.39803094375,69.0,114.0
299,169.3991470125,169.9348600125,69.0,111.0
300,169.9348600125,170.4705730125,66.0,105.0
301,170.4705730125,171.0062860125,64.0,94.0
302,171.0062860125,171.27302644375,73.0,109.0
303,171.27414251250002,172.0777120125,73.0,109.0
304,172.0777120125,172.34445244375001,69.0,117.0
305,172.3455685125,172.61342501250002,69.0,108.0
306,172.61342501250002,172.8812815125,73.0,105.0
307,172.8812815125,173.14802194375,71.0,111.0
308,173.1491380125,173.4169945125,71.0,117.0
309,173.4169945125,173.68373494375,69.0,117.0
310,173.68485101250002,173.9527075125,69.0,111.0
311,173.9527075125,174.21944794375,66.0,109.0
312,174.2205640125,174.4884205125,66.0,111.0
313,174.4884205125,178.50626801250002,69.0,105.0
314,178.50626801250002,178.7741245125,71.0,120.0
315,178.7741245125,179.0419810125,73.0,108.0
316,179.0419810125,180.11229094375,75.0,102.0
317,180.1134070125,180.64912001250002,75.0,112.0
318,180.64912001250002,181.1848330125,78.0,105.0
319,181.1848330125,181.4526895125,80.0,112.0
320,181.4526895125,181.98840251250002,78.0,114.0
321,181.98840251250002,182.5241155125,73.0,114.0
322,182.5241155125,182.79085594375002,75.0,102.0
323,182.7919720125,183.05982851250002,75.0,102.0
324,183.05982851250002,183.3276850125,73.0,111.0
325,183.3276850125,183.5955415125,71.0,108.0
326,183.5955415125,183.8633980125,68.0,105.0
327,183.8633980125,184.13125451250002,71.0,105.0
328,184.13125451250002,184.39911101250001,68.0,109.0
329,184.39911101250001,184.6669675125,71.0,108.0
330,184.6669675125,184.9348240125,68.0,112.0
331,184.9348240125,185.2026805125,73.0,111.0
332,185.2026805125,187.0776760125,75.0,109.0
333,187.0776760125,187.34441644375002,66.0,120.0
334,187.3455325125,187.61338901250002,66.0,97.0
335,187.61338901250002,188.1491020125,68.0,105.0
336,188.1491020125,188.68369894375002,71.0,114.0
337,188.6848150125,189.2205280125,71.0,111.0
338,189.2205280125,189.7562410125,68.0,105.0
339,189.7562410125,190.2919540125,66.0,94.0
340,190.2919540125,190.55869444375,75.0,109.0
341,190.5598105125,191.36338001250002,75.0,109.0
342,191.36338001250002,191.63012044375,71.0,117.0
343,191.6312365125,191.8990930125,71.0,108.0
344,191.8990930125,192.1669495125,75.0,105.0
345,192.1669495125,192.43368994375,73.0,111.0
346,192.43480601250002,192.7026625125,73.0,117.0
347,192.7026625125,192.96940294375,71.0,117.0
348,192.9705190125,193.2383755125,71.0,111.0
349,193.2383755125,193.50623201250002,68.0,109.0
350,193.50623201250002,193.77408851250001,71.0,111.0
351,193.77408851250001,195.6490840125,73.0,105.0
352,195.6490840125,195.91694051250002,71.0,120.0
353,195.91694051250002,196.1847970125,73.0,108.0
354,196.1847970125,197.25510694375,75.0,102.0
355,197.25622301250002,197.7919360125,75.0,112.0
356,197.7919360125,198.32764901250002,78.0,105.0
357,198.32764901250002,198.5955055125,80.0,112.0
358,198.5955055125,199.1312185125,78.0,114.0
359,199.1312185125,199.6669315125,73.0,114.0
360,199.6669315125,199.93367194375,75.0,102.0
361,199.9347880125,200.2026445125,75.0,102.0
362,200.2026445125,200.4705010125,73.0,111.0
363,200.4705010125,200.73835751250002,71.0,108.0
364,200.73835751250002,201.0062140125,68.0,105.0
365,201.0062140125,201.2740705125,71.0,105.0
366,201.2740705125,201.5419270125,68.0,109.0
367,201.5419270125,201.80978351250002,71.0,108.0
368,201.80978351250002,202.0776400125,68.0,112.0
369,202.0776400125,202.3454965125,73.0,111.0
370,202.3454965125,204.22049201250002,75.0,109.0
371,204.22049201250002,204.48723244375,66.0,120.0
372,204.4883485125,204.7562050125,66.0,97.0
373,204.7562050125,205.29191801250002,68.0,105.0
374,205.29191801250002,205.82651494375,71.0,114.0
375,205.8276310125,206.36334401250002,71.0,111.0
376,206.36334401250002,206.8990570125,68.0,105.0
377,206.8990570125,207.4347700125,66.0,94.0
378,207.4347700125,207.70151044375,75.0,109.0
379,207.70262651250002,208.5061960125,75.0,109.0
380,208.5061960125,208.77293644375,71.0,117.0
381,208.77405251250002,209.0419090125,71.0,108.0
382,209.0419090125,209.3097655125,75.0,105.0
383,209.3097655125,209.57650594375002,73.0,111.0
384,209.5776220125,209.84547851250002,73.0,117.0
385,209.84547851250002,210.11221894375,71.0,117.0
386,210.11333501250002,210.3811915125,71.0,111.0
387,210.3811915125,210.64793194375,68.0,109.0
388,210.6490480125,210.9169045125,68.0,111.0
389,210.9169045125,212.7919000125,71.0,105.0
390,212.7919000125,213.0597565125,68.0,112.0
391,213.0597565125,213.3276130125,71.0,100.0
392,213.3276130125,213.59546951250002,75.0,116.0
393,213.59546951250002,213.86220994375,73.0,112.0
394,213.8633260125,214.1311825125,73.0,112.0
395,214.1311825125,214.39792294375002,71.0,111.0
396,214.3990390125,214.66689551250002,71.0,111.0
397,214.66689551250002,215.46934894375002,68.0,102.0
398,215.4704650125,217.67470079375002,68.0,112.0
399,217.6758168625,217.9481376375,68.0,112.0
400,217.9481376375,221.78518200000002,71.0,111.0
