,start,end,pitch,velocity
0,1.1852650125000002,1.5926301062500001,61.0,79.0
1,1.1852650125000002,1.59821045,64.0,87.0
2,1.1852650125000002,1.61941575625,57.0,80.0
3,1.4531215125,1.8995490125,52.0,71.0
4,1.7209780125,2.3504407875,61.0,99.0
5,1.9888345125,2.3549050625000003,57.0,92.0
6,1.7209780125,2.39173533125,64.0,97.0
7,2.5245475125000003,2.8783413062500003,57.0,100.0
8,1.1852650125000002,3.1696352500000002,45.0,97.0
9,2.2566910125,3.3080277750000002,52.0,76.0
10,2.7924040125,3.32030453125,61.0,105.0
11,2.7924040125,3.3549026625000002,64.0,105.0
12,3.0602605125,3.36941155625,57.0,105.0
13,3.5959735125,3.7756605812500004,64.0,1.0
14,3.5959735125,4.156240025,52.0,66.0
15,3.8638300125000002,4.3973108750000005,59.0,114.0
16,3.8638300125000002,4.47431961875,64.0,102.0
17,3.8638300125000002,4.477667825,56.0,99.0
18,4.6673995125,5.00891655,56.0,99.0
19,4.399543012500001,5.2254338875,52.0,76.0
20,3.3281170125000004,5.2477552625,44.0,109.0
21,4.9352560125,5.27788911875,59.0,100.0
22,5.203112512500001,5.42521019375,56.0,77.0
23,4.9352560125,5.535701,64.0,102.0
24,5.7388255125,6.290163475,49.0,55.0
25,6.006682012500001,6.378332906250001,61.0,82.0
26,6.006682012500001,6.428556,57.0,105.0
27,6.2745385125,6.5468592875,54.0,109.0
28,6.810251512500001,7.147304275000001,54.0,99.0
29,7.0781080125,7.2522147375,57.0,117.0
30,5.4709690125,7.3872590562500005,42.0,109.0
31,6.5423950125,7.41627684375,49.0,63.0
32,7.0781080125,7.43190180625,61.0,99.0
33,7.3459645125,7.46315173125,57.0,26.0
34,7.3459645125,7.607124600000001,54.0,109.0
35,7.0781080125,7.641722731250001,66.0,77.0
36,8.1495340125,8.266721231250001,64.0,94.0
37,7.8816775125000005,8.463149331250001,59.0,82.0
38,8.4173905125,8.78011285625,64.0,87.0
39,8.1495340125,8.781228925,68.0,99.0
40,8.1495340125,9.00332660625,71.0,94.0
41,8.9531035125,9.15957623125,64.0,89.0
42,9.2209600125,9.5870305625,68.0,109.0
43,7.613821012500001,9.595959112500001,52.0,105.0
44,8.6852470125,9.61939655625,59.0,51.0
45,9.4888165125,9.77676225,64.0,78.0
46,9.2209600125,9.903994087500001,71.0,100.0
47,10.2923860125,10.43747495,62.0,82.0
48,10.024529512500001,10.64394766875,57.0,84.0
49,10.5602425125,10.90510775625,62.0,87.0
50,10.2923860125,11.166267843750001,69.0,97.0
51,11.0959555125,11.261133687500001,62.0,89.0
52,11.3638120125,11.46314213125,62.0,82.0
53,10.828099012500001,11.582561487500001,57.0,97.0
54,9.7566730125,11.64840954375,50.0,100.0
55,11.3638120125,11.69082015625,66.0,105.0
56,11.631668512500001,11.88948039375,62.0,87.0
57,11.3638120125,12.02564078125,69.0,97.0
58,12.1673815125,12.674076725,52.0,62.0
59,12.435238012500001,12.8905940625,61.0,102.0
60,12.7030945125,13.09818285,57.0,102.0
61,12.435238012500001,13.294610950000001,64.0,94.0
62,13.238807512500001,13.41626244375,57.0,84.0
63,13.5066640125,13.638360125,57.0,105.0
64,11.8995250125,13.91402910625,45.0,97.0
65,13.5066640125,13.926305862500001,61.0,102.0
66,12.9709510125,13.943046893750001,52.0,76.0
67,13.7745205125,13.97876109375,57.0,105.0
68,13.5066640125,14.049073425000001,64.0,94.0
69,14.3102335125,14.496616993750001,57.0,82.0
70,14.5780900125,14.89840174375,57.0,114.0
71,14.5780900125,15.174070725,62.0,102.0
72,15.1138030125,15.4798735625,57.0,92.0
73,15.3816595125,15.556882306250001,62.0,87.0
74,15.649516012500001,15.793488881250001,57.0,100.0
75,14.845946512500001,15.82473880625,54.0,57.0
76,14.042377012500001,15.964247400000001,47.0,105.0
77,15.9173725125,16.13054164375,57.0,97.0
78,15.649516012500001,16.156211225,62.0,100.0
79,15.649516012500001,16.21982714375,66.0,93.0
80,16.4530855125,16.831432818750002,59.0,82.0
81,16.7209420125,17.307994175,62.0,105.0
82,16.9887985125,17.357101200000002,59.0,82.0
83,16.7209420125,17.528975787500002,68.0,96.0
84,17.2566550125,17.6428148,56.0,90.0
85,17.7923680125,17.924064125,64.0,100.0
86,16.185229012500002,18.20642951875,52.0,87.0
87,17.524511512500002,18.2075455875,59.0,100.0
88,17.7923680125,18.22428661875,68.0,105.0
89,18.0602245125,18.25553654375,64.0,71.0
90,17.7923680125,18.26223295625,71.0,102.0
91,18.3280810125,18.735446106250002,61.0,79.0
92,18.3280810125,18.74102645,64.0,87.0
93,18.3280810125,18.76223175625,57.0,80.0
94,18.5959375125,19.0423650125,52.0,71.0
95,18.8637940125,19.493256787500002,61.0,99.0
96,19.131650512500002,19.497721062500002,57.0,92.0
97,18.8637940125,19.53455133125,64.0,97.0
98,19.6673635125,20.02115730625,57.0,100.0
99,18.3280810125,20.312451250000002,45.0,97.0
100,19.3995070125,20.450843775,52.0,76.0
101,19.9352200125,20.463120531250002,61.0,105.0
102,19.9352200125,20.497718662500002,64.0,105.0
103,20.2030765125,20.51222755625,57.0,105.0
104,20.738789512500002,20.91847658125,64.0,1.0
105,20.738789512500002,21.299056025000002,52.0,66.0
106,21.0066460125,21.540126875000002,59.0,114.0
107,21.0066460125,21.61713561875,64.0,102.0
108,21.0066460125,21.620483825,56.0,99.0
109,21.8102155125,22.151732550000002,56.0,99.0
110,21.5423590125,22.3682498875,52.0,76.0
111,20.4709330125,22.3905712625,44.0,109.0
112,22.0780720125,22.42070511875,59.0,100.0
113,22.345928512500002,22.56802619375,56.0,77.0
114,22.0780720125,22.678517,64.0,102.0
115,22.8816415125,23.432979475,49.0,55.0
116,23.1494980125,23.52114890625,61.0,82.0
117,23.1494980125,23.571372,57.0,105.0
118,23.4173545125,23.689675287500002,54.0,109.0
119,23.953067512500002,24.290120275,54.0,99.0
120,24.2209240125,24.3950307375,57.0,117.0
121,22.6137850125,24.530075056250002,42.0,109.0
122,23.6852110125,24.55909284375,49.0,63.0
123,24.2209240125,24.57471780625,61.0,99.0
124,24.4887805125,24.60596773125,57.0,26.0
125,24.4887805125,24.749940600000002,54.0,109.0
126,24.2209240125,24.784538731250002,66.0,77.0
127,25.292350012500002,25.409537231250003,64.0,94.0
128,25.0244935125,25.60596533125,59.0,82.0
129,25.560206512500002,25.92292885625,64.0,87.0
130,25.292350012500002,25.924044925,68.0,99.0
131,25.292350012500002,26.146142606250002,71.0,94.0
132,26.0959195125,26.30239223125,64.0,89.0
133,26.3637760125,26.7298465625,68.0,109.0
134,24.7566370125,26.7387751125,52.0,105.0
135,25.8280630125,26.762212556250002,59.0,51.0
136,26.6316325125,26.91957825,64.0,78.0
137,26.3637760125,27.046810087500003,71.0,100.0
138,27.4352020125,27.580290950000002,62.0,82.0
139,27.167345512500003,27.78676366875,57.0,84.0
140,27.7030585125,28.04792375625,62.0,87.0
141,27.4352020125,28.309083843750003,69.0,97.0
142,28.2387715125,28.403949687500003,62.0,89.0
143,28.506628012500002,28.605958131250002,62.0,82.0
144,27.9709150125,28.7253774875,57.0,97.0
145,26.899489012500002,28.791225543750002,50.0,100.0
146,28.506628012500002,28.83363615625,66.0,105.0
147,28.774484512500003,29.032296393750002,62.0,87.0
148,28.506628012500002,29.16845678125,69.0,97.0
149,29.3101975125,29.816892725000002,52.0,62.0
150,29.5780540125,30.0334100625,61.0,102.0
151,29.8459105125,30.24099885,57.0,102.0
152,29.5780540125,30.437426950000003,64.0,94.0
153,30.381623512500003,30.55907844375,57.0,84.0
154,30.6494800125,30.781176125,57.0,105.0
155,29.0423410125,31.05684510625,45.0,97.0
156,30.6494800125,31.0691218625,61.0,102.0
157,30.113767012500002,31.08586289375,52.0,76.0
158,30.9173365125,31.121577093750002,57.0,105.0
159,30.6494800125,31.191889425000003,64.0,94.0
160,31.4530495125,31.639432993750003,57.0,82.0
161,31.720906012500002,32.04121774375,57.0,114.0
162,31.720906012500002,32.316886725,62.0,102.0
163,32.2566190125,32.6226895625,57.0,92.0
164,32.524475512500004,32.69969830625,62.0,87.0
165,32.792332012500005,32.93630488125,57.0,100.0
166,31.988762512500003,32.96755480625,54.0,57.0
167,31.1851930125,33.1070634,47.0,105.0
168,33.0601885125,33.27335764375,57.0,97.0
169,32.792332012500005,33.299027225,62.0,100.0
170,32.792332012500005,33.36264314375,66.0,93.0
171,33.5959015125,33.97424881875,59.0,82.0
172,33.8637580125,34.450810175,62.0,105.0
173,34.1316145125,34.4999172,59.0,82.0
174,33.8637580125,34.6717917875,68.0,96.0
175,34.3994710125,34.7856308,56.0,90.0
176,34.9351840125,35.066880125000004,64.0,100.0
177,33.3280450125,35.34924551875,52.0,87.0
178,34.6673275125,35.350361587500004,59.0,100.0
179,34.9351840125,35.36710261875,68.0,105.0
180,35.2030405125,35.39835254375,64.0,71.0
181,34.9351840125,35.40504895625,71.0,102.0
182,35.470897012500004,35.87826210625,61.0,79.0
183,35.470897012500004,35.88384245,64.0,87.0
184,35.470897012500004,35.90504775625,57.0,80.0
185,35.738753512500004,36.1851810125,52.0,71.0
186,36.006610012500005,36.6360727875,61.0,99.0
187,36.2744665125,36.6405370625,57.0,92.0
188,36.006610012500005,36.677367331250004,64.0,97.0
189,36.8101795125,37.16397330625,57.0,100.0
190,35.470897012500004,37.45526725,45.0,97.0
191,36.5423230125,37.593659775,52.0,76.0
192,37.0780360125,37.60593653125,61.0,105.0
193,37.0780360125,37.6405346625,64.0,105.0
194,37.3458925125,37.65504355625,57.0,105.0
195,37.8816055125,38.06129258125,64.0,1.0
196,37.8816055125,38.441872025,52.0,66.0
197,38.1494620125,38.682942875,59.0,114.0
198,38.1494620125,38.75995161875,64.0,102.0
199,38.1494620125,38.763299825000004,56.0,99.0
200,38.953031512500004,39.29454855,56.0,99.0
201,38.685175012500004,39.5110658875,52.0,76.0
202,37.6137490125,39.5333872625,44.0,109.0
203,39.220888012500005,39.56352111875,59.0,100.0
204,39.4887445125,39.710842193750004,56.0,77.0
205,39.220888012500005,39.821333,64.0,102.0
206,40.0244575125,40.575795475,49.0,55.0
207,40.2923140125,40.66396490625,61.0,82.0
208,40.2923140125,40.714188,57.0,105.0
209,40.5601705125,40.832491287500005,54.0,109.0
210,41.0958835125,41.432936275,54.0,99.0
211,41.3637400125,41.537846737500004,57.0,117.0
212,39.7566010125,41.67289105625,42.0,109.0
213,40.8280270125,41.701908843750005,49.0,63.0
214,41.3637400125,41.71753380625,61.0,99.0
215,41.6315965125,41.74878373125,57.0,26.0
216,41.6315965125,41.8927566,54.0,109.0
217,41.3637400125,41.92735473125,66.0,77.0
218,42.435166012500005,42.55235323125,64.0,94.0
219,42.167309512500005,42.74878133125,59.0,82.0
220,42.7030225125,43.06574485625,64.0,87.0
221,42.435166012500005,43.066860925,68.0,99.0
222,42.435166012500005,43.28895860625,71.0,94.0
223,43.2387355125,43.44520823125,64.0,89.0
224,43.5065920125,43.872662562500004,68.0,109.0
225,41.899453012500004,43.881591112500004,52.0,105.0
226,42.9708790125,43.90502855625,59.0,51.0
227,43.7744485125,44.062394250000004,64.0,78.0
228,43.5065920125,44.1896260875,71.0,100.0
229,44.5780180125,44.72310695,62.0,82.0
230,44.3101615125,44.92957966875,57.0,84.0
231,44.845874512500004,45.190739756250004,62.0,87.0
232,44.5780180125,45.45189984375,69.0,97.0
233,45.381587512500005,45.5467656875,62.0,89.0
234,45.649444012500005,45.74877413125,62.0,82.0
235,45.113731012500004,45.8681934875,57.0,97.0
236,44.0423050125,45.93404154375,50.0,100.0
237,45.649444012500005,45.976452156250005,66.0,105.0
238,45.9173005125,46.175112393750005,62.0,87.0
239,45.649444012500005,46.311272781250004,69.0,97.0
240,46.4530135125,46.959708725,52.0,62.0
241,46.7208700125,47.1762260625,61.0,102.0
242,46.9887265125,47.38381485,57.0,102.0
243,46.7208700125,47.58024295,64.0,94.0
244,47.5244395125,47.70189444375,57.0,84.0
245,47.7922960125,47.923992125000005,57.0,105.0
246,46.1851570125,48.199661106250005,45.0,97.0
247,47.7922960125,48.2119378625,61.0,102.0
248,47.2565830125,48.22867889375,52.0,76.0
249,48.060152512500004,48.26439309375,57.0,105.0
250,47.7922960125,48.334705425,64.0,94.0
251,48.595865512500005,48.78224899375,57.0,82.0
252,48.863722012500006,49.18403374375,57.0,114.0
253,48.863722012500006,49.459702725,62.0,102.0
254,49.3994350125,49.7655055625,57.0,92.0
255,49.6672915125,49.84251430625,62.0,87.0
256,49.9351480125,50.07912088125,57.0,100.0
257,49.1315785125,50.11037080625,54.0,57.0
258,48.328009012500004,50.249879400000005,47.0,105.0
259,50.2030045125,50.41617364375,57.0,97.0
260,49.9351480125,50.441843225,62.0,100.0
261,49.9351480125,50.50545914375,66.0,93.0
262,50.4708610125,50.878226106250004,52.0,100.0
263,50.4708610125,50.88380645,56.0,99.0
264,50.7387175125,51.172868256250005,47.0,76.0
265,51.274430512500004,51.63268858125,52.0,94.0
266,51.0065740125,51.7967506875,56.0,112.0
267,51.0065740125,51.809027443750004,59.0,111.0
268,51.810143512500005,52.15724089375,52.0,92.0
269,50.4708610125,52.49429365625,40.0,102.0
270,51.542287012500005,52.52777571875,47.0,82.0
271,52.0780000125,52.763266225,56.0,109.0
272,52.0780000125,52.766614431250005,59.0,105.0
273,52.3458565125,52.7677305,52.0,94.0
274,52.6137130125,52.9797835625,40.0,108.0
275,52.8815695125,52.98313176875,52.0,84.0
276,52.8815695125,52.989828181250004,47.0,78.0
277,52.8815695125,52.989828181250004,56.0,87.0
278,52.8815695125,52.989828181250004,59.0,94.0
279,53.1494260125,53.24205971875,52.0,84.0
280,53.1494260125,53.254336475,40.0,100.0
281,53.1494260125,53.257684681250005,59.0,84.0
282,53.1494260125,53.2610328875,56.0,79.0
283,53.1494260125,53.266613231250005,47.0,89.0
284,53.4172825125,53.525541181250006,52.0,94.0
285,53.4172825125,53.531121525,56.0,93.0
286,53.4172825125,53.540050075,59.0,92.0
287,53.4172825125,53.54339828125,40.0,100.0
288,53.4172825125,53.5556750375,47.0,84.0
289,53.6851390125,53.851433256250004,47.0,111.0
290,53.6851390125,53.86594215,40.0,111.0
291,53.8190672625,53.86594215,40.0,80.0
292,53.6851390125,54.26884296875,59.0,108.0
293,53.6851390125,54.272191175,56.0,105.0
294,53.6851390125,54.27777151875,52.0,108.0
295,54.3547802625,54.65723489375,56.0,112.0
296,54.2208520125,54.74205611875,47.0,100.0
297,54.488708512500004,54.7788863875,52.0,102.0
298,54.488708512500004,54.7878149375,59.0,100.0
299,54.756565012500005,55.067948193750006,61.0,90.0
300,54.756565012500005,55.1226355625,57.0,100.0
301,55.024421512500005,55.37151889375,52.0,52.0
302,55.2922780125,55.54450955,64.0,108.0
303,55.2922780125,55.5869201625,61.0,109.0
304,54.756565012500005,55.6494200125,45.0,100.0
305,55.2922780125,55.6851342125,57.0,105.0
306,55.8279910125,56.14830274375,52.0,67.0
307,56.0958475125,56.34807905,64.0,108.0
308,56.0958475125,56.37151649375,69.0,100.0
309,56.0958475125,56.3748647,61.0,116.0
310,56.0958475125,56.40723069375,57.0,114.0
311,56.3637040125,56.436248481250004,45.0,71.0
312,56.6315605125,56.92508659375,61.0,112.0
313,56.6315605125,56.937363350000005,64.0,100.0
314,56.6315605125,56.95856865625,57.0,105.0
315,57.1672735125,57.49093345,52.0,46.0
316,56.8994170125,57.557897575000005,44.0,105.0
317,57.435130012500004,57.600308187500005,56.0,105.0
318,57.435130012500004,57.8034327,59.0,111.0
319,57.702986512500004,57.841379037500005,56.0,50.0
320,57.435130012500004,57.842495106250006,64.0,105.0
321,58.238699512500006,58.436243681250005,56.0,102.0
322,58.238699512500006,58.47195788125,59.0,123.0
323,57.970843012500005,58.54561841875,52.0,69.0
324,58.238699512500006,58.615930750000004,64.0,108.0
325,58.7744125125,58.807894575000006,59.0,67.0
326,58.7744125125,58.906108625,56.0,93.0
327,58.7744125125,58.9574477875,64.0,97.0
328,59.0422690125,59.38713425625,57.0,94.0
329,59.0422690125,59.39829494375,61.0,39.0
330,59.0422690125,59.408339562500004,54.0,70.0
331,59.5779820125,59.75766908125,57.0,111.0
332,59.5779820125,59.7610172875,54.0,105.0
333,59.5779820125,59.77552618125,61.0,96.0
334,59.0422690125,59.78222259375,42.0,96.0
335,60.1136950125,60.4284264,49.0,55.0
336,60.3815515125,60.6092295375,61.0,90.0
337,60.3815515125,60.677309731250006,57.0,117.0
338,60.3815515125,60.6962829,54.0,90.0
339,60.3815515125,60.7431577875,66.0,77.0
340,60.917264512500005,60.9819965,57.0,102.0
341,60.917264512500005,61.048960625,54.0,102.0
342,60.917264512500005,61.226415556250004,66.0,52.0
343,61.452977512500006,61.848065850000005,59.0,58.0
344,61.185121012500005,61.978645893750006,52.0,108.0
345,61.9886905125,62.1002973875,59.0,45.0
346,61.7208340125,62.15498475625,62.0,114.0
347,61.7208340125,62.3681538875,68.0,109.0
348,62.2565470125,62.629313975,59.0,87.0
349,62.2565470125,62.897170475,52.0,92.0
350,62.5244035125,62.90163475,71.0,108.0
351,62.7922600125,62.9038668875,59.0,66.0
352,62.5244035125,62.908331162500005,64.0,111.0
353,62.5244035125,62.908331162500005,68.0,109.0
354,63.0601165125,63.15275021875,71.0,92.0
355,63.0601165125,63.165026975,68.0,102.0
356,63.0601165125,63.18734835,64.0,100.0
357,63.3279730125,63.690695356250004,62.0,92.0
358,63.3279730125,63.6962757,66.0,99.0
359,63.5958295125,63.93734655,57.0,55.0
360,63.3279730125,64.13935499375,50.0,102.0
361,64.1315425125,64.22417621875,57.0,76.0
362,63.863686012500004,64.468595275,62.0,108.0
363,63.863686012500004,64.48533630625,66.0,112.0
364,63.863686012500004,64.49426485625,69.0,111.0
365,64.3993990125,64.50096126875,50.0,94.0
366,64.6672555125,64.85363899375,62.0,84.0
367,64.6672555125,64.94627270000001,57.0,117.0
368,64.6672555125,65.0177011,66.0,102.0
369,64.6672555125,65.02328144375001,69.0,100.0
370,64.6672555125,65.1069866,50.0,102.0
371,65.20296851250001,65.48086963125,66.0,116.0
372,65.20296851250001,65.5199320375,62.0,111.0
373,65.20296851250001,65.6248425,69.0,108.0
374,65.73868151250001,66.05676110625001,52.0,66.0
375,65.4708250125,66.30899264375,45.0,100.0
376,66.0065380125,66.5065368125,57.0,111.0
377,66.0065380125,66.5333224625,64.0,108.0
378,66.0065380125,66.58466162500001,61.0,105.0
379,66.5422510125,66.90162515,45.0,97.0
380,67.0779640125,67.13265138125,52.0,34.0
381,66.8101075125,67.20296371250001,57.0,117.0
382,66.8101075125,67.2118922625,61.0,105.0
383,66.8101075125,67.2118922625,64.0,111.0
384,67.3458205125,67.48532910625,45.0,102.0
385,67.3458205125,67.49537372500001,57.0,108.0
386,67.6136770125,68.02662245,59.0,102.0
387,67.6136770125,68.03889920625001,62.0,84.0
388,67.6136770125,68.35921093750001,47.0,111.0
389,68.1493900125,68.56568365625,59.0,105.0
390,68.4172465125,68.57014793125,54.0,72.0
391,68.1493900125,68.6226031625,62.0,94.0
392,68.1493900125,68.76657603125,66.0,102.0
393,68.68510301250001,69.10586093125,47.0,94.0
394,68.9529595125,69.11925375625,54.0,102.0
395,69.22081601250001,69.29559261875,47.0,43.0
396,68.9529595125,69.31568185625001,59.0,108.0
397,68.9529595125,69.3212622,62.0,105.0
398,68.9529595125,69.3368871625,66.0,109.0
399,69.4886725125,69.647154275,47.0,97.0
400,69.4886725125,69.6717077875,62.0,100.0
401,69.4886725125,69.673939925,59.0,102.0
402,70.0243855125,70.156081625,59.0,62.0
403,70.0243855125,70.1627780375,64.0,84.0
404,69.7565290125,70.4395630875,52.0,105.0
405,70.2922420125,70.66724111250001,59.0,120.0
406,70.2922420125,70.68733035,64.0,117.0
407,70.8279550125,70.923936925,64.0,108.0
408,70.8279550125,70.92951726875,59.0,108.0
409,70.8279550125,70.9395618875,68.0,105.0
410,70.5600985125,71.22192728125,52.0,92.0
411,71.0958115125,71.50764088125,59.0,114.0
412,71.0958115125,71.5333104625,64.0,117.0
413,71.0958115125,71.56232825000001,68.0,109.0
414,71.63152451250001,71.8190240625,64.0,100.0
415,71.63152451250001,71.82348833750001,59.0,111.0
416,71.3636680125,71.8815239125,52.0,102.0
417,71.8993810125,72.21076419375001,61.0,90.0
418,71.8993810125,72.2654515625,57.0,100.0
419,72.16723751250001,72.51433489375,52.0,52.0
420,72.4350940125,72.68732555,64.0,108.0
421,72.4350940125,72.7297361625,61.0,109.0
422,71.8993810125,72.7922360125,45.0,100.0
423,72.4350940125,72.8279502125,57.0,105.0
424,72.9708070125,73.29111874375,52.0,67.0
425,73.2386635125,73.49089505,64.0,108.0
426,73.2386635125,73.51433249375,69.0,100.0
427,73.2386635125,73.5176807,61.0,116.0
428,73.2386635125,73.55004669375,57.0,114.0
429,73.5065200125,73.57906448125,45.0,71.0
430,73.7743765125,74.06790259375,61.0,112.0
431,73.7743765125,74.08017935000001,64.0,100.0
432,73.7743765125,74.10138465625,57.0,105.0
433,74.3100895125,74.63374945,52.0,46.0
434,74.0422330125,74.70071357500001,44.0,105.0
435,74.5779460125,74.7431241875,56.0,105.0
436,74.5779460125,74.9462487,59.0,111.0
437,74.8458025125,74.9841950375,56.0,50.0
438,74.5779460125,74.98531110625001,64.0,105.0
439,75.3815155125,75.57905968125,56.0,102.0
440,75.3815155125,75.61477388125,59.0,123.0
441,75.11365901250001,75.68843441875,52.0,69.0
442,75.3815155125,75.75874675,64.0,108.0
443,75.9172285125,75.950710575,59.0,67.0
444,75.9172285125,76.048924625,56.0,93.0
445,75.9172285125,76.1002637875,64.0,97.0
446,76.1850850125,76.52995025625,57.0,94.0
447,76.1850850125,76.54111094375,61.0,39.0
448,76.1850850125,76.5511555625,54.0,70.0
449,76.7207980125,76.90048508125,57.0,111.0
450,76.7207980125,76.9038332875,54.0,105.0
451,76.7207980125,76.91834218125,61.0,96.0
452,76.1850850125,76.92503859375,42.0,96.0
453,77.2565110125,77.5712424,49.0,55.0
454,77.5243675125,77.75204553750001,61.0,90.0
455,77.5243675125,77.82012573125,57.0,117.0
456,77.5243675125,77.8390989,54.0,90.0
457,77.5243675125,77.8859737875,66.0,77.0
458,78.06008051250001,78.1248125,57.0,102.0
459,78.06008051250001,78.191776625,54.0,102.0
460,78.06008051250001,78.36923155625,66.0,52.0
461,78.59579351250001,78.99088185000001,59.0,58.0
462,78.3279370125,79.12146189375001,52.0,108.0
463,79.13150651250001,79.2431133875,59.0,45.0
464,78.8636500125,79.29780075625,62.0,114.0
465,78.8636500125,79.5109698875,68.0,109.0
466,79.3993630125,79.772129975,59.0,87.0
467,79.3993630125,80.039986475,52.0,92.0
468,79.6672195125,80.04445075000001,71.0,108.0
469,79.9350760125,80.0466828875,59.0,66.0
470,79.6672195125,80.0511471625,64.0,111.0
471,79.6672195125,80.0511471625,68.0,109.0
472,80.2029325125,80.29556621875,71.0,92.0
473,80.2029325125,80.307842975,68.0,102.0
474,80.2029325125,80.33016435,64.0,100.0
475,80.4707890125,80.83351135625,62.0,92.0
476,80.4707890125,80.8390917,66.0,99.0
477,80.7386455125,81.08016255,57.0,55.0
478,80.4707890125,81.28217099375,50.0,102.0
479,81.2743585125,81.36699221875,57.0,76.0
480,81.00650201250001,81.61141127500001,62.0,108.0
481,81.00650201250001,81.62815230625,66.0,112.0
482,81.00650201250001,81.63708085625001,69.0,111.0
483,81.54221501250001,81.64377726875,50.0,94.0
484,81.8100715125,81.99645499375,62.0,84.0
485,81.8100715125,82.0890887,57.0,117.0
486,81.8100715125,82.1605171,66.0,102.0
487,81.8100715125,82.16609744375,69.0,100.0
488,81.8100715125,82.24980260000001,50.0,102.0
489,82.3457845125,82.62368563125,66.0,116.0
490,82.3457845125,82.66274803750001,62.0,111.0
491,82.3457845125,82.76765850000001,69.0,108.0
492,82.8814975125,83.19957710625,52.0,66.0
493,82.6136410125,83.45180864375,45.0,100.0
494,83.1493540125,83.6493528125,57.0,111.0
495,83.1493540125,83.6761384625,64.0,108.0
496,83.1493540125,83.727477625,61.0,105.0
497,83.6850670125,84.04444115,45.0,97.0
498,84.2207800125,84.27546738125001,52.0,34.0
499,83.9529235125,84.3457797125,57.0,117.0
500,83.9529235125,84.3547082625,61.0,105.0
501,83.9529235125,84.3547082625,64.0,111.0
502,84.48863651250001,84.62814510625,45.0,102.0
503,84.48863651250001,84.638189725,57.0,108.0
504,84.7564930125,85.14600100625,59.0,97.0
505,84.7564930125,85.15158135,62.0,92.0
506,84.7564930125,85.1582777625,66.0,96.0
507,85.2922060125,85.423902125,59.0,111.0
508,85.2922060125,85.61921415625001,62.0,117.0
509,85.2922060125,85.64265160000001,66.0,112.0
510,84.7564930125,85.69064255625,47.0,100.0
511,85.5600625125,85.9640794,59.0,111.0
512,86.0957755125,86.41943545000001,68.0,105.0
513,86.0957755125,86.42278365625,59.0,114.0
514,86.0957755125,86.44064075625,64.0,111.0
515,85.8279190125,86.5020245375,52.0,108.0
516,86.6314885125,86.73081863125,64.0,97.0
517,86.6314885125,86.73974718125001,59.0,111.0
518,86.8993450125,87.18729075,61.0,93.0
519,86.8993450125,87.19956750625,57.0,80.0
520,87.1672015125,87.5422006125,52.0,48.0
521,87.43505801250001,87.58795943125,57.0,111.0
522,87.43505801250001,87.74420905625,61.0,112.0
523,87.43505801250001,87.8993426125,64.0,108.0
524,87.7029145125,87.90938723125001,57.0,100.0
525,87.97077101250001,88.34800225000001,52.0,89.0
526,88.2386275125,88.55001069375001,69.0,87.0
527,88.2386275125,88.59800165,64.0,97.0
528,88.2386275125,88.60693020000001,61.0,109.0
529,88.2386275125,88.6225551625,57.0,105.0
530,88.7743405125,89.03215239375001,57.0,105.0
531,88.7743405125,89.0466612875,61.0,109.0
532,88.7743405125,89.05000949375,64.0,100.0
533,86.8993450125,89.05224163125,45.0,97.0
534,88.50648401250001,89.05782197500001,52.0,92.0
535,89.0421970125,89.31228565,62.0,97.0
536,89.0421970125,89.4082675625,69.0,102.0
537,89.5779100125,89.70402578125001,62.0,111.0
538,89.3100535125,89.914962775,57.0,80.0
539,89.0421970125,89.94956090625,50.0,102.0
540,89.8457665125,90.46518466875,62.0,111.0
541,89.8457665125,90.48638997500001,69.0,105.0
542,90.6493360125,90.75759468125,62.0,111.0
543,90.38147951250001,90.80670170625001,50.0,100.0
544,90.6493360125,91.00871015,69.0,108.0
545,90.91719251250001,91.03772793750001,62.0,94.0
546,91.1850490125,91.5176375,57.0,102.0
547,91.1850490125,91.57120880000001,64.0,97.0
548,91.7207620125,91.8412974375,57.0,108.0
549,91.45290551250001,92.02991305625001,52.0,38.0
550,91.1850490125,92.07455580625,45.0,105.0
551,91.9886185125,92.31562665625,64.0,108.0
552,91.9886185125,92.3390641,57.0,111.0
553,92.5243315125,92.65937583125,57.0,102.0
554,92.2564750125,92.843527175,52.0,45.0
555,92.7921880125,92.90714309375001,57.0,105.0
556,92.2564750125,92.91830378125,45.0,48.0
557,92.7921880125,93.05334810000001,61.0,109.0
558,93.0600445125,93.15156215,57.0,102.0
559,93.3279010125,93.66606984375001,62.0,87.0
560,93.3279010125,93.70959652500001,66.0,90.0
561,93.86361401250001,93.9752208875,62.0,84.0
562,93.5957575125,94.20513105,57.0,67.0
563,93.3279010125,94.28883620625001,50.0,102.0
564,94.1314705125,94.47856789375001,69.0,108.0
565,94.1314705125,94.4997732,62.0,114.0
566,94.39932701250001,94.700665575,57.0,73.0
567,94.39932701250001,94.75312080625001,50.0,45.0
568,94.6671835125,94.90713829375001,62.0,114.0
569,94.93504001250001,95.02767371875001,50.0,80.0
570,94.6671835125,95.25758388125,69.0,105.0
571,95.2028965125,95.32901228125,62.0,87.0
572,95.4707530125,95.6805739375,64.0,82.0
573,96.0064660125,96.164947775,59.0,80.0
574,95.4707530125,96.18168880625001,69.0,100.0
575,95.7386095125,96.40043828125,52.0,58.0
576,96.2743225125,96.5645003875,61.0,96.0
577,96.2743225125,96.63034844375001,64.0,84.0
578,96.5421790125,96.85133005625,52.0,87.0
579,95.4707530125,96.93280307500001,45.0,105.0
580,96.81003551250001,97.13704365625,57.0,108.0
581,96.81003551250001,97.16382930625001,61.0,109.0
582,96.81003551250001,97.1761060625,64.0,108.0
583,97.0778920125,97.34798065000001,45.0,38.0
584,97.34574851250001,97.43056973750001,61.0,65.0
585,97.0778920125,97.48190890000001,52.0,94.0
586,97.34574851250001,97.50199813750001,57.0,102.0
587,97.34574851250001,97.5287837875,64.0,87.0
588,97.6136050125,97.8234259375,57.0,105.0
589,97.6136050125,98.0064612125,62.0,105.0
590,98.1493180125,98.24195171875,66.0,77.0
591,97.6136050125,98.59016516875,50.0,105.0
592,98.4171745125,98.79328968125,57.0,102.0
593,98.4171745125,98.8055664375,62.0,108.0
594,98.4171745125,98.85802166875,66.0,102.0
595,98.9528875125,99.08793183125,57.0,100.0
596,98.6850310125,99.33793123125001,50.0,76.0
597,99.2207440125,99.37364543125,57.0,117.0
598,99.2207440125,99.423868525,62.0,108.0
599,100.0243135125,100.1805631375,61.0,77.0
600,100.29217001250001,100.39708047500001,61.0,46.0
601,100.29217001250001,100.41493757500001,64.0,80.0
602,100.0243135125,100.61694601875,52.0,53.0
603,100.5600265125,100.8390437,61.0,102.0
604,100.5600265125,100.86248114375,64.0,97.0
605,100.5600265125,100.87810610625,69.0,105.0
606,99.75645701250001,101.16381970625001,45.0,108.0
607,100.82788301250001,101.17498039375,52.0,82.0
608,101.0957395125,101.3234175375,61.0,109.0
609,101.0957395125,101.3680602875,64.0,108.0
610,101.0957395125,101.40712269375,69.0,100.0
611,101.36359601250001,101.459577925,45.0,89.0
612,101.8993090125,102.47185228125001,57.0,69.0
613,101.8993090125,102.52542358125001,62.0,87.0
614,102.4350220125,102.834574625,54.0,85.0
615,102.7028785125,103.1247525,57.0,108.0
616,102.7028785125,103.13368105,66.0,102.0
617,102.7028785125,103.13702925625,62.0,105.0
618,102.9707350125,103.27988605625,54.0,46.0
619,101.8993090125,103.29104674375,47.0,102.0
620,103.23859151250001,103.48189450000001,57.0,108.0
621,103.23859151250001,103.52318904375001,62.0,102.0
622,103.23859151250001,103.54774255625,66.0,105.0
623,103.5064480125,103.91381310625,52.0,105.0
624,103.77430451250001,104.11024120625001,59.0,105.0
625,103.77430451250001,104.1582321625,64.0,108.0
626,104.5778740125,104.73077543125001,57.0,92.0
627,104.31001751250001,104.88256078125,52.0,66.0
628,104.0421610125,104.98523910625,45.0,108.0
629,104.8457305125,105.1269798375,61.0,105.0
630,104.8457305125,105.16604224375,64.0,105.0
631,104.8457305125,105.17273865625,57.0,105.0
632,105.1135870125,105.35689,52.0,76.0
633,105.1135870125,105.3859077875,45.0,20.0
634,105.3814435125,105.65153215000001,57.0,114.0
635,105.3814435125,105.7318891,69.0,105.0
636,105.6493000125,105.93054933750001,52.0,84.0
637,105.9171565125,106.17162018750001,57.0,97.0
638,105.9171565125,106.1783166,61.0,99.0
639,105.9171565125,106.18389694375,64.0,92.0
640,106.18501301250001,106.59237810625001,61.0,79.0
641,106.18501301250001,106.59795845000001,64.0,87.0
642,106.18501301250001,106.61916375625,57.0,80.0
643,106.4528695125,106.8992970125,52.0,71.0
644,106.72072601250001,107.3501887875,61.0,99.0
645,106.9885825125,107.3546530625,57.0,92.0
646,106.72072601250001,107.39148333125,64.0,97.0
647,107.5242955125,107.87808930625,57.0,100.0
648,106.18501301250001,108.16938325000001,45.0,97.0
649,107.25643901250001,108.30777577500001,52.0,76.0
650,107.79215201250001,108.32005253125,61.0,105.0
651,107.79215201250001,108.3546506625,64.0,105.0
652,108.0600085125,108.36915955625001,57.0,105.0
653,108.5957215125,108.77540858125,64.0,1.0
654,108.5957215125,109.155988025,52.0,66.0
655,108.8635780125,109.397058875,59.0,114.0
656,108.8635780125,109.47406761875,64.0,102.0
657,108.8635780125,109.47741582500001,56.0,99.0
658,109.66714751250001,110.00866455,56.0,99.0
659,109.3992910125,110.2251818875,52.0,76.0
660,108.3278650125,110.2475032625,44.0,109.0
661,109.9350040125,110.27763711875001,59.0,100.0
662,110.20286051250001,110.42495819375,56.0,77.0
663,109.9350040125,110.535449,64.0,102.0
664,110.73857351250001,111.28991147500001,49.0,55.0
665,111.0064300125,111.37808090625,61.0,82.0
666,111.0064300125,111.42830400000001,57.0,105.0
667,111.2742865125,111.54660728750001,54.0,109.0
668,111.8099995125,112.14705227500001,54.0,99.0
669,112.0778560125,112.25196273750001,57.0,117.0
670,110.4707170125,112.38700705625,42.0,109.0
671,111.5421430125,112.41602484375001,49.0,63.0
672,112.0778560125,112.43164980625001,61.0,99.0
673,112.3457125125,112.46289973125,57.0,26.0
674,112.3457125125,112.6068726,54.0,109.0
675,112.0778560125,112.64147073125001,66.0,77.0
676,113.14928201250001,113.26646923125,64.0,94.0
677,112.8814255125,113.46289733125,59.0,82.0
678,113.4171385125,113.77986085625001,64.0,87.0
679,113.14928201250001,113.780976925,68.0,99.0
680,113.14928201250001,114.00307460625001,71.0,94.0
681,113.9528515125,114.15932423125001,64.0,89.0
682,114.22070801250001,114.5867785625,68.0,109.0
683,112.61356901250001,114.59570711250001,52.0,105.0
684,113.68499501250001,114.61914455625,59.0,51.0
685,114.4885645125,114.77651025,64.0,78.0
686,114.22070801250001,114.9037420875,71.0,100.0
687,115.2921340125,115.43722295,62.0,82.0
688,115.0242775125,115.64369566875,57.0,84.0
689,115.55999051250001,115.90485575625,62.0,87.0
690,115.2921340125,116.16601584375,69.0,97.0
691,116.09570351250001,116.2608816875,62.0,89.0
692,116.3635600125,116.46289013125,62.0,82.0
693,115.8278470125,116.5823094875,57.0,97.0
694,114.7564210125,116.64815754375,50.0,100.0
695,116.3635600125,116.69056815625001,66.0,105.0
696,116.63141651250001,116.88922839375,62.0,87.0
697,116.3635600125,117.02538878125,69.0,97.0
698,117.16712951250001,117.673824725,52.0,62.0
699,117.4349860125,117.89034206250001,61.0,102.0
700,117.7028425125,118.09793085000001,57.0,102.0
701,117.4349860125,118.29435895,64.0,94.0
702,118.2385555125,118.41601044375001,57.0,84.0
703,118.50641201250001,118.638108125,57.0,105.0
704,116.8992730125,118.91377710625001,45.0,97.0
705,118.50641201250001,118.9260538625,61.0,102.0
706,117.9706990125,118.94279489375,52.0,76.0
707,118.7742685125,118.97850909375,57.0,105.0
708,118.50641201250001,119.048821425,64.0,94.0
709,119.3099815125,119.49636499375,57.0,82.0
710,119.57783801250001,119.89814974375001,57.0,114.0
711,119.57783801250001,120.173818725,62.0,102.0
712,120.11355101250001,120.4796215625,57.0,92.0
713,120.3814075125,120.55663030625,62.0,87.0
714,120.6492640125,120.79323688125001,57.0,100.0
715,119.8456945125,120.82448680625001,54.0,57.0
716,119.04212501250001,120.9639954,47.0,105.0
717,120.9171205125,121.13028964375,57.0,97.0
718,120.6492640125,121.155959225,62.0,100.0
719,120.6492640125,121.21957514375,66.0,93.0
720,121.4528335125,121.83118081875,59.0,82.0
721,121.7206900125,122.307742175,62.0,105.0
722,121.98854651250001,122.3568492,59.0,82.0
723,121.7206900125,122.5287237875,68.0,96.0
724,122.2564030125,122.64256280000001,56.0,90.0
725,122.7921160125,122.92381212500001,64.0,100.0
726,121.1849770125,123.20617751875001,52.0,87.0
727,122.52425951250001,123.2072935875,59.0,100.0
728,122.7921160125,123.22403461875001,68.0,105.0
729,123.05997251250001,123.25528454375001,64.0,71.0
730,122.7921160125,123.26198095625,71.0,102.0
731,123.3278290125,123.73519410625,61.0,79.0
732,123.3278290125,123.74077445,64.0,87.0
733,123.3278290125,123.76197975625,57.0,80.0
734,123.59568551250001,124.04211301250001,52.0,71.0
735,123.8635420125,124.4930047875,61.0,99.0
736,124.1313985125,124.4974690625,57.0,92.0
737,123.8635420125,124.53429933125001,64.0,97.0
738,124.6671115125,125.02090530625,57.0,100.0
739,123.3278290125,125.31219925,45.0,97.0
740,124.3992550125,125.450591775,52.0,76.0
741,124.93496801250001,125.46286853125001,61.0,105.0
742,124.93496801250001,125.4974666625,64.0,105.0
743,125.2028245125,125.51197555625001,57.0,105.0
744,125.7385375125,125.91822458125,64.0,1.0
745,125.7385375125,126.29880402500001,52.0,66.0
746,126.00639401250001,126.53987487500001,59.0,114.0
747,126.00639401250001,126.61688361875001,64.0,102.0
748,126.00639401250001,126.620231825,56.0,99.0
749,126.8099635125,127.15148055,56.0,99.0
750,126.54210701250001,127.36799788750001,52.0,76.0
751,125.47068101250001,127.3903192625,44.0,109.0
752,127.0778200125,127.42045311875,59.0,100.0
753,127.3456765125,127.56777419375001,56.0,77.0
754,127.0778200125,127.67826500000001,64.0,102.0
755,127.88138951250001,128.432727475,49.0,55.0
756,128.14924601250002,128.52089690625002,61.0,82.0
757,128.14924601250002,128.57112,57.0,105.0
758,128.4171025125,128.6894232875,54.0,109.0
759,128.9528155125,129.289868275,54.0,99.0
760,129.22067201250002,129.39477873750002,57.0,117.0
761,127.6135330125,129.52982305625,42.0,109.0
762,128.6849590125,129.55884084375,49.0,63.0
763,129.22067201250002,129.57446580625,61.0,99.0
764,129.4885285125,129.60571573125,57.0,26.0
765,129.4885285125,129.7496886,54.0,109.0
766,129.22067201250002,129.78428673125,66.0,77.0
767,130.2920980125,130.40928523125,64.0,94.0
768,130.0242415125,130.60571333125,59.0,82.0
769,130.5599545125,130.92267685625,64.0,87.0
770,130.2920980125,130.92379292500001,68.0,99.0
771,130.2920980125,131.14589060625,71.0,94.0
772,131.0956675125,131.30214023125,64.0,89.0
773,131.3635240125,131.7295945625,68.0,109.0
774,129.7563850125,131.73852311250002,52.0,105.0
775,130.8278110125,131.76196055625002,59.0,51.0
776,131.63138051250002,131.91932625,64.0,78.0
777,131.3635240125,132.04655808750002,71.0,100.0
778,132.4349500125,132.58003895000002,62.0,82.0
779,132.1670935125,132.78651166875,57.0,84.0
780,132.70280651250002,133.04767175625,62.0,87.0
781,132.4349500125,133.30883184375,69.0,97.0
782,133.2385195125,133.4036976875,62.0,89.0
783,133.5063760125,133.60570613125,62.0,82.0
784,132.9706630125,133.7251254875,57.0,97.0
785,131.8992370125,133.79097354375,50.0,100.0
786,133.5063760125,133.83338415625002,66.0,105.0
787,133.7742325125,134.03204439375,62.0,87.0
788,133.5063760125,134.16820478125,69.0,97.0
789,134.3099455125,134.816640725,52.0,62.0
790,134.5778020125,135.0331580625,61.0,102.0
791,134.8456585125,135.24074685,57.0,102.0
792,134.5778020125,135.43717495,64.0,94.0
793,135.3813715125,135.55882644375,57.0,84.0
794,135.6492280125,135.780924125,57.0,105.0
795,134.0420890125,136.05659310625,45.0,97.0
796,135.6492280125,136.0688698625,61.0,102.0
797,135.11351501250002,136.08561089375002,52.0,76.0
798,135.9170845125,136.12132509375002,57.0,105.0
799,135.6492280125,136.191637425,64.0,94.0
800,136.4527975125,136.63918099375002,57.0,82.0
801,136.7206540125,137.04096574375,57.0,114.0
802,136.7206540125,137.316634725,62.0,102.0
803,137.2563670125,137.6224375625,57.0,92.0
804,137.52422351250001,137.69944630625,62.0,87.0
805,137.7920800125,137.93605288125,57.0,100.0
806,136.9885105125,137.96730280625002,54.0,57.0
807,136.18494101250002,138.1068114,47.0,105.0
808,138.0599365125,138.27310564375,57.0,97.0
809,137.7920800125,138.298775225,62.0,100.0
810,137.7920800125,138.36239114375002,66.0,93.0
811,138.3277930125,138.73515810625,52.0,100.0
812,138.3277930125,138.74073845,56.0,99.0
813,138.59564951250002,139.02980025625,47.0,76.0
814,139.1313625125,139.48962058125,52.0,94.0
815,138.8635060125,139.6536826875,56.0,112.0
816,138.8635060125,139.66595944375,59.0,111.0
817,139.66707551250002,140.01417289375001,52.0,92.0
818,138.3277930125,140.35122565625,40.0,102.0
819,139.3992190125,140.38470771875,47.0,82.0
820,139.9349320125,140.620198225,56.0,109.0
821,139.9349320125,140.62354643125002,59.0,105.0
822,140.2027885125,140.6246625,52.0,94.0
823,140.4706450125,140.83671556250002,40.0,108.0
824,140.7385015125,140.84006376875,52.0,84.0
825,140.7385015125,140.84676018125,47.0,78.0
826,140.7385015125,140.84676018125,56.0,87.0
827,140.7385015125,140.84676018125,59.0,94.0
828,141.00635801250002,141.09899171875,52.0,84.0
829,141.00635801250002,141.111268475,40.0,100.0
830,141.00635801250002,141.11461668125,59.0,84.0
831,141.00635801250002,141.1179648875,56.0,79.0
832,141.00635801250002,141.12354523125,47.0,89.0
833,141.2742145125,141.38247318125,52.0,94.0
834,141.2742145125,141.388053525,56.0,93.0
835,141.2742145125,141.396982075,59.0,92.0
836,141.2742145125,141.40033028125,40.0,100.0
837,141.2742145125,141.4126070375,47.0,84.0
838,141.5420710125,141.70836525625,47.0,111.0
839,141.5420710125,141.72287415,40.0,111.0
840,141.6759992625,141.72287415,40.0,80.0
841,141.5420710125,142.12577496875,59.0,108.0
842,141.5420710125,142.12912317500002,56.0,105.0
843,141.5420710125,142.13470351875,52.0,108.0
844,142.21171226250001,142.51416689375,56.0,112.0
845,142.07778401250002,142.59898811875001,47.0,100.0
846,142.3456405125,142.6358183875,52.0,102.0
847,142.3456405125,142.6447469375,59.0,100.0
848,142.6134970125,142.92488019375,61.0,90.0
849,142.6134970125,142.9795675625,57.0,100.0
850,142.8813535125,143.22845089375,52.0,52.0
851,143.1492100125,143.40144155000002,64.0,108.0
852,143.1492100125,143.4438521625,61.0,109.0
853,142.6134970125,143.5063520125,45.0,100.0
854,143.1492100125,143.5420662125,57.0,105.0
855,143.6849230125,144.00523474375,52.0,67.0
856,143.9527795125,144.20501105,64.0,108.0
857,143.9527795125,144.22844849375,69.0,100.0
858,143.9527795125,144.23179670000002,61.0,116.0
859,143.9527795125,144.26416269375,57.0,114.0
860,144.2206360125,144.29318048125,45.0,71.0
861,144.48849251250002,144.78201859375,61.0,112.0
862,144.48849251250002,144.79429535,64.0,100.0
863,144.48849251250002,144.81550065625,57.0,105.0
864,145.0242055125,145.34786545,52.0,46.0
865,144.7563490125,145.414829575,44.0,105.0
866,145.2920620125,145.45724018750002,56.0,105.0
867,145.2920620125,145.6603647,59.0,111.0
868,145.55991851250002,145.69831103750002,56.0,50.0
869,145.2920620125,145.69942710625,64.0,105.0
870,146.0956315125,146.29317568125,56.0,102.0
871,146.0956315125,146.32888988125,59.0,123.0
872,145.8277750125,146.40255041875,52.0,69.0
873,146.0956315125,146.47286275000002,64.0,108.0
874,146.6313445125,146.664826575,59.0,67.0
875,146.6313445125,146.763040625,56.0,93.0
876,146.6313445125,146.8143797875,64.0,97.0
877,146.89920101250001,147.24406625625,57.0,94.0
878,146.89920101250001,147.25522694375002,61.0,39.0
879,146.89920101250001,147.2652715625,54.0,70.0
880,147.4349140125,147.61460108125002,57.0,111.0
881,147.4349140125,147.6179492875,54.0,105.0
882,147.4349140125,147.63245818125,61.0,96.0
883,146.89920101250001,147.63915459375,42.0,96.0
884,147.97062701250002,148.2853584,49.0,55.0
885,148.2384835125,148.4661615375,61.0,90.0
886,148.2384835125,148.53424173125,57.0,117.0
887,148.2384835125,148.5532149,54.0,90.0
888,148.2384835125,148.6000897875,66.0,77.0
889,148.7741965125,148.8389285,57.0,102.0
890,148.7741965125,148.905892625,54.0,102.0
891,148.7741965125,149.08334755625,66.0,52.0
892,149.3099095125,149.70499785,59.0,58.0
893,149.04205301250002,149.83557789375,52.0,108.0
894,149.8456225125,149.9572293875,59.0,45.0
895,149.5777660125,150.01191675625,62.0,114.0
896,149.5777660125,150.2250858875,68.0,109.0
897,150.1134790125,150.486245975,59.0,87.0
898,150.1134790125,150.754102475,52.0,92.0
899,150.38133551250002,150.75856675,71.0,108.0
900,150.6491920125,150.76079888750002,59.0,66.0
901,150.38133551250002,150.76526316250002,64.0,111.0
902,150.38133551250002,150.76526316250002,68.0,109.0
903,150.9170485125,151.00968221875002,71.0,92.0
904,150.9170485125,151.02195897500002,68.0,102.0
905,150.9170485125,151.04428035,64.0,100.0
906,151.1849050125,151.54762735625002,62.0,92.0
907,151.1849050125,151.5532077,66.0,99.0
908,151.45276151250002,151.79427855,57.0,55.0
909,151.1849050125,151.99628699375,50.0,102.0
910,151.9884745125,152.08110821875002,57.0,76.0
911,151.7206180125,152.325527275,62.0,108.0
912,151.7206180125,152.34226830625002,66.0,112.0
913,151.7206180125,152.35119685625,69.0,111.0
914,152.2563310125,152.35789326875002,50.0,94.0
915,152.52418751250002,152.71057099375,62.0,84.0
916,152.52418751250002,152.8032047,57.0,117.0
917,152.52418751250002,152.8746331,66.0,102.0
918,152.52418751250002,152.88021344375,69.0,100.0
919,152.52418751250002,152.9639186,50.0,102.0
920,153.0599005125,153.33780163125002,66.0,116.0
921,153.0599005125,153.3768640375,62.0,111.0
922,153.0599005125,153.4817745,69.0,108.0
923,153.5956135125,153.91369310625,52.0,66.0
924,153.3277570125,154.16592464375,45.0,100.0
925,153.86347001250002,154.3634688125,57.0,111.0
926,153.86347001250002,154.3902544625,64.0,108.0
927,153.86347001250002,154.441593625,61.0,105.0
928,154.3991830125,154.75855715,45.0,97.0
929,154.93489601250002,154.98958338125001,52.0,34.0
930,154.6670395125,155.0598957125,57.0,117.0
931,154.6670395125,155.06882426250002,61.0,105.0
932,154.6670395125,155.06882426250002,64.0,111.0
933,155.2027525125,155.34226110625,45.0,102.0
934,155.2027525125,155.352305725,57.0,108.0
935,155.4706090125,155.88355445000002,59.0,102.0
936,155.4706090125,155.89583120625,62.0,84.0
937,155.4706090125,156.2161429375,47.0,111.0
938,156.0063220125,156.42261565625,59.0,105.0
939,156.27417851250001,156.42707993125,54.0,72.0
940,156.0063220125,156.4795351625,62.0,94.0
941,156.0063220125,156.62350803125,66.0,102.0
942,156.5420350125,156.96279293125,47.0,94.0
943,156.8098915125,156.97618575625,54.0,102.0
944,157.0777480125,157.15252461875,47.0,43.0
945,156.8098915125,157.17261385625,59.0,108.0
946,156.8098915125,157.1781942,62.0,105.0
947,156.8098915125,157.1938191625,66.0,109.0
948,157.34560451250002,157.50408627500002,47.0,97.0
949,157.34560451250002,157.5286397875,62.0,100.0
950,157.34560451250002,157.530871925,59.0,102.0
951,157.8813175125,158.013013625,59.0,62.0
952,157.8813175125,158.0197100375,64.0,84.0
953,157.6134610125,158.2964950875,52.0,105.0
954,158.1491740125,158.5241731125,59.0,120.0
955,158.1491740125,158.54426235,64.0,117.0
956,158.6848870125,158.780868925,64.0,108.0
957,158.6848870125,158.78644926875,59.0,108.0
958,158.6848870125,158.79649388750002,68.0,105.0
959,158.41703051250002,159.07885928125,52.0,92.0
960,158.9527435125,159.36457288125,59.0,114.0
961,158.9527435125,159.3902424625,64.0,117.0
962,158.9527435125,159.41926025,68.0,109.0
963,159.4884565125,159.6759560625,64.0,100.0
964,159.4884565125,159.6804203375,59.0,111.0
965,159.2206000125,159.7384559125,52.0,102.0
966,159.75631301250002,160.06769619375,61.0,90.0
967,159.75631301250002,160.1223835625,57.0,100.0
968,160.0241695125,160.37126689375,52.0,52.0
969,160.2920260125,160.54425755,64.0,108.0
970,160.2920260125,160.58666816250002,61.0,109.0
971,159.75631301250002,160.6491680125,45.0,100.0
972,160.2920260125,160.6848822125,57.0,105.0
973,160.82773901250002,161.14805074375002,52.0,67.0
974,161.0955955125,161.34782705,64.0,108.0
975,161.0955955125,161.37126449375,69.0,100.0
976,161.0955955125,161.3746127,61.0,116.0
977,161.0955955125,161.40697869375,57.0,114.0
978,161.3634520125,161.43599648125002,45.0,71.0
979,161.6313085125,161.92483459375,61.0,112.0
980,161.6313085125,161.93711135,64.0,100.0
981,161.6313085125,161.95831665625002,57.0,105.0
982,162.1670215125,162.49068145,52.0,46.0
983,161.89916501250002,162.557645575,44.0,105.0
984,162.4348780125,162.6000561875,56.0,105.0
985,162.4348780125,162.8031807,59.0,111.0
986,162.7027345125,162.8411270375,56.0,50.0
987,162.4348780125,162.84224310625,64.0,105.0
988,163.23844751250002,163.43599168125002,56.0,102.0
989,163.23844751250002,163.47170588125002,59.0,123.0
990,162.9705910125,163.54536641875,52.0,69.0
991,163.23844751250002,163.61567875,64.0,108.0
992,163.7741605125,163.80764257500002,59.0,67.0
993,163.7741605125,163.905856625,56.0,93.0
994,163.7741605125,163.9571957875,64.0,97.0
995,164.0420170125,164.38688225625,57.0,94.0
996,164.0420170125,164.39804294375,61.0,39.0
997,164.0420170125,164.40808756250001,54.0,70.0
998,164.5777300125,164.75741708125,57.0,111.0
999,164.5777300125,164.7607652875,54.0,105.0
1000,164.5777300125,164.77527418125,61.0,96.0
1001,164.0420170125,164.78197059375,42.0,96.0
1002,165.1134430125,165.42817440000002,49.0,55.0
1003,165.3812995125,165.6089775375,61.0,90.0
1004,165.3812995125,165.67705773125002,57.0,117.0
1005,165.3812995125,165.6960309,54.0,90.0
1006,165.3812995125,165.7429057875,66.0,77.0
1007,165.9170125125,165.98174450000002,57.0,102.0
1008,165.9170125125,166.04870862500002,54.0,102.0
1009,165.9170125125,166.22616355625001,66.0,52.0
1010,166.4527255125,166.84781385,59.0,58.0
1011,166.1848690125,166.97839389375,52.0,108.0
1012,166.9884385125,167.10004538750002,59.0,45.0
1013,166.72058201250002,167.15473275625,62.0,114.0
1014,166.72058201250002,167.3679018875,68.0,109.0
1015,167.2562950125,167.629061975,59.0,87.0
1016,167.2562950125,167.896918475,52.0,92.0
1017,167.5241515125,167.90138275,71.0,108.0
1018,167.79200801250002,167.9036148875,59.0,66.0
1019,167.5241515125,167.9080791625,64.0,111.0
1020,167.5241515125,167.9080791625,68.0,109.0
1021,168.0598645125,168.15249821875,71.0,92.0
1022,168.0598645125,168.164774975,68.0,102.0
1023,168.0598645125,168.18709635000002,64.0,100.0
1024,168.3277210125,168.69044335625,62.0,92.0
1025,168.3277210125,168.6960237,66.0,99.0
1026,168.5955775125,168.93709455,57.0,55.0
1027,168.3277210125,169.13910299375002,50.0,102.0
1028,169.13129051250002,169.22392421875,57.0,76.0
1029,168.8634340125,169.468343275,62.0,108.0
1030,168.8634340125,169.48508430625,66.0,112.0
1031,168.8634340125,169.49401285625,69.0,111.0
1032,169.3991470125,169.50070926875,50.0,94.0
1033,169.6670035125,169.85338699375,62.0,84.0
1034,169.6670035125,169.94602070000002,57.0,117.0
1035,169.6670035125,170.0174491,66.0,102.0
1036,169.6670035125,170.02302944375,69.0,100.0
1037,169.6670035125,170.1067346,50.0,102.0
1038,170.20271651250002,170.48061763125,66.0,116.0
1039,170.20271651250002,170.5196800375,62.0,111.0
1040,170.20271651250002,170.6245905,69.0,108.0
1041,170.7384295125,171.05650910625002,52.0,66.0
1042,170.4705730125,171.30874064375,45.0,100.0
1043,171.0062860125,171.5062848125,57.0,111.0
1044,171.0062860125,171.5330704625,64.0,108.0
1045,171.0062860125,171.584409625,61.0,105.0
1046,171.5419990125,171.90137315,45.0,97.0
1047,172.0777120125,172.13239938125,52.0,34.0
1048,171.8098555125,172.20271171250002,57.0,117.0
1049,171.8098555125,172.2116402625,61.0,105.0
1050,171.8098555125,172.2116402625,64.0,111.0
1051,172.3455685125,172.48507710625,45.0,102.0
1052,172.3455685125,172.49512172500002,57.0,108.0
1053,172.61342501250002,173.00293300625,59.0,97.0
1054,172.61342501250002,173.00851335000002,62.0,92.0
1055,172.61342501250002,173.0152097625,66.0,96.0
1056,173.1491380125,173.280834125,59.0,111.0
1057,173.1491380125,173.47614615625,62.0,117.0
1058,173.1491380125,173.4995836,66.0,112.0
1059,172.61342501250002,173.54757455625,47.0,100.0
1060,173.4169945125,173.8210114,59.0,111.0
1061,173.9527075125,174.27636745,68.0,105.0
1062,173.9527075125,174.27971565625,59.0,114.0
1063,173.9527075125,174.29757275625002,64.0,111.0
1064,173.68485101250002,174.3589565375,52.0,108.0
1065,174.4884205125,174.58775063125,64.0,97.0
1066,174.4884205125,174.59667918125,59.0,111.0
1067,174.75627701250002,175.04422275000002,61.0,93.0
1068,174.75627701250002,175.05649950625002,57.0,80.0
1069,175.02413351250001,175.3991326125,52.0,48.0
1070,175.2919900125,175.44489143125,57.0,111.0
1071,175.2919900125,175.60114105625001,61.0,112.0
1072,175.2919900125,175.7562746125,64.0,108.0
1073,175.5598465125,175.76631923125,57.0,100.0
1074,175.8277030125,176.20493425,52.0,89.0
1075,176.09555951250002,176.40694269375,69.0,87.0
1076,176.09555951250002,176.45493365000002,64.0,97.0
1077,176.09555951250002,176.4638622,61.0,109.0
1078,176.09555951250002,176.47948716250002,57.0,105.0
1079,176.6312725125,176.88908439375,57.0,105.0
1080,176.6312725125,176.9035932875,61.0,109.0
1081,176.8991290125,176.9035932875,61.0,52.0
1082,176.6312725125,176.90694149375,64.0,100.0
1083,174.75627701250002,176.90917363125,45.0,97.0
1084,176.3634160125,176.914753975,52.0,92.0
1085,176.8991290125,177.0107358875,58.0,63.0
1086,176.8991290125,177.07658394375,54.0,68.0
1087,176.8991290125,177.10336959375002,42.0,93.0
1088,177.16698551250002,177.27524418125,58.0,63.0
1089,177.16698551250002,177.30537803750002,54.0,38.0
1090,177.16698551250002,177.32881548125002,42.0,70.0
1091,177.16698551250002,177.3321636875,61.0,54.0
1092,177.4348420125,177.54310068125,58.0,32.0
1093,177.4348420125,177.57435060625002,54.0,59.0
1094,177.4348420125,177.584395225,42.0,82.0
1095,177.4348420125,177.584395225,61.0,57.0
1096,177.7026985125,177.82323393750002,58.0,36.0
1097,177.7026985125,177.84667138125002,54.0,85.0
1098,177.7026985125,177.861180275,61.0,57.0
1099,177.7026985125,177.87010882500002,42.0,102.0
1100,177.9705550125,178.093322575,58.0,41.0
1101,177.9705550125,178.11452788125,54.0,87.0
1102,177.9705550125,178.1178760875,61.0,85.0
1103,177.9705550125,178.120108225,42.0,96.0
1104,178.2384115125,178.37345583125,58.0,48.0
1105,178.2384115125,178.38238438125,54.0,96.0
1106,178.2384115125,178.3946611375,42.0,99.0
1107,178.2384115125,178.40247361875,61.0,90.0
1108,178.50626801250002,178.63684805625002,58.0,93.0
1109,178.50626801250002,178.646892675,54.0,102.0
1110,178.50626801250002,178.655821225,42.0,105.0
1111,178.50626801250002,178.66809798125,61.0,90.0
1112,178.7741245125,179.00849895000002,58.0,93.0
1113,178.7741245125,179.0174275,54.0,96.0
1114,178.7741245125,179.02635605,42.0,109.0
1115,178.7741245125,179.04421315000002,61.0,93.0
1116,179.0419810125,179.35336419375,63.0,90.0
1117,179.0419810125,179.40805156250002,59.0,100.0
1118,179.3098375125,179.65693489375002,54.0,52.0
1119,179.57769401250002,179.82992555,66.0,108.0
1120,179.57769401250002,179.8723361625,63.0,109.0
1121,179.0419810125,179.9348360125,47.0,100.0
1122,179.57769401250002,179.9705502125,59.0,105.0
1123,180.1134070125,180.43371874375,54.0,67.0
1124,180.3812635125,180.63349505,66.0,108.0
1125,180.3812635125,180.65693249375002,71.0,100.0
1126,180.3812635125,180.66028070000002,63.0,116.0
1127,180.3812635125,180.69264669375002,59.0,114.0
1128,180.64912001250002,180.72166448125,47.0,71.0
1129,180.9169765125,181.21050259375002,63.0,112.0
1130,180.9169765125,181.22277935,66.0,100.0
1131,180.9169765125,181.24398465625,59.0,105.0
1132,181.4526895125,181.77634945,54.0,46.0
1133,181.1848330125,181.843313575,46.0,105.0
1134,181.7205460125,181.88572418750002,58.0,105.0
1135,181.7205460125,182.0888487,61.0,111.0
1136,181.98840251250002,182.12679503750002,58.0,50.0
1137,181.7205460125,182.12791110625,66.0,105.0
1138,182.5241155125,182.72165968125,58.0,102.0
1139,182.5241155125,182.75737388125,61.0,123.0
1140,182.2562590125,182.83103441875,54.0,69.0
1141,182.5241155125,182.90134675000002,66.0,108.0
1142,183.05982851250002,183.093310575,61.0,67.0
1143,183.05982851250002,183.191524625,58.0,93.0
1144,183.05982851250002,183.2428637875,66.0,97.0
1145,183.3276850125,183.67255025625002,59.0,94.0
1146,183.3276850125,183.68371094375001,63.0,39.0
1147,183.3276850125,183.6937555625,56.0,70.0
1148,183.8633980125,184.04308508125,59.0,111.0
1149,183.8633980125,184.0464332875,56.0,105.0
1150,183.8633980125,184.06094218125,63.0,96.0
1151,183.3276850125,184.06763859375002,44.0,96.0
1152,184.39911101250001,184.7138424,51.0,55.0
1153,184.6669675125,184.8946455375,63.0,90.0
1154,184.6669675125,184.96272573125,59.0,117.0
1155,184.6669675125,184.9816989,56.0,90.0
1156,184.6669675125,185.0285737875,68.0,77.0
1157,185.2026805125,185.2674125,59.0,102.0
1158,185.2026805125,185.334376625,56.0,102.0
1159,185.2026805125,185.51183155625,68.0,52.0
1160,185.7383935125,186.13348185,61.0,58.0
1161,185.47053701250002,186.26406189375,54.0,108.0
1162,186.2741065125,186.3857133875,61.0,45.0
1163,186.0062500125,186.44040075625,64.0,114.0
1164,186.0062500125,186.6535698875,70.0,109.0
1165,186.54196301250002,186.914729975,61.0,87.0
1166,186.54196301250002,187.182586475,54.0,92.0
1167,186.8098195125,187.18705075,73.0,108.0
1168,187.0776760125,187.1892828875,61.0,66.0
1169,186.8098195125,187.19374716250002,66.0,111.0
1170,186.8098195125,187.19374716250002,70.0,109.0
1171,187.3455325125,187.43816621875,73.0,92.0
1172,187.3455325125,187.45044297500002,70.0,102.0
1173,187.3455325125,187.47276435,66.0,100.0
1174,187.61338901250002,187.97611135625002,64.0,92.0
1175,187.61338901250002,187.9816917,68.0,99.0
1176,187.88124551250002,188.22276255,59.0,55.0
1177,187.61338901250002,188.42477099375,52.0,102.0
1178,188.4169585125,188.50959221875002,59.0,76.0
1179,188.1491020125,188.754011275,64.0,108.0
1180,188.1491020125,188.77075230625002,68.0,112.0
1181,188.1491020125,188.77968085625,71.0,111.0
1182,188.6848150125,188.78637726875002,52.0,94.0
1183,188.95267151250002,189.13905499375,64.0,84.0
1184,188.95267151250002,189.2316887,59.0,117.0
1185,188.95267151250002,189.3031171,68.0,102.0
1186,188.95267151250002,189.30869744375002,71.0,100.0
1187,188.95267151250002,189.3924026,52.0,102.0
1188,189.4883845125,189.76628563125,68.0,116.0
1189,189.4883845125,189.8053480375,64.0,111.0
1190,189.4883845125,189.9102585,71.0,108.0
1191,190.02409751250002,190.34217710625,54.0,66.0
1192,189.7562410125,190.59440864375,47.0,100.0
1193,190.2919540125,190.7919528125,59.0,111.0
1194,190.2919540125,190.81873846250002,66.0,108.0
1195,190.2919540125,190.87007762500002,63.0,105.0
1196,190.8276670125,191.18704115,47.0,97.0
1197,191.36338001250002,191.41806738125,54.0,34.0
1198,191.0955235125,191.4883797125,59.0,117.0
1199,191.0955235125,191.4973082625,63.0,105.0
1200,191.0955235125,191.4973082625,66.0,111.0
1201,191.6312365125,191.77074510625002,47.0,102.0
1202,191.6312365125,191.780789725,59.0,108.0
1203,191.8990930125,192.31203845000002,61.0,102.0
1204,191.8990930125,192.32431520625002,64.0,84.0
1205,191.8990930125,192.64462693750002,49.0,111.0
1206,192.43480601250002,192.85109965625,61.0,105.0
1207,192.7026625125,192.85556393125,56.0,72.0
1208,192.43480601250002,192.9080191625,64.0,94.0
1209,192.43480601250002,193.05199203125,68.0,102.0
1210,192.9705190125,193.39127693125002,49.0,94.0
1211,193.2383755125,193.40466975625,56.0,102.0
1212,193.50623201250002,193.58100861875002,49.0,43.0
1213,193.2383755125,193.60109785625002,61.0,108.0
1214,193.2383755125,193.6066782,64.0,105.0
1215,193.2383755125,193.6223031625,68.0,109.0
1216,193.77408851250001,193.93257027500002,49.0,97.0
1217,193.77408851250001,193.9571237875,64.0,100.0
1218,193.77408851250001,193.959355925,61.0,102.0
1219,194.3098015125,194.441497625,61.0,62.0
1220,194.3098015125,194.4481940375,66.0,84.0
1221,194.0419450125,194.7249790875,54.0,105.0
1222,194.5776580125,194.95265711250002,61.0,120.0
1223,194.5776580125,194.97274635,66.0,117.0
1224,195.1133710125,195.20935292500002,66.0,108.0
1225,195.1133710125,195.21493326875,61.0,108.0
1226,195.1133710125,195.22497788750002,70.0,105.0
1227,194.84551451250002,195.50734328125,54.0,92.0
1228,195.3812275125,195.79305688125,61.0,114.0
1229,195.3812275125,195.8187264625,66.0,117.0
1230,195.3812275125,195.84774425,70.0,109.0
1231,195.91694051250002,196.1044400625,66.0,100.0
1232,195.91694051250002,196.1089043375,61.0,111.0
1233,195.6490840125,196.1669399125,54.0,102.0
1234,196.1847970125,196.49618019375,63.0,90.0
1235,196.1847970125,196.5508675625,59.0,100.0
1236,196.4526535125,196.79975089375,54.0,52.0
1237,196.7205100125,196.97274155,66.0,108.0
1238,196.7205100125,197.01515216250002,63.0,109.0
1239,196.1847970125,197.0776520125,47.0,100.0
1240,196.7205100125,197.1133662125,59.0,105.0
1241,197.25622301250002,197.57653474375002,54.0,67.0
1242,197.5240795125,197.77631105,66.0,108.0
1243,197.5240795125,197.79974849375,71.0,100.0
1244,197.5240795125,197.8030967,63.0,116.0
1245,197.5240795125,197.83546269375,59.0,114.0
1246,197.7919360125,197.86448048125,47.0,71.0
1247,198.0597925125,198.35331859375,63.0,112.0
1248,198.0597925125,198.36559535,66.0,100.0
1249,198.0597925125,198.38680065625002,59.0,105.0
1250,198.5955055125,198.91916545,54.0,46.0
1251,198.32764901250002,198.986129575,46.0,105.0
1252,198.8633620125,199.0285401875,58.0,105.0
1253,198.8633620125,199.2316647,61.0,111.0
1254,199.1312185125,199.2696110375,58.0,50.0
1255,198.8633620125,199.27072710625,66.0,105.0
1256,199.6669315125,199.86447568125,58.0,102.0
1257,199.6669315125,199.90018988125001,61.0,123.0
1258,199.39907501250002,199.97385041875,54.0,69.0
1259,199.6669315125,200.04416275,66.0,108.0
1260,200.2026445125,200.23612657500001,61.0,67.0
1261,200.2026445125,200.334340625,58.0,93.0
1262,200.2026445125,200.3856797875,66.0,97.0
1263,200.4705010125,200.81536625625,59.0,94.0
1264,200.4705010125,200.82652694375,63.0,39.0
1265,200.4705010125,200.8365715625,56.0,70.0
1266,201.0062140125,201.18590108125,59.0,111.0
1267,201.0062140125,201.18924928750002,56.0,105.0
1268,201.0062140125,201.20375818125,63.0,96.0
1269,200.4705010125,201.21045459375,44.0,96.0
1270,201.5419270125,201.85665840000001,51.0,55.0
1271,201.80978351250002,202.0374615375,63.0,90.0
1272,201.80978351250002,202.10554173125,59.0,117.0
1273,201.80978351250002,202.1245149,56.0,90.0
1274,201.80978351250002,202.1713897875,68.0,77.0
1275,202.3454965125,202.41022850000002,59.0,102.0
1276,202.3454965125,202.47719262500001,56.0,102.0
1277,202.3454965125,202.65464755625,68.0,52.0
1278,202.88120951250002,203.27629785000002,61.0,58.0
1279,202.6133530125,203.40687789375002,54.0,108.0
1280,203.4169225125,203.52852938750001,61.0,45.0
1281,203.14906601250001,203.58321675625,64.0,114.0
1282,203.14906601250001,203.7963858875,70.0,109.0
1283,203.6847790125,204.057545975,61.0,87.0
1284,203.6847790125,204.325402475,54.0,92.0
1285,203.9526355125,204.32986675,73.0,108.0
1286,204.22049201250002,204.3320988875,61.0,66.0
1287,203.9526355125,204.3365631625,66.0,111.0
1288,203.9526355125,204.3365631625,70.0,109.0
1289,204.4883485125,204.58098221875,73.0,92.0
1290,204.4883485125,204.593258975,70.0,102.0
1291,204.4883485125,204.61558035000002,66.0,100.0
1292,204.7562050125,205.11892735625,64.0,92.0
1293,204.7562050125,205.1245077,68.0,99.0
1294,205.0240615125,205.36557855,59.0,55.0
1295,204.7562050125,205.56758699375,52.0,102.0
1296,205.5597745125,205.65240821875,59.0,76.0
1297,205.29191801250002,205.89682727500002,64.0,108.0
1298,205.29191801250002,205.91356830625,68.0,112.0
1299,205.29191801250002,205.92249685625,71.0,111.0
1300,205.8276310125,205.92919326875,52.0,94.0
1301,206.0954875125,206.28187099375,64.0,84.0
1302,206.0954875125,206.37450470000002,59.0,117.0
1303,206.0954875125,206.44593310000002,68.0,102.0
1304,206.0954875125,206.45151344375,71.0,100.0
1305,206.0954875125,206.5352186,52.0,102.0
1306,206.63120051250002,206.90910163125,68.0,116.0
1307,206.63120051250002,206.94816403750002,64.0,111.0
1308,206.63120051250002,207.0530745,71.0,108.0
1309,207.1669135125,207.48499310625002,54.0,66.0
1310,206.8990570125,207.73722464375,47.0,100.0
1311,207.4347700125,207.9347688125,59.0,111.0
1312,207.4347700125,207.9615544625,66.0,108.0
1313,207.4347700125,208.012893625,63.0,105.0
1314,207.9704830125,208.32985715,47.0,97.0
1315,208.5061960125,208.56088338125002,54.0,34.0
1316,208.2383395125,208.63119571250002,59.0,117.0
1317,208.2383395125,208.6401242625,63.0,105.0
1318,208.2383395125,208.6401242625,66.0,111.0
1319,208.77405251250002,208.91356110625,47.0,102.0
1320,208.77405251250002,208.92360572500002,59.0,108.0
1321,209.0419090125,209.43141700625,61.0,97.0
1322,209.0419090125,209.43699735,64.0,92.0
1323,209.0419090125,209.4436937625,68.0,96.0
1324,209.5776220125,209.709318125,61.0,111.0
1325,209.5776220125,209.90463015625002,64.0,117.0
1326,209.5776220125,209.92806760000002,68.0,112.0
1327,209.0419090125,209.97605855625,49.0,100.0
1328,209.84547851250002,210.2494954,61.0,111.0
1329,210.3811915125,210.70485145,70.0,105.0
1330,210.3811915125,210.70819965625,61.0,114.0
1331,210.3811915125,210.72605675625002,66.0,111.0
1332,210.11333501250002,210.7874405375,54.0,108.0
1333,210.9169045125,211.01623463125,66.0,97.0
1334,210.9169045125,211.02516318125,61.0,111.0
1335,211.18476101250002,211.47270675000001,63.0,93.0
1336,211.18476101250002,211.48498350625002,59.0,80.0
1337,211.4526175125,211.8276166125,54.0,48.0
1338,211.7204740125,211.87337543125,59.0,111.0
1339,211.7204740125,212.02962505625,63.0,112.0
1340,211.7204740125,212.18475861250002,66.0,108.0
1341,211.9883305125,212.19480323125,59.0,100.0
1342,212.25618701250002,212.63341825,54.0,89.0
1343,212.52404351250001,212.83542669375,71.0,87.0
1344,212.52404351250001,212.88341765,66.0,97.0
1345,212.52404351250001,212.89234620000002,63.0,109.0
1346,212.52404351250001,212.90797116250002,59.0,105.0
1347,213.0597565125,213.31756839375,59.0,105.0
1348,213.0597565125,213.3320772875,63.0,109.0
1349,213.0597565125,213.33542549375002,66.0,100.0
1350,213.21935434375,213.33542549375002,66.0,89.0
1351,211.18476101250002,213.33765763125,47.0,97.0
1352,212.7919000125,213.34323797500002,54.0,92.0
1353,213.32649694375002,213.34323797500002,54.0,102.0
1354,213.35105045625002,213.7472548625,70.0,109.0
1355,214.46153886250002,217.4481388375,60.0,70.0
1356,214.4704674125,217.45148704375,44.0,79.0
1357,214.34435164375,217.4659959375,56.0,59.0
1358,214.54747615625,217.4749244875,63.0,82.0
1359,214.664663375,217.4838530375,68.0,74.0
1360,217.6133170125,218.02068210625,63.0,79.0
1361,217.6133170125,218.02626245000002,66.0,87.0
1362,217.6133170125,218.04746775625,59.0,80.0
1363,217.8811735125,218.3276010125,54.0,71.0
1364,218.14903001250002,218.7784927875,63.0,99.0
1365,218.4168865125,218.7829570625,59.0,92.0
1366,218.14903001250002,218.81978733125,66.0,97.0
1367,218.9525995125,219.30639330625002,59.0,100.0
1368,217.6133170125,219.59768725,47.0,97.0
1369,218.6847430125,219.736079775,54.0,76.0
1370,219.22045601250002,219.74835653125,63.0,105.0
1371,219.22045601250002,219.7829546625,66.0,105.0
1372,219.48831251250002,219.79746355625002,59.0,105.0
1373,220.0240255125,220.20371258125002,66.0,1.0
1374,220.0240255125,220.584292025,54.0,66.0
1375,220.2918820125,220.825362875,61.0,114.0
1376,220.2918820125,220.90237161875,66.0,102.0
1377,220.2918820125,220.905719825,58.0,99.0
1378,221.0954515125,221.43696855000002,58.0,99.0
1379,220.8275950125,221.6534858875,54.0,76.0
1380,219.7561690125,221.6758072625,46.0,109.0
1381,221.3633080125,221.70594111875002,61.0,100.0
1382,221.63116451250002,221.85326219375,58.0,77.0
1383,221.3633080125,221.963753,66.0,102.0
1384,222.1668775125,222.71821547500002,51.0,55.0
1385,222.4347340125,222.80638490625,63.0,82.0
1386,222.4347340125,222.85660800000002,59.0,105.0
1387,222.7025905125,222.97491128750002,56.0,109.0
1388,223.2383035125,223.57535627500002,56.0,99.0
1389,223.5061600125,223.6802667375,59.0,117.0
1390,221.89902101250001,223.81531105625,44.0,109.0
1391,222.97044701250002,223.84432884375002,51.0,63.0
1392,223.5061600125,223.85995380625002,63.0,99.0
1393,223.7740165125,223.89120373125002,59.0,26.0
1394,223.7740165125,224.0351766,56.0,109.0
1395,223.5061600125,224.06977473125002,68.0,77.0
1396,224.5775860125,224.69477323125,66.0,94.0
1397,224.3097295125,224.89120133125002,61.0,82.0
1398,224.8454425125,225.20816485625002,66.0,87.0
1399,224.5775860125,225.209280925,70.0,99.0
1400,224.5775860125,225.43137860625,73.0,94.0
1401,225.38115551250002,225.58762823125002,66.0,89.0
1402,225.6490120125,226.0150825625,70.0,109.0
1403,224.04187301250002,226.0240111125,54.0,105.0
1404,225.11329901250002,226.04744855625,61.0,51.0
1405,225.9168685125,226.20481425,66.0,78.0
1406,225.6490120125,226.3320460875,73.0,100.0
1407,226.7204380125,226.86552695,64.0,82.0
1408,226.45258151250002,227.07199966875,59.0,84.0
1409,226.9882945125,227.33315975625,64.0,87.0
1410,226.7204380125,227.59431984375001,71.0,97.0
1411,227.52400751250002,227.68918568750001,64.0,89.0
1412,227.7918640125,227.89119413125002,64.0,82.0
1413,227.2561510125,228.01061348750002,59.0,97.0
1414,226.1847250125,228.07646154375,52.0,100.0
1415,227.7918640125,228.11887215625,68.0,105.0
1416,228.0597205125,228.31753239375,64.0,87.0
1417,227.7918640125,228.45369278125,71.0,97.0
1418,228.59543351250002,229.102128725,54.0,62.0
1419,228.86329001250002,229.31864606250002,63.0,102.0
1420,229.1311465125,229.52623485,59.0,102.0
1421,228.86329001250002,229.72266295,66.0,94.0
1422,229.6668595125,229.84431444375002,59.0,84.0
1423,229.93471601250002,230.066412125,59.0,105.0
1424,228.3275770125,230.34208110625002,47.0,97.0
1425,229.93471601250002,230.35435786250002,63.0,102.0
1426,229.3990030125,230.37109889375,54.0,76.0
1427,230.2025725125,230.40681309375,59.0,105.0
1428,229.93471601250002,230.477125425,66.0,94.0
1429,230.7382855125,230.92466899375,59.0,82.0
1430,231.00614201250002,231.32645374375002,59.0,114.0
1431,231.00614201250002,231.60212272500002,64.0,102.0
1432,231.5418550125,231.9079255625,59.0,92.0
1433,231.8097115125,231.98493430625,64.0,87.0
1434,232.07756801250002,232.22154088125,59.0,100.0
1435,231.27399851250001,232.25279080625,56.0,57.0
1436,230.4704290125,232.3922994,49.0,105.0
1437,232.34542451250002,232.55859364375002,59.0,97.0
1438,232.07756801250002,232.584263225,64.0,100.0
1439,232.07756801250002,232.64787914375,68.0,93.0
1440,232.8811375125,233.25948481875,61.0,82.0
1441,233.1489940125,233.736046175,64.0,105.0
1442,233.41685051250002,233.7851532,61.0,82.0
1443,233.1489940125,233.9570277875,70.0,96.0
1444,233.6847070125,234.0708668,58.0,90.0
1445,234.2204200125,234.352116125,66.0,100.0
1446,232.6132810125,234.63448151875002,54.0,87.0
1447,233.9525635125,234.6355975875,61.0,100.0
1448,234.2204200125,234.65233861875,70.0,105.0
1449,234.48827651250002,234.68358854375,66.0,71.0
1450,234.2204200125,234.69028495625,73.0,102.0
1451,234.7427401875,239.48714844375002,63.0,99.0
1452,234.78180259375,239.48938058125,47.0,97.0
1453,234.67354392500002,239.4927287875,59.0,84.0
1454,234.79631148750002,239.4927287875,66.0,63.0
1455,234.89898981250002,239.5016573375,71.0,94.0
